500 0 4 0           
7 Unknown 11 ACIS 5.0 NT 24 Fri Mar 26 01:18:29 1999 
-1 9.9999999999999995e-007 1e-010 
body $-1 $4 $-1 $5 #
body $-1 $6 $-1 $7 #
body $-1 $8 $-1 $9 #
body $-1 $10 $-1 $11 #
lump $-1 $-1 $12 $0 #
transform $-1 1 0 0 0 1 0 0 0 1 52.045045319986571 25.796502275184359 12.857391783117187 1 rotate no_reflect no_shear #
lump $-1 $-1 $13 $1 #
transform $-1 1 0 0 0 1 0 0 0 1 52.045045319986571 25.796502275184359 12.857391783117187 1 rotate no_reflect no_shear #
lump $-1 $-1 $14 $2 #
transform $-1 1 0 0 0 1 0 0 0 1 52.045045319986571 25.796502275184359 12.857391783117187 1 rotate no_reflect no_shear #
lump $-1 $-1 $15 $3 #
transform $-1 1 0 0 0 1 0 0 0 1 52.045045319986571 25.796502275184359 12.857391783117187 1 rotate no_reflect no_shear #
shell $-1 $-1 $-1 $16 $-1 $4 #
shell $-1 $-1 $-1 $17 $-1 $6 #
shell $-1 $-1 $-1 $18 $-1 $8 #
shell $-1 $-1 $-1 $19 $-1 $10 #
face $-1 $20 $21 $12 $-1 $22 forward single #
face $-1 $23 $24 $13 $-1 $25 forward single #
face $-1 $26 $27 $14 $-1 $28 reversed single #
face $-1 $29 $30 $15 $-1 $31 forward single #
face $-1 $32 $33 $12 $-1 $34 reversed single #
loop $-1 $-1 $35 $16 #
plane-surface $-1 0 0 12.857391783117187 0 0 1 1 0 0 forward_v I I I I #
face $-1 $36 $37 $13 $-1 $38 reversed single #
loop $-1 $-1 $39 $17 #
plane-surface $-1 -52.045045319986571 0 0 1 0 0 0 0 -1 forward_v I I I I #
face $-1 $40 $41 $14 $-1 $42 reversed single #
loop $-1 $-1 $43 $18 #
plane-surface $-1 1.3945441565965666e-006 -18.477400032567346 96.281053168423142 0.86602541151947299 0 0.49999998660252726 0.49999998660252726 0 -0.86602541151947299 forward_v I I I I #
face $-1 $44 $45 $15 $-1 $46 forward single #
loop $-1 $47 $48 $19 #
cone-surface $-1 49.335104327882746 -18.477400032567346 9.052472532270512 -0.86602541151947299 0 -0.49999998660252726 0.49999998660252726 0 -0.86602541151947299 1 I I 0 1 1 forward I I I I #
face $-1 $49 $50 $12 $-1 $51 reversed single #
loop $-1 $-1 $52 $20 #
plane-surface $-1 0 0 -12.857391783117187 0 0 1 1 0 0 forward_v I I I I #
coedge $-1 $53 $54 $55 $56 forward $21 $-1 #
face $-1 $57 $58 $13 $-1 $59 reversed single #
loop $-1 $-1 $60 $23 #
plane-surface $-1 0 0 -12.857391783117187 0 0 1 1 0 0 forward_v I I I I #
coedge $-1 $61 $62 $63 $64 forward $24 $-1 #
face $-1 $65 $66 $14 $-1 $67 reversed single #
loop $-1 $-1 $68 $26 #
plane-surface $-1 90.144664976126137 -11.158297789950332 148.32609709386557 0 -1 0 -0.86602541151947299 0 -0.49999998660252726 forward_v I I I I #
coedge $-1 $69 $70 $71 $72 reversed $27 $-1 #
face $-1 $-1 $73 $15 $-1 $74 forward single #
loop $-1 $75 $76 $29 #
cone-surface $-1 48.132336774324955 -18.477400032567346 8.3580543862605694 -0.86602541151947299 0 -0.49999998660252726 0.24999999330126363 0 -0.43301270575973649 1 I I -0.70710678118654746 0.70710678118654746 0.5 forward I I I I #
loop $-1 $-1 $77 $19 #
coedge $-1 $48 $48 $78 $79 reversed $30 $-1 #
face $-1 $80 $81 $12 $-1 $82 reversed single #
loop $-1 $-1 $83 $32 #
plane-surface $-1 0 -25.796502275184359 0 0 1 0 0 0 1 forward_v I I I I #
coedge $-1 $84 $85 $86 $87 forward $33 $-1 #
coedge $-1 $88 $35 $89 $90 forward $21 $-1 #
coedge $-1 $35 $88 $91 $92 forward $21 $-1 #
coedge $-1 $93 $94 $35 $56 reversed $95 $-1 #
edge $-1 $96 -25.796502275184359 $97 25.796502275184359 $55 $98 forward 7 unknown #
face $-1 $99 $100 $13 $-1 $101 reversed single #
loop $-1 $-1 $102 $36 #
plane-surface $-1 -57.549717462397879 -7.5184997236509563 0 0 1 0 0 0 1 forward_v I I I I #
coedge $-1 $103 $104 $62 $105 forward $37 $-1 #
coedge $-1 $106 $39 $107 $108 reversed $24 $-1 #
coedge $-1 $39 $106 $60 $105 reversed $24 $-1 #
coedge $-1 $109 $110 $39 $64 reversed $111 $-1 #
edge $-1 $112 -12.857391783117187 $113 12.857391783117187 $63 $114 forward 7 unknown #
face $-1 $115 $116 $14 $-1 $117 reversed single #
loop $-1 $-1 $118 $40 #
plane-surface $-1 0 -25.796502275184359 0 0 1 0 0 0 1 forward_v I I I I #
coedge $-1 $119 $120 $121 $122 reversed $41 $-1 #
coedge $-1 $123 $43 $118 $124 reversed $27 $-1 #
coedge $-1 $43 $123 $119 $125 forward $27 $-1 #
coedge $-1 $121 $126 $43 $72 forward $116 $-1 #
edge $-1 $127 -16.557802258900686 $128 -1.9195977736666592 $71 $129 forward 7 unknown #
loop $-1 $-1 $78 $44 #
plane-surface $-1 1.3945441565965666e-006 -18.477400032567346 96.281053168423142 0.86602541151947299 0 0.49999998660252726 0.49999998660252726 0 -0.86602541151947299 forward_v I I I I #
loop $-1 $-1 $130 $29 #
coedge $-1 $76 $76 $77 $131 reversed $45 $-1 #
coedge $-1 $77 $77 $76 $131 forward $47 $-1 #
coedge $-1 $78 $78 $48 $79 forward $73 $-1 #
edge $-1 $132 0 $132 6.2831853071796004 $78 $133 forward 7 unknown #
face $-1 $134 $135 $12 $-1 $136 reversed single #
loop $-1 $-1 $137 $49 #
plane-surface $-1 -52.045045319986571 0 0 1 0 0 0 0 -1 forward_v I I I I #
coedge $-1 $138 $91 $139 $140 forward $50 $-1 #
coedge $-1 $141 $52 $138 $142 forward $33 $-1 #
coedge $-1 $52 $141 $143 $144 forward $33 $-1 #
coedge $-1 $94 $93 $52 $87 reversed $95 $-1 #
edge $-1 $145 -25.796502275184359 $146 25.796502275184359 $86 $147 forward 7 unknown #
coedge $-1 $54 $53 $148 $149 forward $21 $-1 #
coedge $-1 $150 $151 $53 $90 reversed $135 $-1 #
edge $-1 $97 -52.045045319986571 $152 52.045045319986571 $89 $153 forward 7 unknown #
coedge $-1 $83 $154 $54 $92 reversed $50 $-1 #
edge $-1 $155 -52.045045319986571 $96 52.045045319986571 $91 $156 forward 7 unknown #
coedge $-1 $86 $55 $154 $157 forward $95 $-1 #
coedge $-1 $55 $86 $150 $158 reversed $95 $-1 #
loop $-1 $-1 $93 $134 #
vertex $-1 $56 $159 #
vertex $-1 $56 $160 #
straight-curve $-1 52.045045319986571 0 12.857391783117187 0 1 0 I I #
face $-1 $161 $111 $13 $-1 $162 reversed single #
loop $-1 $-1 $163 $57 #
plane-surface $-1 -63.054389604809188 -3.8001092163004699 0 1 0 0 0 0 -1 forward_v I I I I #
coedge $-1 $164 $165 $166 $167 forward $58 $-1 #
coedge $-1 $168 $60 $164 $169 forward $37 $-1 #
coedge $-1 $60 $168 $109 $170 forward $37 $-1 #
edge $-1 $112 0.081718708949983565 $171 7.5184997236509563 $60 $172 forward 7 unknown #
coedge $-1 $62 $61 $173 $174 forward $24 $-1 #
coedge $-1 $175 $176 $61 $108 forward $177 $-1 #
edge $-1 $178 -7.5184997236509563 $113 -0.081718708949983565 $107 $179 forward 7 unknown #
coedge $-1 $180 $63 $104 $170 reversed $111 $-1 #
coedge $-1 $63 $180 $175 $181 reversed $111 $-1 #
loop $-1 $-1 $63 $99 #
vertex $-1 $105 $182 #
vertex $-1 $181 $183 #
straight-curve $-1 -52.045045319986571 -0.081718708949983565 0 0 0 1 I I #
face $-1 $-1 $184 $14 $-1 $185 forward single #
loop $-1 $-1 $71 $65 #
plane-surface $-1 52.045045319986571 0 0 -1 0 0 0 0 1 forward_v I I I I #
coedge $-1 $186 $187 $69 $124 forward $66 $-1 #
coedge $-1 $120 $68 $70 $125 reversed $41 $-1 #
coedge $-1 $68 $119 $188 $189 reversed $41 $-1 #
coedge $-1 $190 $71 $68 $122 forward $116 $-1 #
edge $-1 $128 -68.026658960091609 $191 -61.305656763815598 $121 $192 forward 7 unknown #
coedge $-1 $70 $69 $193 $194 reversed $27 $-1 #
edge $-1 $195 54.638426857581408 $127 62.39917164275321 $118 $196 forward 7 unknown #
edge $-1 $197 96.329345854801318 $128 104.09009063997311 $119 $198 forward 7 unknown #
coedge $-1 $71 $190 $186 $199 forward $116 $-1 #
vertex $-1 $72 $200 #
vertex $-1 $72 $201 #
straight-curve $-1 52.045045319986571 -9.2387000162836728 6.1363895868411689 0 1 0 I I #
coedge $-1 $130 $130 $-1 $202 reversed $75 $-1 #
edge $-1 $203 0 $203 6.2831853071796004 $76 $204 forward 7 unknown #
vertex $-1 $79 $205 #
ellipse-curve $-1 50.104859175680794 -18.477400032567346 9.4968906849791868 0.86602541151947299 0 0.49999998660252726 0.49999998660252726 0 -0.86602541151947299 1 I I #
face $-1 $-1 $95 $12 $-1 $206 reversed single #
loop $-1 $-1 $150 $80 #
plane-surface $-1 0 25.796502275184359 0 0 -1 0 0 0 -1 forward_v I I I I #
coedge $-1 $207 $148 $151 $208 forward $81 $-1 #
coedge $-1 $154 $83 $84 $142 reversed $50 $-1 #
coedge $-1 $148 $207 $83 $140 reversed $81 $-1 #
edge $-1 $155 -12.857391783117187 $209 12.857391783117187 $139 $210 forward 7 unknown #
coedge $-1 $85 $84 $207 $211 forward $33 $-1 #
edge $-1 $146 -52.045045319986571 $209 52.045045319986571 $138 $212 forward 7 unknown #
coedge $-1 $151 $150 $85 $144 reversed $135 $-1 #
edge $-1 $213 -52.045045319986571 $145 52.045045319986571 $143 $214 forward 7 unknown #
vertex $-1 $87 $215 #
vertex $-1 $157 $216 #
straight-curve $-1 52.045045319986571 0 -12.857391783117187 0 -1 0 I I #
coedge $-1 $137 $139 $88 $149 reversed $81 $-1 #
edge $-1 $152 -25.796502275184359 $155 25.796502275184359 $148 $217 forward 7 unknown #
coedge $-1 $143 $89 $94 $158 forward $135 $-1 #
coedge $-1 $89 $143 $137 $208 reversed $135 $-1 #
vertex $-1 $90 $218 #
straight-curve $-1 0 25.796502275184359 12.857391783117187 -1 0 0 I I #
coedge $-1 $91 $138 $93 $157 reversed $50 $-1 #
vertex $-1 $149 $219 #
straight-curve $-1 0 -25.796502275184359 12.857391783117187 1 0 0 I I #
edge $-1 $96 -12.857391783117187 $146 12.857391783117187 $93 $220 forward 7 unknown #
edge $-1 $97 -12.857391783117187 $145 12.857391783117187 $94 $221 forward 7 unknown #
point $-1 52.045045319986571 -25.796502275184359 12.857391783117187 #
point $-1 52.045045319986571 25.796502275184359 12.857391783117187 #
face $-1 $-1 $177 $13 $-1 $222 forward single #
plane-surface $-1 -57.549717462397879 -0.081718708949983565 0 0 -1 0 0 0 -1 forward_v I I I I #
coedge $-1 $223 $224 $180 $225 forward $100 $-1 #
coedge $-1 $173 $102 $103 $169 reversed $58 $-1 #
coedge $-1 $102 $173 $176 $226 reversed $58 $-1 #
coedge $-1 $224 $223 $102 $167 reversed $100 $-1 #
edge $-1 $227 -12.857391783117187 $228 12.857391783117187 $166 $229 forward 7 unknown #
coedge $-1 $104 $103 $223 $230 forward $37 $-1 #
edge $-1 $171 -5.5046721424113088 $228 5.5046721424113088 $164 $231 forward 7 unknown #
edge $-1 $232 -5.5046721424113088 $112 5.5046721424113088 $109 $233 forward 7 unknown #
vertex $-1 $169 $234 #
straight-curve $-1 -52.045045319986571 0 -12.857391783117187 0 -1 0 I I #
coedge $-1 $165 $164 $106 $174 reversed $58 $-1 #
edge $-1 $178 -12.857391783117187 $171 12.857391783117187 $173 $235 forward 7 unknown #
coedge $-1 $236 $107 $110 $181 forward $177 $-1 #
coedge $-1 $107 $236 $165 $226 forward $177 $-1 #
loop $-1 $-1 $107 $161 #
vertex $-1 $108 $237 #
straight-curve $-1 -52.045045319986571 0 12.857391783117187 0 1 0 I I #
coedge $-1 $110 $109 $163 $225 reversed $111 $-1 #
edge $-1 $113 -5.5046721424113088 $238 5.5046721424113088 $110 $239 forward 7 unknown #
point $-1 -52.045045319986571 -0.081718708949983565 -12.857391783117187 #
point $-1 -52.045045319986571 -0.081718708949983565 12.857391783117187 #
loop $-1 $-1 $193 $115 #
plane-surface $-1 0 0 12.857391783117187 0 0 1 1 0 0 forward_v I I I I #
coedge $-1 $187 $118 $126 $199 reversed $66 $-1 #
coedge $-1 $118 $186 $240 $241 reversed $66 $-1 #
coedge $-1 $193 $242 $120 $189 forward $184 $-1 #
edge $-1 $191 -6.9727128319235021 $197 -3.0923405433119697 $188 $243 forward 7 unknown #
coedge $-1 $126 $121 $242 $244 reversed $116 $-1 #
vertex $-1 $122 $245 #
straight-curve $-1 52.045045319986571 -11.158297789950332 74.163048546932785 0 0 1 I I #
coedge $-1 $240 $188 $123 $194 forward $184 $-1 #
edge $-1 $197 1.9195977736666592 $195 16.557802258900686 $193 $246 forward 7 unknown #
vertex $-1 $241 $247 #
straight-curve $-1 20.845460334601167 -25.796502275184359 60.175657887230741 0.49999998660252726 0 -0.86602541151947299 I I #
vertex $-1 $194 $248 #
straight-curve $-1 1.3945441565965666e-006 -11.158297789950332 96.281053168423142 0.49999998660252726 0 -0.86602541151947299 I I #
edge $-1 $249 -12.857391783117187 $127 -6.1363895868411644 $126 $250 forward 7 unknown #
point $-1 52.045045319986571 -25.796502275184359 6.1363895868411644 #
point $-1 52.045045319986571 -11.158297789950332 6.136389586841176 #
edge $-1 $251 1 $251 0 $130 $-1 forward 7 unknown #
vertex $-1 $131 $252 #
ellipse-curve $-1 48.565349480084691 -18.477400032567346 8.6080543795618336 0.86602541151947299 0 0.49999998660252726 0.49999998660252726 0 -0.86602541151947299 1 I I #
point $-1 50.604859162283333 -18.477400032567346 8.6308652734597189 #
plane-surface $-1 52.045045319986571 0 0 -1 0 0 0 0 1 forward_v I I I I #
coedge $-1 $139 $137 $141 $211 reversed $81 $-1 #
edge $-1 $152 -12.857391783117187 $213 12.857391783117187 $151 $253 forward 7 unknown #
vertex $-1 $211 $254 #
straight-curve $-1 -52.045045319986571 -25.796502275184359 0 0 0 -1 I I #
edge $-1 $209 -25.796502275184359 $213 25.796502275184359 $207 $255 forward 7 unknown #
straight-curve $-1 0 -25.796502275184359 -12.857391783117187 -1 0 0 I I #
vertex $-1 $144 $256 #
straight-curve $-1 0 25.796502275184359 -12.857391783117187 1 0 0 I I #
point $-1 52.045045319986571 25.796502275184359 -12.857391783117187 #
point $-1 52.045045319986571 -25.796502275184359 -12.857391783117187 #
straight-curve $-1 -52.045045319986571 0 12.857391783117187 0 -1 0 I I #
point $-1 -52.045045319986571 25.796502275184359 12.857391783117187 #
point $-1 -52.045045319986571 -25.796502275184359 12.857391783117187 #
straight-curve $-1 52.045045319986571 -25.796502275184359 0 0 0 -1 I I #
straight-curve $-1 52.045045319986571 25.796502275184359 0 0 0 -1 I I #
plane-surface $-1 0 0 12.857391783117187 0 0 1 1 0 0 forward_v I I I I #
coedge $-1 $166 $163 $168 $230 reversed $100 $-1 #
coedge $-1 $163 $166 $236 $257 reversed $100 $-1 #
edge $-1 $238 -12.857391783117187 $232 12.857391783117187 $180 $258 forward 7 unknown #
edge $-1 $227 -5.5046721424113088 $178 5.5046721424113088 $165 $259 forward 7 unknown #
vertex $-1 $257 $260 #
vertex $-1 $230 $261 #
straight-curve $-1 -63.054389604809188 -7.5184997236509563 0 0 0 -1 I I #
edge $-1 $228 -3.7183905073504864 $232 3.7183905073504864 $223 $262 forward 7 unknown #
straight-curve $-1 -57.549717462397879 -7.5184997236509563 -12.857391783117187 -1 0 0 I I #
vertex $-1 $170 $263 #
straight-curve $-1 -57.549717462397879 -0.081718708949983565 -12.857391783117187 1 0 0 I I #
point $-1 -52.045045319986571 -7.5184997236509563 -12.857391783117187 #
straight-curve $-1 -52.045045319986571 -7.5184997236509563 0 0 0 -1 I I #
coedge $-1 $176 $175 $224 $257 forward $177 $-1 #
point $-1 -52.045045319986571 -7.5184997236509563 12.857391783117187 #
vertex $-1 $181 $264 #
straight-curve $-1 -57.549717462397879 -0.081718708949983565 12.857391783117187 -1 0 0 I I #
coedge $-1 $242 $193 $187 $241 forward $184 $-1 #
edge $-1 $195 48.164673031375038 $249 52.045045319986571 $187 $265 forward 7 unknown #
coedge $-1 $188 $240 $190 $244 forward $184 $-1 #
straight-curve $-1 45.072332488063068 -11.158297789950332 12.857391783117194 -1 0 0 I I #
edge $-1 $249 -25.796502275184359 $191 -11.158297789950332 $190 $266 forward 7 unknown #
point $-1 52.045045319986571 -11.158297789950332 12.857391783117187 #
straight-curve $-1 48.164673031375031 -9.2387000162836728 12.85739178311718 0 -1 0 I I #
point $-1 48.164673031375038 -25.796502275184359 12.85739178311718 #
point $-1 48.164673031375038 -11.158297789950332 12.85739178311718 #
vertex $-1 $244 $267 #
straight-curve $-1 52.045045319986571 -25.796502275184359 0 0 0 -1 I I #
vertex $-1 $202 $268 #
point $-1 49.065349466687216 -18.477400032567346 7.7420289680423604 #
straight-curve $-1 -52.045045319986571 25.796502275184359 0 0 0 -1 I I #
point $-1 -52.045045319986571 -25.796502275184359 -12.857391783117187 #
straight-curve $-1 -52.045045319986571 0 -12.857391783117187 0 1 0 I I #
point $-1 -52.045045319986571 25.796502275184359 -12.857391783117187 #
edge $-1 $238 -3.7183905073504864 $227 3.7183905073504864 $224 $269 forward 7 unknown #
straight-curve $-1 -63.054389604809188 -0.081718708949983565 0 0 0 -1 I I #
straight-curve $-1 -57.549717462397879 -7.5184997236509563 12.857391783117187 1 0 0 I I #
point $-1 -63.054389604809188 -7.5184997236509563 12.857391783117187 #
point $-1 -63.054389604809188 -7.5184997236509563 -12.857391783117187 #
straight-curve $-1 -63.054389604809188 -3.8001092163004699 -12.857391783117187 0 1 0 I I #
point $-1 -63.054389604809188 -0.081718708949983565 -12.857391783117187 #
point $-1 -63.054389604809188 -0.081718708949983565 12.857391783117187 #
straight-curve $-1 0 -25.796502275184359 12.857391783117187 1 0 0 I I #
straight-curve $-1 52.045045319986571 0 12.857391783117187 0 1 0 I I #
point $-1 52.045045319986571 -25.796502275184359 12.857391783117187 #
point $-1 47.699324068565218 -18.477400032567346 8.1080543929593052 #
straight-curve $-1 -63.054389604809188 -3.8001092163004699 12.857391783117187 0 -1 0 I I #
End-of-ACIS-data 