500 0 3 0           
7 Unknown 11 ACIS 5.0 NT 24 Thu Mar 25 23:57:38 1999 
-1 9.9999999999999995e-007 1e-010 
body $-1 $3 $-1 $4 #
body $-1 $5 $-1 $6 #
body $-1 $7 $-1 $8 #
lump $-1 $-1 $9 $0 #
transform $-1 1 0 0 0 1 0 0 0 1 60.557267983031707 32.033791235190442 7.9174799364127582 1 rotate no_reflect no_shear #
lump $-1 $-1 $10 $1 #
transform $-1 1 0 0 0 1 0 0 0 1 60.557267983031707 32.033791235190442 7.9174799364127582 1 rotate no_reflect no_shear #
lump $-1 $-1 $11 $2 #
transform $-1 1 0 0 0 1 0 0 0 1 60.557267983031707 32.033791235190442 7.9174799364127582 1 rotate no_reflect no_shear #
shell $-1 $-1 $-1 $12 $-1 $3 #
shell $-1 $-1 $-1 $13 $-1 $5 #
shell $-1 $-1 $-1 $14 $-1 $7 #
face $-1 $15 $16 $9 $-1 $17 forward single #
face $-1 $18 $19 $10 $-1 $20 forward single #
face $-1 $21 $22 $11 $-1 $23 forward single #
face $-1 $24 $25 $9 $-1 $26 reversed single #
loop $-1 $-1 $27 $12 #
plane-surface $-1 0 0 7.9174799364127582 0 0 1 1 0 0 forward_v I I I I #
face $-1 $28 $29 $10 $-1 $30 reversed single #
loop $-1 $-1 $31 $13 #
plane-surface $-1 0 -34.975876713890386 -4.0959131412128036 0 0 1 1 0 0 forward_v I I I I #
face $-1 $32 $33 $11 $-1 $34 reversed single #
loop $-1 $-1 $35 $14 #
plane-surface $-1 0 34.975876713890393 -4.0959131412128036 0 0 1 1 0 0 forward_v I I I I #
face $-1 $36 $37 $9 $-1 $38 reversed single #
loop $-1 $-1 $39 $15 #
plane-surface $-1 0 0 -7.9174799364127582 0 0 1 1 0 0 forward_v I I I I #
coedge $-1 $40 $41 $42 $43 forward $16 $-1 #
face $-1 $44 $45 $10 $-1 $46 forward single #
loop $-1 $-1 $47 $18 #
plane-surface $-1 0 -37.917962192590331 -6.0066965388127809 0 1 0 0 0 1 forward_v I I I I #
coedge $-1 $48 $49 $50 $51 forward $19 $-1 #
face $-1 $52 $53 $11 $-1 $54 forward single #
loop $-1 $-1 $55 $21 #
plane-surface $-1 0 37.917962192590338 -6.0066965388127809 0 -1 0 0 0 -1 forward_v I I I I #
coedge $-1 $56 $57 $58 $59 forward $22 $-1 #
face $-1 $60 $61 $9 $-1 $62 reversed single #
loop $-1 $-1 $63 $24 #
plane-surface $-1 0 -32.033791235190442 0 0 1 0 0 0 1 forward_v I I I I #
coedge $-1 $64 $65 $66 $67 forward $25 $-1 #
coedge $-1 $68 $27 $69 $70 forward $16 $-1 #
coedge $-1 $27 $68 $71 $72 forward $16 $-1 #
coedge $-1 $73 $74 $27 $43 reversed $75 $-1 #
edge $-1 $76 -32.033791235190442 $77 32.033791235190442 $42 $78 forward 7 unknown #
face $-1 $79 $80 $10 $-1 $81 reversed single #
loop $-1 $-1 $82 $28 #
plane-surface $-1 0 0 7.9174799364127582 0 0 1 1 0 0 forward_v I I I I #
coedge $-1 $83 $84 $85 $86 forward $29 $-1 #
coedge $-1 $87 $31 $88 $89 reversed $19 $-1 #
coedge $-1 $31 $87 $84 $90 forward $19 $-1 #
coedge $-1 $91 $92 $31 $51 reversed $93 $-1 #
edge $-1 $94 -2.9420854786999442 $95 2.9420854786999442 $50 $96 forward 7 unknown #
face $-1 $97 $98 $11 $-1 $99 reversed single #
loop $-1 $-1 $100 $32 #
plane-surface $-1 0 -34.975876713890386 -4.0959131412128036 0 0 1 1 0 0 forward_v I I I I #
coedge $-1 $101 $102 $103 $104 forward $33 $-1 #
coedge $-1 $105 $35 $102 $106 forward $22 $-1 #
coedge $-1 $35 $105 $107 $108 reversed $22 $-1 #
coedge $-1 $109 $103 $35 $59 reversed $110 $-1 #
edge $-1 $111 -2.9420854786999442 $112 2.9420854786999442 $58 $113 forward 7 unknown #
face $-1 $114 $115 $9 $-1 $116 reversed single #
loop $-1 $-1 $117 $36 #
plane-surface $-1 -60.557267983031707 0 0 1 0 0 0 0 -1 forward_v I I I I #
coedge $-1 $118 $71 $119 $120 forward $37 $-1 #
coedge $-1 $121 $39 $118 $122 forward $25 $-1 #
coedge $-1 $39 $121 $123 $124 forward $25 $-1 #
coedge $-1 $74 $73 $39 $67 reversed $75 $-1 #
edge $-1 $125 -32.033791235190442 $126 32.033791235190442 $66 $127 forward 7 unknown #
coedge $-1 $41 $40 $128 $129 forward $16 $-1 #
coedge $-1 $130 $131 $40 $70 reversed $115 $-1 #
edge $-1 $77 -60.557267983031707 $132 60.557267983031707 $69 $133 forward 7 unknown #
coedge $-1 $63 $134 $41 $72 reversed $37 $-1 #
edge $-1 $135 -60.557267983031707 $76 60.557267983031707 $71 $136 forward 7 unknown #
coedge $-1 $66 $42 $134 $137 forward $75 $-1 #
coedge $-1 $42 $66 $130 $138 reversed $75 $-1 #
loop $-1 $-1 $73 $114 #
vertex $-1 $43 $139 #
vertex $-1 $43 $140 #
straight-curve $-1 60.557267983031707 0 7.9174799364127582 0 1 0 I I #
face $-1 $141 $142 $10 $-1 $143 reversed single #
loop $-1 $-1 $144 $44 #
plane-surface $-1 0 0 -7.9174799364127582 0 0 1 1 0 0 forward_v I I I I #
coedge $-1 $145 $146 $147 $148 forward $45 $-1 #
coedge $-1 $149 $47 $150 $151 reversed $29 $-1 #
coedge $-1 $47 $149 $49 $90 reversed $29 $-1 #
coedge $-1 $152 $153 $47 $86 reversed $154 $-1 #
edge $-1 $155 -1.9107833975999773 $156 1.9107833975999773 $85 $157 forward 7 unknown #
coedge $-1 $49 $48 $152 $158 forward $19 $-1 #
coedge $-1 $159 $160 $48 $89 forward $142 $-1 #
edge $-1 $161 -60.557267983031707 $95 60.557267983031707 $88 $162 forward 7 unknown #
edge $-1 $155 -60.557267983031707 $94 60.557267983031707 $84 $163 forward 7 unknown #
coedge $-1 $164 $50 $149 $165 forward $93 $-1 #
coedge $-1 $50 $147 $159 $166 forward $93 $-1 #
loop $-1 $-1 $92 $167 #
vertex $-1 $51 $168 #
vertex $-1 $51 $169 #
straight-curve $-1 60.557267983031707 -34.975876713890386 -4.0959131412128036 0 1 0 I I #
face $-1 $170 $171 $11 $-1 $172 forward single #
loop $-1 $-1 $173 $52 #
plane-surface $-1 0 -37.917962192590331 -6.0066965388127809 0 1 0 0 0 1 forward_v I I I I #
coedge $-1 $174 $175 $176 $177 forward $53 $-1 #
coedge $-1 $178 $55 $179 $180 reversed $33 $-1 #
coedge $-1 $55 $178 $56 $106 reversed $33 $-1 #
coedge $-1 $58 $181 $55 $104 reversed $110 $-1 #
edge $-1 $112 -1.9107833975999773 $182 1.9107833975999773 $103 $183 forward 7 unknown #
coedge $-1 $57 $56 $184 $185 forward $22 $-1 #
edge $-1 $112 -60.557267983031707 $186 60.557267983031707 $102 $187 forward 7 unknown #
coedge $-1 $188 $189 $57 $108 forward $190 $-1 #
edge $-1 $111 -60.557267983031707 $191 60.557267983031707 $107 $192 forward 7 unknown #
coedge $-1 $193 $58 $189 $194 reversed $110 $-1 #
loop $-1 $-1 $195 $196 #
vertex $-1 $194 $197 #
vertex $-1 $59 $198 #
straight-curve $-1 60.557267983031707 34.975876713890393 -4.0959131412128036 0 1 0 I I #
face $-1 $-1 $75 $9 $-1 $199 reversed single #
loop $-1 $-1 $130 $60 #
plane-surface $-1 0 32.033791235190442 0 0 -1 0 0 0 -1 forward_v I I I I #
coedge $-1 $200 $128 $131 $201 forward $61 $-1 #
coedge $-1 $134 $63 $64 $122 reversed $37 $-1 #
coedge $-1 $128 $200 $63 $120 reversed $61 $-1 #
edge $-1 $135 -7.9174799364127582 $202 7.9174799364127582 $119 $203 forward 7 unknown #
coedge $-1 $65 $64 $200 $204 forward $25 $-1 #
edge $-1 $126 -60.557267983031707 $202 60.557267983031707 $118 $205 forward 7 unknown #
coedge $-1 $131 $130 $65 $124 reversed $115 $-1 #
edge $-1 $206 -60.557267983031707 $125 60.557267983031707 $123 $207 forward 7 unknown #
vertex $-1 $67 $208 #
vertex $-1 $137 $209 #
straight-curve $-1 60.557267983031707 0 -7.9174799364127582 0 -1 0 I I #
coedge $-1 $117 $119 $68 $129 reversed $61 $-1 #
edge $-1 $132 -32.033791235190442 $135 32.033791235190442 $128 $210 forward 7 unknown #
coedge $-1 $123 $69 $74 $138 forward $115 $-1 #
coedge $-1 $69 $123 $117 $201 reversed $115 $-1 #
vertex $-1 $70 $211 #
straight-curve $-1 0 32.033791235190442 7.9174799364127582 -1 0 0 I I #
coedge $-1 $71 $118 $73 $137 reversed $37 $-1 #
vertex $-1 $129 $212 #
straight-curve $-1 0 -32.033791235190442 7.9174799364127582 1 0 0 I I #
edge $-1 $76 -7.9174799364127582 $126 7.9174799364127582 $73 $213 forward 7 unknown #
edge $-1 $77 -7.9174799364127582 $125 7.9174799364127582 $74 $214 forward 7 unknown #
point $-1 60.557267983031707 -32.033791235190442 7.9174799364127582 #
point $-1 60.557267983031707 32.033791235190442 7.9174799364127582 #
face $-1 $215 $154 $10 $-1 $216 reversed single #
loop $-1 $-1 $88 $79 #
plane-surface $-1 0 -32.033791235190442 0 0 1 0 0 0 1 forward_v I I I I #
coedge $-1 $150 $217 $164 $218 forward $80 $-1 #
coedge $-1 $219 $82 $220 $221 forward $45 $-1 #
coedge $-1 $82 $219 $222 $223 forward $45 $-1 #
coedge $-1 $92 $224 $82 $148 reversed $93 $-1 #
edge $-1 $225 -32.033791235190442 $226 32.033791235190442 $147 $227 forward 7 unknown #
coedge $-1 $84 $83 $91 $165 reversed $29 $-1 #
coedge $-1 $228 $144 $83 $151 forward $80 $-1 #
edge $-1 $229 -60.557267983031707 $156 60.557267983031707 $83 $230 forward 7 unknown #
coedge $-1 $231 $85 $87 $158 reversed $154 $-1 #
coedge $-1 $85 $232 $228 $233 reversed $154 $-1 #
loop $-1 $-1 $232 $141 #
vertex $-1 $158 $234 #
vertex $-1 $233 $235 #
straight-curve $-1 -60.557267983031707 -37.917962192590331 -6.0066965388127809 0 0 -1 I I #
edge $-1 $161 -2.9420854786999442 $155 2.9420854786999442 $152 $236 forward 7 unknown #
coedge $-1 $222 $88 $92 $166 reversed $142 $-1 #
coedge $-1 $88 $222 $231 $237 forward $142 $-1 #
vertex $-1 $237 $238 #
straight-curve $-1 0 -32.033791235190442 -4.0959131412128036 1 0 0 I I #
straight-curve $-1 0 -37.917962192590331 -4.0959131412128036 1 0 0 I I #
coedge $-1 $224 $91 $144 $218 reversed $93 $-1 #
edge $-1 $94 -1.9107833975999773 $229 1.9107833975999773 $91 $239 forward 7 unknown #
edge $-1 $225 -7.9174799364127582 $95 4.0959131412128036 $92 $240 forward 7 unknown #
face $-1 $-1 $93 $10 $-1 $241 reversed single #
point $-1 60.557267983031707 -37.917962192590331 -4.0959131412128036 #
point $-1 60.557267983031707 -32.033791235190442 -4.0959131412128036 #
face $-1 $242 $243 $11 $-1 $244 reversed single #
loop $-1 $-1 $245 $97 #
plane-surface $-1 0 0 7.9174799364127582 0 0 1 1 0 0 forward_v I I I I #
coedge $-1 $246 $247 $248 $249 forward $98 $-1 #
coedge $-1 $250 $100 $251 $252 reversed $53 $-1 #
coedge $-1 $100 $250 $247 $253 forward $53 $-1 #
coedge $-1 $254 $195 $100 $177 reversed $110 $-1 #
edge $-1 $255 -2.9420854786999442 $256 2.9420854786999442 $176 $257 forward 7 unknown #
coedge $-1 $102 $101 $258 $259 reversed $33 $-1 #
coedge $-1 $260 $261 $101 $180 forward $243 $-1 #
edge $-1 $262 -60.557267983031707 $182 60.557267983031707 $101 $263 forward 7 unknown #
coedge $-1 $103 $254 $260 $264 reversed $110 $-1 #
vertex $-1 $264 $265 #
straight-curve $-1 60.557267983031707 37.917962192590338 -6.0066965388127809 0 0 -1 I I #
coedge $-1 $258 $266 $105 $185 reversed $267 $-1 #
edge $-1 $186 -2.9420854786999442 $191 2.9420854786999442 $184 $268 forward 7 unknown #
vertex $-1 $106 $269 #
straight-curve $-1 0 37.917962192590338 -4.0959131412128036 -1 0 0 I I #
coedge $-1 $270 $107 $266 $271 reversed $190 $-1 #
coedge $-1 $107 $270 $109 $194 forward $190 $-1 #
loop $-1 $-1 $107 $272 #
vertex $-1 $185 $273 #
straight-curve $-1 0 32.033791235190442 -4.0959131412128036 -1 0 0 I I #
coedge $-1 $195 $109 $245 $274 reversed $110 $-1 #
edge $-1 $275 -7.9174799364127582 $111 4.0959131412128036 $109 $276 forward 7 unknown #
coedge $-1 $176 $193 $277 $278 forward $110 $-1 #
face $-1 $-1 $110 $11 $-1 $279 reversed single #
point $-1 60.557267983031707 32.033791235190449 -4.0959131412128036 #
point $-1 60.557267983031707 37.917962192590338 -4.0959131412128036 #
plane-surface $-1 60.557267983031707 0 0 -1 0 0 0 0 1 forward_v I I I I #
coedge $-1 $119 $117 $121 $204 reversed $61 $-1 #
edge $-1 $132 -7.9174799364127582 $206 7.9174799364127582 $131 $280 forward 7 unknown #
vertex $-1 $204 $281 #
straight-curve $-1 -60.557267983031707 -32.033791235190442 0 0 0 -1 I I #
edge $-1 $202 -32.033791235190442 $206 32.033791235190442 $200 $282 forward 7 unknown #
straight-curve $-1 0 -32.033791235190442 -7.9174799364127582 -1 0 0 I I #
vertex $-1 $124 $283 #
straight-curve $-1 0 32.033791235190442 -7.9174799364127582 1 0 0 I I #
point $-1 60.557267983031707 32.033791235190442 -7.9174799364127582 #
point $-1 60.557267983031707 -32.033791235190442 -7.9174799364127582 #
straight-curve $-1 -60.557267983031707 0 7.9174799364127582 0 -1 0 I I #
point $-1 -60.557267983031707 32.033791235190442 7.9174799364127582 #
point $-1 -60.557267983031707 -32.033791235190442 7.9174799364127582 #
straight-curve $-1 60.557267983031707 -32.033791235190442 0 0 0 -1 I I #
straight-curve $-1 60.557267983031707 32.033791235190442 0 0 0 -1 I I #
face $-1 $167 $284 $10 $-1 $285 reversed single #
plane-surface $-1 -60.557267983031707 0 0 1 0 0 0 0 -1 forward_v I I I I #
coedge $-1 $144 $228 $286 $287 forward $80 $-1 #
edge $-1 $288 -32.033791235190442 $229 37.917962192590331 $164 $289 forward 7 unknown #
coedge $-1 $146 $145 $290 $291 forward $45 $-1 #
coedge $-1 $292 $293 $145 $221 reversed $284 $-1 #
edge $-1 $226 -60.557267983031707 $294 60.557267983031707 $220 $295 forward 7 unknown #
coedge $-1 $160 $159 $146 $223 reversed $142 $-1 #
edge $-1 $296 -60.557267983031707 $225 60.557267983031707 $222 $297 forward 7 unknown #
coedge $-1 $147 $164 $292 $298 reversed $93 $-1 #
vertex $-1 $148 $299 #
vertex $-1 $148 $300 #
straight-curve $-1 60.557267983031707 0 7.9174799364127582 0 1 0 I I #
coedge $-1 $217 $150 $153 $233 forward $80 $-1 #
vertex $-1 $165 $301 #
straight-curve $-1 0 -37.917962192590331 -7.9174799364127582 -1 0 0 I I #
coedge $-1 $290 $152 $160 $237 reversed $154 $-1 #
coedge $-1 $153 $290 $293 $302 forward $154 $-1 #
edge $-1 $156 -37.917962192590331 $303 32.033791235190442 $153 $304 forward 7 unknown #
point $-1 -60.557267983031707 -37.917962192590331 -4.0959131412128036 #
point $-1 -60.557267983031707 -37.917962192590331 -7.9174799364127582 #
straight-curve $-1 -60.557267983031707 -34.975876713890386 -4.0959131412128036 0 -1 0 I I #
edge $-1 $296 -7.9174799364127582 $161 4.0959131412128036 $231 $305 forward 7 unknown #
point $-1 -60.557267983031707 -32.033791235190442 -4.0959131412128036 #
straight-curve $-1 60.557267983031707 -37.917962192590331 -6.0066965388127809 0 0 -1 I I #
straight-curve $-1 60.557267983031707 -32.033791235190442 0 0 0 -1 I I #
plane-surface $-1 60.557267983031707 0 0 -1 0 0 0 0 1 forward_v I I I I #
face $-1 $306 $307 $11 $-1 $308 reversed single #
loop $-1 $-1 $260 $170 #
plane-surface $-1 0 0 -7.9174799364127582 0 0 1 1 0 0 forward_v I I I I #
coedge $-1 $309 $310 $193 $274 forward $171 $-1 #
coedge $-1 $311 $173 $312 $313 reversed $98 $-1 #
coedge $-1 $173 $311 $175 $253 reversed $98 $-1 #
coedge $-1 $314 $315 $173 $249 reversed $267 $-1 #
edge $-1 $316 -1.9107833975999773 $317 1.9107833975999773 $248 $318 forward 7 unknown #
coedge $-1 $175 $174 $314 $319 forward $53 $-1 #
coedge $-1 $277 $320 $174 $252 forward $307 $-1 #
edge $-1 $321 -60.557267983031707 $256 60.557267983031707 $251 $322 forward 7 unknown #
edge $-1 $316 -60.557267983031707 $255 60.557267983031707 $247 $323 forward 7 unknown #
coedge $-1 $181 $176 $311 $324 forward $110 $-1 #
vertex $-1 $177 $325 #
vertex $-1 $177 $326 #
straight-curve $-1 60.557267983031707 -34.975876713890386 -4.0959131412128036 0 1 0 I I #
coedge $-1 $315 $184 $178 $259 forward $267 $-1 #
edge $-1 $186 -1.9107833975999773 $262 1.9107833975999773 $178 $327 forward 7 unknown #
coedge $-1 $312 $179 $181 $264 forward $243 $-1 #
coedge $-1 $179 $312 $315 $328 forward $243 $-1 #
vertex $-1 $180 $329 #
straight-curve $-1 0 37.917962192590338 -7.9174799364127582 1 0 0 I I #
edge $-1 $182 -37.917962192590338 $330 37.917962192590331 $181 $331 forward 7 unknown #
point $-1 60.557267983031707 37.917962192590338 -7.9174799364127582 #
coedge $-1 $184 $332 $188 $271 forward $267 $-1 #
loop $-1 $-1 $266 $306 #
straight-curve $-1 -60.557267983031707 34.975876713890393 -4.0959131412128036 0 -1 0 I I #
point $-1 -60.557267983031707 37.917962192590338 -4.0959131412128036 #
coedge $-1 $189 $188 $309 $333 reversed $190 $-1 #
edge $-1 $334 -7.9174799364127582 $191 4.0959131412128036 $188 $335 forward 7 unknown #
face $-1 $196 $190 $11 $-1 $336 reversed single #
point $-1 -60.557267983031707 32.033791235190449 -4.0959131412128036 #
edge $-1 $337 -32.033791235190442 $275 32.033791235190442 $193 $338 forward 7 unknown #
vertex $-1 $274 $339 #
straight-curve $-1 60.557267983031707 32.033791235190442 0 0 0 -1 I I #
coedge $-1 $340 $251 $195 $278 reversed $307 $-1 #
edge $-1 $337 -7.9174799364127582 $256 4.0959131412128036 $195 $341 forward 7 unknown #
plane-surface $-1 60.557267983031707 0 0 -1 0 0 0 0 1 forward_v I I I I #
straight-curve $-1 -60.557267983031707 32.033791235190442 0 0 0 -1 I I #
point $-1 -60.557267983031707 -32.033791235190442 -7.9174799364127582 #
straight-curve $-1 -60.557267983031707 0 -7.9174799364127582 0 1 0 I I #
point $-1 -60.557267983031707 32.033791235190442 -7.9174799364127582 #
loop $-1 $-1 $292 $215 #
plane-surface $-1 0 32.033791235190442 0 0 -1 0 0 0 -1 forward_v I I I I #
coedge $-1 $293 $292 $217 $287 reversed $284 $-1 #
edge $-1 $303 -60.557267983031707 $288 60.557267983031707 $286 $342 forward 7 unknown #
vertex $-1 $218 $343 #
straight-curve $-1 60.557267983031707 0 -7.9174799364127582 0 -1 0 I I #
coedge $-1 $232 $231 $219 $291 reversed $154 $-1 #
edge $-1 $294 -32.033791235190442 $296 32.033791235190442 $290 $344 forward 7 unknown #
coedge $-1 $286 $220 $224 $298 forward $284 $-1 #
coedge $-1 $220 $286 $232 $302 reversed $284 $-1 #
vertex $-1 $221 $345 #
straight-curve $-1 0 32.033791235190442 7.9174799364127582 -1 0 0 I I #
vertex $-1 $291 $346 #
straight-curve $-1 0 -32.033791235190442 7.9174799364127582 1 0 0 I I #
edge $-1 $226 -7.9174799364127582 $288 7.9174799364127582 $224 $347 forward 7 unknown #
point $-1 60.557267983031707 -32.033791235190442 7.9174799364127582 #
point $-1 60.557267983031707 32.033791235190442 7.9174799364127582 #
point $-1 60.557267983031707 -37.917962192590331 -7.9174799364127582 #
edge $-1 $294 -7.9174799364127582 $303 7.9174799364127582 $293 $348 forward 7 unknown #
vertex $-1 $287 $349 #
straight-curve $-1 -60.557267983031707 0 -7.9174799364127582 0 1 0 I I #
straight-curve $-1 -60.557267983031707 -32.033791235190442 0 0 0 -1 I I #
face $-1 $272 $267 $11 $-1 $350 reversed single #
loop $-1 $-1 $251 $242 #
plane-surface $-1 0 -32.033791235190442 0 0 1 0 0 0 1 forward_v I I I I #
coedge $-1 $351 $245 $270 $333 forward $171 $-1 #
coedge $-1 $245 $351 $340 $352 forward $171 $-1 #
coedge $-1 $247 $246 $254 $324 reversed $98 $-1 #
coedge $-1 $261 $260 $246 $313 forward $243 $-1 #
edge $-1 $330 -60.557267983031707 $317 60.557267983031707 $246 $353 forward 7 unknown #
coedge $-1 $354 $248 $250 $319 reversed $267 $-1 #
coedge $-1 $248 $258 $261 $328 reversed $267 $-1 #
vertex $-1 $319 $355 #
vertex $-1 $328 $356 #
straight-curve $-1 -60.557267983031707 -37.917962192590331 -6.0066965388127809 0 0 -1 I I #
edge $-1 $321 -2.9420854786999442 $316 2.9420854786999442 $314 $357 forward 7 unknown #
coedge $-1 $251 $340 $354 $358 forward $307 $-1 #
vertex $-1 $358 $359 #
straight-curve $-1 0 -32.033791235190442 -4.0959131412128036 1 0 0 I I #
straight-curve $-1 0 -37.917962192590331 -4.0959131412128036 1 0 0 I I #
edge $-1 $255 -1.9107833975999773 $330 1.9107833975999773 $254 $360 forward 7 unknown #
point $-1 60.557267983031707 -37.917962192590331 -4.0959131412128036 #
point $-1 60.557267983031707 -32.033791235190442 -4.0959131412128036 #
straight-curve $-1 -60.557267983031707 37.917962192590338 -6.0066965388127809 0 0 -1 I I #
edge $-1 $317 -72.893838906480724 $262 2.9420854786999442 $315 $361 forward 7 unknown #
point $-1 -60.557267983031707 37.917962192590338 -7.9174799364127582 #
vertex $-1 $324 $362 #
straight-curve $-1 60.557267983031707 0 -7.9174799364127582 0 -1 0 I I #
coedge $-1 $266 $354 $351 $363 reversed $267 $-1 #
edge $-1 $275 -60.557267983031707 $334 60.557267983031707 $270 $364 forward 7 unknown #
vertex $-1 $333 $365 #
straight-curve $-1 -60.557267983031707 32.033791235190442 0 0 0 -1 I I #
plane-surface $-1 0 32.033791235190442 0 0 -1 0 0 0 -1 forward_v I I I I #
vertex $-1 $274 $366 #
straight-curve $-1 60.557267983031707 0 7.9174799364127582 0 1 0 I I #
point $-1 60.557267983031707 32.033791235190442 7.9174799364127582 #
coedge $-1 $320 $277 $310 $352 reversed $307 $-1 #
straight-curve $-1 60.557267983031707 -32.033791235190442 0 0 0 -1 I I #
straight-curve $-1 0 32.033791235190442 -7.9174799364127582 1 0 0 I I #
point $-1 60.557267983031707 32.033791235190442 -7.9174799364127582 #
straight-curve $-1 -60.557267983031707 0 7.9174799364127582 0 -1 0 I I #
point $-1 -60.557267983031707 32.033791235190442 7.9174799364127582 #
point $-1 -60.557267983031707 -32.033791235190442 7.9174799364127582 #
straight-curve $-1 60.557267983031707 32.033791235190442 0 0 0 -1 I I #
straight-curve $-1 -60.557267983031707 32.033791235190442 0 0 0 -1 I I #
point $-1 -60.557267983031707 32.033791235190442 -7.9174799364127582 #
plane-surface $-1 -60.557267983031707 0 0 1 0 0 0 0 -1 forward_v I I I I #
coedge $-1 $310 $309 $332 $363 forward $171 $-1 #
edge $-1 $367 -60.557267983031707 $337 60.557267983031707 $340 $368 forward 7 unknown #
straight-curve $-1 0 -37.917962192590331 -7.9174799364127582 -1 0 0 I I #
coedge $-1 $332 $314 $320 $358 reversed $267 $-1 #
point $-1 -60.557267983031707 -37.917962192590331 -4.0959131412128036 #
point $-1 -60.557267983031707 -37.917962192590331 -7.9174799364127582 #
straight-curve $-1 -60.557267983031707 -34.975876713890386 -4.0959131412128036 0 -1 0 I I #
edge $-1 $367 -7.9174799364127582 $321 4.0959131412128036 $354 $369 forward 7 unknown #
point $-1 -60.557267983031707 -32.033791235190442 -4.0959131412128036 #
straight-curve $-1 60.557267983031707 -37.917962192590331 -6.0066965388127809 0 0 -1 I I #
straight-curve $-1 -60.557267983031707 34.975876713890393 -7.9174799364127582 0 1 0 I I #
point $-1 60.557267983031707 -37.917962192590331 -7.9174799364127582 #
edge $-1 $334 -32.033791235190442 $367 32.033791235190442 $332 $370 forward 7 unknown #
straight-curve $-1 0 32.033791235190442 7.9174799364127582 -1 0 0 I I #
point $-1 -60.557267983031707 32.033791235190442 7.9174799364127582 #
point $-1 60.557267983031707 -32.033791235190442 7.9174799364127582 #
vertex $-1 $363 $371 #
straight-curve $-1 0 -32.033791235190442 7.9174799364127582 1 0 0 I I #
straight-curve $-1 -60.557267983031707 -32.033791235190442 0 0 0 -1 I I #
straight-curve $-1 -60.557267983031707 0 7.9174799364127582 0 -1 0 I I #
point $-1 -60.557267983031707 -32.033791235190442 7.9174799364127582 #
End-of-ACIS-data 