500 0 11 0           
7 Unknown 11 ACIS 5.0 NT 24 Fri Mar 26 16:51:50 1999 
-1 9.9999999999999995e-007 1e-010 
body $-1 $11 $-1 $12 #
body $-1 $13 $-1 $14 #
body $-1 $15 $-1 $16 #
body $-1 $17 $-1 $18 #
body $-1 $19 $-1 $20 #
body $-1 $21 $-1 $22 #
body $-1 $23 $-1 $24 #
body $-1 $25 $-1 $26 #
body $-1 $27 $-1 $28 #
body $-1 $29 $-1 $30 #
body $-1 $31 $-1 $32 #
lump $-1 $-1 $33 $0 #
transform $-1 1 0 0 0 1 0 0 0 1 51.931516464735864 23.415698416340831 8.4569353242134557 1 rotate no_reflect no_shear #
lump $-1 $-1 $34 $1 #
transform $-1 1 0 0 0 1 0 0 0 1 51.931516464735864 23.415698416340831 8.4569353242134557 1 rotate no_reflect no_shear #
lump $-1 $-1 $35 $2 #
transform $-1 1 0 0 0 1 0 0 0 1 51.931516464735864 23.415698416340831 8.4569353242134557 1 rotate no_reflect no_shear #
lump $-1 $-1 $36 $3 #
transform $-1 1 0 0 0 1 0 0 0 1 51.931516464735864 23.415698416340831 8.4569353242134557 1 rotate no_reflect no_shear #
lump $-1 $-1 $37 $4 #
transform $-1 1 0 0 0 1 0 0 0 1 51.931516464735864 23.415698416340831 8.4569353242134557 1 rotate no_reflect no_shear #
lump $-1 $-1 $38 $5 #
transform $-1 1 0 0 0 1 0 0 0 1 51.931516464735864 23.415698416340831 8.4569353242134557 1 rotate no_reflect no_shear #
lump $-1 $-1 $39 $6 #
transform $-1 1 0 0 0 1 0 0 0 1 51.931516464735864 23.415698416340831 8.4569353242134557 1 rotate no_reflect no_shear #
lump $-1 $-1 $40 $7 #
transform $-1 1 0 0 0 1 0 0 0 1 51.931516464735864 23.415698416340831 8.4569353242134557 1 rotate no_reflect no_shear #
lump $-1 $-1 $41 $8 #
transform $-1 1 0 0 0 1 0 0 0 1 51.931516464735864 23.415698416340831 8.4569353242134557 1 rotate no_reflect no_shear #
lump $-1 $-1 $42 $9 #
transform $-1 1 0 0 0 1 0 0 0 1 51.931516464735864 23.415698416340831 8.4569353242134557 1 rotate no_reflect no_shear #
lump $-1 $-1 $43 $10 #
transform $-1 1 0 0 0 1 0 0 0 1 51.931516464735864 23.415698416340831 8.4569353242134557 1 rotate no_reflect no_shear #
shell $-1 $-1 $-1 $44 $-1 $11 #
shell $-1 $-1 $-1 $45 $-1 $13 #
shell $-1 $-1 $-1 $46 $-1 $15 #
shell $-1 $-1 $-1 $47 $-1 $17 #
shell $-1 $-1 $-1 $48 $-1 $19 #
shell $-1 $-1 $-1 $49 $-1 $21 #
shell $-1 $-1 $-1 $50 $-1 $23 #
shell $-1 $-1 $-1 $51 $-1 $25 #
shell $-1 $-1 $-1 $52 $-1 $27 #
shell $-1 $-1 $-1 $53 $-1 $29 #
shell $-1 $-1 $-1 $54 $-1 $31 #
face $-1 $55 $56 $33 $-1 $57 forward single #
face $-1 $58 $59 $34 $-1 $60 forward single #
face $-1 $61 $62 $35 $-1 $63 reversed single #
face $-1 $64 $65 $36 $-1 $66 forward single #
face $-1 $67 $68 $37 $-1 $69 forward single #
face $-1 $70 $71 $38 $-1 $72 reversed single #
face $-1 $73 $74 $39 $-1 $75 forward single #
face $-1 $76 $77 $40 $-1 $78 forward single #
face $-1 $79 $80 $41 $-1 $81 reversed single #
face $-1 $82 $83 $42 $-1 $84 forward single #
face $-1 $85 $86 $43 $-1 $87 forward single #
face $-1 $88 $89 $33 $-1 $90 reversed single #
loop $-1 $-1 $91 $44 #
plane-surface $-1 0 0 8.4569353242134557 0 0 1 1 0 0 forward_v I I I I #
face $-1 $92 $93 $34 $-1 $94 reversed single #
loop $-1 $-1 $95 $45 #
plane-surface $-1 0 -23.415698416340831 0 0 1 0 0 0 1 forward_v I I I I #
face $-1 $96 $97 $35 $-1 $98 reversed single #
loop $-1 $-1 $99 $46 #
plane-surface $-1 72.373891164007532 14.551141403635725 148.301832145308 0 1 0 0.79863551827123203 0 0.60181501223851219 forward_v I I I I #
face $-1 $100 $101 $36 $-1 $102 forward single #
loop $-1 $103 $104 $47 #
cone-surface $-1 49.139877148569752 17.083871978694326 5.1410549327044226 -0.79863551827123203 0 -0.60181501223851219 0.60181501223851219 0 -0.79863551827123203 1 I I 0 1 1 forward I I I I #
face $-1 $105 $106 $37 $-1 $107 forward single #
loop $-1 $108 $109 $48 #
cone-surface $-1 49.139877148569752 20.88296784128223 5.1410549327044226 -0.79863551827123203 0 -0.60181501223851219 0.60181501223851219 0 -0.79863551827123203 1 I I 0 1 1 forward I I I I #
face $-1 $110 $111 $38 $-1 $112 reversed single #
loop $-1 $-1 $113 $49 #
plane-surface $-1 -137.01113305977157 -17.506895234256149 62.142894677221626 0 1 0 -0.81915205242281985 0 0.57357642473473569 forward_v I I I I #
face $-1 $114 $115 $39 $-1 $116 forward single #
loop $-1 $117 $118 $50 #
cone-surface $-1 -48.303024791495247 -15.370188399651241 4.4157994521012327 0.81915205242281985 0 -0.57357642473473569 0.57357642473473569 0 0.81915205242281985 1 I I 0 1 1 forward I I I I #
face $-1 $119 $120 $40 $-1 $121 forward single #
loop $-1 $122 $123 $51 #
cone-surface $-1 -48.303024791495247 -12.16512814774388 4.4157994521012327 0.81915205242281985 0 -0.57357642473473569 0.57357642473473569 0 0.81915205242281985 1 I I 0 1 1 forward I I I I #
face $-1 $124 $125 $41 $-1 $126 reversed single #
loop $-1 $-1 $127 $52 #
plane-surface $-1 -137.01113305977157 2.9544015910423425 62.142894677221626 0 1 0 -0.81915205242281985 0 0.57357642473473569 forward_v I I I I #
face $-1 $128 $129 $42 $-1 $130 forward single #
loop $-1 $131 $132 $53 #
cone-surface $-1 -48.303024791495247 5.0911084256472492 4.4157994521012327 0.81915205242281985 0 -0.57357642473473569 0.57357642473473569 0 0.81915205242281985 1 I I 0 1 1 forward I I I I #
face $-1 $133 $134 $43 $-1 $135 forward single #
loop $-1 $136 $137 $54 #
cone-surface $-1 -48.303024791495247 8.2961686775546113 4.4157994521012327 0.81915205242281985 0 -0.57357642473473569 0.57357642473473569 0 0.81915205242281985 1 I I 0 1 1 forward I I I I #
face $-1 $138 $139 $33 $-1 $140 reversed single #
loop $-1 $-1 $141 $55 #
plane-surface $-1 0 0 -8.4569353242134557 0 0 1 1 0 0 forward_v I I I I #
coedge $-1 $142 $143 $144 $145 forward $56 $-1 #
face $-1 $146 $147 $34 $-1 $148 reversed single #
loop $-1 $-1 $149 $58 #
plane-surface $-1 0 0 -8.4569353242134557 0 0 1 1 0 0 forward_v I I I I #
coedge $-1 $150 $151 $152 $153 forward $59 $-1 #
face $-1 $154 $155 $35 $-1 $156 reversed single #
loop $-1 $-1 $157 $61 #
plane-surface $-1 -10.574815968843154 18.983419909988278 85.795499711728979 0.79863551827123203 0 0.60181501223851219 0.60181501223851219 0 -0.79863551827123203 forward_v I I I I #
coedge $-1 $158 $159 $160 $161 reversed $62 $-1 #
face $-1 $-1 $162 $36 $-1 $163 forward single #
loop $-1 $164 $165 $64 #
cone-surface $-1 48.062692906870595 17.083871978694326 4.3293384077437249 -0.79863551827123203 0 -0.60181501223851219 0.3009075061192561 0 -0.39931775913561601 1 I I -0.70710678118654746 0.70710678118654746 0.5 forward I I I I #
loop $-1 $-1 $166 $47 #
coedge $-1 $104 $104 $167 $168 reversed $65 $-1 #
face $-1 $-1 $169 $37 $-1 $170 forward single #
loop $-1 $171 $172 $67 #
cone-surface $-1 48.062692906870595 20.88296784128223 4.3293384077437249 -0.79863551827123203 0 -0.60181501223851219 0.3009075061192561 0 -0.39931775913561601 1 I I -0.70710678118654746 0.70710678118654746 0.5 forward I I I I #
loop $-1 $-1 $173 $48 #
coedge $-1 $109 $109 $174 $175 reversed $68 $-1 #
face $-1 $176 $177 $38 $-1 $178 reversed single #
loop $-1 $-1 $179 $70 #
plane-surface $-1 -51.931516464735878 -13.76765827369756 2.5695075874291078 -0.81915205242281985 0 0.57357642473473569 0.57357642473473569 0 0.81915205242281985 forward_v I I I I #
coedge $-1 $180 $181 $182 $183 reversed $71 $-1 #
face $-1 $-1 $184 $39 $-1 $185 forward single #
loop $-1 $186 $187 $73 #
cone-surface $-1 -46.326167670812453 -15.370188399651241 3.0315892360138168 0.81915205242281985 0 -0.57357642473473569 0.28678821236736785 0 0.40957602621140993 1 I I -0.70710678118654746 0.70710678118654746 0.5 forward I I I I #
loop $-1 $-1 $188 $50 #
coedge $-1 $118 $118 $189 $190 reversed $74 $-1 #
face $-1 $-1 $191 $40 $-1 $192 forward single #
loop $-1 $193 $194 $76 #
cone-surface $-1 -46.326167670812453 -12.16512814774388 3.0315892360138168 0.81915205242281985 0 -0.57357642473473569 0.28678821236736785 0 0.40957602621140993 1 I I -0.70710678118654746 0.70710678118654746 0.5 forward I I I I #
loop $-1 $-1 $195 $51 #
coedge $-1 $123 $123 $196 $197 reversed $77 $-1 #
face $-1 $198 $199 $41 $-1 $200 reversed single #
loop $-1 $-1 $201 $79 #
plane-surface $-1 -51.931516464735878 6.6936385516009302 2.5695075874291078 -0.81915205242281985 0 0.57357642473473569 0.57357642473473569 0 0.81915205242281985 forward_v I I I I #
coedge $-1 $202 $203 $204 $205 reversed $80 $-1 #
face $-1 $-1 $206 $42 $-1 $207 forward single #
loop $-1 $208 $209 $82 #
cone-surface $-1 -46.326167670812453 5.0911084256472492 3.0315892360138168 0.81915205242281985 0 -0.57357642473473569 0.28678821236736785 0 0.40957602621140993 1 I I -0.70710678118654746 0.70710678118654746 0.5 forward I I I I #
loop $-1 $-1 $210 $53 #
coedge $-1 $132 $132 $211 $212 reversed $83 $-1 #
face $-1 $-1 $213 $43 $-1 $214 forward single #
loop $-1 $215 $216 $85 #
cone-surface $-1 -46.326167670812453 8.2961686775546113 3.0315892360138168 0.81915205242281985 0 -0.57357642473473569 0.28678821236736785 0 0.40957602621140993 1 I I -0.70710678118654746 0.70710678118654746 0.5 forward I I I I #
loop $-1 $-1 $217 $54 #
coedge $-1 $137 $137 $218 $219 reversed $86 $-1 #
face $-1 $220 $221 $33 $-1 $222 reversed single #
loop $-1 $-1 $223 $88 #
plane-surface $-1 0 -23.415698416340831 0 0 1 0 0 0 1 forward_v I I I I #
coedge $-1 $224 $225 $226 $227 forward $89 $-1 #
coedge $-1 $228 $91 $229 $230 forward $56 $-1 #
coedge $-1 $91 $228 $231 $232 forward $56 $-1 #
coedge $-1 $233 $234 $91 $145 reversed $235 $-1 #
edge $-1 $236 -23.415698416340831 $237 23.415698416340831 $144 $238 forward 7 unknown #
face $-1 $239 $240 $34 $-1 $241 reversed single #
loop $-1 $-1 $242 $92 #
plane-surface $-1 -37.017645816308956 -29.324501598425513 0 0 1 0 0 0 1 forward_v I I I I #
coedge $-1 $243 $244 $151 $245 forward $93 $-1 #
coedge $-1 $246 $95 $247 $248 reversed $59 $-1 #
coedge $-1 $95 $246 $149 $245 reversed $59 $-1 #
coedge $-1 $249 $250 $95 $153 reversed $240 $-1 #
edge $-1 $251 -8.4569353242134557 $252 8.4569353242134557 $152 $253 forward 7 unknown #
face $-1 $254 $255 $35 $-1 $256 forward single #
loop $-1 $-1 $257 $96 #
plane-surface $-1 0 23.415698416340831 0 0 -1 0 0 0 -1 forward_v I I I I #
coedge $-1 $258 $259 $260 $261 reversed $97 $-1 #
coedge $-1 $159 $99 $262 $263 reversed $62 $-1 #
coedge $-1 $99 $158 $258 $264 reversed $62 $-1 #
coedge $-1 $260 $265 $99 $161 forward $266 $-1 #
edge $-1 $267 65.693980748440538 $268 71.304123493775705 $160 $269 forward 7 unknown #
loop $-1 $-1 $167 $100 #
plane-surface $-1 -10.574815968843154 18.983419909988278 85.795499711728979 0.79863551827123203 0 0.60181501223851219 0.60181501223851219 0 -0.79863551827123203 forward_v I I I I #
loop $-1 $-1 $270 $64 #
coedge $-1 $165 $165 $166 $271 reversed $101 $-1 #
coedge $-1 $166 $166 $165 $271 forward $103 $-1 #
coedge $-1 $167 $167 $104 $168 forward $162 $-1 #
edge $-1 $272 0 $272 6.2831853071796004 $167 $273 forward 7 unknown #
loop $-1 $-1 $174 $105 #
plane-surface $-1 -10.574815968843154 18.983419909988278 85.795499711728979 0.79863551827123203 0 0.60181501223851219 0.60181501223851219 0 -0.79863551827123203 forward_v I I I I #
loop $-1 $-1 $274 $67 #
coedge $-1 $172 $172 $173 $275 reversed $106 $-1 #
coedge $-1 $173 $173 $172 $275 forward $108 $-1 #
coedge $-1 $174 $174 $109 $175 forward $169 $-1 #
edge $-1 $276 0 $276 6.2831853071796004 $174 $277 forward 7 unknown #
face $-1 $278 $279 $38 $-1 $280 reversed single #
loop $-1 $-1 $281 $110 #
plane-surface $-1 -137.01113305977157 -10.028421313138972 62.142894677221626 0 -1 0 0.81915205242281985 0 -0.57357642473473569 forward_v I I I I #
coedge $-1 $282 $283 $284 $285 reversed $111 $-1 #
coedge $-1 $181 $113 $286 $287 reversed $71 $-1 #
coedge $-1 $113 $180 $282 $288 reversed $71 $-1 #
coedge $-1 $284 $289 $113 $183 forward $290 $-1 #
edge $-1 $291 16.574050065149919 $292 20.696471222688359 $182 $293 forward 7 unknown #
loop $-1 $-1 $189 $114 #
plane-surface $-1 -51.931516464735878 -13.76765827369756 2.5695075874291078 -0.81915205242281985 0 0.57357642473473569 0.57357642473473569 0 0.81915205242281985 forward_v I I I I #
loop $-1 $-1 $294 $73 #
coedge $-1 $187 $187 $188 $295 reversed $115 $-1 #
coedge $-1 $188 $188 $187 $295 forward $117 $-1 #
coedge $-1 $189 $189 $118 $190 forward $184 $-1 #
edge $-1 $296 0 $296 6.2831853071796004 $189 $297 forward 7 unknown #
loop $-1 $-1 $196 $119 #
plane-surface $-1 -51.931516464735878 -13.76765827369756 2.5695075874291078 -0.81915205242281985 0 0.57357642473473569 0.57357642473473569 0 0.81915205242281985 forward_v I I I I #
loop $-1 $-1 $298 $76 #
coedge $-1 $194 $194 $195 $299 reversed $120 $-1 #
coedge $-1 $195 $195 $194 $299 forward $122 $-1 #
coedge $-1 $196 $196 $123 $197 forward $191 $-1 #
edge $-1 $300 0 $300 6.2831853071796004 $196 $301 forward 7 unknown #
face $-1 $302 $303 $41 $-1 $304 forward single #
loop $-1 $-1 $305 $124 #
plane-surface $-1 -137.01113305977157 10.432875512159518 62.142894677221626 0 -1 0 0.81915205242281985 0 -0.57357642473473569 forward_v I I I I #
coedge $-1 $306 $307 $308 $309 reversed $125 $-1 #
coedge $-1 $203 $127 $310 $311 reversed $80 $-1 #
coedge $-1 $127 $202 $306 $312 reversed $80 $-1 #
coedge $-1 $308 $313 $127 $205 forward $303 $-1 #
edge $-1 $314 16.574050065149919 $315 20.696471222688359 $204 $316 forward 7 unknown #
loop $-1 $-1 $211 $128 #
plane-surface $-1 -51.931516464735878 6.6936385516009302 2.5695075874291078 -0.81915205242281985 0 0.57357642473473569 0.57357642473473569 0 0.81915205242281985 forward_v I I I I #
loop $-1 $-1 $317 $82 #
coedge $-1 $209 $209 $210 $318 reversed $129 $-1 #
coedge $-1 $210 $210 $209 $318 forward $131 $-1 #
coedge $-1 $211 $211 $132 $212 forward $206 $-1 #
edge $-1 $319 0 $319 6.2831853071796004 $211 $320 forward 7 unknown #
loop $-1 $-1 $218 $133 #
plane-surface $-1 -51.931516464735878 6.6936385516009302 2.5695075874291078 -0.81915205242281985 0 0.57357642473473569 0.57357642473473569 0 0.81915205242281985 forward_v I I I I #
loop $-1 $-1 $321 $85 #
coedge $-1 $216 $216 $217 $322 reversed $134 $-1 #
coedge $-1 $217 $217 $216 $322 forward $136 $-1 #
coedge $-1 $218 $218 $137 $219 forward $213 $-1 #
edge $-1 $323 0 $323 6.2831853071796004 $218 $324 forward 7 unknown #
face $-1 $325 $326 $33 $-1 $327 reversed single #
loop $-1 $-1 $328 $138 #
plane-surface $-1 -51.931516464735864 0 0 1 0 0 0 0 -1 forward_v I I I I #
coedge $-1 $329 $231 $330 $331 forward $139 $-1 #
coedge $-1 $332 $141 $329 $333 forward $89 $-1 #
coedge $-1 $141 $332 $334 $335 forward $89 $-1 #
coedge $-1 $234 $233 $141 $227 reversed $235 $-1 #
edge $-1 $336 -23.415698416340831 $337 23.415698416340831 $226 $338 forward 7 unknown #
coedge $-1 $143 $142 $339 $340 forward $56 $-1 #
coedge $-1 $341 $342 $142 $230 reversed $326 $-1 #
edge $-1 $237 -51.931516464735864 $343 51.931516464735864 $229 $344 forward 7 unknown #
coedge $-1 $223 $345 $143 $232 reversed $139 $-1 #
edge $-1 $346 -51.931516464735864 $236 51.931516464735864 $231 $347 forward 7 unknown #
coedge $-1 $226 $144 $345 $348 forward $235 $-1 #
coedge $-1 $144 $226 $341 $349 reversed $235 $-1 #
loop $-1 $-1 $233 $325 #
vertex $-1 $145 $350 #
vertex $-1 $145 $351 #
straight-curve $-1 51.931516464735864 0 8.4569353242134557 0 1 0 I I #
face $-1 $352 $353 $34 $-1 $354 reversed single #
loop $-1 $-1 $152 $146 #
plane-surface $-1 -38.517645816308956 -26.370100007383172 0 1 0 0 0 0 -1 forward_v I I I I #
coedge $-1 $355 $356 $357 $358 forward $147 $-1 #
coedge $-1 $359 $149 $360 $361 forward $93 $-1 #
coedge $-1 $149 $359 $249 $362 forward $93 $-1 #
edge $-1 $251 -38.517645816308956 $363 -35.517645816308956 $149 $364 forward 7 unknown #
coedge $-1 $151 $150 $365 $366 forward $59 $-1 #
coedge $-1 $367 $368 $150 $248 forward $369 $-1 #
edge $-1 $370 35.517645816308956 $252 38.517645816308956 $247 $371 forward 7 unknown #
coedge $-1 $357 $152 $244 $362 reversed $240 $-1 #
coedge $-1 $152 $357 $367 $372 reversed $240 $-1 #
vertex $-1 $245 $373 #
vertex $-1 $372 $374 #
straight-curve $-1 -38.517645816308956 -23.415698416340831 0 0 0 1 I I #
face $-1 $-1 $266 $35 $-1 $375 reversed single #
loop $-1 $-1 $376 $154 #
plane-surface $-1 0 0 8.4569353242134557 0 0 1 1 0 0 forward_v I I I I #
coedge $-1 $377 $378 $259 $379 forward $155 $-1 #
coedge $-1 $380 $157 $159 $264 forward $97 $-1 #
coedge $-1 $157 $380 $257 $379 reversed $97 $-1 #
coedge $-1 $381 $160 $157 $261 forward $266 $-1 #
edge $-1 $268 5.0594314486415861 $382 13.923988461346692 $260 $383 forward 7 unknown #
coedge $-1 $384 $376 $158 $263 forward $255 $-1 #
edge $-1 $385 11.517025215526957 $267 15.744570882732098 $262 $386 forward 7 unknown #
edge $-1 $268 -103.8630329294717 $385 -96.838373223027446 $159 $387 forward 7 unknown #
coedge $-1 $160 $381 $384 $388 reversed $266 $-1 #
loop $-1 $-1 $260 $254 #
vertex $-1 $388 $389 #
vertex $-1 $161 $390 #
straight-curve $-1 51.931516464735864 14.551141403635725 74.150916072653999 0 0 -1 I I #
coedge $-1 $270 $270 $-1 $391 reversed $164 $-1 #
edge $-1 $392 0 $392 6.2831853071796004 $165 $393 forward 7 unknown #
vertex $-1 $168 $394 #
ellipse-curve $-1 49.817743631133297 17.083871978694326 5.6518639515458666 0.79863551827123203 0 0.60181501223851219 0.60181501223851219 0 -0.79863551827123203 1 I I #
coedge $-1 $274 $274 $-1 $395 reversed $171 $-1 #
edge $-1 $396 0 $396 6.2831853071796004 $172 $397 forward 7 unknown #
vertex $-1 $175 $398 #
ellipse-curve $-1 49.817743631133297 20.88296784128223 5.6518639515458666 0.79863551827123203 0 0.60181501223851219 0.60181501223851219 0 -0.79863551827123203 1 I I #
face $-1 $-1 $290 $38 $-1 $399 forward single #
loop $-1 $-1 $400 $176 #
plane-surface $-1 -51.931516464735864 0 0 1 0 0 0 0 -1 forward_v I I I I #
coedge $-1 $401 $402 $403 $404 reversed $177 $-1 #
coedge $-1 $405 $179 $181 $288 forward $111 $-1 #
coedge $-1 $179 $405 $401 $406 forward $111 $-1 #
coedge $-1 $403 $182 $179 $285 forward $290 $-1 #
edge $-1 $292 -10.623066097407369 $407 -3.1445921762901925 $284 $408 forward 7 unknown #
coedge $-1 $409 $410 $180 $287 forward $279 $-1 #
edge $-1 $411 -28.501939751181684 $291 -22.614512014397356 $286 $412 forward 7 unknown #
edge $-1 $292 -7.187222102869673 $411 -2.4884734274515653e-014 $181 $413 forward 7 unknown #
coedge $-1 $182 $403 $409 $414 forward $290 $-1 #
loop $-1 $-1 $403 $278 #
vertex $-1 $287 $415 #
vertex $-1 $183 $416 #
straight-curve $-1 -68.505566529885783 -17.506895234256149 8.456935324213454 1 0 0 I I #
coedge $-1 $294 $294 $-1 $417 reversed $186 $-1 #
edge $-1 $418 0 $418 6.2831853071796004 $187 $419 forward 7 unknown #
vertex $-1 $190 $420 #
ellipse-curve $-1 -49.870305885966644 -15.370188399651241 5.5132214558212898 -0.81915205242281985 0 0.57357642473473569 0.57357642473473569 0 0.81915205242281985 1 I I #
coedge $-1 $298 $298 $-1 $421 reversed $193 $-1 #
edge $-1 $422 0 $422 6.2831853071796004 $194 $423 forward 7 unknown #
vertex $-1 $197 $424 #
ellipse-curve $-1 -49.870305885966644 -12.16512814774388 5.5132214558212898 -0.81915205242281985 0 0.57357642473473569 0.57357642473473569 0 0.81915205242281985 1 I I #
face $-1 $-1 $425 $41 $-1 $426 reversed single #
loop $-1 $-1 $204 $198 #
plane-surface $-1 0 0 8.4569353242134557 0 0 1 1 0 0 forward_v I I I I #
coedge $-1 $427 $428 $429 $430 reversed $199 $-1 #
coedge $-1 $431 $201 $203 $312 forward $125 $-1 #
coedge $-1 $201 $431 $427 $432 forward $125 $-1 #
coedge $-1 $429 $204 $201 $309 forward $303 $-1 #
edge $-1 $315 -0.39241768475812266 $433 7.0860562363590525 $308 $434 forward 7 unknown #
coedge $-1 $435 $436 $202 $311 forward $425 $-1 #
edge $-1 $437 -28.501939751181684 $314 -22.614512014397356 $310 $438 forward 7 unknown #
edge $-1 $315 -7.187222102869673 $437 -2.4884734274515653e-014 $203 $439 forward 7 unknown #
coedge $-1 $204 $429 $435 $440 forward $303 $-1 #
vertex $-1 $311 $441 #
vertex $-1 $205 $442 #
straight-curve $-1 -68.505566529885783 2.9544015910423425 8.456935324213454 1 0 0 I I #
coedge $-1 $317 $317 $-1 $443 reversed $208 $-1 #
edge $-1 $444 0 $444 6.2831853071796004 $209 $445 forward 7 unknown #
vertex $-1 $212 $446 #
ellipse-curve $-1 -49.870305885966644 5.0911084256472492 5.5132214558212898 -0.81915205242281985 0 0.57357642473473569 0.57357642473473569 0 0.81915205242281985 1 I I #
coedge $-1 $321 $321 $-1 $447 reversed $215 $-1 #
edge $-1 $448 0 $448 6.2831853071796004 $216 $449 forward 7 unknown #
vertex $-1 $219 $450 #
ellipse-curve $-1 -49.870305885966644 8.2961686775546113 5.5132214558212898 -0.81915205242281985 0 0.57357642473473569 0.57357642473473569 0 0.81915205242281985 1 I I #
face $-1 $-1 $235 $33 $-1 $451 reversed single #
loop $-1 $-1 $341 $220 #
plane-surface $-1 0 23.415698416340831 0 0 -1 0 0 0 -1 forward_v I I I I #
coedge $-1 $452 $339 $342 $453 forward $221 $-1 #
coedge $-1 $345 $223 $224 $333 reversed $139 $-1 #
coedge $-1 $339 $452 $223 $331 reversed $221 $-1 #
edge $-1 $346 -8.4569353242134557 $454 8.4569353242134557 $330 $455 forward 7 unknown #
coedge $-1 $225 $224 $452 $456 forward $89 $-1 #
edge $-1 $337 -51.931516464735864 $454 51.931516464735864 $329 $457 forward 7 unknown #
coedge $-1 $342 $341 $225 $335 reversed $326 $-1 #
edge $-1 $458 -51.931516464735864 $336 51.931516464735864 $334 $459 forward 7 unknown #
vertex $-1 $227 $460 #
vertex $-1 $348 $461 #
straight-curve $-1 51.931516464735864 0 -8.4569353242134557 0 -1 0 I I #
coedge $-1 $328 $330 $228 $340 reversed $221 $-1 #
edge $-1 $343 -23.415698416340831 $346 23.415698416340831 $339 $462 forward 7 unknown #
coedge $-1 $334 $229 $234 $349 forward $326 $-1 #
coedge $-1 $229 $334 $328 $453 reversed $326 $-1 #
vertex $-1 $230 $463 #
straight-curve $-1 0 23.415698416340831 8.4569353242134557 -1 0 0 I I #
coedge $-1 $231 $329 $233 $348 reversed $139 $-1 #
vertex $-1 $340 $464 #
straight-curve $-1 0 -23.415698416340831 8.4569353242134557 1 0 0 I I #
edge $-1 $236 -8.4569353242134557 $337 8.4569353242134557 $233 $465 forward 7 unknown #
edge $-1 $237 -8.4569353242134557 $336 8.4569353242134557 $234 $466 forward 7 unknown #
point $-1 51.931516464735864 -23.415698416340831 8.4569353242134557 #
point $-1 51.931516464735864 23.415698416340831 8.4569353242134557 #
face $-1 $-1 $369 $34 $-1 $467 forward single #
loop $-1 $-1 $468 $239 #
plane-surface $-1 -35.517645816308956 -26.370100007383172 0 -1 0 0 0 0 1 forward_v I I I I #
coedge $-1 $469 $242 $359 $470 reversed $147 $-1 #
coedge $-1 $242 $469 $471 $472 reversed $147 $-1 #
coedge $-1 $250 $249 $242 $358 reversed $240 $-1 #
edge $-1 $473 -8.4569353242134557 $474 8.4569353242134557 $357 $475 forward 7 unknown #
coedge $-1 $244 $243 $355 $470 forward $93 $-1 #
coedge $-1 $365 $468 $243 $361 reversed $353 $-1 #
edge $-1 $363 -2.9544015910423411 $476 2.9544015910423411 $360 $477 forward 7 unknown #
edge $-1 $474 -2.9544015910423411 $251 2.9544015910423411 $249 $478 forward 7 unknown #
vertex $-1 $361 $479 #
straight-curve $-1 0 -23.415698416340831 -8.4569353242134557 1 0 0 I I #
coedge $-1 $480 $360 $246 $366 reversed $353 $-1 #
edge $-1 $370 -8.4569353242134557 $363 8.4569353242134557 $365 $481 forward 7 unknown #
coedge $-1 $471 $247 $250 $372 forward $369 $-1 #
coedge $-1 $247 $471 $480 $482 forward $369 $-1 #
loop $-1 $-1 $247 $352 #
vertex $-1 $248 $483 #
straight-curve $-1 0 -23.415698416340831 8.4569353242134557 -1 0 0 I I #
edge $-1 $252 -2.9544015910423411 $473 2.9544015910423411 $250 $484 forward 7 unknown #
point $-1 -38.517645816308956 -23.415698416340831 -8.4569353242134557 #
point $-1 -38.517645816308956 -23.415698416340831 8.4569353242134557 #
plane-surface $-1 51.931516464735864 0 0 -1 0 0 0 0 1 forward_v I I I I #
coedge $-1 $262 $485 $380 $486 forward $255 $-1 #
coedge $-1 $378 $257 $485 $487 reversed $155 $-1 #
coedge $-1 $257 $377 $381 $488 forward $155 $-1 #
edge $-1 $382 -66.421324739809023 $489 -59.396665033364755 $257 $490 forward 7 unknown #
coedge $-1 $259 $258 $376 $486 reversed $97 $-1 #
coedge $-1 $265 $260 $378 $488 reversed $266 $-1 #
vertex $-1 $261 $491 #
straight-curve $-1 51.931516464735864 9.4917099549941391 2.8467925788782935 0 1 0 I I #
coedge $-1 $485 $262 $265 $388 forward $255 $-1 #
vertex $-1 $263 $492 #
straight-curve $-1 36.186945582003766 14.551141403635725 8.4569353242134611 1 0 0 I I #
straight-curve $-1 -10.574815968843154 14.551141403635725 85.795499711728979 -0.60181501223851219 0 0.79863551827123203 I I #
edge $-1 $267 14.551141403635725 $493 23.415698416340831 $265 $494 forward 7 unknown #
point $-1 51.931516464735864 14.551141403635725 8.4569353242134557 #
point $-1 51.931516464735857 14.551141403635725 2.8467925788782935 #
edge $-1 $495 1 $495 0 $270 $-1 forward 7 unknown #
vertex $-1 $271 $496 #
ellipse-curve $-1 48.462010666006208 17.083871978694326 4.6302459138629812 0.79863551827123203 0 0.60181501223851219 0.60181501223851219 0 -0.79863551827123203 1 I I #
point $-1 50.419558643371801 17.083871978694326 4.8532284332746318 #
edge $-1 $497 1 $497 0 $274 $-1 forward 7 unknown #
vertex $-1 $275 $498 #
ellipse-curve $-1 48.462010666006208 20.88296784128223 4.6302459138629812 0.79863551827123203 0 0.60181501223851219 0.60181501223851219 0 -0.79863551827123203 1 I I #
point $-1 50.419558643371801 20.88296784128223 4.8532284332746318 #
plane-surface $-1 0 0 8.4569353242134557 0 0 1 1 0 0 forward_v I I I I #
coedge $-1 $410 $409 $402 $499 forward $279 $-1 #
coedge $-1 $402 $281 $283 $406 reversed $177 $-1 #
coedge $-1 $281 $401 $400 $499 reversed $177 $-1 #
coedge $-1 $289 $284 $281 $404 forward $290 $-1 #
edge $-1 $407 -20.696471222688359 $500 -16.574050065149919 $403 $501 forward 7 unknown #
coedge $-1 $283 $282 $410 $502 reversed $111 $-1 #
edge $-1 $503 2.4884734274515653e-014 $407 7.187222102869673 $401 $504 forward 7 unknown #
vertex $-1 $285 $505 #
straight-curve $-1 -47.809095307197431 -6.8838291368487798 8.4569353242134557 0 1 0 I I #
coedge $-1 $400 $286 $289 $414 reversed $279 $-1 #
coedge $-1 $286 $400 $405 $502 forward $279 $-1 #
vertex $-1 $287 $506 #
straight-curve $-1 -51.931516464735864 -17.506895234256149 31.071447338610813 0 0 1 I I #
straight-curve $-1 -51.931516464735878 -17.506895234256149 2.5695075874291078 -0.57357642473473569 0 -0.81915205242281985 I I #
edge $-1 $500 10.028421313138972 $291 17.506895234256149 $409 $507 forward 7 unknown #
point $-1 -51.931516464735864 -17.506895234256149 8.4569353242134557 #
point $-1 -47.809095307197424 -17.506895234256149 8.4569353242134557 #
edge $-1 $508 1 $508 0 $294 $-1 forward 7 unknown #
vertex $-1 $295 $509 #
ellipse-curve $-1 -46.735743697023864 -15.370188399651241 3.3183774483811845 -0.81915205242281985 0 0.57357642473473569 0.57357642473473569 0 0.81915205242281985 1 I I #
point $-1 -49.296729461231898 -15.370188399651241 6.3323735082440988 #
edge $-1 $510 1 $510 0 $298 $-1 forward 7 unknown #
vertex $-1 $299 $511 #
ellipse-curve $-1 -46.735743697023864 -12.16512814774388 3.3183774483811845 -0.81915205242281985 0 0.57357642473473569 0.57357642473473569 0 0.81915205242281985 1 I I #
point $-1 -49.296729461231898 -12.16512814774388 6.3323735082440988 #
loop $-1 $-1 $310 $302 #
plane-surface $-1 -51.931516464735864 0 0 1 0 0 0 0 -1 forward_v I I I I #
coedge $-1 $428 $305 $307 $432 reversed $199 $-1 #
coedge $-1 $305 $427 $512 $513 reversed $199 $-1 #
coedge $-1 $313 $308 $305 $430 forward $303 $-1 #
edge $-1 $433 -20.696471222688359 $514 -16.574050065149919 $429 $515 forward 7 unknown #
coedge $-1 $307 $306 $436 $516 reversed $125 $-1 #
edge $-1 $517 2.4884734274515653e-014 $433 7.187222102869673 $427 $518 forward 7 unknown #
vertex $-1 $309 $519 #
straight-curve $-1 -47.809095307197431 3.3468192758004651 8.4569353242134557 0 1 0 I I #
coedge $-1 $512 $310 $313 $440 reversed $425 $-1 #
coedge $-1 $310 $512 $431 $516 forward $425 $-1 #
vertex $-1 $311 $520 #
straight-curve $-1 -51.931516464735864 2.9544015910423425 31.071447338610813 0 0 1 I I #
straight-curve $-1 -51.931516464735878 2.9544015910423425 2.5695075874291078 -0.57357642473473569 0 -0.81915205242281985 I I #
edge $-1 $514 -10.432875512159518 $314 -2.9544015910423425 $435 $521 forward 7 unknown #
point $-1 -51.931516464735864 2.9544015910423425 8.4569353242134557 #
point $-1 -47.809095307197424 2.9544015910423425 8.4569353242134557 #
edge $-1 $522 1 $522 0 $317 $-1 forward 7 unknown #
vertex $-1 $318 $523 #
ellipse-curve $-1 -46.735743697023864 5.0911084256472492 3.3183774483811845 -0.81915205242281985 0 0.57357642473473569 0.57357642473473569 0 0.81915205242281985 1 I I #
point $-1 -49.296729461231898 5.0911084256472492 6.3323735082440988 #
edge $-1 $524 1 $524 0 $321 $-1 forward 7 unknown #
vertex $-1 $322 $525 #
ellipse-curve $-1 -46.735743697023864 8.2961686775546113 3.3183774483811845 -0.81915205242281985 0 0.57357642473473569 0.57357642473473569 0 0.81915205242281985 1 I I #
point $-1 -49.296729461231898 8.2961686775546113 6.3323735082440988 #
plane-surface $-1 51.931516464735864 0 0 -1 0 0 0 0 1 forward_v I I I I #
coedge $-1 $330 $328 $332 $456 reversed $221 $-1 #
edge $-1 $343 -8.4569353242134557 $458 8.4569353242134557 $342 $526 forward 7 unknown #
vertex $-1 $456 $527 #
straight-curve $-1 -51.931516464735864 -23.415698416340831 0 0 0 -1 I I #
edge $-1 $454 -23.415698416340831 $458 23.415698416340831 $452 $528 forward 7 unknown #
straight-curve $-1 0 -23.415698416340831 -8.4569353242134557 -1 0 0 I I #
vertex $-1 $335 $529 #
straight-curve $-1 0 23.415698416340831 -8.4569353242134557 1 0 0 I I #
point $-1 51.931516464735864 23.415698416340831 -8.4569353242134557 #
point $-1 51.931516464735864 -23.415698416340831 -8.4569353242134557 #
straight-curve $-1 -51.931516464735864 0 8.4569353242134557 0 -1 0 I I #
point $-1 -51.931516464735864 23.415698416340831 8.4569353242134557 #
point $-1 -51.931516464735864 -23.415698416340831 8.4569353242134557 #
straight-curve $-1 51.931516464735864 -23.415698416340831 0 0 0 -1 I I #
straight-curve $-1 51.931516464735864 23.415698416340831 0 0 0 -1 I I #
plane-surface $-1 0 0 8.4569353242134557 0 0 1 1 0 0 forward_v I I I I #
coedge $-1 $360 $480 $469 $530 forward $353 $-1 #
coedge $-1 $356 $355 $468 $530 reversed $147 $-1 #
edge $-1 $476 -1.5 $474 1.5 $355 $531 forward 7 unknown #
coedge $-1 $368 $367 $356 $472 forward $369 $-1 #
edge $-1 $473 -1.5 $532 1.5 $356 $533 forward 7 unknown #
vertex $-1 $372 $534 #
vertex $-1 $362 $535 #
straight-curve $-1 -38.517645816308956 -29.324501598425513 0 0 0 -1 I I #
vertex $-1 $530 $536 #
straight-curve $-1 -35.517645816308956 -26.370100007383172 -8.4569353242134557 0 -1 0 I I #
straight-curve $-1 -38.517645816308956 -26.370100007383172 -8.4569353242134557 0 1 0 I I #
point $-1 -35.517645816308956 -23.415698416340831 -8.4569353242134557 #
coedge $-1 $468 $365 $368 $482 reversed $353 $-1 #
straight-curve $-1 -35.517645816308956 -23.415698416340831 0 0 0 -1 I I #
edge $-1 $532 -2.9544015910423411 $370 2.9544015910423411 $480 $537 forward 7 unknown #
point $-1 -35.517645816308956 -23.415698416340831 8.4569353242134557 #
straight-curve $-1 -38.517645816308956 -26.370100007383172 8.4569353242134557 0 -1 0 I I #
coedge $-1 $376 $384 $377 $487 forward $255 $-1 #
edge $-1 $489 -13.923988461346692 $385 -5.0594314486415861 $376 $538 forward 7 unknown #
edge $-1 $493 -51.931516464735864 $489 -47.703970797530722 $377 $539 forward 7 unknown #
edge $-1 $493 -8.4569353242134557 $382 -2.8467925788782908 $381 $540 forward 7 unknown #
vertex $-1 $486 $541 #
straight-curve $-1 11.958166103549495 23.415698416340831 55.893221686717482 -0.60181501223851219 0 0.79863551827123203 I I #
point $-1 51.931516464735864 23.415698416340831 2.8467925788782908 #
point $-1 47.703970797530722 14.551141403635725 8.4569353242134611 #
vertex $-1 $388 $542 #
straight-curve $-1 51.931516464735864 0 8.4569353242134557 0 1 0 I I #
vertex $-1 $391 $543 #
point $-1 49.063825678244726 17.083871978694326 3.8316103955917491 #
vertex $-1 $395 $544 #
point $-1 49.063825678244726 20.88296784128223 3.8316103955917491 #
edge $-1 $500 22.614512014397356 $503 28.501939751181684 $400 $545 forward 7 unknown #
vertex $-1 $414 $546 #
straight-curve $-1 -68.505566529885783 -10.028421313138972 8.456935324213454 -1 0 0 I I #
edge $-1 $503 3.1445921762901925 $411 10.623066097407369 $410 $547 forward 7 unknown #
vertex $-1 $502 $548 #
straight-curve $-1 -51.931516464735878 -10.028421313138972 2.5695075874291078 0.57357642473473569 0 0.81915205242281985 I I #
point $-1 -47.809095307197424 -10.028421313138972 8.4569353242134557 #
point $-1 -51.931516464735864 -17.506895234256149 2.5695075874291282 #
straight-curve $-1 -51.931516464735864 0 8.4569353242134557 0 -1 0 I I #
vertex $-1 $417 $549 #
point $-1 -46.162167272289125 -15.370188399651241 4.1375295008040043 #
vertex $-1 $421 $550 #
point $-1 -46.162167272289125 -12.16512814774388 4.1375295008040043 #
coedge $-1 $436 $435 $428 $513 forward $425 $-1 #
edge $-1 $514 22.614512014397356 $517 28.501939751181684 $512 $551 forward 7 unknown #
vertex $-1 $440 $552 #
straight-curve $-1 -68.505566529885783 10.432875512159518 8.456935324213454 -1 0 0 I I #
edge $-1 $517 -7.0860562363590525 $437 0.39241768475812266 $436 $553 forward 7 unknown #
vertex $-1 $516 $554 #
straight-curve $-1 -51.931516464735878 10.432875512159518 2.5695075874291078 0.57357642473473569 0 0.81915205242281985 I I #
point $-1 -47.809095307197424 10.432875512159518 8.4569353242134557 #
point $-1 -51.931516464735864 2.9544015910423425 2.5695075874291282 #
straight-curve $-1 -51.931516464735864 0 8.4569353242134557 0 -1 0 I I #
vertex $-1 $443 $555 #
point $-1 -46.162167272289125 5.0911084256472492 4.1375295008040043 #
vertex $-1 $447 $556 #
point $-1 -46.162167272289125 8.2961686775546113 4.1375295008040043 #
straight-curve $-1 -51.931516464735864 23.415698416340831 0 0 0 -1 I I #
point $-1 -51.931516464735864 -23.415698416340831 -8.4569353242134557 #
straight-curve $-1 -51.931516464735864 0 -8.4569353242134557 0 1 0 I I #
point $-1 -51.931516464735864 23.415698416340831 -8.4569353242134557 #
edge $-1 $532 -8.4569353242134557 $476 8.4569353242134557 $468 $557 forward 7 unknown #
straight-curve $-1 -37.017645816308956 -29.324501598425513 -8.4569353242134557 -1 0 0 I I #
vertex $-1 $482 $558 #
straight-curve $-1 -37.017645816308956 -29.324501598425513 8.4569353242134557 1 0 0 I I #
point $-1 -38.517645816308956 -29.324501598425513 8.4569353242134557 #
point $-1 -38.517645816308956 -29.324501598425513 -8.4569353242134557 #
point $-1 -35.517645816308956 -29.324501598425513 -8.4569353242134557 #
straight-curve $-1 -35.517645816308956 -26.370100007383172 8.4569353242134557 0 1 0 I I #
straight-curve $-1 47.703970797530715 9.4917099549941391 8.456935324213454 0 -1 0 I I #
straight-curve $-1 0 23.415698416340831 8.4569353242134557 -1 0 0 I I #
straight-curve $-1 51.931516464735864 23.415698416340831 0 0 0 -1 I I #
point $-1 47.703970797530722 23.415698416340831 8.4569353242134611 #
point $-1 51.931516464735864 23.415698416340831 8.4569353242134557 #
point $-1 47.663375147734982 17.083871978694326 4.0284309016244686 #
point $-1 47.663375147734982 20.88296784128223 4.0284309016244686 #
straight-curve $-1 -51.931516464735864 -10.028421313138972 31.071447338610813 0 0 -1 I I #
point $-1 -51.931516464735864 -10.028421313138972 8.4569353242134557 #
straight-curve $-1 -51.931516464735864 -6.8838291368487798 2.5695075874291269 0 -1 0 I I #
point $-1 -51.931516464735864 -10.028421313138972 2.5695075874291282 #
point $-1 -45.916591644601041 -15.370188399651241 2.7448010236464491 #
point $-1 -45.916591644601041 -12.16512814774388 2.7448010236464491 #
straight-curve $-1 -51.931516464735864 10.432875512159518 31.071447338610813 0 0 -1 I I #
point $-1 -51.931516464735864 10.432875512159518 8.4569353242134557 #
straight-curve $-1 -51.931516464735864 3.3468192758004651 2.5695075874291269 0 -1 0 I I #
point $-1 -51.931516464735864 10.432875512159518 2.5695075874291282 #
point $-1 -45.916591644601041 5.0911084256472492 2.7448010236464491 #
point $-1 -45.916591644601041 8.2961686775546113 2.7448010236464491 #
straight-curve $-1 -35.517645816308956 -29.324501598425513 0 0 0 -1 I I #
point $-1 -35.517645816308956 -29.324501598425513 8.4569353242134557 #
End-of-ACIS-data 