500 0 6 0           
7 Unknown 11 ACIS 5.0 NT 24 Thu Mar 25 20:34:32 1999 
-1 9.9999999999999995e-007 1e-010 
body $-1 $6 $-1 $7 #
body $-1 $8 $-1 $9 #
body $-1 $10 $-1 $11 #
body $-1 $12 $-1 $13 #
body $-1 $14 $-1 $15 #
body $-1 $16 $-1 $17 #
lump $-1 $-1 $18 $0 #
transform $-1 1 0 0 0 1 0 0 0 1 55.273903622547074 25.54826052231093 8.3548979294068726 1 rotate no_reflect no_shear #
lump $-1 $-1 $19 $1 #
transform $-1 1 0 0 0 1 0 0 0 1 55.273903622547074 25.54826052231093 8.3548979294068726 1 rotate no_reflect no_shear #
lump $-1 $-1 $20 $2 #
transform $-1 1 0 0 0 1 0 0 0 1 55.273903622547074 25.54826052231093 8.3548979294068726 1 rotate no_reflect no_shear #
lump $-1 $-1 $21 $3 #
transform $-1 1 0 0 0 1 0 0 0 1 55.273903622547074 25.54826052231093 8.3548979294068726 1 rotate no_reflect no_shear #
lump $-1 $-1 $22 $4 #
transform $-1 1 0 0 0 1 0 0 0 1 55.273903622547074 25.54826052231093 8.3548979294068726 1 rotate no_reflect no_shear #
lump $-1 $-1 $23 $5 #
transform $-1 1 0 0 0 1 0 0 0 1 55.273903622547074 25.54826052231093 8.3548979294068726 1 rotate no_reflect no_shear #
shell $-1 $-1 $-1 $24 $-1 $6 #
shell $-1 $-1 $-1 $25 $-1 $8 #
shell $-1 $-1 $-1 $26 $-1 $10 #
shell $-1 $-1 $-1 $27 $-1 $12 #
shell $-1 $-1 $-1 $28 $-1 $14 #
shell $-1 $-1 $-1 $29 $-1 $16 #
face $-1 $30 $31 $18 $-1 $32 forward single #
face $-1 $33 $34 $19 $-1 $35 forward single #
face $-1 $36 $37 $20 $-1 $38 reversed single #
face $-1 $39 $40 $21 $-1 $41 forward single #
face $-1 $42 $43 $22 $-1 $44 reversed single #
face $-1 $45 $46 $23 $-1 $47 forward single #
face $-1 $48 $49 $18 $-1 $50 reversed single #
loop $-1 $-1 $51 $24 #
plane-surface $-1 0 0 8.3548979294068726 0 0 1 1 0 0 forward_v I I I I #
face $-1 $52 $53 $19 $-1 $54 forward single #
loop $-1 $-1 $55 $25 #
plane-surface $-1 0 -25.54826052231093 0 0 1 0 0 0 1 forward_v I I I I #
face $-1 $56 $57 $20 $-1 $58 reversed single #
loop $-1 $-1 $59 $26 #
plane-surface $-1 -150.03187002349063 -14.845428976788011 57.018366986167848 0 1 0 -0.85716730853699208 0 0.51503806187062418 forward_v I I I I #
face $-1 $60 $61 $21 $-1 $62 forward single #
loop $-1 $63 $64 $27 #
cone-surface $-1 -51.785204998313844 -9.8795948153640474 3.6156362297074951 0.85716730853699208 0 -0.51503806187062418 0.51503806187062418 0 0.85716730853699208 1 I I 0 1 1 forward I I I I #
face $-1 $65 $66 $22 $-1 $67 reversed single #
loop $-1 $-1 $68 $28 #
plane-surface $-1 93.095541635930005 -4.9137606539400842 151.77633338711141 0 -1 0 -0.85716730853699208 0 -0.51503806187062418 forward_v I I I I #
face $-1 $69 $70 $23 $-1 $71 forward single #
loop $-1 $72 $73 $29 #
cone-surface $-1 51.785204998313837 -9.8795948153640474 3.6156362297074809 -0.85716730853699208 0 -0.51503806187062418 0.51503806187062418 0 -0.85716730853699208 1 I I 0 1 1 forward I I I I #
face $-1 $74 $75 $18 $-1 $76 reversed single #
loop $-1 $-1 $77 $30 #
plane-surface $-1 0 0 -8.3548979294068726 0 0 1 1 0 0 forward_v I I I I #
coedge $-1 $78 $79 $80 $81 forward $31 $-1 #
face $-1 $82 $83 $19 $-1 $84 reversed single #
loop $-1 $-1 $85 $33 #
plane-surface $-1 0 0 8.3548979294068726 0 0 1 1 0 0 forward_v I I I I #
coedge $-1 $86 $87 $88 $89 forward $34 $-1 #
face $-1 $90 $91 $20 $-1 $92 reversed single #
loop $-1 $-1 $93 $36 #
plane-surface $-1 -55.273903622547081 -9.8795948153640474 0.082038598607212521 -0.85716730853699208 0 0.51503806187062418 0.51503806187062418 0 0.85716730853699208 forward_v I I I I #
coedge $-1 $94 $95 $96 $97 reversed $37 $-1 #
face $-1 $-1 $98 $21 $-1 $99 forward single #
loop $-1 $100 $101 $39 #
cone-surface $-1 -50.353340323486094 -9.8795948153640474 2.7552851644726406 0.85716730853699208 0 -0.51503806187062418 0.25751903093531209 0 0.42858365426849604 1 I I -0.70710678118654746 0.70710678118654746 0.5 forward I I I I #
loop $-1 $-1 $102 $27 #
coedge $-1 $64 $64 $103 $104 reversed $40 $-1 #
face $-1 $105 $106 $22 $-1 $107 reversed single #
loop $-1 $-1 $108 $42 #
plane-surface $-1 -1.6624247650135402 -9.8795948153640474 94.840004999550771 0.85716730853699208 0 0.51503806187062418 0.51503806187062418 0 -0.85716730853699208 forward_v I I I I #
coedge $-1 $109 $110 $111 $112 reversed $43 $-1 #
face $-1 $-1 $113 $23 $-1 $114 forward single #
loop $-1 $115 $116 $45 #
cone-surface $-1 50.353340323486087 -9.8795948153640474 2.7552851644726264 -0.85716730853699208 0 -0.51503806187062418 0.25751903093531209 0 -0.42858365426849604 1 I I -0.70710678118654746 0.70710678118654746 0.5 forward I I I I #
loop $-1 $-1 $117 $29 #
coedge $-1 $73 $73 $118 $119 reversed $46 $-1 #
face $-1 $120 $121 $18 $-1 $122 reversed single #
loop $-1 $-1 $123 $48 #
plane-surface $-1 0 -25.54826052231093 0 0 1 0 0 0 1 forward_v I I I I #
coedge $-1 $124 $125 $126 $127 forward $49 $-1 #
coedge $-1 $128 $51 $129 $130 forward $31 $-1 #
coedge $-1 $51 $128 $131 $132 forward $31 $-1 #
coedge $-1 $133 $134 $51 $81 reversed $135 $-1 #
edge $-1 $136 -25.54826052231093 $137 25.54826052231093 $80 $138 forward 7 unknown #
face $-1 $139 $140 $19 $-1 $141 reversed single #
loop $-1 $-1 $142 $52 #
plane-surface $-1 -55.273903622547074 0 0 1 0 0 0 0 -1 forward_v I I I I #
coedge $-1 $143 $144 $87 $145 forward $53 $-1 #
coedge $-1 $146 $55 $147 $148 reversed $34 $-1 #
coedge $-1 $55 $146 $85 $145 reversed $34 $-1 #
coedge $-1 $149 $150 $55 $89 reversed $151 $-1 #
edge $-1 $152 -8.3548979294068726 $153 8.3548979294068726 $88 $154 forward 7 unknown #
face $-1 $155 $156 $20 $-1 $157 reversed single #
loop $-1 $-1 $158 $56 #
plane-surface $-1 -150.03187002349063 -4.9137606539400842 57.018366986167848 0 -1 0 0.85716730853699208 0 -0.51503806187062418 forward_v I I I I #
coedge $-1 $159 $160 $161 $162 reversed $57 $-1 #
coedge $-1 $95 $59 $163 $164 reversed $37 $-1 #
coedge $-1 $59 $94 $159 $165 reversed $37 $-1 #
coedge $-1 $161 $166 $59 $97 forward $167 $-1 #
edge $-1 $168 19.742031389198239 $169 24.712866596546185 $96 $170 forward 7 unknown #
loop $-1 $-1 $103 $60 #
plane-surface $-1 -55.273903622547081 -9.8795948153640474 0.082038598607212521 -0.85716730853699208 0 0.51503806187062418 0.51503806187062418 0 0.85716730853699208 forward_v I I I I #
loop $-1 $-1 $171 $39 #
coedge $-1 $101 $101 $102 $172 reversed $61 $-1 #
coedge $-1 $102 $102 $101 $172 forward $63 $-1 #
coedge $-1 $103 $103 $64 $104 forward $98 $-1 #
edge $-1 $173 0 $173 6.2831853071796004 $103 $174 forward 7 unknown #
face $-1 $175 $176 $22 $-1 $177 forward single #
loop $-1 $-1 $178 $65 #
plane-surface $-1 93.095541635930005 -14.845428976788011 151.77633338711141 0 1 0 0.85716730853699208 0 0.51503806187062418 forward_v I I I I #
coedge $-1 $179 $180 $181 $182 reversed $66 $-1 #
coedge $-1 $110 $68 $183 $184 reversed $43 $-1 #
coedge $-1 $68 $109 $179 $185 reversed $43 $-1 #
coedge $-1 $181 $186 $68 $112 forward $176 $-1 #
edge $-1 $187 -8.7261328045820719 $188 -3.7552975972341471 $111 $189 forward 7 unknown #
loop $-1 $-1 $118 $69 #
plane-surface $-1 -1.6624247650135402 -9.8795948153640474 94.840004999550771 0.85716730853699208 0 0.51503806187062418 0.51503806187062418 0 -0.85716730853699208 forward_v I I I I #
loop $-1 $-1 $190 $45 #
coedge $-1 $116 $116 $117 $191 reversed $70 $-1 #
coedge $-1 $117 $117 $116 $191 forward $72 $-1 #
coedge $-1 $118 $118 $73 $119 forward $113 $-1 #
edge $-1 $192 0 $192 6.2831853071796004 $118 $193 forward 7 unknown #
face $-1 $194 $195 $18 $-1 $196 reversed single #
loop $-1 $-1 $197 $74 #
plane-surface $-1 -55.273903622547074 0 0 1 0 0 0 0 -1 forward_v I I I I #
coedge $-1 $198 $131 $199 $200 forward $75 $-1 #
coedge $-1 $201 $77 $198 $202 forward $49 $-1 #
coedge $-1 $77 $201 $203 $204 forward $49 $-1 #
coedge $-1 $134 $133 $77 $127 reversed $135 $-1 #
edge $-1 $205 -25.54826052231093 $206 25.54826052231093 $126 $207 forward 7 unknown #
coedge $-1 $79 $78 $208 $209 forward $31 $-1 #
coedge $-1 $210 $211 $78 $130 reversed $195 $-1 #
edge $-1 $137 -55.273903622547074 $212 55.273903622547074 $129 $213 forward 7 unknown #
coedge $-1 $123 $214 $79 $132 reversed $75 $-1 #
edge $-1 $215 -55.273903622547074 $136 55.273903622547074 $131 $216 forward 7 unknown #
coedge $-1 $126 $80 $214 $217 forward $135 $-1 #
coedge $-1 $80 $126 $210 $218 reversed $135 $-1 #
loop $-1 $-1 $133 $194 #
vertex $-1 $81 $219 #
vertex $-1 $81 $220 #
straight-curve $-1 55.273903622547074 0 8.3548979294068726 0 1 0 I I #
face $-1 $221 $151 $19 $-1 $222 reversed single #
loop $-1 $-1 $223 $82 #
plane-surface $-1 -52.899105415658532 -36.251092067833852 0 0 1 0 0 0 1 forward_v I I I I #
coedge $-1 $224 $225 $146 $226 forward $83 $-1 #
coedge $-1 $227 $85 $225 $228 forward $53 $-1 #
coedge $-1 $85 $227 $149 $229 forward $53 $-1 #
edge $-1 $152 50.52430720876999 $230 55.273903622547074 $85 $231 forward 7 unknown #
coedge $-1 $87 $86 $142 $226 reversed $34 $-1 #
coedge $-1 $232 $233 $86 $148 forward $234 $-1 #
edge $-1 $235 -55.273903622547074 $153 -50.52430720876999 $147 $236 forward 7 unknown #
coedge $-1 $237 $88 $144 $229 reversed $151 $-1 #
coedge $-1 $88 $237 $232 $238 reversed $151 $-1 #
loop $-1 $-1 $237 $139 #
vertex $-1 $145 $239 #
vertex $-1 $238 $240 #
straight-curve $-1 -50.52430720876999 -25.54826052231093 0 0 0 -1 I I #
face $-1 $-1 $167 $20 $-1 $241 forward single #
loop $-1 $-1 $242 $90 #
plane-surface $-1 -55.273903622547074 0 0 1 0 0 0 0 -1 forward_v I I I I #
coedge $-1 $243 $244 $245 $246 reversed $91 $-1 #
coedge $-1 $247 $93 $95 $165 forward $57 $-1 #
coedge $-1 $93 $247 $243 $248 forward $57 $-1 #
coedge $-1 $245 $96 $93 $162 forward $167 $-1 #
edge $-1 $169 -9.9056315691059869 $249 0.026036753741939478 $161 $250 forward 7 unknown #
coedge $-1 $251 $252 $94 $164 forward $156 $-1 #
edge $-1 $253 -28.427144894476701 $168 -20.15428556367705 $163 $254 forward 7 unknown #
edge $-1 $169 -9.6513938975574423 $253 -1.379460482718971e-014 $95 $255 forward 7 unknown #
coedge $-1 $96 $245 $251 $256 forward $167 $-1 #
loop $-1 $-1 $245 $155 #
vertex $-1 $164 $257 #
vertex $-1 $97 $258 #
straight-curve $-1 -75.015935011745313 -14.845428976788011 8.3548979294068744 1 0 0 I I #
coedge $-1 $171 $171 $-1 $259 reversed $100 $-1 #
edge $-1 $260 0 $260 6.2831853071796004 $101 $261 forward 7 unknown #
vertex $-1 $104 $262 #
ellipse-curve $-1 -52.788486018873101 -9.8795948153640474 4.2184682640070426 -0.85716730853699208 0 0.51503806187062418 0.51503806187062418 0 0.85716730853699208 1 I I #
face $-1 $-1 $263 $22 $-1 $264 reversed single #
loop $-1 $-1 $111 $105 #
plane-surface $-1 0 0 8.3548979294068726 0 0 1 1 0 0 forward_v I I I I #
coedge $-1 $265 $266 $267 $268 reversed $106 $-1 #
coedge $-1 $269 $108 $110 $185 forward $66 $-1 #
coedge $-1 $108 $269 $265 $270 forward $66 $-1 #
coedge $-1 $267 $111 $108 $182 forward $176 $-1 #
edge $-1 $188 -0.026036753741939478 $271 9.9056315691059869 $181 $272 forward 7 unknown #
coedge $-1 $273 $274 $109 $184 forward $263 $-1 #
edge $-1 $275 -75.806128094948434 $187 -67.533268764148829 $183 $276 forward 7 unknown #
edge $-1 $188 100.89641334753675 $275 110.54780724509412 $110 $277 forward 7 unknown #
coedge $-1 $111 $267 $273 $278 forward $176 $-1 #
vertex $-1 $112 $279 #
vertex $-1 $112 $280 #
straight-curve $-1 46.547770817965002 -4.9137606539400842 8.3548979294068744 -1 0 0 I I #
coedge $-1 $190 $190 $-1 $281 reversed $115 $-1 #
edge $-1 $282 0 $282 6.2831853071796004 $116 $283 forward 7 unknown #
vertex $-1 $119 $284 #
ellipse-curve $-1 52.78848601887313 -9.8795948153640474 4.218468264007047 0.85716730853699208 0 0.51503806187062418 0.51503806187062418 0 -0.85716730853699208 1 I I #
face $-1 $-1 $135 $18 $-1 $285 reversed single #
loop $-1 $-1 $210 $120 #
plane-surface $-1 0 25.54826052231093 0 0 -1 0 0 0 -1 forward_v I I I I #
coedge $-1 $286 $208 $211 $287 forward $121 $-1 #
coedge $-1 $214 $123 $124 $202 reversed $75 $-1 #
coedge $-1 $208 $286 $123 $200 reversed $121 $-1 #
edge $-1 $215 -8.3548979294068726 $288 8.3548979294068726 $199 $289 forward 7 unknown #
coedge $-1 $125 $124 $286 $290 forward $49 $-1 #
edge $-1 $206 -55.273903622547074 $288 55.273903622547074 $198 $291 forward 7 unknown #
coedge $-1 $211 $210 $125 $204 reversed $195 $-1 #
edge $-1 $292 -55.273903622547074 $205 55.273903622547074 $203 $293 forward 7 unknown #
vertex $-1 $127 $294 #
vertex $-1 $217 $295 #
straight-curve $-1 55.273903622547074 0 -8.3548979294068726 0 -1 0 I I #
coedge $-1 $197 $199 $128 $209 reversed $121 $-1 #
edge $-1 $212 -25.54826052231093 $215 25.54826052231093 $208 $296 forward 7 unknown #
coedge $-1 $203 $129 $134 $218 forward $195 $-1 #
coedge $-1 $129 $203 $197 $287 reversed $195 $-1 #
vertex $-1 $130 $297 #
straight-curve $-1 0 25.54826052231093 8.3548979294068726 -1 0 0 I I #
coedge $-1 $131 $198 $133 $217 reversed $75 $-1 #
vertex $-1 $209 $298 #
straight-curve $-1 0 -25.54826052231093 8.3548979294068726 1 0 0 I I #
edge $-1 $136 -8.3548979294068726 $206 8.3548979294068726 $133 $299 forward 7 unknown #
edge $-1 $137 -8.3548979294068726 $205 8.3548979294068726 $134 $300 forward 7 unknown #
point $-1 55.273903622547074 -25.54826052231093 8.3548979294068726 #
point $-1 55.273903622547074 25.54826052231093 8.3548979294068726 #
face $-1 $-1 $234 $19 $-1 $301 reversed single #
plane-surface $-1 -50.52430720876999 -30.899676295072389 0 -1 0 0 0 0 1 forward_v I I I I #
coedge $-1 $302 $303 $304 $305 forward $140 $-1 #
coedge $-1 $304 $142 $233 $306 reversed $83 $-1 #
coedge $-1 $142 $304 $143 $228 reversed $83 $-1 #
edge $-1 $230 -8.3548979294068726 $235 8.3548979294068726 $142 $307 forward 7 unknown #
coedge $-1 $144 $143 $303 $308 forward $53 $-1 #
edge $-1 $230 25.54826052231093 $309 36.251092067833852 $225 $310 forward 7 unknown #
edge $-1 $311 -5.3514157727614631 $152 5.3514157727614595 $149 $312 forward 7 unknown #
vertex $-1 $228 $313 #
straight-curve $-1 0 -25.54826052231093 8.3548979294068726 -1 0 0 I I #
coedge $-1 $314 $147 $150 $238 forward $234 $-1 #
coedge $-1 $147 $314 $224 $306 forward $234 $-1 #
loop $-1 $-1 $147 $221 #
vertex $-1 $226 $315 #
straight-curve $-1 0 -25.54826052231093 -8.3548979294068726 1 0 0 I I #
coedge $-1 $150 $149 $316 $317 forward $151 $-1 #
edge $-1 $153 -5.3514157727614595 $318 5.3514157727614631 $150 $319 forward 7 unknown #
point $-1 -50.52430720876999 -25.54826052231093 8.3548979294068726 #
point $-1 -50.52430720876999 -25.54826052231093 -8.3548979294068726 #
plane-surface $-1 0 0 8.3548979294068726 0 0 1 1 0 0 forward_v I I I I #
coedge $-1 $252 $251 $244 $320 forward $156 $-1 #
coedge $-1 $244 $158 $160 $248 reversed $91 $-1 #
coedge $-1 $158 $243 $242 $320 reversed $91 $-1 #
coedge $-1 $166 $161 $158 $246 forward $167 $-1 #
edge $-1 $249 -24.712866596546185 $321 -19.742031389198239 $245 $322 forward 7 unknown #
coedge $-1 $160 $159 $252 $323 reversed $57 $-1 #
edge $-1 $324 1.379460482718971e-014 $249 9.6513938975574423 $243 $325 forward 7 unknown #
vertex $-1 $162 $326 #
straight-curve $-1 -50.303068415199128 -4.9397974076820237 8.3548979294068726 0 1 0 I I #
coedge $-1 $242 $163 $166 $256 reversed $156 $-1 #
coedge $-1 $163 $242 $247 $323 forward $156 $-1 #
vertex $-1 $164 $327 #
straight-curve $-1 -55.273903622547074 -14.845428976788011 28.509183493083924 0 0 1 I I #
straight-curve $-1 -55.273903622547081 -14.845428976788011 0.082038598607212521 -0.51503806187062418 0 -0.85716730853699208 I I #
edge $-1 $321 4.9137606539400842 $168 14.845428976788011 $251 $328 forward 7 unknown #
point $-1 -55.273903622547074 -14.845428976788011 8.3548979294068726 #
point $-1 -50.303068415199128 -14.845428976788011 8.3548979294068726 #
edge $-1 $329 1 $329 0 $171 $-1 forward 7 unknown #
vertex $-1 $172 $330 #
ellipse-curve $-1 -50.781923977754587 -9.8795948153640474 3.0128041954079525 -0.85716730853699208 0 0.51503806187062418 0.51503806187062418 0 0.85716730853699208 1 I I #
point $-1 -52.273447957002467 -9.8795948153640474 5.0756355725440301 #
loop $-1 $-1 $183 $175 #
plane-surface $-1 55.273903622547074 0 0 -1 0 0 0 0 1 forward_v I I I I #
coedge $-1 $266 $178 $180 $270 reversed $106 $-1 #
coedge $-1 $178 $265 $331 $332 reversed $106 $-1 #
coedge $-1 $186 $181 $178 $268 forward $176 $-1 #
edge $-1 $271 3.7552975972341471 $333 8.7261328045820719 $267 $334 forward 7 unknown #
coedge $-1 $180 $179 $274 $335 reversed $66 $-1 #
edge $-1 $336 -110.54780724509412 $271 -100.89641334753675 $265 $337 forward 7 unknown #
vertex $-1 $182 $338 #
straight-curve $-1 50.303068415199149 -4.9397974076820237 8.3548979294068744 0 -1 0 I I #
coedge $-1 $331 $183 $186 $278 reversed $263 $-1 #
coedge $-1 $183 $331 $269 $335 forward $263 $-1 #
vertex $-1 $184 $339 #
straight-curve $-1 55.273903622547074 -4.9137606539400842 75.888166693555704 0 0 1 I I #
straight-curve $-1 -1.6624247650135402 -4.9137606539400842 94.840004999550771 0.51503806187062418 0 -0.85716730853699208 I I #
edge $-1 $333 -14.845428976788011 $187 -4.9137606539400842 $273 $340 forward 7 unknown #
point $-1 55.273903622547074 -4.9137606539400842 8.3548979294068726 #
point $-1 50.303068415199149 -4.9137606539400842 8.3548979294068744 #
edge $-1 $341 1 $341 0 $190 $-1 forward 7 unknown #
vertex $-1 $191 $342 #
ellipse-curve $-1 50.78192397775458 -9.8795948153640474 3.0128041954079383 0.85716730853699208 0 0.51503806187062418 0.51503806187062418 0 -0.85716730853699208 1 I I #
point $-1 53.303524080743713 -9.8795948153640474 3.3613009554700315 #
plane-surface $-1 55.273903622547074 0 0 -1 0 0 0 0 1 forward_v I I I I #
coedge $-1 $199 $197 $201 $290 reversed $121 $-1 #
edge $-1 $212 -8.3548979294068726 $292 8.3548979294068726 $211 $343 forward 7 unknown #
vertex $-1 $290 $344 #
straight-curve $-1 -55.273903622547074 -25.54826052231093 0 0 0 -1 I I #
edge $-1 $288 -25.54826052231093 $292 25.54826052231093 $286 $345 forward 7 unknown #
straight-curve $-1 0 -25.54826052231093 -8.3548979294068726 -1 0 0 I I #
vertex $-1 $204 $346 #
straight-curve $-1 0 25.54826052231093 -8.3548979294068726 1 0 0 I I #
point $-1 55.273903622547074 25.54826052231093 -8.3548979294068726 #
point $-1 55.273903622547074 -25.54826052231093 -8.3548979294068726 #
straight-curve $-1 -55.273903622547074 0 8.3548979294068726 0 -1 0 I I #
point $-1 -55.273903622547074 25.54826052231093 8.3548979294068726 #
point $-1 -55.273903622547074 -25.54826052231093 8.3548979294068726 #
straight-curve $-1 55.273903622547074 -25.54826052231093 0 0 0 -1 I I #
straight-curve $-1 55.273903622547074 25.54826052231093 0 0 0 -1 I I #
plane-surface $-1 0 0 -8.3548979294068726 0 0 1 1 0 0 forward_v I I I I #
coedge $-1 $316 $223 $314 $347 reversed $140 $-1 #
coedge $-1 $223 $316 $227 $308 reversed $140 $-1 #
coedge $-1 $225 $224 $223 $305 reversed $83 $-1 #
edge $-1 $309 -8.3548979294068726 $348 8.3548979294068726 $304 $349 forward 7 unknown #
edge $-1 $348 -36.251092067833852 $235 -25.54826052231093 $224 $350 forward 7 unknown #
straight-curve $-1 -55.273903622547074 -25.54826052231093 0 0 0 -1 I I #
edge $-1 $309 -2.374798206888542 $311 2.374798206888542 $303 $351 forward 7 unknown #
vertex $-1 $228 $352 #
straight-curve $-1 -55.273903622547074 0 8.3548979294068726 0 -1 0 I I #
vertex $-1 $229 $353 #
straight-curve $-1 -50.52430720876999 -30.899676295072389 8.3548979294068726 0 1 0 I I #
point $-1 -55.273903622547074 -25.54826052231093 8.3548979294068726 #
coedge $-1 $233 $232 $302 $347 forward $234 $-1 #
point $-1 -55.273903622547074 -25.54826052231093 -8.3548979294068726 #
coedge $-1 $303 $302 $237 $317 reversed $140 $-1 #
edge $-1 $311 -8.3548979294068726 $318 8.3548979294068726 $237 $354 forward 7 unknown #
vertex $-1 $317 $355 #
straight-curve $-1 -50.52430720876999 -30.899676295072389 -8.3548979294068726 0 -1 0 I I #
edge $-1 $321 20.15428556367705 $324 28.427144894476701 $242 $356 forward 7 unknown #
vertex $-1 $256 $357 #
straight-curve $-1 -75.015935011745313 -4.9137606539400842 8.3548979294068744 -1 0 0 I I #
edge $-1 $324 -0.026036753741939478 $253 9.9056315691059869 $252 $358 forward 7 unknown #
vertex $-1 $323 $359 #
straight-curve $-1 -55.273903622547081 -4.9137606539400842 0.082038598607212521 0.51503806187062418 0 0.85716730853699208 I I #
point $-1 -50.303068415199128 -4.9137606539400842 8.3548979294068726 #
point $-1 -55.273903622547074 -14.845428976788011 0.082038598607224344 #
straight-curve $-1 -55.273903622547074 0 8.3548979294068726 0 -1 0 I I #
vertex $-1 $259 $360 #
point $-1 -50.266885915883968 -9.8795948153640474 3.8699715039449449 #
coedge $-1 $274 $273 $266 $332 forward $263 $-1 #
edge $-1 $333 67.533268764148829 $336 75.806128094948434 $331 $361 forward 7 unknown #
vertex $-1 $278 $362 #
straight-curve $-1 46.547770817965002 -14.845428976788011 8.3548979294068744 1 0 0 I I #
edge $-1 $336 -9.9056315691059869 $275 0.026036753741939478 $274 $363 forward 7 unknown #
vertex $-1 $335 $364 #
straight-curve $-1 -1.6624247650135402 -14.845428976788011 94.840004999550771 -0.51503806187062418 0 0.85716730853699208 I I #
point $-1 50.303068415199149 -14.845428976788011 8.3548979294068744 #
point $-1 55.273903622547074 -4.9137606539400842 0.082038598607269364 #
straight-curve $-1 55.273903622547074 0 8.3548979294068726 0 1 0 I I #
vertex $-1 $281 $365 #
point $-1 51.296962039625207 -9.8795948153640474 2.1556368868709463 #
straight-curve $-1 -55.273903622547074 25.54826052231093 0 0 0 -1 I I #
point $-1 -55.273903622547074 -25.54826052231093 -8.3548979294068726 #
straight-curve $-1 -55.273903622547074 0 -8.3548979294068726 0 1 0 I I #
point $-1 -55.273903622547074 25.54826052231093 -8.3548979294068726 #
edge $-1 $318 -2.374798206888542 $348 2.374798206888542 $302 $366 forward 7 unknown #
vertex $-1 $306 $367 #
straight-curve $-1 -55.273903622547074 -36.251092067833852 0 0 0 -1 I I #
straight-curve $-1 -55.273903622547074 0 -8.3548979294068726 0 1 0 I I #
straight-curve $-1 -52.899105415658532 -36.251092067833852 8.3548979294068726 1 0 0 I I #
point $-1 -55.273903622547074 -36.251092067833852 8.3548979294068726 #
point $-1 -50.52430720876999 -36.251092067833852 8.3548979294068726 #
straight-curve $-1 -50.52430720876999 -36.251092067833852 0 0 0 -1 I I #
point $-1 -50.52430720876999 -36.251092067833852 -8.3548979294068726 #
straight-curve $-1 -55.273903622547074 -4.9137606539400842 28.509183493083924 0 0 -1 I I #
point $-1 -55.273903622547074 -4.9137606539400842 8.3548979294068726 #
straight-curve $-1 -55.273903622547074 -4.9397974076820237 0.082038598607232088 0 -1 0 I I #
point $-1 -55.273903622547074 -4.9137606539400842 0.082038598607224344 #
point $-1 -49.924756669217601 -9.8795948153640474 2.4977661335373287 #
straight-curve $-1 55.273903622547074 -14.845428976788011 75.888166693555704 0 0 -1 I I #
point $-1 55.273903622547074 -14.845428976788011 8.3548979294068726 #
straight-curve $-1 55.273903622547074 -4.9397974076820237 0.082038598607269364 0 1 0 I I #
point $-1 55.273903622547074 -14.845428976788011 0.082038598607269364 #
point $-1 49.924756669217594 -9.8795948153640474 2.4977661335373145 #
straight-curve $-1 -52.899105415658532 -36.251092067833852 -8.3548979294068726 -1 0 0 I I #
point $-1 -55.273903622547074 -36.251092067833852 -8.3548979294068726 #
End-of-ACIS-data 