500 0 7 0           
7 Unknown 11 ACIS 5.0 NT 24 Thu Mar 25 20:11:03 1999 
-1 9.9999999999999995e-007 1e-010 
body $-1 $7 $-1 $8 #
body $-1 $9 $-1 $10 #
body $-1 $11 $-1 $12 #
body $-1 $13 $-1 $14 #
body $-1 $15 $-1 $16 #
body $-1 $17 $-1 $18 #
body $-1 $19 $-1 $20 #
lump $-1 $-1 $21 $0 #
transform $-1 1 0 0 0 1 0 0 0 1 49.846491897335738 22.288457168303921 8.4261074609321831 1 rotate no_reflect no_shear #
lump $-1 $-1 $22 $1 #
transform $-1 1 0 0 0 1 0 0 0 1 49.846491897335738 22.288457168303921 8.4261074609321831 1 rotate no_reflect no_shear #
lump $-1 $-1 $23 $2 #
transform $-1 1 0 0 0 1 0 0 0 1 49.846491897335738 22.288457168303921 8.4261074609321831 1 rotate no_reflect no_shear #
lump $-1 $-1 $24 $3 #
transform $-1 1 0 0 0 1 0 0 0 1 49.846491897335738 22.288457168303921 8.4261074609321831 1 rotate no_reflect no_shear #
lump $-1 $-1 $25 $4 #
transform $-1 1 0 0 0 1 0 0 0 1 49.846491897335738 22.288457168303921 8.4261074609321831 1 rotate no_reflect no_shear #
lump $-1 $-1 $26 $5 #
transform $-1 1 0 0 0 1 0 0 0 1 49.846491897335738 22.288457168303921 8.4261074609321831 1 rotate no_reflect no_shear #
lump $-1 $-1 $27 $6 #
transform $-1 1 0 0 0 1 0 0 0 1 49.846491897335738 22.288457168303921 8.4261074609321831 1 rotate no_reflect no_shear #
shell $-1 $-1 $-1 $28 $-1 $7 #
shell $-1 $-1 $-1 $29 $-1 $9 #
shell $-1 $-1 $-1 $30 $-1 $11 #
shell $-1 $-1 $-1 $31 $-1 $13 #
shell $-1 $-1 $-1 $32 $-1 $15 #
shell $-1 $-1 $-1 $33 $-1 $17 #
shell $-1 $-1 $-1 $34 $-1 $19 #
face $-1 $35 $36 $21 $-1 $37 forward single #
face $-1 $38 $39 $22 $-1 $40 forward single #
face $-1 $41 $42 $23 $-1 $43 reversed single #
face $-1 $44 $45 $24 $-1 $46 forward single #
face $-1 $47 $48 $25 $-1 $49 forward single #
face $-1 $50 $51 $26 $-1 $52 reversed single #
face $-1 $53 $54 $27 $-1 $55 forward single #
face $-1 $56 $57 $21 $-1 $58 reversed single #
loop $-1 $-1 $59 $28 #
plane-surface $-1 0 0 8.4261074609321831 0 0 1 1 0 0 forward_v I I I I #
face $-1 $60 $61 $22 $-1 $62 reversed single #
loop $-1 $-1 $63 $29 #
plane-surface $-1 -49.846491897335738 0 0 1 0 0 0 0 -1 forward_v I I I I #
face $-1 $64 $65 $23 $-1 $66 reversed single #
loop $-1 $-1 $67 $30 #
plane-surface $-1 5.598627693840827 -75.117690487540202 89.597959530358892 -1 0 0 0 -0.52991927123019833 0.84804809178421925 forward_v I I I I #
face $-1 $68 $69 $24 $-1 $70 forward single #
loop $-1 $71 $72 $31 #
cone-surface $-1 -13.189392245807689 -19.007776277872566 5.808348077501817 0 0.52991927123019833 -0.84804809178421925 1 0 0 1 I I 0 1 1 forward I I I I #
face $-1 $73 $74 $25 $-1 $75 forward single #
loop $-1 $76 $77 $32 #
cone-surface $-1 -1.9165802820185789 -19.007776277872566 5.808348077501817 0 0.52991927123019833 -0.84804809178421925 1 0 0 1 I I 0 1 1 forward I I I I #
face $-1 $78 $79 $26 $-1 $80 reversed single #
loop $-1 $-1 $81 $33 #
plane-surface $-1 22.716228011540522 84.783216203505106 93.763367291512637 1 0 0 0 -0.85716730853699208 -0.51503806187062418 forward_v I I I I #
face $-1 $82 $83 $27 $-1 $84 forward single #
loop $-1 $85 $86 $34 #
cone-surface $-1 36.28135995443813 20.373602050101486 5.9278717823963261 0 -0.85716730853699208 -0.51503806187062418 0.5 0 0 1 I I 0 1 0.5 forward I I I I #
face $-1 $87 $88 $21 $-1 $89 reversed single #
loop $-1 $-1 $90 $35 #
plane-surface $-1 0 0 -8.4261074609321831 0 0 1 1 0 0 forward_v I I I I #
coedge $-1 $91 $92 $93 $94 forward $36 $-1 #
face $-1 $95 $96 $22 $-1 $97 forward single #
loop $-1 $-1 $98 $38 #
plane-surface $-1 0 22.288457168303921 0 0 -1 0 0 0 -1 forward_v I I I I #
coedge $-1 $99 $100 $101 $102 forward $39 $-1 #
face $-1 $103 $104 $23 $-1 $105 reversed single #
loop $-1 $-1 $106 $41 #
plane-surface $-1 -7.5529862639131338 -22.288457168303921 5.0535148590126511 0 -0.52991927123019833 0.84804809178421925 1 0 0 forward_v I I I I #
coedge $-1 $107 $108 $109 $110 reversed $42 $-1 #
face $-1 $-1 $111 $24 $-1 $112 forward single #
loop $-1 $113 $114 $44 #
cone-surface $-1 -13.189392245807689 -18.16077389890059 4.4528609491391116 0 0.52991927123019833 -0.84804809178421925 0.5 0 0 1 I I -0.70710678118654746 0.70710678118654746 0.5 forward I I I I #
loop $-1 $-1 $115 $31 #
coedge $-1 $72 $72 $116 $117 reversed $45 $-1 #
face $-1 $-1 $118 $25 $-1 $119 forward single #
loop $-1 $120 $121 $47 #
cone-surface $-1 -1.9165802820185789 -18.16077389890059 4.4528609491391116 0 0.52991927123019833 -0.84804809178421925 0.5 0 0 1 I I -0.70710678118654746 0.70710678118654746 0.5 forward I I I I #
loop $-1 $-1 $122 $32 #
coedge $-1 $77 $77 $123 $124 reversed $48 $-1 #
face $-1 $125 $126 $26 $-1 $127 reversed single #
loop $-1 $-1 $128 $50 #
plane-surface $-1 36.28135995443813 -0.67035039579540978 42.417686135805496 0 0.85716730853699208 0.51503806187062418 1 0 0 forward_v I I I I #
coedge $-1 $129 $130 $131 $132 reversed $51 $-1 #
face $-1 $-1 $133 $27 $-1 $134 forward single #
loop $-1 $135 $136 $53 #
cone-surface $-1 36.28135995443813 19.511758736547222 5.4100240933532611 0 -0.85716730853699208 -0.51503806187062418 0.25 0 0 1 I I -0.70710678118654746 0.70710678118654746 0.25 forward I I I I #
loop $-1 $-1 $137 $34 #
coedge $-1 $86 $86 $138 $139 reversed $54 $-1 #
face $-1 $140 $141 $21 $-1 $142 reversed single #
loop $-1 $-1 $143 $56 #
plane-surface $-1 0 -22.288457168303921 0 0 1 0 0 0 1 forward_v I I I I #
coedge $-1 $144 $145 $146 $147 forward $57 $-1 #
coedge $-1 $148 $59 $149 $150 forward $36 $-1 #
coedge $-1 $59 $148 $151 $152 forward $36 $-1 #
coedge $-1 $153 $154 $59 $94 reversed $155 $-1 #
edge $-1 $156 -22.288457168303921 $157 22.288457168303921 $93 $158 forward 7 unknown #
face $-1 $159 $160 $22 $-1 $161 reversed single #
loop $-1 $-1 $101 $60 #
plane-surface $-1 -52.905194363725919 0 -4.8851725411792621 0 0 1 1 0 0 forward_v I I I I #
coedge $-1 $162 $163 $100 $164 forward $61 $-1 #
coedge $-1 $165 $63 $166 $167 reversed $39 $-1 #
coedge $-1 $63 $165 $98 $164 reversed $39 $-1 #
coedge $-1 $168 $169 $63 $102 reversed $96 $-1 #
edge $-1 $170 -22.288457168303921 $171 22.288457168303921 $101 $172 forward 7 unknown #
face $-1 $173 $174 $23 $-1 $175 reversed single #
loop $-1 $-1 $176 $64 #
plane-surface $-1 -20.704600221667093 -75.117690487540202 89.597959530358892 1 0 0 0 0.52991927123019833 -0.84804809178421925 forward_v I I I I #
coedge $-1 $177 $178 $179 $180 reversed $65 $-1 #
coedge $-1 $108 $67 $181 $182 reversed $42 $-1 #
coedge $-1 $67 $107 $177 $183 reversed $42 $-1 #
coedge $-1 $179 $184 $67 $110 forward $185 $-1 #
edge $-1 $186 15.27038807546618 $187 20.667664369615125 $109 $188 forward 7 unknown #
loop $-1 $-1 $116 $68 #
plane-surface $-1 -7.5529862639131338 -22.288457168303921 5.0535148590126511 0 -0.52991927123019833 0.84804809178421925 1 0 0 forward_v I I I I #
loop $-1 $-1 $189 $44 #
coedge $-1 $114 $114 $115 $190 reversed $69 $-1 #
coedge $-1 $115 $115 $114 $190 forward $71 $-1 #
coedge $-1 $116 $116 $72 $117 forward $111 $-1 #
edge $-1 $191 -2.8239771653392775e-015 $191 6.2831853071795978 $116 $192 forward 7 unknown #
loop $-1 $-1 $123 $73 #
plane-surface $-1 -7.5529862639131338 -22.288457168303921 5.0535148590126511 0 -0.52991927123019833 0.84804809178421925 1 0 0 forward_v I I I I #
loop $-1 $-1 $193 $47 #
coedge $-1 $121 $121 $122 $194 reversed $74 $-1 #
coedge $-1 $122 $122 $121 $194 forward $76 $-1 #
coedge $-1 $123 $123 $77 $124 forward $118 $-1 #
edge $-1 $195 -2.8239771653392775e-015 $195 6.2831853071795978 $123 $196 forward 7 unknown #
face $-1 $197 $198 $26 $-1 $199 reversed single #
loop $-1 $-1 $200 $78 #
plane-surface $-1 49.846491897335738 0 0 -1 0 0 0 0 1 forward_v I I I I #
coedge $-1 $201 $202 $203 $204 reversed $79 $-1 #
coedge $-1 $130 $81 $205 $206 reversed $51 $-1 #
coedge $-1 $81 $129 $201 $207 reversed $51 $-1 #
coedge $-1 $203 $208 $81 $132 forward $209 $-1 #
edge $-1 $210 20.103150933448632 $211 22.637758197013454 $131 $212 forward 7 unknown #
loop $-1 $-1 $138 $82 #
plane-surface $-1 36.28135995443813 -0.67035039579540978 42.417686135805496 0 0.85716730853699208 0.51503806187062418 1 0 0 forward_v I I I I #
loop $-1 $-1 $213 $53 #
coedge $-1 $136 $136 $137 $214 reversed $83 $-1 #
coedge $-1 $137 $137 $136 $214 forward $85 $-1 #
coedge $-1 $138 $138 $86 $139 forward $133 $-1 #
edge $-1 $215 1.2023834831759341e-015 $215 6.2831853071796013 $138 $216 forward 7 unknown #
face $-1 $217 $218 $21 $-1 $219 reversed single #
loop $-1 $-1 $220 $87 #
plane-surface $-1 -49.846491897335738 0 0 1 0 0 0 0 -1 forward_v I I I I #
coedge $-1 $221 $151 $220 $222 forward $88 $-1 #
coedge $-1 $223 $90 $221 $224 forward $57 $-1 #
coedge $-1 $90 $223 $225 $226 forward $57 $-1 #
coedge $-1 $154 $153 $90 $147 reversed $155 $-1 #
edge $-1 $227 -22.288457168303921 $228 22.288457168303921 $146 $229 forward 7 unknown #
coedge $-1 $92 $91 $230 $231 forward $36 $-1 #
coedge $-1 $232 $233 $91 $150 reversed $218 $-1 #
edge $-1 $157 -49.846491897335738 $234 49.846491897335738 $149 $235 forward 7 unknown #
coedge $-1 $143 $236 $92 $152 reversed $88 $-1 #
edge $-1 $237 -49.846491897335738 $156 49.846491897335738 $151 $238 forward 7 unknown #
coedge $-1 $146 $93 $236 $239 forward $155 $-1 #
coedge $-1 $93 $146 $232 $240 reversed $155 $-1 #
loop $-1 $-1 $153 $217 #
vertex $-1 $94 $241 #
vertex $-1 $94 $242 #
straight-curve $-1 49.846491897335738 0 8.4261074609321831 0 1 0 I I #
face $-1 $243 $244 $22 $-1 $245 reversed single #
loop $-1 $-1 $246 $95 #
plane-surface $-1 -55.963896830116099 0 -6.6556400010557226 1 0 0 0 0 -1 forward_v I I I I #
coedge $-1 $247 $98 $248 $249 reversed $61 $-1 #
coedge $-1 $98 $247 $168 $250 reversed $61 $-1 #
edge $-1 $170 4.8851725411792621 $251 8.4261074609321831 $98 $252 forward 7 unknown #
coedge $-1 $100 $99 $253 $254 reversed $39 $-1 #
coedge $-1 $255 $256 $99 $167 forward $257 $-1 #
edge $-1 $258 -8.4261074609321831 $171 -4.8851725411792621 $166 $259 forward 7 unknown #
coedge $-1 $260 $101 $163 $250 forward $96 $-1 #
coedge $-1 $101 $260 $255 $261 forward $96 $-1 #
vertex $-1 $164 $262 #
vertex $-1 $261 $263 #
straight-curve $-1 -49.846491897335738 0 -4.8851725411792621 0 -1 0 I I #
face $-1 $-1 $185 $23 $-1 $264 forward single #
loop $-1 $-1 $265 $103 #
plane-surface $-1 0 -22.288457168303921 0 0 1 0 0 0 1 forward_v I I I I #
coedge $-1 $266 $267 $268 $269 reversed $104 $-1 #
coedge $-1 $270 $106 $108 $183 forward $65 $-1 #
coedge $-1 $106 $270 $266 $271 forward $65 $-1 #
coedge $-1 $268 $109 $106 $180 forward $185 $-1 #
edge $-1 $187 -9.3751208257973939 $272 16.928107089710526 $179 $273 forward 7 unknown #
coedge $-1 $274 $275 $107 $182 forward $174 $-1 #
edge $-1 $276 -39.745464906166795 $186 -36.372872304247267 $181 $277 forward 7 unknown #
edge $-1 $187 -6.3643516758507719 $276 0 $108 $278 forward 7 unknown #
coedge $-1 $109 $268 $274 $279 forward $185 $-1 #
loop $-1 $-1 $268 $173 #
vertex $-1 $182 $280 #
vertex $-1 $110 $281 #
straight-curve $-1 5.598627693840827 -37.558845243770101 8.4261074609321867 0 1 0 I I #
coedge $-1 $189 $189 $-1 $282 reversed $113 $-1 #
edge $-1 $283 0 $283 6.2831853071796004 $114 $284 forward 7 unknown #
vertex $-1 $117 $285 #
ellipse-curve $-1 -13.189392245807689 -19.589819021229445 6.7398111599724189 0 -0.52991927123019833 0.84804809178421925 1 0 0 1 I I #
coedge $-1 $193 $193 $-1 $286 reversed $120 $-1 #
edge $-1 $287 0 $287 6.2831853071796004 $121 $288 forward 7 unknown #
vertex $-1 $124 $289 #
ellipse-curve $-1 -1.9165802820185789 -19.589819021229445 6.7398111599724189 0 -0.52991927123019833 0.84804809178421925 1 0 0 1 I I #
face $-1 $-1 $209 $26 $-1 $290 forward single #
loop $-1 $-1 $291 $125 #
plane-surface $-1 0 22.288457168303921 0 0 -1 0 0 0 -1 forward_v I I I I #
coedge $-1 $292 $293 $202 $294 forward $126 $-1 #
coedge $-1 $295 $128 $130 $207 forward $79 $-1 #
coedge $-1 $128 $295 $200 $294 reversed $79 $-1 #
coedge $-1 $296 $131 $128 $204 forward $209 $-1 #
edge $-1 $211 4.5755480343214572 $297 31.705811920116673 $203 $298 forward 7 unknown #
coedge $-1 $299 $291 $129 $206 forward $198 $-1 #
edge $-1 $300 -42.673871194744997 $210 -38.455576184824139 $205 $301 forward 7 unknown #
edge $-1 $211 39.655710543709297 $300 44.576914336607821 $130 $302 forward 7 unknown #
coedge $-1 $131 $296 $299 $303 forward $209 $-1 #
loop $-1 $-1 $203 $197 #
vertex $-1 $206 $304 #
vertex $-1 $132 $305 #
straight-curve $-1 22.716228011540522 42.391608101752553 8.4261074609321867 0 -1 0 I I #
coedge $-1 $213 $213 $-1 $306 reversed $135 $-1 #
edge $-1 $307 0 $307 6.2831853071796004 $136 $308 forward 7 unknown #
vertex $-1 $139 $309 #
ellipse-curve $-1 36.28135995443813 21.021153536521513 6.3169599559717424 0 0.85716730853699208 0.51503806187062418 0.5 0 0 1 I I #
face $-1 $-1 $155 $21 $-1 $310 reversed single #
loop $-1 $-1 $232 $140 #
plane-surface $-1 0 22.288457168303921 0 0 -1 0 0 0 -1 forward_v I I I I #
coedge $-1 $230 $311 $143 $222 reversed $141 $-1 #
coedge $-1 $236 $143 $144 $224 reversed $88 $-1 #
edge $-1 $237 -8.4261074609321831 $312 8.4261074609321831 $220 $313 forward 7 unknown #
coedge $-1 $145 $144 $311 $314 forward $57 $-1 #
edge $-1 $228 -49.846491897335738 $312 49.846491897335738 $221 $315 forward 7 unknown #
coedge $-1 $233 $232 $145 $226 reversed $218 $-1 #
edge $-1 $316 -49.846491897335738 $227 49.846491897335738 $225 $317 forward 7 unknown #
vertex $-1 $147 $318 #
vertex $-1 $239 $319 #
straight-curve $-1 49.846491897335738 0 -8.4261074609321831 0 -1 0 I I #
coedge $-1 $320 $220 $148 $231 reversed $141 $-1 #
edge $-1 $234 -22.288457168303921 $237 22.288457168303921 $230 $321 forward 7 unknown #
coedge $-1 $225 $149 $154 $240 forward $218 $-1 #
coedge $-1 $149 $225 $320 $322 reversed $218 $-1 #
vertex $-1 $150 $323 #
straight-curve $-1 0 22.288457168303921 8.4261074609321831 -1 0 0 I I #
coedge $-1 $151 $221 $153 $239 reversed $88 $-1 #
vertex $-1 $231 $324 #
straight-curve $-1 0 -22.288457168303921 8.4261074609321831 1 0 0 I I #
edge $-1 $156 -8.4261074609321831 $228 8.4261074609321831 $153 $325 forward 7 unknown #
edge $-1 $157 -8.4261074609321831 $227 8.4261074609321831 $154 $326 forward 7 unknown #
point $-1 49.846491897335738 -22.288457168303921 8.4261074609321831 #
point $-1 49.846491897335738 22.288457168303921 8.4261074609321831 #
face $-1 $-1 $257 $22 $-1 $327 reversed single #
loop $-1 $-1 $253 $159 #
plane-surface $-1 0 0 -8.4261074609321831 0 0 1 1 0 0 forward_v I I I I #
coedge $-1 $328 $329 $247 $330 forward $160 $-1 #
coedge $-1 $163 $162 $246 $330 reversed $61 $-1 #
coedge $-1 $253 $331 $162 $249 forward $244 $-1 #
edge $-1 $332 -55.963896830116099 $251 -49.846491897335738 $162 $333 forward 7 unknown #
edge $-1 $170 -3.0587024663901801 $334 3.0587024663901801 $163 $335 forward 7 unknown #
vertex $-1 $164 $336 #
straight-curve $-1 -49.846491897335738 22.288457168303921 0 0 0 -1 I I #
coedge $-1 $337 $248 $165 $254 forward $244 $-1 #
edge $-1 $251 -22.288457168303921 $258 22.288457168303921 $253 $338 forward 7 unknown #
coedge $-1 $339 $166 $169 $261 reversed $257 $-1 #
coedge $-1 $166 $339 $337 $340 reversed $257 $-1 #
loop $-1 $-1 $166 $243 #
vertex $-1 $340 $341 #
straight-curve $-1 -49.846491897335738 -22.288457168303921 0 0 0 1 I I #
coedge $-1 $169 $168 $329 $342 forward $96 $-1 #
edge $-1 $343 -3.0587024663901801 $171 3.0587024663901801 $255 $344 forward 7 unknown #
point $-1 -49.846491897335738 22.288457168303921 -4.8851725411792621 #
point $-1 -49.846491897335738 -22.288457168303921 -4.8851725411792621 #
plane-surface $-1 0 0 8.4261074609321831 0 0 1 1 0 0 forward_v I I I I #
coedge $-1 $275 $274 $267 $345 forward $174 $-1 #
coedge $-1 $267 $176 $178 $271 reversed $104 $-1 #
coedge $-1 $176 $266 $265 $345 reversed $104 $-1 #
coedge $-1 $184 $179 $176 $269 forward $185 $-1 #
edge $-1 $272 -20.667664369615125 $346 -15.27038807546618 $268 $347 forward 7 unknown #
coedge $-1 $178 $177 $275 $348 reversed $65 $-1 #
edge $-1 $349 0 $272 6.3643516758507719 $266 $350 forward 7 unknown #
vertex $-1 $180 $351 #
straight-curve $-1 -3.7764931319565669 -16.89118087415498 8.4261074609321831 -1 0 0 I I #
coedge $-1 $265 $181 $184 $279 reversed $174 $-1 #
coedge $-1 $181 $265 $270 $348 forward $174 $-1 #
vertex $-1 $182 $352 #
straight-curve $-1 5.598627693840827 -22.288457168303921 44.798979765179446 0 0 1 I I #
straight-curve $-1 5.598627693840827 -22.288457168303921 5.0535148590126511 0 -0.84804809178421925 -0.52991927123019833 I I #
edge $-1 $346 -20.704600221667093 $186 5.598627693840827 $274 $353 forward 7 unknown #
point $-1 5.598627693840827 -22.288457168303921 8.4261074609321831 #
point $-1 5.598627693840827 -16.891180874154976 8.4261074609321831 #
edge $-1 $354 1 $354 0 $189 $-1 forward 7 unknown #
vertex $-1 $190 $355 #
ellipse-curve $-1 -13.189392245807689 -18.42573353451569 4.8768849950312214 0 -0.52991927123019833 0.84804809178421925 1 0 0 1 I I #
point $-1 -12.189392245807689 -19.589819021229445 6.7398111599724135 #
edge $-1 $356 1 $356 0 $193 $-1 forward 7 unknown #
vertex $-1 $194 $357 #
ellipse-curve $-1 -1.9165802820185789 -18.42573353451569 4.8768849950312214 0 -0.52991927123019833 0.84804809178421925 1 0 0 1 I I #
point $-1 -0.91658028201857888 -19.589819021229445 6.7398111599724135 #
plane-surface $-1 0 0 8.4261074609321831 0 0 1 1 0 0 forward_v I I I I #
coedge $-1 $205 $358 $295 $359 forward $198 $-1 #
coedge $-1 $293 $200 $358 $360 reversed $126 $-1 #
coedge $-1 $200 $292 $296 $361 reversed $126 $-1 #
edge $-1 $297 21.303555629699311 $362 26.224759422597835 $200 $363 forward 7 unknown #
coedge $-1 $202 $201 $291 $359 reversed $79 $-1 #
coedge $-1 $208 $203 $293 $361 forward $209 $-1 #
vertex $-1 $361 $364 #
straight-curve $-1 18.140679977219065 19.753849904739099 8.4261074609321867 1 0 0 I I #
coedge $-1 $358 $205 $208 $303 reversed $198 $-1 #
vertex $-1 $206 $365 #
straight-curve $-1 22.716228011540522 22.288457168303921 46.881683645756318 0 0 1 I I #
straight-curve $-1 22.716228011540522 -0.67035039579540978 42.417686135805496 0 0.51503806187062418 -0.85716730853699208 I I #
edge $-1 $366 -49.846491897335738 $210 -22.716228011540522 $299 $367 forward 7 unknown #
point $-1 22.716228011540522 22.288457168303921 8.4261074609321831 #
point $-1 22.716228011540522 19.753849904739099 8.4261074609321867 #
edge $-1 $368 1 $368 0 $213 $-1 forward 7 unknown #
vertex $-1 $214 $369 #
ellipse-curve $-1 36.28135995443813 19.726050563681468 5.5387836088209168 0 0.85716730853699208 0.51503806187062418 0.5 0 0 1 I I #
point $-1 36.78135995443813 21.021153536521503 6.3169599559717353 #
plane-surface $-1 49.846491897335738 0 0 -1 0 0 0 0 1 forward_v I I I I #
coedge $-1 $220 $320 $223 $314 reversed $141 $-1 #
vertex $-1 $314 $370 #
straight-curve $-1 -49.846491897335738 -22.288457168303921 0 0 0 -1 I I #
edge $-1 $312 -22.288457168303921 $316 22.288457168303921 $311 $371 forward 7 unknown #
straight-curve $-1 0 -22.288457168303921 -8.4261074609321831 -1 0 0 I I #
vertex $-1 $226 $372 #
straight-curve $-1 0 22.288457168303921 -8.4261074609321831 1 0 0 I I #
point $-1 49.846491897335738 22.288457168303921 -8.4261074609321831 #
point $-1 49.846491897335738 -22.288457168303921 -8.4261074609321831 #
coedge $-1 $311 $230 $233 $322 forward $141 $-1 #
straight-curve $-1 -49.846491897335738 0 8.4261074609321831 0 -1 0 I I #
edge $-1 $234 -8.4261074609321831 $316 8.4261074609321831 $233 $373 forward 7 unknown #
point $-1 -49.846491897335738 22.288457168303921 8.4261074609321831 #
point $-1 -49.846491897335738 -22.288457168303921 8.4261074609321831 #
straight-curve $-1 49.846491897335738 -22.288457168303921 0 0 0 -1 I I #
straight-curve $-1 49.846491897335738 22.288457168303921 0 0 0 -1 I I #
plane-surface $-1 0 -22.288457168303921 0 0 1 0 0 0 1 forward_v I I I I #
coedge $-1 $374 $246 $331 $375 reversed $160 $-1 #
coedge $-1 $246 $374 $260 $342 reversed $160 $-1 #
edge $-1 $334 -1.7704674598764605 $332 1.7704674598764605 $247 $376 forward 7 unknown #
coedge $-1 $248 $337 $328 $375 forward $244 $-1 #
vertex $-1 $249 $377 #
straight-curve $-1 0 22.288457168303921 -8.4261074609321831 1 0 0 I I #
vertex $-1 $250 $378 #
straight-curve $-1 -52.905194363725919 22.288457168303921 -4.8851725411792621 -1 0 0 I I #
point $-1 -49.846491897335738 22.288457168303921 -8.4261074609321831 #
coedge $-1 $331 $253 $256 $340 forward $244 $-1 #
straight-curve $-1 -49.846491897335738 0 -8.4261074609321831 0 -1 0 I I #
coedge $-1 $256 $255 $374 $379 forward $257 $-1 #
edge $-1 $258 -3.0587024663901801 $380 3.0587024663901801 $256 $381 forward 7 unknown #
point $-1 -49.846491897335738 -22.288457168303921 -8.4261074609321831 #
edge $-1 $334 -22.288457168303921 $343 22.288457168303921 $329 $382 forward 7 unknown #
vertex $-1 $342 $383 #
straight-curve $-1 -52.905194363725919 -22.288457168303921 -4.8851725411792621 1 0 0 I I #
edge $-1 $346 36.372872304247267 $349 39.745464906166795 $265 $384 forward 7 unknown #
vertex $-1 $279 $385 #
straight-curve $-1 -20.704600221667093 -37.558845243770101 8.4261074609321867 0 -1 0 I I #
edge $-1 $349 -16.928107089710526 $276 9.3751208257973939 $275 $386 forward 7 unknown #
vertex $-1 $348 $387 #
straight-curve $-1 -20.704600221667093 -22.288457168303921 5.0535148590126511 0 0.84804809178421925 0.52991927123019833 I I #
point $-1 -20.704600221667093 -16.891180874154976 8.4261074609321831 #
point $-1 5.598627693840827 -22.288457168303921 5.0535148590126511 #
straight-curve $-1 0 -22.288457168303921 8.4261074609321831 1 0 0 I I #
vertex $-1 $282 $388 #
point $-1 -12.189392245807689 -18.42573353451569 4.8768849950312214 #
vertex $-1 $286 $389 #
point $-1 -0.91658028201857888 -18.42573353451569 4.8768849950312214 #
coedge $-1 $291 $299 $292 $360 forward $198 $-1 #
edge $-1 $362 -31.705811920116673 $300 -4.5755480343214572 $291 $390 forward 7 unknown #
edge $-1 $366 -8.4261074609321831 $362 -4.2078124510113213 $292 $391 forward 7 unknown #
edge $-1 $297 19.753849904739099 $366 22.288457168303921 $293 $392 forward 7 unknown #
vertex $-1 $294 $393 #
straight-curve $-1 49.846491897335738 8.7817079022657403 26.686818902309628 0 0.51503806187062429 -0.85716730853699219 I I #
point $-1 49.846491897335738 19.753849904739099 8.4261074609321867 #
point $-1 22.716228011540522 22.288457168303921 4.2078124510113213 #
vertex $-1 $361 $394 #
straight-curve $-1 0 22.288457168303921 8.4261074609321831 -1 0 0 I I #
vertex $-1 $306 $395 #
point $-1 36.78135995443813 19.726050563681468 5.5387836088209168 #
point $-1 -49.846491897335738 -22.288457168303921 -8.4261074609321831 #
straight-curve $-1 -49.846491897335738 0 -8.4261074609321831 0 1 0 I I #
point $-1 -49.846491897335738 22.288457168303921 -8.4261074609321831 #
straight-curve $-1 -49.846491897335738 22.288457168303921 0 0 0 -1 I I #
coedge $-1 $329 $328 $339 $379 reversed $160 $-1 #
edge $-1 $380 -22.288457168303921 $332 22.288457168303921 $328 $396 forward 7 unknown #
straight-curve $-1 -55.963896830116099 22.288457168303921 -6.6556400010557226 0 0 -1 I I #
point $-1 -55.963896830116099 22.288457168303921 -8.4261074609321831 #
point $-1 -55.963896830116099 22.288457168303921 -4.8851725411792621 #
edge $-1 $343 -1.7704674598764605 $380 1.7704674598764605 $374 $397 forward 7 unknown #
vertex $-1 $375 $398 #
straight-curve $-1 -52.905194363725919 -22.288457168303921 -8.4261074609321831 -1 0 0 I I #
straight-curve $-1 -55.963896830116099 0 -4.8851725411792621 0 -1 0 I I #
point $-1 -55.963896830116099 -22.288457168303921 -4.8851725411792621 #
straight-curve $-1 -20.704600221667093 -22.288457168303921 44.798979765179446 0 0 -1 I I #
point $-1 -20.704600221667093 -22.288457168303921 8.4261074609321831 #
straight-curve $-1 -3.7764931319565669 -22.288457168303921 5.053514859012652 1 0 0 I I #
point $-1 -20.704600221667093 -22.288457168303921 5.0535148590126511 #
point $-1 -13.189392245807689 -17.895814263285491 4.0288369032470017 #
point $-1 -1.9165802820185789 -17.895814263285491 4.0288369032470017 #
straight-curve $-1 18.140679977219065 22.288457168303921 4.2078124510113213 -1 0 0 I I #
straight-curve $-1 49.846491897335738 22.288457168303921 0 0 0 -1 I I #
straight-curve $-1 49.846491897335738 0 8.4261074609321831 0 1 0 I I #
point $-1 49.846491897335738 22.288457168303921 4.2078124510113213 #
point $-1 49.846491897335738 22.288457168303921 8.4261074609321831 #
point $-1 36.28135995443813 19.297466909412975 5.2812645778856053 #
straight-curve $-1 -55.963896830116099 0 -8.4261074609321831 0 1 0 I I #
straight-curve $-1 -55.963896830116099 -22.288457168303921 -6.6556400010557226 0 0 -1 I I #
point $-1 -55.963896830116099 -22.288457168303921 -8.4261074609321831 #
End-of-ACIS-data 