500 0 13 0           
7 Unknown 11 ACIS 5.0 NT 24 Fri Mar 26 15:33:26 1999 
-1 9.9999999999999995e-007 1e-010 
body $-1 $13 $-1 $14 #
body $-1 $15 $-1 $16 #
body $-1 $17 $-1 $18 #
body $-1 $19 $-1 $20 #
body $-1 $21 $-1 $22 #
body $-1 $23 $-1 $24 #
body $-1 $25 $-1 $26 #
body $-1 $27 $-1 $28 #
body $-1 $29 $-1 $30 #
body $-1 $31 $-1 $32 #
body $-1 $33 $-1 $34 #
body $-1 $35 $-1 $36 #
body $-1 $37 $-1 $38 #
lump $-1 $-1 $39 $0 #
transform $-1 1 0 0 0 1 0 0 0 1 59.129001739555036 25.251857012928784 5.7848770002609315 1 rotate no_reflect no_shear #
lump $-1 $-1 $40 $1 #
transform $-1 1 0 0 0 1 0 0 0 1 59.129001739555036 25.251857012928784 5.7848770002609315 1 rotate no_reflect no_shear #
lump $-1 $-1 $41 $2 #
transform $-1 1 0 0 0 1 0 0 0 1 59.129001739555036 25.251857012928784 5.7848770002609315 1 rotate no_reflect no_shear #
lump $-1 $-1 $42 $3 #
transform $-1 1 0 0 0 1 0 0 0 1 59.129001739555036 25.251857012928784 5.7848770002609315 1 rotate no_reflect no_shear #
lump $-1 $-1 $43 $4 #
transform $-1 1 0 0 0 1 0 0 0 1 59.129001739555036 25.251857012928784 5.7848770002609315 1 rotate no_reflect no_shear #
lump $-1 $-1 $44 $5 #
transform $-1 1 0 0 0 1 0 0 0 1 59.129001739555036 25.251857012928784 5.7848770002609315 1 rotate no_reflect no_shear #
lump $-1 $-1 $45 $6 #
transform $-1 1 0 0 0 1 0 0 0 1 59.129001739555036 25.251857012928784 5.7848770002609315 1 rotate no_reflect no_shear #
lump $-1 $-1 $46 $7 #
transform $-1 1 0 0 0 1 0 0 0 1 59.129001739555036 25.251857012928784 5.7848770002609315 1 rotate no_reflect no_shear #
lump $-1 $-1 $47 $8 #
transform $-1 1 0 0 0 1 0 0 0 1 59.129001739555036 25.251857012928784 5.7848770002609315 1 rotate no_reflect no_shear #
lump $-1 $-1 $48 $9 #
transform $-1 1 0 0 0 1 0 0 0 1 59.129001739555036 25.251857012928784 5.7848770002609315 1 rotate no_reflect no_shear #
lump $-1 $-1 $49 $10 #
transform $-1 1 0 0 0 1 0 0 0 1 59.129001739555036 25.251857012928784 5.7848770002609315 1 rotate no_reflect no_shear #
lump $-1 $-1 $50 $11 #
transform $-1 1 0 0 0 1 0 0 0 1 59.129001739555036 25.251857012928784 5.7848770002609315 1 rotate no_reflect no_shear #
lump $-1 $-1 $51 $12 #
transform $-1 1 0 0 0 1 0 0 0 1 59.129001739555036 25.251857012928784 5.7848770002609315 1 rotate no_reflect no_shear #
shell $-1 $-1 $-1 $52 $-1 $13 #
shell $-1 $-1 $-1 $53 $-1 $15 #
shell $-1 $-1 $-1 $54 $-1 $17 #
shell $-1 $-1 $-1 $55 $-1 $19 #
shell $-1 $-1 $-1 $56 $-1 $21 #
shell $-1 $-1 $-1 $57 $-1 $23 #
shell $-1 $-1 $-1 $58 $-1 $25 #
shell $-1 $-1 $-1 $59 $-1 $27 #
shell $-1 $-1 $-1 $60 $-1 $29 #
shell $-1 $-1 $-1 $61 $-1 $31 #
shell $-1 $-1 $-1 $62 $-1 $33 #
shell $-1 $-1 $-1 $63 $-1 $35 #
shell $-1 $-1 $-1 $64 $-1 $37 #
face $-1 $65 $66 $39 $-1 $67 forward single #
face $-1 $68 $69 $40 $-1 $70 forward single #
face $-1 $71 $72 $41 $-1 $73 forward single #
face $-1 $74 $75 $42 $-1 $76 reversed single #
face $-1 $77 $78 $43 $-1 $79 forward single #
face $-1 $80 $81 $44 $-1 $82 reversed single #
face $-1 $83 $84 $45 $-1 $85 forward single #
face $-1 $86 $87 $46 $-1 $88 forward single #
face $-1 $89 $90 $47 $-1 $91 forward single #
face $-1 $92 $93 $48 $-1 $94 reversed single #
face $-1 $95 $96 $49 $-1 $97 forward single #
face $-1 $98 $99 $50 $-1 $100 forward single #
face $-1 $101 $102 $51 $-1 $103 forward single #
face $-1 $104 $105 $39 $-1 $106 reversed single #
loop $-1 $-1 $107 $52 #
plane-surface $-1 0 0 5.7848770002609315 0 0 1 1 0 0 forward_v I I I I #
face $-1 $108 $109 $40 $-1 $110 reversed single #
loop $-1 $-1 $111 $53 #
plane-surface $-1 0 -25.251857012928784 0 0 1 0 0 0 1 forward_v I I I I #
face $-1 $112 $113 $41 $-1 $114 reversed single #
loop $-1 $-1 $115 $54 #
plane-surface $-1 0 25.251857012928784 0 0 -1 0 0 0 -1 forward_v I I I I #
face $-1 $116 $117 $42 $-1 $118 reversed single #
loop $-1 $-1 $119 $55 #
plane-surface $-1 -151.03273253192856 -18.339876165960316 75.737736563945759 0 1 0 -0.77714596973225614 0 0.62932038083071107 forward_v I I I I #
face $-1 $120 $121 $43 $-1 $122 forward single #
loop $-1 $123 $124 $56 #
cone-surface $-1 -56.312173238651901 -12.857231428938004 2.7345742754596198 0.77714596973225614 0 -0.62932038083071107 0.62932038083071107 0 0.77714596973225614 1 I I 0 1 1 forward I I I I #
face $-1 $125 $126 $44 $-1 $127 reversed single #
loop $-1 $-1 $128 $57 #
plane-surface $-1 70.795221078167259 -11.99208944736192 168.37580797061986 0 -1 0 -0.75470958851134928 0 -0.65605901945558964 forward_v I I I I #
face $-1 $129 $130 $45 $-1 $131 forward single #
loop $-1 $132 $133 $58 #
cone-surface $-1 56.865366190838358 -17.070318822240637 3.2986687122520442 -0.75470958851134928 0 -0.65605901945558964 0.32802950972779482 0 -0.37735479425567464 1 I I 0 1 0.5 forward I I I I #
face $-1 $134 $135 $46 $-1 $136 forward single #
loop $-1 $137 $138 $59 #
cone-surface $-1 56.865366190838358 -15.165982806661118 3.2986687122520442 -0.75470958851134928 0 -0.65605901945558964 0.32802950972779482 0 -0.37735479425567464 1 I I 0 1 0.5 forward I I I I #
face $-1 $139 $140 $47 $-1 $141 forward single #
loop $-1 $142 $143 $60 #
cone-surface $-1 56.865366190838358 -13.261646791081599 3.2986687122520442 -0.75470958851134928 0 -0.65605901945558964 0.32802950972779482 0 -0.37735479425567464 1 I I 0 1 0.5 forward I I I I #
face $-1 $144 $145 $48 $-1 $146 reversed single #
loop $-1 $-1 $147 $61 #
plane-surface $-1 70.795221078167259 18.339876165960312 168.37580797061986 0 -1 0 -0.75470958851134928 0 -0.65605901945558964 forward_v I I I I #
face $-1 $148 $149 $49 $-1 $150 forward single #
loop $-1 $151 $152 $62 #
cone-surface $-1 56.865366190838358 13.261646791081599 3.2986687122520442 -0.75470958851134928 0 -0.65605901945558964 0.32802950972779482 0 -0.37735479425567464 1 I I 0 1 0.5 forward I I I I #
face $-1 $153 $154 $50 $-1 $155 forward single #
loop $-1 $156 $157 $63 #
cone-surface $-1 56.865366190838358 15.165982806661116 3.2986687122520442 -0.75470958851134928 0 -0.65605901945558964 0.32802950972779482 0 -0.37735479425567464 1 I I 0 1 0.5 forward I I I I #
face $-1 $158 $159 $51 $-1 $160 forward single #
loop $-1 $161 $162 $64 #
cone-surface $-1 56.865366190838358 17.070318822240633 3.2986687122520442 -0.75470958851134928 0 -0.65605901945558964 0.32802950972779482 0 -0.37735479425567464 1 I I 0 1 0.5 forward I I I I #
face $-1 $163 $164 $39 $-1 $165 reversed single #
loop $-1 $-1 $166 $65 #
plane-surface $-1 0 0 -5.7848770002609315 0 0 1 1 0 0 forward_v I I I I #
coedge $-1 $167 $168 $169 $170 forward $66 $-1 #
face $-1 $171 $172 $40 $-1 $173 reversed single #
loop $-1 $-1 $174 $68 #
plane-surface $-1 0 0 -5.7848770002609315 0 0 1 1 0 0 forward_v I I I I #
coedge $-1 $175 $176 $177 $178 forward $69 $-1 #
face $-1 $179 $180 $41 $-1 $181 forward single #
loop $-1 $-1 $182 $71 #
plane-surface $-1 -59.129001739555036 0 0 1 0 0 0 0 -1 forward_v I I I I #
coedge $-1 $183 $184 $185 $186 forward $72 $-1 #
face $-1 $187 $188 $42 $-1 $189 reversed single #
loop $-1 $-1 $190 $74 #
plane-surface $-1 -59.129001739555036 -12.857231428938004 1.3155647781926518 -0.77714596973225614 0 0.62932038083071107 0.62932038083071107 0 0.77714596973225614 forward_v I I I I #
coedge $-1 $191 $192 $193 $194 reversed $75 $-1 #
face $-1 $-1 $195 $43 $-1 $196 forward single #
loop $-1 $197 $198 $77 #
cone-surface $-1 -54.916360542625938 -12.857231428938004 1.6042674712770886 0.77714596973225614 0 -0.62932038083071107 0.31466019041535553 0 0.38857298486612807 1 I I -0.70710678118654746 0.70710678118654746 0.5 forward I I I I #
loop $-1 $-1 $199 $56 #
coedge $-1 $124 $124 $200 $201 reversed $78 $-1 #
face $-1 $202 $203 $44 $-1 $204 reversed single #
loop $-1 $-1 $205 $80 #
plane-surface $-1 -18.45522806572562 -15.165982806661118 90.791578165339203 0.75470958851134928 0 0.65605901945558964 0.65605901945558964 0 -0.75470958851134928 forward_v I I I I #
coedge $-1 $206 $207 $208 $209 reversed $81 $-1 #
face $-1 $-1 $210 $45 $-1 $211 forward single #
loop $-1 $212 $213 $83 #
cone-surface $-1 56.257570116237943 -17.070318822240637 2.7703196587865504 -0.75470958851134928 0 -0.65605901945558964 0.16401475486389741 0 -0.18867739712783732 1 I I -0.70710678118654746 0.70710678118654746 0.25 forward I I I I #
loop $-1 $-1 $214 $58 #
coedge $-1 $133 $133 $215 $216 reversed $84 $-1 #
face $-1 $-1 $217 $46 $-1 $218 forward single #
loop $-1 $219 $220 $86 #
cone-surface $-1 56.257570116237943 -15.165982806661118 2.7703196587865504 -0.75470958851134928 0 -0.65605901945558964 0.16401475486389741 0 -0.18867739712783732 1 I I -0.70710678118654746 0.70710678118654746 0.25 forward I I I I #
loop $-1 $-1 $221 $59 #
coedge $-1 $138 $138 $222 $223 reversed $87 $-1 #
face $-1 $-1 $224 $47 $-1 $225 forward single #
loop $-1 $226 $227 $89 #
cone-surface $-1 56.257570116237943 -13.261646791081599 2.7703196587865504 -0.75470958851134928 0 -0.65605901945558964 0.16401475486389741 0 -0.18867739712783732 1 I I -0.70710678118654746 0.70710678118654746 0.25 forward I I I I #
loop $-1 $-1 $228 $60 #
coedge $-1 $143 $143 $229 $230 reversed $90 $-1 #
face $-1 $231 $232 $48 $-1 $233 reversed single #
loop $-1 $-1 $234 $92 #
plane-surface $-1 -18.45522806572562 15.165982806661116 90.791578165339203 0.75470958851134928 0 0.65605901945558964 0.65605901945558964 0 -0.75470958851134928 forward_v I I I I #
coedge $-1 $235 $236 $237 $238 reversed $93 $-1 #
face $-1 $-1 $239 $49 $-1 $240 forward single #
loop $-1 $241 $242 $95 #
cone-surface $-1 56.257570116237943 13.261646791081599 2.7703196587865504 -0.75470958851134928 0 -0.65605901945558964 0.16401475486389741 0 -0.18867739712783732 1 I I -0.70710678118654746 0.70710678118654746 0.25 forward I I I I #
loop $-1 $-1 $243 $62 #
coedge $-1 $152 $152 $244 $245 reversed $96 $-1 #
face $-1 $-1 $246 $50 $-1 $247 forward single #
loop $-1 $248 $249 $98 #
cone-surface $-1 56.257570116237943 15.165982806661116 2.7703196587865504 -0.75470958851134928 0 -0.65605901945558964 0.16401475486389741 0 -0.18867739712783732 1 I I -0.70710678118654746 0.70710678118654746 0.25 forward I I I I #
loop $-1 $-1 $250 $63 #
coedge $-1 $157 $157 $251 $252 reversed $99 $-1 #
face $-1 $-1 $253 $51 $-1 $254 forward single #
loop $-1 $255 $256 $101 #
cone-surface $-1 56.257570116237943 17.070318822240633 2.7703196587865504 -0.75470958851134928 0 -0.65605901945558964 0.16401475486389741 0 -0.18867739712783732 1 I I -0.70710678118654746 0.70710678118654746 0.25 forward I I I I #
loop $-1 $-1 $257 $64 #
coedge $-1 $162 $162 $258 $259 reversed $102 $-1 #
face $-1 $260 $261 $39 $-1 $262 reversed single #
loop $-1 $-1 $263 $104 #
plane-surface $-1 0 -25.251857012928784 0 0 1 0 0 0 1 forward_v I I I I #
coedge $-1 $264 $265 $266 $267 forward $105 $-1 #
coedge $-1 $268 $107 $269 $270 forward $66 $-1 #
coedge $-1 $107 $268 $271 $272 forward $66 $-1 #
coedge $-1 $273 $274 $107 $170 reversed $275 $-1 #
edge $-1 $276 -25.251857012928784 $277 25.251857012928784 $169 $278 forward 7 unknown #
face $-1 $279 $280 $40 $-1 $281 forward single #
loop $-1 $-1 $282 $108 #
plane-surface $-1 59.129001739555036 0 0 -1 0 0 0 0 1 forward_v I I I I #
coedge $-1 $283 $284 $285 $286 forward $109 $-1 #
coedge $-1 $285 $111 $282 $287 reversed $69 $-1 #
coedge $-1 $111 $285 $288 $289 reversed $69 $-1 #
coedge $-1 $290 $291 $111 $178 reversed $280 $-1 #
edge $-1 $292 -59.129001739555036 $293 59.129001739555036 $177 $294 forward 7 unknown #
face $-1 $295 $296 $41 $-1 $297 reversed single #
loop $-1 $-1 $298 $112 #
plane-surface $-1 0 28.707847436413015 -2.7848770002609315 0 0 1 1 0 0 forward_v I I I I #
coedge $-1 $299 $300 $183 $301 forward $113 $-1 #
coedge $-1 $302 $115 $182 $301 reversed $72 $-1 #
coedge $-1 $115 $302 $303 $304 reversed $72 $-1 #
coedge $-1 $298 $305 $115 $186 reversed $180 $-1 #
edge $-1 $306 -59.129001739555036 $307 59.129001739555036 $185 $308 forward 7 unknown #
face $-1 $309 $310 $42 $-1 $311 reversed single #
loop $-1 $-1 $312 $116 #
plane-surface $-1 -151.03273253192856 -7.3745866919156917 75.737736563945759 0 -1 0 0.77714596973225614 0 -0.62932038083071107 forward_v I I I I #
coedge $-1 $313 $314 $315 $316 reversed $117 $-1 #
coedge $-1 $192 $119 $317 $318 reversed $75 $-1 #
coedge $-1 $119 $191 $313 $319 reversed $75 $-1 #
coedge $-1 $315 $320 $119 $194 forward $321 $-1 #
edge $-1 $322 16.387364526409243 $323 20.006542105895853 $193 $324 forward 7 unknown #
loop $-1 $-1 $200 $120 #
plane-surface $-1 -59.129001739555036 -12.857231428938004 1.3155647781926518 -0.77714596973225614 0 0.62932038083071107 0.62932038083071107 0 0.77714596973225614 forward_v I I I I #
loop $-1 $-1 $325 $77 #
coedge $-1 $198 $198 $199 $326 reversed $121 $-1 #
coedge $-1 $199 $199 $198 $326 forward $123 $-1 #
coedge $-1 $200 $200 $124 $201 forward $195 $-1 #
edge $-1 $327 0 $327 6.2831853071796004 $200 $328 forward 7 unknown #
face $-1 $329 $330 $44 $-1 $331 forward single #
loop $-1 $-1 $332 $125 #
plane-surface $-1 70.795221078167259 -18.339876165960316 168.37580797061986 0 1 0 0.75470958851134928 0 0.65605901945558964 forward_v I I I I #
coedge $-1 $333 $334 $335 $336 reversed $126 $-1 #
coedge $-1 $207 $128 $337 $338 reversed $81 $-1 #
coedge $-1 $128 $206 $333 $339 reversed $81 $-1 #
coedge $-1 $335 $340 $128 $209 forward $330 $-1 #
edge $-1 $341 -23.731391200471407 $342 -20.042357457983215 $208 $343 forward 7 unknown #
loop $-1 $-1 $215 $129 #
plane-surface $-1 -18.45522806572562 -15.165982806661118 90.791578165339203 0.75470958851134928 0 0.65605901945558964 0.65605901945558964 0 -0.75470958851134928 forward_v I I I I #
loop $-1 $-1 $344 $83 #
coedge $-1 $213 $213 $214 $345 reversed $130 $-1 #
coedge $-1 $214 $214 $213 $345 forward $132 $-1 #
coedge $-1 $215 $215 $133 $216 forward $210 $-1 #
edge $-1 $346 0 $346 6.2831853071796004 $215 $347 forward 7 unknown #
loop $-1 $-1 $222 $134 #
plane-surface $-1 -18.45522806572562 -15.165982806661118 90.791578165339203 0.75470958851134928 0 0.65605901945558964 0.65605901945558964 0 -0.75470958851134928 forward_v I I I I #
loop $-1 $-1 $348 $86 #
coedge $-1 $220 $220 $221 $349 reversed $135 $-1 #
coedge $-1 $221 $221 $220 $349 forward $137 $-1 #
coedge $-1 $222 $222 $138 $223 forward $217 $-1 #
edge $-1 $350 0 $350 6.2831853071796004 $222 $351 forward 7 unknown #
loop $-1 $-1 $229 $139 #
plane-surface $-1 -18.45522806572562 -15.165982806661118 90.791578165339203 0.75470958851134928 0 0.65605901945558964 0.65605901945558964 0 -0.75470958851134928 forward_v I I I I #
loop $-1 $-1 $352 $89 #
coedge $-1 $227 $227 $228 $353 reversed $140 $-1 #
coedge $-1 $228 $228 $227 $353 forward $142 $-1 #
coedge $-1 $229 $229 $143 $230 forward $224 $-1 #
edge $-1 $354 0 $354 6.2831853071796004 $229 $355 forward 7 unknown #
face $-1 $356 $357 $48 $-1 $358 reversed single #
loop $-1 $-1 $359 $144 #
plane-surface $-1 70.795221078167259 11.992089447361918 168.37580797061986 0 1 0 0.75470958851134928 0 0.65605901945558964 forward_v I I I I #
coedge $-1 $360 $361 $362 $363 reversed $145 $-1 #
coedge $-1 $236 $147 $364 $365 reversed $93 $-1 #
coedge $-1 $147 $235 $360 $366 reversed $93 $-1 #
coedge $-1 $362 $367 $147 $238 forward $368 $-1 #
edge $-1 $369 -23.731391200471407 $370 -20.042357457983215 $237 $371 forward 7 unknown #
loop $-1 $-1 $244 $148 #
plane-surface $-1 -18.45522806572562 15.165982806661116 90.791578165339203 0.75470958851134928 0 0.65605901945558964 0.65605901945558964 0 -0.75470958851134928 forward_v I I I I #
loop $-1 $-1 $372 $95 #
coedge $-1 $242 $242 $243 $373 reversed $149 $-1 #
coedge $-1 $243 $243 $242 $373 forward $151 $-1 #
coedge $-1 $244 $244 $152 $245 forward $239 $-1 #
edge $-1 $374 0 $374 6.2831853071796004 $244 $375 forward 7 unknown #
loop $-1 $-1 $251 $153 #
plane-surface $-1 -18.45522806572562 15.165982806661116 90.791578165339203 0.75470958851134928 0 0.65605901945558964 0.65605901945558964 0 -0.75470958851134928 forward_v I I I I #
loop $-1 $-1 $376 $98 #
coedge $-1 $249 $249 $250 $377 reversed $154 $-1 #
coedge $-1 $250 $250 $249 $377 forward $156 $-1 #
coedge $-1 $251 $251 $157 $252 forward $246 $-1 #
edge $-1 $378 0 $378 6.2831853071796004 $251 $379 forward 7 unknown #
loop $-1 $-1 $258 $158 #
plane-surface $-1 -18.45522806572562 15.165982806661116 90.791578165339203 0.75470958851134928 0 0.65605901945558964 0.65605901945558964 0 -0.75470958851134928 forward_v I I I I #
loop $-1 $-1 $380 $101 #
coedge $-1 $256 $256 $257 $381 reversed $159 $-1 #
coedge $-1 $257 $257 $256 $381 forward $161 $-1 #
coedge $-1 $258 $258 $162 $259 forward $253 $-1 #
edge $-1 $382 0 $382 6.2831853071796004 $258 $383 forward 7 unknown #
face $-1 $384 $385 $39 $-1 $386 reversed single #
loop $-1 $-1 $387 $163 #
plane-surface $-1 -59.129001739555036 0 0 1 0 0 0 0 -1 forward_v I I I I #
coedge $-1 $388 $271 $389 $390 forward $164 $-1 #
coedge $-1 $391 $166 $388 $392 forward $105 $-1 #
coedge $-1 $166 $391 $393 $394 forward $105 $-1 #
coedge $-1 $274 $273 $166 $267 reversed $275 $-1 #
edge $-1 $395 -25.251857012928784 $396 25.251857012928784 $266 $397 forward 7 unknown #
coedge $-1 $168 $167 $398 $399 forward $66 $-1 #
coedge $-1 $400 $401 $167 $270 reversed $385 $-1 #
edge $-1 $277 -59.129001739555036 $402 59.129001739555036 $269 $403 forward 7 unknown #
coedge $-1 $263 $404 $168 $272 reversed $164 $-1 #
edge $-1 $405 -59.129001739555036 $276 59.129001739555036 $271 $406 forward 7 unknown #
coedge $-1 $266 $169 $404 $407 forward $275 $-1 #
coedge $-1 $169 $266 $400 $408 reversed $275 $-1 #
loop $-1 $-1 $273 $384 #
vertex $-1 $170 $409 #
vertex $-1 $170 $410 #
straight-curve $-1 59.129001739555036 0 5.7848770002609315 0 1 0 I I #
face $-1 $411 $412 $40 $-1 $413 reversed single #
loop $-1 $-1 $291 $171 #
plane-surface $-1 0 -28.707847436413019 -2.7848770002609315 0 0 1 1 0 0 forward_v I I I I #
coedge $-1 $414 $415 $175 $287 forward $172 $-1 #
coedge $-1 $416 $174 $415 $417 forward $109 $-1 #
coedge $-1 $174 $416 $418 $419 forward $109 $-1 #
coedge $-1 $176 $175 $174 $286 reversed $69 $-1 #
edge $-1 $420 -59.129001739555036 $421 59.129001739555036 $174 $422 forward 7 unknown #
edge $-1 $421 -5.7848770002609315 $293 -2.7848770002609315 $282 $423 forward 7 unknown #
coedge $-1 $418 $424 $176 $289 forward $425 $-1 #
edge $-1 $292 2.7848770002609315 $420 5.7848770002609315 $288 $426 forward 7 unknown #
coedge $-1 $427 $177 $424 $428 forward $280 $-1 #
coedge $-1 $177 $427 $414 $429 forward $280 $-1 #
vertex $-1 $289 $430 #
vertex $-1 $429 $431 #
straight-curve $-1 0 -25.251857012928784 -2.7848770002609315 1 0 0 I I #
face $-1 $432 $433 $41 $-1 $434 reversed single #
loop $-1 $-1 $435 $179 #
plane-surface $-1 0 32.163837859897249 -4.2848770002609315 0 -1 0 0 0 -1 forward_v I I I I #
coedge $-1 $436 $185 $437 $438 forward $180 $-1 #
coedge $-1 $439 $182 $305 $440 reversed $113 $-1 #
coedge $-1 $182 $439 $441 $442 reversed $113 $-1 #
edge $-1 $443 -5.7848770002609315 $307 -2.7848770002609315 $182 $444 forward 7 unknown #
coedge $-1 $184 $183 $445 $446 reversed $72 $-1 #
coedge $-1 $447 $437 $184 $304 forward $448 $-1 #
edge $-1 $306 2.7848770002609315 $449 5.7848770002609315 $303 $450 forward 7 unknown #
coedge $-1 $185 $436 $299 $440 forward $180 $-1 #
vertex $-1 $304 $451 #
vertex $-1 $440 $452 #
straight-curve $-1 0 25.251857012928784 -2.7848770002609315 -1 0 0 I I #
face $-1 $-1 $321 $42 $-1 $453 forward single #
loop $-1 $-1 $454 $187 #
plane-surface $-1 -59.129001739555036 0 0 1 0 0 0 0 -1 forward_v I I I I #
coedge $-1 $455 $456 $457 $458 reversed $188 $-1 #
coedge $-1 $459 $190 $192 $319 forward $117 $-1 #
coedge $-1 $190 $459 $455 $460 forward $117 $-1 #
coedge $-1 $457 $193 $190 $316 forward $321 $-1 #
edge $-1 $323 -11.911260451491314 $461 -0.94597097744668979 $315 $462 forward 7 unknown #
coedge $-1 $463 $464 $191 $318 forward $310 $-1 #
edge $-1 $465 -36.553303503780228 $322 -32.083991281711945 $317 $466 forward 7 unknown #
edge $-1 $323 -5.7509301934719623 $465 0 $192 $467 forward 7 unknown #
coedge $-1 $193 $457 $463 $468 forward $321 $-1 #
loop $-1 $-1 $457 $309 #
vertex $-1 $318 $469 #
vertex $-1 $194 $470 #
straight-curve $-1 -75.51636626596428 -18.339876165960316 5.7848770002609342 1 0 0 I I #
coedge $-1 $325 $325 $-1 $471 reversed $197 $-1 #
edge $-1 $472 0 $472 6.2831853071796004 $198 $473 forward 7 unknown #
vertex $-1 $201 $474 #
ellipse-curve $-1 -57.319412949811735 -12.857231428938004 3.5502208892267912 -0.77714596973225614 0 0.62932038083071107 0.62932038083071107 0 0.77714596973225614 1 I I #
face $-1 $-1 $475 $44 $-1 $476 reversed single #
loop $-1 $-1 $208 $202 #
plane-surface $-1 0 0 5.7848770002609315 0 0 1 1 0 0 forward_v I I I I #
coedge $-1 $477 $478 $479 $480 reversed $203 $-1 #
coedge $-1 $481 $205 $207 $339 forward $126 $-1 #
coedge $-1 $205 $481 $477 $482 forward $126 $-1 #
coedge $-1 $479 $208 $205 $336 forward $330 $-1 #
edge $-1 $342 4.409098044031361 $483 10.756884762629756 $335 $484 forward 7 unknown #
coedge $-1 $485 $486 $206 $338 forward $475 $-1 #
edge $-1 $487 -82.646774963863592 $341 -78.403026985048996 $337 $488 forward 7 unknown #
edge $-1 $342 112.63498232843766 $487 118.25800347911009 $207 $489 forward 7 unknown #
coedge $-1 $208 $479 $485 $490 forward $330 $-1 #
vertex $-1 $338 $491 #
vertex $-1 $209 $492 #
straight-curve $-1 35.39761053908363 -11.99208944736192 5.7848770002609342 -1 0 0 I I #
coedge $-1 $344 $344 $-1 $493 reversed $212 $-1 #
edge $-1 $494 0 $494 6.2831853071796004 $213 $495 forward 7 unknown #
vertex $-1 $216 $496 #
ellipse-curve $-1 57.28448486831094 -17.070318822240637 3.663003010853644 0.75470958851134928 0 0.65605901945558964 0.32802950972779482 0 -0.37735479425567464 1 I I #
coedge $-1 $348 $348 $-1 $497 reversed $219 $-1 #
edge $-1 $498 0 $498 6.2831853071796004 $220 $499 forward 7 unknown #
vertex $-1 $223 $500 #
ellipse-curve $-1 57.28448486831094 -15.165982806661118 3.663003010853644 0.75470958851134928 0 0.65605901945558964 0.32802950972779482 0 -0.37735479425567464 1 I I #
coedge $-1 $352 $352 $-1 $501 reversed $226 $-1 #
edge $-1 $502 0 $502 6.2831853071796004 $227 $503 forward 7 unknown #
vertex $-1 $230 $504 #
ellipse-curve $-1 57.28448486831094 -13.261646791081599 3.663003010853644 0.75470958851134928 0 0.65605901945558964 0.32802950972779482 0 -0.37735479425567464 1 I I #
face $-1 $-1 $368 $48 $-1 $505 forward single #
loop $-1 $-1 $506 $231 #
plane-surface $-1 59.129001739555036 0 0 -1 0 0 0 0 1 forward_v I I I I #
coedge $-1 $507 $508 $509 $510 reversed $232 $-1 #
coedge $-1 $511 $234 $236 $366 forward $145 $-1 #
coedge $-1 $234 $511 $507 $512 forward $145 $-1 #
coedge $-1 $509 $237 $234 $363 forward $368 $-1 #
edge $-1 $370 -10.756884762629754 $513 -4.4090980440313601 $362 $514 forward 7 unknown #
coedge $-1 $515 $516 $235 $365 forward $357 $-1 #
edge $-1 $517 -82.646774963863592 $369 -78.403026985048996 $364 $518 forward 7 unknown #
edge $-1 $370 112.63498232843766 $517 118.25800347911009 $236 $519 forward 7 unknown #
coedge $-1 $237 $509 $515 $520 forward $368 $-1 #
loop $-1 $-1 $509 $356 #
vertex $-1 $365 $521 #
vertex $-1 $238 $522 #
straight-curve $-1 35.39761053908363 18.339876165960312 5.7848770002609342 -1 0 0 I I #
coedge $-1 $372 $372 $-1 $523 reversed $241 $-1 #
edge $-1 $524 0 $524 6.2831853071796004 $242 $525 forward 7 unknown #
vertex $-1 $245 $526 #
ellipse-curve $-1 57.28448486831094 13.261646791081599 3.663003010853644 0.75470958851134928 0 0.65605901945558964 0.32802950972779482 0 -0.37735479425567464 1 I I #
coedge $-1 $376 $376 $-1 $527 reversed $248 $-1 #
edge $-1 $528 0 $528 6.2831853071796004 $249 $529 forward 7 unknown #
vertex $-1 $252 $530 #
ellipse-curve $-1 57.28448486831094 15.165982806661116 3.663003010853644 0.75470958851134928 0 0.65605901945558964 0.32802950972779482 0 -0.37735479425567464 1 I I #
coedge $-1 $380 $380 $-1 $531 reversed $255 $-1 #
edge $-1 $532 0 $532 6.2831853071796004 $256 $533 forward 7 unknown #
vertex $-1 $259 $534 #
ellipse-curve $-1 57.28448486831094 17.070318822240633 3.663003010853644 0.75470958851134928 0 0.65605901945558964 0.32802950972779482 0 -0.37735479425567464 1 I I #
face $-1 $-1 $275 $39 $-1 $535 reversed single #
loop $-1 $-1 $400 $260 #
plane-surface $-1 0 25.251857012928784 0 0 -1 0 0 0 -1 forward_v I I I I #
coedge $-1 $536 $398 $401 $537 forward $261 $-1 #
coedge $-1 $404 $263 $264 $392 reversed $164 $-1 #
coedge $-1 $398 $536 $263 $390 reversed $261 $-1 #
edge $-1 $405 -5.7848770002609315 $538 5.7848770002609315 $389 $539 forward 7 unknown #
coedge $-1 $265 $264 $536 $540 forward $105 $-1 #
edge $-1 $396 -59.129001739555036 $538 59.129001739555036 $388 $541 forward 7 unknown #
coedge $-1 $401 $400 $265 $394 reversed $385 $-1 #
edge $-1 $542 -59.129001739555036 $395 59.129001739555036 $393 $543 forward 7 unknown #
vertex $-1 $267 $544 #
vertex $-1 $407 $545 #
straight-curve $-1 59.129001739555036 0 -5.7848770002609315 0 -1 0 I I #
coedge $-1 $387 $389 $268 $399 reversed $261 $-1 #
edge $-1 $402 -25.251857012928784 $405 25.251857012928784 $398 $546 forward 7 unknown #
coedge $-1 $393 $269 $274 $408 forward $385 $-1 #
coedge $-1 $269 $393 $387 $537 reversed $385 $-1 #
vertex $-1 $270 $547 #
straight-curve $-1 0 25.251857012928784 5.7848770002609315 -1 0 0 I I #
coedge $-1 $271 $388 $273 $407 reversed $164 $-1 #
vertex $-1 $399 $548 #
straight-curve $-1 0 -25.251857012928784 5.7848770002609315 1 0 0 I I #
edge $-1 $276 -5.7848770002609315 $396 5.7848770002609315 $273 $549 forward 7 unknown #
edge $-1 $277 -5.7848770002609315 $395 5.7848770002609315 $274 $550 forward 7 unknown #
point $-1 59.129001739555036 -25.251857012928784 5.7848770002609315 #
point $-1 59.129001739555036 25.251857012928784 5.7848770002609315 #
face $-1 $-1 $425 $40 $-1 $551 reversed single #
loop $-1 $-1 $552 $279 #
plane-surface $-1 0 -32.163837859897257 -4.2848770002609315 0 1 0 0 0 1 forward_v I I I I #
coedge $-1 $553 $282 $291 $429 reversed $172 $-1 #
coedge $-1 $282 $553 $283 $417 reversed $172 $-1 #
coedge $-1 $284 $283 $554 $555 forward $109 $-1 #
edge $-1 $421 25.251857012928784 $556 32.163837859897257 $415 $557 forward 7 unknown #
coedge $-1 $558 $288 $284 $419 reversed $425 $-1 #
edge $-1 $559 -32.163837859897257 $420 -25.251857012928784 $418 $560 forward 7 unknown #
vertex $-1 $289 $561 #
vertex $-1 $417 $562 #
straight-curve $-1 0 -25.251857012928784 -5.7848770002609315 1 0 0 I I #
straight-curve $-1 59.129001739555036 -25.251857012928784 0 0 0 1 I I #
coedge $-1 $288 $558 $290 $428 reversed $425 $-1 #
loop $-1 $-1 $288 $411 #
straight-curve $-1 -59.129001739555036 -25.251857012928784 0 0 0 -1 I I #
coedge $-1 $291 $290 $563 $564 forward $280 $-1 #
edge $-1 $292 -3.4559904234842342 $565 3.4559904234842378 $424 $566 forward 7 unknown #
edge $-1 $567 -3.4559904234842378 $293 3.4559904234842342 $414 $568 forward 7 unknown #
point $-1 -59.129001739555036 -25.251857012928784 -2.7848770002609315 #
point $-1 59.129001739555036 -25.251857012928784 -2.7848770002609315 #
face $-1 $-1 $448 $41 $-1 $569 reversed single #
loop $-1 $-1 $445 $295 #
plane-surface $-1 0 0 -5.7848770002609315 0 0 1 1 0 0 forward_v I I I I #
coedge $-1 $570 $571 $572 $573 forward $296 $-1 #
coedge $-1 $305 $298 $571 $574 forward $180 $-1 #
coedge $-1 $303 $572 $298 $438 reversed $448 $-1 #
edge $-1 $306 -3.4559904234842342 $575 3.4559904234842342 $437 $576 forward 7 unknown #
coedge $-1 $300 $299 $577 $578 forward $113 $-1 #
edge $-1 $579 -3.4559904234842342 $307 3.4559904234842342 $299 $580 forward 7 unknown #
coedge $-1 $581 $445 $300 $442 forward $433 $-1 #
edge $-1 $443 -3.4559904234842307 $582 3.4559904234842342 $300 $583 forward 7 unknown #
vertex $-1 $442 $584 #
straight-curve $-1 -59.129001739555036 25.251857012928784 0 0 0 1 I I #
coedge $-1 $441 $585 $302 $446 forward $433 $-1 #
edge $-1 $449 -59.129001739555036 $443 59.129001739555036 $445 $586 forward 7 unknown #
coedge $-1 $572 $303 $585 $587 reversed $448 $-1 #
loop $-1 $-1 $303 $432 #
vertex $-1 $304 $588 #
straight-curve $-1 59.129001739555036 25.251857012928784 0 0 0 -1 I I #
point $-1 59.129001739555036 25.251857012928781 -2.7848770002609315 #
point $-1 -59.129001739555036 25.251857012928781 -2.7848770002609315 #
plane-surface $-1 0 0 5.7848770002609315 0 0 1 1 0 0 forward_v I I I I #
coedge $-1 $464 $463 $456 $589 forward $310 $-1 #
coedge $-1 $456 $312 $314 $460 reversed $188 $-1 #
coedge $-1 $312 $455 $454 $589 reversed $188 $-1 #
coedge $-1 $320 $315 $312 $458 forward $321 $-1 #
edge $-1 $461 -20.006542105895853 $590 -16.387364526409243 $457 $591 forward 7 unknown #
coedge $-1 $314 $313 $464 $592 reversed $117 $-1 #
edge $-1 $593 0 $461 5.7509301934719623 $455 $594 forward 7 unknown #
vertex $-1 $316 $595 #
straight-curve $-1 -55.509824160068426 -6.4286157144690019 5.7848770002609307 0 1 0 I I #
coedge $-1 $454 $317 $320 $468 reversed $310 $-1 #
coedge $-1 $317 $454 $459 $592 forward $310 $-1 #
vertex $-1 $318 $596 #
straight-curve $-1 -59.129001739555036 -18.339876165960316 37.86886828197288 0 0 1 I I #
straight-curve $-1 -59.129001739555036 -18.339876165960316 1.3155647781926518 -0.62932038083071107 0 -0.77714596973225614 I I #
edge $-1 $590 7.3745866919156917 $322 18.339876165960316 $463 $597 forward 7 unknown #
point $-1 -59.129001739555036 -18.339876165960316 5.7848770002609315 #
point $-1 -55.509824160068426 -18.339876165960316 5.7848770002609315 #
edge $-1 $598 1 $598 0 $325 $-1 forward 7 unknown #
vertex $-1 $326 $599 #
ellipse-curve $-1 -55.304933527492068 -12.857231428938004 1.918927661692444 -0.77714596973225614 0 0.62932038083071107 0.62932038083071107 0 0.77714596973225614 1 I I #
point $-1 -56.690092568981022 -12.857231428938004 4.3273668589590519 #
loop $-1 $-1 $337 $329 #
plane-surface $-1 59.129001739555036 0 0 -1 0 0 0 0 1 forward_v I I I I #
coedge $-1 $478 $332 $334 $482 reversed $203 $-1 #
coedge $-1 $332 $477 $600 $601 reversed $203 $-1 #
coedge $-1 $340 $335 $332 $480 forward $330 $-1 #
edge $-1 $483 20.042357457983215 $602 23.731391200471407 $479 $603 forward 7 unknown #
coedge $-1 $334 $333 $486 $604 reversed $126 $-1 #
edge $-1 $605 -118.25800347911009 $483 -112.63498232843766 $477 $606 forward 7 unknown #
vertex $-1 $336 $607 #
straight-curve $-1 55.439967997066844 -7.582991403330559 5.7848770002609271 0 -1 0 I I #
coedge $-1 $600 $337 $340 $490 reversed $475 $-1 #
coedge $-1 $337 $600 $481 $604 forward $475 $-1 #
vertex $-1 $338 $608 #
straight-curve $-1 59.129001739555036 -11.99208944736192 84.18790398530993 0 0 1 I I #
straight-curve $-1 -18.45522806572562 -11.99208944736192 90.791578165339203 0.65605901945558964 0 -0.75470958851134928 I I #
edge $-1 $602 -18.339876165960316 $341 -11.99208944736192 $485 $609 forward 7 unknown #
point $-1 59.129001739555036 -11.99208944736192 5.7848770002609315 #
point $-1 55.439967997066844 -11.99208944736192 5.7848770002609342 #
edge $-1 $610 1 $610 0 $344 $-1 forward 7 unknown #
vertex $-1 $345 $611 #
ellipse-curve $-1 56.446247513365783 -17.070318822240637 2.9343344136504479 0.75470958851134928 0 0.65605901945558964 0.32802950972779482 0 -0.37735479425567464 1 I I #
point $-1 57.612514378038725 -17.070318822240637 3.2856482165979655 #
edge $-1 $612 1 $612 0 $348 $-1 forward 7 unknown #
vertex $-1 $349 $613 #
ellipse-curve $-1 56.446247513365783 -15.165982806661118 2.9343344136504479 0.75470958851134928 0 0.65605901945558964 0.32802950972779482 0 -0.37735479425567464 1 I I #
point $-1 57.612514378038725 -15.165982806661118 3.2856482165979655 #
edge $-1 $614 1 $614 0 $352 $-1 forward 7 unknown #
vertex $-1 $353 $615 #
ellipse-curve $-1 56.446247513365783 -13.261646791081599 2.9343344136504479 0.75470958851134928 0 0.65605901945558964 0.32802950972779482 0 -0.37735479425567464 1 I I #
point $-1 57.612514378038725 -13.261646791081599 3.2856482165979655 #
plane-surface $-1 0 0 5.7848770002609315 0 0 1 1 0 0 forward_v I I I I #
coedge $-1 $516 $515 $508 $616 forward $357 $-1 #
coedge $-1 $508 $359 $361 $512 reversed $232 $-1 #
coedge $-1 $359 $507 $506 $616 reversed $232 $-1 #
coedge $-1 $367 $362 $359 $510 forward $368 $-1 #
edge $-1 $513 20.042357457983215 $617 23.731391200471407 $509 $618 forward 7 unknown #
coedge $-1 $361 $360 $516 $619 reversed $145 $-1 #
edge $-1 $620 -118.25800347911009 $513 -112.63498232843766 $507 $621 forward 7 unknown #
vertex $-1 $363 $622 #
straight-curve $-1 55.439967997066844 7.5829914033305581 5.7848770002609271 0 -1 0 I I #
coedge $-1 $506 $364 $367 $520 reversed $357 $-1 #
coedge $-1 $364 $506 $511 $619 forward $357 $-1 #
vertex $-1 $365 $623 #
straight-curve $-1 59.129001739555036 18.339876165960312 84.18790398530993 0 0 1 I I #
straight-curve $-1 -18.45522806572562 18.339876165960312 90.791578165339203 0.65605901945558964 0 -0.75470958851134928 I I #
edge $-1 $617 11.992089447361918 $369 18.339876165960312 $515 $624 forward 7 unknown #
point $-1 59.129001739555036 18.339876165960312 5.7848770002609315 #
point $-1 55.439967997066844 18.339876165960312 5.7848770002609342 #
edge $-1 $625 1 $625 0 $372 $-1 forward 7 unknown #
vertex $-1 $373 $626 #
ellipse-curve $-1 56.446247513365783 13.261646791081599 2.9343344136504479 0.75470958851134928 0 0.65605901945558964 0.32802950972779482 0 -0.37735479425567464 1 I I #
point $-1 57.612514378038725 13.261646791081599 3.2856482165979655 #
edge $-1 $627 1 $627 0 $376 $-1 forward 7 unknown #
vertex $-1 $377 $628 #
ellipse-curve $-1 56.446247513365783 15.165982806661116 2.9343344136504479 0.75470958851134928 0 0.65605901945558964 0.32802950972779482 0 -0.37735479425567464 1 I I #
point $-1 57.612514378038725 15.165982806661116 3.2856482165979655 #
edge $-1 $629 1 $629 0 $380 $-1 forward 7 unknown #
vertex $-1 $381 $630 #
ellipse-curve $-1 56.446247513365783 17.070318822240633 2.9343344136504479 0.75470958851134928 0 0.65605901945558964 0.32802950972779482 0 -0.37735479425567464 1 I I #
point $-1 57.612514378038725 17.070318822240633 3.2856482165979655 #
plane-surface $-1 59.129001739555036 0 0 -1 0 0 0 0 1 forward_v I I I I #
coedge $-1 $389 $387 $391 $540 reversed $261 $-1 #
edge $-1 $402 -5.7848770002609315 $542 5.7848770002609315 $401 $631 forward 7 unknown #
vertex $-1 $540 $632 #
straight-curve $-1 -59.129001739555036 -25.251857012928784 0 0 0 -1 I I #
edge $-1 $538 -25.251857012928784 $542 25.251857012928784 $536 $633 forward 7 unknown #
straight-curve $-1 0 -25.251857012928784 -5.7848770002609315 -1 0 0 I I #
vertex $-1 $394 $634 #
straight-curve $-1 0 25.251857012928784 -5.7848770002609315 1 0 0 I I #
point $-1 59.129001739555036 25.251857012928784 -5.7848770002609315 #
point $-1 59.129001739555036 -25.251857012928784 -5.7848770002609315 #
straight-curve $-1 -59.129001739555036 0 5.7848770002609315 0 -1 0 I I #
point $-1 -59.129001739555036 25.251857012928784 5.7848770002609315 #
point $-1 -59.129001739555036 -25.251857012928784 5.7848770002609315 #
straight-curve $-1 59.129001739555036 -25.251857012928784 0 0 0 -1 I I #
straight-curve $-1 59.129001739555036 25.251857012928784 0 0 0 -1 I I #
plane-surface $-1 -59.129001739555036 0 0 1 0 0 0 0 -1 forward_v I I I I #
coedge $-1 $554 $563 $558 $635 forward $412 $-1 #
coedge $-1 $415 $414 $636 $637 forward $172 $-1 #
coedge $-1 $636 $552 $416 $555 reversed $412 $-1 #
edge $-1 $556 -59.129001739555036 $559 59.129001739555036 $554 $638 forward 7 unknown #
vertex $-1 $637 $639 #
straight-curve $-1 59.129001739555036 0 -5.7848770002609315 0 -1 0 I I #
coedge $-1 $424 $418 $552 $635 reversed $425 $-1 #
vertex $-1 $419 $640 #
straight-curve $-1 -59.129001739555036 0 -5.7848770002609315 0 1 0 I I #
point $-1 -59.129001739555036 -25.251857012928784 -5.7848770002609315 #
point $-1 59.129001739555036 -25.251857012928784 -5.7848770002609315 #
coedge $-1 $552 $636 $427 $564 reversed $412 $-1 #
edge $-1 $565 -59.129001739555036 $567 59.129001739555036 $563 $641 forward 7 unknown #
vertex $-1 $428 $642 #
straight-curve $-1 -59.129001739555036 -28.707847436413019 -2.7848770002609315 0 -1 0 I I #
vertex $-1 $429 $643 #
straight-curve $-1 59.129001739555036 -28.707847436413019 -2.7848770002609315 0 1 0 I I #
plane-surface $-1 59.129001739555036 0 0 -1 0 0 0 0 1 forward_v I I I I #
coedge $-1 $577 $435 $581 $644 reversed $296 $-1 #
coedge $-1 $435 $577 $436 $574 reversed $296 $-1 #
coedge $-1 $437 $447 $435 $573 reversed $448 $-1 #
edge $-1 $575 -1.5 $645 1.5 $572 $646 forward 7 unknown #
edge $-1 $575 -59.129001739555036 $579 59.129001739555036 $571 $647 forward 7 unknown #
vertex $-1 $438 $648 #
straight-curve $-1 59.129001739555036 28.707847436413015 -2.7848770002609315 0 1 0 I I #
coedge $-1 $571 $570 $439 $578 reversed $296 $-1 #
edge $-1 $579 -1.5 $582 1.5 $577 $649 forward 7 unknown #
vertex $-1 $574 $650 #
straight-curve $-1 -59.129001739555036 28.707847436413015 -2.7848770002609315 0 -1 0 I I #
coedge $-1 $585 $441 $570 $644 forward $433 $-1 #
vertex $-1 $644 $651 #
straight-curve $-1 -59.129001739555036 28.707847436413015 -5.7848770002609315 0 1 0 I I #
point $-1 -59.129001739555036 25.251857012928784 -5.7848770002609315 #
coedge $-1 $445 $581 $447 $587 forward $433 $-1 #
straight-curve $-1 0 25.251857012928784 -5.7848770002609315 -1 0 0 I I #
edge $-1 $645 -32.163837859897249 $449 -25.251857012928784 $447 $652 forward 7 unknown #
point $-1 59.129001739555036 25.251857012928784 -5.7848770002609315 #
edge $-1 $590 32.083991281711945 $593 36.553303503780228 $454 $653 forward 7 unknown #
vertex $-1 $468 $654 #
straight-curve $-1 -75.51636626596428 -7.3745866919156917 5.7848770002609342 -1 0 0 I I #
edge $-1 $593 0.94597097744668979 $465 11.911260451491314 $464 $655 forward 7 unknown #
vertex $-1 $592 $656 #
straight-curve $-1 -59.129001739555036 -7.3745866919156917 1.3155647781926518 0.62932038083071107 0 0.77714596973225614 I I #
point $-1 -55.509824160068426 -7.3745866919156917 5.7848770002609315 #
point $-1 -59.129001739555036 -18.339876165960316 1.3155647781926518 #
straight-curve $-1 -59.129001739555036 0 5.7848770002609315 0 -1 0 I I #
vertex $-1 $471 $657 #
point $-1 -54.675613146661355 -12.857231428938004 2.6960736314247002 #
coedge $-1 $486 $485 $478 $601 forward $475 $-1 #
edge $-1 $602 78.403026985048996 $605 82.646774963863592 $600 $658 forward 7 unknown #
vertex $-1 $490 $659 #
straight-curve $-1 35.39761053908363 -18.339876165960316 5.7848770002609342 1 0 0 I I #
edge $-1 $605 -10.756884762629756 $487 -4.409098044031361 $486 $660 forward 7 unknown #
vertex $-1 $604 $661 #
straight-curve $-1 -18.45522806572562 -18.339876165960316 90.791578165339203 -0.65605901945558964 0 0.75470958851134928 I I #
point $-1 55.439967997066844 -18.339876165960316 5.7848770002609342 #
point $-1 59.129001739555036 -11.99208944736192 1.5411290214463378 #
straight-curve $-1 59.129001739555036 0 5.7848770002609315 0 1 0 I I #
vertex $-1 $493 $662 #
point $-1 56.774277023093575 -17.070318822240637 2.5569796193947734 #
vertex $-1 $497 $663 #
point $-1 56.774277023093575 -15.165982806661118 2.5569796193947734 #
vertex $-1 $501 $664 #
point $-1 56.774277023093575 -13.261646791081599 2.5569796193947734 #
edge $-1 $617 78.403026985048996 $620 82.646774963863592 $506 $665 forward 7 unknown #
vertex $-1 $520 $666 #
straight-curve $-1 35.39761053908363 11.992089447361918 5.7848770002609342 1 0 0 I I #
edge $-1 $620 4.4090980440313601 $517 10.756884762629754 $516 $667 forward 7 unknown #
vertex $-1 $619 $668 #
straight-curve $-1 -18.45522806572562 11.992089447361918 90.791578165339203 -0.65605901945558964 0 0.75470958851134928 I I #
point $-1 55.439967997066844 11.992089447361918 5.7848770002609342 #
point $-1 59.129001739555036 18.339876165960312 1.5411290214463378 #
straight-curve $-1 59.129001739555036 0 5.7848770002609315 0 1 0 I I #
vertex $-1 $523 $669 #
point $-1 56.774277023093575 13.261646791081599 2.5569796193947734 #
vertex $-1 $527 $670 #
point $-1 56.774277023093575 15.165982806661116 2.5569796193947734 #
vertex $-1 $531 $671 #
point $-1 56.774277023093575 17.070318822240633 2.5569796193947734 #
straight-curve $-1 -59.129001739555036 25.251857012928784 0 0 0 -1 I I #
point $-1 -59.129001739555036 -25.251857012928784 -5.7848770002609315 #
straight-curve $-1 -59.129001739555036 0 -5.7848770002609315 0 1 0 I I #
point $-1 -59.129001739555036 25.251857012928784 -5.7848770002609315 #
edge $-1 $565 -1.5 $559 1.5 $558 $672 forward 7 unknown #
coedge $-1 $563 $554 $553 $637 reversed $412 $-1 #
edge $-1 $567 -1.5 $556 1.5 $553 $673 forward 7 unknown #
straight-curve $-1 0 -32.163837859897257 -5.7848770002609315 -1 0 0 I I #
point $-1 59.129001739555036 -32.163837859897257 -5.7848770002609315 #
point $-1 -59.129001739555036 -32.163837859897257 -5.7848770002609315 #
straight-curve $-1 0 -32.163837859897257 -2.7848770002609315 1 0 0 I I #
point $-1 -59.129001739555036 -32.163837859897257 -2.7848770002609315 #
point $-1 59.129001739555036 -32.163837859897257 -2.7848770002609315 #
edge $-1 $582 -59.129001739555036 $645 59.129001739555036 $570 $674 forward 7 unknown #
vertex $-1 $587 $675 #
straight-curve $-1 59.129001739555036 32.163837859897249 -4.2848770002609315 0 0 -1 I I #
straight-curve $-1 0 32.163837859897249 -2.7848770002609315 -1 0 0 I I #
point $-1 59.129001739555036 32.163837859897249 -2.7848770002609315 #
straight-curve $-1 -59.129001739555036 32.163837859897249 -4.2848770002609315 0 0 -1 I I #
point $-1 -59.129001739555036 32.163837859897249 -2.7848770002609315 #
point $-1 -59.129001739555036 32.163837859897249 -5.7848770002609315 #
straight-curve $-1 59.129001739555036 0 -5.7848770002609315 0 -1 0 I I #
straight-curve $-1 -59.129001739555036 -7.3745866919156917 37.86886828197288 0 0 -1 I I #
point $-1 -59.129001739555036 -7.3745866919156917 5.7848770002609315 #
straight-curve $-1 -59.129001739555036 -6.4286157144690019 1.3155647781926523 0 -1 0 I I #
point $-1 -59.129001739555036 -7.3745866919156917 1.3155647781926518 #
point $-1 -54.527787557759808 -12.857231428938004 1.2896072808617332 #
straight-curve $-1 59.129001739555036 -18.339876165960316 84.18790398530993 0 0 -1 I I #
point $-1 59.129001739555036 -18.339876165960316 5.7848770002609315 #
straight-curve $-1 59.129001739555036 -7.582991403330559 1.5411290214463378 0 1 0 I I #
point $-1 59.129001739555036 -18.339876165960316 1.5411290214463378 #
point $-1 56.068892719110103 -17.070318822240637 2.6063049039226529 #
point $-1 56.068892719110103 -15.165982806661118 2.6063049039226529 #
point $-1 56.068892719110103 -13.261646791081599 2.6063049039226529 #
straight-curve $-1 59.129001739555036 11.992089447361918 84.18790398530993 0 0 -1 I I #
point $-1 59.129001739555036 11.992089447361918 5.7848770002609315 #
straight-curve $-1 59.129001739555036 7.5829914033305581 1.5411290214463378 0 1 0 I I #
point $-1 59.129001739555036 11.992089447361918 1.5411290214463378 #
point $-1 56.068892719110103 13.261646791081599 2.6063049039226529 #
point $-1 56.068892719110103 15.165982806661116 2.6063049039226529 #
point $-1 56.068892719110103 17.070318822240633 2.6063049039226529 #
straight-curve $-1 -59.129001739555036 -32.163837859897257 -4.2848770002609315 0 0 -1 I I #
straight-curve $-1 59.129001739555036 -32.163837859897257 -4.2848770002609315 0 0 -1 I I #
straight-curve $-1 0 32.163837859897249 -5.7848770002609315 1 0 0 I I #
point $-1 59.129001739555036 32.163837859897249 -5.7848770002609315 #
End-of-ACIS-data 