500 0 10 0           
7 Unknown 11 ACIS 5.0 NT 24 Thu Mar 25 15:41:43 1999 
-1 9.9999999999999995e-007 1e-010 
body $-1 $10 $-1 $11 #
body $-1 $12 $-1 $13 #
body $-1 $14 $-1 $15 #
body $-1 $16 $-1 $17 #
body $-1 $18 $-1 $19 #
body $-1 $20 $-1 $21 #
body $-1 $22 $-1 $23 #
body $-1 $24 $-1 $25 #
body $-1 $26 $-1 $27 #
body $-1 $28 $-1 $29 #
lump $-1 $-1 $30 $0 #
transform $-1 1 0 0 0 1 0 0 0 1 52.214728232673117 21.298930556898981 8.2195268617236543 1 rotate no_reflect no_shear #
lump $-1 $-1 $31 $1 #
transform $-1 1 0 0 0 1 0 0 0 1 52.214728232673117 21.298930556898981 8.2195268617236543 1 rotate no_reflect no_shear #
lump $-1 $-1 $32 $2 #
transform $-1 1 0 0 0 1 0 0 0 1 52.214728232673117 21.298930556898981 8.2195268617236543 1 rotate no_reflect no_shear #
lump $-1 $-1 $33 $3 #
transform $-1 1 0 0 0 1 0 0 0 1 52.214728232673117 21.298930556898981 8.2195268617236543 1 rotate no_reflect no_shear #
lump $-1 $-1 $34 $4 #
transform $-1 1 0 0 0 1 0 0 0 1 52.214728232673117 21.298930556898981 8.2195268617236543 1 rotate no_reflect no_shear #
lump $-1 $-1 $35 $5 #
transform $-1 1 0 0 0 1 0 0 0 1 52.214728232673117 21.298930556898981 8.2195268617236543 1 rotate no_reflect no_shear #
lump $-1 $-1 $36 $6 #
transform $-1 1 0 0 0 1 0 0 0 1 52.214728232673117 21.298930556898981 8.2195268617236543 1 rotate no_reflect no_shear #
lump $-1 $-1 $37 $7 #
transform $-1 1 0 0 0 1 0 0 0 1 52.214728232673117 21.298930556898981 8.2195268617236543 1 rotate no_reflect no_shear #
lump $-1 $-1 $38 $8 #
transform $-1 1 0 0 0 1 0 0 0 1 52.214728232673117 21.298930556898981 8.2195268617236543 1 rotate no_reflect no_shear #
lump $-1 $-1 $39 $9 #
transform $-1 1 0 0 0 1 0 0 0 1 52.214728232673117 21.298930556898981 8.2195268617236543 1 rotate no_reflect no_shear #
shell $-1 $-1 $-1 $40 $-1 $10 #
shell $-1 $-1 $-1 $41 $-1 $12 #
shell $-1 $-1 $-1 $42 $-1 $14 #
shell $-1 $-1 $-1 $43 $-1 $16 #
shell $-1 $-1 $-1 $44 $-1 $18 #
shell $-1 $-1 $-1 $45 $-1 $20 #
shell $-1 $-1 $-1 $46 $-1 $22 #
shell $-1 $-1 $-1 $47 $-1 $24 #
shell $-1 $-1 $-1 $48 $-1 $26 #
shell $-1 $-1 $-1 $49 $-1 $28 #
face $-1 $50 $51 $30 $-1 $52 forward single #
face $-1 $53 $54 $31 $-1 $55 forward single #
face $-1 $56 $57 $32 $-1 $58 forward single #
face $-1 $59 $60 $33 $-1 $61 reversed single #
face $-1 $62 $63 $34 $-1 $64 forward single #
face $-1 $65 $66 $35 $-1 $67 forward single #
face $-1 $68 $69 $36 $-1 $70 forward single #
face $-1 $71 $72 $37 $-1 $73 reversed single #
face $-1 $74 $75 $38 $-1 $76 forward single #
face $-1 $77 $78 $39 $-1 $79 forward single #
face $-1 $80 $81 $30 $-1 $82 reversed single #
loop $-1 $-1 $83 $40 #
plane-surface $-1 0 0 8.2195268617236543 0 0 1 1 0 0 forward_v I I I I #
face $-1 $84 $85 $31 $-1 $86 reversed single #
loop $-1 $-1 $87 $41 #
plane-surface $-1 0 -16.558962428179299 7.5054733160062614 0 0 1 1 0 0 forward_v I I I I #
face $-1 $88 $89 $32 $-1 $90 reversed single #
loop $-1 $-1 $91 $42 #
plane-surface $-1 0 16.558962428179299 7.5054733160062614 0 0 1 1 0 0 forward_v I I I I #
face $-1 $92 $93 $33 $-1 $94 reversed single #
loop $-1 $-1 $95 $43 #
plane-surface $-1 67.652074133331183 5.7087121840597774 151.5608216630479 0 1 0 0.77714596973225614 0 0.62932038083071107 forward_v I I I I #
face $-1 $96 $97 $34 $-1 $98 forward single #
loop $-1 $99 $100 $44 #
cone-surface $-1 50.394772233032477 6.930768607139747 6.1372558089255387 -0.77714596973225614 0 -0.62932038083071107 0.31466019041535553 0 -0.38857298486612807 1 I I 0 1 0.5 forward I I I I #
face $-1 $101 $102 $35 $-1 $103 forward single #
loop $-1 $104 $105 $45 #
cone-surface $-1 50.394772233032477 8.7638532417596977 6.1372558089255387 -0.77714596973225614 0 -0.62932038083071107 0.31466019041535553 0 -0.38857298486612807 1 I I 0 1 0.5 forward I I I I #
face $-1 $106 $107 $36 $-1 $108 forward single #
loop $-1 $109 $110 $46 #
cone-surface $-1 50.394772233032477 10.596937876379648 6.1372558089255387 -0.77714596973225614 0 -0.62932038083071107 0.31466019041535553 0 -0.38857298486612807 1 I I 0 1 0.5 forward I I I I #
face $-1 $111 $112 $37 $-1 $113 reversed single #
loop $-1 $-1 $114 $47 #
plane-surface $-1 -119.34068975994319 8.5454144955335423 83.898191742326873 0 -1 0 0.64278761758704617 0 -0.76604443648966558 forward_v I I I I #
face $-1 $115 $116 $38 $-1 $117 forward single #
loop $-1 $118 $119 $48 #
cone-surface $-1 -49.319778793903083 3.810092534790968 5.677035018321317 0.64278761758704617 0 -0.76604443648966558 0.38302221824483279 0 0.32139380879352308 1 I I 0 1 0.5 forward I I I I #
face $-1 $120 $121 $39 $-1 $122 forward single #
loop $-1 $123 $124 $49 #
cone-surface $-1 -49.319778793903083 6.6512857112365111 5.677035018321317 0.64278761758704617 0 -0.76604443648966558 0.38302221824483279 0 0.32139380879352308 1 I I 0 1 0.5 forward I I I I #
face $-1 $125 $126 $30 $-1 $127 reversed single #
loop $-1 $-1 $128 $50 #
plane-surface $-1 0 0 -8.2195268617236543 0 0 1 1 0 0 forward_v I I I I #
coedge $-1 $129 $130 $131 $132 forward $51 $-1 #
face $-1 $133 $134 $31 $-1 $135 reversed single #
loop $-1 $-1 $136 $53 #
plane-surface $-1 0 -16.558962428179299 4.5054733160062614 0 0 1 1 0 0 forward_v I I I I #
coedge $-1 $137 $138 $139 $140 reversed $54 $-1 #
face $-1 $141 $142 $32 $-1 $143 reversed single #
loop $-1 $-1 $144 $56 #
plane-surface $-1 0 16.558962428179299 4.5054733160062614 0 0 1 1 0 0 forward_v I I I I #
coedge $-1 $145 $146 $147 $148 reversed $57 $-1 #
face $-1 $149 $150 $33 $-1 $151 forward single #
loop $-1 $-1 $152 $59 #
plane-surface $-1 -13.50485708004274 8.7638532417596977 85.841236350332053 0.77714596973225614 0 0.62932038083071107 0.62932038083071107 0 -0.77714596973225614 forward_v I I I I #
coedge $-1 $153 $154 $155 $156 reversed $60 $-1 #
face $-1 $-1 $157 $34 $-1 $158 forward single #
loop $-1 $159 $160 $62 #
cone-surface $-1 49.811912755733282 6.930768607139747 5.6652655233025051 -0.77714596973225614 0 -0.62932038083071107 0.15733009520767777 0 -0.19428649243306403 1 I I -0.70710678118654746 0.70710678118654746 0.25 forward I I I I #
loop $-1 $-1 $161 $44 #
coedge $-1 $100 $100 $162 $163 reversed $63 $-1 #
face $-1 $-1 $164 $35 $-1 $165 forward single #
loop $-1 $166 $167 $65 #
cone-surface $-1 49.811912755733282 8.7638532417596977 5.6652655233025051 -0.77714596973225614 0 -0.62932038083071107 0.15733009520767777 0 -0.19428649243306403 1 I I -0.70710678118654746 0.70710678118654746 0.25 forward I I I I #
loop $-1 $-1 $168 $45 #
coedge $-1 $105 $105 $169 $170 reversed $66 $-1 #
face $-1 $-1 $171 $36 $-1 $172 forward single #
loop $-1 $173 $174 $68 #
cone-surface $-1 49.811912755733282 10.596937876379648 5.6652655233025051 -0.77714596973225614 0 -0.62932038083071107 0.15733009520767777 0 -0.19428649243306403 1 I I -0.70710678118654746 0.70710678118654746 0.25 forward I I I I #
loop $-1 $-1 $175 $46 #
coedge $-1 $110 $110 $176 $177 reversed $69 $-1 #
face $-1 $178 $179 $37 $-1 $180 reversed single #
loop $-1 $-1 $181 $71 #
plane-surface $-1 -52.214728232673124 5.2306891230137396 3.9005876114086533 -0.64278761758704617 0 0.76604443648966558 0.76604443648966558 0 0.64278761758704617 forward_v I I I I #
coedge $-1 $182 $183 $184 $185 reversed $72 $-1 #
face $-1 $-1 $186 $38 $-1 $187 forward single #
loop $-1 $188 $189 $74 #
cone-surface $-1 -48.837688080712802 3.810092534790968 5.1025016909540675 0.64278761758704617 0 -0.76604443648966558 0.1915111091224164 0 0.16069690439676154 1 I I -0.70710678118654746 0.70710678118654746 0.25 forward I I I I #
loop $-1 $-1 $190 $48 #
coedge $-1 $119 $119 $191 $192 reversed $75 $-1 #
face $-1 $-1 $193 $39 $-1 $194 forward single #
loop $-1 $195 $196 $77 #
cone-surface $-1 -48.837688080712802 6.6512857112365111 5.1025016909540675 0.64278761758704617 0 -0.76604443648966558 0.1915111091224164 0 0.16069690439676154 1 I I -0.70710678118654746 0.70710678118654746 0.25 forward I I I I #
loop $-1 $-1 $197 $49 #
coedge $-1 $124 $124 $198 $199 reversed $78 $-1 #
face $-1 $200 $201 $30 $-1 $202 reversed single #
loop $-1 $-1 $203 $80 #
plane-surface $-1 0 -21.298930556898981 0 0 1 0 0 0 1 forward_v I I I I #
coedge $-1 $204 $205 $206 $207 forward $81 $-1 #
coedge $-1 $208 $83 $209 $210 forward $51 $-1 #
coedge $-1 $83 $208 $211 $212 forward $51 $-1 #
coedge $-1 $213 $214 $83 $132 reversed $215 $-1 #
edge $-1 $216 -21.298930556898981 $217 21.298930556898981 $131 $218 forward 7 unknown #
face $-1 $219 $220 $31 $-1 $221 reversed single #
loop $-1 $-1 $222 $84 #
plane-surface $-1 0 -11.818994299459618 6.0054733160062614 0 -1 0 0 0 -1 forward_v I I I I #
coedge $-1 $223 $224 $225 $226 reversed $85 $-1 #
coedge $-1 $227 $87 $228 $229 forward $54 $-1 #
coedge $-1 $87 $227 $230 $231 reversed $54 $-1 #
coedge $-1 $232 $233 $87 $140 forward $234 $-1 #
edge $-1 $235 3.5395130853699683 $236 13.019449342809331 $139 $237 forward 7 unknown #
face $-1 $238 $239 $32 $-1 $240 reversed single #
loop $-1 $-1 $241 $88 #
plane-surface $-1 0 11.818994299459618 6.0054733160062614 0 1 0 0 0 1 forward_v I I I I #
coedge $-1 $242 $243 $244 $245 reversed $89 $-1 #
coedge $-1 $246 $91 $247 $248 reversed $57 $-1 #
coedge $-1 $91 $246 $249 $250 forward $57 $-1 #
coedge $-1 $251 $252 $91 $148 forward $239 $-1 #
edge $-1 $253 -13.019449342809331 $254 -3.5395130853699683 $147 $255 forward 7 unknown #
face $-1 $256 $257 $33 $-1 $258 reversed single #
loop $-1 $-1 $259 $92 #
plane-surface $-1 0 0 8.2195268617236543 0 0 1 1 0 0 forward_v I I I I #
coedge $-1 $260 $261 $262 $263 reversed $93 $-1 #
coedge $-1 $154 $95 $264 $265 reversed $60 $-1 #
coedge $-1 $95 $153 $260 $266 reversed $60 $-1 #
coedge $-1 $262 $267 $95 $156 forward $257 $-1 #
edge $-1 $268 67.560883969800301 $269 71.096105694565821 $155 $270 forward 7 unknown #
loop $-1 $-1 $162 $96 #
plane-surface $-1 -13.50485708004274 8.7638532417596977 85.841236350332053 0.77714596973225614 0 0.62932038083071107 0.62932038083071107 0 -0.77714596973225614 forward_v I I I I #
loop $-1 $-1 $271 $62 #
coedge $-1 $160 $160 $161 $272 reversed $97 $-1 #
coedge $-1 $161 $161 $160 $272 forward $99 $-1 #
coedge $-1 $162 $162 $100 $163 forward $157 $-1 #
edge $-1 $273 0 $273 6.2831853071796004 $162 $274 forward 7 unknown #
loop $-1 $-1 $169 $101 #
plane-surface $-1 -13.50485708004274 8.7638532417596977 85.841236350332053 0.77714596973225614 0 0.62932038083071107 0.62932038083071107 0 -0.77714596973225614 forward_v I I I I #
loop $-1 $-1 $275 $65 #
coedge $-1 $167 $167 $168 $276 reversed $102 $-1 #
coedge $-1 $168 $168 $167 $276 forward $104 $-1 #
coedge $-1 $169 $169 $105 $170 forward $164 $-1 #
edge $-1 $277 0 $277 6.2831853071796004 $169 $278 forward 7 unknown #
loop $-1 $-1 $176 $106 #
plane-surface $-1 -13.50485708004274 8.7638532417596977 85.841236350332053 0.77714596973225614 0 0.62932038083071107 0.62932038083071107 0 -0.77714596973225614 forward_v I I I I #
loop $-1 $-1 $279 $68 #
coedge $-1 $174 $174 $175 $280 reversed $107 $-1 #
coedge $-1 $175 $175 $174 $280 forward $109 $-1 #
coedge $-1 $176 $176 $110 $177 forward $171 $-1 #
edge $-1 $281 0 $281 6.2831853071796004 $176 $282 forward 7 unknown #
face $-1 $283 $284 $37 $-1 $285 reversed single #
loop $-1 $-1 $286 $111 #
plane-surface $-1 -119.34068975994319 1.9159637504939369 83.898191742326873 0 1 0 -0.64278761758704617 0 0.76604443648966558 forward_v I I I I #
coedge $-1 $287 $288 $289 $290 reversed $112 $-1 #
coedge $-1 $183 $114 $291 $292 reversed $72 $-1 #
coedge $-1 $114 $182 $287 $293 reversed $72 $-1 #
coedge $-1 $289 $294 $114 $185 forward $284 $-1 #
edge $-1 $295 33.729569009439786 $296 38.048508259754776 $184 $297 forward 7 unknown #
loop $-1 $-1 $191 $115 #
plane-surface $-1 -52.214728232673124 5.2306891230137396 3.9005876114086533 -0.64278761758704617 0 0.76604443648966558 0.76604443648966558 0 0.64278761758704617 forward_v I I I I #
loop $-1 $-1 $298 $74 #
coedge $-1 $189 $189 $190 $299 reversed $116 $-1 #
coedge $-1 $190 $190 $189 $299 forward $118 $-1 #
coedge $-1 $191 $191 $119 $192 forward $186 $-1 #
edge $-1 $300 0 $300 6.2831853071796004 $191 $301 forward 7 unknown #
loop $-1 $-1 $198 $120 #
plane-surface $-1 -52.214728232673124 5.2306891230137396 3.9005876114086533 -0.64278761758704617 0 0.76604443648966558 0.76604443648966558 0 0.64278761758704617 forward_v I I I I #
loop $-1 $-1 $302 $77 #
coedge $-1 $196 $196 $197 $303 reversed $121 $-1 #
coedge $-1 $197 $197 $196 $303 forward $123 $-1 #
coedge $-1 $198 $198 $124 $199 forward $193 $-1 #
edge $-1 $304 0 $304 6.2831853071796004 $198 $305 forward 7 unknown #
face $-1 $306 $307 $30 $-1 $308 reversed single #
loop $-1 $-1 $309 $125 #
plane-surface $-1 -52.214728232673117 0 0 1 0 0 0 0 -1 forward_v I I I I #
coedge $-1 $310 $211 $311 $312 forward $126 $-1 #
coedge $-1 $313 $128 $310 $314 forward $81 $-1 #
coedge $-1 $128 $313 $315 $316 forward $81 $-1 #
coedge $-1 $214 $213 $128 $207 reversed $215 $-1 #
edge $-1 $317 -21.298930556898981 $318 21.298930556898981 $206 $319 forward 7 unknown #
coedge $-1 $130 $129 $320 $321 forward $51 $-1 #
coedge $-1 $322 $323 $129 $210 reversed $307 $-1 #
edge $-1 $217 -52.214728232673117 $324 52.214728232673117 $209 $325 forward 7 unknown #
coedge $-1 $203 $326 $130 $212 reversed $126 $-1 #
edge $-1 $327 -52.214728232673117 $216 52.214728232673117 $211 $328 forward 7 unknown #
coedge $-1 $206 $131 $326 $329 forward $215 $-1 #
coedge $-1 $131 $206 $322 $330 reversed $215 $-1 #
loop $-1 $-1 $213 $306 #
vertex $-1 $132 $331 #
vertex $-1 $132 $332 #
straight-curve $-1 52.214728232673117 0 8.2195268617236543 0 1 0 I I #
face $-1 $333 $334 $31 $-1 $335 reversed single #
loop $-1 $-1 $336 $133 #
plane-surface $-1 -52.214728232673117 0 0 1 0 0 0 0 -1 forward_v I I I I #
coedge $-1 $337 $228 $233 $338 reversed $134 $-1 #
coedge $-1 $339 $136 $340 $341 reversed $85 $-1 #
coedge $-1 $136 $339 $337 $342 forward $85 $-1 #
coedge $-1 $233 $232 $136 $226 forward $234 $-1 #
edge $-1 $343 -13.019449342809331 $344 -3.5395130853699683 $225 $345 forward 7 unknown #
coedge $-1 $138 $137 $336 $346 reversed $54 $-1 #
coedge $-1 $222 $347 $137 $229 reversed $134 $-1 #
edge $-1 $235 -52.214728232673117 $348 52.214728232673117 $228 $349 forward 7 unknown #
coedge $-1 $350 $351 $138 $231 forward $334 $-1 #
edge $-1 $236 -52.214728232673117 $352 52.214728232673117 $230 $353 forward 7 unknown #
coedge $-1 $225 $139 $351 $354 forward $234 $-1 #
coedge $-1 $139 $225 $222 $338 forward $234 $-1 #
loop $-1 $-1 $139 $333 #
vertex $-1 $140 $355 #
vertex $-1 $354 $356 #
straight-curve $-1 52.214728232673117 -8.2794812140896497 7.5054733160062614 0 -1 0 I I #
face $-1 $357 $358 $32 $-1 $359 reversed single #
loop $-1 $-1 $147 $141 #
plane-surface $-1 52.214728232673117 0 0 -1 0 0 0 0 1 forward_v I I I I #
coedge $-1 $360 $249 $361 $362 reversed $142 $-1 #
coedge $-1 $363 $144 $360 $364 forward $89 $-1 #
coedge $-1 $144 $363 $365 $366 reversed $89 $-1 #
coedge $-1 $252 $251 $144 $245 forward $239 $-1 #
edge $-1 $367 3.5395130853699683 $368 13.019449342809331 $244 $369 forward 7 unknown #
coedge $-1 $146 $145 $370 $371 reversed $57 $-1 #
coedge $-1 $372 $373 $145 $248 forward $374 $-1 #
edge $-1 $375 -52.214728232673117 $253 52.214728232673117 $247 $376 forward 7 unknown #
coedge $-1 $241 $377 $146 $250 reversed $142 $-1 #
edge $-1 $378 -52.214728232673117 $254 52.214728232673117 $249 $379 forward 7 unknown #
coedge $-1 $244 $147 $377 $380 forward $239 $-1 #
coedge $-1 $147 $244 $372 $381 reversed $239 $-1 #
vertex $-1 $381 $382 #
vertex $-1 $148 $383 #
straight-curve $-1 52.214728232673117 8.2794812140896497 7.5054733160062614 0 -1 0 I I #
face $-1 $-1 $384 $33 $-1 $385 forward single #
loop $-1 $-1 $386 $149 #
plane-surface $-1 52.214728232673117 0 0 -1 0 0 0 0 1 forward_v I I I I #
coedge $-1 $387 $388 $389 $390 forward $150 $-1 #
coedge $-1 $391 $152 $154 $266 forward $93 $-1 #
coedge $-1 $152 $391 $392 $393 forward $93 $-1 #
coedge $-1 $386 $155 $152 $263 forward $257 $-1 #
edge $-1 $269 1.3267855631799286 $394 7.4370676785797691 $262 $395 forward 7 unknown #
coedge $-1 $388 $387 $153 $265 forward $150 $-1 #
edge $-1 $396 15.52592513645849 $268 18.388691166007526 $264 $397 forward 7 unknown #
edge $-1 $269 -104.42945646534622 $396 -99.880476141889773 $154 $398 forward 7 unknown #
coedge $-1 $155 $386 $388 $399 reversed $257 $-1 #
vertex $-1 $399 $400 #
vertex $-1 $156 $401 #
straight-curve $-1 52.214728232673117 5.7087121840597774 75.780410831523952 0 0 -1 I I #
coedge $-1 $271 $271 $-1 $402 reversed $159 $-1 #
edge $-1 $403 0 $403 6.2831853071796004 $160 $404 forward 7 unknown #
vertex $-1 $163 $405 #
ellipse-curve $-1 50.783345217898599 6.930768607139747 6.4519159993408897 0.77714596973225614 0 0.62932038083071107 0.31466019041535553 0 -0.38857298486612807 1 I I #
coedge $-1 $275 $275 $-1 $406 reversed $166 $-1 #
edge $-1 $407 0 $407 6.2831853071796004 $167 $408 forward 7 unknown #
vertex $-1 $170 $409 #
ellipse-curve $-1 50.783345217898599 8.7638532417596977 6.4519159993408897 0.77714596973225614 0 0.62932038083071107 0.31466019041535553 0 -0.38857298486612807 1 I I #
coedge $-1 $279 $279 $-1 $410 reversed $173 $-1 #
edge $-1 $411 0 $411 6.2831853071796004 $174 $412 forward 7 unknown #
vertex $-1 $177 $413 #
ellipse-curve $-1 50.783345217898599 10.596937876379648 6.4519159993408897 0.77714596973225614 0 0.62932038083071107 0.31466019041535553 0 -0.38857298486612807 1 I I #
face $-1 $-1 $414 $37 $-1 $415 forward single #
loop $-1 $-1 $184 $178 #
plane-surface $-1 -52.214728232673117 0 0 1 0 0 0 0 -1 forward_v I I I I #
coedge $-1 $416 $417 $418 $419 reversed $179 $-1 #
coedge $-1 $420 $181 $183 $293 forward $112 $-1 #
coedge $-1 $181 $420 $416 $421 forward $112 $-1 #
coedge $-1 $418 $184 $181 $290 forward $284 $-1 #
edge $-1 $296 -5.9300699340266725 $422 0.69938081101293292 $289 $423 forward 7 unknown #
coedge $-1 $424 $425 $182 $292 forward $414 $-1 #
edge $-1 $426 -12.602727907251477 $295 -7.4556166472984771 $291 $427 forward 7 unknown #
edge $-1 $296 9.1539886837149753e-015 $426 6.7190766158934769 $183 $428 forward 7 unknown #
coedge $-1 $184 $418 $424 $429 reversed $284 $-1 #
vertex $-1 $429 $430 #
vertex $-1 $185 $431 #
straight-curve $-1 -52.214728232673117 8.5454144955335423 41.949095871163436 0 0 -1 I I #
coedge $-1 $298 $298 $-1 $432 reversed $188 $-1 #
edge $-1 $433 0 $433 6.2831853071796004 $189 $434 forward 7 unknown #
vertex $-1 $192 $435 #
ellipse-curve $-1 -49.641172602696614 3.810092534790968 6.0600572365661591 -0.64278761758704617 0 0.76604443648966558 0.38302221824483279 0 0.32139380879352308 1 I I #
coedge $-1 $302 $302 $-1 $436 reversed $195 $-1 #
edge $-1 $437 0 $437 6.2831853071796004 $196 $438 forward 7 unknown #
vertex $-1 $199 $439 #
ellipse-curve $-1 -49.641172602696614 6.6512857112365111 6.0600572365661591 -0.64278761758704617 0 0.76604443648966558 0.38302221824483279 0 0.32139380879352308 1 I I #
face $-1 $-1 $215 $30 $-1 $440 reversed single #
loop $-1 $-1 $322 $200 #
plane-surface $-1 0 21.298930556898981 0 0 -1 0 0 0 -1 forward_v I I I I #
coedge $-1 $441 $320 $323 $442 forward $201 $-1 #
coedge $-1 $326 $203 $204 $314 reversed $126 $-1 #
coedge $-1 $320 $441 $203 $312 reversed $201 $-1 #
edge $-1 $327 -8.2195268617236543 $443 8.2195268617236543 $311 $444 forward 7 unknown #
coedge $-1 $205 $204 $441 $445 forward $81 $-1 #
edge $-1 $318 -52.214728232673117 $443 52.214728232673117 $310 $446 forward 7 unknown #
coedge $-1 $323 $322 $205 $316 reversed $307 $-1 #
edge $-1 $447 -52.214728232673117 $317 52.214728232673117 $315 $448 forward 7 unknown #
vertex $-1 $207 $449 #
vertex $-1 $329 $450 #
straight-curve $-1 52.214728232673117 0 -8.2195268617236543 0 -1 0 I I #
coedge $-1 $309 $311 $208 $321 reversed $201 $-1 #
edge $-1 $324 -21.298930556898981 $327 21.298930556898981 $320 $451 forward 7 unknown #
coedge $-1 $315 $209 $214 $330 forward $307 $-1 #
coedge $-1 $209 $315 $309 $442 reversed $307 $-1 #
vertex $-1 $210 $452 #
straight-curve $-1 0 21.298930556898981 8.2195268617236543 -1 0 0 I I #
coedge $-1 $211 $310 $213 $329 reversed $126 $-1 #
vertex $-1 $321 $453 #
straight-curve $-1 0 -21.298930556898981 8.2195268617236543 1 0 0 I I #
edge $-1 $216 -8.2195268617236543 $318 8.2195268617236543 $213 $454 forward 7 unknown #
edge $-1 $217 -8.2195268617236543 $317 8.2195268617236543 $214 $455 forward 7 unknown #
point $-1 52.214728232673117 -21.298930556898981 8.2195268617236543 #
point $-1 52.214728232673117 21.298930556898981 8.2195268617236543 #
face $-1 $-1 $234 $31 $-1 $456 reversed single #
loop $-1 $-1 $230 $219 #
plane-surface $-1 0 -21.298930556898981 0 0 1 0 0 0 1 forward_v I I I I #
coedge $-1 $457 $458 $227 $346 forward $220 $-1 #
coedge $-1 $347 $222 $224 $342 reversed $134 $-1 #
edge $-1 $344 1.5027366580031307 $235 4.5027366580031307 $233 $459 forward 7 unknown #
coedge $-1 $224 $223 $460 $461 reversed $85 $-1 #
coedge $-1 $351 $350 $223 $341 forward $334 $-1 #
edge $-1 $462 -52.214728232673117 $343 52.214728232673117 $340 $463 forward 7 unknown #
edge $-1 $464 -52.214728232673117 $344 52.214728232673117 $337 $465 forward 7 unknown #
vertex $-1 $341 $466 #
vertex $-1 $226 $467 #
straight-curve $-1 52.214728232673117 -8.2794812140896497 4.5054733160062614 0 1 0 I I #
edge $-1 $352 -13.019449342809331 $348 -3.5395130853699683 $336 $468 forward 7 unknown #
coedge $-1 $228 $337 $457 $469 reversed $134 $-1 #
vertex $-1 $346 $470 #
straight-curve $-1 0 -11.818994299459618 7.5054733160062614 -1 0 0 I I #
coedge $-1 $340 $230 $458 $471 forward $334 $-1 #
coedge $-1 $230 $340 $232 $354 reversed $334 $-1 #
vertex $-1 $471 $472 #
straight-curve $-1 0 -21.298930556898981 7.5054733160062614 -1 0 0 I I #
edge $-1 $236 -7.5054733160062614 $343 -4.5054733160062614 $232 $473 forward 7 unknown #
point $-1 52.214728232673117 -11.818994299459618 7.5054733160062614 #
point $-1 52.214728232673117 -21.298930556898981 7.5054733160062614 #
face $-1 $-1 $374 $32 $-1 $474 reversed single #
loop $-1 $-1 $370 $238 #
plane-surface $-1 -52.214728232673117 0 0 1 0 0 0 0 -1 forward_v I I I I #
coedge $-1 $377 $241 $242 $364 reversed $142 $-1 #
coedge $-1 $370 $475 $241 $362 forward $358 $-1 #
edge $-1 $476 1.5027366580031307 $378 4.5027366580031307 $361 $477 forward 7 unknown #
coedge $-1 $243 $242 $475 $478 reversed $89 $-1 #
edge $-1 $367 -52.214728232673117 $476 52.214728232673117 $360 $479 forward 7 unknown #
coedge $-1 $373 $372 $243 $366 forward $374 $-1 #
edge $-1 $368 -52.214728232673117 $480 52.214728232673117 $365 $481 forward 7 unknown #
vertex $-1 $245 $482 #
vertex $-1 $366 $483 #
straight-curve $-1 52.214728232673117 8.2794812140896497 4.5054733160062614 0 1 0 I I #
coedge $-1 $484 $361 $246 $371 forward $358 $-1 #
edge $-1 $378 3.5395130853699683 $375 13.019449342809331 $370 $485 forward 7 unknown #
coedge $-1 $365 $247 $252 $381 forward $374 $-1 #
coedge $-1 $247 $365 $484 $486 reversed $374 $-1 #
loop $-1 $-1 $247 $357 #
vertex $-1 $486 $487 #
straight-curve $-1 0 21.298930556898981 7.5054733160062614 1 0 0 I I #
coedge $-1 $249 $360 $251 $380 reversed $142 $-1 #
vertex $-1 $371 $488 #
straight-curve $-1 0 11.818994299459618 7.5054733160062614 1 0 0 I I #
edge $-1 $254 -4.5027366580031307 $367 -1.5027366580031307 $251 $489 forward 7 unknown #
edge $-1 $253 -7.5054733160062614 $368 -4.5054733160062614 $252 $490 forward 7 unknown #
point $-1 52.214728232673117 21.298930556898981 7.5054733160062614 #
point $-1 52.214728232673117 11.818994299459618 7.5054733160062614 #
loop $-1 $-1 $392 $256 #
plane-surface $-1 0 11.818994299459618 6.0054733160062614 0 1 0 0 0 1 forward_v I I I I #
coedge $-1 $267 $262 $491 $492 forward $257 $-1 #
coedge $-1 $264 $259 $391 $493 forward $150 $-1 #
coedge $-1 $259 $264 $267 $399 forward $150 $-1 #
coedge $-1 $491 $392 $259 $390 reversed $384 $-1 #
edge $-1 $494 -18.388691166007526 $495 -15.52592513645849 $259 $496 forward 7 unknown #
coedge $-1 $261 $260 $387 $493 reversed $93 $-1 #
coedge $-1 $389 $491 $261 $393 reversed $384 $-1 #
edge $-1 $495 99.880476141889773 $394 104.42945646534622 $392 $497 forward 7 unknown #
vertex $-1 $492 $498 #
straight-curve $-1 52.21472823267311 4.3819266208798489 4.6843051369581303 0 1 0 I I #
vertex $-1 $265 $499 #
straight-curve $-1 33.826037066665592 5.7087121840597774 8.2195268617236508 1 0 0 I I #
straight-curve $-1 -13.50485708004274 5.7087121840597774 85.841236350332053 -0.62932038083071107 0 0.77714596973225614 I I #
edge $-1 $268 5.7087121840597774 $494 11.818994299459618 $267 $500 forward 7 unknown #
point $-1 52.214728232673117 5.7087121840597774 8.2195268617236543 #
point $-1 52.21472823267311 5.7087121840597774 4.6843051369581303 #
edge $-1 $501 1 $501 0 $271 $-1 forward 7 unknown #
vertex $-1 $272 $502 #
ellipse-curve $-1 50.006199248166347 6.930768607139747 5.8225956185101833 0.77714596973225614 0 0.62932038083071107 0.31466019041535553 0 -0.38857298486612807 1 I I #
point $-1 51.098005408313959 6.930768607139747 6.063343014474766 #
edge $-1 $503 1 $503 0 $275 $-1 forward 7 unknown #
vertex $-1 $276 $504 #
ellipse-curve $-1 50.006199248166347 8.7638532417596977 5.8225956185101833 0.77714596973225614 0 0.62932038083071107 0.31466019041535553 0 -0.38857298486612807 1 I I #
point $-1 51.098005408313959 8.7638532417596977 6.063343014474766 #
edge $-1 $505 1 $505 0 $279 $-1 forward 7 unknown #
vertex $-1 $280 $506 #
ellipse-curve $-1 50.006199248166347 10.596937876379648 5.8225956185101833 0.77714596973225614 0 0.62932038083071107 0.31466019041535553 0 -0.38857298486612807 1 I I #
point $-1 51.098005408313959 10.596937876379648 6.063343014474766 #
loop $-1 $-1 $291 $283 #
plane-surface $-1 0 0 8.2195268617236543 0 0 1 1 0 0 forward_v I I I I #
coedge $-1 $417 $286 $288 $421 reversed $179 $-1 #
coedge $-1 $286 $416 $507 $508 reversed $179 $-1 #
coedge $-1 $294 $289 $286 $419 forward $284 $-1 #
edge $-1 $422 -38.048508259754776 $509 -33.729569009439786 $418 $510 forward 7 unknown #
coedge $-1 $288 $287 $425 $511 reversed $112 $-1 #
edge $-1 $512 -6.7190766158934769 $422 -9.1539886837149753e-015 $416 $513 forward 7 unknown #
vertex $-1 $290 $514 #
straight-curve $-1 -52.214728232673117 2.6153445615068698 3.9005876114086639 0 -1 0 I I #
coedge $-1 $507 $291 $294 $429 forward $414 $-1 #
coedge $-1 $291 $507 $420 $511 forward $414 $-1 #
vertex $-1 $292 $515 #
straight-curve $-1 -59.670344879971594 8.5454144955335423 8.2195268617236579 -1 0 0 I I #
straight-curve $-1 -52.214728232673124 8.5454144955335423 3.9005876114086533 0.76604443648966558 0 0.64278761758704617 I I #
edge $-1 $295 -8.5454144955335423 $509 -1.9159637504939369 $294 $516 forward 7 unknown #
point $-1 -52.214728232673117 8.5454144955335423 8.2195268617236543 #
point $-1 -52.214728232673117 8.5454144955335423 3.9005876114086591 #
edge $-1 $517 1 $517 0 $298 $-1 forward 7 unknown #
vertex $-1 $299 $518 #
ellipse-curve $-1 -48.99838498510956 3.810092534790968 5.2940128000764837 -0.64278761758704617 0 0.76604443648966558 0.38302221824483279 0 0.32139380879352308 1 I I #
point $-1 -49.258150384451774 3.810092534790968 6.3814510453596727 #
edge $-1 $519 1 $519 0 $302 $-1 forward 7 unknown #
vertex $-1 $303 $520 #
ellipse-curve $-1 -48.99838498510956 6.6512857112365111 5.2940128000764837 -0.64278761758704617 0 0.76604443648966558 0.38302221824483279 0 0.32139380879352308 1 I I #
point $-1 -49.258150384451774 6.6512857112365111 6.3814510453596727 #
plane-surface $-1 52.214728232673117 0 0 -1 0 0 0 0 1 forward_v I I I I #
coedge $-1 $311 $309 $313 $445 reversed $201 $-1 #
edge $-1 $324 -8.2195268617236543 $447 8.2195268617236543 $323 $521 forward 7 unknown #
vertex $-1 $445 $522 #
straight-curve $-1 -52.214728232673117 -21.298930556898981 0 0 0 -1 I I #
edge $-1 $443 -21.298930556898981 $447 21.298930556898981 $441 $523 forward 7 unknown #
straight-curve $-1 0 -21.298930556898981 -8.2195268617236543 -1 0 0 I I #
vertex $-1 $316 $524 #
straight-curve $-1 0 21.298930556898981 -8.2195268617236543 1 0 0 I I #
point $-1 52.214728232673117 21.298930556898981 -8.2195268617236543 #
point $-1 52.214728232673117 -21.298930556898981 -8.2195268617236543 #
straight-curve $-1 -52.214728232673117 0 8.2195268617236543 0 -1 0 I I #
point $-1 -52.214728232673117 21.298930556898981 8.2195268617236543 #
point $-1 -52.214728232673117 -21.298930556898981 8.2195268617236543 #
straight-curve $-1 52.214728232673117 -21.298930556898981 0 0 0 -1 I I #
straight-curve $-1 52.214728232673117 21.298930556898981 0 0 0 -1 I I #
plane-surface $-1 52.214728232673117 0 0 -1 0 0 0 0 1 forward_v I I I I #
coedge $-1 $460 $336 $347 $469 forward $220 $-1 #
coedge $-1 $336 $460 $350 $471 reversed $220 $-1 #
straight-curve $-1 52.214728232673117 -11.818994299459618 3.0027366580031307 0 0 1 I I #
coedge $-1 $458 $457 $339 $461 forward $220 $-1 #
edge $-1 $464 3.5395130853699683 $462 13.019449342809331 $460 $525 forward 7 unknown #
vertex $-1 $341 $526 #
straight-curve $-1 0 -21.298930556898981 4.5054733160062614 1 0 0 I I #
vertex $-1 $461 $527 #
straight-curve $-1 0 -11.818994299459618 4.5054733160062614 1 0 0 I I #
point $-1 52.214728232673117 -21.298930556898981 4.5054733160062614 #
point $-1 52.214728232673117 -11.818994299459618 4.5054733160062614 #
straight-curve $-1 -52.214728232673117 -8.2794812140896497 7.5054733160062614 0 1 0 I I #
edge $-1 $348 -4.5027366580031307 $464 -1.5027366580031307 $457 $528 forward 7 unknown #
point $-1 -52.214728232673117 -11.818994299459618 7.5054733160062614 #
edge $-1 $352 -7.5054733160062614 $462 -4.5054733160062614 $458 $529 forward 7 unknown #
point $-1 -52.214728232673117 -21.298930556898981 7.5054733160062614 #
straight-curve $-1 52.214728232673117 -21.298930556898981 0 0 0 -1 I I #
plane-surface $-1 0 21.298930556898981 0 0 -1 0 0 0 -1 forward_v I I I I #
coedge $-1 $361 $484 $363 $478 forward $358 $-1 #
vertex $-1 $478 $530 #
straight-curve $-1 -52.214728232673117 11.818994299459618 3.0027366580031307 0 0 1 I I #
edge $-1 $480 -13.019449342809331 $476 -3.5395130853699683 $475 $531 forward 7 unknown #
straight-curve $-1 0 11.818994299459618 4.5054733160062614 -1 0 0 I I #
vertex $-1 $366 $532 #
straight-curve $-1 0 21.298930556898981 4.5054733160062614 -1 0 0 I I #
point $-1 52.214728232673117 11.818994299459618 4.5054733160062614 #
point $-1 52.214728232673117 21.298930556898981 4.5054733160062614 #
coedge $-1 $475 $370 $373 $486 forward $358 $-1 #
straight-curve $-1 -52.214728232673117 8.2794812140896497 7.5054733160062614 0 1 0 I I #
edge $-1 $375 -7.5054733160062614 $480 -4.5054733160062614 $373 $533 forward 7 unknown #
point $-1 -52.214728232673117 21.298930556898981 7.5054733160062614 #
point $-1 -52.214728232673117 11.818994299459618 7.5054733160062614 #
straight-curve $-1 52.214728232673117 11.818994299459618 3.0027366580031307 0 0 -1 I I #
straight-curve $-1 52.214728232673117 21.298930556898981 0 0 0 -1 I I #
coedge $-1 $392 $389 $386 $492 reversed $384 $-1 #
edge $-1 $394 -71.096105694565821 $494 -67.560883969800301 $386 $534 forward 7 unknown #
edge $-1 $495 -7.4370676785797691 $396 -1.3267855631799286 $387 $535 forward 7 unknown #
vertex $-1 $390 $536 #
vertex $-1 $493 $537 #
straight-curve $-1 33.826037066665592 11.818994299459618 8.2195268617236508 -1 0 0 I I #
straight-curve $-1 -13.50485708004274 11.818994299459618 85.841236350332053 0.62932038083071107 0 -0.77714596973225614 I I #
point $-1 52.214728232673117 11.818994299459618 4.6843051369581339 #
point $-1 49.351962203124081 5.7087121840597774 8.2195268617236508 #
straight-curve $-1 52.214728232673117 0 8.2195268617236543 0 1 0 I I #
vertex $-1 $402 $538 #
point $-1 50.320859438581699 6.930768607139747 5.4340226336440551 #
vertex $-1 $406 $539 #
point $-1 50.320859438581699 8.7638532417596977 5.4340226336440551 #
vertex $-1 $410 $540 #
point $-1 50.320859438581699 10.596937876379648 5.4340226336440551 #
coedge $-1 $425 $424 $417 $508 forward $414 $-1 #
edge $-1 $509 7.4556166472984771 $512 12.602727907251477 $507 $541 forward 7 unknown #
vertex $-1 $508 $542 #
straight-curve $-1 -52.214728232673117 1.9159637504939369 41.949095871163436 0 0 1 I I #
edge $-1 $512 -0.69938081101293292 $426 5.9300699340266725 $425 $543 forward 7 unknown #
vertex $-1 $511 $544 #
straight-curve $-1 -52.214728232673124 1.9159637504939369 3.9005876114086533 -0.76604443648966558 0 -0.64278761758704617 I I #
point $-1 -52.214728232673117 1.9159637504939369 3.9005876114086591 #
point $-1 -47.067616972720117 8.5454144955335423 8.2195268617236543 #
straight-curve $-1 -52.214728232673117 0 8.2195268617236543 0 -1 0 I I #
vertex $-1 $432 $545 #
point $-1 -48.615362766864727 3.810092534790968 5.615406608870007 #
vertex $-1 $436 $546 #
point $-1 -48.615362766864727 6.6512857112365111 5.615406608870007 #
straight-curve $-1 -52.214728232673117 21.298930556898981 0 0 0 -1 I I #
point $-1 -52.214728232673117 -21.298930556898981 -8.2195268617236543 #
straight-curve $-1 -52.214728232673117 0 -8.2195268617236543 0 1 0 I I #
point $-1 -52.214728232673117 21.298930556898981 -8.2195268617236543 #
straight-curve $-1 -52.214728232673117 -8.2794812140896497 4.5054733160062614 0 -1 0 I I #
point $-1 -52.214728232673117 -21.298930556898981 4.5054733160062614 #
point $-1 -52.214728232673117 -11.818994299459618 4.5054733160062614 #
straight-curve $-1 -52.214728232673117 -11.818994299459618 3.0027366580031307 0 0 -1 I I #
straight-curve $-1 -52.214728232673117 -21.298930556898981 0 0 0 -1 I I #
point $-1 -52.214728232673117 11.818994299459618 4.5054733160062614 #
straight-curve $-1 -52.214728232673117 8.2794812140896497 4.5054733160062614 0 -1 0 I I #
point $-1 -52.214728232673117 21.298930556898981 4.5054733160062614 #
straight-curve $-1 -52.214728232673117 21.298930556898981 0 0 0 -1 I I #
straight-curve $-1 52.214728232673117 11.818994299459618 75.780410831523952 0 0 1 I I #
straight-curve $-1 49.351962203124089 4.3819266208798489 8.2195268617236508 0 -1 0 I I #
point $-1 52.214728232673117 11.818994299459618 8.2195268617236543 #
point $-1 49.351962203124081 11.818994299459618 8.2195268617236508 #
point $-1 49.617626263300217 6.930768607139747 5.5079354280948269 #
point $-1 49.617626263300217 8.7638532417596977 5.5079354280948269 #
point $-1 49.617626263300217 10.596937876379648 5.5079354280948269 #
straight-curve $-1 -59.670344879971594 1.9159637504939369 8.2195268617236579 1 0 0 I I #
point $-1 -52.214728232673117 1.9159637504939369 8.2195268617236543 #
straight-curve $-1 -47.06761697272011 2.6153445615068698 8.2195268617236543 0 1 0 I I #
point $-1 -47.067616972720117 1.9159637504939369 8.2195268617236543 #
point $-1 -48.676991176316044 3.810092534790968 4.9109905818316513 #
point $-1 -48.676991176316044 6.6512857112365111 4.9109905818316513 #
End-of-ACIS-data 