500 0 11 0           
7 Unknown 11 ACIS 5.0 NT 24 Fri Mar 26 02:47:30 1999 
-1 9.9999999999999995e-007 1e-010 
body $-1 $11 $-1 $12 #
body $-1 $13 $-1 $14 #
body $-1 $15 $-1 $16 #
body $-1 $17 $-1 $18 #
body $-1 $19 $-1 $20 #
body $-1 $21 $-1 $22 #
body $-1 $23 $-1 $24 #
body $-1 $25 $-1 $26 #
body $-1 $27 $-1 $28 #
body $-1 $29 $-1 $30 #
body $-1 $31 $-1 $32 #
lump $-1 $-1 $33 $0 #
transform $-1 1 0 0 0 1 0 0 0 1 54.759971922971282 34.087986428468099 9.0996312536945858 1 rotate no_reflect no_shear #
lump $-1 $-1 $34 $1 #
transform $-1 1 0 0 0 1 0 0 0 1 54.759971922971282 34.087986428468099 9.0996312536945858 1 rotate no_reflect no_shear #
lump $-1 $-1 $35 $2 #
transform $-1 1 0 0 0 1 0 0 0 1 54.759971922971282 34.087986428468099 9.0996312536945858 1 rotate no_reflect no_shear #
lump $-1 $-1 $36 $3 #
transform $-1 1 0 0 0 1 0 0 0 1 54.759971922971282 34.087986428468099 9.0996312536945858 1 rotate no_reflect no_shear #
lump $-1 $-1 $37 $4 #
transform $-1 1 0 0 0 1 0 0 0 1 54.759971922971282 34.087986428468099 9.0996312536945858 1 rotate no_reflect no_shear #
lump $-1 $-1 $38 $5 #
transform $-1 1 0 0 0 1 0 0 0 1 54.759971922971282 34.087986428468099 9.0996312536945858 1 rotate no_reflect no_shear #
lump $-1 $-1 $39 $6 #
transform $-1 1 0 0 0 1 0 0 0 1 54.759971922971282 34.087986428468099 9.0996312536945858 1 rotate no_reflect no_shear #
lump $-1 $-1 $40 $7 #
transform $-1 1 0 0 0 1 0 0 0 1 54.759971922971282 34.087986428468099 9.0996312536945858 1 rotate no_reflect no_shear #
lump $-1 $-1 $41 $8 #
transform $-1 1 0 0 0 1 0 0 0 1 54.759971922971282 34.087986428468099 9.0996312536945858 1 rotate no_reflect no_shear #
lump $-1 $-1 $42 $9 #
transform $-1 1 0 0 0 1 0 0 0 1 54.759971922971282 34.087986428468099 9.0996312536945858 1 rotate no_reflect no_shear #
lump $-1 $-1 $43 $10 #
transform $-1 1 0 0 0 1 0 0 0 1 54.759971922971282 34.087986428468099 9.0996312536945858 1 rotate no_reflect no_shear #
shell $-1 $-1 $-1 $44 $-1 $11 #
shell $-1 $-1 $-1 $45 $-1 $13 #
shell $-1 $-1 $-1 $46 $-1 $15 #
shell $-1 $-1 $-1 $47 $-1 $17 #
shell $-1 $-1 $-1 $48 $-1 $19 #
shell $-1 $-1 $-1 $49 $-1 $21 #
shell $-1 $-1 $-1 $50 $-1 $23 #
shell $-1 $-1 $-1 $51 $-1 $25 #
shell $-1 $-1 $-1 $52 $-1 $27 #
shell $-1 $-1 $-1 $53 $-1 $29 #
shell $-1 $-1 $-1 $54 $-1 $31 #
face $-1 $55 $56 $33 $-1 $57 forward single #
face $-1 $58 $59 $34 $-1 $60 reversed single #
face $-1 $61 $62 $35 $-1 $63 reversed single #
face $-1 $64 $65 $36 $-1 $66 forward single #
face $-1 $67 $68 $37 $-1 $69 forward single #
face $-1 $70 $71 $38 $-1 $72 reversed single #
face $-1 $73 $74 $39 $-1 $75 forward single #
face $-1 $76 $77 $40 $-1 $78 forward single #
face $-1 $79 $80 $41 $-1 $81 reversed single #
face $-1 $82 $83 $42 $-1 $84 forward single #
face $-1 $85 $86 $43 $-1 $87 forward single #
face $-1 $88 $89 $33 $-1 $90 reversed single #
loop $-1 $-1 $91 $44 #
plane-surface $-1 0 0 9.0996312536945858 0 0 1 1 0 0 forward_v I I I I #
face $-1 $92 $93 $34 $-1 $94 reversed single #
loop $-1 $-1 $95 $45 #
plane-surface $-1 -49.993648425985747 -28.89455663512517 0 1 0 0 0 0 -1 forward_v I I I I #
face $-1 $96 $97 $35 $-1 $98 reversed single #
loop $-1 $-1 $99 $46 #
plane-surface $-1 -146.61112630623191 27.747195908391213 65.244926210298019 0 1 0 -0.83867057594974714 0 0.54463902268945019 forward_v I I I I #
face $-1 $100 $101 $36 $-1 $102 forward single #
loop $-1 $103 $104 $47 #
cone-surface $-1 -52.79987099466733 29.558850342698896 6.8137311070533997 0.83867057594974714 0 -0.54463902268945019 0.2723195113447251 0 0.41933528797487357 1 I I 0 1 0.5 forward I I I I #
face $-1 $105 $106 $37 $-1 $107 forward single #
loop $-1 $108 $109 $48 #
cone-surface $-1 -52.79987099466733 32.276331994160415 6.8137311070533997 0.83867057594974714 0 -0.54463902268945019 0.2723195113447251 0 0.41933528797487357 1 I I 0 1 0.5 forward I I I I #
face $-1 $110 $111 $38 $-1 $112 reversed single #
loop $-1 $-1 $113 $49 #
plane-surface $-1 49.354579403328465 -1.1697775195836329 154.85222699070644 0 -1 0 -0.68199836817093118 0 -0.7313536940579346 forward_v I I I I #
face $-1 $114 $115 $39 $-1 $116 forward single #
loop $-1 $117 $118 $50 #
cone-surface $-1 48.792902167267904 -8.1268350677457697 3.3784409237874931 -0.68199836817093118 0 -0.7313536940579346 0.7313536940579346 0 -0.68199836817093118 1 I I 0 1 1 forward I I I I #
face $-1 $119 $120 $40 $-1 $121 forward single #
loop $-1 $122 $123 $51 #
cone-surface $-1 48.792902167267904 -3.9526005388484862 3.3784409237874931 -0.68199836817093118 0 -0.7313536940579346 0.7313536940579346 0 -0.68199836817093118 1 I I 0 1 1 forward I I I I #
face $-1 $124 $125 $41 $-1 $126 reversed single #
loop $-1 $-1 $127 $52 #
plane-surface $-1 49.354579403328465 27.724779115541537 154.85222699070644 0 -1 0 -0.68199836817093118 0 -0.7313536940579346 forward_v I I I I #
face $-1 $128 $129 $42 $-1 $130 forward single #
loop $-1 $131 $132 $53 #
cone-surface $-1 48.792902167267904 20.767721567379397 3.3784409237874931 -0.68199836817093118 0 -0.7313536940579346 0.7313536940579346 0 -0.68199836817093118 1 I I 0 1 1 forward I I I I #
face $-1 $133 $134 $43 $-1 $135 forward single #
loop $-1 $136 $137 $54 #
cone-surface $-1 48.792902167267904 24.941956096276684 3.3784409237874931 -0.68199836817093118 0 -0.7313536940579346 0.7313536940579346 0 -0.68199836817093118 1 I I 0 1 1 forward I I I I #
face $-1 $138 $139 $33 $-1 $140 reversed single #
loop $-1 $-1 $141 $55 #
plane-surface $-1 0 0 -9.0996312536945858 0 0 1 1 0 0 forward_v I I I I #
coedge $-1 $142 $143 $144 $145 forward $56 $-1 #
face $-1 $146 $147 $34 $-1 $148 reversed single #
loop $-1 $-1 $149 $58 #
plane-surface $-1 -48.457122355134992 -23.701126841782241 0 0 -1 0 0 0 -1 forward_v I I I I #
coedge $-1 $150 $151 $152 $153 forward $59 $-1 #
face $-1 $154 $155 $35 $-1 $156 forward single #
loop $-1 $-1 $157 $61 #
plane-surface $-1 -54.759971922971289 30.917591168429652 5.5960910290403945 -0.83867057594974714 0 0.54463902268945019 0.54463902268945019 0 0.83867057594974714 forward_v I I I I #
coedge $-1 $158 $159 $160 $161 reversed $62 $-1 #
face $-1 $-1 $162 $36 $-1 $163 forward single #
loop $-1 $164 $165 $64 #
cone-surface $-1 -51.767715198255161 29.558850342698896 6.1434413170669462 0.83867057594974714 0 -0.54463902268945019 0.13615975567236255 0 0.20966764398743679 1 I I -0.70710678118654624 0.70710678118654879 0.25 forward I I I I #
loop $-1 $-1 $166 $47 #
coedge $-1 $104 $104 $167 $168 reversed $65 $-1 #
face $-1 $-1 $169 $37 $-1 $170 forward single #
loop $-1 $171 $172 $67 #
cone-surface $-1 -51.767715198255161 32.276331994160415 6.1434413170669462 0.83867057594974714 0 -0.54463902268945019 0.13615975567236255 0 0.20966764398743679 1 I I -0.70710678118654624 0.70710678118654879 0.25 forward I I I I #
loop $-1 $-1 $173 $48 #
coedge $-1 $109 $109 $174 $175 reversed $68 $-1 #
face $-1 $176 $177 $38 $-1 $178 reversed single #
loop $-1 $-1 $179 $70 #
plane-surface $-1 -25.337843581776376 -6.0397178032971297 74.754411485958784 0.68199836817093118 0 0.7313536940579346 0.7313536940579346 0 -0.68199836817093118 forward_v I I I I #
coedge $-1 $180 $181 $182 $183 reversed $71 $-1 #
face $-1 $-1 $184 $39 $-1 $185 forward single #
loop $-1 $186 $187 $73 #
cone-surface $-1 47.330675770029934 -8.1268350677457697 1.810395123271757 -0.68199836817093118 0 -0.7313536940579346 0.3656768470289673 0 -0.34099918408546559 1 I I -0.70710678118654746 0.70710678118654746 0.5 forward I I I I #
loop $-1 $-1 $188 $50 #
coedge $-1 $118 $118 $189 $190 reversed $74 $-1 #
face $-1 $-1 $191 $40 $-1 $192 forward single #
loop $-1 $193 $194 $76 #
cone-surface $-1 47.330675770029934 -3.9526005388484862 1.810395123271757 -0.68199836817093118 0 -0.7313536940579346 0.3656768470289673 0 -0.34099918408546559 1 I I -0.70710678118654746 0.70710678118654746 0.5 forward I I I I #
loop $-1 $-1 $195 $51 #
coedge $-1 $123 $123 $196 $197 reversed $77 $-1 #
face $-1 $198 $199 $41 $-1 $200 reversed single #
loop $-1 $-1 $201 $79 #
plane-surface $-1 -25.337843581776376 22.85483883182804 74.754411485958784 0.68199836817093118 0 0.7313536940579346 0.7313536940579346 0 -0.68199836817093118 forward_v I I I I #
coedge $-1 $202 $203 $204 $205 reversed $80 $-1 #
face $-1 $-1 $206 $42 $-1 $207 forward single #
loop $-1 $208 $209 $82 #
cone-surface $-1 47.330675770029934 20.767721567379397 1.810395123271757 -0.68199836817093118 0 -0.7313536940579346 0.3656768470289673 0 -0.34099918408546559 1 I I -0.70710678118654746 0.70710678118654746 0.5 forward I I I I #
loop $-1 $-1 $210 $53 #
coedge $-1 $132 $132 $211 $212 reversed $83 $-1 #
face $-1 $-1 $213 $43 $-1 $214 forward single #
loop $-1 $215 $216 $85 #
cone-surface $-1 47.330675770029934 24.941956096276684 1.810395123271757 -0.68199836817093118 0 -0.7313536940579346 0.3656768470289673 0 -0.34099918408546559 1 I I -0.70710678118654746 0.70710678118654746 0.5 forward I I I I #
loop $-1 $-1 $217 $54 #
coedge $-1 $137 $137 $218 $219 reversed $86 $-1 #
face $-1 $220 $221 $33 $-1 $222 reversed single #
loop $-1 $-1 $223 $88 #
plane-surface $-1 0 -34.087986428468099 0 0 1 0 0 0 1 forward_v I I I I #
coedge $-1 $224 $225 $226 $227 forward $89 $-1 #
coedge $-1 $228 $91 $229 $230 forward $56 $-1 #
coedge $-1 $91 $228 $231 $232 forward $56 $-1 #
coedge $-1 $233 $234 $91 $145 reversed $235 $-1 #
edge $-1 $236 -34.087986428468099 $237 34.087986428468099 $144 $238 forward 7 unknown #
face $-1 $239 $240 $34 $-1 $241 forward single #
loop $-1 $-1 $242 $92 #
plane-surface $-1 -46.920596284284237 -28.89455663512517 0 -1 0 0 0 0 1 forward_v I I I I #
coedge $-1 $243 $244 $245 $246 forward $93 $-1 #
coedge $-1 $247 $95 $248 $249 reversed $59 $-1 #
coedge $-1 $95 $247 $250 $251 reversed $59 $-1 #
coedge $-1 $244 $243 $95 $153 reversed $93 $-1 #
edge $-1 $252 -9.0996312536945858 $253 9.0996312536945858 $152 $254 forward 7 unknown #
face $-1 $255 $256 $35 $-1 $257 reversed single #
loop $-1 $-1 $160 $96 #
plane-surface $-1 0 0 9.0996312536945858 0 0 1 1 0 0 forward_v I I I I #
coedge $-1 $258 $259 $260 $261 reversed $97 $-1 #
coedge $-1 $159 $99 $262 $263 reversed $62 $-1 #
coedge $-1 $99 $158 $258 $264 reversed $62 $-1 #
coedge $-1 $260 $265 $99 $161 forward $155 $-1 #
edge $-1 $266 18.545591230144673 $267 20.820816781903112 $160 $268 forward 7 unknown #
loop $-1 $-1 $167 $100 #
plane-surface $-1 -54.759971922971289 30.917591168429652 5.5960910290403945 -0.83867057594974714 0 0.54463902268945019 0.54463902268945019 0 0.83867057594974714 forward_v I I I I #
loop $-1 $-1 $269 $64 #
coedge $-1 $165 $165 $166 $270 reversed $101 $-1 #
coedge $-1 $166 $166 $165 $270 forward $103 $-1 #
coedge $-1 $167 $167 $104 $168 forward $162 $-1 #
edge $-1 $271 0 $271 6.2831853071796004 $167 $272 forward 7 unknown #
loop $-1 $-1 $174 $105 #
plane-surface $-1 -54.759971922971289 30.917591168429652 5.5960910290403945 -0.83867057594974714 0 0.54463902268945019 0.54463902268945019 0 0.83867057594974714 forward_v I I I I #
loop $-1 $-1 $273 $67 #
coedge $-1 $172 $172 $173 $274 reversed $106 $-1 #
coedge $-1 $173 $173 $172 $274 forward $108 $-1 #
coedge $-1 $174 $174 $109 $175 forward $169 $-1 #
edge $-1 $275 0 $275 6.2831853071796004 $174 $276 forward 7 unknown #
face $-1 $277 $278 $38 $-1 $279 reversed single #
loop $-1 $-1 $280 $110 #
plane-surface $-1 49.354579403328465 -10.909658087010627 154.85222699070644 0 1 0 0.68199836817093118 0 0.7313536940579346 forward_v I I I I #
coedge $-1 $281 $282 $283 $284 reversed $111 $-1 #
coedge $-1 $181 $113 $285 $286 reversed $71 $-1 #
coedge $-1 $113 $180 $281 $287 reversed $71 $-1 #
coedge $-1 $283 $288 $113 $183 forward $289 $-1 #
edge $-1 $290 -30.082682221307049 $291 -20.390997136205325 $182 $292 forward 7 unknown #
loop $-1 $-1 $189 $114 #
plane-surface $-1 -25.337843581776376 -6.0397178032971297 74.754411485958784 0.68199836817093118 0 0.7313536940579346 0.7313536940579346 0 -0.68199836817093118 forward_v I I I I #
loop $-1 $-1 $293 $73 #
coedge $-1 $187 $187 $188 $294 reversed $115 $-1 #
coedge $-1 $188 $188 $187 $294 forward $117 $-1 #
coedge $-1 $189 $189 $118 $190 forward $184 $-1 #
edge $-1 $295 0 $295 6.2831853071796004 $189 $296 forward 7 unknown #
loop $-1 $-1 $196 $119 #
plane-surface $-1 -25.337843581776376 -6.0397178032971297 74.754411485958784 0.68199836817093118 0 0.7313536940579346 0.7313536940579346 0 -0.68199836817093118 forward_v I I I I #
loop $-1 $-1 $297 $76 #
coedge $-1 $194 $194 $195 $298 reversed $120 $-1 #
coedge $-1 $195 $195 $194 $298 forward $122 $-1 #
coedge $-1 $196 $196 $123 $197 forward $191 $-1 #
edge $-1 $299 0 $299 6.2831853071796004 $196 $300 forward 7 unknown #
face $-1 $301 $302 $41 $-1 $303 reversed single #
loop $-1 $-1 $304 $124 #
plane-surface $-1 49.354579403328465 17.984898548114543 154.85222699070644 0 1 0 0.68199836817093118 0 0.7313536940579346 forward_v I I I I #
coedge $-1 $305 $306 $307 $308 reversed $125 $-1 #
coedge $-1 $203 $127 $309 $310 reversed $80 $-1 #
coedge $-1 $127 $202 $305 $311 reversed $80 $-1 #
coedge $-1 $307 $312 $127 $205 forward $313 $-1 #
edge $-1 $314 -30.082682221307049 $315 -20.390997136205325 $204 $316 forward 7 unknown #
loop $-1 $-1 $211 $128 #
plane-surface $-1 -25.337843581776376 22.85483883182804 74.754411485958784 0.68199836817093118 0 0.7313536940579346 0.7313536940579346 0 -0.68199836817093118 forward_v I I I I #
loop $-1 $-1 $317 $82 #
coedge $-1 $209 $209 $210 $318 reversed $129 $-1 #
coedge $-1 $210 $210 $209 $318 forward $131 $-1 #
coedge $-1 $211 $211 $132 $212 forward $206 $-1 #
edge $-1 $319 0 $319 6.2831853071796004 $211 $320 forward 7 unknown #
loop $-1 $-1 $218 $133 #
plane-surface $-1 -25.337843581776376 22.85483883182804 74.754411485958784 0.68199836817093118 0 0.7313536940579346 0.7313536940579346 0 -0.68199836817093118 forward_v I I I I #
loop $-1 $-1 $321 $85 #
coedge $-1 $216 $216 $217 $322 reversed $134 $-1 #
coedge $-1 $217 $217 $216 $322 forward $136 $-1 #
coedge $-1 $218 $218 $137 $219 forward $213 $-1 #
edge $-1 $323 0 $323 6.2831853071796004 $218 $324 forward 7 unknown #
face $-1 $325 $326 $33 $-1 $327 reversed single #
loop $-1 $-1 $328 $138 #
plane-surface $-1 -54.759971922971282 0 0 1 0 0 0 0 -1 forward_v I I I I #
coedge $-1 $329 $231 $330 $331 forward $139 $-1 #
coedge $-1 $332 $141 $329 $333 forward $89 $-1 #
coedge $-1 $141 $332 $334 $335 forward $89 $-1 #
coedge $-1 $234 $233 $141 $227 reversed $235 $-1 #
edge $-1 $336 -34.087986428468099 $337 34.087986428468099 $226 $338 forward 7 unknown #
coedge $-1 $143 $142 $339 $340 forward $56 $-1 #
coedge $-1 $341 $342 $142 $230 reversed $326 $-1 #
edge $-1 $237 -54.759971922971282 $343 54.759971922971282 $229 $344 forward 7 unknown #
coedge $-1 $223 $345 $143 $232 reversed $139 $-1 #
edge $-1 $346 -54.759971922971282 $236 54.759971922971282 $231 $347 forward 7 unknown #
coedge $-1 $226 $144 $345 $348 forward $235 $-1 #
coedge $-1 $144 $226 $341 $349 reversed $235 $-1 #
loop $-1 $-1 $233 $325 #
vertex $-1 $145 $350 #
vertex $-1 $145 $351 #
straight-curve $-1 54.759971922971282 0 9.0996312536945858 0 1 0 I I #
face $-1 $352 $353 $34 $-1 $354 reversed single #
loop $-1 $-1 $355 $146 #
plane-surface $-1 0 0 9.0996312536945858 0 0 1 1 0 0 forward_v I I I I #
coedge $-1 $356 $357 $358 $359 reversed $147 $-1 #
coedge $-1 $152 $149 $360 $361 reversed $93 $-1 #
coedge $-1 $149 $152 $362 $363 reversed $93 $-1 #
coedge $-1 $357 $356 $149 $246 reversed $147 $-1 #
edge $-1 $364 -9.0996312536945858 $365 9.0996312536945858 $245 $366 forward 7 unknown #
coedge $-1 $151 $150 $367 $368 reversed $59 $-1 #
coedge $-1 $360 $369 $150 $249 forward $353 $-1 #
edge $-1 $370 -19.640708110905514 $253 -9.2538485242196558 $248 $371 forward 7 unknown #
coedge $-1 $372 $362 $151 $251 forward $240 $-1 #
edge $-1 $252 9.2538485242196558 $373 19.640708110905514 $250 $374 forward 7 unknown #
vertex $-1 $251 $375 #
vertex $-1 $249 $376 #
straight-curve $-1 -49.993648425985747 -23.701126841782241 0 0 0 -1 I I #
face $-1 $-1 $377 $35 $-1 $378 reversed single #
loop $-1 $-1 $379 $154 #
plane-surface $-1 0 34.087986428468099 0 0 -1 0 0 0 -1 forward_v I I I I #
coedge $-1 $380 $157 $159 $264 forward $97 $-1 #
coedge $-1 $157 $380 $379 $381 reversed $97 $-1 #
coedge $-1 $382 $160 $157 $261 forward $155 $-1 #
edge $-1 $267 12.288400324176386 $383 18.629190844253266 $260 $384 forward 7 unknown #
coedge $-1 $385 $386 $158 $263 forward $377 $-1 #
edge $-1 $387 -27.026372076108604 $266 -23.522831851454423 $262 $388 forward 7 unknown #
edge $-1 $267 -4.1774927189816218 $387 -1.2808562293387176e-014 $159 $389 forward 7 unknown #
coedge $-1 $160 $382 $385 $390 forward $155 $-1 #
vertex $-1 $263 $391 #
vertex $-1 $161 $392 #
straight-curve $-1 -73.305563153115955 27.747195908391213 9.0996312536945858 1 0 0 I I #
coedge $-1 $269 $269 $-1 $393 reversed $164 $-1 #
edge $-1 $394 0 $394 6.2831853071796004 $165 $395 forward 7 unknown #
vertex $-1 $168 $396 #
ellipse-curve $-1 -53.622359147092062 29.558850342698896 7.3478611413674937 -0.83867057594974714 0 0.54463902268945019 0.2723195113447251 0 0.41933528797487357 1 I I #
coedge $-1 $273 $273 $-1 $397 reversed $171 $-1 #
edge $-1 $398 0 $398 6.2831853071796004 $172 $399 forward 7 unknown #
vertex $-1 $175 $400 #
ellipse-curve $-1 -53.622359147092062 32.276331994160415 7.3478611413674937 -0.83867057594974714 0 0.54463902268945019 0.2723195113447251 0 0.41933528797487357 1 I I #
face $-1 $-1 $289 $38 $-1 $401 forward single #
loop $-1 $-1 $402 $176 #
plane-surface $-1 54.759971922971282 0 0 -1 0 0 0 0 1 forward_v I I I I #
coedge $-1 $403 $404 $405 $406 reversed $177 $-1 #
coedge $-1 $407 $179 $181 $287 forward $111 $-1 #
coedge $-1 $179 $407 $403 $408 forward $111 $-1 #
coedge $-1 $405 $182 $179 $284 forward $289 $-1 #
edge $-1 $291 -1.850081382064932 $409 7.8897991853620617 $283 $410 forward 7 unknown #
coedge $-1 $411 $412 $180 $286 forward $278 $-1 #
edge $-1 $413 -77.364124994499278 $290 -68.326482241658638 $285 $414 forward 7 unknown #
edge $-1 $291 96.268236547758079 $413 109.51994384594256 $181 $415 forward 7 unknown #
coedge $-1 $182 $405 $411 $416 forward $289 $-1 #
loop $-1 $-1 $405 $277 #
vertex $-1 $286 $417 #
vertex $-1 $183 $418 #
straight-curve $-1 24.677289701664233 -1.1697775195836329 9.0996312536945823 -1 0 0 I I #
coedge $-1 $293 $293 $-1 $419 reversed $186 $-1 #
edge $-1 $420 0 $420 6.2831853071796004 $187 $421 forward 7 unknown #
vertex $-1 $190 $422 #
ellipse-curve $-1 49.914129380420412 -8.1268350677457697 4.5808098772742634 0.68199836817093118 0 0.7313536940579346 0.7313536940579346 0 -0.68199836817093118 1 I I #
coedge $-1 $297 $297 $-1 $423 reversed $193 $-1 #
edge $-1 $424 0 $424 6.2831853071796004 $194 $425 forward 7 unknown #
vertex $-1 $197 $426 #
ellipse-curve $-1 49.914129380420412 -3.9526005388484862 4.5808098772742634 0.68199836817093118 0 0.7313536940579346 0.7313536940579346 0 -0.68199836817093118 1 I I #
face $-1 $-1 $313 $41 $-1 $427 forward single #
loop $-1 $-1 $428 $198 #
plane-surface $-1 54.759971922971282 0 0 -1 0 0 0 0 1 forward_v I I I I #
coedge $-1 $429 $430 $431 $432 reversed $199 $-1 #
coedge $-1 $433 $201 $203 $311 forward $125 $-1 #
coedge $-1 $201 $433 $429 $434 forward $125 $-1 #
coedge $-1 $431 $204 $201 $308 forward $313 $-1 #
edge $-1 $315 -16.297359699627517 $435 -6.5574791322005233 $307 $436 forward 7 unknown #
coedge $-1 $437 $438 $202 $310 forward $302 $-1 #
edge $-1 $439 -77.364124994499278 $314 -68.326482241658638 $309 $440 forward 7 unknown #
edge $-1 $315 96.268236547758079 $439 109.51994384594256 $203 $441 forward 7 unknown #
coedge $-1 $204 $431 $437 $442 forward $313 $-1 #
loop $-1 $-1 $431 $301 #
vertex $-1 $310 $443 #
vertex $-1 $205 $444 #
straight-curve $-1 24.677289701664233 27.724779115541537 9.0996312536945823 -1 0 0 I I #
coedge $-1 $317 $317 $-1 $445 reversed $208 $-1 #
edge $-1 $446 0 $446 6.2831853071796004 $209 $447 forward 7 unknown #
vertex $-1 $212 $448 #
ellipse-curve $-1 49.914129380420412 20.767721567379397 4.5808098772742634 0.68199836817093118 0 0.7313536940579346 0.7313536940579346 0 -0.68199836817093118 1 I I #
coedge $-1 $321 $321 $-1 $449 reversed $215 $-1 #
edge $-1 $450 0 $450 6.2831853071796004 $216 $451 forward 7 unknown #
vertex $-1 $219 $452 #
ellipse-curve $-1 49.914129380420412 24.941956096276684 4.5808098772742634 0.68199836817093118 0 0.7313536940579346 0.7313536940579346 0 -0.68199836817093118 1 I I #
face $-1 $-1 $235 $33 $-1 $453 reversed single #
loop $-1 $-1 $341 $220 #
plane-surface $-1 0 34.087986428468099 0 0 -1 0 0 0 -1 forward_v I I I I #
coedge $-1 $454 $339 $342 $455 forward $221 $-1 #
coedge $-1 $345 $223 $224 $333 reversed $139 $-1 #
coedge $-1 $339 $454 $223 $331 reversed $221 $-1 #
edge $-1 $346 -9.0996312536945858 $456 9.0996312536945858 $330 $457 forward 7 unknown #
coedge $-1 $225 $224 $454 $458 forward $89 $-1 #
edge $-1 $337 -54.759971922971282 $456 54.759971922971282 $329 $459 forward 7 unknown #
coedge $-1 $342 $341 $225 $335 reversed $326 $-1 #
edge $-1 $460 -54.759971922971282 $336 54.759971922971282 $334 $461 forward 7 unknown #
vertex $-1 $227 $462 #
vertex $-1 $348 $463 #
straight-curve $-1 54.759971922971282 0 -9.0996312536945858 0 -1 0 I I #
coedge $-1 $328 $330 $228 $340 reversed $221 $-1 #
edge $-1 $343 -34.087986428468099 $346 34.087986428468099 $339 $464 forward 7 unknown #
coedge $-1 $334 $229 $234 $349 forward $326 $-1 #
coedge $-1 $229 $334 $328 $455 reversed $326 $-1 #
vertex $-1 $230 $465 #
straight-curve $-1 0 34.087986428468099 9.0996312536945858 -1 0 0 I I #
coedge $-1 $231 $329 $233 $348 reversed $139 $-1 #
vertex $-1 $340 $466 #
straight-curve $-1 0 -34.087986428468099 9.0996312536945858 1 0 0 I I #
edge $-1 $236 -9.0996312536945858 $337 9.0996312536945858 $233 $467 forward 7 unknown #
edge $-1 $237 -9.0996312536945858 $336 9.0996312536945858 $234 $468 forward 7 unknown #
point $-1 54.759971922971282 -34.087986428468099 9.0996312536945858 #
point $-1 54.759971922971282 34.087986428468099 9.0996312536945858 #
face $-1 $-1 $469 $34 $-1 $470 reversed single #
loop $-1 $-1 $471 $239 #
plane-surface $-1 0 0 -9.0996312536945858 0 0 1 1 0 0 forward_v I I I I #
coedge $-1 $362 $372 $357 $472 forward $240 $-1 #
coedge $-1 $245 $242 $471 $473 reversed $147 $-1 #
coedge $-1 $242 $245 $355 $472 reversed $147 $-1 #
coedge $-1 $474 $475 $242 $359 forward $469 $-1 #
edge $-1 $476 -9.0996312536945858 $477 9.0996312536945858 $358 $478 forward 7 unknown #
coedge $-1 $471 $248 $243 $361 forward $353 $-1 #
edge $-1 $253 -25.765087248418251 $365 -22.692035106716741 $360 $479 forward 7 unknown #
coedge $-1 $250 $355 $244 $363 forward $240 $-1 #
edge $-1 $364 22.692035106716741 $252 25.765087248418251 $362 $480 forward 7 unknown #
vertex $-1 $363 $481 #
vertex $-1 $361 $482 #
straight-curve $-1 -46.920596284284237 -23.701126841782241 0 0 0 -1 I I #
coedge $-1 $475 $474 $247 $368 forward $469 $-1 #
edge $-1 $373 -9.0996312536945858 $370 9.0996312536945858 $367 $483 forward 7 unknown #
coedge $-1 $248 $471 $475 $484 forward $353 $-1 #
vertex $-1 $249 $485 #
straight-curve $-1 -49.993648425985747 -14.447278317562585 -9.0996312536945858 0 1 0 I I #
coedge $-1 $355 $250 $474 $486 forward $240 $-1 #
vertex $-1 $486 $487 #
straight-curve $-1 -49.993648425985747 -14.447278317562585 9.0996312536945858 0 -1 0 I I #
point $-1 -49.993648425985747 -23.701126841782241 9.0996312536945858 #
point $-1 -49.993648425985747 -23.701126841782241 -9.0996312536945858 #
loop $-1 $-1 $262 $255 #
plane-surface $-1 -54.759971922971282 0 0 1 0 0 0 0 -1 forward_v I I I I #
coedge $-1 $488 $489 $259 $381 forward $256 $-1 #
coedge $-1 $259 $258 $386 $490 reversed $97 $-1 #
edge $-1 $383 8.3880776331365254 $491 12.565570352118135 $379 $492 forward 7 unknown #
coedge $-1 $265 $260 $489 $493 forward $155 $-1 #
vertex $-1 $493 $494 #
straight-curve $-1 -52.484746371212843 15.458795584214826 9.0996312536945858 0 1 0 I I #
coedge $-1 $495 $262 $265 $390 reversed $377 $-1 #
coedge $-1 $262 $495 $380 $490 forward $377 $-1 #
vertex $-1 $263 $496 #
straight-curve $-1 -54.759971922971282 27.747195908391213 32.622463105149009 0 0 1 I I #
straight-curve $-1 -54.759971922971289 27.747195908391213 5.5960910290403945 -0.54463902268945019 0 -0.83867057594974714 I I #
edge $-1 $497 -34.087986428468099 $266 -27.747195908391213 $385 $498 forward 7 unknown #
point $-1 -54.759971922971282 27.747195908391213 9.0996312536945858 #
point $-1 -52.484746371212843 27.747195908391213 9.0996312536945858 #
edge $-1 $499 1 $499 0 $269 $-1 forward 7 unknown #
vertex $-1 $270 $500 #
ellipse-curve $-1 -51.977382842242598 29.558850342698896 6.2796010727393092 -0.83867057594974714 0 0.54463902268945019 0.2723195113447251 0 0.41933528797487357 1 I I #
point $-1 -53.350039635747336 29.558850342698896 7.7671964293423637 #
edge $-1 $501 1 $501 0 $273 $-1 forward 7 unknown #
vertex $-1 $274 $502 #
ellipse-curve $-1 -51.977382842242598 32.276331994160415 6.2796010727393092 -0.83867057594974714 0 0.54463902268945019 0.2723195113447251 0 0.41933528797487357 1 I I #
point $-1 -53.350039635747336 32.276331994160415 7.7671964293423637 #
plane-surface $-1 0 0 9.0996312536945858 0 0 1 1 0 0 forward_v I I I I #
coedge $-1 $412 $411 $404 $503 forward $278 $-1 #
coedge $-1 $404 $280 $282 $408 reversed $177 $-1 #
coedge $-1 $280 $403 $402 $503 reversed $177 $-1 #
coedge $-1 $288 $283 $280 $406 forward $289 $-1 #
edge $-1 $409 20.390997136205325 $504 30.082682221307049 $405 $505 forward 7 unknown #
coedge $-1 $282 $281 $412 $506 reversed $111 $-1 #
edge $-1 $507 -109.51994384594256 $409 -96.268236547758079 $403 $508 forward 7 unknown #
vertex $-1 $284 $509 #
straight-curve $-1 45.06828683786955 -3.0198589016485649 9.0996312536945894 0 -1 0 I I #
coedge $-1 $402 $285 $288 $416 reversed $278 $-1 #
coedge $-1 $285 $402 $407 $506 forward $278 $-1 #
vertex $-1 $286 $510 #
straight-curve $-1 54.759971922971282 -1.1697775195836329 77.426113495353221 0 0 1 I I #
straight-curve $-1 -25.337843581776376 -1.1697775195836329 74.754411485958784 0.7313536940579346 0 -0.68199836817093118 I I #
edge $-1 $504 -10.909658087010627 $290 -1.1697775195836329 $411 $511 forward 7 unknown #
point $-1 54.759971922971282 -1.1697775195836329 9.0996312536945858 #
point $-1 45.068286837869557 -1.1697775195836329 9.0996312536945823 #
edge $-1 $512 1 $512 0 $293 $-1 forward 7 unknown #
vertex $-1 $294 $513 #
ellipse-curve $-1 47.671674954115403 -8.1268350677457697 2.1760719703007245 0.68199836817093118 0 0.7313536940579346 0.7313536940579346 0 -0.68199836817093118 1 I I #
point $-1 50.645483074478342 -8.1268350677457697 3.89881150910333 #
edge $-1 $514 1 $514 0 $297 $-1 forward 7 unknown #
vertex $-1 $298 $515 #
ellipse-curve $-1 47.671674954115403 -3.9526005388484862 2.1760719703007245 0.68199836817093118 0 0.7313536940579346 0.7313536940579346 0 -0.68199836817093118 1 I I #
point $-1 50.645483074478342 -3.9526005388484862 3.89881150910333 #
plane-surface $-1 0 0 9.0996312536945858 0 0 1 1 0 0 forward_v I I I I #
coedge $-1 $438 $437 $430 $516 forward $302 $-1 #
coedge $-1 $430 $304 $306 $434 reversed $199 $-1 #
coedge $-1 $304 $429 $428 $516 reversed $199 $-1 #
coedge $-1 $312 $307 $304 $432 forward $313 $-1 #
edge $-1 $435 20.390997136205325 $517 30.082682221307049 $431 $518 forward 7 unknown #
coedge $-1 $306 $305 $438 $519 reversed $125 $-1 #
edge $-1 $520 -109.51994384594256 $435 -96.268236547758079 $429 $521 forward 7 unknown #
vertex $-1 $308 $522 #
straight-curve $-1 45.06828683786955 11.42741941591402 9.0996312536945894 0 -1 0 I I #
coedge $-1 $428 $309 $312 $442 reversed $302 $-1 #
coedge $-1 $309 $428 $433 $519 forward $302 $-1 #
vertex $-1 $310 $523 #
straight-curve $-1 54.759971922971282 27.724779115541537 77.426113495353221 0 0 1 I I #
straight-curve $-1 -25.337843581776376 27.724779115541537 74.754411485958784 0.7313536940579346 0 -0.68199836817093118 I I #
edge $-1 $517 17.984898548114543 $314 27.724779115541537 $437 $524 forward 7 unknown #
point $-1 54.759971922971282 27.724779115541537 9.0996312536945858 #
point $-1 45.068286837869557 27.724779115541537 9.0996312536945823 #
edge $-1 $525 1 $525 0 $317 $-1 forward 7 unknown #
vertex $-1 $318 $526 #
ellipse-curve $-1 47.671674954115403 20.767721567379397 2.1760719703007245 0.68199836817093118 0 0.7313536940579346 0.7313536940579346 0 -0.68199836817093118 1 I I #
point $-1 50.645483074478342 20.767721567379397 3.89881150910333 #
edge $-1 $527 1 $527 0 $321 $-1 forward 7 unknown #
vertex $-1 $322 $528 #
ellipse-curve $-1 47.671674954115403 24.941956096276684 2.1760719703007245 0.68199836817093118 0 0.7313536940579346 0.7313536940579346 0 -0.68199836817093118 1 I I #
point $-1 50.645483074478342 24.941956096276684 3.89881150910333 #
plane-surface $-1 54.759971922971282 0 0 -1 0 0 0 0 1 forward_v I I I I #
coedge $-1 $330 $328 $332 $458 reversed $221 $-1 #
edge $-1 $343 -9.0996312536945858 $460 9.0996312536945858 $342 $529 forward 7 unknown #
vertex $-1 $458 $530 #
straight-curve $-1 -54.759971922971282 -34.087986428468099 0 0 0 -1 I I #
edge $-1 $456 -34.087986428468099 $460 34.087986428468099 $454 $531 forward 7 unknown #
straight-curve $-1 0 -34.087986428468099 -9.0996312536945858 -1 0 0 I I #
vertex $-1 $335 $532 #
straight-curve $-1 0 34.087986428468099 -9.0996312536945858 1 0 0 I I #
point $-1 54.759971922971282 34.087986428468099 -9.0996312536945858 #
point $-1 54.759971922971282 -34.087986428468099 -9.0996312536945858 #
straight-curve $-1 -54.759971922971282 0 9.0996312536945858 0 -1 0 I I #
point $-1 -54.759971922971282 34.087986428468099 9.0996312536945858 #
point $-1 -54.759971922971282 -34.087986428468099 9.0996312536945858 #
straight-curve $-1 54.759971922971282 -34.087986428468099 0 0 0 -1 I I #
straight-curve $-1 54.759971922971282 34.087986428468099 0 0 0 -1 I I #
loop $-1 $-1 $358 $352 #
plane-surface $-1 0 -34.087986428468099 0 0 1 0 0 0 1 forward_v I I I I #
coedge $-1 $369 $360 $356 $473 forward $353 $-1 #
edge $-1 $477 -19.640708110905514 $364 -9.2538485242196558 $355 $533 forward 7 unknown #
edge $-1 $365 9.2538485242196558 $476 19.640708110905514 $471 $534 forward 7 unknown #
coedge $-1 $367 $358 $372 $486 reversed $469 $-1 #
coedge $-1 $358 $367 $369 $484 reversed $469 $-1 #
vertex $-1 $484 $535 #
vertex $-1 $359 $536 #
straight-curve $-1 -46.920596284284237 -34.087986428468099 0 0 0 1 I I #
straight-curve $-1 -24.228561177567496 -23.701126841782241 -9.0996312536945858 1 0 0 I I #
straight-curve $-1 -24.228561177567496 -23.701126841782241 9.0996312536945858 -1 0 0 I I #
point $-1 -46.920596284284237 -23.701126841782241 9.0996312536945858 #
point $-1 -46.920596284284237 -23.701126841782241 -9.0996312536945858 #
straight-curve $-1 -49.993648425985747 -34.087986428468099 0 0 0 -1 I I #
edge $-1 $476 46.920596284284237 $370 49.993648425985747 $475 $537 forward 7 unknown #
point $-1 -49.993648425985747 -34.087986428468099 -9.0996312536945858 #
edge $-1 $373 -49.993648425985747 $477 -46.920596284284237 $474 $538 forward 7 unknown #
point $-1 -49.993648425985747 -34.087986428468099 9.0996312536945858 #
coedge $-1 $489 $379 $495 $539 reversed $256 $-1 #
coedge $-1 $379 $488 $382 $493 reversed $256 $-1 #
edge $-1 $491 -18.629190844253266 $387 -12.288400324176386 $386 $540 forward 7 unknown #
vertex $-1 $381 $541 #
straight-curve $-1 -47.916271966858133 34.087986428468099 16.13446515338839 -0.54463902268945019 0 -0.83867057594974714 I I #
edge $-1 $383 52.484746371212843 $497 54.759971922971282 $489 $542 forward 7 unknown #
point $-1 -52.484746371212843 34.087986428468092 9.0996312536945858 #
coedge $-1 $386 $385 $488 $539 forward $377 $-1 #
point $-1 -54.759971922971282 27.747195908391213 5.5960910290404051 #
vertex $-1 $493 $543 #
straight-curve $-1 -54.759971922971282 0 9.0996312536945858 0 -1 0 I I #
vertex $-1 $393 $544 #
point $-1 -51.705063330897872 29.558850342698896 6.6989363607141827 #
vertex $-1 $397 $545 #
point $-1 -51.705063330897872 32.276331994160415 6.6989363607141827 #
edge $-1 $504 68.326482241658638 $507 77.364124994499278 $402 $546 forward 7 unknown #
vertex $-1 $416 $547 #
straight-curve $-1 24.677289701664233 -10.909658087010627 9.0996312536945823 1 0 0 I I #
edge $-1 $507 -7.8897991853620617 $413 1.850081382064932 $412 $548 forward 7 unknown #
vertex $-1 $506 $549 #
straight-curve $-1 -25.337843581776376 -10.909658087010627 74.754411485958784 -0.7313536940579346 0 0.68199836817093118 I I #
point $-1 45.068286837869557 -10.909658087010627 9.0996312536945823 #
point $-1 54.759971922971282 -1.1697775195836329 0.061988500853942696 #
straight-curve $-1 54.759971922971282 0 9.0996312536945858 0 1 0 I I #
vertex $-1 $419 $550 #
point $-1 48.403028648173333 -8.1268350677457697 1.4940736021297931 #
vertex $-1 $423 $551 #
point $-1 48.403028648173333 -3.9526005388484862 1.4940736021297931 #
edge $-1 $517 68.326482241658638 $520 77.364124994499278 $428 $552 forward 7 unknown #
vertex $-1 $442 $553 #
straight-curve $-1 24.677289701664233 17.984898548114543 9.0996312536945823 1 0 0 I I #
edge $-1 $520 6.5574791322005233 $439 16.297359699627517 $438 $554 forward 7 unknown #
vertex $-1 $519 $555 #
straight-curve $-1 -25.337843581776376 17.984898548114543 74.754411485958784 -0.7313536940579346 0 0.68199836817093118 I I #
point $-1 45.068286837869557 17.984898548114543 9.0996312536945823 #
point $-1 54.759971922971282 27.724779115541537 0.061988500853942696 #
straight-curve $-1 54.759971922971282 0 9.0996312536945858 0 1 0 I I #
vertex $-1 $445 $556 #
point $-1 48.403028648173333 20.767721567379397 1.4940736021297931 #
vertex $-1 $449 $557 #
point $-1 48.403028648173333 24.941956096276684 1.4940736021297931 #
straight-curve $-1 -54.759971922971282 34.087986428468099 0 0 0 -1 I I #
point $-1 -54.759971922971282 -34.087986428468099 -9.0996312536945858 #
straight-curve $-1 -54.759971922971282 0 -9.0996312536945858 0 1 0 I I #
point $-1 -54.759971922971282 34.087986428468099 -9.0996312536945858 #
straight-curve $-1 -46.920596284284237 -14.447278317562585 9.0996312536945858 0 1 0 I I #
straight-curve $-1 -46.920596284284237 -14.447278317562585 -9.0996312536945858 0 -1 0 I I #
point $-1 -46.920596284284237 -34.087986428468099 -9.0996312536945858 #
point $-1 -46.920596284284237 -34.087986428468099 9.0996312536945858 #
straight-curve $-1 0 -34.087986428468099 -9.0996312536945858 -1 0 0 I I #
straight-curve $-1 0 -34.087986428468099 9.0996312536945858 1 0 0 I I #
edge $-1 $497 -9.0996312536945858 $491 -5.5960910290404051 $488 $558 forward 7 unknown #
straight-curve $-1 -54.759971922971282 15.458795584214826 5.5960910290404122 0 -1 0 I I #
point $-1 -54.759971922971282 34.087986428468092 5.5960910290404051 #
straight-curve $-1 0 34.087986428468099 9.0996312536945858 -1 0 0 I I #
point $-1 -54.759971922971282 34.087986428468099 9.0996312536945858 #
point $-1 -51.558047554267723 29.558850342698896 6.0072815613945831 #
point $-1 -51.558047554267723 32.276331994160415 6.0072815613945831 #
straight-curve $-1 54.759971922971282 -10.909658087010627 77.426113495353221 0 0 -1 I I #
point $-1 54.759971922971282 -10.909658087010627 9.0996312536945858 #
straight-curve $-1 54.759971922971282 -3.0198589016485649 0.061988500853942696 0 1 0 I I #
point $-1 54.759971922971282 -10.909658087010627 0.061988500853942696 #
point $-1 46.989676585944466 -8.1268350677457697 1.4447182762427897 #
point $-1 46.989676585944466 -3.9526005388484862 1.4447182762427897 #
straight-curve $-1 54.759971922971282 17.984898548114543 77.426113495353221 0 0 -1 I I #
point $-1 54.759971922971282 17.984898548114543 9.0996312536945858 #
straight-curve $-1 54.759971922971282 11.42741941591402 0.061988500853942696 0 1 0 I I #
point $-1 54.759971922971282 17.984898548114543 0.061988500853942696 #
point $-1 46.989676585944466 20.767721567379397 1.4447182762427897 #
point $-1 46.989676585944466 24.941956096276684 1.4447182762427897 #
straight-curve $-1 -54.759971922971282 34.087986428468099 0 0 0 -1 I I #
End-of-ACIS-data 