500 0 8 0           
7 Unknown 11 ACIS 5.0 NT 24 Fri Mar 26 19:04:03 1999 
-1 9.9999999999999995e-007 1e-010 
body $-1 $8 $-1 $9 #
body $-1 $10 $-1 $11 #
body $-1 $12 $-1 $13 #
body $-1 $14 $-1 $15 #
body $-1 $16 $-1 $17 #
body $-1 $18 $-1 $19 #
body $-1 $20 $-1 $21 #
body $-1 $22 $-1 $23 #
lump $-1 $-1 $24 $0 #
transform $-1 1 0 0 0 1 0 0 0 1 40.295419171727652 26.786425087943801 5.4149174822239123 1 rotate no_reflect no_shear #
lump $-1 $-1 $25 $1 #
transform $-1 1 0 0 0 1 0 0 0 1 40.295419171727652 26.786425087943801 5.4149174822239123 1 rotate no_reflect no_shear #
lump $-1 $-1 $26 $2 #
transform $-1 1 0 0 0 1 0 0 0 1 40.295419171727652 26.786425087943801 5.4149174822239123 1 rotate no_reflect no_shear #
lump $-1 $-1 $27 $3 #
transform $-1 1 0 0 0 1 0 0 0 1 40.295419171727652 26.786425087943801 5.4149174822239123 1 rotate no_reflect no_shear #
lump $-1 $-1 $28 $4 #
transform $-1 1 0 0 0 1 0 0 0 1 40.295419171727652 26.786425087943801 5.4149174822239123 1 rotate no_reflect no_shear #
lump $-1 $-1 $29 $5 #
transform $-1 1 0 0 0 1 0 0 0 1 40.295419171727652 26.786425087943801 5.4149174822239123 1 rotate no_reflect no_shear #
lump $-1 $-1 $30 $6 #
transform $-1 1 0 0 0 1 0 0 0 1 40.295419171727652 26.786425087943801 5.4149174822239123 1 rotate no_reflect no_shear #
lump $-1 $-1 $31 $7 #
transform $-1 1 0 0 0 1 0 0 0 1 40.295419171727652 26.786425087943801 5.4149174822239123 1 rotate no_reflect no_shear #
shell $-1 $-1 $-1 $32 $-1 $8 #
shell $-1 $-1 $-1 $33 $-1 $10 #
shell $-1 $-1 $-1 $34 $-1 $12 #
shell $-1 $-1 $-1 $35 $-1 $14 #
shell $-1 $-1 $-1 $36 $-1 $16 #
shell $-1 $-1 $-1 $37 $-1 $18 #
shell $-1 $-1 $-1 $38 $-1 $20 #
shell $-1 $-1 $-1 $39 $-1 $22 #
face $-1 $40 $41 $24 $-1 $42 forward single #
face $-1 $43 $44 $25 $-1 $45 reversed single #
face $-1 $46 $47 $26 $-1 $48 reversed single #
face $-1 $49 $50 $27 $-1 $51 forward single #
face $-1 $52 $53 $28 $-1 $54 forward single #
face $-1 $55 $56 $29 $-1 $57 reversed single #
face $-1 $58 $59 $30 $-1 $60 forward single #
face $-1 $61 $62 $31 $-1 $63 forward single #
face $-1 $64 $65 $24 $-1 $66 reversed single #
loop $-1 $-1 $67 $32 #
plane-surface $-1 0 0 5.4149174822239123 0 0 1 1 0 0 forward_v I I I I #
face $-1 $68 $69 $25 $-1 $70 reversed single #
loop $-1 $-1 $71 $33 #
plane-surface $-1 -37.210527445162327 0 2.4149174822239123 0 0 1 1 0 0 forward_v I I I I #
face $-1 $72 $73 $26 $-1 $74 reversed single #
loop $-1 $-1 $75 $34 #
plane-surface $-1 17.340523751540541 -77.503883619068588 64.58985528802603 -1 0 0 0 -0.62932039886446345 0.77714595512881146 forward_v I I I I #
face $-1 $76 $77 $27 $-1 $78 forward single #
loop $-1 $79 $80 $35 #
cone-surface $-1 7.7950741731497999 -23.713344005548514 2.5271036149440151 0 0.62932039886446345 -0.77714595512881146 1 0 0 1 I I 0 1 1 forward I I I I #
face $-1 $81 $82 $28 $-1 $83 forward single #
loop $-1 $84 $85 $36 #
cone-surface $-1 13.522343920184248 -23.713344005548514 2.5271036149440151 0 0.62932039886446345 -0.77714595512881146 1 0 0 1 I I 0 1 1 forward I I I I #
face $-1 $86 $87 $29 $-1 $88 reversed single #
loop $-1 $-1 $89 $37 #
plane-surface $-1 -30.298289893576996 -15.429556628862066 34.02094781155705 0 0.61566148304635926 0.78801074757464917 1 0 0 forward_v I I I I #
face $-1 $90 $91 $30 $-1 $92 forward single #
loop $-1 $93 $94 $38 #
cone-surface $-1 -31.938580961442714 23.179623371777911 2.1951406265054549 0 -0.61566148304635926 -0.78801074757464917 1 0 0 1 I I 0 1 1 forward I I I I #
face $-1 $95 $96 $31 $-1 $97 forward single #
loop $-1 $98 $99 $39 #
cone-surface $-1 -28.657998825711278 23.179623371777911 2.1951406265054549 0 -0.61566148304635926 -0.78801074757464917 1 0 0 1 I I 0 1 1 forward I I I I #
face $-1 $100 $101 $24 $-1 $102 reversed single #
loop $-1 $-1 $103 $40 #
plane-surface $-1 0 0 -5.4149174822239123 0 0 1 1 0 0 forward_v I I I I #
coedge $-1 $104 $105 $106 $107 forward $41 $-1 #
face $-1 $108 $109 $25 $-1 $110 reversed single #
loop $-1 $-1 $111 $43 #
plane-surface $-1 -34.125635718597003 0 3.9149174822239123 -1 0 0 0 0 1 forward_v I I I I #
coedge $-1 $112 $113 $114 $115 forward $44 $-1 #
face $-1 $116 $117 $26 $-1 $118 reversed single #
loop $-1 $-1 $119 $46 #
plane-surface $-1 10.65870904666702 -26.786425087943805 1.9590112489698157 0 -0.62932039886446345 0.77714595512881146 1 0 0 forward_v I I I I #
coedge $-1 $120 $121 $122 $123 reversed $47 $-1 #
face $-1 $-1 $124 $27 $-1 $125 forward single #
loop $-1 $126 $127 $49 #
cone-surface $-1 7.7950741731497999 -22.459447070196966 0.97866988672676225 0 0.62932039886446345 -0.77714595512881146 0.5 0 0 1 I I -0.70710678118654768 0.70710678118654735 0.5 forward I I I I #
loop $-1 $-1 $128 $35 #
coedge $-1 $80 $80 $129 $130 reversed $50 $-1 #
face $-1 $-1 $131 $28 $-1 $132 forward single #
loop $-1 $133 $134 $52 #
cone-surface $-1 13.522343920184248 -22.459447070196966 0.97866988672676225 0 0.62932039886446345 -0.77714595512881146 0.5 0 0 1 I I -0.70710678118654768 0.70710678118654735 0.5 forward I I I I #
loop $-1 $-1 $135 $36 #
coedge $-1 $85 $85 $136 $137 reversed $53 $-1 #
face $-1 $138 $139 $29 $-1 $140 forward single #
loop $-1 $-1 $141 $55 #
plane-surface $-1 -26.470944068556989 34.187118425619019 97.527394582250963 -1 0 0 0 0.61566148304635926 0.78801074757464917 forward_v I I I I #
coedge $-1 $142 $143 $144 $145 reversed $56 $-1 #
face $-1 $-1 $146 $30 $-1 $147 forward single #
loop $-1 $148 $149 $58 #
cone-surface $-1 -31.938580961442714 22.065957567062075 0.76971342748678939 0 -0.61566148304635926 -0.78801074757464917 0.5 0 0 1 I I -0.70710678118654746 0.70710678118654746 0.5 forward I I I I #
loop $-1 $-1 $150 $38 #
coedge $-1 $94 $94 $151 $152 reversed $59 $-1 #
face $-1 $-1 $153 $31 $-1 $154 forward single #
loop $-1 $155 $156 $61 #
cone-surface $-1 -28.657998825711278 22.065957567062075 0.76971342748678939 0 -0.61566148304635926 -0.78801074757464917 0.5 0 0 1 I I -0.70710678118654746 0.70710678118654746 0.5 forward I I I I #
loop $-1 $-1 $157 $39 #
coedge $-1 $99 $99 $158 $159 reversed $62 $-1 #
face $-1 $160 $161 $24 $-1 $162 reversed single #
loop $-1 $-1 $163 $64 #
plane-surface $-1 0 -26.786425087943801 0 0 1 0 0 0 1 forward_v I I I I #
coedge $-1 $164 $165 $166 $167 forward $65 $-1 #
coedge $-1 $168 $67 $169 $170 forward $41 $-1 #
coedge $-1 $67 $168 $171 $172 forward $41 $-1 #
coedge $-1 $173 $174 $67 $107 reversed $175 $-1 #
edge $-1 $176 -26.786425087943801 $177 26.786425087943801 $106 $178 forward 7 unknown #
face $-1 $179 $180 $25 $-1 $181 reversed single #
loop $-1 $-1 $182 $68 #
plane-surface $-1 0 26.786425087943801 0 0 -1 0 0 0 -1 forward_v I I I I #
coedge $-1 $183 $184 $185 $186 reversed $69 $-1 #
coedge $-1 $187 $71 $188 $189 reversed $44 $-1 #
coedge $-1 $71 $187 $190 $191 reversed $44 $-1 #
coedge $-1 $184 $183 $71 $115 reversed $69 $-1 #
edge $-1 $192 -26.786425087943801 $193 26.786425087943801 $114 $194 forward 7 unknown #
face $-1 $195 $196 $26 $-1 $197 reversed single #
loop $-1 $-1 $198 $72 #
plane-surface $-1 3.9768943417934999 -77.503883619068588 64.58985528802603 1 0 0 0 0.62932039886446345 -0.77714595512881146 forward_v I I I I #
coedge $-1 $199 $200 $201 $202 reversed $73 $-1 #
coedge $-1 $121 $75 $203 $204 reversed $47 $-1 #
coedge $-1 $75 $120 $199 $205 reversed $47 $-1 #
coedge $-1 $201 $206 $75 $123 forward $207 $-1 #
edge $-1 $208 11.965516721590493 $209 16.233205414542418 $122 $210 forward 7 unknown #
loop $-1 $-1 $129 $76 #
plane-surface $-1 10.65870904666702 -26.786425087943805 1.9590112489698157 0 -0.62932039886446345 0.77714595512881146 1 0 0 forward_v I I I I #
loop $-1 $-1 $211 $49 #
coedge $-1 $127 $127 $128 $212 reversed $77 $-1 #
coedge $-1 $128 $128 $127 $212 forward $79 $-1 #
coedge $-1 $129 $129 $80 $130 forward $124 $-1 #
edge $-1 $213 -8.7219011755458706e-016 $213 6.2831853071795996 $129 $214 forward 7 unknown #
loop $-1 $-1 $136 $81 #
plane-surface $-1 10.65870904666702 -26.786425087943805 1.9590112489698157 0 -0.62932039886446345 0.77714595512881146 1 0 0 forward_v I I I I #
loop $-1 $-1 $215 $52 #
coedge $-1 $134 $134 $135 $216 reversed $82 $-1 #
coedge $-1 $135 $135 $134 $216 forward $84 $-1 #
coedge $-1 $136 $136 $85 $137 forward $131 $-1 #
edge $-1 $217 -8.7219011755458706e-016 $217 6.2831853071795996 $136 $218 forward 7 unknown #
face $-1 $219 $220 $29 $-1 $221 reversed single #
loop $-1 $-1 $144 $86 #
plane-surface $-1 0 0 5.4149174822239123 0 0 1 1 0 0 forward_v I I I I #
coedge $-1 $222 $223 $224 $225 reversed $87 $-1 #
coedge $-1 $226 $89 $227 $228 reversed $56 $-1 #
coedge $-1 $89 $226 $222 $229 forward $56 $-1 #
coedge $-1 $224 $230 $89 $145 forward $139 $-1 #
edge $-1 $231 -18.976490771808507 $232 -11.321799121768491 $144 $233 forward 7 unknown #
loop $-1 $-1 $151 $90 #
plane-surface $-1 -30.298289893576996 -15.429556628862066 34.02094781155705 0 0.61566148304635926 0.78801074757464917 1 0 0 forward_v I I I I #
loop $-1 $-1 $234 $58 #
coedge $-1 $149 $149 $150 $235 reversed $91 $-1 #
coedge $-1 $150 $150 $149 $235 forward $93 $-1 #
coedge $-1 $151 $151 $94 $152 forward $146 $-1 #
edge $-1 $236 -8.2022586462352626e-016 $236 6.2831853071795996 $151 $237 forward 7 unknown #
loop $-1 $-1 $158 $95 #
plane-surface $-1 -30.298289893576996 -15.429556628862066 34.02094781155705 0 0.61566148304635926 0.78801074757464917 1 0 0 forward_v I I I I #
loop $-1 $-1 $238 $61 #
coedge $-1 $156 $156 $157 $239 reversed $96 $-1 #
coedge $-1 $157 $157 $156 $239 forward $98 $-1 #
coedge $-1 $158 $158 $99 $159 forward $153 $-1 #
edge $-1 $240 -8.2022586462352626e-016 $240 6.2831853071795996 $158 $241 forward 7 unknown #
face $-1 $242 $243 $24 $-1 $244 reversed single #
loop $-1 $-1 $245 $100 #
plane-surface $-1 -40.295419171727652 0 0 1 0 0 0 0 -1 forward_v I I I I #
coedge $-1 $246 $171 $247 $248 forward $101 $-1 #
coedge $-1 $249 $103 $246 $250 forward $65 $-1 #
coedge $-1 $103 $249 $251 $252 forward $65 $-1 #
coedge $-1 $174 $173 $103 $167 reversed $175 $-1 #
edge $-1 $253 -26.786425087943801 $254 26.786425087943801 $166 $255 forward 7 unknown #
coedge $-1 $105 $104 $256 $257 forward $41 $-1 #
coedge $-1 $258 $259 $104 $170 reversed $243 $-1 #
edge $-1 $177 -40.295419171727652 $260 40.295419171727652 $169 $261 forward 7 unknown #
coedge $-1 $163 $262 $105 $172 reversed $101 $-1 #
edge $-1 $263 -40.295419171727652 $176 40.295419171727652 $171 $264 forward 7 unknown #
coedge $-1 $166 $106 $262 $265 forward $175 $-1 #
coedge $-1 $106 $166 $258 $266 reversed $175 $-1 #
loop $-1 $-1 $173 $242 #
vertex $-1 $107 $267 #
vertex $-1 $107 $268 #
straight-curve $-1 40.295419171727652 0 5.4149174822239123 0 1 0 I I #
face $-1 $269 $270 $25 $-1 $271 forward single #
loop $-1 $-1 $272 $108 #
plane-surface $-1 -40.295419171727652 0 0 1 0 0 0 0 -1 forward_v I I I I #
coedge $-1 $190 $273 $184 $274 forward $109 $-1 #
coedge $-1 $114 $111 $275 $276 reversed $69 $-1 #
coedge $-1 $111 $114 $182 $274 reversed $69 $-1 #
coedge $-1 $277 $278 $111 $186 forward $270 $-1 #
edge $-1 $279 -26.786425087943801 $280 26.786425087943801 $185 $281 forward 7 unknown #
coedge $-1 $113 $112 $272 $282 reversed $44 $-1 #
coedge $-1 $275 $283 $112 $189 forward $284 $-1 #
edge $-1 $285 -21.690155449146488 $193 -15.520371996015839 $188 $286 forward 7 unknown #
coedge $-1 $287 $182 $113 $191 forward $109 $-1 #
edge $-1 $192 15.520371996015839 $288 21.690155449146488 $190 $289 forward 7 unknown #
vertex $-1 $191 $290 #
vertex $-1 $189 $291 #
straight-curve $-1 -34.125635718597003 0 2.4149174822239123 0 -1 0 I I #
face $-1 $-1 $207 $26 $-1 $292 forward single #
loop $-1 $-1 $293 $116 #
plane-surface $-1 0 -26.786425087943801 0 0 1 0 0 0 1 forward_v I I I I #
coedge $-1 $294 $295 $296 $297 reversed $117 $-1 #
coedge $-1 $298 $119 $121 $205 forward $73 $-1 #
coedge $-1 $119 $298 $294 $299 forward $73 $-1 #
coedge $-1 $296 $122 $119 $202 forward $207 $-1 #
edge $-1 $209 -12.011169228207031 $300 1.3524601815400104 $201 $301 forward 7 unknown #
coedge $-1 $302 $303 $120 $204 forward $196 $-1 #
edge $-1 $304 -30.335916395043196 $208 -26.880010161789102 $203 $305 forward 7 unknown #
edge $-1 $209 -5.4914892946262093 $304 -4.5775606565932064e-015 $121 $306 forward 7 unknown #
coedge $-1 $122 $296 $302 $307 forward $207 $-1 #
loop $-1 $-1 $296 $195 #
vertex $-1 $204 $308 #
vertex $-1 $123 $309 #
straight-curve $-1 17.340523751540541 -38.751941809534294 5.4149174822239132 0 1 0 I I #
coedge $-1 $211 $211 $-1 $310 reversed $126 $-1 #
edge $-1 $311 0 $311 6.2831853071796004 $127 $312 forward 7 unknown #
vertex $-1 $130 $313 #
ellipse-curve $-1 7.7950741731497999 -24.652580741467837 3.6869643655968676 0 -0.62932039886446345 0.77714595512881146 1 0 0 1 I I #
coedge $-1 $215 $215 $-1 $314 reversed $133 $-1 #
edge $-1 $315 0 $315 6.2831853071796004 $134 $316 forward 7 unknown #
vertex $-1 $137 $317 #
ellipse-curve $-1 13.522343920184248 -24.652580741467837 3.6869643655968676 0 -0.62932039886446345 0.77714595512881146 1 0 0 1 I I #
face $-1 $-1 $318 $29 $-1 $319 forward single #
loop $-1 $-1 $320 $138 #
plane-surface $-1 0 26.786425087943801 0 0 -1 0 0 0 -1 forward_v I I I I #
coedge $-1 $223 $141 $143 $229 reversed $87 $-1 #
coedge $-1 $141 $222 $320 $321 reversed $87 $-1 #
coedge $-1 $322 $144 $141 $225 forward $139 $-1 #
edge $-1 $232 4.090932569187828 $323 9.6928658751342915 $224 $324 forward 7 unknown #
coedge $-1 $143 $142 $325 $326 reversed $56 $-1 #
coedge $-1 $327 $328 $142 $228 forward $318 $-1 #
edge $-1 $329 -38.225960308362161 $231 -31.11700484907664 $227 $330 forward 7 unknown #
edge $-1 $331 -53.572850175887609 $232 -46.463894716602084 $222 $332 forward 7 unknown #
coedge $-1 $144 $322 $327 $333 forward $139 $-1 #
vertex $-1 $228 $334 #
vertex $-1 $145 $335 #
straight-curve $-1 -15.149144946788498 21.184491781997338 5.4149174822239132 1 0 0 I I #
coedge $-1 $234 $234 $-1 $336 reversed $148 $-1 #
edge $-1 $337 0 $337 6.2831853071796004 $149 $338 forward 7 unknown #
vertex $-1 $152 $339 #
ellipse-curve $-1 -31.938580961442714 23.985458434970568 3.2265624517367941 0 0.61566148304635926 0.78801074757464917 1 0 0 1 I I #
coedge $-1 $238 $238 $-1 $340 reversed $155 $-1 #
edge $-1 $341 0 $341 6.2831853071796004 $156 $342 forward 7 unknown #
vertex $-1 $159 $343 #
ellipse-curve $-1 -28.657998825711278 23.985458434970568 3.2265624517367941 0 0.61566148304635926 0.78801074757464917 1 0 0 1 I I #
face $-1 $-1 $175 $24 $-1 $344 reversed single #
loop $-1 $-1 $258 $160 #
plane-surface $-1 0 26.786425087943801 0 0 -1 0 0 0 -1 forward_v I I I I #
coedge $-1 $345 $256 $259 $346 forward $161 $-1 #
coedge $-1 $262 $163 $164 $250 reversed $101 $-1 #
coedge $-1 $256 $345 $163 $248 reversed $161 $-1 #
edge $-1 $263 -5.4149174822239123 $347 5.4149174822239123 $247 $348 forward 7 unknown #
coedge $-1 $165 $164 $345 $349 forward $65 $-1 #
edge $-1 $254 -40.295419171727652 $347 40.295419171727652 $246 $350 forward 7 unknown #
coedge $-1 $259 $258 $165 $252 reversed $243 $-1 #
edge $-1 $351 -40.295419171727652 $253 40.295419171727652 $251 $352 forward 7 unknown #
vertex $-1 $167 $353 #
vertex $-1 $265 $354 #
straight-curve $-1 40.295419171727652 0 -5.4149174822239123 0 -1 0 I I #
coedge $-1 $245 $247 $168 $257 reversed $161 $-1 #
edge $-1 $260 -26.786425087943801 $263 26.786425087943801 $256 $355 forward 7 unknown #
coedge $-1 $251 $169 $174 $266 forward $243 $-1 #
coedge $-1 $169 $251 $245 $346 reversed $243 $-1 #
vertex $-1 $170 $356 #
straight-curve $-1 0 26.786425087943801 5.4149174822239123 -1 0 0 I I #
coedge $-1 $171 $246 $173 $265 reversed $101 $-1 #
vertex $-1 $257 $357 #
straight-curve $-1 0 -26.786425087943801 5.4149174822239123 1 0 0 I I #
edge $-1 $176 -5.4149174822239123 $254 5.4149174822239123 $173 $358 forward 7 unknown #
edge $-1 $177 -5.4149174822239123 $253 5.4149174822239123 $174 $359 forward 7 unknown #
point $-1 40.295419171727652 -26.786425087943801 5.4149174822239123 #
point $-1 40.295419171727652 26.786425087943801 5.4149174822239123 #
face $-1 $-1 $284 $25 $-1 $360 reversed single #
loop $-1 $-1 $185 $179 #
plane-surface $-1 0 0 5.4149174822239123 0 0 1 1 0 0 forward_v I I I I #
coedge $-1 $361 $362 $187 $282 forward $180 $-1 #
coedge $-1 $182 $287 $277 $363 reversed $109 $-1 #
edge $-1 $280 -3.4574587411119562 $192 -0.45745874111195617 $182 $364 forward 7 unknown #
coedge $-1 $365 $188 $183 $276 forward $284 $-1 #
edge $-1 $193 0.45745874111195617 $279 3.4574587411119562 $275 $366 forward 7 unknown #
coedge $-1 $367 $185 $273 $363 forward $270 $-1 #
coedge $-1 $185 $367 $365 $368 forward $270 $-1 #
vertex $-1 $276 $369 #
vertex $-1 $363 $370 #
straight-curve $-1 -34.125635718597003 0 5.4149174822239123 0 1 0 I I #
edge $-1 $288 -26.786425087943801 $285 26.786425087943801 $272 $371 forward 7 unknown #
coedge $-1 $188 $365 $361 $372 forward $284 $-1 #
loop $-1 $-1 $275 $269 #
vertex $-1 $282 $373 #
straight-curve $-1 -18.605263722581164 -26.786425087943801 2.4149174822239123 1 0 0 I I #
coedge $-1 $273 $190 $362 $374 reversed $109 $-1 #
vertex $-1 $282 $375 #
straight-curve $-1 -18.605263722581164 26.786425087943801 2.4149174822239123 -1 0 0 I I #
point $-1 -34.125635718597003 26.786425087943801 2.4149174822239123 #
point $-1 -34.125635718597003 -26.786425087943801 2.4149174822239123 #
plane-surface $-1 0 0 5.4149174822239123 0 0 1 1 0 0 forward_v I I I I #
coedge $-1 $303 $302 $295 $376 forward $196 $-1 #
coedge $-1 $295 $198 $200 $299 reversed $117 $-1 #
coedge $-1 $198 $294 $293 $376 reversed $117 $-1 #
coedge $-1 $206 $201 $198 $297 forward $207 $-1 #
edge $-1 $300 -16.233205414542418 $377 -11.965516721590493 $296 $378 forward 7 unknown #
coedge $-1 $200 $199 $303 $379 reversed $73 $-1 #
edge $-1 $380 4.5775606565932064e-015 $300 5.4914892946262093 $294 $381 forward 7 unknown #
vertex $-1 $202 $382 #
straight-curve $-1 5.3293545233335102 -22.51873639499188 5.4149174822239114 -1 0 0 I I #
coedge $-1 $293 $203 $206 $307 reversed $196 $-1 #
coedge $-1 $203 $293 $298 $379 forward $196 $-1 #
vertex $-1 $204 $383 #
straight-curve $-1 17.340523751540541 -26.786425087943801 32.294927644013015 0 0 1 I I #
straight-curve $-1 17.340523751540541 -26.786425087943805 1.9590112489698157 0 -0.77714595512881146 -0.62932039886446345 I I #
edge $-1 $377 3.9768943417934999 $208 17.340523751540541 $302 $384 forward 7 unknown #
point $-1 17.340523751540541 -26.786425087943801 5.4149174822239123 #
point $-1 17.340523751540541 -22.518736394991876 5.4149174822239123 #
edge $-1 $385 1 $385 0 $211 $-1 forward 7 unknown #
vertex $-1 $212 $386 #
ellipse-curve $-1 7.7950741731497999 -22.774107269629198 1.3672428642911678 0 -0.62932039886446345 0.77714595512881146 1 0 0 1 I I #
point $-1 8.7950741731497999 -24.652580741467833 3.6869643655968618 #
edge $-1 $387 1 $387 0 $215 $-1 forward 7 unknown #
vertex $-1 $216 $388 #
ellipse-curve $-1 13.522343920184248 -22.774107269629198 1.3672428642911678 0 -0.62932039886446345 0.77714595512881146 1 0 0 1 I I #
point $-1 14.522343920184248 -24.652580741467833 3.6869643655968618 #
loop $-1 $-1 $227 $219 #
plane-surface $-1 -34.125635718597003 0 3.9149174822239123 -1 0 0 0 0 1 forward_v I I I I #
coedge $-1 $325 $389 $223 $321 forward $220 $-1 #
edge $-1 $323 43.348779808901568 $331 47.725489869875808 $320 $390 forward 7 unknown #
coedge $-1 $230 $224 $389 $391 forward $139 $-1 #
vertex $-1 $391 $392 #
straight-curve $-1 -26.470944068556989 17.09355921280951 5.4149174822239132 0 1 0 I I #
coedge $-1 $393 $320 $226 $326 forward $220 $-1 #
edge $-1 $331 11.321799121768491 $329 18.976490771808507 $325 $394 forward 7 unknown #
coedge $-1 $328 $227 $230 $333 reversed $318 $-1 #
coedge $-1 $227 $327 $393 $395 reversed $318 $-1 #
vertex $-1 $395 $396 #
straight-curve $-1 -34.125635718597003 -3.3360424714075316 24.57245883556719 0 -0.78801074757464917 0.61566148304635926 I I #
vertex $-1 $326 $397 #
straight-curve $-1 -26.470944068556989 -15.429556628862066 34.02094781155705 0 -0.78801074757464917 0.61566148304635926 I I #
edge $-1 $398 -26.786425087943801 $231 -21.184491781997338 $230 $399 forward 7 unknown #
point $-1 -34.125635718597003 21.184491781997338 5.4149174822239132 #
point $-1 -26.470944068556989 21.184491781997338 5.4149174822239132 #
edge $-1 $400 1 $400 0 $234 $-1 forward 7 unknown #
vertex $-1 $235 $401 #
ellipse-curve $-1 -31.938580961442714 22.373788308585254 1.163718801274114 0 0.61566148304635926 0.78801074757464917 1 0 0 1 I I #
point $-1 -30.938580961442714 23.985458434970568 3.2265624517367955 #
edge $-1 $402 1 $402 0 $238 $-1 forward 7 unknown #
vertex $-1 $239 $403 #
ellipse-curve $-1 -28.657998825711278 22.373788308585254 1.163718801274114 0 0.61566148304635926 0.78801074757464917 1 0 0 1 I I #
point $-1 -27.657998825711278 23.985458434970568 3.2265624517367955 #
plane-surface $-1 40.295419171727652 0 0 -1 0 0 0 0 1 forward_v I I I I #
coedge $-1 $247 $245 $249 $349 reversed $161 $-1 #
edge $-1 $260 -5.4149174822239123 $351 5.4149174822239123 $259 $404 forward 7 unknown #
vertex $-1 $349 $405 #
straight-curve $-1 -40.295419171727652 -26.786425087943801 0 0 0 -1 I I #
edge $-1 $347 -26.786425087943801 $351 26.786425087943801 $345 $406 forward 7 unknown #
straight-curve $-1 0 -26.786425087943801 -5.4149174822239123 -1 0 0 I I #
vertex $-1 $252 $407 #
straight-curve $-1 0 26.786425087943801 -5.4149174822239123 1 0 0 I I #
point $-1 40.295419171727652 26.786425087943801 -5.4149174822239123 #
point $-1 40.295419171727652 -26.786425087943801 -5.4149174822239123 #
straight-curve $-1 -40.295419171727652 0 5.4149174822239123 0 -1 0 I I #
point $-1 -40.295419171727652 26.786425087943801 5.4149174822239123 #
point $-1 -40.295419171727652 -26.786425087943801 5.4149174822239123 #
straight-curve $-1 40.295419171727652 -26.786425087943801 0 0 0 -1 I I #
straight-curve $-1 40.295419171727652 26.786425087943801 0 0 0 -1 I I #
plane-surface $-1 0 -26.786425087943801 0 0 1 0 0 0 1 forward_v I I I I #
coedge $-1 $408 $272 $283 $372 reversed $180 $-1 #
coedge $-1 $272 $408 $287 $374 forward $180 $-1 #
edge $-1 $280 34.125635718597003 $409 40.295419171727652 $273 $410 forward 7 unknown #
straight-curve $-1 -34.125635718597003 26.786425087943801 1.9574587411119562 0 0 -1 I I #
coedge $-1 $283 $275 $278 $368 reversed $284 $-1 #
straight-curve $-1 -34.125635718597003 -26.786425087943801 1.9574587411119562 0 0 1 I I #
coedge $-1 $278 $277 $408 $411 forward $270 $-1 #
edge $-1 $412 -40.295419171727652 $279 -34.125635718597003 $365 $413 forward 7 unknown #
point $-1 -34.125635718597003 -26.786425087943801 5.4149174822239123 #
point $-1 -34.125635718597003 26.786425087943801 5.4149174822239123 #
straight-curve $-1 -40.295419171727652 0 2.4149174822239123 0 -1 0 I I #
edge $-1 $412 -5.4149174822239123 $285 -2.4149174822239123 $361 $414 forward 7 unknown #
point $-1 -40.295419171727652 -26.786425087943801 2.4149174822239123 #
edge $-1 $409 -5.4149174822239123 $288 -2.4149174822239123 $287 $415 forward 7 unknown #
point $-1 -40.295419171727652 26.786425087943801 2.4149174822239123 #
edge $-1 $377 26.880010161789102 $380 30.335916395043196 $293 $416 forward 7 unknown #
vertex $-1 $307 $417 #
straight-curve $-1 3.9768943417934999 -38.751941809534294 5.4149174822239132 0 -1 0 I I #
edge $-1 $380 -1.3524601815400104 $304 12.011169228207031 $303 $418 forward 7 unknown #
vertex $-1 $379 $419 #
straight-curve $-1 3.9768943417934999 -26.786425087943805 1.9590112489698157 0 0.77714595512881146 0.62932039886446345 I I #
point $-1 3.9768943417934999 -22.518736394991876 5.4149174822239123 #
point $-1 17.340523751540541 -26.786425087943801 1.9590112489698186 #
straight-curve $-1 0 -26.786425087943801 5.4149174822239123 1 0 0 I I #
vertex $-1 $310 $420 #
point $-1 8.7950741731497999 -22.774107269629198 1.3672428642911678 #
vertex $-1 $314 $421 #
point $-1 14.522343920184248 -22.774107269629198 1.3672428642911678 #
coedge $-1 $320 $393 $322 $391 reversed $220 $-1 #
straight-curve $-1 -26.470944068556989 26.786425087943801 48.763697291125482 0 0 -1 I I #
edge $-1 $323 26.470944068556989 $398 34.125635718597003 $389 $422 forward 7 unknown #
point $-1 -26.470944068556989 26.786425087943801 5.4149174822239123 #
coedge $-1 $389 $325 $328 $395 forward $220 $-1 #
straight-curve $-1 -15.149144946788498 26.786425087943801 1.0382074212496804 -1 0 0 I I #
edge $-1 $329 -47.725489869875808 $398 -43.348779808901568 $393 $423 forward 7 unknown #
point $-1 -34.125635718597003 26.786425087943805 1.0382074212496732 #
point $-1 -26.470944068556989 26.786425087943805 1.0382074212496732 #
vertex $-1 $333 $424 #
straight-curve $-1 -34.125635718597003 0 5.4149174822239123 0 -1 0 I I #
vertex $-1 $336 $425 #
point $-1 -30.938580961442714 22.373788308585254 1.163718801274114 #
vertex $-1 $340 $426 #
point $-1 -27.657998825711278 22.373788308585254 1.163718801274114 #
straight-curve $-1 -40.295419171727652 26.786425087943801 0 0 0 -1 I I #
point $-1 -40.295419171727652 -26.786425087943801 -5.4149174822239123 #
straight-curve $-1 -40.295419171727652 0 -5.4149174822239123 0 1 0 I I #
point $-1 -40.295419171727652 26.786425087943801 -5.4149174822239123 #
coedge $-1 $362 $361 $367 $411 reversed $180 $-1 #
vertex $-1 $363 $427 #
straight-curve $-1 0 26.786425087943801 5.4149174822239123 -1 0 0 I I #
edge $-1 $409 -26.786425087943801 $412 26.786425087943801 $408 $428 forward 7 unknown #
vertex $-1 $411 $429 #
straight-curve $-1 0 -26.786425087943801 5.4149174822239123 1 0 0 I I #
straight-curve $-1 -40.295419171727652 -26.786425087943801 0 0 0 -1 I I #
straight-curve $-1 -40.295419171727652 26.786425087943801 0 0 0 -1 I I #
straight-curve $-1 3.9768943417934999 -26.786425087943801 32.294927644013015 0 0 -1 I I #
point $-1 3.9768943417934999 -26.786425087943801 5.4149174822239123 #
straight-curve $-1 5.3293545233335102 -26.786425087943801 1.9590112489698215 1 0 0 I I #
point $-1 3.9768943417934999 -26.786425087943801 1.9590112489698186 #
point $-1 7.7950741731497999 -22.144786870764733 0.59009690916235669 #
point $-1 13.522343920184248 -22.144786870764733 0.59009690916235669 #
straight-curve $-1 0 26.786425087943801 5.4149174822239123 -1 0 0 I I #
straight-curve $-1 -34.125635718597003 26.786425087943801 48.763697291125482 0 0 1 I I #
point $-1 -34.125635718597003 26.786425087943801 5.4149174822239123 #
point $-1 -31.938580961442714 21.758126825538895 0.37570805369946481 #
point $-1 -28.657998825711278 21.758126825538895 0.37570805369946481 #
point $-1 -40.295419171727652 26.786425087943801 5.4149174822239123 #
straight-curve $-1 -40.295419171727652 0 5.4149174822239123 0 -1 0 I I #
point $-1 -40.295419171727652 -26.786425087943801 5.4149174822239123 #
End-of-ACIS-data 