500 0 5 0           
7 Unknown 11 ACIS 5.0 NT 24 Thu Mar 25 18:43:36 1999 
-1 9.9999999999999995e-007 1e-010 
body $-1 $5 $-1 $6 #
body $-1 $7 $-1 $8 #
body $-1 $9 $-1 $10 #
body $-1 $11 $-1 $12 #
body $-1 $13 $-1 $14 #
lump $-1 $-1 $15 $0 #
transform $-1 1 0 0 0 1 0 0 0 1 68.03308206427198 30.26410140645287 12.471207484687962 1 rotate no_reflect no_shear #
lump $-1 $-1 $16 $1 #
transform $-1 1 0 0 0 1 0 0 0 1 68.03308206427198 30.26410140645287 12.471207484687962 1 rotate no_reflect no_shear #
lump $-1 $-1 $17 $2 #
transform $-1 1 0 0 0 1 0 0 0 1 68.03308206427198 30.26410140645287 12.471207484687962 1 rotate no_reflect no_shear #
lump $-1 $-1 $18 $3 #
transform $-1 1 0 0 0 1 0 0 0 1 68.03308206427198 30.26410140645287 12.471207484687962 1 rotate no_reflect no_shear #
lump $-1 $-1 $19 $4 #
transform $-1 1 0 0 0 1 0 0 0 1 68.03308206427198 30.26410140645287 12.471207484687962 1 rotate no_reflect no_shear #
shell $-1 $-1 $-1 $20 $-1 $5 #
shell $-1 $-1 $-1 $21 $-1 $7 #
shell $-1 $-1 $-1 $22 $-1 $9 #
shell $-1 $-1 $-1 $23 $-1 $11 #
shell $-1 $-1 $-1 $24 $-1 $13 #
face $-1 $25 $26 $15 $-1 $27 forward single #
face $-1 $28 $29 $16 $-1 $30 reversed single #
face $-1 $31 $32 $17 $-1 $33 forward single #
face $-1 $34 $35 $18 $-1 $36 reversed single #
face $-1 $37 $38 $19 $-1 $39 forward single #
face $-1 $40 $41 $15 $-1 $42 reversed single #
loop $-1 $-1 $43 $20 #
plane-surface $-1 0 0 12.471207484687962 0 0 1 1 0 0 forward_v I I I I #
face $-1 $44 $45 $16 $-1 $46 reversed single #
loop $-1 $-1 $47 $21 #
plane-surface $-1 -38.097031042845359 97.915740830662131 142.09515332457653 -1 0 0 0 0.77714596973225614 0.62932038083071107 forward_v I I I I #
face $-1 $48 $49 $17 $-1 $50 forward single #
loop $-1 $51 $52 $22 #
cone-surface $-1 -53.065056553558669 28.429432605365513 10.4614853995967 0 -0.77714596973225614 -0.62932038083071107 0.5 0 0 1 I I 0 1 0.5 forward I I I I #
face $-1 $53 $54 $18 $-1 $55 reversed single #
loop $-1 $-1 $56 $23 #
plane-surface $-1 53.065056553558676 -7.8275302387634866 56.465943097027207 0 0.77714596973225614 0.62932038083071107 1 0 0 forward_v I I I I #
face $-1 $57 $58 $19 $-1 $59 forward single #
loop $-1 $60 $61 $24 #
cone-surface $-1 53.065056553558676 28.429432605365513 10.4614853995967 0 -0.77714596973225614 -0.62932038083071107 0.5 0 0 1 I I 0 1 0.5 forward I I I I #
face $-1 $62 $63 $15 $-1 $64 reversed single #
loop $-1 $-1 $65 $25 #
plane-surface $-1 0 0 -12.471207484687962 0 0 1 1 0 0 forward_v I I I I #
coedge $-1 $66 $67 $68 $69 forward $26 $-1 #
face $-1 $70 $71 $16 $-1 $72 reversed single #
loop $-1 $-1 $73 $28 #
plane-surface $-1 -53.065056553558669 -7.8275302387634866 56.465943097027207 0 0.77714596973225614 0.62932038083071107 1 0 0 forward_v I I I I #
coedge $-1 $74 $75 $76 $77 reversed $29 $-1 #
face $-1 $-1 $78 $17 $-1 $79 forward single #
loop $-1 $80 $81 $31 #
cone-surface $-1 -53.065056553558669 27.633176391634361 9.8166898487212997 0 -0.77714596973225614 -0.62932038083071107 0.25 0 0 1 I I -0.70710678118654746 0.70710678118654746 0.25 forward I I I I #
loop $-1 $-1 $82 $22 #
coedge $-1 $52 $52 $83 $84 reversed $32 $-1 #
face $-1 $85 $86 $18 $-1 $87 forward single #
loop $-1 $-1 $88 $34 #
plane-surface $-1 38.097031042845366 97.915740830662131 142.09515332457653 1 0 0 0 -0.77714596973225614 -0.62932038083071107 forward_v I I I I #
coedge $-1 $89 $90 $91 $92 reversed $35 $-1 #
face $-1 $-1 $93 $19 $-1 $94 forward single #
loop $-1 $95 $96 $37 #
cone-surface $-1 53.065056553558676 27.633176391634361 9.8166898487212997 0 -0.77714596973225614 -0.62932038083071107 0.25 0 0 1 I I -0.70710678118654746 0.70710678118654746 0.25 forward I I I I #
loop $-1 $-1 $97 $24 #
coedge $-1 $61 $61 $98 $99 reversed $38 $-1 #
face $-1 $100 $101 $15 $-1 $102 reversed single #
loop $-1 $-1 $103 $40 #
plane-surface $-1 0 -30.26410140645287 0 0 1 0 0 0 1 forward_v I I I I #
coedge $-1 $104 $105 $106 $107 forward $41 $-1 #
coedge $-1 $108 $43 $109 $110 forward $26 $-1 #
coedge $-1 $43 $108 $111 $112 forward $26 $-1 #
coedge $-1 $113 $114 $43 $69 reversed $115 $-1 #
edge $-1 $116 -30.26410140645287 $117 30.26410140645287 $68 $118 forward 7 unknown #
face $-1 $119 $120 $16 $-1 $121 forward single #
loop $-1 $-1 $76 $44 #
plane-surface $-1 0 30.26410140645287 0 0 -1 0 0 0 -1 forward_v I I I I #
coedge $-1 $122 $123 $124 $125 reversed $45 $-1 #
coedge $-1 $75 $47 $126 $127 reversed $29 $-1 #
coedge $-1 $47 $74 $122 $128 reversed $29 $-1 #
coedge $-1 $124 $129 $47 $77 forward $71 $-1 #
edge $-1 $130 58.576369177600299 $131 61.62088243644736 $76 $132 forward 7 unknown #
loop $-1 $-1 $83 $48 #
plane-surface $-1 -53.065056553558669 -7.8275302387634866 56.465943097027207 0 0.77714596973225614 0.62932038083071107 1 0 0 forward_v I I I I #
loop $-1 $-1 $133 $31 #
coedge $-1 $81 $81 $82 $134 reversed $49 $-1 #
coedge $-1 $82 $82 $81 $134 forward $51 $-1 #
coedge $-1 $83 $83 $52 $84 forward $78 $-1 #
edge $-1 $135 -2.3708622835813796e-015 $135 6.2831853071795978 $83 $136 forward 7 unknown #
face $-1 $137 $138 $18 $-1 $139 reversed single #
loop $-1 $-1 $140 $53 #
plane-surface $-1 0 0 12.471207484687962 0 0 1 1 0 0 forward_v I I I I #
coedge $-1 $141 $142 $143 $144 reversed $54 $-1 #
coedge $-1 $145 $56 $146 $147 reversed $35 $-1 #
coedge $-1 $56 $145 $141 $148 forward $35 $-1 #
coedge $-1 $143 $149 $56 $92 forward $150 $-1 #
edge $-1 $151 -41.500553787492656 $152 -11.564502766066028 $91 $153 forward 7 unknown #
loop $-1 $-1 $98 $57 #
plane-surface $-1 53.065056553558676 -7.8275302387634866 56.465943097027207 0 0.77714596973225614 0.62932038083071107 1 0 0 forward_v I I I I #
loop $-1 $-1 $154 $37 #
coedge $-1 $96 $96 $97 $155 reversed $58 $-1 #
coedge $-1 $97 $97 $96 $155 forward $60 $-1 #
coedge $-1 $98 $98 $61 $99 forward $93 $-1 #
edge $-1 $156 -2.3708622835813796e-015 $156 6.2831853071795978 $98 $157 forward 7 unknown #
face $-1 $158 $159 $15 $-1 $160 reversed single #
loop $-1 $-1 $161 $62 #
plane-surface $-1 -68.03308206427198 0 0 1 0 0 0 0 -1 forward_v I I I I #
coedge $-1 $162 $111 $163 $164 forward $63 $-1 #
coedge $-1 $165 $65 $162 $166 forward $41 $-1 #
coedge $-1 $65 $165 $167 $168 forward $41 $-1 #
coedge $-1 $114 $113 $65 $107 reversed $115 $-1 #
edge $-1 $169 -30.26410140645287 $170 30.26410140645287 $106 $171 forward 7 unknown #
coedge $-1 $67 $66 $172 $173 forward $26 $-1 #
coedge $-1 $174 $175 $66 $110 reversed $159 $-1 #
edge $-1 $117 -68.03308206427198 $176 68.03308206427198 $109 $177 forward 7 unknown #
coedge $-1 $103 $178 $67 $112 reversed $63 $-1 #
edge $-1 $179 -68.03308206427198 $116 68.03308206427198 $111 $180 forward 7 unknown #
coedge $-1 $106 $68 $178 $181 forward $115 $-1 #
coedge $-1 $68 $106 $174 $182 reversed $115 $-1 #
loop $-1 $-1 $113 $158 #
vertex $-1 $69 $183 #
vertex $-1 $69 $184 #
straight-curve $-1 68.03308206427198 0 12.471207484687962 0 1 0 I I #
face $-1 $-1 $185 $16 $-1 $186 reversed single #
loop $-1 $-1 $126 $70 #
plane-surface $-1 0 0 12.471207484687962 0 0 1 1 0 0 forward_v I I I I #
coedge $-1 $187 $73 $75 $128 forward $45 $-1 #
coedge $-1 $73 $187 $188 $189 reversed $45 $-1 #
coedge $-1 $190 $76 $73 $125 forward $71 $-1 #
edge $-1 $131 11.564502766066024 $191 41.500553787492649 $124 $192 forward 7 unknown #
coedge $-1 $193 $194 $74 $127 forward $120 $-1 #
edge $-1 $195 -21.159167168456733 $130 -18.693769008878196 $126 $196 forward 7 unknown #
edge $-1 $131 -60.528202812905732 $195 -56.610646295311028 $75 $197 forward 7 unknown #
coedge $-1 $76 $190 $193 $198 reversed $71 $-1 #
vertex $-1 $198 $199 #
vertex $-1 $77 $200 #
straight-curve $-1 -38.097031042845359 30.264101406452866 71.047576662288265 0 0 -1 I I #
coedge $-1 $133 $133 $-1 $201 reversed $80 $-1 #
edge $-1 $202 0 $202 6.2831853071796004 $81 $203 forward 7 unknown #
vertex $-1 $84 $204 #
ellipse-curve $-1 -53.065056553558669 29.031402326663606 10.94895085526443 0 0.77714596973225614 0.62932038083071107 0.5 0 0 1 I I #
face $-1 $-1 $150 $18 $-1 $205 reversed single #
loop $-1 $-1 $146 $85 #
plane-surface $-1 68.03308206427198 0 0 -1 0 0 0 0 1 forward_v I I I I #
coedge $-1 $206 $207 $142 $208 forward $86 $-1 #
coedge $-1 $142 $88 $90 $148 reversed $54 $-1 #
coedge $-1 $88 $141 $140 $208 reversed $54 $-1 #
coedge $-1 $209 $91 $88 $144 forward $150 $-1 #
edge $-1 $152 -61.62088243644736 $210 -58.576369177600299 $143 $211 forward 7 unknown #
coedge $-1 $90 $89 $206 $212 reversed $35 $-1 #
coedge $-1 $213 $214 $89 $147 forward $138 $-1 #
edge $-1 $215 32.206494087406952 $151 36.124050605001656 $146 $216 forward 7 unknown #
edge $-1 $217 56.610646295311028 $152 60.528202812905732 $141 $218 forward 7 unknown #
coedge $-1 $91 $209 $213 $219 forward $150 $-1 #
loop $-1 $-1 $143 $137 #
vertex $-1 $147 $220 #
vertex $-1 $92 $221 #
straight-curve $-1 26.532528276779338 30.264101406452873 9.4266942258408974 -1 0 0 I I #
coedge $-1 $154 $154 $-1 $222 reversed $95 $-1 #
edge $-1 $223 0 $223 6.2831853071796004 $96 $224 forward 7 unknown #
vertex $-1 $99 $225 #
ellipse-curve $-1 53.065056553558676 29.031402326663606 10.94895085526443 0 0.77714596973225614 0.62932038083071107 0.5 0 0 1 I I #
face $-1 $-1 $115 $15 $-1 $226 reversed single #
loop $-1 $-1 $174 $100 #
plane-surface $-1 0 30.26410140645287 0 0 -1 0 0 0 -1 forward_v I I I I #
coedge $-1 $227 $172 $175 $228 forward $101 $-1 #
coedge $-1 $178 $103 $104 $166 reversed $63 $-1 #
coedge $-1 $172 $227 $103 $164 reversed $101 $-1 #
edge $-1 $179 -12.471207484687962 $229 12.471207484687962 $163 $230 forward 7 unknown #
coedge $-1 $105 $104 $227 $231 forward $41 $-1 #
edge $-1 $170 -68.03308206427198 $229 68.03308206427198 $162 $232 forward 7 unknown #
coedge $-1 $175 $174 $105 $168 reversed $159 $-1 #
edge $-1 $233 -68.03308206427198 $169 68.03308206427198 $167 $234 forward 7 unknown #
vertex $-1 $107 $235 #
vertex $-1 $181 $236 #
straight-curve $-1 68.03308206427198 0 -12.471207484687962 0 -1 0 I I #
coedge $-1 $161 $163 $108 $173 reversed $101 $-1 #
edge $-1 $176 -30.26410140645287 $179 30.26410140645287 $172 $237 forward 7 unknown #
coedge $-1 $167 $109 $114 $182 forward $159 $-1 #
coedge $-1 $109 $167 $161 $228 reversed $159 $-1 #
vertex $-1 $110 $238 #
straight-curve $-1 0 30.26410140645287 12.471207484687962 -1 0 0 I I #
coedge $-1 $111 $162 $113 $181 reversed $63 $-1 #
vertex $-1 $173 $239 #
straight-curve $-1 0 -30.26410140645287 12.471207484687962 1 0 0 I I #
edge $-1 $116 -12.471207484687962 $170 12.471207484687962 $113 $240 forward 7 unknown #
edge $-1 $117 -12.471207484687962 $169 12.471207484687962 $114 $241 forward 7 unknown #
point $-1 68.03308206427198 -30.26410140645287 12.471207484687962 #
point $-1 68.03308206427198 30.26410140645287 12.471207484687962 #
loop $-1 $-1 $188 $119 #
plane-surface $-1 -68.03308206427198 0 0 1 0 0 0 0 -1 forward_v I I I I #
coedge $-1 $123 $122 $194 $242 reversed $45 $-1 #
coedge $-1 $243 $244 $123 $189 forward $185 $-1 #
edge $-1 $191 -36.124050605001663 $245 -32.206494087406952 $188 $246 forward 7 unknown #
coedge $-1 $129 $124 $244 $247 reversed $71 $-1 #
vertex $-1 $125 $248 #
straight-curve $-1 -26.532528276779335 30.264101406452873 9.4266942258408974 -1 0 0 I I #
coedge $-1 $249 $126 $129 $198 forward $120 $-1 #
coedge $-1 $126 $249 $187 $242 forward $120 $-1 #
vertex $-1 $127 $250 #
straight-curve $-1 -38.097031042845359 48.957870415331065 12.471207484687966 0 1 0 I I #
straight-curve $-1 -38.097031042845359 -7.8275302387634866 56.465943097027207 0 -0.62932038083071107 0.77714596973225614 I I #
edge $-1 $130 38.097031042845359 $251 68.03308206427198 $129 $252 forward 7 unknown #
point $-1 -38.097031042845359 30.26410140645287 12.471207484687962 #
point $-1 -38.097031042845359 30.264101406452866 9.4266942258409046 #
edge $-1 $253 1 $253 0 $133 $-1 forward 7 unknown #
vertex $-1 $134 $254 #
ellipse-curve $-1 -53.065056553558669 27.827462884067426 9.9740199439289778 0 0.77714596973225614 0.62932038083071107 0.5 0 0 1 I I #
point $-1 -52.565056553558669 29.031402326663596 10.948950855264423 #
plane-surface $-1 0 30.26410140645287 0 0 -1 0 0 0 -1 forward_v I I I I #
coedge $-1 $255 $140 $145 $212 forward $86 $-1 #
coedge $-1 $140 $255 $209 $256 forward $86 $-1 #
edge $-1 $210 18.693769008878196 $217 21.159167168456733 $140 $257 forward 7 unknown #
coedge $-1 $149 $143 $207 $256 reversed $150 $-1 #
vertex $-1 $144 $258 #
straight-curve $-1 38.097031042845366 30.264101406452866 71.047576662288265 0 0 1 I I #
edge $-1 $217 11.564502766066028 $215 41.500553787492656 $206 $259 forward 7 unknown #
coedge $-1 $214 $146 $149 $219 reversed $138 $-1 #
coedge $-1 $146 $213 $255 $260 reversed $138 $-1 #
vertex $-1 $260 $261 #
straight-curve $-1 68.03308206427198 7.5305001225653427 37.500354563922016 0 0.62932038083071107 -0.77714596973225614 I I #
vertex $-1 $212 $262 #
straight-curve $-1 38.097031042845366 -7.8275302387634866 56.465943097027207 0 0.62932038083071107 -0.77714596973225614 I I #
edge $-1 $263 -12.471207484687962 $151 -9.4266942258409046 $213 $264 forward 7 unknown #
point $-1 68.033082064271994 30.264101406452866 9.4266942258409046 #
point $-1 38.097031042845366 30.264101406452866 9.4266942258409046 #
edge $-1 $265 1 $265 0 $154 $-1 forward 7 unknown #
vertex $-1 $155 $266 #
ellipse-curve $-1 53.065056553558676 27.827462884067426 9.9740199439289778 0 0.77714596973225614 0.62932038083071107 0.5 0 0 1 I I #
point $-1 53.565056553558676 29.031402326663596 10.948950855264423 #
plane-surface $-1 68.03308206427198 0 0 -1 0 0 0 0 1 forward_v I I I I #
coedge $-1 $163 $161 $165 $231 reversed $101 $-1 #
edge $-1 $176 -12.471207484687962 $233 12.471207484687962 $175 $267 forward 7 unknown #
vertex $-1 $231 $268 #
straight-curve $-1 -68.03308206427198 -30.26410140645287 0 0 0 -1 I I #
edge $-1 $229 -30.26410140645287 $233 30.26410140645287 $227 $269 forward 7 unknown #
straight-curve $-1 0 -30.26410140645287 -12.471207484687962 -1 0 0 I I #
vertex $-1 $168 $270 #
straight-curve $-1 0 30.26410140645287 -12.471207484687962 1 0 0 I I #
point $-1 68.03308206427198 30.26410140645287 -12.471207484687962 #
point $-1 68.03308206427198 -30.26410140645287 -12.471207484687962 #
straight-curve $-1 -68.03308206427198 0 12.471207484687962 0 -1 0 I I #
point $-1 -68.03308206427198 30.26410140645287 12.471207484687962 #
point $-1 -68.03308206427198 -30.26410140645287 12.471207484687962 #
straight-curve $-1 68.03308206427198 -30.26410140645287 0 0 0 -1 I I #
straight-curve $-1 68.03308206427198 30.26410140645287 0 0 0 -1 I I #
edge $-1 $245 -41.500553787492649 $195 -11.564502766066024 $194 $271 forward 7 unknown #
coedge $-1 $244 $188 $249 $272 reversed $185 $-1 #
coedge $-1 $188 $243 $190 $247 forward $185 $-1 #
vertex $-1 $189 $273 #
straight-curve $-1 -68.03308206427198 7.5305001225653427 37.500354563922016 0 -0.62932038083071107 0.77714596973225614 I I #
edge $-1 $251 -12.471207484687962 $191 -9.426694225840901 $190 $274 forward 7 unknown #
point $-1 -68.03308206427198 30.26410140645287 9.426694225840901 #
coedge $-1 $194 $193 $243 $272 forward $120 $-1 #
point $-1 -38.097031042845359 27.798703246874332 12.471207484687966 #
vertex $-1 $198 $275 #
straight-curve $-1 0 30.26410140645287 12.471207484687962 -1 0 0 I I #
vertex $-1 $201 $276 #
point $-1 -52.565056553558669 27.827462884067426 9.9740199439289778 #
coedge $-1 $207 $206 $214 $260 forward $86 $-1 #
edge $-1 $263 -68.03308206427198 $210 -38.097031042845366 $209 $277 forward 7 unknown #
straight-curve $-1 38.097031042845366 48.957870415331065 12.471207484687966 0 -1 0 I I #
point $-1 38.097031042845366 30.26410140645287 12.471207484687962 #
straight-curve $-1 26.532528276779338 27.798703246874336 12.471207484687959 1 0 0 I I #
edge $-1 $215 27.798703246874332 $263 30.26410140645287 $214 $278 forward 7 unknown #
point $-1 68.033082064271994 27.798703246874332 12.471207484687966 #
point $-1 38.097031042845366 27.798703246874332 12.471207484687966 #
vertex $-1 $260 $279 #
straight-curve $-1 68.03308206427198 30.26410140645287 0 0 0 -1 I I #
vertex $-1 $222 $280 #
point $-1 53.565056553558676 27.827462884067426 9.9740199439289778 #
straight-curve $-1 -68.03308206427198 30.26410140645287 0 0 0 -1 I I #
point $-1 -68.03308206427198 -30.26410140645287 -12.471207484687962 #
straight-curve $-1 -68.03308206427198 0 -12.471207484687962 0 1 0 I I #
point $-1 -68.03308206427198 30.26410140645287 -12.471207484687962 #
straight-curve $-1 -26.532528276779335 27.798703246874336 12.471207484687959 1 0 0 I I #
edge $-1 $251 -30.26410140645287 $245 -27.798703246874332 $243 $281 forward 7 unknown #
point $-1 -68.03308206427198 27.798703246874332 12.471207484687966 #
straight-curve $-1 -68.03308206427198 30.26410140645287 0 0 0 -1 I I #
point $-1 -68.03308206427198 30.26410140645287 12.471207484687962 #
point $-1 -53.065056553558669 27.438889899201296 9.6593597535136215 #
straight-curve $-1 0 30.26410140645287 12.471207484687962 -1 0 0 I I #
straight-curve $-1 68.03308206427198 0 12.471207484687962 0 1 0 I I #
point $-1 68.03308206427198 30.26410140645287 12.471207484687962 #
point $-1 53.065056553558676 27.438889899201296 9.6593597535136215 #
straight-curve $-1 -68.03308206427198 0 12.471207484687962 0 -1 0 I I #
End-of-ACIS-data 