500 0 6 0           
7 Unknown 11 ACIS 5.0 NT 24 Thu Mar 25 20:48:31 1999 
-1 9.9999999999999995e-007 1e-010 
body $-1 $6 $-1 $7 #
body $-1 $8 $-1 $9 #
body $-1 $10 $-1 $11 #
body $-1 $12 $-1 $13 #
body $-1 $14 $-1 $15 #
body $-1 $16 $-1 $17 #
lump $-1 $-1 $18 $0 #
transform $-1 1 0 0 0 1 0 0 0 1 41.261024811548204 18.63237421274561 8.9918961119720713 1 rotate no_reflect no_shear #
lump $-1 $-1 $19 $1 #
transform $-1 1 0 0 0 1 0 0 0 1 41.261024811548204 18.63237421274561 8.9918961119720713 1 rotate no_reflect no_shear #
lump $-1 $-1 $20 $2 #
transform $-1 1 0 0 0 1 0 0 0 1 41.261024811548204 18.63237421274561 8.9918961119720713 1 rotate no_reflect no_shear #
lump $-1 $-1 $21 $3 #
transform $-1 1 0 0 0 1 0 0 0 1 41.261024811548204 18.63237421274561 8.9918961119720713 1 rotate no_reflect no_shear #
lump $-1 $-1 $22 $4 #
transform $-1 1 0 0 0 1 0 0 0 1 41.261024811548204 18.63237421274561 8.9918961119720713 1 rotate no_reflect no_shear #
lump $-1 $-1 $23 $5 #
transform $-1 1 0 0 0 1 0 0 0 1 41.261024811548204 18.63237421274561 8.9918961119720713 1 rotate no_reflect no_shear #
shell $-1 $-1 $-1 $24 $-1 $6 #
shell $-1 $-1 $-1 $25 $-1 $8 #
shell $-1 $-1 $-1 $26 $-1 $10 #
shell $-1 $-1 $-1 $27 $-1 $12 #
shell $-1 $-1 $-1 $28 $-1 $14 #
shell $-1 $-1 $-1 $29 $-1 $16 #
face $-1 $30 $31 $18 $-1 $32 forward single #
face $-1 $33 $34 $19 $-1 $35 forward single #
face $-1 $36 $37 $20 $-1 $38 reversed single #
face $-1 $39 $40 $21 $-1 $41 forward single #
face $-1 $42 $43 $22 $-1 $44 forward single #
face $-1 $45 $46 $23 $-1 $47 forward single #
face $-1 $48 $49 $18 $-1 $50 reversed single #
loop $-1 $-1 $51 $24 #
plane-surface $-1 0 0 8.9918961119720713 0 0 1 1 0 0 forward_v I I I I #
face $-1 $52 $53 $19 $-1 $54 reversed single #
loop $-1 $-1 $55 $25 #
plane-surface $-1 -41.261024811548204 0 0 1 0 0 0 0 -1 forward_v I I I I #
face $-1 $56 $57 $20 $-1 $58 reversed single #
loop $-1 $-1 $59 $26 #
plane-surface $-1 33.120180358109046 11.789786020672935 116.95219933185109 0 -1 0 -0.6560590369687036 0 -0.75470957328743171 forward_v I I I I #
face $-1 $60 $61 $21 $-1 $62 forward single #
loop $-1 $63 $64 $27 #
cone-surface $-1 35.384380531298511 3.5433909017666885 3.5992228360873133 -0.6560590369687036 0 -0.75470957328743171 0.75470957328743171 0 -0.6560590369687036 1 I I 0 1 1 forward I I I I #
face $-1 $65 $66 $22 $-1 $67 forward single #
loop $-1 $68 $69 $28 #
cone-surface $-1 35.384380531298511 6.6357890713565304 3.5992228360873133 -0.6560590369687036 0 -0.75470957328743171 0.75470957328743171 0 -0.6560590369687036 1 I I 0 1 1 forward I I I I #
face $-1 $70 $71 $23 $-1 $72 forward single #
loop $-1 $73 $74 $29 #
cone-surface $-1 35.384380531298511 9.7281872409463723 3.5992228360873133 -0.6560590369687036 0 -0.75470957328743171 0.75470957328743171 0 -0.6560590369687036 1 I I 0 1 1 forward I I I I #
face $-1 $75 $76 $18 $-1 $77 reversed single #
loop $-1 $-1 $78 $30 #
plane-surface $-1 0 0 -8.9918961119720713 0 0 1 1 0 0 forward_v I I I I #
coedge $-1 $79 $80 $81 $82 forward $31 $-1 #
face $-1 $83 $84 $19 $-1 $85 forward single #
loop $-1 $-1 $86 $33 #
plane-surface $-1 0 18.63237421274561 0 0 -1 0 0 0 -1 forward_v I I I I #
coedge $-1 $87 $88 $89 $90 forward $34 $-1 #
face $-1 $91 $92 $20 $-1 $93 reversed single #
loop $-1 $-1 $94 $36 #
plane-surface $-1 -21.019156046303152 6.6357890713565304 54.672018473999735 0.6560590369687036 0 0.75470957328743171 0.75470957328743171 0 -0.6560590369687036 forward_v I I I I #
coedge $-1 $95 $96 $97 $98 reversed $37 $-1 #
face $-1 $-1 $99 $21 $-1 $100 forward single #
loop $-1 $101 $102 $39 #
cone-surface $-1 34.045312920822518 3.5433909017666885 2.0588017947511084 -0.6560590369687036 0 -0.75470957328743171 0.37735478664371586 0 -0.3280295184843518 1 I I -0.70710678118654746 0.70710678118654746 0.5 forward I I I I #
loop $-1 $-1 $103 $27 #
coedge $-1 $64 $64 $104 $105 reversed $40 $-1 #
face $-1 $-1 $106 $22 $-1 $107 forward single #
loop $-1 $108 $109 $42 #
cone-surface $-1 34.045312920822518 6.6357890713565304 2.0588017947511084 -0.6560590369687036 0 -0.75470957328743171 0.37735478664371586 0 -0.3280295184843518 1 I I -0.70710678118654746 0.70710678118654746 0.5 forward I I I I #
loop $-1 $-1 $110 $28 #
coedge $-1 $69 $69 $111 $112 reversed $43 $-1 #
face $-1 $-1 $113 $23 $-1 $114 forward single #
loop $-1 $115 $116 $45 #
cone-surface $-1 34.045312920822518 9.7281872409463723 2.0588017947511084 -0.6560590369687036 0 -0.75470957328743171 0.37735478664371586 0 -0.3280295184843518 1 I I -0.70710678118654746 0.70710678118654746 0.5 forward I I I I #
loop $-1 $-1 $117 $29 #
coedge $-1 $74 $74 $118 $119 reversed $46 $-1 #
face $-1 $120 $121 $18 $-1 $122 reversed single #
loop $-1 $-1 $123 $48 #
plane-surface $-1 0 -18.63237421274561 0 0 1 0 0 0 1 forward_v I I I I #
coedge $-1 $124 $125 $126 $127 forward $49 $-1 #
coedge $-1 $128 $51 $129 $130 forward $31 $-1 #
coedge $-1 $51 $128 $131 $132 forward $31 $-1 #
coedge $-1 $133 $134 $51 $82 reversed $135 $-1 #
edge $-1 $136 -18.63237421274561 $137 18.63237421274561 $81 $138 forward 7 unknown #
face $-1 $139 $140 $19 $-1 $141 reversed single #
loop $-1 $-1 $89 $52 #
plane-surface $-1 -46.045675657066397 0 -1.8108974643809357 0 0 1 1 0 0 forward_v I I I I #
coedge $-1 $142 $143 $88 $144 forward $53 $-1 #
coedge $-1 $145 $55 $146 $147 reversed $34 $-1 #
coedge $-1 $55 $145 $86 $144 reversed $34 $-1 #
coedge $-1 $148 $149 $55 $90 reversed $84 $-1 #
edge $-1 $150 -18.63237421274561 $151 18.63237421274561 $89 $152 forward 7 unknown #
face $-1 $153 $154 $20 $-1 $155 forward single #
loop $-1 $-1 $156 $56 #
plane-surface $-1 33.120180358109046 1.481792122040126 116.95219933185109 0 1 0 0.6560590369687036 0 0.75470957328743171 forward_v I I I I #
coedge $-1 $157 $158 $159 $160 reversed $57 $-1 #
coedge $-1 $96 $59 $161 $162 reversed $37 $-1 #
coedge $-1 $59 $95 $157 $163 reversed $37 $-1 #
coedge $-1 $159 $164 $59 $98 forward $154 $-1 #
edge $-1 $165 -24.700934632493681 $166 -14.969722255977569 $97 $167 forward 7 unknown #
loop $-1 $-1 $104 $60 #
plane-surface $-1 -21.019156046303152 6.6357890713565304 54.672018473999735 0.6560590369687036 0 0.75470957328743171 0.75470957328743171 0 -0.6560590369687036 forward_v I I I I #
loop $-1 $-1 $168 $39 #
coedge $-1 $102 $102 $103 $169 reversed $61 $-1 #
coedge $-1 $103 $103 $102 $169 forward $63 $-1 #
coedge $-1 $104 $104 $64 $105 forward $99 $-1 #
edge $-1 $170 0 $170 6.2831853071796004 $104 $171 forward 7 unknown #
loop $-1 $-1 $111 $65 #
plane-surface $-1 -21.019156046303152 6.6357890713565304 54.672018473999735 0.6560590369687036 0 0.75470957328743171 0.75470957328743171 0 -0.6560590369687036 forward_v I I I I #
loop $-1 $-1 $172 $42 #
coedge $-1 $109 $109 $110 $173 reversed $66 $-1 #
coedge $-1 $110 $110 $109 $173 forward $68 $-1 #
coedge $-1 $111 $111 $69 $112 forward $106 $-1 #
edge $-1 $174 0 $174 6.2831853071796004 $111 $175 forward 7 unknown #
loop $-1 $-1 $118 $70 #
plane-surface $-1 -21.019156046303152 6.6357890713565304 54.672018473999735 0.6560590369687036 0 0.75470957328743171 0.75470957328743171 0 -0.6560590369687036 forward_v I I I I #
loop $-1 $-1 $176 $45 #
coedge $-1 $116 $116 $117 $177 reversed $71 $-1 #
coedge $-1 $117 $117 $116 $177 forward $73 $-1 #
coedge $-1 $118 $118 $74 $119 forward $113 $-1 #
edge $-1 $178 0 $178 6.2831853071796004 $118 $179 forward 7 unknown #
face $-1 $180 $181 $18 $-1 $182 reversed single #
loop $-1 $-1 $183 $75 #
plane-surface $-1 -41.261024811548204 0 0 1 0 0 0 0 -1 forward_v I I I I #
coedge $-1 $184 $131 $185 $186 forward $76 $-1 #
coedge $-1 $187 $78 $184 $188 forward $49 $-1 #
coedge $-1 $78 $187 $189 $190 forward $49 $-1 #
coedge $-1 $134 $133 $78 $127 reversed $135 $-1 #
edge $-1 $191 -18.63237421274561 $192 18.63237421274561 $126 $193 forward 7 unknown #
coedge $-1 $80 $79 $194 $195 forward $31 $-1 #
coedge $-1 $196 $197 $79 $130 reversed $181 $-1 #
edge $-1 $137 -41.261024811548204 $198 41.261024811548204 $129 $199 forward 7 unknown #
coedge $-1 $123 $200 $80 $132 reversed $76 $-1 #
edge $-1 $201 -41.261024811548204 $136 41.261024811548204 $131 $202 forward 7 unknown #
coedge $-1 $126 $81 $200 $203 forward $135 $-1 #
coedge $-1 $81 $126 $196 $204 reversed $135 $-1 #
loop $-1 $-1 $133 $180 #
vertex $-1 $82 $205 #
vertex $-1 $82 $206 #
straight-curve $-1 41.261024811548204 0 8.9918961119720713 0 1 0 I I #
face $-1 $207 $208 $19 $-1 $209 reversed single #
loop $-1 $-1 $210 $83 #
plane-surface $-1 -46.045675657066397 0 -4.8527252680482107 0 0 1 1 0 0 forward_v I I I I #
coedge $-1 $211 $86 $212 $213 reversed $53 $-1 #
coedge $-1 $86 $211 $148 $214 reversed $53 $-1 #
edge $-1 $150 1.8108974643809357 $215 4.8527252680482107 $86 $216 forward 7 unknown #
coedge $-1 $88 $87 $210 $217 forward $34 $-1 #
coedge $-1 $218 $219 $87 $147 forward $220 $-1 #
edge $-1 $221 -4.8527252680482107 $151 -1.8108974643809357 $146 $222 forward 7 unknown #
coedge $-1 $223 $89 $143 $214 forward $84 $-1 #
coedge $-1 $89 $223 $218 $224 forward $84 $-1 #
vertex $-1 $144 $225 #
vertex $-1 $224 $226 #
straight-curve $-1 -41.261024811548204 0 -1.8108974643809357 0 -1 0 I I #
face $-1 $-1 $227 $20 $-1 $228 reversed single #
loop $-1 $-1 $97 $91 #
plane-surface $-1 0 0 8.9918961119720713 0 0 1 1 0 0 forward_v I I I I #
coedge $-1 $229 $230 $231 $232 reversed $92 $-1 #
coedge $-1 $233 $94 $96 $163 forward $57 $-1 #
coedge $-1 $94 $233 $229 $234 forward $57 $-1 #
coedge $-1 $231 $97 $94 $160 forward $154 $-1 #
edge $-1 $166 -8.4718914849946696 $235 1.8361024136381392 $159 $236 forward 7 unknown #
coedge $-1 $237 $238 $95 $162 forward $227 $-1 #
edge $-1 $239 -57.943417596338008 $165 -49.484203553953478 $161 $240 forward 7 unknown #
edge $-1 $166 69.628066664687623 $239 82.522049623096422 $96 $241 forward 7 unknown #
coedge $-1 $97 $231 $237 $242 forward $154 $-1 #
vertex $-1 $162 $243 #
vertex $-1 $98 $244 #
straight-curve $-1 16.560090179054523 11.789786020672935 8.9918961119720677 -1 0 0 I I #
coedge $-1 $168 $168 $-1 $245 reversed $101 $-1 #
edge $-1 $246 0 $246 6.2831853071796004 $102 $247 forward 7 unknown #
vertex $-1 $105 $248 #
ellipse-curve $-1 36.395418623290155 3.5433909017666885 4.7622890907798014 0.6560590369687036 0 0.75470957328743171 0.75470957328743171 0 -0.6560590369687036 1 I I #
coedge $-1 $172 $172 $-1 $249 reversed $108 $-1 #
edge $-1 $250 0 $250 6.2831853071796004 $109 $251 forward 7 unknown #
vertex $-1 $112 $252 #
ellipse-curve $-1 36.395418623290155 6.6357890713565304 4.7622890907798014 0.6560590369687036 0 0.75470957328743171 0.75470957328743171 0 -0.6560590369687036 1 I I #
coedge $-1 $176 $176 $-1 $253 reversed $115 $-1 #
edge $-1 $254 0 $254 6.2831853071796004 $116 $255 forward 7 unknown #
vertex $-1 $119 $256 #
ellipse-curve $-1 36.395418623290155 9.7281872409463723 4.7622890907798014 0.6560590369687036 0 0.75470957328743171 0.75470957328743171 0 -0.6560590369687036 1 I I #
face $-1 $-1 $135 $18 $-1 $257 reversed single #
loop $-1 $-1 $196 $120 #
plane-surface $-1 0 18.63237421274561 0 0 -1 0 0 0 -1 forward_v I I I I #
coedge $-1 $258 $194 $197 $259 forward $121 $-1 #
coedge $-1 $200 $123 $124 $188 reversed $76 $-1 #
coedge $-1 $194 $258 $123 $186 reversed $121 $-1 #
edge $-1 $201 -8.9918961119720713 $260 8.9918961119720713 $185 $261 forward 7 unknown #
coedge $-1 $125 $124 $258 $262 forward $49 $-1 #
edge $-1 $192 -41.261024811548204 $260 41.261024811548204 $184 $263 forward 7 unknown #
coedge $-1 $197 $196 $125 $190 reversed $181 $-1 #
edge $-1 $264 -41.261024811548204 $191 41.261024811548204 $189 $265 forward 7 unknown #
vertex $-1 $127 $266 #
vertex $-1 $203 $267 #
straight-curve $-1 41.261024811548204 0 -8.9918961119720713 0 -1 0 I I #
coedge $-1 $183 $185 $128 $195 reversed $121 $-1 #
edge $-1 $198 -18.63237421274561 $201 18.63237421274561 $194 $268 forward 7 unknown #
coedge $-1 $189 $129 $134 $204 forward $181 $-1 #
coedge $-1 $129 $189 $183 $259 reversed $181 $-1 #
vertex $-1 $130 $269 #
straight-curve $-1 0 18.63237421274561 8.9918961119720713 -1 0 0 I I #
coedge $-1 $131 $184 $133 $203 reversed $76 $-1 #
vertex $-1 $195 $270 #
straight-curve $-1 0 -18.63237421274561 8.9918961119720713 1 0 0 I I #
edge $-1 $136 -8.9918961119720713 $192 8.9918961119720713 $133 $271 forward 7 unknown #
edge $-1 $137 -8.9918961119720713 $191 8.9918961119720713 $134 $272 forward 7 unknown #
point $-1 41.261024811548204 -18.63237421274561 8.9918961119720713 #
point $-1 41.261024811548204 18.63237421274561 8.9918961119720713 #
face $-1 $-1 $220 $19 $-1 $273 reversed single #
loop $-1 $-1 $274 $139 #
plane-surface $-1 -50.83032650258459 0 -3.3318113662145734 1 0 0 0 0 -1 forward_v I I I I #
coedge $-1 $275 $212 $145 $217 reversed $140 $-1 #
coedge $-1 $143 $142 $274 $276 reversed $53 $-1 #
coedge $-1 $210 $277 $142 $213 forward $140 $-1 #
edge $-1 $278 -4.7846508455181933 $215 4.7846508455181933 $142 $279 forward 7 unknown #
edge $-1 $150 -4.7846508455181933 $280 4.7846508455181933 $143 $281 forward 7 unknown #
vertex $-1 $144 $282 #
straight-curve $-1 -41.261024811548204 18.63237421274561 0 0 0 -1 I I #
edge $-1 $221 -18.63237421274561 $215 18.63237421274561 $210 $283 forward 7 unknown #
coedge $-1 $284 $146 $149 $224 reversed $220 $-1 #
coedge $-1 $146 $284 $275 $285 reversed $220 $-1 #
loop $-1 $-1 $146 $207 #
vertex $-1 $147 $286 #
straight-curve $-1 -41.261024811548204 -18.63237421274561 0 0 0 1 I I #
coedge $-1 $149 $148 $287 $288 forward $84 $-1 #
edge $-1 $289 -4.7846508455181933 $151 4.7846508455181933 $218 $290 forward 7 unknown #
point $-1 -41.261024811548204 18.63237421274561 -1.8108974643809357 #
point $-1 -41.261024811548204 -18.63237421274561 -1.8108974643809357 #
loop $-1 $-1 $161 $153 #
plane-surface $-1 41.261024811548204 0 0 -1 0 0 0 0 1 forward_v I I I I #
coedge $-1 $230 $156 $158 $234 reversed $92 $-1 #
coedge $-1 $156 $229 $291 $292 reversed $92 $-1 #
coedge $-1 $164 $159 $156 $232 forward $154 $-1 #
edge $-1 $235 14.969722255977569 $293 24.700934632493681 $231 $294 forward 7 unknown #
coedge $-1 $158 $157 $238 $295 reversed $57 $-1 #
edge $-1 $296 -82.522049623096422 $235 -69.628066664687623 $229 $297 forward 7 unknown #
vertex $-1 $160 $298 #
straight-curve $-1 31.529812435032099 3.3178945356782652 8.9918961119720748 0 -1 0 I I #
coedge $-1 $291 $161 $164 $242 reversed $227 $-1 #
coedge $-1 $161 $291 $233 $295 forward $227 $-1 #
vertex $-1 $162 $299 #
straight-curve $-1 41.261024811548204 11.789786020672935 58.476099665925545 0 0 1 I I #
straight-curve $-1 -21.019156046303152 11.789786020672935 54.672018473999735 0.75470957328743171 0 -0.6560590369687036 I I #
edge $-1 $293 1.481792122040126 $165 11.789786020672935 $237 $300 forward 7 unknown #
point $-1 41.261024811548204 11.789786020672935 8.9918961119720713 #
point $-1 31.529812435032092 11.789786020672935 8.9918961119720819 #
edge $-1 $301 1 $301 0 $168 $-1 forward 7 unknown #
vertex $-1 $169 $302 #
ellipse-curve $-1 34.373342439306867 3.5433909017666885 2.4361565813948243 0.6560590369687036 0 0.75470957328743171 0.75470957328743171 0 -0.6560590369687036 1 I I #
point $-1 37.150128196577583 3.5433909017666885 4.1062300538110996 #
edge $-1 $303 1 $303 0 $172 $-1 forward 7 unknown #
vertex $-1 $173 $304 #
ellipse-curve $-1 34.373342439306867 6.6357890713565304 2.4361565813948243 0.6560590369687036 0 0.75470957328743171 0.75470957328743171 0 -0.6560590369687036 1 I I #
point $-1 37.150128196577583 6.6357890713565304 4.1062300538110996 #
edge $-1 $305 1 $305 0 $176 $-1 forward 7 unknown #
vertex $-1 $177 $306 #
ellipse-curve $-1 34.373342439306867 9.7281872409463723 2.4361565813948243 0.6560590369687036 0 0.75470957328743171 0.75470957328743171 0 -0.6560590369687036 1 I I #
point $-1 37.150128196577583 9.7281872409463723 4.1062300538110996 #
plane-surface $-1 41.261024811548204 0 0 -1 0 0 0 0 1 forward_v I I I I #
coedge $-1 $185 $183 $187 $262 reversed $121 $-1 #
edge $-1 $198 -8.9918961119720713 $264 8.9918961119720713 $197 $307 forward 7 unknown #
vertex $-1 $262 $308 #
straight-curve $-1 -41.261024811548204 -18.63237421274561 0 0 0 -1 I I #
edge $-1 $260 -18.63237421274561 $264 18.63237421274561 $258 $309 forward 7 unknown #
straight-curve $-1 0 -18.63237421274561 -8.9918961119720713 -1 0 0 I I #
vertex $-1 $190 $310 #
straight-curve $-1 0 18.63237421274561 -8.9918961119720713 1 0 0 I I #
point $-1 41.261024811548204 18.63237421274561 -8.9918961119720713 #
point $-1 41.261024811548204 -18.63237421274561 -8.9918961119720713 #
straight-curve $-1 -41.261024811548204 0 8.9918961119720713 0 -1 0 I I #
point $-1 -41.261024811548204 18.63237421274561 8.9918961119720713 #
point $-1 -41.261024811548204 -18.63237421274561 8.9918961119720713 #
straight-curve $-1 41.261024811548204 -18.63237421274561 0 0 0 -1 I I #
straight-curve $-1 41.261024811548204 18.63237421274561 0 0 0 -1 I I #
plane-surface $-1 0 -18.63237421274561 0 0 1 0 0 0 1 forward_v I I I I #
coedge $-1 $311 $287 $211 $276 forward $208 $-1 #
coedge $-1 $277 $210 $219 $285 forward $140 $-1 #
edge $-1 $280 -1.5209139018336377 $278 1.5209139018336373 $211 $312 forward 7 unknown #
coedge $-1 $212 $275 $311 $313 forward $140 $-1 #
vertex $-1 $213 $314 #
straight-curve $-1 -46.045675657066397 18.63237421274561 -4.8527252680482107 1 0 0 I I #
vertex $-1 $214 $315 #
straight-curve $-1 -46.045675657066397 18.63237421274561 -1.8108974643809357 -1 0 0 I I #
point $-1 -41.261024811548204 18.63237421274561 -4.8527252680482107 #
straight-curve $-1 -41.261024811548204 0 -4.8527252680482107 0 1 0 I I #
coedge $-1 $219 $218 $316 $317 forward $220 $-1 #
edge $-1 $221 -4.7846508455181933 $318 4.7846508455181933 $219 $319 forward 7 unknown #
point $-1 -41.261024811548204 -18.63237421274561 -4.8527252680482107 #
coedge $-1 $274 $316 $223 $288 reversed $208 $-1 #
edge $-1 $280 -18.63237421274561 $289 18.63237421274561 $287 $320 forward 7 unknown #
vertex $-1 $288 $321 #
straight-curve $-1 -46.045675657066397 -18.63237421274561 -1.8108974643809357 1 0 0 I I #
coedge $-1 $238 $237 $230 $292 forward $227 $-1 #
edge $-1 $293 49.484203553953478 $296 57.943417596338008 $291 $322 forward 7 unknown #
vertex $-1 $242 $323 #
straight-curve $-1 16.560090179054523 1.481792122040126 8.9918961119720677 1 0 0 I I #
edge $-1 $296 -1.8361024136381392 $239 8.4718914849946696 $238 $324 forward 7 unknown #
vertex $-1 $295 $325 #
straight-curve $-1 -21.019156046303152 1.481792122040126 54.672018473999735 -0.75470957328743171 0 0.6560590369687036 I I #
point $-1 31.529812435032092 1.481792122040126 8.9918961119720819 #
point $-1 41.261024811548204 11.789786020672935 0.53268206958753694 #
straight-curve $-1 41.261024811548204 0 8.9918961119720713 0 1 0 I I #
vertex $-1 $245 $326 #
point $-1 35.128052012594303 3.5433909017666885 1.7800975444261207 #
vertex $-1 $249 $327 #
point $-1 35.128052012594303 6.6357890713565304 1.7800975444261207 #
vertex $-1 $253 $328 #
point $-1 35.128052012594303 9.7281872409463723 1.7800975444261207 #
straight-curve $-1 -41.261024811548204 18.63237421274561 0 0 0 -1 I I #
point $-1 -41.261024811548204 -18.63237421274561 -8.9918961119720713 #
straight-curve $-1 -41.261024811548204 0 -8.9918961119720713 0 1 0 I I #
point $-1 -41.261024811548204 18.63237421274561 -8.9918961119720713 #
coedge $-1 $316 $274 $277 $313 reversed $208 $-1 #
straight-curve $-1 -50.83032650258459 18.63237421274561 -3.3318113662145734 0 0 -1 I I #
edge $-1 $318 -18.63237421274561 $278 18.63237421274561 $311 $329 forward 7 unknown #
point $-1 -50.83032650258459 18.63237421274561 -4.8527252680482107 #
point $-1 -50.83032650258459 18.63237421274561 -1.8108974643809357 #
coedge $-1 $287 $311 $284 $317 reversed $208 $-1 #
edge $-1 $289 -1.5209139018336377 $318 1.5209139018336373 $316 $330 forward 7 unknown #
vertex $-1 $313 $331 #
straight-curve $-1 -46.045675657066397 -18.63237421274561 -4.8527252680482107 -1 0 0 I I #
straight-curve $-1 -50.83032650258459 0 -1.8108974643809357 0 -1 0 I I #
point $-1 -50.83032650258459 -18.63237421274561 -1.8108974643809357 #
straight-curve $-1 41.261024811548204 1.481792122040126 58.476099665925545 0 0 -1 I I #
point $-1 41.261024811548204 1.481792122040126 8.9918961119720713 #
straight-curve $-1 41.261024811548204 3.3178945356782652 0.53268206958753339 0 1 0 I I #
point $-1 41.261024811548204 1.481792122040126 0.53268206958753694 #
point $-1 33.717283402338168 3.5433909017666885 1.6814470081073924 #
point $-1 33.717283402338168 6.6357890713565304 1.6814470081073924 #
point $-1 33.717283402338168 9.7281872409463723 1.6814470081073924 #
straight-curve $-1 -50.83032650258459 0 -4.8527252680482107 0 1 0 I I #
straight-curve $-1 -50.83032650258459 -18.63237421274561 -3.3318113662145734 0 0 -1 I I #
point $-1 -50.83032650258459 -18.63237421274561 -4.8527252680482107 #
End-of-ACIS-data 