500 0 16 0           
7 Unknown 11 ACIS 5.0 NT 24 Fri Mar 26 15:13:15 1999 
-1 9.9999999999999995e-007 1e-010 
body $-1 $16 $-1 $17 #
body $-1 $18 $-1 $19 #
body $-1 $20 $-1 $21 #
body $-1 $22 $-1 $23 #
body $-1 $24 $-1 $25 #
body $-1 $26 $-1 $27 #
body $-1 $28 $-1 $29 #
body $-1 $30 $-1 $31 #
body $-1 $32 $-1 $33 #
body $-1 $34 $-1 $35 #
body $-1 $36 $-1 $37 #
body $-1 $38 $-1 $39 #
body $-1 $40 $-1 $41 #
body $-1 $42 $-1 $43 #
body $-1 $44 $-1 $45 #
body $-1 $46 $-1 $47 #
lump $-1 $-1 $48 $0 #
transform $-1 1 0 0 0 1 0 0 0 1 61.804864650410479 32.216165295236394 15.308454752644115 1 rotate no_reflect no_shear #
lump $-1 $-1 $49 $1 #
transform $-1 1 0 0 0 1 0 0 0 1 61.804864650410479 32.216165295236394 15.308454752644115 1 rotate no_reflect no_shear #
lump $-1 $-1 $50 $2 #
transform $-1 1 0 0 0 1 0 0 0 1 61.804864650410479 32.216165295236394 15.308454752644115 1 rotate no_reflect no_shear #
lump $-1 $-1 $51 $3 #
transform $-1 1 0 0 0 1 0 0 0 1 61.804864650410479 32.216165295236394 15.308454752644115 1 rotate no_reflect no_shear #
lump $-1 $-1 $52 $4 #
transform $-1 1 0 0 0 1 0 0 0 1 61.804864650410479 32.216165295236394 15.308454752644115 1 rotate no_reflect no_shear #
lump $-1 $-1 $53 $5 #
transform $-1 1 0 0 0 1 0 0 0 1 61.804864650410479 32.216165295236394 15.308454752644115 1 rotate no_reflect no_shear #
lump $-1 $-1 $54 $6 #
transform $-1 1 0 0 0 1 0 0 0 1 61.804864650410479 32.216165295236394 15.308454752644115 1 rotate no_reflect no_shear #
lump $-1 $-1 $55 $7 #
transform $-1 1 0 0 0 1 0 0 0 1 61.804864650410479 32.216165295236394 15.308454752644115 1 rotate no_reflect no_shear #
lump $-1 $-1 $56 $8 #
transform $-1 1 0 0 0 1 0 0 0 1 61.804864650410479 32.216165295236394 15.308454752644115 1 rotate no_reflect no_shear #
lump $-1 $-1 $57 $9 #
transform $-1 1 0 0 0 1 0 0 0 1 61.804864650410479 32.216165295236394 15.308454752644115 1 rotate no_reflect no_shear #
lump $-1 $-1 $58 $10 #
transform $-1 1 0 0 0 1 0 0 0 1 61.804864650410479 32.216165295236394 15.308454752644115 1 rotate no_reflect no_shear #
lump $-1 $-1 $59 $11 #
transform $-1 1 0 0 0 1 0 0 0 1 61.804864650410479 32.216165295236394 15.308454752644115 1 rotate no_reflect no_shear #
lump $-1 $-1 $60 $12 #
transform $-1 1 0 0 0 1 0 0 0 1 61.804864650410479 32.216165295236394 15.308454752644115 1 rotate no_reflect no_shear #
lump $-1 $-1 $61 $13 #
transform $-1 1 0 0 0 1 0 0 0 1 61.804864650410479 32.216165295236394 15.308454752644115 1 rotate no_reflect no_shear #
lump $-1 $-1 $62 $14 #
transform $-1 1 0 0 0 1 0 0 0 1 61.804864650410479 32.216165295236394 15.308454752644115 1 rotate no_reflect no_shear #
lump $-1 $-1 $63 $15 #
transform $-1 1 0 0 0 1 0 0 0 1 61.804864650410479 32.216165295236394 15.308454752644115 1 rotate no_reflect no_shear #
shell $-1 $-1 $-1 $64 $-1 $16 #
shell $-1 $-1 $-1 $65 $-1 $18 #
shell $-1 $-1 $-1 $66 $-1 $20 #
shell $-1 $-1 $-1 $67 $-1 $22 #
shell $-1 $-1 $-1 $68 $-1 $24 #
shell $-1 $-1 $-1 $69 $-1 $26 #
shell $-1 $-1 $-1 $70 $-1 $28 #
shell $-1 $-1 $-1 $71 $-1 $30 #
shell $-1 $-1 $-1 $72 $-1 $32 #
shell $-1 $-1 $-1 $73 $-1 $34 #
shell $-1 $-1 $-1 $74 $-1 $36 #
shell $-1 $-1 $-1 $75 $-1 $38 #
shell $-1 $-1 $-1 $76 $-1 $40 #
shell $-1 $-1 $-1 $77 $-1 $42 #
shell $-1 $-1 $-1 $78 $-1 $44 #
shell $-1 $-1 $-1 $79 $-1 $46 #
face $-1 $80 $81 $48 $-1 $82 forward single #
face $-1 $83 $84 $49 $-1 $85 reversed single #
face $-1 $86 $87 $50 $-1 $88 forward single #
face $-1 $89 $90 $51 $-1 $91 forward single #
face $-1 $92 $93 $52 $-1 $94 reversed single #
face $-1 $95 $96 $53 $-1 $97 forward single #
face $-1 $98 $99 $54 $-1 $100 forward single #
face $-1 $101 $102 $55 $-1 $103 reversed single #
face $-1 $104 $105 $56 $-1 $106 forward single #
face $-1 $107 $108 $57 $-1 $109 forward single #
face $-1 $110 $111 $58 $-1 $112 reversed single #
face $-1 $113 $114 $59 $-1 $115 forward single #
face $-1 $116 $117 $60 $-1 $118 forward single #
face $-1 $119 $120 $61 $-1 $121 reversed single #
face $-1 $122 $123 $62 $-1 $124 forward single #
face $-1 $125 $126 $63 $-1 $127 forward single #
face $-1 $128 $129 $48 $-1 $130 reversed single #
loop $-1 $-1 $131 $64 #
plane-surface $-1 0 0 15.308454752644115 0 0 1 1 0 0 forward_v I I I I #
face $-1 $132 $133 $49 $-1 $134 reversed single #
loop $-1 $-1 $135 $65 #
plane-surface $-1 -163.06002810660715 -29.239287480360783 82.965045054064277 0 1 0 -0.81915205242281985 0 0.57357642473473569 forward_v I I I I #
face $-1 $136 $137 $50 $-1 $138 forward single #
loop $-1 $139 $140 $66 #
cone-surface $-1 -60.259889428813871 -27.122199907519214 13.400148393590133 0.81915205242281985 0 -0.57357642473473569 0.28678821236736785 0 0.40957602621140993 1 I I 0 1 0.5 forward I I I I #
face $-1 $141 $142 $51 $-1 $143 forward single #
loop $-1 $144 $145 $67 #
cone-surface $-1 -60.259889428813871 -23.946568548256856 13.400148393590133 0.81915205242281985 0 -0.57357642473473569 0.28678821236736785 0 0.40957602621140993 1 I I 0 1 0.5 forward I I I I #
face $-1 $146 $147 $52 $-1 $148 reversed single #
loop $-1 $-1 $149 $68 #
plane-surface $-1 -163.06002810660715 -13.131204832742585 82.965045054064277 0 1 0 -0.81915205242281985 0 0.57357642473473569 forward_v I I I I #
face $-1 $150 $151 $53 $-1 $152 forward single #
loop $-1 $153 $154 $69 #
cone-surface $-1 -60.259889428813871 -11.014117259901017 13.400148393590133 0.81915205242281985 0 -0.57357642473473569 0.28678821236736785 0 0.40957602621140993 1 I I 0 1 0.5 forward I I I I #
face $-1 $155 $156 $54 $-1 $157 forward single #
loop $-1 $158 $159 $70 #
cone-surface $-1 -60.259889428813871 -7.8384859006386591 13.400148393590133 0.81915205242281985 0 -0.57357642473473569 0.28678821236736785 0 0.40957602621140993 1 I I 0 1 0.5 forward I I I I #
face $-1 $160 $161 $55 $-1 $162 reversed single #
loop $-1 $-1 $163 $71 #
plane-surface $-1 -163.06002810660715 2.9768778148756119 82.965045054064277 0 1 0 -0.81915205242281985 0 0.57357642473473569 forward_v I I I I #
face $-1 $164 $165 $56 $-1 $166 forward single #
loop $-1 $167 $168 $72 #
cone-surface $-1 -60.259889428813871 5.0939653877171764 13.400148393590133 0.81915205242281985 0 -0.57357642473473569 0.28678821236736785 0 0.40957602621140993 1 I I 0 1 0.5 forward I I I I #
face $-1 $169 $170 $57 $-1 $171 forward single #
loop $-1 $172 $173 $73 #
cone-surface $-1 -60.259889428813871 8.2695967469795377 13.400148393590133 0.81915205242281985 0 -0.57357642473473569 0.28678821236736785 0 0.40957602621140993 1 I I 0 1 0.5 forward I I I I #
face $-1 $174 $175 $58 $-1 $176 reversed single #
loop $-1 $-1 $177 $74 #
plane-surface $-1 -163.06002810660715 19.084960462493807 82.965045054064277 0 1 0 -0.81915205242281985 0 0.57357642473473569 forward_v I I I I #
face $-1 $178 $179 $59 $-1 $180 forward single #
loop $-1 $181 $182 $75 #
cone-surface $-1 -60.259889428813871 21.202048035335373 13.400148393590133 0.81915205242281985 0 -0.57357642473473569 0.28678821236736785 0 0.40957602621140993 1 I I 0 1 0.5 forward I I I I #
face $-1 $183 $184 $60 $-1 $185 forward single #
loop $-1 $186 $187 $76 #
cone-surface $-1 -60.259889428813871 24.377679394597735 13.400148393590133 0.81915205242281985 0 -0.57357642473473569 0.28678821236736785 0 0.40957602621140993 1 I I 0 1 0.5 forward I I I I #
face $-1 $188 $189 $61 $-1 $190 reversed single #
loop $-1 $-1 $191 $77 #
plane-surface $-1 31.449331783876914 29.885712573621536 184.21570158634822 0 -1 0 -0.57357644374324357 0 -0.81915203911291934 forward_v I I I I #
face $-1 $192 $193 $62 $-1 $194 forward single #
loop $-1 $195 $196 $78 #
cone-surface $-1 58.815526838291824 23.030775998783554 12.727322126683697 -0.57357644374324357 0 -0.81915203911291934 0.81915203911291934 0 -0.57357644374324357 1 I I 0 1 1 forward I I I I #
face $-1 $197 $198 $63 $-1 $199 forward single #
loop $-1 $200 $201 $79 #
cone-surface $-1 58.815526838291824 27.14373794368634 12.727322126683697 -0.57357644374324357 0 -0.81915203911291934 0.81915203911291934 0 -0.57357644374324357 1 I I 0 1 1 forward I I I I #
face $-1 $202 $203 $48 $-1 $204 reversed single #
loop $-1 $-1 $205 $80 #
plane-surface $-1 0 0 -15.308454752644115 0 0 1 1 0 0 forward_v I I I I #
coedge $-1 $206 $207 $208 $209 forward $81 $-1 #
face $-1 $210 $211 $49 $-1 $212 reversed single #
loop $-1 $-1 $213 $83 #
plane-surface $-1 -61.804864650410494 -25.534384227888033 12.065418459270887 -0.81915205242281985 0 0.57357642473473569 0.57357642473473569 0 0.81915205242281985 forward_v I I I I #
coedge $-1 $214 $215 $216 $217 reversed $84 $-1 #
face $-1 $-1 $218 $50 $-1 $219 forward single #
loop $-1 $220 $221 $86 #
cone-surface $-1 -59.645525389496754 -27.122199907519214 12.96996607503908 0.81915205242281985 0 -0.57357642473473569 0.14339410618368392 0 0.20478801310570496 1 I I -0.70710678118654746 0.70710678118654746 0.25 forward I I I I #
loop $-1 $-1 $222 $66 #
coedge $-1 $140 $140 $223 $224 reversed $87 $-1 #
face $-1 $-1 $225 $51 $-1 $226 forward single #
loop $-1 $227 $228 $89 #
cone-surface $-1 -59.645525389496754 -23.946568548256856 12.96996607503908 0.81915205242281985 0 -0.57357642473473569 0.14339410618368392 0 0.20478801310570496 1 I I -0.70710678118654746 0.70710678118654746 0.25 forward I I I I #
loop $-1 $-1 $229 $67 #
coedge $-1 $145 $145 $230 $231 reversed $90 $-1 #
face $-1 $232 $233 $52 $-1 $234 reversed single #
loop $-1 $-1 $235 $92 #
plane-surface $-1 -61.804864650410494 -9.4263015802698362 12.065418459270887 -0.81915205242281985 0 0.57357642473473569 0.57357642473473569 0 0.81915205242281985 forward_v I I I I #
coedge $-1 $236 $237 $238 $239 reversed $93 $-1 #
face $-1 $-1 $240 $53 $-1 $241 forward single #
loop $-1 $242 $243 $95 #
cone-surface $-1 -59.645525389496754 -11.014117259901017 12.96996607503908 0.81915205242281985 0 -0.57357642473473569 0.14339410618368392 0 0.20478801310570496 1 I I -0.70710678118654746 0.70710678118654746 0.25 forward I I I I #
loop $-1 $-1 $244 $69 #
coedge $-1 $154 $154 $245 $246 reversed $96 $-1 #
face $-1 $-1 $247 $54 $-1 $248 forward single #
loop $-1 $249 $250 $98 #
cone-surface $-1 -59.645525389496754 -7.8384859006386591 12.96996607503908 0.81915205242281985 0 -0.57357642473473569 0.14339410618368392 0 0.20478801310570496 1 I I -0.70710678118654746 0.70710678118654746 0.25 forward I I I I #
loop $-1 $-1 $251 $70 #
coedge $-1 $159 $159 $252 $253 reversed $99 $-1 #
face $-1 $254 $255 $55 $-1 $256 reversed single #
loop $-1 $-1 $257 $101 #
plane-surface $-1 -61.804864650410494 6.6817810673483606 12.065418459270887 -0.81915205242281985 0 0.57357642473473569 0.57357642473473569 0 0.81915205242281985 forward_v I I I I #
coedge $-1 $258 $259 $260 $261 reversed $102 $-1 #
face $-1 $-1 $262 $56 $-1 $263 forward single #
loop $-1 $264 $265 $104 #
cone-surface $-1 -59.645525389496754 5.0939653877171764 12.96996607503908 0.81915205242281985 0 -0.57357642473473569 0.14339410618368392 0 0.20478801310570496 1 I I -0.70710678118654746 0.70710678118654746 0.25 forward I I I I #
loop $-1 $-1 $266 $72 #
coedge $-1 $168 $168 $267 $268 reversed $105 $-1 #
face $-1 $-1 $269 $57 $-1 $270 forward single #
loop $-1 $271 $272 $107 #
cone-surface $-1 -59.645525389496754 8.2695967469795377 12.96996607503908 0.81915205242281985 0 -0.57357642473473569 0.14339410618368392 0 0.20478801310570496 1 I I -0.70710678118654746 0.70710678118654746 0.25 forward I I I I #
loop $-1 $-1 $273 $73 #
coedge $-1 $173 $173 $274 $275 reversed $108 $-1 #
face $-1 $276 $277 $58 $-1 $278 reversed single #
loop $-1 $-1 $279 $110 #
plane-surface $-1 -61.804864650410494 22.789863714966557 12.065418459270887 -0.81915205242281985 0 0.57357642473473569 0.57357642473473569 0 0.81915205242281985 forward_v I I I I #
coedge $-1 $280 $281 $282 $283 reversed $111 $-1 #
face $-1 $-1 $284 $59 $-1 $285 forward single #
loop $-1 $286 $287 $113 #
cone-surface $-1 -59.645525389496754 21.202048035335373 12.96996607503908 0.81915205242281985 0 -0.57357642473473569 0.14339410618368392 0 0.20478801310570496 1 I I -0.70710678118654746 0.70710678118654746 0.25 forward I I I I #
loop $-1 $-1 $288 $75 #
coedge $-1 $182 $182 $289 $290 reversed $114 $-1 #
face $-1 $-1 $291 $60 $-1 $292 forward single #
loop $-1 $293 $294 $116 #
cone-surface $-1 -59.645525389496754 24.377679394597735 12.96996607503908 0.81915205242281985 0 -0.57357642473473569 0.14339410618368392 0 0.20478801310570496 1 I I -0.70710678118654746 0.70710678118654746 0.25 forward I I I I #
loop $-1 $-1 $295 $76 #
coedge $-1 $187 $187 $296 $297 reversed $117 $-1 #
face $-1 $298 $299 $61 $-1 $300 reversed single #
loop $-1 $-1 $301 $119 #
plane-surface $-1 -39.450297160552978 25.08725697123495 82.96053977538476 0.57357644374324357 0 0.81915203911291934 0.81915203911291934 0 -0.57357644374324357 forward_v I I I I #
coedge $-1 $302 $303 $304 $305 reversed $120 $-1 #
face $-1 $-1 $306 $62 $-1 $307 forward single #
loop $-1 $308 $309 $122 #
cone-surface $-1 57.858387449045424 23.030775998783554 11.360385442011458 -0.57357644374324357 0 -0.81915203911291934 0.40957601955645967 0 -0.28678822187162178 1 I I -0.70710678118654746 0.70710678118654746 0.5 forward I I I I #
loop $-1 $-1 $310 $78 #
coedge $-1 $196 $196 $311 $312 reversed $123 $-1 #
face $-1 $-1 $313 $63 $-1 $314 forward single #
loop $-1 $315 $316 $125 #
cone-surface $-1 57.858387449045424 27.14373794368634 11.360385442011458 -0.57357644374324357 0 -0.81915203911291934 0.40957601955645967 0 -0.28678822187162178 1 I I -0.70710678118654746 0.70710678118654746 0.5 forward I I I I #
loop $-1 $-1 $317 $79 #
coedge $-1 $201 $201 $318 $319 reversed $126 $-1 #
face $-1 $320 $321 $48 $-1 $322 reversed single #
loop $-1 $-1 $323 $128 #
plane-surface $-1 0 -32.216165295236394 0 0 1 0 0 0 1 forward_v I I I I #
coedge $-1 $324 $325 $326 $327 forward $129 $-1 #
coedge $-1 $328 $131 $329 $330 forward $81 $-1 #
coedge $-1 $131 $328 $331 $332 forward $81 $-1 #
coedge $-1 $333 $334 $131 $209 reversed $335 $-1 #
edge $-1 $336 -32.216165295236394 $337 32.216165295236394 $208 $338 forward 7 unknown #
face $-1 $339 $340 $49 $-1 $341 reversed single #
loop $-1 $-1 $342 $132 #
plane-surface $-1 -163.06002810660715 -21.829480975415283 82.965045054064277 0 -1 0 0.81915205242281985 0 -0.57357642473473569 forward_v I I I I #
coedge $-1 $343 $344 $345 $346 reversed $133 $-1 #
coedge $-1 $215 $135 $347 $348 reversed $84 $-1 #
coedge $-1 $135 $214 $343 $349 reversed $84 $-1 #
coedge $-1 $345 $350 $135 $217 forward $351 $-1 #
edge $-1 $352 19.725149402893095 $353 21.995947793663476 $216 $354 forward 7 unknown #
loop $-1 $-1 $223 $136 #
plane-surface $-1 -61.804864650410494 -25.534384227888033 12.065418459270887 -0.81915205242281985 0 0.57357642473473569 0.57357642473473569 0 0.81915205242281985 forward_v I I I I #
loop $-1 $-1 $355 $86 #
coedge $-1 $221 $221 $222 $356 reversed $137 $-1 #
coedge $-1 $222 $222 $221 $356 forward $139 $-1 #
coedge $-1 $223 $223 $140 $224 forward $218 $-1 #
edge $-1 $357 0 $357 6.2831853071796004 $223 $358 forward 7 unknown #
loop $-1 $-1 $230 $141 #
plane-surface $-1 -61.804864650410494 -25.534384227888033 12.065418459270887 -0.81915205242281985 0 0.57357642473473569 0.57357642473473569 0 0.81915205242281985 forward_v I I I I #
loop $-1 $-1 $359 $89 #
coedge $-1 $228 $228 $229 $360 reversed $142 $-1 #
coedge $-1 $229 $229 $228 $360 forward $144 $-1 #
coedge $-1 $230 $230 $145 $231 forward $225 $-1 #
edge $-1 $361 0 $361 6.2831853071796004 $230 $362 forward 7 unknown #
face $-1 $363 $364 $52 $-1 $365 forward single #
loop $-1 $-1 $366 $146 #
plane-surface $-1 -163.06002810660715 -5.7213983277970879 82.965045054064277 0 -1 0 0.81915205242281985 0 -0.57357642473473569 forward_v I I I I #
coedge $-1 $367 $368 $369 $370 reversed $147 $-1 #
coedge $-1 $237 $149 $371 $372 reversed $93 $-1 #
coedge $-1 $149 $236 $367 $373 reversed $93 $-1 #
coedge $-1 $369 $374 $149 $239 forward $364 $-1 #
edge $-1 $375 19.725149402893095 $376 21.995947793663476 $238 $377 forward 7 unknown #
loop $-1 $-1 $245 $150 #
plane-surface $-1 -61.804864650410494 -9.4263015802698362 12.065418459270887 -0.81915205242281985 0 0.57357642473473569 0.57357642473473569 0 0.81915205242281985 forward_v I I I I #
loop $-1 $-1 $378 $95 #
coedge $-1 $243 $243 $244 $379 reversed $151 $-1 #
coedge $-1 $244 $244 $243 $379 forward $153 $-1 #
coedge $-1 $245 $245 $154 $246 forward $240 $-1 #
edge $-1 $380 0 $380 6.2831853071796004 $245 $381 forward 7 unknown #
loop $-1 $-1 $252 $155 #
plane-surface $-1 -61.804864650410494 -9.4263015802698362 12.065418459270887 -0.81915205242281985 0 0.57357642473473569 0.57357642473473569 0 0.81915205242281985 forward_v I I I I #
loop $-1 $-1 $382 $98 #
coedge $-1 $250 $250 $251 $383 reversed $156 $-1 #
coedge $-1 $251 $251 $250 $383 forward $158 $-1 #
coedge $-1 $252 $252 $159 $253 forward $247 $-1 #
edge $-1 $384 0 $384 6.2831853071796004 $252 $385 forward 7 unknown #
face $-1 $386 $387 $55 $-1 $388 forward single #
loop $-1 $-1 $389 $160 #
plane-surface $-1 -163.06002810660715 10.386684319821109 82.965045054064277 0 -1 0 0.81915205242281985 0 -0.57357642473473569 forward_v I I I I #
coedge $-1 $390 $391 $392 $393 reversed $161 $-1 #
coedge $-1 $259 $163 $394 $395 reversed $102 $-1 #
coedge $-1 $163 $258 $390 $396 reversed $102 $-1 #
coedge $-1 $392 $397 $163 $261 forward $387 $-1 #
edge $-1 $398 19.725149402893095 $399 21.995947793663476 $260 $400 forward 7 unknown #
loop $-1 $-1 $267 $164 #
plane-surface $-1 -61.804864650410494 6.6817810673483606 12.065418459270887 -0.81915205242281985 0 0.57357642473473569 0.57357642473473569 0 0.81915205242281985 forward_v I I I I #
loop $-1 $-1 $401 $104 #
coedge $-1 $265 $265 $266 $402 reversed $165 $-1 #
coedge $-1 $266 $266 $265 $402 forward $167 $-1 #
coedge $-1 $267 $267 $168 $268 forward $262 $-1 #
edge $-1 $403 0 $403 6.2831853071796004 $267 $404 forward 7 unknown #
loop $-1 $-1 $274 $169 #
plane-surface $-1 -61.804864650410494 6.6817810673483606 12.065418459270887 -0.81915205242281985 0 0.57357642473473569 0.57357642473473569 0 0.81915205242281985 forward_v I I I I #
loop $-1 $-1 $405 $107 #
coedge $-1 $272 $272 $273 $406 reversed $170 $-1 #
coedge $-1 $273 $273 $272 $406 forward $172 $-1 #
coedge $-1 $274 $274 $173 $275 forward $269 $-1 #
edge $-1 $407 0 $407 6.2831853071796004 $274 $408 forward 7 unknown #
face $-1 $409 $410 $58 $-1 $411 forward single #
loop $-1 $-1 $412 $174 #
plane-surface $-1 -163.06002810660715 26.494766967439308 82.965045054064277 0 -1 0 0.81915205242281985 0 -0.57357642473473569 forward_v I I I I #
coedge $-1 $413 $414 $415 $416 reversed $175 $-1 #
coedge $-1 $281 $177 $417 $418 reversed $111 $-1 #
coedge $-1 $177 $280 $413 $419 reversed $111 $-1 #
coedge $-1 $415 $420 $177 $283 forward $410 $-1 #
edge $-1 $421 19.725149402893095 $422 21.995947793663476 $282 $423 forward 7 unknown #
loop $-1 $-1 $289 $178 #
plane-surface $-1 -61.804864650410494 22.789863714966557 12.065418459270887 -0.81915205242281985 0 0.57357642473473569 0.57357642473473569 0 0.81915205242281985 forward_v I I I I #
loop $-1 $-1 $424 $113 #
coedge $-1 $287 $287 $288 $425 reversed $179 $-1 #
coedge $-1 $288 $288 $287 $425 forward $181 $-1 #
coedge $-1 $289 $289 $182 $290 forward $284 $-1 #
edge $-1 $426 0 $426 6.2831853071796004 $289 $427 forward 7 unknown #
loop $-1 $-1 $296 $183 #
plane-surface $-1 -61.804864650410494 22.789863714966557 12.065418459270887 -0.81915205242281985 0 0.57357642473473569 0.57357642473473569 0 0.81915205242281985 forward_v I I I I #
loop $-1 $-1 $428 $116 #
coedge $-1 $294 $294 $295 $429 reversed $184 $-1 #
coedge $-1 $295 $295 $294 $429 forward $186 $-1 #
coedge $-1 $296 $296 $187 $297 forward $291 $-1 #
edge $-1 $430 0 $430 6.2831853071796004 $296 $431 forward 7 unknown #
face $-1 $432 $433 $61 $-1 $434 forward single #
loop $-1 $-1 $435 $188 #
plane-surface $-1 31.449331783876914 20.288801368848365 184.21570158634822 0 1 0 0.57357644374324357 0 0.81915203911291934 forward_v I I I I #
coedge $-1 $436 $437 $438 $439 reversed $189 $-1 #
coedge $-1 $303 $191 $440 $441 reversed $120 $-1 #
coedge $-1 $191 $302 $436 $442 reversed $120 $-1 #
coedge $-1 $438 $443 $191 $305 forward $433 $-1 #
edge $-1 $444 -46.080198758472022 $445 -41.442225468984319 $304 $446 forward 7 unknown #
loop $-1 $-1 $311 $192 #
plane-surface $-1 -39.450297160552978 25.08725697123495 82.96053977538476 0.57357644374324357 0 0.81915203911291934 0.81915203911291934 0 -0.57357644374324357 forward_v I I I I #
loop $-1 $-1 $447 $122 #
coedge $-1 $309 $309 $310 $448 reversed $193 $-1 #
coedge $-1 $310 $310 $309 $448 forward $195 $-1 #
coedge $-1 $311 $311 $196 $312 forward $306 $-1 #
edge $-1 $449 0 $449 6.2831853071796004 $311 $450 forward 7 unknown #
loop $-1 $-1 $318 $197 #
plane-surface $-1 -39.450297160552978 25.08725697123495 82.96053977538476 0.57357644374324357 0 0.81915203911291934 0.81915203911291934 0 -0.57357644374324357 forward_v I I I I #
loop $-1 $-1 $451 $125 #
coedge $-1 $316 $316 $317 $452 reversed $198 $-1 #
coedge $-1 $317 $317 $316 $452 forward $200 $-1 #
coedge $-1 $318 $318 $201 $319 forward $313 $-1 #
edge $-1 $453 0 $453 6.2831853071796004 $318 $454 forward 7 unknown #
face $-1 $455 $456 $48 $-1 $457 reversed single #
loop $-1 $-1 $458 $202 #
plane-surface $-1 -61.804864650410479 0 0 1 0 0 0 0 -1 forward_v I I I I #
coedge $-1 $459 $331 $460 $461 forward $203 $-1 #
coedge $-1 $462 $205 $459 $463 forward $129 $-1 #
coedge $-1 $205 $462 $464 $465 forward $129 $-1 #
coedge $-1 $334 $333 $205 $327 reversed $335 $-1 #
edge $-1 $466 -32.216165295236394 $467 32.216165295236394 $326 $468 forward 7 unknown #
coedge $-1 $207 $206 $469 $470 forward $81 $-1 #
coedge $-1 $471 $472 $206 $330 reversed $456 $-1 #
edge $-1 $337 -61.804864650410479 $473 61.804864650410479 $329 $474 forward 7 unknown #
coedge $-1 $323 $475 $207 $332 reversed $203 $-1 #
edge $-1 $476 -61.804864650410479 $336 61.804864650410479 $331 $477 forward 7 unknown #
coedge $-1 $326 $208 $475 $478 forward $335 $-1 #
coedge $-1 $208 $326 $471 $479 reversed $335 $-1 #
loop $-1 $-1 $333 $455 #
vertex $-1 $209 $480 #
vertex $-1 $209 $481 #
straight-curve $-1 61.804864650410479 0 15.308454752644115 0 1 0 I I #
face $-1 $-1 $351 $49 $-1 $482 forward single #
loop $-1 $-1 $483 $210 #
plane-surface $-1 -61.804864650410479 0 0 1 0 0 0 0 -1 forward_v I I I I #
coedge $-1 $484 $485 $486 $487 reversed $211 $-1 #
coedge $-1 $488 $213 $215 $349 forward $133 $-1 #
coedge $-1 $213 $488 $484 $489 forward $133 $-1 #
coedge $-1 $486 $216 $213 $346 forward $351 $-1 #
edge $-1 $353 -16.472095366416767 $490 -9.0622888614712664 $345 $491 forward 7 unknown #
coedge $-1 $492 $493 $214 $348 forward $340 $-1 #
edge $-1 $494 -29.41710406776123 $352 -26.174067774388021 $347 $495 forward 7 unknown #
edge $-1 $353 -3.9590162580698478 $494 -2.4157181099100639e-014 $215 $496 forward 7 unknown #
coedge $-1 $216 $486 $492 $497 forward $351 $-1 #
loop $-1 $-1 $486 $339 #
vertex $-1 $348 $498 #
vertex $-1 $217 $499 #
straight-curve $-1 -81.530014053303574 -29.239287480360783 15.308454752644117 1 0 0 I I #
coedge $-1 $355 $355 $-1 $500 reversed $220 $-1 #
edge $-1 $501 0 $501 6.2831853071796004 $221 $502 forward 7 unknown #
vertex $-1 $224 $503 #
ellipse-curve $-1 -60.669465455025289 -27.122199907519214 13.686936605957507 -0.81915205242281985 0 0.57357642473473569 0.28678821236736785 0 0.40957602621140993 1 I I #
coedge $-1 $359 $359 $-1 $504 reversed $227 $-1 #
edge $-1 $505 0 $505 6.2831853071796004 $228 $506 forward 7 unknown #
vertex $-1 $231 $507 #
ellipse-curve $-1 -60.669465455025289 -23.946568548256856 13.686936605957507 -0.81915205242281985 0 0.57357642473473569 0.28678821236736785 0 0.40957602621140993 1 I I #
face $-1 $-1 $508 $52 $-1 $509 reversed single #
loop $-1 $-1 $238 $232 #
plane-surface $-1 0 0 15.308454752644115 0 0 1 1 0 0 forward_v I I I I #
coedge $-1 $510 $511 $512 $513 reversed $233 $-1 #
coedge $-1 $514 $235 $237 $373 forward $147 $-1 #
coedge $-1 $235 $514 $510 $515 forward $147 $-1 #
coedge $-1 $512 $238 $235 $370 forward $364 $-1 #
edge $-1 $376 -8.4180540426076664 $516 -1.0082475376621698 $369 $517 forward 7 unknown #
coedge $-1 $518 $519 $236 $372 forward $508 $-1 #
edge $-1 $520 -29.41710406776123 $375 -26.174067774388021 $371 $521 forward 7 unknown #
edge $-1 $376 -3.9590162580698478 $520 -2.4157181099100639e-014 $237 $522 forward 7 unknown #
coedge $-1 $238 $512 $518 $523 forward $364 $-1 #
vertex $-1 $239 $524 #
vertex $-1 $239 $525 #
straight-curve $-1 -81.530014053303574 -13.131204832742585 15.308454752644117 1 0 0 I I #
coedge $-1 $378 $378 $-1 $526 reversed $242 $-1 #
edge $-1 $527 0 $527 6.2831853071796004 $243 $528 forward 7 unknown #
vertex $-1 $246 $529 #
ellipse-curve $-1 -60.669465455025289 -11.014117259901017 13.686936605957507 -0.81915205242281985 0 0.57357642473473569 0.28678821236736785 0 0.40957602621140993 1 I I #
coedge $-1 $382 $382 $-1 $530 reversed $249 $-1 #
edge $-1 $531 0 $531 6.2831853071796004 $250 $532 forward 7 unknown #
vertex $-1 $253 $533 #
ellipse-curve $-1 -60.669465455025289 -7.8384859006386591 13.686936605957507 -0.81915205242281985 0 0.57357642473473569 0.28678821236736785 0 0.40957602621140993 1 I I #
face $-1 $-1 $534 $55 $-1 $535 reversed single #
loop $-1 $-1 $260 $254 #
plane-surface $-1 0 0 15.308454752644115 0 0 1 1 0 0 forward_v I I I I #
coedge $-1 $536 $537 $538 $539 reversed $255 $-1 #
coedge $-1 $540 $257 $259 $396 forward $161 $-1 #
coedge $-1 $257 $540 $536 $541 forward $161 $-1 #
coedge $-1 $538 $260 $257 $393 forward $387 $-1 #
edge $-1 $399 -0.36401271879856845 $542 7.0457937861469286 $392 $543 forward 7 unknown #
coedge $-1 $544 $545 $258 $395 forward $534 $-1 #
edge $-1 $546 -29.41710406776123 $398 -26.174067774388021 $394 $547 forward 7 unknown #
edge $-1 $399 -3.9590162580698478 $546 -2.4157181099100639e-014 $259 $548 forward 7 unknown #
coedge $-1 $260 $538 $544 $549 forward $387 $-1 #
vertex $-1 $261 $550 #
vertex $-1 $261 $551 #
straight-curve $-1 -81.530014053303574 2.9768778148756119 15.308454752644117 1 0 0 I I #
coedge $-1 $401 $401 $-1 $552 reversed $264 $-1 #
edge $-1 $553 0 $553 6.2831853071796004 $265 $554 forward 7 unknown #
vertex $-1 $268 $555 #
ellipse-curve $-1 -60.669465455025289 5.0939653877171764 13.686936605957507 -0.81915205242281985 0 0.57357642473473569 0.28678821236736785 0 0.40957602621140993 1 I I #
coedge $-1 $405 $405 $-1 $556 reversed $271 $-1 #
edge $-1 $557 0 $557 6.2831853071796004 $272 $558 forward 7 unknown #
vertex $-1 $275 $559 #
ellipse-curve $-1 -60.669465455025289 8.2695967469795377 13.686936605957507 -0.81915205242281985 0 0.57357642473473569 0.28678821236736785 0 0.40957602621140993 1 I I #
face $-1 $-1 $560 $58 $-1 $561 reversed single #
loop $-1 $-1 $282 $276 #
plane-surface $-1 0 0 15.308454752644115 0 0 1 1 0 0 forward_v I I I I #
coedge $-1 $562 $563 $564 $565 reversed $277 $-1 #
coedge $-1 $566 $279 $281 $419 forward $175 $-1 #
coedge $-1 $279 $566 $562 $567 forward $175 $-1 #
coedge $-1 $564 $282 $279 $416 forward $410 $-1 #
edge $-1 $422 7.6900286050105287 $568 15.099835109956029 $415 $569 forward 7 unknown #
coedge $-1 $570 $571 $280 $418 forward $560 $-1 #
edge $-1 $572 -29.41710406776123 $421 -26.174067774388021 $417 $573 forward 7 unknown #
edge $-1 $422 -3.9590162580698478 $572 -2.4157181099100639e-014 $281 $574 forward 7 unknown #
coedge $-1 $282 $564 $570 $575 forward $410 $-1 #
vertex $-1 $283 $576 #
vertex $-1 $283 $577 #
straight-curve $-1 -81.530014053303574 19.084960462493807 15.308454752644117 1 0 0 I I #
coedge $-1 $424 $424 $-1 $578 reversed $286 $-1 #
edge $-1 $579 0 $579 6.2831853071796004 $287 $580 forward 7 unknown #
vertex $-1 $290 $581 #
ellipse-curve $-1 -60.669465455025289 21.202048035335373 13.686936605957507 -0.81915205242281985 0 0.57357642473473569 0.28678821236736785 0 0.40957602621140993 1 I I #
coedge $-1 $428 $428 $-1 $582 reversed $293 $-1 #
edge $-1 $583 0 $583 6.2831853071796004 $294 $584 forward 7 unknown #
vertex $-1 $297 $585 #
ellipse-curve $-1 -60.669465455025289 24.377679394597735 13.686936605957507 -0.81915205242281985 0 0.57357642473473569 0.28678821236736785 0 0.40957602621140993 1 I I #
face $-1 $-1 $586 $61 $-1 $587 reversed single #
loop $-1 $-1 $304 $298 #
plane-surface $-1 0 0 15.308454752644115 0 0 1 1 0 0 forward_v I I I I #
coedge $-1 $588 $589 $590 $591 reversed $299 $-1 #
coedge $-1 $592 $301 $303 $442 forward $189 $-1 #
coedge $-1 $301 $592 $588 $593 forward $189 $-1 #
coedge $-1 $590 $304 $301 $439 forward $433 $-1 #
edge $-1 $445 -17.342084088004061 $594 -7.7451728832308895 $438 $595 forward 7 unknown #
coedge $-1 $596 $597 $302 $441 forward $586 $-1 #
edge $-1 $598 -80.046939962219241 $444 -76.799396040529999 $440 $599 forward 7 unknown #
edge $-1 $445 117.94780932988334 $598 123.60972930082094 $303 $600 forward 7 unknown #
coedge $-1 $304 $590 $596 $601 forward $433 $-1 #
vertex $-1 $441 $602 #
vertex $-1 $305 $603 #
straight-curve $-1 15.724665891938457 29.885712573621536 15.30845475264411 -1 0 0 I I #
coedge $-1 $447 $447 $-1 $604 reversed $308 $-1 #
edge $-1 $605 0 $605 6.2831853071796004 $309 $606 forward 7 unknown #
vertex $-1 $312 $607 #
ellipse-curve $-1 59.485878005666606 23.030775998783554 13.684682791799487 0.57357644374324357 0 0.81915203911291934 0.81915203911291934 0 -0.57357644374324357 1 I I #
coedge $-1 $451 $451 $-1 $608 reversed $315 $-1 #
edge $-1 $609 0 $609 6.2831853071796004 $316 $610 forward 7 unknown #
vertex $-1 $319 $611 #
ellipse-curve $-1 59.485878005666606 27.14373794368634 13.684682791799487 0.57357644374324357 0 0.81915203911291934 0.81915203911291934 0 -0.57357644374324357 1 I I #
face $-1 $-1 $335 $48 $-1 $612 reversed single #
loop $-1 $-1 $471 $320 #
plane-surface $-1 0 32.216165295236394 0 0 -1 0 0 0 -1 forward_v I I I I #
coedge $-1 $613 $469 $472 $614 forward $321 $-1 #
coedge $-1 $475 $323 $324 $463 reversed $203 $-1 #
coedge $-1 $469 $613 $323 $461 reversed $321 $-1 #
edge $-1 $476 -15.308454752644115 $615 15.308454752644115 $460 $616 forward 7 unknown #
coedge $-1 $325 $324 $613 $617 forward $129 $-1 #
edge $-1 $467 -61.804864650410479 $615 61.804864650410479 $459 $618 forward 7 unknown #
coedge $-1 $472 $471 $325 $465 reversed $456 $-1 #
edge $-1 $619 -61.804864650410479 $466 61.804864650410479 $464 $620 forward 7 unknown #
vertex $-1 $327 $621 #
vertex $-1 $478 $622 #
straight-curve $-1 61.804864650410479 0 -15.308454752644115 0 -1 0 I I #
coedge $-1 $458 $460 $328 $470 reversed $321 $-1 #
edge $-1 $473 -32.216165295236394 $476 32.216165295236394 $469 $623 forward 7 unknown #
coedge $-1 $464 $329 $334 $479 forward $456 $-1 #
coedge $-1 $329 $464 $458 $614 reversed $456 $-1 #
vertex $-1 $330 $624 #
straight-curve $-1 0 32.216165295236394 15.308454752644115 -1 0 0 I I #
coedge $-1 $331 $459 $333 $478 reversed $203 $-1 #
vertex $-1 $470 $625 #
straight-curve $-1 0 -32.216165295236394 15.308454752644115 1 0 0 I I #
edge $-1 $336 -15.308454752644115 $467 15.308454752644115 $333 $626 forward 7 unknown #
edge $-1 $337 -15.308454752644115 $466 15.308454752644115 $334 $627 forward 7 unknown #
point $-1 61.804864650410479 -32.216165295236394 15.308454752644115 #
point $-1 61.804864650410479 32.216165295236394 15.308454752644115 #
plane-surface $-1 0 0 15.308454752644115 0 0 1 1 0 0 forward_v I I I I #
coedge $-1 $493 $492 $485 $628 forward $340 $-1 #
coedge $-1 $485 $342 $344 $489 reversed $211 $-1 #
coedge $-1 $342 $484 $483 $628 reversed $211 $-1 #
coedge $-1 $350 $345 $342 $487 forward $351 $-1 #
edge $-1 $490 -21.995947793663476 $629 -19.725149402893095 $486 $630 forward 7 unknown #
coedge $-1 $344 $343 $493 $631 reversed $133 $-1 #
edge $-1 $632 2.4157181099100639e-014 $490 3.9590162580698478 $484 $633 forward 7 unknown #
vertex $-1 $346 $634 #
straight-curve $-1 -59.534066259640099 -12.767192113944017 15.308454752644117 0 1 0 I I #
coedge $-1 $483 $347 $350 $497 reversed $340 $-1 #
coedge $-1 $347 $483 $488 $631 forward $340 $-1 #
vertex $-1 $348 $635 #
straight-curve $-1 -61.804864650410479 -29.239287480360783 41.482522527032138 0 0 1 I I #
straight-curve $-1 -61.804864650410494 -29.239287480360783 12.065418459270887 -0.57357642473473569 0 -0.81915205242281985 I I #
edge $-1 $629 21.829480975415283 $352 29.239287480360783 $492 $636 forward 7 unknown #
point $-1 -61.804864650410479 -29.239287480360783 15.308454752644115 #
point $-1 -59.534066259640099 -29.239287480360783 15.308454752644115 #
edge $-1 $637 1 $637 0 $355 $-1 forward 7 unknown #
vertex $-1 $356 $638 #
ellipse-curve $-1 -59.85031340260246 -27.122199907519214 13.113360181222765 -0.81915205242281985 0 0.57357642473473569 0.28678821236736785 0 0.40957602621140993 1 I I #
point $-1 -60.382677242657913 -27.122199907519214 14.09651263216891 #
edge $-1 $639 1 $639 0 $359 $-1 forward 7 unknown #
vertex $-1 $360 $640 #
ellipse-curve $-1 -59.85031340260246 -23.946568548256856 13.113360181222765 -0.81915205242281985 0 0.57357642473473569 0.28678821236736785 0 0.40957602621140993 1 I I #
point $-1 -60.382677242657913 -23.946568548256856 14.09651263216891 #
loop $-1 $-1 $371 $363 #
plane-surface $-1 -61.804864650410479 0 0 1 0 0 0 0 -1 forward_v I I I I #
coedge $-1 $511 $366 $368 $515 reversed $233 $-1 #
coedge $-1 $366 $510 $641 $642 reversed $233 $-1 #
coedge $-1 $374 $369 $366 $513 forward $364 $-1 #
edge $-1 $516 -21.995947793663476 $643 -19.725149402893095 $512 $644 forward 7 unknown #
coedge $-1 $368 $367 $519 $645 reversed $147 $-1 #
edge $-1 $646 2.4157181099100639e-014 $516 3.9590162580698478 $510 $647 forward 7 unknown #
vertex $-1 $370 $648 #
straight-curve $-1 -59.534066259640099 -4.7131507901349181 15.308454752644117 0 1 0 I I #
coedge $-1 $641 $371 $374 $523 reversed $508 $-1 #
coedge $-1 $371 $641 $514 $645 forward $508 $-1 #
vertex $-1 $372 $649 #
straight-curve $-1 -61.804864650410479 -13.131204832742585 41.482522527032138 0 0 1 I I #
straight-curve $-1 -61.804864650410494 -13.131204832742585 12.065418459270887 -0.57357642473473569 0 -0.81915205242281985 I I #
edge $-1 $643 5.7213983277970879 $375 13.131204832742585 $518 $650 forward 7 unknown #
point $-1 -61.804864650410479 -13.131204832742585 15.308454752644115 #
point $-1 -59.534066259640099 -13.131204832742585 15.308454752644115 #
edge $-1 $651 1 $651 0 $378 $-1 forward 7 unknown #
vertex $-1 $379 $652 #
ellipse-curve $-1 -59.85031340260246 -11.014117259901017 13.113360181222765 -0.81915205242281985 0 0.57357642473473569 0.28678821236736785 0 0.40957602621140993 1 I I #
point $-1 -60.382677242657913 -11.014117259901017 14.09651263216891 #
edge $-1 $653 1 $653 0 $382 $-1 forward 7 unknown #
vertex $-1 $383 $654 #
ellipse-curve $-1 -59.85031340260246 -7.8384859006386591 13.113360181222765 -0.81915205242281985 0 0.57357642473473569 0.28678821236736785 0 0.40957602621140993 1 I I #
point $-1 -60.382677242657913 -7.8384859006386591 14.09651263216891 #
loop $-1 $-1 $394 $386 #
plane-surface $-1 -61.804864650410479 0 0 1 0 0 0 0 -1 forward_v I I I I #
coedge $-1 $537 $389 $391 $541 reversed $255 $-1 #
coedge $-1 $389 $536 $655 $656 reversed $255 $-1 #
coedge $-1 $397 $392 $389 $539 forward $387 $-1 #
edge $-1 $542 -21.995947793663476 $657 -19.725149402893095 $538 $658 forward 7 unknown #
coedge $-1 $391 $390 $545 $659 reversed $161 $-1 #
edge $-1 $660 2.4157181099100639e-014 $542 3.9590162580698478 $536 $661 forward 7 unknown #
vertex $-1 $393 $662 #
straight-curve $-1 -59.534066259640099 3.3408905336741803 15.308454752644117 0 1 0 I I #
coedge $-1 $655 $394 $397 $549 reversed $534 $-1 #
coedge $-1 $394 $655 $540 $659 forward $534 $-1 #
vertex $-1 $395 $663 #
straight-curve $-1 -61.804864650410479 2.9768778148756119 41.482522527032138 0 0 1 I I #
straight-curve $-1 -61.804864650410494 2.9768778148756119 12.065418459270887 -0.57357642473473569 0 -0.81915205242281985 I I #
edge $-1 $657 -10.386684319821109 $398 -2.9768778148756119 $544 $664 forward 7 unknown #
point $-1 -61.804864650410479 2.9768778148756119 15.308454752644115 #
point $-1 -59.534066259640099 2.9768778148756119 15.308454752644115 #
edge $-1 $665 1 $665 0 $401 $-1 forward 7 unknown #
vertex $-1 $402 $666 #
ellipse-curve $-1 -59.85031340260246 5.0939653877171764 13.113360181222765 -0.81915205242281985 0 0.57357642473473569 0.28678821236736785 0 0.40957602621140993 1 I I #
point $-1 -60.382677242657913 5.0939653877171764 14.09651263216891 #
edge $-1 $667 1 $667 0 $405 $-1 forward 7 unknown #
vertex $-1 $406 $668 #
ellipse-curve $-1 -59.85031340260246 8.2695967469795377 13.113360181222765 -0.81915205242281985 0 0.57357642473473569 0.28678821236736785 0 0.40957602621140993 1 I I #
point $-1 -60.382677242657913 8.2695967469795377 14.09651263216891 #
loop $-1 $-1 $417 $409 #
plane-surface $-1 -61.804864650410479 0 0 1 0 0 0 0 -1 forward_v I I I I #
coedge $-1 $563 $412 $414 $567 reversed $277 $-1 #
coedge $-1 $412 $562 $669 $670 reversed $277 $-1 #
coedge $-1 $420 $415 $412 $565 forward $410 $-1 #
edge $-1 $568 -21.995947793663476 $671 -19.725149402893095 $564 $672 forward 7 unknown #
coedge $-1 $414 $413 $571 $673 reversed $175 $-1 #
edge $-1 $674 2.4157181099100639e-014 $568 3.9590162580698478 $562 $675 forward 7 unknown #
vertex $-1 $416 $676 #
straight-curve $-1 -59.534066259640099 11.394931857483279 15.308454752644117 0 1 0 I I #
coedge $-1 $669 $417 $420 $575 reversed $560 $-1 #
coedge $-1 $417 $669 $566 $673 forward $560 $-1 #
vertex $-1 $418 $677 #
straight-curve $-1 -61.804864650410479 19.084960462493807 41.482522527032138 0 0 1 I I #
straight-curve $-1 -61.804864650410494 19.084960462493807 12.065418459270887 -0.57357642473473569 0 -0.81915205242281985 I I #
edge $-1 $671 -26.494766967439308 $421 -19.084960462493807 $570 $678 forward 7 unknown #
point $-1 -61.804864650410479 19.084960462493807 15.308454752644115 #
point $-1 -59.534066259640099 19.084960462493807 15.308454752644115 #
edge $-1 $679 1 $679 0 $424 $-1 forward 7 unknown #
vertex $-1 $425 $680 #
ellipse-curve $-1 -59.85031340260246 21.202048035335373 13.113360181222765 -0.81915205242281985 0 0.57357642473473569 0.28678821236736785 0 0.40957602621140993 1 I I #
point $-1 -60.382677242657913 21.202048035335373 14.09651263216891 #
edge $-1 $681 1 $681 0 $428 $-1 forward 7 unknown #
vertex $-1 $429 $682 #
ellipse-curve $-1 -59.85031340260246 24.377679394597735 13.113360181222765 -0.81915205242281985 0 0.57357642473473569 0.28678821236736785 0 0.40957602621140993 1 I I #
point $-1 -60.382677242657913 24.377679394597735 14.09651263216891 #
loop $-1 $-1 $440 $432 #
plane-surface $-1 61.804864650410479 0 0 -1 0 0 0 0 1 forward_v I I I I #
coedge $-1 $589 $435 $437 $593 reversed $299 $-1 #
coedge $-1 $435 $588 $683 $684 reversed $299 $-1 #
coedge $-1 $443 $438 $435 $591 forward $433 $-1 #
edge $-1 $594 41.442225468984319 $685 46.080198758472022 $590 $686 forward 7 unknown #
coedge $-1 $437 $436 $597 $687 reversed $189 $-1 #
edge $-1 $688 -123.60972930082094 $594 -117.94780932988334 $588 $689 forward 7 unknown #
vertex $-1 $439 $690 #
straight-curve $-1 57.166891360922733 12.543628485617475 15.308454752644124 0 -1 0 I I #
coedge $-1 $683 $440 $443 $601 reversed $586 $-1 #
coedge $-1 $440 $683 $592 $687 forward $586 $-1 #
vertex $-1 $441 $691 #
straight-curve $-1 61.804864650410479 29.885712573621536 92.107850793174109 0 0 1 I I #
straight-curve $-1 -39.450297160552978 29.885712573621536 82.96053977538476 0.81915203911291934 0 -0.57357644374324357 I I #
edge $-1 $685 20.288801368848365 $444 29.885712573621536 $596 $692 forward 7 unknown #
point $-1 61.804864650410479 29.885712573621536 15.308454752644115 #
point $-1 57.166891360922776 29.885712573621536 15.30845475264411 #
edge $-1 $693 1 $693 0 $447 $-1 forward 7 unknown #
vertex $-1 $448 $694 #
ellipse-curve $-1 58.145175670917048 23.030775998783554 11.769961461567917 0.57357644374324357 0 0.81915203911291934 0.81915203911291934 0 -0.57357644374324357 1 I I #
point $-1 60.305030044779521 23.030775998783554 13.111106348056236 #
edge $-1 $695 1 $695 0 $451 $-1 forward 7 unknown #
vertex $-1 $452 $696 #
ellipse-curve $-1 58.145175670917048 27.14373794368634 11.769961461567917 0.57357644374324357 0 0.81915203911291934 0.81915203911291934 0 -0.57357644374324357 1 I I #
point $-1 60.305030044779521 27.14373794368634 13.111106348056236 #
plane-surface $-1 61.804864650410479 0 0 -1 0 0 0 0 1 forward_v I I I I #
coedge $-1 $460 $458 $462 $617 reversed $321 $-1 #
edge $-1 $473 -15.308454752644115 $619 15.308454752644115 $472 $697 forward 7 unknown #
vertex $-1 $617 $698 #
straight-curve $-1 -61.804864650410479 -32.216165295236394 0 0 0 -1 I I #
edge $-1 $615 -32.216165295236394 $619 32.216165295236394 $613 $699 forward 7 unknown #
straight-curve $-1 0 -32.216165295236394 -15.308454752644115 -1 0 0 I I #
vertex $-1 $465 $700 #
straight-curve $-1 0 32.216165295236394 -15.308454752644115 1 0 0 I I #
point $-1 61.804864650410479 32.216165295236394 -15.308454752644115 #
point $-1 61.804864650410479 -32.216165295236394 -15.308454752644115 #
straight-curve $-1 -61.804864650410479 0 15.308454752644115 0 -1 0 I I #
point $-1 -61.804864650410479 32.216165295236394 15.308454752644115 #
point $-1 -61.804864650410479 -32.216165295236394 15.308454752644115 #
straight-curve $-1 61.804864650410479 -32.216165295236394 0 0 0 -1 I I #
straight-curve $-1 61.804864650410479 32.216165295236394 0 0 0 -1 I I #
edge $-1 $629 26.174067774388021 $632 29.41710406776123 $483 $701 forward 7 unknown #
vertex $-1 $497 $702 #
straight-curve $-1 -81.530014053303574 -21.829480975415283 15.308454752644117 -1 0 0 I I #
edge $-1 $632 9.0622888614712664 $494 16.472095366416767 $493 $703 forward 7 unknown #
vertex $-1 $631 $704 #
straight-curve $-1 -61.804864650410494 -21.829480975415283 12.065418459270887 0.57357642473473569 0 0.81915205242281985 I I #
point $-1 -59.534066259640099 -21.829480975415283 15.308454752644115 #
point $-1 -61.804864650410479 -29.239287480360783 12.065418459270907 #
straight-curve $-1 -61.804864650410479 0 15.308454752644115 0 -1 0 I I #
vertex $-1 $500 $705 #
point $-1 -59.56352519023509 -27.122199907519214 13.522936207434174 #
vertex $-1 $504 $706 #
point $-1 -59.56352519023509 -23.946568548256856 13.522936207434174 #
coedge $-1 $519 $518 $511 $642 forward $508 $-1 #
edge $-1 $643 26.174067774388021 $646 29.41710406776123 $641 $707 forward 7 unknown #
vertex $-1 $523 $708 #
straight-curve $-1 -81.530014053303574 -5.7213983277970879 15.308454752644117 -1 0 0 I I #
edge $-1 $646 1.0082475376621698 $520 8.4180540426076664 $519 $709 forward 7 unknown #
vertex $-1 $645 $710 #
straight-curve $-1 -61.804864650410494 -5.7213983277970879 12.065418459270887 0.57357642473473569 0 0.81915205242281985 I I #
point $-1 -59.534066259640099 -5.7213983277970879 15.308454752644115 #
point $-1 -61.804864650410479 -13.131204832742585 12.065418459270907 #
straight-curve $-1 -61.804864650410479 0 15.308454752644115 0 -1 0 I I #
vertex $-1 $526 $711 #
point $-1 -59.56352519023509 -11.014117259901017 13.522936207434174 #
vertex $-1 $530 $712 #
point $-1 -59.56352519023509 -7.8384859006386591 13.522936207434174 #
coedge $-1 $545 $544 $537 $656 forward $534 $-1 #
edge $-1 $657 26.174067774388021 $660 29.41710406776123 $655 $713 forward 7 unknown #
vertex $-1 $549 $714 #
straight-curve $-1 -81.530014053303574 10.386684319821109 15.308454752644117 -1 0 0 I I #
edge $-1 $660 -7.0457937861469286 $546 0.36401271879856845 $545 $715 forward 7 unknown #
vertex $-1 $659 $716 #
straight-curve $-1 -61.804864650410494 10.386684319821109 12.065418459270887 0.57357642473473569 0 0.81915205242281985 I I #
point $-1 -59.534066259640099 10.386684319821109 15.308454752644115 #
point $-1 -61.804864650410479 2.9768778148756119 12.065418459270907 #
straight-curve $-1 -61.804864650410479 0 15.308454752644115 0 -1 0 I I #
vertex $-1 $552 $717 #
point $-1 -59.56352519023509 5.0939653877171764 13.522936207434174 #
vertex $-1 $556 $718 #
point $-1 -59.56352519023509 8.2695967469795377 13.522936207434174 #
coedge $-1 $571 $570 $563 $670 forward $560 $-1 #
edge $-1 $671 26.174067774388021 $674 29.41710406776123 $669 $719 forward 7 unknown #
vertex $-1 $575 $720 #
straight-curve $-1 -81.530014053303574 26.494766967439308 15.308454752644117 -1 0 0 I I #
edge $-1 $674 -15.099835109956029 $572 -7.6900286050105287 $571 $721 forward 7 unknown #
vertex $-1 $673 $722 #
straight-curve $-1 -61.804864650410494 26.494766967439308 12.065418459270887 0.57357642473473569 0 0.81915205242281985 I I #
point $-1 -59.534066259640099 26.494766967439308 15.308454752644115 #
point $-1 -61.804864650410479 19.084960462493807 12.065418459270907 #
straight-curve $-1 -61.804864650410479 0 15.308454752644115 0 -1 0 I I #
vertex $-1 $578 $723 #
point $-1 -59.56352519023509 21.202048035335373 13.522936207434174 #
vertex $-1 $582 $724 #
point $-1 -59.56352519023509 24.377679394597735 13.522936207434174 #
coedge $-1 $597 $596 $589 $684 forward $586 $-1 #
edge $-1 $685 76.799396040529999 $688 80.046939962219241 $683 $725 forward 7 unknown #
vertex $-1 $601 $726 #
straight-curve $-1 15.724665891938457 20.288801368848365 15.30845475264411 1 0 0 I I #
edge $-1 $688 7.7451728832308895 $598 17.342084088004061 $597 $727 forward 7 unknown #
vertex $-1 $687 $728 #
straight-curve $-1 -39.450297160552978 20.288801368848365 82.96053977538476 -0.81915203911291934 0 0.57357644374324357 I I #
point $-1 57.166891360922776 20.288801368848365 15.30845475264411 #
point $-1 61.804864650410479 29.885712573621536 12.060910830954867 #
straight-curve $-1 61.804864650410479 0 15.308454752644115 0 1 0 I I #
vertex $-1 $604 $729 #
point $-1 58.964327710029963 23.030775998783554 11.196385017824674 #
vertex $-1 $608 $730 #
point $-1 58.964327710029963 27.14373794368634 11.196385017824674 #
straight-curve $-1 -61.804864650410479 32.216165295236394 0 0 0 -1 I I #
point $-1 -61.804864650410479 -32.216165295236394 -15.308454752644115 #
straight-curve $-1 -61.804864650410479 0 -15.308454752644115 0 1 0 I I #
point $-1 -61.804864650410479 32.216165295236394 -15.308454752644115 #
straight-curve $-1 -61.804864650410479 -21.829480975415283 41.482522527032138 0 0 -1 I I #
point $-1 -61.804864650410479 -21.829480975415283 15.308454752644115 #
straight-curve $-1 -61.804864650410479 -12.767192113944017 12.065418459270912 0 -1 0 I I #
point $-1 -61.804864650410479 -21.829480975415283 12.065418459270907 #
point $-1 -59.440737376391048 -27.122199907519214 12.826571968855395 #
point $-1 -59.440737376391048 -23.946568548256856 12.826571968855395 #
straight-curve $-1 -61.804864650410479 -5.7213983277970879 41.482522527032138 0 0 -1 I I #
point $-1 -61.804864650410479 -5.7213983277970879 15.308454752644115 #
straight-curve $-1 -61.804864650410479 -4.7131507901349181 12.065418459270912 0 -1 0 I I #
point $-1 -61.804864650410479 -5.7213983277970879 12.065418459270907 #
point $-1 -59.440737376391048 -11.014117259901017 12.826571968855395 #
point $-1 -59.440737376391048 -7.8384859006386591 12.826571968855395 #
straight-curve $-1 -61.804864650410479 10.386684319821109 41.482522527032138 0 0 -1 I I #
point $-1 -61.804864650410479 10.386684319821109 15.308454752644115 #
straight-curve $-1 -61.804864650410479 3.3408905336741803 12.065418459270912 0 -1 0 I I #
point $-1 -61.804864650410479 10.386684319821109 12.065418459270907 #
point $-1 -59.440737376391048 5.0939653877171764 12.826571968855395 #
point $-1 -59.440737376391048 8.2695967469795377 12.826571968855395 #
straight-curve $-1 -61.804864650410479 26.494766967439308 41.482522527032138 0 0 -1 I I #
point $-1 -61.804864650410479 26.494766967439308 15.308454752644115 #
straight-curve $-1 -61.804864650410479 11.394931857483279 12.065418459270912 0 -1 0 I I #
point $-1 -61.804864650410479 26.494766967439308 12.065418459270907 #
point $-1 -59.440737376391048 21.202048035335373 12.826571968855395 #
point $-1 -59.440737376391048 24.377679394597735 12.826571968855395 #
straight-curve $-1 61.804864650410479 20.288801368848365 92.107850793174109 0 0 -1 I I #
point $-1 61.804864650410479 20.288801368848365 15.308454752644115 #
straight-curve $-1 61.804864650410494 12.543628485617475 12.06091083095486 0 1 0 I I #
point $-1 61.804864650410479 20.288801368848365 12.060910830954867 #
point $-1 57.571599227173799 23.030775998783554 10.950809422454999 #
point $-1 57.571599227173799 27.14373794368634 10.950809422454999 #
End-of-ACIS-data 