500 0 10 0           
7 Unknown 11 ACIS 5.0 NT 24 Fri Mar 26 14:36:20 1999 
-1 9.9999999999999995e-007 1e-010 
body $-1 $10 $-1 $11 #
body $-1 $12 $-1 $13 #
body $-1 $14 $-1 $15 #
body $-1 $16 $-1 $17 #
body $-1 $18 $-1 $19 #
body $-1 $20 $-1 $21 #
body $-1 $22 $-1 $23 #
body $-1 $24 $-1 $25 #
body $-1 $26 $-1 $27 #
body $-1 $28 $-1 $29 #
lump $-1 $-1 $30 $0 #
transform $-1 1 0 0 0 1 0 0 0 1 41.632129886776333 27.083055533510063 12.657301172628346 1 rotate no_reflect no_shear #
lump $-1 $-1 $31 $1 #
transform $-1 1 0 0 0 1 0 0 0 1 41.632129886776333 27.083055533510063 12.657301172628346 1 rotate no_reflect no_shear #
lump $-1 $-1 $32 $2 #
transform $-1 1 0 0 0 1 0 0 0 1 41.632129886776333 27.083055533510063 12.657301172628346 1 rotate no_reflect no_shear #
lump $-1 $-1 $33 $3 #
transform $-1 1 0 0 0 1 0 0 0 1 41.632129886776333 27.083055533510063 12.657301172628346 1 rotate no_reflect no_shear #
lump $-1 $-1 $34 $4 #
transform $-1 1 0 0 0 1 0 0 0 1 41.632129886776333 27.083055533510063 12.657301172628346 1 rotate no_reflect no_shear #
lump $-1 $-1 $35 $5 #
transform $-1 1 0 0 0 1 0 0 0 1 41.632129886776333 27.083055533510063 12.657301172628346 1 rotate no_reflect no_shear #
lump $-1 $-1 $36 $6 #
transform $-1 1 0 0 0 1 0 0 0 1 41.632129886776333 27.083055533510063 12.657301172628346 1 rotate no_reflect no_shear #
lump $-1 $-1 $37 $7 #
transform $-1 1 0 0 0 1 0 0 0 1 41.632129886776333 27.083055533510063 12.657301172628346 1 rotate no_reflect no_shear #
lump $-1 $-1 $38 $8 #
transform $-1 1 0 0 0 1 0 0 0 1 41.632129886776333 27.083055533510063 12.657301172628346 1 rotate no_reflect no_shear #
lump $-1 $-1 $39 $9 #
transform $-1 1 0 0 0 1 0 0 0 1 41.632129886776333 27.083055533510063 12.657301172628346 1 rotate no_reflect no_shear #
shell $-1 $-1 $-1 $40 $-1 $10 #
shell $-1 $-1 $-1 $41 $-1 $12 #
shell $-1 $-1 $-1 $42 $-1 $14 #
shell $-1 $-1 $-1 $43 $-1 $16 #
shell $-1 $-1 $-1 $44 $-1 $18 #
shell $-1 $-1 $-1 $45 $-1 $20 #
shell $-1 $-1 $-1 $46 $-1 $22 #
shell $-1 $-1 $-1 $47 $-1 $24 #
shell $-1 $-1 $-1 $48 $-1 $26 #
shell $-1 $-1 $-1 $49 $-1 $28 #
face $-1 $50 $51 $30 $-1 $52 forward single #
face $-1 $53 $54 $31 $-1 $55 reversed single #
face $-1 $56 $57 $32 $-1 $58 reversed single #
face $-1 $59 $60 $33 $-1 $61 forward single #
face $-1 $62 $63 $34 $-1 $64 reversed single #
face $-1 $65 $66 $35 $-1 $67 forward single #
face $-1 $68 $69 $36 $-1 $70 forward single #
face $-1 $71 $72 $37 $-1 $73 reversed single #
face $-1 $74 $75 $38 $-1 $76 forward single #
face $-1 $77 $78 $39 $-1 $79 forward single #
face $-1 $80 $81 $30 $-1 $82 reversed single #
loop $-1 $-1 $83 $40 #
plane-surface $-1 0 0 12.657301172628346 0 0 1 1 0 0 forward_v I I I I #
face $-1 $84 $85 $31 $-1 $86 reversed single #
loop $-1 $-1 $87 $41 #
plane-surface $-1 -38.358506111402527 -13.175236027431197 0 0 -1 0 0 0 -1 forward_v I I I I #
face $-1 $88 $89 $32 $-1 $90 reversed single #
loop $-1 $-1 $91 $42 #
plane-surface $-1 29.323544368811731 21.098309689180766 122.28849172451085 0 -1 0 -0.62932039886446345 0 -0.77714595512881146 forward_v I I I I #
face $-1 $92 $93 $33 $-1 $94 forward single #
loop $-1 $95 $96 $43 #
cone-surface $-1 35.110833372828573 16.227507438476394 6.5668243085536115 -0.62932039886446345 0 -0.77714595512881146 1.5542919102576229 0 -1.2586407977289269 1 I I 0 1 2 forward I I I I #
face $-1 $97 $98 $34 $-1 $99 reversed single #
loop $-1 $-1 $100 $44 #
plane-surface $-1 -94.032027058622788 -3.5530482987498697 73.661387677174289 0 1 0 -0.62932039886446345 0 0.77714595512881146 forward_v I I I I #
face $-1 $101 $102 $35 $-1 $103 forward single #
loop $-1 $104 $105 $45 #
cone-surface $-1 -38.930492841352461 -1.7260945498295008 10.293407480904776 0.62932039886446345 0 -0.77714595512881146 0.38857297756440573 0 0.31466019943223172 1 I I 0 1 0.5 forward I I I I #
face $-1 $106 $107 $36 $-1 $108 forward single #
loop $-1 $109 $110 $46 #
cone-surface $-1 -38.930492841352461 1.0143360735510534 10.293407480904776 0.62932039886446345 0 -0.77714595512881146 0.38857297756440573 0 0.31466019943223172 1 I I 0 1 0.5 forward I I I I #
face $-1 $111 $112 $37 $-1 $113 reversed single #
loop $-1 $-1 $114 $47 #
plane-surface $-1 -94.032027058622788 11.066529683607444 73.661387677174289 0 1 0 -0.62932039886446345 0 0.77714595512881146 forward_v I I I I #
face $-1 $115 $116 $38 $-1 $117 forward single #
loop $-1 $118 $119 $48 #
cone-surface $-1 -38.930492841352461 12.893483432527816 10.293407480904776 0.62932039886446345 0 -0.77714595512881146 0.38857297756440573 0 0.31466019943223172 1 I I 0 1 0.5 forward I I I I #
face $-1 $120 $121 $39 $-1 $122 forward single #
loop $-1 $123 $124 $49 #
cone-surface $-1 -38.930492841352461 15.633914055908363 10.293407480904776 0.62932039886446345 0 -0.77714595512881146 0.38857297756440573 0 0.31466019943223172 1 I I 0 1 0.5 forward I I I I #
face $-1 $125 $126 $30 $-1 $127 reversed single #
loop $-1 $-1 $128 $50 #
plane-surface $-1 0 0 -12.657301172628346 0 0 1 1 0 0 forward_v I I I I #
coedge $-1 $129 $130 $131 $132 forward $51 $-1 #
face $-1 $133 $134 $31 $-1 $135 forward single #
loop $-1 $-1 $136 $53 #
plane-surface $-1 -35.08488233602872 -20.12914578047063 0 -1 0 0 0 0 1 forward_v I I I I #
coedge $-1 $137 $138 $139 $140 forward $54 $-1 #
face $-1 $141 $142 $32 $-1 $143 reversed single #
loop $-1 $-1 $144 $56 #
plane-surface $-1 -23.07635280303473 16.227507438476394 57.580009034699785 0.62932039886446345 0 0.77714595512881146 0.77714595512881146 0 -0.62932039886446345 forward_v I I I I #
coedge $-1 $145 $146 $147 $148 reversed $57 $-1 #
face $-1 $-1 $149 $33 $-1 $150 forward single #
loop $-1 $151 $152 $59 #
cone-surface $-1 32.576996273851286 16.227507438476394 3.4377961442375575 -0.62932039886446345 0 -0.77714595512881146 0.77714595512881146 0 -0.62932039886446345 1 I I -0.70710678118654746 0.70710678118654746 1 forward I I I I #
loop $-1 $-1 $153 $43 #
coedge $-1 $96 $96 $154 $155 reversed $60 $-1 #
face $-1 $156 $157 $34 $-1 $158 reversed single #
loop $-1 $-1 $159 $62 #
plane-surface $-1 -41.632129886776326 -0.35587923813922373 8.952904987363226 -0.62932039886446345 0 0.77714595512881146 0.77714595512881146 0 0.62932039886446345 forward_v I I I I #
coedge $-1 $160 $161 $162 $163 reversed $63 $-1 #
face $-1 $-1 $164 $35 $-1 $165 forward single #
loop $-1 $166 $167 $65 #
cone-surface $-1 -38.358799807116824 -1.7260945498295008 9.5874253930315572 0.62932039886446345 0 -0.77714595512881146 0.19428648878220287 0 0.15733009971611586 1 I I -0.70710678118654746 0.70710678118654746 0.25 forward I I I I #
loop $-1 $-1 $168 $45 #
coedge $-1 $105 $105 $169 $170 reversed $66 $-1 #
face $-1 $-1 $171 $36 $-1 $172 forward single #
loop $-1 $173 $174 $68 #
cone-surface $-1 -38.358799807116824 1.0143360735510534 9.5874253930315572 0.62932039886446345 0 -0.77714595512881146 0.19428648878220287 0 0.15733009971611586 1 I I -0.70710678118654746 0.70710678118654746 0.25 forward I I I I #
loop $-1 $-1 $175 $46 #
coedge $-1 $110 $110 $176 $177 reversed $69 $-1 #
face $-1 $178 $179 $37 $-1 $180 reversed single #
loop $-1 $-1 $181 $71 #
plane-surface $-1 -41.632129886776326 14.26369874421809 8.952904987363226 -0.62932039886446345 0 0.77714595512881146 0.77714595512881146 0 0.62932039886446345 forward_v I I I I #
coedge $-1 $182 $183 $184 $185 reversed $72 $-1 #
face $-1 $-1 $186 $38 $-1 $187 forward single #
loop $-1 $188 $189 $74 #
cone-surface $-1 -38.358799807116824 12.893483432527816 9.5874253930315572 0.62932039886446345 0 -0.77714595512881146 0.19428648878220287 0 0.15733009971611586 1 I I -0.70710678118654746 0.70710678118654746 0.25 forward I I I I #
loop $-1 $-1 $190 $48 #
coedge $-1 $119 $119 $191 $192 reversed $75 $-1 #
face $-1 $-1 $193 $39 $-1 $194 forward single #
loop $-1 $195 $196 $77 #
cone-surface $-1 -38.358799807116824 15.633914055908363 9.5874253930315572 0.62932039886446345 0 -0.77714595512881146 0.19428648878220287 0 0.15733009971611586 1 I I -0.70710678118654746 0.70710678118654746 0.25 forward I I I I #
loop $-1 $-1 $197 $49 #
coedge $-1 $124 $124 $198 $199 reversed $78 $-1 #
face $-1 $200 $201 $30 $-1 $202 reversed single #
loop $-1 $-1 $203 $80 #
plane-surface $-1 0 -27.083055533510063 0 0 1 0 0 0 1 forward_v I I I I #
coedge $-1 $204 $205 $206 $207 forward $81 $-1 #
coedge $-1 $208 $83 $209 $210 forward $51 $-1 #
coedge $-1 $83 $208 $211 $212 forward $51 $-1 #
coedge $-1 $213 $214 $83 $132 reversed $215 $-1 #
edge $-1 $216 -27.083055533510063 $217 27.083055533510063 $131 $218 forward 7 unknown #
face $-1 $219 $220 $31 $-1 $221 reversed single #
loop $-1 $-1 $222 $84 #
plane-surface $-1 0 0 12.657301172628346 0 0 1 1 0 0 forward_v I I I I #
coedge $-1 $223 $224 $225 $226 reversed $85 $-1 #
coedge $-1 $227 $87 $228 $229 reversed $54 $-1 #
coedge $-1 $87 $227 $230 $231 reversed $54 $-1 #
coedge $-1 $224 $223 $87 $140 reversed $85 $-1 #
edge $-1 $232 -12.657301172628346 $233 12.657301172628346 $139 $234 forward 7 unknown #
face $-1 $235 $236 $32 $-1 $237 reversed single #
loop $-1 $-1 $238 $88 #
plane-surface $-1 29.323544368811731 11.356705187772022 122.28849172451085 0 1 0 0.62932039886446345 0 0.77714595512881146 forward_v I I I I #
coedge $-1 $239 $240 $241 $242 reversed $89 $-1 #
coedge $-1 $146 $91 $243 $244 reversed $57 $-1 #
coedge $-1 $91 $145 $239 $245 reversed $57 $-1 #
coedge $-1 $241 $246 $91 $148 forward $247 $-1 #
edge $-1 $248 -26.970357702370467 $249 -17.736798074700527 $147 $250 forward 7 unknown #
loop $-1 $-1 $154 $92 #
plane-surface $-1 -23.07635280303473 16.227507438476394 57.580009034699785 0.62932039886446345 0 0.77714595512881146 0.77714595512881146 0 -0.62932039886446345 forward_v I I I I #
loop $-1 $-1 $251 $59 #
coedge $-1 $152 $152 $153 $252 reversed $93 $-1 #
coedge $-1 $153 $153 $152 $252 forward $95 $-1 #
coedge $-1 $154 $154 $96 $155 forward $149 $-1 #
edge $-1 $253 0 $253 6.2831853071796004 $154 $254 forward 7 unknown #
face $-1 $255 $256 $34 $-1 $257 reversed single #
loop $-1 $-1 $258 $97 #
plane-surface $-1 -94.032027058622788 2.8412898224714223 73.661387677174289 0 -1 0 0.62932039886446345 0 -0.77714595512881146 forward_v I I I I #
coedge $-1 $259 $260 $261 $262 reversed $98 $-1 #
coedge $-1 $161 $100 $263 $264 reversed $63 $-1 #
coedge $-1 $100 $160 $259 $265 reversed $63 $-1 #
coedge $-1 $261 $266 $100 $163 forward $267 $-1 #
edge $-1 $268 5.3838836425350607 $269 9.9584318643437939 $162 $270 forward 7 unknown #
loop $-1 $-1 $169 $101 #
plane-surface $-1 -41.632129886776326 -0.35587923813922373 8.952904987363226 -0.62932039886446345 0 0.77714595512881146 0.77714595512881146 0 0.62932039886446345 forward_v I I I I #
loop $-1 $-1 $271 $65 #
coedge $-1 $167 $167 $168 $272 reversed $102 $-1 #
coedge $-1 $168 $168 $167 $272 forward $104 $-1 #
coedge $-1 $169 $169 $105 $170 forward $164 $-1 #
edge $-1 $273 0 $273 6.2831853071796004 $169 $274 forward 7 unknown #
loop $-1 $-1 $176 $106 #
plane-surface $-1 -41.632129886776326 -0.35587923813922373 8.952904987363226 -0.62932039886446345 0 0.77714595512881146 0.77714595512881146 0 0.62932039886446345 forward_v I I I I #
loop $-1 $-1 $275 $68 #
coedge $-1 $174 $174 $175 $276 reversed $107 $-1 #
coedge $-1 $175 $175 $174 $276 forward $109 $-1 #
coedge $-1 $176 $176 $110 $177 forward $171 $-1 #
edge $-1 $277 0 $277 6.2831853071796004 $176 $278 forward 7 unknown #
face $-1 $279 $280 $37 $-1 $281 forward single #
loop $-1 $-1 $282 $111 #
plane-surface $-1 -94.032027058622788 17.460867804828737 73.661387677174289 0 -1 0 0.62932039886446345 0 -0.77714595512881146 forward_v I I I I #
coedge $-1 $283 $284 $285 $286 reversed $112 $-1 #
coedge $-1 $183 $114 $287 $288 reversed $72 $-1 #
coedge $-1 $114 $182 $283 $289 reversed $72 $-1 #
coedge $-1 $285 $290 $114 $185 forward $280 $-1 #
edge $-1 $291 5.3838836425350607 $292 9.9584318643437939 $184 $293 forward 7 unknown #
loop $-1 $-1 $191 $115 #
plane-surface $-1 -41.632129886776326 14.26369874421809 8.952904987363226 -0.62932039886446345 0 0.77714595512881146 0.77714595512881146 0 0.62932039886446345 forward_v I I I I #
loop $-1 $-1 $294 $74 #
coedge $-1 $189 $189 $190 $295 reversed $116 $-1 #
coedge $-1 $190 $190 $189 $295 forward $118 $-1 #
coedge $-1 $191 $191 $119 $192 forward $186 $-1 #
edge $-1 $296 0 $296 6.2831853071796004 $191 $297 forward 7 unknown #
loop $-1 $-1 $198 $120 #
plane-surface $-1 -41.632129886776326 14.26369874421809 8.952904987363226 -0.62932039886446345 0 0.77714595512881146 0.77714595512881146 0 0.62932039886446345 forward_v I I I I #
loop $-1 $-1 $298 $77 #
coedge $-1 $196 $196 $197 $299 reversed $121 $-1 #
coedge $-1 $197 $197 $196 $299 forward $123 $-1 #
coedge $-1 $198 $198 $124 $199 forward $193 $-1 #
edge $-1 $300 0 $300 6.2831853071796004 $198 $301 forward 7 unknown #
face $-1 $302 $303 $30 $-1 $304 reversed single #
loop $-1 $-1 $305 $125 #
plane-surface $-1 -41.632129886776333 0 0 1 0 0 0 0 -1 forward_v I I I I #
coedge $-1 $306 $211 $307 $308 forward $126 $-1 #
coedge $-1 $309 $128 $306 $310 forward $81 $-1 #
coedge $-1 $128 $309 $311 $312 forward $81 $-1 #
coedge $-1 $214 $213 $128 $207 reversed $215 $-1 #
edge $-1 $313 -27.083055533510063 $314 27.083055533510063 $206 $315 forward 7 unknown #
coedge $-1 $130 $129 $316 $317 forward $51 $-1 #
coedge $-1 $318 $319 $129 $210 reversed $303 $-1 #
edge $-1 $217 -41.632129886776333 $320 41.632129886776333 $209 $321 forward 7 unknown #
coedge $-1 $203 $322 $130 $212 reversed $126 $-1 #
edge $-1 $323 -41.632129886776333 $216 41.632129886776333 $211 $324 forward 7 unknown #
coedge $-1 $206 $131 $322 $325 forward $215 $-1 #
coedge $-1 $131 $206 $318 $326 reversed $215 $-1 #
loop $-1 $-1 $213 $302 #
vertex $-1 $132 $327 #
vertex $-1 $132 $328 #
straight-curve $-1 41.632129886776333 0 12.657301172628346 0 1 0 I I #
face $-1 $329 $330 $31 $-1 $331 reversed single #
loop $-1 $-1 $332 $133 #
plane-surface $-1 -41.632129886776333 0 0 1 0 0 0 0 -1 forward_v I I I I #
coedge $-1 $230 $333 $224 $334 forward $134 $-1 #
coedge $-1 $139 $136 $335 $336 reversed $85 $-1 #
coedge $-1 $136 $139 $222 $334 reversed $85 $-1 #
coedge $-1 $337 $338 $136 $226 forward $339 $-1 #
edge $-1 $340 -12.657301172628346 $341 12.657301172628346 $225 $342 forward 7 unknown #
coedge $-1 $138 $137 $332 $343 reversed $54 $-1 #
coedge $-1 $335 $344 $137 $229 forward $330 $-1 #
edge $-1 $345 -22.45287683107507 $233 -15.905629280327457 $228 $346 forward 7 unknown #
coedge $-1 $347 $222 $138 $231 forward $134 $-1 #
edge $-1 $232 15.905629280327457 $348 22.45287683107507 $230 $349 forward 7 unknown #
vertex $-1 $231 $350 #
vertex $-1 $229 $351 #
straight-curve $-1 -35.08488233602872 -13.175236027431197 0 0 0 -1 I I #
face $-1 $-1 $247 $32 $-1 $352 forward single #
loop $-1 $-1 $353 $141 #
plane-surface $-1 41.632129886776333 0 0 -1 0 0 0 0 1 forward_v I I I I #
coedge $-1 $354 $355 $356 $357 reversed $142 $-1 #
coedge $-1 $358 $144 $146 $245 forward $89 $-1 #
coedge $-1 $144 $358 $354 $359 forward $89 $-1 #
coedge $-1 $356 $147 $144 $242 forward $247 $-1 #
edge $-1 $249 -12.984555969942569 $360 -3.2429514685338248 $241 $361 forward 7 unknown #
coedge $-1 $362 $363 $145 $244 forward $236 $-1 #
edge $-1 $364 -55.964133999402101 $248 -48.48694468962708 $243 $365 forward 7 unknown #
edge $-1 $249 71.382888498655561 $364 83.264259773552666 $146 $366 forward 7 unknown #
coedge $-1 $147 $356 $362 $367 forward $247 $-1 #
loop $-1 $-1 $356 $235 #
vertex $-1 $244 $368 #
vertex $-1 $148 $369 #
straight-curve $-1 14.661772184405866 21.098309689180766 12.657301172628344 -1 0 0 I I #
coedge $-1 $251 $251 $-1 $370 reversed $151 $-1 #
edge $-1 $371 0 $371 6.2831853071796004 $152 $372 forward 7 unknown #
vertex $-1 $155 $373 #
ellipse-curve $-1 37.015350072941374 16.227507438476394 8.91870651774083 0.62932039886446345 0 0.77714595512881146 1.5542919102576229 0 -1.2586407977289269 1 I I #
face $-1 $-1 $267 $34 $-1 $374 forward single #
loop $-1 $-1 $375 $156 #
plane-surface $-1 -41.632129886776333 0 0 1 0 0 0 0 -1 forward_v I I I I #
coedge $-1 $376 $377 $378 $379 reversed $157 $-1 #
coedge $-1 $380 $159 $161 $265 forward $98 $-1 #
coedge $-1 $159 $380 $376 $381 forward $98 $-1 #
coedge $-1 $378 $162 $159 $262 forward $267 $-1 #
edge $-1 $269 -3.3751086796802579 $382 3.0192294415410341 $261 $383 forward 7 unknown #
coedge $-1 $384 $385 $160 $264 forward $256 $-1 #
edge $-1 $386 -27.877788851223926 $268 -24.173392665958801 $263 $387 forward 7 unknown #
edge $-1 $269 -5.8863437319833904 $386 8.8756469145121664e-015 $161 $388 forward 7 unknown #
coedge $-1 $162 $378 $384 $389 forward $267 $-1 #
loop $-1 $-1 $378 $255 #
vertex $-1 $264 $390 #
vertex $-1 $163 $391 #
straight-curve $-1 -47.016013529311394 -3.5530482987498697 12.657301172628344 1 0 0 I I #
coedge $-1 $271 $271 $-1 $392 reversed $166 $-1 #
edge $-1 $393 0 $393 6.2831853071796004 $167 $394 forward 7 unknown #
vertex $-1 $170 $395 #
ellipse-curve $-1 -39.34485577587197 -1.7260945498295008 10.805103079995781 -0.62932039886446345 0 0.77714595512881146 0.38857297756440573 0 0.31466019943223172 1 I I #
coedge $-1 $275 $275 $-1 $396 reversed $173 $-1 #
edge $-1 $397 0 $397 6.2831853071796004 $174 $398 forward 7 unknown #
vertex $-1 $177 $399 #
ellipse-curve $-1 -39.34485577587197 1.0143360735510534 10.805103079995781 -0.62932039886446345 0 0.77714595512881146 0.38857297756440573 0 0.31466019943223172 1 I I #
face $-1 $-1 $400 $37 $-1 $401 reversed single #
loop $-1 $-1 $184 $178 #
plane-surface $-1 0 0 12.657301172628346 0 0 1 1 0 0 forward_v I I I I #
coedge $-1 $402 $403 $404 $405 reversed $179 $-1 #
coedge $-1 $406 $181 $183 $289 forward $112 $-1 #
coedge $-1 $181 $406 $402 $407 forward $112 $-1 #
coedge $-1 $404 $184 $181 $286 forward $280 $-1 #
edge $-1 $292 3.9346803114983988 $408 10.329018432719693 $285 $409 forward 7 unknown #
coedge $-1 $410 $411 $182 $288 forward $400 $-1 #
edge $-1 $412 -27.877788851223926 $291 -24.173392665958801 $287 $413 forward 7 unknown #
edge $-1 $292 -5.8863437319833904 $412 8.8756469145121664e-015 $183 $414 forward 7 unknown #
coedge $-1 $184 $404 $410 $415 forward $280 $-1 #
vertex $-1 $288 $416 #
vertex $-1 $185 $417 #
straight-curve $-1 -47.016013529311394 11.066529683607444 12.657301172628344 1 0 0 I I #
coedge $-1 $294 $294 $-1 $418 reversed $188 $-1 #
edge $-1 $419 0 $419 6.2831853071796004 $189 $420 forward 7 unknown #
vertex $-1 $192 $421 #
ellipse-curve $-1 -39.34485577587197 12.893483432527816 10.805103079995781 -0.62932039886446345 0 0.77714595512881146 0.38857297756440573 0 0.31466019943223172 1 I I #
coedge $-1 $298 $298 $-1 $422 reversed $195 $-1 #
edge $-1 $423 0 $423 6.2831853071796004 $196 $424 forward 7 unknown #
vertex $-1 $199 $425 #
ellipse-curve $-1 -39.34485577587197 15.633914055908363 10.805103079995781 -0.62932039886446345 0 0.77714595512881146 0.38857297756440573 0 0.31466019943223172 1 I I #
face $-1 $-1 $215 $30 $-1 $426 reversed single #
loop $-1 $-1 $318 $200 #
plane-surface $-1 0 27.083055533510063 0 0 -1 0 0 0 -1 forward_v I I I I #
coedge $-1 $427 $316 $319 $428 forward $201 $-1 #
coedge $-1 $322 $203 $204 $310 reversed $126 $-1 #
coedge $-1 $316 $427 $203 $308 reversed $201 $-1 #
edge $-1 $323 -12.657301172628346 $429 12.657301172628346 $307 $430 forward 7 unknown #
coedge $-1 $205 $204 $427 $431 forward $81 $-1 #
edge $-1 $314 -41.632129886776333 $429 41.632129886776333 $306 $432 forward 7 unknown #
coedge $-1 $319 $318 $205 $312 reversed $303 $-1 #
edge $-1 $433 -41.632129886776333 $313 41.632129886776333 $311 $434 forward 7 unknown #
vertex $-1 $207 $435 #
vertex $-1 $325 $436 #
straight-curve $-1 41.632129886776333 0 -12.657301172628346 0 -1 0 I I #
coedge $-1 $305 $307 $208 $317 reversed $201 $-1 #
edge $-1 $320 -27.083055533510063 $323 27.083055533510063 $316 $437 forward 7 unknown #
coedge $-1 $311 $209 $214 $326 forward $303 $-1 #
coedge $-1 $209 $311 $305 $428 reversed $303 $-1 #
vertex $-1 $210 $438 #
straight-curve $-1 0 27.083055533510063 12.657301172628346 -1 0 0 I I #
coedge $-1 $211 $306 $213 $325 reversed $126 $-1 #
vertex $-1 $317 $439 #
straight-curve $-1 0 -27.083055533510063 12.657301172628346 1 0 0 I I #
edge $-1 $216 -12.657301172628346 $314 12.657301172628346 $213 $440 forward 7 unknown #
edge $-1 $217 -12.657301172628346 $313 12.657301172628346 $214 $441 forward 7 unknown #
point $-1 41.632129886776333 -27.083055533510063 12.657301172628346 #
point $-1 41.632129886776333 27.083055533510063 12.657301172628346 #
face $-1 $-1 $339 $31 $-1 $442 reversed single #
loop $-1 $-1 $335 $219 #
plane-surface $-1 0 0 -12.657301172628346 0 0 1 1 0 0 forward_v I I I I #
coedge $-1 $443 $444 $227 $343 forward $220 $-1 #
coedge $-1 $222 $347 $337 $445 forward $134 $-1 #
edge $-1 $341 -17.018482643274748 $232 -3.1106631371958819 $222 $446 forward 7 unknown #
coedge $-1 $447 $228 $223 $336 forward $330 $-1 #
edge $-1 $233 3.1106631371958819 $340 17.018482643274748 $335 $448 forward 7 unknown #
coedge $-1 $449 $225 $333 $445 reversed $339 $-1 #
coedge $-1 $225 $449 $447 $450 reversed $339 $-1 #
loop $-1 $-1 $225 $329 #
vertex $-1 $450 $451 #
vertex $-1 $226 $452 #
straight-curve $-1 -35.08488233602872 -27.083055533510063 0 0 0 1 I I #
edge $-1 $348 -12.657301172628346 $345 12.657301172628346 $332 $453 forward 7 unknown #
coedge $-1 $228 $447 $443 $454 forward $330 $-1 #
vertex $-1 $229 $455 #
straight-curve $-1 -19.179253055701263 -13.175236027431197 -12.657301172628346 1 0 0 I I #
coedge $-1 $333 $230 $444 $456 forward $134 $-1 #
vertex $-1 $456 $457 #
straight-curve $-1 -19.179253055701263 -13.175236027431197 12.657301172628346 -1 0 0 I I #
point $-1 -35.08488233602872 -13.175236027431197 12.657301172628346 #
point $-1 -35.08488233602872 -13.175236027431197 -12.657301172628346 #
plane-surface $-1 0 0 12.657301172628346 0 0 1 1 0 0 forward_v I I I I #
coedge $-1 $363 $362 $355 $458 forward $236 $-1 #
coedge $-1 $355 $238 $240 $359 reversed $142 $-1 #
coedge $-1 $238 $354 $353 $458 reversed $142 $-1 #
coedge $-1 $246 $241 $238 $357 forward $247 $-1 #
edge $-1 $360 17.736798074700527 $459 26.970357702370467 $356 $460 forward 7 unknown #
coedge $-1 $240 $239 $363 $461 reversed $89 $-1 #
edge $-1 $462 -83.264259773552666 $360 -71.382888498655561 $354 $463 forward 7 unknown #
vertex $-1 $242 $464 #
straight-curve $-1 32.3985702591064 8.113753719238197 12.65730117262834 0 -1 0 I I #
coedge $-1 $353 $243 $246 $367 reversed $236 $-1 #
coedge $-1 $243 $353 $358 $461 forward $236 $-1 #
vertex $-1 $244 $465 #
straight-curve $-1 41.632129886776333 21.098309689180766 61.144245862255424 0 0 1 I I #
straight-curve $-1 -23.07635280303473 21.098309689180766 57.580009034699785 0.77714595512881146 0 -0.62932039886446345 I I #
edge $-1 $459 11.356705187772022 $248 21.098309689180766 $362 $466 forward 7 unknown #
point $-1 41.632129886776333 21.098309689180766 12.657301172628346 #
point $-1 32.398570259106393 21.098309689180766 12.657301172628344 #
edge $-1 $467 1 $467 0 $251 $-1 forward 7 unknown #
vertex $-1 $252 $468 #
ellipse-curve $-1 33.206316672715751 16.227507438476394 4.2149420993663691 0.62932039886446345 0 0.77714595512881146 1.5542919102576229 0 -1.2586407977289269 1 I I #
point $-1 38.569641983199013 16.227507438476394 7.6600657200119251 #
plane-surface $-1 0 0 12.657301172628346 0 0 1 1 0 0 forward_v I I I I #
coedge $-1 $385 $384 $377 $469 forward $256 $-1 #
coedge $-1 $377 $258 $260 $381 reversed $157 $-1 #
coedge $-1 $258 $376 $375 $469 reversed $157 $-1 #
coedge $-1 $266 $261 $258 $379 forward $267 $-1 #
edge $-1 $382 -9.9584318643437939 $470 -5.3838836425350607 $378 $471 forward 7 unknown #
coedge $-1 $260 $259 $385 $472 reversed $98 $-1 #
edge $-1 $473 -8.8756469145121664e-015 $382 5.8863437319833904 $376 $474 forward 7 unknown #
vertex $-1 $262 $475 #
straight-curve $-1 -37.057581664967607 -0.17793961906961187 12.657301172628346 0 1 0 I I #
coedge $-1 $375 $263 $266 $389 reversed $256 $-1 #
coedge $-1 $263 $375 $380 $472 forward $256 $-1 #
vertex $-1 $264 $476 #
straight-curve $-1 -41.632129886776333 -3.5530482987498697 36.830693838587145 0 0 1 I I #
straight-curve $-1 -41.632129886776326 -3.5530482987498697 8.952904987363226 -0.77714595512881146 0 -0.62932039886446345 I I #
edge $-1 $470 -2.8412898224714223 $268 3.5530482987498697 $384 $477 forward 7 unknown #
point $-1 -41.632129886776333 -3.5530482987498697 12.657301172628346 #
point $-1 -37.0575816649676 -3.5530482987498697 12.657301172628346 #
edge $-1 $478 1 $478 0 $271 $-1 forward 7 unknown #
vertex $-1 $272 $479 #
ellipse-curve $-1 -38.516129906832937 -1.7260945498295008 9.7817118818137594 -0.62932039886446345 0 0.77714595512881146 0.38857297756440573 0 0.31466019943223172 1 I I #
point $-1 -38.956282798307569 -1.7260945498295008 11.119763279428023 #
edge $-1 $480 1 $480 0 $275 $-1 forward 7 unknown #
vertex $-1 $276 $481 #
ellipse-curve $-1 -38.516129906832937 1.0143360735510534 9.7817118818137594 -0.62932039886446345 0 0.77714595512881146 0.38857297756440573 0 0.31466019943223172 1 I I #
point $-1 -38.956282798307569 1.0143360735510534 11.119763279428023 #
loop $-1 $-1 $287 $279 #
plane-surface $-1 -41.632129886776333 0 0 1 0 0 0 0 -1 forward_v I I I I #
coedge $-1 $403 $282 $284 $407 reversed $179 $-1 #
coedge $-1 $282 $402 $482 $483 reversed $179 $-1 #
coedge $-1 $290 $285 $282 $405 forward $280 $-1 #
edge $-1 $408 -9.9584318643437939 $484 -5.3838836425350607 $404 $485 forward 7 unknown #
coedge $-1 $284 $283 $411 $486 reversed $112 $-1 #
edge $-1 $487 -8.8756469145121664e-015 $408 5.8863437319833904 $402 $488 forward 7 unknown #
vertex $-1 $286 $489 #
straight-curve $-1 -37.057581664967607 7.1318493721090448 12.657301172628346 0 1 0 I I #
coedge $-1 $482 $287 $290 $415 reversed $400 $-1 #
coedge $-1 $287 $482 $406 $486 forward $400 $-1 #
vertex $-1 $288 $490 #
straight-curve $-1 -41.632129886776333 11.066529683607444 36.830693838587145 0 0 1 I I #
straight-curve $-1 -41.632129886776326 11.066529683607444 8.952904987363226 -0.77714595512881146 0 -0.62932039886446345 I I #
edge $-1 $484 -17.460867804828737 $291 -11.066529683607444 $410 $491 forward 7 unknown #
point $-1 -41.632129886776333 11.066529683607444 12.657301172628346 #
point $-1 -37.0575816649676 11.066529683607444 12.657301172628346 #
edge $-1 $492 1 $492 0 $294 $-1 forward 7 unknown #
vertex $-1 $295 $493 #
ellipse-curve $-1 -38.516129906832937 12.893483432527816 9.7817118818137594 -0.62932039886446345 0 0.77714595512881146 0.38857297756440573 0 0.31466019943223172 1 I I #
point $-1 -38.956282798307569 12.893483432527816 11.119763279428023 #
edge $-1 $494 1 $494 0 $298 $-1 forward 7 unknown #
vertex $-1 $299 $495 #
ellipse-curve $-1 -38.516129906832937 15.633914055908363 9.7817118818137594 -0.62932039886446345 0 0.77714595512881146 0.38857297756440573 0 0.31466019943223172 1 I I #
point $-1 -38.956282798307569 15.633914055908363 11.119763279428023 #
plane-surface $-1 41.632129886776333 0 0 -1 0 0 0 0 1 forward_v I I I I #
coedge $-1 $307 $305 $309 $431 reversed $201 $-1 #
edge $-1 $320 -12.657301172628346 $433 12.657301172628346 $319 $496 forward 7 unknown #
vertex $-1 $431 $497 #
straight-curve $-1 -41.632129886776333 -27.083055533510063 0 0 0 -1 I I #
edge $-1 $429 -27.083055533510063 $433 27.083055533510063 $427 $498 forward 7 unknown #
straight-curve $-1 0 -27.083055533510063 -12.657301172628346 -1 0 0 I I #
vertex $-1 $312 $499 #
straight-curve $-1 0 27.083055533510063 -12.657301172628346 1 0 0 I I #
point $-1 41.632129886776333 27.083055533510063 -12.657301172628346 #
point $-1 41.632129886776333 -27.083055533510063 -12.657301172628346 #
straight-curve $-1 -41.632129886776333 0 12.657301172628346 0 -1 0 I I #
point $-1 -41.632129886776333 27.083055533510063 12.657301172628346 #
point $-1 -41.632129886776333 -27.083055533510063 12.657301172628346 #
straight-curve $-1 41.632129886776333 -27.083055533510063 0 0 0 -1 I I #
straight-curve $-1 41.632129886776333 27.083055533510063 0 0 0 -1 I I #
plane-surface $-1 0 -27.083055533510063 0 0 1 0 0 0 1 forward_v I I I I #
coedge $-1 $500 $332 $344 $454 reversed $220 $-1 #
coedge $-1 $332 $500 $347 $456 reversed $220 $-1 #
edge $-1 $501 -41.632129886776333 $341 -35.08488233602872 $337 $502 forward 7 unknown #
straight-curve $-1 -35.08488233602872 -10.064572890235315 12.657301172628346 0 1 0 I I #
coedge $-1 $344 $335 $338 $450 forward $330 $-1 #
straight-curve $-1 -35.08488233602872 -10.064572890235315 -12.657301172628346 0 -1 0 I I #
coedge $-1 $338 $337 $500 $503 forward $339 $-1 #
edge $-1 $340 35.08488233602872 $504 41.632129886776333 $338 $505 forward 7 unknown #
point $-1 -35.08488233602872 -27.083055533510063 -12.657301172628346 #
point $-1 -35.08488233602872 -27.083055533510063 12.657301172628346 #
straight-curve $-1 -41.632129886776333 -13.175236027431197 0 0 0 -1 I I #
edge $-1 $504 -27.083055533510063 $345 -13.175236027431197 $443 $506 forward 7 unknown #
point $-1 -41.632129886776333 -13.175236027431197 -12.657301172628346 #
edge $-1 $348 13.175236027431197 $501 27.083055533510063 $444 $507 forward 7 unknown #
point $-1 -41.632129886776333 -13.175236027431197 12.657301172628346 #
edge $-1 $459 48.48694468962708 $462 55.964133999402101 $353 $508 forward 7 unknown #
vertex $-1 $367 $509 #
straight-curve $-1 14.661772184405866 11.356705187772022 12.657301172628344 1 0 0 I I #
edge $-1 $462 3.2429514685338248 $364 12.984555969942569 $363 $510 forward 7 unknown #
vertex $-1 $461 $511 #
straight-curve $-1 -23.07635280303473 11.356705187772022 57.580009034699785 -0.77714595512881146 0 0.62932039886446345 I I #
point $-1 32.398570259106393 11.356705187772022 12.657301172628344 #
point $-1 41.632129886776333 21.098309689180766 5.1801118628533231 #
straight-curve $-1 41.632129886776333 0 12.657301172628346 0 1 0 I I #
vertex $-1 $370 $512 #
point $-1 34.760608582973376 16.227507438476394 2.956301301637442 #
edge $-1 $470 24.173392665958801 $473 27.877788851223926 $375 $513 forward 7 unknown #
vertex $-1 $389 $514 #
straight-curve $-1 -47.016013529311394 2.8412898224714223 12.657301172628344 -1 0 0 I I #
edge $-1 $473 -3.0192294415410341 $386 3.3751086796802579 $385 $515 forward 7 unknown #
vertex $-1 $472 $516 #
straight-curve $-1 -41.632129886776326 2.8412898224714223 8.952904987363226 0.77714595512881146 0 0.62932039886446345 I I #
point $-1 -37.0575816649676 2.8412898224714223 12.657301172628346 #
point $-1 -41.632129886776333 -3.5530482987498697 8.9529049873632207 #
straight-curve $-1 -41.632129886776333 0 12.657301172628346 0 -1 0 I I #
vertex $-1 $392 $517 #
point $-1 -38.127556929268536 -1.7260945498295008 10.096372081245992 #
vertex $-1 $396 $518 #
point $-1 -38.127556929268536 1.0143360735510534 10.096372081245992 #
coedge $-1 $411 $410 $403 $483 forward $400 $-1 #
edge $-1 $484 24.173392665958801 $487 27.877788851223926 $482 $519 forward 7 unknown #
vertex $-1 $415 $520 #
straight-curve $-1 -47.016013529311394 17.460867804828737 12.657301172628344 -1 0 0 I I #
edge $-1 $487 -10.329018432719693 $412 -3.9346803114983988 $411 $521 forward 7 unknown #
vertex $-1 $486 $522 #
straight-curve $-1 -41.632129886776326 17.460867804828737 8.952904987363226 0.77714595512881146 0 0.62932039886446345 I I #
point $-1 -37.0575816649676 17.460867804828737 12.657301172628346 #
point $-1 -41.632129886776333 11.066529683607444 8.9529049873632207 #
straight-curve $-1 -41.632129886776333 0 12.657301172628346 0 -1 0 I I #
vertex $-1 $418 $523 #
point $-1 -38.127556929268536 12.893483432527816 10.096372081245992 #
vertex $-1 $422 $524 #
point $-1 -38.127556929268536 15.633914055908363 10.096372081245992 #
straight-curve $-1 -41.632129886776333 27.083055533510063 0 0 0 -1 I I #
point $-1 -41.632129886776333 -27.083055533510063 -12.657301172628346 #
straight-curve $-1 -41.632129886776333 0 -12.657301172628346 0 1 0 I I #
point $-1 -41.632129886776333 27.083055533510063 -12.657301172628346 #
coedge $-1 $444 $443 $449 $503 reversed $220 $-1 #
vertex $-1 $456 $525 #
straight-curve $-1 0 -27.083055533510063 12.657301172628346 1 0 0 I I #
edge $-1 $501 -12.657301172628346 $504 12.657301172628346 $500 $526 forward 7 unknown #
vertex $-1 $454 $527 #
straight-curve $-1 0 -27.083055533510063 -12.657301172628346 -1 0 0 I I #
straight-curve $-1 -41.632129886776333 0 -12.657301172628346 0 1 0 I I #
straight-curve $-1 -41.632129886776333 0 12.657301172628346 0 -1 0 I I #
straight-curve $-1 41.632129886776333 11.356705187772022 61.144245862255424 0 0 -1 I I #
point $-1 41.632129886776333 11.356705187772022 12.657301172628346 #
straight-curve $-1 41.632129886776333 8.113753719238197 5.1801118628533196 0 1 0 I I #
point $-1 41.632129886776333 11.356705187772022 5.1801118628533231 #
point $-1 31.947675874986821 16.227507438476394 2.660650189108746 #
straight-curve $-1 -41.632129886776333 2.8412898224714223 36.830693838587145 0 0 -1 I I #
point $-1 -41.632129886776333 2.8412898224714223 12.657301172628346 #
straight-curve $-1 -41.632129886776333 -0.17793961906961187 8.9529049873632189 0 -1 0 I I #
point $-1 -41.632129886776333 2.8412898224714223 8.9529049873632207 #
point $-1 -38.201469707400712 -1.7260945498295008 9.3931389042493549 #
point $-1 -38.201469707400712 1.0143360735510534 9.3931389042493549 #
straight-curve $-1 -41.632129886776333 17.460867804828737 36.830693838587145 0 0 -1 I I #
point $-1 -41.632129886776333 17.460867804828737 12.657301172628346 #
straight-curve $-1 -41.632129886776333 7.1318493721090448 8.9529049873632189 0 -1 0 I I #
point $-1 -41.632129886776333 17.460867804828737 8.9529049873632207 #
point $-1 -38.201469707400712 12.893483432527816 9.3931389042493549 #
point $-1 -38.201469707400712 15.633914055908363 9.3931389042493549 #
point $-1 -41.632129886776333 -27.083055533510063 12.657301172628346 #
straight-curve $-1 -41.632129886776333 -27.083055533510063 0 0 0 -1 I I #
point $-1 -41.632129886776333 -27.083055533510063 -12.657301172628346 #
End-of-ACIS-data 