500 0 14 0           
7 Unknown 11 ACIS 5.0 NT 24 Thu Mar 25 21:33:50 1999 
-1 9.9999999999999995e-007 1e-010 
body $-1 $14 $-1 $15 #
body $-1 $16 $-1 $17 #
body $-1 $18 $-1 $19 #
body $-1 $20 $-1 $21 #
body $-1 $22 $-1 $23 #
body $-1 $24 $-1 $25 #
body $-1 $26 $-1 $27 #
body $-1 $28 $-1 $29 #
body $-1 $30 $-1 $31 #
body $-1 $32 $-1 $33 #
body $-1 $34 $-1 $35 #
body $-1 $36 $-1 $37 #
body $-1 $38 $-1 $39 #
body $-1 $40 $-1 $41 #
lump $-1 $-1 $42 $0 #
transform $-1 1 0 0 0 1 0 0 0 1 59.436628315073094 34.593398304989485 6.9370495187971102 1 rotate no_reflect no_shear #
lump $-1 $-1 $43 $1 #
transform $-1 1 0 0 0 1 0 0 0 1 59.436628315073094 34.593398304989485 6.9370495187971102 1 rotate no_reflect no_shear #
lump $-1 $-1 $44 $2 #
transform $-1 1 0 0 0 1 0 0 0 1 59.436628315073094 34.593398304989485 6.9370495187971102 1 rotate no_reflect no_shear #
lump $-1 $-1 $45 $3 #
transform $-1 1 0 0 0 1 0 0 0 1 59.436628315073094 34.593398304989485 6.9370495187971102 1 rotate no_reflect no_shear #
lump $-1 $-1 $46 $4 #
transform $-1 1 0 0 0 1 0 0 0 1 59.436628315073094 34.593398304989485 6.9370495187971102 1 rotate no_reflect no_shear #
lump $-1 $-1 $47 $5 #
transform $-1 1 0 0 0 1 0 0 0 1 59.436628315073094 34.593398304989485 6.9370495187971102 1 rotate no_reflect no_shear #
lump $-1 $-1 $48 $6 #
transform $-1 1 0 0 0 1 0 0 0 1 59.436628315073094 34.593398304989485 6.9370495187971102 1 rotate no_reflect no_shear #
lump $-1 $-1 $49 $7 #
transform $-1 1 0 0 0 1 0 0 0 1 59.436628315073094 34.593398304989485 6.9370495187971102 1 rotate no_reflect no_shear #
lump $-1 $-1 $50 $8 #
transform $-1 1 0 0 0 1 0 0 0 1 59.436628315073094 34.593398304989485 6.9370495187971102 1 rotate no_reflect no_shear #
lump $-1 $-1 $51 $9 #
transform $-1 1 0 0 0 1 0 0 0 1 59.436628315073094 34.593398304989485 6.9370495187971102 1 rotate no_reflect no_shear #
lump $-1 $-1 $52 $10 #
transform $-1 1 0 0 0 1 0 0 0 1 59.436628315073094 34.593398304989485 6.9370495187971102 1 rotate no_reflect no_shear #
lump $-1 $-1 $53 $11 #
transform $-1 1 0 0 0 1 0 0 0 1 59.436628315073094 34.593398304989485 6.9370495187971102 1 rotate no_reflect no_shear #
lump $-1 $-1 $54 $12 #
transform $-1 1 0 0 0 1 0 0 0 1 59.436628315073094 34.593398304989485 6.9370495187971102 1 rotate no_reflect no_shear #
lump $-1 $-1 $55 $13 #
transform $-1 1 0 0 0 1 0 0 0 1 59.436628315073094 34.593398304989485 6.9370495187971102 1 rotate no_reflect no_shear #
shell $-1 $-1 $-1 $56 $-1 $14 #
shell $-1 $-1 $-1 $57 $-1 $16 #
shell $-1 $-1 $-1 $58 $-1 $18 #
shell $-1 $-1 $-1 $59 $-1 $20 #
shell $-1 $-1 $-1 $60 $-1 $22 #
shell $-1 $-1 $-1 $61 $-1 $24 #
shell $-1 $-1 $-1 $62 $-1 $26 #
shell $-1 $-1 $-1 $63 $-1 $28 #
shell $-1 $-1 $-1 $64 $-1 $30 #
shell $-1 $-1 $-1 $65 $-1 $32 #
shell $-1 $-1 $-1 $66 $-1 $34 #
shell $-1 $-1 $-1 $67 $-1 $36 #
shell $-1 $-1 $-1 $68 $-1 $38 #
shell $-1 $-1 $-1 $69 $-1 $40 #
face $-1 $70 $71 $42 $-1 $72 forward single #
face $-1 $73 $74 $43 $-1 $75 forward single #
face $-1 $76 $77 $44 $-1 $78 reversed single #
face $-1 $79 $80 $45 $-1 $81 forward single #
face $-1 $82 $83 $46 $-1 $84 forward single #
face $-1 $85 $86 $47 $-1 $87 reversed single #
face $-1 $88 $89 $48 $-1 $90 forward single #
face $-1 $91 $92 $49 $-1 $93 forward single #
face $-1 $94 $95 $50 $-1 $96 reversed single #
face $-1 $97 $98 $51 $-1 $99 forward single #
face $-1 $100 $101 $52 $-1 $102 forward single #
face $-1 $103 $104 $53 $-1 $105 reversed single #
face $-1 $106 $107 $54 $-1 $108 forward single #
face $-1 $109 $110 $55 $-1 $111 forward single #
face $-1 $112 $113 $42 $-1 $114 reversed single #
loop $-1 $-1 $115 $56 #
plane-surface $-1 0 0 6.9370495187971102 0 0 1 1 0 0 forward_v I I I I #
face $-1 $116 $117 $43 $-1 $118 reversed single #
loop $-1 $-1 $119 $57 #
plane-surface $-1 0 -34.593398304989485 0 0 1 0 0 0 1 forward_v I I I I #
face $-1 $120 $121 $44 $-1 $122 reversed single #
loop $-1 $-1 $123 $58 #
plane-surface $-1 -56.612945108603313 96.607071619343571 124.73737078198552 1 0 0 0 -0.83867057594974714 -0.54463902268945019 forward_v I I I I #
face $-1 $124 $125 $45 $-1 $126 forward single #
loop $-1 $127 $128 $59 #
cone-surface $-1 -52.34199907595125 32.061916398879397 3.8567726307963324 0 -0.83867057594974714 -0.54463902268945019 1 0 0 1 I I 0 1 1 forward I I I I #
face $-1 $129 $130 $46 $-1 $131 forward single #
loop $-1 $132 $133 $60 #
cone-surface $-1 -45.935580026973149 32.061916398879397 3.8567726307963324 0 -0.83867057594974714 -0.54463902268945019 1 0 0 1 I I 0 1 1 forward I I I I #
face $-1 $134 $135 $47 $-1 $136 reversed single #
loop $-1 $-1 $137 $61 #
plane-surface $-1 -23.85375207429518 96.607071619343571 124.73737078198552 1 0 0 0 -0.83867057594974714 -0.54463902268945019 forward_v I I I I #
face $-1 $138 $139 $48 $-1 $140 forward single #
loop $-1 $141 $142 $62 #
cone-surface $-1 -19.58280604164311 32.061916398879397 3.8567726307963324 0 -0.83867057594974714 -0.54463902268945019 1 0 0 1 I I 0 1 1 forward I I I I #
face $-1 $143 $144 $49 $-1 $145 forward single #
loop $-1 $146 $147 $63 #
cone-surface $-1 -13.176386992665016 32.061916398879397 3.8567726307963324 0 -0.83867057594974714 -0.54463902268945019 1 0 0 1 I I 0 1 1 forward I I I I #
face $-1 $148 $149 $50 $-1 $150 reversed single #
loop $-1 $-1 $151 $64 #
plane-surface $-1 8.9054409600129549 96.607071619343571 124.73737078198552 1 0 0 0 -0.83867057594974714 -0.54463902268945019 forward_v I I I I #
face $-1 $152 $153 $51 $-1 $154 forward single #
loop $-1 $155 $156 $65 #
cone-surface $-1 13.17638699266503 32.061916398879397 3.8567726307963324 0 -0.83867057594974714 -0.54463902268945019 1 0 0 1 I I 0 1 1 forward I I I I #
face $-1 $157 $158 $52 $-1 $159 forward single #
loop $-1 $160 $161 $66 #
cone-surface $-1 19.58280604164311 32.061916398879397 3.8567726307963324 0 -0.83867057594974714 -0.54463902268945019 1 0 0 1 I I 0 1 1 forward I I I I #
face $-1 $162 $163 $53 $-1 $164 reversed single #
loop $-1 $-1 $165 $67 #
plane-surface $-1 41.664633994321093 96.607071619343571 124.73737078198552 1 0 0 0 -0.83867057594974714 -0.54463902268945019 forward_v I I I I #
face $-1 $166 $167 $54 $-1 $168 forward single #
loop $-1 $169 $170 $68 #
cone-surface $-1 45.93558002697317 32.061916398879397 3.8567726307963324 0 -0.83867057594974714 -0.54463902268945019 1 0 0 1 I I 0 1 1 forward I I I I #
face $-1 $171 $172 $55 $-1 $173 forward single #
loop $-1 $174 $175 $69 #
cone-surface $-1 52.34199907595125 32.061916398879397 3.8567726307963324 0 -0.83867057594974714 -0.54463902268945019 1 0 0 1 I I 0 1 1 forward I I I I #
face $-1 $176 $177 $42 $-1 $178 reversed single #
loop $-1 $-1 $179 $70 #
plane-surface $-1 0 0 -6.9370495187971102 0 0 1 1 0 0 forward_v I I I I #
coedge $-1 $180 $181 $182 $183 forward $71 $-1 #
face $-1 $184 $185 $43 $-1 $186 forward single #
loop $-1 $-1 $187 $73 #
plane-surface $-1 -59.436628315073094 0 0 1 0 0 0 0 -1 forward_v I I I I #
coedge $-1 $188 $189 $190 $191 forward $74 $-1 #
face $-1 $192 $193 $44 $-1 $194 reversed single #
loop $-1 $-1 $195 $76 #
plane-surface $-1 -49.138789551462196 -3.0884309836832244 59.994356467030499 0 0.83867057594974714 0.54463902268945019 1 0 0 forward_v I I I I #
coedge $-1 $196 $197 $198 $199 reversed $77 $-1 #
face $-1 $-1 $200 $45 $-1 $201 forward single #
loop $-1 $202 $203 $79 #
cone-surface $-1 -52.34199907595125 30.724105400038205 2.9879880378386758 0 -0.83867057594974714 -0.54463902268945019 0.5 0 0 1 I I -0.70710678118654746 0.70710678118654746 0.5 forward I I I I #
loop $-1 $-1 $204 $59 #
coedge $-1 $128 $128 $205 $206 reversed $80 $-1 #
face $-1 $-1 $207 $46 $-1 $208 forward single #
loop $-1 $209 $210 $82 #
cone-surface $-1 -45.935580026973149 30.724105400038205 2.9879880378386758 0 -0.83867057594974714 -0.54463902268945019 0.5 0 0 1 I I -0.70710678118654746 0.70710678118654746 0.5 forward I I I I #
loop $-1 $-1 $211 $60 #
coedge $-1 $133 $133 $212 $213 reversed $83 $-1 #
face $-1 $214 $215 $47 $-1 $216 reversed single #
loop $-1 $-1 $217 $85 #
plane-surface $-1 -16.379596517154063 -3.0884309836832244 59.994356467030499 0 0.83867057594974714 0.54463902268945019 1 0 0 forward_v I I I I #
coedge $-1 $218 $219 $220 $221 reversed $86 $-1 #
face $-1 $-1 $222 $48 $-1 $223 forward single #
loop $-1 $224 $225 $88 #
cone-surface $-1 -19.58280604164311 30.724105400038205 2.9879880378386758 0 -0.83867057594974714 -0.54463902268945019 0.5 0 0 1 I I -0.70710678118654746 0.70710678118654746 0.5 forward I I I I #
loop $-1 $-1 $226 $62 #
coedge $-1 $142 $142 $227 $228 reversed $89 $-1 #
face $-1 $-1 $229 $49 $-1 $230 forward single #
loop $-1 $231 $232 $91 #
cone-surface $-1 -13.176386992665016 30.724105400038205 2.9879880378386758 0 -0.83867057594974714 -0.54463902268945019 0.5 0 0 1 I I -0.70710678118654746 0.70710678118654746 0.5 forward I I I I #
loop $-1 $-1 $233 $63 #
coedge $-1 $147 $147 $234 $235 reversed $92 $-1 #
face $-1 $236 $237 $50 $-1 $238 reversed single #
loop $-1 $-1 $239 $94 #
plane-surface $-1 16.37959651715407 -3.0884309836832244 59.994356467030499 0 0.83867057594974714 0.54463902268945019 1 0 0 forward_v I I I I #
coedge $-1 $240 $241 $242 $243 reversed $95 $-1 #
face $-1 $-1 $244 $51 $-1 $245 forward single #
loop $-1 $246 $247 $97 #
cone-surface $-1 13.17638699266503 30.724105400038205 2.9879880378386758 0 -0.83867057594974714 -0.54463902268945019 0.5 0 0 1 I I -0.70710678118654746 0.70710678118654746 0.5 forward I I I I #
loop $-1 $-1 $248 $65 #
coedge $-1 $156 $156 $249 $250 reversed $98 $-1 #
face $-1 $-1 $251 $52 $-1 $252 forward single #
loop $-1 $253 $254 $100 #
cone-surface $-1 19.58280604164311 30.724105400038205 2.9879880378386758 0 -0.83867057594974714 -0.54463902268945019 0.5 0 0 1 I I -0.70710678118654746 0.70710678118654746 0.5 forward I I I I #
loop $-1 $-1 $255 $66 #
coedge $-1 $161 $161 $256 $257 reversed $101 $-1 #
face $-1 $258 $259 $53 $-1 $260 reversed single #
loop $-1 $-1 $261 $103 #
plane-surface $-1 49.13878955146221 -3.0884309836832244 59.994356467030499 0 0.83867057594974714 0.54463902268945019 1 0 0 forward_v I I I I #
coedge $-1 $262 $263 $264 $265 reversed $104 $-1 #
face $-1 $-1 $266 $54 $-1 $267 forward single #
loop $-1 $268 $269 $106 #
cone-surface $-1 45.93558002697317 30.724105400038205 2.9879880378386758 0 -0.83867057594974714 -0.54463902268945019 0.5 0 0 1 I I -0.70710678118654746 0.70710678118654746 0.5 forward I I I I #
loop $-1 $-1 $270 $68 #
coedge $-1 $170 $170 $271 $272 reversed $107 $-1 #
face $-1 $-1 $273 $55 $-1 $274 forward single #
loop $-1 $275 $276 $109 #
cone-surface $-1 52.34199907595125 30.724105400038205 2.9879880378386758 0 -0.83867057594974714 -0.54463902268945019 0.5 0 0 1 I I -0.70710678118654746 0.70710678118654746 0.5 forward I I I I #
loop $-1 $-1 $277 $69 #
coedge $-1 $175 $175 $278 $279 reversed $110 $-1 #
face $-1 $280 $281 $42 $-1 $282 reversed single #
loop $-1 $-1 $283 $112 #
plane-surface $-1 0 -34.593398304989485 0 0 1 0 0 0 1 forward_v I I I I #
coedge $-1 $284 $285 $286 $287 forward $113 $-1 #
coedge $-1 $288 $115 $289 $290 forward $71 $-1 #
coedge $-1 $115 $288 $291 $292 forward $71 $-1 #
coedge $-1 $293 $294 $115 $183 reversed $295 $-1 #
edge $-1 $296 -34.593398304989485 $297 34.593398304989485 $182 $298 forward 7 unknown #
face $-1 $299 $300 $43 $-1 $301 reversed single #
loop $-1 $-1 $302 $116 #
plane-surface $-1 0 -39.078792438047685 -2.7396939681626318 0 0 1 1 0 0 forward_v I I I I #
coedge $-1 $303 $304 $189 $305 forward $117 $-1 #
coedge $-1 $306 $119 $307 $308 reversed $74 $-1 #
coedge $-1 $119 $306 $187 $305 reversed $74 $-1 #
coedge $-1 $309 $302 $119 $191 reversed $185 $-1 #
edge $-1 $310 -59.436628315073094 $311 59.436628315073094 $190 $312 forward 7 unknown #
face $-1 $313 $314 $44 $-1 $315 forward single #
loop $-1 $-1 $316 $120 #
plane-surface $-1 -41.664633994321079 96.607071619343571 124.73737078198552 -1 0 0 0 0.83867057594974714 0.54463902268945019 forward_v I I I I #
coedge $-1 $317 $318 $319 $320 reversed $121 $-1 #
coedge $-1 $197 $123 $321 $322 reversed $77 $-1 #
coedge $-1 $123 $196 $317 $323 reversed $77 $-1 #
coedge $-1 $319 $324 $123 $199 forward $314 $-1 #
edge $-1 $325 13.710137504682301 $326 16.936149895169812 $198 $327 forward 7 unknown #
loop $-1 $-1 $205 $124 #
plane-surface $-1 -49.138789551462196 -3.0884309836832244 59.994356467030499 0 0.83867057594974714 0.54463902268945019 1 0 0 forward_v I I I I #
loop $-1 $-1 $328 $79 #
coedge $-1 $203 $203 $204 $329 reversed $125 $-1 #
coedge $-1 $204 $204 $203 $329 forward $127 $-1 #
coedge $-1 $205 $205 $128 $206 forward $200 $-1 #
edge $-1 $330 -2.5255622760971023e-015 $330 6.2831853071795978 $205 $331 forward 7 unknown #
loop $-1 $-1 $212 $129 #
plane-surface $-1 -49.138789551462196 -3.0884309836832244 59.994356467030499 0 0.83867057594974714 0.54463902268945019 1 0 0 forward_v I I I I #
loop $-1 $-1 $332 $82 #
coedge $-1 $210 $210 $211 $333 reversed $130 $-1 #
coedge $-1 $211 $211 $210 $333 forward $132 $-1 #
coedge $-1 $212 $212 $133 $213 forward $207 $-1 #
edge $-1 $334 -2.5255622760971023e-015 $334 6.2831853071795978 $212 $335 forward 7 unknown #
face $-1 $336 $337 $47 $-1 $338 forward single #
loop $-1 $-1 $339 $134 #
plane-surface $-1 -8.9054409600129478 96.607071619343571 124.73737078198552 -1 0 0 0 0.83867057594974714 0.54463902268945019 forward_v I I I I #
coedge $-1 $340 $341 $342 $343 reversed $135 $-1 #
coedge $-1 $219 $137 $344 $345 reversed $86 $-1 #
coedge $-1 $137 $218 $340 $346 reversed $86 $-1 #
coedge $-1 $342 $347 $137 $221 forward $337 $-1 #
edge $-1 $348 13.710137504682301 $349 16.936149895169812 $220 $350 forward 7 unknown #
loop $-1 $-1 $227 $138 #
plane-surface $-1 -16.379596517154063 -3.0884309836832244 59.994356467030499 0 0.83867057594974714 0.54463902268945019 1 0 0 forward_v I I I I #
loop $-1 $-1 $351 $88 #
coedge $-1 $225 $225 $226 $352 reversed $139 $-1 #
coedge $-1 $226 $226 $225 $352 forward $141 $-1 #
coedge $-1 $227 $227 $142 $228 forward $222 $-1 #
edge $-1 $353 -2.5255622760971023e-015 $353 6.2831853071795978 $227 $354 forward 7 unknown #
loop $-1 $-1 $234 $143 #
plane-surface $-1 -16.379596517154063 -3.0884309836832244 59.994356467030499 0 0.83867057594974714 0.54463902268945019 1 0 0 forward_v I I I I #
loop $-1 $-1 $355 $91 #
coedge $-1 $232 $232 $233 $356 reversed $144 $-1 #
coedge $-1 $233 $233 $232 $356 forward $146 $-1 #
coedge $-1 $234 $234 $147 $235 forward $229 $-1 #
edge $-1 $357 -2.5255622760971023e-015 $357 6.2831853071795978 $234 $358 forward 7 unknown #
face $-1 $359 $360 $50 $-1 $361 forward single #
loop $-1 $-1 $362 $148 #
plane-surface $-1 23.853752074295187 96.607071619343571 124.73737078198552 -1 0 0 0 0.83867057594974714 0.54463902268945019 forward_v I I I I #
coedge $-1 $363 $364 $365 $366 reversed $149 $-1 #
coedge $-1 $241 $151 $367 $368 reversed $95 $-1 #
coedge $-1 $151 $240 $363 $369 reversed $95 $-1 #
coedge $-1 $365 $370 $151 $243 forward $360 $-1 #
edge $-1 $371 13.710137504682301 $372 16.936149895169812 $242 $373 forward 7 unknown #
loop $-1 $-1 $249 $152 #
plane-surface $-1 16.37959651715407 -3.0884309836832244 59.994356467030499 0 0.83867057594974714 0.54463902268945019 1 0 0 forward_v I I I I #
loop $-1 $-1 $374 $97 #
coedge $-1 $247 $247 $248 $375 reversed $153 $-1 #
coedge $-1 $248 $248 $247 $375 forward $155 $-1 #
coedge $-1 $249 $249 $156 $250 forward $244 $-1 #
edge $-1 $376 -2.5255622760971023e-015 $376 6.2831853071795978 $249 $377 forward 7 unknown #
loop $-1 $-1 $256 $157 #
plane-surface $-1 16.37959651715407 -3.0884309836832244 59.994356467030499 0 0.83867057594974714 0.54463902268945019 1 0 0 forward_v I I I I #
loop $-1 $-1 $378 $100 #
coedge $-1 $254 $254 $255 $379 reversed $158 $-1 #
coedge $-1 $255 $255 $254 $379 forward $160 $-1 #
coedge $-1 $256 $256 $161 $257 forward $251 $-1 #
edge $-1 $380 -2.5255622760971023e-015 $380 6.2831853071795978 $256 $381 forward 7 unknown #
face $-1 $382 $383 $53 $-1 $384 forward single #
loop $-1 $-1 $385 $162 #
plane-surface $-1 56.612945108603327 96.607071619343571 124.73737078198552 -1 0 0 0 0.83867057594974714 0.54463902268945019 forward_v I I I I #
coedge $-1 $386 $387 $388 $389 reversed $163 $-1 #
coedge $-1 $263 $165 $390 $391 reversed $104 $-1 #
coedge $-1 $165 $262 $386 $392 reversed $104 $-1 #
coedge $-1 $388 $393 $165 $265 forward $383 $-1 #
edge $-1 $394 13.710137504682301 $395 16.936149895169812 $264 $396 forward 7 unknown #
loop $-1 $-1 $271 $166 #
plane-surface $-1 49.13878955146221 -3.0884309836832244 59.994356467030499 0 0.83867057594974714 0.54463902268945019 1 0 0 forward_v I I I I #
loop $-1 $-1 $397 $106 #
coedge $-1 $269 $269 $270 $398 reversed $167 $-1 #
coedge $-1 $270 $270 $269 $398 forward $169 $-1 #
coedge $-1 $271 $271 $170 $272 forward $266 $-1 #
edge $-1 $399 -2.5255622760971023e-015 $399 6.2831853071795978 $271 $400 forward 7 unknown #
loop $-1 $-1 $278 $171 #
plane-surface $-1 49.13878955146221 -3.0884309836832244 59.994356467030499 0 0.83867057594974714 0.54463902268945019 1 0 0 forward_v I I I I #
loop $-1 $-1 $401 $109 #
coedge $-1 $276 $276 $277 $402 reversed $172 $-1 #
coedge $-1 $277 $277 $276 $402 forward $174 $-1 #
coedge $-1 $278 $278 $175 $279 forward $273 $-1 #
edge $-1 $403 -2.5255622760971023e-015 $403 6.2831853071795978 $278 $404 forward 7 unknown #
face $-1 $405 $406 $42 $-1 $407 reversed single #
loop $-1 $-1 $408 $176 #
plane-surface $-1 -59.436628315073094 0 0 1 0 0 0 0 -1 forward_v I I I I #
coedge $-1 $409 $291 $410 $411 forward $177 $-1 #
coedge $-1 $412 $179 $409 $413 forward $113 $-1 #
coedge $-1 $179 $412 $414 $415 forward $113 $-1 #
coedge $-1 $294 $293 $179 $287 reversed $295 $-1 #
edge $-1 $416 -34.593398304989485 $417 34.593398304989485 $286 $418 forward 7 unknown #
coedge $-1 $181 $180 $419 $420 forward $71 $-1 #
coedge $-1 $421 $422 $180 $290 reversed $406 $-1 #
edge $-1 $297 -59.436628315073094 $423 59.436628315073094 $289 $424 forward 7 unknown #
coedge $-1 $283 $425 $181 $292 reversed $177 $-1 #
edge $-1 $426 -59.436628315073094 $296 59.436628315073094 $291 $427 forward 7 unknown #
coedge $-1 $286 $182 $425 $428 forward $295 $-1 #
coedge $-1 $182 $286 $421 $429 reversed $295 $-1 #
loop $-1 $-1 $293 $405 #
vertex $-1 $183 $430 #
vertex $-1 $183 $431 #
straight-curve $-1 59.436628315073094 0 6.9370495187971102 0 1 0 I I #
face $-1 $432 $433 $43 $-1 $434 reversed single #
loop $-1 $-1 $435 $184 #
plane-surface $-1 0 -39.078792438047685 -5.7396939681626318 0 0 1 1 0 0 forward_v I I I I #
coedge $-1 $190 $436 $437 $438 forward $185 $-1 #
coedge $-1 $439 $187 $440 $441 reversed $117 $-1 #
coedge $-1 $187 $439 $309 $442 reversed $117 $-1 #
edge $-1 $310 2.7396939681626318 $443 5.7396939681626318 $187 $444 forward 7 unknown #
coedge $-1 $189 $188 $445 $446 forward $74 $-1 #
coedge $-1 $437 $447 $188 $308 forward $448 $-1 #
edge $-1 $449 -5.7396939681626318 $311 -2.7396939681626318 $307 $450 forward 7 unknown #
coedge $-1 $436 $190 $304 $442 forward $185 $-1 #
vertex $-1 $305 $451 #
vertex $-1 $438 $452 #
straight-curve $-1 0 -34.593398304989485 -2.7396939681626318 1 0 0 I I #
face $-1 $-1 $453 $44 $-1 $454 reversed single #
loop $-1 $-1 $198 $192 #
plane-surface $-1 0 0 6.9370495187971102 0 0 1 1 0 0 forward_v I I I I #
coedge $-1 $455 $456 $457 $458 reversed $193 $-1 #
coedge $-1 $459 $195 $197 $323 forward $121 $-1 #
coedge $-1 $195 $459 $455 $460 forward $121 $-1 #
coedge $-1 $457 $198 $195 $320 forward $314 $-1 #
edge $-1 $326 -32.043550332872215 $461 -17.095239218589981 $319 $462 forward 7 unknown #
coedge $-1 $463 $464 $196 $322 forward $453 $-1 #
edge $-1 $465 -60.399259484971338 $325 -55.431635872195649 $321 $466 forward 7 unknown #
edge $-1 $326 63.263584618011649 $465 69.18679660997897 $197 $467 forward 7 unknown #
coedge $-1 $198 $457 $463 $468 forward $314 $-1 #
vertex $-1 $322 $469 #
vertex $-1 $199 $470 #
straight-curve $-1 -56.612945108603313 48.303535809671786 6.9370495187971102 0 -1 0 I I #
coedge $-1 $328 $328 $-1 $471 reversed $202 $-1 #
edge $-1 $472 0 $472 6.2831853071796004 $203 $473 forward 7 unknown #
vertex $-1 $206 $474 #
ellipse-curve $-1 -52.34199907595125 32.980392109745729 4.4532377124092699 0 0.83867057594974714 0.54463902268945019 1 0 0 1 I I #
coedge $-1 $332 $332 $-1 $475 reversed $209 $-1 #
edge $-1 $476 0 $476 6.2831853071796004 $210 $477 forward 7 unknown #
vertex $-1 $213 $478 #
ellipse-curve $-1 -45.935580026973149 32.980392109745729 4.4532377124092699 0 0.83867057594974714 0.54463902268945019 1 0 0 1 I I #
face $-1 $-1 $479 $47 $-1 $480 reversed single #
loop $-1 $-1 $220 $214 #
plane-surface $-1 0 0 6.9370495187971102 0 0 1 1 0 0 forward_v I I I I #
coedge $-1 $481 $482 $483 $484 reversed $215 $-1 #
coedge $-1 $485 $217 $219 $346 forward $135 $-1 #
coedge $-1 $217 $485 $481 $486 forward $135 $-1 #
coedge $-1 $483 $220 $217 $343 forward $337 $-1 #
edge $-1 $349 -15.663953815718148 $487 -0.71564270143591635 $342 $488 forward 7 unknown #
coedge $-1 $489 $490 $218 $345 forward $479 $-1 #
edge $-1 $491 -60.399259484971338 $348 -55.431635872195649 $344 $492 forward 7 unknown #
edge $-1 $349 63.263584618011649 $491 69.18679660997897 $219 $493 forward 7 unknown #
coedge $-1 $220 $483 $489 $494 forward $337 $-1 #
vertex $-1 $221 $495 #
vertex $-1 $221 $496 #
straight-curve $-1 -23.85375207429518 48.303535809671786 6.9370495187971102 0 -1 0 I I #
coedge $-1 $351 $351 $-1 $497 reversed $224 $-1 #
edge $-1 $498 0 $498 6.2831853071796004 $225 $499 forward 7 unknown #
vertex $-1 $228 $500 #
ellipse-curve $-1 -19.58280604164311 32.980392109745729 4.4532377124092699 0 0.83867057594974714 0.54463902268945019 1 0 0 1 I I #
coedge $-1 $355 $355 $-1 $501 reversed $231 $-1 #
edge $-1 $502 0 $502 6.2831853071796004 $232 $503 forward 7 unknown #
vertex $-1 $235 $504 #
ellipse-curve $-1 -13.176386992665016 32.980392109745729 4.4532377124092699 0 0.83867057594974714 0.54463902268945019 1 0 0 1 I I #
face $-1 $-1 $505 $50 $-1 $506 reversed single #
loop $-1 $-1 $242 $236 #
plane-surface $-1 0 0 6.9370495187971102 0 0 1 1 0 0 forward_v I I I I #
coedge $-1 $507 $508 $509 $510 reversed $237 $-1 #
coedge $-1 $511 $239 $241 $369 forward $149 $-1 #
coedge $-1 $239 $511 $507 $512 forward $149 $-1 #
coedge $-1 $509 $242 $239 $366 forward $360 $-1 #
edge $-1 $372 0.7156427014359199 $513 15.663953815718152 $365 $514 forward 7 unknown #
coedge $-1 $515 $516 $240 $368 forward $505 $-1 #
edge $-1 $517 -60.399259484971338 $371 -55.431635872195649 $367 $518 forward 7 unknown #
edge $-1 $372 63.263584618011649 $517 69.18679660997897 $241 $519 forward 7 unknown #
coedge $-1 $242 $509 $515 $520 forward $360 $-1 #
vertex $-1 $243 $521 #
vertex $-1 $243 $522 #
straight-curve $-1 8.9054409600129549 48.303535809671786 6.9370495187971102 0 -1 0 I I #
coedge $-1 $374 $374 $-1 $523 reversed $246 $-1 #
edge $-1 $524 0 $524 6.2831853071796004 $247 $525 forward 7 unknown #
vertex $-1 $250 $526 #
ellipse-curve $-1 13.17638699266503 32.980392109745729 4.4532377124092699 0 0.83867057594974714 0.54463902268945019 1 0 0 1 I I #
coedge $-1 $378 $378 $-1 $527 reversed $253 $-1 #
edge $-1 $528 0 $528 6.2831853071796004 $254 $529 forward 7 unknown #
vertex $-1 $257 $530 #
ellipse-curve $-1 19.58280604164311 32.980392109745729 4.4532377124092699 0 0.83867057594974714 0.54463902268945019 1 0 0 1 I I #
face $-1 $-1 $531 $53 $-1 $532 reversed single #
loop $-1 $-1 $264 $258 #
plane-surface $-1 0 0 6.9370495187971102 0 0 1 1 0 0 forward_v I I I I #
coedge $-1 $533 $534 $535 $536 reversed $259 $-1 #
coedge $-1 $537 $261 $263 $392 forward $163 $-1 #
coedge $-1 $261 $537 $533 $538 forward $163 $-1 #
coedge $-1 $535 $264 $261 $389 forward $383 $-1 #
edge $-1 $395 17.095239218589988 $539 32.043550332872222 $388 $540 forward 7 unknown #
coedge $-1 $541 $542 $262 $391 forward $531 $-1 #
edge $-1 $543 -60.399259484971338 $394 -55.431635872195649 $390 $544 forward 7 unknown #
edge $-1 $395 63.263584618011649 $543 69.18679660997897 $263 $545 forward 7 unknown #
coedge $-1 $264 $535 $541 $546 forward $383 $-1 #
vertex $-1 $265 $547 #
vertex $-1 $265 $548 #
straight-curve $-1 41.664633994321093 48.303535809671786 6.9370495187971102 0 -1 0 I I #
coedge $-1 $397 $397 $-1 $549 reversed $268 $-1 #
edge $-1 $550 0 $550 6.2831853071796004 $269 $551 forward 7 unknown #
vertex $-1 $272 $552 #
ellipse-curve $-1 45.93558002697317 32.980392109745729 4.4532377124092699 0 0.83867057594974714 0.54463902268945019 1 0 0 1 I I #
coedge $-1 $401 $401 $-1 $553 reversed $275 $-1 #
edge $-1 $554 0 $554 6.2831853071796004 $276 $555 forward 7 unknown #
vertex $-1 $279 $556 #
ellipse-curve $-1 52.34199907595125 32.980392109745729 4.4532377124092699 0 0.83867057594974714 0.54463902268945019 1 0 0 1 I I #
face $-1 $-1 $295 $42 $-1 $557 reversed single #
loop $-1 $-1 $421 $280 #
plane-surface $-1 0 34.593398304989485 0 0 -1 0 0 0 -1 forward_v I I I I #
coedge $-1 $558 $419 $422 $559 forward $281 $-1 #
coedge $-1 $425 $283 $284 $413 reversed $177 $-1 #
coedge $-1 $419 $558 $283 $411 reversed $281 $-1 #
edge $-1 $426 -6.9370495187971102 $560 6.9370495187971102 $410 $561 forward 7 unknown #
coedge $-1 $285 $284 $558 $562 forward $113 $-1 #
edge $-1 $417 -59.436628315073094 $560 59.436628315073094 $409 $563 forward 7 unknown #
coedge $-1 $422 $421 $285 $415 reversed $406 $-1 #
edge $-1 $564 -59.436628315073094 $416 59.436628315073094 $414 $565 forward 7 unknown #
vertex $-1 $287 $566 #
vertex $-1 $428 $567 #
straight-curve $-1 59.436628315073094 0 -6.9370495187971102 0 -1 0 I I #
coedge $-1 $408 $410 $288 $420 reversed $281 $-1 #
edge $-1 $423 -34.593398304989485 $426 34.593398304989485 $419 $568 forward 7 unknown #
coedge $-1 $414 $289 $294 $429 forward $406 $-1 #
coedge $-1 $289 $414 $408 $559 reversed $406 $-1 #
vertex $-1 $290 $569 #
straight-curve $-1 0 34.593398304989485 6.9370495187971102 -1 0 0 I I #
coedge $-1 $291 $409 $293 $428 reversed $177 $-1 #
vertex $-1 $420 $570 #
straight-curve $-1 0 -34.593398304989485 6.9370495187971102 1 0 0 I I #
edge $-1 $296 -6.9370495187971102 $417 6.9370495187971102 $293 $571 forward 7 unknown #
edge $-1 $297 -6.9370495187971102 $416 6.9370495187971102 $294 $572 forward 7 unknown #
point $-1 59.436628315073094 -34.593398304989485 6.9370495187971102 #
point $-1 59.436628315073094 34.593398304989485 6.9370495187971102 #
face $-1 $-1 $448 $43 $-1 $573 reversed single #
loop $-1 $-1 $574 $299 #
plane-surface $-1 0 -43.564186571105886 -4.2396939681626318 0 1 0 0 0 1 forward_v I I I I #
coedge $-1 $575 $445 $447 $576 forward $300 $-1 #
coedge $-1 $302 $309 $577 $578 forward $185 $-1 #
coedge $-1 $579 $307 $302 $438 reversed $448 $-1 #
edge $-1 $580 -4.4853941330582003 $311 4.4853941330582003 $437 $581 forward 7 unknown #
coedge $-1 $304 $303 $574 $582 reversed $117 $-1 #
coedge $-1 $445 $575 $303 $441 forward $300 $-1 #
edge $-1 $583 -4.4853941330582003 $443 4.4853941330582003 $303 $584 forward 7 unknown #
edge $-1 $310 -4.4853941330582003 $585 4.4853941330582003 $304 $586 forward 7 unknown #
vertex $-1 $305 $587 #
straight-curve $-1 -59.436628315073094 -34.593398304989485 0 0 0 -1 I I #
coedge $-1 $435 $440 $306 $446 reversed $300 $-1 #
edge $-1 $449 -59.436628315073094 $443 59.436628315073094 $445 $588 forward 7 unknown #
coedge $-1 $307 $579 $435 $576 reversed $448 $-1 #
loop $-1 $-1 $307 $432 #
vertex $-1 $308 $589 #
straight-curve $-1 59.436628315073094 -34.593398304989485 0 0 0 1 I I #
point $-1 -59.436628315073094 -34.593398304989485 -2.7396939681626318 #
point $-1 59.436628315073094 -34.593398304989485 -2.7396939681626318 #
loop $-1 $-1 $321 $313 #
plane-surface $-1 0 34.593398304989485 0 0 -1 0 0 0 -1 forward_v I I I I #
coedge $-1 $456 $316 $318 $460 reversed $193 $-1 #
coedge $-1 $316 $455 $590 $591 reversed $193 $-1 #
coedge $-1 $324 $319 $316 $458 forward $314 $-1 #
edge $-1 $461 -16.936149895169812 $592 -13.710137504682301 $457 $593 forward 7 unknown #
coedge $-1 $318 $317 $464 $594 reversed $121 $-1 #
edge $-1 $595 -69.18679660997897 $461 -63.263584618011649 $455 $596 forward 7 unknown #
vertex $-1 $320 $597 #
straight-curve $-1 -24.569394775731098 31.367385914501973 6.9370495187971102 1 0 0 I I #
coedge $-1 $590 $321 $324 $468 reversed $453 $-1 #
coedge $-1 $321 $590 $459 $594 forward $453 $-1 #
vertex $-1 $322 $598 #
straight-curve $-1 -56.612945108603313 34.593398304989485 62.368685390992759 0 0 1 I I #
straight-curve $-1 -56.612945108603313 -3.0884309836832244 59.994356467030499 0 0.54463902268945019 -0.83867057594974714 I I #
edge $-1 $592 41.664633994321079 $325 56.612945108603313 $463 $599 forward 7 unknown #
point $-1 -56.612945108603313 34.593398304989485 6.9370495187971102 #
point $-1 -56.612945108603313 31.367385914501973 6.9370495187971102 #
edge $-1 $600 1 $600 0 $328 $-1 forward 7 unknown #
vertex $-1 $329 $601 #
ellipse-curve $-1 -52.34199907595125 31.143440688013079 3.260307549183401 0 0.83867057594974714 0.54463902268945019 1 0 0 1 I I #
point $-1 -51.34199907595125 32.980392109745715 4.4532377124092637 #
edge $-1 $602 1 $602 0 $332 $-1 forward 7 unknown #
vertex $-1 $333 $603 #
ellipse-curve $-1 -45.935580026973149 31.143440688013079 3.260307549183401 0 0.83867057594974714 0.54463902268945019 1 0 0 1 I I #
point $-1 -44.935580026973149 32.980392109745715 4.4532377124092637 #
loop $-1 $-1 $344 $336 #
plane-surface $-1 0 34.593398304989485 0 0 -1 0 0 0 -1 forward_v I I I I #
coedge $-1 $482 $339 $341 $486 reversed $215 $-1 #
coedge $-1 $339 $481 $604 $605 reversed $215 $-1 #
coedge $-1 $347 $342 $339 $484 forward $337 $-1 #
edge $-1 $487 -16.936149895169812 $606 -13.710137504682301 $483 $607 forward 7 unknown #
coedge $-1 $341 $340 $490 $608 reversed $135 $-1 #
edge $-1 $609 -69.18679660997897 $487 -63.263584618011649 $481 $610 forward 7 unknown #
vertex $-1 $343 $611 #
straight-curve $-1 -8.1897982585770315 31.367385914501973 6.9370495187971102 1 0 0 I I #
coedge $-1 $604 $344 $347 $494 reversed $479 $-1 #
coedge $-1 $344 $604 $485 $608 forward $479 $-1 #
vertex $-1 $345 $612 #
straight-curve $-1 -23.85375207429518 34.593398304989485 62.368685390992759 0 0 1 I I #
straight-curve $-1 -23.85375207429518 -3.0884309836832244 59.994356467030499 0 0.54463902268945019 -0.83867057594974714 I I #
edge $-1 $606 8.9054409600129478 $348 23.85375207429518 $489 $613 forward 7 unknown #
point $-1 -23.85375207429518 34.593398304989485 6.9370495187971102 #
point $-1 -23.85375207429518 31.367385914501973 6.9370495187971102 #
edge $-1 $614 1 $614 0 $351 $-1 forward 7 unknown #
vertex $-1 $352 $615 #
ellipse-curve $-1 -19.58280604164311 31.143440688013079 3.260307549183401 0 0.83867057594974714 0.54463902268945019 1 0 0 1 I I #
point $-1 -18.58280604164311 32.980392109745715 4.4532377124092637 #
edge $-1 $616 1 $616 0 $355 $-1 forward 7 unknown #
vertex $-1 $356 $617 #
ellipse-curve $-1 -13.176386992665016 31.143440688013079 3.260307549183401 0 0.83867057594974714 0.54463902268945019 1 0 0 1 I I #
point $-1 -12.176386992665016 32.980392109745715 4.4532377124092637 #
loop $-1 $-1 $367 $359 #
plane-surface $-1 0 34.593398304989485 0 0 -1 0 0 0 -1 forward_v I I I I #
coedge $-1 $508 $362 $364 $512 reversed $237 $-1 #
coedge $-1 $362 $507 $618 $619 reversed $237 $-1 #
coedge $-1 $370 $365 $362 $510 forward $360 $-1 #
edge $-1 $513 -16.936149895169812 $620 -13.710137504682301 $509 $621 forward 7 unknown #
coedge $-1 $364 $363 $516 $622 reversed $149 $-1 #
edge $-1 $623 -69.18679660997897 $513 -63.263584618011649 $507 $624 forward 7 unknown #
vertex $-1 $366 $625 #
straight-curve $-1 8.189798258577035 31.367385914501973 6.9370495187971102 1 0 0 I I #
coedge $-1 $618 $367 $370 $520 reversed $505 $-1 #
coedge $-1 $367 $618 $511 $622 forward $505 $-1 #
vertex $-1 $368 $626 #
straight-curve $-1 8.9054409600129549 34.593398304989485 62.368685390992759 0 0 1 I I #
straight-curve $-1 8.9054409600129549 -3.0884309836832244 59.994356467030499 0 0.54463902268945019 -0.83867057594974714 I I #
edge $-1 $620 -23.853752074295187 $371 -8.9054409600129549 $515 $627 forward 7 unknown #
point $-1 8.9054409600129549 34.593398304989485 6.9370495187971102 #
point $-1 8.9054409600129549 31.367385914501973 6.9370495187971102 #
edge $-1 $628 1 $628 0 $374 $-1 forward 7 unknown #
vertex $-1 $375 $629 #
ellipse-curve $-1 13.17638699266503 31.143440688013079 3.260307549183401 0 0.83867057594974714 0.54463902268945019 1 0 0 1 I I #
point $-1 14.17638699266503 32.980392109745715 4.4532377124092637 #
edge $-1 $630 1 $630 0 $378 $-1 forward 7 unknown #
vertex $-1 $379 $631 #
ellipse-curve $-1 19.58280604164311 31.143440688013079 3.260307549183401 0 0.83867057594974714 0.54463902268945019 1 0 0 1 I I #
point $-1 20.58280604164311 32.980392109745715 4.4532377124092637 #
loop $-1 $-1 $390 $382 #
plane-surface $-1 0 34.593398304989485 0 0 -1 0 0 0 -1 forward_v I I I I #
coedge $-1 $534 $385 $387 $538 reversed $259 $-1 #
coedge $-1 $385 $533 $632 $633 reversed $259 $-1 #
coedge $-1 $393 $388 $385 $536 forward $383 $-1 #
edge $-1 $539 -16.936149895169812 $634 -13.710137504682301 $535 $635 forward 7 unknown #
coedge $-1 $387 $386 $542 $636 reversed $163 $-1 #
edge $-1 $637 -69.18679660997897 $539 -63.263584618011649 $533 $638 forward 7 unknown #
vertex $-1 $389 $639 #
straight-curve $-1 24.569394775731105 31.367385914501973 6.9370495187971102 1 0 0 I I #
coedge $-1 $632 $390 $393 $546 reversed $531 $-1 #
coedge $-1 $390 $632 $537 $636 forward $531 $-1 #
vertex $-1 $391 $640 #
straight-curve $-1 41.664633994321093 34.593398304989485 62.368685390992759 0 0 1 I I #
straight-curve $-1 41.664633994321093 -3.0884309836832244 59.994356467030499 0 0.54463902268945019 -0.83867057594974714 I I #
edge $-1 $634 -56.612945108603327 $394 -41.664633994321093 $541 $641 forward 7 unknown #
point $-1 41.664633994321093 34.593398304989485 6.9370495187971102 #
point $-1 41.664633994321093 31.367385914501973 6.9370495187971102 #
edge $-1 $642 1 $642 0 $397 $-1 forward 7 unknown #
vertex $-1 $398 $643 #
ellipse-curve $-1 45.93558002697317 31.143440688013079 3.260307549183401 0 0.83867057594974714 0.54463902268945019 1 0 0 1 I I #
point $-1 46.93558002697317 32.980392109745715 4.4532377124092637 #
edge $-1 $644 1 $644 0 $401 $-1 forward 7 unknown #
vertex $-1 $402 $645 #
ellipse-curve $-1 52.34199907595125 31.143440688013079 3.260307549183401 0 0.83867057594974714 0.54463902268945019 1 0 0 1 I I #
point $-1 53.34199907595125 32.980392109745715 4.4532377124092637 #
plane-surface $-1 59.436628315073094 0 0 -1 0 0 0 0 1 forward_v I I I I #
coedge $-1 $410 $408 $412 $562 reversed $281 $-1 #
edge $-1 $423 -6.9370495187971102 $564 6.9370495187971102 $422 $646 forward 7 unknown #
vertex $-1 $562 $647 #
straight-curve $-1 -59.436628315073094 -34.593398304989485 0 0 0 -1 I I #
edge $-1 $560 -34.593398304989485 $564 34.593398304989485 $558 $648 forward 7 unknown #
straight-curve $-1 0 -34.593398304989485 -6.9370495187971102 -1 0 0 I I #
vertex $-1 $415 $649 #
straight-curve $-1 0 34.593398304989485 -6.9370495187971102 1 0 0 I I #
point $-1 59.436628315073094 34.593398304989485 -6.9370495187971102 #
point $-1 59.436628315073094 -34.593398304989485 -6.9370495187971102 #
straight-curve $-1 -59.436628315073094 0 6.9370495187971102 0 -1 0 I I #
point $-1 -59.436628315073094 34.593398304989485 6.9370495187971102 #
point $-1 -59.436628315073094 -34.593398304989485 6.9370495187971102 #
straight-curve $-1 59.436628315073094 -34.593398304989485 0 0 0 -1 I I #
straight-curve $-1 59.436628315073094 34.593398304989485 0 0 0 -1 I I #
plane-surface $-1 59.436628315073094 0 0 -1 0 0 0 0 1 forward_v I I I I #
coedge $-1 $650 $577 $439 $582 forward $433 $-1 #
coedge $-1 $440 $435 $650 $651 forward $300 $-1 #
edge $-1 $449 -4.4853941330582003 $652 4.4853941330582003 $447 $653 forward 7 unknown #
coedge $-1 $574 $654 $436 $578 reversed $433 $-1 #
edge $-1 $585 -59.436628315073094 $580 59.436628315073094 $577 $655 forward 7 unknown #
coedge $-1 $447 $437 $654 $656 forward $448 $-1 #
vertex $-1 $438 $657 #
straight-curve $-1 59.436628315073094 -39.078792438047685 -2.7396939681626318 0 1 0 I I #
edge $-1 $585 -1.5 $583 1.5 $439 $658 forward 7 unknown #
vertex $-1 $441 $659 #
straight-curve $-1 -59.436628315073094 -39.078792438047685 -5.7396939681626318 0 1 0 I I #
vertex $-1 $442 $660 #
straight-curve $-1 -59.436628315073094 -39.078792438047685 -2.7396939681626318 0 -1 0 I I #
point $-1 -59.436628315073094 -34.593398304989485 -5.7396939681626318 #
straight-curve $-1 0 -34.593398304989485 -5.7396939681626318 -1 0 0 I I #
point $-1 59.436628315073094 -34.593398304989485 -5.7396939681626318 #
coedge $-1 $464 $463 $456 $591 forward $453 $-1 #
edge $-1 $592 55.431635872195649 $595 60.399259484971338 $590 $661 forward 7 unknown #
vertex $-1 $468 $662 #
straight-curve $-1 -41.664633994321079 48.303535809671786 6.9370495187971102 0 1 0 I I #
edge $-1 $595 17.095239218589981 $465 32.043550332872215 $464 $663 forward 7 unknown #
vertex $-1 $594 $664 #
straight-curve $-1 -41.664633994321079 -3.0884309836832244 59.994356467030499 0 -0.54463902268945019 0.83867057594974714 I I #
point $-1 -41.664633994321079 31.367385914501973 6.9370495187971102 #
point $-1 -56.612945108603313 34.593398304989485 1.9694259060214208 #
straight-curve $-1 0 34.593398304989485 6.9370495187971102 -1 0 0 I I #
vertex $-1 $471 $665 #
point $-1 -51.34199907595125 31.143440688013079 3.260307549183401 #
vertex $-1 $475 $666 #
point $-1 -44.935580026973149 31.143440688013079 3.260307549183401 #
coedge $-1 $490 $489 $482 $605 forward $479 $-1 #
edge $-1 $606 55.431635872195649 $609 60.399259484971338 $604 $667 forward 7 unknown #
vertex $-1 $494 $668 #
straight-curve $-1 -8.9054409600129478 48.303535809671786 6.9370495187971102 0 1 0 I I #
edge $-1 $609 0.71564270143591635 $491 15.663953815718148 $490 $669 forward 7 unknown #
vertex $-1 $608 $670 #
straight-curve $-1 -8.9054409600129478 -3.0884309836832244 59.994356467030499 0 -0.54463902268945019 0.83867057594974714 I I #
point $-1 -8.9054409600129478 31.367385914501973 6.9370495187971102 #
point $-1 -23.85375207429518 34.593398304989485 1.9694259060214208 #
straight-curve $-1 0 34.593398304989485 6.9370495187971102 -1 0 0 I I #
vertex $-1 $497 $671 #
point $-1 -18.58280604164311 31.143440688013079 3.260307549183401 #
vertex $-1 $501 $672 #
point $-1 -12.176386992665016 31.143440688013079 3.260307549183401 #
coedge $-1 $516 $515 $508 $619 forward $505 $-1 #
edge $-1 $620 55.431635872195649 $623 60.399259484971338 $618 $673 forward 7 unknown #
vertex $-1 $520 $674 #
straight-curve $-1 23.853752074295187 48.303535809671786 6.9370495187971102 0 1 0 I I #
edge $-1 $623 -15.663953815718152 $517 -0.7156427014359199 $516 $675 forward 7 unknown #
vertex $-1 $622 $676 #
straight-curve $-1 23.853752074295187 -3.0884309836832244 59.994356467030499 0 -0.54463902268945019 0.83867057594974714 I I #
point $-1 23.853752074295187 31.367385914501973 6.9370495187971102 #
point $-1 8.9054409600129549 34.593398304989485 1.9694259060214208 #
straight-curve $-1 0 34.593398304989485 6.9370495187971102 -1 0 0 I I #
vertex $-1 $523 $677 #
point $-1 14.17638699266503 31.143440688013079 3.260307549183401 #
vertex $-1 $527 $678 #
point $-1 20.58280604164311 31.143440688013079 3.260307549183401 #
coedge $-1 $542 $541 $534 $633 forward $531 $-1 #
edge $-1 $634 55.431635872195649 $637 60.399259484971338 $632 $679 forward 7 unknown #
vertex $-1 $546 $680 #
straight-curve $-1 56.612945108603327 48.303535809671786 6.9370495187971102 0 1 0 I I #
edge $-1 $637 -32.043550332872222 $543 -17.095239218589988 $542 $681 forward 7 unknown #
vertex $-1 $636 $682 #
straight-curve $-1 56.612945108603327 -3.0884309836832244 59.994356467030499 0 -0.54463902268945019 0.83867057594974714 I I #
point $-1 56.612945108603327 31.367385914501973 6.9370495187971102 #
point $-1 41.664633994321093 34.593398304989485 1.9694259060214208 #
straight-curve $-1 0 34.593398304989485 6.9370495187971102 -1 0 0 I I #
vertex $-1 $549 $683 #
point $-1 46.93558002697317 31.143440688013079 3.260307549183401 #
vertex $-1 $553 $684 #
point $-1 53.34199907595125 31.143440688013079 3.260307549183401 #
straight-curve $-1 -59.436628315073094 34.593398304989485 0 0 0 -1 I I #
point $-1 -59.436628315073094 -34.593398304989485 -6.9370495187971102 #
straight-curve $-1 -59.436628315073094 0 -6.9370495187971102 0 1 0 I I #
point $-1 -59.436628315073094 34.593398304989485 -6.9370495187971102 #
coedge $-1 $654 $574 $575 $651 reversed $433 $-1 #
edge $-1 $652 -59.436628315073094 $583 59.436628315073094 $650 $685 forward 7 unknown #
vertex $-1 $656 $686 #
straight-curve $-1 59.436628315073094 -39.078792438047685 -5.7396939681626318 0 -1 0 I I #
coedge $-1 $577 $650 $579 $656 reversed $433 $-1 #
straight-curve $-1 0 -43.564186571105886 -2.7396939681626318 1 0 0 I I #
edge $-1 $580 -1.5 $652 1.5 $579 $687 forward 7 unknown #
point $-1 59.436628315073094 -43.564186571105886 -2.7396939681626318 #
straight-curve $-1 -59.436628315073094 -43.564186571105886 -4.2396939681626318 0 0 -1 I I #
point $-1 -59.436628315073094 -43.564186571105886 -5.7396939681626318 #
point $-1 -59.436628315073094 -43.564186571105886 -2.7396939681626318 #
straight-curve $-1 -41.664633994321079 34.593398304989485 62.368685390992759 0 0 -1 I I #
point $-1 -41.664633994321079 34.593398304989485 6.9370495187971102 #
straight-curve $-1 -24.569394775731098 34.593398304989485 1.9694259060214314 -1 0 0 I I #
point $-1 -41.664633994321079 34.593398304989485 1.9694259060214208 #
point $-1 -52.34199907595125 30.304770112063331 2.7156685264939506 #
point $-1 -45.935580026973149 30.304770112063331 2.7156685264939506 #
straight-curve $-1 -8.9054409600129478 34.593398304989485 62.368685390992759 0 0 -1 I I #
point $-1 -8.9054409600129478 34.593398304989485 6.9370495187971102 #
straight-curve $-1 -8.1897982585770315 34.593398304989485 1.9694259060214314 -1 0 0 I I #
point $-1 -8.9054409600129478 34.593398304989485 1.9694259060214208 #
point $-1 -19.58280604164311 30.304770112063331 2.7156685264939506 #
point $-1 -13.176386992665016 30.304770112063331 2.7156685264939506 #
straight-curve $-1 23.853752074295187 34.593398304989485 62.368685390992759 0 0 -1 I I #
point $-1 23.853752074295187 34.593398304989485 6.9370495187971102 #
straight-curve $-1 8.189798258577035 34.593398304989485 1.9694259060214314 -1 0 0 I I #
point $-1 23.853752074295187 34.593398304989485 1.9694259060214208 #
point $-1 13.17638699266503 30.304770112063331 2.7156685264939506 #
point $-1 19.58280604164311 30.304770112063331 2.7156685264939506 #
straight-curve $-1 56.612945108603327 34.593398304989485 62.368685390992759 0 0 -1 I I #
point $-1 56.612945108603327 34.593398304989485 6.9370495187971102 #
straight-curve $-1 24.569394775731105 34.593398304989485 1.9694259060214314 -1 0 0 I I #
point $-1 56.612945108603327 34.593398304989485 1.9694259060214208 #
point $-1 45.93558002697317 30.304770112063331 2.7156685264939506 #
point $-1 52.34199907595125 30.304770112063331 2.7156685264939506 #
straight-curve $-1 0 -43.564186571105886 -5.7396939681626318 -1 0 0 I I #
point $-1 59.436628315073094 -43.564186571105886 -5.7396939681626318 #
straight-curve $-1 59.436628315073094 -43.564186571105886 -4.2396939681626318 0 0 -1 I I #
End-of-ACIS-data 