500 0 10 0           
7 Unknown 11 ACIS 5.0 NT 24 Thu Mar 25 20:34:29 1999 
-1 9.9999999999999995e-007 1e-010 
body $-1 $10 $-1 $11 #
body $-1 $12 $-1 $13 #
body $-1 $14 $-1 $15 #
body $-1 $16 $-1 $17 #
body $-1 $18 $-1 $19 #
body $-1 $20 $-1 $21 #
body $-1 $22 $-1 $23 #
body $-1 $24 $-1 $25 #
body $-1 $26 $-1 $27 #
body $-1 $28 $-1 $29 #
lump $-1 $-1 $30 $0 #
transform $-1 1 0 0 0 1 0 0 0 1 40.76052125614185 18.030189618912225 5.6785715460131314 1 rotate no_reflect no_shear #
lump $-1 $-1 $31 $1 #
transform $-1 1 0 0 0 1 0 0 0 1 40.76052125614185 18.030189618912225 5.6785715460131314 1 rotate no_reflect no_shear #
lump $-1 $-1 $32 $2 #
transform $-1 1 0 0 0 1 0 0 0 1 40.76052125614185 18.030189618912225 5.6785715460131314 1 rotate no_reflect no_shear #
lump $-1 $-1 $33 $3 #
transform $-1 1 0 0 0 1 0 0 0 1 40.76052125614185 18.030189618912225 5.6785715460131314 1 rotate no_reflect no_shear #
lump $-1 $-1 $34 $4 #
transform $-1 1 0 0 0 1 0 0 0 1 40.76052125614185 18.030189618912225 5.6785715460131314 1 rotate no_reflect no_shear #
lump $-1 $-1 $35 $5 #
transform $-1 1 0 0 0 1 0 0 0 1 40.76052125614185 18.030189618912225 5.6785715460131314 1 rotate no_reflect no_shear #
lump $-1 $-1 $36 $6 #
transform $-1 1 0 0 0 1 0 0 0 1 40.76052125614185 18.030189618912225 5.6785715460131314 1 rotate no_reflect no_shear #
lump $-1 $-1 $37 $7 #
transform $-1 1 0 0 0 1 0 0 0 1 40.76052125614185 18.030189618912225 5.6785715460131314 1 rotate no_reflect no_shear #
lump $-1 $-1 $38 $8 #
transform $-1 1 0 0 0 1 0 0 0 1 40.76052125614185 18.030189618912225 5.6785715460131314 1 rotate no_reflect no_shear #
lump $-1 $-1 $39 $9 #
transform $-1 1 0 0 0 1 0 0 0 1 40.76052125614185 18.030189618912225 5.6785715460131314 1 rotate no_reflect no_shear #
shell $-1 $-1 $-1 $40 $-1 $10 #
shell $-1 $-1 $-1 $41 $-1 $12 #
shell $-1 $-1 $-1 $42 $-1 $14 #
shell $-1 $-1 $-1 $43 $-1 $16 #
shell $-1 $-1 $-1 $44 $-1 $18 #
shell $-1 $-1 $-1 $45 $-1 $20 #
shell $-1 $-1 $-1 $46 $-1 $22 #
shell $-1 $-1 $-1 $47 $-1 $24 #
shell $-1 $-1 $-1 $48 $-1 $26 #
shell $-1 $-1 $-1 $49 $-1 $28 #
face $-1 $50 $51 $30 $-1 $52 forward single #
face $-1 $53 $54 $31 $-1 $55 reversed single #
face $-1 $56 $57 $32 $-1 $58 reversed single #
face $-1 $59 $60 $33 $-1 $61 reversed single #
face $-1 $62 $63 $34 $-1 $64 forward single #
face $-1 $65 $66 $35 $-1 $67 forward single #
face $-1 $68 $69 $36 $-1 $70 forward single #
face $-1 $71 $72 $37 $-1 $73 reversed single #
face $-1 $74 $75 $38 $-1 $76 forward single #
face $-1 $77 $78 $39 $-1 $79 forward single #
face $-1 $80 $81 $30 $-1 $82 reversed single #
loop $-1 $-1 $83 $40 #
plane-surface $-1 0 0 5.6785715460131314 0 0 1 1 0 0 forward_v I I I I #
face $-1 $84 $85 $31 $-1 $86 reversed single #
loop $-1 $-1 $87 $41 #
plane-surface $-1 -37.219003780807668 -9.6730465268859618 0 0 1 0 0 0 1 forward_v I I I I #
face $-1 $88 $89 $32 $-1 $90 reversed single #
loop $-1 $-1 $91 $42 #
plane-surface $-1 37.219003780807675 -9.6730465268859618 0 0 1 0 0 0 1 forward_v I I I I #
face $-1 $92 $93 $33 $-1 $94 reversed single #
loop $-1 $-1 $95 $43 #
plane-surface $-1 17.143893019495824 65.449489739052552 77.802411533893576 1 0 0 0 -0.82903758062907751 -0.55919289150049634 forward_v I I I I #
face $-1 $96 $97 $34 $-1 $98 forward single #
loop $-1 $99 $100 $44 #
cone-surface $-1 20.450611676691352 15.478403028610861 3.0423712356371011 0 -0.82903758062907751 -0.55919289150049634 1 0 0 1 I I 0 1 1 forward I I I I #
face $-1 $101 $102 $35 $-1 $103 forward single #
loop $-1 $104 $105 $45 #
cone-surface $-1 25.41068966248465 15.478403028610861 3.0423712356371011 0 -0.82903758062907751 -0.55919289150049634 1 0 0 1 I I 0 1 1 forward I I I I #
face $-1 $106 $107 $36 $-1 $108 forward single #
loop $-1 $109 $110 $46 #
cone-surface $-1 30.370767648277941 15.478403028610861 3.0423712356371011 0 -0.82903758062907751 -0.55919289150049634 1 0 0 1 I I 0 1 1 forward I I I I #
face $-1 $111 $112 $37 $-1 $113 reversed single #
loop $-1 $-1 $114 $47 #
plane-surface $-1 -16.93340230641985 -86.399489294713021 45.550116028876431 -1 0 0 0 -0.83867057594974714 0.54463902268945019 forward_v I I I I #
face $-1 $115 $116 $38 $-1 $117 forward single #
loop $-1 $118 $119 $48 #
cone-surface $-1 -28.893462305743881 -15.059618530323572 2.4402583778397382 0 0.83867057594974714 -0.54463902268945019 1 0 0 1 I I 0 1 1 forward I I I I #
face $-1 $120 $121 $39 $-1 $122 forward single #
loop $-1 $123 $124 $49 #
cone-surface $-1 -21.717426306149463 -15.059618530323572 2.4402583778397382 0 0.83867057594974714 -0.54463902268945019 1 0 0 1 I I 0 1 1 forward I I I I #
face $-1 $125 $126 $30 $-1 $127 reversed single #
loop $-1 $-1 $128 $50 #
plane-surface $-1 0 0 -5.6785715460131314 0 0 1 1 0 0 forward_v I I I I #
coedge $-1 $129 $130 $131 $132 forward $51 $-1 #
face $-1 $133 $134 $31 $-1 $135 reversed single #
loop $-1 $-1 $136 $53 #
plane-surface $-1 -37.219003780807668 -6.6730465268859618 0 0 -1 0 0 0 -1 forward_v I I I I #
coedge $-1 $137 $138 $139 $140 reversed $54 $-1 #
face $-1 $141 $142 $32 $-1 $143 reversed single #
loop $-1 $-1 $144 $56 #
plane-surface $-1 33.677486305473494 -8.1730465268859618 0 1 0 0 0 0 -1 forward_v I I I I #
coedge $-1 $145 $146 $147 $148 forward $57 $-1 #
face $-1 $149 $150 $33 $-1 $151 reversed single #
loop $-1 $-1 $152 $59 #
plane-surface $-1 25.41068966248465 -2.1345181156913071 32.216424053314768 0 0.82903758062907751 0.55919289150049634 1 0 0 forward_v I I I I #
coedge $-1 $153 $154 $155 $156 reversed $60 $-1 #
face $-1 $-1 $157 $34 $-1 $158 forward single #
loop $-1 $159 $160 $62 #
cone-surface $-1 20.450611676691352 13.644448026606131 1.8053530058065022 0 -0.82903758062907751 -0.55919289150049634 0.5 0 0 1 I I -0.70710678118654746 0.70710678118654746 0.5 forward I I I I #
loop $-1 $-1 $161 $44 #
coedge $-1 $100 $100 $162 $163 reversed $63 $-1 #
face $-1 $-1 $164 $35 $-1 $165 forward single #
loop $-1 $166 $167 $65 #
cone-surface $-1 25.41068966248465 13.644448026606131 1.8053530058065022 0 -0.82903758062907751 -0.55919289150049634 0.5 0 0 1 I I -0.70710678118654746 0.70710678118654746 0.5 forward I I I I #
loop $-1 $-1 $168 $45 #
coedge $-1 $105 $105 $169 $170 reversed $66 $-1 #
face $-1 $-1 $171 $36 $-1 $172 forward single #
loop $-1 $173 $174 $68 #
cone-surface $-1 30.370767648277941 13.644448026606131 1.8053530058065022 0 -0.82903758062907751 -0.55919289150049634 0.5 0 0 1 I I -0.70710678118654746 0.70710678118654746 0.5 forward I I I I #
loop $-1 $-1 $175 $46 #
coedge $-1 $110 $110 $176 $177 reversed $69 $-1 #
face $-1 $178 $179 $37 $-1 $180 reversed single #
loop $-1 $-1 $181 $71 #
plane-surface $-1 -25.305444305946672 -18.030189618912232 1.1505751063611172 0 -0.83867057594974714 0.54463902268945019 1 0 0 forward_v I I I I #
coedge $-1 $182 $183 $184 $185 reversed $72 $-1 #
face $-1 $-1 $186 $38 $-1 $187 forward single #
loop $-1 $188 $189 $74 #
cone-surface $-1 -28.893462305743881 -13.139969741395474 1.193623918147626 0 0.83867057594974714 -0.54463902268945019 0.5 0 0 1 I I -0.70710678118654768 0.70710678118654735 0.5 forward I I I I #
loop $-1 $-1 $190 $48 #
coedge $-1 $119 $119 $191 $192 reversed $75 $-1 #
face $-1 $-1 $193 $39 $-1 $194 forward single #
loop $-1 $195 $196 $77 #
cone-surface $-1 -21.717426306149463 -13.139969741395474 1.193623918147626 0 0.83867057594974714 -0.54463902268945019 0.5 0 0 1 I I -0.70710678118654768 0.70710678118654735 0.5 forward I I I I #
loop $-1 $-1 $197 $49 #
coedge $-1 $124 $124 $198 $199 reversed $78 $-1 #
face $-1 $200 $201 $30 $-1 $202 reversed single #
loop $-1 $-1 $203 $80 #
plane-surface $-1 0 -18.030189618912225 0 0 1 0 0 0 1 forward_v I I I I #
coedge $-1 $204 $205 $206 $207 forward $81 $-1 #
coedge $-1 $208 $83 $209 $210 forward $51 $-1 #
coedge $-1 $83 $208 $211 $212 forward $51 $-1 #
coedge $-1 $213 $214 $83 $132 reversed $215 $-1 #
edge $-1 $216 -18.030189618912225 $217 18.030189618912225 $131 $218 forward 7 unknown #
face $-1 $219 $220 $31 $-1 $221 reversed single #
loop $-1 $-1 $222 $84 #
plane-surface $-1 -33.677486305473487 -8.1730465268859618 0 -1 0 0 0 0 1 forward_v I I I I #
coedge $-1 $223 $224 $225 $226 forward $85 $-1 #
coedge $-1 $227 $87 $228 $229 reversed $54 $-1 #
coedge $-1 $87 $227 $230 $231 reversed $54 $-1 #
coedge $-1 $232 $233 $87 $140 forward $234 $-1 #
edge $-1 $235 -5.6785715460131314 $236 5.6785715460131314 $139 $237 forward 7 unknown #
face $-1 $238 $239 $32 $-1 $240 reversed single #
loop $-1 $-1 $241 $88 #
plane-surface $-1 37.219003780807675 -6.6730465268859618 0 0 -1 0 0 0 -1 forward_v I I I I #
coedge $-1 $242 $243 $244 $245 forward $89 $-1 #
coedge $-1 $246 $91 $247 $248 reversed $57 $-1 #
coedge $-1 $91 $246 $249 $250 reversed $57 $-1 #
coedge $-1 $243 $242 $91 $148 reversed $89 $-1 #
edge $-1 $251 -5.6785715460131314 $252 5.6785715460131314 $147 $253 forward 7 unknown #
face $-1 $254 $255 $33 $-1 $256 reversed single #
loop $-1 $-1 $257 $92 #
plane-surface $-1 33.677486305473479 65.449489739052552 77.802411533893576 -1 0 0 0 0.82903758062907751 0.55919289150049634 forward_v I I I I #
coedge $-1 $258 $259 $260 $261 reversed $93 $-1 #
coedge $-1 $154 $95 $262 $263 reversed $60 $-1 #
coedge $-1 $95 $153 $258 $264 reversed $60 $-1 #
coedge $-1 $260 $265 $95 $156 forward $266 $-1 #
edge $-1 $267 14.694555250614052 $268 16.959256007836405 $155 $269 forward 7 unknown #
loop $-1 $-1 $162 $96 #
plane-surface $-1 25.41068966248465 -2.1345181156913071 32.216424053314768 0 0.82903758062907751 0.55919289150049634 1 0 0 forward_v I I I I #
loop $-1 $-1 $270 $62 #
coedge $-1 $160 $160 $161 $271 reversed $97 $-1 #
coedge $-1 $161 $161 $160 $271 forward $99 $-1 #
coedge $-1 $162 $162 $100 $163 forward $157 $-1 #
edge $-1 $272 -2.988762458333158e-016 $272 6.2831853071796004 $162 $273 forward 7 unknown #
loop $-1 $-1 $169 $101 #
plane-surface $-1 25.41068966248465 -2.1345181156913071 32.216424053314768 0 0.82903758062907751 0.55919289150049634 1 0 0 forward_v I I I I #
loop $-1 $-1 $274 $65 #
coedge $-1 $167 $167 $168 $275 reversed $102 $-1 #
coedge $-1 $168 $168 $167 $275 forward $104 $-1 #
coedge $-1 $169 $169 $105 $170 forward $164 $-1 #
edge $-1 $276 -2.988762458333158e-016 $276 6.2831853071796004 $169 $277 forward 7 unknown #
loop $-1 $-1 $176 $106 #
plane-surface $-1 25.41068966248465 -2.1345181156913071 32.216424053314768 0 0.82903758062907751 0.55919289150049634 1 0 0 forward_v I I I I #
loop $-1 $-1 $278 $68 #
coedge $-1 $174 $174 $175 $279 reversed $107 $-1 #
coedge $-1 $175 $175 $174 $279 forward $109 $-1 #
coedge $-1 $176 $176 $110 $177 forward $171 $-1 #
edge $-1 $280 -2.988762458333158e-016 $280 6.2831853071796004 $176 $281 forward 7 unknown #
face $-1 $282 $283 $37 $-1 $284 forward single #
loop $-1 $-1 $285 $111 #
plane-surface $-1 -33.677486305473494 -86.399489294713021 45.550116028876431 1 0 0 0 0.83867057594974714 -0.54463902268945019 forward_v I I I I #
coedge $-1 $286 $287 $288 $289 reversed $112 $-1 #
coedge $-1 $183 $114 $290 $291 reversed $72 $-1 #
coedge $-1 $114 $182 $286 $292 reversed $72 $-1 #
coedge $-1 $288 $293 $114 $185 forward $283 $-1 #
edge $-1 $294 25.169555028444286 $295 28.110070203715139 $184 $296 forward 7 unknown #
loop $-1 $-1 $191 $115 #
plane-surface $-1 -25.305444305946672 -18.030189618912232 1.1505751063611172 0 -0.83867057594974714 0.54463902268945019 1 0 0 forward_v I I I I #
loop $-1 $-1 $297 $74 #
coedge $-1 $189 $189 $190 $298 reversed $116 $-1 #
coedge $-1 $190 $190 $189 $298 forward $118 $-1 #
coedge $-1 $191 $191 $119 $192 forward $186 $-1 #
edge $-1 $299 2.3801147982426114e-015 $299 6.2831853071796031 $191 $300 forward 7 unknown #
loop $-1 $-1 $198 $120 #
plane-surface $-1 -25.305444305946672 -18.030189618912232 1.1505751063611172 0 -0.83867057594974714 0.54463902268945019 1 0 0 forward_v I I I I #
loop $-1 $-1 $301 $77 #
coedge $-1 $196 $196 $197 $302 reversed $121 $-1 #
coedge $-1 $197 $197 $196 $302 forward $123 $-1 #
coedge $-1 $198 $198 $124 $199 forward $193 $-1 #
edge $-1 $303 2.3801147982426114e-015 $303 6.2831853071796031 $198 $304 forward 7 unknown #
face $-1 $305 $306 $30 $-1 $307 reversed single #
loop $-1 $-1 $308 $125 #
plane-surface $-1 -40.76052125614185 0 0 1 0 0 0 0 -1 forward_v I I I I #
coedge $-1 $309 $211 $310 $311 forward $126 $-1 #
coedge $-1 $312 $128 $309 $313 forward $81 $-1 #
coedge $-1 $128 $312 $314 $315 forward $81 $-1 #
coedge $-1 $214 $213 $128 $207 reversed $215 $-1 #
edge $-1 $316 -18.030189618912225 $317 18.030189618912225 $206 $318 forward 7 unknown #
coedge $-1 $130 $129 $319 $320 forward $51 $-1 #
coedge $-1 $321 $322 $129 $210 reversed $306 $-1 #
edge $-1 $217 -40.76052125614185 $323 40.76052125614185 $209 $324 forward 7 unknown #
coedge $-1 $203 $325 $130 $212 reversed $126 $-1 #
edge $-1 $326 -40.76052125614185 $216 40.76052125614185 $211 $327 forward 7 unknown #
coedge $-1 $206 $131 $325 $328 forward $215 $-1 #
coedge $-1 $131 $206 $321 $329 reversed $215 $-1 #
loop $-1 $-1 $213 $305 #
vertex $-1 $132 $330 #
vertex $-1 $132 $331 #
straight-curve $-1 40.76052125614185 0 5.6785715460131314 0 1 0 I I #
face $-1 $332 $333 $31 $-1 $334 forward single #
loop $-1 $-1 $335 $133 #
plane-surface $-1 0 0 -5.6785715460131314 0 0 1 1 0 0 forward_v I I I I #
coedge $-1 $336 $337 $227 $338 forward $134 $-1 #
coedge $-1 $339 $136 $335 $340 reversed $85 $-1 #
coedge $-1 $136 $339 $341 $342 reversed $85 $-1 #
coedge $-1 $337 $336 $136 $226 reversed $134 $-1 #
edge $-1 $343 -5.6785715460131314 $344 5.6785715460131314 $225 $345 forward 7 unknown #
coedge $-1 $138 $137 $222 $338 reversed $54 $-1 #
coedge $-1 $346 $347 $137 $229 forward $220 $-1 #
edge $-1 $348 15.067984415069652 $235 22.151019365738016 $228 $349 forward 7 unknown #
coedge $-1 $350 $351 $138 $231 forward $333 $-1 #
edge $-1 $236 -22.151019365738016 $352 -15.067984415069652 $230 $353 forward 7 unknown #
coedge $-1 $354 $139 $351 $355 reversed $234 $-1 #
coedge $-1 $139 $354 $346 $356 reversed $234 $-1 #
loop $-1 $-1 $354 $332 #
vertex $-1 $356 $357 #
vertex $-1 $140 $358 #
straight-curve $-1 -40.76052125614185 -9.6730465268859618 0 0 0 1 I I #
face $-1 $359 $360 $32 $-1 $361 forward single #
loop $-1 $-1 $247 $141 #
plane-surface $-1 0 0 -5.6785715460131314 0 0 1 1 0 0 forward_v I I I I #
coedge $-1 $362 $363 $364 $365 reversed $142 $-1 #
coedge $-1 $147 $144 $366 $367 reversed $89 $-1 #
coedge $-1 $144 $147 $368 $369 reversed $89 $-1 #
coedge $-1 $363 $362 $144 $245 reversed $142 $-1 #
edge $-1 $370 -5.6785715460131314 $371 5.6785715460131314 $244 $372 forward 7 unknown #
coedge $-1 $146 $145 $373 $374 reversed $57 $-1 #
coedge $-1 $366 $375 $145 $248 forward $239 $-1 #
edge $-1 $376 -22.151019365738019 $252 -15.067984415069656 $247 $377 forward 7 unknown #
coedge $-1 $378 $368 $146 $250 forward $360 $-1 #
edge $-1 $251 15.067984415069656 $379 22.151019365738019 $249 $380 forward 7 unknown #
vertex $-1 $250 $381 #
vertex $-1 $248 $382 #
straight-curve $-1 33.677486305473494 -9.6730465268859618 0 0 0 -1 I I #
face $-1 $-1 $266 $33 $-1 $383 forward single #
loop $-1 $-1 $384 $149 #
plane-surface $-1 0 18.030189618912225 0 0 -1 0 0 0 -1 forward_v I I I I #
coedge $-1 $385 $386 $387 $388 reversed $150 $-1 #
coedge $-1 $389 $152 $154 $264 forward $93 $-1 #
coedge $-1 $152 $389 $385 $390 forward $93 $-1 #
coedge $-1 $387 $155 $152 $261 forward $266 $-1 #
edge $-1 $268 4.4385481882534989 $391 20.972141474231154 $260 $392 forward 7 unknown #
coedge $-1 $393 $394 $153 $263 forward $255 $-1 #
edge $-1 $395 -36.580191273525038 $267 -33.222634220933656 $262 $396 forward 7 unknown #
edge $-1 $268 32.010433697305487 $395 36.060379237824471 $154 $397 forward 7 unknown #
coedge $-1 $155 $387 $393 $398 forward $266 $-1 #
loop $-1 $-1 $387 $254 #
vertex $-1 $263 $399 #
vertex $-1 $156 $400 #
straight-curve $-1 17.143893019495824 32.724744869526276 5.6785715460131314 0 -1 0 I I #
coedge $-1 $270 $270 $-1 $401 reversed $159 $-1 #
edge $-1 $402 0 $402 6.2831853071796004 $160 $403 forward 7 unknown #
vertex $-1 $163 $404 #
ellipse-curve $-1 20.450611676691352 16.897839240301042 3.9997930197174441 0 0.82903758062907751 0.55919289150049634 1 0 0 1 I I #
coedge $-1 $274 $274 $-1 $405 reversed $166 $-1 #
edge $-1 $406 0 $406 6.2831853071796004 $167 $407 forward 7 unknown #
vertex $-1 $170 $408 #
ellipse-curve $-1 25.41068966248465 16.897839240301042 3.9997930197174441 0 0.82903758062907751 0.55919289150049634 1 0 0 1 I I #
coedge $-1 $278 $278 $-1 $409 reversed $173 $-1 #
edge $-1 $410 0 $410 6.2831853071796004 $174 $411 forward 7 unknown #
vertex $-1 $177 $412 #
ellipse-curve $-1 30.370767648277941 16.897839240301042 3.9997930197174441 0 0.82903758062907751 0.55919289150049634 1 0 0 1 I I #
face $-1 $-1 $413 $37 $-1 $414 reversed single #
loop $-1 $-1 $184 $178 #
plane-surface $-1 0 0 5.6785715460131314 0 0 1 1 0 0 forward_v I I I I #
coedge $-1 $415 $416 $417 $418 reversed $179 $-1 #
coedge $-1 $419 $181 $183 $292 forward $112 $-1 #
coedge $-1 $181 $419 $415 $420 forward $112 $-1 #
coedge $-1 $417 $184 $181 $289 forward $283 $-1 #
edge $-1 $295 4.2806801534465144 $421 21.024764152500158 $288 $422 forward 7 unknown #
coedge $-1 $423 $424 $182 $291 forward $413 $-1 #
edge $-1 $425 -21.624482908077088 $294 -17.096486468425084 $290 $426 forward 7 unknown #
edge $-1 $295 -5.399016693204377 $425 -1.2994784570086186e-014 $183 $427 forward 7 unknown #
coedge $-1 $184 $417 $423 $428 forward $283 $-1 #
vertex $-1 $185 $429 #
vertex $-1 $185 $430 #
straight-curve $-1 -16.93340230641985 -43.199744647356511 5.6785715460131314 0 1 0 I I #
coedge $-1 $297 $297 $-1 $431 reversed $188 $-1 #
edge $-1 $432 0 $432 6.2831853071796004 $189 $433 forward 7 unknown #
vertex $-1 $192 $434 #
ellipse-curve $-1 -28.893462305743881 -16.559932031276801 3.4145733261871278 0 -0.83867057594974714 0.54463902268945019 1 0 0 1 I I #
coedge $-1 $301 $301 $-1 $435 reversed $195 $-1 #
edge $-1 $436 0 $436 6.2831853071796004 $196 $437 forward 7 unknown #
vertex $-1 $199 $438 #
ellipse-curve $-1 -21.717426306149463 -16.559932031276801 3.4145733261871278 0 -0.83867057594974714 0.54463902268945019 1 0 0 1 I I #
face $-1 $-1 $215 $30 $-1 $439 reversed single #
loop $-1 $-1 $321 $200 #
plane-surface $-1 0 18.030189618912225 0 0 -1 0 0 0 -1 forward_v I I I I #
coedge $-1 $440 $319 $322 $441 forward $201 $-1 #
coedge $-1 $325 $203 $204 $313 reversed $126 $-1 #
coedge $-1 $319 $440 $203 $311 reversed $201 $-1 #
edge $-1 $326 -5.6785715460131314 $442 5.6785715460131314 $310 $443 forward 7 unknown #
coedge $-1 $205 $204 $440 $444 forward $81 $-1 #
edge $-1 $317 -40.76052125614185 $442 40.76052125614185 $309 $445 forward 7 unknown #
coedge $-1 $322 $321 $205 $315 reversed $306 $-1 #
edge $-1 $446 -40.76052125614185 $316 40.76052125614185 $314 $447 forward 7 unknown #
vertex $-1 $207 $448 #
vertex $-1 $328 $449 #
straight-curve $-1 40.76052125614185 0 -5.6785715460131314 0 -1 0 I I #
coedge $-1 $308 $310 $208 $320 reversed $201 $-1 #
edge $-1 $323 -18.030189618912225 $326 18.030189618912225 $319 $450 forward 7 unknown #
coedge $-1 $314 $209 $214 $329 forward $306 $-1 #
coedge $-1 $209 $314 $308 $441 reversed $306 $-1 #
vertex $-1 $210 $451 #
straight-curve $-1 0 18.030189618912225 5.6785715460131314 -1 0 0 I I #
coedge $-1 $211 $309 $213 $328 reversed $126 $-1 #
vertex $-1 $320 $452 #
straight-curve $-1 0 -18.030189618912225 5.6785715460131314 1 0 0 I I #
edge $-1 $216 -5.6785715460131314 $317 5.6785715460131314 $213 $453 forward 7 unknown #
edge $-1 $217 -5.6785715460131314 $316 5.6785715460131314 $214 $454 forward 7 unknown #
point $-1 40.76052125614185 -18.030189618912225 5.6785715460131314 #
point $-1 40.76052125614185 18.030189618912225 5.6785715460131314 #
face $-1 $-1 $234 $31 $-1 $455 reversed single #
loop $-1 $-1 $341 $219 #
plane-surface $-1 0 0 5.6785715460131314 0 0 1 1 0 0 forward_v I I I I #
coedge $-1 $347 $346 $223 $340 forward $220 $-1 #
coedge $-1 $225 $222 $347 $456 reversed $134 $-1 #
coedge $-1 $222 $225 $350 $457 reversed $134 $-1 #
edge $-1 $352 -5.6785715460131314 $348 5.6785715460131314 $222 $458 forward 7 unknown #
coedge $-1 $224 $223 $354 $459 reversed $85 $-1 #
edge $-1 $460 -22.151019365738016 $344 -15.067984415069652 $335 $461 forward 7 unknown #
coedge $-1 $351 $350 $224 $342 forward $333 $-1 #
edge $-1 $343 15.067984415069652 $462 22.151019365738016 $341 $463 forward 7 unknown #
vertex $-1 $342 $464 #
vertex $-1 $340 $465 #
straight-curve $-1 -33.677486305473487 -6.6730465268859618 0 0 0 -1 I I #
coedge $-1 $335 $228 $233 $356 forward $220 $-1 #
coedge $-1 $228 $335 $336 $456 forward $220 $-1 #
vertex $-1 $229 $466 #
straight-curve $-1 -18.609501890403834 -9.6730465268859618 -5.6785715460131314 -1 0 0 I I #
coedge $-1 $341 $230 $337 $457 forward $333 $-1 #
coedge $-1 $230 $341 $232 $355 forward $333 $-1 #
vertex $-1 $231 $467 #
straight-curve $-1 -18.609501890403834 -9.6730465268859618 5.6785715460131314 1 0 0 I I #
coedge $-1 $233 $232 $339 $459 forward $234 $-1 #
edge $-1 $462 6.6730465268859618 $236 9.6730465268859618 $232 $468 forward 7 unknown #
edge $-1 $235 -9.6730465268859618 $460 -6.6730465268859618 $233 $469 forward 7 unknown #
point $-1 -40.76052125614185 -9.6730465268859618 -5.6785715460131314 #
point $-1 -40.76052125614185 -9.6730465268859618 5.6785715460131314 #
face $-1 $-1 $470 $32 $-1 $471 reversed single #
loop $-1 $-1 $249 $238 #
plane-surface $-1 0 0 5.6785715460131314 0 0 1 1 0 0 forward_v I I I I #
coedge $-1 $244 $241 $472 $473 reversed $142 $-1 #
coedge $-1 $241 $244 $474 $475 reversed $142 $-1 #
coedge $-1 $476 $477 $241 $365 forward $470 $-1 #
edge $-1 $478 -5.6785715460131314 $479 5.6785715460131314 $364 $480 forward 7 unknown #
coedge $-1 $472 $247 $242 $367 forward $239 $-1 #
edge $-1 $252 -5.5865232634429809 $371 -2.5865232634429809 $366 $481 forward 7 unknown #
coedge $-1 $249 $474 $243 $369 forward $360 $-1 #
edge $-1 $370 2.5865232634429809 $251 5.5865232634429809 $368 $482 forward 7 unknown #
vertex $-1 $369 $483 #
vertex $-1 $367 $484 #
straight-curve $-1 33.677486305473494 -6.6730465268859618 0 0 0 -1 I I #
coedge $-1 $477 $476 $246 $374 forward $470 $-1 #
edge $-1 $379 -5.6785715460131314 $376 5.6785715460131314 $373 $485 forward 7 unknown #
coedge $-1 $247 $472 $477 $486 forward $239 $-1 #
vertex $-1 $374 $487 #
straight-curve $-1 18.609501890403838 -9.6730465268859618 -5.6785715460131314 -1 0 0 I I #
coedge $-1 $474 $249 $476 $488 forward $360 $-1 #
vertex $-1 $488 $489 #
straight-curve $-1 18.609501890403838 -9.6730465268859618 5.6785715460131314 1 0 0 I I #
point $-1 33.677486305473494 -9.6730465268859618 5.6785715460131314 #
point $-1 33.677486305473494 -9.6730465268859618 -5.6785715460131314 #
plane-surface $-1 0 0 5.6785715460131314 0 0 1 1 0 0 forward_v I I I I #
coedge $-1 $394 $393 $386 $490 forward $255 $-1 #
coedge $-1 $386 $257 $259 $390 reversed $150 $-1 #
coedge $-1 $257 $385 $384 $490 reversed $150 $-1 #
coedge $-1 $265 $260 $257 $388 forward $266 $-1 #
edge $-1 $391 -16.959256007836405 $491 -14.694555250614052 $387 $492 forward 7 unknown #
coedge $-1 $259 $258 $394 $493 reversed $93 $-1 #
edge $-1 $494 -36.060379237824471 $391 -32.010433697305487 $385 $495 forward 7 unknown #
vertex $-1 $261 $496 #
straight-curve $-1 12.705344831242325 15.765488861689871 5.6785715460131314 1 0 0 I I #
coedge $-1 $384 $262 $265 $398 reversed $255 $-1 #
coedge $-1 $262 $384 $389 $493 forward $255 $-1 #
vertex $-1 $263 $497 #
straight-curve $-1 17.143893019495824 18.030189618912225 38.901205766946788 0 0 1 I I #
straight-curve $-1 17.143893019495824 -2.1345181156913071 32.216424053314768 0 0.55919289150049634 -0.82903758062907751 I I #
edge $-1 $491 -33.677486305473479 $267 -17.143893019495824 $393 $498 forward 7 unknown #
point $-1 17.143893019495824 18.030189618912225 5.6785715460131314 #
point $-1 17.143893019495824 15.765488861689871 5.6785715460131314 #
edge $-1 $499 1 $499 0 $270 $-1 forward 7 unknown #
vertex $-1 $271 $500 #
ellipse-curve $-1 20.450611676691352 14.05896681692067 2.0849494515567502 0 0.82903758062907751 0.55919289150049634 1 0 0 1 I I #
point $-1 21.450611676691352 16.897839240301053 3.9997930197174516 #
edge $-1 $501 1 $501 0 $274 $-1 forward 7 unknown #
vertex $-1 $275 $502 #
ellipse-curve $-1 25.41068966248465 14.05896681692067 2.0849494515567502 0 0.82903758062907751 0.55919289150049634 1 0 0 1 I I #
point $-1 26.41068966248465 16.897839240301053 3.9997930197174516 #
edge $-1 $503 1 $503 0 $278 $-1 forward 7 unknown #
vertex $-1 $279 $504 #
ellipse-curve $-1 30.370767648277941 14.05896681692067 2.0849494515567502 0 0.82903758062907751 0.55919289150049634 1 0 0 1 I I #
point $-1 31.370767648277941 16.897839240301053 3.9997930197174516 #
loop $-1 $-1 $290 $282 #
plane-surface $-1 0 -18.030189618912225 0 0 1 0 0 0 1 forward_v I I I I #
coedge $-1 $416 $285 $287 $420 reversed $179 $-1 #
coedge $-1 $285 $415 $505 $506 reversed $179 $-1 #
coedge $-1 $293 $288 $285 $418 forward $283 $-1 #
edge $-1 $421 -28.110070203715139 $507 -25.169555028444286 $417 $508 forward 7 unknown #
coedge $-1 $287 $286 $424 $509 reversed $112 $-1 #
edge $-1 $510 1.2994784570086186e-014 $421 5.399016693204377 $415 $511 forward 7 unknown #
vertex $-1 $289 $512 #
straight-curve $-1 -12.652722152973336 -15.089674443641373 5.6785715460131314 -1 0 0 I I #
coedge $-1 $505 $290 $293 $428 reversed $413 $-1 #
coedge $-1 $290 $505 $419 $509 forward $413 $-1 #
vertex $-1 $291 $513 #
straight-curve $-1 -16.93340230641985 -18.030189618912225 22.775058014438216 0 0 1 I I #
straight-curve $-1 -16.93340230641985 -18.030189618912232 1.1505751063611172 0 -0.54463902268945019 -0.83867057594974714 I I #
edge $-1 $507 -33.677486305473494 $294 -16.93340230641985 $423 $514 forward 7 unknown #
point $-1 -16.93340230641985 -18.030189618912225 5.6785715460131314 #
point $-1 -16.93340230641985 -15.089674443641373 5.6785715460131314 #
edge $-1 $515 1 $515 0 $297 $-1 forward 7 unknown #
vertex $-1 $298 $516 #
ellipse-curve $-1 -28.893462305743881 -13.559305029370346 1.465943429492351 0 -0.83867057594974714 0.54463902268945019 1 0 0 1 I I #
point $-1 -27.893462305743881 -16.559932031276794 3.4145733261871261 #
edge $-1 $517 1 $517 0 $301 $-1 forward 7 unknown #
vertex $-1 $302 $518 #
ellipse-curve $-1 -21.717426306149463 -13.559305029370346 1.465943429492351 0 -0.83867057594974714 0.54463902268945019 1 0 0 1 I I #
point $-1 -20.717426306149463 -16.559932031276794 3.4145733261871261 #
plane-surface $-1 40.76052125614185 0 0 -1 0 0 0 0 1 forward_v I I I I #
coedge $-1 $310 $308 $312 $444 reversed $201 $-1 #
edge $-1 $323 -5.6785715460131314 $446 5.6785715460131314 $322 $519 forward 7 unknown #
vertex $-1 $444 $520 #
straight-curve $-1 -40.76052125614185 -18.030189618912225 0 0 0 -1 I I #
edge $-1 $442 -18.030189618912225 $446 18.030189618912225 $440 $521 forward 7 unknown #
straight-curve $-1 0 -18.030189618912225 -5.6785715460131314 -1 0 0 I I #
vertex $-1 $315 $522 #
straight-curve $-1 0 18.030189618912225 -5.6785715460131314 1 0 0 I I #
point $-1 40.76052125614185 18.030189618912225 -5.6785715460131314 #
point $-1 40.76052125614185 -18.030189618912225 -5.6785715460131314 #
straight-curve $-1 -40.76052125614185 0 5.6785715460131314 0 -1 0 I I #
point $-1 -40.76052125614185 18.030189618912225 5.6785715460131314 #
point $-1 -40.76052125614185 -18.030189618912225 5.6785715460131314 #
straight-curve $-1 40.76052125614185 -18.030189618912225 0 0 0 -1 I I #
straight-curve $-1 40.76052125614185 18.030189618912225 0 0 0 -1 I I #
plane-surface $-1 -40.76052125614185 0 0 1 0 0 0 0 -1 forward_v I I I I #
edge $-1 $344 2.5865232634429809 $348 5.5865232634429809 $347 $523 forward 7 unknown #
edge $-1 $352 -5.5865232634429809 $343 -2.5865232634429809 $350 $524 forward 7 unknown #
straight-curve $-1 -33.677486305473487 -9.6730465268859618 0 0 0 -1 I I #
edge $-1 $462 -5.6785715460131314 $460 5.6785715460131314 $354 $525 forward 7 unknown #
vertex $-1 $459 $526 #
straight-curve $-1 -18.609501890403834 -6.6730465268859618 -5.6785715460131314 1 0 0 I I #
vertex $-1 $355 $527 #
straight-curve $-1 -18.609501890403834 -6.6730465268859618 5.6785715460131314 -1 0 0 I I #
point $-1 -33.677486305473487 -6.6730465268859618 5.6785715460131314 #
point $-1 -33.677486305473487 -6.6730465268859618 -5.6785715460131314 #
point $-1 -33.677486305473487 -9.6730465268859618 -5.6785715460131314 #
point $-1 -33.677486305473487 -9.6730465268859618 5.6785715460131314 #
straight-curve $-1 -40.76052125614185 0 5.6785715460131314 0 -1 0 I I #
straight-curve $-1 -40.76052125614185 0 -5.6785715460131314 0 1 0 I I #
loop $-1 $-1 $373 $359 #
plane-surface $-1 40.76052125614185 0 0 -1 0 0 0 0 1 forward_v I I I I #
coedge $-1 $375 $366 $362 $473 forward $239 $-1 #
edge $-1 $371 15.067984415069656 $478 22.151019365738019 $472 $528 forward 7 unknown #
coedge $-1 $368 $378 $363 $475 forward $360 $-1 #
edge $-1 $479 -22.151019365738019 $370 -15.067984415069656 $474 $529 forward 7 unknown #
coedge $-1 $373 $364 $378 $488 reversed $470 $-1 #
coedge $-1 $364 $373 $375 $486 reversed $470 $-1 #
vertex $-1 $486 $530 #
vertex $-1 $365 $531 #
straight-curve $-1 40.76052125614185 -6.6730465268859618 0 0 0 1 I I #
straight-curve $-1 33.677486305473494 -4.0865232634429809 -5.6785715460131314 0 1 0 I I #
straight-curve $-1 33.677486305473494 -4.0865232634429809 5.6785715460131314 0 -1 0 I I #
point $-1 33.677486305473494 -6.6730465268859618 5.6785715460131314 #
point $-1 33.677486305473494 -6.6730465268859618 -5.6785715460131314 #
straight-curve $-1 40.76052125614185 -9.6730465268859618 0 0 0 -1 I I #
edge $-1 $478 6.6730465268859618 $376 9.6730465268859618 $477 $532 forward 7 unknown #
point $-1 40.760521256141857 -9.6730465268859618 -5.6785715460131314 #
edge $-1 $379 -9.6730465268859618 $479 -6.6730465268859618 $476 $533 forward 7 unknown #
point $-1 40.760521256141857 -9.6730465268859618 5.6785715460131314 #
edge $-1 $491 33.222634220933656 $494 36.580191273525038 $384 $534 forward 7 unknown #
vertex $-1 $398 $535 #
straight-curve $-1 33.677486305473479 32.724744869526276 5.6785715460131314 0 1 0 I I #
edge $-1 $494 -20.972141474231154 $395 -4.4385481882534989 $394 $536 forward 7 unknown #
vertex $-1 $493 $537 #
straight-curve $-1 33.677486305473479 -2.1345181156913071 32.216424053314768 0 -0.55919289150049634 0.82903758062907751 I I #
point $-1 33.677486305473479 15.765488861689871 5.6785715460131314 #
point $-1 17.143893019495824 18.030189618912221 2.3210144934217496 #
straight-curve $-1 0 18.030189618912225 5.6785715460131314 -1 0 0 I I #
vertex $-1 $401 $538 #
point $-1 21.450611676691352 14.05896681692067 2.0849494515567502 #
vertex $-1 $405 $539 #
point $-1 26.41068966248465 14.05896681692067 2.0849494515567502 #
vertex $-1 $409 $540 #
point $-1 31.370767648277941 14.05896681692067 2.0849494515567502 #
coedge $-1 $424 $423 $416 $506 forward $413 $-1 #
edge $-1 $507 17.096486468425084 $510 21.624482908077088 $505 $541 forward 7 unknown #
vertex $-1 $428 $542 #
straight-curve $-1 -33.677486305473494 -43.199744647356511 5.6785715460131314 0 -1 0 I I #
edge $-1 $510 -21.024764152500158 $425 -4.2806801534465144 $424 $543 forward 7 unknown #
vertex $-1 $509 $544 #
straight-curve $-1 -33.677486305473494 -18.030189618912232 1.1505751063611172 0 0.54463902268945019 0.83867057594974714 I I #
point $-1 -33.677486305473494 -15.089674443641373 5.6785715460131314 #
point $-1 -16.93340230641985 -18.030189618912225 1.150575106361128 #
straight-curve $-1 0 -18.030189618912225 5.6785715460131314 1 0 0 I I #
vertex $-1 $431 $545 #
point $-1 -27.893462305743881 -13.559305029370346 1.465943429492351 #
vertex $-1 $435 $546 #
point $-1 -20.717426306149463 -13.559305029370346 1.465943429492351 #
straight-curve $-1 -40.76052125614185 18.030189618912225 0 0 0 -1 I I #
point $-1 -40.76052125614185 -18.030189618912225 -5.6785715460131314 #
straight-curve $-1 -40.76052125614185 0 -5.6785715460131314 0 1 0 I I #
point $-1 -40.76052125614185 18.030189618912225 -5.6785715460131314 #
straight-curve $-1 -33.677486305473487 -4.0865232634429809 -5.6785715460131314 0 -1 0 I I #
straight-curve $-1 -33.677486305473487 -4.0865232634429809 5.6785715460131314 0 1 0 I I #
straight-curve $-1 -40.76052125614185 -6.6730465268859618 0 0 0 -1 I I #
point $-1 -40.76052125614185 -6.6730465268859618 -5.6785715460131314 #
point $-1 -40.76052125614185 -6.6730465268859618 5.6785715460131314 #
straight-curve $-1 18.609501890403838 -6.6730465268859618 -5.6785715460131314 1 0 0 I I #
straight-curve $-1 18.609501890403838 -6.6730465268859618 5.6785715460131314 -1 0 0 I I #
point $-1 40.760521256141857 -6.6730465268859618 -5.6785715460131314 #
point $-1 40.760521256141857 -6.6730465268859618 5.6785715460131314 #
straight-curve $-1 40.76052125614185 0 -5.6785715460131314 0 -1 0 I I #
straight-curve $-1 40.76052125614185 0 5.6785715460131314 0 1 0 I I #
straight-curve $-1 33.677486305473479 18.030189618912225 38.901205766946788 0 0 -1 I I #
point $-1 33.677486305473479 18.030189618912225 5.6785715460131314 #
straight-curve $-1 12.705344831242325 18.030189618912225 2.321014493421746 -1 0 0 I I #
point $-1 33.677486305473479 18.030189618912221 2.3210144934217496 #
point $-1 20.450611676691352 13.229929236291593 1.5257565600562539 #
point $-1 25.41068966248465 13.229929236291593 1.5257565600562539 #
point $-1 30.370767648277941 13.229929236291593 1.5257565600562539 #
straight-curve $-1 -33.677486305473494 -18.030189618912225 22.775058014438216 0 0 -1 I I #
point $-1 -33.677486305473494 -18.030189618912225 5.6785715460131314 #
straight-curve $-1 -12.652722152973336 -18.030189618912225 1.1505751063611287 1 0 0 I I #
point $-1 -33.677486305473494 -18.030189618912225 1.150575106361128 #
point $-1 -28.893462305743881 -12.720634453420601 0.92130440680290104 #
point $-1 -21.717426306149463 -12.720634453420601 0.92130440680290104 #
End-of-ACIS-data 