500 0 14 0           
7 Unknown 11 ACIS 5.0 NT 24 Thu Mar 25 17:16:50 1999 
-1 9.9999999999999995e-007 1e-010 
body $-1 $14 $-1 $15 #
body $-1 $16 $-1 $17 #
body $-1 $18 $-1 $19 #
body $-1 $20 $-1 $21 #
body $-1 $22 $-1 $23 #
body $-1 $24 $-1 $25 #
body $-1 $26 $-1 $27 #
body $-1 $28 $-1 $29 #
body $-1 $30 $-1 $31 #
body $-1 $32 $-1 $33 #
body $-1 $34 $-1 $35 #
body $-1 $36 $-1 $37 #
body $-1 $38 $-1 $39 #
body $-1 $40 $-1 $41 #
lump $-1 $-1 $42 $0 #
transform $-1 1 0 0 0 1 0 0 0 1 73.303018280587168 44.127669813894897 21.711939398589323 1 rotate no_reflect no_shear #
lump $-1 $-1 $43 $1 #
transform $-1 1 0 0 0 1 0 0 0 1 73.303018280587168 44.127669813894897 21.711939398589323 1 rotate no_reflect no_shear #
lump $-1 $-1 $44 $2 #
transform $-1 1 0 0 0 1 0 0 0 1 73.303018280587168 44.127669813894897 21.711939398589323 1 rotate no_reflect no_shear #
lump $-1 $-1 $45 $3 #
transform $-1 1 0 0 0 1 0 0 0 1 73.303018280587168 44.127669813894897 21.711939398589323 1 rotate no_reflect no_shear #
lump $-1 $-1 $46 $4 #
transform $-1 1 0 0 0 1 0 0 0 1 73.303018280587168 44.127669813894897 21.711939398589323 1 rotate no_reflect no_shear #
lump $-1 $-1 $47 $5 #
transform $-1 1 0 0 0 1 0 0 0 1 73.303018280587168 44.127669813894897 21.711939398589323 1 rotate no_reflect no_shear #
lump $-1 $-1 $48 $6 #
transform $-1 1 0 0 0 1 0 0 0 1 73.303018280587168 44.127669813894897 21.711939398589323 1 rotate no_reflect no_shear #
lump $-1 $-1 $49 $7 #
transform $-1 1 0 0 0 1 0 0 0 1 73.303018280587168 44.127669813894897 21.711939398589323 1 rotate no_reflect no_shear #
lump $-1 $-1 $50 $8 #
transform $-1 1 0 0 0 1 0 0 0 1 73.303018280587168 44.127669813894897 21.711939398589323 1 rotate no_reflect no_shear #
lump $-1 $-1 $51 $9 #
transform $-1 1 0 0 0 1 0 0 0 1 73.303018280587168 44.127669813894897 21.711939398589323 1 rotate no_reflect no_shear #
lump $-1 $-1 $52 $10 #
transform $-1 1 0 0 0 1 0 0 0 1 73.303018280587168 44.127669813894897 21.711939398589323 1 rotate no_reflect no_shear #
lump $-1 $-1 $53 $11 #
transform $-1 1 0 0 0 1 0 0 0 1 73.303018280587168 44.127669813894897 21.711939398589323 1 rotate no_reflect no_shear #
lump $-1 $-1 $54 $12 #
transform $-1 1 0 0 0 1 0 0 0 1 73.303018280587168 44.127669813894897 21.711939398589323 1 rotate no_reflect no_shear #
lump $-1 $-1 $55 $13 #
transform $-1 1 0 0 0 1 0 0 0 1 73.303018280587168 44.127669813894897 21.711939398589323 1 rotate no_reflect no_shear #
shell $-1 $-1 $-1 $56 $-1 $14 #
shell $-1 $-1 $-1 $57 $-1 $16 #
shell $-1 $-1 $-1 $58 $-1 $18 #
shell $-1 $-1 $-1 $59 $-1 $20 #
shell $-1 $-1 $-1 $60 $-1 $22 #
shell $-1 $-1 $-1 $61 $-1 $24 #
shell $-1 $-1 $-1 $62 $-1 $26 #
shell $-1 $-1 $-1 $63 $-1 $28 #
shell $-1 $-1 $-1 $64 $-1 $30 #
shell $-1 $-1 $-1 $65 $-1 $32 #
shell $-1 $-1 $-1 $66 $-1 $34 #
shell $-1 $-1 $-1 $67 $-1 $36 #
shell $-1 $-1 $-1 $68 $-1 $38 #
shell $-1 $-1 $-1 $69 $-1 $40 #
face $-1 $70 $71 $42 $-1 $72 forward single #
face $-1 $73 $74 $43 $-1 $75 reversed single #
face $-1 $76 $77 $44 $-1 $78 reversed single #
face $-1 $79 $80 $45 $-1 $81 forward single #
face $-1 $82 $83 $46 $-1 $84 forward single #
face $-1 $85 $86 $47 $-1 $87 reversed single #
face $-1 $88 $89 $48 $-1 $90 forward single #
face $-1 $91 $92 $49 $-1 $93 forward single #
face $-1 $94 $95 $50 $-1 $96 reversed single #
face $-1 $97 $98 $51 $-1 $99 forward single #
face $-1 $100 $101 $52 $-1 $102 forward single #
face $-1 $103 $104 $53 $-1 $105 reversed single #
face $-1 $106 $107 $54 $-1 $108 forward single #
face $-1 $109 $110 $55 $-1 $111 forward single #
face $-1 $112 $113 $42 $-1 $114 reversed single #
loop $-1 $-1 $115 $56 #
plane-surface $-1 0 0 21.711939398589323 0 0 1 1 0 0 forward_v I I I I #
face $-1 $116 $117 $43 $-1 $118 reversed single #
loop $-1 $-1 $119 $57 #
plane-surface $-1 0 -32.661622911204283 17.198331537164393 0 0 1 1 0 0 forward_v I I I I #
face $-1 $120 $121 $44 $-1 $122 reversed single #
loop $-1 $-1 $123 $58 #
plane-surface $-1 -197.63198963312823 2.9391574397673672 94.946809472849722 0 1 0 -0.84804810408105047 0 0.52991925155115449 forward_v I I I I #
face $-1 $124 $125 $45 $-1 $126 forward single #
loop $-1 $127 $128 $59 #
cone-surface $-1 -71.108667125175472 5.3754115720311546 18.98316515335533 0.84804810408105047 0 -0.52991925155115449 0.52991925155115449 0 0.84804810408105047 1 I I 0 1 1 forward I I I I #
face $-1 $129 $130 $46 $-1 $131 forward single #
loop $-1 $132 $133 $60 #
cone-surface $-1 -71.108667125175472 9.0297927704268304 18.98316515335533 0.84804810408105047 0 -0.52991925155115449 0.52991925155115449 0 0.84804810408105047 1 I I 0 1 1 forward I I I I #
face $-1 $134 $135 $47 $-1 $136 reversed single #
loop $-1 $-1 $137 $61 #
plane-surface $-1 -73.303018280587168 7.2026021712289889 17.25744830547103 -0.84804810408105047 0 0.52991925155115449 0.52991925155115449 0 0.84804810408105047 forward_v I I I I #
face $-1 $138 $139 $48 $-1 $140 forward single #
loop $-1 $141 $142 $62 #
cone-surface $-1 -71.108667125175472 13.902301034954398 18.98316515335533 0.84804810408105047 0 -0.52991925155115449 0.52991925155115449 0 0.84804810408105047 1 I I 0 1 1 forward I I I I #
face $-1 $143 $144 $49 $-1 $145 forward single #
loop $-1 $146 $147 $63 #
cone-surface $-1 -71.108667125175472 17.556682233350074 18.98316515335533 0.84804810408105047 0 -0.52991925155115449 0.52991925155115449 0 0.84804810408105047 1 I I 0 1 1 forward I I I I #
face $-1 $148 $149 $50 $-1 $150 reversed single #
loop $-1 $-1 $151 $64 #
plane-surface $-1 119.94262846574955 11.466046902690611 219.27578082539077 0 -1 0 -0.84804810408105047 0 -0.52991925155115449 forward_v I I I I #
face $-1 $152 $153 $51 $-1 $154 forward single #
loop $-1 $155 $156 $65 #
cone-surface $-1 71.108667125175472 5.3754115720311546 18.98316515335533 -0.84804810408105047 0 -0.52991925155115449 0.52991925155115449 0 -0.84804810408105047 1 I I 0 1 1 forward I I I I #
face $-1 $157 $158 $52 $-1 $159 forward single #
loop $-1 $160 $161 $66 #
cone-surface $-1 71.108667125175472 9.0297927704268304 18.98316515335533 -0.84804810408105047 0 -0.52991925155115449 0.52991925155115449 0 -0.84804810408105047 1 I I 0 1 1 forward I I I I #
face $-1 $162 $163 $53 $-1 $164 reversed single #
loop $-1 $-1 $165 $67 #
plane-surface $-1 119.94262846574955 19.992936365613854 219.27578082539077 0 -1 0 -0.84804810408105047 0 -0.52991925155115449 forward_v I I I I #
face $-1 $166 $167 $54 $-1 $168 forward single #
loop $-1 $169 $170 $68 #
cone-surface $-1 71.108667125175472 13.902301034954398 18.98316515335533 -0.84804810408105047 0 -0.52991925155115449 0.52991925155115449 0 -0.84804810408105047 1 I I 0 1 1 forward I I I I #
face $-1 $171 $172 $55 $-1 $173 forward single #
loop $-1 $174 $175 $69 #
cone-surface $-1 71.108667125175472 17.556682233350074 18.98316515335533 -0.84804810408105047 0 -0.52991925155115449 0.52991925155115449 0 -0.84804810408105047 1 I I 0 1 1 forward I I I I #
face $-1 $176 $177 $42 $-1 $178 reversed single #
loop $-1 $-1 $179 $70 #
plane-surface $-1 0 0 -21.711939398589323 0 0 1 1 0 0 forward_v I I I I #
coedge $-1 $180 $181 $182 $183 forward $71 $-1 #
face $-1 $184 $185 $43 $-1 $186 reversed single #
loop $-1 $-1 $187 $73 #
plane-surface $-1 0 -21.195576008513669 19.455135467876858 0 -1 0 0 0 -1 forward_v I I I I #
coedge $-1 $188 $189 $190 $191 reversed $74 $-1 #
face $-1 $192 $193 $44 $-1 $194 reversed single #
loop $-1 $-1 $195 $76 #
plane-surface $-1 -73.303018280587168 7.2026021712289889 17.25744830547103 -0.84804810408105047 0 0.52991925155115449 0.52991925155115449 0 0.84804810408105047 forward_v I I I I #
coedge $-1 $196 $197 $198 $199 reversed $77 $-1 #
face $-1 $-1 $200 $45 $-1 $201 forward single #
loop $-1 $202 $203 $79 #
cone-surface $-1 -69.882029352632316 5.3754115720311546 18.216676828904909 0.84804810408105047 0 -0.52991925155115449 0.26495962577557725 0 0.42402405204052523 1 I I -0.70710678118654746 0.70710678118654746 0.5 forward I I I I #
loop $-1 $-1 $204 $59 #
coedge $-1 $128 $128 $205 $206 reversed $80 $-1 #
face $-1 $-1 $207 $46 $-1 $208 forward single #
loop $-1 $209 $210 $82 #
cone-surface $-1 -69.882029352632316 9.0297927704268304 18.216676828904909 0.84804810408105047 0 -0.52991925155115449 0.26495962577557725 0 0.42402405204052523 1 I I -0.70710678118654746 0.70710678118654746 0.5 forward I I I I #
loop $-1 $-1 $211 $60 #
coedge $-1 $133 $133 $212 $213 reversed $83 $-1 #
face $-1 $214 $215 $47 $-1 $216 forward single #
loop $-1 $-1 $217 $85 #
plane-surface $-1 -197.63198963312823 19.992936365613854 94.946809472849722 0 -1 0 0.84804810408105047 0 -0.52991925155115449 forward_v I I I I #
coedge $-1 $218 $219 $220 $221 reversed $86 $-1 #
face $-1 $-1 $222 $48 $-1 $223 forward single #
loop $-1 $224 $225 $88 #
cone-surface $-1 -69.882029352632316 13.902301034954398 18.216676828904909 0.84804810408105047 0 -0.52991925155115449 0.26495962577557725 0 0.42402405204052523 1 I I -0.70710678118654746 0.70710678118654746 0.5 forward I I I I #
loop $-1 $-1 $226 $62 #
coedge $-1 $142 $142 $227 $228 reversed $89 $-1 #
face $-1 $-1 $229 $49 $-1 $230 forward single #
loop $-1 $231 $232 $91 #
cone-surface $-1 -69.882029352632316 17.556682233350074 18.216676828904909 0.84804810408105047 0 -0.52991925155115449 0.26495962577557725 0 0.42402405204052523 1 I I -0.70710678118654746 0.70710678118654746 0.5 forward I I I I #
loop $-1 $-1 $233 $63 #
coedge $-1 $147 $147 $234 $235 reversed $92 $-1 #
face $-1 $236 $237 $50 $-1 $238 reversed single #
loop $-1 $-1 $239 $94 #
plane-surface $-1 -4.3863428867915104 7.2026021712289889 141.58641965801206 0.84804810408105047 0 0.52991925155115449 0.52991925155115449 0 -0.84804810408105047 forward_v I I I I #
coedge $-1 $240 $241 $242 $243 reversed $95 $-1 #
face $-1 $-1 $244 $51 $-1 $245 forward single #
loop $-1 $246 $247 $97 #
cone-surface $-1 69.882029352632316 5.3754115720311546 18.216676828904909 -0.84804810408105047 0 -0.52991925155115449 0.26495962577557725 0 -0.42402405204052523 1 I I -0.70710678118654746 0.70710678118654746 0.5 forward I I I I #
loop $-1 $-1 $248 $65 #
coedge $-1 $156 $156 $249 $250 reversed $98 $-1 #
face $-1 $-1 $251 $52 $-1 $252 forward single #
loop $-1 $253 $254 $100 #
cone-surface $-1 69.882029352632316 9.0297927704268304 18.216676828904909 -0.84804810408105047 0 -0.52991925155115449 0.26495962577557725 0 -0.42402405204052523 1 I I -0.70710678118654746 0.70710678118654746 0.5 forward I I I I #
loop $-1 $-1 $255 $66 #
coedge $-1 $161 $161 $256 $257 reversed $101 $-1 #
face $-1 $258 $259 $53 $-1 $260 reversed single #
loop $-1 $-1 $261 $103 #
plane-surface $-1 -4.3863428867915104 7.2026021712289889 141.58641965801206 0.84804810408105047 0 0.52991925155115449 0.52991925155115449 0 -0.84804810408105047 forward_v I I I I #
coedge $-1 $262 $263 $264 $265 reversed $104 $-1 #
face $-1 $-1 $266 $54 $-1 $267 forward single #
loop $-1 $268 $269 $106 #
cone-surface $-1 69.882029352632316 13.902301034954398 18.216676828904909 -0.84804810408105047 0 -0.52991925155115449 0.26495962577557725 0 -0.42402405204052523 1 I I -0.70710678118654746 0.70710678118654746 0.5 forward I I I I #
loop $-1 $-1 $270 $68 #
coedge $-1 $170 $170 $271 $272 reversed $107 $-1 #
face $-1 $-1 $273 $55 $-1 $274 forward single #
loop $-1 $275 $276 $109 #
cone-surface $-1 69.882029352632316 17.556682233350074 18.216676828904909 -0.84804810408105047 0 -0.52991925155115449 0.26495962577557725 0 -0.42402405204052523 1 I I -0.70710678118654746 0.70710678118654746 0.5 forward I I I I #
loop $-1 $-1 $277 $69 #
coedge $-1 $175 $175 $278 $279 reversed $110 $-1 #
face $-1 $280 $281 $42 $-1 $282 reversed single #
loop $-1 $-1 $283 $112 #
plane-surface $-1 0 -44.127669813894897 0 0 1 0 0 0 1 forward_v I I I I #
coedge $-1 $284 $285 $286 $287 forward $113 $-1 #
coedge $-1 $288 $115 $289 $290 forward $71 $-1 #
coedge $-1 $115 $288 $291 $292 forward $71 $-1 #
coedge $-1 $293 $294 $115 $183 reversed $295 $-1 #
edge $-1 $296 -44.127669813894897 $297 44.127669813894897 $182 $298 forward 7 unknown #
face $-1 $299 $300 $43 $-1 $301 reversed single #
loop $-1 $-1 $302 $116 #
plane-surface $-1 -73.303018280587168 0 0 1 0 0 0 0 -1 forward_v I I I I #
coedge $-1 $303 $304 $305 $306 reversed $117 $-1 #
coedge $-1 $307 $119 $308 $309 reversed $74 $-1 #
coedge $-1 $119 $307 $303 $310 forward $74 $-1 #
coedge $-1 $305 $311 $119 $191 forward $312 $-1 #
edge $-1 $313 -27.796858358292756 $314 -4.8647645529115273 $190 $315 forward 7 unknown #
face $-1 $316 $317 $44 $-1 $318 forward single #
loop $-1 $-1 $319 $120 #
plane-surface $-1 -197.63198963312823 11.466046902690611 94.946809472849722 0 -1 0 0.84804810408105047 0 -0.52991925155115449 forward_v I I I I #
coedge $-1 $320 $321 $322 $323 reversed $121 $-1 #
coedge $-1 $197 $123 $324 $325 reversed $77 $-1 #
coedge $-1 $123 $196 $320 $326 reversed $77 $-1 #
coedge $-1 $322 $327 $123 $199 forward $317 $-1 #
edge $-1 $328 25.512976535976946 $329 28.296451405795096 $198 $330 forward 7 unknown #
loop $-1 $-1 $205 $124 #
plane-surface $-1 -73.303018280587168 7.2026021712289889 17.25744830547103 -0.84804810408105047 0 0.52991925155115449 0.52991925155115449 0 0.84804810408105047 forward_v I I I I #
loop $-1 $-1 $331 $79 #
coedge $-1 $203 $203 $204 $332 reversed $125 $-1 #
coedge $-1 $204 $204 $203 $332 forward $127 $-1 #
coedge $-1 $205 $205 $128 $206 forward $200 $-1 #
edge $-1 $333 0 $333 6.2831853071796004 $205 $334 forward 7 unknown #
loop $-1 $-1 $212 $129 #
plane-surface $-1 -73.303018280587168 7.2026021712289889 17.25744830547103 -0.84804810408105047 0 0.52991925155115449 0.52991925155115449 0 0.84804810408105047 forward_v I I I I #
loop $-1 $-1 $335 $82 #
coedge $-1 $210 $210 $211 $336 reversed $130 $-1 #
coedge $-1 $211 $211 $210 $336 forward $132 $-1 #
coedge $-1 $212 $212 $133 $213 forward $207 $-1 #
edge $-1 $337 0 $337 6.2831853071796004 $212 $338 forward 7 unknown #
face $-1 $339 $340 $47 $-1 $341 forward single #
loop $-1 $-1 $342 $134 #
plane-surface $-1 0 0 21.711939398589323 0 0 1 1 0 0 forward_v I I I I #
coedge $-1 $343 $344 $345 $346 reversed $135 $-1 #
coedge $-1 $347 $137 $348 $349 reversed $86 $-1 #
coedge $-1 $137 $347 $342 $350 reversed $86 $-1 #
coedge $-1 $351 $352 $137 $221 forward $340 $-1 #
edge $-1 $353 0 $354 5.2526396458903752 $220 $355 forward 7 unknown #
loop $-1 $-1 $227 $138 #
plane-surface $-1 -73.303018280587168 7.2026021712289889 17.25744830547103 -0.84804810408105047 0 0.52991925155115449 0.52991925155115449 0 0.84804810408105047 forward_v I I I I #
loop $-1 $-1 $356 $88 #
coedge $-1 $225 $225 $226 $357 reversed $139 $-1 #
coedge $-1 $226 $226 $225 $357 forward $141 $-1 #
coedge $-1 $227 $227 $142 $228 forward $222 $-1 #
edge $-1 $358 0 $358 6.2831853071796004 $227 $359 forward 7 unknown #
loop $-1 $-1 $234 $143 #
plane-surface $-1 -73.303018280587168 7.2026021712289889 17.25744830547103 -0.84804810408105047 0 0.52991925155115449 0.52991925155115449 0 0.84804810408105047 forward_v I I I I #
loop $-1 $-1 $360 $91 #
coedge $-1 $232 $232 $233 $361 reversed $144 $-1 #
coedge $-1 $233 $233 $232 $361 forward $146 $-1 #
coedge $-1 $234 $234 $147 $235 forward $229 $-1 #
edge $-1 $362 0 $362 6.2831853071796004 $234 $363 forward 7 unknown #
face $-1 $364 $365 $50 $-1 $366 reversed single #
loop $-1 $-1 $367 $148 #
plane-surface $-1 119.94262846574955 2.9391574397673672 219.27578082539077 0 1 0 0.84804810408105047 0 0.52991925155115449 forward_v I I I I #
coedge $-1 $368 $369 $370 $371 reversed $149 $-1 #
coedge $-1 $241 $151 $372 $373 reversed $95 $-1 #
coedge $-1 $151 $240 $368 $374 reversed $95 $-1 #
coedge $-1 $370 $375 $151 $243 forward $376 $-1 #
edge $-1 $377 -13.331704047712392 $378 -10.548229177894243 $242 $379 forward 7 unknown #
loop $-1 $-1 $249 $152 #
plane-surface $-1 -4.3863428867915104 7.2026021712289889 141.58641965801206 0.84804810408105047 0 0.52991925155115449 0.52991925155115449 0 -0.84804810408105047 forward_v I I I I #
loop $-1 $-1 $380 $97 #
coedge $-1 $247 $247 $248 $381 reversed $153 $-1 #
coedge $-1 $248 $248 $247 $381 forward $155 $-1 #
coedge $-1 $249 $249 $156 $250 forward $244 $-1 #
edge $-1 $382 0 $382 6.2831853071796004 $249 $383 forward 7 unknown #
loop $-1 $-1 $256 $157 #
plane-surface $-1 -4.3863428867915104 7.2026021712289889 141.58641965801206 0.84804810408105047 0 0.52991925155115449 0.52991925155115449 0 -0.84804810408105047 forward_v I I I I #
loop $-1 $-1 $384 $100 #
coedge $-1 $254 $254 $255 $385 reversed $158 $-1 #
coedge $-1 $255 $255 $254 $385 forward $160 $-1 #
coedge $-1 $256 $256 $161 $257 forward $251 $-1 #
edge $-1 $386 0 $386 6.2831853071796004 $256 $387 forward 7 unknown #
face $-1 $388 $389 $53 $-1 $390 forward single #
loop $-1 $-1 $391 $162 #
plane-surface $-1 73.303018280587168 0 0 -1 0 0 0 0 1 forward_v I I I I #
coedge $-1 $392 $393 $394 $395 reversed $163 $-1 #
coedge $-1 $263 $165 $396 $397 reversed $104 $-1 #
coedge $-1 $165 $262 $398 $399 reversed $104 $-1 #
coedge $-1 $400 $391 $165 $265 forward $259 $-1 #
edge $-1 $401 -92.380442107224354 $402 -87.925951014106062 $264 $403 forward 7 unknown #
loop $-1 $-1 $271 $166 #
plane-surface $-1 -4.3863428867915104 7.2026021712289889 141.58641965801206 0.84804810408105047 0 0.52991925155115449 0.52991925155115449 0 -0.84804810408105047 forward_v I I I I #
loop $-1 $-1 $404 $106 #
coedge $-1 $269 $269 $270 $405 reversed $167 $-1 #
coedge $-1 $270 $270 $269 $405 forward $169 $-1 #
coedge $-1 $271 $271 $170 $272 forward $266 $-1 #
edge $-1 $406 0 $406 6.2831853071796004 $271 $407 forward 7 unknown #
loop $-1 $-1 $278 $171 #
plane-surface $-1 -4.3863428867915104 7.2026021712289889 141.58641965801206 0.84804810408105047 0 0.52991925155115449 0.52991925155115449 0 -0.84804810408105047 forward_v I I I I #
loop $-1 $-1 $408 $109 #
coedge $-1 $276 $276 $277 $409 reversed $172 $-1 #
coedge $-1 $277 $277 $276 $409 forward $174 $-1 #
coedge $-1 $278 $278 $175 $279 forward $273 $-1 #
edge $-1 $410 0 $410 6.2831853071796004 $278 $411 forward 7 unknown #
face $-1 $412 $413 $42 $-1 $414 reversed single #
loop $-1 $-1 $415 $176 #
plane-surface $-1 -73.303018280587168 0 0 1 0 0 0 0 -1 forward_v I I I I #
coedge $-1 $416 $291 $417 $418 forward $177 $-1 #
coedge $-1 $419 $179 $416 $420 forward $113 $-1 #
coedge $-1 $179 $419 $421 $422 forward $113 $-1 #
coedge $-1 $294 $293 $179 $287 reversed $295 $-1 #
edge $-1 $423 -44.127669813894897 $424 44.127669813894897 $286 $425 forward 7 unknown #
coedge $-1 $181 $180 $426 $427 forward $71 $-1 #
coedge $-1 $428 $429 $180 $290 reversed $413 $-1 #
edge $-1 $297 -73.303018280587168 $430 73.303018280587168 $289 $431 forward 7 unknown #
coedge $-1 $283 $432 $181 $292 reversed $177 $-1 #
edge $-1 $433 -73.303018280587168 $296 73.303018280587168 $291 $434 forward 7 unknown #
coedge $-1 $286 $182 $432 $435 forward $295 $-1 #
coedge $-1 $182 $286 $428 $436 reversed $295 $-1 #
loop $-1 $-1 $293 $412 #
vertex $-1 $183 $437 #
vertex $-1 $183 $438 #
straight-curve $-1 73.303018280587168 0 21.711939398589323 0 1 0 I I #
face $-1 $439 $440 $43 $-1 $441 forward single #
loop $-1 $-1 $308 $184 #
plane-surface $-1 0 -44.127669813894897 0 0 1 0 0 0 1 forward_v I I I I #
coedge $-1 $442 $443 $444 $445 forward $185 $-1 #
coedge $-1 $444 $187 $189 $310 reversed $117 $-1 #
coedge $-1 $187 $444 $446 $447 reversed $117 $-1 #
coedge $-1 $448 $190 $187 $306 forward $312 $-1 #
edge $-1 $314 7.4707638032259638 $449 11.984371664650894 $305 $450 forward 7 unknown #
coedge $-1 $189 $188 $442 $451 reversed $74 $-1 #
coedge $-1 $452 $453 $188 $309 forward $300 $-1 #
edge $-1 $454 -73.303018280587168 $313 73.303018280587168 $308 $455 forward 7 unknown #
edge $-1 $456 -73.303018280587168 $314 73.303018280587168 $303 $457 forward 7 unknown #
coedge $-1 $190 $448 $452 $458 forward $312 $-1 #
loop $-1 $-1 $305 $439 #
vertex $-1 $309 $459 #
vertex $-1 $191 $460 #
straight-curve $-1 73.303018280587168 -16.330811455602142 17.198331537164393 0 1 0 I I #
face $-1 $-1 $461 $44 $-1 $462 reversed single #
loop $-1 $-1 $198 $192 #
plane-surface $-1 0 0 21.711939398589323 0 0 1 1 0 0 forward_v I I I I #
coedge $-1 $463 $464 $465 $466 reversed $193 $-1 #
coedge $-1 $467 $195 $197 $326 forward $121 $-1 #
coedge $-1 $195 $467 $463 $468 forward $121 $-1 #
coedge $-1 $465 $198 $195 $323 forward $317 $-1 #
edge $-1 $329 -0.66214364584712726 $469 7.8647458170761162 $322 $470 forward 7 unknown #
coedge $-1 $471 $472 $196 $325 forward $461 $-1 #
edge $-1 $473 -30.215956430953831 $328 -25.761465337835538 $324 $474 forward 7 unknown #
edge $-1 $329 -5.2526396458903752 $473 0 $197 $475 forward 7 unknown #
coedge $-1 $198 $465 $471 $476 forward $317 $-1 #
vertex $-1 $325 $477 #
vertex $-1 $199 $478 #
straight-curve $-1 -98.815994816564114 2.9391574397673672 21.711939398589323 1 0 0 I I #
coedge $-1 $331 $331 $-1 $479 reversed $202 $-1 #
edge $-1 $480 0 $480 6.2831853071796004 $203 $481 forward 7 unknown #
vertex $-1 $206 $482 #
ellipse-curve $-1 -71.911280845678093 5.3754115720311546 19.484693852030173 -0.84804810408105047 0 0.52991925155115449 0.52991925155115449 0 0.84804810408105047 1 I I #
coedge $-1 $335 $335 $-1 $483 reversed $209 $-1 #
edge $-1 $484 0 $484 6.2831853071796004 $210 $485 forward 7 unknown #
vertex $-1 $213 $486 #
ellipse-curve $-1 -71.911280845678093 9.0297927704268304 19.484693852030173 -0.84804810408105047 0 0.52991925155115449 0.52991925155115449 0 0.84804810408105047 1 I I #
face $-1 $-1 $487 $47 $-1 $488 reversed single #
loop $-1 $-1 $351 $214 #
plane-surface $-1 -197.63198963312823 11.466046902690611 94.946809472849722 0 -1 0 0.84804810408105047 0 -0.52991925155115449 forward_v I I I I #
coedge $-1 $345 $489 $219 $350 forward $215 $-1 #
coedge $-1 $344 $217 $347 $490 reversed $135 $-1 #
coedge $-1 $217 $343 $491 $492 reversed $135 $-1 #
coedge $-1 $493 $342 $217 $346 forward $215 $-1 #
edge $-1 $494 -28.296451405795096 $495 -25.512976535976946 $345 $496 forward 7 unknown #
coedge $-1 $219 $218 $343 $490 forward $86 $-1 #
coedge $-1 $497 $491 $218 $349 forward $487 $-1 #
edge $-1 $498 -16.39163527999936 $353 -7.8647458170761162 $348 $499 forward 7 unknown #
edge $-1 $354 7.8647458170761162 $494 16.39163527999936 $342 $500 forward 7 unknown #
coedge $-1 $352 $220 $489 $501 reversed $340 $-1 #
coedge $-1 $220 $351 $497 $502 reversed $340 $-1 #
vertex $-1 $349 $503 #
vertex $-1 $350 $504 #
straight-curve $-1 -73.303018280587168 11.466046902690611 17.25744830547103 0.52991925155115449 0 0.84804810408105047 I I #
coedge $-1 $356 $356 $-1 $505 reversed $224 $-1 #
edge $-1 $506 0 $506 6.2831853071796004 $225 $507 forward 7 unknown #
vertex $-1 $228 $508 #
ellipse-curve $-1 -71.911280845678093 13.902301034954398 19.484693852030173 -0.84804810408105047 0 0.52991925155115449 0.52991925155115449 0 0.84804810408105047 1 I I #
coedge $-1 $360 $360 $-1 $509 reversed $231 $-1 #
edge $-1 $510 0 $510 6.2831853071796004 $232 $511 forward 7 unknown #
vertex $-1 $235 $512 #
ellipse-curve $-1 -71.911280845678093 17.556682233350074 19.484693852030173 -0.84804810408105047 0 0.52991925155115449 0.52991925155115449 0 0.84804810408105047 1 I I #
face $-1 $-1 $376 $50 $-1 $513 forward single #
loop $-1 $-1 $514 $236 #
plane-surface $-1 73.303018280587168 0 0 -1 0 0 0 0 1 forward_v I I I I #
coedge $-1 $515 $516 $517 $518 reversed $237 $-1 #
coedge $-1 $519 $239 $241 $374 forward $149 $-1 #
coedge $-1 $239 $519 $515 $520 forward $149 $-1 #
coedge $-1 $517 $242 $239 $371 forward $376 $-1 #
edge $-1 $378 -7.8647458170761162 $521 0.66214364584712726 $370 $522 forward 7 unknown #
coedge $-1 $523 $524 $240 $373 forward $365 $-1 #
edge $-1 $525 -92.380442107224354 $377 -87.925951014106062 $372 $526 forward 7 unknown #
edge $-1 $378 141.35339691528392 $525 146.60603656117428 $241 $527 forward 7 unknown #
coedge $-1 $242 $517 $523 $528 forward $376 $-1 #
loop $-1 $-1 $517 $364 #
vertex $-1 $373 $529 #
vertex $-1 $243 $530 #
straight-curve $-1 59.971314232874775 11.466046902690611 21.711939398589323 -1 0 0 I I #
coedge $-1 $380 $380 $-1 $531 reversed $246 $-1 #
edge $-1 $532 0 $532 6.2831853071796004 $247 $533 forward 7 unknown #
vertex $-1 $250 $534 #
ellipse-curve $-1 71.911280845678093 5.3754115720311546 19.484693852030169 0.84804810408105047 0 0.52991925155115449 0.52991925155115449 0 -0.84804810408105047 1 I I #
coedge $-1 $384 $384 $-1 $535 reversed $253 $-1 #
edge $-1 $536 0 $536 6.2831853071796004 $254 $537 forward 7 unknown #
vertex $-1 $257 $538 #
ellipse-curve $-1 71.911280845678093 9.0297927704268304 19.484693852030169 0.84804810408105047 0 0.52991925155115449 0.52991925155115449 0 -0.84804810408105047 1 I I #
face $-1 $-1 $539 $53 $-1 $540 forward single #
loop $-1 $-1 $541 $258 #
plane-surface $-1 119.94262846574955 11.466046902690611 219.27578082539077 0 -1 0 -0.84804810408105047 0 -0.52991925155115449 forward_v I I I I #
coedge $-1 $264 $542 $393 $543 forward $259 $-1 #
coedge $-1 $396 $261 $544 $545 reversed $163 $-1 #
coedge $-1 $261 $396 $391 $543 reversed $163 $-1 #
coedge $-1 $546 $541 $261 $395 forward $389 $-1 #
edge $-1 $547 141.35339691528392 $548 146.60603656117428 $394 $549 forward 7 unknown #
coedge $-1 $393 $392 $262 $397 forward $163 $-1 #
edge $-1 $550 141.35339691528392 $401 146.60603656117428 $262 $551 forward 7 unknown #
coedge $-1 $544 $552 $263 $399 forward $539 $-1 #
edge $-1 $402 -13.331704047712392 $550 -10.548229177894243 $398 $553 forward 7 unknown #
coedge $-1 $542 $264 $552 $554 reversed $259 $-1 #
vertex $-1 $265 $555 #
vertex $-1 $265 $556 #
straight-curve $-1 73.303018280587168 19.992936365613854 109.63789041269538 0 0 1 I I #
coedge $-1 $404 $404 $-1 $557 reversed $268 $-1 #
edge $-1 $558 0 $558 6.2831853071796004 $269 $559 forward 7 unknown #
vertex $-1 $272 $560 #
ellipse-curve $-1 71.911280845678093 13.902301034954398 19.484693852030169 0.84804810408105047 0 0.52991925155115449 0.52991925155115449 0 -0.84804810408105047 1 I I #
coedge $-1 $408 $408 $-1 $561 reversed $275 $-1 #
edge $-1 $562 0 $562 6.2831853071796004 $276 $563 forward 7 unknown #
vertex $-1 $279 $564 #
ellipse-curve $-1 71.911280845678093 17.556682233350074 19.484693852030169 0.84804810408105047 0 0.52991925155115449 0.52991925155115449 0 -0.84804810408105047 1 I I #
face $-1 $-1 $295 $42 $-1 $565 reversed single #
loop $-1 $-1 $428 $280 #
plane-surface $-1 0 44.127669813894897 0 0 -1 0 0 0 -1 forward_v I I I I #
coedge $-1 $566 $426 $429 $567 forward $281 $-1 #
coedge $-1 $432 $283 $284 $420 reversed $177 $-1 #
coedge $-1 $426 $566 $283 $418 reversed $281 $-1 #
edge $-1 $433 -21.711939398589323 $568 21.711939398589323 $417 $569 forward 7 unknown #
coedge $-1 $285 $284 $566 $570 forward $113 $-1 #
edge $-1 $424 -73.303018280587168 $568 73.303018280587168 $416 $571 forward 7 unknown #
coedge $-1 $429 $428 $285 $422 reversed $413 $-1 #
edge $-1 $572 -73.303018280587168 $423 73.303018280587168 $421 $573 forward 7 unknown #
vertex $-1 $287 $574 #
vertex $-1 $435 $575 #
straight-curve $-1 73.303018280587168 0 -21.711939398589323 0 -1 0 I I #
coedge $-1 $415 $417 $288 $427 reversed $281 $-1 #
edge $-1 $430 -44.127669813894897 $433 44.127669813894897 $426 $576 forward 7 unknown #
coedge $-1 $421 $289 $294 $436 forward $413 $-1 #
coedge $-1 $289 $421 $415 $567 reversed $413 $-1 #
vertex $-1 $290 $577 #
straight-curve $-1 0 44.127669813894897 21.711939398589323 -1 0 0 I I #
coedge $-1 $291 $416 $293 $435 reversed $177 $-1 #
vertex $-1 $427 $578 #
straight-curve $-1 0 -44.127669813894897 21.711939398589323 1 0 0 I I #
edge $-1 $296 -21.711939398589323 $424 21.711939398589323 $293 $579 forward 7 unknown #
edge $-1 $297 -21.711939398589323 $423 21.711939398589323 $294 $580 forward 7 unknown #
point $-1 73.303018280587168 -44.127669813894897 21.711939398589323 #
point $-1 73.303018280587168 44.127669813894897 21.711939398589323 #
face $-1 $-1 $312 $43 $-1 $581 reversed single #
loop $-1 $-1 $446 $299 #
plane-surface $-1 0 0 21.711939398589323 0 0 1 1 0 0 forward_v I I I I #
coedge $-1 $582 $302 $307 $451 forward $185 $-1 #
coedge $-1 $302 $582 $583 $584 reversed $185 $-1 #
coedge $-1 $304 $303 $302 $445 reversed $117 $-1 #
edge $-1 $585 -11.984371664650894 $456 -7.4707638032259638 $302 $586 forward 7 unknown #
coedge $-1 $583 $587 $304 $447 forward $440 $-1 #
edge $-1 $449 -73.303018280587168 $585 73.303018280587168 $446 $588 forward 7 unknown #
coedge $-1 $311 $305 $587 $589 reversed $312 $-1 #
vertex $-1 $306 $590 #
straight-curve $-1 73.303018280587168 -21.195576008513669 9.7275677339384288 0 0 1 I I #
edge $-1 $456 4.8647645529115273 $454 27.796858358292756 $442 $591 forward 7 unknown #
coedge $-1 $592 $308 $311 $458 reversed $300 $-1 #
coedge $-1 $308 $592 $582 $593 forward $300 $-1 #
vertex $-1 $309 $594 #
straight-curve $-1 0 -44.127669813894897 17.198331537164393 1 0 0 I I #
vertex $-1 $451 $595 #
straight-curve $-1 0 -21.195576008513669 17.198331537164393 1 0 0 I I #
edge $-1 $596 -21.711939398589323 $313 -17.198331537164393 $311 $597 forward 7 unknown #
point $-1 73.303018280587168 -44.127669813894897 17.198331537164393 #
point $-1 73.303018280587168 -21.195576008513669 17.198331537164393 #
loop $-1 $-1 $324 $316 #
plane-surface $-1 -73.303018280587168 0 0 1 0 0 0 0 -1 forward_v I I I I #
coedge $-1 $464 $319 $321 $468 reversed $193 $-1 #
coedge $-1 $319 $463 $598 $599 reversed $193 $-1 #
coedge $-1 $327 $322 $319 $466 forward $317 $-1 #
edge $-1 $469 -28.296451405795096 $600 -25.512976535976946 $465 $601 forward 7 unknown #
coedge $-1 $321 $320 $472 $602 reversed $121 $-1 #
edge $-1 $603 0 $469 5.2526396458903752 $463 $604 forward 7 unknown #
vertex $-1 $323 $605 #
straight-curve $-1 -70.519543410769018 3.6013010856144945 21.711939398589323 0 1 0 I I #
coedge $-1 $598 $324 $327 $476 reversed $461 $-1 #
coedge $-1 $324 $598 $467 $602 forward $461 $-1 #
vertex $-1 $325 $606 #
straight-curve $-1 -73.303018280587168 2.9391574397673672 47.473404736424861 0 0 1 I I #
straight-curve $-1 -73.303018280587168 2.9391574397673672 17.25744830547103 -0.52991925155115449 0 -0.84804810408105047 I I #
edge $-1 $600 -11.466046902690611 $328 -2.9391574397673672 $471 $607 forward 7 unknown #
point $-1 -73.303018280587168 2.9391574397673672 21.711939398589323 #
point $-1 -70.519543410769018 2.9391574397673672 21.711939398589323 #
edge $-1 $608 1 $608 0 $331 $-1 forward 7 unknown #
vertex $-1 $332 $609 #
ellipse-curve $-1 -70.306053404672838 5.3754115720311546 18.481636454680487 -0.84804810408105047 0 0.52991925155115449 0.52991925155115449 0 0.84804810408105047 1 I I #
point $-1 -71.381361594126943 5.3754115720311546 20.332741956111228 #
edge $-1 $610 1 $610 0 $335 $-1 forward 7 unknown #
vertex $-1 $336 $611 #
ellipse-curve $-1 -70.306053404672838 9.0297927704268304 18.481636454680487 -0.84804810408105047 0 0.52991925155115449 0.52991925155115449 0 0.84804810408105047 1 I I #
point $-1 -71.381361594126943 9.0297927704268304 20.332741956111228 #
loop $-1 $-1 $348 $339 #
plane-surface $-1 -73.303018280587168 0 0 1 0 0 0 0 -1 forward_v I I I I #
coedge $-1 $342 $493 $351 $501 forward $215 $-1 #
edge $-1 $498 0 $494 5.2526396458903752 $343 $612 forward 7 unknown #
coedge $-1 $348 $613 $344 $492 forward $487 $-1 #
edge $-1 $495 25.761465337835538 $498 30.215956430953831 $491 $614 forward 7 unknown #
coedge $-1 $489 $345 $613 $615 forward $215 $-1 #
vertex $-1 $346 $616 #
vertex $-1 $615 $617 #
straight-curve $-1 -98.815994816564114 19.992936365613854 21.711939398589323 -1 0 0 I I #
coedge $-1 $613 $348 $352 $502 forward $487 $-1 #
vertex $-1 $492 $618 #
straight-curve $-1 -73.303018280587168 3.6013010856144945 17.257448305471023 0 -1 0 I I #
straight-curve $-1 -70.519543410769018 3.6013010856144945 21.711939398589323 0 1 0 I I #
edge $-1 $619 25.512976535976946 $354 28.296451405795096 $489 $620 forward 7 unknown #
edge $-1 $353 -30.215956430953831 $619 -25.761465337835538 $497 $621 forward 7 unknown #
point $-1 -73.303018280587168 11.466046902690611 17.25744830547103 #
point $-1 -70.519543410769018 11.466046902690611 21.711939398589323 #
edge $-1 $622 1 $622 0 $356 $-1 forward 7 unknown #
vertex $-1 $357 $623 #
ellipse-curve $-1 -70.306053404672838 13.902301034954398 18.481636454680487 -0.84804810408105047 0 0.52991925155115449 0.52991925155115449 0 0.84804810408105047 1 I I #
point $-1 -71.381361594126943 13.902301034954398 20.332741956111228 #
edge $-1 $624 1 $624 0 $360 $-1 forward 7 unknown #
vertex $-1 $361 $625 #
ellipse-curve $-1 -70.306053404672838 17.556682233350074 18.481636454680487 -0.84804810408105047 0 0.52991925155115449 0.52991925155115449 0 0.84804810408105047 1 I I #
point $-1 -71.381361594126943 17.556682233350074 20.332741956111228 #
plane-surface $-1 0 0 21.711939398589323 0 0 1 1 0 0 forward_v I I I I #
coedge $-1 $524 $523 $516 $626 forward $365 $-1 #
coedge $-1 $516 $367 $369 $520 reversed $237 $-1 #
coedge $-1 $367 $515 $514 $626 reversed $237 $-1 #
coedge $-1 $375 $370 $367 $518 forward $376 $-1 #
edge $-1 $521 10.548229177894243 $627 13.331704047712392 $517 $628 forward 7 unknown #
coedge $-1 $369 $368 $524 $629 reversed $149 $-1 #
edge $-1 $630 -146.60603656117428 $521 -141.35339691528392 $515 $631 forward 7 unknown #
vertex $-1 $371 $632 #
straight-curve $-1 70.519543410769018 3.6013010856144945 21.711939398589337 0 -1 0 I I #
coedge $-1 $514 $372 $375 $528 reversed $365 $-1 #
coedge $-1 $372 $514 $519 $629 forward $365 $-1 #
vertex $-1 $373 $633 #
straight-curve $-1 73.303018280587168 11.466046902690611 109.63789041269538 0 0 1 I I #
straight-curve $-1 -4.3863428867915104 11.466046902690611 141.58641965801206 0.52991925155115449 0 -0.84804810408105047 I I #
edge $-1 $627 2.9391574397673672 $377 11.466046902690611 $523 $634 forward 7 unknown #
point $-1 73.303018280587168 11.466046902690611 21.711939398589323 #
point $-1 70.519543410769018 11.466046902690611 21.711939398589323 #
edge $-1 $635 1 $635 0 $380 $-1 forward 7 unknown #
vertex $-1 $381 $636 #
ellipse-curve $-1 70.306053404672838 5.3754115720311546 18.481636454680487 0.84804810408105047 0 0.52991925155115449 0.52991925155115449 0 -0.84804810408105047 1 I I #
point $-1 72.441200097229242 5.3754115720311546 18.636645747949125 #
edge $-1 $637 1 $637 0 $384 $-1 forward 7 unknown #
vertex $-1 $385 $638 #
ellipse-curve $-1 70.306053404672838 9.0297927704268304 18.481636454680487 0.84804810408105047 0 0.52991925155115449 0.52991925155115449 0 -0.84804810408105047 1 I I #
point $-1 72.441200097229242 9.0297927704268304 18.636645747949125 #
loop $-1 $-1 $544 $388 #
plane-surface $-1 0 0 21.711939398589323 0 0 1 1 0 0 forward_v I I I I #
coedge $-1 $394 $546 $639 $640 reversed $389 $-1 #
coedge $-1 $391 $400 $546 $641 forward $259 $-1 #
edge $-1 $548 7.8647458170761162 $401 16.39163527999936 $391 $642 forward 7 unknown #
coedge $-1 $639 $398 $392 $545 forward $539 $-1 #
edge $-1 $550 -16.39163527999936 $547 -7.8647458170761162 $544 $643 forward 7 unknown #
coedge $-1 $541 $394 $542 $641 reversed $389 $-1 #
vertex $-1 $545 $644 #
vertex $-1 $543 $645 #
straight-curve $-1 -4.3863428867915104 11.466046902690611 141.58641965801206 0.52991925155115449 0 -0.84804810408105047 I I #
vertex $-1 $399 $646 #
straight-curve $-1 -4.3863428867915104 19.992936365613854 141.58641965801206 0.52991925155115449 0 -0.84804810408105047 I I #
coedge $-1 $398 $639 $400 $554 forward $539 $-1 #
straight-curve $-1 59.971314232874775 19.992936365613854 21.711939398589323 -1 0 0 I I #
edge $-1 $647 11.466046902690611 $402 19.992936365613854 $400 $648 forward 7 unknown #
point $-1 73.303018280587168 19.992936365613854 17.25744830547103 #
point $-1 73.303018280587168 19.992936365613854 21.711939398589323 #
edge $-1 $649 1 $649 0 $404 $-1 forward 7 unknown #
vertex $-1 $405 $650 #
ellipse-curve $-1 70.306053404672838 13.902301034954398 18.481636454680487 0.84804810408105047 0 0.52991925155115449 0.52991925155115449 0 -0.84804810408105047 1 I I #
point $-1 72.441200097229242 13.902301034954398 18.636645747949125 #
edge $-1 $651 1 $651 0 $408 $-1 forward 7 unknown #
vertex $-1 $409 $652 #
ellipse-curve $-1 70.306053404672838 17.556682233350074 18.481636454680487 0.84804810408105047 0 0.52991925155115449 0.52991925155115449 0 -0.84804810408105047 1 I I #
point $-1 72.441200097229242 17.556682233350074 18.636645747949125 #
plane-surface $-1 73.303018280587168 0 0 -1 0 0 0 0 1 forward_v I I I I #
coedge $-1 $417 $415 $419 $570 reversed $281 $-1 #
edge $-1 $430 -21.711939398589323 $572 21.711939398589323 $429 $653 forward 7 unknown #
vertex $-1 $570 $654 #
straight-curve $-1 -73.303018280587168 -44.127669813894897 0 0 0 -1 I I #
edge $-1 $568 -44.127669813894897 $572 44.127669813894897 $566 $655 forward 7 unknown #
straight-curve $-1 0 -44.127669813894897 -21.711939398589323 -1 0 0 I I #
vertex $-1 $422 $656 #
straight-curve $-1 0 44.127669813894897 -21.711939398589323 1 0 0 I I #
point $-1 73.303018280587168 44.127669813894897 -21.711939398589323 #
point $-1 73.303018280587168 -44.127669813894897 -21.711939398589323 #
straight-curve $-1 -73.303018280587168 0 21.711939398589323 0 -1 0 I I #
point $-1 -73.303018280587168 44.127669813894897 21.711939398589323 #
point $-1 -73.303018280587168 -44.127669813894897 21.711939398589323 #
straight-curve $-1 73.303018280587168 -44.127669813894897 0 0 0 -1 I I #
straight-curve $-1 73.303018280587168 44.127669813894897 0 0 0 -1 I I #
plane-surface $-1 73.303018280587168 0 0 -1 0 0 0 0 1 forward_v I I I I #
coedge $-1 $443 $442 $453 $593 reversed $185 $-1 #
coedge $-1 $657 $446 $443 $584 forward $440 $-1 #
edge $-1 $585 21.195576008513669 $658 44.127669813894897 $443 $659 forward 7 unknown #
vertex $-1 $584 $660 #
straight-curve $-1 -73.303018280587168 -21.195576008513669 9.7275677339384288 0 0 -1 I I #
coedge $-1 $446 $657 $448 $589 forward $440 $-1 #
straight-curve $-1 0 -21.195576008513669 21.711939398589323 -1 0 0 I I #
edge $-1 $596 -44.127669813894897 $449 -21.195576008513669 $448 $661 forward 7 unknown #
point $-1 73.303018280587168 -21.195576008513669 21.711939398589323 #
straight-curve $-1 -73.303018280587168 -16.330811455602142 17.198331537164393 0 -1 0 I I #
coedge $-1 $453 $452 $657 $662 reversed $300 $-1 #
edge $-1 $658 -21.711939398589323 $454 -17.198331537164393 $582 $663 forward 7 unknown #
point $-1 -73.303018280587168 -44.127669813894897 17.198331537164393 #
point $-1 -73.303018280587168 -21.195576008513669 17.198331537164393 #
vertex $-1 $589 $664 #
straight-curve $-1 73.303018280587168 -44.127669813894897 0 0 0 -1 I I #
coedge $-1 $472 $471 $464 $599 forward $461 $-1 #
edge $-1 $600 25.761465337835538 $603 30.215956430953831 $598 $665 forward 7 unknown #
vertex $-1 $476 $666 #
straight-curve $-1 -98.815994816564114 11.466046902690611 21.711939398589323 -1 0 0 I I #
edge $-1 $603 -7.8647458170761162 $473 0.66214364584712726 $472 $667 forward 7 unknown #
vertex $-1 $602 $668 #
straight-curve $-1 -73.303018280587168 11.466046902690611 17.25744830547103 0.52991925155115449 0 0.84804810408105047 I I #
point $-1 -70.519543410769018 11.466046902690611 21.711939398589323 #
point $-1 -73.303018280587168 2.9391574397673672 17.25744830547103 #
straight-curve $-1 -73.303018280587168 0 21.711939398589323 0 -1 0 I I #
vertex $-1 $479 $669 #
point $-1 -69.776134153121689 5.3754115720311546 19.329684558761535 #
vertex $-1 $483 $670 #
point $-1 -69.776134153121689 9.0297927704268304 19.329684558761535 #
straight-curve $-1 -73.303018280587168 19.992936365613854 17.25744830547103 0.52991925155115449 0 0.84804810408105047 I I #
coedge $-1 $491 $497 $493 $615 reversed $487 $-1 #
straight-curve $-1 -73.303018280587168 19.992936365613854 47.473404736424861 0 0 -1 I I #
edge $-1 $495 -19.992936365613854 $619 -11.466046902690611 $613 $671 forward 7 unknown #
point $-1 -70.519543410769018 19.992936365613854 21.711939398589323 #
point $-1 -73.303018280587168 19.992936365613854 21.711939398589323 #
point $-1 -73.303018280587168 19.992936365613854 17.25744830547103 #
vertex $-1 $502 $672 #
straight-curve $-1 -98.815994816564114 11.466046902690611 21.711939398589323 1 0 0 I I #
straight-curve $-1 -73.303018280587168 11.466046902690611 47.473404736424861 0 0 1 I I #
vertex $-1 $505 $673 #
point $-1 -69.776134153121689 13.902301034954398 19.329684558761535 #
vertex $-1 $509 $674 #
point $-1 -69.776134153121689 17.556682233350074 19.329684558761535 #
edge $-1 $627 87.925951014106062 $630 92.380442107224354 $514 $675 forward 7 unknown #
vertex $-1 $528 $676 #
straight-curve $-1 59.971314232874775 2.9391574397673672 21.711939398589323 1 0 0 I I #
edge $-1 $630 -0.66214364584712726 $525 7.8647458170761162 $524 $677 forward 7 unknown #
vertex $-1 $629 $678 #
straight-curve $-1 -4.3863428867915104 2.9391574397673672 141.58641965801206 -0.52991925155115449 0 0.84804810408105047 I I #
point $-1 70.519543410769018 2.9391574397673672 21.711939398589323 #
point $-1 73.303018280587168 11.466046902690611 17.25744830547103 #
straight-curve $-1 73.303018280587168 0 21.711939398589323 0 1 0 I I #
vertex $-1 $531 $679 #
point $-1 70.835972656224001 5.3754115720311546 17.633588350599435 #
vertex $-1 $535 $680 #
point $-1 70.835972656224001 9.0297927704268304 17.633588350599435 #
coedge $-1 $552 $544 $541 $640 forward $539 $-1 #
edge $-1 $547 10.548229177894243 $647 13.331704047712392 $639 $681 forward 7 unknown #
edge $-1 $647 87.925951014106062 $548 92.380442107224354 $542 $682 forward 7 unknown #
straight-curve $-1 73.303018280587168 3.6013010856144945 17.25744830547103 0 1 0 I I #
straight-curve $-1 70.519543410769018 3.6013010856144945 21.711939398589337 0 -1 0 I I #
point $-1 70.519543410769018 11.466046902690611 21.711939398589323 #
point $-1 73.303018280587168 11.466046902690611 17.25744830547103 #
point $-1 70.519543410769018 19.992936365613854 21.711939398589323 #
vertex $-1 $554 $683 #
straight-curve $-1 73.303018280587168 0 21.711939398589323 0 1 0 I I #
vertex $-1 $557 $684 #
point $-1 70.835972656224001 13.902301034954398 17.633588350599435 #
vertex $-1 $561 $685 #
point $-1 70.835972656224001 17.556682233350074 17.633588350599435 #
straight-curve $-1 -73.303018280587168 44.127669813894897 0 0 0 -1 I I #
point $-1 -73.303018280587168 -44.127669813894897 -21.711939398589323 #
straight-curve $-1 -73.303018280587168 0 -21.711939398589323 0 1 0 I I #
point $-1 -73.303018280587168 44.127669813894897 -21.711939398589323 #
coedge $-1 $587 $583 $592 $662 forward $440 $-1 #
vertex $-1 $584 $686 #
straight-curve $-1 -73.303018280587168 0 21.711939398589323 0 -1 0 I I #
point $-1 -73.303018280587168 -21.195576008513669 21.711939398589323 #
straight-curve $-1 73.303018280587168 0 21.711939398589323 0 1 0 I I #
edge $-1 $658 -73.303018280587168 $596 73.303018280587168 $592 $687 forward 7 unknown #
straight-curve $-1 -73.303018280587168 -44.127669813894897 0 0 0 -1 I I #
point $-1 73.303018280587168 -44.127669813894897 21.711939398589323 #
straight-curve $-1 -73.303018280587168 11.466046902690611 47.473404736424861 0 0 -1 I I #
point $-1 -73.303018280587168 11.466046902690611 21.711939398589323 #
straight-curve $-1 -73.303018280587168 3.6013010856144945 17.257448305471023 0 -1 0 I I #
point $-1 -73.303018280587168 11.466046902690611 17.25744830547103 #
point $-1 -69.458005300591793 5.3754115720311546 17.951717203129331 #
point $-1 -69.458005300591793 9.0297927704268304 17.951717203129331 #
straight-curve $-1 -73.303018280587168 0 21.711939398589323 0 -1 0 I I #
point $-1 -73.303018280587168 11.466046902690611 21.711939398589323 #
point $-1 -69.458005300591793 13.902301034954398 17.951717203129331 #
point $-1 -69.458005300591793 17.556682233350074 17.951717203129331 #
straight-curve $-1 73.303018280587168 2.9391574397673672 109.63789041269538 0 0 -1 I I #
point $-1 73.303018280587168 2.9391574397673672 21.711939398589323 #
straight-curve $-1 73.303018280587168 3.6013010856144945 17.25744830547103 0 1 0 I I #
point $-1 73.303018280587168 2.9391574397673672 17.25744830547103 #
point $-1 69.458005300591793 5.3754115720311546 17.951717203129331 #
point $-1 69.458005300591793 9.0297927704268304 17.951717203129331 #
straight-curve $-1 59.971314232874775 11.466046902690611 21.711939398589323 1 0 0 I I #
straight-curve $-1 73.303018280587168 11.466046902690611 109.63789041269538 0 0 -1 I I #
point $-1 73.303018280587168 11.466046902690611 21.711939398589323 #
point $-1 69.458005300591793 13.902301034954398 17.951717203129331 #
point $-1 69.458005300591793 17.556682233350074 17.951717203129331 #
point $-1 -73.303018280587168 -44.127669813894897 21.711939398589323 #
straight-curve $-1 0 -44.127669813894897 21.711939398589323 1 0 0 I I #
End-of-ACIS-data 