500 0 11 0           
7 Unknown 11 ACIS 5.0 NT 24 Thu Mar 25 21:35:18 1999 
-1 9.9999999999999995e-007 1e-010 
body $-1 $11 $-1 $12 #
body $-1 $13 $-1 $14 #
body $-1 $15 $-1 $16 #
body $-1 $17 $-1 $18 #
body $-1 $19 $-1 $20 #
body $-1 $21 $-1 $22 #
body $-1 $23 $-1 $24 #
body $-1 $25 $-1 $26 #
body $-1 $27 $-1 $28 #
body $-1 $29 $-1 $30 #
body $-1 $31 $-1 $32 #
lump $-1 $-1 $33 $0 #
transform $-1 1 0 0 0 1 0 0 0 1 60.90029602954192 30.652919775897189 9.1096245456010401 1 rotate no_reflect no_shear #
lump $-1 $-1 $34 $1 #
transform $-1 1 0 0 0 1 0 0 0 1 60.90029602954192 30.652919775897189 9.1096245456010401 1 rotate no_reflect no_shear #
lump $-1 $-1 $35 $2 #
transform $-1 1 0 0 0 1 0 0 0 1 60.90029602954192 30.652919775897189 9.1096245456010401 1 rotate no_reflect no_shear #
lump $-1 $-1 $36 $3 #
transform $-1 1 0 0 0 1 0 0 0 1 60.90029602954192 30.652919775897189 9.1096245456010401 1 rotate no_reflect no_shear #
lump $-1 $-1 $37 $4 #
transform $-1 1 0 0 0 1 0 0 0 1 60.90029602954192 30.652919775897189 9.1096245456010401 1 rotate no_reflect no_shear #
lump $-1 $-1 $38 $5 #
transform $-1 1 0 0 0 1 0 0 0 1 60.90029602954192 30.652919775897189 9.1096245456010401 1 rotate no_reflect no_shear #
lump $-1 $-1 $39 $6 #
transform $-1 1 0 0 0 1 0 0 0 1 60.90029602954192 30.652919775897189 9.1096245456010401 1 rotate no_reflect no_shear #
lump $-1 $-1 $40 $7 #
transform $-1 1 0 0 0 1 0 0 0 1 60.90029602954192 30.652919775897189 9.1096245456010401 1 rotate no_reflect no_shear #
lump $-1 $-1 $41 $8 #
transform $-1 1 0 0 0 1 0 0 0 1 60.90029602954192 30.652919775897189 9.1096245456010401 1 rotate no_reflect no_shear #
lump $-1 $-1 $42 $9 #
transform $-1 1 0 0 0 1 0 0 0 1 60.90029602954192 30.652919775897189 9.1096245456010401 1 rotate no_reflect no_shear #
lump $-1 $-1 $43 $10 #
transform $-1 1 0 0 0 1 0 0 0 1 60.90029602954192 30.652919775897189 9.1096245456010401 1 rotate no_reflect no_shear #
shell $-1 $-1 $-1 $44 $-1 $11 #
shell $-1 $-1 $-1 $45 $-1 $13 #
shell $-1 $-1 $-1 $46 $-1 $15 #
shell $-1 $-1 $-1 $47 $-1 $17 #
shell $-1 $-1 $-1 $48 $-1 $19 #
shell $-1 $-1 $-1 $49 $-1 $21 #
shell $-1 $-1 $-1 $50 $-1 $23 #
shell $-1 $-1 $-1 $51 $-1 $25 #
shell $-1 $-1 $-1 $52 $-1 $27 #
shell $-1 $-1 $-1 $53 $-1 $29 #
shell $-1 $-1 $-1 $54 $-1 $31 #
face $-1 $55 $56 $33 $-1 $57 forward single #
face $-1 $58 $59 $34 $-1 $60 reversed single #
face $-1 $61 $62 $35 $-1 $63 reversed single #
face $-1 $64 $65 $36 $-1 $66 reversed single #
face $-1 $67 $68 $37 $-1 $69 forward single #
face $-1 $70 $71 $38 $-1 $72 forward single #
face $-1 $73 $74 $39 $-1 $75 reversed single #
face $-1 $76 $77 $40 $-1 $78 forward single #
face $-1 $79 $80 $41 $-1 $81 forward single #
face $-1 $82 $83 $42 $-1 $84 reversed single #
face $-1 $85 $86 $43 $-1 $87 forward single #
face $-1 $88 $89 $33 $-1 $90 reversed single #
loop $-1 $-1 $91 $44 #
plane-surface $-1 0 0 9.1096245456010401 0 0 1 1 0 0 forward_v I I I I #
face $-1 $92 $93 $34 $-1 $94 reversed single #
loop $-1 $-1 $95 $45 #
plane-surface $-1 -55.276021007801646 -26.217235714949751 0 0 -1 0 0 0 -1 forward_v I I I I #
face $-1 $96 $97 $35 $-1 $98 reversed single #
loop $-1 $-1 $99 $46 #
plane-surface $-1 49.651745986061371 -28.43507774542347 0 1 0 0 0 0 -1 forward_v I I I I #
face $-1 $100 $101 $36 $-1 $102 reversed single #
loop $-1 $-1 $103 $47 #
plane-surface $-1 -19.704738815595661 -96.990277568367603 103.71568814459287 -1 0 0 0 -0.54463904215088732 0.83867056331134215 forward_v I I I I #
face $-1 $104 $105 $37 $-1 $106 forward single #
loop $-1 $107 $108 $48 #
cone-surface $-1 -35.060977925960216 -23.388773633538989 3.0962747104465187 0 0.54463904215088732 -0.83867056331134215 2.5 0 0 1 I I 0 1 2.5 forward I I I I #
face $-1 $109 $110 $38 $-1 $111 forward single #
loop $-1 $112 $113 $49 #
cone-surface $-1 -25.847234459741486 -23.388773633538989 3.0962747104465187 0 0.54463904215088732 -0.83867056331134215 2.5 0 0 1 I I 0 1 2.5 forward I I I I #
face $-1 $114 $115 $39 $-1 $116 reversed single #
loop $-1 $-1 $117 $50 #
plane-surface $-1 41.203473570106048 -96.990277568367603 103.71568814459287 -1 0 0 0 -0.54463904215088732 0.83867056331134215 forward_v I I I I #
face $-1 $118 $119 $40 $-1 $120 forward single #
loop $-1 $121 $122 $51 #
cone-surface $-1 25.847234459741486 -23.388773633538989 3.0962747104465187 0 0.54463904215088732 -0.83867056331134215 2.5 0 0 1 I I 0 1 2.5 forward I I I I #
face $-1 $123 $124 $41 $-1 $125 forward single #
loop $-1 $126 $127 $52 #
cone-surface $-1 35.060977925960231 -23.388773633538989 3.0962747104465187 0 0.54463904215088732 -0.83867056331134215 2.5 0 0 1 I I 0 1 2.5 forward I I I I #
face $-1 $128 $129 $42 $-1 $130 reversed single #
loop $-1 $-1 $131 $53 #
plane-surface $-1 29.784683343059243 66.594307785218049 134.92929848530179 1 0 0 0 -0.66913061440640931 -0.74314481823134659 forward_v I I I I #
face $-1 $132 $133 $43 $-1 $134 forward single #
loop $-1 $135 $136 $54 #
cone-surface $-1 39.718214664560307 26.276978523514313 4.9170441497502164 0 -0.66913061440640931 -0.74314481823134659 1.5 0 0 1 I I 0 1 1.5 forward I I I I #
face $-1 $137 $138 $33 $-1 $139 reversed single #
loop $-1 $-1 $140 $55 #
plane-surface $-1 0 0 -9.1096245456010401 0 0 1 1 0 0 forward_v I I I I #
coedge $-1 $141 $142 $143 $144 forward $56 $-1 #
face $-1 $145 $146 $34 $-1 $147 forward single #
loop $-1 $-1 $148 $58 #
plane-surface $-1 -49.651745986061371 -28.43507774542347 0 -1 0 0 0 0 1 forward_v I I I I #
coedge $-1 $149 $150 $151 $152 forward $59 $-1 #
face $-1 $153 $154 $35 $-1 $155 forward single #
loop $-1 $-1 $156 $61 #
plane-surface $-1 55.276021007801646 -26.217235714949751 0 0 -1 0 0 0 -1 forward_v I I I I #
coedge $-1 $157 $158 $159 $160 forward $62 $-1 #
face $-1 $161 $162 $36 $-1 $163 reversed single #
loop $-1 $-1 $164 $64 #
plane-surface $-1 -30.454106192850851 -30.652919775897203 1.5651169907460485 0 -0.54463904215088732 0.83867056331134215 1 0 0 forward_v I I I I #
coedge $-1 $165 $166 $167 $168 reversed $65 $-1 #
face $-1 $-1 $169 $37 $-1 $170 forward single #
loop $-1 $171 $172 $67 #
cone-surface $-1 -35.060977925960216 -21.252590006767257 -0.193159551419674 0 0.54463904215088732 -0.83867056331134215 1.25 0 0 1 I I -0.70710678118654746 0.70710678118654746 1.25 forward I I I I #
loop $-1 $-1 $173 $48 #
coedge $-1 $108 $108 $174 $175 reversed $68 $-1 #
face $-1 $-1 $176 $38 $-1 $177 forward single #
loop $-1 $178 $179 $70 #
cone-surface $-1 -25.847234459741486 -21.252590006767257 -0.193159551419674 0 0.54463904215088732 -0.83867056331134215 1.25 0 0 1 I I -0.70710678118654746 0.70710678118654746 1.25 forward I I I I #
loop $-1 $-1 $180 $49 #
coedge $-1 $113 $113 $181 $182 reversed $71 $-1 #
face $-1 $183 $184 $39 $-1 $185 reversed single #
loop $-1 $-1 $186 $73 #
plane-surface $-1 30.454106192850858 -30.652919775897203 1.5651169907460485 0 -0.54463904215088732 0.83867056331134215 1 0 0 forward_v I I I I #
coedge $-1 $187 $188 $189 $190 reversed $74 $-1 #
face $-1 $-1 $191 $40 $-1 $192 forward single #
loop $-1 $193 $194 $76 #
cone-surface $-1 25.847234459741486 -21.252590006767257 -0.193159551419674 0 0.54463904215088732 -0.83867056331134215 1.25 0 0 1 I I -0.70710678118654746 0.70710678118654746 1.25 forward I I I I #
loop $-1 $-1 $195 $51 #
coedge $-1 $122 $122 $196 $197 reversed $77 $-1 #
face $-1 $-1 $198 $41 $-1 $199 forward single #
loop $-1 $200 $201 $79 #
cone-surface $-1 35.060977925960231 -21.252590006767257 -0.193159551419674 0 0.54463904215088732 -0.83867056331134215 1.25 0 0 1 I I -0.70710678118654746 0.70710678118654746 1.25 forward I I I I #
loop $-1 $-1 $202 $52 #
coedge $-1 $127 $127 $203 $204 reversed $80 $-1 #
face $-1 $205 $206 $42 $-1 $207 reversed single #
loop $-1 $-1 $208 $82 #
plane-surface $-1 39.718214664560307 -14.906197214341134 44.413819639083528 0 0.66913061440640931 0.74314481823134659 1 0 0 forward_v I I I I #
coedge $-1 $209 $210 $211 $212 reversed $83 $-1 #
face $-1 $-1 $213 $43 $-1 $214 forward single #
loop $-1 $215 $216 $85 #
cone-surface $-1 39.718214664560307 24.574107783987273 3.0258146364810976 0 -0.66913061440640931 -0.74314481823134659 0.75 0 0 1 I I -0.70710678118654768 0.70710678118654735 0.75 forward I I I I #
loop $-1 $-1 $217 $54 #
coedge $-1 $136 $136 $218 $219 reversed $86 $-1 #
face $-1 $220 $221 $33 $-1 $222 reversed single #
loop $-1 $-1 $223 $88 #
plane-surface $-1 0 -30.652919775897189 0 0 1 0 0 0 1 forward_v I I I I #
coedge $-1 $224 $225 $226 $227 forward $89 $-1 #
coedge $-1 $228 $91 $229 $230 forward $56 $-1 #
coedge $-1 $91 $228 $231 $232 forward $56 $-1 #
coedge $-1 $233 $234 $91 $144 reversed $235 $-1 #
edge $-1 $236 -30.652919775897189 $237 30.652919775897189 $143 $238 forward 7 unknown #
face $-1 $239 $240 $34 $-1 $241 reversed single #
loop $-1 $-1 $242 $92 #
plane-surface $-1 0 0 9.1096245456010401 0 0 1 1 0 0 forward_v I I I I #
coedge $-1 $243 $244 $245 $246 reversed $93 $-1 #
coedge $-1 $247 $95 $248 $249 reversed $59 $-1 #
coedge $-1 $95 $247 $250 $251 reversed $59 $-1 #
coedge $-1 $244 $243 $95 $152 reversed $93 $-1 #
edge $-1 $252 -9.1096245456010401 $253 9.1096245456010401 $151 $254 forward 7 unknown #
face $-1 $255 $256 $35 $-1 $257 reversed single #
loop $-1 $-1 $258 $96 #
plane-surface $-1 0 0 9.1096245456010401 0 0 1 1 0 0 forward_v I I I I #
coedge $-1 $259 $260 $261 $262 reversed $97 $-1 #
coedge $-1 $263 $99 $264 $265 reversed $62 $-1 #
coedge $-1 $99 $263 $266 $267 reversed $62 $-1 #
coedge $-1 $260 $259 $99 $160 reversed $97 $-1 #
edge $-1 $268 -9.1096245456010401 $269 9.1096245456010401 $159 $270 forward 7 unknown #
face $-1 $271 $272 $36 $-1 $273 forward single #
loop $-1 $-1 $274 $100 #
plane-surface $-1 -41.203473570106041 -96.990277568367603 103.71568814459287 1 0 0 0 0.54463904215088732 -0.83867056331134215 forward_v I I I I #
coedge $-1 $275 $276 $277 $278 reversed $101 $-1 #
coedge $-1 $166 $103 $279 $280 reversed $65 $-1 #
coedge $-1 $103 $165 $275 $281 reversed $65 $-1 #
coedge $-1 $277 $282 $103 $168 forward $272 $-1 #
edge $-1 $283 17.842219008286612 $284 29.459741644836726 $167 $285 forward 7 unknown #
loop $-1 $-1 $174 $104 #
plane-surface $-1 -30.454106192850851 -30.652919775897203 1.5651169907460485 0 -0.54463904215088732 0.83867056331134215 1 0 0 forward_v I I I I #
loop $-1 $-1 $286 $67 #
coedge $-1 $172 $172 $173 $287 reversed $105 $-1 #
coedge $-1 $173 $173 $172 $287 forward $107 $-1 #
coedge $-1 $174 $174 $108 $175 forward $169 $-1 #
edge $-1 $288 3.1691308901964493e-016 $288 6.2831853071796004 $174 $289 forward 7 unknown #
loop $-1 $-1 $181 $109 #
plane-surface $-1 -30.454106192850851 -30.652919775897203 1.5651169907460485 0 -0.54463904215088732 0.83867056331134215 1 0 0 forward_v I I I I #
loop $-1 $-1 $290 $70 #
coedge $-1 $179 $179 $180 $291 reversed $110 $-1 #
coedge $-1 $180 $180 $179 $291 forward $112 $-1 #
coedge $-1 $181 $181 $113 $182 forward $176 $-1 #
edge $-1 $292 3.1691308901964493e-016 $292 6.2831853071796004 $181 $293 forward 7 unknown #
face $-1 $294 $295 $39 $-1 $296 reversed single #
loop $-1 $-1 $297 $114 #
plane-surface $-1 19.704738815595668 -96.990277568367603 103.71568814459287 1 0 0 0 0.54463904215088732 -0.83867056331134215 forward_v I I I I #
coedge $-1 $298 $299 $300 $301 reversed $115 $-1 #
coedge $-1 $188 $117 $302 $303 reversed $74 $-1 #
coedge $-1 $117 $187 $298 $304 reversed $74 $-1 #
coedge $-1 $300 $305 $117 $190 forward $306 $-1 #
edge $-1 $307 17.842219008286612 $308 29.459741644836726 $189 $309 forward 7 unknown #
loop $-1 $-1 $196 $118 #
plane-surface $-1 30.454106192850858 -30.652919775897203 1.5651169907460485 0 -0.54463904215088732 0.83867056331134215 1 0 0 forward_v I I I I #
loop $-1 $-1 $310 $76 #
coedge $-1 $194 $194 $195 $311 reversed $119 $-1 #
coedge $-1 $195 $195 $194 $311 forward $121 $-1 #
coedge $-1 $196 $196 $122 $197 forward $191 $-1 #
edge $-1 $312 3.1691308901964493e-016 $312 6.2831853071796004 $196 $313 forward 7 unknown #
loop $-1 $-1 $203 $123 #
plane-surface $-1 30.454106192850858 -30.652919775897203 1.5651169907460485 0 -0.54463904215088732 0.83867056331134215 1 0 0 forward_v I I I I #
loop $-1 $-1 $314 $79 #
coedge $-1 $201 $201 $202 $315 reversed $124 $-1 #
coedge $-1 $202 $202 $201 $315 forward $126 $-1 #
coedge $-1 $203 $203 $127 $204 forward $198 $-1 #
edge $-1 $316 3.1691308901964493e-016 $316 6.2831853071796004 $203 $317 forward 7 unknown #
face $-1 $318 $319 $42 $-1 $320 reversed single #
loop $-1 $-1 $321 $128 #
plane-surface $-1 49.651745986061371 66.594307785218049 134.92929848530179 -1 0 0 0 0.66913061440640931 0.74314481823134659 forward_v I I I I #
coedge $-1 $322 $323 $324 $325 reversed $129 $-1 #
coedge $-1 $210 $131 $326 $327 reversed $83 $-1 #
coedge $-1 $131 $209 $322 $328 reversed $83 $-1 #
coedge $-1 $324 $329 $131 $212 forward $330 $-1 #
edge $-1 $331 2.6442341167118357 $332 8.9940710640331147 $211 $333 forward 7 unknown #
loop $-1 $-1 $218 $132 #
plane-surface $-1 39.718214664560307 -14.906197214341134 44.413819639083528 0 0.66913061440640931 0.74314481823134659 1 0 0 forward_v I I I I #
loop $-1 $-1 $334 $85 #
coedge $-1 $216 $216 $217 $335 reversed $133 $-1 #
coedge $-1 $217 $217 $216 $335 forward $135 $-1 #
coedge $-1 $218 $218 $136 $219 forward $213 $-1 #
edge $-1 $336 -1.3639155929225055e-015 $336 6.2831853071795987 $218 $337 forward 7 unknown #
face $-1 $338 $339 $33 $-1 $340 reversed single #
loop $-1 $-1 $341 $137 #
plane-surface $-1 -60.90029602954192 0 0 1 0 0 0 0 -1 forward_v I I I I #
coedge $-1 $342 $231 $343 $344 forward $138 $-1 #
coedge $-1 $345 $140 $342 $346 forward $89 $-1 #
coedge $-1 $140 $345 $347 $348 forward $89 $-1 #
coedge $-1 $234 $233 $140 $227 reversed $235 $-1 #
edge $-1 $349 -30.652919775897189 $350 30.652919775897189 $226 $351 forward 7 unknown #
coedge $-1 $142 $141 $352 $353 forward $56 $-1 #
coedge $-1 $354 $355 $141 $230 reversed $339 $-1 #
edge $-1 $237 -60.90029602954192 $356 60.90029602954192 $229 $357 forward 7 unknown #
coedge $-1 $223 $358 $142 $232 reversed $138 $-1 #
edge $-1 $359 -60.90029602954192 $236 60.90029602954192 $231 $360 forward 7 unknown #
coedge $-1 $226 $143 $358 $361 forward $235 $-1 #
coedge $-1 $143 $226 $354 $362 reversed $235 $-1 #
loop $-1 $-1 $233 $338 #
vertex $-1 $144 $363 #
vertex $-1 $144 $364 #
straight-curve $-1 60.90029602954192 0 9.1096245456010401 0 1 0 I I #
face $-1 $365 $366 $34 $-1 $367 reversed single #
loop $-1 $-1 $368 $145 #
plane-surface $-1 -60.90029602954192 0 0 1 0 0 0 0 -1 forward_v I I I I #
coedge $-1 $250 $369 $244 $370 forward $146 $-1 #
coedge $-1 $151 $148 $371 $372 reversed $93 $-1 #
coedge $-1 $148 $151 $242 $370 reversed $93 $-1 #
coedge $-1 $373 $374 $148 $246 forward $375 $-1 #
edge $-1 $376 -9.1096245456010401 $377 9.1096245456010401 $245 $378 forward 7 unknown #
coedge $-1 $150 $149 $368 $379 reversed $59 $-1 #
coedge $-1 $371 $380 $149 $249 forward $366 $-1 #
edge $-1 $381 -33.262285525641097 $253 -22.013735482160548 $248 $382 forward 7 unknown #
coedge $-1 $383 $242 $150 $251 forward $146 $-1 #
edge $-1 $252 22.013735482160548 $384 33.262285525641097 $250 $385 forward 7 unknown #
vertex $-1 $251 $386 #
vertex $-1 $249 $387 #
straight-curve $-1 -49.651745986061371 -26.217235714949751 0 0 0 -1 I I #
face $-1 $388 $389 $35 $-1 $390 reversed single #
loop $-1 $-1 $391 $153 #
plane-surface $-1 0 -30.652919775897189 0 0 1 0 0 0 1 forward_v I I I I #
coedge $-1 $266 $392 $260 $393 forward $154 $-1 #
coedge $-1 $159 $156 $394 $395 reversed $97 $-1 #
coedge $-1 $156 $159 $258 $393 reversed $97 $-1 #
coedge $-1 $396 $397 $156 $262 forward $398 $-1 #
edge $-1 $399 -9.1096245456010401 $400 9.1096245456010401 $261 $401 forward 7 unknown #
coedge $-1 $158 $157 $391 $402 reversed $62 $-1 #
coedge $-1 $394 $403 $157 $265 forward $389 $-1 #
edge $-1 $404 -16.435380903185454 $269 -11.999696842238016 $264 $405 forward 7 unknown #
coedge $-1 $406 $258 $158 $267 forward $154 $-1 #
edge $-1 $268 11.999696842238016 $407 16.435380903185454 $266 $408 forward 7 unknown #
vertex $-1 $267 $409 #
vertex $-1 $265 $410 #
straight-curve $-1 49.651745986061371 -26.217235714949751 0 0 0 -1 I I #
face $-1 $-1 $411 $36 $-1 $412 reversed single #
loop $-1 $-1 $167 $161 #
plane-surface $-1 0 0 9.1096245456010401 0 0 1 1 0 0 forward_v I I I I #
coedge $-1 $413 $414 $415 $416 reversed $162 $-1 #
coedge $-1 $417 $164 $166 $281 forward $101 $-1 #
coedge $-1 $164 $417 $413 $418 forward $101 $-1 #
coedge $-1 $415 $167 $164 $278 forward $272 $-1 #
edge $-1 $284 4.4776857191702355 $419 25.976420473680616 $277 $420 forward 7 unknown #
coedge $-1 $421 $422 $165 $280 forward $411 $-1 #
edge $-1 $423 -50.292727081550382 $283 -42.748219526695394 $279 $424 forward 7 unknown #
edge $-1 $284 -13.85230762205412 $423 -1.699746028866204e-014 $166 $425 forward 7 unknown #
coedge $-1 $167 $415 $421 $426 forward $272 $-1 #
vertex $-1 $280 $427 #
vertex $-1 $168 $428 #
straight-curve $-1 -19.704738815595661 -48.495138784183801 9.1096245456010436 0 1 0 I I #
coedge $-1 $286 $286 $-1 $429 reversed $171 $-1 #
edge $-1 $430 0 $430 6.2831853071796004 $172 $431 forward 7 unknown #
vertex $-1 $175 $432 #
ellipse-curve $-1 -35.060977925960216 -24.844158457622125 5.337370768173554 0 -0.54463904215088732 0.83867056331134215 2.5 0 0 1 I I #
coedge $-1 $290 $290 $-1 $433 reversed $178 $-1 #
edge $-1 $434 0 $434 6.2831853071796004 $179 $435 forward 7 unknown #
vertex $-1 $182 $436 #
ellipse-curve $-1 -25.847234459741486 -24.844158457622125 5.337370768173554 0 -0.54463904215088732 0.83867056331134215 2.5 0 0 1 I I #
face $-1 $-1 $306 $39 $-1 $437 forward single #
loop $-1 $-1 $438 $183 #
plane-surface $-1 0 -30.652919775897189 0 0 1 0 0 0 1 forward_v I I I I #
coedge $-1 $439 $440 $441 $442 reversed $184 $-1 #
coedge $-1 $443 $186 $188 $304 forward $115 $-1 #
coedge $-1 $186 $443 $439 $444 forward $115 $-1 #
coedge $-1 $441 $189 $186 $301 forward $306 $-1 #
edge $-1 $308 -25.976420473680619 $445 -4.4776857191702391 $300 $446 forward 7 unknown #
coedge $-1 $447 $448 $187 $303 forward $295 $-1 #
edge $-1 $449 -50.292727081550382 $307 -42.748219526695394 $302 $450 forward 7 unknown #
edge $-1 $308 -13.85230762205412 $449 -1.699746028866204e-014 $188 $451 forward 7 unknown #
coedge $-1 $189 $441 $447 $452 forward $306 $-1 #
loop $-1 $-1 $441 $294 #
vertex $-1 $303 $453 #
vertex $-1 $190 $454 #
straight-curve $-1 41.203473570106048 -48.495138784183801 9.1096245456010436 0 1 0 I I #
coedge $-1 $310 $310 $-1 $455 reversed $193 $-1 #
edge $-1 $456 0 $456 6.2831853071796004 $194 $457 forward 7 unknown #
vertex $-1 $197 $458 #
ellipse-curve $-1 25.847234459741486 -24.844158457622125 5.337370768173554 0 -0.54463904215088732 0.83867056331134215 2.5 0 0 1 I I #
coedge $-1 $314 $314 $-1 $459 reversed $200 $-1 #
edge $-1 $460 0 $460 6.2831853071796004 $201 $461 forward 7 unknown #
vertex $-1 $204 $462 #
ellipse-curve $-1 35.060977925960231 -24.844158457622125 5.337370768173554 0 -0.54463904215088732 0.83867056331134215 2.5 0 0 1 I I #
face $-1 $-1 $330 $42 $-1 $463 forward single #
loop $-1 $-1 $464 $205 #
plane-surface $-1 0 30.652919775897189 0 0 -1 0 0 0 -1 forward_v I I I I #
coedge $-1 $465 $466 $467 $468 reversed $206 $-1 #
coedge $-1 $469 $208 $210 $328 forward $129 $-1 #
coedge $-1 $208 $469 $465 $470 forward $129 $-1 #
coedge $-1 $467 $211 $208 $325 forward $330 $-1 #
edge $-1 $332 9.9255760107790891 $471 29.792638653781218 $324 $472 forward 7 unknown #
coedge $-1 $473 $474 $209 $327 forward $319 $-1 #
edge $-1 $475 -64.072443689560274 $331 -58.355024697049856 $326 $476 forward 7 unknown #
edge $-1 $332 52.761291044501235 $475 61.305839551794364 $210 $477 forward 7 unknown #
coedge $-1 $211 $467 $473 $478 forward $330 $-1 #
loop $-1 $-1 $467 $318 #
vertex $-1 $327 $479 #
vertex $-1 $212 $480 #
straight-curve $-1 29.784683343059243 33.297153892609025 9.1096245456010365 0 -1 0 I I #
coedge $-1 $334 $334 $-1 $481 reversed $215 $-1 #
edge $-1 $482 0 $482 6.2831853071796004 $216 $483 forward 7 unknown #
vertex $-1 $219 $484 #
ellipse-curve $-1 39.718214664560307 27.478001302236546 6.2509150493458261 0 0.66913061440640931 0.74314481823134659 1.5 0 0 1 I I #
face $-1 $-1 $235 $33 $-1 $485 reversed single #
loop $-1 $-1 $354 $220 #
plane-surface $-1 0 30.652919775897189 0 0 -1 0 0 0 -1 forward_v I I I I #
coedge $-1 $486 $352 $355 $487 forward $221 $-1 #
coedge $-1 $358 $223 $224 $346 reversed $138 $-1 #
coedge $-1 $352 $486 $223 $344 reversed $221 $-1 #
edge $-1 $359 -9.1096245456010401 $488 9.1096245456010401 $343 $489 forward 7 unknown #
coedge $-1 $225 $224 $486 $490 forward $89 $-1 #
edge $-1 $350 -60.90029602954192 $488 60.90029602954192 $342 $491 forward 7 unknown #
coedge $-1 $355 $354 $225 $348 reversed $339 $-1 #
edge $-1 $492 -60.90029602954192 $349 60.90029602954192 $347 $493 forward 7 unknown #
vertex $-1 $227 $494 #
vertex $-1 $361 $495 #
straight-curve $-1 60.90029602954192 0 -9.1096245456010401 0 -1 0 I I #
coedge $-1 $341 $343 $228 $353 reversed $221 $-1 #
edge $-1 $356 -30.652919775897189 $359 30.652919775897189 $352 $496 forward 7 unknown #
coedge $-1 $347 $229 $234 $362 forward $339 $-1 #
coedge $-1 $229 $347 $341 $487 reversed $339 $-1 #
vertex $-1 $230 $497 #
straight-curve $-1 0 30.652919775897189 9.1096245456010401 -1 0 0 I I #
coedge $-1 $231 $342 $233 $361 reversed $138 $-1 #
vertex $-1 $353 $498 #
straight-curve $-1 0 -30.652919775897189 9.1096245456010401 1 0 0 I I #
edge $-1 $236 -9.1096245456010401 $350 9.1096245456010401 $233 $499 forward 7 unknown #
edge $-1 $237 -9.1096245456010401 $349 9.1096245456010401 $234 $500 forward 7 unknown #
point $-1 60.90029602954192 -30.652919775897189 9.1096245456010401 #
point $-1 60.90029602954192 30.652919775897189 9.1096245456010401 #
face $-1 $-1 $375 $34 $-1 $501 reversed single #
loop $-1 $-1 $371 $239 #
plane-surface $-1 0 0 -9.1096245456010401 0 0 1 1 0 0 forward_v I I I I #
coedge $-1 $502 $503 $247 $379 forward $240 $-1 #
coedge $-1 $242 $383 $373 $504 forward $146 $-1 #
edge $-1 $377 -16.435380903185454 $252 -11.999696842238016 $242 $505 forward 7 unknown #
coedge $-1 $506 $248 $243 $372 forward $366 $-1 #
edge $-1 $253 11.999696842238016 $376 16.435380903185454 $371 $507 forward 7 unknown #
coedge $-1 $508 $245 $369 $504 reversed $375 $-1 #
coedge $-1 $245 $508 $506 $509 reversed $375 $-1 #
loop $-1 $-1 $245 $365 #
vertex $-1 $509 $510 #
vertex $-1 $246 $511 #
straight-curve $-1 -49.651745986061371 -30.652919775897189 0 0 0 1 I I #
edge $-1 $384 -9.1096245456010401 $381 9.1096245456010401 $368 $512 forward 7 unknown #
coedge $-1 $248 $506 $502 $513 forward $366 $-1 #
vertex $-1 $249 $514 #
straight-curve $-1 -27.638010503900823 -26.217235714949751 -9.1096245456010401 1 0 0 I I #
coedge $-1 $369 $250 $503 $515 forward $146 $-1 #
vertex $-1 $515 $516 #
straight-curve $-1 -27.638010503900823 -26.217235714949751 9.1096245456010401 -1 0 0 I I #
point $-1 -49.651745986061371 -26.217235714949751 9.1096245456010401 #
point $-1 -49.651745986061371 -26.217235714949751 -9.1096245456010401 #
face $-1 $-1 $398 $35 $-1 $517 reversed single #
loop $-1 $-1 $394 $255 #
plane-surface $-1 0 0 -9.1096245456010401 0 0 1 1 0 0 forward_v I I I I #
coedge $-1 $518 $519 $263 $402 forward $256 $-1 #
coedge $-1 $258 $406 $396 $520 forward $154 $-1 #
edge $-1 $400 -33.262285525641097 $268 -22.013735482160548 $258 $521 forward 7 unknown #
coedge $-1 $522 $264 $259 $395 forward $389 $-1 #
edge $-1 $269 22.013735482160548 $399 33.262285525641097 $394 $523 forward 7 unknown #
coedge $-1 $524 $261 $392 $520 reversed $398 $-1 #
coedge $-1 $261 $524 $522 $525 reversed $398 $-1 #
loop $-1 $-1 $261 $388 #
vertex $-1 $525 $526 #
vertex $-1 $262 $527 #
straight-curve $-1 60.90029602954192 -26.217235714949751 0 0 0 1 I I #
edge $-1 $407 -9.1096245456010401 $404 9.1096245456010401 $391 $528 forward 7 unknown #
coedge $-1 $264 $522 $518 $529 forward $389 $-1 #
vertex $-1 $265 $530 #
straight-curve $-1 49.651745986061371 -14.217538872711735 -9.1096245456010401 0 1 0 I I #
coedge $-1 $392 $266 $519 $531 forward $154 $-1 #
vertex $-1 $531 $532 #
straight-curve $-1 49.651745986061371 -14.217538872711735 9.1096245456010401 0 -1 0 I I #
point $-1 49.651745986061371 -26.217235714949751 9.1096245456010401 #
point $-1 49.651745986061371 -26.217235714949751 -9.1096245456010401 #
loop $-1 $-1 $279 $271 #
plane-surface $-1 0 -30.652919775897189 0 0 1 0 0 0 1 forward_v I I I I #
coedge $-1 $414 $274 $276 $418 reversed $162 $-1 #
coedge $-1 $274 $413 $533 $534 reversed $162 $-1 #
coedge $-1 $282 $277 $274 $416 forward $272 $-1 #
edge $-1 $419 -29.459741644836726 $535 -17.842219008286612 $415 $536 forward 7 unknown #
coedge $-1 $276 $275 $422 $537 reversed $101 $-1 #
edge $-1 $538 1.699746028866204e-014 $419 13.85230762205412 $413 $539 forward 7 unknown #
vertex $-1 $278 $540 #
straight-curve $-1 -15.227053096425426 -19.035397139347072 9.1096245456010401 -1 0 0 I I #
coedge $-1 $533 $279 $282 $426 reversed $411 $-1 #
coedge $-1 $279 $533 $417 $537 forward $411 $-1 #
vertex $-1 $280 $541 #
straight-curve $-1 -19.704738815595661 -30.652919775897189 51.857844072296437 0 0 1 I I #
straight-curve $-1 -19.704738815595661 -30.652919775897203 1.5651169907460485 0 -0.83867056331134215 -0.54463904215088732 I I #
edge $-1 $535 -41.203473570106041 $283 -19.704738815595661 $421 $542 forward 7 unknown #
point $-1 -19.704738815595661 -30.652919775897189 9.1096245456010401 #
point $-1 -19.704738815595661 -19.035397139347076 9.1096245456010401 #
edge $-1 $543 1 $543 0 $286 $-1 forward 7 unknown #
vertex $-1 $287 $544 #
ellipse-curve $-1 -35.060977925960216 -21.933388809455867 0.85517865271950377 0 -0.54463904215088732 0.83867056331134215 2.5 0 0 1 I I #
point $-1 -32.560977925960216 -24.844158457622111 5.3373707681735336 #
edge $-1 $545 1 $545 0 $290 $-1 forward 7 unknown #
vertex $-1 $291 $546 #
ellipse-curve $-1 -25.847234459741486 -21.933388809455867 0.85517865271950377 0 -0.54463904215088732 0.83867056331134215 2.5 0 0 1 I I #
point $-1 -23.347234459741486 -24.844158457622111 5.3373707681735336 #
plane-surface $-1 0 0 9.1096245456010401 0 0 1 1 0 0 forward_v I I I I #
coedge $-1 $448 $447 $440 $547 forward $295 $-1 #
coedge $-1 $440 $297 $299 $444 reversed $184 $-1 #
coedge $-1 $297 $439 $438 $547 reversed $184 $-1 #
coedge $-1 $305 $300 $297 $442 forward $306 $-1 #
edge $-1 $445 -29.459741644836726 $548 -17.842219008286612 $441 $549 forward 7 unknown #
coedge $-1 $299 $298 $448 $550 reversed $115 $-1 #
edge $-1 $551 1.699746028866204e-014 $445 13.85230762205412 $439 $552 forward 7 unknown #
vertex $-1 $301 $553 #
straight-curve $-1 15.227053096425429 -19.035397139347072 9.1096245456010401 -1 0 0 I I #
coedge $-1 $438 $302 $305 $452 reversed $295 $-1 #
coedge $-1 $302 $438 $443 $550 forward $295 $-1 #
vertex $-1 $303 $554 #
straight-curve $-1 41.203473570106048 -30.652919775897189 51.857844072296437 0 0 1 I I #
straight-curve $-1 41.203473570106048 -30.652919775897203 1.5651169907460485 0 -0.83867056331134215 -0.54463904215088732 I I #
edge $-1 $548 19.704738815595668 $307 41.203473570106048 $447 $555 forward 7 unknown #
point $-1 41.203473570106048 -30.652919775897189 9.1096245456010401 #
point $-1 41.203473570106048 -19.035397139347076 9.1096245456010401 #
edge $-1 $556 1 $556 0 $310 $-1 forward 7 unknown #
vertex $-1 $311 $557 #
ellipse-curve $-1 25.847234459741486 -21.933388809455867 0.85517865271950377 0 -0.54463904215088732 0.83867056331134215 2.5 0 0 1 I I #
point $-1 28.347234459741486 -24.844158457622111 5.3373707681735336 #
edge $-1 $558 1 $558 0 $314 $-1 forward 7 unknown #
vertex $-1 $315 $559 #
ellipse-curve $-1 35.060977925960231 -21.933388809455867 0.85517865271950377 0 -0.54463904215088732 0.83867056331134215 2.5 0 0 1 I I #
point $-1 37.560977925960231 -24.844158457622111 5.3373707681735336 #
plane-surface $-1 0 0 9.1096245456010401 0 0 1 1 0 0 forward_v I I I I #
coedge $-1 $474 $473 $466 $560 forward $319 $-1 #
coedge $-1 $466 $321 $323 $470 reversed $206 $-1 #
coedge $-1 $321 $465 $464 $560 reversed $206 $-1 #
coedge $-1 $329 $324 $321 $468 forward $330 $-1 #
edge $-1 $471 -8.9940710640331147 $561 -2.6442341167118357 $467 $562 forward 7 unknown #
coedge $-1 $323 $322 $474 $563 reversed $129 $-1 #
edge $-1 $564 -61.305839551794364 $471 -52.761291044501235 $465 $565 forward 7 unknown #
vertex $-1 $325 $566 #
straight-curve $-1 19.859107332280153 24.303082828575903 9.1096245456010365 1 0 0 I I #
coedge $-1 $464 $326 $329 $478 reversed $319 $-1 #
coedge $-1 $326 $464 $469 $563 forward $319 $-1 #
vertex $-1 $327 $567 #
straight-curve $-1 29.784683343059243 30.652919775897189 67.464649242650893 0 0 1 I I #
straight-curve $-1 29.784683343059243 -14.906197214341134 44.413819639083528 0 0.74314481823134659 -0.66913061440640931 I I #
edge $-1 $561 -49.651745986061371 $331 -29.784683343059243 $473 $568 forward 7 unknown #
point $-1 29.784683343059243 30.652919775897189 9.1096245456010401 #
point $-1 29.784683343059243 24.30308282857591 9.1096245456010365 #
edge $-1 $569 1 $569 0 $334 $-1 forward 7 unknown #
vertex $-1 $335 $570 #
ellipse-curve $-1 39.718214664560307 25.075955744792079 3.5831732501546072 0 0.66913061440640931 0.74314481823134659 1.5 0 0 1 I I #
point $-1 41.218214664560307 27.478001302236542 6.2509150493458252 #
plane-surface $-1 60.90029602954192 0 0 -1 0 0 0 0 1 forward_v I I I I #
coedge $-1 $343 $341 $345 $490 reversed $221 $-1 #
edge $-1 $356 -9.1096245456010401 $492 9.1096245456010401 $355 $571 forward 7 unknown #
vertex $-1 $490 $572 #
straight-curve $-1 -60.90029602954192 -30.652919775897189 0 0 0 -1 I I #
edge $-1 $488 -30.652919775897189 $492 30.652919775897189 $486 $573 forward 7 unknown #
straight-curve $-1 0 -30.652919775897189 -9.1096245456010401 -1 0 0 I I #
vertex $-1 $348 $574 #
straight-curve $-1 0 30.652919775897189 -9.1096245456010401 1 0 0 I I #
point $-1 60.90029602954192 30.652919775897189 -9.1096245456010401 #
point $-1 60.90029602954192 -30.652919775897189 -9.1096245456010401 #
straight-curve $-1 -60.90029602954192 0 9.1096245456010401 0 -1 0 I I #
point $-1 -60.90029602954192 30.652919775897189 9.1096245456010401 #
point $-1 -60.90029602954192 -30.652919775897189 9.1096245456010401 #
straight-curve $-1 60.90029602954192 -30.652919775897189 0 0 0 -1 I I #
straight-curve $-1 60.90029602954192 30.652919775897189 0 0 0 -1 I I #
plane-surface $-1 0 -30.652919775897189 0 0 1 0 0 0 1 forward_v I I I I #
coedge $-1 $575 $368 $380 $513 reversed $240 $-1 #
coedge $-1 $368 $575 $383 $515 reversed $240 $-1 #
edge $-1 $576 -60.90029602954192 $377 -49.651745986061371 $373 $577 forward 7 unknown #
straight-curve $-1 -49.651745986061371 -14.217538872711735 9.1096245456010401 0 1 0 I I #
coedge $-1 $380 $371 $374 $509 forward $366 $-1 #
straight-curve $-1 -49.651745986061371 -14.217538872711735 -9.1096245456010401 0 -1 0 I I #
coedge $-1 $374 $373 $575 $578 forward $375 $-1 #
edge $-1 $376 49.651745986061371 $579 60.90029602954192 $374 $580 forward 7 unknown #
point $-1 -49.651745986061371 -30.652919775897189 -9.1096245456010401 #
point $-1 -49.651745986061371 -30.652919775897189 9.1096245456010401 #
straight-curve $-1 -60.90029602954192 -26.217235714949751 0 0 0 -1 I I #
edge $-1 $579 -30.652919775897189 $381 -26.217235714949751 $502 $581 forward 7 unknown #
point $-1 -60.90029602954192 -26.217235714949751 -9.1096245456010401 #
edge $-1 $384 26.217235714949751 $576 30.652919775897189 $503 $582 forward 7 unknown #
point $-1 -60.90029602954192 -26.217235714949751 9.1096245456010401 #
plane-surface $-1 60.90029602954192 0 0 -1 0 0 0 0 1 forward_v I I I I #
coedge $-1 $583 $391 $403 $529 reversed $256 $-1 #
coedge $-1 $391 $583 $406 $531 reversed $256 $-1 #
edge $-1 $584 -30.652919775897189 $400 -26.217235714949751 $396 $585 forward 7 unknown #
straight-curve $-1 27.638010503900823 -26.217235714949751 9.1096245456010401 -1 0 0 I I #
coedge $-1 $403 $394 $397 $525 forward $389 $-1 #
straight-curve $-1 27.638010503900823 -26.217235714949751 -9.1096245456010401 1 0 0 I I #
coedge $-1 $397 $396 $583 $586 forward $398 $-1 #
edge $-1 $399 26.217235714949751 $587 30.652919775897189 $397 $588 forward 7 unknown #
point $-1 60.90029602954192 -26.217235714949751 -9.1096245456010401 #
point $-1 60.90029602954192 -26.217235714949751 9.1096245456010401 #
straight-curve $-1 49.651745986061371 -30.652919775897189 0 0 0 -1 I I #
edge $-1 $587 -60.90029602954192 $404 -49.651745986061371 $518 $589 forward 7 unknown #
point $-1 49.651745986061371 -30.652919775897189 -9.1096245456010401 #
edge $-1 $407 49.651745986061371 $584 60.90029602954192 $519 $590 forward 7 unknown #
point $-1 49.651745986061371 -30.652919775897189 9.1096245456010401 #
coedge $-1 $422 $421 $414 $534 forward $411 $-1 #
edge $-1 $535 42.748219526695394 $538 50.292727081550382 $533 $591 forward 7 unknown #
vertex $-1 $426 $592 #
straight-curve $-1 -41.203473570106041 -48.495138784183801 9.1096245456010436 0 -1 0 I I #
edge $-1 $538 -25.976420473680616 $423 -4.4776857191702355 $422 $593 forward 7 unknown #
vertex $-1 $537 $594 #
straight-curve $-1 -41.203473570106041 -30.652919775897203 1.5651169907460485 0 0.83867056331134215 0.54463904215088732 I I #
point $-1 -41.203473570106041 -19.035397139347076 9.1096245456010401 #
point $-1 -19.704738815595661 -30.652919775897189 1.5651169907460578 #
straight-curve $-1 0 -30.652919775897189 9.1096245456010401 1 0 0 I I #
vertex $-1 $429 $595 #
point $-1 -32.560977925960216 -21.933388809455867 0.85517865271950377 #
vertex $-1 $433 $596 #
point $-1 -23.347234459741486 -21.933388809455867 0.85517865271950377 #
edge $-1 $548 42.748219526695394 $551 50.292727081550382 $438 $597 forward 7 unknown #
vertex $-1 $452 $598 #
straight-curve $-1 19.704738815595668 -48.495138784183801 9.1096245456010436 0 -1 0 I I #
edge $-1 $551 4.4776857191702391 $449 25.976420473680619 $448 $599 forward 7 unknown #
vertex $-1 $550 $600 #
straight-curve $-1 19.704738815595668 -30.652919775897203 1.5651169907460485 0 0.83867056331134215 0.54463904215088732 I I #
point $-1 19.704738815595668 -19.035397139347076 9.1096245456010401 #
point $-1 41.203473570106048 -30.652919775897189 1.5651169907460578 #
straight-curve $-1 0 -30.652919775897189 9.1096245456010401 1 0 0 I I #
vertex $-1 $455 $601 #
point $-1 28.347234459741486 -21.933388809455867 0.85517865271950377 #
vertex $-1 $459 $602 #
point $-1 37.560977925960231 -21.933388809455867 0.85517865271950377 #
edge $-1 $561 58.355024697049856 $564 64.072443689560274 $464 $603 forward 7 unknown #
vertex $-1 $478 $604 #
straight-curve $-1 49.651745986061371 33.297153892609025 9.1096245456010365 0 1 0 I I #
edge $-1 $564 -29.792638653781218 $475 -9.9255760107790891 $474 $605 forward 7 unknown #
vertex $-1 $563 $606 #
straight-curve $-1 49.651745986061371 -14.906197214341134 44.413819639083528 0 -0.74314481823134659 0.66913061440640931 I I #
point $-1 49.651745986061371 24.30308282857591 9.1096245456010365 #
point $-1 29.784683343059243 30.652919775897189 3.3922055530906192 #
straight-curve $-1 0 30.652919775897189 9.1096245456010401 -1 0 0 I I #
vertex $-1 $481 $607 #
point $-1 41.218214664560307 25.075955744792079 3.5831732501546072 #
straight-curve $-1 -60.90029602954192 30.652919775897189 0 0 0 -1 I I #
point $-1 -60.90029602954192 -30.652919775897189 -9.1096245456010401 #
straight-curve $-1 -60.90029602954192 0 -9.1096245456010401 0 1 0 I I #
point $-1 -60.90029602954192 30.652919775897189 -9.1096245456010401 #
coedge $-1 $503 $502 $508 $578 reversed $240 $-1 #
vertex $-1 $515 $608 #
straight-curve $-1 0 -30.652919775897189 9.1096245456010401 1 0 0 I I #
edge $-1 $576 -9.1096245456010401 $579 9.1096245456010401 $575 $609 forward 7 unknown #
vertex $-1 $513 $610 #
straight-curve $-1 0 -30.652919775897189 -9.1096245456010401 -1 0 0 I I #
straight-curve $-1 -60.90029602954192 0 -9.1096245456010401 0 1 0 I I #
straight-curve $-1 -60.90029602954192 0 9.1096245456010401 0 -1 0 I I #
coedge $-1 $519 $518 $524 $586 reversed $256 $-1 #
vertex $-1 $520 $611 #
straight-curve $-1 60.90029602954192 0 9.1096245456010401 0 1 0 I I #
edge $-1 $584 -9.1096245456010401 $587 9.1096245456010401 $524 $612 forward 7 unknown #
vertex $-1 $586 $613 #
straight-curve $-1 60.90029602954192 0 -9.1096245456010401 0 -1 0 I I #
straight-curve $-1 0 -30.652919775897189 -9.1096245456010401 -1 0 0 I I #
straight-curve $-1 0 -30.652919775897189 9.1096245456010401 1 0 0 I I #
straight-curve $-1 -41.203473570106041 -30.652919775897189 51.857844072296437 0 0 -1 I I #
point $-1 -41.203473570106041 -30.652919775897189 9.1096245456010401 #
straight-curve $-1 -15.227053096425426 -30.652919775897189 1.5651169907460576 1 0 0 I I #
point $-1 -41.203473570106041 -30.652919775897189 1.5651169907460578 #
point $-1 -35.060977925960216 -20.571791204078647 -1.2414977555588518 #
point $-1 -25.847234459741486 -20.571791204078647 -1.2414977555588518 #
straight-curve $-1 19.704738815595668 -30.652919775897189 51.857844072296437 0 0 -1 I I #
point $-1 19.704738815595668 -30.652919775897189 9.1096245456010401 #
straight-curve $-1 15.227053096425429 -30.652919775897189 1.5651169907460576 1 0 0 I I #
point $-1 19.704738815595668 -30.652919775897189 1.5651169907460578 #
point $-1 25.847234459741486 -20.571791204078647 -1.2414977555588518 #
point $-1 35.060977925960231 -20.571791204078647 -1.2414977555588518 #
straight-curve $-1 49.651745986061371 30.652919775897189 67.464649242650893 0 0 -1 I I #
point $-1 49.651745986061371 30.652919775897189 9.1096245456010401 #
straight-curve $-1 19.859107332280153 30.652919775897189 3.3922055530906157 -1 0 0 I I #
point $-1 49.651745986061371 30.652919775897189 3.3922055530906192 #
point $-1 39.718214664560307 24.072259823182467 2.468456022807588 #
point $-1 -60.90029602954192 -30.652919775897189 9.1096245456010401 #
straight-curve $-1 -60.90029602954192 -30.652919775897189 0 0 0 -1 I I #
point $-1 -60.90029602954192 -30.652919775897189 -9.1096245456010401 #
point $-1 60.90029602954192 -30.652919775897189 9.1096245456010401 #
straight-curve $-1 60.90029602954192 -30.652919775897189 0 0 0 -1 I I #
point $-1 60.90029602954192 -30.652919775897189 -9.1096245456010401 #
End-of-ACIS-data 