500 0 7 0           
7 Unknown 11 ACIS 5.0 NT 24 Thu Mar 25 17:52:44 1999 
-1 9.9999999999999995e-007 1e-010 
body $-1 $7 $-1 $8 #
body $-1 $9 $-1 $10 #
body $-1 $11 $-1 $12 #
body $-1 $13 $-1 $14 #
body $-1 $15 $-1 $16 #
body $-1 $17 $-1 $18 #
body $-1 $19 $-1 $20 #
lump $-1 $-1 $21 $0 #
transform $-1 1 0 0 0 1 0 0 0 1 58.976409192175055 41.083700631112656 13.154382310596588 1 rotate no_reflect no_shear #
lump $-1 $-1 $22 $1 #
transform $-1 1 0 0 0 1 0 0 0 1 58.976409192175055 41.083700631112656 13.154382310596588 1 rotate no_reflect no_shear #
lump $-1 $-1 $23 $2 #
transform $-1 1 0 0 0 1 0 0 0 1 58.976409192175055 41.083700631112656 13.154382310596588 1 rotate no_reflect no_shear #
lump $-1 $-1 $24 $3 #
transform $-1 1 0 0 0 1 0 0 0 1 58.976409192175055 41.083700631112656 13.154382310596588 1 rotate no_reflect no_shear #
lump $-1 $-1 $25 $4 #
transform $-1 1 0 0 0 1 0 0 0 1 58.976409192175055 41.083700631112656 13.154382310596588 1 rotate no_reflect no_shear #
lump $-1 $-1 $26 $5 #
transform $-1 1 0 0 0 1 0 0 0 1 58.976409192175055 41.083700631112656 13.154382310596588 1 rotate no_reflect no_shear #
lump $-1 $-1 $27 $6 #
transform $-1 1 0 0 0 1 0 0 0 1 58.976409192175055 41.083700631112656 13.154382310596588 1 rotate no_reflect no_shear #
shell $-1 $-1 $-1 $28 $-1 $7 #
shell $-1 $-1 $-1 $29 $-1 $9 #
shell $-1 $-1 $-1 $30 $-1 $11 #
shell $-1 $-1 $-1 $31 $-1 $13 #
shell $-1 $-1 $-1 $32 $-1 $15 #
shell $-1 $-1 $-1 $33 $-1 $17 #
shell $-1 $-1 $-1 $34 $-1 $19 #
face $-1 $35 $36 $21 $-1 $37 forward single #
face $-1 $38 $39 $22 $-1 $40 forward single #
face $-1 $41 $42 $23 $-1 $43 forward single #
face $-1 $44 $45 $24 $-1 $46 reversed single #
face $-1 $47 $48 $25 $-1 $49 forward single #
face $-1 $50 $51 $26 $-1 $52 forward single #
face $-1 $53 $54 $27 $-1 $55 forward single #
face $-1 $56 $57 $21 $-1 $58 reversed single #
loop $-1 $-1 $59 $28 #
plane-surface $-1 0 0 13.154382310596588 0 0 1 1 0 0 forward_v I I I I #
face $-1 $60 $61 $22 $-1 $62 forward single #
loop $-1 $-1 $63 $29 #
plane-surface $-1 0 -41.083700631112656 0 0 1 0 0 0 1 forward_v I I I I #
face $-1 $64 $65 $23 $-1 $66 reversed single #
loop $-1 $-1 $67 $30 #
plane-surface $-1 0 41.083700631112656 0 0 -1 0 0 0 -1 forward_v I I I I #
face $-1 $68 $69 $24 $-1 $70 reversed single #
loop $-1 $-1 $71 $31 #
plane-surface $-1 64.798012851321488 9.717942051094731 167.77087466609603 0 -1 0 -0.73135370988377701 0 -0.68199835119979291 forward_v I I I I #
face $-1 $72 $73 $25 $-1 $74 forward single #
loop $-1 $75 $76 $32 #
cone-surface $-1 52.972575324722129 3.2289065811189275 6.7671998256777943 -0.73135370988377701 0 -0.68199835119979291 0.34099917559989645 0 -0.36567685494188851 1 I I 0 1 0.5 forward I I I I #
face $-1 $77 $78 $26 $-1 $79 forward single #
loop $-1 $80 $81 $33 #
cone-surface $-1 52.972575324722129 5.662294882359852 6.7671998256777943 -0.73135370988377701 0 -0.68199835119979291 0.34099917559989645 0 -0.36567685494188851 1 I I 0 1 0.5 forward I I I I #
face $-1 $82 $83 $27 $-1 $84 forward single #
loop $-1 $85 $86 $34 #
cone-surface $-1 52.972575324722129 8.0956831836007765 6.7671998256777943 -0.73135370988377701 0 -0.68199835119979291 0.34099917559989645 0 -0.36567685494188851 1 I I 0 1 0.5 forward I I I I #
face $-1 $87 $88 $21 $-1 $89 reversed single #
loop $-1 $-1 $90 $35 #
plane-surface $-1 0 0 -13.154382310596588 0 0 1 1 0 0 forward_v I I I I #
coedge $-1 $91 $92 $93 $94 forward $36 $-1 #
face $-1 $95 $96 $22 $-1 $97 reversed single #
loop $-1 $-1 $98 $38 #
plane-surface $-1 0 0 13.154382310596588 0 0 1 1 0 0 forward_v I I I I #
coedge $-1 $99 $100 $101 $102 forward $39 $-1 #
face $-1 $103 $104 $23 $-1 $105 reversed single #
loop $-1 $-1 $106 $41 #
plane-surface $-1 58.976409192175055 0 0 -1 0 0 0 0 1 forward_v I I I I #
coedge $-1 $107 $108 $109 $110 forward $42 $-1 #
face $-1 $111 $112 $24 $-1 $113 reversed single #
loop $-1 $-1 $114 $44 #
plane-surface $-1 -21.467218465320343 5.662294882359852 87.327247008600636 0.73135370988377701 0 0.68199835119979291 0.68199835119979291 0 -0.73135370988377701 forward_v I I I I #
coedge $-1 $115 $116 $117 $118 reversed $45 $-1 #
face $-1 $-1 $119 $25 $-1 $120 forward single #
loop $-1 $121 $122 $47 #
cone-surface $-1 52.424060042309293 3.2289065811189275 6.2557010622779501 -0.73135370988377701 0 -0.68199835119979291 0.17049958779994823 0 -0.18283842747094425 1 I I -0.70710678118654746 0.70710678118654746 0.25 forward I I I I #
loop $-1 $-1 $123 $32 #
coedge $-1 $76 $76 $124 $125 reversed $48 $-1 #
face $-1 $-1 $126 $26 $-1 $127 forward single #
loop $-1 $128 $129 $50 #
cone-surface $-1 52.424060042309293 5.662294882359852 6.2557010622779501 -0.73135370988377701 0 -0.68199835119979291 0.17049958779994823 0 -0.18283842747094425 1 I I -0.70710678118654746 0.70710678118654746 0.25 forward I I I I #
loop $-1 $-1 $130 $33 #
coedge $-1 $81 $81 $131 $132 reversed $51 $-1 #
face $-1 $-1 $133 $27 $-1 $134 forward single #
loop $-1 $135 $136 $53 #
cone-surface $-1 52.424060042309293 8.0956831836007765 6.2557010622779501 -0.73135370988377701 0 -0.68199835119979291 0.17049958779994823 0 -0.18283842747094425 1 I I -0.70710678118654746 0.70710678118654746 0.25 forward I I I I #
loop $-1 $-1 $137 $34 #
coedge $-1 $86 $86 $138 $139 reversed $54 $-1 #
face $-1 $140 $141 $21 $-1 $142 reversed single #
loop $-1 $-1 $143 $56 #
plane-surface $-1 0 -41.083700631112656 0 0 1 0 0 0 1 forward_v I I I I #
coedge $-1 $144 $145 $146 $147 forward $57 $-1 #
coedge $-1 $148 $59 $149 $150 forward $36 $-1 #
coedge $-1 $59 $148 $151 $152 forward $36 $-1 #
coedge $-1 $153 $154 $59 $94 reversed $155 $-1 #
edge $-1 $156 -41.083700631112656 $157 41.083700631112656 $93 $158 forward 7 unknown #
face $-1 $159 $160 $22 $-1 $161 reversed single #
loop $-1 $-1 $162 $60 #
plane-surface $-1 -58.976409192175055 0 0 1 0 0 0 0 -1 forward_v I I I I #
coedge $-1 $163 $164 $165 $166 forward $61 $-1 #
coedge $-1 $165 $63 $162 $167 reversed $39 $-1 #
coedge $-1 $63 $165 $168 $169 reversed $39 $-1 #
coedge $-1 $170 $171 $63 $102 reversed $160 $-1 #
edge $-1 $172 -58.976409192175055 $173 58.976409192175055 $101 $174 forward 7 unknown #
face $-1 $175 $176 $23 $-1 $177 reversed single #
loop $-1 $-1 $178 $64 #
plane-surface $-1 0 49.722934651582825 8.9517404252634361 0 0 1 1 0 0 forward_v I I I I #
coedge $-1 $179 $180 $107 $181 forward $65 $-1 #
coedge $-1 $182 $67 $106 $181 reversed $42 $-1 #
coedge $-1 $67 $182 $183 $184 reversed $42 $-1 #
coedge $-1 $185 $178 $67 $110 reversed $104 $-1 #
edge $-1 $186 -58.976409192175055 $187 58.976409192175055 $109 $188 forward 7 unknown #
face $-1 $189 $190 $24 $-1 $191 forward single #
loop $-1 $-1 $192 $68 #
plane-surface $-1 64.798012851321488 1.6066477136249731 167.77087466609603 0 1 0 0.73135370988377701 0 0.68199835119979291 forward_v I I I I #
coedge $-1 $193 $194 $195 $196 reversed $69 $-1 #
coedge $-1 $116 $71 $197 $198 reversed $45 $-1 #
coedge $-1 $71 $115 $193 $199 reversed $45 $-1 #
coedge $-1 $195 $200 $71 $118 forward $190 $-1 #
edge $-1 $201 -26.577402766514311 $202 -15.301088741492194 $117 $203 forward 7 unknown #
loop $-1 $-1 $124 $72 #
plane-surface $-1 -21.467218465320343 5.662294882359852 87.327247008600636 0.73135370988377701 0 0.68199835119979291 0.68199835119979291 0 -0.73135370988377701 forward_v I I I I #
loop $-1 $-1 $204 $47 #
coedge $-1 $122 $122 $123 $205 reversed $73 $-1 #
coedge $-1 $123 $123 $122 $205 forward $75 $-1 #
coedge $-1 $124 $124 $76 $125 forward $119 $-1 #
edge $-1 $206 0 $206 6.2831853071796004 $124 $207 forward 7 unknown #
loop $-1 $-1 $131 $77 #
plane-surface $-1 -21.467218465320343 5.662294882359852 87.327247008600636 0.73135370988377701 0 0.68199835119979291 0.68199835119979291 0 -0.73135370988377701 forward_v I I I I #
loop $-1 $-1 $208 $50 #
coedge $-1 $129 $129 $130 $209 reversed $78 $-1 #
coedge $-1 $130 $130 $129 $209 forward $80 $-1 #
coedge $-1 $131 $131 $81 $132 forward $126 $-1 #
edge $-1 $210 0 $210 6.2831853071796004 $131 $211 forward 7 unknown #
loop $-1 $-1 $138 $82 #
plane-surface $-1 -21.467218465320343 5.662294882359852 87.327247008600636 0.73135370988377701 0 0.68199835119979291 0.68199835119979291 0 -0.73135370988377701 forward_v I I I I #
loop $-1 $-1 $212 $53 #
coedge $-1 $136 $136 $137 $213 reversed $83 $-1 #
coedge $-1 $137 $137 $136 $213 forward $85 $-1 #
coedge $-1 $138 $138 $86 $139 forward $133 $-1 #
edge $-1 $214 0 $214 6.2831853071796004 $138 $215 forward 7 unknown #
face $-1 $216 $217 $21 $-1 $218 reversed single #
loop $-1 $-1 $219 $87 #
plane-surface $-1 -58.976409192175055 0 0 1 0 0 0 0 -1 forward_v I I I I #
coedge $-1 $220 $151 $221 $222 forward $88 $-1 #
coedge $-1 $223 $90 $220 $224 forward $57 $-1 #
coedge $-1 $90 $223 $225 $226 forward $57 $-1 #
coedge $-1 $154 $153 $90 $147 reversed $155 $-1 #
edge $-1 $227 -41.083700631112656 $228 41.083700631112656 $146 $229 forward 7 unknown #
coedge $-1 $92 $91 $230 $231 forward $36 $-1 #
coedge $-1 $232 $233 $91 $150 reversed $217 $-1 #
edge $-1 $157 -58.976409192175055 $234 58.976409192175055 $149 $235 forward 7 unknown #
coedge $-1 $143 $236 $92 $152 reversed $88 $-1 #
edge $-1 $237 -58.976409192175055 $156 58.976409192175055 $151 $238 forward 7 unknown #
coedge $-1 $146 $93 $236 $239 forward $155 $-1 #
coedge $-1 $93 $146 $232 $240 reversed $155 $-1 #
loop $-1 $-1 $153 $216 #
vertex $-1 $94 $241 #
vertex $-1 $94 $242 #
straight-curve $-1 58.976409192175055 0 13.154382310596588 0 1 0 I I #
face $-1 $243 $244 $22 $-1 $245 reversed single #
loop $-1 $-1 $170 $95 #
plane-surface $-1 0 -49.722934651582833 8.9517404252634361 0 0 1 1 0 0 forward_v I I I I #
coedge $-1 $246 $247 $99 $167 forward $96 $-1 #
coedge $-1 $248 $98 $247 $249 forward $61 $-1 #
coedge $-1 $98 $248 $250 $251 forward $61 $-1 #
coedge $-1 $100 $99 $98 $166 reversed $39 $-1 #
edge $-1 $252 -58.976409192175055 $253 58.976409192175055 $98 $254 forward 7 unknown #
edge $-1 $253 -13.154382310596588 $173 -8.9517404252634361 $162 $255 forward 7 unknown #
coedge $-1 $250 $256 $100 $169 forward $257 $-1 #
edge $-1 $172 8.9517404252634361 $252 13.154382310596588 $168 $258 forward 7 unknown #
coedge $-1 $259 $101 $256 $260 forward $160 $-1 #
coedge $-1 $101 $259 $246 $261 forward $160 $-1 #
vertex $-1 $169 $262 #
vertex $-1 $167 $263 #
straight-curve $-1 0 -41.083700631112656 8.9517404252634361 -1 0 0 I I #
face $-1 $264 $265 $23 $-1 $266 forward single #
loop $-1 $-1 $267 $103 #
plane-surface $-1 0 58.362168672053002 11.053061367930013 0 -1 0 0 0 -1 forward_v I I I I #
coedge $-1 $109 $268 $179 $269 forward $104 $-1 #
coedge $-1 $270 $106 $178 $269 reversed $65 $-1 #
coedge $-1 $106 $270 $271 $272 reversed $65 $-1 #
edge $-1 $273 -13.154382310596588 $187 -8.9517404252634361 $106 $274 forward 7 unknown #
coedge $-1 $108 $107 $275 $276 reversed $42 $-1 #
coedge $-1 $277 $278 $108 $184 forward $279 $-1 #
edge $-1 $186 8.9517404252634361 $280 13.154382310596588 $183 $281 forward 7 unknown #
coedge $-1 $268 $109 $278 $282 forward $104 $-1 #
vertex $-1 $184 $283 #
vertex $-1 $181 $284 #
straight-curve $-1 0 41.083700631112656 8.9517404252634361 1 0 0 I I #
face $-1 $-1 $285 $24 $-1 $286 reversed single #
loop $-1 $-1 $117 $111 #
plane-surface $-1 0 0 13.154382310596588 0 0 1 1 0 0 forward_v I I I I #
coedge $-1 $287 $288 $289 $290 reversed $112 $-1 #
coedge $-1 $291 $114 $116 $199 forward $69 $-1 #
coedge $-1 $114 $291 $287 $292 forward $69 $-1 #
coedge $-1 $289 $117 $114 $196 forward $190 $-1 #
edge $-1 $202 -6.886794609914805 $293 1.224499727554953 $195 $294 forward 7 unknown #
coedge $-1 $295 $296 $115 $198 forward $285 $-1 #
edge $-1 $297 -82.823421641089212 $201 -70.731055022451429 $197 $298 forward 7 unknown #
edge $-1 $202 101.41859362385844 $297 117.95281838435011 $116 $299 forward 7 unknown #
coedge $-1 $117 $289 $295 $300 forward $190 $-1 #
vertex $-1 $198 $301 #
vertex $-1 $118 $302 #
straight-curve $-1 32.399006425660744 9.717942051094731 13.154382310596588 -1 0 0 I I #
coedge $-1 $204 $204 $-1 $303 reversed $121 $-1 #
edge $-1 $304 0 $304 6.2831853071796004 $122 $305 forward 7 unknown #
vertex $-1 $125 $306 #
ellipse-curve $-1 53.338252179664011 3.2289065811189275 7.1081990012776863 0.73135370988377701 0 0.68199835119979291 0.34099917559989645 0 -0.36567685494188851 1 I I #
coedge $-1 $208 $208 $-1 $307 reversed $128 $-1 #
edge $-1 $308 0 $308 6.2831853071796004 $129 $309 forward 7 unknown #
vertex $-1 $132 $310 #
ellipse-curve $-1 53.338252179664011 5.662294882359852 7.1081990012776863 0.73135370988377701 0 0.68199835119979291 0.34099917559989645 0 -0.36567685494188851 1 I I #
coedge $-1 $212 $212 $-1 $311 reversed $135 $-1 #
edge $-1 $312 0 $312 6.2831853071796004 $136 $313 forward 7 unknown #
vertex $-1 $139 $314 #
ellipse-curve $-1 53.338252179664011 8.0956831836007765 7.1081990012776863 0.73135370988377701 0 0.68199835119979291 0.34099917559989645 0 -0.36567685494188851 1 I I #
face $-1 $-1 $155 $21 $-1 $315 reversed single #
loop $-1 $-1 $232 $140 #
plane-surface $-1 0 41.083700631112656 0 0 -1 0 0 0 -1 forward_v I I I I #
coedge $-1 $316 $230 $233 $317 forward $141 $-1 #
coedge $-1 $236 $143 $144 $224 reversed $88 $-1 #
coedge $-1 $230 $316 $143 $222 reversed $141 $-1 #
edge $-1 $237 -13.154382310596588 $318 13.154382310596588 $221 $319 forward 7 unknown #
coedge $-1 $145 $144 $316 $320 forward $57 $-1 #
edge $-1 $228 -58.976409192175055 $318 58.976409192175055 $220 $321 forward 7 unknown #
coedge $-1 $233 $232 $145 $226 reversed $217 $-1 #
edge $-1 $322 -58.976409192175055 $227 58.976409192175055 $225 $323 forward 7 unknown #
vertex $-1 $147 $324 #
vertex $-1 $239 $325 #
straight-curve $-1 58.976409192175055 0 -13.154382310596588 0 -1 0 I I #
coedge $-1 $219 $221 $148 $231 reversed $141 $-1 #
edge $-1 $234 -41.083700631112656 $237 41.083700631112656 $230 $326 forward 7 unknown #
coedge $-1 $225 $149 $154 $240 forward $217 $-1 #
coedge $-1 $149 $225 $219 $317 reversed $217 $-1 #
vertex $-1 $150 $327 #
straight-curve $-1 0 41.083700631112656 13.154382310596588 -1 0 0 I I #
coedge $-1 $151 $220 $153 $239 reversed $88 $-1 #
vertex $-1 $231 $328 #
straight-curve $-1 0 -41.083700631112656 13.154382310596588 1 0 0 I I #
edge $-1 $156 -13.154382310596588 $228 13.154382310596588 $153 $329 forward 7 unknown #
edge $-1 $157 -13.154382310596588 $227 13.154382310596588 $154 $330 forward 7 unknown #
point $-1 58.976409192175055 -41.083700631112656 13.154382310596588 #
point $-1 58.976409192175055 41.083700631112656 13.154382310596588 #
face $-1 $-1 $257 $22 $-1 $331 reversed single #
loop $-1 $-1 $332 $159 #
plane-surface $-1 0 -58.362168672053002 11.053061367930013 0 1 0 0 0 1 forward_v I I I I #
coedge $-1 $333 $162 $171 $261 reversed $96 $-1 #
coedge $-1 $162 $333 $163 $249 reversed $96 $-1 #
coedge $-1 $164 $163 $334 $335 forward $61 $-1 #
edge $-1 $253 41.083700631112656 $336 58.362168672053002 $247 $337 forward 7 unknown #
coedge $-1 $338 $168 $164 $251 reversed $257 $-1 #
edge $-1 $339 -58.362168672053002 $252 -41.083700631112656 $250 $340 forward 7 unknown #
vertex $-1 $169 $341 #
vertex $-1 $249 $342 #
straight-curve $-1 0 -41.083700631112656 13.154382310596588 -1 0 0 I I #
straight-curve $-1 -58.976409192175055 -41.083700631112656 0 0 0 -1 I I #
coedge $-1 $168 $338 $170 $260 reversed $257 $-1 #
loop $-1 $-1 $168 $243 #
straight-curve $-1 58.976409192175055 -41.083700631112656 0 0 0 1 I I #
coedge $-1 $171 $170 $343 $344 forward $160 $-1 #
edge $-1 $172 -8.6392340204701696 $345 8.6392340204701696 $256 $346 forward 7 unknown #
edge $-1 $347 -8.6392340204701696 $173 8.6392340204701696 $246 $348 forward 7 unknown #
point $-1 58.976409192175055 -41.083700631112663 8.9517404252634361 #
point $-1 -58.976409192175055 -41.083700631112663 8.9517404252634361 #
face $-1 $-1 $279 $23 $-1 $349 reversed single #
loop $-1 $-1 $275 $175 #
plane-surface $-1 0 0 13.154382310596588 0 0 1 1 0 0 forward_v I I I I #
coedge $-1 $350 $351 $270 $352 forward $176 $-1 #
coedge $-1 $178 $185 $350 $353 forward $104 $-1 #
edge $-1 $354 -8.6392340204701767 $187 8.6392340204701767 $179 $355 forward 7 unknown #
coedge $-1 $180 $179 $267 $352 reversed $65 $-1 #
coedge $-1 $356 $275 $180 $272 forward $265 $-1 #
edge $-1 $273 41.083700631112656 $357 58.362168672053002 $180 $358 forward 7 unknown #
vertex $-1 $272 $359 #
straight-curve $-1 58.976409192175055 41.083700631112656 0 0 0 -1 I I #
coedge $-1 $271 $360 $182 $276 forward $265 $-1 #
edge $-1 $280 -58.976409192175055 $273 58.976409192175055 $275 $361 forward 7 unknown #
coedge $-1 $362 $183 $360 $363 reversed $279 $-1 #
coedge $-1 $183 $362 $185 $282 reversed $279 $-1 #
loop $-1 $-1 $183 $264 #
vertex $-1 $184 $364 #
straight-curve $-1 -58.976409192175055 41.083700631112656 0 0 0 1 I I #
edge $-1 $186 -8.6392340204701767 $365 8.6392340204701767 $278 $366 forward 7 unknown #
point $-1 -58.976409192175055 41.083700631112649 8.9517404252634361 #
point $-1 58.976409192175055 41.083700631112649 8.9517404252634361 #
loop $-1 $-1 $197 $189 #
plane-surface $-1 58.976409192175055 0 0 -1 0 0 0 0 1 forward_v I I I I #
coedge $-1 $288 $192 $194 $292 reversed $112 $-1 #
coedge $-1 $192 $287 $367 $368 reversed $112 $-1 #
coedge $-1 $200 $195 $192 $290 forward $190 $-1 #
edge $-1 $293 15.301088741492194 $369 26.577402766514311 $289 $370 forward 7 unknown #
coedge $-1 $194 $193 $296 $371 reversed $69 $-1 #
edge $-1 $372 -117.95281838435011 $293 -101.41859362385844 $287 $373 forward 7 unknown #
vertex $-1 $196 $374 #
straight-curve $-1 47.700095167152952 2.831147441179926 13.154382310596588 0 -1 0 I I #
coedge $-1 $367 $197 $200 $300 reversed $285 $-1 #
coedge $-1 $197 $367 $291 $371 forward $285 $-1 #
vertex $-1 $198 $375 #
straight-curve $-1 58.976409192175055 9.717942051094731 83.885437333048017 0 0 1 I I #
straight-curve $-1 -21.467218465320343 9.717942051094731 87.327247008600636 0.68199835119979291 0 -0.73135370988377701 I I #
edge $-1 $369 1.6066477136249731 $201 9.717942051094731 $295 $376 forward 7 unknown #
point $-1 58.976409192175055 9.717942051094731 13.154382310596588 #
point $-1 47.700095167152938 9.717942051094731 13.154382310596588 #
edge $-1 $377 1 $377 0 $204 $-1 forward 7 unknown #
vertex $-1 $205 $378 #
ellipse-curve $-1 52.606898469780234 3.2289065811189275 6.4262006500778988 0.73135370988377701 0 0.68199835119979291 0.34099917559989645 0 -0.36567685494188851 1 I I #
point $-1 53.679251355263908 3.2289065811189275 6.7425221463358032 #
edge $-1 $379 1 $379 0 $208 $-1 forward 7 unknown #
vertex $-1 $209 $380 #
ellipse-curve $-1 52.606898469780234 5.662294882359852 6.4262006500778988 0.73135370988377701 0 0.68199835119979291 0.34099917559989645 0 -0.36567685494188851 1 I I #
point $-1 53.679251355263908 5.662294882359852 6.7425221463358032 #
edge $-1 $381 1 $381 0 $212 $-1 forward 7 unknown #
vertex $-1 $213 $382 #
ellipse-curve $-1 52.606898469780234 8.0956831836007765 6.4262006500778988 0.73135370988377701 0 0.68199835119979291 0.34099917559989645 0 -0.36567685494188851 1 I I #
point $-1 53.679251355263908 8.0956831836007765 6.7425221463358032 #
plane-surface $-1 58.976409192175055 0 0 -1 0 0 0 0 1 forward_v I I I I #
coedge $-1 $221 $219 $223 $320 reversed $141 $-1 #
edge $-1 $234 -13.154382310596588 $322 13.154382310596588 $233 $383 forward 7 unknown #
vertex $-1 $320 $384 #
straight-curve $-1 -58.976409192175055 -41.083700631112656 0 0 0 -1 I I #
edge $-1 $318 -41.083700631112656 $322 41.083700631112656 $316 $385 forward 7 unknown #
straight-curve $-1 0 -41.083700631112656 -13.154382310596588 -1 0 0 I I #
vertex $-1 $226 $386 #
straight-curve $-1 0 41.083700631112656 -13.154382310596588 1 0 0 I I #
point $-1 58.976409192175055 41.083700631112656 -13.154382310596588 #
point $-1 58.976409192175055 -41.083700631112656 -13.154382310596588 #
straight-curve $-1 -58.976409192175055 0 13.154382310596588 0 -1 0 I I #
point $-1 -58.976409192175055 41.083700631112656 13.154382310596588 #
point $-1 -58.976409192175055 -41.083700631112656 13.154382310596588 #
straight-curve $-1 58.976409192175055 -41.083700631112656 0 0 0 -1 I I #
straight-curve $-1 58.976409192175055 41.083700631112656 0 0 0 -1 I I #
plane-surface $-1 58.976409192175055 0 0 -1 0 0 0 0 1 forward_v I I I I #
coedge $-1 $343 $334 $333 $387 forward $244 $-1 #
coedge $-1 $247 $246 $332 $387 reversed $96 $-1 #
coedge $-1 $332 $388 $248 $335 reversed $244 $-1 #
edge $-1 $336 -58.976409192175055 $339 58.976409192175055 $334 $389 forward 7 unknown #
vertex $-1 $249 $390 #
straight-curve $-1 -58.976409192175055 0 13.154382310596588 0 -1 0 I I #
coedge $-1 $256 $250 $388 $391 forward $257 $-1 #
vertex $-1 $251 $392 #
straight-curve $-1 58.976409192175055 0 13.154382310596588 0 1 0 I I #
point $-1 58.976409192175055 -41.083700631112656 13.154382310596588 #
point $-1 -58.976409192175055 -41.083700631112656 13.154382310596588 #
coedge $-1 $388 $332 $259 $344 reversed $244 $-1 #
edge $-1 $345 -58.976409192175055 $347 58.976409192175055 $343 $393 forward 7 unknown #
vertex $-1 $391 $394 #
straight-curve $-1 58.976409192175055 -49.722934651582833 8.9517404252634361 0 -1 0 I I #
vertex $-1 $261 $395 #
straight-curve $-1 -58.976409192175055 -49.722934651582833 8.9517404252634361 0 1 0 I I #
plane-surface $-1 -58.976409192175055 0 0 1 0 0 0 0 -1 forward_v I I I I #
coedge $-1 $396 $267 $268 $353 reversed $176 $-1 #
coedge $-1 $267 $396 $356 $397 reversed $176 $-1 #
edge $-1 $357 -2.1013209426665771 $354 2.1013209426665771 $270 $398 forward 7 unknown #
edge $-1 $365 -58.976409192175055 $354 58.976409192175055 $350 $399 forward 7 unknown #
vertex $-1 $269 $400 #
straight-curve $-1 58.976409192175055 49.722934651582825 8.9517404252634361 0 -1 0 I I #
coedge $-1 $360 $271 $351 $397 forward $265 $-1 #
vertex $-1 $272 $401 #
straight-curve $-1 58.976409192175055 0 13.154382310596588 0 1 0 I I #
point $-1 58.976409192175055 41.083700631112656 13.154382310596588 #
coedge $-1 $275 $356 $277 $363 forward $265 $-1 #
straight-curve $-1 0 41.083700631112656 13.154382310596588 1 0 0 I I #
coedge $-1 $278 $277 $396 $402 forward $279 $-1 #
edge $-1 $403 -58.362168672053002 $280 -41.083700631112656 $277 $404 forward 7 unknown #
point $-1 -58.976409192175055 41.083700631112656 13.154382310596588 #
vertex $-1 $353 $405 #
straight-curve $-1 -58.976409192175055 49.722934651582825 8.9517404252634361 0 1 0 I I #
coedge $-1 $296 $295 $288 $368 forward $285 $-1 #
edge $-1 $369 70.731055022451429 $372 82.823421641089212 $367 $406 forward 7 unknown #
vertex $-1 $300 $407 #
straight-curve $-1 32.399006425660744 1.6066477136249731 13.154382310596588 1 0 0 I I #
edge $-1 $372 -1.224499727554953 $297 6.886794609914805 $296 $408 forward 7 unknown #
vertex $-1 $371 $409 #
straight-curve $-1 -21.467218465320343 1.6066477136249731 87.327247008600636 -0.68199835119979291 0 0.73135370988377701 I I #
point $-1 47.700095167152938 1.6066477136249731 13.154382310596588 #
point $-1 58.976409192175055 9.717942051094731 1.0620156919588055 #
straight-curve $-1 58.976409192175055 0 13.154382310596588 0 1 0 I I #
vertex $-1 $303 $410 #
point $-1 52.947897645380131 3.2289065811189275 6.0605237951360102 #
vertex $-1 $307 $411 #
point $-1 52.947897645380131 5.662294882359852 6.0605237951360102 #
vertex $-1 $311 $412 #
point $-1 52.947897645380131 8.0956831836007765 6.0605237951360102 #
straight-curve $-1 -58.976409192175055 41.083700631112656 0 0 0 -1 I I #
point $-1 -58.976409192175055 -41.083700631112656 -13.154382310596588 #
straight-curve $-1 -58.976409192175055 0 -13.154382310596588 0 1 0 I I #
point $-1 -58.976409192175055 41.083700631112656 -13.154382310596588 #
edge $-1 $336 -2.1013209426665771 $347 2.1013209426665771 $333 $413 forward 7 unknown #
coedge $-1 $334 $343 $338 $391 reversed $244 $-1 #
straight-curve $-1 0 -58.362168672053002 13.15438231059659 1 0 0 I I #
point $-1 -58.976409192175055 -58.362168672053002 13.15438231059659 #
edge $-1 $339 -2.1013209426665771 $345 2.1013209426665771 $338 $414 forward 7 unknown #
point $-1 58.976409192175055 -58.362168672053002 13.15438231059659 #
straight-curve $-1 0 -58.362168672053002 8.9517404252634361 -1 0 0 I I #
point $-1 58.976409192175055 -58.362168672053002 8.9517404252634361 #
point $-1 -58.976409192175055 -58.362168672053002 8.9517404252634361 #
coedge $-1 $351 $350 $362 $402 reversed $176 $-1 #
edge $-1 $357 -58.976409192175055 $403 58.976409192175055 $351 $415 forward 7 unknown #
straight-curve $-1 58.976409192175055 58.362168672053002 11.053061367930013 0 0 -1 I I #
straight-curve $-1 0 58.362168672053002 8.9517404252634361 1 0 0 I I #
point $-1 58.976409192175055 58.362168672053002 8.9517404252634361 #
point $-1 58.976409192175055 58.362168672053002 13.15438231059659 #
edge $-1 $403 -2.1013209426665771 $365 2.1013209426665771 $396 $416 forward 7 unknown #
vertex $-1 $397 $417 #
straight-curve $-1 -58.976409192175055 0 13.154382310596588 0 -1 0 I I #
point $-1 -58.976409192175055 58.362168672053002 8.9517404252634361 #
straight-curve $-1 58.976409192175055 1.6066477136249731 83.885437333048017 0 0 -1 I I #
point $-1 58.976409192175055 1.6066477136249731 13.154382310596588 #
straight-curve $-1 58.976409192175055 2.831147441179926 1.0620156919588126 0 1 0 I I #
point $-1 58.976409192175055 1.6066477136249731 1.0620156919588055 #
point $-1 52.241221614838352 3.2289065811189275 6.0852014744780014 #
point $-1 52.241221614838352 5.662294882359852 6.0852014744780014 #
point $-1 52.241221614838352 8.0956831836007765 6.0852014744780014 #
straight-curve $-1 -58.976409192175055 -58.362168672053002 11.053061367930013 0 0 -1 I I #
straight-curve $-1 58.976409192175055 -58.362168672053002 11.053061367930013 0 0 -1 I I #
straight-curve $-1 0 58.362168672053002 13.15438231059659 -1 0 0 I I #
straight-curve $-1 -58.976409192175055 58.362168672053002 11.053061367930013 0 0 -1 I I #
point $-1 -58.976409192175055 58.362168672053002 13.15438231059659 #
End-of-ACIS-data 