500 0 5 0           
7 Unknown 11 ACIS 5.0 NT 24 Thu Mar 25 19:36:11 1999 
-1 9.9999999999999995e-007 1e-010 
body $-1 $5 $-1 $6 #
body $-1 $7 $-1 $8 #
body $-1 $9 $-1 $10 #
body $-1 $11 $-1 $12 #
body $-1 $13 $-1 $14 #
lump $-1 $-1 $15 $0 #
transform $-1 1 0 0 0 1 0 0 0 1 63.64574114200262 37.835098195038924 10.145284074558869 1 rotate no_reflect no_shear #
lump $-1 $-1 $16 $1 #
transform $-1 1 0 0 0 1 0 0 0 1 63.64574114200262 37.835098195038924 10.145284074558869 1 rotate no_reflect no_shear #
lump $-1 $-1 $17 $2 #
transform $-1 1 0 0 0 1 0 0 0 1 63.64574114200262 37.835098195038924 10.145284074558869 1 rotate no_reflect no_shear #
lump $-1 $-1 $18 $3 #
transform $-1 1 0 0 0 1 0 0 0 1 63.64574114200262 37.835098195038924 10.145284074558869 1 rotate no_reflect no_shear #
lump $-1 $-1 $19 $4 #
transform $-1 1 0 0 0 1 0 0 0 1 63.64574114200262 37.835098195038924 10.145284074558869 1 rotate no_reflect no_shear #
shell $-1 $-1 $-1 $20 $-1 $5 #
shell $-1 $-1 $-1 $21 $-1 $7 #
shell $-1 $-1 $-1 $22 $-1 $9 #
shell $-1 $-1 $-1 $23 $-1 $11 #
shell $-1 $-1 $-1 $24 $-1 $13 #
face $-1 $25 $26 $15 $-1 $27 forward single #
face $-1 $28 $29 $16 $-1 $30 forward single #
face $-1 $31 $32 $17 $-1 $33 forward single #
face $-1 $34 $35 $18 $-1 $36 reversed single #
face $-1 $37 $38 $19 $-1 $39 reversed single #
face $-1 $40 $41 $15 $-1 $42 reversed single #
loop $-1 $-1 $43 $20 #
plane-surface $-1 0 0 10.145284074558869 0 0 1 1 0 0 forward_v I I I I #
face $-1 $44 $45 $16 $-1 $46 forward single #
loop $-1 $-1 $47 $21 #
plane-surface $-1 -61.958088024925686 -34.173581668300308 0 1 0 0 0 0 -1 forward_v I I I I #
face $-1 $48 $49 $17 $-1 $50 forward single #
loop $-1 $-1 $51 $22 #
plane-surface $-1 33.833032548230179 48.861098249297413 150.2137221305322 1 0 0 0 -0.57357644374324357 -0.81915203911291934 forward_v I I I I #
face $-1 $52 $53 $18 $-1 $54 reversed single #
loop $-1 $55 $56 $23 #
cone-surface $-1 42.350949289308019 31.221834708397669 4.6538157317878612 0 -0.57357644374324357 -0.81915203911291934 2 0 0 1 I I 0 1 2 forward I I I I #
face $-1 $57 $58 $19 $-1 $59 reversed single #
loop $-1 $60 $61 $24 #
cone-surface $-1 55.12782440092478 31.221834708397669 4.6538157317878612 0 -0.57357644374324357 -0.81915203911291934 2 0 0 1 I I 0 1 2 forward I I I I #
face $-1 $62 $63 $15 $-1 $64 reversed single #
loop $-1 $-1 $65 $25 #
plane-surface $-1 0 0 -10.145284074558869 0 0 1 1 0 0 forward_v I I I I #
coedge $-1 $66 $67 $68 $69 forward $26 $-1 #
face $-1 $70 $71 $16 $-1 $72 forward single #
loop $-1 $-1 $73 $28 #
plane-surface $-1 -59.440297700333709 -30.512065141561692 0 0 -1 0 0 0 -1 forward_v I I I I #
coedge $-1 $74 $75 $76 $77 reversed $29 $-1 #
face $-1 $78 $79 $17 $-1 $80 forward single #
loop $-1 $-1 $81 $31 #
plane-surface $-1 48.7393868451164 -24.150297477968408 45.942644855883259 0 0.57357644374324357 0.81915203911291934 1 0 0 forward_v I I I I #
coedge $-1 $82 $83 $84 $85 reversed $32 $-1 #
face $-1 $86 $87 $18 $-1 $88 forward single #
loop $-1 $89 $90 $34 #
cone-surface $-1 42.350949289308019 29.465728382239959 2.1458360306285762 0 -0.57357644374324357 -0.81915203911291934 1 0 0 1 I I -0.70710678118654746 0.70710678118654746 1 forward I I I I #
loop $-1 $-1 $91 $23 #
coedge $-1 $56 $56 $92 $93 reversed $35 $-1 #
face $-1 $94 $95 $19 $-1 $96 reversed single #
loop $-1 $97 $98 $37 #
cone-surface $-1 55.12782440092478 29.465728382239959 2.1458360306285762 0 -0.57357644374324357 -0.81915203911291934 1 0 0 1 I I -0.70710678118654746 0.70710678118654746 1 forward I I I I #
loop $-1 $-1 $99 $24 #
coedge $-1 $61 $61 $100 $101 reversed $38 $-1 #
face $-1 $102 $103 $15 $-1 $104 reversed single #
loop $-1 $-1 $105 $40 #
plane-surface $-1 0 -37.835098195038924 0 0 1 0 0 0 1 forward_v I I I I #
coedge $-1 $106 $107 $108 $109 forward $41 $-1 #
coedge $-1 $110 $43 $111 $112 forward $26 $-1 #
coedge $-1 $43 $110 $113 $114 forward $26 $-1 #
coedge $-1 $115 $116 $43 $69 reversed $117 $-1 #
edge $-1 $118 -37.835098195038924 $119 37.835098195038924 $68 $120 forward 7 unknown #
face $-1 $121 $122 $16 $-1 $123 forward single #
loop $-1 $-1 $124 $44 #
plane-surface $-1 -56.922507375741731 -34.173581668300308 0 -1 0 0 0 0 1 forward_v I I I I #
coedge $-1 $125 $126 $127 $128 reversed $45 $-1 #
coedge $-1 $129 $47 $130 $131 reversed $29 $-1 #
coedge $-1 $47 $129 $132 $133 reversed $29 $-1 #
coedge $-1 $126 $125 $47 $77 forward $45 $-1 #
edge $-1 $134 -10.145284074558869 $135 10.145284074558869 $76 $136 forward 7 unknown #
face $-1 $137 $138 $17 $-1 $139 reversed single #
loop $-1 $-1 $140 $48 #
plane-surface $-1 0 0 10.145284074558869 0 0 1 1 0 0 forward_v I I I I #
coedge $-1 $141 $142 $140 $143 reversed $49 $-1 #
coedge $-1 $83 $51 $142 $144 forward $32 $-1 #
coedge $-1 $51 $82 $145 $146 reversed $32 $-1 #
coedge $-1 $147 $140 $51 $85 forward $79 $-1 #
edge $-1 $148 2.5430818619366278 $149 13.404549070390217 $84 $150 forward 7 unknown #
face $-1 $151 $152 $18 $-1 $153 forward single #
loop $-1 $-1 $154 $52 #
plane-surface $-1 33.833032548230179 48.861098249297413 150.2137221305322 1 0 0 0 -0.57357644374324357 -0.81915203911291934 forward_v I I I I #
loop $-1 $-1 $155 $34 #
coedge $-1 $90 $90 $91 $156 forward $53 $-1 #
coedge $-1 $91 $91 $90 $156 reversed $55 $-1 #
coedge $-1 $92 $92 $56 $93 forward $152 $-1 #
edge $-1 $157 -2.5471910969054593e-016 $157 6.2831853071796004 $92 $158 forward 7 unknown #
face $-1 $159 $160 $19 $-1 $161 reversed single #
loop $-1 $162 $163 $57 #
cone-surface $-1 42.350949289308019 31.221834708397669 4.6538157317878612 0 -0.57357644374324357 -0.81915203911291934 2 0 0 1 I I 0 1 2 forward I I I I #
loop $-1 $-1 $164 $37 #
coedge $-1 $98 $98 $99 $165 forward $58 $-1 #
coedge $-1 $99 $99 $98 $165 reversed $60 $-1 #
coedge $-1 $100 $100 $61 $101 forward $166 $-1 #
edge $-1 $167 -2.5471910969054593e-016 $167 6.2831853071796004 $100 $168 forward 7 unknown #
face $-1 $169 $170 $15 $-1 $171 reversed single #
loop $-1 $-1 $172 $62 #
plane-surface $-1 -63.64574114200262 0 0 1 0 0 0 0 -1 forward_v I I I I #
coedge $-1 $173 $113 $174 $175 forward $63 $-1 #
coedge $-1 $176 $65 $173 $177 forward $41 $-1 #
coedge $-1 $65 $176 $178 $179 forward $41 $-1 #
coedge $-1 $116 $115 $65 $109 reversed $117 $-1 #
edge $-1 $180 -37.835098195038924 $181 37.835098195038924 $108 $182 forward 7 unknown #
coedge $-1 $67 $66 $183 $184 forward $26 $-1 #
coedge $-1 $185 $186 $66 $112 reversed $170 $-1 #
edge $-1 $119 -63.64574114200262 $187 63.64574114200262 $111 $188 forward 7 unknown #
coedge $-1 $105 $189 $67 $114 reversed $63 $-1 #
edge $-1 $190 -63.64574114200262 $118 63.64574114200262 $113 $191 forward 7 unknown #
coedge $-1 $108 $68 $189 $192 forward $117 $-1 #
coedge $-1 $68 $108 $185 $193 reversed $117 $-1 #
loop $-1 $-1 $115 $169 #
vertex $-1 $69 $194 #
vertex $-1 $69 $195 #
straight-curve $-1 63.64574114200262 0 10.145284074558869 0 1 0 I I #
face $-1 $196 $197 $16 $-1 $198 reversed single #
loop $-1 $-1 $130 $70 #
plane-surface $-1 0 0 10.145284074558869 0 0 1 1 0 0 forward_v I I I I #
coedge $-1 $199 $200 $201 $202 reversed $71 $-1 #
coedge $-1 $76 $73 $203 $204 reversed $45 $-1 #
coedge $-1 $73 $76 $205 $206 reversed $45 $-1 #
coedge $-1 $200 $199 $73 $128 forward $71 $-1 #
edge $-1 $207 -10.145284074558869 $208 10.145284074558869 $127 $209 forward 7 unknown #
coedge $-1 $75 $74 $210 $211 reversed $29 $-1 #
coedge $-1 $203 $212 $74 $131 forward $122 $-1 #
edge $-1 $213 -20.74830736088877 $134 -13.425274307411538 $130 $214 forward 7 unknown #
coedge $-1 $215 $205 $75 $133 forward $216 $-1 #
edge $-1 $135 13.425274307411538 $217 20.74830736088877 $132 $218 forward 7 unknown #
vertex $-1 $131 $219 #
vertex $-1 $133 $220 #
straight-curve $-1 -61.958088024925686 -30.512065141561692 0 0 0 -1 I I #
face $-1 $221 $222 $17 $-1 $223 forward single #
loop $-1 $-1 $145 $78 #
plane-surface $-1 0 37.835098195038924 0 0 -1 0 0 0 -1 forward_v I I I I #
coedge $-1 $84 $224 $81 $143 forward $79 $-1 #
coedge $-1 $225 $81 $226 $227 reversed $49 $-1 #
coedge $-1 $81 $225 $82 $144 reversed $49 $-1 #
edge $-1 $228 -39.276047719444421 $148 -9.463339125671979 $140 $229 forward 7 unknown #
edge $-1 $148 62.410793141548112 $230 75.670196390077848 $82 $231 forward 7 unknown #
coedge $-1 $232 $233 $83 $146 forward $138 $-1 #
edge $-1 $149 64.961576990707229 $230 72.566858352156515 $145 $234 forward 7 unknown #
coedge $-1 $235 $84 $233 $236 forward $79 $-1 #
vertex $-1 $143 $237 #
vertex $-1 $236 $238 #
straight-curve $-1 33.833032548230179 24.430549124648707 10.145284074558873 0 1 0 I I #
face $-1 $239 $240 $18 $-1 $241 forward single #
loop $-1 $242 $92 $86 #
plane-surface $-1 48.7393868451164 -24.150297477968408 45.942644855883259 0 0.57357644374324357 0.81915203911291934 1 0 0 forward_v I I I I #
coedge $-1 $243 $244 $245 $246 reversed $87 $-1 #
coedge $-1 $155 $155 $-1 $247 forward $89 $-1 #
edge $-1 $248 0 $248 6.2831853071796004 $90 $249 forward 7 unknown #
vertex $-1 $93 $250 #
ellipse-curve $-1 42.350949289308019 32.404364590812136 6.3426433938342281 0 -0.57357644374324357 -0.81915203911291934 2 0 0 1 I I #
face $-1 $251 $252 $19 $-1 $253 forward single #
loop $-1 $254 $255 $94 #
cone-surface $-1 42.350949289308019 29.465728382239959 2.1458360306285762 0 -0.57357644374324357 -0.81915203911291934 1 0 0 1 I I -0.70710678118654746 0.70710678118654746 1 forward I I I I #
loop $-1 $-1 $256 $57 #
coedge $-1 $163 $163 $257 $258 reversed $95 $-1 #
coedge $-1 $164 $164 $-1 $259 forward $97 $-1 #
edge $-1 $260 0 $260 6.2831853071796004 $98 $261 forward 7 unknown #
loop $-1 $262 $100 $251 #
vertex $-1 $101 $263 #
ellipse-curve $-1 55.12782440092478 32.404364590812136 6.3426433938342281 0 -0.57357644374324357 -0.81915203911291934 2 0 0 1 I I #
face $-1 $-1 $117 $15 $-1 $264 reversed single #
loop $-1 $-1 $185 $102 #
plane-surface $-1 0 37.835098195038924 0 0 -1 0 0 0 -1 forward_v I I I I #
coedge $-1 $265 $183 $186 $266 forward $103 $-1 #
coedge $-1 $189 $105 $106 $177 reversed $63 $-1 #
coedge $-1 $183 $265 $105 $175 reversed $103 $-1 #
edge $-1 $190 -10.145284074558869 $267 10.145284074558869 $174 $268 forward 7 unknown #
coedge $-1 $107 $106 $265 $269 forward $41 $-1 #
edge $-1 $181 -63.64574114200262 $267 63.64574114200262 $173 $270 forward 7 unknown #
coedge $-1 $186 $185 $107 $179 reversed $170 $-1 #
edge $-1 $271 -63.64574114200262 $180 63.64574114200262 $178 $272 forward 7 unknown #
vertex $-1 $109 $273 #
vertex $-1 $192 $274 #
straight-curve $-1 63.64574114200262 0 -10.145284074558869 0 -1 0 I I #
coedge $-1 $172 $174 $110 $184 reversed $103 $-1 #
edge $-1 $187 -37.835098195038924 $190 37.835098195038924 $183 $275 forward 7 unknown #
coedge $-1 $178 $111 $116 $193 forward $170 $-1 #
coedge $-1 $111 $178 $172 $266 reversed $170 $-1 #
vertex $-1 $112 $276 #
straight-curve $-1 0 37.835098195038924 10.145284074558869 -1 0 0 I I #
coedge $-1 $113 $173 $115 $192 reversed $63 $-1 #
vertex $-1 $184 $277 #
straight-curve $-1 0 -37.835098195038924 10.145284074558869 1 0 0 I I #
edge $-1 $118 -10.145284074558869 $181 10.145284074558869 $115 $278 forward 7 unknown #
edge $-1 $119 -10.145284074558869 $180 10.145284074558869 $116 $279 forward 7 unknown #
point $-1 63.64574114200262 -37.835098195038924 10.145284074558869 #
point $-1 63.64574114200262 37.835098195038924 10.145284074558869 #
face $-1 $280 $216 $16 $-1 $281 reversed single #
loop $-1 $-1 $201 $121 #
plane-surface $-1 0 -37.835098195038924 0 0 1 0 0 0 1 forward_v I I I I #
coedge $-1 $127 $124 $282 $283 reversed $71 $-1 #
coedge $-1 $124 $127 $284 $285 reversed $71 $-1 #
coedge $-1 $286 $287 $124 $202 forward $197 $-1 #
edge $-1 $288 -10.145284074558869 $289 10.145284074558869 $201 $290 forward 7 unknown #
coedge $-1 $282 $130 $125 $204 forward $122 $-1 #
edge $-1 $134 -32.237939174758836 $207 -27.202358525574876 $203 $291 forward 7 unknown #
coedge $-1 $132 $284 $126 $206 forward $216 $-1 #
edge $-1 $208 27.202358525574876 $135 32.237939174758836 $205 $292 forward 7 unknown #
vertex $-1 $204 $293 #
vertex $-1 $206 $294 #
straight-curve $-1 -56.922507375741731 -30.512065141561692 0 0 0 -1 I I #
coedge $-1 $295 $296 $129 $211 forward $297 $-1 #
edge $-1 $217 -10.145284074558869 $213 10.145284074558869 $210 $298 forward 7 unknown #
coedge $-1 $130 $299 $295 $300 forward $122 $-1 #
vertex $-1 $211 $301 #
straight-curve $-1 -61.958088024925686 -17.086790834150154 10.145284074558869 0 1 0 I I #
coedge $-1 $302 $132 $296 $303 forward $216 $-1 #
loop $-1 $-1 $132 $196 #
vertex $-1 $303 $304 #
straight-curve $-1 -61.958088024925686 -17.086790834150154 -10.145284074558869 0 -1 0 I I #
point $-1 -61.958088024925686 -30.512065141561692 10.145284074558869 #
point $-1 -61.958088024925686 -30.512065141561692 -10.145284074558869 #
face $-1 $305 $306 $17 $-1 $307 forward single #
loop $-1 $-1 $308 $137 #
plane-surface $-1 -61.958088024925686 -34.173581668300308 0 1 0 0 0 0 -1 forward_v I I I I #
coedge $-1 $140 $309 $310 $311 forward $79 $-1 #
coedge $-1 $142 $141 $232 $312 reversed $49 $-1 #
coedge $-1 $310 $313 $141 $227 forward $314 $-1 #
edge $-1 $315 -52.603004251648969 $228 -39.34360100311924 $226 $316 forward 7 unknown #
vertex $-1 $227 $317 #
straight-curve $-1 24.3696934225582 26.973630986585338 10.145284074558873 -1 0 0 I I #
vertex $-1 $312 $318 #
straight-curve $-1 33.833032548230179 -24.150297477968408 45.942644855883259 0 0.81915203911291934 -0.57357644374324357 I I #
coedge $-1 $319 $145 $225 $312 forward $138 $-1 #
coedge $-1 $145 $320 $147 $236 reversed $138 $-1 #
straight-curve $-1 33.833032548230179 37.835098195038924 75.106861065266102 0 0 -1 I I #
coedge $-1 $321 $147 $322 $323 forward $79 $-1 #
edge $-1 $149 -33.833032548230179 $324 63.64574114200262 $233 $325 forward 7 unknown #
point $-1 33.833032548230179 26.973630986585334 10.145284074558873 #
point $-1 33.833032548230179 37.835098195038924 10.145284074558869 #
face $-1 $326 $327 $18 $-1 $328 reversed single #
loop $-1 $-1 $329 $151 #
plane-surface $-1 0 0 10.145284074558869 0 0 1 1 0 0 forward_v I I I I #
loop $-1 $-1 $330 $86 #
coedge $-1 $244 $154 $331 $332 forward $87 $-1 #
coedge $-1 $154 $243 $333 $334 reversed $87 $-1 #
coedge $-1 $335 $329 $154 $246 forward $240 $-1 #
edge $-1 $336 2.5430818619366278 $337 13.404549070390217 $245 $338 forward 7 unknown #
edge $-1 $339 1 $339 0 $155 $-1 forward 7 unknown #
vertex $-1 $156 $340 #
ellipse-curve $-1 42.350949289308019 30.039304825983201 2.9649880697414956 0 0.57357644374324357 0.81915203911291934 2 0 0 1 I I #
point $-1 44.350949289308019 32.404364590812136 6.3426433938342273 #
face $-1 $341 $166 $19 $-1 $342 forward single #
loop $-1 $-1 $343 $159 #
plane-surface $-1 33.833032548230179 48.861098249297413 150.2137221305322 1 0 0 0 -0.57357644374324357 -0.81915203911291934 forward_v I I I I #
loop $-1 $-1 $344 $94 #
coedge $-1 $255 $255 $256 $345 forward $160 $-1 #
coedge $-1 $256 $256 $255 $345 reversed $162 $-1 #
coedge $-1 $257 $257 $163 $258 forward $262 $-1 #
edge $-1 $346 -2.5471910969054593e-016 $346 6.2831853071796004 $257 $347 forward 7 unknown #
edge $-1 $348 1 $348 0 $164 $-1 forward 7 unknown #
vertex $-1 $165 $349 #
ellipse-curve $-1 55.12782440092478 30.039304825983201 2.9649880697414956 0 0.57357644374324357 0.81915203911291934 2 0 0 1 I I #
loop $-1 $350 $257 $251 #
point $-1 57.12782440092478 32.404364590812136 6.3426433938342273 #
plane-surface $-1 63.64574114200262 0 0 -1 0 0 0 0 1 forward_v I I I I #
coedge $-1 $174 $172 $176 $269 reversed $103 $-1 #
edge $-1 $187 -10.145284074558869 $271 10.145284074558869 $186 $351 forward 7 unknown #
vertex $-1 $269 $352 #
straight-curve $-1 -63.64574114200262 -37.835098195038924 0 0 0 -1 I I #
edge $-1 $267 -37.835098195038924 $271 37.835098195038924 $265 $353 forward 7 unknown #
straight-curve $-1 0 -37.835098195038924 -10.145284074558869 -1 0 0 I I #
vertex $-1 $179 $354 #
straight-curve $-1 0 37.835098195038924 -10.145284074558869 1 0 0 I I #
point $-1 63.64574114200262 37.835098195038924 -10.145284074558869 #
point $-1 63.64574114200262 -37.835098195038924 -10.145284074558869 #
straight-curve $-1 -63.64574114200262 0 10.145284074558869 0 -1 0 I I #
point $-1 -63.64574114200262 37.835098195038924 10.145284074558869 #
point $-1 -63.64574114200262 -37.835098195038924 10.145284074558869 #
straight-curve $-1 63.64574114200262 -37.835098195038924 0 0 0 -1 I I #
straight-curve $-1 63.64574114200262 37.835098195038924 0 0 0 -1 I I #
face $-1 $355 $297 $16 $-1 $198 reversed single #
plane-surface $-1 0 0 -10.145284074558869 0 0 1 1 0 0 forward_v I I I I #
coedge $-1 $356 $203 $199 $283 forward $122 $-1 #
edge $-1 $207 13.425274307411538 $288 20.74830736088877 $282 $357 forward 7 unknown #
coedge $-1 $205 $358 $200 $285 forward $216 $-1 #
edge $-1 $289 -20.74830736088877 $208 -13.425274307411538 $284 $359 forward 7 unknown #
coedge $-1 $360 $201 $358 $361 reversed $197 $-1 #
coedge $-1 $201 $360 $356 $362 reversed $197 $-1 #
vertex $-1 $362 $363 #
vertex $-1 $202 $364 #
straight-curve $-1 -56.922507375741731 -37.835098195038924 0 0 0 -1 I I #
straight-curve $-1 -29.720148850166854 -30.512065141561692 10.145284074558869 1 0 0 I I #
straight-curve $-1 -29.720148850166854 -30.512065141561692 -10.145284074558869 -1 0 0 I I #
point $-1 -56.922507375741731 -30.512065141561692 10.145284074558869 #
point $-1 -56.922507375741731 -30.512065141561692 -10.145284074558869 #
coedge $-1 $365 $210 $212 $300 reversed $297 $-1 #
coedge $-1 $210 $365 $215 $303 reversed $297 $-1 #
loop $-1 $-1 $210 $280 #
straight-curve $-1 -61.958088024925686 -37.835098195038924 0 0 0 1 I I #
coedge $-1 $212 $366 $367 $368 forward $122 $-1 #
edge $-1 $369 -63.64574114200262 $213 -61.958088024925686 $295 $370 forward 7 unknown #
point $-1 -61.958088024925686 -37.835098195038924 10.145284074558869 #
coedge $-1 $371 $215 $372 $373 forward $216 $-1 #
edge $-1 $217 61.958088024925686 $374 63.64574114200262 $296 $375 forward 7 unknown #
point $-1 -61.958088024925686 -37.835098195038924 -10.145284074558869 #
face $-1 $376 $377 $17 $-1 $378 forward single #
loop $-1 $-1 $379 $221 #
plane-surface $-1 -59.440297700333709 -30.512065141561692 0 0 -1 0 0 0 -1 forward_v I I I I #
coedge $-1 $380 $381 $382 $383 reversed $222 $-1 #
coedge $-1 $224 $384 $385 $386 forward $79 $-1 #
coedge $-1 $387 $226 $224 $311 reversed $314 $-1 #
edge $-1 $388 -37.835098195038924 $228 26.973630986585334 $310 $389 forward 7 unknown #
edge $-1 $230 9.463339125671979 $315 39.276047719444421 $232 $390 forward 7 unknown #
coedge $-1 $226 $391 $319 $392 reversed $314 $-1 #
loop $-1 $-1 $226 $393 #
vertex $-1 $392 $394 #
straight-curve $-1 63.64574114200262 -5.2547600011648887 32.711846821981119 0 -0.81915203911291934 0.57357644374324357 I I #
point $-1 63.64574114200262 26.973630986585334 10.145284074558873 #
point $-1 33.833032548230179 37.835098195038931 2.5400027131095797 #
coedge $-1 $395 $232 $313 $392 forward $138 $-1 #
coedge $-1 $233 $395 $396 $397 reversed $138 $-1 #
coedge $-1 $398 $235 $399 $400 forward $79 $-1 #
coedge $-1 $396 $401 $235 $323 reversed $402 $-1 #
edge $-1 $324 -37.835098195038924 $403 37.835098195038924 $322 $404 forward 7 unknown #
vertex $-1 $236 $405 #
straight-curve $-1 0 37.835098195038924 10.145284074558869 -1 0 0 I I #
face $-1 $406 $407 $18 $-1 $408 forward single #
loop $-1 $-1 $333 $239 #
plane-surface $-1 0 37.835098195038924 0 0 -1 0 0 0 -1 forward_v I I I I #
coedge $-1 $245 $409 $330 $410 forward $240 $-1 #
coedge $-1 $411 $331 $329 $410 reversed $242 $-1 #
coedge $-1 $330 $412 $243 $332 reversed $242 $-1 #
edge $-1 $336 62.410793141548112 $413 75.670196390077848 $243 $414 forward 7 unknown #
coedge $-1 $415 $416 $244 $334 forward $327 $-1 #
edge $-1 $337 64.961576990707229 $413 72.566858352156515 $333 $417 forward 7 unknown #
coedge $-1 $418 $245 $416 $419 forward $240 $-1 #
vertex $-1 $410 $420 #
vertex $-1 $419 $421 #
straight-curve $-1 33.833032548230179 24.430549124648707 10.145284074558873 0 1 0 I I #
vertex $-1 $247 $422 #
point $-1 44.350949289308019 30.039304825983201 2.9649880697414956 #
face $-1 $423 $424 $19 $-1 $425 forward single #
plane-surface $-1 48.7393868451164 -24.150297477968408 45.942644855883259 0 0.57357644374324357 0.81915203911291934 1 0 0 forward_v I I I I #
coedge $-1 $426 $427 $428 $429 reversed $252 $-1 #
coedge $-1 $344 $344 $-1 $430 forward $254 $-1 #
edge $-1 $431 0 $431 6.2831853071796004 $255 $432 forward 7 unknown #
vertex $-1 $258 $433 #
ellipse-curve $-1 42.350949289308019 32.404364590812136 6.3426433938342281 0 -0.57357644374324357 -0.81915203911291934 2 0 0 1 I I #
vertex $-1 $259 $434 #
point $-1 57.12782440092478 30.039304825983201 2.9649880697414956 #
loop $-1 $-1 $435 $251 #
straight-curve $-1 -63.64574114200262 37.835098195038924 0 0 0 -1 I I #
point $-1 -63.64574114200262 -37.835098195038924 -10.145284074558869 #
straight-curve $-1 -63.64574114200262 0 -10.145284074558869 0 1 0 I I #
point $-1 -63.64574114200262 37.835098195038924 -10.145284074558869 #
face $-1 $436 $437 $16 $-1 $438 reversed single #
coedge $-1 $439 $282 $287 $362 forward $122 $-1 #
straight-curve $-1 -56.922507375741731 -17.086790834150154 10.145284074558869 0 -1 0 I I #
coedge $-1 $284 $440 $286 $361 forward $216 $-1 #
straight-curve $-1 -56.922507375741731 -17.086790834150154 -10.145284074558869 0 1 0 I I #
coedge $-1 $287 $286 $441 $442 reversed $197 $-1 #
edge $-1 $443 -63.64574114200262 $289 56.922507375741731 $286 $375 forward 7 unknown #
edge $-1 $288 -56.922507375741731 $444 63.64574114200262 $287 $370 forward 7 unknown #
point $-1 -56.922507375741731 -37.835098195038924 10.145284074558869 #
point $-1 -56.922507375741731 -37.835098195038924 -10.145284074558869 #
coedge $-1 $296 $295 $445 $446 forward $297 $-1 #
coedge $-1 $299 $439 $447 $448 forward $122 $-1 #
coedge $-1 $449 $445 $299 $368 reversed $437 $-1 #
edge $-1 $450 -37.835098195038924 $369 37.835098195038924 $367 $451 forward 7 unknown #
vertex $-1 $368 $452 #
straight-curve $-1 0 -37.835098195038924 10.145284074558869 1 0 0 I I #
coedge $-1 $440 $302 $453 $454 forward $216 $-1 #
coedge $-1 $445 $449 $302 $373 reversed $437 $-1 #
edge $-1 $374 -37.835098195038924 $455 37.835098195038924 $372 $456 forward 7 unknown #
vertex $-1 $373 $457 #
straight-curve $-1 0 -37.835098195038924 -10.145284074558869 -1 0 0 I I #
face $-1 $458 $459 $17 $-1 $460 reversed single #
loop $-1 $-1 $461 $305 #
plane-surface $-1 -56.922507375741731 -34.173581668300308 0 -1 0 0 0 0 1 forward_v I I I I #
coedge $-1 $462 $463 $464 $465 reversed $306 $-1 #
coedge $-1 $466 $308 $398 $467 reversed $222 $-1 #
coedge $-1 $308 $466 $468 $469 reversed $222 $-1 #
coedge $-1 $463 $462 $308 $383 forward $306 $-1 #
edge $-1 $470 -10.145284074558869 $471 10.145284074558869 $382 $472 forward 7 unknown #
coedge $-1 $309 $473 $474 $475 forward $79 $-1 #
coedge $-1 $476 $477 $309 $386 reversed $459 $-1 #
edge $-1 $478 -56.922507375741731 $388 63.64574114200262 $385 $479 forward 7 unknown #
coedge $-1 $391 $310 $477 $480 forward $314 $-1 #
vertex $-1 $311 $481 #
straight-curve $-1 63.64574114200262 0 10.145284074558869 0 1 0 I I #
straight-curve $-1 24.3696934225582 37.835098195038924 2.5400027131095868 1 0 0 I I #
coedge $-1 $313 $387 $482 $483 reversed $314 $-1 #
edge $-1 $315 -2.5400027131095797 $484 10.145284074558869 $313 $485 forward 7 unknown #
face $-1 $-1 $314 $17 $-1 $486 reversed single #
point $-1 63.64574114200262 37.835098195038931 2.5400027131095797 #
coedge $-1 $320 $319 $487 $488 reversed $138 $-1 #
coedge $-1 $489 $322 $320 $397 forward $402 $-1 #
edge $-1 $324 -10.145284074558869 $490 10.145284074558869 $320 $491 forward 7 unknown #
coedge $-1 $473 $321 $380 $467 forward $79 $-1 #
coedge $-1 $492 $493 $321 $400 reversed $494 $-1 #
edge $-1 $403 -63.64574114200262 $495 -61.958088024925686 $399 $479 forward 7 unknown #
coedge $-1 $322 $489 $492 $496 reversed $402 $-1 #
loop $-1 $-1 $396 $497 #
vertex $-1 $323 $498 #
straight-curve $-1 -63.64574114200262 0 10.145284074558869 0 -1 0 I I #
point $-1 -63.64574114200262 37.835098195038924 10.145284074558869 #
face $-1 $499 $500 $18 $-1 $501 forward single #
loop $-1 $-1 $502 $326 #
plane-surface $-1 -61.958088024925686 -34.173581668300308 0 1 0 0 0 0 -1 forward_v I I I I #
coedge $-1 $329 $503 $504 $505 forward $240 $-1 #
edge $-1 $506 -39.276047719444421 $336 -9.463339125671979 $329 $507 forward 7 unknown #
coedge $-1 $412 $330 $508 $509 reversed $242 $-1 #
coedge $-1 $331 $411 $415 $510 reversed $242 $-1 #
vertex $-1 $510 $511 #
straight-curve $-1 33.833032548230179 -24.150297477968408 45.942644855883259 0 0.81915203911291934 -0.57357644374324357 I I #
coedge $-1 $512 $333 $412 $510 forward $327 $-1 #
coedge $-1 $333 $513 $335 $419 reversed $327 $-1 #
straight-curve $-1 33.833032548230179 37.835098195038924 75.106861065266102 0 0 -1 I I #
coedge $-1 $514 $335 $515 $516 forward $240 $-1 #
edge $-1 $337 -33.833032548230179 $517 63.64574114200262 $416 $518 forward 7 unknown #
point $-1 33.833032548230179 26.973630986585334 10.145284074558873 #
point $-1 33.833032548230179 37.835098195038924 10.145284074558869 #
point $-1 42.350949289308019 28.892151938496717 1.3266839915156567 #
face $-1 $519 $520 $19 $-1 $521 reversed single #
loop $-1 $-1 $522 $341 #
plane-surface $-1 0 0 10.145284074558869 0 0 1 1 0 0 forward_v I I I I #
coedge $-1 $427 $343 $523 $524 forward $252 $-1 #
coedge $-1 $343 $426 $525 $526 reversed $252 $-1 #
coedge $-1 $527 $522 $343 $429 forward $424 $-1 #
edge $-1 $528 2.5430818619366278 $529 13.404549070390217 $428 $530 forward 7 unknown #
edge $-1 $531 1 $531 0 $344 $-1 forward 7 unknown #
vertex $-1 $345 $532 #
ellipse-curve $-1 42.350949289308019 30.039304825983201 2.9649880697414956 0 0.57357644374324357 0.81915203911291934 2 0 0 1 I I #
point $-1 44.350949289308019 32.404364590812136 6.3426433938342273 #
point $-1 55.12782440092478 28.892151938496717 1.3266839915156567 #
coedge $-1 $533 $523 $522 $534 reversed $350 $-1 #
face $-1 $535 $536 $16 $-1 $537 reversed single #
loop $-1 $-1 $449 $355 #
plane-surface $-1 -63.64574114200262 0 0 1 0 0 0 0 -1 forward_v I I I I #
coedge $-1 $366 $356 $538 $539 forward $122 $-1 #
coedge $-1 $358 $371 $540 $541 forward $216 $-1 #
coedge $-1 $540 $538 $360 $442 forward $542 $-1 #
edge $-1 $444 -10.145284074558869 $443 10.145284074558869 $441 $543 forward 7 unknown #
vertex $-1 $442 $544 #
vertex $-1 $539 $545 #
coedge $-1 $367 $372 $365 $446 reversed $437 $-1 #
edge $-1 $369 -10.145284074558869 $374 10.145284074558869 $445 $546 forward 7 unknown #
coedge $-1 $547 $548 $366 $448 reversed $536 $-1 #
edge $-1 $549 -63.64574114200262 $450 63.64574114200262 $447 $550 forward 7 unknown #
coedge $-1 $372 $367 $548 $551 forward $437 $-1 #
vertex $-1 $448 $552 #
straight-curve $-1 -63.64574114200262 0 10.145284074558869 0 -1 0 I I #
point $-1 -63.64574114200262 -37.835098195038924 10.145284074558869 #
coedge $-1 $548 $547 $371 $454 reversed $536 $-1 #
edge $-1 $455 -63.64574114200262 $553 63.64574114200262 $453 $554 forward 7 unknown #
vertex $-1 $454 $555 #
straight-curve $-1 -63.64574114200262 0 -10.145284074558869 0 1 0 I I #
point $-1 -63.64574114200262 -37.835098195038924 -10.145284074558869 #
face $-1 $556 $557 $17 $-1 $558 reversed single #
loop $-1 $-1 $476 $376 #
plane-surface $-1 0 -37.835098195038924 0 0 1 0 0 0 1 forward_v I I I I #
coedge $-1 $474 $559 $476 $560 reversed $377 $-1 #
coedge $-1 $382 $379 $473 $561 reversed $306 $-1 #
coedge $-1 $379 $382 $562 $563 reversed $306 $-1 #
coedge $-1 $559 $474 $379 $465 forward $377 $-1 #
edge $-1 $564 -10.145284074558869 $565 10.145284074558869 $464 $566 forward 7 unknown #
coedge $-1 $381 $380 $493 $567 reversed $222 $-1 #
edge $-1 $495 -20.74830736088877 $470 -13.425274307411538 $398 $568 forward 7 unknown #
coedge $-1 $569 $562 $381 $469 forward $557 $-1 #
edge $-1 $471 13.425274307411538 $570 20.74830736088877 $468 $571 forward 7 unknown #
vertex $-1 $467 $572 #
vertex $-1 $469 $573 #
straight-curve $-1 -61.958088024925686 -30.512065141561692 0 0 0 -1 I I #
coedge $-1 $384 $398 $462 $561 forward $79 $-1 #
coedge $-1 $464 $461 $384 $475 reversed $377 $-1 #
edge $-1 $564 13.425274307411538 $478 20.74830736088877 $384 $574 forward 7 unknown #
coedge $-1 $575 $385 $461 $560 forward $459 $-1 #
coedge $-1 $385 $575 $387 $480 reversed $459 $-1 #
vertex $-1 $386 $576 #
straight-curve $-1 0 -37.835098195038924 10.145284074558869 1 0 0 I I #
edge $-1 $388 -10.145284074558869 $577 10.145284074558869 $387 $578 forward 7 unknown #
point $-1 63.64574114200262 -37.835098195038924 10.145284074558869 #
coedge $-1 $579 $487 $391 $483 forward $557 $-1 #
edge $-1 $484 -37.835098195038924 $577 37.835098195038924 $391 $580 forward 7 unknown #
vertex $-1 $483 $581 #
straight-curve $-1 63.64574114200262 37.835098195038924 0 0 0 -1 I I #
plane-surface $-1 63.64574114200262 0 0 -1 0 0 0 0 1 forward_v I I I I #
coedge $-1 $482 $582 $395 $488 forward $557 $-1 #
edge $-1 $490 -63.64574114200262 $484 63.64574114200262 $395 $583 forward 7 unknown #
coedge $-1 $401 $396 $582 $584 reversed $402 $-1 #
vertex $-1 $488 $585 #
straight-curve $-1 -63.64574114200262 37.835098195038924 0 0 0 -1 I I #
coedge $-1 $586 $399 $401 $496 forward $494 $-1 #
coedge $-1 $399 $586 $466 $567 forward $494 $-1 #
loop $-1 $-1 $493 $556 #
vertex $-1 $567 $587 #
edge $-1 $403 -10.145284074558869 $588 10.145284074558869 $401 $589 forward 7 unknown #
face $-1 $393 $402 $17 $-1 $590 reversed single #
point $-1 -63.64574114200262 -37.835098195038924 10.145284074558869 #
face $-1 $591 $592 $18 $-1 $593 forward single #
loop $-1 $-1 $594 $406 #
plane-surface $-1 -59.440297700333709 -30.512065141561692 0 0 -1 0 0 0 -1 forward_v I I I I #
coedge $-1 $595 $596 $597 $598 reversed $407 $-1 #
coedge $-1 $409 $599 $600 $601 forward $240 $-1 #
coedge $-1 $602 $508 $409 $505 reversed $603 $-1 #
edge $-1 $604 -37.835098195038924 $506 26.973630986585334 $504 $605 forward 7 unknown #
vertex $-1 $509 $606 #
straight-curve $-1 24.3696934225582 26.973630986585338 10.145284074558873 -1 0 0 I I #
coedge $-1 $504 $607 $411 $509 forward $603 $-1 #
edge $-1 $608 -52.603004251648969 $506 -39.34360100311924 $508 $609 forward 7 unknown #
edge $-1 $413 9.463339125671979 $608 39.276047719444421 $415 $610 forward 7 unknown #
point $-1 33.833032548230179 37.835098195038931 2.5400027131095797 #
coedge $-1 $611 $415 $607 $612 forward $327 $-1 #
coedge $-1 $416 $611 $613 $614 reversed $327 $-1 #
coedge $-1 $615 $418 $616 $617 forward $240 $-1 #
coedge $-1 $613 $618 $418 $516 reversed $619 $-1 #
edge $-1 $517 -37.835098195038924 $620 37.835098195038924 $515 $621 forward 7 unknown #
vertex $-1 $419 $622 #
straight-curve $-1 0 37.835098195038924 10.145284074558869 -1 0 0 I I #
face $-1 $623 $624 $19 $-1 $625 forward single #
loop $-1 $-1 $525 $423 #
plane-surface $-1 0 37.835098195038924 0 0 -1 0 0 0 -1 forward_v I I I I #
coedge $-1 $428 $626 $435 $534 forward $424 $-1 #
coedge $-1 $435 $627 $426 $524 reversed $350 $-1 #
edge $-1 $528 62.410793141548112 $628 75.670196390077848 $426 $629 forward 7 unknown #
coedge $-1 $630 $631 $427 $526 forward $520 $-1 #
edge $-1 $529 64.961576990707229 $628 72.566858352156515 $525 $632 forward 7 unknown #
coedge $-1 $633 $428 $631 $634 forward $424 $-1 #
vertex $-1 $534 $635 #
vertex $-1 $634 $636 #
straight-curve $-1 33.833032548230179 24.430549124648707 10.145284074558873 0 1 0 I I #
vertex $-1 $430 $637 #
point $-1 44.350949289308019 30.039304825983201 2.9649880697414956 #
coedge $-1 $627 $435 $638 $639 reversed $350 $-1 #
edge $-1 $640 -39.276047719444421 $528 -9.463339125671979 $522 $641 forward 7 unknown #
face $-1 $-1 $542 $16 $-1 $642 reversed single #
loop $-1 $-1 $547 $436 #
plane-surface $-1 0 37.835098195038924 0 0 -1 0 0 0 -1 forward_v I I I I #
coedge $-1 $441 $643 $439 $539 reversed $542 $-1 #
edge $-1 $444 -37.835098195038924 $549 37.835098195038924 $538 $644 forward 7 unknown #
coedge $-1 $643 $441 $440 $541 reversed $542 $-1 #
edge $-1 $553 -37.835098195038924 $443 37.835098195038924 $540 $645 forward 7 unknown #
loop $-1 $-1 $441 $535 #
straight-curve $-1 63.64574114200262 -37.835098195038924 0 0 0 -1 I I #
point $-1 63.64574114200262 -37.835098195038924 -10.145284074558869 #
point $-1 63.64574114200262 -37.835098195038924 10.145284074558869 #
straight-curve $-1 -63.64574114200262 -37.835098195038924 0 0 0 -1 I I #
coedge $-1 $453 $447 $643 $646 forward $536 $-1 #
coedge $-1 $447 $453 $449 $551 reversed $536 $-1 #
vertex $-1 $539 $647 #
straight-curve $-1 0 37.835098195038924 10.145284074558869 -1 0 0 I I #
edge $-1 $450 -10.145284074558869 $455 10.145284074558869 $548 $648 forward 7 unknown #
point $-1 -63.64574114200262 37.835098195038924 10.145284074558869 #
vertex $-1 $541 $649 #
straight-curve $-1 0 37.835098195038924 -10.145284074558869 1 0 0 I I #
point $-1 -63.64574114200262 37.835098195038924 -10.145284074558869 #
face $-1 $497 $494 $17 $-1 $460 reversed single #
loop $-1 $-1 $468 $458 #
plane-surface $-1 0 0 -10.145284074558869 0 0 1 1 0 0 forward_v I I I I #
coedge $-1 $461 $464 $650 $651 reversed $377 $-1 #
edge $-1 $478 -10.145284074558869 $652 10.145284074558869 $476 $653 forward 7 unknown #
edge $-1 $470 -32.237939174758836 $564 -27.202358525574876 $473 $654 forward 7 unknown #
coedge $-1 $468 $650 $463 $563 forward $557 $-1 #
edge $-1 $565 27.202358525574876 $471 32.237939174758836 $562 $655 forward 7 unknown #
vertex $-1 $561 $656 #
vertex $-1 $563 $657 #
straight-curve $-1 -56.922507375741731 -30.512065141561692 0 0 0 -1 I I #
edge $-1 $570 -10.145284074558869 $495 10.145284074558869 $493 $658 forward 7 unknown #
straight-curve $-1 -61.958088024925686 -17.086790834150154 10.145284074558869 0 1 0 I I #
coedge $-1 $582 $468 $586 $659 forward $557 $-1 #
vertex $-1 $659 $660 #
straight-curve $-1 -61.958088024925686 -17.086790834150154 -10.145284074558869 0 -1 0 I I #
point $-1 -61.958088024925686 -30.512065141561692 10.145284074558869 #
point $-1 -61.958088024925686 -30.512065141561692 -10.145284074558869 #
straight-curve $-1 -56.922507375741731 -17.086790834150154 10.145284074558869 0 -1 0 I I #
coedge $-1 $477 $476 $579 $661 reversed $459 $-1 #
point $-1 -56.922507375741731 -37.835098195038924 10.145284074558869 #
vertex $-1 $480 $662 #
straight-curve $-1 63.64574114200262 -37.835098195038924 0 0 0 -1 I I #
coedge $-1 $650 $482 $575 $661 forward $557 $-1 #
straight-curve $-1 63.64574114200262 0 -10.145284074558869 0 -1 0 I I #
point $-1 63.64574114200262 37.835098195038924 -10.145284074558869 #
coedge $-1 $487 $569 $489 $584 forward $557 $-1 #
straight-curve $-1 0 37.835098195038924 -10.145284074558869 1 0 0 I I #
edge $-1 $588 -37.835098195038924 $490 37.835098195038924 $489 $663 forward 7 unknown #
point $-1 -63.64574114200262 37.835098195038924 -10.145284074558869 #
coedge $-1 $493 $492 $569 $659 reversed $494 $-1 #
point $-1 -61.958088024925686 -37.835098195038924 10.145284074558869 #
vertex $-1 $584 $664 #
straight-curve $-1 -63.64574114200262 -37.835098195038924 0 0 0 -1 I I #
plane-surface $-1 -63.64574114200262 0 0 1 0 0 0 0 -1 forward_v I I I I #
face $-1 $665 $666 $18 $-1 $667 reversed single #
loop $-1 $-1 $668 $499 #
plane-surface $-1 -56.922507375741731 -34.173581668300308 0 -1 0 0 0 0 1 forward_v I I I I #
coedge $-1 $669 $670 $671 $672 reversed $500 $-1 #
coedge $-1 $673 $502 $615 $674 reversed $407 $-1 #
coedge $-1 $502 $673 $675 $676 reversed $407 $-1 #
coedge $-1 $670 $669 $502 $598 forward $500 $-1 #
edge $-1 $677 -10.145284074558869 $678 10.145284074558869 $597 $679 forward 7 unknown #
coedge $-1 $503 $680 $681 $682 forward $240 $-1 #
coedge $-1 $683 $684 $503 $601 reversed $666 $-1 #
edge $-1 $685 -56.922507375741731 $604 63.64574114200262 $600 $686 forward 7 unknown #
coedge $-1 $687 $504 $684 $688 forward $603 $-1 #
loop $-1 $-1 $508 $689 #
vertex $-1 $505 $690 #
straight-curve $-1 63.64574114200262 0 10.145284074558869 0 1 0 I I #
point $-1 63.64574114200262 26.973630986585334 10.145284074558873 #
coedge $-1 $508 $687 $512 $612 reversed $603 $-1 #
vertex $-1 $612 $691 #
straight-curve $-1 63.64574114200262 -5.2547600011648887 32.711846821981119 0 -0.81915203911291934 0.57357644374324357 I I #
straight-curve $-1 24.3696934225582 37.835098195038924 2.5400027131095868 1 0 0 I I #
coedge $-1 $513 $512 $692 $693 reversed $327 $-1 #
edge $-1 $608 -2.5400027131095797 $694 10.145284074558869 $607 $695 forward 7 unknown #
coedge $-1 $696 $515 $513 $614 forward $619 $-1 #
edge $-1 $517 -10.145284074558869 $697 10.145284074558869 $513 $698 forward 7 unknown #
coedge $-1 $680 $514 $595 $674 forward $240 $-1 #
coedge $-1 $699 $700 $514 $617 reversed $701 $-1 #
edge $-1 $620 -63.64574114200262 $702 -61.958088024925686 $616 $686 forward 7 unknown #
coedge $-1 $515 $696 $699 $703 reversed $619 $-1 #
loop $-1 $-1 $613 $704 #
vertex $-1 $516 $705 #
straight-curve $-1 -63.64574114200262 0 10.145284074558869 0 -1 0 I I #
point $-1 -63.64574114200262 37.835098195038924 10.145284074558869 #
face $-1 $706 $707 $19 $-1 $708 forward single #
loop $-1 $-1 $709 $519 #
plane-surface $-1 -61.958088024925686 -34.173581668300308 0 1 0 0 0 0 -1 forward_v I I I I #
coedge $-1 $522 $710 $711 $712 forward $424 $-1 #
coedge $-1 $523 $533 $630 $713 reversed $350 $-1 #
vertex $-1 $713 $714 #
straight-curve $-1 33.833032548230179 -24.150297477968408 45.942644855883259 0 0.81915203911291934 -0.57357644374324357 I I #
coedge $-1 $715 $525 $627 $713 forward $520 $-1 #
coedge $-1 $525 $716 $527 $634 reversed $520 $-1 #
straight-curve $-1 33.833032548230179 37.835098195038924 75.106861065266102 0 0 -1 I I #
coedge $-1 $717 $527 $718 $719 forward $424 $-1 #
edge $-1 $529 -33.833032548230179 $720 63.64574114200262 $631 $721 forward 7 unknown #
point $-1 33.833032548230179 26.973630986585334 10.145284074558873 #
point $-1 33.833032548230179 37.835098195038924 10.145284074558869 #
point $-1 42.350949289308019 28.892151938496717 1.3266839915156567 #
coedge $-1 $711 $722 $533 $639 forward $723 $-1 #
edge $-1 $724 -52.603004251648969 $640 -39.34360100311924 $638 $725 forward 7 unknown #
vertex $-1 $639 $726 #
straight-curve $-1 24.3696934225582 26.973630986585338 10.145284074558873 -1 0 0 I I #
plane-surface $-1 63.64574114200262 0 0 -1 0 0 0 0 1 forward_v I I I I #
coedge $-1 $538 $540 $547 $646 reversed $542 $-1 #
straight-curve $-1 63.64574114200262 0 10.145284074558869 0 1 0 I I #
straight-curve $-1 63.64574114200262 0 -10.145284074558869 0 -1 0 I I #
edge $-1 $549 -10.145284074558869 $553 10.145284074558869 $643 $727 forward 7 unknown #
point $-1 63.64574114200262 37.835098195038924 10.145284074558869 #
straight-curve $-1 -63.64574114200262 37.835098195038924 0 0 0 -1 I I #
point $-1 63.64574114200262 37.835098195038924 -10.145284074558869 #
coedge $-1 $562 $579 $559 $651 forward $557 $-1 #
edge $-1 $652 -20.74830736088877 $565 -13.425274307411538 $650 $728 forward 7 unknown #
vertex $-1 $560 $729 #
straight-curve $-1 -56.922507375741731 -37.835098195038924 0 0 0 -1 I I #
straight-curve $-1 -29.720148850166854 -30.512065141561692 10.145284074558869 1 0 0 I I #
straight-curve $-1 -29.720148850166854 -30.512065141561692 -10.145284074558869 -1 0 0 I I #
point $-1 -56.922507375741731 -30.512065141561692 10.145284074558869 #
point $-1 -56.922507375741731 -30.512065141561692 -10.145284074558869 #
straight-curve $-1 -61.958088024925686 -37.835098195038924 0 0 0 1 I I #
edge $-1 $570 61.958088024925686 $588 63.64574114200262 $586 $730 forward 7 unknown #
point $-1 -61.958088024925686 -37.835098195038924 -10.145284074558869 #
edge $-1 $577 -63.64574114200262 $652 56.922507375741731 $575 $730 forward 7 unknown #
point $-1 63.64574114200262 -37.835098195038924 -10.145284074558869 #
straight-curve $-1 -63.64574114200262 0 -10.145284074558869 0 1 0 I I #
point $-1 -63.64574114200262 -37.835098195038924 -10.145284074558869 #
face $-1 $731 $732 $18 $-1 $733 reversed single #
loop $-1 $-1 $683 $591 #
plane-surface $-1 0 -37.835098195038924 0 0 1 0 0 0 1 forward_v I I I I #
coedge $-1 $681 $734 $683 $735 reversed $592 $-1 #
coedge $-1 $597 $594 $680 $736 reversed $500 $-1 #
coedge $-1 $594 $597 $737 $738 reversed $500 $-1 #
coedge $-1 $734 $681 $594 $672 forward $592 $-1 #
edge $-1 $739 -10.145284074558869 $740 10.145284074558869 $671 $741 forward 7 unknown #
coedge $-1 $596 $595 $700 $742 reversed $407 $-1 #
edge $-1 $702 -20.74830736088877 $677 -13.425274307411538 $615 $743 forward 7 unknown #
coedge $-1 $744 $737 $596 $676 forward $732 $-1 #
edge $-1 $678 13.425274307411538 $745 20.74830736088877 $675 $746 forward 7 unknown #
vertex $-1 $674 $747 #
vertex $-1 $676 $748 #
straight-curve $-1 -61.958088024925686 -30.512065141561692 0 0 0 -1 I I #
coedge $-1 $599 $615 $669 $736 forward $240 $-1 #
coedge $-1 $671 $668 $599 $682 reversed $592 $-1 #
edge $-1 $739 13.425274307411538 $685 20.74830736088877 $599 $749 forward 7 unknown #
coedge $-1 $750 $600 $668 $735 forward $666 $-1 #
coedge $-1 $600 $750 $602 $688 reversed $666 $-1 #
vertex $-1 $601 $751 #
straight-curve $-1 0 -37.835098195038924 10.145284074558869 1 0 0 I I #
coedge $-1 $607 $602 $752 $753 reversed $603 $-1 #
edge $-1 $604 -10.145284074558869 $754 10.145284074558869 $602 $755 forward 7 unknown #
face $-1 $-1 $603 $18 $-1 $756 reversed single #
point $-1 63.64574114200262 -37.835098195038924 10.145284074558869 #
point $-1 63.64574114200262 37.835098195038931 2.5400027131095797 #
coedge $-1 $752 $757 $611 $693 forward $732 $-1 #
edge $-1 $697 -63.64574114200262 $694 63.64574114200262 $611 $758 forward 7 unknown #
vertex $-1 $753 $759 #
straight-curve $-1 63.64574114200262 37.835098195038924 0 0 0 -1 I I #
coedge $-1 $618 $613 $757 $760 reversed $619 $-1 #
vertex $-1 $693 $761 #
straight-curve $-1 -63.64574114200262 37.835098195038924 0 0 0 -1 I I #
coedge $-1 $762 $616 $618 $703 forward $701 $-1 #
coedge $-1 $616 $762 $673 $742 forward $701 $-1 #
loop $-1 $-1 $700 $731 #
vertex $-1 $742 $763 #
edge $-1 $620 -10.145284074558869 $764 10.145284074558869 $618 $765 forward 7 unknown #
face $-1 $689 $619 $18 $-1 $766 reversed single #
point $-1 -63.64574114200262 -37.835098195038924 10.145284074558869 #
face $-1 $767 $768 $19 $-1 $769 forward single #
loop $-1 $-1 $770 $623 #
plane-surface $-1 -59.440297700333709 -30.512065141561692 0 0 -1 0 0 0 -1 forward_v I I I I #
coedge $-1 $771 $772 $773 $774 reversed $624 $-1 #
coedge $-1 $626 $775 $776 $777 forward $424 $-1 #
coedge $-1 $778 $638 $626 $712 reversed $723 $-1 #
edge $-1 $779 -37.835098195038924 $640 26.973630986585334 $711 $780 forward 7 unknown #
edge $-1 $628 9.463339125671979 $724 39.276047719444421 $630 $781 forward 7 unknown #
point $-1 33.833032548230179 37.835098195038931 2.5400027131095797 #
coedge $-1 $782 $630 $722 $783 forward $520 $-1 #
coedge $-1 $631 $782 $784 $785 reversed $520 $-1 #
coedge $-1 $786 $633 $787 $788 forward $424 $-1 #
coedge $-1 $784 $789 $633 $719 reversed $790 $-1 #
edge $-1 $720 -37.835098195038924 $791 37.835098195038924 $718 $792 forward 7 unknown #
vertex $-1 $634 $793 #
straight-curve $-1 0 37.835098195038924 10.145284074558869 -1 0 0 I I #
coedge $-1 $638 $794 $715 $783 reversed $723 $-1 #
loop $-1 $-1 $638 $795 #
vertex $-1 $783 $796 #
straight-curve $-1 63.64574114200262 -5.2547600011648887 32.711846821981119 0 -0.81915203911291934 0.57357644374324357 I I #
point $-1 63.64574114200262 26.973630986585334 10.145284074558873 #
straight-curve $-1 63.64574114200262 37.835098195038924 0 0 0 -1 I I #
straight-curve $-1 -56.922507375741731 -17.086790834150154 -10.145284074558869 0 1 0 I I #
point $-1 -56.922507375741731 -37.835098195038924 -10.145284074558869 #
straight-curve $-1 0 -37.835098195038924 -10.145284074558869 -1 0 0 I I #
face $-1 $704 $701 $18 $-1 $667 reversed single #
loop $-1 $-1 $675 $665 #
plane-surface $-1 0 0 -10.145284074558869 0 0 1 1 0 0 forward_v I I I I #
coedge $-1 $668 $671 $797 $798 reversed $592 $-1 #
edge $-1 $685 -10.145284074558869 $799 10.145284074558869 $683 $800 forward 7 unknown #
edge $-1 $677 -32.237939174758836 $739 -27.202358525574876 $680 $801 forward 7 unknown #
coedge $-1 $675 $797 $670 $738 forward $732 $-1 #
edge $-1 $740 27.202358525574876 $678 32.237939174758836 $737 $802 forward 7 unknown #
vertex $-1 $736 $803 #
vertex $-1 $738 $804 #
straight-curve $-1 -56.922507375741731 -30.512065141561692 0 0 0 -1 I I #
edge $-1 $745 -10.145284074558869 $702 10.145284074558869 $700 $805 forward 7 unknown #
straight-curve $-1 -61.958088024925686 -17.086790834150154 10.145284074558869 0 1 0 I I #
coedge $-1 $757 $675 $762 $806 forward $732 $-1 #
vertex $-1 $806 $807 #
straight-curve $-1 -61.958088024925686 -17.086790834150154 -10.145284074558869 0 -1 0 I I #
point $-1 -61.958088024925686 -30.512065141561692 10.145284074558869 #
point $-1 -61.958088024925686 -30.512065141561692 -10.145284074558869 #
straight-curve $-1 -56.922507375741731 -17.086790834150154 10.145284074558869 0 -1 0 I I #
coedge $-1 $684 $683 $808 $809 reversed $666 $-1 #
point $-1 -56.922507375741731 -37.835098195038924 10.145284074558869 #
coedge $-1 $808 $692 $687 $753 forward $732 $-1 #
edge $-1 $694 -37.835098195038924 $754 37.835098195038924 $687 $810 forward 7 unknown #
vertex $-1 $688 $811 #
straight-curve $-1 63.64574114200262 -37.835098195038924 0 0 0 -1 I I #
plane-surface $-1 63.64574114200262 0 0 -1 0 0 0 0 1 forward_v I I I I #
coedge $-1 $692 $744 $696 $760 forward $732 $-1 #
straight-curve $-1 0 37.835098195038924 -10.145284074558869 1 0 0 I I #
point $-1 63.64574114200262 37.835098195038924 -10.145284074558869 #
edge $-1 $764 -37.835098195038924 $697 37.835098195038924 $696 $812 forward 7 unknown #
point $-1 -63.64574114200262 37.835098195038924 -10.145284074558869 #
coedge $-1 $700 $699 $744 $806 reversed $701 $-1 #
point $-1 -61.958088024925686 -37.835098195038924 10.145284074558869 #
vertex $-1 $760 $813 #
straight-curve $-1 -63.64574114200262 -37.835098195038924 0 0 0 -1 I I #
plane-surface $-1 -63.64574114200262 0 0 1 0 0 0 0 -1 forward_v I I I I #
face $-1 $814 $815 $19 $-1 $816 reversed single #
loop $-1 $-1 $817 $706 #
plane-surface $-1 -56.922507375741731 -34.173581668300308 0 -1 0 0 0 0 1 forward_v I I I I #
coedge $-1 $818 $819 $820 $821 reversed $707 $-1 #
coedge $-1 $822 $709 $786 $823 reversed $624 $-1 #
coedge $-1 $709 $822 $824 $825 reversed $624 $-1 #
coedge $-1 $819 $818 $709 $774 forward $707 $-1 #
edge $-1 $826 -10.145284074558869 $827 10.145284074558869 $773 $828 forward 7 unknown #
coedge $-1 $710 $829 $830 $831 forward $424 $-1 #
coedge $-1 $832 $833 $710 $777 reversed $815 $-1 #
edge $-1 $834 -56.922507375741731 $779 63.64574114200262 $776 $835 forward 7 unknown #
coedge $-1 $794 $711 $833 $836 forward $723 $-1 #
vertex $-1 $712 $837 #
straight-curve $-1 63.64574114200262 0 10.145284074558869 0 1 0 I I #
straight-curve $-1 24.3696934225582 37.835098195038924 2.5400027131095868 1 0 0 I I #
coedge $-1 $716 $715 $838 $839 reversed $520 $-1 #
edge $-1 $724 -2.5400027131095797 $840 10.145284074558869 $722 $841 forward 7 unknown #
coedge $-1 $842 $718 $716 $785 forward $790 $-1 #
edge $-1 $720 -10.145284074558869 $843 10.145284074558869 $716 $844 forward 7 unknown #
coedge $-1 $829 $717 $771 $823 forward $424 $-1 #
coedge $-1 $845 $846 $717 $788 reversed $847 $-1 #
edge $-1 $791 -63.64574114200262 $848 -61.958088024925686 $787 $835 forward 7 unknown #
coedge $-1 $718 $842 $845 $849 reversed $790 $-1 #
loop $-1 $-1 $784 $850 #
vertex $-1 $719 $851 #
straight-curve $-1 -63.64574114200262 0 10.145284074558869 0 -1 0 I I #
point $-1 -63.64574114200262 37.835098195038924 10.145284074558869 #
coedge $-1 $722 $778 $852 $853 reversed $723 $-1 #
face $-1 $-1 $723 $19 $-1 $854 reversed single #
point $-1 63.64574114200262 37.835098195038931 2.5400027131095797 #
coedge $-1 $737 $808 $734 $798 forward $732 $-1 #
edge $-1 $799 -20.74830736088877 $740 -13.425274307411538 $797 $855 forward 7 unknown #
vertex $-1 $735 $856 #
straight-curve $-1 -56.922507375741731 -37.835098195038924 0 0 0 -1 I I #
straight-curve $-1 -29.720148850166854 -30.512065141561692 10.145284074558869 1 0 0 I I #
straight-curve $-1 -29.720148850166854 -30.512065141561692 -10.145284074558869 -1 0 0 I I #
point $-1 -56.922507375741731 -30.512065141561692 10.145284074558869 #
point $-1 -56.922507375741731 -30.512065141561692 -10.145284074558869 #
straight-curve $-1 -61.958088024925686 -37.835098195038924 0 0 0 1 I I #
edge $-1 $745 61.958088024925686 $764 63.64574114200262 $762 $857 forward 7 unknown #
point $-1 -61.958088024925686 -37.835098195038924 -10.145284074558869 #
coedge $-1 $797 $752 $750 $809 forward $732 $-1 #
edge $-1 $754 -63.64574114200262 $799 56.922507375741731 $750 $857 forward 7 unknown #
straight-curve $-1 63.64574114200262 0 -10.145284074558869 0 -1 0 I I #
point $-1 63.64574114200262 -37.835098195038924 -10.145284074558869 #
straight-curve $-1 -63.64574114200262 0 -10.145284074558869 0 1 0 I I #
point $-1 -63.64574114200262 -37.835098195038924 -10.145284074558869 #
face $-1 $858 $859 $19 $-1 $860 reversed single #
loop $-1 $-1 $832 $767 #
plane-surface $-1 0 -37.835098195038924 0 0 1 0 0 0 1 forward_v I I I I #
coedge $-1 $830 $861 $832 $862 reversed $768 $-1 #
coedge $-1 $773 $770 $829 $863 reversed $707 $-1 #
coedge $-1 $770 $773 $864 $865 reversed $707 $-1 #
coedge $-1 $861 $830 $770 $821 forward $768 $-1 #
edge $-1 $866 -10.145284074558869 $867 10.145284074558869 $820 $868 forward 7 unknown #
coedge $-1 $772 $771 $846 $869 reversed $624 $-1 #
edge $-1 $848 -20.74830736088877 $826 -13.425274307411538 $786 $870 forward 7 unknown #
coedge $-1 $871 $864 $772 $825 forward $859 $-1 #
edge $-1 $827 13.425274307411538 $872 20.74830736088877 $824 $873 forward 7 unknown #
vertex $-1 $823 $874 #
vertex $-1 $825 $875 #
straight-curve $-1 -61.958088024925686 -30.512065141561692 0 0 0 -1 I I #
coedge $-1 $775 $786 $818 $863 forward $424 $-1 #
coedge $-1 $820 $817 $775 $831 reversed $768 $-1 #
edge $-1 $866 13.425274307411538 $834 20.74830736088877 $775 $876 forward 7 unknown #
coedge $-1 $877 $776 $817 $862 forward $815 $-1 #
coedge $-1 $776 $877 $778 $836 reversed $815 $-1 #
vertex $-1 $777 $878 #
straight-curve $-1 0 -37.835098195038924 10.145284074558869 1 0 0 I I #
edge $-1 $779 -10.145284074558869 $879 10.145284074558869 $778 $880 forward 7 unknown #
point $-1 63.64574114200262 -37.835098195038924 10.145284074558869 #
coedge $-1 $852 $881 $782 $839 forward $859 $-1 #
edge $-1 $843 -63.64574114200262 $840 63.64574114200262 $782 $882 forward 7 unknown #
vertex $-1 $853 $883 #
straight-curve $-1 63.64574114200262 37.835098195038924 0 0 0 -1 I I #
coedge $-1 $789 $784 $881 $884 reversed $790 $-1 #
vertex $-1 $839 $885 #
straight-curve $-1 -63.64574114200262 37.835098195038924 0 0 0 -1 I I #
coedge $-1 $886 $787 $789 $849 forward $847 $-1 #
coedge $-1 $787 $886 $822 $869 forward $847 $-1 #
loop $-1 $-1 $846 $858 #
vertex $-1 $869 $887 #
edge $-1 $791 -10.145284074558869 $888 10.145284074558869 $789 $889 forward 7 unknown #
face $-1 $795 $790 $19 $-1 $890 reversed single #
point $-1 -63.64574114200262 -37.835098195038924 10.145284074558869 #
coedge $-1 $891 $838 $794 $853 forward $859 $-1 #
edge $-1 $840 -37.835098195038924 $879 37.835098195038924 $794 $892 forward 7 unknown #
plane-surface $-1 63.64574114200262 0 0 -1 0 0 0 0 1 forward_v I I I I #
straight-curve $-1 -56.922507375741731 -17.086790834150154 -10.145284074558869 0 1 0 I I #
point $-1 -56.922507375741731 -37.835098195038924 -10.145284074558869 #
straight-curve $-1 0 -37.835098195038924 -10.145284074558869 -1 0 0 I I #
face $-1 $850 $847 $19 $-1 $816 reversed single #
loop $-1 $-1 $824 $814 #
plane-surface $-1 0 0 -10.145284074558869 0 0 1 1 0 0 forward_v I I I I #
coedge $-1 $817 $820 $893 $894 reversed $768 $-1 #
edge $-1 $834 -10.145284074558869 $895 10.145284074558869 $832 $896 forward 7 unknown #
edge $-1 $826 -32.237939174758836 $866 -27.202358525574876 $829 $897 forward 7 unknown #
coedge $-1 $824 $893 $819 $865 forward $859 $-1 #
edge $-1 $867 27.202358525574876 $827 32.237939174758836 $864 $898 forward 7 unknown #
vertex $-1 $863 $899 #
vertex $-1 $865 $900 #
straight-curve $-1 -56.922507375741731 -30.512065141561692 0 0 0 -1 I I #
edge $-1 $872 -10.145284074558869 $848 10.145284074558869 $846 $901 forward 7 unknown #
straight-curve $-1 -61.958088024925686 -17.086790834150154 10.145284074558869 0 1 0 I I #
coedge $-1 $881 $824 $886 $902 forward $859 $-1 #
vertex $-1 $902 $903 #
straight-curve $-1 -61.958088024925686 -17.086790834150154 -10.145284074558869 0 -1 0 I I #
point $-1 -61.958088024925686 -30.512065141561692 10.145284074558869 #
point $-1 -61.958088024925686 -30.512065141561692 -10.145284074558869 #
straight-curve $-1 -56.922507375741731 -17.086790834150154 10.145284074558869 0 -1 0 I I #
coedge $-1 $833 $832 $891 $904 reversed $815 $-1 #
point $-1 -56.922507375741731 -37.835098195038924 10.145284074558869 #
vertex $-1 $836 $905 #
straight-curve $-1 63.64574114200262 -37.835098195038924 0 0 0 -1 I I #
coedge $-1 $838 $871 $842 $884 forward $859 $-1 #
straight-curve $-1 0 37.835098195038924 -10.145284074558869 1 0 0 I I #
point $-1 63.64574114200262 37.835098195038924 -10.145284074558869 #
edge $-1 $888 -37.835098195038924 $843 37.835098195038924 $842 $906 forward 7 unknown #
point $-1 -63.64574114200262 37.835098195038924 -10.145284074558869 #
coedge $-1 $846 $845 $871 $902 reversed $847 $-1 #
point $-1 -61.958088024925686 -37.835098195038924 10.145284074558869 #
vertex $-1 $884 $907 #
straight-curve $-1 -63.64574114200262 -37.835098195038924 0 0 0 -1 I I #
plane-surface $-1 -63.64574114200262 0 0 1 0 0 0 0 -1 forward_v I I I I #
coedge $-1 $893 $852 $877 $904 forward $859 $-1 #
straight-curve $-1 63.64574114200262 0 -10.145284074558869 0 -1 0 I I #
coedge $-1 $864 $891 $861 $894 forward $859 $-1 #
edge $-1 $895 -20.74830736088877 $867 -13.425274307411538 $893 $908 forward 7 unknown #
vertex $-1 $862 $909 #
straight-curve $-1 -56.922507375741731 -37.835098195038924 0 0 0 -1 I I #
straight-curve $-1 -29.720148850166854 -30.512065141561692 10.145284074558869 1 0 0 I I #
straight-curve $-1 -29.720148850166854 -30.512065141561692 -10.145284074558869 -1 0 0 I I #
point $-1 -56.922507375741731 -30.512065141561692 10.145284074558869 #
point $-1 -56.922507375741731 -30.512065141561692 -10.145284074558869 #
straight-curve $-1 -61.958088024925686 -37.835098195038924 0 0 0 1 I I #
edge $-1 $872 61.958088024925686 $888 63.64574114200262 $886 $910 forward 7 unknown #
point $-1 -61.958088024925686 -37.835098195038924 -10.145284074558869 #
edge $-1 $879 -63.64574114200262 $895 56.922507375741731 $877 $910 forward 7 unknown #
point $-1 63.64574114200262 -37.835098195038924 -10.145284074558869 #
straight-curve $-1 -63.64574114200262 0 -10.145284074558869 0 1 0 I I #
point $-1 -63.64574114200262 -37.835098195038924 -10.145284074558869 #
straight-curve $-1 -56.922507375741731 -17.086790834150154 -10.145284074558869 0 1 0 I I #
point $-1 -56.922507375741731 -37.835098195038924 -10.145284074558869 #
straight-curve $-1 0 -37.835098195038924 -10.145284074558869 -1 0 0 I I #
End-of-ACIS-data 