500 0 14 0           
7 Unknown 11 ACIS 5.0 NT 24 Fri Mar 26 01:37:34 1999 
-1 9.9999999999999995e-007 1e-010 
body $-1 $14 $-1 $15 #
body $-1 $16 $-1 $17 #
body $-1 $18 $-1 $19 #
body $-1 $20 $-1 $21 #
body $-1 $22 $-1 $23 #
body $-1 $24 $-1 $25 #
body $-1 $26 $-1 $27 #
body $-1 $28 $-1 $29 #
body $-1 $30 $-1 $31 #
body $-1 $32 $-1 $33 #
body $-1 $34 $-1 $35 #
body $-1 $36 $-1 $37 #
body $-1 $38 $-1 $39 #
body $-1 $40 $-1 $41 #
lump $-1 $-1 $42 $0 #
transform $-1 1 0 0 0 1 0 0 0 1 44.726706747642446 28.384880951767016 10.984490674541195 1 rotate no_reflect no_shear #
lump $-1 $-1 $43 $1 #
transform $-1 1 0 0 0 1 0 0 0 1 44.726706747642446 28.384880951767016 10.984490674541195 1 rotate no_reflect no_shear #
lump $-1 $-1 $44 $2 #
transform $-1 1 0 0 0 1 0 0 0 1 44.726706747642446 28.384880951767016 10.984490674541195 1 rotate no_reflect no_shear #
lump $-1 $-1 $45 $3 #
transform $-1 1 0 0 0 1 0 0 0 1 44.726706747642446 28.384880951767016 10.984490674541195 1 rotate no_reflect no_shear #
lump $-1 $-1 $46 $4 #
transform $-1 1 0 0 0 1 0 0 0 1 44.726706747642446 28.384880951767016 10.984490674541195 1 rotate no_reflect no_shear #
lump $-1 $-1 $47 $5 #
transform $-1 1 0 0 0 1 0 0 0 1 44.726706747642446 28.384880951767016 10.984490674541195 1 rotate no_reflect no_shear #
lump $-1 $-1 $48 $6 #
transform $-1 1 0 0 0 1 0 0 0 1 44.726706747642446 28.384880951767016 10.984490674541195 1 rotate no_reflect no_shear #
lump $-1 $-1 $49 $7 #
transform $-1 1 0 0 0 1 0 0 0 1 44.726706747642446 28.384880951767016 10.984490674541195 1 rotate no_reflect no_shear #
lump $-1 $-1 $50 $8 #
transform $-1 1 0 0 0 1 0 0 0 1 44.726706747642446 28.384880951767016 10.984490674541195 1 rotate no_reflect no_shear #
lump $-1 $-1 $51 $9 #
transform $-1 1 0 0 0 1 0 0 0 1 44.726706747642446 28.384880951767016 10.984490674541195 1 rotate no_reflect no_shear #
lump $-1 $-1 $52 $10 #
transform $-1 1 0 0 0 1 0 0 0 1 44.726706747642446 28.384880951767016 10.984490674541195 1 rotate no_reflect no_shear #
lump $-1 $-1 $53 $11 #
transform $-1 1 0 0 0 1 0 0 0 1 44.726706747642446 28.384880951767016 10.984490674541195 1 rotate no_reflect no_shear #
lump $-1 $-1 $54 $12 #
transform $-1 1 0 0 0 1 0 0 0 1 44.726706747642446 28.384880951767016 10.984490674541195 1 rotate no_reflect no_shear #
lump $-1 $-1 $55 $13 #
transform $-1 1 0 0 0 1 0 0 0 1 44.726706747642446 28.384880951767016 10.984490674541195 1 rotate no_reflect no_shear #
shell $-1 $-1 $-1 $56 $-1 $14 #
shell $-1 $-1 $-1 $57 $-1 $16 #
shell $-1 $-1 $-1 $58 $-1 $18 #
shell $-1 $-1 $-1 $59 $-1 $20 #
shell $-1 $-1 $-1 $60 $-1 $22 #
shell $-1 $-1 $-1 $61 $-1 $24 #
shell $-1 $-1 $-1 $62 $-1 $26 #
shell $-1 $-1 $-1 $63 $-1 $28 #
shell $-1 $-1 $-1 $64 $-1 $30 #
shell $-1 $-1 $-1 $65 $-1 $32 #
shell $-1 $-1 $-1 $66 $-1 $34 #
shell $-1 $-1 $-1 $67 $-1 $36 #
shell $-1 $-1 $-1 $68 $-1 $38 #
shell $-1 $-1 $-1 $69 $-1 $40 #
face $-1 $70 $71 $42 $-1 $72 forward single #
face $-1 $73 $74 $43 $-1 $75 forward single #
face $-1 $76 $77 $44 $-1 $78 reversed single #
face $-1 $79 $80 $45 $-1 $81 forward single #
face $-1 $82 $83 $46 $-1 $84 forward single #
face $-1 $85 $86 $47 $-1 $87 forward single #
face $-1 $88 $89 $48 $-1 $90 reversed single #
face $-1 $91 $92 $49 $-1 $93 forward single #
face $-1 $94 $95 $50 $-1 $96 forward single #
face $-1 $97 $98 $51 $-1 $99 forward single #
face $-1 $100 $101 $52 $-1 $102 reversed single #
face $-1 $103 $104 $53 $-1 $105 forward single #
face $-1 $106 $107 $54 $-1 $108 forward single #
face $-1 $109 $110 $55 $-1 $111 forward single #
face $-1 $112 $113 $42 $-1 $114 reversed single #
loop $-1 $-1 $115 $56 #
plane-surface $-1 0 0 10.984490674541195 0 0 1 1 0 0 forward_v I I I I #
face $-1 $116 $117 $43 $-1 $118 reversed single #
loop $-1 $-1 $119 $57 #
plane-surface $-1 0 -23.651084072287158 -7.5422790853104473 0 0 1 1 0 0 forward_v I I I I #
face $-1 $120 $121 $44 $-1 $122 reversed single #
loop $-1 $-1 $123 $58 #
plane-surface $-1 -112.2380556376045 -2.1144242287827595 61.139548821576568 0 1 0 -0.75470958851134928 0 0.65605901945558964 forward_v I I I I #
face $-1 $124 $125 $45 $-1 $126 forward single #
loop $-1 $127 $128 $59 #
cone-surface $-1 -40.641122343468936 -0.74478000713023818 6.3906308659950835 0.75470958851134928 0 -0.65605901945558964 0.32802950972779482 0 0.37735479425567464 1 I I 0 1 0.5 forward I I I I #
face $-1 $129 $130 $46 $-1 $131 forward single #
loop $-1 $132 $133 $60 #
cone-surface $-1 -40.641122343468936 1.3096863253485438 6.3906308659950835 0.75470958851134928 0 -0.65605901945558964 0.32802950972779482 0 0.37735479425567464 1 I I 0 1 0.5 forward I I I I #
face $-1 $134 $135 $47 $-1 $136 forward single #
loop $-1 $137 $138 $61 #
cone-surface $-1 -40.641122343468936 3.3641526578273258 6.3906308659950835 0.75470958851134928 0 -0.65605901945558964 0.32802950972779482 0 0.37735479425567464 1 I I 0 1 0.5 forward I I I I #
face $-1 $139 $140 $48 $-1 $141 reversed single #
loop $-1 $-1 $142 $62 #
plane-surface $-1 -112.2380556376045 21.536659843504399 61.139548821576568 0 1 0 -0.75470958851134928 0 0.65605901945558964 forward_v I I I I #
face $-1 $143 $144 $49 $-1 $145 forward single #
loop $-1 $146 $147 $63 #
cone-surface $-1 -40.641122343468936 22.906304065156917 6.3906308659950835 0.75470958851134928 0 -0.65605901945558964 0.32802950972779482 0 0.37735479425567464 1 I I 0 1 0.5 forward I I I I #
face $-1 $148 $149 $50 $-1 $150 forward single #
loop $-1 $151 $152 $64 #
cone-surface $-1 -40.641122343468936 24.960770397635699 6.3906308659950835 0.75470958851134928 0 -0.65605901945558964 0.32802950972779482 0 0.37735479425567464 1 I I 0 1 0.5 forward I I I I #
face $-1 $153 $154 $51 $-1 $155 forward single #
loop $-1 $156 $157 $65 #
cone-surface $-1 -40.641122343468936 27.015236730114481 6.3906308659950835 0.75470958851134928 0 -0.65605901945558964 0.32802950972779482 0 0.37735479425567464 1 I I 0 1 0.5 forward I I I I #
face $-1 $158 $159 $52 $-1 $160 reversed single #
loop $-1 $-1 $161 $66 #
plane-surface $-1 57.950210276836366 13.410106560461692 131.62169114264847 0 -1 0 -0.77714596973225614 0 -0.62932038083071107 forward_v I I I I #
face $-1 $162 $163 $53 $-1 $164 forward single #
loop $-1 $165 $166 $67 #
cone-surface $-1 42.166599905471635 6.3886047867155966 8.0204357843041691 -0.77714596973225614 0 -0.62932038083071107 0.31466019041535553 0 -0.38857298486612807 1 I I 0 1 0.5 forward I I I I #
face $-1 $167 $168 $54 $-1 $169 forward single #
loop $-1 $170 $171 $68 #
cone-surface $-1 42.166599905471635 9.0216679518703842 8.0204357843041691 -0.77714596973225614 0 -0.62932038083071107 0.31466019041535553 0 -0.38857298486612807 1 I I 0 1 0.5 forward I I I I #
face $-1 $172 $173 $55 $-1 $174 forward single #
loop $-1 $175 $176 $69 #
cone-surface $-1 42.166599905471635 11.654731117025172 8.0204357843041691 -0.77714596973225614 0 -0.62932038083071107 0.31466019041535553 0 -0.38857298486612807 1 I I 0 1 0.5 forward I I I I #
face $-1 $177 $178 $42 $-1 $179 reversed single #
loop $-1 $-1 $180 $70 #
plane-surface $-1 0 0 -10.984490674541195 0 0 1 1 0 0 forward_v I I I I #
coedge $-1 $181 $182 $183 $184 forward $71 $-1 #
face $-1 $185 $186 $43 $-1 $187 reversed single #
loop $-1 $-1 $188 $73 #
plane-surface $-1 0 -18.917287192807301 -9.2633848799258214 0 -1 0 0 0 -1 forward_v I I I I #
coedge $-1 $189 $190 $191 $192 reversed $74 $-1 #
face $-1 $193 $194 $44 $-1 $195 reversed single #
loop $-1 $-1 $196 $76 #
plane-surface $-1 -44.726706747642467 1.3096863253485473 2.4528300769045543 -0.75470958851134928 0 0.65605901945558964 0.65605901945558964 0 0.75470958851134928 forward_v I I I I #
coedge $-1 $197 $198 $199 $200 reversed $77 $-1 #
face $-1 $-1 $201 $45 $-1 $202 forward single #
loop $-1 $203 $204 $79 #
cone-surface $-1 -40.075090152085423 -0.74478000713023818 5.898586601403391 0.75470958851134928 0 -0.65605901945558964 0.16401475486389741 0 0.18867739712783732 1 I I -0.70710678118654746 0.70710678118654746 0.25 forward I I I I #
loop $-1 $-1 $205 $59 #
coedge $-1 $128 $128 $206 $207 reversed $80 $-1 #
face $-1 $-1 $208 $46 $-1 $209 forward single #
loop $-1 $210 $211 $82 #
cone-surface $-1 -40.075090152085423 1.3096863253485438 5.898586601403391 0.75470958851134928 0 -0.65605901945558964 0.16401475486389741 0 0.18867739712783732 1 I I -0.70710678118654746 0.70710678118654746 0.25 forward I I I I #
loop $-1 $-1 $212 $60 #
coedge $-1 $133 $133 $213 $214 reversed $83 $-1 #
face $-1 $-1 $215 $47 $-1 $216 forward single #
loop $-1 $217 $218 $85 #
cone-surface $-1 -40.075090152085423 3.3641526578273258 5.898586601403391 0.75470958851134928 0 -0.65605901945558964 0.16401475486389741 0 0.18867739712783732 1 I I -0.70710678118654746 0.70710678118654746 0.25 forward I I I I #
loop $-1 $-1 $219 $61 #
coedge $-1 $138 $138 $220 $221 reversed $86 $-1 #
face $-1 $222 $223 $48 $-1 $224 forward single #
loop $-1 $-1 $225 $88 #
plane-surface $-1 -44.726706747642467 24.960770397635706 2.4528300769045543 -0.75470958851134928 0 0.65605901945558964 0.65605901945558964 0 0.75470958851134928 forward_v I I I I #
coedge $-1 $226 $227 $228 $229 reversed $89 $-1 #
face $-1 $-1 $230 $49 $-1 $231 forward single #
loop $-1 $232 $233 $91 #
cone-surface $-1 -40.075090152085423 22.906304065156917 5.898586601403391 0.75470958851134928 0 -0.65605901945558964 0.16401475486389741 0 0.18867739712783732 1 I I -0.70710678118654746 0.70710678118654746 0.25 forward I I I I #
loop $-1 $-1 $234 $63 #
coedge $-1 $147 $147 $235 $236 reversed $92 $-1 #
face $-1 $-1 $237 $50 $-1 $238 forward single #
loop $-1 $239 $240 $94 #
cone-surface $-1 -40.075090152085423 24.960770397635699 5.898586601403391 0.75470958851134928 0 -0.65605901945558964 0.16401475486389741 0 0.18867739712783732 1 I I -0.70710678118654746 0.70710678118654746 0.25 forward I I I I #
loop $-1 $-1 $241 $64 #
coedge $-1 $152 $152 $242 $243 reversed $95 $-1 #
face $-1 $-1 $244 $51 $-1 $245 forward single #
loop $-1 $246 $247 $97 #
cone-surface $-1 -40.075090152085423 27.015236730114481 5.898586601403391 0.75470958851134928 0 -0.65605901945558964 0.16401475486389741 0 0.18867739712783732 1 I I -0.70710678118654746 0.70710678118654746 0.25 forward I I I I #
loop $-1 $-1 $248 $65 #
coedge $-1 $157 $157 $249 $250 reversed $98 $-1 #
face $-1 $251 $252 $52 $-1 $253 reversed single #
loop $-1 $-1 $254 $100 #
plane-surface $-1 -11.568149499817302 9.0216679518703842 75.326834895188711 0.77714596973225614 0 0.62932038083071107 0.62932038083071107 0 -0.77714596973225614 forward_v I I I I #
coedge $-1 $255 $256 $257 $258 reversed $101 $-1 #
face $-1 $-1 $259 $53 $-1 $260 forward single #
loop $-1 $261 $262 $103 #
cone-surface $-1 41.50793389093203 6.3886047867155966 7.487058576862534 -0.77714596973225614 0 -0.62932038083071107 0.15733009520767777 0 -0.19428649243306403 1 I I -0.70710678118654746 0.70710678118654746 0.25 forward I I I I #
loop $-1 $-1 $263 $67 #
coedge $-1 $166 $166 $264 $265 reversed $104 $-1 #
face $-1 $-1 $266 $54 $-1 $267 forward single #
loop $-1 $268 $269 $106 #
cone-surface $-1 41.50793389093203 9.0216679518703842 7.487058576862534 -0.77714596973225614 0 -0.62932038083071107 0.15733009520767777 0 -0.19428649243306403 1 I I -0.70710678118654746 0.70710678118654746 0.25 forward I I I I #
loop $-1 $-1 $270 $68 #
coedge $-1 $171 $171 $271 $272 reversed $107 $-1 #
face $-1 $-1 $273 $55 $-1 $274 forward single #
loop $-1 $275 $276 $109 #
cone-surface $-1 41.50793389093203 11.654731117025172 7.487058576862534 -0.77714596973225614 0 -0.62932038083071107 0.15733009520767777 0 -0.19428649243306403 1 I I -0.70710678118654746 0.70710678118654746 0.25 forward I I I I #
loop $-1 $-1 $277 $69 #
coedge $-1 $176 $176 $278 $279 reversed $110 $-1 #
face $-1 $280 $281 $42 $-1 $282 reversed single #
loop $-1 $-1 $283 $112 #
plane-surface $-1 0 -28.384880951767016 0 0 1 0 0 0 1 forward_v I I I I #
coedge $-1 $284 $285 $286 $287 forward $113 $-1 #
coedge $-1 $288 $115 $289 $290 forward $71 $-1 #
coedge $-1 $115 $288 $291 $292 forward $71 $-1 #
coedge $-1 $293 $294 $115 $184 reversed $295 $-1 #
edge $-1 $296 -28.384880951767016 $297 28.384880951767016 $183 $298 forward 7 unknown #
face $-1 $299 $300 $43 $-1 $301 reversed single #
loop $-1 $-1 $302 $116 #
plane-surface $-1 0 0 -10.984490674541195 0 0 1 1 0 0 forward_v I I I I #
coedge $-1 $303 $304 $305 $306 reversed $117 $-1 #
coedge $-1 $307 $119 $304 $308 forward $74 $-1 #
coedge $-1 $119 $307 $309 $310 reversed $74 $-1 #
coedge $-1 $311 $305 $119 $192 forward $300 $-1 #
edge $-1 $312 7.0917451566637215 $313 16.559338915623435 $191 $314 forward 7 unknown #
face $-1 $315 $316 $44 $-1 $317 forward single #
loop $-1 $-1 $318 $120 #
plane-surface $-1 -112.2380556376045 4.7337968794798542 61.139548821576568 0 -1 0 0.75470958851134928 0 -0.65605901945558964 forward_v I I I I #
coedge $-1 $319 $320 $321 $322 reversed $121 $-1 #
coedge $-1 $198 $123 $323 $324 reversed $77 $-1 #
coedge $-1 $123 $197 $319 $325 reversed $77 $-1 #
coedge $-1 $321 $326 $123 $200 forward $316 $-1 #
edge $-1 $327 11.392321071159806 $328 18.808780290995458 $199 $329 forward 7 unknown #
loop $-1 $-1 $206 $124 #
plane-surface $-1 -44.726706747642467 1.3096863253485473 2.4528300769045543 -0.75470958851134928 0 0.65605901945558964 0.65605901945558964 0 0.75470958851134928 forward_v I I I I #
loop $-1 $-1 $330 $79 #
coedge $-1 $204 $204 $205 $331 reversed $125 $-1 #
coedge $-1 $205 $205 $204 $331 forward $127 $-1 #
coedge $-1 $206 $206 $128 $207 forward $201 $-1 #
edge $-1 $332 0 $332 6.2831853071796004 $206 $333 forward 7 unknown #
loop $-1 $-1 $213 $129 #
plane-surface $-1 -44.726706747642467 1.3096863253485473 2.4528300769045543 -0.75470958851134928 0 0.65605901945558964 0.65605901945558964 0 0.75470958851134928 forward_v I I I I #
loop $-1 $-1 $334 $82 #
coedge $-1 $211 $211 $212 $335 reversed $130 $-1 #
coedge $-1 $212 $212 $211 $335 forward $132 $-1 #
coedge $-1 $213 $213 $133 $214 forward $208 $-1 #
edge $-1 $336 0 $336 6.2831853071796004 $213 $337 forward 7 unknown #
loop $-1 $-1 $220 $134 #
plane-surface $-1 -44.726706747642467 1.3096863253485473 2.4528300769045543 -0.75470958851134928 0 0.65605901945558964 0.65605901945558964 0 0.75470958851134928 forward_v I I I I #
loop $-1 $-1 $338 $85 #
coedge $-1 $218 $218 $219 $339 reversed $135 $-1 #
coedge $-1 $219 $219 $218 $339 forward $137 $-1 #
coedge $-1 $220 $220 $138 $221 forward $215 $-1 #
edge $-1 $340 0 $340 6.2831853071796004 $220 $341 forward 7 unknown #
face $-1 $342 $343 $48 $-1 $344 reversed single #
loop $-1 $-1 $228 $139 #
plane-surface $-1 0 0 10.984490674541195 0 0 1 1 0 0 forward_v I I I I #
coedge $-1 $345 $346 $347 $348 reversed $140 $-1 #
coedge $-1 $227 $142 $349 $350 reversed $89 $-1 #
coedge $-1 $142 $226 $345 $351 reversed $89 $-1 #
coedge $-1 $347 $352 $142 $229 forward $223 $-1 #
edge $-1 $353 11.392321071159806 $354 18.808780290995458 $228 $355 forward 7 unknown #
loop $-1 $-1 $235 $143 #
plane-surface $-1 -44.726706747642467 24.960770397635706 2.4528300769045543 -0.75470958851134928 0 0.65605901945558964 0.65605901945558964 0 0.75470958851134928 forward_v I I I I #
loop $-1 $-1 $356 $91 #
coedge $-1 $233 $233 $234 $357 reversed $144 $-1 #
coedge $-1 $234 $234 $233 $357 forward $146 $-1 #
coedge $-1 $235 $235 $147 $236 forward $230 $-1 #
edge $-1 $358 0 $358 6.2831853071796004 $235 $359 forward 7 unknown #
loop $-1 $-1 $242 $148 #
plane-surface $-1 -44.726706747642467 24.960770397635706 2.4528300769045543 -0.75470958851134928 0 0.65605901945558964 0.65605901945558964 0 0.75470958851134928 forward_v I I I I #
loop $-1 $-1 $360 $94 #
coedge $-1 $240 $240 $241 $361 reversed $149 $-1 #
coedge $-1 $241 $241 $240 $361 forward $151 $-1 #
coedge $-1 $242 $242 $152 $243 forward $237 $-1 #
edge $-1 $362 0 $362 6.2831853071796004 $242 $363 forward 7 unknown #
loop $-1 $-1 $249 $153 #
plane-surface $-1 -44.726706747642467 24.960770397635706 2.4528300769045543 -0.75470958851134928 0 0.65605901945558964 0.65605901945558964 0 0.75470958851134928 forward_v I I I I #
loop $-1 $-1 $364 $97 #
coedge $-1 $247 $247 $248 $365 reversed $154 $-1 #
coedge $-1 $248 $248 $247 $365 forward $156 $-1 #
coedge $-1 $249 $249 $157 $250 forward $244 $-1 #
edge $-1 $366 0 $366 6.2831853071796004 $249 $367 forward 7 unknown #
face $-1 $368 $369 $52 $-1 $370 forward single #
loop $-1 $-1 $371 $158 #
plane-surface $-1 57.950210276836366 4.6332293432790763 131.62169114264847 0 1 0 0.77714596973225614 0 0.62932038083071107 forward_v I I I I #
coedge $-1 $372 $373 $374 $375 reversed $159 $-1 #
coedge $-1 $256 $161 $376 $377 reversed $101 $-1 #
coedge $-1 $161 $255 $372 $378 reversed $101 $-1 #
coedge $-1 $374 $379 $161 $258 forward $369 $-1 #
edge $-1 $380 -15.751601609224263 $381 -11.560146969095715 $257 $382 forward 7 unknown #
loop $-1 $-1 $264 $162 #
plane-surface $-1 -11.568149499817302 9.0216679518703842 75.326834895188711 0.77714596973225614 0 0.62932038083071107 0.62932038083071107 0 -0.77714596973225614 forward_v I I I I #
loop $-1 $-1 $383 $103 #
coedge $-1 $262 $262 $263 $384 reversed $163 $-1 #
coedge $-1 $263 $263 $262 $384 forward $165 $-1 #
coedge $-1 $264 $264 $166 $265 forward $259 $-1 #
edge $-1 $385 0 $385 6.2831853071796004 $264 $386 forward 7 unknown #
loop $-1 $-1 $271 $167 #
plane-surface $-1 -11.568149499817302 9.0216679518703842 75.326834895188711 0.77714596973225614 0 0.62932038083071107 0.62932038083071107 0 -0.77714596973225614 forward_v I I I I #
loop $-1 $-1 $387 $106 #
coedge $-1 $269 $269 $270 $388 reversed $168 $-1 #
coedge $-1 $270 $270 $269 $388 forward $170 $-1 #
coedge $-1 $271 $271 $171 $272 forward $266 $-1 #
edge $-1 $389 0 $389 6.2831853071796004 $271 $390 forward 7 unknown #
loop $-1 $-1 $278 $172 #
plane-surface $-1 -11.568149499817302 9.0216679518703842 75.326834895188711 0.77714596973225614 0 0.62932038083071107 0.62932038083071107 0 -0.77714596973225614 forward_v I I I I #
loop $-1 $-1 $391 $109 #
coedge $-1 $276 $276 $277 $392 reversed $173 $-1 #
coedge $-1 $277 $277 $276 $392 forward $175 $-1 #
coedge $-1 $278 $278 $176 $279 forward $273 $-1 #
edge $-1 $393 0 $393 6.2831853071796004 $278 $394 forward 7 unknown #
face $-1 $395 $396 $42 $-1 $397 reversed single #
loop $-1 $-1 $398 $177 #
plane-surface $-1 -44.726706747642446 0 0 1 0 0 0 0 -1 forward_v I I I I #
coedge $-1 $399 $291 $400 $401 forward $178 $-1 #
coedge $-1 $402 $180 $399 $403 forward $113 $-1 #
coedge $-1 $180 $402 $404 $405 forward $113 $-1 #
coedge $-1 $294 $293 $180 $287 reversed $295 $-1 #
edge $-1 $406 -28.384880951767016 $407 28.384880951767016 $286 $408 forward 7 unknown #
coedge $-1 $182 $181 $409 $410 forward $71 $-1 #
coedge $-1 $411 $412 $181 $290 reversed $396 $-1 #
edge $-1 $297 -44.726706747642446 $413 44.726706747642446 $289 $414 forward 7 unknown #
coedge $-1 $283 $415 $182 $292 reversed $178 $-1 #
edge $-1 $416 -44.726706747642446 $296 44.726706747642446 $291 $417 forward 7 unknown #
coedge $-1 $286 $183 $415 $418 forward $295 $-1 #
coedge $-1 $183 $286 $411 $419 reversed $295 $-1 #
loop $-1 $-1 $293 $395 #
vertex $-1 $184 $420 #
vertex $-1 $184 $421 #
straight-curve $-1 44.726706747642446 0 10.984490674541195 0 1 0 I I #
face $-1 $422 $423 $43 $-1 $424 reversed single #
loop $-1 $-1 $305 $185 #
plane-surface $-1 44.726706747642446 0 0 -1 0 0 0 0 1 forward_v I I I I #
coedge $-1 $425 $426 $303 $427 forward $186 $-1 #
coedge $-1 $428 $188 $302 $427 reversed $117 $-1 #
coedge $-1 $188 $428 $189 $308 reversed $117 $-1 #
coedge $-1 $191 $429 $188 $306 forward $300 $-1 #
edge $-1 $430 -6.3527982345782847 $312 -2.9105866453475366 $305 $431 forward 7 unknown #
coedge $-1 $190 $189 $432 $433 reversed $74 $-1 #
edge $-1 $312 -44.726706747642446 $434 44.726706747642446 $304 $435 forward 7 unknown #
coedge $-1 $436 $437 $190 $310 forward $423 $-1 #
edge $-1 $313 -44.726706747642446 $438 44.726706747642446 $309 $439 forward 7 unknown #
coedge $-1 $429 $191 $437 $440 forward $300 $-1 #
vertex $-1 $192 $441 #
vertex $-1 $440 $442 #
straight-curve $-1 44.726706747642446 -11.825542036143579 -7.5422790853104473 0 -1 0 I I #
face $-1 $-1 $443 $44 $-1 $444 reversed single #
loop $-1 $-1 $199 $193 #
plane-surface $-1 0 0 10.984490674541195 0 0 1 1 0 0 forward_v I I I I #
coedge $-1 $445 $446 $447 $448 reversed $194 $-1 #
coedge $-1 $449 $196 $198 $325 forward $121 $-1 #
coedge $-1 $196 $449 $445 $450 forward $121 $-1 #
coedge $-1 $447 $199 $196 $322 forward $316 $-1 #
edge $-1 $328 -2.7692673914570332 $451 4.0789537168055805 $321 $452 forward 7 unknown #
coedge $-1 $453 $454 $197 $324 forward $443 $-1 #
edge $-1 $455 -28.116944333883705 $327 -19.585283736247089 $323 $456 forward 7 unknown #
edge $-1 $328 -11.304561022558604 $455 -3.2418450280676821e-014 $198 $457 forward 7 unknown #
coedge $-1 $199 $447 $453 $458 forward $316 $-1 #
vertex $-1 $324 $459 #
vertex $-1 $200 $460 #
straight-curve $-1 -56.119027818802252 -2.1144242287827595 10.984490674541195 1 0 0 I I #
coedge $-1 $330 $330 $-1 $461 reversed $203 $-1 #
edge $-1 $462 0 $462 6.2831853071796004 $204 $463 forward 7 unknown #
vertex $-1 $207 $464 #
ellipse-curve $-1 -41.018477137724616 -0.74478000713023818 6.7186603757228864 -0.75470958851134928 0 0.65605901945558964 0.32802950972779482 0 0.37735479425567464 1 I I #
coedge $-1 $334 $334 $-1 $465 reversed $210 $-1 #
edge $-1 $466 0 $466 6.2831853071796004 $211 $467 forward 7 unknown #
vertex $-1 $214 $468 #
ellipse-curve $-1 -41.018477137724616 1.3096863253485438 6.7186603757228864 -0.75470958851134928 0 0.65605901945558964 0.32802950972779482 0 0.37735479425567464 1 I I #
coedge $-1 $338 $338 $-1 $469 reversed $217 $-1 #
edge $-1 $470 0 $470 6.2831853071796004 $218 $471 forward 7 unknown #
vertex $-1 $221 $472 #
ellipse-curve $-1 -41.018477137724616 3.3641526578273258 6.7186603757228864 -0.75470958851134928 0 0.65605901945558964 0.32802950972779482 0 0.37735479425567464 1 I I #
face $-1 $-1 $473 $48 $-1 $474 reversed single #
loop $-1 $-1 $475 $222 #
plane-surface $-1 0 28.384880951767016 0 0 -1 0 0 0 -1 forward_v I I I I #
coedge $-1 $476 $225 $227 $351 forward $140 $-1 #
coedge $-1 $225 $476 $475 $477 reversed $140 $-1 #
coedge $-1 $478 $228 $225 $348 forward $223 $-1 #
edge $-1 $354 9.0562746446865461 $479 15.90449575294916 $347 $480 forward 7 unknown #
coedge $-1 $481 $482 $226 $350 forward $473 $-1 #
edge $-1 $483 -28.116944333883705 $353 -19.585283736247089 $349 $484 forward 7 unknown #
edge $-1 $354 -11.304561022558604 $483 -3.2418450280676821e-014 $227 $485 forward 7 unknown #
coedge $-1 $228 $478 $481 $486 forward $223 $-1 #
vertex $-1 $350 $487 #
vertex $-1 $229 $488 #
straight-curve $-1 -56.119027818802252 21.536659843504399 10.984490674541195 1 0 0 I I #
coedge $-1 $356 $356 $-1 $489 reversed $232 $-1 #
edge $-1 $490 0 $490 6.2831853071796004 $233 $491 forward 7 unknown #
vertex $-1 $236 $492 #
ellipse-curve $-1 -41.018477137724616 22.906304065156917 6.7186603757228864 -0.75470958851134928 0 0.65605901945558964 0.32802950972779482 0 0.37735479425567464 1 I I #
coedge $-1 $360 $360 $-1 $493 reversed $239 $-1 #
edge $-1 $494 0 $494 6.2831853071796004 $240 $495 forward 7 unknown #
vertex $-1 $243 $496 #
ellipse-curve $-1 -41.018477137724616 24.960770397635699 6.7186603757228864 -0.75470958851134928 0 0.65605901945558964 0.32802950972779482 0 0.37735479425567464 1 I I #
coedge $-1 $364 $364 $-1 $497 reversed $246 $-1 #
edge $-1 $498 0 $498 6.2831853071796004 $247 $499 forward 7 unknown #
vertex $-1 $250 $500 #
ellipse-curve $-1 -41.018477137724616 27.015236730114481 6.7186603757228864 -0.75470958851134928 0 0.65605901945558964 0.32802950972779482 0 0.37735479425567464 1 I I #
face $-1 $-1 $501 $52 $-1 $502 reversed single #
loop $-1 $-1 $257 $251 #
plane-surface $-1 0 0 10.984490674541195 0 0 1 1 0 0 forward_v I I I I #
coedge $-1 $503 $504 $505 $506 reversed $252 $-1 #
coedge $-1 $507 $254 $256 $378 forward $159 $-1 #
coedge $-1 $254 $507 $503 $508 forward $159 $-1 #
coedge $-1 $505 $257 $254 $375 forward $369 $-1 #
edge $-1 $381 -8.8992725845264999 $509 -0.12239536734388423 $374 $510 forward 7 unknown #
coedge $-1 $511 $512 $255 $377 forward $501 $-1 #
edge $-1 $513 -60.002370452789179 $380 -54.826354896783045 $376 $514 forward 7 unknown #
edge $-1 $381 82.793126036302908 $513 89.453413495284877 $256 $515 forward 7 unknown #
coedge $-1 $257 $505 $511 $516 forward $369 $-1 #
vertex $-1 $377 $517 #
vertex $-1 $258 $518 #
straight-curve $-1 28.975105138418183 13.410106560461692 10.984490674541192 -1 0 0 I I #
coedge $-1 $383 $383 $-1 $519 reversed $261 $-1 #
edge $-1 $520 0 $520 6.2831853071796004 $262 $521 forward 7 unknown #
vertex $-1 $265 $522 #
ellipse-curve $-1 42.630979427578168 6.3886047867155966 8.3964828965381209 0.77714596973225614 0 0.62932038083071107 0.31466019041535553 0 -0.38857298486612807 1 I I #
coedge $-1 $387 $387 $-1 $523 reversed $268 $-1 #
edge $-1 $524 0 $524 6.2831853071796004 $269 $525 forward 7 unknown #
vertex $-1 $272 $526 #
ellipse-curve $-1 42.630979427578168 9.0216679518703842 8.3964828965381209 0.77714596973225614 0 0.62932038083071107 0.31466019041535553 0 -0.38857298486612807 1 I I #
coedge $-1 $391 $391 $-1 $527 reversed $275 $-1 #
edge $-1 $528 0 $528 6.2831853071796004 $276 $529 forward 7 unknown #
vertex $-1 $279 $530 #
ellipse-curve $-1 42.630979427578168 11.654731117025172 8.3964828965381209 0.77714596973225614 0 0.62932038083071107 0.31466019041535553 0 -0.38857298486612807 1 I I #
face $-1 $-1 $295 $42 $-1 $531 reversed single #
loop $-1 $-1 $411 $280 #
plane-surface $-1 0 28.384880951767016 0 0 -1 0 0 0 -1 forward_v I I I I #
coedge $-1 $532 $409 $412 $533 forward $281 $-1 #
coedge $-1 $415 $283 $284 $403 reversed $178 $-1 #
coedge $-1 $409 $532 $283 $401 reversed $281 $-1 #
edge $-1 $416 -10.984490674541195 $534 10.984490674541195 $400 $535 forward 7 unknown #
coedge $-1 $285 $284 $532 $536 forward $113 $-1 #
edge $-1 $407 -44.726706747642446 $534 44.726706747642446 $399 $537 forward 7 unknown #
coedge $-1 $412 $411 $285 $405 reversed $396 $-1 #
edge $-1 $538 -44.726706747642446 $406 44.726706747642446 $404 $539 forward 7 unknown #
vertex $-1 $287 $540 #
vertex $-1 $418 $541 #
straight-curve $-1 44.726706747642446 0 -10.984490674541195 0 -1 0 I I #
coedge $-1 $398 $400 $288 $410 reversed $281 $-1 #
edge $-1 $413 -28.384880951767016 $416 28.384880951767016 $409 $542 forward 7 unknown #
coedge $-1 $404 $289 $294 $419 forward $396 $-1 #
coedge $-1 $289 $404 $398 $533 reversed $396 $-1 #
vertex $-1 $290 $543 #
straight-curve $-1 0 28.384880951767016 10.984490674541195 -1 0 0 I I #
coedge $-1 $291 $399 $293 $418 reversed $178 $-1 #
vertex $-1 $410 $544 #
straight-curve $-1 0 -28.384880951767016 10.984490674541195 1 0 0 I I #
edge $-1 $296 -10.984490674541195 $407 10.984490674541195 $293 $545 forward 7 unknown #
edge $-1 $297 -10.984490674541195 $406 10.984490674541195 $294 $546 forward 7 unknown #
point $-1 44.726706747642446 -28.384880951767016 10.984490674541195 #
point $-1 44.726706747642446 28.384880951767016 10.984490674541195 #
face $-1 $-1 $547 $43 $-1 $548 reversed single #
loop $-1 $-1 $309 $299 #
plane-surface $-1 0 -28.384880951767016 0 0 1 0 0 0 1 forward_v I I I I #
coedge $-1 $549 $302 $429 $550 forward $186 $-1 #
coedge $-1 $302 $549 $551 $552 forward $186 $-1 #
edge $-1 $553 -44.726706747642446 $430 44.726706747642446 $302 $554 forward 7 unknown #
coedge $-1 $304 $303 $555 $556 reversed $117 $-1 #
coedge $-1 $305 $311 $425 $550 reversed $300 $-1 #
vertex $-1 $550 $557 #
straight-curve $-1 44.726706747642446 -18.917287192807301 -4.6316924399629107 0 0 1 I I #
coedge $-1 $555 $558 $307 $433 forward $547 $-1 #
edge $-1 $438 -16.559338915623435 $434 -7.0917451566637215 $432 $559 forward 7 unknown #
vertex $-1 $433 $560 #
straight-curve $-1 0 -18.917287192807301 -7.5422790853104473 -1 0 0 I I #
coedge $-1 $561 $309 $558 $562 forward $423 $-1 #
coedge $-1 $309 $561 $311 $440 reversed $423 $-1 #
vertex $-1 $562 $563 #
straight-curve $-1 0 -28.384880951767016 -7.5422790853104473 -1 0 0 I I #
edge $-1 $313 7.5422790853104473 $564 10.984490674541195 $311 $565 forward 7 unknown #
point $-1 44.726706747642446 -18.917287192807301 -7.5422790853104473 #
point $-1 44.726706747642446 -28.384880951767016 -7.5422790853104473 #
loop $-1 $-1 $323 $315 #
plane-surface $-1 -44.726706747642446 0 0 1 0 0 0 0 -1 forward_v I I I I #
coedge $-1 $446 $318 $320 $450 reversed $194 $-1 #
coedge $-1 $318 $445 $566 $567 reversed $194 $-1 #
coedge $-1 $326 $321 $318 $448 forward $316 $-1 #
edge $-1 $451 -18.808780290995458 $568 -11.392321071159806 $447 $569 forward 7 unknown #
coedge $-1 $320 $319 $454 $570 reversed $121 $-1 #
edge $-1 $571 3.2418450280676821e-014 $451 11.304561022558604 $445 $572 forward 7 unknown #
vertex $-1 $322 $573 #
straight-curve $-1 -37.310247527806787 0.65484316267427367 10.984490674541195 0 1 0 I I #
coedge $-1 $566 $323 $326 $458 reversed $443 $-1 #
coedge $-1 $323 $566 $449 $570 forward $443 $-1 #
vertex $-1 $324 $574 #
straight-curve $-1 -44.726706747642446 -2.1144242287827595 30.569774410788284 0 0 1 I I #
straight-curve $-1 -44.726706747642467 -2.1144242287827595 2.4528300769045543 -0.65605901945558964 0 -0.75470958851134928 I I #
edge $-1 $568 -4.7337968794798542 $327 2.1144242287827595 $453 $575 forward 7 unknown #
point $-1 -44.726706747642446 -2.1144242287827595 10.984490674541195 #
point $-1 -37.310247527806794 -2.1144242287827595 10.984490674541195 #
edge $-1 $576 1 $576 0 $330 $-1 forward 7 unknown #
vertex $-1 $331 $577 #
ellipse-curve $-1 -40.263767549213263 -0.74478000713023818 6.0626013562672885 -0.75470958851134928 0 0.65605901945558964 0.32802950972779482 0 0.37735479425567464 1 I I #
point $-1 -40.690447627996818 -0.74478000713023818 7.0960151699785525 #
edge $-1 $578 1 $578 0 $334 $-1 forward 7 unknown #
vertex $-1 $335 $579 #
ellipse-curve $-1 -40.263767549213263 1.3096863253485438 6.0626013562672885 -0.75470958851134928 0 0.65605901945558964 0.32802950972779482 0 0.37735479425567464 1 I I #
point $-1 -40.690447627996818 1.3096863253485438 7.0960151699785525 #
edge $-1 $580 1 $580 0 $338 $-1 forward 7 unknown #
vertex $-1 $339 $581 #
ellipse-curve $-1 -40.263767549213263 3.3641526578273258 6.0626013562672885 -0.75470958851134928 0 0.65605901945558964 0.32802950972779482 0 0.37735479425567464 1 I I #
point $-1 -40.690447627996818 3.3641526578273258 7.0960151699785525 #
loop $-1 $-1 $349 $342 #
plane-surface $-1 -44.726706747642446 0 0 1 0 0 0 0 -1 forward_v I I I I #
coedge $-1 $582 $583 $346 $477 forward $343 $-1 #
coedge $-1 $346 $345 $482 $584 reversed $140 $-1 #
edge $-1 $479 2.4415314745949637 $585 13.746092497153533 $475 $586 forward 7 unknown #
coedge $-1 $352 $347 $583 $587 forward $223 $-1 #
vertex $-1 $587 $588 #
straight-curve $-1 -37.310247527806787 12.480385198817853 10.984490674541195 0 1 0 I I #
coedge $-1 $589 $349 $352 $486 reversed $473 $-1 #
coedge $-1 $349 $589 $476 $584 forward $473 $-1 #
vertex $-1 $350 $590 #
straight-curve $-1 -44.726706747642446 21.536659843504399 30.569774410788284 0 0 1 I I #
straight-curve $-1 -44.726706747642467 21.536659843504399 2.4528300769045543 -0.65605901945558964 0 -0.75470958851134928 I I #
edge $-1 $591 -28.384880951767016 $353 -21.536659843504399 $481 $592 forward 7 unknown #
point $-1 -44.726706747642446 21.536659843504399 10.984490674541195 #
point $-1 -37.310247527806794 21.536659843504399 10.984490674541195 #
edge $-1 $593 1 $593 0 $356 $-1 forward 7 unknown #
vertex $-1 $357 $594 #
ellipse-curve $-1 -40.263767549213263 22.906304065156917 6.0626013562672885 -0.75470958851134928 0 0.65605901945558964 0.32802950972779482 0 0.37735479425567464 1 I I #
point $-1 -40.690447627996818 22.906304065156917 7.0960151699785525 #
edge $-1 $595 1 $595 0 $360 $-1 forward 7 unknown #
vertex $-1 $361 $596 #
ellipse-curve $-1 -40.263767549213263 24.960770397635699 6.0626013562672885 -0.75470958851134928 0 0.65605901945558964 0.32802950972779482 0 0.37735479425567464 1 I I #
point $-1 -40.690447627996818 24.960770397635699 7.0960151699785525 #
edge $-1 $597 1 $597 0 $364 $-1 forward 7 unknown #
vertex $-1 $365 $598 #
ellipse-curve $-1 -40.263767549213263 27.015236730114481 6.0626013562672885 -0.75470958851134928 0 0.65605901945558964 0.32802950972779482 0 0.37735479425567464 1 I I #
point $-1 -40.690447627996818 27.015236730114481 7.0960151699785525 #
loop $-1 $-1 $376 $368 #
plane-surface $-1 44.726706747642446 0 0 -1 0 0 0 0 1 forward_v I I I I #
coedge $-1 $504 $371 $373 $508 reversed $252 $-1 #
coedge $-1 $371 $503 $599 $600 reversed $252 $-1 #
coedge $-1 $379 $374 $371 $506 forward $369 $-1 #
edge $-1 $509 11.560146969095715 $601 15.751601609224263 $505 $602 forward 7 unknown #
coedge $-1 $373 $372 $512 $603 reversed $159 $-1 #
edge $-1 $604 -89.453413495284877 $509 -82.793126036302908 $503 $605 forward 7 unknown #
vertex $-1 $375 $606 #
straight-curve $-1 40.535252107513898 4.5108339759351921 10.984490674541192 0 -1 0 I I #
coedge $-1 $599 $376 $379 $516 reversed $501 $-1 #
coedge $-1 $376 $599 $507 $603 forward $501 $-1 #
vertex $-1 $377 $607 #
straight-curve $-1 44.726706747642446 13.410106560461692 65.810845571324236 0 0 1 I I #
straight-curve $-1 -11.568149499817302 13.410106560461692 75.326834895188711 0.62932038083071107 0 -0.77714596973225614 I I #
edge $-1 $601 4.6332293432790763 $380 13.410106560461692 $511 $608 forward 7 unknown #
point $-1 44.726706747642446 13.410106560461692 10.984490674541195 #
point $-1 40.535252107513898 13.410106560461692 10.984490674541192 #
edge $-1 $609 1 $609 0 $383 $-1 forward 7 unknown #
vertex $-1 $384 $610 #
ellipse-curve $-1 41.702220383365095 6.3886047867155966 7.6443886720702121 0.77714596973225614 0 0.62932038083071107 0.31466019041535553 0 -0.38857298486612807 1 I I #
point $-1 42.945639617993535 6.3886047867155966 8.0079099116719998 #
edge $-1 $611 1 $611 0 $387 $-1 forward 7 unknown #
vertex $-1 $388 $612 #
ellipse-curve $-1 41.702220383365095 9.0216679518703842 7.6443886720702121 0.77714596973225614 0 0.62932038083071107 0.31466019041535553 0 -0.38857298486612807 1 I I #
point $-1 42.945639617993535 9.0216679518703842 8.0079099116719998 #
edge $-1 $613 1 $613 0 $391 $-1 forward 7 unknown #
vertex $-1 $392 $614 #
ellipse-curve $-1 41.702220383365095 11.654731117025172 7.6443886720702121 0.77714596973225614 0 0.62932038083071107 0.31466019041535553 0 -0.38857298486612807 1 I I #
point $-1 42.945639617993535 11.654731117025172 8.0079099116719998 #
plane-surface $-1 44.726706747642446 0 0 -1 0 0 0 0 1 forward_v I I I I #
coedge $-1 $400 $398 $402 $536 reversed $281 $-1 #
edge $-1 $413 -10.984490674541195 $538 10.984490674541195 $412 $615 forward 7 unknown #
vertex $-1 $536 $616 #
straight-curve $-1 -44.726706747642446 -28.384880951767016 0 0 0 -1 I I #
edge $-1 $534 -28.384880951767016 $538 28.384880951767016 $532 $617 forward 7 unknown #
straight-curve $-1 0 -28.384880951767016 -10.984490674541195 -1 0 0 I I #
vertex $-1 $405 $618 #
straight-curve $-1 0 28.384880951767016 -10.984490674541195 1 0 0 I I #
point $-1 44.726706747642446 28.384880951767016 -10.984490674541195 #
point $-1 44.726706747642446 -28.384880951767016 -10.984490674541195 #
straight-curve $-1 -44.726706747642446 0 10.984490674541195 0 -1 0 I I #
point $-1 -44.726706747642446 28.384880951767016 10.984490674541195 #
point $-1 -44.726706747642446 -28.384880951767016 10.984490674541195 #
straight-curve $-1 44.726706747642446 -28.384880951767016 0 0 0 -1 I I #
straight-curve $-1 44.726706747642446 28.384880951767016 0 0 0 -1 I I #
loop $-1 $-1 $555 $422 #
plane-surface $-1 -44.726706747642446 0 0 1 0 0 0 0 -1 forward_v I I I I #
coedge $-1 $426 $425 $561 $619 forward $186 $-1 #
edge $-1 $430 18.917287192807301 $564 28.384880951767016 $429 $620 forward 7 unknown #
coedge $-1 $558 $555 $426 $552 reversed $547 $-1 #
edge $-1 $621 -28.384880951767016 $553 -18.917287192807301 $551 $622 forward 7 unknown #
vertex $-1 $556 $623 #
straight-curve $-1 0 -18.917287192807301 -10.984490674541195 1 0 0 I I #
coedge $-1 $551 $432 $428 $556 forward $547 $-1 #
edge $-1 $434 2.9105866453475366 $553 6.3527982345782847 $555 $624 forward 7 unknown #
point $-1 44.726706747642446 -18.917287192807301 -10.984490674541195 #
coedge $-1 $432 $551 $436 $562 reversed $547 $-1 #
straight-curve $-1 -44.726706747642446 -11.825542036143579 -7.5422790853104473 0 1 0 I I #
point $-1 -44.726706747642446 -18.917287192807301 -7.5422790853104473 #
coedge $-1 $437 $436 $549 $619 reversed $423 $-1 #
edge $-1 $438 7.5422790853104473 $621 10.984490674541195 $558 $625 forward 7 unknown #
point $-1 -44.726706747642446 -28.384880951767016 -7.5422790853104473 #
vertex $-1 $440 $626 #
straight-curve $-1 44.726706747642446 -28.384880951767016 0 0 0 -1 I I #
coedge $-1 $454 $453 $446 $567 forward $443 $-1 #
edge $-1 $568 19.585283736247089 $571 28.116944333883705 $566 $627 forward 7 unknown #
vertex $-1 $458 $628 #
straight-curve $-1 -56.119027818802252 4.7337968794798542 10.984490674541195 -1 0 0 I I #
edge $-1 $571 -4.0789537168055805 $455 2.7692673914570332 $454 $629 forward 7 unknown #
vertex $-1 $570 $630 #
straight-curve $-1 -44.726706747642467 4.7337968794798542 2.4528300769045543 0.65605901945558964 0 0.75470958851134928 I I #
point $-1 -37.310247527806794 4.7337968794798542 10.984490674541195 #
point $-1 -44.726706747642446 -2.1144242287827595 2.4528300769045788 #
straight-curve $-1 -44.726706747642446 0 10.984490674541195 0 -1 0 I I #
vertex $-1 $461 $631 #
point $-1 -39.935738039485464 -0.74478000713023818 6.4399561505229634 #
vertex $-1 $465 $632 #
point $-1 -39.935738039485464 1.3096863253485438 6.4399561505229634 #
vertex $-1 $469 $633 #
point $-1 -39.935738039485464 3.3641526578273258 6.4399561505229634 #
coedge $-1 $583 $475 $589 $634 reversed $343 $-1 #
coedge $-1 $475 $582 $478 $587 reversed $343 $-1 #
edge $-1 $585 -15.90449575294916 $483 -9.0562746446865461 $482 $635 forward 7 unknown #
vertex $-1 $477 $636 #
straight-curve $-1 -35.708458782614059 28.384880951767016 12.827137889070265 -0.65605901945558975 0 -0.75470958851134939 I I #
edge $-1 $479 37.310247527806794 $591 44.726706747642446 $583 $637 forward 7 unknown #
point $-1 -37.310247527806794 28.384880951767013 10.984490674541195 #
coedge $-1 $482 $481 $582 $634 forward $473 $-1 #
point $-1 -44.726706747642446 21.536659843504399 2.4528300769045788 #
vertex $-1 $587 $638 #
straight-curve $-1 -44.726706747642446 0 10.984490674541195 0 -1 0 I I #
vertex $-1 $489 $639 #
point $-1 -39.935738039485464 22.906304065156917 6.4399561505229634 #
vertex $-1 $493 $640 #
point $-1 -39.935738039485464 24.960770397635699 6.4399561505229634 #
vertex $-1 $497 $641 #
point $-1 -39.935738039485464 27.015236730114481 6.4399561505229634 #
coedge $-1 $512 $511 $504 $600 forward $501 $-1 #
edge $-1 $601 54.826354896783045 $604 60.002370452789179 $599 $642 forward 7 unknown #
vertex $-1 $516 $643 #
straight-curve $-1 28.975105138418183 4.6332293432790763 10.984490674541192 1 0 0 I I #
edge $-1 $604 0.12239536734388423 $513 8.8992725845264999 $512 $644 forward 7 unknown #
vertex $-1 $603 $645 #
straight-curve $-1 -11.568149499817302 4.6332293432790763 75.326834895188711 -0.62932038083071107 0 0.77714596973225614 I I #
point $-1 40.535252107513898 4.6332293432790763 10.984490674541192 #
point $-1 44.726706747642446 13.410106560461692 5.8084751185350569 #
straight-curve $-1 44.726706747642446 0 10.984490674541195 0 1 0 I I #
vertex $-1 $519 $646 #
point $-1 42.016880573780448 6.3886047867155966 7.255815687204084 #
vertex $-1 $523 $647 #
point $-1 42.016880573780448 9.0216679518703842 7.255815687204084 #
vertex $-1 $527 $648 #
point $-1 42.016880573780448 11.654731117025172 7.255815687204084 #
straight-curve $-1 -44.726706747642446 28.384880951767016 0 0 0 -1 I I #
point $-1 -44.726706747642446 -28.384880951767016 -10.984490674541195 #
straight-curve $-1 -44.726706747642446 0 -10.984490674541195 0 1 0 I I #
point $-1 -44.726706747642446 28.384880951767016 -10.984490674541195 #
edge $-1 $564 -44.726706747642446 $621 44.726706747642446 $561 $649 forward 7 unknown #
straight-curve $-1 44.726706747642446 0 -10.984490674541195 0 -1 0 I I #
vertex $-1 $552 $650 #
straight-curve $-1 -44.726706747642446 0 -10.984490674541195 0 1 0 I I #
point $-1 -44.726706747642446 -18.917287192807301 -10.984490674541195 #
straight-curve $-1 -44.726706747642446 -18.917287192807301 -4.6316924399629107 0 0 -1 I I #
straight-curve $-1 -44.726706747642446 -28.384880951767016 0 0 0 -1 I I #
point $-1 44.726706747642446 -28.384880951767016 -10.984490674541195 #
straight-curve $-1 -44.726706747642446 4.7337968794798542 30.569774410788284 0 0 -1 I I #
point $-1 -44.726706747642446 4.7337968794798542 10.984490674541195 #
straight-curve $-1 -44.726706747642446 0.65484316267427367 2.4528300769045721 0 -1 0 I I #
point $-1 -44.726706747642446 4.7337968794798542 2.4528300769045788 #
point $-1 -39.886412754957583 -0.74478000713023818 5.7345718465394935 #
point $-1 -39.886412754957583 1.3096863253485438 5.7345718465394935 #
point $-1 -39.886412754957583 3.3641526578273258 5.7345718465394935 #
edge $-1 $591 -10.984490674541195 $585 -2.4528300769045788 $582 $651 forward 7 unknown #
straight-curve $-1 -44.726706747642446 12.480385198817853 2.4528300769045721 0 -1 0 I I #
point $-1 -44.726706747642446 28.384880951767013 2.4528300769045788 #
straight-curve $-1 0 28.384880951767016 10.984490674541195 -1 0 0 I I #
point $-1 -44.726706747642446 28.384880951767016 10.984490674541195 #
point $-1 -39.886412754957583 22.906304065156917 5.7345718465394935 #
point $-1 -39.886412754957583 24.960770397635699 5.7345718465394935 #
point $-1 -39.886412754957583 27.015236730114481 5.7345718465394935 #
straight-curve $-1 44.726706747642446 4.6332293432790763 65.810845571324236 0 0 -1 I I #
point $-1 44.726706747642446 4.6332293432790763 10.984490674541195 #
straight-curve $-1 44.726706747642439 4.5108339759351921 5.808475118535064 0 1 0 I I #
point $-1 44.726706747642446 4.6332293432790763 5.8084751185350569 #
point $-1 41.313647398498965 6.3886047867155966 7.3297284816548558 #
point $-1 41.313647398498965 9.0216679518703842 7.3297284816548558 #
point $-1 41.313647398498965 11.654731117025172 7.3297284816548558 #
straight-curve $-1 0 -28.384880951767016 -10.984490674541195 -1 0 0 I I #
point $-1 -44.726706747642446 -28.384880951767016 -10.984490674541195 #
straight-curve $-1 -44.726706747642446 28.384880951767016 0 0 0 -1 I I #
End-of-ACIS-data 