500 0 12 0           
7 Unknown 11 ACIS 5.0 NT 24 Thu Mar 25 15:11:27 1999 
-1 9.9999999999999995e-007 1e-010 
body $-1 $12 $-1 $13 #
body $-1 $14 $-1 $15 #
body $-1 $16 $-1 $17 #
body $-1 $18 $-1 $19 #
body $-1 $20 $-1 $21 #
body $-1 $22 $-1 $23 #
body $-1 $24 $-1 $25 #
body $-1 $26 $-1 $27 #
body $-1 $28 $-1 $29 #
body $-1 $30 $-1 $31 #
body $-1 $32 $-1 $33 #
body $-1 $34 $-1 $35 #
lump $-1 $-1 $36 $0 #
transform $-1 1 0 0 0 1 0 0 0 1 78.298287911618388 42.138228350127974 20.537097662461431 1 rotate no_reflect no_shear #
lump $-1 $-1 $37 $1 #
transform $-1 1 0 0 0 1 0 0 0 1 78.298287911618388 42.138228350127974 20.537097662461431 1 rotate no_reflect no_shear #
lump $-1 $-1 $38 $2 #
transform $-1 1 0 0 0 1 0 0 0 1 78.298287911618388 42.138228350127974 20.537097662461431 1 rotate no_reflect no_shear #
lump $-1 $-1 $39 $3 #
transform $-1 1 0 0 0 1 0 0 0 1 78.298287911618388 42.138228350127974 20.537097662461431 1 rotate no_reflect no_shear #
lump $-1 $-1 $40 $4 #
transform $-1 1 0 0 0 1 0 0 0 1 78.298287911618388 42.138228350127974 20.537097662461431 1 rotate no_reflect no_shear #
lump $-1 $-1 $41 $5 #
transform $-1 1 0 0 0 1 0 0 0 1 78.298287911618388 42.138228350127974 20.537097662461431 1 rotate no_reflect no_shear #
lump $-1 $-1 $42 $6 #
transform $-1 1 0 0 0 1 0 0 0 1 78.298287911618388 42.138228350127974 20.537097662461431 1 rotate no_reflect no_shear #
lump $-1 $-1 $43 $7 #
transform $-1 1 0 0 0 1 0 0 0 1 78.298287911618388 42.138228350127974 20.537097662461431 1 rotate no_reflect no_shear #
lump $-1 $-1 $44 $8 #
transform $-1 1 0 0 0 1 0 0 0 1 78.298287911618388 42.138228350127974 20.537097662461431 1 rotate no_reflect no_shear #
lump $-1 $-1 $45 $9 #
transform $-1 1 0 0 0 1 0 0 0 1 78.298287911618388 42.138228350127974 20.537097662461431 1 rotate no_reflect no_shear #
lump $-1 $-1 $46 $10 #
transform $-1 1 0 0 0 1 0 0 0 1 78.298287911618388 42.138228350127974 20.537097662461431 1 rotate no_reflect no_shear #
lump $-1 $-1 $47 $11 #
transform $-1 1 0 0 0 1 0 0 0 1 78.298287911618388 42.138228350127974 20.537097662461431 1 rotate no_reflect no_shear #
shell $-1 $-1 $-1 $48 $-1 $12 #
shell $-1 $-1 $-1 $49 $-1 $14 #
shell $-1 $-1 $-1 $50 $-1 $16 #
shell $-1 $-1 $-1 $51 $-1 $18 #
shell $-1 $-1 $-1 $52 $-1 $20 #
shell $-1 $-1 $-1 $53 $-1 $22 #
shell $-1 $-1 $-1 $54 $-1 $24 #
shell $-1 $-1 $-1 $55 $-1 $26 #
shell $-1 $-1 $-1 $56 $-1 $28 #
shell $-1 $-1 $-1 $57 $-1 $30 #
shell $-1 $-1 $-1 $58 $-1 $32 #
shell $-1 $-1 $-1 $59 $-1 $34 #
face $-1 $60 $61 $36 $-1 $62 forward single #
face $-1 $63 $64 $37 $-1 $65 forward single #
face $-1 $66 $67 $38 $-1 $68 reversed single #
face $-1 $69 $70 $39 $-1 $71 forward single #
face $-1 $72 $73 $40 $-1 $74 forward single #
face $-1 $75 $76 $41 $-1 $77 forward single #
face $-1 $78 $79 $42 $-1 $80 reversed single #
face $-1 $81 $82 $43 $-1 $83 forward single #
face $-1 $84 $85 $44 $-1 $86 forward single #
face $-1 $87 $88 $45 $-1 $89 forward single #
face $-1 $90 $91 $46 $-1 $92 reversed single #
face $-1 $93 $94 $47 $-1 $95 forward single #
face $-1 $96 $97 $36 $-1 $98 reversed single #
loop $-1 $-1 $99 $48 #
plane-surface $-1 0 0 20.537097662461431 0 0 1 1 0 0 forward_v I I I I #
face $-1 $100 $101 $37 $-1 $102 forward single #
loop $-1 $-1 $103 $49 #
plane-surface $-1 -78.298287911618388 0 0 1 0 0 0 0 -1 forward_v I I I I #
face $-1 $104 $105 $38 $-1 $106 reversed single #
loop $-1 $-1 $107 $50 #
plane-surface $-1 -6.8742000596226944 -156.66571503354837 108.18907191392105 -1 0 0 0 -0.73135370988377701 0.68199835119979291 forward_v I I I I #
face $-1 $108 $109 $39 $-1 $110 forward single #
loop $-1 $111 $112 $51 #
cone-surface $-1 -20.871320860506671 -32.634881003390589 10.426572801075224 0 0.73135370988377701 -0.68199835119979291 1.5 0 0 1 I I 0 1 1.5 forward I I I I #
face $-1 $113 $114 $40 $-1 $115 forward single #
loop $-1 $116 $117 $52 #
cone-surface $-1 -15.62240056017518 -32.634881003390589 10.426572801075224 0 0.73135370988377701 -0.68199835119979291 1.5 0 0 1 I I 0 1 1.5 forward I I I I #
face $-1 $118 $119 $41 $-1 $120 forward single #
loop $-1 $121 $122 $53 #
cone-surface $-1 -10.373480259843689 -32.634881003390589 10.426572801075224 0 0.73135370988377701 -0.68199835119979291 1.5 0 0 1 I I 0 1 1.5 forward I I I I #
face $-1 $123 $124 $42 $-1 $125 reversed single #
loop $-1 $-1 $126 $54 #
plane-surface $-1 59.495090826475717 -156.66571503354837 108.18907191392105 -1 0 0 0 -0.73135370988377701 0.68199835119979291 forward_v I I I I #
face $-1 $127 $128 $43 $-1 $129 forward single #
loop $-1 $130 $131 $55 #
cone-surface $-1 45.497970025591741 -32.634881003390589 10.426572801075224 0 0.73135370988377701 -0.68199835119979291 1.5 0 0 1 I I 0 1 1.5 forward I I I I #
face $-1 $132 $133 $44 $-1 $134 forward single #
loop $-1 $135 $136 $56 #
cone-surface $-1 50.746890325923232 -32.634881003390589 10.426572801075224 0 0.73135370988377701 -0.68199835119979291 1.5 0 0 1 I I 0 1 1.5 forward I I I I #
face $-1 $137 $138 $45 $-1 $139 forward single #
loop $-1 $140 $141 $57 #
cone-surface $-1 55.995810626254723 -32.634881003390589 10.426572801075224 0 0.73135370988377701 -0.68199835119979291 1.5 0 0 1 I I 0 1 1.5 forward I I I I #
face $-1 $142 $143 $46 $-1 $144 reversed single #
loop $-1 $-1 $145 $58 #
plane-surface $-1 -20.556715041766246 119.29106331901585 161.48665277161669 1 0 0 0 -0.80901700255871778 -0.5877852410284794 forward_v I I I I #
face $-1 $146 $147 $47 $-1 $148 forward single #
loop $-1 $149 $150 $59 #
cone-surface $-1 -5.2587828760069328 32.340901664590206 8.8683144815964745 0 -0.80901700255871778 -0.5877852410284794 3 0 0 1 I I 0 1 3 forward I I I I #
face $-1 $151 $152 $36 $-1 $153 reversed single #
loop $-1 $-1 $154 $60 #
plane-surface $-1 0 0 -20.537097662461431 0 0 1 1 0 0 forward_v I I I I #
coedge $-1 $155 $156 $157 $158 forward $61 $-1 #
face $-1 $159 $160 $37 $-1 $161 reversed single #
loop $-1 $-1 $162 $63 #
plane-surface $-1 0 0 20.537097662461431 0 0 1 1 0 0 forward_v I I I I #
coedge $-1 $163 $164 $165 $166 forward $64 $-1 #
face $-1 $167 $168 $38 $-1 $169 reversed single #
loop $-1 $-1 $170 $66 #
plane-surface $-1 -15.62240056017518 -42.138228350127974 1.390465398940222 0 -0.73135370988377701 0.68199835119979291 1 0 0 forward_v I I I I #
coedge $-1 $171 $172 $173 $174 reversed $67 $-1 #
face $-1 $-1 $175 $39 $-1 $176 forward single #
loop $-1 $177 $178 $69 #
cone-surface $-1 -20.871320860506671 -31.510279874578782 9.377865308049774 0 0.73135370988377701 -0.68199835119979291 0.75 0 0 1 I I -0.70710678118654757 0.70710678118654757 0.75 forward I I I I #
loop $-1 $-1 $179 $51 #
coedge $-1 $112 $112 $180 $181 reversed $70 $-1 #
face $-1 $-1 $182 $40 $-1 $183 forward single #
loop $-1 $184 $185 $72 #
cone-surface $-1 -15.62240056017518 -31.510279874578782 9.377865308049774 0 0.73135370988377701 -0.68199835119979291 0.75 0 0 1 I I -0.70710678118654757 0.70710678118654757 0.75 forward I I I I #
loop $-1 $-1 $186 $52 #
coedge $-1 $117 $117 $187 $188 reversed $73 $-1 #
face $-1 $-1 $189 $41 $-1 $190 forward single #
loop $-1 $191 $192 $75 #
cone-surface $-1 -10.373480259843689 -31.510279874578782 9.377865308049774 0 0.73135370988377701 -0.68199835119979291 0.75 0 0 1 I I -0.70710678118654757 0.70710678118654757 0.75 forward I I I I #
loop $-1 $-1 $193 $53 #
coedge $-1 $122 $122 $194 $195 reversed $76 $-1 #
face $-1 $196 $197 $42 $-1 $198 reversed single #
loop $-1 $-1 $199 $78 #
plane-surface $-1 50.746890325923232 -42.138228350127974 1.390465398940222 0 -0.73135370988377701 0.68199835119979291 1 0 0 forward_v I I I I #
coedge $-1 $200 $201 $202 $203 reversed $79 $-1 #
face $-1 $-1 $204 $43 $-1 $205 forward single #
loop $-1 $206 $207 $81 #
cone-surface $-1 45.497970025591741 -31.510279874578782 9.377865308049774 0 0.73135370988377701 -0.68199835119979291 0.75 0 0 1 I I -0.70710678118654757 0.70710678118654757 0.75 forward I I I I #
loop $-1 $-1 $208 $55 #
coedge $-1 $131 $131 $209 $210 reversed $82 $-1 #
face $-1 $-1 $211 $44 $-1 $212 forward single #
loop $-1 $213 $214 $84 #
cone-surface $-1 50.746890325923232 -31.510279874578782 9.377865308049774 0 0.73135370988377701 -0.68199835119979291 0.75 0 0 1 I I -0.70710678118654757 0.70710678118654757 0.75 forward I I I I #
loop $-1 $-1 $215 $56 #
coedge $-1 $136 $136 $216 $217 reversed $85 $-1 #
face $-1 $-1 $218 $45 $-1 $219 forward single #
loop $-1 $220 $221 $87 #
cone-surface $-1 55.995810626254723 -31.510279874578782 9.377865308049774 0 0.73135370988377701 -0.68199835119979291 0.75 0 0 1 I I -0.70710678118654757 0.70710678118654757 0.75 forward I I I I #
loop $-1 $-1 $222 $57 #
coedge $-1 $141 $141 $223 $224 reversed $88 $-1 #
face $-1 $225 $226 $46 $-1 $227 reversed single #
loop $-1 $-1 $228 $90 #
plane-surface $-1 -5.2587828760069328 -7.3982290644581354 69.441496707120905 0 0.80901700255871778 0.5877852410284794 1 0 0 forward_v I I I I #
coedge $-1 $229 $230 $231 $232 reversed $91 $-1 #
face $-1 $-1 $233 $47 $-1 $234 forward single #
loop $-1 $235 $236 $93 #
cone-surface $-1 -5.2587828760069328 28.332715846423042 5.9561971098143793 0 -0.80901700255871778 -0.5877852410284794 1.5 0 0 1 I I -0.70710678118654757 0.70710678118654757 1.5 forward I I I I #
loop $-1 $-1 $237 $59 #
coedge $-1 $150 $150 $238 $239 reversed $94 $-1 #
face $-1 $240 $241 $36 $-1 $242 reversed single #
loop $-1 $-1 $243 $96 #
plane-surface $-1 0 -42.138228350127974 0 0 1 0 0 0 1 forward_v I I I I #
coedge $-1 $244 $245 $246 $247 forward $97 $-1 #
coedge $-1 $248 $99 $249 $250 forward $61 $-1 #
coedge $-1 $99 $248 $251 $252 forward $61 $-1 #
coedge $-1 $253 $254 $99 $158 reversed $255 $-1 #
edge $-1 $256 -42.138228350127974 $257 42.138228350127974 $157 $258 forward 7 unknown #
face $-1 $259 $260 $37 $-1 $261 reversed single #
loop $-1 $-1 $262 $100 #
plane-surface $-1 -102.15628196265834 -38.627673898478058 0 1 0 0 0 0 -1 forward_v I I I I #
coedge $-1 $263 $264 $163 $265 forward $101 $-1 #
coedge $-1 $266 $103 $162 $265 reversed $64 $-1 #
coedge $-1 $103 $266 $267 $268 reversed $64 $-1 #
coedge $-1 $269 $270 $103 $166 reversed $260 $-1 #
edge $-1 $271 -20.537097662461431 $272 20.537097662461431 $165 $273 forward 7 unknown #
face $-1 $274 $275 $38 $-1 $276 forward single #
loop $-1 $-1 $277 $104 #
plane-surface $-1 -24.370601060727665 -156.66571503354837 108.18907191392105 1 0 0 0 0.73135370988377701 -0.68199835119979291 forward_v I I I I #
coedge $-1 $278 $279 $280 $281 reversed $105 $-1 #
coedge $-1 $172 $107 $282 $283 reversed $67 $-1 #
coedge $-1 $107 $171 $278 $284 reversed $67 $-1 #
coedge $-1 $280 $285 $107 $174 forward $275 $-1 #
edge $-1 $286 36.194629166646209 $287 54.049152167323037 $173 $288 forward 7 unknown #
loop $-1 $-1 $180 $108 #
plane-surface $-1 -15.62240056017518 -42.138228350127974 1.390465398940222 0 -0.73135370988377701 0.68199835119979291 1 0 0 forward_v I I I I #
loop $-1 $-1 $289 $69 #
coedge $-1 $178 $178 $179 $290 reversed $109 $-1 #
coedge $-1 $179 $179 $178 $290 forward $111 $-1 #
coedge $-1 $180 $180 $112 $181 forward $175 $-1 #
edge $-1 $291 -6.3230283249026854e-016 $291 6.2831853071795996 $180 $292 forward 7 unknown #
loop $-1 $-1 $187 $113 #
plane-surface $-1 -15.62240056017518 -42.138228350127974 1.390465398940222 0 -0.73135370988377701 0.68199835119979291 1 0 0 forward_v I I I I #
loop $-1 $-1 $293 $72 #
coedge $-1 $185 $185 $186 $294 reversed $114 $-1 #
coedge $-1 $186 $186 $185 $294 forward $116 $-1 #
coedge $-1 $187 $187 $117 $188 forward $182 $-1 #
edge $-1 $295 -6.3230283249026854e-016 $295 6.2831853071795996 $187 $296 forward 7 unknown #
loop $-1 $-1 $194 $118 #
plane-surface $-1 -15.62240056017518 -42.138228350127974 1.390465398940222 0 -0.73135370988377701 0.68199835119979291 1 0 0 forward_v I I I I #
loop $-1 $-1 $297 $75 #
coedge $-1 $192 $192 $193 $298 reversed $119 $-1 #
coedge $-1 $193 $193 $192 $298 forward $121 $-1 #
coedge $-1 $194 $194 $122 $195 forward $189 $-1 #
edge $-1 $299 -6.3230283249026854e-016 $299 6.2831853071795996 $194 $300 forward 7 unknown #
face $-1 $301 $302 $42 $-1 $303 reversed single #
loop $-1 $-1 $304 $123 #
plane-surface $-1 41.998689825370747 -156.66571503354837 108.18907191392105 1 0 0 0 0.73135370988377701 -0.68199835119979291 forward_v I I I I #
coedge $-1 $305 $306 $307 $308 reversed $124 $-1 #
coedge $-1 $201 $126 $309 $310 reversed $79 $-1 #
coedge $-1 $126 $200 $305 $311 reversed $79 $-1 #
coedge $-1 $307 $312 $126 $203 forward $313 $-1 #
edge $-1 $314 36.194629166646209 $315 54.049152167323037 $202 $316 forward 7 unknown #
loop $-1 $-1 $209 $127 #
plane-surface $-1 50.746890325923232 -42.138228350127974 1.390465398940222 0 -0.73135370988377701 0.68199835119979291 1 0 0 forward_v I I I I #
loop $-1 $-1 $317 $81 #
coedge $-1 $207 $207 $208 $318 reversed $128 $-1 #
coedge $-1 $208 $208 $207 $318 forward $130 $-1 #
coedge $-1 $209 $209 $131 $210 forward $204 $-1 #
edge $-1 $319 -6.3230283249026854e-016 $319 6.2831853071795996 $209 $320 forward 7 unknown #
loop $-1 $-1 $216 $132 #
plane-surface $-1 50.746890325923232 -42.138228350127974 1.390465398940222 0 -0.73135370988377701 0.68199835119979291 1 0 0 forward_v I I I I #
loop $-1 $-1 $321 $84 #
coedge $-1 $214 $214 $215 $322 reversed $133 $-1 #
coedge $-1 $215 $215 $214 $322 forward $135 $-1 #
coedge $-1 $216 $216 $136 $217 forward $211 $-1 #
edge $-1 $323 -6.3230283249026854e-016 $323 6.2831853071795996 $216 $324 forward 7 unknown #
loop $-1 $-1 $223 $137 #
plane-surface $-1 50.746890325923232 -42.138228350127974 1.390465398940222 0 -0.73135370988377701 0.68199835119979291 1 0 0 forward_v I I I I #
loop $-1 $-1 $325 $87 #
coedge $-1 $221 $221 $222 $326 reversed $138 $-1 #
coedge $-1 $222 $222 $221 $326 forward $140 $-1 #
coedge $-1 $223 $223 $141 $224 forward $218 $-1 #
edge $-1 $327 -6.3230283249026854e-016 $327 6.2831853071795996 $223 $328 forward 7 unknown #
face $-1 $329 $330 $46 $-1 $331 reversed single #
loop $-1 $-1 $332 $142 #
plane-surface $-1 10.03914928975238 119.29106331901585 161.48665277161669 -1 0 0 0 0.80901700255871778 0.5877852410284794 forward_v I I I I #
coedge $-1 $333 $334 $335 $336 reversed $143 $-1 #
coedge $-1 $230 $145 $337 $338 reversed $91 $-1 #
coedge $-1 $145 $229 $333 $339 reversed $91 $-1 #
coedge $-1 $335 $340 $145 $232 forward $341 $-1 #
edge $-1 $342 17.507303309379949 $343 31.512636051797266 $231 $344 forward 7 unknown #
loop $-1 $-1 $238 $146 #
plane-surface $-1 -5.2587828760069328 -7.3982290644581354 69.441496707120905 0 0.80901700255871778 0.5877852410284794 1 0 0 forward_v I I I I #
loop $-1 $-1 $345 $93 #
coedge $-1 $236 $236 $237 $346 reversed $147 $-1 #
coedge $-1 $237 $237 $236 $346 forward $149 $-1 #
coedge $-1 $238 $238 $150 $239 forward $233 $-1 #
edge $-1 $347 6.5882539531002099e-016 $347 6.2831853071796013 $238 $348 forward 7 unknown #
face $-1 $349 $350 $36 $-1 $351 reversed single #
loop $-1 $-1 $352 $151 #
plane-surface $-1 -78.298287911618388 0 0 1 0 0 0 0 -1 forward_v I I I I #
coedge $-1 $353 $251 $354 $355 forward $152 $-1 #
coedge $-1 $356 $154 $353 $357 forward $97 $-1 #
coedge $-1 $154 $356 $358 $359 forward $97 $-1 #
coedge $-1 $254 $253 $154 $247 reversed $255 $-1 #
edge $-1 $360 -42.138228350127974 $361 42.138228350127974 $246 $362 forward 7 unknown #
coedge $-1 $156 $155 $352 $363 forward $61 $-1 #
coedge $-1 $364 $365 $155 $250 reversed $350 $-1 #
edge $-1 $257 -78.298287911618388 $366 78.298287911618388 $249 $367 forward 7 unknown #
coedge $-1 $243 $368 $156 $252 reversed $152 $-1 #
edge $-1 $369 -78.298287911618388 $256 78.298287911618388 $251 $370 forward 7 unknown #
coedge $-1 $246 $157 $368 $371 forward $255 $-1 #
coedge $-1 $157 $246 $364 $372 reversed $255 $-1 #
loop $-1 $-1 $253 $349 #
vertex $-1 $158 $373 #
vertex $-1 $158 $374 #
straight-curve $-1 78.298287911618388 0 20.537097662461431 0 1 0 I I #
face $-1 $375 $376 $37 $-1 $377 reversed single #
loop $-1 $-1 $165 $159 #
plane-surface $-1 -90.227284937138364 -35.117119446828141 0 0 -1 0 0 0 -1 forward_v I I I I #
coedge $-1 $378 $379 $380 $381 forward $160 $-1 #
coedge $-1 $382 $162 $270 $383 forward $101 $-1 #
coedge $-1 $162 $382 $384 $385 forward $101 $-1 #
edge $-1 $386 -42.138228350127974 $272 -35.117119446828141 $162 $387 forward 7 unknown #
coedge $-1 $164 $163 $388 $389 reversed $64 $-1 #
coedge $-1 $390 $391 $164 $268 forward $376 $-1 #
edge $-1 $271 35.117119446828141 $392 42.138228350127974 $267 $393 forward 7 unknown #
coedge $-1 $380 $165 $391 $394 reversed $260 $-1 #
coedge $-1 $165 $380 $263 $383 reversed $260 $-1 #
vertex $-1 $268 $395 #
vertex $-1 $383 $396 #
straight-curve $-1 -78.298287911618388 -35.117119446828141 0 0 0 1 I I #
face $-1 $-1 $397 $38 $-1 $398 reversed single #
loop $-1 $-1 $173 $167 #
plane-surface $-1 0 0 20.537097662461431 0 0 1 1 0 0 forward_v I I I I #
coedge $-1 $399 $400 $401 $402 reversed $168 $-1 #
coedge $-1 $403 $170 $172 $284 forward $105 $-1 #
coedge $-1 $170 $403 $399 $404 forward $105 $-1 #
coedge $-1 $401 $173 $170 $281 forward $275 $-1 #
edge $-1 $287 -0.93700022046489551 $405 16.559400780640075 $280 $406 forward 7 unknown #
coedge $-1 $407 $408 $171 $283 forward $397 $-1 #
edge $-1 $409 -52.704070558020305 $286 -33.557438294499093 $282 $410 forward 7 unknown #
edge $-1 $287 -26.179715785627032 $409 0 $172 $411 forward 7 unknown #
coedge $-1 $173 $401 $407 $412 forward $275 $-1 #
vertex $-1 $174 $413 #
vertex $-1 $174 $414 #
straight-curve $-1 -6.8742000596226944 -78.332857516774183 20.537097662461434 0 1 0 I I #
coedge $-1 $289 $289 $-1 $415 reversed $177 $-1 #
edge $-1 $416 0 $416 6.2831853071796004 $178 $417 forward 7 unknown #
vertex $-1 $181 $418 #
ellipse-curve $-1 -20.871320860506671 -33.210966849789557 10.963781530700826 0 -0.73135370988377701 0.68199835119979291 1.5 0 0 1 I I #
coedge $-1 $293 $293 $-1 $419 reversed $184 $-1 #
edge $-1 $420 0 $420 6.2831853071796004 $185 $421 forward 7 unknown #
vertex $-1 $188 $422 #
ellipse-curve $-1 -15.62240056017518 -33.210966849789557 10.963781530700826 0 -0.73135370988377701 0.68199835119979291 1.5 0 0 1 I I #
coedge $-1 $297 $297 $-1 $423 reversed $191 $-1 #
edge $-1 $424 0 $424 6.2831853071796004 $192 $425 forward 7 unknown #
vertex $-1 $195 $426 #
ellipse-curve $-1 -10.373480259843689 -33.210966849789557 10.963781530700826 0 -0.73135370988377701 0.68199835119979291 1.5 0 0 1 I I #
face $-1 $-1 $313 $42 $-1 $427 forward single #
loop $-1 $-1 $428 $196 #
plane-surface $-1 0 -42.138228350127974 0 0 1 0 0 0 1 forward_v I I I I #
coedge $-1 $429 $430 $431 $432 reversed $197 $-1 #
coedge $-1 $433 $199 $201 $311 forward $124 $-1 #
coedge $-1 $199 $433 $429 $434 forward $124 $-1 #
coedge $-1 $431 $202 $199 $308 forward $313 $-1 #
edge $-1 $315 -34.121645663514101 $435 -16.625244662409131 $307 $436 forward 7 unknown #
coedge $-1 $437 $438 $200 $310 forward $302 $-1 #
edge $-1 $439 -52.704070558020305 $314 -33.557438294499093 $309 $440 forward 7 unknown #
edge $-1 $315 -26.179715785627032 $439 0 $201 $441 forward 7 unknown #
coedge $-1 $202 $431 $437 $442 forward $313 $-1 #
loop $-1 $-1 $431 $301 #
vertex $-1 $310 $443 #
vertex $-1 $203 $444 #
straight-curve $-1 59.495090826475717 -78.332857516774183 20.537097662461434 0 1 0 I I #
coedge $-1 $317 $317 $-1 $445 reversed $206 $-1 #
edge $-1 $446 0 $446 6.2831853071796004 $207 $447 forward 7 unknown #
vertex $-1 $210 $448 #
ellipse-curve $-1 45.497970025591741 -33.210966849789557 10.963781530700826 0 -0.73135370988377701 0.68199835119979291 1.5 0 0 1 I I #
coedge $-1 $321 $321 $-1 $449 reversed $213 $-1 #
edge $-1 $450 0 $450 6.2831853071796004 $214 $451 forward 7 unknown #
vertex $-1 $217 $452 #
ellipse-curve $-1 50.746890325923232 -33.210966849789557 10.963781530700826 0 -0.73135370988377701 0.68199835119979291 1.5 0 0 1 I I #
coedge $-1 $325 $325 $-1 $453 reversed $220 $-1 #
edge $-1 $454 0 $454 6.2831853071796004 $221 $455 forward 7 unknown #
vertex $-1 $224 $456 #
ellipse-curve $-1 55.995810626254723 -33.210966849789557 10.963781530700826 0 -0.73135370988377701 0.68199835119979291 1.5 0 0 1 I I #
face $-1 $-1 $341 $46 $-1 $457 forward single #
loop $-1 $-1 $458 $225 #
plane-surface $-1 0 42.138228350127974 0 0 -1 0 0 0 -1 forward_v I I I I #
coedge $-1 $459 $460 $461 $462 reversed $226 $-1 #
coedge $-1 $463 $228 $230 $339 forward $143 $-1 #
coedge $-1 $228 $463 $459 $464 forward $143 $-1 #
coedge $-1 $461 $231 $228 $336 forward $341 $-1 #
edge $-1 $343 -17.92732360376278 $465 12.668540727755847 $335 $466 forward 7 unknown #
coedge $-1 $467 $468 $229 $338 forward $330 $-1 #
edge $-1 $469 -79.482916064598015 $342 -60.206228723346911 $337 $470 forward 7 unknown #
edge $-1 $343 60.449161006489511 $469 84.276456700255878 $230 $471 forward 7 unknown #
coedge $-1 $231 $461 $467 $472 forward $341 $-1 #
loop $-1 $-1 $461 $329 #
vertex $-1 $338 $473 #
vertex $-1 $232 $474 #
straight-curve $-1 -20.556715041766246 59.645531659507924 20.537097662461434 0 -1 0 I I #
coedge $-1 $345 $345 $-1 $475 reversed $235 $-1 #
edge $-1 $476 0 $476 6.2831853071796004 $236 $477 forward 7 unknown #
vertex $-1 $239 $478 #
ellipse-curve $-1 -5.2587828760069328 35.135561978919327 10.898753991835871 0 0.80901700255871778 0.5877852410284794 3 0 0 1 I I #
face $-1 $-1 $255 $36 $-1 $479 reversed single #
loop $-1 $-1 $364 $240 #
plane-surface $-1 0 42.138228350127974 0 0 -1 0 0 0 -1 forward_v I I I I #
coedge $-1 $480 $354 $248 $363 reversed $241 $-1 #
coedge $-1 $368 $243 $244 $357 reversed $152 $-1 #
coedge $-1 $352 $481 $243 $355 reversed $241 $-1 #
edge $-1 $369 -20.537097662461431 $482 20.537097662461431 $354 $483 forward 7 unknown #
coedge $-1 $245 $244 $481 $484 forward $97 $-1 #
edge $-1 $361 -78.298287911618388 $482 78.298287911618388 $353 $485 forward 7 unknown #
coedge $-1 $365 $364 $245 $359 reversed $350 $-1 #
edge $-1 $486 -78.298287911618388 $360 78.298287911618388 $358 $487 forward 7 unknown #
vertex $-1 $247 $488 #
vertex $-1 $371 $489 #
straight-curve $-1 78.298287911618388 0 -20.537097662461431 0 -1 0 I I #
edge $-1 $366 -42.138228350127974 $369 42.138228350127974 $352 $490 forward 7 unknown #
coedge $-1 $358 $249 $254 $372 forward $350 $-1 #
coedge $-1 $249 $358 $480 $491 reversed $350 $-1 #
vertex $-1 $250 $492 #
straight-curve $-1 0 42.138228350127974 20.537097662461431 -1 0 0 I I #
coedge $-1 $251 $353 $253 $371 reversed $152 $-1 #
vertex $-1 $363 $493 #
straight-curve $-1 0 -42.138228350127974 20.537097662461431 1 0 0 I I #
edge $-1 $256 -20.537097662461431 $361 20.537097662461431 $253 $494 forward 7 unknown #
edge $-1 $257 -20.537097662461431 $360 20.537097662461431 $254 $495 forward 7 unknown #
point $-1 78.298287911618388 -42.138228350127974 20.537097662461431 #
point $-1 78.298287911618388 42.138228350127974 20.537097662461431 #
face $-1 $-1 $496 $37 $-1 $497 reversed single #
loop $-1 $-1 $267 $259 #
plane-surface $-1 0 0 -20.537097662461431 0 0 1 1 0 0 forward_v I I I I #
coedge $-1 $498 $262 $499 $500 reversed $160 $-1 #
coedge $-1 $262 $498 $382 $501 reversed $160 $-1 #
coedge $-1 $270 $269 $262 $381 reversed $260 $-1 #
edge $-1 $502 -20.537097662461431 $503 20.537097662461431 $380 $504 forward 7 unknown #
coedge $-1 $264 $263 $379 $501 forward $101 $-1 #
edge $-1 $272 -11.928997025519976 $502 11.928997025519976 $270 $505 forward 7 unknown #
coedge $-1 $506 $388 $264 $385 reversed $496 $-1 #
edge $-1 $507 -102.15628196265834 $386 -78.298287911618388 $384 $508 forward 7 unknown #
vertex $-1 $389 $509 #
straight-curve $-1 -78.298287911618388 0 20.537097662461431 0 1 0 I I #
coedge $-1 $384 $510 $266 $389 forward $496 $-1 #
edge $-1 $392 -20.537097662461431 $386 20.537097662461431 $388 $511 forward 7 unknown #
coedge $-1 $499 $267 $510 $512 forward $376 $-1 #
coedge $-1 $267 $499 $269 $394 forward $376 $-1 #
vertex $-1 $512 $513 #
straight-curve $-1 -78.298287911618388 0 -20.537097662461431 0 -1 0 I I #
edge $-1 $503 -11.928997025519976 $271 11.928997025519976 $269 $514 forward 7 unknown #
point $-1 -78.298287911618388 -35.117119446828141 -20.537097662461431 #
point $-1 -78.298287911618388 -35.117119446828141 20.537097662461431 #
loop $-1 $-1 $282 $274 #
plane-surface $-1 0 -42.138228350127974 0 0 1 0 0 0 1 forward_v I I I I #
coedge $-1 $400 $277 $279 $404 reversed $168 $-1 #
coedge $-1 $277 $399 $515 $516 reversed $168 $-1 #
coedge $-1 $285 $280 $277 $402 forward $275 $-1 #
edge $-1 $405 -54.049152167323037 $517 -36.194629166646209 $401 $518 forward 7 unknown #
coedge $-1 $279 $278 $408 $519 reversed $105 $-1 #
edge $-1 $520 0 $405 26.179715785627032 $399 $521 forward 7 unknown #
vertex $-1 $281 $522 #
straight-curve $-1 -7.8112002800875899 -24.283705349451147 20.537097662461431 -1 0 0 I I #
coedge $-1 $515 $282 $285 $412 reversed $397 $-1 #
coedge $-1 $282 $515 $403 $519 forward $397 $-1 #
vertex $-1 $283 $523 #
straight-curve $-1 -6.8742000596226944 -42.138228350127974 54.094535956960527 0 0 1 I I #
straight-curve $-1 -6.8742000596226944 -42.138228350127974 1.390465398940222 0 -0.68199835119979291 -0.73135370988377701 I I #
edge $-1 $517 -24.370601060727665 $286 -6.8742000596226944 $407 $524 forward 7 unknown #
point $-1 -6.8742000596226944 -42.138228350127974 20.537097662461431 #
point $-1 -6.8742000596226944 -24.283705349451147 20.537097662461431 #
edge $-1 $525 1 $525 0 $289 $-1 forward 7 unknown #
vertex $-1 $290 $526 #
ellipse-curve $-1 -20.871320860506671 -32.058795156991614 9.8893640714496183 0 -0.73135370988377701 0.68199835119979291 1.5 0 0 1 I I #
point $-1 -19.371320860506671 -33.210966849789564 10.963781530700832 #
edge $-1 $527 1 $527 0 $293 $-1 forward 7 unknown #
vertex $-1 $294 $528 #
ellipse-curve $-1 -15.62240056017518 -32.058795156991614 9.8893640714496183 0 -0.73135370988377701 0.68199835119979291 1.5 0 0 1 I I #
point $-1 -14.12240056017518 -33.210966849789564 10.963781530700832 #
edge $-1 $529 1 $529 0 $297 $-1 forward 7 unknown #
vertex $-1 $298 $530 #
ellipse-curve $-1 -10.373480259843689 -32.058795156991614 9.8893640714496183 0 -0.73135370988377701 0.68199835119979291 1.5 0 0 1 I I #
point $-1 -8.8734802598436886 -33.210966849789564 10.963781530700832 #
plane-surface $-1 0 0 20.537097662461431 0 0 1 1 0 0 forward_v I I I I #
coedge $-1 $438 $437 $430 $531 forward $302 $-1 #
coedge $-1 $430 $304 $306 $434 reversed $197 $-1 #
coedge $-1 $304 $429 $428 $531 reversed $197 $-1 #
coedge $-1 $312 $307 $304 $432 forward $313 $-1 #
edge $-1 $435 -54.049152167323037 $532 -36.194629166646209 $431 $533 forward 7 unknown #
coedge $-1 $306 $305 $438 $534 reversed $124 $-1 #
edge $-1 $535 0 $435 26.179715785627032 $429 $536 forward 7 unknown #
vertex $-1 $308 $537 #
straight-curve $-1 25.373445162961616 -24.283705349451147 20.537097662461431 -1 0 0 I I #
coedge $-1 $428 $309 $312 $442 reversed $302 $-1 #
coedge $-1 $309 $428 $433 $534 forward $302 $-1 #
vertex $-1 $310 $538 #
straight-curve $-1 59.495090826475717 -42.138228350127974 54.094535956960527 0 0 1 I I #
straight-curve $-1 59.495090826475717 -42.138228350127974 1.390465398940222 0 -0.68199835119979291 -0.73135370988377701 I I #
edge $-1 $532 41.998689825370747 $314 59.495090826475717 $437 $539 forward 7 unknown #
point $-1 59.495090826475717 -42.138228350127974 20.537097662461431 #
point $-1 59.495090826475717 -24.283705349451147 20.537097662461431 #
edge $-1 $540 1 $540 0 $317 $-1 forward 7 unknown #
vertex $-1 $318 $541 #
ellipse-curve $-1 45.497970025591741 -32.058795156991614 9.8893640714496183 0 -0.73135370988377701 0.68199835119979291 1.5 0 0 1 I I #
point $-1 46.997970025591741 -33.210966849789564 10.963781530700832 #
edge $-1 $542 1 $542 0 $321 $-1 forward 7 unknown #
vertex $-1 $322 $543 #
ellipse-curve $-1 50.746890325923232 -32.058795156991614 9.8893640714496183 0 -0.73135370988377701 0.68199835119979291 1.5 0 0 1 I I #
point $-1 52.246890325923232 -33.210966849789564 10.963781530700832 #
edge $-1 $544 1 $544 0 $325 $-1 forward 7 unknown #
vertex $-1 $326 $545 #
ellipse-curve $-1 55.995810626254723 -32.058795156991614 9.8893640714496183 0 -0.73135370988377701 0.68199835119979291 1.5 0 0 1 I I #
point $-1 57.495810626254723 -33.210966849789564 10.963781530700832 #
plane-surface $-1 0 0 20.537097662461431 0 0 1 1 0 0 forward_v I I I I #
coedge $-1 $468 $467 $460 $546 forward $330 $-1 #
coedge $-1 $460 $332 $334 $464 reversed $226 $-1 #
coedge $-1 $332 $459 $458 $546 reversed $226 $-1 #
coedge $-1 $340 $335 $332 $462 forward $341 $-1 #
edge $-1 $465 -31.512636051797266 $547 -17.507303309379949 $461 $548 forward 7 unknown #
coedge $-1 $334 $333 $468 $549 reversed $143 $-1 #
edge $-1 $550 -84.276456700255878 $465 -60.449161006489511 $459 $551 forward 7 unknown #
vertex $-1 $336 $552 #
straight-curve $-1 -2.6293914380034664 28.132895607710665 20.537097662461427 1 0 0 I I #
coedge $-1 $458 $337 $340 $472 reversed $330 $-1 #
coedge $-1 $337 $458 $463 $549 forward $330 $-1 #
vertex $-1 $338 $553 #
straight-curve $-1 -20.556715041766246 42.138228350127974 80.743326385808345 0 0 1 I I #
straight-curve $-1 -20.556715041766246 -7.3982290644581354 69.441496707120905 0 0.5877852410284794 -0.80901700255871778 I I #
edge $-1 $547 -10.03914928975238 $342 20.556715041766246 $467 $554 forward 7 unknown #
point $-1 -20.556715041766246 42.138228350127974 20.537097662461431 #
point $-1 -20.556715041766246 28.132895607710658 20.537097662461434 #
edge $-1 $555 1 $555 0 $345 $-1 forward 7 unknown #
vertex $-1 $346 $556 #
ellipse-curve $-1 -5.2587828760069328 29.54624135026112 6.8378749713570981 0 0.80901700255871778 0.5877852410284794 3 0 0 1 I I #
point $-1 -2.2587828760069328 35.135561978919299 10.898753991835848 #
plane-surface $-1 78.298287911618388 0 0 -1 0 0 0 0 1 forward_v I I I I #
coedge $-1 $481 $352 $365 $491 forward $241 $-1 #
coedge $-1 $354 $480 $356 $484 reversed $241 $-1 #
vertex $-1 $484 $557 #
straight-curve $-1 -78.298287911618388 -42.138228350127974 0 0 0 -1 I I #
edge $-1 $482 -42.138228350127974 $486 42.138228350127974 $481 $558 forward 7 unknown #
straight-curve $-1 0 -42.138228350127974 -20.537097662461431 -1 0 0 I I #
vertex $-1 $359 $559 #
straight-curve $-1 0 42.138228350127974 -20.537097662461431 1 0 0 I I #
point $-1 78.298287911618388 42.138228350127974 -20.537097662461431 #
point $-1 78.298287911618388 -42.138228350127974 -20.537097662461431 #
straight-curve $-1 -78.298287911618388 0 20.537097662461431 0 -1 0 I I #
edge $-1 $366 -20.537097662461431 $486 20.537097662461431 $365 $560 forward 7 unknown #
point $-1 -78.298287911618388 42.138228350127974 20.537097662461431 #
point $-1 -78.298287911618388 -42.138228350127974 20.537097662461431 #
straight-curve $-1 78.298287911618388 -42.138228350127974 0 0 0 -1 I I #
straight-curve $-1 78.298287911618388 42.138228350127974 0 0 0 -1 I I #
loop $-1 $-1 $388 $375 #
plane-surface $-1 0 -42.138228350127974 0 0 1 0 0 0 1 forward_v I I I I #
coedge $-1 $379 $378 $506 $561 reversed $160 $-1 #
coedge $-1 $391 $390 $378 $500 forward $376 $-1 #
edge $-1 $562 -3.5105544516499165 $503 3.5105544516499165 $378 $563 forward 7 unknown #
edge $-1 $502 -3.5105544516499165 $507 3.5105544516499165 $379 $564 forward 7 unknown #
vertex $-1 $383 $565 #
vertex $-1 $394 $566 #
straight-curve $-1 -102.15628196265834 -35.117119446828141 0 0 0 -1 I I #
straight-curve $-1 -90.227284937138364 -35.117119446828141 20.537097662461431 -1 0 0 I I #
coedge $-1 $510 $384 $498 $561 forward $496 $-1 #
vertex $-1 $501 $567 #
straight-curve $-1 0 -42.138228350127974 20.537097662461431 1 0 0 I I #
point $-1 -78.298287911618388 -42.138228350127974 20.537097662461431 #
coedge $-1 $388 $506 $390 $512 reversed $496 $-1 #
straight-curve $-1 -78.298287911618388 -42.138228350127974 0 0 0 1 I I #
edge $-1 $392 -11.928997025519976 $562 11.928997025519976 $510 $568 forward 7 unknown #
point $-1 -78.298287911618388 -42.138228350127974 -20.537097662461431 #
straight-curve $-1 -90.227284937138364 -35.117119446828141 -20.537097662461431 1 0 0 I I #
coedge $-1 $408 $407 $400 $516 forward $397 $-1 #
edge $-1 $517 33.557438294499093 $520 52.704070558020305 $515 $569 forward 7 unknown #
vertex $-1 $412 $570 #
straight-curve $-1 -24.370601060727665 -78.332857516774183 20.537097662461434 0 -1 0 I I #
edge $-1 $520 -16.559400780640075 $409 0.93700022046489551 $408 $571 forward 7 unknown #
vertex $-1 $519 $572 #
straight-curve $-1 -24.370601060727665 -42.138228350127974 1.390465398940222 0 0.68199835119979291 0.73135370988377701 I I #
point $-1 -24.370601060727665 -24.283705349451147 20.537097662461431 #
point $-1 -6.8742000596226944 -42.138228350127974 1.390465398940222 #
straight-curve $-1 0 -42.138228350127974 20.537097662461431 1 0 0 I I #
vertex $-1 $415 $573 #
point $-1 -19.371320860506671 -32.058795156991614 9.8893640714496183 #
vertex $-1 $419 $574 #
point $-1 -14.12240056017518 -32.058795156991614 9.8893640714496183 #
vertex $-1 $423 $575 #
point $-1 -8.8734802598436886 -32.058795156991614 9.8893640714496183 #
edge $-1 $532 33.557438294499093 $535 52.704070558020305 $428 $576 forward 7 unknown #
vertex $-1 $442 $577 #
straight-curve $-1 41.998689825370747 -78.332857516774183 20.537097662461434 0 -1 0 I I #
edge $-1 $535 16.625244662409131 $439 34.121645663514101 $438 $578 forward 7 unknown #
vertex $-1 $534 $579 #
straight-curve $-1 41.998689825370747 -42.138228350127974 1.390465398940222 0 0.68199835119979291 0.73135370988377701 I I #
point $-1 41.998689825370747 -24.283705349451147 20.537097662461431 #
point $-1 59.495090826475717 -42.138228350127974 1.390465398940222 #
straight-curve $-1 0 -42.138228350127974 20.537097662461431 1 0 0 I I #
vertex $-1 $445 $580 #
point $-1 46.997970025591741 -32.058795156991614 9.8893640714496183 #
vertex $-1 $449 $581 #
point $-1 52.246890325923232 -32.058795156991614 9.8893640714496183 #
vertex $-1 $453 $582 #
point $-1 57.495810626254723 -32.058795156991614 9.8893640714496183 #
edge $-1 $547 60.206228723346911 $550 79.482916064598015 $458 $583 forward 7 unknown #
vertex $-1 $472 $584 #
straight-curve $-1 10.03914928975238 59.645531659507924 20.537097662461434 0 1 0 I I #
edge $-1 $550 -12.668540727755847 $469 17.92732360376278 $468 $585 forward 7 unknown #
vertex $-1 $549 $586 #
straight-curve $-1 10.03914928975238 -7.3982290644581354 69.441496707120905 0 -0.5877852410284794 0.80901700255871778 I I #
point $-1 10.03914928975238 28.132895607710658 20.537097662461434 #
point $-1 -20.556715041766246 42.138228350127974 1.2604103212103297 #
straight-curve $-1 0 42.138228350127974 20.537097662461431 -1 0 0 I I #
vertex $-1 $475 $587 #
point $-1 -2.2587828760069328 29.54624135026112 6.8378749713570981 #
point $-1 -78.298287911618388 -42.138228350127974 -20.537097662461431 #
straight-curve $-1 -78.298287911618388 0 -20.537097662461431 0 1 0 I I #
point $-1 -78.298287911618388 42.138228350127974 -20.537097662461431 #
straight-curve $-1 -78.298287911618388 42.138228350127974 0 0 0 -1 I I #
edge $-1 $507 -20.537097662461431 $562 20.537097662461431 $498 $588 forward 7 unknown #
vertex $-1 $500 $589 #
straight-curve $-1 -102.15628196265834 -38.627673898478058 -20.537097662461431 0 1 0 I I #
straight-curve $-1 -102.15628196265834 -38.627673898478058 20.537097662461431 0 -1 0 I I #
point $-1 -102.15628196265834 -35.117119446828141 20.537097662461431 #
point $-1 -102.15628196265834 -35.117119446828141 -20.537097662461431 #
point $-1 -102.15628196265834 -42.138228350127974 20.537097662461431 #
straight-curve $-1 -90.227284937138364 -42.138228350127974 -20.537097662461431 -1 0 0 I I #
straight-curve $-1 -24.370601060727665 -42.138228350127974 54.094535956960527 0 0 -1 I I #
point $-1 -24.370601060727665 -42.138228350127974 20.537097662461431 #
straight-curve $-1 -7.8112002800875899 -42.138228350127974 1.390465398940224 1 0 0 I I #
point $-1 -24.370601060727665 -42.138228350127974 1.390465398940222 #
point $-1 -20.871320860506671 -30.961764592165949 8.8663665446499298 #
point $-1 -15.62240056017518 -30.961764592165949 8.8663665446499298 #
point $-1 -10.373480259843689 -30.961764592165949 8.8663665446499298 #
straight-curve $-1 41.998689825370747 -42.138228350127974 54.094535956960527 0 0 -1 I I #
point $-1 41.998689825370747 -42.138228350127974 20.537097662461431 #
straight-curve $-1 25.373445162961616 -42.138228350127974 1.390465398940224 1 0 0 I I #
point $-1 41.998689825370747 -42.138228350127974 1.390465398940222 #
point $-1 45.497970025591741 -30.961764592165949 8.8663665446499298 #
point $-1 50.746890325923232 -30.961764592165949 8.8663665446499298 #
point $-1 55.995810626254723 -30.961764592165949 8.8663665446499298 #
straight-curve $-1 10.03914928975238 42.138228350127974 80.743326385808345 0 0 -1 I I #
point $-1 10.03914928975238 42.138228350127974 20.537097662461431 #
straight-curve $-1 -2.6293914380034664 42.138228350127974 1.2604103212103226 -1 0 0 I I #
point $-1 10.03914928975238 42.138228350127974 1.2604103212103297 #
point $-1 -5.2587828760069328 27.119190342584965 5.0745192482716606 #
straight-curve $-1 -102.15628196265834 -42.138228350127974 0 0 0 -1 I I #
point $-1 -102.15628196265834 -42.138228350127974 -20.537097662461431 #
End-of-ACIS-data 