500 0 12 0           
7 Unknown 11 ACIS 5.0 NT 24 Thu Mar 25 21:57:55 1999 
-1 9.9999999999999995e-007 1e-010 
body $-1 $12 $-1 $13 #
body $-1 $14 $-1 $15 #
body $-1 $16 $-1 $17 #
body $-1 $18 $-1 $19 #
body $-1 $20 $-1 $21 #
body $-1 $22 $-1 $23 #
body $-1 $24 $-1 $25 #
body $-1 $26 $-1 $27 #
body $-1 $28 $-1 $29 #
body $-1 $30 $-1 $31 #
body $-1 $32 $-1 $33 #
body $-1 $34 $-1 $35 #
lump $-1 $-1 $36 $0 #
transform $-1 1 0 0 0 1 0 0 0 1 53.590502639851067 36.041399811521771 17.753416963953587 1 rotate no_reflect no_shear #
lump $-1 $-1 $37 $1 #
transform $-1 1 0 0 0 1 0 0 0 1 53.590502639851067 36.041399811521771 17.753416963953587 1 rotate no_reflect no_shear #
lump $-1 $-1 $38 $2 #
transform $-1 1 0 0 0 1 0 0 0 1 53.590502639851067 36.041399811521771 17.753416963953587 1 rotate no_reflect no_shear #
lump $-1 $-1 $39 $3 #
transform $-1 1 0 0 0 1 0 0 0 1 53.590502639851067 36.041399811521771 17.753416963953587 1 rotate no_reflect no_shear #
lump $-1 $-1 $40 $4 #
transform $-1 1 0 0 0 1 0 0 0 1 53.590502639851067 36.041399811521771 17.753416963953587 1 rotate no_reflect no_shear #
lump $-1 $-1 $41 $5 #
transform $-1 1 0 0 0 1 0 0 0 1 53.590502639851067 36.041399811521771 17.753416963953587 1 rotate no_reflect no_shear #
lump $-1 $-1 $42 $6 #
transform $-1 1 0 0 0 1 0 0 0 1 53.590502639851067 36.041399811521771 17.753416963953587 1 rotate no_reflect no_shear #
lump $-1 $-1 $43 $7 #
transform $-1 1 0 0 0 1 0 0 0 1 53.590502639851067 36.041399811521771 17.753416963953587 1 rotate no_reflect no_shear #
lump $-1 $-1 $44 $8 #
transform $-1 1 0 0 0 1 0 0 0 1 53.590502639851067 36.041399811521771 17.753416963953587 1 rotate no_reflect no_shear #
lump $-1 $-1 $45 $9 #
transform $-1 1 0 0 0 1 0 0 0 1 53.590502639851067 36.041399811521771 17.753416963953587 1 rotate no_reflect no_shear #
lump $-1 $-1 $46 $10 #
transform $-1 1 0 0 0 1 0 0 0 1 53.590502639851067 36.041399811521771 17.753416963953587 1 rotate no_reflect no_shear #
lump $-1 $-1 $47 $11 #
transform $-1 1 0 0 0 1 0 0 0 1 53.590502639851067 36.041399811521771 17.753416963953587 1 rotate no_reflect no_shear #
shell $-1 $-1 $-1 $48 $-1 $12 #
shell $-1 $-1 $-1 $49 $-1 $14 #
shell $-1 $-1 $-1 $50 $-1 $16 #
shell $-1 $-1 $-1 $51 $-1 $18 #
shell $-1 $-1 $-1 $52 $-1 $20 #
shell $-1 $-1 $-1 $53 $-1 $22 #
shell $-1 $-1 $-1 $54 $-1 $24 #
shell $-1 $-1 $-1 $55 $-1 $26 #
shell $-1 $-1 $-1 $56 $-1 $28 #
shell $-1 $-1 $-1 $57 $-1 $30 #
shell $-1 $-1 $-1 $58 $-1 $32 #
shell $-1 $-1 $-1 $59 $-1 $34 #
face $-1 $60 $61 $36 $-1 $62 forward single #
face $-1 $63 $64 $37 $-1 $65 forward single #
face $-1 $66 $67 $38 $-1 $68 reversed single #
face $-1 $69 $70 $39 $-1 $71 forward single #
face $-1 $72 $73 $40 $-1 $74 forward single #
face $-1 $75 $76 $41 $-1 $77 forward single #
face $-1 $78 $79 $42 $-1 $80 reversed single #
face $-1 $81 $82 $43 $-1 $83 forward single #
face $-1 $84 $85 $44 $-1 $86 forward single #
face $-1 $87 $88 $45 $-1 $89 reversed single #
face $-1 $90 $91 $46 $-1 $92 forward single #
face $-1 $93 $94 $47 $-1 $95 forward single #
face $-1 $96 $97 $36 $-1 $98 reversed single #
loop $-1 $-1 $99 $48 #
plane-surface $-1 0 0 17.753416963953587 0 0 1 1 0 0 forward_v I I I I #
face $-1 $100 $101 $37 $-1 $102 reversed single #
loop $-1 $-1 $103 $49 #
plane-surface $-1 0 -26.571260056243208 -11.590786413967294 0 0 1 1 0 0 forward_v I I I I #
face $-1 $104 $105 $38 $-1 $106 reversed single #
loop $-1 $-1 $107 $50 #
plane-surface $-1 19.49313584442514 23.093274329765297 149.6437709111415 0 1 0 0.52991927123019833 0 0.84804809178421925 forward_v I I I I #
face $-1 $108 $109 $39 $-1 $110 forward single #
loop $-1 $111 $112 $51 #
cone-surface $-1 40.314949803123383 25.682899426116592 8.841776780097069 -0.52991927123019833 0 -0.84804809178421925 0.84804809178421925 0 -0.52991927123019833 1 I I 0 1 1 forward I I I I #
face $-1 $113 $114 $40 $-1 $115 forward single #
loop $-1 $116 $117 $52 #
cone-surface $-1 40.314949803123383 29.567337070643532 8.841776780097069 -0.52991927123019833 0 -0.84804809178421925 0.84804809178421925 0 -0.52991927123019833 1 I I 0 1 1 forward I I I I #
face $-1 $118 $119 $41 $-1 $120 forward single #
loop $-1 $121 $122 $53 #
cone-surface $-1 40.314949803123383 33.451774715170473 8.841776780097069 -0.52991927123019833 0 -0.84804809178421925 0.84804809178421925 0 -0.52991927123019833 1 I I 0 1 1 forward I I I I #
face $-1 $123 $124 $42 $-1 $125 reversed single #
loop $-1 $-1 $126 $54 #
plane-surface $-1 -147.33312290574949 -2.5380413082007607 62.533854637011657 0 1 0 -0.87461971476443456 0 0.48480960649040278 forward_v I I I I #
face $-1 $127 $128 $43 $-1 $129 forward single #
loop $-1 $130 $131 $55 #
cone-surface $-1 -50.020677034827045 0.27044363618463052 13.28701530443564 0.87461971476443456 0 -0.48480960649040278 0.48480960649040278 0 0.87461971476443456 1 I I 0 1 1 forward I I I I #
face $-1 $132 $133 $44 $-1 $134 forward single #
loop $-1 $135 $136 $56 #
cone-surface $-1 -50.020677034827045 4.4831710527627209 13.28701530443564 0.87461971476443456 0 -0.48480960649040278 0.48480960649040278 0 0.87461971476443456 1 I I 0 1 1 forward I I I I #
face $-1 $137 $138 $45 $-1 $139 reversed single #
loop $-1 $-1 $140 $57 #
plane-surface $-1 -147.33312290574949 24.033218748042444 62.533854637011657 0 1 0 -0.87461971476443456 0 0.48480960649040278 forward_v I I I I #
face $-1 $141 $142 $46 $-1 $143 forward single #
loop $-1 $144 $145 $58 #
cone-surface $-1 -50.020677034827045 26.841703692427842 13.28701530443564 0.87461971476443456 0 -0.48480960649040278 0.48480960649040278 0 0.87461971476443456 1 I I 0 1 1 forward I I I I #
face $-1 $146 $147 $47 $-1 $148 forward single #
loop $-1 $149 $150 $59 #
cone-surface $-1 -50.020677034827045 31.054431109005932 13.28701530443564 0.87461971476443456 0 -0.48480960649040278 0.48480960649040278 0 0.87461971476443456 1 I I 0 1 1 forward I I I I #
face $-1 $151 $152 $36 $-1 $153 reversed single #
loop $-1 $-1 $154 $60 #
plane-surface $-1 0 0 -17.753416963953587 0 0 1 1 0 0 forward_v I I I I #
coedge $-1 $155 $156 $157 $158 forward $61 $-1 #
face $-1 $159 $160 $37 $-1 $161 reversed single #
loop $-1 $-1 $162 $63 #
plane-surface $-1 0 -17.101120300964645 -14.67210168896044 0 -1 0 0 0 -1 forward_v I I I I #
coedge $-1 $163 $164 $165 $166 reversed $64 $-1 #
face $-1 $167 $168 $38 $-1 $169 forward single #
loop $-1 $-1 $170 $66 #
plane-surface $-1 -37.304144363114652 29.567337070643532 58.749123908175775 0.52991927123019833 0 0.84804809178421925 0.84804809178421925 0 -0.52991927123019833 forward_v I I I I #
coedge $-1 $171 $172 $173 $174 reversed $67 $-1 #
face $-1 $-1 $175 $39 $-1 $176 forward single #
loop $-1 $177 $178 $69 #
cone-surface $-1 39.418338751874458 25.682899426116592 7.4068991820072547 -0.52991927123019833 0 -0.84804809178421925 0.42402404589210962 0 -0.26495963561509916 1 I I -0.70710678118654746 0.70710678118654746 0.5 forward I I I I #
loop $-1 $-1 $179 $51 #
coedge $-1 $112 $112 $180 $181 reversed $70 $-1 #
face $-1 $-1 $182 $40 $-1 $183 forward single #
loop $-1 $184 $185 $72 #
cone-surface $-1 39.418338751874458 29.567337070643532 7.4068991820072547 -0.52991927123019833 0 -0.84804809178421925 0.42402404589210962 0 -0.26495963561509916 1 I I -0.70710678118654746 0.70710678118654746 0.5 forward I I I I #
loop $-1 $-1 $186 $52 #
coedge $-1 $117 $117 $187 $188 reversed $73 $-1 #
face $-1 $-1 $189 $41 $-1 $190 forward single #
loop $-1 $191 $192 $75 #
cone-surface $-1 39.418338751874458 33.451774715170473 7.4068991820072547 -0.52991927123019833 0 -0.84804809178421925 0.42402404589210962 0 -0.26495963561509916 1 I I -0.70710678118654746 0.70710678118654746 0.5 forward I I I I #
loop $-1 $-1 $193 $53 #
coedge $-1 $122 $122 $194 $195 reversed $76 $-1 #
face $-1 $196 $197 $42 $-1 $198 reversed single #
loop $-1 $-1 $199 $78 #
plane-surface $-1 -53.590502639851053 2.3768073444736757 10.571473644113482 -0.87461971476443456 0 0.48480960649040278 0.48480960649040278 0 0.87461971476443456 forward_v I I I I #
coedge $-1 $200 $201 $202 $203 reversed $79 $-1 #
face $-1 $-1 $204 $43 $-1 $205 forward single #
loop $-1 $206 $207 $81 #
cone-surface $-1 -48.004049593192924 0.27044363618463052 12.169180501592546 0.87461971476443456 0 -0.48480960649040278 0.24240480324520139 0 0.43730985738221728 1 I I -0.70710678118654746 0.70710678118654746 0.5 forward I I I I #
loop $-1 $-1 $208 $55 #
coedge $-1 $131 $131 $209 $210 reversed $82 $-1 #
face $-1 $-1 $211 $44 $-1 $212 forward single #
loop $-1 $213 $214 $84 #
cone-surface $-1 -48.004049593192924 4.4831710527627209 12.169180501592546 0.87461971476443456 0 -0.48480960649040278 0.24240480324520139 0 0.43730985738221728 1 I I -0.70710678118654746 0.70710678118654746 0.5 forward I I I I #
loop $-1 $-1 $215 $56 #
coedge $-1 $136 $136 $216 $217 reversed $85 $-1 #
face $-1 $218 $219 $45 $-1 $220 reversed single #
loop $-1 $-1 $221 $87 #
plane-surface $-1 -53.590502639851053 28.94806740071688 10.571473644113482 -0.87461971476443456 0 0.48480960649040278 0.48480960649040278 0 0.87461971476443456 forward_v I I I I #
coedge $-1 $222 $223 $224 $225 reversed $88 $-1 #
face $-1 $-1 $226 $46 $-1 $227 forward single #
loop $-1 $228 $229 $90 #
cone-surface $-1 -48.004049593192924 26.841703692427842 12.169180501592546 0.87461971476443456 0 -0.48480960649040278 0.24240480324520139 0 0.43730985738221728 1 I I -0.70710678118654746 0.70710678118654746 0.5 forward I I I I #
loop $-1 $-1 $230 $58 #
coedge $-1 $145 $145 $231 $232 reversed $91 $-1 #
face $-1 $-1 $233 $47 $-1 $234 forward single #
loop $-1 $235 $236 $93 #
cone-surface $-1 -48.004049593192924 31.054431109005932 12.169180501592546 0.87461971476443456 0 -0.48480960649040278 0.24240480324520139 0 0.43730985738221728 1 I I -0.70710678118654746 0.70710678118654746 0.5 forward I I I I #
loop $-1 $-1 $237 $59 #
coedge $-1 $150 $150 $238 $239 reversed $94 $-1 #
face $-1 $240 $241 $36 $-1 $242 reversed single #
loop $-1 $-1 $243 $96 #
plane-surface $-1 0 -36.041399811521771 0 0 1 0 0 0 1 forward_v I I I I #
coedge $-1 $244 $245 $246 $247 forward $97 $-1 #
coedge $-1 $248 $99 $249 $250 forward $61 $-1 #
coedge $-1 $99 $248 $251 $252 forward $61 $-1 #
coedge $-1 $253 $254 $99 $158 reversed $255 $-1 #
edge $-1 $256 -36.041399811521771 $257 36.041399811521771 $157 $258 forward 7 unknown #
face $-1 $259 $260 $37 $-1 $261 reversed single #
loop $-1 $-1 $262 $100 #
plane-surface $-1 0 0 -17.753416963953587 0 0 1 1 0 0 forward_v I I I I #
coedge $-1 $263 $264 $265 $266 reversed $101 $-1 #
coedge $-1 $267 $103 $264 $268 forward $64 $-1 #
coedge $-1 $103 $267 $269 $270 reversed $64 $-1 #
coedge $-1 $271 $265 $103 $166 forward $260 $-1 #
edge $-1 $272 3.8154902728430411 $273 22.755769783400169 $165 $274 forward 7 unknown #
face $-1 $275 $276 $38 $-1 $277 reversed single #
loop $-1 $-1 $278 $104 #
plane-surface $-1 0 0 17.753416963953587 0 0 1 1 0 0 forward_v I I I I #
coedge $-1 $279 $280 $281 $282 reversed $105 $-1 #
coedge $-1 $172 $107 $283 $284 reversed $67 $-1 #
coedge $-1 $107 $171 $279 $285 reversed $67 $-1 #
coedge $-1 $281 $286 $107 $174 forward $287 $-1 #
edge $-1 $288 57.068468491617168 $289 72.870041754934761 $173 $290 forward 7 unknown #
loop $-1 $-1 $180 $108 #
plane-surface $-1 -37.304144363114652 29.567337070643532 58.749123908175775 0.52991927123019833 0 0.84804809178421925 0.84804809178421925 0 -0.52991927123019833 forward_v I I I I #
loop $-1 $-1 $291 $69 #
coedge $-1 $178 $178 $179 $292 reversed $109 $-1 #
coedge $-1 $179 $179 $178 $292 forward $111 $-1 #
coedge $-1 $180 $180 $112 $181 forward $175 $-1 #
edge $-1 $293 0 $293 6.2831853071796004 $180 $294 forward 7 unknown #
loop $-1 $-1 $187 $113 #
plane-surface $-1 -37.304144363114652 29.567337070643532 58.749123908175775 0.52991927123019833 0 0.84804809178421925 0.84804809178421925 0 -0.52991927123019833 forward_v I I I I #
loop $-1 $-1 $295 $72 #
coedge $-1 $185 $185 $186 $296 reversed $114 $-1 #
coedge $-1 $186 $186 $185 $296 forward $116 $-1 #
coedge $-1 $187 $187 $117 $188 forward $182 $-1 #
edge $-1 $297 0 $297 6.2831853071796004 $187 $298 forward 7 unknown #
loop $-1 $-1 $194 $118 #
plane-surface $-1 -37.304144363114652 29.567337070643532 58.749123908175775 0.52991927123019833 0 0.84804809178421925 0.84804809178421925 0 -0.52991927123019833 forward_v I I I I #
loop $-1 $-1 $299 $75 #
coedge $-1 $192 $192 $193 $300 reversed $119 $-1 #
coedge $-1 $193 $193 $192 $300 forward $121 $-1 #
coedge $-1 $194 $194 $122 $195 forward $189 $-1 #
edge $-1 $301 0 $301 6.2831853071796004 $194 $302 forward 7 unknown #
face $-1 $303 $304 $42 $-1 $305 reversed single #
loop $-1 $-1 $306 $123 #
plane-surface $-1 -147.33312290574949 7.2916559971481121 62.533854637011657 0 -1 0 0.87461971476443456 0 -0.48480960649040278 forward_v I I I I #
coedge $-1 $307 $308 $309 $310 reversed $124 $-1 #
coedge $-1 $201 $126 $311 $312 reversed $79 $-1 #
coedge $-1 $126 $200 $307 $313 reversed $79 $-1 #
coedge $-1 $309 $314 $126 $203 forward $315 $-1 #
edge $-1 $316 20.076058813023678 $317 24.057074854567929 $202 $318 forward 7 unknown #
loop $-1 $-1 $209 $127 #
plane-surface $-1 -53.590502639851053 2.3768073444736757 10.571473644113482 -0.87461971476443456 0 0.48480960649040278 0.48480960649040278 0 0.87461971476443456 forward_v I I I I #
loop $-1 $-1 $319 $81 #
coedge $-1 $207 $207 $208 $320 reversed $128 $-1 #
coedge $-1 $208 $208 $207 $320 forward $130 $-1 #
coedge $-1 $209 $209 $131 $210 forward $204 $-1 #
edge $-1 $321 0 $321 6.2831853071796004 $209 $322 forward 7 unknown #
loop $-1 $-1 $216 $132 #
plane-surface $-1 -53.590502639851053 2.3768073444736757 10.571473644113482 -0.87461971476443456 0 0.48480960649040278 0.48480960649040278 0 0.87461971476443456 forward_v I I I I #
loop $-1 $-1 $323 $84 #
coedge $-1 $214 $214 $215 $324 reversed $133 $-1 #
coedge $-1 $215 $215 $214 $324 forward $135 $-1 #
coedge $-1 $216 $216 $136 $217 forward $211 $-1 #
edge $-1 $325 0 $325 6.2831853071796004 $216 $326 forward 7 unknown #
face $-1 $327 $328 $45 $-1 $329 forward single #
loop $-1 $-1 $330 $137 #
plane-surface $-1 -147.33312290574949 33.862916053391316 62.533854637011657 0 -1 0 0.87461971476443456 0 -0.48480960649040278 forward_v I I I I #
coedge $-1 $331 $332 $333 $334 reversed $138 $-1 #
coedge $-1 $223 $140 $335 $336 reversed $88 $-1 #
coedge $-1 $140 $222 $331 $337 reversed $88 $-1 #
coedge $-1 $333 $338 $140 $225 forward $328 $-1 #
edge $-1 $339 20.076058813023678 $340 24.057074854567929 $224 $341 forward 7 unknown #
loop $-1 $-1 $231 $141 #
plane-surface $-1 -53.590502639851053 28.94806740071688 10.571473644113482 -0.87461971476443456 0 0.48480960649040278 0.48480960649040278 0 0.87461971476443456 forward_v I I I I #
loop $-1 $-1 $342 $90 #
coedge $-1 $229 $229 $230 $343 reversed $142 $-1 #
coedge $-1 $230 $230 $229 $343 forward $144 $-1 #
coedge $-1 $231 $231 $145 $232 forward $226 $-1 #
edge $-1 $344 0 $344 6.2831853071796004 $231 $345 forward 7 unknown #
loop $-1 $-1 $238 $146 #
plane-surface $-1 -53.590502639851053 28.94806740071688 10.571473644113482 -0.87461971476443456 0 0.48480960649040278 0.48480960649040278 0 0.87461971476443456 forward_v I I I I #
loop $-1 $-1 $346 $93 #
coedge $-1 $236 $236 $237 $347 reversed $147 $-1 #
coedge $-1 $237 $237 $236 $347 forward $149 $-1 #
coedge $-1 $238 $238 $150 $239 forward $233 $-1 #
edge $-1 $348 0 $348 6.2831853071796004 $238 $349 forward 7 unknown #
face $-1 $350 $351 $36 $-1 $352 reversed single #
loop $-1 $-1 $353 $151 #
plane-surface $-1 -53.590502639851067 0 0 1 0 0 0 0 -1 forward_v I I I I #
coedge $-1 $354 $251 $355 $356 forward $152 $-1 #
coedge $-1 $357 $154 $354 $358 forward $97 $-1 #
coedge $-1 $154 $357 $359 $360 forward $97 $-1 #
coedge $-1 $254 $253 $154 $247 reversed $255 $-1 #
edge $-1 $361 -36.041399811521771 $362 36.041399811521771 $246 $363 forward 7 unknown #
coedge $-1 $156 $155 $364 $365 forward $61 $-1 #
coedge $-1 $366 $367 $155 $250 reversed $351 $-1 #
edge $-1 $257 -53.590502639851067 $368 53.590502639851067 $249 $369 forward 7 unknown #
coedge $-1 $243 $370 $156 $252 reversed $152 $-1 #
edge $-1 $371 -53.590502639851067 $256 53.590502639851067 $251 $372 forward 7 unknown #
coedge $-1 $246 $157 $370 $373 forward $255 $-1 #
coedge $-1 $157 $246 $366 $374 reversed $255 $-1 #
loop $-1 $-1 $253 $350 #
vertex $-1 $158 $375 #
vertex $-1 $158 $376 #
straight-curve $-1 53.590502639851067 0 17.753416963953587 0 1 0 I I #
face $-1 $377 $378 $37 $-1 $379 reversed single #
loop $-1 $-1 $265 $159 #
plane-surface $-1 53.590502639851067 0 0 -1 0 0 0 0 1 forward_v I I I I #
coedge $-1 $380 $381 $263 $382 forward $160 $-1 #
coedge $-1 $383 $162 $262 $382 reversed $101 $-1 #
coedge $-1 $162 $383 $163 $268 reversed $101 $-1 #
coedge $-1 $165 $384 $162 $266 forward $260 $-1 #
edge $-1 $385 -10.417366119473368 $272 -4.2547355694870737 $265 $386 forward 7 unknown #
coedge $-1 $164 $163 $387 $388 reversed $64 $-1 #
edge $-1 $272 -53.590502639851067 $389 53.590502639851067 $264 $390 forward 7 unknown #
coedge $-1 $391 $392 $164 $270 forward $378 $-1 #
edge $-1 $273 -53.590502639851067 $393 53.590502639851067 $269 $394 forward 7 unknown #
coedge $-1 $384 $165 $392 $395 forward $260 $-1 #
vertex $-1 $166 $396 #
vertex $-1 $395 $397 #
straight-curve $-1 53.590502639851067 -13.285630028121604 -11.590786413967294 0 -1 0 I I #
face $-1 $-1 $287 $38 $-1 $398 reversed single #
loop $-1 $-1 $399 $167 #
plane-surface $-1 0 36.041399811521771 0 0 -1 0 0 0 -1 forward_v I I I I #
coedge $-1 $283 $400 $401 $402 forward $168 $-1 #
coedge $-1 $401 $170 $172 $285 forward $105 $-1 #
coedge $-1 $170 $401 $399 $403 reversed $105 $-1 #
coedge $-1 $404 $173 $170 $282 forward $287 $-1 #
edge $-1 $289 8.3096057944435309 $405 21.257731276200005 $281 $406 forward 7 unknown #
coedge $-1 $407 $278 $171 $284 forward $168 $-1 #
edge $-1 $408 18.556131875450831 $288 43.843934717638497 $283 $409 forward 7 unknown #
edge $-1 $289 -107.18100527970212 $408 -77.362174145981484 $172 $410 forward 7 unknown #
coedge $-1 $173 $404 $407 $411 reversed $287 $-1 #
loop $-1 $-1 $281 $275 #
vertex $-1 $411 $412 #
vertex $-1 $174 $413 #
straight-curve $-1 53.590502639851067 23.093274329765297 74.821885455570751 0 0 -1 I I #
coedge $-1 $291 $291 $-1 $414 reversed $177 $-1 #
edge $-1 $415 0 $415 6.2831853071796004 $178 $416 forward 7 unknown #
vertex $-1 $181 $417 #
ellipse-curve $-1 40.946601218757216 25.682899426116592 9.8526303322947921 0.52991927123019833 0 0.84804809178421925 0.84804809178421925 0 -0.52991927123019833 1 I I #
coedge $-1 $295 $295 $-1 $418 reversed $184 $-1 #
edge $-1 $419 0 $419 6.2831853071796004 $185 $420 forward 7 unknown #
vertex $-1 $188 $421 #
ellipse-curve $-1 40.946601218757216 29.567337070643532 9.8526303322947921 0.52991927123019833 0 0.84804809178421925 0.84804809178421925 0 -0.52991927123019833 1 I I #
coedge $-1 $299 $299 $-1 $422 reversed $191 $-1 #
edge $-1 $423 0 $423 6.2831853071796004 $192 $424 forward 7 unknown #
vertex $-1 $195 $425 #
ellipse-curve $-1 40.946601218757216 33.451774715170473 9.8526303322947921 0.52991927123019833 0 0.84804809178421925 0.84804809178421925 0 -0.52991927123019833 1 I I #
face $-1 $-1 $315 $42 $-1 $426 forward single #
loop $-1 $-1 $427 $196 #
plane-surface $-1 -53.590502639851067 0 0 1 0 0 0 0 -1 forward_v I I I I #
coedge $-1 $428 $429 $430 $431 reversed $197 $-1 #
coedge $-1 $432 $199 $201 $313 forward $124 $-1 #
coedge $-1 $199 $432 $428 $433 forward $124 $-1 #
coedge $-1 $430 $202 $199 $310 forward $315 $-1 #
edge $-1 $317 -3.7264449804375985 $434 6.1032523249112742 $309 $435 forward 7 unknown #
coedge $-1 $436 $437 $200 $312 forward $304 $-1 #
edge $-1 $438 -20.695453674392372 $316 -13.513510354552242 $311 $439 forward 7 unknown #
edge $-1 $317 -8.2115040383859323 $438 2.8640472853114764e-014 $201 $440 forward 7 unknown #
coedge $-1 $202 $430 $436 $441 forward $315 $-1 #
loop $-1 $-1 $430 $303 #
vertex $-1 $312 $442 #
vertex $-1 $203 $443 #
straight-curve $-1 -73.666561452874745 -2.5380413082007607 17.753416963953587 1 0 0 I I #
coedge $-1 $319 $319 $-1 $444 reversed $206 $-1 #
edge $-1 $445 0 $445 6.2831853071796004 $207 $446 forward 7 unknown #
vertex $-1 $210 $447 #
ellipse-curve $-1 -51.599994619078942 0.27044363618463052 14.162445304033527 -0.87461971476443456 0 0.48480960649040278 0.48480960649040278 0 0.87461971476443456 1 I I #
coedge $-1 $323 $323 $-1 $448 reversed $213 $-1 #
edge $-1 $449 0 $449 6.2831853071796004 $214 $450 forward 7 unknown #
vertex $-1 $217 $451 #
ellipse-curve $-1 -51.599994619078942 4.4831710527627209 14.162445304033527 -0.87461971476443456 0 0.48480960649040278 0.48480960649040278 0 0.87461971476443456 1 I I #
face $-1 $-1 $452 $45 $-1 $453 reversed single #
loop $-1 $-1 $224 $218 #
plane-surface $-1 0 0 17.753416963953587 0 0 1 1 0 0 forward_v I I I I #
coedge $-1 $454 $455 $456 $457 reversed $219 $-1 #
coedge $-1 $458 $221 $223 $337 forward $138 $-1 #
coedge $-1 $221 $458 $454 $459 forward $138 $-1 #
coedge $-1 $456 $224 $221 $334 forward $328 $-1 #
edge $-1 $340 9.5591850476840037 $460 19.388882353032876 $333 $461 forward 7 unknown #
coedge $-1 $462 $463 $222 $336 forward $452 $-1 #
edge $-1 $464 -20.695453674392372 $339 -13.513510354552242 $335 $465 forward 7 unknown #
edge $-1 $340 -8.2115040383859323 $464 2.8640472853114764e-014 $223 $466 forward 7 unknown #
coedge $-1 $224 $456 $462 $467 forward $328 $-1 #
vertex $-1 $336 $468 #
vertex $-1 $225 $469 #
straight-curve $-1 -73.666561452874745 24.033218748042444 17.753416963953587 1 0 0 I I #
coedge $-1 $342 $342 $-1 $470 reversed $228 $-1 #
edge $-1 $471 0 $471 6.2831853071796004 $229 $472 forward 7 unknown #
vertex $-1 $232 $473 #
ellipse-curve $-1 -51.599994619078942 26.841703692427842 14.162445304033527 -0.87461971476443456 0 0.48480960649040278 0.48480960649040278 0 0.87461971476443456 1 I I #
coedge $-1 $346 $346 $-1 $474 reversed $235 $-1 #
edge $-1 $475 0 $475 6.2831853071796004 $236 $476 forward 7 unknown #
vertex $-1 $239 $477 #
ellipse-curve $-1 -51.599994619078942 31.054431109005932 14.162445304033527 -0.87461971476443456 0 0.48480960649040278 0.48480960649040278 0 0.87461971476443456 1 I I #
face $-1 $-1 $255 $36 $-1 $478 reversed single #
loop $-1 $-1 $366 $240 #
plane-surface $-1 0 36.041399811521771 0 0 -1 0 0 0 -1 forward_v I I I I #
coedge $-1 $479 $364 $367 $480 forward $241 $-1 #
coedge $-1 $370 $243 $244 $358 reversed $152 $-1 #
coedge $-1 $364 $479 $243 $356 reversed $241 $-1 #
edge $-1 $371 -17.753416963953587 $481 17.753416963953587 $355 $482 forward 7 unknown #
coedge $-1 $245 $244 $479 $483 forward $97 $-1 #
edge $-1 $362 -53.590502639851067 $481 53.590502639851067 $354 $484 forward 7 unknown #
coedge $-1 $367 $366 $245 $360 reversed $351 $-1 #
edge $-1 $485 -53.590502639851067 $361 53.590502639851067 $359 $486 forward 7 unknown #
vertex $-1 $247 $487 #
vertex $-1 $373 $488 #
straight-curve $-1 53.590502639851067 0 -17.753416963953587 0 -1 0 I I #
coedge $-1 $353 $355 $248 $365 reversed $241 $-1 #
edge $-1 $368 -36.041399811521771 $371 36.041399811521771 $364 $489 forward 7 unknown #
coedge $-1 $359 $249 $254 $374 forward $351 $-1 #
coedge $-1 $249 $359 $353 $480 reversed $351 $-1 #
vertex $-1 $250 $490 #
straight-curve $-1 0 36.041399811521771 17.753416963953587 -1 0 0 I I #
coedge $-1 $251 $354 $253 $373 reversed $152 $-1 #
vertex $-1 $365 $491 #
straight-curve $-1 0 -36.041399811521771 17.753416963953587 1 0 0 I I #
edge $-1 $256 -17.753416963953587 $362 17.753416963953587 $253 $492 forward 7 unknown #
edge $-1 $257 -17.753416963953587 $361 17.753416963953587 $254 $493 forward 7 unknown #
point $-1 53.590502639851067 -36.041399811521771 17.753416963953587 #
point $-1 53.590502639851067 36.041399811521771 17.753416963953587 #
face $-1 $-1 $494 $37 $-1 $495 reversed single #
loop $-1 $-1 $269 $259 #
plane-surface $-1 0 -36.041399811521771 0 0 1 0 0 0 1 forward_v I I I I #
coedge $-1 $496 $262 $384 $497 forward $160 $-1 #
coedge $-1 $262 $496 $498 $499 forward $160 $-1 #
edge $-1 $500 -53.590502639851067 $385 53.590502639851067 $262 $501 forward 7 unknown #
coedge $-1 $264 $263 $502 $503 reversed $101 $-1 #
coedge $-1 $265 $271 $380 $497 reversed $260 $-1 #
vertex $-1 $497 $504 #
straight-curve $-1 53.590502639851067 -17.101120300964645 -7.3360508444802202 0 0 1 I I #
coedge $-1 $502 $505 $267 $388 forward $494 $-1 #
edge $-1 $393 -22.755769783400169 $389 -3.8154902728430411 $387 $506 forward 7 unknown #
vertex $-1 $388 $507 #
straight-curve $-1 0 -17.101120300964645 -11.590786413967294 -1 0 0 I I #
coedge $-1 $508 $269 $505 $509 forward $378 $-1 #
coedge $-1 $269 $508 $271 $395 reversed $378 $-1 #
vertex $-1 $509 $510 #
straight-curve $-1 0 -36.041399811521771 -11.590786413967294 -1 0 0 I I #
edge $-1 $273 11.590786413967294 $511 17.753416963953587 $271 $512 forward 7 unknown #
point $-1 53.590502639851067 -17.101120300964645 -11.590786413967294 #
point $-1 53.590502639851067 -36.041399811521771 -11.590786413967294 #
plane-surface $-1 53.590502639851067 0 0 -1 0 0 0 0 1 forward_v I I I I #
coedge $-1 $513 $514 $280 $403 forward $276 $-1 #
coedge $-1 $278 $407 $513 $515 forward $168 $-1 #
coedge $-1 $280 $279 $278 $402 reversed $105 $-1 #
edge $-1 $516 -21.257731276200005 $408 -8.3096057944435309 $278 $517 forward 7 unknown #
edge $-1 $405 -75.797004594894361 $516 -45.978173461173711 $399 $518 forward 7 unknown #
coedge $-1 $286 $281 $514 $519 reversed $287 $-1 #
vertex $-1 $282 $520 #
straight-curve $-1 53.590502639851074 14.783668535321766 1.9518437006359797 0 1 0 I I #
coedge $-1 $400 $283 $286 $411 forward $168 $-1 #
vertex $-1 $284 $521 #
straight-curve $-1 9.7465679222125701 23.093274329765297 17.753416963953583 1 0 0 I I #
straight-curve $-1 -37.304144363114652 23.093274329765297 58.749123908175775 -0.84804809178421925 0 0.52991927123019833 I I #
edge $-1 $288 23.093274329765297 $522 36.041399811521771 $286 $523 forward 7 unknown #
point $-1 53.590502639851067 23.093274329765297 17.753416963953587 #
point $-1 53.59050263985106 23.093274329765297 1.9518437006359903 #
edge $-1 $524 1 $524 0 $291 $-1 forward 7 unknown #
vertex $-1 $292 $525 #
ellipse-curve $-1 39.683298387489558 25.682899426116592 7.8309232278993646 0.52991927123019833 0 0.84804809178421925 0.84804809178421925 0 -0.52991927123019833 1 I I #
point $-1 41.794649310541423 25.682899426116592 9.3227110610645738 #
edge $-1 $526 1 $526 0 $295 $-1 forward 7 unknown #
vertex $-1 $296 $527 #
ellipse-curve $-1 39.683298387489558 29.567337070643532 7.8309232278993646 0.52991927123019833 0 0.84804809178421925 0.84804809178421925 0 -0.52991927123019833 1 I I #
point $-1 41.794649310541423 29.567337070643532 9.3227110610645738 #
edge $-1 $528 1 $528 0 $299 $-1 forward 7 unknown #
vertex $-1 $300 $529 #
ellipse-curve $-1 39.683298387489558 33.451774715170473 7.8309232278993646 0.52991927123019833 0 0.84804809178421925 0.84804809178421925 0 -0.52991927123019833 1 I I #
point $-1 41.794649310541423 33.451774715170473 9.3227110610645738 #
plane-surface $-1 0 0 17.753416963953587 0 0 1 1 0 0 forward_v I I I I #
coedge $-1 $437 $436 $429 $530 forward $304 $-1 #
coedge $-1 $429 $306 $308 $433 reversed $197 $-1 #
coedge $-1 $306 $428 $427 $530 reversed $197 $-1 #
coedge $-1 $314 $309 $306 $431 forward $315 $-1 #
edge $-1 $434 -24.057074854567929 $531 -20.076058813023678 $430 $532 forward 7 unknown #
coedge $-1 $308 $307 $437 $533 reversed $124 $-1 #
edge $-1 $534 -2.8640472853114764e-014 $434 8.2115040383859323 $428 $535 forward 7 unknown #
vertex $-1 $310 $536 #
straight-curve $-1 -49.609486598306823 1.1884036722368378 17.753416963953587 0 1 0 I I #
coedge $-1 $427 $311 $314 $441 reversed $304 $-1 #
coedge $-1 $311 $427 $432 $533 forward $304 $-1 #
vertex $-1 $312 $537 #
straight-curve $-1 -53.590502639851067 -2.5380413082007607 31.266927318505829 0 0 1 I I #
straight-curve $-1 -53.590502639851053 -2.5380413082007607 10.571473644113482 -0.48480960649040278 0 -0.87461971476443456 I I #
edge $-1 $531 -7.2916559971481121 $316 2.5380413082007607 $436 $538 forward 7 unknown #
point $-1 -53.590502639851067 -2.5380413082007607 17.753416963953587 #
point $-1 -49.609486598306816 -2.5380413082007607 17.753416963953587 #
edge $-1 $539 1 $539 0 $319 $-1 forward 7 unknown #
vertex $-1 $320 $540 #
ellipse-curve $-1 -48.441359450575142 0.27044363618463052 12.411585304837747 -0.87461971476443456 0 0.48480960649040278 0.48480960649040278 0 0.87461971476443456 1 I I #
point $-1 -51.11518501258854 0.27044363618463052 15.037065018797968 #
edge $-1 $541 1 $541 0 $323 $-1 forward 7 unknown #
vertex $-1 $324 $542 #
ellipse-curve $-1 -48.441359450575142 4.4831710527627209 12.411585304837747 -0.87461971476443456 0 0.48480960649040278 0.48480960649040278 0 0.87461971476443456 1 I I #
point $-1 -51.11518501258854 4.4831710527627209 15.037065018797968 #
loop $-1 $-1 $335 $327 #
plane-surface $-1 -53.590502639851067 0 0 1 0 0 0 0 -1 forward_v I I I I #
coedge $-1 $455 $330 $332 $459 reversed $219 $-1 #
coedge $-1 $330 $454 $543 $544 reversed $219 $-1 #
coedge $-1 $338 $333 $330 $457 forward $328 $-1 #
edge $-1 $460 -24.057074854567929 $545 -20.076058813023678 $456 $546 forward 7 unknown #
coedge $-1 $332 $331 $463 $547 reversed $138 $-1 #
edge $-1 $548 -2.8640472853114764e-014 $460 8.2115040383859323 $454 $549 forward 7 unknown #
vertex $-1 $334 $550 #
straight-curve $-1 -49.609486598306823 14.47403370035844 17.753416963953587 0 1 0 I I #
coedge $-1 $543 $335 $338 $467 reversed $452 $-1 #
coedge $-1 $335 $543 $458 $547 forward $452 $-1 #
vertex $-1 $336 $551 #
straight-curve $-1 -53.590502639851067 24.033218748042444 31.266927318505829 0 0 1 I I #
straight-curve $-1 -53.590502639851053 24.033218748042444 10.571473644113482 -0.48480960649040278 0 -0.87461971476443456 I I #
edge $-1 $545 -33.862916053391316 $339 -24.033218748042444 $462 $552 forward 7 unknown #
point $-1 -53.590502639851067 24.033218748042444 17.753416963953587 #
point $-1 -49.609486598306816 24.033218748042444 17.753416963953587 #
edge $-1 $553 1 $553 0 $342 $-1 forward 7 unknown #
vertex $-1 $343 $554 #
ellipse-curve $-1 -48.441359450575142 26.841703692427842 12.411585304837747 -0.87461971476443456 0 0.48480960649040278 0.48480960649040278 0 0.87461971476443456 1 I I #
point $-1 -51.11518501258854 26.841703692427842 15.037065018797968 #
edge $-1 $555 1 $555 0 $346 $-1 forward 7 unknown #
vertex $-1 $347 $556 #
ellipse-curve $-1 -48.441359450575142 31.054431109005932 12.411585304837747 -0.87461971476443456 0 0.48480960649040278 0.48480960649040278 0 0.87461971476443456 1 I I #
point $-1 -51.11518501258854 31.054431109005932 15.037065018797968 #
plane-surface $-1 53.590502639851067 0 0 -1 0 0 0 0 1 forward_v I I I I #
coedge $-1 $355 $353 $357 $483 reversed $241 $-1 #
edge $-1 $368 -17.753416963953587 $485 17.753416963953587 $367 $557 forward 7 unknown #
vertex $-1 $483 $558 #
straight-curve $-1 -53.590502639851067 -36.041399811521771 0 0 0 -1 I I #
edge $-1 $481 -36.041399811521771 $485 36.041399811521771 $479 $559 forward 7 unknown #
straight-curve $-1 0 -36.041399811521771 -17.753416963953587 -1 0 0 I I #
vertex $-1 $360 $560 #
straight-curve $-1 0 36.041399811521771 -17.753416963953587 1 0 0 I I #
point $-1 53.590502639851067 36.041399811521771 -17.753416963953587 #
point $-1 53.590502639851067 -36.041399811521771 -17.753416963953587 #
straight-curve $-1 -53.590502639851067 0 17.753416963953587 0 -1 0 I I #
point $-1 -53.590502639851067 36.041399811521771 17.753416963953587 #
point $-1 -53.590502639851067 -36.041399811521771 17.753416963953587 #
straight-curve $-1 53.590502639851067 -36.041399811521771 0 0 0 -1 I I #
straight-curve $-1 53.590502639851067 36.041399811521771 0 0 0 -1 I I #
loop $-1 $-1 $502 $377 #
plane-surface $-1 -53.590502639851067 0 0 1 0 0 0 0 -1 forward_v I I I I #
coedge $-1 $381 $380 $508 $561 forward $160 $-1 #
edge $-1 $385 17.101120300964645 $511 36.041399811521771 $384 $562 forward 7 unknown #
coedge $-1 $505 $502 $381 $499 reversed $494 $-1 #
edge $-1 $563 -36.041399811521771 $500 -17.101120300964645 $498 $564 forward 7 unknown #
vertex $-1 $503 $565 #
straight-curve $-1 0 -17.101120300964645 -17.753416963953587 1 0 0 I I #
coedge $-1 $498 $387 $383 $503 forward $494 $-1 #
edge $-1 $389 4.2547355694870737 $500 10.417366119473368 $502 $566 forward 7 unknown #
point $-1 53.590502639851067 -17.101120300964645 -17.753416963953587 #
coedge $-1 $387 $498 $391 $509 reversed $494 $-1 #
straight-curve $-1 -53.590502639851067 -13.285630028121604 -11.590786413967294 0 1 0 I I #
point $-1 -53.590502639851067 -17.101120300964645 -11.590786413967294 #
coedge $-1 $392 $391 $496 $561 reversed $378 $-1 #
edge $-1 $393 11.590786413967294 $563 17.753416963953587 $505 $567 forward 7 unknown #
point $-1 -53.590502639851067 -36.041399811521771 -11.590786413967294 #
vertex $-1 $395 $568 #
straight-curve $-1 53.590502639851067 -36.041399811521771 0 0 0 -1 I I #
coedge $-1 $514 $399 $400 $515 reversed $276 $-1 #
coedge $-1 $399 $513 $404 $519 forward $276 $-1 #
edge $-1 $522 -53.590502639851067 $516 -28.302699797663401 $513 $569 forward 7 unknown #
vertex $-1 $402 $570 #
straight-curve $-1 28.302699797663387 14.783668535321766 17.753416963953583 0 -1 0 I I #
straight-curve $-1 -10.689002469808791 36.041399811521771 42.118137136994399 -0.84804809178421925 0 0.52991927123019833 I I #
edge $-1 $522 -17.753416963953587 $405 -1.951843700635989 $404 $571 forward 7 unknown #
point $-1 53.590502639851067 36.041399811521771 1.951843700635989 #
point $-1 28.302699797663401 23.093274329765297 17.753416963953583 #
vertex $-1 $411 $572 #
straight-curve $-1 53.590502639851067 0 17.753416963953587 0 1 0 I I #
vertex $-1 $414 $573 #
point $-1 40.531346479273779 25.682899426116592 7.3010039566691658 #
vertex $-1 $418 $574 #
point $-1 40.531346479273779 29.567337070643532 7.3010039566691658 #
vertex $-1 $422 $575 #
point $-1 40.531346479273779 33.451774715170473 7.3010039566691658 #
edge $-1 $531 13.513510354552242 $534 20.695453674392372 $427 $576 forward 7 unknown #
vertex $-1 $441 $577 #
straight-curve $-1 -73.666561452874745 7.2916559971481121 17.753416963953587 -1 0 0 I I #
edge $-1 $534 -6.1032523249112742 $438 3.7264449804375985 $437 $578 forward 7 unknown #
vertex $-1 $533 $579 #
straight-curve $-1 -53.590502639851053 7.2916559971481121 10.571473644113482 0.48480960649040278 0 0.87461971476443456 I I #
point $-1 -49.609486598306816 7.2916559971481121 17.753416963953587 #
point $-1 -53.590502639851067 -2.5380413082007607 10.571473644113457 #
straight-curve $-1 -53.590502639851067 0 17.753416963953587 0 -1 0 I I #
vertex $-1 $444 $580 #
point $-1 -47.956549844084741 0.27044363618463052 13.286205019602182 #
vertex $-1 $448 $581 #
point $-1 -47.956549844084741 4.4831710527627209 13.286205019602182 #
coedge $-1 $463 $462 $455 $544 forward $452 $-1 #
edge $-1 $545 13.513510354552242 $548 20.695453674392372 $543 $582 forward 7 unknown #
vertex $-1 $467 $583 #
straight-curve $-1 -73.666561452874745 33.862916053391316 17.753416963953587 -1 0 0 I I #
edge $-1 $548 -19.388882353032876 $464 -9.5591850476840037 $463 $584 forward 7 unknown #
vertex $-1 $547 $585 #
straight-curve $-1 -53.590502639851053 33.862916053391316 10.571473644113482 0.48480960649040278 0 0.87461971476443456 I I #
point $-1 -49.609486598306816 33.862916053391316 17.753416963953587 #
point $-1 -53.590502639851067 24.033218748042444 10.571473644113457 #
straight-curve $-1 -53.590502639851067 0 17.753416963953587 0 -1 0 I I #
vertex $-1 $470 $586 #
point $-1 -47.956549844084741 26.841703692427842 13.286205019602182 #
vertex $-1 $474 $587 #
point $-1 -47.956549844084741 31.054431109005932 13.286205019602182 #
straight-curve $-1 -53.590502639851067 36.041399811521771 0 0 0 -1 I I #
point $-1 -53.590502639851067 -36.041399811521771 -17.753416963953587 #
straight-curve $-1 -53.590502639851067 0 -17.753416963953587 0 1 0 I I #
point $-1 -53.590502639851067 36.041399811521771 -17.753416963953587 #
edge $-1 $511 -53.590502639851067 $563 53.590502639851067 $508 $588 forward 7 unknown #
straight-curve $-1 53.590502639851067 0 -17.753416963953587 0 -1 0 I I #
vertex $-1 $499 $589 #
straight-curve $-1 -53.590502639851067 0 -17.753416963953587 0 1 0 I I #
point $-1 -53.590502639851067 -17.101120300964645 -17.753416963953587 #
straight-curve $-1 -53.590502639851067 -17.101120300964645 -7.3360508444802202 0 0 -1 I I #
straight-curve $-1 -53.590502639851067 -36.041399811521771 0 0 0 -1 I I #
point $-1 53.590502639851067 -36.041399811521771 -17.753416963953587 #
straight-curve $-1 0 36.041399811521771 17.753416963953587 -1 0 0 I I #
point $-1 28.302699797663401 36.041399811521771 17.753416963953583 #
straight-curve $-1 53.590502639851067 36.041399811521771 0 0 0 -1 I I #
point $-1 53.590502639851067 36.041399811521771 17.753416963953587 #
point $-1 39.153379116259359 25.682899426116592 6.9828751361151449 #
point $-1 39.153379116259359 29.567337070643532 6.9828751361151449 #
point $-1 39.153379116259359 33.451774715170473 6.9828751361151449 #
straight-curve $-1 -53.590502639851067 7.2916559971481121 31.266927318505829 0 0 -1 I I #
point $-1 -53.590502639851067 7.2916559971481121 17.753416963953587 #
straight-curve $-1 -53.590502639851067 1.1884036722368378 10.571473644113457 0 -1 0 I I #
point $-1 -53.590502639851067 7.2916559971481121 10.571473644113457 #
point $-1 -47.566739735810707 0.27044363618463052 11.926775698347345 #
point $-1 -47.566739735810707 4.4831710527627209 11.926775698347345 #
straight-curve $-1 -53.590502639851067 33.862916053391316 31.266927318505829 0 0 -1 I I #
point $-1 -53.590502639851067 33.862916053391316 17.753416963953587 #
straight-curve $-1 -53.590502639851067 14.47403370035844 10.571473644113457 0 -1 0 I I #
point $-1 -53.590502639851067 33.862916053391316 10.571473644113457 #
point $-1 -47.566739735810707 26.841703692427842 11.926775698347345 #
point $-1 -47.566739735810707 31.054431109005932 11.926775698347345 #
straight-curve $-1 0 -36.041399811521771 -17.753416963953587 -1 0 0 I I #
point $-1 -53.590502639851067 -36.041399811521771 -17.753416963953587 #
End-of-ACIS-data 