500 0 5 0           
7 Unknown 11 ACIS 5.0 NT 24 Thu Mar 25 18:35:00 1999 
-1 9.9999999999999995e-007 1e-010 
body $-1 $5 $-1 $6 #
body $-1 $7 $-1 $8 #
body $-1 $9 $-1 $10 #
body $-1 $11 $-1 $12 #
body $-1 $13 $-1 $14 #
lump $-1 $-1 $15 $0 #
transform $-1 1 0 0 0 1 0 0 0 1 67.443464461195717 27.378749216282639 11.219045555803918 1 rotate no_reflect no_shear #
lump $-1 $-1 $16 $1 #
transform $-1 1 0 0 0 1 0 0 0 1 67.443464461195717 27.378749216282639 11.219045555803918 1 rotate no_reflect no_shear #
lump $-1 $-1 $17 $2 #
transform $-1 1 0 0 0 1 0 0 0 1 67.443464461195717 27.378749216282639 11.219045555803918 1 rotate no_reflect no_shear #
lump $-1 $-1 $18 $3 #
transform $-1 1 0 0 0 1 0 0 0 1 67.443464461195717 27.378749216282639 11.219045555803918 1 rotate no_reflect no_shear #
lump $-1 $-1 $19 $4 #
transform $-1 1 0 0 0 1 0 0 0 1 67.443464461195717 27.378749216282639 11.219045555803918 1 rotate no_reflect no_shear #
shell $-1 $-1 $-1 $20 $-1 $5 #
shell $-1 $-1 $-1 $21 $-1 $7 #
shell $-1 $-1 $-1 $22 $-1 $9 #
shell $-1 $-1 $-1 $23 $-1 $11 #
shell $-1 $-1 $-1 $24 $-1 $13 #
face $-1 $25 $26 $15 $-1 $27 forward single #
face $-1 $28 $29 $16 $-1 $30 reversed single #
face $-1 $31 $32 $17 $-1 $33 forward single #
face $-1 $34 $35 $18 $-1 $36 forward single #
face $-1 $37 $38 $19 $-1 $39 forward single #
face $-1 $40 $41 $15 $-1 $42 reversed single #
loop $-1 $-1 $43 $20 #
plane-surface $-1 0 0 11.219045555803918 0 0 1 1 0 0 forward_v I I I I #
face $-1 $44 $45 $16 $-1 $46 reversed single #
loop $-1 $-1 $47 $21 #
plane-surface $-1 -40.265602788216185 57.410540309664185 147.41107435375071 -1 0 0 0 0.55919291073839883 0.82903756765294845 forward_v I I I I #
face $-1 $48 $49 $17 $-1 $50 forward single #
loop $-1 $51 $52 $22 #
cone-surface $-1 -62.007892126599806 21.78286157987079 6.669090535891705 0 -0.55919291073839883 -0.82903756765294845 1.5 0 0 1 I I 0 1 1.5 forward I I I I #
face $-1 $53 $54 $18 $-1 $55 forward single #
loop $-1 $56 $57 $23 #
cone-surface $-1 -53.854533624705951 21.78286157987079 6.669090535891705 0 -0.55919291073839883 -0.82903756765294845 1.5 0 0 1 I I 0 1 1.5 forward I I I I #
face $-1 $58 $59 $19 $-1 $60 forward single #
loop $-1 $61 $62 $24 #
cone-surface $-1 -45.701175122812089 21.78286157987079 6.669090535891705 0 -0.55919291073839883 -0.82903756765294845 1.5 0 0 1 I I 0 1 1.5 forward I I I I #
face $-1 $63 $64 $15 $-1 $65 reversed single #
loop $-1 $-1 $66 $25 #
plane-surface $-1 0 0 -11.219045555803918 0 0 1 1 0 0 forward_v I I I I #
coedge $-1 $67 $68 $69 $70 forward $26 $-1 #
face $-1 $71 $72 $16 $-1 $73 reversed single #
loop $-1 $-1 $74 $28 #
plane-surface $-1 -53.854533624705951 -18.017274095011402 35.58474289175517 0 0.55919291073839883 0.82903756765294845 1 0 0 forward_v I I I I #
coedge $-1 $75 $76 $77 $78 reversed $29 $-1 #
face $-1 $-1 $79 $17 $-1 $80 forward single #
loop $-1 $81 $82 $31 #
cone-surface $-1 -62.007892126599806 20.403775337157153 4.6245111388939133 0 -0.55919291073839883 -0.82903756765294845 0.75 0 0 1 I I -0.70710678118654757 0.70710678118654757 0.75 forward I I I I #
loop $-1 $-1 $83 $22 #
coedge $-1 $52 $52 $84 $85 reversed $32 $-1 #
face $-1 $-1 $86 $18 $-1 $87 forward single #
loop $-1 $88 $89 $34 #
cone-surface $-1 -53.854533624705951 20.403775337157153 4.6245111388939133 0 -0.55919291073839883 -0.82903756765294845 0.75 0 0 1 I I -0.70710678118654757 0.70710678118654757 0.75 forward I I I I #
loop $-1 $-1 $90 $23 #
coedge $-1 $57 $57 $91 $92 reversed $35 $-1 #
face $-1 $-1 $93 $19 $-1 $94 forward single #
loop $-1 $95 $96 $37 #
cone-surface $-1 -45.701175122812089 20.403775337157153 4.6245111388939133 0 -0.55919291073839883 -0.82903756765294845 0.75 0 0 1 I I -0.70710678118654757 0.70710678118654757 0.75 forward I I I I #
loop $-1 $-1 $97 $24 #
coedge $-1 $62 $62 $98 $99 reversed $38 $-1 #
face $-1 $100 $101 $15 $-1 $102 reversed single #
loop $-1 $-1 $103 $40 #
plane-surface $-1 0 -27.378749216282639 0 0 1 0 0 0 1 forward_v I I I I #
coedge $-1 $104 $105 $106 $107 forward $41 $-1 #
coedge $-1 $108 $43 $109 $110 forward $26 $-1 #
coedge $-1 $43 $108 $111 $112 forward $26 $-1 #
coedge $-1 $113 $114 $43 $70 reversed $115 $-1 #
edge $-1 $116 -27.378749216282639 $117 27.378749216282639 $69 $118 forward 7 unknown #
face $-1 $119 $120 $16 $-1 $121 forward single #
loop $-1 $-1 $77 $44 #
plane-surface $-1 0 27.378749216282639 0 0 -1 0 0 0 -1 forward_v I I I I #
coedge $-1 $122 $123 $124 $125 reversed $45 $-1 #
coedge $-1 $76 $47 $126 $127 reversed $29 $-1 #
coedge $-1 $47 $75 $122 $128 reversed $29 $-1 #
coedge $-1 $124 $129 $47 $78 forward $72 $-1 #
edge $-1 $130 62.486491621071437 $131 68.740799218379664 $77 $132 forward 7 unknown #
loop $-1 $-1 $84 $48 #
plane-surface $-1 -53.854533624705951 -18.017274095011402 35.58474289175517 0 0.55919291073839883 0.82903756765294845 1 0 0 forward_v I I I I #
loop $-1 $-1 $133 $31 #
coedge $-1 $82 $82 $83 $134 reversed $49 $-1 #
coedge $-1 $83 $83 $82 $134 forward $51 $-1 #
coedge $-1 $84 $84 $52 $85 forward $79 $-1 #
edge $-1 $135 -1.8480709120176174e-015 $135 6.2831853071795987 $84 $136 forward 7 unknown #
loop $-1 $-1 $91 $53 #
plane-surface $-1 -53.854533624705951 -18.017274095011402 35.58474289175517 0 0.55919291073839883 0.82903756765294845 1 0 0 forward_v I I I I #
loop $-1 $-1 $137 $34 #
coedge $-1 $89 $89 $90 $138 reversed $54 $-1 #
coedge $-1 $90 $90 $89 $138 forward $56 $-1 #
coedge $-1 $91 $91 $57 $92 forward $86 $-1 #
edge $-1 $139 -1.8480709120176174e-015 $139 6.2831853071795987 $91 $140 forward 7 unknown #
loop $-1 $-1 $98 $58 #
plane-surface $-1 -53.854533624705951 -18.017274095011402 35.58474289175517 0 0.55919291073839883 0.82903756765294845 1 0 0 forward_v I I I I #
loop $-1 $-1 $141 $37 #
coedge $-1 $96 $96 $97 $142 reversed $59 $-1 #
coedge $-1 $97 $97 $96 $142 forward $61 $-1 #
coedge $-1 $98 $98 $62 $99 forward $93 $-1 #
edge $-1 $143 -1.8480709120176174e-015 $143 6.2831853071795987 $98 $144 forward 7 unknown #
face $-1 $145 $146 $15 $-1 $147 reversed single #
loop $-1 $-1 $148 $63 #
plane-surface $-1 -67.443464461195717 0 0 1 0 0 0 0 -1 forward_v I I I I #
coedge $-1 $149 $111 $150 $151 forward $64 $-1 #
coedge $-1 $152 $66 $149 $153 forward $41 $-1 #
coedge $-1 $66 $152 $154 $155 forward $41 $-1 #
coedge $-1 $114 $113 $66 $107 reversed $115 $-1 #
edge $-1 $156 -27.378749216282639 $157 27.378749216282639 $106 $158 forward 7 unknown #
coedge $-1 $68 $67 $159 $160 forward $26 $-1 #
coedge $-1 $161 $162 $67 $110 reversed $146 $-1 #
edge $-1 $117 -67.443464461195717 $163 67.443464461195717 $109 $164 forward 7 unknown #
coedge $-1 $103 $165 $68 $112 reversed $64 $-1 #
edge $-1 $166 -67.443464461195717 $116 67.443464461195717 $111 $167 forward 7 unknown #
coedge $-1 $106 $69 $165 $168 forward $115 $-1 #
coedge $-1 $69 $106 $161 $169 reversed $115 $-1 #
loop $-1 $-1 $113 $145 #
vertex $-1 $70 $170 #
vertex $-1 $70 $171 #
straight-curve $-1 67.443464461195717 0 11.219045555803918 0 1 0 I I #
face $-1 $-1 $172 $16 $-1 $173 reversed single #
loop $-1 $-1 $126 $71 #
plane-surface $-1 0 0 11.219045555803918 0 0 1 1 0 0 forward_v I I I I #
coedge $-1 $174 $74 $76 $128 forward $45 $-1 #
coedge $-1 $74 $174 $175 $176 reversed $45 $-1 #
coedge $-1 $177 $77 $74 $125 forward $72 $-1 #
edge $-1 $131 13.33833597586321 $178 40.516197648842741 $124 $179 forward 7 unknown #
coedge $-1 $180 $181 $75 $127 forward $120 $-1 #
edge $-1 $182 -10.598913092053408 $130 -1.3265209385494536 $126 $183 forward 7 unknown #
edge $-1 $131 -54.757498432565264 $182 -43.572972525307989 $76 $184 forward 7 unknown #
coedge $-1 $77 $177 $180 $185 reversed $72 $-1 #
vertex $-1 $185 $186 #
vertex $-1 $78 $187 #
straight-curve $-1 -40.265602788216185 27.378749216282639 73.705537176875353 0 0 -1 I I #
coedge $-1 $133 $133 $-1 $188 reversed $81 $-1 #
edge $-1 $189 0 $189 6.2831853071796004 $82 $190 forward 7 unknown #
vertex $-1 $85 $191 #
ellipse-curve $-1 -62.007892126599806 22.742553139530646 8.0918917571498135 0 0.55919291073839883 0.82903756765294845 1.5 0 0 1 I I #
coedge $-1 $137 $137 $-1 $192 reversed $88 $-1 #
edge $-1 $193 0 $193 6.2831853071796004 $89 $194 forward 7 unknown #
vertex $-1 $92 $195 #
ellipse-curve $-1 -53.854533624705951 22.742553139530646 8.0918917571498135 0 0.55919291073839883 0.82903756765294845 1.5 0 0 1 I I #
coedge $-1 $141 $141 $-1 $196 reversed $95 $-1 #
edge $-1 $197 0 $197 6.2831853071796004 $96 $198 forward 7 unknown #
vertex $-1 $99 $199 #
ellipse-curve $-1 -45.701175122812089 22.742553139530646 8.0918917571498135 0 0.55919291073839883 0.82903756765294845 1.5 0 0 1 I I #
face $-1 $-1 $115 $15 $-1 $200 reversed single #
loop $-1 $-1 $161 $100 #
plane-surface $-1 0 27.378749216282639 0 0 -1 0 0 0 -1 forward_v I I I I #
coedge $-1 $201 $159 $162 $202 forward $101 $-1 #
coedge $-1 $165 $103 $104 $153 reversed $64 $-1 #
coedge $-1 $159 $201 $103 $151 reversed $101 $-1 #
edge $-1 $166 -11.219045555803918 $203 11.219045555803918 $150 $204 forward 7 unknown #
coedge $-1 $105 $104 $201 $205 forward $41 $-1 #
edge $-1 $157 -67.443464461195717 $203 67.443464461195717 $149 $206 forward 7 unknown #
coedge $-1 $162 $161 $105 $155 reversed $146 $-1 #
edge $-1 $207 -67.443464461195717 $156 67.443464461195717 $154 $208 forward 7 unknown #
vertex $-1 $107 $209 #
vertex $-1 $168 $210 #
straight-curve $-1 67.443464461195717 0 -11.219045555803918 0 -1 0 I I #
coedge $-1 $148 $150 $108 $160 reversed $101 $-1 #
edge $-1 $163 -27.378749216282639 $166 27.378749216282639 $159 $211 forward 7 unknown #
coedge $-1 $154 $109 $114 $169 forward $146 $-1 #
coedge $-1 $109 $154 $148 $202 reversed $146 $-1 #
vertex $-1 $110 $212 #
straight-curve $-1 0 27.378749216282639 11.219045555803918 -1 0 0 I I #
coedge $-1 $111 $149 $113 $168 reversed $64 $-1 #
vertex $-1 $160 $213 #
straight-curve $-1 0 -27.378749216282639 11.219045555803918 1 0 0 I I #
edge $-1 $116 -11.219045555803918 $157 11.219045555803918 $113 $214 forward 7 unknown #
edge $-1 $117 -11.219045555803918 $156 11.219045555803918 $114 $215 forward 7 unknown #
point $-1 67.443464461195717 -27.378749216282639 11.219045555803918 #
point $-1 67.443464461195717 27.378749216282639 11.219045555803918 #
loop $-1 $-1 $175 $119 #
plane-surface $-1 -67.443464461195717 0 0 1 0 0 0 0 -1 forward_v I I I I #
coedge $-1 $123 $122 $181 $216 reversed $45 $-1 #
coedge $-1 $217 $218 $123 $176 forward $172 $-1 #
edge $-1 $178 -37.33963190907383 $219 -26.155106001816563 $175 $220 forward 7 unknown #
coedge $-1 $129 $124 $218 $221 reversed $72 $-1 #
vertex $-1 $125 $222 #
straight-curve $-1 -26.927266812352975 27.378749216282642 4.9647379584956859 -1 0 0 I I #
coedge $-1 $223 $126 $129 $185 forward $120 $-1 #
coedge $-1 $126 $223 $174 $216 forward $120 $-1 #
vertex $-1 $127 $224 #
straight-curve $-1 -40.265602788216185 28.705270154832093 11.219045555803916 0 1 0 I I #
straight-curve $-1 -40.265602788216185 -18.017274095011402 35.58474289175517 0 -0.82903756765294845 0.55919291073839883 I I #
edge $-1 $130 40.265602788216185 $225 67.443464461195717 $129 $226 forward 7 unknown #
point $-1 -40.265602788216185 27.378749216282639 11.219045555803918 #
point $-1 -40.265602788216185 27.378749216282642 4.9647379584956894 #
edge $-1 $227 1 $227 0 $133 $-1 forward 7 unknown #
vertex $-1 $134 $228 #
ellipse-curve $-1 -62.007892126599806 20.823170020210952 5.2462893146336249 0 0.55919291073839883 0.82903756765294845 1.5 0 0 1 I I #
point $-1 -60.507892126599806 22.742553139530624 8.0918917571497868 #
edge $-1 $229 1 $229 0 $137 $-1 forward 7 unknown #
vertex $-1 $138 $230 #
ellipse-curve $-1 -53.854533624705951 20.823170020210952 5.2462893146336249 0 0.55919291073839883 0.82903756765294845 1.5 0 0 1 I I #
point $-1 -52.354533624705951 22.742553139530624 8.0918917571497868 #
edge $-1 $231 1 $231 0 $141 $-1 forward 7 unknown #
vertex $-1 $142 $232 #
ellipse-curve $-1 -45.701175122812089 20.823170020210952 5.2462893146336249 0 0.55919291073839883 0.82903756765294845 1.5 0 0 1 I I #
point $-1 -44.201175122812089 22.742553139530624 8.0918917571497868 #
plane-surface $-1 67.443464461195717 0 0 -1 0 0 0 0 1 forward_v I I I I #
coedge $-1 $150 $148 $152 $205 reversed $101 $-1 #
edge $-1 $163 -11.219045555803918 $207 11.219045555803918 $162 $233 forward 7 unknown #
vertex $-1 $205 $234 #
straight-curve $-1 -67.443464461195717 -27.378749216282639 0 0 0 -1 I I #
edge $-1 $203 -27.378749216282639 $207 27.378749216282639 $201 $235 forward 7 unknown #
straight-curve $-1 0 -27.378749216282639 -11.219045555803918 -1 0 0 I I #
vertex $-1 $155 $236 #
straight-curve $-1 0 27.378749216282639 -11.219045555803918 1 0 0 I I #
point $-1 67.443464461195717 27.378749216282639 -11.219045555803918 #
point $-1 67.443464461195717 -27.378749216282639 -11.219045555803918 #
straight-curve $-1 -67.443464461195717 0 11.219045555803918 0 -1 0 I I #
point $-1 -67.443464461195717 27.378749216282639 11.219045555803918 #
point $-1 -67.443464461195717 -27.378749216282639 11.219045555803918 #
straight-curve $-1 67.443464461195717 -27.378749216282639 0 0 0 -1 I I #
straight-curve $-1 67.443464461195717 27.378749216282639 0 0 0 -1 I I #
edge $-1 $219 -40.516197648842741 $182 -13.33833597586321 $181 $237 forward 7 unknown #
coedge $-1 $218 $175 $223 $238 reversed $172 $-1 #
coedge $-1 $175 $217 $177 $221 forward $172 $-1 #
vertex $-1 $176 $239 #
straight-curve $-1 -67.443464461195717 -3.5772083986723526 25.844795411631083 0 -0.82903756765294845 0.55919291073839883 I I #
edge $-1 $225 -11.219045555803918 $178 -4.9647379584956886 $177 $240 forward 7 unknown #
point $-1 -67.443464461195717 27.378749216282639 4.9647379584956886 #
coedge $-1 $181 $180 $217 $238 forward $120 $-1 #
point $-1 -40.265602788216185 18.106357062778685 11.219045555803916 #
vertex $-1 $185 $241 #
straight-curve $-1 0 27.378749216282639 11.219045555803918 -1 0 0 I I #
vertex $-1 $188 $242 #
point $-1 -60.507892126599806 20.823170020210952 5.2462893146336249 #
vertex $-1 $192 $243 #
point $-1 -52.354533624705951 20.823170020210952 5.2462893146336249 #
vertex $-1 $196 $244 #
point $-1 -44.201175122812089 20.823170020210952 5.2462893146336249 #
straight-curve $-1 -67.443464461195717 27.378749216282639 0 0 0 -1 I I #
point $-1 -67.443464461195717 -27.378749216282639 -11.219045555803918 #
straight-curve $-1 -67.443464461195717 0 -11.219045555803918 0 1 0 I I #
point $-1 -67.443464461195717 27.378749216282639 -11.219045555803918 #
straight-curve $-1 -26.927266812352975 18.106357062778685 11.219045555803916 1 0 0 I I #
edge $-1 $225 -27.378749216282639 $219 -18.106357062778685 $217 $245 forward 7 unknown #
point $-1 -67.443464461195717 18.106357062778685 11.219045555803916 #
straight-curve $-1 -67.443464461195717 27.378749216282639 0 0 0 -1 I I #
point $-1 -67.443464461195717 27.378749216282639 11.219045555803918 #
point $-1 -62.007892126599806 19.984380654103354 4.0027329631542017 #
point $-1 -53.854533624705951 19.984380654103354 4.0027329631542017 #
point $-1 -45.701175122812089 19.984380654103354 4.0027329631542017 #
straight-curve $-1 -67.443464461195717 0 11.219045555803918 0 -1 0 I I #
End-of-ACIS-data 