500 0 8 0           
7 Unknown 11 ACIS 5.0 NT 24 Thu Mar 25 18:23:01 1999 
-1 9.9999999999999995e-007 1e-010 
body $-1 $8 $-1 $9 #
body $-1 $10 $-1 $11 #
body $-1 $12 $-1 $13 #
body $-1 $14 $-1 $15 #
body $-1 $16 $-1 $17 #
body $-1 $18 $-1 $19 #
body $-1 $20 $-1 $21 #
body $-1 $22 $-1 $23 #
lump $-1 $-1 $24 $0 #
transform $-1 1 0 0 0 1 0 0 0 1 68.286996063112269 35.636904854848659 14.282604123533266 1 rotate no_reflect no_shear #
lump $-1 $-1 $25 $1 #
transform $-1 1 0 0 0 1 0 0 0 1 68.286996063112269 35.636904854848659 14.282604123533266 1 rotate no_reflect no_shear #
lump $-1 $-1 $26 $2 #
transform $-1 1 0 0 0 1 0 0 0 1 68.286996063112269 35.636904854848659 14.282604123533266 1 rotate no_reflect no_shear #
lump $-1 $-1 $27 $3 #
transform $-1 1 0 0 0 1 0 0 0 1 68.286996063112269 35.636904854848659 14.282604123533266 1 rotate no_reflect no_shear #
lump $-1 $-1 $28 $4 #
transform $-1 1 0 0 0 1 0 0 0 1 68.286996063112269 35.636904854848659 14.282604123533266 1 rotate no_reflect no_shear #
lump $-1 $-1 $29 $5 #
transform $-1 1 0 0 0 1 0 0 0 1 68.286996063112269 35.636904854848659 14.282604123533266 1 rotate no_reflect no_shear #
lump $-1 $-1 $30 $6 #
transform $-1 1 0 0 0 1 0 0 0 1 68.286996063112269 35.636904854848659 14.282604123533266 1 rotate no_reflect no_shear #
lump $-1 $-1 $31 $7 #
transform $-1 1 0 0 0 1 0 0 0 1 68.286996063112269 35.636904854848659 14.282604123533266 1 rotate no_reflect no_shear #
shell $-1 $-1 $-1 $32 $-1 $8 #
shell $-1 $-1 $-1 $33 $-1 $10 #
shell $-1 $-1 $-1 $34 $-1 $12 #
shell $-1 $-1 $-1 $35 $-1 $14 #
shell $-1 $-1 $-1 $36 $-1 $16 #
shell $-1 $-1 $-1 $37 $-1 $18 #
shell $-1 $-1 $-1 $38 $-1 $20 #
shell $-1 $-1 $-1 $39 $-1 $22 #
face $-1 $40 $41 $24 $-1 $42 forward single #
face $-1 $43 $44 $25 $-1 $45 reversed single #
face $-1 $46 $47 $26 $-1 $48 reversed single #
face $-1 $49 $50 $27 $-1 $51 forward single #
face $-1 $52 $53 $28 $-1 $54 forward single #
face $-1 $55 $56 $29 $-1 $57 reversed single #
face $-1 $58 $59 $30 $-1 $60 forward single #
face $-1 $61 $62 $31 $-1 $63 forward single #
face $-1 $64 $65 $24 $-1 $66 reversed single #
loop $-1 $-1 $67 $32 #
plane-surface $-1 0 0 14.282604123533266 0 0 1 1 0 0 forward_v I I I I #
face $-1 $68 $69 $25 $-1 $70 reversed single #
loop $-1 $-1 $71 $33 #
plane-surface $-1 -60.765516160330414 -12.742806236666123 0 0 1 0 0 0 1 forward_v I I I I #
face $-1 $72 $73 $26 $-1 $74 reversed single #
loop $-1 $-1 $75 $34 #
plane-surface $-1 -17.382608650345048 -121.58570405423634 114.58946271944852 -1 0 0 0 -0.62932039886446345 0.77714595512881146 forward_v I I I I #
face $-1 $76 $77 $27 $-1 $78 forward single #
loop $-1 $79 $80 $35 #
cone-surface $-1 -42.99791408406184 -30.246351473559674 9.1563955243348172 0 0.62932039886446345 -0.77714595512881146 1.5 0 0 1 I I 0 1 1.5 forward I I I I #
face $-1 $81 $82 $28 $-1 $83 forward single #
loop $-1 $84 $85 $36 #
cone-surface $-1 -27.628730823831759 -30.246351473559674 9.1563955243348172 0 0.62932039886446345 -0.77714595512881146 1.5 0 0 1 I I 0 1 1.5 forward I I I I #
face $-1 $86 $87 $29 $-1 $88 reversed single #
loop $-1 $-1 $89 $37 #
plane-surface $-1 41.865577717133355 60.907391167483745 152.56493157779229 1 0 0 0 -0.6018150307709319 -0.79863550430605224 forward_v I I I I #
face $-1 $90 $91 $30 $-1 $92 forward single #
loop $-1 $93 $94 $38 #
cone-surface $-1 49.414554387413034 23.157435759135289 2.9289407615722514 0 -0.6018150307709319 -0.79863550430605224 3 0 0 1 I I 0 1 3 forward I I I I #
face $-1 $95 $96 $31 $-1 $97 forward single #
loop $-1 $98 $99 $39 #
cone-surface $-1 60.73801939283257 23.157435759135289 2.9289407615722514 0 -0.6018150307709319 -0.79863550430605224 3 0 0 1 I I 0 1 3 forward I I I I #
face $-1 $100 $101 $24 $-1 $102 reversed single #
loop $-1 $-1 $103 $40 #
plane-surface $-1 0 0 -14.282604123533266 0 0 1 1 0 0 forward_v I I I I #
coedge $-1 $104 $105 $106 $107 forward $41 $-1 #
face $-1 $108 $109 $25 $-1 $110 reversed single #
loop $-1 $-1 $111 $43 #
plane-surface $-1 -60.765516160330414 -7.0716966077821262 0 0 -1 0 0 0 -1 forward_v I I I I #
coedge $-1 $112 $113 $114 $115 reversed $44 $-1 #
face $-1 $116 $117 $26 $-1 $118 reversed single #
loop $-1 $-1 $119 $46 #
plane-surface $-1 -35.313322453946803 -35.636904854848623 8.4515371627589673 0 -0.62932039886446345 0.77714595512881146 1 0 0 forward_v I I I I #
coedge $-1 $120 $121 $122 $123 reversed $47 $-1 #
face $-1 $-1 $124 $27 $-1 $125 forward single #
loop $-1 $126 $127 $49 #
cone-surface $-1 -42.99791408406184 -27.984191723809882 6.3628609391768993 0 0.62932039886446345 -0.77714595512881146 0.75 0 0 1 I I -0.70710678118654791 0.70710678118654702 0.75 forward I I I I #
loop $-1 $-1 $128 $35 #
coedge $-1 $80 $80 $129 $130 reversed $50 $-1 #
face $-1 $-1 $131 $28 $-1 $132 forward single #
loop $-1 $133 $134 $52 #
cone-surface $-1 -27.628730823831759 -27.984191723809882 6.3628609391768993 0 0.62932039886446345 -0.77714595512881146 0.75 0 0 1 I I -0.70710678118654791 0.70710678118654702 0.75 forward I I I I #
loop $-1 $-1 $135 $36 #
coedge $-1 $85 $85 $136 $137 reversed $53 $-1 #
face $-1 $138 $139 $29 $-1 $140 forward single #
loop $-1 $-1 $141 $55 #
plane-surface $-1 55.076286890122816 -21.284890106469085 43.492092500974152 0 0.6018150307709319 0.79863550430605224 1 0 0 forward_v I I I I #
coedge $-1 $142 $143 $144 $145 reversed $56 $-1 #
face $-1 $-1 $146 $30 $-1 $147 forward single #
loop $-1 $148 $149 $58 #
cone-surface $-1 49.414554387413034 18.854991835881876 -2.7805950537667865 0 -0.6018150307709319 -0.79863550430605224 1.5 0 0 1 I I -0.70710678118654757 0.70710678118654757 1.5 forward I I I I #
loop $-1 $-1 $150 $38 #
coedge $-1 $94 $94 $151 $152 reversed $59 $-1 #
face $-1 $-1 $153 $31 $-1 $154 forward single #
loop $-1 $155 $156 $61 #
cone-surface $-1 60.73801939283257 18.854991835881876 -2.7805950537667865 0 -0.6018150307709319 -0.79863550430605224 1.5 0 0 1 I I -0.70710678118654757 0.70710678118654757 1.5 forward I I I I #
loop $-1 $-1 $157 $39 #
coedge $-1 $99 $99 $158 $159 reversed $62 $-1 #
face $-1 $160 $161 $24 $-1 $162 reversed single #
loop $-1 $-1 $163 $64 #
plane-surface $-1 0 -35.636904854848659 0 0 1 0 0 0 1 forward_v I I I I #
coedge $-1 $164 $165 $166 $167 forward $65 $-1 #
coedge $-1 $168 $67 $169 $170 forward $41 $-1 #
coedge $-1 $67 $168 $171 $172 forward $41 $-1 #
coedge $-1 $173 $174 $67 $107 reversed $175 $-1 #
edge $-1 $176 -35.636904854848659 $177 35.636904854848659 $106 $178 forward 7 unknown #
face $-1 $179 $180 $25 $-1 $181 reversed single #
loop $-1 $-1 $182 $68 #
plane-surface $-1 -53.244036257548558 -9.9072514222241246 0 -1 0 0 0 0 1 forward_v I I I I #
coedge $-1 $183 $184 $185 $186 forward $69 $-1 #
coedge $-1 $187 $71 $188 $189 reversed $44 $-1 #
coedge $-1 $71 $187 $190 $191 reversed $44 $-1 #
coedge $-1 $192 $193 $71 $115 forward $194 $-1 #
edge $-1 $195 -14.282604123533266 $196 14.282604123533266 $114 $197 forward 7 unknown #
face $-1 $198 $199 $26 $-1 $200 reversed single #
loop $-1 $-1 $201 $72 #
plane-surface $-1 -53.244036257548558 -121.58570405423634 114.58946271944852 1 0 0 0 0.62932039886446345 -0.77714595512881146 forward_v I I I I #
coedge $-1 $202 $203 $204 $205 reversed $73 $-1 #
coedge $-1 $121 $75 $206 $207 reversed $47 $-1 #
coedge $-1 $75 $120 $202 $208 reversed $47 $-1 #
coedge $-1 $204 $209 $75 $123 forward $210 $-1 #
edge $-1 $211 25.155947172269514 $212 32.356715033644662 $122 $213 forward 7 unknown #
loop $-1 $-1 $129 $76 #
plane-surface $-1 -35.313322453946803 -35.636904854848623 8.4515371627589673 0 -0.62932039886446345 0.77714595512881146 1 0 0 forward_v I I I I #
loop $-1 $-1 $214 $49 #
coedge $-1 $127 $127 $128 $215 reversed $77 $-1 #
coedge $-1 $128 $128 $127 $215 forward $79 $-1 #
coedge $-1 $129 $129 $80 $130 forward $124 $-1 #
edge $-1 $216 -5.6517481496145921e-016 $216 6.2831853071795996 $129 $217 forward 7 unknown #
loop $-1 $-1 $136 $81 #
plane-surface $-1 -35.313322453946803 -35.636904854848623 8.4515371627589673 0 -0.62932039886446345 0.77714595512881146 1 0 0 forward_v I I I I #
loop $-1 $-1 $218 $52 #
coedge $-1 $134 $134 $135 $219 reversed $82 $-1 #
coedge $-1 $135 $135 $134 $219 forward $84 $-1 #
coedge $-1 $136 $136 $85 $137 forward $131 $-1 #
edge $-1 $220 -5.6517481496145921e-016 $220 6.2831853071795996 $136 $221 forward 7 unknown #
face $-1 $222 $223 $29 $-1 $224 reversed single #
loop $-1 $-1 $144 $86 #
plane-surface $-1 0 0 14.282604123533266 0 0 1 1 0 0 forward_v I I I I #
coedge $-1 $225 $226 $227 $228 reversed $87 $-1 #
coedge $-1 $143 $89 $229 $230 reversed $56 $-1 #
coedge $-1 $89 $142 $225 $231 reversed $56 $-1 #
coedge $-1 $227 $232 $89 $145 forward $139 $-1 #
edge $-1 $233 -5.1832092711067865 $234 12.976286166125998 $144 $235 forward 7 unknown #
loop $-1 $-1 $151 $90 #
plane-surface $-1 55.076286890122816 -21.284890106469085 43.492092500974152 0 0.6018150307709319 0.79863550430605224 1 0 0 forward_v I I I I #
loop $-1 $-1 $236 $58 #
coedge $-1 $149 $149 $150 $237 reversed $91 $-1 #
coedge $-1 $150 $150 $149 $237 forward $93 $-1 #
coedge $-1 $151 $151 $94 $152 forward $146 $-1 #
edge $-1 $238 -3.2832761087583281e-016 $238 6.2831853071796004 $151 $239 forward 7 unknown #
loop $-1 $-1 $158 $95 #
plane-surface $-1 55.076286890122816 -21.284890106469085 43.492092500974152 0 0.6018150307709319 0.79863550430605224 1 0 0 forward_v I I I I #
loop $-1 $-1 $240 $61 #
coedge $-1 $156 $156 $157 $241 reversed $96 $-1 #
coedge $-1 $157 $157 $156 $241 forward $98 $-1 #
coedge $-1 $158 $158 $99 $159 forward $153 $-1 #
edge $-1 $242 -3.2832761087583281e-016 $242 6.2831853071796004 $158 $243 forward 7 unknown #
face $-1 $244 $245 $24 $-1 $246 reversed single #
loop $-1 $-1 $247 $100 #
plane-surface $-1 -68.286996063112269 0 0 1 0 0 0 0 -1 forward_v I I I I #
coedge $-1 $248 $171 $249 $250 forward $101 $-1 #
coedge $-1 $251 $103 $248 $252 forward $65 $-1 #
coedge $-1 $103 $251 $253 $254 forward $65 $-1 #
coedge $-1 $174 $173 $103 $167 reversed $175 $-1 #
edge $-1 $255 -35.636904854848659 $256 35.636904854848659 $166 $257 forward 7 unknown #
coedge $-1 $105 $104 $258 $259 forward $41 $-1 #
coedge $-1 $260 $261 $104 $170 reversed $245 $-1 #
edge $-1 $177 -68.286996063112269 $262 68.286996063112269 $169 $263 forward 7 unknown #
coedge $-1 $163 $264 $105 $172 reversed $101 $-1 #
edge $-1 $265 -68.286996063112269 $176 68.286996063112269 $171 $266 forward 7 unknown #
coedge $-1 $166 $106 $264 $267 forward $175 $-1 #
coedge $-1 $106 $166 $260 $268 reversed $175 $-1 #
loop $-1 $-1 $173 $244 #
vertex $-1 $107 $269 #
vertex $-1 $107 $270 #
straight-curve $-1 68.286996063112269 0 14.282604123533266 0 1 0 I I #
face $-1 $271 $272 $25 $-1 $273 forward single #
loop $-1 $-1 $274 $108 #
plane-surface $-1 0 0 -14.282604123533266 0 0 1 1 0 0 forward_v I I I I #
coedge $-1 $275 $276 $187 $277 forward $109 $-1 #
coedge $-1 $278 $111 $274 $279 reversed $69 $-1 #
coedge $-1 $111 $278 $280 $281 reversed $69 $-1 #
coedge $-1 $276 $275 $111 $186 reversed $109 $-1 #
edge $-1 $282 -14.282604123533266 $283 14.282604123533266 $185 $284 forward 7 unknown #
coedge $-1 $113 $112 $182 $277 reversed $44 $-1 #
coedge $-1 $285 $286 $112 $189 forward $180 $-1 #
edge $-1 $287 22.861278177383351 $195 37.904237982947066 $188 $288 forward 7 unknown #
coedge $-1 $289 $290 $113 $191 forward $272 $-1 #
edge $-1 $196 -37.904237982947066 $291 -22.861278177383351 $190 $292 forward 7 unknown #
coedge $-1 $293 $114 $290 $294 reversed $194 $-1 #
coedge $-1 $114 $293 $285 $295 reversed $194 $-1 #
loop $-1 $-1 $293 $271 #
vertex $-1 $295 $296 #
vertex $-1 $115 $297 #
straight-curve $-1 -68.286996063112269 -12.742806236666123 0 0 0 1 I I #
face $-1 $-1 $210 $26 $-1 $298 forward single #
loop $-1 $-1 $299 $116 #
plane-surface $-1 0 -35.636904854848659 0 0 1 0 0 0 1 forward_v I I I I #
coedge $-1 $300 $301 $302 $303 reversed $117 $-1 #
coedge $-1 $304 $119 $121 $208 forward $73 $-1 #
coedge $-1 $119 $304 $300 $305 forward $73 $-1 #
coedge $-1 $302 $122 $119 $205 forward $210 $-1 #
edge $-1 $212 -0.27405257662835325 $306 35.58737503057516 $204 $307 forward 7 unknown #
coedge $-1 $308 $309 $120 $207 forward $199 $-1 #
edge $-1 $310 -48.843194196965321 $211 -43.012127236190992 $206 $311 forward 7 unknown #
edge $-1 $212 -9.2656570028490908 $310 4.5496132167257821e-014 $121 $312 forward 7 unknown #
coedge $-1 $122 $302 $308 $313 forward $210 $-1 #
loop $-1 $-1 $302 $198 #
vertex $-1 $207 $314 #
vertex $-1 $123 $315 #
straight-curve $-1 -17.382608650345048 -60.792852027118172 14.282604123533268 0 1 0 I I #
coedge $-1 $214 $214 $-1 $316 reversed $126 $-1 #
edge $-1 $317 0 $317 6.2831853071796004 $127 $318 forward 7 unknown #
vertex $-1 $130 $319 #
ellipse-curve $-1 -42.99791408406184 -32.036520924161088 11.367070643146095 0 -0.62932039886446345 0.77714595512881146 1.5 0 0 1 I I #
coedge $-1 $218 $218 $-1 $320 reversed $133 $-1 #
edge $-1 $321 0 $321 6.2831853071796004 $134 $322 forward 7 unknown #
vertex $-1 $137 $323 #
ellipse-curve $-1 -27.628730823831759 -32.036520924161088 11.367070643146095 0 -0.62932039886446345 0.77714595512881146 1.5 0 0 1 I I #
face $-1 $-1 $324 $29 $-1 $325 reversed single #
loop $-1 $-1 $326 $138 #
plane-surface $-1 68.286996063112269 0 0 -1 0 0 0 0 1 forward_v I I I I #
coedge $-1 $327 $141 $143 $231 forward $87 $-1 #
coedge $-1 $141 $327 $326 $328 reversed $87 $-1 #
coedge $-1 $329 $144 $141 $228 forward $139 $-1 #
edge $-1 $234 14.327434272071947 $330 40.748852618050861 $227 $331 forward 7 unknown #
coedge $-1 $332 $333 $142 $230 forward $324 $-1 #
edge $-1 $334 -75.684023271525049 $233 -61.999861665362879 $229 $335 forward 7 unknown #
edge $-1 $234 48.5356577751526 $334 71.27380970969736 $143 $336 forward 7 unknown #
coedge $-1 $144 $329 $332 $337 forward $139 $-1 #
vertex $-1 $230 $338 #
vertex $-1 $145 $339 #
straight-curve $-1 41.865577717133355 30.453695583741872 14.282604123533261 0 -1 0 I I #
coedge $-1 $236 $236 $-1 $340 reversed $148 $-1 #
edge $-1 $341 0 $341 6.2831853071796004 $149 $342 forward 7 unknown #
vertex $-1 $152 $343 #
ellipse-curve $-1 49.414554387413034 26.557157136232281 7.4405233204521766 0 0.6018150307709319 0.79863550430605224 3 0 0 1 I I #
coedge $-1 $240 $240 $-1 $344 reversed $155 $-1 #
edge $-1 $345 0 $345 6.2831853071796004 $156 $346 forward 7 unknown #
vertex $-1 $159 $347 #
ellipse-curve $-1 60.73801939283257 26.557157136232281 7.4405233204521766 0 0.6018150307709319 0.79863550430605224 3 0 0 1 I I #
face $-1 $-1 $175 $24 $-1 $348 reversed single #
loop $-1 $-1 $260 $160 #
plane-surface $-1 0 35.636904854848659 0 0 -1 0 0 0 -1 forward_v I I I I #
coedge $-1 $349 $258 $261 $350 forward $161 $-1 #
coedge $-1 $264 $163 $164 $252 reversed $101 $-1 #
coedge $-1 $258 $349 $163 $250 reversed $161 $-1 #
edge $-1 $265 -14.282604123533266 $351 14.282604123533266 $249 $352 forward 7 unknown #
coedge $-1 $165 $164 $349 $353 forward $65 $-1 #
edge $-1 $256 -68.286996063112269 $351 68.286996063112269 $248 $354 forward 7 unknown #
coedge $-1 $261 $260 $165 $254 reversed $245 $-1 #
edge $-1 $355 -68.286996063112269 $255 68.286996063112269 $253 $356 forward 7 unknown #
vertex $-1 $167 $357 #
vertex $-1 $267 $358 #
straight-curve $-1 68.286996063112269 0 -14.282604123533266 0 -1 0 I I #
coedge $-1 $247 $249 $168 $259 reversed $161 $-1 #
edge $-1 $262 -35.636904854848659 $265 35.636904854848659 $258 $359 forward 7 unknown #
coedge $-1 $253 $169 $174 $268 forward $245 $-1 #
coedge $-1 $169 $253 $247 $350 reversed $245 $-1 #
vertex $-1 $170 $360 #
straight-curve $-1 0 35.636904854848659 14.282604123533266 -1 0 0 I I #
coedge $-1 $171 $248 $173 $267 reversed $101 $-1 #
vertex $-1 $259 $361 #
straight-curve $-1 0 -35.636904854848659 14.282604123533266 1 0 0 I I #
edge $-1 $176 -14.282604123533266 $256 14.282604123533266 $173 $362 forward 7 unknown #
edge $-1 $177 -14.282604123533266 $255 14.282604123533266 $174 $363 forward 7 unknown #
point $-1 68.286996063112269 -35.636904854848659 14.282604123533266 #
point $-1 68.286996063112269 35.636904854848659 14.282604123533266 #
face $-1 $-1 $194 $25 $-1 $364 reversed single #
loop $-1 $-1 $280 $179 #
plane-surface $-1 0 0 14.282604123533266 0 0 1 1 0 0 forward_v I I I I #
coedge $-1 $286 $285 $183 $279 forward $180 $-1 #
coedge $-1 $185 $182 $286 $365 reversed $109 $-1 #
coedge $-1 $182 $185 $289 $366 reversed $109 $-1 #
edge $-1 $291 -14.282604123533266 $287 14.282604123533266 $182 $367 forward 7 unknown #
coedge $-1 $184 $183 $293 $368 reversed $69 $-1 #
edge $-1 $369 -37.904237982947066 $283 -22.861278177383351 $274 $370 forward 7 unknown #
coedge $-1 $290 $289 $184 $281 forward $272 $-1 #
edge $-1 $282 22.861278177383351 $371 37.904237982947066 $280 $372 forward 7 unknown #
vertex $-1 $281 $373 #
vertex $-1 $279 $374 #
straight-curve $-1 -53.244036257548558 -7.0716966077821262 0 0 0 -1 I I #
coedge $-1 $274 $188 $193 $295 forward $180 $-1 #
coedge $-1 $188 $274 $275 $365 forward $180 $-1 #
vertex $-1 $189 $375 #
straight-curve $-1 -30.382758080165207 -12.742806236666123 -14.282604123533266 -1 0 0 I I #
coedge $-1 $280 $190 $276 $366 forward $272 $-1 #
coedge $-1 $190 $280 $192 $294 forward $272 $-1 #
vertex $-1 $191 $376 #
straight-curve $-1 -30.382758080165207 -12.742806236666123 14.282604123533266 1 0 0 I I #
coedge $-1 $193 $192 $278 $368 forward $194 $-1 #
edge $-1 $371 7.0716966077821262 $196 12.742806236666123 $192 $377 forward 7 unknown #
edge $-1 $195 -12.742806236666123 $369 -7.0716966077821262 $193 $378 forward 7 unknown #
point $-1 -68.286996063112269 -12.742806236666123 -14.282604123533266 #
point $-1 -68.286996063112269 -12.742806236666123 14.282604123533266 #
plane-surface $-1 0 0 14.282604123533266 0 0 1 1 0 0 forward_v I I I I #
coedge $-1 $309 $308 $301 $379 forward $199 $-1 #
coedge $-1 $301 $201 $203 $305 reversed $117 $-1 #
coedge $-1 $201 $300 $299 $379 reversed $117 $-1 #
coedge $-1 $209 $204 $201 $303 forward $210 $-1 #
edge $-1 $306 -32.356715033644662 $380 -25.155947172269514 $302 $381 forward 7 unknown #
coedge $-1 $203 $202 $309 $382 reversed $73 $-1 #
edge $-1 $383 -4.5496132167257821e-014 $306 9.2656570028490908 $300 $384 forward 7 unknown #
vertex $-1 $205 $385 #
straight-curve $-1 -17.656661226973402 -28.436136993473511 14.282604123533266 -1 0 0 I I #
coedge $-1 $299 $206 $209 $313 reversed $199 $-1 #
coedge $-1 $206 $299 $304 $382 forward $199 $-1 #
vertex $-1 $207 $386 #
straight-curve $-1 -17.382608650345048 -35.636904854848659 57.29473135972426 0 0 1 I I #
straight-curve $-1 -17.382608650345048 -35.636904854848623 8.4515371627589673 0 -0.77714595512881146 -0.62932039886446345 I I #
edge $-1 $380 -53.244036257548558 $211 -17.382608650345048 $308 $387 forward 7 unknown #
point $-1 -17.382608650345048 -35.636904854848659 14.282604123533266 #
point $-1 -17.382608650345048 -28.436136993473507 14.282604123533266 #
edge $-1 $388 1 $388 0 $214 $-1 forward 7 unknown #
vertex $-1 $215 $389 #
ellipse-curve $-1 -42.99791408406184 -28.456182022958231 6.9457204055235069 0 -0.62932039886446345 0.77714595512881146 1.5 0 0 1 I I #
point $-1 -41.49791408406184 -32.036520924161117 11.367070643146128 #
edge $-1 $390 1 $390 0 $218 $-1 forward 7 unknown #
vertex $-1 $219 $391 #
ellipse-curve $-1 -27.628730823831759 -28.456182022958231 6.9457204055235069 0 -0.62932039886446345 0.77714595512881146 1.5 0 0 1 I I #
point $-1 -26.128730823831759 -32.036520924161117 11.367070643146128 #
loop $-1 $-1 $229 $222 #
plane-surface $-1 0 35.636904854848659 0 0 -1 0 0 0 -1 forward_v I I I I #
coedge $-1 $392 $393 $226 $328 forward $223 $-1 #
coedge $-1 $226 $225 $333 $394 reversed $87 $-1 #
edge $-1 $330 26.949125809630196 $395 49.687277744174949 $326 $396 forward 7 unknown #
coedge $-1 $232 $227 $393 $397 forward $139 $-1 #
vertex $-1 $397 $398 #
straight-curve $-1 27.538143445061408 17.477409417615874 14.282604123533268 1 0 0 I I #
coedge $-1 $399 $229 $232 $337 reversed $324 $-1 #
coedge $-1 $229 $399 $327 $394 forward $324 $-1 #
vertex $-1 $230 $400 #
straight-curve $-1 41.865577717133355 35.636904854848659 76.282465788896147 0 0 1 I I #
straight-curve $-1 41.865577717133355 -21.284890106469085 43.492092500974152 0 0.79863550430605224 -0.6018150307709319 I I #
edge $-1 $401 -68.286996063112269 $233 -41.865577717133355 $332 $402 forward 7 unknown #
point $-1 41.865577717133355 35.636904854848659 14.282604123533266 #
point $-1 41.865577717133355 17.477409417615874 14.282604123533272 #
edge $-1 $403 1 $403 0 $236 $-1 forward 7 unknown #
vertex $-1 $237 $404 #
ellipse-curve $-1 49.414554387413034 19.757714382038273 -1.582641797307708 0 0.6018150307709319 0.79863550430605224 3 0 0 1 I I #
point $-1 52.414554387413034 26.557157136232306 7.4405233204522112 #
edge $-1 $405 1 $405 0 $240 $-1 forward 7 unknown #
vertex $-1 $241 $406 #
ellipse-curve $-1 60.73801939283257 19.757714382038273 -1.582641797307708 0 0.6018150307709319 0.79863550430605224 3 0 0 1 I I #
point $-1 63.73801939283257 26.557157136232306 7.4405233204522112 #
plane-surface $-1 68.286996063112269 0 0 -1 0 0 0 0 1 forward_v I I I I #
coedge $-1 $249 $247 $251 $353 reversed $161 $-1 #
edge $-1 $262 -14.282604123533266 $355 14.282604123533266 $261 $407 forward 7 unknown #
vertex $-1 $353 $408 #
straight-curve $-1 -68.286996063112269 -35.636904854848659 0 0 0 -1 I I #
edge $-1 $351 -35.636904854848659 $355 35.636904854848659 $349 $409 forward 7 unknown #
straight-curve $-1 0 -35.636904854848659 -14.282604123533266 -1 0 0 I I #
vertex $-1 $254 $410 #
straight-curve $-1 0 35.636904854848659 -14.282604123533266 1 0 0 I I #
point $-1 68.286996063112269 35.636904854848659 -14.282604123533266 #
point $-1 68.286996063112269 -35.636904854848659 -14.282604123533266 #
straight-curve $-1 -68.286996063112269 0 14.282604123533266 0 -1 0 I I #
point $-1 -68.286996063112269 35.636904854848659 14.282604123533266 #
point $-1 -68.286996063112269 -35.636904854848659 14.282604123533266 #
straight-curve $-1 68.286996063112269 -35.636904854848659 0 0 0 -1 I I #
straight-curve $-1 68.286996063112269 35.636904854848659 0 0 0 -1 I I #
plane-surface $-1 -68.286996063112269 0 0 1 0 0 0 0 -1 forward_v I I I I #
edge $-1 $283 2.1180708966700639 $287 7.7891805255540607 $286 $411 forward 7 unknown #
edge $-1 $291 -7.7891805255540607 $282 -2.1180708966700639 $289 $412 forward 7 unknown #
straight-curve $-1 -53.244036257548558 -12.742806236666123 0 0 0 -1 I I #
edge $-1 $371 -14.282604123533266 $369 14.282604123533266 $293 $413 forward 7 unknown #
vertex $-1 $368 $414 #
straight-curve $-1 -30.382758080165207 -7.0716966077821262 -14.282604123533266 1 0 0 I I #
vertex $-1 $294 $415 #
straight-curve $-1 -30.382758080165207 -7.0716966077821262 14.282604123533266 -1 0 0 I I #
point $-1 -53.244036257548558 -7.0716966077821262 14.282604123533266 #
point $-1 -53.244036257548558 -7.0716966077821262 -14.282604123533266 #
point $-1 -53.244036257548558 -12.742806236666123 -14.282604123533266 #
point $-1 -53.244036257548558 -12.742806236666123 14.282604123533266 #
straight-curve $-1 -68.286996063112269 0 14.282604123533266 0 -1 0 I I #
straight-curve $-1 -68.286996063112269 0 -14.282604123533266 0 1 0 I I #
edge $-1 $380 43.012127236190992 $383 48.843194196965321 $299 $416 forward 7 unknown #
vertex $-1 $313 $417 #
straight-curve $-1 -53.244036257548558 -60.792852027118172 14.282604123533268 0 -1 0 I I #
edge $-1 $383 -35.58737503057516 $310 0.27405257662835325 $309 $418 forward 7 unknown #
vertex $-1 $382 $419 #
straight-curve $-1 -53.244036257548558 -35.636904854848623 8.4515371627589673 0 0.77714595512881146 0.62932039886446345 I I #
point $-1 -53.244036257548558 -28.436136993473507 14.282604123533266 #
point $-1 -17.382608650345048 -35.636904854848659 8.4515371627589388 #
straight-curve $-1 0 -35.636904854848659 14.282604123533266 1 0 0 I I #
vertex $-1 $316 $420 #
point $-1 -41.49791408406184 -28.456182022958231 6.9457204055235069 #
vertex $-1 $320 $421 #
point $-1 -26.128730823831759 -28.456182022958231 6.9457204055235069 #
coedge $-1 $393 $326 $399 $422 reversed $223 $-1 #
coedge $-1 $326 $392 $329 $397 reversed $223 $-1 #
edge $-1 $395 -40.748852618050861 $334 -14.327434272071947 $333 $423 forward 7 unknown #
vertex $-1 $328 $424 #
straight-curve $-1 68.286996063112269 -4.0451192639653808 30.500993101905582 0 0.79863550430605224 -0.6018150307709319 I I #
edge $-1 $330 17.477409417615874 $401 35.636904854848659 $393 $425 forward 7 unknown #
point $-1 68.286996063112269 17.477409417615874 14.282604123533272 #
coedge $-1 $333 $332 $392 $422 forward $324 $-1 #
point $-1 41.865577717133355 35.636904854848659 0.59844251737109744 #
vertex $-1 $397 $426 #
straight-curve $-1 0 35.636904854848659 14.282604123533266 -1 0 0 I I #
vertex $-1 $340 $427 #
point $-1 52.414554387413034 19.757714382038273 -1.582641797307708 #
vertex $-1 $344 $428 #
point $-1 63.73801939283257 19.757714382038273 -1.582641797307708 #
straight-curve $-1 -68.286996063112269 35.636904854848659 0 0 0 -1 I I #
point $-1 -68.286996063112269 -35.636904854848659 -14.282604123533266 #
straight-curve $-1 -68.286996063112269 0 -14.282604123533266 0 1 0 I I #
point $-1 -68.286996063112269 35.636904854848659 -14.282604123533266 #
straight-curve $-1 -53.244036257548558 -4.9536257111120623 -14.282604123533266 0 -1 0 I I #
straight-curve $-1 -53.244036257548558 -4.9536257111120623 14.282604123533266 0 1 0 I I #
straight-curve $-1 -68.286996063112269 -7.0716966077821262 0 0 0 -1 I I #
point $-1 -68.286996063112269 -7.0716966077821262 -14.282604123533266 #
point $-1 -68.286996063112269 -7.0716966077821262 14.282604123533266 #
straight-curve $-1 -53.244036257548558 -35.636904854848659 57.29473135972426 0 0 -1 I I #
point $-1 -53.244036257548558 -35.636904854848659 14.282604123533266 #
straight-curve $-1 -17.656661226973402 -35.636904854848659 8.4515371627589335 1 0 0 I I #
point $-1 -53.244036257548558 -35.636904854848659 8.4515371627589388 #
point $-1 -42.99791408406184 -27.512201424661534 5.7800014728302918 #
point $-1 -27.628730823831759 -27.512201424661534 5.7800014728302918 #
edge $-1 $401 -14.282604123533266 $395 -0.59844251737109744 $392 $429 forward 7 unknown #
straight-curve $-1 27.538143445061408 35.636904854848652 0.59844251737110454 -1 0 0 I I #
point $-1 68.286996063112269 35.636904854848659 0.59844251737109744 #
straight-curve $-1 68.286996063112269 0 14.282604123533266 0 1 0 I I #
point $-1 68.286996063112269 35.636904854848659 14.282604123533266 #
point $-1 49.414554387413034 17.952269289725479 -3.978548310225865 #
point $-1 60.73801939283257 17.952269289725479 -3.978548310225865 #
straight-curve $-1 68.286996063112269 35.636904854848659 0 0 0 -1 I I #
End-of-ACIS-data 