500 0 8 0           
7 Unknown 11 ACIS 5.0 NT 24 Fri Mar 26 19:46:23 1999 
-1 9.9999999999999995e-007 1e-010 
body $-1 $8 $-1 $9 #
body $-1 $10 $-1 $11 #
body $-1 $12 $-1 $13 #
body $-1 $14 $-1 $15 #
body $-1 $16 $-1 $17 #
body $-1 $18 $-1 $19 #
body $-1 $20 $-1 $21 #
body $-1 $22 $-1 $23 #
lump $-1 $-1 $24 $0 #
transform $-1 1 0 0 0 1 0 0 0 1 71.446272164067508 35.377537335184648 16.308302978430451 1 rotate no_reflect no_shear #
lump $-1 $-1 $25 $1 #
transform $-1 1 0 0 0 1 0 0 0 1 71.446272164067508 35.377537335184648 16.308302978430451 1 rotate no_reflect no_shear #
lump $-1 $-1 $26 $2 #
transform $-1 1 0 0 0 1 0 0 0 1 71.446272164067508 35.377537335184648 16.308302978430451 1 rotate no_reflect no_shear #
lump $-1 $-1 $27 $3 #
transform $-1 1 0 0 0 1 0 0 0 1 71.446272164067508 35.377537335184648 16.308302978430451 1 rotate no_reflect no_shear #
lump $-1 $-1 $28 $4 #
transform $-1 1 0 0 0 1 0 0 0 1 71.446272164067508 35.377537335184648 16.308302978430451 1 rotate no_reflect no_shear #
lump $-1 $-1 $29 $5 #
transform $-1 1 0 0 0 1 0 0 0 1 71.446272164067508 35.377537335184648 16.308302978430451 1 rotate no_reflect no_shear #
lump $-1 $-1 $30 $6 #
transform $-1 1 0 0 0 1 0 0 0 1 71.446272164067508 35.377537335184648 16.308302978430451 1 rotate no_reflect no_shear #
lump $-1 $-1 $31 $7 #
transform $-1 1 0 0 0 1 0 0 0 1 71.446272164067508 35.377537335184648 16.308302978430451 1 rotate no_reflect no_shear #
shell $-1 $-1 $-1 $32 $-1 $8 #
shell $-1 $-1 $-1 $33 $-1 $10 #
shell $-1 $-1 $-1 $34 $-1 $12 #
shell $-1 $-1 $-1 $35 $-1 $14 #
shell $-1 $-1 $-1 $36 $-1 $16 #
shell $-1 $-1 $-1 $37 $-1 $18 #
shell $-1 $-1 $-1 $38 $-1 $20 #
shell $-1 $-1 $-1 $39 $-1 $22 #
face $-1 $40 $41 $24 $-1 $42 forward single #
face $-1 $43 $44 $25 $-1 $45 forward single #
face $-1 $46 $47 $26 $-1 $48 reversed single #
face $-1 $49 $50 $27 $-1 $51 forward single #
face $-1 $52 $53 $28 $-1 $54 forward single #
face $-1 $55 $56 $29 $-1 $57 forward single #
face $-1 $58 $59 $30 $-1 $60 reversed single #
face $-1 $61 $62 $31 $-1 $63 forward single #
face $-1 $64 $65 $24 $-1 $66 reversed single #
loop $-1 $-1 $67 $32 #
plane-surface $-1 0 0 16.308302978430451 0 0 1 1 0 0 forward_v I I I I #
face $-1 $68 $69 $25 $-1 $70 reversed single #
loop $-1 $-1 $71 $33 #
plane-surface $-1 -64.8309053916891 0 -8.9867623493066695 0 0 1 1 0 0 forward_v I I I I #
face $-1 $72 $73 $26 $-1 $74 reversed single #
loop $-1 $-1 $75 $34 #
plane-surface $-1 15.381790411888481 94.223008068856871 151.67411894111027 1 0 0 0 -0.74314483375859142 -0.66913059716165679 forward_v I I I I #
face $-1 $76 $77 $27 $-1 $78 forward single #
loop $-1 $79 $80 $35 #
cone-surface $-1 20.806241947215796 28.574291531050562 8.9685226538689484 0 -0.74314483375859142 -0.66913059716165679 2.5 0 0 1 I I 0 1 2.5 forward I I I I #
face $-1 $81 $82 $28 $-1 $83 forward single #
loop $-1 $84 $85 $36 #
cone-surface $-1 28.942919250206785 28.574291531050562 8.9685226538689484 0 -0.74314483375859142 -0.66913059716165679 2.5 0 0 1 I I 0 1 2.5 forward I I I I #
face $-1 $86 $87 $29 $-1 $88 forward single #
loop $-1 $89 $90 $37 #
cone-surface $-1 37.079596553197774 28.574291531050562 8.9685226538689484 0 -0.74314483375859142 -0.66913059716165679 2.5 0 0 1 I I 0 1 2.5 forward I I I I #
face $-1 $91 $92 $30 $-1 $93 reversed single #
loop $-1 $-1 $94 $38 #
plane-surface $-1 34.230889972315978 -106.82381045645161 126.45109208940363 -1 0 0 0 -0.50000000669873634 0.8660253999169214 forward_v I I I I #
face $-1 $95 $96 $31 $-1 $97 forward single #
loop $-1 $98 $99 $39 #
cone-surface $-1 26.732411370553152 -22.141398566007542 6.9884215505253833 0 0.50000000669873634 -0.8660253999169214 2 0 0 1 I I 0 1 2 forward I I I I #
face $-1 $100 $101 $24 $-1 $102 reversed single #
loop $-1 $-1 $103 $40 #
plane-surface $-1 0 0 -16.308302978430451 0 0 1 1 0 0 forward_v I I I I #
coedge $-1 $104 $105 $106 $107 forward $41 $-1 #
face $-1 $108 $109 $25 $-1 $110 reversed single #
loop $-1 $-1 $111 $43 #
plane-surface $-1 -58.215538619310692 0 -12.64753266386856 -1 0 0 0 0 1 forward_v I I I I #
coedge $-1 $112 $113 $114 $115 forward $44 $-1 #
face $-1 $116 $117 $26 $-1 $118 reversed single #
loop $-1 $-1 $119 $46 #
plane-surface $-1 28.942919250206799 -11.966848031217154 56.060345424876786 0 0.74314483375859142 0.66913059716165679 1 0 0 forward_v I I I I #
coedge $-1 $120 $121 $122 $123 reversed $47 $-1 #
face $-1 $-1 $124 $27 $-1 $125 forward single #
loop $-1 $126 $127 $49 #
cone-surface $-1 20.806241947215796 26.61785791939424 7.2069419613763834 0 -0.74314483375859142 -0.66913059716165679 1.25 0 0 1 I I -0.70710678118654746 0.70710678118654746 1.25 forward I I I I #
loop $-1 $-1 $128 $35 #
coedge $-1 $80 $80 $129 $130 reversed $50 $-1 #
face $-1 $-1 $131 $28 $-1 $132 forward single #
loop $-1 $133 $134 $52 #
cone-surface $-1 28.942919250206785 26.61785791939424 7.2069419613763834 0 -0.74314483375859142 -0.66913059716165679 1.25 0 0 1 I I -0.70710678118654746 0.70710678118654746 1.25 forward I I I I #
loop $-1 $-1 $135 $36 #
coedge $-1 $85 $85 $136 $137 reversed $53 $-1 #
face $-1 $-1 $138 $29 $-1 $139 forward single #
loop $-1 $140 $141 $55 #
cone-surface $-1 37.079596553197774 26.61785791939424 7.2069419613763834 0 -0.74314483375859142 -0.66913059716165679 1.25 0 0 1 I I -0.70710678118654746 0.70710678118654746 1.25 forward I I I I #
loop $-1 $-1 $142 $37 #
coedge $-1 $90 $90 $143 $144 reversed $56 $-1 #
face $-1 $145 $146 $30 $-1 $147 reversed single #
loop $-1 $-1 $148 $58 #
plane-surface $-1 26.732411370553152 -35.377537335184627 2.7025192424840867 0 -0.50000000669873634 0.8660253999169214 1 0 0 forward_v I I I I #
coedge $-1 $149 $150 $151 $152 reversed $59 $-1 #
face $-1 $-1 $153 $31 $-1 $154 forward single #
loop $-1 $155 $156 $61 #
cone-surface $-1 26.732411370553152 -20.188213933375984 3.6054065906765729 0 0.50000000669873634 -0.8660253999169214 1 0 0 1 I I -0.70710678118654746 0.70710678118654746 1 forward I I I I #
loop $-1 $-1 $157 $39 #
coedge $-1 $99 $99 $158 $159 reversed $62 $-1 #
face $-1 $160 $161 $24 $-1 $162 reversed single #
loop $-1 $-1 $163 $64 #
plane-surface $-1 0 -35.377537335184648 0 0 1 0 0 0 1 forward_v I I I I #
coedge $-1 $164 $165 $166 $167 forward $65 $-1 #
coedge $-1 $168 $67 $169 $170 forward $41 $-1 #
coedge $-1 $67 $168 $171 $172 forward $41 $-1 #
coedge $-1 $173 $174 $67 $107 reversed $175 $-1 #
edge $-1 $176 -35.377537335184648 $177 35.377537335184648 $106 $178 forward 7 unknown #
face $-1 $179 $180 $25 $-1 $181 reversed single #
loop $-1 $-1 $182 $68 #
plane-surface $-1 0 0 -16.308302978430451 0 0 1 1 0 0 forward_v I I I I #
coedge $-1 $183 $114 $184 $185 reversed $69 $-1 #
coedge $-1 $186 $71 $187 $188 reversed $44 $-1 #
coedge $-1 $71 $186 $189 $190 reversed $44 $-1 #
coedge $-1 $111 $191 $71 $115 reversed $69 $-1 #
edge $-1 $192 -35.377537335184648 $193 35.377537335184648 $114 $194 forward 7 unknown #
face $-1 $195 $196 $26 $-1 $197 reversed single #
loop $-1 $-1 $198 $72 #
plane-surface $-1 42.504048088525117 94.223008068856871 151.67411894111027 -1 0 0 0 0.74314483375859142 0.66913059716165679 forward_v I I I I #
coedge $-1 $199 $200 $201 $202 reversed $73 $-1 #
coedge $-1 $121 $75 $203 $204 reversed $47 $-1 #
coedge $-1 $75 $120 $199 $205 reversed $47 $-1 #
coedge $-1 $201 $206 $75 $123 forward $207 $-1 #
edge $-1 $208 11.733966699243787 $209 23.285453168595758 $122 $210 forward 7 unknown #
loop $-1 $-1 $129 $76 #
plane-surface $-1 28.942919250206799 -11.966848031217154 56.060345424876786 0 0.74314483375859142 0.66913059716165679 1 0 0 forward_v I I I I #
loop $-1 $-1 $211 $49 #
coedge $-1 $127 $127 $128 $212 reversed $77 $-1 #
coedge $-1 $128 $128 $127 $212 forward $79 $-1 #
coedge $-1 $129 $129 $80 $130 forward $124 $-1 #
edge $-1 $213 7.362638941949384e-016 $213 6.2831853071796013 $129 $214 forward 7 unknown #
loop $-1 $-1 $136 $81 #
plane-surface $-1 28.942919250206799 -11.966848031217154 56.060345424876786 0 0.74314483375859142 0.66913059716165679 1 0 0 forward_v I I I I #
loop $-1 $-1 $215 $52 #
coedge $-1 $134 $134 $135 $216 reversed $82 $-1 #
coedge $-1 $135 $135 $134 $216 forward $84 $-1 #
coedge $-1 $136 $136 $85 $137 forward $131 $-1 #
edge $-1 $217 7.362638941949384e-016 $217 6.2831853071796013 $136 $218 forward 7 unknown #
loop $-1 $-1 $143 $86 #
plane-surface $-1 28.942919250206799 -11.966848031217154 56.060345424876786 0 0.74314483375859142 0.66913059716165679 1 0 0 forward_v I I I I #
loop $-1 $-1 $219 $55 #
coedge $-1 $141 $141 $142 $220 reversed $87 $-1 #
coedge $-1 $142 $142 $141 $220 forward $89 $-1 #
coedge $-1 $143 $143 $90 $144 forward $138 $-1 #
edge $-1 $221 7.362638941949384e-016 $221 6.2831853071796013 $143 $222 forward 7 unknown #
face $-1 $223 $224 $30 $-1 $225 forward single #
loop $-1 $-1 $226 $91 #
plane-surface $-1 19.233932768790325 -106.82381045645161 126.45109208940363 1 0 0 0 0.50000000669873634 -0.8660253999169214 forward_v I I I I #
coedge $-1 $227 $228 $229 $230 reversed $92 $-1 #
coedge $-1 $150 $94 $231 $232 reversed $59 $-1 #
coedge $-1 $94 $149 $227 $233 reversed $59 $-1 #
coedge $-1 $229 $234 $94 $152 forward $224 $-1 #
edge $-1 $235 18.034367893041157 $236 41.600276179529757 $151 $237 forward 7 unknown #
loop $-1 $-1 $158 $95 #
plane-surface $-1 26.732411370553152 -35.377537335184627 2.7025192424840867 0 -0.50000000669873634 0.8660253999169214 1 0 0 forward_v I I I I #
loop $-1 $-1 $238 $61 #
coedge $-1 $156 $156 $157 $239 reversed $96 $-1 #
coedge $-1 $157 $157 $156 $239 forward $98 $-1 #
coedge $-1 $158 $158 $99 $159 forward $153 $-1 #
edge $-1 $240 3.1884226124628903e-017 $240 6.2831853071796004 $158 $241 forward 7 unknown #
face $-1 $242 $243 $24 $-1 $244 reversed single #
loop $-1 $-1 $245 $100 #
plane-surface $-1 -71.446272164067508 0 0 1 0 0 0 0 -1 forward_v I I I I #
coedge $-1 $246 $171 $247 $248 forward $101 $-1 #
coedge $-1 $249 $103 $246 $250 forward $65 $-1 #
coedge $-1 $103 $249 $251 $252 forward $65 $-1 #
coedge $-1 $174 $173 $103 $167 reversed $175 $-1 #
edge $-1 $253 -35.377537335184648 $254 35.377537335184648 $166 $255 forward 7 unknown #
coedge $-1 $105 $104 $256 $257 forward $41 $-1 #
coedge $-1 $258 $259 $104 $170 reversed $243 $-1 #
edge $-1 $177 -71.446272164067508 $260 71.446272164067508 $169 $261 forward 7 unknown #
coedge $-1 $163 $262 $105 $172 reversed $101 $-1 #
edge $-1 $263 -71.446272164067508 $176 71.446272164067508 $171 $264 forward 7 unknown #
coedge $-1 $166 $106 $262 $265 forward $175 $-1 #
coedge $-1 $106 $166 $258 $266 reversed $175 $-1 #
loop $-1 $-1 $173 $242 #
vertex $-1 $107 $267 #
vertex $-1 $107 $268 #
straight-curve $-1 71.446272164067508 0 16.308302978430451 0 1 0 I I #
face $-1 $269 $270 $25 $-1 $271 reversed single #
loop $-1 $-1 $184 $108 #
plane-surface $-1 0 -35.377537335184648 0 0 1 0 0 0 1 forward_v I I I I #
coedge $-1 $272 $273 $183 $274 forward $109 $-1 #
coedge $-1 $191 $111 $182 $274 reversed $69 $-1 #
coedge $-1 $189 $275 $111 $185 forward $180 $-1 #
edge $-1 $276 -9.9845366464961707 $192 -2.6629960173723894 $184 $277 forward 7 unknown #
coedge $-1 $113 $112 $278 $279 reversed $44 $-1 #
coedge $-1 $280 $281 $112 $188 forward $282 $-1 #
edge $-1 $283 -39.030819468222958 $193 -25.800085923466142 $187 $284 forward 7 unknown #
coedge $-1 $285 $184 $113 $190 forward $180 $-1 #
edge $-1 $192 25.800085923466142 $286 39.030819468222958 $189 $287 forward 7 unknown #
coedge $-1 $114 $183 $280 $288 reversed $69 $-1 #
vertex $-1 $190 $289 #
vertex $-1 $188 $290 #
straight-curve $-1 -58.215538619310692 0 -8.9867623493066695 0 1 0 I I #
face $-1 $-1 $207 $26 $-1 $291 forward single #
loop $-1 $-1 $292 $116 #
plane-surface $-1 0 35.377537335184648 0 0 -1 0 0 0 -1 forward_v I I I I #
coedge $-1 $293 $294 $295 $296 reversed $117 $-1 #
coedge $-1 $297 $119 $121 $205 forward $73 $-1 #
coedge $-1 $119 $297 $293 $298 forward $73 $-1 #
coedge $-1 $295 $122 $119 $202 forward $207 $-1 #
edge $-1 $209 0.91033078678508161 $299 28.032588463421718 $201 $300 forward 7 unknown #
coedge $-1 $301 $302 $120 $204 forward $196 $-1 #
edge $-1 $303 -72.357982249166639 $208 -59.528756492124685 $203 $304 forward 7 unknown #
edge $-1 $209 53.491648788558592 $303 70.755074670369254 $121 $305 forward 7 unknown #
coedge $-1 $122 $295 $301 $306 forward $207 $-1 #
loop $-1 $-1 $295 $195 #
vertex $-1 $204 $307 #
vertex $-1 $123 $308 #
straight-curve $-1 15.381790411888481 47.111504034428435 16.308302978430447 0 -1 0 I I #
coedge $-1 $211 $211 $-1 $309 reversed $126 $-1 #
edge $-1 $310 0 $310 6.2831853071796004 $127 $311 forward 7 unknown #
vertex $-1 $130 $312 #
ellipse-curve $-1 20.806241947215796 29.60179410050867 9.8936900999094668 0 0.74314483375859142 0.66913059716165679 2.5 0 0 1 I I #
coedge $-1 $215 $215 $-1 $313 reversed $133 $-1 #
edge $-1 $314 0 $314 6.2831853071796004 $134 $315 forward 7 unknown #
vertex $-1 $137 $316 #
ellipse-curve $-1 28.942919250206785 29.60179410050867 9.8936900999094668 0 0.74314483375859142 0.66913059716165679 2.5 0 0 1 I I #
coedge $-1 $219 $219 $-1 $317 reversed $140 $-1 #
edge $-1 $318 0 $318 6.2831853071796004 $141 $319 forward 7 unknown #
vertex $-1 $144 $320 #
ellipse-curve $-1 37.079596553197774 29.60179410050867 9.8936900999094668 0 0.74314483375859142 0.66913059716165679 2.5 0 0 1 I I #
face $-1 $-1 $321 $30 $-1 $322 reversed single #
loop $-1 $-1 $151 $145 #
plane-surface $-1 0 0 16.308302978430451 0 0 1 1 0 0 forward_v I I I I #
coedge $-1 $323 $324 $325 $326 reversed $146 $-1 #
coedge $-1 $327 $148 $150 $233 forward $92 $-1 #
coedge $-1 $148 $327 $323 $328 forward $92 $-1 #
coedge $-1 $325 $151 $148 $230 forward $224 $-1 #
edge $-1 $236 -20.864684287039402 $329 -5.8677270835137492 $229 $330 forward 7 unknown #
coedge $-1 $331 $332 $149 $232 forward $321 $-1 #
edge $-1 $333 -60.523026802217743 $235 -46.917243066271368 $231 $334 forward 7 unknown #
edge $-1 $236 -27.211567107326502 $333 2.4677690728037424e-014 $150 $335 forward 7 unknown #
coedge $-1 $151 $325 $331 $336 forward $224 $-1 #
vertex $-1 $152 $337 #
vertex $-1 $152 $338 #
straight-curve $-1 34.230889972315978 -53.411905228225805 16.308302978430447 0 1 0 I I #
coedge $-1 $238 $238 $-1 $339 reversed $155 $-1 #
edge $-1 $340 0 $340 6.2831853071796004 $156 $341 forward 7 unknown #
vertex $-1 $159 $342 #
ellipse-curve $-1 26.732411370553152 -23.594583191940355 9.5054111104572581 0 -0.50000000669873634 0.8660253999169214 2 0 0 1 I I #
face $-1 $-1 $175 $24 $-1 $343 reversed single #
loop $-1 $-1 $258 $160 #
plane-surface $-1 0 35.377537335184648 0 0 -1 0 0 0 -1 forward_v I I I I #
coedge $-1 $344 $256 $259 $345 forward $161 $-1 #
coedge $-1 $262 $163 $164 $250 reversed $101 $-1 #
coedge $-1 $256 $344 $163 $248 reversed $161 $-1 #
edge $-1 $263 -16.308302978430451 $346 16.308302978430451 $247 $347 forward 7 unknown #
coedge $-1 $165 $164 $344 $348 forward $65 $-1 #
edge $-1 $254 -71.446272164067508 $346 71.446272164067508 $246 $349 forward 7 unknown #
coedge $-1 $259 $258 $165 $252 reversed $243 $-1 #
edge $-1 $350 -71.446272164067508 $253 71.446272164067508 $251 $351 forward 7 unknown #
vertex $-1 $167 $352 #
vertex $-1 $265 $353 #
straight-curve $-1 71.446272164067508 0 -16.308302978430451 0 -1 0 I I #
coedge $-1 $245 $247 $168 $257 reversed $161 $-1 #
edge $-1 $260 -35.377537335184648 $263 35.377537335184648 $256 $354 forward 7 unknown #
coedge $-1 $251 $169 $174 $266 forward $243 $-1 #
coedge $-1 $169 $251 $245 $345 reversed $243 $-1 #
vertex $-1 $170 $355 #
straight-curve $-1 0 35.377537335184648 16.308302978430451 -1 0 0 I I #
coedge $-1 $171 $246 $173 $265 reversed $101 $-1 #
vertex $-1 $257 $356 #
straight-curve $-1 0 -35.377537335184648 16.308302978430451 1 0 0 I I #
edge $-1 $176 -16.308302978430451 $254 16.308302978430451 $173 $357 forward 7 unknown #
edge $-1 $177 -16.308302978430451 $253 16.308302978430451 $174 $358 forward 7 unknown #
point $-1 71.446272164067508 -35.377537335184648 16.308302978430451 #
point $-1 71.446272164067508 35.377537335184648 16.308302978430451 #
face $-1 $-1 $282 $25 $-1 $359 reversed single #
loop $-1 $-1 $278 $179 #
plane-surface $-1 -71.446272164067508 0 0 1 0 0 0 0 -1 forward_v I I I I #
coedge $-1 $360 $182 $275 $361 forward $109 $-1 #
coedge $-1 $182 $360 $362 $363 forward $109 $-1 #
edge $-1 $364 -35.377537335184648 $276 35.377537335184648 $182 $365 forward 7 unknown #
coedge $-1 $184 $285 $272 $361 reversed $180 $-1 #
vertex $-1 $361 $366 #
straight-curve $-1 -58.215538619310692 -35.377537335184648 -6.3237663319342801 0 0 1 I I #
coedge $-1 $367 $368 $186 $279 forward $270 $-1 #
edge $-1 $286 -35.377537335184648 $283 35.377537335184648 $278 $369 forward 7 unknown #
coedge $-1 $362 $187 $191 $288 forward $282 $-1 #
coedge $-1 $187 $362 $367 $370 reversed $282 $-1 #
loop $-1 $-1 $280 $269 #
vertex $-1 $370 $371 #
straight-curve $-1 -32.41545269584455 35.377537335184648 -8.9867623493066695 1 0 0 I I #
coedge $-1 $275 $189 $368 $372 forward $180 $-1 #
vertex $-1 $372 $373 #
straight-curve $-1 -32.41545269584455 -35.377537335184648 -8.9867623493066695 -1 0 0 I I #
edge $-1 $193 2.6629960173723894 $364 9.9845366464961707 $280 $374 forward 7 unknown #
point $-1 -58.215538619310692 -35.377537335184648 -8.9867623493066695 #
point $-1 -58.215538619310692 35.377537335184648 -8.9867623493066695 #
plane-surface $-1 0 0 16.308302978430451 0 0 1 1 0 0 forward_v I I I I #
coedge $-1 $302 $301 $294 $375 forward $196 $-1 #
coedge $-1 $294 $198 $200 $298 reversed $117 $-1 #
coedge $-1 $198 $293 $292 $375 reversed $117 $-1 #
coedge $-1 $206 $201 $198 $296 forward $207 $-1 #
edge $-1 $299 -23.285453168595758 $376 -11.733966699243787 $295 $377 forward 7 unknown #
coedge $-1 $200 $199 $302 $378 reversed $73 $-1 #
edge $-1 $379 -70.755074670369254 $299 -53.491648788558592 $293 $380 forward 7 unknown #
vertex $-1 $202 $381 #
straight-curve $-1 14.4714596251034 23.826050865832677 16.308302978430451 1 0 0 I I #
coedge $-1 $292 $203 $206 $306 reversed $196 $-1 #
coedge $-1 $203 $292 $297 $378 forward $196 $-1 #
vertex $-1 $204 $382 #
straight-curve $-1 15.381790411888481 35.377537335184648 75.837059470555133 0 0 1 I I #
straight-curve $-1 15.381790411888481 -11.966848031217154 56.060345424876786 0 0.66913059716165679 -0.74314483375859142 I I #
edge $-1 $376 -42.504048088525117 $208 -15.381790411888481 $301 $383 forward 7 unknown #
point $-1 15.381790411888481 35.377537335184648 16.308302978430451 #
point $-1 15.381790411888481 23.826050865832677 16.308302978430447 #
edge $-1 $384 1 $384 0 $211 $-1 forward 7 unknown #
vertex $-1 $212 $385 #
ellipse-curve $-1 20.806241947215796 27.54678896159248 8.0433552078284549 0 0.74314483375859142 0.66913059716165679 2.5 0 0 1 I I #
point $-1 23.306241947215796 29.601794100508645 9.8936900999094419 #
edge $-1 $386 1 $386 0 $215 $-1 forward 7 unknown #
vertex $-1 $216 $387 #
ellipse-curve $-1 28.942919250206785 27.54678896159248 8.0433552078284549 0 0.74314483375859142 0.66913059716165679 2.5 0 0 1 I I #
point $-1 31.442919250206785 29.601794100508645 9.8936900999094419 #
edge $-1 $388 1 $388 0 $219 $-1 forward 7 unknown #
vertex $-1 $220 $389 #
ellipse-curve $-1 37.079596553197774 27.54678896159248 8.0433552078284549 0 0.74314483375859142 0.66913059716165679 2.5 0 0 1 I I #
point $-1 39.579596553197774 29.601794100508645 9.8936900999094419 #
loop $-1 $-1 $231 $223 #
plane-surface $-1 0 -35.377537335184648 0 0 1 0 0 0 1 forward_v I I I I #
coedge $-1 $324 $226 $228 $328 reversed $146 $-1 #
coedge $-1 $226 $323 $390 $391 reversed $146 $-1 #
coedge $-1 $234 $229 $226 $326 forward $224 $-1 #
edge $-1 $329 -41.600276179529757 $392 -18.034367893041157 $325 $393 forward 7 unknown #
coedge $-1 $228 $227 $332 $394 reversed $92 $-1 #
edge $-1 $395 -2.4677690728037424e-014 $329 27.211567107326502 $323 $396 forward 7 unknown #
vertex $-1 $230 $397 #
straight-curve $-1 13.366205685276576 -11.811629048696052 16.308302978430451 -1 0 0 I I #
coedge $-1 $390 $231 $234 $336 reversed $321 $-1 #
coedge $-1 $231 $390 $327 $394 forward $321 $-1 #
vertex $-1 $232 $398 #
straight-curve $-1 34.230889972315978 -35.377537335184648 63.225546044701815 0 0 1 I I #
straight-curve $-1 34.230889972315978 -35.377537335184627 2.7025192424840867 0 -0.8660253999169214 -0.50000000669873634 I I #
edge $-1 $392 19.233932768790325 $235 34.230889972315978 $331 $399 forward 7 unknown #
point $-1 34.230889972315978 -35.377537335184648 16.308302978430451 #
point $-1 34.230889972315978 -11.811629048696048 16.308302978430451 #
edge $-1 $400 1 $400 0 $238 $-1 forward 7 unknown #
vertex $-1 $239 $401 #
ellipse-curve $-1 26.732411370553152 -20.688213940074721 4.4714319905934943 0 -0.50000000669873634 0.8660253999169214 2 0 0 1 I I #
point $-1 28.732411370553152 -23.594583191940362 9.5054111104572705 #
plane-surface $-1 71.446272164067508 0 0 -1 0 0 0 0 1 forward_v I I I I #
coedge $-1 $247 $245 $249 $348 reversed $161 $-1 #
edge $-1 $260 -16.308302978430451 $350 16.308302978430451 $259 $402 forward 7 unknown #
vertex $-1 $348 $403 #
straight-curve $-1 -71.446272164067508 -35.377537335184648 0 0 0 -1 I I #
edge $-1 $346 -35.377537335184648 $350 35.377537335184648 $344 $404 forward 7 unknown #
straight-curve $-1 0 -35.377537335184648 -16.308302978430451 -1 0 0 I I #
vertex $-1 $252 $405 #
straight-curve $-1 0 35.377537335184648 -16.308302978430451 1 0 0 I I #
point $-1 71.446272164067508 35.377537335184648 -16.308302978430451 #
point $-1 71.446272164067508 -35.377537335184648 -16.308302978430451 #
straight-curve $-1 -71.446272164067508 0 16.308302978430451 0 -1 0 I I #
point $-1 -71.446272164067508 35.377537335184648 16.308302978430451 #
point $-1 -71.446272164067508 -35.377537335184648 16.308302978430451 #
straight-curve $-1 71.446272164067508 -35.377537335184648 0 0 0 -1 I I #
straight-curve $-1 71.446272164067508 35.377537335184648 0 0 0 -1 I I #
plane-surface $-1 0 35.377537335184648 0 0 -1 0 0 0 -1 forward_v I I I I #
coedge $-1 $273 $272 $406 $407 forward $109 $-1 #
edge $-1 $276 58.215538619310692 $408 71.446272164067508 $275 $409 forward 7 unknown #
coedge $-1 $281 $280 $273 $363 reversed $282 $-1 #
edge $-1 $410 -71.446272164067508 $364 -58.215538619310692 $362 $411 forward 7 unknown #
vertex $-1 $288 $412 #
straight-curve $-1 -58.215538619310692 0 -16.308302978430451 0 -1 0 I I #
point $-1 -58.215538619310692 -35.377537335184648 -16.308302978430451 #
coedge $-1 $406 $278 $281 $370 forward $270 $-1 #
coedge $-1 $278 $406 $285 $372 reversed $270 $-1 #
straight-curve $-1 -71.446272164067508 0 -8.9867623493066695 0 1 0 I I #
edge $-1 $283 8.9867623493066695 $410 16.308302978430451 $281 $413 forward 7 unknown #
point $-1 -71.446272164067508 35.377537335184648 -8.9867623493066695 #
edge $-1 $286 8.9867623493066695 $408 16.308302978430451 $368 $414 forward 7 unknown #
point $-1 -71.446272164067508 -35.377537335184648 -8.9867623493066695 #
straight-curve $-1 -58.215538619310692 35.377537335184648 -6.3237663319342801 0 0 -1 I I #
edge $-1 $376 59.528756492124685 $379 72.357982249166639 $292 $415 forward 7 unknown #
vertex $-1 $306 $416 #
straight-curve $-1 42.504048088525117 47.111504034428435 16.308302978430447 0 1 0 I I #
edge $-1 $379 -28.032588463421718 $303 -0.91033078678508161 $302 $417 forward 7 unknown #
vertex $-1 $378 $418 #
straight-curve $-1 42.504048088525117 -11.966848031217154 56.060345424876786 0 -0.66913059716165679 0.74314483375859142 I I #
point $-1 42.504048088525117 23.826050865832677 16.308302978430447 #
point $-1 15.381790411888481 35.377537335184648 3.4790772213884935 #
straight-curve $-1 0 35.377537335184648 16.308302978430451 -1 0 0 I I #
vertex $-1 $309 $419 #
point $-1 23.306241947215796 27.54678896159248 8.0433552078284549 #
vertex $-1 $313 $420 #
point $-1 31.442919250206785 27.54678896159248 8.0433552078284549 #
vertex $-1 $317 $421 #
point $-1 39.579596553197774 27.54678896159248 8.0433552078284549 #
coedge $-1 $332 $331 $324 $391 forward $321 $-1 #
edge $-1 $392 46.917243066271368 $395 60.523026802217743 $390 $422 forward 7 unknown #
vertex $-1 $336 $423 #
straight-curve $-1 19.233932768790325 -53.411905228225805 16.308302978430447 0 -1 0 I I #
edge $-1 $395 5.8677270835137492 $333 20.864684287039402 $332 $424 forward 7 unknown #
vertex $-1 $394 $425 #
straight-curve $-1 19.233932768790325 -35.377537335184627 2.7025192424840867 0 0.8660253999169214 0.50000000669873634 I I #
point $-1 19.233932768790325 -11.811629048696048 16.308302978430451 #
point $-1 34.230889972315978 -35.377537335184648 2.7025192424840743 #
straight-curve $-1 0 -35.377537335184648 16.308302978430451 1 0 0 I I #
vertex $-1 $339 $426 #
point $-1 28.732411370553152 -20.688213940074721 4.4714319905934943 #
straight-curve $-1 -71.446272164067508 35.377537335184648 0 0 0 -1 I I #
point $-1 -71.446272164067508 -35.377537335184648 -16.308302978430451 #
straight-curve $-1 -71.446272164067508 0 -16.308302978430451 0 1 0 I I #
point $-1 -71.446272164067508 35.377537335184648 -16.308302978430451 #
coedge $-1 $368 $367 $360 $407 reversed $270 $-1 #
edge $-1 $408 -35.377537335184648 $410 35.377537335184648 $406 $427 forward 7 unknown #
vertex $-1 $407 $428 #
straight-curve $-1 0 -35.377537335184648 -16.308302978430451 -1 0 0 I I #
vertex $-1 $363 $429 #
straight-curve $-1 0 35.377537335184648 -16.308302978430451 1 0 0 I I #
point $-1 -58.215538619310692 35.377537335184648 -16.308302978430451 #
straight-curve $-1 -71.446272164067508 35.377537335184648 0 0 0 -1 I I #
straight-curve $-1 -71.446272164067508 -35.377537335184648 0 0 0 -1 I I #
straight-curve $-1 42.504048088525117 35.377537335184648 75.837059470555133 0 0 -1 I I #
point $-1 42.504048088525117 35.377537335184648 16.308302978430451 #
straight-curve $-1 14.4714596251034 35.377537335184648 3.4790772213884971 -1 0 0 I I #
point $-1 42.504048088525117 35.377537335184648 3.4790772213884935 #
point $-1 20.806241947215796 25.688926877196 6.3705287149243119 #
point $-1 28.942919250206785 25.688926877196 6.3705287149243119 #
point $-1 37.079596553197774 25.688926877196 6.3705287149243119 #
straight-curve $-1 19.233932768790325 -35.377537335184648 63.225546044701815 0 0 -1 I I #
point $-1 19.233932768790325 -35.377537335184648 16.308302978430451 #
straight-curve $-1 13.366205685276576 -35.377537335184648 2.7025192424840756 1 0 0 I I #
point $-1 19.233932768790325 -35.377537335184648 2.7025192424840743 #
point $-1 26.732411370553152 -19.688213926677246 2.7393811907596515 #
straight-curve $-1 -71.446272164067508 0 -16.308302978430451 0 1 0 I I #
point $-1 -71.446272164067508 -35.377537335184648 -16.308302978430451 #
point $-1 -71.446272164067508 35.377537335184648 -16.308302978430451 #
End-of-ACIS-data 