500 0 14 0           
7 Unknown 11 ACIS 5.0 NT 24 Thu Mar 25 22:48:40 1999 
-1 9.9999999999999995e-007 1e-010 
body $-1 $14 $-1 $15 #
body $-1 $16 $-1 $17 #
body $-1 $18 $-1 $19 #
body $-1 $20 $-1 $21 #
body $-1 $22 $-1 $23 #
body $-1 $24 $-1 $25 #
body $-1 $26 $-1 $27 #
body $-1 $28 $-1 $29 #
body $-1 $30 $-1 $31 #
body $-1 $32 $-1 $33 #
body $-1 $34 $-1 $35 #
body $-1 $36 $-1 $37 #
body $-1 $38 $-1 $39 #
body $-1 $40 $-1 $41 #
lump $-1 $-1 $42 $0 #
transform $-1 1 0 0 0 1 0 0 0 1 44.533829767754142 21.724495637064404 9.0868684912538118 1 rotate no_reflect no_shear #
lump $-1 $-1 $43 $1 #
transform $-1 1 0 0 0 1 0 0 0 1 44.533829767754142 21.724495637064404 9.0868684912538118 1 rotate no_reflect no_shear #
lump $-1 $-1 $44 $2 #
transform $-1 1 0 0 0 1 0 0 0 1 44.533829767754142 21.724495637064404 9.0868684912538118 1 rotate no_reflect no_shear #
lump $-1 $-1 $45 $3 #
transform $-1 1 0 0 0 1 0 0 0 1 44.533829767754142 21.724495637064404 9.0868684912538118 1 rotate no_reflect no_shear #
lump $-1 $-1 $46 $4 #
transform $-1 1 0 0 0 1 0 0 0 1 44.533829767754142 21.724495637064404 9.0868684912538118 1 rotate no_reflect no_shear #
lump $-1 $-1 $47 $5 #
transform $-1 1 0 0 0 1 0 0 0 1 44.533829767754142 21.724495637064404 9.0868684912538118 1 rotate no_reflect no_shear #
lump $-1 $-1 $48 $6 #
transform $-1 1 0 0 0 1 0 0 0 1 44.533829767754142 21.724495637064404 9.0868684912538118 1 rotate no_reflect no_shear #
lump $-1 $-1 $49 $7 #
transform $-1 1 0 0 0 1 0 0 0 1 44.533829767754142 21.724495637064404 9.0868684912538118 1 rotate no_reflect no_shear #
lump $-1 $-1 $50 $8 #
transform $-1 1 0 0 0 1 0 0 0 1 44.533829767754142 21.724495637064404 9.0868684912538118 1 rotate no_reflect no_shear #
lump $-1 $-1 $51 $9 #
transform $-1 1 0 0 0 1 0 0 0 1 44.533829767754142 21.724495637064404 9.0868684912538118 1 rotate no_reflect no_shear #
lump $-1 $-1 $52 $10 #
transform $-1 1 0 0 0 1 0 0 0 1 44.533829767754142 21.724495637064404 9.0868684912538118 1 rotate no_reflect no_shear #
lump $-1 $-1 $53 $11 #
transform $-1 1 0 0 0 1 0 0 0 1 44.533829767754142 21.724495637064404 9.0868684912538118 1 rotate no_reflect no_shear #
lump $-1 $-1 $54 $12 #
transform $-1 1 0 0 0 1 0 0 0 1 44.533829767754142 21.724495637064404 9.0868684912538118 1 rotate no_reflect no_shear #
lump $-1 $-1 $55 $13 #
transform $-1 1 0 0 0 1 0 0 0 1 44.533829767754142 21.724495637064404 9.0868684912538118 1 rotate no_reflect no_shear #
shell $-1 $-1 $-1 $56 $-1 $14 #
shell $-1 $-1 $-1 $57 $-1 $16 #
shell $-1 $-1 $-1 $58 $-1 $18 #
shell $-1 $-1 $-1 $59 $-1 $20 #
shell $-1 $-1 $-1 $60 $-1 $22 #
shell $-1 $-1 $-1 $61 $-1 $24 #
shell $-1 $-1 $-1 $62 $-1 $26 #
shell $-1 $-1 $-1 $63 $-1 $28 #
shell $-1 $-1 $-1 $64 $-1 $30 #
shell $-1 $-1 $-1 $65 $-1 $32 #
shell $-1 $-1 $-1 $66 $-1 $34 #
shell $-1 $-1 $-1 $67 $-1 $36 #
shell $-1 $-1 $-1 $68 $-1 $38 #
shell $-1 $-1 $-1 $69 $-1 $40 #
face $-1 $70 $71 $42 $-1 $72 forward single #
face $-1 $73 $74 $43 $-1 $75 reversed single #
face $-1 $76 $77 $44 $-1 $78 reversed single #
face $-1 $79 $80 $45 $-1 $81 forward single #
face $-1 $82 $83 $46 $-1 $84 forward single #
face $-1 $85 $86 $47 $-1 $87 reversed single #
face $-1 $88 $89 $48 $-1 $90 forward single #
face $-1 $91 $92 $49 $-1 $93 forward single #
face $-1 $94 $95 $50 $-1 $96 reversed single #
face $-1 $97 $98 $51 $-1 $99 forward single #
face $-1 $100 $101 $52 $-1 $102 forward single #
face $-1 $103 $104 $53 $-1 $105 reversed single #
face $-1 $106 $107 $54 $-1 $108 forward single #
face $-1 $109 $110 $55 $-1 $111 forward single #
face $-1 $112 $113 $42 $-1 $114 reversed single #
loop $-1 $-1 $115 $56 #
plane-surface $-1 0 0 9.0868684912538118 0 0 1 1 0 0 forward_v I I I I #
face $-1 $116 $117 $43 $-1 $118 reversed single #
loop $-1 $-1 $119 $57 #
plane-surface $-1 0 -18.242905250064808 5.9281646279437972 0 0 1 1 0 0 forward_v I I I I #
face $-1 $120 $121 $44 $-1 $122 reversed single #
loop $-1 $-1 $123 $58 #
plane-surface $-1 -94.33983355607171 -2.7835239858592278 75.291795524947133 0 1 0 -0.55919291073839883 0 0.82903756765294845 forward_v I I I I #
face $-1 $124 $125 $45 $-1 $126 forward single #
loop $-1 $127 $128 $59 #
cone-surface $-1 -38.476264080268002 -0.99349130789956419 4.6797781189672429 0.55919291073839883 0 -0.82903756765294845 0.41451878382647422 0 0.27959645536919941 1 I I 0 1 0.5 forward I I I I #
face $-1 $129 $130 $46 $-1 $131 forward single #
loop $-1 $132 $133 $60 #
cone-surface $-1 -38.476264080268002 1.6915577090399339 4.6797781189672429 0.55919291073839883 0 -0.82903756765294845 0.41451878382647422 0 0.27959645536919941 1 I I 0 1 0.5 forward I I I I #
face $-1 $134 $135 $47 $-1 $136 reversed single #
loop $-1 $-1 $137 $61 #
plane-surface $-1 -94.33983355607171 15.459381264205581 75.291795524947133 0 1 0 -0.55919291073839883 0 0.82903756765294845 forward_v I I I I #
face $-1 $138 $139 $48 $-1 $140 forward single #
loop $-1 $141 $142 $62 #
cone-surface $-1 -38.476264080268002 17.249413942165244 4.6797781189672429 0.55919291073839883 0 -0.82903756765294845 0.41451878382647422 0 0.27959645536919941 1 I I 0 1 0.5 forward I I I I #
face $-1 $143 $144 $49 $-1 $145 forward single #
loop $-1 $146 $147 $63 #
cone-surface $-1 -38.476264080268002 19.934462959104739 4.6797781189672429 0.55919291073839883 0 -0.82903756765294845 0.41451878382647422 0 0.27959645536919941 1 I I 0 1 0.5 forward I I I I #
face $-1 $148 $149 $50 $-1 $150 reversed single #
loop $-1 $-1 $151 $64 #
plane-surface $-1 20.499397738212991 3.481590386999601 125.0977993132647 0 -1 0 -0.55919291073839883 0 -0.82903756765294845 forward_v I I I I #
face $-1 $152 $153 $51 $-1 $154 forward single #
loop $-1 $155 $156 $65 #
cone-surface $-1 38.476264080268002 -0.99349130789956419 4.6797781189672412 -0.55919291073839883 0 -0.82903756765294845 0.41451878382647422 0 -0.27959645536919941 1 I I 0 1 0.5 forward I I I I #
face $-1 $157 $158 $52 $-1 $159 forward single #
loop $-1 $160 $161 $66 #
cone-surface $-1 38.476264080268002 1.6915577090399339 4.6797781189672412 -0.55919291073839883 0 -0.82903756765294845 0.41451878382647422 0 -0.27959645536919941 1 I I 0 1 0.5 forward I I I I #
face $-1 $162 $163 $53 $-1 $164 reversed single #
loop $-1 $-1 $165 $67 #
plane-surface $-1 -29.306606050104591 18.591938450634995 51.257363495405968 0.55919291073839883 0 0.82903756765294845 0.82903756765294845 0 -0.55919291073839883 forward_v I I I I #
face $-1 $166 $167 $54 $-1 $168 forward single #
loop $-1 $169 $170 $68 #
cone-surface $-1 38.476264080268002 17.249413942165244 4.6797781189672412 -0.55919291073839883 0 -0.82903756765294845 0.41451878382647422 0 -0.27959645536919941 1 I I 0 1 0.5 forward I I I I #
face $-1 $171 $172 $55 $-1 $173 forward single #
loop $-1 $174 $175 $69 #
cone-surface $-1 38.476264080268002 19.934462959104739 4.6797781189672412 -0.55919291073839883 0 -0.82903756765294845 0.41451878382647422 0 -0.27959645536919941 1 I I 0 1 0.5 forward I I I I #
face $-1 $176 $177 $42 $-1 $178 reversed single #
loop $-1 $-1 $179 $70 #
plane-surface $-1 0 0 -9.0868684912538118 0 0 1 1 0 0 forward_v I I I I #
coedge $-1 $180 $181 $182 $183 forward $71 $-1 #
face $-1 $184 $185 $43 $-1 $186 reversed single #
loop $-1 $-1 $187 $73 #
plane-surface $-1 0 -14.761314863065211 7.5075165595988036 0 -1 0 0 0 -1 forward_v I I I I #
coedge $-1 $188 $189 $190 $191 reversed $74 $-1 #
face $-1 $192 $193 $44 $-1 $194 reversed single #
loop $-1 $-1 $195 $76 #
plane-surface $-1 -44.533829767754128 0.34903320057018661 1.4513597070884003 -0.55919291073839883 0 0.82903756765294845 0.82903756765294845 0 0.55919291073839883 forward_v I I I I #
coedge $-1 $196 $197 $198 $199 reversed $77 $-1 #
face $-1 $-1 $200 $45 $-1 $201 forward single #
loop $-1 $202 $203 $79 #
cone-surface $-1 -37.938953707137387 -0.99349130789956419 3.8831827468501388 0.55919291073839883 0 -0.82903756765294845 0.20725939191323711 0 0.13979822768459971 1 I I -0.70710678118654746 0.70710678118654746 0.25 forward I I I I #
loop $-1 $-1 $204 $59 #
coedge $-1 $128 $128 $205 $206 reversed $80 $-1 #
face $-1 $-1 $207 $46 $-1 $208 forward single #
loop $-1 $209 $210 $82 #
cone-surface $-1 -37.938953707137387 1.6915577090399339 3.8831827468501388 0.55919291073839883 0 -0.82903756765294845 0.20725939191323711 0 0.13979822768459971 1 I I -0.70710678118654746 0.70710678118654746 0.25 forward I I I I #
loop $-1 $-1 $211 $60 #
coedge $-1 $133 $133 $212 $213 reversed $83 $-1 #
face $-1 $214 $215 $47 $-1 $216 forward single #
loop $-1 $-1 $217 $85 #
plane-surface $-1 -44.533829767754128 18.591938450634995 1.4513597070884003 -0.55919291073839883 0 0.82903756765294845 0.82903756765294845 0 0.55919291073839883 forward_v I I I I #
coedge $-1 $218 $219 $220 $221 reversed $86 $-1 #
face $-1 $-1 $222 $48 $-1 $223 forward single #
loop $-1 $224 $225 $88 #
cone-surface $-1 -37.938953707137387 17.249413942165244 3.8831827468501388 0.55919291073839883 0 -0.82903756765294845 0.20725939191323711 0 0.13979822768459971 1 I I -0.70710678118654746 0.70710678118654746 0.25 forward I I I I #
loop $-1 $-1 $226 $62 #
coedge $-1 $142 $142 $227 $228 reversed $89 $-1 #
face $-1 $-1 $229 $49 $-1 $230 forward single #
loop $-1 $231 $232 $91 #
cone-surface $-1 -37.938953707137387 19.934462959104739 3.8831827468501388 0.55919291073839883 0 -0.82903756765294845 0.20725939191323711 0 0.13979822768459971 1 I I -0.70710678118654746 0.70710678118654746 0.25 forward I I I I #
loop $-1 $-1 $233 $63 #
coedge $-1 $147 $147 $234 $235 reversed $92 $-1 #
face $-1 $236 $237 $50 $-1 $238 reversed single #
loop $-1 $-1 $239 $94 #
plane-surface $-1 -29.306606050104591 0.34903320057018661 51.257363495405968 0.55919291073839883 0 0.82903756765294845 0.82903756765294845 0 -0.55919291073839883 forward_v I I I I #
coedge $-1 $240 $241 $242 $243 reversed $95 $-1 #
face $-1 $-1 $244 $51 $-1 $245 forward single #
loop $-1 $246 $247 $97 #
cone-surface $-1 37.938953707137387 -0.99349130789956419 3.883182746850137 -0.55919291073839883 0 -0.82903756765294845 0.20725939191323711 0 -0.13979822768459971 1 I I -0.70710678118654746 0.70710678118654746 0.25 forward I I I I #
loop $-1 $-1 $248 $65 #
coedge $-1 $156 $156 $249 $250 reversed $98 $-1 #
face $-1 $-1 $251 $52 $-1 $252 forward single #
loop $-1 $253 $254 $100 #
cone-surface $-1 37.938953707137387 1.6915577090399339 3.883182746850137 -0.55919291073839883 0 -0.82903756765294845 0.20725939191323711 0 -0.13979822768459971 1 I I -0.70710678118654746 0.70710678118654746 0.25 forward I I I I #
loop $-1 $-1 $255 $66 #
coedge $-1 $161 $161 $256 $257 reversed $101 $-1 #
face $-1 $258 $259 $53 $-1 $260 reversed single #
loop $-1 $-1 $261 $103 #
plane-surface $-1 20.499397738212991 15.459381264205581 125.0977993132647 0 1 0 0.55919291073839883 0 0.82903756765294845 forward_v I I I I #
coedge $-1 $262 $263 $264 $265 reversed $104 $-1 #
face $-1 $-1 $266 $54 $-1 $267 forward single #
loop $-1 $268 $269 $106 #
cone-surface $-1 37.938953707137387 17.249413942165244 3.883182746850137 -0.55919291073839883 0 -0.82903756765294845 0.20725939191323711 0 -0.13979822768459971 1 I I -0.70710678118654746 0.70710678118654746 0.25 forward I I I I #
loop $-1 $-1 $270 $68 #
coedge $-1 $170 $170 $271 $272 reversed $107 $-1 #
face $-1 $-1 $273 $55 $-1 $274 forward single #
loop $-1 $275 $276 $109 #
cone-surface $-1 37.938953707137387 19.934462959104739 3.883182746850137 -0.55919291073839883 0 -0.82903756765294845 0.20725939191323711 0 -0.13979822768459971 1 I I -0.70710678118654746 0.70710678118654746 0.25 forward I I I I #
loop $-1 $-1 $277 $69 #
coedge $-1 $175 $175 $278 $279 reversed $110 $-1 #
face $-1 $280 $281 $42 $-1 $282 reversed single #
loop $-1 $-1 $283 $112 #
plane-surface $-1 0 -21.724495637064404 0 0 1 0 0 0 1 forward_v I I I I #
coedge $-1 $284 $285 $286 $287 forward $113 $-1 #
coedge $-1 $288 $115 $289 $290 forward $71 $-1 #
coedge $-1 $115 $288 $291 $292 forward $71 $-1 #
coedge $-1 $293 $294 $115 $183 reversed $295 $-1 #
edge $-1 $296 -21.724495637064404 $297 21.724495637064404 $182 $298 forward 7 unknown #
face $-1 $299 $300 $43 $-1 $301 reversed single #
loop $-1 $-1 $302 $116 #
plane-surface $-1 -44.533829767754142 0 0 1 0 0 0 0 -1 forward_v I I I I #
coedge $-1 $303 $304 $305 $306 reversed $117 $-1 #
coedge $-1 $307 $119 $308 $309 reversed $74 $-1 #
coedge $-1 $119 $307 $303 $310 forward $74 $-1 #
coedge $-1 $305 $311 $119 $191 forward $312 $-1 #
edge $-1 $313 -12.603043012032003 $314 -5.6398622380328067 $190 $315 forward 7 unknown #
face $-1 $316 $317 $44 $-1 $318 forward single #
loop $-1 $-1 $319 $120 #
plane-surface $-1 -94.33983355607171 3.481590386999601 75.291795524947133 0 -1 0 0.55919291073839883 0 -0.82903756765294845 forward_v I I I I #
coedge $-1 $320 $321 $322 $323 reversed $121 $-1 #
coedge $-1 $197 $123 $324 $325 reversed $77 $-1 #
coedge $-1 $123 $196 $320 $326 reversed $77 $-1 #
coedge $-1 $322 $327 $123 $199 forward $317 $-1 #
edge $-1 $328 2.6360870102817131 $329 13.956194094361997 $198 $330 forward 7 unknown #
loop $-1 $-1 $205 $124 #
plane-surface $-1 -44.533829767754128 0.34903320057018661 1.4513597070884003 -0.55919291073839883 0 0.82903756765294845 0.82903756765294845 0 0.55919291073839883 forward_v I I I I #
loop $-1 $-1 $331 $79 #
coedge $-1 $203 $203 $204 $332 reversed $125 $-1 #
coedge $-1 $204 $204 $203 $332 forward $127 $-1 #
coedge $-1 $205 $205 $128 $206 forward $200 $-1 #
edge $-1 $333 0 $333 6.2831853071796004 $205 $334 forward 7 unknown #
loop $-1 $-1 $212 $129 #
plane-surface $-1 -44.533829767754128 0.34903320057018661 1.4513597070884003 -0.55919291073839883 0 0.82903756765294845 0.82903756765294845 0 0.55919291073839883 forward_v I I I I #
loop $-1 $-1 $335 $82 #
coedge $-1 $210 $210 $211 $336 reversed $130 $-1 #
coedge $-1 $211 $211 $210 $336 forward $132 $-1 #
coedge $-1 $212 $212 $133 $213 forward $207 $-1 #
edge $-1 $337 0 $337 6.2831853071796004 $212 $338 forward 7 unknown #
face $-1 $339 $340 $47 $-1 $341 reversed single #
loop $-1 $-1 $220 $134 #
plane-surface $-1 0 0 9.0868684912538118 0 0 1 1 0 0 forward_v I I I I #
coedge $-1 $342 $343 $344 $345 reversed $135 $-1 #
coedge $-1 $219 $137 $346 $347 reversed $86 $-1 #
coedge $-1 $137 $218 $342 $348 reversed $86 $-1 #
coedge $-1 $344 $349 $137 $221 forward $215 $-1 #
edge $-1 $350 2.6360870102817131 $351 13.956194094361997 $220 $352 forward 7 unknown #
loop $-1 $-1 $227 $138 #
plane-surface $-1 -44.533829767754128 18.591938450634995 1.4513597070884003 -0.55919291073839883 0 0.82903756765294845 0.82903756765294845 0 0.55919291073839883 forward_v I I I I #
loop $-1 $-1 $353 $88 #
coedge $-1 $225 $225 $226 $354 reversed $139 $-1 #
coedge $-1 $226 $226 $225 $354 forward $141 $-1 #
coedge $-1 $227 $227 $142 $228 forward $222 $-1 #
edge $-1 $355 0 $355 6.2831853071796004 $227 $356 forward 7 unknown #
loop $-1 $-1 $234 $143 #
plane-surface $-1 -44.533829767754128 18.591938450634995 1.4513597070884003 -0.55919291073839883 0 0.82903756765294845 0.82903756765294845 0 0.55919291073839883 forward_v I I I I #
loop $-1 $-1 $357 $91 #
coedge $-1 $232 $232 $233 $358 reversed $144 $-1 #
coedge $-1 $233 $233 $232 $358 forward $146 $-1 #
coedge $-1 $234 $234 $147 $235 forward $229 $-1 #
edge $-1 $359 0 $359 6.2831853071796004 $234 $360 forward 7 unknown #
face $-1 $361 $362 $50 $-1 $363 reversed single #
loop $-1 $-1 $364 $148 #
plane-surface $-1 20.499397738212991 -2.7835239858592278 125.0977993132647 0 1 0 0.55919291073839883 0 0.82903756765294845 forward_v I I I I #
coedge $-1 $365 $366 $367 $368 reversed $149 $-1 #
coedge $-1 $241 $151 $369 $370 reversed $95 $-1 #
coedge $-1 $151 $240 $365 $371 reversed $95 $-1 #
coedge $-1 $367 $372 $151 $243 forward $373 $-1 #
edge $-1 $374 -34.284130898647646 $375 -22.964023814567355 $242 $376 forward 7 unknown #
loop $-1 $-1 $249 $152 #
plane-surface $-1 -29.306606050104591 0.34903320057018661 51.257363495405968 0.55919291073839883 0 0.82903756765294845 0.82903756765294845 0 -0.55919291073839883 forward_v I I I I #
loop $-1 $-1 $377 $97 #
coedge $-1 $247 $247 $248 $378 reversed $153 $-1 #
coedge $-1 $248 $248 $247 $378 forward $155 $-1 #
coedge $-1 $249 $249 $156 $250 forward $244 $-1 #
edge $-1 $379 0 $379 6.2831853071796004 $249 $380 forward 7 unknown #
loop $-1 $-1 $256 $157 #
plane-surface $-1 -29.306606050104591 0.34903320057018661 51.257363495405968 0.55919291073839883 0 0.82903756765294845 0.82903756765294845 0 -0.55919291073839883 forward_v I I I I #
loop $-1 $-1 $381 $100 #
coedge $-1 $254 $254 $255 $382 reversed $158 $-1 #
coedge $-1 $255 $255 $254 $382 forward $160 $-1 #
coedge $-1 $256 $256 $161 $257 forward $251 $-1 #
edge $-1 $383 0 $383 6.2831853071796004 $256 $384 forward 7 unknown #
face $-1 $385 $386 $53 $-1 $387 forward single #
loop $-1 $-1 $388 $162 #
plane-surface $-1 44.533829767754142 0 0 -1 0 0 0 0 1 forward_v I I I I #
coedge $-1 $389 $390 $391 $392 reversed $163 $-1 #
coedge $-1 $393 $165 $394 $395 reversed $104 $-1 #
coedge $-1 $165 $393 $389 $396 forward $104 $-1 #
coedge $-1 $391 $397 $165 $265 forward $386 $-1 #
edge $-1 $398 -12.42852641174691 $399 -6.1634120388880831 $264 $400 forward 7 unknown #
loop $-1 $-1 $271 $166 #
plane-surface $-1 -29.306606050104591 18.591938450634995 51.257363495405968 0.55919291073839883 0 0.82903756765294845 0.82903756765294845 0 -0.55919291073839883 forward_v I I I I #
loop $-1 $-1 $401 $106 #
coedge $-1 $269 $269 $270 $402 reversed $167 $-1 #
coedge $-1 $270 $270 $269 $402 forward $169 $-1 #
coedge $-1 $271 $271 $170 $272 forward $266 $-1 #
edge $-1 $403 0 $403 6.2831853071796004 $271 $404 forward 7 unknown #
loop $-1 $-1 $278 $171 #
plane-surface $-1 -29.306606050104591 18.591938450634995 51.257363495405968 0.55919291073839883 0 0.82903756765294845 0.82903756765294845 0 -0.55919291073839883 forward_v I I I I #
loop $-1 $-1 $405 $109 #
coedge $-1 $276 $276 $277 $406 reversed $172 $-1 #
coedge $-1 $277 $277 $276 $406 forward $174 $-1 #
coedge $-1 $278 $278 $175 $279 forward $273 $-1 #
edge $-1 $407 0 $407 6.2831853071796004 $278 $408 forward 7 unknown #
face $-1 $409 $410 $42 $-1 $411 reversed single #
loop $-1 $-1 $412 $176 #
plane-surface $-1 -44.533829767754142 0 0 1 0 0 0 0 -1 forward_v I I I I #
coedge $-1 $413 $291 $414 $415 forward $177 $-1 #
coedge $-1 $416 $179 $413 $417 forward $113 $-1 #
coedge $-1 $179 $416 $418 $419 forward $113 $-1 #
coedge $-1 $294 $293 $179 $287 reversed $295 $-1 #
edge $-1 $420 -21.724495637064404 $421 21.724495637064404 $286 $422 forward 7 unknown #
coedge $-1 $181 $180 $423 $424 forward $71 $-1 #
coedge $-1 $425 $426 $180 $290 reversed $410 $-1 #
edge $-1 $297 -44.533829767754142 $427 44.533829767754142 $289 $428 forward 7 unknown #
coedge $-1 $283 $429 $181 $292 reversed $177 $-1 #
edge $-1 $430 -44.533829767754142 $296 44.533829767754142 $291 $431 forward 7 unknown #
coedge $-1 $286 $182 $429 $432 forward $295 $-1 #
coedge $-1 $182 $286 $425 $433 reversed $295 $-1 #
loop $-1 $-1 $293 $409 #
vertex $-1 $183 $434 #
vertex $-1 $183 $435 #
straight-curve $-1 44.533829767754142 0 9.0868684912538118 0 1 0 I I #
face $-1 $436 $437 $43 $-1 $438 forward single #
loop $-1 $-1 $308 $184 #
plane-surface $-1 0 -21.724495637064404 0 0 1 0 0 0 1 forward_v I I I I #
coedge $-1 $439 $440 $441 $442 forward $185 $-1 #
coedge $-1 $441 $187 $189 $310 reversed $117 $-1 #
coedge $-1 $187 $441 $443 $444 reversed $117 $-1 #
coedge $-1 $445 $190 $187 $306 forward $312 $-1 #
edge $-1 $314 2.1744063481443954 $446 5.3331102114544082 $305 $447 forward 7 unknown #
coedge $-1 $189 $188 $439 $448 reversed $74 $-1 #
coedge $-1 $449 $450 $188 $309 forward $300 $-1 #
edge $-1 $451 -44.533829767754142 $313 44.533829767754142 $308 $452 forward 7 unknown #
edge $-1 $453 -44.533829767754142 $314 44.533829767754142 $303 $454 forward 7 unknown #
coedge $-1 $190 $445 $449 $455 forward $312 $-1 #
loop $-1 $-1 $305 $436 #
vertex $-1 $309 $456 #
vertex $-1 $191 $457 #
straight-curve $-1 44.533829767754142 -9.1214526250324042 5.9281646279437972 0 1 0 I I #
face $-1 $-1 $458 $44 $-1 $459 reversed single #
loop $-1 $-1 $198 $192 #
plane-surface $-1 0 0 9.0868684912538118 0 0 1 1 0 0 forward_v I I I I #
coedge $-1 $460 $461 $462 $463 reversed $193 $-1 #
coedge $-1 $464 $195 $197 $326 forward $121 $-1 #
coedge $-1 $195 $464 $460 $465 forward $121 $-1 #
coedge $-1 $462 $198 $195 $323 forward $317 $-1 #
edge $-1 $329 -2.9580405861443211 $466 3.3070737867145077 $322 $467 forward 7 unknown #
coedge $-1 $468 $469 $196 $325 forward $458 $-1 #
edge $-1 $470 -36.194538055385173 $328 -28.559029271219757 $324 $471 forward 7 unknown #
edge $-1 $329 -13.654516424542887 $470 1.7120460491857305e-014 $197 $472 forward 7 unknown #
coedge $-1 $198 $462 $468 $473 forward $317 $-1 #
vertex $-1 $325 $474 #
vertex $-1 $199 $475 #
straight-curve $-1 -47.169916778035855 -2.7835239858592278 9.08686849125381 1 0 0 I I #
coedge $-1 $331 $331 $-1 $476 reversed $202 $-1 #
edge $-1 $477 0 $477 6.2831853071796004 $203 $478 forward 7 unknown #
vertex $-1 $206 $479 #
ellipse-curve $-1 -38.87377622571401 -0.99349130789956419 5.2691140991710972 -0.55919291073839883 0 0.82903756765294845 0.41451878382647422 0 0.27959645536919941 1 I I #
coedge $-1 $335 $335 $-1 $480 reversed $209 $-1 #
edge $-1 $481 0 $481 6.2831853071796004 $210 $482 forward 7 unknown #
vertex $-1 $213 $483 #
ellipse-curve $-1 -38.87377622571401 1.6915577090399339 5.2691140991710972 -0.55919291073839883 0 0.82903756765294845 0.41451878382647422 0 0.27959645536919941 1 I I #
face $-1 $-1 $484 $47 $-1 $485 reversed single #
loop $-1 $-1 $486 $214 #
plane-surface $-1 0 21.724495637064404 0 0 -1 0 0 0 -1 forward_v I I I I #
coedge $-1 $487 $217 $219 $348 forward $135 $-1 #
coedge $-1 $217 $487 $486 $488 reversed $135 $-1 #
coedge $-1 $489 $220 $217 $345 forward $215 $-1 #
edge $-1 $351 6.1634120388880831 $490 12.42852641174691 $344 $491 forward 7 unknown #
coedge $-1 $492 $493 $218 $347 forward $484 $-1 #
edge $-1 $494 -36.194538055385173 $350 -28.559029271219757 $346 $495 forward 7 unknown #
edge $-1 $351 -13.654516424542887 $494 1.7120460491857305e-014 $219 $496 forward 7 unknown #
coedge $-1 $220 $489 $492 $497 forward $215 $-1 #
vertex $-1 $347 $498 #
vertex $-1 $221 $499 #
straight-curve $-1 -47.169916778035855 15.459381264205581 9.08686849125381 1 0 0 I I #
coedge $-1 $353 $353 $-1 $500 reversed $224 $-1 #
edge $-1 $501 0 $501 6.2831853071796004 $225 $502 forward 7 unknown #
vertex $-1 $228 $503 #
ellipse-curve $-1 -38.87377622571401 17.249413942165244 5.2691140991710972 -0.55919291073839883 0 0.82903756765294845 0.41451878382647422 0 0.27959645536919941 1 I I #
coedge $-1 $357 $357 $-1 $504 reversed $231 $-1 #
edge $-1 $505 0 $505 6.2831853071796004 $232 $506 forward 7 unknown #
vertex $-1 $235 $507 #
ellipse-curve $-1 -38.87377622571401 19.934462959104739 5.2691140991710972 -0.55919291073839883 0 0.82903756765294845 0.41451878382647422 0 0.27959645536919941 1 I I #
face $-1 $-1 $373 $50 $-1 $508 forward single #
loop $-1 $-1 $509 $236 #
plane-surface $-1 44.533829767754142 0 0 -1 0 0 0 0 1 forward_v I I I I #
coedge $-1 $510 $511 $512 $513 reversed $237 $-1 #
coedge $-1 $514 $239 $241 $371 forward $149 $-1 #
coedge $-1 $239 $514 $510 $515 forward $149 $-1 #
coedge $-1 $512 $242 $239 $368 forward $373 $-1 #
edge $-1 $375 -3.3070737867145077 $516 2.9580405861443211 $367 $517 forward 7 unknown #
coedge $-1 $518 $519 $240 $370 forward $362 $-1 #
edge $-1 $520 -61.097539949543965 $374 -53.462031165378541 $369 $521 forward 7 unknown #
edge $-1 $375 75.413143110965379 $520 89.067659535508284 $241 $522 forward 7 unknown #
coedge $-1 $242 $512 $518 $523 forward $373 $-1 #
loop $-1 $-1 $512 $361 #
vertex $-1 $370 $524 #
vertex $-1 $243 $525 #
straight-curve $-1 10.249698869106496 3.481590386999601 9.08686849125381 -1 0 0 I I #
coedge $-1 $377 $377 $-1 $526 reversed $246 $-1 #
edge $-1 $527 0 $527 6.2831853071796004 $247 $528 forward 7 unknown #
vertex $-1 $250 $529 #
ellipse-curve $-1 38.873776225714003 -0.99349130789956419 5.2691140991710856 0.55919291073839883 0 0.82903756765294845 0.41451878382647422 0 -0.27959645536919941 1 I I #
coedge $-1 $381 $381 $-1 $530 reversed $253 $-1 #
edge $-1 $531 0 $531 6.2831853071796004 $254 $532 forward 7 unknown #
vertex $-1 $257 $533 #
ellipse-curve $-1 38.873776225714003 1.6915577090399339 5.2691140991710856 0.55919291073839883 0 0.82903756765294845 0.41451878382647422 0 -0.27959645536919941 1 I I #
face $-1 $-1 $534 $53 $-1 $535 reversed single #
loop $-1 $-1 $391 $258 #
plane-surface $-1 0 0 9.0868684912538118 0 0 1 1 0 0 forward_v I I I I #
coedge $-1 $536 $537 $390 $538 forward $259 $-1 #
coedge $-1 $390 $261 $263 $396 reversed $163 $-1 #
coedge $-1 $261 $389 $388 $538 reversed $163 $-1 #
coedge $-1 $539 $264 $261 $392 forward $386 $-1 #
edge $-1 $399 22.964023814567355 $540 34.284130898647646 $391 $541 forward 7 unknown #
coedge $-1 $263 $262 $536 $542 reversed $104 $-1 #
coedge $-1 $543 $544 $262 $395 forward $534 $-1 #
edge $-1 $545 -62.588143692651236 $398 -48.933627268108324 $394 $546 forward 7 unknown #
edge $-1 $547 -89.067659535508284 $399 -75.413143110965379 $389 $548 forward 7 unknown #
coedge $-1 $264 $539 $543 $549 forward $386 $-1 #
vertex $-1 $395 $550 #
vertex $-1 $265 $551 #
straight-curve $-1 33.213722683673858 9.2959692253174975 9.0868684912538065 0 -1 0 I I #
coedge $-1 $401 $401 $-1 $552 reversed $268 $-1 #
edge $-1 $553 0 $553 6.2831853071796004 $269 $554 forward 7 unknown #
vertex $-1 $272 $555 #
ellipse-curve $-1 38.873776225714003 17.249413942165244 5.2691140991710856 0.55919291073839883 0 0.82903756765294845 0.41451878382647422 0 -0.27959645536919941 1 I I #
coedge $-1 $405 $405 $-1 $556 reversed $275 $-1 #
edge $-1 $557 0 $557 6.2831853071796004 $276 $558 forward 7 unknown #
vertex $-1 $279 $559 #
ellipse-curve $-1 38.873776225714003 19.934462959104739 5.2691140991710856 0.55919291073839883 0 0.82903756765294845 0.41451878382647422 0 -0.27959645536919941 1 I I #
face $-1 $-1 $295 $42 $-1 $560 reversed single #
loop $-1 $-1 $425 $280 #
plane-surface $-1 0 21.724495637064404 0 0 -1 0 0 0 -1 forward_v I I I I #
coedge $-1 $561 $423 $426 $562 forward $281 $-1 #
coedge $-1 $429 $283 $284 $417 reversed $177 $-1 #
coedge $-1 $423 $561 $283 $415 reversed $281 $-1 #
edge $-1 $430 -9.0868684912538118 $563 9.0868684912538118 $414 $564 forward 7 unknown #
coedge $-1 $285 $284 $561 $565 forward $113 $-1 #
edge $-1 $421 -44.533829767754142 $563 44.533829767754142 $413 $566 forward 7 unknown #
coedge $-1 $426 $425 $285 $419 reversed $410 $-1 #
edge $-1 $567 -44.533829767754142 $420 44.533829767754142 $418 $568 forward 7 unknown #
vertex $-1 $287 $569 #
vertex $-1 $432 $570 #
straight-curve $-1 44.533829767754142 0 -9.0868684912538118 0 -1 0 I I #
coedge $-1 $412 $414 $288 $424 reversed $281 $-1 #
edge $-1 $427 -21.724495637064404 $430 21.724495637064404 $423 $571 forward 7 unknown #
coedge $-1 $418 $289 $294 $433 forward $410 $-1 #
coedge $-1 $289 $418 $412 $562 reversed $410 $-1 #
vertex $-1 $290 $572 #
straight-curve $-1 0 21.724495637064404 9.0868684912538118 -1 0 0 I I #
coedge $-1 $291 $413 $293 $432 reversed $177 $-1 #
vertex $-1 $424 $573 #
straight-curve $-1 0 -21.724495637064404 9.0868684912538118 1 0 0 I I #
edge $-1 $296 -9.0868684912538118 $421 9.0868684912538118 $293 $574 forward 7 unknown #
edge $-1 $297 -9.0868684912538118 $420 9.0868684912538118 $294 $575 forward 7 unknown #
point $-1 44.533829767754142 -21.724495637064404 9.0868684912538118 #
point $-1 44.533829767754142 21.724495637064404 9.0868684912538118 #
face $-1 $-1 $312 $43 $-1 $576 reversed single #
loop $-1 $-1 $443 $299 #
plane-surface $-1 0 0 9.0868684912538118 0 0 1 1 0 0 forward_v I I I I #
coedge $-1 $577 $302 $307 $448 forward $185 $-1 #
coedge $-1 $302 $577 $578 $579 reversed $185 $-1 #
coedge $-1 $304 $303 $302 $442 reversed $117 $-1 #
edge $-1 $580 -5.3331102114544082 $453 -2.1744063481443954 $302 $581 forward 7 unknown #
coedge $-1 $578 $582 $304 $444 forward $437 $-1 #
edge $-1 $446 -44.533829767754142 $580 44.533829767754142 $443 $583 forward 7 unknown #
coedge $-1 $311 $305 $582 $584 reversed $312 $-1 #
vertex $-1 $306 $585 #
straight-curve $-1 44.533829767754142 -14.761314863065211 3.7537582797994018 0 0 1 I I #
edge $-1 $453 5.6398622380328067 $451 12.603043012032003 $439 $586 forward 7 unknown #
coedge $-1 $587 $308 $311 $455 reversed $300 $-1 #
coedge $-1 $308 $587 $577 $588 forward $300 $-1 #
vertex $-1 $309 $589 #
straight-curve $-1 0 -21.724495637064404 5.9281646279437972 1 0 0 I I #
vertex $-1 $448 $590 #
straight-curve $-1 0 -14.761314863065211 5.9281646279437972 1 0 0 I I #
edge $-1 $591 -9.0868684912538118 $313 -5.9281646279437972 $311 $592 forward 7 unknown #
point $-1 44.533829767754142 -21.724495637064408 5.9281646279437972 #
point $-1 44.533829767754142 -14.761314863065211 5.9281646279437972 #
loop $-1 $-1 $324 $316 #
plane-surface $-1 -44.533829767754142 0 0 1 0 0 0 0 -1 forward_v I I I I #
coedge $-1 $461 $319 $321 $465 reversed $193 $-1 #
coedge $-1 $319 $460 $593 $594 reversed $193 $-1 #
coedge $-1 $327 $322 $319 $463 forward $317 $-1 #
edge $-1 $466 -13.956194094361997 $595 -2.6360870102817131 $462 $596 forward 7 unknown #
coedge $-1 $321 $320 $469 $597 reversed $121 $-1 #
edge $-1 $598 -1.7120460491857305e-014 $466 13.654516424542887 $460 $599 forward 7 unknown #
vertex $-1 $323 $600 #
straight-curve $-1 -33.213722683673858 0.1745166002850933 9.0868684912538118 0 1 0 I I #
coedge $-1 $593 $324 $327 $473 reversed $458 $-1 #
coedge $-1 $324 $593 $464 $597 forward $458 $-1 #
vertex $-1 $325 $601 #
straight-curve $-1 -44.533829767754142 -2.7835239858592278 37.645897762473567 0 0 1 I I #
straight-curve $-1 -44.533829767754128 -2.7835239858592278 1.4513597070884003 -0.82903756765294845 0 -0.55919291073839883 I I #
edge $-1 $595 -3.481590386999601 $328 2.7835239858592278 $468 $602 forward 7 unknown #
point $-1 -44.533829767754142 -2.7835239858592278 9.0868684912538118 #
point $-1 -33.213722683673858 -2.7835239858592278 9.0868684912538118 #
edge $-1 $603 1 $603 0 $331 $-1 forward 7 unknown #
vertex $-1 $332 $604 #
ellipse-curve $-1 -38.078751934821987 -0.99349130789956419 4.0904421387633763 -0.55919291073839883 0 0.82903756765294845 0.41451878382647422 0 0.27959645536919941 1 I I #
point $-1 -38.459257441887537 -0.99349130789956419 5.5487105545403104 #
edge $-1 $605 1 $605 0 $335 $-1 forward 7 unknown #
vertex $-1 $336 $606 #
ellipse-curve $-1 -38.078751934821987 1.6915577090399339 4.0904421387633763 -0.55919291073839883 0 0.82903756765294845 0.41451878382647422 0 0.27959645536919941 1 I I #
point $-1 -38.459257441887537 1.6915577090399339 5.5487105545403104 #
loop $-1 $-1 $346 $339 #
plane-surface $-1 -44.533829767754142 0 0 1 0 0 0 0 -1 forward_v I I I I #
coedge $-1 $607 $608 $343 $488 forward $340 $-1 #
coedge $-1 $343 $342 $493 $609 reversed $135 $-1 #
edge $-1 $490 4.3997975003541931 $610 18.054313924897095 $486 $611 forward 7 unknown #
coedge $-1 $349 $344 $608 $612 forward $215 $-1 #
vertex $-1 $612 $613 #
straight-curve $-1 -33.213722683673858 9.2959692253174975 9.0868684912538118 0 1 0 I I #
coedge $-1 $614 $346 $349 $497 reversed $484 $-1 #
coedge $-1 $346 $614 $487 $609 forward $484 $-1 #
vertex $-1 $347 $615 #
straight-curve $-1 -44.533829767754142 15.459381264205581 37.645897762473567 0 0 1 I I #
straight-curve $-1 -44.533829767754128 15.459381264205581 1.4513597070884003 -0.82903756765294845 0 -0.55919291073839883 I I #
edge $-1 $616 -21.724495637064404 $350 -15.459381264205581 $492 $617 forward 7 unknown #
point $-1 -44.533829767754142 15.459381264205581 9.0868684912538118 #
point $-1 -33.213722683673858 15.459381264205581 9.0868684912538118 #
edge $-1 $618 1 $618 0 $353 $-1 forward 7 unknown #
vertex $-1 $354 $619 #
ellipse-curve $-1 -38.078751934821987 17.249413942165244 4.0904421387633763 -0.55919291073839883 0 0.82903756765294845 0.41451878382647422 0 0.27959645536919941 1 I I #
point $-1 -38.459257441887537 17.249413942165244 5.5487105545403104 #
edge $-1 $620 1 $620 0 $357 $-1 forward 7 unknown #
vertex $-1 $358 $621 #
ellipse-curve $-1 -38.078751934821987 19.934462959104739 4.0904421387633763 -0.55919291073839883 0 0.82903756765294845 0.41451878382647422 0 0.27959645536919941 1 I I #
point $-1 -38.459257441887537 19.934462959104739 5.5487105545403104 #
plane-surface $-1 0 0 9.0868684912538118 0 0 1 1 0 0 forward_v I I I I #
coedge $-1 $519 $518 $511 $622 forward $362 $-1 #
coedge $-1 $511 $364 $366 $515 reversed $237 $-1 #
coedge $-1 $364 $510 $509 $622 reversed $237 $-1 #
coedge $-1 $372 $367 $364 $513 forward $373 $-1 #
edge $-1 $516 22.964023814567355 $623 34.284130898647646 $512 $624 forward 7 unknown #
coedge $-1 $366 $365 $519 $625 reversed $149 $-1 #
edge $-1 $626 -89.067659535508284 $516 -75.413143110965379 $510 $627 forward 7 unknown #
vertex $-1 $368 $628 #
straight-curve $-1 33.213722683673858 0.1745166002850933 9.0868684912538065 0 -1 0 I I #
coedge $-1 $509 $369 $372 $523 reversed $362 $-1 #
coedge $-1 $369 $509 $514 $625 forward $362 $-1 #
vertex $-1 $370 $629 #
straight-curve $-1 44.533829767754142 3.481590386999601 62.548899656632351 0 0 1 I I #
straight-curve $-1 -29.306606050104591 3.481590386999601 51.257363495405968 0.82903756765294845 0 -0.55919291073839883 I I #
edge $-1 $623 -2.7835239858592278 $374 3.481590386999601 $518 $630 forward 7 unknown #
point $-1 44.533829767754142 3.481590386999601 9.0868684912538118 #
point $-1 33.213722683673851 3.481590386999601 9.08686849125381 #
edge $-1 $631 1 $631 0 $377 $-1 forward 7 unknown #
vertex $-1 $378 $632 #
ellipse-curve $-1 38.078751934821987 -0.99349130789956419 4.0904421387633745 0.55919291073839883 0 0.82903756765294845 0.41451878382647422 0 -0.27959645536919941 1 I I #
point $-1 39.288295009540491 -0.99349130789956419 4.9895176438019089 #
edge $-1 $633 1 $633 0 $381 $-1 forward 7 unknown #
vertex $-1 $382 $634 #
ellipse-curve $-1 38.078751934821987 1.6915577090399339 4.0904421387633745 0.55919291073839883 0 0.82903756765294845 0.41451878382647422 0 -0.27959645536919941 1 I I #
point $-1 39.288295009540491 1.6915577090399339 4.9895176438019089 #
loop $-1 $-1 $394 $385 #
plane-surface $-1 0 21.724495637064404 0 0 -1 0 0 0 -1 forward_v I I I I #
coedge $-1 $635 $388 $393 $542 forward $259 $-1 #
coedge $-1 $388 $635 $539 $636 reversed $259 $-1 #
edge $-1 $540 53.462031165378541 $547 61.097539949543965 $388 $637 forward 7 unknown #
coedge $-1 $397 $391 $537 $636 forward $386 $-1 #
vertex $-1 $636 $638 #
straight-curve $-1 10.249698869106496 15.459381264205581 9.08686849125381 1 0 0 I I #
edge $-1 $547 6.1634120388880831 $545 12.42852641174691 $536 $639 forward 7 unknown #
coedge $-1 $544 $394 $397 $549 reversed $534 $-1 #
coedge $-1 $394 $543 $635 $640 forward $534 $-1 #
vertex $-1 $395 $641 #
straight-curve $-1 -7.354092643114666 21.724495637064404 36.450205956295186 -0.82903756765294845 0 0.55919291073839883 I I #
vertex $-1 $542 $642 #
straight-curve $-1 -29.306606050104591 15.459381264205581 51.257363495405968 -0.82903756765294845 0 0.55919291073839883 I I #
edge $-1 $643 -44.533829767754142 $398 -33.213722683673851 $543 $644 forward 7 unknown #
point $-1 33.213722683673851 21.724495637064408 9.08686849125381 #
point $-1 33.213722683673851 15.459381264205581 9.08686849125381 #
edge $-1 $645 1 $645 0 $401 $-1 forward 7 unknown #
vertex $-1 $402 $646 #
ellipse-curve $-1 38.078751934821987 17.249413942165244 4.0904421387633745 0.55919291073839883 0 0.82903756765294845 0.41451878382647422 0 -0.27959645536919941 1 I I #
point $-1 39.288295009540491 17.249413942165244 4.9895176438019089 #
edge $-1 $647 1 $647 0 $405 $-1 forward 7 unknown #
vertex $-1 $406 $648 #
ellipse-curve $-1 38.078751934821987 19.934462959104739 4.0904421387633745 0.55919291073839883 0 0.82903756765294845 0.41451878382647422 0 -0.27959645536919941 1 I I #
point $-1 39.288295009540491 19.934462959104739 4.9895176438019089 #
plane-surface $-1 44.533829767754142 0 0 -1 0 0 0 0 1 forward_v I I I I #
coedge $-1 $414 $412 $416 $565 reversed $281 $-1 #
edge $-1 $427 -9.0868684912538118 $567 9.0868684912538118 $426 $649 forward 7 unknown #
vertex $-1 $565 $650 #
straight-curve $-1 -44.533829767754142 -21.724495637064404 0 0 0 -1 I I #
edge $-1 $563 -21.724495637064404 $567 21.724495637064404 $561 $651 forward 7 unknown #
straight-curve $-1 0 -21.724495637064404 -9.0868684912538118 -1 0 0 I I #
vertex $-1 $419 $652 #
straight-curve $-1 0 21.724495637064404 -9.0868684912538118 1 0 0 I I #
point $-1 44.533829767754142 21.724495637064404 -9.0868684912538118 #
point $-1 44.533829767754142 -21.724495637064404 -9.0868684912538118 #
straight-curve $-1 -44.533829767754142 0 9.0868684912538118 0 -1 0 I I #
point $-1 -44.533829767754142 21.724495637064404 9.0868684912538118 #
point $-1 -44.533829767754142 -21.724495637064404 9.0868684912538118 #
straight-curve $-1 44.533829767754142 -21.724495637064404 0 0 0 -1 I I #
straight-curve $-1 44.533829767754142 21.724495637064404 0 0 0 -1 I I #
plane-surface $-1 44.533829767754142 0 0 -1 0 0 0 0 1 forward_v I I I I #
coedge $-1 $440 $439 $450 $588 reversed $185 $-1 #
coedge $-1 $653 $443 $440 $579 forward $437 $-1 #
edge $-1 $580 14.761314863065211 $654 21.724495637064404 $440 $655 forward 7 unknown #
vertex $-1 $579 $656 #
straight-curve $-1 -44.533829767754142 -14.761314863065211 3.7537582797994018 0 0 -1 I I #
coedge $-1 $443 $653 $445 $584 forward $437 $-1 #
straight-curve $-1 0 -14.761314863065211 9.0868684912538118 -1 0 0 I I #
edge $-1 $591 -21.724495637064404 $446 -14.761314863065211 $445 $657 forward 7 unknown #
point $-1 44.533829767754142 -14.761314863065211 9.08686849125381 #
straight-curve $-1 -44.533829767754142 -9.1214526250324042 5.9281646279437972 0 -1 0 I I #
coedge $-1 $450 $449 $653 $658 reversed $300 $-1 #
edge $-1 $654 -9.0868684912538118 $451 -5.9281646279437972 $577 $659 forward 7 unknown #
point $-1 -44.533829767754142 -21.724495637064408 5.9281646279437972 #
point $-1 -44.533829767754142 -14.761314863065211 5.9281646279437972 #
vertex $-1 $584 $660 #
straight-curve $-1 44.533829767754142 -21.724495637064404 0 0 0 -1 I I #
coedge $-1 $469 $468 $461 $594 forward $458 $-1 #
edge $-1 $595 28.559029271219757 $598 36.194538055385173 $593 $661 forward 7 unknown #
vertex $-1 $473 $662 #
straight-curve $-1 -47.169916778035855 3.481590386999601 9.08686849125381 -1 0 0 I I #
edge $-1 $598 -3.3070737867145077 $470 2.9580405861443211 $469 $663 forward 7 unknown #
vertex $-1 $597 $664 #
straight-curve $-1 -44.533829767754128 3.481590386999601 1.4513597070884003 0.82903756765294845 0 0.55919291073839883 I I #
point $-1 -33.213722683673858 3.481590386999601 9.0868684912538118 #
point $-1 -44.533829767754142 -2.7835239858592278 1.4513597070883908 #
straight-curve $-1 -44.533829767754142 0 9.0868684912538118 0 -1 0 I I #
vertex $-1 $476 $665 #
point $-1 -37.664233150995514 -0.99349130789956419 4.3700385941325752 #
vertex $-1 $480 $666 #
point $-1 -37.664233150995514 1.6915577090399339 4.3700385941325752 #
coedge $-1 $608 $486 $614 $667 reversed $340 $-1 #
coedge $-1 $486 $607 $489 $612 reversed $340 $-1 #
edge $-1 $610 -12.42852641174691 $494 -6.1634120388880831 $493 $668 forward 7 unknown #
vertex $-1 $488 $669 #
straight-curve $-1 -29.566125265814694 21.724495637064404 11.547204062136403 -0.82903756765294845 0 -0.55919291073839883 I I #
edge $-1 $490 33.213722683673858 $616 44.533829767754142 $608 $670 forward 7 unknown #
point $-1 -33.213722683673858 21.724495637064408 9.0868684912538118 #
coedge $-1 $493 $492 $607 $667 forward $484 $-1 #
point $-1 -44.533829767754142 15.459381264205581 1.4513597070883908 #
vertex $-1 $612 $671 #
straight-curve $-1 -44.533829767754142 0 9.0868684912538118 0 -1 0 I I #
vertex $-1 $500 $672 #
point $-1 -37.664233150995514 17.249413942165244 4.3700385941325752 #
vertex $-1 $504 $673 #
point $-1 -37.664233150995514 19.934462959104739 4.3700385941325752 #
edge $-1 $623 53.462031165378541 $626 61.097539949543965 $509 $674 forward 7 unknown #
vertex $-1 $523 $675 #
straight-curve $-1 10.249698869106496 -2.7835239858592278 9.08686849125381 1 0 0 I I #
edge $-1 $626 -2.9580405861443211 $520 3.3070737867145077 $519 $676 forward 7 unknown #
vertex $-1 $625 $677 #
straight-curve $-1 -29.306606050104591 -2.7835239858592278 51.257363495405968 -0.82903756765294845 0 0.55919291073839883 I I #
point $-1 33.213722683673851 -2.7835239858592278 9.08686849125381 #
point $-1 44.533829767754142 3.481590386999601 1.4513597070883861 #
straight-curve $-1 44.533829767754142 0 9.0868684912538118 0 1 0 I I #
vertex $-1 $526 $678 #
point $-1 38.493270718648461 -0.99349130789956419 3.8108456833941746 #
vertex $-1 $530 $679 #
point $-1 38.493270718648461 1.6915577090399339 3.8108456833941746 #
coedge $-1 $537 $536 $544 $640 reversed $259 $-1 #
edge $-1 $540 15.459381264205581 $643 21.724495637064404 $537 $680 forward 7 unknown #
straight-curve $-1 44.533829767754142 15.459381264205581 62.548899656632351 0 0 -1 I I #
point $-1 44.533829767754142 15.459381264205581 9.0868684912538118 #
straight-curve $-1 44.533829767754142 9.2959692253174975 1.4513597070883861 0 1 0 I I #
edge $-1 $643 -9.0868684912538118 $545 -1.4513597070883861 $635 $681 forward 7 unknown #
point $-1 44.533829767754142 21.724495637064408 1.4513597070883861 #
point $-1 44.533829767754142 15.459381264205581 1.4513597070883861 #
vertex $-1 $636 $682 #
straight-curve $-1 0 21.724495637064404 9.0868684912538118 -1 0 0 I I #
vertex $-1 $552 $683 #
point $-1 38.493270718648461 17.249413942165244 3.8108456833941746 #
vertex $-1 $556 $684 #
point $-1 38.493270718648461 19.934462959104739 3.8108456833941746 #
straight-curve $-1 -44.533829767754142 21.724495637064404 0 0 0 -1 I I #
point $-1 -44.533829767754142 -21.724495637064404 -9.0868684912538118 #
straight-curve $-1 -44.533829767754142 0 -9.0868684912538118 0 1 0 I I #
point $-1 -44.533829767754142 21.724495637064404 -9.0868684912538118 #
coedge $-1 $582 $578 $587 $658 forward $437 $-1 #
vertex $-1 $579 $685 #
straight-curve $-1 -44.533829767754142 0 9.0868684912538118 0 -1 0 I I #
point $-1 -44.533829767754142 -14.761314863065211 9.08686849125381 #
straight-curve $-1 44.533829767754142 0 9.0868684912538118 0 1 0 I I #
edge $-1 $654 -44.533829767754142 $591 44.533829767754142 $587 $686 forward 7 unknown #
straight-curve $-1 -44.533829767754142 -21.724495637064404 0 0 0 -1 I I #
point $-1 44.533829767754142 -21.724495637064404 9.0868684912538118 #
straight-curve $-1 -44.533829767754142 3.481590386999601 37.645897762473567 0 0 -1 I I #
point $-1 -44.533829767754142 3.481590386999601 9.0868684912538118 #
straight-curve $-1 -44.533829767754142 0.1745166002850933 1.4513597070883906 0 -1 0 I I #
point $-1 -44.533829767754142 3.481590386999601 1.4513597070883908 #
point $-1 -37.799155479452786 -0.99349130789956419 3.6759233549369017 #
point $-1 -37.799155479452786 1.6915577090399339 3.6759233549369017 #
edge $-1 $616 -9.0868684912538118 $610 -1.4513597070883908 $607 $687 forward 7 unknown #
straight-curve $-1 -44.533829767754142 9.2959692253174975 1.4513597070883906 0 -1 0 I I #
point $-1 -44.533829767754142 21.724495637064408 1.4513597070883908 #
straight-curve $-1 0 21.724495637064404 9.0868684912538118 -1 0 0 I I #
point $-1 -44.533829767754142 21.724495637064404 9.0868684912538118 #
point $-1 -37.799155479452786 17.249413942165244 3.6759233549369017 #
point $-1 -37.799155479452786 19.934462959104739 3.6759233549369017 #
straight-curve $-1 44.533829767754142 -2.7835239858592278 62.548899656632351 0 0 -1 I I #
point $-1 44.533829767754142 -2.7835239858592278 9.0868684912538118 #
straight-curve $-1 44.533829767754142 0.1745166002850933 1.4513597070883861 0 1 0 I I #
point $-1 44.533829767754142 -2.7835239858592278 1.4513597070883861 #
point $-1 37.799155479452786 -0.99349130789956419 3.6759233549368999 #
point $-1 37.799155479452786 1.6915577090399339 3.6759233549368999 #
straight-curve $-1 44.533829767754142 0 9.0868684912538118 0 1 0 I I #
straight-curve $-1 44.533829767754142 21.724495637064404 0 0 0 -1 I I #
point $-1 44.533829767754142 21.724495637064404 9.0868684912538118 #
point $-1 37.799155479452786 17.249413942165244 3.6759233549368999 #
point $-1 37.799155479452786 19.934462959104739 3.6759233549368999 #
point $-1 -44.533829767754142 -21.724495637064404 9.0868684912538118 #
straight-curve $-1 0 -21.724495637064404 9.0868684912538118 1 0 0 I I #
straight-curve $-1 -44.533829767754142 21.724495637064404 0 0 0 -1 I I #
End-of-ACIS-data 