500 0 10 0           
7 Unknown 11 ACIS 5.0 NT 24 Fri Mar 26 20:34:54 1999 
-1 9.9999999999999995e-007 1e-010 
body $-1 $10 $-1 $11 #
body $-1 $12 $-1 $13 #
body $-1 $14 $-1 $15 #
body $-1 $16 $-1 $17 #
body $-1 $18 $-1 $19 #
body $-1 $20 $-1 $21 #
body $-1 $22 $-1 $23 #
body $-1 $24 $-1 $25 #
body $-1 $26 $-1 $27 #
body $-1 $28 $-1 $29 #
lump $-1 $-1 $30 $0 #
transform $-1 1 0 0 0 1 0 0 0 1 44.434949797051914 18.752397725717124 4.2073428254083245 1 rotate no_reflect no_shear #
lump $-1 $-1 $31 $1 #
transform $-1 1 0 0 0 1 0 0 0 1 44.434949797051914 18.752397725717124 4.2073428254083245 1 rotate no_reflect no_shear #
lump $-1 $-1 $32 $2 #
transform $-1 1 0 0 0 1 0 0 0 1 44.434949797051914 18.752397725717124 4.2073428254083245 1 rotate no_reflect no_shear #
lump $-1 $-1 $33 $3 #
transform $-1 1 0 0 0 1 0 0 0 1 44.434949797051914 18.752397725717124 4.2073428254083245 1 rotate no_reflect no_shear #
lump $-1 $-1 $34 $4 #
transform $-1 1 0 0 0 1 0 0 0 1 44.434949797051914 18.752397725717124 4.2073428254083245 1 rotate no_reflect no_shear #
lump $-1 $-1 $35 $5 #
transform $-1 1 0 0 0 1 0 0 0 1 44.434949797051914 18.752397725717124 4.2073428254083245 1 rotate no_reflect no_shear #
lump $-1 $-1 $36 $6 #
transform $-1 1 0 0 0 1 0 0 0 1 44.434949797051914 18.752397725717124 4.2073428254083245 1 rotate no_reflect no_shear #
lump $-1 $-1 $37 $7 #
transform $-1 1 0 0 0 1 0 0 0 1 44.434949797051914 18.752397725717124 4.2073428254083245 1 rotate no_reflect no_shear #
lump $-1 $-1 $38 $8 #
transform $-1 1 0 0 0 1 0 0 0 1 44.434949797051914 18.752397725717124 4.2073428254083245 1 rotate no_reflect no_shear #
lump $-1 $-1 $39 $9 #
transform $-1 1 0 0 0 1 0 0 0 1 44.434949797051914 18.752397725717124 4.2073428254083245 1 rotate no_reflect no_shear #
shell $-1 $-1 $-1 $40 $-1 $10 #
shell $-1 $-1 $-1 $41 $-1 $12 #
shell $-1 $-1 $-1 $42 $-1 $14 #
shell $-1 $-1 $-1 $43 $-1 $16 #
shell $-1 $-1 $-1 $44 $-1 $18 #
shell $-1 $-1 $-1 $45 $-1 $20 #
shell $-1 $-1 $-1 $46 $-1 $22 #
shell $-1 $-1 $-1 $47 $-1 $24 #
shell $-1 $-1 $-1 $48 $-1 $26 #
shell $-1 $-1 $-1 $49 $-1 $28 #
face $-1 $50 $51 $30 $-1 $52 forward single #
face $-1 $53 $54 $31 $-1 $55 reversed single #
face $-1 $56 $57 $32 $-1 $58 reversed single #
face $-1 $59 $60 $33 $-1 $61 forward single #
face $-1 $62 $63 $34 $-1 $64 reversed single #
face $-1 $65 $66 $35 $-1 $67 forward single #
face $-1 $68 $69 $36 $-1 $70 reversed single #
face $-1 $71 $72 $37 $-1 $73 forward single #
face $-1 $74 $75 $38 $-1 $76 reversed single #
face $-1 $77 $78 $39 $-1 $79 forward single #
face $-1 $80 $81 $30 $-1 $82 reversed single #
loop $-1 $-1 $83 $40 #
plane-surface $-1 0 0 4.2073428254083245 0 0 1 1 0 0 forward_v I I I I #
face $-1 $84 $85 $31 $-1 $86 reversed single #
loop $-1 $-1 $87 $41 #
plane-surface $-1 0 -16.778808924878341 1.2073428254083245 0 0 1 1 0 0 forward_v I I I I #
face $-1 $88 $89 $32 $-1 $90 reversed single #
loop $-1 $-1 $91 $42 #
plane-surface $-1 -39.749845627478763 50.346473844795774 91.971354430336746 1 0 0 0 -0.66913061440640931 -0.74314481823134659 forward_v I I I I #
face $-1 $92 $93 $33 $-1 $94 forward single #
loop $-1 $95 $96 $43 #
cone-surface $-1 -32.629330367594875 16.448337427610266 2.0423653291488737 0 -0.66913061440640931 -0.74314481823134659 1 0 0 1 I I 0 1 1 forward I I I I #
face $-1 $97 $98 $34 $-1 $99 reversed single #
loop $-1 $-1 $100 $44 #
plane-surface $-1 -17.996958715748843 50.346473844795774 91.971354430336746 1 0 0 0 -0.66913061440640931 -0.74314481823134659 forward_v I I I I #
face $-1 $101 $102 $35 $-1 $103 forward single #
loop $-1 $104 $105 $45 #
cone-surface $-1 -10.876443455864958 16.448337427610266 2.0423653291488737 0 -0.66913061440640931 -0.74314481823134659 1 0 0 1 I I 0 1 1 forward I I I I #
face $-1 $106 $107 $36 $-1 $108 reversed single #
loop $-1 $-1 $109 $46 #
plane-surface $-1 3.7559281959810731 50.346473844795774 91.971354430336746 1 0 0 0 -0.66913061440640931 -0.74314481823134659 forward_v I I I I #
face $-1 $110 $111 $37 $-1 $112 forward single #
loop $-1 $113 $114 $47 #
cone-surface $-1 10.876443455864958 16.448337427610266 2.0423653291488737 0 -0.66913061440640931 -0.74314481823134659 1 0 0 1 I I 0 1 1 forward I I I I #
face $-1 $115 $116 $38 $-1 $117 reversed single #
loop $-1 $-1 $118 $48 #
plane-surface $-1 25.508815107710991 50.346473844795774 91.971354430336746 1 0 0 0 -0.66913061440640931 -0.74314481823134659 forward_v I I I I #
face $-1 $119 $120 $39 $-1 $121 forward single #
loop $-1 $122 $123 $49 #
cone-surface $-1 32.629330367594875 16.448337427610266 2.0423653291488737 0 -0.66913061440640931 -0.74314481823134659 1 0 0 1 I I 0 1 1 forward I I I I #
face $-1 $124 $125 $30 $-1 $126 reversed single #
loop $-1 $-1 $127 $50 #
plane-surface $-1 0 0 -4.2073428254083245 0 0 1 1 0 0 forward_v I I I I #
coedge $-1 $128 $129 $130 $131 forward $51 $-1 #
face $-1 $132 $133 $31 $-1 $134 reversed single #
loop $-1 $-1 $135 $53 #
plane-surface $-1 0 -14.805220124039559 2.7073428254083245 0 -1 0 0 0 -1 forward_v I I I I #
coedge $-1 $136 $137 $138 $139 reversed $54 $-1 #
face $-1 $140 $141 $32 $-1 $142 reversed single #
loop $-1 $-1 $143 $56 #
plane-surface $-1 -32.629330367594875 -9.1190966728428222 25.928149050238432 0 0.66913061440640931 0.74314481823134659 1 0 0 forward_v I I I I #
coedge $-1 $144 $145 $146 $147 reversed $57 $-1 #
face $-1 $-1 $148 $33 $-1 $149 forward single #
loop $-1 $150 $151 $59 #
cone-surface $-1 -32.629330367594875 15.683759671514487 1.1932157231611464 0 -0.66913061440640931 -0.74314481823134659 0.5 0 0 1 I I -0.70710678118654746 0.70710678118654746 0.5 forward I I I I #
loop $-1 $-1 $152 $43 #
coedge $-1 $96 $96 $153 $154 reversed $60 $-1 #
face $-1 $155 $156 $34 $-1 $157 reversed single #
loop $-1 $-1 $158 $62 #
plane-surface $-1 -10.876443455864958 -9.1190966728428222 25.928149050238432 0 0.66913061440640931 0.74314481823134659 1 0 0 forward_v I I I I #
coedge $-1 $159 $160 $161 $162 reversed $63 $-1 #
face $-1 $-1 $163 $35 $-1 $164 forward single #
loop $-1 $165 $166 $65 #
cone-surface $-1 -10.876443455864958 15.683759671514487 1.1932157231611464 0 -0.66913061440640931 -0.74314481823134659 0.5 0 0 1 I I -0.70710678118654746 0.70710678118654746 0.5 forward I I I I #
loop $-1 $-1 $167 $45 #
coedge $-1 $105 $105 $168 $169 reversed $66 $-1 #
face $-1 $170 $171 $36 $-1 $172 reversed single #
loop $-1 $-1 $173 $68 #
plane-surface $-1 10.876443455864958 -9.1190966728428222 25.928149050238432 0 0.66913061440640931 0.74314481823134659 1 0 0 forward_v I I I I #
coedge $-1 $174 $175 $176 $177 reversed $69 $-1 #
face $-1 $-1 $178 $37 $-1 $179 forward single #
loop $-1 $180 $181 $71 #
cone-surface $-1 10.876443455864958 15.683759671514487 1.1932157231611464 0 -0.66913061440640931 -0.74314481823134659 0.5 0 0 1 I I -0.70710678118654746 0.70710678118654746 0.5 forward I I I I #
loop $-1 $-1 $182 $47 #
coedge $-1 $114 $114 $183 $184 reversed $72 $-1 #
face $-1 $185 $186 $38 $-1 $187 reversed single #
loop $-1 $-1 $188 $74 #
plane-surface $-1 32.629330367594875 -9.1190966728428222 25.928149050238432 0 0.66913061440640931 0.74314481823134659 1 0 0 forward_v I I I I #
coedge $-1 $189 $190 $191 $192 reversed $75 $-1 #
face $-1 $-1 $193 $39 $-1 $194 forward single #
loop $-1 $195 $196 $77 #
cone-surface $-1 32.629330367594875 15.683759671514487 1.1932157231611464 0 -0.66913061440640931 -0.74314481823134659 0.5 0 0 1 I I -0.70710678118654746 0.70710678118654746 0.5 forward I I I I #
loop $-1 $-1 $197 $49 #
coedge $-1 $123 $123 $198 $199 reversed $78 $-1 #
face $-1 $200 $201 $30 $-1 $202 reversed single #
loop $-1 $-1 $203 $80 #
plane-surface $-1 0 -18.752397725717124 0 0 1 0 0 0 1 forward_v I I I I #
coedge $-1 $204 $205 $206 $207 forward $81 $-1 #
coedge $-1 $208 $83 $209 $210 forward $51 $-1 #
coedge $-1 $83 $208 $211 $212 forward $51 $-1 #
coedge $-1 $213 $214 $83 $131 reversed $215 $-1 #
edge $-1 $216 -18.752397725717124 $217 18.752397725717124 $130 $218 forward 7 unknown #
face $-1 $219 $220 $31 $-1 $221 reversed single #
loop $-1 $-1 $222 $84 #
plane-surface $-1 -44.434949797051914 0 0 1 0 0 0 0 -1 forward_v I I I I #
coedge $-1 $223 $224 $225 $226 reversed $85 $-1 #
coedge $-1 $227 $87 $228 $229 reversed $54 $-1 #
coedge $-1 $87 $227 $223 $230 forward $54 $-1 #
coedge $-1 $225 $231 $87 $139 forward $232 $-1 #
edge $-1 $233 -10.362993263277954 $234 -6.415815661600389 $138 $235 forward 7 unknown #
face $-1 $236 $237 $32 $-1 $238 forward single #
loop $-1 $-1 $239 $88 #
plane-surface $-1 -25.508815107710991 50.346473844795774 91.971354430336746 -1 0 0 0 0.66913061440640931 0.74314481823134659 forward_v I I I I #
coedge $-1 $240 $241 $242 $243 reversed $89 $-1 #
coedge $-1 $145 $91 $244 $245 reversed $57 $-1 #
coedge $-1 $91 $144 $240 $246 reversed $57 $-1 #
coedge $-1 $242 $247 $91 $147 forward $237 $-1 #
edge $-1 $248 6.4208391966807632 $249 10.168934895109352 $146 $250 forward 7 unknown #
loop $-1 $-1 $153 $92 #
plane-surface $-1 -32.629330367594875 -9.1190966728428222 25.928149050238432 0 0.66913061440640931 0.74314481823134659 1 0 0 forward_v I I I I #
loop $-1 $-1 $251 $59 #
coedge $-1 $151 $151 $152 $252 reversed $93 $-1 #
coedge $-1 $152 $152 $151 $252 forward $95 $-1 #
coedge $-1 $153 $153 $96 $154 forward $148 $-1 #
edge $-1 $253 -9.2566346899853389e-016 $253 6.2831853071795996 $153 $254 forward 7 unknown #
face $-1 $255 $256 $34 $-1 $257 forward single #
loop $-1 $-1 $258 $97 #
plane-surface $-1 -3.7559281959810731 50.346473844795774 91.971354430336746 -1 0 0 0 0.66913061440640931 0.74314481823134659 forward_v I I I I #
coedge $-1 $259 $260 $261 $262 reversed $98 $-1 #
coedge $-1 $160 $100 $263 $264 reversed $63 $-1 #
coedge $-1 $100 $159 $259 $265 reversed $63 $-1 #
coedge $-1 $261 $266 $100 $162 forward $256 $-1 #
edge $-1 $267 6.4208391966807632 $268 10.168934895109352 $161 $269 forward 7 unknown #
loop $-1 $-1 $168 $101 #
plane-surface $-1 -10.876443455864958 -9.1190966728428222 25.928149050238432 0 0.66913061440640931 0.74314481823134659 1 0 0 forward_v I I I I #
loop $-1 $-1 $270 $65 #
coedge $-1 $166 $166 $167 $271 reversed $102 $-1 #
coedge $-1 $167 $167 $166 $271 forward $104 $-1 #
coedge $-1 $168 $168 $105 $169 forward $163 $-1 #
edge $-1 $272 -9.2566346899853389e-016 $272 6.2831853071795996 $168 $273 forward 7 unknown #
face $-1 $274 $275 $36 $-1 $276 forward single #
loop $-1 $-1 $277 $106 #
plane-surface $-1 17.996958715748843 50.346473844795774 91.971354430336746 -1 0 0 0 0.66913061440640931 0.74314481823134659 forward_v I I I I #
coedge $-1 $278 $279 $280 $281 reversed $107 $-1 #
coedge $-1 $175 $109 $282 $283 reversed $69 $-1 #
coedge $-1 $109 $174 $278 $284 reversed $69 $-1 #
coedge $-1 $280 $285 $109 $177 forward $275 $-1 #
edge $-1 $286 6.4208391966807632 $287 10.168934895109352 $176 $288 forward 7 unknown #
loop $-1 $-1 $183 $110 #
plane-surface $-1 10.876443455864958 -9.1190966728428222 25.928149050238432 0 0.66913061440640931 0.74314481823134659 1 0 0 forward_v I I I I #
loop $-1 $-1 $289 $71 #
coedge $-1 $181 $181 $182 $290 reversed $111 $-1 #
coedge $-1 $182 $182 $181 $290 forward $113 $-1 #
coedge $-1 $183 $183 $114 $184 forward $178 $-1 #
edge $-1 $291 -9.2566346899853389e-016 $291 6.2831853071795996 $183 $292 forward 7 unknown #
face $-1 $293 $294 $38 $-1 $295 forward single #
loop $-1 $-1 $296 $115 #
plane-surface $-1 39.749845627478763 50.346473844795774 91.971354430336746 -1 0 0 0 0.66913061440640931 0.74314481823134659 forward_v I I I I #
coedge $-1 $297 $298 $299 $300 reversed $116 $-1 #
coedge $-1 $190 $118 $301 $302 reversed $75 $-1 #
coedge $-1 $118 $189 $297 $303 reversed $75 $-1 #
coedge $-1 $299 $304 $118 $192 forward $294 $-1 #
edge $-1 $305 6.4208391966807632 $306 10.168934895109352 $191 $307 forward 7 unknown #
loop $-1 $-1 $198 $119 #
plane-surface $-1 32.629330367594875 -9.1190966728428222 25.928149050238432 0 0.66913061440640931 0.74314481823134659 1 0 0 forward_v I I I I #
loop $-1 $-1 $308 $77 #
coedge $-1 $196 $196 $197 $309 reversed $120 $-1 #
coedge $-1 $197 $197 $196 $309 forward $122 $-1 #
coedge $-1 $198 $198 $123 $199 forward $193 $-1 #
edge $-1 $310 -9.2566346899853389e-016 $310 6.2831853071795996 $198 $311 forward 7 unknown #
face $-1 $312 $313 $30 $-1 $314 reversed single #
loop $-1 $-1 $315 $124 #
plane-surface $-1 -44.434949797051914 0 0 1 0 0 0 0 -1 forward_v I I I I #
coedge $-1 $316 $211 $317 $318 forward $125 $-1 #
coedge $-1 $319 $127 $316 $320 forward $81 $-1 #
coedge $-1 $127 $319 $321 $322 forward $81 $-1 #
coedge $-1 $214 $213 $127 $207 reversed $215 $-1 #
edge $-1 $323 -18.752397725717124 $324 18.752397725717124 $206 $325 forward 7 unknown #
coedge $-1 $129 $128 $326 $327 forward $51 $-1 #
coedge $-1 $328 $329 $128 $210 reversed $313 $-1 #
edge $-1 $217 -44.434949797051914 $330 44.434949797051914 $209 $331 forward 7 unknown #
coedge $-1 $203 $332 $129 $212 reversed $125 $-1 #
edge $-1 $333 -44.434949797051914 $216 44.434949797051914 $211 $334 forward 7 unknown #
coedge $-1 $206 $130 $332 $335 forward $215 $-1 #
coedge $-1 $130 $206 $328 $336 reversed $215 $-1 #
loop $-1 $-1 $213 $312 #
vertex $-1 $131 $337 #
vertex $-1 $131 $338 #
straight-curve $-1 44.434949797051914 0 4.2073428254083245 0 1 0 I I #
face $-1 $339 $340 $31 $-1 $341 forward single #
loop $-1 $-1 $228 $132 #
plane-surface $-1 0 -18.752397725717124 0 0 1 0 0 0 1 forward_v I I I I #
coedge $-1 $342 $343 $344 $345 forward $133 $-1 #
coedge $-1 $344 $135 $137 $230 reversed $85 $-1 #
coedge $-1 $135 $344 $346 $347 reversed $85 $-1 #
coedge $-1 $348 $138 $135 $226 forward $232 $-1 #
edge $-1 $234 -0.14632858729583775 $349 2.8536714127041622 $225 $350 forward 7 unknown #
coedge $-1 $137 $136 $342 $351 reversed $54 $-1 #
coedge $-1 $352 $353 $136 $229 forward $220 $-1 #
edge $-1 $354 -44.434949797051914 $233 44.434949797051914 $228 $355 forward 7 unknown #
edge $-1 $356 -44.434949797051914 $234 44.434949797051914 $223 $357 forward 7 unknown #
coedge $-1 $138 $348 $352 $358 forward $232 $-1 #
loop $-1 $-1 $225 $339 #
vertex $-1 $229 $359 #
vertex $-1 $139 $360 #
straight-curve $-1 44.434949797051914 -8.3894044624391704 1.2073428254083245 0 1 0 I I #
face $-1 $-1 $361 $32 $-1 $362 reversed single #
loop $-1 $-1 $146 $140 #
plane-surface $-1 0 0 4.2073428254083245 0 0 1 1 0 0 forward_v I I I I #
coedge $-1 $363 $364 $365 $366 reversed $141 $-1 #
coedge $-1 $367 $143 $145 $246 forward $89 $-1 #
coedge $-1 $143 $367 $363 $368 forward $89 $-1 #
coedge $-1 $365 $146 $143 $243 forward $237 $-1 #
edge $-1 $249 -23.435180443681325 $369 -9.1941499239135531 $242 $370 forward 7 unknown #
coedge $-1 $371 $372 $144 $245 forward $361 $-1 #
edge $-1 $373 -45.153134988534845 $248 -41.778334389760047 $244 $374 forward 7 unknown #
edge $-1 $249 32.461235156754547 $373 37.504795451434248 $145 $375 forward 7 unknown #
coedge $-1 $146 $365 $371 $376 forward $237 $-1 #
vertex $-1 $245 $377 #
vertex $-1 $147 $378 #
straight-curve $-1 -39.749845627478763 25.173236922397887 4.2073428254083254 0 -1 0 I I #
coedge $-1 $251 $251 $-1 $379 reversed $150 $-1 #
edge $-1 $380 0 $380 6.2831853071796004 $151 $381 forward 7 unknown #
vertex $-1 $154 $382 #
ellipse-curve $-1 -32.629330367594875 16.878349876502835 2.5199425260209218 0 0.66913061440640931 0.74314481823134659 1 0 0 1 I I #
face $-1 $-1 $383 $34 $-1 $384 reversed single #
loop $-1 $-1 $161 $155 #
plane-surface $-1 0 0 4.2073428254083245 0 0 1 1 0 0 forward_v I I I I #
coedge $-1 $385 $386 $387 $388 reversed $156 $-1 #
coedge $-1 $389 $158 $160 $265 forward $98 $-1 #
coedge $-1 $158 $389 $385 $390 forward $98 $-1 #
coedge $-1 $387 $161 $158 $262 forward $256 $-1 #
edge $-1 $268 -12.558736987816363 $391 1.6822935319514061 $261 $392 forward 7 unknown #
coedge $-1 $393 $394 $159 $264 forward $383 $-1 #
edge $-1 $395 -45.153134988534845 $267 -41.778334389760047 $263 $396 forward 7 unknown #
edge $-1 $268 32.461235156754547 $395 37.504795451434248 $160 $397 forward 7 unknown #
coedge $-1 $161 $387 $393 $398 forward $256 $-1 #
vertex $-1 $162 $399 #
vertex $-1 $162 $400 #
straight-curve $-1 -17.996958715748843 25.173236922397887 4.2073428254083254 0 -1 0 I I #
coedge $-1 $270 $270 $-1 $401 reversed $165 $-1 #
edge $-1 $402 0 $402 6.2831853071796004 $166 $403 forward 7 unknown #
vertex $-1 $169 $404 #
ellipse-curve $-1 -10.876443455864958 16.878349876502835 2.5199425260209218 0 0.66913061440640931 0.74314481823134659 1 0 0 1 I I #
face $-1 $-1 $405 $36 $-1 $406 reversed single #
loop $-1 $-1 $176 $170 #
plane-surface $-1 0 0 4.2073428254083245 0 0 1 1 0 0 forward_v I I I I #
coedge $-1 $407 $408 $409 $410 reversed $171 $-1 #
coedge $-1 $411 $173 $175 $284 forward $107 $-1 #
coedge $-1 $173 $411 $407 $412 forward $107 $-1 #
coedge $-1 $409 $176 $173 $281 forward $275 $-1 #
edge $-1 $287 -1.6822935319514061 $413 12.558736987816363 $280 $414 forward 7 unknown #
coedge $-1 $415 $416 $174 $283 forward $405 $-1 #
edge $-1 $417 -45.153134988534845 $286 -41.778334389760047 $282 $418 forward 7 unknown #
edge $-1 $287 32.461235156754547 $417 37.504795451434248 $175 $419 forward 7 unknown #
coedge $-1 $176 $409 $415 $420 forward $275 $-1 #
vertex $-1 $177 $421 #
vertex $-1 $177 $422 #
straight-curve $-1 3.7559281959810731 25.173236922397887 4.2073428254083254 0 -1 0 I I #
coedge $-1 $289 $289 $-1 $423 reversed $180 $-1 #
edge $-1 $424 0 $424 6.2831853071796004 $181 $425 forward 7 unknown #
vertex $-1 $184 $426 #
ellipse-curve $-1 10.876443455864958 16.878349876502835 2.5199425260209218 0 0.66913061440640931 0.74314481823134659 1 0 0 1 I I #
face $-1 $-1 $427 $38 $-1 $428 reversed single #
loop $-1 $-1 $191 $185 #
plane-surface $-1 0 0 4.2073428254083245 0 0 1 1 0 0 forward_v I I I I #
coedge $-1 $429 $430 $431 $432 reversed $186 $-1 #
coedge $-1 $433 $188 $190 $303 forward $116 $-1 #
coedge $-1 $188 $433 $429 $434 forward $116 $-1 #
coedge $-1 $431 $191 $188 $300 forward $294 $-1 #
edge $-1 $306 9.1941499239135531 $435 23.435180443681325 $299 $436 forward 7 unknown #
coedge $-1 $437 $438 $189 $302 forward $427 $-1 #
edge $-1 $439 -45.153134988534845 $305 -41.778334389760047 $301 $440 forward 7 unknown #
edge $-1 $306 32.461235156754547 $439 37.504795451434248 $190 $441 forward 7 unknown #
coedge $-1 $191 $431 $437 $442 forward $294 $-1 #
vertex $-1 $192 $443 #
vertex $-1 $192 $444 #
straight-curve $-1 25.508815107710991 25.173236922397887 4.2073428254083254 0 -1 0 I I #
coedge $-1 $308 $308 $-1 $445 reversed $195 $-1 #
edge $-1 $446 0 $446 6.2831853071796004 $196 $447 forward 7 unknown #
vertex $-1 $199 $448 #
ellipse-curve $-1 32.629330367594875 16.878349876502835 2.5199425260209218 0 0.66913061440640931 0.74314481823134659 1 0 0 1 I I #
face $-1 $-1 $215 $30 $-1 $449 reversed single #
loop $-1 $-1 $328 $200 #
plane-surface $-1 0 18.752397725717124 0 0 -1 0 0 0 -1 forward_v I I I I #
coedge $-1 $450 $326 $329 $451 forward $201 $-1 #
coedge $-1 $332 $203 $204 $320 reversed $125 $-1 #
coedge $-1 $326 $450 $203 $318 reversed $201 $-1 #
edge $-1 $333 -4.2073428254083245 $452 4.2073428254083245 $317 $453 forward 7 unknown #
coedge $-1 $205 $204 $450 $454 forward $81 $-1 #
edge $-1 $324 -44.434949797051914 $452 44.434949797051914 $316 $455 forward 7 unknown #
coedge $-1 $329 $328 $205 $322 reversed $313 $-1 #
edge $-1 $456 -44.434949797051914 $323 44.434949797051914 $321 $457 forward 7 unknown #
vertex $-1 $207 $458 #
vertex $-1 $335 $459 #
straight-curve $-1 44.434949797051914 0 -4.2073428254083245 0 -1 0 I I #
coedge $-1 $315 $317 $208 $327 reversed $201 $-1 #
edge $-1 $330 -18.752397725717124 $333 18.752397725717124 $326 $460 forward 7 unknown #
coedge $-1 $321 $209 $214 $336 forward $313 $-1 #
coedge $-1 $209 $321 $315 $451 reversed $313 $-1 #
vertex $-1 $210 $461 #
straight-curve $-1 0 18.752397725717124 4.2073428254083245 -1 0 0 I I #
coedge $-1 $211 $316 $213 $335 reversed $125 $-1 #
vertex $-1 $327 $462 #
straight-curve $-1 0 -18.752397725717124 4.2073428254083245 1 0 0 I I #
edge $-1 $216 -4.2073428254083245 $324 4.2073428254083245 $213 $463 forward 7 unknown #
edge $-1 $217 -4.2073428254083245 $323 4.2073428254083245 $214 $464 forward 7 unknown #
point $-1 44.434949797051914 -18.752397725717124 4.2073428254083245 #
point $-1 44.434949797051914 18.752397725717124 4.2073428254083245 #
face $-1 $-1 $232 $31 $-1 $465 reversed single #
loop $-1 $-1 $346 $219 #
plane-surface $-1 0 0 4.2073428254083245 0 0 1 1 0 0 forward_v I I I I #
coedge $-1 $466 $222 $227 $351 forward $133 $-1 #
coedge $-1 $222 $466 $467 $468 reversed $133 $-1 #
coedge $-1 $224 $223 $222 $345 reversed $85 $-1 #
edge $-1 $469 -2.8536714127041622 $356 0.14632858729583775 $222 $470 forward 7 unknown #
coedge $-1 $467 $471 $224 $347 forward $340 $-1 #
edge $-1 $349 -44.434949797051914 $469 44.434949797051914 $346 $472 forward 7 unknown #
coedge $-1 $231 $225 $471 $473 reversed $232 $-1 #
vertex $-1 $226 $474 #
straight-curve $-1 44.434949797051914 -14.805220124039559 1.3536714127041622 0 0 1 I I #
edge $-1 $356 6.415815661600389 $354 10.362993263277954 $342 $475 forward 7 unknown #
coedge $-1 $476 $228 $231 $358 reversed $220 $-1 #
coedge $-1 $228 $476 $466 $477 forward $220 $-1 #
vertex $-1 $229 $478 #
straight-curve $-1 0 -18.752397725717124 1.2073428254083245 1 0 0 I I #
vertex $-1 $351 $479 #
straight-curve $-1 0 -14.805220124039559 1.2073428254083245 1 0 0 I I #
edge $-1 $480 -4.2073428254083245 $233 -1.2073428254083245 $231 $481 forward 7 unknown #
point $-1 44.434949797051914 -18.752397725717124 1.2073428254083245 #
point $-1 44.434949797051914 -14.805220124039559 1.2073428254083245 #
loop $-1 $-1 $244 $236 #
plane-surface $-1 0 18.752397725717124 0 0 -1 0 0 0 -1 forward_v I I I I #
coedge $-1 $364 $239 $241 $368 reversed $141 $-1 #
coedge $-1 $239 $363 $482 $483 reversed $141 $-1 #
coedge $-1 $247 $242 $239 $366 forward $237 $-1 #
edge $-1 $369 -10.168934895109352 $484 -6.4208391966807632 $365 $485 forward 7 unknown #
coedge $-1 $241 $240 $372 $486 reversed $89 $-1 #
edge $-1 $487 -37.504795451434248 $369 -32.461235156754547 $363 $488 forward 7 unknown #
vertex $-1 $243 $489 #
straight-curve $-1 -16.314665183797437 15.00430202728854 4.2073428254083236 1 0 0 I I #
coedge $-1 $482 $244 $247 $376 reversed $361 $-1 #
coedge $-1 $244 $482 $367 $486 forward $361 $-1 #
vertex $-1 $245 $490 #
straight-curve $-1 -39.749845627478763 18.752397725717124 45.985677215168373 0 0 1 I I #
straight-curve $-1 -39.749845627478763 -9.1190966728428222 25.928149050238432 0 0.74314481823134659 -0.66913061440640931 I I #
edge $-1 $484 25.508815107710991 $248 39.749845627478763 $371 $491 forward 7 unknown #
point $-1 -39.749845627478763 18.752397725717124 4.2073428254083245 #
point $-1 -39.749845627478763 15.004302027288535 4.2073428254083254 #
edge $-1 $492 1 $492 0 $251 $-1 forward 7 unknown #
vertex $-1 $252 $493 #
ellipse-curve $-1 -32.629330367594875 16.018324978717693 1.5647881322768198 0 0.66913061440640931 0.74314481823134659 1 0 0 1 I I #
point $-1 -31.629330367594875 16.878349876502838 2.5199425260209272 #
loop $-1 $-1 $263 $255 #
plane-surface $-1 0 18.752397725717124 0 0 -1 0 0 0 -1 forward_v I I I I #
coedge $-1 $386 $258 $260 $390 reversed $156 $-1 #
coedge $-1 $258 $385 $494 $495 reversed $156 $-1 #
coedge $-1 $266 $261 $258 $388 forward $256 $-1 #
edge $-1 $391 -10.168934895109352 $496 -6.4208391966807632 $387 $497 forward 7 unknown #
coedge $-1 $260 $259 $394 $498 reversed $98 $-1 #
edge $-1 $499 -37.504795451434248 $391 -32.461235156754547 $385 $500 forward 7 unknown #
vertex $-1 $262 $501 #
straight-curve $-1 -5.4382217279324792 15.00430202728854 4.2073428254083236 1 0 0 I I #
coedge $-1 $494 $263 $266 $398 reversed $383 $-1 #
coedge $-1 $263 $494 $389 $498 forward $383 $-1 #
vertex $-1 $264 $502 #
straight-curve $-1 -17.996958715748843 18.752397725717124 45.985677215168373 0 0 1 I I #
straight-curve $-1 -17.996958715748843 -9.1190966728428222 25.928149050238432 0 0.74314481823134659 -0.66913061440640931 I I #
edge $-1 $496 3.7559281959810731 $267 17.996958715748843 $393 $503 forward 7 unknown #
point $-1 -17.996958715748843 18.752397725717124 4.2073428254083245 #
point $-1 -17.996958715748843 15.004302027288535 4.2073428254083254 #
edge $-1 $504 1 $504 0 $270 $-1 forward 7 unknown #
vertex $-1 $271 $505 #
ellipse-curve $-1 -10.876443455864958 16.018324978717693 1.5647881322768198 0 0.66913061440640931 0.74314481823134659 1 0 0 1 I I #
point $-1 -9.8764434558649583 16.878349876502838 2.5199425260209272 #
loop $-1 $-1 $282 $274 #
plane-surface $-1 0 18.752397725717124 0 0 -1 0 0 0 -1 forward_v I I I I #
coedge $-1 $408 $277 $279 $412 reversed $171 $-1 #
coedge $-1 $277 $407 $506 $507 reversed $171 $-1 #
coedge $-1 $285 $280 $277 $410 forward $275 $-1 #
edge $-1 $413 -10.168934895109352 $508 -6.4208391966807632 $409 $509 forward 7 unknown #
coedge $-1 $279 $278 $416 $510 reversed $107 $-1 #
edge $-1 $511 -37.504795451434248 $413 -32.461235156754547 $407 $512 forward 7 unknown #
vertex $-1 $281 $513 #
straight-curve $-1 5.4382217279324792 15.00430202728854 4.2073428254083236 1 0 0 I I #
coedge $-1 $506 $282 $285 $420 reversed $405 $-1 #
coedge $-1 $282 $506 $411 $510 forward $405 $-1 #
vertex $-1 $283 $514 #
straight-curve $-1 3.7559281959810731 18.752397725717124 45.985677215168373 0 0 1 I I #
straight-curve $-1 3.7559281959810731 -9.1190966728428222 25.928149050238432 0 0.74314481823134659 -0.66913061440640931 I I #
edge $-1 $508 -17.996958715748843 $286 -3.7559281959810731 $415 $515 forward 7 unknown #
point $-1 3.7559281959810731 18.752397725717124 4.2073428254083245 #
point $-1 3.7559281959810731 15.004302027288535 4.2073428254083254 #
edge $-1 $516 1 $516 0 $289 $-1 forward 7 unknown #
vertex $-1 $290 $517 #
ellipse-curve $-1 10.876443455864958 16.018324978717693 1.5647881322768198 0 0.66913061440640931 0.74314481823134659 1 0 0 1 I I #
point $-1 11.876443455864958 16.878349876502838 2.5199425260209272 #
loop $-1 $-1 $301 $293 #
plane-surface $-1 0 18.752397725717124 0 0 -1 0 0 0 -1 forward_v I I I I #
coedge $-1 $430 $296 $298 $434 reversed $186 $-1 #
coedge $-1 $296 $429 $518 $519 reversed $186 $-1 #
coedge $-1 $304 $299 $296 $432 forward $294 $-1 #
edge $-1 $435 -10.168934895109352 $520 -6.4208391966807632 $431 $521 forward 7 unknown #
coedge $-1 $298 $297 $438 $522 reversed $116 $-1 #
edge $-1 $523 -37.504795451434248 $435 -32.461235156754547 $429 $524 forward 7 unknown #
vertex $-1 $300 $525 #
straight-curve $-1 16.314665183797437 15.00430202728854 4.2073428254083236 1 0 0 I I #
coedge $-1 $518 $301 $304 $442 reversed $427 $-1 #
coedge $-1 $301 $518 $433 $522 forward $427 $-1 #
vertex $-1 $302 $526 #
straight-curve $-1 25.508815107710991 18.752397725717124 45.985677215168373 0 0 1 I I #
straight-curve $-1 25.508815107710991 -9.1190966728428222 25.928149050238432 0 0.74314481823134659 -0.66913061440640931 I I #
edge $-1 $520 -39.749845627478763 $305 -25.508815107710991 $437 $527 forward 7 unknown #
point $-1 25.508815107710991 18.752397725717124 4.2073428254083245 #
point $-1 25.508815107710991 15.004302027288535 4.2073428254083254 #
edge $-1 $528 1 $528 0 $308 $-1 forward 7 unknown #
vertex $-1 $309 $529 #
ellipse-curve $-1 32.629330367594875 16.018324978717693 1.5647881322768198 0 0.66913061440640931 0.74314481823134659 1 0 0 1 I I #
point $-1 33.629330367594875 16.878349876502838 2.5199425260209272 #
plane-surface $-1 44.434949797051914 0 0 -1 0 0 0 0 1 forward_v I I I I #
coedge $-1 $317 $315 $319 $454 reversed $201 $-1 #
edge $-1 $330 -4.2073428254083245 $456 4.2073428254083245 $329 $530 forward 7 unknown #
vertex $-1 $454 $531 #
straight-curve $-1 -44.434949797051914 -18.752397725717124 0 0 0 -1 I I #
edge $-1 $452 -18.752397725717124 $456 18.752397725717124 $450 $532 forward 7 unknown #
straight-curve $-1 0 -18.752397725717124 -4.2073428254083245 -1 0 0 I I #
vertex $-1 $322 $533 #
straight-curve $-1 0 18.752397725717124 -4.2073428254083245 1 0 0 I I #
point $-1 44.434949797051914 18.752397725717124 -4.2073428254083245 #
point $-1 44.434949797051914 -18.752397725717124 -4.2073428254083245 #
straight-curve $-1 -44.434949797051914 0 4.2073428254083245 0 -1 0 I I #
point $-1 -44.434949797051914 18.752397725717124 4.2073428254083245 #
point $-1 -44.434949797051914 -18.752397725717124 4.2073428254083245 #
straight-curve $-1 44.434949797051914 -18.752397725717124 0 0 0 -1 I I #
straight-curve $-1 44.434949797051914 18.752397725717124 0 0 0 -1 I I #
plane-surface $-1 44.434949797051914 0 0 -1 0 0 0 0 1 forward_v I I I I #
coedge $-1 $343 $342 $353 $477 reversed $133 $-1 #
coedge $-1 $534 $346 $343 $468 forward $340 $-1 #
edge $-1 $469 14.805220124039559 $535 18.752397725717124 $343 $536 forward 7 unknown #
vertex $-1 $468 $537 #
straight-curve $-1 -44.434949797051914 -14.805220124039559 1.3536714127041622 0 0 -1 I I #
coedge $-1 $346 $534 $348 $473 forward $340 $-1 #
straight-curve $-1 0 -14.805220124039559 4.2073428254083245 -1 0 0 I I #
edge $-1 $480 -18.752397725717124 $349 -14.805220124039559 $348 $538 forward 7 unknown #
point $-1 44.434949797051914 -14.805220124039559 4.2073428254083245 #
straight-curve $-1 -44.434949797051914 -8.3894044624391704 1.2073428254083245 0 -1 0 I I #
coedge $-1 $353 $352 $534 $539 reversed $220 $-1 #
edge $-1 $535 -4.2073428254083245 $354 -1.2073428254083245 $466 $540 forward 7 unknown #
point $-1 -44.434949797051914 -18.752397725717124 1.2073428254083245 #
point $-1 -44.434949797051914 -14.805220124039559 1.2073428254083245 #
vertex $-1 $473 $541 #
straight-curve $-1 44.434949797051914 -18.752397725717124 0 0 0 -1 I I #
coedge $-1 $372 $371 $364 $483 forward $361 $-1 #
edge $-1 $484 41.778334389760047 $487 45.153134988534845 $482 $542 forward 7 unknown #
vertex $-1 $376 $543 #
straight-curve $-1 -25.508815107710991 25.173236922397887 4.2073428254083254 0 1 0 I I #
edge $-1 $487 9.1941499239135531 $373 23.435180443681325 $372 $544 forward 7 unknown #
vertex $-1 $486 $545 #
straight-curve $-1 -25.508815107710991 -9.1190966728428222 25.928149050238432 0 -0.74314481823134659 0.66913061440640931 I I #
point $-1 -25.508815107710991 15.004302027288535 4.2073428254083254 #
point $-1 -39.749845627478763 18.75239772571712 0.83254222663352451 #
straight-curve $-1 0 18.752397725717124 4.2073428254083245 -1 0 0 I I #
vertex $-1 $379 $546 #
point $-1 -31.629330367594875 16.018324978717693 1.5647881322768198 #
coedge $-1 $394 $393 $386 $495 forward $383 $-1 #
edge $-1 $496 41.778334389760047 $499 45.153134988534845 $494 $547 forward 7 unknown #
vertex $-1 $398 $548 #
straight-curve $-1 -3.7559281959810731 25.173236922397887 4.2073428254083254 0 1 0 I I #
edge $-1 $499 -1.6822935319514061 $395 12.558736987816363 $394 $549 forward 7 unknown #
vertex $-1 $498 $550 #
straight-curve $-1 -3.7559281959810731 -9.1190966728428222 25.928149050238432 0 -0.74314481823134659 0.66913061440640931 I I #
point $-1 -3.7559281959810731 15.004302027288535 4.2073428254083254 #
point $-1 -17.996958715748843 18.75239772571712 0.83254222663352451 #
straight-curve $-1 0 18.752397725717124 4.2073428254083245 -1 0 0 I I #
vertex $-1 $401 $551 #
point $-1 -9.8764434558649583 16.018324978717693 1.5647881322768198 #
coedge $-1 $416 $415 $408 $507 forward $405 $-1 #
edge $-1 $508 41.778334389760047 $511 45.153134988534845 $506 $552 forward 7 unknown #
vertex $-1 $420 $553 #
straight-curve $-1 17.996958715748843 25.173236922397887 4.2073428254083254 0 1 0 I I #
edge $-1 $511 -12.558736987816363 $417 1.6822935319514061 $416 $554 forward 7 unknown #
vertex $-1 $510 $555 #
straight-curve $-1 17.996958715748843 -9.1190966728428222 25.928149050238432 0 -0.74314481823134659 0.66913061440640931 I I #
point $-1 17.996958715748843 15.004302027288535 4.2073428254083254 #
point $-1 3.7559281959810731 18.75239772571712 0.83254222663352451 #
straight-curve $-1 0 18.752397725717124 4.2073428254083245 -1 0 0 I I #
vertex $-1 $423 $556 #
point $-1 11.876443455864958 16.018324978717693 1.5647881322768198 #
coedge $-1 $438 $437 $430 $519 forward $427 $-1 #
edge $-1 $520 41.778334389760047 $523 45.153134988534845 $518 $557 forward 7 unknown #
vertex $-1 $442 $558 #
straight-curve $-1 39.749845627478763 25.173236922397887 4.2073428254083254 0 1 0 I I #
edge $-1 $523 -23.435180443681325 $439 -9.1941499239135531 $438 $559 forward 7 unknown #
vertex $-1 $522 $560 #
straight-curve $-1 39.749845627478763 -9.1190966728428222 25.928149050238432 0 -0.74314481823134659 0.66913061440640931 I I #
point $-1 39.749845627478763 15.004302027288535 4.2073428254083254 #
point $-1 25.508815107710991 18.75239772571712 0.83254222663352451 #
straight-curve $-1 0 18.752397725717124 4.2073428254083245 -1 0 0 I I #
vertex $-1 $445 $561 #
point $-1 33.629330367594875 16.018324978717693 1.5647881322768198 #
straight-curve $-1 -44.434949797051914 18.752397725717124 0 0 0 -1 I I #
point $-1 -44.434949797051914 -18.752397725717124 -4.2073428254083245 #
straight-curve $-1 -44.434949797051914 0 -4.2073428254083245 0 1 0 I I #
point $-1 -44.434949797051914 18.752397725717124 -4.2073428254083245 #
coedge $-1 $471 $467 $476 $539 forward $340 $-1 #
vertex $-1 $468 $562 #
straight-curve $-1 -44.434949797051914 0 4.2073428254083245 0 -1 0 I I #
point $-1 -44.434949797051914 -14.805220124039559 4.2073428254083245 #
straight-curve $-1 44.434949797051914 0 4.2073428254083245 0 1 0 I I #
edge $-1 $535 -44.434949797051914 $480 44.434949797051914 $476 $563 forward 7 unknown #
straight-curve $-1 -44.434949797051914 -18.752397725717124 0 0 0 -1 I I #
point $-1 44.434949797051914 -18.752397725717124 4.2073428254083245 #
straight-curve $-1 -25.508815107710991 18.752397725717124 45.985677215168373 0 0 -1 I I #
point $-1 -25.508815107710991 18.752397725717124 4.2073428254083245 #
straight-curve $-1 -16.314665183797437 18.752397725717124 0.83254222663352273 -1 0 0 I I #
point $-1 -25.508815107710991 18.75239772571712 0.83254222663352451 #
point $-1 -32.629330367594875 15.349194364311282 0.82164331404547308 #
straight-curve $-1 -3.7559281959810731 18.752397725717124 45.985677215168373 0 0 -1 I I #
point $-1 -3.7559281959810731 18.752397725717124 4.2073428254083245 #
straight-curve $-1 -5.4382217279324792 18.752397725717124 0.83254222663352273 -1 0 0 I I #
point $-1 -3.7559281959810731 18.75239772571712 0.83254222663352451 #
point $-1 -10.876443455864958 15.349194364311282 0.82164331404547308 #
straight-curve $-1 17.996958715748843 18.752397725717124 45.985677215168373 0 0 -1 I I #
point $-1 17.996958715748843 18.752397725717124 4.2073428254083245 #
straight-curve $-1 5.4382217279324792 18.752397725717124 0.83254222663352273 -1 0 0 I I #
point $-1 17.996958715748843 18.75239772571712 0.83254222663352451 #
point $-1 10.876443455864958 15.349194364311282 0.82164331404547308 #
straight-curve $-1 39.749845627478763 18.752397725717124 45.985677215168373 0 0 -1 I I #
point $-1 39.749845627478763 18.752397725717124 4.2073428254083245 #
straight-curve $-1 16.314665183797437 18.752397725717124 0.83254222663352273 -1 0 0 I I #
point $-1 39.749845627478763 18.75239772571712 0.83254222663352451 #
point $-1 32.629330367594875 15.349194364311282 0.82164331404547308 #
point $-1 -44.434949797051914 -18.752397725717124 4.2073428254083245 #
straight-curve $-1 0 -18.752397725717124 4.2073428254083245 1 0 0 I I #
End-of-ACIS-data 