500 0 8 0           
7 Unknown 11 ACIS 5.0 NT 24 Fri Mar 26 16:32:23 1999 
-1 9.9999999999999995e-007 1e-010 
body $-1 $8 $-1 $9 #
body $-1 $10 $-1 $11 #
body $-1 $12 $-1 $13 #
body $-1 $14 $-1 $15 #
body $-1 $16 $-1 $17 #
body $-1 $18 $-1 $19 #
body $-1 $20 $-1 $21 #
body $-1 $22 $-1 $23 #
lump $-1 $-1 $24 $0 #
transform $-1 1 0 0 0 1 0 0 0 1 79.024628437147129 49.695534870845975 24.039250035610738 1 rotate no_reflect no_shear #
lump $-1 $-1 $25 $1 #
transform $-1 1 0 0 0 1 0 0 0 1 79.024628437147129 49.695534870845975 24.039250035610738 1 rotate no_reflect no_shear #
lump $-1 $-1 $26 $2 #
transform $-1 1 0 0 0 1 0 0 0 1 79.024628437147129 49.695534870845975 24.039250035610738 1 rotate no_reflect no_shear #
lump $-1 $-1 $27 $3 #
transform $-1 1 0 0 0 1 0 0 0 1 79.024628437147129 49.695534870845975 24.039250035610738 1 rotate no_reflect no_shear #
lump $-1 $-1 $28 $4 #
transform $-1 1 0 0 0 1 0 0 0 1 79.024628437147129 49.695534870845975 24.039250035610738 1 rotate no_reflect no_shear #
lump $-1 $-1 $29 $5 #
transform $-1 1 0 0 0 1 0 0 0 1 79.024628437147129 49.695534870845975 24.039250035610738 1 rotate no_reflect no_shear #
lump $-1 $-1 $30 $6 #
transform $-1 1 0 0 0 1 0 0 0 1 79.024628437147129 49.695534870845975 24.039250035610738 1 rotate no_reflect no_shear #
lump $-1 $-1 $31 $7 #
transform $-1 1 0 0 0 1 0 0 0 1 79.024628437147129 49.695534870845975 24.039250035610738 1 rotate no_reflect no_shear #
shell $-1 $-1 $-1 $32 $-1 $8 #
shell $-1 $-1 $-1 $33 $-1 $10 #
shell $-1 $-1 $-1 $34 $-1 $12 #
shell $-1 $-1 $-1 $35 $-1 $14 #
shell $-1 $-1 $-1 $36 $-1 $16 #
shell $-1 $-1 $-1 $37 $-1 $18 #
shell $-1 $-1 $-1 $38 $-1 $20 #
shell $-1 $-1 $-1 $39 $-1 $22 #
face $-1 $40 $41 $24 $-1 $42 forward single #
face $-1 $43 $44 $25 $-1 $45 forward single #
face $-1 $46 $47 $26 $-1 $48 reversed single #
face $-1 $49 $50 $27 $-1 $51 forward single #
face $-1 $52 $53 $28 $-1 $54 reversed single #
face $-1 $55 $56 $29 $-1 $57 forward single #
face $-1 $58 $59 $30 $-1 $60 forward single #
face $-1 $61 $62 $31 $-1 $63 forward single #
face $-1 $64 $65 $24 $-1 $66 reversed single #
loop $-1 $-1 $67 $32 #
plane-surface $-1 0 0 24.039250035610738 0 0 1 1 0 0 forward_v I I I I #
face $-1 $68 $69 $25 $-1 $70 reversed single #
loop $-1 $-1 $71 $33 #
plane-surface $-1 0 -35.403776312732106 -5.2448928525230691 0 0 1 1 0 0 forward_v I I I I #
face $-1 $72 $73 $26 $-1 $74 reversed single #
loop $-1 $-1 $75 $34 #
plane-surface $-1 -192.71575062292874 -21.112017754618233 126.84662504029421 0 1 0 -0.71933980857756763 0 0.69465836192734942 forward_v I I I I #
face $-1 $76 $77 $27 $-1 $78 forward single #
loop $-1 $79 $80 $35 #
cone-surface $-1 -74.73071737474649 -10.983147212801555 19.65718800892607 0.71933980857756763 0 -0.69465836192734942 0.69465836192734942 0 0.71933980857756763 1 I I 0 1 1 forward I I I I #
face $-1 $81 $82 $28 $-1 $83 reversed single #
loop $-1 $-1 $84 $36 #
plane-surface $-1 90.722523529410836 -7.6504360083390743 223.97573370135501 0 -1 0 -0.74314483375859142 0 -0.66913059716165679 forward_v I I I I #
face $-1 $85 $86 $29 $-1 $87 forward single #
loop $-1 $88 $89 $37 #
cone-surface $-1 67.874816751383889 -18.419701405362403 11.797482149392481 -0.74314483375859142 0 -0.66913059716165679 0.66913059716165679 0 -0.74314483375859142 1 I I 0 1 1 forward I I I I #
face $-1 $90 $91 $30 $-1 $92 forward single #
loop $-1 $93 $94 $38 #
cone-surface $-1 67.874816751383889 -14.381226881478653 11.797482149392481 -0.74314483375859142 0 -0.66913059716165679 0.66913059716165679 0 -0.74314483375859142 1 I I 0 1 1 forward I I I I #
face $-1 $95 $96 $31 $-1 $97 forward single #
loop $-1 $98 $99 $39 #
cone-surface $-1 67.874816751383889 -10.342752357594904 11.797482149392481 -0.74314483375859142 0 -0.66913059716165679 0.66913059716165679 0 -0.74314483375859142 1 I I 0 1 1 forward I I I I #
face $-1 $100 $101 $24 $-1 $102 reversed single #
loop $-1 $-1 $103 $40 #
plane-surface $-1 0 0 -24.039250035610738 0 0 1 1 0 0 forward_v I I I I #
coedge $-1 $104 $105 $106 $107 forward $41 $-1 #
face $-1 $108 $109 $25 $-1 $110 reversed single #
loop $-1 $-1 $111 $43 #
plane-surface $-1 0 -35.403776312732106 -16.686628003906414 0 0 1 1 0 0 forward_v I I I I #
coedge $-1 $112 $113 $114 $115 reversed $44 $-1 #
face $-1 $116 $117 $26 $-1 $118 reversed single #
loop $-1 $-1 $119 $46 #
plane-surface $-1 -79.024628437147086 -10.983147212801555 17.056387156162089 -0.71933980857756763 0 0.69465836192734942 0.69465836192734942 0 0.71933980857756763 forward_v I I I I #
coedge $-1 $120 $121 $122 $123 reversed $47 $-1 #
face $-1 $-1 $124 $27 $-1 $125 forward single #
loop $-1 $126 $127 $49 #
cone-surface $-1 -73.448772477380757 -10.983147212801555 18.419228241002042 0.71933980857756763 0 -0.69465836192734942 0.34732918096367471 0 0.35966990428878381 1 I I -0.70710678118654746 0.70710678118654746 0.5 forward I I I I #
loop $-1 $-1 $128 $35 #
coedge $-1 $80 $80 $129 $130 reversed $50 $-1 #
face $-1 $131 $132 $28 $-1 $133 reversed single #
loop $-1 $-1 $134 $52 #
plane-surface $-1 -26.730965196105487 -14.381226881478653 118.22014006810241 0.74314483375859142 0 0.66913059716165679 0.66913059716165679 0 -0.74314483375859142 forward_v I I I I #
coedge $-1 $135 $136 $137 $138 reversed $53 $-1 #
face $-1 $-1 $139 $29 $-1 $140 forward single #
loop $-1 $141 $142 $55 #
cone-surface $-1 66.830803380235807 -18.419701405362403 10.85744831110571 -0.74314483375859142 0 -0.66913059716165679 0.3345652985808284 0 -0.37157241687929571 1 I I -0.70710678118654746 0.70710678118654746 0.5 forward I I I I #
loop $-1 $-1 $143 $37 #
coedge $-1 $89 $89 $144 $145 reversed $56 $-1 #
face $-1 $-1 $146 $30 $-1 $147 forward single #
loop $-1 $148 $149 $58 #
cone-surface $-1 66.830803380235807 -14.381226881478653 10.85744831110571 -0.74314483375859142 0 -0.66913059716165679 0.3345652985808284 0 -0.37157241687929571 1 I I -0.70710678118654746 0.70710678118654746 0.5 forward I I I I #
loop $-1 $-1 $150 $38 #
coedge $-1 $94 $94 $151 $152 reversed $59 $-1 #
face $-1 $-1 $153 $31 $-1 $154 forward single #
loop $-1 $155 $156 $61 #
cone-surface $-1 66.830803380235807 -10.342752357594904 10.85744831110571 -0.74314483375859142 0 -0.66913059716165679 0.3345652985808284 0 -0.37157241687929571 1 I I -0.70710678118654746 0.70710678118654746 0.5 forward I I I I #
loop $-1 $-1 $157 $39 #
coedge $-1 $99 $99 $158 $159 reversed $62 $-1 #
face $-1 $160 $161 $24 $-1 $162 reversed single #
loop $-1 $-1 $163 $64 #
plane-surface $-1 0 -49.695534870845975 0 0 1 0 0 0 1 forward_v I I I I #
coedge $-1 $164 $165 $166 $167 forward $65 $-1 #
coedge $-1 $168 $67 $169 $170 forward $41 $-1 #
coedge $-1 $67 $168 $171 $172 forward $41 $-1 #
coedge $-1 $173 $174 $67 $107 reversed $175 $-1 #
edge $-1 $176 -49.695534870845975 $177 49.695534870845975 $106 $178 forward 7 unknown #
face $-1 $179 $180 $25 $-1 $181 reversed single #
loop $-1 $-1 $182 $68 #
plane-surface $-1 0 -21.112017754618236 -10.965760428214741 0 -1 0 0 0 -1 forward_v I I I I #
coedge $-1 $183 $184 $185 $186 reversed $69 $-1 #
coedge $-1 $187 $71 $188 $189 forward $44 $-1 #
coedge $-1 $71 $187 $190 $191 reversed $44 $-1 #
coedge $-1 $192 $193 $71 $115 forward $194 $-1 #
edge $-1 $195 3.4101295982521833 $196 31.993646714479922 $114 $197 forward 7 unknown #
face $-1 $198 $199 $26 $-1 $200 reversed single #
loop $-1 $-1 $201 $72 #
plane-surface $-1 -192.71575062292874 -0.85427667098487703 126.84662504029421 0 -1 0 0.71933980857756763 0 -0.69465836192734942 forward_v I I I I #
coedge $-1 $202 $203 $204 $205 reversed $73 $-1 #
coedge $-1 $121 $75 $206 $207 reversed $47 $-1 #
coedge $-1 $75 $120 $202 $208 reversed $47 $-1 #
coedge $-1 $204 $209 $75 $123 forward $210 $-1 #
edge $-1 $211 17.33324687431724 $212 24.076519012964724 $122 $213 forward 7 unknown #
loop $-1 $-1 $129 $76 #
plane-surface $-1 -79.024628437147086 -10.983147212801555 17.056387156162089 -0.71933980857756763 0 0.69465836192734942 0.69465836192734942 0 0.71933980857756763 forward_v I I I I #
loop $-1 $-1 $214 $49 #
coedge $-1 $127 $127 $128 $215 reversed $77 $-1 #
coedge $-1 $128 $128 $127 $215 forward $79 $-1 #
coedge $-1 $129 $129 $80 $130 forward $124 $-1 #
edge $-1 $216 0 $216 6.2831853071796004 $129 $217 forward 7 unknown #
face $-1 $218 $219 $28 $-1 $220 forward single #
loop $-1 $-1 $221 $81 #
plane-surface $-1 90.722523529410836 -21.112017754618233 223.97573370135501 0 1 0 0.74314483375859142 0 0.66913059716165679 forward_v I I I I #
coedge $-1 $222 $223 $224 $225 reversed $82 $-1 #
coedge $-1 $136 $84 $226 $227 reversed $53 $-1 #
coedge $-1 $84 $135 $222 $228 reversed $53 $-1 #
coedge $-1 $224 $229 $84 $138 forward $219 $-1 #
edge $-1 $230 -33.663366672441711 $231 -12.708625209452777 $137 $232 forward 7 unknown #
loop $-1 $-1 $144 $85 #
plane-surface $-1 -26.730965196105487 -14.381226881478653 118.22014006810241 0.74314483375859142 0 0.66913059716165679 0.66913059716165679 0 -0.74314483375859142 forward_v I I I I #
loop $-1 $-1 $233 $55 #
coedge $-1 $142 $142 $143 $234 reversed $86 $-1 #
coedge $-1 $143 $143 $142 $234 forward $88 $-1 #
coedge $-1 $144 $144 $89 $145 forward $139 $-1 #
edge $-1 $235 0 $235 6.2831853071796004 $144 $236 forward 7 unknown #
loop $-1 $-1 $151 $90 #
plane-surface $-1 -26.730965196105487 -14.381226881478653 118.22014006810241 0.74314483375859142 0 0.66913059716165679 0.66913059716165679 0 -0.74314483375859142 forward_v I I I I #
loop $-1 $-1 $237 $58 #
coedge $-1 $149 $149 $150 $238 reversed $91 $-1 #
coedge $-1 $150 $150 $149 $238 forward $93 $-1 #
coedge $-1 $151 $151 $94 $152 forward $146 $-1 #
edge $-1 $239 0 $239 6.2831853071796004 $151 $240 forward 7 unknown #
loop $-1 $-1 $158 $95 #
plane-surface $-1 -26.730965196105487 -14.381226881478653 118.22014006810241 0.74314483375859142 0 0.66913059716165679 0.66913059716165679 0 -0.74314483375859142 forward_v I I I I #
loop $-1 $-1 $241 $61 #
coedge $-1 $156 $156 $157 $242 reversed $96 $-1 #
coedge $-1 $157 $157 $156 $242 forward $98 $-1 #
coedge $-1 $158 $158 $99 $159 forward $153 $-1 #
edge $-1 $243 0 $243 6.2831853071796004 $158 $244 forward 7 unknown #
face $-1 $245 $246 $24 $-1 $247 reversed single #
loop $-1 $-1 $248 $100 #
plane-surface $-1 -79.024628437147129 0 0 1 0 0 0 0 -1 forward_v I I I I #
coedge $-1 $249 $171 $250 $251 forward $101 $-1 #
coedge $-1 $252 $103 $249 $253 forward $65 $-1 #
coedge $-1 $103 $252 $254 $255 forward $65 $-1 #
coedge $-1 $174 $173 $103 $167 reversed $175 $-1 #
edge $-1 $256 -49.695534870845975 $257 49.695534870845975 $166 $258 forward 7 unknown #
coedge $-1 $105 $104 $259 $260 forward $41 $-1 #
coedge $-1 $261 $262 $104 $170 reversed $246 $-1 #
edge $-1 $177 -79.024628437147129 $263 79.024628437147129 $169 $264 forward 7 unknown #
coedge $-1 $163 $265 $105 $172 reversed $101 $-1 #
edge $-1 $266 -79.024628437147129 $176 79.024628437147129 $171 $267 forward 7 unknown #
coedge $-1 $166 $106 $265 $268 forward $175 $-1 #
coedge $-1 $106 $166 $261 $269 reversed $175 $-1 #
loop $-1 $-1 $173 $245 #
vertex $-1 $107 $270 #
vertex $-1 $107 $271 #
straight-curve $-1 79.024628437147129 0 24.039250035610738 0 1 0 I I #
face $-1 $272 $273 $25 $-1 $274 reversed single #
loop $-1 $-1 $275 $108 #
plane-surface $-1 -79.024628437147129 0 0 1 0 0 0 0 -1 forward_v I I I I #
coedge $-1 $276 $188 $193 $277 reversed $109 $-1 #
coedge $-1 $278 $111 $279 $280 reversed $69 $-1 #
coedge $-1 $111 $278 $276 $281 forward $69 $-1 #
coedge $-1 $193 $192 $111 $186 forward $194 $-1 #
edge $-1 $282 -31.993646714479922 $283 -3.4101295982521833 $185 $284 forward 7 unknown #
coedge $-1 $113 $112 $275 $285 reversed $44 $-1 #
coedge $-1 $182 $286 $112 $189 reversed $109 $-1 #
edge $-1 $195 -79.024628437147129 $287 79.024628437147129 $188 $288 forward 7 unknown #
coedge $-1 $289 $290 $113 $191 forward $273 $-1 #
edge $-1 $196 -79.024628437147129 $291 79.024628437147129 $190 $292 forward 7 unknown #
coedge $-1 $185 $114 $290 $293 forward $194 $-1 #
coedge $-1 $114 $185 $182 $277 forward $194 $-1 #
loop $-1 $-1 $114 $272 #
vertex $-1 $115 $294 #
vertex $-1 $293 $295 #
straight-curve $-1 79.024628437147129 -17.701888156366053 -5.2448928525230691 0 -1 0 I I #
face $-1 $-1 $210 $26 $-1 $296 forward single #
loop $-1 $-1 $297 $116 #
plane-surface $-1 -79.024628437147129 0 0 1 0 0 0 0 -1 forward_v I I I I #
coedge $-1 $298 $299 $300 $301 reversed $117 $-1 #
coedge $-1 $302 $119 $121 $208 forward $73 $-1 #
coedge $-1 $119 $302 $298 $303 forward $73 $-1 #
coedge $-1 $300 $122 $119 $205 forward $210 $-1 #
edge $-1 $212 -15.620444148217455 $304 4.6372969354159004 $204 $305 forward 7 unknown #
coedge $-1 $306 $307 $120 $207 forward $199 $-1 #
edge $-1 $308 -46.366925363985061 $211 -39.384062484536372 $206 $309 forward 7 unknown #
edge $-1 $212 -9.7073216248891612 $308 6.0282367705820414e-014 $121 $310 forward 7 unknown #
coedge $-1 $122 $300 $306 $311 forward $210 $-1 #
loop $-1 $-1 $300 $198 #
vertex $-1 $207 $312 #
vertex $-1 $123 $313 #
straight-curve $-1 -96.357875311464369 -21.112017754618233 24.039250035610735 1 0 0 I I #
coedge $-1 $214 $214 $-1 $314 reversed $126 $-1 #
edge $-1 $315 0 $315 6.2831853071796004 $127 $316 forward 7 unknown #
vertex $-1 $130 $317 #
ellipse-curve $-1 -75.652992367823401 -10.983147212801555 20.547818595886387 -0.71933980857756763 0 0.69465836192734942 0.69465836192734942 0 0.71933980857756763 1 I I #
face $-1 $-1 $318 $28 $-1 $319 reversed single #
loop $-1 $-1 $137 $131 #
plane-surface $-1 0 0 24.039250035610738 0 0 1 1 0 0 forward_v I I I I #
coedge $-1 $320 $321 $322 $323 reversed $132 $-1 #
coedge $-1 $324 $134 $136 $228 forward $82 $-1 #
coedge $-1 $134 $324 $320 $325 forward $82 $-1 #
coedge $-1 $322 $137 $134 $225 forward $219 $-1 #
edge $-1 $231 0.4598225675997476 $326 13.921404313878906 $224 $327 forward 7 unknown #
coedge $-1 $328 $329 $135 $227 forward $318 $-1 #
edge $-1 $330 -111.22121550809142 $230 -87.948616815066771 $226 $331 forward 7 unknown #
edge $-1 $231 126.73288671893812 $330 158.04925687429426 $136 $332 forward 7 unknown #
coedge $-1 $137 $322 $328 $333 forward $219 $-1 #
vertex $-1 $227 $334 #
vertex $-1 $138 $335 #
straight-curve $-1 45.361261764705418 -7.6504360083390743 24.039250035610735 -1 0 0 I I #
coedge $-1 $233 $233 $-1 $336 reversed $141 $-1 #
edge $-1 $337 0 $337 6.2831853071796004 $142 $338 forward 7 unknown #
vertex $-1 $145 $339 #
ellipse-curve $-1 68.547257705652655 -18.419701405362403 12.402950689098404 0.74314483375859142 0 0.66913059716165679 0.66913059716165679 0 -0.74314483375859142 1 I I #
coedge $-1 $237 $237 $-1 $340 reversed $148 $-1 #
edge $-1 $341 0 $341 6.2831853071796004 $149 $342 forward 7 unknown #
vertex $-1 $152 $343 #
ellipse-curve $-1 68.547257705652655 -14.381226881478653 12.402950689098404 0.74314483375859142 0 0.66913059716165679 0.66913059716165679 0 -0.74314483375859142 1 I I #
coedge $-1 $241 $241 $-1 $344 reversed $155 $-1 #
edge $-1 $345 0 $345 6.2831853071796004 $156 $346 forward 7 unknown #
vertex $-1 $159 $347 #
ellipse-curve $-1 68.547257705652655 -10.342752357594904 12.402950689098404 0.74314483375859142 0 0.66913059716165679 0.66913059716165679 0 -0.74314483375859142 1 I I #
face $-1 $-1 $175 $24 $-1 $348 reversed single #
loop $-1 $-1 $261 $160 #
plane-surface $-1 0 49.695534870845975 0 0 -1 0 0 0 -1 forward_v I I I I #
coedge $-1 $349 $259 $262 $350 forward $161 $-1 #
coedge $-1 $265 $163 $164 $253 reversed $101 $-1 #
coedge $-1 $259 $349 $163 $251 reversed $161 $-1 #
edge $-1 $266 -24.039250035610738 $351 24.039250035610738 $250 $352 forward 7 unknown #
coedge $-1 $165 $164 $349 $353 forward $65 $-1 #
edge $-1 $257 -79.024628437147129 $351 79.024628437147129 $249 $354 forward 7 unknown #
coedge $-1 $262 $261 $165 $255 reversed $246 $-1 #
edge $-1 $355 -79.024628437147129 $256 79.024628437147129 $254 $356 forward 7 unknown #
vertex $-1 $167 $357 #
vertex $-1 $268 $358 #
straight-curve $-1 79.024628437147129 0 -24.039250035610738 0 -1 0 I I #
coedge $-1 $248 $250 $168 $260 reversed $161 $-1 #
edge $-1 $263 -49.695534870845975 $266 49.695534870845975 $259 $359 forward 7 unknown #
coedge $-1 $254 $169 $174 $269 forward $246 $-1 #
coedge $-1 $169 $254 $248 $350 reversed $246 $-1 #
vertex $-1 $170 $360 #
straight-curve $-1 0 49.695534870845975 24.039250035610738 -1 0 0 I I #
coedge $-1 $171 $249 $173 $268 reversed $101 $-1 #
vertex $-1 $260 $361 #
straight-curve $-1 0 -49.695534870845975 24.039250035610738 1 0 0 I I #
edge $-1 $176 -24.039250035610738 $257 24.039250035610738 $173 $362 forward 7 unknown #
edge $-1 $177 -24.039250035610738 $256 24.039250035610738 $174 $363 forward 7 unknown #
point $-1 79.024628437147129 -49.695534870845975 24.039250035610738 #
point $-1 79.024628437147129 49.695534870845975 24.039250035610738 #
face $-1 $-1 $194 $25 $-1 $364 reversed single #
loop $-1 $-1 $190 $179 #
plane-surface $-1 0 -49.695534870845975 0 0 1 0 0 0 1 forward_v I I I I #
coedge $-1 $365 $366 $187 $285 forward $180 $-1 #
coedge $-1 $286 $182 $184 $281 reversed $109 $-1 #
edge $-1 $283 -11.203747789799042 $195 0.23798736158430156 $193 $367 forward 7 unknown #
coedge $-1 $184 $183 $368 $369 reversed $69 $-1 #
coedge $-1 $290 $289 $183 $280 forward $273 $-1 #
edge $-1 $370 -79.024628437147129 $282 79.024628437147129 $279 $371 forward 7 unknown #
edge $-1 $372 -79.024628437147129 $283 79.024628437147129 $276 $373 forward 7 unknown #
vertex $-1 $280 $374 #
vertex $-1 $186 $375 #
straight-curve $-1 79.024628437147129 -17.701888156366053 -16.686628003906414 0 1 0 I I #
edge $-1 $291 -31.993646714479922 $287 -3.4101295982521833 $275 $376 forward 7 unknown #
coedge $-1 $188 $276 $365 $377 reversed $109 $-1 #
vertex $-1 $285 $378 #
straight-curve $-1 0 -21.112017754618236 -5.2448928525230691 -1 0 0 I I #
coedge $-1 $279 $190 $366 $379 forward $273 $-1 #
coedge $-1 $190 $279 $192 $293 reversed $273 $-1 #
vertex $-1 $379 $380 #
straight-curve $-1 0 -49.695534870845975 -5.2448928525230691 -1 0 0 I I #
edge $-1 $196 5.2448928525230691 $282 16.686628003906414 $192 $381 forward 7 unknown #
point $-1 79.024628437147129 -21.112017754618236 -5.2448928525230691 #
point $-1 79.024628437147129 -49.695534870845975 -5.2448928525230691 #
plane-surface $-1 0 0 24.039250035610738 0 0 1 1 0 0 forward_v I I I I #
coedge $-1 $307 $306 $299 $382 forward $199 $-1 #
coedge $-1 $299 $201 $203 $303 reversed $117 $-1 #
coedge $-1 $201 $298 $297 $382 reversed $117 $-1 #
coedge $-1 $209 $204 $201 $301 forward $210 $-1 #
edge $-1 $304 -24.076519012964724 $383 -17.33324687431724 $300 $384 forward 7 unknown #
coedge $-1 $203 $202 $307 $385 reversed $73 $-1 #
edge $-1 $386 -6.0282367705820414e-014 $304 9.7073216248891612 $298 $387 forward 7 unknown #
vertex $-1 $205 $388 #
straight-curve $-1 -72.281356298499645 -5.4915736064007774 24.039250035610738 0 1 0 I I #
coedge $-1 $297 $206 $209 $311 reversed $199 $-1 #
coedge $-1 $206 $297 $302 $385 forward $199 $-1 #
vertex $-1 $207 $389 #
straight-curve $-1 -79.024628437147129 -21.112017754618233 63.423312520147107 0 0 1 I I #
straight-curve $-1 -79.024628437147086 -21.112017754618233 17.056387156162089 -0.69465836192734942 0 -0.71933980857756763 I I #
edge $-1 $383 0.85427667098487703 $211 21.112017754618233 $306 $390 forward 7 unknown #
point $-1 -79.024628437147129 -21.112017754618233 24.039250035610738 #
point $-1 -72.281356298499645 -21.112017754618233 24.039250035610738 #
edge $-1 $391 1 $391 0 $214 $-1 forward 7 unknown #
vertex $-1 $215 $392 #
ellipse-curve $-1 -73.808442381669536 -10.983147212801555 18.766557421965718 -0.71933980857756763 0 0.69465836192734942 0.69465836192734942 0 0.71933980857756763 1 I I #
point $-1 -74.958334005896077 -10.983147212801555 21.267158404463988 #
loop $-1 $-1 $226 $218 #
plane-surface $-1 79.024628437147129 0 0 -1 0 0 0 0 1 forward_v I I I I #
coedge $-1 $321 $221 $223 $325 reversed $132 $-1 #
coedge $-1 $221 $320 $393 $394 reversed $132 $-1 #
coedge $-1 $229 $224 $221 $323 forward $219 $-1 #
edge $-1 $326 12.708625209452777 $395 33.663366672441711 $322 $396 forward 7 unknown #
coedge $-1 $223 $222 $329 $397 reversed $82 $-1 #
edge $-1 $398 -158.04925687429426 $326 -126.73288671893812 $320 $399 forward 7 unknown #
vertex $-1 $225 $400 #
straight-curve $-1 58.06988697415818 -7.1906134407393267 24.039250035610742 0 -1 0 I I #
coedge $-1 $393 $226 $229 $333 reversed $318 $-1 #
coedge $-1 $226 $393 $324 $397 forward $318 $-1 #
vertex $-1 $227 $401 #
straight-curve $-1 79.024628437147129 -7.6504360083390743 111.98786685067751 0 0 1 I I #
straight-curve $-1 -26.730965196105487 -7.6504360083390743 118.22014006810241 0.66913059716165679 0 -0.74314483375859142 I I #
edge $-1 $395 -21.112017754618233 $230 -7.6504360083390743 $328 $402 forward 7 unknown #
point $-1 79.024628437147129 -7.6504360083390743 24.039250035610738 #
point $-1 58.069886974158194 -7.6504360083390743 24.039250035610735 #
edge $-1 $403 1 $403 0 $233 $-1 forward 7 unknown #
vertex $-1 $234 $404 #
ellipse-curve $-1 67.202375797115096 -18.419701405362403 11.192013609686539 0.74314483375859142 0 0.66913059716165679 0.66913059716165679 0 -0.74314483375859142 1 I I #
point $-1 69.216388302814337 -18.419701405362403 11.65980585533983 #
edge $-1 $405 1 $405 0 $237 $-1 forward 7 unknown #
vertex $-1 $238 $406 #
ellipse-curve $-1 67.202375797115096 -14.381226881478653 11.192013609686539 0.74314483375859142 0 0.66913059716165679 0.66913059716165679 0 -0.74314483375859142 1 I I #
point $-1 69.216388302814337 -14.381226881478653 11.65980585533983 #
edge $-1 $407 1 $407 0 $241 $-1 forward 7 unknown #
vertex $-1 $242 $408 #
ellipse-curve $-1 67.202375797115096 -10.342752357594904 11.192013609686539 0.74314483375859142 0 0.66913059716165679 0.66913059716165679 0 -0.74314483375859142 1 I I #
point $-1 69.216388302814337 -10.342752357594904 11.65980585533983 #
plane-surface $-1 79.024628437147129 0 0 -1 0 0 0 0 1 forward_v I I I I #
coedge $-1 $250 $248 $252 $353 reversed $161 $-1 #
edge $-1 $263 -24.039250035610738 $355 24.039250035610738 $262 $409 forward 7 unknown #
vertex $-1 $353 $410 #
straight-curve $-1 -79.024628437147129 -49.695534870845975 0 0 0 -1 I I #
edge $-1 $351 -49.695534870845975 $355 49.695534870845975 $349 $411 forward 7 unknown #
straight-curve $-1 0 -49.695534870845975 -24.039250035610738 -1 0 0 I I #
vertex $-1 $255 $412 #
straight-curve $-1 0 49.695534870845975 -24.039250035610738 1 0 0 I I #
point $-1 79.024628437147129 49.695534870845975 -24.039250035610738 #
point $-1 79.024628437147129 -49.695534870845975 -24.039250035610738 #
straight-curve $-1 -79.024628437147129 0 24.039250035610738 0 -1 0 I I #
point $-1 -79.024628437147129 49.695534870845975 24.039250035610738 #
point $-1 -79.024628437147129 -49.695534870845975 24.039250035610738 #
straight-curve $-1 79.024628437147129 -49.695534870845975 0 0 0 -1 I I #
straight-curve $-1 79.024628437147129 49.695534870845975 0 0 0 -1 I I #
plane-surface $-1 79.024628437147129 0 0 -1 0 0 0 0 1 forward_v I I I I #
coedge $-1 $368 $275 $286 $377 forward $180 $-1 #
coedge $-1 $275 $368 $289 $379 reversed $180 $-1 #
straight-curve $-1 79.024628437147129 -21.112017754618236 -5.4828802141073707 0 0 1 I I #
coedge $-1 $366 $365 $278 $369 forward $180 $-1 #
edge $-1 $372 3.4101295982521833 $370 31.993646714479922 $368 $413 forward 7 unknown #
vertex $-1 $280 $414 #
straight-curve $-1 0 -49.695534870845975 -16.686628003906414 1 0 0 I I #
vertex $-1 $369 $415 #
straight-curve $-1 0 -21.112017754618236 -16.686628003906414 1 0 0 I I #
point $-1 79.024628437147129 -49.695534870845975 -16.686628003906414 #
point $-1 79.024628437147129 -21.112017754618236 -16.686628003906414 #
straight-curve $-1 -79.024628437147129 -17.701888156366053 -5.2448928525230691 0 1 0 I I #
edge $-1 $287 -0.23798736158430156 $372 11.203747789799042 $365 $416 forward 7 unknown #
point $-1 -79.024628437147129 -21.112017754618236 -5.2448928525230691 #
edge $-1 $291 5.2448928525230691 $370 16.686628003906414 $366 $417 forward 7 unknown #
point $-1 -79.024628437147129 -49.695534870845975 -5.2448928525230691 #
straight-curve $-1 79.024628437147129 -49.695534870845975 0 0 0 -1 I I #
edge $-1 $383 39.384062484536372 $386 46.366925363985061 $297 $418 forward 7 unknown #
vertex $-1 $311 $419 #
straight-curve $-1 -96.357875311464369 -0.85427667098487703 24.039250035610735 -1 0 0 I I #
edge $-1 $386 -4.6372969354159004 $308 15.620444148217455 $307 $420 forward 7 unknown #
vertex $-1 $385 $421 #
straight-curve $-1 -79.024628437147086 -0.85427667098487703 17.056387156162089 0.69465836192734942 0 0.71933980857756763 I I #
point $-1 -72.281356298499645 -0.85427667098487703 24.039250035610738 #
point $-1 -79.024628437147129 -21.112017754618233 17.056387156162046 #
straight-curve $-1 -79.024628437147129 0 24.039250035610738 0 -1 0 I I #
vertex $-1 $314 $422 #
point $-1 -73.113784019742198 -10.983147212801555 19.485897230543284 #
coedge $-1 $329 $328 $321 $394 forward $318 $-1 #
edge $-1 $395 87.948616815066771 $398 111.22121550809142 $393 $423 forward 7 unknown #
vertex $-1 $333 $424 #
straight-curve $-1 45.361261764705418 -21.112017754618233 24.039250035610735 1 0 0 I I #
edge $-1 $398 -13.921404313878906 $330 -0.4598225675997476 $329 $425 forward 7 unknown #
vertex $-1 $397 $426 #
straight-curve $-1 -26.730965196105487 -21.112017754618233 118.22014006810241 -0.66913059716165679 0 0.74314483375859142 I I #
point $-1 58.069886974158194 -21.112017754618233 24.039250035610735 #
point $-1 79.024628437147115 -7.6504360083390743 0.76665134258608703 #
straight-curve $-1 79.024628437147129 0 24.039250035610738 0 1 0 I I #
vertex $-1 $336 $427 #
point $-1 67.871506394276764 -18.419701405362403 10.448868775927947 #
vertex $-1 $340 $428 #
point $-1 67.871506394276764 -14.381226881478653 10.448868775927947 #
vertex $-1 $344 $429 #
point $-1 67.871506394276764 -10.342752357594904 10.448868775927947 #
straight-curve $-1 -79.024628437147129 49.695534870845975 0 0 0 -1 I I #
point $-1 -79.024628437147129 -49.695534870845975 -24.039250035610738 #
straight-curve $-1 -79.024628437147129 0 -24.039250035610738 0 1 0 I I #
point $-1 -79.024628437147129 49.695534870845975 -24.039250035610738 #
straight-curve $-1 -79.024628437147129 -17.701888156366053 -16.686628003906414 0 -1 0 I I #
point $-1 -79.024628437147129 -49.695534870845975 -16.686628003906414 #
point $-1 -79.024628437147129 -21.112017754618236 -16.686628003906414 #
straight-curve $-1 -79.024628437147129 -21.112017754618236 -5.4828802141073707 0 0 -1 I I #
straight-curve $-1 -79.024628437147129 -49.695534870845975 0 0 0 -1 I I #
straight-curve $-1 -79.024628437147129 -0.85427667098487703 63.423312520147107 0 0 -1 I I #
point $-1 -79.024628437147129 -0.85427667098487703 24.039250035610738 #
straight-curve $-1 -79.024628437147129 -5.4915736064007774 17.056387156162042 0 -1 0 I I #
point $-1 -79.024628437147129 -0.85427667098487703 17.056387156162046 #
point $-1 -73.089102573091978 -10.983147212801555 18.071899060038366 #
straight-curve $-1 79.024628437147129 -21.112017754618233 111.98786685067751 0 0 -1 I I #
point $-1 79.024628437147129 -21.112017754618233 24.039250035610738 #
straight-curve $-1 79.024628437147129 -7.1906134407393267 0.76665134258609413 0 1 0 I I #
point $-1 79.024628437147115 -21.112017754618233 0.76665134258608703 #
point $-1 66.459230963356518 -18.419701405362403 10.522883012524881 #
point $-1 66.459230963356518 -14.381226881478653 10.522883012524881 #
point $-1 66.459230963356518 -10.342752357594904 10.522883012524881 #
End-of-ACIS-data 