500 0 14 0           
7 Unknown 11 ACIS 5.0 NT 24 Fri Mar 26 00:45:51 1999 
-1 9.9999999999999995e-007 1e-010 
body $-1 $14 $-1 $15 #
body $-1 $16 $-1 $17 #
body $-1 $18 $-1 $19 #
body $-1 $20 $-1 $21 #
body $-1 $22 $-1 $23 #
body $-1 $24 $-1 $25 #
body $-1 $26 $-1 $27 #
body $-1 $28 $-1 $29 #
body $-1 $30 $-1 $31 #
body $-1 $32 $-1 $33 #
body $-1 $34 $-1 $35 #
body $-1 $36 $-1 $37 #
body $-1 $38 $-1 $39 #
body $-1 $40 $-1 $41 #
lump $-1 $-1 $42 $0 #
transform $-1 1 0 0 0 1 0 0 0 1 58.130436109500408 26.770124051794163 10.02259980598164 1 rotate no_reflect no_shear #
lump $-1 $-1 $43 $1 #
transform $-1 1 0 0 0 1 0 0 0 1 58.130436109500408 26.770124051794163 10.02259980598164 1 rotate no_reflect no_shear #
lump $-1 $-1 $44 $2 #
transform $-1 1 0 0 0 1 0 0 0 1 58.130436109500408 26.770124051794163 10.02259980598164 1 rotate no_reflect no_shear #
lump $-1 $-1 $45 $3 #
transform $-1 1 0 0 0 1 0 0 0 1 58.130436109500408 26.770124051794163 10.02259980598164 1 rotate no_reflect no_shear #
lump $-1 $-1 $46 $4 #
transform $-1 1 0 0 0 1 0 0 0 1 58.130436109500408 26.770124051794163 10.02259980598164 1 rotate no_reflect no_shear #
lump $-1 $-1 $47 $5 #
transform $-1 1 0 0 0 1 0 0 0 1 58.130436109500408 26.770124051794163 10.02259980598164 1 rotate no_reflect no_shear #
lump $-1 $-1 $48 $6 #
transform $-1 1 0 0 0 1 0 0 0 1 58.130436109500408 26.770124051794163 10.02259980598164 1 rotate no_reflect no_shear #
lump $-1 $-1 $49 $7 #
transform $-1 1 0 0 0 1 0 0 0 1 58.130436109500408 26.770124051794163 10.02259980598164 1 rotate no_reflect no_shear #
lump $-1 $-1 $50 $8 #
transform $-1 1 0 0 0 1 0 0 0 1 58.130436109500408 26.770124051794163 10.02259980598164 1 rotate no_reflect no_shear #
lump $-1 $-1 $51 $9 #
transform $-1 1 0 0 0 1 0 0 0 1 58.130436109500408 26.770124051794163 10.02259980598164 1 rotate no_reflect no_shear #
lump $-1 $-1 $52 $10 #
transform $-1 1 0 0 0 1 0 0 0 1 58.130436109500408 26.770124051794163 10.02259980598164 1 rotate no_reflect no_shear #
lump $-1 $-1 $53 $11 #
transform $-1 1 0 0 0 1 0 0 0 1 58.130436109500408 26.770124051794163 10.02259980598164 1 rotate no_reflect no_shear #
lump $-1 $-1 $54 $12 #
transform $-1 1 0 0 0 1 0 0 0 1 58.130436109500408 26.770124051794163 10.02259980598164 1 rotate no_reflect no_shear #
lump $-1 $-1 $55 $13 #
transform $-1 1 0 0 0 1 0 0 0 1 58.130436109500408 26.770124051794163 10.02259980598164 1 rotate no_reflect no_shear #
shell $-1 $-1 $-1 $56 $-1 $14 #
shell $-1 $-1 $-1 $57 $-1 $16 #
shell $-1 $-1 $-1 $58 $-1 $18 #
shell $-1 $-1 $-1 $59 $-1 $20 #
shell $-1 $-1 $-1 $60 $-1 $22 #
shell $-1 $-1 $-1 $61 $-1 $24 #
shell $-1 $-1 $-1 $62 $-1 $26 #
shell $-1 $-1 $-1 $63 $-1 $28 #
shell $-1 $-1 $-1 $64 $-1 $30 #
shell $-1 $-1 $-1 $65 $-1 $32 #
shell $-1 $-1 $-1 $66 $-1 $34 #
shell $-1 $-1 $-1 $67 $-1 $36 #
shell $-1 $-1 $-1 $68 $-1 $38 #
shell $-1 $-1 $-1 $69 $-1 $40 #
face $-1 $70 $71 $42 $-1 $72 forward single #
face $-1 $73 $74 $43 $-1 $75 forward single #
face $-1 $76 $77 $44 $-1 $78 reversed single #
face $-1 $79 $80 $45 $-1 $81 forward single #
face $-1 $82 $83 $46 $-1 $84 forward single #
face $-1 $85 $86 $47 $-1 $87 reversed single #
face $-1 $88 $89 $48 $-1 $90 forward single #
face $-1 $91 $92 $49 $-1 $93 forward single #
face $-1 $94 $95 $50 $-1 $96 reversed single #
face $-1 $97 $98 $51 $-1 $99 forward single #
face $-1 $100 $101 $52 $-1 $102 forward single #
face $-1 $103 $104 $53 $-1 $105 reversed single #
face $-1 $106 $107 $54 $-1 $108 forward single #
face $-1 $109 $110 $55 $-1 $111 forward single #
face $-1 $112 $113 $42 $-1 $114 reversed single #
loop $-1 $-1 $115 $56 #
plane-surface $-1 0 0 10.02259980598164 0 0 1 1 0 0 forward_v I I I I #
face $-1 $116 $117 $43 $-1 $118 reversed single #
loop $-1 $-1 $119 $57 #
plane-surface $-1 0 -23.16994392537482 -0.36261063430769624 0 0 1 1 0 0 forward_v I I I I #
face $-1 $120 $121 $44 $-1 $122 reversed single #
loop $-1 $-1 $123 $58 #
plane-surface $-1 89.502815031254386 -16.91064032210868 164.05658777975665 0 1 0 0.82903758062907751 0 0.55919289150049634 forward_v I I I I #
face $-1 $124 $125 $45 $-1 $126 forward single #
loop $-1 $127 $128 $59 #
cone-surface $-1 55.019012392186148 -14.980785872082755 5.9173875310630883 -0.82903758062907751 0 -0.55919289150049634 0.27959644575024817 0 -0.41451879031453875 1 I I 0 1 0.5 forward I I I I #
face $-1 $129 $130 $46 $-1 $131 forward single #
loop $-1 $132 $133 $60 #
cone-surface $-1 55.019012392186148 -12.086004197043868 5.9173875310630883 -0.82903758062907751 0 -0.55919289150049634 0.27959644575024817 0 -0.41451879031453875 1 I I 0 1 0.5 forward I I I I #
face $-1 $134 $135 $47 $-1 $136 reversed single #
loop $-1 $-1 $137 $61 #
plane-surface $-1 89.502815031254386 -5.4882568814535784 164.05658777975665 0 1 0 0.82903758062907751 0 0.55919289150049634 forward_v I I I I #
face $-1 $138 $139 $48 $-1 $140 forward single #
loop $-1 $141 $142 $62 #
cone-surface $-1 55.019012392186148 -3.5584024314276519 5.9173875310630883 -0.82903758062907751 0 -0.55919289150049634 0.27959644575024817 0 -0.41451879031453875 1 I I 0 1 0.5 forward I I I I #
face $-1 $143 $144 $49 $-1 $145 forward single #
loop $-1 $146 $147 $63 #
cone-surface $-1 55.019012392186148 -0.66362075638876661 5.9173875310630883 -0.82903758062907751 0 -0.55919289150049634 0.27959644575024817 0 -0.41451879031453875 1 I I 0 1 0.5 forward I I I I #
face $-1 $148 $149 $50 $-1 $150 reversed single #
loop $-1 $-1 $151 $64 #
plane-surface $-1 89.502815031254386 5.9341265592015251 164.05658777975665 0 1 0 0.82903758062907751 0 0.55919289150049634 forward_v I I I I #
face $-1 $152 $153 $51 $-1 $154 forward single #
loop $-1 $155 $156 $65 #
cone-surface $-1 55.019012392186148 7.8639810092274516 5.9173875310630883 -0.82903758062907751 0 -0.55919289150049634 0.27959644575024817 0 -0.41451879031453875 1 I I 0 1 0.5 forward I I I I #
face $-1 $157 $158 $52 $-1 $159 forward single #
loop $-1 $160 $161 $66 #
cone-surface $-1 55.019012392186148 10.758762684266337 5.9173875310630883 -0.82903758062907751 0 -0.55919289150049634 0.27959644575024817 0 -0.41451879031453875 1 I I 0 1 0.5 forward I I I I #
face $-1 $162 $163 $53 $-1 $164 reversed single #
loop $-1 $-1 $165 $67 #
plane-surface $-1 89.502815031254386 17.356509999856627 164.05658777975665 0 1 0 0.82903758062907751 0 0.55919289150049634 forward_v I I I I #
face $-1 $166 $167 $54 $-1 $168 forward single #
loop $-1 $169 $170 $68 #
cone-surface $-1 55.019012392186148 19.286364449882555 5.9173875310630883 -0.82903758062907751 0 -0.55919289150049634 0.27959644575024817 0 -0.41451879031453875 1 I I 0 1 0.5 forward I I I I #
face $-1 $171 $172 $55 $-1 $173 forward single #
loop $-1 $174 $175 $69 #
cone-surface $-1 55.019012392186148 22.18114612492144 5.9173875310630883 -0.82903758062907751 0 -0.55919289150049634 0.27959644575024817 0 -0.41451879031453875 1 I I 0 1 0.5 forward I I I I #
face $-1 $176 $177 $42 $-1 $178 reversed single #
loop $-1 $-1 $179 $70 #
plane-surface $-1 0 0 -10.02259980598164 0 0 1 1 0 0 forward_v I I I I #
coedge $-1 $180 $181 $182 $183 forward $71 $-1 #
face $-1 $184 $185 $43 $-1 $186 reversed single #
loop $-1 $-1 $187 $73 #
plane-surface $-1 0 -23.16994392537482 -3.6891215120191969 0 0 1 1 0 0 forward_v I I I I #
coedge $-1 $188 $189 $190 $191 reversed $74 $-1 #
face $-1 $192 $193 $44 $-1 $194 reversed single #
loop $-1 $-1 $195 $76 #
plane-surface $-1 -6.8818171950123741 -13.533395034563311 99.044334475243858 0.82903758062907751 0 0.55919289150049634 0.55919289150049634 0 -0.82903758062907751 forward_v I I I I #
coedge $-1 $196 $197 $198 $199 reversed $77 $-1 #
face $-1 $-1 $200 $45 $-1 $201 forward single #
loop $-1 $202 $203 $79 #
cone-surface $-1 54.183497757794413 -14.980785872082755 5.353825811771701 -0.82903758062907751 0 -0.55919289150049634 0.13979822287512408 0 -0.20725939515726938 1 I I -0.70710678118654746 0.70710678118654746 0.25 forward I I I I #
loop $-1 $-1 $204 $59 #
coedge $-1 $128 $128 $205 $206 reversed $80 $-1 #
face $-1 $-1 $207 $46 $-1 $208 forward single #
loop $-1 $209 $210 $82 #
cone-surface $-1 54.183497757794413 -12.086004197043868 5.353825811771701 -0.82903758062907751 0 -0.55919289150049634 0.13979822287512408 0 -0.20725939515726938 1 I I -0.70710678118654746 0.70710678118654746 0.25 forward I I I I #
loop $-1 $-1 $211 $60 #
coedge $-1 $133 $133 $212 $213 reversed $83 $-1 #
face $-1 $214 $215 $47 $-1 $216 reversed single #
loop $-1 $-1 $217 $85 #
plane-surface $-1 -6.8818171950123741 -2.1110115939082092 99.044334475243858 0.82903758062907751 0 0.55919289150049634 0.55919289150049634 0 -0.82903758062907751 forward_v I I I I #
coedge $-1 $218 $219 $220 $221 reversed $86 $-1 #
face $-1 $-1 $222 $48 $-1 $223 forward single #
loop $-1 $224 $225 $88 #
cone-surface $-1 54.183497757794413 -3.5584024314276519 5.353825811771701 -0.82903758062907751 0 -0.55919289150049634 0.13979822287512408 0 -0.20725939515726938 1 I I -0.70710678118654746 0.70710678118654746 0.25 forward I I I I #
loop $-1 $-1 $226 $62 #
coedge $-1 $142 $142 $227 $228 reversed $89 $-1 #
face $-1 $-1 $229 $49 $-1 $230 forward single #
loop $-1 $231 $232 $91 #
cone-surface $-1 54.183497757794413 -0.66362075638876661 5.353825811771701 -0.82903758062907751 0 -0.55919289150049634 0.13979822287512408 0 -0.20725939515726938 1 I I -0.70710678118654746 0.70710678118654746 0.25 forward I I I I #
loop $-1 $-1 $233 $63 #
coedge $-1 $147 $147 $234 $235 reversed $92 $-1 #
face $-1 $236 $237 $50 $-1 $238 reversed single #
loop $-1 $-1 $239 $94 #
plane-surface $-1 -6.8818171950123741 9.3113718467468942 99.044334475243858 0.82903758062907751 0 0.55919289150049634 0.55919289150049634 0 -0.82903758062907751 forward_v I I I I #
coedge $-1 $240 $241 $242 $243 reversed $95 $-1 #
face $-1 $-1 $244 $51 $-1 $245 forward single #
loop $-1 $246 $247 $97 #
cone-surface $-1 54.183497757794413 7.8639810092274516 5.353825811771701 -0.82903758062907751 0 -0.55919289150049634 0.13979822287512408 0 -0.20725939515726938 1 I I -0.70710678118654746 0.70710678118654746 0.25 forward I I I I #
loop $-1 $-1 $248 $65 #
coedge $-1 $156 $156 $249 $250 reversed $98 $-1 #
face $-1 $-1 $251 $52 $-1 $252 forward single #
loop $-1 $253 $254 $100 #
cone-surface $-1 54.183497757794413 10.758762684266337 5.353825811771701 -0.82903758062907751 0 -0.55919289150049634 0.13979822287512408 0 -0.20725939515726938 1 I I -0.70710678118654746 0.70710678118654746 0.25 forward I I I I #
loop $-1 $-1 $255 $66 #
coedge $-1 $161 $161 $256 $257 reversed $101 $-1 #
face $-1 $258 $259 $53 $-1 $260 reversed single #
loop $-1 $-1 $261 $103 #
plane-surface $-1 -6.8818171950123741 20.733755287401998 99.044334475243858 0.82903758062907751 0 0.55919289150049634 0.55919289150049634 0 -0.82903758062907751 forward_v I I I I #
coedge $-1 $262 $263 $264 $265 reversed $104 $-1 #
face $-1 $-1 $266 $54 $-1 $267 forward single #
loop $-1 $268 $269 $106 #
cone-surface $-1 54.183497757794413 19.286364449882555 5.353825811771701 -0.82903758062907751 0 -0.55919289150049634 0.13979822287512408 0 -0.20725939515726938 1 I I -0.70710678118654746 0.70710678118654746 0.25 forward I I I I #
loop $-1 $-1 $270 $68 #
coedge $-1 $170 $170 $271 $272 reversed $107 $-1 #
face $-1 $-1 $273 $55 $-1 $274 forward single #
loop $-1 $275 $276 $109 #
cone-surface $-1 54.183497757794413 22.18114612492144 5.353825811771701 -0.82903758062907751 0 -0.55919289150049634 0.13979822287512408 0 -0.20725939515726938 1 I I -0.70710678118654746 0.70710678118654746 0.25 forward I I I I #
loop $-1 $-1 $277 $69 #
coedge $-1 $175 $175 $278 $279 reversed $110 $-1 #
face $-1 $280 $281 $42 $-1 $282 reversed single #
loop $-1 $-1 $283 $112 #
plane-surface $-1 0 -26.770124051794163 0 0 1 0 0 0 1 forward_v I I I I #
coedge $-1 $284 $285 $286 $287 forward $113 $-1 #
coedge $-1 $288 $115 $289 $290 forward $71 $-1 #
coedge $-1 $115 $288 $291 $292 forward $71 $-1 #
coedge $-1 $293 $294 $115 $183 reversed $295 $-1 #
edge $-1 $296 -26.770124051794163 $297 26.770124051794163 $182 $298 forward 7 unknown #
face $-1 $299 $300 $43 $-1 $301 reversed single #
loop $-1 $-1 $302 $116 #
plane-surface $-1 0 -19.569763798955478 -2.0258660731634466 0 -1 0 0 0 -1 forward_v I I I I #
coedge $-1 $303 $304 $305 $306 reversed $117 $-1 #
coedge $-1 $307 $119 $308 $309 forward $74 $-1 #
coedge $-1 $119 $307 $310 $311 reversed $74 $-1 #
coedge $-1 $312 $313 $119 $191 forward $314 $-1 #
edge $-1 $315 7.9847918362680677 $316 15.185152089106753 $190 $317 forward 7 unknown #
face $-1 $318 $319 $44 $-1 $320 forward single #
loop $-1 $-1 $321 $120 #
plane-surface $-1 89.502815031254386 -10.156149747017942 164.05658777975665 0 -1 0 -0.82903758062907751 0 -0.55919289150049634 forward_v I I I I #
coedge $-1 $322 $323 $324 $325 reversed $121 $-1 #
coedge $-1 $197 $123 $326 $327 reversed $77 $-1 #
coedge $-1 $123 $196 $322 $328 reversed $77 $-1 #
coedge $-1 $324 $329 $123 $199 forward $330 $-1 #
edge $-1 $331 72.005694083896685 $332 79.368591640901229 $198 $333 forward 7 unknown #
loop $-1 $-1 $205 $124 #
plane-surface $-1 -6.8818171950123741 -13.533395034563311 99.044334475243858 0.82903758062907751 0 0.55919289150049634 0.55919289150049634 0 -0.82903758062907751 forward_v I I I I #
loop $-1 $-1 $334 $79 #
coedge $-1 $203 $203 $204 $335 reversed $125 $-1 #
coedge $-1 $204 $204 $203 $335 forward $127 $-1 #
coedge $-1 $205 $205 $128 $206 forward $200 $-1 #
edge $-1 $336 0 $336 6.2831853071796004 $205 $337 forward 7 unknown #
loop $-1 $-1 $212 $129 #
plane-surface $-1 -6.8818171950123741 -13.533395034563311 99.044334475243858 0.82903758062907751 0 0.55919289150049634 0.55919289150049634 0 -0.82903758062907751 forward_v I I I I #
loop $-1 $-1 $338 $82 #
coedge $-1 $210 $210 $211 $339 reversed $130 $-1 #
coedge $-1 $211 $211 $210 $339 forward $132 $-1 #
coedge $-1 $212 $212 $133 $213 forward $207 $-1 #
edge $-1 $340 0 $340 6.2831853071796004 $212 $341 forward 7 unknown #
face $-1 $342 $343 $47 $-1 $344 reversed single #
loop $-1 $-1 $345 $134 #
plane-surface $-1 89.502815031254386 1.2662336936371599 164.05658777975665 0 -1 0 -0.82903758062907751 0 -0.55919289150049634 forward_v I I I I #
coedge $-1 $346 $347 $348 $349 reversed $135 $-1 #
coedge $-1 $219 $137 $350 $351 reversed $86 $-1 #
coedge $-1 $137 $218 $346 $352 reversed $86 $-1 #
coedge $-1 $348 $353 $137 $221 forward $343 $-1 #
edge $-1 $354 72.005694083896685 $355 79.368591640901229 $220 $356 forward 7 unknown #
loop $-1 $-1 $227 $138 #
plane-surface $-1 -6.8818171950123741 -2.1110115939082092 99.044334475243858 0.82903758062907751 0 0.55919289150049634 0.55919289150049634 0 -0.82903758062907751 forward_v I I I I #
loop $-1 $-1 $357 $88 #
coedge $-1 $225 $225 $226 $358 reversed $139 $-1 #
coedge $-1 $226 $226 $225 $358 forward $141 $-1 #
coedge $-1 $227 $227 $142 $228 forward $222 $-1 #
edge $-1 $359 0 $359 6.2831853071796004 $227 $360 forward 7 unknown #
loop $-1 $-1 $234 $143 #
plane-surface $-1 -6.8818171950123741 -2.1110115939082092 99.044334475243858 0.82903758062907751 0 0.55919289150049634 0.55919289150049634 0 -0.82903758062907751 forward_v I I I I #
loop $-1 $-1 $361 $91 #
coedge $-1 $232 $232 $233 $362 reversed $144 $-1 #
coedge $-1 $233 $233 $232 $362 forward $146 $-1 #
coedge $-1 $234 $234 $147 $235 forward $229 $-1 #
edge $-1 $363 0 $363 6.2831853071796004 $234 $364 forward 7 unknown #
face $-1 $365 $366 $50 $-1 $367 reversed single #
loop $-1 $-1 $368 $148 #
plane-surface $-1 89.502815031254386 12.688617134292263 164.05658777975665 0 -1 0 -0.82903758062907751 0 -0.55919289150049634 forward_v I I I I #
coedge $-1 $369 $370 $371 $372 reversed $149 $-1 #
coedge $-1 $241 $151 $373 $374 reversed $95 $-1 #
coedge $-1 $151 $240 $369 $375 reversed $95 $-1 #
coedge $-1 $371 $376 $151 $243 forward $366 $-1 #
edge $-1 $377 72.005694083896685 $378 79.368591640901229 $242 $379 forward 7 unknown #
loop $-1 $-1 $249 $152 #
plane-surface $-1 -6.8818171950123741 9.3113718467468942 99.044334475243858 0.82903758062907751 0 0.55919289150049634 0.55919289150049634 0 -0.82903758062907751 forward_v I I I I #
loop $-1 $-1 $380 $97 #
coedge $-1 $247 $247 $248 $381 reversed $153 $-1 #
coedge $-1 $248 $248 $247 $381 forward $155 $-1 #
coedge $-1 $249 $249 $156 $250 forward $244 $-1 #
edge $-1 $382 0 $382 6.2831853071796004 $249 $383 forward 7 unknown #
loop $-1 $-1 $256 $157 #
plane-surface $-1 -6.8818171950123741 9.3113718467468942 99.044334475243858 0.82903758062907751 0 0.55919289150049634 0.55919289150049634 0 -0.82903758062907751 forward_v I I I I #
loop $-1 $-1 $384 $100 #
coedge $-1 $254 $254 $255 $385 reversed $158 $-1 #
coedge $-1 $255 $255 $254 $385 forward $160 $-1 #
coedge $-1 $256 $256 $161 $257 forward $251 $-1 #
edge $-1 $386 0 $386 6.2831853071796004 $256 $387 forward 7 unknown #
face $-1 $388 $389 $53 $-1 $390 reversed single #
loop $-1 $-1 $391 $162 #
plane-surface $-1 89.502815031254386 24.111000574947369 164.05658777975665 0 -1 0 -0.82903758062907751 0 -0.55919289150049634 forward_v I I I I #
coedge $-1 $392 $393 $394 $395 reversed $163 $-1 #
coedge $-1 $263 $165 $396 $397 reversed $104 $-1 #
coedge $-1 $165 $262 $392 $398 reversed $104 $-1 #
coedge $-1 $394 $399 $165 $265 forward $389 $-1 #
edge $-1 $400 72.005694083896685 $401 79.368591640901229 $264 $402 forward 7 unknown #
loop $-1 $-1 $271 $166 #
plane-surface $-1 -6.8818171950123741 20.733755287401998 99.044334475243858 0.82903758062907751 0 0.55919289150049634 0.55919289150049634 0 -0.82903758062907751 forward_v I I I I #
loop $-1 $-1 $403 $106 #
coedge $-1 $269 $269 $270 $404 reversed $167 $-1 #
coedge $-1 $270 $270 $269 $404 forward $169 $-1 #
coedge $-1 $271 $271 $170 $272 forward $266 $-1 #
edge $-1 $405 0 $405 6.2831853071796004 $271 $406 forward 7 unknown #
loop $-1 $-1 $278 $171 #
plane-surface $-1 -6.8818171950123741 20.733755287401998 99.044334475243858 0.82903758062907751 0 0.55919289150049634 0.55919289150049634 0 -0.82903758062907751 forward_v I I I I #
loop $-1 $-1 $407 $109 #
coedge $-1 $276 $276 $277 $408 reversed $172 $-1 #
coedge $-1 $277 $277 $276 $408 forward $174 $-1 #
coedge $-1 $278 $278 $175 $279 forward $273 $-1 #
edge $-1 $409 0 $409 6.2831853071796004 $278 $410 forward 7 unknown #
face $-1 $411 $412 $42 $-1 $413 reversed single #
loop $-1 $-1 $414 $176 #
plane-surface $-1 -58.130436109500408 0 0 1 0 0 0 0 -1 forward_v I I I I #
coedge $-1 $415 $291 $416 $417 forward $177 $-1 #
coedge $-1 $418 $179 $415 $419 forward $113 $-1 #
coedge $-1 $179 $418 $420 $421 forward $113 $-1 #
coedge $-1 $294 $293 $179 $287 reversed $295 $-1 #
edge $-1 $422 -26.770124051794163 $423 26.770124051794163 $286 $424 forward 7 unknown #
coedge $-1 $181 $180 $425 $426 forward $71 $-1 #
coedge $-1 $427 $428 $180 $290 reversed $412 $-1 #
edge $-1 $297 -58.130436109500408 $429 58.130436109500408 $289 $430 forward 7 unknown #
coedge $-1 $283 $431 $181 $292 reversed $177 $-1 #
edge $-1 $432 -58.130436109500408 $296 58.130436109500408 $291 $433 forward 7 unknown #
coedge $-1 $286 $182 $431 $434 forward $295 $-1 #
coedge $-1 $182 $286 $427 $435 reversed $295 $-1 #
loop $-1 $-1 $293 $411 #
vertex $-1 $183 $436 #
vertex $-1 $183 $437 #
straight-curve $-1 58.130436109500408 0 10.02259980598164 0 1 0 I I #
face $-1 $438 $439 $43 $-1 $440 reversed single #
loop $-1 $-1 $441 $184 #
plane-surface $-1 -58.130436109500408 0 0 1 0 0 0 0 -1 forward_v I I I I #
coedge $-1 $442 $308 $313 $443 reversed $185 $-1 #
coedge $-1 $444 $187 $445 $446 reversed $117 $-1 #
coedge $-1 $187 $444 $442 $447 forward $117 $-1 #
coedge $-1 $313 $312 $187 $306 forward $314 $-1 #
edge $-1 $448 -15.185152089106753 $449 -7.9847918362680677 $305 $450 forward 7 unknown #
coedge $-1 $189 $188 $441 $451 reversed $74 $-1 #
coedge $-1 $302 $452 $188 $309 reversed $185 $-1 #
edge $-1 $315 -58.130436109500408 $453 58.130436109500408 $308 $454 forward 7 unknown #
coedge $-1 $455 $456 $189 $311 forward $439 $-1 #
edge $-1 $316 -58.130436109500408 $457 58.130436109500408 $310 $458 forward 7 unknown #
coedge $-1 $305 $190 $456 $459 forward $314 $-1 #
coedge $-1 $190 $305 $302 $443 forward $314 $-1 #
loop $-1 $-1 $190 $438 #
vertex $-1 $191 $460 #
vertex $-1 $459 $461 #
straight-curve $-1 58.130436109500408 -11.58497196268741 -0.36261063430769624 0 -1 0 I I #
face $-1 $-1 $330 $44 $-1 $462 reversed single #
loop $-1 $-1 $463 $192 #
plane-surface $-1 0 0 10.02259980598164 0 0 1 1 0 0 forward_v I I I I #
coedge $-1 $464 $465 $466 $467 reversed $193 $-1 #
coedge $-1 $468 $195 $197 $328 forward $121 $-1 #
coedge $-1 $195 $468 $464 $469 forward $121 $-1 #
coedge $-1 $466 $198 $195 $325 forward $330 $-1 #
edge $-1 $332 -10.143942804827024 $470 -3.3894522297362863 $324 $471 forward 7 unknown #
coedge $-1 $472 $473 $196 $327 forward $319 $-1 #
edge $-1 $474 8.4126916377136425 $331 13.379028593873215 $326 $475 forward 7 unknown #
edge $-1 $332 -116.26087221900082 $474 -107.37961311924137 $197 $476 forward 7 unknown #
coedge $-1 $198 $466 $472 $477 reversed $330 $-1 #
loop $-1 $-1 $466 $318 #
vertex $-1 $477 $478 #
vertex $-1 $199 $479 #
straight-curve $-1 58.130436109500408 -16.91064032210868 82.028293889878327 0 0 -1 I I #
coedge $-1 $334 $334 $-1 $480 reversed $202 $-1 #
edge $-1 $481 0 $481 6.2831853071796004 $203 $482 forward 7 unknown #
vertex $-1 $206 $483 #
ellipse-curve $-1 55.647267631420632 -14.980785872082755 6.3411510274793637 0.82903758062907751 0 0.55919289150049634 0.27959644575024817 0 -0.41451879031453875 1 I I #
coedge $-1 $338 $338 $-1 $484 reversed $209 $-1 #
edge $-1 $485 0 $485 6.2831853071796004 $210 $486 forward 7 unknown #
vertex $-1 $213 $487 #
ellipse-curve $-1 55.647267631420632 -12.086004197043868 6.3411510274793637 0.82903758062907751 0 0.55919289150049634 0.27959644575024817 0 -0.41451879031453875 1 I I #
face $-1 $-1 $488 $47 $-1 $489 forward single #
loop $-1 $-1 $220 $214 #
plane-surface $-1 58.130436109500408 0 0 -1 0 0 0 0 1 forward_v I I I I #
coedge $-1 $490 $491 $492 $493 reversed $215 $-1 #
coedge $-1 $494 $217 $219 $352 forward $135 $-1 #
coedge $-1 $217 $494 $490 $495 forward $135 $-1 #
coedge $-1 $492 $220 $217 $349 forward $343 $-1 #
edge $-1 $355 -4.4327510844994737 $496 2.3217394905912645 $348 $497 forward 7 unknown #
coedge $-1 $498 $499 $218 $351 forward $488 $-1 #
edge $-1 $500 8.4126916377136425 $354 13.379028593873215 $350 $501 forward 7 unknown #
edge $-1 $355 -116.26087221900082 $500 -107.37961311924137 $219 $502 forward 7 unknown #
coedge $-1 $220 $492 $498 $503 reversed $343 $-1 #
vertex $-1 $503 $504 #
vertex $-1 $221 $505 #
straight-curve $-1 58.130436109500408 -5.4882568814535784 82.028293889878327 0 0 -1 I I #
coedge $-1 $357 $357 $-1 $506 reversed $224 $-1 #
edge $-1 $507 0 $507 6.2831853071796004 $225 $508 forward 7 unknown #
vertex $-1 $228 $509 #
ellipse-curve $-1 55.647267631420632 -3.5584024314276519 6.3411510274793637 0.82903758062907751 0 0.55919289150049634 0.27959644575024817 0 -0.41451879031453875 1 I I #
coedge $-1 $361 $361 $-1 $510 reversed $231 $-1 #
edge $-1 $511 0 $511 6.2831853071796004 $232 $512 forward 7 unknown #
vertex $-1 $235 $513 #
ellipse-curve $-1 55.647267631420632 -0.66362075638876661 6.3411510274793637 0.82903758062907751 0 0.55919289150049634 0.27959644575024817 0 -0.41451879031453875 1 I I #
face $-1 $-1 $514 $50 $-1 $515 forward single #
loop $-1 $-1 $242 $236 #
plane-surface $-1 58.130436109500408 0 0 -1 0 0 0 0 1 forward_v I I I I #
coedge $-1 $516 $517 $518 $519 reversed $237 $-1 #
coedge $-1 $520 $239 $241 $375 forward $149 $-1 #
coedge $-1 $239 $520 $516 $521 forward $149 $-1 #
coedge $-1 $518 $242 $239 $372 forward $366 $-1 #
edge $-1 $378 1.278440635828078 $522 8.0329312109188162 $371 $523 forward 7 unknown #
coedge $-1 $524 $525 $240 $374 forward $514 $-1 #
edge $-1 $526 8.4126916377136425 $377 13.379028593873215 $373 $527 forward 7 unknown #
edge $-1 $378 -116.26087221900082 $526 -107.37961311924137 $241 $528 forward 7 unknown #
coedge $-1 $242 $518 $524 $529 reversed $366 $-1 #
vertex $-1 $529 $530 #
vertex $-1 $243 $531 #
straight-curve $-1 58.130436109500408 5.9341265592015251 82.028293889878327 0 0 -1 I I #
coedge $-1 $380 $380 $-1 $532 reversed $246 $-1 #
edge $-1 $533 0 $533 6.2831853071796004 $247 $534 forward 7 unknown #
vertex $-1 $250 $535 #
ellipse-curve $-1 55.647267631420632 7.8639810092274516 6.3411510274793637 0.82903758062907751 0 0.55919289150049634 0.27959644575024817 0 -0.41451879031453875 1 I I #
coedge $-1 $384 $384 $-1 $536 reversed $253 $-1 #
edge $-1 $537 0 $537 6.2831853071796004 $254 $538 forward 7 unknown #
vertex $-1 $257 $539 #
ellipse-curve $-1 55.647267631420632 10.758762684266337 6.3411510274793637 0.82903758062907751 0 0.55919289150049634 0.27959644575024817 0 -0.41451879031453875 1 I I #
face $-1 $-1 $540 $53 $-1 $541 forward single #
loop $-1 $-1 $264 $258 #
plane-surface $-1 58.130436109500408 0 0 -1 0 0 0 0 1 forward_v I I I I #
coedge $-1 $542 $543 $544 $545 reversed $259 $-1 #
coedge $-1 $546 $261 $263 $398 forward $163 $-1 #
coedge $-1 $261 $546 $542 $547 forward $163 $-1 #
coedge $-1 $544 $264 $261 $395 forward $389 $-1 #
edge $-1 $401 6.9896323561556279 $548 13.74412293124637 $394 $549 forward 7 unknown #
coedge $-1 $550 $551 $262 $397 forward $540 $-1 #
edge $-1 $552 8.4126916377136425 $400 13.379028593873215 $396 $553 forward 7 unknown #
edge $-1 $401 -116.26087221900082 $552 -107.37961311924137 $263 $554 forward 7 unknown #
coedge $-1 $264 $544 $550 $555 reversed $389 $-1 #
vertex $-1 $555 $556 #
vertex $-1 $265 $557 #
straight-curve $-1 58.130436109500408 17.356509999856627 82.028293889878327 0 0 -1 I I #
coedge $-1 $403 $403 $-1 $558 reversed $268 $-1 #
edge $-1 $559 0 $559 6.2831853071796004 $269 $560 forward 7 unknown #
vertex $-1 $272 $561 #
ellipse-curve $-1 55.647267631420632 19.286364449882555 6.3411510274793637 0.82903758062907751 0 0.55919289150049634 0.27959644575024817 0 -0.41451879031453875 1 I I #
coedge $-1 $407 $407 $-1 $562 reversed $275 $-1 #
edge $-1 $563 0 $563 6.2831853071796004 $276 $564 forward 7 unknown #
vertex $-1 $279 $565 #
ellipse-curve $-1 55.647267631420632 22.18114612492144 6.3411510274793637 0.82903758062907751 0 0.55919289150049634 0.27959644575024817 0 -0.41451879031453875 1 I I #
face $-1 $-1 $295 $42 $-1 $566 reversed single #
loop $-1 $-1 $427 $280 #
plane-surface $-1 0 26.770124051794163 0 0 -1 0 0 0 -1 forward_v I I I I #
coedge $-1 $567 $425 $428 $568 forward $281 $-1 #
coedge $-1 $431 $283 $284 $419 reversed $177 $-1 #
coedge $-1 $425 $567 $283 $417 reversed $281 $-1 #
edge $-1 $432 -10.02259980598164 $569 10.02259980598164 $416 $570 forward 7 unknown #
coedge $-1 $285 $284 $567 $571 forward $113 $-1 #
edge $-1 $423 -58.130436109500408 $569 58.130436109500408 $415 $572 forward 7 unknown #
coedge $-1 $428 $427 $285 $421 reversed $412 $-1 #
edge $-1 $573 -58.130436109500408 $422 58.130436109500408 $420 $574 forward 7 unknown #
vertex $-1 $287 $575 #
vertex $-1 $434 $576 #
straight-curve $-1 58.130436109500408 0 -10.02259980598164 0 -1 0 I I #
coedge $-1 $414 $416 $288 $426 reversed $281 $-1 #
edge $-1 $429 -26.770124051794163 $432 26.770124051794163 $425 $577 forward 7 unknown #
coedge $-1 $420 $289 $294 $435 forward $412 $-1 #
coedge $-1 $289 $420 $414 $568 reversed $412 $-1 #
vertex $-1 $290 $578 #
straight-curve $-1 0 26.770124051794163 10.02259980598164 -1 0 0 I I #
coedge $-1 $291 $415 $293 $434 reversed $177 $-1 #
vertex $-1 $426 $579 #
straight-curve $-1 0 -26.770124051794163 10.02259980598164 1 0 0 I I #
edge $-1 $296 -10.02259980598164 $423 10.02259980598164 $293 $580 forward 7 unknown #
edge $-1 $297 -10.02259980598164 $422 10.02259980598164 $294 $581 forward 7 unknown #
point $-1 58.130436109500408 -26.770124051794163 10.02259980598164 #
point $-1 58.130436109500408 26.770124051794163 10.02259980598164 #
face $-1 $-1 $314 $43 $-1 $582 reversed single #
loop $-1 $-1 $310 $299 #
plane-surface $-1 0 -26.770124051794163 0 0 1 0 0 0 1 forward_v I I I I #
coedge $-1 $583 $584 $307 $451 forward $300 $-1 #
coedge $-1 $452 $302 $304 $447 reversed $185 $-1 #
edge $-1 $449 -2.6761884754374736 $315 0.65032240227402704 $313 $585 forward 7 unknown #
coedge $-1 $304 $303 $586 $587 reversed $117 $-1 #
coedge $-1 $456 $455 $303 $446 forward $439 $-1 #
edge $-1 $588 -58.130436109500408 $448 58.130436109500408 $445 $589 forward 7 unknown #
edge $-1 $590 -58.130436109500408 $449 58.130436109500408 $442 $591 forward 7 unknown #
vertex $-1 $446 $592 #
vertex $-1 $306 $593 #
straight-curve $-1 58.130436109500408 -11.58497196268741 -3.6891215120191969 0 1 0 I I #
edge $-1 $457 -15.185152089106753 $453 -7.9847918362680677 $441 $594 forward 7 unknown #
coedge $-1 $308 $442 $583 $595 reversed $185 $-1 #
vertex $-1 $451 $596 #
straight-curve $-1 0 -19.569763798955478 -0.36261063430769624 -1 0 0 I I #
coedge $-1 $445 $310 $584 $597 forward $439 $-1 #
coedge $-1 $310 $445 $312 $459 reversed $439 $-1 #
vertex $-1 $597 $598 #
straight-curve $-1 0 -26.770124051794163 -0.36261063430769624 -1 0 0 I I #
edge $-1 $316 0.36261063430769624 $448 3.6891215120191969 $312 $599 forward 7 unknown #
point $-1 58.130436109500408 -19.569763798955478 -0.36261063430769624 #
point $-1 58.130436109500408 -26.770124051794163 -0.36261063430769624 #
plane-surface $-1 58.130436109500408 0 0 -1 0 0 0 0 1 forward_v I I I I #
coedge $-1 $473 $472 $465 $600 forward $319 $-1 #
coedge $-1 $465 $321 $323 $469 reversed $193 $-1 #
coedge $-1 $321 $464 $463 $600 reversed $193 $-1 #
coedge $-1 $329 $324 $321 $467 forward $330 $-1 #
edge $-1 $470 -79.368591640901229 $601 -72.005694083896685 $466 $602 forward 7 unknown #
coedge $-1 $323 $322 $473 $603 reversed $121 $-1 #
edge $-1 $604 107.37961311924137 $470 116.26087221900082 $464 $605 forward 7 unknown #
vertex $-1 $325 $606 #
straight-curve $-1 58.130436109500408 -6.7666975172816555 2.6597022489770978 0 1 0 I I #
coedge $-1 $463 $326 $329 $477 forward $319 $-1 #
coedge $-1 $326 $463 $468 $603 forward $319 $-1 #
vertex $-1 $327 $607 #
straight-curve $-1 44.751407515627193 -16.91064032210868 10.022599805981642 1 0 0 I I #
straight-curve $-1 -6.8818171950123741 -16.91064032210868 99.044334475243858 -0.55919289150049634 0 0.82903758062907751 I I #
edge $-1 $331 -16.91064032210868 $601 -10.156149747017942 $329 $608 forward 7 unknown #
point $-1 58.130436109500408 -16.91064032210868 10.02259980598164 #
point $-1 58.130436109500408 -16.91064032210868 2.6597022489770978 #
edge $-1 $609 1 $609 0 $334 $-1 forward 7 unknown #
vertex $-1 $335 $610 #
ellipse-curve $-1 54.390757152951686 -14.980785872082755 5.4936240346468255 0.82903758062907751 0 0.55919289150049634 0.27959644575024817 0 -0.41451879031453875 1 I I #
point $-1 55.926864077170862 -14.980785872082755 5.9266322371648128 #
edge $-1 $611 1 $611 0 $338 $-1 forward 7 unknown #
vertex $-1 $339 $612 #
ellipse-curve $-1 54.390757152951686 -12.086004197043868 5.4936240346468255 0.82903758062907751 0 0.55919289150049634 0.27959644575024817 0 -0.41451879031453875 1 I I #
point $-1 55.926864077170862 -12.086004197043868 5.9266322371648128 #
loop $-1 $-1 $350 $342 #
plane-surface $-1 0 0 10.02259980598164 0 0 1 1 0 0 forward_v I I I I #
coedge $-1 $491 $345 $347 $495 reversed $215 $-1 #
coedge $-1 $345 $490 $613 $614 reversed $215 $-1 #
coedge $-1 $353 $348 $345 $493 forward $343 $-1 #
edge $-1 $496 -79.368591640901229 $615 -72.005694083896685 $492 $616 forward 7 unknown #
coedge $-1 $347 $346 $499 $617 reversed $135 $-1 #
edge $-1 $618 107.37961311924137 $496 116.26087221900082 $490 $619 forward 7 unknown #
vertex $-1 $349 $620 #
straight-curve $-1 58.130436109500408 -1.0555057969541046 2.6597022489770978 0 1 0 I I #
coedge $-1 $613 $350 $353 $503 forward $488 $-1 #
coedge $-1 $350 $613 $494 $617 forward $488 $-1 #
vertex $-1 $351 $621 #
straight-curve $-1 44.751407515627193 -5.4882568814535784 10.022599805981642 1 0 0 I I #
straight-curve $-1 -6.8818171950123741 -5.4882568814535784 99.044334475243858 -0.55919289150049634 0 0.82903758062907751 I I #
edge $-1 $354 -5.4882568814535784 $615 1.2662336936371599 $353 $622 forward 7 unknown #
point $-1 58.130436109500408 -5.4882568814535784 10.02259980598164 #
point $-1 58.130436109500408 -5.4882568814535784 2.6597022489770978 #
edge $-1 $623 1 $623 0 $357 $-1 forward 7 unknown #
vertex $-1 $358 $624 #
ellipse-curve $-1 54.390757152951686 -3.5584024314276519 5.4936240346468255 0.82903758062907751 0 0.55919289150049634 0.27959644575024817 0 -0.41451879031453875 1 I I #
point $-1 55.926864077170862 -3.5584024314276519 5.9266322371648128 #
edge $-1 $625 1 $625 0 $361 $-1 forward 7 unknown #
vertex $-1 $362 $626 #
ellipse-curve $-1 54.390757152951686 -0.66362075638876661 5.4936240346468255 0.82903758062907751 0 0.55919289150049634 0.27959644575024817 0 -0.41451879031453875 1 I I #
point $-1 55.926864077170862 -0.66362075638876661 5.9266322371648128 #
loop $-1 $-1 $373 $365 #
plane-surface $-1 0 0 10.02259980598164 0 0 1 1 0 0 forward_v I I I I #
coedge $-1 $517 $368 $370 $521 reversed $237 $-1 #
coedge $-1 $368 $516 $627 $628 reversed $237 $-1 #
coedge $-1 $376 $371 $368 $519 forward $366 $-1 #
edge $-1 $522 -79.368591640901229 $629 -72.005694083896685 $518 $630 forward 7 unknown #
coedge $-1 $370 $369 $525 $631 reversed $149 $-1 #
edge $-1 $632 107.37961311924137 $522 116.26087221900082 $516 $633 forward 7 unknown #
vertex $-1 $372 $634 #
straight-curve $-1 58.130436109500408 4.6556859233734471 2.6597022489770978 0 1 0 I I #
coedge $-1 $627 $373 $376 $529 forward $514 $-1 #
coedge $-1 $373 $627 $520 $631 forward $514 $-1 #
vertex $-1 $374 $635 #
straight-curve $-1 44.751407515627193 5.9341265592015251 10.022599805981642 1 0 0 I I #
straight-curve $-1 -6.8818171950123741 5.9341265592015251 99.044334475243858 -0.55919289150049634 0 0.82903758062907751 I I #
edge $-1 $377 5.9341265592015251 $629 12.688617134292263 $376 $636 forward 7 unknown #
point $-1 58.130436109500408 5.9341265592015251 10.02259980598164 #
point $-1 58.130436109500408 5.9341265592015251 2.6597022489770978 #
edge $-1 $637 1 $637 0 $380 $-1 forward 7 unknown #
vertex $-1 $381 $638 #
ellipse-curve $-1 54.390757152951686 7.8639810092274516 5.4936240346468255 0.82903758062907751 0 0.55919289150049634 0.27959644575024817 0 -0.41451879031453875 1 I I #
point $-1 55.926864077170862 7.8639810092274516 5.9266322371648128 #
edge $-1 $639 1 $639 0 $384 $-1 forward 7 unknown #
vertex $-1 $385 $640 #
ellipse-curve $-1 54.390757152951686 10.758762684266337 5.4936240346468255 0.82903758062907751 0 0.55919289150049634 0.27959644575024817 0 -0.41451879031453875 1 I I #
point $-1 55.926864077170862 10.758762684266337 5.9266322371648128 #
loop $-1 $-1 $396 $388 #
plane-surface $-1 0 0 10.02259980598164 0 0 1 1 0 0 forward_v I I I I #
coedge $-1 $543 $391 $393 $547 reversed $259 $-1 #
coedge $-1 $391 $542 $641 $642 reversed $259 $-1 #
coedge $-1 $399 $394 $391 $545 forward $389 $-1 #
edge $-1 $548 -79.368591640901229 $643 -72.005694083896685 $544 $644 forward 7 unknown #
coedge $-1 $393 $392 $551 $645 reversed $163 $-1 #
edge $-1 $646 107.37961311924137 $548 116.26087221900082 $542 $647 forward 7 unknown #
vertex $-1 $395 $648 #
straight-curve $-1 58.130436109500408 10.366877643700999 2.6597022489770978 0 1 0 I I #
coedge $-1 $641 $396 $399 $555 forward $540 $-1 #
coedge $-1 $396 $641 $546 $645 forward $540 $-1 #
vertex $-1 $397 $649 #
straight-curve $-1 44.751407515627193 17.356509999856627 10.022599805981642 1 0 0 I I #
straight-curve $-1 -6.8818171950123741 17.356509999856627 99.044334475243858 -0.55919289150049634 0 0.82903758062907751 I I #
edge $-1 $400 17.356509999856627 $643 24.111000574947369 $399 $650 forward 7 unknown #
point $-1 58.130436109500408 17.356509999856627 10.02259980598164 #
point $-1 58.130436109500408 17.356509999856627 2.6597022489770978 #
edge $-1 $651 1 $651 0 $403 $-1 forward 7 unknown #
vertex $-1 $404 $652 #
ellipse-curve $-1 54.390757152951686 19.286364449882555 5.4936240346468255 0.82903758062907751 0 0.55919289150049634 0.27959644575024817 0 -0.41451879031453875 1 I I #
point $-1 55.926864077170862 19.286364449882555 5.9266322371648128 #
edge $-1 $653 1 $653 0 $407 $-1 forward 7 unknown #
vertex $-1 $408 $654 #
ellipse-curve $-1 54.390757152951686 22.18114612492144 5.4936240346468255 0.82903758062907751 0 0.55919289150049634 0.27959644575024817 0 -0.41451879031453875 1 I I #
point $-1 55.926864077170862 22.18114612492144 5.9266322371648128 #
plane-surface $-1 58.130436109500408 0 0 -1 0 0 0 0 1 forward_v I I I I #
coedge $-1 $416 $414 $418 $571 reversed $281 $-1 #
edge $-1 $429 -10.02259980598164 $573 10.02259980598164 $428 $655 forward 7 unknown #
vertex $-1 $571 $656 #
straight-curve $-1 -58.130436109500408 -26.770124051794163 0 0 0 -1 I I #
edge $-1 $569 -26.770124051794163 $573 26.770124051794163 $567 $657 forward 7 unknown #
straight-curve $-1 0 -26.770124051794163 -10.02259980598164 -1 0 0 I I #
vertex $-1 $421 $658 #
straight-curve $-1 0 26.770124051794163 -10.02259980598164 1 0 0 I I #
point $-1 58.130436109500408 26.770124051794163 -10.02259980598164 #
point $-1 58.130436109500408 -26.770124051794163 -10.02259980598164 #
straight-curve $-1 -58.130436109500408 0 10.02259980598164 0 -1 0 I I #
point $-1 -58.130436109500408 26.770124051794163 10.02259980598164 #
point $-1 -58.130436109500408 -26.770124051794163 10.02259980598164 #
straight-curve $-1 58.130436109500408 -26.770124051794163 0 0 0 -1 I I #
straight-curve $-1 58.130436109500408 26.770124051794163 0 0 0 -1 I I #
plane-surface $-1 58.130436109500408 0 0 -1 0 0 0 0 1 forward_v I I I I #
coedge $-1 $586 $441 $452 $595 forward $300 $-1 #
coedge $-1 $441 $586 $455 $597 reversed $300 $-1 #
straight-curve $-1 58.130436109500408 -19.569763798955478 -1.0129330365817233 0 0 1 I I #
coedge $-1 $584 $583 $444 $587 forward $300 $-1 #
edge $-1 $590 7.9847918362680677 $588 15.185152089106753 $586 $659 forward 7 unknown #
vertex $-1 $446 $660 #
straight-curve $-1 0 -26.770124051794163 -3.6891215120191969 1 0 0 I I #
vertex $-1 $587 $661 #
straight-curve $-1 0 -19.569763798955478 -3.6891215120191969 1 0 0 I I #
point $-1 58.130436109500408 -26.770124051794163 -3.6891215120191969 #
point $-1 58.130436109500408 -19.569763798955478 -3.6891215120191969 #
straight-curve $-1 -58.130436109500408 -11.58497196268741 -0.36261063430769624 0 1 0 I I #
edge $-1 $453 -0.65032240227402704 $590 2.6761884754374736 $583 $662 forward 7 unknown #
point $-1 -58.130436109500408 -19.569763798955478 -0.36261063430769624 #
edge $-1 $457 0.36261063430769624 $588 3.6891215120191969 $584 $663 forward 7 unknown #
point $-1 -58.130436109500408 -26.770124051794163 -0.36261063430769624 #
straight-curve $-1 58.130436109500408 -26.770124051794163 0 0 0 -1 I I #
edge $-1 $601 -13.379028593873215 $604 -8.4126916377136425 $463 $664 forward 7 unknown #
vertex $-1 $600 $665 #
straight-curve $-1 58.130436109500408 -10.156149747017942 82.028293889878327 0 0 1 I I #
edge $-1 $604 3.3894522297362863 $474 10.143942804827024 $473 $666 forward 7 unknown #
vertex $-1 $603 $667 #
straight-curve $-1 -6.8818171950123741 -10.156149747017942 99.044334475243858 0.55919289150049634 0 -0.82903758062907751 I I #
point $-1 58.130436109500408 -10.156149747017942 2.6597022489770978 #
point $-1 53.164099153340835 -16.91064032210868 10.022599805981642 #
straight-curve $-1 58.130436109500408 0 10.02259980598164 0 1 0 I I #
vertex $-1 $480 $668 #
point $-1 54.670353598701929 -14.980785872082755 5.0791052443322862 #
vertex $-1 $484 $669 #
point $-1 54.670353598701929 -12.086004197043868 5.0791052443322862 #
coedge $-1 $499 $498 $491 $614 forward $488 $-1 #
edge $-1 $615 -13.379028593873215 $618 -8.4126916377136425 $613 $670 forward 7 unknown #
vertex $-1 $614 $671 #
straight-curve $-1 58.130436109500408 1.2662336936371599 82.028293889878327 0 0 1 I I #
edge $-1 $618 -2.3217394905912645 $500 4.4327510844994737 $499 $672 forward 7 unknown #
vertex $-1 $617 $673 #
straight-curve $-1 -6.8818171950123741 1.2662336936371599 99.044334475243858 0.55919289150049634 0 -0.82903758062907751 I I #
point $-1 58.130436109500408 1.2662336936371599 2.6597022489770978 #
point $-1 53.164099153340835 -5.4882568814535784 10.022599805981642 #
straight-curve $-1 58.130436109500408 0 10.02259980598164 0 1 0 I I #
vertex $-1 $506 $674 #
point $-1 54.670353598701929 -3.5584024314276519 5.0791052443322862 #
vertex $-1 $510 $675 #
point $-1 54.670353598701929 -0.66362075638876661 5.0791052443322862 #
coedge $-1 $525 $524 $517 $628 forward $514 $-1 #
edge $-1 $629 -13.379028593873215 $632 -8.4126916377136425 $627 $676 forward 7 unknown #
vertex $-1 $628 $677 #
straight-curve $-1 58.130436109500408 12.688617134292263 82.028293889878327 0 0 1 I I #
edge $-1 $632 -8.0329312109188162 $526 -1.278440635828078 $525 $678 forward 7 unknown #
vertex $-1 $631 $679 #
straight-curve $-1 -6.8818171950123741 12.688617134292263 99.044334475243858 0.55919289150049634 0 -0.82903758062907751 I I #
point $-1 58.130436109500408 12.688617134292263 2.6597022489770978 #
point $-1 53.164099153340835 5.9341265592015251 10.022599805981642 #
straight-curve $-1 58.130436109500408 0 10.02259980598164 0 1 0 I I #
vertex $-1 $532 $680 #
point $-1 54.670353598701929 7.8639810092274516 5.0791052443322862 #
vertex $-1 $536 $681 #
point $-1 54.670353598701929 10.758762684266337 5.0791052443322862 #
coedge $-1 $551 $550 $543 $642 forward $540 $-1 #
edge $-1 $643 -13.379028593873215 $646 -8.4126916377136425 $641 $682 forward 7 unknown #
vertex $-1 $642 $683 #
straight-curve $-1 58.130436109500408 24.111000574947369 82.028293889878327 0 0 1 I I #
edge $-1 $646 -13.74412293124637 $552 -6.9896323561556279 $551 $684 forward 7 unknown #
vertex $-1 $645 $685 #
straight-curve $-1 -6.8818171950123741 24.111000574947369 99.044334475243858 0.55919289150049634 0 -0.82903758062907751 I I #
point $-1 58.130436109500408 24.111000574947369 2.6597022489770978 #
point $-1 53.164099153340835 17.356509999856627 10.022599805981642 #
straight-curve $-1 58.130436109500408 0 10.02259980598164 0 1 0 I I #
vertex $-1 $558 $686 #
point $-1 54.670353598701929 19.286364449882555 5.0791052443322862 #
vertex $-1 $562 $687 #
point $-1 54.670353598701929 22.18114612492144 5.0791052443322862 #
straight-curve $-1 -58.130436109500408 26.770124051794163 0 0 0 -1 I I #
point $-1 -58.130436109500408 -26.770124051794163 -10.02259980598164 #
straight-curve $-1 -58.130436109500408 0 -10.02259980598164 0 1 0 I I #
point $-1 -58.130436109500408 26.770124051794163 -10.02259980598164 #
straight-curve $-1 -58.130436109500408 -11.58497196268741 -3.6891215120191969 0 -1 0 I I #
point $-1 -58.130436109500408 -26.770124051794163 -3.6891215120191969 #
point $-1 -58.130436109500408 -19.569763798955478 -3.6891215120191969 #
straight-curve $-1 -58.130436109500408 -19.569763798955478 -1.0129330365817233 0 0 -1 I I #
straight-curve $-1 -58.130436109500408 -26.770124051794163 0 0 0 -1 I I #
straight-curve $-1 44.751407515627193 -10.156149747017942 10.022599805981642 -1 0 0 I I #
point $-1 58.130436109500408 -10.156149747017942 10.02259980598164 #
straight-curve $-1 53.164099153340842 -6.7666975172816555 10.022599805981642 0 -1 0 I I #
point $-1 53.164099153340835 -10.156149747017942 10.022599805981642 #
point $-1 53.97623836263714 -14.980785872082755 5.2140275888965766 #
point $-1 53.97623836263714 -12.086004197043868 5.2140275888965766 #
straight-curve $-1 44.751407515627193 1.2662336936371599 10.022599805981642 -1 0 0 I I #
point $-1 58.130436109500408 1.2662336936371599 10.02259980598164 #
straight-curve $-1 53.164099153340842 -1.0555057969541046 10.022599805981642 0 -1 0 I I #
point $-1 53.164099153340835 1.2662336936371599 10.022599805981642 #
point $-1 53.97623836263714 -3.5584024314276519 5.2140275888965766 #
point $-1 53.97623836263714 -0.66362075638876661 5.2140275888965766 #
straight-curve $-1 44.751407515627193 12.688617134292263 10.022599805981642 -1 0 0 I I #
point $-1 58.130436109500408 12.688617134292263 10.02259980598164 #
straight-curve $-1 53.164099153340842 4.6556859233734471 10.022599805981642 0 -1 0 I I #
point $-1 53.164099153340835 12.688617134292263 10.022599805981642 #
point $-1 53.97623836263714 7.8639810092274516 5.2140275888965766 #
point $-1 53.97623836263714 10.758762684266337 5.2140275888965766 #
straight-curve $-1 44.751407515627193 24.111000574947369 10.022599805981642 -1 0 0 I I #
point $-1 58.130436109500408 24.111000574947369 10.02259980598164 #
straight-curve $-1 53.164099153340842 10.366877643700999 10.022599805981642 0 -1 0 I I #
point $-1 53.164099153340835 24.111000574947369 10.022599805981642 #
point $-1 53.97623836263714 19.286364449882555 5.2140275888965766 #
point $-1 53.97623836263714 22.18114612492144 5.2140275888965766 #
End-of-ACIS-data 