500 0 8 0           
7 Unknown 11 ACIS 5.0 NT 24 Fri Mar 26 19:16:57 1999 
-1 9.9999999999999995e-007 1e-010 
body $-1 $8 $-1 $9 #
body $-1 $10 $-1 $11 #
body $-1 $12 $-1 $13 #
body $-1 $14 $-1 $15 #
body $-1 $16 $-1 $17 #
body $-1 $18 $-1 $19 #
body $-1 $20 $-1 $21 #
body $-1 $22 $-1 $23 #
lump $-1 $-1 $24 $0 #
transform $-1 1 0 0 0 1 0 0 0 1 45.22843104342784 26.338828648566718 10.799426153641125 1 rotate no_reflect no_shear #
lump $-1 $-1 $25 $1 #
transform $-1 1 0 0 0 1 0 0 0 1 45.22843104342784 26.338828648566718 10.799426153641125 1 rotate no_reflect no_shear #
lump $-1 $-1 $26 $2 #
transform $-1 1 0 0 0 1 0 0 0 1 45.22843104342784 26.338828648566718 10.799426153641125 1 rotate no_reflect no_shear #
lump $-1 $-1 $27 $3 #
transform $-1 1 0 0 0 1 0 0 0 1 45.22843104342784 26.338828648566718 10.799426153641125 1 rotate no_reflect no_shear #
lump $-1 $-1 $28 $4 #
transform $-1 1 0 0 0 1 0 0 0 1 45.22843104342784 26.338828648566718 10.799426153641125 1 rotate no_reflect no_shear #
lump $-1 $-1 $29 $5 #
transform $-1 1 0 0 0 1 0 0 0 1 45.22843104342784 26.338828648566718 10.799426153641125 1 rotate no_reflect no_shear #
lump $-1 $-1 $30 $6 #
transform $-1 1 0 0 0 1 0 0 0 1 45.22843104342784 26.338828648566718 10.799426153641125 1 rotate no_reflect no_shear #
lump $-1 $-1 $31 $7 #
transform $-1 1 0 0 0 1 0 0 0 1 45.22843104342784 26.338828648566718 10.799426153641125 1 rotate no_reflect no_shear #
shell $-1 $-1 $-1 $32 $-1 $8 #
shell $-1 $-1 $-1 $33 $-1 $10 #
shell $-1 $-1 $-1 $34 $-1 $12 #
shell $-1 $-1 $-1 $35 $-1 $14 #
shell $-1 $-1 $-1 $36 $-1 $16 #
shell $-1 $-1 $-1 $37 $-1 $18 #
shell $-1 $-1 $-1 $38 $-1 $20 #
shell $-1 $-1 $-1 $39 $-1 $22 #
face $-1 $40 $41 $24 $-1 $42 forward single #
face $-1 $43 $44 $25 $-1 $45 forward single #
face $-1 $46 $47 $26 $-1 $48 reversed single #
face $-1 $49 $50 $27 $-1 $51 forward single #
face $-1 $52 $53 $28 $-1 $54 forward single #
face $-1 $55 $56 $29 $-1 $57 reversed single #
face $-1 $58 $59 $30 $-1 $60 forward single #
face $-1 $61 $62 $31 $-1 $63 forward single #
face $-1 $64 $65 $24 $-1 $66 reversed single #
loop $-1 $-1 $67 $32 #
plane-surface $-1 0 0 10.799426153641125 0 0 1 1 0 0 forward_v I I I I #
face $-1 $68 $69 $25 $-1 $70 reversed single #
loop $-1 $-1 $71 $33 #
plane-surface $-1 -45.22843104342784 0 0 1 0 0 0 0 -1 forward_v I I I I #
face $-1 $72 $73 $26 $-1 $74 reversed single #
loop $-1 $-1 $75 $34 #
plane-surface $-1 -2.0445560282870119 -94.607489812165426 60.682751202424114 -1 0 0 0 -0.75470958851134928 0.65605901945558964 forward_v I I I I #
face $-1 $76 $77 $27 $-1 $78 forward single #
loop $-1 $79 $80 $35 #
cone-surface $-1 -12.082787218319091 -21.511632010968732 5.4472676304570005 0 0.75470958851134928 -0.65605901945558964 1 0 0 1 I I 0 1 1 forward I I I I #
face $-1 $81 $82 $28 $-1 $83 forward single #
loop $-1 $84 $85 $36 #
cone-surface $-1 -6.0598485042998433 -21.511632010968732 5.4472676304570005 0 0.75470958851134928 -0.65605901945558964 1 0 0 1 I I 0 1 1 forward I I I I #
face $-1 $86 $87 $29 $-1 $88 reversed single #
loop $-1 $-1 $89 $37 #
plane-surface $-1 36.188617337146724 -94.607489812165426 60.682751202424114 -1 0 0 0 -0.75470958851134928 0.65605901945558964 forward_v I I I I #
face $-1 $90 $91 $30 $-1 $92 forward single #
loop $-1 $93 $94 $38 #
cone-surface $-1 26.150386147114638 -21.511632010968732 5.4472676304570005 0 0.75470958851134928 -0.65605901945558964 1 0 0 1 I I 0 1 1 forward I I I I #
face $-1 $95 $96 $31 $-1 $97 forward single #
loop $-1 $98 $99 $39 #
cone-surface $-1 32.173324861133885 -21.511632010968732 5.4472676304570005 0 0.75470958851134928 -0.65605901945558964 1 0 0 1 I I 0 1 1 forward I I I I #
face $-1 $100 $101 $24 $-1 $102 reversed single #
loop $-1 $-1 $103 $40 #
plane-surface $-1 0 0 -10.799426153641125 0 0 1 1 0 0 forward_v I I I I #
coedge $-1 $104 $105 $106 $107 forward $41 $-1 #
face $-1 $108 $109 $25 $-1 $110 forward single #
loop $-1 $-1 $111 $43 #
plane-surface $-1 0 26.338828648566718 0 0 -1 0 0 0 -1 forward_v I I I I #
coedge $-1 $112 $113 $114 $115 forward $44 $-1 #
face $-1 $116 $117 $26 $-1 $118 reversed single #
loop $-1 $-1 $119 $46 #
plane-surface $-1 -9.0713178613094669 -26.338828648566704 1.3377109586920781 0 -0.75470958851134928 0.65605901945558964 1 0 0 forward_v I I I I #
coedge $-1 $120 $121 $122 $123 reversed $47 $-1 #
face $-1 $-1 $124 $27 $-1 $125 forward single #
loop $-1 $126 $127 $49 #
cone-surface $-1 -12.082787218319091 -20.419552242162574 4.4979371950196079 0 0.75470958851134928 -0.65605901945558964 0.5 0 0 1 I I -0.70710678118654746 0.70710678118654746 0.5 forward I I I I #
loop $-1 $-1 $128 $35 #
coedge $-1 $80 $80 $129 $130 reversed $50 $-1 #
face $-1 $-1 $131 $28 $-1 $132 forward single #
loop $-1 $133 $134 $52 #
cone-surface $-1 -6.0598485042998433 -20.419552242162574 4.4979371950196079 0 0.75470958851134928 -0.65605901945558964 0.5 0 0 1 I I -0.70710678118654746 0.70710678118654746 0.5 forward I I I I #
loop $-1 $-1 $135 $36 #
coedge $-1 $85 $85 $136 $137 reversed $53 $-1 #
face $-1 $138 $139 $29 $-1 $140 reversed single #
loop $-1 $-1 $141 $55 #
plane-surface $-1 29.161855504124269 -26.338828648566704 1.3377109586920781 0 -0.75470958851134928 0.65605901945558964 1 0 0 forward_v I I I I #
coedge $-1 $142 $143 $144 $145 reversed $56 $-1 #
face $-1 $-1 $146 $30 $-1 $147 forward single #
loop $-1 $148 $149 $58 #
cone-surface $-1 26.150386147114638 -20.419552242162574 4.4979371950196079 0 0.75470958851134928 -0.65605901945558964 0.5 0 0 1 I I -0.70710678118654746 0.70710678118654746 0.5 forward I I I I #
loop $-1 $-1 $150 $38 #
coedge $-1 $94 $94 $151 $152 reversed $59 $-1 #
face $-1 $-1 $153 $31 $-1 $154 forward single #
loop $-1 $155 $156 $61 #
cone-surface $-1 32.173324861133885 -20.419552242162574 4.4979371950196079 0 0.75470958851134928 -0.65605901945558964 0.5 0 0 1 I I -0.70710678118654746 0.70710678118654746 0.5 forward I I I I #
loop $-1 $-1 $157 $39 #
coedge $-1 $99 $99 $158 $159 reversed $62 $-1 #
face $-1 $160 $161 $24 $-1 $162 reversed single #
loop $-1 $-1 $163 $64 #
plane-surface $-1 0 -26.338828648566718 0 0 1 0 0 0 1 forward_v I I I I #
coedge $-1 $164 $165 $166 $167 forward $65 $-1 #
coedge $-1 $168 $67 $169 $170 forward $41 $-1 #
coedge $-1 $67 $168 $171 $172 forward $41 $-1 #
coedge $-1 $173 $174 $67 $107 reversed $175 $-1 #
edge $-1 $176 -26.338828648566718 $177 26.338828648566718 $106 $178 forward 7 unknown #
face $-1 $179 $180 $25 $-1 $181 reversed single #
loop $-1 $-1 $114 $68 #
plane-surface $-1 -52.223688721421951 0 8.410089165731069 0 0 1 1 0 0 forward_v I I I I #
coedge $-1 $182 $183 $113 $184 forward $69 $-1 #
coedge $-1 $185 $71 $186 $187 reversed $44 $-1 #
coedge $-1 $71 $185 $111 $184 reversed $44 $-1 #
coedge $-1 $188 $189 $71 $115 reversed $109 $-1 #
edge $-1 $190 -26.338828648566718 $191 26.338828648566718 $114 $192 forward 7 unknown #
face $-1 $193 $194 $26 $-1 $195 reversed single #
loop $-1 $-1 $196 $72 #
plane-surface $-1 -16.098079694331922 -94.607489812165426 60.682751202424114 1 0 0 0 0.75470958851134928 -0.65605901945558964 forward_v I I I I #
coedge $-1 $197 $198 $199 $200 reversed $73 $-1 #
coedge $-1 $121 $75 $201 $202 reversed $47 $-1 #
coedge $-1 $75 $120 $197 $203 reversed $47 $-1 #
coedge $-1 $199 $204 $75 $123 forward $205 $-1 #
edge $-1 $206 20.964916257515995 $207 29.18985958361101 $122 $208 forward 7 unknown #
loop $-1 $-1 $129 $76 #
plane-surface $-1 -9.0713178613094669 -26.338828648566704 1.3377109586920781 0 -0.75470958851134928 0.65605901945558964 1 0 0 forward_v I I I I #
loop $-1 $-1 $209 $49 #
coedge $-1 $127 $127 $128 $210 reversed $77 $-1 #
coedge $-1 $128 $128 $127 $210 forward $79 $-1 #
coedge $-1 $129 $129 $80 $130 forward $124 $-1 #
edge $-1 $211 3.5047722610585074e-016 $211 6.2831853071796004 $129 $212 forward 7 unknown #
loop $-1 $-1 $136 $81 #
plane-surface $-1 -9.0713178613094669 -26.338828648566704 1.3377109586920781 0 -0.75470958851134928 0.65605901945558964 1 0 0 forward_v I I I I #
loop $-1 $-1 $213 $52 #
coedge $-1 $134 $134 $135 $214 reversed $82 $-1 #
coedge $-1 $135 $135 $134 $214 forward $84 $-1 #
coedge $-1 $136 $136 $85 $137 forward $131 $-1 #
edge $-1 $215 3.5047722610585074e-016 $215 6.2831853071796004 $136 $216 forward 7 unknown #
face $-1 $217 $218 $29 $-1 $219 reversed single #
loop $-1 $-1 $220 $86 #
plane-surface $-1 22.135093671101814 -94.607489812165426 60.682751202424114 1 0 0 0 0.75470958851134928 -0.65605901945558964 forward_v I I I I #
coedge $-1 $221 $222 $223 $224 reversed $87 $-1 #
coedge $-1 $143 $89 $225 $226 reversed $56 $-1 #
coedge $-1 $89 $142 $221 $227 reversed $56 $-1 #
coedge $-1 $223 $228 $89 $145 forward $229 $-1 #
edge $-1 $230 20.964916257515995 $231 29.18985958361101 $144 $232 forward 7 unknown #
loop $-1 $-1 $151 $90 #
plane-surface $-1 29.161855504124269 -26.338828648566704 1.3377109586920781 0 -0.75470958851134928 0.65605901945558964 1 0 0 forward_v I I I I #
loop $-1 $-1 $233 $58 #
coedge $-1 $149 $149 $150 $234 reversed $91 $-1 #
coedge $-1 $150 $150 $149 $234 forward $93 $-1 #
coedge $-1 $151 $151 $94 $152 forward $146 $-1 #
edge $-1 $235 3.5047722610585074e-016 $235 6.2831853071796004 $151 $236 forward 7 unknown #
loop $-1 $-1 $158 $95 #
plane-surface $-1 29.161855504124269 -26.338828648566704 1.3377109586920781 0 -0.75470958851134928 0.65605901945558964 1 0 0 forward_v I I I I #
loop $-1 $-1 $237 $61 #
coedge $-1 $156 $156 $157 $238 reversed $96 $-1 #
coedge $-1 $157 $157 $156 $238 forward $98 $-1 #
coedge $-1 $158 $158 $99 $159 forward $153 $-1 #
edge $-1 $239 3.5047722610585074e-016 $239 6.2831853071796004 $158 $240 forward 7 unknown #
face $-1 $241 $242 $24 $-1 $243 reversed single #
loop $-1 $-1 $244 $100 #
plane-surface $-1 -45.22843104342784 0 0 1 0 0 0 0 -1 forward_v I I I I #
coedge $-1 $245 $171 $244 $246 forward $101 $-1 #
coedge $-1 $247 $103 $245 $248 forward $65 $-1 #
coedge $-1 $103 $247 $249 $250 forward $65 $-1 #
coedge $-1 $174 $173 $103 $167 reversed $175 $-1 #
edge $-1 $251 -26.338828648566718 $252 26.338828648566718 $166 $253 forward 7 unknown #
coedge $-1 $105 $104 $254 $255 forward $41 $-1 #
coedge $-1 $256 $257 $104 $170 reversed $242 $-1 #
edge $-1 $177 -45.22843104342784 $258 45.22843104342784 $169 $259 forward 7 unknown #
coedge $-1 $163 $260 $105 $172 reversed $101 $-1 #
edge $-1 $261 -45.22843104342784 $176 45.22843104342784 $171 $262 forward 7 unknown #
coedge $-1 $166 $106 $260 $263 forward $175 $-1 #
coedge $-1 $106 $166 $256 $264 reversed $175 $-1 #
loop $-1 $-1 $173 $241 #
vertex $-1 $107 $265 #
vertex $-1 $107 $266 #
straight-curve $-1 45.22843104342784 0 10.799426153641125 0 1 0 I I #
face $-1 $267 $268 $25 $-1 $269 reversed single #
loop $-1 $-1 $270 $108 #
plane-surface $-1 -52.223688721421951 0 3.0374348030806759 0 0 1 1 0 0 forward_v I I I I #
coedge $-1 $271 $111 $272 $273 reversed $69 $-1 #
coedge $-1 $111 $271 $188 $274 reversed $69 $-1 #
edge $-1 $190 -8.410089165731069 $275 -3.0374348030806759 $111 $276 forward 7 unknown #
coedge $-1 $113 $112 $270 $277 forward $44 $-1 #
coedge $-1 $278 $279 $112 $187 forward $280 $-1 #
edge $-1 $281 3.0374348030806759 $191 8.410089165731069 $186 $282 forward 7 unknown #
coedge $-1 $283 $114 $183 $274 forward $109 $-1 #
coedge $-1 $114 $283 $278 $284 forward $109 $-1 #
vertex $-1 $184 $285 #
vertex $-1 $284 $286 #
straight-curve $-1 -45.22843104342784 0 8.410089165731069 0 -1 0 I I #
face $-1 $-1 $205 $26 $-1 $287 forward single #
loop $-1 $-1 $288 $116 #
plane-surface $-1 0 -26.338828648566718 0 0 1 0 0 0 1 forward_v I I I I #
coedge $-1 $289 $290 $291 $292 reversed $117 $-1 #
coedge $-1 $293 $119 $121 $203 forward $73 $-1 #
coedge $-1 $119 $293 $289 $294 forward $73 $-1 #
coedge $-1 $291 $122 $119 $200 forward $205 $-1 #
edge $-1 $207 -2.4911029023677216 $295 11.562420763677189 $199 $296 forward 7 unknown #
coedge $-1 $297 $298 $120 $202 forward $194 $-1 #
edge $-1 $299 -29.003664642519997 $206 -19.541949447570932 $201 $300 forward 7 unknown #
edge $-1 $207 -12.536895434987263 $299 2.1724019648727301e-014 $121 $301 forward 7 unknown #
coedge $-1 $122 $291 $297 $302 forward $205 $-1 #
loop $-1 $-1 $291 $193 #
vertex $-1 $202 $303 #
vertex $-1 $123 $304 #
straight-curve $-1 -2.0445560282870119 -47.303744906082713 10.799426153641125 0 1 0 I I #
coedge $-1 $209 $209 $-1 $305 reversed $126 $-1 #
edge $-1 $306 0 $306 6.2831853071796004 $127 $307 forward 7 unknown #
vertex $-1 $130 $308 #
ellipse-curve $-1 -12.082787218319091 -22.22635698551921 6.0685685561665945 0 -0.75470958851134928 0.65605901945558964 1 0 0 1 I I #
coedge $-1 $213 $213 $-1 $309 reversed $133 $-1 #
edge $-1 $310 0 $310 6.2831853071796004 $134 $311 forward 7 unknown #
vertex $-1 $137 $312 #
ellipse-curve $-1 -6.0598485042998433 -22.22635698551921 6.0685685561665945 0 -0.75470958851134928 0.65605901945558964 1 0 0 1 I I #
face $-1 $-1 $229 $29 $-1 $313 forward single #
loop $-1 $-1 $314 $138 #
plane-surface $-1 0 -26.338828648566718 0 0 1 0 0 0 1 forward_v I I I I #
coedge $-1 $315 $316 $317 $318 reversed $139 $-1 #
coedge $-1 $319 $141 $143 $227 forward $87 $-1 #
coedge $-1 $141 $319 $315 $320 forward $87 $-1 #
coedge $-1 $317 $144 $141 $224 forward $229 $-1 #
edge $-1 $231 -21.607689585084589 $321 -7.5541659190396793 $223 $322 forward 7 unknown #
coedge $-1 $323 $324 $142 $226 forward $218 $-1 #
edge $-1 $325 -29.003664642519997 $230 -19.541949447570932 $225 $326 forward 7 unknown #
edge $-1 $231 -12.536895434987263 $325 2.1724019648727301e-014 $143 $327 forward 7 unknown #
coedge $-1 $144 $317 $323 $328 forward $229 $-1 #
loop $-1 $-1 $317 $217 #
vertex $-1 $226 $329 #
vertex $-1 $145 $330 #
straight-curve $-1 36.188617337146724 -47.303744906082713 10.799426153641125 0 1 0 I I #
coedge $-1 $233 $233 $-1 $331 reversed $148 $-1 #
edge $-1 $332 0 $332 6.2831853071796004 $149 $333 forward 7 unknown #
vertex $-1 $152 $334 #
ellipse-curve $-1 26.150386147114638 -22.22635698551921 6.0685685561665945 0 -0.75470958851134928 0.65605901945558964 1 0 0 1 I I #
coedge $-1 $237 $237 $-1 $335 reversed $155 $-1 #
edge $-1 $336 0 $336 6.2831853071796004 $156 $337 forward 7 unknown #
vertex $-1 $159 $338 #
ellipse-curve $-1 32.173324861133885 -22.22635698551921 6.0685685561665945 0 -0.75470958851134928 0.65605901945558964 1 0 0 1 I I #
face $-1 $-1 $175 $24 $-1 $339 reversed single #
loop $-1 $-1 $256 $160 #
plane-surface $-1 0 26.338828648566718 0 0 -1 0 0 0 -1 forward_v I I I I #
coedge $-1 $254 $340 $163 $246 reversed $161 $-1 #
coedge $-1 $260 $163 $164 $248 reversed $101 $-1 #
edge $-1 $261 -10.799426153641125 $341 10.799426153641125 $244 $342 forward 7 unknown #
coedge $-1 $165 $164 $340 $343 forward $65 $-1 #
edge $-1 $252 -45.22843104342784 $341 45.22843104342784 $245 $344 forward 7 unknown #
coedge $-1 $257 $256 $165 $250 reversed $242 $-1 #
edge $-1 $345 -45.22843104342784 $251 45.22843104342784 $249 $346 forward 7 unknown #
vertex $-1 $167 $347 #
vertex $-1 $263 $348 #
straight-curve $-1 45.22843104342784 0 -10.799426153641125 0 -1 0 I I #
coedge $-1 $349 $244 $168 $255 reversed $161 $-1 #
edge $-1 $258 -26.338828648566718 $261 26.338828648566718 $254 $350 forward 7 unknown #
coedge $-1 $249 $169 $174 $264 forward $242 $-1 #
coedge $-1 $169 $249 $349 $351 reversed $242 $-1 #
vertex $-1 $170 $352 #
straight-curve $-1 0 26.338828648566718 10.799426153641125 -1 0 0 I I #
coedge $-1 $171 $245 $173 $263 reversed $101 $-1 #
vertex $-1 $255 $353 #
straight-curve $-1 0 -26.338828648566718 10.799426153641125 1 0 0 I I #
edge $-1 $176 -10.799426153641125 $252 10.799426153641125 $173 $354 forward 7 unknown #
edge $-1 $177 -10.799426153641125 $251 10.799426153641125 $174 $355 forward 7 unknown #
point $-1 45.22843104342784 -26.338828648566718 10.799426153641125 #
point $-1 45.22843104342784 26.338828648566718 10.799426153641125 #
face $-1 $-1 $280 $25 $-1 $356 reversed single #
loop $-1 $-1 $357 $179 #
plane-surface $-1 -59.218946399416062 0 5.723761984405872 1 0 0 0 0 -1 forward_v I I I I #
coedge $-1 $358 $272 $185 $277 reversed $180 $-1 #
coedge $-1 $183 $182 $357 $359 reversed $69 $-1 #
coedge $-1 $270 $360 $182 $273 forward $180 $-1 #
edge $-1 $361 -6.9952576779941111 $275 6.9952576779941111 $182 $362 forward 7 unknown #
edge $-1 $190 -6.9952576779941111 $363 6.9952576779941111 $183 $364 forward 7 unknown #
vertex $-1 $184 $365 #
straight-curve $-1 -45.22843104342784 26.338828648566718 0 0 0 -1 I I #
edge $-1 $281 -26.338828648566718 $275 26.338828648566718 $270 $366 forward 7 unknown #
coedge $-1 $367 $186 $189 $284 reversed $280 $-1 #
coedge $-1 $186 $367 $358 $368 reversed $280 $-1 #
loop $-1 $-1 $186 $267 #
vertex $-1 $187 $369 #
straight-curve $-1 -45.22843104342784 -26.338828648566718 0 0 0 1 I I #
coedge $-1 $189 $188 $370 $371 forward $109 $-1 #
edge $-1 $372 -6.9952576779941111 $191 6.9952576779941111 $278 $373 forward 7 unknown #
point $-1 -45.22843104342784 26.338828648566718 8.410089165731069 #
point $-1 -45.22843104342784 -26.338828648566718 8.410089165731069 #
plane-surface $-1 0 0 10.799426153641125 0 0 1 1 0 0 forward_v I I I I #
coedge $-1 $298 $297 $290 $374 forward $194 $-1 #
coedge $-1 $290 $196 $198 $294 reversed $117 $-1 #
coedge $-1 $196 $289 $288 $374 reversed $117 $-1 #
coedge $-1 $204 $199 $196 $292 forward $205 $-1 #
edge $-1 $295 -29.18985958361101 $375 -20.964916257515995 $291 $376 forward 7 unknown #
coedge $-1 $198 $197 $298 $377 reversed $73 $-1 #
edge $-1 $378 -2.1724019648727301e-014 $295 12.536895434987263 $289 $379 forward 7 unknown #
vertex $-1 $200 $380 #
straight-curve $-1 -4.5356589306547335 -18.113885322471702 10.799426153641125 -1 0 0 I I #
coedge $-1 $288 $201 $204 $302 reversed $194 $-1 #
coedge $-1 $201 $288 $293 $377 forward $194 $-1 #
vertex $-1 $202 $381 #
straight-curve $-1 -2.0445560282870119 -26.338828648566718 30.341375601212057 0 0 1 I I #
straight-curve $-1 -2.0445560282870119 -26.338828648566704 1.3377109586920781 0 -0.65605901945558964 -0.75470958851134928 I I #
edge $-1 $375 -16.098079694331922 $206 -2.0445560282870119 $297 $382 forward 7 unknown #
point $-1 -2.0445560282870119 -26.338828648566718 10.799426153641125 #
point $-1 -2.0445560282870119 -18.113885322471702 10.799426153641125 #
edge $-1 $383 1 $383 0 $209 $-1 forward 7 unknown #
vertex $-1 $210 $384 #
ellipse-curve $-1 -12.082787218319091 -20.796907036418247 4.8259667047474029 0 -0.75470958851134928 0.65605901945558964 1 0 0 1 I I #
point $-1 -11.082787218319091 -22.226356985519214 6.0685685561665981 #
edge $-1 $385 1 $385 0 $213 $-1 forward 7 unknown #
vertex $-1 $214 $386 #
ellipse-curve $-1 -6.0598485042998433 -20.796907036418247 4.8259667047474029 0 -0.75470958851134928 0.65605901945558964 1 0 0 1 I I #
point $-1 -5.0598485042998433 -22.226356985519214 6.0685685561665981 #
plane-surface $-1 0 0 10.799426153641125 0 0 1 1 0 0 forward_v I I I I #
coedge $-1 $324 $323 $316 $387 forward $218 $-1 #
coedge $-1 $316 $220 $222 $320 reversed $139 $-1 #
coedge $-1 $220 $315 $314 $387 reversed $139 $-1 #
coedge $-1 $228 $223 $220 $318 forward $229 $-1 #
edge $-1 $321 -29.18985958361101 $388 -20.964916257515995 $317 $389 forward 7 unknown #
coedge $-1 $222 $221 $324 $390 reversed $87 $-1 #
edge $-1 $391 -2.1724019648727301e-014 $321 12.536895434987263 $315 $392 forward 7 unknown #
vertex $-1 $224 $393 #
straight-curve $-1 14.580927752062134 -18.113885322471702 10.799426153641125 -1 0 0 I I #
coedge $-1 $314 $225 $228 $328 reversed $218 $-1 #
coedge $-1 $225 $314 $319 $390 forward $218 $-1 #
vertex $-1 $226 $394 #
straight-curve $-1 36.188617337146724 -26.338828648566718 30.341375601212057 0 0 1 I I #
straight-curve $-1 36.188617337146724 -26.338828648566704 1.3377109586920781 0 -0.65605901945558964 -0.75470958851134928 I I #
edge $-1 $388 22.135093671101814 $230 36.188617337146724 $323 $395 forward 7 unknown #
point $-1 36.188617337146724 -26.338828648566718 10.799426153641125 #
point $-1 36.188617337146724 -18.113885322471702 10.799426153641125 #
edge $-1 $396 1 $396 0 $233 $-1 forward 7 unknown #
vertex $-1 $234 $397 #
ellipse-curve $-1 26.150386147114638 -20.796907036418247 4.8259667047474029 0 -0.75470958851134928 0.65605901945558964 1 0 0 1 I I #
point $-1 27.150386147114638 -22.226356985519214 6.0685685561665981 #
edge $-1 $398 1 $398 0 $237 $-1 forward 7 unknown #
vertex $-1 $238 $399 #
ellipse-curve $-1 32.173324861133885 -20.796907036418247 4.8259667047474029 0 -0.75470958851134928 0.65605901945558964 1 0 0 1 I I #
point $-1 33.173324861133885 -22.226356985519214 6.0685685561665981 #
plane-surface $-1 45.22843104342784 0 0 -1 0 0 0 0 1 forward_v I I I I #
coedge $-1 $244 $349 $247 $343 reversed $161 $-1 #
vertex $-1 $343 $400 #
straight-curve $-1 -45.22843104342784 -26.338828648566718 0 0 0 -1 I I #
edge $-1 $341 -26.338828648566718 $345 26.338828648566718 $340 $401 forward 7 unknown #
straight-curve $-1 0 -26.338828648566718 -10.799426153641125 -1 0 0 I I #
vertex $-1 $250 $402 #
straight-curve $-1 0 26.338828648566718 -10.799426153641125 1 0 0 I I #
point $-1 45.22843104342784 26.338828648566718 -10.799426153641125 #
point $-1 45.22843104342784 -26.338828648566718 -10.799426153641125 #
coedge $-1 $340 $254 $257 $351 forward $161 $-1 #
straight-curve $-1 -45.22843104342784 0 10.799426153641125 0 -1 0 I I #
edge $-1 $258 -10.799426153641125 $345 10.799426153641125 $257 $403 forward 7 unknown #
point $-1 -45.22843104342784 26.338828648566718 10.799426153641125 #
point $-1 -45.22843104342784 -26.338828648566718 10.799426153641125 #
straight-curve $-1 45.22843104342784 -26.338828648566718 0 0 0 -1 I I #
straight-curve $-1 45.22843104342784 26.338828648566718 0 0 0 -1 I I #
plane-surface $-1 0 -26.338828648566718 0 0 1 0 0 0 1 forward_v I I I I #
coedge $-1 $404 $370 $271 $359 forward $268 $-1 #
coedge $-1 $360 $270 $279 $368 forward $180 $-1 #
edge $-1 $363 -2.686327181325197 $361 2.6863271813251961 $271 $405 forward 7 unknown #
coedge $-1 $272 $358 $404 $406 forward $180 $-1 #
vertex $-1 $273 $407 #
straight-curve $-1 -52.223688721421951 26.338828648566718 3.0374348030806759 1 0 0 I I #
vertex $-1 $274 $408 #
straight-curve $-1 -52.223688721421951 26.338828648566718 8.410089165731069 -1 0 0 I I #
point $-1 -45.22843104342784 26.338828648566718 3.0374348030806759 #
straight-curve $-1 -45.22843104342784 0 3.0374348030806759 0 1 0 I I #
coedge $-1 $279 $278 $409 $410 forward $280 $-1 #
edge $-1 $281 -6.9952576779941111 $411 6.9952576779941111 $279 $412 forward 7 unknown #
point $-1 -45.22843104342784 -26.338828648566718 3.0374348030806759 #
coedge $-1 $357 $409 $283 $371 reversed $268 $-1 #
edge $-1 $363 -26.338828648566718 $372 26.338828648566718 $370 $413 forward 7 unknown #
vertex $-1 $371 $414 #
straight-curve $-1 -52.223688721421951 -26.338828648566718 8.410089165731069 1 0 0 I I #
edge $-1 $375 19.541949447570932 $378 29.003664642519997 $288 $415 forward 7 unknown #
vertex $-1 $302 $416 #
straight-curve $-1 -16.098079694331922 -47.303744906082713 10.799426153641125 0 -1 0 I I #
edge $-1 $378 -11.562420763677189 $299 2.4911029023677216 $298 $417 forward 7 unknown #
vertex $-1 $377 $418 #
straight-curve $-1 -16.098079694331922 -26.338828648566704 1.3377109586920781 0 0.65605901945558964 0.75470958851134928 I I #
point $-1 -16.098079694331922 -18.113885322471702 10.799426153641125 #
point $-1 -2.0445560282870119 -26.338828648566718 1.3377109586920617 #
straight-curve $-1 0 -26.338828648566718 10.799426153641125 1 0 0 I I #
vertex $-1 $305 $419 #
point $-1 -11.082787218319091 -20.796907036418247 4.8259667047474029 #
vertex $-1 $309 $420 #
point $-1 -5.0598485042998433 -20.796907036418247 4.8259667047474029 #
edge $-1 $388 19.541949447570932 $391 29.003664642519997 $314 $421 forward 7 unknown #
vertex $-1 $328 $422 #
straight-curve $-1 22.135093671101814 -47.303744906082713 10.799426153641125 0 -1 0 I I #
edge $-1 $391 7.5541659190396793 $325 21.607689585084589 $324 $423 forward 7 unknown #
vertex $-1 $390 $424 #
straight-curve $-1 22.135093671101814 -26.338828648566704 1.3377109586920781 0 0.65605901945558964 0.75470958851134928 I I #
point $-1 22.135093671101814 -18.113885322471702 10.799426153641125 #
point $-1 36.188617337146724 -26.338828648566718 1.3377109586920617 #
straight-curve $-1 0 -26.338828648566718 10.799426153641125 1 0 0 I I #
vertex $-1 $331 $425 #
point $-1 27.150386147114638 -20.796907036418247 4.8259667047474029 #
vertex $-1 $335 $426 #
point $-1 33.173324861133885 -20.796907036418247 4.8259667047474029 #
point $-1 -45.22843104342784 -26.338828648566718 -10.799426153641125 #
straight-curve $-1 -45.22843104342784 0 -10.799426153641125 0 1 0 I I #
point $-1 -45.22843104342784 26.338828648566718 -10.799426153641125 #
straight-curve $-1 -45.22843104342784 26.338828648566718 0 0 0 -1 I I #
coedge $-1 $409 $357 $360 $406 reversed $268 $-1 #
straight-curve $-1 -59.218946399416062 26.338828648566718 5.723761984405872 0 0 -1 I I #
edge $-1 $411 -26.338828648566718 $361 26.338828648566718 $404 $427 forward 7 unknown #
point $-1 -59.218946399416062 26.338828648566718 3.0374348030806759 #
point $-1 -59.218946399416062 26.338828648566718 8.410089165731069 #
coedge $-1 $370 $404 $367 $410 reversed $268 $-1 #
edge $-1 $372 -2.686327181325197 $411 2.6863271813251961 $409 $428 forward 7 unknown #
vertex $-1 $406 $429 #
straight-curve $-1 -52.223688721421951 -26.338828648566718 3.0374348030806759 -1 0 0 I I #
straight-curve $-1 -59.218946399416062 0 8.410089165731069 0 -1 0 I I #
point $-1 -59.218946399416062 -26.338828648566718 8.410089165731069 #
straight-curve $-1 -16.098079694331922 -26.338828648566718 30.341375601212057 0 0 -1 I I #
point $-1 -16.098079694331922 -26.338828648566718 10.799426153641125 #
straight-curve $-1 -4.5356589306547335 -26.338828648566718 1.337710958692061 1 0 0 I I #
point $-1 -16.098079694331922 -26.338828648566718 1.3377109586920617 #
point $-1 -12.082787218319091 -20.042197447906901 4.1699076852918129 #
point $-1 -6.0598485042998433 -20.042197447906901 4.1699076852918129 #
straight-curve $-1 22.135093671101814 -26.338828648566718 30.341375601212057 0 0 -1 I I #
point $-1 22.135093671101814 -26.338828648566718 10.799426153641125 #
straight-curve $-1 14.580927752062134 -26.338828648566718 1.337710958692061 1 0 0 I I #
point $-1 22.135093671101814 -26.338828648566718 1.3377109586920617 #
point $-1 26.150386147114638 -20.042197447906901 4.1699076852918129 #
point $-1 32.173324861133885 -20.042197447906901 4.1699076852918129 #
straight-curve $-1 -59.218946399416062 0 3.0374348030806759 0 1 0 I I #
straight-curve $-1 -59.218946399416062 -26.338828648566718 5.723761984405872 0 0 -1 I I #
point $-1 -59.218946399416062 -26.338828648566718 3.0374348030806759 #
End-of-ACIS-data 