500 0 14 0           
7 Unknown 11 ACIS 5.0 NT 24 Thu Mar 25 18:29:43 1999 
-1 9.9999999999999995e-007 1e-010 
body $-1 $14 $-1 $15 #
body $-1 $16 $-1 $17 #
body $-1 $18 $-1 $19 #
body $-1 $20 $-1 $21 #
body $-1 $22 $-1 $23 #
body $-1 $24 $-1 $25 #
body $-1 $26 $-1 $27 #
body $-1 $28 $-1 $29 #
body $-1 $30 $-1 $31 #
body $-1 $32 $-1 $33 #
body $-1 $34 $-1 $35 #
body $-1 $36 $-1 $37 #
body $-1 $38 $-1 $39 #
body $-1 $40 $-1 $41 #
lump $-1 $-1 $42 $0 #
transform $-1 1 0 0 0 1 0 0 0 1 52.373424481948305 35.960356945164875 11.588701596061984 1 rotate no_reflect no_shear #
lump $-1 $-1 $43 $1 #
transform $-1 1 0 0 0 1 0 0 0 1 4.5952648341556142 35.960356945164875 21.58401419402411 1 rotate no_reflect no_shear #
lump $-1 $-1 $44 $2 #
transform $-1 1 0 0 0 0.51503806187062418 -0.85716730853699208 0 0.85716730853699208 0.51503806187062418 96.59611393733951 124.6643834040167 131.59940643532875 1 rotate no_reflect no_shear #
lump $-1 $-1 $45 $3 #
transform $-1 1 0 0 0 -0.51503806187062418 0.85716730853699208 0 -0.85716730853699208 -0.51503806187062418 91.705672921405252 67.563153118628478 18.266921407053132 1 rotate no_reflect no_shear #
lump $-1 $-1 $46 $4 #
transform $-1 1 0 0 0 -0.51503806187062418 0.85716730853699208 0 -0.85716730853699208 -0.51503806187062418 96.59611393733951 67.563153118628478 18.266921407053132 1 rotate no_reflect no_shear #
lump $-1 $-1 $47 $5 #
transform $-1 1 0 0 0 -0.51503806187062418 0.85716730853699208 0 -0.85716730853699208 -0.51503806187062418 101.48655495327377 67.563153118628478 18.266921407053132 1 rotate no_reflect no_shear #
lump $-1 $-1 $48 $6 #
transform $-1 1 0 0 0 0.64278759981090561 0.7660444514056185 0 -0.7660444514056185 0.64278759981090561 15.404336907089871 -80.24074245101535 79.221419327878564 1 rotate no_reflect no_shear #
lump $-1 $-1 $49 $7 #
transform $-1 1 0 0 0 -0.64278759981090561 -0.7660444514056185 0 0.7660444514056185 -0.64278759981090561 15.404336907089871 8.8994112914797405 14.040086101844951 1 rotate no_reflect no_shear #
lump $-1 $-1 $50 $8 #
transform $-1 1 0 0 0 0.64278759981090561 0.7660444514056185 0 -0.7660444514056185 0.64278759981090561 39.293416730986216 -80.24074245101535 79.221419327878564 1 rotate no_reflect no_shear #
lump $-1 $-1 $51 $9 #
transform $-1 1 0 0 0 -0.64278759981090561 -0.7660444514056185 0 0.7660444514056185 -0.64278759981090561 39.293416730986216 8.8994112914797405 14.040086101844951 1 rotate no_reflect no_shear #
lump $-1 $-1 $52 $10 #
transform $-1 1 0 0 0 0.64278759981090561 0.7660444514056185 0 -0.7660444514056185 0.64278759981090561 63.182496554882562 -80.24074245101535 79.221419327878564 1 rotate no_reflect no_shear #
lump $-1 $-1 $53 $11 #
transform $-1 1 0 0 0 -0.64278759981090561 -0.7660444514056185 0 0.7660444514056185 -0.64278759981090561 63.182496554882562 8.8994112914797405 14.040086101844951 1 rotate no_reflect no_shear #
lump $-1 $-1 $54 $12 #
transform $-1 1 0 0 0 0.64278759981090561 0.7660444514056185 0 -0.7660444514056185 0.64278759981090561 87.0715763787789 -80.24074245101535 79.221419327878564 1 rotate no_reflect no_shear #
lump $-1 $-1 $55 $13 #
transform $-1 1 0 0 0 -0.64278759981090561 -0.7660444514056185 0 0.7660444514056185 -0.64278759981090561 87.0715763787789 8.8994112914797405 14.040086101844951 1 rotate no_reflect no_shear #
shell $-1 $-1 $-1 $56 $-1 $14 #
shell $-1 $-1 $-1 $57 $-1 $16 #
shell $-1 $-1 $-1 $58 $-1 $18 #
shell $-1 $-1 $-1 $59 $-1 $20 #
shell $-1 $-1 $-1 $60 $-1 $22 #
shell $-1 $-1 $-1 $61 $-1 $24 #
shell $-1 $-1 $-1 $62 $-1 $26 #
shell $-1 $-1 $-1 $63 $-1 $28 #
shell $-1 $-1 $-1 $64 $-1 $30 #
shell $-1 $-1 $-1 $65 $-1 $32 #
shell $-1 $-1 $-1 $66 $-1 $34 #
shell $-1 $-1 $-1 $67 $-1 $36 #
shell $-1 $-1 $-1 $68 $-1 $38 #
shell $-1 $-1 $-1 $69 $-1 $40 #
face $-1 $70 $71 $42 $-1 $72 forward single #
face $-1 $73 $74 $43 $-1 $75 forward single #
face $-1 $76 $77 $44 $-1 $78 forward single #
face $-1 $79 $80 $45 $-1 $81 forward single #
face $-1 $82 $83 $46 $-1 $84 forward single #
face $-1 $85 $86 $47 $-1 $87 forward single #
face $-1 $88 $89 $48 $-1 $90 forward single #
face $-1 $91 $92 $49 $-1 $93 forward single #
face $-1 $94 $95 $50 $-1 $96 forward single #
face $-1 $97 $98 $51 $-1 $99 forward single #
face $-1 $100 $101 $52 $-1 $102 forward single #
face $-1 $103 $104 $53 $-1 $105 forward single #
face $-1 $106 $107 $54 $-1 $108 forward single #
face $-1 $109 $110 $55 $-1 $111 forward single #
face $-1 $112 $113 $42 $-1 $114 reversed single #
loop $-1 $-1 $115 $56 #
plane-surface $-1 0 0 11.588701596061984 0 0 1 1 0 0 forward_v I I I I #
face $-1 $116 $117 $43 $-1 $118 reversed single #
loop $-1 $-1 $119 $57 #
plane-surface $-1 0 0 1.5933889980998579 0 0 1 1 0 0 forward_v I I I I #
face $-1 $120 $121 $44 $-1 $122 reversed single #
loop $-1 $-1 $123 $58 #
plane-surface $-1 0 0 104.74684896389661 0 0 1 1 0 0 forward_v I I I I #
face $-1 $124 $125 $45 $-1 $126 forward single #
loop $-1 $127 $128 $59 #
cone-surface $-1 0 0 -1.5345011749626156 0 0 1 1 0 0 1 I I 0 1 1 forward I I I I #
face $-1 $129 $130 $46 $-1 $131 forward single #
loop $-1 $132 $133 $60 #
cone-surface $-1 0 0 -1.5345011749626156 0 0 1 1 0 0 1 I I 0 1 1 forward I I I I #
face $-1 $134 $135 $47 $-1 $136 forward single #
loop $-1 $137 $138 $61 #
cone-surface $-1 0 0 -1.5345011749626156 0 0 1 1 0 0 1 I I 0 1 1 forward I I I I #
face $-1 $139 $140 $48 $-1 $141 reversed single #
loop $-1 $-1 $142 $62 #
plane-surface $-1 0 0 104.74684896389661 0 0 1 1 0 0 forward_v I I I I #
face $-1 $143 $144 $49 $-1 $145 forward single #
loop $-1 $146 $147 $63 #
cone-surface $-1 0 0 -3.3431119724112666 0 0 1 2.5 0 0 1 I I 0 1 2.5 forward I I I I #
face $-1 $148 $149 $50 $-1 $150 reversed single #
loop $-1 $-1 $151 $64 #
plane-surface $-1 0 0 104.74684896389661 0 0 1 1 0 0 forward_v I I I I #
face $-1 $152 $153 $51 $-1 $154 forward single #
loop $-1 $155 $156 $65 #
cone-surface $-1 0 0 -3.3431119724112666 0 0 1 2.5 0 0 1 I I 0 1 2.5 forward I I I I #
face $-1 $157 $158 $52 $-1 $159 reversed single #
loop $-1 $-1 $160 $66 #
plane-surface $-1 0 0 104.74684896389661 0 0 1 1 0 0 forward_v I I I I #
face $-1 $161 $162 $53 $-1 $163 forward single #
loop $-1 $164 $165 $67 #
cone-surface $-1 0 0 -3.3431119724112666 0 0 1 2.5 0 0 1 I I 0 1 2.5 forward I I I I #
face $-1 $166 $167 $54 $-1 $168 reversed single #
loop $-1 $-1 $169 $68 #
plane-surface $-1 0 0 104.74684896389661 0 0 1 1 0 0 forward_v I I I I #
face $-1 $170 $171 $55 $-1 $172 forward single #
loop $-1 $173 $174 $69 #
cone-surface $-1 0 0 -3.3431119724112666 0 0 1 2.5 0 0 1 I I 0 1 2.5 forward I I I I #
face $-1 $175 $176 $42 $-1 $177 reversed single #
loop $-1 $-1 $178 $70 #
plane-surface $-1 0 0 -11.588701596061984 0 0 1 1 0 0 forward_v I I I I #
coedge $-1 $179 $180 $181 $182 forward $71 $-1 #
face $-1 $183 $184 $43 $-1 $185 reversed single #
loop $-1 $-1 $186 $73 #
plane-surface $-1 0 0 -1.5933889980998579 0 0 1 1 0 0 forward_v I I I I #
coedge $-1 $187 $188 $189 $190 forward $74 $-1 #
face $-1 $191 $192 $44 $-1 $193 reversed single #
loop $-1 $-1 $194 $76 #
plane-surface $-1 0 0 -104.74684896389661 0 0 1 1 0 0 forward_v I I I I #
coedge $-1 $195 $196 $197 $198 forward $77 $-1 #
face $-1 $-1 $199 $45 $-1 $200 forward single #
loop $-1 $-1 $201 $79 #
plane-surface $-1 0 0 -2.5690023499252304 0 0 -1 -1 0 0 forward_v I I I I #
loop $-1 $-1 $202 $59 #
coedge $-1 $128 $128 $201 $203 reversed $80 $-1 #
face $-1 $-1 $204 $46 $-1 $205 forward single #
loop $-1 $-1 $206 $82 #
plane-surface $-1 0 0 -2.5690023499252304 0 0 -1 -1 0 0 forward_v I I I I #
loop $-1 $-1 $207 $60 #
coedge $-1 $133 $133 $206 $208 reversed $83 $-1 #
face $-1 $-1 $209 $47 $-1 $210 forward single #
loop $-1 $-1 $211 $85 #
plane-surface $-1 0 0 -2.5690023499252304 0 0 -1 -1 0 0 forward_v I I I I #
loop $-1 $-1 $212 $61 #
coedge $-1 $138 $138 $211 $213 reversed $86 $-1 #
face $-1 $214 $215 $48 $-1 $216 reversed single #
loop $-1 $-1 $217 $88 #
plane-surface $-1 0 0 -104.74684896389661 0 0 1 1 0 0 forward_v I I I I #
coedge $-1 $218 $219 $220 $221 forward $89 $-1 #
face $-1 $-1 $222 $49 $-1 $223 forward single #
loop $-1 $-1 $224 $91 #
plane-surface $-1 0 0 -5.436223944822534 0 0 -1 -1 0 0 forward_v I I I I #
loop $-1 $-1 $225 $63 #
coedge $-1 $147 $147 $224 $226 reversed $92 $-1 #
face $-1 $227 $228 $50 $-1 $229 reversed single #
loop $-1 $-1 $230 $94 #
plane-surface $-1 0 0 -104.74684896389661 0 0 1 1 0 0 forward_v I I I I #
coedge $-1 $231 $232 $233 $234 forward $95 $-1 #
face $-1 $-1 $235 $51 $-1 $236 forward single #
loop $-1 $-1 $237 $97 #
plane-surface $-1 0 0 -5.436223944822534 0 0 -1 -1 0 0 forward_v I I I I #
loop $-1 $-1 $238 $65 #
coedge $-1 $156 $156 $237 $239 reversed $98 $-1 #
face $-1 $240 $241 $52 $-1 $242 reversed single #
loop $-1 $-1 $243 $100 #
plane-surface $-1 0 0 -104.74684896389661 0 0 1 1 0 0 forward_v I I I I #
coedge $-1 $244 $245 $246 $247 forward $101 $-1 #
face $-1 $-1 $248 $53 $-1 $249 forward single #
loop $-1 $-1 $250 $103 #
plane-surface $-1 0 0 -5.436223944822534 0 0 -1 -1 0 0 forward_v I I I I #
loop $-1 $-1 $251 $67 #
coedge $-1 $165 $165 $250 $252 reversed $104 $-1 #
face $-1 $253 $254 $54 $-1 $255 reversed single #
loop $-1 $-1 $256 $106 #
plane-surface $-1 0 0 -104.74684896389661 0 0 1 1 0 0 forward_v I I I I #
coedge $-1 $257 $258 $259 $260 forward $107 $-1 #
face $-1 $-1 $261 $55 $-1 $262 forward single #
loop $-1 $-1 $263 $109 #
plane-surface $-1 0 0 -5.436223944822534 0 0 -1 -1 0 0 forward_v I I I I #
loop $-1 $-1 $264 $69 #
coedge $-1 $174 $174 $263 $265 reversed $110 $-1 #
face $-1 $266 $267 $42 $-1 $268 reversed single #
loop $-1 $-1 $269 $112 #
plane-surface $-1 0 -35.960356945164875 0 0 1 0 0 0 1 forward_v I I I I #
coedge $-1 $270 $271 $272 $273 forward $113 $-1 #
coedge $-1 $274 $115 $275 $276 forward $71 $-1 #
coedge $-1 $115 $274 $277 $278 forward $71 $-1 #
coedge $-1 $279 $280 $115 $182 reversed $281 $-1 #
edge $-1 $282 -35.960356945164875 $283 35.960356945164875 $181 $284 forward 7 unknown #
face $-1 $285 $286 $43 $-1 $287 reversed single #
loop $-1 $-1 $288 $116 #
plane-surface $-1 0 -35.960356945164875 0 0 1 0 0 0 1 forward_v I I I I #
coedge $-1 $289 $290 $291 $292 forward $117 $-1 #
coedge $-1 $293 $119 $294 $295 forward $74 $-1 #
coedge $-1 $119 $293 $296 $297 forward $74 $-1 #
coedge $-1 $298 $299 $119 $190 reversed $300 $-1 #
edge $-1 $301 -35.960356945164875 $302 35.960356945164875 $189 $303 forward 7 unknown #
face $-1 $304 $305 $44 $-1 $306 reversed single #
loop $-1 $-1 $307 $120 #
plane-surface $-1 0 -209.49369792779322 0 0 1 0 0 0 1 forward_v I I I I #
coedge $-1 $308 $309 $310 $311 forward $121 $-1 #
coedge $-1 $312 $123 $313 $314 forward $77 $-1 #
coedge $-1 $123 $312 $315 $316 forward $77 $-1 #
coedge $-1 $317 $318 $123 $198 reversed $319 $-1 #
edge $-1 $320 -209.49369792779322 $321 209.49369792779322 $197 $322 forward 7 unknown #
loop $-1 $323 $324 $124 #
cone-surface $-1 0 0 0 0 0 1 0.5 0 0 1 I I -0.70710678118654746 0.70710678118654746 0.5 forward I I I I #
coedge $-1 $201 $201 $128 $203 forward $125 $-1 #
coedge $-1 $202 $202 $324 $325 forward $127 $-1 #
edge $-1 $326 0 $326 6.2831853071796004 $201 $327 forward 7 unknown #
loop $-1 $328 $329 $129 #
cone-surface $-1 0 0 0 0 0 1 0.5 0 0 1 I I -0.70710678118654746 0.70710678118654746 0.5 forward I I I I #
coedge $-1 $206 $206 $133 $208 forward $130 $-1 #
coedge $-1 $207 $207 $329 $330 forward $132 $-1 #
edge $-1 $331 0 $331 6.2831853071796004 $206 $332 forward 7 unknown #
loop $-1 $333 $334 $134 #
cone-surface $-1 0 0 0 0 0 1 0.5 0 0 1 I I -0.70710678118654746 0.70710678118654746 0.5 forward I I I I #
coedge $-1 $211 $211 $138 $213 forward $135 $-1 #
coedge $-1 $212 $212 $334 $335 forward $137 $-1 #
edge $-1 $336 0 $336 6.2831853071796004 $211 $337 forward 7 unknown #
face $-1 $338 $339 $48 $-1 $340 reversed single #
loop $-1 $-1 $341 $139 #
plane-surface $-1 0 -209.49369792779322 0 0 1 0 0 0 1 forward_v I I I I #
coedge $-1 $342 $343 $344 $345 forward $140 $-1 #
coedge $-1 $346 $142 $347 $348 forward $89 $-1 #
coedge $-1 $142 $346 $349 $350 forward $89 $-1 #
coedge $-1 $351 $352 $142 $221 reversed $353 $-1 #
edge $-1 $354 -209.49369792779322 $355 209.49369792779322 $220 $356 forward 7 unknown #
loop $-1 $357 $358 $143 #
cone-surface $-1 0 0 0 0 0 1 1.25 0 0 1 I I -0.70710678118654746 0.70710678118654746 1.25 forward I I I I #
coedge $-1 $224 $224 $147 $226 forward $144 $-1 #
coedge $-1 $225 $225 $358 $359 forward $146 $-1 #
edge $-1 $360 0 $360 6.2831853071796004 $224 $361 forward 7 unknown #
face $-1 $362 $363 $50 $-1 $364 reversed single #
loop $-1 $-1 $365 $148 #
plane-surface $-1 0 -209.49369792779322 0 0 1 0 0 0 1 forward_v I I I I #
coedge $-1 $366 $367 $368 $369 forward $149 $-1 #
coedge $-1 $370 $151 $371 $372 forward $95 $-1 #
coedge $-1 $151 $370 $373 $374 forward $95 $-1 #
coedge $-1 $375 $376 $151 $234 reversed $377 $-1 #
edge $-1 $378 -209.49369792779322 $379 209.49369792779322 $233 $380 forward 7 unknown #
loop $-1 $381 $382 $152 #
cone-surface $-1 0 0 0 0 0 1 1.25 0 0 1 I I -0.70710678118654746 0.70710678118654746 1.25 forward I I I I #
coedge $-1 $237 $237 $156 $239 forward $153 $-1 #
coedge $-1 $238 $238 $382 $383 forward $155 $-1 #
edge $-1 $384 0 $384 6.2831853071796004 $237 $385 forward 7 unknown #
face $-1 $386 $387 $52 $-1 $388 reversed single #
loop $-1 $-1 $389 $157 #
plane-surface $-1 0 -209.49369792779322 0 0 1 0 0 0 1 forward_v I I I I #
coedge $-1 $390 $391 $392 $393 forward $158 $-1 #
coedge $-1 $394 $160 $395 $396 forward $101 $-1 #
coedge $-1 $160 $394 $397 $398 forward $101 $-1 #
coedge $-1 $399 $400 $160 $247 reversed $401 $-1 #
edge $-1 $402 -209.49369792779322 $403 209.49369792779322 $246 $404 forward 7 unknown #
loop $-1 $405 $406 $161 #
cone-surface $-1 0 0 0 0 0 1 1.25 0 0 1 I I -0.70710678118654746 0.70710678118654746 1.25 forward I I I I #
coedge $-1 $250 $250 $165 $252 forward $162 $-1 #
coedge $-1 $251 $251 $406 $407 forward $164 $-1 #
edge $-1 $408 0 $408 6.2831853071796004 $250 $409 forward 7 unknown #
face $-1 $410 $411 $54 $-1 $412 reversed single #
loop $-1 $-1 $413 $166 #
plane-surface $-1 0 -209.49369792779322 0 0 1 0 0 0 1 forward_v I I I I #
coedge $-1 $414 $415 $416 $417 forward $167 $-1 #
coedge $-1 $418 $169 $419 $420 forward $107 $-1 #
coedge $-1 $169 $418 $421 $422 forward $107 $-1 #
coedge $-1 $423 $424 $169 $260 reversed $425 $-1 #
edge $-1 $426 -209.49369792779322 $427 209.49369792779322 $259 $428 forward 7 unknown #
loop $-1 $429 $430 $170 #
cone-surface $-1 0 0 0 0 0 1 1.25 0 0 1 I I -0.70710678118654746 0.70710678118654746 1.25 forward I I I I #
coedge $-1 $263 $263 $174 $265 forward $171 $-1 #
coedge $-1 $264 $264 $430 $431 forward $173 $-1 #
edge $-1 $432 0 $432 6.2831853071796004 $263 $433 forward 7 unknown #
face $-1 $434 $435 $42 $-1 $436 reversed single #
loop $-1 $-1 $437 $175 #
plane-surface $-1 -52.373424481948305 0 0 1 0 0 0 0 -1 forward_v I I I I #
coedge $-1 $438 $277 $439 $440 forward $176 $-1 #
coedge $-1 $441 $178 $438 $442 forward $113 $-1 #
coedge $-1 $178 $441 $443 $444 forward $113 $-1 #
coedge $-1 $280 $279 $178 $273 reversed $281 $-1 #
edge $-1 $445 -35.960356945164875 $446 35.960356945164875 $272 $447 forward 7 unknown #
coedge $-1 $180 $179 $448 $449 forward $71 $-1 #
coedge $-1 $450 $451 $179 $276 reversed $435 $-1 #
edge $-1 $283 -52.373424481948305 $452 52.373424481948305 $275 $453 forward 7 unknown #
coedge $-1 $269 $454 $180 $278 reversed $176 $-1 #
edge $-1 $455 -52.373424481948305 $282 52.373424481948305 $277 $456 forward 7 unknown #
coedge $-1 $272 $181 $454 $457 forward $281 $-1 #
coedge $-1 $181 $272 $450 $458 reversed $281 $-1 #
loop $-1 $-1 $279 $434 #
vertex $-1 $182 $459 #
vertex $-1 $182 $460 #
straight-curve $-1 52.373424481948305 0 11.588701596061984 0 1 0 I I #
face $-1 $461 $462 $43 $-1 $463 reversed single #
loop $-1 $-1 $464 $183 #
plane-surface $-1 -4.5952648341556142 0 0 1 0 0 0 0 -1 forward_v I I I I #
coedge $-1 $465 $296 $466 $467 forward $184 $-1 #
coedge $-1 $468 $186 $465 $469 forward $117 $-1 #
coedge $-1 $186 $468 $470 $471 forward $117 $-1 #
coedge $-1 $299 $298 $186 $292 reversed $300 $-1 #
edge $-1 $472 -35.960356945164875 $473 35.960356945164875 $291 $474 forward 7 unknown #
coedge $-1 $188 $187 $475 $476 forward $74 $-1 #
coedge $-1 $477 $478 $187 $295 reversed $462 $-1 #
edge $-1 $302 -4.5952648341556142 $479 4.5952648341556142 $294 $480 forward 7 unknown #
coedge $-1 $288 $481 $188 $297 reversed $184 $-1 #
edge $-1 $482 -4.5952648341556142 $301 4.5952648341556142 $296 $483 forward 7 unknown #
coedge $-1 $291 $189 $481 $484 forward $300 $-1 #
coedge $-1 $189 $291 $477 $485 reversed $300 $-1 #
loop $-1 $-1 $298 $461 #
vertex $-1 $190 $486 #
vertex $-1 $190 $487 #
straight-curve $-1 4.5952648341556142 0 1.5933889980998579 0 1 0 I I #
face $-1 $488 $489 $44 $-1 $490 reversed single #
loop $-1 $-1 $491 $191 #
plane-surface $-1 -8.1507350265571006 0 0 1 0 0 0 0 -1 forward_v I I I I #
coedge $-1 $492 $315 $493 $494 forward $192 $-1 #
coedge $-1 $495 $194 $492 $496 forward $121 $-1 #
coedge $-1 $194 $495 $497 $498 forward $121 $-1 #
coedge $-1 $318 $317 $194 $311 reversed $319 $-1 #
edge $-1 $499 -209.49369792779322 $500 209.49369792779322 $310 $501 forward 7 unknown #
coedge $-1 $196 $195 $502 $503 forward $77 $-1 #
coedge $-1 $504 $505 $195 $314 reversed $489 $-1 #
edge $-1 $321 -8.1507350265571006 $506 8.1507350265571006 $313 $507 forward 7 unknown #
coedge $-1 $307 $508 $196 $316 reversed $192 $-1 #
edge $-1 $509 -8.1507350265571006 $320 8.1507350265571006 $315 $510 forward 7 unknown #
coedge $-1 $310 $197 $508 $511 forward $319 $-1 #
coedge $-1 $197 $310 $504 $512 reversed $319 $-1 #
loop $-1 $-1 $317 $488 #
vertex $-1 $198 $513 #
vertex $-1 $198 $514 #
straight-curve $-1 8.1507350265571006 0 104.74684896389661 0 1 0 I I #
loop $-1 $-1 $515 $124 #
coedge $-1 $324 $324 $202 $325 reversed $199 $-1 #
edge $-1 $516 0 $516 6.2831853071796004 $324 $517 forward 7 unknown #
vertex $-1 $203 $518 #
ellipse-curve $-1 0 0 -2.5690023499252304 0 0 -1 1 0 0 1 I I #
loop $-1 $-1 $519 $129 #
coedge $-1 $329 $329 $207 $330 reversed $204 $-1 #
edge $-1 $520 0 $520 6.2831853071796004 $329 $521 forward 7 unknown #
vertex $-1 $208 $522 #
ellipse-curve $-1 0 0 -2.5690023499252304 0 0 -1 1 0 0 1 I I #
loop $-1 $-1 $523 $134 #
coedge $-1 $334 $334 $212 $335 reversed $209 $-1 #
edge $-1 $524 0 $524 6.2831853071796004 $334 $525 forward 7 unknown #
vertex $-1 $213 $526 #
ellipse-curve $-1 0 0 -2.5690023499252304 0 0 -1 1 0 0 1 I I #
face $-1 $527 $528 $48 $-1 $529 reversed single #
loop $-1 $-1 $530 $214 #
plane-surface $-1 -6.2138072387786423 0 0 1 0 0 0 0 -1 forward_v I I I I #
coedge $-1 $531 $349 $532 $533 forward $215 $-1 #
coedge $-1 $534 $217 $531 $535 forward $140 $-1 #
coedge $-1 $217 $534 $536 $537 forward $140 $-1 #
coedge $-1 $352 $351 $217 $345 reversed $353 $-1 #
edge $-1 $538 -209.49369792779322 $539 209.49369792779322 $344 $540 forward 7 unknown #
coedge $-1 $219 $218 $541 $542 forward $89 $-1 #
coedge $-1 $543 $544 $218 $348 reversed $528 $-1 #
edge $-1 $355 -6.2138072387786423 $545 6.2138072387786423 $347 $546 forward 7 unknown #
coedge $-1 $341 $547 $219 $350 reversed $215 $-1 #
edge $-1 $548 -6.2138072387786423 $354 6.2138072387786423 $349 $549 forward 7 unknown #
coedge $-1 $344 $220 $547 $550 forward $353 $-1 #
coedge $-1 $220 $344 $543 $551 reversed $353 $-1 #
loop $-1 $-1 $351 $527 #
vertex $-1 $221 $552 #
vertex $-1 $221 $553 #
straight-curve $-1 6.2138072387786423 0 104.74684896389661 0 1 0 I I #
loop $-1 $-1 $554 $143 #
coedge $-1 $358 $358 $225 $359 reversed $222 $-1 #
edge $-1 $555 0 $555 6.2831853071796004 $358 $556 forward 7 unknown #
vertex $-1 $226 $557 #
ellipse-curve $-1 0 0 -5.436223944822534 0 0 -1 2.5 0 0 1 I I #
face $-1 $558 $559 $50 $-1 $560 reversed single #
loop $-1 $-1 $561 $227 #
plane-surface $-1 -6.2138072387786423 0 0 1 0 0 0 0 -1 forward_v I I I I #
coedge $-1 $562 $373 $563 $564 forward $228 $-1 #
coedge $-1 $565 $230 $562 $566 forward $149 $-1 #
coedge $-1 $230 $565 $567 $568 forward $149 $-1 #
coedge $-1 $376 $375 $230 $369 reversed $377 $-1 #
edge $-1 $569 -209.49369792779322 $570 209.49369792779322 $368 $571 forward 7 unknown #
coedge $-1 $232 $231 $572 $573 forward $95 $-1 #
coedge $-1 $574 $575 $231 $372 reversed $559 $-1 #
edge $-1 $379 -6.2138072387786423 $576 6.2138072387786423 $371 $577 forward 7 unknown #
coedge $-1 $365 $578 $232 $374 reversed $228 $-1 #
edge $-1 $579 -6.2138072387786423 $378 6.2138072387786423 $373 $580 forward 7 unknown #
coedge $-1 $368 $233 $578 $581 forward $377 $-1 #
coedge $-1 $233 $368 $574 $582 reversed $377 $-1 #
loop $-1 $-1 $375 $558 #
vertex $-1 $234 $583 #
vertex $-1 $234 $584 #
straight-curve $-1 6.2138072387786423 0 104.74684896389661 0 1 0 I I #
loop $-1 $-1 $585 $152 #
coedge $-1 $382 $382 $238 $383 reversed $235 $-1 #
edge $-1 $586 0 $586 6.2831853071796004 $382 $587 forward 7 unknown #
vertex $-1 $239 $588 #
ellipse-curve $-1 0 0 -5.436223944822534 0 0 -1 2.5 0 0 1 I I #
face $-1 $589 $590 $52 $-1 $591 reversed single #
loop $-1 $-1 $592 $240 #
plane-surface $-1 -6.2138072387786423 0 0 1 0 0 0 0 -1 forward_v I I I I #
coedge $-1 $593 $397 $594 $595 forward $241 $-1 #
coedge $-1 $596 $243 $593 $597 forward $158 $-1 #
coedge $-1 $243 $596 $598 $599 forward $158 $-1 #
coedge $-1 $400 $399 $243 $393 reversed $401 $-1 #
edge $-1 $600 -209.49369792779322 $601 209.49369792779322 $392 $602 forward 7 unknown #
coedge $-1 $245 $244 $603 $604 forward $101 $-1 #
coedge $-1 $605 $606 $244 $396 reversed $590 $-1 #
edge $-1 $403 -6.2138072387786423 $607 6.2138072387786423 $395 $608 forward 7 unknown #
coedge $-1 $389 $609 $245 $398 reversed $241 $-1 #
edge $-1 $610 -6.2138072387786423 $402 6.2138072387786423 $397 $611 forward 7 unknown #
coedge $-1 $392 $246 $609 $612 forward $401 $-1 #
coedge $-1 $246 $392 $605 $613 reversed $401 $-1 #
loop $-1 $-1 $399 $589 #
vertex $-1 $247 $614 #
vertex $-1 $247 $615 #
straight-curve $-1 6.2138072387786423 0 104.74684896389661 0 1 0 I I #
loop $-1 $-1 $616 $161 #
coedge $-1 $406 $406 $251 $407 reversed $248 $-1 #
edge $-1 $617 0 $617 6.2831853071796004 $406 $618 forward 7 unknown #
vertex $-1 $252 $619 #
ellipse-curve $-1 0 0 -5.436223944822534 0 0 -1 2.5 0 0 1 I I #
face $-1 $620 $621 $54 $-1 $622 reversed single #
loop $-1 $-1 $623 $253 #
plane-surface $-1 -6.2138072387786423 0 0 1 0 0 0 0 -1 forward_v I I I I #
coedge $-1 $624 $421 $625 $626 forward $254 $-1 #
coedge $-1 $627 $256 $624 $628 forward $167 $-1 #
coedge $-1 $256 $627 $629 $630 forward $167 $-1 #
coedge $-1 $424 $423 $256 $417 reversed $425 $-1 #
edge $-1 $631 -209.49369792779322 $632 209.49369792779322 $416 $633 forward 7 unknown #
coedge $-1 $258 $257 $634 $635 forward $107 $-1 #
coedge $-1 $636 $637 $257 $420 reversed $621 $-1 #
edge $-1 $427 -6.2138072387786423 $638 6.2138072387786423 $419 $639 forward 7 unknown #
coedge $-1 $413 $640 $258 $422 reversed $254 $-1 #
edge $-1 $641 -6.2138072387786423 $426 6.2138072387786423 $421 $642 forward 7 unknown #
coedge $-1 $416 $259 $640 $643 forward $425 $-1 #
coedge $-1 $259 $416 $636 $644 reversed $425 $-1 #
loop $-1 $-1 $423 $620 #
vertex $-1 $260 $645 #
vertex $-1 $260 $646 #
straight-curve $-1 6.2138072387786423 0 104.74684896389661 0 1 0 I I #
loop $-1 $-1 $647 $170 #
coedge $-1 $430 $430 $264 $431 reversed $261 $-1 #
edge $-1 $648 0 $648 6.2831853071796004 $430 $649 forward 7 unknown #
vertex $-1 $265 $650 #
ellipse-curve $-1 0 0 -5.436223944822534 0 0 -1 2.5 0 0 1 I I #
face $-1 $-1 $281 $42 $-1 $651 reversed single #
loop $-1 $-1 $450 $266 #
plane-surface $-1 0 35.960356945164875 0 0 -1 0 0 0 -1 forward_v I I I I #
coedge $-1 $652 $448 $451 $653 forward $267 $-1 #
coedge $-1 $454 $269 $270 $442 reversed $176 $-1 #
coedge $-1 $448 $652 $269 $440 reversed $267 $-1 #
edge $-1 $455 -11.588701596061984 $654 11.588701596061984 $439 $655 forward 7 unknown #
coedge $-1 $271 $270 $652 $656 forward $113 $-1 #
edge $-1 $446 -52.373424481948305 $654 52.373424481948305 $438 $657 forward 7 unknown #
coedge $-1 $451 $450 $271 $444 reversed $435 $-1 #
edge $-1 $658 -52.373424481948305 $445 52.373424481948305 $443 $659 forward 7 unknown #
vertex $-1 $273 $660 #
vertex $-1 $457 $661 #
straight-curve $-1 52.373424481948305 0 -11.588701596061984 0 -1 0 I I #
coedge $-1 $437 $439 $274 $449 reversed $267 $-1 #
edge $-1 $452 -35.960356945164875 $455 35.960356945164875 $448 $662 forward 7 unknown #
coedge $-1 $443 $275 $280 $458 forward $435 $-1 #
coedge $-1 $275 $443 $437 $653 reversed $435 $-1 #
vertex $-1 $276 $663 #
straight-curve $-1 0 35.960356945164875 11.588701596061984 -1 0 0 I I #
coedge $-1 $277 $438 $279 $457 reversed $176 $-1 #
vertex $-1 $449 $664 #
straight-curve $-1 0 -35.960356945164875 11.588701596061984 1 0 0 I I #
edge $-1 $282 -11.588701596061984 $446 11.588701596061984 $279 $665 forward 7 unknown #
edge $-1 $283 -11.588701596061984 $445 11.588701596061984 $280 $666 forward 7 unknown #
point $-1 52.373424481948305 -35.960356945164875 11.588701596061984 #
point $-1 52.373424481948305 35.960356945164875 11.588701596061984 #
face $-1 $-1 $300 $43 $-1 $667 reversed single #
loop $-1 $-1 $477 $285 #
plane-surface $-1 0 35.960356945164875 0 0 -1 0 0 0 -1 forward_v I I I I #
coedge $-1 $668 $475 $478 $669 forward $286 $-1 #
coedge $-1 $481 $288 $289 $469 reversed $184 $-1 #
coedge $-1 $475 $668 $288 $467 reversed $286 $-1 #
edge $-1 $482 -1.5933889980998579 $670 1.5933889980998579 $466 $671 forward 7 unknown #
coedge $-1 $290 $289 $668 $672 forward $117 $-1 #
edge $-1 $473 -4.5952648341556142 $670 4.5952648341556142 $465 $673 forward 7 unknown #
coedge $-1 $478 $477 $290 $471 reversed $462 $-1 #
edge $-1 $674 -4.5952648341556142 $472 4.5952648341556142 $470 $675 forward 7 unknown #
vertex $-1 $292 $676 #
vertex $-1 $484 $677 #
straight-curve $-1 4.5952648341556142 0 -1.5933889980998579 0 -1 0 I I #
coedge $-1 $464 $466 $293 $476 reversed $286 $-1 #
edge $-1 $479 -35.960356945164875 $482 35.960356945164875 $475 $678 forward 7 unknown #
coedge $-1 $470 $294 $299 $485 forward $462 $-1 #
coedge $-1 $294 $470 $464 $669 reversed $462 $-1 #
vertex $-1 $295 $679 #
straight-curve $-1 0 35.960356945164875 1.5933889980998579 -1 0 0 I I #
coedge $-1 $296 $465 $298 $484 reversed $184 $-1 #
vertex $-1 $476 $680 #
straight-curve $-1 0 -35.960356945164875 1.5933889980998579 1 0 0 I I #
edge $-1 $301 -1.5933889980998579 $473 1.5933889980998579 $298 $681 forward 7 unknown #
edge $-1 $302 -1.5933889980998579 $472 1.5933889980998579 $299 $682 forward 7 unknown #
point $-1 4.5952648341556142 -35.960356945164875 1.5933889980998579 #
point $-1 4.5952648341556142 35.960356945164875 1.5933889980998579 #
face $-1 $-1 $319 $44 $-1 $683 reversed single #
loop $-1 $-1 $504 $304 #
plane-surface $-1 0 209.49369792779322 0 0 -1 0 0 0 -1 forward_v I I I I #
coedge $-1 $684 $502 $505 $685 forward $305 $-1 #
coedge $-1 $508 $307 $308 $496 reversed $192 $-1 #
coedge $-1 $502 $684 $307 $494 reversed $305 $-1 #
edge $-1 $509 -104.74684896389661 $686 104.74684896389661 $493 $687 forward 7 unknown #
coedge $-1 $309 $308 $684 $688 forward $121 $-1 #
edge $-1 $500 -8.1507350265571006 $686 8.1507350265571006 $492 $689 forward 7 unknown #
coedge $-1 $505 $504 $309 $498 reversed $489 $-1 #
edge $-1 $690 -8.1507350265571006 $499 8.1507350265571006 $497 $691 forward 7 unknown #
vertex $-1 $311 $692 #
vertex $-1 $511 $693 #
straight-curve $-1 8.1507350265571006 0 -104.74684896389661 0 -1 0 I I #
coedge $-1 $491 $493 $312 $503 reversed $305 $-1 #
edge $-1 $506 -209.49369792779322 $509 209.49369792779322 $502 $694 forward 7 unknown #
coedge $-1 $497 $313 $318 $512 forward $489 $-1 #
coedge $-1 $313 $497 $491 $685 reversed $489 $-1 #
vertex $-1 $314 $695 #
straight-curve $-1 0 209.49369792779322 104.74684896389661 -1 0 0 I I #
coedge $-1 $315 $492 $317 $511 reversed $192 $-1 #
vertex $-1 $503 $696 #
straight-curve $-1 0 -209.49369792779322 104.74684896389661 1 0 0 I I #
edge $-1 $320 -104.74684896389661 $500 104.74684896389661 $317 $697 forward 7 unknown #
edge $-1 $321 -104.74684896389661 $499 104.74684896389661 $318 $698 forward 7 unknown #
point $-1 8.1507350265571006 -209.49369792779322 104.74684896389661 #
point $-1 8.1507350265571006 209.49369792779322 104.74684896389661 #
coedge $-1 $515 $515 $-1 $699 reversed $323 $-1 #
vertex $-1 $325 $700 #
ellipse-curve $-1 0 0 -0.5 0 0 -1 1 0 0 1 I I #
point $-1 1 0 -2.5690023499252304 #
coedge $-1 $519 $519 $-1 $701 reversed $328 $-1 #
vertex $-1 $330 $702 #
ellipse-curve $-1 0 0 -0.5 0 0 -1 1 0 0 1 I I #
point $-1 1 0 -2.5690023499252304 #
coedge $-1 $523 $523 $-1 $703 reversed $333 $-1 #
vertex $-1 $335 $704 #
ellipse-curve $-1 0 0 -0.5 0 0 -1 1 0 0 1 I I #
point $-1 1 0 -2.5690023499252304 #
face $-1 $-1 $353 $48 $-1 $705 reversed single #
loop $-1 $-1 $543 $338 #
plane-surface $-1 0 209.49369792779322 0 0 -1 0 0 0 -1 forward_v I I I I #
coedge $-1 $706 $541 $544 $707 forward $339 $-1 #
coedge $-1 $547 $341 $342 $535 reversed $215 $-1 #
coedge $-1 $541 $706 $341 $533 reversed $339 $-1 #
edge $-1 $548 -104.74684896389661 $708 104.74684896389661 $532 $709 forward 7 unknown #
coedge $-1 $343 $342 $706 $710 forward $140 $-1 #
edge $-1 $539 -6.2138072387786423 $708 6.2138072387786423 $531 $711 forward 7 unknown #
coedge $-1 $544 $543 $343 $537 reversed $528 $-1 #
edge $-1 $712 -6.2138072387786423 $538 6.2138072387786423 $536 $713 forward 7 unknown #
vertex $-1 $345 $714 #
vertex $-1 $550 $715 #
straight-curve $-1 6.2138072387786423 0 -104.74684896389661 0 -1 0 I I #
coedge $-1 $530 $532 $346 $542 reversed $339 $-1 #
edge $-1 $545 -209.49369792779322 $548 209.49369792779322 $541 $716 forward 7 unknown #
coedge $-1 $536 $347 $352 $551 forward $528 $-1 #
coedge $-1 $347 $536 $530 $707 reversed $528 $-1 #
vertex $-1 $348 $717 #
straight-curve $-1 0 209.49369792779322 104.74684896389661 -1 0 0 I I #
coedge $-1 $349 $531 $351 $550 reversed $215 $-1 #
vertex $-1 $542 $718 #
straight-curve $-1 0 -209.49369792779322 104.74684896389661 1 0 0 I I #
edge $-1 $354 -104.74684896389661 $539 104.74684896389661 $351 $719 forward 7 unknown #
edge $-1 $355 -104.74684896389661 $538 104.74684896389661 $352 $720 forward 7 unknown #
point $-1 6.2138072387786423 -209.49369792779322 104.74684896389661 #
point $-1 6.2138072387786423 209.49369792779322 104.74684896389661 #
coedge $-1 $554 $554 $-1 $721 reversed $357 $-1 #
vertex $-1 $359 $722 #
ellipse-curve $-1 0 0 -1.25 0 0 -1 2.5 0 0 1 I I #
point $-1 2.5 0 -5.436223944822534 #
face $-1 $-1 $377 $50 $-1 $723 reversed single #
loop $-1 $-1 $574 $362 #
plane-surface $-1 0 209.49369792779322 0 0 -1 0 0 0 -1 forward_v I I I I #
coedge $-1 $724 $572 $575 $725 forward $363 $-1 #
coedge $-1 $578 $365 $366 $566 reversed $228 $-1 #
coedge $-1 $572 $724 $365 $564 reversed $363 $-1 #
edge $-1 $579 -104.74684896389661 $726 104.74684896389661 $563 $727 forward 7 unknown #
coedge $-1 $367 $366 $724 $728 forward $149 $-1 #
edge $-1 $570 -6.2138072387786423 $726 6.2138072387786423 $562 $729 forward 7 unknown #
coedge $-1 $575 $574 $367 $568 reversed $559 $-1 #
edge $-1 $730 -6.2138072387786423 $569 6.2138072387786423 $567 $731 forward 7 unknown #
vertex $-1 $369 $732 #
vertex $-1 $581 $733 #
straight-curve $-1 6.2138072387786423 0 -104.74684896389661 0 -1 0 I I #
coedge $-1 $561 $563 $370 $573 reversed $363 $-1 #
edge $-1 $576 -209.49369792779322 $579 209.49369792779322 $572 $734 forward 7 unknown #
coedge $-1 $567 $371 $376 $582 forward $559 $-1 #
coedge $-1 $371 $567 $561 $725 reversed $559 $-1 #
vertex $-1 $372 $735 #
straight-curve $-1 0 209.49369792779322 104.74684896389661 -1 0 0 I I #
coedge $-1 $373 $562 $375 $581 reversed $228 $-1 #
vertex $-1 $573 $736 #
straight-curve $-1 0 -209.49369792779322 104.74684896389661 1 0 0 I I #
edge $-1 $378 -104.74684896389661 $570 104.74684896389661 $375 $737 forward 7 unknown #
edge $-1 $379 -104.74684896389661 $569 104.74684896389661 $376 $738 forward 7 unknown #
point $-1 6.2138072387786423 -209.49369792779322 104.74684896389661 #
point $-1 6.2138072387786423 209.49369792779322 104.74684896389661 #
coedge $-1 $585 $585 $-1 $739 reversed $381 $-1 #
vertex $-1 $383 $740 #
ellipse-curve $-1 0 0 -1.25 0 0 -1 2.5 0 0 1 I I #
point $-1 2.5 0 -5.436223944822534 #
face $-1 $-1 $401 $52 $-1 $741 reversed single #
loop $-1 $-1 $605 $386 #
plane-surface $-1 0 209.49369792779322 0 0 -1 0 0 0 -1 forward_v I I I I #
coedge $-1 $742 $603 $606 $743 forward $387 $-1 #
coedge $-1 $609 $389 $390 $597 reversed $241 $-1 #
coedge $-1 $603 $742 $389 $595 reversed $387 $-1 #
edge $-1 $610 -104.74684896389661 $744 104.74684896389661 $594 $745 forward 7 unknown #
coedge $-1 $391 $390 $742 $746 forward $158 $-1 #
edge $-1 $601 -6.2138072387786423 $744 6.2138072387786423 $593 $747 forward 7 unknown #
coedge $-1 $606 $605 $391 $599 reversed $590 $-1 #
edge $-1 $748 -6.2138072387786423 $600 6.2138072387786423 $598 $749 forward 7 unknown #
vertex $-1 $393 $750 #
vertex $-1 $612 $751 #
straight-curve $-1 6.2138072387786423 0 -104.74684896389661 0 -1 0 I I #
coedge $-1 $592 $594 $394 $604 reversed $387 $-1 #
edge $-1 $607 -209.49369792779322 $610 209.49369792779322 $603 $752 forward 7 unknown #
coedge $-1 $598 $395 $400 $613 forward $590 $-1 #
coedge $-1 $395 $598 $592 $743 reversed $590 $-1 #
vertex $-1 $396 $753 #
straight-curve $-1 0 209.49369792779322 104.74684896389661 -1 0 0 I I #
coedge $-1 $397 $593 $399 $612 reversed $241 $-1 #
vertex $-1 $604 $754 #
straight-curve $-1 0 -209.49369792779322 104.74684896389661 1 0 0 I I #
edge $-1 $402 -104.74684896389661 $601 104.74684896389661 $399 $755 forward 7 unknown #
edge $-1 $403 -104.74684896389661 $600 104.74684896389661 $400 $756 forward 7 unknown #
point $-1 6.2138072387786423 -209.49369792779322 104.74684896389661 #
point $-1 6.2138072387786423 209.49369792779322 104.74684896389661 #
coedge $-1 $616 $616 $-1 $757 reversed $405 $-1 #
vertex $-1 $407 $758 #
ellipse-curve $-1 0 0 -1.25 0 0 -1 2.5 0 0 1 I I #
point $-1 2.5 0 -5.436223944822534 #
face $-1 $-1 $425 $54 $-1 $759 reversed single #
loop $-1 $-1 $636 $410 #
plane-surface $-1 0 209.49369792779322 0 0 -1 0 0 0 -1 forward_v I I I I #
coedge $-1 $760 $634 $637 $761 forward $411 $-1 #
coedge $-1 $640 $413 $414 $628 reversed $254 $-1 #
coedge $-1 $634 $760 $413 $626 reversed $411 $-1 #
edge $-1 $641 -104.74684896389661 $762 104.74684896389661 $625 $763 forward 7 unknown #
coedge $-1 $415 $414 $760 $764 forward $167 $-1 #
edge $-1 $632 -6.2138072387786423 $762 6.2138072387786423 $624 $765 forward 7 unknown #
coedge $-1 $637 $636 $415 $630 reversed $621 $-1 #
edge $-1 $766 -6.2138072387786423 $631 6.2138072387786423 $629 $767 forward 7 unknown #
vertex $-1 $417 $768 #
vertex $-1 $643 $769 #
straight-curve $-1 6.2138072387786423 0 -104.74684896389661 0 -1 0 I I #
coedge $-1 $623 $625 $418 $635 reversed $411 $-1 #
edge $-1 $638 -209.49369792779322 $641 209.49369792779322 $634 $770 forward 7 unknown #
coedge $-1 $629 $419 $424 $644 forward $621 $-1 #
coedge $-1 $419 $629 $623 $761 reversed $621 $-1 #
vertex $-1 $420 $771 #
straight-curve $-1 0 209.49369792779322 104.74684896389661 -1 0 0 I I #
coedge $-1 $421 $624 $423 $643 reversed $254 $-1 #
vertex $-1 $635 $772 #
straight-curve $-1 0 -209.49369792779322 104.74684896389661 1 0 0 I I #
edge $-1 $426 -104.74684896389661 $632 104.74684896389661 $423 $773 forward 7 unknown #
edge $-1 $427 -104.74684896389661 $631 104.74684896389661 $424 $774 forward 7 unknown #
point $-1 6.2138072387786423 -209.49369792779322 104.74684896389661 #
point $-1 6.2138072387786423 209.49369792779322 104.74684896389661 #
coedge $-1 $647 $647 $-1 $775 reversed $429 $-1 #
vertex $-1 $431 $776 #
ellipse-curve $-1 0 0 -1.25 0 0 -1 2.5 0 0 1 I I #
point $-1 2.5 0 -5.436223944822534 #
plane-surface $-1 52.373424481948305 0 0 -1 0 0 0 0 1 forward_v I I I I #
coedge $-1 $439 $437 $441 $656 reversed $267 $-1 #
edge $-1 $452 -11.588701596061984 $658 11.588701596061984 $451 $777 forward 7 unknown #
vertex $-1 $656 $778 #
straight-curve $-1 -52.373424481948305 -35.960356945164875 0 0 0 -1 I I #
edge $-1 $654 -35.960356945164875 $658 35.960356945164875 $652 $779 forward 7 unknown #
straight-curve $-1 0 -35.960356945164875 -11.588701596061984 -1 0 0 I I #
vertex $-1 $444 $780 #
straight-curve $-1 0 35.960356945164875 -11.588701596061984 1 0 0 I I #
point $-1 52.373424481948305 35.960356945164875 -11.588701596061984 #
point $-1 52.373424481948305 -35.960356945164875 -11.588701596061984 #
straight-curve $-1 -52.373424481948305 0 11.588701596061984 0 -1 0 I I #
point $-1 -52.373424481948305 35.960356945164875 11.588701596061984 #
point $-1 -52.373424481948305 -35.960356945164875 11.588701596061984 #
straight-curve $-1 52.373424481948305 -35.960356945164875 0 0 0 -1 I I #
straight-curve $-1 52.373424481948305 35.960356945164875 0 0 0 -1 I I #
plane-surface $-1 4.5952648341556142 0 0 -1 0 0 0 0 1 forward_v I I I I #
coedge $-1 $466 $464 $468 $672 reversed $286 $-1 #
edge $-1 $479 -1.5933889980998579 $674 1.5933889980998579 $478 $781 forward 7 unknown #
vertex $-1 $672 $782 #
straight-curve $-1 -4.5952648341556142 -35.960356945164875 0 0 0 -1 I I #
edge $-1 $670 -35.960356945164875 $674 35.960356945164875 $668 $783 forward 7 unknown #
straight-curve $-1 0 -35.960356945164875 -1.5933889980998579 -1 0 0 I I #
vertex $-1 $471 $784 #
straight-curve $-1 0 35.960356945164875 -1.5933889980998579 1 0 0 I I #
point $-1 4.5952648341556142 35.960356945164875 -1.5933889980998579 #
point $-1 4.5952648341556142 -35.960356945164875 -1.5933889980998579 #
straight-curve $-1 -4.5952648341556142 0 1.5933889980998579 0 -1 0 I I #
point $-1 -4.5952648341556142 35.960356945164875 1.5933889980998579 #
point $-1 -4.5952648341556142 -35.960356945164875 1.5933889980998579 #
straight-curve $-1 4.5952648341556142 -35.960356945164875 0 0 0 -1 I I #
straight-curve $-1 4.5952648341556142 35.960356945164875 0 0 0 -1 I I #
plane-surface $-1 8.1507350265571006 0 0 -1 0 0 0 0 1 forward_v I I I I #
coedge $-1 $493 $491 $495 $688 reversed $305 $-1 #
edge $-1 $506 -104.74684896389661 $690 104.74684896389661 $505 $785 forward 7 unknown #
vertex $-1 $688 $786 #
straight-curve $-1 -8.1507350265571006 -209.49369792779322 0 0 0 -1 I I #
edge $-1 $686 -209.49369792779322 $690 209.49369792779322 $684 $787 forward 7 unknown #
straight-curve $-1 0 -209.49369792779322 -104.74684896389661 -1 0 0 I I #
vertex $-1 $498 $788 #
straight-curve $-1 0 209.49369792779322 -104.74684896389661 1 0 0 I I #
point $-1 8.1507350265571006 209.49369792779322 -104.74684896389661 #
point $-1 8.1507350265571006 -209.49369792779322 -104.74684896389661 #
straight-curve $-1 -8.1507350265571006 0 104.74684896389661 0 -1 0 I I #
point $-1 -8.1507350265571006 209.49369792779322 104.74684896389661 #
point $-1 -8.1507350265571006 -209.49369792779322 104.74684896389661 #
straight-curve $-1 8.1507350265571006 -209.49369792779322 0 0 0 -1 I I #
straight-curve $-1 8.1507350265571006 209.49369792779322 0 0 0 -1 I I #
edge $-1 $789 1 $789 0 $515 $-1 forward 7 unknown #
point $-1 1 0 -0.5 #
edge $-1 $790 1 $790 0 $519 $-1 forward 7 unknown #
point $-1 1 0 -0.5 #
edge $-1 $791 1 $791 0 $523 $-1 forward 7 unknown #
point $-1 1 0 -0.5 #
plane-surface $-1 6.2138072387786423 0 0 -1 0 0 0 0 1 forward_v I I I I #
coedge $-1 $532 $530 $534 $710 reversed $339 $-1 #
edge $-1 $545 -104.74684896389661 $712 104.74684896389661 $544 $792 forward 7 unknown #
vertex $-1 $710 $793 #
straight-curve $-1 -6.2138072387786423 -209.49369792779322 0 0 0 -1 I I #
edge $-1 $708 -209.49369792779322 $712 209.49369792779322 $706 $794 forward 7 unknown #
straight-curve $-1 0 -209.49369792779322 -104.74684896389661 -1 0 0 I I #
vertex $-1 $537 $795 #
straight-curve $-1 0 209.49369792779322 -104.74684896389661 1 0 0 I I #
point $-1 6.2138072387786423 209.49369792779322 -104.74684896389661 #
point $-1 6.2138072387786423 -209.49369792779322 -104.74684896389661 #
straight-curve $-1 -6.2138072387786423 0 104.74684896389661 0 -1 0 I I #
point $-1 -6.2138072387786423 209.49369792779322 104.74684896389661 #
point $-1 -6.2138072387786423 -209.49369792779322 104.74684896389661 #
straight-curve $-1 6.2138072387786423 -209.49369792779322 0 0 0 -1 I I #
straight-curve $-1 6.2138072387786423 209.49369792779322 0 0 0 -1 I I #
edge $-1 $796 1 $796 0 $554 $-1 forward 7 unknown #
point $-1 2.5 0 -1.25 #
plane-surface $-1 6.2138072387786423 0 0 -1 0 0 0 0 1 forward_v I I I I #
coedge $-1 $563 $561 $565 $728 reversed $363 $-1 #
edge $-1 $576 -104.74684896389661 $730 104.74684896389661 $575 $797 forward 7 unknown #
vertex $-1 $728 $798 #
straight-curve $-1 -6.2138072387786423 -209.49369792779322 0 0 0 -1 I I #
edge $-1 $726 -209.49369792779322 $730 209.49369792779322 $724 $799 forward 7 unknown #
straight-curve $-1 0 -209.49369792779322 -104.74684896389661 -1 0 0 I I #
vertex $-1 $568 $800 #
straight-curve $-1 0 209.49369792779322 -104.74684896389661 1 0 0 I I #
point $-1 6.2138072387786423 209.49369792779322 -104.74684896389661 #
point $-1 6.2138072387786423 -209.49369792779322 -104.74684896389661 #
straight-curve $-1 -6.2138072387786423 0 104.74684896389661 0 -1 0 I I #
point $-1 -6.2138072387786423 209.49369792779322 104.74684896389661 #
point $-1 -6.2138072387786423 -209.49369792779322 104.74684896389661 #
straight-curve $-1 6.2138072387786423 -209.49369792779322 0 0 0 -1 I I #
straight-curve $-1 6.2138072387786423 209.49369792779322 0 0 0 -1 I I #
edge $-1 $801 1 $801 0 $585 $-1 forward 7 unknown #
point $-1 2.5 0 -1.25 #
plane-surface $-1 6.2138072387786423 0 0 -1 0 0 0 0 1 forward_v I I I I #
coedge $-1 $594 $592 $596 $746 reversed $387 $-1 #
edge $-1 $607 -104.74684896389661 $748 104.74684896389661 $606 $802 forward 7 unknown #
vertex $-1 $746 $803 #
straight-curve $-1 -6.2138072387786423 -209.49369792779322 0 0 0 -1 I I #
edge $-1 $744 -209.49369792779322 $748 209.49369792779322 $742 $804 forward 7 unknown #
straight-curve $-1 0 -209.49369792779322 -104.74684896389661 -1 0 0 I I #
vertex $-1 $599 $805 #
straight-curve $-1 0 209.49369792779322 -104.74684896389661 1 0 0 I I #
point $-1 6.2138072387786423 209.49369792779322 -104.74684896389661 #
point $-1 6.2138072387786423 -209.49369792779322 -104.74684896389661 #
straight-curve $-1 -6.2138072387786423 0 104.74684896389661 0 -1 0 I I #
point $-1 -6.2138072387786423 209.49369792779322 104.74684896389661 #
point $-1 -6.2138072387786423 -209.49369792779322 104.74684896389661 #
straight-curve $-1 6.2138072387786423 -209.49369792779322 0 0 0 -1 I I #
straight-curve $-1 6.2138072387786423 209.49369792779322 0 0 0 -1 I I #
edge $-1 $806 1 $806 0 $616 $-1 forward 7 unknown #
point $-1 2.5 0 -1.25 #
plane-surface $-1 6.2138072387786423 0 0 -1 0 0 0 0 1 forward_v I I I I #
coedge $-1 $625 $623 $627 $764 reversed $411 $-1 #
edge $-1 $638 -104.74684896389661 $766 104.74684896389661 $637 $807 forward 7 unknown #
vertex $-1 $764 $808 #
straight-curve $-1 -6.2138072387786423 -209.49369792779322 0 0 0 -1 I I #
edge $-1 $762 -209.49369792779322 $766 209.49369792779322 $760 $809 forward 7 unknown #
straight-curve $-1 0 -209.49369792779322 -104.74684896389661 -1 0 0 I I #
vertex $-1 $630 $810 #
straight-curve $-1 0 209.49369792779322 -104.74684896389661 1 0 0 I I #
point $-1 6.2138072387786423 209.49369792779322 -104.74684896389661 #
point $-1 6.2138072387786423 -209.49369792779322 -104.74684896389661 #
straight-curve $-1 -6.2138072387786423 0 104.74684896389661 0 -1 0 I I #
point $-1 -6.2138072387786423 209.49369792779322 104.74684896389661 #
point $-1 -6.2138072387786423 -209.49369792779322 104.74684896389661 #
straight-curve $-1 6.2138072387786423 -209.49369792779322 0 0 0 -1 I I #
straight-curve $-1 6.2138072387786423 209.49369792779322 0 0 0 -1 I I #
edge $-1 $811 1 $811 0 $647 $-1 forward 7 unknown #
point $-1 2.5 0 -1.25 #
straight-curve $-1 -52.373424481948305 35.960356945164875 0 0 0 -1 I I #
point $-1 -52.373424481948305 -35.960356945164875 -11.588701596061984 #
straight-curve $-1 -52.373424481948305 0 -11.588701596061984 0 1 0 I I #
point $-1 -52.373424481948305 35.960356945164875 -11.588701596061984 #
straight-curve $-1 -4.5952648341556142 35.960356945164875 0 0 0 -1 I I #
point $-1 -4.5952648341556142 -35.960356945164875 -1.5933889980998579 #
straight-curve $-1 -4.5952648341556142 0 -1.5933889980998579 0 1 0 I I #
point $-1 -4.5952648341556142 35.960356945164875 -1.5933889980998579 #
straight-curve $-1 -8.1507350265571006 209.49369792779322 0 0 0 -1 I I #
point $-1 -8.1507350265571006 -209.49369792779322 -104.74684896389661 #
straight-curve $-1 -8.1507350265571006 0 -104.74684896389661 0 1 0 I I #
point $-1 -8.1507350265571006 209.49369792779322 -104.74684896389661 #
vertex $-1 $699 $812 #
vertex $-1 $701 $813 #
vertex $-1 $703 $814 #
straight-curve $-1 -6.2138072387786423 209.49369792779322 0 0 0 -1 I I #
point $-1 -6.2138072387786423 -209.49369792779322 -104.74684896389661 #
straight-curve $-1 -6.2138072387786423 0 -104.74684896389661 0 1 0 I I #
point $-1 -6.2138072387786423 209.49369792779322 -104.74684896389661 #
vertex $-1 $721 $815 #
straight-curve $-1 -6.2138072387786423 209.49369792779322 0 0 0 -1 I I #
point $-1 -6.2138072387786423 -209.49369792779322 -104.74684896389661 #
straight-curve $-1 -6.2138072387786423 0 -104.74684896389661 0 1 0 I I #
point $-1 -6.2138072387786423 209.49369792779322 -104.74684896389661 #
vertex $-1 $739 $816 #
straight-curve $-1 -6.2138072387786423 209.49369792779322 0 0 0 -1 I I #
point $-1 -6.2138072387786423 -209.49369792779322 -104.74684896389661 #
straight-curve $-1 -6.2138072387786423 0 -104.74684896389661 0 1 0 I I #
point $-1 -6.2138072387786423 209.49369792779322 -104.74684896389661 #
vertex $-1 $757 $817 #
straight-curve $-1 -6.2138072387786423 209.49369792779322 0 0 0 -1 I I #
point $-1 -6.2138072387786423 -209.49369792779322 -104.74684896389661 #
straight-curve $-1 -6.2138072387786423 0 -104.74684896389661 0 1 0 I I #
point $-1 -6.2138072387786423 209.49369792779322 -104.74684896389661 #
vertex $-1 $775 $818 #
point $-1 0 0 0.5 #
point $-1 0 0 0.5 #
point $-1 0 0 0.5 #
point $-1 0 0 1.25 #
point $-1 0 0 1.25 #
point $-1 0 0 1.25 #
point $-1 0 0 1.25 #
End-of-ACIS-data 