500 0 11 0           
7 Unknown 11 ACIS 5.0 NT 24 Fri Mar 26 16:51:50 1999 
-1 9.9999999999999995e-007 1e-010 
body $-1 $11 $-1 $12 #
body $-1 $13 $-1 $14 #
body $-1 $15 $-1 $16 #
body $-1 $17 $-1 $18 #
body $-1 $19 $-1 $20 #
body $-1 $21 $-1 $22 #
body $-1 $23 $-1 $24 #
body $-1 $25 $-1 $26 #
body $-1 $27 $-1 $28 #
body $-1 $29 $-1 $30 #
body $-1 $31 $-1 $32 #
lump $-1 $-1 $33 $0 #
transform $-1 1 0 0 0 1 0 0 0 1 51.931516464735864 23.415698416340831 8.4569353242134557 1 rotate no_reflect no_shear #
lump $-1 $-1 $34 $1 #
transform $-1 1 0 0 0 1 0 0 0 1 51.931516464735864 23.415698416340831 8.4569353242134557 1 rotate no_reflect no_shear #
lump $-1 $-1 $35 $2 #
transform $-1 1 0 0 0 1 0 0 0 1 51.931516464735864 23.415698416340831 8.4569353242134557 1 rotate no_reflect no_shear #
lump $-1 $-1 $36 $3 #
transform $-1 1 0 0 0 1 0 0 0 1 51.931516464735864 23.415698416340831 8.4569353242134557 1 rotate no_reflect no_shear #
lump $-1 $-1 $37 $4 #
transform $-1 1 0 0 0 1 0 0 0 1 51.931516464735864 23.415698416340831 8.4569353242134557 1 rotate no_reflect no_shear #
lump $-1 $-1 $38 $5 #
transform $-1 1 0 0 0 1 0 0 0 1 51.931516464735864 23.415698416340831 8.4569353242134557 1 rotate no_reflect no_shear #
lump $-1 $-1 $39 $6 #
transform $-1 1 0 0 0 1 0 0 0 1 51.931516464735864 23.415698416340831 8.4569353242134557 1 rotate no_reflect no_shear #
lump $-1 $-1 $40 $7 #
transform $-1 1 0 0 0 1 0 0 0 1 51.931516464735864 23.415698416340831 8.4569353242134557 1 rotate no_reflect no_shear #
lump $-1 $-1 $41 $8 #
transform $-1 1 0 0 0 1 0 0 0 1 51.931516464735864 23.415698416340831 8.4569353242134557 1 rotate no_reflect no_shear #
lump $-1 $-1 $42 $9 #
transform $-1 1 0 0 0 1 0 0 0 1 51.931516464735864 23.415698416340831 8.4569353242134557 1 rotate no_reflect no_shear #
lump $-1 $-1 $43 $10 #
transform $-1 1 0 0 0 1 0 0 0 1 51.931516464735864 23.415698416340831 8.4569353242134557 1 rotate no_reflect no_shear #
shell $-1 $-1 $-1 $44 $-1 $11 #
shell $-1 $-1 $-1 $45 $-1 $13 #
shell $-1 $-1 $-1 $46 $-1 $15 #
shell $-1 $-1 $-1 $47 $-1 $17 #
shell $-1 $-1 $-1 $48 $-1 $19 #
shell $-1 $-1 $-1 $49 $-1 $21 #
shell $-1 $-1 $-1 $50 $-1 $23 #
shell $-1 $-1 $-1 $51 $-1 $25 #
shell $-1 $-1 $-1 $52 $-1 $27 #
shell $-1 $-1 $-1 $53 $-1 $29 #
shell $-1 $-1 $-1 $54 $-1 $31 #
face $-1 $55 $56 $33 $-1 $57 reversed single #
face $-1 $58 $59 $34 $-1 $60 forward single #
face $-1 $61 $62 $35 $-1 $63 reversed single #
face $-1 $64 $65 $36 $-1 $66 forward single #
face $-1 $67 $68 $37 $-1 $69 forward single #
face $-1 $70 $71 $38 $-1 $72 reversed single #
face $-1 $73 $74 $39 $-1 $75 forward single #
face $-1 $76 $77 $40 $-1 $78 forward single #
face $-1 $79 $80 $41 $-1 $81 reversed single #
face $-1 $82 $83 $42 $-1 $84 forward single #
face $-1 $85 $86 $43 $-1 $87 forward single #
face $-1 $88 $89 $33 $-1 $90 forward single #
loop $-1 $-1 $91 $44 #
plane-surface $-1 0 -23.415698416340831 0 0 1 0 0 0 1 forward_v I I I I #
face $-1 $92 $93 $34 $-1 $94 reversed single #
loop $-1 $-1 $95 $45 #
plane-surface $-1 0 -23.415698416340831 0 0 1 0 0 0 1 forward_v I I I I #
face $-1 $96 $97 $35 $-1 $98 reversed single #
loop $-1 $-1 $99 $46 #
plane-surface $-1 72.373891164007532 14.551141403635725 148.301832145308 0 1 0 0.79863551827123203 0 0.60181501223851219 forward_v I I I I #
face $-1 $100 $101 $36 $-1 $102 forward single #
loop $-1 $103 $104 $47 #
cone-surface $-1 49.139877148569752 17.083871978694326 5.1410549327044226 -0.79863551827123203 0 -0.60181501223851219 0.60181501223851219 0 -0.79863551827123203 1 I I 0 1 1 forward I I I I #
face $-1 $105 $106 $37 $-1 $107 forward single #
loop $-1 $108 $109 $48 #
cone-surface $-1 49.139877148569752 20.88296784128223 5.1410549327044226 -0.79863551827123203 0 -0.60181501223851219 0.60181501223851219 0 -0.79863551827123203 1 I I 0 1 1 forward I I I I #
face $-1 $110 $111 $38 $-1 $112 reversed single #
loop $-1 $-1 $113 $49 #
plane-surface $-1 -137.01113305977157 -17.506895234256149 62.142894677221626 0 1 0 -0.81915205242281985 0 0.57357642473473569 forward_v I I I I #
face $-1 $114 $115 $39 $-1 $116 forward single #
loop $-1 $117 $118 $50 #
cone-surface $-1 -48.303024791495247 -15.370188399651241 4.4157994521012327 0.81915205242281985 0 -0.57357642473473569 0.57357642473473569 0 0.81915205242281985 1 I I 0 1 1 forward I I I I #
face $-1 $119 $120 $40 $-1 $121 forward single #
loop $-1 $122 $123 $51 #
cone-surface $-1 -48.303024791495247 -12.16512814774388 4.4157994521012327 0.81915205242281985 0 -0.57357642473473569 0.57357642473473569 0 0.81915205242281985 1 I I 0 1 1 forward I I I I #
face $-1 $124 $125 $41 $-1 $126 reversed single #
loop $-1 $-1 $127 $52 #
plane-surface $-1 -137.01113305977157 2.9544015910423425 62.142894677221626 0 1 0 -0.81915205242281985 0 0.57357642473473569 forward_v I I I I #
face $-1 $128 $129 $42 $-1 $130 forward single #
loop $-1 $131 $132 $53 #
cone-surface $-1 -48.303024791495247 5.0911084256472492 4.4157994521012327 0.81915205242281985 0 -0.57357642473473569 0.57357642473473569 0 0.81915205242281985 1 I I 0 1 1 forward I I I I #
face $-1 $133 $134 $43 $-1 $135 forward single #
loop $-1 $136 $137 $54 #
cone-surface $-1 -48.303024791495247 8.2961686775546113 4.4157994521012327 0.81915205242281985 0 -0.57357642473473569 0.57357642473473569 0 0.81915205242281985 1 I I 0 1 1 forward I I I I #
face $-1 $138 $139 $33 $-1 $140 reversed single #
loop $-1 $-1 $141 $55 #
plane-surface $-1 0 0 8.4569353242134557 0 0 1 1 0 0 forward_v I I I I #
coedge $-1 $142 $143 $144 $145 reversed $56 $-1 #
face $-1 $146 $147 $34 $-1 $148 reversed single #
loop $-1 $-1 $149 $58 #
plane-surface $-1 0 0 -8.4569353242134557 0 0 1 1 0 0 forward_v I I I I #
coedge $-1 $150 $151 $152 $153 forward $59 $-1 #
face $-1 $154 $155 $35 $-1 $156 reversed single #
loop $-1 $-1 $157 $61 #
plane-surface $-1 -10.574815968843154 18.983419909988278 85.795499711728979 0.79863551827123203 0 0.60181501223851219 0.60181501223851219 0 -0.79863551827123203 forward_v I I I I #
coedge $-1 $158 $159 $160 $161 reversed $62 $-1 #
face $-1 $-1 $162 $36 $-1 $163 forward single #
loop $-1 $164 $165 $64 #
cone-surface $-1 48.062692906870595 17.083871978694326 4.3293384077437249 -0.79863551827123203 0 -0.60181501223851219 0.3009075061192561 0 -0.39931775913561601 1 I I -0.70710678118654746 0.70710678118654746 0.5 forward I I I I #
loop $-1 $-1 $166 $47 #
coedge $-1 $104 $104 $167 $168 reversed $65 $-1 #
face $-1 $-1 $169 $37 $-1 $170 forward single #
loop $-1 $171 $172 $67 #
cone-surface $-1 48.062692906870595 20.88296784128223 4.3293384077437249 -0.79863551827123203 0 -0.60181501223851219 0.3009075061192561 0 -0.39931775913561601 1 I I -0.70710678118654746 0.70710678118654746 0.5 forward I I I I #
loop $-1 $-1 $173 $48 #
coedge $-1 $109 $109 $174 $175 reversed $68 $-1 #
face $-1 $176 $177 $38 $-1 $178 reversed single #
loop $-1 $-1 $179 $70 #
plane-surface $-1 -51.931516464735878 -13.76765827369756 2.5695075874291078 -0.81915205242281985 0 0.57357642473473569 0.57357642473473569 0 0.81915205242281985 forward_v I I I I #
coedge $-1 $180 $181 $182 $183 reversed $71 $-1 #
face $-1 $-1 $184 $39 $-1 $185 forward single #
loop $-1 $186 $187 $73 #
cone-surface $-1 -46.326167670812453 -15.370188399651241 3.0315892360138168 0.81915205242281985 0 -0.57357642473473569 0.28678821236736785 0 0.40957602621140993 1 I I -0.70710678118654746 0.70710678118654746 0.5 forward I I I I #
loop $-1 $-1 $188 $50 #
coedge $-1 $118 $118 $189 $190 reversed $74 $-1 #
face $-1 $-1 $191 $40 $-1 $192 forward single #
loop $-1 $193 $194 $76 #
cone-surface $-1 -46.326167670812453 -12.16512814774388 3.0315892360138168 0.81915205242281985 0 -0.57357642473473569 0.28678821236736785 0 0.40957602621140993 1 I I -0.70710678118654746 0.70710678118654746 0.5 forward I I I I #
loop $-1 $-1 $195 $51 #
coedge $-1 $123 $123 $196 $197 reversed $77 $-1 #
face $-1 $198 $199 $41 $-1 $200 reversed single #
loop $-1 $-1 $201 $79 #
plane-surface $-1 -51.931516464735878 6.6936385516009302 2.5695075874291078 -0.81915205242281985 0 0.57357642473473569 0.57357642473473569 0 0.81915205242281985 forward_v I I I I #
coedge $-1 $202 $203 $204 $205 reversed $80 $-1 #
face $-1 $-1 $206 $42 $-1 $207 forward single #
loop $-1 $208 $209 $82 #
cone-surface $-1 -46.326167670812453 5.0911084256472492 3.0315892360138168 0.81915205242281985 0 -0.57357642473473569 0.28678821236736785 0 0.40957602621140993 1 I I -0.70710678118654746 0.70710678118654746 0.5 forward I I I I #
loop $-1 $-1 $210 $53 #
coedge $-1 $132 $132 $211 $212 reversed $83 $-1 #
face $-1 $-1 $213 $43 $-1 $214 forward single #
loop $-1 $215 $216 $85 #
cone-surface $-1 -46.326167670812453 8.2961686775546113 3.0315892360138168 0.81915205242281985 0 -0.57357642473473569 0.28678821236736785 0 0.40957602621140993 1 I I -0.70710678118654746 0.70710678118654746 0.5 forward I I I I #
loop $-1 $-1 $217 $54 #
coedge $-1 $137 $137 $218 $219 reversed $86 $-1 #
face $-1 $220 $221 $33 $-1 $222 reversed single #
loop $-1 $-1 $223 $88 #
plane-surface $-1 0 0 -8.4569353242134557 0 0 1 1 0 0 forward_v I I I I #
coedge $-1 $224 $225 $226 $227 forward $89 $-1 #
coedge $-1 $228 $91 $229 $230 reversed $56 $-1 #
coedge $-1 $91 $228 $231 $232 forward $56 $-1 #
coedge $-1 $233 $223 $91 $145 forward $139 $-1 #
edge $-1 $234 -51.931516464735864 $235 51.931516464735864 $91 $236 forward 7 unknown #
face $-1 $237 $238 $34 $-1 $239 reversed single #
loop $-1 $-1 $240 $92 #
plane-surface $-1 -37.017645816308956 -29.324501598425513 0 0 1 0 0 0 1 forward_v I I I I #
coedge $-1 $241 $242 $151 $243 forward $93 $-1 #
coedge $-1 $244 $95 $245 $246 reversed $59 $-1 #
coedge $-1 $95 $244 $149 $243 reversed $59 $-1 #
coedge $-1 $247 $248 $95 $153 reversed $238 $-1 #
edge $-1 $249 -8.4569353242134557 $250 8.4569353242134557 $152 $251 forward 7 unknown #
face $-1 $252 $253 $35 $-1 $254 forward single #
loop $-1 $-1 $255 $96 #
plane-surface $-1 0 23.415698416340831 0 0 -1 0 0 0 -1 forward_v I I I I #
coedge $-1 $256 $257 $258 $259 reversed $97 $-1 #
coedge $-1 $159 $99 $260 $261 reversed $62 $-1 #
coedge $-1 $99 $158 $256 $262 reversed $62 $-1 #
coedge $-1 $258 $263 $99 $161 forward $264 $-1 #
edge $-1 $265 65.693980748440538 $266 71.304123493775705 $160 $267 forward 7 unknown #
loop $-1 $-1 $167 $100 #
plane-surface $-1 -10.574815968843154 18.983419909988278 85.795499711728979 0.79863551827123203 0 0.60181501223851219 0.60181501223851219 0 -0.79863551827123203 forward_v I I I I #
loop $-1 $-1 $268 $64 #
coedge $-1 $165 $165 $166 $269 reversed $101 $-1 #
coedge $-1 $166 $166 $165 $269 forward $103 $-1 #
coedge $-1 $167 $167 $104 $168 forward $162 $-1 #
edge $-1 $270 0 $270 6.2831853071796004 $167 $271 forward 7 unknown #
loop $-1 $-1 $174 $105 #
plane-surface $-1 -10.574815968843154 18.983419909988278 85.795499711728979 0.79863551827123203 0 0.60181501223851219 0.60181501223851219 0 -0.79863551827123203 forward_v I I I I #
loop $-1 $-1 $272 $67 #
coedge $-1 $172 $172 $173 $273 reversed $106 $-1 #
coedge $-1 $173 $173 $172 $273 forward $108 $-1 #
coedge $-1 $174 $174 $109 $175 forward $169 $-1 #
edge $-1 $274 0 $274 6.2831853071796004 $174 $275 forward 7 unknown #
face $-1 $276 $277 $38 $-1 $278 reversed single #
loop $-1 $-1 $279 $110 #
plane-surface $-1 -137.01113305977157 -10.028421313138972 62.142894677221626 0 -1 0 0.81915205242281985 0 -0.57357642473473569 forward_v I I I I #
coedge $-1 $280 $281 $282 $283 reversed $111 $-1 #
coedge $-1 $181 $113 $284 $285 reversed $71 $-1 #
coedge $-1 $113 $180 $280 $286 reversed $71 $-1 #
coedge $-1 $282 $287 $113 $183 forward $288 $-1 #
edge $-1 $289 16.574050065149919 $290 20.696471222688359 $182 $291 forward 7 unknown #
loop $-1 $-1 $189 $114 #
plane-surface $-1 -51.931516464735878 -13.76765827369756 2.5695075874291078 -0.81915205242281985 0 0.57357642473473569 0.57357642473473569 0 0.81915205242281985 forward_v I I I I #
loop $-1 $-1 $292 $73 #
coedge $-1 $187 $187 $188 $293 reversed $115 $-1 #
coedge $-1 $188 $188 $187 $293 forward $117 $-1 #
coedge $-1 $189 $189 $118 $190 forward $184 $-1 #
edge $-1 $294 0 $294 6.2831853071796004 $189 $295 forward 7 unknown #
loop $-1 $-1 $196 $119 #
plane-surface $-1 -51.931516464735878 -13.76765827369756 2.5695075874291078 -0.81915205242281985 0 0.57357642473473569 0.57357642473473569 0 0.81915205242281985 forward_v I I I I #
loop $-1 $-1 $296 $76 #
coedge $-1 $194 $194 $195 $297 reversed $120 $-1 #
coedge $-1 $195 $195 $194 $297 forward $122 $-1 #
coedge $-1 $196 $196 $123 $197 forward $191 $-1 #
edge $-1 $298 0 $298 6.2831853071796004 $196 $299 forward 7 unknown #
face $-1 $300 $301 $41 $-1 $302 forward single #
loop $-1 $-1 $303 $124 #
plane-surface $-1 -137.01113305977157 10.432875512159518 62.142894677221626 0 -1 0 0.81915205242281985 0 -0.57357642473473569 forward_v I I I I #
coedge $-1 $304 $305 $306 $307 reversed $125 $-1 #
coedge $-1 $203 $127 $308 $309 reversed $80 $-1 #
coedge $-1 $127 $202 $304 $310 reversed $80 $-1 #
coedge $-1 $306 $311 $127 $205 forward $301 $-1 #
edge $-1 $312 16.574050065149919 $313 20.696471222688359 $204 $314 forward 7 unknown #
loop $-1 $-1 $211 $128 #
plane-surface $-1 -51.931516464735878 6.6936385516009302 2.5695075874291078 -0.81915205242281985 0 0.57357642473473569 0.57357642473473569 0 0.81915205242281985 forward_v I I I I #
loop $-1 $-1 $315 $82 #
coedge $-1 $209 $209 $210 $316 reversed $129 $-1 #
coedge $-1 $210 $210 $209 $316 forward $131 $-1 #
coedge $-1 $211 $211 $132 $212 forward $206 $-1 #
edge $-1 $317 0 $317 6.2831853071796004 $211 $318 forward 7 unknown #
loop $-1 $-1 $218 $133 #
plane-surface $-1 -51.931516464735878 6.6936385516009302 2.5695075874291078 -0.81915205242281985 0 0.57357642473473569 0.57357642473473569 0 0.81915205242281985 forward_v I I I I #
loop $-1 $-1 $319 $85 #
coedge $-1 $216 $216 $217 $320 reversed $134 $-1 #
coedge $-1 $217 $217 $216 $320 forward $136 $-1 #
coedge $-1 $218 $218 $137 $219 forward $213 $-1 #
edge $-1 $321 0 $321 6.2831853071796004 $218 $322 forward 7 unknown #
face $-1 $323 $324 $33 $-1 $325 reversed single #
loop $-1 $-1 $326 $138 #
plane-surface $-1 -51.931516464735864 0 0 1 0 0 0 0 -1 forward_v I I I I #
coedge $-1 $144 $327 $328 $329 forward $139 $-1 #
coedge $-1 $330 $141 $331 $332 forward $89 $-1 #
coedge $-1 $141 $330 $228 $333 forward $89 $-1 #
coedge $-1 $229 $334 $141 $227 reversed $335 $-1 #
edge $-1 $336 -23.415698416340831 $337 23.415698416340831 $226 $338 forward 7 unknown #
coedge $-1 $143 $142 $225 $333 reversed $56 $-1 #
coedge $-1 $328 $226 $142 $230 forward $335 $-1 #
edge $-1 $336 -8.4569353242134557 $234 8.4569353242134557 $229 $339 forward 7 unknown #
coedge $-1 $340 $341 $143 $232 reversed $221 $-1 #
edge $-1 $342 -8.4569353242134557 $235 8.4569353242134557 $231 $343 forward 7 unknown #
coedge $-1 $327 $144 $341 $344 forward $139 $-1 #
vertex $-1 $230 $345 #
vertex $-1 $344 $346 #
straight-curve $-1 0 -23.415698416340831 -8.4569353242134557 -1 0 0 I I #
face $-1 $347 $348 $34 $-1 $349 reversed single #
loop $-1 $-1 $152 $146 #
plane-surface $-1 -38.517645816308956 -26.370100007383172 0 1 0 0 0 0 -1 forward_v I I I I #
coedge $-1 $350 $351 $352 $353 forward $147 $-1 #
coedge $-1 $354 $149 $355 $356 forward $93 $-1 #
coedge $-1 $149 $354 $247 $357 forward $93 $-1 #
edge $-1 $249 -38.517645816308956 $358 -35.517645816308956 $149 $359 forward 7 unknown #
coedge $-1 $151 $150 $360 $361 forward $59 $-1 #
coedge $-1 $362 $363 $150 $246 forward $364 $-1 #
edge $-1 $365 35.517645816308956 $250 38.517645816308956 $245 $366 forward 7 unknown #
coedge $-1 $352 $152 $242 $357 reversed $238 $-1 #
coedge $-1 $152 $352 $362 $367 reversed $238 $-1 #
vertex $-1 $243 $368 #
vertex $-1 $367 $369 #
straight-curve $-1 -38.517645816308956 -23.415698416340831 0 0 0 1 I I #
face $-1 $-1 $264 $35 $-1 $370 reversed single #
loop $-1 $-1 $371 $154 #
plane-surface $-1 0 0 8.4569353242134557 0 0 1 1 0 0 forward_v I I I I #
coedge $-1 $372 $373 $257 $374 forward $155 $-1 #
coedge $-1 $375 $157 $159 $262 forward $97 $-1 #
coedge $-1 $157 $375 $255 $374 reversed $97 $-1 #
coedge $-1 $376 $160 $157 $259 forward $264 $-1 #
edge $-1 $266 5.0594314486415861 $377 13.923988461346692 $258 $378 forward 7 unknown #
coedge $-1 $379 $371 $158 $261 forward $253 $-1 #
edge $-1 $380 11.517025215526957 $265 15.744570882732098 $260 $381 forward 7 unknown #
edge $-1 $266 -103.8630329294717 $380 -96.838373223027446 $159 $382 forward 7 unknown #
coedge $-1 $160 $376 $379 $383 reversed $264 $-1 #
loop $-1 $-1 $258 $252 #
vertex $-1 $383 $384 #
vertex $-1 $161 $385 #
straight-curve $-1 51.931516464735864 14.551141403635725 74.150916072653999 0 0 -1 I I #
coedge $-1 $268 $268 $-1 $386 reversed $164 $-1 #
edge $-1 $387 0 $387 6.2831853071796004 $165 $388 forward 7 unknown #
vertex $-1 $168 $389 #
ellipse-curve $-1 49.817743631133297 17.083871978694326 5.6518639515458666 0.79863551827123203 0 0.60181501223851219 0.60181501223851219 0 -0.79863551827123203 1 I I #
coedge $-1 $272 $272 $-1 $390 reversed $171 $-1 #
edge $-1 $391 0 $391 6.2831853071796004 $172 $392 forward 7 unknown #
vertex $-1 $175 $393 #
ellipse-curve $-1 49.817743631133297 20.88296784128223 5.6518639515458666 0.79863551827123203 0 0.60181501223851219 0.60181501223851219 0 -0.79863551827123203 1 I I #
face $-1 $-1 $288 $38 $-1 $394 forward single #
loop $-1 $-1 $395 $176 #
plane-surface $-1 -51.931516464735864 0 0 1 0 0 0 0 -1 forward_v I I I I #
coedge $-1 $396 $397 $398 $399 reversed $177 $-1 #
coedge $-1 $400 $179 $181 $286 forward $111 $-1 #
coedge $-1 $179 $400 $396 $401 forward $111 $-1 #
coedge $-1 $398 $182 $179 $283 forward $288 $-1 #
edge $-1 $290 -10.623066097407369 $402 -3.1445921762901925 $282 $403 forward 7 unknown #
coedge $-1 $404 $405 $180 $285 forward $277 $-1 #
edge $-1 $406 -28.501939751181684 $289 -22.614512014397356 $284 $407 forward 7 unknown #
edge $-1 $290 -7.187222102869673 $406 -2.4884734274515653e-014 $181 $408 forward 7 unknown #
coedge $-1 $182 $398 $404 $409 forward $288 $-1 #
loop $-1 $-1 $398 $276 #
vertex $-1 $285 $410 #
vertex $-1 $183 $411 #
straight-curve $-1 -68.505566529885783 -17.506895234256149 8.456935324213454 1 0 0 I I #
coedge $-1 $292 $292 $-1 $412 reversed $186 $-1 #
edge $-1 $413 0 $413 6.2831853071796004 $187 $414 forward 7 unknown #
vertex $-1 $190 $415 #
ellipse-curve $-1 -49.870305885966644 -15.370188399651241 5.5132214558212898 -0.81915205242281985 0 0.57357642473473569 0.57357642473473569 0 0.81915205242281985 1 I I #
coedge $-1 $296 $296 $-1 $416 reversed $193 $-1 #
edge $-1 $417 0 $417 6.2831853071796004 $194 $418 forward 7 unknown #
vertex $-1 $197 $419 #
ellipse-curve $-1 -49.870305885966644 -12.16512814774388 5.5132214558212898 -0.81915205242281985 0 0.57357642473473569 0.57357642473473569 0 0.81915205242281985 1 I I #
face $-1 $-1 $420 $41 $-1 $421 reversed single #
loop $-1 $-1 $204 $198 #
plane-surface $-1 0 0 8.4569353242134557 0 0 1 1 0 0 forward_v I I I I #
coedge $-1 $422 $423 $424 $425 reversed $199 $-1 #
coedge $-1 $426 $201 $203 $310 forward $125 $-1 #
coedge $-1 $201 $426 $422 $427 forward $125 $-1 #
coedge $-1 $424 $204 $201 $307 forward $301 $-1 #
edge $-1 $313 -0.39241768475812266 $428 7.0860562363590525 $306 $429 forward 7 unknown #
coedge $-1 $430 $431 $202 $309 forward $420 $-1 #
edge $-1 $432 -28.501939751181684 $312 -22.614512014397356 $308 $433 forward 7 unknown #
edge $-1 $313 -7.187222102869673 $432 -2.4884734274515653e-014 $203 $434 forward 7 unknown #
coedge $-1 $204 $424 $430 $435 forward $301 $-1 #
vertex $-1 $309 $436 #
vertex $-1 $205 $437 #
straight-curve $-1 -68.505566529885783 2.9544015910423425 8.456935324213454 1 0 0 I I #
coedge $-1 $315 $315 $-1 $438 reversed $208 $-1 #
edge $-1 $439 0 $439 6.2831853071796004 $209 $440 forward 7 unknown #
vertex $-1 $212 $441 #
ellipse-curve $-1 -49.870305885966644 5.0911084256472492 5.5132214558212898 -0.81915205242281985 0 0.57357642473473569 0.57357642473473569 0 0.81915205242281985 1 I I #
coedge $-1 $319 $319 $-1 $442 reversed $215 $-1 #
edge $-1 $443 0 $443 6.2831853071796004 $216 $444 forward 7 unknown #
vertex $-1 $219 $445 #
ellipse-curve $-1 -49.870305885966644 8.2961686775546113 5.5132214558212898 -0.81915205242281985 0 0.57357642473473569 0.57357642473473569 0 0.81915205242281985 1 I I #
face $-1 $-1 $335 $33 $-1 $446 reversed single #
loop $-1 $-1 $447 $220 #
plane-surface $-1 0 23.415698416340831 0 0 -1 0 0 0 -1 forward_v I I I I #
coedge $-1 $341 $340 $448 $449 forward $221 $-1 #
coedge $-1 $223 $233 $450 $451 forward $139 $-1 #
coedge $-1 $334 $229 $223 $329 reversed $335 $-1 #
edge $-1 $452 -23.415698416340831 $234 23.415698416340831 $328 $453 forward 7 unknown #
coedge $-1 $225 $224 $340 $454 forward $89 $-1 #
coedge $-1 $447 $448 $224 $332 reversed $324 $-1 #
edge $-1 $337 -51.931516464735864 $455 51.931516464735864 $331 $456 forward 7 unknown #
edge $-1 $342 -51.931516464735864 $336 51.931516464735864 $228 $457 forward 7 unknown #
coedge $-1 $226 $328 $447 $458 reversed $335 $-1 #
loop $-1 $-1 $229 $323 #
vertex $-1 $227 $459 #
vertex $-1 $227 $460 #
straight-curve $-1 51.931516464735864 0 8.4569353242134557 0 1 0 I I #
straight-curve $-1 51.931516464735864 -23.415698416340831 0 0 0 -1 I I #
coedge $-1 $326 $231 $330 $454 reversed $221 $-1 #
coedge $-1 $231 $326 $233 $344 reversed $221 $-1 #
vertex $-1 $454 $461 #
straight-curve $-1 -51.931516464735864 -23.415698416340831 0 0 0 -1 I I #
edge $-1 $235 -23.415698416340831 $462 23.415698416340831 $341 $463 forward 7 unknown #
point $-1 51.931516464735864 -23.415698416340831 -8.4569353242134557 #
point $-1 -51.931516464735864 -23.415698416340831 -8.4569353242134557 #
face $-1 $-1 $364 $34 $-1 $464 forward single #
loop $-1 $-1 $465 $237 #
plane-surface $-1 -35.517645816308956 -26.370100007383172 0 -1 0 0 0 0 1 forward_v I I I I #
coedge $-1 $466 $240 $354 $467 reversed $147 $-1 #
coedge $-1 $240 $466 $468 $469 reversed $147 $-1 #
coedge $-1 $248 $247 $240 $353 reversed $238 $-1 #
edge $-1 $470 -8.4569353242134557 $471 8.4569353242134557 $352 $472 forward 7 unknown #
coedge $-1 $242 $241 $350 $467 forward $93 $-1 #
coedge $-1 $360 $465 $241 $356 reversed $348 $-1 #
edge $-1 $358 -2.9544015910423411 $473 2.9544015910423411 $355 $474 forward 7 unknown #
edge $-1 $471 -2.9544015910423411 $249 2.9544015910423411 $247 $475 forward 7 unknown #
vertex $-1 $356 $476 #
straight-curve $-1 0 -23.415698416340831 -8.4569353242134557 1 0 0 I I #
coedge $-1 $477 $355 $244 $361 reversed $348 $-1 #
edge $-1 $365 -8.4569353242134557 $358 8.4569353242134557 $360 $478 forward 7 unknown #
coedge $-1 $468 $245 $248 $367 forward $364 $-1 #
coedge $-1 $245 $468 $477 $479 forward $364 $-1 #
loop $-1 $-1 $245 $347 #
vertex $-1 $246 $480 #
straight-curve $-1 0 -23.415698416340831 8.4569353242134557 -1 0 0 I I #
edge $-1 $250 -2.9544015910423411 $470 2.9544015910423411 $248 $481 forward 7 unknown #
point $-1 -38.517645816308956 -23.415698416340831 -8.4569353242134557 #
point $-1 -38.517645816308956 -23.415698416340831 8.4569353242134557 #
plane-surface $-1 51.931516464735864 0 0 -1 0 0 0 0 1 forward_v I I I I #
coedge $-1 $260 $482 $375 $483 forward $253 $-1 #
coedge $-1 $373 $255 $482 $484 reversed $155 $-1 #
coedge $-1 $255 $372 $376 $485 forward $155 $-1 #
edge $-1 $377 -66.421324739809023 $486 -59.396665033364755 $255 $487 forward 7 unknown #
coedge $-1 $257 $256 $371 $483 reversed $97 $-1 #
coedge $-1 $263 $258 $373 $485 reversed $264 $-1 #
vertex $-1 $259 $488 #
straight-curve $-1 51.931516464735864 9.4917099549941391 2.8467925788782935 0 1 0 I I #
coedge $-1 $482 $260 $263 $383 forward $253 $-1 #
vertex $-1 $261 $489 #
straight-curve $-1 36.186945582003766 14.551141403635725 8.4569353242134611 1 0 0 I I #
straight-curve $-1 -10.574815968843154 14.551141403635725 85.795499711728979 -0.60181501223851219 0 0.79863551827123203 I I #
edge $-1 $265 14.551141403635725 $490 23.415698416340831 $263 $491 forward 7 unknown #
point $-1 51.931516464735864 14.551141403635725 8.4569353242134557 #
point $-1 51.931516464735857 14.551141403635725 2.8467925788782935 #
edge $-1 $492 1 $492 0 $268 $-1 forward 7 unknown #
vertex $-1 $269 $493 #
ellipse-curve $-1 48.462010666006208 17.083871978694326 4.6302459138629812 0.79863551827123203 0 0.60181501223851219 0.60181501223851219 0 -0.79863551827123203 1 I I #
point $-1 50.419558643371801 17.083871978694326 4.8532284332746318 #
edge $-1 $494 1 $494 0 $272 $-1 forward 7 unknown #
vertex $-1 $273 $495 #
ellipse-curve $-1 48.462010666006208 20.88296784128223 4.6302459138629812 0.79863551827123203 0 0.60181501223851219 0.60181501223851219 0 -0.79863551827123203 1 I I #
point $-1 50.419558643371801 20.88296784128223 4.8532284332746318 #
plane-surface $-1 0 0 8.4569353242134557 0 0 1 1 0 0 forward_v I I I I #
coedge $-1 $405 $404 $397 $496 forward $277 $-1 #
coedge $-1 $397 $279 $281 $401 reversed $177 $-1 #
coedge $-1 $279 $396 $395 $496 reversed $177 $-1 #
coedge $-1 $287 $282 $279 $399 forward $288 $-1 #
edge $-1 $402 -20.696471222688359 $497 -16.574050065149919 $398 $498 forward 7 unknown #
coedge $-1 $281 $280 $405 $499 reversed $111 $-1 #
edge $-1 $500 2.4884734274515653e-014 $402 7.187222102869673 $396 $501 forward 7 unknown #
vertex $-1 $283 $502 #
straight-curve $-1 -47.809095307197431 -6.8838291368487798 8.4569353242134557 0 1 0 I I #
coedge $-1 $395 $284 $287 $409 reversed $277 $-1 #
coedge $-1 $284 $395 $400 $499 forward $277 $-1 #
vertex $-1 $285 $503 #
straight-curve $-1 -51.931516464735864 -17.506895234256149 31.071447338610813 0 0 1 I I #
straight-curve $-1 -51.931516464735878 -17.506895234256149 2.5695075874291078 -0.57357642473473569 0 -0.81915205242281985 I I #
edge $-1 $497 10.028421313138972 $289 17.506895234256149 $404 $504 forward 7 unknown #
point $-1 -51.931516464735864 -17.506895234256149 8.4569353242134557 #
point $-1 -47.809095307197424 -17.506895234256149 8.4569353242134557 #
edge $-1 $505 1 $505 0 $292 $-1 forward 7 unknown #
vertex $-1 $293 $506 #
ellipse-curve $-1 -46.735743697023864 -15.370188399651241 3.3183774483811845 -0.81915205242281985 0 0.57357642473473569 0.57357642473473569 0 0.81915205242281985 1 I I #
point $-1 -49.296729461231898 -15.370188399651241 6.3323735082440988 #
edge $-1 $507 1 $507 0 $296 $-1 forward 7 unknown #
vertex $-1 $297 $508 #
ellipse-curve $-1 -46.735743697023864 -12.16512814774388 3.3183774483811845 -0.81915205242281985 0 0.57357642473473569 0.57357642473473569 0 0.81915205242281985 1 I I #
point $-1 -49.296729461231898 -12.16512814774388 6.3323735082440988 #
loop $-1 $-1 $308 $300 #
plane-surface $-1 -51.931516464735864 0 0 1 0 0 0 0 -1 forward_v I I I I #
coedge $-1 $423 $303 $305 $427 reversed $199 $-1 #
coedge $-1 $303 $422 $509 $510 reversed $199 $-1 #
coedge $-1 $311 $306 $303 $425 forward $301 $-1 #
edge $-1 $428 -20.696471222688359 $511 -16.574050065149919 $424 $512 forward 7 unknown #
coedge $-1 $305 $304 $431 $513 reversed $125 $-1 #
edge $-1 $514 2.4884734274515653e-014 $428 7.187222102869673 $422 $515 forward 7 unknown #
vertex $-1 $307 $516 #
straight-curve $-1 -47.809095307197431 3.3468192758004651 8.4569353242134557 0 1 0 I I #
coedge $-1 $509 $308 $311 $435 reversed $420 $-1 #
coedge $-1 $308 $509 $426 $513 forward $420 $-1 #
vertex $-1 $309 $517 #
straight-curve $-1 -51.931516464735864 2.9544015910423425 31.071447338610813 0 0 1 I I #
straight-curve $-1 -51.931516464735878 2.9544015910423425 2.5695075874291078 -0.57357642473473569 0 -0.81915205242281985 I I #
edge $-1 $511 -10.432875512159518 $312 -2.9544015910423425 $430 $518 forward 7 unknown #
point $-1 -51.931516464735864 2.9544015910423425 8.4569353242134557 #
point $-1 -47.809095307197424 2.9544015910423425 8.4569353242134557 #
edge $-1 $519 1 $519 0 $315 $-1 forward 7 unknown #
vertex $-1 $316 $520 #
ellipse-curve $-1 -46.735743697023864 5.0911084256472492 3.3183774483811845 -0.81915205242281985 0 0.57357642473473569 0.57357642473473569 0 0.81915205242281985 1 I I #
point $-1 -49.296729461231898 5.0911084256472492 6.3323735082440988 #
edge $-1 $521 1 $521 0 $319 $-1 forward 7 unknown #
vertex $-1 $320 $522 #
ellipse-curve $-1 -46.735743697023864 8.2961686775546113 3.3183774483811845 -0.81915205242281985 0 0.57357642473473569 0.57357642473473569 0 0.81915205242281985 1 I I #
point $-1 -49.296729461231898 8.2961686775546113 6.3323735082440988 #
plane-surface $-1 51.931516464735864 0 0 -1 0 0 0 0 1 forward_v I I I I #
coedge $-1 $450 $331 $334 $458 forward $324 $-1 #
coedge $-1 $331 $450 $326 $449 reversed $324 $-1 #
edge $-1 $455 -8.4569353242134557 $462 8.4569353242134557 $448 $523 forward 7 unknown #
coedge $-1 $448 $447 $327 $451 reversed $324 $-1 #
edge $-1 $462 -51.931516464735864 $452 51.931516464735864 $450 $524 forward 7 unknown #
vertex $-1 $329 $525 #
straight-curve $-1 51.931516464735864 0 -8.4569353242134557 0 -1 0 I I #
edge $-1 $455 -23.415698416340831 $342 23.415698416340831 $340 $526 forward 7 unknown #
vertex $-1 $332 $527 #
straight-curve $-1 0 23.415698416340831 8.4569353242134557 -1 0 0 I I #
straight-curve $-1 0 -23.415698416340831 8.4569353242134557 1 0 0 I I #
edge $-1 $337 -8.4569353242134557 $452 8.4569353242134557 $334 $528 forward 7 unknown #
point $-1 51.931516464735864 -23.415698416340831 8.4569353242134557 #
point $-1 51.931516464735864 23.415698416340831 8.4569353242134557 #
point $-1 -51.931516464735864 -23.415698416340831 8.4569353242134557 #
vertex $-1 $451 $529 #
straight-curve $-1 -51.931516464735864 0 -8.4569353242134557 0 1 0 I I #
plane-surface $-1 0 0 8.4569353242134557 0 0 1 1 0 0 forward_v I I I I #
coedge $-1 $355 $477 $466 $530 forward $348 $-1 #
coedge $-1 $351 $350 $465 $530 reversed $147 $-1 #
edge $-1 $473 -1.5 $471 1.5 $350 $531 forward 7 unknown #
coedge $-1 $363 $362 $351 $469 forward $364 $-1 #
edge $-1 $470 -1.5 $532 1.5 $351 $533 forward 7 unknown #
vertex $-1 $367 $534 #
vertex $-1 $357 $535 #
straight-curve $-1 -38.517645816308956 -29.324501598425513 0 0 0 -1 I I #
vertex $-1 $530 $536 #
straight-curve $-1 -35.517645816308956 -26.370100007383172 -8.4569353242134557 0 -1 0 I I #
straight-curve $-1 -38.517645816308956 -26.370100007383172 -8.4569353242134557 0 1 0 I I #
point $-1 -35.517645816308956 -23.415698416340831 -8.4569353242134557 #
coedge $-1 $465 $360 $363 $479 reversed $348 $-1 #
straight-curve $-1 -35.517645816308956 -23.415698416340831 0 0 0 -1 I I #
edge $-1 $532 -2.9544015910423411 $365 2.9544015910423411 $477 $537 forward 7 unknown #
point $-1 -35.517645816308956 -23.415698416340831 8.4569353242134557 #
straight-curve $-1 -38.517645816308956 -26.370100007383172 8.4569353242134557 0 -1 0 I I #
coedge $-1 $371 $379 $372 $484 forward $253 $-1 #
edge $-1 $486 -13.923988461346692 $380 -5.0594314486415861 $371 $538 forward 7 unknown #
edge $-1 $490 -51.931516464735864 $486 -47.703970797530722 $372 $539 forward 7 unknown #
edge $-1 $490 -8.4569353242134557 $377 -2.8467925788782908 $376 $540 forward 7 unknown #
vertex $-1 $483 $541 #
straight-curve $-1 11.958166103549495 23.415698416340831 55.893221686717482 -0.60181501223851219 0 0.79863551827123203 I I #
point $-1 51.931516464735864 23.415698416340831 2.8467925788782908 #
point $-1 47.703970797530722 14.551141403635725 8.4569353242134611 #
vertex $-1 $383 $542 #
straight-curve $-1 51.931516464735864 0 8.4569353242134557 0 1 0 I I #
vertex $-1 $386 $543 #
point $-1 49.063825678244726 17.083871978694326 3.8316103955917491 #
vertex $-1 $390 $544 #
point $-1 49.063825678244726 20.88296784128223 3.8316103955917491 #
edge $-1 $497 22.614512014397356 $500 28.501939751181684 $395 $545 forward 7 unknown #
vertex $-1 $409 $546 #
straight-curve $-1 -68.505566529885783 -10.028421313138972 8.456935324213454 -1 0 0 I I #
edge $-1 $500 3.1445921762901925 $406 10.623066097407369 $405 $547 forward 7 unknown #
vertex $-1 $499 $548 #
straight-curve $-1 -51.931516464735878 -10.028421313138972 2.5695075874291078 0.57357642473473569 0 0.81915205242281985 I I #
point $-1 -47.809095307197424 -10.028421313138972 8.4569353242134557 #
point $-1 -51.931516464735864 -17.506895234256149 2.5695075874291282 #
straight-curve $-1 -51.931516464735864 0 8.4569353242134557 0 -1 0 I I #
vertex $-1 $412 $549 #
point $-1 -46.162167272289125 -15.370188399651241 4.1375295008040043 #
vertex $-1 $416 $550 #
point $-1 -46.162167272289125 -12.16512814774388 4.1375295008040043 #
coedge $-1 $431 $430 $423 $510 forward $420 $-1 #
edge $-1 $511 22.614512014397356 $514 28.501939751181684 $509 $551 forward 7 unknown #
vertex $-1 $435 $552 #
straight-curve $-1 -68.505566529885783 10.432875512159518 8.456935324213454 -1 0 0 I I #
edge $-1 $514 -7.0860562363590525 $432 0.39241768475812266 $431 $553 forward 7 unknown #
vertex $-1 $513 $554 #
straight-curve $-1 -51.931516464735878 10.432875512159518 2.5695075874291078 0.57357642473473569 0 0.81915205242281985 I I #
point $-1 -47.809095307197424 10.432875512159518 8.4569353242134557 #
point $-1 -51.931516464735864 2.9544015910423425 2.5695075874291282 #
straight-curve $-1 -51.931516464735864 0 8.4569353242134557 0 -1 0 I I #
vertex $-1 $438 $555 #
point $-1 -46.162167272289125 5.0911084256472492 4.1375295008040043 #
vertex $-1 $442 $556 #
point $-1 -46.162167272289125 8.2961686775546113 4.1375295008040043 #
straight-curve $-1 -51.931516464735864 23.415698416340831 0 0 0 -1 I I #
straight-curve $-1 0 23.415698416340831 -8.4569353242134557 1 0 0 I I #
point $-1 51.931516464735864 23.415698416340831 -8.4569353242134557 #
straight-curve $-1 -51.931516464735864 0 8.4569353242134557 0 -1 0 I I #
point $-1 -51.931516464735864 23.415698416340831 8.4569353242134557 #
straight-curve $-1 51.931516464735864 23.415698416340831 0 0 0 -1 I I #
point $-1 -51.931516464735864 23.415698416340831 -8.4569353242134557 #
edge $-1 $532 -8.4569353242134557 $473 8.4569353242134557 $465 $557 forward 7 unknown #
straight-curve $-1 -37.017645816308956 -29.324501598425513 -8.4569353242134557 -1 0 0 I I #
vertex $-1 $479 $558 #
straight-curve $-1 -37.017645816308956 -29.324501598425513 8.4569353242134557 1 0 0 I I #
point $-1 -38.517645816308956 -29.324501598425513 8.4569353242134557 #
point $-1 -38.517645816308956 -29.324501598425513 -8.4569353242134557 #
point $-1 -35.517645816308956 -29.324501598425513 -8.4569353242134557 #
straight-curve $-1 -35.517645816308956 -26.370100007383172 8.4569353242134557 0 1 0 I I #
straight-curve $-1 47.703970797530715 9.4917099549941391 8.456935324213454 0 -1 0 I I #
straight-curve $-1 0 23.415698416340831 8.4569353242134557 -1 0 0 I I #
straight-curve $-1 51.931516464735864 23.415698416340831 0 0 0 -1 I I #
point $-1 47.703970797530722 23.415698416340831 8.4569353242134611 #
point $-1 51.931516464735864 23.415698416340831 8.4569353242134557 #
point $-1 47.663375147734982 17.083871978694326 4.0284309016244686 #
point $-1 47.663375147734982 20.88296784128223 4.0284309016244686 #
straight-curve $-1 -51.931516464735864 -10.028421313138972 31.071447338610813 0 0 -1 I I #
point $-1 -51.931516464735864 -10.028421313138972 8.4569353242134557 #
straight-curve $-1 -51.931516464735864 -6.8838291368487798 2.5695075874291269 0 -1 0 I I #
point $-1 -51.931516464735864 -10.028421313138972 2.5695075874291282 #
point $-1 -45.916591644601041 -15.370188399651241 2.7448010236464491 #
point $-1 -45.916591644601041 -12.16512814774388 2.7448010236464491 #
straight-curve $-1 -51.931516464735864 10.432875512159518 31.071447338610813 0 0 -1 I I #
point $-1 -51.931516464735864 10.432875512159518 8.4569353242134557 #
straight-curve $-1 -51.931516464735864 3.3468192758004651 2.5695075874291269 0 -1 0 I I #
point $-1 -51.931516464735864 10.432875512159518 2.5695075874291282 #
point $-1 -45.916591644601041 5.0911084256472492 2.7448010236464491 #
point $-1 -45.916591644601041 8.2961686775546113 2.7448010236464491 #
straight-curve $-1 -35.517645816308956 -29.324501598425513 0 0 0 -1 I I #
point $-1 -35.517645816308956 -29.324501598425513 8.4569353242134557 #
End-of-ACIS-data 