500 0 8 0           
7 Unknown 11 ACIS 5.0 NT 24 Fri Mar 26 19:38:18 1999 
-1 9.9999999999999995e-007 1e-010 
body $-1 $8 $-1 $9 #
body $-1 $10 $-1 $11 #
body $-1 $12 $-1 $13 #
body $-1 $14 $-1 $15 #
body $-1 $16 $-1 $17 #
body $-1 $18 $-1 $19 #
body $-1 $20 $-1 $21 #
body $-1 $22 $-1 $23 #
lump $-1 $-1 $24 $0 #
transform $-1 1 0 0 0 1 0 0 0 1 65.376750999481175 33.653653741067195 16.224456561407468 1 rotate no_reflect no_shear #
lump $-1 $-1 $25 $1 #
transform $-1 1 0 0 0 1 0 0 0 1 65.376750999481175 33.653653741067195 16.224456561407468 1 rotate no_reflect no_shear #
lump $-1 $-1 $26 $2 #
transform $-1 1 0 0 0 1 0 0 0 1 65.376750999481175 33.653653741067195 16.224456561407468 1 rotate no_reflect no_shear #
lump $-1 $-1 $27 $3 #
transform $-1 1 0 0 0 1 0 0 0 1 65.376750999481175 33.653653741067195 16.224456561407468 1 rotate no_reflect no_shear #
lump $-1 $-1 $28 $4 #
transform $-1 1 0 0 0 1 0 0 0 1 65.376750999481175 33.653653741067195 16.224456561407468 1 rotate no_reflect no_shear #
lump $-1 $-1 $29 $5 #
transform $-1 1 0 0 0 1 0 0 0 1 65.376750999481175 33.653653741067195 16.224456561407468 1 rotate no_reflect no_shear #
lump $-1 $-1 $30 $6 #
transform $-1 1 0 0 0 1 0 0 0 1 65.376750999481175 33.653653741067195 16.224456561407468 1 rotate no_reflect no_shear #
lump $-1 $-1 $31 $7 #
transform $-1 1 0 0 0 1 0 0 0 1 65.376750999481175 33.653653741067195 16.224456561407468 1 rotate no_reflect no_shear #
shell $-1 $-1 $-1 $32 $-1 $8 #
shell $-1 $-1 $-1 $33 $-1 $10 #
shell $-1 $-1 $-1 $34 $-1 $12 #
shell $-1 $-1 $-1 $35 $-1 $14 #
shell $-1 $-1 $-1 $36 $-1 $16 #
shell $-1 $-1 $-1 $37 $-1 $18 #
shell $-1 $-1 $-1 $38 $-1 $20 #
shell $-1 $-1 $-1 $39 $-1 $22 #
face $-1 $40 $41 $24 $-1 $42 forward single #
face $-1 $43 $44 $25 $-1 $45 reversed single #
face $-1 $46 $47 $26 $-1 $48 reversed single #
face $-1 $49 $50 $27 $-1 $51 forward single #
face $-1 $52 $53 $28 $-1 $54 reversed single #
face $-1 $55 $56 $29 $-1 $57 forward single #
face $-1 $58 $59 $30 $-1 $60 forward single #
face $-1 $61 $62 $31 $-1 $63 forward single #
face $-1 $64 $65 $24 $-1 $66 reversed single #
loop $-1 $-1 $67 $32 #
plane-surface $-1 0 0 16.224456561407468 0 0 1 1 0 0 forward_v I I I I #
face $-1 $68 $69 $25 $-1 $70 reversed single #
loop $-1 $-1 $71 $33 #
plane-surface $-1 -59.759118946751528 0 11.415695392149463 0 0 1 1 0 0 forward_v I I I I #
face $-1 $72 $73 $26 $-1 $74 reversed single #
loop $-1 $-1 $75 $34 #
plane-surface $-1 -21.90883617742584 113.23585627801143 134.35609126478948 1 0 0 0 -0.86602541151947299 -0.49999998660252726 forward_v I I I I #
face $-1 $76 $77 $27 $-1 $78 forward single #
loop $-1 $79 $80 $35 #
cone-surface $-1 -8.7768577852604182 30.417440411887114 12.511043523882599 0 -0.86602541151947299 -0.49999998660252726 1 0 0 1 I I 0 1 1 forward I I I I #
face $-1 $81 $82 $28 $-1 $83 reversed single #
loop $-1 $-1 $84 $36 #
plane-surface $-1 52.006498460312734 -136.68882046728126 90.810020659125072 -1 0 0 0 -0.78801076186113728 0.61566146476048833 forward_v I I I I #
face $-1 $85 $86 $29 $-1 $87 forward single #
loop $-1 $88 $89 $37 #
cone-surface $-1 34.461350989204234 -30.612008569588564 12.695973069664744 0 0.78801076186113728 -0.61566146476048833 1 0 0 1 I I 0 1 1 forward I I I I #
face $-1 $90 $91 $30 $-1 $92 forward single #
loop $-1 $93 $94 $38 #
cone-surface $-1 41.04078129086993 -30.612008569588564 12.695973069664744 0 0.78801076186113728 -0.61566146476048833 1 0 0 1 I I 0 1 1 forward I I I I #
face $-1 $95 $96 $31 $-1 $97 forward single #
loop $-1 $98 $99 $39 #
cone-surface $-1 47.620211592535625 -30.612008569588564 12.695973069664744 0 0.78801076186113728 -0.61566146476048833 1 0 0 1 I I 0 1 1 forward I I I I #
face $-1 $100 $101 $24 $-1 $102 reversed single #
loop $-1 $-1 $103 $40 #
plane-surface $-1 0 0 -16.224456561407468 0 0 1 1 0 0 forward_v I I I I #
coedge $-1 $104 $105 $106 $107 forward $41 $-1 #
face $-1 $108 $109 $25 $-1 $110 reversed single #
loop $-1 $-1 $111 $43 #
plane-surface $-1 -54.141486894021881 0 13.820075976778465 -1 0 0 0 0 1 forward_v I I I I #
coedge $-1 $112 $113 $114 $115 forward $44 $-1 #
face $-1 $116 $117 $26 $-1 $118 reversed single #
loop $-1 $-1 $119 $46 #
plane-surface $-1 -8.7768577852604182 9.0174782485519245e-007 68.979342017074785 0 0.86602541151947299 0.49999998660252726 1 0 0 forward_v I I I I #
coedge $-1 $120 $121 $122 $123 reversed $47 $-1 #
face $-1 $-1 $124 $27 $-1 $125 forward single #
loop $-1 $126 $127 $49 #
cone-surface $-1 -8.7768577852604182 28.346017681239424 11.315107095464381 0 -0.86602541151947299 -0.49999998660252726 0.5 0 0 1 I I -0.70710678118654746 0.70710678118654746 0.5 forward I I I I #
loop $-1 $-1 $128 $35 #
coedge $-1 $80 $80 $129 $130 reversed $50 $-1 #
face $-1 $131 $132 $28 $-1 $133 reversed single #
loop $-1 $-1 $134 $52 #
plane-surface $-1 41.040781290869916 -33.653653741067203 10.310128095880472 0 -0.78801076186113728 0.61566146476048833 1 0 0 forward_v I I I I #
coedge $-1 $135 $136 $137 $138 reversed $53 $-1 #
face $-1 $-1 $139 $29 $-1 $140 forward single #
loop $-1 $141 $142 $55 #
cone-surface $-1 34.461350989204234 -29.486747863608048 11.816823078305276 0 0.78801076186113728 -0.61566146476048833 0.5 0 0 1 I I -0.70710678118654746 0.70710678118654746 0.5 forward I I I I #
loop $-1 $-1 $143 $37 #
coedge $-1 $89 $89 $144 $145 reversed $56 $-1 #
face $-1 $-1 $146 $30 $-1 $147 forward single #
loop $-1 $148 $149 $58 #
cone-surface $-1 41.04078129086993 -29.486747863608048 11.816823078305276 0 0.78801076186113728 -0.61566146476048833 0.5 0 0 1 I I -0.70710678118654746 0.70710678118654746 0.5 forward I I I I #
loop $-1 $-1 $150 $38 #
coedge $-1 $94 $94 $151 $152 reversed $59 $-1 #
face $-1 $-1 $153 $31 $-1 $154 forward single #
loop $-1 $155 $156 $61 #
cone-surface $-1 47.620211592535625 -29.486747863608048 11.816823078305276 0 0.78801076186113728 -0.61566146476048833 0.5 0 0 1 I I -0.70710678118654746 0.70710678118654746 0.5 forward I I I I #
loop $-1 $-1 $157 $39 #
coedge $-1 $99 $99 $158 $159 reversed $62 $-1 #
face $-1 $160 $161 $24 $-1 $162 reversed single #
loop $-1 $-1 $163 $64 #
plane-surface $-1 0 -33.653653741067195 0 0 1 0 0 0 1 forward_v I I I I #
coedge $-1 $164 $165 $166 $167 forward $65 $-1 #
coedge $-1 $168 $67 $169 $170 forward $41 $-1 #
coedge $-1 $67 $168 $171 $172 forward $41 $-1 #
coedge $-1 $173 $174 $67 $107 reversed $175 $-1 #
edge $-1 $176 -33.653653741067195 $177 33.653653741067195 $106 $178 forward 7 unknown #
face $-1 $179 $180 $25 $-1 $181 reversed single #
loop $-1 $-1 $182 $68 #
plane-surface $-1 0 33.653653741067195 0 0 -1 0 0 0 -1 forward_v I I I I #
coedge $-1 $114 $183 $184 $185 reversed $69 $-1 #
coedge $-1 $186 $71 $187 $188 reversed $44 $-1 #
coedge $-1 $71 $186 $189 $190 reversed $44 $-1 #
coedge $-1 $191 $111 $71 $115 reversed $69 $-1 #
edge $-1 $192 -33.653653741067195 $193 33.653653741067195 $114 $194 forward 7 unknown #
face $-1 $195 $196 $26 $-1 $197 forward single #
loop $-1 $-1 $198 $72 #
plane-surface $-1 4.3551206069050039 113.23585627801143 134.35609126478948 -1 0 0 0 0.86602541151947299 0.49999998660252726 forward_v I I I I #
coedge $-1 $199 $200 $201 $202 reversed $73 $-1 #
coedge $-1 $121 $75 $203 $204 reversed $47 $-1 #
coedge $-1 $75 $120 $199 $205 reversed $47 $-1 #
coedge $-1 $201 $206 $75 $123 forward $196 $-1 #
edge $-1 $207 22.964274397938517 $208 26.15988100652276 $122 $209 forward 7 unknown #
loop $-1 $-1 $129 $76 #
plane-surface $-1 -8.7768577852604182 9.0174782485519245e-007 68.979342017074785 0 0.86602541151947299 0.49999998660252726 1 0 0 forward_v I I I I #
loop $-1 $-1 $210 $49 #
coedge $-1 $127 $127 $128 $211 reversed $77 $-1 #
coedge $-1 $128 $128 $127 $211 forward $79 $-1 #
coedge $-1 $129 $129 $80 $130 forward $124 $-1 #
edge $-1 $212 3.0767403256940646e-015 $212 6.2831853071796031 $129 $213 forward 7 unknown #
face $-1 $214 $215 $28 $-1 $216 reversed single #
loop $-1 $-1 $217 $81 #
plane-surface $-1 30.075064121427097 -136.68882046728126 90.810020659125072 1 0 0 0 0.78801076186113728 -0.61566146476048833 forward_v I I I I #
coedge $-1 $218 $219 $220 $221 reversed $82 $-1 #
coedge $-1 $136 $84 $222 $223 reversed $53 $-1 #
coedge $-1 $84 $135 $218 $224 reversed $53 $-1 #
coedge $-1 $220 $225 $84 $138 forward $226 $-1 #
edge $-1 $227 34.690756492573435 $228 39.311536185430789 $137 $229 forward 7 unknown #
loop $-1 $-1 $144 $85 #
plane-surface $-1 41.040781290869916 -33.653653741067203 10.310128095880472 0 -0.78801076186113728 0.61566146476048833 1 0 0 forward_v I I I I #
loop $-1 $-1 $230 $55 #
coedge $-1 $142 $142 $143 $231 reversed $86 $-1 #
coedge $-1 $143 $143 $142 $231 forward $88 $-1 #
coedge $-1 $144 $144 $89 $145 forward $139 $-1 #
edge $-1 $232 1.7517289567077944e-016 $232 6.2831853071796004 $144 $233 forward 7 unknown #
loop $-1 $-1 $151 $90 #
plane-surface $-1 41.040781290869916 -33.653653741067203 10.310128095880472 0 -0.78801076186113728 0.61566146476048833 1 0 0 forward_v I I I I #
loop $-1 $-1 $234 $58 #
coedge $-1 $149 $149 $150 $235 reversed $91 $-1 #
coedge $-1 $150 $150 $149 $235 forward $93 $-1 #
coedge $-1 $151 $151 $94 $152 forward $146 $-1 #
edge $-1 $236 1.7517289567077944e-016 $236 6.2831853071796004 $151 $237 forward 7 unknown #
loop $-1 $-1 $158 $95 #
plane-surface $-1 41.040781290869916 -33.653653741067203 10.310128095880472 0 -0.78801076186113728 0.61566146476048833 1 0 0 forward_v I I I I #
loop $-1 $-1 $238 $61 #
coedge $-1 $156 $156 $157 $239 reversed $96 $-1 #
coedge $-1 $157 $157 $156 $239 forward $98 $-1 #
coedge $-1 $158 $158 $99 $159 forward $153 $-1 #
edge $-1 $240 1.7517289567077944e-016 $240 6.2831853071796004 $158 $241 forward 7 unknown #
face $-1 $242 $243 $24 $-1 $244 reversed single #
loop $-1 $-1 $245 $100 #
plane-surface $-1 -65.376750999481175 0 0 1 0 0 0 0 -1 forward_v I I I I #
coedge $-1 $246 $171 $247 $248 forward $101 $-1 #
coedge $-1 $249 $103 $246 $250 forward $65 $-1 #
coedge $-1 $103 $249 $251 $252 forward $65 $-1 #
coedge $-1 $174 $173 $103 $167 reversed $175 $-1 #
edge $-1 $253 -33.653653741067195 $254 33.653653741067195 $166 $255 forward 7 unknown #
coedge $-1 $105 $104 $256 $257 forward $41 $-1 #
coedge $-1 $258 $259 $104 $170 reversed $243 $-1 #
edge $-1 $177 -65.376750999481175 $260 65.376750999481175 $169 $261 forward 7 unknown #
coedge $-1 $163 $262 $105 $172 reversed $101 $-1 #
edge $-1 $263 -65.376750999481175 $176 65.376750999481175 $171 $264 forward 7 unknown #
coedge $-1 $166 $106 $262 $265 forward $175 $-1 #
coedge $-1 $106 $166 $258 $266 reversed $175 $-1 #
loop $-1 $-1 $173 $242 #
vertex $-1 $107 $267 #
vertex $-1 $107 $268 #
straight-curve $-1 65.376750999481175 0 16.224456561407468 0 1 0 I I #
face $-1 $269 $270 $25 $-1 $271 forward single #
loop $-1 $-1 $272 $108 #
plane-surface $-1 -65.376750999481175 0 0 1 0 0 0 0 -1 forward_v I I I I #
coedge $-1 $189 $273 $191 $274 forward $109 $-1 #
coedge $-1 $111 $191 $275 $276 reversed $69 $-1 #
coedge $-1 $277 $187 $111 $185 forward $278 $-1 #
edge $-1 $193 4.5056574037602299 $279 9.3144185730182354 $184 $280 forward 7 unknown #
coedge $-1 $113 $112 $272 $281 reversed $44 $-1 #
coedge $-1 $184 $282 $112 $188 forward $278 $-1 #
edge $-1 $283 -35.497191526105411 $193 -24.261927420646117 $187 $284 forward 7 unknown #
coedge $-1 $285 $182 $113 $190 forward $109 $-1 #
edge $-1 $192 24.261927420646117 $286 35.497191526105411 $189 $287 forward 7 unknown #
coedge $-1 $183 $114 $182 $274 reversed $69 $-1 #
vertex $-1 $190 $288 #
vertex $-1 $188 $289 #
straight-curve $-1 -54.141486894021881 0 11.415695392149463 0 -1 0 I I #
face $-1 $-1 $290 $26 $-1 $291 reversed single #
loop $-1 $-1 $122 $116 #
plane-surface $-1 0 0 16.224456561407468 0 0 1 1 0 0 forward_v I I I I #
coedge $-1 $292 $293 $294 $295 reversed $117 $-1 #
coedge $-1 $296 $119 $121 $205 forward $73 $-1 #
coedge $-1 $119 $296 $292 $297 forward $73 $-1 #
coedge $-1 $294 $122 $119 $202 forward $196 $-1 #
edge $-1 $208 -17.520407284795631 $298 8.743549499535213 $201 $299 forward 7 unknown #
coedge $-1 $300 $301 $120 $204 forward $290 $-1 #
edge $-1 $302 -56.488542275803084 $207 -50.953589070987277 $203 $303 forward 7 unknown #
edge $-1 $208 60.916094093713667 $302 67.307307482134377 $121 $304 forward 7 unknown #
coedge $-1 $122 $294 $300 $305 forward $196 $-1 #
vertex $-1 $204 $306 #
vertex $-1 $123 $307 #
straight-curve $-1 -21.90883617742584 56.617928139005713 16.224456561407465 0 -1 0 I I #
coedge $-1 $210 $210 $-1 $308 reversed $126 $-1 #
edge $-1 $309 0 $309 6.2831853071796004 $127 $310 forward 7 unknown #
vertex $-1 $130 $311 #
ellipse-curve $-1 -8.7768577852604182 32.055850436775074 13.456979958999558 0 0.86602541151947299 0.49999998660252726 1 0 0 1 I I #
face $-1 $-1 $226 $28 $-1 $312 forward single #
loop $-1 $-1 $313 $131 #
plane-surface $-1 0 -33.653653741067195 0 0 1 0 0 0 1 forward_v I I I I #
coedge $-1 $314 $315 $316 $317 reversed $132 $-1 #
coedge $-1 $318 $134 $136 $224 forward $82 $-1 #
coedge $-1 $134 $318 $314 $319 forward $82 $-1 #
coedge $-1 $316 $137 $134 $221 forward $226 $-1 #
edge $-1 $228 -31.486107814877776 $320 -9.5546734759921392 $220 $321 forward 7 unknown #
coedge $-1 $322 $323 $135 $223 forward $215 $-1 #
edge $-1 $324 -35.094882233682057 $227 -29.180553768155068 $222 $325 forward 7 unknown #
edge $-1 $228 -7.5053904740570214 $324 -1.1373479346495045e-014 $136 $326 forward 7 unknown #
coedge $-1 $137 $316 $322 $327 forward $226 $-1 #
loop $-1 $-1 $316 $214 #
vertex $-1 $223 $328 #
vertex $-1 $138 $329 #
straight-curve $-1 52.006498460312734 -68.34441023364063 16.224456561407472 0 1 0 I I #
coedge $-1 $230 $230 $-1 $330 reversed $141 $-1 #
edge $-1 $331 0 $331 6.2831853071796004 $142 $332 forward 7 unknown #
vertex $-1 $145 $333 #
ellipse-curve $-1 34.461350989204234 -31.343263894638518 13.267292328643972 0 -0.78801076186113728 0.61566146476048833 1 0 0 1 I I #
coedge $-1 $234 $234 $-1 $334 reversed $148 $-1 #
edge $-1 $335 0 $335 6.2831853071796004 $149 $336 forward 7 unknown #
vertex $-1 $152 $337 #
ellipse-curve $-1 41.04078129086993 -31.343263894638518 13.267292328643972 0 -0.78801076186113728 0.61566146476048833 1 0 0 1 I I #
coedge $-1 $238 $238 $-1 $338 reversed $155 $-1 #
edge $-1 $339 0 $339 6.2831853071796004 $156 $340 forward 7 unknown #
vertex $-1 $159 $341 #
ellipse-curve $-1 47.620211592535625 -31.343263894638518 13.267292328643972 0 -0.78801076186113728 0.61566146476048833 1 0 0 1 I I #
face $-1 $-1 $175 $24 $-1 $342 reversed single #
loop $-1 $-1 $258 $160 #
plane-surface $-1 0 33.653653741067195 0 0 -1 0 0 0 -1 forward_v I I I I #
coedge $-1 $343 $256 $259 $344 forward $161 $-1 #
coedge $-1 $262 $163 $164 $250 reversed $101 $-1 #
coedge $-1 $256 $343 $163 $248 reversed $161 $-1 #
edge $-1 $263 -16.224456561407468 $345 16.224456561407468 $247 $346 forward 7 unknown #
coedge $-1 $165 $164 $343 $347 forward $65 $-1 #
edge $-1 $254 -65.376750999481175 $345 65.376750999481175 $246 $348 forward 7 unknown #
coedge $-1 $259 $258 $165 $252 reversed $243 $-1 #
edge $-1 $349 -65.376750999481175 $253 65.376750999481175 $251 $350 forward 7 unknown #
vertex $-1 $167 $351 #
vertex $-1 $265 $352 #
straight-curve $-1 65.376750999481175 0 -16.224456561407468 0 -1 0 I I #
coedge $-1 $245 $247 $168 $257 reversed $161 $-1 #
edge $-1 $260 -33.653653741067195 $263 33.653653741067195 $256 $353 forward 7 unknown #
coedge $-1 $251 $169 $174 $266 forward $243 $-1 #
coedge $-1 $169 $251 $245 $344 reversed $243 $-1 #
vertex $-1 $170 $354 #
straight-curve $-1 0 33.653653741067195 16.224456561407468 -1 0 0 I I #
coedge $-1 $171 $246 $173 $265 reversed $101 $-1 #
vertex $-1 $257 $355 #
straight-curve $-1 0 -33.653653741067195 16.224456561407468 1 0 0 I I #
edge $-1 $176 -16.224456561407468 $254 16.224456561407468 $173 $356 forward 7 unknown #
edge $-1 $177 -16.224456561407468 $253 16.224456561407468 $174 $357 forward 7 unknown #
point $-1 65.376750999481175 -33.653653741067195 16.224456561407468 #
point $-1 65.376750999481175 33.653653741067195 16.224456561407468 #
face $-1 $-1 $278 $25 $-1 $358 reversed single #
loop $-1 $-1 $275 $179 #
plane-surface $-1 0 0 16.224456561407468 0 0 1 1 0 0 forward_v I I I I #
coedge $-1 $359 $360 $186 $281 forward $180 $-1 #
coedge $-1 $182 $285 $361 $362 reversed $109 $-1 #
edge $-1 $363 -9.3144185730182354 $192 -4.5056574037602299 $182 $364 forward 7 unknown #
coedge $-1 $361 $365 $183 $276 forward $270 $-1 #
edge $-1 $279 -33.653653741067195 $363 33.653653741067195 $275 $366 forward 7 unknown #
coedge $-1 $282 $184 $365 $367 reversed $278 $-1 #
loop $-1 $-1 $184 $269 #
vertex $-1 $185 $368 #
straight-curve $-1 -54.141486894021881 -33.653653741067195 6.9100379883892327 0 0 1 I I #
edge $-1 $286 -33.653653741067195 $283 33.653653741067195 $272 $369 forward 7 unknown #
coedge $-1 $187 $277 $359 $370 forward $278 $-1 #
vertex $-1 $281 $371 #
straight-curve $-1 -29.879559473375764 -33.653653741067195 11.415695392149463 1 0 0 I I #
coedge $-1 $273 $189 $360 $372 reversed $109 $-1 #
vertex $-1 $281 $373 #
straight-curve $-1 -29.879559473375764 33.653653741067195 11.415695392149463 -1 0 0 I I #
point $-1 -54.141486894021881 33.653653741067195 11.415695392149463 #
point $-1 -54.141486894021881 -33.653653741067195 11.415695392149463 #
loop $-1 $-1 $203 $195 #
plane-surface $-1 0 33.653653741067195 0 0 -1 0 0 0 -1 forward_v I I I I #
coedge $-1 $293 $198 $200 $297 reversed $117 $-1 #
coedge $-1 $198 $292 $374 $375 reversed $117 $-1 #
coedge $-1 $206 $201 $198 $295 forward $196 $-1 #
edge $-1 $298 -26.15988100652276 $376 -22.964274397938517 $294 $377 forward 7 unknown #
coedge $-1 $200 $199 $301 $378 reversed $73 $-1 #
edge $-1 $379 -67.307307482134377 $298 -60.916094093713667 $292 $380 forward 7 unknown #
vertex $-1 $202 $381 #
straight-curve $-1 -4.3884288926302091 30.458047132482953 16.224456561407465 1 0 0 I I #
coedge $-1 $374 $203 $206 $305 reversed $290 $-1 #
coedge $-1 $203 $374 $296 $378 forward $290 $-1 #
vertex $-1 $204 $382 #
straight-curve $-1 -21.90883617742584 33.653653741067195 67.178045632394742 0 0 1 I I #
straight-curve $-1 -21.90883617742584 9.0174782485519245e-007 68.979342017074785 0 0.49999998660252726 -0.86602541151947299 I I #
edge $-1 $376 -4.3551206069050039 $207 21.90883617742584 $300 $383 forward 7 unknown #
point $-1 -21.90883617742584 33.653653741067195 16.224456561407468 #
point $-1 -21.90883617742584 30.458047132482953 16.224456561407465 #
edge $-1 $384 1 $384 0 $210 $-1 forward 7 unknown #
vertex $-1 $211 $385 #
ellipse-curve $-1 -8.7768577852604182 28.77903038699916 11.565107088765645 0 0.86602541151947299 0.49999998660252726 1 0 0 1 I I #
point $-1 -7.7768577852604182 32.055850436775074 13.456979958999554 #
plane-surface $-1 0 0 16.224456561407468 0 0 1 1 0 0 forward_v I I I I #
coedge $-1 $323 $322 $315 $386 forward $215 $-1 #
coedge $-1 $315 $217 $219 $319 reversed $132 $-1 #
coedge $-1 $217 $314 $313 $386 reversed $132 $-1 #
coedge $-1 $225 $220 $217 $317 forward $226 $-1 #
edge $-1 $320 -39.311536185430789 $387 -34.690756492573435 $316 $388 forward 7 unknown #
coedge $-1 $219 $218 $323 $389 reversed $82 $-1 #
edge $-1 $390 1.1373479346495045e-014 $320 7.5053904740570214 $314 $391 forward 7 unknown #
vertex $-1 $221 $392 #
straight-curve $-1 20.520390645434958 -29.032874048209841 16.224456561407468 -1 0 0 I I #
coedge $-1 $313 $222 $225 $327 reversed $215 $-1 #
coedge $-1 $222 $313 $318 $389 forward $215 $-1 #
vertex $-1 $223 $393 #
straight-curve $-1 52.006498460312734 -33.653653741067195 45.405010329562536 0 0 1 I I #
straight-curve $-1 52.006498460312734 -33.653653741067203 10.310128095880472 0 -0.61566146476048833 -0.78801076186113728 I I #
edge $-1 $387 30.075064121427097 $227 52.006498460312734 $322 $394 forward 7 unknown #
point $-1 52.006498460312734 -33.653653741067195 16.224456561407468 #
point $-1 52.006498460312734 -29.032874048209841 16.224456561407468 #
edge $-1 $395 1 $395 0 $230 $-1 forward 7 unknown #
vertex $-1 $231 $396 #
ellipse-curve $-1 34.461350989204234 -29.880753244538617 12.124653810685521 0 -0.78801076186113728 0.61566146476048833 1 0 0 1 I I #
point $-1 35.461350989204234 -31.343263894638511 13.267292328643967 #
edge $-1 $397 1 $397 0 $234 $-1 forward 7 unknown #
vertex $-1 $235 $398 #
ellipse-curve $-1 41.04078129086993 -29.880753244538617 12.124653810685521 0 -0.78801076186113728 0.61566146476048833 1 0 0 1 I I #
point $-1 42.04078129086993 -31.343263894638511 13.267292328643967 #
edge $-1 $399 1 $399 0 $238 $-1 forward 7 unknown #
vertex $-1 $239 $400 #
ellipse-curve $-1 47.620211592535625 -29.880753244538617 12.124653810685521 0 -0.78801076186113728 0.61566146476048833 1 0 0 1 I I #
point $-1 48.620211592535625 -31.343263894638511 13.267292328643967 #
plane-surface $-1 65.376750999481175 0 0 -1 0 0 0 0 1 forward_v I I I I #
coedge $-1 $247 $245 $249 $347 reversed $161 $-1 #
edge $-1 $260 -16.224456561407468 $349 16.224456561407468 $259 $401 forward 7 unknown #
vertex $-1 $347 $402 #
straight-curve $-1 -65.376750999481175 -33.653653741067195 0 0 0 -1 I I #
edge $-1 $345 -33.653653741067195 $349 33.653653741067195 $343 $403 forward 7 unknown #
straight-curve $-1 0 -33.653653741067195 -16.224456561407468 -1 0 0 I I #
vertex $-1 $252 $404 #
straight-curve $-1 0 33.653653741067195 -16.224456561407468 1 0 0 I I #
point $-1 65.376750999481175 33.653653741067195 -16.224456561407468 #
point $-1 65.376750999481175 -33.653653741067195 -16.224456561407468 #
straight-curve $-1 -65.376750999481175 0 16.224456561407468 0 -1 0 I I #
point $-1 -65.376750999481175 33.653653741067195 16.224456561407468 #
point $-1 -65.376750999481175 -33.653653741067195 16.224456561407468 #
straight-curve $-1 65.376750999481175 -33.653653741067195 0 0 0 -1 I I #
straight-curve $-1 65.376750999481175 33.653653741067195 0 0 0 -1 I I #
plane-surface $-1 0 -33.653653741067195 0 0 1 0 0 0 1 forward_v I I I I #
coedge $-1 $405 $272 $282 $370 reversed $180 $-1 #
coedge $-1 $272 $405 $285 $372 forward $180 $-1 #
coedge $-1 $406 $275 $273 $362 forward $270 $-1 #
edge $-1 $363 54.141486894021881 $407 65.376750999481175 $273 $408 forward 7 unknown #
vertex $-1 $362 $409 #
straight-curve $-1 -54.141486894021881 33.653653741067195 6.9100379883892327 0 0 -1 I I #
coedge $-1 $275 $406 $277 $367 forward $270 $-1 #
straight-curve $-1 -54.141486894021881 0 16.224456561407468 0 1 0 I I #
edge $-1 $410 -65.376750999481175 $279 -54.141486894021881 $277 $411 forward 7 unknown #
point $-1 -54.141486894021881 -33.653653741067195 16.224456561407468 #
straight-curve $-1 -65.376750999481175 0 11.415695392149463 0 -1 0 I I #
edge $-1 $410 -16.224456561407468 $283 -11.415695392149463 $359 $412 forward 7 unknown #
point $-1 -65.376750999481175 -33.653653741067195 11.415695392149463 #
edge $-1 $407 -16.224456561407468 $286 -11.415695392149463 $285 $413 forward 7 unknown #
point $-1 -65.376750999481175 33.653653741067195 11.415695392149463 #
coedge $-1 $301 $300 $293 $375 forward $290 $-1 #
edge $-1 $376 50.953589070987277 $379 56.488542275803084 $374 $414 forward 7 unknown #
vertex $-1 $305 $415 #
straight-curve $-1 4.3551206069050039 56.617928139005713 16.224456561407465 0 1 0 I I #
edge $-1 $379 -8.743549499535213 $302 17.520407284795631 $301 $416 forward 7 unknown #
vertex $-1 $378 $417 #
straight-curve $-1 4.3551206069050039 9.0174782485519245e-007 68.979342017074785 0 -0.49999998660252726 0.86602541151947299 I I #
point $-1 4.3551206069050039 30.458047132482953 16.224456561407465 #
point $-1 -21.90883617742584 33.653653741067195 10.689503356591658 #
straight-curve $-1 0 33.653653741067195 16.224456561407468 -1 0 0 I I #
vertex $-1 $308 $418 #
point $-1 -7.7768577852604182 28.77903038699916 11.565107088765645 #
edge $-1 $387 29.180553768155068 $390 35.094882233682057 $313 $419 forward 7 unknown #
vertex $-1 $327 $420 #
straight-curve $-1 30.075064121427097 -68.34441023364063 16.224456561407472 0 -1 0 I I #
edge $-1 $390 9.5546734759921392 $324 31.486107814877776 $323 $421 forward 7 unknown #
vertex $-1 $389 $422 #
straight-curve $-1 30.075064121427097 -33.653653741067203 10.310128095880472 0 0.61566146476048833 0.78801076186113728 I I #
point $-1 30.075064121427097 -29.032874048209841 16.224456561407468 #
point $-1 52.006498460312734 -33.653653741067195 10.310128095880481 #
straight-curve $-1 0 -33.653653741067195 16.224456561407468 1 0 0 I I #
vertex $-1 $330 $423 #
point $-1 35.461350989204234 -29.880753244538617 12.124653810685521 #
vertex $-1 $334 $424 #
point $-1 42.04078129086993 -29.880753244538617 12.124653810685521 #
vertex $-1 $338 $425 #
point $-1 48.620211592535625 -29.880753244538617 12.124653810685521 #
straight-curve $-1 -65.376750999481175 33.653653741067195 0 0 0 -1 I I #
point $-1 -65.376750999481175 -33.653653741067195 -16.224456561407468 #
straight-curve $-1 -65.376750999481175 0 -16.224456561407468 0 1 0 I I #
point $-1 -65.376750999481175 33.653653741067195 -16.224456561407468 #
coedge $-1 $360 $359 $406 $426 reversed $180 $-1 #
coedge $-1 $365 $361 $405 $426 forward $270 $-1 #
vertex $-1 $362 $427 #
straight-curve $-1 0 33.653653741067195 16.224456561407468 -1 0 0 I I #
point $-1 -54.141486894021881 33.653653741067195 16.224456561407468 #
vertex $-1 $426 $428 #
straight-curve $-1 0 -33.653653741067195 16.224456561407468 1 0 0 I I #
straight-curve $-1 -65.376750999481175 -33.653653741067195 0 0 0 -1 I I #
straight-curve $-1 -65.376750999481175 33.653653741067195 0 0 0 -1 I I #
straight-curve $-1 4.3551206069050039 33.653653741067195 67.178045632394742 0 0 -1 I I #
point $-1 4.3551206069050039 33.653653741067195 16.224456561407468 #
straight-curve $-1 -4.3884288926302091 33.653653741067195 10.689503356591654 -1 0 0 I I #
point $-1 4.3551206069050039 33.653653741067195 10.689503356591658 #
point $-1 -8.7768577852604182 27.913004975479687 11.065107102163116 #
straight-curve $-1 30.075064121427097 -33.653653741067195 45.405010329562536 0 0 -1 I I #
point $-1 30.075064121427097 -33.653653741067195 16.224456561407468 #
straight-curve $-1 20.520390645434958 -33.653653741067195 10.310128095880488 1 0 0 I I #
point $-1 30.075064121427097 -33.653653741067195 10.310128095880481 #
point $-1 34.461350989204234 -29.09274248267748 11.508992345925032 #
point $-1 41.04078129086993 -29.09274248267748 11.508992345925032 #
point $-1 47.620211592535625 -29.09274248267748 11.508992345925032 #
edge $-1 $407 -33.653653741067195 $410 33.653653741067195 $405 $429 forward 7 unknown #
point $-1 -65.376750999481175 33.653653741067195 16.224456561407468 #
point $-1 -65.376750999481175 -33.653653741067195 16.224456561407468 #
straight-curve $-1 -65.376750999481175 0 16.224456561407468 0 -1 0 I I #
End-of-ACIS-data 