500 0 14 0           
7 Unknown 11 ACIS 5.0 NT 24 Thu Mar 25 21:57:39 1999 
-1 9.9999999999999995e-007 1e-010 
body $-1 $14 $-1 $15 #
body $-1 $16 $-1 $17 #
body $-1 $18 $-1 $19 #
body $-1 $20 $-1 $21 #
body $-1 $22 $-1 $23 #
body $-1 $24 $-1 $25 #
body $-1 $26 $-1 $27 #
body $-1 $28 $-1 $29 #
body $-1 $30 $-1 $31 #
body $-1 $32 $-1 $33 #
body $-1 $34 $-1 $35 #
body $-1 $36 $-1 $37 #
body $-1 $38 $-1 $39 #
body $-1 $40 $-1 $41 #
lump $-1 $-1 $42 $0 #
transform $-1 1 0 0 0 1 0 0 0 1 49.873348185674615 32.074375631480486 14.995580616135202 1 rotate no_reflect no_shear #
lump $-1 $-1 $43 $1 #
transform $-1 1 0 0 0 1 0 0 0 1 49.873348185674615 32.074375631480486 14.995580616135202 1 rotate no_reflect no_shear #
lump $-1 $-1 $44 $2 #
transform $-1 1 0 0 0 1 0 0 0 1 49.873348185674615 32.074375631480486 14.995580616135202 1 rotate no_reflect no_shear #
lump $-1 $-1 $45 $3 #
transform $-1 1 0 0 0 1 0 0 0 1 49.873348185674615 32.074375631480486 14.995580616135202 1 rotate no_reflect no_shear #
lump $-1 $-1 $46 $4 #
transform $-1 1 0 0 0 1 0 0 0 1 49.873348185674615 32.074375631480486 14.995580616135202 1 rotate no_reflect no_shear #
lump $-1 $-1 $47 $5 #
transform $-1 1 0 0 0 1 0 0 0 1 49.873348185674615 32.074375631480486 14.995580616135202 1 rotate no_reflect no_shear #
lump $-1 $-1 $48 $6 #
transform $-1 1 0 0 0 1 0 0 0 1 49.873348185674615 32.074375631480486 14.995580616135202 1 rotate no_reflect no_shear #
lump $-1 $-1 $49 $7 #
transform $-1 1 0 0 0 1 0 0 0 1 49.873348185674615 32.074375631480486 14.995580616135202 1 rotate no_reflect no_shear #
lump $-1 $-1 $50 $8 #
transform $-1 1 0 0 0 1 0 0 0 1 49.873348185674615 32.074375631480486 14.995580616135202 1 rotate no_reflect no_shear #
lump $-1 $-1 $51 $9 #
transform $-1 1 0 0 0 1 0 0 0 1 49.873348185674615 32.074375631480486 14.995580616135202 1 rotate no_reflect no_shear #
lump $-1 $-1 $52 $10 #
transform $-1 1 0 0 0 1 0 0 0 1 49.873348185674615 32.074375631480486 14.995580616135202 1 rotate no_reflect no_shear #
lump $-1 $-1 $53 $11 #
transform $-1 1 0 0 0 1 0 0 0 1 49.873348185674615 32.074375631480486 14.995580616135202 1 rotate no_reflect no_shear #
lump $-1 $-1 $54 $12 #
transform $-1 1 0 0 0 1 0 0 0 1 49.873348185674615 32.074375631480486 14.995580616135202 1 rotate no_reflect no_shear #
lump $-1 $-1 $55 $13 #
transform $-1 1 0 0 0 1 0 0 0 1 49.873348185674615 32.074375631480486 14.995580616135202 1 rotate no_reflect no_shear #
shell $-1 $-1 $-1 $56 $-1 $14 #
shell $-1 $-1 $-1 $57 $-1 $16 #
shell $-1 $-1 $-1 $58 $-1 $18 #
shell $-1 $-1 $-1 $59 $-1 $20 #
shell $-1 $-1 $-1 $60 $-1 $22 #
shell $-1 $-1 $-1 $61 $-1 $24 #
shell $-1 $-1 $-1 $62 $-1 $26 #
shell $-1 $-1 $-1 $63 $-1 $28 #
shell $-1 $-1 $-1 $64 $-1 $30 #
shell $-1 $-1 $-1 $65 $-1 $32 #
shell $-1 $-1 $-1 $66 $-1 $34 #
shell $-1 $-1 $-1 $67 $-1 $36 #
shell $-1 $-1 $-1 $68 $-1 $38 #
shell $-1 $-1 $-1 $69 $-1 $40 #
face $-1 $70 $71 $42 $-1 $72 forward single #
face $-1 $73 $74 $43 $-1 $75 forward single #
face $-1 $76 $77 $44 $-1 $78 forward single #
face $-1 $79 $80 $45 $-1 $81 reversed single #
face $-1 $82 $83 $46 $-1 $84 forward single #
face $-1 $85 $86 $47 $-1 $87 forward single #
face $-1 $88 $89 $48 $-1 $90 reversed single #
face $-1 $91 $92 $49 $-1 $93 forward single #
face $-1 $94 $95 $50 $-1 $96 forward single #
face $-1 $97 $98 $51 $-1 $99 forward single #
face $-1 $100 $101 $52 $-1 $102 reversed single #
face $-1 $103 $104 $53 $-1 $105 forward single #
face $-1 $106 $107 $54 $-1 $108 forward single #
face $-1 $109 $110 $55 $-1 $111 forward single #
face $-1 $112 $113 $42 $-1 $114 reversed single #
loop $-1 $-1 $115 $56 #
plane-surface $-1 0 0 14.995580616135202 0 0 1 1 0 0 forward_v I I I I #
face $-1 $116 $117 $43 $-1 $118 reversed single #
loop $-1 $-1 $119 $57 #
plane-surface $-1 0 -32.074375631480486 0 0 1 0 0 0 1 forward_v I I I I #
face $-1 $120 $121 $44 $-1 $122 reversed single #
loop $-1 $-1 $123 $58 #
plane-surface $-1 0 32.074375631480486 0 0 -1 0 0 0 -1 forward_v I I I I #
face $-1 $124 $125 $45 $-1 $126 reversed single #
loop $-1 $-1 $127 $59 #
plane-surface $-1 -104.19929335508164 -10.968393145079048 91.894509647961726 0 1 0 -0.54463904215088732 0 0.83867056331134215 forward_v I I I I #
face $-1 $128 $129 $46 $-1 $130 forward single #
loop $-1 $131 $132 $60 #
cone-surface $-1 -44.363643590371822 -9.2329444338264643 11.143026103723294 0.54463904215088732 0 -0.83867056331134215 0.41933528165567108 0 0.27231952107544366 1 I I 0 1 0.5 forward I I I I #
face $-1 $133 $134 $47 $-1 $135 forward single #
loop $-1 $136 $137 $61 #
cone-surface $-1 -44.363643590371822 -6.6297713669475868 11.143026103723294 0.54463904215088732 0 -0.83867056331134215 0.41933528165567108 0 0.27231952107544366 1 I I 0 1 0.5 forward I I I I #
face $-1 $138 $139 $48 $-1 $140 reversed single #
loop $-1 $-1 $141 $62 #
plane-surface $-1 18.141049314897259 -12.294705007723628 142.2976159330693 0 -1 0 -0.52991927123019833 0 -0.84804809178421925 forward_v I I I I #
face $-1 $142 $143 $49 $-1 $144 forward single #
loop $-1 $145 $146 $63 #
cone-surface $-1 41.490166209642332 -19.448080726163596 9.4987281445962068 -0.52991927123019833 0 -0.84804809178421925 0.21201202294605481 0 -0.13247981780754958 1 I I 0 1 0.25 forward I I I I #
face $-1 $147 $148 $50 $-1 $149 forward single #
loop $-1 $150 $151 $64 #
cone-surface $-1 41.490166209642332 -16.765564831748609 9.4987281445962068 -0.52991927123019833 0 -0.84804809178421925 0.21201202294605481 0 -0.13247981780754958 1 I I 0 1 0.25 forward I I I I #
face $-1 $152 $153 $51 $-1 $154 forward single #
loop $-1 $155 $156 $65 #
cone-surface $-1 41.490166209642332 -14.083048937333619 9.4987281445962068 -0.52991927123019833 0 -0.84804809178421925 0.21201202294605481 0 -0.13247981780754958 1 I I 0 1 0.25 forward I I I I #
face $-1 $157 $158 $52 $-1 $159 reversed single #
loop $-1 $-1 $160 $66 #
plane-surface $-1 18.141049314897259 8.9417196480499577 142.2976159330693 0 -1 0 -0.52991927123019833 0 -0.84804809178421925 forward_v I I I I #
face $-1 $161 $162 $53 $-1 $163 forward single #
loop $-1 $164 $165 $67 #
cone-surface $-1 41.490166209642332 1.7883439296099937 9.4987281445962068 -0.52991927123019833 0 -0.84804809178421925 0.21201202294605481 0 -0.13247981780754958 1 I I 0 1 0.25 forward I I I I #
face $-1 $166 $167 $54 $-1 $168 forward single #
loop $-1 $169 $170 $68 #
cone-surface $-1 41.490166209642332 4.4708598240249771 9.4987281445962068 -0.52991927123019833 0 -0.84804809178421925 0.21201202294605481 0 -0.13247981780754958 1 I I 0 1 0.25 forward I I I I #
face $-1 $171 $172 $55 $-1 $173 forward single #
loop $-1 $174 $175 $69 #
cone-surface $-1 41.490166209642332 7.1533757184399676 9.4987281445962068 -0.52991927123019833 0 -0.84804809178421925 0.21201202294605481 0 -0.13247981780754958 1 I I 0 1 0.25 forward I I I I #
face $-1 $176 $177 $42 $-1 $178 reversed single #
loop $-1 $-1 $179 $70 #
plane-surface $-1 0 0 -14.995580616135202 0 0 1 1 0 0 forward_v I I I I #
coedge $-1 $180 $181 $182 $183 forward $71 $-1 #
face $-1 $184 $185 $43 $-1 $186 forward single #
loop $-1 $-1 $187 $73 #
plane-surface $-1 -49.873348185674615 0 0 1 0 0 0 0 -1 forward_v I I I I #
coedge $-1 $188 $189 $190 $191 forward $74 $-1 #
face $-1 $192 $193 $44 $-1 $194 forward single #
loop $-1 $-1 $195 $76 #
plane-surface $-1 49.873348185674615 0 0 -1 0 0 0 0 1 forward_v I I I I #
coedge $-1 $196 $197 $198 $199 forward $77 $-1 #
face $-1 $200 $201 $45 $-1 $202 reversed single #
loop $-1 $-1 $203 $79 #
plane-surface $-1 -49.873348185674601 -7.9313579003870238 8.2398916137568534 -0.54463904215088732 0 0.83867056331134215 0.83867056331134215 0 0.54463904215088732 forward_v I I I I #
coedge $-1 $204 $205 $206 $207 reversed $80 $-1 #
face $-1 $-1 $208 $46 $-1 $209 forward single #
loop $-1 $210 $211 $82 #
cone-surface $-1 -43.919203538236687 -9.2329444338264643 10.458648451672721 0.54463904215088732 0 -0.83867056331134215 0.20966764082783554 0 0.13615976053772183 1 I I -0.70710678118654746 0.70710678118654746 0.25 forward I I I I #
loop $-1 $-1 $212 $60 #
coedge $-1 $132 $132 $213 $214 reversed $83 $-1 #
face $-1 $-1 $215 $47 $-1 $216 forward single #
loop $-1 $217 $218 $85 #
cone-surface $-1 -43.919203538236687 -6.6297713669475868 10.458648451672721 0.54463904215088732 0 -0.83867056331134215 0.20966764082783554 0 0.13615976053772183 1 I I -0.70710678118654746 0.70710678118654746 0.25 forward I I I I #
loop $-1 $-1 $219 $61 #
coedge $-1 $137 $137 $220 $221 reversed $86 $-1 #
face $-1 $222 $223 $48 $-1 $224 reversed single #
loop $-1 $-1 $225 $88 #
plane-surface $-1 -34.716647333827993 -16.765564831748609 57.707620413566673 0.52991927123019833 0 0.84804809178421925 0.84804809178421925 0 -0.52991927123019833 forward_v I I I I #
coedge $-1 $226 $227 $228 $229 reversed $89 $-1 #
face $-1 $-1 $230 $49 $-1 $231 forward single #
loop $-1 $232 $233 $91 #
cone-surface $-1 41.158966665123458 -19.448080726163596 8.9686980872310702 -0.52991927123019833 0 -0.84804809178421925 0.10600601147302741 0 -0.066239908903774791 1 I I -0.70710678118654746 0.70710678118654746 0.125 forward I I I I #
loop $-1 $-1 $234 $63 #
coedge $-1 $146 $146 $235 $236 reversed $92 $-1 #
face $-1 $-1 $237 $50 $-1 $238 forward single #
loop $-1 $239 $240 $94 #
cone-surface $-1 41.158966665123458 -16.765564831748609 8.9686980872310702 -0.52991927123019833 0 -0.84804809178421925 0.10600601147302741 0 -0.066239908903774791 1 I I -0.70710678118654746 0.70710678118654746 0.125 forward I I I I #
loop $-1 $-1 $241 $64 #
coedge $-1 $151 $151 $242 $243 reversed $95 $-1 #
face $-1 $-1 $244 $51 $-1 $245 forward single #
loop $-1 $246 $247 $97 #
cone-surface $-1 41.158966665123458 -14.083048937333619 8.9686980872310702 -0.52991927123019833 0 -0.84804809178421925 0.10600601147302741 0 -0.066239908903774791 1 I I -0.70710678118654746 0.70710678118654746 0.125 forward I I I I #
loop $-1 $-1 $248 $65 #
coedge $-1 $156 $156 $249 $250 reversed $98 $-1 #
face $-1 $251 $252 $52 $-1 $253 reversed single #
loop $-1 $-1 $254 $100 #
plane-surface $-1 -34.716647333827993 4.4708598240249771 57.707620413566673 0.52991927123019833 0 0.84804809178421925 0.84804809178421925 0 -0.52991927123019833 forward_v I I I I #
coedge $-1 $255 $256 $257 $258 reversed $101 $-1 #
face $-1 $-1 $259 $53 $-1 $260 forward single #
loop $-1 $261 $262 $103 #
cone-surface $-1 41.158966665123458 1.7883439296099937 8.9686980872310702 -0.52991927123019833 0 -0.84804809178421925 0.10600601147302741 0 -0.066239908903774791 1 I I -0.70710678118654746 0.70710678118654746 0.125 forward I I I I #
loop $-1 $-1 $263 $67 #
coedge $-1 $165 $165 $264 $265 reversed $104 $-1 #
face $-1 $-1 $266 $54 $-1 $267 forward single #
loop $-1 $268 $269 $106 #
cone-surface $-1 41.158966665123458 4.4708598240249771 8.9686980872310702 -0.52991927123019833 0 -0.84804809178421925 0.10600601147302741 0 -0.066239908903774791 1 I I -0.70710678118654746 0.70710678118654746 0.125 forward I I I I #
loop $-1 $-1 $270 $68 #
coedge $-1 $170 $170 $271 $272 reversed $107 $-1 #
face $-1 $-1 $273 $55 $-1 $274 forward single #
loop $-1 $275 $276 $109 #
cone-surface $-1 41.158966665123458 7.1533757184399676 8.9686980872310702 -0.52991927123019833 0 -0.84804809178421925 0.10600601147302741 0 -0.066239908903774791 1 I I -0.70710678118654746 0.70710678118654746 0.125 forward I I I I #
loop $-1 $-1 $277 $69 #
coedge $-1 $175 $175 $278 $279 reversed $110 $-1 #
face $-1 $280 $281 $42 $-1 $282 reversed single #
loop $-1 $-1 $283 $112 #
plane-surface $-1 0 -32.074375631480486 0 0 1 0 0 0 1 forward_v I I I I #
coedge $-1 $284 $285 $286 $287 forward $113 $-1 #
coedge $-1 $288 $115 $289 $290 forward $71 $-1 #
coedge $-1 $115 $288 $291 $292 forward $71 $-1 #
coedge $-1 $293 $294 $115 $183 reversed $295 $-1 #
edge $-1 $296 -32.074375631480486 $297 32.074375631480486 $182 $298 forward 7 unknown #
face $-1 $299 $300 $43 $-1 $301 reversed single #
loop $-1 $-1 $302 $116 #
plane-surface $-1 0 -37.49335111933393 0.40793468613682116 0 0 1 1 0 0 forward_v I I I I #
coedge $-1 $303 $304 $189 $305 forward $117 $-1 #
coedge $-1 $306 $119 $307 $308 reversed $74 $-1 #
coedge $-1 $119 $306 $187 $305 reversed $74 $-1 #
coedge $-1 $309 $302 $119 $191 reversed $185 $-1 #
edge $-1 $310 -49.873348185674615 $311 49.873348185674615 $190 $312 forward 7 unknown #
face $-1 $313 $314 $44 $-1 $315 reversed single #
loop $-1 $-1 $316 $120 #
plane-surface $-1 0 37.49335111933393 0.40793468613682116 0 0 1 1 0 0 forward_v I I I I #
coedge $-1 $317 $318 $197 $319 forward $121 $-1 #
coedge $-1 $320 $123 $321 $322 reversed $77 $-1 #
coedge $-1 $123 $320 $195 $319 reversed $77 $-1 #
coedge $-1 $316 $323 $123 $199 reversed $193 $-1 #
edge $-1 $324 -49.873348185674615 $325 49.873348185674615 $198 $326 forward 7 unknown #
face $-1 $327 $328 $45 $-1 $329 reversed single #
loop $-1 $-1 $330 $124 #
plane-surface $-1 -104.19929335508164 -4.8943226556949995 91.894509647961726 0 -1 0 0.54463904215088732 0 -0.83867056331134215 forward_v I I I I #
coedge $-1 $331 $332 $333 $334 reversed $125 $-1 #
coedge $-1 $205 $127 $335 $336 reversed $80 $-1 #
coedge $-1 $127 $204 $331 $337 reversed $80 $-1 #
coedge $-1 $333 $338 $127 $207 forward $339 $-1 #
edge $-1 $340 2.2262984918662028 $341 12.629147099276977 $206 $342 forward 7 unknown #
loop $-1 $-1 $213 $128 #
plane-surface $-1 -49.873348185674601 -7.9313579003870238 8.2398916137568534 -0.54463904215088732 0 0.83867056331134215 0.83867056331134215 0 0.54463904215088732 forward_v I I I I #
loop $-1 $-1 $343 $82 #
coedge $-1 $211 $211 $212 $344 reversed $129 $-1 #
coedge $-1 $212 $212 $211 $344 forward $131 $-1 #
coedge $-1 $213 $213 $132 $214 forward $208 $-1 #
edge $-1 $345 0 $345 6.2831853071796004 $213 $346 forward 7 unknown #
loop $-1 $-1 $220 $133 #
plane-surface $-1 -49.873348185674601 -7.9313579003870238 8.2398916137568534 -0.54463904215088732 0 0.83867056331134215 0.83867056331134215 0 0.54463904215088732 forward_v I I I I #
loop $-1 $-1 $347 $85 #
coedge $-1 $218 $218 $219 $348 reversed $134 $-1 #
coedge $-1 $219 $219 $218 $348 forward $136 $-1 #
coedge $-1 $220 $220 $137 $221 forward $215 $-1 #
edge $-1 $349 0 $349 6.2831853071796004 $220 $350 forward 7 unknown #
face $-1 $351 $352 $48 $-1 $353 forward single #
loop $-1 $-1 $354 $138 #
plane-surface $-1 18.141049314897259 -21.23642465577359 142.2976159330693 0 1 0 0.52991927123019833 0 0.84804809178421925 forward_v I I I I #
coedge $-1 $355 $356 $357 $358 reversed $139 $-1 #
coedge $-1 $227 $141 $359 $360 reversed $89 $-1 #
coedge $-1 $141 $226 $355 $361 reversed $89 $-1 #
coedge $-1 $357 $362 $141 $229 forward $352 $-1 #
edge $-1 $363 -40.802823528225986 $364 -24.566378847391633 $228 $365 forward 7 unknown #
loop $-1 $-1 $235 $142 #
plane-surface $-1 -34.716647333827993 -16.765564831748609 57.707620413566673 0.52991927123019833 0 0.84804809178421925 0.84804809178421925 0 -0.52991927123019833 forward_v I I I I #
loop $-1 $-1 $366 $91 #
coedge $-1 $233 $233 $234 $367 reversed $143 $-1 #
coedge $-1 $234 $234 $233 $367 forward $145 $-1 #
coedge $-1 $235 $235 $146 $236 forward $230 $-1 #
edge $-1 $368 0 $368 6.2831853071796004 $235 $369 forward 7 unknown #
loop $-1 $-1 $242 $147 #
plane-surface $-1 -34.716647333827993 -16.765564831748609 57.707620413566673 0.52991927123019833 0 0.84804809178421925 0.84804809178421925 0 -0.52991927123019833 forward_v I I I I #
loop $-1 $-1 $370 $94 #
coedge $-1 $240 $240 $241 $371 reversed $148 $-1 #
coedge $-1 $241 $241 $240 $371 forward $150 $-1 #
coedge $-1 $242 $242 $151 $243 forward $237 $-1 #
edge $-1 $372 0 $372 6.2831853071796004 $242 $373 forward 7 unknown #
loop $-1 $-1 $249 $152 #
plane-surface $-1 -34.716647333827993 -16.765564831748609 57.707620413566673 0.52991927123019833 0 0.84804809178421925 0.84804809178421925 0 -0.52991927123019833 forward_v I I I I #
loop $-1 $-1 $374 $97 #
coedge $-1 $247 $247 $248 $375 reversed $153 $-1 #
coedge $-1 $248 $248 $247 $375 forward $155 $-1 #
coedge $-1 $249 $249 $156 $250 forward $244 $-1 #
edge $-1 $376 0 $376 6.2831853071796004 $249 $377 forward 7 unknown #
face $-1 $378 $379 $52 $-1 $380 reversed single #
loop $-1 $-1 $381 $157 #
plane-surface $-1 18.141049314897259 -4.4408920985006262e-015 142.2976159330693 0 1 0 0.52991927123019833 0 0.84804809178421925 forward_v I I I I #
coedge $-1 $382 $383 $384 $385 reversed $158 $-1 #
coedge $-1 $256 $160 $386 $387 reversed $101 $-1 #
coedge $-1 $160 $255 $382 $388 reversed $101 $-1 #
coedge $-1 $384 $389 $160 $258 forward $390 $-1 #
edge $-1 $391 -40.802823528225986 $392 -24.566378847391633 $257 $393 forward 7 unknown #
loop $-1 $-1 $264 $161 #
plane-surface $-1 -34.716647333827993 4.4708598240249771 57.707620413566673 0.52991927123019833 0 0.84804809178421925 0.84804809178421925 0 -0.52991927123019833 forward_v I I I I #
loop $-1 $-1 $394 $103 #
coedge $-1 $262 $262 $263 $395 reversed $162 $-1 #
coedge $-1 $263 $263 $262 $395 forward $164 $-1 #
coedge $-1 $264 $264 $165 $265 forward $259 $-1 #
edge $-1 $396 0 $396 6.2831853071796004 $264 $397 forward 7 unknown #
loop $-1 $-1 $271 $166 #
plane-surface $-1 -34.716647333827993 4.4708598240249771 57.707620413566673 0.52991927123019833 0 0.84804809178421925 0.84804809178421925 0 -0.52991927123019833 forward_v I I I I #
loop $-1 $-1 $398 $106 #
coedge $-1 $269 $269 $270 $399 reversed $167 $-1 #
coedge $-1 $270 $270 $269 $399 forward $169 $-1 #
coedge $-1 $271 $271 $170 $272 forward $266 $-1 #
edge $-1 $400 0 $400 6.2831853071796004 $271 $401 forward 7 unknown #
loop $-1 $-1 $278 $171 #
plane-surface $-1 -34.716647333827993 4.4708598240249771 57.707620413566673 0.52991927123019833 0 0.84804809178421925 0.84804809178421925 0 -0.52991927123019833 forward_v I I I I #
loop $-1 $-1 $402 $109 #
coedge $-1 $276 $276 $277 $403 reversed $172 $-1 #
coedge $-1 $277 $277 $276 $403 forward $174 $-1 #
coedge $-1 $278 $278 $175 $279 forward $273 $-1 #
edge $-1 $404 0 $404 6.2831853071796004 $278 $405 forward 7 unknown #
face $-1 $406 $407 $42 $-1 $408 reversed single #
loop $-1 $-1 $409 $176 #
plane-surface $-1 -49.873348185674615 0 0 1 0 0 0 0 -1 forward_v I I I I #
coedge $-1 $410 $291 $411 $412 forward $177 $-1 #
coedge $-1 $413 $179 $410 $414 forward $113 $-1 #
coedge $-1 $179 $413 $415 $416 forward $113 $-1 #
coedge $-1 $294 $293 $179 $287 reversed $295 $-1 #
edge $-1 $417 -32.074375631480486 $418 32.074375631480486 $286 $419 forward 7 unknown #
coedge $-1 $181 $180 $420 $421 forward $71 $-1 #
coedge $-1 $422 $423 $180 $290 reversed $407 $-1 #
edge $-1 $297 -49.873348185674615 $424 49.873348185674615 $289 $425 forward 7 unknown #
coedge $-1 $283 $426 $181 $292 reversed $177 $-1 #
edge $-1 $427 -49.873348185674615 $296 49.873348185674615 $291 $428 forward 7 unknown #
coedge $-1 $286 $182 $426 $429 forward $295 $-1 #
coedge $-1 $182 $286 $422 $430 reversed $295 $-1 #
loop $-1 $-1 $293 $406 #
vertex $-1 $183 $431 #
vertex $-1 $183 $432 #
straight-curve $-1 49.873348185674615 0 14.995580616135202 0 1 0 I I #
face $-1 $433 $434 $43 $-1 $435 reversed single #
loop $-1 $-1 $436 $184 #
plane-surface $-1 0 -37.49335111933393 -7.2115428342428718 0 0 1 1 0 0 forward_v I I I I #
coedge $-1 $190 $437 $438 $439 forward $185 $-1 #
coedge $-1 $440 $187 $441 $442 reversed $117 $-1 #
coedge $-1 $187 $440 $309 $443 reversed $117 $-1 #
edge $-1 $310 -0.40793468613682116 $444 7.2115428342428718 $187 $445 forward 7 unknown #
coedge $-1 $189 $188 $446 $447 forward $74 $-1 #
coedge $-1 $438 $448 $188 $308 forward $449 $-1 #
edge $-1 $450 -7.2115428342428718 $311 0.40793468613682116 $307 $451 forward 7 unknown #
coedge $-1 $437 $190 $304 $443 forward $185 $-1 #
vertex $-1 $305 $452 #
vertex $-1 $439 $453 #
straight-curve $-1 0 -32.074375631480486 0.40793468613682116 1 0 0 I I #
face $-1 $454 $455 $44 $-1 $456 reversed single #
loop $-1 $-1 $457 $192 #
plane-surface $-1 0 37.49335111933393 -7.2115428342428718 0 0 1 1 0 0 forward_v I I I I #
coedge $-1 $458 $198 $318 $459 forward $193 $-1 #
coedge $-1 $460 $195 $457 $461 reversed $121 $-1 #
coedge $-1 $195 $460 $316 $459 reversed $121 $-1 #
edge $-1 $324 -0.40793468613682116 $462 7.2115428342428718 $195 $463 forward 7 unknown #
coedge $-1 $197 $196 $464 $465 forward $77 $-1 #
coedge $-1 $466 $467 $196 $322 forward $468 $-1 #
edge $-1 $469 -7.2115428342428718 $325 0.40793468613682116 $321 $470 forward 7 unknown #
coedge $-1 $198 $458 $466 $471 forward $193 $-1 #
vertex $-1 $319 $472 #
vertex $-1 $471 $473 #
straight-curve $-1 0 32.074375631480486 0.40793468613682116 -1 0 0 I I #
face $-1 $-1 $339 $45 $-1 $474 forward single #
loop $-1 $-1 $475 $200 #
plane-surface $-1 -49.873348185674615 0 0 1 0 0 0 0 -1 forward_v I I I I #
coedge $-1 $476 $477 $478 $479 reversed $201 $-1 #
coedge $-1 $480 $203 $205 $337 forward $125 $-1 #
coedge $-1 $203 $480 $476 $481 forward $125 $-1 #
coedge $-1 $478 $206 $203 $334 forward $339 $-1 #
edge $-1 $341 -7.0027141948855363 $482 -0.92864370550148756 $333 $483 forward 7 unknown #
coedge $-1 $484 $485 $204 $336 forward $328 $-1 #
edge $-1 $486 -37.707363210224017 $340 -30.951674207845663 $335 $487 forward 7 unknown #
edge $-1 $341 -12.403974888944422 $486 1.6755591966779756e-014 $205 $488 forward 7 unknown #
coedge $-1 $206 $478 $484 $489 forward $339 $-1 #
loop $-1 $-1 $478 $327 #
vertex $-1 $336 $490 #
vertex $-1 $207 $491 #
straight-curve $-1 -52.099646677540818 -10.968393145079048 14.9955806161352 1 0 0 I I #
coedge $-1 $343 $343 $-1 $492 reversed $210 $-1 #
edge $-1 $493 0 $493 6.2831853071796004 $211 $494 forward 7 unknown #
vertex $-1 $214 $495 #
ellipse-curve $-1 -44.671923881969228 -9.2329444338264643 11.617736114946021 -0.54463904215088732 0 0.83867056331134215 0.41933528165567108 0 0.27231952107544366 1 I I #
coedge $-1 $347 $347 $-1 $496 reversed $217 $-1 #
edge $-1 $497 0 $497 6.2831853071796004 $218 $498 forward 7 unknown #
vertex $-1 $221 $499 #
ellipse-curve $-1 -44.671923881969228 -6.6297713669475868 11.617736114946021 -0.54463904215088732 0 0.83867056331134215 0.41933528165567108 0 0.27231952107544366 1 I I #
face $-1 $-1 $500 $48 $-1 $501 reversed single #
loop $-1 $-1 $228 $222 #
plane-surface $-1 0 0 14.995580616135202 0 0 1 1 0 0 forward_v I I I I #
coedge $-1 $502 $503 $504 $505 reversed $223 $-1 #
coedge $-1 $506 $225 $227 $361 forward $139 $-1 #
coedge $-1 $225 $506 $502 $507 forward $139 $-1 #
coedge $-1 $504 $228 $225 $358 forward $352 $-1 #
edge $-1 $364 3.9119225918493239 $508 12.853642239899285 $357 $509 forward 7 unknown #
coedge $-1 $510 $511 $226 $360 forward $500 $-1 #
edge $-1 $512 -66.298884201693227 $363 -56.153227350399447 $359 $513 forward 7 unknown #
edge $-1 $364 80.601031357618353 $512 99.746696371349216 $227 $514 forward 7 unknown #
coedge $-1 $228 $504 $510 $515 forward $352 $-1 #
vertex $-1 $360 $516 #
vertex $-1 $229 $517 #
straight-curve $-1 9.0705246574486296 -12.294705007723628 14.9955806161352 -1 0 0 I I #
coedge $-1 $366 $366 $-1 $518 reversed $232 $-1 #
edge $-1 $519 0 $519 6.2831853071796004 $233 $520 forward 7 unknown #
vertex $-1 $236 $521 #
ellipse-curve $-1 41.755125845257432 -19.448080726163596 9.9227521904883158 0.52991927123019833 0 0.84804809178421925 0.21201202294605481 0 -0.13247981780754958 1 I I #
coedge $-1 $370 $370 $-1 $522 reversed $239 $-1 #
edge $-1 $523 0 $523 6.2831853071796004 $240 $524 forward 7 unknown #
vertex $-1 $243 $525 #
ellipse-curve $-1 41.755125845257432 -16.765564831748609 9.9227521904883158 0.52991927123019833 0 0.84804809178421925 0.21201202294605481 0 -0.13247981780754958 1 I I #
coedge $-1 $374 $374 $-1 $526 reversed $246 $-1 #
edge $-1 $527 0 $527 6.2831853071796004 $247 $528 forward 7 unknown #
vertex $-1 $250 $529 #
ellipse-curve $-1 41.755125845257432 -14.083048937333619 9.9227521904883158 0.52991927123019833 0 0.84804809178421925 0.21201202294605481 0 -0.13247981780754958 1 I I #
face $-1 $-1 $390 $52 $-1 $530 forward single #
loop $-1 $-1 $531 $251 #
plane-surface $-1 49.873348185674615 0 0 -1 0 0 0 0 1 forward_v I I I I #
coedge $-1 $532 $533 $534 $535 reversed $252 $-1 #
coedge $-1 $536 $254 $256 $388 forward $158 $-1 #
coedge $-1 $254 $536 $532 $537 forward $158 $-1 #
coedge $-1 $534 $257 $254 $385 forward $390 $-1 #
edge $-1 $392 -6.7062897360374691 $538 2.235429912012493 $384 $539 forward 7 unknown #
coedge $-1 $540 $541 $255 $387 forward $379 $-1 #
edge $-1 $542 -66.298884201693227 $391 -56.153227350399447 $386 $543 forward 7 unknown #
edge $-1 $392 80.601031357618353 $542 99.746696371349216 $256 $544 forward 7 unknown #
coedge $-1 $257 $534 $540 $545 forward $390 $-1 #
loop $-1 $-1 $534 $378 #
vertex $-1 $387 $546 #
vertex $-1 $258 $547 #
straight-curve $-1 9.0705246574486296 8.9417196480499577 14.9955806161352 -1 0 0 I I #
coedge $-1 $394 $394 $-1 $548 reversed $261 $-1 #
edge $-1 $549 0 $549 6.2831853071796004 $262 $550 forward 7 unknown #
vertex $-1 $265 $551 #
ellipse-curve $-1 41.755125845257432 1.7883439296099937 9.9227521904883158 0.52991927123019833 0 0.84804809178421925 0.21201202294605481 0 -0.13247981780754958 1 I I #
coedge $-1 $398 $398 $-1 $552 reversed $268 $-1 #
edge $-1 $553 0 $553 6.2831853071796004 $269 $554 forward 7 unknown #
vertex $-1 $272 $555 #
ellipse-curve $-1 41.755125845257432 4.4708598240249771 9.9227521904883158 0.52991927123019833 0 0.84804809178421925 0.21201202294605481 0 -0.13247981780754958 1 I I #
coedge $-1 $402 $402 $-1 $556 reversed $275 $-1 #
edge $-1 $557 0 $557 6.2831853071796004 $276 $558 forward 7 unknown #
vertex $-1 $279 $559 #
ellipse-curve $-1 41.755125845257432 7.1533757184399676 9.9227521904883158 0.52991927123019833 0 0.84804809178421925 0.21201202294605481 0 -0.13247981780754958 1 I I #
face $-1 $-1 $295 $42 $-1 $560 reversed single #
loop $-1 $-1 $422 $280 #
plane-surface $-1 0 32.074375631480486 0 0 -1 0 0 0 -1 forward_v I I I I #
coedge $-1 $561 $420 $423 $562 forward $281 $-1 #
coedge $-1 $426 $283 $284 $414 reversed $177 $-1 #
coedge $-1 $420 $561 $283 $412 reversed $281 $-1 #
edge $-1 $427 -14.995580616135202 $563 14.995580616135202 $411 $564 forward 7 unknown #
coedge $-1 $285 $284 $561 $565 forward $113 $-1 #
edge $-1 $418 -49.873348185674615 $563 49.873348185674615 $410 $566 forward 7 unknown #
coedge $-1 $423 $422 $285 $416 reversed $407 $-1 #
edge $-1 $567 -49.873348185674615 $417 49.873348185674615 $415 $568 forward 7 unknown #
vertex $-1 $287 $569 #
vertex $-1 $429 $570 #
straight-curve $-1 49.873348185674615 0 -14.995580616135202 0 -1 0 I I #
coedge $-1 $409 $411 $288 $421 reversed $281 $-1 #
edge $-1 $424 -32.074375631480486 $427 32.074375631480486 $420 $571 forward 7 unknown #
coedge $-1 $415 $289 $294 $430 forward $407 $-1 #
coedge $-1 $289 $415 $409 $562 reversed $407 $-1 #
vertex $-1 $290 $572 #
straight-curve $-1 0 32.074375631480486 14.995580616135202 -1 0 0 I I #
coedge $-1 $291 $410 $293 $429 reversed $177 $-1 #
vertex $-1 $421 $573 #
straight-curve $-1 0 -32.074375631480486 14.995580616135202 1 0 0 I I #
edge $-1 $296 -14.995580616135202 $418 14.995580616135202 $293 $574 forward 7 unknown #
edge $-1 $297 -14.995580616135202 $417 14.995580616135202 $294 $575 forward 7 unknown #
point $-1 49.873348185674615 -32.074375631480486 14.995580616135202 #
point $-1 49.873348185674615 32.074375631480486 14.995580616135202 #
face $-1 $-1 $449 $43 $-1 $576 reversed single #
loop $-1 $-1 $577 $299 #
plane-surface $-1 0 -42.912326607187374 -3.4018040740530253 0 1 0 0 0 1 forward_v I I I I #
coedge $-1 $578 $446 $448 $579 forward $300 $-1 #
coedge $-1 $302 $309 $580 $581 forward $185 $-1 #
coedge $-1 $582 $307 $302 $439 reversed $449 $-1 #
edge $-1 $583 -5.4189754878534444 $311 5.4189754878534444 $438 $584 forward 7 unknown #
coedge $-1 $304 $303 $577 $585 reversed $117 $-1 #
coedge $-1 $446 $578 $303 $442 forward $300 $-1 #
edge $-1 $586 -5.4189754878534444 $444 5.4189754878534444 $303 $587 forward 7 unknown #
edge $-1 $310 -5.4189754878534444 $588 5.4189754878534444 $304 $589 forward 7 unknown #
vertex $-1 $305 $590 #
straight-curve $-1 -49.873348185674615 -32.074375631480486 0 0 0 -1 I I #
coedge $-1 $436 $441 $306 $447 reversed $300 $-1 #
edge $-1 $450 -49.873348185674615 $444 49.873348185674615 $446 $591 forward 7 unknown #
coedge $-1 $307 $582 $436 $579 reversed $449 $-1 #
loop $-1 $-1 $307 $433 #
vertex $-1 $308 $592 #
straight-curve $-1 49.873348185674615 -32.074375631480486 0 0 0 1 I I #
point $-1 -49.873348185674615 -32.074375631480486 0.40793468613682116 #
point $-1 49.873348185674615 -32.074375631480486 0.40793468613682116 #
face $-1 $-1 $468 $44 $-1 $593 reversed single #
loop $-1 $-1 $594 $313 #
plane-surface $-1 0 42.912326607187374 -3.4018040740530253 0 -1 0 0 0 -1 forward_v I I I I #
coedge $-1 $464 $595 $317 $461 forward $314 $-1 #
coedge $-1 $323 $316 $596 $597 forward $193 $-1 #
edge $-1 $324 -5.4189754878534444 $598 5.4189754878534444 $318 $599 forward 7 unknown #
coedge $-1 $318 $317 $594 $600 reversed $121 $-1 #
edge $-1 $601 -5.4189754878534444 $462 5.4189754878534444 $317 $602 forward 7 unknown #
vertex $-1 $319 $603 #
straight-curve $-1 49.873348185674615 32.074375631480486 0 0 0 -1 I I #
coedge $-1 $604 $457 $320 $465 reversed $314 $-1 #
edge $-1 $469 -49.873348185674615 $462 49.873348185674615 $464 $605 forward 7 unknown #
coedge $-1 $606 $321 $323 $471 reversed $468 $-1 #
coedge $-1 $321 $606 $604 $607 reversed $468 $-1 #
loop $-1 $-1 $321 $454 #
vertex $-1 $322 $608 #
straight-curve $-1 -49.873348185674615 32.074375631480486 0 0 0 1 I I #
edge $-1 $609 -5.4189754878534444 $325 5.4189754878534444 $466 $610 forward 7 unknown #
point $-1 49.873348185674615 32.074375631480486 0.40793468613682116 #
point $-1 -49.873348185674615 32.074375631480486 0.40793468613682116 #
plane-surface $-1 0 0 14.995580616135202 0 0 1 1 0 0 forward_v I I I I #
coedge $-1 $485 $484 $477 $611 forward $328 $-1 #
coedge $-1 $477 $330 $332 $481 reversed $201 $-1 #
coedge $-1 $330 $476 $475 $611 reversed $201 $-1 #
coedge $-1 $338 $333 $330 $479 forward $339 $-1 #
edge $-1 $482 -12.629147099276977 $612 -2.2262984918662028 $478 $613 forward 7 unknown #
coedge $-1 $332 $331 $485 $614 reversed $125 $-1 #
edge $-1 $615 -1.6755591966779756e-014 $482 12.403974888944422 $476 $616 forward 7 unknown #
vertex $-1 $334 $617 #
straight-curve $-1 -39.470499578263841 -3.9656789501935119 14.9955806161352 0 1 0 I I #
coedge $-1 $475 $335 $338 $489 reversed $328 $-1 #
coedge $-1 $335 $475 $480 $614 forward $328 $-1 #
vertex $-1 $336 $618 #
straight-curve $-1 -49.873348185674615 -10.968393145079048 45.947254823980863 0 0 1 I I #
straight-curve $-1 -49.873348185674601 -10.968393145079048 8.2398916137568534 -0.83867056331134215 0 -0.54463904215088732 I I #
edge $-1 $612 4.8943226556949995 $340 10.968393145079048 $484 $619 forward 7 unknown #
point $-1 -49.873348185674615 -10.968393145079048 14.995580616135202 #
point $-1 -39.470499578263841 -10.968393145079048 14.995580616135202 #
edge $-1 $620 1 $620 0 $343 $-1 forward 7 unknown #
vertex $-1 $344 $621 #
ellipse-curve $-1 -44.055363298774409 -9.2329444338264643 10.668316092500556 -0.54463904215088732 0 0.83867056331134215 0.41933528165567108 0 0.27231952107544366 1 I I #
point $-1 -44.252588600313565 -9.2329444338264643 11.890055636021474 #
edge $-1 $622 1 $622 0 $347 $-1 forward 7 unknown #
vertex $-1 $348 $623 #
ellipse-curve $-1 -44.055363298774409 -6.6297713669475868 10.668316092500556 -0.54463904215088732 0 0.83867056331134215 0.41933528165567108 0 0.27231952107544366 1 I I #
point $-1 -44.252588600313565 -6.6297713669475868 11.890055636021474 #
loop $-1 $-1 $359 $351 #
plane-surface $-1 49.873348185674615 0 0 -1 0 0 0 0 1 forward_v I I I I #
coedge $-1 $503 $354 $356 $507 reversed $223 $-1 #
coedge $-1 $354 $502 $624 $625 reversed $223 $-1 #
coedge $-1 $362 $357 $354 $505 forward $352 $-1 #
edge $-1 $508 24.566378847391633 $626 40.802823528225986 $504 $627 forward 7 unknown #
coedge $-1 $356 $355 $511 $628 reversed $139 $-1 #
edge $-1 $629 -99.746696371349216 $508 -80.601031357618353 $502 $630 forward 7 unknown #
vertex $-1 $358 $631 #
straight-curve $-1 33.636903504840269 -8.3827824158743045 14.995580616135197 0 -1 0 I I #
coedge $-1 $624 $359 $362 $515 reversed $500 $-1 #
coedge $-1 $359 $624 $506 $628 forward $500 $-1 #
vertex $-1 $360 $632 #
straight-curve $-1 49.873348185674615 -12.294705007723628 71.148807966534648 0 0 1 I I #
straight-curve $-1 -34.716647333827993 -12.294705007723628 57.707620413566673 0.84804809178421925 0 -0.52991927123019833 I I #
edge $-1 $626 -21.23642465577359 $363 -12.294705007723628 $510 $633 forward 7 unknown #
point $-1 49.873348185674615 -12.294705007723628 14.995580616135202 #
point $-1 33.636903504840262 -12.294705007723628 14.9955806161352 #
edge $-1 $634 1 $634 0 $366 $-1 forward 7 unknown #
vertex $-1 $367 $635 #
ellipse-curve $-1 41.225206574027233 -19.448080726163596 9.0747040987040979 0.52991927123019833 0 0.84804809178421925 0.21201202294605481 0 -0.13247981780754958 1 I I #
point $-1 41.967137868203487 -19.448080726163596 9.7902723726807679 #
edge $-1 $636 1 $636 0 $370 $-1 forward 7 unknown #
vertex $-1 $371 $637 #
ellipse-curve $-1 41.225206574027233 -16.765564831748609 9.0747040987040979 0.52991927123019833 0 0.84804809178421925 0.21201202294605481 0 -0.13247981780754958 1 I I #
point $-1 41.967137868203487 -16.765564831748609 9.7902723726807679 #
edge $-1 $638 1 $638 0 $374 $-1 forward 7 unknown #
vertex $-1 $375 $639 #
ellipse-curve $-1 41.225206574027233 -14.083048937333619 9.0747040987040979 0.52991927123019833 0 0.84804809178421925 0.21201202294605481 0 -0.13247981780754958 1 I I #
point $-1 41.967137868203487 -14.083048937333619 9.7902723726807679 #
plane-surface $-1 0 0 14.995580616135202 0 0 1 1 0 0 forward_v I I I I #
coedge $-1 $541 $540 $533 $640 forward $379 $-1 #
coedge $-1 $533 $381 $383 $537 reversed $252 $-1 #
coedge $-1 $381 $532 $531 $640 reversed $252 $-1 #
coedge $-1 $389 $384 $381 $535 forward $390 $-1 #
edge $-1 $538 24.566378847391633 $641 40.802823528225986 $534 $642 forward 7 unknown #
coedge $-1 $383 $382 $541 $643 reversed $158 $-1 #
edge $-1 $644 -99.746696371349216 $538 -80.601031357618353 $532 $645 forward 7 unknown #
vertex $-1 $385 $646 #
straight-curve $-1 33.636903504840269 2.2354299120124885 14.995580616135197 0 -1 0 I I #
coedge $-1 $531 $386 $389 $545 reversed $379 $-1 #
coedge $-1 $386 $531 $536 $643 forward $379 $-1 #
vertex $-1 $387 $647 #
straight-curve $-1 49.873348185674615 8.9417196480499577 71.148807966534648 0 0 1 I I #
straight-curve $-1 -34.716647333827993 8.9417196480499577 57.707620413566673 0.84804809178421925 0 -0.52991927123019833 I I #
edge $-1 $641 -4.4408920985006262e-015 $391 8.9417196480499577 $540 $648 forward 7 unknown #
point $-1 49.873348185674615 8.9417196480499577 14.995580616135202 #
point $-1 33.636903504840262 8.9417196480499577 14.9955806161352 #
edge $-1 $649 1 $649 0 $394 $-1 forward 7 unknown #
vertex $-1 $395 $650 #
ellipse-curve $-1 41.225206574027233 1.7883439296099937 9.0747040987040979 0.52991927123019833 0 0.84804809178421925 0.21201202294605481 0 -0.13247981780754958 1 I I #
point $-1 41.967137868203487 1.7883439296099937 9.7902723726807679 #
edge $-1 $651 1 $651 0 $398 $-1 forward 7 unknown #
vertex $-1 $399 $652 #
ellipse-curve $-1 41.225206574027233 4.4708598240249771 9.0747040987040979 0.52991927123019833 0 0.84804809178421925 0.21201202294605481 0 -0.13247981780754958 1 I I #
point $-1 41.967137868203487 4.4708598240249771 9.7902723726807679 #
edge $-1 $653 1 $653 0 $402 $-1 forward 7 unknown #
vertex $-1 $403 $654 #
ellipse-curve $-1 41.225206574027233 7.1533757184399676 9.0747040987040979 0.52991927123019833 0 0.84804809178421925 0.21201202294605481 0 -0.13247981780754958 1 I I #
point $-1 41.967137868203487 7.1533757184399676 9.7902723726807679 #
plane-surface $-1 49.873348185674615 0 0 -1 0 0 0 0 1 forward_v I I I I #
coedge $-1 $411 $409 $413 $565 reversed $281 $-1 #
edge $-1 $424 -14.995580616135202 $567 14.995580616135202 $423 $655 forward 7 unknown #
vertex $-1 $565 $656 #
straight-curve $-1 -49.873348185674615 -32.074375631480486 0 0 0 -1 I I #
edge $-1 $563 -32.074375631480486 $567 32.074375631480486 $561 $657 forward 7 unknown #
straight-curve $-1 0 -32.074375631480486 -14.995580616135202 -1 0 0 I I #
vertex $-1 $416 $658 #
straight-curve $-1 0 32.074375631480486 -14.995580616135202 1 0 0 I I #
point $-1 49.873348185674615 32.074375631480486 -14.995580616135202 #
point $-1 49.873348185674615 -32.074375631480486 -14.995580616135202 #
straight-curve $-1 -49.873348185674615 0 14.995580616135202 0 -1 0 I I #
point $-1 -49.873348185674615 32.074375631480486 14.995580616135202 #
point $-1 -49.873348185674615 -32.074375631480486 14.995580616135202 #
straight-curve $-1 49.873348185674615 -32.074375631480486 0 0 0 -1 I I #
straight-curve $-1 49.873348185674615 32.074375631480486 0 0 0 -1 I I #
plane-surface $-1 49.873348185674615 0 0 -1 0 0 0 0 1 forward_v I I I I #
coedge $-1 $659 $580 $440 $585 forward $434 $-1 #
coedge $-1 $441 $436 $659 $660 forward $300 $-1 #
edge $-1 $450 -5.4189754878534444 $661 5.4189754878534444 $448 $662 forward 7 unknown #
coedge $-1 $577 $663 $437 $581 reversed $434 $-1 #
edge $-1 $588 -49.873348185674615 $583 49.873348185674615 $580 $664 forward 7 unknown #
coedge $-1 $448 $438 $663 $665 forward $449 $-1 #
vertex $-1 $439 $666 #
straight-curve $-1 49.873348185674615 -37.49335111933393 0.40793468613682116 0 1 0 I I #
edge $-1 $588 -3.8097387601898465 $586 3.8097387601898465 $440 $667 forward 7 unknown #
vertex $-1 $442 $668 #
straight-curve $-1 -49.873348185674615 -37.49335111933393 -7.2115428342428718 0 1 0 I I #
vertex $-1 $443 $669 #
straight-curve $-1 -49.873348185674615 -37.49335111933393 0.40793468613682116 0 -1 0 I I #
point $-1 -49.873348185674615 -32.074375631480486 -7.2115428342428718 #
straight-curve $-1 0 -32.074375631480486 -7.2115428342428718 -1 0 0 I I #
point $-1 49.873348185674615 -32.074375631480486 -7.2115428342428718 #
plane-surface $-1 -49.873348185674615 0 0 1 0 0 0 0 -1 forward_v I I I I #
coedge $-1 $670 $596 $460 $600 forward $455 $-1 #
coedge $-1 $457 $604 $670 $671 forward $314 $-1 #
coedge $-1 $594 $672 $458 $597 reversed $455 $-1 #
edge $-1 $598 -49.873348185674615 $609 49.873348185674615 $596 $673 forward 7 unknown #
vertex $-1 $459 $674 #
straight-curve $-1 49.873348185674615 37.49335111933393 0.40793468613682116 0 1 0 I I #
edge $-1 $598 -3.8097387601898465 $601 3.8097387601898465 $460 $675 forward 7 unknown #
vertex $-1 $461 $676 #
straight-curve $-1 49.873348185674615 37.49335111933393 -7.2115428342428718 0 -1 0 I I #
point $-1 49.873348185674615 32.074375631480486 -7.2115428342428718 #
coedge $-1 $595 $464 $467 $607 forward $314 $-1 #
straight-curve $-1 0 32.074375631480486 -7.2115428342428718 1 0 0 I I #
coedge $-1 $467 $466 $672 $677 forward $468 $-1 #
edge $-1 $469 -5.4189754878534444 $678 5.4189754878534444 $467 $679 forward 7 unknown #
point $-1 -49.873348185674615 32.074375631480486 -7.2115428342428718 #
vertex $-1 $597 $680 #
straight-curve $-1 -49.873348185674615 37.49335111933393 0.40793468613682116 0 -1 0 I I #
edge $-1 $612 30.951674207845663 $615 37.707363210224017 $475 $681 forward 7 unknown #
vertex $-1 $489 $682 #
straight-curve $-1 -52.099646677540818 -4.8943226556949995 14.9955806161352 -1 0 0 I I #
edge $-1 $615 0.92864370550148756 $486 7.0027141948855363 $485 $683 forward 7 unknown #
vertex $-1 $614 $684 #
straight-curve $-1 -49.873348185674601 -4.8943226556949995 8.2398916137568534 0.83867056331134215 0 0.54463904215088732 I I #
point $-1 -39.470499578263841 -4.8943226556949995 14.995580616135202 #
point $-1 -49.873348185674615 -10.968393145079048 8.2398916137568445 #
straight-curve $-1 -49.873348185674615 0 14.995580616135202 0 -1 0 I I #
vertex $-1 $492 $685 #
point $-1 -43.63602801711874 -9.2329444338264643 10.940635613575999 #
vertex $-1 $496 $686 #
point $-1 -43.63602801711874 -6.6297713669475868 10.940635613575999 #
coedge $-1 $511 $510 $503 $625 forward $500 $-1 #
edge $-1 $626 56.153227350399447 $629 66.298884201693227 $624 $687 forward 7 unknown #
vertex $-1 $515 $688 #
straight-curve $-1 9.0705246574486296 -21.23642465577359 14.9955806161352 1 0 0 I I #
edge $-1 $629 -12.853642239899285 $512 -3.9119225918493239 $511 $689 forward 7 unknown #
vertex $-1 $628 $690 #
straight-curve $-1 -34.716647333827993 -21.23642465577359 57.707620413566673 -0.84804809178421925 0 0.52991927123019833 I I #
point $-1 33.636903504840262 -21.23642465577359 14.9955806161352 #
point $-1 49.873348185674615 -12.294705007723628 4.849923764841428 #
straight-curve $-1 49.873348185674615 0 14.995580616135202 0 1 0 I I #
vertex $-1 $518 $691 #
point $-1 41.437218596973288 -19.448080726163596 8.9422242808965482 #
vertex $-1 $522 $692 #
point $-1 41.437218596973288 -16.765564831748609 8.9422242808965482 #
vertex $-1 $526 $693 #
point $-1 41.437218596973288 -14.083048937333619 8.9422242808965482 #
edge $-1 $641 56.153227350399447 $644 66.298884201693227 $531 $694 forward 7 unknown #
vertex $-1 $545 $695 #
straight-curve $-1 9.0705246574486296 -4.4408920985006262e-015 14.9955806161352 1 0 0 I I #
edge $-1 $644 -2.235429912012493 $542 6.7062897360374691 $541 $696 forward 7 unknown #
vertex $-1 $643 $697 #
straight-curve $-1 -34.716647333827993 -4.4408920985006262e-015 57.707620413566673 -0.84804809178421925 0 0.52991927123019833 I I #
point $-1 33.636903504840262 -4.4408920985006262e-015 14.9955806161352 #
point $-1 49.873348185674615 8.9417196480499577 4.849923764841428 #
straight-curve $-1 49.873348185674615 0 14.995580616135202 0 1 0 I I #
vertex $-1 $548 $698 #
point $-1 41.437218596973288 1.7883439296099937 8.9422242808965482 #
vertex $-1 $552 $699 #
point $-1 41.437218596973288 4.4708598240249771 8.9422242808965482 #
vertex $-1 $556 $700 #
point $-1 41.437218596973288 7.1533757184399676 8.9422242808965482 #
straight-curve $-1 -49.873348185674615 32.074375631480486 0 0 0 -1 I I #
point $-1 -49.873348185674615 -32.074375631480486 -14.995580616135202 #
straight-curve $-1 -49.873348185674615 0 -14.995580616135202 0 1 0 I I #
point $-1 -49.873348185674615 32.074375631480486 -14.995580616135202 #
coedge $-1 $663 $577 $578 $660 reversed $434 $-1 #
edge $-1 $661 -49.873348185674615 $586 49.873348185674615 $659 $701 forward 7 unknown #
vertex $-1 $665 $702 #
straight-curve $-1 49.873348185674615 -37.49335111933393 -7.2115428342428718 0 -1 0 I I #
coedge $-1 $580 $659 $582 $665 reversed $434 $-1 #
straight-curve $-1 0 -42.912326607187374 0.40793468613682116 1 0 0 I I #
edge $-1 $583 -3.8097387601898465 $661 3.8097387601898465 $582 $703 forward 7 unknown #
point $-1 49.873348185674615 -42.912326607187374 0.40793468613682116 #
straight-curve $-1 -49.873348185674615 -42.912326607187374 -3.4018040740530253 0 0 -1 I I #
point $-1 -49.873348185674615 -42.912326607187374 -7.2115428342428718 #
point $-1 -49.873348185674615 -42.912326607187374 0.40793468613682116 #
coedge $-1 $672 $594 $595 $671 reversed $455 $-1 #
edge $-1 $678 -49.873348185674615 $601 49.873348185674615 $670 $704 forward 7 unknown #
coedge $-1 $596 $670 $606 $677 reversed $455 $-1 #
straight-curve $-1 0 42.912326607187374 0.40793468613682116 -1 0 0 I I #
point $-1 49.873348185674615 42.912326607187374 0.40793468613682116 #
straight-curve $-1 49.873348185674615 42.912326607187374 -3.4018040740530253 0 0 -1 I I #
point $-1 49.873348185674615 42.912326607187374 -7.2115428342428718 #
edge $-1 $609 -3.8097387601898465 $678 3.8097387601898465 $672 $705 forward 7 unknown #
vertex $-1 $671 $706 #
straight-curve $-1 -49.873348185674615 37.49335111933393 -7.2115428342428718 0 1 0 I I #
point $-1 -49.873348185674615 42.912326607187374 0.40793468613682116 #
straight-curve $-1 -49.873348185674615 -4.8943226556949995 45.947254823980863 0 0 -1 I I #
point $-1 -49.873348185674615 -4.8943226556949995 14.995580616135202 #
straight-curve $-1 -49.873348185674615 -3.9656789501935119 8.2398916137568445 0 -1 0 I I #
point $-1 -49.873348185674615 -4.8943226556949995 8.2398916137568445 #
point $-1 -43.783043777698964 -9.2329444338264643 10.248980810844886 #
point $-1 -43.783043777698964 -6.6297713669475868 10.248980810844886 #
straight-curve $-1 49.873348185674615 -21.23642465577359 71.148807966534648 0 0 -1 I I #
point $-1 49.873348185674615 -21.23642465577359 14.995580616135202 #
straight-curve $-1 49.873348185674615 -8.3827824158743045 4.849923764841428 0 1 0 I I #
point $-1 49.873348185674615 -21.23642465577359 4.849923764841428 #
point $-1 41.092726756219683 -19.448080726163596 8.8626920757580425 #
point $-1 41.092726756219683 -16.765564831748609 8.8626920757580425 #
point $-1 41.092726756219683 -14.083048937333619 8.8626920757580425 #
straight-curve $-1 49.873348185674615 -4.4408920985006262e-015 71.148807966534648 0 0 -1 I I #
point $-1 49.873348185674615 -4.4408920985006262e-015 14.995580616135202 #
straight-curve $-1 49.873348185674615 2.2354299120124885 4.849923764841428 0 1 0 I I #
point $-1 49.873348185674615 -4.4408920985006262e-015 4.849923764841428 #
point $-1 41.092726756219683 1.7883439296099937 8.8626920757580425 #
point $-1 41.092726756219683 4.4708598240249771 8.8626920757580425 #
point $-1 41.092726756219683 7.1533757184399676 8.8626920757580425 #
straight-curve $-1 0 -42.912326607187374 -7.2115428342428718 -1 0 0 I I #
point $-1 49.873348185674615 -42.912326607187374 -7.2115428342428718 #
straight-curve $-1 49.873348185674615 -42.912326607187374 -3.4018040740530253 0 0 -1 I I #
straight-curve $-1 0 42.912326607187374 -7.2115428342428718 1 0 0 I I #
straight-curve $-1 -49.873348185674615 42.912326607187374 -3.4018040740530253 0 0 -1 I I #
point $-1 -49.873348185674615 42.912326607187374 -7.2115428342428718 #
End-of-ACIS-data 