500 0 18 0           
7 Unknown 11 ACIS 5.0 NT 24 Fri Mar 26 02:29:18 1999 
-1 9.9999999999999995e-007 1e-010 
body $-1 $18 $-1 $19 #
body $-1 $20 $-1 $21 #
body $-1 $22 $-1 $23 #
body $-1 $24 $-1 $25 #
body $-1 $26 $-1 $27 #
body $-1 $28 $-1 $29 #
body $-1 $30 $-1 $31 #
body $-1 $32 $-1 $33 #
body $-1 $34 $-1 $35 #
body $-1 $36 $-1 $37 #
body $-1 $38 $-1 $39 #
body $-1 $40 $-1 $41 #
body $-1 $42 $-1 $43 #
body $-1 $44 $-1 $45 #
body $-1 $46 $-1 $47 #
body $-1 $48 $-1 $49 #
body $-1 $50 $-1 $51 #
body $-1 $52 $-1 $53 #
lump $-1 $-1 $54 $0 #
transform $-1 1 0 0 0 1 0 0 0 1 75.895870845667901 47.302720516723639 13.784440355418175 1 rotate no_reflect no_shear #
lump $-1 $-1 $55 $1 #
transform $-1 1 0 0 0 1 0 0 0 1 75.895870845667901 47.302720516723639 13.784440355418175 1 rotate no_reflect no_shear #
lump $-1 $-1 $56 $2 #
transform $-1 1 0 0 0 1 0 0 0 1 75.895870845667901 47.302720516723639 13.784440355418175 1 rotate no_reflect no_shear #
lump $-1 $-1 $57 $3 #
transform $-1 1 0 0 0 1 0 0 0 1 75.895870845667901 47.302720516723639 13.784440355418175 1 rotate no_reflect no_shear #
lump $-1 $-1 $58 $4 #
transform $-1 1 0 0 0 1 0 0 0 1 75.895870845667901 47.302720516723639 13.784440355418175 1 rotate no_reflect no_shear #
lump $-1 $-1 $59 $5 #
transform $-1 1 0 0 0 1 0 0 0 1 75.895870845667901 47.302720516723639 13.784440355418175 1 rotate no_reflect no_shear #
lump $-1 $-1 $60 $6 #
transform $-1 1 0 0 0 1 0 0 0 1 75.895870845667901 47.302720516723639 13.784440355418175 1 rotate no_reflect no_shear #
lump $-1 $-1 $61 $7 #
transform $-1 1 0 0 0 1 0 0 0 1 75.895870845667901 47.302720516723639 13.784440355418175 1 rotate no_reflect no_shear #
lump $-1 $-1 $62 $8 #
transform $-1 1 0 0 0 1 0 0 0 1 75.895870845667901 47.302720516723639 13.784440355418175 1 rotate no_reflect no_shear #
lump $-1 $-1 $63 $9 #
transform $-1 1 0 0 0 1 0 0 0 1 75.895870845667901 47.302720516723639 13.784440355418175 1 rotate no_reflect no_shear #
lump $-1 $-1 $64 $10 #
transform $-1 1 0 0 0 1 0 0 0 1 75.895870845667901 47.302720516723639 13.784440355418175 1 rotate no_reflect no_shear #
lump $-1 $-1 $65 $11 #
transform $-1 1 0 0 0 1 0 0 0 1 75.895870845667901 47.302720516723639 13.784440355418175 1 rotate no_reflect no_shear #
lump $-1 $-1 $66 $12 #
transform $-1 1 0 0 0 1 0 0 0 1 75.895870845667901 47.302720516723639 13.784440355418175 1 rotate no_reflect no_shear #
lump $-1 $-1 $67 $13 #
transform $-1 1 0 0 0 1 0 0 0 1 75.895870845667901 47.302720516723639 13.784440355418175 1 rotate no_reflect no_shear #
lump $-1 $-1 $68 $14 #
transform $-1 1 0 0 0 1 0 0 0 1 75.895870845667901 47.302720516723639 13.784440355418175 1 rotate no_reflect no_shear #
lump $-1 $-1 $69 $15 #
transform $-1 1 0 0 0 1 0 0 0 1 75.895870845667901 47.302720516723639 13.784440355418175 1 rotate no_reflect no_shear #
lump $-1 $-1 $70 $16 #
transform $-1 1 0 0 0 1 0 0 0 1 75.895870845667901 47.302720516723639 13.784440355418175 1 rotate no_reflect no_shear #
lump $-1 $-1 $71 $17 #
transform $-1 1 0 0 0 1 0 0 0 1 75.895870845667901 47.302720516723639 13.784440355418175 1 rotate no_reflect no_shear #
shell $-1 $-1 $-1 $72 $-1 $18 #
shell $-1 $-1 $-1 $73 $-1 $20 #
shell $-1 $-1 $-1 $74 $-1 $22 #
shell $-1 $-1 $-1 $75 $-1 $24 #
shell $-1 $-1 $-1 $76 $-1 $26 #
shell $-1 $-1 $-1 $77 $-1 $28 #
shell $-1 $-1 $-1 $78 $-1 $30 #
shell $-1 $-1 $-1 $79 $-1 $32 #
shell $-1 $-1 $-1 $80 $-1 $34 #
shell $-1 $-1 $-1 $81 $-1 $36 #
shell $-1 $-1 $-1 $82 $-1 $38 #
shell $-1 $-1 $-1 $83 $-1 $40 #
shell $-1 $-1 $-1 $84 $-1 $42 #
shell $-1 $-1 $-1 $85 $-1 $44 #
shell $-1 $-1 $-1 $86 $-1 $46 #
shell $-1 $-1 $-1 $87 $-1 $48 #
shell $-1 $-1 $-1 $88 $-1 $50 #
shell $-1 $-1 $-1 $89 $-1 $52 #
face $-1 $90 $91 $54 $-1 $92 forward single #
face $-1 $93 $94 $55 $-1 $95 forward single #
face $-1 $96 $97 $56 $-1 $98 reversed single #
face $-1 $99 $100 $57 $-1 $101 forward single #
face $-1 $102 $103 $58 $-1 $104 forward single #
face $-1 $105 $106 $59 $-1 $107 forward single #
face $-1 $108 $109 $60 $-1 $110 reversed single #
face $-1 $111 $112 $61 $-1 $113 forward single #
face $-1 $114 $115 $62 $-1 $116 forward single #
face $-1 $117 $118 $63 $-1 $119 forward single #
face $-1 $120 $121 $64 $-1 $122 reversed single #
face $-1 $123 $124 $65 $-1 $125 forward single #
face $-1 $126 $127 $66 $-1 $128 forward single #
face $-1 $129 $130 $67 $-1 $131 forward single #
face $-1 $132 $133 $68 $-1 $134 reversed single #
face $-1 $135 $136 $69 $-1 $137 forward single #
face $-1 $138 $139 $70 $-1 $140 forward single #
face $-1 $141 $142 $71 $-1 $143 forward single #
face $-1 $144 $145 $54 $-1 $146 reversed single #
loop $-1 $-1 $147 $72 #
plane-surface $-1 0 0 13.784440355418175 0 0 1 1 0 0 forward_v I I I I #
face $-1 $148 $149 $55 $-1 $150 reversed single #
loop $-1 $-1 $151 $73 #
plane-surface $-1 0 -40.83502172625974 -7.7280704094111154 0 0 1 1 0 0 forward_v I I I I #
face $-1 $152 $153 $56 $-1 $154 reversed single #
loop $-1 $-1 $155 $74 #
plane-surface $-1 23.96348144401334 6.4676987904638956 218.38700072360038 0 -1 0 -0.51503808176128008 0 -0.85716729658548041 forward_v I I I I #
face $-1 $156 $157 $57 $-1 $158 forward single #
loop $-1 $159 $160 $75 #
cone-surface $-1 72.357171174410269 -9.1760015033418085 11.157626934158149 -0.51503808176128008 0 -0.85716729658548041 1.2857509448782207 0 -0.77255712264192011 1 I I 0 1 1.5 forward I I I I #
face $-1 $161 $162 $58 $-1 $163 forward single #
loop $-1 $164 $165 $76 #
cone-surface $-1 72.357171174410269 -3.3096138931646735 11.157626934158149 -0.51503808176128008 0 -0.85716729658548041 1.2857509448782207 0 -0.77255712264192011 1 I I 0 1 1.5 forward I I I I #
face $-1 $166 $167 $59 $-1 $168 forward single #
loop $-1 $169 $170 $77 #
cone-surface $-1 72.357171174410269 2.5567737170124616 11.157626934158149 -0.51503808176128008 0 -0.85716729658548041 1.2857509448782207 0 -0.77255712264192011 1 I I 0 1 1.5 forward I I I I #
face $-1 $171 $172 $60 $-1 $173 reversed single #
loop $-1 $-1 $174 $78 #
plane-surface $-1 23.96348144401334 27.748095149466511 218.38700072360038 0 1 0 0.51503808176128008 0 0.85716729658548041 forward_v I I I I #
face $-1 $175 $176 $61 $-1 $177 forward single #
loop $-1 $178 $179 $79 #
cone-surface $-1 72.357171174410269 31.659020222917931 11.157626934158149 -0.51503808176128008 0 -0.85716729658548041 1.2857509448782207 0 -0.77255712264192011 1 I I 0 1 1.5 forward I I I I #
face $-1 $180 $181 $62 $-1 $182 forward single #
loop $-1 $183 $184 $80 #
cone-surface $-1 72.357171174410269 37.525407833095073 11.157626934158149 -0.51503808176128008 0 -0.85716729658548041 1.2857509448782207 0 -0.77255712264192011 1 I I 0 1 1.5 forward I I I I #
face $-1 $185 $186 $63 $-1 $187 forward single #
loop $-1 $188 $189 $81 #
cone-surface $-1 72.357171174410269 43.391795443272201 11.157626934158149 -0.51503808176128008 0 -0.85716729658548041 1.2857509448782207 0 -0.77255712264192011 1 I I 0 1 1.5 forward I I I I #
face $-1 $190 $191 $64 $-1 $192 reversed single #
loop $-1 $-1 $193 $82 #
plane-surface $-1 -154.07439831357721 -13.086926576793228 140.20847325569108 0 1 0 -0.51503808176128008 0 0.85716729658548041 forward_v I I I I #
face $-1 $194 $195 $65 $-1 $196 forward single #
loop $-1 $197 $198 $83 #
cone-surface $-1 -72.357171174410297 -9.1760015033418085 11.157626934158134 0.51503808176128008 0 -0.85716729658548041 1.2857509448782207 0 0.77255712264192011 1 I I 0 1 1.5 forward I I I I #
face $-1 $199 $200 $66 $-1 $201 forward single #
loop $-1 $202 $203 $84 #
cone-surface $-1 -72.357171174410297 -3.3096138931646735 11.157626934158134 0.51503808176128008 0 -0.85716729658548041 1.2857509448782207 0 0.77255712264192011 1 I I 0 1 1.5 forward I I I I #
face $-1 $204 $205 $67 $-1 $206 forward single #
loop $-1 $207 $208 $85 #
cone-surface $-1 -72.357171174410297 2.5567737170124616 11.157626934158134 0.51503808176128008 0 -0.85716729658548041 1.2857509448782207 0 0.77255712264192011 1 I I 0 1 1.5 forward I I I I #
face $-1 $209 $210 $68 $-1 $211 reversed single #
loop $-1 $-1 $212 $86 #
plane-surface $-1 -154.07439831357721 27.748095149466511 140.20847325569108 0 1 0 -0.51503808176128008 0 0.85716729658548041 forward_v I I I I #
face $-1 $213 $214 $69 $-1 $215 forward single #
loop $-1 $216 $217 $87 #
cone-surface $-1 -72.357171174410297 31.659020222917931 11.157626934158134 0.51503808176128008 0 -0.85716729658548041 1.2857509448782207 0 0.77255712264192011 1 I I 0 1 1.5 forward I I I I #
face $-1 $218 $219 $70 $-1 $220 forward single #
loop $-1 $221 $222 $88 #
cone-surface $-1 -72.357171174410297 37.525407833095073 11.157626934158134 0.51503808176128008 0 -0.85716729658548041 1.2857509448782207 0 0.77255712264192011 1 I I 0 1 1.5 forward I I I I #
face $-1 $223 $224 $71 $-1 $225 forward single #
loop $-1 $226 $227 $89 #
cone-surface $-1 -72.357171174410297 43.391795443272201 11.157626934158134 0.51503808176128008 0 -0.85716729658548041 1.2857509448782207 0 0.77255712264192011 1 I I 0 1 1.5 forward I I I I #
face $-1 $228 $229 $54 $-1 $230 reversed single #
loop $-1 $-1 $231 $90 #
plane-surface $-1 0 0 -13.784440355418175 0 0 1 1 0 0 forward_v I I I I #
coedge $-1 $232 $233 $234 $235 forward $91 $-1 #
face $-1 $236 $237 $55 $-1 $238 reversed single #
loop $-1 $-1 $239 $93 #
plane-surface $-1 0 -34.367322935795841 -10.756255382414645 0 -1 0 0 0 -1 forward_v I I I I #
coedge $-1 $240 $241 $242 $243 reversed $94 $-1 #
face $-1 $244 $245 $56 $-1 $246 reversed single #
loop $-1 $-1 $247 $96 #
plane-surface $-1 -54.215046023895979 -3.3096138931646664 88.2760838540365 0.51503808176128008 0 0.85716729658548041 0.85716729658548041 0 -0.51503808176128008 forward_v I I I I #
coedge $-1 $248 $249 $250 $251 reversed $97 $-1 #
face $-1 $-1 $252 $57 $-1 $253 forward single #
loop $-1 $254 $255 $99 #
cone-surface $-1 71.500195558234623 -9.1760015033418085 9.7313800251044942 -0.51503808176128008 0 -0.85716729658548041 0.64287547243911036 0 -0.38627856132096006 1 I I -0.70710678118654757 0.70710678118654757 0.75 forward I I I I #
loop $-1 $-1 $256 $75 #
coedge $-1 $160 $160 $257 $258 reversed $100 $-1 #
face $-1 $-1 $259 $58 $-1 $260 forward single #
loop $-1 $261 $262 $102 #
cone-surface $-1 71.500195558234623 -3.3096138931646735 9.7313800251044942 -0.51503808176128008 0 -0.85716729658548041 0.64287547243911036 0 -0.38627856132096006 1 I I -0.70710678118654757 0.70710678118654757 0.75 forward I I I I #
loop $-1 $-1 $263 $76 #
coedge $-1 $165 $165 $264 $265 reversed $103 $-1 #
face $-1 $-1 $266 $59 $-1 $267 forward single #
loop $-1 $268 $269 $105 #
cone-surface $-1 71.500195558234623 2.5567737170124616 9.7313800251044942 -0.51503808176128008 0 -0.85716729658548041 0.64287547243911036 0 -0.38627856132096006 1 I I -0.70710678118654757 0.70710678118654757 0.75 forward I I I I #
loop $-1 $-1 $270 $77 #
coedge $-1 $170 $170 $271 $272 reversed $106 $-1 #
face $-1 $273 $274 $60 $-1 $275 reversed single #
loop $-1 $-1 $276 $108 #
plane-surface $-1 -54.215046023895979 37.525407833095073 88.2760838540365 0.51503808176128008 0 0.85716729658548041 0.85716729658548041 0 -0.51503808176128008 forward_v I I I I #
coedge $-1 $277 $278 $279 $280 reversed $109 $-1 #
face $-1 $-1 $281 $61 $-1 $282 forward single #
loop $-1 $283 $284 $111 #
cone-surface $-1 71.500195558234623 31.659020222917931 9.7313800251044942 -0.51503808176128008 0 -0.85716729658548041 0.64287547243911036 0 -0.38627856132096006 1 I I -0.70710678118654757 0.70710678118654757 0.75 forward I I I I #
loop $-1 $-1 $285 $79 #
coedge $-1 $179 $179 $286 $287 reversed $112 $-1 #
face $-1 $-1 $288 $62 $-1 $289 forward single #
loop $-1 $290 $291 $114 #
cone-surface $-1 71.500195558234623 37.525407833095073 9.7313800251044942 -0.51503808176128008 0 -0.85716729658548041 0.64287547243911036 0 -0.38627856132096006 1 I I -0.70710678118654757 0.70710678118654757 0.75 forward I I I I #
loop $-1 $-1 $292 $80 #
coedge $-1 $184 $184 $293 $294 reversed $115 $-1 #
face $-1 $-1 $295 $63 $-1 $296 forward single #
loop $-1 $297 $298 $117 #
cone-surface $-1 71.500195558234623 43.391795443272201 9.7313800251044942 -0.51503808176128008 0 -0.85716729658548041 0.64287547243911036 0 -0.38627856132096006 1 I I -0.70710678118654757 0.70710678118654757 0.75 forward I I I I #
loop $-1 $-1 $299 $81 #
coedge $-1 $189 $189 $300 $301 reversed $118 $-1 #
face $-1 $302 $303 $64 $-1 $304 reversed single #
loop $-1 $-1 $305 $120 #
plane-surface $-1 -75.895870845667886 -3.3096138931646664 10.097556386127195 -0.51503808176128008 0 0.85716729658548041 0.85716729658548041 0 0.51503808176128008 forward_v I I I I #
coedge $-1 $306 $307 $308 $309 reversed $121 $-1 #
face $-1 $-1 $310 $65 $-1 $311 forward single #
loop $-1 $312 $313 $123 #
cone-surface $-1 -71.500195558234651 -9.1760015033418085 9.73138002510448 0.51503808176128008 0 -0.85716729658548041 0.64287547243911036 0 0.38627856132096006 1 I I -0.70710678118654757 0.70710678118654757 0.75 forward I I I I #
loop $-1 $-1 $314 $83 #
coedge $-1 $198 $198 $315 $316 reversed $124 $-1 #
face $-1 $-1 $317 $66 $-1 $318 forward single #
loop $-1 $319 $320 $126 #
cone-surface $-1 -71.500195558234651 -3.3096138931646735 9.73138002510448 0.51503808176128008 0 -0.85716729658548041 0.64287547243911036 0 0.38627856132096006 1 I I -0.70710678118654757 0.70710678118654757 0.75 forward I I I I #
loop $-1 $-1 $321 $84 #
coedge $-1 $203 $203 $322 $323 reversed $127 $-1 #
face $-1 $-1 $324 $67 $-1 $325 forward single #
loop $-1 $326 $327 $129 #
cone-surface $-1 -71.500195558234651 2.5567737170124616 9.73138002510448 0.51503808176128008 0 -0.85716729658548041 0.64287547243911036 0 0.38627856132096006 1 I I -0.70710678118654757 0.70710678118654757 0.75 forward I I I I #
loop $-1 $-1 $328 $85 #
coedge $-1 $208 $208 $329 $330 reversed $130 $-1 #
face $-1 $331 $332 $68 $-1 $333 forward single #
loop $-1 $-1 $334 $132 #
plane-surface $-1 -75.895870845667886 37.525407833095073 10.097556386127195 -0.51503808176128008 0 0.85716729658548041 0.85716729658548041 0 0.51503808176128008 forward_v I I I I #
coedge $-1 $335 $336 $337 $338 reversed $133 $-1 #
face $-1 $-1 $339 $69 $-1 $340 forward single #
loop $-1 $341 $342 $135 #
cone-surface $-1 -71.500195558234651 31.659020222917931 9.73138002510448 0.51503808176128008 0 -0.85716729658548041 0.64287547243911036 0 0.38627856132096006 1 I I -0.70710678118654757 0.70710678118654757 0.75 forward I I I I #
loop $-1 $-1 $343 $87 #
coedge $-1 $217 $217 $344 $345 reversed $136 $-1 #
face $-1 $-1 $346 $70 $-1 $347 forward single #
loop $-1 $348 $349 $138 #
cone-surface $-1 -71.500195558234651 37.525407833095073 9.73138002510448 0.51503808176128008 0 -0.85716729658548041 0.64287547243911036 0 0.38627856132096006 1 I I -0.70710678118654757 0.70710678118654757 0.75 forward I I I I #
loop $-1 $-1 $350 $88 #
coedge $-1 $222 $222 $351 $352 reversed $139 $-1 #
face $-1 $-1 $353 $71 $-1 $354 forward single #
loop $-1 $355 $356 $141 #
cone-surface $-1 -71.500195558234651 43.391795443272201 9.73138002510448 0.51503808176128008 0 -0.85716729658548041 0.64287547243911036 0 0.38627856132096006 1 I I -0.70710678118654757 0.70710678118654757 0.75 forward I I I I #
loop $-1 $-1 $357 $89 #
coedge $-1 $227 $227 $358 $359 reversed $142 $-1 #
face $-1 $360 $361 $54 $-1 $362 reversed single #
loop $-1 $-1 $363 $144 #
plane-surface $-1 0 -47.302720516723639 0 0 1 0 0 0 1 forward_v I I I I #
coedge $-1 $364 $365 $366 $367 forward $145 $-1 #
coedge $-1 $368 $147 $369 $370 forward $91 $-1 #
coedge $-1 $147 $368 $371 $372 forward $91 $-1 #
coedge $-1 $373 $374 $147 $235 reversed $375 $-1 #
edge $-1 $376 -47.302720516723639 $377 47.302720516723639 $234 $378 forward 7 unknown #
face $-1 $379 $380 $55 $-1 $381 reversed single #
loop $-1 $-1 $382 $148 #
plane-surface $-1 0 0 -13.784440355418175 0 0 1 1 0 0 forward_v I I I I #
coedge $-1 $383 $384 $385 $386 reversed $149 $-1 #
coedge $-1 $387 $151 $384 $388 forward $94 $-1 #
coedge $-1 $151 $387 $389 $390 reversed $94 $-1 #
coedge $-1 $391 $385 $151 $243 forward $380 $-1 #
edge $-1 $392 13.949812072665971 $393 26.885209653593769 $242 $394 forward 7 unknown #
face $-1 $395 $396 $56 $-1 $397 reversed single #
loop $-1 $-1 $398 $152 #
plane-surface $-1 23.96348144401334 -13.086926576793228 218.38700072360038 0 1 0 0.51503808176128008 0 0.85716729658548041 forward_v I I I I #
coedge $-1 $399 $400 $401 $402 reversed $153 $-1 #
coedge $-1 $249 $155 $403 $404 reversed $97 $-1 #
coedge $-1 $155 $248 $399 $405 reversed $97 $-1 #
coedge $-1 $401 $406 $155 $251 forward $407 $-1 #
edge $-1 $408 -63.914130123661231 $409 -57.778124890855374 $250 $410 forward 7 unknown #
loop $-1 $-1 $257 $156 #
plane-surface $-1 -54.215046023895979 -3.3096138931646664 88.2760838540365 0.51503808176128008 0 0.85716729658548041 0.85716729658548041 0 -0.51503808176128008 forward_v I I I I #
loop $-1 $-1 $411 $99 #
coedge $-1 $255 $255 $256 $412 reversed $157 $-1 #
coedge $-1 $256 $256 $255 $412 forward $159 $-1 #
coedge $-1 $257 $257 $160 $258 forward $252 $-1 #
edge $-1 $413 0 $413 6.2831853071796004 $257 $414 forward 7 unknown #
loop $-1 $-1 $264 $161 #
plane-surface $-1 -54.215046023895979 -3.3096138931646664 88.2760838540365 0.51503808176128008 0 0.85716729658548041 0.85716729658548041 0 -0.51503808176128008 forward_v I I I I #
loop $-1 $-1 $415 $102 #
coedge $-1 $262 $262 $263 $416 reversed $162 $-1 #
coedge $-1 $263 $263 $262 $416 forward $164 $-1 #
coedge $-1 $264 $264 $165 $265 forward $259 $-1 #
edge $-1 $417 0 $417 6.2831853071796004 $264 $418 forward 7 unknown #
loop $-1 $-1 $271 $166 #
plane-surface $-1 -54.215046023895979 -3.3096138931646664 88.2760838540365 0.51503808176128008 0 0.85716729658548041 0.85716729658548041 0 -0.51503808176128008 forward_v I I I I #
loop $-1 $-1 $419 $105 #
coedge $-1 $269 $269 $270 $420 reversed $167 $-1 #
coedge $-1 $270 $270 $269 $420 forward $169 $-1 #
coedge $-1 $271 $271 $170 $272 forward $266 $-1 #
edge $-1 $421 0 $421 6.2831853071796004 $271 $422 forward 7 unknown #
face $-1 $423 $424 $60 $-1 $425 forward single #
loop $-1 $-1 $279 $171 #
plane-surface $-1 75.895870845667901 0 0 -1 0 0 0 0 1 forward_v I I I I #
coedge $-1 $426 $427 $428 $429 reversed $172 $-1 #
coedge $-1 $278 $174 $430 $431 reversed $109 $-1 #
coedge $-1 $174 $277 $426 $432 reversed $109 $-1 #
coedge $-1 $428 $433 $174 $280 forward $274 $-1 #
edge $-1 $434 95.40906000638202 $435 99.095943975673023 $279 $436 forward 7 unknown #
loop $-1 $-1 $286 $175 #
plane-surface $-1 -54.215046023895979 37.525407833095073 88.2760838540365 0.51503808176128008 0 0.85716729658548041 0.85716729658548041 0 -0.51503808176128008 forward_v I I I I #
loop $-1 $-1 $437 $111 #
coedge $-1 $284 $284 $285 $438 reversed $176 $-1 #
coedge $-1 $285 $285 $284 $438 forward $178 $-1 #
coedge $-1 $286 $286 $179 $287 forward $281 $-1 #
edge $-1 $439 0 $439 6.2831853071796004 $286 $440 forward 7 unknown #
loop $-1 $-1 $293 $180 #
plane-surface $-1 -54.215046023895979 37.525407833095073 88.2760838540365 0.51503808176128008 0 0.85716729658548041 0.85716729658548041 0 -0.51503808176128008 forward_v I I I I #
loop $-1 $-1 $441 $114 #
coedge $-1 $291 $291 $292 $442 reversed $181 $-1 #
coedge $-1 $292 $292 $291 $442 forward $183 $-1 #
coedge $-1 $293 $293 $184 $294 forward $288 $-1 #
edge $-1 $443 0 $443 6.2831853071796004 $293 $444 forward 7 unknown #
loop $-1 $-1 $300 $185 #
plane-surface $-1 -54.215046023895979 37.525407833095073 88.2760838540365 0.51503808176128008 0 0.85716729658548041 0.85716729658548041 0 -0.51503808176128008 forward_v I I I I #
loop $-1 $-1 $445 $117 #
coedge $-1 $298 $298 $299 $446 reversed $186 $-1 #
coedge $-1 $299 $299 $298 $446 forward $188 $-1 #
coedge $-1 $300 $300 $189 $301 forward $295 $-1 #
edge $-1 $447 0 $447 6.2831853071796004 $300 $448 forward 7 unknown #
face $-1 $449 $450 $64 $-1 $451 reversed single #
loop $-1 $-1 $452 $190 #
plane-surface $-1 -154.07439831357721 6.4676987904638956 140.20847325569108 0 -1 0 0.51503808176128008 0 -0.85716729658548041 forward_v I I I I #
coedge $-1 $453 $454 $455 $456 reversed $191 $-1 #
coedge $-1 $307 $193 $457 $458 reversed $121 $-1 #
coedge $-1 $193 $306 $453 $459 reversed $121 $-1 #
coedge $-1 $455 $460 $193 $309 forward $461 $-1 #
edge $-1 $462 1.1413283111207022 $463 7.2773335439265452 $308 $464 forward 7 unknown #
loop $-1 $-1 $315 $194 #
plane-surface $-1 -75.895870845667886 -3.3096138931646664 10.097556386127195 -0.51503808176128008 0 0.85716729658548041 0.85716729658548041 0 0.51503808176128008 forward_v I I I I #
loop $-1 $-1 $465 $123 #
coedge $-1 $313 $313 $314 $466 reversed $195 $-1 #
coedge $-1 $314 $314 $313 $466 forward $197 $-1 #
coedge $-1 $315 $315 $198 $316 forward $310 $-1 #
edge $-1 $467 0 $467 6.2831853071796004 $315 $468 forward 7 unknown #
loop $-1 $-1 $322 $199 #
plane-surface $-1 -75.895870845667886 -3.3096138931646664 10.097556386127195 -0.51503808176128008 0 0.85716729658548041 0.85716729658548041 0 0.51503808176128008 forward_v I I I I #
loop $-1 $-1 $469 $126 #
coedge $-1 $320 $320 $321 $470 reversed $200 $-1 #
coedge $-1 $321 $321 $320 $470 forward $202 $-1 #
coedge $-1 $322 $322 $203 $323 forward $317 $-1 #
edge $-1 $471 0 $471 6.2831853071796004 $322 $472 forward 7 unknown #
loop $-1 $-1 $329 $204 #
plane-surface $-1 -75.895870845667886 -3.3096138931646664 10.097556386127195 -0.51503808176128008 0 0.85716729658548041 0.85716729658548041 0 0.51503808176128008 forward_v I I I I #
loop $-1 $-1 $473 $129 #
coedge $-1 $327 $327 $328 $474 reversed $205 $-1 #
coedge $-1 $328 $328 $327 $474 forward $207 $-1 #
coedge $-1 $329 $329 $208 $330 forward $324 $-1 #
edge $-1 $475 0 $475 6.2831853071796004 $329 $476 forward 7 unknown #
face $-1 $477 $478 $68 $-1 $479 reversed single #
loop $-1 $-1 $337 $209 #
plane-surface $-1 0 0 13.784440355418175 0 0 1 1 0 0 forward_v I I I I #
coedge $-1 $480 $481 $482 $483 reversed $210 $-1 #
coedge $-1 $336 $212 $484 $485 reversed $133 $-1 #
coedge $-1 $212 $335 $480 $486 reversed $133 $-1 #
coedge $-1 $482 $487 $212 $338 forward $332 $-1 #
edge $-1 $488 1.1413283111207022 $489 7.2773335439265452 $337 $490 forward 7 unknown #
loop $-1 $-1 $344 $213 #
plane-surface $-1 -75.895870845667886 37.525407833095073 10.097556386127195 -0.51503808176128008 0 0.85716729658548041 0.85716729658548041 0 0.51503808176128008 forward_v I I I I #
loop $-1 $-1 $491 $135 #
coedge $-1 $342 $342 $343 $492 reversed $214 $-1 #
coedge $-1 $343 $343 $342 $492 forward $216 $-1 #
coedge $-1 $344 $344 $217 $345 forward $339 $-1 #
edge $-1 $493 0 $493 6.2831853071796004 $344 $494 forward 7 unknown #
loop $-1 $-1 $351 $218 #
plane-surface $-1 -75.895870845667886 37.525407833095073 10.097556386127195 -0.51503808176128008 0 0.85716729658548041 0.85716729658548041 0 0.51503808176128008 forward_v I I I I #
loop $-1 $-1 $495 $138 #
coedge $-1 $349 $349 $350 $496 reversed $219 $-1 #
coedge $-1 $350 $350 $349 $496 forward $221 $-1 #
coedge $-1 $351 $351 $222 $352 forward $346 $-1 #
edge $-1 $497 0 $497 6.2831853071796004 $351 $498 forward 7 unknown #
loop $-1 $-1 $358 $223 #
plane-surface $-1 -75.895870845667886 37.525407833095073 10.097556386127195 -0.51503808176128008 0 0.85716729658548041 0.85716729658548041 0 0.51503808176128008 forward_v I I I I #
loop $-1 $-1 $499 $141 #
coedge $-1 $356 $356 $357 $500 reversed $224 $-1 #
coedge $-1 $357 $357 $356 $500 forward $226 $-1 #
coedge $-1 $358 $358 $227 $359 forward $353 $-1 #
edge $-1 $501 0 $501 6.2831853071796004 $358 $502 forward 7 unknown #
face $-1 $503 $504 $54 $-1 $505 reversed single #
loop $-1 $-1 $506 $228 #
plane-surface $-1 -75.895870845667901 0 0 1 0 0 0 0 -1 forward_v I I I I #
coedge $-1 $507 $371 $508 $509 forward $229 $-1 #
coedge $-1 $510 $231 $507 $511 forward $145 $-1 #
coedge $-1 $231 $510 $512 $513 forward $145 $-1 #
coedge $-1 $374 $373 $231 $367 reversed $375 $-1 #
edge $-1 $514 -47.302720516723639 $515 47.302720516723639 $366 $516 forward 7 unknown #
coedge $-1 $233 $232 $517 $518 forward $91 $-1 #
coedge $-1 $519 $520 $232 $370 reversed $504 $-1 #
edge $-1 $377 -75.895870845667901 $521 75.895870845667901 $369 $522 forward 7 unknown #
coedge $-1 $363 $523 $233 $372 reversed $229 $-1 #
edge $-1 $524 -75.895870845667901 $376 75.895870845667901 $371 $525 forward 7 unknown #
coedge $-1 $366 $234 $523 $526 forward $375 $-1 #
coedge $-1 $234 $366 $519 $527 reversed $375 $-1 #
loop $-1 $-1 $373 $503 #
vertex $-1 $235 $528 #
vertex $-1 $235 $529 #
straight-curve $-1 75.895870845667901 0 13.784440355418175 0 1 0 I I #
face $-1 $530 $531 $55 $-1 $532 reversed single #
loop $-1 $-1 $385 $236 #
plane-surface $-1 75.895870845667901 0 0 -1 0 0 0 0 1 forward_v I I I I #
coedge $-1 $533 $534 $383 $535 forward $237 $-1 #
coedge $-1 $536 $239 $382 $535 reversed $149 $-1 #
coedge $-1 $239 $536 $240 $388 reversed $149 $-1 #
coedge $-1 $242 $537 $239 $386 forward $380 $-1 #
edge $-1 $538 -8.4063126642108514 $392 -2.3499427182037929 $385 $539 forward 7 unknown #
coedge $-1 $241 $240 $540 $541 reversed $94 $-1 #
edge $-1 $392 -75.895870845667901 $542 75.895870845667901 $384 $543 forward 7 unknown #
coedge $-1 $544 $545 $241 $390 forward $531 $-1 #
edge $-1 $393 -75.895870845667901 $546 75.895870845667901 $389 $547 forward 7 unknown #
coedge $-1 $537 $242 $545 $548 forward $380 $-1 #
vertex $-1 $243 $549 #
vertex $-1 $548 $550 #
straight-curve $-1 75.895870845667901 -20.41751086312987 -7.7280704094111154 0 -1 0 I I #
face $-1 $-1 $407 $56 $-1 $551 forward single #
loop $-1 $-1 $552 $244 #
plane-surface $-1 75.895870845667901 0 0 -1 0 0 0 0 1 forward_v I I I I #
coedge $-1 $553 $554 $555 $556 reversed $245 $-1 #
coedge $-1 $557 $247 $249 $405 forward $153 $-1 #
coedge $-1 $247 $557 $553 $558 forward $153 $-1 #
coedge $-1 $555 $250 $247 $402 forward $407 $-1 #
edge $-1 $409 -8.1225057370462288 $559 11.432119630210895 $401 $560 forward 7 unknown #
coedge $-1 $561 $562 $248 $404 forward $396 $-1 #
edge $-1 $563 -99.095943975673023 $408 -95.40906000638202 $403 $564 forward 7 unknown #
edge $-1 $409 144.63327302687719 $563 151.79174169133583 $249 $565 forward 7 unknown #
coedge $-1 $250 $555 $561 $566 forward $407 $-1 #
loop $-1 $-1 $555 $395 #
vertex $-1 $404 $567 #
vertex $-1 $251 $568 #
straight-curve $-1 11.98174072200667 6.4676987904638956 13.78444035541817 -1 0 0 I I #
coedge $-1 $411 $411 $-1 $569 reversed $254 $-1 #
edge $-1 $570 0 $570 6.2831853071796004 $255 $571 forward 7 unknown #
vertex $-1 $258 $572 #
ellipse-curve $-1 72.827868229264951 -9.1760015033418085 11.940998370772697 0.51503808176128008 0 0.85716729658548041 1.2857509448782207 0 -0.77255712264192011 1 I I #
coedge $-1 $415 $415 $-1 $573 reversed $261 $-1 #
edge $-1 $574 0 $574 6.2831853071796004 $262 $575 forward 7 unknown #
vertex $-1 $265 $576 #
ellipse-curve $-1 72.827868229264951 -3.3096138931646735 11.940998370772697 0.51503808176128008 0 0.85716729658548041 1.2857509448782207 0 -0.77255712264192011 1 I I #
coedge $-1 $419 $419 $-1 $577 reversed $268 $-1 #
edge $-1 $578 0 $578 6.2831853071796004 $269 $579 forward 7 unknown #
vertex $-1 $272 $580 #
ellipse-curve $-1 72.827868229264951 2.5567737170124616 11.940998370772697 0.51503808176128008 0 0.85716729658548041 1.2857509448782207 0 -0.77255712264192011 1 I I #
face $-1 $-1 $581 $60 $-1 $582 reversed single #
loop $-1 $-1 $430 $273 #
plane-surface $-1 0 0 13.784440355418175 0 0 1 1 0 0 forward_v I I I I #
coedge $-1 $583 $276 $278 $432 forward $172 $-1 #
coedge $-1 $276 $583 $584 $585 reversed $172 $-1 #
coedge $-1 $586 $279 $276 $429 forward $274 $-1 #
edge $-1 $435 8.9853912329189747 $587 28.540016600176102 $428 $588 forward 7 unknown #
coedge $-1 $589 $590 $277 $431 forward $424 $-1 #
edge $-1 $591 57.778124890855374 $434 63.914130123661231 $430 $592 forward 7 unknown #
edge $-1 $435 -151.79174169133583 $591 -144.63327302687719 $278 $593 forward 7 unknown #
coedge $-1 $279 $586 $589 $594 reversed $274 $-1 #
vertex $-1 $594 $595 #
vertex $-1 $280 $596 #
straight-curve $-1 75.895870845667901 27.748095149466511 109.19350036180019 0 0 -1 I I #
coedge $-1 $437 $437 $-1 $597 reversed $283 $-1 #
edge $-1 $598 0 $598 6.2831853071796004 $284 $599 forward 7 unknown #
vertex $-1 $287 $600 #
ellipse-curve $-1 72.827868229264951 31.659020222917931 11.940998370772697 0.51503808176128008 0 0.85716729658548041 1.2857509448782207 0 -0.77255712264192011 1 I I #
coedge $-1 $441 $441 $-1 $601 reversed $290 $-1 #
edge $-1 $602 0 $602 6.2831853071796004 $291 $603 forward 7 unknown #
vertex $-1 $294 $604 #
ellipse-curve $-1 72.827868229264951 37.525407833095073 11.940998370772697 0.51503808176128008 0 0.85716729658548041 1.2857509448782207 0 -0.77255712264192011 1 I I #
coedge $-1 $445 $445 $-1 $605 reversed $297 $-1 #
edge $-1 $606 0 $606 6.2831853071796004 $298 $607 forward 7 unknown #
vertex $-1 $301 $608 #
ellipse-curve $-1 72.827868229264951 43.391795443272201 11.940998370772697 0.51503808176128008 0 0.85716729658548041 1.2857509448782207 0 -0.77255712264192011 1 I I #
face $-1 $-1 $461 $64 $-1 $609 forward single #
loop $-1 $-1 $610 $302 #
plane-surface $-1 -75.895870845667901 0 0 1 0 0 0 0 -1 forward_v I I I I #
coedge $-1 $611 $612 $613 $614 reversed $303 $-1 #
coedge $-1 $615 $305 $307 $459 forward $191 $-1 #
coedge $-1 $305 $615 $611 $616 forward $191 $-1 #
coedge $-1 $613 $308 $305 $456 forward $461 $-1 #
edge $-1 $463 -11.432119630210895 $617 8.1225057370462288 $455 $618 forward 7 unknown #
coedge $-1 $619 $620 $306 $458 forward $450 $-1 #
edge $-1 $621 -60.00668024171835 $462 -56.319796272427361 $457 $622 forward 7 unknown #
edge $-1 $463 -7.1584686644585735 $621 1.6755537013839907e-014 $307 $623 forward 7 unknown #
coedge $-1 $308 $613 $619 $624 forward $461 $-1 #
loop $-1 $-1 $613 $449 #
vertex $-1 $458 $625 #
vertex $-1 $309 $626 #
straight-curve $-1 -77.037199156788603 -13.086926576793228 13.784440355418177 1 0 0 I I #
coedge $-1 $465 $465 $-1 $627 reversed $312 $-1 #
edge $-1 $628 0 $628 6.2831853071796004 $313 $629 forward 7 unknown #
vertex $-1 $316 $630 #
ellipse-curve $-1 -72.827868229264979 -9.1760015033418085 11.940998370772679 -0.51503808176128008 0 0.85716729658548041 1.2857509448782207 0 0.77255712264192011 1 I I #
coedge $-1 $469 $469 $-1 $631 reversed $319 $-1 #
edge $-1 $632 0 $632 6.2831853071796004 $320 $633 forward 7 unknown #
vertex $-1 $323 $634 #
ellipse-curve $-1 -72.827868229264979 -3.3096138931646735 11.940998370772679 -0.51503808176128008 0 0.85716729658548041 1.2857509448782207 0 0.77255712264192011 1 I I #
coedge $-1 $473 $473 $-1 $635 reversed $326 $-1 #
edge $-1 $636 0 $636 6.2831853071796004 $327 $637 forward 7 unknown #
vertex $-1 $330 $638 #
ellipse-curve $-1 -72.827868229264979 2.5567737170124616 11.940998370772679 -0.51503808176128008 0 0.85716729658548041 1.2857509448782207 0 0.77255712264192011 1 I I #
face $-1 $-1 $639 $68 $-1 $640 reversed single #
loop $-1 $-1 $641 $331 #
plane-surface $-1 0 47.302720516723639 0 0 -1 0 0 0 -1 forward_v I I I I #
coedge $-1 $642 $334 $336 $486 forward $210 $-1 #
coedge $-1 $334 $642 $641 $643 reversed $210 $-1 #
coedge $-1 $644 $337 $334 $483 forward $332 $-1 #
edge $-1 $489 8.9853912329189747 $645 28.540016600176102 $482 $646 forward 7 unknown #
coedge $-1 $647 $648 $335 $485 forward $639 $-1 #
edge $-1 $649 -60.00668024171835 $488 -56.319796272427361 $484 $650 forward 7 unknown #
edge $-1 $489 -7.1584686644585735 $649 1.6755537013839907e-014 $336 $651 forward 7 unknown #
coedge $-1 $337 $644 $647 $652 forward $332 $-1 #
vertex $-1 $485 $653 #
vertex $-1 $338 $654 #
straight-curve $-1 -77.037199156788603 27.748095149466511 13.784440355418177 1 0 0 I I #
coedge $-1 $491 $491 $-1 $655 reversed $341 $-1 #
edge $-1 $656 0 $656 6.2831853071796004 $342 $657 forward 7 unknown #
vertex $-1 $345 $658 #
ellipse-curve $-1 -72.827868229264979 31.659020222917931 11.940998370772679 -0.51503808176128008 0 0.85716729658548041 1.2857509448782207 0 0.77255712264192011 1 I I #
coedge $-1 $495 $495 $-1 $659 reversed $348 $-1 #
edge $-1 $660 0 $660 6.2831853071796004 $349 $661 forward 7 unknown #
vertex $-1 $352 $662 #
ellipse-curve $-1 -72.827868229264979 37.525407833095073 11.940998370772679 -0.51503808176128008 0 0.85716729658548041 1.2857509448782207 0 0.77255712264192011 1 I I #
coedge $-1 $499 $499 $-1 $663 reversed $355 $-1 #
edge $-1 $664 0 $664 6.2831853071796004 $356 $665 forward 7 unknown #
vertex $-1 $359 $666 #
ellipse-curve $-1 -72.827868229264979 43.391795443272201 11.940998370772679 -0.51503808176128008 0 0.85716729658548041 1.2857509448782207 0 0.77255712264192011 1 I I #
face $-1 $-1 $375 $54 $-1 $667 reversed single #
loop $-1 $-1 $519 $360 #
plane-surface $-1 0 47.302720516723639 0 0 -1 0 0 0 -1 forward_v I I I I #
coedge $-1 $668 $517 $520 $669 forward $361 $-1 #
coedge $-1 $523 $363 $364 $511 reversed $229 $-1 #
coedge $-1 $517 $668 $363 $509 reversed $361 $-1 #
edge $-1 $524 -13.784440355418175 $670 13.784440355418175 $508 $671 forward 7 unknown #
coedge $-1 $365 $364 $668 $672 forward $145 $-1 #
edge $-1 $515 -75.895870845667901 $670 75.895870845667901 $507 $673 forward 7 unknown #
coedge $-1 $520 $519 $365 $513 reversed $504 $-1 #
edge $-1 $674 -75.895870845667901 $514 75.895870845667901 $512 $675 forward 7 unknown #
vertex $-1 $367 $676 #
vertex $-1 $526 $677 #
straight-curve $-1 75.895870845667901 0 -13.784440355418175 0 -1 0 I I #
coedge $-1 $506 $508 $368 $518 reversed $361 $-1 #
edge $-1 $521 -47.302720516723639 $524 47.302720516723639 $517 $678 forward 7 unknown #
coedge $-1 $512 $369 $374 $527 forward $504 $-1 #
coedge $-1 $369 $512 $506 $669 reversed $504 $-1 #
vertex $-1 $370 $679 #
straight-curve $-1 0 47.302720516723639 13.784440355418175 -1 0 0 I I #
coedge $-1 $371 $507 $373 $526 reversed $229 $-1 #
vertex $-1 $518 $680 #
straight-curve $-1 0 -47.302720516723639 13.784440355418175 1 0 0 I I #
edge $-1 $376 -13.784440355418175 $515 13.784440355418175 $373 $681 forward 7 unknown #
edge $-1 $377 -13.784440355418175 $514 13.784440355418175 $374 $682 forward 7 unknown #
point $-1 75.895870845667901 -47.302720516723639 13.784440355418175 #
point $-1 75.895870845667901 47.302720516723639 13.784440355418175 #
face $-1 $-1 $683 $55 $-1 $684 reversed single #
loop $-1 $-1 $389 $379 #
plane-surface $-1 0 -47.302720516723639 0 0 1 0 0 0 1 forward_v I I I I #
coedge $-1 $685 $382 $537 $686 forward $237 $-1 #
coedge $-1 $382 $685 $687 $688 forward $237 $-1 #
edge $-1 $689 -75.895870845667901 $538 75.895870845667901 $382 $690 forward 7 unknown #
coedge $-1 $384 $383 $691 $692 reversed $149 $-1 #
coedge $-1 $385 $391 $533 $686 reversed $380 $-1 #
vertex $-1 $686 $693 #
straight-curve $-1 75.895870845667901 -34.367322935795841 -5.3781276912073226 0 0 1 I I #
coedge $-1 $691 $694 $387 $541 forward $683 $-1 #
edge $-1 $546 -26.885209653593769 $542 -13.949812072665971 $540 $695 forward 7 unknown #
vertex $-1 $541 $696 #
straight-curve $-1 0 -34.367322935795841 -7.7280704094111154 -1 0 0 I I #
coedge $-1 $697 $389 $694 $698 forward $531 $-1 #
coedge $-1 $389 $697 $391 $548 reversed $531 $-1 #
vertex $-1 $698 $699 #
straight-curve $-1 0 -47.302720516723639 -7.7280704094111154 -1 0 0 I I #
edge $-1 $393 7.7280704094111154 $700 13.784440355418175 $391 $701 forward 7 unknown #
point $-1 75.895870845667901 -34.367322935795841 -7.7280704094111154 #
point $-1 75.895870845667901 -47.302720516723639 -7.7280704094111154 #
plane-surface $-1 0 0 13.784440355418175 0 0 1 1 0 0 forward_v I I I I #
coedge $-1 $562 $561 $554 $702 forward $396 $-1 #
coedge $-1 $554 $398 $400 $558 reversed $245 $-1 #
coedge $-1 $398 $553 $552 $702 reversed $245 $-1 #
coedge $-1 $406 $401 $398 $556 forward $407 $-1 #
edge $-1 $559 57.778124890855374 $703 63.914130123661231 $555 $704 forward 7 unknown #
coedge $-1 $400 $399 $562 $705 reversed $153 $-1 #
edge $-1 $706 -151.79174169133583 $559 -144.63327302687719 $553 $707 forward 7 unknown #
vertex $-1 $402 $708 #
straight-curve $-1 69.759865612862029 -1.6548069465823332 13.784440355418177 0 -1 0 I I #
coedge $-1 $552 $403 $406 $566 reversed $396 $-1 #
coedge $-1 $403 $552 $557 $705 forward $396 $-1 #
vertex $-1 $404 $709 #
straight-curve $-1 75.895870845667901 6.4676987904638956 109.19350036180019 0 0 1 I I #
straight-curve $-1 -54.215046023895979 6.4676987904638956 88.2760838540365 0.85716729658548041 0 -0.51503808176128008 I I #
edge $-1 $703 -13.086926576793228 $408 6.4676987904638956 $561 $710 forward 7 unknown #
point $-1 75.895870845667901 6.4676987904638956 13.784440355418175 #
point $-1 69.759865612862043 6.4676987904638956 13.78444035541817 #
edge $-1 $711 1 $711 0 $411 $-1 forward 7 unknown #
vertex $-1 $412 $712 #
ellipse-curve $-1 71.886474119555587 -9.1760015033418085 10.374255497543604 0.51503808176128008 0 0.85716729658548041 1.2857509448782207 0 -0.77255712264192011 1 I I #
point $-1 74.113619174143167 -9.1760015033418085 11.168441248130774 #
edge $-1 $713 1 $713 0 $415 $-1 forward 7 unknown #
vertex $-1 $416 $714 #
ellipse-curve $-1 71.886474119555587 -3.3096138931646735 10.374255497543604 0.51503808176128008 0 0.85716729658548041 1.2857509448782207 0 -0.77255712264192011 1 I I #
point $-1 74.113619174143167 -3.3096138931646735 11.168441248130774 #
edge $-1 $715 1 $715 0 $419 $-1 forward 7 unknown #
vertex $-1 $420 $716 #
ellipse-curve $-1 71.886474119555587 2.5567737170124616 10.374255497543604 0.51503808176128008 0 0.85716729658548041 1.2857509448782207 0 -0.77255712264192011 1 I I #
point $-1 74.113619174143167 2.5567737170124616 11.168441248130774 #
loop $-1 $-1 $584 $423 #
plane-surface $-1 0 47.302720516723639 0 0 -1 0 0 0 -1 forward_v I I I I #
coedge $-1 $427 $426 $590 $717 reversed $172 $-1 #
coedge $-1 $718 $719 $427 $585 forward $581 $-1 #
edge $-1 $587 -105.82328702726522 $720 -98.664818362806614 $584 $721 forward 7 unknown #
coedge $-1 $433 $428 $719 $722 reversed $274 $-1 #
vertex $-1 $429 $723 #
straight-curve $-1 75.895870845667901 18.762703916547537 10.097556386127181 0 1 0 I I #
coedge $-1 $724 $430 $433 $594 forward $424 $-1 #
coedge $-1 $430 $724 $583 $717 forward $424 $-1 #
vertex $-1 $431 $725 #
straight-curve $-1 11.98174072200667 27.748095149466511 13.78444035541817 1 0 0 I I #
straight-curve $-1 -54.215046023895979 27.748095149466511 88.2760838540365 -0.85716729658548041 0 0.51503808176128008 I I #
edge $-1 $434 27.748095149466511 $726 47.302720516723639 $433 $727 forward 7 unknown #
point $-1 75.895870845667901 27.748095149466511 13.784440355418175 #
point $-1 75.895870845667901 27.748095149466511 10.097556386127167 #
edge $-1 $728 1 $728 0 $437 $-1 forward 7 unknown #
vertex $-1 $438 $729 #
ellipse-curve $-1 71.886474119555587 31.659020222917931 10.374255497543604 0.51503808176128008 0 0.85716729658548041 1.2857509448782207 0 -0.77255712264192011 1 I I #
point $-1 74.113619174143167 31.659020222917931 11.168441248130774 #
edge $-1 $730 1 $730 0 $441 $-1 forward 7 unknown #
vertex $-1 $442 $731 #
ellipse-curve $-1 71.886474119555587 37.525407833095073 10.374255497543604 0.51503808176128008 0 0.85716729658548041 1.2857509448782207 0 -0.77255712264192011 1 I I #
point $-1 74.113619174143167 37.525407833095073 11.168441248130774 #
edge $-1 $732 1 $732 0 $445 $-1 forward 7 unknown #
vertex $-1 $446 $733 #
ellipse-curve $-1 71.886474119555587 43.391795443272201 10.374255497543604 0.51503808176128008 0 0.85716729658548041 1.2857509448782207 0 -0.77255712264192011 1 I I #
point $-1 74.113619174143167 43.391795443272201 11.168441248130774 #
plane-surface $-1 0 0 13.784440355418175 0 0 1 1 0 0 forward_v I I I I #
coedge $-1 $620 $619 $612 $734 forward $450 $-1 #
coedge $-1 $612 $452 $454 $616 reversed $303 $-1 #
coedge $-1 $452 $611 $610 $734 reversed $303 $-1 #
coedge $-1 $460 $455 $452 $614 forward $461 $-1 #
edge $-1 $617 -7.2773335439265452 $735 -1.1413283111207022 $613 $736 forward 7 unknown #
coedge $-1 $454 $453 $620 $737 reversed $191 $-1 #
edge $-1 $738 -1.6755537013839907e-014 $617 7.1584686644585735 $611 $739 forward 7 unknown #
vertex $-1 $456 $740 #
straight-curve $-1 -69.759865612862058 -1.6548069465823332 13.784440355418175 0 1 0 I I #
coedge $-1 $610 $457 $460 $624 reversed $450 $-1 #
coedge $-1 $457 $610 $615 $737 forward $450 $-1 #
vertex $-1 $458 $741 #
straight-curve $-1 -75.895870845667901 -13.086926576793228 70.104236627845538 0 0 1 I I #
straight-curve $-1 -75.895870845667886 -13.086926576793228 10.097556386127195 -0.85716729658548041 0 -0.51503808176128008 I I #
edge $-1 $735 -6.4676987904638956 $462 13.086926576793228 $619 $742 forward 7 unknown #
point $-1 -75.895870845667901 -13.086926576793228 13.784440355418175 #
point $-1 -69.759865612862058 -13.086926576793228 13.784440355418175 #
edge $-1 $743 1 $743 0 $465 $-1 forward 7 unknown #
vertex $-1 $466 $744 #
ellipse-curve $-1 -71.886474119555615 -9.1760015033418085 10.37425549754359 -0.51503808176128008 0 0.85716729658548041 1.2857509448782207 0 0.77255712264192011 1 I I #
point $-1 -71.542117284386748 -9.1760015033418085 12.713555493414599 #
edge $-1 $745 1 $745 0 $469 $-1 forward 7 unknown #
vertex $-1 $470 $746 #
ellipse-curve $-1 -71.886474119555615 -3.3096138931646735 10.37425549754359 -0.51503808176128008 0 0.85716729658548041 1.2857509448782207 0 0.77255712264192011 1 I I #
point $-1 -71.542117284386748 -3.3096138931646735 12.713555493414599 #
edge $-1 $747 1 $747 0 $473 $-1 forward 7 unknown #
vertex $-1 $474 $748 #
ellipse-curve $-1 -71.886474119555615 2.5567737170124616 10.37425549754359 -0.51503808176128008 0 0.85716729658548041 1.2857509448782207 0 0.77255712264192011 1 I I #
point $-1 -71.542117284386748 2.5567737170124616 12.713555493414599 #
loop $-1 $-1 $484 $477 #
plane-surface $-1 -75.895870845667901 0 0 1 0 0 0 0 -1 forward_v I I I I #
coedge $-1 $749 $750 $481 $643 forward $478 $-1 #
coedge $-1 $481 $480 $648 $751 reversed $210 $-1 #
edge $-1 $645 22.768947517138727 $752 29.927416181597323 $641 $753 forward 7 unknown #
coedge $-1 $487 $482 $750 $754 forward $332 $-1 #
vertex $-1 $754 $755 #
straight-curve $-1 -69.759865612862058 18.762703916547537 13.784440355418175 0 1 0 I I #
coedge $-1 $756 $484 $487 $652 reversed $639 $-1 #
coedge $-1 $484 $756 $642 $751 forward $639 $-1 #
vertex $-1 $485 $757 #
straight-curve $-1 -75.895870845667901 27.748095149466511 70.104236627845538 0 0 1 I I #
straight-curve $-1 -75.895870845667886 27.748095149466511 10.097556386127195 -0.85716729658548041 0 -0.51503808176128008 I I #
edge $-1 $758 -47.302720516723639 $488 -27.748095149466511 $647 $759 forward 7 unknown #
point $-1 -75.895870845667901 27.748095149466511 13.784440355418175 #
point $-1 -69.759865612862058 27.748095149466511 13.784440355418175 #
edge $-1 $760 1 $760 0 $491 $-1 forward 7 unknown #
vertex $-1 $492 $761 #
ellipse-curve $-1 -71.886474119555615 31.659020222917931 10.37425549754359 -0.51503808176128008 0 0.85716729658548041 1.2857509448782207 0 0.77255712264192011 1 I I #
point $-1 -71.542117284386748 31.659020222917931 12.713555493414599 #
edge $-1 $762 1 $762 0 $495 $-1 forward 7 unknown #
vertex $-1 $496 $763 #
ellipse-curve $-1 -71.886474119555615 37.525407833095073 10.37425549754359 -0.51503808176128008 0 0.85716729658548041 1.2857509448782207 0 0.77255712264192011 1 I I #
point $-1 -71.542117284386748 37.525407833095073 12.713555493414599 #
edge $-1 $764 1 $764 0 $499 $-1 forward 7 unknown #
vertex $-1 $500 $765 #
ellipse-curve $-1 -71.886474119555615 43.391795443272201 10.37425549754359 -0.51503808176128008 0 0.85716729658548041 1.2857509448782207 0 0.77255712264192011 1 I I #
point $-1 -71.542117284386748 43.391795443272201 12.713555493414599 #
plane-surface $-1 75.895870845667901 0 0 -1 0 0 0 0 1 forward_v I I I I #
coedge $-1 $508 $506 $510 $672 reversed $361 $-1 #
edge $-1 $521 -13.784440355418175 $674 13.784440355418175 $520 $766 forward 7 unknown #
vertex $-1 $672 $767 #
straight-curve $-1 -75.895870845667901 -47.302720516723639 0 0 0 -1 I I #
edge $-1 $670 -47.302720516723639 $674 47.302720516723639 $668 $768 forward 7 unknown #
straight-curve $-1 0 -47.302720516723639 -13.784440355418175 -1 0 0 I I #
vertex $-1 $513 $769 #
straight-curve $-1 0 47.302720516723639 -13.784440355418175 1 0 0 I I #
point $-1 75.895870845667901 47.302720516723639 -13.784440355418175 #
point $-1 75.895870845667901 -47.302720516723639 -13.784440355418175 #
straight-curve $-1 -75.895870845667901 0 13.784440355418175 0 -1 0 I I #
point $-1 -75.895870845667901 47.302720516723639 13.784440355418175 #
point $-1 -75.895870845667901 -47.302720516723639 13.784440355418175 #
straight-curve $-1 75.895870845667901 -47.302720516723639 0 0 0 -1 I I #
straight-curve $-1 75.895870845667901 47.302720516723639 0 0 0 -1 I I #
loop $-1 $-1 $691 $530 #
plane-surface $-1 -75.895870845667901 0 0 1 0 0 0 0 -1 forward_v I I I I #
coedge $-1 $534 $533 $697 $770 forward $237 $-1 #
edge $-1 $538 34.367322935795841 $700 47.302720516723639 $537 $771 forward 7 unknown #
coedge $-1 $694 $691 $534 $688 reversed $683 $-1 #
edge $-1 $772 -47.302720516723639 $689 -34.367322935795841 $687 $773 forward 7 unknown #
vertex $-1 $692 $774 #
straight-curve $-1 0 -34.367322935795841 -13.784440355418175 1 0 0 I I #
coedge $-1 $687 $540 $536 $692 forward $683 $-1 #
edge $-1 $542 2.3499427182037929 $689 8.4063126642108514 $691 $775 forward 7 unknown #
point $-1 75.895870845667901 -34.367322935795841 -13.784440355418175 #
coedge $-1 $540 $687 $544 $698 reversed $683 $-1 #
straight-curve $-1 -75.895870845667901 -20.41751086312987 -7.7280704094111154 0 1 0 I I #
point $-1 -75.895870845667901 -34.367322935795841 -7.7280704094111154 #
coedge $-1 $545 $544 $685 $770 reversed $531 $-1 #
edge $-1 $546 7.7280704094111154 $772 13.784440355418175 $694 $776 forward 7 unknown #
point $-1 -75.895870845667901 -47.302720516723639 -7.7280704094111154 #
vertex $-1 $548 $777 #
straight-curve $-1 75.895870845667901 -47.302720516723639 0 0 0 -1 I I #
edge $-1 $703 95.40906000638202 $706 99.095943975673023 $552 $778 forward 7 unknown #
vertex $-1 $566 $779 #
straight-curve $-1 11.98174072200667 -13.086926576793228 13.78444035541817 1 0 0 I I #
edge $-1 $706 -11.432119630210895 $563 8.1225057370462288 $562 $780 forward 7 unknown #
vertex $-1 $705 $781 #
straight-curve $-1 -54.215046023895979 -13.086926576793228 88.2760838540365 -0.85716729658548041 0 0.51503808176128008 I I #
point $-1 69.759865612862043 -13.086926576793228 13.78444035541817 #
point $-1 75.895870845667901 6.4676987904638956 10.097556386127167 #
straight-curve $-1 75.895870845667901 0 13.784440355418175 0 1 0 I I #
vertex $-1 $569 $782 #
point $-1 73.172225064433803 -9.1760015033418085 9.6016983749016838 #
vertex $-1 $573 $783 #
point $-1 73.172225064433803 -3.3096138931646735 9.6016983749016838 #
vertex $-1 $577 $784 #
point $-1 73.172225064433803 2.5567737170124616 9.6016983749016838 #
edge $-1 $720 -28.540016600176102 $591 -8.9853912329189747 $590 $785 forward 7 unknown #
coedge $-1 $719 $584 $724 $786 reversed $581 $-1 #
coedge $-1 $584 $718 $586 $722 forward $581 $-1 #
vertex $-1 $585 $787 #
straight-curve $-1 -14.812390011282371 47.302720516723639 64.600579142323213 -0.85716729658548041 0 0.51503808176128008 I I #
edge $-1 $726 -13.784440355418175 $587 -10.097556386127183 $586 $788 forward 7 unknown #
point $-1 75.895870845667901 47.302720516723639 10.097556386127183 #
coedge $-1 $590 $589 $718 $786 forward $424 $-1 #
point $-1 69.759865612862043 27.748095149466511 13.78444035541817 #
vertex $-1 $594 $789 #
straight-curve $-1 75.895870845667901 0 13.784440355418175 0 1 0 I I #
vertex $-1 $597 $790 #
point $-1 73.172225064433803 31.659020222917931 9.6016983749016838 #
vertex $-1 $601 $791 #
point $-1 73.172225064433803 37.525407833095073 9.6016983749016838 #
vertex $-1 $605 $792 #
point $-1 73.172225064433803 43.391795443272201 9.6016983749016838 #
edge $-1 $735 56.319796272427361 $738 60.00668024171835 $610 $793 forward 7 unknown #
vertex $-1 $624 $794 #
straight-curve $-1 -77.037199156788603 6.4676987904638956 13.784440355418177 -1 0 0 I I #
edge $-1 $738 -8.1225057370462288 $621 11.432119630210895 $620 $795 forward 7 unknown #
vertex $-1 $737 $796 #
straight-curve $-1 -75.895870845667886 6.4676987904638956 10.097556386127195 0.85716729658548041 0 0.51503808176128008 I I #
point $-1 -69.759865612862058 6.4676987904638956 13.784440355418175 #
point $-1 -75.895870845667901 -13.086926576793228 10.097556386127186 #
straight-curve $-1 -75.895870845667901 0 13.784440355418175 0 -1 0 I I #
vertex $-1 $627 $797 #
point $-1 -70.600723174677384 -9.1760015033418085 11.146812620185511 #
vertex $-1 $631 $798 #
point $-1 -70.600723174677384 -3.3096138931646735 11.146812620185511 #
vertex $-1 $635 $799 #
point $-1 -70.600723174677384 2.5567737170124616 11.146812620185511 #
coedge $-1 $750 $641 $756 $800 reversed $478 $-1 #
coedge $-1 $641 $749 $644 $754 reversed $478 $-1 #
edge $-1 $752 -28.540016600176102 $649 -8.9853912329189747 $648 $801 forward 7 unknown #
vertex $-1 $643 $802 #
straight-curve $-1 -50.243068423499565 47.302720516723639 25.511315408368567 -0.85716729658548041 0 -0.51503808176128008 I I #
edge $-1 $645 69.759865612862058 $758 75.895870845667901 $750 $803 forward 7 unknown #
point $-1 -69.759865612862058 47.302720516723639 13.784440355418175 #
coedge $-1 $648 $647 $749 $800 forward $639 $-1 #
point $-1 -75.895870845667901 27.748095149466511 10.097556386127186 #
vertex $-1 $754 $804 #
straight-curve $-1 -75.895870845667901 0 13.784440355418175 0 -1 0 I I #
vertex $-1 $655 $805 #
point $-1 -70.600723174677384 31.659020222917931 11.146812620185511 #
vertex $-1 $659 $806 #
point $-1 -70.600723174677384 37.525407833095073 11.146812620185511 #
vertex $-1 $663 $807 #
point $-1 -70.600723174677384 43.391795443272201 11.146812620185511 #
straight-curve $-1 -75.895870845667901 47.302720516723639 0 0 0 -1 I I #
point $-1 -75.895870845667901 -47.302720516723639 -13.784440355418175 #
straight-curve $-1 -75.895870845667901 0 -13.784440355418175 0 1 0 I I #
point $-1 -75.895870845667901 47.302720516723639 -13.784440355418175 #
edge $-1 $700 -75.895870845667901 $772 75.895870845667901 $697 $808 forward 7 unknown #
straight-curve $-1 75.895870845667901 0 -13.784440355418175 0 -1 0 I I #
vertex $-1 $688 $809 #
straight-curve $-1 -75.895870845667901 0 -13.784440355418175 0 1 0 I I #
point $-1 -75.895870845667901 -34.367322935795841 -13.784440355418175 #
straight-curve $-1 -75.895870845667901 -34.367322935795841 -5.3781276912073226 0 0 -1 I I #
straight-curve $-1 -75.895870845667901 -47.302720516723639 0 0 0 -1 I I #
point $-1 75.895870845667901 -47.302720516723639 -13.784440355418175 #
straight-curve $-1 75.895870845667901 -13.086926576793228 109.19350036180019 0 0 -1 I I #
point $-1 75.895870845667901 -13.086926576793228 13.784440355418175 #
straight-curve $-1 75.895870845667901 -1.6548069465823332 10.097556386127181 0 1 0 I I #
point $-1 75.895870845667901 -13.086926576793228 10.097556386127167 #
point $-1 71.113916996913659 -9.1760015033418085 9.088504552665384 #
point $-1 71.113916996913659 -3.3096138931646735 9.088504552665384 #
point $-1 71.113916996913659 2.5567737170124616 9.088504552665384 #
straight-curve $-1 69.759865612862029 18.762703916547537 13.784440355418177 0 -1 0 I I #
edge $-1 $726 -75.895870845667901 $720 -69.759865612862043 $718 $810 forward 7 unknown #
point $-1 69.759865612862043 47.302720516723639 13.78444035541817 #
straight-curve $-1 75.895870845667901 47.302720516723639 0 0 0 -1 I I #
point $-1 75.895870845667901 47.302720516723639 13.784440355418175 #
point $-1 71.113916996913659 31.659020222917931 9.088504552665384 #
point $-1 71.113916996913659 37.525407833095073 9.088504552665384 #
point $-1 71.113916996913659 43.391795443272201 9.088504552665384 #
straight-curve $-1 -75.895870845667901 6.4676987904638956 70.104236627845538 0 0 -1 I I #
point $-1 -75.895870845667901 6.4676987904638956 13.784440355418175 #
straight-curve $-1 -75.895870845667901 -1.6548069465823332 10.09755638612719 0 -1 0 I I #
point $-1 -75.895870845667901 6.4676987904638956 10.097556386127186 #
point $-1 -71.113916996913687 -9.1760015033418085 9.0885045526653698 #
point $-1 -71.113916996913687 -3.3096138931646735 9.0885045526653698 #
point $-1 -71.113916996913687 2.5567737170124616 9.0885045526653698 #
edge $-1 $758 -13.784440355418175 $752 -10.097556386127186 $749 $811 forward 7 unknown #
straight-curve $-1 -75.895870845667901 18.762703916547537 10.09755638612719 0 -1 0 I I #
point $-1 -75.895870845667901 47.302720516723639 10.097556386127186 #
straight-curve $-1 0 47.302720516723639 13.784440355418175 -1 0 0 I I #
point $-1 -75.895870845667901 47.302720516723639 13.784440355418175 #
point $-1 -71.113916996913687 31.659020222917931 9.0885045526653698 #
point $-1 -71.113916996913687 37.525407833095073 9.0885045526653698 #
point $-1 -71.113916996913687 43.391795443272201 9.0885045526653698 #
straight-curve $-1 0 -47.302720516723639 -13.784440355418175 -1 0 0 I I #
point $-1 -75.895870845667901 -47.302720516723639 -13.784440355418175 #
straight-curve $-1 0 47.302720516723639 13.784440355418175 -1 0 0 I I #
straight-curve $-1 -75.895870845667901 47.302720516723639 0 0 0 -1 I I #
End-of-ACIS-data 