500 0 13 0           
7 Unknown 11 ACIS 5.0 NT 24 Fri Mar 26 19:41:49 1999 
-1 9.9999999999999995e-007 1e-010 
body $-1 $13 $-1 $14 #
body $-1 $15 $-1 $16 #
body $-1 $17 $-1 $18 #
body $-1 $19 $-1 $20 #
body $-1 $21 $-1 $22 #
body $-1 $23 $-1 $24 #
body $-1 $25 $-1 $26 #
body $-1 $27 $-1 $28 #
body $-1 $29 $-1 $30 #
body $-1 $31 $-1 $32 #
body $-1 $33 $-1 $34 #
body $-1 $35 $-1 $36 #
body $-1 $37 $-1 $38 #
lump $-1 $-1 $39 $0 #
transform $-1 1 0 0 0 1 0 0 0 1 73.703421124912268 50.878461077759724 15.447847943675525 1 rotate no_reflect no_shear #
lump $-1 $-1 $40 $1 #
transform $-1 1 0 0 0 1 0 0 0 1 73.703421124912268 50.878461077759724 15.447847943675525 1 rotate no_reflect no_shear #
lump $-1 $-1 $41 $2 #
transform $-1 1 0 0 0 1 0 0 0 1 73.703421124912268 50.878461077759724 15.447847943675525 1 rotate no_reflect no_shear #
lump $-1 $-1 $42 $3 #
transform $-1 1 0 0 0 1 0 0 0 1 73.703421124912268 50.878461077759724 15.447847943675525 1 rotate no_reflect no_shear #
lump $-1 $-1 $43 $4 #
transform $-1 1 0 0 0 1 0 0 0 1 73.703421124912268 50.878461077759724 15.447847943675525 1 rotate no_reflect no_shear #
lump $-1 $-1 $44 $5 #
transform $-1 1 0 0 0 1 0 0 0 1 73.703421124912268 50.878461077759724 15.447847943675525 1 rotate no_reflect no_shear #
lump $-1 $-1 $45 $6 #
transform $-1 1 0 0 0 1 0 0 0 1 73.703421124912268 50.878461077759724 15.447847943675525 1 rotate no_reflect no_shear #
lump $-1 $-1 $46 $7 #
transform $-1 1 0 0 0 1 0 0 0 1 73.703421124912268 50.878461077759724 15.447847943675525 1 rotate no_reflect no_shear #
lump $-1 $-1 $47 $8 #
transform $-1 1 0 0 0 1 0 0 0 1 73.703421124912268 50.878461077759724 15.447847943675525 1 rotate no_reflect no_shear #
lump $-1 $-1 $48 $9 #
transform $-1 1 0 0 0 1 0 0 0 1 73.703421124912268 50.878461077759724 15.447847943675525 1 rotate no_reflect no_shear #
lump $-1 $-1 $49 $10 #
transform $-1 1 0 0 0 1 0 0 0 1 73.703421124912268 50.878461077759724 15.447847943675525 1 rotate no_reflect no_shear #
lump $-1 $-1 $50 $11 #
transform $-1 1 0 0 0 1 0 0 0 1 73.703421124912268 50.878461077759724 15.447847943675525 1 rotate no_reflect no_shear #
lump $-1 $-1 $51 $12 #
transform $-1 1 0 0 0 1 0 0 0 1 73.703421124912268 50.878461077759724 15.447847943675525 1 rotate no_reflect no_shear #
shell $-1 $-1 $-1 $52 $-1 $13 #
shell $-1 $-1 $-1 $53 $-1 $15 #
shell $-1 $-1 $-1 $54 $-1 $17 #
shell $-1 $-1 $-1 $55 $-1 $19 #
shell $-1 $-1 $-1 $56 $-1 $21 #
shell $-1 $-1 $-1 $57 $-1 $23 #
shell $-1 $-1 $-1 $58 $-1 $25 #
shell $-1 $-1 $-1 $59 $-1 $27 #
shell $-1 $-1 $-1 $60 $-1 $29 #
shell $-1 $-1 $-1 $61 $-1 $31 #
shell $-1 $-1 $-1 $62 $-1 $33 #
shell $-1 $-1 $-1 $63 $-1 $35 #
shell $-1 $-1 $-1 $64 $-1 $37 #
face $-1 $65 $66 $39 $-1 $67 forward single #
face $-1 $68 $69 $40 $-1 $70 reversed single #
face $-1 $71 $72 $41 $-1 $73 reversed single #
face $-1 $74 $75 $42 $-1 $76 forward single #
face $-1 $77 $78 $43 $-1 $79 reversed single #
face $-1 $80 $81 $44 $-1 $82 forward single #
face $-1 $83 $84 $45 $-1 $85 reversed single #
face $-1 $86 $87 $46 $-1 $88 forward single #
face $-1 $89 $90 $47 $-1 $91 reversed single #
face $-1 $92 $93 $48 $-1 $94 forward single #
face $-1 $95 $96 $49 $-1 $97 reversed single #
face $-1 $98 $99 $50 $-1 $100 forward single #
face $-1 $101 $102 $51 $-1 $103 forward single #
face $-1 $104 $105 $39 $-1 $106 reversed single #
loop $-1 $-1 $107 $52 #
plane-surface $-1 0 0 15.447847943675525 0 0 1 1 0 0 forward_v I I I I #
face $-1 $108 $109 $40 $-1 $110 reversed single #
loop $-1 $-1 $111 $53 #
plane-surface $-1 -71.65400128800465 -39.715192824771563 0 0 -1 0 0 0 -1 forward_v I I I I #
face $-1 $112 $113 $41 $-1 $114 reversed single #
loop $-1 $-1 $115 $54 #
plane-surface $-1 -172.33785204724603 -35.352366834452162 118.88232142394506 0 1 0 -0.66913061440640931 0 0.74314481823134659 forward_v I I I I #
face $-1 $116 $117 $42 $-1 $118 forward single #
loop $-1 $119 $120 $55 #
cone-surface $-1 -68.835494815833627 -30.32751145296605 10.754707186236242 0.66913061440640931 0 -0.74314481823134659 1.4862896364626932 0 1.3382612288128186 1 I I 0 1 2 forward I I I I #
face $-1 $121 $122 $43 $-1 $123 reversed single #
loop $-1 $-1 $124 $56 #
plane-surface $-1 -172.33785204724603 -11.412936448145409 118.88232142394506 0 1 0 -0.66913061440640931 0 0.74314481823134659 forward_v I I I I #
face $-1 $125 $126 $44 $-1 $127 forward single #
loop $-1 $128 $129 $57 #
cone-surface $-1 -68.835494815833627 -6.3880810666592964 10.754707186236242 0.66913061440640931 0 -0.74314481823134659 1.4862896364626932 0 1.3382612288128186 1 I I 0 1 2 forward I I I I #
face $-1 $130 $131 $45 $-1 $132 reversed single #
loop $-1 $-1 $133 $58 #
plane-surface $-1 -172.33785204724603 12.526493938161344 118.88232142394506 0 1 0 -0.66913061440640931 0 0.74314481823134659 forward_v I I I I #
face $-1 $134 $135 $46 $-1 $136 forward single #
loop $-1 $137 $138 $59 #
cone-surface $-1 -68.835494815833627 17.551349319647457 10.754707186236242 0.66913061440640931 0 -0.74314481823134659 1.4862896364626932 0 1.3382612288128186 1 I I 0 1 2 forward I I I I #
face $-1 $139 $140 $47 $-1 $141 reversed single #
loop $-1 $-1 $142 $60 #
plane-surface $-1 -172.33785204724603 36.465924324468098 118.88232142394506 0 1 0 -0.66913061440640931 0 0.74314481823134659 forward_v I I I I #
face $-1 $143 $144 $48 $-1 $145 forward single #
loop $-1 $146 $147 $61 #
cone-surface $-1 -68.835494815833627 41.49077970595421 10.754707186236242 0.66913061440640931 0 -0.74314481823134659 1.4862896364626932 0 1.3382612288128186 1 I I 0 1 2 forward I I I I #
face $-1 $148 $149 $49 $-1 $150 reversed single #
loop $-1 $-1 $151 $62 #
plane-surface $-1 80.978738696625811 31.334484513789775 217.79170101397256 0 1 0 0.73135370988377701 0 0.68199835119979291 forward_v I I I I #
face $-1 $152 $153 $50 $-1 $154 forward single #
loop $-1 $155 $156 $63 #
cone-surface $-1 69.153550775678482 36.918477817781195 10.814175371717404 -0.73135370988377701 0 -0.68199835119979291 1.3639967023995858 0 -1.462707419767554 1 I I 0 1 2 forward I I I I #
face $-1 $157 $158 $51 $-1 $159 forward single #
loop $-1 $160 $161 $64 #
cone-surface $-1 69.153550775678482 45.294467773768318 10.814175371717404 -0.73135370988377701 0 -0.68199835119979291 1.3639967023995858 0 -1.462707419767554 1 I I 0 1 2 forward I I I I #
face $-1 $162 $163 $39 $-1 $164 reversed single #
loop $-1 $-1 $165 $65 #
plane-surface $-1 0 0 -15.447847943675525 0 0 1 1 0 0 forward_v I I I I #
coedge $-1 $166 $167 $168 $169 forward $66 $-1 #
face $-1 $170 $171 $40 $-1 $172 forward single #
loop $-1 $-1 $173 $68 #
plane-surface $-1 -69.604581451097033 -45.296826951265643 0 -1 0 0 0 0 1 forward_v I I I I #
coedge $-1 $174 $175 $176 $177 forward $69 $-1 #
face $-1 $178 $179 $41 $-1 $180 reversed single #
loop $-1 $-1 $181 $71 #
plane-surface $-1 -73.703421124912282 -30.32751145296605 9.3376904341424165 -0.66913061440640931 0 0.74314481823134659 0.74314481823134659 0 0.66913061440640931 forward_v I I I I #
coedge $-1 $182 $183 $184 $185 reversed $72 $-1 #
face $-1 $-1 $186 $42 $-1 $187 forward single #
loop $-1 $188 $189 $74 #
cone-surface $-1 -66.691446517290217 -30.32751145296605 8.3735003653321716 0.66913061440640931 0 -0.74314481823134659 0.74314481823134659 0 0.66913061440640931 1 I I -0.70710678118654746 0.70710678118654746 1 forward I I I I #
loop $-1 $-1 $190 $55 #
coedge $-1 $120 $120 $191 $192 reversed $75 $-1 #
face $-1 $193 $194 $43 $-1 $195 reversed single #
loop $-1 $-1 $196 $77 #
plane-surface $-1 -73.703421124912282 -6.3880810666592964 9.3376904341424165 -0.66913061440640931 0 0.74314481823134659 0.74314481823134659 0 0.66913061440640931 forward_v I I I I #
coedge $-1 $197 $198 $199 $200 reversed $78 $-1 #
face $-1 $-1 $201 $44 $-1 $202 forward single #
loop $-1 $203 $204 $80 #
cone-surface $-1 -66.691446517290217 -6.3880810666592964 8.3735003653321716 0.66913061440640931 0 -0.74314481823134659 0.74314481823134659 0 0.66913061440640931 1 I I -0.70710678118654746 0.70710678118654746 1 forward I I I I #
loop $-1 $-1 $205 $57 #
coedge $-1 $129 $129 $206 $207 reversed $81 $-1 #
face $-1 $208 $209 $45 $-1 $210 reversed single #
loop $-1 $-1 $211 $83 #
plane-surface $-1 -73.703421124912282 17.551349319647457 9.3376904341424165 -0.66913061440640931 0 0.74314481823134659 0.74314481823134659 0 0.66913061440640931 forward_v I I I I #
coedge $-1 $212 $213 $214 $215 reversed $84 $-1 #
face $-1 $-1 $216 $46 $-1 $217 forward single #
loop $-1 $218 $219 $86 #
cone-surface $-1 -66.691446517290217 17.551349319647457 8.3735003653321716 0.66913061440640931 0 -0.74314481823134659 0.74314481823134659 0 0.66913061440640931 1 I I -0.70710678118654746 0.70710678118654746 1 forward I I I I #
loop $-1 $-1 $220 $59 #
coedge $-1 $138 $138 $221 $222 reversed $87 $-1 #
face $-1 $223 $224 $47 $-1 $225 reversed single #
loop $-1 $-1 $226 $89 #
plane-surface $-1 -73.703421124912282 41.49077970595421 9.3376904341424165 -0.66913061440640931 0 0.74314481823134659 0.74314481823134659 0 0.66913061440640931 forward_v I I I I #
coedge $-1 $227 $228 $229 $230 reversed $90 $-1 #
face $-1 $-1 $231 $48 $-1 $232 forward single #
loop $-1 $233 $234 $92 #
cone-surface $-1 -66.691446517290217 41.49077970595421 8.3735003653321716 0.66913061440640931 0 -0.74314481823134659 0.74314481823134659 0 0.66913061440640931 1 I I -0.70710678118654746 0.70710678118654746 1 forward I I I I #
loop $-1 $-1 $235 $61 #
coedge $-1 $147 $147 $236 $237 reversed $93 $-1 #
face $-1 $238 $239 $49 $-1 $240 forward single #
loop $-1 $-1 $241 $95 #
plane-surface $-1 -26.82780224503604 41.106472795774749 117.26047764402425 0.73135370988377701 0 0.68199835119979291 0.68199835119979291 0 -0.73135370988377701 forward_v I I I I #
coedge $-1 $242 $243 $244 $245 reversed $96 $-1 #
face $-1 $-1 $246 $50 $-1 $247 forward single #
loop $-1 $248 $249 $98 #
cone-surface $-1 66.667032977409121 36.918477817781195 8.4954600692160529 -0.73135370988377701 0 -0.68199835119979291 0.68199835119979291 0 -0.73135370988377701 1 I I -0.70710678118654746 0.70710678118654746 1 forward I I I I #
loop $-1 $-1 $250 $63 #
coedge $-1 $156 $156 $251 $252 reversed $99 $-1 #
face $-1 $-1 $253 $51 $-1 $254 forward single #
loop $-1 $255 $256 $101 #
cone-surface $-1 66.667032977409121 45.294467773768318 8.4954600692160529 -0.73135370988377701 0 -0.68199835119979291 0.68199835119979291 0 -0.73135370988377701 1 I I -0.70710678118654746 0.70710678118654746 1 forward I I I I #
loop $-1 $-1 $257 $64 #
coedge $-1 $161 $161 $258 $259 reversed $102 $-1 #
face $-1 $260 $261 $39 $-1 $262 reversed single #
loop $-1 $-1 $263 $104 #
plane-surface $-1 0 -50.878461077759724 0 0 1 0 0 0 1 forward_v I I I I #
coedge $-1 $264 $265 $266 $267 forward $105 $-1 #
coedge $-1 $268 $107 $269 $270 forward $66 $-1 #
coedge $-1 $107 $268 $271 $272 forward $66 $-1 #
coedge $-1 $273 $274 $107 $169 reversed $275 $-1 #
edge $-1 $276 -50.878461077759724 $277 50.878461077759724 $168 $278 forward 7 unknown #
face $-1 $279 $280 $40 $-1 $281 reversed single #
loop $-1 $-1 $282 $108 #
plane-surface $-1 0 0 15.447847943675525 0 0 1 1 0 0 forward_v I I I I #
coedge $-1 $283 $284 $285 $286 reversed $109 $-1 #
coedge $-1 $287 $111 $288 $289 reversed $69 $-1 #
coedge $-1 $111 $287 $290 $291 reversed $69 $-1 #
coedge $-1 $284 $283 $111 $177 reversed $109 $-1 #
edge $-1 $292 -15.447847943675525 $293 15.447847943675525 $176 $294 forward 7 unknown #
face $-1 $295 $296 $41 $-1 $297 reversed single #
loop $-1 $-1 $298 $112 #
plane-surface $-1 -172.33785204724603 -25.302656071479937 118.88232142394506 0 -1 0 0.66913061440640931 0 -0.74314481823134659 forward_v I I I I #
coedge $-1 $299 $300 $301 $302 reversed $113 $-1 #
coedge $-1 $183 $115 $303 $304 reversed $72 $-1 #
coedge $-1 $115 $182 $299 $305 reversed $72 $-1 #
coedge $-1 $301 $306 $115 $185 forward $307 $-1 #
edge $-1 $308 12.465504898710748 $309 19.251522148593992 $184 $310 forward 7 unknown #
loop $-1 $-1 $191 $116 #
plane-surface $-1 -73.703421124912282 -30.32751145296605 9.3376904341424165 -0.66913061440640931 0 0.74314481823134659 0.74314481823134659 0 0.66913061440640931 forward_v I I I I #
loop $-1 $-1 $311 $74 #
coedge $-1 $189 $189 $190 $312 reversed $117 $-1 #
coedge $-1 $190 $190 $189 $312 forward $119 $-1 #
coedge $-1 $191 $191 $120 $192 forward $186 $-1 #
edge $-1 $313 0 $313 6.2831853071796004 $191 $314 forward 7 unknown #
face $-1 $315 $316 $43 $-1 $317 forward single #
loop $-1 $-1 $318 $121 #
plane-surface $-1 -172.33785204724603 -1.3632256851731839 118.88232142394506 0 -1 0 0.66913061440640931 0 -0.74314481823134659 forward_v I I I I #
coedge $-1 $319 $320 $321 $322 reversed $122 $-1 #
coedge $-1 $198 $124 $323 $324 reversed $78 $-1 #
coedge $-1 $124 $197 $319 $325 reversed $78 $-1 #
coedge $-1 $321 $326 $124 $200 forward $316 $-1 #
edge $-1 $327 12.465504898710748 $328 19.251522148593992 $199 $329 forward 7 unknown #
loop $-1 $-1 $206 $125 #
plane-surface $-1 -73.703421124912282 -6.3880810666592964 9.3376904341424165 -0.66913061440640931 0 0.74314481823134659 0.74314481823134659 0 0.66913061440640931 forward_v I I I I #
loop $-1 $-1 $330 $80 #
coedge $-1 $204 $204 $205 $331 reversed $126 $-1 #
coedge $-1 $205 $205 $204 $331 forward $128 $-1 #
coedge $-1 $206 $206 $129 $207 forward $201 $-1 #
edge $-1 $332 0 $332 6.2831853071796004 $206 $333 forward 7 unknown #
face $-1 $334 $335 $45 $-1 $336 forward single #
loop $-1 $-1 $337 $130 #
plane-surface $-1 -172.33785204724603 22.57620470113357 118.88232142394506 0 -1 0 0.66913061440640931 0 -0.74314481823134659 forward_v I I I I #
coedge $-1 $338 $339 $340 $341 reversed $131 $-1 #
coedge $-1 $213 $133 $342 $343 reversed $84 $-1 #
coedge $-1 $133 $212 $338 $344 reversed $84 $-1 #
coedge $-1 $340 $345 $133 $215 forward $335 $-1 #
edge $-1 $346 12.465504898710748 $347 19.251522148593992 $214 $348 forward 7 unknown #
loop $-1 $-1 $221 $134 #
plane-surface $-1 -73.703421124912282 17.551349319647457 9.3376904341424165 -0.66913061440640931 0 0.74314481823134659 0.74314481823134659 0 0.66913061440640931 forward_v I I I I #
loop $-1 $-1 $349 $86 #
coedge $-1 $219 $219 $220 $350 reversed $135 $-1 #
coedge $-1 $220 $220 $219 $350 forward $137 $-1 #
coedge $-1 $221 $221 $138 $222 forward $216 $-1 #
edge $-1 $351 0 $351 6.2831853071796004 $221 $352 forward 7 unknown #
face $-1 $353 $354 $47 $-1 $355 forward single #
loop $-1 $-1 $356 $139 #
plane-surface $-1 -172.33785204724603 46.515635087440323 118.88232142394506 0 -1 0 0.66913061440640931 0 -0.74314481823134659 forward_v I I I I #
coedge $-1 $357 $358 $359 $360 reversed $140 $-1 #
coedge $-1 $228 $142 $361 $362 reversed $90 $-1 #
coedge $-1 $142 $227 $357 $363 reversed $90 $-1 #
coedge $-1 $359 $364 $142 $230 forward $354 $-1 #
edge $-1 $365 12.465504898710748 $366 19.251522148593992 $229 $367 forward 7 unknown #
loop $-1 $-1 $236 $143 #
plane-surface $-1 -73.703421124912282 41.49077970595421 9.3376904341424165 -0.66913061440640931 0 0.74314481823134659 0.74314481823134659 0 0.66913061440640931 forward_v I I I I #
loop $-1 $-1 $368 $92 #
coedge $-1 $234 $234 $235 $369 reversed $144 $-1 #
coedge $-1 $235 $235 $234 $369 forward $146 $-1 #
coedge $-1 $236 $236 $147 $237 forward $231 $-1 #
edge $-1 $370 0 $370 6.2831853071796004 $236 $371 forward 7 unknown #
face $-1 $372 $373 $49 $-1 $374 reversed single #
loop $-1 $-1 $375 $148 #
plane-surface $-1 0 0 15.447847943675525 0 0 1 1 0 0 forward_v I I I I #
coedge $-1 $376 $377 $378 $379 reversed $149 $-1 #
coedge $-1 $243 $151 $380 $381 reversed $96 $-1 #
coedge $-1 $151 $242 $376 $382 reversed $96 $-1 #
coedge $-1 $378 $383 $151 $245 forward $384 $-1 #
edge $-1 $385 93.448002563310752 $386 99.44191380462388 $244 $387 forward 7 unknown #
loop $-1 $-1 $251 $152 #
plane-surface $-1 -26.82780224503604 41.106472795774749 117.26047764402425 0.73135370988377701 0 0.68199835119979291 0.68199835119979291 0 -0.73135370988377701 forward_v I I I I #
loop $-1 $-1 $388 $98 #
coedge $-1 $249 $249 $250 $389 reversed $153 $-1 #
coedge $-1 $250 $250 $249 $389 forward $155 $-1 #
coedge $-1 $251 $251 $156 $252 forward $246 $-1 #
edge $-1 $390 0 $390 6.2831853071796004 $251 $391 forward 7 unknown #
loop $-1 $-1 $258 $157 #
plane-surface $-1 -26.82780224503604 41.106472795774749 117.26047764402425 0.73135370988377701 0 0.68199835119979291 0.68199835119979291 0 -0.73135370988377701 forward_v I I I I #
loop $-1 $-1 $392 $101 #
coedge $-1 $256 $256 $257 $393 reversed $158 $-1 #
coedge $-1 $257 $257 $256 $393 forward $160 $-1 #
coedge $-1 $258 $258 $161 $259 forward $253 $-1 #
edge $-1 $394 0 $394 6.2831853071796004 $258 $395 forward 7 unknown #
face $-1 $396 $397 $39 $-1 $398 reversed single #
loop $-1 $-1 $399 $162 #
plane-surface $-1 -73.703421124912268 0 0 1 0 0 0 0 -1 forward_v I I I I #
coedge $-1 $400 $271 $401 $402 forward $163 $-1 #
coedge $-1 $403 $165 $400 $404 forward $105 $-1 #
coedge $-1 $165 $403 $405 $406 forward $105 $-1 #
coedge $-1 $274 $273 $165 $267 reversed $275 $-1 #
edge $-1 $407 -50.878461077759724 $408 50.878461077759724 $266 $409 forward 7 unknown #
coedge $-1 $167 $166 $410 $411 forward $66 $-1 #
coedge $-1 $412 $413 $166 $270 reversed $397 $-1 #
edge $-1 $277 -73.703421124912268 $414 73.703421124912268 $269 $415 forward 7 unknown #
coedge $-1 $263 $416 $167 $272 reversed $163 $-1 #
edge $-1 $417 -73.703421124912268 $276 73.703421124912268 $271 $418 forward 7 unknown #
coedge $-1 $266 $168 $416 $419 forward $275 $-1 #
coedge $-1 $168 $266 $412 $420 reversed $275 $-1 #
loop $-1 $-1 $273 $396 #
vertex $-1 $169 $421 #
vertex $-1 $169 $422 #
straight-curve $-1 73.703421124912268 0 15.447847943675525 0 1 0 I I #
face $-1 $423 $424 $40 $-1 $425 reversed single #
loop $-1 $-1 $426 $170 #
plane-surface $-1 -73.703421124912268 0 0 1 0 0 0 0 -1 forward_v I I I I #
coedge $-1 $290 $427 $284 $428 forward $171 $-1 #
coedge $-1 $176 $173 $429 $430 reversed $109 $-1 #
coedge $-1 $173 $176 $282 $428 reversed $109 $-1 #
coedge $-1 $431 $432 $173 $286 forward $433 $-1 #
edge $-1 $434 -15.447847943675525 $435 15.447847943675525 $285 $436 forward 7 unknown #
coedge $-1 $175 $174 $426 $437 reversed $69 $-1 #
coedge $-1 $429 $438 $174 $289 forward $424 $-1 #
edge $-1 $439 -37.876420480909943 $293 -33.777580807094708 $288 $440 forward 7 unknown #
coedge $-1 $441 $282 $175 $291 forward $171 $-1 #
edge $-1 $292 33.777580807094708 $442 37.876420480909943 $290 $443 forward 7 unknown #
vertex $-1 $291 $444 #
vertex $-1 $289 $445 #
straight-curve $-1 -69.604581451097033 -39.715192824771563 0 0 0 -1 I I #
face $-1 $-1 $307 $41 $-1 $446 forward single #
loop $-1 $-1 $447 $178 #
plane-surface $-1 -73.703421124912268 0 0 1 0 0 0 0 -1 forward_v I I I I #
coedge $-1 $448 $449 $450 $451 reversed $179 $-1 #
coedge $-1 $452 $181 $183 $305 forward $113 $-1 #
coedge $-1 $181 $452 $448 $453 forward $113 $-1 #
coedge $-1 $450 $184 $181 $302 forward $307 $-1 #
edge $-1 $309 -20.188611107969137 $454 -10.138900344996912 $301 $455 forward 7 unknown #
coedge $-1 $456 $457 $182 $304 forward $296 $-1 #
edge $-1 $458 -50.103470277830098 $308 -43.993312768297002 $303 $459 forward 7 unknown #
edge $-1 $309 -9.1314870041531009 $458 -1.8881026247711288e-014 $183 $460 forward 7 unknown #
coedge $-1 $184 $450 $456 $461 forward $307 $-1 #
loop $-1 $-1 $450 $295 #
vertex $-1 $304 $462 #
vertex $-1 $185 $463 #
straight-curve $-1 -86.168926023623015 -35.352366834452162 15.447847943675526 1 0 0 I I #
coedge $-1 $311 $311 $-1 $464 reversed $188 $-1 #
edge $-1 $465 0 $465 6.2831853071796004 $189 $466 forward 7 unknown #
vertex $-1 $192 $467 #
ellipse-curve $-1 -70.310412499970639 -30.32751145296605 12.392769188908979 -0.66913061440640931 0 0.74314481823134659 1.4862896364626932 0 1.3382612288128186 1 I I #
face $-1 $-1 $468 $43 $-1 $469 reversed single #
loop $-1 $-1 $199 $193 #
plane-surface $-1 0 0 15.447847943675525 0 0 1 1 0 0 forward_v I I I I #
coedge $-1 $470 $471 $472 $473 reversed $194 $-1 #
coedge $-1 $474 $196 $198 $325 forward $122 $-1 #
coedge $-1 $196 $474 $470 $475 forward $122 $-1 #
coedge $-1 $472 $199 $196 $322 forward $316 $-1 #
edge $-1 $328 -8.2188959148157608 $476 1.8308148481564643 $321 $477 forward 7 unknown #
coedge $-1 $478 $479 $197 $324 forward $468 $-1 #
edge $-1 $480 -50.103470277830098 $327 -43.993312768297002 $323 $481 forward 7 unknown #
edge $-1 $328 -9.1314870041531009 $480 -1.8881026247711288e-014 $198 $482 forward 7 unknown #
coedge $-1 $199 $472 $478 $483 forward $316 $-1 #
vertex $-1 $324 $484 #
vertex $-1 $200 $485 #
straight-curve $-1 -86.168926023623015 -11.412936448145409 15.447847943675526 1 0 0 I I #
coedge $-1 $330 $330 $-1 $486 reversed $203 $-1 #
edge $-1 $487 0 $487 6.2831853071796004 $204 $488 forward 7 unknown #
vertex $-1 $207 $489 #
ellipse-curve $-1 -70.310412499970639 -6.3880810666592964 12.392769188908979 -0.66913061440640931 0 0.74314481823134659 1.4862896364626932 0 1.3382612288128186 1 I I #
face $-1 $-1 $490 $45 $-1 $491 reversed single #
loop $-1 $-1 $214 $208 #
plane-surface $-1 0 0 15.447847943675525 0 0 1 1 0 0 forward_v I I I I #
coedge $-1 $492 $493 $494 $495 reversed $209 $-1 #
coedge $-1 $496 $211 $213 $344 forward $131 $-1 #
coedge $-1 $211 $496 $492 $497 forward $131 $-1 #
coedge $-1 $494 $214 $211 $341 forward $335 $-1 #
edge $-1 $347 3.750819278337616 $498 13.800530041309841 $340 $499 forward 7 unknown #
coedge $-1 $500 $501 $212 $343 forward $490 $-1 #
edge $-1 $502 -50.103470277830098 $346 -43.993312768297002 $342 $503 forward 7 unknown #
edge $-1 $347 -9.1314870041531009 $502 -1.8881026247711288e-014 $213 $504 forward 7 unknown #
coedge $-1 $214 $494 $500 $505 forward $335 $-1 #
vertex $-1 $215 $506 #
vertex $-1 $215 $507 #
straight-curve $-1 -86.168926023623015 12.526493938161344 15.447847943675526 1 0 0 I I #
coedge $-1 $349 $349 $-1 $508 reversed $218 $-1 #
edge $-1 $509 0 $509 6.2831853071796004 $219 $510 forward 7 unknown #
vertex $-1 $222 $511 #
ellipse-curve $-1 -70.310412499970639 17.551349319647457 12.392769188908979 -0.66913061440640931 0 0.74314481823134659 1.4862896364626932 0 1.3382612288128186 1 I I #
face $-1 $-1 $512 $47 $-1 $513 reversed single #
loop $-1 $-1 $229 $223 #
plane-surface $-1 0 0 15.447847943675525 0 0 1 1 0 0 forward_v I I I I #
coedge $-1 $514 $515 $516 $517 reversed $224 $-1 #
coedge $-1 $518 $226 $228 $363 forward $140 $-1 #
coedge $-1 $226 $518 $514 $519 forward $140 $-1 #
coedge $-1 $516 $229 $226 $360 forward $354 $-1 #
edge $-1 $366 15.720534471490993 $520 25.770245234463218 $359 $521 forward 7 unknown #
coedge $-1 $522 $523 $227 $362 forward $512 $-1 #
edge $-1 $524 -50.103470277830098 $365 -43.993312768297002 $361 $525 forward 7 unknown #
edge $-1 $366 -9.1314870041531009 $524 -1.8881026247711288e-014 $228 $526 forward 7 unknown #
coedge $-1 $229 $516 $522 $527 forward $354 $-1 #
vertex $-1 $230 $528 #
vertex $-1 $230 $529 #
straight-curve $-1 -86.168926023623015 36.465924324468098 15.447847943675526 1 0 0 I I #
coedge $-1 $368 $368 $-1 $530 reversed $233 $-1 #
edge $-1 $531 0 $531 6.2831853071796004 $234 $532 forward 7 unknown #
vertex $-1 $237 $533 #
ellipse-curve $-1 -70.310412499970639 41.49077970595421 12.392769188908979 -0.66913061440640931 0 0.74314481823134659 1.4862896364626932 0 1.3382612288128186 1 I I #
face $-1 $-1 $384 $49 $-1 $534 reversed single #
loop $-1 $-1 $535 $238 #
plane-surface $-1 0 50.878461077759724 0 0 -1 0 0 0 -1 forward_v I I I I #
coedge $-1 $380 $536 $537 $538 forward $239 $-1 #
coedge $-1 $537 $241 $243 $382 forward $149 $-1 #
coedge $-1 $241 $537 $535 $539 reversed $149 $-1 #
coedge $-1 $540 $244 $241 $379 forward $384 $-1 #
edge $-1 $386 10.7812481159024 $541 30.325224679872349 $378 $542 forward 7 unknown #
coedge $-1 $543 $375 $242 $381 forward $239 $-1 #
edge $-1 $544 27.624639254903002 $385 33.214051776599362 $380 $545 forward 7 unknown #
edge $-1 $386 -147.40684224982454 $544 -139.21120290280368 $243 $546 forward 7 unknown #
coedge $-1 $244 $540 $543 $547 reversed $384 $-1 #
loop $-1 $-1 $378 $372 #
vertex $-1 $547 $548 #
vertex $-1 $245 $549 #
straight-curve $-1 73.703421124912268 31.334484513789775 108.89585050698628 0 0 -1 I I #
coedge $-1 $388 $388 $-1 $550 reversed $248 $-1 #
edge $-1 $551 0 $551 6.2831853071796004 $249 $552 forward 7 unknown #
vertex $-1 $252 $553 #
ellipse-curve $-1 70.908714864064066 36.918477817781195 12.450892323018962 0.73135370988377701 0 0.68199835119979291 1.3639967023995858 0 -1.462707419767554 1 I I #
coedge $-1 $392 $392 $-1 $554 reversed $255 $-1 #
edge $-1 $555 0 $555 6.2831853071796004 $256 $556 forward 7 unknown #
vertex $-1 $259 $557 #
ellipse-curve $-1 70.908714864064066 45.294467773768318 12.450892323018962 0.73135370988377701 0 0.68199835119979291 1.3639967023995858 0 -1.462707419767554 1 I I #
face $-1 $-1 $275 $39 $-1 $558 reversed single #
loop $-1 $-1 $412 $260 #
plane-surface $-1 0 50.878461077759724 0 0 -1 0 0 0 -1 forward_v I I I I #
coedge $-1 $559 $410 $413 $560 forward $261 $-1 #
coedge $-1 $416 $263 $264 $404 reversed $163 $-1 #
coedge $-1 $410 $559 $263 $402 reversed $261 $-1 #
edge $-1 $417 -15.447847943675525 $561 15.447847943675525 $401 $562 forward 7 unknown #
coedge $-1 $265 $264 $559 $563 forward $105 $-1 #
edge $-1 $408 -73.703421124912268 $561 73.703421124912268 $400 $564 forward 7 unknown #
coedge $-1 $413 $412 $265 $406 reversed $397 $-1 #
edge $-1 $565 -73.703421124912268 $407 73.703421124912268 $405 $566 forward 7 unknown #
vertex $-1 $267 $567 #
vertex $-1 $419 $568 #
straight-curve $-1 73.703421124912268 0 -15.447847943675525 0 -1 0 I I #
coedge $-1 $399 $401 $268 $411 reversed $261 $-1 #
edge $-1 $414 -50.878461077759724 $417 50.878461077759724 $410 $569 forward 7 unknown #
coedge $-1 $405 $269 $274 $420 forward $397 $-1 #
coedge $-1 $269 $405 $399 $560 reversed $397 $-1 #
vertex $-1 $270 $570 #
straight-curve $-1 0 50.878461077759724 15.447847943675525 -1 0 0 I I #
coedge $-1 $271 $400 $273 $419 reversed $163 $-1 #
vertex $-1 $411 $571 #
straight-curve $-1 0 -50.878461077759724 15.447847943675525 1 0 0 I I #
edge $-1 $276 -15.447847943675525 $408 15.447847943675525 $273 $572 forward 7 unknown #
edge $-1 $277 -15.447847943675525 $407 15.447847943675525 $274 $573 forward 7 unknown #
point $-1 73.703421124912268 -50.878461077759724 15.447847943675525 #
point $-1 73.703421124912268 50.878461077759724 15.447847943675525 #
face $-1 $-1 $433 $40 $-1 $574 reversed single #
loop $-1 $-1 $429 $279 #
plane-surface $-1 0 0 -15.447847943675525 0 0 1 1 0 0 forward_v I I I I #
coedge $-1 $575 $576 $287 $437 forward $280 $-1 #
coedge $-1 $282 $441 $431 $577 forward $171 $-1 #
edge $-1 $435 -28.230047602126902 $292 -17.066779349138741 $282 $578 forward 7 unknown #
coedge $-1 $579 $288 $283 $430 forward $424 $-1 #
edge $-1 $293 17.066779349138741 $434 28.230047602126902 $429 $580 forward 7 unknown #
coedge $-1 $581 $285 $427 $577 reversed $433 $-1 #
coedge $-1 $285 $581 $579 $582 reversed $433 $-1 #
loop $-1 $-1 $285 $423 #
vertex $-1 $582 $583 #
vertex $-1 $286 $584 #
straight-curve $-1 -69.604581451097033 -50.878461077759724 0 0 0 1 I I #
edge $-1 $442 -15.447847943675525 $439 15.447847943675525 $426 $585 forward 7 unknown #
coedge $-1 $288 $579 $575 $586 forward $424 $-1 #
vertex $-1 $289 $587 #
straight-curve $-1 -35.827000644002325 -39.715192824771563 -15.447847943675525 1 0 0 I I #
coedge $-1 $427 $290 $576 $588 forward $171 $-1 #
vertex $-1 $588 $589 #
straight-curve $-1 -35.827000644002325 -39.715192824771563 15.447847943675525 -1 0 0 I I #
point $-1 -69.604581451097033 -39.715192824771563 15.447847943675525 #
point $-1 -69.604581451097033 -39.715192824771563 -15.447847943675525 #
plane-surface $-1 0 0 15.447847943675525 0 0 1 1 0 0 forward_v I I I I #
coedge $-1 $457 $456 $449 $590 forward $296 $-1 #
coedge $-1 $449 $298 $300 $453 reversed $179 $-1 #
coedge $-1 $298 $448 $447 $590 reversed $179 $-1 #
coedge $-1 $306 $301 $298 $451 forward $307 $-1 #
edge $-1 $454 -19.251522148593992 $591 -12.465504898710748 $450 $592 forward 7 unknown #
coedge $-1 $300 $299 $457 $593 reversed $113 $-1 #
edge $-1 $594 1.8881026247711288e-014 $454 9.1314870041531009 $448 $595 forward 7 unknown #
vertex $-1 $302 $596 #
straight-curve $-1 -66.917403875029024 -15.163755726483025 15.447847943675523 0 1 0 I I #
coedge $-1 $447 $303 $306 $461 reversed $296 $-1 #
coedge $-1 $303 $447 $452 $593 forward $296 $-1 #
vertex $-1 $304 $597 #
straight-curve $-1 -73.703421124912268 -35.352366834452162 59.441160711972529 0 0 1 I I #
straight-curve $-1 -73.703421124912282 -35.352366834452162 9.3376904341424165 -0.74314481823134659 0 -0.66913061440640931 I I #
edge $-1 $591 25.302656071479937 $308 35.352366834452162 $456 $598 forward 7 unknown #
point $-1 -73.703421124912268 -35.352366834452162 15.447847943675525 #
point $-1 -66.917403875029024 -35.352366834452162 15.447847943675525 #
edge $-1 $599 1 $599 0 $311 $-1 forward 7 unknown #
vertex $-1 $312 $600 #
ellipse-curve $-1 -67.36057713169663 -30.32751145296605 9.1166451835635183 -0.66913061440640931 0 0.74314481823134659 1.4862896364626932 0 1.3382612288128186 1 I I #
point $-1 -68.824122863507952 -30.32751145296605 13.731030417721788 #
loop $-1 $-1 $323 $315 #
plane-surface $-1 -73.703421124912268 0 0 1 0 0 0 0 -1 forward_v I I I I #
coedge $-1 $471 $318 $320 $475 reversed $194 $-1 #
coedge $-1 $318 $470 $601 $602 reversed $194 $-1 #
coedge $-1 $326 $321 $318 $473 forward $316 $-1 #
edge $-1 $476 -19.251522148593992 $603 -12.465504898710748 $472 $604 forward 7 unknown #
coedge $-1 $320 $319 $479 $605 reversed $122 $-1 #
edge $-1 $606 1.8881026247711288e-014 $476 9.1314870041531009 $470 $607 forward 7 unknown #
vertex $-1 $322 $608 #
straight-curve $-1 -66.917403875029024 -3.1940405333296482 15.447847943675523 0 1 0 I I #
coedge $-1 $601 $323 $326 $483 reversed $468 $-1 #
coedge $-1 $323 $601 $474 $605 forward $468 $-1 #
vertex $-1 $324 $609 #
straight-curve $-1 -73.703421124912268 -11.412936448145409 59.441160711972529 0 0 1 I I #
straight-curve $-1 -73.703421124912282 -11.412936448145409 9.3376904341424165 -0.74314481823134659 0 -0.66913061440640931 I I #
edge $-1 $603 1.3632256851731839 $327 11.412936448145409 $478 $610 forward 7 unknown #
point $-1 -73.703421124912268 -11.412936448145409 15.447847943675525 #
point $-1 -66.917403875029024 -11.412936448145409 15.447847943675525 #
edge $-1 $611 1 $611 0 $330 $-1 forward 7 unknown #
vertex $-1 $331 $612 #
ellipse-curve $-1 -67.36057713169663 -6.3880810666592964 9.1166451835635183 -0.66913061440640931 0 0.74314481823134659 1.4862896364626932 0 1.3382612288128186 1 I I #
point $-1 -68.824122863507952 -6.3880810666592964 13.731030417721788 #
loop $-1 $-1 $342 $334 #
plane-surface $-1 -73.703421124912268 0 0 1 0 0 0 0 -1 forward_v I I I I #
coedge $-1 $493 $337 $339 $497 reversed $209 $-1 #
coedge $-1 $337 $492 $613 $614 reversed $209 $-1 #
coedge $-1 $345 $340 $337 $495 forward $335 $-1 #
edge $-1 $498 -19.251522148593992 $615 -12.465504898710748 $494 $616 forward 7 unknown #
coedge $-1 $339 $338 $501 $617 reversed $131 $-1 #
edge $-1 $618 1.8881026247711288e-014 $498 9.1314870041531009 $492 $619 forward 7 unknown #
vertex $-1 $341 $620 #
straight-curve $-1 -66.917403875029024 8.7756746598237285 15.447847943675523 0 1 0 I I #
coedge $-1 $613 $342 $345 $505 reversed $490 $-1 #
coedge $-1 $342 $613 $496 $617 forward $490 $-1 #
vertex $-1 $343 $621 #
straight-curve $-1 -73.703421124912268 12.526493938161344 59.441160711972529 0 0 1 I I #
straight-curve $-1 -73.703421124912282 12.526493938161344 9.3376904341424165 -0.74314481823134659 0 -0.66913061440640931 I I #
edge $-1 $615 -22.57620470113357 $346 -12.526493938161344 $500 $622 forward 7 unknown #
point $-1 -73.703421124912268 12.526493938161344 15.447847943675525 #
point $-1 -66.917403875029024 12.526493938161344 15.447847943675525 #
edge $-1 $623 1 $623 0 $349 $-1 forward 7 unknown #
vertex $-1 $350 $624 #
ellipse-curve $-1 -67.36057713169663 17.551349319647457 9.1166451835635183 -0.66913061440640931 0 0.74314481823134659 1.4862896364626932 0 1.3382612288128186 1 I I #
point $-1 -68.824122863507952 17.551349319647457 13.731030417721788 #
loop $-1 $-1 $361 $353 #
plane-surface $-1 -73.703421124912268 0 0 1 0 0 0 0 -1 forward_v I I I I #
coedge $-1 $515 $356 $358 $519 reversed $224 $-1 #
coedge $-1 $356 $514 $625 $626 reversed $224 $-1 #
coedge $-1 $364 $359 $356 $517 forward $354 $-1 #
edge $-1 $520 -19.251522148593992 $627 -12.465504898710748 $516 $628 forward 7 unknown #
coedge $-1 $358 $357 $523 $629 reversed $140 $-1 #
edge $-1 $630 1.8881026247711288e-014 $520 9.1314870041531009 $514 $631 forward 7 unknown #
vertex $-1 $360 $632 #
straight-curve $-1 -66.917403875029024 20.745389852977105 15.447847943675523 0 1 0 I I #
coedge $-1 $625 $361 $364 $527 reversed $512 $-1 #
coedge $-1 $361 $625 $518 $629 forward $512 $-1 #
vertex $-1 $362 $633 #
straight-curve $-1 -73.703421124912268 36.465924324468098 59.441160711972529 0 0 1 I I #
straight-curve $-1 -73.703421124912282 36.465924324468098 9.3376904341424165 -0.74314481823134659 0 -0.66913061440640931 I I #
edge $-1 $627 -46.515635087440323 $365 -36.465924324468098 $522 $634 forward 7 unknown #
point $-1 -73.703421124912268 36.465924324468098 15.447847943675525 #
point $-1 -66.917403875029024 36.465924324468098 15.447847943675525 #
edge $-1 $635 1 $635 0 $368 $-1 forward 7 unknown #
vertex $-1 $369 $636 #
ellipse-curve $-1 -67.36057713169663 41.49077970595421 9.1166451835635183 -0.66913061440640931 0 0.74314481823134659 1.4862896364626932 0 1.3382612288128186 1 I I #
point $-1 -68.824122863507952 41.49077970595421 13.731030417721788 #
plane-surface $-1 73.703421124912268 0 0 -1 0 0 0 0 1 forward_v I I I I #
coedge $-1 $637 $638 $377 $539 forward $373 $-1 #
coedge $-1 $375 $543 $637 $639 forward $239 $-1 #
coedge $-1 $377 $376 $375 $538 reversed $149 $-1 #
edge $-1 $640 -30.325224679872349 $544 -10.7812481159024 $375 $641 forward 7 unknown #
edge $-1 $541 -95.379141127259743 $640 -87.183501780238942 $535 $642 forward 7 unknown #
coedge $-1 $383 $378 $638 $643 reversed $384 $-1 #
vertex $-1 $379 $644 #
straight-curve $-1 73.703421124912268 20.553236397887375 9.453936702362391 0 1 0 I I #
coedge $-1 $536 $380 $383 $547 forward $239 $-1 #
vertex $-1 $381 $645 #
straight-curve $-1 40.489369348312906 31.334484513789775 15.447847943675526 1 0 0 I I #
straight-curve $-1 -26.82780224503604 31.334484513789775 117.26047764402425 -0.68199835119979291 0 0.73135370988377701 I I #
edge $-1 $385 31.334484513789775 $646 50.878461077759724 $383 $647 forward 7 unknown #
point $-1 73.703421124912268 31.334484513789775 15.447847943675525 #
point $-1 73.703421124912268 31.334484513789775 9.4539367023623981 #
edge $-1 $648 1 $648 0 $388 $-1 forward 7 unknown #
vertex $-1 $389 $649 #
ellipse-curve $-1 67.398386687292899 36.918477817781195 9.1774584204158458 0.73135370988377701 0 0.68199835119979291 1.3639967023995858 0 -1.462707419767554 1 I I #
point $-1 72.27271156646367 36.918477817781195 10.988184903251408 #
edge $-1 $650 1 $650 0 $392 $-1 forward 7 unknown #
vertex $-1 $393 $651 #
ellipse-curve $-1 67.398386687292899 45.294467773768318 9.1774584204158458 0.73135370988377701 0 0.68199835119979291 1.3639967023995858 0 -1.462707419767554 1 I I #
point $-1 72.27271156646367 45.294467773768318 10.988184903251408 #
plane-surface $-1 73.703421124912268 0 0 -1 0 0 0 0 1 forward_v I I I I #
coedge $-1 $401 $399 $403 $563 reversed $261 $-1 #
edge $-1 $414 -15.447847943675525 $565 15.447847943675525 $413 $652 forward 7 unknown #
vertex $-1 $563 $653 #
straight-curve $-1 -73.703421124912268 -50.878461077759724 0 0 0 -1 I I #
edge $-1 $561 -50.878461077759724 $565 50.878461077759724 $559 $654 forward 7 unknown #
straight-curve $-1 0 -50.878461077759724 -15.447847943675525 -1 0 0 I I #
vertex $-1 $406 $655 #
straight-curve $-1 0 50.878461077759724 -15.447847943675525 1 0 0 I I #
point $-1 73.703421124912268 50.878461077759724 -15.447847943675525 #
point $-1 73.703421124912268 -50.878461077759724 -15.447847943675525 #
straight-curve $-1 -73.703421124912268 0 15.447847943675525 0 -1 0 I I #
point $-1 -73.703421124912268 50.878461077759724 15.447847943675525 #
point $-1 -73.703421124912268 -50.878461077759724 15.447847943675525 #
straight-curve $-1 73.703421124912268 -50.878461077759724 0 0 0 -1 I I #
straight-curve $-1 73.703421124912268 50.878461077759724 0 0 0 -1 I I #
plane-surface $-1 0 -50.878461077759724 0 0 1 0 0 0 1 forward_v I I I I #
coedge $-1 $656 $426 $438 $586 reversed $280 $-1 #
coedge $-1 $426 $656 $441 $588 reversed $280 $-1 #
edge $-1 $657 -73.703421124912268 $435 -69.604581451097033 $431 $658 forward 7 unknown #
straight-curve $-1 -69.604581451097033 -22.648413475632822 15.447847943675525 0 1 0 I I #
coedge $-1 $438 $429 $432 $582 forward $424 $-1 #
straight-curve $-1 -69.604581451097033 -22.648413475632822 -15.447847943675525 0 -1 0 I I #
coedge $-1 $432 $431 $656 $659 forward $433 $-1 #
edge $-1 $434 69.604581451097033 $660 73.703421124912268 $432 $661 forward 7 unknown #
point $-1 -69.604581451097033 -50.878461077759724 -15.447847943675525 #
point $-1 -69.604581451097033 -50.878461077759724 15.447847943675525 #
straight-curve $-1 -73.703421124912268 -39.715192824771563 0 0 0 -1 I I #
edge $-1 $660 -50.878461077759724 $439 -39.715192824771563 $575 $662 forward 7 unknown #
point $-1 -73.703421124912268 -39.715192824771563 -15.447847943675525 #
edge $-1 $442 39.715192824771563 $657 50.878461077759724 $576 $663 forward 7 unknown #
point $-1 -73.703421124912268 -39.715192824771563 15.447847943675525 #
edge $-1 $591 43.993312768297002 $594 50.103470277830098 $447 $664 forward 7 unknown #
vertex $-1 $461 $665 #
straight-curve $-1 -86.168926023623015 -25.302656071479937 15.447847943675526 -1 0 0 I I #
edge $-1 $594 10.138900344996912 $458 20.188611107969137 $457 $666 forward 7 unknown #
vertex $-1 $593 $667 #
straight-curve $-1 -73.703421124912282 -25.302656071479937 9.3376904341424165 0.74314481823134659 0 0.66913061440640931 I I #
point $-1 -66.917403875029024 -25.302656071479937 15.447847943675525 #
point $-1 -73.703421124912268 -35.352366834452162 9.3376904341424289 #
straight-curve $-1 -73.703421124912268 0 15.447847943675525 0 -1 0 I I #
vertex $-1 $464 $668 #
point $-1 -65.874287495233929 -30.32751145296605 10.454906412376337 #
coedge $-1 $479 $478 $471 $602 forward $468 $-1 #
edge $-1 $603 43.993312768297002 $606 50.103470277830098 $601 $669 forward 7 unknown #
vertex $-1 $483 $670 #
straight-curve $-1 -86.168926023623015 -1.3632256851731839 15.447847943675526 -1 0 0 I I #
edge $-1 $606 -1.8308148481564643 $480 8.2188959148157608 $479 $671 forward 7 unknown #
vertex $-1 $605 $672 #
straight-curve $-1 -73.703421124912282 -1.3632256851731839 9.3376904341424165 0.74314481823134659 0 0.66913061440640931 I I #
point $-1 -66.917403875029024 -1.3632256851731839 15.447847943675525 #
point $-1 -73.703421124912268 -11.412936448145409 9.3376904341424289 #
straight-curve $-1 -73.703421124912268 0 15.447847943675525 0 -1 0 I I #
vertex $-1 $486 $673 #
point $-1 -65.874287495233929 -6.3880810666592964 10.454906412376337 #
coedge $-1 $501 $500 $493 $614 forward $490 $-1 #
edge $-1 $615 43.993312768297002 $618 50.103470277830098 $613 $674 forward 7 unknown #
vertex $-1 $505 $675 #
straight-curve $-1 -86.168926023623015 22.57620470113357 15.447847943675526 -1 0 0 I I #
edge $-1 $618 -13.800530041309841 $502 -3.750819278337616 $501 $676 forward 7 unknown #
vertex $-1 $617 $677 #
straight-curve $-1 -73.703421124912282 22.57620470113357 9.3376904341424165 0.74314481823134659 0 0.66913061440640931 I I #
point $-1 -66.917403875029024 22.57620470113357 15.447847943675525 #
point $-1 -73.703421124912268 12.526493938161344 9.3376904341424289 #
straight-curve $-1 -73.703421124912268 0 15.447847943675525 0 -1 0 I I #
vertex $-1 $508 $678 #
point $-1 -65.874287495233929 17.551349319647457 10.454906412376337 #
coedge $-1 $523 $522 $515 $626 forward $512 $-1 #
edge $-1 $627 43.993312768297002 $630 50.103470277830098 $625 $679 forward 7 unknown #
vertex $-1 $527 $680 #
straight-curve $-1 -86.168926023623015 46.515635087440323 15.447847943675526 -1 0 0 I I #
edge $-1 $630 -25.770245234463218 $524 -15.720534471490993 $523 $681 forward 7 unknown #
vertex $-1 $629 $682 #
straight-curve $-1 -73.703421124912282 46.515635087440323 9.3376904341424165 0.74314481823134659 0 0.66913061440640931 I I #
point $-1 -66.917403875029024 46.515635087440323 15.447847943675525 #
point $-1 -73.703421124912268 36.465924324468098 9.3376904341424289 #
straight-curve $-1 -73.703421124912268 0 15.447847943675525 0 -1 0 I I #
vertex $-1 $530 $683 #
point $-1 -65.874287495233929 41.49077970595421 10.454906412376337 #
coedge $-1 $638 $535 $536 $639 reversed $373 $-1 #
coedge $-1 $535 $637 $540 $643 forward $373 $-1 #
edge $-1 $646 -73.703421124912268 $640 -68.114008603215908 $637 $684 forward 7 unknown #
vertex $-1 $538 $685 #
straight-curve $-1 68.114008603215908 20.553236397887375 15.447847943675512 0 -1 0 I I #
straight-curve $-1 8.6550041372687403 50.878461077759724 79.209825411312153 -0.68199835119979291 0 0.73135370988377701 I I #
edge $-1 $646 -15.447847943675525 $541 -9.4539367023623928 $540 $686 forward 7 unknown #
point $-1 73.703421124912268 50.878461077759724 9.4539367023623928 #
point $-1 68.114008603215908 31.334484513789775 15.447847943675526 #
vertex $-1 $547 $687 #
straight-curve $-1 73.703421124912268 0 15.447847943675525 0 1 0 I I #
vertex $-1 $550 $688 #
point $-1 68.762383389692488 36.918477817781195 7.7147510006482918 #
vertex $-1 $554 $689 #
point $-1 68.762383389692488 45.294467773768318 7.7147510006482918 #
straight-curve $-1 -73.703421124912268 50.878461077759724 0 0 0 -1 I I #
point $-1 -73.703421124912268 -50.878461077759724 -15.447847943675525 #
straight-curve $-1 -73.703421124912268 0 -15.447847943675525 0 1 0 I I #
point $-1 -73.703421124912268 50.878461077759724 -15.447847943675525 #
coedge $-1 $576 $575 $581 $659 reversed $280 $-1 #
vertex $-1 $588 $690 #
straight-curve $-1 0 -50.878461077759724 15.447847943675525 1 0 0 I I #
edge $-1 $657 -15.447847943675525 $660 15.447847943675525 $656 $691 forward 7 unknown #
vertex $-1 $586 $692 #
straight-curve $-1 0 -50.878461077759724 -15.447847943675525 -1 0 0 I I #
straight-curve $-1 -73.703421124912268 0 -15.447847943675525 0 1 0 I I #
straight-curve $-1 -73.703421124912268 0 15.447847943675525 0 -1 0 I I #
straight-curve $-1 -73.703421124912268 -25.302656071479937 59.441160711972529 0 0 -1 I I #
point $-1 -73.703421124912268 -25.302656071479937 15.447847943675525 #
straight-curve $-1 -73.703421124912268 -15.163755726483025 9.3376904341424236 0 -1 0 I I #
point $-1 -73.703421124912268 -25.302656071479937 9.3376904341424289 #
point $-1 -66.022315902883804 -30.32751145296605 7.6303555471008249 #
straight-curve $-1 -73.703421124912268 -1.3632256851731839 59.441160711972529 0 0 -1 I I #
point $-1 -73.703421124912268 -1.3632256851731839 15.447847943675525 #
straight-curve $-1 -73.703421124912268 -3.1940405333296482 9.3376904341424236 0 -1 0 I I #
point $-1 -73.703421124912268 -1.3632256851731839 9.3376904341424289 #
point $-1 -66.022315902883804 -6.3880810666592964 7.6303555471008249 #
straight-curve $-1 -73.703421124912268 22.57620470113357 59.441160711972529 0 0 -1 I I #
point $-1 -73.703421124912268 22.57620470113357 15.447847943675525 #
straight-curve $-1 -73.703421124912268 8.7756746598237285 9.3376904341424236 0 -1 0 I I #
point $-1 -73.703421124912268 22.57620470113357 9.3376904341424289 #
point $-1 -66.022315902883804 17.551349319647457 7.6303555471008249 #
straight-curve $-1 -73.703421124912268 46.515635087440323 59.441160711972529 0 0 -1 I I #
point $-1 -73.703421124912268 46.515635087440323 15.447847943675525 #
straight-curve $-1 -73.703421124912268 20.745389852977105 9.3376904341424236 0 -1 0 I I #
point $-1 -73.703421124912268 46.515635087440323 9.3376904341424289 #
point $-1 -66.022315902883804 41.49077970595421 7.6303555471008249 #
straight-curve $-1 0 50.878461077759724 15.447847943675525 -1 0 0 I I #
point $-1 68.114008603215908 50.878461077759724 15.447847943675526 #
straight-curve $-1 73.703421124912268 50.878461077759724 0 0 0 -1 I I #
point $-1 73.703421124912268 50.878461077759724 15.447847943675525 #
point $-1 65.935679267525344 36.918477817781195 7.81346171801626 #
point $-1 65.935679267525344 45.294467773768318 7.81346171801626 #
point $-1 -73.703421124912268 -50.878461077759724 15.447847943675525 #
straight-curve $-1 -73.703421124912268 -50.878461077759724 0 0 0 -1 I I #
point $-1 -73.703421124912268 -50.878461077759724 -15.447847943675525 #
End-of-ACIS-data 