500 0 6 0           
7 Unknown 11 ACIS 5.0 NT 24 Fri Mar 26 19:44:50 1999 
-1 9.9999999999999995e-007 1e-010 
body $-1 $6 $-1 $7 #
body $-1 $8 $-1 $9 #
body $-1 $10 $-1 $11 #
body $-1 $12 $-1 $13 #
body $-1 $14 $-1 $15 #
body $-1 $16 $-1 $17 #
lump $-1 $-1 $18 $0 #
transform $-1 1 0 0 0 1 0 0 0 1 68.925443281350141 31.617104413861188 6.3512102015111882 1 rotate no_reflect no_shear #
lump $-1 $-1 $19 $1 #
transform $-1 1 0 0 0 1 0 0 0 1 68.925443281350141 31.617104413861188 6.3512102015111882 1 rotate no_reflect no_shear #
lump $-1 $-1 $20 $2 #
transform $-1 1 0 0 0 1 0 0 0 1 68.925443281350141 31.617104413861188 6.3512102015111882 1 rotate no_reflect no_shear #
lump $-1 $-1 $21 $3 #
transform $-1 1 0 0 0 1 0 0 0 1 68.925443281350141 31.617104413861188 6.3512102015111882 1 rotate no_reflect no_shear #
lump $-1 $-1 $22 $4 #
transform $-1 1 0 0 0 1 0 0 0 1 68.925443281350141 31.617104413861188 6.3512102015111882 1 rotate no_reflect no_shear #
lump $-1 $-1 $23 $5 #
transform $-1 1 0 0 0 1 0 0 0 1 68.925443281350141 31.617104413861188 6.3512102015111882 1 rotate no_reflect no_shear #
shell $-1 $-1 $-1 $24 $-1 $6 #
shell $-1 $-1 $-1 $25 $-1 $8 #
shell $-1 $-1 $-1 $26 $-1 $10 #
shell $-1 $-1 $-1 $27 $-1 $12 #
shell $-1 $-1 $-1 $28 $-1 $14 #
shell $-1 $-1 $-1 $29 $-1 $16 #
face $-1 $30 $31 $18 $-1 $32 forward single #
face $-1 $33 $34 $19 $-1 $35 reversed single #
face $-1 $36 $37 $20 $-1 $38 forward single #
face $-1 $39 $40 $21 $-1 $41 reversed single #
face $-1 $42 $43 $22 $-1 $44 forward single #
face $-1 $45 $46 $23 $-1 $47 forward single #
face $-1 $48 $49 $18 $-1 $50 reversed single #
loop $-1 $-1 $51 $24 #
plane-surface $-1 0 0 6.3512102015111882 0 0 1 1 0 0 forward_v I I I I #
face $-1 $52 $53 $19 $-1 $54 reversed single #
loop $-1 $-1 $55 $25 #
plane-surface $-1 -59.223022878327768 -28.29636368351828 0 1 0 0 0 0 -1 forward_v I I I I #
face $-1 $56 $57 $20 $-1 $58 reversed single #
loop $-1 $-1 $59 $26 #
plane-surface $-1 0 28.217240556092545 -3.3512102015111882 0 0 1 1 0 0 forward_v I I I I #
face $-1 $60 $61 $21 $-1 $62 reversed single #
loop $-1 $-1 $63 $27 #
plane-surface $-1 79.128371414499014 2.1499665763967251 195.60940847846942 0 -1 0 -0.74314483375859142 0 -0.66913059716165679 forward_v I I I I #
face $-1 $64 $65 $22 $-1 $66 forward single #
loop $-1 $67 $68 $28 #
cone-surface $-1 65.288731248928372 -3.2227416691969317 2.5632771365508247 -0.74314483375859142 0 -0.66913059716165679 0.66913059716165679 0 -0.74314483375859142 1 I I 0 1 1 forward I I I I #
face $-1 $69 $70 $23 $-1 $71 forward single #
loop $-1 $72 $73 $29 #
cone-surface $-1 65.288731248928372 0.00088327815926447784 2.5632771365508247 -0.74314483375859142 0 -0.66913059716165679 0.66913059716165679 0 -0.74314483375859142 1 I I 0 1 1 forward I I I I #
face $-1 $74 $75 $18 $-1 $76 reversed single #
loop $-1 $-1 $77 $30 #
plane-surface $-1 0 0 -6.3512102015111882 0 0 1 1 0 0 forward_v I I I I #
coedge $-1 $78 $79 $80 $81 forward $31 $-1 #
face $-1 $82 $83 $19 $-1 $84 reversed single #
loop $-1 $-1 $85 $33 #
plane-surface $-1 -57.723022878327768 -24.975622953175371 0 0 -1 0 0 0 -1 forward_v I I I I #
coedge $-1 $86 $87 $88 $89 forward $34 $-1 #
face $-1 $90 $91 $20 $-1 $92 reversed single #
loop $-1 $-1 $93 $36 #
plane-surface $-1 0 24.817376698323905 -4.8512102015111882 0 1 0 0 0 1 forward_v I I I I #
coedge $-1 $94 $95 $96 $97 reversed $37 $-1 #
face $-1 $98 $99 $21 $-1 $100 reversed single #
loop $-1 $-1 $101 $39 #
plane-surface $-1 -23.314802763613329 -1.6109291955188354 103.36916243350596 0.74314483375859142 0 0.66913059716165679 0.66913059716165679 0 -0.74314483375859142 forward_v I I I I #
coedge $-1 $102 $103 $104 $105 reversed $40 $-1 #
face $-1 $-1 $106 $22 $-1 $107 forward single #
loop $-1 $108 $109 $42 #
cone-surface $-1 63.722892629587449 -3.2227416691969317 1.1533897460684326 -0.74314483375859142 0 -0.66913059716165679 0.3345652985808284 0 -0.37157241687929571 1 I I -0.70710678118654746 0.70710678118654746 0.5 forward I I I I #
loop $-1 $-1 $110 $28 #
coedge $-1 $68 $68 $111 $112 reversed $43 $-1 #
face $-1 $-1 $113 $23 $-1 $114 forward single #
loop $-1 $115 $116 $45 #
cone-surface $-1 63.722892629587449 0.00088327815926447784 1.1533897460684326 -0.74314483375859142 0 -0.66913059716165679 0.3345652985808284 0 -0.37157241687929571 1 I I -0.70710678118654746 0.70710678118654746 0.5 forward I I I I #
loop $-1 $-1 $117 $29 #
coedge $-1 $73 $73 $118 $119 reversed $46 $-1 #
face $-1 $120 $121 $18 $-1 $122 reversed single #
loop $-1 $-1 $123 $48 #
plane-surface $-1 0 -31.617104413861188 0 0 1 0 0 0 1 forward_v I I I I #
coedge $-1 $124 $125 $126 $127 forward $49 $-1 #
coedge $-1 $128 $51 $129 $130 forward $31 $-1 #
coedge $-1 $51 $128 $131 $132 forward $31 $-1 #
coedge $-1 $133 $134 $51 $81 reversed $135 $-1 #
edge $-1 $136 -31.617104413861188 $137 31.617104413861188 $80 $138 forward 7 unknown #
face $-1 $139 $140 $19 $-1 $141 forward single #
loop $-1 $-1 $142 $52 #
plane-surface $-1 -56.223022878327768 -28.29636368351828 0 -1 0 0 0 0 1 forward_v I I I I #
coedge $-1 $143 $144 $145 $146 forward $53 $-1 #
coedge $-1 $147 $55 $148 $149 reversed $34 $-1 #
coedge $-1 $55 $147 $150 $151 reversed $34 $-1 #
coedge $-1 $144 $143 $55 $89 reversed $53 $-1 #
edge $-1 $152 -6.3512102015111882 $153 6.3512102015111882 $88 $154 forward 7 unknown #
face $-1 $155 $156 $20 $-1 $157 reversed single #
loop $-1 $-1 $158 $56 #
plane-surface $-1 0 31.617104413861188 0 0 -1 0 0 0 -1 forward_v I I I I #
coedge $-1 $159 $160 $161 $162 reversed $57 $-1 #
coedge $-1 $163 $59 $158 $164 reversed $37 $-1 #
coedge $-1 $59 $163 $160 $165 forward $37 $-1 #
coedge $-1 $166 $167 $59 $97 forward $156 $-1 #
edge $-1 $168 -17.508484135814911 $169 -10.708756420277632 $96 $170 forward 7 unknown #
face $-1 $171 $172 $21 $-1 $173 reversed single #
loop $-1 $-1 $174 $60 #
plane-surface $-1 79.128371414499014 -5.3718249674343959 195.60940847846942 0 1 0 0.74314483375859142 0 0.66913059716165679 forward_v I I I I #
coedge $-1 $175 $176 $177 $178 reversed $61 $-1 #
coedge $-1 $103 $63 $179 $180 reversed $40 $-1 #
coedge $-1 $63 $102 $175 $181 reversed $40 $-1 #
coedge $-1 $177 $182 $63 $105 forward $183 $-1 #
edge $-1 $184 -29.361257574100634 $185 -24.476365914180349 $104 $186 forward 7 unknown #
loop $-1 $-1 $111 $64 #
plane-surface $-1 -23.314802763613329 -1.6109291955188354 103.36916243350596 0.74314483375859142 0 0.66913059716165679 0.66913059716165679 0 -0.74314483375859142 forward_v I I I I #
loop $-1 $-1 $187 $42 #
coedge $-1 $109 $109 $110 $188 reversed $65 $-1 #
coedge $-1 $110 $110 $109 $188 forward $67 $-1 #
coedge $-1 $111 $111 $68 $112 forward $106 $-1 #
edge $-1 $189 0 $189 6.2831853071796004 $111 $190 forward 7 unknown #
loop $-1 $-1 $118 $69 #
plane-surface $-1 -23.314802763613329 -1.6109291955188354 103.36916243350596 0.74314483375859142 0 0.66913059716165679 0.66913059716165679 0 -0.74314483375859142 forward_v I I I I #
loop $-1 $-1 $191 $45 #
coedge $-1 $116 $116 $117 $192 reversed $70 $-1 #
coedge $-1 $117 $117 $116 $192 forward $72 $-1 #
coedge $-1 $118 $118 $73 $119 forward $113 $-1 #
edge $-1 $193 0 $193 6.2831853071796004 $118 $194 forward 7 unknown #
face $-1 $195 $196 $18 $-1 $197 reversed single #
loop $-1 $-1 $198 $74 #
plane-surface $-1 -68.925443281350141 0 0 1 0 0 0 0 -1 forward_v I I I I #
coedge $-1 $199 $131 $200 $201 forward $75 $-1 #
coedge $-1 $202 $77 $199 $203 forward $49 $-1 #
coedge $-1 $77 $202 $204 $205 forward $49 $-1 #
coedge $-1 $134 $133 $77 $127 reversed $135 $-1 #
edge $-1 $206 -31.617104413861188 $207 31.617104413861188 $126 $208 forward 7 unknown #
coedge $-1 $79 $78 $209 $210 forward $31 $-1 #
coedge $-1 $211 $212 $78 $130 reversed $196 $-1 #
edge $-1 $137 -68.925443281350141 $213 68.925443281350141 $129 $214 forward 7 unknown #
coedge $-1 $123 $215 $79 $132 reversed $75 $-1 #
edge $-1 $216 -68.925443281350141 $136 68.925443281350141 $131 $217 forward 7 unknown #
coedge $-1 $126 $80 $215 $218 forward $135 $-1 #
coedge $-1 $80 $126 $211 $219 reversed $135 $-1 #
loop $-1 $-1 $133 $195 #
vertex $-1 $81 $220 #
vertex $-1 $81 $221 #
straight-curve $-1 68.925443281350141 0 6.3512102015111882 0 1 0 I I #
face $-1 $222 $223 $19 $-1 $224 reversed single #
loop $-1 $-1 $225 $82 #
plane-surface $-1 0 0 6.3512102015111882 0 0 1 1 0 0 forward_v I I I I #
coedge $-1 $226 $227 $228 $229 reversed $83 $-1 #
coedge $-1 $88 $85 $230 $231 reversed $53 $-1 #
coedge $-1 $85 $88 $232 $233 reversed $53 $-1 #
coedge $-1 $227 $226 $85 $146 reversed $83 $-1 #
edge $-1 $234 -6.3512102015111882 $235 6.3512102015111882 $145 $236 forward 7 unknown #
coedge $-1 $87 $86 $237 $238 reversed $34 $-1 #
coedge $-1 $230 $239 $86 $149 forward $223 $-1 #
edge $-1 $240 -17.468922572102048 $153 -10.827441111416231 $148 $241 forward 7 unknown #
coedge $-1 $242 $232 $87 $151 forward $140 $-1 #
edge $-1 $152 10.827441111416231 $243 17.468922572102048 $150 $244 forward 7 unknown #
vertex $-1 $151 $245 #
vertex $-1 $149 $246 #
straight-curve $-1 -59.223022878327768 -24.975622953175371 0 0 0 -1 I I #
face $-1 $247 $248 $20 $-1 $249 reversed single #
loop $-1 $-1 $96 $90 #
plane-surface $-1 68.925443281350141 0 0 -1 0 0 0 0 1 forward_v I I I I #
coedge $-1 $250 $251 $94 $164 forward $91 $-1 #
coedge $-1 $252 $93 $253 $254 reversed $57 $-1 #
coedge $-1 $93 $252 $95 $165 reversed $57 $-1 #
coedge $-1 $255 $256 $93 $162 forward $257 $-1 #
edge $-1 $258 -3.9256051007555941 $259 -0.9256051007555941 $161 $260 forward 7 unknown #
coedge $-1 $95 $94 $255 $261 reversed $37 $-1 #
edge $-1 $262 -68.925443281350141 $168 68.925443281350141 $158 $263 forward 7 unknown #
edge $-1 $259 -68.925443281350141 $169 68.925443281350141 $160 $264 forward 7 unknown #
coedge $-1 $265 $96 $252 $266 forward $156 $-1 #
coedge $-1 $96 $265 $250 $267 reversed $156 $-1 #
vertex $-1 $267 $268 #
vertex $-1 $97 $269 #
straight-curve $-1 68.925443281350141 14.108620278046272 -3.3512102015111882 0 -1 0 I I #
face $-1 $-1 $183 $21 $-1 $270 forward single #
loop $-1 $-1 $271 $98 #
plane-surface $-1 68.925443281350141 0 0 -1 0 0 0 0 1 forward_v I I I I #
coedge $-1 $272 $273 $274 $275 reversed $99 $-1 #
coedge $-1 $276 $101 $103 $181 forward $61 $-1 #
coedge $-1 $101 $276 $272 $277 forward $61 $-1 #
coedge $-1 $274 $104 $101 $178 forward $183 $-1 #
edge $-1 $185 -2.9554311741561428 $278 4.5663603696749782 $177 $279 forward 7 unknown #
coedge $-1 $280 $281 $102 $180 forward $172 $-1 #
edge $-1 $282 -96.878715983841118 $184 -91.453494037723516 $179 $283 forward 7 unknown #
edge $-1 $185 130.55053042797681 $282 137.85088656270031 $103 $284 forward 7 unknown #
coedge $-1 $104 $274 $280 $285 forward $183 $-1 #
loop $-1 $-1 $274 $171 #
vertex $-1 $180 $286 #
vertex $-1 $105 $287 #
straight-curve $-1 39.564185707249507 2.1499665763967251 6.3512102015111935 -1 0 0 I I #
coedge $-1 $187 $187 $-1 $288 reversed $108 $-1 #
edge $-1 $289 0 $289 6.2831853071796004 $109 $290 forward 7 unknown #
vertex $-1 $112 $291 #
ellipse-curve $-1 66.482997451389991 -3.2227416691969317 3.638599228452386 0.74314483375859142 0 0.66913059716165679 0.66913059716165679 0 -0.74314483375859142 1 I I #
coedge $-1 $191 $191 $-1 $292 reversed $115 $-1 #
edge $-1 $293 0 $293 6.2831853071796004 $116 $294 forward 7 unknown #
vertex $-1 $119 $295 #
ellipse-curve $-1 66.482997451389991 0.00088327815926447784 3.638599228452386 0.74314483375859142 0 0.66913059716165679 0.66913059716165679 0 -0.74314483375859142 1 I I #
face $-1 $-1 $135 $18 $-1 $296 reversed single #
loop $-1 $-1 $211 $120 #
plane-surface $-1 0 31.617104413861188 0 0 -1 0 0 0 -1 forward_v I I I I #
coedge $-1 $297 $209 $212 $298 forward $121 $-1 #
coedge $-1 $215 $123 $124 $203 reversed $75 $-1 #
coedge $-1 $209 $297 $123 $201 reversed $121 $-1 #
edge $-1 $216 -6.3512102015111882 $299 6.3512102015111882 $200 $300 forward 7 unknown #
coedge $-1 $125 $124 $297 $301 forward $49 $-1 #
edge $-1 $207 -68.925443281350141 $299 68.925443281350141 $199 $302 forward 7 unknown #
coedge $-1 $212 $211 $125 $205 reversed $196 $-1 #
edge $-1 $303 -68.925443281350141 $206 68.925443281350141 $204 $304 forward 7 unknown #
vertex $-1 $127 $305 #
vertex $-1 $218 $306 #
straight-curve $-1 68.925443281350141 0 -6.3512102015111882 0 -1 0 I I #
coedge $-1 $198 $200 $128 $210 reversed $121 $-1 #
edge $-1 $213 -31.617104413861188 $216 31.617104413861188 $209 $307 forward 7 unknown #
coedge $-1 $204 $129 $134 $219 forward $196 $-1 #
coedge $-1 $129 $204 $198 $298 reversed $196 $-1 #
vertex $-1 $130 $308 #
straight-curve $-1 0 31.617104413861188 6.3512102015111882 -1 0 0 I I #
coedge $-1 $131 $199 $133 $218 reversed $75 $-1 #
vertex $-1 $210 $309 #
straight-curve $-1 0 -31.617104413861188 6.3512102015111882 1 0 0 I I #
edge $-1 $136 -6.3512102015111882 $207 6.3512102015111882 $133 $310 forward 7 unknown #
edge $-1 $137 -6.3512102015111882 $206 6.3512102015111882 $134 $311 forward 7 unknown #
point $-1 68.925443281350141 -31.617104413861188 6.3512102015111882 #
point $-1 68.925443281350141 31.617104413861188 6.3512102015111882 #
face $-1 $-1 $312 $19 $-1 $313 reversed single #
loop $-1 $-1 $314 $139 #
plane-surface $-1 0 0 -6.3512102015111882 0 0 1 1 0 0 forward_v I I I I #
coedge $-1 $232 $242 $227 $315 forward $140 $-1 #
coedge $-1 $145 $142 $314 $316 reversed $83 $-1 #
coedge $-1 $142 $145 $225 $315 reversed $83 $-1 #
coedge $-1 $317 $318 $142 $229 forward $312 $-1 #
edge $-1 $319 -6.3512102015111882 $320 6.3512102015111882 $228 $321 forward 7 unknown #
coedge $-1 $314 $148 $143 $231 forward $223 $-1 #
edge $-1 $153 -30.361511439163884 $235 -27.361511439163884 $230 $322 forward 7 unknown #
coedge $-1 $150 $225 $144 $233 forward $140 $-1 #
edge $-1 $234 27.361511439163884 $152 30.361511439163884 $232 $323 forward 7 unknown #
vertex $-1 $233 $324 #
vertex $-1 $231 $325 #
straight-curve $-1 -56.223022878327768 -24.975622953175371 0 0 0 -1 I I #
coedge $-1 $318 $317 $147 $238 forward $312 $-1 #
edge $-1 $243 -6.3512102015111882 $240 6.3512102015111882 $237 $326 forward 7 unknown #
coedge $-1 $148 $314 $318 $327 forward $223 $-1 #
vertex $-1 $149 $328 #
straight-curve $-1 -59.223022878327768 -14.14818184175914 -6.3512102015111882 0 1 0 I I #
coedge $-1 $225 $150 $317 $329 forward $140 $-1 #
vertex $-1 $329 $330 #
straight-curve $-1 -59.223022878327768 -14.14818184175914 6.3512102015111882 0 -1 0 I I #
point $-1 -59.223022878327768 -24.975622953175371 6.3512102015111882 #
point $-1 -59.223022878327768 -24.975622953175371 -6.3512102015111882 #
face $-1 $-1 $257 $20 $-1 $331 reversed single #
loop $-1 $-1 $253 $155 #
plane-surface $-1 0 0 -6.3512102015111882 0 0 1 1 0 0 forward_v I I I I #
coedge $-1 $332 $158 $167 $267 forward $91 $-1 #
coedge $-1 $158 $332 $333 $334 reversed $91 $-1 #
coedge $-1 $160 $159 $166 $266 reversed $57 $-1 #
coedge $-1 $335 $336 $159 $254 forward $248 $-1 #
edge $-1 $337 -68.925443281350141 $258 68.925443281350141 $253 $338 forward 7 unknown #
coedge $-1 $333 $161 $163 $261 forward $257 $-1 #
coedge $-1 $161 $333 $335 $339 reversed $257 $-1 #
loop $-1 $-1 $255 $247 #
vertex $-1 $339 $340 #
vertex $-1 $261 $341 #
straight-curve $-1 -68.925443281350141 24.817376698323905 -2.4256051007555941 0 0 1 I I #
edge $-1 $259 10.708756420277632 $262 17.508484135814911 $255 $342 forward 7 unknown #
vertex $-1 $334 $343 #
straight-curve $-1 0 31.617104413861188 -3.3512102015111882 1 0 0 I I #
straight-curve $-1 0 24.817376698323905 -3.3512102015111882 1 0 0 I I #
coedge $-1 $167 $166 $336 $344 reversed $156 $-1 #
edge $-1 $169 0.9256051007555941 $337 3.9256051007555941 $166 $345 forward 7 unknown #
edge $-1 $168 3.3512102015111882 $346 6.3512102015111882 $167 $347 forward 7 unknown #
point $-1 68.925443281350141 31.617104413861185 -3.3512102015111882 #
point $-1 68.925443281350141 24.817376698323905 -3.3512102015111882 #
plane-surface $-1 0 0 6.3512102015111882 0 0 1 1 0 0 forward_v I I I I #
coedge $-1 $281 $280 $273 $348 forward $172 $-1 #
coedge $-1 $273 $174 $176 $277 reversed $99 $-1 #
coedge $-1 $174 $272 $271 $348 reversed $99 $-1 #
coedge $-1 $182 $177 $174 $275 forward $183 $-1 #
edge $-1 $278 24.476365914180349 $349 29.361257574100634 $274 $350 forward 7 unknown #
coedge $-1 $176 $175 $281 $351 reversed $61 $-1 #
edge $-1 $352 -137.85088656270031 $278 -130.55053042797681 $272 $353 forward 7 unknown #
vertex $-1 $178 $354 #
straight-curve $-1 64.040551621429842 -0.8054645977594177 6.3512102015111935 0 -1 0 I I #
coedge $-1 $271 $179 $182 $285 reversed $172 $-1 #
coedge $-1 $179 $271 $276 $351 forward $172 $-1 #
vertex $-1 $180 $355 #
straight-curve $-1 68.925443281350141 2.1499665763967251 97.804704239234709 0 0 1 I I #
straight-curve $-1 -23.314802763613329 2.1499665763967251 103.36916243350596 0.66913059716165679 0 -0.74314483375859142 I I #
edge $-1 $349 -5.3718249674343959 $184 2.1499665763967251 $280 $356 forward 7 unknown #
point $-1 68.925443281350141 2.1499665763967251 6.3512102015111882 #
point $-1 64.040551621429856 2.1499665763967251 6.3512102015111793 #
edge $-1 $357 1 $357 0 $187 $-1 forward 7 unknown #
vertex $-1 $188 $358 #
ellipse-curve $-1 64.094465046466738 -3.2227416691969317 1.4879550446492611 0.74314483375859142 0 0.66913059716165679 0.66913059716165679 0 -0.74314483375859142 1 I I #
point $-1 67.152128048551646 -3.2227416691969317 2.8954543946937963 #
edge $-1 $359 1 $359 0 $191 $-1 forward 7 unknown #
vertex $-1 $192 $360 #
ellipse-curve $-1 64.094465046466738 0.00088327815926447784 1.4879550446492611 0.74314483375859142 0 0.66913059716165679 0.66913059716165679 0 -0.74314483375859142 1 I I #
point $-1 67.152128048551646 0.00088327815926447784 2.8954543946937963 #
plane-surface $-1 68.925443281350141 0 0 -1 0 0 0 0 1 forward_v I I I I #
coedge $-1 $200 $198 $202 $301 reversed $121 $-1 #
edge $-1 $213 -6.3512102015111882 $303 6.3512102015111882 $212 $361 forward 7 unknown #
vertex $-1 $301 $362 #
straight-curve $-1 -68.925443281350141 -31.617104413861188 0 0 0 -1 I I #
edge $-1 $299 -31.617104413861188 $303 31.617104413861188 $297 $363 forward 7 unknown #
straight-curve $-1 0 -31.617104413861188 -6.3512102015111882 -1 0 0 I I #
vertex $-1 $205 $364 #
straight-curve $-1 0 31.617104413861188 -6.3512102015111882 1 0 0 I I #
point $-1 68.925443281350141 31.617104413861188 -6.3512102015111882 #
point $-1 68.925443281350141 -31.617104413861188 -6.3512102015111882 #
straight-curve $-1 -68.925443281350141 0 6.3512102015111882 0 -1 0 I I #
point $-1 -68.925443281350141 31.617104413861188 6.3512102015111882 #
point $-1 -68.925443281350141 -31.617104413861188 6.3512102015111882 #
straight-curve $-1 68.925443281350141 -31.617104413861188 0 0 0 -1 I I #
straight-curve $-1 68.925443281350141 31.617104413861188 0 0 0 -1 I I #
loop $-1 $-1 $228 $222 #
plane-surface $-1 0 -31.617104413861188 0 0 1 0 0 0 1 forward_v I I I I #
coedge $-1 $239 $230 $226 $316 forward $223 $-1 #
edge $-1 $320 -17.468922572102048 $234 -10.827441111416231 $225 $365 forward 7 unknown #
edge $-1 $235 10.827441111416231 $319 17.468922572102048 $314 $366 forward 7 unknown #
coedge $-1 $237 $228 $242 $329 reversed $312 $-1 #
coedge $-1 $228 $237 $239 $327 reversed $312 $-1 #
vertex $-1 $327 $367 #
vertex $-1 $229 $368 #
straight-curve $-1 -56.223022878327768 -31.617104413861188 0 0 0 1 I I #
straight-curve $-1 -28.861511439163884 -24.975622953175371 -6.3512102015111882 1 0 0 I I #
straight-curve $-1 -28.861511439163884 -24.975622953175371 6.3512102015111882 -1 0 0 I I #
point $-1 -56.223022878327768 -24.975622953175371 6.3512102015111882 #
point $-1 -56.223022878327768 -24.975622953175371 -6.3512102015111882 #
straight-curve $-1 -59.223022878327768 -31.617104413861188 0 0 0 -1 I I #
edge $-1 $319 56.223022878327768 $240 59.223022878327768 $318 $369 forward 7 unknown #
point $-1 -59.223022878327768 -31.617104413861188 -6.3512102015111882 #
edge $-1 $243 -59.223022878327768 $320 -56.223022878327768 $317 $370 forward 7 unknown #
point $-1 -59.223022878327768 -31.617104413861188 6.3512102015111882 #
plane-surface $-1 -68.925443281350141 0 0 1 0 0 0 0 -1 forward_v I I I I #
coedge $-1 $251 $250 $371 $372 reversed $91 $-1 #
coedge $-1 $256 $255 $251 $334 forward $257 $-1 #
edge $-1 $262 3.3512102015111882 $373 6.3512102015111882 $251 $374 forward 7 unknown #
coedge $-1 $371 $253 $256 $339 forward $248 $-1 #
coedge $-1 $253 $371 $265 $344 forward $248 $-1 #
vertex $-1 $266 $375 #
straight-curve $-1 0 24.817376698323905 -6.3512102015111882 -1 0 0 I I #
edge $-1 $258 24.817376698323905 $373 31.617104413861188 $256 $376 forward 7 unknown #
point $-1 -68.925443281350141 24.817376698323905 -6.3512102015111882 #
point $-1 -68.925443281350141 24.817376698323905 -3.3512102015111882 #
straight-curve $-1 -68.925443281350141 14.108620278046272 -3.3512102015111882 0 1 0 I I #
point $-1 -68.925443281350141 31.617104413861185 -3.3512102015111882 #
edge $-1 $346 -31.617104413861188 $337 -24.817376698323905 $265 $377 forward 7 unknown #
straight-curve $-1 68.925443281350141 24.817376698323905 -2.4256051007555941 0 0 -1 I I #
vertex $-1 $344 $378 #
straight-curve $-1 68.925443281350141 31.617104413861188 0 0 0 -1 I I #
edge $-1 $349 91.453494037723516 $352 96.878715983841118 $271 $379 forward 7 unknown #
vertex $-1 $285 $380 #
straight-curve $-1 39.564185707249507 -5.3718249674343959 6.3512102015111935 1 0 0 I I #
edge $-1 $352 -4.5663603696749782 $282 2.9554311741561428 $281 $381 forward 7 unknown #
vertex $-1 $351 $382 #
straight-curve $-1 -23.314802763613329 -5.3718249674343959 103.36916243350596 -0.66913059716165679 0 0.74314483375859142 I I #
point $-1 64.040551621429856 -5.3718249674343959 6.3512102015111793 #
point $-1 68.925443281350141 2.1499665763967251 0.92598825539359098 #
straight-curve $-1 68.925443281350141 0 6.3512102015111882 0 1 0 I I #
vertex $-1 $288 $383 #
point $-1 64.763595643628406 -3.2227416691969317 0.74481021089066957 #
vertex $-1 $292 $384 #
point $-1 64.763595643628406 0.00088327815926447784 0.74481021089066957 #
straight-curve $-1 -68.925443281350141 31.617104413861188 0 0 0 -1 I I #
point $-1 -68.925443281350141 -31.617104413861188 -6.3512102015111882 #
straight-curve $-1 -68.925443281350141 0 -6.3512102015111882 0 1 0 I I #
point $-1 -68.925443281350141 31.617104413861188 -6.3512102015111882 #
straight-curve $-1 -56.223022878327768 -14.14818184175914 6.3512102015111882 0 1 0 I I #
straight-curve $-1 -56.223022878327768 -14.14818184175914 -6.3512102015111882 0 -1 0 I I #
point $-1 -56.223022878327768 -31.617104413861188 -6.3512102015111882 #
point $-1 -56.223022878327768 -31.617104413861188 6.3512102015111882 #
straight-curve $-1 0 -31.617104413861188 -6.3512102015111882 -1 0 0 I I #
straight-curve $-1 0 -31.617104413861188 6.3512102015111882 1 0 0 I I #
coedge $-1 $336 $335 $332 $372 forward $248 $-1 #
edge $-1 $373 -68.925443281350141 $346 68.925443281350141 $332 $385 forward 7 unknown #
vertex $-1 $372 $386 #
straight-curve $-1 -68.925443281350141 31.617104413861188 0 0 0 -1 I I #
point $-1 68.925443281350141 24.817376698323905 -6.3512102015111882 #
straight-curve $-1 -68.925443281350141 0 -6.3512102015111882 0 1 0 I I #
straight-curve $-1 68.925443281350141 0 -6.3512102015111882 0 -1 0 I I #
point $-1 68.925443281350141 31.617104413861188 -6.3512102015111882 #
straight-curve $-1 68.925443281350141 -5.3718249674343959 97.804704239234709 0 0 -1 I I #
point $-1 68.925443281350141 -5.3718249674343959 6.3512102015111882 #
straight-curve $-1 68.925443281350141 -0.8054645977594177 0.92598825539359098 0 1 0 I I #
point $-1 68.925443281350141 -5.3718249674343959 0.92598825539359098 #
point $-1 63.351320212708153 -3.2227416691969317 0.81882444748760419 #
point $-1 63.351320212708153 0.00088327815926447784 0.81882444748760419 #
straight-curve $-1 0 31.617104413861188 -6.3512102015111882 1 0 0 I I #
point $-1 -68.925443281350141 31.617104413861188 -6.3512102015111882 #
End-of-ACIS-data 