500 0 17 0           
7 Unknown 11 ACIS 5.0 NT 24 Thu Mar 25 16:54:47 1999 
-1 9.9999999999999995e-007 1e-010 
body $-1 $17 $-1 $18 #
body $-1 $19 $-1 $20 #
body $-1 $21 $-1 $22 #
body $-1 $23 $-1 $24 #
body $-1 $25 $-1 $26 #
body $-1 $27 $-1 $28 #
body $-1 $29 $-1 $30 #
body $-1 $31 $-1 $32 #
body $-1 $33 $-1 $34 #
body $-1 $35 $-1 $36 #
body $-1 $37 $-1 $38 #
body $-1 $39 $-1 $40 #
body $-1 $41 $-1 $42 #
body $-1 $43 $-1 $44 #
body $-1 $45 $-1 $46 #
body $-1 $47 $-1 $48 #
body $-1 $49 $-1 $50 #
lump $-1 $-1 $51 $0 #
transform $-1 1 0 0 0 1 0 0 0 1 65.500045777764214 26.570026504515646 13.23125206700286 1 rotate no_reflect no_shear #
lump $-1 $-1 $52 $1 #
transform $-1 1 0 0 0 1 0 0 0 1 65.500045777764214 26.570026504515646 13.23125206700286 1 rotate no_reflect no_shear #
lump $-1 $-1 $53 $2 #
transform $-1 1 0 0 0 1 0 0 0 1 65.500045777764214 26.570026504515646 13.23125206700286 1 rotate no_reflect no_shear #
lump $-1 $-1 $54 $3 #
transform $-1 1 0 0 0 1 0 0 0 1 65.500045777764214 26.570026504515646 13.23125206700286 1 rotate no_reflect no_shear #
lump $-1 $-1 $55 $4 #
transform $-1 1 0 0 0 1 0 0 0 1 65.500045777764214 26.570026504515646 13.23125206700286 1 rotate no_reflect no_shear #
lump $-1 $-1 $56 $5 #
transform $-1 1 0 0 0 1 0 0 0 1 65.500045777764214 26.570026504515646 13.23125206700286 1 rotate no_reflect no_shear #
lump $-1 $-1 $57 $6 #
transform $-1 1 0 0 0 1 0 0 0 1 65.500045777764214 26.570026504515646 13.23125206700286 1 rotate no_reflect no_shear #
lump $-1 $-1 $58 $7 #
transform $-1 1 0 0 0 1 0 0 0 1 65.500045777764214 26.570026504515646 13.23125206700286 1 rotate no_reflect no_shear #
lump $-1 $-1 $59 $8 #
transform $-1 1 0 0 0 1 0 0 0 1 65.500045777764214 26.570026504515646 13.23125206700286 1 rotate no_reflect no_shear #
lump $-1 $-1 $60 $9 #
transform $-1 1 0 0 0 1 0 0 0 1 65.500045777764214 26.570026504515646 13.23125206700286 1 rotate no_reflect no_shear #
lump $-1 $-1 $61 $10 #
transform $-1 1 0 0 0 1 0 0 0 1 65.500045777764214 26.570026504515646 13.23125206700286 1 rotate no_reflect no_shear #
lump $-1 $-1 $62 $11 #
transform $-1 1 0 0 0 1 0 0 0 1 65.500045777764214 26.570026504515646 13.23125206700286 1 rotate no_reflect no_shear #
lump $-1 $-1 $63 $12 #
transform $-1 1 0 0 0 1 0 0 0 1 65.500045777764214 26.570026504515646 13.23125206700286 1 rotate no_reflect no_shear #
lump $-1 $-1 $64 $13 #
transform $-1 1 0 0 0 1 0 0 0 1 65.500045777764214 26.570026504515646 13.23125206700286 1 rotate no_reflect no_shear #
lump $-1 $-1 $65 $14 #
transform $-1 1 0 0 0 1 0 0 0 1 65.500045777764214 26.570026504515646 13.23125206700286 1 rotate no_reflect no_shear #
lump $-1 $-1 $66 $15 #
transform $-1 1 0 0 0 1 0 0 0 1 65.500045777764214 26.570026504515646 13.23125206700286 1 rotate no_reflect no_shear #
lump $-1 $-1 $67 $16 #
transform $-1 1 0 0 0 1 0 0 0 1 65.500045777764214 26.570026504515646 13.23125206700286 1 rotate no_reflect no_shear #
shell $-1 $-1 $-1 $68 $-1 $17 #
shell $-1 $-1 $-1 $69 $-1 $19 #
shell $-1 $-1 $-1 $70 $-1 $21 #
shell $-1 $-1 $-1 $71 $-1 $23 #
shell $-1 $-1 $-1 $72 $-1 $25 #
shell $-1 $-1 $-1 $73 $-1 $27 #
shell $-1 $-1 $-1 $74 $-1 $29 #
shell $-1 $-1 $-1 $75 $-1 $31 #
shell $-1 $-1 $-1 $76 $-1 $33 #
shell $-1 $-1 $-1 $77 $-1 $35 #
shell $-1 $-1 $-1 $78 $-1 $37 #
shell $-1 $-1 $-1 $79 $-1 $39 #
shell $-1 $-1 $-1 $80 $-1 $41 #
shell $-1 $-1 $-1 $81 $-1 $43 #
shell $-1 $-1 $-1 $82 $-1 $45 #
shell $-1 $-1 $-1 $83 $-1 $47 #
shell $-1 $-1 $-1 $84 $-1 $49 #
face $-1 $85 $86 $51 $-1 $87 forward single #
face $-1 $88 $89 $52 $-1 $90 forward single #
face $-1 $91 $92 $53 $-1 $93 reversed single #
face $-1 $94 $95 $54 $-1 $96 forward single #
face $-1 $97 $98 $55 $-1 $99 forward single #
face $-1 $100 $101 $56 $-1 $102 reversed single #
face $-1 $103 $104 $57 $-1 $105 forward single #
face $-1 $106 $107 $58 $-1 $108 forward single #
face $-1 $109 $110 $59 $-1 $111 reversed single #
face $-1 $112 $113 $60 $-1 $114 forward single #
face $-1 $115 $116 $61 $-1 $117 forward single #
face $-1 $118 $119 $62 $-1 $120 reversed single #
face $-1 $121 $122 $63 $-1 $123 forward single #
face $-1 $124 $125 $64 $-1 $126 forward single #
face $-1 $127 $128 $65 $-1 $129 reversed single #
face $-1 $130 $131 $66 $-1 $132 forward single #
face $-1 $133 $134 $67 $-1 $135 forward single #
face $-1 $136 $137 $51 $-1 $138 reversed single #
loop $-1 $-1 $139 $68 #
plane-surface $-1 0 0 13.23125206700286 0 0 1 1 0 0 forward_v I I I I #
face $-1 $140 $141 $52 $-1 $142 reversed single #
loop $-1 $-1 $143 $69 #
plane-surface $-1 -57.878752521205683 0 -10.038582076067932 0 0 1 1 0 0 forward_v I I I I #
face $-1 $144 $145 $53 $-1 $146 reversed single #
loop $-1 $-1 $147 $70 #
plane-surface $-1 -50.257459264647153 79.344583000790834 140.26399560850996 1 0 0 0 -0.69465837861970381 -0.71933979245794832 forward_v I I I I #
face $-1 $148 $149 $54 $-1 $150 forward single #
loop $-1 $151 $152 $71 #
cone-surface $-1 -43.694524661136981 23.696525274266328 10.404459697455909 0 -0.69465837861970381 -0.71933979245794832 1 0 0 1 I I 0 1 1 forward I I I I #
face $-1 $153 $154 $55 $-1 $155 forward single #
loop $-1 $156 $157 $72 #
cone-surface $-1 -33.850122755871709 23.696525274266328 10.404459697455909 0 -0.69465837861970381 -0.71933979245794832 1 0 0 1 I I 0 1 1 forward I I I I #
face $-1 $158 $159 $56 $-1 $160 reversed single #
loop $-1 $-1 $161 $73 #
plane-surface $-1 -36.925050556043729 -97.917790890997196 111.70721497365601 -1 0 0 0 -0.54463904215088732 0.83867056331134215 forward_v I I I I #
face $-1 $162 $163 $57 $-1 $164 forward single #
loop $-1 $165 $166 $74 #
cone-surface $-1 -46.448199633617605 -17.338224202208199 6.8243873789678418 0 0.54463904215088732 -0.83867056331134215 1 0 0 1 I I 0 1 1 forward I I I I #
face $-1 $167 $168 $58 $-1 $169 forward single #
loop $-1 $170 $171 $75 #
cone-surface $-1 -40.734310187073277 -17.338224202208199 6.8243873789678418 0 0.54463904215088732 -0.83867056331134215 1 0 0 1 I I 0 1 1 forward I I I I #
face $-1 $172 $173 $59 $-1 $174 reversed single #
loop $-1 $-1 $175 $76 #
plane-surface $-1 -2.7833517781077495 -97.917790890997196 111.70721497365601 -1 0 0 0 -0.54463904215088732 0.83867056331134215 forward_v I I I I #
face $-1 $176 $177 $60 $-1 $178 forward single #
loop $-1 $179 $180 $77 #
cone-surface $-1 -12.306500855681627 -17.338224202208199 6.8243873789678418 0 0.54463904215088732 -0.83867056331134215 1 0 0 1 I I 0 1 1 forward I I I I #
face $-1 $181 $182 $61 $-1 $183 forward single #
loop $-1 $184 $185 $78 #
cone-surface $-1 -6.5926114091373051 -17.338224202208199 6.8243873789678418 0 0.54463904215088732 -0.83867056331134215 1 0 0 1 I I 0 1 1 forward I I I I #
face $-1 $186 $187 $62 $-1 $188 reversed single #
loop $-1 $-1 $189 $79 #
plane-surface $-1 31.358346999828228 -97.917790890997196 111.70721497365601 -1 0 0 0 -0.54463904215088732 0.83867056331134215 forward_v I I I I #
face $-1 $190 $191 $63 $-1 $192 forward single #
loop $-1 $193 $194 $80 #
cone-surface $-1 21.835197922254352 -17.338224202208199 6.8243873789678418 0 0.54463904215088732 -0.83867056331134215 1 0 0 1 I I 0 1 1 forward I I I I #
face $-1 $195 $196 $64 $-1 $197 forward single #
loop $-1 $198 $199 $81 #
cone-surface $-1 27.549087368798681 -17.338224202208199 6.8243873789678418 0 0.54463904215088732 -0.83867056331134215 1 0 0 1 I I 0 1 1 forward I I I I #
face $-1 $200 $201 $65 $-1 $202 reversed single #
loop $-1 $-1 $203 $82 #
plane-surface $-1 58.833841423462488 -26.570026504515653 1.8412943949435885 0 -0.54463904215088732 0.83867056331134215 1 0 0 forward_v I I I I #
face $-1 $204 $205 $66 $-1 $206 forward single #
loop $-1 $207 $208 $83 #
cone-surface $-1 55.976896700190323 -17.338224202208199 6.8243873789678418 0 0.54463904215088732 -0.83867056331134215 1 0 0 1 I I 0 1 1 forward I I I I #
face $-1 $209 $210 $67 $-1 $211 forward single #
loop $-1 $212 $213 $84 #
cone-surface $-1 61.690786146734652 -17.338224202208199 6.8243873789678418 0 0.54463904215088732 -0.83867056331134215 1 0 0 1 I I 0 1 1 forward I I I I #
face $-1 $214 $215 $51 $-1 $216 reversed single #
loop $-1 $-1 $217 $85 #
plane-surface $-1 0 0 -13.23125206700286 0 0 1 1 0 0 forward_v I I I I #
coedge $-1 $218 $219 $220 $221 forward $86 $-1 #
face $-1 $222 $223 $52 $-1 $224 reversed single #
loop $-1 $-1 $225 $88 #
plane-surface $-1 -50.257459264647153 0 -11.634917071535396 -1 0 0 0 0 1 forward_v I I I I #
coedge $-1 $226 $227 $228 $229 forward $89 $-1 #
face $-1 $230 $231 $53 $-1 $232 reversed single #
loop $-1 $-1 $233 $91 #
plane-surface $-1 -38.772323708504345 -11.655728198205296 46.030416936983912 0 0.69465837861970381 0.71933979245794832 1 0 0 forward_v I I I I #
coedge $-1 $234 $235 $236 $237 reversed $92 $-1 #
face $-1 $-1 $238 $54 $-1 $239 forward single #
loop $-1 $240 $241 $94 #
cone-surface $-1 -43.694524661136981 22.606307846680416 9.2755065281988429 0 -0.69465837861970381 -0.71933979245794832 0.5 0 0 1 I I -0.70710678118654746 0.70710678118654746 0.5 forward I I I I #
loop $-1 $-1 $242 $71 #
coedge $-1 $152 $152 $243 $244 reversed $95 $-1 #
face $-1 $-1 $245 $55 $-1 $246 forward single #
loop $-1 $247 $248 $97 #
cone-surface $-1 -33.850122755871709 22.606307846680416 9.2755065281988429 0 -0.69465837861970381 -0.71933979245794832 0.5 0 0 1 I I -0.70710678118654746 0.70710678118654746 0.5 forward I I I I #
loop $-1 $-1 $249 $72 #
coedge $-1 $157 $157 $250 $251 reversed $98 $-1 #
face $-1 $252 $253 $56 $-1 $254 reversed single #
loop $-1 $-1 $255 $100 #
plane-surface $-1 -43.591254910345441 -26.570026504515653 1.8412943949435885 0 -0.54463904215088732 0.83867056331134215 1 0 0 forward_v I I I I #
coedge $-1 $256 $257 $258 $259 reversed $101 $-1 #
face $-1 $-1 $260 $57 $-1 $261 forward single #
loop $-1 $262 $263 $103 #
cone-surface $-1 -46.448199633617605 -16.603600594739014 5.6931662453067986 0 0.54463904215088732 -0.83867056331134215 0.5 0 0 1 I I -0.70710678118654746 0.70710678118654746 0.5 forward I I I I #
loop $-1 $-1 $264 $74 #
coedge $-1 $166 $166 $265 $266 reversed $104 $-1 #
face $-1 $-1 $267 $58 $-1 $268 forward single #
loop $-1 $269 $270 $106 #
cone-surface $-1 -40.734310187073277 -16.603600594739014 5.6931662453067986 0 0.54463904215088732 -0.83867056331134215 0.5 0 0 1 I I -0.70710678118654746 0.70710678118654746 0.5 forward I I I I #
loop $-1 $-1 $271 $75 #
coedge $-1 $171 $171 $272 $273 reversed $107 $-1 #
face $-1 $274 $275 $59 $-1 $276 reversed single #
loop $-1 $-1 $277 $109 #
plane-surface $-1 -9.4495561324094624 -26.570026504515653 1.8412943949435885 0 -0.54463904215088732 0.83867056331134215 1 0 0 forward_v I I I I #
coedge $-1 $278 $279 $280 $281 reversed $110 $-1 #
face $-1 $-1 $282 $60 $-1 $283 forward single #
loop $-1 $284 $285 $112 #
cone-surface $-1 -12.306500855681627 -16.603600594739014 5.6931662453067986 0 0.54463904215088732 -0.83867056331134215 0.5 0 0 1 I I -0.70710678118654746 0.70710678118654746 0.5 forward I I I I #
loop $-1 $-1 $286 $77 #
coedge $-1 $180 $180 $287 $288 reversed $113 $-1 #
face $-1 $-1 $289 $61 $-1 $290 forward single #
loop $-1 $291 $292 $115 #
cone-surface $-1 -6.5926114091373051 -16.603600594739014 5.6931662453067986 0 0.54463904215088732 -0.83867056331134215 0.5 0 0 1 I I -0.70710678118654746 0.70710678118654746 0.5 forward I I I I #
loop $-1 $-1 $293 $78 #
coedge $-1 $185 $185 $294 $295 reversed $116 $-1 #
face $-1 $296 $297 $62 $-1 $298 reversed single #
loop $-1 $-1 $299 $118 #
plane-surface $-1 24.692142645526516 -26.570026504515653 1.8412943949435885 0 -0.54463904215088732 0.83867056331134215 1 0 0 forward_v I I I I #
coedge $-1 $300 $301 $302 $303 reversed $119 $-1 #
face $-1 $-1 $304 $63 $-1 $305 forward single #
loop $-1 $306 $307 $121 #
cone-surface $-1 21.835197922254352 -16.603600594739014 5.6931662453067986 0 0.54463904215088732 -0.83867056331134215 0.5 0 0 1 I I -0.70710678118654746 0.70710678118654746 0.5 forward I I I I #
loop $-1 $-1 $308 $80 #
coedge $-1 $194 $194 $309 $310 reversed $122 $-1 #
face $-1 $-1 $311 $64 $-1 $312 forward single #
loop $-1 $313 $314 $124 #
cone-surface $-1 27.549087368798681 -16.603600594739014 5.6931662453067986 0 0.54463904215088732 -0.83867056331134215 0.5 0 0 1 I I -0.70710678118654746 0.70710678118654746 0.5 forward I I I I #
loop $-1 $-1 $315 $81 #
coedge $-1 $199 $199 $316 $317 reversed $125 $-1 #
face $-1 $318 $319 $65 $-1 $320 reversed single #
loop $-1 $-1 $321 $127 #
plane-surface $-1 52.167637069160776 -97.917790890997196 111.70721497365601 1 0 0 0 0.54463904215088732 -0.83867056331134215 forward_v I I I I #
coedge $-1 $322 $323 $324 $325 reversed $128 $-1 #
face $-1 $-1 $326 $66 $-1 $327 forward single #
loop $-1 $328 $329 $130 #
cone-surface $-1 55.976896700190323 -16.603600594739014 5.6931662453067986 0 0.54463904215088732 -0.83867056331134215 0.5 0 0 1 I I -0.70710678118654746 0.70710678118654746 0.5 forward I I I I #
loop $-1 $-1 $330 $83 #
coedge $-1 $208 $208 $331 $332 reversed $131 $-1 #
face $-1 $-1 $333 $67 $-1 $334 forward single #
loop $-1 $335 $336 $133 #
cone-surface $-1 61.690786146734652 -16.603600594739014 5.6931662453067986 0 0.54463904215088732 -0.83867056331134215 0.5 0 0 1 I I -0.70710678118654746 0.70710678118654746 0.5 forward I I I I #
loop $-1 $-1 $337 $84 #
coedge $-1 $213 $213 $338 $339 reversed $134 $-1 #
face $-1 $340 $341 $51 $-1 $342 reversed single #
loop $-1 $-1 $343 $136 #
plane-surface $-1 0 -26.570026504515646 0 0 1 0 0 0 1 forward_v I I I I #
coedge $-1 $344 $345 $346 $347 forward $137 $-1 #
coedge $-1 $348 $139 $349 $350 forward $86 $-1 #
coedge $-1 $139 $348 $351 $352 forward $86 $-1 #
coedge $-1 $353 $354 $139 $221 reversed $355 $-1 #
edge $-1 $356 -26.570026504515646 $357 26.570026504515646 $220 $358 forward 7 unknown #
face $-1 $359 $360 $52 $-1 $361 reversed single #
loop $-1 $-1 $362 $140 #
plane-surface $-1 0 0 -13.23125206700286 0 0 1 1 0 0 forward_v I I I I #
coedge $-1 $363 $228 $364 $365 reversed $141 $-1 #
coedge $-1 $366 $143 $367 $368 reversed $89 $-1 #
coedge $-1 $143 $366 $369 $370 reversed $89 $-1 #
coedge $-1 $225 $371 $143 $229 reversed $141 $-1 #
edge $-1 $372 -26.570026504515646 $373 26.570026504515646 $228 $374 forward 7 unknown #
face $-1 $375 $376 $53 $-1 $377 reversed single #
loop $-1 $-1 $378 $144 #
plane-surface $-1 -27.287188152361537 79.344583000790834 140.26399560850996 -1 0 0 0 0.69465837861970381 0.71933979245794832 forward_v I I I I #
coedge $-1 $379 $380 $381 $382 reversed $145 $-1 #
coedge $-1 $235 $147 $383 $384 reversed $92 $-1 #
coedge $-1 $147 $234 $379 $385 reversed $92 $-1 #
coedge $-1 $381 $386 $147 $237 forward $387 $-1 #
edge $-1 $388 13.102264995879771 $389 17.363490979826295 $236 $390 forward 7 unknown #
loop $-1 $-1 $243 $148 #
plane-surface $-1 -38.772323708504345 -11.655728198205296 46.030416936983912 0 0.69465837861970381 0.71933979245794832 1 0 0 forward_v I I I I #
loop $-1 $-1 $391 $94 #
coedge $-1 $241 $241 $242 $392 reversed $149 $-1 #
coedge $-1 $242 $242 $241 $392 forward $151 $-1 #
coedge $-1 $243 $243 $152 $244 forward $238 $-1 #
edge $-1 $393 1.4093331550183337e-015 $393 6.2831853071796022 $243 $394 forward 7 unknown #
loop $-1 $-1 $250 $153 #
plane-surface $-1 -38.772323708504345 -11.655728198205296 46.030416936983912 0 0.69465837861970381 0.71933979245794832 1 0 0 forward_v I I I I #
loop $-1 $-1 $395 $97 #
coedge $-1 $248 $248 $249 $396 reversed $154 $-1 #
coedge $-1 $249 $249 $248 $396 forward $156 $-1 #
coedge $-1 $250 $250 $157 $251 forward $245 $-1 #
edge $-1 $397 1.4093331550183337e-015 $397 6.2831853071796022 $250 $398 forward 7 unknown #
face $-1 $399 $400 $56 $-1 $401 forward single #
loop $-1 $-1 $402 $158 #
plane-surface $-1 -50.257459264647153 -97.917790890997196 111.70721497365601 1 0 0 0 0.54463904215088732 -0.83867056331134215 forward_v I I I I #
coedge $-1 $403 $404 $405 $406 reversed $159 $-1 #
coedge $-1 $257 $161 $407 $408 reversed $101 $-1 #
coedge $-1 $161 $256 $403 $409 reversed $101 $-1 #
coedge $-1 $405 $410 $161 $259 forward $400 $-1 #
edge $-1 $411 22.388868940982952 $412 39.927865372810317 $258 $413 forward 7 unknown #
loop $-1 $-1 $265 $162 #
plane-surface $-1 -43.591254910345441 -26.570026504515653 1.8412943949435885 0 -0.54463904215088732 0.83867056331134215 1 0 0 forward_v I I I I #
loop $-1 $-1 $414 $103 #
coedge $-1 $263 $263 $264 $415 reversed $163 $-1 #
coedge $-1 $264 $264 $263 $415 forward $165 $-1 #
coedge $-1 $265 $265 $166 $266 forward $260 $-1 #
edge $-1 $416 1.7597560100782417e-015 $416 6.2831853071796022 $265 $417 forward 7 unknown #
loop $-1 $-1 $272 $167 #
plane-surface $-1 -43.591254910345441 -26.570026504515653 1.8412943949435885 0 -0.54463904215088732 0.83867056331134215 1 0 0 forward_v I I I I #
loop $-1 $-1 $418 $106 #
coedge $-1 $270 $270 $271 $419 reversed $168 $-1 #
coedge $-1 $271 $271 $270 $419 forward $170 $-1 #
coedge $-1 $272 $272 $171 $273 forward $267 $-1 #
edge $-1 $420 1.7597560100782417e-015 $420 6.2831853071796022 $272 $421 forward 7 unknown #
face $-1 $422 $423 $59 $-1 $424 reversed single #
loop $-1 $-1 $425 $172 #
plane-surface $-1 -16.115760486711174 -97.917790890997196 111.70721497365601 1 0 0 0 0.54463904215088732 -0.83867056331134215 forward_v I I I I #
coedge $-1 $426 $427 $428 $429 reversed $173 $-1 #
coedge $-1 $279 $175 $430 $431 reversed $110 $-1 #
coedge $-1 $175 $278 $426 $432 reversed $110 $-1 #
coedge $-1 $428 $433 $175 $281 forward $434 $-1 #
edge $-1 $435 22.388868940982952 $436 39.927865372810317 $280 $437 forward 7 unknown #
loop $-1 $-1 $287 $176 #
plane-surface $-1 -9.4495561324094624 -26.570026504515653 1.8412943949435885 0 -0.54463904215088732 0.83867056331134215 1 0 0 forward_v I I I I #
loop $-1 $-1 $438 $112 #
coedge $-1 $285 $285 $286 $439 reversed $177 $-1 #
coedge $-1 $286 $286 $285 $439 forward $179 $-1 #
coedge $-1 $287 $287 $180 $288 forward $282 $-1 #
edge $-1 $440 1.7597560100782417e-015 $440 6.2831853071796022 $287 $441 forward 7 unknown #
loop $-1 $-1 $294 $181 #
plane-surface $-1 -9.4495561324094624 -26.570026504515653 1.8412943949435885 0 -0.54463904215088732 0.83867056331134215 1 0 0 forward_v I I I I #
loop $-1 $-1 $442 $115 #
coedge $-1 $292 $292 $293 $443 reversed $182 $-1 #
coedge $-1 $293 $293 $292 $443 forward $184 $-1 #
coedge $-1 $294 $294 $185 $295 forward $289 $-1 #
edge $-1 $444 1.7597560100782417e-015 $444 6.2831853071796022 $294 $445 forward 7 unknown #
face $-1 $446 $447 $62 $-1 $448 reversed single #
loop $-1 $-1 $449 $186 #
plane-surface $-1 18.025938291224804 -97.917790890997196 111.70721497365601 1 0 0 0 0.54463904215088732 -0.83867056331134215 forward_v I I I I #
coedge $-1 $450 $451 $452 $453 reversed $187 $-1 #
coedge $-1 $301 $189 $454 $455 reversed $119 $-1 #
coedge $-1 $189 $300 $450 $456 reversed $119 $-1 #
coedge $-1 $452 $457 $189 $303 forward $458 $-1 #
edge $-1 $459 22.388868940982952 $460 39.927865372810317 $302 $461 forward 7 unknown #
loop $-1 $-1 $309 $190 #
plane-surface $-1 24.692142645526516 -26.570026504515653 1.8412943949435885 0 -0.54463904215088732 0.83867056331134215 1 0 0 forward_v I I I I #
loop $-1 $-1 $462 $121 #
coedge $-1 $307 $307 $308 $463 reversed $191 $-1 #
coedge $-1 $308 $308 $307 $463 forward $193 $-1 #
coedge $-1 $309 $309 $194 $310 forward $304 $-1 #
edge $-1 $464 1.7597560100782417e-015 $464 6.2831853071796022 $309 $465 forward 7 unknown #
loop $-1 $-1 $316 $195 #
plane-surface $-1 24.692142645526516 -26.570026504515653 1.8412943949435885 0 -0.54463904215088732 0.83867056331134215 1 0 0 forward_v I I I I #
loop $-1 $-1 $466 $124 #
coedge $-1 $314 $314 $315 $467 reversed $196 $-1 #
coedge $-1 $315 $315 $314 $467 forward $198 $-1 #
coedge $-1 $316 $316 $199 $317 forward $311 $-1 #
edge $-1 $468 1.7597560100782417e-015 $468 6.2831853071796022 $316 $469 forward 7 unknown #
face $-1 $470 $471 $65 $-1 $472 forward single #
loop $-1 $-1 $473 $200 #
plane-surface $-1 0 -26.570026504515646 0 0 1 0 0 0 1 forward_v I I I I #
coedge $-1 $474 $475 $476 $477 reversed $201 $-1 #
coedge $-1 $478 $203 $479 $480 reversed $128 $-1 #
coedge $-1 $203 $478 $474 $481 forward $128 $-1 #
coedge $-1 $476 $482 $203 $325 forward $471 $-1 #
edge $-1 $483 -36.083125066032956 $484 -22.750716357429532 $324 $485 forward 7 unknown #
loop $-1 $-1 $331 $204 #
plane-surface $-1 58.833841423462488 -26.570026504515653 1.8412943949435885 0 -0.54463904215088732 0.83867056331134215 1 0 0 forward_v I I I I #
loop $-1 $-1 $486 $130 #
coedge $-1 $329 $329 $330 $487 reversed $205 $-1 #
coedge $-1 $330 $330 $329 $487 forward $207 $-1 #
coedge $-1 $331 $331 $208 $332 forward $326 $-1 #
edge $-1 $488 1.7597560100782417e-015 $488 6.2831853071796022 $331 $489 forward 7 unknown #
loop $-1 $-1 $338 $209 #
plane-surface $-1 58.833841423462488 -26.570026504515653 1.8412943949435885 0 -0.54463904215088732 0.83867056331134215 1 0 0 forward_v I I I I #
loop $-1 $-1 $490 $133 #
coedge $-1 $336 $336 $337 $491 reversed $210 $-1 #
coedge $-1 $337 $337 $336 $491 forward $212 $-1 #
coedge $-1 $338 $338 $213 $339 forward $333 $-1 #
edge $-1 $492 1.7597560100782417e-015 $492 6.2831853071796022 $338 $493 forward 7 unknown #
face $-1 $494 $495 $51 $-1 $496 reversed single #
loop $-1 $-1 $497 $214 #
plane-surface $-1 -65.500045777764214 0 0 1 0 0 0 0 -1 forward_v I I I I #
coedge $-1 $498 $351 $499 $500 forward $215 $-1 #
coedge $-1 $501 $217 $498 $502 forward $137 $-1 #
coedge $-1 $217 $501 $503 $504 forward $137 $-1 #
coedge $-1 $354 $353 $217 $347 reversed $355 $-1 #
edge $-1 $505 -26.570026504515646 $506 26.570026504515646 $346 $507 forward 7 unknown #
coedge $-1 $219 $218 $508 $509 forward $86 $-1 #
coedge $-1 $510 $511 $218 $350 reversed $495 $-1 #
edge $-1 $357 -65.500045777764214 $512 65.500045777764214 $349 $513 forward 7 unknown #
coedge $-1 $343 $514 $219 $352 reversed $215 $-1 #
edge $-1 $515 -65.500045777764214 $356 65.500045777764214 $351 $516 forward 7 unknown #
coedge $-1 $346 $220 $514 $517 forward $355 $-1 #
coedge $-1 $220 $346 $510 $518 reversed $355 $-1 #
loop $-1 $-1 $353 $494 #
vertex $-1 $221 $519 #
vertex $-1 $221 $520 #
straight-curve $-1 65.500045777764214 0 13.23125206700286 0 1 0 I I #
face $-1 $521 $522 $52 $-1 $523 reversed single #
loop $-1 $-1 $364 $222 #
plane-surface $-1 0 -26.570026504515646 0 0 1 0 0 0 1 forward_v I I I I #
coedge $-1 $524 $525 $363 $526 forward $223 $-1 #
coedge $-1 $371 $225 $362 $526 reversed $141 $-1 #
coedge $-1 $369 $527 $225 $365 forward $360 $-1 #
edge $-1 $528 -7.4137935312351617 $372 -4.2211235403002343 $364 $529 forward 7 unknown #
coedge $-1 $227 $226 $530 $531 reversed $89 $-1 #
coedge $-1 $532 $533 $226 $368 forward $534 $-1 #
edge $-1 $535 -36.560669517161372 $373 -21.318083004044311 $367 $536 forward 7 unknown #
coedge $-1 $537 $364 $227 $370 forward $360 $-1 #
edge $-1 $372 21.318083004044311 $538 36.560669517161372 $369 $539 forward 7 unknown #
coedge $-1 $228 $363 $532 $540 reversed $141 $-1 #
vertex $-1 $370 $541 #
vertex $-1 $368 $542 #
straight-curve $-1 -50.257459264647153 0 -10.038582076067932 0 1 0 I I #
face $-1 $-1 $387 $53 $-1 $543 forward single #
loop $-1 $-1 $544 $230 #
plane-surface $-1 0 26.570026504515646 0 0 -1 0 0 0 -1 forward_v I I I I #
coedge $-1 $545 $546 $547 $548 reversed $231 $-1 #
coedge $-1 $549 $233 $235 $385 forward $145 $-1 #
coedge $-1 $233 $549 $545 $550 forward $145 $-1 #
coedge $-1 $547 $236 $233 $382 forward $387 $-1 #
edge $-1 $389 -30.87129741039498 $551 -7.9010262981093646 $381 $552 forward 7 unknown #
coedge $-1 $553 $554 $234 $384 forward $376 $-1 #
edge $-1 $555 -61.015763930289857 $388 -56.900745737252123 $383 $556 forward 7 unknown #
edge $-1 $389 47.216251728156607 $555 53.140053009031291 $235 $557 forward 7 unknown #
coedge $-1 $236 $547 $553 $558 forward $387 $-1 #
loop $-1 $-1 $547 $375 #
vertex $-1 $384 $559 #
vertex $-1 $237 $560 #
straight-curve $-1 -50.257459264647153 39.672291500395417 13.231252067002856 0 -1 0 I I #
coedge $-1 $391 $391 $-1 $561 reversed $240 $-1 #
edge $-1 $562 0 $562 6.2831853071796004 $241 $563 forward 7 unknown #
vertex $-1 $244 $564 #
ellipse-curve $-1 -43.694524661136981 24.43941351254238 11.173742970483993 0 0.69465837861970381 0.71933979245794832 1 0 0 1 I I #
coedge $-1 $395 $395 $-1 $565 reversed $247 $-1 #
edge $-1 $566 0 $566 6.2831853071796004 $248 $567 forward 7 unknown #
vertex $-1 $251 $568 #
ellipse-curve $-1 -33.850122755871709 24.43941351254238 11.173742970483993 0 0.69465837861970381 0.71933979245794832 1 0 0 1 I I #
face $-1 $-1 $569 $56 $-1 $570 reversed single #
loop $-1 $-1 $258 $252 #
plane-surface $-1 0 0 13.23125206700286 0 0 1 1 0 0 forward_v I I I I #
coedge $-1 $571 $572 $573 $574 reversed $253 $-1 #
coedge $-1 $575 $255 $257 $409 forward $159 $-1 #
coedge $-1 $255 $575 $571 $576 forward $159 $-1 #
coedge $-1 $573 $258 $255 $406 forward $400 $-1 #
edge $-1 $412 15.129423100871009 $577 28.461831809474432 $405 $578 forward 7 unknown #
coedge $-1 $579 $580 $256 $408 forward $569 $-1 #
edge $-1 $581 -54.012313091884408 $411 -42.622355419825141 $407 $582 forward 7 unknown #
edge $-1 $412 -20.912855654045796 $581 -8.4987301443310198e-015 $257 $583 forward 7 unknown #
coedge $-1 $258 $573 $579 $584 forward $400 $-1 #
vertex $-1 $259 $585 #
vertex $-1 $259 $586 #
straight-curve $-1 -36.925050556043729 -48.958895445498598 13.231252067002863 0 1 0 I I #
coedge $-1 $414 $414 $-1 $587 reversed $262 $-1 #
edge $-1 $588 0 $588 6.2831853071796004 $263 $589 forward 7 unknown #
vertex $-1 $266 $590 #
ellipse-curve $-1 -46.448199633617605 -17.800528288601953 7.5362732309732321 0 -0.54463904215088732 0.83867056331134215 1 0 0 1 I I #
coedge $-1 $418 $418 $-1 $591 reversed $269 $-1 #
edge $-1 $592 0 $592 6.2831853071796004 $270 $593 forward 7 unknown #
vertex $-1 $273 $594 #
ellipse-curve $-1 -40.734310187073277 -17.800528288601953 7.5362732309732321 0 -0.54463904215088732 0.83867056331134215 1 0 0 1 I I #
face $-1 $-1 $434 $59 $-1 $595 forward single #
loop $-1 $-1 $596 $274 #
plane-surface $-1 0 -26.570026504515646 0 0 1 0 0 0 1 forward_v I I I I #
coedge $-1 $597 $598 $599 $600 reversed $275 $-1 #
coedge $-1 $601 $277 $279 $432 forward $173 $-1 #
coedge $-1 $277 $601 $597 $602 forward $173 $-1 #
coedge $-1 $599 $280 $277 $429 forward $434 $-1 #
edge $-1 $436 -1.9414262880969817 $603 11.390982420506443 $428 $604 forward 7 unknown #
coedge $-1 $605 $606 $278 $431 forward $423 $-1 #
edge $-1 $607 -54.012313091884408 $435 -42.622355419825141 $430 $608 forward 7 unknown #
edge $-1 $436 -20.912855654045796 $607 -8.4987301443310198e-015 $279 $609 forward 7 unknown #
coedge $-1 $280 $599 $605 $610 forward $434 $-1 #
loop $-1 $-1 $599 $422 #
vertex $-1 $431 $611 #
vertex $-1 $281 $612 #
straight-curve $-1 -2.7833517781077495 -48.958895445498598 13.231252067002863 0 1 0 I I #
coedge $-1 $438 $438 $-1 $613 reversed $284 $-1 #
edge $-1 $614 0 $614 6.2831853071796004 $285 $615 forward 7 unknown #
vertex $-1 $288 $616 #
ellipse-curve $-1 -12.306500855681627 -17.800528288601953 7.5362732309732321 0 -0.54463904215088732 0.83867056331134215 1 0 0 1 I I #
coedge $-1 $442 $442 $-1 $617 reversed $291 $-1 #
edge $-1 $618 0 $618 6.2831853071796004 $292 $619 forward 7 unknown #
vertex $-1 $295 $620 #
ellipse-curve $-1 -6.5926114091373051 -17.800528288601953 7.5362732309732321 0 -0.54463904215088732 0.83867056331134215 1 0 0 1 I I #
face $-1 $-1 $458 $62 $-1 $621 forward single #
loop $-1 $-1 $622 $296 #
plane-surface $-1 0 -26.570026504515646 0 0 1 0 0 0 1 forward_v I I I I #
coedge $-1 $623 $624 $625 $626 reversed $297 $-1 #
coedge $-1 $627 $299 $301 $456 forward $187 $-1 #
coedge $-1 $299 $627 $623 $628 forward $187 $-1 #
coedge $-1 $625 $302 $299 $453 forward $458 $-1 #
edge $-1 $460 -19.01227567706497 $629 -5.6798669684615462 $452 $630 forward 7 unknown #
coedge $-1 $631 $632 $300 $455 forward $447 $-1 #
edge $-1 $633 -54.012313091884408 $459 -42.622355419825141 $454 $634 forward 7 unknown #
edge $-1 $460 -20.912855654045796 $633 -8.4987301443310198e-015 $301 $635 forward 7 unknown #
coedge $-1 $302 $625 $631 $636 forward $458 $-1 #
loop $-1 $-1 $625 $446 #
vertex $-1 $455 $637 #
vertex $-1 $303 $638 #
straight-curve $-1 31.358346999828228 -48.958895445498598 13.231252067002863 0 1 0 I I #
coedge $-1 $462 $462 $-1 $639 reversed $306 $-1 #
edge $-1 $640 0 $640 6.2831853071796004 $307 $641 forward 7 unknown #
vertex $-1 $310 $642 #
ellipse-curve $-1 21.835197922254352 -17.800528288601953 7.5362732309732321 0 -0.54463904215088732 0.83867056331134215 1 0 0 1 I I #
coedge $-1 $466 $466 $-1 $643 reversed $313 $-1 #
edge $-1 $644 0 $644 6.2831853071796004 $314 $645 forward 7 unknown #
vertex $-1 $317 $646 #
ellipse-curve $-1 27.549087368798681 -17.800528288601953 7.5362732309732321 0 -0.54463904215088732 0.83867056331134215 1 0 0 1 I I #
face $-1 $-1 $647 $65 $-1 $648 reversed single #
loop $-1 $-1 $476 $318 #
plane-surface $-1 0 0 13.23125206700286 0 0 1 1 0 0 forward_v I I I I #
coedge $-1 $649 $650 $475 $651 forward $319 $-1 #
coedge $-1 $475 $321 $323 $481 reversed $201 $-1 #
coedge $-1 $321 $474 $473 $651 reversed $201 $-1 #
coedge $-1 $652 $324 $321 $477 forward $471 $-1 #
edge $-1 $484 -39.927865372810317 $653 -22.388868940982952 $476 $654 forward 7 unknown #
coedge $-1 $323 $322 $649 $655 reversed $128 $-1 #
coedge $-1 $656 $657 $322 $480 forward $647 $-1 #
edge $-1 $658 -10.640329140079771 $483 10.272526513966017 $479 $659 forward 7 unknown #
edge $-1 $660 8.4987301443310198e-015 $484 20.912855654045796 $474 $661 forward 7 unknown #
coedge $-1 $324 $652 $656 $662 forward $471 $-1 #
vertex $-1 $480 $663 #
vertex $-1 $325 $664 #
straight-curve $-1 29.416920711731244 -9.031030072688278 13.23125206700286 -1 0 0 I I #
coedge $-1 $486 $486 $-1 $665 reversed $328 $-1 #
edge $-1 $666 0 $666 6.2831853071796004 $329 $667 forward 7 unknown #
vertex $-1 $332 $668 #
ellipse-curve $-1 55.976896700190323 -17.800528288601953 7.5362732309732321 0 -0.54463904215088732 0.83867056331134215 1 0 0 1 I I #
coedge $-1 $490 $490 $-1 $669 reversed $335 $-1 #
edge $-1 $670 0 $670 6.2831853071796004 $336 $671 forward 7 unknown #
vertex $-1 $339 $672 #
ellipse-curve $-1 61.690786146734652 -17.800528288601953 7.5362732309732321 0 -0.54463904215088732 0.83867056331134215 1 0 0 1 I I #
face $-1 $-1 $355 $51 $-1 $673 reversed single #
loop $-1 $-1 $510 $340 #
plane-surface $-1 0 26.570026504515646 0 0 -1 0 0 0 -1 forward_v I I I I #
coedge $-1 $674 $508 $511 $675 forward $341 $-1 #
coedge $-1 $514 $343 $344 $502 reversed $215 $-1 #
coedge $-1 $508 $674 $343 $500 reversed $341 $-1 #
edge $-1 $515 -13.23125206700286 $676 13.23125206700286 $499 $677 forward 7 unknown #
coedge $-1 $345 $344 $674 $678 forward $137 $-1 #
edge $-1 $506 -65.500045777764214 $676 65.500045777764214 $498 $679 forward 7 unknown #
coedge $-1 $511 $510 $345 $504 reversed $495 $-1 #
edge $-1 $680 -65.500045777764214 $505 65.500045777764214 $503 $681 forward 7 unknown #
vertex $-1 $347 $682 #
vertex $-1 $517 $683 #
straight-curve $-1 65.500045777764214 0 -13.23125206700286 0 -1 0 I I #
coedge $-1 $497 $499 $348 $509 reversed $341 $-1 #
edge $-1 $512 -26.570026504515646 $515 26.570026504515646 $508 $684 forward 7 unknown #
coedge $-1 $503 $349 $354 $518 forward $495 $-1 #
coedge $-1 $349 $503 $497 $675 reversed $495 $-1 #
vertex $-1 $350 $685 #
straight-curve $-1 0 26.570026504515646 13.23125206700286 -1 0 0 I I #
coedge $-1 $351 $498 $353 $517 reversed $215 $-1 #
vertex $-1 $509 $686 #
straight-curve $-1 0 -26.570026504515646 13.23125206700286 1 0 0 I I #
edge $-1 $356 -13.23125206700286 $506 13.23125206700286 $353 $687 forward 7 unknown #
edge $-1 $357 -13.23125206700286 $505 13.23125206700286 $354 $688 forward 7 unknown #
point $-1 65.500045777764214 -26.570026504515646 13.23125206700286 #
point $-1 65.500045777764214 26.570026504515646 13.23125206700286 #
face $-1 $-1 $534 $52 $-1 $689 reversed single #
loop $-1 $-1 $530 $359 #
plane-surface $-1 -65.500045777764214 0 0 1 0 0 0 0 -1 forward_v I I I I #
coedge $-1 $690 $362 $527 $691 forward $223 $-1 #
coedge $-1 $362 $690 $692 $693 forward $223 $-1 #
edge $-1 $694 -26.570026504515646 $528 26.570026504515646 $362 $695 forward 7 unknown #
coedge $-1 $364 $537 $524 $691 reversed $360 $-1 #
vertex $-1 $691 $696 #
straight-curve $-1 -50.257459264647153 -26.570026504515646 -5.817458535767698 0 0 1 I I #
coedge $-1 $697 $698 $366 $531 forward $522 $-1 #
edge $-1 $538 -26.570026504515646 $535 26.570026504515646 $530 $699 forward 7 unknown #
coedge $-1 $692 $367 $371 $540 forward $534 $-1 #
coedge $-1 $367 $692 $697 $700 reversed $534 $-1 #
loop $-1 $-1 $532 $521 #
vertex $-1 $700 $701 #
straight-curve $-1 -28.939376260602842 26.570026504515646 -10.038582076067932 1 0 0 I I #
coedge $-1 $527 $369 $698 $702 forward $360 $-1 #
vertex $-1 $702 $703 #
straight-curve $-1 -28.939376260602842 -26.570026504515646 -10.038582076067932 -1 0 0 I I #
edge $-1 $373 4.2211235403002343 $694 7.4137935312351617 $532 $704 forward 7 unknown #
point $-1 -50.257459264647153 -26.570026504515646 -10.038582076067932 #
point $-1 -50.257459264647153 26.570026504515646 -10.038582076067932 #
plane-surface $-1 0 0 13.23125206700286 0 0 1 1 0 0 forward_v I I I I #
coedge $-1 $554 $553 $546 $705 forward $376 $-1 #
coedge $-1 $546 $378 $380 $550 reversed $231 $-1 #
coedge $-1 $378 $545 $544 $705 reversed $231 $-1 #
coedge $-1 $386 $381 $378 $548 forward $387 $-1 #
edge $-1 $551 -17.363490979826295 $706 -13.102264995879771 $547 $707 forward 7 unknown #
coedge $-1 $380 $379 $554 $708 reversed $145 $-1 #
edge $-1 $709 -53.140053009031291 $551 -47.216251728156607 $545 $710 forward 7 unknown #
vertex $-1 $382 $711 #
straight-curve $-1 -19.386161854252173 22.308800520569118 13.23125206700286 1 0 0 I I #
coedge $-1 $544 $383 $386 $558 reversed $376 $-1 #
coedge $-1 $383 $544 $549 $708 forward $376 $-1 #
vertex $-1 $384 $712 #
straight-curve $-1 -50.257459264647153 26.570026504515646 70.131997804254979 0 0 1 I I #
straight-curve $-1 -50.257459264647153 -11.655728198205296 46.030416936983912 0 0.71933979245794832 -0.69465837861970381 I I #
edge $-1 $706 27.287188152361537 $388 50.257459264647153 $553 $713 forward 7 unknown #
point $-1 -50.257459264647153 26.570026504515646 13.23125206700286 #
point $-1 -50.257459264647153 22.308800520569122 13.231252067002856 #
edge $-1 $714 1 $714 0 $391 $-1 forward 7 unknown #
vertex $-1 $392 $715 #
ellipse-curve $-1 -43.694524661136981 22.953637035990269 9.6351764244278169 0 0.69465837861970381 0.71933979245794832 1 0 0 1 I I #
point $-1 -42.694524661136981 24.439413512542387 11.173742970483998 #
edge $-1 $716 1 $716 0 $395 $-1 forward 7 unknown #
vertex $-1 $396 $717 #
ellipse-curve $-1 -33.850122755871709 22.953637035990269 9.6351764244278169 0 0.69465837861970381 0.71933979245794832 1 0 0 1 I I #
point $-1 -32.850122755871709 24.439413512542387 11.173742970483998 #
loop $-1 $-1 $407 $399 #
plane-surface $-1 0 -26.570026504515646 0 0 1 0 0 0 1 forward_v I I I I #
coedge $-1 $572 $402 $404 $576 reversed $253 $-1 #
coedge $-1 $402 $571 $718 $719 reversed $253 $-1 #
coedge $-1 $410 $405 $402 $574 forward $400 $-1 #
edge $-1 $577 -39.927865372810317 $720 -22.388868940982952 $573 $721 forward 7 unknown #
coedge $-1 $404 $403 $580 $722 reversed $159 $-1 #
edge $-1 $723 8.4987301443310198e-015 $577 20.912855654045796 $571 $724 forward 7 unknown #
vertex $-1 $406 $725 #
straight-curve $-1 -21.79562745517272 -9.031030072688278 13.23125206700286 -1 0 0 I I #
coedge $-1 $718 $407 $410 $584 reversed $569 $-1 #
coedge $-1 $407 $718 $575 $722 forward $569 $-1 #
vertex $-1 $408 $726 #
straight-curve $-1 -36.925050556043729 -26.570026504515646 55.853607486828004 0 0 1 I I #
straight-curve $-1 -36.925050556043729 -26.570026504515653 1.8412943949435885 0 -0.83867056331134215 -0.54463904215088732 I I #
edge $-1 $720 -50.257459264647153 $411 -36.925050556043729 $579 $727 forward 7 unknown #
point $-1 -36.925050556043729 -26.570026504515646 13.23125206700286 #
point $-1 -36.925050556043729 -9.031030072688278 13.23125206700286 #
edge $-1 $728 1 $728 0 $414 $-1 forward 7 unknown #
vertex $-1 $415 $729 #
ellipse-curve $-1 -46.448199633617605 -16.875920115814459 6.1125015269624701 0 -0.54463904215088732 0.83867056331134215 1 0 0 1 I I #
point $-1 -45.448199633617605 -17.800528288601939 7.5362732309732134 #
edge $-1 $730 1 $730 0 $418 $-1 forward 7 unknown #
vertex $-1 $419 $731 #
ellipse-curve $-1 -40.734310187073277 -16.875920115814459 6.1125015269624701 0 -0.54463904215088732 0.83867056331134215 1 0 0 1 I I #
point $-1 -39.734310187073277 -17.800528288601939 7.5362732309732134 #
plane-surface $-1 0 0 13.23125206700286 0 0 1 1 0 0 forward_v I I I I #
coedge $-1 $606 $605 $598 $732 forward $423 $-1 #
coedge $-1 $598 $425 $427 $602 reversed $275 $-1 #
coedge $-1 $425 $597 $596 $732 reversed $275 $-1 #
coedge $-1 $433 $428 $425 $600 forward $434 $-1 #
edge $-1 $603 -39.927865372810317 $733 -22.388868940982952 $599 $734 forward 7 unknown #
coedge $-1 $427 $426 $606 $735 reversed $173 $-1 #
edge $-1 $736 8.4987301443310198e-015 $603 20.912855654045796 $597 $737 forward 7 unknown #
vertex $-1 $429 $738 #
straight-curve $-1 -4.7247780662047312 -9.031030072688278 13.23125206700286 -1 0 0 I I #
coedge $-1 $596 $430 $433 $610 reversed $423 $-1 #
coedge $-1 $430 $596 $601 $735 forward $423 $-1 #
vertex $-1 $431 $739 #
straight-curve $-1 -2.7833517781077495 -26.570026504515646 55.853607486828004 0 0 1 I I #
straight-curve $-1 -2.7833517781077495 -26.570026504515653 1.8412943949435885 0 -0.83867056331134215 -0.54463904215088732 I I #
edge $-1 $733 -16.115760486711174 $435 -2.7833517781077495 $605 $740 forward 7 unknown #
point $-1 -2.7833517781077495 -26.570026504515646 13.23125206700286 #
point $-1 -2.7833517781077495 -9.031030072688278 13.23125206700286 #
edge $-1 $741 1 $741 0 $438 $-1 forward 7 unknown #
vertex $-1 $439 $742 #
ellipse-curve $-1 -12.306500855681627 -16.875920115814459 6.1125015269624701 0 -0.54463904215088732 0.83867056331134215 1 0 0 1 I I #
point $-1 -11.306500855681627 -17.800528288601939 7.5362732309732134 #
edge $-1 $743 1 $743 0 $442 $-1 forward 7 unknown #
vertex $-1 $443 $744 #
ellipse-curve $-1 -6.5926114091373051 -16.875920115814459 6.1125015269624701 0 -0.54463904215088732 0.83867056331134215 1 0 0 1 I I #
point $-1 -5.5926114091373051 -17.800528288601939 7.5362732309732134 #
plane-surface $-1 0 0 13.23125206700286 0 0 1 1 0 0 forward_v I I I I #
coedge $-1 $632 $631 $624 $745 forward $447 $-1 #
coedge $-1 $624 $449 $451 $628 reversed $297 $-1 #
coedge $-1 $449 $623 $622 $745 reversed $297 $-1 #
coedge $-1 $457 $452 $449 $626 forward $458 $-1 #
edge $-1 $629 -39.927865372810317 $746 -22.388868940982952 $625 $747 forward 7 unknown #
coedge $-1 $451 $450 $632 $748 reversed $187 $-1 #
edge $-1 $749 8.4987301443310198e-015 $629 20.912855654045796 $623 $750 forward 7 unknown #
vertex $-1 $453 $751 #
straight-curve $-1 12.346071322763258 -9.031030072688278 13.23125206700286 -1 0 0 I I #
coedge $-1 $622 $454 $457 $636 reversed $447 $-1 #
coedge $-1 $454 $622 $627 $748 forward $447 $-1 #
vertex $-1 $455 $752 #
straight-curve $-1 31.358346999828228 -26.570026504515646 55.853607486828004 0 0 1 I I #
straight-curve $-1 31.358346999828228 -26.570026504515653 1.8412943949435885 0 -0.83867056331134215 -0.54463904215088732 I I #
edge $-1 $746 18.025938291224804 $459 31.358346999828228 $631 $753 forward 7 unknown #
point $-1 31.358346999828228 -26.570026504515646 13.23125206700286 #
point $-1 31.358346999828228 -9.031030072688278 13.23125206700286 #
edge $-1 $754 1 $754 0 $462 $-1 forward 7 unknown #
vertex $-1 $463 $755 #
ellipse-curve $-1 21.835197922254352 -16.875920115814459 6.1125015269624701 0 -0.54463904215088732 0.83867056331134215 1 0 0 1 I I #
point $-1 22.835197922254352 -17.800528288601939 7.5362732309732134 #
edge $-1 $756 1 $756 0 $466 $-1 forward 7 unknown #
vertex $-1 $467 $757 #
ellipse-curve $-1 27.549087368798681 -16.875920115814459 6.1125015269624701 0 -0.54463904215088732 0.83867056331134215 1 0 0 1 I I #
point $-1 28.549087368798681 -17.800528288601939 7.5362732309732134 #
loop $-1 $-1 $479 $470 #
plane-surface $-1 65.500045777764214 0 0 -1 0 0 0 0 1 forward_v I I I I #
coedge $-1 $758 $473 $478 $655 forward $319 $-1 #
coedge $-1 $473 $758 $652 $759 reversed $319 $-1 #
edge $-1 $653 42.622355419825141 $660 54.012313091884408 $473 $760 forward 7 unknown #
coedge $-1 $482 $476 $650 $759 forward $471 $-1 #
vertex $-1 $759 $761 #
straight-curve $-1 52.167637069160776 -48.958895445498598 13.231252067002863 0 -1 0 I I #
edge $-1 $660 22.750716357429532 $658 36.083125066032956 $649 $762 forward 7 unknown #
coedge $-1 $657 $479 $482 $662 reversed $647 $-1 #
coedge $-1 $479 $656 $758 $763 forward $647 $-1 #
vertex $-1 $655 $764 #
straight-curve $-1 65.500045777764214 -17.646295670786856 7.6364330659668145 0 0.83867056331134215 0.54463904215088732 I I #
vertex $-1 $655 $765 #
straight-curve $-1 52.167637069160776 -26.570026504515653 1.8412943949435885 0 0.83867056331134215 0.54463904215088732 I I #
edge $-1 $766 -26.570026504515646 $483 -9.031030072688278 $656 $767 forward 7 unknown #
point $-1 65.5000457777642 -9.031030072688278 13.23125206700286 #
point $-1 52.167637069160776 -9.031030072688278 13.23125206700286 #
edge $-1 $768 1 $768 0 $486 $-1 forward 7 unknown #
vertex $-1 $487 $769 #
ellipse-curve $-1 55.976896700190323 -16.875920115814459 6.1125015269624701 0 -0.54463904215088732 0.83867056331134215 1 0 0 1 I I #
point $-1 56.976896700190323 -17.800528288601939 7.5362732309732134 #
edge $-1 $770 1 $770 0 $490 $-1 forward 7 unknown #
vertex $-1 $491 $771 #
ellipse-curve $-1 61.690786146734652 -16.875920115814459 6.1125015269624701 0 -0.54463904215088732 0.83867056331134215 1 0 0 1 I I #
point $-1 62.690786146734652 -17.800528288601939 7.5362732309732134 #
plane-surface $-1 65.500045777764214 0 0 -1 0 0 0 0 1 forward_v I I I I #
coedge $-1 $499 $497 $501 $678 reversed $341 $-1 #
edge $-1 $512 -13.23125206700286 $680 13.23125206700286 $511 $772 forward 7 unknown #
vertex $-1 $678 $773 #
straight-curve $-1 -65.500045777764214 -26.570026504515646 0 0 0 -1 I I #
edge $-1 $676 -26.570026504515646 $680 26.570026504515646 $674 $774 forward 7 unknown #
straight-curve $-1 0 -26.570026504515646 -13.23125206700286 -1 0 0 I I #
vertex $-1 $504 $775 #
straight-curve $-1 0 26.570026504515646 -13.23125206700286 1 0 0 I I #
point $-1 65.500045777764214 26.570026504515646 -13.23125206700286 #
point $-1 65.500045777764214 -26.570026504515646 -13.23125206700286 #
straight-curve $-1 -65.500045777764214 0 13.23125206700286 0 -1 0 I I #
point $-1 -65.500045777764214 26.570026504515646 13.23125206700286 #
point $-1 -65.500045777764214 -26.570026504515646 13.23125206700286 #
straight-curve $-1 65.500045777764214 -26.570026504515646 0 0 0 -1 I I #
straight-curve $-1 65.500045777764214 26.570026504515646 0 0 0 -1 I I #
plane-surface $-1 0 26.570026504515646 0 0 -1 0 0 0 -1 forward_v I I I I #
coedge $-1 $525 $524 $776 $777 forward $223 $-1 #
edge $-1 $528 50.257459264647153 $778 65.500045777764214 $527 $779 forward 7 unknown #
coedge $-1 $533 $532 $525 $693 reversed $534 $-1 #
edge $-1 $780 -65.500045777764214 $694 -50.257459264647153 $692 $781 forward 7 unknown #
vertex $-1 $540 $782 #
straight-curve $-1 -50.257459264647153 0 -13.23125206700286 0 -1 0 I I #
point $-1 -50.257459264647153 -26.570026504515646 -13.23125206700286 #
coedge $-1 $776 $530 $533 $700 forward $522 $-1 #
coedge $-1 $530 $776 $537 $702 reversed $522 $-1 #
straight-curve $-1 -65.500045777764214 0 -10.038582076067932 0 1 0 I I #
edge $-1 $535 10.038582076067932 $780 13.23125206700286 $533 $783 forward 7 unknown #
point $-1 -65.500045777764214 26.570026504515646 -10.038582076067932 #
edge $-1 $538 10.038582076067932 $778 13.23125206700286 $698 $784 forward 7 unknown #
point $-1 -65.500045777764214 -26.570026504515646 -10.038582076067932 #
straight-curve $-1 -50.257459264647153 26.570026504515646 -5.817458535767698 0 0 -1 I I #
edge $-1 $706 56.900745737252123 $709 61.015763930289857 $544 $785 forward 7 unknown #
vertex $-1 $558 $786 #
straight-curve $-1 -27.287188152361537 39.672291500395417 13.231252067002856 0 1 0 I I #
edge $-1 $709 7.9010262981093646 $555 30.87129741039498 $554 $787 forward 7 unknown #
vertex $-1 $708 $788 #
straight-curve $-1 -27.287188152361537 -11.655728198205296 46.030416936983912 0 -0.71933979245794832 0.69465837861970381 I I #
point $-1 -27.287188152361537 22.308800520569122 13.231252067002856 #
point $-1 -50.257459264647153 26.570026504515646 9.1162338739651219 #
straight-curve $-1 0 26.570026504515646 13.23125206700286 -1 0 0 I I #
vertex $-1 $561 $789 #
point $-1 -42.694524661136981 22.953637035990269 9.6351764244278169 #
vertex $-1 $565 $790 #
point $-1 -32.850122755871709 22.953637035990269 9.6351764244278169 #
coedge $-1 $580 $579 $572 $719 forward $569 $-1 #
edge $-1 $720 42.622355419825141 $723 54.012313091884408 $718 $791 forward 7 unknown #
vertex $-1 $584 $792 #
straight-curve $-1 -50.257459264647153 -48.958895445498598 13.231252067002863 0 -1 0 I I #
edge $-1 $723 -28.461831809474432 $581 -15.129423100871009 $580 $793 forward 7 unknown #
vertex $-1 $722 $794 #
straight-curve $-1 -50.257459264647153 -26.570026504515653 1.8412943949435885 0 0.83867056331134215 0.54463904215088732 I I #
point $-1 -50.257459264647153 -9.031030072688278 13.23125206700286 #
point $-1 -36.925050556043729 -26.570026504515646 1.8412943949435931 #
straight-curve $-1 0 -26.570026504515646 13.23125206700286 1 0 0 I I #
vertex $-1 $587 $795 #
point $-1 -45.448199633617605 -16.875920115814459 6.1125015269624701 #
vertex $-1 $591 $796 #
point $-1 -39.734310187073277 -16.875920115814459 6.1125015269624701 #
edge $-1 $733 42.622355419825141 $736 54.012313091884408 $596 $797 forward 7 unknown #
vertex $-1 $610 $798 #
straight-curve $-1 -16.115760486711174 -48.958895445498598 13.231252067002863 0 -1 0 I I #
edge $-1 $736 -11.390982420506443 $607 1.9414262880969817 $606 $799 forward 7 unknown #
vertex $-1 $735 $800 #
straight-curve $-1 -16.115760486711174 -26.570026504515653 1.8412943949435885 0 0.83867056331134215 0.54463904215088732 I I #
point $-1 -16.115760486711174 -9.031030072688278 13.23125206700286 #
point $-1 -2.7833517781077495 -26.570026504515646 1.8412943949435931 #
straight-curve $-1 0 -26.570026504515646 13.23125206700286 1 0 0 I I #
vertex $-1 $613 $801 #
point $-1 -11.306500855681627 -16.875920115814459 6.1125015269624701 #
vertex $-1 $617 $802 #
point $-1 -5.5926114091373051 -16.875920115814459 6.1125015269624701 #
edge $-1 $746 42.622355419825141 $749 54.012313091884408 $622 $803 forward 7 unknown #
vertex $-1 $636 $804 #
straight-curve $-1 18.025938291224804 -48.958895445498598 13.231252067002863 0 -1 0 I I #
edge $-1 $749 5.6798669684615462 $633 19.01227567706497 $632 $805 forward 7 unknown #
vertex $-1 $748 $806 #
straight-curve $-1 18.025938291224804 -26.570026504515653 1.8412943949435885 0 0.83867056331134215 0.54463904215088732 I I #
point $-1 18.025938291224804 -9.031030072688278 13.23125206700286 #
point $-1 31.358346999828228 -26.570026504515646 1.8412943949435931 #
straight-curve $-1 0 -26.570026504515646 13.23125206700286 1 0 0 I I #
vertex $-1 $639 $807 #
point $-1 22.835197922254352 -16.875920115814459 6.1125015269624701 #
vertex $-1 $643 $808 #
point $-1 28.549087368798681 -16.875920115814459 6.1125015269624701 #
coedge $-1 $650 $649 $657 $763 reversed $319 $-1 #
edge $-1 $653 52.167637069160776 $766 65.500045777764214 $650 $809 forward 7 unknown #
straight-curve $-1 52.167637069160776 -26.570026504515646 55.853607486828004 0 0 -1 I I #
point $-1 52.167637069160776 -26.570026504515646 13.23125206700286 #
straight-curve $-1 29.416920711731244 -26.570026504515646 1.8412943949435925 1 0 0 I I #
edge $-1 $766 -13.23125206700286 $658 -1.8412943949435931 $657 $810 forward 7 unknown #
point $-1 65.5000457777642 -26.570026504515646 1.8412943949435931 #
point $-1 52.167637069160776 -26.570026504515646 1.8412943949435931 #
vertex $-1 $662 $811 #
straight-curve $-1 65.500045777764214 0 13.23125206700286 0 1 0 I I #
vertex $-1 $665 $812 #
point $-1 56.976896700190323 -16.875920115814459 6.1125015269624701 #
vertex $-1 $669 $813 #
point $-1 62.690786146734652 -16.875920115814459 6.1125015269624701 #
straight-curve $-1 -65.500045777764214 26.570026504515646 0 0 0 -1 I I #
point $-1 -65.500045777764214 -26.570026504515646 -13.23125206700286 #
straight-curve $-1 -65.500045777764214 0 -13.23125206700286 0 1 0 I I #
point $-1 -65.500045777764214 26.570026504515646 -13.23125206700286 #
coedge $-1 $698 $697 $690 $777 reversed $522 $-1 #
edge $-1 $778 -26.570026504515646 $780 26.570026504515646 $776 $814 forward 7 unknown #
vertex $-1 $777 $815 #
straight-curve $-1 0 -26.570026504515646 -13.23125206700286 -1 0 0 I I #
vertex $-1 $693 $816 #
straight-curve $-1 0 26.570026504515646 -13.23125206700286 1 0 0 I I #
point $-1 -50.257459264647153 26.570026504515646 -13.23125206700286 #
straight-curve $-1 -65.500045777764214 26.570026504515646 0 0 0 -1 I I #
straight-curve $-1 -65.500045777764214 -26.570026504515646 0 0 0 -1 I I #
straight-curve $-1 -27.287188152361537 26.570026504515646 70.131997804254979 0 0 -1 I I #
point $-1 -27.287188152361537 26.570026504515646 13.23125206700286 #
straight-curve $-1 -19.386161854252173 26.570026504515646 9.1162338739651219 -1 0 0 I I #
point $-1 -27.287188152361537 26.570026504515646 9.1162338739651219 #
point $-1 -43.694524661136981 22.258978657370562 8.915836631969869 #
point $-1 -33.850122755871709 22.258978657370562 8.915836631969869 #
straight-curve $-1 -50.257459264647153 -26.570026504515646 55.853607486828004 0 0 -1 I I #
point $-1 -50.257459264647153 -26.570026504515646 13.23125206700286 #
straight-curve $-1 -21.79562745517272 -26.570026504515646 1.8412943949435925 1 0 0 I I #
point $-1 -50.257459264647153 -26.570026504515646 1.8412943949435931 #
point $-1 -46.448199633617605 -16.331281073663568 5.2738309636511271 #
point $-1 -40.734310187073277 -16.331281073663568 5.2738309636511271 #
straight-curve $-1 -16.115760486711174 -26.570026504515646 55.853607486828004 0 0 -1 I I #
point $-1 -16.115760486711174 -26.570026504515646 13.23125206700286 #
straight-curve $-1 -4.7247780662047312 -26.570026504515646 1.8412943949435925 1 0 0 I I #
point $-1 -16.115760486711174 -26.570026504515646 1.8412943949435931 #
point $-1 -12.306500855681627 -16.331281073663568 5.2738309636511271 #
point $-1 -6.5926114091373051 -16.331281073663568 5.2738309636511271 #
straight-curve $-1 18.025938291224804 -26.570026504515646 55.853607486828004 0 0 -1 I I #
point $-1 18.025938291224804 -26.570026504515646 13.23125206700286 #
straight-curve $-1 12.346071322763258 -26.570026504515646 1.8412943949435925 1 0 0 I I #
point $-1 18.025938291224804 -26.570026504515646 1.8412943949435931 #
point $-1 21.835197922254352 -16.331281073663568 5.2738309636511271 #
point $-1 27.549087368798681 -16.331281073663568 5.2738309636511271 #
straight-curve $-1 0 -26.570026504515646 13.23125206700286 1 0 0 I I #
straight-curve $-1 65.500045777764214 -26.570026504515646 0 0 0 -1 I I #
point $-1 65.500045777764214 -26.570026504515646 13.23125206700286 #
point $-1 55.976896700190323 -16.331281073663568 5.2738309636511271 #
point $-1 61.690786146734652 -16.331281073663568 5.2738309636511271 #
straight-curve $-1 -65.500045777764214 0 -13.23125206700286 0 1 0 I I #
point $-1 -65.500045777764214 -26.570026504515646 -13.23125206700286 #
point $-1 -65.500045777764214 26.570026504515646 -13.23125206700286 #
End-of-ACIS-data 