500 0 3 0           
7 Unknown 11 ACIS 5.0 NT 24 Thu Mar 25 17:57:45 1999 
-1 9.9999999999999995e-007 1e-010 
body $-1 $3 $-1 $4 #
body $-1 $5 $-1 $6 #
body $-1 $7 $-1 $8 #
lump $-1 $-1 $9 $0 #
transform $-1 1 0 0 0 1 0 0 0 1 69.159825434125793 46.079182132334481 10.209786618157745 1 rotate no_reflect no_shear #
lump $-1 $-1 $10 $1 #
transform $-1 1 0 0 0 1 0 0 0 1 69.159825434125793 46.079182132334481 10.209786618157745 1 rotate no_reflect no_shear #
lump $-1 $-1 $11 $2 #
transform $-1 1 0 0 0 1 0 0 0 1 69.159825434125793 46.079182132334481 10.209786618157745 1 rotate no_reflect no_shear #
shell $-1 $-1 $-1 $12 $-1 $3 #
shell $-1 $-1 $-1 $13 $-1 $5 #
shell $-1 $-1 $-1 $14 $-1 $7 #
face $-1 $15 $16 $9 $-1 $17 forward single #
face $-1 $18 $19 $10 $-1 $20 reversed single #
face $-1 $21 $22 $11 $-1 $23 forward single #
face $-1 $24 $25 $9 $-1 $26 reversed single #
loop $-1 $-1 $27 $12 #
plane-surface $-1 0 0 10.209786618157745 0 0 1 1 0 0 forward_v I I I I #
face $-1 $28 $29 $10 $-1 $30 forward single #
loop $-1 $-1 $31 $13 #
plane-surface $-1 -65.250050791903007 0 -4.8230001252827588 0 0 1 1 0 0 forward_v I I I I #
face $-1 $32 $33 $11 $-1 $34 forward single #
loop $-1 $-1 $35 $14 #
plane-surface $-1 61.495128890348965 -43.047155623876847 0 1 0 0 0 0 -1 forward_v I I I I #
face $-1 $36 $37 $9 $-1 $38 reversed single #
loop $-1 $-1 $39 $15 #
plane-surface $-1 0 0 -10.209786618157745 0 0 1 1 0 0 forward_v I I I I #
coedge $-1 $40 $41 $42 $43 forward $16 $-1 #
face $-1 $44 $45 $10 $-1 $46 reversed single #
loop $-1 $-1 $47 $18 #
plane-surface $-1 -61.340276149680221 0 -7.5163933717202518 -1 0 0 0 0 1 forward_v I I I I #
coedge $-1 $48 $49 $50 $51 reversed $19 $-1 #
face $-1 $52 $53 $11 $-1 $54 reversed single #
loop $-1 $-1 $55 $21 #
plane-surface $-1 65.327477162237386 -40.015129115419214 0 0 -1 0 0 0 -1 forward_v I I I I #
coedge $-1 $56 $57 $58 $59 reversed $22 $-1 #
face $-1 $60 $61 $9 $-1 $62 reversed single #
loop $-1 $-1 $63 $24 #
plane-surface $-1 0 -46.079182132334481 0 0 1 0 0 0 1 forward_v I I I I #
coedge $-1 $64 $65 $66 $67 forward $25 $-1 #
coedge $-1 $68 $27 $69 $70 forward $16 $-1 #
coedge $-1 $27 $68 $71 $72 forward $16 $-1 #
coedge $-1 $73 $74 $27 $43 reversed $75 $-1 #
edge $-1 $76 -46.079182132334481 $77 46.079182132334481 $42 $78 forward 7 unknown #
face $-1 $79 $80 $10 $-1 $81 reversed single #
loop $-1 $-1 $82 $28 #
plane-surface $-1 -69.159825434125793 0 0 1 0 0 0 0 -1 forward_v I I I I #
coedge $-1 $50 $83 $84 $85 reversed $29 $-1 #
coedge $-1 $86 $31 $87 $88 reversed $19 $-1 #
coedge $-1 $31 $86 $89 $90 reversed $19 $-1 #
coedge $-1 $91 $47 $31 $51 forward $29 $-1 #
edge $-1 $92 -46.079182132334481 $93 46.079182132334481 $50 $94 forward 7 unknown #
face $-1 $95 $96 $11 $-1 $97 reversed single #
loop $-1 $-1 $98 $32 #
plane-surface $-1 69.159825434125793 0 0 -1 0 0 0 0 1 forward_v I I I I #
coedge $-1 $99 $100 $98 $101 reversed $33 $-1 #
coedge $-1 $102 $35 $103 $104 reversed $22 $-1 #
coedge $-1 $35 $102 $105 $106 reversed $22 $-1 #
coedge $-1 $100 $99 $35 $59 forward $33 $-1 #
edge $-1 $107 -10.209786618157745 $108 10.209786618157745 $58 $109 forward 7 unknown #
face $-1 $110 $111 $9 $-1 $112 reversed single #
loop $-1 $-1 $113 $36 #
plane-surface $-1 -69.159825434125793 0 0 1 0 0 0 0 -1 forward_v I I I I #
coedge $-1 $114 $71 $115 $116 forward $37 $-1 #
coedge $-1 $117 $39 $114 $118 forward $25 $-1 #
coedge $-1 $39 $117 $119 $120 forward $25 $-1 #
coedge $-1 $74 $73 $39 $67 reversed $75 $-1 #
edge $-1 $121 -46.079182132334481 $122 46.079182132334481 $66 $123 forward 7 unknown #
coedge $-1 $41 $40 $124 $125 forward $16 $-1 #
coedge $-1 $126 $127 $40 $70 reversed $111 $-1 #
edge $-1 $77 -69.159825434125793 $128 69.159825434125793 $69 $129 forward 7 unknown #
coedge $-1 $63 $130 $41 $72 reversed $37 $-1 #
edge $-1 $131 -69.159825434125793 $76 69.159825434125793 $71 $132 forward 7 unknown #
coedge $-1 $66 $42 $130 $133 forward $75 $-1 #
coedge $-1 $42 $66 $126 $134 reversed $75 $-1 #
loop $-1 $-1 $73 $110 #
vertex $-1 $43 $135 #
vertex $-1 $43 $136 #
straight-curve $-1 69.159825434125793 0 10.209786618157745 0 1 0 I I #
face $-1 $137 $138 $10 $-1 $139 forward single #
loop $-1 $-1 $87 $44 #
plane-surface $-1 0 -46.079182132334481 0 0 1 0 0 0 1 forward_v I I I I #
coedge $-1 $140 $141 $86 $142 forward $45 $-1 #
coedge $-1 $47 $91 $143 $144 reversed $29 $-1 #
coedge $-1 $145 $87 $47 $85 forward $80 $-1 #
edge $-1 $92 1.0648034394226329 $146 6.4515899322976189 $84 $147 forward 7 unknown #
coedge $-1 $49 $48 $82 $142 reversed $19 $-1 #
coedge $-1 $84 $148 $48 $88 forward $80 $-1 #
edge $-1 $149 -36.534800038174289 $92 -28.715250753728718 $87 $150 forward 7 unknown #
coedge $-1 $151 $152 $49 $90 forward $153 $-1 #
edge $-1 $93 28.715250753728718 $154 36.534800038174289 $89 $155 forward 7 unknown #
coedge $-1 $83 $50 $152 $156 reversed $29 $-1 #
vertex $-1 $88 $157 #
vertex $-1 $90 $158 #
straight-curve $-1 -61.340276149680221 0 -4.8230001252827588 0 1 0 I I #
face $-1 $159 $160 $11 $-1 $161 reversed single #
loop $-1 $-1 $162 $52 #
plane-surface $-1 0 0 -10.209786618157745 0 0 1 1 0 0 forward_v I I I I #
coedge $-1 $163 $164 $55 $101 forward $53 $-1 #
coedge $-1 $58 $55 $165 $166 reversed $33 $-1 #
coedge $-1 $55 $58 $162 $167 reversed $33 $-1 #
edge $-1 $168 -10.209786618157745 $169 10.209786618157745 $98 $170 forward 7 unknown #
coedge $-1 $57 $56 $171 $172 reversed $22 $-1 #
coedge $-1 $165 $173 $56 $104 forward $174 $-1 #
edge $-1 $175 -24.555604320396057 $107 -18.49155130348079 $103 $176 forward 7 unknown #
coedge $-1 $177 $162 $57 $106 forward $96 $-1 #
edge $-1 $108 18.49155130348079 $178 24.555604320396057 $105 $179 forward 7 unknown #
vertex $-1 $104 $180 #
vertex $-1 $106 $181 #
straight-curve $-1 61.495128890348965 -40.015129115419214 0 0 0 -1 I I #
face $-1 $-1 $75 $9 $-1 $182 reversed single #
loop $-1 $-1 $126 $60 #
plane-surface $-1 0 46.079182132334481 0 0 -1 0 0 0 -1 forward_v I I I I #
coedge $-1 $183 $124 $127 $184 forward $61 $-1 #
coedge $-1 $130 $63 $64 $118 reversed $37 $-1 #
coedge $-1 $124 $183 $63 $116 reversed $61 $-1 #
edge $-1 $131 -10.209786618157745 $185 10.209786618157745 $115 $186 forward 7 unknown #
coedge $-1 $65 $64 $183 $187 forward $25 $-1 #
edge $-1 $122 -69.159825434125793 $185 69.159825434125793 $114 $188 forward 7 unknown #
coedge $-1 $127 $126 $65 $120 reversed $111 $-1 #
edge $-1 $189 -69.159825434125793 $121 69.159825434125793 $119 $190 forward 7 unknown #
vertex $-1 $67 $191 #
vertex $-1 $133 $192 #
straight-curve $-1 69.159825434125793 0 -10.209786618157745 0 -1 0 I I #
coedge $-1 $113 $115 $68 $125 reversed $61 $-1 #
edge $-1 $128 -46.079182132334481 $131 46.079182132334481 $124 $193 forward 7 unknown #
coedge $-1 $119 $69 $74 $134 forward $111 $-1 #
coedge $-1 $69 $119 $113 $184 reversed $111 $-1 #
vertex $-1 $70 $194 #
straight-curve $-1 0 46.079182132334481 10.209786618157745 -1 0 0 I I #
coedge $-1 $71 $114 $73 $133 reversed $37 $-1 #
vertex $-1 $125 $195 #
straight-curve $-1 0 -46.079182132334481 10.209786618157745 1 0 0 I I #
edge $-1 $76 -10.209786618157745 $122 10.209786618157745 $73 $196 forward 7 unknown #
edge $-1 $77 -10.209786618157745 $121 10.209786618157745 $74 $197 forward 7 unknown #
point $-1 69.159825434125793 -46.079182132334481 10.209786618157745 #
point $-1 69.159825434125793 46.079182132334481 10.209786618157745 #
face $-1 $198 $199 $10 $-1 $200 reversed single #
loop $-1 $-1 $201 $79 #
plane-surface $-1 0 0 10.209786618157745 0 0 1 1 0 0 forward_v I I I I #
coedge $-1 $202 $82 $148 $203 reversed $45 $-1 #
coedge $-1 $82 $202 $151 $204 forward $45 $-1 #
edge $-1 $154 -46.079182132334481 $149 46.079182132334481 $82 $205 forward 7 unknown #
coedge $-1 $206 $207 $83 $144 forward $199 $-1 #
edge $-1 $146 -46.079182132334481 $208 46.079182132334481 $143 $209 forward 7 unknown #
coedge $-1 $210 $84 $207 $211 reversed $80 $-1 #
vertex $-1 $85 $212 #
straight-curve $-1 -61.340276149680221 -46.079182132334481 -3.7581966858601259 0 0 -1 I I #
coedge $-1 $87 $213 $140 $203 forward $80 $-1 #
vertex $-1 $88 $214 #
straight-curve $-1 -32.625025395951504 -46.079182132334481 -4.8230001252827588 1 0 0 I I #
coedge $-1 $215 $89 $141 $204 reversed $153 $-1 #
coedge $-1 $89 $216 $91 $156 forward $153 $-1 #
loop $-1 $-1 $89 $198 #
vertex $-1 $142 $217 #
straight-curve $-1 -32.625025395951504 46.079182132334481 -4.8230001252827588 -1 0 0 I I #
edge $-1 $208 -6.4515899322976189 $93 -1.0648034394226329 $152 $218 forward 7 unknown #
point $-1 -61.340276149680221 -46.079182132334481 -4.8230001252827588 #
point $-1 -61.340276149680221 46.079182132334481 -4.8230001252827588 #
face $-1 $219 $220 $11 $-1 $221 forward single #
loop $-1 $-1 $222 $95 #
plane-surface $-1 -65.250050791903007 0 -4.8230001252827588 0 0 1 1 0 0 forward_v I I I I #
coedge $-1 $105 $223 $100 $167 forward $96 $-1 #
coedge $-1 $224 $98 $223 $225 reversed $53 $-1 #
coedge $-1 $98 $224 $226 $227 reversed $53 $-1 #
coedge $-1 $226 $103 $99 $166 forward $174 $-1 #
edge $-1 $107 28.831390309230272 $168 36.496086853007114 $165 $228 forward 7 unknown #
edge $-1 $169 -36.496086853007114 $108 -28.831390309230272 $162 $229 forward 7 unknown #
vertex $-1 $227 $230 #
vertex $-1 $101 $231 #
straight-curve $-1 69.159825434125793 -40.015129115419214 0 0 0 -1 I I #
coedge $-1 $232 $233 $102 $172 forward $234 $-1 #
edge $-1 $178 -10.209786618157745 $175 10.209786618157745 $171 $235 forward 7 unknown #
coedge $-1 $103 $236 $232 $237 forward $174 $-1 #
loop $-1 $-1 $165 $238 #
vertex $-1 $172 $239 #
straight-curve $-1 61.495128890348965 -21.523577811938424 10.209786618157745 0 1 0 I I #
coedge $-1 $240 $105 $233 $241 forward $96 $-1 #
vertex $-1 $241 $242 #
straight-curve $-1 61.495128890348965 -21.523577811938424 -10.209786618157745 0 -1 0 I I #
point $-1 61.495128890348965 -40.015129115419214 10.209786618157745 #
point $-1 61.495128890348965 -40.015129115419214 -10.209786618157745 #
plane-surface $-1 69.159825434125793 0 0 -1 0 0 0 0 1 forward_v I I I I #
coedge $-1 $115 $113 $117 $187 reversed $61 $-1 #
edge $-1 $128 -10.209786618157745 $189 10.209786618157745 $127 $243 forward 7 unknown #
vertex $-1 $187 $244 #
straight-curve $-1 -69.159825434125793 -46.079182132334481 0 0 0 -1 I I #
edge $-1 $185 -46.079182132334481 $189 46.079182132334481 $183 $245 forward 7 unknown #
straight-curve $-1 0 -46.079182132334481 -10.209786618157745 -1 0 0 I I #
vertex $-1 $120 $246 #
straight-curve $-1 0 46.079182132334481 -10.209786618157745 1 0 0 I I #
point $-1 69.159825434125793 46.079182132334481 -10.209786618157745 #
point $-1 69.159825434125793 -46.079182132334481 -10.209786618157745 #
straight-curve $-1 -69.159825434125793 0 10.209786618157745 0 -1 0 I I #
point $-1 -69.159825434125793 46.079182132334481 10.209786618157745 #
point $-1 -69.159825434125793 -46.079182132334481 10.209786618157745 #
straight-curve $-1 69.159825434125793 -46.079182132334481 0 0 0 -1 I I #
straight-curve $-1 69.159825434125793 46.079182132334481 0 0 0 -1 I I #
face $-1 $247 $153 $10 $-1 $248 reversed single #
loop $-1 $-1 $143 $137 #
plane-surface $-1 0 0 -10.209786618157745 0 0 1 1 0 0 forward_v I I I I #
coedge $-1 $249 $250 $251 $252 forward $138 $-1 #
coedge $-1 $141 $140 $253 $254 reversed $45 $-1 #
edge $-1 $255 -10.209786618157745 $149 4.8230001252827588 $140 $256 forward 7 unknown #
edge $-1 $257 -10.209786618157745 $154 4.8230001252827588 $151 $258 forward 7 unknown #
straight-curve $-1 -69.159825434125793 0 -4.8230001252827588 0 -1 0 I I #
coedge $-1 $259 $143 $216 $260 forward $199 $-1 #
coedge $-1 $143 $259 $145 $211 forward $199 $-1 #
vertex $-1 $260 $261 #
straight-curve $-1 -61.340276149680221 0 -10.209786618157745 0 1 0 I I #
coedge $-1 $213 $145 $262 $263 reversed $80 $-1 #
edge $-1 $264 -69.159825434125793 $146 61.340276149680221 $145 $265 forward 7 unknown #
point $-1 -61.340276149680221 -46.079182132334481 -10.209786618157745 #
coedge $-1 $148 $210 $250 $266 reversed $80 $-1 #
point $-1 -69.159825434125793 -46.079182132334481 -4.8230001252827588 #
coedge $-1 $267 $151 $249 $268 reversed $153 $-1 #
coedge $-1 $152 $267 $206 $260 reversed $153 $-1 #
point $-1 -69.159825434125793 46.079182132334481 -4.8230001252827588 #
straight-curve $-1 -61.340276149680221 46.079182132334481 -3.7581966858601259 0 0 1 I I #
face $-1 $269 $270 $11 $-1 $271 reversed single #
loop $-1 $-1 $272 $159 #
plane-surface $-1 -61.340276149680221 0 -7.5163933717202518 -1 0 0 0 0 1 forward_v I I I I #
coedge $-1 $273 $274 $275 $276 reversed $160 $-1 #
coedge $-1 $162 $277 $163 $225 forward $96 $-1 #
coedge $-1 $164 $163 $278 $279 reversed $53 $-1 #
edge $-1 $280 -46.079182132334481 $169 40.015129115419214 $163 $281 forward 7 unknown #
coedge $-1 $282 $165 $164 $227 forward $174 $-1 #
edge $-1 $168 -40.015129115419214 $283 46.079182132334481 $164 $284 forward 7 unknown #
straight-curve $-1 32.663738581118693 -40.015129115419214 10.209786618157745 1 0 0 I I #
straight-curve $-1 32.663738581118693 -40.015129115419214 -10.209786618157745 -1 0 0 I I #
point $-1 69.159825434125807 -40.015129115419214 10.209786618157745 #
point $-1 69.159825434125807 -40.015129115419214 -10.209786618157745 #
coedge $-1 $285 $171 $173 $237 reversed $234 $-1 #
coedge $-1 $171 $286 $177 $241 reversed $234 $-1 #
loop $-1 $-1 $171 $269 #
straight-curve $-1 61.495128890348965 -46.079182132334481 0 0 0 1 I I #
coedge $-1 $173 $282 $287 $288 forward $174 $-1 #
edge $-1 $289 -69.159825434125793 $175 61.495128890348965 $232 $290 forward 7 unknown #
face $-1 $291 $174 $11 $-1 $292 forward single #
point $-1 61.495128890348965 -46.079182132334481 10.209786618157745 #
coedge $-1 $277 $177 $293 $294 forward $96 $-1 #
edge $-1 $178 -61.495128890348965 $295 61.340276149680221 $233 $296 forward 7 unknown #
point $-1 61.495128890348965 -46.079182132334481 -10.209786618157745 #
straight-curve $-1 -69.159825434125793 46.079182132334481 0 0 0 -1 I I #
point $-1 -69.159825434125793 -46.079182132334481 -10.209786618157745 #
straight-curve $-1 -69.159825434125793 0 -10.209786618157745 0 1 0 I I #
point $-1 -69.159825434125793 46.079182132334481 -10.209786618157745 #
face $-1 $-1 $297 $10 $-1 $298 reversed single #
plane-surface $-1 0 46.079182132334481 0 0 -1 0 0 0 -1 forward_v I I I I #
coedge $-1 $253 $201 $215 $268 forward $138 $-1 #
coedge $-1 $201 $253 $213 $266 forward $138 $-1 #
coedge $-1 $262 $299 $201 $252 reversed $297 $-1 #
edge $-1 $300 -46.079182132334481 $301 46.079182132334481 $251 $302 forward 7 unknown #
coedge $-1 $250 $249 $202 $254 forward $138 $-1 #
edge $-1 $257 -46.079182132334481 $255 46.079182132334481 $202 $303 forward 7 unknown #
vertex $-1 $254 $304 #
straight-curve $-1 -69.159825434125793 -46.079182132334481 0 0 0 -1 I I #
vertex $-1 $268 $305 #
straight-curve $-1 -69.159825434125793 46.079182132334481 0 0 0 -1 I I #
coedge $-1 $207 $206 $306 $307 forward $199 $-1 #
edge $-1 $208 -61.340276149680221 $308 69.159825434125793 $216 $309 forward 7 unknown #
point $-1 -61.340276149680221 46.079182132334481 -10.209786618157745 #
coedge $-1 $306 $251 $210 $263 forward $297 $-1 #
edge $-1 $300 -10.209786618157745 $264 10.209786618157745 $262 $310 forward 7 unknown #
vertex $-1 $263 $311 #
straight-curve $-1 0 -46.079182132334481 -10.209786618157745 -1 0 0 I I #
edge $-1 $255 -69.159825434125793 $300 69.159825434125793 $213 $312 forward 7 unknown #
coedge $-1 $216 $215 $299 $313 forward $153 $-1 #
edge $-1 $301 -69.159825434125793 $257 69.159825434125793 $215 $314 forward 7 unknown #
face $-1 $238 $234 $11 $-1 $315 reversed single #
loop $-1 $-1 $316 $219 #
plane-surface $-1 -69.159825434125793 0 0 1 0 0 0 0 -1 forward_v I I I I #
coedge $-1 $275 $293 $286 $317 reversed $220 $-1 #
coedge $-1 $318 $222 $319 $320 reversed $160 $-1 #
coedge $-1 $222 $318 $321 $322 reversed $160 $-1 #
coedge $-1 $323 $272 $222 $276 forward $220 $-1 #
edge $-1 $324 -46.079182132334481 $325 46.079182132334481 $275 $326 forward 7 unknown #
coedge $-1 $223 $240 $327 $328 forward $96 $-1 #
coedge $-1 $327 $329 $224 $279 forward $330 $-1 #
edge $-1 $283 -10.209786618157745 $280 10.209786618157745 $224 $331 forward 7 unknown #
vertex $-1 $225 $332 #
straight-curve $-1 69.159825434125793 0 -10.209786618157745 0 -1 0 I I #
coedge $-1 $236 $226 $329 $333 forward $174 $-1 #
vertex $-1 $227 $334 #
straight-curve $-1 69.159825434125793 0 10.209786618157745 0 1 0 I I #
coedge $-1 $319 $232 $335 $336 forward $234 $-1 #
coedge $-1 $233 $319 $272 $317 forward $234 $-1 #
coedge $-1 $337 $335 $236 $288 reversed $270 $-1 #
edge $-1 $338 -46.079182132334481 $289 46.079182132334481 $287 $339 forward 7 unknown #
vertex $-1 $288 $340 #
straight-curve $-1 0 -46.079182132334481 10.209786618157745 1 0 0 I I #
face $-1 $-1 $330 $11 $-1 $341 reversed single #
plane-surface $-1 0 0 10.209786618157745 0 0 1 1 0 0 forward_v I I I I #
coedge $-1 $272 $323 $240 $294 reversed $220 $-1 #
edge $-1 $295 -46.079182132334481 $342 46.079182132334481 $240 $343 forward 7 unknown #
vertex $-1 $317 $344 #
straight-curve $-1 0 -46.079182132334481 -10.209786618157745 -1 0 0 I I #
loop $-1 $-1 $262 $247 #
plane-surface $-1 69.159825434125793 0 0 -1 0 0 0 0 1 forward_v I I I I #
coedge $-1 $251 $306 $267 $313 reversed $297 $-1 #
vertex $-1 $252 $345 #
vertex $-1 $252 $346 #
straight-curve $-1 69.159825434125793 0 10.209786618157745 0 1 0 I I #
straight-curve $-1 -69.159825434125793 0 10.209786618157745 0 -1 0 I I #
point $-1 -69.159825434125793 -46.079182132334481 10.209786618157745 #
point $-1 -69.159825434125793 46.079182132334481 10.209786618157745 #
coedge $-1 $299 $262 $259 $307 reversed $297 $-1 #
edge $-1 $308 -46.079182132334481 $264 46.079182132334481 $306 $347 forward 7 unknown #
vertex $-1 $307 $348 #
straight-curve $-1 0 46.079182132334481 -10.209786618157745 1 0 0 I I #
straight-curve $-1 69.159825434125793 -46.079182132334481 0 0 0 -1 I I #
point $-1 69.159825434125793 -46.079182132334481 -10.209786618157745 #
straight-curve $-1 0 -46.079182132334481 10.209786618157745 1 0 0 I I #
edge $-1 $301 -10.209786618157745 $308 10.209786618157745 $299 $349 forward 7 unknown #
straight-curve $-1 0 46.079182132334481 10.209786618157745 -1 0 0 I I #
plane-surface $-1 0 -46.079182132334481 0 0 1 0 0 0 1 forward_v I I I I #
coedge $-1 $335 $337 $318 $350 forward $270 $-1 #
edge $-1 $324 1.0648034394226329 $295 6.4515899322976189 $286 $351 forward 7 unknown #
coedge $-1 $274 $273 $316 $350 reversed $160 $-1 #
coedge $-1 $286 $285 $273 $320 forward $234 $-1 #
edge $-1 $352 -36.534800038174289 $324 -28.715250753728718 $319 $353 forward 7 unknown #
coedge $-1 $354 $355 $274 $322 forward $330 $-1 #
edge $-1 $325 28.715250753728718 $356 36.534800038174289 $321 $357 forward 7 unknown #
coedge $-1 $293 $275 $355 $358 reversed $220 $-1 #
vertex $-1 $320 $359 #
vertex $-1 $322 $360 #
straight-curve $-1 -61.340276149680221 0 -4.8230001252827588 0 1 0 I I #
coedge $-1 $355 $278 $277 $328 reversed $330 $-1 #
edge $-1 $342 -61.340276149680221 $280 69.159825434125793 $327 $361 forward 7 unknown #
coedge $-1 $278 $354 $282 $333 reversed $330 $-1 #
loop $-1 $-1 $321 $291 #
straight-curve $-1 69.159825434125793 46.079182132334481 0 0 0 -1 I I #
point $-1 69.159825434125793 46.079182132334481 -10.209786618157745 #
edge $-1 $283 -69.159825434125793 $338 69.159825434125793 $329 $362 forward 7 unknown #
point $-1 69.159825434125793 46.079182132334481 10.209786618157745 #
coedge $-1 $287 $316 $285 $336 reversed $270 $-1 #
edge $-1 $289 -10.209786618157745 $352 4.8230001252827588 $335 $363 forward 7 unknown #
coedge $-1 $316 $287 $354 $364 forward $270 $-1 #
vertex $-1 $333 $365 #
straight-curve $-1 -69.159825434125793 0 10.209786618157745 0 -1 0 I I #
point $-1 -69.159825434125793 -46.079182132334481 10.209786618157745 #
plane-surface $-1 0 46.079182132334481 0 0 -1 0 0 0 -1 forward_v I I I I #
vertex $-1 $328 $366 #
straight-curve $-1 -61.340276149680221 0 -10.209786618157745 0 1 0 I I #
point $-1 -61.340276149680221 -46.079182132334481 -10.209786618157745 #
point $-1 69.159825434125793 -46.079182132334481 10.209786618157745 #
point $-1 69.159825434125793 46.079182132334481 10.209786618157745 #
straight-curve $-1 69.159825434125793 0 -10.209786618157745 0 -1 0 I I #
point $-1 69.159825434125793 46.079182132334481 -10.209786618157745 #
straight-curve $-1 69.159825434125793 46.079182132334481 0 0 0 -1 I I #
edge $-1 $356 -46.079182132334481 $352 46.079182132334481 $316 $367 forward 7 unknown #
straight-curve $-1 -61.340276149680221 -46.079182132334481 -3.7581966858601259 0 0 -1 I I #
vertex $-1 $320 $368 #
straight-curve $-1 -32.625025395951504 -46.079182132334481 -4.8230001252827588 1 0 0 I I #
coedge $-1 $329 $321 $337 $364 reversed $330 $-1 #
coedge $-1 $321 $327 $323 $358 forward $330 $-1 #
vertex $-1 $350 $369 #
straight-curve $-1 -32.625025395951504 46.079182132334481 -4.8230001252827588 -1 0 0 I I #
edge $-1 $342 -6.4515899322976189 $325 -1.0648034394226329 $355 $370 forward 7 unknown #
point $-1 -61.340276149680221 -46.079182132334481 -4.8230001252827588 #
point $-1 -61.340276149680221 46.079182132334481 -4.8230001252827588 #
straight-curve $-1 0 46.079182132334481 -10.209786618157745 1 0 0 I I #
straight-curve $-1 0 46.079182132334481 10.209786618157745 -1 0 0 I I #
straight-curve $-1 -69.159825434125793 -46.079182132334481 0 0 0 -1 I I #
edge $-1 $338 -10.209786618157745 $356 4.8230001252827588 $354 $371 forward 7 unknown #
point $-1 -69.159825434125793 46.079182132334481 10.209786618157745 #
point $-1 -61.340276149680221 46.079182132334481 -10.209786618157745 #
straight-curve $-1 -69.159825434125793 0 -4.8230001252827588 0 -1 0 I I #
point $-1 -69.159825434125793 -46.079182132334481 -4.8230001252827588 #
point $-1 -69.159825434125793 46.079182132334481 -4.8230001252827588 #
straight-curve $-1 -61.340276149680221 46.079182132334481 -3.7581966858601259 0 0 1 I I #
straight-curve $-1 -69.159825434125793 46.079182132334481 0 0 0 -1 I I #
End-of-ACIS-data 