500 0 6 0           
7 Unknown 11 ACIS 5.0 NT 24 Fri Mar 26 03:27:05 1999 
-1 9.9999999999999995e-007 1e-010 
body $-1 $6 $-1 $7 #
body $-1 $8 $-1 $9 #
body $-1 $10 $-1 $11 #
body $-1 $12 $-1 $13 #
body $-1 $14 $-1 $15 #
body $-1 $16 $-1 $17 #
lump $-1 $-1 $18 $0 #
transform $-1 1 0 0 0 1 0 0 0 1 42.014221625415814 20.228039153428675 4.2232135579247689 1 rotate no_reflect no_shear #
lump $-1 $-1 $19 $1 #
transform $-1 1 0 0 0 1 0 0 0 1 42.014221625415814 20.228039153428675 4.2232135579247689 1 rotate no_reflect no_shear #
lump $-1 $-1 $20 $2 #
transform $-1 1 0 0 0 1 0 0 0 1 42.014221625415814 20.228039153428675 4.2232135579247689 1 rotate no_reflect no_shear #
lump $-1 $-1 $21 $3 #
transform $-1 1 0 0 0 1 0 0 0 1 42.014221625415814 20.228039153428675 4.2232135579247689 1 rotate no_reflect no_shear #
lump $-1 $-1 $22 $4 #
transform $-1 1 0 0 0 1 0 0 0 1 42.014221625415814 20.228039153428675 4.2232135579247689 1 rotate no_reflect no_shear #
lump $-1 $-1 $23 $5 #
transform $-1 1 0 0 0 1 0 0 0 1 42.014221625415814 20.228039153428675 4.2232135579247689 1 rotate no_reflect no_shear #
shell $-1 $-1 $-1 $24 $-1 $6 #
shell $-1 $-1 $-1 $25 $-1 $8 #
shell $-1 $-1 $-1 $26 $-1 $10 #
shell $-1 $-1 $-1 $27 $-1 $12 #
shell $-1 $-1 $-1 $28 $-1 $14 #
shell $-1 $-1 $-1 $29 $-1 $16 #
face $-1 $30 $31 $18 $-1 $32 forward single #
face $-1 $33 $34 $19 $-1 $35 forward single #
face $-1 $36 $37 $20 $-1 $38 reversed single #
face $-1 $39 $40 $21 $-1 $41 forward single #
face $-1 $42 $43 $22 $-1 $44 forward single #
face $-1 $45 $46 $23 $-1 $47 forward single #
face $-1 $48 $49 $18 $-1 $50 reversed single #
loop $-1 $-1 $51 $24 #
plane-surface $-1 0 0 4.2232135579247689 0 0 1 1 0 0 forward_v I I I I #
face $-1 $52 $53 $19 $-1 $54 reversed single #
loop $-1 $-1 $55 $25 #
plane-surface $-1 0 -20.228039153428675 0 0 1 0 0 0 1 forward_v I I I I #
face $-1 $56 $57 $20 $-1 $58 reversed single #
loop $-1 $-1 $59 $26 #
plane-surface $-1 -13.732483444943922 54.091574159396394 87.265133478625273 1 0 0 0 -0.73135370988377701 -0.68199835119979291 forward_v I I I I #
face $-1 $60 $61 $21 $-1 $62 forward single #
loop $-1 $63 $64 $27 #
cone-surface $-1 -10.510491298296078 17.287247299104639 1.2296323031194807 0 -0.73135370988377701 -0.68199835119979291 1 0 0 1 I I 0 1 1 forward I I I I #
face $-1 $65 $66 $22 $-1 $67 forward single #
loop $-1 $68 $69 $28 #
cone-surface $-1 -5.6775030783243139 17.287247299104639 1.2296323031194807 0 -0.73135370988377701 -0.68199835119979291 1 0 0 1 I I 0 1 1 forward I I I I #
face $-1 $70 $71 $23 $-1 $72 forward single #
loop $-1 $73 $74 $29 #
cone-surface $-1 -0.84451485835254658 17.287247299104639 1.2296323031194807 0 -0.73135370988377701 -0.68199835119979291 1 0 0 1 I I 0 1 1 forward I I I I #
face $-1 $75 $76 $18 $-1 $77 reversed single #
loop $-1 $-1 $78 $30 #
plane-surface $-1 0 0 -4.2232135579247689 0 0 1 1 0 0 forward_v I I I I #
coedge $-1 $79 $80 $81 $82 forward $31 $-1 #
face $-1 $83 $84 $19 $-1 $85 reversed single #
loop $-1 $-1 $86 $33 #
plane-surface $-1 0 0 -4.2232135579247689 0 0 1 1 0 0 forward_v I I I I #
coedge $-1 $87 $88 $89 $90 forward $34 $-1 #
face $-1 $91 $92 $20 $-1 $93 reversed single #
loop $-1 $-1 $94 $36 #
plane-surface $-1 -5.6775030783243139 -7.3629395478577422 29.957873727672734 0 0.73135370988377701 0.68199835119979291 1 0 0 forward_v I I I I #
coedge $-1 $95 $96 $97 $98 reversed $37 $-1 #
face $-1 $-1 $99 $21 $-1 $100 forward single #
loop $-1 $101 $102 $39 #
cone-surface $-1 -10.510491298296078 15.777288809546626 -0.17842673362532935 0 -0.73135370988377701 -0.68199835119979291 0.5 0 0 1 I I -0.70710678118654746 0.70710678118654746 0.5 forward I I I I #
loop $-1 $-1 $103 $27 #
coedge $-1 $64 $64 $104 $105 reversed $40 $-1 #
face $-1 $-1 $106 $22 $-1 $107 forward single #
loop $-1 $108 $109 $42 #
cone-surface $-1 -5.6775030783243139 15.777288809546626 -0.17842673362532935 0 -0.73135370988377701 -0.68199835119979291 0.5 0 0 1 I I -0.70710678118654746 0.70710678118654746 0.5 forward I I I I #
loop $-1 $-1 $110 $28 #
coedge $-1 $69 $69 $111 $112 reversed $43 $-1 #
face $-1 $-1 $113 $23 $-1 $114 forward single #
loop $-1 $115 $116 $45 #
cone-surface $-1 -0.84451485835254658 15.777288809546626 -0.17842673362532935 0 -0.73135370988377701 -0.68199835119979291 0.5 0 0 1 I I -0.70710678118654746 0.70710678118654746 0.5 forward I I I I #
loop $-1 $-1 $117 $29 #
coedge $-1 $74 $74 $118 $119 reversed $46 $-1 #
face $-1 $120 $121 $18 $-1 $122 reversed single #
loop $-1 $-1 $123 $48 #
plane-surface $-1 0 -20.228039153428675 0 0 1 0 0 0 1 forward_v I I I I #
coedge $-1 $124 $125 $126 $127 forward $49 $-1 #
coedge $-1 $128 $51 $129 $130 forward $31 $-1 #
coedge $-1 $51 $128 $131 $132 forward $31 $-1 #
coedge $-1 $133 $134 $51 $82 reversed $135 $-1 #
edge $-1 $136 -20.228039153428675 $137 20.228039153428675 $81 $138 forward 7 unknown #
face $-1 $139 $140 $19 $-1 $141 forward single #
loop $-1 $-1 $142 $52 #
plane-surface $-1 42.014221625415814 0 0 -1 0 0 0 0 1 forward_v I I I I #
coedge $-1 $143 $144 $145 $146 forward $53 $-1 #
coedge $-1 $145 $55 $142 $147 reversed $34 $-1 #
coedge $-1 $55 $145 $148 $149 reversed $34 $-1 #
coedge $-1 $150 $151 $55 $90 reversed $140 $-1 #
edge $-1 $152 -42.014221625415814 $153 42.014221625415814 $89 $154 forward 7 unknown #
face $-1 $155 $156 $20 $-1 $157 forward single #
loop $-1 $-1 $158 $56 #
plane-surface $-1 2.3774772882952941 54.091574159396394 87.265133478625273 -1 0 0 0 0.73135370988377701 0.68199835119979291 forward_v I I I I #
coedge $-1 $159 $160 $161 $162 reversed $57 $-1 #
coedge $-1 $96 $59 $163 $164 reversed $37 $-1 #
coedge $-1 $59 $95 $159 $165 reversed $37 $-1 #
coedge $-1 $161 $166 $59 $98 forward $156 $-1 #
edge $-1 $167 6.8177479262695222 $168 10.41076836568535 $97 $169 forward 7 unknown #
loop $-1 $-1 $104 $60 #
plane-surface $-1 -5.6775030783243139 -7.3629395478577422 29.957873727672734 0 0.73135370988377701 0.68199835119979291 1 0 0 forward_v I I I I #
loop $-1 $-1 $170 $39 #
coedge $-1 $102 $102 $103 $171 reversed $61 $-1 #
coedge $-1 $103 $103 $102 $171 forward $63 $-1 #
coedge $-1 $104 $104 $64 $105 forward $99 $-1 #
edge $-1 $172 6.4957258228639693e-016 $172 6.2831853071796013 $104 $173 forward 7 unknown #
loop $-1 $-1 $111 $65 #
plane-surface $-1 -5.6775030783243139 -7.3629395478577422 29.957873727672734 0 0.73135370988377701 0.68199835119979291 1 0 0 forward_v I I I I #
loop $-1 $-1 $174 $42 #
coedge $-1 $109 $109 $110 $175 reversed $66 $-1 #
coedge $-1 $110 $110 $109 $175 forward $68 $-1 #
coedge $-1 $111 $111 $69 $112 forward $106 $-1 #
edge $-1 $176 6.4957258228639693e-016 $176 6.2831853071796013 $111 $177 forward 7 unknown #
loop $-1 $-1 $118 $70 #
plane-surface $-1 -5.6775030783243139 -7.3629395478577422 29.957873727672734 0 0.73135370988377701 0.68199835119979291 1 0 0 forward_v I I I I #
loop $-1 $-1 $178 $45 #
coedge $-1 $116 $116 $117 $179 reversed $71 $-1 #
coedge $-1 $117 $117 $116 $179 forward $73 $-1 #
coedge $-1 $118 $118 $74 $119 forward $113 $-1 #
edge $-1 $180 6.4957258228639693e-016 $180 6.2831853071796013 $118 $181 forward 7 unknown #
face $-1 $182 $183 $18 $-1 $184 reversed single #
loop $-1 $-1 $185 $75 #
plane-surface $-1 -42.014221625415814 0 0 1 0 0 0 0 -1 forward_v I I I I #
coedge $-1 $131 $186 $133 $187 reversed $76 $-1 #
coedge $-1 $188 $78 $186 $189 forward $49 $-1 #
coedge $-1 $78 $188 $190 $191 forward $49 $-1 #
coedge $-1 $134 $133 $78 $127 reversed $135 $-1 #
edge $-1 $192 -20.228039153428675 $193 20.228039153428675 $126 $194 forward 7 unknown #
coedge $-1 $80 $79 $195 $196 forward $31 $-1 #
coedge $-1 $197 $198 $79 $130 reversed $183 $-1 #
edge $-1 $137 -42.014221625415814 $199 42.014221625415814 $129 $200 forward 7 unknown #
coedge $-1 $201 $123 $80 $132 reversed $76 $-1 #
edge $-1 $202 -42.014221625415814 $136 42.014221625415814 $131 $203 forward 7 unknown #
coedge $-1 $126 $81 $123 $187 forward $135 $-1 #
coedge $-1 $81 $126 $197 $204 reversed $135 $-1 #
loop $-1 $-1 $133 $182 #
vertex $-1 $82 $205 #
vertex $-1 $82 $206 #
straight-curve $-1 42.014221625415814 0 4.2232135579247689 0 1 0 I I #
face $-1 $207 $208 $19 $-1 $209 reversed single #
loop $-1 $-1 $151 $83 #
plane-surface $-1 0 -22.501440624479738 -1.2232135579247689 0 0 1 1 0 0 forward_v I I I I #
coedge $-1 $210 $211 $87 $147 forward $84 $-1 #
coedge $-1 $212 $86 $211 $213 forward $53 $-1 #
coedge $-1 $86 $212 $214 $215 forward $53 $-1 #
coedge $-1 $88 $87 $86 $146 reversed $34 $-1 #
edge $-1 $216 -42.014221625415814 $217 42.014221625415814 $86 $218 forward 7 unknown #
edge $-1 $217 -4.2232135579247689 $153 -1.2232135579247689 $142 $219 forward 7 unknown #
coedge $-1 $214 $220 $88 $149 forward $221 $-1 #
edge $-1 $152 1.2232135579247689 $216 4.2232135579247689 $148 $222 forward 7 unknown #
coedge $-1 $223 $89 $220 $224 forward $140 $-1 #
coedge $-1 $89 $223 $210 $225 forward $140 $-1 #
vertex $-1 $149 $226 #
vertex $-1 $225 $227 #
straight-curve $-1 0 -20.228039153428675 -1.2232135579247689 1 0 0 I I #
face $-1 $-1 $228 $20 $-1 $229 reversed single #
loop $-1 $-1 $97 $91 #
plane-surface $-1 0 0 4.2232135579247689 0 0 1 1 0 0 forward_v I I I I #
coedge $-1 $230 $231 $232 $233 reversed $92 $-1 #
coedge $-1 $234 $94 $96 $165 forward $57 $-1 #
coedge $-1 $94 $234 $230 $235 forward $57 $-1 #
coedge $-1 $232 $97 $94 $162 forward $156 $-1 #
edge $-1 $168 -10.893731905781765 $236 5.2162288274574511 $161 $237 forward 7 unknown #
coedge $-1 $238 $239 $95 $164 forward $228 $-1 #
edge $-1 $240 -43.262395968708617 $167 -39.409353181387871 $163 $241 forward 7 unknown #
edge $-1 $168 35.187707154500629 $240 40.456078306857336 $96 $242 forward 7 unknown #
coedge $-1 $97 $232 $238 $243 forward $156 $-1 #
vertex $-1 $164 $244 #
vertex $-1 $98 $245 #
straight-curve $-1 -13.732483444943922 27.045787079698197 4.2232135579247654 0 -1 0 I I #
coedge $-1 $170 $170 $-1 $246 reversed $101 $-1 #
edge $-1 $247 0 $247 6.2831853071796004 $102 $248 forward 7 unknown #
vertex $-1 $105 $249 #
ellipse-curve $-1 -10.510491298296078 18.431528933720763 2.2966921642643952 0 0.73135370988377701 0.68199835119979291 1 0 0 1 I I #
coedge $-1 $174 $174 $-1 $250 reversed $108 $-1 #
edge $-1 $251 0 $251 6.2831853071796004 $109 $252 forward 7 unknown #
vertex $-1 $112 $253 #
ellipse-curve $-1 -5.6775030783243139 18.431528933720763 2.2966921642643952 0 0.73135370988377701 0.68199835119979291 1 0 0 1 I I #
coedge $-1 $178 $178 $-1 $254 reversed $115 $-1 #
edge $-1 $255 0 $255 6.2831853071796004 $116 $256 forward 7 unknown #
vertex $-1 $119 $257 #
ellipse-curve $-1 -0.84451485835254658 18.431528933720763 2.2966921642643952 0 0.73135370988377701 0.68199835119979291 1 0 0 1 I I #
face $-1 $-1 $135 $18 $-1 $258 reversed single #
loop $-1 $-1 $197 $120 #
plane-surface $-1 0 20.228039153428675 0 0 -1 0 0 0 -1 forward_v I I I I #
coedge $-1 $259 $195 $198 $260 forward $121 $-1 #
coedge $-1 $123 $201 $124 $189 reversed $76 $-1 #
edge $-1 $136 -4.2232135579247689 $193 4.2232135579247689 $133 $261 forward 7 unknown #
coedge $-1 $125 $124 $259 $262 forward $49 $-1 #
edge $-1 $193 -42.014221625415814 $263 42.014221625415814 $186 $264 forward 7 unknown #
coedge $-1 $198 $197 $125 $191 reversed $183 $-1 #
edge $-1 $265 -42.014221625415814 $192 42.014221625415814 $190 $266 forward 7 unknown #
vertex $-1 $127 $267 #
vertex $-1 $187 $268 #
straight-curve $-1 42.014221625415814 0 -4.2232135579247689 0 -1 0 I I #
coedge $-1 $185 $269 $128 $196 reversed $121 $-1 #
edge $-1 $199 -20.228039153428675 $202 20.228039153428675 $195 $270 forward 7 unknown #
coedge $-1 $190 $129 $134 $204 forward $183 $-1 #
coedge $-1 $129 $190 $185 $260 reversed $183 $-1 #
vertex $-1 $130 $271 #
straight-curve $-1 0 20.228039153428675 4.2232135579247689 -1 0 0 I I #
coedge $-1 $186 $131 $269 $272 forward $76 $-1 #
vertex $-1 $196 $273 #
straight-curve $-1 0 -20.228039153428675 4.2232135579247689 1 0 0 I I #
edge $-1 $137 -4.2232135579247689 $192 4.2232135579247689 $134 $274 forward 7 unknown #
point $-1 42.014221625415814 -20.228039153428675 4.2232135579247689 #
point $-1 42.014221625415814 20.228039153428675 4.2232135579247689 #
face $-1 $-1 $221 $19 $-1 $275 reversed single #
loop $-1 $-1 $276 $139 #
plane-surface $-1 0 -24.774842095530801 -2.7232135579247689 0 1 0 0 0 1 forward_v I I I I #
coedge $-1 $277 $142 $151 $225 reversed $84 $-1 #
coedge $-1 $142 $277 $143 $213 reversed $84 $-1 #
coedge $-1 $144 $143 $278 $279 forward $53 $-1 #
edge $-1 $217 20.228039153428675 $280 24.774842095530801 $211 $281 forward 7 unknown #
coedge $-1 $282 $148 $144 $215 reversed $221 $-1 #
edge $-1 $283 -24.774842095530801 $216 -20.228039153428675 $214 $284 forward 7 unknown #
vertex $-1 $149 $285 #
vertex $-1 $213 $286 #
straight-curve $-1 0 -20.228039153428675 -4.2232135579247689 1 0 0 I I #
straight-curve $-1 42.014221625415814 -20.228039153428675 0 0 0 1 I I #
coedge $-1 $148 $282 $150 $224 reversed $221 $-1 #
loop $-1 $-1 $148 $207 #
straight-curve $-1 -42.014221625415814 -20.228039153428675 0 0 0 -1 I I #
coedge $-1 $151 $150 $287 $288 forward $140 $-1 #
edge $-1 $152 -2.2734014710510628 $289 2.2734014710510628 $220 $290 forward 7 unknown #
edge $-1 $291 -2.2734014710510628 $153 2.2734014710510628 $210 $292 forward 7 unknown #
point $-1 -42.014221625415814 -20.228039153428675 -1.2232135579247689 #
point $-1 42.014221625415814 -20.228039153428675 -1.2232135579247689 #
loop $-1 $-1 $163 $155 #
plane-surface $-1 0 20.228039153428675 0 0 -1 0 0 0 -1 forward_v I I I I #
coedge $-1 $231 $158 $160 $235 reversed $92 $-1 #
coedge $-1 $158 $230 $293 $294 reversed $92 $-1 #
coedge $-1 $166 $161 $158 $233 forward $156 $-1 #
edge $-1 $236 -10.41076836568535 $295 -6.8177479262695222 $232 $296 forward 7 unknown #
coedge $-1 $160 $159 $239 $297 reversed $57 $-1 #
edge $-1 $298 -40.456078306857336 $236 -35.187707154500629 $230 $299 forward 7 unknown #
vertex $-1 $162 $300 #
straight-curve $-1 -2.8387515391621569 16.635018714012851 4.2232135579247689 1 0 0 I I #
coedge $-1 $293 $163 $166 $243 reversed $228 $-1 #
coedge $-1 $163 $293 $234 $297 forward $228 $-1 #
vertex $-1 $164 $301 #
straight-curve $-1 -13.732483444943922 20.228039153428675 43.632566739312637 0 0 1 I I #
straight-curve $-1 -13.732483444943922 -7.3629395478577422 29.957873727672734 0 0.68199835119979291 -0.73135370988377701 I I #
edge $-1 $295 -2.3774772882952941 $167 13.732483444943922 $238 $302 forward 7 unknown #
point $-1 -13.732483444943922 20.228039153428675 4.2232135579247689 #
point $-1 -13.732483444943922 16.635018714012848 4.2232135579247725 #
edge $-1 $303 1 $303 0 $170 $-1 forward 7 unknown #
vertex $-1 $171 $304 #
ellipse-curve $-1 -10.510491298296078 16.142965664488514 0.16257244197456711 0 0.73135370988377701 0.68199835119979291 1 0 0 1 I I #
point $-1 -9.5104912982960776 18.431528933720763 2.2966921642643943 #
edge $-1 $305 1 $305 0 $174 $-1 forward 7 unknown #
vertex $-1 $175 $306 #
ellipse-curve $-1 -5.6775030783243139 16.142965664488514 0.16257244197456711 0 0.73135370988377701 0.68199835119979291 1 0 0 1 I I #
point $-1 -4.6775030783243139 18.431528933720763 2.2966921642643943 #
edge $-1 $307 1 $307 0 $178 $-1 forward 7 unknown #
vertex $-1 $179 $308 #
ellipse-curve $-1 -0.84451485835254658 16.142965664488514 0.16257244197456711 0 0.73135370988377701 0.68199835119979291 1 0 0 1 I I #
point $-1 0.15548514164745342 18.431528933720763 2.2966921642643943 #
plane-surface $-1 42.014221625415814 0 0 -1 0 0 0 0 1 forward_v I I I I #
coedge $-1 $269 $185 $188 $262 reversed $121 $-1 #
edge $-1 $199 -4.2232135579247689 $265 4.2232135579247689 $198 $309 forward 7 unknown #
straight-curve $-1 42.014221625415814 -20.228039153428675 0 0 0 -1 I I #
edge $-1 $263 -20.228039153428675 $265 20.228039153428675 $259 $310 forward 7 unknown #
vertex $-1 $262 $311 #
straight-curve $-1 0 -20.228039153428675 -4.2232135579247689 -1 0 0 I I #
vertex $-1 $191 $312 #
straight-curve $-1 0 20.228039153428675 -4.2232135579247689 1 0 0 I I #
point $-1 42.014221625415814 20.228039153428675 -4.2232135579247689 #
point $-1 42.014221625415814 -20.228039153428675 -4.2232135579247689 #
coedge $-1 $195 $259 $201 $272 reversed $121 $-1 #
straight-curve $-1 -42.014221625415814 0 4.2232135579247689 0 -1 0 I I #
point $-1 -42.014221625415814 20.228039153428675 4.2232135579247689 #
edge $-1 $202 -4.2232135579247689 $263 4.2232135579247689 $269 $313 forward 7 unknown #
point $-1 -42.014221625415814 -20.228039153428675 4.2232135579247689 #
straight-curve $-1 42.014221625415814 20.228039153428675 0 0 0 -1 I I #
plane-surface $-1 -42.014221625415814 0 0 1 0 0 0 0 -1 forward_v I I I I #
coedge $-1 $278 $287 $282 $314 forward $208 $-1 #
coedge $-1 $211 $210 $315 $316 forward $84 $-1 #
coedge $-1 $315 $276 $212 $279 reversed $208 $-1 #
edge $-1 $280 -42.014221625415814 $283 42.014221625415814 $278 $317 forward 7 unknown #
vertex $-1 $316 $318 #
straight-curve $-1 42.014221625415814 0 -4.2232135579247689 0 -1 0 I I #
coedge $-1 $220 $214 $276 $314 reversed $221 $-1 #
vertex $-1 $215 $319 #
straight-curve $-1 -42.014221625415814 0 -4.2232135579247689 0 1 0 I I #
point $-1 -42.014221625415814 -20.228039153428675 -4.2232135579247689 #
point $-1 42.014221625415814 -20.228039153428675 -4.2232135579247689 #
coedge $-1 $276 $315 $223 $288 reversed $208 $-1 #
edge $-1 $289 -42.014221625415814 $291 42.014221625415814 $287 $320 forward 7 unknown #
vertex $-1 $224 $321 #
straight-curve $-1 -42.014221625415814 -22.501440624479738 -1.2232135579247689 0 -1 0 I I #
vertex $-1 $225 $322 #
straight-curve $-1 42.014221625415814 -22.501440624479738 -1.2232135579247689 0 1 0 I I #
coedge $-1 $239 $238 $231 $294 forward $228 $-1 #
edge $-1 $295 39.409353181387871 $298 43.262395968708617 $293 $323 forward 7 unknown #
vertex $-1 $243 $324 #
straight-curve $-1 2.3774772882952941 27.045787079698197 4.2232135579247654 0 1 0 I I #
edge $-1 $298 -5.2162288274574511 $240 10.893731905781765 $239 $325 forward 7 unknown #
vertex $-1 $297 $326 #
straight-curve $-1 2.3774772882952941 -7.3629395478577422 29.957873727672734 0 -0.68199835119979291 0.73135370988377701 I I #
point $-1 2.3774772882952941 16.635018714012848 4.2232135579247725 #
point $-1 -13.732483444943922 20.228039153428675 0.37017077060402315 #
straight-curve $-1 0 20.228039153428675 4.2232135579247689 -1 0 0 I I #
vertex $-1 $246 $327 #
point $-1 -9.5104912982960776 16.142965664488514 0.16257244197456711 #
vertex $-1 $250 $328 #
point $-1 -4.6775030783243139 16.142965664488514 0.16257244197456711 #
vertex $-1 $254 $329 #
point $-1 0.15548514164745342 16.142965664488514 0.16257244197456711 #
straight-curve $-1 -42.014221625415814 20.228039153428675 0 0 0 -1 I I #
straight-curve $-1 -42.014221625415814 0 -4.2232135579247689 0 1 0 I I #
point $-1 -42.014221625415814 -20.228039153428675 -4.2232135579247689 #
point $-1 -42.014221625415814 20.228039153428675 -4.2232135579247689 #
straight-curve $-1 -42.014221625415814 -20.228039153428675 0 0 0 -1 I I #
edge $-1 $289 -1.5 $283 1.5 $282 $330 forward 7 unknown #
coedge $-1 $287 $278 $277 $316 reversed $208 $-1 #
edge $-1 $291 -1.5 $280 1.5 $277 $331 forward 7 unknown #
straight-curve $-1 0 -24.774842095530801 -4.2232135579247689 -1 0 0 I I #
point $-1 42.014221625415814 -24.774842095530801 -4.2232135579247689 #
point $-1 -42.014221625415814 -24.774842095530801 -4.2232135579247689 #
straight-curve $-1 0 -24.774842095530801 -1.2232135579247689 1 0 0 I I #
point $-1 -42.014221625415814 -24.774842095530801 -1.2232135579247689 #
point $-1 42.014221625415814 -24.774842095530801 -1.2232135579247689 #
straight-curve $-1 2.3774772882952941 20.228039153428675 43.632566739312637 0 0 -1 I I #
point $-1 2.3774772882952941 20.228039153428675 4.2232135579247689 #
straight-curve $-1 -2.8387515391621569 20.228039153428675 0.37017077060402492 -1 0 0 I I #
point $-1 2.3774772882952941 20.228039153428675 0.37017077060402315 #
point $-1 -10.510491298296078 15.411611954604737 -0.5194259092252258 #
point $-1 -5.6775030783243139 15.411611954604737 -0.5194259092252258 #
point $-1 -0.84451485835254658 15.411611954604737 -0.5194259092252258 #
straight-curve $-1 -42.014221625415814 -24.774842095530801 -2.7232135579247689 0 0 -1 I I #
straight-curve $-1 42.014221625415814 -24.774842095530801 -2.7232135579247689 0 0 -1 I I #
End-of-ACIS-data 