500 0 13 0           
7 Unknown 11 ACIS 5.0 NT 24 Fri Mar 26 20:18:19 1999 
-1 9.9999999999999995e-007 1e-010 
body $-1 $13 $-1 $14 #
body $-1 $15 $-1 $16 #
body $-1 $17 $-1 $18 #
body $-1 $19 $-1 $20 #
body $-1 $21 $-1 $22 #
body $-1 $23 $-1 $24 #
body $-1 $25 $-1 $26 #
body $-1 $27 $-1 $28 #
body $-1 $29 $-1 $30 #
body $-1 $31 $-1 $32 #
body $-1 $33 $-1 $34 #
body $-1 $35 $-1 $36 #
body $-1 $37 $-1 $38 #
lump $-1 $-1 $39 $0 #
transform $-1 1 0 0 0 1 0 0 0 1 52.777489547410504 23.218261957911228 6.5360041596659189 1 rotate no_reflect no_shear #
lump $-1 $-1 $40 $1 #
transform $-1 1 0 0 0 1 0 0 0 1 52.777489547410504 23.218261957911228 6.5360041596659189 1 rotate no_reflect no_shear #
lump $-1 $-1 $41 $2 #
transform $-1 1 0 0 0 1 0 0 0 1 52.777489547410504 23.218261957911228 6.5360041596659189 1 rotate no_reflect no_shear #
lump $-1 $-1 $42 $3 #
transform $-1 1 0 0 0 1 0 0 0 1 52.777489547410504 23.218261957911228 6.5360041596659189 1 rotate no_reflect no_shear #
lump $-1 $-1 $43 $4 #
transform $-1 1 0 0 0 1 0 0 0 1 52.777489547410504 23.218261957911228 6.5360041596659189 1 rotate no_reflect no_shear #
lump $-1 $-1 $44 $5 #
transform $-1 1 0 0 0 1 0 0 0 1 52.777489547410504 23.218261957911228 6.5360041596659189 1 rotate no_reflect no_shear #
lump $-1 $-1 $45 $6 #
transform $-1 1 0 0 0 1 0 0 0 1 52.777489547410504 23.218261957911228 6.5360041596659189 1 rotate no_reflect no_shear #
lump $-1 $-1 $46 $7 #
transform $-1 1 0 0 0 1 0 0 0 1 52.777489547410504 23.218261957911228 6.5360041596659189 1 rotate no_reflect no_shear #
lump $-1 $-1 $47 $8 #
transform $-1 1 0 0 0 1 0 0 0 1 52.777489547410504 23.218261957911228 6.5360041596659189 1 rotate no_reflect no_shear #
lump $-1 $-1 $48 $9 #
transform $-1 1 0 0 0 1 0 0 0 1 52.777489547410504 23.218261957911228 6.5360041596659189 1 rotate no_reflect no_shear #
lump $-1 $-1 $49 $10 #
transform $-1 1 0 0 0 1 0 0 0 1 52.777489547410504 23.218261957911228 6.5360041596659189 1 rotate no_reflect no_shear #
lump $-1 $-1 $50 $11 #
transform $-1 1 0 0 0 1 0 0 0 1 52.777489547410504 23.218261957911228 6.5360041596659189 1 rotate no_reflect no_shear #
lump $-1 $-1 $51 $12 #
transform $-1 1 0 0 0 1 0 0 0 1 52.777489547410504 23.218261957911228 6.5360041596659189 1 rotate no_reflect no_shear #
shell $-1 $-1 $-1 $52 $-1 $13 #
shell $-1 $-1 $-1 $53 $-1 $15 #
shell $-1 $-1 $-1 $54 $-1 $17 #
shell $-1 $-1 $-1 $55 $-1 $19 #
shell $-1 $-1 $-1 $56 $-1 $21 #
shell $-1 $-1 $-1 $57 $-1 $23 #
shell $-1 $-1 $-1 $58 $-1 $25 #
shell $-1 $-1 $-1 $59 $-1 $27 #
shell $-1 $-1 $-1 $60 $-1 $29 #
shell $-1 $-1 $-1 $61 $-1 $31 #
shell $-1 $-1 $-1 $62 $-1 $33 #
shell $-1 $-1 $-1 $63 $-1 $35 #
shell $-1 $-1 $-1 $64 $-1 $37 #
face $-1 $65 $66 $39 $-1 $67 forward single #
face $-1 $68 $69 $40 $-1 $70 reversed single #
face $-1 $71 $72 $41 $-1 $73 reversed single #
face $-1 $74 $75 $42 $-1 $76 forward single #
face $-1 $77 $78 $43 $-1 $79 forward single #
face $-1 $80 $81 $44 $-1 $82 forward single #
face $-1 $83 $84 $45 $-1 $85 reversed single #
face $-1 $86 $87 $46 $-1 $88 forward single #
face $-1 $89 $90 $47 $-1 $91 forward single #
face $-1 $92 $93 $48 $-1 $94 forward single #
face $-1 $95 $96 $49 $-1 $97 reversed single #
face $-1 $98 $99 $50 $-1 $100 forward single #
face $-1 $101 $102 $51 $-1 $103 forward single #
face $-1 $104 $105 $39 $-1 $106 reversed single #
loop $-1 $-1 $107 $52 #
plane-surface $-1 0 0 6.5360041596659189 0 0 1 1 0 0 forward_v I I I I #
face $-1 $108 $109 $40 $-1 $110 reversed single #
loop $-1 $-1 $111 $53 #
plane-surface $-1 0 -20.6779510983622 2.9592438523862326 0 0 1 1 0 0 forward_v I I I I #
face $-1 $112 $113 $41 $-1 $114 reversed single #
loop $-1 $-1 $115 $54 #
plane-surface $-1 -52.777489547410525 -14.026445643001741 0.62740953350314754 -0.83867057594974714 0 0.54463902268945019 0.54463902268945019 0 0.83867057594974714 forward_v I I I I #
face $-1 $116 $117 $42 $-1 $118 forward single #
loop $-1 $119 $120 $55 #
cone-surface $-1 -50.439611213486295 -16.4931624004886 3.309387335239808 0.83867057594974714 0 -0.54463902268945019 0.2723195113447251 0 0.41933528797487357 1 I I 0 1 0.5 forward I I I I #
face $-1 $121 $122 $43 $-1 $123 forward single #
loop $-1 $124 $125 $56 #
cone-surface $-1 -50.439611213486295 -14.02644564300174 3.309387335239808 0.83867057594974714 0 -0.54463902268945019 0.2723195113447251 0 0.41933528797487357 1 I I 0 1 0.5 forward I I I I #
face $-1 $126 $127 $44 $-1 $128 forward single #
loop $-1 $129 $130 $57 #
cone-surface $-1 -50.439611213486295 -11.559728885514879 3.309387335239808 0.83867057594974714 0 -0.54463902268945019 0.2723195113447251 0 0.41933528797487357 1 I I 0 1 0.5 forward I I I I #
face $-1 $131 $132 $45 $-1 $133 reversed single #
loop $-1 $-1 $134 $58 #
plane-surface $-1 -141.30334465922758 14.995872766288363 58.116770187711808 0 1 0 -0.83867057594974714 0 0.54463902268945019 forward_v I I I I #
face $-1 $135 $136 $46 $-1 $137 forward single #
loop $-1 $138 $139 $59 #
cone-surface $-1 -50.439611213486295 16.64035060461293 3.309387335239808 0.83867057594974714 0 -0.54463902268945019 0.2723195113447251 0 0.41933528797487357 1 I I 0 1 0.5 forward I I I I #
face $-1 $140 $141 $47 $-1 $142 forward single #
loop $-1 $143 $144 $60 #
cone-surface $-1 -50.439611213486295 19.107067362099794 3.309387335239808 0.83867057594974714 0 -0.54463902268945019 0.2723195113447251 0 0.41933528797487357 1 I I 0 1 0.5 forward I I I I #
face $-1 $145 $146 $48 $-1 $147 forward single #
loop $-1 $148 $149 $61 #
cone-surface $-1 -50.439611213486295 21.573784119586659 3.309387335239808 0.83867057594974714 0 -0.54463902268945019 0.2723195113447251 0 0.41933528797487357 1 I I 0 1 0.5 forward I I I I #
face $-1 $150 $151 $49 $-1 $152 reversed single #
loop $-1 $-1 $153 $62 #
plane-surface $-1 50.17224342568398 -1.4282218106037199 151.28947369940849 0 -1 0 -0.69465837861970381 0 -0.71933979245794832 forward_v I I I I #
face $-1 $154 $155 $50 $-1 $156 forward single #
loop $-1 $157 $158 $63 #
cone-surface $-1 49.775835374889432 -9.9065526919281375 3.5904660293806225 -0.69465837861970381 0 -0.71933979245794832 1.0790096886869225 0 -1.0419875679295556 1 I I 0 1 1.5 forward I I I I #
face $-1 $159 $160 $51 $-1 $161 forward single #
loop $-1 $162 $163 $64 #
cone-surface $-1 49.775835374889432 -4.8195541631334891 3.5904660293806225 -0.69465837861970381 0 -0.71933979245794832 1.0790096886869225 0 -1.0419875679295556 1 I I 0 1 1.5 forward I I I I #
face $-1 $164 $165 $39 $-1 $166 reversed single #
loop $-1 $-1 $167 $65 #
plane-surface $-1 0 0 -6.5360041596659189 0 0 1 1 0 0 forward_v I I I I #
coedge $-1 $168 $169 $170 $171 forward $66 $-1 #
face $-1 $172 $173 $40 $-1 $174 reversed single #
loop $-1 $-1 $175 $68 #
plane-surface $-1 0 -18.137640238813173 4.7476240060260748 0 -1 0 0 0 -1 forward_v I I I I #
coedge $-1 $176 $177 $178 $179 reversed $69 $-1 #
face $-1 $180 $181 $41 $-1 $182 forward single #
loop $-1 $-1 $183 $71 #
plane-surface $-1 -141.30334465922758 -9.9152510471903099 58.116770187711808 0 -1 0 0.83867057594974714 0 -0.54463902268945019 forward_v I I I I #
coedge $-1 $184 $185 $186 $187 reversed $72 $-1 #
face $-1 $-1 $188 $42 $-1 $189 forward single #
loop $-1 $190 $191 $74 #
cone-surface $-1 -49.810608281523983 -16.4931624004886 2.9009080682227202 0.83867057594974714 0 -0.54463902268945019 0.13615975567236255 0 0.20966764398743679 1 I I -0.70710678118654746 0.70710678118654746 0.25 forward I I I I #
loop $-1 $-1 $192 $55 #
coedge $-1 $120 $120 $193 $194 reversed $75 $-1 #
face $-1 $-1 $195 $43 $-1 $196 forward single #
loop $-1 $197 $198 $77 #
cone-surface $-1 -49.810608281523983 -14.02644564300174 2.9009080682227202 0.83867057594974714 0 -0.54463902268945019 0.13615975567236255 0 0.20966764398743679 1 I I -0.70710678118654746 0.70710678118654746 0.25 forward I I I I #
loop $-1 $-1 $199 $56 #
coedge $-1 $125 $125 $200 $201 reversed $78 $-1 #
face $-1 $-1 $202 $44 $-1 $203 forward single #
loop $-1 $204 $205 $80 #
cone-surface $-1 -49.810608281523983 -11.559728885514879 2.9009080682227202 0.83867057594974714 0 -0.54463902268945019 0.13615975567236255 0 0.20966764398743679 1 I I -0.70710678118654746 0.70710678118654746 0.25 forward I I I I #
loop $-1 $-1 $206 $57 #
coedge $-1 $130 $130 $207 $208 reversed $81 $-1 #
face $-1 $209 $210 $45 $-1 $211 forward single #
loop $-1 $-1 $212 $83 #
plane-surface $-1 -52.777489547410525 19.107067362099794 0.62740953350314754 -0.83867057594974714 0 0.54463902268945019 0.54463902268945019 0 0.83867057594974714 forward_v I I I I #
coedge $-1 $213 $214 $215 $216 reversed $84 $-1 #
face $-1 $-1 $217 $46 $-1 $218 forward single #
loop $-1 $219 $220 $86 #
cone-surface $-1 -49.810608281523983 16.64035060461293 2.9009080682227202 0.83867057594974714 0 -0.54463902268945019 0.13615975567236255 0 0.20966764398743679 1 I I -0.70710678118654746 0.70710678118654746 0.25 forward I I I I #
loop $-1 $-1 $221 $59 #
coedge $-1 $139 $139 $222 $223 reversed $87 $-1 #
face $-1 $-1 $224 $47 $-1 $225 forward single #
loop $-1 $226 $227 $89 #
cone-surface $-1 -49.810608281523983 19.107067362099794 2.9009080682227202 0.83867057594974714 0 -0.54463902268945019 0.13615975567236255 0 0.20966764398743679 1 I I -0.70710678118654746 0.70710678118654746 0.25 forward I I I I #
loop $-1 $-1 $228 $60 #
coedge $-1 $144 $144 $229 $230 reversed $90 $-1 #
face $-1 $-1 $231 $48 $-1 $232 forward single #
loop $-1 $233 $234 $92 #
cone-surface $-1 -49.810608281523983 21.573784119586659 2.9009080682227202 0.83867057594974714 0 -0.54463902268945019 0.13615975567236255 0 0.20966764398743679 1 I I -0.70710678118654746 0.70710678118654746 0.25 forward I I I I #
loop $-1 $-1 $235 $61 #
coedge $-1 $149 $149 $236 $237 reversed $93 $-1 #
face $-1 $238 $239 $49 $-1 $240 reversed single #
loop $-1 $-1 $241 $95 #
plane-surface $-1 -23.152407207561119 -7.3630534275308115 75.359576944436867 0.69465837861970381 0 0.71933979245794832 0.71933979245794832 0 -0.69465837861970381 forward_v I I I I #
coedge $-1 $242 $243 $244 $245 reversed $96 $-1 #
face $-1 $-1 $246 $50 $-1 $247 forward single #
loop $-1 $248 $249 $98 #
cone-surface $-1 48.583688643906704 -9.9065526919281375 2.3559619789889465 -0.69465837861970381 0 -0.71933979245794832 0.53950484434346124 0 -0.5209937839647778 1 I I -0.70710678118654757 0.70710678118654757 0.75 forward I I I I #
loop $-1 $-1 $250 $63 #
coedge $-1 $158 $158 $251 $252 reversed $99 $-1 #
face $-1 $-1 $253 $51 $-1 $254 forward single #
loop $-1 $255 $256 $101 #
cone-surface $-1 48.583688643906704 -4.8195541631334891 2.3559619789889465 -0.69465837861970381 0 -0.71933979245794832 0.53950484434346124 0 -0.5209937839647778 1 I I -0.70710678118654757 0.70710678118654757 0.75 forward I I I I #
loop $-1 $-1 $257 $64 #
coedge $-1 $163 $163 $258 $259 reversed $102 $-1 #
face $-1 $260 $261 $39 $-1 $262 reversed single #
loop $-1 $-1 $263 $104 #
plane-surface $-1 0 -23.218261957911228 0 0 1 0 0 0 1 forward_v I I I I #
coedge $-1 $264 $265 $266 $267 forward $105 $-1 #
coedge $-1 $268 $107 $269 $270 forward $66 $-1 #
coedge $-1 $107 $268 $271 $272 forward $66 $-1 #
coedge $-1 $273 $274 $107 $171 reversed $275 $-1 #
edge $-1 $276 -23.218261957911228 $277 23.218261957911228 $170 $278 forward 7 unknown #
face $-1 $279 $280 $40 $-1 $281 reversed single #
loop $-1 $-1 $282 $108 #
plane-surface $-1 -52.777489547410504 0 0 1 0 0 0 0 -1 forward_v I I I I #
coedge $-1 $283 $284 $285 $286 reversed $109 $-1 #
coedge $-1 $287 $111 $288 $289 reversed $69 $-1 #
coedge $-1 $111 $287 $283 $290 forward $69 $-1 #
coedge $-1 $285 $291 $111 $179 forward $292 $-1 #
edge $-1 $293 -12.879286408730128 $294 -7.7986646896320728 $178 $295 forward 7 unknown #
face $-1 $296 $297 $41 $-1 $298 reversed single #
loop $-1 $-1 $186 $112 #
plane-surface $-1 0 0 6.5360041596659189 0 0 1 1 0 0 forward_v I I I I #
coedge $-1 $299 $300 $301 $302 reversed $113 $-1 #
coedge $-1 $303 $115 $304 $305 reversed $72 $-1 #
coedge $-1 $115 $303 $299 $306 forward $72 $-1 #
coedge $-1 $301 $307 $115 $187 forward $181 $-1 #
edge $-1 $308 -11.124417417312301 $309 -2.9020282256894392 $186 $310 forward 7 unknown #
loop $-1 $-1 $193 $116 #
plane-surface $-1 -52.777489547410525 -14.026445643001741 0.62740953350314754 -0.83867057594974714 0 0.54463902268945019 0.54463902268945019 0 0.83867057594974714 forward_v I I I I #
loop $-1 $-1 $311 $74 #
coedge $-1 $191 $191 $192 $312 reversed $117 $-1 #
coedge $-1 $192 $192 $191 $312 forward $119 $-1 #
coedge $-1 $193 $193 $120 $194 forward $188 $-1 #
edge $-1 $313 0 $313 6.2831853071796004 $193 $314 forward 7 unknown #
loop $-1 $-1 $200 $121 #
plane-surface $-1 -52.777489547410525 -14.026445643001741 0.62740953350314754 -0.83867057594974714 0 0.54463902268945019 0.54463902268945019 0 0.83867057594974714 forward_v I I I I #
loop $-1 $-1 $315 $77 #
coedge $-1 $198 $198 $199 $316 reversed $122 $-1 #
coedge $-1 $199 $199 $198 $316 forward $124 $-1 #
coedge $-1 $200 $200 $125 $201 forward $195 $-1 #
edge $-1 $317 0 $317 6.2831853071796004 $200 $318 forward 7 unknown #
loop $-1 $-1 $207 $126 #
plane-surface $-1 -52.777489547410525 -14.026445643001741 0.62740953350314754 -0.83867057594974714 0 0.54463902268945019 0.54463902268945019 0 0.83867057594974714 forward_v I I I I #
loop $-1 $-1 $319 $80 #
coedge $-1 $205 $205 $206 $320 reversed $127 $-1 #
coedge $-1 $206 $206 $205 $320 forward $129 $-1 #
coedge $-1 $207 $207 $130 $208 forward $202 $-1 #
edge $-1 $321 0 $321 6.2831853071796004 $207 $322 forward 7 unknown #
face $-1 $323 $324 $45 $-1 $325 reversed single #
loop $-1 $-1 $215 $131 #
plane-surface $-1 0 0 6.5360041596659189 0 0 1 1 0 0 forward_v I I I I #
coedge $-1 $326 $327 $328 $329 reversed $132 $-1 #
coedge $-1 $214 $134 $330 $331 reversed $84 $-1 #
coedge $-1 $134 $213 $326 $332 reversed $84 $-1 #
coedge $-1 $328 $333 $134 $216 forward $210 $-1 #
edge $-1 $334 17.874182782203285 $335 21.71126887410194 $215 $336 forward 7 unknown #
loop $-1 $-1 $222 $135 #
plane-surface $-1 -52.777489547410525 19.107067362099794 0.62740953350314754 -0.83867057594974714 0 0.54463902268945019 0.54463902268945019 0 0.83867057594974714 forward_v I I I I #
loop $-1 $-1 $337 $86 #
coedge $-1 $220 $220 $221 $338 reversed $136 $-1 #
coedge $-1 $221 $221 $220 $338 forward $138 $-1 #
coedge $-1 $222 $222 $139 $223 forward $217 $-1 #
edge $-1 $339 0 $339 6.2831853071796004 $222 $340 forward 7 unknown #
loop $-1 $-1 $229 $140 #
plane-surface $-1 -52.777489547410525 19.107067362099794 0.62740953350314754 -0.83867057594974714 0 0.54463902268945019 0.54463902268945019 0 0.83867057594974714 forward_v I I I I #
loop $-1 $-1 $341 $89 #
coedge $-1 $227 $227 $228 $342 reversed $141 $-1 #
coedge $-1 $228 $228 $227 $342 forward $143 $-1 #
coedge $-1 $229 $229 $144 $230 forward $224 $-1 #
edge $-1 $343 0 $343 6.2831853071796004 $229 $344 forward 7 unknown #
loop $-1 $-1 $236 $145 #
plane-surface $-1 -52.777489547410525 19.107067362099794 0.62740953350314754 -0.83867057594974714 0 0.54463902268945019 0.54463902268945019 0 0.83867057594974714 forward_v I I I I #
loop $-1 $-1 $345 $92 #
coedge $-1 $234 $234 $235 $346 reversed $146 $-1 #
coedge $-1 $235 $235 $234 $346 forward $148 $-1 #
coedge $-1 $236 $236 $149 $237 forward $231 $-1 #
edge $-1 $347 0 $347 6.2831853071796004 $236 $348 forward 7 unknown #
face $-1 $349 $350 $49 $-1 $351 reversed single #
loop $-1 $-1 $352 $150 #
plane-surface $-1 50.17224342568398 -13.297885044457903 151.28947369940849 0 1 0 0.69465837861970381 0 0.71933979245794832 forward_v I I I I #
coedge $-1 $353 $354 $355 $356 reversed $151 $-1 #
coedge $-1 $243 $153 $357 $358 reversed $96 $-1 #
coedge $-1 $153 $242 $353 $359 reversed $96 $-1 #
coedge $-1 $355 $360 $153 $245 forward $361 $-1 #
edge $-1 $362 -27.691367834568513 $363 -23.030365383562259 $244 $364 forward 7 unknown #
loop $-1 $-1 $251 $154 #
plane-surface $-1 -23.152407207561119 -7.3630534275308115 75.359576944436867 0.69465837861970381 0 0.71933979245794832 0.71933979245794832 0 -0.69465837861970381 forward_v I I I I #
loop $-1 $-1 $365 $98 #
coedge $-1 $249 $249 $250 $366 reversed $155 $-1 #
coedge $-1 $250 $250 $249 $366 forward $157 $-1 #
coedge $-1 $251 $251 $158 $252 forward $246 $-1 #
edge $-1 $367 0 $367 6.2831853071796004 $251 $368 forward 7 unknown #
loop $-1 $-1 $258 $159 #
plane-surface $-1 -23.152407207561119 -7.3630534275308115 75.359576944436867 0.69465837861970381 0 0.71933979245794832 0.71933979245794832 0 -0.69465837861970381 forward_v I I I I #
loop $-1 $-1 $369 $101 #
coedge $-1 $256 $256 $257 $370 reversed $160 $-1 #
coedge $-1 $257 $257 $256 $370 forward $162 $-1 #
coedge $-1 $258 $258 $163 $259 forward $253 $-1 #
edge $-1 $371 0 $371 6.2831853071796004 $258 $372 forward 7 unknown #
face $-1 $373 $374 $39 $-1 $375 reversed single #
loop $-1 $-1 $376 $164 #
plane-surface $-1 -52.777489547410504 0 0 1 0 0 0 0 -1 forward_v I I I I #
coedge $-1 $377 $271 $378 $379 forward $165 $-1 #
coedge $-1 $380 $167 $377 $381 forward $105 $-1 #
coedge $-1 $167 $380 $382 $383 forward $105 $-1 #
coedge $-1 $274 $273 $167 $267 reversed $275 $-1 #
edge $-1 $384 -23.218261957911228 $385 23.218261957911228 $266 $386 forward 7 unknown #
coedge $-1 $169 $168 $387 $388 forward $66 $-1 #
coedge $-1 $389 $390 $168 $270 reversed $374 $-1 #
edge $-1 $277 -52.777489547410504 $391 52.777489547410504 $269 $392 forward 7 unknown #
coedge $-1 $263 $393 $169 $272 reversed $165 $-1 #
edge $-1 $394 -52.777489547410504 $276 52.777489547410504 $271 $395 forward 7 unknown #
coedge $-1 $266 $170 $393 $396 forward $275 $-1 #
coedge $-1 $170 $266 $389 $397 reversed $275 $-1 #
loop $-1 $-1 $273 $373 #
vertex $-1 $171 $398 #
vertex $-1 $171 $399 #
straight-curve $-1 52.777489547410504 0 6.5360041596659189 0 1 0 I I #
face $-1 $400 $401 $40 $-1 $402 forward single #
loop $-1 $-1 $288 $172 #
plane-surface $-1 0 -23.218261957911228 0 0 1 0 0 0 1 forward_v I I I I #
coedge $-1 $403 $404 $405 $406 forward $173 $-1 #
coedge $-1 $405 $175 $177 $290 reversed $109 $-1 #
coedge $-1 $175 $405 $407 $408 reversed $109 $-1 #
coedge $-1 $409 $178 $175 $286 forward $292 $-1 #
edge $-1 $294 0.58543184937319515 $410 4.1621921566528801 $285 $411 forward 7 unknown #
coedge $-1 $177 $176 $403 $412 reversed $69 $-1 #
coedge $-1 $413 $414 $176 $289 forward $280 $-1 #
edge $-1 $415 -52.777489547410504 $293 52.777489547410504 $288 $416 forward 7 unknown #
edge $-1 $417 -52.777489547410504 $294 52.777489547410504 $283 $418 forward 7 unknown #
coedge $-1 $178 $409 $413 $419 forward $292 $-1 #
loop $-1 $-1 $285 $400 #
vertex $-1 $289 $420 #
vertex $-1 $179 $421 #
straight-curve $-1 52.777489547410504 -10.3389755491811 2.9592438523862326 0 1 0 I I #
face $-1 $-1 $422 $41 $-1 $423 forward single #
loop $-1 $-1 $424 $180 #
plane-surface $-1 -52.777489547410504 0 0 1 0 0 0 0 -1 forward_v I I I I #
coedge $-1 $300 $183 $185 $306 reversed $113 $-1 #
coedge $-1 $183 $299 $424 $425 reversed $113 $-1 #
coedge $-1 $426 $186 $183 $302 forward $181 $-1 #
edge $-1 $309 -21.71126887410194 $427 -17.874182782203285 $301 $428 forward 7 unknown #
coedge $-1 $185 $184 $429 $430 reversed $72 $-1 #
coedge $-1 $431 $432 $184 $305 forward $422 $-1 #
edge $-1 $433 -16.100091485905779 $308 -9.0549002086613264 $304 $434 forward 7 unknown #
edge $-1 $435 3.9170575986957569e-014 $309 7.0451912772444896 $299 $436 forward 7 unknown #
coedge $-1 $186 $426 $431 $437 forward $181 $-1 #
vertex $-1 $305 $438 #
vertex $-1 $187 $439 #
straight-curve $-1 -48.940403455511841 -7.0132228215008707 6.5360041596659197 0 1 0 I I #
coedge $-1 $311 $311 $-1 $440 reversed $190 $-1 #
edge $-1 $441 0 $441 6.2831853071796004 $191 $442 forward 7 unknown #
vertex $-1 $194 $443 #
ellipse-curve $-1 -50.858946501461183 -16.4931624004886 3.5817068465845412 -0.83867057594974714 0 0.54463902268945019 0.2723195113447251 0 0.41933528797487357 1 I I #
coedge $-1 $315 $315 $-1 $444 reversed $197 $-1 #
edge $-1 $445 0 $445 6.2831853071796004 $198 $446 forward 7 unknown #
vertex $-1 $201 $447 #
ellipse-curve $-1 -50.858946501461183 -14.02644564300174 3.5817068465845412 -0.83867057594974714 0 0.54463902268945019 0.2723195113447251 0 0.41933528797487357 1 I I #
coedge $-1 $319 $319 $-1 $448 reversed $204 $-1 #
edge $-1 $449 0 $449 6.2831853071796004 $205 $450 forward 7 unknown #
vertex $-1 $208 $451 #
ellipse-curve $-1 -50.858946501461183 -11.559728885514879 3.5817068465845412 -0.83867057594974714 0 0.54463902268945019 0.2723195113447251 0 0.41933528797487357 1 I I #
face $-1 $-1 $452 $45 $-1 $453 reversed single #
loop $-1 $-1 $454 $209 #
plane-surface $-1 0 23.218261957911228 0 0 -1 0 0 0 -1 forward_v I I I I #
coedge $-1 $455 $212 $214 $332 forward $132 $-1 #
coedge $-1 $212 $455 $454 $456 reversed $132 $-1 #
coedge $-1 $457 $215 $212 $329 forward $210 $-1 #
edge $-1 $335 5.4423390852384657 $458 13.664728276861327 $328 $459 forward 7 unknown #
coedge $-1 $460 $461 $213 $331 forward $452 $-1 #
edge $-1 $462 -28.430975560352724 $334 -22.522380934189986 $330 $463 forward 7 unknown #
edge $-1 $335 -7.0451912772444896 $462 -3.9170575986957569e-014 $214 $464 forward 7 unknown #
coedge $-1 $215 $457 $460 $465 forward $210 $-1 #
vertex $-1 $331 $466 #
vertex $-1 $216 $467 #
straight-curve $-1 -70.651672329613788 14.995872766288363 6.536004159665918 1 0 0 I I #
coedge $-1 $337 $337 $-1 $468 reversed $219 $-1 #
edge $-1 $469 0 $469 6.2831853071796004 $220 $470 forward 7 unknown #
vertex $-1 $223 $471 #
ellipse-curve $-1 -50.858946501461183 16.64035060461293 3.5817068465845412 -0.83867057594974714 0 0.54463902268945019 0.2723195113447251 0 0.41933528797487357 1 I I #
coedge $-1 $341 $341 $-1 $472 reversed $226 $-1 #
edge $-1 $473 0 $473 6.2831853071796004 $227 $474 forward 7 unknown #
vertex $-1 $230 $475 #
ellipse-curve $-1 -50.858946501461183 19.107067362099794 3.5817068465845412 -0.83867057594974714 0 0.54463902268945019 0.2723195113447251 0 0.41933528797487357 1 I I #
coedge $-1 $345 $345 $-1 $476 reversed $233 $-1 #
edge $-1 $477 0 $477 6.2831853071796004 $234 $478 forward 7 unknown #
vertex $-1 $237 $479 #
ellipse-curve $-1 -50.858946501461183 21.573784119586659 3.5817068465845412 -0.83867057594974714 0 0.54463902268945019 0.2723195113447251 0 0.41933528797487357 1 I I #
face $-1 $-1 $361 $49 $-1 $480 forward single #
loop $-1 $-1 $481 $238 #
plane-surface $-1 52.777489547410504 0 0 -1 0 0 0 0 1 forward_v I I I I #
coedge $-1 $482 $483 $484 $485 reversed $239 $-1 #
coedge $-1 $486 $241 $243 $359 forward $151 $-1 #
coedge $-1 $241 $486 $482 $487 forward $151 $-1 #
coedge $-1 $484 $244 $241 $356 forward $361 $-1 #
edge $-1 $363 -2.2533049031616859 $488 9.6163583306924973 $355 $489 forward 7 unknown #
coedge $-1 $490 $491 $242 $358 forward $350 $-1 #
edge $-1 $492 -73.609810538512463 $362 -69.108732690038323 $357 $493 forward 7 unknown #
edge $-1 $363 99.075423118806071 $492 105.55497909482099 $243 $494 forward 7 unknown #
coedge $-1 $244 $484 $490 $495 forward $361 $-1 #
loop $-1 $-1 $484 $349 #
vertex $-1 $358 $496 #
vertex $-1 $245 $497 #
straight-curve $-1 25.08612171284199 -1.4282218106037199 6.5360041596659215 -1 0 0 I I #
coedge $-1 $365 $365 $-1 $498 reversed $248 $-1 #
edge $-1 $499 0 $499 6.2831853071796004 $249 $500 forward 7 unknown #
vertex $-1 $252 $501 #
ellipse-curve $-1 50.446988321907384 -9.9065526919281375 4.2854652354288376 0.69465837861970381 0 0.71933979245794832 1.0790096886869225 0 -1.0419875679295556 1 I I #
coedge $-1 $369 $369 $-1 $502 reversed $255 $-1 #
edge $-1 $503 0 $503 6.2831853071796004 $256 $504 forward 7 unknown #
vertex $-1 $259 $505 #
ellipse-curve $-1 50.446988321907384 -4.8195541631334891 4.2854652354288376 0.69465837861970381 0 0.71933979245794832 1.0790096886869225 0 -1.0419875679295556 1 I I #
face $-1 $-1 $275 $39 $-1 $506 reversed single #
loop $-1 $-1 $389 $260 #
plane-surface $-1 0 23.218261957911228 0 0 -1 0 0 0 -1 forward_v I I I I #
coedge $-1 $507 $387 $390 $508 forward $261 $-1 #
coedge $-1 $393 $263 $264 $381 reversed $165 $-1 #
coedge $-1 $387 $507 $263 $379 reversed $261 $-1 #
edge $-1 $394 -6.5360041596659189 $509 6.5360041596659189 $378 $510 forward 7 unknown #
coedge $-1 $265 $264 $507 $511 forward $105 $-1 #
edge $-1 $385 -52.777489547410504 $509 52.777489547410504 $377 $512 forward 7 unknown #
coedge $-1 $390 $389 $265 $383 reversed $374 $-1 #
edge $-1 $513 -52.777489547410504 $384 52.777489547410504 $382 $514 forward 7 unknown #
vertex $-1 $267 $515 #
vertex $-1 $396 $516 #
straight-curve $-1 52.777489547410504 0 -6.5360041596659189 0 -1 0 I I #
coedge $-1 $376 $378 $268 $388 reversed $261 $-1 #
edge $-1 $391 -23.218261957911228 $394 23.218261957911228 $387 $517 forward 7 unknown #
coedge $-1 $382 $269 $274 $397 forward $374 $-1 #
coedge $-1 $269 $382 $376 $508 reversed $374 $-1 #
vertex $-1 $270 $518 #
straight-curve $-1 0 23.218261957911228 6.5360041596659189 -1 0 0 I I #
coedge $-1 $271 $377 $273 $396 reversed $165 $-1 #
vertex $-1 $388 $519 #
straight-curve $-1 0 -23.218261957911228 6.5360041596659189 1 0 0 I I #
edge $-1 $276 -6.5360041596659189 $385 6.5360041596659189 $273 $520 forward 7 unknown #
edge $-1 $277 -6.5360041596659189 $384 6.5360041596659189 $274 $521 forward 7 unknown #
point $-1 52.777489547410504 -23.218261957911228 6.5360041596659189 #
point $-1 52.777489547410504 23.218261957911228 6.5360041596659189 #
face $-1 $-1 $292 $40 $-1 $522 reversed single #
loop $-1 $-1 $407 $279 #
plane-surface $-1 0 0 6.5360041596659189 0 0 1 1 0 0 forward_v I I I I #
coedge $-1 $523 $282 $287 $412 forward $173 $-1 #
coedge $-1 $282 $523 $524 $525 reversed $173 $-1 #
coedge $-1 $284 $283 $282 $406 reversed $109 $-1 #
edge $-1 $526 -4.1621921566528801 $417 -0.58543184937319515 $282 $527 forward 7 unknown #
coedge $-1 $524 $528 $284 $408 forward $401 $-1 #
edge $-1 $410 -52.777489547410504 $526 52.777489547410504 $407 $529 forward 7 unknown #
coedge $-1 $291 $285 $528 $530 reversed $292 $-1 #
vertex $-1 $286 $531 #
straight-curve $-1 52.777489547410504 -18.137640238813173 2.3738120030130374 0 0 1 I I #
edge $-1 $417 7.7986646896320728 $415 12.879286408730128 $403 $532 forward 7 unknown #
coedge $-1 $533 $288 $291 $419 reversed $280 $-1 #
coedge $-1 $288 $533 $523 $534 forward $280 $-1 #
vertex $-1 $289 $535 #
straight-curve $-1 0 -23.218261957911228 2.9592438523862326 1 0 0 I I #
vertex $-1 $412 $536 #
straight-curve $-1 0 -18.137640238813173 2.9592438523862326 1 0 0 I I #
edge $-1 $537 -6.5360041596659189 $293 -2.9592438523862326 $291 $538 forward 7 unknown #
point $-1 52.777489547410504 -23.218261957911228 2.9592438523862326 #
point $-1 52.777489547410504 -18.137640238813173 2.9592438523862326 #
loop $-1 $-1 $304 $296 #
plane-surface $-1 0 -18.137640238813173 4.7476240060260748 0 -1 0 0 0 -1 forward_v I I I I #
coedge $-1 $429 $539 $300 $425 forward $297 $-1 #
edge $-1 $427 22.522380934189986 $435 28.430975560352724 $424 $540 forward 7 unknown #
coedge $-1 $307 $301 $539 $541 forward $181 $-1 #
vertex $-1 $541 $542 #
straight-curve $-1 -70.651672329613788 -9.9152510471903099 6.536004159665918 -1 0 0 I I #
coedge $-1 $543 $424 $303 $430 forward $297 $-1 #
edge $-1 $435 2.9020282256894392 $433 11.124417417312301 $429 $544 forward 7 unknown #
coedge $-1 $432 $304 $307 $437 reversed $422 $-1 #
coedge $-1 $304 $431 $543 $545 reversed $422 $-1 #
vertex $-1 $545 $546 #
straight-curve $-1 -44.008751455316045 -18.137640238813173 14.130082532831398 0.54463902268945019 0 0.83867057594974714 I I #
vertex $-1 $430 $547 #
straight-curve $-1 -52.777489547410525 -9.9152510471903099 0.62740953350314754 0.54463902268945019 0 0.83867057594974714 I I #
edge $-1 $548 -52.777489547410504 $308 -48.940403455511849 $307 $549 forward 7 unknown #
point $-1 -48.940403455511849 -18.137640238813173 6.5360041596659189 #
point $-1 -48.940403455511849 -9.9152510471903099 6.5360041596659189 #
edge $-1 $550 1 $550 0 $311 $-1 forward 7 unknown #
vertex $-1 $312 $551 #
ellipse-curve $-1 -50.02027592551142 -16.4931624004886 3.0370678238950828 -0.83867057594974714 0 0.54463902268945019 0.2723195113447251 0 0.41933528797487357 1 I I #
point $-1 -50.586626990116443 -16.4931624004886 4.0010421345594063 #
edge $-1 $552 1 $552 0 $315 $-1 forward 7 unknown #
vertex $-1 $316 $553 #
ellipse-curve $-1 -50.02027592551142 -14.02644564300174 3.0370678238950828 -0.83867057594974714 0 0.54463902268945019 0.2723195113447251 0 0.41933528797487357 1 I I #
point $-1 -50.586626990116443 -14.02644564300174 4.0010421345594063 #
edge $-1 $554 1 $554 0 $319 $-1 forward 7 unknown #
vertex $-1 $320 $555 #
ellipse-curve $-1 -50.02027592551142 -11.559728885514879 3.0370678238950828 -0.83867057594974714 0 0.54463902268945019 0.2723195113447251 0 0.41933528797487357 1 I I #
point $-1 -50.586626990116443 -11.559728885514879 4.0010421345594063 #
loop $-1 $-1 $330 $323 #
plane-surface $-1 -52.777489547410504 0 0 1 0 0 0 0 -1 forward_v I I I I #
coedge $-1 $556 $557 $327 $456 forward $324 $-1 #
coedge $-1 $327 $326 $461 $558 reversed $132 $-1 #
edge $-1 $458 7.0640539288979589 $559 14.109245206142408 $454 $560 forward 7 unknown #
coedge $-1 $333 $328 $557 $561 forward $210 $-1 #
vertex $-1 $561 $562 #
straight-curve $-1 -48.940403455511841 9.5535336810498972 6.5360041596659197 0 1 0 I I #
coedge $-1 $563 $330 $333 $465 reversed $452 $-1 #
coedge $-1 $330 $563 $455 $558 forward $452 $-1 #
vertex $-1 $331 $564 #
straight-curve $-1 -52.777489547410504 14.995872766288363 29.058385093855904 0 0 1 I I #
straight-curve $-1 -52.777489547410525 14.995872766288363 0.62740953350314754 -0.54463902268945019 0 -0.83867057594974714 I I #
edge $-1 $565 -23.218261957911228 $334 -14.995872766288363 $460 $566 forward 7 unknown #
point $-1 -52.777489547410504 14.995872766288363 6.5360041596659189 #
point $-1 -48.940403455511849 14.995872766288363 6.5360041596659189 #
edge $-1 $567 1 $567 0 $337 $-1 forward 7 unknown #
vertex $-1 $338 $568 #
ellipse-curve $-1 -50.02027592551142 16.64035060461293 3.0370678238950828 -0.83867057594974714 0 0.54463902268945019 0.2723195113447251 0 0.41933528797487357 1 I I #
point $-1 -50.586626990116443 16.64035060461293 4.0010421345594063 #
edge $-1 $569 1 $569 0 $341 $-1 forward 7 unknown #
vertex $-1 $342 $570 #
ellipse-curve $-1 -50.02027592551142 19.107067362099794 3.0370678238950828 -0.83867057594974714 0 0.54463902268945019 0.2723195113447251 0 0.41933528797487357 1 I I #
point $-1 -50.586626990116443 19.107067362099794 4.0010421345594063 #
edge $-1 $571 1 $571 0 $345 $-1 forward 7 unknown #
vertex $-1 $346 $572 #
ellipse-curve $-1 -50.02027592551142 21.573784119586659 3.0370678238950828 -0.83867057594974714 0 0.54463902268945019 0.2723195113447251 0 0.41933528797487357 1 I I #
point $-1 -50.586626990116443 21.573784119586659 4.0010421345594063 #
plane-surface $-1 0 0 6.5360041596659189 0 0 1 1 0 0 forward_v I I I I #
coedge $-1 $491 $490 $483 $573 forward $350 $-1 #
coedge $-1 $483 $352 $354 $487 reversed $239 $-1 #
coedge $-1 $352 $482 $481 $573 reversed $239 $-1 #
coedge $-1 $360 $355 $352 $485 forward $361 $-1 #
edge $-1 $488 23.030365383562259 $574 27.691367834568513 $484 $575 forward 7 unknown #
coedge $-1 $354 $353 $491 $576 reversed $151 $-1 #
edge $-1 $577 -105.55497909482099 $488 -99.075423118806071 $482 $578 forward 7 unknown #
vertex $-1 $356 $579 #
straight-curve $-1 48.116487096404256 -3.6815267137654057 6.5360041596659215 0 -1 0 I I #
coedge $-1 $481 $357 $360 $495 reversed $350 $-1 #
coedge $-1 $357 $481 $486 $576 forward $350 $-1 #
vertex $-1 $358 $580 #
straight-curve $-1 52.777489547410504 -1.4282218106037199 75.644736849704245 0 0 1 I I #
straight-curve $-1 -23.152407207561119 -1.4282218106037199 75.359576944436867 0.71933979245794832 0 -0.69465837861970381 I I #
edge $-1 $574 -13.297885044457903 $362 -1.4282218106037199 $490 $581 forward 7 unknown #
point $-1 52.777489547410504 -1.4282218106037199 6.5360041596659189 #
point $-1 48.116487096404249 -1.4282218106037199 6.5360041596659215 #
edge $-1 $582 1 $582 0 $365 $-1 forward 7 unknown #
vertex $-1 $366 $583 #
ellipse-curve $-1 49.104682427871481 -9.9065526919281375 2.8954668233324079 0.69465837861970381 0 0.71933979245794832 1.0790096886869225 0 -1.0419875679295556 1 I I #
point $-1 51.525998010594307 -9.9065526919281375 3.2434776674992811 #
edge $-1 $584 1 $584 0 $369 $-1 forward 7 unknown #
vertex $-1 $370 $585 #
ellipse-curve $-1 49.104682427871481 -4.8195541631334891 2.8954668233324079 0.69465837861970381 0 0.71933979245794832 1.0790096886869225 0 -1.0419875679295556 1 I I #
point $-1 51.525998010594307 -4.8195541631334891 3.2434776674992811 #
plane-surface $-1 52.777489547410504 0 0 -1 0 0 0 0 1 forward_v I I I I #
coedge $-1 $378 $376 $380 $511 reversed $261 $-1 #
edge $-1 $391 -6.5360041596659189 $513 6.5360041596659189 $390 $586 forward 7 unknown #
vertex $-1 $511 $587 #
straight-curve $-1 -52.777489547410504 -23.218261957911228 0 0 0 -1 I I #
edge $-1 $509 -23.218261957911228 $513 23.218261957911228 $507 $588 forward 7 unknown #
straight-curve $-1 0 -23.218261957911228 -6.5360041596659189 -1 0 0 I I #
vertex $-1 $383 $589 #
straight-curve $-1 0 23.218261957911228 -6.5360041596659189 1 0 0 I I #
point $-1 52.777489547410504 23.218261957911228 -6.5360041596659189 #
point $-1 52.777489547410504 -23.218261957911228 -6.5360041596659189 #
straight-curve $-1 -52.777489547410504 0 6.5360041596659189 0 -1 0 I I #
point $-1 -52.777489547410504 23.218261957911228 6.5360041596659189 #
point $-1 -52.777489547410504 -23.218261957911228 6.5360041596659189 #
straight-curve $-1 52.777489547410504 -23.218261957911228 0 0 0 -1 I I #
straight-curve $-1 52.777489547410504 23.218261957911228 0 0 0 -1 I I #
plane-surface $-1 52.777489547410504 0 0 -1 0 0 0 0 1 forward_v I I I I #
coedge $-1 $404 $403 $414 $534 reversed $173 $-1 #
coedge $-1 $590 $407 $404 $525 forward $401 $-1 #
edge $-1 $526 18.137640238813173 $591 23.218261957911228 $404 $592 forward 7 unknown #
vertex $-1 $525 $593 #
straight-curve $-1 -52.777489547410504 -18.137640238813173 2.3738120030130374 0 0 -1 I I #
coedge $-1 $407 $590 $409 $530 forward $401 $-1 #
straight-curve $-1 0 -18.137640238813173 6.5360041596659189 -1 0 0 I I #
edge $-1 $537 -23.218261957911228 $410 -18.137640238813173 $409 $594 forward 7 unknown #
point $-1 52.777489547410504 -18.137640238813173 6.5360041596659171 #
straight-curve $-1 -52.777489547410504 -10.3389755491811 2.9592438523862326 0 -1 0 I I #
coedge $-1 $414 $413 $590 $595 reversed $280 $-1 #
edge $-1 $591 -6.5360041596659189 $415 -2.9592438523862326 $523 $596 forward 7 unknown #
point $-1 -52.777489547410504 -23.218261957911228 2.9592438523862326 #
point $-1 -52.777489547410504 -18.137640238813173 2.9592438523862326 #
vertex $-1 $530 $597 #
straight-curve $-1 52.777489547410504 -23.218261957911228 0 0 0 -1 I I #
coedge $-1 $424 $543 $426 $541 reversed $297 $-1 #
straight-curve $-1 -52.777489547410504 -9.9152510471903099 29.058385093855904 0 0 -1 I I #
edge $-1 $427 9.9152510471903099 $548 18.137640238813173 $539 $598 forward 7 unknown #
point $-1 -52.777489547410504 -9.9152510471903099 6.5360041596659189 #
coedge $-1 $539 $429 $432 $545 forward $297 $-1 #
straight-curve $-1 -52.777489547410504 -7.0132228215008707 0.62740953350318018 0 -1 0 I I #
edge $-1 $433 -28.430975560352724 $548 -22.522380934189986 $543 $599 forward 7 unknown #
point $-1 -52.777489547410504 -18.137640238813173 0.62740953350318041 #
point $-1 -52.777489547410504 -9.9152510471903099 0.62740953350318041 #
vertex $-1 $545 $600 #
straight-curve $-1 0 -18.137640238813173 6.5360041596659189 1 0 0 I I #
vertex $-1 $440 $601 #
point $-1 -49.747956414166694 -16.4931624004886 3.4564031118699563 #
vertex $-1 $444 $602 #
point $-1 -49.747956414166694 -14.02644564300174 3.4564031118699563 #
vertex $-1 $448 $603 #
point $-1 -49.747956414166694 -11.559728885514879 3.4564031118699563 #
coedge $-1 $557 $454 $563 $604 reversed $324 $-1 #
coedge $-1 $454 $556 $457 $561 reversed $324 $-1 #
edge $-1 $559 -13.664728276861327 $462 -5.4423390852384657 $461 $605 forward 7 unknown #
vertex $-1 $456 $606 #
straight-curve $-1 -45.093044027451292 23.218261957911228 12.460418336754843 -0.54463902268945019 0 -0.83867057594974714 I I #
edge $-1 $458 48.940403455511849 $565 52.777489547410504 $557 $607 forward 7 unknown #
point $-1 -48.940403455511849 23.218261957911224 6.5360041596659189 #
coedge $-1 $461 $460 $556 $604 forward $452 $-1 #
point $-1 -52.777489547410504 14.995872766288363 0.62740953350318041 #
vertex $-1 $561 $608 #
straight-curve $-1 -52.777489547410504 0 6.5360041596659189 0 -1 0 I I #
vertex $-1 $468 $609 #
point $-1 -49.747956414166694 16.64035060461293 3.4564031118699563 #
vertex $-1 $472 $610 #
point $-1 -49.747956414166694 19.107067362099794 3.4564031118699563 #
vertex $-1 $476 $611 #
point $-1 -49.747956414166694 21.573784119586659 3.4564031118699563 #
edge $-1 $574 69.108732690038323 $577 73.609810538512463 $481 $612 forward 7 unknown #
vertex $-1 $495 $613 #
straight-curve $-1 25.08612171284199 -13.297885044457903 6.5360041596659215 1 0 0 I I #
edge $-1 $577 -9.6163583306924973 $492 2.2533049031616859 $491 $614 forward 7 unknown #
vertex $-1 $576 $615 #
straight-curve $-1 -23.152407207561119 -13.297885044457903 75.359576944436867 -0.71933979245794832 0 0.69465837861970381 I I #
point $-1 48.116487096404249 -13.297885044457903 6.5360041596659215 #
point $-1 52.777489547410504 -1.4282218106037199 2.0349263111917821 #
straight-curve $-1 52.777489547410504 0 6.5360041596659189 0 1 0 I I #
vertex $-1 $498 $616 #
point $-1 50.183692116558404 -9.9065526919281375 1.8534792554028523 #
vertex $-1 $502 $617 #
point $-1 50.183692116558404 -4.8195541631334891 1.8534792554028523 #
straight-curve $-1 -52.777489547410504 23.218261957911228 0 0 0 -1 I I #
point $-1 -52.777489547410504 -23.218261957911228 -6.5360041596659189 #
straight-curve $-1 -52.777489547410504 0 -6.5360041596659189 0 1 0 I I #
point $-1 -52.777489547410504 23.218261957911228 -6.5360041596659189 #
coedge $-1 $528 $524 $533 $595 forward $401 $-1 #
vertex $-1 $525 $618 #
straight-curve $-1 -52.777489547410504 0 6.5360041596659189 0 -1 0 I I #
point $-1 -52.777489547410504 -18.137640238813173 6.5360041596659171 #
straight-curve $-1 52.777489547410504 0 6.5360041596659189 0 1 0 I I #
edge $-1 $591 -52.777489547410504 $537 52.777489547410504 $533 $619 forward 7 unknown #
straight-curve $-1 -52.777489547410504 -23.218261957911228 0 0 0 -1 I I #
point $-1 52.777489547410504 -23.218261957911228 6.5360041596659189 #
straight-curve $-1 -52.777489547410504 0 6.5360041596659189 0 -1 0 I I #
straight-curve $-1 -52.777489547410504 -18.137640238813173 29.058385093855904 0 0 1 I I #
point $-1 -52.777489547410504 -18.137640238813173 6.5360041596659171 #
point $-1 -49.600940637536546 -16.4931624004886 2.7647483125503576 #
point $-1 -49.600940637536546 -14.02644564300174 2.7647483125503576 #
point $-1 -49.600940637536546 -11.559728885514879 2.7647483125503576 #
edge $-1 $565 -6.5360041596659189 $559 -0.62740953350318041 $556 $620 forward 7 unknown #
straight-curve $-1 -52.777489547410504 9.5535336810498972 0.62740953350318018 0 -1 0 I I #
point $-1 -52.777489547410504 23.218261957911224 0.62740953350318041 #
straight-curve $-1 0 23.218261957911228 6.5360041596659189 -1 0 0 I I #
point $-1 -52.777489547410504 23.218261957911228 6.5360041596659189 #
point $-1 -49.600940637536546 16.64035060461293 2.7647483125503576 #
point $-1 -49.600940637536546 19.107067362099794 2.7647483125503576 #
point $-1 -49.600940637536546 21.573784119586659 2.7647483125503576 #
straight-curve $-1 52.777489547410504 -13.297885044457903 75.644736849704245 0 0 -1 I I #
point $-1 52.777489547410504 -13.297885044457903 6.5360041596659189 #
straight-curve $-1 52.777489547410497 -3.6815267137654057 2.0349263111917821 0 1 0 I I #
point $-1 52.777489547410504 -13.297885044457903 2.0349263111917821 #
point $-1 48.062694859941928 -9.9065526919281375 1.8164571346454852 #
point $-1 48.062694859941928 -4.8195541631334891 1.8164571346454852 #
point $-1 -52.777489547410504 -23.218261957911228 6.5360041596659189 #
straight-curve $-1 0 -23.218261957911228 6.5360041596659189 1 0 0 I I #
straight-curve $-1 -52.777489547410504 23.218261957911228 0 0 0 -1 I I #
End-of-ACIS-data 