500 0 8 0           
7 Unknown 11 ACIS 5.0 NT 24 Thu Mar 25 19:53:23 1999 
-1 9.9999999999999995e-007 1e-010 
body $-1 $8 $-1 $9 #
body $-1 $10 $-1 $11 #
body $-1 $12 $-1 $13 #
body $-1 $14 $-1 $15 #
body $-1 $16 $-1 $17 #
body $-1 $18 $-1 $19 #
body $-1 $20 $-1 $21 #
body $-1 $22 $-1 $23 #
lump $-1 $-1 $24 $0 #
transform $-1 1 0 0 0 1 0 0 0 1 40.253913998840297 19.289127190551195 8.245341010991984 1 rotate no_reflect no_shear #
lump $-1 $-1 $25 $1 #
transform $-1 1 0 0 0 1 0 0 0 1 40.253913998840297 19.289127190551195 8.245341010991984 1 rotate no_reflect no_shear #
lump $-1 $-1 $26 $2 #
transform $-1 1 0 0 0 1 0 0 0 1 40.253913998840297 19.289127190551195 8.245341010991984 1 rotate no_reflect no_shear #
lump $-1 $-1 $27 $3 #
transform $-1 1 0 0 0 1 0 0 0 1 40.253913998840297 19.289127190551195 8.245341010991984 1 rotate no_reflect no_shear #
lump $-1 $-1 $28 $4 #
transform $-1 1 0 0 0 1 0 0 0 1 40.253913998840297 19.289127190551195 8.245341010991984 1 rotate no_reflect no_shear #
lump $-1 $-1 $29 $5 #
transform $-1 1 0 0 0 1 0 0 0 1 40.253913998840297 19.289127190551195 8.245341010991984 1 rotate no_reflect no_shear #
lump $-1 $-1 $30 $6 #
transform $-1 1 0 0 0 1 0 0 0 1 40.253913998840297 19.289127190551195 8.245341010991984 1 rotate no_reflect no_shear #
lump $-1 $-1 $31 $7 #
transform $-1 1 0 0 0 1 0 0 0 1 40.253913998840297 19.289127190551195 8.245341010991984 1 rotate no_reflect no_shear #
shell $-1 $-1 $-1 $32 $-1 $8 #
shell $-1 $-1 $-1 $33 $-1 $10 #
shell $-1 $-1 $-1 $34 $-1 $12 #
shell $-1 $-1 $-1 $35 $-1 $14 #
shell $-1 $-1 $-1 $36 $-1 $16 #
shell $-1 $-1 $-1 $37 $-1 $18 #
shell $-1 $-1 $-1 $38 $-1 $20 #
shell $-1 $-1 $-1 $39 $-1 $22 #
face $-1 $40 $41 $24 $-1 $42 forward single #
face $-1 $43 $44 $25 $-1 $45 forward single #
face $-1 $46 $47 $26 $-1 $48 reversed single #
face $-1 $49 $50 $27 $-1 $51 forward single #
face $-1 $52 $53 $28 $-1 $54 forward single #
face $-1 $55 $56 $29 $-1 $57 reversed single #
face $-1 $58 $59 $30 $-1 $60 forward single #
face $-1 $61 $62 $31 $-1 $63 forward single #
face $-1 $64 $65 $24 $-1 $66 reversed single #
loop $-1 $-1 $67 $32 #
plane-surface $-1 0 0 8.245341010991984 0 0 1 1 0 0 forward_v I I I I #
face $-1 $68 $69 $25 $-1 $70 reversed single #
loop $-1 $-1 $71 $33 #
plane-surface $-1 -35.936346752115824 0 -4.0241552002863799 0 0 1 1 0 0 forward_v I I I I #
face $-1 $72 $73 $26 $-1 $74 reversed single #
loop $-1 $-1 $75 $34 #
plane-surface $-1 -31.618779505391359 29.235561719148176 91.045913639191696 1 0 0 0 -0.52991927123019833 -0.84804809178421925 forward_v I I I I #
face $-1 $76 $77 $27 $-1 $78 forward single #
loop $-1 $79 $80 $35 #
cone-surface $-1 -29.450838688287142 14.149554031935448 4.6389642634947297 0 -0.52991927123019833 -0.84804809178421925 0.5 0 0 1 I I 0 1 0.5 forward I I I I #
face $-1 $81 $82 $28 $-1 $83 forward single #
loop $-1 $84 $85 $36 #
cone-surface $-1 -26.198927462630817 14.149554031935448 4.6389642634947297 0 -0.52991927123019833 -0.84804809178421925 0.5 0 0 1 I I 0 1 0.5 forward I I I I #
face $-1 $86 $87 $29 $-1 $88 reversed single #
loop $-1 $-1 $89 $37 #
plane-surface $-1 15.580220020110346 -86.03314213545022 45.52317685292828 -1 0 0 0 -0.82903758062907751 0.55919289150049634 forward_v I I I I #
face $-1 $90 $91 $30 $-1 $92 forward single #
loop $-1 $93 $94 $38 #
cone-surface $-1 6.1316316599577121 -15.423668785918229 3.5283306380876054 0 0.82903758062907751 -0.55919289150049634 1.5 0 0 1 I I 0 1 1.5 forward I I I I #
face $-1 $95 $96 $31 $-1 $97 forward single #
loop $-1 $98 $99 $39 #
cone-surface $-1 11.80078467604929 -15.423668785918229 3.5283306380876054 0 0.82903758062907751 -0.55919289150049634 1.5 0 0 1 I I 0 1 1.5 forward I I I I #
face $-1 $100 $101 $24 $-1 $102 reversed single #
loop $-1 $-1 $103 $40 #
plane-surface $-1 0 0 -8.245341010991984 0 0 1 1 0 0 forward_v I I I I #
coedge $-1 $104 $105 $106 $107 forward $41 $-1 #
face $-1 $108 $109 $25 $-1 $110 reversed single #
loop $-1 $-1 $111 $43 #
plane-surface $-1 -31.618779505391355 0 -6.1347481056391819 -1 0 0 0 0 1 forward_v I I I I #
coedge $-1 $112 $113 $114 $115 forward $44 $-1 #
face $-1 $116 $117 $26 $-1 $118 reversed single #
loop $-1 $-1 $119 $46 #
plane-surface $-1 -27.824883075458978 -13.427087821708884 22.771403732066531 0 0.52991927123019833 0.84804809178421925 1 0 0 forward_v I I I I #
coedge $-1 $120 $121 $122 $123 reversed $47 $-1 #
face $-1 $-1 $124 $27 $-1 $125 forward single #
loop $-1 $126 $127 $49 #
cone-surface $-1 -29.450838688287142 13.612328903263975 3.7792243559976431 0 -0.52991927123019833 -0.84804809178421925 0.25 0 0 1 I I -0.70710678118654746 0.70710678118654746 0.25 forward I I I I #
loop $-1 $-1 $128 $35 #
coedge $-1 $80 $80 $129 $130 reversed $50 $-1 #
face $-1 $-1 $131 $28 $-1 $132 forward single #
loop $-1 $133 $134 $52 #
cone-surface $-1 -26.198927462630817 13.612328903263975 3.7792243559976431 0 -0.52991927123019833 -0.84804809178421925 0.25 0 0 1 I I -0.70710678118654746 0.70710678118654746 0.25 forward I I I I #
loop $-1 $-1 $135 $36 #
coedge $-1 $85 $85 $136 $137 reversed $53 $-1 #
face $-1 $138 $139 $29 $-1 $140 reversed single #
loop $-1 $-1 $141 $55 #
plane-surface $-1 8.9662081680035044 -19.289127190551184 0.50377172648065738 0 -0.82903758062907751 0.55919289150049634 1 0 0 forward_v I I I I #
coedge $-1 $142 $143 $144 $145 reversed $56 $-1 #
face $-1 $-1 $146 $30 $-1 $147 forward single #
loop $-1 $148 $149 $58 #
cone-surface $-1 6.1316316599577121 -13.547309322561091 2.2627102388135167 0 0.82903758062907751 -0.55919289150049634 0.75 0 0 1 I I -0.70710678118654757 0.70710678118654757 0.75 forward I I I I #
loop $-1 $-1 $150 $38 #
coedge $-1 $94 $94 $151 $152 reversed $59 $-1 #
face $-1 $-1 $153 $31 $-1 $154 forward single #
loop $-1 $155 $156 $61 #
cone-surface $-1 11.80078467604929 -13.547309322561091 2.2627102388135167 0 0.82903758062907751 -0.55919289150049634 0.75 0 0 1 I I -0.70710678118654757 0.70710678118654757 0.75 forward I I I I #
loop $-1 $-1 $157 $39 #
coedge $-1 $99 $99 $158 $159 reversed $62 $-1 #
face $-1 $160 $161 $24 $-1 $162 reversed single #
loop $-1 $-1 $163 $64 #
plane-surface $-1 0 -19.289127190551195 0 0 1 0 0 0 1 forward_v I I I I #
coedge $-1 $164 $165 $166 $167 forward $65 $-1 #
coedge $-1 $168 $67 $169 $170 forward $41 $-1 #
coedge $-1 $67 $168 $171 $172 forward $41 $-1 #
coedge $-1 $173 $174 $67 $107 reversed $175 $-1 #
edge $-1 $176 -19.289127190551195 $177 19.289127190551195 $106 $178 forward 7 unknown #
face $-1 $179 $180 $25 $-1 $181 reversed single #
loop $-1 $-1 $182 $68 #
plane-surface $-1 0 0 -8.245341010991984 0 0 1 1 0 0 forward_v I I I I #
coedge $-1 $183 $114 $184 $185 reversed $69 $-1 #
coedge $-1 $186 $71 $187 $188 reversed $44 $-1 #
coedge $-1 $71 $186 $189 $190 reversed $44 $-1 #
coedge $-1 $111 $191 $71 $115 reversed $69 $-1 #
edge $-1 $192 -19.289127190551195 $193 19.289127190551195 $114 $194 forward 7 unknown #
face $-1 $195 $196 $26 $-1 $197 reversed single #
loop $-1 $-1 $198 $72 #
plane-surface $-1 -24.030986645526596 29.235561719148176 91.045913639191696 -1 0 0 0 0.52991927123019833 0.84804809178421925 forward_v I I I I #
coedge $-1 $199 $200 $201 $202 reversed $73 $-1 #
coedge $-1 $121 $75 $203 $204 reversed $47 $-1 #
coedge $-1 $75 $120 $199 $205 reversed $47 $-1 #
coedge $-1 $201 $206 $75 $123 forward $207 $-1 #
edge $-1 $208 -4.6713463309771068 $209 4.798309364526526 $122 $210 forward 7 unknown #
loop $-1 $-1 $129 $76 #
plane-surface $-1 -27.824883075458978 -13.427087821708884 22.771403732066531 0 0.52991927123019833 0.84804809178421925 1 0 0 forward_v I I I I #
loop $-1 $-1 $211 $49 #
coedge $-1 $127 $127 $128 $212 reversed $77 $-1 #
coedge $-1 $128 $128 $127 $212 forward $79 $-1 #
coedge $-1 $129 $129 $80 $130 forward $124 $-1 #
edge $-1 $213 -5.6668467186954307e-016 $213 6.2831853071795996 $129 $214 forward 7 unknown #
loop $-1 $-1 $136 $81 #
plane-surface $-1 -27.824883075458978 -13.427087821708884 22.771403732066531 0 0.52991927123019833 0.84804809178421925 1 0 0 forward_v I I I I #
loop $-1 $-1 $215 $52 #
coedge $-1 $134 $134 $135 $216 reversed $82 $-1 #
coedge $-1 $135 $135 $134 $216 forward $84 $-1 #
coedge $-1 $136 $136 $85 $137 forward $131 $-1 #
edge $-1 $217 -5.6668467186954307e-016 $217 6.2831853071795996 $136 $218 forward 7 unknown #
face $-1 $219 $220 $29 $-1 $221 forward single #
loop $-1 $-1 $222 $86 #
plane-surface $-1 2.3521963158966628 -86.03314213545022 45.52317685292828 1 0 0 0 0.82903758062907751 -0.55919289150049634 forward_v I I I I #
coedge $-1 $223 $224 $225 $226 reversed $87 $-1 #
coedge $-1 $143 $89 $227 $228 reversed $56 $-1 #
coedge $-1 $89 $142 $223 $229 reversed $56 $-1 #
coedge $-1 $225 $230 $89 $145 forward $220 $-1 #
edge $-1 $231 23.727443877173915 $232 28.949198130669199 $144 $233 forward 7 unknown #
loop $-1 $-1 $151 $90 #
plane-surface $-1 8.9662081680035044 -19.289127190551184 0.50377172648065738 0 -0.82903758062907751 0.55919289150049634 1 0 0 forward_v I I I I #
loop $-1 $-1 $234 $58 #
coedge $-1 $149 $149 $150 $235 reversed $91 $-1 #
coedge $-1 $150 $150 $149 $235 forward $93 $-1 #
coedge $-1 $151 $151 $94 $152 forward $146 $-1 #
edge $-1 $236 -5.3708245767960617e-016 $236 6.2831853071795996 $151 $237 forward 7 unknown #
loop $-1 $-1 $158 $95 #
plane-surface $-1 8.9662081680035044 -19.289127190551184 0.50377172648065738 0 -0.82903758062907751 0.55919289150049634 1 0 0 forward_v I I I I #
loop $-1 $-1 $238 $61 #
coedge $-1 $156 $156 $157 $239 reversed $96 $-1 #
coedge $-1 $157 $157 $156 $239 forward $98 $-1 #
coedge $-1 $158 $158 $99 $159 forward $153 $-1 #
edge $-1 $240 -5.3708245767960617e-016 $240 6.2831853071795996 $158 $241 forward 7 unknown #
face $-1 $242 $243 $24 $-1 $244 reversed single #
loop $-1 $-1 $245 $100 #
plane-surface $-1 -40.253913998840297 0 0 1 0 0 0 0 -1 forward_v I I I I #
coedge $-1 $246 $171 $247 $248 forward $101 $-1 #
coedge $-1 $249 $103 $246 $250 forward $65 $-1 #
coedge $-1 $103 $249 $251 $252 forward $65 $-1 #
coedge $-1 $174 $173 $103 $167 reversed $175 $-1 #
edge $-1 $253 -19.289127190551195 $254 19.289127190551195 $166 $255 forward 7 unknown #
coedge $-1 $105 $104 $256 $257 forward $41 $-1 #
coedge $-1 $258 $259 $104 $170 reversed $243 $-1 #
edge $-1 $177 -40.253913998840297 $260 40.253913998840297 $169 $261 forward 7 unknown #
coedge $-1 $163 $262 $105 $172 reversed $101 $-1 #
edge $-1 $263 -40.253913998840297 $176 40.253913998840297 $171 $264 forward 7 unknown #
coedge $-1 $166 $106 $262 $265 forward $175 $-1 #
coedge $-1 $106 $166 $258 $266 reversed $175 $-1 #
loop $-1 $-1 $173 $242 #
vertex $-1 $107 $267 #
vertex $-1 $107 $268 #
straight-curve $-1 40.253913998840297 0 8.245341010991984 0 1 0 I I #
face $-1 $269 $270 $25 $-1 $271 reversed single #
loop $-1 $-1 $184 $108 #
plane-surface $-1 0 -19.289127190551195 0 0 1 0 0 0 1 forward_v I I I I #
coedge $-1 $272 $273 $183 $274 forward $109 $-1 #
coedge $-1 $191 $111 $182 $274 reversed $69 $-1 #
coedge $-1 $189 $275 $111 $185 forward $180 $-1 #
edge $-1 $276 -5.1779669581723926 $192 -0.95678114746678888 $184 $277 forward 7 unknown #
coedge $-1 $113 $112 $278 $279 reversed $44 $-1 #
coedge $-1 $280 $281 $112 $188 forward $282 $-1 #
edge $-1 $283 -22.285740622782377 $193 -13.650606129333443 $187 $284 forward 7 unknown #
coedge $-1 $285 $184 $113 $190 forward $180 $-1 #
edge $-1 $192 13.650606129333443 $286 22.285740622782377 $189 $287 forward 7 unknown #
coedge $-1 $114 $183 $280 $288 reversed $69 $-1 #
vertex $-1 $190 $289 #
vertex $-1 $188 $290 #
straight-curve $-1 -31.618779505391355 0 -4.0241552002863799 0 1 0 I I #
face $-1 $-1 $207 $26 $-1 $291 forward single #
loop $-1 $-1 $292 $116 #
plane-surface $-1 0 19.289127190551195 0 0 -1 0 0 0 -1 forward_v I I I I #
coedge $-1 $293 $294 $295 $296 reversed $117 $-1 #
coedge $-1 $297 $119 $121 $205 forward $73 $-1 #
coedge $-1 $119 $297 $293 $298 forward $73 $-1 #
coedge $-1 $295 $122 $119 $202 forward $207 $-1 #
edge $-1 $209 -17.70633796766187 $299 -10.118545107797107 $201 $300 forward 7 unknown #
coedge $-1 $301 $302 $120 $204 forward $196 $-1 #
edge $-1 $303 -43.194913534496301 $208 -37.277615808603862 $203 $304 forward 7 unknown #
edge $-1 $209 27.411840840119943 $303 38.57825438110239 $121 $305 forward 7 unknown #
coedge $-1 $122 $295 $301 $306 forward $207 $-1 #
loop $-1 $-1 $295 $195 #
vertex $-1 $204 $307 #
vertex $-1 $123 $308 #
straight-curve $-1 -31.618779505391359 14.617780859574088 8.2453410109919858 0 -1 0 I I #
coedge $-1 $211 $211 $-1 $309 reversed $126 $-1 #
edge $-1 $310 0 $310 6.2831853071796004 $127 $311 forward 7 unknown #
vertex $-1 $130 $312 #
ellipse-curve $-1 -29.450838688287142 14.554299342799377 5.2866921480457689 0 0.52991927123019833 0.84804809178421925 0.5 0 0 1 I I #
coedge $-1 $215 $215 $-1 $313 reversed $133 $-1 #
edge $-1 $314 0 $314 6.2831853071796004 $134 $315 forward 7 unknown #
vertex $-1 $137 $316 #
ellipse-curve $-1 -26.198927462630817 14.554299342799377 5.2866921480457689 0 0.52991927123019833 0.84804809178421925 0.5 0 0 1 I I #
face $-1 $-1 $317 $29 $-1 $318 reversed single #
loop $-1 $-1 $144 $138 #
plane-surface $-1 0 0 8.245341010991984 0 0 1 1 0 0 forward_v I I I I #
coedge $-1 $319 $320 $321 $322 reversed $139 $-1 #
coedge $-1 $323 $141 $143 $229 forward $87 $-1 #
coedge $-1 $141 $323 $319 $324 forward $87 $-1 #
coedge $-1 $321 $144 $141 $226 forward $220 $-1 #
edge $-1 $232 -11.097115936108594 $325 2.1309077681050894 $225 $326 forward 7 unknown #
coedge $-1 $327 $328 $142 $228 forward $317 $-1 #
edge $-1 $329 -22.257816699983497 $231 -14.516247415472156 $227 $330 forward 7 unknown #
edge $-1 $232 -9.3380197296206866 $329 1.9029872570339353e-014 $143 $331 forward 7 unknown #
coedge $-1 $144 $321 $327 $332 forward $220 $-1 #
vertex $-1 $145 $333 #
vertex $-1 $145 $334 #
straight-curve $-1 15.580220020110346 -43.01657106772511 8.2453410109919858 0 1 0 I I #
coedge $-1 $234 $234 $-1 $335 reversed $148 $-1 #
edge $-1 $336 0 $336 6.2831853071796004 $149 $337 forward 7 unknown #
vertex $-1 $152 $338 #
ellipse-curve $-1 6.1316316599577121 -16.678250063803549 4.3745563687363154 0 -0.82903758062907751 0.55919289150049634 1.5 0 0 1 I I #
coedge $-1 $238 $238 $-1 $339 reversed $155 $-1 #
edge $-1 $340 0 $340 6.2831853071796004 $156 $341 forward 7 unknown #
vertex $-1 $159 $342 #
ellipse-curve $-1 11.80078467604929 -16.678250063803549 4.3745563687363154 0 -0.82903758062907751 0.55919289150049634 1.5 0 0 1 I I #
face $-1 $-1 $175 $24 $-1 $343 reversed single #
loop $-1 $-1 $258 $160 #
plane-surface $-1 0 19.289127190551195 0 0 -1 0 0 0 -1 forward_v I I I I #
coedge $-1 $344 $256 $259 $345 forward $161 $-1 #
coedge $-1 $262 $163 $164 $250 reversed $101 $-1 #
coedge $-1 $256 $344 $163 $248 reversed $161 $-1 #
edge $-1 $263 -8.245341010991984 $346 8.245341010991984 $247 $347 forward 7 unknown #
coedge $-1 $165 $164 $344 $348 forward $65 $-1 #
edge $-1 $254 -40.253913998840297 $346 40.253913998840297 $246 $349 forward 7 unknown #
coedge $-1 $259 $258 $165 $252 reversed $243 $-1 #
edge $-1 $350 -40.253913998840297 $253 40.253913998840297 $251 $351 forward 7 unknown #
vertex $-1 $167 $352 #
vertex $-1 $265 $353 #
straight-curve $-1 40.253913998840297 0 -8.245341010991984 0 -1 0 I I #
coedge $-1 $245 $247 $168 $257 reversed $161 $-1 #
edge $-1 $260 -19.289127190551195 $263 19.289127190551195 $256 $354 forward 7 unknown #
coedge $-1 $251 $169 $174 $266 forward $243 $-1 #
coedge $-1 $169 $251 $245 $345 reversed $243 $-1 #
vertex $-1 $170 $355 #
straight-curve $-1 0 19.289127190551195 8.245341010991984 -1 0 0 I I #
coedge $-1 $171 $246 $173 $265 reversed $101 $-1 #
vertex $-1 $257 $356 #
straight-curve $-1 0 -19.289127190551195 8.245341010991984 1 0 0 I I #
edge $-1 $176 -8.245341010991984 $254 8.245341010991984 $173 $357 forward 7 unknown #
edge $-1 $177 -8.245341010991984 $253 8.245341010991984 $174 $358 forward 7 unknown #
point $-1 40.253913998840297 -19.289127190551195 8.245341010991984 #
point $-1 40.253913998840297 19.289127190551195 8.245341010991984 #
face $-1 $-1 $282 $25 $-1 $359 reversed single #
loop $-1 $-1 $278 $179 #
plane-surface $-1 -40.253913998840297 0 0 1 0 0 0 0 -1 forward_v I I I I #
coedge $-1 $360 $182 $275 $361 forward $109 $-1 #
coedge $-1 $182 $360 $362 $363 forward $109 $-1 #
edge $-1 $364 -19.289127190551195 $276 19.289127190551195 $182 $365 forward 7 unknown #
coedge $-1 $184 $285 $272 $361 reversed $180 $-1 #
vertex $-1 $361 $366 #
straight-curve $-1 -31.618779505391355 -19.289127190551195 -3.067374052819591 0 0 1 I I #
coedge $-1 $367 $368 $186 $279 forward $270 $-1 #
edge $-1 $286 -19.289127190551195 $283 19.289127190551195 $278 $369 forward 7 unknown #
coedge $-1 $362 $187 $191 $288 forward $282 $-1 #
coedge $-1 $187 $362 $367 $370 reversed $282 $-1 #
loop $-1 $-1 $280 $269 #
vertex $-1 $370 $371 #
straight-curve $-1 -17.968173376057912 19.289127190551195 -4.0241552002863799 1 0 0 I I #
coedge $-1 $275 $189 $368 $372 forward $180 $-1 #
vertex $-1 $372 $373 #
straight-curve $-1 -17.968173376057912 -19.289127190551195 -4.0241552002863799 -1 0 0 I I #
edge $-1 $193 0.95678114746678888 $364 5.1779669581723926 $280 $374 forward 7 unknown #
point $-1 -31.618779505391355 -19.289127190551195 -4.0241552002863799 #
point $-1 -31.618779505391355 19.289127190551195 -4.0241552002863799 #
plane-surface $-1 0 0 8.245341010991984 0 0 1 1 0 0 forward_v I I I I #
coedge $-1 $302 $301 $294 $375 forward $196 $-1 #
coedge $-1 $294 $198 $200 $298 reversed $117 $-1 #
coedge $-1 $198 $293 $292 $375 reversed $117 $-1 #
coedge $-1 $206 $201 $198 $296 forward $207 $-1 #
edge $-1 $299 -4.798309364526526 $376 4.6713463309771068 $295 $377 forward 7 unknown #
coedge $-1 $200 $199 $302 $378 reversed $73 $-1 #
edge $-1 $379 -38.57825438110239 $299 -27.411840840119943 $293 $380 forward 7 unknown #
vertex $-1 $202 $381 #
straight-curve $-1 -13.912441537729489 9.8194714950475657 8.2453410109919822 1 0 0 I I #
coedge $-1 $292 $203 $206 $306 reversed $196 $-1 #
coedge $-1 $203 $292 $297 $378 forward $196 $-1 #
vertex $-1 $204 $382 #
straight-curve $-1 -31.618779505391359 19.289127190551195 45.522956819595848 0 0 1 I I #
straight-curve $-1 -31.618779505391359 -13.427087821708884 22.771403732066531 0 0.84804809178421925 -0.52991927123019833 I I #
edge $-1 $376 24.030986645526596 $208 31.618779505391359 $301 $383 forward 7 unknown #
point $-1 -31.618779505391359 19.289127190551195 8.245341010991984 #
point $-1 -31.618779505391359 9.8194714950475621 8.245341010991984 #
edge $-1 $384 1 $384 0 $211 $-1 forward 7 unknown #
vertex $-1 $212 $385 #
ellipse-curve $-1 -29.450838688287142 13.744808721071525 3.991236378943698 0 0.52991927123019833 0.84804809178421925 0.5 0 0 1 I I #
point $-1 -28.950838688287142 14.554299342799371 5.2866921480457609 #
edge $-1 $386 1 $386 0 $215 $-1 forward 7 unknown #
vertex $-1 $216 $387 #
ellipse-curve $-1 -26.198927462630817 13.744808721071525 3.991236378943698 0 0.52991927123019833 0.84804809178421925 0.5 0 0 1 I I #
point $-1 -25.698927462630817 14.554299342799371 5.2866921480457609 #
loop $-1 $-1 $227 $219 #
plane-surface $-1 0 -19.289127190551195 0 0 1 0 0 0 1 forward_v I I I I #
coedge $-1 $320 $222 $224 $324 reversed $139 $-1 #
coedge $-1 $222 $319 $388 $389 reversed $139 $-1 #
coedge $-1 $230 $225 $222 $322 forward $220 $-1 #
edge $-1 $325 -28.949198130669199 $390 -23.727443877173915 $321 $391 forward 7 unknown #
coedge $-1 $224 $223 $328 $392 reversed $87 $-1 #
edge $-1 $393 -1.9029872570339353e-014 $325 9.3380197296206866 $319 $394 forward 7 unknown #
vertex $-1 $226 $395 #
straight-curve $-1 4.4831040840017522 -14.067372937055909 8.245341010991984 -1 0 0 I I #
coedge $-1 $388 $227 $230 $332 reversed $317 $-1 #
coedge $-1 $227 $388 $323 $392 forward $317 $-1 #
vertex $-1 $228 $396 #
straight-curve $-1 15.580220020110346 -19.289127190551199 22.76158842646414 0 0 1 I I #
straight-curve $-1 15.580220020110346 -19.289127190551184 0.50377172648065738 0 -0.55919289150049634 -0.82903758062907751 I I #
edge $-1 $390 2.3521963158966628 $231 15.580220020110346 $327 $397 forward 7 unknown #
point $-1 15.580220020110346 -19.289127190551195 8.245341010991984 #
point $-1 15.580220020110346 -14.067372937055911 8.245341010991984 #
edge $-1 $398 1 $398 0 $234 $-1 forward 7 unknown #
vertex $-1 $235 $399 #
ellipse-curve $-1 6.1316316599577121 -14.169087508032899 2.6821049074388892 0 -0.82903758062907751 0.55919289150049634 1.5 0 0 1 I I #
point $-1 7.6316316599577121 -16.67825006380356 4.3745563687363216 #
edge $-1 $400 1 $400 0 $238 $-1 forward 7 unknown #
vertex $-1 $239 $401 #
ellipse-curve $-1 11.80078467604929 -14.169087508032899 2.6821049074388892 0 -0.82903758062907751 0.55919289150049634 1.5 0 0 1 I I #
point $-1 13.30078467604929 -16.67825006380356 4.3745563687363216 #
plane-surface $-1 40.253913998840297 0 0 -1 0 0 0 0 1 forward_v I I I I #
coedge $-1 $247 $245 $249 $348 reversed $161 $-1 #
edge $-1 $260 -8.245341010991984 $350 8.245341010991984 $259 $402 forward 7 unknown #
vertex $-1 $348 $403 #
straight-curve $-1 -40.253913998840297 -19.289127190551195 0 0 0 -1 I I #
edge $-1 $346 -19.289127190551195 $350 19.289127190551195 $344 $404 forward 7 unknown #
straight-curve $-1 0 -19.289127190551195 -8.245341010991984 -1 0 0 I I #
vertex $-1 $252 $405 #
straight-curve $-1 0 19.289127190551195 -8.245341010991984 1 0 0 I I #
point $-1 40.253913998840297 19.289127190551195 -8.245341010991984 #
point $-1 40.253913998840297 -19.289127190551195 -8.245341010991984 #
straight-curve $-1 -40.253913998840297 0 8.245341010991984 0 -1 0 I I #
point $-1 -40.253913998840297 19.289127190551195 8.245341010991984 #
point $-1 -40.253913998840297 -19.289127190551195 8.245341010991984 #
straight-curve $-1 40.253913998840297 -19.289127190551195 0 0 0 -1 I I #
straight-curve $-1 40.253913998840297 19.289127190551195 0 0 0 -1 I I #
plane-surface $-1 0 19.289127190551195 0 0 -1 0 0 0 -1 forward_v I I I I #
coedge $-1 $273 $272 $406 $407 forward $109 $-1 #
edge $-1 $276 31.618779505391355 $408 40.253913998840297 $275 $409 forward 7 unknown #
coedge $-1 $281 $280 $273 $363 reversed $282 $-1 #
edge $-1 $410 -40.253913998840297 $364 -31.618779505391355 $362 $411 forward 7 unknown #
vertex $-1 $288 $412 #
straight-curve $-1 -31.618779505391355 0 -8.245341010991984 0 -1 0 I I #
point $-1 -31.618779505391355 -19.289127190551195 -8.245341010991984 #
coedge $-1 $406 $278 $281 $370 forward $270 $-1 #
coedge $-1 $278 $406 $285 $372 reversed $270 $-1 #
straight-curve $-1 -40.253913998840297 0 -4.0241552002863799 0 1 0 I I #
edge $-1 $283 4.0241552002863799 $410 8.245341010991984 $281 $413 forward 7 unknown #
point $-1 -40.253913998840289 19.289127190551195 -4.0241552002863799 #
edge $-1 $286 4.0241552002863799 $408 8.245341010991984 $368 $414 forward 7 unknown #
point $-1 -40.253913998840289 -19.289127190551195 -4.0241552002863799 #
straight-curve $-1 -31.618779505391355 19.289127190551195 -3.067374052819591 0 0 -1 I I #
edge $-1 $376 37.277615808603862 $379 43.194913534496301 $292 $415 forward 7 unknown #
vertex $-1 $306 $416 #
straight-curve $-1 -24.030986645526596 14.617780859574088 8.2453410109919858 0 1 0 I I #
edge $-1 $379 10.118545107797107 $303 17.70633796766187 $302 $417 forward 7 unknown #
vertex $-1 $378 $418 #
straight-curve $-1 -24.030986645526596 -13.427087821708884 22.771403732066531 0 -0.84804809178421925 0.52991927123019833 I I #
point $-1 -24.030986645526596 9.8194714950475621 8.245341010991984 #
point $-1 -31.618779505391359 19.289127190551195 2.3280432850995467 #
straight-curve $-1 0 19.289127190551195 8.245341010991984 -1 0 0 I I #
vertex $-1 $309 $419 #
point $-1 -28.950838688287142 13.744808721071525 3.991236378943698 #
vertex $-1 $313 $420 #
point $-1 -25.698927462630817 13.744808721071525 3.991236378943698 #
coedge $-1 $328 $327 $320 $389 forward $317 $-1 #
edge $-1 $390 14.516247415472156 $393 22.257816699983497 $388 $421 forward 7 unknown #
vertex $-1 $332 $422 #
straight-curve $-1 2.3521963158966628 -43.01657106772511 8.2453410109919858 0 -1 0 I I #
edge $-1 $393 -2.1309077681050894 $329 11.097115936108594 $328 $423 forward 7 unknown #
vertex $-1 $392 $424 #
straight-curve $-1 2.3521963158966628 -19.289127190551184 0.50377172648065738 0 0.55919289150049634 0.82903758062907751 I I #
point $-1 2.3521963158966628 -14.067372937055911 8.245341010991984 #
point $-1 15.580220020110346 -19.289127190551195 0.50377172648064161 #
straight-curve $-1 0 -19.289127190551195 8.245341010991984 1 0 0 I I #
vertex $-1 $335 $425 #
point $-1 7.6316316599577121 -14.169087508032899 2.6821049074388892 #
vertex $-1 $339 $426 #
point $-1 13.30078467604929 -14.169087508032899 2.6821049074388892 #
straight-curve $-1 -40.253913998840297 19.289127190551195 0 0 0 -1 I I #
point $-1 -40.253913998840297 -19.289127190551195 -8.245341010991984 #
straight-curve $-1 -40.253913998840297 0 -8.245341010991984 0 1 0 I I #
point $-1 -40.253913998840297 19.289127190551195 -8.245341010991984 #
coedge $-1 $368 $367 $360 $407 reversed $270 $-1 #
edge $-1 $408 -19.289127190551195 $410 19.289127190551195 $406 $427 forward 7 unknown #
vertex $-1 $407 $428 #
straight-curve $-1 0 -19.289127190551195 -8.245341010991984 -1 0 0 I I #
vertex $-1 $363 $429 #
straight-curve $-1 0 19.289127190551195 -8.245341010991984 1 0 0 I I #
point $-1 -31.618779505391355 19.289127190551195 -8.245341010991984 #
straight-curve $-1 -40.253913998840297 19.289127190551195 0 0 0 -1 I I #
straight-curve $-1 -40.253913998840297 -19.289127190551195 0 0 0 -1 I I #
straight-curve $-1 -24.030986645526596 19.289127190551195 45.522956819595848 0 0 -1 I I #
point $-1 -24.030986645526596 19.289127190551195 8.245341010991984 #
straight-curve $-1 -13.912441537729489 19.289127190551199 2.3280432850995467 -1 0 0 I I #
point $-1 -24.030986645526596 19.289127190551195 2.3280432850995467 #
point $-1 -29.450838688287142 13.479849085456426 3.5672123330515881 #
point $-1 -26.198927462630817 13.479849085456426 3.5672123330515881 #
straight-curve $-1 2.3521963158966628 -19.289127190551199 22.76158842646414 0 0 -1 I I #
point $-1 2.3521963158966628 -19.289127190551195 8.245341010991984 #
straight-curve $-1 4.4831040840017522 -19.289127190551195 0.50377172648064494 1 0 0 I I #
point $-1 2.3521963158966628 -19.289127190551195 0.50377172648064161 #
point $-1 6.1316316599577121 -12.925531137089283 1.8433155701881445 #
point $-1 11.80078467604929 -12.925531137089283 1.8433155701881445 #
straight-curve $-1 -40.253913998840297 0 -8.245341010991984 0 1 0 I I #
point $-1 -40.253913998840297 -19.289127190551195 -8.245341010991984 #
point $-1 -40.253913998840297 19.289127190551195 -8.245341010991984 #
End-of-ACIS-data 