500 0 8 0           
7 Unknown 11 ACIS 5.0 NT 24 Fri Mar 26 16:10:47 1999 
-1 9.9999999999999995e-007 1e-010 
body $-1 $8 $-1 $9 #
body $-1 $10 $-1 $11 #
body $-1 $12 $-1 $13 #
body $-1 $14 $-1 $15 #
body $-1 $16 $-1 $17 #
body $-1 $18 $-1 $19 #
body $-1 $20 $-1 $21 #
body $-1 $22 $-1 $23 #
lump $-1 $-1 $24 $0 #
transform $-1 1 0 0 0 1 0 0 0 1 46.473586230048525 21.329173452576821 9.8822935454873981 1 rotate no_reflect no_shear #
lump $-1 $-1 $25 $1 #
transform $-1 1 0 0 0 1 0 0 0 1 46.473586230048525 21.329173452576821 9.8822935454873981 1 rotate no_reflect no_shear #
lump $-1 $-1 $26 $2 #
transform $-1 1 0 0 0 1 0 0 0 1 46.473586230048525 21.329173452576821 9.8822935454873981 1 rotate no_reflect no_shear #
lump $-1 $-1 $27 $3 #
transform $-1 1 0 0 0 1 0 0 0 1 46.473586230048525 21.329173452576821 9.8822935454873981 1 rotate no_reflect no_shear #
lump $-1 $-1 $28 $4 #
transform $-1 1 0 0 0 1 0 0 0 1 46.473586230048525 21.329173452576821 9.8822935454873981 1 rotate no_reflect no_shear #
lump $-1 $-1 $29 $5 #
transform $-1 1 0 0 0 1 0 0 0 1 46.473586230048525 21.329173452576821 9.8822935454873981 1 rotate no_reflect no_shear #
lump $-1 $-1 $30 $6 #
transform $-1 1 0 0 0 1 0 0 0 1 46.473586230048525 21.329173452576821 9.8822935454873981 1 rotate no_reflect no_shear #
lump $-1 $-1 $31 $7 #
transform $-1 1 0 0 0 1 0 0 0 1 46.473586230048525 21.329173452576821 9.8822935454873981 1 rotate no_reflect no_shear #
shell $-1 $-1 $-1 $32 $-1 $8 #
shell $-1 $-1 $-1 $33 $-1 $10 #
shell $-1 $-1 $-1 $34 $-1 $12 #
shell $-1 $-1 $-1 $35 $-1 $14 #
shell $-1 $-1 $-1 $36 $-1 $16 #
shell $-1 $-1 $-1 $37 $-1 $18 #
shell $-1 $-1 $-1 $38 $-1 $20 #
shell $-1 $-1 $-1 $39 $-1 $22 #
face $-1 $40 $41 $24 $-1 $42 forward single #
face $-1 $43 $44 $25 $-1 $45 reversed single #
face $-1 $46 $47 $26 $-1 $48 reversed single #
face $-1 $49 $50 $27 $-1 $51 forward single #
face $-1 $52 $53 $28 $-1 $54 forward single #
face $-1 $55 $56 $29 $-1 $57 reversed single #
face $-1 $58 $59 $30 $-1 $60 forward single #
face $-1 $61 $62 $31 $-1 $63 forward single #
face $-1 $64 $65 $24 $-1 $66 reversed single #
loop $-1 $-1 $67 $32 #
plane-surface $-1 0 0 9.8822935454873981 0 0 1 1 0 0 forward_v I I I I #
face $-1 $68 $69 $25 $-1 $70 reversed single #
loop $-1 $-1 $71 $33 #
plane-surface $-1 -40.225645880173971 -15.844514106510429 0 1 0 0 0 0 -1 forward_v I I I I #
face $-1 $72 $73 $26 $-1 $74 reversed single #
loop $-1 $-1 $75 $34 #
plane-surface $-1 -39.9236349239359 51.821642611259918 103.76626864599218 1 0 0 0 -0.66913061440640931 -0.74314481823134659 forward_v I I I I #
face $-1 $76 $77 $27 $-1 $78 forward single #
loop $-1 $79 $80 $35 #
cone-surface $-1 -33.82954484306876 18.559393190109773 7.2419223313134422 0 -0.66913061440640931 -0.74314481823134659 1 0 0 1 I I 0 1 1 forward I I I I #
face $-1 $81 $82 $28 $-1 $83 forward single #
loop $-1 $84 $85 $36 #
cone-surface $-1 -24.688409721768046 18.559393190109773 7.2419223313134422 0 -0.66913061440640931 -0.74314481823134659 1 0 0 1 I I 0 1 1 forward I I I I #
face $-1 $86 $87 $29 $-1 $88 reversed single #
loop $-1 $-1 $89 $37 #
plane-surface $-1 18.594319640900899 51.821642611259918 103.76626864599218 1 0 0 0 -0.66913061440640931 -0.74314481823134659 forward_v I I I I #
face $-1 $90 $91 $30 $-1 $92 forward single #
loop $-1 $93 $94 $38 #
cone-surface $-1 24.688409721768039 18.559393190109773 7.2419223313134422 0 -0.66913061440640931 -0.74314481823134659 1 0 0 1 I I 0 1 1 forward I I I I #
face $-1 $95 $96 $31 $-1 $97 forward single #
loop $-1 $98 $99 $39 #
cone-surface $-1 33.829544843068746 18.559393190109773 7.2419223313134422 0 -0.66913061440640931 -0.74314481823134659 1 0 0 1 I I 0 1 1 forward I I I I #
face $-1 $100 $101 $24 $-1 $102 reversed single #
loop $-1 $-1 $103 $40 #
plane-surface $-1 0 0 -9.8822935454873981 0 0 1 1 0 0 forward_v I I I I #
coedge $-1 $104 $105 $106 $107 forward $41 $-1 #
face $-1 $108 $109 $25 $-1 $110 reversed single #
loop $-1 $-1 $111 $43 #
plane-surface $-1 -37.476174487997824 -10.359854760444037 0 0 -1 0 0 0 -1 forward_v I I I I #
coedge $-1 $112 $113 $114 $115 forward $44 $-1 #
face $-1 $116 $117 $26 $-1 $118 reversed single #
loop $-1 $-1 $119 $46 #
plane-surface $-1 -29.2589772824184 -10.372156004303307 34.693059063015738 0 0.66913061440640931 0.74314481823134659 1 0 0 forward_v I I I I #
coedge $-1 $120 $121 $122 $123 reversed $47 $-1 #
face $-1 $-1 $124 $27 $-1 $125 forward single #
loop $-1 $126 $127 $49 #
cone-surface $-1 -33.82954484306876 17.528139305789463 6.0965988863632479 0 -0.66913061440640931 -0.74314481823134659 0.5 0 0 1 I I -0.70710678118654746 0.70710678118654746 0.5 forward I I I I #
loop $-1 $-1 $128 $35 #
coedge $-1 $80 $80 $129 $130 reversed $50 $-1 #
face $-1 $-1 $131 $28 $-1 $132 forward single #
loop $-1 $133 $134 $52 #
cone-surface $-1 -24.688409721768046 17.528139305789463 6.0965988863632479 0 -0.66913061440640931 -0.74314481823134659 0.5 0 0 1 I I -0.70710678118654746 0.70710678118654746 0.5 forward I I I I #
loop $-1 $-1 $135 $36 #
coedge $-1 $85 $85 $136 $137 reversed $53 $-1 #
face $-1 $138 $139 $29 $-1 $140 reversed single #
loop $-1 $-1 $141 $55 #
plane-surface $-1 29.2589772824184 -10.372156004303307 34.693059063015738 0 0.66913061440640931 0.74314481823134659 1 0 0 forward_v I I I I #
coedge $-1 $142 $143 $144 $145 reversed $56 $-1 #
face $-1 $-1 $146 $30 $-1 $147 forward single #
loop $-1 $148 $149 $58 #
cone-surface $-1 24.688409721768039 17.528139305789463 6.0965988863632479 0 -0.66913061440640931 -0.74314481823134659 0.5 0 0 1 I I -0.70710678118654746 0.70710678118654746 0.5 forward I I I I #
loop $-1 $-1 $150 $38 #
coedge $-1 $94 $94 $151 $152 reversed $59 $-1 #
face $-1 $-1 $153 $31 $-1 $154 forward single #
loop $-1 $155 $156 $61 #
cone-surface $-1 33.829544843068746 17.528139305789463 6.0965988863632479 0 -0.66913061440640931 -0.74314481823134659 0.5 0 0 1 I I -0.70710678118654746 0.70710678118654746 0.5 forward I I I I #
loop $-1 $-1 $157 $39 #
coedge $-1 $99 $99 $158 $159 reversed $62 $-1 #
face $-1 $160 $161 $24 $-1 $162 reversed single #
loop $-1 $-1 $163 $64 #
plane-surface $-1 0 -21.329173452576821 0 0 1 0 0 0 1 forward_v I I I I #
coedge $-1 $164 $165 $166 $167 forward $65 $-1 #
coedge $-1 $168 $67 $169 $170 forward $41 $-1 #
coedge $-1 $67 $168 $171 $172 forward $41 $-1 #
coedge $-1 $173 $174 $67 $107 reversed $175 $-1 #
edge $-1 $176 -21.329173452576821 $177 21.329173452576821 $106 $178 forward 7 unknown #
face $-1 $179 $180 $25 $-1 $181 forward single #
loop $-1 $-1 $182 $68 #
plane-surface $-1 -34.726703095821676 -15.844514106510429 0 -1 0 0 0 0 1 forward_v I I I I #
coedge $-1 $183 $184 $185 $186 forward $69 $-1 #
coedge $-1 $187 $71 $188 $189 reversed $44 $-1 #
coedge $-1 $71 $187 $190 $191 reversed $44 $-1 #
coedge $-1 $184 $183 $71 $115 reversed $69 $-1 #
edge $-1 $192 -9.8822935454873981 $193 9.8822935454873981 $114 $194 forward 7 unknown #
face $-1 $195 $196 $26 $-1 $197 reversed single #
loop $-1 $-1 $198 $72 #
plane-surface $-1 -18.594319640900899 51.821642611259918 103.76626864599218 -1 0 0 0 0.66913061440640931 0.74314481823134659 forward_v I I I I #
coedge $-1 $199 $200 $201 $202 reversed $73 $-1 #
coedge $-1 $121 $75 $203 $204 reversed $47 $-1 #
coedge $-1 $75 $120 $199 $205 reversed $47 $-1 #
coedge $-1 $201 $206 $75 $123 forward $207 $-1 #
edge $-1 $208 4.5816478530531377 $209 8.7278312237530074 $122 $210 forward 7 unknown #
loop $-1 $-1 $129 $76 #
plane-surface $-1 -29.2589772824184 -10.372156004303307 34.693059063015738 0 0.66913061440640931 0.74314481823134659 1 0 0 forward_v I I I I #
loop $-1 $-1 $211 $49 #
coedge $-1 $127 $127 $128 $212 reversed $77 $-1 #
coedge $-1 $128 $128 $127 $212 forward $79 $-1 #
coedge $-1 $129 $129 $80 $130 forward $124 $-1 #
edge $-1 $213 2.3772294867058339e-015 $213 6.2831853071796031 $129 $214 forward 7 unknown #
loop $-1 $-1 $136 $81 #
plane-surface $-1 -29.2589772824184 -10.372156004303307 34.693059063015738 0 0.66913061440640931 0.74314481823134659 1 0 0 forward_v I I I I #
loop $-1 $-1 $215 $52 #
coedge $-1 $134 $134 $135 $216 reversed $82 $-1 #
coedge $-1 $135 $135 $134 $216 forward $84 $-1 #
coedge $-1 $136 $136 $85 $137 forward $131 $-1 #
edge $-1 $217 2.3772294867058339e-015 $217 6.2831853071796031 $136 $218 forward 7 unknown #
face $-1 $219 $220 $29 $-1 $221 forward single #
loop $-1 $-1 $222 $86 #
plane-surface $-1 39.9236349239359 51.821642611259918 103.76626864599218 -1 0 0 0 0.66913061440640931 0.74314481823134659 forward_v I I I I #
coedge $-1 $223 $224 $225 $226 reversed $87 $-1 #
coedge $-1 $143 $89 $227 $228 reversed $56 $-1 #
coedge $-1 $89 $142 $223 $229 reversed $56 $-1 #
coedge $-1 $225 $230 $89 $145 forward $220 $-1 #
edge $-1 $231 4.5816478530531377 $232 8.7278312237530074 $144 $233 forward 7 unknown #
loop $-1 $-1 $151 $90 #
plane-surface $-1 29.2589772824184 -10.372156004303307 34.693059063015738 0 0.66913061440640931 0.74314481823134659 1 0 0 forward_v I I I I #
loop $-1 $-1 $234 $58 #
coedge $-1 $149 $149 $150 $235 reversed $91 $-1 #
coedge $-1 $150 $150 $149 $235 forward $93 $-1 #
coedge $-1 $151 $151 $94 $152 forward $146 $-1 #
edge $-1 $236 2.3772294867058339e-015 $236 6.2831853071796031 $151 $237 forward 7 unknown #
loop $-1 $-1 $158 $95 #
plane-surface $-1 29.2589772824184 -10.372156004303307 34.693059063015738 0 0.66913061440640931 0.74314481823134659 1 0 0 forward_v I I I I #
loop $-1 $-1 $238 $61 #
coedge $-1 $156 $156 $157 $239 reversed $96 $-1 #
coedge $-1 $157 $157 $156 $239 forward $98 $-1 #
coedge $-1 $158 $158 $99 $159 forward $153 $-1 #
edge $-1 $240 2.3772294867058339e-015 $240 6.2831853071796031 $158 $241 forward 7 unknown #
face $-1 $242 $243 $24 $-1 $244 reversed single #
loop $-1 $-1 $245 $100 #
plane-surface $-1 -46.473586230048525 0 0 1 0 0 0 0 -1 forward_v I I I I #
coedge $-1 $246 $171 $247 $248 forward $101 $-1 #
coedge $-1 $249 $103 $246 $250 forward $65 $-1 #
coedge $-1 $103 $249 $251 $252 forward $65 $-1 #
coedge $-1 $174 $173 $103 $167 reversed $175 $-1 #
edge $-1 $253 -21.329173452576821 $254 21.329173452576821 $166 $255 forward 7 unknown #
coedge $-1 $105 $104 $256 $257 forward $41 $-1 #
coedge $-1 $258 $259 $104 $170 reversed $243 $-1 #
edge $-1 $177 -46.473586230048525 $260 46.473586230048525 $169 $261 forward 7 unknown #
coedge $-1 $163 $262 $105 $172 reversed $101 $-1 #
edge $-1 $263 -46.473586230048525 $176 46.473586230048525 $171 $264 forward 7 unknown #
coedge $-1 $166 $106 $262 $265 forward $175 $-1 #
coedge $-1 $106 $166 $258 $266 reversed $175 $-1 #
loop $-1 $-1 $173 $242 #
vertex $-1 $107 $267 #
vertex $-1 $107 $268 #
straight-curve $-1 46.473586230048525 0 9.8822935454873981 0 1 0 I I #
face $-1 $269 $270 $25 $-1 $271 reversed single #
loop $-1 $-1 $272 $108 #
plane-surface $-1 0 0 9.8822935454873981 0 0 1 1 0 0 forward_v I I I I #
coedge $-1 $273 $274 $275 $276 reversed $109 $-1 #
coedge $-1 $114 $111 $277 $278 reversed $69 $-1 #
coedge $-1 $111 $114 $279 $280 reversed $69 $-1 #
coedge $-1 $274 $273 $111 $186 reversed $109 $-1 #
edge $-1 $281 -9.8822935454873981 $282 9.8822935454873981 $185 $283 forward 7 unknown #
coedge $-1 $113 $112 $284 $285 reversed $44 $-1 #
coedge $-1 $277 $286 $112 $189 forward $270 $-1 #
edge $-1 $287 -13.406916399321606 $193 -2.4375977071888224 $188 $288 forward 7 unknown #
coedge $-1 $289 $279 $113 $191 forward $180 $-1 #
edge $-1 $192 2.4375977071888224 $290 13.406916399321606 $190 $291 forward 7 unknown #
vertex $-1 $191 $292 #
vertex $-1 $189 $293 #
straight-curve $-1 -40.225645880173971 -10.359854760444037 0 0 0 -1 I I #
face $-1 $-1 $207 $26 $-1 $294 forward single #
loop $-1 $-1 $295 $116 #
plane-surface $-1 0 21.329173452576821 0 0 -1 0 0 0 -1 forward_v I I I I #
coedge $-1 $296 $297 $298 $299 reversed $117 $-1 #
coedge $-1 $300 $119 $121 $205 forward $73 $-1 #
coedge $-1 $119 $300 $296 $301 forward $73 $-1 #
coedge $-1 $298 $122 $119 $202 forward $207 $-1 #
edge $-1 $209 -25.2941462827267 $302 -3.9648309996916993 $201 $303 forward 7 unknown #
coedge $-1 $304 $305 $120 $204 forward $196 $-1 #
edge $-1 $306 -45.734081134187562 $208 -42.000840777508692 $203 $307 forward 7 unknown #
edge $-1 $209 37.07910680418972 $306 42.658346905153643 $121 $308 forward 7 unknown #
coedge $-1 $122 $298 $304 $309 forward $207 $-1 #
loop $-1 $-1 $298 $195 #
vertex $-1 $204 $310 #
vertex $-1 $123 $311 #
straight-curve $-1 -39.9236349239359 25.910821305629959 9.8822935454873999 0 -1 0 I I #
coedge $-1 $211 $211 $-1 $312 reversed $126 $-1 #
edge $-1 $313 0 $313 6.2831853071796004 $127 $314 forward 7 unknown #
vertex $-1 $130 $315 #
ellipse-curve $-1 -33.82954484306876 19.256081767226885 8.0156733671479667 0 0.66913061440640931 0.74314481823134659 1 0 0 1 I I #
coedge $-1 $215 $215 $-1 $316 reversed $133 $-1 #
edge $-1 $317 0 $317 6.2831853071796004 $134 $318 forward 7 unknown #
vertex $-1 $137 $319 #
ellipse-curve $-1 -24.688409721768046 19.256081767226885 8.0156733671479667 0 0.66913061440640931 0.74314481823134659 1 0 0 1 I I #
face $-1 $-1 $320 $29 $-1 $321 reversed single #
loop $-1 $-1 $144 $138 #
plane-surface $-1 0 0 9.8822935454873981 0 0 1 1 0 0 forward_v I I I I #
coedge $-1 $322 $323 $324 $325 reversed $139 $-1 #
coedge $-1 $326 $141 $143 $229 forward $87 $-1 #
coedge $-1 $141 $326 $322 $327 forward $87 $-1 #
coedge $-1 $324 $144 $141 $226 forward $220 $-1 #
edge $-1 $232 3.9648309996916993 $328 25.2941462827267 $225 $329 forward 7 unknown #
coedge $-1 $330 $331 $142 $228 forward $320 $-1 #
edge $-1 $332 -45.734081134187562 $231 -42.000840777508692 $227 $333 forward 7 unknown #
edge $-1 $232 37.07910680418972 $332 42.658346905153643 $143 $334 forward 7 unknown #
coedge $-1 $144 $324 $330 $335 forward $220 $-1 #
vertex $-1 $228 $336 #
vertex $-1 $145 $337 #
straight-curve $-1 18.594319640900899 25.910821305629959 9.8822935454873999 0 -1 0 I I #
coedge $-1 $234 $234 $-1 $338 reversed $148 $-1 #
edge $-1 $339 0 $339 6.2831853071796004 $149 $340 forward 7 unknown #
vertex $-1 $152 $341 #
ellipse-curve $-1 24.688409721768039 19.256081767226885 8.0156733671479667 0 0.66913061440640931 0.74314481823134659 1 0 0 1 I I #
coedge $-1 $238 $238 $-1 $342 reversed $155 $-1 #
edge $-1 $343 0 $343 6.2831853071796004 $156 $344 forward 7 unknown #
vertex $-1 $159 $345 #
ellipse-curve $-1 33.829544843068746 19.256081767226885 8.0156733671479667 0 0.66913061440640931 0.74314481823134659 1 0 0 1 I I #
face $-1 $-1 $175 $24 $-1 $346 reversed single #
loop $-1 $-1 $258 $160 #
plane-surface $-1 0 21.329173452576821 0 0 -1 0 0 0 -1 forward_v I I I I #
coedge $-1 $347 $256 $259 $348 forward $161 $-1 #
coedge $-1 $262 $163 $164 $250 reversed $101 $-1 #
coedge $-1 $256 $347 $163 $248 reversed $161 $-1 #
edge $-1 $263 -9.8822935454873981 $349 9.8822935454873981 $247 $350 forward 7 unknown #
coedge $-1 $165 $164 $347 $351 forward $65 $-1 #
edge $-1 $254 -46.473586230048525 $349 46.473586230048525 $246 $352 forward 7 unknown #
coedge $-1 $259 $258 $165 $252 reversed $243 $-1 #
edge $-1 $353 -46.473586230048525 $253 46.473586230048525 $251 $354 forward 7 unknown #
vertex $-1 $167 $355 #
vertex $-1 $265 $356 #
straight-curve $-1 46.473586230048525 0 -9.8822935454873981 0 -1 0 I I #
coedge $-1 $245 $247 $168 $257 reversed $161 $-1 #
edge $-1 $260 -21.329173452576821 $263 21.329173452576821 $256 $357 forward 7 unknown #
coedge $-1 $251 $169 $174 $266 forward $243 $-1 #
coedge $-1 $169 $251 $245 $348 reversed $243 $-1 #
vertex $-1 $170 $358 #
straight-curve $-1 0 21.329173452576821 9.8822935454873981 -1 0 0 I I #
coedge $-1 $171 $246 $173 $265 reversed $101 $-1 #
vertex $-1 $257 $359 #
straight-curve $-1 0 -21.329173452576821 9.8822935454873981 1 0 0 I I #
edge $-1 $176 -9.8822935454873981 $254 9.8822935454873981 $173 $360 forward 7 unknown #
edge $-1 $177 -9.8822935454873981 $253 9.8822935454873981 $174 $361 forward 7 unknown #
point $-1 46.473586230048525 -21.329173452576821 9.8822935454873981 #
point $-1 46.473586230048525 21.329173452576821 9.8822935454873981 #
face $-1 $-1 $362 $25 $-1 $363 reversed single #
loop $-1 $-1 $364 $179 #
plane-surface $-1 0 0 -9.8822935454873981 0 0 1 1 0 0 forward_v I I I I #
coedge $-1 $279 $289 $274 $365 forward $180 $-1 #
coedge $-1 $185 $182 $364 $366 reversed $109 $-1 #
coedge $-1 $182 $185 $272 $365 reversed $109 $-1 #
coedge $-1 $367 $368 $182 $276 forward $362 $-1 #
edge $-1 $369 -9.8822935454873981 $370 9.8822935454873981 $275 $371 forward 7 unknown #
coedge $-1 $364 $188 $183 $278 forward $270 $-1 #
edge $-1 $193 -21.487558636175059 $282 -15.988615851822765 $277 $372 forward 7 unknown #
coedge $-1 $190 $272 $184 $280 forward $180 $-1 #
edge $-1 $281 15.988615851822765 $192 21.487558636175059 $279 $373 forward 7 unknown #
vertex $-1 $280 $374 #
vertex $-1 $278 $375 #
straight-curve $-1 -34.726703095821676 -10.359854760444037 0 0 0 -1 I I #
coedge $-1 $368 $367 $187 $285 forward $362 $-1 #
edge $-1 $290 -9.8822935454873981 $287 9.8822935454873981 $284 $376 forward 7 unknown #
coedge $-1 $188 $364 $368 $377 forward $270 $-1 #
vertex $-1 $189 $378 #
straight-curve $-1 -40.225645880173971 -7.9222570532552146 -9.8822935454873981 0 1 0 I I #
coedge $-1 $272 $190 $367 $379 forward $180 $-1 #
vertex $-1 $379 $380 #
straight-curve $-1 -40.225645880173971 -7.9222570532552146 9.8822935454873981 0 -1 0 I I #
point $-1 -40.225645880173971 -10.359854760444037 9.8822935454873981 #
point $-1 -40.225645880173971 -10.359854760444037 -9.8822935454873981 #
plane-surface $-1 0 0 9.8822935454873981 0 0 1 1 0 0 forward_v I I I I #
coedge $-1 $305 $304 $297 $381 forward $196 $-1 #
coedge $-1 $297 $198 $200 $301 reversed $117 $-1 #
coedge $-1 $198 $296 $295 $381 reversed $117 $-1 #
coedge $-1 $206 $201 $198 $299 forward $207 $-1 #
edge $-1 $302 -8.7278312237530074 $382 -4.5816478530531377 $298 $383 forward 7 unknown #
coedge $-1 $200 $199 $305 $384 reversed $73 $-1 #
edge $-1 $385 -42.658346905153643 $302 -37.07910680418972 $296 $386 forward 7 unknown #
vertex $-1 $202 $387 #
straight-curve $-1 -14.6294886412092 17.182990081876959 9.8822935454873928 1 0 0 I I #
coedge $-1 $295 $203 $206 $309 reversed $196 $-1 #
coedge $-1 $203 $295 $300 $384 forward $196 $-1 #
vertex $-1 $204 $388 #
straight-curve $-1 -39.9236349239359 21.329173452576821 51.883134322996092 0 0 1 I I #
straight-curve $-1 -39.9236349239359 -10.372156004303307 34.693059063015738 0 0.74314481823134659 -0.66913061440640931 I I #
edge $-1 $382 18.594319640900899 $208 39.9236349239359 $304 $389 forward 7 unknown #
point $-1 -39.9236349239359 21.329173452576821 9.8822935454873981 #
point $-1 -39.9236349239359 17.182990081876952 9.8822935454873999 #
edge $-1 $390 1 $390 0 $211 $-1 forward 7 unknown #
vertex $-1 $212 $391 #
ellipse-curve $-1 -33.82954484306876 17.862704612992665 6.4681712954789212 0 0.66913061440640931 0.74314481823134659 1 0 0 1 I I #
point $-1 -32.82954484306876 19.256081767226885 8.0156733671479632 #
edge $-1 $392 1 $392 0 $215 $-1 forward 7 unknown #
vertex $-1 $216 $393 #
ellipse-curve $-1 -24.688409721768046 17.862704612992665 6.4681712954789212 0 0.66913061440640931 0.74314481823134659 1 0 0 1 I I #
point $-1 -23.688409721768046 19.256081767226885 8.0156733671479632 #
loop $-1 $-1 $227 $219 #
plane-surface $-1 0 21.329173452576821 0 0 -1 0 0 0 -1 forward_v I I I I #
coedge $-1 $323 $222 $224 $327 reversed $139 $-1 #
coedge $-1 $222 $322 $394 $395 reversed $139 $-1 #
coedge $-1 $230 $225 $222 $325 forward $220 $-1 #
edge $-1 $328 -8.7278312237530074 $396 -4.5816478530531377 $324 $397 forward 7 unknown #
coedge $-1 $224 $223 $331 $398 reversed $87 $-1 #
edge $-1 $399 -42.658346905153643 $328 -37.07910680418972 $322 $400 forward 7 unknown #
vertex $-1 $226 $401 #
straight-curve $-1 14.6294886412092 17.182990081876959 9.8822935454873928 1 0 0 I I #
coedge $-1 $394 $227 $230 $335 reversed $320 $-1 #
coedge $-1 $227 $394 $326 $398 forward $320 $-1 #
vertex $-1 $228 $402 #
straight-curve $-1 18.594319640900899 21.329173452576821 51.883134322996092 0 0 1 I I #
straight-curve $-1 18.594319640900899 -10.372156004303307 34.693059063015738 0 0.74314481823134659 -0.66913061440640931 I I #
edge $-1 $396 -39.9236349239359 $231 -18.594319640900899 $330 $403 forward 7 unknown #
point $-1 18.594319640900899 21.329173452576821 9.8822935454873981 #
point $-1 18.594319640900899 17.182990081876952 9.8822935454873999 #
edge $-1 $404 1 $404 0 $234 $-1 forward 7 unknown #
vertex $-1 $235 $405 #
ellipse-curve $-1 24.688409721768039 17.862704612992665 6.4681712954789212 0 0.66913061440640931 0.74314481823134659 1 0 0 1 I I #
point $-1 25.688409721768039 19.256081767226885 8.0156733671479632 #
edge $-1 $406 1 $406 0 $238 $-1 forward 7 unknown #
vertex $-1 $239 $407 #
ellipse-curve $-1 33.829544843068746 17.862704612992665 6.4681712954789212 0 0.66913061440640931 0.74314481823134659 1 0 0 1 I I #
point $-1 34.829544843068746 19.256081767226885 8.0156733671479632 #
plane-surface $-1 46.473586230048525 0 0 -1 0 0 0 0 1 forward_v I I I I #
coedge $-1 $247 $245 $249 $351 reversed $161 $-1 #
edge $-1 $260 -9.8822935454873981 $353 9.8822935454873981 $259 $408 forward 7 unknown #
vertex $-1 $351 $409 #
straight-curve $-1 -46.473586230048525 -21.329173452576821 0 0 0 -1 I I #
edge $-1 $349 -21.329173452576821 $353 21.329173452576821 $347 $410 forward 7 unknown #
straight-curve $-1 0 -21.329173452576821 -9.8822935454873981 -1 0 0 I I #
vertex $-1 $252 $411 #
straight-curve $-1 0 21.329173452576821 -9.8822935454873981 1 0 0 I I #
point $-1 46.473586230048525 21.329173452576821 -9.8822935454873981 #
point $-1 46.473586230048525 -21.329173452576821 -9.8822935454873981 #
straight-curve $-1 -46.473586230048525 0 9.8822935454873981 0 -1 0 I I #
point $-1 -46.473586230048525 21.329173452576821 9.8822935454873981 #
point $-1 -46.473586230048525 -21.329173452576821 9.8822935454873981 #
straight-curve $-1 46.473586230048525 -21.329173452576821 0 0 0 -1 I I #
straight-curve $-1 46.473586230048525 21.329173452576821 0 0 0 -1 I I #
loop $-1 $-1 $275 $269 #
plane-surface $-1 0 -21.329173452576821 0 0 1 0 0 0 1 forward_v I I I I #
coedge $-1 $286 $277 $273 $366 forward $270 $-1 #
edge $-1 $370 -13.406916399321606 $281 -2.4375977071888224 $272 $412 forward 7 unknown #
edge $-1 $282 2.4375977071888224 $369 13.406916399321606 $364 $413 forward 7 unknown #
coedge $-1 $284 $275 $289 $379 reversed $362 $-1 #
coedge $-1 $275 $284 $286 $377 reversed $362 $-1 #
vertex $-1 $377 $414 #
vertex $-1 $276 $415 #
straight-curve $-1 -34.726703095821676 -21.329173452576821 0 0 0 1 I I #
straight-curve $-1 -18.738087243998912 -10.359854760444037 -9.8822935454873981 1 0 0 I I #
straight-curve $-1 -18.738087243998912 -10.359854760444037 9.8822935454873981 -1 0 0 I I #
point $-1 -34.726703095821676 -10.359854760444037 9.8822935454873981 #
point $-1 -34.726703095821676 -10.359854760444037 -9.8822935454873981 #
straight-curve $-1 -40.225645880173971 -21.329173452576821 0 0 0 -1 I I #
edge $-1 $369 34.726703095821676 $287 40.225645880173971 $368 $416 forward 7 unknown #
point $-1 -40.225645880173971 -21.329173452576821 -9.8822935454873981 #
edge $-1 $290 -40.225645880173971 $370 -34.726703095821676 $367 $417 forward 7 unknown #
point $-1 -40.225645880173971 -21.329173452576821 9.8822935454873981 #
edge $-1 $382 42.000840777508692 $385 45.734081134187562 $295 $418 forward 7 unknown #
vertex $-1 $309 $419 #
straight-curve $-1 -18.594319640900899 25.910821305629959 9.8822935454873999 0 1 0 I I #
edge $-1 $385 3.9648309996916993 $306 25.2941462827267 $305 $420 forward 7 unknown #
vertex $-1 $384 $421 #
straight-curve $-1 -18.594319640900899 -10.372156004303307 34.693059063015738 0 -0.74314481823134659 0.66913061440640931 I I #
point $-1 -18.594319640900899 17.182990081876952 9.8822935454873999 #
point $-1 -39.9236349239359 21.329173452576825 6.1490531888085336 #
straight-curve $-1 0 21.329173452576821 9.8822935454873981 -1 0 0 I I #
vertex $-1 $312 $422 #
point $-1 -32.82954484306876 17.862704612992665 6.4681712954789212 #
vertex $-1 $316 $423 #
point $-1 -23.688409721768046 17.862704612992665 6.4681712954789212 #
coedge $-1 $331 $330 $323 $395 forward $320 $-1 #
edge $-1 $396 42.000840777508692 $399 45.734081134187562 $394 $424 forward 7 unknown #
vertex $-1 $335 $425 #
straight-curve $-1 39.9236349239359 25.910821305629959 9.8822935454873999 0 1 0 I I #
edge $-1 $399 -25.2941462827267 $332 -3.9648309996916993 $331 $426 forward 7 unknown #
vertex $-1 $398 $427 #
straight-curve $-1 39.9236349239359 -10.372156004303307 34.693059063015738 0 -0.74314481823134659 0.66913061440640931 I I #
point $-1 39.9236349239359 17.182990081876952 9.8822935454873999 #
point $-1 18.594319640900899 21.329173452576825 6.1490531888085336 #
straight-curve $-1 0 21.329173452576821 9.8822935454873981 -1 0 0 I I #
vertex $-1 $338 $428 #
point $-1 25.688409721768039 17.862704612992665 6.4681712954789212 #
vertex $-1 $342 $429 #
point $-1 34.829544843068746 17.862704612992665 6.4681712954789212 #
straight-curve $-1 -46.473586230048525 21.329173452576821 0 0 0 -1 I I #
point $-1 -46.473586230048525 -21.329173452576821 -9.8822935454873981 #
straight-curve $-1 -46.473586230048525 0 -9.8822935454873981 0 1 0 I I #
point $-1 -46.473586230048525 21.329173452576821 -9.8822935454873981 #
straight-curve $-1 -34.726703095821676 -7.9222570532552146 9.8822935454873981 0 1 0 I I #
straight-curve $-1 -34.726703095821676 -7.9222570532552146 -9.8822935454873981 0 -1 0 I I #
point $-1 -34.726703095821676 -21.329173452576821 -9.8822935454873981 #
point $-1 -34.726703095821676 -21.329173452576821 9.8822935454873981 #
straight-curve $-1 0 -21.329173452576821 -9.8822935454873981 -1 0 0 I I #
straight-curve $-1 0 -21.329173452576821 9.8822935454873981 1 0 0 I I #
straight-curve $-1 -18.594319640900899 21.329173452576821 51.883134322996092 0 0 -1 I I #
point $-1 -18.594319640900899 21.329173452576821 9.8822935454873981 #
straight-curve $-1 -14.6294886412092 21.329173452576818 6.1490531888085354 -1 0 0 I I #
point $-1 -18.594319640900899 21.329173452576825 6.1490531888085336 #
point $-1 -33.82954484306876 17.19357399858626 5.7250264772475745 #
point $-1 -24.688409721768046 17.19357399858626 5.7250264772475745 #
straight-curve $-1 39.9236349239359 21.329173452576821 51.883134322996092 0 0 -1 I I #
point $-1 39.9236349239359 21.329173452576821 9.8822935454873981 #
straight-curve $-1 14.6294886412092 21.329173452576818 6.1490531888085354 -1 0 0 I I #
point $-1 39.9236349239359 21.329173452576825 6.1490531888085336 #
point $-1 24.688409721768039 17.19357399858626 5.7250264772475745 #
point $-1 33.829544843068746 17.19357399858626 5.7250264772475745 #
End-of-ACIS-data 