500 0 11 0           
7 Unknown 11 ACIS 5.0 NT 24 Thu Mar 25 17:08:15 1999 
-1 9.9999999999999995e-007 1e-010 
body $-1 $11 $-1 $12 #
body $-1 $13 $-1 $14 #
body $-1 $15 $-1 $16 #
body $-1 $17 $-1 $18 #
body $-1 $19 $-1 $20 #
body $-1 $21 $-1 $22 #
body $-1 $23 $-1 $24 #
body $-1 $25 $-1 $26 #
body $-1 $27 $-1 $28 #
body $-1 $29 $-1 $30 #
body $-1 $31 $-1 $32 #
lump $-1 $-1 $33 $0 #
transform $-1 1 0 0 0 1 0 0 0 1 69.808038575395983 36.83078676984735 17.470204365643159 1 rotate no_reflect no_shear #
lump $-1 $-1 $34 $1 #
transform $-1 1 0 0 0 1 0 0 0 1 69.808038575395983 36.83078676984735 17.470204365643159 1 rotate no_reflect no_shear #
lump $-1 $-1 $35 $2 #
transform $-1 1 0 0 0 1 0 0 0 1 69.808038575395983 36.83078676984735 17.470204365643159 1 rotate no_reflect no_shear #
lump $-1 $-1 $36 $3 #
transform $-1 1 0 0 0 1 0 0 0 1 69.808038575395983 36.83078676984735 17.470204365643159 1 rotate no_reflect no_shear #
lump $-1 $-1 $37 $4 #
transform $-1 1 0 0 0 1 0 0 0 1 69.808038575395983 36.83078676984735 17.470204365643159 1 rotate no_reflect no_shear #
lump $-1 $-1 $38 $5 #
transform $-1 1 0 0 0 1 0 0 0 1 69.808038575395983 36.83078676984735 17.470204365643159 1 rotate no_reflect no_shear #
lump $-1 $-1 $39 $6 #
transform $-1 1 0 0 0 1 0 0 0 1 69.808038575395983 36.83078676984735 17.470204365643159 1 rotate no_reflect no_shear #
lump $-1 $-1 $40 $7 #
transform $-1 1 0 0 0 1 0 0 0 1 69.808038575395983 36.83078676984735 17.470204365643159 1 rotate no_reflect no_shear #
lump $-1 $-1 $41 $8 #
transform $-1 1 0 0 0 1 0 0 0 1 69.808038575395983 36.83078676984735 17.470204365643159 1 rotate no_reflect no_shear #
lump $-1 $-1 $42 $9 #
transform $-1 1 0 0 0 1 0 0 0 1 69.808038575395983 36.83078676984735 17.470204365643159 1 rotate no_reflect no_shear #
lump $-1 $-1 $43 $10 #
transform $-1 1 0 0 0 1 0 0 0 1 69.808038575395983 36.83078676984735 17.470204365643159 1 rotate no_reflect no_shear #
shell $-1 $-1 $-1 $44 $-1 $11 #
shell $-1 $-1 $-1 $45 $-1 $13 #
shell $-1 $-1 $-1 $46 $-1 $15 #
shell $-1 $-1 $-1 $47 $-1 $17 #
shell $-1 $-1 $-1 $48 $-1 $19 #
shell $-1 $-1 $-1 $49 $-1 $21 #
shell $-1 $-1 $-1 $50 $-1 $23 #
shell $-1 $-1 $-1 $51 $-1 $25 #
shell $-1 $-1 $-1 $52 $-1 $27 #
shell $-1 $-1 $-1 $53 $-1 $29 #
shell $-1 $-1 $-1 $54 $-1 $31 #
face $-1 $55 $56 $33 $-1 $57 forward single #
face $-1 $58 $59 $34 $-1 $60 reversed single #
face $-1 $61 $62 $35 $-1 $63 forward single #
face $-1 $64 $65 $36 $-1 $66 reversed single #
face $-1 $67 $68 $37 $-1 $69 forward single #
face $-1 $70 $71 $38 $-1 $72 forward single #
face $-1 $73 $74 $39 $-1 $75 forward single #
face $-1 $76 $77 $40 $-1 $78 reversed single #
face $-1 $79 $80 $41 $-1 $81 forward single #
face $-1 $82 $83 $42 $-1 $84 forward single #
face $-1 $85 $86 $43 $-1 $87 forward single #
face $-1 $88 $89 $33 $-1 $90 reversed single #
loop $-1 $-1 $91 $44 #
plane-surface $-1 0 0 17.470204365643159 0 0 1 1 0 0 forward_v I I I I #
face $-1 $92 $93 $34 $-1 $94 reversed single #
loop $-1 $-1 $95 $45 #
plane-surface $-1 49.052253309097722 -36.83078676984735 5.0263944239555514 0 -0.55919291073839883 0.82903756765294845 1 0 0 forward_v I I I I #
face $-1 $96 $97 $35 $-1 $98 forward single #
loop $-1 $99 $100 $46 #
cone-surface $-1 49.052253309097722 -23.511382583542328 5.1771368794612744 0 0.55919291073839883 -0.82903756765294845 5 0 0 1 I I 0 1 5 forward I I I I #
face $-1 $101 $102 $36 $-1 $103 reversed single #
loop $-1 $-1 $104 $47 #
plane-surface $-1 -54.933112395481061 106.48538125782122 143.33673266890898 -1 0 0 0 0.80901700255871778 0.5877852410284794 forward_v I I I I #
face $-1 $105 $106 $37 $-1 $107 forward single #
loop $-1 $108 $109 $48 #
cone-surface $-1 -66.833053339412999 30.312029930101577 9.0062519620190056 0 -0.80901700255871778 -0.5877852410284794 1 0 0 1 I I 0 1 1 forward I I I I #
face $-1 $110 $111 $38 $-1 $112 forward single #
loop $-1 $113 $114 $49 #
cone-surface $-1 -62.370575485438522 30.312029930101577 9.0062519620190056 0 -0.80901700255871778 -0.5877852410284794 1 0 0 1 I I 0 1 1 forward I I I I #
face $-1 $115 $116 $39 $-1 $117 forward single #
loop $-1 $118 $119 $50 #
cone-surface $-1 -57.908097631464045 30.312029930101577 9.0062519620190056 0 -0.80901700255871778 -0.5877852410284794 1 0 0 1 I I 0 1 1 forward I I I I #
face $-1 $120 $121 $40 $-1 $122 reversed single #
loop $-1 $-1 $123 $51 #
plane-surface $-1 14.874926179914922 106.48538125782122 143.33673266890898 -1 0 0 0 0.80901700255871778 0.5877852410284794 forward_v I I I I #
face $-1 $124 $125 $41 $-1 $126 forward single #
loop $-1 $127 $128 $52 #
cone-surface $-1 2.9749852359829845 30.312029930101577 9.0062519620190056 0 -0.80901700255871778 -0.5877852410284794 1 0 0 1 I I 0 1 1 forward I I I I #
face $-1 $129 $130 $42 $-1 $131 forward single #
loop $-1 $132 $133 $53 #
cone-surface $-1 7.4374630899574612 30.312029930101577 9.0062519620190056 0 -0.80901700255871778 -0.5877852410284794 1 0 0 1 I I 0 1 1 forward I I I I #
face $-1 $134 $135 $43 $-1 $136 forward single #
loop $-1 $137 $138 $54 #
cone-surface $-1 11.899940943931938 30.312029930101577 9.0062519620190056 0 -0.80901700255871778 -0.5877852410284794 1 0 0 1 I I 0 1 1 forward I I I I #
face $-1 $139 $140 $33 $-1 $141 reversed single #
loop $-1 $-1 $142 $55 #
plane-surface $-1 0 0 -17.470204365643159 0 0 1 1 0 0 forward_v I I I I #
coedge $-1 $143 $144 $145 $146 forward $56 $-1 #
face $-1 $147 $148 $34 $-1 $149 reversed single #
loop $-1 $-1 $150 $58 #
plane-surface $-1 28.296468042799454 -114.90310733767556 120.77336743029451 1 0 0 0 0.55919291073839883 -0.82903756765294845 forward_v I I I I #
coedge $-1 $151 $152 $153 $154 reversed $59 $-1 #
face $-1 $-1 $155 $35 $-1 $156 forward single #
loop $-1 $157 $158 $61 #
cone-surface $-1 49.052253309097722 -18.018349405530238 -2.9666195550091636 0 0.55919291073839883 -0.82903756765294845 2.5 0 0 1 I I -0.70710678118654746 0.70710678118654768 2.5 forward I I I I #
loop $-1 $-1 $159 $46 #
coedge $-1 $100 $100 $160 $161 reversed $62 $-1 #
face $-1 $162 $163 $36 $-1 $164 reversed single #
loop $-1 $-1 $165 $64 #
plane-surface $-1 -62.370575485438522 -6.4663989877191881 61.272463109379942 0 0.80901700255871778 0.5877852410284794 1 0 0 forward_v I I I I #
coedge $-1 $166 $167 $168 $169 reversed $65 $-1 #
face $-1 $-1 $170 $37 $-1 $171 forward single #
loop $-1 $172 $173 $67 #
cone-surface $-1 -66.833053339412999 29.125256033742744 8.1440102804333883 0 -0.80901700255871778 -0.5877852410284794 0.5 0 0 1 I I -0.70710678118654624 0.70710678118654879 0.5 forward I I I I #
loop $-1 $-1 $174 $48 #
coedge $-1 $109 $109 $175 $176 reversed $68 $-1 #
face $-1 $-1 $177 $38 $-1 $178 forward single #
loop $-1 $179 $180 $70 #
cone-surface $-1 -62.370575485438522 29.125256033742744 8.1440102804333883 0 -0.80901700255871778 -0.5877852410284794 0.5 0 0 1 I I -0.70710678118654624 0.70710678118654879 0.5 forward I I I I #
loop $-1 $-1 $181 $49 #
coedge $-1 $114 $114 $182 $183 reversed $71 $-1 #
face $-1 $-1 $184 $39 $-1 $185 forward single #
loop $-1 $186 $187 $73 #
cone-surface $-1 -57.908097631464045 29.125256033742744 8.1440102804333883 0 -0.80901700255871778 -0.5877852410284794 0.5 0 0 1 I I -0.70710678118654624 0.70710678118654879 0.5 forward I I I I #
loop $-1 $-1 $188 $50 #
coedge $-1 $119 $119 $189 $190 reversed $74 $-1 #
face $-1 $191 $192 $40 $-1 $193 reversed single #
loop $-1 $-1 $194 $76 #
plane-surface $-1 7.4374630899574612 -6.4663989877191881 61.272463109379942 0 0.80901700255871778 0.5877852410284794 1 0 0 forward_v I I I I #
coedge $-1 $195 $196 $197 $198 reversed $77 $-1 #
face $-1 $-1 $199 $41 $-1 $200 forward single #
loop $-1 $201 $202 $79 #
cone-surface $-1 2.9749852359829845 29.125256033742744 8.1440102804333883 0 -0.80901700255871778 -0.5877852410284794 0.5 0 0 1 I I -0.70710678118654624 0.70710678118654879 0.5 forward I I I I #
loop $-1 $-1 $203 $52 #
coedge $-1 $128 $128 $204 $205 reversed $80 $-1 #
face $-1 $-1 $206 $42 $-1 $207 forward single #
loop $-1 $208 $209 $82 #
cone-surface $-1 7.4374630899574612 29.125256033742744 8.1440102804333883 0 -0.80901700255871778 -0.5877852410284794 0.5 0 0 1 I I -0.70710678118654624 0.70710678118654879 0.5 forward I I I I #
loop $-1 $-1 $210 $53 #
coedge $-1 $133 $133 $211 $212 reversed $83 $-1 #
face $-1 $-1 $213 $43 $-1 $214 forward single #
loop $-1 $215 $216 $85 #
cone-surface $-1 11.899940943931938 29.125256033742744 8.1440102804333883 0 -0.80901700255871778 -0.5877852410284794 0.5 0 0 1 I I -0.70710678118654624 0.70710678118654879 0.5 forward I I I I #
loop $-1 $-1 $217 $54 #
coedge $-1 $138 $138 $218 $219 reversed $86 $-1 #
face $-1 $220 $221 $33 $-1 $222 reversed single #
loop $-1 $-1 $223 $88 #
plane-surface $-1 0 -36.83078676984735 0 0 1 0 0 0 1 forward_v I I I I #
coedge $-1 $224 $225 $226 $227 forward $89 $-1 #
coedge $-1 $228 $91 $229 $230 forward $56 $-1 #
coedge $-1 $91 $228 $231 $232 forward $56 $-1 #
coedge $-1 $233 $234 $91 $146 reversed $235 $-1 #
edge $-1 $236 -36.83078676984735 $237 36.83078676984735 $145 $238 forward 7 unknown #
face $-1 $239 $240 $34 $-1 $241 forward single #
loop $-1 $-1 $242 $92 #
plane-surface $-1 0 -36.83078676984735 0 0 1 0 0 0 1 forward_v I I I I #
coedge $-1 $243 $244 $245 $246 reversed $93 $-1 #
coedge $-1 $247 $95 $248 $249 reversed $59 $-1 #
coedge $-1 $95 $247 $243 $250 forward $59 $-1 #
coedge $-1 $245 $251 $95 $154 forward $240 $-1 #
edge $-1 $252 -45.281911920847122 $253 -3.7703413882505927 $153 $254 forward 7 unknown #
loop $-1 $-1 $160 $96 #
plane-surface $-1 49.052253309097722 -36.83078676984735 5.0263944239555514 0 -0.55919291073839883 0.82903756765294845 1 0 0 forward_v I I I I #
loop $-1 $-1 $255 $61 #
coedge $-1 $158 $158 $159 $256 reversed $97 $-1 #
coedge $-1 $159 $159 $158 $256 forward $99 $-1 #
coedge $-1 $160 $160 $100 $161 forward $155 $-1 #
edge $-1 $257 5.6135034315783296e-016 $257 6.2831853071796013 $160 $258 forward 7 unknown #
face $-1 $259 $260 $36 $-1 $261 forward single #
loop $-1 $-1 $262 $101 #
plane-surface $-1 -69.808038575395983 0 0 1 0 0 0 0 -1 forward_v I I I I #
coedge $-1 $263 $264 $265 $266 reversed $102 $-1 #
coedge $-1 $167 $104 $267 $268 reversed $65 $-1 #
coedge $-1 $104 $166 $263 $269 reversed $65 $-1 #
coedge $-1 $265 $270 $104 $169 forward $271 $-1 #
edge $-1 $272 54.198161968811334 $273 69.989368653916955 $168 $274 forward 7 unknown #
loop $-1 $-1 $175 $105 #
plane-surface $-1 -62.370575485438522 -6.4663989877191881 61.272463109379942 0 0.80901700255871778 0.5877852410284794 1 0 0 forward_v I I I I #
loop $-1 $-1 $275 $67 #
coedge $-1 $173 $173 $174 $276 reversed $106 $-1 #
coedge $-1 $174 $174 $173 $276 forward $108 $-1 #
coedge $-1 $175 $175 $109 $176 forward $170 $-1 #
edge $-1 $277 8.9772958544247343e-016 $277 6.2831853071796013 $175 $278 forward 7 unknown #
loop $-1 $-1 $182 $110 #
plane-surface $-1 -62.370575485438522 -6.4663989877191881 61.272463109379942 0 0.80901700255871778 0.5877852410284794 1 0 0 forward_v I I I I #
loop $-1 $-1 $279 $70 #
coedge $-1 $180 $180 $181 $280 reversed $111 $-1 #
coedge $-1 $181 $181 $180 $280 forward $113 $-1 #
coedge $-1 $182 $182 $114 $183 forward $177 $-1 #
edge $-1 $281 8.9772958544247343e-016 $281 6.2831853071796013 $182 $282 forward 7 unknown #
loop $-1 $-1 $189 $115 #
plane-surface $-1 -62.370575485438522 -6.4663989877191881 61.272463109379942 0 0.80901700255871778 0.5877852410284794 1 0 0 forward_v I I I I #
loop $-1 $-1 $283 $73 #
coedge $-1 $187 $187 $188 $284 reversed $116 $-1 #
coedge $-1 $188 $188 $187 $284 forward $118 $-1 #
coedge $-1 $189 $189 $119 $190 forward $184 $-1 #
edge $-1 $285 8.9772958544247343e-016 $285 6.2831853071796013 $189 $286 forward 7 unknown #
face $-1 $287 $288 $40 $-1 $289 forward single #
loop $-1 $-1 $290 $120 #
plane-surface $-1 -8.8817841970012523e-016 106.48538125782122 143.33673266890898 1 0 0 0 -0.80901700255871778 -0.5877852410284794 forward_v I I I I #
coedge $-1 $291 $292 $293 $294 reversed $121 $-1 #
coedge $-1 $196 $123 $295 $296 reversed $77 $-1 #
coedge $-1 $123 $195 $291 $297 reversed $77 $-1 #
coedge $-1 $293 $298 $123 $198 forward $299 $-1 #
edge $-1 $300 54.198161968811334 $301 69.989368653916955 $197 $302 forward 7 unknown #
loop $-1 $-1 $204 $124 #
plane-surface $-1 7.4374630899574612 -6.4663989877191881 61.272463109379942 0 0.80901700255871778 0.5877852410284794 1 0 0 forward_v I I I I #
loop $-1 $-1 $303 $79 #
coedge $-1 $202 $202 $203 $304 reversed $125 $-1 #
coedge $-1 $203 $203 $202 $304 forward $127 $-1 #
coedge $-1 $204 $204 $128 $205 forward $199 $-1 #
edge $-1 $305 8.9772958544247343e-016 $305 6.2831853071796013 $204 $306 forward 7 unknown #
loop $-1 $-1 $211 $129 #
plane-surface $-1 7.4374630899574612 -6.4663989877191881 61.272463109379942 0 0.80901700255871778 0.5877852410284794 1 0 0 forward_v I I I I #
loop $-1 $-1 $307 $82 #
coedge $-1 $209 $209 $210 $308 reversed $130 $-1 #
coedge $-1 $210 $210 $209 $308 forward $132 $-1 #
coedge $-1 $211 $211 $133 $212 forward $206 $-1 #
edge $-1 $309 8.9772958544247343e-016 $309 6.2831853071796013 $211 $310 forward 7 unknown #
loop $-1 $-1 $218 $134 #
plane-surface $-1 7.4374630899574612 -6.4663989877191881 61.272463109379942 0 0.80901700255871778 0.5877852410284794 1 0 0 forward_v I I I I #
loop $-1 $-1 $311 $85 #
coedge $-1 $216 $216 $217 $312 reversed $135 $-1 #
coedge $-1 $217 $217 $216 $312 forward $137 $-1 #
coedge $-1 $218 $218 $138 $219 forward $213 $-1 #
edge $-1 $313 8.9772958544247343e-016 $313 6.2831853071796013 $218 $314 forward 7 unknown #
face $-1 $315 $316 $33 $-1 $317 reversed single #
loop $-1 $-1 $318 $139 #
plane-surface $-1 -69.808038575395983 0 0 1 0 0 0 0 -1 forward_v I I I I #
coedge $-1 $319 $231 $320 $321 forward $140 $-1 #
coedge $-1 $322 $142 $319 $323 forward $89 $-1 #
coedge $-1 $142 $322 $324 $325 forward $89 $-1 #
coedge $-1 $234 $233 $142 $227 reversed $235 $-1 #
edge $-1 $326 -36.83078676984735 $327 36.83078676984735 $226 $328 forward 7 unknown #
coedge $-1 $144 $143 $329 $330 forward $56 $-1 #
coedge $-1 $331 $332 $143 $230 reversed $316 $-1 #
edge $-1 $237 -69.808038575395983 $333 69.808038575395983 $229 $334 forward 7 unknown #
coedge $-1 $223 $335 $144 $232 reversed $140 $-1 #
edge $-1 $336 -69.808038575395983 $236 69.808038575395983 $231 $337 forward 7 unknown #
coedge $-1 $226 $145 $335 $338 forward $235 $-1 #
coedge $-1 $145 $226 $331 $339 reversed $235 $-1 #
loop $-1 $-1 $233 $315 #
vertex $-1 $146 $340 #
vertex $-1 $146 $341 #
straight-curve $-1 69.808038575395983 0 17.470204365643159 0 1 0 I I #
face $-1 $-1 $342 $34 $-1 $343 reversed single #
loop $-1 $-1 $245 $147 #
plane-surface $-1 0 0 17.470204365643159 0 0 1 1 0 0 forward_v I I I I #
coedge $-1 $344 $345 $244 $346 forward $148 $-1 #
coedge $-1 $244 $150 $152 $250 reversed $93 $-1 #
coedge $-1 $150 $243 $242 $346 reversed $93 $-1 #
coedge $-1 $347 $153 $150 $246 forward $240 $-1 #
edge $-1 $253 -39.069473469268246 $348 -20.620766898990432 $245 $349 forward 7 unknown #
coedge $-1 $152 $151 $344 $350 reversed $59 $-1 #
coedge $-1 $351 $352 $151 $249 forward $342 $-1 #
edge $-1 $353 -13.861690874983839 $252 8.3914702483499646 $248 $354 forward 7 unknown #
edge $-1 $355 0 $253 22.253161123333804 $243 $356 forward 7 unknown #
coedge $-1 $153 $347 $351 $357 forward $240 $-1 #
vertex $-1 $249 $358 #
vertex $-1 $154 $359 #
straight-curve $-1 24.526126654548861 -18.38208019956954 17.470204365643159 -1 0 0 I I #
coedge $-1 $255 $255 $-1 $360 reversed $157 $-1 #
edge $-1 $361 0 $361 6.2831853071796004 $158 $362 forward 7 unknown #
vertex $-1 $161 $363 #
ellipse-curve $-1 49.052253309097722 -27.606433484708436 11.248299394799361 0 -0.55919291073839883 0.82903756765294845 5 0 0 1 I I #
face $-1 $-1 $271 $36 $-1 $364 reversed single #
loop $-1 $-1 $365 $162 #
plane-surface $-1 0 0 17.470204365643159 0 0 1 1 0 0 forward_v I I I I #
coedge $-1 $366 $367 $264 $368 forward $163 $-1 #
coedge $-1 $369 $165 $167 $269 forward $102 $-1 #
coedge $-1 $165 $369 $262 $368 reversed $102 $-1 #
coedge $-1 $370 $168 $165 $266 forward $271 $-1 #
edge $-1 $273 23.7478246527618 $371 38.622750832676722 $265 $372 forward 7 unknown #
coedge $-1 $373 $365 $166 $268 forward $260 $-1 #
edge $-1 $374 -27.884886748395889 $272 -16.411903859063258 $267 $375 forward 7 unknown #
edge $-1 $273 -73.661573539694743 $374 -54.142568827603412 $167 $376 forward 7 unknown #
coedge $-1 $168 $370 $373 $377 reversed $271 $-1 #
loop $-1 $-1 $265 $259 #
vertex $-1 $377 $378 #
vertex $-1 $169 $379 #
straight-curve $-1 -54.933112395481061 36.83078676984735 71.66836633445449 0 0 -1 I I #
coedge $-1 $275 $275 $-1 $380 reversed $172 $-1 #
edge $-1 $381 0 $381 6.2831853071796004 $173 $382 forward 7 unknown #
vertex $-1 $176 $383 #
ellipse-curve $-1 -66.833053339412999 31.094295325181022 9.5746010230903629 0 0.80901700255871778 0.5877852410284794 1 0 0 1 I I #
coedge $-1 $279 $279 $-1 $384 reversed $179 $-1 #
edge $-1 $385 0 $385 6.2831853071796004 $180 $386 forward 7 unknown #
vertex $-1 $183 $387 #
ellipse-curve $-1 -62.370575485438522 31.094295325181022 9.5746010230903629 0 0.80901700255871778 0.5877852410284794 1 0 0 1 I I #
coedge $-1 $283 $283 $-1 $388 reversed $186 $-1 #
edge $-1 $389 0 $389 6.2831853071796004 $187 $390 forward 7 unknown #
vertex $-1 $190 $391 #
ellipse-curve $-1 -57.908097631464045 31.094295325181022 9.5746010230903629 0 0.80901700255871778 0.5877852410284794 1 0 0 1 I I #
face $-1 $-1 $299 $40 $-1 $392 reversed single #
loop $-1 $-1 $393 $191 #
plane-surface $-1 0 0 17.470204365643159 0 0 1 1 0 0 forward_v I I I I #
coedge $-1 $394 $395 $396 $397 reversed $192 $-1 #
coedge $-1 $398 $194 $196 $297 forward $121 $-1 #
coedge $-1 $194 $398 $394 $399 forward $121 $-1 #
coedge $-1 $396 $197 $194 $294 forward $299 $-1 #
edge $-1 $301 -11.156194634936192 $400 3.7187315449787315 $293 $401 forward 7 unknown #
coedge $-1 $402 $403 $195 $296 forward $288 $-1 #
edge $-1 $404 -27.884886748395889 $300 -16.411903859063258 $295 $405 forward 7 unknown #
edge $-1 $301 -73.661573539694743 $404 -54.142568827603412 $196 $406 forward 7 unknown #
coedge $-1 $197 $396 $402 $407 reversed $299 $-1 #
loop $-1 $-1 $396 $287 #
vertex $-1 $407 $408 #
vertex $-1 $198 $409 #
straight-curve $-1 14.874926179914922 36.83078676984735 71.66836633445449 0 0 -1 I I #
coedge $-1 $303 $303 $-1 $410 reversed $201 $-1 #
edge $-1 $411 0 $411 6.2831853071796004 $202 $412 forward 7 unknown #
vertex $-1 $205 $413 #
ellipse-curve $-1 2.9749852359829845 31.094295325181022 9.5746010230903629 0 0.80901700255871778 0.5877852410284794 1 0 0 1 I I #
coedge $-1 $307 $307 $-1 $414 reversed $208 $-1 #
edge $-1 $415 0 $415 6.2831853071796004 $209 $416 forward 7 unknown #
vertex $-1 $212 $417 #
ellipse-curve $-1 7.4374630899574612 31.094295325181022 9.5746010230903629 0 0.80901700255871778 0.5877852410284794 1 0 0 1 I I #
coedge $-1 $311 $311 $-1 $418 reversed $215 $-1 #
edge $-1 $419 0 $419 6.2831853071796004 $216 $420 forward 7 unknown #
vertex $-1 $219 $421 #
ellipse-curve $-1 11.899940943931938 31.094295325181022 9.5746010230903629 0 0.80901700255871778 0.5877852410284794 1 0 0 1 I I #
face $-1 $-1 $235 $33 $-1 $422 reversed single #
loop $-1 $-1 $331 $220 #
plane-surface $-1 0 36.83078676984735 0 0 -1 0 0 0 -1 forward_v I I I I #
coedge $-1 $423 $329 $332 $424 forward $221 $-1 #
coedge $-1 $335 $223 $224 $323 reversed $140 $-1 #
coedge $-1 $329 $423 $223 $321 reversed $221 $-1 #
edge $-1 $336 -17.470204365643159 $425 17.470204365643159 $320 $426 forward 7 unknown #
coedge $-1 $225 $224 $423 $427 forward $89 $-1 #
edge $-1 $327 -69.808038575395983 $425 69.808038575395983 $319 $428 forward 7 unknown #
coedge $-1 $332 $331 $225 $325 reversed $316 $-1 #
edge $-1 $429 -69.808038575395983 $326 69.808038575395983 $324 $430 forward 7 unknown #
vertex $-1 $227 $431 #
vertex $-1 $338 $432 #
straight-curve $-1 69.808038575395983 0 -17.470204365643159 0 -1 0 I I #
coedge $-1 $318 $320 $228 $330 reversed $221 $-1 #
edge $-1 $333 -36.83078676984735 $336 36.83078676984735 $329 $433 forward 7 unknown #
coedge $-1 $324 $229 $234 $339 forward $316 $-1 #
coedge $-1 $229 $324 $318 $424 reversed $316 $-1 #
vertex $-1 $230 $434 #
straight-curve $-1 0 36.83078676984735 17.470204365643159 -1 0 0 I I #
coedge $-1 $231 $319 $233 $338 reversed $140 $-1 #
vertex $-1 $330 $435 #
straight-curve $-1 0 -36.83078676984735 17.470204365643159 1 0 0 I I #
edge $-1 $236 -17.470204365643159 $327 17.470204365643159 $233 $436 forward 7 unknown #
edge $-1 $237 -17.470204365643159 $326 17.470204365643159 $234 $437 forward 7 unknown #
point $-1 69.808038575395983 -36.83078676984735 17.470204365643159 #
point $-1 69.808038575395983 36.83078676984735 17.470204365643159 #
loop $-1 $-1 $248 $239 #
plane-surface $-1 69.808038575395983 0 0 -1 0 0 0 0 1 forward_v I I I I #
coedge $-1 $438 $242 $247 $350 forward $148 $-1 #
coedge $-1 $242 $438 $347 $439 reversed $148 $-1 #
edge $-1 $348 42.916479349504101 $355 55.360289291191705 $242 $440 forward 7 unknown #
coedge $-1 $251 $245 $345 $439 forward $240 $-1 #
vertex $-1 $439 $441 #
straight-curve $-1 28.296468042799454 -57.451553668837782 17.470204365643156 0 -1 0 I I #
edge $-1 $355 3.7703413882505927 $353 45.281911920847122 $344 $442 forward 7 unknown #
coedge $-1 $352 $248 $251 $357 reversed $342 $-1 #
coedge $-1 $248 $351 $438 $443 forward $342 $-1 #
vertex $-1 $350 $444 #
straight-curve $-1 69.808038575395983 -25.338924283293679 12.777753692093668 0 0.82903756765294845 0.55919291073839883 I I #
vertex $-1 $350 $445 #
straight-curve $-1 28.296468042799454 -36.83078676984735 5.0263944239555514 0 0.82903756765294845 0.55919291073839883 I I #
edge $-1 $446 -36.83078676984735 $252 -18.38208019956954 $351 $447 forward 7 unknown #
point $-1 69.808038575395983 -18.38208019956954 17.470204365643159 #
point $-1 28.296468042799454 -18.38208019956954 17.470204365643159 #
edge $-1 $448 1 $448 0 $255 $-1 forward 7 unknown #
vertex $-1 $256 $449 #
ellipse-curve $-1 49.052253309097722 -19.416331682376235 -0.89402563587679174 0 -0.55919291073839883 0.82903756765294845 5 0 0 1 I I #
point $-1 54.052253309097722 -27.606433484708418 11.248299394799339 #
plane-surface $-1 0 36.83078676984735 0 0 -1 0 0 0 -1 forward_v I I I I #
coedge $-1 $267 $450 $369 $451 forward $260 $-1 #
coedge $-1 $367 $262 $450 $452 reversed $163 $-1 #
coedge $-1 $262 $366 $370 $453 forward $163 $-1 #
edge $-1 $371 -46.975914373833234 $454 -27.456909661741911 $262 $455 forward 7 unknown #
coedge $-1 $264 $263 $365 $451 reversed $102 $-1 #
coedge $-1 $270 $265 $367 $453 reversed $271 $-1 #
vertex $-1 $368 $456 #
straight-curve $-1 -31.185287742719261 36.83078676984735 1.6789976805375382 -1 0 0 I I #
coedge $-1 $450 $267 $270 $377 forward $260 $-1 #
vertex $-1 $268 $457 #
straight-curve $-1 -54.933112395481061 53.242690628910609 17.470204365643156 0 1 0 I I #
straight-curve $-1 -54.933112395481061 -6.4663989877191881 61.272463109379942 0 -0.5877852410284794 0.80901700255871778 I I #
edge $-1 $272 54.933112395481061 $458 69.808038575395983 $270 $459 forward 7 unknown #
point $-1 -54.933112395481061 36.83078676984735 17.470204365643159 #
point $-1 -54.933112395481061 36.83078676984735 1.6789976805375417 #
edge $-1 $460 1 $460 0 $275 $-1 forward 7 unknown #
vertex $-1 $276 $461 #
ellipse-curve $-1 -66.833053339412999 29.529764535022103 8.4379029009476287 0 0.80901700255871778 0.5877852410284794 1 0 0 1 I I #
point $-1 -65.833053339412999 31.094295325181051 9.5746010230903824 #
edge $-1 $462 1 $462 0 $279 $-1 forward 7 unknown #
vertex $-1 $280 $463 #
ellipse-curve $-1 -62.370575485438522 29.529764535022103 8.4379029009476287 0 0.80901700255871778 0.5877852410284794 1 0 0 1 I I #
point $-1 -61.370575485438522 31.094295325181051 9.5746010230903824 #
edge $-1 $464 1 $464 0 $283 $-1 forward 7 unknown #
vertex $-1 $284 $465 #
ellipse-curve $-1 -57.908097631464045 29.529764535022103 8.4379029009476287 0 0.80901700255871778 0.5877852410284794 1 0 0 1 I I #
point $-1 -56.908097631464045 31.094295325181051 9.5746010230903824 #
plane-surface $-1 0 36.83078676984735 0 0 -1 0 0 0 -1 forward_v I I I I #
coedge $-1 $403 $402 $395 $466 forward $288 $-1 #
coedge $-1 $395 $290 $292 $399 reversed $192 $-1 #
coedge $-1 $290 $394 $393 $466 reversed $192 $-1 #
coedge $-1 $298 $293 $290 $397 forward $299 $-1 #
edge $-1 $400 -69.989368653916955 $467 -54.198161968811334 $396 $468 forward 7 unknown #
coedge $-1 $292 $291 $403 $469 reversed $121 $-1 #
edge $-1 $470 54.142568827603412 $400 73.661573539694743 $394 $471 forward 7 unknown #
vertex $-1 $294 $472 #
straight-curve $-1 3.7187315449787306 36.83078676984735 1.6789976805375382 -1 0 0 I I #
coedge $-1 $393 $295 $298 $407 forward $288 $-1 #
coedge $-1 $295 $393 $398 $469 forward $288 $-1 #
vertex $-1 $296 $473 #
straight-curve $-1 14.874926179914922 53.242690628910609 17.470204365643156 0 1 0 I I #
straight-curve $-1 14.874926179914922 -6.4663989877191881 61.272463109379942 0 -0.5877852410284794 0.80901700255871778 I I #
edge $-1 $300 -14.874926179914922 $467 8.8817841970012523e-016 $298 $474 forward 7 unknown #
point $-1 14.874926179914922 36.83078676984735 17.470204365643159 #
point $-1 14.874926179914922 36.83078676984735 1.6789976805375417 #
edge $-1 $475 1 $475 0 $303 $-1 forward 7 unknown #
vertex $-1 $304 $476 #
ellipse-curve $-1 2.9749852359829845 29.529764535022103 8.4379029009476287 0 0.80901700255871778 0.5877852410284794 1 0 0 1 I I #
point $-1 3.9749852359829845 31.094295325181051 9.5746010230903824 #
edge $-1 $477 1 $477 0 $307 $-1 forward 7 unknown #
vertex $-1 $308 $478 #
ellipse-curve $-1 7.4374630899574612 29.529764535022103 8.4379029009476287 0 0.80901700255871778 0.5877852410284794 1 0 0 1 I I #
point $-1 8.4374630899574612 31.094295325181051 9.5746010230903824 #
edge $-1 $479 1 $479 0 $311 $-1 forward 7 unknown #
vertex $-1 $312 $480 #
ellipse-curve $-1 11.899940943931938 29.529764535022103 8.4379029009476287 0 0.80901700255871778 0.5877852410284794 1 0 0 1 I I #
point $-1 12.899940943931938 31.094295325181051 9.5746010230903824 #
plane-surface $-1 69.808038575395983 0 0 -1 0 0 0 0 1 forward_v I I I I #
coedge $-1 $320 $318 $322 $427 reversed $221 $-1 #
edge $-1 $333 -17.470204365643159 $429 17.470204365643159 $332 $481 forward 7 unknown #
vertex $-1 $427 $482 #
straight-curve $-1 -69.808038575395983 -36.83078676984735 0 0 0 -1 I I #
edge $-1 $425 -36.83078676984735 $429 36.83078676984735 $423 $483 forward 7 unknown #
straight-curve $-1 0 -36.83078676984735 -17.470204365643159 -1 0 0 I I #
vertex $-1 $325 $484 #
straight-curve $-1 0 36.83078676984735 -17.470204365643159 1 0 0 I I #
point $-1 69.808038575395983 36.83078676984735 -17.470204365643159 #
point $-1 69.808038575395983 -36.83078676984735 -17.470204365643159 #
straight-curve $-1 -69.808038575395983 0 17.470204365643159 0 -1 0 I I #
point $-1 -69.808038575395983 36.83078676984735 17.470204365643159 #
point $-1 -69.808038575395983 -36.83078676984735 17.470204365643159 #
straight-curve $-1 69.808038575395983 -36.83078676984735 0 0 0 -1 I I #
straight-curve $-1 69.808038575395983 36.83078676984735 0 0 0 -1 I I #
coedge $-1 $345 $344 $352 $443 reversed $148 $-1 #
edge $-1 $348 28.296468042799454 $446 69.808038575395983 $345 $485 forward 7 unknown #
straight-curve $-1 28.296468042799454 -36.83078676984735 60.386683715147257 0 0 -1 I I #
point $-1 28.296468042799454 -36.83078676984735 17.470204365643159 #
straight-curve $-1 24.526126654548861 -36.83078676984735 5.0263944239555531 1 0 0 I I #
edge $-1 $446 -17.470204365643159 $353 -5.0263944239555514 $352 $486 forward 7 unknown #
point $-1 69.808038575395983 -36.83078676984735 5.0263944239555514 #
point $-1 28.296468042799454 -36.83078676984735 5.0263944239555514 #
vertex $-1 $357 $487 #
straight-curve $-1 69.808038575395983 0 17.470204365643159 0 1 0 I I #
vertex $-1 $360 $488 #
point $-1 54.052253309097722 -19.416331682376235 -0.89402563587679174 #
coedge $-1 $365 $373 $366 $452 forward $260 $-1 #
edge $-1 $454 -38.622750832676722 $374 -23.7478246527618 $365 $489 forward 7 unknown #
edge $-1 $458 -36.83078676984735 $454 -25.357803880514719 $366 $490 forward 7 unknown #
edge $-1 $458 -17.470204365643159 $371 -1.6789976805375435 $370 $491 forward 7 unknown #
vertex $-1 $368 $492 #
straight-curve $-1 -69.808038575395983 9.2190376170905672 39.683311119711092 0 -0.5877852410284794 0.80901700255871778 I I #
point $-1 -69.808038575395983 36.83078676984735 1.6789976805375435 #
point $-1 -54.933112395481061 25.357803880514719 17.470204365643156 #
vertex $-1 $377 $493 #
straight-curve $-1 0 36.83078676984735 17.470204365643159 -1 0 0 I I #
vertex $-1 $380 $494 #
point $-1 -65.833053339412999 29.529764535022103 8.4379029009476287 #
vertex $-1 $384 $495 #
point $-1 -61.370575485438522 29.529764535022103 8.4379029009476287 #
vertex $-1 $388 $496 #
point $-1 -56.908097631464045 29.529764535022103 8.4379029009476287 #
edge $-1 $467 16.411903859063258 $470 27.884886748395889 $393 $497 forward 7 unknown #
vertex $-1 $397 $498 #
straight-curve $-1 -8.8817841970012523e-016 36.83078676984735 71.66836633445449 0 0 1 I I #
edge $-1 $470 -3.7187315449787315 $404 11.156194634936192 $403 $499 forward 7 unknown #
vertex $-1 $469 $500 #
straight-curve $-1 -8.8817841970012523e-016 -6.4663989877191881 61.272463109379942 0 0.5877852410284794 -0.80901700255871778 I I #
point $-1 -8.8817841970012523e-016 36.83078676984735 1.6789976805375417 #
point $-1 14.874926179914922 25.357803880514719 17.470204365643156 #
straight-curve $-1 0 36.83078676984735 17.470204365643159 -1 0 0 I I #
vertex $-1 $410 $501 #
point $-1 3.9749852359829845 29.529764535022103 8.4379029009476287 #
vertex $-1 $414 $502 #
point $-1 8.4374630899574612 29.529764535022103 8.4379029009476287 #
vertex $-1 $418 $503 #
point $-1 12.899940943931938 29.529764535022103 8.4379029009476287 #
straight-curve $-1 -69.808038575395983 36.83078676984735 0 0 0 -1 I I #
point $-1 -69.808038575395983 -36.83078676984735 -17.470204365643159 #
straight-curve $-1 -69.808038575395983 0 -17.470204365643159 0 1 0 I I #
point $-1 -69.808038575395983 36.83078676984735 -17.470204365643159 #
straight-curve $-1 0 -36.83078676984735 17.470204365643159 1 0 0 I I #
straight-curve $-1 69.808038575395983 -36.83078676984735 0 0 0 -1 I I #
point $-1 69.808038575395983 -36.83078676984735 17.470204365643159 #
point $-1 49.052253309097722 -16.62036712868424 -5.0392134741415351 #
straight-curve $-1 -31.185287742719261 25.357803880514716 17.470204365643159 1 0 0 I I #
straight-curve $-1 -69.808038575395983 0 17.470204365643159 0 -1 0 I I #
straight-curve $-1 -69.808038575395983 36.83078676984735 0 0 0 -1 I I #
point $-1 -69.808038575395983 25.357803880514719 17.470204365643156 #
point $-1 -69.808038575395983 36.83078676984735 17.470204365643159 #
point $-1 -66.833053339412999 28.720747532463385 7.8501176599191478 #
point $-1 -62.370575485438522 28.720747532463385 7.8501176599191478 #
point $-1 -57.908097631464045 28.720747532463385 7.8501176599191478 #
straight-curve $-1 -8.8817841970012523e-016 53.242690628910609 17.470204365643156 0 -1 0 I I #
point $-1 -8.8817841970012523e-016 36.83078676984735 17.470204365643159 #
straight-curve $-1 3.7187315449787306 25.357803880514716 17.470204365643159 1 0 0 I I #
point $-1 -8.8817841970012523e-016 25.357803880514719 17.470204365643156 #
point $-1 2.9749852359829845 28.720747532463385 7.8501176599191478 #
point $-1 7.4374630899574612 28.720747532463385 7.8501176599191478 #
point $-1 11.899940943931938 28.720747532463385 7.8501176599191478 #
End-of-ACIS-data 