500 0 11 0           
7 Unknown 11 ACIS 5.0 NT 24 Thu Mar 25 16:59:18 1999 
-1 9.9999999999999995e-007 1e-010 
body $-1 $11 $-1 $12 #
body $-1 $13 $-1 $14 #
body $-1 $15 $-1 $16 #
body $-1 $17 $-1 $18 #
body $-1 $19 $-1 $20 #
body $-1 $21 $-1 $22 #
body $-1 $23 $-1 $24 #
body $-1 $25 $-1 $26 #
body $-1 $27 $-1 $28 #
body $-1 $29 $-1 $30 #
body $-1 $31 $-1 $32 #
lump $-1 $-1 $33 $0 #
transform $-1 1 0 0 0 1 0 0 0 1 62.235786004211555 40.513754990821077 16.76238530111269 1 rotate no_reflect no_shear #
lump $-1 $-1 $34 $1 #
transform $-1 1 0 0 0 1 0 0 0 1 62.235786004211555 40.513754990821077 16.76238530111269 1 rotate no_reflect no_shear #
lump $-1 $-1 $35 $2 #
transform $-1 1 0 0 0 1 0 0 0 1 62.235786004211555 40.513754990821077 16.76238530111269 1 rotate no_reflect no_shear #
lump $-1 $-1 $36 $3 #
transform $-1 1 0 0 0 1 0 0 0 1 62.235786004211555 40.513754990821077 16.76238530111269 1 rotate no_reflect no_shear #
lump $-1 $-1 $37 $4 #
transform $-1 1 0 0 0 1 0 0 0 1 62.235786004211555 40.513754990821077 16.76238530111269 1 rotate no_reflect no_shear #
lump $-1 $-1 $38 $5 #
transform $-1 1 0 0 0 1 0 0 0 1 62.235786004211555 40.513754990821077 16.76238530111269 1 rotate no_reflect no_shear #
lump $-1 $-1 $39 $6 #
transform $-1 1 0 0 0 1 0 0 0 1 62.235786004211555 40.513754990821077 16.76238530111269 1 rotate no_reflect no_shear #
lump $-1 $-1 $40 $7 #
transform $-1 1 0 0 0 1 0 0 0 1 62.235786004211555 40.513754990821077 16.76238530111269 1 rotate no_reflect no_shear #
lump $-1 $-1 $41 $8 #
transform $-1 1 0 0 0 1 0 0 0 1 62.235786004211555 40.513754990821077 16.76238530111269 1 rotate no_reflect no_shear #
lump $-1 $-1 $42 $9 #
transform $-1 1 0 0 0 1 0 0 0 1 62.235786004211555 40.513754990821077 16.76238530111269 1 rotate no_reflect no_shear #
lump $-1 $-1 $43 $10 #
transform $-1 1 0 0 0 1 0 0 0 1 62.235786004211555 40.513754990821077 16.76238530111269 1 rotate no_reflect no_shear #
shell $-1 $-1 $-1 $44 $-1 $11 #
shell $-1 $-1 $-1 $45 $-1 $13 #
shell $-1 $-1 $-1 $46 $-1 $15 #
shell $-1 $-1 $-1 $47 $-1 $17 #
shell $-1 $-1 $-1 $48 $-1 $19 #
shell $-1 $-1 $-1 $49 $-1 $21 #
shell $-1 $-1 $-1 $50 $-1 $23 #
shell $-1 $-1 $-1 $51 $-1 $25 #
shell $-1 $-1 $-1 $52 $-1 $27 #
shell $-1 $-1 $-1 $53 $-1 $29 #
shell $-1 $-1 $-1 $54 $-1 $31 #
face $-1 $55 $56 $33 $-1 $57 forward single #
face $-1 $58 $59 $34 $-1 $60 forward single #
face $-1 $61 $62 $35 $-1 $63 forward single #
face $-1 $64 $65 $36 $-1 $66 reversed single #
face $-1 $67 $68 $37 $-1 $69 forward single #
face $-1 $70 $71 $38 $-1 $72 reversed single #
face $-1 $73 $74 $39 $-1 $75 forward single #
face $-1 $76 $77 $40 $-1 $78 forward single #
face $-1 $79 $80 $41 $-1 $81 reversed single #
face $-1 $82 $83 $42 $-1 $84 forward single #
face $-1 $85 $86 $43 $-1 $87 forward single #
face $-1 $88 $89 $33 $-1 $90 reversed single #
loop $-1 $-1 $91 $44 #
plane-surface $-1 0 0 16.76238530111269 0 0 1 1 0 0 forward_v I I I I #
face $-1 $92 $93 $34 $-1 $94 reversed single #
loop $-1 $-1 $95 $45 #
plane-surface $-1 0 -40.513754990821077 0 0 1 0 0 0 1 forward_v I I I I #
face $-1 $96 $97 $35 $-1 $98 reversed single #
loop $-1 $-1 $99 $46 #
plane-surface $-1 0 40.513754990821077 0 0 -1 0 0 0 -1 forward_v I I I I #
face $-1 $100 $101 $36 $-1 $102 reversed single #
loop $-1 $-1 $103 $47 #
plane-surface $-1 40.783202113879746 -6.8588087610107209 182.32068465308583 0 -1 0 -0.61566148304635926 0 -0.78801074757464917 forward_v I I I I #
face $-1 $104 $105 $37 $-1 $106 forward single #
loop $-1 $107 $108 $48 #
cone-surface $-1 55.707344313401379 -11.410882076761332 11.329226130776215 -0.61566148304635926 0 -0.78801074757464917 1.5760214951492983 0 -1.2313229660927185 1 I I 0 1 2 forward I I I I #
face $-1 $109 $110 $38 $-1 $111 reversed single #
loop $-1 $-1 $112 $49 #
plane-surface $-1 -156.17567489604934 -13.519431142996432 85.489065718876674 0 1 0 -0.75470958851134928 0 0.65605901945558964 forward_v I I I I #
face $-1 $113 $114 $39 $-1 $115 forward single #
loop $-1 $116 $117 $50 #
cone-surface $-1 -55.972516481359435 -10.964798928560736 9.7376555245874101 0.75470958851134928 0 -0.65605901945558964 0.65605901945558964 0 0.75470958851134928 1 I I 0 1 1 forward I I I I #
face $-1 $118 $119 $40 $-1 $120 forward single #
loop $-1 $121 $122 $51 #
cone-surface $-1 -55.972516481359435 -7.1328506069071906 9.7376555245874101 0.75470958851134928 0 -0.65605901945558964 0.65605901945558964 0 0.75470958851134928 1 I I 0 1 1 forward I I I I #
face $-1 $123 $124 $41 $-1 $125 reversed single #
loop $-1 $-1 $126 $52 #
plane-surface $-1 -156.17567489604934 4.5782183924714985 85.489065718876674 0 1 0 -0.75470958851134928 0 0.65605901945558964 forward_v I I I I #
face $-1 $127 $128 $42 $-1 $129 forward single #
loop $-1 $130 $131 $53 #
cone-surface $-1 -55.972516481359435 7.1328506069071906 9.7376555245874101 0.75470958851134928 0 -0.65605901945558964 0.65605901945558964 0 0.75470958851134928 1 I I 0 1 1 forward I I I I #
face $-1 $132 $133 $43 $-1 $134 forward single #
loop $-1 $135 $136 $54 #
cone-surface $-1 -55.972516481359435 10.964798928560732 9.7376555245874101 0.75470958851134928 0 -0.65605901945558964 0.65605901945558964 0 0.75470958851134928 1 I I 0 1 1 forward I I I I #
face $-1 $137 $138 $33 $-1 $139 reversed single #
loop $-1 $-1 $140 $55 #
plane-surface $-1 0 0 -16.76238530111269 0 0 1 1 0 0 forward_v I I I I #
coedge $-1 $141 $142 $143 $144 forward $56 $-1 #
face $-1 $145 $146 $34 $-1 $147 reversed single #
loop $-1 $-1 $148 $58 #
plane-surface $-1 0 0 -16.76238530111269 0 0 1 1 0 0 forward_v I I I I #
coedge $-1 $149 $150 $151 $152 forward $59 $-1 #
face $-1 $153 $154 $35 $-1 $155 forward single #
loop $-1 $-1 $156 $61 #
plane-surface $-1 -62.235786004211555 0 0 1 0 0 0 0 -1 forward_v I I I I #
coedge $-1 $157 $158 $159 $160 forward $62 $-1 #
face $-1 $161 $162 $36 $-1 $163 reversed single #
loop $-1 $-1 $164 $64 #
plane-surface $-1 -35.849150505937736 -11.410882076761332 84.235748142936558 0.61566148304635926 0 0.78801074757464917 0.78801074757464917 0 -0.61566148304635926 forward_v I I I I #
coedge $-1 $165 $166 $167 $168 reversed $65 $-1 #
face $-1 $-1 $169 $37 $-1 $170 forward single #
loop $-1 $171 $172 $67 #
cone-surface $-1 54.42472718401276 -11.410882076761332 9.6875511018618816 -0.61566148304635926 0 -0.78801074757464917 0.78801074757464917 0 -0.61566148304635926 1 I I -0.70710678118654691 0.70710678118654813 1 forward I I I I #
loop $-1 $-1 $173 $48 #
coedge $-1 $108 $108 $174 $175 reversed $68 $-1 #
face $-1 $176 $177 $38 $-1 $178 reversed single #
loop $-1 $-1 $179 $70 #
plane-surface $-1 -62.235786004211548 -9.0488247677339615 3.8283682369347787 -0.75470958851134928 0 0.65605901945558964 0.65605901945558964 0 0.75470958851134928 forward_v I I I I #
coedge $-1 $180 $181 $182 $183 reversed $71 $-1 #
face $-1 $-1 $184 $39 $-1 $185 forward single #
loop $-1 $186 $187 $73 #
cone-surface $-1 -54.953576771097474 -10.964798928560736 8.8519047704232854 0.75470958851134928 0 -0.65605901945558964 0.32802950972779482 0 0.37735479425567464 1 I I -0.70710678118654746 0.70710678118654746 0.5 forward I I I I #
loop $-1 $-1 $188 $50 #
coedge $-1 $117 $117 $189 $190 reversed $74 $-1 #
face $-1 $-1 $191 $40 $-1 $192 forward single #
loop $-1 $193 $194 $76 #
cone-surface $-1 -54.953576771097474 -7.1328506069071906 8.8519047704232854 0.75470958851134928 0 -0.65605901945558964 0.32802950972779482 0 0.37735479425567464 1 I I -0.70710678118654746 0.70710678118654746 0.5 forward I I I I #
loop $-1 $-1 $195 $51 #
coedge $-1 $122 $122 $196 $197 reversed $77 $-1 #
face $-1 $198 $199 $41 $-1 $200 reversed single #
loop $-1 $-1 $201 $79 #
plane-surface $-1 -62.235786004211548 9.0488247677339686 3.8283682369347787 -0.75470958851134928 0 0.65605901945558964 0.65605901945558964 0 0.75470958851134928 forward_v I I I I #
coedge $-1 $202 $203 $204 $205 reversed $80 $-1 #
face $-1 $-1 $206 $42 $-1 $207 forward single #
loop $-1 $208 $209 $82 #
cone-surface $-1 -54.953576771097474 7.1328506069071906 8.8519047704232854 0.75470958851134928 0 -0.65605901945558964 0.32802950972779482 0 0.37735479425567464 1 I I -0.70710678118654746 0.70710678118654746 0.5 forward I I I I #
loop $-1 $-1 $210 $53 #
coedge $-1 $131 $131 $211 $212 reversed $83 $-1 #
face $-1 $-1 $213 $43 $-1 $214 forward single #
loop $-1 $215 $216 $85 #
cone-surface $-1 -54.953576771097474 10.964798928560732 8.8519047704232854 0.75470958851134928 0 -0.65605901945558964 0.32802950972779482 0 0.37735479425567464 1 I I -0.70710678118654746 0.70710678118654746 0.5 forward I I I I #
loop $-1 $-1 $217 $54 #
coedge $-1 $136 $136 $218 $219 reversed $86 $-1 #
face $-1 $220 $221 $33 $-1 $222 reversed single #
loop $-1 $-1 $223 $88 #
plane-surface $-1 0 -40.513754990821077 0 0 1 0 0 0 1 forward_v I I I I #
coedge $-1 $224 $225 $226 $227 forward $89 $-1 #
coedge $-1 $228 $91 $229 $230 forward $56 $-1 #
coedge $-1 $91 $228 $231 $232 forward $56 $-1 #
coedge $-1 $233 $234 $91 $144 reversed $235 $-1 #
edge $-1 $236 -40.513754990821077 $237 40.513754990821077 $143 $238 forward 7 unknown #
face $-1 $239 $240 $34 $-1 $241 forward single #
loop $-1 $-1 $242 $92 #
plane-surface $-1 62.235786004211555 0 0 -1 0 0 0 0 1 forward_v I I I I #
coedge $-1 $243 $244 $245 $246 forward $93 $-1 #
coedge $-1 $245 $95 $242 $247 reversed $59 $-1 #
coedge $-1 $95 $245 $248 $249 reversed $59 $-1 #
coedge $-1 $250 $251 $95 $152 reversed $240 $-1 #
edge $-1 $252 -62.235786004211555 $253 62.235786004211555 $151 $254 forward 7 unknown #
face $-1 $255 $256 $35 $-1 $257 reversed single #
loop $-1 $-1 $258 $96 #
plane-surface $-1 0 51.211611909531932 -10.562548501335318 0 0 1 1 0 0 forward_v I I I I #
coedge $-1 $259 $260 $157 $261 forward $97 $-1 #
coedge $-1 $262 $99 $156 $261 reversed $62 $-1 #
coedge $-1 $99 $262 $263 $264 reversed $62 $-1 #
coedge $-1 $258 $265 $99 $160 reversed $154 $-1 #
edge $-1 $266 -62.235786004211555 $267 62.235786004211555 $159 $268 forward 7 unknown #
face $-1 $269 $270 $36 $-1 $271 forward single #
loop $-1 $-1 $272 $100 #
plane-surface $-1 40.783202113879746 -15.962955392511944 182.32068465308583 0 1 0 0.61566148304635926 0 0.78801074757464917 forward_v I I I I #
coedge $-1 $273 $274 $275 $276 reversed $101 $-1 #
coedge $-1 $166 $103 $277 $278 reversed $65 $-1 #
coedge $-1 $103 $165 $273 $279 reversed $65 $-1 #
coedge $-1 $275 $280 $103 $168 forward $270 $-1 #
edge $-1 $281 -41.844184947271685 $282 -30.121212858335834 $167 $283 forward 7 unknown #
loop $-1 $-1 $174 $104 #
plane-surface $-1 -35.849150505937736 -11.410882076761332 84.235748142936558 0.61566148304635926 0 0.78801074757464917 0.78801074757464917 0 -0.61566148304635926 forward_v I I I I #
loop $-1 $-1 $284 $67 #
coedge $-1 $172 $172 $173 $285 reversed $105 $-1 #
coedge $-1 $173 $173 $172 $285 forward $107 $-1 #
coedge $-1 $174 $174 $108 $175 forward $169 $-1 #
edge $-1 $286 0 $286 6.2831853071796004 $174 $287 forward 7 unknown #
face $-1 $288 $289 $38 $-1 $290 reversed single #
loop $-1 $-1 $291 $109 #
plane-surface $-1 -156.17567489604934 -4.5782183924714914 85.489065718876674 0 -1 0 0.75470958851134928 0 -0.65605901945558964 forward_v I I I I #
coedge $-1 $292 $293 $294 $295 reversed $110 $-1 #
coedge $-1 $181 $112 $296 $297 reversed $71 $-1 #
coedge $-1 $112 $180 $292 $298 reversed $71 $-1 #
coedge $-1 $294 $299 $112 $183 forward $300 $-1 #
edge $-1 $301 15.852051443813117 $302 27.09542065750481 $182 $303 forward 7 unknown #
loop $-1 $-1 $189 $113 #
plane-surface $-1 -62.235786004211548 -9.0488247677339615 3.8283682369347787 -0.75470958851134928 0 0.65605901945558964 0.65605901945558964 0 0.75470958851134928 forward_v I I I I #
loop $-1 $-1 $304 $73 #
coedge $-1 $187 $187 $188 $305 reversed $114 $-1 #
coedge $-1 $188 $188 $187 $305 forward $116 $-1 #
coedge $-1 $189 $189 $117 $190 forward $184 $-1 #
edge $-1 $306 0 $306 6.2831853071796004 $189 $307 forward 7 unknown #
loop $-1 $-1 $196 $118 #
plane-surface $-1 -62.235786004211548 -9.0488247677339615 3.8283682369347787 -0.75470958851134928 0 0.65605901945558964 0.65605901945558964 0 0.75470958851134928 forward_v I I I I #
loop $-1 $-1 $308 $76 #
coedge $-1 $194 $194 $195 $309 reversed $119 $-1 #
coedge $-1 $195 $195 $194 $309 forward $121 $-1 #
coedge $-1 $196 $196 $122 $197 forward $191 $-1 #
edge $-1 $310 0 $310 6.2831853071796004 $196 $311 forward 7 unknown #
face $-1 $312 $313 $41 $-1 $314 forward single #
loop $-1 $-1 $315 $123 #
plane-surface $-1 -156.17567489604934 13.519431142996439 85.489065718876674 0 -1 0 0.75470958851134928 0 -0.65605901945558964 forward_v I I I I #
coedge $-1 $316 $317 $318 $319 reversed $124 $-1 #
coedge $-1 $203 $126 $320 $321 reversed $80 $-1 #
coedge $-1 $126 $202 $316 $322 reversed $80 $-1 #
coedge $-1 $318 $323 $126 $205 forward $313 $-1 #
edge $-1 $324 15.852051443813117 $325 27.09542065750481 $204 $326 forward 7 unknown #
loop $-1 $-1 $211 $127 #
plane-surface $-1 -62.235786004211548 9.0488247677339686 3.8283682369347787 -0.75470958851134928 0 0.65605901945558964 0.65605901945558964 0 0.75470958851134928 forward_v I I I I #
loop $-1 $-1 $327 $82 #
coedge $-1 $209 $209 $210 $328 reversed $128 $-1 #
coedge $-1 $210 $210 $209 $328 forward $130 $-1 #
coedge $-1 $211 $211 $131 $212 forward $206 $-1 #
edge $-1 $329 0 $329 6.2831853071796004 $211 $330 forward 7 unknown #
loop $-1 $-1 $218 $132 #
plane-surface $-1 -62.235786004211548 9.0488247677339686 3.8283682369347787 -0.75470958851134928 0 0.65605901945558964 0.65605901945558964 0 0.75470958851134928 forward_v I I I I #
loop $-1 $-1 $331 $85 #
coedge $-1 $216 $216 $217 $332 reversed $133 $-1 #
coedge $-1 $217 $217 $216 $332 forward $135 $-1 #
coedge $-1 $218 $218 $136 $219 forward $213 $-1 #
edge $-1 $333 0 $333 6.2831853071796004 $218 $334 forward 7 unknown #
face $-1 $335 $336 $33 $-1 $337 reversed single #
loop $-1 $-1 $338 $137 #
plane-surface $-1 -62.235786004211555 0 0 1 0 0 0 0 -1 forward_v I I I I #
coedge $-1 $231 $339 $233 $340 reversed $138 $-1 #
coedge $-1 $341 $140 $339 $342 forward $89 $-1 #
coedge $-1 $140 $341 $343 $344 forward $89 $-1 #
coedge $-1 $234 $233 $140 $227 reversed $235 $-1 #
edge $-1 $345 -40.513754990821077 $346 40.513754990821077 $226 $347 forward 7 unknown #
coedge $-1 $142 $141 $348 $349 forward $56 $-1 #
coedge $-1 $350 $351 $141 $230 reversed $336 $-1 #
edge $-1 $237 -62.235786004211555 $352 62.235786004211555 $229 $353 forward 7 unknown #
coedge $-1 $354 $223 $142 $232 reversed $138 $-1 #
edge $-1 $355 -62.235786004211555 $236 62.235786004211555 $231 $356 forward 7 unknown #
coedge $-1 $226 $143 $223 $340 forward $235 $-1 #
coedge $-1 $143 $226 $350 $357 reversed $235 $-1 #
loop $-1 $-1 $233 $335 #
vertex $-1 $144 $358 #
vertex $-1 $144 $359 #
straight-curve $-1 62.235786004211555 0 16.76238530111269 0 1 0 I I #
face $-1 $360 $361 $34 $-1 $362 reversed single #
loop $-1 $-1 $251 $145 #
plane-surface $-1 0 -51.211611909531939 -10.562548501335318 0 0 1 1 0 0 forward_v I I I I #
coedge $-1 $363 $364 $149 $247 forward $146 $-1 #
coedge $-1 $365 $148 $364 $366 forward $93 $-1 #
coedge $-1 $148 $365 $367 $368 forward $93 $-1 #
coedge $-1 $150 $149 $148 $246 reversed $59 $-1 #
edge $-1 $369 -62.235786004211555 $370 62.235786004211555 $148 $371 forward 7 unknown #
edge $-1 $370 -16.76238530111269 $253 -10.562548501335318 $242 $372 forward 7 unknown #
coedge $-1 $367 $373 $150 $249 forward $374 $-1 #
edge $-1 $252 10.562548501335318 $369 16.76238530111269 $248 $375 forward 7 unknown #
coedge $-1 $376 $151 $373 $377 forward $240 $-1 #
coedge $-1 $151 $376 $363 $378 forward $240 $-1 #
vertex $-1 $249 $379 #
vertex $-1 $378 $380 #
straight-curve $-1 0 -40.513754990821077 -10.562548501335318 1 0 0 I I #
face $-1 $381 $382 $35 $-1 $383 reversed single #
loop $-1 $-1 $384 $153 #
plane-surface $-1 0 61.909468828242794 -13.662466901224004 0 -1 0 0 0 -1 forward_v I I I I #
coedge $-1 $385 $159 $386 $387 forward $154 $-1 #
coedge $-1 $388 $156 $265 $389 reversed $97 $-1 #
coedge $-1 $156 $388 $390 $391 reversed $97 $-1 #
edge $-1 $392 -16.76238530111269 $267 -10.562548501335318 $156 $393 forward 7 unknown #
coedge $-1 $158 $157 $394 $395 reversed $62 $-1 #
coedge $-1 $396 $386 $158 $264 forward $397 $-1 #
edge $-1 $266 10.562548501335318 $398 16.76238530111269 $263 $399 forward 7 unknown #
coedge $-1 $159 $385 $259 $389 forward $154 $-1 #
vertex $-1 $264 $400 #
vertex $-1 $389 $401 #
straight-curve $-1 0 40.513754990821077 -10.562548501335318 -1 0 0 I I #
face $-1 $-1 $402 $36 $-1 $403 reversed single #
loop $-1 $-1 $167 $161 #
plane-surface $-1 0 0 16.76238530111269 0 0 1 1 0 0 forward_v I I I I #
coedge $-1 $404 $405 $406 $407 reversed $162 $-1 #
coedge $-1 $408 $164 $166 $279 forward $101 $-1 #
coedge $-1 $164 $408 $404 $409 forward $101 $-1 #
coedge $-1 $406 $167 $164 $276 forward $270 $-1 #
edge $-1 $282 1.1533677226300547 $410 10.257514354131278 $275 $411 forward 7 unknown #
coedge $-1 $412 $413 $165 $278 forward $402 $-1 #
edge $-1 $414 -83.556946803423841 $281 -74.39795702543023 $277 $415 forward 7 unknown #
edge $-1 $282 109.59490677889806 $414 124.47157200842312 $166 $416 forward 7 unknown #
coedge $-1 $167 $406 $412 $417 forward $270 $-1 #
vertex $-1 $278 $418 #
vertex $-1 $168 $419 #
straight-curve $-1 20.391601056939873 -6.8588087610107209 16.762385301112687 -1 0 0 I I #
coedge $-1 $284 $284 $-1 $420 reversed $171 $-1 #
edge $-1 $421 0 $421 6.2831853071796004 $172 $422 forward 7 unknown #
vertex $-1 $175 $423 #
ellipse-curve $-1 56.374299959743617 -11.410882076761332 12.182890412115878 0.61566148304635926 0 0.78801074757464917 1.5760214951492983 0 -1.2313229660927185 1 I I #
face $-1 $-1 $300 $38 $-1 $424 forward single #
loop $-1 $-1 $425 $176 #
plane-surface $-1 -62.235786004211555 0 0 1 0 0 0 0 -1 forward_v I I I I #
coedge $-1 $426 $427 $428 $429 reversed $177 $-1 #
coedge $-1 $430 $179 $181 $298 forward $110 $-1 #
coedge $-1 $179 $430 $426 $431 forward $110 $-1 #
coedge $-1 $428 $182 $179 $295 forward $300 $-1 #
edge $-1 $302 -8.9950187591294508 $432 -0.05380600860451068 $294 $433 forward 7 unknown #
coedge $-1 $434 $435 $180 $297 forward $289 $-1 #
edge $-1 $436 -38.916164622503565 $301 -25.982147558325646 $296 $437 forward 7 unknown #
edge $-1 $302 -17.137740478016219 $436 1.0694430631949516e-014 $181 $438 forward 7 unknown #
coedge $-1 $182 $428 $434 $439 forward $300 $-1 #
loop $-1 $-1 $428 $288 #
vertex $-1 $297 $440 #
vertex $-1 $183 $441 #
straight-curve $-1 -78.087837448024672 -13.519431142996432 16.762385301112687 1 0 0 I I #
coedge $-1 $304 $304 $-1 $442 reversed $186 $-1 #
edge $-1 $443 0 $443 6.2831853071796004 $187 $444 forward 7 unknown #
vertex $-1 $190 $445 #
ellipse-curve $-1 -56.614101397365708 -10.964798928560736 10.295376769023729 -0.75470958851134928 0 0.65605901945558964 0.65605901945558964 0 0.75470958851134928 1 I I #
coedge $-1 $308 $308 $-1 $446 reversed $193 $-1 #
edge $-1 $447 0 $447 6.2831853071796004 $194 $448 forward 7 unknown #
vertex $-1 $197 $449 #
ellipse-curve $-1 -56.614101397365708 -7.1328506069071906 10.295376769023729 -0.75470958851134928 0 0.65605901945558964 0.65605901945558964 0 0.75470958851134928 1 I I #
face $-1 $-1 $450 $41 $-1 $451 reversed single #
loop $-1 $-1 $204 $198 #
plane-surface $-1 0 0 16.76238530111269 0 0 1 1 0 0 forward_v I I I I #
coedge $-1 $452 $453 $454 $455 reversed $199 $-1 #
coedge $-1 $456 $201 $203 $322 forward $124 $-1 #
coedge $-1 $201 $456 $452 $457 forward $124 $-1 #
coedge $-1 $454 $204 $201 $319 forward $313 $-1 #
edge $-1 $325 0.053806008604514233 $458 8.9950187591294544 $318 $459 forward 7 unknown #
coedge $-1 $460 $461 $202 $321 forward $450 $-1 #
edge $-1 $462 -38.916164622503565 $324 -25.982147558325646 $320 $463 forward 7 unknown #
edge $-1 $325 -17.137740478016219 $462 1.0694430631949516e-014 $203 $464 forward 7 unknown #
coedge $-1 $204 $454 $460 $465 forward $313 $-1 #
vertex $-1 $205 $466 #
vertex $-1 $205 $467 #
straight-curve $-1 -78.087837448024672 4.5782183924714985 16.762385301112687 1 0 0 I I #
coedge $-1 $327 $327 $-1 $468 reversed $208 $-1 #
edge $-1 $469 0 $469 6.2831853071796004 $209 $470 forward 7 unknown #
vertex $-1 $212 $471 #
ellipse-curve $-1 -56.614101397365708 7.1328506069071906 10.295376769023729 -0.75470958851134928 0 0.65605901945558964 0.65605901945558964 0 0.75470958851134928 1 I I #
coedge $-1 $331 $331 $-1 $472 reversed $215 $-1 #
edge $-1 $473 0 $473 6.2831853071796004 $216 $474 forward 7 unknown #
vertex $-1 $219 $475 #
ellipse-curve $-1 -56.614101397365708 10.964798928560732 10.295376769023729 -0.75470958851134928 0 0.65605901945558964 0.65605901945558964 0 0.75470958851134928 1 I I #
face $-1 $-1 $235 $33 $-1 $476 reversed single #
loop $-1 $-1 $351 $220 #
plane-surface $-1 0 40.513754990821077 0 0 -1 0 0 0 -1 forward_v I I I I #
coedge $-1 $477 $348 $351 $478 forward $221 $-1 #
coedge $-1 $223 $354 $224 $342 reversed $138 $-1 #
edge $-1 $236 -16.76238530111269 $346 16.76238530111269 $233 $479 forward 7 unknown #
coedge $-1 $225 $224 $477 $480 forward $89 $-1 #
edge $-1 $346 -62.235786004211555 $481 62.235786004211555 $339 $482 forward 7 unknown #
coedge $-1 $351 $350 $225 $344 reversed $336 $-1 #
edge $-1 $483 -62.235786004211555 $345 62.235786004211555 $343 $484 forward 7 unknown #
vertex $-1 $227 $485 #
vertex $-1 $340 $486 #
straight-curve $-1 62.235786004211555 0 -16.76238530111269 0 -1 0 I I #
coedge $-1 $338 $487 $228 $349 reversed $221 $-1 #
edge $-1 $352 -40.513754990821077 $355 40.513754990821077 $348 $488 forward 7 unknown #
coedge $-1 $343 $229 $234 $357 forward $336 $-1 #
coedge $-1 $229 $343 $338 $478 reversed $336 $-1 #
vertex $-1 $230 $489 #
straight-curve $-1 0 40.513754990821077 16.76238530111269 -1 0 0 I I #
coedge $-1 $339 $231 $487 $490 forward $138 $-1 #
vertex $-1 $349 $491 #
straight-curve $-1 0 -40.513754990821077 16.76238530111269 1 0 0 I I #
edge $-1 $237 -16.76238530111269 $345 16.76238530111269 $234 $492 forward 7 unknown #
point $-1 62.235786004211555 -40.513754990821077 16.76238530111269 #
point $-1 62.235786004211555 40.513754990821077 16.76238530111269 #
face $-1 $-1 $374 $34 $-1 $493 reversed single #
loop $-1 $-1 $494 $239 #
plane-surface $-1 0 -61.909468828242794 -13.662466901224004 0 1 0 0 0 1 forward_v I I I I #
coedge $-1 $495 $242 $251 $378 reversed $146 $-1 #
coedge $-1 $242 $495 $243 $366 reversed $146 $-1 #
coedge $-1 $244 $243 $496 $497 forward $93 $-1 #
edge $-1 $370 40.513754990821077 $498 61.909468828242794 $364 $499 forward 7 unknown #
coedge $-1 $500 $248 $244 $368 reversed $374 $-1 #
edge $-1 $501 -61.909468828242794 $369 -40.513754990821077 $367 $502 forward 7 unknown #
vertex $-1 $249 $503 #
vertex $-1 $366 $504 #
straight-curve $-1 0 -40.513754990821077 -16.76238530111269 1 0 0 I I #
straight-curve $-1 62.235786004211555 -40.513754990821077 0 0 0 1 I I #
coedge $-1 $248 $500 $250 $377 reversed $374 $-1 #
loop $-1 $-1 $248 $360 #
straight-curve $-1 -62.235786004211555 -40.513754990821077 0 0 0 -1 I I #
coedge $-1 $251 $250 $505 $506 forward $240 $-1 #
edge $-1 $252 -10.697856918710855 $507 10.697856918710855 $373 $508 forward 7 unknown #
edge $-1 $509 -10.697856918710855 $253 10.697856918710855 $363 $510 forward 7 unknown #
point $-1 -62.235786004211555 -40.513754990821084 -10.562548501335318 #
point $-1 62.235786004211555 -40.513754990821084 -10.562548501335318 #
face $-1 $-1 $397 $35 $-1 $511 reversed single #
loop $-1 $-1 $394 $255 #
plane-surface $-1 0 0 -16.76238530111269 0 0 1 1 0 0 forward_v I I I I #
coedge $-1 $512 $513 $514 $515 forward $256 $-1 #
coedge $-1 $265 $258 $513 $516 forward $154 $-1 #
coedge $-1 $263 $514 $258 $387 reversed $397 $-1 #
edge $-1 $266 -10.697856918710862 $517 10.697856918710862 $386 $518 forward 7 unknown #
coedge $-1 $260 $259 $519 $520 forward $97 $-1 #
edge $-1 $521 -10.697856918710862 $267 10.697856918710862 $259 $522 forward 7 unknown #
coedge $-1 $523 $394 $260 $391 forward $382 $-1 #
edge $-1 $392 -10.697856918710855 $524 10.697856918710862 $260 $525 forward 7 unknown #
vertex $-1 $391 $526 #
straight-curve $-1 -62.235786004211555 40.513754990821077 0 0 0 1 I I #
coedge $-1 $390 $527 $262 $395 forward $382 $-1 #
edge $-1 $398 -62.235786004211555 $392 62.235786004211555 $394 $528 forward 7 unknown #
coedge $-1 $514 $263 $527 $529 reversed $397 $-1 #
loop $-1 $-1 $263 $381 #
vertex $-1 $264 $530 #
straight-curve $-1 62.235786004211555 40.513754990821077 0 0 0 -1 I I #
point $-1 62.235786004211555 40.51375499082107 -10.562548501335318 #
point $-1 -62.235786004211555 40.51375499082107 -10.562548501335318 #
loop $-1 $-1 $277 $269 #
plane-surface $-1 62.235786004211555 0 0 -1 0 0 0 0 1 forward_v I I I I #
coedge $-1 $405 $272 $274 $409 reversed $162 $-1 #
coedge $-1 $272 $404 $531 $532 reversed $162 $-1 #
coedge $-1 $280 $275 $272 $407 forward $270 $-1 #
edge $-1 $410 30.121212858335834 $533 41.844184947271685 $406 $534 forward 7 unknown #
coedge $-1 $274 $273 $413 $535 reversed $101 $-1 #
edge $-1 $536 -124.47157200842312 $410 -109.59490677889806 $404 $537 forward 7 unknown #
vertex $-1 $276 $538 #
straight-curve $-1 50.512813915275714 -5.7054410383806662 16.762385301112687 0 -1 0 I I #
coedge $-1 $531 $277 $280 $417 reversed $402 $-1 #
coedge $-1 $277 $531 $408 $535 forward $402 $-1 #
vertex $-1 $278 $539 #
straight-curve $-1 62.235786004211555 -6.8588087610107209 91.160342326542917 0 0 1 I I #
straight-curve $-1 -35.849150505937736 -6.8588087610107209 84.235748142936558 0.78801074757464917 0 -0.61566148304635926 I I #
edge $-1 $533 -15.962955392511944 $281 -6.8588087610107209 $412 $540 forward 7 unknown #
point $-1 62.235786004211555 -6.8588087610107209 16.76238530111269 #
point $-1 50.512813915275707 -6.8588087610107209 16.762385301112687 #
edge $-1 $541 1 $541 0 $284 $-1 forward 7 unknown #
vertex $-1 $285 $542 #
ellipse-curve $-1 55.040388667059119 -11.410882076761332 10.475561849436533 0.61566148304635926 0 0.78801074757464917 1.5760214951492983 0 -1.2313229660927185 1 I I #
point $-1 57.950321454892929 -11.410882076761332 10.951567446023176 #
plane-surface $-1 0 0 16.76238530111269 0 0 1 1 0 0 forward_v I I I I #
coedge $-1 $435 $434 $427 $543 forward $289 $-1 #
coedge $-1 $427 $291 $293 $431 reversed $177 $-1 #
coedge $-1 $291 $426 $425 $543 reversed $177 $-1 #
coedge $-1 $299 $294 $291 $429 forward $300 $-1 #
edge $-1 $432 -27.09542065750481 $544 -15.852051443813117 $428 $545 forward 7 unknown #
coedge $-1 $293 $292 $435 $546 reversed $110 $-1 #
edge $-1 $547 -1.0694430631949516e-014 $432 17.137740478016219 $426 $548 forward 7 unknown #
vertex $-1 $295 $549 #
straight-curve $-1 -50.992416790519862 -4.5244123838669807 16.76238530111269 0 1 0 I I #
coedge $-1 $425 $296 $299 $439 reversed $289 $-1 #
coedge $-1 $296 $425 $430 $546 forward $289 $-1 #
vertex $-1 $297 $550 #
straight-curve $-1 -62.235786004211555 -13.519431142996432 42.744532859438337 0 0 1 I I #
straight-curve $-1 -62.235786004211548 -13.519431142996432 3.8283682369347787 -0.65605901945558964 0 -0.75470958851134928 I I #
edge $-1 $544 4.5782183924714914 $301 13.519431142996432 $434 $551 forward 7 unknown #
point $-1 -62.235786004211555 -13.519431142996432 16.76238530111269 #
point $-1 -50.992416790519862 -13.519431142996432 16.76238530111269 #
edge $-1 $552 1 $552 0 $304 $-1 forward 7 unknown #
vertex $-1 $305 $553 #
ellipse-curve $-1 -55.330931565353147 -10.964798928560736 9.1799342801510804 -0.75470958851134928 0 0.65605901945558964 0.65605901945558964 0 0.75470958851134928 1 I I #
point $-1 -55.958042377910125 -10.964798928560736 11.050086357535086 #
edge $-1 $554 1 $554 0 $308 $-1 forward 7 unknown #
vertex $-1 $309 $555 #
ellipse-curve $-1 -55.330931565353147 -7.1328506069071906 9.1799342801510804 -0.75470958851134928 0 0.65605901945558964 0.65605901945558964 0 0.75470958851134928 1 I I #
point $-1 -55.958042377910125 -7.1328506069071906 11.050086357535086 #
loop $-1 $-1 $320 $312 #
plane-surface $-1 -62.235786004211555 0 0 1 0 0 0 0 -1 forward_v I I I I #
coedge $-1 $453 $315 $317 $457 reversed $199 $-1 #
coedge $-1 $315 $452 $556 $557 reversed $199 $-1 #
coedge $-1 $323 $318 $315 $455 forward $313 $-1 #
edge $-1 $458 -27.09542065750481 $558 -15.852051443813117 $454 $559 forward 7 unknown #
coedge $-1 $317 $316 $461 $560 reversed $124 $-1 #
edge $-1 $561 -1.0694430631949516e-014 $458 17.137740478016219 $452 $562 forward 7 unknown #
vertex $-1 $319 $563 #
straight-curve $-1 -50.992416790519862 4.5244123838669843 16.76238530111269 0 1 0 I I #
coedge $-1 $556 $320 $323 $465 reversed $450 $-1 #
coedge $-1 $320 $556 $456 $560 forward $450 $-1 #
vertex $-1 $321 $564 #
straight-curve $-1 -62.235786004211555 4.5782183924714985 42.744532859438337 0 0 1 I I #
straight-curve $-1 -62.235786004211548 4.5782183924714985 3.8283682369347787 -0.65605901945558964 0 -0.75470958851134928 I I #
edge $-1 $558 -13.519431142996439 $324 -4.5782183924714985 $460 $565 forward 7 unknown #
point $-1 -62.235786004211555 4.5782183924714985 16.76238530111269 #
point $-1 -50.992416790519862 4.5782183924714985 16.76238530111269 #
edge $-1 $566 1 $566 0 $327 $-1 forward 7 unknown #
vertex $-1 $328 $567 #
ellipse-curve $-1 -55.330931565353147 7.1328506069071906 9.1799342801510804 -0.75470958851134928 0 0.65605901945558964 0.65605901945558964 0 0.75470958851134928 1 I I #
point $-1 -55.958042377910125 7.1328506069071906 11.050086357535086 #
edge $-1 $568 1 $568 0 $331 $-1 forward 7 unknown #
vertex $-1 $332 $569 #
ellipse-curve $-1 -55.330931565353147 10.964798928560732 9.1799342801510804 -0.75470958851134928 0 0.65605901945558964 0.65605901945558964 0 0.75470958851134928 1 I I #
point $-1 -55.958042377910125 10.964798928560732 11.050086357535086 #
plane-surface $-1 62.235786004211555 0 0 -1 0 0 0 0 1 forward_v I I I I #
coedge $-1 $487 $338 $341 $480 reversed $221 $-1 #
edge $-1 $352 -16.76238530111269 $483 16.76238530111269 $351 $570 forward 7 unknown #
straight-curve $-1 62.235786004211555 -40.513754990821077 0 0 0 -1 I I #
edge $-1 $481 -40.513754990821077 $483 40.513754990821077 $477 $571 forward 7 unknown #
vertex $-1 $480 $572 #
straight-curve $-1 0 -40.513754990821077 -16.76238530111269 -1 0 0 I I #
vertex $-1 $344 $573 #
straight-curve $-1 0 40.513754990821077 -16.76238530111269 1 0 0 I I #
point $-1 62.235786004211555 40.513754990821077 -16.76238530111269 #
point $-1 62.235786004211555 -40.513754990821077 -16.76238530111269 #
coedge $-1 $348 $477 $354 $490 reversed $221 $-1 #
straight-curve $-1 -62.235786004211555 0 16.76238530111269 0 -1 0 I I #
point $-1 -62.235786004211555 40.513754990821077 16.76238530111269 #
edge $-1 $355 -16.76238530111269 $481 16.76238530111269 $487 $574 forward 7 unknown #
point $-1 -62.235786004211555 -40.513754990821077 16.76238530111269 #
straight-curve $-1 62.235786004211555 40.513754990821077 0 0 0 -1 I I #
plane-surface $-1 -62.235786004211555 0 0 1 0 0 0 0 -1 forward_v I I I I #
coedge $-1 $496 $505 $500 $575 forward $361 $-1 #
coedge $-1 $364 $363 $576 $577 forward $146 $-1 #
coedge $-1 $576 $494 $365 $497 reversed $361 $-1 #
edge $-1 $498 -62.235786004211555 $501 62.235786004211555 $496 $578 forward 7 unknown #
vertex $-1 $577 $579 #
straight-curve $-1 62.235786004211555 0 -16.76238530111269 0 -1 0 I I #
coedge $-1 $373 $367 $494 $575 reversed $374 $-1 #
vertex $-1 $368 $580 #
straight-curve $-1 -62.235786004211555 0 -16.76238530111269 0 1 0 I I #
point $-1 -62.235786004211555 -40.513754990821077 -16.76238530111269 #
point $-1 62.235786004211555 -40.513754990821077 -16.76238530111269 #
coedge $-1 $494 $576 $376 $506 reversed $361 $-1 #
edge $-1 $507 -62.235786004211555 $509 62.235786004211555 $505 $581 forward 7 unknown #
vertex $-1 $377 $582 #
straight-curve $-1 -62.235786004211555 -51.211611909531939 -10.562548501335318 0 -1 0 I I #
vertex $-1 $378 $583 #
straight-curve $-1 62.235786004211555 -51.211611909531939 -10.562548501335318 0 1 0 I I #
plane-surface $-1 62.235786004211555 0 0 -1 0 0 0 0 1 forward_v I I I I #
coedge $-1 $519 $384 $523 $584 reversed $256 $-1 #
coedge $-1 $384 $519 $385 $516 reversed $256 $-1 #
coedge $-1 $386 $396 $384 $515 reversed $397 $-1 #
edge $-1 $517 -3.0999183998886863 $585 3.0999183998886863 $514 $586 forward 7 unknown #
edge $-1 $517 -62.235786004211555 $521 62.235786004211555 $513 $587 forward 7 unknown #
vertex $-1 $387 $588 #
straight-curve $-1 62.235786004211555 51.211611909531932 -10.562548501335318 0 1 0 I I #
coedge $-1 $513 $512 $388 $520 reversed $256 $-1 #
edge $-1 $521 -3.0999183998886863 $524 3.0999183998886863 $519 $589 forward 7 unknown #
vertex $-1 $516 $590 #
straight-curve $-1 -62.235786004211555 51.211611909531932 -10.562548501335318 0 -1 0 I I #
coedge $-1 $527 $390 $512 $584 forward $382 $-1 #
vertex $-1 $584 $591 #
straight-curve $-1 -62.235786004211555 51.211611909531932 -16.76238530111269 0 1 0 I I #
point $-1 -62.235786004211555 40.513754990821077 -16.76238530111269 #
coedge $-1 $394 $523 $396 $529 forward $382 $-1 #
straight-curve $-1 0 40.513754990821077 -16.76238530111269 -1 0 0 I I #
edge $-1 $585 -61.909468828242794 $398 -40.513754990821077 $396 $592 forward 7 unknown #
point $-1 62.235786004211555 40.513754990821077 -16.76238530111269 #
coedge $-1 $413 $412 $405 $532 forward $402 $-1 #
edge $-1 $533 74.39795702543023 $536 83.556946803423841 $531 $593 forward 7 unknown #
vertex $-1 $417 $594 #
straight-curve $-1 20.391601056939873 -15.962955392511944 16.762385301112687 1 0 0 I I #
edge $-1 $536 -10.257514354131278 $414 -1.1533677226300547 $413 $595 forward 7 unknown #
vertex $-1 $535 $596 #
straight-curve $-1 -35.849150505937736 -15.962955392511944 84.235748142936558 -0.78801074757464917 0 0.61566148304635926 I I #
point $-1 50.512813915275707 -15.962955392511944 16.762385301112687 #
point $-1 62.235786004211555 -6.8588087610107209 7.603395523119076 #
straight-curve $-1 62.235786004211555 0 16.76238530111269 0 1 0 I I #
vertex $-1 $420 $597 #
point $-1 56.616410162208417 -11.410882076761332 9.2442388833438134 #
edge $-1 $544 25.982147558325646 $547 38.916164622503565 $425 $598 forward 7 unknown #
vertex $-1 $439 $599 #
straight-curve $-1 -78.087837448024672 -4.5782183924714914 16.762385301112687 -1 0 0 I I #
edge $-1 $547 0.05380600860451068 $436 8.9950187591294508 $435 $600 forward 7 unknown #
vertex $-1 $546 $601 #
straight-curve $-1 -62.235786004211548 -4.5782183924714914 3.8283682369347787 0.65605901945558964 0 0.75470958851134928 I I #
point $-1 -50.992416790519862 -4.5782183924714914 16.76238530111269 #
point $-1 -62.235786004211555 -13.519431142996432 3.8283682369347707 #
straight-curve $-1 -62.235786004211555 0 16.76238530111269 0 -1 0 I I #
vertex $-1 $442 $602 #
point $-1 -54.674872545897557 -10.964798928560736 9.9346438686624303 #
vertex $-1 $446 $603 #
point $-1 -54.674872545897557 -7.1328506069071906 9.9346438686624303 #
coedge $-1 $461 $460 $453 $557 forward $450 $-1 #
edge $-1 $558 25.982147558325646 $561 38.916164622503565 $556 $604 forward 7 unknown #
vertex $-1 $465 $605 #
straight-curve $-1 -78.087837448024672 13.519431142996439 16.762385301112687 -1 0 0 I I #
edge $-1 $561 -8.9950187591294544 $462 -0.053806008604514233 $461 $606 forward 7 unknown #
vertex $-1 $560 $607 #
straight-curve $-1 -62.235786004211548 13.519431142996439 3.8283682369347787 0.65605901945558964 0 0.75470958851134928 I I #
point $-1 -50.992416790519862 13.519431142996439 16.76238530111269 #
point $-1 -62.235786004211555 4.5782183924714985 3.8283682369347707 #
straight-curve $-1 -62.235786004211555 0 16.76238530111269 0 -1 0 I I #
vertex $-1 $468 $608 #
point $-1 -54.674872545897557 7.1328506069071906 9.9346438686624303 #
vertex $-1 $472 $609 #
point $-1 -54.674872545897557 10.964798928560732 9.9346438686624303 #
straight-curve $-1 -62.235786004211555 40.513754990821077 0 0 0 -1 I I #
straight-curve $-1 -62.235786004211555 0 -16.76238530111269 0 1 0 I I #
point $-1 -62.235786004211555 -40.513754990821077 -16.76238530111269 #
point $-1 -62.235786004211555 40.513754990821077 -16.76238530111269 #
straight-curve $-1 -62.235786004211555 -40.513754990821077 0 0 0 -1 I I #
edge $-1 $507 -3.0999183998886863 $501 3.0999183998886863 $500 $610 forward 7 unknown #
coedge $-1 $505 $496 $495 $577 reversed $361 $-1 #
edge $-1 $509 -3.0999183998886863 $498 3.0999183998886863 $495 $611 forward 7 unknown #
straight-curve $-1 0 -61.909468828242794 -16.76238530111269 -1 0 0 I I #
point $-1 62.235786004211555 -61.909468828242794 -16.76238530111269 #
point $-1 -62.235786004211555 -61.909468828242794 -16.76238530111269 #
straight-curve $-1 0 -61.909468828242794 -10.562548501335318 1 0 0 I I #
point $-1 -62.235786004211555 -61.909468828242794 -10.562548501335318 #
point $-1 62.235786004211555 -61.909468828242794 -10.562548501335318 #
edge $-1 $524 -62.235786004211555 $585 62.235786004211555 $512 $612 forward 7 unknown #
vertex $-1 $529 $613 #
straight-curve $-1 62.235786004211555 61.909468828242794 -13.662466901224004 0 0 -1 I I #
straight-curve $-1 0 61.909468828242794 -10.562548501335318 -1 0 0 I I #
point $-1 62.235786004211555 61.909468828242794 -10.562548501335318 #
straight-curve $-1 -62.235786004211555 61.909468828242794 -13.662466901224004 0 0 -1 I I #
point $-1 -62.235786004211555 61.909468828242794 -10.562548501335318 #
point $-1 -62.235786004211555 61.909468828242794 -16.76238530111269 #
straight-curve $-1 62.235786004211555 0 -16.76238530111269 0 -1 0 I I #
straight-curve $-1 62.235786004211555 -15.962955392511944 91.160342326542917 0 0 -1 I I #
point $-1 62.235786004211555 -15.962955392511944 16.76238530111269 #
straight-curve $-1 62.235786004211562 -5.7054410383806662 7.6033955231190689 0 1 0 I I #
point $-1 62.235786004211555 -15.962955392511944 7.603395523119076 #
point $-1 53.8090657009664 -11.410882076761332 8.8995403542872307 #
straight-curve $-1 -62.235786004211555 -4.5782183924714914 42.744532859438337 0 0 -1 I I #
point $-1 -62.235786004211555 -4.5782183924714914 16.76238530111269 #
straight-curve $-1 -62.235786004211555 -4.5244123838669807 3.8283682369347627 0 -1 0 I I #
point $-1 -62.235786004211555 -4.5782183924714914 3.8283682369347707 #
point $-1 -54.576221976841801 -10.964798928560736 8.5238752606954904 #
point $-1 -54.576221976841801 -7.1328506069071906 8.5238752606954904 #
straight-curve $-1 -62.235786004211555 13.519431142996439 42.744532859438337 0 0 -1 I I #
point $-1 -62.235786004211555 13.519431142996439 16.76238530111269 #
straight-curve $-1 -62.235786004211555 4.5244123838669843 3.8283682369347627 0 -1 0 I I #
point $-1 -62.235786004211555 13.519431142996439 3.8283682369347707 #
point $-1 -54.576221976841801 7.1328506069071906 8.5238752606954904 #
point $-1 -54.576221976841801 10.964798928560732 8.5238752606954904 #
straight-curve $-1 -62.235786004211555 -61.909468828242794 -13.662466901224004 0 0 -1 I I #
straight-curve $-1 62.235786004211555 -61.909468828242794 -13.662466901224004 0 0 -1 I I #
straight-curve $-1 0 61.909468828242794 -16.76238530111269 1 0 0 I I #
point $-1 62.235786004211555 61.909468828242794 -16.76238530111269 #
End-of-ACIS-data 