500 0 11 0           
7 Unknown 11 ACIS 5.0 NT 24 Fri Mar 26 16:52:38 1999 
-1 9.9999999999999995e-007 1e-010 
body $-1 $11 $-1 $12 #
body $-1 $13 $-1 $14 #
body $-1 $15 $-1 $16 #
body $-1 $17 $-1 $18 #
body $-1 $19 $-1 $20 #
body $-1 $21 $-1 $22 #
body $-1 $23 $-1 $24 #
body $-1 $25 $-1 $26 #
body $-1 $27 $-1 $28 #
body $-1 $29 $-1 $30 #
body $-1 $31 $-1 $32 #
lump $-1 $-1 $33 $0 #
transform $-1 1 0 0 0 1 0 0 0 1 58.474684896389661 26.962385073216424 8.2816742700855741 1 rotate no_reflect no_shear #
lump $-1 $-1 $34 $1 #
transform $-1 1 0 0 0 1 0 0 0 1 58.474684896389661 26.962385073216424 8.2816742700855741 1 rotate no_reflect no_shear #
lump $-1 $-1 $35 $2 #
transform $-1 1 0 0 0 1 0 0 0 1 58.474684896389661 26.962385073216424 8.2816742700855741 1 rotate no_reflect no_shear #
lump $-1 $-1 $36 $3 #
transform $-1 1 0 0 0 1 0 0 0 1 58.474684896389661 26.962385073216424 8.2816742700855741 1 rotate no_reflect no_shear #
lump $-1 $-1 $37 $4 #
transform $-1 1 0 0 0 1 0 0 0 1 58.474684896389661 26.962385073216424 8.2816742700855741 1 rotate no_reflect no_shear #
lump $-1 $-1 $38 $5 #
transform $-1 1 0 0 0 1 0 0 0 1 58.474684896389661 26.962385073216424 8.2816742700855741 1 rotate no_reflect no_shear #
lump $-1 $-1 $39 $6 #
transform $-1 1 0 0 0 1 0 0 0 1 58.474684896389661 26.962385073216424 8.2816742700855741 1 rotate no_reflect no_shear #
lump $-1 $-1 $40 $7 #
transform $-1 1 0 0 0 1 0 0 0 1 58.474684896389661 26.962385073216424 8.2816742700855741 1 rotate no_reflect no_shear #
lump $-1 $-1 $41 $8 #
transform $-1 1 0 0 0 1 0 0 0 1 58.474684896389661 26.962385073216424 8.2816742700855741 1 rotate no_reflect no_shear #
lump $-1 $-1 $42 $9 #
transform $-1 1 0 0 0 1 0 0 0 1 58.474684896389661 26.962385073216424 8.2816742700855741 1 rotate no_reflect no_shear #
lump $-1 $-1 $43 $10 #
transform $-1 1 0 0 0 1 0 0 0 1 58.474684896389661 26.962385073216424 8.2816742700855741 1 rotate no_reflect no_shear #
shell $-1 $-1 $-1 $44 $-1 $11 #
shell $-1 $-1 $-1 $45 $-1 $13 #
shell $-1 $-1 $-1 $46 $-1 $15 #
shell $-1 $-1 $-1 $47 $-1 $17 #
shell $-1 $-1 $-1 $48 $-1 $19 #
shell $-1 $-1 $-1 $49 $-1 $21 #
shell $-1 $-1 $-1 $50 $-1 $23 #
shell $-1 $-1 $-1 $51 $-1 $25 #
shell $-1 $-1 $-1 $52 $-1 $27 #
shell $-1 $-1 $-1 $53 $-1 $29 #
shell $-1 $-1 $-1 $54 $-1 $31 #
face $-1 $55 $56 $33 $-1 $57 reversed single #
face $-1 $58 $59 $34 $-1 $60 forward single #
face $-1 $61 $62 $35 $-1 $63 reversed single #
face $-1 $64 $65 $36 $-1 $66 forward single #
face $-1 $67 $68 $37 $-1 $69 forward single #
face $-1 $70 $71 $38 $-1 $72 reversed single #
face $-1 $73 $74 $39 $-1 $75 forward single #
face $-1 $76 $77 $40 $-1 $78 forward single #
face $-1 $79 $80 $41 $-1 $81 reversed single #
face $-1 $82 $83 $42 $-1 $84 forward single #
face $-1 $85 $86 $43 $-1 $87 forward single #
face $-1 $88 $89 $33 $-1 $90 forward single #
loop $-1 $-1 $91 $44 #
plane-surface $-1 -58.474684896389661 0 0 1 0 0 0 0 -1 forward_v I I I I #
face $-1 $92 $93 $34 $-1 $94 reversed single #
loop $-1 $-1 $95 $45 #
plane-surface $-1 -58.474684896389661 0 0 1 0 0 0 0 -1 forward_v I I I I #
face $-1 $96 $97 $35 $-1 $98 reversed single #
loop $-1 $-1 $99 $46 #
plane-surface $-1 10.92906364952384 40.973214709068813 131.23645904575835 1 0 0 0 -0.51503808176128008 -0.85716729658548041 forward_v I I I I #
face $-1 $100 $101 $36 $-1 $102 forward single #
loop $-1 $103 $104 $47 #
cone-surface $-1 14.837428058131152 21.645143544697497 3.9132331306776971 0 -0.51503808176128008 -0.85716729658548041 1.5 0 0 1 I I 0 1 1.5 forward I I I I #
face $-1 $105 $106 $37 $-1 $107 forward single #
loop $-1 $108 $109 $48 #
cone-surface $-1 20.699974671042128 21.645143544697497 3.9132331306776971 0 -0.51503808176128008 -0.85716729658548041 1.5 0 0 1 I I 0 1 1.5 forward I I I I #
face $-1 $110 $111 $38 $-1 $112 reversed single #
loop $-1 $-1 $113 $49 #
plane-surface $-1 3.7659313239588066 -120.36230562916671 72.565833820134515 -1 0 0 0 -0.79863551827123203 0.60181501223851219 forward_v I I I I #
face $-1 $114 $115 $39 $-1 $116 forward single #
loop $-1 $117 $118 $50 #
cone-surface $-1 -4.7458404498457085 -23.278434224501986 4.188032647952328 0 0.79863551827123203 -0.60181501223851219 1 0 0 1 I I 0 1 1 forward I I I I #
face $-1 $119 $120 $40 $-1 $121 forward single #
loop $-1 $122 $123 $51 #
cone-surface $-1 0.36122261443699699 -23.278434224501986 4.188032647952328 0 0.79863551827123203 -0.60181501223851219 1 0 0 1 I I 0 1 1 forward I I I I #
face $-1 $124 $125 $41 $-1 $126 reversed single #
loop $-1 $-1 $127 $52 #
plane-surface $-1 15.682411807285117 -120.36230562916671 72.565833820134515 -1 0 0 0 -0.79863551827123203 0.60181501223851219 forward_v I I I I #
face $-1 $128 $129 $42 $-1 $130 forward single #
loop $-1 $131 $132 $53 #
cone-surface $-1 7.1706400334806091 -23.278434224501986 4.188032647952328 0 0.79863551827123203 -0.60181501223851219 1 0 0 1 I I 0 1 1 forward I I I I #
face $-1 $133 $134 $43 $-1 $135 forward single #
loop $-1 $136 $137 $54 #
cone-surface $-1 12.277703097763307 -23.278434224501986 4.188032647952328 0 0.79863551827123203 -0.60181501223851219 1 0 0 1 I I 0 1 1 forward I I I I #
face $-1 $138 $139 $33 $-1 $140 reversed single #
loop $-1 $-1 $141 $55 #
plane-surface $-1 0 0 8.2816742700855741 0 0 1 1 0 0 forward_v I I I I #
coedge $-1 $142 $143 $144 $145 reversed $56 $-1 #
face $-1 $146 $147 $34 $-1 $148 reversed single #
loop $-1 $-1 $149 $58 #
plane-surface $-1 0 0 -8.2816742700855741 0 0 1 1 0 0 forward_v I I I I #
coedge $-1 $150 $151 $152 $153 forward $59 $-1 #
face $-1 $154 $155 $35 $-1 $156 reversed single #
loop $-1 $-1 $157 $61 #
plane-surface $-1 17.768701364586647 -19.260164372194843 30.991283903106051 0 0.51503808176128008 0.85716729658548041 1 0 0 forward_v I I I I #
coedge $-1 $158 $159 $160 $161 reversed $62 $-1 #
face $-1 $-1 $162 $36 $-1 $163 forward single #
loop $-1 $164 $165 $64 #
cone-surface $-1 14.837428058131152 20.155329837490278 1.4337667901388187 0 -0.51503808176128008 -0.85716729658548041 0.75 0 0 1 I I -0.70710678118654757 0.70710678118654757 0.75 forward I I I I #
loop $-1 $-1 $166 $47 #
coedge $-1 $104 $104 $167 $168 reversed $65 $-1 #
face $-1 $-1 $169 $37 $-1 $170 forward single #
loop $-1 $171 $172 $67 #
cone-surface $-1 20.699974671042128 20.155329837490278 1.4337667901388187 0 -0.51503808176128008 -0.85716729658548041 0.75 0 0 1 I I -0.70710678118654757 0.70710678118654757 0.75 forward I I I I #
loop $-1 $-1 $173 $48 #
coedge $-1 $109 $109 $174 $175 reversed $68 $-1 #
face $-1 $176 $177 $38 $-1 $178 reversed single #
loop $-1 $-1 $179 $70 #
plane-surface $-1 -2.1923089177043522 -26.962385073216439 2.1839474070067411 0 -0.79863551827123203 0.60181501223851219 1 0 0 forward_v I I I I #
coedge $-1 $180 $181 $182 $183 reversed $71 $-1 #
face $-1 $-1 $184 $39 $-1 $185 forward single #
loop $-1 $186 $187 $73 #
cone-surface $-1 -4.7458404498457085 -21.492648938377052 2.8423469512392501 0 0.79863551827123203 -0.60181501223851219 0.5 0 0 1 I I -0.70710678118654746 0.70710678118654746 0.5 forward I I I I #
loop $-1 $-1 $188 $50 #
coedge $-1 $118 $118 $189 $190 reversed $74 $-1 #
face $-1 $-1 $191 $40 $-1 $192 forward single #
loop $-1 $193 $194 $76 #
cone-surface $-1 0.36122261443699699 -21.492648938377052 2.8423469512392501 0 0.79863551827123203 -0.60181501223851219 0.5 0 0 1 I I -0.70710678118654746 0.70710678118654746 0.5 forward I I I I #
loop $-1 $-1 $195 $51 #
coedge $-1 $123 $123 $196 $197 reversed $77 $-1 #
face $-1 $198 $199 $41 $-1 $200 forward single #
loop $-1 $-1 $201 $79 #
plane-surface $-1 -2.1923089177043522 -26.962385073216439 2.1839474070067411 0 -0.79863551827123203 0.60181501223851219 1 0 0 forward_v I I I I #
coedge $-1 $202 $203 $204 $205 reversed $80 $-1 #
face $-1 $-1 $206 $42 $-1 $207 forward single #
loop $-1 $208 $209 $82 #
cone-surface $-1 7.1706400334806091 -21.492648938377052 2.8423469512392501 0 0.79863551827123203 -0.60181501223851219 0.5 0 0 1 I I -0.70710678118654746 0.70710678118654746 0.5 forward I I I I #
loop $-1 $-1 $210 $53 #
coedge $-1 $132 $132 $211 $212 reversed $83 $-1 #
face $-1 $-1 $213 $43 $-1 $214 forward single #
loop $-1 $215 $216 $85 #
cone-surface $-1 12.277703097763307 -21.492648938377052 2.8423469512392501 0 0.79863551827123203 -0.60181501223851219 0.5 0 0 1 I I -0.70710678118654746 0.70710678118654746 0.5 forward I I I I #
loop $-1 $-1 $217 $54 #
coedge $-1 $137 $137 $218 $219 reversed $86 $-1 #
face $-1 $220 $221 $33 $-1 $222 reversed single #
loop $-1 $-1 $223 $88 #
plane-surface $-1 0 0 -8.2816742700855741 0 0 1 1 0 0 forward_v I I I I #
coedge $-1 $224 $225 $226 $227 forward $89 $-1 #
coedge $-1 $228 $91 $229 $230 reversed $56 $-1 #
coedge $-1 $91 $228 $231 $232 forward $56 $-1 #
coedge $-1 $233 $234 $91 $145 forward $139 $-1 #
edge $-1 $235 -26.962385073216424 $236 26.962385073216424 $91 $237 forward 7 unknown #
face $-1 $238 $239 $34 $-1 $240 reversed single #
loop $-1 $-1 $241 $92 #
plane-surface $-1 -62.240616220348471 -13.399036533045276 0 0 1 0 0 0 1 forward_v I I I I #
coedge $-1 $242 $243 $151 $244 forward $93 $-1 #
coedge $-1 $245 $95 $246 $247 reversed $59 $-1 #
coedge $-1 $95 $245 $149 $244 reversed $59 $-1 #
coedge $-1 $248 $249 $95 $153 reversed $250 $-1 #
edge $-1 $251 -8.2816742700855741 $252 8.2816742700855741 $152 $253 forward 7 unknown #
face $-1 $254 $255 $35 $-1 $256 forward single #
loop $-1 $-1 $257 $96 #
plane-surface $-1 24.608339079649454 40.973214709068813 131.23645904575835 -1 0 0 0 0.51503808176128008 0.85716729658548041 forward_v I I I I #
coedge $-1 $258 $259 $260 $261 reversed $97 $-1 #
coedge $-1 $159 $99 $262 $263 reversed $62 $-1 #
coedge $-1 $99 $158 $258 $264 reversed $62 $-1 #
coedge $-1 $260 $265 $99 $161 forward $255 $-1 #
edge $-1 $266 -6.4757777186820178 $267 1.9516350465833412 $160 $268 forward 7 unknown #
loop $-1 $-1 $167 $100 #
plane-surface $-1 17.768701364586647 -19.260164372194843 30.991283903106051 0 0.51503808176128008 0.85716729658548041 1 0 0 forward_v I I I I #
loop $-1 $-1 $269 $64 #
coedge $-1 $165 $165 $166 $270 reversed $101 $-1 #
coedge $-1 $166 $166 $165 $270 forward $103 $-1 #
coedge $-1 $167 $167 $104 $168 forward $162 $-1 #
edge $-1 $271 -2.0913331627885476e-016 $271 6.2831853071796004 $167 $272 forward 7 unknown #
loop $-1 $-1 $174 $105 #
plane-surface $-1 17.768701364586647 -19.260164372194843 30.991283903106051 0 0.51503808176128008 0.85716729658548041 1 0 0 forward_v I I I I #
loop $-1 $-1 $273 $67 #
coedge $-1 $172 $172 $173 $274 reversed $106 $-1 #
coedge $-1 $173 $173 $172 $274 forward $108 $-1 #
coedge $-1 $174 $174 $109 $175 forward $169 $-1 #
edge $-1 $275 -2.0913331627885476e-016 $275 6.2831853071796004 $174 $276 forward 7 unknown #
face $-1 $277 $278 $38 $-1 $279 forward single #
loop $-1 $-1 $280 $110 #
plane-surface $-1 -8.150549159367511 -120.36230562916671 72.565833820134515 1 0 0 0 0.79863551827123203 -0.60181501223851219 forward_v I I I I #
coedge $-1 $281 $282 $283 $284 reversed $111 $-1 #
coedge $-1 $181 $113 $285 $286 reversed $71 $-1 #
coedge $-1 $113 $180 $281 $287 reversed $71 $-1 #
coedge $-1 $283 $288 $113 $183 forward $278 $-1 #
edge $-1 $289 33.218767741366932 $290 37.813734384817138 $182 $291 forward 7 unknown #
loop $-1 $-1 $189 $114 #
plane-surface $-1 -2.1923089177043522 -26.962385073216439 2.1839474070067411 0 -0.79863551827123203 0.60181501223851219 1 0 0 forward_v I I I I #
loop $-1 $-1 $292 $73 #
coedge $-1 $187 $187 $188 $293 reversed $115 $-1 #
coedge $-1 $188 $188 $187 $293 forward $117 $-1 #
coedge $-1 $189 $189 $118 $190 forward $184 $-1 #
edge $-1 $294 -1.3783259511344542e-015 $294 6.2831853071795987 $189 $295 forward 7 unknown #
loop $-1 $-1 $196 $119 #
plane-surface $-1 -2.1923089177043522 -26.962385073216439 2.1839474070067411 0 -0.79863551827123203 0.60181501223851219 1 0 0 forward_v I I I I #
loop $-1 $-1 $296 $76 #
coedge $-1 $194 $194 $195 $297 reversed $120 $-1 #
coedge $-1 $195 $195 $194 $297 forward $122 $-1 #
coedge $-1 $196 $196 $123 $197 forward $191 $-1 #
edge $-1 $298 -1.3783259511344542e-015 $298 6.2831853071795987 $196 $299 forward 7 unknown #
face $-1 $300 $301 $41 $-1 $302 forward single #
loop $-1 $-1 $303 $124 #
plane-surface $-1 0 0 8.2816742700855741 0 0 1 1 0 0 forward_v I I I I #
coedge $-1 $304 $305 $306 $307 reversed $125 $-1 #
coedge $-1 $203 $127 $308 $309 reversed $80 $-1 #
coedge $-1 $127 $202 $303 $310 reversed $80 $-1 #
coedge $-1 $311 $312 $127 $205 forward $313 $-1 #
edge $-1 $314 -34.098969503060495 $315 -28.001242639981683 $204 $316 forward 7 unknown #
loop $-1 $-1 $211 $128 #
plane-surface $-1 -2.1923089177043522 -26.962385073216439 2.1839474070067411 0 -0.79863551827123203 0.60181501223851219 1 0 0 forward_v I I I I #
loop $-1 $-1 $317 $82 #
coedge $-1 $209 $209 $210 $318 reversed $129 $-1 #
coedge $-1 $210 $210 $209 $318 forward $131 $-1 #
coedge $-1 $211 $211 $132 $212 forward $206 $-1 #
edge $-1 $319 -1.3783259511344542e-015 $319 6.2831853071795987 $211 $320 forward 7 unknown #
loop $-1 $-1 $218 $133 #
plane-surface $-1 -2.1923089177043522 -26.962385073216439 2.1839474070067411 0 -0.79863551827123203 0.60181501223851219 1 0 0 forward_v I I I I #
loop $-1 $-1 $321 $85 #
coedge $-1 $216 $216 $217 $322 reversed $134 $-1 #
coedge $-1 $217 $217 $216 $322 forward $136 $-1 #
coedge $-1 $218 $218 $137 $219 forward $213 $-1 #
edge $-1 $323 -1.3783259511344542e-015 $323 6.2831853071795987 $218 $324 forward 7 unknown #
face $-1 $325 $326 $33 $-1 $327 reversed single #
loop $-1 $-1 $229 $138 #
plane-surface $-1 0 -26.962385073216424 0 0 1 0 0 0 1 forward_v I I I I #
coedge $-1 $234 $233 $328 $329 forward $139 $-1 #
coedge $-1 $330 $141 $331 $332 forward $89 $-1 #
coedge $-1 $141 $330 $333 $334 forward $89 $-1 #
coedge $-1 $335 $336 $141 $227 reversed $337 $-1 #
edge $-1 $338 -26.962385073216424 $339 26.962385073216424 $226 $340 forward 7 unknown #
coedge $-1 $143 $142 $330 $341 reversed $56 $-1 #
coedge $-1 $342 $333 $142 $230 forward $221 $-1 #
edge $-1 $343 -8.2816742700855741 $235 8.2816742700855741 $142 $344 forward 7 unknown #
coedge $-1 $331 $345 $143 $232 reversed $326 $-1 #
edge $-1 $346 -8.2816742700855741 $236 8.2816742700855741 $231 $347 forward 7 unknown #
coedge $-1 $223 $144 $345 $348 forward $139 $-1 #
coedge $-1 $144 $223 $342 $349 forward $139 $-1 #
vertex $-1 $145 $350 #
vertex $-1 $348 $351 #
straight-curve $-1 -58.474684896389661 0 -8.2816742700855741 0 1 0 I I #
face $-1 $352 $250 $34 $-1 $353 reversed single #
loop $-1 $-1 $354 $146 #
plane-surface $-1 -66.006547544307281 -11.899036533045276 0 1 0 0 0 0 -1 forward_v I I I I #
coedge $-1 $355 $356 $357 $358 forward $147 $-1 #
coedge $-1 $359 $149 $355 $360 forward $93 $-1 #
coedge $-1 $149 $359 $248 $361 forward $93 $-1 #
edge $-1 $251 10.399036533045276 $362 13.399036533045276 $149 $363 forward 7 unknown #
coedge $-1 $151 $150 $364 $365 forward $59 $-1 #
coedge $-1 $366 $367 $150 $247 forward $368 $-1 #
edge $-1 $369 -13.399036533045276 $252 -10.399036533045276 $246 $370 forward 7 unknown #
coedge $-1 $371 $152 $243 $361 reversed $250 $-1 #
coedge $-1 $152 $371 $366 $372 reversed $250 $-1 #
loop $-1 $-1 $152 $238 #
vertex $-1 $244 $373 #
vertex $-1 $372 $374 #
straight-curve $-1 -58.474684896389661 -10.399036533045276 0 0 0 1 I I #
face $-1 $-1 $375 $35 $-1 $376 reversed single #
loop $-1 $-1 $160 $154 #
plane-surface $-1 0 0 8.2816742700855741 0 0 1 1 0 0 forward_v I I I I #
coedge $-1 $377 $378 $379 $380 reversed $155 $-1 #
coedge $-1 $381 $157 $159 $264 forward $97 $-1 #
coedge $-1 $157 $381 $377 $382 forward $97 $-1 #
coedge $-1 $379 $160 $157 $261 forward $255 $-1 #
edge $-1 $267 2.0447129672305167 $383 15.723988397356131 $260 $384 forward 7 unknown #
coedge $-1 $385 $386 $158 $263 forward $375 $-1 #
edge $-1 $387 -62.400255795409841 $266 -57.336555252793602 $262 $388 forward 7 unknown #
edge $-1 $267 44.093068915137749 $387 53.924770146432849 $159 $389 forward 7 unknown #
coedge $-1 $160 $379 $385 $390 forward $255 $-1 #
vertex $-1 $263 $391 #
vertex $-1 $161 $392 #
straight-curve $-1 10.92906364952384 20.486607354534407 8.2816742700855741 0 -1 0 I I #
coedge $-1 $269 $269 $-1 $393 reversed $164 $-1 #
edge $-1 $394 0 $394 6.2831853071796004 $165 $395 forward 7 unknown #
vertex $-1 $168 $396 #
ellipse-curve $-1 14.837428058131152 22.748678690583748 5.7498239987774529 0 0.51503808176128008 0.85716729658548041 1.5 0 0 1 I I #
coedge $-1 $273 $273 $-1 $397 reversed $171 $-1 #
edge $-1 $398 0 $398 6.2831853071796004 $172 $399 forward 7 unknown #
vertex $-1 $175 $400 #
ellipse-curve $-1 20.699974671042128 22.748678690583748 5.7498239987774529 0 0.51503808176128008 0.85716729658548041 1.5 0 0 1 I I #
face $-1 $-1 $401 $38 $-1 $402 reversed single #
loop $-1 $-1 $182 $176 #
plane-surface $-1 0 0 8.2816742700855741 0 0 1 1 0 0 forward_v I I I I #
coedge $-1 $403 $404 $405 $406 reversed $177 $-1 #
coedge $-1 $407 $179 $181 $287 forward $111 $-1 #
coedge $-1 $179 $407 $403 $408 forward $111 $-1 #
coedge $-1 $405 $182 $179 $284 forward $278 $-1 #
edge $-1 $290 -4.8620857828109827 $409 7.0543947005153349 $283 $410 forward 7 unknown #
coedge $-1 $411 $412 $180 $286 forward $401 $-1 #
edge $-1 $413 -34.098969503060495 $289 -28.001242639981683 $285 $414 forward 7 unknown #
edge $-1 $290 -7.6351811603349296 $413 -2.3448253187574213e-014 $181 $415 forward 7 unknown #
coedge $-1 $182 $405 $411 $416 forward $278 $-1 #
vertex $-1 $183 $417 #
vertex $-1 $183 $418 #
straight-curve $-1 3.7659313239588066 -60.181152814583356 8.2816742700855741 0 1 0 I I #
coedge $-1 $292 $292 $-1 $419 reversed $186 $-1 #
edge $-1 $420 0 $420 6.2831853071796004 $187 $421 forward 7 unknown #
vertex $-1 $190 $422 #
ellipse-curve $-1 -4.7458404498457085 -24.664901751491321 5.2328108385461629 0 -0.79863551827123203 0.60181501223851219 1 0 0 1 I I #
coedge $-1 $296 $296 $-1 $423 reversed $193 $-1 #
edge $-1 $424 0 $424 6.2831853071796004 $194 $425 forward 7 unknown #
vertex $-1 $197 $426 #
ellipse-curve $-1 0.36122261443699699 -24.664901751491321 5.2328108385461629 0 -0.79863551827123203 0.60181501223851219 1 0 0 1 I I #
face $-1 $-1 $313 $41 $-1 $427 reversed single #
loop $-1 $-1 $428 $198 #
plane-surface $-1 3.7659313239588066 -120.36230562916671 72.565833820134515 -1 0 0 0 -0.79863551827123203 0.60181501223851219 forward_v I I I I #
coedge $-1 $429 $430 $203 $310 forward $199 $-1 #
coedge $-1 $308 $201 $429 $431 reversed $125 $-1 #
coedge $-1 $201 $308 $312 $432 reversed $125 $-1 #
coedge $-1 $433 $428 $201 $307 forward $301 $-1 #
edge $-1 $434 -7.6351811603349296 $435 -2.3448253187574213e-014 $306 $436 forward 7 unknown #
coedge $-1 $305 $304 $202 $309 forward $125 $-1 #
edge $-1 $437 -7.6351811603349296 $314 -2.3448253187574213e-014 $202 $438 forward 7 unknown #
edge $-1 $315 33.218767741366932 $437 37.813734384817138 $303 $439 forward 7 unknown #
coedge $-1 $440 $204 $430 $441 reversed $313 $-1 #
coedge $-1 $204 $440 $305 $432 forward $313 $-1 #
loop $-1 $-1 $204 $300 #
vertex $-1 $205 $442 #
vertex $-1 $310 $443 #
straight-curve $-1 15.682411807285117 -26.962385073216424 36.282916910067257 0 0 1 I I #
coedge $-1 $317 $317 $-1 $444 reversed $208 $-1 #
edge $-1 $445 0 $445 6.2831853071796004 $209 $446 forward 7 unknown #
vertex $-1 $212 $447 #
ellipse-curve $-1 7.1706400334806091 -24.664901751491321 5.2328108385461629 0 -0.79863551827123203 0.60181501223851219 1 0 0 1 I I #
coedge $-1 $321 $321 $-1 $448 reversed $215 $-1 #
edge $-1 $449 0 $449 6.2831853071796004 $216 $450 forward 7 unknown #
vertex $-1 $219 $451 #
ellipse-curve $-1 12.277703097763307 -24.664901751491321 5.2328108385461629 0 -0.79863551827123203 0.60181501223851219 1 0 0 1 I I #
face $-1 $-1 $337 $33 $-1 $452 reversed single #
loop $-1 $-1 $453 $220 #
plane-surface $-1 0 26.962385073216424 0 0 -1 0 0 0 -1 forward_v I I I I #
coedge $-1 $336 $335 $223 $329 reversed $337 $-1 #
edge $-1 $454 -26.962385073216424 $455 26.962385073216424 $328 $456 forward 7 unknown #
coedge $-1 $225 $224 $228 $341 forward $89 $-1 #
coedge $-1 $453 $231 $224 $332 reversed $326 $-1 #
edge $-1 $339 -58.474684896389661 $346 58.474684896389661 $331 $457 forward 7 unknown #
coedge $-1 $229 $458 $225 $334 reversed $221 $-1 #
edge $-1 $343 -58.474684896389661 $338 58.474684896389661 $333 $459 forward 7 unknown #
coedge $-1 $328 $226 $458 $460 forward $337 $-1 #
coedge $-1 $226 $328 $453 $461 reversed $337 $-1 #
loop $-1 $-1 $335 $325 #
vertex $-1 $227 $462 #
vertex $-1 $227 $463 #
straight-curve $-1 58.474684896389661 0 8.2816742700855741 0 1 0 I I #
edge $-1 $346 -26.962385073216424 $343 26.962385073216424 $228 $464 forward 7 unknown #
coedge $-1 $458 $229 $234 $349 reversed $221 $-1 #
vertex $-1 $341 $465 #
straight-curve $-1 -58.474684896389661 -26.962385073216424 0 0 0 -1 I I #
coedge $-1 $231 $453 $233 $348 reversed $326 $-1 #
vertex $-1 $332 $466 #
straight-curve $-1 -58.474684896389661 26.962385073216424 0 0 0 -1 I I #
edge $-1 $236 -58.474684896389661 $454 58.474684896389661 $345 $467 forward 7 unknown #
edge $-1 $455 -58.474684896389661 $235 58.474684896389661 $342 $468 forward 7 unknown #
point $-1 -58.474684896389661 -26.962385073216424 -8.2816742700855741 #
point $-1 -58.474684896389661 26.962385073216424 -8.2816742700855741 #
face $-1 $-1 $368 $34 $-1 $469 forward single #
plane-surface $-1 -62.240616220348471 -10.399036533045276 0 0 -1 0 0 0 -1 forward_v I I I I #
coedge $-1 $470 $471 $371 $472 forward $239 $-1 #
coedge $-1 $364 $241 $242 $360 reversed $147 $-1 #
coedge $-1 $241 $364 $367 $473 reversed $147 $-1 #
coedge $-1 $471 $470 $241 $358 reversed $239 $-1 #
edge $-1 $474 -8.2816742700855741 $475 8.2816742700855741 $357 $476 forward 7 unknown #
coedge $-1 $243 $242 $470 $477 forward $93 $-1 #
edge $-1 $362 -3.7659313239588101 $475 3.7659313239588101 $355 $478 forward 7 unknown #
edge $-1 $479 -3.7659313239588101 $251 3.7659313239588101 $248 $480 forward 7 unknown #
vertex $-1 $360 $481 #
straight-curve $-1 -58.474684896389661 0 -8.2816742700855741 0 -1 0 I I #
coedge $-1 $356 $355 $245 $365 reversed $147 $-1 #
edge $-1 $369 -8.2816742700855741 $362 8.2816742700855741 $364 $482 forward 7 unknown #
coedge $-1 $483 $246 $249 $372 forward $368 $-1 #
coedge $-1 $246 $483 $356 $473 forward $368 $-1 #
loop $-1 $-1 $246 $352 #
vertex $-1 $247 $484 #
straight-curve $-1 -58.474684896389661 0 8.2816742700855741 0 1 0 I I #
coedge $-1 $249 $248 $354 $472 reversed $250 $-1 #
edge $-1 $252 -3.7659313239588101 $485 3.7659313239588101 $249 $486 forward 7 unknown #
point $-1 -58.474684896389661 -10.399036533045276 -8.2816742700855741 #
point $-1 -58.474684896389661 -10.399036533045276 8.2816742700855741 #
loop $-1 $-1 $262 $254 #
plane-surface $-1 0 26.962385073216424 0 0 -1 0 0 0 -1 forward_v I I I I #
coedge $-1 $378 $257 $259 $382 reversed $155 $-1 #
coedge $-1 $257 $377 $487 $488 reversed $155 $-1 #
coedge $-1 $265 $260 $257 $380 forward $255 $-1 #
edge $-1 $383 -1.9516350465833412 $489 6.4757777186820178 $379 $490 forward 7 unknown #
coedge $-1 $259 $258 $386 $491 reversed $97 $-1 #
edge $-1 $492 -53.924770146432849 $383 -44.093068915137749 $377 $493 forward 7 unknown #
vertex $-1 $261 $494 #
straight-curve $-1 8.8843506822933236 18.534972307951065 8.2816742700855741 1 0 0 I I #
coedge $-1 $487 $262 $265 $390 reversed $375 $-1 #
coedge $-1 $262 $487 $381 $491 forward $375 $-1 #
vertex $-1 $263 $495 #
straight-curve $-1 10.92906364952384 26.962385073216424 65.618229522879176 0 0 1 I I #
straight-curve $-1 10.92906364952384 -19.260164372194843 30.991283903106051 0 0.85716729658548041 -0.51503808176128008 I I #
edge $-1 $489 -24.608339079649454 $266 -10.92906364952384 $385 $496 forward 7 unknown #
point $-1 10.92906364952384 26.962385073216424 8.2816742700855741 #
point $-1 10.92906364952384 18.534972307951065 8.2816742700855741 #
edge $-1 $497 1 $497 0 $269 $-1 forward 7 unknown #
vertex $-1 $270 $498 #
ellipse-curve $-1 14.837428058131152 20.541608398811238 2.0766422625779288 0 0.51503808176128008 0.85716729658548041 1.5 0 0 1 I I #
point $-1 16.337428058131152 22.748678690583755 5.7498239987774653 #
edge $-1 $499 1 $499 0 $273 $-1 forward 7 unknown #
vertex $-1 $274 $500 #
ellipse-curve $-1 20.699974671042128 20.541608398811238 2.0766422625779288 0 0.51503808176128008 0.85716729658548041 1.5 0 0 1 I I #
point $-1 22.199974671042128 22.748678690583755 5.7498239987774653 #
loop $-1 $-1 $285 $277 #
plane-surface $-1 0 -26.962385073216424 0 0 1 0 0 0 1 forward_v I I I I #
coedge $-1 $404 $280 $282 $408 reversed $177 $-1 #
coedge $-1 $280 $403 $501 $502 reversed $177 $-1 #
coedge $-1 $288 $283 $280 $406 forward $278 $-1 #
edge $-1 $409 -37.813734384817138 $503 -33.218767741366932 $405 $504 forward 7 unknown #
coedge $-1 $282 $281 $412 $505 reversed $111 $-1 #
edge $-1 $506 2.3448253187574213e-014 $409 7.6351811603349296 $403 $507 forward 7 unknown #
vertex $-1 $284 $508 #
straight-curve $-1 -1.0961544588521761 -22.367418429766214 8.2816742700855741 -1 0 0 I I #
coedge $-1 $501 $285 $288 $416 reversed $401 $-1 #
coedge $-1 $285 $501 $407 $505 forward $401 $-1 #
vertex $-1 $286 $509 #
straight-curve $-1 3.7659313239588066 -26.962385073216424 36.282916910067257 0 0 1 I I #
straight-curve $-1 3.7659313239588066 -26.962385073216439 2.1839474070067411 0 -0.60181501223851219 -0.79863551827123203 I I #
edge $-1 $503 -8.150549159367511 $289 3.7659313239588066 $411 $510 forward 7 unknown #
point $-1 3.7659313239588066 -26.962385073216424 8.2816742700855741 #
point $-1 3.7659313239588066 -22.367418429766214 8.2816742700855741 #
edge $-1 $511 1 $511 0 $292 $-1 forward 7 unknown #
vertex $-1 $293 $512 #
ellipse-curve $-1 -4.7458404498457085 -21.891966697512668 3.1432544573585064 0 -0.79863551827123203 0.60181501223851219 1 0 0 1 I I #
point $-1 -3.7458404498457085 -24.664901751491307 5.2328108385461505 #
edge $-1 $513 1 $513 0 $296 $-1 forward 7 unknown #
vertex $-1 $297 $514 #
ellipse-curve $-1 0.36122261443699699 -21.891966697512668 3.1432544573585064 0 -0.79863551827123203 0.60181501223851219 1 0 0 1 I I #
point $-1 1.361222614436997 -24.664901751491307 5.2328108385461505 #
plane-surface $-1 0 -26.962385073216424 0 0 1 0 0 0 1 forward_v I I I I #
coedge $-1 $306 $433 $515 $516 reversed $301 $-1 #
coedge $-1 $515 $303 $304 $431 forward $199 $-1 #
coedge $-1 $303 $515 $311 $441 forward $199 $-1 #
edge $-1 $437 -16.778566266137293 $434 -4.8620857828109827 $429 $517 forward 7 unknown #
edge $-1 $435 4.8620857828109827 $314 16.778566266137293 $312 $518 forward 7 unknown #
coedge $-1 $428 $306 $440 $519 reversed $301 $-1 #
vertex $-1 $431 $520 #
vertex $-1 $432 $521 #
straight-curve $-1 3.7659313239588066 -26.962385073216439 2.1839474070067411 0 -0.60181501223851219 -0.79863551827123203 I I #
vertex $-1 $310 $522 #
straight-curve $-1 15.682411807285117 -26.962385073216439 2.1839474070067411 0 -0.60181501223851219 -0.79863551827123203 I I #
straight-curve $-1 15.682411807285117 -60.181152814583356 8.2816742700855741 0 1 0 I I #
coedge $-1 $312 $311 $433 $519 forward $313 $-1 #
edge $-1 $523 3.7659313239588066 $315 15.682411807285117 $311 $524 forward 7 unknown #
point $-1 15.682411807285117 -26.962385073216424 2.1839474070067597 #
point $-1 15.682411807285117 -26.962385073216424 8.2816742700855741 #
edge $-1 $525 1 $525 0 $317 $-1 forward 7 unknown #
vertex $-1 $318 $526 #
ellipse-curve $-1 7.1706400334806091 -21.891966697512668 3.1432544573585064 0 -0.79863551827123203 0.60181501223851219 1 0 0 1 I I #
point $-1 8.1706400334806091 -24.664901751491307 5.2328108385461505 #
edge $-1 $527 1 $527 0 $321 $-1 forward 7 unknown #
vertex $-1 $322 $528 #
ellipse-curve $-1 12.277703097763307 -21.891966697512668 3.1432544573585064 0 -0.79863551827123203 0.60181501223851219 1 0 0 1 I I #
point $-1 13.277703097763307 -24.664901751491307 5.2328108385461505 #
plane-surface $-1 58.474684896389661 0 0 -1 0 0 0 0 1 forward_v I I I I #
coedge $-1 $345 $331 $336 $461 forward $326 $-1 #
vertex $-1 $329 $529 #
vertex $-1 $460 $530 #
straight-curve $-1 58.474684896389661 0 -8.2816742700855741 0 -1 0 I I #
straight-curve $-1 0 26.962385073216424 8.2816742700855741 -1 0 0 I I #
coedge $-1 $333 $342 $335 $460 reversed $221 $-1 #
straight-curve $-1 0 -26.962385073216424 8.2816742700855741 1 0 0 I I #
edge $-1 $338 -8.2816742700855741 $455 8.2816742700855741 $335 $531 forward 7 unknown #
edge $-1 $339 -8.2816742700855741 $454 8.2816742700855741 $336 $532 forward 7 unknown #
point $-1 58.474684896389661 -26.962385073216424 8.2816742700855741 #
point $-1 58.474684896389661 26.962385073216424 8.2816742700855741 #
straight-curve $-1 -58.474684896389661 0 8.2816742700855741 0 -1 0 I I #
point $-1 -58.474684896389661 -26.962385073216424 8.2816742700855741 #
point $-1 -58.474684896389661 26.962385073216424 8.2816742700855741 #
straight-curve $-1 0 26.962385073216424 -8.2816742700855741 1 0 0 I I #
straight-curve $-1 0 -26.962385073216424 -8.2816742700855741 -1 0 0 I I #
plane-surface $-1 0 0 8.2816742700855741 0 0 1 1 0 0 forward_v I I I I #
coedge $-1 $357 $354 $359 $477 reversed $239 $-1 #
coedge $-1 $354 $357 $483 $533 reversed $239 $-1 #
edge $-1 $485 -8.2816742700855741 $479 8.2816742700855741 $371 $534 forward 7 unknown #
edge $-1 $474 -3.7659313239588101 $369 3.7659313239588101 $356 $535 forward 7 unknown #
vertex $-1 $533 $536 #
vertex $-1 $477 $537 #
straight-curve $-1 -66.006547544307281 -13.399036533045276 0 0 0 -1 I I #
edge $-1 $475 -1.5 $479 1.5 $470 $538 forward 7 unknown #
straight-curve $-1 -62.240616220348471 -13.399036533045276 -8.2816742700855741 -1 0 0 I I #
vertex $-1 $361 $539 #
straight-curve $-1 -62.240616220348471 -10.399036533045276 -8.2816742700855741 1 0 0 I I #
point $-1 -58.474684896389661 -13.399036533045276 -8.2816742700855741 #
straight-curve $-1 -58.474684896389661 -13.399036533045276 0 0 0 -1 I I #
coedge $-1 $367 $366 $471 $533 forward $368 $-1 #
point $-1 -58.474684896389661 -13.399036533045276 8.2816742700855741 #
vertex $-1 $372 $540 #
straight-curve $-1 -62.240616220348471 -10.399036533045276 8.2816742700855741 -1 0 0 I I #
coedge $-1 $386 $385 $378 $488 forward $375 $-1 #
edge $-1 $489 57.336555252793602 $492 62.400255795409841 $487 $541 forward 7 unknown #
vertex $-1 $390 $542 #
straight-curve $-1 24.608339079649454 20.486607354534407 8.2816742700855741 0 1 0 I I #
edge $-1 $492 -15.723988397356131 $387 -2.0447129672305167 $386 $543 forward 7 unknown #
vertex $-1 $491 $544 #
straight-curve $-1 24.608339079649454 -19.260164372194843 30.991283903106051 0 -0.85716729658548041 0.51503808176128008 I I #
point $-1 24.608339079649454 18.534972307951065 8.2816742700855741 #
point $-1 10.92906364952384 26.962385073216424 3.2179737274693352 #
straight-curve $-1 0 26.962385073216424 8.2816742700855741 -1 0 0 I I #
vertex $-1 $393 $545 #
point $-1 16.337428058131152 20.541608398811238 2.0766422625779288 #
vertex $-1 $397 $546 #
point $-1 22.199974671042128 20.541608398811238 2.0766422625779288 #
coedge $-1 $412 $411 $404 $502 forward $401 $-1 #
edge $-1 $503 28.001242639981683 $506 34.098969503060495 $501 $547 forward 7 unknown #
vertex $-1 $416 $548 #
straight-curve $-1 -8.150549159367511 -60.181152814583356 8.2816742700855741 0 -1 0 I I #
edge $-1 $506 -7.0543947005153349 $413 4.8620857828109827 $412 $549 forward 7 unknown #
vertex $-1 $505 $550 #
straight-curve $-1 -8.150549159367511 -26.962385073216439 2.1839474070067411 0 0.60181501223851219 0.79863551827123203 I I #
point $-1 -8.150549159367511 -22.367418429766214 8.2816742700855741 #
point $-1 3.7659313239588066 -26.962385073216424 2.1839474070067597 #
straight-curve $-1 0 -26.962385073216424 8.2816742700855741 1 0 0 I I #
vertex $-1 $419 $551 #
point $-1 -3.7458404498457085 -21.891966697512668 3.1432544573585064 #
vertex $-1 $423 $552 #
point $-1 1.361222614436997 -21.891966697512668 3.1432544573585064 #
coedge $-1 $430 $429 $428 $516 forward $199 $-1 #
edge $-1 $434 -37.813734384817138 $523 -33.218767741366932 $515 $553 forward 7 unknown #
straight-curve $-1 -1.0961544588521761 -22.367418429766214 8.2816742700855741 -1 0 0 I I #
straight-curve $-1 -1.0961544588521761 -26.962385073216424 2.1839474070067584 1 0 0 I I #
edge $-1 $523 28.001242639981683 $435 34.098969503060495 $440 $554 forward 7 unknown #
point $-1 3.7659313239588066 -22.367418429766214 8.2816742700855741 #
point $-1 3.7659313239588066 -26.962385073216424 2.1839474070067597 #
point $-1 15.682411807285117 -22.367418429766214 8.2816742700855741 #
vertex $-1 $441 $555 #
straight-curve $-1 0 -26.962385073216424 8.2816742700855741 1 0 0 I I #
vertex $-1 $444 $556 #
point $-1 8.1706400334806091 -21.891966697512668 3.1432544573585064 #
vertex $-1 $448 $557 #
point $-1 13.277703097763307 -21.891966697512668 3.1432544573585064 #
point $-1 58.474684896389661 26.962385073216424 -8.2816742700855741 #
point $-1 58.474684896389661 -26.962385073216424 -8.2816742700855741 #
straight-curve $-1 58.474684896389661 -26.962385073216424 0 0 0 -1 I I #
straight-curve $-1 58.474684896389661 26.962385073216424 0 0 0 -1 I I #
edge $-1 $485 -1.5 $474 1.5 $471 $558 forward 7 unknown #
straight-curve $-1 -66.006547544307281 -10.399036533045276 0 0 0 -1 I I #
straight-curve $-1 -62.240616220348471 -13.399036533045276 8.2816742700855741 1 0 0 I I #
point $-1 -66.006547544307281 -13.399036533045276 8.2816742700855741 #
point $-1 -66.006547544307281 -13.399036533045276 -8.2816742700855741 #
straight-curve $-1 -66.006547544307281 -11.899036533045276 -8.2816742700855741 0 1 0 I I #
point $-1 -66.006547544307281 -10.399036533045276 -8.2816742700855741 #
point $-1 -66.006547544307281 -10.399036533045276 8.2816742700855741 #
straight-curve $-1 24.608339079649454 26.962385073216424 65.618229522879176 0 0 -1 I I #
point $-1 24.608339079649454 26.962385073216424 8.2816742700855741 #
straight-curve $-1 8.8843506822933236 26.962385073216421 3.2179737274693352 -1 0 0 I I #
point $-1 24.608339079649454 26.962385073216424 3.2179737274693352 #
point $-1 14.837428058131152 19.769051276169318 0.79089131769970833 #
point $-1 20.699974671042128 19.769051276169318 0.79089131769970833 #
straight-curve $-1 -8.150549159367511 -26.962385073216424 36.282916910067257 0 0 -1 I I #
point $-1 -8.150549159367511 -26.962385073216424 8.2816742700855741 #
straight-curve $-1 -1.0961544588521761 -26.962385073216424 2.1839474070067584 1 0 0 I I #
point $-1 -8.150549159367511 -26.962385073216424 2.1839474070067597 #
point $-1 -4.7458404498457085 -21.093331179241435 2.5414394451199938 #
point $-1 0.36122261443699699 -21.093331179241435 2.5414394451199938 #
straight-curve $-1 3.7659313239588066 -60.181152814583356 8.2816742700855741 0 -1 0 I I #
straight-curve $-1 3.7659313239588066 -26.962385073216424 36.282916910067257 0 0 -1 I I #
point $-1 3.7659313239588066 -26.962385073216424 8.2816742700855741 #
point $-1 7.1706400334806091 -21.093331179241435 2.5414394451199938 #
point $-1 12.277703097763307 -21.093331179241435 2.5414394451199938 #
straight-curve $-1 -66.006547544307281 -11.899036533045276 8.2816742700855741 0 -1 0 I I #
End-of-ACIS-data 