500 0 8 0           
7 Unknown 11 ACIS 5.0 NT 24 Fri Mar 26 01:07:27 1999 
-1 9.9999999999999995e-007 1e-010 
body $-1 $8 $-1 $9 #
body $-1 $10 $-1 $11 #
body $-1 $12 $-1 $13 #
body $-1 $14 $-1 $15 #
body $-1 $16 $-1 $17 #
body $-1 $18 $-1 $19 #
body $-1 $20 $-1 $21 #
body $-1 $22 $-1 $23 #
lump $-1 $-1 $24 $0 #
transform $-1 1 0 0 0 1 0 0 0 1 60.128788109988704 24.867374468022735 10.712467552823721 1 rotate no_reflect no_shear #
lump $-1 $-1 $25 $1 #
transform $-1 1 0 0 0 1 0 0 0 1 60.128788109988704 24.867374468022735 10.712467552823721 1 rotate no_reflect no_shear #
lump $-1 $-1 $26 $2 #
transform $-1 1 0 0 0 1 0 0 0 1 60.128788109988704 24.867374468022735 10.712467552823721 1 rotate no_reflect no_shear #
lump $-1 $-1 $27 $3 #
transform $-1 1 0 0 0 1 0 0 0 1 60.128788109988704 24.867374468022735 10.712467552823721 1 rotate no_reflect no_shear #
lump $-1 $-1 $28 $4 #
transform $-1 1 0 0 0 1 0 0 0 1 60.128788109988704 24.867374468022735 10.712467552823721 1 rotate no_reflect no_shear #
lump $-1 $-1 $29 $5 #
transform $-1 1 0 0 0 1 0 0 0 1 60.128788109988704 24.867374468022735 10.712467552823721 1 rotate no_reflect no_shear #
lump $-1 $-1 $30 $6 #
transform $-1 1 0 0 0 1 0 0 0 1 60.128788109988704 24.867374468022735 10.712467552823721 1 rotate no_reflect no_shear #
lump $-1 $-1 $31 $7 #
transform $-1 1 0 0 0 1 0 0 0 1 60.128788109988704 24.867374468022735 10.712467552823721 1 rotate no_reflect no_shear #
shell $-1 $-1 $-1 $32 $-1 $8 #
shell $-1 $-1 $-1 $33 $-1 $10 #
shell $-1 $-1 $-1 $34 $-1 $12 #
shell $-1 $-1 $-1 $35 $-1 $14 #
shell $-1 $-1 $-1 $36 $-1 $16 #
shell $-1 $-1 $-1 $37 $-1 $18 #
shell $-1 $-1 $-1 $38 $-1 $20 #
shell $-1 $-1 $-1 $39 $-1 $22 #
face $-1 $40 $41 $24 $-1 $42 forward single #
face $-1 $43 $44 $25 $-1 $45 forward single #
face $-1 $46 $47 $26 $-1 $48 reversed single #
face $-1 $49 $50 $27 $-1 $51 forward single #
face $-1 $52 $53 $28 $-1 $54 forward single #
face $-1 $55 $56 $29 $-1 $57 reversed single #
face $-1 $58 $59 $30 $-1 $60 forward single #
face $-1 $61 $62 $31 $-1 $63 forward single #
face $-1 $64 $65 $24 $-1 $66 reversed single #
loop $-1 $-1 $67 $32 #
plane-surface $-1 0 0 10.712467552823721 0 0 1 1 0 0 forward_v I I I I #
face $-1 $68 $69 $25 $-1 $70 reversed single #
loop $-1 $-1 $71 $33 #
plane-surface $-1 -56.564976030094279 0 -7.7124675528237212 0 0 1 1 0 0 forward_v I I I I #
face $-1 $72 $73 $26 $-1 $74 reversed single #
loop $-1 $-1 $75 $34 #
plane-surface $-1 23.490503197189042 78.899182206415631 122.21962227719165 1 0 0 0 -0.73135370988377701 -0.68199835119979291 forward_v I I I I #
face $-1 $76 $77 $27 $-1 $78 forward single #
loop $-1 $79 $80 $35 #
cone-surface $-1 28.267165840013931 19.996301098067804 5.7213575220388186 0 -0.73135370988377701 -0.68199835119979291 1.5 0 0 1 I I 0 1 1.5 forward I I I I #
face $-1 $81 $82 $28 $-1 $83 forward single #
loop $-1 $84 $85 $36 #
cone-surface $-1 35.43215980425127 19.996301098067804 5.7213575220388186 0 -0.73135370988377701 -0.68199835119979291 1.5 0 0 1 I I 0 1 1.5 forward I I I I #
face $-1 $86 $87 $29 $-1 $88 reversed single #
loop $-1 $-1 $89 $37 #
plane-surface $-1 40.208822447076159 -112.81819897813428 85.845929132676559 -1 0 0 0 -0.73135370988377701 0.68199835119979291 forward_v I I I I #
face $-1 $90 $91 $30 $-1 $92 forward single #
loop $-1 $93 $94 $38 #
cone-surface $-1 28.267165840013931 -19.996301098067804 5.7213575220388204 0 0.73135370988377701 -0.68199835119979291 1.5 0 0 1 I I 0 1 1.5 forward I I I I #
face $-1 $95 $96 $31 $-1 $97 forward single #
loop $-1 $98 $99 $39 #
cone-surface $-1 35.43215980425127 -19.996301098067804 5.7213575220388204 0 0.73135370988377701 -0.68199835119979291 1.5 0 0 1 I I 0 1 1.5 forward I I I I #
face $-1 $100 $101 $24 $-1 $102 reversed single #
loop $-1 $-1 $103 $40 #
plane-surface $-1 0 0 -10.712467552823721 0 0 1 1 0 0 forward_v I I I I #
coedge $-1 $104 $105 $106 $107 forward $41 $-1 #
face $-1 $108 $109 $25 $-1 $110 reversed single #
loop $-1 $-1 $111 $43 #
plane-surface $-1 -53.001163950199853 0 -9.2124675528237212 -1 0 0 0 0 1 forward_v I I I I #
coedge $-1 $112 $113 $114 $115 forward $44 $-1 #
face $-1 $116 $117 $26 $-1 $118 reversed single #
loop $-1 $-1 $119 $46 #
plane-surface $-1 31.849662822132601 -9.0516423036959281 40.204153575883623 0 0.73135370988377701 0.68199835119979291 1 0 0 forward_v I I I I #
coedge $-1 $120 $121 $122 $123 reversed $47 $-1 #
face $-1 $-1 $124 $27 $-1 $125 forward single #
loop $-1 $126 $127 $49 #
cone-surface $-1 28.267165840013931 17.785500099572428 3.6597522885816609 0 -0.73135370988377701 -0.68199835119979291 0.75 0 0 1 I I -0.70710678118654757 0.70710678118654757 0.75 forward I I I I #
loop $-1 $-1 $128 $35 #
coedge $-1 $80 $80 $129 $130 reversed $50 $-1 #
face $-1 $-1 $131 $28 $-1 $132 forward single #
loop $-1 $133 $134 $52 #
cone-surface $-1 35.43215980425127 17.785500099572428 3.6597522885816609 0 -0.73135370988377701 -0.68199835119979291 0.75 0 0 1 I I -0.70710678118654757 0.70710678118654757 0.75 forward I I I I #
loop $-1 $-1 $135 $36 #
coedge $-1 $85 $85 $136 $137 reversed $53 $-1 #
face $-1 $138 $139 $29 $-1 $140 reversed single #
loop $-1 $-1 $141 $55 #
plane-surface $-1 31.849662822132601 -24.867374468022717 3.830460431368536 0 -0.73135370988377701 0.68199835119979291 1 0 0 forward_v I I I I #
coedge $-1 $142 $143 $144 $145 reversed $56 $-1 #
face $-1 $-1 $146 $30 $-1 $147 forward single #
loop $-1 $148 $149 $58 #
cone-surface $-1 28.267165840013931 -17.785500099572428 3.6597522885816627 0 0.73135370988377701 -0.68199835119979291 0.75 0 0 1 I I -0.70710678118654757 0.70710678118654757 0.75 forward I I I I #
loop $-1 $-1 $150 $38 #
coedge $-1 $94 $94 $151 $152 reversed $59 $-1 #
face $-1 $-1 $153 $31 $-1 $154 forward single #
loop $-1 $155 $156 $61 #
cone-surface $-1 35.43215980425127 -17.785500099572428 3.6597522885816627 0 0.73135370988377701 -0.68199835119979291 0.75 0 0 1 I I -0.70710678118654757 0.70710678118654757 0.75 forward I I I I #
loop $-1 $-1 $157 $39 #
coedge $-1 $99 $99 $158 $159 reversed $62 $-1 #
face $-1 $160 $161 $24 $-1 $162 reversed single #
loop $-1 $-1 $163 $64 #
plane-surface $-1 0 -24.867374468022735 0 0 1 0 0 0 1 forward_v I I I I #
coedge $-1 $164 $165 $166 $167 forward $65 $-1 #
coedge $-1 $168 $67 $169 $170 forward $41 $-1 #
coedge $-1 $67 $168 $171 $172 forward $41 $-1 #
coedge $-1 $173 $174 $67 $107 reversed $175 $-1 #
edge $-1 $176 -24.867374468022735 $177 24.867374468022735 $106 $178 forward 7 unknown #
face $-1 $179 $180 $25 $-1 $181 reversed single #
loop $-1 $-1 $182 $68 #
plane-surface $-1 0 0 -10.712467552823721 0 0 1 1 0 0 forward_v I I I I #
coedge $-1 $183 $114 $184 $185 reversed $69 $-1 #
coedge $-1 $186 $71 $187 $188 reversed $44 $-1 #
coedge $-1 $71 $186 $189 $190 reversed $44 $-1 #
coedge $-1 $111 $191 $71 $115 reversed $69 $-1 #
edge $-1 $192 -24.867374468022735 $193 24.867374468022735 $114 $194 forward 7 unknown #
face $-1 $195 $196 $26 $-1 $197 reversed single #
loop $-1 $-1 $198 $72 #
plane-surface $-1 40.208822447076159 78.899182206415631 122.21962227719165 -1 0 0 0 0.73135370988377701 0.68199835119979291 forward_v I I I I #
coedge $-1 $199 $200 $201 $202 reversed $73 $-1 #
coedge $-1 $121 $75 $203 $204 reversed $47 $-1 #
coedge $-1 $75 $120 $199 $205 reversed $47 $-1 #
coedge $-1 $201 $206 $75 $123 forward $207 $-1 #
edge $-1 $208 14.58221663518508 $209 20.999791942929861 $122 $210 forward 7 unknown #
loop $-1 $-1 $129 $76 #
plane-surface $-1 31.849662822132601 -9.0516423036959281 40.204153575883623 0 0.73135370988377701 0.68199835119979291 1 0 0 forward_v I I I I #
loop $-1 $-1 $211 $49 #
coedge $-1 $127 $127 $128 $212 reversed $77 $-1 #
coedge $-1 $128 $128 $127 $212 forward $79 $-1 #
coedge $-1 $129 $129 $80 $130 forward $124 $-1 #
edge $-1 $213 0 $213 6.2831853071796004 $129 $214 forward 7 unknown #
loop $-1 $-1 $136 $81 #
plane-surface $-1 31.849662822132601 -9.0516423036959281 40.204153575883623 0 0.73135370988377701 0.68199835119979291 1 0 0 forward_v I I I I #
loop $-1 $-1 $215 $52 #
coedge $-1 $134 $134 $135 $216 reversed $82 $-1 #
coedge $-1 $135 $135 $134 $216 forward $84 $-1 #
coedge $-1 $136 $136 $85 $137 forward $131 $-1 #
edge $-1 $217 0 $217 6.2831853071796004 $136 $218 forward 7 unknown #
face $-1 $219 $220 $29 $-1 $221 forward single #
loop $-1 $-1 $222 $86 #
plane-surface $-1 23.490503197189042 -112.81819897813428 85.845929132676559 1 0 0 0 0.73135370988377701 -0.68199835119979291 forward_v I I I I #
coedge $-1 $223 $224 $225 $226 reversed $87 $-1 #
coedge $-1 $143 $89 $227 $228 reversed $56 $-1 #
coedge $-1 $89 $142 $223 $229 reversed $56 $-1 #
coedge $-1 $225 $230 $89 $145 forward $220 $-1 #
edge $-1 $231 31.541725021044403 $232 37.959300328789205 $144 $233 forward 7 unknown #
loop $-1 $-1 $151 $90 #
plane-surface $-1 31.849662822132601 -24.867374468022717 3.830460431368536 0 -0.73135370988377701 0.68199835119979291 1 0 0 forward_v I I I I #
loop $-1 $-1 $234 $58 #
coedge $-1 $149 $149 $150 $235 reversed $91 $-1 #
coedge $-1 $150 $150 $149 $235 forward $93 $-1 #
coedge $-1 $151 $151 $94 $152 forward $146 $-1 #
edge $-1 $236 -3.9850888859867493e-016 $236 6.2831853071796004 $151 $237 forward 7 unknown #
loop $-1 $-1 $158 $95 #
plane-surface $-1 31.849662822132601 -24.867374468022717 3.830460431368536 0 -0.73135370988377701 0.68199835119979291 1 0 0 forward_v I I I I #
loop $-1 $-1 $238 $61 #
coedge $-1 $156 $156 $157 $239 reversed $96 $-1 #
coedge $-1 $157 $157 $156 $239 forward $98 $-1 #
coedge $-1 $158 $158 $99 $159 forward $153 $-1 #
edge $-1 $240 -3.9850888859867493e-016 $240 6.2831853071796004 $158 $241 forward 7 unknown #
face $-1 $242 $243 $24 $-1 $244 reversed single #
loop $-1 $-1 $245 $100 #
plane-surface $-1 -60.128788109988704 0 0 1 0 0 0 0 -1 forward_v I I I I #
coedge $-1 $246 $171 $247 $248 forward $101 $-1 #
coedge $-1 $249 $103 $246 $250 forward $65 $-1 #
coedge $-1 $103 $249 $251 $252 forward $65 $-1 #
coedge $-1 $174 $173 $103 $167 reversed $175 $-1 #
edge $-1 $253 -24.867374468022735 $254 24.867374468022735 $166 $255 forward 7 unknown #
coedge $-1 $105 $104 $256 $257 forward $41 $-1 #
coedge $-1 $258 $259 $104 $170 reversed $243 $-1 #
edge $-1 $177 -60.128788109988704 $260 60.128788109988704 $169 $261 forward 7 unknown #
coedge $-1 $163 $262 $105 $172 reversed $101 $-1 #
edge $-1 $263 -60.128788109988704 $176 60.128788109988704 $171 $264 forward 7 unknown #
coedge $-1 $166 $106 $262 $265 forward $175 $-1 #
coedge $-1 $106 $166 $258 $266 reversed $175 $-1 #
loop $-1 $-1 $173 $242 #
vertex $-1 $107 $267 #
vertex $-1 $107 $268 #
straight-curve $-1 60.128788109988704 0 10.712467552823721 0 1 0 I I #
face $-1 $269 $270 $25 $-1 $271 reversed single #
loop $-1 $-1 $184 $108 #
plane-surface $-1 0 -24.867374468022735 0 0 1 0 0 0 1 forward_v I I I I #
coedge $-1 $272 $273 $183 $274 forward $109 $-1 #
coedge $-1 $191 $111 $182 $274 reversed $69 $-1 #
coedge $-1 $189 $275 $111 $185 forward $180 $-1 #
edge $-1 $276 -6.1062337764118606 $192 -3.1062337764118606 $184 $277 forward 7 unknown #
coedge $-1 $113 $112 $278 $279 reversed $44 $-1 #
coedge $-1 $280 $281 $112 $188 forward $282 $-1 #
edge $-1 $283 -31.846300094941565 $193 -24.718675935152714 $187 $284 forward 7 unknown #
coedge $-1 $285 $184 $113 $190 forward $180 $-1 #
edge $-1 $192 24.718675935152714 $286 31.846300094941565 $189 $287 forward 7 unknown #
coedge $-1 $114 $183 $280 $288 reversed $69 $-1 #
vertex $-1 $190 $289 #
vertex $-1 $188 $290 #
straight-curve $-1 -53.001163950199853 0 -7.7124675528237212 0 1 0 I I #
face $-1 $-1 $207 $26 $-1 $291 forward single #
loop $-1 $-1 $292 $116 #
plane-surface $-1 0 24.867374468022735 0 0 -1 0 0 0 -1 forward_v I I I I #
coedge $-1 $293 $294 $295 $296 reversed $117 $-1 #
coedge $-1 $297 $119 $121 $205 forward $73 $-1 #
coedge $-1 $119 $297 $293 $298 forward $73 $-1 #
coedge $-1 $295 $122 $119 $202 forward $207 $-1 #
edge $-1 $209 7.565671786122742 $299 24.283991036009859 $201 $300 forward 7 unknown #
coedge $-1 $301 $302 $120 $204 forward $196 $-1 #
edge $-1 $303 -57.27935070722728 $208 -50.397343585772106 $203 $304 forward 7 unknown #
edge $-1 $209 40.324791717740197 $303 49.734748936045456 $121 $305 forward 7 unknown #
coedge $-1 $122 $295 $301 $306 forward $207 $-1 #
loop $-1 $-1 $295 $195 #
vertex $-1 $204 $307 #
vertex $-1 $123 $308 #
straight-curve $-1 23.490503197189042 39.449591103207815 10.712467552823725 0 -1 0 I I #
coedge $-1 $211 $211 $-1 $309 reversed $126 $-1 #
edge $-1 $310 0 $310 6.2831853071796004 $127 $311 forward 7 unknown #
vertex $-1 $130 $312 #
ellipse-curve $-1 28.267165840013931 21.658586814150347 7.2714639920961313 0 0.73135370988377701 0.68199835119979291 1.5 0 0 1 I I #
coedge $-1 $215 $215 $-1 $313 reversed $133 $-1 #
edge $-1 $314 0 $314 6.2831853071796004 $134 $315 forward 7 unknown #
vertex $-1 $137 $316 #
ellipse-curve $-1 35.43215980425127 21.658586814150347 7.2714639920961313 0 0.73135370988377701 0.68199835119979291 1.5 0 0 1 I I #
face $-1 $-1 $317 $29 $-1 $318 reversed single #
loop $-1 $-1 $144 $138 #
plane-surface $-1 0 0 10.712467552823721 0 0 1 1 0 0 forward_v I I I I #
coedge $-1 $319 $320 $321 $322 reversed $139 $-1 #
coedge $-1 $323 $141 $143 $229 forward $87 $-1 #
coedge $-1 $141 $323 $319 $324 forward $87 $-1 #
coedge $-1 $321 $144 $141 $226 forward $220 $-1 #
edge $-1 $232 -24.283991036009859 $325 -7.565671786122742 $225 $326 forward 7 unknown #
coedge $-1 $327 $328 $142 $228 forward $317 $-1 #
edge $-1 $329 -39.092504134969765 $231 -32.210497013514555 $227 $330 forward 7 unknown #
edge $-1 $232 -9.4099572183052693 $329 2.6080534875291995e-014 $143 $331 forward 7 unknown #
coedge $-1 $144 $321 $327 $332 forward $220 $-1 #
vertex $-1 $145 $333 #
vertex $-1 $145 $334 #
straight-curve $-1 40.208822447076159 -56.409099489067138 10.712467552823718 0 1 0 I I #
coedge $-1 $234 $234 $-1 $335 reversed $148 $-1 #
edge $-1 $336 0 $336 6.2831853071796004 $149 $337 forward 7 unknown #
vertex $-1 $152 $338 #
ellipse-curve $-1 28.267165840013931 -21.658586814150333 7.2714639920961206 0 -0.73135370988377701 0.68199835119979291 1.5 0 0 1 I I #
coedge $-1 $238 $238 $-1 $339 reversed $155 $-1 #
edge $-1 $340 0 $340 6.2831853071796004 $156 $341 forward 7 unknown #
vertex $-1 $159 $342 #
ellipse-curve $-1 35.43215980425127 -21.658586814150333 7.2714639920961206 0 -0.73135370988377701 0.68199835119979291 1.5 0 0 1 I I #
face $-1 $-1 $175 $24 $-1 $343 reversed single #
loop $-1 $-1 $258 $160 #
plane-surface $-1 0 24.867374468022735 0 0 -1 0 0 0 -1 forward_v I I I I #
coedge $-1 $344 $256 $259 $345 forward $161 $-1 #
coedge $-1 $262 $163 $164 $250 reversed $101 $-1 #
coedge $-1 $256 $344 $163 $248 reversed $161 $-1 #
edge $-1 $263 -10.712467552823721 $346 10.712467552823721 $247 $347 forward 7 unknown #
coedge $-1 $165 $164 $344 $348 forward $65 $-1 #
edge $-1 $254 -60.128788109988704 $346 60.128788109988704 $246 $349 forward 7 unknown #
coedge $-1 $259 $258 $165 $252 reversed $243 $-1 #
edge $-1 $350 -60.128788109988704 $253 60.128788109988704 $251 $351 forward 7 unknown #
vertex $-1 $167 $352 #
vertex $-1 $265 $353 #
straight-curve $-1 60.128788109988704 0 -10.712467552823721 0 -1 0 I I #
coedge $-1 $245 $247 $168 $257 reversed $161 $-1 #
edge $-1 $260 -24.867374468022735 $263 24.867374468022735 $256 $354 forward 7 unknown #
coedge $-1 $251 $169 $174 $266 forward $243 $-1 #
coedge $-1 $169 $251 $245 $345 reversed $243 $-1 #
vertex $-1 $170 $355 #
straight-curve $-1 0 24.867374468022735 10.712467552823721 -1 0 0 I I #
coedge $-1 $171 $246 $173 $265 reversed $101 $-1 #
vertex $-1 $257 $356 #
straight-curve $-1 0 -24.867374468022735 10.712467552823721 1 0 0 I I #
edge $-1 $176 -10.712467552823721 $254 10.712467552823721 $173 $357 forward 7 unknown #
edge $-1 $177 -10.712467552823721 $253 10.712467552823721 $174 $358 forward 7 unknown #
point $-1 60.128788109988704 -24.867374468022735 10.712467552823721 #
point $-1 60.128788109988704 24.867374468022735 10.712467552823721 #
face $-1 $-1 $282 $25 $-1 $359 reversed single #
loop $-1 $-1 $278 $179 #
plane-surface $-1 -60.128788109988704 0 0 1 0 0 0 0 -1 forward_v I I I I #
coedge $-1 $360 $182 $275 $361 forward $109 $-1 #
coedge $-1 $182 $360 $362 $363 forward $109 $-1 #
edge $-1 $364 -24.867374468022735 $276 24.867374468022735 $182 $365 forward 7 unknown #
coedge $-1 $184 $285 $272 $361 reversed $180 $-1 #
vertex $-1 $361 $366 #
straight-curve $-1 -53.001163950199853 -24.867374468022735 -4.6062337764118606 0 0 1 I I #
coedge $-1 $367 $368 $186 $279 forward $270 $-1 #
edge $-1 $286 -24.867374468022735 $283 24.867374468022735 $278 $369 forward 7 unknown #
coedge $-1 $362 $187 $191 $288 forward $282 $-1 #
coedge $-1 $187 $362 $367 $370 reversed $282 $-1 #
loop $-1 $-1 $280 $269 #
vertex $-1 $370 $371 #
straight-curve $-1 -28.282488015047139 24.867374468022735 -7.7124675528237212 1 0 0 I I #
coedge $-1 $275 $189 $368 $372 forward $180 $-1 #
vertex $-1 $372 $373 #
straight-curve $-1 -28.282488015047139 -24.867374468022735 -7.7124675528237212 -1 0 0 I I #
edge $-1 $193 3.1062337764118606 $364 6.1062337764118606 $280 $374 forward 7 unknown #
point $-1 -53.001163950199853 -24.867374468022735 -7.7124675528237212 #
point $-1 -53.001163950199853 24.867374468022735 -7.7124675528237212 #
plane-surface $-1 0 0 10.712467552823721 0 0 1 1 0 0 forward_v I I I I #
coedge $-1 $302 $301 $294 $375 forward $196 $-1 #
coedge $-1 $294 $198 $200 $298 reversed $117 $-1 #
coedge $-1 $198 $293 $292 $375 reversed $117 $-1 #
coedge $-1 $206 $201 $198 $296 forward $207 $-1 #
edge $-1 $299 -20.999791942929861 $376 -14.58221663518508 $295 $377 forward 7 unknown #
coedge $-1 $200 $199 $302 $378 reversed $73 $-1 #
edge $-1 $379 -49.734748936045456 $299 -40.324791717740197 $293 $380 forward 7 unknown #
vertex $-1 $202 $381 #
straight-curve $-1 15.9248314110663 18.449799160277959 10.712467552823718 1 0 0 I I #
coedge $-1 $292 $203 $206 $306 reversed $196 $-1 #
coedge $-1 $203 $292 $297 $378 forward $196 $-1 #
vertex $-1 $204 $382 #
straight-curve $-1 23.490503197189042 24.867374468022735 61.109811138595823 0 0 1 I I #
straight-curve $-1 23.490503197189042 -9.0516423036959281 40.204153575883623 0 0.68199835119979291 -0.73135370988377701 I I #
edge $-1 $376 -40.208822447076159 $208 -23.490503197189042 $301 $383 forward 7 unknown #
point $-1 23.490503197189042 24.867374468022735 10.712467552823721 #
point $-1 23.490503197189042 18.449799160277955 10.712467552823721 #
edge $-1 $384 1 $384 0 $211 $-1 forward 7 unknown #
vertex $-1 $212 $385 #
ellipse-curve $-1 28.267165840013931 18.33401538198526 4.1712510519815051 0 0.73135370988377701 0.68199835119979291 1.5 0 0 1 I I #
point $-1 29.767165840013931 21.658586814150347 7.2714639920961313 #
edge $-1 $386 1 $386 0 $215 $-1 forward 7 unknown #
vertex $-1 $216 $387 #
ellipse-curve $-1 35.43215980425127 18.33401538198526 4.1712510519815051 0 0.73135370988377701 0.68199835119979291 1.5 0 0 1 I I #
point $-1 36.93215980425127 21.658586814150347 7.2714639920961313 #
loop $-1 $-1 $227 $219 #
plane-surface $-1 0 -24.867374468022735 0 0 1 0 0 0 1 forward_v I I I I #
coedge $-1 $320 $222 $224 $324 reversed $139 $-1 #
coedge $-1 $222 $319 $388 $389 reversed $139 $-1 #
coedge $-1 $230 $225 $222 $322 forward $220 $-1 #
edge $-1 $325 -37.959300328789205 $390 -31.541725021044403 $321 $391 forward 7 unknown #
coedge $-1 $224 $223 $328 $392 reversed $87 $-1 #
edge $-1 $393 -2.6080534875291995e-014 $325 9.4099572183052693 $319 $394 forward 7 unknown #
vertex $-1 $226 $395 #
straight-curve $-1 15.9248314110663 -18.449799160277934 10.712467552823721 -1 0 0 I I #
coedge $-1 $388 $227 $230 $332 reversed $317 $-1 #
coedge $-1 $227 $388 $323 $392 forward $317 $-1 #
vertex $-1 $228 $396 #
straight-curve $-1 40.208822447076159 -24.867374468022732 42.92296456633828 0 0 1 I I #
straight-curve $-1 40.208822447076159 -24.867374468022717 3.830460431368536 0 -0.68199835119979291 -0.73135370988377701 I I #
edge $-1 $390 23.490503197189042 $231 40.208822447076159 $327 $397 forward 7 unknown #
point $-1 40.208822447076159 -24.867374468022735 10.712467552823721 #
point $-1 40.208822447076159 -18.449799160277934 10.712467552823721 #
edge $-1 $398 1 $398 0 $234 $-1 forward 7 unknown #
vertex $-1 $235 $399 #
ellipse-curve $-1 28.267165840013931 -18.33401538198526 4.1712510519815069 0 -0.73135370988377701 0.68199835119979291 1.5 0 0 1 I I #
point $-1 29.767165840013931 -21.658586814150347 7.271463992096133 #
edge $-1 $400 1 $400 0 $238 $-1 forward 7 unknown #
vertex $-1 $239 $401 #
ellipse-curve $-1 35.43215980425127 -18.33401538198526 4.1712510519815069 0 -0.73135370988377701 0.68199835119979291 1.5 0 0 1 I I #
point $-1 36.93215980425127 -21.658586814150347 7.271463992096133 #
plane-surface $-1 60.128788109988704 0 0 -1 0 0 0 0 1 forward_v I I I I #
coedge $-1 $247 $245 $249 $348 reversed $161 $-1 #
edge $-1 $260 -10.712467552823721 $350 10.712467552823721 $259 $402 forward 7 unknown #
vertex $-1 $348 $403 #
straight-curve $-1 -60.128788109988704 -24.867374468022735 0 0 0 -1 I I #
edge $-1 $346 -24.867374468022735 $350 24.867374468022735 $344 $404 forward 7 unknown #
straight-curve $-1 0 -24.867374468022735 -10.712467552823721 -1 0 0 I I #
vertex $-1 $252 $405 #
straight-curve $-1 0 24.867374468022735 -10.712467552823721 1 0 0 I I #
point $-1 60.128788109988704 24.867374468022735 -10.712467552823721 #
point $-1 60.128788109988704 -24.867374468022735 -10.712467552823721 #
straight-curve $-1 -60.128788109988704 0 10.712467552823721 0 -1 0 I I #
point $-1 -60.128788109988704 24.867374468022735 10.712467552823721 #
point $-1 -60.128788109988704 -24.867374468022735 10.712467552823721 #
straight-curve $-1 60.128788109988704 -24.867374468022735 0 0 0 -1 I I #
straight-curve $-1 60.128788109988704 24.867374468022735 0 0 0 -1 I I #
plane-surface $-1 0 24.867374468022735 0 0 -1 0 0 0 -1 forward_v I I I I #
coedge $-1 $273 $272 $406 $407 forward $109 $-1 #
edge $-1 $276 53.001163950199853 $408 60.128788109988704 $275 $409 forward 7 unknown #
coedge $-1 $281 $280 $273 $363 reversed $282 $-1 #
edge $-1 $410 -60.128788109988704 $364 -53.001163950199853 $362 $411 forward 7 unknown #
vertex $-1 $288 $412 #
straight-curve $-1 -53.001163950199853 0 -10.712467552823721 0 -1 0 I I #
point $-1 -53.001163950199853 -24.867374468022735 -10.712467552823721 #
coedge $-1 $406 $278 $281 $370 forward $270 $-1 #
coedge $-1 $278 $406 $285 $372 reversed $270 $-1 #
straight-curve $-1 -60.128788109988704 0 -7.7124675528237212 0 1 0 I I #
edge $-1 $283 7.7124675528237212 $410 10.712467552823721 $281 $413 forward 7 unknown #
point $-1 -60.128788109988704 24.867374468022735 -7.7124675528237212 #
edge $-1 $286 7.7124675528237212 $408 10.712467552823721 $368 $414 forward 7 unknown #
point $-1 -60.128788109988704 -24.867374468022735 -7.7124675528237212 #
straight-curve $-1 -53.001163950199853 24.867374468022735 -4.6062337764118606 0 0 -1 I I #
edge $-1 $376 50.397343585772106 $379 57.27935070722728 $292 $415 forward 7 unknown #
vertex $-1 $306 $416 #
straight-curve $-1 40.208822447076159 39.449591103207815 10.712467552823725 0 1 0 I I #
edge $-1 $379 -24.283991036009859 $303 -7.565671786122742 $302 $417 forward 7 unknown #
vertex $-1 $378 $418 #
straight-curve $-1 40.208822447076159 -9.0516423036959281 40.204153575883623 0 -0.68199835119979291 0.73135370988377701 I I #
point $-1 40.208822447076159 18.449799160277955 10.712467552823721 #
point $-1 23.490503197189042 24.867374468022732 3.8304604313685431 #
straight-curve $-1 0 24.867374468022735 10.712467552823721 -1 0 0 I I #
vertex $-1 $309 $419 #
point $-1 29.767165840013931 18.33401538198526 4.1712510519815051 #
vertex $-1 $313 $420 #
point $-1 36.93215980425127 18.33401538198526 4.1712510519815051 #
coedge $-1 $328 $327 $320 $389 forward $317 $-1 #
edge $-1 $390 32.210497013514555 $393 39.092504134969765 $388 $421 forward 7 unknown #
vertex $-1 $332 $422 #
straight-curve $-1 23.490503197189042 -56.409099489067138 10.712467552823718 0 -1 0 I I #
edge $-1 $393 7.565671786122742 $329 24.283991036009859 $328 $423 forward 7 unknown #
vertex $-1 $392 $424 #
straight-curve $-1 23.490503197189042 -24.867374468022717 3.830460431368536 0 0.68199835119979291 0.73135370988377701 I I #
point $-1 23.490503197189042 -18.449799160277934 10.712467552823721 #
point $-1 40.208822447076159 -24.867374468022735 3.8304604313685169 #
straight-curve $-1 0 -24.867374468022735 10.712467552823721 1 0 0 I I #
vertex $-1 $335 $425 #
point $-1 29.767165840013931 -18.33401538198526 4.1712510519815069 #
vertex $-1 $339 $426 #
point $-1 36.93215980425127 -18.33401538198526 4.1712510519815069 #
straight-curve $-1 -60.128788109988704 24.867374468022735 0 0 0 -1 I I #
point $-1 -60.128788109988704 -24.867374468022735 -10.712467552823721 #
straight-curve $-1 -60.128788109988704 0 -10.712467552823721 0 1 0 I I #
point $-1 -60.128788109988704 24.867374468022735 -10.712467552823721 #
coedge $-1 $368 $367 $360 $407 reversed $270 $-1 #
edge $-1 $408 -24.867374468022735 $410 24.867374468022735 $406 $427 forward 7 unknown #
vertex $-1 $407 $428 #
straight-curve $-1 0 -24.867374468022735 -10.712467552823721 -1 0 0 I I #
vertex $-1 $363 $429 #
straight-curve $-1 0 24.867374468022735 -10.712467552823721 1 0 0 I I #
point $-1 -53.001163950199853 24.867374468022735 -10.712467552823721 #
straight-curve $-1 -60.128788109988704 24.867374468022735 0 0 0 -1 I I #
straight-curve $-1 -60.128788109988704 -24.867374468022735 0 0 0 -1 I I #
straight-curve $-1 40.208822447076159 24.867374468022735 61.109811138595823 0 0 -1 I I #
point $-1 40.208822447076159 24.867374468022735 10.712467552823721 #
straight-curve $-1 15.9248314110663 24.867374468022732 3.8304604313685431 -1 0 0 I I #
point $-1 40.208822447076159 24.867374468022732 3.8304604313685431 #
point $-1 28.267165840013931 17.236984817159595 3.1482535251818162 #
point $-1 35.43215980425127 17.236984817159595 3.1482535251818162 #
straight-curve $-1 23.490503197189042 -24.867374468022732 42.92296456633828 0 0 -1 I I #
point $-1 23.490503197189042 -24.867374468022735 10.712467552823721 #
straight-curve $-1 15.9248314110663 -24.867374468022735 3.8304604313685138 1 0 0 I I #
point $-1 23.490503197189042 -24.867374468022735 3.8304604313685169 #
point $-1 28.267165840013931 -17.236984817159595 3.148253525181818 #
point $-1 35.43215980425127 -17.236984817159595 3.148253525181818 #
straight-curve $-1 -60.128788109988704 0 -10.712467552823721 0 1 0 I I #
point $-1 -60.128788109988704 -24.867374468022735 -10.712467552823721 #
point $-1 -60.128788109988704 24.867374468022735 -10.712467552823721 #
End-of-ACIS-data 