500 0 7 0           
7 Unknown 11 ACIS 5.0 NT 24 Thu Mar 25 18:37:21 1999 
-1 9.9999999999999995e-007 1e-010 
body $-1 $7 $-1 $8 #
body $-1 $9 $-1 $10 #
body $-1 $11 $-1 $12 #
body $-1 $13 $-1 $14 #
body $-1 $15 $-1 $16 #
body $-1 $17 $-1 $18 #
body $-1 $19 $-1 $20 #
lump $-1 $-1 $21 $0 #
transform $-1 1 0 0 0 1 0 0 0 1 73.299356059450048 49.598254115864144 19.067938070264709 1 rotate no_reflect no_shear #
lump $-1 $-1 $22 $1 #
transform $-1 1 0 0 0 1 0 0 0 1 73.299356059450048 49.598254115864144 19.067938070264709 1 rotate no_reflect no_shear #
lump $-1 $-1 $23 $2 #
transform $-1 1 0 0 0 1 0 0 0 1 73.299356059450048 49.598254115864144 19.067938070264709 1 rotate no_reflect no_shear #
lump $-1 $-1 $24 $3 #
transform $-1 1 0 0 0 1 0 0 0 1 73.299356059450048 49.598254115864144 19.067938070264709 1 rotate no_reflect no_shear #
lump $-1 $-1 $25 $4 #
transform $-1 1 0 0 0 1 0 0 0 1 73.299356059450048 49.598254115864144 19.067938070264709 1 rotate no_reflect no_shear #
lump $-1 $-1 $26 $5 #
transform $-1 1 0 0 0 1 0 0 0 1 73.299356059450048 49.598254115864144 19.067938070264709 1 rotate no_reflect no_shear #
lump $-1 $-1 $27 $6 #
transform $-1 1 0 0 0 1 0 0 0 1 73.299356059450048 49.598254115864144 19.067938070264709 1 rotate no_reflect no_shear #
shell $-1 $-1 $-1 $28 $-1 $7 #
shell $-1 $-1 $-1 $29 $-1 $9 #
shell $-1 $-1 $-1 $30 $-1 $11 #
shell $-1 $-1 $-1 $31 $-1 $13 #
shell $-1 $-1 $-1 $32 $-1 $15 #
shell $-1 $-1 $-1 $33 $-1 $17 #
shell $-1 $-1 $-1 $34 $-1 $19 #
face $-1 $35 $36 $21 $-1 $37 reversed single #
face $-1 $38 $39 $22 $-1 $40 forward single #
face $-1 $41 $42 $23 $-1 $43 forward single #
face $-1 $44 $45 $24 $-1 $46 reversed single #
face $-1 $47 $48 $25 $-1 $49 forward single #
face $-1 $50 $51 $26 $-1 $52 forward single #
face $-1 $53 $54 $27 $-1 $55 forward single #
face $-1 $56 $57 $21 $-1 $58 forward single #
loop $-1 $-1 $59 $28 #
plane-surface $-1 73.299356059450048 0 0 -1 0 0 0 0 1 forward_v I I I I #
face $-1 $60 $61 $22 $-1 $62 reversed single #
loop $-1 $-1 $63 $29 #
plane-surface $-1 -73.299356059450048 0 0 1 0 0 0 0 -1 forward_v I I I I #
face $-1 $64 $65 $23 $-1 $66 reversed single #
loop $-1 $-1 $67 $30 #
plane-surface $-1 73.299356059450048 0 0 -1 0 0 0 0 1 forward_v I I I I #
face $-1 $68 $69 $24 $-1 $70 reversed single #
loop $-1 $-1 $71 $31 #
plane-surface $-1 46.261410410844718 -163.5268524070066 100.10788298975405 -1 0 0 0 -0.77714596973225614 0.62932038083071107 forward_v I I I I #
face $-1 $72 $73 $25 $-1 $74 forward single #
loop $-1 $75 $76 $32 #
cone-surface $-1 33.2437135624983 -44.559644059702038 13.056921483268503 0 0.77714596973225614 -0.62932038083071107 1 0 0 1 I I 0 1 1 forward I I I I #
face $-1 $77 $78 $26 $-1 $79 forward single #
loop $-1 $80 $81 $33 #
cone-surface $-1 38.125349880628207 -44.559644059702038 13.056921483268503 0 0.77714596973225614 -0.62932038083071107 1 0 0 1 I I 0 1 1 forward I I I I #
face $-1 $82 $83 $27 $-1 $84 forward single #
loop $-1 $85 $86 $34 #
cone-surface $-1 43.006986198758113 -44.559644059702038 13.056921483268503 0 0.77714596973225614 -0.62932038083071107 1 0 0 1 I I 0 1 1 forward I I I I #
face $-1 $87 $88 $21 $-1 $89 reversed single #
loop $-1 $-1 $90 $35 #
plane-surface $-1 0 0 19.067938070264709 0 0 1 1 0 0 forward_v I I I I #
coedge $-1 $91 $92 $93 $94 reversed $36 $-1 #
face $-1 $95 $96 $22 $-1 $97 forward single #
loop $-1 $-1 $98 $38 #
plane-surface $-1 0 49.598254115864144 0 0 -1 0 0 0 -1 forward_v I I I I #
coedge $-1 $99 $100 $101 $102 forward $39 $-1 #
face $-1 $103 $104 $23 $-1 $105 forward single #
loop $-1 $-1 $106 $41 #
plane-surface $-1 0 -49.598254115864144 0 0 1 0 0 0 1 forward_v I I I I #
coedge $-1 $107 $108 $109 $110 forward $42 $-1 #
face $-1 $111 $112 $24 $-1 $113 reversed single #
loop $-1 $-1 $114 $44 #
plane-surface $-1 38.125349880628207 -49.598254115864137 7.8503256497960621 0 -0.77714596973225614 0.62932038083071107 1 0 0 forward_v I I I I #
coedge $-1 $115 $116 $117 $118 reversed $45 $-1 #
face $-1 $-1 $119 $25 $-1 $120 forward single #
loop $-1 $121 $122 $47 #
cone-surface $-1 33.2437135624983 -43.674382610889474 12.340050916091261 0 0.77714596973225614 -0.62932038083071107 0.5 0 0 1 I I -0.70710678118654746 0.70710678118654746 0.5 forward I I I I #
loop $-1 $-1 $123 $32 #
coedge $-1 $76 $76 $124 $125 reversed $48 $-1 #
face $-1 $-1 $126 $26 $-1 $127 forward single #
loop $-1 $128 $129 $50 #
cone-surface $-1 38.125349880628207 -43.674382610889474 12.340050916091261 0 0.77714596973225614 -0.62932038083071107 0.5 0 0 1 I I -0.70710678118654746 0.70710678118654746 0.5 forward I I I I #
loop $-1 $-1 $130 $33 #
coedge $-1 $81 $81 $131 $132 reversed $51 $-1 #
face $-1 $-1 $133 $27 $-1 $134 forward single #
loop $-1 $135 $136 $53 #
cone-surface $-1 43.006986198758113 -43.674382610889474 12.340050916091261 0 0.77714596973225614 -0.62932038083071107 0.5 0 0 1 I I -0.70710678118654746 0.70710678118654746 0.5 forward I I I I #
loop $-1 $-1 $137 $34 #
coedge $-1 $86 $86 $138 $139 reversed $54 $-1 #
face $-1 $140 $141 $21 $-1 $142 reversed single #
loop $-1 $-1 $143 $56 #
plane-surface $-1 0 0 -19.067938070264709 0 0 1 1 0 0 forward_v I I I I #
coedge $-1 $144 $145 $91 $146 forward $57 $-1 #
coedge $-1 $147 $59 $90 $146 reversed $36 $-1 #
coedge $-1 $59 $147 $143 $148 reversed $36 $-1 #
coedge $-1 $149 $150 $59 $94 forward $151 $-1 #
edge $-1 $152 -19.067938070264709 $153 19.067938070264709 $59 $154 forward 7 unknown #
face $-1 $155 $156 $22 $-1 $157 reversed single #
loop $-1 $-1 $101 $60 #
plane-surface $-1 -83.548854315195115 0 7.730502672315068 0 0 1 1 0 0 forward_v I I I I #
coedge $-1 $158 $159 $100 $160 forward $61 $-1 #
coedge $-1 $161 $63 $162 $163 reversed $39 $-1 #
coedge $-1 $63 $161 $98 $160 reversed $39 $-1 #
coedge $-1 $164 $165 $63 $102 reversed $96 $-1 #
edge $-1 $166 -49.598254115864144 $167 49.598254115864144 $101 $168 forward 7 unknown #
face $-1 $169 $170 $23 $-1 $171 reversed single #
loop $-1 $-1 $172 $64 #
plane-surface $-1 83.548854315195115 0 7.730502672315068 0 0 1 1 0 0 forward_v I I I I #
coedge $-1 $173 $174 $108 $175 forward $65 $-1 #
coedge $-1 $176 $67 $177 $178 reversed $42 $-1 #
coedge $-1 $67 $176 $106 $175 reversed $42 $-1 #
coedge $-1 $179 $180 $67 $110 reversed $104 $-1 #
edge $-1 $181 -49.598254115864144 $182 49.598254115864144 $109 $183 forward 7 unknown #
face $-1 $184 $185 $24 $-1 $186 forward single #
loop $-1 $-1 $187 $68 #
plane-surface $-1 29.989289350411696 -163.5268524070066 100.10788298975405 1 0 0 0 0.77714596973225614 -0.62932038083071107 forward_v I I I I #
coedge $-1 $188 $189 $190 $191 reversed $69 $-1 #
coedge $-1 $116 $71 $192 $193 reversed $45 $-1 #
coedge $-1 $71 $115 $188 $194 reversed $45 $-1 #
coedge $-1 $190 $195 $71 $118 forward $185 $-1 #
edge $-1 $196 32.165172087639156 $197 41.249015272070508 $117 $198 forward 7 unknown #
loop $-1 $-1 $124 $72 #
plane-surface $-1 38.125349880628207 -49.598254115864137 7.8503256497960621 0 -0.77714596973225614 0.62932038083071107 1 0 0 forward_v I I I I #
loop $-1 $-1 $199 $47 #
coedge $-1 $122 $122 $123 $200 reversed $73 $-1 #
coedge $-1 $123 $123 $122 $200 forward $75 $-1 #
coedge $-1 $124 $124 $76 $125 forward $119 $-1 #
edge $-1 $201 -4.8017148256621308e-015 $201 6.283185307179596 $124 $202 forward 7 unknown #
loop $-1 $-1 $131 $77 #
plane-surface $-1 38.125349880628207 -49.598254115864137 7.8503256497960621 0 -0.77714596973225614 0.62932038083071107 1 0 0 forward_v I I I I #
loop $-1 $-1 $203 $50 #
coedge $-1 $129 $129 $130 $204 reversed $78 $-1 #
coedge $-1 $130 $130 $129 $204 forward $80 $-1 #
coedge $-1 $131 $131 $81 $132 forward $126 $-1 #
edge $-1 $205 -4.8017148256621308e-015 $205 6.283185307179596 $131 $206 forward 7 unknown #
loop $-1 $-1 $138 $82 #
plane-surface $-1 38.125349880628207 -49.598254115864137 7.8503256497960621 0 -0.77714596973225614 0.62932038083071107 1 0 0 forward_v I I I I #
loop $-1 $-1 $207 $53 #
coedge $-1 $136 $136 $137 $208 reversed $83 $-1 #
coedge $-1 $137 $137 $136 $208 forward $85 $-1 #
coedge $-1 $138 $138 $86 $139 forward $133 $-1 #
edge $-1 $209 -4.8017148256621308e-015 $209 6.283185307179596 $138 $210 forward 7 unknown #
face $-1 $211 $212 $21 $-1 $213 reversed single #
loop $-1 $-1 $214 $87 #
plane-surface $-1 0 -49.598254115864144 0 0 1 0 0 0 1 forward_v I I I I #
coedge $-1 $215 $216 $92 $148 forward $88 $-1 #
coedge $-1 $217 $90 $150 $218 forward $57 $-1 #
coedge $-1 $90 $217 $219 $220 forward $57 $-1 #
edge $-1 $221 -49.598254115864144 $152 49.598254115864144 $91 $222 forward 7 unknown #
coedge $-1 $92 $91 $223 $224 forward $36 $-1 #
edge $-1 $153 -49.598254115864144 $225 49.598254115864144 $92 $226 forward 7 unknown #
coedge $-1 $227 $93 $216 $228 reversed $151 $-1 #
coedge $-1 $93 $227 $144 $218 reversed $151 $-1 #
loop $-1 $-1 $93 $211 #
vertex $-1 $146 $229 #
vertex $-1 $148 $230 #
straight-curve $-1 73.299356059450048 49.598254115864144 0 0 0 -1 I I #
face $-1 $231 $232 $22 $-1 $233 reversed single #
loop $-1 $-1 $234 $95 #
plane-surface $-1 -83.548854315195115 0 -3.6676632562800071 0 0 1 1 0 0 forward_v I I I I #
coedge $-1 $235 $98 $236 $237 reversed $61 $-1 #
coedge $-1 $98 $235 $164 $238 reversed $61 $-1 #
edge $-1 $166 -7.730502672315068 $239 3.6676632562800071 $98 $240 forward 7 unknown #
coedge $-1 $100 $99 $234 $241 forward $39 $-1 #
coedge $-1 $242 $243 $99 $163 forward $244 $-1 #
edge $-1 $245 -3.6676632562800071 $167 7.730502672315068 $162 $246 forward 7 unknown #
coedge $-1 $247 $101 $159 $238 forward $96 $-1 #
coedge $-1 $101 $247 $242 $248 forward $96 $-1 #
vertex $-1 $160 $249 #
vertex $-1 $248 $250 #
straight-curve $-1 -73.299356059450048 0 7.730502672315068 0 -1 0 I I #
face $-1 $251 $252 $23 $-1 $253 reversed single #
loop $-1 $-1 $254 $103 #
plane-surface $-1 83.548854315195115 0 -3.6676632562800071 0 0 1 1 0 0 forward_v I I I I #
coedge $-1 $180 $179 $255 $256 forward $104 $-1 #
coedge $-1 $257 $106 $258 $259 reversed $65 $-1 #
coedge $-1 $106 $257 $179 $260 reversed $65 $-1 #
edge $-1 $181 -7.730502672315068 $261 3.6676632562800071 $106 $262 forward 7 unknown #
coedge $-1 $108 $107 $263 $264 forward $42 $-1 #
coedge $-1 $265 $266 $107 $178 forward $267 $-1 #
edge $-1 $268 -3.6676632562800071 $182 7.730502672315068 $177 $269 forward 7 unknown #
coedge $-1 $172 $109 $174 $260 forward $104 $-1 #
coedge $-1 $109 $172 $265 $270 forward $104 $-1 #
vertex $-1 $175 $271 #
vertex $-1 $270 $272 #
straight-curve $-1 73.299356059450048 0 7.730502672315068 0 1 0 I I #
face $-1 $-1 $273 $24 $-1 $274 reversed single #
loop $-1 $-1 $117 $111 #
plane-surface $-1 0 0 19.067938070264709 0 0 1 1 0 0 forward_v I I I I #
coedge $-1 $275 $276 $277 $278 reversed $112 $-1 #
coedge $-1 $279 $114 $116 $194 forward $69 $-1 #
coedge $-1 $114 $279 $275 $280 forward $69 $-1 #
coedge $-1 $277 $117 $114 $191 forward $185 $-1 #
edge $-1 $197 -27.198735470530615 $281 -10.926614410097592 $190 $282 forward 7 unknown #
coedge $-1 $283 $284 $115 $193 forward $273 $-1 #
edge $-1 $285 -42.203615845080968 $196 -30.986003424612313 $192 $286 forward 7 unknown #
edge $-1 $197 -14.434369934818502 $285 1.1374033043381581e-014 $116 $287 forward 7 unknown #
coedge $-1 $117 $277 $283 $288 forward $185 $-1 #
vertex $-1 $193 $289 #
vertex $-1 $118 $290 #
straight-curve $-1 46.261410410844718 -81.7634262035033 19.067938070264709 0 1 0 I I #
coedge $-1 $199 $199 $-1 $291 reversed $121 $-1 #
edge $-1 $292 0 $292 6.2831853071796004 $122 $293 forward 7 unknown #
vertex $-1 $125 $294 #
ellipse-curve $-1 33.2437135624983 -45.056332523648464 13.459131860030384 0 -0.77714596973225614 0.62932038083071107 1 0 0 1 I I #
coedge $-1 $203 $203 $-1 $295 reversed $128 $-1 #
edge $-1 $296 0 $296 6.2831853071796004 $129 $297 forward 7 unknown #
vertex $-1 $132 $298 #
ellipse-curve $-1 38.125349880628207 -45.056332523648464 13.459131860030384 0 -0.77714596973225614 0.62932038083071107 1 0 0 1 I I #
coedge $-1 $207 $207 $-1 $299 reversed $135 $-1 #
edge $-1 $300 0 $300 6.2831853071796004 $136 $301 forward 7 unknown #
vertex $-1 $139 $302 #
ellipse-curve $-1 43.006986198758113 -45.056332523648464 13.459131860030384 0 -0.77714596973225614 0.62932038083071107 1 0 0 1 I I #
face $-1 $-1 $151 $21 $-1 $303 reversed single #
loop $-1 $-1 $304 $140 #
plane-surface $-1 -73.299356059450048 0 0 1 0 0 0 0 -1 forward_v I I I I #
coedge $-1 $305 $219 $304 $306 forward $141 $-1 #
coedge $-1 $307 $143 $305 $308 forward $88 $-1 #
coedge $-1 $143 $307 $149 $228 forward $88 $-1 #
coedge $-1 $145 $144 $309 $310 forward $57 $-1 #
edge $-1 $152 -73.299356059450048 $311 73.299356059450048 $150 $312 forward 7 unknown #
coedge $-1 $214 $223 $145 $220 reversed $141 $-1 #
edge $-1 $313 -73.299356059450048 $221 73.299356059450048 $219 $314 forward 7 unknown #
vertex $-1 $146 $315 #
straight-curve $-1 73.299356059450048 0 19.067938070264709 0 1 0 I I #
coedge $-1 $219 $305 $147 $224 reversed $141 $-1 #
edge $-1 $221 -19.067938070264709 $225 19.067938070264709 $147 $316 forward 7 unknown #
vertex $-1 $224 $317 #
straight-curve $-1 73.299356059450048 0 -19.067938070264709 0 -1 0 I I #
coedge $-1 $150 $149 $318 $319 reversed $151 $-1 #
edge $-1 $320 -73.299356059450048 $153 73.299356059450048 $149 $321 forward 7 unknown #
point $-1 73.299356059450048 49.598254115864144 19.067938070264709 #
point $-1 73.299356059450048 49.598254115864144 -19.067938070264709 #
face $-1 $-1 $244 $22 $-1 $322 reversed single #
loop $-1 $-1 $323 $155 #
plane-surface $-1 -93.798352570940182 0 2.0314197080175305 1 0 0 0 0 -1 forward_v I I I I #
coedge $-1 $324 $236 $161 $241 reversed $156 $-1 #
coedge $-1 $159 $158 $323 $325 reversed $61 $-1 #
coedge $-1 $234 $326 $158 $237 forward $156 $-1 #
edge $-1 $327 -10.249498255745067 $239 10.249498255745067 $158 $328 forward 7 unknown #
edge $-1 $166 -10.249498255745067 $329 10.249498255745067 $159 $330 forward 7 unknown #
vertex $-1 $160 $331 #
straight-curve $-1 -73.299356059450048 49.598254115864144 0 0 0 -1 I I #
edge $-1 $245 -49.598254115864144 $239 49.598254115864144 $234 $332 forward 7 unknown #
coedge $-1 $333 $162 $165 $248 reversed $244 $-1 #
coedge $-1 $162 $333 $324 $334 reversed $244 $-1 #
loop $-1 $-1 $162 $231 #
vertex $-1 $163 $335 #
straight-curve $-1 -73.299356059450048 -49.598254115864144 0 0 0 1 I I #
coedge $-1 $165 $164 $336 $337 forward $96 $-1 #
edge $-1 $338 -10.249498255745067 $167 10.249498255745067 $242 $339 forward 7 unknown #
point $-1 -73.299356059450048 49.598254115864144 7.730502672315068 #
point $-1 -73.299356059450048 -49.598254115864144 7.730502672315068 #
face $-1 $-1 $267 $23 $-1 $340 reversed single #
loop $-1 $-1 $341 $169 #
plane-surface $-1 93.798352570940182 0 2.0314197080175305 -1 0 0 0 0 1 forward_v I I I I #
coedge $-1 $258 $342 $343 $344 forward $170 $-1 #
coedge $-1 $341 $345 $172 $256 reversed $252 $-1 #
edge $-1 $346 -49.598254115864144 $347 49.598254115864144 $255 $348 forward 7 unknown #
coedge $-1 $174 $173 $341 $349 reversed $65 $-1 #
coedge $-1 $263 $254 $173 $259 forward $170 $-1 #
edge $-1 $350 -10.249498255745067 $261 10.249498255745067 $173 $351 forward 7 unknown #
edge $-1 $181 -10.249498255745067 $346 10.249498255745067 $174 $352 forward 7 unknown #
vertex $-1 $175 $353 #
straight-curve $-1 73.299356059450048 -49.598254115864144 0 0 0 -1 I I #
coedge $-1 $342 $258 $176 $264 reversed $170 $-1 #
edge $-1 $268 -49.598254115864144 $261 49.598254115864144 $263 $354 forward 7 unknown #
coedge $-1 $355 $177 $180 $270 reversed $267 $-1 #
coedge $-1 $177 $355 $342 $356 reversed $267 $-1 #
loop $-1 $-1 $177 $251 #
vertex $-1 $178 $357 #
straight-curve $-1 73.299356059450048 49.598254115864144 0 0 0 1 I I #
edge $-1 $347 -10.249498255745067 $182 10.249498255745067 $265 $358 forward 7 unknown #
point $-1 73.299356059450048 -49.598254115864144 7.730502672315068 #
point $-1 73.299356059450048 49.598254115864144 7.730502672315068 #
loop $-1 $-1 $192 $184 #
plane-surface $-1 0 -49.598254115864144 0 0 1 0 0 0 1 forward_v I I I I #
coedge $-1 $276 $187 $189 $280 reversed $112 $-1 #
coedge $-1 $187 $275 $359 $360 reversed $112 $-1 #
coedge $-1 $195 $190 $187 $278 forward $185 $-1 #
edge $-1 $281 -41.249015272070508 $361 -32.165172087639156 $277 $362 forward 7 unknown #
coedge $-1 $189 $188 $284 $363 reversed $69 $-1 #
edge $-1 $364 -1.1374033043381581e-014 $281 14.434369934818502 $275 $365 forward 7 unknown #
vertex $-1 $191 $366 #
straight-curve $-1 19.062674940314103 -40.514410931432792 19.067938070264709 -1 0 0 I I #
coedge $-1 $359 $192 $195 $288 reversed $273 $-1 #
coedge $-1 $192 $359 $279 $363 forward $273 $-1 #
vertex $-1 $193 $367 #
straight-curve $-1 46.261410410844718 -49.598254115864144 50.053941494877023 0 0 1 I I #
straight-curve $-1 46.261410410844718 -49.598254115864137 7.8503256497960621 0 -0.62932038083071107 -0.77714596973225614 I I #
edge $-1 $361 29.989289350411696 $196 46.261410410844718 $283 $368 forward 7 unknown #
point $-1 46.261410410844718 -49.598254115864144 19.067938070264709 #
point $-1 46.261410410844718 -40.514410931432792 19.067938070264709 #
edge $-1 $369 1 $369 0 $199 $-1 forward 7 unknown #
vertex $-1 $200 $370 #
ellipse-curve $-1 33.2437135624983 -44.062955595755604 12.654711106506618 0 -0.77714596973225614 0.62932038083071107 1 0 0 1 I I #
point $-1 34.2437135624983 -45.056332523648479 13.459131860030389 #
edge $-1 $371 1 $371 0 $203 $-1 forward 7 unknown #
vertex $-1 $204 $372 #
ellipse-curve $-1 38.125349880628207 -44.062955595755604 12.654711106506618 0 -0.77714596973225614 0.62932038083071107 1 0 0 1 I I #
point $-1 39.125349880628207 -45.056332523648479 13.459131860030389 #
edge $-1 $373 1 $373 0 $207 $-1 forward 7 unknown #
vertex $-1 $208 $374 #
ellipse-curve $-1 43.006986198758113 -44.062955595755604 12.654711106506618 0 -0.77714596973225614 0.62932038083071107 1 0 0 1 I I #
point $-1 44.006986198758113 -45.056332523648479 13.459131860030389 #
plane-surface $-1 0 49.598254115864144 0 0 -1 0 0 0 -1 forward_v I I I I #
coedge $-1 $309 $375 $214 $306 reversed $212 $-1 #
coedge $-1 $223 $214 $215 $308 reversed $141 $-1 #
edge $-1 $313 -19.067938070264709 $376 19.067938070264709 $304 $377 forward 7 unknown #
coedge $-1 $216 $215 $375 $378 forward $88 $-1 #
edge $-1 $225 -73.299356059450048 $376 73.299356059450048 $305 $379 forward 7 unknown #
coedge $-1 $318 $304 $217 $310 reversed $212 $-1 #
edge $-1 $311 -49.598254115864144 $313 49.598254115864144 $309 $380 forward 7 unknown #
vertex $-1 $218 $381 #
straight-curve $-1 0 49.598254115864144 19.067938070264709 -1 0 0 I I #
vertex $-1 $310 $382 #
straight-curve $-1 0 -49.598254115864144 19.067938070264709 1 0 0 I I #
point $-1 73.299356059450048 -49.598254115864144 19.067938070264709 #
straight-curve $-1 73.299356059450048 -49.598254115864144 0 0 0 -1 I I #
point $-1 73.299356059450048 -49.598254115864144 -19.067938070264709 #
coedge $-1 $375 $309 $227 $319 forward $212 $-1 #
edge $-1 $311 -19.067938070264709 $320 19.067938070264709 $227 $383 forward 7 unknown #
vertex $-1 $228 $384 #
straight-curve $-1 0 49.598254115864144 -19.067938070264709 1 0 0 I I #
plane-surface $-1 0 -49.598254115864144 0 0 1 0 0 0 1 forward_v I I I I #
coedge $-1 $385 $336 $235 $325 forward $232 $-1 #
coedge $-1 $326 $234 $243 $334 forward $156 $-1 #
edge $-1 $329 -5.6990829642975376 $327 5.6990829642975376 $235 $386 forward 7 unknown #
coedge $-1 $236 $324 $385 $387 forward $156 $-1 #
vertex $-1 $237 $388 #
straight-curve $-1 -83.548854315195115 49.598254115864144 -3.6676632562800071 1 0 0 I I #
vertex $-1 $238 $389 #
straight-curve $-1 -83.548854315195115 49.598254115864144 7.730502672315068 -1 0 0 I I #
point $-1 -73.299356059450048 49.598254115864144 -3.6676632562800071 #
straight-curve $-1 -73.299356059450048 0 -3.6676632562800071 0 1 0 I I #
coedge $-1 $243 $242 $390 $391 forward $244 $-1 #
edge $-1 $245 -10.249498255745067 $392 10.249498255745067 $243 $393 forward 7 unknown #
point $-1 -73.299356059450048 -49.598254115864144 -3.6676632562800071 #
coedge $-1 $323 $390 $247 $337 reversed $232 $-1 #
edge $-1 $329 -49.598254115864144 $338 49.598254115864144 $336 $394 forward 7 unknown #
vertex $-1 $337 $395 #
straight-curve $-1 -83.548854315195115 -49.598254115864144 7.730502672315068 1 0 0 I I #
plane-surface $-1 0 49.598254115864144 0 0 -1 0 0 0 -1 forward_v I I I I #
coedge $-1 $343 $255 $257 $349 forward $252 $-1 #
coedge $-1 $254 $263 $266 $356 forward $170 $-1 #
coedge $-1 $345 $341 $254 $344 reversed $252 $-1 #
edge $-1 $396 -49.598254115864144 $350 49.598254115864144 $343 $397 forward 7 unknown #
coedge $-1 $255 $343 $355 $398 reversed $252 $-1 #
vertex $-1 $256 $399 #
vertex $-1 $256 $400 #
straight-curve $-1 93.798352570940182 0 7.730502672315068 0 1 0 I I #
edge $-1 $346 -5.6990829642975376 $350 5.6990829642975376 $341 $401 forward 7 unknown #
vertex $-1 $349 $402 #
straight-curve $-1 83.548854315195115 -49.598254115864144 -3.6676632562800071 -1 0 0 I I #
straight-curve $-1 83.548854315195115 -49.598254115864144 7.730502672315068 1 0 0 I I #
point $-1 73.299356059450048 -49.598254115864144 -3.6676632562800071 #
straight-curve $-1 73.299356059450048 0 -3.6676632562800071 0 -1 0 I I #
coedge $-1 $266 $265 $345 $398 forward $267 $-1 #
edge $-1 $268 -10.249498255745067 $396 10.249498255745067 $266 $403 forward 7 unknown #
point $-1 73.299356059450048 49.598254115864144 -3.6676632562800071 #
straight-curve $-1 83.548854315195115 49.598254115864144 7.730502672315068 -1 0 0 I I #
coedge $-1 $284 $283 $276 $360 forward $273 $-1 #
edge $-1 $361 30.986003424612313 $364 42.203615845080968 $359 $404 forward 7 unknown #
vertex $-1 $288 $405 #
straight-curve $-1 29.989289350411696 -81.7634262035033 19.067938070264709 0 -1 0 I I #
edge $-1 $364 10.926614410097592 $285 27.198735470530615 $284 $406 forward 7 unknown #
vertex $-1 $363 $407 #
straight-curve $-1 29.989289350411696 -49.598254115864137 7.8503256497960621 0 0.62932038083071107 0.77714596973225614 I I #
point $-1 29.989289350411696 -40.514410931432792 19.067938070264709 #
point $-1 46.261410410844718 -49.598254115864144 7.8503256497960532 #
straight-curve $-1 0 -49.598254115864144 19.067938070264709 1 0 0 I I #
vertex $-1 $291 $408 #
point $-1 34.2437135624983 -44.062955595755604 12.654711106506618 #
vertex $-1 $295 $409 #
point $-1 39.125349880628207 -44.062955595755604 12.654711106506618 #
vertex $-1 $299 $410 #
point $-1 44.006986198758113 -44.062955595755604 12.654711106506618 #
coedge $-1 $304 $318 $307 $378 reversed $212 $-1 #
vertex $-1 $378 $411 #
straight-curve $-1 -73.299356059450048 -49.598254115864144 0 0 0 -1 I I #
edge $-1 $376 -49.598254115864144 $320 49.598254115864144 $375 $412 forward 7 unknown #
straight-curve $-1 0 -49.598254115864144 -19.067938070264709 -1 0 0 I I #
straight-curve $-1 -73.299356059450048 0 19.067938070264709 0 -1 0 I I #
point $-1 -73.299356059450048 49.598254115864144 19.067938070264709 #
point $-1 -73.299356059450048 -49.598254115864144 19.067938070264709 #
straight-curve $-1 -73.299356059450048 49.598254115864144 0 0 0 -1 I I #
point $-1 -73.299356059450048 49.598254115864144 -19.067938070264709 #
coedge $-1 $390 $323 $326 $387 reversed $232 $-1 #
straight-curve $-1 -93.798352570940182 49.598254115864144 2.0314197080175305 0 0 -1 I I #
edge $-1 $392 -49.598254115864144 $327 49.598254115864144 $385 $413 forward 7 unknown #
point $-1 -93.798352570940182 49.598254115864144 -3.6676632562800071 #
point $-1 -93.798352570940182 49.598254115864144 7.730502672315068 #
coedge $-1 $336 $385 $333 $391 reversed $232 $-1 #
edge $-1 $338 -5.6990829642975376 $392 5.6990829642975376 $390 $414 forward 7 unknown #
vertex $-1 $387 $415 #
straight-curve $-1 -83.548854315195115 -49.598254115864144 -3.6676632562800071 -1 0 0 I I #
straight-curve $-1 -93.798352570940182 0 7.730502672315068 0 -1 0 I I #
point $-1 -93.798352570940182 -49.598254115864144 7.730502672315068 #
vertex $-1 $344 $416 #
straight-curve $-1 93.798352570940182 0 -3.6676632562800071 0 -1 0 I I #
edge $-1 $347 -5.6990829642975376 $396 5.6990829642975376 $345 $417 forward 7 unknown #
point $-1 93.798352570940182 -49.598254115864144 7.730502672315068 #
point $-1 93.798352570940182 49.598254115864144 7.730502672315068 #
straight-curve $-1 93.798352570940182 -49.598254115864144 2.0314197080175305 0 0 -1 I I #
point $-1 93.798352570940182 -49.598254115864144 -3.6676632562800071 #
straight-curve $-1 83.548854315195115 49.598254115864144 -3.6676632562800071 1 0 0 I I #
straight-curve $-1 29.989289350411696 -49.598254115864144 50.053941494877023 0 0 -1 I I #
point $-1 29.989289350411696 -49.598254115864144 19.067938070264709 #
straight-curve $-1 19.062674940314103 -49.598254115864144 7.8503256497960461 1 0 0 I I #
point $-1 29.989289350411696 -49.598254115864144 7.8503256497960532 #
point $-1 33.2437135624983 -43.285809626023344 12.025390725675905 #
point $-1 38.125349880628207 -43.285809626023344 12.025390725675905 #
point $-1 43.006986198758113 -43.285809626023344 12.025390725675905 #
point $-1 -73.299356059450048 -49.598254115864144 -19.067938070264709 #
straight-curve $-1 -73.299356059450048 0 -19.067938070264709 0 1 0 I I #
straight-curve $-1 -93.798352570940182 0 -3.6676632562800071 0 1 0 I I #
straight-curve $-1 -93.798352570940182 -49.598254115864144 2.0314197080175305 0 0 -1 I I #
point $-1 -93.798352570940182 -49.598254115864144 -3.6676632562800071 #
point $-1 93.798352570940182 49.598254115864144 -3.6676632562800071 #
straight-curve $-1 93.798352570940182 49.598254115864144 2.0314197080175305 0 0 -1 I I #
End-of-ACIS-data 