500 0 4 0           
7 Unknown 11 ACIS 5.0 NT 24 Fri Mar 26 03:15:33 1999 
-1 9.9999999999999995e-007 1e-010 
body $-1 $4 $-1 $5 #
body $-1 $6 $-1 $7 #
body $-1 $8 $-1 $9 #
body $-1 $10 $-1 $11 #
lump $-1 $-1 $12 $0 #
transform $-1 1 0 0 0 1 0 0 0 1 59.719840083010347 31.089966126652534 12.73581338922793 1 rotate no_reflect no_shear #
lump $-1 $-1 $13 $1 #
transform $-1 1 0 0 0 1 0 0 0 1 59.719840083010347 31.089966126652534 12.73581338922793 1 rotate no_reflect no_shear #
lump $-1 $-1 $14 $2 #
transform $-1 1 0 0 0 1 0 0 0 1 59.719840083010347 31.089966126652534 12.73581338922793 1 rotate no_reflect no_shear #
lump $-1 $-1 $15 $3 #
transform $-1 1 0 0 0 1 0 0 0 1 59.719840083010347 31.089966126652534 12.73581338922793 1 rotate no_reflect no_shear #
shell $-1 $-1 $-1 $16 $-1 $4 #
shell $-1 $-1 $-1 $17 $-1 $6 #
shell $-1 $-1 $-1 $18 $-1 $8 #
shell $-1 $-1 $-1 $19 $-1 $10 #
face $-1 $20 $21 $12 $-1 $22 forward single #
face $-1 $23 $24 $13 $-1 $25 forward single #
face $-1 $26 $27 $14 $-1 $28 forward single #
face $-1 $29 $30 $15 $-1 $31 reversed single #
face $-1 $32 $33 $12 $-1 $34 reversed single #
loop $-1 $-1 $35 $16 #
plane-surface $-1 0 0 12.73581338922793 0 0 1 1 0 0 forward_v I I I I #
face $-1 $36 $37 $13 $-1 $38 forward single #
loop $-1 $-1 $39 $17 #
plane-surface $-1 -41.304108533693082 -26.707450189232684 0 1 0 0 0 0 -1 forward_v I I I I #
face $-1 $40 $41 $14 $-1 $42 forward single #
loop $-1 $-1 $43 $18 #
plane-surface $-1 39.640690994154937 46.330288744247902 140.16086591481286 1 0 0 0 -0.55919291073839883 -0.82903756765294845 forward_v I I I I #
face $-1 $44 $45 $15 $-1 $46 reversed single #
loop $-1 $47 $48 $19 #
cone-surface $-1 49.680265538582638 25.783340451794391 8.6813143956253782 0 -0.55919291073839883 -0.82903756765294845 1.5 0 0 1 I I 0 1 1.5 forward I I I I #
face $-1 $49 $50 $12 $-1 $51 reversed single #
loop $-1 $-1 $52 $20 #
plane-surface $-1 0 0 -12.73581338922793 0 0 1 1 0 0 forward_v I I I I #
coedge $-1 $53 $54 $55 $56 forward $21 $-1 #
face $-1 $57 $58 $13 $-1 $59 forward single #
loop $-1 $-1 $60 $23 #
plane-surface $-1 -39.444012029990326 -22.324934251812834 0 0 -1 0 0 0 -1 forward_v I I I I #
coedge $-1 $61 $62 $63 $64 reversed $24 $-1 #
face $-1 $65 $66 $14 $-1 $67 forward single #
loop $-1 $-1 $68 $26 #
plane-surface $-1 49.680265538582638 -20.459533665452618 41.140883988728959 0 0.55919291073839883 0.82903756765294845 1 0 0 forward_v I I I I #
coedge $-1 $69 $70 $71 $72 reversed $27 $-1 #
face $-1 $73 $74 $15 $-1 $75 forward single #
loop $-1 $76 $77 $29 #
cone-surface $-1 49.680265538582638 24.775945898764959 7.1877905796536563 0 -0.55919291073839883 -0.82903756765294845 0.75 0 0 1 I I -0.70710678118654757 0.70710678118654757 0.75 forward I I I I #
loop $-1 $-1 $78 $19 #
coedge $-1 $48 $48 $79 $80 reversed $30 $-1 #
face $-1 $81 $82 $12 $-1 $83 reversed single #
loop $-1 $-1 $84 $32 #
plane-surface $-1 0 -31.089966126652534 0 0 1 0 0 0 1 forward_v I I I I #
coedge $-1 $85 $86 $87 $88 forward $33 $-1 #
coedge $-1 $89 $35 $90 $91 forward $21 $-1 #
coedge $-1 $35 $89 $92 $93 forward $21 $-1 #
coedge $-1 $94 $95 $35 $56 reversed $96 $-1 #
edge $-1 $97 -31.089966126652534 $98 31.089966126652534 $55 $99 forward 7 unknown #
face $-1 $100 $101 $13 $-1 $102 forward single #
loop $-1 $-1 $103 $36 #
plane-surface $-1 -37.583915526287569 -26.707450189232684 0 -1 0 0 0 0 1 forward_v I I I I #
coedge $-1 $104 $105 $106 $107 reversed $37 $-1 #
coedge $-1 $108 $39 $109 $110 reversed $24 $-1 #
coedge $-1 $39 $108 $111 $112 reversed $24 $-1 #
coedge $-1 $105 $104 $39 $64 forward $37 $-1 #
edge $-1 $113 -12.73581338922793 $114 12.73581338922793 $63 $115 forward 7 unknown #
face $-1 $116 $117 $14 $-1 $118 reversed single #
loop $-1 $-1 $119 $40 #
plane-surface $-1 0 0 12.73581338922793 0 0 1 1 0 0 forward_v I I I I #
coedge $-1 $120 $121 $119 $122 reversed $41 $-1 #
coedge $-1 $70 $43 $121 $123 forward $27 $-1 #
coedge $-1 $43 $69 $124 $125 reversed $27 $-1 #
coedge $-1 $126 $119 $43 $72 forward $66 $-1 #
edge $-1 $127 -1.5124298552364586 $128 7.9248217545285833 $71 $129 forward 7 unknown #
face $-1 $130 $131 $15 $-1 $132 forward single #
loop $-1 $-1 $133 $44 #
plane-surface $-1 39.640690994154937 46.330288744247902 140.16086591481286 1 0 0 0 -0.55919291073839883 -0.82903756765294845 forward_v I I I I #
loop $-1 $-1 $134 $29 #
coedge $-1 $77 $77 $78 $135 forward $45 $-1 #
coedge $-1 $78 $78 $77 $135 reversed $47 $-1 #
coedge $-1 $79 $79 $48 $80 forward $131 $-1 #
edge $-1 $136 1.3244348687123848e-015 $136 6.2831853071796013 $79 $137 forward 7 unknown #
face $-1 $138 $139 $12 $-1 $140 reversed single #
loop $-1 $-1 $141 $49 #
plane-surface $-1 -59.719840083010347 0 0 1 0 0 0 0 -1 forward_v I I I I #
coedge $-1 $142 $92 $143 $144 forward $50 $-1 #
coedge $-1 $145 $52 $142 $146 forward $33 $-1 #
coedge $-1 $52 $145 $147 $148 forward $33 $-1 #
coedge $-1 $95 $94 $52 $88 reversed $96 $-1 #
edge $-1 $149 -31.089966126652534 $150 31.089966126652534 $87 $151 forward 7 unknown #
coedge $-1 $54 $53 $152 $153 forward $21 $-1 #
coedge $-1 $154 $155 $53 $91 reversed $139 $-1 #
edge $-1 $98 -59.719840083010347 $156 59.719840083010347 $90 $157 forward 7 unknown #
coedge $-1 $84 $158 $54 $93 reversed $50 $-1 #
edge $-1 $159 -59.719840083010347 $97 59.719840083010347 $92 $160 forward 7 unknown #
coedge $-1 $87 $55 $158 $161 forward $96 $-1 #
coedge $-1 $55 $87 $154 $162 reversed $96 $-1 #
loop $-1 $-1 $94 $138 #
vertex $-1 $56 $163 #
vertex $-1 $56 $164 #
straight-curve $-1 59.719840083010347 0 12.73581338922793 0 1 0 I I #
face $-1 $165 $166 $13 $-1 $167 reversed single #
loop $-1 $-1 $109 $57 #
plane-surface $-1 0 0 12.73581338922793 0 0 1 1 0 0 forward_v I I I I #
coedge $-1 $168 $169 $170 $171 reversed $58 $-1 #
coedge $-1 $63 $60 $172 $173 reversed $37 $-1 #
coedge $-1 $60 $63 $174 $175 reversed $37 $-1 #
coedge $-1 $169 $168 $60 $107 forward $58 $-1 #
edge $-1 $176 -12.73581338922793 $177 12.73581338922793 $106 $178 forward 7 unknown #
coedge $-1 $62 $61 $179 $180 reversed $24 $-1 #
coedge $-1 $172 $181 $61 $110 forward $101 $-1 #
edge $-1 $182 -17.73624103203619 $113 -8.9712091571964923 $109 $183 forward 7 unknown #
coedge $-1 $184 $174 $62 $112 forward $185 $-1 #
edge $-1 $114 8.9712091571964923 $186 17.73624103203619 $111 $187 forward 7 unknown #
vertex $-1 $110 $188 #
vertex $-1 $112 $189 #
straight-curve $-1 -41.304108533693082 -22.324934251812834 0 0 0 -1 I I #
face $-1 $190 $191 $14 $-1 $192 forward single #
loop $-1 $-1 $124 $65 #
plane-surface $-1 0 31.089966126652534 0 0 -1 0 0 0 -1 forward_v I I I I #
coedge $-1 $71 $193 $68 $122 forward $66 $-1 #
coedge $-1 $194 $68 $195 $196 reversed $41 $-1 #
coedge $-1 $68 $194 $69 $123 reversed $41 $-1 #
edge $-1 $197 -34.879707313719024 $127 -14.800558224863618 $119 $198 forward 7 unknown #
edge $-1 $127 50.796549909749245 $199 62.179932253305068 $69 $200 forward 7 unknown #
coedge $-1 $201 $202 $70 $125 forward $117 $-1 #
edge $-1 $128 57.344619568178501 $199 63.710126274919581 $124 $203 forward 7 unknown #
coedge $-1 $204 $71 $202 $205 forward $66 $-1 #
vertex $-1 $122 $206 #
vertex $-1 $205 $207 #
straight-curve $-1 39.640690994154937 23.165144372123951 12.735813389227928 0 1 0 I I #
face $-1 $208 $209 $15 $-1 $210 forward single #
loop $-1 $211 $79 $73 #
plane-surface $-1 49.680265538582638 -20.459533665452618 41.140883988728959 0 0.55919291073839883 0.82903756765294845 1 0 0 forward_v I I I I #
coedge $-1 $212 $213 $214 $215 reversed $74 $-1 #
coedge $-1 $134 $134 $-1 $216 forward $76 $-1 #
edge $-1 $217 0 $217 6.2831853071796004 $77 $218 forward 7 unknown #
vertex $-1 $80 $219 #
ellipse-curve $-1 49.680265538582638 26.37134032177002 9.5530600358573867 0 -0.55919291073839883 -0.82903756765294845 1.5 0 0 1 I I #
face $-1 $-1 $96 $12 $-1 $220 reversed single #
loop $-1 $-1 $154 $81 #
plane-surface $-1 0 31.089966126652534 0 0 -1 0 0 0 -1 forward_v I I I I #
coedge $-1 $221 $152 $155 $222 forward $82 $-1 #
coedge $-1 $158 $84 $85 $146 reversed $50 $-1 #
coedge $-1 $152 $221 $84 $144 reversed $82 $-1 #
edge $-1 $159 -12.73581338922793 $223 12.73581338922793 $143 $224 forward 7 unknown #
coedge $-1 $86 $85 $221 $225 forward $33 $-1 #
edge $-1 $150 -59.719840083010347 $223 59.719840083010347 $142 $226 forward 7 unknown #
coedge $-1 $155 $154 $86 $148 reversed $139 $-1 #
edge $-1 $227 -59.719840083010347 $149 59.719840083010347 $147 $228 forward 7 unknown #
vertex $-1 $88 $229 #
vertex $-1 $161 $230 #
straight-curve $-1 59.719840083010347 0 -12.73581338922793 0 -1 0 I I #
coedge $-1 $141 $143 $89 $153 reversed $82 $-1 #
edge $-1 $156 -31.089966126652534 $159 31.089966126652534 $152 $231 forward 7 unknown #
coedge $-1 $147 $90 $95 $162 forward $139 $-1 #
coedge $-1 $90 $147 $141 $222 reversed $139 $-1 #
vertex $-1 $91 $232 #
straight-curve $-1 0 31.089966126652534 12.73581338922793 -1 0 0 I I #
coedge $-1 $92 $142 $94 $161 reversed $50 $-1 #
vertex $-1 $153 $233 #
straight-curve $-1 0 -31.089966126652534 12.73581338922793 1 0 0 I I #
edge $-1 $97 -12.73581338922793 $150 12.73581338922793 $94 $234 forward 7 unknown #
edge $-1 $98 -12.73581338922793 $149 12.73581338922793 $95 $235 forward 7 unknown #
point $-1 59.719840083010347 -31.089966126652534 12.73581338922793 #
point $-1 59.719840083010347 31.089966126652534 12.73581338922793 #
face $-1 $236 $185 $13 $-1 $237 reversed single #
loop $-1 $-1 $170 $100 #
plane-surface $-1 0 -31.089966126652534 0 0 1 0 0 0 1 forward_v I I I I #
coedge $-1 $106 $103 $238 $239 reversed $58 $-1 #
coedge $-1 $103 $106 $240 $241 reversed $58 $-1 #
coedge $-1 $242 $243 $103 $171 forward $166 $-1 #
edge $-1 $244 -12.73581338922793 $245 12.73581338922793 $170 $246 forward 7 unknown #
coedge $-1 $238 $109 $104 $173 forward $101 $-1 #
edge $-1 $113 -21.582102518697919 $176 -17.861909511292406 $172 $247 forward 7 unknown #
coedge $-1 $111 $240 $105 $175 forward $185 $-1 #
edge $-1 $177 17.861909511292406 $114 21.582102518697919 $174 $248 forward 7 unknown #
vertex $-1 $173 $249 #
vertex $-1 $175 $250 #
straight-curve $-1 -37.583915526287569 -22.324934251812834 0 0 0 -1 I I #
coedge $-1 $251 $252 $108 $180 forward $253 $-1 #
edge $-1 $186 -12.73581338922793 $182 12.73581338922793 $179 $254 forward 7 unknown #
coedge $-1 $109 $255 $251 $256 forward $101 $-1 #
vertex $-1 $180 $257 #
straight-curve $-1 -41.304108533693082 -13.353725094616342 12.73581338922793 0 1 0 I I #
coedge $-1 $258 $111 $252 $259 forward $185 $-1 #
loop $-1 $-1 $111 $165 #
vertex $-1 $259 $260 #
straight-curve $-1 -41.304108533693082 -13.353725094616342 -12.73581338922793 0 -1 0 I I #
point $-1 -41.304108533693082 -22.324934251812834 12.73581338922793 #
point $-1 -41.304108533693082 -22.324934251812834 -12.73581338922793 #
face $-1 $261 $262 $14 $-1 $263 forward single #
loop $-1 $-1 $264 $116 #
plane-surface $-1 -41.304108533693082 -26.707450189232684 0 1 0 0 0 0 -1 forward_v I I I I #
coedge $-1 $119 $265 $266 $267 forward $66 $-1 #
coedge $-1 $121 $120 $201 $268 reversed $41 $-1 #
coedge $-1 $266 $269 $120 $196 forward $270 $-1 #
edge $-1 $271 -42.196225906640777 $197 -30.812843563084947 $195 $272 forward 7 unknown #
vertex $-1 $196 $273 #
straight-curve $-1 24.840132769291319 21.652714516887492 12.735813389227928 -1 0 0 I I #
vertex $-1 $268 $274 #
straight-curve $-1 39.640690994154937 -20.459533665452618 41.140883988728959 0 0.82903756765294845 -0.55919291073839883 I I #
coedge $-1 $275 $124 $194 $268 forward $117 $-1 #
coedge $-1 $124 $276 $126 $205 reversed $117 $-1 #
straight-curve $-1 39.640690994154937 31.089966126652534 70.08043295740643 0 0 -1 I I #
coedge $-1 $277 $126 $278 $279 forward $66 $-1 #
edge $-1 $128 -39.640690994154937 $280 59.719840083010347 $202 $281 forward 7 unknown #
point $-1 39.640690994154937 21.652714516887492 12.735813389227928 #
point $-1 39.640690994154937 31.089966126652534 12.73581338922793 #
face $-1 $282 $283 $15 $-1 $284 reversed single #
loop $-1 $-1 $285 $130 #
plane-surface $-1 0 0 12.73581338922793 0 0 1 1 0 0 forward_v I I I I #
loop $-1 $-1 $286 $73 #
coedge $-1 $213 $133 $287 $288 forward $74 $-1 #
coedge $-1 $133 $212 $289 $290 reversed $74 $-1 #
coedge $-1 $291 $285 $133 $215 forward $209 $-1 #
edge $-1 $292 -1.5124298552364586 $293 7.9248217545285833 $214 $294 forward 7 unknown #
edge $-1 $295 1 $295 0 $134 $-1 forward 7 unknown #
vertex $-1 $135 $296 #
ellipse-curve $-1 49.680265538582638 25.195340581818758 7.8095687553933679 0 0.55919291073839883 0.82903756765294845 1.5 0 0 1 I I #
point $-1 51.180265538582638 26.37134032177002 9.5530600358573903 #
plane-surface $-1 59.719840083010347 0 0 -1 0 0 0 0 1 forward_v I I I I #
coedge $-1 $143 $141 $145 $225 reversed $82 $-1 #
edge $-1 $156 -12.73581338922793 $227 12.73581338922793 $155 $297 forward 7 unknown #
vertex $-1 $225 $298 #
straight-curve $-1 -59.719840083010347 -31.089966126652534 0 0 0 -1 I I #
edge $-1 $223 -31.089966126652534 $227 31.089966126652534 $221 $299 forward 7 unknown #
straight-curve $-1 0 -31.089966126652534 -12.73581338922793 -1 0 0 I I #
vertex $-1 $148 $300 #
straight-curve $-1 0 31.089966126652534 -12.73581338922793 1 0 0 I I #
point $-1 59.719840083010347 31.089966126652534 -12.73581338922793 #
point $-1 59.719840083010347 -31.089966126652534 -12.73581338922793 #
straight-curve $-1 -59.719840083010347 0 12.73581338922793 0 -1 0 I I #
point $-1 -59.719840083010347 31.089966126652534 12.73581338922793 #
point $-1 -59.719840083010347 -31.089966126652534 12.73581338922793 #
straight-curve $-1 59.719840083010347 -31.089966126652534 0 0 0 -1 I I #
straight-curve $-1 59.719840083010347 31.089966126652534 0 0 0 -1 I I #
face $-1 $301 $253 $13 $-1 $167 reversed single #
plane-surface $-1 0 0 -12.73581338922793 0 0 1 1 0 0 forward_v I I I I #
coedge $-1 $302 $172 $168 $239 forward $101 $-1 #
edge $-1 $176 8.9712091571964923 $244 17.73624103203619 $238 $303 forward 7 unknown #
coedge $-1 $174 $304 $169 $241 forward $185 $-1 #
edge $-1 $245 -17.73624103203619 $177 -8.9712091571964923 $240 $305 forward 7 unknown #
coedge $-1 $306 $170 $304 $307 reversed $166 $-1 #
coedge $-1 $170 $306 $302 $308 reversed $166 $-1 #
vertex $-1 $308 $309 #
vertex $-1 $171 $310 #
straight-curve $-1 -37.583915526287569 -31.089966126652534 0 0 0 -1 I I #
straight-curve $-1 -19.722006014995163 -22.324934251812834 12.73581338922793 1 0 0 I I #
straight-curve $-1 -19.722006014995163 -22.324934251812834 -12.73581338922793 -1 0 0 I I #
point $-1 -37.583915526287569 -22.324934251812834 12.73581338922793 #
point $-1 -37.583915526287569 -22.324934251812834 -12.73581338922793 #
coedge $-1 $311 $179 $181 $256 reversed $253 $-1 #
coedge $-1 $179 $311 $184 $259 reversed $253 $-1 #
loop $-1 $-1 $179 $236 #
straight-curve $-1 -41.304108533693082 -31.089966126652534 0 0 0 1 I I #
coedge $-1 $181 $312 $313 $314 forward $101 $-1 #
edge $-1 $315 -59.719840083010347 $182 -41.304108533693082 $251 $316 forward 7 unknown #
point $-1 -41.304108533693082 -31.089966126652534 12.73581338922793 #
coedge $-1 $317 $184 $318 $319 forward $185 $-1 #
edge $-1 $186 41.304108533693082 $320 59.719840083010347 $252 $321 forward 7 unknown #
point $-1 -41.304108533693082 -31.089966126652534 -12.73581338922793 #
face $-1 $322 $323 $14 $-1 $324 forward single #
loop $-1 $-1 $325 $190 #
plane-surface $-1 -39.444012029990326 -22.324934251812834 0 0 -1 0 0 0 -1 forward_v I I I I #
coedge $-1 $326 $327 $328 $329 reversed $191 $-1 #
coedge $-1 $193 $330 $331 $332 forward $66 $-1 #
coedge $-1 $333 $195 $193 $267 reversed $270 $-1 #
edge $-1 $334 -31.089966126652534 $197 21.652714516887492 $266 $335 forward 7 unknown #
edge $-1 $199 14.800558224863618 $271 34.879707313719024 $201 $336 forward 7 unknown #
coedge $-1 $195 $337 $275 $338 reversed $270 $-1 #
loop $-1 $-1 $195 $339 #
vertex $-1 $338 $340 #
straight-curve $-1 59.719840083010347 -3.892290363123263 29.966137069396339 0 -0.82903756765294845 0.55919291073839883 I I #
point $-1 59.71984008301034 21.652714516887492 12.735813389227928 #
point $-1 39.640690994154937 31.089966126652534 6.3703066824868486 #
coedge $-1 $341 $201 $269 $338 forward $117 $-1 #
coedge $-1 $202 $341 $342 $343 reversed $117 $-1 #
coedge $-1 $344 $204 $345 $346 forward $66 $-1 #
coedge $-1 $342 $347 $204 $279 reversed $348 $-1 #
edge $-1 $280 -31.089966126652534 $349 31.089966126652534 $278 $350 forward 7 unknown #
vertex $-1 $205 $351 #
straight-curve $-1 0 31.089966126652534 12.73581338922793 -1 0 0 I I #
face $-1 $352 $353 $15 $-1 $354 forward single #
loop $-1 $-1 $289 $208 #
plane-surface $-1 0 31.089966126652534 0 0 -1 0 0 0 -1 forward_v I I I I #
coedge $-1 $214 $355 $286 $356 forward $209 $-1 #
coedge $-1 $357 $287 $285 $356 reversed $211 $-1 #
coedge $-1 $286 $358 $212 $288 reversed $211 $-1 #
edge $-1 $292 50.796549909749245 $359 62.179932253305068 $212 $360 forward 7 unknown #
coedge $-1 $361 $362 $213 $290 forward $283 $-1 #
edge $-1 $293 57.344619568178501 $359 63.710126274919581 $289 $363 forward 7 unknown #
coedge $-1 $364 $214 $362 $365 forward $209 $-1 #
vertex $-1 $356 $366 #
vertex $-1 $365 $367 #
straight-curve $-1 39.640690994154937 23.165144372123951 12.735813389227928 0 1 0 I I #
vertex $-1 $216 $368 #
point $-1 51.180265538582638 25.195340581818758 7.8095687553933679 #
straight-curve $-1 -59.719840083010347 31.089966126652534 0 0 0 -1 I I #
point $-1 -59.719840083010347 -31.089966126652534 -12.73581338922793 #
straight-curve $-1 -59.719840083010347 0 -12.73581338922793 0 1 0 I I #
point $-1 -59.719840083010347 31.089966126652534 -12.73581338922793 #
face $-1 $369 $370 $13 $-1 $371 reversed single #
coedge $-1 $372 $238 $243 $308 forward $101 $-1 #
straight-curve $-1 -37.583915526287569 -13.353725094616342 12.73581338922793 0 -1 0 I I #
coedge $-1 $240 $373 $242 $307 forward $185 $-1 #
straight-curve $-1 -37.583915526287569 -13.353725094616342 -12.73581338922793 0 1 0 I I #
coedge $-1 $243 $242 $374 $375 reversed $166 $-1 #
edge $-1 $376 -59.719840083010347 $245 37.583915526287569 $242 $321 forward 7 unknown #
edge $-1 $244 -37.583915526287569 $377 59.719840083010347 $243 $316 forward 7 unknown #
point $-1 -37.583915526287569 -31.089966126652534 12.73581338922793 #
point $-1 -37.583915526287569 -31.089966126652534 -12.73581338922793 #
coedge $-1 $252 $251 $378 $379 forward $253 $-1 #
coedge $-1 $255 $372 $380 $381 forward $101 $-1 #
coedge $-1 $382 $378 $255 $314 reversed $370 $-1 #
edge $-1 $383 -31.089966126652534 $315 31.089966126652534 $313 $384 forward 7 unknown #
vertex $-1 $314 $385 #
straight-curve $-1 0 -31.089966126652534 12.73581338922793 1 0 0 I I #
coedge $-1 $373 $258 $386 $387 forward $185 $-1 #
coedge $-1 $378 $382 $258 $319 reversed $370 $-1 #
edge $-1 $320 -31.089966126652534 $388 31.089966126652534 $318 $389 forward 7 unknown #
vertex $-1 $319 $390 #
straight-curve $-1 0 -31.089966126652534 -12.73581338922793 -1 0 0 I I #
face $-1 $391 $392 $14 $-1 $393 reversed single #
loop $-1 $-1 $394 $261 #
plane-surface $-1 -37.583915526287569 -26.707450189232684 0 -1 0 0 0 0 1 forward_v I I I I #
coedge $-1 $395 $396 $397 $398 reversed $262 $-1 #
coedge $-1 $399 $264 $344 $400 reversed $191 $-1 #
coedge $-1 $264 $399 $401 $402 reversed $191 $-1 #
coedge $-1 $396 $395 $264 $329 forward $262 $-1 #
edge $-1 $403 -12.73581338922793 $404 12.73581338922793 $328 $405 forward 7 unknown #
coedge $-1 $265 $406 $407 $408 forward $66 $-1 #
coedge $-1 $409 $410 $265 $332 reversed $392 $-1 #
edge $-1 $411 -37.583915526287569 $334 59.719840083010347 $331 $412 forward 7 unknown #
coedge $-1 $337 $266 $410 $413 forward $270 $-1 #
vertex $-1 $267 $414 #
straight-curve $-1 59.719840083010347 0 12.73581338922793 0 1 0 I I #
straight-curve $-1 24.840132769291319 31.089966126652538 6.3703066824868486 1 0 0 I I #
coedge $-1 $269 $333 $415 $416 reversed $270 $-1 #
edge $-1 $271 -6.3703066824868486 $417 12.73581338922793 $269 $418 forward 7 unknown #
face $-1 $-1 $270 $14 $-1 $419 reversed single #
point $-1 59.71984008301034 31.089966126652534 6.3703066824868486 #
coedge $-1 $276 $275 $420 $421 reversed $117 $-1 #
coedge $-1 $422 $278 $276 $343 forward $348 $-1 #
edge $-1 $280 -12.73581338922793 $423 12.73581338922793 $276 $424 forward 7 unknown #
coedge $-1 $406 $277 $326 $400 forward $66 $-1 #
coedge $-1 $425 $426 $277 $346 reversed $427 $-1 #
edge $-1 $349 -59.719840083010347 $428 -41.304108533693082 $345 $412 forward 7 unknown #
coedge $-1 $278 $422 $425 $429 reversed $348 $-1 #
loop $-1 $-1 $342 $430 #
vertex $-1 $279 $431 #
straight-curve $-1 -59.719840083010347 0 12.73581338922793 0 -1 0 I I #
point $-1 -59.719840083010347 31.089966126652534 12.73581338922793 #
face $-1 $432 $433 $15 $-1 $434 forward single #
loop $-1 $-1 $435 $282 #
plane-surface $-1 -41.304108533693082 -26.707450189232684 0 1 0 0 0 0 -1 forward_v I I I I #
coedge $-1 $285 $436 $437 $438 forward $209 $-1 #
edge $-1 $439 -34.879707313719024 $292 -14.800558224863618 $285 $440 forward 7 unknown #
coedge $-1 $358 $286 $441 $442 reversed $211 $-1 #
coedge $-1 $287 $357 $361 $443 reversed $211 $-1 #
vertex $-1 $443 $444 #
straight-curve $-1 39.640690994154937 -20.459533665452618 41.140883988728959 0 0.82903756765294845 -0.55919291073839883 I I #
coedge $-1 $445 $289 $358 $443 forward $283 $-1 #
coedge $-1 $289 $446 $291 $365 reversed $283 $-1 #
straight-curve $-1 39.640690994154937 31.089966126652534 70.08043295740643 0 0 -1 I I #
coedge $-1 $447 $291 $448 $449 forward $209 $-1 #
edge $-1 $293 -39.640690994154937 $450 59.719840083010347 $362 $451 forward 7 unknown #
point $-1 39.640690994154937 21.652714516887492 12.735813389227928 #
point $-1 39.640690994154937 31.089966126652534 12.73581338922793 #
point $-1 49.680265538582638 24.356551215711161 6.5660124039139447 #
face $-1 $452 $453 $13 $-1 $454 reversed single #
loop $-1 $-1 $382 $301 #
plane-surface $-1 -59.719840083010347 0 0 1 0 0 0 0 -1 forward_v I I I I #
coedge $-1 $312 $302 $455 $456 forward $101 $-1 #
coedge $-1 $304 $317 $457 $458 forward $185 $-1 #
coedge $-1 $457 $455 $306 $375 forward $459 $-1 #
edge $-1 $377 -12.73581338922793 $376 12.73581338922793 $374 $460 forward 7 unknown #
vertex $-1 $375 $461 #
vertex $-1 $456 $462 #
coedge $-1 $313 $318 $311 $379 reversed $370 $-1 #
edge $-1 $315 -12.73581338922793 $320 12.73581338922793 $378 $463 forward 7 unknown #
coedge $-1 $464 $465 $312 $381 reversed $453 $-1 #
edge $-1 $466 -59.719840083010347 $383 59.719840083010347 $380 $467 forward 7 unknown #
coedge $-1 $318 $313 $465 $468 forward $370 $-1 #
vertex $-1 $381 $469 #
straight-curve $-1 -59.719840083010347 0 12.73581338922793 0 -1 0 I I #
point $-1 -59.719840083010347 -31.089966126652534 12.73581338922793 #
coedge $-1 $465 $464 $317 $387 reversed $453 $-1 #
edge $-1 $388 -59.719840083010347 $470 59.719840083010347 $386 $471 forward 7 unknown #
vertex $-1 $387 $472 #
straight-curve $-1 -59.719840083010347 0 -12.73581338922793 0 1 0 I I #
point $-1 -59.719840083010347 -31.089966126652534 -12.73581338922793 #
face $-1 $473 $474 $14 $-1 $475 reversed single #
loop $-1 $-1 $409 $322 #
plane-surface $-1 0 -31.089966126652534 0 0 1 0 0 0 1 forward_v I I I I #
coedge $-1 $407 $476 $409 $477 reversed $323 $-1 #
coedge $-1 $328 $325 $406 $478 reversed $262 $-1 #
coedge $-1 $325 $328 $479 $480 reversed $262 $-1 #
coedge $-1 $476 $407 $325 $398 forward $323 $-1 #
edge $-1 $481 -12.73581338922793 $482 12.73581338922793 $397 $483 forward 7 unknown #
coedge $-1 $327 $326 $426 $484 reversed $191 $-1 #
edge $-1 $428 -17.73624103203619 $403 -8.9712091571964923 $344 $485 forward 7 unknown #
coedge $-1 $486 $479 $327 $402 forward $474 $-1 #
edge $-1 $404 8.9712091571964923 $487 17.73624103203619 $401 $488 forward 7 unknown #
vertex $-1 $400 $489 #
vertex $-1 $402 $490 #
straight-curve $-1 -41.304108533693082 -22.324934251812834 0 0 0 -1 I I #
coedge $-1 $330 $344 $395 $478 forward $66 $-1 #
coedge $-1 $397 $394 $330 $408 reversed $323 $-1 #
edge $-1 $481 8.9712091571964923 $411 17.73624103203619 $330 $491 forward 7 unknown #
coedge $-1 $492 $331 $394 $477 forward $392 $-1 #
coedge $-1 $331 $492 $333 $413 reversed $392 $-1 #
vertex $-1 $332 $493 #
straight-curve $-1 0 -31.089966126652534 12.73581338922793 1 0 0 I I #
edge $-1 $334 -12.73581338922793 $494 12.73581338922793 $333 $495 forward 7 unknown #
point $-1 59.719840083010347 -31.089966126652534 12.73581338922793 #
coedge $-1 $496 $420 $337 $416 forward $474 $-1 #
edge $-1 $417 -31.089966126652534 $494 31.089966126652534 $337 $497 forward 7 unknown #
vertex $-1 $416 $498 #
straight-curve $-1 59.719840083010347 31.089966126652534 0 0 0 -1 I I #
plane-surface $-1 59.719840083010347 0 0 -1 0 0 0 0 1 forward_v I I I I #
coedge $-1 $415 $499 $341 $421 forward $474 $-1 #
edge $-1 $423 -59.719840083010347 $417 59.719840083010347 $341 $500 forward 7 unknown #
coedge $-1 $347 $342 $499 $501 reversed $348 $-1 #
vertex $-1 $421 $502 #
straight-curve $-1 -59.719840083010347 31.089966126652534 0 0 0 -1 I I #
coedge $-1 $503 $345 $347 $429 forward $427 $-1 #
coedge $-1 $345 $503 $399 $484 forward $427 $-1 #
loop $-1 $-1 $426 $473 #
vertex $-1 $484 $504 #
edge $-1 $349 -12.73581338922793 $505 12.73581338922793 $347 $506 forward 7 unknown #
face $-1 $339 $348 $14 $-1 $507 reversed single #
point $-1 -59.719840083010347 -31.089966126652534 12.73581338922793 #
face $-1 $508 $509 $15 $-1 $510 forward single #
loop $-1 $-1 $511 $352 #
plane-surface $-1 -39.444012029990326 -22.324934251812834 0 0 -1 0 0 0 -1 forward_v I I I I #
coedge $-1 $512 $513 $514 $515 reversed $353 $-1 #
coedge $-1 $355 $516 $517 $518 forward $209 $-1 #
coedge $-1 $519 $441 $355 $438 reversed $520 $-1 #
edge $-1 $521 -31.089966126652534 $439 21.652714516887492 $437 $522 forward 7 unknown #
vertex $-1 $442 $523 #
straight-curve $-1 24.840132769291319 21.652714516887492 12.735813389227928 -1 0 0 I I #
coedge $-1 $437 $524 $357 $442 forward $520 $-1 #
edge $-1 $525 -42.196225906640777 $439 -30.812843563084947 $441 $526 forward 7 unknown #
edge $-1 $359 14.800558224863618 $525 34.879707313719024 $361 $527 forward 7 unknown #
point $-1 39.640690994154937 31.089966126652534 6.3703066824868486 #
coedge $-1 $528 $361 $524 $529 forward $283 $-1 #
coedge $-1 $362 $528 $530 $531 reversed $283 $-1 #
coedge $-1 $532 $364 $533 $534 forward $209 $-1 #
coedge $-1 $530 $535 $364 $449 reversed $536 $-1 #
edge $-1 $450 -31.089966126652534 $537 31.089966126652534 $448 $538 forward 7 unknown #
vertex $-1 $365 $539 #
straight-curve $-1 0 31.089966126652534 12.73581338922793 -1 0 0 I I #
face $-1 $-1 $459 $13 $-1 $540 reversed single #
loop $-1 $-1 $464 $369 #
plane-surface $-1 0 31.089966126652534 0 0 -1 0 0 0 -1 forward_v I I I I #
coedge $-1 $374 $541 $372 $456 reversed $459 $-1 #
edge $-1 $377 -31.089966126652534 $466 31.089966126652534 $455 $542 forward 7 unknown #
coedge $-1 $541 $374 $373 $458 reversed $459 $-1 #
edge $-1 $470 -31.089966126652534 $376 31.089966126652534 $457 $543 forward 7 unknown #
loop $-1 $-1 $374 $452 #
straight-curve $-1 59.719840083010347 -31.089966126652534 0 0 0 -1 I I #
point $-1 59.719840083010347 -31.089966126652534 -12.73581338922793 #
point $-1 59.719840083010347 -31.089966126652534 12.73581338922793 #
straight-curve $-1 -59.719840083010347 -31.089966126652534 0 0 0 -1 I I #
coedge $-1 $386 $380 $541 $544 forward $453 $-1 #
coedge $-1 $380 $386 $382 $468 reversed $453 $-1 #
vertex $-1 $456 $545 #
straight-curve $-1 0 31.089966126652534 12.73581338922793 -1 0 0 I I #
edge $-1 $383 -12.73581338922793 $388 12.73581338922793 $465 $546 forward 7 unknown #
point $-1 -59.719840083010347 31.089966126652534 12.73581338922793 #
vertex $-1 $458 $547 #
straight-curve $-1 0 31.089966126652534 -12.73581338922793 1 0 0 I I #
point $-1 -59.719840083010347 31.089966126652534 -12.73581338922793 #
face $-1 $430 $427 $14 $-1 $393 reversed single #
loop $-1 $-1 $401 $391 #
plane-surface $-1 0 0 -12.73581338922793 0 0 1 1 0 0 forward_v I I I I #
coedge $-1 $394 $397 $548 $549 reversed $323 $-1 #
edge $-1 $411 -12.73581338922793 $550 12.73581338922793 $409 $551 forward 7 unknown #
edge $-1 $403 -21.582102518697919 $481 -17.861909511292406 $406 $552 forward 7 unknown #
coedge $-1 $401 $548 $396 $480 forward $474 $-1 #
edge $-1 $482 17.861909511292406 $404 21.582102518697919 $479 $553 forward 7 unknown #
vertex $-1 $478 $554 #
vertex $-1 $480 $555 #
straight-curve $-1 -37.583915526287569 -22.324934251812834 0 0 0 -1 I I #
edge $-1 $487 -12.73581338922793 $428 12.73581338922793 $426 $556 forward 7 unknown #
straight-curve $-1 -41.304108533693082 -13.353725094616342 12.73581338922793 0 1 0 I I #
coedge $-1 $499 $401 $503 $557 forward $474 $-1 #
vertex $-1 $557 $558 #
straight-curve $-1 -41.304108533693082 -13.353725094616342 -12.73581338922793 0 -1 0 I I #
point $-1 -41.304108533693082 -22.324934251812834 12.73581338922793 #
point $-1 -41.304108533693082 -22.324934251812834 -12.73581338922793 #
straight-curve $-1 -37.583915526287569 -13.353725094616342 12.73581338922793 0 -1 0 I I #
coedge $-1 $410 $409 $496 $559 reversed $392 $-1 #
point $-1 -37.583915526287569 -31.089966126652534 12.73581338922793 #
vertex $-1 $413 $560 #
straight-curve $-1 59.719840083010347 -31.089966126652534 0 0 0 -1 I I #
coedge $-1 $548 $415 $492 $559 forward $474 $-1 #
straight-curve $-1 59.719840083010347 0 -12.73581338922793 0 -1 0 I I #
point $-1 59.719840083010347 31.089966126652534 -12.73581338922793 #
coedge $-1 $420 $486 $422 $501 forward $474 $-1 #
straight-curve $-1 0 31.089966126652534 -12.73581338922793 1 0 0 I I #
edge $-1 $505 -31.089966126652534 $423 31.089966126652534 $422 $561 forward 7 unknown #
point $-1 -59.719840083010347 31.089966126652534 -12.73581338922793 #
coedge $-1 $426 $425 $486 $557 reversed $427 $-1 #
point $-1 -41.304108533693082 -31.089966126652534 12.73581338922793 #
vertex $-1 $501 $562 #
straight-curve $-1 -59.719840083010347 -31.089966126652534 0 0 0 -1 I I #
plane-surface $-1 -59.719840083010347 0 0 1 0 0 0 0 -1 forward_v I I I I #
face $-1 $563 $564 $15 $-1 $565 reversed single #
loop $-1 $-1 $566 $432 #
plane-surface $-1 -37.583915526287569 -26.707450189232684 0 -1 0 0 0 0 1 forward_v I I I I #
coedge $-1 $567 $568 $569 $570 reversed $433 $-1 #
coedge $-1 $571 $435 $532 $572 reversed $353 $-1 #
coedge $-1 $435 $571 $573 $574 reversed $353 $-1 #
coedge $-1 $568 $567 $435 $515 forward $433 $-1 #
edge $-1 $575 -12.73581338922793 $576 12.73581338922793 $514 $577 forward 7 unknown #
coedge $-1 $436 $578 $579 $580 forward $209 $-1 #
coedge $-1 $581 $582 $436 $518 reversed $564 $-1 #
edge $-1 $583 -37.583915526287569 $521 59.719840083010347 $517 $584 forward 7 unknown #
coedge $-1 $585 $437 $582 $586 forward $520 $-1 #
loop $-1 $-1 $441 $587 #
vertex $-1 $438 $588 #
straight-curve $-1 59.719840083010347 0 12.73581338922793 0 1 0 I I #
point $-1 59.71984008301034 21.652714516887492 12.735813389227928 #
coedge $-1 $441 $585 $445 $529 reversed $520 $-1 #
vertex $-1 $529 $589 #
straight-curve $-1 59.719840083010347 -3.892290363123263 29.966137069396339 0 -0.82903756765294845 0.55919291073839883 I I #
straight-curve $-1 24.840132769291319 31.089966126652538 6.3703066824868486 1 0 0 I I #
coedge $-1 $446 $445 $590 $591 reversed $283 $-1 #
edge $-1 $525 -6.3703066824868486 $592 12.73581338922793 $524 $593 forward 7 unknown #
coedge $-1 $594 $448 $446 $531 forward $536 $-1 #
edge $-1 $450 -12.73581338922793 $595 12.73581338922793 $446 $596 forward 7 unknown #
coedge $-1 $578 $447 $512 $572 forward $209 $-1 #
coedge $-1 $597 $598 $447 $534 reversed $599 $-1 #
edge $-1 $537 -59.719840083010347 $600 -41.304108533693082 $533 $584 forward 7 unknown #
coedge $-1 $448 $594 $597 $601 reversed $536 $-1 #
loop $-1 $-1 $530 $602 #
vertex $-1 $449 $603 #
straight-curve $-1 -59.719840083010347 0 12.73581338922793 0 -1 0 I I #
point $-1 -59.719840083010347 31.089966126652534 12.73581338922793 #
plane-surface $-1 59.719840083010347 0 0 -1 0 0 0 0 1 forward_v I I I I #
coedge $-1 $455 $457 $464 $544 reversed $459 $-1 #
straight-curve $-1 59.719840083010347 0 12.73581338922793 0 1 0 I I #
straight-curve $-1 59.719840083010347 0 -12.73581338922793 0 -1 0 I I #
edge $-1 $466 -12.73581338922793 $470 12.73581338922793 $541 $604 forward 7 unknown #
point $-1 59.719840083010347 31.089966126652534 12.73581338922793 #
straight-curve $-1 -59.719840083010347 31.089966126652534 0 0 0 -1 I I #
point $-1 59.719840083010347 31.089966126652534 -12.73581338922793 #
coedge $-1 $479 $496 $476 $549 forward $474 $-1 #
edge $-1 $550 -17.73624103203619 $482 -8.9712091571964923 $548 $605 forward 7 unknown #
vertex $-1 $477 $606 #
straight-curve $-1 -37.583915526287569 -31.089966126652534 0 0 0 -1 I I #
straight-curve $-1 -19.722006014995163 -22.324934251812834 12.73581338922793 1 0 0 I I #
straight-curve $-1 -19.722006014995163 -22.324934251812834 -12.73581338922793 -1 0 0 I I #
point $-1 -37.583915526287569 -22.324934251812834 12.73581338922793 #
point $-1 -37.583915526287569 -22.324934251812834 -12.73581338922793 #
straight-curve $-1 -41.304108533693082 -31.089966126652534 0 0 0 1 I I #
edge $-1 $487 41.304108533693082 $505 59.719840083010347 $503 $607 forward 7 unknown #
point $-1 -41.304108533693082 -31.089966126652534 -12.73581338922793 #
edge $-1 $494 -59.719840083010347 $550 37.583915526287569 $492 $607 forward 7 unknown #
point $-1 59.719840083010347 -31.089966126652534 -12.73581338922793 #
straight-curve $-1 -59.719840083010347 0 -12.73581338922793 0 1 0 I I #
point $-1 -59.719840083010347 -31.089966126652534 -12.73581338922793 #
face $-1 $608 $609 $15 $-1 $610 reversed single #
loop $-1 $-1 $581 $508 #
plane-surface $-1 0 -31.089966126652534 0 0 1 0 0 0 1 forward_v I I I I #
coedge $-1 $579 $611 $581 $612 reversed $509 $-1 #
coedge $-1 $514 $511 $578 $613 reversed $433 $-1 #
coedge $-1 $511 $514 $614 $615 reversed $433 $-1 #
coedge $-1 $611 $579 $511 $570 forward $509 $-1 #
edge $-1 $616 -12.73581338922793 $617 12.73581338922793 $569 $618 forward 7 unknown #
coedge $-1 $513 $512 $598 $619 reversed $353 $-1 #
edge $-1 $600 -17.73624103203619 $575 -8.9712091571964923 $532 $620 forward 7 unknown #
coedge $-1 $621 $614 $513 $574 forward $609 $-1 #
edge $-1 $576 8.9712091571964923 $622 17.73624103203619 $573 $623 forward 7 unknown #
vertex $-1 $572 $624 #
vertex $-1 $574 $625 #
straight-curve $-1 -41.304108533693082 -22.324934251812834 0 0 0 -1 I I #
coedge $-1 $516 $532 $567 $613 forward $209 $-1 #
coedge $-1 $569 $566 $516 $580 reversed $509 $-1 #
edge $-1 $616 8.9712091571964923 $583 17.73624103203619 $516 $626 forward 7 unknown #
coedge $-1 $627 $517 $566 $612 forward $564 $-1 #
coedge $-1 $517 $627 $519 $586 reversed $564 $-1 #
vertex $-1 $518 $628 #
straight-curve $-1 0 -31.089966126652534 12.73581338922793 1 0 0 I I #
coedge $-1 $524 $519 $629 $630 reversed $520 $-1 #
edge $-1 $521 -12.73581338922793 $631 12.73581338922793 $519 $632 forward 7 unknown #
face $-1 $-1 $520 $15 $-1 $633 reversed single #
point $-1 59.719840083010347 -31.089966126652534 12.73581338922793 #
point $-1 59.71984008301034 31.089966126652534 6.3703066824868486 #
coedge $-1 $629 $634 $528 $591 forward $609 $-1 #
edge $-1 $595 -59.719840083010347 $592 59.719840083010347 $528 $635 forward 7 unknown #
vertex $-1 $630 $636 #
straight-curve $-1 59.719840083010347 31.089966126652534 0 0 0 -1 I I #
coedge $-1 $535 $530 $634 $637 reversed $536 $-1 #
vertex $-1 $591 $638 #
straight-curve $-1 -59.719840083010347 31.089966126652534 0 0 0 -1 I I #
coedge $-1 $639 $533 $535 $601 forward $599 $-1 #
coedge $-1 $533 $639 $571 $619 forward $599 $-1 #
loop $-1 $-1 $598 $608 #
vertex $-1 $619 $640 #
edge $-1 $537 -12.73581338922793 $641 12.73581338922793 $535 $642 forward 7 unknown #
face $-1 $587 $536 $15 $-1 $643 reversed single #
point $-1 -59.719840083010347 -31.089966126652534 12.73581338922793 #
straight-curve $-1 59.719840083010347 31.089966126652534 0 0 0 -1 I I #
straight-curve $-1 -37.583915526287569 -13.353725094616342 -12.73581338922793 0 1 0 I I #
point $-1 -37.583915526287569 -31.089966126652534 -12.73581338922793 #
straight-curve $-1 0 -31.089966126652534 -12.73581338922793 -1 0 0 I I #
face $-1 $602 $599 $15 $-1 $565 reversed single #
loop $-1 $-1 $573 $563 #
plane-surface $-1 0 0 -12.73581338922793 0 0 1 1 0 0 forward_v I I I I #
coedge $-1 $566 $569 $644 $645 reversed $509 $-1 #
edge $-1 $583 -12.73581338922793 $646 12.73581338922793 $581 $647 forward 7 unknown #
edge $-1 $575 -21.582102518697919 $616 -17.861909511292406 $578 $648 forward 7 unknown #
coedge $-1 $573 $644 $568 $615 forward $609 $-1 #
edge $-1 $617 17.861909511292406 $576 21.582102518697919 $614 $649 forward 7 unknown #
vertex $-1 $613 $650 #
vertex $-1 $615 $651 #
straight-curve $-1 -37.583915526287569 -22.324934251812834 0 0 0 -1 I I #
edge $-1 $622 -12.73581338922793 $600 12.73581338922793 $598 $652 forward 7 unknown #
straight-curve $-1 -41.304108533693082 -13.353725094616342 12.73581338922793 0 1 0 I I #
coedge $-1 $634 $573 $639 $653 forward $609 $-1 #
vertex $-1 $653 $654 #
straight-curve $-1 -41.304108533693082 -13.353725094616342 -12.73581338922793 0 -1 0 I I #
point $-1 -41.304108533693082 -22.324934251812834 12.73581338922793 #
point $-1 -41.304108533693082 -22.324934251812834 -12.73581338922793 #
straight-curve $-1 -37.583915526287569 -13.353725094616342 12.73581338922793 0 -1 0 I I #
coedge $-1 $582 $581 $655 $656 reversed $564 $-1 #
point $-1 -37.583915526287569 -31.089966126652534 12.73581338922793 #
coedge $-1 $655 $590 $585 $630 forward $609 $-1 #
edge $-1 $592 -31.089966126652534 $631 31.089966126652534 $585 $657 forward 7 unknown #
vertex $-1 $586 $658 #
straight-curve $-1 59.719840083010347 -31.089966126652534 0 0 0 -1 I I #
plane-surface $-1 59.719840083010347 0 0 -1 0 0 0 0 1 forward_v I I I I #
coedge $-1 $590 $621 $594 $637 forward $609 $-1 #
straight-curve $-1 0 31.089966126652534 -12.73581338922793 1 0 0 I I #
point $-1 59.719840083010347 31.089966126652534 -12.73581338922793 #
edge $-1 $641 -31.089966126652534 $595 31.089966126652534 $594 $659 forward 7 unknown #
point $-1 -59.719840083010347 31.089966126652534 -12.73581338922793 #
coedge $-1 $598 $597 $621 $653 reversed $599 $-1 #
point $-1 -41.304108533693082 -31.089966126652534 12.73581338922793 #
vertex $-1 $637 $660 #
straight-curve $-1 -59.719840083010347 -31.089966126652534 0 0 0 -1 I I #
plane-surface $-1 -59.719840083010347 0 0 1 0 0 0 0 -1 forward_v I I I I #
coedge $-1 $614 $655 $611 $645 forward $609 $-1 #
edge $-1 $646 -17.73624103203619 $617 -8.9712091571964923 $644 $661 forward 7 unknown #
vertex $-1 $612 $662 #
straight-curve $-1 -37.583915526287569 -31.089966126652534 0 0 0 -1 I I #
straight-curve $-1 -19.722006014995163 -22.324934251812834 12.73581338922793 1 0 0 I I #
straight-curve $-1 -19.722006014995163 -22.324934251812834 -12.73581338922793 -1 0 0 I I #
point $-1 -37.583915526287569 -22.324934251812834 12.73581338922793 #
point $-1 -37.583915526287569 -22.324934251812834 -12.73581338922793 #
straight-curve $-1 -41.304108533693082 -31.089966126652534 0 0 0 1 I I #
edge $-1 $622 41.304108533693082 $641 59.719840083010347 $639 $663 forward 7 unknown #
point $-1 -41.304108533693082 -31.089966126652534 -12.73581338922793 #
coedge $-1 $644 $629 $627 $656 forward $609 $-1 #
edge $-1 $631 -59.719840083010347 $646 37.583915526287569 $627 $663 forward 7 unknown #
straight-curve $-1 59.719840083010347 0 -12.73581338922793 0 -1 0 I I #
point $-1 59.719840083010347 -31.089966126652534 -12.73581338922793 #
straight-curve $-1 -59.719840083010347 0 -12.73581338922793 0 1 0 I I #
point $-1 -59.719840083010347 -31.089966126652534 -12.73581338922793 #
straight-curve $-1 -37.583915526287569 -13.353725094616342 -12.73581338922793 0 1 0 I I #
point $-1 -37.583915526287569 -31.089966126652534 -12.73581338922793 #
straight-curve $-1 0 -31.089966126652534 -12.73581338922793 -1 0 0 I I #
End-of-ACIS-data 