500 0 13 0           
7 Unknown 11 ACIS 5.0 NT 24 Fri Mar 26 02:20:45 1999 
-1 9.9999999999999995e-007 1e-010 
body $-1 $13 $-1 $14 #
body $-1 $15 $-1 $16 #
body $-1 $17 $-1 $18 #
body $-1 $19 $-1 $20 #
body $-1 $21 $-1 $22 #
body $-1 $23 $-1 $24 #
body $-1 $25 $-1 $26 #
body $-1 $27 $-1 $28 #
body $-1 $29 $-1 $30 #
body $-1 $31 $-1 $32 #
body $-1 $33 $-1 $34 #
body $-1 $35 $-1 $36 #
body $-1 $37 $-1 $38 #
lump $-1 $-1 $39 $0 #
transform $-1 1 0 0 0 1 0 0 0 1 79.394512771996219 36.268950586837448 10.5959971029614 1 rotate no_reflect no_shear #
lump $-1 $-1 $40 $1 #
transform $-1 1 0 0 0 1 0 0 0 1 79.394512771996219 36.268950586837448 10.5959971029614 1 rotate no_reflect no_shear #
lump $-1 $-1 $41 $2 #
transform $-1 1 0 0 0 1 0 0 0 1 79.394512771996219 36.268950586837448 10.5959971029614 1 rotate no_reflect no_shear #
lump $-1 $-1 $42 $3 #
transform $-1 1 0 0 0 1 0 0 0 1 79.394512771996219 36.268950586837448 10.5959971029614 1 rotate no_reflect no_shear #
lump $-1 $-1 $43 $4 #
transform $-1 1 0 0 0 1 0 0 0 1 79.394512771996219 36.268950586837448 10.5959971029614 1 rotate no_reflect no_shear #
lump $-1 $-1 $44 $5 #
transform $-1 1 0 0 0 1 0 0 0 1 79.394512771996219 36.268950586837448 10.5959971029614 1 rotate no_reflect no_shear #
lump $-1 $-1 $45 $6 #
transform $-1 1 0 0 0 1 0 0 0 1 79.394512771996219 36.268950586837448 10.5959971029614 1 rotate no_reflect no_shear #
lump $-1 $-1 $46 $7 #
transform $-1 1 0 0 0 1 0 0 0 1 79.394512771996219 36.268950586837448 10.5959971029614 1 rotate no_reflect no_shear #
lump $-1 $-1 $47 $8 #
transform $-1 1 0 0 0 1 0 0 0 1 79.394512771996219 36.268950586837448 10.5959971029614 1 rotate no_reflect no_shear #
lump $-1 $-1 $48 $9 #
transform $-1 1 0 0 0 1 0 0 0 1 79.394512771996219 36.268950586837448 10.5959971029614 1 rotate no_reflect no_shear #
lump $-1 $-1 $49 $10 #
transform $-1 1 0 0 0 1 0 0 0 1 79.394512771996219 36.268950586837448 10.5959971029614 1 rotate no_reflect no_shear #
lump $-1 $-1 $50 $11 #
transform $-1 1 0 0 0 1 0 0 0 1 79.394512771996219 36.268950586837448 10.5959971029614 1 rotate no_reflect no_shear #
lump $-1 $-1 $51 $12 #
transform $-1 1 0 0 0 1 0 0 0 1 79.394512771996219 36.268950586837448 10.5959971029614 1 rotate no_reflect no_shear #
shell $-1 $-1 $-1 $52 $-1 $13 #
shell $-1 $-1 $-1 $53 $-1 $15 #
shell $-1 $-1 $-1 $54 $-1 $17 #
shell $-1 $-1 $-1 $55 $-1 $19 #
shell $-1 $-1 $-1 $56 $-1 $21 #
shell $-1 $-1 $-1 $57 $-1 $23 #
shell $-1 $-1 $-1 $58 $-1 $25 #
shell $-1 $-1 $-1 $59 $-1 $27 #
shell $-1 $-1 $-1 $60 $-1 $29 #
shell $-1 $-1 $-1 $61 $-1 $31 #
shell $-1 $-1 $-1 $62 $-1 $33 #
shell $-1 $-1 $-1 $63 $-1 $35 #
shell $-1 $-1 $-1 $64 $-1 $37 #
face $-1 $65 $66 $39 $-1 $67 forward single #
face $-1 $68 $69 $40 $-1 $70 reversed single #
face $-1 $71 $72 $41 $-1 $73 reversed single #
face $-1 $74 $75 $42 $-1 $76 reversed single #
face $-1 $77 $78 $43 $-1 $79 forward single #
face $-1 $80 $81 $44 $-1 $82 reversed single #
face $-1 $83 $84 $45 $-1 $85 forward single #
face $-1 $86 $87 $46 $-1 $88 forward single #
face $-1 $89 $90 $47 $-1 $91 forward single #
face $-1 $92 $93 $48 $-1 $94 reversed single #
face $-1 $95 $96 $49 $-1 $97 forward single #
face $-1 $98 $99 $50 $-1 $100 forward single #
face $-1 $101 $102 $51 $-1 $103 forward single #
face $-1 $104 $105 $39 $-1 $106 reversed single #
loop $-1 $-1 $107 $52 #
plane-surface $-1 0 0 10.5959971029614 0 0 1 1 0 0 forward_v I I I I #
face $-1 $108 $109 $40 $-1 $110 reversed single #
loop $-1 $-1 $111 $53 #
plane-surface $-1 -72.840600599233753 0 4.7626528315810255 0 0 1 1 0 0 forward_v I I I I #
face $-1 $112 $113 $41 $-1 $114 reversed single #
loop $-1 $-1 $115 $54 #
plane-surface $-1 72.840600599233753 0 4.7626528315810255 0 0 1 1 0 0 forward_v I I I I #
face $-1 $116 $117 $42 $-1 $118 reversed single #
loop $-1 $-1 $119 $55 #
plane-surface $-1 50.288629726736175 76.868591813374493 175.94729106797203 1 0 0 0 -0.61566148304635926 -0.78801074757464917 forward_v I I I I #
face $-1 $120 $121 $43 $-1 $122 forward single #
loop $-1 $123 $124 $56 #
cone-surface $-1 58.287659076603731 32.810912787379671 7.5852173073160589 0 -0.61566148304635926 -0.78801074757464917 1 0 0 1 I I 0 1 1 forward I I I I #
face $-1 $125 $126 $44 $-1 $127 reversed single #
loop $-1 $-1 $128 $57 #
plane-surface $-1 -19.74597086591665 -144.56280689129261 119.15663559431894 -1 0 0 0 -0.68199836817093118 0.7313536940579346 forward_v I I I I #
face $-1 $129 $130 $45 $-1 $131 forward single #
loop $-1 $132 $133 $58 #
cone-surface $-1 -44.868194886741414 -30.96393108039587 5.4747368021667571 0 0.68199836817093118 -0.7313536940579346 1.5 0 0 1 I I 0 1 1.5 forward I I I I #
face $-1 $134 $135 $46 $-1 $136 forward single #
loop $-1 $137 $138 $59 #
cone-surface $-1 -35.44736087893213 -30.96393108039587 5.4747368021667571 0 0.68199836817093118 -0.7313536940579346 1.5 0 0 1 I I 0 1 1.5 forward I I I I #
face $-1 $139 $140 $47 $-1 $141 forward single #
loop $-1 $142 $143 $60 #
cone-surface $-1 -26.02652687112284 -30.96393108039587 5.4747368021667571 0 0.68199836817093118 -0.7313536940579346 1.5 0 0 1 I I 0 1 1.5 forward I I I I #
face $-1 $144 $145 $48 $-1 $146 reversed single #
loop $-1 $-1 $147 $61 #
plane-surface $-1 46.54071756055464 -144.56280689129261 119.15663559431894 -1 0 0 0 -0.68199836817093118 0.7313536940579346 forward_v I I I I #
face $-1 $148 $149 $49 $-1 $150 forward single #
loop $-1 $151 $152 $62 #
cone-surface $-1 21.41849353972988 -30.96393108039587 5.4747368021667571 0 0.68199836817093118 -0.7313536940579346 1.5 0 0 1 I I 0 1 1.5 forward I I I I #
face $-1 $153 $154 $50 $-1 $155 forward single #
loop $-1 $156 $157 $63 #
cone-surface $-1 30.839327547539156 -30.96393108039587 5.4747368021667571 0 0.68199836817093118 -0.7313536940579346 1.5 0 0 1 I I 0 1 1.5 forward I I I I #
face $-1 $158 $159 $51 $-1 $160 forward single #
loop $-1 $161 $162 $64 #
cone-surface $-1 40.260161555348446 -30.96393108039587 5.4747368021667571 0 0.68199836817093118 -0.7313536940579346 1.5 0 0 1 I I 0 1 1.5 forward I I I I #
face $-1 $163 $164 $39 $-1 $165 reversed single #
loop $-1 $-1 $166 $65 #
plane-surface $-1 0 0 -10.5959971029614 0 0 1 1 0 0 forward_v I I I I #
coedge $-1 $167 $168 $169 $170 forward $66 $-1 #
face $-1 $171 $172 $40 $-1 $173 reversed single #
loop $-1 $-1 $174 $68 #
plane-surface $-1 -66.286688426471287 0 7.6793249672712118 -1 0 0 0 0 1 forward_v I I I I #
coedge $-1 $175 $176 $177 $178 forward $69 $-1 #
face $-1 $179 $180 $41 $-1 $181 forward single #
loop $-1 $-1 $182 $71 #
plane-surface $-1 66.286688426471287 0 7.6793249672712118 1 0 0 0 0 -1 forward_v I I I I #
coedge $-1 $183 $184 $185 $186 reversed $72 $-1 #
face $-1 $187 $188 $42 $-1 $189 forward single #
loop $-1 $-1 $190 $74 #
plane-surface $-1 58.287659076603731 -20.891695144526111 50.819832342400488 0 0.61566148304635926 0.78801074757464917 1 0 0 forward_v I I I I #
coedge $-1 $191 $192 $193 $194 reversed $75 $-1 #
face $-1 $-1 $195 $43 $-1 $196 forward single #
loop $-1 $197 $198 $77 #
cone-surface $-1 58.287659076603731 31.883286967233175 6.3979104249913359 0 -0.61566148304635926 -0.78801074757464917 0.5 0 0 1 I I -0.70710678118654746 0.70710678118654746 0.5 forward I I I I #
loop $-1 $-1 $199 $56 #
coedge $-1 $124 $124 $200 $201 reversed $78 $-1 #
face $-1 $202 $203 $44 $-1 $204 reversed single #
loop $-1 $-1 $205 $80 #
plane-surface $-1 -35.44736087893213 -36.268950586837462 3.0256951868603323 0 -0.68199836817093118 0.7313536940579346 1 0 0 forward_v I I I I #
coedge $-1 $206 $207 $208 $209 reversed $81 $-1 #
face $-1 $-1 $210 $45 $-1 $211 forward single #
loop $-1 $212 $213 $83 #
cone-surface $-1 -44.868194886741414 -29.206490157734628 3.5901121888792016 0 0.68199836817093118 -0.7313536940579346 0.75 0 0 1 I I -0.70710678118654757 0.70710678118654757 0.75 forward I I I I #
loop $-1 $-1 $214 $58 #
coedge $-1 $133 $133 $215 $216 reversed $84 $-1 #
face $-1 $-1 $217 $46 $-1 $218 forward single #
loop $-1 $219 $220 $86 #
cone-surface $-1 -35.44736087893213 -29.206490157734628 3.5901121888792016 0 0.68199836817093118 -0.7313536940579346 0.75 0 0 1 I I -0.70710678118654757 0.70710678118654757 0.75 forward I I I I #
loop $-1 $-1 $221 $59 #
coedge $-1 $138 $138 $222 $223 reversed $87 $-1 #
face $-1 $-1 $224 $47 $-1 $225 forward single #
loop $-1 $226 $227 $89 #
cone-surface $-1 -26.02652687112284 -29.206490157734628 3.5901121888792016 0 0.68199836817093118 -0.7313536940579346 0.75 0 0 1 I I -0.70710678118654757 0.70710678118654757 0.75 forward I I I I #
loop $-1 $-1 $228 $60 #
coedge $-1 $143 $143 $229 $230 reversed $90 $-1 #
face $-1 $231 $232 $48 $-1 $233 reversed single #
loop $-1 $-1 $234 $92 #
plane-surface $-1 30.839327547539156 -36.268950586837462 3.0256951868603323 0 -0.68199836817093118 0.7313536940579346 1 0 0 forward_v I I I I #
coedge $-1 $235 $236 $237 $238 reversed $93 $-1 #
face $-1 $-1 $239 $49 $-1 $240 forward single #
loop $-1 $241 $242 $95 #
cone-surface $-1 21.41849353972988 -29.206490157734628 3.5901121888792016 0 0.68199836817093118 -0.7313536940579346 0.75 0 0 1 I I -0.70710678118654757 0.70710678118654757 0.75 forward I I I I #
loop $-1 $-1 $243 $62 #
coedge $-1 $152 $152 $244 $245 reversed $96 $-1 #
face $-1 $-1 $246 $50 $-1 $247 forward single #
loop $-1 $248 $249 $98 #
cone-surface $-1 30.839327547539156 -29.206490157734628 3.5901121888792016 0 0.68199836817093118 -0.7313536940579346 0.75 0 0 1 I I -0.70710678118654757 0.70710678118654757 0.75 forward I I I I #
loop $-1 $-1 $250 $63 #
coedge $-1 $157 $157 $251 $252 reversed $99 $-1 #
face $-1 $-1 $253 $51 $-1 $254 forward single #
loop $-1 $255 $256 $101 #
cone-surface $-1 40.260161555348446 -29.206490157734628 3.5901121888792016 0 0.68199836817093118 -0.7313536940579346 0.75 0 0 1 I I -0.70710678118654757 0.70710678118654757 0.75 forward I I I I #
loop $-1 $-1 $257 $64 #
coedge $-1 $162 $162 $258 $259 reversed $102 $-1 #
face $-1 $260 $261 $39 $-1 $262 reversed single #
loop $-1 $-1 $263 $104 #
plane-surface $-1 0 -36.268950586837448 0 0 1 0 0 0 1 forward_v I I I I #
coedge $-1 $264 $265 $266 $267 forward $105 $-1 #
coedge $-1 $268 $107 $269 $270 forward $66 $-1 #
coedge $-1 $107 $268 $271 $272 forward $66 $-1 #
coedge $-1 $273 $274 $107 $170 reversed $275 $-1 #
edge $-1 $276 -36.268950586837448 $277 36.268950586837448 $169 $278 forward 7 unknown #
face $-1 $279 $280 $40 $-1 $281 reversed single #
loop $-1 $-1 $282 $108 #
plane-surface $-1 0 36.268950586837448 0 0 -1 0 0 0 -1 forward_v I I I I #
coedge $-1 $177 $283 $284 $285 reversed $109 $-1 #
coedge $-1 $286 $111 $287 $288 reversed $69 $-1 #
coedge $-1 $111 $286 $289 $290 reversed $69 $-1 #
coedge $-1 $291 $174 $111 $178 reversed $109 $-1 #
edge $-1 $292 -36.268950586837448 $293 36.268950586837448 $177 $294 forward 7 unknown #
face $-1 $295 $296 $41 $-1 $297 reversed single #
loop $-1 $-1 $298 $112 #
plane-surface $-1 0 0 10.5959971029614 0 0 1 1 0 0 forward_v I I I I #
coedge $-1 $299 $300 $301 $302 reversed $113 $-1 #
coedge $-1 $303 $115 $304 $305 reversed $72 $-1 #
coedge $-1 $115 $303 $306 $307 reversed $72 $-1 #
coedge $-1 $308 $309 $115 $186 forward $310 $-1 #
edge $-1 $311 -36.268950586837448 $312 36.268950586837448 $185 $313 forward 7 unknown #
face $-1 $314 $315 $42 $-1 $316 forward single #
loop $-1 $-1 $193 $116 #
plane-surface $-1 0 0 10.5959971029614 0 0 1 1 0 0 forward_v I I I I #
coedge $-1 $317 $318 $319 $320 reversed $117 $-1 #
coedge $-1 $192 $119 $321 $322 reversed $75 $-1 #
coedge $-1 $119 $191 $317 $323 reversed $75 $-1 #
coedge $-1 $319 $324 $119 $194 forward $188 $-1 #
edge $-1 $325 2.1653453198497985 $326 7.8418307615186649 $193 $327 forward 7 unknown #
loop $-1 $-1 $200 $120 #
plane-surface $-1 58.287659076603731 -20.891695144526111 50.819832342400488 0 0.61566148304635926 0.78801074757464917 1 0 0 forward_v I I I I #
loop $-1 $-1 $328 $77 #
coedge $-1 $198 $198 $199 $329 reversed $121 $-1 #
coedge $-1 $199 $199 $198 $329 forward $123 $-1 #
coedge $-1 $200 $200 $124 $201 forward $195 $-1 #
edge $-1 $330 3.9815958654277439e-015 $330 6.283185307179604 $200 $331 forward 7 unknown #
face $-1 $332 $333 $44 $-1 $334 forward single #
loop $-1 $-1 $335 $125 #
plane-surface $-1 -51.148750891947614 -144.56280689129261 119.15663559431894 1 0 0 0 0.68199836817093118 -0.7313536940579346 forward_v I I I I #
coedge $-1 $336 $337 $338 $339 reversed $126 $-1 #
coedge $-1 $207 $128 $340 $341 reversed $81 $-1 #
coedge $-1 $128 $206 $336 $342 reversed $81 $-1 #
coedge $-1 $338 $343 $128 $209 forward $333 $-1 #
edge $-1 $344 36.012452858808857 $345 44.130607578625899 $208 $346 forward 7 unknown #
loop $-1 $-1 $215 $129 #
plane-surface $-1 -35.44736087893213 -36.268950586837462 3.0256951868603323 0 -0.68199836817093118 0.7313536940579346 1 0 0 forward_v I I I I #
loop $-1 $-1 $347 $83 #
coedge $-1 $213 $213 $214 $348 reversed $130 $-1 #
coedge $-1 $214 $214 $213 $348 forward $132 $-1 #
coedge $-1 $215 $215 $133 $216 forward $210 $-1 #
edge $-1 $349 1.6790600428280128e-015 $349 6.2831853071796022 $215 $350 forward 7 unknown #
loop $-1 $-1 $222 $134 #
plane-surface $-1 -35.44736087893213 -36.268950586837462 3.0256951868603323 0 -0.68199836817093118 0.7313536940579346 1 0 0 forward_v I I I I #
loop $-1 $-1 $351 $86 #
coedge $-1 $220 $220 $221 $352 reversed $135 $-1 #
coedge $-1 $221 $221 $220 $352 forward $137 $-1 #
coedge $-1 $222 $222 $138 $223 forward $217 $-1 #
edge $-1 $353 1.6790600428280128e-015 $353 6.2831853071796022 $222 $354 forward 7 unknown #
loop $-1 $-1 $229 $139 #
plane-surface $-1 -35.44736087893213 -36.268950586837462 3.0256951868603323 0 -0.68199836817093118 0.7313536940579346 1 0 0 forward_v I I I I #
loop $-1 $-1 $355 $89 #
coedge $-1 $227 $227 $228 $356 reversed $140 $-1 #
coedge $-1 $228 $228 $227 $356 forward $142 $-1 #
coedge $-1 $229 $229 $143 $230 forward $224 $-1 #
edge $-1 $357 1.6790600428280128e-015 $357 6.2831853071796022 $229 $358 forward 7 unknown #
face $-1 $359 $360 $48 $-1 $361 reversed single #
loop $-1 $-1 $362 $144 #
plane-surface $-1 15.137937534523676 -144.56280689129261 119.15663559431894 1 0 0 0 0.68199836817093118 -0.7313536940579346 forward_v I I I I #
coedge $-1 $363 $364 $365 $366 reversed $145 $-1 #
coedge $-1 $236 $147 $367 $368 reversed $93 $-1 #
coedge $-1 $147 $235 $363 $369 reversed $93 $-1 #
coedge $-1 $365 $370 $147 $238 forward $371 $-1 #
edge $-1 $372 36.012452858808857 $373 44.130607578625899 $237 $374 forward 7 unknown #
loop $-1 $-1 $244 $148 #
plane-surface $-1 30.839327547539156 -36.268950586837462 3.0256951868603323 0 -0.68199836817093118 0.7313536940579346 1 0 0 forward_v I I I I #
loop $-1 $-1 $375 $95 #
coedge $-1 $242 $242 $243 $376 reversed $149 $-1 #
coedge $-1 $243 $243 $242 $376 forward $151 $-1 #
coedge $-1 $244 $244 $152 $245 forward $239 $-1 #
edge $-1 $377 1.6790600428280128e-015 $377 6.2831853071796022 $244 $378 forward 7 unknown #
loop $-1 $-1 $251 $153 #
plane-surface $-1 30.839327547539156 -36.268950586837462 3.0256951868603323 0 -0.68199836817093118 0.7313536940579346 1 0 0 forward_v I I I I #
loop $-1 $-1 $379 $98 #
coedge $-1 $249 $249 $250 $380 reversed $154 $-1 #
coedge $-1 $250 $250 $249 $380 forward $156 $-1 #
coedge $-1 $251 $251 $157 $252 forward $246 $-1 #
edge $-1 $381 1.6790600428280128e-015 $381 6.2831853071796022 $251 $382 forward 7 unknown #
loop $-1 $-1 $258 $158 #
plane-surface $-1 30.839327547539156 -36.268950586837462 3.0256951868603323 0 -0.68199836817093118 0.7313536940579346 1 0 0 forward_v I I I I #
loop $-1 $-1 $383 $101 #
coedge $-1 $256 $256 $257 $384 reversed $159 $-1 #
coedge $-1 $257 $257 $256 $384 forward $161 $-1 #
coedge $-1 $258 $258 $162 $259 forward $253 $-1 #
edge $-1 $385 1.6790600428280128e-015 $385 6.2831853071796022 $258 $386 forward 7 unknown #
face $-1 $387 $388 $39 $-1 $389 reversed single #
loop $-1 $-1 $390 $163 #
plane-surface $-1 -79.394512771996219 0 0 1 0 0 0 0 -1 forward_v I I I I #
coedge $-1 $391 $271 $392 $393 forward $164 $-1 #
coedge $-1 $394 $166 $391 $395 forward $105 $-1 #
coedge $-1 $166 $394 $396 $397 forward $105 $-1 #
coedge $-1 $274 $273 $166 $267 reversed $275 $-1 #
edge $-1 $398 -36.268950586837448 $399 36.268950586837448 $266 $400 forward 7 unknown #
coedge $-1 $168 $167 $401 $402 forward $66 $-1 #
coedge $-1 $403 $404 $167 $270 reversed $388 $-1 #
edge $-1 $277 -79.394512771996219 $405 79.394512771996219 $269 $406 forward 7 unknown #
coedge $-1 $263 $407 $168 $272 reversed $164 $-1 #
edge $-1 $408 -79.394512771996219 $276 79.394512771996219 $271 $409 forward 7 unknown #
coedge $-1 $266 $169 $407 $410 forward $275 $-1 #
coedge $-1 $169 $266 $403 $411 reversed $275 $-1 #
loop $-1 $-1 $273 $387 #
vertex $-1 $170 $412 #
vertex $-1 $170 $413 #
straight-curve $-1 79.394512771996219 0 10.5959971029614 0 1 0 I I #
face $-1 $414 $415 $40 $-1 $416 forward single #
loop $-1 $-1 $417 $171 #
plane-surface $-1 -79.394512771996219 0 0 1 0 0 0 0 -1 forward_v I I I I #
coedge $-1 $289 $418 $291 $419 forward $172 $-1 #
coedge $-1 $174 $291 $420 $421 reversed $109 $-1 #
coedge $-1 $422 $287 $174 $285 forward $423 $-1 #
edge $-1 $293 0.92299034794541956 $424 6.7563346193257923 $284 $425 forward 7 unknown #
coedge $-1 $176 $175 $417 $426 reversed $69 $-1 #
coedge $-1 $284 $427 $175 $288 forward $423 $-1 #
edge $-1 $428 -42.974212472379342 $293 -29.86638812685441 $287 $429 forward 7 unknown #
coedge $-1 $430 $282 $176 $290 forward $172 $-1 #
edge $-1 $292 29.86638812685441 $431 42.974212472379342 $289 $432 forward 7 unknown #
coedge $-1 $283 $177 $282 $419 reversed $109 $-1 #
vertex $-1 $290 $433 #
vertex $-1 $288 $434 #
straight-curve $-1 -66.286688426471287 0 4.7626528315810255 0 -1 0 I I #
face $-1 $435 $436 $41 $-1 $437 reversed single #
loop $-1 $-1 $438 $179 #
plane-surface $-1 0 -36.268950586837448 0 0 1 0 0 0 1 forward_v I I I I #
coedge $-1 $439 $440 $300 $441 forward $180 $-1 #
coedge $-1 $442 $182 $303 $443 reversed $113 $-1 #
coedge $-1 $182 $442 $298 $441 reversed $113 $-1 #
coedge $-1 $444 $306 $182 $302 forward $436 $-1 #
edge $-1 $445 0.92299034794541956 $446 6.7563346193257923 $301 $447 forward 7 unknown #
coedge $-1 $184 $183 $299 $443 forward $72 $-1 #
coedge $-1 $448 $438 $183 $305 forward $296 $-1 #
edge $-1 $449 29.86638812685441 $311 42.974212472379342 $304 $450 forward 7 unknown #
coedge $-1 $301 $451 $184 $307 forward $436 $-1 #
edge $-1 $312 -42.974212472379342 $445 -29.86638812685441 $306 $452 forward 7 unknown #
coedge $-1 $453 $185 $451 $454 reversed $310 $-1 #
coedge $-1 $185 $453 $448 $455 forward $310 $-1 #
loop $-1 $-1 $185 $435 #
vertex $-1 $305 $456 #
vertex $-1 $186 $457 #
straight-curve $-1 79.394512771996219 0 4.7626528315810255 0 1 0 I I #
face $-1 $-1 $458 $42 $-1 $459 reversed single #
loop $-1 $-1 $460 $187 #
plane-surface $-1 66.286688426471287 0 7.6793249672712118 1 0 0 0 0 -1 forward_v I I I I #
coedge $-1 $461 $190 $192 $323 forward $117 $-1 #
coedge $-1 $190 $461 $460 $462 reversed $117 $-1 #
coedge $-1 $463 $193 $190 $320 forward $188 $-1 #
edge $-1 $326 21.14480018843431 $464 37.142858888169421 $319 $465 forward 7 unknown #
coedge $-1 $466 $467 $191 $322 forward $458 $-1 #
edge $-1 $468 -81.812605005240442 $325 -77.37764843102461 $321 $469 forward 7 unknown #
edge $-1 $326 65.33433769546086 $468 72.537901173674868 $192 $470 forward 7 unknown #
coedge $-1 $193 $463 $466 $471 forward $188 $-1 #
vertex $-1 $322 $472 #
vertex $-1 $194 $473 #
straight-curve $-1 50.288629726736175 38.434295906687247 10.595997102961405 0 -1 0 I I #
coedge $-1 $328 $328 $-1 $474 reversed $197 $-1 #
edge $-1 $475 0 $475 6.2831853071796004 $198 $476 forward 7 unknown #
vertex $-1 $201 $477 #
ellipse-curve $-1 58.287659076603731 33.430707866003011 8.3785188158534911 0 0.61566148304635926 0.78801074757464917 1 0 0 1 I I #
face $-1 $-1 $478 $44 $-1 $479 reversed single #
loop $-1 $-1 $208 $202 #
plane-surface $-1 0 0 10.5959971029614 0 0 1 1 0 0 forward_v I I I I #
coedge $-1 $480 $481 $482 $483 reversed $203 $-1 #
coedge $-1 $484 $205 $207 $342 forward $126 $-1 #
coedge $-1 $205 $484 $480 $485 forward $126 $-1 #
coedge $-1 $482 $208 $205 $339 forward $333 $-1 #
edge $-1 $345 2.022290426450585 $486 33.425070452481549 $338 $487 forward 7 unknown #
coedge $-1 $488 $489 $206 $341 forward $478 $-1 #
edge $-1 $490 -56.552622610299125 $344 -48.982320694198073 $340 $491 forward 7 unknown #
edge $-1 $345 -11.100175996614263 $490 -1.9479204584885432e-014 $207 $492 forward 7 unknown #
coedge $-1 $208 $482 $488 $493 forward $333 $-1 #
vertex $-1 $341 $494 #
vertex $-1 $209 $495 #
straight-curve $-1 -19.74597086591665 -72.281403445646305 10.595997102961398 0 1 0 I I #
coedge $-1 $347 $347 $-1 $496 reversed $212 $-1 #
edge $-1 $497 0 $497 6.2831853071796004 $213 $498 forward 7 unknown #
vertex $-1 $216 $499 #
ellipse-curve $-1 -44.868194886741414 -32.209873226928927 6.8108461449108733 0 -0.68199836817093118 0.7313536940579346 1.5 0 0 1 I I #
coedge $-1 $351 $351 $-1 $500 reversed $219 $-1 #
edge $-1 $501 0 $501 6.2831853071796004 $220 $502 forward 7 unknown #
vertex $-1 $223 $503 #
ellipse-curve $-1 -35.44736087893213 -32.209873226928927 6.8108461449108733 0 -0.68199836817093118 0.7313536940579346 1.5 0 0 1 I I #
coedge $-1 $355 $355 $-1 $504 reversed $226 $-1 #
edge $-1 $505 0 $505 6.2831853071796004 $227 $506 forward 7 unknown #
vertex $-1 $230 $507 #
ellipse-curve $-1 -26.02652687112284 -32.209873226928927 6.8108461449108733 0 -0.68199836817093118 0.7313536940579346 1.5 0 0 1 I I #
face $-1 $-1 $371 $48 $-1 $508 forward single #
loop $-1 $-1 $509 $231 #
plane-surface $-1 0 -36.268950586837448 0 0 1 0 0 0 1 forward_v I I I I #
coedge $-1 $510 $511 $512 $513 reversed $232 $-1 #
coedge $-1 $514 $234 $236 $369 forward $145 $-1 #
coedge $-1 $234 $514 $510 $515 forward $145 $-1 #
coedge $-1 $512 $237 $234 $366 forward $371 $-1 #
edge $-1 $373 -31.121053786785062 $516 0.28172623924590212 $365 $517 forward 7 unknown #
coedge $-1 $518 $519 $235 $368 forward $360 $-1 #
edge $-1 $520 -56.552622610299125 $372 -48.982320694198073 $367 $521 forward 7 unknown #
edge $-1 $373 -11.100175996614263 $520 -1.9479204584885432e-014 $236 $522 forward 7 unknown #
coedge $-1 $237 $512 $518 $523 forward $371 $-1 #
loop $-1 $-1 $512 $359 #
vertex $-1 $368 $524 #
vertex $-1 $238 $525 #
straight-curve $-1 46.54071756055464 -72.281403445646305 10.595997102961398 0 1 0 I I #
coedge $-1 $375 $375 $-1 $526 reversed $241 $-1 #
edge $-1 $527 0 $527 6.2831853071796004 $242 $528 forward 7 unknown #
vertex $-1 $245 $529 #
ellipse-curve $-1 21.41849353972988 -32.209873226928927 6.8108461449108733 0 -0.68199836817093118 0.7313536940579346 1.5 0 0 1 I I #
coedge $-1 $379 $379 $-1 $530 reversed $248 $-1 #
edge $-1 $531 0 $531 6.2831853071796004 $249 $532 forward 7 unknown #
vertex $-1 $252 $533 #
ellipse-curve $-1 30.839327547539156 -32.209873226928927 6.8108461449108733 0 -0.68199836817093118 0.7313536940579346 1.5 0 0 1 I I #
coedge $-1 $383 $383 $-1 $534 reversed $255 $-1 #
edge $-1 $535 0 $535 6.2831853071796004 $256 $536 forward 7 unknown #
vertex $-1 $259 $537 #
ellipse-curve $-1 40.260161555348446 -32.209873226928927 6.8108461449108733 0 -0.68199836817093118 0.7313536940579346 1.5 0 0 1 I I #
face $-1 $-1 $275 $39 $-1 $538 reversed single #
loop $-1 $-1 $403 $260 #
plane-surface $-1 0 36.268950586837448 0 0 -1 0 0 0 -1 forward_v I I I I #
coedge $-1 $539 $401 $404 $540 forward $261 $-1 #
coedge $-1 $407 $263 $264 $395 reversed $164 $-1 #
coedge $-1 $401 $539 $263 $393 reversed $261 $-1 #
edge $-1 $408 -10.5959971029614 $541 10.5959971029614 $392 $542 forward 7 unknown #
coedge $-1 $265 $264 $539 $543 forward $105 $-1 #
edge $-1 $399 -79.394512771996219 $541 79.394512771996219 $391 $544 forward 7 unknown #
coedge $-1 $404 $403 $265 $397 reversed $388 $-1 #
edge $-1 $545 -79.394512771996219 $398 79.394512771996219 $396 $546 forward 7 unknown #
vertex $-1 $267 $547 #
vertex $-1 $410 $548 #
straight-curve $-1 79.394512771996219 0 -10.5959971029614 0 -1 0 I I #
coedge $-1 $390 $392 $268 $402 reversed $261 $-1 #
edge $-1 $405 -36.268950586837448 $408 36.268950586837448 $401 $549 forward 7 unknown #
coedge $-1 $396 $269 $274 $411 forward $388 $-1 #
coedge $-1 $269 $396 $390 $540 reversed $388 $-1 #
vertex $-1 $270 $550 #
straight-curve $-1 0 36.268950586837448 10.5959971029614 -1 0 0 I I #
coedge $-1 $271 $391 $273 $410 reversed $164 $-1 #
vertex $-1 $402 $551 #
straight-curve $-1 0 -36.268950586837448 10.5959971029614 1 0 0 I I #
edge $-1 $276 -10.5959971029614 $399 10.5959971029614 $273 $552 forward 7 unknown #
edge $-1 $277 -10.5959971029614 $398 10.5959971029614 $274 $553 forward 7 unknown #
point $-1 79.394512771996219 -36.268950586837448 10.5959971029614 #
point $-1 79.394512771996219 36.268950586837448 10.5959971029614 #
face $-1 $-1 $423 $40 $-1 $554 reversed single #
loop $-1 $-1 $420 $279 #
plane-surface $-1 0 0 10.5959971029614 0 0 1 1 0 0 forward_v I I I I #
coedge $-1 $555 $556 $286 $426 forward $280 $-1 #
coedge $-1 $282 $430 $557 $558 reversed $172 $-1 #
edge $-1 $559 -6.7563346193257923 $292 -0.92299034794541956 $282 $560 forward 7 unknown #
coedge $-1 $557 $561 $283 $421 forward $415 $-1 #
edge $-1 $424 -36.268950586837448 $559 36.268950586837448 $420 $562 forward 7 unknown #
coedge $-1 $427 $284 $561 $563 reversed $423 $-1 #
loop $-1 $-1 $284 $414 #
vertex $-1 $285 $564 #
straight-curve $-1 -66.286688426471287 -36.268950586837448 3.8396624836356059 0 0 1 I I #
edge $-1 $431 -36.268950586837448 $428 36.268950586837448 $417 $565 forward 7 unknown #
coedge $-1 $287 $422 $555 $566 forward $423 $-1 #
vertex $-1 $426 $567 #
straight-curve $-1 -36.420300299616876 -36.268950586837448 4.7626528315810255 1 0 0 I I #
coedge $-1 $418 $289 $556 $568 reversed $172 $-1 #
vertex $-1 $426 $569 #
straight-curve $-1 -36.420300299616876 36.268950586837448 4.7626528315810255 -1 0 0 I I #
point $-1 -66.286688426471287 36.268950586837448 4.7626528315810255 #
point $-1 -66.286688426471287 -36.268950586837448 4.7626528315810255 #
face $-1 $-1 $310 $41 $-1 $570 reversed single #
loop $-1 $-1 $301 $295 #
plane-surface $-1 0 36.268950586837448 0 0 -1 0 0 0 -1 forward_v I I I I #
coedge $-1 $304 $571 $442 $572 forward $296 $-1 #
coedge $-1 $573 $298 $571 $574 forward $180 $-1 #
coedge $-1 $298 $573 $444 $575 forward $180 $-1 #
edge $-1 $446 -36.268950586837448 $576 36.268950586837448 $298 $577 forward 7 unknown #
coedge $-1 $300 $299 $438 $572 reversed $113 $-1 #
edge $-1 $449 -36.268950586837448 $445 36.268950586837448 $299 $578 forward 7 unknown #
coedge $-1 $451 $301 $440 $575 reversed $436 $-1 #
vertex $-1 $307 $579 #
vertex $-1 $302 $580 #
straight-curve $-1 66.286688426471287 36.268950586837448 3.8396624836356059 0 0 1 I I #
coedge $-1 $571 $304 $309 $455 reversed $296 $-1 #
vertex $-1 $305 $581 #
straight-curve $-1 36.420300299616876 -36.268950586837448 4.7626528315810255 1 0 0 I I #
coedge $-1 $306 $444 $308 $454 forward $436 $-1 #
straight-curve $-1 36.420300299616876 36.268950586837448 4.7626528315810255 -1 0 0 I I #
coedge $-1 $309 $308 $573 $582 reversed $310 $-1 #
edge $-1 $583 -10.5959971029614 $312 -4.7626528315810255 $308 $584 forward 7 unknown #
edge $-1 $585 -10.5959971029614 $311 -4.7626528315810255 $309 $586 forward 7 unknown #
point $-1 79.394512771996219 -36.268950586837448 4.7626528315810255 #
point $-1 79.394512771996219 36.268950586837448 4.7626528315810255 #
loop $-1 $-1 $321 $314 #
plane-surface $-1 0 36.268950586837448 0 0 -1 0 0 0 -1 forward_v I I I I #
coedge $-1 $587 $588 $318 $462 forward $315 $-1 #
coedge $-1 $318 $317 $467 $589 reversed $117 $-1 #
edge $-1 $464 43.822923166018768 $590 51.02648664423279 $460 $591 forward 7 unknown #
coedge $-1 $324 $319 $588 $592 forward $188 $-1 #
vertex $-1 $592 $593 #
straight-curve $-1 29.143829538301866 30.592465145168578 10.595997102961402 1 0 0 I I #
coedge $-1 $594 $321 $324 $471 reversed $458 $-1 #
coedge $-1 $321 $594 $461 $589 forward $458 $-1 #
vertex $-1 $322 $595 #
straight-curve $-1 50.288629726736175 36.268950586837448 87.973645533986016 0 0 1 I I #
straight-curve $-1 50.288629726736175 -20.891695144526111 50.819832342400488 0 0.78801074757464917 -0.61566148304635926 I I #
edge $-1 $596 -66.286688426471287 $325 -50.288629726736175 $466 $597 forward 7 unknown #
point $-1 50.288629726736175 36.268950586837448 10.5959971029614 #
point $-1 50.288629726736175 30.592465145168582 10.595997102961398 #
edge $-1 $598 1 $598 0 $328 $-1 forward 7 unknown #
vertex $-1 $329 $599 #
ellipse-curve $-1 58.287659076603731 32.191117708756352 6.7919157987786605 0 0.61566148304635926 0.78801074757464917 1 0 0 1 I I #
point $-1 59.287659076603731 33.43070786600299 8.3785188158534574 #
loop $-1 $-1 $340 $332 #
plane-surface $-1 0 -36.268950586837448 0 0 1 0 0 0 1 forward_v I I I I #
coedge $-1 $481 $335 $337 $485 reversed $203 $-1 #
coedge $-1 $335 $480 $600 $601 reversed $203 $-1 #
coedge $-1 $343 $338 $335 $483 forward $333 $-1 #
edge $-1 $486 -44.130607578625899 $602 -36.012452858808857 $482 $603 forward 7 unknown #
coedge $-1 $337 $336 $489 $604 reversed $126 $-1 #
edge $-1 $605 1.9479204584885432e-014 $486 11.100175996614263 $480 $606 forward 7 unknown #
vertex $-1 $339 $607 #
straight-curve $-1 -17.723680439466065 -28.150795867020406 10.5959971029614 -1 0 0 I I #
coedge $-1 $600 $340 $343 $493 reversed $478 $-1 #
coedge $-1 $340 $600 $484 $604 forward $478 $-1 #
vertex $-1 $341 $608 #
straight-curve $-1 -19.74597086591665 -36.268950586837448 59.578317797159471 0 0 1 I I #
straight-curve $-1 -19.74597086591665 -36.268950586837462 3.0256951868603323 0 -0.7313536940579346 -0.68199836817093118 I I #
edge $-1 $602 -51.148750891947614 $344 -19.74597086591665 $488 $609 forward 7 unknown #
point $-1 -19.74597086591665 -36.268950586837448 10.5959971029614 #
point $-1 -19.74597086591665 -28.150795867020406 10.5959971029614 #
edge $-1 $610 1 $610 0 $347 $-1 forward 7 unknown #
vertex $-1 $348 $611 #
ellipse-curve $-1 -44.868194886741414 -29.717988933862827 4.1386274594226524 0 -0.68199836817093118 0.7313536940579346 1.5 0 0 1 I I #
point $-1 -43.368194886741414 -32.209873226928913 6.8108461449108617 #
edge $-1 $612 1 $612 0 $351 $-1 forward 7 unknown #
vertex $-1 $352 $613 #
ellipse-curve $-1 -35.44736087893213 -29.717988933862827 4.1386274594226524 0 -0.68199836817093118 0.7313536940579346 1.5 0 0 1 I I #
point $-1 -33.94736087893213 -32.209873226928913 6.8108461449108617 #
edge $-1 $614 1 $614 0 $355 $-1 forward 7 unknown #
vertex $-1 $356 $615 #
ellipse-curve $-1 -26.02652687112284 -29.717988933862827 4.1386274594226524 0 -0.68199836817093118 0.7313536940579346 1.5 0 0 1 I I #
point $-1 -24.52652687112284 -32.209873226928913 6.8108461449108617 #
plane-surface $-1 0 0 10.5959971029614 0 0 1 1 0 0 forward_v I I I I #
coedge $-1 $519 $518 $511 $616 forward $360 $-1 #
coedge $-1 $511 $362 $364 $515 reversed $232 $-1 #
coedge $-1 $362 $510 $509 $616 reversed $232 $-1 #
coedge $-1 $370 $365 $362 $513 forward $371 $-1 #
edge $-1 $516 -44.130607578625899 $617 -36.012452858808857 $512 $618 forward 7 unknown #
coedge $-1 $364 $363 $519 $619 reversed $145 $-1 #
edge $-1 $620 1.9479204584885432e-014 $516 11.100175996614263 $510 $621 forward 7 unknown #
vertex $-1 $366 $622 #
straight-curve $-1 15.419663773769578 -28.150795867020406 10.5959971029614 -1 0 0 I I #
coedge $-1 $509 $367 $370 $523 reversed $360 $-1 #
coedge $-1 $367 $509 $514 $619 forward $360 $-1 #
vertex $-1 $368 $623 #
straight-curve $-1 46.54071756055464 -36.268950586837448 59.578317797159471 0 0 1 I I #
straight-curve $-1 46.54071756055464 -36.268950586837462 3.0256951868603323 0 -0.7313536940579346 -0.68199836817093118 I I #
edge $-1 $617 15.137937534523676 $372 46.54071756055464 $518 $624 forward 7 unknown #
point $-1 46.54071756055464 -36.268950586837448 10.5959971029614 #
point $-1 46.54071756055464 -28.150795867020406 10.5959971029614 #
edge $-1 $625 1 $625 0 $375 $-1 forward 7 unknown #
vertex $-1 $376 $626 #
ellipse-curve $-1 21.41849353972988 -29.717988933862827 4.1386274594226524 0 -0.68199836817093118 0.7313536940579346 1.5 0 0 1 I I #
point $-1 22.91849353972988 -32.209873226928913 6.8108461449108617 #
edge $-1 $627 1 $627 0 $379 $-1 forward 7 unknown #
vertex $-1 $380 $628 #
ellipse-curve $-1 30.839327547539156 -29.717988933862827 4.1386274594226524 0 -0.68199836817093118 0.7313536940579346 1.5 0 0 1 I I #
point $-1 32.339327547539156 -32.209873226928913 6.8108461449108617 #
edge $-1 $629 1 $629 0 $383 $-1 forward 7 unknown #
vertex $-1 $384 $630 #
ellipse-curve $-1 40.260161555348446 -29.717988933862827 4.1386274594226524 0 -0.68199836817093118 0.7313536940579346 1.5 0 0 1 I I #
point $-1 41.760161555348446 -32.209873226928913 6.8108461449108617 #
plane-surface $-1 79.394512771996219 0 0 -1 0 0 0 0 1 forward_v I I I I #
coedge $-1 $392 $390 $394 $543 reversed $261 $-1 #
edge $-1 $405 -10.5959971029614 $545 10.5959971029614 $404 $631 forward 7 unknown #
vertex $-1 $543 $632 #
straight-curve $-1 -79.394512771996219 -36.268950586837448 0 0 0 -1 I I #
edge $-1 $541 -36.268950586837448 $545 36.268950586837448 $539 $633 forward 7 unknown #
straight-curve $-1 0 -36.268950586837448 -10.5959971029614 -1 0 0 I I #
vertex $-1 $397 $634 #
straight-curve $-1 0 36.268950586837448 -10.5959971029614 1 0 0 I I #
point $-1 79.394512771996219 36.268950586837448 -10.5959971029614 #
point $-1 79.394512771996219 -36.268950586837448 -10.5959971029614 #
straight-curve $-1 -79.394512771996219 0 10.5959971029614 0 -1 0 I I #
point $-1 -79.394512771996219 36.268950586837448 10.5959971029614 #
point $-1 -79.394512771996219 -36.268950586837448 10.5959971029614 #
straight-curve $-1 79.394512771996219 -36.268950586837448 0 0 0 -1 I I #
straight-curve $-1 79.394512771996219 36.268950586837448 0 0 0 -1 I I #
plane-surface $-1 0 -36.268950586837448 0 0 1 0 0 0 1 forward_v I I I I #
coedge $-1 $635 $417 $427 $566 reversed $280 $-1 #
coedge $-1 $417 $635 $430 $568 forward $280 $-1 #
coedge $-1 $636 $420 $418 $558 forward $415 $-1 #
edge $-1 $559 66.286688426471287 $637 79.394512771996219 $418 $638 forward 7 unknown #
vertex $-1 $558 $639 #
straight-curve $-1 -66.286688426471287 36.268950586837448 3.8396624836356059 0 0 -1 I I #
coedge $-1 $420 $636 $422 $563 forward $415 $-1 #
straight-curve $-1 -66.286688426471287 0 10.5959971029614 0 1 0 I I #
edge $-1 $640 -79.394512771996219 $424 -66.286688426471287 $422 $641 forward 7 unknown #
point $-1 -66.286688426471287 -36.268950586837448 10.595997102961398 #
straight-curve $-1 -79.394512771996219 0 4.7626528315810255 0 -1 0 I I #
edge $-1 $640 -10.5959971029614 $428 -4.7626528315810255 $555 $642 forward 7 unknown #
point $-1 -79.394512771996219 -36.268950586837448 4.7626528315810255 #
edge $-1 $637 -10.5959971029614 $431 -4.7626528315810255 $430 $643 forward 7 unknown #
point $-1 -79.394512771996219 36.268950586837448 4.7626528315810255 #
plane-surface $-1 79.394512771996219 0 0 -1 0 0 0 0 1 forward_v I I I I #
coedge $-1 $438 $448 $439 $574 reversed $296 $-1 #
edge $-1 $576 -6.7563346193257923 $449 -0.92299034794541956 $438 $644 forward 7 unknown #
coedge $-1 $440 $439 $453 $582 forward $180 $-1 #
edge $-1 $576 66.286688426471287 $585 79.394512771996219 $571 $645 forward 7 unknown #
edge $-1 $583 -79.394512771996219 $446 -66.286688426471287 $444 $646 forward 7 unknown #
vertex $-1 $574 $647 #
straight-curve $-1 66.286688426471287 0 10.5959971029614 0 -1 0 I I #
straight-curve $-1 66.286688426471287 0 4.7626528315810255 0 1 0 I I #
point $-1 66.286688426471287 36.268950586837448 4.7626528315810255 #
point $-1 66.286688426471287 36.268950586837448 10.595997102961398 #
point $-1 66.286688426471287 -36.268950586837448 4.7626528315810255 #
edge $-1 $585 -36.268950586837448 $583 36.268950586837448 $453 $648 forward 7 unknown #
vertex $-1 $582 $649 #
straight-curve $-1 79.394512771996219 36.268950586837448 0 0 0 -1 I I #
vertex $-1 $582 $650 #
straight-curve $-1 79.394512771996219 -36.268950586837448 0 0 0 -1 I I #
coedge $-1 $588 $460 $594 $651 reversed $315 $-1 #
coedge $-1 $460 $587 $463 $592 reversed $315 $-1 #
edge $-1 $590 -37.142858888169421 $468 -21.14480018843431 $467 $652 forward 7 unknown #
vertex $-1 $462 $653 #
straight-curve $-1 66.286688426471287 -3.9404692997922801 37.576082970779169 0 0.78801074757464917 -0.61566148304635926 I I #
edge $-1 $464 30.592465145168585 $596 36.268950586837448 $463 $654 forward 7 unknown #
point $-1 66.286688426471287 30.592465145168585 10.5959971029614 #
coedge $-1 $467 $466 $587 $651 forward $458 $-1 #
point $-1 50.288629726736175 36.268950586837441 6.1610405287455734 #
vertex $-1 $471 $655 #
straight-curve $-1 0 36.268950586837448 10.5959971029614 -1 0 0 I I #
vertex $-1 $474 $656 #
point $-1 59.287659076603731 32.191117708756352 6.7919157987786605 #
coedge $-1 $489 $488 $481 $601 forward $478 $-1 #
edge $-1 $602 48.982320694198073 $605 56.552622610299125 $600 $657 forward 7 unknown #
vertex $-1 $493 $658 #
straight-curve $-1 -51.148750891947614 -72.281403445646305 10.595997102961398 0 -1 0 I I #
edge $-1 $605 -33.425070452481549 $490 -2.022290426450585 $489 $659 forward 7 unknown #
vertex $-1 $604 $660 #
straight-curve $-1 -51.148750891947614 -36.268950586837462 3.0256951868603323 0 0.7313536940579346 0.68199836817093118 I I #
point $-1 -51.148750891947614 -28.150795867020406 10.5959971029614 #
point $-1 -19.74597086591665 -36.268950586837448 3.0256951868603457 #
straight-curve $-1 0 -36.268950586837448 10.5959971029614 1 0 0 I I #
vertex $-1 $496 $661 #
point $-1 -43.368194886741414 -29.717988933862827 4.1386274594226524 #
vertex $-1 $500 $662 #
point $-1 -33.94736087893213 -29.717988933862827 4.1386274594226524 #
vertex $-1 $504 $663 #
point $-1 -24.52652687112284 -29.717988933862827 4.1386274594226524 #
edge $-1 $617 48.982320694198073 $620 56.552622610299125 $509 $664 forward 7 unknown #
vertex $-1 $523 $665 #
straight-curve $-1 15.137937534523676 -72.281403445646305 10.595997102961398 0 -1 0 I I #
edge $-1 $620 -0.28172623924590212 $520 31.121053786785062 $519 $666 forward 7 unknown #
vertex $-1 $619 $667 #
straight-curve $-1 15.137937534523676 -36.268950586837462 3.0256951868603323 0 0.7313536940579346 0.68199836817093118 I I #
point $-1 15.137937534523676 -28.150795867020406 10.5959971029614 #
point $-1 46.54071756055464 -36.268950586837448 3.0256951868603457 #
straight-curve $-1 0 -36.268950586837448 10.5959971029614 1 0 0 I I #
vertex $-1 $526 $668 #
point $-1 22.91849353972988 -29.717988933862827 4.1386274594226524 #
vertex $-1 $530 $669 #
point $-1 32.339327547539156 -29.717988933862827 4.1386274594226524 #
vertex $-1 $534 $670 #
point $-1 41.760161555348446 -29.717988933862827 4.1386274594226524 #
straight-curve $-1 -79.394512771996219 36.268950586837448 0 0 0 -1 I I #
point $-1 -79.394512771996219 -36.268950586837448 -10.5959971029614 #
straight-curve $-1 -79.394512771996219 0 -10.5959971029614 0 1 0 I I #
point $-1 -79.394512771996219 36.268950586837448 -10.5959971029614 #
coedge $-1 $556 $555 $636 $671 reversed $280 $-1 #
coedge $-1 $561 $557 $635 $671 forward $415 $-1 #
vertex $-1 $558 $672 #
straight-curve $-1 0 36.268950586837448 10.5959971029614 -1 0 0 I I #
point $-1 -66.286688426471287 36.268950586837448 10.595997102961398 #
vertex $-1 $671 $673 #
straight-curve $-1 0 -36.268950586837448 10.5959971029614 1 0 0 I I #
straight-curve $-1 -79.394512771996219 -36.268950586837448 0 0 0 -1 I I #
straight-curve $-1 -79.394512771996219 36.268950586837448 0 0 0 -1 I I #
straight-curve $-1 66.286688426471287 -36.268950586837448 3.8396624836356059 0 0 -1 I I #
straight-curve $-1 0 -36.268950586837448 10.5959971029614 1 0 0 I I #
straight-curve $-1 0 36.268950586837448 10.5959971029614 -1 0 0 I I #
point $-1 66.286688426471287 -36.268950586837448 10.595997102961398 #
straight-curve $-1 79.394512771996219 0 10.5959971029614 0 1 0 I I #
point $-1 79.394512771996219 36.268950586837448 10.5959971029614 #
point $-1 79.394512771996219 -36.268950586837448 10.5959971029614 #
edge $-1 $596 -6.7563346193257923 $590 -2.3213780451099639 $594 $674 forward 7 unknown #
straight-curve $-1 29.143829538301866 36.268950586837448 6.1610405287455663 -1 0 0 I I #
point $-1 66.286688426471287 36.268950586837448 6.1610405287455698 #
straight-curve $-1 66.286688426471287 0 10.5959971029614 0 1 0 I I #
point $-1 66.286688426471287 36.268950586837448 10.595997102961398 #
point $-1 58.287659076603731 31.575456225709996 6.0039050512040113 #
straight-curve $-1 -51.148750891947614 -36.268950586837448 59.578317797159471 0 0 -1 I I #
point $-1 -51.148750891947614 -36.268950586837448 10.5959971029614 #
straight-curve $-1 -17.723680439466065 -36.268950586837448 3.0256951868603434 1 0 0 I I #
point $-1 -51.148750891947614 -36.268950586837448 3.0256951868603457 #
point $-1 -44.868194886741414 -28.694991381606428 3.0415969183357507 #
point $-1 -35.44736087893213 -28.694991381606428 3.0415969183357507 #
point $-1 -26.02652687112284 -28.694991381606428 3.0415969183357507 #
straight-curve $-1 15.137937534523676 -36.268950586837448 59.578317797159471 0 0 -1 I I #
point $-1 15.137937534523676 -36.268950586837448 10.5959971029614 #
straight-curve $-1 15.419663773769578 -36.268950586837448 3.0256951868603434 1 0 0 I I #
point $-1 15.137937534523676 -36.268950586837448 3.0256951868603457 #
point $-1 21.41849353972988 -28.694991381606428 3.0415969183357507 #
point $-1 30.839327547539156 -28.694991381606428 3.0415969183357507 #
point $-1 40.260161555348446 -28.694991381606428 3.0415969183357507 #
edge $-1 $637 -36.268950586837448 $640 36.268950586837448 $635 $675 forward 7 unknown #
point $-1 -79.394512771996219 36.268950586837448 10.5959971029614 #
point $-1 -79.394512771996219 -36.268950586837448 10.5959971029614 #
straight-curve $-1 66.286688426471287 36.268950586837448 3.8396624836356059 0 0 -1 I I #
straight-curve $-1 -79.394512771996219 0 10.5959971029614 0 -1 0 I I #
End-of-ACIS-data 