500 0 4 0           
7 Unknown 11 ACIS 5.0 NT 24 Fri Mar 26 20:02:20 1999 
-1 9.9999999999999995e-007 1e-010 
body $-1 $4 $-1 $5 #
body $-1 $6 $-1 $7 #
body $-1 $8 $-1 $9 #
body $-1 $10 $-1 $11 #
lump $-1 $-1 $12 $0 #
transform $-1 1 0 0 0 1 0 0 0 1 58.672444837794117 39.368929362656345 17.82637424706968 1 rotate no_reflect no_shear #
lump $-1 $-1 $13 $1 #
transform $-1 1 0 0 0 1 0 0 0 1 58.672444837794117 39.368929362656345 17.82637424706968 1 rotate no_reflect no_shear #
lump $-1 $-1 $14 $2 #
transform $-1 1 0 0 0 1 0 0 0 1 58.672444837794117 39.368929362656345 17.82637424706968 1 rotate no_reflect no_shear #
lump $-1 $-1 $15 $3 #
transform $-1 1 0 0 0 1 0 0 0 1 58.672444837794117 39.368929362656345 17.82637424706968 1 rotate no_reflect no_shear #
shell $-1 $-1 $-1 $16 $-1 $4 #
shell $-1 $-1 $-1 $17 $-1 $6 #
shell $-1 $-1 $-1 $18 $-1 $8 #
shell $-1 $-1 $-1 $19 $-1 $10 #
face $-1 $20 $21 $12 $-1 $22 forward single #
face $-1 $23 $24 $13 $-1 $25 reversed single #
face $-1 $26 $27 $14 $-1 $28 forward single #
face $-1 $29 $30 $15 $-1 $31 reversed single #
face $-1 $32 $33 $12 $-1 $34 reversed single #
loop $-1 $-1 $35 $16 #
plane-surface $-1 0 0 17.82637424706968 0 0 1 1 0 0 forward_v I I I I #
face $-1 $36 $37 $13 $-1 $38 forward single #
loop $-1 $-1 $39 $17 #
plane-surface $-1 0 -32.692697327025755 5.494693828382724 0 0 1 1 0 0 forward_v I I I I #
face $-1 $40 $41 $14 $-1 $42 forward single #
loop $-1 $-1 $43 $18 #
plane-surface $-1 -148.56384647458293 -3.4291500240445707 77.26445160819668 0 1 0 -0.7660444514056185 0 0.64278759981090561 forward_v I I I I #
face $-1 $44 $45 $15 $-1 $46 reversed single #
loop $-1 $47 $48 $19 #
cone-surface $-1 -50.826045471342653 1.559212622091195 8.8766835188634197 0.7660444514056185 0 -0.64278759981090561 0.96418139971635841 0 1.1490666771084277 1 I I 0 1 1.5 forward I I I I #
face $-1 $49 $50 $12 $-1 $51 reversed single #
loop $-1 $-1 $52 $20 #
plane-surface $-1 0 0 -17.82637424706968 0 0 1 1 0 0 forward_v I I I I #
coedge $-1 $53 $54 $55 $56 forward $21 $-1 #
face $-1 $57 $58 $13 $-1 $59 forward single #
loop $-1 $-1 $60 $23 #
plane-surface $-1 0 -32.692697327025755 -4.1409165369100993 0 0 1 1 0 0 forward_v I I I I #
coedge $-1 $61 $62 $63 $64 reversed $24 $-1 #
face $-1 $65 $66 $14 $-1 $67 forward single #
loop $-1 $-1 $68 $26 #
plane-surface $-1 -58.672444837794117 1.559212622091195 1.8366116235497998 -0.7660444514056185 0 0.64278759981090561 0.64278759981090561 0 0.7660444514056185 forward_v I I I I #
coedge $-1 $69 $70 $71 $72 reversed $27 $-1 #
face $-1 $73 $74 $15 $-1 $75 forward single #
loop $-1 $76 $77 $29 #
cone-surface $-1 -49.113614550704241 1.559212622091195 7.4397834025589304 0.7660444514056185 0 -0.64278759981090561 0.48209069985817921 0 0.57453333855421385 1 I I -0.70710678118654757 0.70710678118654757 0.75 forward I I I I #
loop $-1 $-1 $78 $19 #
coedge $-1 $48 $48 $79 $80 reversed $30 $-1 #
face $-1 $81 $82 $12 $-1 $83 reversed single #
loop $-1 $-1 $84 $32 #
plane-surface $-1 0 -39.368929362656345 0 0 1 0 0 0 1 forward_v I I I I #
coedge $-1 $85 $86 $87 $88 forward $33 $-1 #
coedge $-1 $89 $35 $90 $91 forward $21 $-1 #
coedge $-1 $35 $89 $92 $93 forward $21 $-1 #
coedge $-1 $94 $95 $35 $56 reversed $96 $-1 #
edge $-1 $97 -39.368929362656345 $98 39.368929362656345 $55 $99 forward 7 unknown #
face $-1 $100 $101 $13 $-1 $102 reversed single #
loop $-1 $-1 $103 $36 #
plane-surface $-1 0 -26.016465291395168 0.67688864573631236 0 -1 0 0 0 -1 forward_v I I I I #
coedge $-1 $104 $105 $106 $107 reversed $37 $-1 #
coedge $-1 $108 $39 $109 $110 reversed $24 $-1 #
coedge $-1 $39 $108 $111 $112 reversed $24 $-1 #
coedge $-1 $113 $114 $39 $64 forward $101 $-1 #
edge $-1 $115 -23.022580699143468 $116 -9.6701166278822903 $63 $117 forward 7 unknown #
face $-1 $118 $119 $14 $-1 $120 forward single #
loop $-1 $-1 $121 $40 #
plane-surface $-1 -148.56384647458293 6.5475752682269608 77.26445160819668 0 -1 0 0.7660444514056185 0 -0.64278759981090561 forward_v I I I I #
coedge $-1 $122 $123 $124 $125 reversed $41 $-1 #
coedge $-1 $70 $43 $123 $126 forward $27 $-1 #
coedge $-1 $43 $69 $127 $128 reversed $27 $-1 #
coedge $-1 $129 $124 $43 $72 forward $119 $-1 #
edge $-1 $130 -29.026481968231884 $131 -15.609478399497348 $71 $132 forward 7 unknown #
face $-1 $133 $134 $15 $-1 $135 forward single #
loop $-1 $-1 $136 $44 #
plane-surface $-1 -148.56384647458293 -3.4291500240445707 77.26445160819668 0 1 0 -0.7660444514056185 0 0.64278759981090561 forward_v I I I I #
loop $-1 $-1 $137 $29 #
coedge $-1 $77 $77 $78 $138 forward $45 $-1 #
coedge $-1 $78 $78 $77 $138 reversed $47 $-1 #
coedge $-1 $79 $79 $48 $80 forward $134 $-1 #
edge $-1 $139 0 $139 6.2831853071796004 $79 $140 forward 7 unknown #
face $-1 $141 $142 $12 $-1 $143 reversed single #
loop $-1 $-1 $144 $49 #
plane-surface $-1 -58.672444837794117 0 0 1 0 0 0 0 -1 forward_v I I I I #
coedge $-1 $145 $92 $146 $147 forward $50 $-1 #
coedge $-1 $148 $52 $145 $149 forward $33 $-1 #
coedge $-1 $52 $148 $150 $151 forward $33 $-1 #
coedge $-1 $95 $94 $52 $88 reversed $96 $-1 #
edge $-1 $152 -39.368929362656345 $153 39.368929362656345 $87 $154 forward 7 unknown #
coedge $-1 $54 $53 $155 $156 forward $21 $-1 #
coedge $-1 $157 $158 $53 $91 reversed $142 $-1 #
edge $-1 $98 -58.672444837794117 $159 58.672444837794117 $90 $160 forward 7 unknown #
coedge $-1 $84 $161 $54 $93 reversed $50 $-1 #
edge $-1 $162 -58.672444837794117 $97 58.672444837794117 $92 $163 forward 7 unknown #
coedge $-1 $87 $55 $161 $164 forward $96 $-1 #
coedge $-1 $55 $87 $157 $165 reversed $96 $-1 #
loop $-1 $-1 $94 $141 #
vertex $-1 $56 $166 #
vertex $-1 $56 $167 #
straight-curve $-1 58.672444837794117 0 17.82637424706968 0 1 0 I I #
face $-1 $168 $169 $13 $-1 $170 reversed single #
loop $-1 $-1 $63 $57 #
plane-surface $-1 58.672444837794117 0 0 -1 0 0 0 0 1 forward_v I I I I #
coedge $-1 $111 $171 $113 $172 reversed $58 $-1 #
coedge $-1 $173 $60 $171 $174 reversed $37 $-1 #
coedge $-1 $60 $173 $175 $176 reversed $37 $-1 #
coedge $-1 $177 $113 $60 $107 forward $101 $-1 #
edge $-1 $178 9.6701166278822903 $179 23.022580699143468 $106 $180 forward 7 unknown #
coedge $-1 $62 $61 $181 $182 reversed $24 $-1 #
coedge $-1 $183 $184 $61 $110 forward $185 $-1 #
edge $-1 $186 -58.672444837794117 $115 58.672444837794117 $109 $187 forward 7 unknown #
coedge $-1 $188 $103 $62 $112 forward $58 $-1 #
edge $-1 $116 -58.672444837794117 $189 58.672444837794117 $111 $190 forward 7 unknown #
coedge $-1 $106 $63 $103 $172 forward $101 $-1 #
coedge $-1 $63 $191 $183 $192 forward $101 $-1 #
vertex $-1 $110 $193 #
vertex $-1 $64 $194 #
straight-curve $-1 58.672444837794117 -16.346348663512877 5.494693828382724 0 1 0 I I #
face $-1 $195 $196 $14 $-1 $197 reversed single #
loop $-1 $-1 $198 $65 #
plane-surface $-1 0 0 17.82637424706968 0 0 1 1 0 0 forward_v I I I I #
coedge $-1 $199 $200 $198 $201 reversed $66 $-1 #
coedge $-1 $202 $68 $200 $203 reversed $41 $-1 #
coedge $-1 $68 $202 $69 $126 reversed $41 $-1 #
coedge $-1 $71 $198 $68 $125 forward $119 $-1 #
edge $-1 $204 -5.7679689571813633 $130 4.2087563350901682 $124 $205 forward 7 unknown #
edge $-1 $130 -20.873152457641584 $206 0 $69 $207 forward 7 unknown #
coedge $-1 $208 $209 $70 $128 forward $210 $-1 #
edge $-1 $131 20.80585155702866 $206 36.79561418054854 $127 $211 forward 7 unknown #
coedge $-1 $212 $71 $209 $213 forward $119 $-1 #
vertex $-1 $125 $214 #
vertex $-1 $213 $215 #
straight-curve $-1 -74.281923237291466 -3.4291500240445707 17.82637424706968 -1 0 0 I I #
face $-1 $216 $217 $15 $-1 $218 forward single #
loop $-1 $219 $79 $73 #
plane-surface $-1 -58.672444837794117 1.559212622091195 1.8366116235497998 -0.7660444514056185 0 0.64278759981090561 0.64278759981090561 0 0.7660444514056185 forward_v I I I I #
coedge $-1 $220 $221 $222 $223 reversed $74 $-1 #
coedge $-1 $137 $137 $-1 $224 forward $76 $-1 #
edge $-1 $225 0 $225 6.2831853071796004 $77 $226 forward 7 unknown #
vertex $-1 $80 $227 #
ellipse-curve $-1 -51.963943053426853 1.559212622091195 9.8314929353097344 0.7660444514056185 0 -0.64278759981090561 0.96418139971635841 0 1.1490666771084277 1 I I #
face $-1 $-1 $96 $12 $-1 $228 reversed single #
loop $-1 $-1 $157 $81 #
plane-surface $-1 0 39.368929362656345 0 0 -1 0 0 0 -1 forward_v I I I I #
coedge $-1 $229 $155 $158 $230 forward $82 $-1 #
coedge $-1 $161 $84 $85 $149 reversed $50 $-1 #
coedge $-1 $155 $229 $84 $147 reversed $82 $-1 #
edge $-1 $162 -17.82637424706968 $231 17.82637424706968 $146 $232 forward 7 unknown #
coedge $-1 $86 $85 $229 $233 forward $33 $-1 #
edge $-1 $153 -58.672444837794117 $231 58.672444837794117 $145 $234 forward 7 unknown #
coedge $-1 $158 $157 $86 $151 reversed $142 $-1 #
edge $-1 $235 -58.672444837794117 $152 58.672444837794117 $150 $236 forward 7 unknown #
vertex $-1 $88 $237 #
vertex $-1 $164 $238 #
straight-curve $-1 58.672444837794117 0 -17.82637424706968 0 -1 0 I I #
coedge $-1 $144 $146 $89 $156 reversed $82 $-1 #
edge $-1 $159 -39.368929362656345 $162 39.368929362656345 $155 $239 forward 7 unknown #
coedge $-1 $150 $90 $95 $165 forward $142 $-1 #
coedge $-1 $90 $150 $144 $230 reversed $142 $-1 #
vertex $-1 $91 $240 #
straight-curve $-1 0 39.368929362656345 17.82637424706968 -1 0 0 I I #
coedge $-1 $92 $145 $94 $164 reversed $50 $-1 #
vertex $-1 $156 $241 #
straight-curve $-1 0 -39.368929362656345 17.82637424706968 1 0 0 I I #
edge $-1 $97 -17.82637424706968 $153 17.82637424706968 $94 $242 forward 7 unknown #
edge $-1 $98 -17.82637424706968 $152 17.82637424706968 $95 $243 forward 7 unknown #
point $-1 58.672444837794117 -39.368929362656345 17.82637424706968 #
point $-1 58.672444837794117 39.368929362656345 17.82637424706968 #
face $-1 $244 $245 $13 $-1 $246 forward single #
loop $-1 $-1 $175 $100 #
plane-surface $-1 0 -39.368929362656345 0 0 1 0 0 0 1 forward_v I I I I #
coedge $-1 $103 $188 $104 $174 forward $58 $-1 #
edge $-1 $116 -5.1562495055145678 $178 4.4793608597782555 $113 $247 forward 7 unknown #
coedge $-1 $105 $104 $248 $249 reversed $37 $-1 #
edge $-1 $250 -58.672444837794117 $178 58.672444837794117 $171 $251 forward 7 unknown #
coedge $-1 $252 $253 $105 $176 forward $169 $-1 #
edge $-1 $179 -58.672444837794117 $254 58.672444837794117 $175 $255 forward 7 unknown #
coedge $-1 $256 $106 $253 $257 forward $101 $-1 #
vertex $-1 $107 $258 #
vertex $-1 $257 $259 #
straight-curve $-1 58.672444837794117 -16.346348663512877 -4.1409165369100993 0 -1 0 I I #
coedge $-1 $260 $261 $108 $182 forward $262 $-1 #
edge $-1 $189 9.6701166278822903 $186 23.022580699143468 $181 $263 forward 7 unknown #
coedge $-1 $264 $109 $114 $192 reversed $185 $-1 #
coedge $-1 $109 $264 $260 $265 forward $185 $-1 #
loop $-1 $-1 $109 $266 #
vertex $-1 $182 $267 #
straight-curve $-1 0 -39.368929362656345 5.494693828382724 1 0 0 I I #
coedge $-1 $171 $111 $261 $268 reversed $58 $-1 #
vertex $-1 $182 $269 #
straight-curve $-1 0 -26.016465291395168 5.494693828382724 -1 0 0 I I #
coedge $-1 $114 $270 $271 $272 reversed $101 $-1 #
edge $-1 $273 -17.82637424706968 $115 -5.494693828382724 $114 $274 forward 7 unknown #
point $-1 58.672444837794117 -39.368929362656345 5.494693828382724 #
point $-1 58.672444837794117 -26.016465291395168 5.494693828382724 #
face $-1 $275 $276 $14 $-1 $277 forward single #
loop $-1 $-1 $278 $118 #
plane-surface $-1 0 -32.692697327025755 5.494693828382724 0 0 1 1 0 0 forward_v I I I I #
coedge $-1 $124 $279 $121 $201 forward $119 $-1 #
coedge $-1 $200 $121 $280 $281 reversed $66 $-1 #
coedge $-1 $121 $199 $122 $203 forward $66 $-1 #
edge $-1 $282 15.609478399497348 $204 29.026481968231884 $198 $283 forward 7 unknown #
coedge $-1 $123 $122 $208 $284 reversed $41 $-1 #
edge $-1 $285 0 $204 20.873152457641584 $200 $286 forward 7 unknown #
vertex $-1 $125 $287 #
straight-curve $-1 -45.255441269059581 0.77960631104559752 17.82637424706968 0 -1 0 I I #
vertex $-1 $284 $288 #
straight-curve $-1 -58.672444837794117 -3.4291500240445707 1.8366116235497998 -0.64278759981090561 0 -0.7660444514056185 I I #
coedge $-1 $280 $127 $202 $284 forward $210 $-1 #
coedge $-1 $127 $289 $129 $213 reversed $210 $-1 #
loop $-1 $-1 $280 $290 #
straight-curve $-1 -58.672444837794117 -3.4291500240445707 38.63222580409834 0 0 -1 I I #
coedge $-1 $291 $129 $292 $293 forward $119 $-1 #
edge $-1 $131 3.4291500240445707 $294 39.368929362656345 $209 $295 forward 7 unknown #
point $-1 -45.255441269059581 -3.4291500240445707 17.82637424706968 #
point $-1 -58.672444837794117 -3.4291500240445707 17.82637424706968 #
face $-1 $296 $297 $15 $-1 $298 forward single #
loop $-1 $-1 $299 $133 #
plane-surface $-1 -148.56384647458293 6.5475752682269608 77.26445160819668 0 -1 0 0.7660444514056185 0 -0.64278759981090561 forward_v I I I I #
loop $-1 $-1 $300 $73 #
coedge $-1 $221 $136 $301 $302 forward $74 $-1 #
coedge $-1 $136 $220 $303 $304 reversed $74 $-1 #
coedge $-1 $305 $306 $136 $223 forward $297 $-1 #
edge $-1 $307 -29.026481968231884 $308 -15.609478399497348 $222 $309 forward 7 unknown #
edge $-1 $310 1 $310 0 $137 $-1 forward 7 unknown #
vertex $-1 $138 $311 #
ellipse-curve $-1 -49.688147889258452 1.559212622091195 7.9218741024171093 -0.7660444514056185 0 0.64278759981090561 0.96418139971635841 0 1.1490666771084277 1 I I #
point $-1 -50.999761653710486 1.559212622091195 10.980559612418158 #
plane-surface $-1 58.672444837794117 0 0 -1 0 0 0 0 1 forward_v I I I I #
coedge $-1 $146 $144 $148 $233 reversed $82 $-1 #
edge $-1 $159 -17.82637424706968 $235 17.82637424706968 $158 $312 forward 7 unknown #
vertex $-1 $233 $313 #
straight-curve $-1 -58.672444837794117 -39.368929362656345 0 0 0 -1 I I #
edge $-1 $231 -39.368929362656345 $235 39.368929362656345 $229 $314 forward 7 unknown #
straight-curve $-1 0 -39.368929362656345 -17.82637424706968 -1 0 0 I I #
vertex $-1 $151 $315 #
straight-curve $-1 0 39.368929362656345 -17.82637424706968 1 0 0 I I #
point $-1 58.672444837794117 39.368929362656345 -17.82637424706968 #
point $-1 58.672444837794117 -39.368929362656345 -17.82637424706968 #
straight-curve $-1 -58.672444837794117 0 17.82637424706968 0 -1 0 I I #
point $-1 -58.672444837794117 39.368929362656345 17.82637424706968 #
point $-1 -58.672444837794117 -39.368929362656345 17.82637424706968 #
straight-curve $-1 58.672444837794117 -39.368929362656345 0 0 0 -1 I I #
straight-curve $-1 58.672444837794117 39.368929362656345 0 0 0 -1 I I #
face $-1 $266 $316 $13 $-1 $317 reversed single #
loop $-1 $-1 $271 $168 #
plane-surface $-1 0 0 17.82637424706968 0 0 1 1 0 0 forward_v I I I I #
straight-curve $-1 58.672444837794117 -26.016465291395168 0.33844432286815618 0 0 -1 I I #
coedge $-1 $261 $318 $173 $249 forward $262 $-1 #
edge $-1 $254 -23.022580699143468 $250 -9.6701166278822903 $248 $319 forward 7 unknown #
vertex $-1 $249 $320 #
straight-curve $-1 0 -26.016465291395168 -4.1409165369100993 1 0 0 I I #
coedge $-1 $321 $175 $318 $322 forward $169 $-1 #
coedge $-1 $175 $321 $177 $257 reversed $169 $-1 #
vertex $-1 $322 $323 #
straight-curve $-1 0 -39.368929362656345 -4.1409165369100993 -1 0 0 I I #
coedge $-1 $270 $177 $324 $325 reversed $101 $-1 #
edge $-1 $179 4.1409165369100993 $326 17.82637424706968 $177 $274 forward 7 unknown #
point $-1 58.672444837794117 -26.016465291395168 -4.1409165369100993 #
point $-1 58.672444837794117 -39.368929362656345 -4.1409165369100993 #
coedge $-1 $327 $181 $184 $265 reversed $262 $-1 #
coedge $-1 $181 $248 $188 $268 forward $262 $-1 #
loop $-1 $-1 $181 $328 #
straight-curve $-1 -58.672444837794117 -16.346348663512877 5.494693828382724 0 -1 0 I I #
coedge $-1 $184 $183 $329 $330 reversed $185 $-1 #
edge $-1 $331 -17.82637424706968 $186 -5.494693828382724 $260 $332 forward 7 unknown #
face $-1 $328 $185 $13 $-1 $170 reversed single #
point $-1 -58.672444837794117 -39.368929362656345 5.494693828382724 #
edge $-1 $250 -4.4793608597782555 $189 5.1562495055145678 $261 $333 forward 7 unknown #
point $-1 -58.672444837794117 -26.016465291395168 5.494693828382724 #
coedge $-1 $191 $256 $334 $335 reversed $101 $-1 #
coedge $-1 $336 $329 $191 $272 forward $245 $-1 #
edge $-1 $273 -39.368929362656345 $337 39.368929362656345 $191 $338 forward 7 unknown #
vertex $-1 $272 $339 #
straight-curve $-1 58.672444837794117 -39.368929362656345 0 0 0 -1 I I #
face $-1 $340 $341 $14 $-1 $342 forward single #
loop $-1 $-1 $343 $195 #
plane-surface $-1 0 -32.692697327025755 -4.1409165369100993 0 0 1 1 0 0 forward_v I I I I #
coedge $-1 $344 $345 $346 $347 reversed $196 $-1 #
coedge $-1 $198 $348 $349 $350 forward $119 $-1 #
coedge $-1 $349 $208 $199 $281 forward $210 $-1 #
edge $-1 $285 -36.79561418054854 $282 -20.80585155702866 $280 $351 forward 7 unknown #
vertex $-1 $281 $352 #
straight-curve $-1 -74.281923237291466 6.5475752682269608 17.82637424706968 1 0 0 I I #
edge $-1 $206 -4.2087563350901682 $285 5.7679689571813633 $208 $353 forward 7 unknown #
vertex $-1 $284 $354 #
straight-curve $-1 -58.672444837794117 6.5475752682269608 1.8366116235497998 0.64278759981090561 0 0.7660444514056185 I I #
point $-1 -45.255441269059581 6.5475752682269608 17.82637424706968 #
point $-1 -58.672444837794117 -3.4291500240445707 1.8366116235497998 #
coedge $-1 $209 $355 $356 $357 reversed $210 $-1 #
face $-1 $358 $210 $14 $-1 $359 reversed single #
coedge $-1 $348 $212 $360 $361 forward $119 $-1 #
coedge $-1 $356 $362 $212 $293 reversed $363 $-1 #
edge $-1 $294 -58.672444837794117 $364 58.672444837794117 $292 $365 forward 7 unknown #
vertex $-1 $213 $366 #
straight-curve $-1 -58.672444837794117 0 17.82637424706968 0 -1 0 I I #
face $-1 $367 $368 $15 $-1 $369 reversed single #
loop $-1 $-1 $370 $216 #
plane-surface $-1 0 0 17.82637424706968 0 0 1 1 0 0 forward_v I I I I #
coedge $-1 $371 $372 $370 $373 reversed $217 $-1 #
coedge $-1 $374 $301 $306 $375 reversed $219 $-1 #
coedge $-1 $300 $376 $220 $302 reversed $219 $-1 #
edge $-1 $307 -20.873152457641584 $377 0 $220 $378 forward 7 unknown #
coedge $-1 $379 $380 $221 $304 forward $381 $-1 #
edge $-1 $308 20.80585155702866 $377 36.79561418054854 $303 $382 forward 7 unknown #
coedge $-1 $383 $222 $380 $384 forward $297 $-1 #
coedge $-1 $222 $370 $300 $375 forward $297 $-1 #
vertex $-1 $375 $385 #
vertex $-1 $384 $386 #
straight-curve $-1 -74.281923237291466 -3.4291500240445707 17.82637424706968 -1 0 0 I I #
vertex $-1 $224 $387 #
point $-1 -48.7239664895421 1.559212622091195 9.0709407795255377 #
straight-curve $-1 -58.672444837794117 39.368929362656345 0 0 0 -1 I I #
point $-1 -58.672444837794117 -39.368929362656345 -17.82637424706968 #
straight-curve $-1 -58.672444837794117 0 -17.82637424706968 0 1 0 I I #
point $-1 -58.672444837794117 39.368929362656345 -17.82637424706968 #
loop $-1 $-1 $324 $244 #
plane-surface $-1 0 0 -17.82637424706968 0 0 1 1 0 0 forward_v I I I I #
coedge $-1 $248 $388 $252 $322 reversed $262 $-1 #
straight-curve $-1 -58.672444837794117 -16.346348663512877 -4.1409165369100993 0 1 0 I I #
point $-1 -58.672444837794117 -26.016465291395168 -4.1409165369100993 #
coedge $-1 $253 $252 $389 $390 reversed $169 $-1 #
edge $-1 $254 4.1409165369100993 $391 17.82637424706968 $318 $332 forward 7 unknown #
point $-1 -58.672444837794117 -39.368929362656345 -4.1409165369100993 #
coedge $-1 $389 $392 $256 $325 forward $316 $-1 #
edge $-1 $393 -39.368929362656345 $326 39.368929362656345 $256 $394 forward 7 unknown #
vertex $-1 $257 $395 #
coedge $-1 $396 $260 $397 $398 reversed $262 $-1 #
face $-1 $399 $262 $13 $-1 $400 reversed single #
coedge $-1 $271 $397 $264 $330 forward $245 $-1 #
edge $-1 $331 -58.672444837794117 $273 58.672444837794117 $264 $401 forward 7 unknown #
vertex $-1 $398 $402 #
straight-curve $-1 -58.672444837794117 -39.368929362656345 0 0 0 -1 I I #
straight-curve $-1 -58.672444837794117 -26.016465291395168 0.33844432286815618 0 0 1 I I #
coedge $-1 $403 $404 $270 $335 forward $405 $-1 #
edge $-1 $337 -17.82637424706968 $393 17.82637424706968 $270 $406 forward 7 unknown #
coedge $-1 $397 $271 $404 $407 forward $245 $-1 #
vertex $-1 $272 $408 #
straight-curve $-1 58.672444837794117 0 17.82637424706968 0 1 0 I I #
point $-1 58.672444837794117 -39.368929362656345 17.82637424706968 #
face $-1 $409 $410 $14 $-1 $411 reversed single #
loop $-1 $-1 $412 $275 #
plane-surface $-1 0 -26.016465291395168 0.67688864573631236 0 -1 0 0 0 -1 forward_v I I I I #
coedge $-1 $413 $414 $415 $416 reversed $276 $-1 #
coedge $-1 $417 $278 $418 $419 reversed $196 $-1 #
coedge $-1 $278 $417 $420 $421 reversed $196 $-1 #
coedge $-1 $422 $423 $278 $347 forward $410 $-1 #
edge $-1 $424 -23.022580699143468 $425 -9.6701166278822903 $346 $426 forward 7 unknown #
coedge $-1 $279 $291 $427 $428 forward $119 $-1 #
coedge $-1 $429 $280 $279 $350 reversed $210 $-1 #
edge $-1 $430 -39.368929362656345 $282 -6.5475752682269608 $349 $295 forward 7 unknown #
straight-curve $-1 -58.672444837794117 6.5475752682269608 38.63222580409834 0 0 1 I I #
point $-1 -58.672444837794117 6.5475752682269608 17.82637424706968 #
straight-curve $-1 -58.672444837794117 0.77960631104559752 1.8366116235497965 0 1 0 I I #
point $-1 -58.672444837794117 6.5475752682269608 1.8366116235497998 #
coedge $-1 $289 $431 $417 $432 forward $210 $-1 #
coedge $-1 $418 $292 $289 $357 forward $363 $-1 #
edge $-1 $294 -17.82637424706968 $433 -5.494693828382724 $289 $434 forward 7 unknown #
face $-1 $-1 $435 $14 $-1 $436 reversed single #
plane-surface $-1 -58.672444837794117 0 0 1 0 0 0 0 -1 forward_v I I I I #
coedge $-1 $423 $437 $291 $361 reversed $410 $-1 #
edge $-1 $364 -39.368929362656345 $438 39.368929362656345 $360 $439 forward 7 unknown #
coedge $-1 $292 $418 $423 $440 reversed $363 $-1 #
loop $-1 $-1 $418 $441 #
vertex $-1 $361 $442 #
straight-curve $-1 0 -39.368929362656345 17.82637424706968 1 0 0 I I #
point $-1 -58.672444837794117 -39.368929362656345 17.82637424706968 #
face $-1 $443 $444 $15 $-1 $445 forward single #
loop $-1 $-1 $446 $296 #
plane-surface $-1 0 -32.692697327025755 5.494693828382724 0 0 1 1 0 0 forward_v I I I I #
coedge $-1 $306 $447 $299 $373 forward $297 $-1 #
coedge $-1 $372 $299 $448 $449 reversed $217 $-1 #
coedge $-1 $299 $371 $374 $450 forward $217 $-1 #
edge $-1 $451 15.609478399497348 $452 29.026481968231884 $370 $453 forward 7 unknown #
coedge $-1 $376 $300 $372 $450 reversed $219 $-1 #
edge $-1 $452 -5.7679689571813633 $307 4.2087563350901682 $306 $454 forward 7 unknown #
coedge $-1 $301 $374 $379 $455 reversed $219 $-1 #
vertex $-1 $455 $456 #
straight-curve $-1 -58.672444837794117 -3.4291500240445707 1.8366116235497998 -0.64278759981090561 0 -0.7660444514056185 I I #
coedge $-1 $448 $303 $376 $455 forward $381 $-1 #
coedge $-1 $303 $457 $305 $384 reversed $381 $-1 #
loop $-1 $-1 $448 $458 #
straight-curve $-1 -58.672444837794117 -3.4291500240445707 38.63222580409834 0 0 -1 I I #
coedge $-1 $459 $305 $460 $461 forward $297 $-1 #
edge $-1 $308 3.4291500240445707 $462 39.368929362656345 $380 $463 forward 7 unknown #
point $-1 -45.255441269059581 -3.4291500240445707 17.82637424706968 #
point $-1 -58.672444837794117 -3.4291500240445707 17.82637424706968 #
point $-1 -48.53908121215003 1.559212622091195 6.9576927027007516 #
coedge $-1 $318 $396 $464 $465 reversed $262 $-1 #
coedge $-1 $464 $324 $321 $390 forward $316 $-1 #
edge $-1 $326 -58.672444837794117 $391 58.672444837794117 $321 $466 forward 7 unknown #
vertex $-1 $465 $467 #
coedge $-1 $324 $464 $403 $468 forward $316 $-1 #
vertex $-1 $325 $469 #
straight-curve $-1 58.672444837794117 0 -17.82637424706968 0 -1 0 I I #
point $-1 58.672444837794117 -39.368929362656345 -17.82637424706968 #
coedge $-1 $388 $327 $470 $471 forward $262 $-1 #
coedge $-1 $329 $336 $327 $398 forward $245 $-1 #
edge $-1 $472 -39.368929362656345 $331 39.368929362656345 $327 $473 forward 7 unknown #
face $-1 $-1 $405 $13 $-1 $474 reversed single #
plane-surface $-1 -58.672444837794117 0 0 1 0 0 0 0 -1 forward_v I I I I #
straight-curve $-1 0 -39.368929362656345 17.82637424706968 1 0 0 I I #
point $-1 -58.672444837794117 -39.368929362656345 17.82637424706968 #
coedge $-1 $470 $334 $392 $468 reversed $405 $-1 #
coedge $-1 $334 $470 $336 $407 reversed $405 $-1 #
loop $-1 $-1 $334 $399 #
straight-curve $-1 58.672444837794117 39.368929362656345 0 0 0 -1 I I #
edge $-1 $337 -58.672444837794117 $472 58.672444837794117 $404 $475 forward 7 unknown #
point $-1 58.672444837794117 39.368929362656345 17.82637424706968 #
face $-1 $476 $477 $14 $-1 $478 reversed single #
loop $-1 $-1 $346 $340 #
plane-surface $-1 58.672444837794117 0 0 -1 0 0 0 0 1 forward_v I I I I #
coedge $-1 $420 $479 $422 $480 reversed $341 $-1 #
coedge $-1 $481 $343 $479 $482 reversed $276 $-1 #
coedge $-1 $343 $481 $483 $484 reversed $276 $-1 #
coedge $-1 $485 $422 $343 $416 forward $410 $-1 #
edge $-1 $486 9.6701166278822903 $487 23.022580699143468 $415 $488 forward 7 unknown #
coedge $-1 $345 $344 $355 $432 reversed $196 $-1 #
coedge $-1 $362 $356 $344 $419 forward $363 $-1 #
edge $-1 $433 -58.672444837794117 $424 58.672444837794117 $418 $489 forward 7 unknown #
coedge $-1 $490 $412 $345 $421 forward $341 $-1 #
edge $-1 $425 -58.672444837794117 $491 58.672444837794117 $420 $492 forward 7 unknown #
coedge $-1 $415 $346 $412 $480 forward $410 $-1 #
coedge $-1 $346 $360 $362 $440 forward $410 $-1 #
vertex $-1 $419 $493 #
vertex $-1 $347 $494 #
straight-curve $-1 58.672444837794117 -16.346348663512877 5.494693828382724 0 1 0 I I #
coedge $-1 $495 $496 $348 $428 reversed $435 $-1 #
edge $-1 $438 -58.672444837794117 $430 58.672444837794117 $427 $497 forward 7 unknown #
coedge $-1 $498 $349 $496 $499 forward $210 $-1 #
vertex $-1 $428 $500 #
coedge $-1 $355 $501 $490 $502 forward $210 $-1 #
edge $-1 $491 9.6701166278822903 $433 23.022580699143468 $355 $503 forward 7 unknown #
vertex $-1 $432 $504 #
straight-curve $-1 -58.672444837794117 -39.368929362656345 0 0 0 -1 I I #
loop $-1 $-1 $495 $358 #
plane-surface $-1 0 39.368929362656345 0 0 -1 0 0 0 -1 forward_v I I I I #
coedge $-1 $360 $505 $495 $506 reversed $410 $-1 #
vertex $-1 $361 $507 #
straight-curve $-1 58.672444837794117 0 17.82637424706968 0 1 0 I I #
edge $-1 $364 -17.82637424706968 $424 -5.494693828382724 $423 $508 forward 7 unknown #
face $-1 $290 $363 $14 $-1 $478 reversed single #
point $-1 58.672444837794117 -39.368929362656345 17.82637424706968 #
face $-1 $509 $510 $15 $-1 $511 forward single #
loop $-1 $-1 $512 $367 #
plane-surface $-1 0 -32.692697327025755 -4.1409165369100993 0 0 1 1 0 0 forward_v I I I I #
coedge $-1 $513 $514 $515 $516 reversed $368 $-1 #
coedge $-1 $370 $517 $518 $519 forward $297 $-1 #
coedge $-1 $518 $379 $371 $449 forward $381 $-1 #
edge $-1 $520 -36.79561418054854 $451 -20.80585155702866 $448 $521 forward 7 unknown #
edge $-1 $520 0 $452 20.873152457641584 $372 $522 forward 7 unknown #
vertex $-1 $449 $523 #
vertex $-1 $375 $524 #
straight-curve $-1 -74.281923237291466 6.5475752682269608 17.82637424706968 1 0 0 I I #
straight-curve $-1 -45.255441269059581 0.77960631104559752 17.82637424706968 0 -1 0 I I #
edge $-1 $377 -4.2087563350901682 $520 5.7679689571813633 $379 $525 forward 7 unknown #
point $-1 -58.672444837794117 -3.4291500240445707 1.8366116235497998 #
coedge $-1 $380 $526 $527 $528 reversed $381 $-1 #
face $-1 $529 $381 $15 $-1 $530 reversed single #
coedge $-1 $517 $383 $531 $532 forward $297 $-1 #
coedge $-1 $527 $533 $383 $461 reversed $534 $-1 #
edge $-1 $462 -58.672444837794117 $535 58.672444837794117 $460 $536 forward 7 unknown #
vertex $-1 $384 $537 #
straight-curve $-1 -58.672444837794117 0 17.82637424706968 0 -1 0 I I #
coedge $-1 $392 $389 $388 $465 forward $316 $-1 #
edge $-1 $391 -39.368929362656345 $538 39.368929362656345 $388 $539 forward 7 unknown #
straight-curve $-1 0 -39.368929362656345 -17.82637424706968 -1 0 0 I I #
point $-1 -58.672444837794117 -39.368929362656345 -17.82637424706968 #
edge $-1 $538 -58.672444837794117 $393 58.672444837794117 $403 $540 forward 7 unknown #
point $-1 58.672444837794117 39.368929362656345 -17.82637424706968 #
coedge $-1 $404 $403 $396 $471 reversed $405 $-1 #
edge $-1 $472 -17.82637424706968 $538 17.82637424706968 $470 $541 forward 7 unknown #
vertex $-1 $407 $542 #
straight-curve $-1 -58.672444837794117 0 17.82637424706968 0 -1 0 I I #
plane-surface $-1 0 39.368929362656345 0 0 -1 0 0 0 -1 forward_v I I I I #
straight-curve $-1 0 39.368929362656345 17.82637424706968 -1 0 0 I I #
face $-1 $441 $543 $14 $-1 $544 reversed single #
loop $-1 $-1 $483 $409 #
plane-surface $-1 0 -39.368929362656345 0 0 1 0 0 0 1 forward_v I I I I #
coedge $-1 $412 $490 $413 $482 forward $341 $-1 #
edge $-1 $425 -5.1562495055145678 $486 4.4793608597782555 $422 $545 forward 7 unknown #
coedge $-1 $414 $413 $501 $546 reversed $276 $-1 #
edge $-1 $547 -58.672444837794117 $486 58.672444837794117 $479 $548 forward 7 unknown #
coedge $-1 $549 $550 $414 $484 forward $477 $-1 #
edge $-1 $487 -58.672444837794117 $551 58.672444837794117 $483 $552 forward 7 unknown #
coedge $-1 $505 $415 $550 $553 forward $410 $-1 #
vertex $-1 $416 $554 #
vertex $-1 $553 $555 #
straight-curve $-1 58.672444837794117 -16.346348663512877 -4.1409165369100993 0 -1 0 I I #
straight-curve $-1 0 -39.368929362656345 5.494693828382724 1 0 0 I I #
coedge $-1 $479 $420 $431 $502 reversed $341 $-1 #
vertex $-1 $432 $556 #
straight-curve $-1 0 -26.016465291395168 5.494693828382724 -1 0 0 I I #
point $-1 58.672444837794117 -39.368929362656345 5.494693828382724 #
point $-1 58.672444837794117 -26.016465291395168 5.494693828382724 #
coedge $-1 $557 $427 $437 $506 forward $435 $-1 #
coedge $-1 $427 $557 $429 $499 reversed $435 $-1 #
straight-curve $-1 0 39.368929362656345 17.82637424706968 -1 0 0 I I #
coedge $-1 $558 $429 $559 $560 reversed $210 $-1 #
edge $-1 $430 -17.82637424706968 $561 17.82637424706968 $496 $562 forward 7 unknown #
point $-1 -58.672444837794117 39.368929362656345 17.82637424706968 #
coedge $-1 $431 $558 $481 $546 forward $210 $-1 #
edge $-1 $547 -4.4793608597782555 $491 5.1562495055145678 $431 $563 forward 7 unknown #
straight-curve $-1 -58.672444837794117 -16.346348663512877 5.494693828382724 0 -1 0 I I #
point $-1 -58.672444837794117 -39.368929362656345 5.494693828382724 #
coedge $-1 $437 $485 $564 $565 reversed $410 $-1 #
edge $-1 $438 -17.82637424706968 $566 17.82637424706968 $437 $567 forward 7 unknown #
point $-1 58.672444837794117 39.368929362656345 17.82637424706968 #
straight-curve $-1 58.672444837794117 -39.368929362656345 0 0 0 -1 I I #
face $-1 $568 $569 $15 $-1 $570 reversed single #
loop $-1 $-1 $571 $443 #
plane-surface $-1 0 -26.016465291395168 0.67688864573631236 0 -1 0 0 0 -1 forward_v I I I I #
coedge $-1 $572 $573 $574 $575 reversed $444 $-1 #
coedge $-1 $576 $446 $577 $578 reversed $368 $-1 #
coedge $-1 $446 $576 $579 $580 reversed $368 $-1 #
coedge $-1 $581 $582 $446 $516 forward $569 $-1 #
edge $-1 $583 -23.022580699143468 $584 -9.6701166278822903 $515 $585 forward 7 unknown #
coedge $-1 $447 $459 $586 $587 forward $297 $-1 #
coedge $-1 $588 $448 $447 $519 reversed $381 $-1 #
edge $-1 $589 -39.368929362656345 $451 -6.5475752682269608 $518 $463 forward 7 unknown #
vertex $-1 $455 $590 #
straight-curve $-1 -58.672444837794117 6.5475752682269608 38.63222580409834 0 0 1 I I #
straight-curve $-1 -58.672444837794117 6.5475752682269608 1.8366116235497998 0.64278759981090561 0 0.7660444514056185 I I #
point $-1 -58.672444837794117 6.5475752682269608 17.82637424706968 #
point $-1 -45.255441269059581 6.5475752682269608 17.82637424706968 #
straight-curve $-1 -58.672444837794117 0.77960631104559752 1.8366116235497965 0 1 0 I I #
coedge $-1 $457 $591 $576 $592 forward $381 $-1 #
coedge $-1 $577 $460 $457 $528 forward $534 $-1 #
edge $-1 $462 -17.82637424706968 $593 -5.494693828382724 $457 $594 forward 7 unknown #
face $-1 $-1 $595 $15 $-1 $596 reversed single #
plane-surface $-1 -58.672444837794117 0 0 1 0 0 0 0 -1 forward_v I I I I #
coedge $-1 $582 $597 $459 $532 reversed $569 $-1 #
edge $-1 $535 -39.368929362656345 $598 39.368929362656345 $531 $599 forward 7 unknown #
coedge $-1 $460 $577 $582 $600 reversed $534 $-1 #
loop $-1 $-1 $577 $601 #
vertex $-1 $532 $602 #
straight-curve $-1 0 -39.368929362656345 17.82637424706968 1 0 0 I I #
point $-1 -58.672444837794117 -39.368929362656345 17.82637424706968 #
vertex $-1 $468 $603 #
straight-curve $-1 -58.672444837794117 0 -17.82637424706968 0 1 0 I I #
straight-curve $-1 0 39.368929362656345 -17.82637424706968 1 0 0 I I #
straight-curve $-1 -58.672444837794117 39.368929362656345 0 0 0 -1 I I #
point $-1 -58.672444837794117 39.368929362656345 17.82637424706968 #
loop $-1 $-1 $564 $476 #
plane-surface $-1 0 0 -17.82637424706968 0 0 1 1 0 0 forward_v I I I I #
straight-curve $-1 58.672444837794117 -26.016465291395168 0.33844432286815618 0 0 -1 I I #
edge $-1 $551 -23.022580699143468 $547 -9.6701166278822903 $501 $604 forward 7 unknown #
vertex $-1 $546 $605 #
straight-curve $-1 0 -26.016465291395168 -4.1409165369100993 1 0 0 I I #
coedge $-1 $606 $483 $558 $607 forward $477 $-1 #
coedge $-1 $483 $606 $485 $553 reversed $477 $-1 #
vertex $-1 $607 $608 #
straight-curve $-1 0 -39.368929362656345 -4.1409165369100993 -1 0 0 I I #
edge $-1 $487 4.1409165369100993 $609 17.82637424706968 $485 $508 forward 7 unknown #
point $-1 58.672444837794117 -26.016465291395168 -4.1409165369100993 #
point $-1 58.672444837794117 -39.368929362656345 -4.1409165369100993 #
point $-1 -58.672444837794117 -26.016465291395168 5.494693828382724 #
coedge $-1 $496 $495 $610 $611 reversed $435 $-1 #
coedge $-1 $501 $498 $549 $607 reversed $210 $-1 #
coedge $-1 $610 $612 $498 $560 forward $543 $-1 #
edge $-1 $613 -39.368929362656345 $561 39.368929362656345 $498 $614 forward 7 unknown #
vertex $-1 $611 $615 #
straight-curve $-1 -58.672444837794117 39.368929362656345 0 0 0 -1 I I #
straight-curve $-1 -58.672444837794117 -26.016465291395168 0.33844432286815618 0 0 1 I I #
coedge $-1 $612 $610 $505 $565 forward $543 $-1 #
edge $-1 $566 -39.368929362656345 $609 39.368929362656345 $505 $616 forward 7 unknown #
vertex $-1 $565 $617 #
straight-curve $-1 58.672444837794117 39.368929362656345 0 0 0 -1 I I #
face $-1 $618 $619 $15 $-1 $620 reversed single #
loop $-1 $-1 $515 $509 #
plane-surface $-1 58.672444837794117 0 0 -1 0 0 0 0 1 forward_v I I I I #
coedge $-1 $579 $621 $581 $622 reversed $510 $-1 #
coedge $-1 $623 $512 $621 $624 reversed $444 $-1 #
coedge $-1 $512 $623 $625 $626 reversed $444 $-1 #
coedge $-1 $627 $581 $512 $575 forward $569 $-1 #
edge $-1 $628 9.6701166278822903 $629 23.022580699143468 $574 $630 forward 7 unknown #
coedge $-1 $514 $513 $526 $592 reversed $368 $-1 #
coedge $-1 $533 $527 $513 $578 forward $534 $-1 #
edge $-1 $593 -58.672444837794117 $583 58.672444837794117 $577 $631 forward 7 unknown #
coedge $-1 $632 $571 $514 $580 forward $510 $-1 #
edge $-1 $584 -58.672444837794117 $633 58.672444837794117 $579 $634 forward 7 unknown #
coedge $-1 $574 $515 $571 $622 forward $569 $-1 #
coedge $-1 $515 $531 $533 $600 forward $569 $-1 #
vertex $-1 $578 $635 #
vertex $-1 $516 $636 #
straight-curve $-1 58.672444837794117 -16.346348663512877 5.494693828382724 0 1 0 I I #
coedge $-1 $637 $638 $517 $587 reversed $595 $-1 #
edge $-1 $598 -58.672444837794117 $589 58.672444837794117 $586 $639 forward 7 unknown #
coedge $-1 $640 $518 $638 $641 forward $381 $-1 #
vertex $-1 $587 $642 #
point $-1 -58.672444837794117 6.5475752682269608 1.8366116235497998 #
coedge $-1 $526 $643 $632 $644 forward $381 $-1 #
edge $-1 $633 9.6701166278822903 $593 23.022580699143468 $526 $645 forward 7 unknown #
vertex $-1 $592 $646 #
straight-curve $-1 -58.672444837794117 -39.368929362656345 0 0 0 -1 I I #
loop $-1 $-1 $637 $529 #
plane-surface $-1 0 39.368929362656345 0 0 -1 0 0 0 -1 forward_v I I I I #
coedge $-1 $531 $647 $637 $648 reversed $569 $-1 #
vertex $-1 $532 $649 #
straight-curve $-1 58.672444837794117 0 17.82637424706968 0 1 0 I I #
edge $-1 $535 -17.82637424706968 $583 -5.494693828382724 $582 $650 forward 7 unknown #
face $-1 $458 $534 $15 $-1 $620 reversed single #
point $-1 58.672444837794117 -39.368929362656345 17.82637424706968 #
point $-1 -58.672444837794117 39.368929362656345 -17.82637424706968 #
straight-curve $-1 -58.672444837794117 -16.346348663512877 -4.1409165369100993 0 1 0 I I #
point $-1 -58.672444837794117 -26.016465291395168 -4.1409165369100993 #
coedge $-1 $550 $549 $612 $651 reversed $477 $-1 #
edge $-1 $551 4.1409165369100993 $613 17.82637424706968 $558 $434 forward 7 unknown #
point $-1 -58.672444837794117 -39.368929362656345 -4.1409165369100993 #
vertex $-1 $553 $652 #
coedge $-1 $564 $559 $557 $611 forward $543 $-1 #
edge $-1 $561 -58.672444837794117 $566 58.672444837794117 $557 $653 forward 7 unknown #
coedge $-1 $559 $564 $606 $651 forward $543 $-1 #
vertex $-1 $560 $654 #
straight-curve $-1 -58.672444837794117 0 -17.82637424706968 0 1 0 I I #
point $-1 -58.672444837794117 39.368929362656345 -17.82637424706968 #
straight-curve $-1 58.672444837794117 0 -17.82637424706968 0 -1 0 I I #
point $-1 58.672444837794117 39.368929362656345 -17.82637424706968 #
face $-1 $601 $655 $15 $-1 $656 reversed single #
loop $-1 $-1 $625 $568 #
plane-surface $-1 0 -39.368929362656345 0 0 1 0 0 0 1 forward_v I I I I #
coedge $-1 $571 $632 $572 $624 forward $510 $-1 #
edge $-1 $584 -5.1562495055145678 $628 4.4793608597782555 $581 $657 forward 7 unknown #
coedge $-1 $573 $572 $643 $658 reversed $444 $-1 #
edge $-1 $659 -58.672444837794117 $628 58.672444837794117 $621 $660 forward 7 unknown #
coedge $-1 $661 $662 $573 $626 forward $619 $-1 #
edge $-1 $629 -58.672444837794117 $663 58.672444837794117 $625 $664 forward 7 unknown #
coedge $-1 $647 $574 $662 $665 forward $569 $-1 #
vertex $-1 $575 $666 #
vertex $-1 $665 $667 #
straight-curve $-1 58.672444837794117 -16.346348663512877 -4.1409165369100993 0 -1 0 I I #
straight-curve $-1 0 -39.368929362656345 5.494693828382724 1 0 0 I I #
coedge $-1 $621 $579 $591 $644 reversed $510 $-1 #
vertex $-1 $592 $668 #
straight-curve $-1 0 -26.016465291395168 5.494693828382724 -1 0 0 I I #
point $-1 58.672444837794117 -39.368929362656345 5.494693828382724 #
point $-1 58.672444837794117 -26.016465291395168 5.494693828382724 #
coedge $-1 $669 $586 $597 $648 forward $595 $-1 #
coedge $-1 $586 $669 $588 $641 reversed $595 $-1 #
straight-curve $-1 0 39.368929362656345 17.82637424706968 -1 0 0 I I #
coedge $-1 $670 $588 $671 $672 reversed $381 $-1 #
edge $-1 $589 -17.82637424706968 $673 17.82637424706968 $638 $674 forward 7 unknown #
point $-1 -58.672444837794117 39.368929362656345 17.82637424706968 #
coedge $-1 $591 $670 $623 $658 forward $381 $-1 #
edge $-1 $659 -4.4793608597782555 $633 5.1562495055145678 $591 $675 forward 7 unknown #
straight-curve $-1 -58.672444837794117 -16.346348663512877 5.494693828382724 0 -1 0 I I #
point $-1 -58.672444837794117 -39.368929362656345 5.494693828382724 #
coedge $-1 $597 $627 $676 $677 reversed $569 $-1 #
edge $-1 $598 -17.82637424706968 $678 17.82637424706968 $597 $679 forward 7 unknown #
point $-1 58.672444837794117 39.368929362656345 17.82637424706968 #
straight-curve $-1 58.672444837794117 -39.368929362656345 0 0 0 -1 I I #
edge $-1 $609 -58.672444837794117 $613 58.672444837794117 $606 $680 forward 7 unknown #
point $-1 58.672444837794117 -39.368929362656345 -17.82637424706968 #
straight-curve $-1 0 39.368929362656345 -17.82637424706968 1 0 0 I I #
point $-1 -58.672444837794117 -39.368929362656345 -17.82637424706968 #
loop $-1 $-1 $676 $618 #
plane-surface $-1 0 0 -17.82637424706968 0 0 1 1 0 0 forward_v I I I I #
straight-curve $-1 58.672444837794117 -26.016465291395168 0.33844432286815618 0 0 -1 I I #
edge $-1 $663 -23.022580699143468 $659 -9.6701166278822903 $643 $681 forward 7 unknown #
vertex $-1 $658 $682 #
straight-curve $-1 0 -26.016465291395168 -4.1409165369100993 1 0 0 I I #
coedge $-1 $683 $625 $670 $684 forward $619 $-1 #
coedge $-1 $625 $683 $627 $665 reversed $619 $-1 #
vertex $-1 $684 $685 #
straight-curve $-1 0 -39.368929362656345 -4.1409165369100993 -1 0 0 I I #
edge $-1 $629 4.1409165369100993 $686 17.82637424706968 $627 $650 forward 7 unknown #
point $-1 58.672444837794117 -26.016465291395168 -4.1409165369100993 #
point $-1 58.672444837794117 -39.368929362656345 -4.1409165369100993 #
point $-1 -58.672444837794117 -26.016465291395168 5.494693828382724 #
coedge $-1 $638 $637 $687 $688 reversed $595 $-1 #
coedge $-1 $643 $640 $661 $684 reversed $381 $-1 #
coedge $-1 $687 $689 $640 $672 forward $655 $-1 #
edge $-1 $690 -39.368929362656345 $673 39.368929362656345 $640 $691 forward 7 unknown #
vertex $-1 $688 $692 #
straight-curve $-1 -58.672444837794117 39.368929362656345 0 0 0 -1 I I #
straight-curve $-1 -58.672444837794117 -26.016465291395168 0.33844432286815618 0 0 1 I I #
coedge $-1 $689 $687 $647 $677 forward $655 $-1 #
edge $-1 $678 -39.368929362656345 $686 39.368929362656345 $647 $693 forward 7 unknown #
vertex $-1 $677 $694 #
straight-curve $-1 58.672444837794117 39.368929362656345 0 0 0 -1 I I #
straight-curve $-1 0 -39.368929362656345 -17.82637424706968 -1 0 0 I I #
straight-curve $-1 -58.672444837794117 -16.346348663512877 -4.1409165369100993 0 1 0 I I #
point $-1 -58.672444837794117 -26.016465291395168 -4.1409165369100993 #
coedge $-1 $662 $661 $689 $695 reversed $619 $-1 #
edge $-1 $663 4.1409165369100993 $690 17.82637424706968 $670 $594 forward 7 unknown #
point $-1 -58.672444837794117 -39.368929362656345 -4.1409165369100993 #
vertex $-1 $665 $696 #
coedge $-1 $676 $671 $669 $688 forward $655 $-1 #
edge $-1 $673 -58.672444837794117 $678 58.672444837794117 $669 $697 forward 7 unknown #
coedge $-1 $671 $676 $683 $695 forward $655 $-1 #
vertex $-1 $672 $698 #
straight-curve $-1 -58.672444837794117 0 -17.82637424706968 0 1 0 I I #
point $-1 -58.672444837794117 39.368929362656345 -17.82637424706968 #
straight-curve $-1 58.672444837794117 0 -17.82637424706968 0 -1 0 I I #
point $-1 58.672444837794117 39.368929362656345 -17.82637424706968 #
edge $-1 $686 -58.672444837794117 $690 58.672444837794117 $683 $699 forward 7 unknown #
point $-1 58.672444837794117 -39.368929362656345 -17.82637424706968 #
straight-curve $-1 0 39.368929362656345 -17.82637424706968 1 0 0 I I #
point $-1 -58.672444837794117 -39.368929362656345 -17.82637424706968 #
straight-curve $-1 0 -39.368929362656345 -17.82637424706968 -1 0 0 I I #
End-of-ACIS-data 