500 0 14 0           
7 Unknown 11 ACIS 5.0 NT 24 Fri Mar 26 03:08:36 1999 
-1 9.9999999999999995e-007 1e-010 
body $-1 $14 $-1 $15 #
body $-1 $16 $-1 $17 #
body $-1 $18 $-1 $19 #
body $-1 $20 $-1 $21 #
body $-1 $22 $-1 $23 #
body $-1 $24 $-1 $25 #
body $-1 $26 $-1 $27 #
body $-1 $28 $-1 $29 #
body $-1 $30 $-1 $31 #
body $-1 $32 $-1 $33 #
body $-1 $34 $-1 $35 #
body $-1 $36 $-1 $37 #
body $-1 $38 $-1 $39 #
body $-1 $40 $-1 $41 #
lump $-1 $-1 $42 $0 #
transform $-1 1 0 0 0 1 0 0 0 1 53.436689352092046 21.884955598567757 8.4961742966478688 1 rotate no_reflect no_shear #
lump $-1 $-1 $43 $1 #
transform $-1 1 0 0 0 1 0 0 0 1 53.436689352092046 21.884955598567757 8.4961742966478688 1 rotate no_reflect no_shear #
lump $-1 $-1 $44 $2 #
transform $-1 1 0 0 0 1 0 0 0 1 53.436689352092046 21.884955598567757 8.4961742966478688 1 rotate no_reflect no_shear #
lump $-1 $-1 $45 $3 #
transform $-1 1 0 0 0 1 0 0 0 1 53.436689352092046 21.884955598567757 8.4961742966478688 1 rotate no_reflect no_shear #
lump $-1 $-1 $46 $4 #
transform $-1 1 0 0 0 1 0 0 0 1 53.436689352092046 21.884955598567757 8.4961742966478688 1 rotate no_reflect no_shear #
lump $-1 $-1 $47 $5 #
transform $-1 1 0 0 0 1 0 0 0 1 53.436689352092046 21.884955598567757 8.4961742966478688 1 rotate no_reflect no_shear #
lump $-1 $-1 $48 $6 #
transform $-1 1 0 0 0 1 0 0 0 1 53.436689352092046 21.884955598567757 8.4961742966478688 1 rotate no_reflect no_shear #
lump $-1 $-1 $49 $7 #
transform $-1 1 0 0 0 1 0 0 0 1 53.436689352092046 21.884955598567757 8.4961742966478688 1 rotate no_reflect no_shear #
lump $-1 $-1 $50 $8 #
transform $-1 1 0 0 0 1 0 0 0 1 53.436689352092046 21.884955598567757 8.4961742966478688 1 rotate no_reflect no_shear #
lump $-1 $-1 $51 $9 #
transform $-1 1 0 0 0 1 0 0 0 1 53.436689352092046 21.884955598567757 8.4961742966478688 1 rotate no_reflect no_shear #
lump $-1 $-1 $52 $10 #
transform $-1 1 0 0 0 1 0 0 0 1 53.436689352092046 21.884955598567757 8.4961742966478688 1 rotate no_reflect no_shear #
lump $-1 $-1 $53 $11 #
transform $-1 1 0 0 0 1 0 0 0 1 53.436689352092046 21.884955598567757 8.4961742966478688 1 rotate no_reflect no_shear #
lump $-1 $-1 $54 $12 #
transform $-1 1 0 0 0 1 0 0 0 1 53.436689352092046 21.884955598567757 8.4961742966478688 1 rotate no_reflect no_shear #
lump $-1 $-1 $55 $13 #
transform $-1 1 0 0 0 1 0 0 0 1 53.436689352092046 21.884955598567757 8.4961742966478688 1 rotate no_reflect no_shear #
shell $-1 $-1 $-1 $56 $-1 $14 #
shell $-1 $-1 $-1 $57 $-1 $16 #
shell $-1 $-1 $-1 $58 $-1 $18 #
shell $-1 $-1 $-1 $59 $-1 $20 #
shell $-1 $-1 $-1 $60 $-1 $22 #
shell $-1 $-1 $-1 $61 $-1 $24 #
shell $-1 $-1 $-1 $62 $-1 $26 #
shell $-1 $-1 $-1 $63 $-1 $28 #
shell $-1 $-1 $-1 $64 $-1 $30 #
shell $-1 $-1 $-1 $65 $-1 $32 #
shell $-1 $-1 $-1 $66 $-1 $34 #
shell $-1 $-1 $-1 $67 $-1 $36 #
shell $-1 $-1 $-1 $68 $-1 $38 #
shell $-1 $-1 $-1 $69 $-1 $40 #
face $-1 $70 $71 $42 $-1 $72 forward single #
face $-1 $73 $74 $43 $-1 $75 forward single #
face $-1 $76 $77 $44 $-1 $78 reversed single #
face $-1 $79 $80 $45 $-1 $81 forward single #
face $-1 $82 $83 $46 $-1 $84 forward single #
face $-1 $85 $86 $47 $-1 $87 forward single #
face $-1 $88 $89 $48 $-1 $90 reversed single #
face $-1 $91 $92 $49 $-1 $93 forward single #
face $-1 $94 $95 $50 $-1 $96 forward single #
face $-1 $97 $98 $51 $-1 $99 forward single #
face $-1 $100 $101 $52 $-1 $102 reversed single #
face $-1 $103 $104 $53 $-1 $105 forward single #
face $-1 $106 $107 $54 $-1 $108 forward single #
face $-1 $109 $110 $55 $-1 $111 forward single #
face $-1 $112 $113 $42 $-1 $114 reversed single #
loop $-1 $-1 $115 $56 #
plane-surface $-1 0 0 8.4961742966478688 0 0 1 1 0 0 forward_v I I I I #
face $-1 $116 $117 $43 $-1 $118 reversed single #
loop $-1 $-1 $119 $57 #
plane-surface $-1 0 -16.5393121862048 0.10109886497155429 0 0 1 1 0 0 forward_v I I I I #
face $-1 $120 $121 $44 $-1 $122 reversed single #
loop $-1 $-1 $123 $58 #
plane-surface $-1 61.346840889417322 -8.5466150714189055 152.187292296994 0 1 0 0.74314483375859142 0 0.66913059716165679 forward_v I I I I #
face $-1 $124 $125 $45 $-1 $126 forward single #
loop $-1 $127 $128 $59 #
cone-surface $-1 49.486873397954525 -7.2935555357912278 4.2542433553563708 -0.74314483375859142 0 -0.66913059716165679 0.3345652985808284 0 -0.37157241687929571 1 I I 0 1 0.5 forward I I I I #
face $-1 $129 $130 $46 $-1 $131 forward single #
loop $-1 $132 $133 $60 #
cone-surface $-1 49.486873397954525 -5.4139662323497113 4.2542433553563708 -0.74314483375859142 0 -0.66913059716165679 0.3345652985808284 0 -0.37157241687929571 1 I I 0 1 0.5 forward I I I I #
face $-1 $134 $135 $47 $-1 $136 forward single #
loop $-1 $137 $138 $61 #
cone-surface $-1 49.486873397954525 -3.5343769289081948 4.2542433553563708 -0.74314483375859142 0 -0.66913059716165679 0.3345652985808284 0 -0.37157241687929571 1 I I 0 1 0.5 forward I I I I #
face $-1 $139 $140 $48 $-1 $141 reversed single #
loop $-1 $-1 $142 $62 #
plane-surface $-1 61.346840889417322 2.4795930527176289 152.187292296994 0 1 0 0.74314483375859142 0 0.66913059716165679 forward_v I I I I #
face $-1 $143 $144 $49 $-1 $145 forward single #
loop $-1 $146 $147 $63 #
cone-surface $-1 49.486873397954525 3.732652588345303 4.2542433553563708 -0.74314483375859142 0 -0.66913059716165679 0.3345652985808284 0 -0.37157241687929571 1 I I 0 1 0.5 forward I I I I #
face $-1 $148 $149 $50 $-1 $150 forward single #
loop $-1 $151 $152 $64 #
cone-surface $-1 49.486873397954525 5.6122418917868231 4.2542433553563708 -0.74314483375859142 0 -0.66913059716165679 0.3345652985808284 0 -0.37157241687929571 1 I I 0 1 0.5 forward I I I I #
face $-1 $153 $154 $51 $-1 $155 forward single #
loop $-1 $156 $157 $65 #
cone-surface $-1 49.486873397954525 7.4918311952283361 4.2542433553563708 -0.74314483375859142 0 -0.66913059716165679 0.3345652985808284 0 -0.37157241687929571 1 I I 0 1 0.5 forward I I I I #
face $-1 $158 $159 $52 $-1 $160 reversed single #
loop $-1 $-1 $161 $66 #
plane-surface $-1 61.346840889417322 13.50580117685416 152.187292296994 0 1 0 0.74314483375859142 0 0.66913059716165679 forward_v I I I I #
face $-1 $162 $163 $53 $-1 $164 forward single #
loop $-1 $165 $166 $67 #
cone-surface $-1 49.486873397954525 14.758860712481834 4.2542433553563708 -0.74314483375859142 0 -0.66913059716165679 0.3345652985808284 0 -0.37157241687929571 1 I I 0 1 0.5 forward I I I I #
face $-1 $167 $168 $54 $-1 $169 forward single #
loop $-1 $170 $171 $68 #
cone-surface $-1 49.486873397954525 16.638450015923354 4.2542433553563708 -0.74314483375859142 0 -0.66913059716165679 0.3345652985808284 0 -0.37157241687929571 1 I I 0 1 0.5 forward I I I I #
face $-1 $172 $173 $55 $-1 $174 forward single #
loop $-1 $175 $176 $69 #
cone-surface $-1 49.486873397954525 18.518039319364867 4.2542433553563708 -0.74314483375859142 0 -0.66913059716165679 0.3345652985808284 0 -0.37157241687929571 1 I I 0 1 0.5 forward I I I I #
face $-1 $177 $178 $42 $-1 $179 reversed single #
loop $-1 $-1 $180 $70 #
plane-surface $-1 0 0 -8.4961742966478688 0 0 1 1 0 0 forward_v I I I I #
coedge $-1 $181 $182 $183 $184 forward $71 $-1 #
face $-1 $185 $186 $43 $-1 $187 reversed single #
loop $-1 $-1 $188 $73 #
plane-surface $-1 0 -16.5393121862048 -4.2832454809258067 0 0 1 1 0 0 forward_v I I I I #
coedge $-1 $189 $190 $191 $192 reversed $74 $-1 #
face $-1 $193 $194 $44 $-1 $195 reversed single #
loop $-1 $-1 $196 $76 #
plane-surface $-1 -18.075558360922543 -5.4139662323497113 80.675044583979414 0.74314483375859142 0 0.66913059716165679 0.66913059716165679 0 -0.74314483375859142 forward_v I I I I #
coedge $-1 $197 $198 $199 $200 reversed $77 $-1 #
face $-1 $-1 $201 $45 $-1 $202 forward single #
loop $-1 $203 $204 $79 #
cone-surface $-1 48.612322540855459 -7.2935555357912278 3.4667942462786208 -0.74314483375859142 0 -0.66913059716165679 0.1672826492904142 0 -0.18578620843964785 1 I I -0.70710678118654746 0.70710678118654746 0.25 forward I I I I #
loop $-1 $-1 $205 $59 #
coedge $-1 $128 $128 $206 $207 reversed $80 $-1 #
face $-1 $-1 $208 $46 $-1 $209 forward single #
loop $-1 $210 $211 $82 #
cone-surface $-1 48.612322540855459 -5.4139662323497113 3.4667942462786208 -0.74314483375859142 0 -0.66913059716165679 0.1672826492904142 0 -0.18578620843964785 1 I I -0.70710678118654746 0.70710678118654746 0.25 forward I I I I #
loop $-1 $-1 $212 $60 #
coedge $-1 $133 $133 $213 $214 reversed $83 $-1 #
face $-1 $-1 $215 $47 $-1 $216 forward single #
loop $-1 $217 $218 $85 #
cone-surface $-1 48.612322540855459 -3.5343769289081948 3.4667942462786208 -0.74314483375859142 0 -0.66913059716165679 0.1672826492904142 0 -0.18578620843964785 1 I I -0.70710678118654746 0.70710678118654746 0.25 forward I I I I #
loop $-1 $-1 $219 $61 #
coedge $-1 $138 $138 $220 $221 reversed $86 $-1 #
face $-1 $222 $223 $48 $-1 $224 reversed single #
loop $-1 $-1 $225 $88 #
plane-surface $-1 -18.075558360922543 5.6122418917868231 80.675044583979414 0.74314483375859142 0 0.66913059716165679 0.66913059716165679 0 -0.74314483375859142 forward_v I I I I #
coedge $-1 $226 $227 $228 $229 reversed $89 $-1 #
face $-1 $-1 $230 $49 $-1 $231 forward single #
loop $-1 $232 $233 $91 #
cone-surface $-1 48.612322540855459 3.732652588345303 3.4667942462786208 -0.74314483375859142 0 -0.66913059716165679 0.1672826492904142 0 -0.18578620843964785 1 I I -0.70710678118654746 0.70710678118654746 0.25 forward I I I I #
loop $-1 $-1 $234 $63 #
coedge $-1 $147 $147 $235 $236 reversed $92 $-1 #
face $-1 $-1 $237 $50 $-1 $238 forward single #
loop $-1 $239 $240 $94 #
cone-surface $-1 48.612322540855459 5.6122418917868231 3.4667942462786208 -0.74314483375859142 0 -0.66913059716165679 0.1672826492904142 0 -0.18578620843964785 1 I I -0.70710678118654746 0.70710678118654746 0.25 forward I I I I #
loop $-1 $-1 $241 $64 #
coedge $-1 $152 $152 $242 $243 reversed $95 $-1 #
face $-1 $-1 $244 $51 $-1 $245 forward single #
loop $-1 $246 $247 $97 #
cone-surface $-1 48.612322540855459 7.4918311952283361 3.4667942462786208 -0.74314483375859142 0 -0.66913059716165679 0.1672826492904142 0 -0.18578620843964785 1 I I -0.70710678118654746 0.70710678118654746 0.25 forward I I I I #
loop $-1 $-1 $248 $65 #
coedge $-1 $157 $157 $249 $250 reversed $98 $-1 #
face $-1 $251 $252 $52 $-1 $253 reversed single #
loop $-1 $-1 $254 $100 #
plane-surface $-1 -18.075558360922543 16.638450015923354 80.675044583979414 0.74314483375859142 0 0.66913059716165679 0.66913059716165679 0 -0.74314483375859142 forward_v I I I I #
coedge $-1 $255 $256 $257 $258 reversed $101 $-1 #
face $-1 $-1 $259 $53 $-1 $260 forward single #
loop $-1 $261 $262 $103 #
cone-surface $-1 48.612322540855459 14.758860712481834 3.4667942462786208 -0.74314483375859142 0 -0.66913059716165679 0.1672826492904142 0 -0.18578620843964785 1 I I -0.70710678118654746 0.70710678118654746 0.25 forward I I I I #
loop $-1 $-1 $263 $67 #
coedge $-1 $166 $166 $264 $265 reversed $104 $-1 #
face $-1 $-1 $266 $54 $-1 $267 forward single #
loop $-1 $268 $269 $106 #
cone-surface $-1 48.612322540855459 16.638450015923354 3.4667942462786208 -0.74314483375859142 0 -0.66913059716165679 0.1672826492904142 0 -0.18578620843964785 1 I I -0.70710678118654746 0.70710678118654746 0.25 forward I I I I #
loop $-1 $-1 $270 $68 #
coedge $-1 $171 $171 $271 $272 reversed $107 $-1 #
face $-1 $-1 $273 $55 $-1 $274 forward single #
loop $-1 $275 $276 $109 #
cone-surface $-1 48.612322540855459 18.518039319364867 3.4667942462786208 -0.74314483375859142 0 -0.66913059716165679 0.1672826492904142 0 -0.18578620843964785 1 I I -0.70710678118654746 0.70710678118654746 0.25 forward I I I I #
loop $-1 $-1 $277 $69 #
coedge $-1 $176 $176 $278 $279 reversed $110 $-1 #
face $-1 $280 $281 $42 $-1 $282 reversed single #
loop $-1 $-1 $283 $112 #
plane-surface $-1 0 -21.884955598567757 0 0 1 0 0 0 1 forward_v I I I I #
coedge $-1 $284 $285 $286 $287 forward $113 $-1 #
coedge $-1 $288 $115 $289 $290 forward $71 $-1 #
coedge $-1 $115 $288 $291 $292 forward $71 $-1 #
coedge $-1 $293 $294 $115 $184 reversed $295 $-1 #
edge $-1 $296 -21.884955598567757 $297 21.884955598567757 $183 $298 forward 7 unknown #
face $-1 $299 $300 $43 $-1 $301 reversed single #
loop $-1 $-1 $302 $116 #
plane-surface $-1 0 -11.193668773841843 -2.0910733079771262 0 -1 0 0 0 -1 forward_v I I I I #
coedge $-1 $303 $304 $305 $306 reversed $117 $-1 #
coedge $-1 $307 $119 $308 $309 forward $74 $-1 #
coedge $-1 $119 $307 $310 $311 reversed $74 $-1 #
coedge $-1 $312 $313 $119 $192 forward $314 $-1 #
edge $-1 $315 2.9240126807394429 $316 13.615299505465357 $191 $317 forward 7 unknown #
face $-1 $318 $319 $44 $-1 $320 forward single #
loop $-1 $-1 $321 $120 #
plane-surface $-1 61.346840889417322 -2.2813173932805171 152.187292296994 0 -1 0 -0.74314483375859142 0 -0.66913059716165679 forward_v I I I I #
coedge $-1 $322 $323 $324 $325 reversed $121 $-1 #
coedge $-1 $198 $123 $326 $327 reversed $77 $-1 #
coedge $-1 $123 $197 $322 $328 reversed $77 $-1 #
coedge $-1 $324 $329 $123 $200 forward $330 $-1 #
edge $-1 $331 67.597471851849136 $332 74.841000814857452 $199 $333 forward 7 unknown #
loop $-1 $-1 $206 $124 #
plane-surface $-1 -18.075558360922543 -5.4139662323497113 80.675044583979414 0.74314483375859142 0 0.66913059716165679 0.66913059716165679 0 -0.74314483375859142 forward_v I I I I #
loop $-1 $-1 $334 $79 #
coedge $-1 $204 $204 $205 $335 reversed $125 $-1 #
coedge $-1 $205 $205 $204 $335 forward $127 $-1 #
coedge $-1 $206 $206 $128 $207 forward $201 $-1 #
edge $-1 $336 0 $336 6.2831853071796004 $206 $337 forward 7 unknown #
loop $-1 $-1 $213 $129 #
plane-surface $-1 -18.075558360922543 -5.4139662323497113 80.675044583979414 0.74314483375859142 0 0.66913059716165679 0.66913059716165679 0 -0.74314483375859142 forward_v I I I I #
loop $-1 $-1 $338 $82 #
coedge $-1 $211 $211 $212 $339 reversed $130 $-1 #
coedge $-1 $212 $212 $211 $339 forward $132 $-1 #
coedge $-1 $213 $213 $133 $214 forward $208 $-1 #
edge $-1 $340 0 $340 6.2831853071796004 $213 $341 forward 7 unknown #
loop $-1 $-1 $220 $134 #
plane-surface $-1 -18.075558360922543 -5.4139662323497113 80.675044583979414 0.74314483375859142 0 0.66913059716165679 0.66913059716165679 0 -0.74314483375859142 forward_v I I I I #
loop $-1 $-1 $342 $85 #
coedge $-1 $218 $218 $219 $343 reversed $135 $-1 #
coedge $-1 $219 $219 $218 $343 forward $137 $-1 #
coedge $-1 $220 $220 $138 $221 forward $215 $-1 #
edge $-1 $344 0 $344 6.2831853071796004 $220 $345 forward 7 unknown #
face $-1 $346 $347 $48 $-1 $348 reversed single #
loop $-1 $-1 $349 $139 #
plane-surface $-1 61.346840889417322 8.7448907308560173 152.187292296994 0 -1 0 -0.74314483375859142 0 -0.66913059716165679 forward_v I I I I #
coedge $-1 $350 $351 $352 $353 reversed $140 $-1 #
coedge $-1 $227 $142 $354 $355 reversed $89 $-1 #
coedge $-1 $142 $226 $350 $356 reversed $89 $-1 #
coedge $-1 $352 $357 $142 $229 forward $347 $-1 #
edge $-1 $358 67.597471851849136 $359 74.841000814857452 $228 $360 forward 7 unknown #
loop $-1 $-1 $235 $143 #
plane-surface $-1 -18.075558360922543 5.6122418917868231 80.675044583979414 0.74314483375859142 0 0.66913059716165679 0.66913059716165679 0 -0.74314483375859142 forward_v I I I I #
loop $-1 $-1 $361 $91 #
coedge $-1 $233 $233 $234 $362 reversed $144 $-1 #
coedge $-1 $234 $234 $233 $362 forward $146 $-1 #
coedge $-1 $235 $235 $147 $236 forward $230 $-1 #
edge $-1 $363 0 $363 6.2831853071796004 $235 $364 forward 7 unknown #
loop $-1 $-1 $242 $148 #
plane-surface $-1 -18.075558360922543 5.6122418917868231 80.675044583979414 0.74314483375859142 0 0.66913059716165679 0.66913059716165679 0 -0.74314483375859142 forward_v I I I I #
loop $-1 $-1 $365 $94 #
coedge $-1 $240 $240 $241 $366 reversed $149 $-1 #
coedge $-1 $241 $241 $240 $366 forward $151 $-1 #
coedge $-1 $242 $242 $152 $243 forward $237 $-1 #
edge $-1 $367 0 $367 6.2831853071796004 $242 $368 forward 7 unknown #
loop $-1 $-1 $249 $153 #
plane-surface $-1 -18.075558360922543 5.6122418917868231 80.675044583979414 0.74314483375859142 0 0.66913059716165679 0.66913059716165679 0 -0.74314483375859142 forward_v I I I I #
loop $-1 $-1 $369 $97 #
coedge $-1 $247 $247 $248 $370 reversed $154 $-1 #
coedge $-1 $248 $248 $247 $370 forward $156 $-1 #
coedge $-1 $249 $249 $157 $250 forward $244 $-1 #
edge $-1 $371 0 $371 6.2831853071796004 $249 $372 forward 7 unknown #
face $-1 $373 $374 $52 $-1 $375 reversed single #
loop $-1 $-1 $376 $158 #
plane-surface $-1 61.346840889417322 19.771098854992548 152.187292296994 0 -1 0 -0.74314483375859142 0 -0.66913059716165679 forward_v I I I I #
coedge $-1 $377 $378 $379 $380 reversed $159 $-1 #
coedge $-1 $256 $161 $381 $382 reversed $101 $-1 #
coedge $-1 $161 $255 $377 $383 reversed $101 $-1 #
coedge $-1 $379 $384 $161 $258 forward $374 $-1 #
edge $-1 $385 67.597471851849136 $386 74.841000814857452 $257 $387 forward 7 unknown #
loop $-1 $-1 $264 $162 #
plane-surface $-1 -18.075558360922543 16.638450015923354 80.675044583979414 0.74314483375859142 0 0.66913059716165679 0.66913059716165679 0 -0.74314483375859142 forward_v I I I I #
loop $-1 $-1 $388 $103 #
coedge $-1 $262 $262 $263 $389 reversed $163 $-1 #
coedge $-1 $263 $263 $262 $389 forward $165 $-1 #
coedge $-1 $264 $264 $166 $265 forward $259 $-1 #
edge $-1 $390 0 $390 6.2831853071796004 $264 $391 forward 7 unknown #
loop $-1 $-1 $271 $167 #
plane-surface $-1 -18.075558360922543 16.638450015923354 80.675044583979414 0.74314483375859142 0 0.66913059716165679 0.66913059716165679 0 -0.74314483375859142 forward_v I I I I #
loop $-1 $-1 $392 $106 #
coedge $-1 $269 $269 $270 $393 reversed $168 $-1 #
coedge $-1 $270 $270 $269 $393 forward $170 $-1 #
coedge $-1 $271 $271 $171 $272 forward $266 $-1 #
edge $-1 $394 0 $394 6.2831853071796004 $271 $395 forward 7 unknown #
loop $-1 $-1 $278 $172 #
plane-surface $-1 -18.075558360922543 16.638450015923354 80.675044583979414 0.74314483375859142 0 0.66913059716165679 0.66913059716165679 0 -0.74314483375859142 forward_v I I I I #
loop $-1 $-1 $396 $109 #
coedge $-1 $276 $276 $277 $397 reversed $173 $-1 #
coedge $-1 $277 $277 $276 $397 forward $175 $-1 #
coedge $-1 $278 $278 $176 $279 forward $273 $-1 #
edge $-1 $398 0 $398 6.2831853071796004 $278 $399 forward 7 unknown #
face $-1 $400 $401 $42 $-1 $402 reversed single #
loop $-1 $-1 $403 $177 #
plane-surface $-1 -53.436689352092046 0 0 1 0 0 0 0 -1 forward_v I I I I #
coedge $-1 $404 $291 $405 $406 forward $178 $-1 #
coedge $-1 $407 $180 $404 $408 forward $113 $-1 #
coedge $-1 $180 $407 $409 $410 forward $113 $-1 #
coedge $-1 $294 $293 $180 $287 reversed $295 $-1 #
edge $-1 $411 -21.884955598567757 $412 21.884955598567757 $286 $413 forward 7 unknown #
coedge $-1 $182 $181 $414 $415 forward $71 $-1 #
coedge $-1 $416 $417 $181 $290 reversed $401 $-1 #
edge $-1 $297 -53.436689352092046 $418 53.436689352092046 $289 $419 forward 7 unknown #
coedge $-1 $283 $420 $182 $292 reversed $178 $-1 #
edge $-1 $421 -53.436689352092046 $296 53.436689352092046 $291 $422 forward 7 unknown #
coedge $-1 $286 $183 $420 $423 forward $295 $-1 #
coedge $-1 $183 $286 $416 $424 reversed $295 $-1 #
loop $-1 $-1 $293 $400 #
vertex $-1 $184 $425 #
vertex $-1 $184 $426 #
straight-curve $-1 53.436689352092046 0 8.4961742966478688 0 1 0 I I #
face $-1 $427 $428 $43 $-1 $429 reversed single #
loop $-1 $-1 $430 $185 #
plane-surface $-1 -53.436689352092046 0 0 1 0 0 0 0 -1 forward_v I I I I #
coedge $-1 $431 $308 $313 $432 reversed $186 $-1 #
coedge $-1 $433 $188 $434 $435 reversed $117 $-1 #
coedge $-1 $188 $433 $431 $436 forward $117 $-1 #
coedge $-1 $313 $312 $188 $306 forward $314 $-1 #
edge $-1 $437 -13.615299505465357 $438 -2.9240126807394429 $305 $439 forward 7 unknown #
coedge $-1 $190 $189 $430 $440 reversed $74 $-1 #
coedge $-1 $302 $441 $189 $309 reversed $186 $-1 #
edge $-1 $315 -53.436689352092046 $442 53.436689352092046 $308 $443 forward 7 unknown #
coedge $-1 $444 $445 $190 $311 forward $428 $-1 #
edge $-1 $316 -53.436689352092046 $446 53.436689352092046 $310 $447 forward 7 unknown #
coedge $-1 $305 $191 $445 $448 forward $314 $-1 #
coedge $-1 $191 $305 $302 $432 forward $314 $-1 #
loop $-1 $-1 $191 $427 #
vertex $-1 $192 $449 #
vertex $-1 $448 $450 #
straight-curve $-1 53.436689352092046 -8.2696560931023999 0.10109886497155429 0 -1 0 I I #
face $-1 $-1 $330 $44 $-1 $451 reversed single #
loop $-1 $-1 $452 $193 #
plane-surface $-1 0 0 8.4961742966478688 0 0 1 1 0 0 forward_v I I I I #
coedge $-1 $453 $454 $455 $456 reversed $194 $-1 #
coedge $-1 $457 $196 $198 $328 forward $121 $-1 #
coedge $-1 $196 $457 $453 $458 forward $121 $-1 #
coedge $-1 $455 $199 $196 $325 forward $330 $-1 #
edge $-1 $332 -5.8396319552440499 $459 0.42566572289433857 $324 $460 forward 7 unknown #
coedge $-1 $461 $462 $197 $327 forward $319 $-1 #
edge $-1 $463 16.241166296427203 $331 22.763268907383384 $326 $464 forward 7 unknown #
edge $-1 $332 -106.87337870418406 $463 -97.126249162324996 $198 $465 forward 7 unknown #
coedge $-1 $199 $455 $461 $466 reversed $330 $-1 #
loop $-1 $-1 $455 $318 #
vertex $-1 $466 $467 #
vertex $-1 $200 $468 #
straight-curve $-1 53.436689352092046 -8.5466150714189055 76.093646148497001 0 0 -1 I I #
coedge $-1 $334 $334 $-1 $469 reversed $203 $-1 #
edge $-1 $470 0 $470 6.2831853071796004 $204 $471 forward 7 unknown #
vertex $-1 $207 $472 #
ellipse-curve $-1 50.175638046613948 -7.2935555357912278 4.8744098151437134 0.74314483375859142 0 0.66913059716165679 0.3345652985808284 0 -0.37157241687929571 1 I I #
coedge $-1 $338 $338 $-1 $473 reversed $210 $-1 #
edge $-1 $474 0 $474 6.2831853071796004 $211 $475 forward 7 unknown #
vertex $-1 $214 $476 #
ellipse-curve $-1 50.175638046613948 -5.4139662323497113 4.8744098151437134 0.74314483375859142 0 0.66913059716165679 0.3345652985808284 0 -0.37157241687929571 1 I I #
coedge $-1 $342 $342 $-1 $477 reversed $217 $-1 #
edge $-1 $478 0 $478 6.2831853071796004 $218 $479 forward 7 unknown #
vertex $-1 $221 $480 #
ellipse-curve $-1 50.175638046613948 -3.5343769289081948 4.8744098151437134 0.74314483375859142 0 0.66913059716165679 0.3345652985808284 0 -0.37157241687929571 1 I I #
face $-1 $-1 $481 $48 $-1 $482 forward single #
loop $-1 $-1 $228 $222 #
plane-surface $-1 53.436689352092046 0 0 -1 0 0 0 0 1 forward_v I I I I #
coedge $-1 $483 $484 $485 $486 reversed $223 $-1 #
coedge $-1 $487 $225 $227 $356 forward $140 $-1 #
coedge $-1 $225 $487 $483 $488 forward $140 $-1 #
coedge $-1 $485 $228 $225 $353 forward $347 $-1 #
edge $-1 $359 -0.32652789317578268 $489 5.9387697849626058 $352 $490 forward 7 unknown #
coedge $-1 $491 $492 $226 $355 forward $481 $-1 #
edge $-1 $493 16.241166296427203 $358 22.763268907383384 $354 $494 forward 7 unknown #
edge $-1 $359 -106.87337870418406 $493 -97.126249162324996 $227 $495 forward 7 unknown #
coedge $-1 $228 $485 $491 $496 reversed $347 $-1 #
vertex $-1 $496 $497 #
vertex $-1 $229 $498 #
straight-curve $-1 53.436689352092046 2.4795930527176289 76.093646148497001 0 0 -1 I I #
coedge $-1 $361 $361 $-1 $499 reversed $232 $-1 #
edge $-1 $500 0 $500 6.2831853071796004 $233 $501 forward 7 unknown #
vertex $-1 $236 $502 #
ellipse-curve $-1 50.175638046613948 3.732652588345303 4.8744098151437134 0.74314483375859142 0 0.66913059716165679 0.3345652985808284 0 -0.37157241687929571 1 I I #
coedge $-1 $365 $365 $-1 $503 reversed $239 $-1 #
edge $-1 $504 0 $504 6.2831853071796004 $240 $505 forward 7 unknown #
vertex $-1 $243 $506 #
ellipse-curve $-1 50.175638046613948 5.6122418917868231 4.8744098151437134 0.74314483375859142 0 0.66913059716165679 0.3345652985808284 0 -0.37157241687929571 1 I I #
coedge $-1 $369 $369 $-1 $507 reversed $246 $-1 #
edge $-1 $508 0 $508 6.2831853071796004 $247 $509 forward 7 unknown #
vertex $-1 $250 $510 #
ellipse-curve $-1 50.175638046613948 7.4918311952283361 4.8744098151437134 0.74314483375859142 0 0.66913059716165679 0.3345652985808284 0 -0.37157241687929571 1 I I #
face $-1 $-1 $511 $52 $-1 $512 forward single #
loop $-1 $-1 $257 $251 #
plane-surface $-1 53.436689352092046 0 0 -1 0 0 0 0 1 forward_v I I I I #
coedge $-1 $513 $514 $515 $516 reversed $252 $-1 #
coedge $-1 $517 $254 $256 $383 forward $159 $-1 #
coedge $-1 $254 $517 $513 $518 forward $159 $-1 #
coedge $-1 $515 $257 $254 $380 forward $374 $-1 #
edge $-1 $386 5.1865761688924827 $519 11.451873847030871 $379 $520 forward 7 unknown #
coedge $-1 $521 $522 $255 $382 forward $511 $-1 #
edge $-1 $523 16.241166296427203 $385 22.763268907383384 $381 $524 forward 7 unknown #
edge $-1 $386 -106.87337870418406 $523 -97.126249162324996 $256 $525 forward 7 unknown #
coedge $-1 $257 $515 $521 $526 reversed $374 $-1 #
vertex $-1 $526 $527 #
vertex $-1 $258 $528 #
straight-curve $-1 53.436689352092046 13.50580117685416 76.093646148497001 0 0 -1 I I #
coedge $-1 $388 $388 $-1 $529 reversed $261 $-1 #
edge $-1 $530 0 $530 6.2831853071796004 $262 $531 forward 7 unknown #
vertex $-1 $265 $532 #
ellipse-curve $-1 50.175638046613948 14.758860712481834 4.8744098151437134 0.74314483375859142 0 0.66913059716165679 0.3345652985808284 0 -0.37157241687929571 1 I I #
coedge $-1 $392 $392 $-1 $533 reversed $268 $-1 #
edge $-1 $534 0 $534 6.2831853071796004 $269 $535 forward 7 unknown #
vertex $-1 $272 $536 #
ellipse-curve $-1 50.175638046613948 16.638450015923354 4.8744098151437134 0.74314483375859142 0 0.66913059716165679 0.3345652985808284 0 -0.37157241687929571 1 I I #
coedge $-1 $396 $396 $-1 $537 reversed $275 $-1 #
edge $-1 $538 0 $538 6.2831853071796004 $276 $539 forward 7 unknown #
vertex $-1 $279 $540 #
ellipse-curve $-1 50.175638046613948 18.518039319364867 4.8744098151437134 0.74314483375859142 0 0.66913059716165679 0.3345652985808284 0 -0.37157241687929571 1 I I #
face $-1 $-1 $295 $42 $-1 $541 reversed single #
loop $-1 $-1 $416 $280 #
plane-surface $-1 0 21.884955598567757 0 0 -1 0 0 0 -1 forward_v I I I I #
coedge $-1 $542 $414 $417 $543 forward $281 $-1 #
coedge $-1 $420 $283 $284 $408 reversed $178 $-1 #
coedge $-1 $414 $542 $283 $406 reversed $281 $-1 #
edge $-1 $421 -8.4961742966478688 $544 8.4961742966478688 $405 $545 forward 7 unknown #
coedge $-1 $285 $284 $542 $546 forward $113 $-1 #
edge $-1 $412 -53.436689352092046 $544 53.436689352092046 $404 $547 forward 7 unknown #
coedge $-1 $417 $416 $285 $410 reversed $401 $-1 #
edge $-1 $548 -53.436689352092046 $411 53.436689352092046 $409 $549 forward 7 unknown #
vertex $-1 $287 $550 #
vertex $-1 $423 $551 #
straight-curve $-1 53.436689352092046 0 -8.4961742966478688 0 -1 0 I I #
coedge $-1 $403 $405 $288 $415 reversed $281 $-1 #
edge $-1 $418 -21.884955598567757 $421 21.884955598567757 $414 $552 forward 7 unknown #
coedge $-1 $409 $289 $294 $424 forward $401 $-1 #
coedge $-1 $289 $409 $403 $543 reversed $401 $-1 #
vertex $-1 $290 $553 #
straight-curve $-1 0 21.884955598567757 8.4961742966478688 -1 0 0 I I #
coedge $-1 $291 $404 $293 $423 reversed $178 $-1 #
vertex $-1 $415 $554 #
straight-curve $-1 0 -21.884955598567757 8.4961742966478688 1 0 0 I I #
edge $-1 $296 -8.4961742966478688 $412 8.4961742966478688 $293 $555 forward 7 unknown #
edge $-1 $297 -8.4961742966478688 $411 8.4961742966478688 $294 $556 forward 7 unknown #
point $-1 53.436689352092046 -21.884955598567757 8.4961742966478688 #
point $-1 53.436689352092046 21.884955598567757 8.4961742966478688 #
face $-1 $-1 $314 $43 $-1 $557 reversed single #
loop $-1 $-1 $310 $299 #
plane-surface $-1 0 -21.884955598567757 0 0 1 0 0 0 1 forward_v I I I I #
coedge $-1 $558 $559 $307 $440 forward $300 $-1 #
coedge $-1 $441 $302 $304 $436 reversed $186 $-1 #
edge $-1 $438 -3.2377088269372436 $315 1.1466355189601174 $313 $560 forward 7 unknown #
coedge $-1 $304 $303 $561 $562 reversed $117 $-1 #
coedge $-1 $445 $444 $303 $435 forward $428 $-1 #
edge $-1 $563 -53.436689352092046 $437 53.436689352092046 $434 $564 forward 7 unknown #
edge $-1 $565 -53.436689352092046 $438 53.436689352092046 $431 $566 forward 7 unknown #
vertex $-1 $435 $567 #
vertex $-1 $306 $568 #
straight-curve $-1 53.436689352092046 -8.2696560931023999 -4.2832454809258067 0 1 0 I I #
edge $-1 $446 -13.615299505465357 $442 -2.9240126807394429 $430 $569 forward 7 unknown #
coedge $-1 $308 $431 $558 $570 reversed $186 $-1 #
vertex $-1 $440 $571 #
straight-curve $-1 0 -11.193668773841843 0.10109886497155429 -1 0 0 I I #
coedge $-1 $434 $310 $559 $572 forward $428 $-1 #
coedge $-1 $310 $434 $312 $448 reversed $428 $-1 #
vertex $-1 $572 $573 #
straight-curve $-1 0 -21.884955598567757 0.10109886497155429 -1 0 0 I I #
edge $-1 $316 -0.10109886497155429 $437 4.2832454809258067 $312 $574 forward 7 unknown #
point $-1 53.436689352092046 -11.193668773841843 0.10109886497155429 #
point $-1 53.436689352092046 -21.884955598567757 0.10109886497155429 #
plane-surface $-1 53.436689352092046 0 0 -1 0 0 0 0 1 forward_v I I I I #
coedge $-1 $462 $461 $454 $575 forward $319 $-1 #
coedge $-1 $454 $321 $323 $458 reversed $194 $-1 #
coedge $-1 $321 $453 $452 $575 reversed $194 $-1 #
coedge $-1 $329 $324 $321 $456 forward $330 $-1 #
edge $-1 $459 -74.841000814857452 $576 -67.597471851849136 $455 $577 forward 7 unknown #
coedge $-1 $323 $322 $462 $578 reversed $121 $-1 #
edge $-1 $579 97.126249162324996 $459 106.87337870418406 $453 $580 forward 7 unknown #
vertex $-1 $325 $581 #
straight-curve $-1 53.436689352092046 -2.7069831161748557 1.2526453336395562 0 1 0 I I #
coedge $-1 $452 $326 $329 $466 forward $319 $-1 #
coedge $-1 $326 $452 $457 $578 forward $319 $-1 #
vertex $-1 $327 $582 #
straight-curve $-1 30.673420444708661 -8.5466150714189055 8.4961742966478653 1 0 0 I I #
straight-curve $-1 -18.075558360922543 -8.5466150714189055 80.675044583979414 -0.66913059716165679 0 0.74314483375859142 I I #
edge $-1 $331 -8.5466150714189055 $576 -2.2813173932805171 $329 $583 forward 7 unknown #
point $-1 53.436689352092046 -8.5466150714189055 8.4961742966478688 #
point $-1 53.436689352092046 -8.5466150714189055 1.2526453336395491 #
edge $-1 $584 1 $584 0 $334 $-1 forward 7 unknown #
vertex $-1 $335 $585 #
ellipse-curve $-1 48.798108749295103 -7.2935555357912278 3.6340768955690348 0.74314483375859142 0 0.66913059716165679 0.3345652985808284 0 -0.37157241687929571 1 I I #
point $-1 50.510203345194768 -7.2935555357912278 4.5028373982644112 #
edge $-1 $586 1 $586 0 $338 $-1 forward 7 unknown #
vertex $-1 $339 $587 #
ellipse-curve $-1 48.798108749295103 -5.4139662323497113 3.6340768955690348 0.74314483375859142 0 0.66913059716165679 0.3345652985808284 0 -0.37157241687929571 1 I I #
point $-1 50.510203345194768 -5.4139662323497113 4.5028373982644112 #
edge $-1 $588 1 $588 0 $342 $-1 forward 7 unknown #
vertex $-1 $343 $589 #
ellipse-curve $-1 48.798108749295103 -3.5343769289081948 3.6340768955690348 0.74314483375859142 0 0.66913059716165679 0.3345652985808284 0 -0.37157241687929571 1 I I #
point $-1 50.510203345194768 -3.5343769289081948 4.5028373982644112 #
loop $-1 $-1 $354 $346 #
plane-surface $-1 0 0 8.4961742966478688 0 0 1 1 0 0 forward_v I I I I #
coedge $-1 $484 $349 $351 $488 reversed $223 $-1 #
coedge $-1 $349 $483 $590 $591 reversed $223 $-1 #
coedge $-1 $357 $352 $349 $486 forward $347 $-1 #
edge $-1 $489 -74.841000814857452 $592 -67.597471851849136 $485 $593 forward 7 unknown #
coedge $-1 $351 $350 $492 $594 reversed $140 $-1 #
edge $-1 $595 97.126249162324996 $489 106.87337870418406 $483 $596 forward 7 unknown #
vertex $-1 $353 $597 #
straight-curve $-1 53.436689352092046 2.8061209458934115 1.2526453336395562 0 1 0 I I #
coedge $-1 $590 $354 $357 $496 forward $481 $-1 #
coedge $-1 $354 $590 $487 $594 forward $481 $-1 #
vertex $-1 $355 $598 #
straight-curve $-1 30.673420444708661 2.4795930527176289 8.4961742966478653 1 0 0 I I #
straight-curve $-1 -18.075558360922543 2.4795930527176289 80.675044583979414 -0.66913059716165679 0 0.74314483375859142 I I #
edge $-1 $358 2.4795930527176289 $592 8.7448907308560173 $357 $599 forward 7 unknown #
point $-1 53.436689352092046 2.4795930527176289 8.4961742966478688 #
point $-1 53.436689352092046 2.4795930527176289 1.2526453336395491 #
edge $-1 $600 1 $600 0 $361 $-1 forward 7 unknown #
vertex $-1 $362 $601 #
ellipse-curve $-1 48.798108749295103 3.732652588345303 3.6340768955690348 0.74314483375859142 0 0.66913059716165679 0.3345652985808284 0 -0.37157241687929571 1 I I #
point $-1 50.510203345194768 3.732652588345303 4.5028373982644112 #
edge $-1 $602 1 $602 0 $365 $-1 forward 7 unknown #
vertex $-1 $366 $603 #
ellipse-curve $-1 48.798108749295103 5.6122418917868231 3.6340768955690348 0.74314483375859142 0 0.66913059716165679 0.3345652985808284 0 -0.37157241687929571 1 I I #
point $-1 50.510203345194768 5.6122418917868231 4.5028373982644112 #
edge $-1 $604 1 $604 0 $369 $-1 forward 7 unknown #
vertex $-1 $370 $605 #
ellipse-curve $-1 48.798108749295103 7.4918311952283361 3.6340768955690348 0.74314483375859142 0 0.66913059716165679 0.3345652985808284 0 -0.37157241687929571 1 I I #
point $-1 50.510203345194768 7.4918311952283361 4.5028373982644112 #
loop $-1 $-1 $381 $373 #
plane-surface $-1 0 0 8.4961742966478688 0 0 1 1 0 0 forward_v I I I I #
coedge $-1 $514 $376 $378 $518 reversed $252 $-1 #
coedge $-1 $376 $513 $606 $607 reversed $252 $-1 #
coedge $-1 $384 $379 $376 $516 forward $374 $-1 #
edge $-1 $519 -74.841000814857452 $608 -67.597471851849136 $515 $609 forward 7 unknown #
coedge $-1 $378 $377 $522 $610 reversed $159 $-1 #
edge $-1 $611 97.126249162324996 $519 106.87337870418406 $513 $612 forward 7 unknown #
vertex $-1 $380 $613 #
straight-curve $-1 53.436689352092046 8.319225007961677 1.2526453336395562 0 1 0 I I #
coedge $-1 $606 $381 $384 $526 forward $511 $-1 #
coedge $-1 $381 $606 $517 $610 forward $511 $-1 #
vertex $-1 $382 $614 #
straight-curve $-1 30.673420444708661 13.50580117685416 8.4961742966478653 1 0 0 I I #
straight-curve $-1 -18.075558360922543 13.50580117685416 80.675044583979414 -0.66913059716165679 0 0.74314483375859142 I I #
edge $-1 $385 13.50580117685416 $608 19.771098854992548 $384 $615 forward 7 unknown #
point $-1 53.436689352092046 13.50580117685416 8.4961742966478688 #
point $-1 53.436689352092046 13.50580117685416 1.2526453336395491 #
edge $-1 $616 1 $616 0 $388 $-1 forward 7 unknown #
vertex $-1 $389 $617 #
ellipse-curve $-1 48.798108749295103 14.758860712481834 3.6340768955690348 0.74314483375859142 0 0.66913059716165679 0.3345652985808284 0 -0.37157241687929571 1 I I #
point $-1 50.510203345194768 14.758860712481834 4.5028373982644112 #
edge $-1 $618 1 $618 0 $392 $-1 forward 7 unknown #
vertex $-1 $393 $619 #
ellipse-curve $-1 48.798108749295103 16.638450015923354 3.6340768955690348 0.74314483375859142 0 0.66913059716165679 0.3345652985808284 0 -0.37157241687929571 1 I I #
point $-1 50.510203345194768 16.638450015923354 4.5028373982644112 #
edge $-1 $620 1 $620 0 $396 $-1 forward 7 unknown #
vertex $-1 $397 $621 #
ellipse-curve $-1 48.798108749295103 18.518039319364867 3.6340768955690348 0.74314483375859142 0 0.66913059716165679 0.3345652985808284 0 -0.37157241687929571 1 I I #
point $-1 50.510203345194768 18.518039319364867 4.5028373982644112 #
plane-surface $-1 53.436689352092046 0 0 -1 0 0 0 0 1 forward_v I I I I #
coedge $-1 $405 $403 $407 $546 reversed $281 $-1 #
edge $-1 $418 -8.4961742966478688 $548 8.4961742966478688 $417 $622 forward 7 unknown #
vertex $-1 $546 $623 #
straight-curve $-1 -53.436689352092046 -21.884955598567757 0 0 0 -1 I I #
edge $-1 $544 -21.884955598567757 $548 21.884955598567757 $542 $624 forward 7 unknown #
straight-curve $-1 0 -21.884955598567757 -8.4961742966478688 -1 0 0 I I #
vertex $-1 $410 $625 #
straight-curve $-1 0 21.884955598567757 -8.4961742966478688 1 0 0 I I #
point $-1 53.436689352092046 21.884955598567757 -8.4961742966478688 #
point $-1 53.436689352092046 -21.884955598567757 -8.4961742966478688 #
straight-curve $-1 -53.436689352092046 0 8.4961742966478688 0 -1 0 I I #
point $-1 -53.436689352092046 21.884955598567757 8.4961742966478688 #
point $-1 -53.436689352092046 -21.884955598567757 8.4961742966478688 #
straight-curve $-1 53.436689352092046 -21.884955598567757 0 0 0 -1 I I #
straight-curve $-1 53.436689352092046 21.884955598567757 0 0 0 -1 I I #
plane-surface $-1 53.436689352092046 0 0 -1 0 0 0 0 1 forward_v I I I I #
coedge $-1 $561 $430 $441 $570 forward $300 $-1 #
coedge $-1 $430 $561 $444 $572 reversed $300 $-1 #
straight-curve $-1 53.436689352092046 -11.193668773841843 -1.0455366539885631 0 0 1 I I #
coedge $-1 $559 $558 $433 $562 forward $300 $-1 #
edge $-1 $565 2.9240126807394429 $563 13.615299505465357 $561 $626 forward 7 unknown #
vertex $-1 $435 $627 #
straight-curve $-1 0 -21.884955598567757 -4.2832454809258067 1 0 0 I I #
vertex $-1 $562 $628 #
straight-curve $-1 0 -11.193668773841843 -4.2832454809258067 1 0 0 I I #
point $-1 53.436689352092046 -21.884955598567757 -4.2832454809258067 #
point $-1 53.436689352092046 -11.193668773841843 -4.2832454809258067 #
straight-curve $-1 -53.436689352092046 -8.2696560931023999 0.10109886497155429 0 1 0 I I #
edge $-1 $442 -1.1466355189601174 $565 3.2377088269372436 $558 $629 forward 7 unknown #
point $-1 -53.436689352092046 -11.193668773841843 0.10109886497155429 #
edge $-1 $446 -0.10109886497155429 $563 4.2832454809258067 $559 $630 forward 7 unknown #
point $-1 -53.436689352092046 -21.884955598567757 0.10109886497155429 #
straight-curve $-1 53.436689352092046 -21.884955598567757 0 0 0 -1 I I #
edge $-1 $576 -22.763268907383384 $579 -16.241166296427203 $452 $631 forward 7 unknown #
vertex $-1 $575 $632 #
straight-curve $-1 53.436689352092046 -2.2813173932805171 76.093646148497001 0 0 1 I I #
edge $-1 $579 -0.42566572289433857 $463 5.8396319552440499 $462 $633 forward 7 unknown #
vertex $-1 $578 $634 #
straight-curve $-1 -18.075558360922543 -2.2813173932805171 80.675044583979414 0.66913059716165679 0 -0.74314483375859142 I I #
point $-1 53.436689352092046 -2.2813173932805171 1.2526453336395491 #
point $-1 46.914586741135864 -8.5466150714189055 8.4961742966478653 #
straight-curve $-1 53.436689352092046 0 8.4961742966478688 0 1 0 I I #
vertex $-1 $469 $635 #
point $-1 49.132674047875938 -7.2935555357912278 3.2625044786897393 #
vertex $-1 $473 $636 #
point $-1 49.132674047875938 -5.4139662323497113 3.2625044786897393 #
vertex $-1 $477 $637 #
point $-1 49.132674047875938 -3.5343769289081948 3.2625044786897393 #
coedge $-1 $492 $491 $484 $591 forward $481 $-1 #
edge $-1 $592 -22.763268907383384 $595 -16.241166296427203 $590 $638 forward 7 unknown #
vertex $-1 $591 $639 #
straight-curve $-1 53.436689352092046 8.7448907308560173 76.093646148497001 0 0 1 I I #
edge $-1 $595 -5.9387697849626058 $493 0.32652789317578268 $492 $640 forward 7 unknown #
vertex $-1 $594 $641 #
straight-curve $-1 -18.075558360922543 8.7448907308560173 80.675044583979414 0.66913059716165679 0 -0.74314483375859142 I I #
point $-1 53.436689352092046 8.7448907308560173 1.2526453336395491 #
point $-1 46.914586741135864 2.4795930527176289 8.4961742966478653 #
straight-curve $-1 53.436689352092046 0 8.4961742966478688 0 1 0 I I #
vertex $-1 $499 $642 #
point $-1 49.132674047875938 3.732652588345303 3.2625044786897393 #
vertex $-1 $503 $643 #
point $-1 49.132674047875938 5.6122418917868231 3.2625044786897393 #
vertex $-1 $507 $644 #
point $-1 49.132674047875938 7.4918311952283361 3.2625044786897393 #
coedge $-1 $522 $521 $514 $607 forward $511 $-1 #
edge $-1 $608 -22.763268907383384 $611 -16.241166296427203 $606 $645 forward 7 unknown #
vertex $-1 $607 $646 #
straight-curve $-1 53.436689352092046 19.771098854992548 76.093646148497001 0 0 1 I I #
edge $-1 $611 -11.451873847030871 $523 -5.1865761688924827 $522 $647 forward 7 unknown #
vertex $-1 $610 $648 #
straight-curve $-1 -18.075558360922543 19.771098854992548 80.675044583979414 0.66913059716165679 0 -0.74314483375859142 I I #
point $-1 53.436689352092046 19.771098854992548 1.2526453336395491 #
point $-1 46.914586741135864 13.50580117685416 8.4961742966478653 #
straight-curve $-1 53.436689352092046 0 8.4961742966478688 0 1 0 I I #
vertex $-1 $529 $649 #
point $-1 49.132674047875938 14.758860712481834 3.2625044786897393 #
vertex $-1 $533 $650 #
point $-1 49.132674047875938 16.638450015923354 3.2625044786897393 #
vertex $-1 $537 $651 #
point $-1 49.132674047875938 18.518039319364867 3.2625044786897393 #
straight-curve $-1 -53.436689352092046 21.884955598567757 0 0 0 -1 I I #
point $-1 -53.436689352092046 -21.884955598567757 -8.4961742966478688 #
straight-curve $-1 -53.436689352092046 0 -8.4961742966478688 0 1 0 I I #
point $-1 -53.436689352092046 21.884955598567757 -8.4961742966478688 #
straight-curve $-1 -53.436689352092046 -8.2696560931023999 -4.2832454809258067 0 -1 0 I I #
point $-1 -53.436689352092046 -21.884955598567757 -4.2832454809258067 #
point $-1 -53.436689352092046 -11.193668773841843 -4.2832454809258067 #
straight-curve $-1 -53.436689352092046 -11.193668773841843 -1.0455366539885631 0 0 -1 I I #
straight-curve $-1 -53.436689352092046 -21.884955598567757 0 0 0 -1 I I #
straight-curve $-1 30.673420444708661 -2.2813173932805171 8.4961742966478653 -1 0 0 I I #
point $-1 53.436689352092046 -2.2813173932805171 8.4961742966478688 #
straight-curve $-1 46.914586741135857 -2.7069831161748557 8.4961742966478653 0 -1 0 I I #
point $-1 46.914586741135864 -2.2813173932805171 8.4961742966478653 #
point $-1 48.426536332415814 -7.2935555357912278 3.2995115969882067 #
point $-1 48.426536332415814 -5.4139662323497113 3.2995115969882067 #
point $-1 48.426536332415814 -3.5343769289081948 3.2995115969882067 #
straight-curve $-1 30.673420444708661 8.7448907308560173 8.4961742966478653 -1 0 0 I I #
point $-1 53.436689352092046 8.7448907308560173 8.4961742966478688 #
straight-curve $-1 46.914586741135857 2.8061209458934115 8.4961742966478653 0 -1 0 I I #
point $-1 46.914586741135864 8.7448907308560173 8.4961742966478653 #
point $-1 48.426536332415814 3.732652588345303 3.2995115969882067 #
point $-1 48.426536332415814 5.6122418917868231 3.2995115969882067 #
point $-1 48.426536332415814 7.4918311952283361 3.2995115969882067 #
straight-curve $-1 30.673420444708661 19.771098854992548 8.4961742966478653 -1 0 0 I I #
point $-1 53.436689352092046 19.771098854992548 8.4961742966478688 #
straight-curve $-1 46.914586741135857 8.319225007961677 8.4961742966478653 0 -1 0 I I #
point $-1 46.914586741135864 19.771098854992548 8.4961742966478653 #
point $-1 48.426536332415814 14.758860712481834 3.2995115969882067 #
point $-1 48.426536332415814 16.638450015923354 3.2995115969882067 #
point $-1 48.426536332415814 18.518039319364867 3.2995115969882067 #
End-of-ACIS-data 