500 0 7 0           
7 Unknown 11 ACIS 5.0 NT 24 Thu Mar 25 18:35:24 1999 
-1 9.9999999999999995e-007 1e-010 
body $-1 $7 $-1 $8 #
body $-1 $9 $-1 $10 #
body $-1 $11 $-1 $12 #
body $-1 $13 $-1 $14 #
body $-1 $15 $-1 $16 #
body $-1 $17 $-1 $18 #
body $-1 $19 $-1 $20 #
lump $-1 $-1 $21 $0 #
transform $-1 1 0 0 0 1 0 0 0 1 47.086397900326546 29.66254819845425 7.0899709308235019 1 rotate no_reflect no_shear #
lump $-1 $-1 $22 $1 #
transform $-1 1 0 0 0 1 0 0 0 1 47.086397900326546 29.66254819845425 7.0899709308235019 1 rotate no_reflect no_shear #
lump $-1 $-1 $23 $2 #
transform $-1 1 0 0 0 1 0 0 0 1 47.086397900326546 29.66254819845425 7.0899709308235019 1 rotate no_reflect no_shear #
lump $-1 $-1 $24 $3 #
transform $-1 1 0 0 0 1 0 0 0 1 47.086397900326546 29.66254819845425 7.0899709308235019 1 rotate no_reflect no_shear #
lump $-1 $-1 $25 $4 #
transform $-1 1 0 0 0 1 0 0 0 1 47.086397900326546 29.66254819845425 7.0899709308235019 1 rotate no_reflect no_shear #
lump $-1 $-1 $26 $5 #
transform $-1 1 0 0 0 1 0 0 0 1 47.086397900326546 29.66254819845425 7.0899709308235019 1 rotate no_reflect no_shear #
lump $-1 $-1 $27 $6 #
transform $-1 1 0 0 0 1 0 0 0 1 47.086397900326546 29.66254819845425 7.0899709308235019 1 rotate no_reflect no_shear #
shell $-1 $-1 $-1 $28 $-1 $7 #
shell $-1 $-1 $-1 $29 $-1 $9 #
shell $-1 $-1 $-1 $30 $-1 $11 #
shell $-1 $-1 $-1 $31 $-1 $13 #
shell $-1 $-1 $-1 $32 $-1 $15 #
shell $-1 $-1 $-1 $33 $-1 $17 #
shell $-1 $-1 $-1 $34 $-1 $19 #
face $-1 $35 $36 $21 $-1 $37 forward single #
face $-1 $38 $39 $22 $-1 $40 forward single #
face $-1 $41 $42 $23 $-1 $43 forward single #
face $-1 $44 $45 $24 $-1 $46 reversed single #
face $-1 $47 $48 $25 $-1 $49 forward single #
face $-1 $50 $51 $26 $-1 $52 reversed single #
face $-1 $53 $54 $27 $-1 $55 forward single #
face $-1 $56 $57 $21 $-1 $58 reversed single #
loop $-1 $-1 $59 $28 #
plane-surface $-1 0 0 7.0899709308235019 0 0 1 1 0 0 forward_v I I I I #
face $-1 $60 $61 $22 $-1 $62 reversed single #
loop $-1 $-1 $63 $29 #
plane-surface $-1 -42.468781428223814 0 -4.0899709308235019 0 0 1 1 0 0 forward_v I I I I #
face $-1 $64 $65 $23 $-1 $66 reversed single #
loop $-1 $-1 $67 $30 #
plane-surface $-1 47.086397900326546 0 0 -1 0 0 0 0 1 forward_v I I I I #
face $-1 $68 $69 $24 $-1 $70 reversed single #
loop $-1 $-1 $71 $31 #
plane-surface $-1 28.362864001842418 37.020918590040921 111.06529808415802 1 0 0 0 -0.5877852598018023 -0.80901698891910034 forward_v I I I I #
face $-1 $72 $73 $25 $-1 $74 forward single #
loop $-1 $75 $76 $32 #
cone-surface $-1 35.005714622940744 23.727736990356579 2.088786104962193 0 -0.5877852598018023 -0.80901698891910034 2 0 0 1 I I 0 1 2 forward I I I I #
face $-1 $77 $78 $26 $-1 $79 reversed single #
loop $-1 $-1 $80 $33 #
plane-surface $-1 41.648565244039048 -90.195655252667436 75.024258514882817 -1 0 0 0 -0.64278761758704617 0.76604443648966558 forward_v I I I I #
face $-1 $81 $82 $27 $-1 $83 forward single #
loop $-1 $84 $85 $34 #
cone-surface $-1 35.07267810917763 -26.576770172572648 4.2963799421756264 0 0.64278761758704617 -0.76604443648966558 1 0 0 1 I I 0 1 1 forward I I I I #
face $-1 $86 $87 $21 $-1 $88 reversed single #
loop $-1 $-1 $89 $35 #
plane-surface $-1 0 0 -7.0899709308235019 0 0 1 1 0 0 forward_v I I I I #
coedge $-1 $90 $91 $92 $93 forward $36 $-1 #
face $-1 $94 $95 $22 $-1 $96 reversed single #
loop $-1 $-1 $97 $38 #
plane-surface $-1 -37.851164956121082 0 -5.5899709308235019 -1 0 0 0 0 1 forward_v I I I I #
coedge $-1 $98 $99 $100 $101 forward $39 $-1 #
face $-1 $102 $103 $23 $-1 $104 reversed single #
loop $-1 $-1 $105 $41 #
plane-surface $-1 0 0 -7.0899709308235019 0 0 1 1 0 0 forward_v I I I I #
coedge $-1 $106 $107 $108 $109 forward $42 $-1 #
face $-1 $110 $111 $24 $-1 $112 reversed single #
loop $-1 $-1 $113 $44 #
plane-surface $-1 35.005714622940729 -18.332462655908031 34.877906387420353 0 0.5877852598018023 0.80901698891910034 1 0 0 forward_v I I I I #
coedge $-1 $114 $115 $116 $117 reversed $45 $-1 #
face $-1 $-1 $118 $25 $-1 $119 forward single #
loop $-1 $120 $121 $47 #
cone-surface $-1 35.005714622940744 22.079240338076357 -0.18017483890473063 0 -0.5877852598018023 -0.80901698891910034 1 0 0 1 I I -0.70710678118654746 0.70710678118654768 1 forward I I I I #
loop $-1 $-1 $122 $32 #
coedge $-1 $76 $76 $123 $124 reversed $48 $-1 #
face $-1 $125 $126 $26 $-1 $127 reversed single #
loop $-1 $-1 $128 $50 #
plane-surface $-1 35.07267810917763 -29.662548198454246 2.8837122231151682 0 -0.64278761758704617 0.76604443648966558 1 0 0 forward_v I I I I #
coedge $-1 $129 $130 $131 $132 reversed $51 $-1 #
face $-1 $-1 $133 $27 $-1 $134 forward single #
loop $-1 $135 $136 $53 #
cone-surface $-1 35.07267810917763 -25.676010248546852 3.2228960891370741 0 0.64278761758704617 -0.76604443648966558 0.5 0 0 1 I I -0.70710678118654746 0.70710678118654746 0.5 forward I I I I #
loop $-1 $-1 $137 $34 #
coedge $-1 $85 $85 $138 $139 reversed $54 $-1 #
face $-1 $140 $141 $21 $-1 $142 reversed single #
loop $-1 $-1 $143 $56 #
plane-surface $-1 0 -29.66254819845425 0 0 1 0 0 0 1 forward_v I I I I #
coedge $-1 $144 $145 $146 $147 forward $57 $-1 #
coedge $-1 $148 $59 $149 $150 forward $36 $-1 #
coedge $-1 $59 $148 $151 $152 forward $36 $-1 #
coedge $-1 $153 $154 $59 $93 reversed $155 $-1 #
edge $-1 $156 -29.66254819845425 $157 29.66254819845425 $92 $158 forward 7 unknown #
face $-1 $159 $160 $22 $-1 $161 reversed single #
loop $-1 $-1 $162 $60 #
plane-surface $-1 0 0 -7.0899709308235019 0 0 1 1 0 0 forward_v I I I I #
coedge $-1 $163 $100 $164 $165 reversed $61 $-1 #
coedge $-1 $166 $63 $167 $168 reversed $39 $-1 #
coedge $-1 $63 $166 $169 $170 reversed $39 $-1 #
coedge $-1 $97 $171 $63 $101 reversed $61 $-1 #
edge $-1 $172 -29.66254819845425 $173 29.66254819845425 $100 $174 forward 7 unknown #
face $-1 $175 $176 $23 $-1 $177 reversed single #
loop $-1 $-1 $108 $64 #
plane-surface $-1 49.805314228470294 -22.786360487937227 0 0 1 0 0 0 1 forward_v I I I I #
coedge $-1 $178 $179 $107 $180 forward $65 $-1 #
coedge $-1 $181 $67 $182 $183 reversed $42 $-1 #
coedge $-1 $67 $181 $105 $180 reversed $42 $-1 #
coedge $-1 $184 $185 $67 $109 reversed $103 $-1 #
edge $-1 $186 -7.0899709308235019 $187 7.0899709308235019 $108 $188 forward 7 unknown #
face $-1 $189 $190 $24 $-1 $191 reversed single #
loop $-1 $-1 $192 $68 #
plane-surface $-1 41.648565244039041 37.020918590040921 111.06529808415802 -1 0 0 0 0.5877852598018023 0.80901698891910034 forward_v I I I I #
coedge $-1 $193 $194 $195 $196 reversed $69 $-1 #
coedge $-1 $115 $71 $197 $198 reversed $45 $-1 #
coedge $-1 $71 $114 $193 $199 reversed $45 $-1 #
coedge $-1 $195 $200 $71 $117 forward $201 $-1 #
edge $-1 $202 -11.152088903433789 $203 -1.403889272195272 $116 $204 forward 7 unknown #
loop $-1 $-1 $123 $72 #
plane-surface $-1 35.005714622940729 -18.332462655908031 34.877906387420353 0 0.5877852598018023 0.80901698891910034 1 0 0 forward_v I I I I #
loop $-1 $-1 $205 $47 #
coedge $-1 $121 $121 $122 $206 reversed $73 $-1 #
coedge $-1 $122 $122 $121 $206 forward $75 $-1 #
coedge $-1 $123 $123 $76 $124 forward $118 $-1 #
edge $-1 $207 7.8597299021971185e-016 $207 6.2831853071796013 $123 $208 forward 7 unknown #
face $-1 $209 $210 $26 $-1 $211 forward single #
loop $-1 $-1 $212 $77 #
plane-surface $-1 28.496790974316212 -90.195655252667436 75.024258514882817 1 0 0 0 0.64278761758704617 -0.76604443648966558 forward_v I I I I #
coedge $-1 $213 $214 $215 $216 reversed $78 $-1 #
coedge $-1 $130 $80 $217 $218 reversed $51 $-1 #
coedge $-1 $80 $129 $213 $219 reversed $51 $-1 #
coedge $-1 $215 $220 $80 $132 forward $210 $-1 #
edge $-1 $221 15.435279427879468 $222 20.448103249178164 $131 $223 forward 7 unknown #
loop $-1 $-1 $138 $81 #
plane-surface $-1 35.07267810917763 -29.662548198454246 2.8837122231151682 0 -0.64278761758704617 0.76604443648966558 1 0 0 forward_v I I I I #
loop $-1 $-1 $224 $53 #
coedge $-1 $136 $136 $137 $225 reversed $82 $-1 #
coedge $-1 $137 $137 $136 $225 forward $84 $-1 #
coedge $-1 $138 $138 $85 $139 forward $133 $-1 #
edge $-1 $226 -1.1806746556918181e-015 $226 6.2831853071795996 $138 $227 forward 7 unknown #
face $-1 $228 $229 $21 $-1 $230 reversed single #
loop $-1 $-1 $231 $86 #
plane-surface $-1 -47.086397900326546 0 0 1 0 0 0 0 -1 forward_v I I I I #
coedge $-1 $232 $151 $233 $234 forward $87 $-1 #
coedge $-1 $235 $89 $232 $236 forward $57 $-1 #
coedge $-1 $89 $235 $237 $238 forward $57 $-1 #
coedge $-1 $154 $153 $89 $147 reversed $155 $-1 #
edge $-1 $239 -29.66254819845425 $240 29.66254819845425 $146 $241 forward 7 unknown #
coedge $-1 $91 $90 $242 $243 forward $36 $-1 #
coedge $-1 $244 $245 $90 $150 reversed $229 $-1 #
edge $-1 $157 -47.086397900326546 $246 47.086397900326546 $149 $247 forward 7 unknown #
coedge $-1 $143 $248 $91 $152 reversed $87 $-1 #
edge $-1 $249 -47.086397900326546 $156 47.086397900326546 $151 $250 forward 7 unknown #
coedge $-1 $146 $92 $248 $251 forward $155 $-1 #
coedge $-1 $92 $146 $244 $252 reversed $155 $-1 #
loop $-1 $-1 $153 $228 #
vertex $-1 $93 $253 #
vertex $-1 $93 $254 #
straight-curve $-1 47.086397900326546 0 7.0899709308235019 0 1 0 I I #
face $-1 $255 $256 $22 $-1 $257 reversed single #
loop $-1 $-1 $164 $94 #
plane-surface $-1 0 -29.66254819845425 0 0 1 0 0 0 1 forward_v I I I I #
coedge $-1 $258 $259 $163 $260 forward $95 $-1 #
coedge $-1 $171 $97 $162 $260 reversed $61 $-1 #
coedge $-1 $169 $261 $97 $165 forward $160 $-1 #
edge $-1 $262 -4.2949854654117505 $172 -1.294985465411751 $164 $263 forward 7 unknown #
coedge $-1 $99 $98 $264 $265 reversed $39 $-1 #
coedge $-1 $266 $267 $98 $168 forward $268 $-1 #
edge $-1 $269 -25.852007186214639 $173 -16.616774242009175 $167 $270 forward 7 unknown #
coedge $-1 $271 $164 $99 $170 forward $160 $-1 #
edge $-1 $172 16.616774242009175 $272 25.852007186214639 $169 $273 forward 7 unknown #
coedge $-1 $100 $163 $266 $274 reversed $61 $-1 #
vertex $-1 $170 $275 #
vertex $-1 $168 $276 #
straight-curve $-1 -37.851164956121082 0 -4.0899709308235019 0 1 0 I I #
face $-1 $277 $278 $23 $-1 $279 reversed single #
loop $-1 $-1 $280 $102 #
plane-surface $-1 49.805314228470294 -18.895109557862956 0 0 -1 0 0 0 -1 forward_v I I I I #
coedge $-1 $281 $105 $282 $283 forward $65 $-1 #
coedge $-1 $105 $281 $184 $284 forward $65 $-1 #
edge $-1 $186 -22.786360487937227 $285 -18.895109557862956 $105 $286 forward 7 unknown #
coedge $-1 $107 $106 $287 $288 forward $42 $-1 #
coedge $-1 $289 $290 $106 $183 forward $291 $-1 #
edge $-1 $292 18.895109557862956 $187 22.786360487937227 $182 $293 forward 7 unknown #
coedge $-1 $294 $108 $179 $284 reversed $103 $-1 #
coedge $-1 $108 $294 $289 $295 reversed $103 $-1 #
vertex $-1 $180 $296 #
vertex $-1 $295 $297 #
straight-curve $-1 47.086397900326546 -22.786360487937227 0 0 0 1 I I #
face $-1 $-1 $201 $24 $-1 $298 forward single #
loop $-1 $-1 $299 $110 #
plane-surface $-1 0 29.66254819845425 0 0 -1 0 0 0 -1 forward_v I I I I #
coedge $-1 $300 $301 $302 $303 reversed $111 $-1 #
coedge $-1 $304 $113 $115 $199 forward $69 $-1 #
coedge $-1 $113 $304 $300 $305 forward $69 $-1 #
coedge $-1 $302 $116 $113 $196 forward $201 $-1 #
edge $-1 $203 10.860006690372053 $306 24.145707932568676 $195 $307 forward 7 unknown #
coedge $-1 $308 $309 $114 $198 forward $190 $-1 #
edge $-1 $310 -55.525159853082478 $202 -48.442678111255503 $197 $311 forward 7 unknown #
edge $-1 $203 47.275658913200331 $310 59.325096396908492 $115 $312 forward 7 unknown #
coedge $-1 $116 $302 $308 $313 forward $201 $-1 #
loop $-1 $-1 $302 $189 #
vertex $-1 $198 $314 #
vertex $-1 $117 $315 #
straight-curve $-1 28.362864001842418 18.510459295020461 7.0899709308235046 0 -1 0 I I #
coedge $-1 $205 $205 $-1 $316 reversed $120 $-1 #
edge $-1 $317 0 $317 6.2831853071796004 $121 $318 forward 7 unknown #
vertex $-1 $124 $319 #
ellipse-curve $-1 35.005714622940744 24.788448382834993 3.5487300599100093 0 0.5877852598018023 0.80901698891910034 2 0 0 1 I I #
face $-1 $-1 $320 $26 $-1 $321 reversed single #
loop $-1 $-1 $131 $125 #
plane-surface $-1 0 0 7.0899709308235019 0 0 1 1 0 0 forward_v I I I I #
coedge $-1 $322 $323 $324 $325 reversed $126 $-1 #
coedge $-1 $326 $128 $130 $219 forward $78 $-1 #
coedge $-1 $128 $326 $322 $327 forward $78 $-1 #
coedge $-1 $324 $131 $128 $216 forward $210 $-1 #
edge $-1 $222 -24.112226189450233 $328 -10.960451919727397 $215 $329 forward 7 unknown #
coedge $-1 $330 $331 $129 $218 forward $320 $-1 #
edge $-1 $332 -34.62841703432624 $221 -30.422158326617907 $217 $333 forward 7 unknown #
edge $-1 $222 -6.5437768130913359 $332 4.7197218644553055e-015 $130 $334 forward 7 unknown #
coedge $-1 $131 $324 $330 $335 forward $210 $-1 #
vertex $-1 $132 $336 #
vertex $-1 $132 $337 #
straight-curve $-1 41.648565244039048 -45.097827626333718 7.0899709308235046 0 1 0 I I #
coedge $-1 $224 $224 $-1 $338 reversed $135 $-1 #
edge $-1 $339 0 $339 6.2831853071796004 $136 $340 forward 7 unknown #
vertex $-1 $139 $341 #
ellipse-curve $-1 35.07267810917763 -27.156136287804905 4.9868415769693302 0 -0.64278761758704617 0.76604443648966558 1 0 0 1 I I #
face $-1 $-1 $155 $21 $-1 $342 reversed single #
loop $-1 $-1 $244 $140 #
plane-surface $-1 0 29.66254819845425 0 0 -1 0 0 0 -1 forward_v I I I I #
coedge $-1 $343 $242 $245 $344 forward $141 $-1 #
coedge $-1 $248 $143 $144 $236 reversed $87 $-1 #
coedge $-1 $242 $343 $143 $234 reversed $141 $-1 #
edge $-1 $249 -7.0899709308235019 $345 7.0899709308235019 $233 $346 forward 7 unknown #
coedge $-1 $145 $144 $343 $347 forward $57 $-1 #
edge $-1 $240 -47.086397900326546 $345 47.086397900326546 $232 $348 forward 7 unknown #
coedge $-1 $245 $244 $145 $238 reversed $229 $-1 #
edge $-1 $349 -47.086397900326546 $239 47.086397900326546 $237 $350 forward 7 unknown #
vertex $-1 $147 $351 #
vertex $-1 $251 $352 #
straight-curve $-1 47.086397900326546 0 -7.0899709308235019 0 -1 0 I I #
coedge $-1 $231 $233 $148 $243 reversed $141 $-1 #
edge $-1 $246 -29.66254819845425 $249 29.66254819845425 $242 $353 forward 7 unknown #
coedge $-1 $237 $149 $154 $252 forward $229 $-1 #
coedge $-1 $149 $237 $231 $344 reversed $229 $-1 #
vertex $-1 $150 $354 #
straight-curve $-1 0 29.66254819845425 7.0899709308235019 -1 0 0 I I #
coedge $-1 $151 $232 $153 $251 reversed $87 $-1 #
vertex $-1 $243 $355 #
straight-curve $-1 0 -29.66254819845425 7.0899709308235019 1 0 0 I I #
edge $-1 $156 -7.0899709308235019 $240 7.0899709308235019 $153 $356 forward 7 unknown #
edge $-1 $157 -7.0899709308235019 $239 7.0899709308235019 $154 $357 forward 7 unknown #
point $-1 47.086397900326546 -29.66254819845425 7.0899709308235019 #
point $-1 47.086397900326546 29.66254819845425 7.0899709308235019 #
face $-1 $-1 $268 $22 $-1 $358 reversed single #
loop $-1 $-1 $264 $159 #
plane-surface $-1 -47.086397900326546 0 0 1 0 0 0 0 -1 forward_v I I I I #
coedge $-1 $359 $162 $261 $360 forward $95 $-1 #
coedge $-1 $162 $359 $361 $362 forward $95 $-1 #
edge $-1 $363 -29.66254819845425 $262 29.66254819845425 $162 $364 forward 7 unknown #
coedge $-1 $164 $271 $258 $360 reversed $160 $-1 #
vertex $-1 $360 $365 #
straight-curve $-1 -37.851164956121082 -29.66254819845425 -2.794985465411751 0 0 1 I I #
coedge $-1 $366 $367 $166 $265 forward $256 $-1 #
edge $-1 $272 -29.66254819845425 $269 29.66254819845425 $264 $368 forward 7 unknown #
coedge $-1 $361 $167 $171 $274 forward $268 $-1 #
coedge $-1 $167 $361 $366 $369 reversed $268 $-1 #
loop $-1 $-1 $266 $255 #
vertex $-1 $369 $370 #
straight-curve $-1 -21.234390714111907 29.66254819845425 -4.0899709308235019 1 0 0 I I #
coedge $-1 $261 $169 $367 $371 forward $160 $-1 #
vertex $-1 $371 $372 #
straight-curve $-1 -21.234390714111907 -29.66254819845425 -4.0899709308235019 -1 0 0 I I #
edge $-1 $173 1.294985465411751 $363 4.2949854654117505 $266 $373 forward 7 unknown #
point $-1 -37.851164956121082 -29.66254819845425 -4.0899709308235019 #
point $-1 -37.851164956121082 29.66254819845425 -4.0899709308235019 #
face $-1 $-1 $291 $23 $-1 $374 forward single #
loop $-1 $-1 $375 $175 #
plane-surface $-1 52.524230556614043 -20.840735022900091 0 -1 0 0 0 0 1 forward_v I I I I #
coedge $-1 $282 $376 $377 $378 forward $176 $-1 #
coedge $-1 $179 $178 $379 $380 forward $65 $-1 #
coedge $-1 $287 $280 $178 $283 reversed $176 $-1 #
edge $-1 $285 -2.7189163281437487 $381 2.7189163281437487 $282 $382 forward 7 unknown #
edge $-1 $383 -2.7189163281437487 $186 2.7189163281437487 $184 $384 forward 7 unknown #
vertex $-1 $283 $385 #
straight-curve $-1 47.086397900326546 0 -7.0899709308235019 0 1 0 I I #
coedge $-1 $376 $282 $181 $288 reversed $176 $-1 #
edge $-1 $292 -7.0899709308235019 $285 7.0899709308235019 $287 $386 forward 7 unknown #
coedge $-1 $387 $182 $185 $295 forward $291 $-1 #
coedge $-1 $182 $387 $376 $388 forward $291 $-1 #
loop $-1 $-1 $182 $277 #
vertex $-1 $183 $389 #
straight-curve $-1 47.086397900326546 0 7.0899709308235019 0 -1 0 I I #
coedge $-1 $185 $184 $375 $390 reversed $103 $-1 #
edge $-1 $187 -2.7189163281437487 $391 2.7189163281437487 $185 $392 forward 7 unknown #
point $-1 47.086397900326546 -22.786360487937227 -7.0899709308235019 #
point $-1 47.086397900326546 -22.786360487937227 7.0899709308235019 #
plane-surface $-1 0 0 7.0899709308235019 0 0 1 1 0 0 forward_v I I I I #
coedge $-1 $309 $308 $301 $393 forward $190 $-1 #
coedge $-1 $301 $192 $194 $305 reversed $111 $-1 #
coedge $-1 $192 $300 $299 $393 reversed $111 $-1 #
coedge $-1 $200 $195 $192 $303 forward $201 $-1 #
edge $-1 $306 1.403889272195272 $394 11.152088903433789 $302 $395 forward 7 unknown #
coedge $-1 $194 $193 $309 $396 reversed $69 $-1 #
edge $-1 $397 -59.325096396908492 $306 -47.275658913200331 $300 $398 forward 7 unknown #
vertex $-1 $196 $399 #
straight-curve $-1 17.502857311470365 19.91434856721574 7.089970930823501 1 0 0 I I #
coedge $-1 $299 $197 $200 $313 reversed $190 $-1 #
coedge $-1 $197 $299 $304 $396 forward $190 $-1 #
vertex $-1 $198 $400 #
straight-curve $-1 28.362864001842418 29.66254819845425 55.532649042079008 0 0 1 I I #
straight-curve $-1 28.362864001842418 -18.332462655908031 34.877906387420353 0 0.80901698891910034 -0.5877852598018023 I I #
edge $-1 $394 -41.648565244039041 $202 -28.362864001842418 $308 $401 forward 7 unknown #
point $-1 28.362864001842418 29.66254819845425 7.0899709308235019 #
point $-1 28.362864001842418 19.914348567215733 7.089970930823501 #
edge $-1 $402 1 $402 0 $205 $-1 forward 7 unknown #
vertex $-1 $206 $403 #
ellipse-curve $-1 35.005714622940744 22.667025597878158 0.62884215001436994 0 0.5877852598018023 0.80901698891910034 2 0 0 1 I I #
point $-1 37.005714622940744 24.788448382835 3.5487300599100164 #
loop $-1 $-1 $217 $209 #
plane-surface $-1 0 -29.66254819845425 0 0 1 0 0 0 1 forward_v I I I I #
coedge $-1 $323 $212 $214 $327 reversed $126 $-1 #
coedge $-1 $212 $322 $404 $405 reversed $126 $-1 #
coedge $-1 $220 $215 $212 $325 forward $210 $-1 #
edge $-1 $328 -20.448103249178164 $406 -15.435279427879468 $324 $407 forward 7 unknown #
coedge $-1 $214 $213 $331 $408 reversed $78 $-1 #
edge $-1 $409 -4.7197218644553055e-015 $328 6.5437768130913359 $322 $410 forward 7 unknown #
vertex $-1 $216 $411 #
straight-curve $-1 17.536339054588815 -24.64972437715555 7.0899709308235028 -1 0 0 I I #
coedge $-1 $404 $217 $220 $335 reversed $320 $-1 #
coedge $-1 $217 $404 $326 $408 forward $320 $-1 #
vertex $-1 $218 $412 #
straight-curve $-1 41.648565244039048 -29.66254819845425 37.512129257441408 0 0 1 I I #
straight-curve $-1 41.648565244039048 -29.662548198454246 2.8837122231151682 0 -0.76604443648966558 -0.64278761758704617 I I #
edge $-1 $406 28.496790974316212 $221 41.648565244039048 $330 $413 forward 7 unknown #
point $-1 41.648565244039048 -29.66254819845425 7.0899709308235019 #
point $-1 41.648565244039048 -24.649724377155554 7.0899709308235019 #
edge $-1 $414 1 $414 0 $224 $-1 forward 7 unknown #
vertex $-1 $225 $415 #
ellipse-curve $-1 35.07267810917763 -25.997404057340376 3.605918307381907 0 -0.64278761758704617 0.76604443648966558 1 0 0 1 I I #
point $-1 36.07267810917763 -27.15613628780492 4.9868415769693453 #
plane-surface $-1 47.086397900326546 0 0 -1 0 0 0 0 1 forward_v I I I I #
coedge $-1 $233 $231 $235 $347 reversed $141 $-1 #
edge $-1 $246 -7.0899709308235019 $349 7.0899709308235019 $245 $416 forward 7 unknown #
vertex $-1 $347 $417 #
straight-curve $-1 -47.086397900326546 -29.66254819845425 0 0 0 -1 I I #
edge $-1 $345 -29.66254819845425 $349 29.66254819845425 $343 $418 forward 7 unknown #
straight-curve $-1 0 -29.66254819845425 -7.0899709308235019 -1 0 0 I I #
vertex $-1 $238 $419 #
straight-curve $-1 0 29.66254819845425 -7.0899709308235019 1 0 0 I I #
point $-1 47.086397900326546 29.66254819845425 -7.0899709308235019 #
point $-1 47.086397900326546 -29.66254819845425 -7.0899709308235019 #
straight-curve $-1 -47.086397900326546 0 7.0899709308235019 0 -1 0 I I #
point $-1 -47.086397900326546 29.66254819845425 7.0899709308235019 #
point $-1 -47.086397900326546 -29.66254819845425 7.0899709308235019 #
straight-curve $-1 47.086397900326546 -29.66254819845425 0 0 0 -1 I I #
straight-curve $-1 47.086397900326546 29.66254819845425 0 0 0 -1 I I #
plane-surface $-1 0 29.66254819845425 0 0 -1 0 0 0 -1 forward_v I I I I #
coedge $-1 $259 $258 $420 $421 forward $95 $-1 #
edge $-1 $262 37.851164956121082 $422 47.086397900326546 $261 $423 forward 7 unknown #
coedge $-1 $267 $266 $259 $362 reversed $268 $-1 #
edge $-1 $424 -47.086397900326546 $363 -37.851164956121082 $361 $425 forward 7 unknown #
vertex $-1 $274 $426 #
straight-curve $-1 -37.851164956121082 0 -7.0899709308235019 0 -1 0 I I #
point $-1 -37.851164956121082 -29.66254819845425 -7.0899709308235019 #
coedge $-1 $420 $264 $267 $369 forward $256 $-1 #
coedge $-1 $264 $420 $271 $371 reversed $256 $-1 #
straight-curve $-1 -47.086397900326546 0 -4.0899709308235019 0 1 0 I I #
edge $-1 $269 4.0899709308235019 $424 7.0899709308235019 $267 $427 forward 7 unknown #
point $-1 -47.086397900326546 29.66254819845425 -4.0899709308235019 #
edge $-1 $272 4.0899709308235019 $422 7.0899709308235019 $367 $428 forward 7 unknown #
point $-1 -47.086397900326546 -29.66254819845425 -4.0899709308235019 #
straight-curve $-1 -37.851164956121082 29.66254819845425 -2.794985465411751 0 0 -1 I I #
plane-surface $-1 0 0 7.0899709308235019 0 0 1 1 0 0 forward_v I I I I #
coedge $-1 $379 $429 $294 $390 forward $278 $-1 #
coedge $-1 $280 $287 $290 $388 reversed $176 $-1 #
coedge $-1 $429 $379 $280 $378 reversed $278 $-1 #
edge $-1 $430 -7.0899709308235019 $381 7.0899709308235019 $377 $431 forward 7 unknown #
coedge $-1 $377 $375 $281 $380 reversed $278 $-1 #
edge $-1 $381 -1.9456254650371356 $383 1.9456254650371356 $379 $432 forward 7 unknown #
vertex $-1 $380 $433 #
straight-curve $-1 49.805314228470294 -18.895109557862956 -7.0899709308235019 1 0 0 I I #
vertex $-1 $390 $434 #
straight-curve $-1 49.805314228470294 -22.786360487937227 -7.0899709308235019 -1 0 0 I I #
point $-1 47.086397900326546 -18.895109557862956 -7.0899709308235019 #
straight-curve $-1 47.086397900326546 -18.895109557862956 0 0 0 -1 I I #
coedge $-1 $290 $289 $429 $435 forward $291 $-1 #
edge $-1 $430 -2.7189163281437487 $292 2.7189163281437487 $376 $436 forward 7 unknown #
point $-1 47.086397900326546 -18.895109557862956 7.0899709308235019 #
edge $-1 $391 -7.0899709308235019 $383 7.0899709308235019 $375 $437 forward 7 unknown #
vertex $-1 $435 $438 #
straight-curve $-1 49.805314228470294 -22.786360487937227 7.0899709308235019 1 0 0 I I #
edge $-1 $394 48.442678111255503 $397 55.525159853082478 $299 $439 forward 7 unknown #
vertex $-1 $313 $440 #
straight-curve $-1 41.648565244039041 18.510459295020461 7.0899709308235046 0 1 0 I I #
edge $-1 $397 -24.145707932568676 $310 -10.860006690372053 $309 $441 forward 7 unknown #
vertex $-1 $396 $442 #
straight-curve $-1 41.648565244039041 -18.332462655908031 34.877906387420353 0 -0.80901698891910034 0.5877852598018023 I I #
point $-1 41.648565244039041 19.914348567215733 7.089970930823501 #
point $-1 28.362864001842418 29.662548198454246 0.0074891889965300606 #
straight-curve $-1 0 29.66254819845425 7.0899709308235019 -1 0 0 I I #
vertex $-1 $316 $443 #
point $-1 37.005714622940744 22.667025597878158 0.62884215001436994 #
coedge $-1 $331 $330 $323 $405 forward $320 $-1 #
edge $-1 $406 30.422158326617907 $409 34.62841703432624 $404 $444 forward 7 unknown #
vertex $-1 $335 $445 #
straight-curve $-1 28.496790974316212 -45.097827626333718 7.0899709308235046 0 -1 0 I I #
edge $-1 $409 10.960451919727397 $332 24.112226189450233 $331 $446 forward 7 unknown #
vertex $-1 $408 $447 #
straight-curve $-1 28.496790974316212 -29.662548198454246 2.8837122231151682 0 0.76604443648966558 0.64278761758704617 I I #
point $-1 28.496790974316212 -24.649724377155554 7.0899709308235019 #
point $-1 41.648565244039048 -29.66254819845425 2.8837122231151651 #
straight-curve $-1 0 -29.66254819845425 7.0899709308235019 1 0 0 I I #
vertex $-1 $338 $448 #
point $-1 36.07267810917763 -25.997404057340376 3.605918307381907 #
straight-curve $-1 -47.086397900326546 29.66254819845425 0 0 0 -1 I I #
point $-1 -47.086397900326546 -29.66254819845425 -7.0899709308235019 #
straight-curve $-1 -47.086397900326546 0 -7.0899709308235019 0 1 0 I I #
point $-1 -47.086397900326546 29.66254819845425 -7.0899709308235019 #
coedge $-1 $367 $366 $359 $421 reversed $256 $-1 #
edge $-1 $422 -29.66254819845425 $424 29.66254819845425 $420 $449 forward 7 unknown #
vertex $-1 $421 $450 #
straight-curve $-1 0 -29.66254819845425 -7.0899709308235019 -1 0 0 I I #
vertex $-1 $362 $451 #
straight-curve $-1 0 29.66254819845425 -7.0899709308235019 1 0 0 I I #
point $-1 -37.851164956121082 29.66254819845425 -7.0899709308235019 #
straight-curve $-1 -47.086397900326546 29.66254819845425 0 0 0 -1 I I #
straight-curve $-1 -47.086397900326546 -29.66254819845425 0 0 0 -1 I I #
coedge $-1 $375 $377 $387 $435 reversed $278 $-1 #
vertex $-1 $435 $452 #
straight-curve $-1 52.524230556614043 -18.895109557862956 0 0 0 -1 I I #
straight-curve $-1 52.524230556614043 -20.840735022900091 -7.0899709308235019 0 -1 0 I I #
point $-1 52.524230556614043 -18.895109557862956 -7.0899709308235019 #
point $-1 52.524230556614043 -22.786360487937227 -7.0899709308235019 #
edge $-1 $391 -1.9456254650371356 $430 1.9456254650371356 $429 $453 forward 7 unknown #
straight-curve $-1 49.805314228470294 -18.895109557862956 7.0899709308235019 -1 0 0 I I #
straight-curve $-1 52.524230556614043 -22.786360487937227 0 0 0 -1 I I #
point $-1 52.524230556614043 -22.786360487937227 7.0899709308235019 #
straight-curve $-1 41.648565244039041 29.66254819845425 55.532649042079008 0 0 -1 I I #
point $-1 41.648565244039041 29.66254819845425 7.0899709308235019 #
straight-curve $-1 17.502857311470365 29.662548198454253 0.0074891889965265079 -1 0 0 I I #
point $-1 41.648565244039041 29.662548198454246 0.0074891889965300606 #
point $-1 35.005714622940744 21.491455078274555 -0.98919182782383119 #
straight-curve $-1 28.496790974316212 -29.66254819845425 37.512129257441408 0 0 -1 I I #
point $-1 28.496790974316212 -29.66254819845425 7.0899709308235019 #
straight-curve $-1 17.536339054588815 -29.66254819845425 2.8837122231151646 1 0 0 I I #
point $-1 28.496790974316212 -29.66254819845425 2.8837122231151651 #
point $-1 35.07267810917763 -25.354616439753329 2.8398738708922413 #
straight-curve $-1 -47.086397900326546 0 -7.0899709308235019 0 1 0 I I #
point $-1 -47.086397900326546 -29.66254819845425 -7.0899709308235019 #
point $-1 -47.086397900326546 29.66254819845425 -7.0899709308235019 #
point $-1 52.524230556614043 -18.895109557862956 7.0899709308235019 #
straight-curve $-1 52.524230556614043 -20.840735022900091 7.0899709308235019 0 1 0 I I #
End-of-ACIS-data 