500 0 5 0           
7 Unknown 11 ACIS 5.0 NT 24 Fri Mar 26 14:48:00 1999 
-1 9.9999999999999995e-007 1e-010 
body $-1 $5 $-1 $6 #
body $-1 $7 $-1 $8 #
body $-1 $9 $-1 $10 #
body $-1 $11 $-1 $12 #
body $-1 $13 $-1 $14 #
lump $-1 $-1 $15 $0 #
transform $-1 1 0 0 0 1 0 0 0 1 48.890652180547505 28.146554515184977 12.019172340689451 1 rotate no_reflect no_shear #
lump $-1 $-1 $16 $1 #
transform $-1 1 0 0 0 1 0 0 0 1 48.890652180547505 28.146554515184977 12.019172340689451 1 rotate no_reflect no_shear #
lump $-1 $-1 $17 $2 #
transform $-1 1 0 0 0 1 0 0 0 1 48.890652180547505 28.146554515184977 12.019172340689451 1 rotate no_reflect no_shear #
lump $-1 $-1 $18 $3 #
transform $-1 1 0 0 0 1 0 0 0 1 48.890652180547505 28.146554515184977 12.019172340689451 1 rotate no_reflect no_shear #
lump $-1 $-1 $19 $4 #
transform $-1 1 0 0 0 1 0 0 0 1 48.890652180547505 28.146554515184977 12.019172340689451 1 rotate no_reflect no_shear #
shell $-1 $-1 $-1 $20 $-1 $5 #
shell $-1 $-1 $-1 $21 $-1 $7 #
shell $-1 $-1 $-1 $22 $-1 $9 #
shell $-1 $-1 $-1 $23 $-1 $11 #
shell $-1 $-1 $-1 $24 $-1 $13 #
face $-1 $25 $26 $15 $-1 $27 forward single #
face $-1 $28 $29 $16 $-1 $30 reversed single #
face $-1 $31 $32 $17 $-1 $33 forward single #
face $-1 $34 $35 $18 $-1 $36 reversed single #
face $-1 $37 $38 $19 $-1 $39 reversed single #
face $-1 $40 $41 $15 $-1 $42 reversed single #
loop $-1 $-1 $43 $20 #
plane-surface $-1 0 0 12.019172340689451 0 0 1 1 0 0 forward_v I I I I #
face $-1 $44 $45 $16 $-1 $46 reversed single #
loop $-1 $-1 $47 $21 #
plane-surface $-1 -26.87374543527217 -39.134903183821876 0 0 1 0 0 0 1 forward_v I I I I #
face $-1 $48 $49 $17 $-1 $50 forward single #
loop $-1 $-1 $51 $22 #
plane-surface $-1 24.194210737571751 32.223488368348427 113.74578375090589 1 0 0 0 -0.52991927123019833 -0.84804809178421925 forward_v I I I I #
face $-1 $52 $53 $18 $-1 $54 reversed single #
loop $-1 $55 $56 $23 #
cone-surface $-1 31.250336864136244 18.298967412654513 4.8670450320455814 0 -0.52991927123019833 -0.84804809178421925 2.5 0 0 1 I I 0 1 2.5 forward I I I I #
face $-1 $57 $58 $19 $-1 $59 reversed single #
loop $-1 $60 $61 $24 #
cone-surface $-1 41.834526053982998 18.298967412654513 4.8670450320455814 0 -0.52991927123019833 -0.84804809178421925 2.5 0 0 1 I I 0 1 2.5 forward I I I I #
face $-1 $62 $63 $15 $-1 $64 reversed single #
loop $-1 $-1 $65 $25 #
plane-surface $-1 0 0 -12.019172340689451 0 0 1 1 0 0 forward_v I I I I #
coedge $-1 $66 $67 $68 $69 forward $26 $-1 #
face $-1 $70 $71 $16 $-1 $72 reversed single #
loop $-1 $-1 $73 $28 #
plane-surface $-1 -28.895183371375737 -33.640728849503425 0 1 0 0 0 0 -1 forward_v I I I I #
coedge $-1 $74 $75 $76 $77 forward $29 $-1 #
face $-1 $78 $79 $17 $-1 $80 forward single #
loop $-1 $-1 $81 $31 #
plane-surface $-1 36.542431459059628 -19.592709178621256 30.822535175307308 0 0.52991927123019833 0.84804809178421925 1 0 0 forward_v I I I I #
coedge $-1 $82 $83 $84 $85 reversed $32 $-1 #
face $-1 $86 $87 $18 $-1 $88 forward single #
loop $-1 $89 $90 $34 #
cone-surface $-1 31.250336864136244 16.612777941060298 2.1685778476903792 0 -0.52991927123019833 -0.84804809178421925 1.25 0 0 1 I I -0.70710678118654746 0.70710678118654746 1.25 forward I I I I #
loop $-1 $-1 $91 $23 #
coedge $-1 $56 $56 $92 $93 reversed $35 $-1 #
face $-1 $94 $95 $19 $-1 $96 reversed single #
loop $-1 $97 $98 $37 #
cone-surface $-1 41.834526053982998 16.612777941060298 2.1685778476903792 0 -0.52991927123019833 -0.84804809178421925 1.25 0 0 1 I I -0.70710678118654746 0.70710678118654746 1.25 forward I I I I #
loop $-1 $-1 $99 $24 #
coedge $-1 $61 $61 $100 $101 reversed $38 $-1 #
face $-1 $102 $103 $15 $-1 $104 reversed single #
loop $-1 $-1 $105 $40 #
plane-surface $-1 0 -28.146554515184977 0 0 1 0 0 0 1 forward_v I I I I #
coedge $-1 $106 $107 $108 $109 forward $41 $-1 #
coedge $-1 $110 $43 $111 $112 forward $26 $-1 #
coedge $-1 $43 $110 $113 $114 forward $26 $-1 #
coedge $-1 $115 $116 $43 $69 reversed $117 $-1 #
edge $-1 $118 -28.146554515184977 $119 28.146554515184977 $68 $120 forward 7 unknown #
face $-1 $121 $122 $16 $-1 $123 reversed single #
loop $-1 $-1 $124 $44 #
plane-surface $-1 -24.852307499168603 -33.640728849503425 0 -1 0 0 0 0 1 forward_v I I I I #
coedge $-1 $125 $126 $127 $128 reversed $45 $-1 #
coedge $-1 $129 $47 $130 $131 reversed $29 $-1 #
coedge $-1 $47 $129 $132 $133 reversed $29 $-1 #
coedge $-1 $126 $125 $47 $77 reversed $45 $-1 #
edge $-1 $134 -12.019172340689451 $135 12.019172340689451 $76 $136 forward 7 unknown #
face $-1 $137 $138 $17 $-1 $139 reversed single #
loop $-1 $-1 $140 $48 #
plane-surface $-1 0 0 12.019172340689451 0 0 1 1 0 0 forward_v I I I I #
coedge $-1 $141 $142 $140 $143 reversed $49 $-1 #
coedge $-1 $83 $51 $142 $144 forward $32 $-1 #
coedge $-1 $51 $82 $145 $146 reversed $32 $-1 #
coedge $-1 $147 $140 $51 $85 forward $79 $-1 #
edge $-1 $148 -5.6127831089372577 $149 12.034810331010764 $84 $150 forward 7 unknown #
face $-1 $151 $152 $18 $-1 $153 forward single #
loop $-1 $-1 $154 $52 #
plane-surface $-1 24.194210737571751 32.223488368348427 113.74578375090589 1 0 0 0 -0.52991927123019833 -0.84804809178421925 forward_v I I I I #
loop $-1 $-1 $155 $34 #
coedge $-1 $90 $90 $91 $156 forward $53 $-1 #
coedge $-1 $91 $91 $90 $156 reversed $55 $-1 #
coedge $-1 $92 $92 $56 $93 forward $152 $-1 #
edge $-1 $157 7.5306057742380742e-016 $157 6.2831853071796013 $92 $158 forward 7 unknown #
face $-1 $159 $160 $19 $-1 $161 reversed single #
loop $-1 $162 $163 $57 #
cone-surface $-1 31.250336864136244 18.298967412654513 4.8670450320455814 0 -0.52991927123019833 -0.84804809178421925 2.5 0 0 1 I I 0 1 2.5 forward I I I I #
loop $-1 $-1 $164 $37 #
coedge $-1 $98 $98 $99 $165 forward $58 $-1 #
coedge $-1 $99 $99 $98 $165 reversed $60 $-1 #
coedge $-1 $100 $100 $61 $101 forward $166 $-1 #
edge $-1 $167 7.5306057742380742e-016 $167 6.2831853071796013 $100 $168 forward 7 unknown #
face $-1 $169 $170 $15 $-1 $171 reversed single #
loop $-1 $-1 $172 $62 #
plane-surface $-1 -48.890652180547505 0 0 1 0 0 0 0 -1 forward_v I I I I #
coedge $-1 $173 $113 $174 $175 forward $63 $-1 #
coedge $-1 $176 $65 $173 $177 forward $41 $-1 #
coedge $-1 $65 $176 $178 $179 forward $41 $-1 #
coedge $-1 $116 $115 $65 $109 reversed $117 $-1 #
edge $-1 $180 -28.146554515184977 $181 28.146554515184977 $108 $182 forward 7 unknown #
coedge $-1 $67 $66 $183 $184 forward $26 $-1 #
coedge $-1 $185 $186 $66 $112 reversed $170 $-1 #
edge $-1 $119 -48.890652180547505 $187 48.890652180547505 $111 $188 forward 7 unknown #
coedge $-1 $105 $189 $67 $114 reversed $63 $-1 #
edge $-1 $190 -48.890652180547505 $118 48.890652180547505 $113 $191 forward 7 unknown #
coedge $-1 $108 $68 $189 $192 forward $117 $-1 #
coedge $-1 $68 $108 $185 $193 reversed $117 $-1 #
loop $-1 $-1 $115 $169 #
vertex $-1 $69 $194 #
vertex $-1 $69 $195 #
straight-curve $-1 48.890652180547505 0 12.019172340689451 0 1 0 I I #
face $-1 $196 $197 $16 $-1 $123 reversed single #
loop $-1 $-1 $127 $70 #
plane-surface $-1 0 -28.146554515184977 0 0 1 0 0 0 1 forward_v I I I I #
coedge $-1 $198 $199 $129 $200 forward $71 $-1 #
coedge $-1 $76 $73 $201 $202 reversed $45 $-1 #
coedge $-1 $73 $76 $203 $204 reversed $45 $-1 #
coedge $-1 $205 $206 $73 $128 forward $122 $-1 #
edge $-1 $207 -12.019172340689451 $208 12.019172340689451 $127 $209 forward 7 unknown #
coedge $-1 $75 $74 $124 $200 reversed $29 $-1 #
coedge $-1 $201 $210 $74 $131 forward $211 $-1 #
edge $-1 $212 -2.0214379361035668 $135 2.0214379361035668 $74 $213 forward 7 unknown #
coedge $-1 $214 $203 $75 $133 forward $215 $-1 #
edge $-1 $134 -2.0214379361035668 $216 2.0214379361035668 $75 $217 forward 7 unknown #
vertex $-1 $204 $218 #
vertex $-1 $202 $219 #
straight-curve $-1 -28.895183371375737 -39.134903183821876 0 0 0 -1 I I #
face $-1 $220 $221 $17 $-1 $222 reversed single #
loop $-1 $-1 $145 $78 #
plane-surface $-1 0 28.146554515184977 0 0 -1 0 0 0 -1 forward_v I I I I #
coedge $-1 $84 $223 $81 $143 forward $79 $-1 #
coedge $-1 $224 $81 $225 $226 reversed $49 $-1 #
coedge $-1 $81 $224 $82 $144 reversed $49 $-1 #
edge $-1 $227 -30.619436451017691 $148 -5.9229950080419371 $140 $228 forward 7 unknown #
edge $-1 $148 35.483447867382097 $229 56.293109030369955 $82 $230 forward 7 unknown #
coedge $-1 $231 $232 $83 $146 forward $138 $-1 #
edge $-1 $149 44.853719534763492 $229 55.881160012801374 $145 $233 forward 7 unknown #
coedge $-1 $234 $84 $232 $235 forward $79 $-1 #
vertex $-1 $143 $236 #
vertex $-1 $235 $237 #
straight-curve $-1 24.194210737571751 16.111744184174214 12.019172340689451 0 1 0 I I #
face $-1 $238 $239 $18 $-1 $240 forward single #
loop $-1 $241 $92 $86 #
plane-surface $-1 36.542431459059628 -19.592709178621256 30.822535175307308 0 0.52991927123019833 0.84804809178421925 1 0 0 forward_v I I I I #
coedge $-1 $242 $243 $244 $245 reversed $87 $-1 #
coedge $-1 $155 $155 $-1 $246 forward $89 $-1 #
edge $-1 $247 0 $247 6.2831853071796004 $90 $248 forward 7 unknown #
vertex $-1 $93 $249 #
ellipse-curve $-1 31.250336864136244 19.322757795210975 6.5054521016705049 0 -0.52991927123019833 -0.84804809178421925 2.5 0 0 1 I I #
face $-1 $250 $251 $19 $-1 $252 forward single #
loop $-1 $253 $254 $94 #
cone-surface $-1 31.250336864136244 16.612777941060298 2.1685778476903792 0 -0.52991927123019833 -0.84804809178421925 1.25 0 0 1 I I -0.70710678118654746 0.70710678118654746 1.25 forward I I I I #
loop $-1 $-1 $255 $57 #
coedge $-1 $163 $163 $256 $257 reversed $95 $-1 #
coedge $-1 $164 $164 $-1 $258 forward $97 $-1 #
edge $-1 $259 0 $259 6.2831853071796004 $98 $260 forward 7 unknown #
loop $-1 $261 $100 $250 #
vertex $-1 $101 $262 #
ellipse-curve $-1 41.834526053982998 19.322757795210975 6.5054521016705049 0 -0.52991927123019833 -0.84804809178421925 2.5 0 0 1 I I #
face $-1 $-1 $117 $15 $-1 $263 reversed single #
loop $-1 $-1 $185 $102 #
plane-surface $-1 0 28.146554515184977 0 0 -1 0 0 0 -1 forward_v I I I I #
coedge $-1 $264 $183 $186 $265 forward $103 $-1 #
coedge $-1 $189 $105 $106 $177 reversed $63 $-1 #
coedge $-1 $183 $264 $105 $175 reversed $103 $-1 #
edge $-1 $190 -12.019172340689451 $266 12.019172340689451 $174 $267 forward 7 unknown #
coedge $-1 $107 $106 $264 $268 forward $41 $-1 #
edge $-1 $181 -48.890652180547505 $266 48.890652180547505 $173 $269 forward 7 unknown #
coedge $-1 $186 $185 $107 $179 reversed $170 $-1 #
edge $-1 $270 -48.890652180547505 $180 48.890652180547505 $178 $271 forward 7 unknown #
vertex $-1 $109 $272 #
vertex $-1 $192 $273 #
straight-curve $-1 48.890652180547505 0 -12.019172340689451 0 -1 0 I I #
coedge $-1 $172 $174 $110 $184 reversed $103 $-1 #
edge $-1 $187 -28.146554515184977 $190 28.146554515184977 $183 $274 forward 7 unknown #
coedge $-1 $178 $111 $116 $193 forward $170 $-1 #
coedge $-1 $111 $178 $172 $265 reversed $170 $-1 #
vertex $-1 $112 $275 #
straight-curve $-1 0 28.146554515184977 12.019172340689451 -1 0 0 I I #
coedge $-1 $113 $173 $115 $192 reversed $63 $-1 #
vertex $-1 $184 $276 #
straight-curve $-1 0 -28.146554515184977 12.019172340689451 1 0 0 I I #
edge $-1 $118 -12.019172340689451 $181 12.019172340689451 $115 $277 forward 7 unknown #
edge $-1 $119 -12.019172340689451 $180 12.019172340689451 $116 $278 forward 7 unknown #
point $-1 48.890652180547505 -28.146554515184977 12.019172340689451 #
point $-1 48.890652180547505 28.146554515184977 12.019172340689451 #
face $-1 $279 $215 $16 $-1 $280 forward single #
loop $-1 $-1 $281 $121 #
coedge $-1 $282 $124 $210 $283 reversed $71 $-1 #
coedge $-1 $124 $282 $214 $284 reversed $71 $-1 #
edge $-1 $216 -12.019172340689451 $212 12.019172340689451 $124 $285 forward 7 unknown #
coedge $-1 $286 $130 $125 $202 forward $211 $-1 #
edge $-1 $135 -5.4941743343184513 $207 5.4941743343184513 $125 $287 forward 7 unknown #
coedge $-1 $132 $288 $126 $204 forward $215 $-1 #
edge $-1 $208 -5.4941743343184513 $134 5.4941743343184513 $126 $289 forward 7 unknown #
coedge $-1 $290 $127 $288 $291 reversed $122 $-1 #
coedge $-1 $127 $290 $286 $292 reversed $122 $-1 #
vertex $-1 $292 $293 #
vertex $-1 $204 $294 #
straight-curve $-1 -28.895183371375737 -28.146554515184977 0 0 0 1 I I #
coedge $-1 $130 $295 $198 $283 forward $211 $-1 #
loop $-1 $-1 $296 $279 #
vertex $-1 $200 $297 #
straight-curve $-1 -26.87374543527217 -39.134903183821876 -12.019172340689451 -1 0 0 I I #
coedge $-1 $298 $132 $199 $284 forward $215 $-1 #
loop $-1 $-1 $299 $196 #
vertex $-1 $284 $300 #
straight-curve $-1 -26.87374543527217 -39.134903183821876 12.019172340689451 1 0 0 I I #
point $-1 -28.895183371375737 -39.134903183821876 12.019172340689451 #
point $-1 -28.895183371375737 -39.134903183821876 -12.019172340689451 #
face $-1 $301 $302 $17 $-1 $303 reversed single #
loop $-1 $-1 $304 $137 #
plane-surface $-1 -26.87374543527217 -39.134903183821876 0 0 1 0 0 0 1 forward_v I I I I #
coedge $-1 $140 $305 $306 $307 forward $79 $-1 #
coedge $-1 $142 $141 $231 $308 reversed $49 $-1 #
coedge $-1 $306 $309 $141 $226 forward $310 $-1 #
edge $-1 $311 -39.818601525680492 $227 -19.008940362692641 $225 $312 forward 7 unknown #
vertex $-1 $226 $313 #
straight-curve $-1 18.271215729529814 10.498961075236959 12.019172340689449 -1 0 0 I I #
vertex $-1 $308 $314 #
straight-curve $-1 24.194210737571751 -19.592709178621256 30.822535175307308 0 0.84804809178421925 -0.52991927123019833 I I #
coedge $-1 $315 $145 $224 $308 forward $138 $-1 #
coedge $-1 $145 $316 $147 $235 reversed $138 $-1 #
straight-curve $-1 24.194210737571751 28.146554515184977 56.872891875452943 0 0 -1 I I #
coedge $-1 $317 $147 $318 $319 forward $79 $-1 #
edge $-1 $149 -24.194210737571751 $320 48.890652180547505 $232 $321 forward 7 unknown #
point $-1 24.194210737571751 10.498961075236956 12.019172340689451 #
point $-1 24.194210737571751 28.146554515184977 12.019172340689451 #
face $-1 $322 $323 $18 $-1 $324 reversed single #
loop $-1 $-1 $325 $151 #
plane-surface $-1 0 0 12.019172340689451 0 0 1 1 0 0 forward_v I I I I #
loop $-1 $-1 $326 $86 #
coedge $-1 $243 $154 $327 $328 forward $87 $-1 #
coedge $-1 $154 $242 $329 $330 reversed $87 $-1 #
coedge $-1 $331 $325 $154 $245 forward $239 $-1 #
edge $-1 $332 -5.6127831089372577 $333 12.034810331010764 $244 $334 forward 7 unknown #
edge $-1 $335 1 $335 0 $155 $-1 forward 7 unknown #
vertex $-1 $156 $336 #
ellipse-curve $-1 31.250336864136244 17.275177030098046 3.2286379624206534 0 0.52991927123019833 0.84804809178421925 2.5 0 0 1 I I #
point $-1 33.750336864136244 19.322757795210975 6.5054521016705085 #
face $-1 $337 $166 $19 $-1 $338 forward single #
loop $-1 $-1 $339 $159 #
plane-surface $-1 24.194210737571751 32.223488368348427 113.74578375090589 1 0 0 0 -0.52991927123019833 -0.84804809178421925 forward_v I I I I #
loop $-1 $-1 $340 $94 #
coedge $-1 $254 $254 $255 $341 forward $160 $-1 #
coedge $-1 $255 $255 $254 $341 reversed $162 $-1 #
coedge $-1 $256 $256 $163 $257 forward $261 $-1 #
edge $-1 $342 7.5306057742380742e-016 $342 6.2831853071796013 $256 $343 forward 7 unknown #
edge $-1 $344 1 $344 0 $164 $-1 forward 7 unknown #
vertex $-1 $165 $345 #
ellipse-curve $-1 41.834526053982998 17.275177030098046 3.2286379624206534 0 0.52991927123019833 0.84804809178421925 2.5 0 0 1 I I #
loop $-1 $346 $256 $250 #
point $-1 44.334526053982998 19.322757795210975 6.5054521016705085 #
plane-surface $-1 48.890652180547505 0 0 -1 0 0 0 0 1 forward_v I I I I #
coedge $-1 $174 $172 $176 $268 reversed $103 $-1 #
edge $-1 $187 -12.019172340689451 $270 12.019172340689451 $186 $347 forward 7 unknown #
vertex $-1 $268 $348 #
straight-curve $-1 -48.890652180547505 -28.146554515184977 0 0 0 -1 I I #
edge $-1 $266 -28.146554515184977 $270 28.146554515184977 $264 $349 forward 7 unknown #
straight-curve $-1 0 -28.146554515184977 -12.019172340689451 -1 0 0 I I #
vertex $-1 $179 $350 #
straight-curve $-1 0 28.146554515184977 -12.019172340689451 1 0 0 I I #
point $-1 48.890652180547505 28.146554515184977 -12.019172340689451 #
point $-1 48.890652180547505 -28.146554515184977 -12.019172340689451 #
straight-curve $-1 -48.890652180547505 0 12.019172340689451 0 -1 0 I I #
point $-1 -48.890652180547505 28.146554515184977 12.019172340689451 #
point $-1 -48.890652180547505 -28.146554515184977 12.019172340689451 #
straight-curve $-1 48.890652180547505 -28.146554515184977 0 0 0 -1 I I #
straight-curve $-1 48.890652180547505 28.146554515184977 0 0 0 -1 I I #
face $-1 $351 $211 $16 $-1 $352 reversed single #
plane-surface $-1 0 0 12.019172340689451 0 0 1 1 0 0 forward_v I I I I #
coedge $-1 $353 $354 $282 $355 forward $197 $-1 #
coedge $-1 $199 $198 $281 $355 reversed $71 $-1 #
edge $-1 $356 -5.4941743343184513 $212 5.4941743343184513 $198 $357 forward 7 unknown #
edge $-1 $216 -5.4941743343184513 $358 5.4941743343184513 $199 $359 forward 7 unknown #
straight-curve $-1 -24.852307499168603 -39.134903183821876 0 0 0 -1 I I #
coedge $-1 $360 $201 $206 $292 forward $211 $-1 #
straight-curve $-1 -28.895183371375737 -33.640728849503425 -12.019172340689451 0 1 0 I I #
coedge $-1 $203 $361 $205 $291 forward $215 $-1 #
straight-curve $-1 -28.895183371375737 -33.640728849503425 12.019172340689451 0 -1 0 I I #
coedge $-1 $206 $205 $362 $363 forward $122 $-1 #
edge $-1 $364 -48.890652180547505 $208 -28.895183371375737 $205 $365 forward 7 unknown #
edge $-1 $207 28.895183371375737 $366 48.890652180547505 $206 $367 forward 7 unknown #
point $-1 -28.895183371375737 -28.146554515184974 -12.019172340689451 #
point $-1 -28.895183371375737 -28.146554515184974 12.019172340689451 #
coedge $-1 $210 $296 $353 $368 forward $211 $-1 #
coedge $-1 $295 $369 $370 $371 forward $211 $-1 #
point $-1 -24.852307499168603 -39.134903183821876 -12.019172340689451 #
coedge $-1 $299 $214 $354 $372 forward $215 $-1 #
coedge $-1 $373 $298 $374 $375 forward $215 $-1 #
point $-1 -24.852307499168603 -39.134903183821876 12.019172340689451 #
face $-1 $376 $377 $17 $-1 $378 reversed single #
loop $-1 $-1 $379 $220 #
plane-surface $-1 -28.895183371375737 -33.640728849503425 0 1 0 0 0 0 -1 forward_v I I I I #
coedge $-1 $380 $381 $382 $383 forward $221 $-1 #
coedge $-1 $223 $384 $385 $386 forward $79 $-1 #
coedge $-1 $387 $225 $223 $307 reversed $310 $-1 #
edge $-1 $388 -28.146554515184977 $227 10.498961075236956 $306 $389 forward 7 unknown #
edge $-1 $229 5.9229950080419371 $311 30.619436451017691 $231 $390 forward 7 unknown #
coedge $-1 $225 $391 $315 $392 reversed $310 $-1 #
loop $-1 $-1 $225 $393 #
vertex $-1 $392 $394 #
straight-curve $-1 48.890652180547505 -5.6215345261845622 22.09237616454584 0 -0.84804809178421925 0.52991927123019833 I I #
point $-1 48.890652180547505 10.498961075236956 12.019172340689451 #
point $-1 24.194210737571751 28.146554515184981 0.99173186265156943 #
coedge $-1 $395 $231 $309 $392 forward $138 $-1 #
coedge $-1 $232 $395 $396 $397 reversed $138 $-1 #
coedge $-1 $398 $234 $399 $400 forward $79 $-1 #
coedge $-1 $396 $401 $234 $319 reversed $402 $-1 #
edge $-1 $320 -28.146554515184977 $403 28.146554515184977 $318 $404 forward 7 unknown #
vertex $-1 $235 $405 #
straight-curve $-1 0 28.146554515184977 12.019172340689451 -1 0 0 I I #
face $-1 $406 $407 $18 $-1 $408 reversed single #
loop $-1 $-1 $329 $238 #
plane-surface $-1 0 28.146554515184977 0 0 -1 0 0 0 -1 forward_v I I I I #
coedge $-1 $244 $409 $326 $410 forward $239 $-1 #
coedge $-1 $411 $327 $325 $410 reversed $241 $-1 #
coedge $-1 $326 $412 $242 $328 reversed $241 $-1 #
edge $-1 $332 35.483447867382097 $413 56.293109030369955 $242 $414 forward 7 unknown #
coedge $-1 $415 $416 $243 $330 forward $323 $-1 #
edge $-1 $333 44.853719534763492 $413 55.881160012801374 $329 $417 forward 7 unknown #
coedge $-1 $418 $244 $416 $419 forward $239 $-1 #
vertex $-1 $410 $420 #
vertex $-1 $419 $421 #
straight-curve $-1 24.194210737571751 16.111744184174214 12.019172340689451 0 1 0 I I #
vertex $-1 $246 $422 #
point $-1 33.750336864136244 17.275177030098046 3.2286379624206534 #
face $-1 $423 $424 $19 $-1 $425 forward single #
plane-surface $-1 36.542431459059628 -19.592709178621256 30.822535175307308 0 0.52991927123019833 0.84804809178421925 1 0 0 forward_v I I I I #
coedge $-1 $426 $427 $428 $429 reversed $251 $-1 #
coedge $-1 $340 $340 $-1 $430 forward $253 $-1 #
edge $-1 $431 0 $431 6.2831853071796004 $254 $432 forward 7 unknown #
vertex $-1 $257 $433 #
ellipse-curve $-1 31.250336864136244 19.322757795210975 6.5054521016705049 0 -0.52991927123019833 -0.84804809178421925 2.5 0 0 1 I I #
vertex $-1 $258 $434 #
point $-1 44.334526053982998 17.275177030098046 3.2286379624206534 #
loop $-1 $-1 $435 $250 #
straight-curve $-1 -48.890652180547505 28.146554515184977 0 0 0 -1 I I #
point $-1 -48.890652180547505 -28.146554515184977 -12.019172340689451 #
straight-curve $-1 -48.890652180547505 0 -12.019172340689451 0 1 0 I I #
point $-1 -48.890652180547505 28.146554515184977 -12.019172340689451 #
face $-1 $436 $437 $16 $-1 $438 reversed single #
plane-surface $-1 0 0 -12.019172340689451 0 0 1 1 0 0 forward_v I I I I #
coedge $-1 $439 $281 $295 $368 reversed $197 $-1 #
coedge $-1 $281 $439 $298 $372 reversed $197 $-1 #
edge $-1 $358 -12.019172340689451 $356 12.019172340689451 $281 $440 forward 7 unknown #
vertex $-1 $283 $441 #
straight-curve $-1 -24.852307499168603 -33.640728849503425 -12.019172340689451 0 -1 0 I I #
vertex $-1 $372 $442 #
straight-curve $-1 -24.852307499168603 -33.640728849503425 12.019172340689451 0 1 0 I I #
coedge $-1 $369 $286 $443 $444 forward $211 $-1 #
coedge $-1 $288 $373 $445 $446 forward $215 $-1 #
coedge $-1 $445 $443 $290 $363 reversed $437 $-1 #
edge $-1 $364 -12.019172340689451 $366 12.019172340689451 $362 $447 forward 7 unknown #
vertex $-1 $446 $448 #
straight-curve $-1 0 -28.146554515184977 12.019172340689451 1 0 0 I I #
vertex $-1 $444 $449 #
straight-curve $-1 0 -28.146554515184977 -12.019172340689451 -1 0 0 I I #
edge $-1 $450 -48.890652180547505 $356 24.852307499168603 $353 $367 forward 7 unknown #
coedge $-1 $296 $360 $451 $452 forward $211 $-1 #
coedge $-1 $453 $454 $296 $371 reversed $455 $-1 #
edge $-1 $456 -28.146554515184977 $450 28.146554515184977 $370 $457 forward 7 unknown #
edge $-1 $358 -24.852307499168603 $458 48.890652180547505 $354 $365 forward 7 unknown #
coedge $-1 $361 $299 $459 $460 forward $215 $-1 #
coedge $-1 $454 $453 $299 $375 reversed $455 $-1 #
edge $-1 $458 -28.146554515184977 $461 28.146554515184977 $374 $462 forward 7 unknown #
face $-1 $463 $464 $17 $-1 $465 reversed single #
loop $-1 $-1 $466 $301 #
plane-surface $-1 -24.852307499168603 -33.640728849503425 0 -1 0 0 0 0 1 forward_v I I I I #
coedge $-1 $467 $468 $469 $470 reversed $302 $-1 #
coedge $-1 $471 $304 $472 $473 reversed $221 $-1 #
coedge $-1 $304 $471 $474 $475 reversed $221 $-1 #
coedge $-1 $468 $467 $304 $383 reversed $302 $-1 #
edge $-1 $476 -12.019172340689451 $477 12.019172340689451 $382 $478 forward 7 unknown #
coedge $-1 $305 $474 $479 $480 forward $79 $-1 #
coedge $-1 $481 $482 $305 $386 reversed $483 $-1 #
edge $-1 $484 -24.852307499168603 $388 48.890652180547505 $385 $485 forward 7 unknown #
coedge $-1 $391 $306 $482 $486 forward $310 $-1 #
vertex $-1 $307 $487 #
straight-curve $-1 48.890652180547505 0 12.019172340689451 0 1 0 I I #
straight-curve $-1 18.271215729529814 28.146554515184981 0.99173186265156588 1 0 0 I I #
coedge $-1 $309 $387 $488 $489 reversed $310 $-1 #
edge $-1 $311 -0.99173186265156943 $490 12.019172340689451 $309 $491 forward 7 unknown #
face $-1 $-1 $310 $17 $-1 $492 reversed single #
point $-1 48.890652180547505 28.146554515184981 0.99173186265156943 #
coedge $-1 $316 $315 $493 $494 reversed $138 $-1 #
coedge $-1 $495 $318 $316 $397 forward $402 $-1 #
edge $-1 $320 -12.019172340689451 $496 12.019172340689451 $316 $497 forward 7 unknown #
coedge $-1 $474 $317 $468 $498 forward $79 $-1 #
coedge $-1 $499 $469 $317 $400 reversed $464 $-1 #
edge $-1 $403 -48.890652180547505 $500 -28.895183371375737 $399 $485 forward 7 unknown #
coedge $-1 $318 $495 $499 $501 reversed $402 $-1 #
loop $-1 $-1 $396 $502 #
vertex $-1 $319 $503 #
straight-curve $-1 -48.890652180547505 0 12.019172340689451 0 -1 0 I I #
point $-1 -48.890652180547505 28.146554515184977 12.019172340689451 #
face $-1 $504 $505 $18 $-1 $506 reversed single #
loop $-1 $-1 $507 $322 #
plane-surface $-1 -26.87374543527217 -39.134903183821876 0 0 1 0 0 0 1 forward_v I I I I #
coedge $-1 $325 $508 $509 $510 forward $239 $-1 #
edge $-1 $511 -30.619436451017691 $332 -5.9229950080419371 $325 $512 forward 7 unknown #
coedge $-1 $412 $326 $513 $514 reversed $241 $-1 #
coedge $-1 $327 $411 $415 $515 reversed $241 $-1 #
vertex $-1 $515 $516 #
straight-curve $-1 24.194210737571751 -19.592709178621256 30.822535175307308 0 0.84804809178421925 -0.52991927123019833 I I #
coedge $-1 $517 $329 $412 $515 forward $323 $-1 #
coedge $-1 $329 $518 $331 $419 reversed $323 $-1 #
straight-curve $-1 24.194210737571751 28.146554515184977 56.872891875452943 0 0 -1 I I #
coedge $-1 $519 $331 $520 $521 forward $239 $-1 #
edge $-1 $333 -24.194210737571751 $522 48.890652180547505 $416 $523 forward 7 unknown #
point $-1 24.194210737571751 10.498961075236956 12.019172340689451 #
point $-1 24.194210737571751 28.146554515184977 12.019172340689451 #
point $-1 31.250336864136244 15.950378852022549 1.108517732960105 #
face $-1 $524 $525 $19 $-1 $526 reversed single #
loop $-1 $-1 $527 $337 #
plane-surface $-1 0 0 12.019172340689451 0 0 1 1 0 0 forward_v I I I I #
coedge $-1 $427 $339 $528 $529 forward $251 $-1 #
coedge $-1 $339 $426 $530 $531 reversed $251 $-1 #
coedge $-1 $532 $527 $339 $429 forward $424 $-1 #
edge $-1 $533 -5.6127831089372577 $534 12.034810331010764 $428 $535 forward 7 unknown #
edge $-1 $536 1 $536 0 $340 $-1 forward 7 unknown #
vertex $-1 $341 $537 #
ellipse-curve $-1 31.250336864136244 17.275177030098046 3.2286379624206534 0 0.52991927123019833 0.84804809178421925 2.5 0 0 1 I I #
point $-1 33.750336864136244 19.322757795210975 6.5054521016705085 #
point $-1 41.834526053982998 15.950378852022549 1.108517732960105 #
coedge $-1 $538 $528 $527 $539 reversed $346 $-1 #
face $-1 $540 $541 $16 $-1 $542 reversed single #
loop $-1 $-1 $543 $351 #
plane-surface $-1 -48.890652180547505 0 0 1 0 0 0 0 -1 forward_v I I I I #
coedge $-1 $354 $353 $454 $544 reversed $197 $-1 #
straight-curve $-1 -24.852307499168603 -28.146554515184977 0 0 0 -1 I I #
point $-1 -24.852307499168603 -28.146554515184974 -12.019172340689451 #
point $-1 -24.852307499168603 -28.146554515184974 12.019172340689451 #
coedge $-1 $362 $543 $360 $444 reversed $437 $-1 #
edge $-1 $366 -28.146554515184977 $545 28.146554515184977 $443 $546 forward 7 unknown #
coedge $-1 $543 $362 $361 $446 reversed $437 $-1 #
edge $-1 $547 -28.146554515184977 $364 28.146554515184977 $445 $548 forward 7 unknown #
straight-curve $-1 -48.890652180547505 -28.146554515184977 0 0 0 -1 I I #
point $-1 -48.890652180547505 -28.146554515184977 12.019172340689451 #
point $-1 -48.890652180547505 -28.146554515184977 -12.019172340689451 #
vertex $-1 $544 $549 #
coedge $-1 $550 $551 $369 $452 reversed $541 $-1 #
edge $-1 $545 -48.890652180547505 $456 48.890652180547505 $451 $552 forward 7 unknown #
coedge $-1 $374 $370 $551 $553 reversed $455 $-1 #
coedge $-1 $370 $374 $439 $544 forward $455 $-1 #
loop $-1 $-1 $454 $540 #
vertex $-1 $371 $554 #
straight-curve $-1 48.890652180547505 0 -12.019172340689451 0 -1 0 I I #
vertex $-1 $375 $555 #
coedge $-1 $551 $550 $373 $460 reversed $541 $-1 #
edge $-1 $461 -48.890652180547505 $547 48.890652180547505 $459 $556 forward 7 unknown #
vertex $-1 $375 $557 #
straight-curve $-1 48.890652180547505 0 12.019172340689451 0 1 0 I I #
face $-1 $558 $483 $17 $-1 $465 reversed single #
loop $-1 $-1 $469 $376 #
plane-surface $-1 0 -28.146554515184977 0 0 1 0 0 0 1 forward_v I I I I #
coedge $-1 $559 $479 $471 $560 forward $377 $-1 #
coedge $-1 $382 $379 $561 $562 reversed $302 $-1 #
coedge $-1 $379 $382 $398 $498 reversed $302 $-1 #
coedge $-1 $399 $563 $379 $470 forward $464 $-1 #
edge $-1 $564 -12.019172340689451 $500 12.019172340689451 $469 $565 forward 7 unknown #
coedge $-1 $381 $380 $466 $560 reversed $221 $-1 #
coedge $-1 $561 $566 $380 $473 forward $567 $-1 #
edge $-1 $568 -2.0214379361035668 $477 2.0214379361035668 $380 $569 forward 7 unknown #
coedge $-1 $384 $398 $381 $475 forward $79 $-1 #
edge $-1 $476 -2.0214379361035668 $570 2.0214379361035668 $381 $571 forward 7 unknown #
vertex $-1 $498 $572 #
vertex $-1 $562 $573 #
straight-curve $-1 -28.895183371375737 -39.134903183821876 0 0 0 -1 I I #
coedge $-1 $466 $574 $384 $480 reversed $377 $-1 #
edge $-1 $570 -5.4941743343184513 $484 5.4941743343184513 $479 $575 forward 7 unknown #
coedge $-1 $576 $385 $574 $577 forward $483 $-1 #
coedge $-1 $385 $576 $387 $486 reversed $483 $-1 #
loop $-1 $-1 $481 $463 #
vertex $-1 $386 $578 #
straight-curve $-1 0 -28.146554515184977 12.019172340689451 1 0 0 I I #
edge $-1 $388 -12.019172340689451 $579 12.019172340689451 $387 $580 forward 7 unknown #
point $-1 48.890652180547505 -28.146554515184977 12.019172340689451 #
coedge $-1 $581 $493 $391 $489 forward $567 $-1 #
edge $-1 $490 -28.146554515184977 $579 28.146554515184977 $391 $582 forward 7 unknown #
vertex $-1 $489 $583 #
straight-curve $-1 48.890652180547505 28.146554515184977 0 0 0 -1 I I #
plane-surface $-1 48.890652180547505 0 0 -1 0 0 0 0 1 forward_v I I I I #
coedge $-1 $488 $584 $395 $494 forward $567 $-1 #
edge $-1 $496 -48.890652180547505 $490 48.890652180547505 $395 $585 forward 7 unknown #
coedge $-1 $401 $396 $584 $586 reversed $402 $-1 #
vertex $-1 $494 $587 #
straight-curve $-1 -48.890652180547505 28.146554515184977 0 0 0 -1 I I #
edge $-1 $500 -5.4941743343184513 $476 5.4941743343184513 $468 $588 forward 7 unknown #
coedge $-1 $563 $399 $401 $501 forward $464 $-1 #
vertex $-1 $498 $589 #
edge $-1 $403 -12.019172340689451 $590 12.019172340689451 $401 $591 forward 7 unknown #
face $-1 $393 $402 $17 $-1 $592 reversed single #
point $-1 -48.890652180547505 -28.146554515184977 12.019172340689451 #
face $-1 $593 $594 $18 $-1 $595 reversed single #
loop $-1 $-1 $596 $406 #
plane-surface $-1 -28.895183371375737 -33.640728849503425 0 1 0 0 0 0 -1 forward_v I I I I #
coedge $-1 $597 $598 $599 $600 forward $407 $-1 #
coedge $-1 $409 $601 $602 $603 forward $239 $-1 #
coedge $-1 $604 $513 $409 $510 reversed $605 $-1 #
edge $-1 $606 -28.146554515184977 $511 10.498961075236956 $509 $607 forward 7 unknown #
vertex $-1 $514 $608 #
straight-curve $-1 18.271215729529814 10.498961075236959 12.019172340689449 -1 0 0 I I #
coedge $-1 $509 $609 $411 $514 forward $605 $-1 #
edge $-1 $610 -39.818601525680492 $511 -19.008940362692641 $513 $611 forward 7 unknown #
edge $-1 $413 5.9229950080419371 $610 30.619436451017691 $415 $612 forward 7 unknown #
point $-1 24.194210737571751 28.146554515184981 0.99173186265156943 #
coedge $-1 $613 $415 $609 $614 forward $323 $-1 #
coedge $-1 $416 $613 $615 $616 reversed $323 $-1 #
coedge $-1 $617 $418 $618 $619 forward $239 $-1 #
coedge $-1 $615 $620 $418 $521 reversed $621 $-1 #
edge $-1 $522 -28.146554515184977 $622 28.146554515184977 $520 $623 forward 7 unknown #
vertex $-1 $419 $624 #
straight-curve $-1 0 28.146554515184977 12.019172340689451 -1 0 0 I I #
face $-1 $625 $626 $19 $-1 $627 reversed single #
loop $-1 $-1 $530 $423 #
plane-surface $-1 0 28.146554515184977 0 0 -1 0 0 0 -1 forward_v I I I I #
coedge $-1 $428 $628 $435 $539 forward $424 $-1 #
coedge $-1 $435 $629 $426 $529 reversed $346 $-1 #
edge $-1 $533 35.483447867382097 $630 56.293109030369955 $426 $631 forward 7 unknown #
coedge $-1 $632 $633 $427 $531 forward $525 $-1 #
edge $-1 $534 44.853719534763492 $630 55.881160012801374 $530 $634 forward 7 unknown #
coedge $-1 $635 $428 $633 $636 forward $424 $-1 #
vertex $-1 $539 $637 #
vertex $-1 $636 $638 #
straight-curve $-1 24.194210737571751 16.111744184174214 12.019172340689451 0 1 0 I I #
vertex $-1 $430 $639 #
point $-1 33.750336864136244 17.275177030098046 3.2286379624206534 #
coedge $-1 $629 $435 $640 $641 reversed $346 $-1 #
edge $-1 $642 -30.619436451017691 $533 -5.9229950080419371 $527 $643 forward 7 unknown #
face $-1 $-1 $455 $16 $-1 $644 reversed single #
loop $-1 $-1 $551 $436 #
plane-surface $-1 0 28.146554515184977 0 0 -1 0 0 0 -1 forward_v I I I I #
coedge $-1 $443 $445 $550 $645 forward $437 $-1 #
edge $-1 $458 -12.019172340689451 $450 12.019172340689451 $454 $646 forward 7 unknown #
vertex $-1 $452 $647 #
straight-curve $-1 -48.890652180547505 0 -12.019172340689451 0 1 0 I I #
vertex $-1 $460 $648 #
straight-curve $-1 -48.890652180547505 0 12.019172340689451 0 -1 0 I I #
point $-1 48.890652180547505 -28.146554515184977 -12.019172340689451 #
coedge $-1 $459 $451 $543 $645 reversed $541 $-1 #
coedge $-1 $451 $459 $453 $553 forward $541 $-1 #
straight-curve $-1 0 28.146554515184977 -12.019172340689451 1 0 0 I I #
edge $-1 $461 -12.019172340689451 $456 12.019172340689451 $453 $649 forward 7 unknown #
point $-1 48.890652180547505 28.146554515184977 -12.019172340689451 #
point $-1 48.890652180547505 -28.146554515184977 12.019172340689451 #
straight-curve $-1 0 28.146554515184977 12.019172340689451 -1 0 0 I I #
point $-1 48.890652180547505 28.146554515184977 12.019172340689451 #
face $-1 $502 $567 $17 $-1 $650 reversed single #
coedge $-1 $574 $466 $566 $651 reversed $377 $-1 #
edge $-1 $570 -12.019172340689451 $568 12.019172340689451 $466 $652 forward 7 unknown #
coedge $-1 $653 $472 $467 $562 forward $567 $-1 #
edge $-1 $477 -5.4941743343184513 $564 5.4941743343184513 $467 $654 forward 7 unknown #
coedge $-1 $469 $499 $653 $655 reversed $464 $-1 #
vertex $-1 $655 $656 #
straight-curve $-1 -28.895183371375737 -28.146554515184977 0 0 0 1 I I #
coedge $-1 $472 $581 $559 $651 forward $567 $-1 #
loop $-1 $-1 $488 $558 #
vertex $-1 $560 $657 #
straight-curve $-1 -26.87374543527217 -39.134903183821876 -12.019172340689451 -1 0 0 I I #
vertex $-1 $480 $658 #
straight-curve $-1 -26.87374543527217 -39.134903183821876 12.019172340689451 1 0 0 I I #
point $-1 -28.895183371375737 -39.134903183821876 12.019172340689451 #
point $-1 -28.895183371375737 -39.134903183821876 -12.019172340689451 #
coedge $-1 $479 $559 $481 $577 reversed $377 $-1 #
straight-curve $-1 -24.852307499168603 -33.640728849503425 12.019172340689451 0 1 0 I I #
coedge $-1 $482 $481 $581 $659 reversed $483 $-1 #
edge $-1 $484 -12.019172340689451 $660 12.019172340689451 $481 $661 forward 7 unknown #
point $-1 -24.852307499168603 -28.146554515184974 12.019172340689451 #
vertex $-1 $486 $662 #
straight-curve $-1 48.890652180547505 -28.146554515184977 0 0 0 -1 I I #
coedge $-1 $566 $488 $576 $659 forward $567 $-1 #
straight-curve $-1 48.890652180547505 0 -12.019172340689451 0 -1 0 I I #
point $-1 48.890652180547505 28.146554515184977 -12.019172340689451 #
coedge $-1 $493 $653 $495 $586 forward $567 $-1 #
straight-curve $-1 0 28.146554515184977 -12.019172340689451 1 0 0 I I #
edge $-1 $590 -28.146554515184977 $496 28.146554515184977 $495 $663 forward 7 unknown #
point $-1 -48.890652180547505 28.146554515184977 -12.019172340689451 #
straight-curve $-1 -28.895183371375737 -33.640728849503425 12.019172340689451 0 -1 0 I I #
point $-1 -28.895183371375737 -28.146554515184974 12.019172340689451 #
vertex $-1 $586 $664 #
straight-curve $-1 -48.890652180547505 -28.146554515184977 0 0 0 -1 I I #
plane-surface $-1 -48.890652180547505 0 0 1 0 0 0 0 -1 forward_v I I I I #
face $-1 $665 $666 $18 $-1 $667 reversed single #
loop $-1 $-1 $668 $504 #
plane-surface $-1 -24.852307499168603 -33.640728849503425 0 -1 0 0 0 0 1 forward_v I I I I #
coedge $-1 $669 $670 $671 $672 reversed $505 $-1 #
coedge $-1 $673 $507 $674 $675 reversed $407 $-1 #
coedge $-1 $507 $673 $676 $677 reversed $407 $-1 #
coedge $-1 $670 $669 $507 $600 reversed $505 $-1 #
edge $-1 $678 -12.019172340689451 $679 12.019172340689451 $599 $680 forward 7 unknown #
coedge $-1 $508 $676 $681 $682 forward $239 $-1 #
coedge $-1 $683 $684 $508 $603 reversed $685 $-1 #
edge $-1 $686 -24.852307499168603 $606 48.890652180547505 $602 $687 forward 7 unknown #
coedge $-1 $688 $509 $684 $689 forward $605 $-1 #
loop $-1 $-1 $513 $690 #
vertex $-1 $510 $691 #
straight-curve $-1 48.890652180547505 0 12.019172340689451 0 1 0 I I #
point $-1 48.890652180547505 10.498961075236956 12.019172340689451 #
coedge $-1 $513 $688 $517 $614 reversed $605 $-1 #
vertex $-1 $614 $692 #
straight-curve $-1 48.890652180547505 -5.6215345261845622 22.09237616454584 0 -0.84804809178421925 0.52991927123019833 I I #
straight-curve $-1 18.271215729529814 28.146554515184981 0.99173186265156588 1 0 0 I I #
coedge $-1 $518 $517 $693 $694 reversed $323 $-1 #
edge $-1 $610 -0.99173186265156943 $695 12.019172340689451 $609 $696 forward 7 unknown #
coedge $-1 $697 $520 $518 $616 forward $621 $-1 #
edge $-1 $522 -12.019172340689451 $698 12.019172340689451 $518 $699 forward 7 unknown #
coedge $-1 $676 $519 $670 $700 forward $239 $-1 #
coedge $-1 $701 $671 $519 $619 reversed $666 $-1 #
edge $-1 $622 -48.890652180547505 $702 -28.895183371375737 $618 $687 forward 7 unknown #
coedge $-1 $520 $697 $701 $703 reversed $621 $-1 #
loop $-1 $-1 $615 $704 #
vertex $-1 $521 $705 #
straight-curve $-1 -48.890652180547505 0 12.019172340689451 0 -1 0 I I #
point $-1 -48.890652180547505 28.146554515184977 12.019172340689451 #
face $-1 $706 $707 $19 $-1 $708 reversed single #
loop $-1 $-1 $709 $524 #
plane-surface $-1 -26.87374543527217 -39.134903183821876 0 0 1 0 0 0 1 forward_v I I I I #
coedge $-1 $527 $710 $711 $712 forward $424 $-1 #
coedge $-1 $528 $538 $632 $713 reversed $346 $-1 #
vertex $-1 $713 $714 #
straight-curve $-1 24.194210737571751 -19.592709178621256 30.822535175307308 0 0.84804809178421925 -0.52991927123019833 I I #
coedge $-1 $715 $530 $629 $713 forward $525 $-1 #
coedge $-1 $530 $716 $532 $636 reversed $525 $-1 #
straight-curve $-1 24.194210737571751 28.146554515184977 56.872891875452943 0 0 -1 I I #
coedge $-1 $717 $532 $718 $719 forward $424 $-1 #
edge $-1 $534 -24.194210737571751 $720 48.890652180547505 $633 $721 forward 7 unknown #
point $-1 24.194210737571751 10.498961075236956 12.019172340689451 #
point $-1 24.194210737571751 28.146554515184977 12.019172340689451 #
point $-1 31.250336864136244 15.950378852022549 1.108517732960105 #
coedge $-1 $711 $722 $538 $641 forward $723 $-1 #
edge $-1 $724 -39.818601525680492 $642 -19.008940362692641 $640 $725 forward 7 unknown #
vertex $-1 $641 $726 #
straight-curve $-1 18.271215729529814 10.498961075236959 12.019172340689449 -1 0 0 I I #
plane-surface $-1 48.890652180547505 0 0 -1 0 0 0 0 1 forward_v I I I I #
edge $-1 $547 -12.019172340689451 $545 12.019172340689451 $550 $727 forward 7 unknown #
straight-curve $-1 48.890652180547505 -28.146554515184977 0 0 0 -1 I I #
point $-1 -48.890652180547505 28.146554515184977 -12.019172340689451 #
point $-1 -48.890652180547505 28.146554515184977 12.019172340689451 #
straight-curve $-1 48.890652180547505 28.146554515184977 0 0 0 -1 I I #
plane-surface $-1 0 0 -12.019172340689451 0 0 1 1 0 0 forward_v I I I I #
edge $-1 $660 -5.4941743343184513 $568 5.4941743343184513 $559 $728 forward 7 unknown #
straight-curve $-1 -24.852307499168603 -39.134903183821876 0 0 0 -1 I I #
coedge $-1 $584 $561 $563 $655 forward $567 $-1 #
straight-curve $-1 -28.895183371375737 -33.640728849503425 -12.019172340689451 0 1 0 I I #
edge $-1 $564 28.895183371375737 $590 48.890652180547505 $563 $729 forward 7 unknown #
point $-1 -28.895183371375737 -28.146554515184974 -12.019172340689451 #
point $-1 -24.852307499168603 -39.134903183821876 -12.019172340689451 #
point $-1 -24.852307499168603 -39.134903183821876 12.019172340689451 #
edge $-1 $579 -48.890652180547505 $660 24.852307499168603 $576 $729 forward 7 unknown #
vertex $-1 $651 $730 #
straight-curve $-1 -24.852307499168603 -28.146554515184977 0 0 0 -1 I I #
point $-1 48.890652180547505 -28.146554515184977 -12.019172340689451 #
straight-curve $-1 -48.890652180547505 0 -12.019172340689451 0 1 0 I I #
point $-1 -48.890652180547505 -28.146554515184977 -12.019172340689451 #
face $-1 $731 $685 $18 $-1 $667 reversed single #
loop $-1 $-1 $671 $593 #
plane-surface $-1 0 -28.146554515184977 0 0 1 0 0 0 1 forward_v I I I I #
coedge $-1 $732 $681 $673 $733 forward $594 $-1 #
coedge $-1 $599 $596 $734 $735 reversed $505 $-1 #
coedge $-1 $596 $599 $617 $700 reversed $505 $-1 #
coedge $-1 $618 $736 $596 $672 forward $666 $-1 #
edge $-1 $737 -12.019172340689451 $702 12.019172340689451 $671 $738 forward 7 unknown #
coedge $-1 $598 $597 $668 $733 reversed $407 $-1 #
coedge $-1 $734 $739 $597 $675 forward $740 $-1 #
edge $-1 $741 -2.0214379361035668 $679 2.0214379361035668 $597 $742 forward 7 unknown #
coedge $-1 $601 $617 $598 $677 forward $239 $-1 #
edge $-1 $678 -2.0214379361035668 $743 2.0214379361035668 $598 $744 forward 7 unknown #
vertex $-1 $700 $745 #
vertex $-1 $735 $746 #
straight-curve $-1 -28.895183371375737 -39.134903183821876 0 0 0 -1 I I #
coedge $-1 $668 $747 $601 $682 reversed $594 $-1 #
edge $-1 $743 -5.4941743343184513 $686 5.4941743343184513 $681 $748 forward 7 unknown #
coedge $-1 $749 $602 $747 $750 forward $685 $-1 #
coedge $-1 $602 $749 $604 $689 reversed $685 $-1 #
loop $-1 $-1 $683 $665 #
vertex $-1 $603 $751 #
straight-curve $-1 0 -28.146554515184977 12.019172340689451 1 0 0 I I #
coedge $-1 $609 $604 $752 $753 reversed $605 $-1 #
edge $-1 $606 -12.019172340689451 $754 12.019172340689451 $604 $755 forward 7 unknown #
face $-1 $-1 $605 $18 $-1 $756 reversed single #
point $-1 48.890652180547505 -28.146554515184977 12.019172340689451 #
point $-1 48.890652180547505 28.146554515184981 0.99173186265156943 #
coedge $-1 $752 $757 $613 $694 forward $740 $-1 #
edge $-1 $698 -48.890652180547505 $695 48.890652180547505 $613 $758 forward 7 unknown #
vertex $-1 $753 $759 #
straight-curve $-1 48.890652180547505 28.146554515184977 0 0 0 -1 I I #
coedge $-1 $620 $615 $757 $760 reversed $621 $-1 #
vertex $-1 $694 $761 #
straight-curve $-1 -48.890652180547505 28.146554515184977 0 0 0 -1 I I #
edge $-1 $702 -5.4941743343184513 $678 5.4941743343184513 $670 $762 forward 7 unknown #
coedge $-1 $736 $618 $620 $703 forward $666 $-1 #
vertex $-1 $700 $763 #
edge $-1 $622 -12.019172340689451 $764 12.019172340689451 $620 $765 forward 7 unknown #
face $-1 $690 $621 $18 $-1 $766 reversed single #
point $-1 -48.890652180547505 -28.146554515184977 12.019172340689451 #
face $-1 $767 $768 $19 $-1 $769 reversed single #
loop $-1 $-1 $770 $625 #
plane-surface $-1 -28.895183371375737 -33.640728849503425 0 1 0 0 0 0 -1 forward_v I I I I #
coedge $-1 $771 $772 $773 $774 forward $626 $-1 #
coedge $-1 $628 $775 $776 $777 forward $424 $-1 #
coedge $-1 $778 $640 $628 $712 reversed $723 $-1 #
edge $-1 $779 -28.146554515184977 $642 10.498961075236956 $711 $780 forward 7 unknown #
edge $-1 $630 5.9229950080419371 $724 30.619436451017691 $632 $781 forward 7 unknown #
point $-1 24.194210737571751 28.146554515184981 0.99173186265156943 #
coedge $-1 $782 $632 $722 $783 forward $525 $-1 #
coedge $-1 $633 $782 $784 $785 reversed $525 $-1 #
coedge $-1 $786 $635 $787 $788 forward $424 $-1 #
coedge $-1 $784 $789 $635 $719 reversed $790 $-1 #
edge $-1 $720 -28.146554515184977 $791 28.146554515184977 $718 $792 forward 7 unknown #
vertex $-1 $636 $793 #
straight-curve $-1 0 28.146554515184977 12.019172340689451 -1 0 0 I I #
coedge $-1 $640 $794 $715 $783 reversed $723 $-1 #
loop $-1 $-1 $640 $795 #
vertex $-1 $783 $796 #
straight-curve $-1 48.890652180547505 -5.6215345261845622 22.09237616454584 0 -0.84804809178421925 0.52991927123019833 I I #
point $-1 48.890652180547505 10.498961075236956 12.019172340689451 #
straight-curve $-1 -48.890652180547505 28.146554515184977 0 0 0 -1 I I #
straight-curve $-1 -24.852307499168603 -33.640728849503425 -12.019172340689451 0 -1 0 I I #
straight-curve $-1 0 -28.146554515184977 -12.019172340689451 -1 0 0 I I #
point $-1 -24.852307499168603 -28.146554515184974 -12.019172340689451 #
face $-1 $704 $740 $18 $-1 $797 reversed single #
coedge $-1 $747 $668 $739 $798 reversed $594 $-1 #
edge $-1 $743 -12.019172340689451 $741 12.019172340689451 $668 $799 forward 7 unknown #
coedge $-1 $800 $674 $669 $735 forward $740 $-1 #
edge $-1 $679 -5.4941743343184513 $737 5.4941743343184513 $669 $801 forward 7 unknown #
coedge $-1 $671 $701 $800 $802 reversed $666 $-1 #
vertex $-1 $802 $803 #
straight-curve $-1 -28.895183371375737 -28.146554515184977 0 0 0 1 I I #
coedge $-1 $674 $804 $732 $798 forward $740 $-1 #
loop $-1 $-1 $752 $731 #
vertex $-1 $733 $805 #
straight-curve $-1 -26.87374543527217 -39.134903183821876 -12.019172340689451 -1 0 0 I I #
vertex $-1 $682 $806 #
straight-curve $-1 -26.87374543527217 -39.134903183821876 12.019172340689451 1 0 0 I I #
point $-1 -28.895183371375737 -39.134903183821876 12.019172340689451 #
point $-1 -28.895183371375737 -39.134903183821876 -12.019172340689451 #
coedge $-1 $681 $732 $683 $750 reversed $594 $-1 #
straight-curve $-1 -24.852307499168603 -33.640728849503425 12.019172340689451 0 1 0 I I #
coedge $-1 $684 $683 $804 $807 reversed $685 $-1 #
edge $-1 $686 -12.019172340689451 $808 12.019172340689451 $683 $809 forward 7 unknown #
point $-1 -24.852307499168603 -28.146554515184974 12.019172340689451 #
coedge $-1 $804 $693 $688 $753 forward $740 $-1 #
edge $-1 $695 -28.146554515184977 $754 28.146554515184977 $688 $810 forward 7 unknown #
vertex $-1 $689 $811 #
straight-curve $-1 48.890652180547505 -28.146554515184977 0 0 0 -1 I I #
plane-surface $-1 48.890652180547505 0 0 -1 0 0 0 0 1 forward_v I I I I #
coedge $-1 $693 $800 $697 $760 forward $740 $-1 #
straight-curve $-1 0 28.146554515184977 -12.019172340689451 1 0 0 I I #
point $-1 48.890652180547505 28.146554515184977 -12.019172340689451 #
edge $-1 $764 -28.146554515184977 $698 28.146554515184977 $697 $812 forward 7 unknown #
point $-1 -48.890652180547505 28.146554515184977 -12.019172340689451 #
straight-curve $-1 -28.895183371375737 -33.640728849503425 12.019172340689451 0 -1 0 I I #
point $-1 -28.895183371375737 -28.146554515184974 12.019172340689451 #
vertex $-1 $760 $813 #
straight-curve $-1 -48.890652180547505 -28.146554515184977 0 0 0 -1 I I #
plane-surface $-1 -48.890652180547505 0 0 1 0 0 0 0 -1 forward_v I I I I #
face $-1 $814 $815 $19 $-1 $816 reversed single #
loop $-1 $-1 $817 $706 #
plane-surface $-1 -24.852307499168603 -33.640728849503425 0 -1 0 0 0 0 1 forward_v I I I I #
coedge $-1 $818 $819 $820 $821 reversed $707 $-1 #
coedge $-1 $822 $709 $823 $824 reversed $626 $-1 #
coedge $-1 $709 $822 $825 $826 reversed $626 $-1 #
coedge $-1 $819 $818 $709 $774 reversed $707 $-1 #
edge $-1 $827 -12.019172340689451 $828 12.019172340689451 $773 $829 forward 7 unknown #
coedge $-1 $710 $825 $830 $831 forward $424 $-1 #
coedge $-1 $832 $833 $710 $777 reversed $834 $-1 #
edge $-1 $835 -24.852307499168603 $779 48.890652180547505 $776 $836 forward 7 unknown #
coedge $-1 $794 $711 $833 $837 forward $723 $-1 #
vertex $-1 $712 $838 #
straight-curve $-1 48.890652180547505 0 12.019172340689451 0 1 0 I I #
straight-curve $-1 18.271215729529814 28.146554515184981 0.99173186265156588 1 0 0 I I #
coedge $-1 $716 $715 $839 $840 reversed $525 $-1 #
edge $-1 $724 -0.99173186265156943 $841 12.019172340689451 $722 $842 forward 7 unknown #
coedge $-1 $843 $718 $716 $785 forward $790 $-1 #
edge $-1 $720 -12.019172340689451 $844 12.019172340689451 $716 $845 forward 7 unknown #
coedge $-1 $825 $717 $819 $846 forward $424 $-1 #
coedge $-1 $847 $820 $717 $788 reversed $815 $-1 #
edge $-1 $791 -48.890652180547505 $848 -28.895183371375737 $787 $836 forward 7 unknown #
coedge $-1 $718 $843 $847 $849 reversed $790 $-1 #
loop $-1 $-1 $784 $850 #
vertex $-1 $719 $851 #
straight-curve $-1 -48.890652180547505 0 12.019172340689451 0 -1 0 I I #
point $-1 -48.890652180547505 28.146554515184977 12.019172340689451 #
coedge $-1 $722 $778 $852 $853 reversed $723 $-1 #
face $-1 $-1 $723 $19 $-1 $854 reversed single #
point $-1 48.890652180547505 28.146554515184981 0.99173186265156943 #
plane-surface $-1 0 0 -12.019172340689451 0 0 1 1 0 0 forward_v I I I I #
edge $-1 $808 -5.4941743343184513 $741 5.4941743343184513 $732 $855 forward 7 unknown #
straight-curve $-1 -24.852307499168603 -39.134903183821876 0 0 0 -1 I I #
coedge $-1 $757 $734 $736 $802 forward $740 $-1 #
straight-curve $-1 -28.895183371375737 -33.640728849503425 -12.019172340689451 0 1 0 I I #
edge $-1 $737 28.895183371375737 $764 48.890652180547505 $736 $856 forward 7 unknown #
point $-1 -28.895183371375737 -28.146554515184974 -12.019172340689451 #
coedge $-1 $739 $752 $749 $807 forward $740 $-1 #
point $-1 -24.852307499168603 -39.134903183821876 -12.019172340689451 #
point $-1 -24.852307499168603 -39.134903183821876 12.019172340689451 #
edge $-1 $754 -48.890652180547505 $808 24.852307499168603 $749 $856 forward 7 unknown #
vertex $-1 $798 $857 #
straight-curve $-1 -24.852307499168603 -28.146554515184977 0 0 0 -1 I I #
straight-curve $-1 48.890652180547505 0 -12.019172340689451 0 -1 0 I I #
point $-1 48.890652180547505 -28.146554515184977 -12.019172340689451 #
straight-curve $-1 -48.890652180547505 0 -12.019172340689451 0 1 0 I I #
point $-1 -48.890652180547505 -28.146554515184977 -12.019172340689451 #
face $-1 $858 $834 $19 $-1 $816 reversed single #
loop $-1 $-1 $820 $767 #
plane-surface $-1 0 -28.146554515184977 0 0 1 0 0 0 1 forward_v I I I I #
coedge $-1 $859 $830 $822 $860 forward $768 $-1 #
coedge $-1 $773 $770 $861 $862 reversed $707 $-1 #
coedge $-1 $770 $773 $786 $846 reversed $707 $-1 #
coedge $-1 $787 $863 $770 $821 forward $815 $-1 #
edge $-1 $864 -12.019172340689451 $848 12.019172340689451 $820 $865 forward 7 unknown #
coedge $-1 $772 $771 $817 $860 reversed $626 $-1 #
coedge $-1 $861 $866 $771 $824 forward $867 $-1 #
edge $-1 $868 -2.0214379361035668 $828 2.0214379361035668 $771 $869 forward 7 unknown #
coedge $-1 $775 $786 $772 $826 forward $424 $-1 #
edge $-1 $827 -2.0214379361035668 $870 2.0214379361035668 $772 $871 forward 7 unknown #
vertex $-1 $846 $872 #
vertex $-1 $862 $873 #
straight-curve $-1 -28.895183371375737 -39.134903183821876 0 0 0 -1 I I #
coedge $-1 $817 $874 $775 $831 reversed $768 $-1 #
edge $-1 $870 -5.4941743343184513 $835 5.4941743343184513 $830 $875 forward 7 unknown #
coedge $-1 $876 $776 $874 $877 forward $834 $-1 #
coedge $-1 $776 $876 $778 $837 reversed $834 $-1 #
loop $-1 $-1 $832 $814 #
vertex $-1 $777 $878 #
straight-curve $-1 0 -28.146554515184977 12.019172340689451 1 0 0 I I #
edge $-1 $779 -12.019172340689451 $879 12.019172340689451 $778 $880 forward 7 unknown #
point $-1 48.890652180547505 -28.146554515184977 12.019172340689451 #
coedge $-1 $852 $881 $782 $840 forward $867 $-1 #
edge $-1 $844 -48.890652180547505 $841 48.890652180547505 $782 $882 forward 7 unknown #
vertex $-1 $853 $883 #
straight-curve $-1 48.890652180547505 28.146554515184977 0 0 0 -1 I I #
coedge $-1 $789 $784 $881 $884 reversed $790 $-1 #
vertex $-1 $840 $885 #
straight-curve $-1 -48.890652180547505 28.146554515184977 0 0 0 -1 I I #
edge $-1 $848 -5.4941743343184513 $827 5.4941743343184513 $819 $886 forward 7 unknown #
coedge $-1 $863 $787 $789 $849 forward $815 $-1 #
vertex $-1 $846 $887 #
edge $-1 $791 -12.019172340689451 $888 12.019172340689451 $789 $889 forward 7 unknown #
face $-1 $795 $790 $19 $-1 $890 reversed single #
point $-1 -48.890652180547505 -28.146554515184977 12.019172340689451 #
coedge $-1 $891 $839 $794 $853 forward $867 $-1 #
edge $-1 $841 -28.146554515184977 $879 28.146554515184977 $794 $892 forward 7 unknown #
plane-surface $-1 48.890652180547505 0 0 -1 0 0 0 0 1 forward_v I I I I #
straight-curve $-1 -24.852307499168603 -33.640728849503425 -12.019172340689451 0 -1 0 I I #
straight-curve $-1 0 -28.146554515184977 -12.019172340689451 -1 0 0 I I #
point $-1 -24.852307499168603 -28.146554515184974 -12.019172340689451 #
face $-1 $850 $867 $19 $-1 $893 reversed single #
coedge $-1 $874 $817 $866 $894 reversed $768 $-1 #
edge $-1 $870 -12.019172340689451 $868 12.019172340689451 $817 $895 forward 7 unknown #
coedge $-1 $896 $823 $818 $862 forward $867 $-1 #
edge $-1 $828 -5.4941743343184513 $864 5.4941743343184513 $818 $897 forward 7 unknown #
coedge $-1 $820 $847 $896 $898 reversed $815 $-1 #
vertex $-1 $898 $899 #
straight-curve $-1 -28.895183371375737 -28.146554515184977 0 0 0 1 I I #
coedge $-1 $823 $891 $859 $894 forward $867 $-1 #
loop $-1 $-1 $852 $858 #
vertex $-1 $860 $900 #
straight-curve $-1 -26.87374543527217 -39.134903183821876 -12.019172340689451 -1 0 0 I I #
vertex $-1 $831 $901 #
straight-curve $-1 -26.87374543527217 -39.134903183821876 12.019172340689451 1 0 0 I I #
point $-1 -28.895183371375737 -39.134903183821876 12.019172340689451 #
point $-1 -28.895183371375737 -39.134903183821876 -12.019172340689451 #
coedge $-1 $830 $859 $832 $877 reversed $768 $-1 #
straight-curve $-1 -24.852307499168603 -33.640728849503425 12.019172340689451 0 1 0 I I #
coedge $-1 $833 $832 $891 $902 reversed $834 $-1 #
edge $-1 $835 -12.019172340689451 $903 12.019172340689451 $832 $904 forward 7 unknown #
point $-1 -24.852307499168603 -28.146554515184974 12.019172340689451 #
vertex $-1 $837 $905 #
straight-curve $-1 48.890652180547505 -28.146554515184977 0 0 0 -1 I I #
coedge $-1 $839 $896 $843 $884 forward $867 $-1 #
straight-curve $-1 0 28.146554515184977 -12.019172340689451 1 0 0 I I #
point $-1 48.890652180547505 28.146554515184977 -12.019172340689451 #
edge $-1 $888 -28.146554515184977 $844 28.146554515184977 $843 $906 forward 7 unknown #
point $-1 -48.890652180547505 28.146554515184977 -12.019172340689451 #
straight-curve $-1 -28.895183371375737 -33.640728849503425 12.019172340689451 0 -1 0 I I #
point $-1 -28.895183371375737 -28.146554515184974 12.019172340689451 #
vertex $-1 $884 $907 #
straight-curve $-1 -48.890652180547505 -28.146554515184977 0 0 0 -1 I I #
plane-surface $-1 -48.890652180547505 0 0 1 0 0 0 0 -1 forward_v I I I I #
coedge $-1 $866 $852 $876 $902 forward $867 $-1 #
straight-curve $-1 48.890652180547505 0 -12.019172340689451 0 -1 0 I I #
plane-surface $-1 0 0 -12.019172340689451 0 0 1 1 0 0 forward_v I I I I #
edge $-1 $903 -5.4941743343184513 $868 5.4941743343184513 $859 $908 forward 7 unknown #
straight-curve $-1 -24.852307499168603 -39.134903183821876 0 0 0 -1 I I #
coedge $-1 $881 $861 $863 $898 forward $867 $-1 #
straight-curve $-1 -28.895183371375737 -33.640728849503425 -12.019172340689451 0 1 0 I I #
edge $-1 $864 28.895183371375737 $888 48.890652180547505 $863 $909 forward 7 unknown #
point $-1 -28.895183371375737 -28.146554515184974 -12.019172340689451 #
point $-1 -24.852307499168603 -39.134903183821876 -12.019172340689451 #
point $-1 -24.852307499168603 -39.134903183821876 12.019172340689451 #
edge $-1 $879 -48.890652180547505 $903 24.852307499168603 $876 $909 forward 7 unknown #
vertex $-1 $894 $910 #
straight-curve $-1 -24.852307499168603 -28.146554515184977 0 0 0 -1 I I #
point $-1 48.890652180547505 -28.146554515184977 -12.019172340689451 #
straight-curve $-1 -48.890652180547505 0 -12.019172340689451 0 1 0 I I #
point $-1 -48.890652180547505 -28.146554515184977 -12.019172340689451 #
straight-curve $-1 -24.852307499168603 -33.640728849503425 -12.019172340689451 0 -1 0 I I #
straight-curve $-1 0 -28.146554515184977 -12.019172340689451 -1 0 0 I I #
point $-1 -24.852307499168603 -28.146554515184974 -12.019172340689451 #
End-of-ACIS-data 