500 0 4 0           
7 Unknown 11 ACIS 5.0 NT 24 Thu Mar 25 18:25:25 1999 
-1 9.9999999999999995e-007 1e-010 
body $-1 $4 $-1 $5 #
body $-1 $6 $-1 $7 #
body $-1 $8 $-1 $9 #
body $-1 $10 $-1 $11 #
lump $-1 $-1 $12 $0 #
transform $-1 1 0 0 0 1 0 0 0 1 47.708975493636892 19.151294514616968 8.7774964412691467 1 rotate no_reflect no_shear #
lump $-1 $-1 $13 $1 #
transform $-1 1 0 0 0 1 0 0 0 1 47.708975493636892 19.151294514616968 8.7774964412691467 1 rotate no_reflect no_shear #
lump $-1 $-1 $14 $2 #
transform $-1 1 0 0 0 1 0 0 0 1 47.708975493636892 19.151294514616968 8.7774964412691467 1 rotate no_reflect no_shear #
lump $-1 $-1 $15 $3 #
transform $-1 1 0 0 0 1 0 0 0 1 47.708975493636892 19.151294514616968 8.7774964412691467 1 rotate no_reflect no_shear #
shell $-1 $-1 $-1 $16 $-1 $4 #
shell $-1 $-1 $-1 $17 $-1 $6 #
shell $-1 $-1 $-1 $18 $-1 $8 #
shell $-1 $-1 $-1 $19 $-1 $10 #
face $-1 $20 $21 $12 $-1 $22 forward single #
face $-1 $23 $24 $13 $-1 $25 forward single #
face $-1 $26 $27 $14 $-1 $28 forward single #
face $-1 $29 $30 $15 $-1 $31 reversed single #
face $-1 $32 $33 $12 $-1 $34 reversed single #
loop $-1 $-1 $35 $16 #
plane-surface $-1 0 0 8.7774964412691467 0 0 1 1 0 0 forward_v I I I I #
face $-1 $36 $37 $13 $-1 $38 reversed single #
loop $-1 $-1 $39 $17 #
plane-surface $-1 0 -24.354024471793259 -3.3942147092480099 0 0 1 1 0 0 forward_v I I I I #
face $-1 $40 $41 $14 $-1 $42 forward single #
loop $-1 $-1 $43 $18 #
plane-surface $-1 24.276655370982589 13.077131436386678 133.77448790042061 0 -1 0 -0.57357644374324357 0 -0.81915203911291934 forward_v I I I I #
face $-1 $44 $45 $15 $-1 $46 reversed single #
loop $-1 $47 $48 $19 #
cone-surface $-1 41.062500540012813 9.1291722717526618 3.3888335185815741 -0.57357644374324357 0 -0.81915203911291934 0.81915203911291934 0 -0.57357644374324357 1 I I 0 1 1 forward I I I I #
face $-1 $49 $50 $12 $-1 $51 reversed single #
loop $-1 $-1 $52 $20 #
plane-surface $-1 0 0 -8.7774964412691467 0 0 1 1 0 0 forward_v I I I I #
coedge $-1 $53 $54 $55 $56 forward $21 $-1 #
face $-1 $57 $58 $13 $-1 $59 reversed single #
loop $-1 $-1 $60 $23 #
plane-surface $-1 0 -24.354024471793259 -7.4249465111150368 0 0 1 1 0 0 forward_v I I I I #
coedge $-1 $61 $62 $63 $64 forward $24 $-1 #
face $-1 $65 $66 $14 $-1 $67 forward single #
loop $-1 $-1 $68 $26 #
plane-surface $-1 -30.452833625565027 9.1291722717526618 55.61267878121869 0.57357644374324357 0 0.81915203911291934 0.81915203911291934 0 -0.57357644374324357 forward_v I I I I #
coedge $-1 $69 $70 $71 $72 reversed $27 $-1 #
face $-1 $73 $74 $15 $-1 $75 forward single #
loop $-1 $76 $77 $29 #
cone-surface $-1 39.766356414362299 9.1291722717526618 1.5377479046365785 -0.57357644374324357 0 -0.81915203911291934 0.40957601955645967 0 -0.28678822187162178 1 I I -0.70710678118654746 0.70710678118654746 0.5 forward I I I I #
loop $-1 $-1 $78 $19 #
coedge $-1 $48 $48 $79 $80 reversed $30 $-1 #
face $-1 $81 $82 $12 $-1 $83 reversed single #
loop $-1 $-1 $84 $32 #
plane-surface $-1 0 -19.151294514616968 0 0 1 0 0 0 1 forward_v I I I I #
coedge $-1 $85 $86 $87 $88 forward $33 $-1 #
coedge $-1 $89 $35 $90 $91 forward $21 $-1 #
coedge $-1 $35 $89 $92 $93 forward $21 $-1 #
coedge $-1 $94 $95 $35 $56 reversed $96 $-1 #
edge $-1 $97 -19.151294514616968 $98 19.151294514616968 $55 $99 forward 7 unknown #
face $-1 $100 $101 $13 $-1 $102 reversed single #
loop $-1 $-1 $103 $36 #
plane-surface $-1 0 -29.556754428969551 -5.4095806101815231 0 1 0 0 0 1 forward_v I I I I #
coedge $-1 $104 $105 $106 $107 forward $37 $-1 #
coedge $-1 $108 $39 $109 $110 reversed $24 $-1 #
coedge $-1 $39 $108 $111 $112 forward $24 $-1 #
coedge $-1 $113 $114 $39 $64 reversed $115 $-1 #
edge $-1 $116 -5.2027299571762917 $117 5.2027299571762917 $63 $118 forward 7 unknown #
face $-1 $119 $120 $14 $-1 $121 forward single #
loop $-1 $-1 $122 $40 #
plane-surface $-1 24.276655370982589 5.181213107118646 133.77448790042061 0 1 0 0.57357644374324357 0 0.81915203911291934 forward_v I I I I #
coedge $-1 $123 $124 $125 $126 reversed $41 $-1 #
coedge $-1 $70 $43 $124 $127 forward $27 $-1 #
coedge $-1 $43 $69 $128 $129 reversed $27 $-1 #
coedge $-1 $130 $125 $43 $72 forward $120 $-1 #
edge $-1 $131 24.29640970845519 $132 35.570647808145594 $71 $133 forward 7 unknown #
face $-1 $134 $135 $15 $-1 $136 forward single #
loop $-1 $-1 $137 $44 #
plane-surface $-1 24.276655370982589 13.077131436386678 133.77448790042061 0 -1 0 -0.57357644374324357 0 -0.81915203911291934 forward_v I I I I #
loop $-1 $-1 $138 $29 #
coedge $-1 $77 $77 $78 $139 forward $45 $-1 #
coedge $-1 $78 $78 $77 $139 reversed $47 $-1 #
coedge $-1 $79 $79 $48 $80 forward $135 $-1 #
edge $-1 $140 0 $140 6.2831853071796004 $79 $141 forward 7 unknown #
face $-1 $142 $143 $12 $-1 $144 reversed single #
loop $-1 $-1 $145 $49 #
plane-surface $-1 -47.708975493636892 0 0 1 0 0 0 0 -1 forward_v I I I I #
coedge $-1 $146 $92 $147 $148 forward $50 $-1 #
coedge $-1 $149 $52 $146 $150 forward $33 $-1 #
coedge $-1 $52 $149 $151 $152 forward $33 $-1 #
coedge $-1 $95 $94 $52 $88 reversed $96 $-1 #
edge $-1 $153 -19.151294514616968 $154 19.151294514616968 $87 $155 forward 7 unknown #
coedge $-1 $54 $53 $156 $157 forward $21 $-1 #
coedge $-1 $158 $159 $53 $91 reversed $143 $-1 #
edge $-1 $98 -47.708975493636892 $160 47.708975493636892 $90 $161 forward 7 unknown #
coedge $-1 $84 $162 $54 $93 reversed $50 $-1 #
edge $-1 $163 -47.708975493636892 $97 47.708975493636892 $92 $164 forward 7 unknown #
coedge $-1 $87 $55 $162 $165 forward $96 $-1 #
coedge $-1 $55 $87 $158 $166 reversed $96 $-1 #
loop $-1 $-1 $94 $142 #
vertex $-1 $56 $167 #
vertex $-1 $56 $168 #
straight-curve $-1 47.708975493636892 0 8.7774964412691467 0 1 0 I I #
face $-1 $169 $170 $13 $-1 $102 reversed single #
loop $-1 $-1 $171 $57 #
plane-surface $-1 0 -19.151294514616968 0 0 1 0 0 0 1 forward_v I I I I #
coedge $-1 $172 $111 $173 $174 forward $58 $-1 #
coedge $-1 $175 $60 $172 $176 forward $37 $-1 #
coedge $-1 $60 $175 $171 $177 reversed $37 $-1 #
coedge $-1 $178 $113 $60 $107 reversed $115 $-1 #
edge $-1 $179 -5.2027299571762917 $180 5.2027299571762917 $106 $181 forward 7 unknown #
coedge $-1 $62 $61 $182 $183 forward $24 $-1 #
coedge $-1 $184 $185 $61 $110 forward $170 $-1 #
edge $-1 $186 -47.708975493636892 $117 47.708975493636892 $109 $187 forward 7 unknown #
coedge $-1 $103 $188 $62 $112 reversed $58 $-1 #
edge $-1 $189 -47.708975493636892 $116 47.708975493636892 $111 $190 forward 7 unknown #
coedge $-1 $106 $63 $188 $191 forward $115 $-1 #
coedge $-1 $63 $192 $184 $193 forward $115 $-1 #
loop $-1 $-1 $114 $194 #
vertex $-1 $64 $195 #
vertex $-1 $64 $196 #
straight-curve $-1 47.708975493636892 -24.354024471793259 -3.3942147092480099 0 1 0 I I #
face $-1 $197 $198 $14 $-1 $199 forward single #
loop $-1 $-1 $200 $65 #
plane-surface $-1 0 0 8.7774964412691467 0 0 1 1 0 0 forward_v I I I I #
coedge $-1 $201 $202 $200 $203 reversed $66 $-1 #
coedge $-1 $204 $68 $202 $205 reversed $41 $-1 #
coedge $-1 $68 $204 $69 $127 reversed $41 $-1 #
coedge $-1 $71 $200 $68 $126 forward $120 $-1 #
edge $-1 $206 0.61662697124231514 $131 8.5125453005103466 $125 $207 forward 7 unknown #
edge $-1 $131 81.654647520557688 $208 95.417950987273784 $69 $209 forward 7 unknown #
coedge $-1 $210 $211 $70 $129 forward $212 $-1 #
edge $-1 $132 58.109747508941155 $208 66.00405416553923 $128 $213 forward 7 unknown #
coedge $-1 $214 $71 $211 $215 forward $120 $-1 #
vertex $-1 $126 $216 #
vertex $-1 $215 $217 #
straight-curve $-1 12.138327685491294 13.077131436386678 8.7774964412691503 1 0 0 I I #
face $-1 $218 $219 $15 $-1 $220 forward single #
loop $-1 $221 $79 $73 #
plane-surface $-1 -30.452833625565027 9.1291722717526618 55.61267878121869 0.57357644374324357 0 0.81915203911291934 0.81915203911291934 0 -0.57357644374324357 forward_v I I I I #
coedge $-1 $222 $223 $224 $225 reversed $74 $-1 #
coedge $-1 $138 $138 $-1 $226 forward $76 $-1 #
edge $-1 $227 0 $227 6.2831853071796004 $77 $228 forward 7 unknown #
vertex $-1 $80 $229 #
ellipse-curve $-1 42.071856443791702 9.1291722717526618 4.8303431129701035 -0.57357644374324357 0 -0.81915203911291934 0.81915203911291934 0 -0.57357644374324357 1 I I #
face $-1 $-1 $96 $12 $-1 $230 reversed single #
loop $-1 $-1 $158 $81 #
plane-surface $-1 0 19.151294514616968 0 0 -1 0 0 0 -1 forward_v I I I I #
coedge $-1 $231 $156 $159 $232 forward $82 $-1 #
coedge $-1 $162 $84 $85 $150 reversed $50 $-1 #
coedge $-1 $156 $231 $84 $148 reversed $82 $-1 #
edge $-1 $163 -8.7774964412691467 $233 8.7774964412691467 $147 $234 forward 7 unknown #
coedge $-1 $86 $85 $231 $235 forward $33 $-1 #
edge $-1 $154 -47.708975493636892 $233 47.708975493636892 $146 $236 forward 7 unknown #
coedge $-1 $159 $158 $86 $152 reversed $143 $-1 #
edge $-1 $237 -47.708975493636892 $153 47.708975493636892 $151 $238 forward 7 unknown #
vertex $-1 $88 $239 #
vertex $-1 $165 $240 #
straight-curve $-1 47.708975493636892 0 -8.7774964412691467 0 -1 0 I I #
coedge $-1 $145 $147 $89 $157 reversed $82 $-1 #
edge $-1 $160 -19.151294514616968 $163 19.151294514616968 $156 $241 forward 7 unknown #
coedge $-1 $151 $90 $95 $166 forward $143 $-1 #
coedge $-1 $90 $151 $145 $232 reversed $143 $-1 #
vertex $-1 $91 $242 #
straight-curve $-1 0 19.151294514616968 8.7774964412691467 -1 0 0 I I #
coedge $-1 $92 $146 $94 $165 reversed $50 $-1 #
vertex $-1 $157 $243 #
straight-curve $-1 0 -19.151294514616968 8.7774964412691467 1 0 0 I I #
edge $-1 $97 -8.7774964412691467 $154 8.7774964412691467 $94 $244 forward 7 unknown #
edge $-1 $98 -8.7774964412691467 $153 8.7774964412691467 $95 $245 forward 7 unknown #
point $-1 47.708975493636892 -19.151294514616968 8.7774964412691467 #
point $-1 47.708975493636892 19.151294514616968 8.7774964412691467 #
face $-1 $246 $247 $13 $-1 $248 forward single #
loop $-1 $-1 $109 $100 #
coedge $-1 $249 $250 $105 $177 forward $101 $-1 #
coedge $-1 $188 $103 $104 $176 reversed $58 $-1 #
coedge $-1 $182 $251 $103 $174 reversed $252 $-1 #
edge $-1 $189 -2.0153659009335132 $253 2.0153659009335136 $173 $254 forward 7 unknown #
coedge $-1 $105 $104 $251 $255 forward $37 $-1 #
edge $-1 $180 -47.708975493636892 $253 47.708975493636892 $172 $256 forward 7 unknown #
edge $-1 $179 -47.708975493636892 $257 47.708975493636892 $171 $258 forward 7 unknown #
coedge $-1 $259 $106 $250 $260 forward $115 $-1 #
vertex $-1 $260 $261 #
vertex $-1 $191 $262 #
straight-curve $-1 47.708975493636892 -24.354024471793259 -7.4249465111150368 0 -1 0 I I #
coedge $-1 $263 $173 $108 $183 reversed $252 $-1 #
edge $-1 $186 -5.2027299571762917 $189 5.2027299571762917 $182 $264 forward 7 unknown #
coedge $-1 $265 $109 $114 $193 reversed $170 $-1 #
coedge $-1 $109 $265 $263 $266 forward $170 $-1 #
vertex $-1 $266 $267 #
straight-curve $-1 0 -19.151294514616968 -3.3942147092480099 1 0 0 I I #
coedge $-1 $111 $172 $113 $191 reversed $58 $-1 #
vertex $-1 $183 $268 #
straight-curve $-1 0 -29.556754428969551 -3.3942147092480099 1 0 0 I I #
edge $-1 $116 -2.0153659009335132 $180 2.0153659009335136 $113 $269 forward 7 unknown #
coedge $-1 $114 $270 $271 $272 reversed $115 $-1 #
edge $-1 $273 -8.7774964412691467 $117 3.3942147092480099 $114 $274 forward 7 unknown #
face $-1 $-1 $115 $13 $-1 $275 reversed single #
point $-1 47.708975493636892 -29.556754428969551 -3.3942147092480099 #
point $-1 47.708975493636892 -19.151294514616968 -3.3942147092480099 #
face $-1 $276 $277 $14 $-1 $278 reversed single #
loop $-1 $-1 $279 $119 #
plane-surface $-1 0 -24.354024471793259 -3.3942147092480099 0 0 1 1 0 0 forward_v I I I I #
coedge $-1 $125 $280 $122 $203 forward $120 $-1 #
coedge $-1 $202 $122 $281 $282 reversed $66 $-1 #
coedge $-1 $122 $201 $123 $205 forward $66 $-1 #
edge $-1 $283 -35.570647808145594 $206 -24.29640970845519 $200 $284 forward 7 unknown #
coedge $-1 $124 $123 $210 $285 reversed $41 $-1 #
edge $-1 $286 -95.417950987273784 $206 -81.654647520557688 $202 $287 forward 7 unknown #
vertex $-1 $126 $288 #
straight-curve $-1 36.434737393946492 4.5645861358763309 8.7774964412691503 0 1 0 I I #
vertex $-1 $285 $289 #
straight-curve $-1 -30.452833625565027 13.077131436386678 55.61267878121869 0.81915203911291934 0 -0.57357644374324357 I I #
coedge $-1 $281 $128 $204 $285 forward $212 $-1 #
coedge $-1 $128 $290 $130 $215 reversed $212 $-1 #
loop $-1 $-1 $281 $291 #
straight-curve $-1 47.708975493636892 13.077131436386678 66.887243950210305 0 0 -1 I I #
coedge $-1 $292 $130 $293 $294 forward $120 $-1 #
edge $-1 $132 13.077131436386678 $295 19.151294514616968 $211 $296 forward 7 unknown #
point $-1 36.434737393946484 13.077131436386678 8.7774964412691503 #
point $-1 47.708975493636892 13.077131436386678 8.7774964412691467 #
face $-1 $297 $298 $15 $-1 $299 forward single #
loop $-1 $-1 $300 $134 #
plane-surface $-1 24.276655370982589 5.181213107118646 133.77448790042061 0 1 0 0.57357644374324357 0 0.81915203911291934 forward_v I I I I #
loop $-1 $-1 $301 $73 #
coedge $-1 $223 $137 $302 $303 forward $74 $-1 #
coedge $-1 $137 $222 $304 $305 reversed $74 $-1 #
coedge $-1 $306 $307 $137 $225 forward $298 $-1 #
edge $-1 $308 24.29640970845519 $309 35.570647808145594 $224 $310 forward 7 unknown #
edge $-1 $311 1 $311 0 $138 $-1 forward 7 unknown #
vertex $-1 $139 $312 #
ellipse-curve $-1 40.053144636233924 9.1291722717526618 1.9473239241930382 0.57357644374324357 0 0.81915203911291934 0.81915203911291934 0 -0.57357644374324357 1 I I #
point $-1 42.891008482904624 9.1291722717526618 4.2567666692268658 #
plane-surface $-1 47.708975493636892 0 0 -1 0 0 0 0 1 forward_v I I I I #
coedge $-1 $147 $145 $149 $235 reversed $82 $-1 #
edge $-1 $160 -8.7774964412691467 $237 8.7774964412691467 $159 $313 forward 7 unknown #
vertex $-1 $235 $314 #
straight-curve $-1 -47.708975493636892 -19.151294514616968 0 0 0 -1 I I #
edge $-1 $233 -19.151294514616968 $237 19.151294514616968 $231 $315 forward 7 unknown #
straight-curve $-1 0 -19.151294514616968 -8.7774964412691467 -1 0 0 I I #
vertex $-1 $152 $316 #
straight-curve $-1 0 19.151294514616968 -8.7774964412691467 1 0 0 I I #
point $-1 47.708975493636892 19.151294514616968 -8.7774964412691467 #
point $-1 47.708975493636892 -19.151294514616968 -8.7774964412691467 #
straight-curve $-1 -47.708975493636892 0 8.7774964412691467 0 -1 0 I I #
point $-1 -47.708975493636892 19.151294514616968 8.7774964412691467 #
point $-1 -47.708975493636892 -19.151294514616968 8.7774964412691467 #
straight-curve $-1 47.708975493636892 -19.151294514616968 0 0 0 -1 I I #
straight-curve $-1 47.708975493636892 19.151294514616968 0 0 0 -1 I I #
face $-1 $317 $318 $13 $-1 $319 reversed single #
loop $-1 $-1 $271 $169 #
plane-surface $-1 0 0 8.7774964412691467 0 0 1 1 0 0 forward_v I I I I #
coedge $-1 $320 $171 $321 $322 forward $101 $-1 #
coedge $-1 $171 $320 $178 $260 reversed $101 $-1 #
coedge $-1 $173 $321 $175 $255 reversed $252 $-1 #
loop $-1 $-1 $323 $317 #
vertex $-1 $255 $324 #
straight-curve $-1 -47.708975493636892 -29.556754428969551 -5.4095806101815231 0 0 -1 I I #
edge $-1 $253 -5.2027299571762917 $257 5.2027299571762917 $251 $325 forward 7 unknown #
straight-curve $-1 0 -29.556754428969551 -7.4249465111150368 -1 0 0 I I #
vertex $-1 $322 $326 #
straight-curve $-1 0 -19.151294514616968 -7.4249465111150368 -1 0 0 I I #
coedge $-1 $270 $178 $327 $328 reversed $115 $-1 #
edge $-1 $179 7.4249465111150368 $329 8.7774964412691467 $178 $274 forward 7 unknown #
point $-1 47.708975493636892 -19.151294514616968 -7.4249465111150368 #
point $-1 47.708975493636892 -29.556754428969551 -7.4249465111150368 #
coedge $-1 $330 $182 $185 $266 reversed $252 $-1 #
straight-curve $-1 -47.708975493636892 -24.354024471793259 -3.3942147092480099 0 -1 0 I I #
coedge $-1 $185 $184 $331 $332 reversed $170 $-1 #
edge $-1 $333 -8.7774964412691467 $186 3.3942147092480099 $263 $334 forward 7 unknown #
point $-1 -47.708975493636892 -19.151294514616968 -3.3942147092480099 #
point $-1 -47.708975493636892 -29.556754428969551 -3.3942147092480099 #
straight-curve $-1 47.708975493636892 -29.556754428969551 -5.4095806101815231 0 0 -1 I I #
coedge $-1 $192 $259 $335 $336 reversed $115 $-1 #
coedge $-1 $337 $331 $192 $272 forward $247 $-1 #
edge $-1 $273 -19.151294514616968 $338 19.151294514616968 $192 $339 forward 7 unknown #
vertex $-1 $272 $340 #
straight-curve $-1 47.708975493636892 -19.151294514616968 0 0 0 -1 I I #
plane-surface $-1 47.708975493636892 0 0 -1 0 0 0 0 1 forward_v I I I I #
face $-1 $341 $342 $14 $-1 $343 reversed single #
loop $-1 $-1 $344 $197 #
plane-surface $-1 0 -24.354024471793259 -7.4249465111150368 0 0 1 1 0 0 forward_v I I I I #
coedge $-1 $345 $346 $347 $348 forward $198 $-1 #
coedge $-1 $200 $349 $350 $351 forward $120 $-1 #
coedge $-1 $350 $210 $201 $282 forward $212 $-1 #
edge $-1 $286 -66.00405416553923 $283 -58.109747508941155 $281 $352 forward 7 unknown #
vertex $-1 $282 $353 #
straight-curve $-1 12.138327685491294 5.181213107118646 8.7774964412691503 -1 0 0 I I #
edge $-1 $208 -8.5125453005103466 $286 -0.61662697124231514 $210 $354 forward 7 unknown #
vertex $-1 $285 $355 #
straight-curve $-1 -30.452833625565027 5.181213107118646 55.61267878121869 -0.81915203911291934 0 0.57357644374324357 I I #
point $-1 36.434737393946484 5.181213107118646 8.7774964412691503 #
point $-1 47.708975493636892 13.077131436386678 0.88318978467107456 #
coedge $-1 $211 $356 $357 $358 reversed $212 $-1 #
face $-1 $-1 $212 $14 $-1 $359 reversed single #
coedge $-1 $349 $214 $360 $361 forward $120 $-1 #
coedge $-1 $357 $362 $214 $294 reversed $363 $-1 #
edge $-1 $295 -47.708975493636892 $364 47.708975493636892 $293 $365 forward 7 unknown #
vertex $-1 $215 $366 #
straight-curve $-1 47.708975493636892 0 8.7774964412691467 0 1 0 I I #
face $-1 $367 $368 $15 $-1 $369 forward single #
loop $-1 $-1 $370 $218 #
plane-surface $-1 0 0 8.7774964412691467 0 0 1 1 0 0 forward_v I I I I #
coedge $-1 $371 $372 $370 $373 reversed $219 $-1 #
coedge $-1 $374 $302 $307 $375 reversed $221 $-1 #
coedge $-1 $301 $376 $222 $303 reversed $221 $-1 #
edge $-1 $308 81.654647520557688 $377 95.417950987273784 $222 $378 forward 7 unknown #
coedge $-1 $379 $380 $223 $305 forward $381 $-1 #
edge $-1 $309 58.109747508941155 $377 66.00405416553923 $304 $382 forward 7 unknown #
coedge $-1 $383 $224 $380 $384 forward $298 $-1 #
coedge $-1 $224 $370 $301 $375 forward $298 $-1 #
vertex $-1 $375 $385 #
vertex $-1 $384 $386 #
straight-curve $-1 12.138327685491294 13.077131436386678 8.7774964412691503 1 0 0 I I #
vertex $-1 $226 $387 #
point $-1 40.872296675346838 9.1291722717526618 1.3737474804497947 #
straight-curve $-1 -47.708975493636892 19.151294514616968 0 0 0 -1 I I #
point $-1 -47.708975493636892 -19.151294514616968 -8.7774964412691467 #
straight-curve $-1 -47.708975493636892 0 -8.7774964412691467 0 1 0 I I #
point $-1 -47.708975493636892 19.151294514616968 -8.7774964412691467 #
face $-1 $388 $252 $13 $-1 $389 reversed single #
loop $-1 $-1 $327 $246 #
plane-surface $-1 0 0 -8.7774964412691467 0 0 1 1 0 0 forward_v I I I I #
coedge $-1 $250 $249 $390 $391 reversed $101 $-1 #
coedge $-1 $251 $392 $249 $322 reversed $252 $-1 #
edge $-1 $257 7.4249465111150368 $393 8.7774964412691467 $321 $334 forward 7 unknown #
coedge $-1 $392 $330 $394 $395 forward $252 $-1 #
point $-1 -47.708975493636892 -29.556754428969551 -7.4249465111150368 #
straight-curve $-1 -47.708975493636892 -24.354024471793259 -7.4249465111150368 0 1 0 I I #
point $-1 -47.708975493636892 -19.151294514616968 -7.4249465111150368 #
coedge $-1 $390 $396 $259 $328 forward $318 $-1 #
edge $-1 $397 -19.151294514616968 $329 19.151294514616968 $259 $398 forward 7 unknown #
vertex $-1 $260 $399 #
coedge $-1 $323 $263 $400 $401 reversed $252 $-1 #
coedge $-1 $271 $400 $265 $332 forward $247 $-1 #
edge $-1 $333 -47.708975493636892 $273 47.708975493636892 $265 $402 forward 7 unknown #
vertex $-1 $401 $403 #
straight-curve $-1 -47.708975493636892 -19.151294514616968 0 0 0 -1 I I #
coedge $-1 $404 $405 $270 $336 forward $406 $-1 #
edge $-1 $338 -8.7774964412691467 $397 8.7774964412691467 $270 $407 forward 7 unknown #
coedge $-1 $400 $271 $405 $408 forward $247 $-1 #
vertex $-1 $272 $409 #
straight-curve $-1 47.708975493636892 0 8.7774964412691467 0 1 0 I I #
point $-1 47.708975493636892 -19.151294514616968 8.7774964412691467 #
face $-1 $410 $411 $14 $-1 $412 reversed single #
loop $-1 $-1 $413 $276 #
plane-surface $-1 0 -29.556754428969551 -5.4095806101815231 0 1 0 0 0 1 forward_v I I I I #
coedge $-1 $414 $415 $416 $417 forward $277 $-1 #
coedge $-1 $418 $279 $419 $420 reversed $198 $-1 #
coedge $-1 $279 $418 $421 $422 forward $198 $-1 #
coedge $-1 $423 $424 $279 $348 reversed $212 $-1 #
edge $-1 $425 -5.2027299571762917 $426 5.2027299571762917 $347 $427 forward 7 unknown #
coedge $-1 $280 $292 $428 $429 forward $120 $-1 #
coedge $-1 $424 $281 $280 $351 reversed $212 $-1 #
edge $-1 $430 -19.151294514616968 $283 5.181213107118646 $350 $296 forward 7 unknown #
straight-curve $-1 47.708975493636892 5.181213107118646 66.887243950210305 0 0 1 I I #
point $-1 47.708975493636892 5.181213107118646 8.7774964412691467 #
straight-curve $-1 47.708975493636892 4.5645861358763309 0.88318978467107101 0 -1 0 I I #
point $-1 47.708975493636892 5.181213107118646 0.88318978467107456 #
coedge $-1 $290 $431 $432 $433 reversed $212 $-1 #
coedge $-1 $434 $293 $290 $358 forward $363 $-1 #
edge $-1 $295 -8.7774964412691467 $435 8.7774964412691467 $290 $436 forward 7 unknown #
plane-surface $-1 47.708975493636892 0 0 -1 0 0 0 0 1 forward_v I I I I #
coedge $-1 $437 $438 $292 $361 reversed $439 $-1 #
edge $-1 $364 -19.151294514616968 $440 19.151294514616968 $360 $441 forward 7 unknown #
coedge $-1 $293 $434 $437 $442 reversed $363 $-1 #
loop $-1 $-1 $357 $443 #
vertex $-1 $294 $444 #
straight-curve $-1 0 19.151294514616968 8.7774964412691467 -1 0 0 I I #
point $-1 47.708975493636892 19.151294514616968 8.7774964412691467 #
face $-1 $445 $446 $15 $-1 $447 reversed single #
loop $-1 $-1 $448 $297 #
plane-surface $-1 0 -24.354024471793259 -3.3942147092480099 0 0 1 1 0 0 forward_v I I I I #
coedge $-1 $307 $449 $300 $373 forward $298 $-1 #
coedge $-1 $372 $300 $450 $451 reversed $219 $-1 #
coedge $-1 $300 $371 $374 $452 forward $219 $-1 #
edge $-1 $453 -35.570647808145594 $454 -24.29640970845519 $370 $455 forward 7 unknown #
coedge $-1 $376 $301 $372 $452 reversed $221 $-1 #
edge $-1 $454 0.61662697124231514 $308 8.5125453005103466 $307 $456 forward 7 unknown #
coedge $-1 $302 $374 $379 $457 reversed $221 $-1 #
vertex $-1 $457 $458 #
straight-curve $-1 -30.452833625565027 13.077131436386678 55.61267878121869 0.81915203911291934 0 -0.57357644374324357 I I #
coedge $-1 $450 $304 $376 $457 forward $381 $-1 #
coedge $-1 $304 $459 $306 $384 reversed $381 $-1 #
loop $-1 $-1 $450 $460 #
straight-curve $-1 47.708975493636892 13.077131436386678 66.887243950210305 0 0 -1 I I #
coedge $-1 $461 $306 $462 $463 forward $298 $-1 #
edge $-1 $309 13.077131436386678 $464 19.151294514616968 $380 $465 forward 7 unknown #
point $-1 36.434737393946484 13.077131436386678 8.7774964412691503 #
point $-1 47.708975493636892 13.077131436386678 8.7774964412691467 #
point $-1 39.479568192490675 9.1291722717526618 1.1281718850801188 #
face $-1 $194 $406 $13 $-1 $466 reversed single #
plane-surface $-1 -47.708975493636892 0 0 1 0 0 0 0 -1 forward_v I I I I #
coedge $-1 $467 $327 $320 $391 forward $318 $-1 #
edge $-1 $329 -47.708975493636892 $393 47.708975493636892 $320 $468 forward 7 unknown #
coedge $-1 $321 $323 $467 $469 reversed $252 $-1 #
vertex $-1 $469 $470 #
coedge $-1 $405 $404 $323 $395 reversed $406 $-1 #
edge $-1 $471 -8.7774964412691467 $472 8.7774964412691467 $394 $473 forward 7 unknown #
coedge $-1 $327 $467 $404 $474 forward $318 $-1 #
vertex $-1 $328 $475 #
straight-curve $-1 47.708975493636892 0 -8.7774964412691467 0 -1 0 I I #
point $-1 47.708975493636892 -19.151294514616968 -8.7774964412691467 #
coedge $-1 $331 $337 $330 $401 forward $247 $-1 #
edge $-1 $471 -19.151294514616968 $333 19.151294514616968 $330 $476 forward 7 unknown #
straight-curve $-1 0 -19.151294514616968 8.7774964412691467 1 0 0 I I #
point $-1 -47.708975493636892 -19.151294514616968 8.7774964412691467 #
coedge $-1 $394 $335 $396 $474 reversed $406 $-1 #
coedge $-1 $335 $394 $337 $408 reversed $406 $-1 #
loop $-1 $-1 $335 $388 #
straight-curve $-1 47.708975493636892 19.151294514616968 0 0 0 -1 I I #
edge $-1 $338 -47.708975493636892 $471 47.708975493636892 $405 $477 forward 7 unknown #
point $-1 47.708975493636892 19.151294514616968 8.7774964412691467 #
face $-1 $478 $479 $14 $-1 $412 reversed single #
loop $-1 $-1 $480 $341 #
plane-surface $-1 0 -19.151294514616968 0 0 1 0 0 0 1 forward_v I I I I #
coedge $-1 $481 $421 $482 $483 forward $342 $-1 #
coedge $-1 $484 $344 $481 $485 forward $277 $-1 #
coedge $-1 $344 $484 $480 $486 reversed $277 $-1 #
coedge $-1 $431 $423 $344 $417 reversed $212 $-1 #
edge $-1 $487 -5.2027299571762917 $488 5.2027299571762917 $416 $489 forward 7 unknown #
coedge $-1 $346 $345 $490 $491 forward $198 $-1 #
coedge $-1 $492 $493 $345 $420 forward $479 $-1 #
edge $-1 $494 -47.708975493636892 $426 47.708975493636892 $419 $495 forward 7 unknown #
coedge $-1 $413 $496 $346 $422 reversed $342 $-1 #
edge $-1 $497 -47.708975493636892 $425 47.708975493636892 $421 $498 forward 7 unknown #
coedge $-1 $416 $347 $496 $499 forward $212 $-1 #
coedge $-1 $347 $350 $492 $500 forward $212 $-1 #
vertex $-1 $348 $501 #
vertex $-1 $348 $502 #
straight-curve $-1 47.708975493636892 -24.354024471793259 -3.3942147092480099 0 1 0 I I #
coedge $-1 $493 $492 $349 $429 reversed $479 $-1 #
edge $-1 $440 -47.708975493636892 $430 47.708975493636892 $428 $503 forward 7 unknown #
vertex $-1 $351 $504 #
coedge $-1 $356 $416 $505 $506 forward $212 $-1 #
coedge $-1 $507 $508 $356 $433 forward $509 $-1 #
edge $-1 $435 -19.151294514616968 $510 19.151294514616968 $356 $511 forward 7 unknown #
coedge $-1 $362 $357 $508 $512 reversed $363 $-1 #
vertex $-1 $433 $513 #
straight-curve $-1 47.708975493636892 19.151294514616968 0 0 0 -1 I I #
coedge $-1 $514 $360 $362 $442 forward $439 $-1 #
coedge $-1 $360 $490 $493 $515 reversed $439 $-1 #
loop $-1 $-1 $437 $516 #
vertex $-1 $361 $517 #
straight-curve $-1 -47.708975493636892 0 8.7774964412691467 0 -1 0 I I #
edge $-1 $364 -8.7774964412691467 $518 8.7774964412691467 $362 $519 forward 7 unknown #
face $-1 $291 $363 $14 $-1 $520 reversed single #
point $-1 -47.708975493636892 19.151294514616968 8.7774964412691467 #
face $-1 $521 $522 $15 $-1 $523 reversed single #
loop $-1 $-1 $524 $367 #
plane-surface $-1 0 -24.354024471793259 -7.4249465111150368 0 0 1 1 0 0 forward_v I I I I #
coedge $-1 $525 $526 $527 $528 forward $368 $-1 #
coedge $-1 $370 $529 $530 $531 forward $298 $-1 #
coedge $-1 $530 $379 $371 $451 forward $381 $-1 #
edge $-1 $532 -66.00405416553923 $453 -58.109747508941155 $450 $533 forward 7 unknown #
edge $-1 $532 -95.417950987273784 $454 -81.654647520557688 $372 $534 forward 7 unknown #
vertex $-1 $451 $535 #
vertex $-1 $375 $536 #
straight-curve $-1 12.138327685491294 5.181213107118646 8.7774964412691503 -1 0 0 I I #
straight-curve $-1 36.434737393946492 4.5645861358763309 8.7774964412691503 0 1 0 I I #
edge $-1 $377 -8.5125453005103466 $532 -0.61662697124231514 $379 $537 forward 7 unknown #
point $-1 47.708975493636892 13.077131436386678 0.88318978467107456 #
coedge $-1 $380 $538 $539 $540 reversed $381 $-1 #
face $-1 $-1 $381 $15 $-1 $541 reversed single #
coedge $-1 $529 $383 $542 $543 forward $298 $-1 #
coedge $-1 $539 $544 $383 $463 reversed $545 $-1 #
edge $-1 $464 -47.708975493636892 $546 47.708975493636892 $462 $547 forward 7 unknown #
vertex $-1 $384 $548 #
straight-curve $-1 47.708975493636892 0 8.7774964412691467 0 1 0 I I #
plane-surface $-1 0 19.151294514616968 0 0 -1 0 0 0 -1 forward_v I I I I #
coedge $-1 $396 $390 $392 $469 forward $318 $-1 #
straight-curve $-1 0 -19.151294514616968 -8.7774964412691467 -1 0 0 I I #
edge $-1 $393 -19.151294514616968 $472 19.151294514616968 $392 $549 forward 7 unknown #
point $-1 -47.708975493636892 -19.151294514616968 -8.7774964412691467 #
vertex $-1 $408 $550 #
vertex $-1 $474 $551 #
straight-curve $-1 -47.708975493636892 19.151294514616968 0 0 0 -1 I I #
edge $-1 $472 -47.708975493636892 $397 47.708975493636892 $404 $552 forward 7 unknown #
point $-1 47.708975493636892 19.151294514616968 -8.7774964412691467 #
straight-curve $-1 -47.708975493636892 0 8.7774964412691467 0 -1 0 I I #
straight-curve $-1 0 19.151294514616968 8.7774964412691467 -1 0 0 I I #
face $-1 $516 $509 $14 $-1 $553 reversed single #
loop $-1 $-1 $419 $410 #
coedge $-1 $554 $505 $415 $486 forward $411 $-1 #
coedge $-1 $496 $413 $414 $485 reversed $342 $-1 #
coedge $-1 $490 $555 $413 $483 reversed $439 $-1 #
edge $-1 $497 -2.0153659009335132 $556 2.0153659009335136 $482 $557 forward 7 unknown #
coedge $-1 $415 $414 $555 $558 forward $277 $-1 #
edge $-1 $488 -47.708975493636892 $556 47.708975493636892 $481 $559 forward 7 unknown #
edge $-1 $487 -47.708975493636892 $560 47.708975493636892 $480 $561 forward 7 unknown #
vertex $-1 $506 $562 #
vertex $-1 $499 $563 #
straight-curve $-1 47.708975493636892 -24.354024471793259 -7.4249465111150368 0 -1 0 I I #
coedge $-1 $438 $482 $418 $491 reversed $439 $-1 #
edge $-1 $494 -5.2027299571762917 $497 5.2027299571762917 $490 $564 forward 7 unknown #
coedge $-1 $428 $419 $424 $500 reversed $479 $-1 #
coedge $-1 $419 $428 $438 $515 forward $479 $-1 #
vertex $-1 $515 $565 #
straight-curve $-1 0 -19.151294514616968 -3.3942147092480099 1 0 0 I I #
coedge $-1 $421 $481 $423 $499 reversed $342 $-1 #
vertex $-1 $491 $566 #
straight-curve $-1 0 -29.556754428969551 -3.3942147092480099 1 0 0 I I #
edge $-1 $425 -2.0153659009335132 $488 2.0153659009335136 $423 $567 forward 7 unknown #
edge $-1 $430 -8.7774964412691467 $426 3.3942147092480099 $424 $568 forward 7 unknown #
point $-1 47.708975493636892 -29.556754428969551 -3.3942147092480099 #
point $-1 47.708975493636892 -19.151294514616968 -3.3942147092480099 #
straight-curve $-1 0 -19.151294514616968 8.7774964412691467 1 0 0 I I #
point $-1 47.708975493636892 -19.151294514616968 8.7774964412691467 #
coedge $-1 $480 $569 $431 $506 reversed $411 $-1 #
edge $-1 $487 7.4249465111150368 $510 8.7774964412691467 $431 $568 forward 7 unknown #
coedge $-1 $570 $432 $569 $571 forward $509 $-1 #
coedge $-1 $432 $570 $434 $512 forward $509 $-1 #
loop $-1 $-1 $432 $478 #
vertex $-1 $506 $572 #
straight-curve $-1 47.708975493636892 0 -8.7774964412691467 0 -1 0 I I #
edge $-1 $518 -47.708975493636892 $435 47.708975493636892 $434 $573 forward 7 unknown #
point $-1 47.708975493636892 19.151294514616968 -8.7774964412691467 #
coedge $-1 $574 $437 $570 $575 reversed $439 $-1 #
edge $-1 $440 -8.7774964412691467 $494 3.3942147092480099 $438 $576 forward 7 unknown #
face $-1 $443 $439 $14 $-1 $577 reversed single #
point $-1 -47.708975493636892 -19.151294514616968 8.7774964412691467 #
vertex $-1 $512 $578 #
straight-curve $-1 -47.708975493636892 19.151294514616968 0 0 0 -1 I I #
plane-surface $-1 0 19.151294514616968 0 0 -1 0 0 0 -1 forward_v I I I I #
face $-1 $579 $580 $15 $-1 $581 reversed single #
loop $-1 $-1 $582 $445 #
plane-surface $-1 0 -29.556754428969551 -5.4095806101815231 0 1 0 0 0 1 forward_v I I I I #
coedge $-1 $583 $584 $585 $586 forward $446 $-1 #
coedge $-1 $587 $448 $588 $589 reversed $368 $-1 #
coedge $-1 $448 $587 $590 $591 forward $368 $-1 #
coedge $-1 $592 $593 $448 $528 reversed $381 $-1 #
edge $-1 $594 -5.2027299571762917 $595 5.2027299571762917 $527 $596 forward 7 unknown #
coedge $-1 $449 $461 $597 $598 forward $298 $-1 #
coedge $-1 $593 $450 $449 $531 reversed $381 $-1 #
edge $-1 $599 -19.151294514616968 $453 5.181213107118646 $530 $465 forward 7 unknown #
vertex $-1 $457 $600 #
straight-curve $-1 47.708975493636892 5.181213107118646 66.887243950210305 0 0 1 I I #
straight-curve $-1 -30.452833625565027 5.181213107118646 55.61267878121869 -0.81915203911291934 0 0.57357644374324357 I I #
point $-1 47.708975493636892 5.181213107118646 8.7774964412691467 #
point $-1 36.434737393946484 5.181213107118646 8.7774964412691503 #
straight-curve $-1 47.708975493636892 4.5645861358763309 0.88318978467107101 0 -1 0 I I #
coedge $-1 $459 $601 $602 $603 reversed $381 $-1 #
coedge $-1 $604 $462 $459 $540 forward $545 $-1 #
edge $-1 $464 -8.7774964412691467 $605 8.7774964412691467 $459 $606 forward 7 unknown #
plane-surface $-1 47.708975493636892 0 0 -1 0 0 0 0 1 forward_v I I I I #
coedge $-1 $607 $608 $461 $543 reversed $609 $-1 #
edge $-1 $546 -19.151294514616968 $610 19.151294514616968 $542 $611 forward 7 unknown #
coedge $-1 $462 $604 $607 $612 reversed $545 $-1 #
loop $-1 $-1 $539 $613 #
vertex $-1 $463 $614 #
straight-curve $-1 0 19.151294514616968 8.7774964412691467 -1 0 0 I I #
point $-1 47.708975493636892 19.151294514616968 8.7774964412691467 #
straight-curve $-1 -47.708975493636892 0 -8.7774964412691467 0 1 0 I I #
point $-1 -47.708975493636892 19.151294514616968 8.7774964412691467 #
point $-1 -47.708975493636892 19.151294514616968 -8.7774964412691467 #
straight-curve $-1 0 19.151294514616968 -8.7774964412691467 1 0 0 I I #
plane-surface $-1 0 0 -8.7774964412691467 0 0 1 1 0 0 forward_v I I I I #
coedge $-1 $569 $480 $574 $615 forward $411 $-1 #
coedge $-1 $482 $574 $484 $558 reversed $439 $-1 #
vertex $-1 $558 $616 #
straight-curve $-1 -47.708975493636892 -29.556754428969551 -5.4095806101815231 0 0 -1 I I #
edge $-1 $556 -5.2027299571762917 $560 5.2027299571762917 $555 $617 forward 7 unknown #
straight-curve $-1 0 -29.556754428969551 -7.4249465111150368 -1 0 0 I I #
vertex $-1 $615 $618 #
straight-curve $-1 0 -19.151294514616968 -7.4249465111150368 -1 0 0 I I #
point $-1 47.708975493636892 -19.151294514616968 -7.4249465111150368 #
point $-1 47.708975493636892 -29.556754428969551 -7.4249465111150368 #
straight-curve $-1 -47.708975493636892 -24.354024471793259 -3.3942147092480099 0 -1 0 I I #
point $-1 -47.708975493636892 -19.151294514616968 -3.3942147092480099 #
point $-1 -47.708975493636892 -29.556754428969551 -3.3942147092480099 #
straight-curve $-1 47.708975493636892 -29.556754428969551 -5.4095806101815231 0 0 -1 I I #
straight-curve $-1 47.708975493636892 -19.151294514616968 0 0 0 -1 I I #
coedge $-1 $505 $554 $507 $571 reversed $411 $-1 #
coedge $-1 $508 $507 $514 $575 forward $509 $-1 #
edge $-1 $510 -47.708975493636892 $619 47.708975493636892 $569 $620 forward 7 unknown #
point $-1 47.708975493636892 -19.151294514616968 -8.7774964412691467 #
straight-curve $-1 0 19.151294514616968 -8.7774964412691467 1 0 0 I I #
coedge $-1 $555 $514 $554 $615 reversed $439 $-1 #
edge $-1 $619 -19.151294514616968 $518 19.151294514616968 $514 $621 forward 7 unknown #
straight-curve $-1 -47.708975493636892 -19.151294514616968 0 0 0 -1 I I #
plane-surface $-1 -47.708975493636892 0 0 1 0 0 0 0 -1 forward_v I I I I #
point $-1 -47.708975493636892 19.151294514616968 -8.7774964412691467 #
face $-1 $622 $623 $15 $-1 $581 reversed single #
loop $-1 $-1 $624 $521 #
plane-surface $-1 0 -19.151294514616968 0 0 1 0 0 0 1 forward_v I I I I #
coedge $-1 $625 $590 $626 $627 forward $522 $-1 #
coedge $-1 $628 $524 $625 $629 forward $446 $-1 #
coedge $-1 $524 $628 $624 $630 reversed $446 $-1 #
coedge $-1 $601 $592 $524 $586 reversed $381 $-1 #
edge $-1 $631 -5.2027299571762917 $632 5.2027299571762917 $585 $633 forward 7 unknown #
coedge $-1 $526 $525 $634 $635 forward $368 $-1 #
coedge $-1 $636 $637 $525 $589 forward $623 $-1 #
edge $-1 $638 -47.708975493636892 $595 47.708975493636892 $588 $639 forward 7 unknown #
coedge $-1 $582 $640 $526 $591 reversed $522 $-1 #
edge $-1 $641 -47.708975493636892 $594 47.708975493636892 $590 $642 forward 7 unknown #
coedge $-1 $585 $527 $640 $643 forward $381 $-1 #
coedge $-1 $527 $530 $636 $644 forward $381 $-1 #
vertex $-1 $528 $645 #
vertex $-1 $528 $646 #
straight-curve $-1 47.708975493636892 -24.354024471793259 -3.3942147092480099 0 1 0 I I #
coedge $-1 $637 $636 $529 $598 reversed $623 $-1 #
edge $-1 $610 -47.708975493636892 $599 47.708975493636892 $597 $647 forward 7 unknown #
vertex $-1 $531 $648 #
point $-1 47.708975493636892 5.181213107118646 0.88318978467107456 #
coedge $-1 $538 $585 $649 $650 forward $381 $-1 #
coedge $-1 $651 $652 $538 $603 forward $653 $-1 #
edge $-1 $605 -19.151294514616968 $654 19.151294514616968 $538 $655 forward 7 unknown #
coedge $-1 $544 $539 $652 $656 reversed $545 $-1 #
vertex $-1 $603 $657 #
straight-curve $-1 47.708975493636892 19.151294514616968 0 0 0 -1 I I #
coedge $-1 $658 $542 $544 $612 forward $609 $-1 #
coedge $-1 $542 $634 $637 $659 reversed $609 $-1 #
loop $-1 $-1 $607 $660 #
vertex $-1 $543 $661 #
straight-curve $-1 -47.708975493636892 0 8.7774964412691467 0 -1 0 I I #
edge $-1 $546 -8.7774964412691467 $662 8.7774964412691467 $544 $663 forward 7 unknown #
face $-1 $460 $545 $15 $-1 $664 reversed single #
point $-1 -47.708975493636892 19.151294514616968 8.7774964412691467 #
edge $-1 $560 7.4249465111150368 $619 8.7774964412691467 $574 $576 forward 7 unknown #
point $-1 -47.708975493636892 -29.556754428969551 -7.4249465111150368 #
straight-curve $-1 -47.708975493636892 -24.354024471793259 -7.4249465111150368 0 1 0 I I #
point $-1 -47.708975493636892 -19.151294514616968 -7.4249465111150368 #
vertex $-1 $575 $665 #
straight-curve $-1 0 -19.151294514616968 -8.7774964412691467 -1 0 0 I I #
straight-curve $-1 -47.708975493636892 0 -8.7774964412691467 0 1 0 I I #
face $-1 $660 $653 $15 $-1 $666 reversed single #
loop $-1 $-1 $588 $579 #
coedge $-1 $667 $649 $584 $630 forward $580 $-1 #
coedge $-1 $640 $582 $583 $629 reversed $522 $-1 #
coedge $-1 $634 $668 $582 $627 reversed $609 $-1 #
edge $-1 $641 -2.0153659009335132 $669 2.0153659009335136 $626 $670 forward 7 unknown #
coedge $-1 $584 $583 $668 $671 forward $446 $-1 #
edge $-1 $632 -47.708975493636892 $669 47.708975493636892 $625 $672 forward 7 unknown #
edge $-1 $631 -47.708975493636892 $673 47.708975493636892 $624 $674 forward 7 unknown #
vertex $-1 $650 $675 #
vertex $-1 $643 $676 #
straight-curve $-1 47.708975493636892 -24.354024471793259 -7.4249465111150368 0 -1 0 I I #
coedge $-1 $608 $626 $587 $635 reversed $609 $-1 #
edge $-1 $638 -5.2027299571762917 $641 5.2027299571762917 $634 $677 forward 7 unknown #
coedge $-1 $597 $588 $593 $644 reversed $623 $-1 #
coedge $-1 $588 $597 $608 $659 forward $623 $-1 #
vertex $-1 $659 $678 #
straight-curve $-1 0 -19.151294514616968 -3.3942147092480099 1 0 0 I I #
coedge $-1 $590 $625 $592 $643 reversed $522 $-1 #
vertex $-1 $635 $679 #
straight-curve $-1 0 -29.556754428969551 -3.3942147092480099 1 0 0 I I #
edge $-1 $594 -2.0153659009335132 $632 2.0153659009335136 $592 $680 forward 7 unknown #
edge $-1 $599 -8.7774964412691467 $595 3.3942147092480099 $593 $681 forward 7 unknown #
point $-1 47.708975493636892 -29.556754428969551 -3.3942147092480099 #
point $-1 47.708975493636892 -19.151294514616968 -3.3942147092480099 #
straight-curve $-1 0 -19.151294514616968 8.7774964412691467 1 0 0 I I #
point $-1 47.708975493636892 -19.151294514616968 8.7774964412691467 #
coedge $-1 $624 $682 $601 $650 reversed $580 $-1 #
edge $-1 $631 7.4249465111150368 $654 8.7774964412691467 $601 $681 forward 7 unknown #
coedge $-1 $683 $602 $682 $684 forward $653 $-1 #
coedge $-1 $602 $683 $604 $656 forward $653 $-1 #
loop $-1 $-1 $602 $622 #
vertex $-1 $650 $685 #
straight-curve $-1 47.708975493636892 0 -8.7774964412691467 0 -1 0 I I #
edge $-1 $662 -47.708975493636892 $605 47.708975493636892 $604 $686 forward 7 unknown #
point $-1 47.708975493636892 19.151294514616968 -8.7774964412691467 #
coedge $-1 $687 $607 $683 $688 reversed $609 $-1 #
edge $-1 $610 -8.7774964412691467 $638 3.3942147092480099 $608 $689 forward 7 unknown #
face $-1 $613 $609 $15 $-1 $690 reversed single #
point $-1 -47.708975493636892 -19.151294514616968 8.7774964412691467 #
vertex $-1 $656 $691 #
straight-curve $-1 -47.708975493636892 19.151294514616968 0 0 0 -1 I I #
plane-surface $-1 0 19.151294514616968 0 0 -1 0 0 0 -1 forward_v I I I I #
point $-1 -47.708975493636892 -19.151294514616968 -8.7774964412691467 #
plane-surface $-1 0 0 -8.7774964412691467 0 0 1 1 0 0 forward_v I I I I #
coedge $-1 $682 $624 $687 $692 forward $580 $-1 #
coedge $-1 $626 $687 $628 $671 reversed $609 $-1 #
vertex $-1 $671 $693 #
straight-curve $-1 -47.708975493636892 -29.556754428969551 -5.4095806101815231 0 0 -1 I I #
edge $-1 $669 -5.2027299571762917 $673 5.2027299571762917 $668 $694 forward 7 unknown #
straight-curve $-1 0 -29.556754428969551 -7.4249465111150368 -1 0 0 I I #
vertex $-1 $692 $695 #
straight-curve $-1 0 -19.151294514616968 -7.4249465111150368 -1 0 0 I I #
point $-1 47.708975493636892 -19.151294514616968 -7.4249465111150368 #
point $-1 47.708975493636892 -29.556754428969551 -7.4249465111150368 #
straight-curve $-1 -47.708975493636892 -24.354024471793259 -3.3942147092480099 0 -1 0 I I #
point $-1 -47.708975493636892 -19.151294514616968 -3.3942147092480099 #
point $-1 -47.708975493636892 -29.556754428969551 -3.3942147092480099 #
straight-curve $-1 47.708975493636892 -29.556754428969551 -5.4095806101815231 0 0 -1 I I #
straight-curve $-1 47.708975493636892 -19.151294514616968 0 0 0 -1 I I #
coedge $-1 $649 $667 $651 $684 reversed $580 $-1 #
coedge $-1 $652 $651 $658 $688 forward $653 $-1 #
edge $-1 $654 -47.708975493636892 $696 47.708975493636892 $682 $697 forward 7 unknown #
point $-1 47.708975493636892 -19.151294514616968 -8.7774964412691467 #
straight-curve $-1 0 19.151294514616968 -8.7774964412691467 1 0 0 I I #
coedge $-1 $668 $658 $667 $692 reversed $609 $-1 #
edge $-1 $696 -19.151294514616968 $662 19.151294514616968 $658 $698 forward 7 unknown #
straight-curve $-1 -47.708975493636892 -19.151294514616968 0 0 0 -1 I I #
plane-surface $-1 -47.708975493636892 0 0 1 0 0 0 0 -1 forward_v I I I I #
point $-1 -47.708975493636892 19.151294514616968 -8.7774964412691467 #
edge $-1 $673 7.4249465111150368 $696 8.7774964412691467 $687 $689 forward 7 unknown #
point $-1 -47.708975493636892 -29.556754428969551 -7.4249465111150368 #
straight-curve $-1 -47.708975493636892 -24.354024471793259 -7.4249465111150368 0 1 0 I I #
point $-1 -47.708975493636892 -19.151294514616968 -7.4249465111150368 #
vertex $-1 $688 $699 #
straight-curve $-1 0 -19.151294514616968 -8.7774964412691467 -1 0 0 I I #
straight-curve $-1 -47.708975493636892 0 -8.7774964412691467 0 1 0 I I #
point $-1 -47.708975493636892 -19.151294514616968 -8.7774964412691467 #
End-of-ACIS-data 