500 0 9 0           
7 Unknown 11 ACIS 5.0 NT 24 Thu Mar 25 15:07:16 1999 
-1 9.9999999999999995e-007 1e-010 
body $-1 $9 $-1 $10 #
body $-1 $11 $-1 $12 #
body $-1 $13 $-1 $14 #
body $-1 $15 $-1 $16 #
body $-1 $17 $-1 $18 #
body $-1 $19 $-1 $20 #
body $-1 $21 $-1 $22 #
body $-1 $23 $-1 $24 #
body $-1 $25 $-1 $26 #
lump $-1 $-1 $27 $0 #
transform $-1 1 0 0 0 1 0 0 0 1 68.173467207861563 41.888597817400431 13.656012709885454 1 rotate no_reflect no_shear #
lump $-1 $-1 $28 $1 #
transform $-1 1 0 0 0 1 0 0 0 1 68.173467207861563 41.888597817400431 13.656012709885454 1 rotate no_reflect no_shear #
lump $-1 $-1 $29 $2 #
transform $-1 1 0 0 0 1 0 0 0 1 68.173467207861563 41.888597817400431 13.656012709885454 1 rotate no_reflect no_shear #
lump $-1 $-1 $30 $3 #
transform $-1 1 0 0 0 1 0 0 0 1 68.173467207861563 41.888597817400431 13.656012709885454 1 rotate no_reflect no_shear #
lump $-1 $-1 $31 $4 #
transform $-1 1 0 0 0 1 0 0 0 1 68.173467207861563 41.888597817400431 13.656012709885454 1 rotate no_reflect no_shear #
lump $-1 $-1 $32 $5 #
transform $-1 1 0 0 0 1 0 0 0 1 68.173467207861563 41.888597817400431 13.656012709885454 1 rotate no_reflect no_shear #
lump $-1 $-1 $33 $6 #
transform $-1 1 0 0 0 1 0 0 0 1 68.173467207861563 41.888597817400431 13.656012709885454 1 rotate no_reflect no_shear #
lump $-1 $-1 $34 $7 #
transform $-1 1 0 0 0 1 0 0 0 1 68.173467207861563 41.888597817400431 13.656012709885454 1 rotate no_reflect no_shear #
lump $-1 $-1 $35 $8 #
transform $-1 1 0 0 0 1 0 0 0 1 68.173467207861563 41.888597817400431 13.656012709885454 1 rotate no_reflect no_shear #
shell $-1 $-1 $-1 $36 $-1 $9 #
shell $-1 $-1 $-1 $37 $-1 $11 #
shell $-1 $-1 $-1 $38 $-1 $13 #
shell $-1 $-1 $-1 $39 $-1 $15 #
shell $-1 $-1 $-1 $40 $-1 $17 #
shell $-1 $-1 $-1 $41 $-1 $19 #
shell $-1 $-1 $-1 $42 $-1 $21 #
shell $-1 $-1 $-1 $43 $-1 $23 #
shell $-1 $-1 $-1 $44 $-1 $25 #
face $-1 $45 $46 $27 $-1 $47 forward single #
face $-1 $48 $49 $28 $-1 $50 reversed single #
face $-1 $51 $52 $29 $-1 $53 forward single #
face $-1 $54 $55 $30 $-1 $56 reversed single #
face $-1 $57 $58 $31 $-1 $59 forward single #
face $-1 $60 $61 $32 $-1 $62 forward single #
face $-1 $63 $64 $33 $-1 $65 reversed single #
face $-1 $66 $67 $34 $-1 $68 forward single #
face $-1 $69 $70 $35 $-1 $71 forward single #
face $-1 $72 $73 $27 $-1 $74 reversed single #
loop $-1 $-1 $75 $36 #
plane-surface $-1 0 0 13.656012709885454 0 0 1 1 0 0 forward_v I I I I #
face $-1 $76 $77 $28 $-1 $78 reversed single #
loop $-1 $-1 $79 $37 #
plane-surface $-1 -59.876787394323756 -33.822669138391383 0 1 0 0 0 0 -1 forward_v I I I I #
face $-1 $80 $81 $29 $-1 $82 reversed single #
loop $-1 $-1 $83 $38 #
plane-surface $-1 0 36.76968727598868 -6.6995188913831196 0 0 1 1 0 0 forward_v I I I I #
face $-1 $84 $85 $30 $-1 $86 reversed single #
loop $-1 $-1 $87 $39 #
plane-surface $-1 108.26376811639648 3.5770448428401025 197.06211731248791 0 -1 0 -0.83867057594974714 0 -0.54463902268945019 forward_v I I I I #
face $-1 $88 $89 $31 $-1 $90 forward single #
loop $-1 $91 $92 $40 #
cone-surface $-1 65.709999039649986 -7.9375809331899774 10.551583353418593 -0.83867057594974714 0 -0.54463902268945019 0.54463902268945019 0 -0.83867057594974714 1 I I 0 1 1 forward I I I I #
face $-1 $93 $94 $32 $-1 $95 forward single #
loop $-1 $96 $97 $41 #
cone-surface $-1 65.709999039649986 -1.028805467571928 10.551583353418593 -0.83867057594974714 0 -0.54463902268945019 0.54463902268945019 0 -0.83867057594974714 1 I I 0 1 1 forward I I I I #
face $-1 $98 $99 $33 $-1 $100 reversed single #
loop $-1 $-1 $101 $42 #
plane-surface $-1 -161.16185398449375 -18.309141465962945 104.65282951570987 0 1 0 -0.68199836817093118 0 0.7313536940579346 forward_v I I I I #
face $-1 $102 $103 $34 $-1 $104 forward single #
loop $-1 $105 $106 $43 #
cone-surface $-1 -62.483533854132254 -15.642547574029127 8.2082718955217508 0.68199836817093118 0 -0.7313536940579346 0.7313536940579346 0 0.68199836817093118 1 I I 0 1 1 forward I I I I #
face $-1 $107 $108 $35 $-1 $109 forward single #
loop $-1 $110 $111 $44 #
cone-surface $-1 -62.483533854132254 -11.642656736128405 8.2082718955217508 0.68199836817093118 0 -0.7313536940579346 0.7313536940579346 0 0.68199836817093118 1 I I 0 1 1 forward I I I I #
face $-1 $112 $113 $27 $-1 $114 reversed single #
loop $-1 $-1 $115 $45 #
plane-surface $-1 0 0 -13.656012709885454 0 0 1 1 0 0 forward_v I I I I #
coedge $-1 $116 $117 $118 $119 forward $46 $-1 #
face $-1 $120 $121 $28 $-1 $122 reversed single #
loop $-1 $-1 $123 $48 #
plane-surface $-1 -56.088553539254761 -25.756740459382335 0 0 -1 0 0 0 -1 forward_v I I I I #
coedge $-1 $124 $125 $126 $127 forward $49 $-1 #
face $-1 $128 $129 $29 $-1 $130 reversed single #
loop $-1 $-1 $131 $51 #
plane-surface $-1 0 31.650776734576922 -10.177765800634287 0 1 0 0 0 1 forward_v I I I I #
coedge $-1 $132 $133 $134 $135 reversed $52 $-1 #
face $-1 $136 $137 $30 $-1 $138 reversed single #
loop $-1 $-1 $139 $54 #
plane-surface $-1 -6.086393899020436 -4.4831932003809527 122.80225620560591 0.83867057594974714 0 0.54463902268945019 0.54463902268945019 0 -0.83867057594974714 forward_v I I I I #
coedge $-1 $140 $141 $142 $143 reversed $55 $-1 #
face $-1 $-1 $144 $31 $-1 $145 forward single #
loop $-1 $146 $147 $57 #
cone-surface $-1 64.516927629632789 -7.9375809331899774 9.7767937454552563 -0.83867057594974714 0 -0.54463902268945019 0.2723195113447251 0 -0.41933528797487357 1 I I -0.70710678118654746 0.70710678118654746 0.5 forward I I I I #
loop $-1 $-1 $148 $40 #
coedge $-1 $92 $92 $149 $150 reversed $58 $-1 #
face $-1 $-1 $151 $32 $-1 $152 forward single #
loop $-1 $153 $154 $60 #
cone-surface $-1 64.516927629632789 -1.028805467571928 9.7767937454552563 -0.83867057594974714 0 -0.54463902268945019 0.2723195113447251 0 -0.41933528797487357 1 I I -0.70710678118654746 0.70710678118654746 0.5 forward I I I I #
loop $-1 $-1 $155 $41 #
coedge $-1 $97 $97 $156 $157 reversed $61 $-1 #
face $-1 $158 $159 $33 $-1 $160 reversed single #
loop $-1 $-1 $161 $63 #
plane-surface $-1 -68.173467207861592 -13.642602155078769 4.9349953572958185 -0.68199836817093118 0 0.7313536940579346 0.7313536940579346 0 0.68199836817093118 forward_v I I I I #
coedge $-1 $162 $163 $164 $165 reversed $64 $-1 #
face $-1 $-1 $166 $34 $-1 $167 forward single #
loop $-1 $168 $169 $66 #
cone-surface $-1 -61.128674276627848 -15.642547574029127 6.7553629104238997 0.68199836817093118 0 -0.7313536940579346 0.3656768470289673 0 0.34099918408546559 1 I I -0.70710678118654746 0.70710678118654746 0.5 forward I I I I #
loop $-1 $-1 $170 $43 #
coedge $-1 $106 $106 $171 $172 reversed $67 $-1 #
face $-1 $-1 $173 $35 $-1 $174 forward single #
loop $-1 $175 $176 $69 #
cone-surface $-1 -61.128674276627848 -11.642656736128405 6.7553629104238997 0.68199836817093118 0 -0.7313536940579346 0.3656768470289673 0 0.34099918408546559 1 I I -0.70710678118654746 0.70710678118654746 0.5 forward I I I I #
loop $-1 $-1 $177 $44 #
coedge $-1 $111 $111 $178 $179 reversed $70 $-1 #
face $-1 $180 $181 $27 $-1 $182 reversed single #
loop $-1 $-1 $183 $72 #
plane-surface $-1 0 -41.888597817400431 0 0 1 0 0 0 1 forward_v I I I I #
coedge $-1 $184 $185 $186 $187 forward $73 $-1 #
coedge $-1 $188 $75 $189 $190 forward $46 $-1 #
coedge $-1 $75 $188 $191 $192 forward $46 $-1 #
coedge $-1 $193 $194 $75 $119 reversed $195 $-1 #
edge $-1 $196 -41.888597817400431 $197 41.888597817400431 $118 $198 forward 7 unknown #
face $-1 $199 $200 $28 $-1 $201 forward single #
loop $-1 $-1 $202 $76 #
plane-surface $-1 -52.300319684185766 -33.822669138391383 0 -1 0 0 0 0 1 forward_v I I I I #
coedge $-1 $203 $204 $205 $206 forward $77 $-1 #
coedge $-1 $207 $79 $208 $209 reversed $49 $-1 #
coedge $-1 $79 $207 $210 $211 reversed $49 $-1 #
coedge $-1 $204 $203 $79 $127 reversed $77 $-1 #
edge $-1 $212 -13.656012709885454 $213 13.656012709885454 $126 $214 forward 7 unknown #
face $-1 $215 $216 $29 $-1 $217 reversed single #
loop $-1 $-1 $218 $80 #
plane-surface $-1 0 41.888597817400431 0 0 -1 0 0 0 -1 forward_v I I I I #
coedge $-1 $219 $220 $221 $222 reversed $81 $-1 #
coedge $-1 $223 $83 $218 $224 reversed $52 $-1 #
coedge $-1 $83 $223 $220 $225 forward $52 $-1 #
coedge $-1 $226 $227 $83 $135 forward $216 $-1 #
edge $-1 $228 -23.503754179406098 $229 -13.265933096582582 $134 $230 forward 7 unknown #
face $-1 $231 $232 $30 $-1 $233 reversed single #
loop $-1 $-1 $234 $84 #
plane-surface $-1 108.26376811639648 -12.543431243602008 197.06211731248791 0 1 0 0.83867057594974714 0 0.54463902268945019 forward_v I I I I #
coedge $-1 $235 $236 $237 $238 reversed $85 $-1 #
coedge $-1 $141 $87 $239 $240 reversed $55 $-1 #
coedge $-1 $87 $140 $235 $241 reversed $55 $-1 #
coedge $-1 $237 $242 $87 $143 forward $243 $-1 #
edge $-1 $244 -14.041583149663325 $245 -10.66211905732483 $142 $246 forward 7 unknown #
loop $-1 $-1 $149 $88 #
plane-surface $-1 -6.086393899020436 -4.4831932003809527 122.80225620560591 0.83867057594974714 0 0.54463902268945019 0.54463902268945019 0 -0.83867057594974714 forward_v I I I I #
loop $-1 $-1 $247 $57 #
coedge $-1 $147 $147 $148 $248 reversed $89 $-1 #
coedge $-1 $148 $148 $147 $248 forward $91 $-1 #
coedge $-1 $149 $149 $92 $150 forward $144 $-1 #
edge $-1 $249 0 $249 6.2831853071796004 $149 $250 forward 7 unknown #
loop $-1 $-1 $156 $93 #
plane-surface $-1 -6.086393899020436 -4.4831932003809527 122.80225620560591 0.83867057594974714 0 0.54463902268945019 0.54463902268945019 0 -0.83867057594974714 forward_v I I I I #
loop $-1 $-1 $251 $60 #
coedge $-1 $154 $154 $155 $252 reversed $94 $-1 #
coedge $-1 $155 $155 $154 $252 forward $96 $-1 #
coedge $-1 $156 $156 $97 $157 forward $151 $-1 #
edge $-1 $253 0 $253 6.2831853071796004 $156 $254 forward 7 unknown #
face $-1 $255 $256 $33 $-1 $257 forward single #
loop $-1 $-1 $258 $98 #
plane-surface $-1 -161.16185398449375 -8.9760628441945958 104.65282951570987 0 -1 0 0.68199836817093118 0 -0.7313536940579346 forward_v I I I I #
coedge $-1 $259 $260 $261 $262 reversed $99 $-1 #
coedge $-1 $163 $101 $263 $264 reversed $64 $-1 #
coedge $-1 $101 $162 $259 $265 reversed $64 $-1 #
coedge $-1 $261 $266 $101 $165 forward $256 $-1 #
edge $-1 $267 12.40745978438531 $268 21.759605705006024 $164 $269 forward 7 unknown #
loop $-1 $-1 $171 $102 #
plane-surface $-1 -68.173467207861592 -13.642602155078769 4.9349953572958185 -0.68199836817093118 0 0.7313536940579346 0.7313536940579346 0 0.68199836817093118 forward_v I I I I #
loop $-1 $-1 $270 $66 #
coedge $-1 $169 $169 $170 $271 reversed $103 $-1 #
coedge $-1 $170 $170 $169 $271 forward $105 $-1 #
coedge $-1 $171 $171 $106 $172 forward $166 $-1 #
edge $-1 $272 0 $272 6.2831853071796004 $171 $273 forward 7 unknown #
loop $-1 $-1 $178 $107 #
plane-surface $-1 -68.173467207861592 -13.642602155078769 4.9349953572958185 -0.68199836817093118 0 0.7313536940579346 0.7313536940579346 0 0.68199836817093118 forward_v I I I I #
loop $-1 $-1 $274 $69 #
coedge $-1 $176 $176 $177 $275 reversed $108 $-1 #
coedge $-1 $177 $177 $176 $275 forward $110 $-1 #
coedge $-1 $178 $178 $111 $179 forward $173 $-1 #
edge $-1 $276 0 $276 6.2831853071796004 $178 $277 forward 7 unknown #
face $-1 $278 $279 $27 $-1 $280 reversed single #
loop $-1 $-1 $281 $112 #
plane-surface $-1 -68.173467207861563 0 0 1 0 0 0 0 -1 forward_v I I I I #
coedge $-1 $282 $191 $283 $284 forward $113 $-1 #
coedge $-1 $285 $115 $282 $286 forward $73 $-1 #
coedge $-1 $115 $285 $287 $288 forward $73 $-1 #
coedge $-1 $194 $193 $115 $187 reversed $195 $-1 #
edge $-1 $289 -41.888597817400431 $290 41.888597817400431 $186 $291 forward 7 unknown #
coedge $-1 $117 $116 $292 $293 forward $46 $-1 #
coedge $-1 $294 $295 $116 $190 reversed $279 $-1 #
edge $-1 $197 -68.173467207861563 $296 68.173467207861563 $189 $297 forward 7 unknown #
coedge $-1 $183 $298 $117 $192 reversed $113 $-1 #
edge $-1 $299 -68.173467207861563 $196 68.173467207861563 $191 $300 forward 7 unknown #
coedge $-1 $186 $118 $298 $301 forward $195 $-1 #
coedge $-1 $118 $186 $294 $302 reversed $195 $-1 #
loop $-1 $-1 $193 $278 #
vertex $-1 $119 $303 #
vertex $-1 $119 $304 #
straight-curve $-1 68.173467207861563 0 13.656012709885454 0 1 0 I I #
face $-1 $305 $306 $28 $-1 $307 reversed single #
loop $-1 $-1 $308 $120 #
plane-surface $-1 0 0 13.656012709885454 0 0 1 1 0 0 forward_v I I I I #
coedge $-1 $309 $310 $311 $312 reversed $121 $-1 #
coedge $-1 $126 $123 $313 $314 reversed $77 $-1 #
coedge $-1 $123 $126 $315 $316 reversed $77 $-1 #
coedge $-1 $310 $309 $123 $206 reversed $121 $-1 #
edge $-1 $317 -13.656012709885454 $318 13.656012709885454 $205 $319 forward 7 unknown #
coedge $-1 $125 $124 $320 $321 reversed $49 $-1 #
coedge $-1 $313 $322 $124 $209 forward $306 $-1 #
edge $-1 $323 -24.977263248204739 $213 -8.8454058901866439 $208 $324 forward 7 unknown #
coedge $-1 $325 $315 $125 $211 forward $200 $-1 #
edge $-1 $212 8.8454058901866439 $326 24.977263248204739 $210 $327 forward 7 unknown #
vertex $-1 $211 $328 #
vertex $-1 $209 $329 #
straight-curve $-1 -59.876787394323756 -25.756740459382335 0 0 0 -1 I I #
face $-1 $330 $331 $29 $-1 $332 reversed single #
loop $-1 $-1 $134 $128 #
plane-surface $-1 68.173467207861563 0 0 -1 0 0 0 0 1 forward_v I I I I #
coedge $-1 $333 $334 $132 $224 forward $129 $-1 #
coedge $-1 $335 $131 $336 $337 reversed $81 $-1 #
coedge $-1 $131 $335 $133 $225 reversed $81 $-1 #
coedge $-1 $338 $339 $131 $222 forward $340 $-1 #
edge $-1 $341 -8.5671298095683106 $342 -1.6106359910659762 $221 $343 forward 7 unknown #
coedge $-1 $133 $132 $338 $344 reversed $52 $-1 #
edge $-1 $345 -68.173467207861563 $228 68.173467207861563 $218 $346 forward 7 unknown #
edge $-1 $342 -68.173467207861563 $229 68.173467207861563 $220 $347 forward 7 unknown #
coedge $-1 $348 $134 $335 $349 forward $216 $-1 #
coedge $-1 $134 $348 $333 $350 reversed $216 $-1 #
vertex $-1 $350 $351 #
vertex $-1 $135 $352 #
straight-curve $-1 68.173467207861563 18.38484363799434 -6.6995188913831196 0 -1 0 I I #
face $-1 $-1 $243 $30 $-1 $353 forward single #
loop $-1 $-1 $354 $136 #
plane-surface $-1 68.173467207861563 0 0 -1 0 0 0 0 1 forward_v I I I I #
coedge $-1 $355 $356 $357 $358 reversed $137 $-1 #
coedge $-1 $359 $139 $141 $241 forward $85 $-1 #
coedge $-1 $139 $359 $355 $360 forward $85 $-1 #
coedge $-1 $357 $142 $139 $238 forward $243 $-1 #
edge $-1 $245 -5.8186414430305788 $361 10.301834643411532 $237 $362 forward 7 unknown #
coedge $-1 $363 $364 $140 $240 forward $232 $-1 #
edge $-1 $365 -90.078964466054956 $244 -84.875045946358497 $239 $366 forward 7 unknown #
edge $-1 $245 130.1419730531484 $365 136.34693441572313 $141 $367 forward 7 unknown #
coedge $-1 $142 $357 $363 $368 forward $243 $-1 #
loop $-1 $-1 $357 $231 #
vertex $-1 $240 $369 #
vertex $-1 $143 $370 #
straight-curve $-1 54.131884058198239 3.5770448428401025 13.656012709885459 -1 0 0 I I #
coedge $-1 $247 $247 $-1 $371 reversed $146 $-1 #
edge $-1 $372 0 $372 6.2831853071796004 $147 $373 forward 7 unknown #
vertex $-1 $150 $374 #
ellipse-curve $-1 66.483735161692337 -7.9375809331899774 11.054053450037218 0.83867057594974714 0 0.54463902268945019 0.54463902268945019 0 -0.83867057594974714 1 I I #
coedge $-1 $251 $251 $-1 $375 reversed $153 $-1 #
edge $-1 $376 0 $376 6.2831853071796004 $154 $377 forward 7 unknown #
vertex $-1 $157 $378 #
ellipse-curve $-1 66.483735161692337 -1.028805467571928 11.054053450037218 0.83867057594974714 0 0.54463902268945019 0.54463902268945019 0 -0.83867057594974714 1 I I #
face $-1 $-1 $379 $33 $-1 $380 reversed single #
loop $-1 $-1 $164 $158 #
plane-surface $-1 0 0 13.656012709885454 0 0 1 1 0 0 forward_v I I I I #
coedge $-1 $381 $382 $383 $384 reversed $159 $-1 #
coedge $-1 $385 $161 $163 $265 forward $99 $-1 #
coedge $-1 $161 $385 $381 $386 forward $99 $-1 #
coedge $-1 $383 $164 $161 $262 forward $256 $-1 #
edge $-1 $268 -11.48784038842356 $387 -2.154761766655211 $261 $388 forward 7 unknown #
coedge $-1 $389 $390 $162 $264 forward $379 $-1 #
edge $-1 $391 -47.391419400559087 $267 -38.670402047969482 $263 $392 forward 7 unknown #
edge $-1 $268 -12.787446069671329 $391 -3.8958409169770864e-014 $163 $393 forward 7 unknown #
coedge $-1 $164 $383 $389 $394 forward $256 $-1 #
vertex $-1 $165 $395 #
vertex $-1 $165 $396 #
straight-curve $-1 -80.580926992246873 -18.309141465962945 13.656012709885452 1 0 0 I I #
coedge $-1 $270 $270 $-1 $397 reversed $168 $-1 #
edge $-1 $398 0 $398 6.2831853071796004 $169 $399 forward 7 unknown #
vertex $-1 $172 $400 #
ellipse-curve $-1 -63.497394247551206 -15.642547574029127 9.2955040335906496 -0.68199836817093118 0 0.7313536940579346 0.7313536940579346 0 0.68199836817093118 1 I I #
coedge $-1 $274 $274 $-1 $401 reversed $175 $-1 #
edge $-1 $402 0 $402 6.2831853071796004 $176 $403 forward 7 unknown #
vertex $-1 $179 $404 #
ellipse-curve $-1 -63.497394247551206 -11.642656736128405 9.2955040335906496 -0.68199836817093118 0 0.7313536940579346 0.7313536940579346 0 0.68199836817093118 1 I I #
face $-1 $-1 $195 $27 $-1 $405 reversed single #
loop $-1 $-1 $294 $180 #
plane-surface $-1 0 41.888597817400431 0 0 -1 0 0 0 -1 forward_v I I I I #
coedge $-1 $406 $292 $295 $407 forward $181 $-1 #
coedge $-1 $298 $183 $184 $286 reversed $113 $-1 #
coedge $-1 $292 $406 $183 $284 reversed $181 $-1 #
edge $-1 $299 -13.656012709885454 $408 13.656012709885454 $283 $409 forward 7 unknown #
coedge $-1 $185 $184 $406 $410 forward $73 $-1 #
edge $-1 $290 -68.173467207861563 $408 68.173467207861563 $282 $411 forward 7 unknown #
coedge $-1 $295 $294 $185 $288 reversed $279 $-1 #
edge $-1 $412 -68.173467207861563 $289 68.173467207861563 $287 $413 forward 7 unknown #
vertex $-1 $187 $414 #
vertex $-1 $301 $415 #
straight-curve $-1 68.173467207861563 0 -13.656012709885454 0 -1 0 I I #
coedge $-1 $281 $283 $188 $293 reversed $181 $-1 #
edge $-1 $296 -41.888597817400431 $299 41.888597817400431 $292 $416 forward 7 unknown #
coedge $-1 $287 $189 $194 $302 forward $279 $-1 #
coedge $-1 $189 $287 $281 $407 reversed $279 $-1 #
vertex $-1 $190 $417 #
straight-curve $-1 0 41.888597817400431 13.656012709885454 -1 0 0 I I #
coedge $-1 $191 $282 $193 $301 reversed $113 $-1 #
vertex $-1 $293 $418 #
straight-curve $-1 0 -41.888597817400431 13.656012709885454 1 0 0 I I #
edge $-1 $196 -13.656012709885454 $290 13.656012709885454 $193 $419 forward 7 unknown #
edge $-1 $197 -13.656012709885454 $289 13.656012709885454 $194 $420 forward 7 unknown #
point $-1 68.173467207861563 -41.888597817400431 13.656012709885454 #
point $-1 68.173467207861563 41.888597817400431 13.656012709885454 #
face $-1 $-1 $421 $28 $-1 $422 reversed single #
loop $-1 $-1 $423 $199 #
plane-surface $-1 0 0 -13.656012709885454 0 0 1 1 0 0 forward_v I I I I #
coedge $-1 $315 $325 $310 $424 forward $200 $-1 #
coedge $-1 $205 $202 $423 $425 reversed $121 $-1 #
coedge $-1 $202 $205 $308 $424 reversed $121 $-1 #
coedge $-1 $426 $427 $202 $312 forward $421 $-1 #
edge $-1 $428 -13.656012709885454 $429 13.656012709885454 $311 $430 forward 7 unknown #
coedge $-1 $423 $208 $203 $314 forward $306 $-1 #
edge $-1 $213 -31.832510624696376 $318 -24.256042914558385 $313 $431 forward 7 unknown #
coedge $-1 $210 $308 $204 $316 forward $200 $-1 #
edge $-1 $317 24.256042914558385 $212 31.832510624696376 $315 $432 forward 7 unknown #
vertex $-1 $316 $433 #
vertex $-1 $314 $434 #
straight-curve $-1 -52.300319684185766 -25.756740459382335 0 0 0 -1 I I #
coedge $-1 $427 $426 $207 $321 forward $421 $-1 #
edge $-1 $326 -13.656012709885454 $323 13.656012709885454 $320 $435 forward 7 unknown #
coedge $-1 $208 $423 $427 $436 forward $306 $-1 #
vertex $-1 $209 $437 #
straight-curve $-1 -59.876787394323756 -16.911334569195692 -13.656012709885454 0 1 0 I I #
coedge $-1 $308 $210 $426 $438 forward $200 $-1 #
vertex $-1 $438 $439 #
straight-curve $-1 -59.876787394323756 -16.911334569195692 13.656012709885454 0 -1 0 I I #
point $-1 -59.876787394323756 -25.756740459382335 13.656012709885454 #
point $-1 -59.876787394323756 -25.756740459382335 -13.656012709885454 #
face $-1 $-1 $340 $29 $-1 $440 reversed single #
loop $-1 $-1 $336 $215 #
plane-surface $-1 0 0 -13.656012709885454 0 0 1 1 0 0 forward_v I I I I #
coedge $-1 $441 $218 $227 $350 forward $129 $-1 #
coedge $-1 $218 $441 $442 $443 reversed $129 $-1 #
coedge $-1 $220 $219 $226 $349 reversed $81 $-1 #
coedge $-1 $444 $445 $219 $337 forward $331 $-1 #
edge $-1 $446 -68.173467207861563 $341 68.173467207861563 $336 $447 forward 7 unknown #
coedge $-1 $442 $221 $223 $344 forward $340 $-1 #
coedge $-1 $221 $442 $444 $448 reversed $340 $-1 #
loop $-1 $-1 $338 $330 #
vertex $-1 $448 $449 #
vertex $-1 $344 $450 #
straight-curve $-1 -68.173467207861563 31.650776734576922 -5.0888829003171434 0 0 1 I I #
edge $-1 $342 13.265933096582582 $345 23.503754179406098 $338 $451 forward 7 unknown #
vertex $-1 $443 $452 #
straight-curve $-1 0 41.888597817400431 -6.6995188913831196 1 0 0 I I #
straight-curve $-1 0 31.650776734576922 -6.6995188913831196 1 0 0 I I #
coedge $-1 $227 $226 $445 $453 reversed $216 $-1 #
edge $-1 $229 1.6106359910659762 $446 8.5671298095683106 $226 $454 forward 7 unknown #
edge $-1 $228 6.6995188913831196 $455 13.656012709885454 $227 $456 forward 7 unknown #
point $-1 68.173467207861563 41.888597817400438 -6.6995188913831196 #
point $-1 68.173467207861563 31.650776734576922 -6.6995188913831196 #
plane-surface $-1 0 0 13.656012709885454 0 0 1 1 0 0 forward_v I I I I #
coedge $-1 $364 $363 $356 $457 forward $232 $-1 #
coedge $-1 $356 $234 $236 $360 reversed $137 $-1 #
coedge $-1 $234 $355 $354 $457 reversed $137 $-1 #
coedge $-1 $242 $237 $234 $358 forward $243 $-1 #
edge $-1 $361 10.66211905732483 $458 14.041583149663325 $357 $459 forward 7 unknown #
coedge $-1 $236 $235 $364 $460 reversed $85 $-1 #
edge $-1 $461 -136.34693441572313 $361 -130.1419730531484 $355 $462 forward 7 unknown #
vertex $-1 $238 $463 #
straight-curve $-1 64.794003115523083 -2.2415966001904764 13.656012709885459 0 -1 0 I I #
coedge $-1 $354 $239 $242 $368 reversed $232 $-1 #
coedge $-1 $239 $354 $359 $460 forward $232 $-1 #
vertex $-1 $240 $464 #
straight-curve $-1 68.173467207861563 3.5770448428401025 98.531058656243957 0 0 1 I I #
straight-curve $-1 -6.086393899020436 3.5770448428401025 122.80225620560591 0.54463902268945019 0 -0.83867057594974714 I I #
edge $-1 $458 -12.543431243602008 $244 3.5770448428401025 $363 $465 forward 7 unknown #
point $-1 68.173467207861563 3.5770448428401025 13.656012709885454 #
point $-1 64.794003115523068 3.5770448428401025 13.656012709885474 #
edge $-1 $466 1 $466 0 $247 $-1 forward 7 unknown #
vertex $-1 $248 $467 #
ellipse-curve $-1 64.936262917607664 -7.9375809331899774 10.049113256799981 0.83867057594974714 0 0.54463902268945019 0.54463902268945019 0 -0.83867057594974714 1 I I #
point $-1 67.028374184381761 -7.9375809331899774 10.215382874087458 #
edge $-1 $468 1 $468 0 $251 $-1 forward 7 unknown #
vertex $-1 $252 $469 #
ellipse-curve $-1 64.936262917607664 -1.028805467571928 10.049113256799981 0.83867057594974714 0 0.54463902268945019 0.54463902268945019 0 -0.83867057594974714 1 I I #
point $-1 67.028374184381761 -1.028805467571928 10.215382874087458 #
loop $-1 $-1 $263 $255 #
plane-surface $-1 -68.173467207861563 0 0 1 0 0 0 0 -1 forward_v I I I I #
coedge $-1 $382 $258 $260 $386 reversed $159 $-1 #
coedge $-1 $258 $381 $470 $471 reversed $159 $-1 #
coedge $-1 $266 $261 $258 $384 forward $256 $-1 #
edge $-1 $387 -21.759605705006024 $472 -12.40745978438531 $383 $473 forward 7 unknown #
coedge $-1 $260 $259 $390 $474 reversed $99 $-1 #
edge $-1 $475 3.8958409169770864e-014 $387 12.787446069671329 $381 $476 forward 7 unknown #
vertex $-1 $262 $477 #
straight-curve $-1 -58.821321287240842 -6.8213010775393847 13.656012709885456 0 1 0 I I #
coedge $-1 $470 $263 $266 $394 reversed $379 $-1 #
coedge $-1 $263 $470 $385 $474 forward $379 $-1 #
vertex $-1 $264 $478 #
straight-curve $-1 -68.173467207861563 -18.309141465962945 52.326414757854934 0 0 1 I I #
straight-curve $-1 -68.173467207861592 -18.309141465962945 4.9349953572958185 -0.7313536940579346 0 -0.68199836817093118 I I #
edge $-1 $472 8.9760628441945958 $267 18.309141465962945 $389 $479 forward 7 unknown #
point $-1 -68.173467207861563 -18.309141465962945 13.656012709885454 #
point $-1 -58.821321287240849 -18.309141465962945 13.656012709885454 #
edge $-1 $480 1 $480 0 $270 $-1 forward 7 unknown #
vertex $-1 $271 $481 #
ellipse-curve $-1 -61.469673460713317 -15.642547574029127 7.1210397574528672 -0.68199836817093118 0 0.7313536940579346 0.7313536940579346 0 0.68199836817093118 1 I I #
point $-1 -62.766040553493255 -15.642547574029127 9.9775024017615639 #
edge $-1 $482 1 $482 0 $274 $-1 forward 7 unknown #
vertex $-1 $275 $483 #
ellipse-curve $-1 -61.469673460713317 -11.642656736128405 7.1210397574528672 -0.68199836817093118 0 0.7313536940579346 0.7313536940579346 0 0.68199836817093118 1 I I #
point $-1 -62.766040553493255 -11.642656736128405 9.9775024017615639 #
plane-surface $-1 68.173467207861563 0 0 -1 0 0 0 0 1 forward_v I I I I #
coedge $-1 $283 $281 $285 $410 reversed $181 $-1 #
edge $-1 $296 -13.656012709885454 $412 13.656012709885454 $295 $484 forward 7 unknown #
vertex $-1 $410 $485 #
straight-curve $-1 -68.173467207861563 -41.888597817400431 0 0 0 -1 I I #
edge $-1 $408 -41.888597817400431 $412 41.888597817400431 $406 $486 forward 7 unknown #
straight-curve $-1 0 -41.888597817400431 -13.656012709885454 -1 0 0 I I #
vertex $-1 $288 $487 #
straight-curve $-1 0 41.888597817400431 -13.656012709885454 1 0 0 I I #
point $-1 68.173467207861563 41.888597817400431 -13.656012709885454 #
point $-1 68.173467207861563 -41.888597817400431 -13.656012709885454 #
straight-curve $-1 -68.173467207861563 0 13.656012709885454 0 -1 0 I I #
point $-1 -68.173467207861563 41.888597817400431 13.656012709885454 #
point $-1 -68.173467207861563 -41.888597817400431 13.656012709885454 #
straight-curve $-1 68.173467207861563 -41.888597817400431 0 0 0 -1 I I #
straight-curve $-1 68.173467207861563 41.888597817400431 0 0 0 -1 I I #
loop $-1 $-1 $311 $305 #
plane-surface $-1 0 -41.888597817400431 0 0 1 0 0 0 1 forward_v I I I I #
coedge $-1 $322 $313 $309 $425 forward $306 $-1 #
edge $-1 $429 -24.977263248204739 $317 -8.8454058901866439 $308 $488 forward 7 unknown #
edge $-1 $318 8.8454058901866439 $428 24.977263248204739 $423 $489 forward 7 unknown #
coedge $-1 $320 $311 $325 $438 reversed $421 $-1 #
coedge $-1 $311 $320 $322 $436 reversed $421 $-1 #
vertex $-1 $436 $490 #
vertex $-1 $312 $491 #
straight-curve $-1 -52.300319684185766 -41.888597817400431 0 0 0 1 I I #
straight-curve $-1 -28.04427676962738 -25.756740459382335 -13.656012709885454 1 0 0 I I #
straight-curve $-1 -28.04427676962738 -25.756740459382335 13.656012709885454 -1 0 0 I I #
point $-1 -52.300319684185766 -25.756740459382335 13.656012709885454 #
point $-1 -52.300319684185766 -25.756740459382335 -13.656012709885454 #
straight-curve $-1 -59.876787394323756 -41.888597817400431 0 0 0 -1 I I #
edge $-1 $428 52.300319684185766 $323 59.876787394323756 $427 $492 forward 7 unknown #
point $-1 -59.876787394323756 -41.888597817400431 -13.656012709885454 #
edge $-1 $326 -59.876787394323756 $429 -52.300319684185766 $426 $493 forward 7 unknown #
point $-1 -59.876787394323756 -41.888597817400431 13.656012709885454 #
plane-surface $-1 -68.173467207861563 0 0 1 0 0 0 0 -1 forward_v I I I I #
coedge $-1 $334 $333 $494 $495 reversed $129 $-1 #
coedge $-1 $339 $338 $334 $443 forward $340 $-1 #
edge $-1 $345 6.6995188913831196 $496 13.656012709885454 $334 $497 forward 7 unknown #
coedge $-1 $494 $336 $339 $448 forward $331 $-1 #
coedge $-1 $336 $494 $348 $453 forward $331 $-1 #
vertex $-1 $349 $498 #
straight-curve $-1 0 31.650776734576922 -13.656012709885454 -1 0 0 I I #
edge $-1 $341 31.650776734576922 $496 41.888597817400431 $339 $499 forward 7 unknown #
point $-1 -68.173467207861563 31.650776734576922 -13.656012709885454 #
point $-1 -68.173467207861563 31.650776734576922 -6.6995188913831196 #
straight-curve $-1 -68.173467207861563 18.38484363799434 -6.6995188913831196 0 1 0 I I #
point $-1 -68.173467207861563 41.888597817400438 -6.6995188913831196 #
edge $-1 $455 -41.888597817400431 $446 -31.650776734576922 $348 $500 forward 7 unknown #
straight-curve $-1 68.173467207861563 31.650776734576922 -5.0888829003171434 0 0 -1 I I #
vertex $-1 $453 $501 #
straight-curve $-1 68.173467207861563 41.888597817400431 0 0 0 -1 I I #
edge $-1 $458 84.875045946358497 $461 90.078964466054956 $354 $502 forward 7 unknown #
vertex $-1 $368 $503 #
straight-curve $-1 54.131884058198239 -12.543431243602008 13.656012709885459 1 0 0 I I #
edge $-1 $461 -10.301834643411532 $365 5.8186414430305788 $364 $504 forward 7 unknown #
vertex $-1 $460 $505 #
straight-curve $-1 -6.086393899020436 -12.543431243602008 122.80225620560591 -0.54463902268945019 0 0.83867057594974714 I I #
point $-1 64.794003115523068 -12.543431243602008 13.656012709885474 #
point $-1 68.173467207861563 3.5770448428401025 8.4520941901890012 #
straight-curve $-1 68.173467207861563 0 13.656012709885454 0 1 0 I I #
vertex $-1 $371 $506 #
point $-1 65.480901940297116 -7.9375809331899774 9.2104426808502335 #
vertex $-1 $375 $507 #
point $-1 65.480901940297116 -1.028805467571928 9.2104426808502335 #
coedge $-1 $390 $389 $382 $471 forward $379 $-1 #
edge $-1 $472 38.670402047969482 $475 47.391419400559087 $470 $508 forward 7 unknown #
vertex $-1 $394 $509 #
straight-curve $-1 -80.580926992246873 -8.9760628441945958 13.656012709885452 -1 0 0 I I #
edge $-1 $475 2.154761766655211 $391 11.48784038842356 $390 $510 forward 7 unknown #
vertex $-1 $474 $511 #
straight-curve $-1 -68.173467207861592 -8.9760628441945958 4.9349953572958185 0.7313536940579346 0 0.68199836817093118 I I #
point $-1 -58.821321287240849 -8.9760628441945958 13.656012709885454 #
point $-1 -68.173467207861563 -18.309141465962945 4.9349953572958452 #
straight-curve $-1 -68.173467207861563 0 13.656012709885454 0 -1 0 I I #
vertex $-1 $397 $512 #
point $-1 -60.73831976665538 -15.642547574029127 7.8030381256237984 #
vertex $-1 $401 $513 #
point $-1 -60.73831976665538 -11.642656736128405 7.8030381256237984 #
straight-curve $-1 -68.173467207861563 41.888597817400431 0 0 0 -1 I I #
point $-1 -68.173467207861563 -41.888597817400431 -13.656012709885454 #
straight-curve $-1 -68.173467207861563 0 -13.656012709885454 0 1 0 I I #
point $-1 -68.173467207861563 41.888597817400431 -13.656012709885454 #
straight-curve $-1 -52.300319684185766 -16.911334569195692 13.656012709885454 0 1 0 I I #
straight-curve $-1 -52.300319684185766 -16.911334569195692 -13.656012709885454 0 -1 0 I I #
point $-1 -52.300319684185766 -41.888597817400431 -13.656012709885454 #
point $-1 -52.300319684185766 -41.888597817400431 13.656012709885454 #
straight-curve $-1 0 -41.888597817400431 -13.656012709885454 -1 0 0 I I #
straight-curve $-1 0 -41.888597817400431 13.656012709885454 1 0 0 I I #
coedge $-1 $445 $444 $441 $495 forward $331 $-1 #
edge $-1 $496 -68.173467207861563 $455 68.173467207861563 $441 $514 forward 7 unknown #
vertex $-1 $495 $515 #
straight-curve $-1 -68.173467207861563 41.888597817400431 0 0 0 -1 I I #
point $-1 68.173467207861563 31.650776734576922 -13.656012709885454 #
straight-curve $-1 -68.173467207861563 0 -13.656012709885454 0 1 0 I I #
straight-curve $-1 68.173467207861563 0 -13.656012709885454 0 -1 0 I I #
point $-1 68.173467207861563 41.888597817400431 -13.656012709885454 #
straight-curve $-1 68.173467207861563 -12.543431243602008 98.531058656243957 0 0 -1 I I #
point $-1 68.173467207861563 -12.543431243602008 13.656012709885454 #
straight-curve $-1 68.173467207861563 -2.2415966001904764 8.4520941901890154 0 1 0 I I #
point $-1 68.173467207861563 -12.543431243602008 8.4520941901890012 #
point $-1 64.097592341657915 -7.9375809331899774 9.5044742341105319 #
point $-1 64.097592341657915 -1.028805467571928 9.5044742341105319 #
straight-curve $-1 -68.173467207861563 -8.9760628441945958 52.326414757854934 0 0 -1 I I #
point $-1 -68.173467207861563 -8.9760628441945958 13.656012709885454 #
straight-curve $-1 -68.173467207861563 -6.8213010775393847 4.9349953572958443 0 -1 0 I I #
point $-1 -68.173467207861563 -8.9760628441945958 4.9349953572958452 #
point $-1 -60.787675092542379 -15.642547574029127 6.3896860633949322 #
point $-1 -60.787675092542379 -11.642656736128405 6.3896860633949322 #
straight-curve $-1 0 41.888597817400431 -13.656012709885454 1 0 0 I I #
point $-1 -68.173467207861563 41.888597817400431 -13.656012709885454 #
End-of-ACIS-data 