500 0 19 0           
7 Unknown 11 ACIS 5.0 NT 24 Fri Mar 26 14:42:51 1999 
-1 9.9999999999999995e-007 1e-010 
body $-1 $19 $-1 $20 #
body $-1 $21 $-1 $22 #
body $-1 $23 $-1 $24 #
body $-1 $25 $-1 $26 #
body $-1 $27 $-1 $28 #
body $-1 $29 $-1 $30 #
body $-1 $31 $-1 $32 #
body $-1 $33 $-1 $34 #
body $-1 $35 $-1 $36 #
body $-1 $37 $-1 $38 #
body $-1 $39 $-1 $40 #
body $-1 $41 $-1 $42 #
body $-1 $43 $-1 $44 #
body $-1 $45 $-1 $46 #
body $-1 $47 $-1 $48 #
body $-1 $49 $-1 $50 #
body $-1 $51 $-1 $52 #
body $-1 $53 $-1 $54 #
body $-1 $55 $-1 $56 #
lump $-1 $-1 $57 $0 #
transform $-1 1 0 0 0 1 0 0 0 1 41.107211523789175 25.725409085568433 8.9291122962732903 1 rotate no_reflect no_shear #
lump $-1 $-1 $58 $1 #
transform $-1 1 0 0 0 1 0 0 0 1 41.107211523789175 25.725409085568433 8.9291122962732903 1 rotate no_reflect no_shear #
lump $-1 $-1 $59 $2 #
transform $-1 1 0 0 0 1 0 0 0 1 41.107211523789175 25.725409085568433 8.9291122962732903 1 rotate no_reflect no_shear #
lump $-1 $-1 $60 $3 #
transform $-1 1 0 0 0 1 0 0 0 1 41.107211523789175 25.725409085568433 8.9291122962732903 1 rotate no_reflect no_shear #
lump $-1 $-1 $61 $4 #
transform $-1 1 0 0 0 1 0 0 0 1 41.107211523789175 25.725409085568433 8.9291122962732903 1 rotate no_reflect no_shear #
lump $-1 $-1 $62 $5 #
transform $-1 1 0 0 0 1 0 0 0 1 41.107211523789175 25.725409085568433 8.9291122962732903 1 rotate no_reflect no_shear #
lump $-1 $-1 $63 $6 #
transform $-1 1 0 0 0 1 0 0 0 1 41.107211523789175 25.725409085568433 8.9291122962732903 1 rotate no_reflect no_shear #
lump $-1 $-1 $64 $7 #
transform $-1 1 0 0 0 1 0 0 0 1 41.107211523789175 25.725409085568433 8.9291122962732903 1 rotate no_reflect no_shear #
lump $-1 $-1 $65 $8 #
transform $-1 1 0 0 0 1 0 0 0 1 41.107211523789175 25.725409085568433 8.9291122962732903 1 rotate no_reflect no_shear #
lump $-1 $-1 $66 $9 #
transform $-1 1 0 0 0 1 0 0 0 1 41.107211523789175 25.725409085568433 8.9291122962732903 1 rotate no_reflect no_shear #
lump $-1 $-1 $67 $10 #
transform $-1 1 0 0 0 1 0 0 0 1 41.107211523789175 25.725409085568433 8.9291122962732903 1 rotate no_reflect no_shear #
lump $-1 $-1 $68 $11 #
transform $-1 1 0 0 0 1 0 0 0 1 41.107211523789175 25.725409085568433 8.9291122962732903 1 rotate no_reflect no_shear #
lump $-1 $-1 $69 $12 #
transform $-1 1 0 0 0 1 0 0 0 1 41.107211523789175 25.725409085568433 8.9291122962732903 1 rotate no_reflect no_shear #
lump $-1 $-1 $70 $13 #
transform $-1 1 0 0 0 1 0 0 0 1 41.107211523789175 25.725409085568433 8.9291122962732903 1 rotate no_reflect no_shear #
lump $-1 $-1 $71 $14 #
transform $-1 1 0 0 0 1 0 0 0 1 41.107211523789175 25.725409085568433 8.9291122962732903 1 rotate no_reflect no_shear #
lump $-1 $-1 $72 $15 #
transform $-1 1 0 0 0 1 0 0 0 1 41.107211523789175 25.725409085568433 8.9291122962732903 1 rotate no_reflect no_shear #
lump $-1 $-1 $73 $16 #
transform $-1 1 0 0 0 1 0 0 0 1 41.107211523789175 25.725409085568433 8.9291122962732903 1 rotate no_reflect no_shear #
lump $-1 $-1 $74 $17 #
transform $-1 1 0 0 0 1 0 0 0 1 41.107211523789175 25.725409085568433 8.9291122962732903 1 rotate no_reflect no_shear #
lump $-1 $-1 $75 $18 #
transform $-1 1 0 0 0 1 0 0 0 1 41.107211523789175 25.725409085568433 8.9291122962732903 1 rotate no_reflect no_shear #
shell $-1 $-1 $-1 $76 $-1 $19 #
shell $-1 $-1 $-1 $77 $-1 $21 #
shell $-1 $-1 $-1 $78 $-1 $23 #
shell $-1 $-1 $-1 $79 $-1 $25 #
shell $-1 $-1 $-1 $80 $-1 $27 #
shell $-1 $-1 $-1 $81 $-1 $29 #
shell $-1 $-1 $-1 $82 $-1 $31 #
shell $-1 $-1 $-1 $83 $-1 $33 #
shell $-1 $-1 $-1 $84 $-1 $35 #
shell $-1 $-1 $-1 $85 $-1 $37 #
shell $-1 $-1 $-1 $86 $-1 $39 #
shell $-1 $-1 $-1 $87 $-1 $41 #
shell $-1 $-1 $-1 $88 $-1 $43 #
shell $-1 $-1 $-1 $89 $-1 $45 #
shell $-1 $-1 $-1 $90 $-1 $47 #
shell $-1 $-1 $-1 $91 $-1 $49 #
shell $-1 $-1 $-1 $92 $-1 $51 #
shell $-1 $-1 $-1 $93 $-1 $53 #
shell $-1 $-1 $-1 $94 $-1 $55 #
face $-1 $95 $96 $57 $-1 $97 forward single #
face $-1 $98 $99 $58 $-1 $100 forward single #
face $-1 $101 $102 $59 $-1 $103 reversed single #
face $-1 $104 $105 $60 $-1 $106 reversed single #
face $-1 $107 $108 $61 $-1 $109 forward single #
face $-1 $110 $111 $62 $-1 $112 forward single #
face $-1 $113 $114 $63 $-1 $115 forward single #
face $-1 $116 $117 $64 $-1 $118 reversed single #
face $-1 $119 $120 $65 $-1 $121 forward single #
face $-1 $122 $123 $66 $-1 $124 forward single #
face $-1 $125 $126 $67 $-1 $127 forward single #
face $-1 $128 $129 $68 $-1 $130 reversed single #
face $-1 $131 $132 $69 $-1 $133 forward single #
face $-1 $134 $135 $70 $-1 $136 forward single #
face $-1 $137 $138 $71 $-1 $139 forward single #
face $-1 $140 $141 $72 $-1 $142 reversed single #
face $-1 $143 $144 $73 $-1 $145 forward single #
face $-1 $146 $147 $74 $-1 $148 forward single #
face $-1 $149 $150 $75 $-1 $151 forward single #
face $-1 $152 $153 $57 $-1 $154 reversed single #
loop $-1 $-1 $155 $76 #
plane-surface $-1 0 0 8.9291122962732903 0 0 1 1 0 0 forward_v I I I I #
face $-1 $156 $157 $58 $-1 $158 reversed single #
loop $-1 $-1 $159 $77 #
plane-surface $-1 -41.107211523789175 0 0 1 0 0 0 0 -1 forward_v I I I I #
face $-1 $160 $161 $59 $-1 $162 reversed single #
loop $-1 $-1 $163 $78 #
plane-surface $-1 36.218651299340706 -10.867184493021853 0 0 1 0 0 0 1 forward_v I I I I #
face $-1 $164 $165 $60 $-1 $166 reversed single #
loop $-1 $-1 $167 $79 #
plane-surface $-1 -19.05421740768287 50.763859226773477 94.312079362252931 1 0 0 0 -0.73135370988377701 -0.68199835119979291 forward_v I I I I #
face $-1 $168 $169 $61 $-1 $170 forward single #
loop $-1 $171 $172 $80 #
cone-surface $-1 -17.235253459533958 21.152888249247496 4.1229072220823371 0 -0.73135370988377701 -0.68199835119979291 0.5 0 0 1 I I 0 1 0.5 forward I I I I #
face $-1 $173 $174 $62 $-1 $175 forward single #
loop $-1 $176 $177 $81 #
cone-surface $-1 -14.506807537310586 21.152888249247496 4.1229072220823371 0 -0.73135370988377701 -0.68199835119979291 0.5 0 0 1 I I 0 1 0.5 forward I I I I #
face $-1 $178 $179 $63 $-1 $180 forward single #
loop $-1 $181 $182 $82 #
cone-surface $-1 -11.778361615087213 21.152888249247496 4.1229072220823371 0 -0.73135370988377701 -0.68199835119979291 0.5 0 0 1 I I 0 1 0.5 forward I I I I #
face $-1 $183 $184 $64 $-1 $185 reversed single #
loop $-1 $-1 $186 $83 #
plane-surface $-1 11.402511817022777 50.763859226773477 94.312079362252931 1 0 0 0 -0.73135370988377701 -0.68199835119979291 forward_v I I I I #
face $-1 $187 $188 $65 $-1 $189 forward single #
loop $-1 $190 $191 $84 #
cone-surface $-1 13.221475765171689 21.152888249247496 4.1229072220823371 0 -0.73135370988377701 -0.68199835119979291 0.5 0 0 1 I I 0 1 0.5 forward I I I I #
face $-1 $192 $193 $66 $-1 $194 forward single #
loop $-1 $195 $196 $85 #
cone-surface $-1 15.949921687395062 21.152888249247496 4.1229072220823371 0 -0.73135370988377701 -0.68199835119979291 0.5 0 0 1 I I 0 1 0.5 forward I I I I #
face $-1 $197 $198 $67 $-1 $199 forward single #
loop $-1 $200 $201 $86 #
cone-surface $-1 18.678367609618434 21.152888249247496 4.1229072220823371 0 -0.73135370988377701 -0.68199835119979291 0.5 0 0 1 I I 0 1 0.5 forward I I I I #
face $-1 $202 $203 $68 $-1 $204 reversed single #
loop $-1 $-1 $205 $87 #
plane-surface $-1 -9.9593976669383011 -85.853232387369161 56.683332616236342 -1 0 0 0 -0.73135370988377701 0.68199835119979291 forward_v I I I I #
face $-1 $206 $207 $69 $-1 $208 forward single #
loop $-1 $209 $210 $88 #
cone-surface $-1 -17.235253459533958 -21.152888249247489 4.1229072220823406 0 0.73135370988377701 -0.68199835119979291 0.5 0 0 1 I I 0 1 0.5 forward I I I I #
face $-1 $211 $212 $70 $-1 $213 forward single #
loop $-1 $214 $215 $89 #
cone-surface $-1 -14.506807537310586 -21.152888249247489 4.1229072220823406 0 0.73135370988377701 -0.68199835119979291 0.5 0 0 1 I I 0 1 0.5 forward I I I I #
face $-1 $216 $217 $71 $-1 $218 forward single #
loop $-1 $219 $220 $90 #
cone-surface $-1 -11.778361615087213 -21.152888249247489 4.1229072220823406 0 0.73135370988377701 -0.68199835119979291 0.5 0 0 1 I I 0 1 0.5 forward I I I I #
face $-1 $221 $222 $72 $-1 $223 reversed single #
loop $-1 $-1 $224 $91 #
plane-surface $-1 20.497331557767346 -85.853232387369161 56.683332616236342 -1 0 0 0 -0.73135370988377701 0.68199835119979291 forward_v I I I I #
face $-1 $225 $226 $73 $-1 $227 forward single #
loop $-1 $228 $229 $92 #
cone-surface $-1 13.221475765171689 -21.152888249247489 4.1229072220823406 0 0.73135370988377701 -0.68199835119979291 0.5 0 0 1 I I 0 1 0.5 forward I I I I #
face $-1 $230 $231 $74 $-1 $232 forward single #
loop $-1 $233 $234 $93 #
cone-surface $-1 15.949921687395062 -21.152888249247489 4.1229072220823406 0 0.73135370988377701 -0.68199835119979291 0.5 0 0 1 I I 0 1 0.5 forward I I I I #
face $-1 $235 $236 $75 $-1 $237 forward single #
loop $-1 $238 $239 $94 #
cone-surface $-1 18.678367609618434 -21.152888249247489 4.1229072220823406 0 0.73135370988377701 -0.68199835119979291 0.5 0 0 1 I I 0 1 0.5 forward I I I I #
face $-1 $240 $241 $57 $-1 $242 reversed single #
loop $-1 $-1 $243 $95 #
plane-surface $-1 0 0 -8.9291122962732903 0 0 1 1 0 0 forward_v I I I I #
coedge $-1 $244 $245 $246 $247 forward $96 $-1 #
face $-1 $248 $249 $58 $-1 $250 reversed single #
loop $-1 $-1 $251 $98 #
plane-surface $-1 0 25.725409085568433 0 0 -1 0 0 0 -1 forward_v I I I I #
coedge $-1 $252 $253 $254 $255 forward $99 $-1 #
face $-1 $256 $257 $59 $-1 $258 reversed single #
loop $-1 $-1 $259 $101 #
plane-surface $-1 31.330091074892238 -9.3671844930218526 0 1 0 0 0 0 -1 forward_v I I I I #
coedge $-1 $260 $261 $262 $263 forward $102 $-1 #
face $-1 $264 $265 $60 $-1 $266 reversed single #
loop $-1 $-1 $267 $104 #
plane-surface $-1 -14.506807537310586 -9.3639640750272477 38.241978398962246 0 0.73135370988377701 0.68199835119979291 1 0 0 forward_v I I I I #
coedge $-1 $268 $269 $270 $271 reversed $105 $-1 #
face $-1 $-1 $272 $61 $-1 $273 forward single #
loop $-1 $274 $275 $107 #
cone-surface $-1 -17.235253459533958 20.274870968464757 3.3041428817552561 0 -0.73135370988377701 -0.68199835119979291 0.25 0 0 1 I I -0.70710678118654746 0.70710678118654746 0.25 forward I I I I #
loop $-1 $-1 $276 $80 #
coedge $-1 $172 $172 $277 $278 reversed $108 $-1 #
face $-1 $-1 $279 $62 $-1 $280 forward single #
loop $-1 $281 $282 $110 #
cone-surface $-1 -14.506807537310586 20.274870968464757 3.3041428817552561 0 -0.73135370988377701 -0.68199835119979291 0.25 0 0 1 I I -0.70710678118654746 0.70710678118654746 0.25 forward I I I I #
loop $-1 $-1 $283 $81 #
coedge $-1 $177 $177 $284 $285 reversed $111 $-1 #
face $-1 $-1 $286 $63 $-1 $287 forward single #
loop $-1 $288 $289 $113 #
cone-surface $-1 -11.778361615087213 20.274870968464757 3.3041428817552561 0 -0.73135370988377701 -0.68199835119979291 0.25 0 0 1 I I -0.70710678118654746 0.70710678118654746 0.25 forward I I I I #
loop $-1 $-1 $290 $82 #
coedge $-1 $182 $182 $291 $292 reversed $114 $-1 #
face $-1 $293 $294 $64 $-1 $295 reversed single #
loop $-1 $-1 $296 $116 #
plane-surface $-1 15.949921687395062 -9.3639640750272477 38.241978398962246 0 0.73135370988377701 0.68199835119979291 1 0 0 forward_v I I I I #
coedge $-1 $297 $298 $299 $300 reversed $117 $-1 #
face $-1 $-1 $301 $65 $-1 $302 forward single #
loop $-1 $303 $304 $119 #
cone-surface $-1 13.221475765171689 20.274870968464757 3.3041428817552561 0 -0.73135370988377701 -0.68199835119979291 0.25 0 0 1 I I -0.70710678118654746 0.70710678118654746 0.25 forward I I I I #
loop $-1 $-1 $305 $84 #
coedge $-1 $191 $191 $306 $307 reversed $120 $-1 #
face $-1 $-1 $308 $66 $-1 $309 forward single #
loop $-1 $310 $311 $122 #
cone-surface $-1 15.949921687395062 20.274870968464757 3.3041428817552561 0 -0.73135370988377701 -0.68199835119979291 0.25 0 0 1 I I -0.70710678118654746 0.70710678118654746 0.25 forward I I I I #
loop $-1 $-1 $312 $85 #
coedge $-1 $196 $196 $313 $314 reversed $123 $-1 #
face $-1 $-1 $315 $67 $-1 $316 forward single #
loop $-1 $317 $318 $125 #
cone-surface $-1 18.678367609618434 20.274870968464757 3.3041428817552561 0 -0.73135370988377701 -0.68199835119979291 0.25 0 0 1 I I -0.70710678118654746 0.70710678118654746 0.25 forward I I I I #
loop $-1 $-1 $319 $86 #
coedge $-1 $201 $201 $320 $321 reversed $126 $-1 #
face $-1 $322 $323 $68 $-1 $324 reversed single #
loop $-1 $-1 $325 $128 #
plane-surface $-1 -14.506807537310586 -25.725409085568437 0.6132316529456574 0 -0.73135370988377701 0.68199835119979291 1 0 0 forward_v I I I I #
coedge $-1 $326 $327 $328 $329 reversed $129 $-1 #
face $-1 $-1 $330 $69 $-1 $331 forward single #
loop $-1 $332 $333 $131 #
cone-surface $-1 -17.235253459533958 -20.27487096846475 3.3041428817552596 0 0.73135370988377701 -0.68199835119979291 0.25 0 0 1 I I -0.70710678118654746 0.70710678118654746 0.25 forward I I I I #
loop $-1 $-1 $334 $88 #
coedge $-1 $210 $210 $335 $336 reversed $132 $-1 #
face $-1 $-1 $337 $70 $-1 $338 forward single #
loop $-1 $339 $340 $134 #
cone-surface $-1 -14.506807537310586 -20.27487096846475 3.3041428817552596 0 0.73135370988377701 -0.68199835119979291 0.25 0 0 1 I I -0.70710678118654746 0.70710678118654746 0.25 forward I I I I #
loop $-1 $-1 $341 $89 #
coedge $-1 $215 $215 $342 $343 reversed $135 $-1 #
face $-1 $-1 $344 $71 $-1 $345 forward single #
loop $-1 $346 $347 $137 #
cone-surface $-1 -11.778361615087213 -20.27487096846475 3.3041428817552596 0 0.73135370988377701 -0.68199835119979291 0.25 0 0 1 I I -0.70710678118654746 0.70710678118654746 0.25 forward I I I I #
loop $-1 $-1 $348 $90 #
coedge $-1 $220 $220 $349 $350 reversed $138 $-1 #
face $-1 $351 $352 $72 $-1 $353 reversed single #
loop $-1 $-1 $354 $140 #
plane-surface $-1 15.949921687395062 -25.725409085568437 0.6132316529456574 0 -0.73135370988377701 0.68199835119979291 1 0 0 forward_v I I I I #
coedge $-1 $355 $356 $357 $358 reversed $141 $-1 #
face $-1 $-1 $359 $73 $-1 $360 forward single #
loop $-1 $361 $362 $143 #
cone-surface $-1 13.221475765171689 -20.27487096846475 3.3041428817552596 0 0.73135370988377701 -0.68199835119979291 0.25 0 0 1 I I -0.70710678118654746 0.70710678118654746 0.25 forward I I I I #
loop $-1 $-1 $363 $92 #
coedge $-1 $229 $229 $364 $365 reversed $144 $-1 #
face $-1 $-1 $366 $74 $-1 $367 forward single #
loop $-1 $368 $369 $146 #
cone-surface $-1 15.949921687395062 -20.27487096846475 3.3041428817552596 0 0.73135370988377701 -0.68199835119979291 0.25 0 0 1 I I -0.70710678118654746 0.70710678118654746 0.25 forward I I I I #
loop $-1 $-1 $370 $93 #
coedge $-1 $234 $234 $371 $372 reversed $147 $-1 #
face $-1 $-1 $373 $75 $-1 $374 forward single #
loop $-1 $375 $376 $149 #
cone-surface $-1 18.678367609618434 -20.27487096846475 3.3041428817552596 0 0.73135370988377701 -0.68199835119979291 0.25 0 0 1 I I -0.70710678118654746 0.70710678118654746 0.25 forward I I I I #
loop $-1 $-1 $377 $94 #
coedge $-1 $239 $239 $378 $379 reversed $150 $-1 #
face $-1 $380 $381 $57 $-1 $382 reversed single #
loop $-1 $-1 $383 $152 #
plane-surface $-1 0 -25.725409085568433 0 0 1 0 0 0 1 forward_v I I I I #
coedge $-1 $384 $385 $386 $387 forward $153 $-1 #
coedge $-1 $388 $155 $389 $390 forward $96 $-1 #
coedge $-1 $155 $388 $391 $392 forward $96 $-1 #
coedge $-1 $393 $394 $155 $247 reversed $395 $-1 #
edge $-1 $396 -25.725409085568433 $397 25.725409085568433 $246 $398 forward 7 unknown #
face $-1 $399 $400 $58 $-1 $401 reversed single #
loop $-1 $-1 $254 $156 #
plane-surface $-1 -46.869133598424234 0 5.8673208616449344 0 0 1 1 0 0 forward_v I I I I #
coedge $-1 $402 $403 $252 $404 forward $157 $-1 #
coedge $-1 $405 $159 $251 $404 reversed $99 $-1 #
coedge $-1 $159 $405 $406 $407 reversed $99 $-1 #
coedge $-1 $408 $409 $159 $255 reversed $249 $-1 #
edge $-1 $410 -25.725409085568433 $411 25.725409085568433 $254 $412 forward 7 unknown #
face $-1 $413 $414 $59 $-1 $415 forward single #
loop $-1 $-1 $416 $160 #
plane-surface $-1 36.218651299340706 -7.8671844930218526 0 0 -1 0 0 0 -1 forward_v I I I I #
coedge $-1 $417 $418 $419 $420 forward $161 $-1 #
coedge $-1 $421 $163 $422 $423 reversed $102 $-1 #
coedge $-1 $163 $421 $424 $425 reversed $102 $-1 #
coedge $-1 $418 $417 $163 $263 reversed $161 $-1 #
edge $-1 $426 -8.9291122962732903 $427 8.9291122962732903 $262 $428 forward 7 unknown #
face $-1 $429 $430 $60 $-1 $431 forward single #
loop $-1 $-1 $432 $164 #
plane-surface $-1 -9.9593976669383011 50.763859226773477 94.312079362252931 -1 0 0 0 0.73135370988377701 0.68199835119979291 forward_v I I I I #
coedge $-1 $433 $434 $435 $436 reversed $165 $-1 #
coedge $-1 $269 $167 $437 $438 reversed $105 $-1 #
coedge $-1 $167 $268 $433 $439 reversed $105 $-1 #
coedge $-1 $435 $440 $167 $271 forward $430 $-1 #
edge $-1 $441 -0.34347947218169494 $442 7.4112044938365926 $270 $443 forward 7 unknown #
loop $-1 $-1 $277 $168 #
plane-surface $-1 -14.506807537310586 -9.3639640750272477 38.241978398962246 0 0.73135370988377701 0.68199835119979291 1 0 0 forward_v I I I I #
loop $-1 $-1 $444 $107 #
coedge $-1 $275 $275 $276 $445 reversed $169 $-1 #
coedge $-1 $276 $276 $275 $445 forward $171 $-1 #
coedge $-1 $277 $277 $172 $278 forward $272 $-1 #
edge $-1 $446 -2.5982903291455877e-015 $446 6.2831853071795978 $277 $447 forward 7 unknown #
loop $-1 $-1 $284 $173 #
plane-surface $-1 -14.506807537310586 -9.3639640750272477 38.241978398962246 0 0.73135370988377701 0.68199835119979291 1 0 0 forward_v I I I I #
loop $-1 $-1 $448 $110 #
coedge $-1 $282 $282 $283 $449 reversed $174 $-1 #
coedge $-1 $283 $283 $282 $449 forward $176 $-1 #
coedge $-1 $284 $284 $177 $285 forward $279 $-1 #
edge $-1 $450 -2.5982903291455877e-015 $450 6.2831853071795978 $284 $451 forward 7 unknown #
loop $-1 $-1 $291 $178 #
plane-surface $-1 -14.506807537310586 -9.3639640750272477 38.241978398962246 0 0.73135370988377701 0.68199835119979291 1 0 0 forward_v I I I I #
loop $-1 $-1 $452 $113 #
coedge $-1 $289 $289 $290 $453 reversed $179 $-1 #
coedge $-1 $290 $290 $289 $453 forward $181 $-1 #
coedge $-1 $291 $291 $182 $292 forward $286 $-1 #
edge $-1 $454 -2.5982903291455877e-015 $454 6.2831853071795978 $291 $455 forward 7 unknown #
face $-1 $456 $457 $64 $-1 $458 forward single #
loop $-1 $-1 $459 $183 #
plane-surface $-1 20.497331557767346 50.763859226773477 94.312079362252931 -1 0 0 0 0.73135370988377701 0.68199835119979291 forward_v I I I I #
coedge $-1 $460 $461 $462 $463 reversed $184 $-1 #
coedge $-1 $298 $186 $464 $465 reversed $117 $-1 #
coedge $-1 $186 $297 $460 $466 reversed $117 $-1 #
coedge $-1 $462 $467 $186 $300 forward $457 $-1 #
edge $-1 $468 -0.34347947218169494 $469 7.4112044938365926 $299 $470 forward 7 unknown #
loop $-1 $-1 $306 $187 #
plane-surface $-1 15.949921687395062 -9.3639640750272477 38.241978398962246 0 0.73135370988377701 0.68199835119979291 1 0 0 forward_v I I I I #
loop $-1 $-1 $471 $119 #
coedge $-1 $304 $304 $305 $472 reversed $188 $-1 #
coedge $-1 $305 $305 $304 $472 forward $190 $-1 #
coedge $-1 $306 $306 $191 $307 forward $301 $-1 #
edge $-1 $473 -2.5982903291455877e-015 $473 6.2831853071795978 $306 $474 forward 7 unknown #
loop $-1 $-1 $313 $192 #
plane-surface $-1 15.949921687395062 -9.3639640750272477 38.241978398962246 0 0.73135370988377701 0.68199835119979291 1 0 0 forward_v I I I I #
loop $-1 $-1 $475 $122 #
coedge $-1 $311 $311 $312 $476 reversed $193 $-1 #
coedge $-1 $312 $312 $311 $476 forward $195 $-1 #
coedge $-1 $313 $313 $196 $314 forward $308 $-1 #
edge $-1 $477 -2.5982903291455877e-015 $477 6.2831853071795978 $313 $478 forward 7 unknown #
loop $-1 $-1 $320 $197 #
plane-surface $-1 15.949921687395062 -9.3639640750272477 38.241978398962246 0 0.73135370988377701 0.68199835119979291 1 0 0 forward_v I I I I #
loop $-1 $-1 $479 $125 #
coedge $-1 $318 $318 $319 $480 reversed $198 $-1 #
coedge $-1 $319 $319 $318 $480 forward $200 $-1 #
coedge $-1 $320 $320 $201 $321 forward $315 $-1 #
edge $-1 $481 -2.5982903291455877e-015 $481 6.2831853071795978 $320 $482 forward 7 unknown #
face $-1 $483 $484 $68 $-1 $485 reversed single #
loop $-1 $-1 $486 $202 #
plane-surface $-1 -19.05421740768287 -85.853232387369161 56.683332616236342 1 0 0 0 0.73135370988377701 -0.68199835119979291 forward_v I I I I #
coedge $-1 $487 $488 $489 $490 reversed $203 $-1 #
coedge $-1 $327 $205 $491 $492 reversed $129 $-1 #
coedge $-1 $205 $326 $487 $493 reversed $129 $-1 #
coedge $-1 $489 $494 $205 $329 forward $495 $-1 #
edge $-1 $496 17.201207108116147 $497 24.955891074134435 $328 $498 forward 7 unknown #
loop $-1 $-1 $335 $206 #
plane-surface $-1 -14.506807537310586 -25.725409085568437 0.6132316529456574 0 -0.73135370988377701 0.68199835119979291 1 0 0 forward_v I I I I #
loop $-1 $-1 $499 $131 #
coedge $-1 $333 $333 $334 $500 reversed $207 $-1 #
coedge $-1 $334 $334 $333 $500 forward $209 $-1 #
coedge $-1 $335 $335 $210 $336 forward $330 $-1 #
edge $-1 $501 -3.5069091583739096e-016 $501 6.2831853071796004 $335 $502 forward 7 unknown #
loop $-1 $-1 $342 $211 #
plane-surface $-1 -14.506807537310586 -25.725409085568437 0.6132316529456574 0 -0.73135370988377701 0.68199835119979291 1 0 0 forward_v I I I I #
loop $-1 $-1 $503 $134 #
coedge $-1 $340 $340 $341 $504 reversed $212 $-1 #
coedge $-1 $341 $341 $340 $504 forward $214 $-1 #
coedge $-1 $342 $342 $215 $343 forward $337 $-1 #
edge $-1 $505 -3.5069091583739096e-016 $505 6.2831853071796004 $342 $506 forward 7 unknown #
loop $-1 $-1 $349 $216 #
plane-surface $-1 -14.506807537310586 -25.725409085568437 0.6132316529456574 0 -0.73135370988377701 0.68199835119979291 1 0 0 forward_v I I I I #
loop $-1 $-1 $507 $137 #
coedge $-1 $347 $347 $348 $508 reversed $217 $-1 #
coedge $-1 $348 $348 $347 $508 forward $219 $-1 #
coedge $-1 $349 $349 $220 $350 forward $344 $-1 #
edge $-1 $509 -3.5069091583739096e-016 $509 6.2831853071796004 $349 $510 forward 7 unknown #
face $-1 $511 $512 $72 $-1 $513 reversed single #
loop $-1 $-1 $514 $221 #
plane-surface $-1 11.402511817022777 -85.853232387369161 56.683332616236342 1 0 0 0 0.73135370988377701 -0.68199835119979291 forward_v I I I I #
coedge $-1 $515 $516 $517 $518 reversed $222 $-1 #
coedge $-1 $356 $224 $519 $520 reversed $141 $-1 #
coedge $-1 $224 $355 $515 $521 reversed $141 $-1 #
coedge $-1 $517 $522 $224 $358 forward $523 $-1 #
edge $-1 $524 17.201207108116147 $525 24.955891074134435 $357 $526 forward 7 unknown #
loop $-1 $-1 $364 $225 #
plane-surface $-1 15.949921687395062 -25.725409085568437 0.6132316529456574 0 -0.73135370988377701 0.68199835119979291 1 0 0 forward_v I I I I #
loop $-1 $-1 $527 $143 #
coedge $-1 $362 $362 $363 $528 reversed $226 $-1 #
coedge $-1 $363 $363 $362 $528 forward $228 $-1 #
coedge $-1 $364 $364 $229 $365 forward $359 $-1 #
edge $-1 $529 -3.5069091583739096e-016 $529 6.2831853071796004 $364 $530 forward 7 unknown #
loop $-1 $-1 $371 $230 #
plane-surface $-1 15.949921687395062 -25.725409085568437 0.6132316529456574 0 -0.73135370988377701 0.68199835119979291 1 0 0 forward_v I I I I #
loop $-1 $-1 $531 $146 #
coedge $-1 $369 $369 $370 $532 reversed $231 $-1 #
coedge $-1 $370 $370 $369 $532 forward $233 $-1 #
coedge $-1 $371 $371 $234 $372 forward $366 $-1 #
edge $-1 $533 -3.5069091583739096e-016 $533 6.2831853071796004 $371 $534 forward 7 unknown #
loop $-1 $-1 $378 $235 #
plane-surface $-1 15.949921687395062 -25.725409085568437 0.6132316529456574 0 -0.73135370988377701 0.68199835119979291 1 0 0 forward_v I I I I #
loop $-1 $-1 $535 $149 #
coedge $-1 $376 $376 $377 $536 reversed $236 $-1 #
coedge $-1 $377 $377 $376 $536 forward $238 $-1 #
coedge $-1 $378 $378 $239 $379 forward $373 $-1 #
edge $-1 $537 -3.5069091583739096e-016 $537 6.2831853071796004 $378 $538 forward 7 unknown #
face $-1 $539 $540 $57 $-1 $541 reversed single #
loop $-1 $-1 $542 $240 #
plane-surface $-1 -41.107211523789175 0 0 1 0 0 0 0 -1 forward_v I I I I #
coedge $-1 $543 $391 $544 $545 forward $241 $-1 #
coedge $-1 $546 $243 $543 $547 forward $153 $-1 #
coedge $-1 $243 $546 $548 $549 forward $153 $-1 #
coedge $-1 $394 $393 $243 $387 reversed $395 $-1 #
edge $-1 $550 -25.725409085568433 $551 25.725409085568433 $386 $552 forward 7 unknown #
coedge $-1 $245 $244 $553 $554 forward $96 $-1 #
coedge $-1 $555 $556 $244 $390 reversed $540 $-1 #
edge $-1 $397 -41.107211523789175 $557 41.107211523789175 $389 $558 forward 7 unknown #
coedge $-1 $383 $559 $245 $392 reversed $241 $-1 #
edge $-1 $560 -41.107211523789175 $396 41.107211523789175 $391 $561 forward 7 unknown #
coedge $-1 $386 $246 $559 $562 forward $395 $-1 #
coedge $-1 $246 $386 $555 $563 reversed $395 $-1 #
loop $-1 $-1 $393 $539 #
vertex $-1 $247 $564 #
vertex $-1 $247 $565 #
straight-curve $-1 41.107211523789175 0 8.9291122962732903 0 1 0 I I #
face $-1 $566 $567 $58 $-1 $568 forward single #
loop $-1 $-1 $569 $248 #
plane-surface $-1 -52.631055673059294 0 7.3982165789591132 1 0 0 0 0 -1 forward_v I I I I #
coedge $-1 $570 $251 $409 $571 reversed $157 $-1 #
coedge $-1 $251 $570 $572 $573 reversed $157 $-1 #
edge $-1 $574 -8.9291122962732903 $411 -5.8673208616449344 $251 $575 forward 7 unknown #
coedge $-1 $253 $252 $576 $577 reversed $99 $-1 #
coedge $-1 $578 $579 $253 $407 forward $580 $-1 #
edge $-1 $410 5.8673208616449344 $581 8.9291122962732903 $406 $582 forward 7 unknown #
coedge $-1 $583 $254 $579 $584 forward $249 $-1 #
coedge $-1 $254 $583 $402 $571 forward $249 $-1 #
vertex $-1 $407 $585 #
vertex $-1 $404 $586 #
straight-curve $-1 -41.107211523789175 0 5.8673208616449344 0 1 0 I I #
face $-1 $587 $588 $59 $-1 $589 reversed single #
loop $-1 $-1 $590 $256 #
plane-surface $-1 0 0 8.9291122962732903 0 0 1 1 0 0 forward_v I I I I #
coedge $-1 $591 $592 $593 $594 reversed $257 $-1 #
coedge $-1 $262 $259 $595 $596 reversed $161 $-1 #
coedge $-1 $259 $262 $597 $598 reversed $161 $-1 #
coedge $-1 $592 $591 $259 $420 reversed $257 $-1 #
edge $-1 $599 -8.9291122962732903 $600 8.9291122962732903 $419 $601 forward 7 unknown #
coedge $-1 $261 $260 $602 $603 reversed $102 $-1 #
coedge $-1 $595 $604 $260 $423 forward $588 $-1 #
edge $-1 $605 -22.997885874118822 $427 -13.220765425221884 $422 $606 forward 7 unknown #
coedge $-1 $607 $597 $261 $425 forward $414 $-1 #
edge $-1 $426 13.220765425221884 $608 22.997885874118822 $424 $609 forward 7 unknown #
vertex $-1 $425 $610 #
vertex $-1 $423 $611 #
straight-curve $-1 31.330091074892238 -10.867184493021853 0 0 0 -1 I I #
face $-1 $-1 $612 $60 $-1 $613 reversed single #
loop $-1 $-1 $270 $264 #
plane-surface $-1 0 0 8.9291122962732903 0 0 1 1 0 0 forward_v I I I I #
coedge $-1 $614 $615 $616 $617 reversed $265 $-1 #
coedge $-1 $618 $267 $269 $439 forward $165 $-1 #
coedge $-1 $267 $618 $614 $619 forward $165 $-1 #
coedge $-1 $616 $270 $267 $436 forward $430 $-1 #
edge $-1 $442 -11.800813639027577 $620 -2.7059938982830083 $435 $621 forward 7 unknown #
coedge $-1 $622 $623 $268 $438 forward $612 $-1 #
edge $-1 $624 -46.542808028180808 $441 -38.226927384853177 $437 $625 forward 7 unknown #
edge $-1 $442 40.08028633278856 $624 51.450818171136859 $269 $626 forward 7 unknown #
coedge $-1 $270 $616 $622 $627 forward $430 $-1 #
vertex $-1 $438 $628 #
vertex $-1 $271 $629 #
straight-curve $-1 -19.05421740768287 25.381929613386738 8.9291122962732885 0 -1 0 I I #
coedge $-1 $444 $444 $-1 $630 reversed $274 $-1 #
edge $-1 $631 0 $631 6.2831853071796004 $275 $632 forward 7 unknown #
vertex $-1 $278 $633 #
ellipse-curve $-1 -17.235253459533958 21.848067102559291 4.7711719746094676 0 0.73135370988377701 0.68199835119979291 0.5 0 0 1 I I #
coedge $-1 $448 $448 $-1 $634 reversed $281 $-1 #
edge $-1 $635 0 $635 6.2831853071796004 $282 $636 forward 7 unknown #
vertex $-1 $285 $637 #
ellipse-curve $-1 -14.506807537310586 21.848067102559291 4.7711719746094676 0 0.73135370988377701 0.68199835119979291 0.5 0 0 1 I I #
coedge $-1 $452 $452 $-1 $638 reversed $288 $-1 #
edge $-1 $639 0 $639 6.2831853071796004 $289 $640 forward 7 unknown #
vertex $-1 $292 $641 #
ellipse-curve $-1 -11.778361615087213 21.848067102559291 4.7711719746094676 0 0.73135370988377701 0.68199835119979291 0.5 0 0 1 I I #
face $-1 $-1 $642 $64 $-1 $643 reversed single #
loop $-1 $-1 $299 $293 #
plane-surface $-1 0 0 8.9291122962732903 0 0 1 1 0 0 forward_v I I I I #
coedge $-1 $644 $645 $646 $647 reversed $294 $-1 #
coedge $-1 $648 $296 $298 $466 forward $184 $-1 #
coedge $-1 $296 $648 $644 $649 forward $184 $-1 #
coedge $-1 $646 $299 $296 $463 forward $457 $-1 #
edge $-1 $469 3.4275509733252463 $650 12.522370714069815 $462 $651 forward 7 unknown #
coedge $-1 $652 $653 $297 $465 forward $642 $-1 #
edge $-1 $654 -46.542808028180808 $468 -38.226927384853177 $464 $655 forward 7 unknown #
edge $-1 $469 40.08028633278856 $654 51.450818171136859 $298 $656 forward 7 unknown #
coedge $-1 $299 $646 $652 $657 forward $457 $-1 #
vertex $-1 $300 $658 #
vertex $-1 $300 $659 #
straight-curve $-1 11.402511817022777 25.381929613386738 8.9291122962732885 0 -1 0 I I #
coedge $-1 $471 $471 $-1 $660 reversed $303 $-1 #
edge $-1 $661 0 $661 6.2831853071796004 $304 $662 forward 7 unknown #
vertex $-1 $307 $663 #
ellipse-curve $-1 13.221475765171689 21.848067102559291 4.7711719746094676 0 0.73135370988377701 0.68199835119979291 0.5 0 0 1 I I #
coedge $-1 $475 $475 $-1 $664 reversed $310 $-1 #
edge $-1 $665 0 $665 6.2831853071796004 $311 $666 forward 7 unknown #
vertex $-1 $314 $667 #
ellipse-curve $-1 15.949921687395062 21.848067102559291 4.7711719746094676 0 0.73135370988377701 0.68199835119979291 0.5 0 0 1 I I #
coedge $-1 $479 $479 $-1 $668 reversed $317 $-1 #
edge $-1 $669 0 $669 6.2831853071796004 $318 $670 forward 7 unknown #
vertex $-1 $321 $671 #
ellipse-curve $-1 18.678367609618434 21.848067102559291 4.7711719746094676 0 0.73135370988377701 0.68199835119979291 0.5 0 0 1 I I #
face $-1 $-1 $495 $68 $-1 $672 forward single #
loop $-1 $-1 $673 $322 #
plane-surface $-1 0 -25.725409085568433 0 0 1 0 0 0 1 forward_v I I I I #
coedge $-1 $674 $675 $676 $677 reversed $323 $-1 #
coedge $-1 $678 $325 $327 $493 forward $203 $-1 #
coedge $-1 $325 $678 $674 $679 forward $203 $-1 #
coedge $-1 $676 $328 $325 $490 forward $495 $-1 #
edge $-1 $497 2.7059938982830083 $680 11.800813639027577 $489 $681 forward 7 unknown #
coedge $-1 $682 $683 $326 $492 forward $484 $-1 #
edge $-1 $684 -27.72843465517251 $496 -19.412554011844882 $491 $685 forward 7 unknown #
edge $-1 $497 -11.370531838348299 $684 -5.1836283459440792e-015 $327 $686 forward 7 unknown #
coedge $-1 $328 $676 $682 $687 forward $495 $-1 #
loop $-1 $-1 $676 $483 #
vertex $-1 $492 $688 #
vertex $-1 $329 $689 #
straight-curve $-1 -9.9593976669383011 -42.92661619368458 8.9291122962732885 0 1 0 I I #
coedge $-1 $499 $499 $-1 $690 reversed $332 $-1 #
edge $-1 $691 0 $691 6.2831853071796004 $333 $692 forward 7 unknown #
vertex $-1 $336 $693 #
ellipse-curve $-1 -17.235253459533958 -21.848067102559288 4.7711719746094765 0 -0.73135370988377701 0.68199835119979291 0.5 0 0 1 I I #
coedge $-1 $503 $503 $-1 $694 reversed $339 $-1 #
edge $-1 $695 0 $695 6.2831853071796004 $340 $696 forward 7 unknown #
vertex $-1 $343 $697 #
ellipse-curve $-1 -14.506807537310586 -21.848067102559288 4.7711719746094765 0 -0.73135370988377701 0.68199835119979291 0.5 0 0 1 I I #
coedge $-1 $507 $507 $-1 $698 reversed $346 $-1 #
edge $-1 $699 0 $699 6.2831853071796004 $347 $700 forward 7 unknown #
vertex $-1 $350 $701 #
ellipse-curve $-1 -11.778361615087213 -21.848067102559288 4.7711719746094765 0 -0.73135370988377701 0.68199835119979291 0.5 0 0 1 I I #
face $-1 $-1 $523 $72 $-1 $702 forward single #
loop $-1 $-1 $703 $351 #
plane-surface $-1 0 -25.725409085568433 0 0 1 0 0 0 1 forward_v I I I I #
coedge $-1 $704 $705 $706 $707 reversed $352 $-1 #
coedge $-1 $708 $354 $356 $521 forward $222 $-1 #
coedge $-1 $354 $708 $704 $709 forward $222 $-1 #
coedge $-1 $706 $357 $354 $518 forward $523 $-1 #
edge $-1 $525 -12.522370714069815 $710 -3.4275509733252463 $517 $711 forward 7 unknown #
coedge $-1 $712 $713 $355 $520 forward $512 $-1 #
edge $-1 $714 -27.72843465517251 $524 -19.412554011844882 $519 $715 forward 7 unknown #
edge $-1 $525 -11.370531838348299 $714 -5.1836283459440792e-015 $356 $716 forward 7 unknown #
coedge $-1 $357 $706 $712 $717 forward $523 $-1 #
loop $-1 $-1 $706 $511 #
vertex $-1 $520 $718 #
vertex $-1 $358 $719 #
straight-curve $-1 20.497331557767346 -42.92661619368458 8.9291122962732885 0 1 0 I I #
coedge $-1 $527 $527 $-1 $720 reversed $361 $-1 #
edge $-1 $721 0 $721 6.2831853071796004 $362 $722 forward 7 unknown #
vertex $-1 $365 $723 #
ellipse-curve $-1 13.221475765171689 -21.848067102559288 4.7711719746094765 0 -0.73135370988377701 0.68199835119979291 0.5 0 0 1 I I #
coedge $-1 $531 $531 $-1 $724 reversed $368 $-1 #
edge $-1 $725 0 $725 6.2831853071796004 $369 $726 forward 7 unknown #
vertex $-1 $372 $727 #
ellipse-curve $-1 15.949921687395062 -21.848067102559288 4.7711719746094765 0 -0.73135370988377701 0.68199835119979291 0.5 0 0 1 I I #
coedge $-1 $535 $535 $-1 $728 reversed $375 $-1 #
edge $-1 $729 0 $729 6.2831853071796004 $376 $730 forward 7 unknown #
vertex $-1 $379 $731 #
ellipse-curve $-1 18.678367609618434 -21.848067102559288 4.7711719746094765 0 -0.73135370988377701 0.68199835119979291 0.5 0 0 1 I I #
face $-1 $-1 $395 $57 $-1 $732 reversed single #
loop $-1 $-1 $555 $380 #
plane-surface $-1 0 25.725409085568433 0 0 -1 0 0 0 -1 forward_v I I I I #
coedge $-1 $733 $553 $556 $734 forward $381 $-1 #
coedge $-1 $559 $383 $384 $547 reversed $241 $-1 #
coedge $-1 $553 $733 $383 $545 reversed $381 $-1 #
edge $-1 $560 -8.9291122962732903 $735 8.9291122962732903 $544 $736 forward 7 unknown #
coedge $-1 $385 $384 $733 $737 forward $153 $-1 #
edge $-1 $551 -41.107211523789175 $735 41.107211523789175 $543 $738 forward 7 unknown #
coedge $-1 $556 $555 $385 $549 reversed $540 $-1 #
edge $-1 $739 -41.107211523789175 $550 41.107211523789175 $548 $740 forward 7 unknown #
vertex $-1 $387 $741 #
vertex $-1 $562 $742 #
straight-curve $-1 41.107211523789175 0 -8.9291122962732903 0 -1 0 I I #
coedge $-1 $542 $544 $388 $554 reversed $381 $-1 #
edge $-1 $557 -25.725409085568433 $560 25.725409085568433 $553 $743 forward 7 unknown #
coedge $-1 $548 $389 $394 $563 forward $540 $-1 #
coedge $-1 $389 $548 $542 $734 reversed $540 $-1 #
vertex $-1 $390 $744 #
straight-curve $-1 0 25.725409085568433 8.9291122962732903 -1 0 0 I I #
coedge $-1 $391 $543 $393 $562 reversed $241 $-1 #
vertex $-1 $554 $745 #
straight-curve $-1 0 -25.725409085568433 8.9291122962732903 1 0 0 I I #
edge $-1 $396 -8.9291122962732903 $551 8.9291122962732903 $393 $746 forward 7 unknown #
edge $-1 $397 -8.9291122962732903 $550 8.9291122962732903 $394 $747 forward 7 unknown #
point $-1 41.107211523789175 -25.725409085568433 8.9291122962732903 #
point $-1 41.107211523789175 25.725409085568433 8.9291122962732903 #
face $-1 $-1 $580 $58 $-1 $748 reversed single #
loop $-1 $-1 $576 $399 #
plane-surface $-1 0 0 8.9291122962732903 0 0 1 1 0 0 forward_v I I I I #
coedge $-1 $749 $750 $570 $751 forward $400 $-1 #
coedge $-1 $403 $402 $569 $751 reversed $157 $-1 #
edge $-1 $752 -5.7619220746350592 $411 5.7619220746350592 $402 $753 forward 7 unknown #
coedge $-1 $754 $576 $403 $573 forward $567 $-1 #
edge $-1 $574 41.107211523789175 $755 52.631055673059294 $403 $756 forward 7 unknown #
vertex $-1 $573 $757 #
straight-curve $-1 -41.107211523789175 25.725409085568433 0 0 0 -1 I I #
coedge $-1 $572 $758 $405 $577 forward $567 $-1 #
edge $-1 $581 -25.725409085568433 $574 25.725409085568433 $576 $759 forward 7 unknown #
coedge $-1 $760 $406 $758 $761 reversed $580 $-1 #
coedge $-1 $406 $760 $408 $584 reversed $580 $-1 #
loop $-1 $-1 $406 $566 #
vertex $-1 $407 $762 #
straight-curve $-1 -41.107211523789175 -25.725409085568433 0 0 0 1 I I #
coedge $-1 $409 $408 $749 $763 forward $249 $-1 #
edge $-1 $410 -5.7619220746350592 $764 5.7619220746350592 $579 $765 forward 7 unknown #
point $-1 -41.107211523789175 -25.725409085568433 5.8673208616449344 #
point $-1 -41.107211523789175 25.725409085568433 5.8673208616449344 #
face $-1 $-1 $766 $59 $-1 $767 reversed single #
loop $-1 $-1 $768 $413 #
plane-surface $-1 0 0 -8.9291122962732903 0 0 1 1 0 0 forward_v I I I I #
coedge $-1 $597 $607 $592 $769 forward $414 $-1 #
coedge $-1 $419 $416 $768 $770 reversed $257 $-1 #
coedge $-1 $416 $419 $590 $769 reversed $257 $-1 #
coedge $-1 $771 $772 $416 $594 forward $766 $-1 #
edge $-1 $773 -8.9291122962732903 $774 8.9291122962732903 $593 $775 forward 7 unknown #
coedge $-1 $768 $422 $417 $596 forward $588 $-1 #
edge $-1 $427 -6.1835922465109263 $600 -3.1835922465109263 $595 $776 forward 7 unknown #
coedge $-1 $424 $590 $418 $598 forward $414 $-1 #
edge $-1 $599 3.1835922465109263 $426 6.1835922465109263 $597 $777 forward 7 unknown #
vertex $-1 $598 $778 #
vertex $-1 $596 $779 #
straight-curve $-1 31.330091074892238 -7.8671844930218526 0 0 0 -1 I I #
coedge $-1 $772 $771 $421 $603 forward $766 $-1 #
edge $-1 $608 -8.9291122962732903 $605 8.9291122962732903 $602 $780 forward 7 unknown #
coedge $-1 $422 $768 $772 $781 forward $588 $-1 #
vertex $-1 $603 $782 #
straight-curve $-1 18.109325649670353 -10.867184493021853 -8.9291122962732903 -1 0 0 I I #
coedge $-1 $590 $424 $771 $783 forward $414 $-1 #
vertex $-1 $783 $784 #
straight-curve $-1 18.109325649670353 -10.867184493021853 8.9291122962732903 1 0 0 I I #
point $-1 31.330091074892238 -10.867184493021853 8.9291122962732903 #
point $-1 31.330091074892238 -10.867184493021853 -8.9291122962732903 #
loop $-1 $-1 $437 $429 #
plane-surface $-1 0 25.725409085568433 0 0 -1 0 0 0 -1 forward_v I I I I #
coedge $-1 $615 $432 $434 $619 reversed $265 $-1 #
coedge $-1 $432 $614 $785 $786 reversed $265 $-1 #
coedge $-1 $440 $435 $432 $617 forward $430 $-1 #
edge $-1 $620 -7.4112044938365926 $787 0.34347947218169494 $616 $788 forward 7 unknown #
coedge $-1 $434 $433 $623 $789 reversed $165 $-1 #
edge $-1 $790 -51.450818171136859 $620 -40.08028633278856 $614 $791 forward 7 unknown #
vertex $-1 $436 $792 #
straight-curve $-1 -7.2534037686552928 17.970725119550146 8.9291122962732885 1 0 0 I I #
coedge $-1 $785 $437 $440 $627 reversed $612 $-1 #
coedge $-1 $437 $785 $618 $789 forward $612 $-1 #
vertex $-1 $438 $793 #
straight-curve $-1 -19.05421740768287 25.725409085568433 47.156039681126465 0 0 1 I I #
straight-curve $-1 -19.05421740768287 -9.3639640750272477 38.241978398962246 0 0.68199835119979291 -0.73135370988377701 I I #
edge $-1 $787 9.9593976669383011 $441 19.05421740768287 $622 $794 forward 7 unknown #
point $-1 -19.05421740768287 25.725409085568433 8.9291122962732903 #
point $-1 -19.05421740768287 17.970725119550146 8.9291122962732885 #
edge $-1 $795 1 $795 0 $444 $-1 forward 7 unknown #
vertex $-1 $445 $796 #
ellipse-curve $-1 -17.235253459533958 20.457709395935701 3.4746424695552043 0 0.73135370988377701 0.68199835119979291 0.5 0 0 1 I I #
point $-1 -16.735253459533958 21.848067102559291 4.7711719746094694 #
edge $-1 $797 1 $797 0 $448 $-1 forward 7 unknown #
vertex $-1 $449 $798 #
ellipse-curve $-1 -14.506807537310586 20.457709395935701 3.4746424695552043 0 0.73135370988377701 0.68199835119979291 0.5 0 0 1 I I #
point $-1 -14.006807537310586 21.848067102559291 4.7711719746094694 #
edge $-1 $799 1 $799 0 $452 $-1 forward 7 unknown #
vertex $-1 $453 $800 #
ellipse-curve $-1 -11.778361615087213 20.457709395935701 3.4746424695552043 0 0.73135370988377701 0.68199835119979291 0.5 0 0 1 I I #
point $-1 -11.278361615087213 21.848067102559291 4.7711719746094694 #
loop $-1 $-1 $464 $456 #
plane-surface $-1 0 25.725409085568433 0 0 -1 0 0 0 -1 forward_v I I I I #
coedge $-1 $645 $459 $461 $649 reversed $294 $-1 #
coedge $-1 $459 $644 $801 $802 reversed $294 $-1 #
coedge $-1 $467 $462 $459 $647 forward $457 $-1 #
edge $-1 $650 -7.4112044938365926 $803 0.34347947218169494 $646 $804 forward 7 unknown #
coedge $-1 $461 $460 $653 $805 reversed $184 $-1 #
edge $-1 $806 -51.450818171136859 $650 -40.08028633278856 $644 $807 forward 7 unknown #
vertex $-1 $463 $808 #
straight-curve $-1 7.9749608436975308 17.970725119550146 8.9291122962732885 1 0 0 I I #
coedge $-1 $801 $464 $467 $657 reversed $642 $-1 #
coedge $-1 $464 $801 $648 $805 forward $642 $-1 #
vertex $-1 $465 $809 #
straight-curve $-1 11.402511817022777 25.725409085568433 47.156039681126465 0 0 1 I I #
straight-curve $-1 11.402511817022777 -9.3639640750272477 38.241978398962246 0 0.68199835119979291 -0.73135370988377701 I I #
edge $-1 $803 -20.497331557767346 $468 -11.402511817022777 $652 $810 forward 7 unknown #
point $-1 11.402511817022777 25.725409085568433 8.9291122962732903 #
point $-1 11.402511817022777 17.970725119550146 8.9291122962732885 #
edge $-1 $811 1 $811 0 $471 $-1 forward 7 unknown #
vertex $-1 $472 $812 #
ellipse-curve $-1 13.221475765171689 20.457709395935701 3.4746424695552043 0 0.73135370988377701 0.68199835119979291 0.5 0 0 1 I I #
point $-1 13.721475765171689 21.848067102559291 4.7711719746094694 #
edge $-1 $813 1 $813 0 $475 $-1 forward 7 unknown #
vertex $-1 $476 $814 #
ellipse-curve $-1 15.949921687395062 20.457709395935701 3.4746424695552043 0 0.73135370988377701 0.68199835119979291 0.5 0 0 1 I I #
point $-1 16.449921687395062 21.848067102559291 4.7711719746094694 #
edge $-1 $815 1 $815 0 $479 $-1 forward 7 unknown #
vertex $-1 $480 $816 #
ellipse-curve $-1 18.678367609618434 20.457709395935701 3.4746424695552043 0 0.73135370988377701 0.68199835119979291 0.5 0 0 1 I I #
point $-1 19.178367609618434 21.848067102559291 4.7711719746094694 #
plane-surface $-1 0 0 8.9291122962732903 0 0 1 1 0 0 forward_v I I I I #
coedge $-1 $683 $682 $675 $817 forward $484 $-1 #
coedge $-1 $675 $486 $488 $679 reversed $323 $-1 #
coedge $-1 $486 $674 $673 $817 reversed $323 $-1 #
coedge $-1 $494 $489 $486 $677 forward $495 $-1 #
edge $-1 $680 -24.955891074134435 $818 -17.201207108116147 $676 $819 forward 7 unknown #
coedge $-1 $488 $487 $683 $820 reversed $203 $-1 #
edge $-1 $821 5.1836283459440792e-015 $680 11.370531838348299 $674 $822 forward 7 unknown #
vertex $-1 $490 $823 #
straight-curve $-1 -7.2534037686552928 -17.970725119550146 8.9291122962732903 -1 0 0 I I #
coedge $-1 $673 $491 $494 $687 reversed $484 $-1 #
coedge $-1 $491 $673 $678 $820 forward $484 $-1 #
vertex $-1 $492 $824 #
straight-curve $-1 -9.9593976669383011 -25.725409085568433 28.341666308118171 0 0 1 I I #
straight-curve $-1 -9.9593976669383011 -25.725409085568437 0.6132316529456574 0 -0.68199835119979291 -0.73135370988377701 I I #
edge $-1 $818 -19.05421740768287 $496 -9.9593976669383011 $682 $825 forward 7 unknown #
point $-1 -9.9593976669383011 -25.725409085568433 8.9291122962732903 #
point $-1 -9.9593976669383011 -17.970725119550146 8.9291122962732903 #
edge $-1 $826 1 $826 0 $499 $-1 forward 7 unknown #
vertex $-1 $500 $827 #
ellipse-curve $-1 -17.235253459533958 -20.457709395935694 3.4746424695552078 0 -0.73135370988377701 0.68199835119979291 0.5 0 0 1 I I #
point $-1 -16.735253459533958 -21.848067102559284 4.771171974609473 #
edge $-1 $828 1 $828 0 $503 $-1 forward 7 unknown #
vertex $-1 $504 $829 #
ellipse-curve $-1 -14.506807537310586 -20.457709395935694 3.4746424695552078 0 -0.73135370988377701 0.68199835119979291 0.5 0 0 1 I I #
point $-1 -14.006807537310586 -21.848067102559284 4.771171974609473 #
edge $-1 $830 1 $830 0 $507 $-1 forward 7 unknown #
vertex $-1 $508 $831 #
ellipse-curve $-1 -11.778361615087213 -20.457709395935694 3.4746424695552078 0 -0.73135370988377701 0.68199835119979291 0.5 0 0 1 I I #
point $-1 -11.278361615087213 -21.848067102559284 4.771171974609473 #
plane-surface $-1 0 0 8.9291122962732903 0 0 1 1 0 0 forward_v I I I I #
coedge $-1 $713 $712 $705 $832 forward $512 $-1 #
coedge $-1 $705 $514 $516 $709 reversed $352 $-1 #
coedge $-1 $514 $704 $703 $832 reversed $352 $-1 #
coedge $-1 $522 $517 $514 $707 forward $523 $-1 #
edge $-1 $710 -24.955891074134435 $833 -17.201207108116147 $706 $834 forward 7 unknown #
coedge $-1 $516 $515 $713 $835 reversed $222 $-1 #
edge $-1 $836 5.1836283459440792e-015 $710 11.370531838348299 $704 $837 forward 7 unknown #
vertex $-1 $518 $838 #
straight-curve $-1 7.9749608436975308 -17.970725119550146 8.9291122962732903 -1 0 0 I I #
coedge $-1 $703 $519 $522 $717 reversed $512 $-1 #
coedge $-1 $519 $703 $708 $835 forward $512 $-1 #
vertex $-1 $520 $839 #
straight-curve $-1 20.497331557767346 -25.725409085568433 28.341666308118171 0 0 1 I I #
straight-curve $-1 20.497331557767346 -25.725409085568437 0.6132316529456574 0 -0.68199835119979291 -0.73135370988377701 I I #
edge $-1 $833 11.402511817022777 $524 20.497331557767346 $712 $840 forward 7 unknown #
point $-1 20.497331557767346 -25.725409085568433 8.9291122962732903 #
point $-1 20.497331557767346 -17.970725119550146 8.9291122962732903 #
edge $-1 $841 1 $841 0 $527 $-1 forward 7 unknown #
vertex $-1 $528 $842 #
ellipse-curve $-1 13.221475765171689 -20.457709395935694 3.4746424695552078 0 -0.73135370988377701 0.68199835119979291 0.5 0 0 1 I I #
point $-1 13.721475765171689 -21.848067102559284 4.771171974609473 #
edge $-1 $843 1 $843 0 $531 $-1 forward 7 unknown #
vertex $-1 $532 $844 #
ellipse-curve $-1 15.949921687395062 -20.457709395935694 3.4746424695552078 0 -0.73135370988377701 0.68199835119979291 0.5 0 0 1 I I #
point $-1 16.449921687395062 -21.848067102559284 4.771171974609473 #
edge $-1 $845 1 $845 0 $535 $-1 forward 7 unknown #
vertex $-1 $536 $846 #
ellipse-curve $-1 18.678367609618434 -20.457709395935694 3.4746424695552078 0 -0.73135370988377701 0.68199835119979291 0.5 0 0 1 I I #
point $-1 19.178367609618434 -21.848067102559284 4.771171974609473 #
plane-surface $-1 41.107211523789175 0 0 -1 0 0 0 0 1 forward_v I I I I #
coedge $-1 $544 $542 $546 $737 reversed $381 $-1 #
edge $-1 $557 -8.9291122962732903 $739 8.9291122962732903 $556 $847 forward 7 unknown #
vertex $-1 $737 $848 #
straight-curve $-1 -41.107211523789175 -25.725409085568433 0 0 0 -1 I I #
edge $-1 $735 -25.725409085568433 $739 25.725409085568433 $733 $849 forward 7 unknown #
straight-curve $-1 0 -25.725409085568433 -8.9291122962732903 -1 0 0 I I #
vertex $-1 $549 $850 #
straight-curve $-1 0 25.725409085568433 -8.9291122962732903 1 0 0 I I #
point $-1 41.107211523789175 25.725409085568433 -8.9291122962732903 #
point $-1 41.107211523789175 -25.725409085568433 -8.9291122962732903 #
straight-curve $-1 -41.107211523789175 0 8.9291122962732903 0 -1 0 I I #
point $-1 -41.107211523789175 25.725409085568433 8.9291122962732903 #
point $-1 -41.107211523789175 -25.725409085568433 8.9291122962732903 #
straight-curve $-1 41.107211523789175 -25.725409085568433 0 0 0 -1 I I #
straight-curve $-1 41.107211523789175 25.725409085568433 0 0 0 -1 I I #
plane-surface $-1 0 -25.725409085568433 0 0 1 0 0 0 1 forward_v I I I I #
coedge $-1 $851 $569 $583 $763 reversed $400 $-1 #
coedge $-1 $569 $851 $754 $852 reversed $400 $-1 #
edge $-1 $755 -1.5308957173141788 $752 1.5308957173141788 $570 $853 forward 7 unknown #
vertex $-1 $571 $854 #
straight-curve $-1 -46.869133598424234 25.725409085568433 5.8673208616449344 1 0 0 I I #
coedge $-1 $758 $572 $750 $852 forward $567 $-1 #
vertex $-1 $573 $855 #
straight-curve $-1 0 25.725409085568433 8.9291122962732903 -1 0 0 I I #
point $-1 -41.107211523789175 25.725409085568433 8.9291122962732903 #
coedge $-1 $576 $754 $578 $761 forward $567 $-1 #
straight-curve $-1 -41.107211523789175 0 8.9291122962732903 0 1 0 I I #
coedge $-1 $579 $578 $851 $856 forward $580 $-1 #
edge $-1 $857 -52.631055673059294 $581 -41.107211523789175 $578 $858 forward 7 unknown #
point $-1 -41.107211523789175 -25.725409085568433 8.9291122962732903 #
edge $-1 $764 -25.725409085568433 $752 25.725409085568433 $749 $859 forward 7 unknown #
vertex $-1 $763 $860 #
straight-curve $-1 -46.869133598424234 -25.725409085568433 5.8673208616449344 -1 0 0 I I #
loop $-1 $-1 $593 $587 #
plane-surface $-1 41.107211523789175 0 0 -1 0 0 0 0 1 forward_v I I I I #
coedge $-1 $604 $595 $591 $770 forward $588 $-1 #
edge $-1 $774 -22.997885874118822 $599 -13.220765425221884 $590 $861 forward 7 unknown #
edge $-1 $600 13.220765425221884 $773 22.997885874118822 $768 $862 forward 7 unknown #
coedge $-1 $602 $593 $607 $783 reversed $766 $-1 #
coedge $-1 $593 $602 $604 $781 reversed $766 $-1 #
vertex $-1 $781 $863 #
vertex $-1 $594 $864 #
straight-curve $-1 41.107211523789175 -7.8671844930218526 0 0 0 1 I I #
straight-curve $-1 31.330091074892238 -4.6835922465109263 -8.9291122962732903 0 1 0 I I #
straight-curve $-1 31.330091074892238 -4.6835922465109263 8.9291122962732903 0 -1 0 I I #
point $-1 31.330091074892238 -7.8671844930218526 8.9291122962732903 #
point $-1 31.330091074892238 -7.8671844930218526 -8.9291122962732903 #
straight-curve $-1 41.107211523789175 -10.867184493021853 0 0 0 -1 I I #
edge $-1 $773 7.8671844930218526 $605 10.867184493021853 $772 $865 forward 7 unknown #
point $-1 41.107211523789175 -10.867184493021853 -8.9291122962732903 #
edge $-1 $608 -10.867184493021853 $774 -7.8671844930218526 $771 $866 forward 7 unknown #
point $-1 41.107211523789175 -10.867184493021853 8.9291122962732903 #
coedge $-1 $623 $622 $615 $786 forward $612 $-1 #
edge $-1 $787 38.226927384853177 $790 46.542808028180808 $785 $867 forward 7 unknown #
vertex $-1 $627 $868 #
straight-curve $-1 -9.9593976669383011 25.381929613386738 8.9291122962732885 0 1 0 I I #
edge $-1 $790 2.7059938982830083 $624 11.800813639027577 $623 $869 forward 7 unknown #
vertex $-1 $789 $870 #
straight-curve $-1 -9.9593976669383011 -9.3639640750272477 38.241978398962246 0 -0.68199835119979291 0.73135370988377701 I I #
point $-1 -9.9593976669383011 17.970725119550146 8.9291122962732885 #
point $-1 -19.05421740768287 25.725409085568437 0.6132316529456574 #
straight-curve $-1 0 25.725409085568433 8.9291122962732903 -1 0 0 I I #
vertex $-1 $630 $871 #
point $-1 -16.735253459533958 20.457709395935701 3.4746424695552043 #
vertex $-1 $634 $872 #
point $-1 -14.006807537310586 20.457709395935701 3.4746424695552043 #
vertex $-1 $638 $873 #
point $-1 -11.278361615087213 20.457709395935701 3.4746424695552043 #
coedge $-1 $653 $652 $645 $802 forward $642 $-1 #
edge $-1 $803 38.226927384853177 $806 46.542808028180808 $801 $874 forward 7 unknown #
vertex $-1 $657 $875 #
straight-curve $-1 20.497331557767346 25.381929613386738 8.9291122962732885 0 1 0 I I #
edge $-1 $806 -12.522370714069815 $654 -3.4275509733252463 $653 $876 forward 7 unknown #
vertex $-1 $805 $877 #
straight-curve $-1 20.497331557767346 -9.3639640750272477 38.241978398962246 0 -0.68199835119979291 0.73135370988377701 I I #
point $-1 20.497331557767346 17.970725119550146 8.9291122962732885 #
point $-1 11.402511817022777 25.725409085568437 0.6132316529456574 #
straight-curve $-1 0 25.725409085568433 8.9291122962732903 -1 0 0 I I #
vertex $-1 $660 $878 #
point $-1 13.721475765171689 20.457709395935701 3.4746424695552043 #
vertex $-1 $664 $879 #
point $-1 16.449921687395062 20.457709395935701 3.4746424695552043 #
vertex $-1 $668 $880 #
point $-1 19.178367609618434 20.457709395935701 3.4746424695552043 #
edge $-1 $818 19.412554011844882 $821 27.72843465517251 $673 $881 forward 7 unknown #
vertex $-1 $687 $882 #
straight-curve $-1 -19.05421740768287 -42.92661619368458 8.9291122962732885 0 -1 0 I I #
edge $-1 $821 -11.800813639027577 $684 -2.7059938982830083 $683 $883 forward 7 unknown #
vertex $-1 $820 $884 #
straight-curve $-1 -19.05421740768287 -25.725409085568437 0.6132316529456574 0 0.68199835119979291 0.73135370988377701 I I #
point $-1 -19.05421740768287 -17.970725119550146 8.9291122962732903 #
point $-1 -9.9593976669383011 -25.725409085568433 0.61323165294566118 #
straight-curve $-1 0 -25.725409085568433 8.9291122962732903 1 0 0 I I #
vertex $-1 $690 $885 #
point $-1 -16.735253459533958 -20.457709395935694 3.4746424695552078 #
vertex $-1 $694 $886 #
point $-1 -14.006807537310586 -20.457709395935694 3.4746424695552078 #
vertex $-1 $698 $887 #
point $-1 -11.278361615087213 -20.457709395935694 3.4746424695552078 #
edge $-1 $833 19.412554011844882 $836 27.72843465517251 $703 $888 forward 7 unknown #
vertex $-1 $717 $889 #
straight-curve $-1 11.402511817022777 -42.92661619368458 8.9291122962732885 0 -1 0 I I #
edge $-1 $836 3.4275509733252463 $714 12.522370714069815 $713 $890 forward 7 unknown #
vertex $-1 $835 $891 #
straight-curve $-1 11.402511817022777 -25.725409085568437 0.6132316529456574 0 0.68199835119979291 0.73135370988377701 I I #
point $-1 11.402511817022777 -17.970725119550146 8.9291122962732903 #
point $-1 20.497331557767346 -25.725409085568433 0.61323165294566118 #
straight-curve $-1 0 -25.725409085568433 8.9291122962732903 1 0 0 I I #
vertex $-1 $720 $892 #
point $-1 13.721475765171689 -20.457709395935694 3.4746424695552078 #
vertex $-1 $724 $893 #
point $-1 16.449921687395062 -20.457709395935694 3.4746424695552078 #
vertex $-1 $728 $894 #
point $-1 19.178367609618434 -20.457709395935694 3.4746424695552078 #
straight-curve $-1 -41.107211523789175 25.725409085568433 0 0 0 -1 I I #
point $-1 -41.107211523789175 -25.725409085568433 -8.9291122962732903 #
straight-curve $-1 -41.107211523789175 0 -8.9291122962732903 0 1 0 I I #
point $-1 -41.107211523789175 25.725409085568433 -8.9291122962732903 #
coedge $-1 $750 $749 $760 $856 reversed $400 $-1 #
edge $-1 $755 -25.725409085568433 $857 25.725409085568433 $750 $895 forward 7 unknown #
straight-curve $-1 -52.631055673059294 25.725409085568433 7.3982165789591132 0 0 -1 I I #
point $-1 -52.631055673059294 25.725409085568433 5.8673208616449344 #
point $-1 -52.631055673059294 25.725409085568433 8.9291122962732921 #
edge $-1 $857 -1.5308957173141788 $764 1.5308957173141788 $851 $896 forward 7 unknown #
vertex $-1 $852 $897 #
straight-curve $-1 0 -25.725409085568433 8.9291122962732903 1 0 0 I I #
straight-curve $-1 -52.631055673059294 0 5.8673208616449344 0 1 0 I I #
point $-1 -52.631055673059294 -25.725409085568433 5.8673208616449344 #
straight-curve $-1 18.109325649670353 -7.8671844930218526 8.9291122962732903 -1 0 0 I I #
straight-curve $-1 18.109325649670353 -7.8671844930218526 -8.9291122962732903 1 0 0 I I #
point $-1 41.107211523789175 -7.8671844930218526 -8.9291122962732903 #
point $-1 41.107211523789175 -7.8671844930218526 8.9291122962732903 #
straight-curve $-1 41.107211523789175 0 -8.9291122962732903 0 -1 0 I I #
straight-curve $-1 41.107211523789175 0 8.9291122962732903 0 1 0 I I #
straight-curve $-1 -9.9593976669383011 25.725409085568433 47.156039681126465 0 0 -1 I I #
point $-1 -9.9593976669383011 25.725409085568433 8.9291122962732903 #
straight-curve $-1 -7.2534037686552928 25.725409085568433 0.6132316529456574 -1 0 0 I I #
point $-1 -9.9593976669383011 25.725409085568437 0.6132316529456574 #
point $-1 -17.235253459533958 20.092032540993813 3.1336432939553078 #
point $-1 -14.506807537310586 20.092032540993813 3.1336432939553078 #
point $-1 -11.778361615087213 20.092032540993813 3.1336432939553078 #
straight-curve $-1 20.497331557767346 25.725409085568433 47.156039681126465 0 0 -1 I I #
point $-1 20.497331557767346 25.725409085568433 8.9291122962732903 #
straight-curve $-1 7.9749608436975308 25.725409085568433 0.6132316529456574 -1 0 0 I I #
point $-1 20.497331557767346 25.725409085568437 0.6132316529456574 #
point $-1 13.221475765171689 20.092032540993813 3.1336432939553078 #
point $-1 15.949921687395062 20.092032540993813 3.1336432939553078 #
point $-1 18.678367609618434 20.092032540993813 3.1336432939553078 #
straight-curve $-1 -19.05421740768287 -25.725409085568433 28.341666308118171 0 0 -1 I I #
point $-1 -19.05421740768287 -25.725409085568433 8.9291122962732903 #
straight-curve $-1 -7.2534037686552928 -25.725409085568433 0.61323165294566251 1 0 0 I I #
point $-1 -19.05421740768287 -25.725409085568433 0.61323165294566118 #
point $-1 -17.235253459533958 -20.092032540993806 3.1336432939553114 #
point $-1 -14.506807537310586 -20.092032540993806 3.1336432939553114 #
point $-1 -11.778361615087213 -20.092032540993806 3.1336432939553114 #
straight-curve $-1 11.402511817022777 -25.725409085568433 28.341666308118171 0 0 -1 I I #
point $-1 11.402511817022777 -25.725409085568433 8.9291122962732903 #
straight-curve $-1 7.9749608436975308 -25.725409085568433 0.61323165294566251 1 0 0 I I #
point $-1 11.402511817022777 -25.725409085568433 0.61323165294566118 #
point $-1 13.221475765171689 -20.092032540993806 3.1336432939553114 #
point $-1 15.949921687395062 -20.092032540993806 3.1336432939553114 #
point $-1 18.678367609618434 -20.092032540993806 3.1336432939553114 #
straight-curve $-1 -52.631055673059294 0 8.9291122962732921 0 -1 0 I I #
straight-curve $-1 -52.631055673059294 -25.725409085568433 7.3982165789591132 0 0 -1 I I #
point $-1 -52.631055673059294 -25.725409085568433 8.9291122962732921 #
End-of-ACIS-data 