500 0 13 0           
7 Unknown 11 ACIS 5.0 NT 24 Thu Mar 25 18:22:10 1999 
-1 9.9999999999999995e-007 1e-010 
body $-1 $13 $-1 $14 #
body $-1 $15 $-1 $16 #
body $-1 $17 $-1 $18 #
body $-1 $19 $-1 $20 #
body $-1 $21 $-1 $22 #
body $-1 $23 $-1 $24 #
body $-1 $25 $-1 $26 #
body $-1 $27 $-1 $28 #
body $-1 $29 $-1 $30 #
body $-1 $31 $-1 $32 #
body $-1 $33 $-1 $34 #
body $-1 $35 $-1 $36 #
body $-1 $37 $-1 $38 #
lump $-1 $-1 $39 $0 #
transform $-1 1 0 0 0 1 0 0 0 1 70.680867946409492 38.269741467672468 16.997548828082255 1 rotate no_reflect no_shear #
lump $-1 $-1 $40 $1 #
transform $-1 1 0 0 0 1 0 0 0 1 70.680867946409492 6.3507608603502845 2.6070308891657157 1 rotate no_reflect no_shear #
lump $-1 $-1 $41 $2 #
transform $-1 1 0 0 0 1 0 0 0 1 70.680867946409492 70.188722074994644 2.6070308891657157 1 rotate no_reflect no_shear #
lump $-1 $-1 $42 $3 #
transform $-1 0.65605901945558964 0 -0.75470958851134928 0 1 0 0.75470958851134928 0 0.65605901945558964 155.30715158135555 22.207959818724863 216.45187925297756 1 rotate no_reflect no_shear #
lump $-1 $-1 $43 $4 #
transform $-1 0.65605901945558964 0 -0.75470958851134928 0 -1 0 -0.75470958851134928 0 -0.65605901945558964 131.21870728256971 22.207959818724863 23.104433292529521 1 rotate no_reflect no_shear #
lump $-1 $-1 $44 $5 #
transform $-1 0.65605901945558964 0 -0.75470958851134928 0 1 0 0.75470958851134928 0 0.65605901945558964 155.30715158135555 32.915814251356601 216.45187925297756 1 rotate no_reflect no_shear #
lump $-1 $-1 $45 $6 #
transform $-1 0.65605901945558964 0 -0.75470958851134928 0 -1 0 -0.75470958851134928 0 -0.65605901945558964 131.21870728256971 32.915814251356601 23.104433292529521 1 rotate no_reflect no_shear #
lump $-1 $-1 $46 $7 #
transform $-1 0.65605901945558964 0 -0.75470958851134928 0 1 0 0.75470958851134928 0 0.65605901945558964 155.30715158135555 43.623668683988335 216.45187925297756 1 rotate no_reflect no_shear #
lump $-1 $-1 $47 $8 #
transform $-1 0.65605901945558964 0 -0.75470958851134928 0 -1 0 -0.75470958851134928 0 -0.65605901945558964 131.21870728256971 43.623668683988335 23.104433292529521 1 rotate no_reflect no_shear #
lump $-1 $-1 $48 $9 #
transform $-1 0.65605901945558964 0 -0.75470958851134928 0 1 0 0.75470958851134928 0 0.65605901945558964 155.30715158135555 54.331523116620069 216.45187925297756 1 rotate no_reflect no_shear #
lump $-1 $-1 $49 $10 #
transform $-1 0.65605901945558964 0 -0.75470958851134928 0 -1 0 -0.75470958851134928 0 -0.65605901945558964 131.21870728256971 54.331523116620069 23.104433292529521 1 rotate no_reflect no_shear #
lump $-1 $-1 $50 $11 #
transform $-1 0.84804809178421925 0 0.52991927123019833 0 1 0 -0.52991927123019833 0 0.84804809178421925 -74.9103080641584 21.190237747714143 149.28154175603461 1 rotate no_reflect no_shear #
lump $-1 $-1 $51 $12 #
transform $-1 0.84804809178421925 0 0.52991927123019833 0 -1 0 0.52991927123019833 0 -0.84804809178421925 5.168776755759966 21.190237747714139 29.309968343097662 1 rotate no_reflect no_shear #
shell $-1 $-1 $-1 $52 $-1 $13 #
shell $-1 $-1 $-1 $53 $-1 $15 #
shell $-1 $-1 $-1 $54 $-1 $17 #
shell $-1 $-1 $-1 $55 $-1 $19 #
shell $-1 $-1 $-1 $56 $-1 $21 #
shell $-1 $-1 $-1 $57 $-1 $23 #
shell $-1 $-1 $-1 $58 $-1 $25 #
shell $-1 $-1 $-1 $59 $-1 $27 #
shell $-1 $-1 $-1 $60 $-1 $29 #
shell $-1 $-1 $-1 $61 $-1 $31 #
shell $-1 $-1 $-1 $62 $-1 $33 #
shell $-1 $-1 $-1 $63 $-1 $35 #
shell $-1 $-1 $-1 $64 $-1 $37 #
face $-1 $65 $66 $39 $-1 $67 forward single #
face $-1 $68 $69 $40 $-1 $70 forward single #
face $-1 $71 $72 $41 $-1 $73 forward single #
face $-1 $74 $75 $42 $-1 $76 forward single #
face $-1 $77 $78 $43 $-1 $79 forward single #
face $-1 $80 $81 $44 $-1 $82 forward single #
face $-1 $83 $84 $45 $-1 $85 forward single #
face $-1 $86 $87 $46 $-1 $88 forward single #
face $-1 $89 $90 $47 $-1 $91 forward single #
face $-1 $92 $93 $48 $-1 $94 forward single #
face $-1 $95 $96 $49 $-1 $97 forward single #
face $-1 $98 $99 $50 $-1 $100 forward single #
face $-1 $101 $102 $51 $-1 $103 forward single #
face $-1 $104 $105 $39 $-1 $106 reversed single #
loop $-1 $-1 $107 $52 #
plane-surface $-1 0 0 16.997548828082255 0 0 1 1 0 0 forward_v I I I I #
face $-1 $108 $109 $40 $-1 $110 reversed single #
loop $-1 $-1 $111 $53 #
plane-surface $-1 0 0 2.6070308891657157 0 0 1 1 0 0 forward_v I I I I #
face $-1 $112 $113 $41 $-1 $114 reversed single #
loop $-1 $-1 $115 $54 #
plane-surface $-1 0 0 2.6070308891657157 0 0 1 1 0 0 forward_v I I I I #
face $-1 $116 $117 $42 $-1 $118 reversed single #
loop $-1 $-1 $119 $55 #
plane-surface $-1 0 0 141.36173589281898 0 0 1 1 0 0 forward_v I I I I #
face $-1 $120 $121 $43 $-1 $122 forward single #
loop $-1 $123 $124 $56 #
cone-surface $-1 0 0 -2.0826899014252138 0 0 1 1 0 0 1 I I 0 1 1 forward I I I I #
face $-1 $125 $126 $44 $-1 $127 reversed single #
loop $-1 $-1 $128 $57 #
plane-surface $-1 0 0 141.36173589281898 0 0 1 1 0 0 forward_v I I I I #
face $-1 $129 $130 $45 $-1 $131 forward single #
loop $-1 $132 $133 $58 #
cone-surface $-1 0 0 -2.0826899014252138 0 0 1 1 0 0 1 I I 0 1 1 forward I I I I #
face $-1 $134 $135 $46 $-1 $136 reversed single #
loop $-1 $-1 $137 $59 #
plane-surface $-1 0 0 141.36173589281898 0 0 1 1 0 0 forward_v I I I I #
face $-1 $138 $139 $47 $-1 $140 forward single #
loop $-1 $141 $142 $60 #
cone-surface $-1 0 0 -2.0826899014252138 0 0 1 1 0 0 1 I I 0 1 1 forward I I I I #
face $-1 $143 $144 $48 $-1 $145 reversed single #
loop $-1 $-1 $146 $61 #
plane-surface $-1 0 0 141.36173589281898 0 0 1 1 0 0 forward_v I I I I #
face $-1 $147 $148 $49 $-1 $149 forward single #
loop $-1 $150 $151 $62 #
cone-surface $-1 0 0 -2.0826899014252138 0 0 1 1 0 0 1 I I 0 1 1 forward I I I I #
face $-1 $152 $153 $50 $-1 $154 reversed single #
loop $-1 $-1 $155 $63 #
plane-surface $-1 0 0 141.36173589281898 0 0 1 1 0 0 forward_v I I I I #
face $-1 $156 $157 $51 $-1 $158 forward single #
loop $-1 $159 $160 $64 #
cone-surface $-1 0 0 -1.6576891384624801 0 0 1 1 0 0 1 I I 0 1 1 forward I I I I #
face $-1 $161 $162 $39 $-1 $163 reversed single #
loop $-1 $-1 $164 $65 #
plane-surface $-1 0 0 -16.997548828082255 0 0 1 1 0 0 forward_v I I I I #
coedge $-1 $165 $166 $167 $168 forward $66 $-1 #
face $-1 $169 $170 $40 $-1 $171 reversed single #
loop $-1 $-1 $172 $68 #
plane-surface $-1 0 0 -2.6070308891657157 0 0 1 1 0 0 forward_v I I I I #
coedge $-1 $173 $174 $175 $176 forward $69 $-1 #
face $-1 $177 $178 $41 $-1 $179 reversed single #
loop $-1 $-1 $180 $71 #
plane-surface $-1 0 0 -2.6070308891657157 0 0 1 1 0 0 forward_v I I I I #
coedge $-1 $181 $182 $183 $184 forward $72 $-1 #
face $-1 $185 $186 $42 $-1 $187 reversed single #
loop $-1 $-1 $188 $74 #
plane-surface $-1 0 0 -141.36173589281898 0 0 1 1 0 0 forward_v I I I I #
coedge $-1 $189 $190 $191 $192 forward $75 $-1 #
face $-1 $-1 $193 $43 $-1 $194 forward single #
loop $-1 $-1 $195 $77 #
plane-surface $-1 0 0 -3.6653798028504285 0 0 -1 -1 0 0 forward_v I I I I #
loop $-1 $-1 $196 $56 #
coedge $-1 $124 $124 $195 $197 reversed $78 $-1 #
face $-1 $198 $199 $44 $-1 $200 reversed single #
loop $-1 $-1 $201 $80 #
plane-surface $-1 0 0 -141.36173589281898 0 0 1 1 0 0 forward_v I I I I #
coedge $-1 $202 $203 $204 $205 forward $81 $-1 #
face $-1 $-1 $206 $45 $-1 $207 forward single #
loop $-1 $-1 $208 $83 #
plane-surface $-1 0 0 -3.6653798028504285 0 0 -1 -1 0 0 forward_v I I I I #
loop $-1 $-1 $209 $58 #
coedge $-1 $133 $133 $208 $210 reversed $84 $-1 #
face $-1 $211 $212 $46 $-1 $213 reversed single #
loop $-1 $-1 $214 $86 #
plane-surface $-1 0 0 -141.36173589281898 0 0 1 1 0 0 forward_v I I I I #
coedge $-1 $215 $216 $217 $218 forward $87 $-1 #
face $-1 $-1 $219 $47 $-1 $220 forward single #
loop $-1 $-1 $221 $89 #
plane-surface $-1 0 0 -3.6653798028504285 0 0 -1 -1 0 0 forward_v I I I I #
loop $-1 $-1 $222 $60 #
coedge $-1 $142 $142 $221 $223 reversed $90 $-1 #
face $-1 $224 $225 $48 $-1 $226 reversed single #
loop $-1 $-1 $227 $92 #
plane-surface $-1 0 0 -141.36173589281898 0 0 1 1 0 0 forward_v I I I I #
coedge $-1 $228 $229 $230 $231 forward $93 $-1 #
face $-1 $-1 $232 $49 $-1 $233 forward single #
loop $-1 $-1 $234 $95 #
plane-surface $-1 0 0 -3.6653798028504285 0 0 -1 -1 0 0 forward_v I I I I #
loop $-1 $-1 $235 $62 #
coedge $-1 $151 $151 $234 $236 reversed $96 $-1 #
face $-1 $237 $238 $50 $-1 $239 reversed single #
loop $-1 $-1 $240 $98 #
plane-surface $-1 0 0 -141.36173589281898 0 0 1 1 0 0 forward_v I I I I #
coedge $-1 $241 $242 $243 $244 forward $99 $-1 #
face $-1 $-1 $245 $51 $-1 $246 forward single #
loop $-1 $-1 $247 $101 #
plane-surface $-1 0 0 -2.8153782769249585 0 0 -1 -1 0 0 forward_v I I I I #
loop $-1 $-1 $248 $64 #
coedge $-1 $160 $160 $247 $249 reversed $102 $-1 #
face $-1 $250 $251 $39 $-1 $252 reversed single #
loop $-1 $-1 $253 $104 #
plane-surface $-1 0 -38.269741467672468 0 0 1 0 0 0 1 forward_v I I I I #
coedge $-1 $254 $255 $256 $257 forward $105 $-1 #
coedge $-1 $258 $107 $259 $260 forward $66 $-1 #
coedge $-1 $107 $258 $261 $262 forward $66 $-1 #
coedge $-1 $263 $264 $107 $168 reversed $265 $-1 #
edge $-1 $266 -38.269741467672468 $267 38.269741467672468 $167 $268 forward 7 unknown #
face $-1 $269 $270 $40 $-1 $271 reversed single #
loop $-1 $-1 $272 $108 #
plane-surface $-1 0 -6.3507608603502845 0 0 1 0 0 0 1 forward_v I I I I #
coedge $-1 $273 $274 $275 $276 forward $109 $-1 #
coedge $-1 $277 $111 $278 $279 forward $69 $-1 #
coedge $-1 $111 $277 $280 $281 forward $69 $-1 #
coedge $-1 $282 $283 $111 $176 reversed $284 $-1 #
edge $-1 $285 -6.3507608603502845 $286 6.3507608603502845 $175 $287 forward 7 unknown #
face $-1 $288 $289 $41 $-1 $290 reversed single #
loop $-1 $-1 $291 $112 #
plane-surface $-1 0 -6.3507608603502845 0 0 1 0 0 0 1 forward_v I I I I #
coedge $-1 $292 $293 $294 $295 forward $113 $-1 #
coedge $-1 $296 $115 $297 $298 forward $72 $-1 #
coedge $-1 $115 $296 $299 $300 forward $72 $-1 #
coedge $-1 $301 $302 $115 $184 reversed $303 $-1 #
edge $-1 $304 -6.3507608603502845 $305 6.3507608603502845 $183 $306 forward 7 unknown #
face $-1 $307 $308 $42 $-1 $309 reversed single #
loop $-1 $-1 $310 $116 #
plane-surface $-1 0 -3.2776717754616556 0 0 1 0 0 0 1 forward_v I I I I #
coedge $-1 $311 $312 $313 $314 forward $117 $-1 #
coedge $-1 $315 $119 $316 $317 forward $75 $-1 #
coedge $-1 $119 $315 $318 $319 forward $75 $-1 #
coedge $-1 $320 $321 $119 $192 reversed $322 $-1 #
edge $-1 $323 -3.2776717754616556 $324 3.2776717754616556 $191 $325 forward 7 unknown #
loop $-1 $326 $327 $120 #
cone-surface $-1 0 0 0 0 0 1 0.5 0 0 1 I I -0.70710678118654746 0.70710678118654746 0.5 forward I I I I #
coedge $-1 $195 $195 $124 $197 forward $121 $-1 #
coedge $-1 $196 $196 $327 $328 forward $123 $-1 #
edge $-1 $329 0 $329 6.2831853071796004 $195 $330 forward 7 unknown #
face $-1 $331 $332 $44 $-1 $333 reversed single #
loop $-1 $-1 $334 $125 #
plane-surface $-1 0 -3.2776717754616556 0 0 1 0 0 0 1 forward_v I I I I #
coedge $-1 $335 $336 $337 $338 forward $126 $-1 #
coedge $-1 $339 $128 $340 $341 forward $81 $-1 #
coedge $-1 $128 $339 $342 $343 forward $81 $-1 #
coedge $-1 $344 $345 $128 $205 reversed $346 $-1 #
edge $-1 $347 -3.2776717754616556 $348 3.2776717754616556 $204 $349 forward 7 unknown #
loop $-1 $350 $351 $129 #
cone-surface $-1 0 0 0 0 0 1 0.5 0 0 1 I I -0.70710678118654746 0.70710678118654746 0.5 forward I I I I #
coedge $-1 $208 $208 $133 $210 forward $130 $-1 #
coedge $-1 $209 $209 $351 $352 forward $132 $-1 #
edge $-1 $353 0 $353 6.2831853071796004 $208 $354 forward 7 unknown #
face $-1 $355 $356 $46 $-1 $357 reversed single #
loop $-1 $-1 $358 $134 #
plane-surface $-1 0 -3.2776717754616556 0 0 1 0 0 0 1 forward_v I I I I #
coedge $-1 $359 $360 $361 $362 forward $135 $-1 #
coedge $-1 $363 $137 $364 $365 forward $87 $-1 #
coedge $-1 $137 $363 $366 $367 forward $87 $-1 #
coedge $-1 $368 $369 $137 $218 reversed $370 $-1 #
edge $-1 $371 -3.2776717754616556 $372 3.2776717754616556 $217 $373 forward 7 unknown #
loop $-1 $374 $375 $138 #
cone-surface $-1 0 0 0 0 0 1 0.5 0 0 1 I I -0.70710678118654746 0.70710678118654746 0.5 forward I I I I #
coedge $-1 $221 $221 $142 $223 forward $139 $-1 #
coedge $-1 $222 $222 $375 $376 forward $141 $-1 #
edge $-1 $377 0 $377 6.2831853071796004 $221 $378 forward 7 unknown #
face $-1 $379 $380 $48 $-1 $381 reversed single #
loop $-1 $-1 $382 $143 #
plane-surface $-1 0 -3.2776717754616556 0 0 1 0 0 0 1 forward_v I I I I #
coedge $-1 $383 $384 $385 $386 forward $144 $-1 #
coedge $-1 $387 $146 $388 $389 forward $93 $-1 #
coedge $-1 $146 $387 $390 $391 forward $93 $-1 #
coedge $-1 $392 $393 $146 $231 reversed $394 $-1 #
edge $-1 $395 -3.2776717754616556 $396 3.2776717754616556 $230 $397 forward 7 unknown #
loop $-1 $398 $399 $147 #
cone-surface $-1 0 0 0 0 0 1 0.5 0 0 1 I I -0.70710678118654746 0.70710678118654746 0.5 forward I I I I #
coedge $-1 $234 $234 $151 $236 forward $148 $-1 #
coedge $-1 $235 $235 $399 $400 forward $150 $-1 #
edge $-1 $401 0 $401 6.2831853071796004 $234 $402 forward 7 unknown #
face $-1 $403 $404 $50 $-1 $405 reversed single #
loop $-1 $-1 $406 $152 #
plane-surface $-1 0 -4.5824308813521117 0 0 1 0 0 0 1 forward_v I I I I #
coedge $-1 $407 $408 $409 $410 forward $153 $-1 #
coedge $-1 $411 $155 $412 $413 forward $99 $-1 #
coedge $-1 $155 $411 $414 $415 forward $99 $-1 #
coedge $-1 $416 $417 $155 $244 reversed $418 $-1 #
edge $-1 $419 -4.5824308813521117 $420 4.5824308813521117 $243 $421 forward 7 unknown #
loop $-1 $422 $423 $156 #
cone-surface $-1 0 0 0 0 0 1 0.5 0 0 1 I I -0.70710678118654746 0.70710678118654746 0.5 forward I I I I #
coedge $-1 $247 $247 $160 $249 forward $157 $-1 #
coedge $-1 $248 $248 $423 $424 forward $159 $-1 #
edge $-1 $425 0 $425 6.2831853071796004 $247 $426 forward 7 unknown #
face $-1 $427 $428 $39 $-1 $429 reversed single #
loop $-1 $-1 $430 $161 #
plane-surface $-1 -70.680867946409492 0 0 1 0 0 0 0 -1 forward_v I I I I #
coedge $-1 $431 $261 $432 $433 forward $162 $-1 #
coedge $-1 $434 $164 $431 $435 forward $105 $-1 #
coedge $-1 $164 $434 $436 $437 forward $105 $-1 #
coedge $-1 $264 $263 $164 $257 reversed $265 $-1 #
edge $-1 $438 -38.269741467672468 $439 38.269741467672468 $256 $440 forward 7 unknown #
coedge $-1 $166 $165 $441 $442 forward $66 $-1 #
coedge $-1 $443 $444 $165 $260 reversed $428 $-1 #
edge $-1 $267 -70.680867946409492 $445 70.680867946409492 $259 $446 forward 7 unknown #
coedge $-1 $253 $447 $166 $262 reversed $162 $-1 #
edge $-1 $448 -70.680867946409492 $266 70.680867946409492 $261 $449 forward 7 unknown #
coedge $-1 $256 $167 $447 $450 forward $265 $-1 #
coedge $-1 $167 $256 $443 $451 reversed $265 $-1 #
loop $-1 $-1 $263 $427 #
vertex $-1 $168 $452 #
vertex $-1 $168 $453 #
straight-curve $-1 70.680867946409492 0 16.997548828082255 0 1 0 I I #
face $-1 $454 $455 $40 $-1 $456 reversed single #
loop $-1 $-1 $457 $169 #
plane-surface $-1 -70.680867946409492 0 0 1 0 0 0 0 -1 forward_v I I I I #
coedge $-1 $458 $280 $459 $460 forward $170 $-1 #
coedge $-1 $461 $172 $458 $462 forward $109 $-1 #
coedge $-1 $172 $461 $463 $464 forward $109 $-1 #
coedge $-1 $283 $282 $172 $276 reversed $284 $-1 #
edge $-1 $465 -6.3507608603502845 $466 6.3507608603502845 $275 $467 forward 7 unknown #
coedge $-1 $174 $173 $468 $469 forward $69 $-1 #
coedge $-1 $470 $471 $173 $279 reversed $455 $-1 #
edge $-1 $286 -70.680867946409492 $472 70.680867946409492 $278 $473 forward 7 unknown #
coedge $-1 $272 $474 $174 $281 reversed $170 $-1 #
edge $-1 $475 -70.680867946409492 $285 70.680867946409492 $280 $476 forward 7 unknown #
coedge $-1 $275 $175 $474 $477 forward $284 $-1 #
coedge $-1 $175 $275 $470 $478 reversed $284 $-1 #
loop $-1 $-1 $282 $454 #
vertex $-1 $176 $479 #
vertex $-1 $176 $480 #
straight-curve $-1 70.680867946409492 0 2.6070308891657157 0 1 0 I I #
face $-1 $481 $482 $41 $-1 $483 reversed single #
loop $-1 $-1 $484 $177 #
plane-surface $-1 -70.680867946409492 0 0 1 0 0 0 0 -1 forward_v I I I I #
coedge $-1 $485 $299 $486 $487 forward $178 $-1 #
coedge $-1 $488 $180 $485 $489 forward $113 $-1 #
coedge $-1 $180 $488 $490 $491 forward $113 $-1 #
coedge $-1 $302 $301 $180 $295 reversed $303 $-1 #
edge $-1 $492 -6.3507608603502845 $493 6.3507608603502845 $294 $494 forward 7 unknown #
coedge $-1 $182 $181 $495 $496 forward $72 $-1 #
coedge $-1 $497 $498 $181 $298 reversed $482 $-1 #
edge $-1 $305 -70.680867946409492 $499 70.680867946409492 $297 $500 forward 7 unknown #
coedge $-1 $291 $501 $182 $300 reversed $178 $-1 #
edge $-1 $502 -70.680867946409492 $304 70.680867946409492 $299 $503 forward 7 unknown #
coedge $-1 $294 $183 $501 $504 forward $303 $-1 #
coedge $-1 $183 $294 $497 $505 reversed $303 $-1 #
loop $-1 $-1 $301 $481 #
vertex $-1 $184 $506 #
vertex $-1 $184 $507 #
straight-curve $-1 70.680867946409492 0 2.6070308891657157 0 1 0 I I #
face $-1 $508 $509 $42 $-1 $510 reversed single #
loop $-1 $-1 $511 $185 #
plane-surface $-1 -282.72347178563797 0 0 1 0 0 0 0 -1 forward_v I I I I #
coedge $-1 $512 $318 $513 $514 forward $186 $-1 #
coedge $-1 $515 $188 $512 $516 forward $117 $-1 #
coedge $-1 $188 $515 $517 $518 forward $117 $-1 #
coedge $-1 $321 $320 $188 $314 reversed $322 $-1 #
edge $-1 $519 -3.2776717754616556 $520 3.2776717754616556 $313 $521 forward 7 unknown #
coedge $-1 $190 $189 $522 $523 forward $75 $-1 #
coedge $-1 $524 $525 $189 $317 reversed $509 $-1 #
edge $-1 $324 -282.72347178563797 $526 282.72347178563797 $316 $527 forward 7 unknown #
coedge $-1 $310 $528 $190 $319 reversed $186 $-1 #
edge $-1 $529 -282.72347178563797 $323 282.72347178563797 $318 $530 forward 7 unknown #
coedge $-1 $313 $191 $528 $531 forward $322 $-1 #
coedge $-1 $191 $313 $524 $532 reversed $322 $-1 #
loop $-1 $-1 $320 $508 #
vertex $-1 $192 $533 #
vertex $-1 $192 $534 #
straight-curve $-1 282.72347178563797 0 141.36173589281898 0 1 0 I I #
loop $-1 $-1 $535 $120 #
coedge $-1 $327 $327 $196 $328 reversed $193 $-1 #
edge $-1 $536 0 $536 6.2831853071796004 $327 $537 forward 7 unknown #
vertex $-1 $197 $538 #
ellipse-curve $-1 0 0 -3.6653798028504285 0 0 -1 1 0 0 1 I I #
face $-1 $539 $540 $44 $-1 $541 reversed single #
loop $-1 $-1 $542 $198 #
plane-surface $-1 -282.72347178563797 0 0 1 0 0 0 0 -1 forward_v I I I I #
coedge $-1 $543 $342 $544 $545 forward $199 $-1 #
coedge $-1 $546 $201 $543 $547 forward $126 $-1 #
coedge $-1 $201 $546 $548 $549 forward $126 $-1 #
coedge $-1 $345 $344 $201 $338 reversed $346 $-1 #
edge $-1 $550 -3.2776717754616556 $551 3.2776717754616556 $337 $552 forward 7 unknown #
coedge $-1 $203 $202 $553 $554 forward $81 $-1 #
coedge $-1 $555 $556 $202 $341 reversed $540 $-1 #
edge $-1 $348 -282.72347178563797 $557 282.72347178563797 $340 $558 forward 7 unknown #
coedge $-1 $334 $559 $203 $343 reversed $199 $-1 #
edge $-1 $560 -282.72347178563797 $347 282.72347178563797 $342 $561 forward 7 unknown #
coedge $-1 $337 $204 $559 $562 forward $346 $-1 #
coedge $-1 $204 $337 $555 $563 reversed $346 $-1 #
loop $-1 $-1 $344 $539 #
vertex $-1 $205 $564 #
vertex $-1 $205 $565 #
straight-curve $-1 282.72347178563797 0 141.36173589281898 0 1 0 I I #
loop $-1 $-1 $566 $129 #
coedge $-1 $351 $351 $209 $352 reversed $206 $-1 #
edge $-1 $567 0 $567 6.2831853071796004 $351 $568 forward 7 unknown #
vertex $-1 $210 $569 #
ellipse-curve $-1 0 0 -3.6653798028504285 0 0 -1 1 0 0 1 I I #
face $-1 $570 $571 $46 $-1 $572 reversed single #
loop $-1 $-1 $573 $211 #
plane-surface $-1 -282.72347178563797 0 0 1 0 0 0 0 -1 forward_v I I I I #
coedge $-1 $574 $366 $575 $576 forward $212 $-1 #
coedge $-1 $577 $214 $574 $578 forward $135 $-1 #
coedge $-1 $214 $577 $579 $580 forward $135 $-1 #
coedge $-1 $369 $368 $214 $362 reversed $370 $-1 #
edge $-1 $581 -3.2776717754616556 $582 3.2776717754616556 $361 $583 forward 7 unknown #
coedge $-1 $216 $215 $584 $585 forward $87 $-1 #
coedge $-1 $586 $587 $215 $365 reversed $571 $-1 #
edge $-1 $372 -282.72347178563797 $588 282.72347178563797 $364 $589 forward 7 unknown #
coedge $-1 $358 $590 $216 $367 reversed $212 $-1 #
edge $-1 $591 -282.72347178563797 $371 282.72347178563797 $366 $592 forward 7 unknown #
coedge $-1 $361 $217 $590 $593 forward $370 $-1 #
coedge $-1 $217 $361 $586 $594 reversed $370 $-1 #
loop $-1 $-1 $368 $570 #
vertex $-1 $218 $595 #
vertex $-1 $218 $596 #
straight-curve $-1 282.72347178563797 0 141.36173589281898 0 1 0 I I #
loop $-1 $-1 $597 $138 #
coedge $-1 $375 $375 $222 $376 reversed $219 $-1 #
edge $-1 $598 0 $598 6.2831853071796004 $375 $599 forward 7 unknown #
vertex $-1 $223 $600 #
ellipse-curve $-1 0 0 -3.6653798028504285 0 0 -1 1 0 0 1 I I #
face $-1 $601 $602 $48 $-1 $603 reversed single #
loop $-1 $-1 $604 $224 #
plane-surface $-1 -282.72347178563797 0 0 1 0 0 0 0 -1 forward_v I I I I #
coedge $-1 $605 $390 $606 $607 forward $225 $-1 #
coedge $-1 $608 $227 $605 $609 forward $144 $-1 #
coedge $-1 $227 $608 $610 $611 forward $144 $-1 #
coedge $-1 $393 $392 $227 $386 reversed $394 $-1 #
edge $-1 $612 -3.2776717754616556 $613 3.2776717754616556 $385 $614 forward 7 unknown #
coedge $-1 $229 $228 $615 $616 forward $93 $-1 #
coedge $-1 $617 $618 $228 $389 reversed $602 $-1 #
edge $-1 $396 -282.72347178563797 $619 282.72347178563797 $388 $620 forward 7 unknown #
coedge $-1 $382 $621 $229 $391 reversed $225 $-1 #
edge $-1 $622 -282.72347178563797 $395 282.72347178563797 $390 $623 forward 7 unknown #
coedge $-1 $385 $230 $621 $624 forward $394 $-1 #
coedge $-1 $230 $385 $617 $625 reversed $394 $-1 #
loop $-1 $-1 $392 $601 #
vertex $-1 $231 $626 #
vertex $-1 $231 $627 #
straight-curve $-1 282.72347178563797 0 141.36173589281898 0 1 0 I I #
loop $-1 $-1 $628 $147 #
coedge $-1 $399 $399 $235 $400 reversed $232 $-1 #
edge $-1 $629 0 $629 6.2831853071796004 $399 $630 forward 7 unknown #
vertex $-1 $236 $631 #
ellipse-curve $-1 0 0 -3.6653798028504285 0 0 -1 1 0 0 1 I I #
face $-1 $632 $633 $50 $-1 $634 reversed single #
loop $-1 $-1 $635 $237 #
plane-surface $-1 -282.72347178563797 0 0 1 0 0 0 0 -1 forward_v I I I I #
coedge $-1 $636 $414 $637 $638 forward $238 $-1 #
coedge $-1 $639 $240 $636 $640 forward $153 $-1 #
coedge $-1 $240 $639 $641 $642 forward $153 $-1 #
coedge $-1 $417 $416 $240 $410 reversed $418 $-1 #
edge $-1 $643 -4.5824308813521117 $644 4.5824308813521117 $409 $645 forward 7 unknown #
coedge $-1 $242 $241 $646 $647 forward $99 $-1 #
coedge $-1 $648 $649 $241 $413 reversed $633 $-1 #
edge $-1 $420 -282.72347178563797 $650 282.72347178563797 $412 $651 forward 7 unknown #
coedge $-1 $406 $652 $242 $415 reversed $238 $-1 #
edge $-1 $653 -282.72347178563797 $419 282.72347178563797 $414 $654 forward 7 unknown #
coedge $-1 $409 $243 $652 $655 forward $418 $-1 #
coedge $-1 $243 $409 $648 $656 reversed $418 $-1 #
loop $-1 $-1 $416 $632 #
vertex $-1 $244 $657 #
vertex $-1 $244 $658 #
straight-curve $-1 282.72347178563797 0 141.36173589281898 0 1 0 I I #
loop $-1 $-1 $659 $156 #
coedge $-1 $423 $423 $248 $424 reversed $245 $-1 #
edge $-1 $660 0 $660 6.2831853071796004 $423 $661 forward 7 unknown #
vertex $-1 $249 $662 #
ellipse-curve $-1 0 0 -2.8153782769249585 0 0 -1 1 0 0 1 I I #
face $-1 $-1 $265 $39 $-1 $663 reversed single #
loop $-1 $-1 $443 $250 #
plane-surface $-1 0 38.269741467672468 0 0 -1 0 0 0 -1 forward_v I I I I #
coedge $-1 $664 $441 $444 $665 forward $251 $-1 #
coedge $-1 $447 $253 $254 $435 reversed $162 $-1 #
coedge $-1 $441 $664 $253 $433 reversed $251 $-1 #
edge $-1 $448 -16.997548828082255 $666 16.997548828082255 $432 $667 forward 7 unknown #
coedge $-1 $255 $254 $664 $668 forward $105 $-1 #
edge $-1 $439 -70.680867946409492 $666 70.680867946409492 $431 $669 forward 7 unknown #
coedge $-1 $444 $443 $255 $437 reversed $428 $-1 #
edge $-1 $670 -70.680867946409492 $438 70.680867946409492 $436 $671 forward 7 unknown #
vertex $-1 $257 $672 #
vertex $-1 $450 $673 #
straight-curve $-1 70.680867946409492 0 -16.997548828082255 0 -1 0 I I #
coedge $-1 $430 $432 $258 $442 reversed $251 $-1 #
edge $-1 $445 -38.269741467672468 $448 38.269741467672468 $441 $674 forward 7 unknown #
coedge $-1 $436 $259 $264 $451 forward $428 $-1 #
coedge $-1 $259 $436 $430 $665 reversed $428 $-1 #
vertex $-1 $260 $675 #
straight-curve $-1 0 38.269741467672468 16.997548828082255 -1 0 0 I I #
coedge $-1 $261 $431 $263 $450 reversed $162 $-1 #
vertex $-1 $442 $676 #
straight-curve $-1 0 -38.269741467672468 16.997548828082255 1 0 0 I I #
edge $-1 $266 -16.997548828082255 $439 16.997548828082255 $263 $677 forward 7 unknown #
edge $-1 $267 -16.997548828082255 $438 16.997548828082255 $264 $678 forward 7 unknown #
point $-1 70.680867946409492 -38.269741467672468 16.997548828082255 #
point $-1 70.680867946409492 38.269741467672468 16.997548828082255 #
face $-1 $-1 $284 $40 $-1 $679 reversed single #
loop $-1 $-1 $470 $269 #
plane-surface $-1 0 6.3507608603502845 0 0 -1 0 0 0 -1 forward_v I I I I #
coedge $-1 $680 $468 $471 $681 forward $270 $-1 #
coedge $-1 $474 $272 $273 $462 reversed $170 $-1 #
coedge $-1 $468 $680 $272 $460 reversed $270 $-1 #
edge $-1 $475 -2.6070308891657157 $682 2.6070308891657157 $459 $683 forward 7 unknown #
coedge $-1 $274 $273 $680 $684 forward $109 $-1 #
edge $-1 $466 -70.680867946409492 $682 70.680867946409492 $458 $685 forward 7 unknown #
coedge $-1 $471 $470 $274 $464 reversed $455 $-1 #
edge $-1 $686 -70.680867946409492 $465 70.680867946409492 $463 $687 forward 7 unknown #
vertex $-1 $276 $688 #
vertex $-1 $477 $689 #
straight-curve $-1 70.680867946409492 0 -2.6070308891657157 0 -1 0 I I #
coedge $-1 $457 $459 $277 $469 reversed $270 $-1 #
edge $-1 $472 -6.3507608603502845 $475 6.3507608603502845 $468 $690 forward 7 unknown #
coedge $-1 $463 $278 $283 $478 forward $455 $-1 #
coedge $-1 $278 $463 $457 $681 reversed $455 $-1 #
vertex $-1 $279 $691 #
straight-curve $-1 0 6.3507608603502845 2.6070308891657157 -1 0 0 I I #
coedge $-1 $280 $458 $282 $477 reversed $170 $-1 #
vertex $-1 $469 $692 #
straight-curve $-1 0 -6.3507608603502845 2.6070308891657157 1 0 0 I I #
edge $-1 $285 -2.6070308891657157 $466 2.6070308891657157 $282 $693 forward 7 unknown #
edge $-1 $286 -2.6070308891657157 $465 2.6070308891657157 $283 $694 forward 7 unknown #
point $-1 70.680867946409492 -6.3507608603502845 2.6070308891657157 #
point $-1 70.680867946409492 6.3507608603502845 2.6070308891657157 #
face $-1 $-1 $303 $41 $-1 $695 reversed single #
loop $-1 $-1 $497 $288 #
plane-surface $-1 0 6.3507608603502845 0 0 -1 0 0 0 -1 forward_v I I I I #
coedge $-1 $696 $495 $498 $697 forward $289 $-1 #
coedge $-1 $501 $291 $292 $489 reversed $178 $-1 #
coedge $-1 $495 $696 $291 $487 reversed $289 $-1 #
edge $-1 $502 -2.6070308891657157 $698 2.6070308891657157 $486 $699 forward 7 unknown #
coedge $-1 $293 $292 $696 $700 forward $113 $-1 #
edge $-1 $493 -70.680867946409492 $698 70.680867946409492 $485 $701 forward 7 unknown #
coedge $-1 $498 $497 $293 $491 reversed $482 $-1 #
edge $-1 $702 -70.680867946409492 $492 70.680867946409492 $490 $703 forward 7 unknown #
vertex $-1 $295 $704 #
vertex $-1 $504 $705 #
straight-curve $-1 70.680867946409492 0 -2.6070308891657157 0 -1 0 I I #
coedge $-1 $484 $486 $296 $496 reversed $289 $-1 #
edge $-1 $499 -6.3507608603502845 $502 6.3507608603502845 $495 $706 forward 7 unknown #
coedge $-1 $490 $297 $302 $505 forward $482 $-1 #
coedge $-1 $297 $490 $484 $697 reversed $482 $-1 #
vertex $-1 $298 $707 #
straight-curve $-1 0 6.3507608603502845 2.6070308891657157 -1 0 0 I I #
coedge $-1 $299 $485 $301 $504 reversed $178 $-1 #
vertex $-1 $496 $708 #
straight-curve $-1 0 -6.3507608603502845 2.6070308891657157 1 0 0 I I #
edge $-1 $304 -2.6070308891657157 $493 2.6070308891657157 $301 $709 forward 7 unknown #
edge $-1 $305 -2.6070308891657157 $492 2.6070308891657157 $302 $710 forward 7 unknown #
point $-1 70.680867946409492 -6.3507608603502845 2.6070308891657157 #
point $-1 70.680867946409492 6.3507608603502845 2.6070308891657157 #
face $-1 $-1 $322 $42 $-1 $711 reversed single #
loop $-1 $-1 $524 $307 #
plane-surface $-1 0 3.2776717754616556 0 0 -1 0 0 0 -1 forward_v I I I I #
coedge $-1 $712 $522 $525 $713 forward $308 $-1 #
coedge $-1 $528 $310 $311 $516 reversed $186 $-1 #
coedge $-1 $522 $712 $310 $514 reversed $308 $-1 #
edge $-1 $529 -141.36173589281898 $714 141.36173589281898 $513 $715 forward 7 unknown #
coedge $-1 $312 $311 $712 $716 forward $117 $-1 #
edge $-1 $520 -282.72347178563797 $714 282.72347178563797 $512 $717 forward 7 unknown #
coedge $-1 $525 $524 $312 $518 reversed $509 $-1 #
edge $-1 $718 -282.72347178563797 $519 282.72347178563797 $517 $719 forward 7 unknown #
vertex $-1 $314 $720 #
vertex $-1 $531 $721 #
straight-curve $-1 282.72347178563797 0 -141.36173589281898 0 -1 0 I I #
coedge $-1 $511 $513 $315 $523 reversed $308 $-1 #
edge $-1 $526 -3.2776717754616556 $529 3.2776717754616556 $522 $722 forward 7 unknown #
coedge $-1 $517 $316 $321 $532 forward $509 $-1 #
coedge $-1 $316 $517 $511 $713 reversed $509 $-1 #
vertex $-1 $317 $723 #
straight-curve $-1 0 3.2776717754616556 141.36173589281898 -1 0 0 I I #
coedge $-1 $318 $512 $320 $531 reversed $186 $-1 #
vertex $-1 $523 $724 #
straight-curve $-1 0 -3.2776717754616556 141.36173589281898 1 0 0 I I #
edge $-1 $323 -141.36173589281898 $520 141.36173589281898 $320 $725 forward 7 unknown #
edge $-1 $324 -141.36173589281898 $519 141.36173589281898 $321 $726 forward 7 unknown #
point $-1 282.72347178563797 -3.2776717754616556 141.36173589281898 #
point $-1 282.72347178563797 3.2776717754616556 141.36173589281898 #
coedge $-1 $535 $535 $-1 $727 reversed $326 $-1 #
vertex $-1 $328 $728 #
ellipse-curve $-1 0 0 -0.5 0 0 -1 1 0 0 1 I I #
point $-1 1 0 -3.6653798028504285 #
face $-1 $-1 $346 $44 $-1 $729 reversed single #
loop $-1 $-1 $555 $331 #
plane-surface $-1 0 3.2776717754616556 0 0 -1 0 0 0 -1 forward_v I I I I #
coedge $-1 $730 $553 $556 $731 forward $332 $-1 #
coedge $-1 $559 $334 $335 $547 reversed $199 $-1 #
coedge $-1 $553 $730 $334 $545 reversed $332 $-1 #
edge $-1 $560 -141.36173589281898 $732 141.36173589281898 $544 $733 forward 7 unknown #
coedge $-1 $336 $335 $730 $734 forward $126 $-1 #
edge $-1 $551 -282.72347178563797 $732 282.72347178563797 $543 $735 forward 7 unknown #
coedge $-1 $556 $555 $336 $549 reversed $540 $-1 #
edge $-1 $736 -282.72347178563797 $550 282.72347178563797 $548 $737 forward 7 unknown #
vertex $-1 $338 $738 #
vertex $-1 $562 $739 #
straight-curve $-1 282.72347178563797 0 -141.36173589281898 0 -1 0 I I #
coedge $-1 $542 $544 $339 $554 reversed $332 $-1 #
edge $-1 $557 -3.2776717754616556 $560 3.2776717754616556 $553 $740 forward 7 unknown #
coedge $-1 $548 $340 $345 $563 forward $540 $-1 #
coedge $-1 $340 $548 $542 $731 reversed $540 $-1 #
vertex $-1 $341 $741 #
straight-curve $-1 0 3.2776717754616556 141.36173589281898 -1 0 0 I I #
coedge $-1 $342 $543 $344 $562 reversed $199 $-1 #
vertex $-1 $554 $742 #
straight-curve $-1 0 -3.2776717754616556 141.36173589281898 1 0 0 I I #
edge $-1 $347 -141.36173589281898 $551 141.36173589281898 $344 $743 forward 7 unknown #
edge $-1 $348 -141.36173589281898 $550 141.36173589281898 $345 $744 forward 7 unknown #
point $-1 282.72347178563797 -3.2776717754616556 141.36173589281898 #
point $-1 282.72347178563797 3.2776717754616556 141.36173589281898 #
coedge $-1 $566 $566 $-1 $745 reversed $350 $-1 #
vertex $-1 $352 $746 #
ellipse-curve $-1 0 0 -0.5 0 0 -1 1 0 0 1 I I #
point $-1 1 0 -3.6653798028504285 #
face $-1 $-1 $370 $46 $-1 $747 reversed single #
loop $-1 $-1 $586 $355 #
plane-surface $-1 0 3.2776717754616556 0 0 -1 0 0 0 -1 forward_v I I I I #
coedge $-1 $748 $584 $587 $749 forward $356 $-1 #
coedge $-1 $590 $358 $359 $578 reversed $212 $-1 #
coedge $-1 $584 $748 $358 $576 reversed $356 $-1 #
edge $-1 $591 -141.36173589281898 $750 141.36173589281898 $575 $751 forward 7 unknown #
coedge $-1 $360 $359 $748 $752 forward $135 $-1 #
edge $-1 $582 -282.72347178563797 $750 282.72347178563797 $574 $753 forward 7 unknown #
coedge $-1 $587 $586 $360 $580 reversed $571 $-1 #
edge $-1 $754 -282.72347178563797 $581 282.72347178563797 $579 $755 forward 7 unknown #
vertex $-1 $362 $756 #
vertex $-1 $593 $757 #
straight-curve $-1 282.72347178563797 0 -141.36173589281898 0 -1 0 I I #
coedge $-1 $573 $575 $363 $585 reversed $356 $-1 #
edge $-1 $588 -3.2776717754616556 $591 3.2776717754616556 $584 $758 forward 7 unknown #
coedge $-1 $579 $364 $369 $594 forward $571 $-1 #
coedge $-1 $364 $579 $573 $749 reversed $571 $-1 #
vertex $-1 $365 $759 #
straight-curve $-1 0 3.2776717754616556 141.36173589281898 -1 0 0 I I #
coedge $-1 $366 $574 $368 $593 reversed $212 $-1 #
vertex $-1 $585 $760 #
straight-curve $-1 0 -3.2776717754616556 141.36173589281898 1 0 0 I I #
edge $-1 $371 -141.36173589281898 $582 141.36173589281898 $368 $761 forward 7 unknown #
edge $-1 $372 -141.36173589281898 $581 141.36173589281898 $369 $762 forward 7 unknown #
point $-1 282.72347178563797 -3.2776717754616556 141.36173589281898 #
point $-1 282.72347178563797 3.2776717754616556 141.36173589281898 #
coedge $-1 $597 $597 $-1 $763 reversed $374 $-1 #
vertex $-1 $376 $764 #
ellipse-curve $-1 0 0 -0.5 0 0 -1 1 0 0 1 I I #
point $-1 1 0 -3.6653798028504285 #
face $-1 $-1 $394 $48 $-1 $765 reversed single #
loop $-1 $-1 $617 $379 #
plane-surface $-1 0 3.2776717754616556 0 0 -1 0 0 0 -1 forward_v I I I I #
coedge $-1 $766 $615 $618 $767 forward $380 $-1 #
coedge $-1 $621 $382 $383 $609 reversed $225 $-1 #
coedge $-1 $615 $766 $382 $607 reversed $380 $-1 #
edge $-1 $622 -141.36173589281898 $768 141.36173589281898 $606 $769 forward 7 unknown #
coedge $-1 $384 $383 $766 $770 forward $144 $-1 #
edge $-1 $613 -282.72347178563797 $768 282.72347178563797 $605 $771 forward 7 unknown #
coedge $-1 $618 $617 $384 $611 reversed $602 $-1 #
edge $-1 $772 -282.72347178563797 $612 282.72347178563797 $610 $773 forward 7 unknown #
vertex $-1 $386 $774 #
vertex $-1 $624 $775 #
straight-curve $-1 282.72347178563797 0 -141.36173589281898 0 -1 0 I I #
coedge $-1 $604 $606 $387 $616 reversed $380 $-1 #
edge $-1 $619 -3.2776717754616556 $622 3.2776717754616556 $615 $776 forward 7 unknown #
coedge $-1 $610 $388 $393 $625 forward $602 $-1 #
coedge $-1 $388 $610 $604 $767 reversed $602 $-1 #
vertex $-1 $389 $777 #
straight-curve $-1 0 3.2776717754616556 141.36173589281898 -1 0 0 I I #
coedge $-1 $390 $605 $392 $624 reversed $225 $-1 #
vertex $-1 $616 $778 #
straight-curve $-1 0 -3.2776717754616556 141.36173589281898 1 0 0 I I #
edge $-1 $395 -141.36173589281898 $613 141.36173589281898 $392 $779 forward 7 unknown #
edge $-1 $396 -141.36173589281898 $612 141.36173589281898 $393 $780 forward 7 unknown #
point $-1 282.72347178563797 -3.2776717754616556 141.36173589281898 #
point $-1 282.72347178563797 3.2776717754616556 141.36173589281898 #
coedge $-1 $628 $628 $-1 $781 reversed $398 $-1 #
vertex $-1 $400 $782 #
ellipse-curve $-1 0 0 -0.5 0 0 -1 1 0 0 1 I I #
point $-1 1 0 -3.6653798028504285 #
face $-1 $-1 $418 $50 $-1 $783 reversed single #
loop $-1 $-1 $648 $403 #
plane-surface $-1 0 4.5824308813521117 0 0 -1 0 0 0 -1 forward_v I I I I #
coedge $-1 $784 $646 $649 $785 forward $404 $-1 #
coedge $-1 $652 $406 $407 $640 reversed $238 $-1 #
coedge $-1 $646 $784 $406 $638 reversed $404 $-1 #
edge $-1 $653 -141.36173589281898 $786 141.36173589281898 $637 $787 forward 7 unknown #
coedge $-1 $408 $407 $784 $788 forward $153 $-1 #
edge $-1 $644 -282.72347178563797 $786 282.72347178563797 $636 $789 forward 7 unknown #
coedge $-1 $649 $648 $408 $642 reversed $633 $-1 #
edge $-1 $790 -282.72347178563797 $643 282.72347178563797 $641 $791 forward 7 unknown #
vertex $-1 $410 $792 #
vertex $-1 $655 $793 #
straight-curve $-1 282.72347178563797 0 -141.36173589281898 0 -1 0 I I #
coedge $-1 $635 $637 $411 $647 reversed $404 $-1 #
edge $-1 $650 -4.5824308813521117 $653 4.5824308813521117 $646 $794 forward 7 unknown #
coedge $-1 $641 $412 $417 $656 forward $633 $-1 #
coedge $-1 $412 $641 $635 $785 reversed $633 $-1 #
vertex $-1 $413 $795 #
straight-curve $-1 0 4.5824308813521117 141.36173589281898 -1 0 0 I I #
coedge $-1 $414 $636 $416 $655 reversed $238 $-1 #
vertex $-1 $647 $796 #
straight-curve $-1 0 -4.5824308813521117 141.36173589281898 1 0 0 I I #
edge $-1 $419 -141.36173589281898 $644 141.36173589281898 $416 $797 forward 7 unknown #
edge $-1 $420 -141.36173589281898 $643 141.36173589281898 $417 $798 forward 7 unknown #
point $-1 282.72347178563797 -4.5824308813521117 141.36173589281898 #
point $-1 282.72347178563797 4.5824308813521117 141.36173589281898 #
coedge $-1 $659 $659 $-1 $799 reversed $422 $-1 #
vertex $-1 $424 $800 #
ellipse-curve $-1 0 0 -0.5 0 0 -1 1 0 0 1 I I #
point $-1 1 0 -2.8153782769249585 #
plane-surface $-1 70.680867946409492 0 0 -1 0 0 0 0 1 forward_v I I I I #
coedge $-1 $432 $430 $434 $668 reversed $251 $-1 #
edge $-1 $445 -16.997548828082255 $670 16.997548828082255 $444 $801 forward 7 unknown #
vertex $-1 $668 $802 #
straight-curve $-1 -70.680867946409492 -38.269741467672468 0 0 0 -1 I I #
edge $-1 $666 -38.269741467672468 $670 38.269741467672468 $664 $803 forward 7 unknown #
straight-curve $-1 0 -38.269741467672468 -16.997548828082255 -1 0 0 I I #
vertex $-1 $437 $804 #
straight-curve $-1 0 38.269741467672468 -16.997548828082255 1 0 0 I I #
point $-1 70.680867946409492 38.269741467672468 -16.997548828082255 #
point $-1 70.680867946409492 -38.269741467672468 -16.997548828082255 #
straight-curve $-1 -70.680867946409492 0 16.997548828082255 0 -1 0 I I #
point $-1 -70.680867946409492 38.269741467672468 16.997548828082255 #
point $-1 -70.680867946409492 -38.269741467672468 16.997548828082255 #
straight-curve $-1 70.680867946409492 -38.269741467672468 0 0 0 -1 I I #
straight-curve $-1 70.680867946409492 38.269741467672468 0 0 0 -1 I I #
plane-surface $-1 70.680867946409492 0 0 -1 0 0 0 0 1 forward_v I I I I #
coedge $-1 $459 $457 $461 $684 reversed $270 $-1 #
edge $-1 $472 -2.6070308891657157 $686 2.6070308891657157 $471 $805 forward 7 unknown #
vertex $-1 $684 $806 #
straight-curve $-1 -70.680867946409492 -6.3507608603502845 0 0 0 -1 I I #
edge $-1 $682 -6.3507608603502845 $686 6.3507608603502845 $680 $807 forward 7 unknown #
straight-curve $-1 0 -6.3507608603502845 -2.6070308891657157 -1 0 0 I I #
vertex $-1 $464 $808 #
straight-curve $-1 0 6.3507608603502845 -2.6070308891657157 1 0 0 I I #
point $-1 70.680867946409492 6.3507608603502845 -2.6070308891657157 #
point $-1 70.680867946409492 -6.3507608603502845 -2.6070308891657157 #
straight-curve $-1 -70.680867946409492 0 2.6070308891657157 0 -1 0 I I #
point $-1 -70.680867946409492 6.3507608603502845 2.6070308891657157 #
point $-1 -70.680867946409492 -6.3507608603502845 2.6070308891657157 #
straight-curve $-1 70.680867946409492 -6.3507608603502845 0 0 0 -1 I I #
straight-curve $-1 70.680867946409492 6.3507608603502845 0 0 0 -1 I I #
plane-surface $-1 70.680867946409492 0 0 -1 0 0 0 0 1 forward_v I I I I #
coedge $-1 $486 $484 $488 $700 reversed $289 $-1 #
edge $-1 $499 -2.6070308891657157 $702 2.6070308891657157 $498 $809 forward 7 unknown #
vertex $-1 $700 $810 #
straight-curve $-1 -70.680867946409492 -6.3507608603502845 0 0 0 -1 I I #
edge $-1 $698 -6.3507608603502845 $702 6.3507608603502845 $696 $811 forward 7 unknown #
straight-curve $-1 0 -6.3507608603502845 -2.6070308891657157 -1 0 0 I I #
vertex $-1 $491 $812 #
straight-curve $-1 0 6.3507608603502845 -2.6070308891657157 1 0 0 I I #
point $-1 70.680867946409492 6.3507608603502845 -2.6070308891657157 #
point $-1 70.680867946409492 -6.3507608603502845 -2.6070308891657157 #
straight-curve $-1 -70.680867946409492 0 2.6070308891657157 0 -1 0 I I #
point $-1 -70.680867946409492 6.3507608603502845 2.6070308891657157 #
point $-1 -70.680867946409492 -6.3507608603502845 2.6070308891657157 #
straight-curve $-1 70.680867946409492 -6.3507608603502845 0 0 0 -1 I I #
straight-curve $-1 70.680867946409492 6.3507608603502845 0 0 0 -1 I I #
plane-surface $-1 282.72347178563797 0 0 -1 0 0 0 0 1 forward_v I I I I #
coedge $-1 $513 $511 $515 $716 reversed $308 $-1 #
edge $-1 $526 -141.36173589281898 $718 141.36173589281898 $525 $813 forward 7 unknown #
vertex $-1 $716 $814 #
straight-curve $-1 -282.72347178563797 -3.2776717754616556 0 0 0 -1 I I #
edge $-1 $714 -3.2776717754616556 $718 3.2776717754616556 $712 $815 forward 7 unknown #
straight-curve $-1 0 -3.2776717754616556 -141.36173589281898 -1 0 0 I I #
vertex $-1 $518 $816 #
straight-curve $-1 0 3.2776717754616556 -141.36173589281898 1 0 0 I I #
point $-1 282.72347178563797 3.2776717754616556 -141.36173589281898 #
point $-1 282.72347178563797 -3.2776717754616556 -141.36173589281898 #
straight-curve $-1 -282.72347178563797 0 141.36173589281898 0 -1 0 I I #
point $-1 -282.72347178563797 3.2776717754616556 141.36173589281898 #
point $-1 -282.72347178563797 -3.2776717754616556 141.36173589281898 #
straight-curve $-1 282.72347178563797 -3.2776717754616556 0 0 0 -1 I I #
straight-curve $-1 282.72347178563797 3.2776717754616556 0 0 0 -1 I I #
edge $-1 $817 1 $817 0 $535 $-1 forward 7 unknown #
point $-1 1 0 -0.5 #
plane-surface $-1 282.72347178563797 0 0 -1 0 0 0 0 1 forward_v I I I I #
coedge $-1 $544 $542 $546 $734 reversed $332 $-1 #
edge $-1 $557 -141.36173589281898 $736 141.36173589281898 $556 $818 forward 7 unknown #
vertex $-1 $734 $819 #
straight-curve $-1 -282.72347178563797 -3.2776717754616556 0 0 0 -1 I I #
edge $-1 $732 -3.2776717754616556 $736 3.2776717754616556 $730 $820 forward 7 unknown #
straight-curve $-1 0 -3.2776717754616556 -141.36173589281898 -1 0 0 I I #
vertex $-1 $549 $821 #
straight-curve $-1 0 3.2776717754616556 -141.36173589281898 1 0 0 I I #
point $-1 282.72347178563797 3.2776717754616556 -141.36173589281898 #
point $-1 282.72347178563797 -3.2776717754616556 -141.36173589281898 #
straight-curve $-1 -282.72347178563797 0 141.36173589281898 0 -1 0 I I #
point $-1 -282.72347178563797 3.2776717754616556 141.36173589281898 #
point $-1 -282.72347178563797 -3.2776717754616556 141.36173589281898 #
straight-curve $-1 282.72347178563797 -3.2776717754616556 0 0 0 -1 I I #
straight-curve $-1 282.72347178563797 3.2776717754616556 0 0 0 -1 I I #
edge $-1 $822 1 $822 0 $566 $-1 forward 7 unknown #
point $-1 1 0 -0.5 #
plane-surface $-1 282.72347178563797 0 0 -1 0 0 0 0 1 forward_v I I I I #
coedge $-1 $575 $573 $577 $752 reversed $356 $-1 #
edge $-1 $588 -141.36173589281898 $754 141.36173589281898 $587 $823 forward 7 unknown #
vertex $-1 $752 $824 #
straight-curve $-1 -282.72347178563797 -3.2776717754616556 0 0 0 -1 I I #
edge $-1 $750 -3.2776717754616556 $754 3.2776717754616556 $748 $825 forward 7 unknown #
straight-curve $-1 0 -3.2776717754616556 -141.36173589281898 -1 0 0 I I #
vertex $-1 $580 $826 #
straight-curve $-1 0 3.2776717754616556 -141.36173589281898 1 0 0 I I #
point $-1 282.72347178563797 3.2776717754616556 -141.36173589281898 #
point $-1 282.72347178563797 -3.2776717754616556 -141.36173589281898 #
straight-curve $-1 -282.72347178563797 0 141.36173589281898 0 -1 0 I I #
point $-1 -282.72347178563797 3.2776717754616556 141.36173589281898 #
point $-1 -282.72347178563797 -3.2776717754616556 141.36173589281898 #
straight-curve $-1 282.72347178563797 -3.2776717754616556 0 0 0 -1 I I #
straight-curve $-1 282.72347178563797 3.2776717754616556 0 0 0 -1 I I #
edge $-1 $827 1 $827 0 $597 $-1 forward 7 unknown #
point $-1 1 0 -0.5 #
plane-surface $-1 282.72347178563797 0 0 -1 0 0 0 0 1 forward_v I I I I #
coedge $-1 $606 $604 $608 $770 reversed $380 $-1 #
edge $-1 $619 -141.36173589281898 $772 141.36173589281898 $618 $828 forward 7 unknown #
vertex $-1 $770 $829 #
straight-curve $-1 -282.72347178563797 -3.2776717754616556 0 0 0 -1 I I #
edge $-1 $768 -3.2776717754616556 $772 3.2776717754616556 $766 $830 forward 7 unknown #
straight-curve $-1 0 -3.2776717754616556 -141.36173589281898 -1 0 0 I I #
vertex $-1 $611 $831 #
straight-curve $-1 0 3.2776717754616556 -141.36173589281898 1 0 0 I I #
point $-1 282.72347178563797 3.2776717754616556 -141.36173589281898 #
point $-1 282.72347178563797 -3.2776717754616556 -141.36173589281898 #
straight-curve $-1 -282.72347178563797 0 141.36173589281898 0 -1 0 I I #
point $-1 -282.72347178563797 3.2776717754616556 141.36173589281898 #
point $-1 -282.72347178563797 -3.2776717754616556 141.36173589281898 #
straight-curve $-1 282.72347178563797 -3.2776717754616556 0 0 0 -1 I I #
straight-curve $-1 282.72347178563797 3.2776717754616556 0 0 0 -1 I I #
edge $-1 $832 1 $832 0 $628 $-1 forward 7 unknown #
point $-1 1 0 -0.5 #
plane-surface $-1 282.72347178563797 0 0 -1 0 0 0 0 1 forward_v I I I I #
coedge $-1 $637 $635 $639 $788 reversed $404 $-1 #
edge $-1 $650 -141.36173589281898 $790 141.36173589281898 $649 $833 forward 7 unknown #
vertex $-1 $788 $834 #
straight-curve $-1 -282.72347178563797 -4.5824308813521117 0 0 0 -1 I I #
edge $-1 $786 -4.5824308813521117 $790 4.5824308813521117 $784 $835 forward 7 unknown #
straight-curve $-1 0 -4.5824308813521117 -141.36173589281898 -1 0 0 I I #
vertex $-1 $642 $836 #
straight-curve $-1 0 4.5824308813521117 -141.36173589281898 1 0 0 I I #
point $-1 282.72347178563797 4.5824308813521117 -141.36173589281898 #
point $-1 282.72347178563797 -4.5824308813521117 -141.36173589281898 #
straight-curve $-1 -282.72347178563797 0 141.36173589281898 0 -1 0 I I #
point $-1 -282.72347178563797 4.5824308813521117 141.36173589281898 #
point $-1 -282.72347178563797 -4.5824308813521117 141.36173589281898 #
straight-curve $-1 282.72347178563797 -4.5824308813521117 0 0 0 -1 I I #
straight-curve $-1 282.72347178563797 4.5824308813521117 0 0 0 -1 I I #
edge $-1 $837 1 $837 0 $659 $-1 forward 7 unknown #
point $-1 1 0 -0.5 #
straight-curve $-1 -70.680867946409492 38.269741467672468 0 0 0 -1 I I #
point $-1 -70.680867946409492 -38.269741467672468 -16.997548828082255 #
straight-curve $-1 -70.680867946409492 0 -16.997548828082255 0 1 0 I I #
point $-1 -70.680867946409492 38.269741467672468 -16.997548828082255 #
straight-curve $-1 -70.680867946409492 6.3507608603502845 0 0 0 -1 I I #
point $-1 -70.680867946409492 -6.3507608603502845 -2.6070308891657157 #
straight-curve $-1 -70.680867946409492 0 -2.6070308891657157 0 1 0 I I #
point $-1 -70.680867946409492 6.3507608603502845 -2.6070308891657157 #
straight-curve $-1 -70.680867946409492 6.3507608603502845 0 0 0 -1 I I #
point $-1 -70.680867946409492 -6.3507608603502845 -2.6070308891657157 #
straight-curve $-1 -70.680867946409492 0 -2.6070308891657157 0 1 0 I I #
point $-1 -70.680867946409492 6.3507608603502845 -2.6070308891657157 #
straight-curve $-1 -282.72347178563797 3.2776717754616556 0 0 0 -1 I I #
point $-1 -282.72347178563797 -3.2776717754616556 -141.36173589281898 #
straight-curve $-1 -282.72347178563797 0 -141.36173589281898 0 1 0 I I #
point $-1 -282.72347178563797 3.2776717754616556 -141.36173589281898 #
vertex $-1 $727 $838 #
straight-curve $-1 -282.72347178563797 3.2776717754616556 0 0 0 -1 I I #
point $-1 -282.72347178563797 -3.2776717754616556 -141.36173589281898 #
straight-curve $-1 -282.72347178563797 0 -141.36173589281898 0 1 0 I I #
point $-1 -282.72347178563797 3.2776717754616556 -141.36173589281898 #
vertex $-1 $745 $839 #
straight-curve $-1 -282.72347178563797 3.2776717754616556 0 0 0 -1 I I #
point $-1 -282.72347178563797 -3.2776717754616556 -141.36173589281898 #
straight-curve $-1 -282.72347178563797 0 -141.36173589281898 0 1 0 I I #
point $-1 -282.72347178563797 3.2776717754616556 -141.36173589281898 #
vertex $-1 $763 $840 #
straight-curve $-1 -282.72347178563797 3.2776717754616556 0 0 0 -1 I I #
point $-1 -282.72347178563797 -3.2776717754616556 -141.36173589281898 #
straight-curve $-1 -282.72347178563797 0 -141.36173589281898 0 1 0 I I #
point $-1 -282.72347178563797 3.2776717754616556 -141.36173589281898 #
vertex $-1 $781 $841 #
straight-curve $-1 -282.72347178563797 4.5824308813521117 0 0 0 -1 I I #
point $-1 -282.72347178563797 -4.5824308813521117 -141.36173589281898 #
straight-curve $-1 -282.72347178563797 0 -141.36173589281898 0 1 0 I I #
point $-1 -282.72347178563797 4.5824308813521117 -141.36173589281898 #
vertex $-1 $799 $842 #
point $-1 0 0 0.5 #
point $-1 0 0 0.5 #
point $-1 0 0 0.5 #
point $-1 0 0 0.5 #
point $-1 0 0 0.5 #
End-of-ACIS-data 