500 0 21 0           
7 Unknown 11 ACIS 5.0 NT 24 Thu Mar 25 17:05:51 1999 
-1 9.9999999999999995e-007 1e-010 
body $-1 $21 $-1 $22 #
body $-1 $23 $-1 $24 #
body $-1 $25 $-1 $26 #
body $-1 $27 $-1 $28 #
body $-1 $29 $-1 $30 #
body $-1 $31 $-1 $32 #
body $-1 $33 $-1 $34 #
body $-1 $35 $-1 $36 #
body $-1 $37 $-1 $38 #
body $-1 $39 $-1 $40 #
body $-1 $41 $-1 $42 #
body $-1 $43 $-1 $44 #
body $-1 $45 $-1 $46 #
body $-1 $47 $-1 $48 #
body $-1 $49 $-1 $50 #
body $-1 $51 $-1 $52 #
body $-1 $53 $-1 $54 #
body $-1 $55 $-1 $56 #
body $-1 $57 $-1 $58 #
body $-1 $59 $-1 $60 #
body $-1 $61 $-1 $62 #
lump $-1 $-1 $63 $0 #
transform $-1 1 0 0 0 1 0 0 0 1 42.364574114200259 26.662388495756375 10.126776628470301 1 rotate no_reflect no_shear #
lump $-1 $-1 $64 $1 #
transform $-1 1 0 0 0 1 0 0 0 1 42.364574114200259 26.662388495756375 10.126776628470301 1 rotate no_reflect no_shear #
lump $-1 $-1 $65 $2 #
transform $-1 1 0 0 0 1 0 0 0 1 42.364574114200259 26.662388495756375 10.126776628470301 1 rotate no_reflect no_shear #
lump $-1 $-1 $66 $3 #
transform $-1 1 0 0 0 1 0 0 0 1 42.364574114200259 26.662388495756375 10.126776628470301 1 rotate no_reflect no_shear #
lump $-1 $-1 $67 $4 #
transform $-1 1 0 0 0 1 0 0 0 1 42.364574114200259 26.662388495756375 10.126776628470301 1 rotate no_reflect no_shear #
lump $-1 $-1 $68 $5 #
transform $-1 1 0 0 0 1 0 0 0 1 42.364574114200259 26.662388495756375 10.126776628470301 1 rotate no_reflect no_shear #
lump $-1 $-1 $69 $6 #
transform $-1 1 0 0 0 1 0 0 0 1 42.364574114200259 26.662388495756375 10.126776628470301 1 rotate no_reflect no_shear #
lump $-1 $-1 $70 $7 #
transform $-1 1 0 0 0 1 0 0 0 1 42.364574114200259 26.662388495756375 10.126776628470301 1 rotate no_reflect no_shear #
lump $-1 $-1 $71 $8 #
transform $-1 1 0 0 0 1 0 0 0 1 42.364574114200259 26.662388495756375 10.126776628470301 1 rotate no_reflect no_shear #
lump $-1 $-1 $72 $9 #
transform $-1 1 0 0 0 1 0 0 0 1 42.364574114200259 26.662388495756375 10.126776628470301 1 rotate no_reflect no_shear #
lump $-1 $-1 $73 $10 #
transform $-1 1 0 0 0 1 0 0 0 1 42.364574114200259 26.662388495756375 10.126776628470301 1 rotate no_reflect no_shear #
lump $-1 $-1 $74 $11 #
transform $-1 1 0 0 0 1 0 0 0 1 42.364574114200259 26.662388495756375 10.126776628470301 1 rotate no_reflect no_shear #
lump $-1 $-1 $75 $12 #
transform $-1 1 0 0 0 1 0 0 0 1 42.364574114200259 26.662388495756375 10.126776628470301 1 rotate no_reflect no_shear #
lump $-1 $-1 $76 $13 #
transform $-1 1 0 0 0 1 0 0 0 1 42.364574114200259 26.662388495756375 10.126776628470301 1 rotate no_reflect no_shear #
lump $-1 $-1 $77 $14 #
transform $-1 1 0 0 0 1 0 0 0 1 42.364574114200259 26.662388495756375 10.126776628470301 1 rotate no_reflect no_shear #
lump $-1 $-1 $78 $15 #
transform $-1 1 0 0 0 1 0 0 0 1 42.364574114200259 26.662388495756375 10.126776628470301 1 rotate no_reflect no_shear #
lump $-1 $-1 $79 $16 #
transform $-1 1 0 0 0 1 0 0 0 1 42.364574114200259 26.662388495756375 10.126776628470301 1 rotate no_reflect no_shear #
lump $-1 $-1 $80 $17 #
transform $-1 1 0 0 0 1 0 0 0 1 42.364574114200259 26.662388495756375 10.126776628470301 1 rotate no_reflect no_shear #
lump $-1 $-1 $81 $18 #
transform $-1 1 0 0 0 1 0 0 0 1 42.364574114200259 26.662388495756375 10.126776628470301 1 rotate no_reflect no_shear #
lump $-1 $-1 $82 $19 #
transform $-1 1 0 0 0 1 0 0 0 1 42.364574114200259 26.662388495756375 10.126776628470301 1 rotate no_reflect no_shear #
lump $-1 $-1 $83 $20 #
transform $-1 1 0 0 0 1 0 0 0 1 42.364574114200259 26.662388495756375 10.126776628470301 1 rotate no_reflect no_shear #
shell $-1 $-1 $-1 $84 $-1 $21 #
shell $-1 $-1 $-1 $85 $-1 $23 #
shell $-1 $-1 $-1 $86 $-1 $25 #
shell $-1 $-1 $-1 $87 $-1 $27 #
shell $-1 $-1 $-1 $88 $-1 $29 #
shell $-1 $-1 $-1 $89 $-1 $31 #
shell $-1 $-1 $-1 $90 $-1 $33 #
shell $-1 $-1 $-1 $91 $-1 $35 #
shell $-1 $-1 $-1 $92 $-1 $37 #
shell $-1 $-1 $-1 $93 $-1 $39 #
shell $-1 $-1 $-1 $94 $-1 $41 #
shell $-1 $-1 $-1 $95 $-1 $43 #
shell $-1 $-1 $-1 $96 $-1 $45 #
shell $-1 $-1 $-1 $97 $-1 $47 #
shell $-1 $-1 $-1 $98 $-1 $49 #
shell $-1 $-1 $-1 $99 $-1 $51 #
shell $-1 $-1 $-1 $100 $-1 $53 #
shell $-1 $-1 $-1 $101 $-1 $55 #
shell $-1 $-1 $-1 $102 $-1 $57 #
shell $-1 $-1 $-1 $103 $-1 $59 #
shell $-1 $-1 $-1 $104 $-1 $61 #
face $-1 $105 $106 $63 $-1 $107 forward single #
face $-1 $108 $109 $64 $-1 $110 reversed single #
face $-1 $111 $112 $65 $-1 $113 reversed single #
face $-1 $114 $115 $66 $-1 $116 forward single #
face $-1 $117 $118 $67 $-1 $119 forward single #
face $-1 $120 $121 $68 $-1 $122 forward single #
face $-1 $123 $124 $69 $-1 $125 reversed single #
face $-1 $126 $127 $70 $-1 $128 forward single #
face $-1 $129 $130 $71 $-1 $131 forward single #
face $-1 $132 $133 $72 $-1 $134 forward single #
face $-1 $135 $136 $73 $-1 $137 reversed single #
face $-1 $138 $139 $74 $-1 $140 forward single #
face $-1 $141 $142 $75 $-1 $143 forward single #
face $-1 $144 $145 $76 $-1 $146 forward single #
face $-1 $147 $148 $77 $-1 $149 reversed single #
face $-1 $150 $151 $78 $-1 $152 forward single #
face $-1 $153 $154 $79 $-1 $155 forward single #
face $-1 $156 $157 $80 $-1 $158 forward single #
face $-1 $159 $160 $81 $-1 $161 reversed single #
face $-1 $162 $163 $82 $-1 $164 forward single #
face $-1 $165 $166 $83 $-1 $167 forward single #
face $-1 $168 $169 $63 $-1 $170 reversed single #
loop $-1 $-1 $171 $84 #
plane-surface $-1 0 0 10.126776628470301 0 0 1 1 0 0 forward_v I I I I #
face $-1 $172 $173 $64 $-1 $174 reversed single #
loop $-1 $-1 $175 $85 #
plane-surface $-1 -36.801442183643722 0 7.1115827400251561 0 0 1 1 0 0 forward_v I I I I #
face $-1 $176 $177 $65 $-1 $178 reversed single #
loop $-1 $-1 $179 $86 #
plane-surface $-1 -26.322868747154988 -6.167621814864745 47.021008457350177 0 0.78801076186113728 0.61566146476048833 1 0 0 forward_v I I I I #
face $-1 $180 $181 $66 $-1 $182 forward single #
loop $-1 $183 $184 $87 #
cone-surface $-1 -29.272133650714309 24.265844075672117 7.2558127389513931 0 -0.78801076186113728 -0.61566146476048833 0.5 0 0 1 I I 0 1 0.5 forward I I I I #
face $-1 $185 $186 $67 $-1 $187 forward single #
loop $-1 $188 $189 $88 #
cone-surface $-1 -26.322868747154985 24.265844075672117 7.2558127389513931 0 -0.78801076186113728 -0.61566146476048833 0.5 0 0 1 I I 0 1 0.5 forward I I I I #
face $-1 $190 $191 $68 $-1 $192 forward single #
loop $-1 $193 $194 $89 #
cone-surface $-1 -23.37360384359566 24.265844075672117 7.2558127389513931 0 -0.78801076186113728 -0.61566146476048833 0.5 0 0 1 I I 0 1 0.5 forward I I I I #
face $-1 $195 $196 $69 $-1 $197 reversed single #
loop $-1 $-1 $198 $90 #
plane-surface $-1 -12.837589161265331 60.599858832442379 99.185479963555778 1 0 0 0 -0.78801076186113728 -0.61566146476048833 forward_v I I I I #
face $-1 $199 $200 $70 $-1 $201 forward single #
loop $-1 $202 $203 $91 #
cone-surface $-1 -10.871412558892448 24.265844075672117 7.2558127389513931 0 -0.78801076186113728 -0.61566146476048833 0.5 0 0 1 I I 0 1 0.5 forward I I I I #
face $-1 $204 $205 $71 $-1 $206 forward single #
loop $-1 $207 $208 $92 #
cone-surface $-1 -7.9221476553331271 24.265844075672117 7.2558127389513931 0 -0.78801076186113728 -0.61566146476048833 0.5 0 0 1 I I 0 1 0.5 forward I I I I #
face $-1 $209 $210 $72 $-1 $211 forward single #
loop $-1 $212 $213 $93 #
cone-surface $-1 -4.9728827517738026 24.265844075672117 7.2558127389513931 0 -0.78801076186113728 -0.61566146476048833 0.5 0 0 1 I I 0 1 0.5 forward I I I I #
face $-1 $214 $215 $73 $-1 $216 reversed single #
loop $-1 $-1 $217 $94 #
plane-surface $-1 5.5631319305565343 60.599858832442379 99.185479963555778 1 0 0 0 -0.78801076186113728 -0.61566146476048833 forward_v I I I I #
face $-1 $218 $219 $74 $-1 $220 forward single #
loop $-1 $221 $222 $95 #
cone-surface $-1 7.5293085329294129 24.265844075672117 7.2558127389513931 0 -0.78801076186113728 -0.61566146476048833 0.5 0 0 1 I I 0 1 0.5 forward I I I I #
face $-1 $223 $224 $75 $-1 $225 forward single #
loop $-1 $226 $227 $96 #
cone-surface $-1 10.478573436488738 24.265844075672117 7.2558127389513931 0 -0.78801076186113728 -0.61566146476048833 0.5 0 0 1 I I 0 1 0.5 forward I I I I #
face $-1 $228 $229 $76 $-1 $230 forward single #
loop $-1 $231 $232 $97 #
cone-surface $-1 13.427838340048062 24.265844075672117 7.2558127389513931 0 -0.78801076186113728 -0.61566146476048833 0.5 0 0 1 I I 0 1 0.5 forward I I I I #
face $-1 $233 $234 $77 $-1 $235 reversed single #
loop $-1 $-1 $236 $98 #
plane-surface $-1 23.963853022378398 60.599858832442379 99.185479963555778 1 0 0 0 -0.78801076186113728 -0.61566146476048833 forward_v I I I I #
face $-1 $237 $238 $78 $-1 $239 forward single #
loop $-1 $240 $241 $99 #
cone-surface $-1 25.930029624751278 24.265844075672117 7.2558127389513931 0 -0.78801076186113728 -0.61566146476048833 0.5 0 0 1 I I 0 1 0.5 forward I I I I #
face $-1 $242 $243 $79 $-1 $244 forward single #
loop $-1 $245 $246 $100 #
cone-surface $-1 28.879294528310602 24.265844075672117 7.2558127389513931 0 -0.78801076186113728 -0.61566146476048833 0.5 0 0 1 I I 0 1 0.5 forward I I I I #
face $-1 $247 $248 $80 $-1 $249 forward single #
loop $-1 $250 $251 $101 #
cone-surface $-1 31.828559431869927 24.265844075672117 7.2558127389513931 0 -0.78801076186113728 -0.61566146476048833 0.5 0 0 1 I I 0 1 0.5 forward I I I I #
face $-1 $252 $253 $81 $-1 $254 reversed single #
loop $-1 $-1 $255 $102 #
plane-surface $-1 24.671319492766013 -97.722232040200538 49.300747684030341 -1 0 0 0 -0.83867057594974714 0.54463902268945019 forward_v I I I I #
face $-1 $256 $257 $82 $-1 $258 forward single #
loop $-1 $259 $260 $103 #
cone-surface $-1 11.984979002034805 -23.358558869474944 5.9651562943760688 0 0.83867057594974714 -0.54463902268945019 1.5 0 0 1 I I 0 1 1.5 forward I I I I #
face $-1 $261 $262 $83 $-1 $263 forward single #
loop $-1 $264 $265 $104 #
cone-surface $-1 19.596783296473525 -23.358558869474944 5.9651562943760688 0 0.83867057594974714 -0.54463902268945019 1.5 0 0 1 I I 0 1 1.5 forward I I I I #
face $-1 $266 $267 $63 $-1 $268 reversed single #
loop $-1 $-1 $269 $105 #
plane-surface $-1 0 0 -10.126776628470301 0 0 1 1 0 0 forward_v I I I I #
coedge $-1 $270 $271 $272 $273 forward $106 $-1 #
face $-1 $274 $275 $64 $-1 $276 reversed single #
loop $-1 $-1 $277 $108 #
plane-surface $-1 -31.238310253087189 0 8.6191796842477277 -1 0 0 0 0 1 forward_v I I I I #
coedge $-1 $278 $279 $280 $281 forward $109 $-1 #
face $-1 $282 $283 $65 $-1 $284 forward single #
loop $-1 $-1 $285 $111 #
plane-surface $-1 -21.407427241222784 60.599858832442379 99.185479963555778 -1 0 0 0 0.78801076186113728 0.61566146476048833 forward_v I I I I #
coedge $-1 $286 $287 $288 $289 reversed $112 $-1 #
face $-1 $-1 $290 $66 $-1 $291 forward single #
loop $-1 $292 $293 $114 #
cone-surface $-1 -29.272133650714309 23.674836004276266 6.7940666403810273 0 -0.78801076186113728 -0.61566146476048833 0.25 0 0 1 I I -0.70710678118654746 0.70710678118654746 0.25 forward I I I I #
loop $-1 $-1 $294 $87 #
coedge $-1 $184 $184 $295 $296 reversed $115 $-1 #
face $-1 $-1 $297 $67 $-1 $298 forward single #
loop $-1 $299 $300 $117 #
cone-surface $-1 -26.322868747154985 23.674836004276266 6.7940666403810273 0 -0.78801076186113728 -0.61566146476048833 0.25 0 0 1 I I -0.70710678118654746 0.70710678118654746 0.25 forward I I I I #
loop $-1 $-1 $301 $88 #
coedge $-1 $189 $189 $302 $303 reversed $118 $-1 #
face $-1 $-1 $304 $68 $-1 $305 forward single #
loop $-1 $306 $307 $120 #
cone-surface $-1 -23.37360384359566 23.674836004276266 6.7940666403810273 0 -0.78801076186113728 -0.61566146476048833 0.25 0 0 1 I I -0.70710678118654746 0.70710678118654746 0.25 forward I I I I #
loop $-1 $-1 $308 $89 #
coedge $-1 $194 $194 $309 $310 reversed $121 $-1 #
face $-1 $311 $312 $69 $-1 $313 reversed single #
loop $-1 $-1 $314 $123 #
plane-surface $-1 -7.9221476553331271 -6.167621814864745 47.021008457350177 0 0.78801076186113728 0.61566146476048833 1 0 0 forward_v I I I I #
coedge $-1 $315 $316 $317 $318 reversed $124 $-1 #
face $-1 $-1 $319 $70 $-1 $320 forward single #
loop $-1 $321 $322 $126 #
cone-surface $-1 -10.871412558892448 23.674836004276266 6.7940666403810273 0 -0.78801076186113728 -0.61566146476048833 0.25 0 0 1 I I -0.70710678118654746 0.70710678118654746 0.25 forward I I I I #
loop $-1 $-1 $323 $91 #
coedge $-1 $203 $203 $324 $325 reversed $127 $-1 #
face $-1 $-1 $326 $71 $-1 $327 forward single #
loop $-1 $328 $329 $129 #
cone-surface $-1 -7.9221476553331271 23.674836004276266 6.7940666403810273 0 -0.78801076186113728 -0.61566146476048833 0.25 0 0 1 I I -0.70710678118654746 0.70710678118654746 0.25 forward I I I I #
loop $-1 $-1 $330 $92 #
coedge $-1 $208 $208 $331 $332 reversed $130 $-1 #
face $-1 $-1 $333 $72 $-1 $334 forward single #
loop $-1 $335 $336 $132 #
cone-surface $-1 -4.9728827517738026 23.674836004276266 6.7940666403810273 0 -0.78801076186113728 -0.61566146476048833 0.25 0 0 1 I I -0.70710678118654746 0.70710678118654746 0.25 forward I I I I #
loop $-1 $-1 $337 $93 #
coedge $-1 $213 $213 $338 $339 reversed $133 $-1 #
face $-1 $340 $341 $73 $-1 $342 reversed single #
loop $-1 $-1 $343 $135 #
plane-surface $-1 10.478573436488738 -6.167621814864745 47.021008457350177 0 0.78801076186113728 0.61566146476048833 1 0 0 forward_v I I I I #
coedge $-1 $344 $345 $346 $347 reversed $136 $-1 #
face $-1 $-1 $348 $74 $-1 $349 forward single #
loop $-1 $350 $351 $138 #
cone-surface $-1 7.5293085329294129 23.674836004276266 6.7940666403810273 0 -0.78801076186113728 -0.61566146476048833 0.25 0 0 1 I I -0.70710678118654746 0.70710678118654746 0.25 forward I I I I #
loop $-1 $-1 $352 $95 #
coedge $-1 $222 $222 $353 $354 reversed $139 $-1 #
face $-1 $-1 $355 $75 $-1 $356 forward single #
loop $-1 $357 $358 $141 #
cone-surface $-1 10.478573436488738 23.674836004276266 6.7940666403810273 0 -0.78801076186113728 -0.61566146476048833 0.25 0 0 1 I I -0.70710678118654746 0.70710678118654746 0.25 forward I I I I #
loop $-1 $-1 $359 $96 #
coedge $-1 $227 $227 $360 $361 reversed $142 $-1 #
face $-1 $-1 $362 $76 $-1 $363 forward single #
loop $-1 $364 $365 $144 #
cone-surface $-1 13.427838340048062 23.674836004276266 6.7940666403810273 0 -0.78801076186113728 -0.61566146476048833 0.25 0 0 1 I I -0.70710678118654746 0.70710678118654746 0.25 forward I I I I #
loop $-1 $-1 $366 $97 #
coedge $-1 $232 $232 $367 $368 reversed $145 $-1 #
face $-1 $369 $370 $77 $-1 $371 reversed single #
loop $-1 $-1 $372 $147 #
plane-surface $-1 28.879294528310602 -6.167621814864745 47.021008457350177 0 0.78801076186113728 0.61566146476048833 1 0 0 forward_v I I I I #
coedge $-1 $373 $374 $375 $376 reversed $148 $-1 #
face $-1 $-1 $377 $78 $-1 $378 forward single #
loop $-1 $379 $380 $150 #
cone-surface $-1 25.930029624751278 23.674836004276266 6.7940666403810273 0 -0.78801076186113728 -0.61566146476048833 0.25 0 0 1 I I -0.70710678118654746 0.70710678118654746 0.25 forward I I I I #
loop $-1 $-1 $381 $99 #
coedge $-1 $241 $241 $382 $383 reversed $151 $-1 #
face $-1 $-1 $384 $79 $-1 $385 forward single #
loop $-1 $386 $387 $153 #
cone-surface $-1 28.879294528310602 23.674836004276266 6.7940666403810273 0 -0.78801076186113728 -0.61566146476048833 0.25 0 0 1 I I -0.70710678118654746 0.70710678118654746 0.25 forward I I I I #
loop $-1 $-1 $388 $100 #
coedge $-1 $246 $246 $389 $390 reversed $154 $-1 #
face $-1 $-1 $391 $80 $-1 $392 forward single #
loop $-1 $393 $394 $156 #
cone-surface $-1 31.828559431869927 23.674836004276266 6.7940666403810273 0 -0.78801076186113728 -0.61566146476048833 0.25 0 0 1 I I -0.70710678118654746 0.70710678118654746 0.25 forward I I I I #
loop $-1 $-1 $395 $101 #
coedge $-1 $251 $251 $396 $397 reversed $157 $-1 #
face $-1 $398 $399 $81 $-1 $400 reversed single #
loop $-1 $-1 $401 $159 #
plane-surface $-1 15.790881149254169 -26.662388495756375 3.1539471996047226 0 -0.83867057594974714 0.54463902268945019 1 0 0 forward_v I I I I #
coedge $-1 $402 $403 $404 $405 reversed $160 $-1 #
face $-1 $-1 $406 $82 $-1 $407 forward single #
loop $-1 $408 $409 $162 #
cone-surface $-1 11.984979002034805 -21.689830426972314 4.8814714076975374 0 0.83867057594974714 -0.54463902268945019 0.75 0 0 1 I I -0.70710678118654757 0.70710678118654757 0.75 forward I I I I #
loop $-1 $-1 $410 $103 #
coedge $-1 $260 $260 $411 $412 reversed $163 $-1 #
face $-1 $-1 $413 $83 $-1 $414 forward single #
loop $-1 $415 $416 $165 #
cone-surface $-1 19.596783296473525 -21.689830426972314 4.8814714076975374 0 0.83867057594974714 -0.54463902268945019 0.75 0 0 1 I I -0.70710678118654757 0.70710678118654757 0.75 forward I I I I #
loop $-1 $-1 $417 $104 #
coedge $-1 $265 $265 $418 $419 reversed $166 $-1 #
face $-1 $420 $421 $63 $-1 $422 reversed single #
loop $-1 $-1 $423 $168 #
plane-surface $-1 0 -26.662388495756375 0 0 1 0 0 0 1 forward_v I I I I #
coedge $-1 $424 $425 $426 $427 forward $169 $-1 #
coedge $-1 $428 $171 $429 $430 forward $106 $-1 #
coedge $-1 $171 $428 $431 $432 forward $106 $-1 #
coedge $-1 $433 $434 $171 $273 reversed $435 $-1 #
edge $-1 $436 -26.662388495756375 $437 26.662388495756375 $272 $438 forward 7 unknown #
face $-1 $439 $440 $64 $-1 $441 reversed single #
loop $-1 $-1 $442 $172 #
plane-surface $-1 0 26.662388495756375 0 0 -1 0 0 0 -1 forward_v I I I I #
coedge $-1 $280 $443 $444 $445 reversed $173 $-1 #
coedge $-1 $446 $175 $447 $448 reversed $109 $-1 #
coedge $-1 $175 $446 $449 $450 reversed $109 $-1 #
coedge $-1 $451 $277 $175 $281 reversed $173 $-1 #
edge $-1 $452 -26.662388495756375 $453 26.662388495756375 $280 $454 forward 7 unknown #
face $-1 $455 $456 $65 $-1 $457 reversed single #
loop $-1 $-1 $288 $176 #
plane-surface $-1 0 0 10.126776628470301 0 0 1 1 0 0 forward_v I I I I #
coedge $-1 $458 $459 $460 $461 reversed $177 $-1 #
coedge $-1 $462 $179 $463 $464 reversed $112 $-1 #
coedge $-1 $179 $462 $458 $465 forward $112 $-1 #
coedge $-1 $460 $466 $179 $289 forward $283 $-1 #
edge $-1 $467 -18.076875879509693 $468 -8.24599286764529 $288 $469 forward 7 unknown #
loop $-1 $-1 $295 $180 #
plane-surface $-1 -26.322868747154988 -6.167621814864745 47.021008457350177 0 0.78801076186113728 0.61566146476048833 1 0 0 forward_v I I I I #
loop $-1 $-1 $470 $114 #
coedge $-1 $293 $293 $294 $471 reversed $181 $-1 #
coedge $-1 $294 $294 $293 $471 forward $183 $-1 #
coedge $-1 $295 $295 $184 $296 forward $290 $-1 #
edge $-1 $472 -1.7501340976945918e-015 $472 6.2831853071795987 $295 $473 forward 7 unknown #
loop $-1 $-1 $302 $185 #
plane-surface $-1 -26.322868747154988 -6.167621814864745 47.021008457350177 0 0.78801076186113728 0.61566146476048833 1 0 0 forward_v I I I I #
loop $-1 $-1 $474 $117 #
coedge $-1 $300 $300 $301 $475 reversed $186 $-1 #
coedge $-1 $301 $301 $300 $475 forward $188 $-1 #
coedge $-1 $302 $302 $189 $303 forward $297 $-1 #
edge $-1 $476 -1.7501340976945918e-015 $476 6.2831853071795987 $302 $477 forward 7 unknown #
loop $-1 $-1 $309 $190 #
plane-surface $-1 -26.322868747154988 -6.167621814864745 47.021008457350177 0 0.78801076186113728 0.61566146476048833 1 0 0 forward_v I I I I #
loop $-1 $-1 $478 $120 #
coedge $-1 $307 $307 $308 $479 reversed $191 $-1 #
coedge $-1 $308 $308 $307 $479 forward $193 $-1 #
coedge $-1 $309 $309 $194 $310 forward $304 $-1 #
edge $-1 $480 -1.7501340976945918e-015 $480 6.2831853071795987 $309 $481 forward 7 unknown #
face $-1 $482 $483 $69 $-1 $484 forward single #
loop $-1 $-1 $485 $195 #
plane-surface $-1 -3.006706149400924 60.599858832442379 99.185479963555778 -1 0 0 0 0.78801076186113728 0.61566146476048833 forward_v I I I I #
coedge $-1 $486 $487 $488 $489 reversed $196 $-1 #
coedge $-1 $316 $198 $490 $491 reversed $124 $-1 #
coedge $-1 $198 $315 $486 $492 reversed $124 $-1 #
coedge $-1 $488 $493 $198 $318 forward $483 $-1 #
edge $-1 $494 3.637540920464815 $495 7.6426189987721784 $317 $496 forward 7 unknown #
loop $-1 $-1 $324 $199 #
plane-surface $-1 -7.9221476553331271 -6.167621814864745 47.021008457350177 0 0.78801076186113728 0.61566146476048833 1 0 0 forward_v I I I I #
loop $-1 $-1 $497 $126 #
coedge $-1 $322 $322 $323 $498 reversed $200 $-1 #
coedge $-1 $323 $323 $322 $498 forward $202 $-1 #
coedge $-1 $324 $324 $203 $325 forward $319 $-1 #
edge $-1 $499 -1.7501340976945918e-015 $499 6.2831853071795987 $324 $500 forward 7 unknown #
loop $-1 $-1 $331 $204 #
plane-surface $-1 -7.9221476553331271 -6.167621814864745 47.021008457350177 0 0.78801076186113728 0.61566146476048833 1 0 0 forward_v I I I I #
loop $-1 $-1 $501 $129 #
coedge $-1 $329 $329 $330 $502 reversed $205 $-1 #
coedge $-1 $330 $330 $329 $502 forward $207 $-1 #
coedge $-1 $331 $331 $208 $332 forward $326 $-1 #
edge $-1 $503 -1.7501340976945918e-015 $503 6.2831853071795987 $331 $504 forward 7 unknown #
loop $-1 $-1 $338 $209 #
plane-surface $-1 -7.9221476553331271 -6.167621814864745 47.021008457350177 0 0.78801076186113728 0.61566146476048833 1 0 0 forward_v I I I I #
loop $-1 $-1 $505 $132 #
coedge $-1 $336 $336 $337 $506 reversed $210 $-1 #
coedge $-1 $337 $337 $336 $506 forward $212 $-1 #
coedge $-1 $338 $338 $213 $339 forward $333 $-1 #
edge $-1 $507 -1.7501340976945918e-015 $507 6.2831853071795987 $338 $508 forward 7 unknown #
face $-1 $509 $510 $73 $-1 $511 forward single #
loop $-1 $-1 $512 $214 #
plane-surface $-1 15.394014942420942 60.599858832442379 99.185479963555778 -1 0 0 0 0.78801076186113728 0.61566146476048833 forward_v I I I I #
coedge $-1 $513 $514 $515 $516 reversed $215 $-1 #
coedge $-1 $345 $217 $517 $518 reversed $136 $-1 #
coedge $-1 $217 $344 $513 $519 reversed $136 $-1 #
coedge $-1 $515 $520 $217 $347 forward $510 $-1 #
edge $-1 $521 3.637540920464815 $522 7.6426189987721784 $346 $523 forward 7 unknown #
loop $-1 $-1 $353 $218 #
plane-surface $-1 10.478573436488738 -6.167621814864745 47.021008457350177 0 0.78801076186113728 0.61566146476048833 1 0 0 forward_v I I I I #
loop $-1 $-1 $524 $138 #
coedge $-1 $351 $351 $352 $525 reversed $219 $-1 #
coedge $-1 $352 $352 $351 $525 forward $221 $-1 #
coedge $-1 $353 $353 $222 $354 forward $348 $-1 #
edge $-1 $526 -1.7501340976945918e-015 $526 6.2831853071795987 $353 $527 forward 7 unknown #
loop $-1 $-1 $360 $223 #
plane-surface $-1 10.478573436488738 -6.167621814864745 47.021008457350177 0 0.78801076186113728 0.61566146476048833 1 0 0 forward_v I I I I #
loop $-1 $-1 $528 $141 #
coedge $-1 $358 $358 $359 $529 reversed $224 $-1 #
coedge $-1 $359 $359 $358 $529 forward $226 $-1 #
coedge $-1 $360 $360 $227 $361 forward $355 $-1 #
edge $-1 $530 -1.7501340976945918e-015 $530 6.2831853071795987 $360 $531 forward 7 unknown #
loop $-1 $-1 $367 $228 #
plane-surface $-1 10.478573436488738 -6.167621814864745 47.021008457350177 0 0.78801076186113728 0.61566146476048833 1 0 0 forward_v I I I I #
loop $-1 $-1 $532 $144 #
coedge $-1 $365 $365 $366 $533 reversed $229 $-1 #
coedge $-1 $366 $366 $365 $533 forward $231 $-1 #
coedge $-1 $367 $367 $232 $368 forward $362 $-1 #
edge $-1 $534 -1.7501340976945918e-015 $534 6.2831853071795987 $367 $535 forward 7 unknown #
face $-1 $536 $537 $77 $-1 $538 forward single #
loop $-1 $-1 $539 $233 #
plane-surface $-1 33.794736034242803 60.599858832442379 99.185479963555778 -1 0 0 0 0.78801076186113728 0.61566146476048833 forward_v I I I I #
coedge $-1 $540 $541 $542 $543 reversed $234 $-1 #
coedge $-1 $374 $236 $544 $545 reversed $148 $-1 #
coedge $-1 $236 $373 $540 $546 reversed $148 $-1 #
coedge $-1 $542 $547 $236 $376 forward $537 $-1 #
edge $-1 $548 3.637540920464815 $549 7.6426189987721784 $375 $550 forward 7 unknown #
loop $-1 $-1 $382 $237 #
plane-surface $-1 28.879294528310602 -6.167621814864745 47.021008457350177 0 0.78801076186113728 0.61566146476048833 1 0 0 forward_v I I I I #
loop $-1 $-1 $551 $150 #
coedge $-1 $380 $380 $381 $552 reversed $238 $-1 #
coedge $-1 $381 $381 $380 $552 forward $240 $-1 #
coedge $-1 $382 $382 $241 $383 forward $377 $-1 #
edge $-1 $553 -1.7501340976945918e-015 $553 6.2831853071795987 $382 $554 forward 7 unknown #
loop $-1 $-1 $389 $242 #
plane-surface $-1 28.879294528310602 -6.167621814864745 47.021008457350177 0 0.78801076186113728 0.61566146476048833 1 0 0 forward_v I I I I #
loop $-1 $-1 $555 $153 #
coedge $-1 $387 $387 $388 $556 reversed $243 $-1 #
coedge $-1 $388 $388 $387 $556 forward $245 $-1 #
coedge $-1 $389 $389 $246 $390 forward $384 $-1 #
edge $-1 $557 -1.7501340976945918e-015 $557 6.2831853071795987 $389 $558 forward 7 unknown #
loop $-1 $-1 $396 $247 #
plane-surface $-1 28.879294528310602 -6.167621814864745 47.021008457350177 0 0.78801076186113728 0.61566146476048833 1 0 0 forward_v I I I I #
loop $-1 $-1 $559 $156 #
coedge $-1 $394 $394 $395 $560 reversed $248 $-1 #
coedge $-1 $395 $395 $394 $560 forward $250 $-1 #
coedge $-1 $396 $396 $251 $397 forward $391 $-1 #
edge $-1 $561 -1.7501340976945918e-015 $561 6.2831853071795987 $396 $562 forward 7 unknown #
face $-1 $563 $564 $81 $-1 $565 reversed single #
loop $-1 $-1 $566 $252 #
plane-surface $-1 6.9104428057423242 -97.722232040200538 49.300747684030341 1 0 0 0 0.83867057594974714 -0.54463902268945019 forward_v I I I I #
coedge $-1 $567 $568 $569 $570 reversed $253 $-1 #
coedge $-1 $403 $255 $571 $572 reversed $160 $-1 #
coedge $-1 $255 $402 $567 $573 reversed $160 $-1 #
coedge $-1 $569 $574 $255 $405 forward $575 $-1 #
edge $-1 $576 22.198727524343894 $577 26.726935755826123 $404 $578 forward 7 unknown #
loop $-1 $-1 $411 $256 #
plane-surface $-1 15.790881149254169 -26.662388495756375 3.1539471996047226 0 -0.83867057594974714 0.54463902268945019 1 0 0 forward_v I I I I #
loop $-1 $-1 $579 $162 #
coedge $-1 $409 $409 $410 $580 reversed $257 $-1 #
coedge $-1 $410 $410 $409 $580 forward $259 $-1 #
coedge $-1 $411 $411 $260 $412 forward $406 $-1 #
edge $-1 $581 9.9318547572805383e-016 $581 6.2831853071796013 $411 $582 forward 7 unknown #
loop $-1 $-1 $418 $261 #
plane-surface $-1 15.790881149254169 -26.662388495756375 3.1539471996047226 0 -0.83867057594974714 0.54463902268945019 1 0 0 forward_v I I I I #
loop $-1 $-1 $583 $165 #
coedge $-1 $416 $416 $417 $584 reversed $262 $-1 #
coedge $-1 $417 $417 $416 $584 forward $264 $-1 #
coedge $-1 $418 $418 $265 $419 forward $413 $-1 #
edge $-1 $585 9.9318547572805383e-016 $585 6.2831853071796013 $418 $586 forward 7 unknown #
face $-1 $587 $588 $63 $-1 $589 reversed single #
loop $-1 $-1 $590 $266 #
plane-surface $-1 -42.364574114200259 0 0 1 0 0 0 0 -1 forward_v I I I I #
coedge $-1 $591 $431 $592 $593 forward $267 $-1 #
coedge $-1 $594 $269 $591 $595 forward $169 $-1 #
coedge $-1 $269 $594 $596 $597 forward $169 $-1 #
coedge $-1 $434 $433 $269 $427 reversed $435 $-1 #
edge $-1 $598 -26.662388495756375 $599 26.662388495756375 $426 $600 forward 7 unknown #
coedge $-1 $271 $270 $601 $602 forward $106 $-1 #
coedge $-1 $603 $604 $270 $430 reversed $588 $-1 #
edge $-1 $437 -42.364574114200259 $605 42.364574114200259 $429 $606 forward 7 unknown #
coedge $-1 $423 $607 $271 $432 reversed $267 $-1 #
edge $-1 $608 -42.364574114200259 $436 42.364574114200259 $431 $609 forward 7 unknown #
coedge $-1 $426 $272 $607 $610 forward $435 $-1 #
coedge $-1 $272 $426 $603 $611 reversed $435 $-1 #
loop $-1 $-1 $433 $587 #
vertex $-1 $273 $612 #
vertex $-1 $273 $613 #
straight-curve $-1 42.364574114200259 0 10.126776628470301 0 1 0 I I #
face $-1 $614 $615 $64 $-1 $616 forward single #
loop $-1 $-1 $617 $274 #
plane-surface $-1 -42.364574114200259 0 0 1 0 0 0 0 -1 forward_v I I I I #
coedge $-1 $449 $618 $451 $619 forward $275 $-1 #
coedge $-1 $277 $451 $620 $621 reversed $173 $-1 #
coedge $-1 $622 $447 $277 $445 forward $623 $-1 #
edge $-1 $453 2.8019928979012922 $624 5.8171867863464355 $444 $625 forward 7 unknown #
coedge $-1 $279 $278 $617 $626 reversed $109 $-1 #
coedge $-1 $444 $627 $278 $448 forward $623 $-1 #
edge $-1 $628 -23.963853022378398 $453 -12.837589161265328 $447 $629 forward 7 unknown #
coedge $-1 $630 $442 $279 $450 forward $275 $-1 #
edge $-1 $452 12.837589161265328 $631 23.963853022378398 $449 $632 forward 7 unknown #
coedge $-1 $443 $280 $442 $619 reversed $173 $-1 #
vertex $-1 $450 $633 #
vertex $-1 $448 $634 #
straight-curve $-1 -31.238310253087189 0 7.1115827400251561 0 -1 0 I I #
face $-1 $-1 $635 $65 $-1 $636 forward single #
loop $-1 $-1 $637 $282 #
plane-surface $-1 0 26.662388495756375 0 0 -1 0 0 0 -1 forward_v I I I I #
coedge $-1 $459 $285 $287 $465 reversed $177 $-1 #
coedge $-1 $285 $458 $637 $638 reversed $177 $-1 #
coedge $-1 $639 $288 $285 $461 forward $283 $-1 #
edge $-1 $468 -7.6426189987721784 $640 -3.637540920464815 $460 $641 forward 7 unknown #
coedge $-1 $287 $286 $642 $643 reversed $112 $-1 #
coedge $-1 $644 $645 $286 $464 forward $635 $-1 #
edge $-1 $646 -36.295666277021851 $467 -29.790341017034265 $463 $647 forward 7 unknown #
edge $-1 $648 -53.324776991512735 $468 -46.819451731525149 $458 $649 forward 7 unknown #
coedge $-1 $288 $639 $644 $650 forward $283 $-1 #
vertex $-1 $464 $651 #
vertex $-1 $289 $652 #
straight-curve $-1 -13.161434373577494 22.657310417449011 10.126776628470303 1 0 0 I I #
coedge $-1 $470 $470 $-1 $653 reversed $292 $-1 #
edge $-1 $654 0 $654 6.2831853071796004 $293 $655 forward 7 unknown #
vertex $-1 $296 $656 #
ellipse-curve $-1 -29.272133650714309 24.659849456602693 7.5636434713316421 0 0.78801076186113728 0.61566146476048833 0.5 0 0 1 I I #
coedge $-1 $474 $474 $-1 $657 reversed $299 $-1 #
edge $-1 $658 0 $658 6.2831853071796004 $300 $659 forward 7 unknown #
vertex $-1 $303 $660 #
ellipse-curve $-1 -26.322868747154985 24.659849456602693 7.5636434713316421 0 0.78801076186113728 0.61566146476048833 0.5 0 0 1 I I #
coedge $-1 $478 $478 $-1 $661 reversed $306 $-1 #
edge $-1 $662 0 $662 6.2831853071796004 $307 $663 forward 7 unknown #
vertex $-1 $310 $664 #
ellipse-curve $-1 -23.37360384359566 24.659849456602693 7.5636434713316421 0 0.78801076186113728 0.61566146476048833 0.5 0 0 1 I I #
face $-1 $-1 $665 $69 $-1 $666 reversed single #
loop $-1 $-1 $317 $311 #
plane-surface $-1 0 0 10.126776628470301 0 0 1 1 0 0 forward_v I I I I #
coedge $-1 $667 $668 $669 $670 reversed $312 $-1 #
coedge $-1 $671 $314 $316 $492 forward $196 $-1 #
coedge $-1 $314 $671 $667 $672 forward $196 $-1 #
coedge $-1 $669 $317 $314 $489 forward $483 $-1 #
edge $-1 $495 -8.8765153335987677 $673 0.95436767826563962 $488 $674 forward 7 unknown #
coedge $-1 $675 $676 $315 $491 forward $665 $-1 #
edge $-1 $677 -44.59222966758491 $494 -39.465963353307586 $490 $678 forward 7 unknown #
edge $-1 $495 46.819451731525149 $677 53.324776991512735 $316 $679 forward 7 unknown #
coedge $-1 $317 $669 $675 $680 forward $483 $-1 #
vertex $-1 $318 $681 #
vertex $-1 $318 $682 #
straight-curve $-1 -12.837589161265331 30.29992941622119 10.126776628470303 0 -1 0 I I #
coedge $-1 $497 $497 $-1 $683 reversed $321 $-1 #
edge $-1 $684 0 $684 6.2831853071796004 $322 $685 forward 7 unknown #
vertex $-1 $325 $686 #
ellipse-curve $-1 -10.871412558892448 24.659849456602693 7.5636434713316421 0 0.78801076186113728 0.61566146476048833 0.5 0 0 1 I I #
coedge $-1 $501 $501 $-1 $687 reversed $328 $-1 #
edge $-1 $688 0 $688 6.2831853071796004 $329 $689 forward 7 unknown #
vertex $-1 $332 $690 #
ellipse-curve $-1 -7.9221476553331271 24.659849456602693 7.5636434713316421 0 0.78801076186113728 0.61566146476048833 0.5 0 0 1 I I #
coedge $-1 $505 $505 $-1 $691 reversed $335 $-1 #
edge $-1 $692 0 $692 6.2831853071796004 $336 $693 forward 7 unknown #
vertex $-1 $339 $694 #
ellipse-curve $-1 -4.9728827517738026 24.659849456602693 7.5636434713316421 0 0.78801076186113728 0.61566146476048833 0.5 0 0 1 I I #
face $-1 $-1 $695 $73 $-1 $696 reversed single #
loop $-1 $-1 $346 $340 #
plane-surface $-1 0 0 10.126776628470301 0 0 1 1 0 0 forward_v I I I I #
coedge $-1 $697 $698 $699 $700 reversed $341 $-1 #
coedge $-1 $701 $343 $345 $519 forward $215 $-1 #
coedge $-1 $343 $701 $697 $702 forward $215 $-1 #
coedge $-1 $699 $346 $343 $516 forward $510 $-1 #
edge $-1 $522 0.32384521231216556 $703 10.154728224176573 $515 $704 forward 7 unknown #
coedge $-1 $705 $706 $344 $518 forward $695 $-1 #
edge $-1 $707 -44.59222966758491 $521 -39.465963353307586 $517 $708 forward 7 unknown #
edge $-1 $522 46.819451731525149 $707 53.324776991512735 $345 $709 forward 7 unknown #
coedge $-1 $346 $699 $705 $710 forward $510 $-1 #
vertex $-1 $347 $711 #
vertex $-1 $347 $712 #
straight-curve $-1 5.5631319305565343 30.29992941622119 10.126776628470303 0 -1 0 I I #
coedge $-1 $524 $524 $-1 $713 reversed $350 $-1 #
edge $-1 $714 0 $714 6.2831853071796004 $351 $715 forward 7 unknown #
vertex $-1 $354 $716 #
ellipse-curve $-1 7.5293085329294129 24.659849456602693 7.5636434713316421 0 0.78801076186113728 0.61566146476048833 0.5 0 0 1 I I #
coedge $-1 $528 $528 $-1 $717 reversed $357 $-1 #
edge $-1 $718 0 $718 6.2831853071796004 $358 $719 forward 7 unknown #
vertex $-1 $361 $720 #
ellipse-curve $-1 10.478573436488738 24.659849456602693 7.5636434713316421 0 0.78801076186113728 0.61566146476048833 0.5 0 0 1 I I #
coedge $-1 $532 $532 $-1 $721 reversed $364 $-1 #
edge $-1 $722 0 $722 6.2831853071796004 $365 $723 forward 7 unknown #
vertex $-1 $368 $724 #
ellipse-curve $-1 13.427838340048062 24.659849456602693 7.5636434713316421 0 0.78801076186113728 0.61566146476048833 0.5 0 0 1 I I #
face $-1 $-1 $725 $77 $-1 $726 reversed single #
loop $-1 $-1 $375 $369 #
plane-surface $-1 0 0 10.126776628470301 0 0 1 1 0 0 forward_v I I I I #
coedge $-1 $727 $728 $729 $730 reversed $370 $-1 #
coedge $-1 $731 $372 $374 $546 forward $234 $-1 #
coedge $-1 $372 $731 $727 $732 forward $234 $-1 #
coedge $-1 $729 $375 $372 $543 forward $537 $-1 #
edge $-1 $549 9.524205758223097 $733 19.355088770087502 $542 $734 forward 7 unknown #
coedge $-1 $735 $736 $373 $545 forward $725 $-1 #
edge $-1 $737 -44.59222966758491 $548 -39.465963353307586 $544 $738 forward 7 unknown #
edge $-1 $549 46.819451731525149 $737 53.324776991512735 $374 $739 forward 7 unknown #
coedge $-1 $375 $729 $735 $740 forward $537 $-1 #
vertex $-1 $376 $741 #
vertex $-1 $376 $742 #
straight-curve $-1 23.963853022378398 30.29992941622119 10.126776628470303 0 -1 0 I I #
coedge $-1 $551 $551 $-1 $743 reversed $379 $-1 #
edge $-1 $744 0 $744 6.2831853071796004 $380 $745 forward 7 unknown #
vertex $-1 $383 $746 #
ellipse-curve $-1 25.930029624751278 24.659849456602693 7.5636434713316421 0 0.78801076186113728 0.61566146476048833 0.5 0 0 1 I I #
coedge $-1 $555 $555 $-1 $747 reversed $386 $-1 #
edge $-1 $748 0 $748 6.2831853071796004 $387 $749 forward 7 unknown #
vertex $-1 $390 $750 #
ellipse-curve $-1 28.879294528310602 24.659849456602693 7.5636434713316421 0 0.78801076186113728 0.61566146476048833 0.5 0 0 1 I I #
coedge $-1 $559 $559 $-1 $751 reversed $393 $-1 #
edge $-1 $752 0 $752 6.2831853071796004 $394 $753 forward 7 unknown #
vertex $-1 $397 $754 #
ellipse-curve $-1 31.828559431869927 24.659849456602693 7.5636434713316421 0 0.78801076186113728 0.61566146476048833 0.5 0 0 1 I I #
face $-1 $-1 $575 $81 $-1 $755 forward single #
loop $-1 $-1 $756 $398 #
plane-surface $-1 0 -26.662388495756375 0 0 1 0 0 0 1 forward_v I I I I #
coedge $-1 $757 $758 $759 $760 reversed $399 $-1 #
coedge $-1 $761 $401 $403 $573 forward $253 $-1 #
coedge $-1 $401 $761 $757 $762 forward $253 $-1 #
coedge $-1 $759 $404 $401 $570 forward $575 $-1 #
edge $-1 $577 -16.775878918138929 $763 0.98499776888476021 $569 $764 forward 7 unknown #
coedge $-1 $765 $766 $402 $572 forward $564 $-1 #
edge $-1 $767 -21.496426642410448 $576 -14.523597213544869 $571 $768 forward 7 unknown #
edge $-1 $577 -8.3141457788348454 $767 0 $403 $769 forward 7 unknown #
coedge $-1 $404 $759 $765 $770 forward $575 $-1 #
loop $-1 $-1 $759 $563 #
vertex $-1 $572 $771 #
vertex $-1 $405 $772 #
straight-curve $-1 24.671319492766013 -48.861116020100269 10.126776628470299 0 1 0 I I #
coedge $-1 $579 $579 $-1 $773 reversed $408 $-1 #
edge $-1 $774 0 $774 6.2831853071796004 $409 $775 forward 7 unknown #
vertex $-1 $412 $776 #
ellipse-curve $-1 11.984979002034805 -24.398284380015262 6.640361914037511 0 -0.83867057594974714 0.54463902268945019 1.5 0 0 1 I I #
coedge $-1 $583 $583 $-1 $777 reversed $415 $-1 #
edge $-1 $778 0 $778 6.2831853071796004 $416 $779 forward 7 unknown #
vertex $-1 $419 $780 #
ellipse-curve $-1 19.596783296473525 -24.398284380015262 6.640361914037511 0 -0.83867057594974714 0.54463902268945019 1.5 0 0 1 I I #
face $-1 $-1 $435 $63 $-1 $781 reversed single #
loop $-1 $-1 $603 $420 #
plane-surface $-1 0 26.662388495756375 0 0 -1 0 0 0 -1 forward_v I I I I #
coedge $-1 $782 $601 $604 $783 forward $421 $-1 #
coedge $-1 $607 $423 $424 $595 reversed $267 $-1 #
coedge $-1 $601 $782 $423 $593 reversed $421 $-1 #
edge $-1 $608 -10.126776628470301 $784 10.126776628470301 $592 $785 forward 7 unknown #
coedge $-1 $425 $424 $782 $786 forward $169 $-1 #
edge $-1 $599 -42.364574114200259 $784 42.364574114200259 $591 $787 forward 7 unknown #
coedge $-1 $604 $603 $425 $597 reversed $588 $-1 #
edge $-1 $788 -42.364574114200259 $598 42.364574114200259 $596 $789 forward 7 unknown #
vertex $-1 $427 $790 #
vertex $-1 $610 $791 #
straight-curve $-1 42.364574114200259 0 -10.126776628470301 0 -1 0 I I #
coedge $-1 $590 $592 $428 $602 reversed $421 $-1 #
edge $-1 $605 -26.662388495756375 $608 26.662388495756375 $601 $792 forward 7 unknown #
coedge $-1 $596 $429 $434 $611 forward $588 $-1 #
coedge $-1 $429 $596 $590 $783 reversed $588 $-1 #
vertex $-1 $430 $793 #
straight-curve $-1 0 26.662388495756375 10.126776628470301 -1 0 0 I I #
coedge $-1 $431 $591 $433 $610 reversed $267 $-1 #
vertex $-1 $602 $794 #
straight-curve $-1 0 -26.662388495756375 10.126776628470301 1 0 0 I I #
edge $-1 $436 -10.126776628470301 $599 10.126776628470301 $433 $795 forward 7 unknown #
edge $-1 $437 -10.126776628470301 $598 10.126776628470301 $434 $796 forward 7 unknown #
point $-1 42.364574114200259 -26.662388495756375 10.126776628470301 #
point $-1 42.364574114200259 26.662388495756375 10.126776628470301 #
face $-1 $-1 $623 $64 $-1 $797 reversed single #
loop $-1 $-1 $620 $439 #
plane-surface $-1 0 0 10.126776628470301 0 0 1 1 0 0 forward_v I I I I #
coedge $-1 $798 $799 $446 $626 forward $440 $-1 #
coedge $-1 $442 $630 $800 $801 reversed $275 $-1 #
edge $-1 $802 -5.8171867863464355 $452 -2.8019928979012922 $442 $803 forward 7 unknown #
coedge $-1 $800 $804 $443 $621 forward $615 $-1 #
edge $-1 $624 -26.662388495756375 $802 26.662388495756375 $620 $805 forward 7 unknown #
coedge $-1 $627 $444 $804 $806 reversed $623 $-1 #
loop $-1 $-1 $444 $614 #
vertex $-1 $445 $807 #
straight-curve $-1 -31.238310253087189 -26.662388495756375 4.3095898421238639 0 0 1 I I #
edge $-1 $631 -26.662388495756375 $628 26.662388495756375 $617 $808 forward 7 unknown #
coedge $-1 $447 $622 $798 $809 forward $623 $-1 #
vertex $-1 $626 $810 #
straight-curve $-1 -18.400721091821861 -26.662388495756375 7.1115827400251561 1 0 0 I I #
coedge $-1 $618 $449 $799 $811 reversed $275 $-1 #
vertex $-1 $626 $812 #
straight-curve $-1 -18.400721091821861 26.662388495756375 7.1115827400251561 -1 0 0 I I #
point $-1 -31.238310253087189 26.662388495756375 7.1115827400251561 #
point $-1 -31.238310253087189 -26.662388495756375 7.1115827400251561 #
loop $-1 $-1 $463 $455 #
plane-surface $-1 -31.238310253087189 0 8.6191796842477277 -1 0 0 0 0 1 forward_v I I I I #
coedge $-1 $642 $813 $459 $638 forward $456 $-1 #
edge $-1 $640 39.465963353307586 $648 44.59222966758491 $637 $814 forward 7 unknown #
coedge $-1 $466 $460 $813 $815 forward $283 $-1 #
vertex $-1 $815 $816 #
straight-curve $-1 -21.407427241222784 30.29992941622119 10.126776628470303 0 1 0 I I #
coedge $-1 $817 $637 $462 $643 forward $456 $-1 #
edge $-1 $648 8.24599286764529 $646 18.0768758795097 $642 $818 forward 7 unknown #
coedge $-1 $645 $463 $466 $650 reversed $635 $-1 #
coedge $-1 $463 $644 $817 $819 reversed $635 $-1 #
vertex $-1 $819 $820 #
straight-curve $-1 -31.238310253087189 4.316545431187242 33.601885949406558 0 -0.61566146476048833 0.78801076186113728 I I #
vertex $-1 $643 $821 #
straight-curve $-1 -21.407427241222784 -6.167621814864745 47.021008457350177 0 -0.61566146476048833 0.78801076186113728 I I #
edge $-1 $822 -26.662388495756375 $467 -22.657310417449015 $466 $823 forward 7 unknown #
point $-1 -31.238310253087189 22.657310417449015 10.126776628470301 #
point $-1 -21.407427241222784 22.657310417449011 10.126776628470303 #
edge $-1 $824 1 $824 0 $470 $-1 forward 7 unknown #
vertex $-1 $471 $825 #
ellipse-curve $-1 -29.272133650714309 23.871838694741548 6.9479820065711495 0 0.78801076186113728 0.61566146476048833 0.5 0 0 1 I I #
point $-1 -28.772133650714309 24.659849456602686 7.5636434713316376 #
edge $-1 $826 1 $826 0 $474 $-1 forward 7 unknown #
vertex $-1 $475 $827 #
ellipse-curve $-1 -26.322868747154985 23.871838694741548 6.9479820065711495 0 0.78801076186113728 0.61566146476048833 0.5 0 0 1 I I #
point $-1 -25.822868747154985 24.659849456602686 7.5636434713316376 #
edge $-1 $828 1 $828 0 $478 $-1 forward 7 unknown #
vertex $-1 $479 $829 #
ellipse-curve $-1 -23.37360384359566 23.871838694741548 6.9479820065711495 0 0.78801076186113728 0.61566146476048833 0.5 0 0 1 I I #
point $-1 -22.87360384359566 24.659849456602686 7.5636434713316376 #
loop $-1 $-1 $490 $482 #
plane-surface $-1 0 26.662388495756375 0 0 -1 0 0 0 -1 forward_v I I I I #
coedge $-1 $668 $485 $487 $672 reversed $312 $-1 #
coedge $-1 $485 $667 $830 $831 reversed $312 $-1 #
coedge $-1 $493 $488 $485 $670 forward $483 $-1 #
edge $-1 $673 -7.6426189987721784 $832 -3.637540920464815 $669 $833 forward 7 unknown #
coedge $-1 $487 $486 $676 $834 reversed $196 $-1 #
edge $-1 $835 -53.324776991512735 $673 -46.819451731525149 $667 $836 forward 7 unknown #
vertex $-1 $489 $837 #
straight-curve $-1 -3.9610738276665636 22.657310417449011 10.126776628470303 1 0 0 I I #
coedge $-1 $830 $490 $493 $680 reversed $665 $-1 #
coedge $-1 $490 $830 $671 $834 forward $665 $-1 #
vertex $-1 $491 $838 #
straight-curve $-1 -12.837589161265331 26.662388495756375 49.592739981777889 0 0 1 I I #
straight-curve $-1 -12.837589161265331 -6.167621814864745 47.021008457350177 0 0.61566146476048833 -0.78801076186113728 I I #
edge $-1 $832 3.006706149400924 $494 12.837589161265331 $675 $839 forward 7 unknown #
point $-1 -12.837589161265331 26.662388495756375 10.126776628470301 #
point $-1 -12.837589161265331 22.657310417449011 10.126776628470303 #
edge $-1 $840 1 $840 0 $497 $-1 forward 7 unknown #
vertex $-1 $498 $841 #
ellipse-curve $-1 -10.871412558892448 23.871838694741548 6.9479820065711495 0 0.78801076186113728 0.61566146476048833 0.5 0 0 1 I I #
point $-1 -10.371412558892448 24.659849456602686 7.5636434713316376 #
edge $-1 $842 1 $842 0 $501 $-1 forward 7 unknown #
vertex $-1 $502 $843 #
ellipse-curve $-1 -7.9221476553331271 23.871838694741548 6.9479820065711495 0 0.78801076186113728 0.61566146476048833 0.5 0 0 1 I I #
point $-1 -7.4221476553331271 24.659849456602686 7.5636434713316376 #
edge $-1 $844 1 $844 0 $505 $-1 forward 7 unknown #
vertex $-1 $506 $845 #
ellipse-curve $-1 -4.9728827517738026 23.871838694741548 6.9479820065711495 0 0.78801076186113728 0.61566146476048833 0.5 0 0 1 I I #
point $-1 -4.4728827517738026 24.659849456602686 7.5636434713316376 #
loop $-1 $-1 $517 $509 #
plane-surface $-1 0 26.662388495756375 0 0 -1 0 0 0 -1 forward_v I I I I #
coedge $-1 $698 $512 $514 $702 reversed $341 $-1 #
coedge $-1 $512 $697 $846 $847 reversed $341 $-1 #
coedge $-1 $520 $515 $512 $700 forward $510 $-1 #
edge $-1 $703 -7.6426189987721784 $848 -3.637540920464815 $699 $849 forward 7 unknown #
coedge $-1 $514 $513 $706 $850 reversed $215 $-1 #
edge $-1 $851 -53.324776991512735 $703 -46.819451731525149 $697 $852 forward 7 unknown #
vertex $-1 $516 $853 #
straight-curve $-1 5.2392867182443688 22.657310417449011 10.126776628470303 1 0 0 I I #
coedge $-1 $846 $517 $520 $710 reversed $695 $-1 #
coedge $-1 $517 $846 $701 $850 forward $695 $-1 #
vertex $-1 $518 $854 #
straight-curve $-1 5.5631319305565343 26.662388495756375 49.592739981777889 0 0 1 I I #
straight-curve $-1 5.5631319305565343 -6.167621814864745 47.021008457350177 0 0.61566146476048833 -0.78801076186113728 I I #
edge $-1 $848 -15.394014942420942 $521 -5.5631319305565343 $705 $855 forward 7 unknown #
point $-1 5.5631319305565343 26.662388495756375 10.126776628470301 #
point $-1 5.5631319305565343 22.657310417449011 10.126776628470303 #
edge $-1 $856 1 $856 0 $524 $-1 forward 7 unknown #
vertex $-1 $525 $857 #
ellipse-curve $-1 7.5293085329294129 23.871838694741548 6.9479820065711495 0 0.78801076186113728 0.61566146476048833 0.5 0 0 1 I I #
point $-1 8.0293085329294129 24.659849456602686 7.5636434713316376 #
edge $-1 $858 1 $858 0 $528 $-1 forward 7 unknown #
vertex $-1 $529 $859 #
ellipse-curve $-1 10.478573436488738 23.871838694741548 6.9479820065711495 0 0.78801076186113728 0.61566146476048833 0.5 0 0 1 I I #
point $-1 10.978573436488738 24.659849456602686 7.5636434713316376 #
edge $-1 $860 1 $860 0 $532 $-1 forward 7 unknown #
vertex $-1 $533 $861 #
ellipse-curve $-1 13.427838340048062 23.871838694741548 6.9479820065711495 0 0.78801076186113728 0.61566146476048833 0.5 0 0 1 I I #
point $-1 13.927838340048062 24.659849456602686 7.5636434713316376 #
loop $-1 $-1 $544 $536 #
plane-surface $-1 0 26.662388495756375 0 0 -1 0 0 0 -1 forward_v I I I I #
coedge $-1 $728 $539 $541 $732 reversed $370 $-1 #
coedge $-1 $539 $727 $862 $863 reversed $370 $-1 #
coedge $-1 $547 $542 $539 $730 forward $537 $-1 #
edge $-1 $733 -7.6426189987721784 $864 -3.637540920464815 $729 $865 forward 7 unknown #
coedge $-1 $541 $540 $736 $866 reversed $234 $-1 #
edge $-1 $867 -53.324776991512735 $733 -46.819451731525149 $727 $868 forward 7 unknown #
vertex $-1 $543 $869 #
straight-curve $-1 14.439647264155301 22.657310417449011 10.126776628470303 1 0 0 I I #
coedge $-1 $862 $544 $547 $740 reversed $725 $-1 #
coedge $-1 $544 $862 $731 $866 forward $725 $-1 #
vertex $-1 $545 $870 #
straight-curve $-1 23.963853022378398 26.662388495756375 49.592739981777889 0 0 1 I I #
straight-curve $-1 23.963853022378398 -6.167621814864745 47.021008457350177 0 0.61566146476048833 -0.78801076186113728 I I #
edge $-1 $864 -33.794736034242803 $548 -23.963853022378398 $735 $871 forward 7 unknown #
point $-1 23.963853022378398 26.662388495756375 10.126776628470301 #
point $-1 23.963853022378398 22.657310417449011 10.126776628470303 #
edge $-1 $872 1 $872 0 $551 $-1 forward 7 unknown #
vertex $-1 $552 $873 #
ellipse-curve $-1 25.930029624751278 23.871838694741548 6.9479820065711495 0 0.78801076186113728 0.61566146476048833 0.5 0 0 1 I I #
point $-1 26.430029624751278 24.659849456602686 7.5636434713316376 #
edge $-1 $874 1 $874 0 $555 $-1 forward 7 unknown #
vertex $-1 $556 $875 #
ellipse-curve $-1 28.879294528310602 23.871838694741548 6.9479820065711495 0 0.78801076186113728 0.61566146476048833 0.5 0 0 1 I I #
point $-1 29.379294528310602 24.659849456602686 7.5636434713316376 #
edge $-1 $876 1 $876 0 $559 $-1 forward 7 unknown #
vertex $-1 $560 $877 #
ellipse-curve $-1 31.828559431869927 23.871838694741548 6.9479820065711495 0 0.78801076186113728 0.61566146476048833 0.5 0 0 1 I I #
point $-1 32.328559431869927 24.659849456602686 7.5636434713316376 #
plane-surface $-1 0 0 10.126776628470301 0 0 1 1 0 0 forward_v I I I I #
coedge $-1 $766 $765 $758 $878 forward $564 $-1 #
coedge $-1 $758 $566 $568 $762 reversed $399 $-1 #
coedge $-1 $566 $757 $756 $878 reversed $399 $-1 #
coedge $-1 $574 $569 $566 $760 forward $575 $-1 #
edge $-1 $763 -26.726935755826123 $879 -22.198727524343894 $759 $880 forward 7 unknown #
coedge $-1 $568 $567 $766 $881 reversed $253 $-1 #
edge $-1 $882 0 $763 8.3141457788348454 $757 $883 forward 7 unknown #
vertex $-1 $570 $884 #
straight-curve $-1 7.8954405746270844 -22.134180264274146 10.126776628470301 -1 0 0 I I #
coedge $-1 $756 $571 $574 $770 reversed $564 $-1 #
coedge $-1 $571 $756 $761 $881 forward $564 $-1 #
vertex $-1 $572 $885 #
straight-curve $-1 24.671319492766013 -26.662388495756375 24.650373842015171 0 0 1 I I #
straight-curve $-1 24.671319492766013 -26.662388495756375 3.1539471996047226 0 -0.54463902268945019 -0.83867057594974714 I I #
edge $-1 $879 6.9104428057423242 $576 24.671319492766013 $765 $886 forward 7 unknown #
point $-1 24.671319492766013 -26.662388495756375 10.126776628470301 #
point $-1 24.671319492766013 -22.134180264274146 10.126776628470301 #
edge $-1 $887 1 $887 0 $579 $-1 forward 7 unknown #
vertex $-1 $580 $888 #
ellipse-curve $-1 11.984979002034805 -22.318833358934626 5.2899506747146248 0 -0.83867057594974714 0.54463902268945019 1.5 0 0 1 I I #
point $-1 13.484979002034805 -24.398284380015262 6.6403619140375127 #
edge $-1 $889 1 $889 0 $583 $-1 forward 7 unknown #
vertex $-1 $584 $890 #
ellipse-curve $-1 19.596783296473525 -22.318833358934626 5.2899506747146248 0 -0.83867057594974714 0.54463902268945019 1.5 0 0 1 I I #
point $-1 21.096783296473525 -24.398284380015262 6.6403619140375127 #
plane-surface $-1 42.364574114200259 0 0 -1 0 0 0 0 1 forward_v I I I I #
coedge $-1 $592 $590 $594 $786 reversed $421 $-1 #
edge $-1 $605 -10.126776628470301 $788 10.126776628470301 $604 $891 forward 7 unknown #
vertex $-1 $786 $892 #
straight-curve $-1 -42.364574114200259 -26.662388495756375 0 0 0 -1 I I #
edge $-1 $784 -26.662388495756375 $788 26.662388495756375 $782 $893 forward 7 unknown #
straight-curve $-1 0 -26.662388495756375 -10.126776628470301 -1 0 0 I I #
vertex $-1 $597 $894 #
straight-curve $-1 0 26.662388495756375 -10.126776628470301 1 0 0 I I #
point $-1 42.364574114200259 26.662388495756375 -10.126776628470301 #
point $-1 42.364574114200259 -26.662388495756375 -10.126776628470301 #
straight-curve $-1 -42.364574114200259 0 10.126776628470301 0 -1 0 I I #
point $-1 -42.364574114200259 26.662388495756375 10.126776628470301 #
point $-1 -42.364574114200259 -26.662388495756375 10.126776628470301 #
straight-curve $-1 42.364574114200259 -26.662388495756375 0 0 0 -1 I I #
straight-curve $-1 42.364574114200259 26.662388495756375 0 0 0 -1 I I #
plane-surface $-1 0 -26.662388495756375 0 0 1 0 0 0 1 forward_v I I I I #
coedge $-1 $895 $617 $627 $809 reversed $440 $-1 #
coedge $-1 $617 $895 $630 $811 forward $440 $-1 #
coedge $-1 $896 $620 $618 $801 forward $615 $-1 #
edge $-1 $802 31.238310253087189 $897 42.364574114200259 $618 $898 forward 7 unknown #
vertex $-1 $801 $899 #
straight-curve $-1 -31.238310253087189 26.662388495756375 4.3095898421238639 0 0 -1 I I #
coedge $-1 $620 $896 $622 $806 forward $615 $-1 #
straight-curve $-1 -31.238310253087189 0 10.126776628470301 0 1 0 I I #
edge $-1 $900 -42.364574114200259 $624 -31.238310253087189 $622 $901 forward 7 unknown #
point $-1 -31.238310253087189 -26.662388495756375 10.126776628470299 #
straight-curve $-1 -42.364574114200259 0 7.1115827400251561 0 -1 0 I I #
edge $-1 $900 -10.126776628470301 $628 -7.1115827400251561 $798 $902 forward 7 unknown #
point $-1 -42.364574114200259 -26.662388495756375 7.1115827400251561 #
edge $-1 $897 -10.126776628470301 $631 -7.1115827400251561 $630 $903 forward 7 unknown #
point $-1 -42.364574114200259 26.662388495756375 7.1115827400251561 #
coedge $-1 $637 $817 $639 $815 reversed $456 $-1 #
straight-curve $-1 -21.407427241222784 26.662388495756375 49.592739981777889 0 0 -1 I I #
edge $-1 $640 21.407427241222784 $822 31.238310253087189 $813 $904 forward 7 unknown #
point $-1 -21.407427241222784 26.662388495756375 10.126776628470301 #
coedge $-1 $813 $642 $645 $819 forward $456 $-1 #
straight-curve $-1 -13.161434373577494 26.662388495756375 5.0005103141929759 -1 0 0 I I #
edge $-1 $646 -44.59222966758491 $822 -39.465963353307586 $817 $905 forward 7 unknown #
point $-1 -31.238310253087192 26.662388495756375 5.0005103141929794 #
point $-1 -21.407427241222784 26.662388495756375 5.0005103141929794 #
vertex $-1 $650 $906 #
straight-curve $-1 -31.238310253087189 0 10.126776628470301 0 -1 0 I I #
vertex $-1 $653 $907 #
point $-1 -28.772133650714309 23.871838694741548 6.9479820065711495 #
vertex $-1 $657 $908 #
point $-1 -25.822868747154985 23.871838694741548 6.9479820065711495 #
vertex $-1 $661 $909 #
point $-1 -22.87360384359566 23.871838694741548 6.9479820065711495 #
coedge $-1 $676 $675 $668 $831 forward $665 $-1 #
edge $-1 $832 39.465963353307586 $835 44.59222966758491 $830 $910 forward 7 unknown #
vertex $-1 $680 $911 #
straight-curve $-1 -3.006706149400924 30.29992941622119 10.126776628470303 0 1 0 I I #
edge $-1 $835 -0.95436767826563962 $677 8.8765153335987677 $676 $912 forward 7 unknown #
vertex $-1 $834 $913 #
straight-curve $-1 -3.006706149400924 -6.167621814864745 47.021008457350177 0 -0.61566146476048833 0.78801076186113728 I I #
point $-1 -3.006706149400924 22.657310417449011 10.126776628470303 #
point $-1 -12.837589161265331 26.662388495756375 5.0005103141929794 #
straight-curve $-1 0 26.662388495756375 10.126776628470301 -1 0 0 I I #
vertex $-1 $683 $914 #
point $-1 -10.371412558892448 23.871838694741548 6.9479820065711495 #
vertex $-1 $687 $915 #
point $-1 -7.4221476553331271 23.871838694741548 6.9479820065711495 #
vertex $-1 $691 $916 #
point $-1 -4.4728827517738026 23.871838694741548 6.9479820065711495 #
coedge $-1 $706 $705 $698 $847 forward $695 $-1 #
edge $-1 $848 39.465963353307586 $851 44.59222966758491 $846 $917 forward 7 unknown #
vertex $-1 $710 $918 #
straight-curve $-1 15.394014942420942 30.29992941622119 10.126776628470303 0 1 0 I I #
edge $-1 $851 -10.154728224176573 $707 -0.32384521231216556 $706 $919 forward 7 unknown #
vertex $-1 $850 $920 #
straight-curve $-1 15.394014942420942 -6.167621814864745 47.021008457350177 0 -0.61566146476048833 0.78801076186113728 I I #
point $-1 15.394014942420942 22.657310417449011 10.126776628470303 #
point $-1 5.5631319305565343 26.662388495756375 5.0005103141929794 #
straight-curve $-1 0 26.662388495756375 10.126776628470301 -1 0 0 I I #
vertex $-1 $713 $921 #
point $-1 8.0293085329294129 23.871838694741548 6.9479820065711495 #
vertex $-1 $717 $922 #
point $-1 10.978573436488738 23.871838694741548 6.9479820065711495 #
vertex $-1 $721 $923 #
point $-1 13.927838340048062 23.871838694741548 6.9479820065711495 #
coedge $-1 $736 $735 $728 $863 forward $725 $-1 #
edge $-1 $864 39.465963353307586 $867 44.59222966758491 $862 $924 forward 7 unknown #
vertex $-1 $740 $925 #
straight-curve $-1 33.794736034242803 30.29992941622119 10.126776628470303 0 1 0 I I #
edge $-1 $867 -19.355088770087502 $737 -9.524205758223097 $736 $926 forward 7 unknown #
vertex $-1 $866 $927 #
straight-curve $-1 33.794736034242803 -6.167621814864745 47.021008457350177 0 -0.61566146476048833 0.78801076186113728 I I #
point $-1 33.794736034242803 22.657310417449011 10.126776628470303 #
point $-1 23.963853022378398 26.662388495756375 5.0005103141929794 #
straight-curve $-1 0 26.662388495756375 10.126776628470301 -1 0 0 I I #
vertex $-1 $743 $928 #
point $-1 26.430029624751278 23.871838694741548 6.9479820065711495 #
vertex $-1 $747 $929 #
point $-1 29.379294528310602 23.871838694741548 6.9479820065711495 #
vertex $-1 $751 $930 #
point $-1 32.328559431869927 23.871838694741548 6.9479820065711495 #
edge $-1 $879 14.523597213544869 $882 21.496426642410448 $756 $931 forward 7 unknown #
vertex $-1 $770 $932 #
straight-curve $-1 6.9104428057423242 -48.861116020100269 10.126776628470299 0 -1 0 I I #
edge $-1 $882 -0.98499776888476021 $767 16.775878918138929 $766 $933 forward 7 unknown #
vertex $-1 $881 $934 #
straight-curve $-1 6.9104428057423242 -26.662388495756375 3.1539471996047226 0 0.54463902268945019 0.83867057594974714 I I #
point $-1 6.9104428057423242 -22.134180264274146 10.126776628470301 #
point $-1 24.671319492766013 -26.662388495756375 3.1539471996047226 #
straight-curve $-1 0 -26.662388495756375 10.126776628470301 1 0 0 I I #
vertex $-1 $773 $935 #
point $-1 13.484979002034805 -22.318833358934626 5.2899506747146248 #
vertex $-1 $777 $936 #
point $-1 21.096783296473525 -22.318833358934626 5.2899506747146248 #
straight-curve $-1 -42.364574114200259 26.662388495756375 0 0 0 -1 I I #
point $-1 -42.364574114200259 -26.662388495756375 -10.126776628470301 #
straight-curve $-1 -42.364574114200259 0 -10.126776628470301 0 1 0 I I #
point $-1 -42.364574114200259 26.662388495756375 -10.126776628470301 #
coedge $-1 $799 $798 $896 $937 reversed $440 $-1 #
coedge $-1 $804 $800 $895 $937 forward $615 $-1 #
vertex $-1 $801 $938 #
straight-curve $-1 0 26.662388495756375 10.126776628470301 -1 0 0 I I #
point $-1 -31.238310253087189 26.662388495756375 10.126776628470299 #
vertex $-1 $937 $939 #
straight-curve $-1 0 -26.662388495756375 10.126776628470301 1 0 0 I I #
straight-curve $-1 -42.364574114200259 -26.662388495756375 0 0 0 -1 I I #
straight-curve $-1 -42.364574114200259 26.662388495756375 0 0 0 -1 I I #
straight-curve $-1 0 26.662388495756375 10.126776628470301 -1 0 0 I I #
straight-curve $-1 -31.238310253087192 26.662388495756375 49.592739981777889 0 0 1 I I #
point $-1 -31.238310253087189 26.662388495756375 10.126776628470299 #
point $-1 -29.272133650714309 23.477833313810983 6.640151274190905 #
point $-1 -26.322868747154985 23.477833313810983 6.640151274190905 #
point $-1 -23.37360384359566 23.477833313810983 6.640151274190905 #
straight-curve $-1 -3.006706149400924 26.662388495756375 49.592739981777889 0 0 -1 I I #
point $-1 -3.006706149400924 26.662388495756375 10.126776628470301 #
straight-curve $-1 -3.9610738276665636 26.662388495756375 5.0005103141929759 -1 0 0 I I #
point $-1 -3.006706149400924 26.662388495756375 5.0005103141929794 #
point $-1 -10.871412558892448 23.477833313810983 6.640151274190905 #
point $-1 -7.9221476553331271 23.477833313810983 6.640151274190905 #
point $-1 -4.9728827517738026 23.477833313810983 6.640151274190905 #
straight-curve $-1 15.394014942420942 26.662388495756375 49.592739981777889 0 0 -1 I I #
point $-1 15.394014942420942 26.662388495756375 10.126776628470301 #
straight-curve $-1 5.2392867182443688 26.662388495756375 5.0005103141929759 -1 0 0 I I #
point $-1 15.394014942420942 26.662388495756375 5.0005103141929794 #
point $-1 7.5293085329294129 23.477833313810983 6.640151274190905 #
point $-1 10.478573436488738 23.477833313810983 6.640151274190905 #
point $-1 13.427838340048062 23.477833313810983 6.640151274190905 #
straight-curve $-1 33.794736034242803 26.662388495756375 49.592739981777889 0 0 -1 I I #
point $-1 33.794736034242803 26.662388495756375 10.126776628470301 #
straight-curve $-1 14.439647264155301 26.662388495756375 5.0005103141929759 -1 0 0 I I #
point $-1 33.794736034242803 26.662388495756375 5.0005103141929794 #
point $-1 25.930029624751278 23.477833313810983 6.640151274190905 #
point $-1 28.879294528310602 23.477833313810983 6.640151274190905 #
point $-1 31.828559431869927 23.477833313810983 6.640151274190905 #
straight-curve $-1 6.9104428057423242 -26.662388495756375 24.650373842015171 0 0 -1 I I #
point $-1 6.9104428057423242 -26.662388495756375 10.126776628470301 #
straight-curve $-1 7.8954405746270844 -26.662388495756375 3.1539471996047199 1 0 0 I I #
point $-1 6.9104428057423242 -26.662388495756375 3.1539471996047226 #
point $-1 11.984979002034805 -21.060827495010003 4.47299214068045 #
point $-1 19.596783296473525 -21.060827495010003 4.47299214068045 #
edge $-1 $897 -26.662388495756375 $900 26.662388495756375 $895 $940 forward 7 unknown #
point $-1 -42.364574114200259 26.662388495756375 10.126776628470301 #
point $-1 -42.364574114200259 -26.662388495756375 10.126776628470301 #
straight-curve $-1 -42.364574114200259 0 10.126776628470301 0 -1 0 I I #
End-of-ACIS-data 