500 0 7 0           
7 Unknown 11 ACIS 5.0 NT 24 Thu Mar 25 21:01:42 1999 
-1 9.9999999999999995e-007 1e-010 
body $-1 $7 $-1 $8 #
body $-1 $9 $-1 $10 #
body $-1 $11 $-1 $12 #
body $-1 $13 $-1 $14 #
body $-1 $15 $-1 $16 #
body $-1 $17 $-1 $18 #
body $-1 $19 $-1 $20 #
lump $-1 $-1 $21 $0 #
transform $-1 1 0 0 0 1 0 0 0 1 76.325571459089929 50.425144377943873 16.010102604766285 1 rotate no_reflect no_shear #
lump $-1 $-1 $22 $1 #
transform $-1 1 0 0 0 1 0 0 0 1 76.325571459089929 50.425144377943873 16.010102604766285 1 rotate no_reflect no_shear #
lump $-1 $-1 $23 $2 #
transform $-1 1 0 0 0 1 0 0 0 1 76.325571459089929 50.425144377943873 16.010102604766285 1 rotate no_reflect no_shear #
lump $-1 $-1 $24 $3 #
transform $-1 1 0 0 0 1 0 0 0 1 76.325571459089929 50.425144377943873 16.010102604766285 1 rotate no_reflect no_shear #
lump $-1 $-1 $25 $4 #
transform $-1 1 0 0 0 1 0 0 0 1 76.325571459089929 50.425144377943873 16.010102604766285 1 rotate no_reflect no_shear #
lump $-1 $-1 $26 $5 #
transform $-1 1 0 0 0 1 0 0 0 1 76.325571459089929 50.425144377943873 16.010102604766285 1 rotate no_reflect no_shear #
lump $-1 $-1 $27 $6 #
transform $-1 1 0 0 0 1 0 0 0 1 76.325571459089929 50.425144377943873 16.010102604766285 1 rotate no_reflect no_shear #
shell $-1 $-1 $-1 $28 $-1 $7 #
shell $-1 $-1 $-1 $29 $-1 $9 #
shell $-1 $-1 $-1 $30 $-1 $11 #
shell $-1 $-1 $-1 $31 $-1 $13 #
shell $-1 $-1 $-1 $32 $-1 $15 #
shell $-1 $-1 $-1 $33 $-1 $17 #
shell $-1 $-1 $-1 $34 $-1 $19 #
face $-1 $35 $36 $21 $-1 $37 forward single #
face $-1 $38 $39 $22 $-1 $40 forward single #
face $-1 $41 $42 $23 $-1 $43 reversed single #
face $-1 $44 $45 $24 $-1 $46 forward single #
face $-1 $47 $48 $25 $-1 $49 forward single #
face $-1 $50 $51 $26 $-1 $52 reversed single #
face $-1 $53 $54 $27 $-1 $55 forward single #
face $-1 $56 $57 $21 $-1 $58 reversed single #
loop $-1 $-1 $59 $28 #
plane-surface $-1 0 0 16.010102604766285 0 0 1 1 0 0 forward_v I I I I #
face $-1 $60 $61 $22 $-1 $62 reversed single #
loop $-1 $-1 $63 $29 #
plane-surface $-1 0 -43.239345959238328 -5.2007463591442029 0 0 1 1 0 0 forward_v I I I I #
face $-1 $64 $65 $23 $-1 $66 reversed single #
loop $-1 $-1 $67 $30 #
plane-surface $-1 -194.95779195297604 -8.1334937459846017 97.752345193169575 0 1 0 -0.77714596973225614 0 0.62932038083071107 forward_v I I I I #
face $-1 $68 $69 $24 $-1 $70 forward single #
loop $-1 $71 $72 $31 #
cone-surface $-1 -69.226692922339438 -4.4276788238865521 7.795986734373006 0.77714596973225614 0 -0.62932038083071107 0.9439805712460666 0 1.1657189545983841 1 I I 0 1 1.5 forward I I I I #
face $-1 $73 $74 $25 $-1 $75 forward single #
loop $-1 $76 $77 $32 #
cone-surface $-1 -69.226692922339438 1.1310435592605188 7.795986734373006 0.77714596973225614 0 -0.62932038083071107 0.9439805712460666 0 1.1657189545983841 1 I I 0 1 1.5 forward I I I I #
face $-1 $78 $79 $26 $-1 $80 reversed single #
loop $-1 $-1 $81 $33 #
plane-surface $-1 -27.782256319872673 37.776114845417887 119.55754735161848 0.73135370988377701 0 0.68199835119979291 0.68199835119979291 0 -0.73135370988377701 forward_v I I I I #
face $-1 $82 $83 $27 $-1 $84 forward single #
loop $-1 $85 $86 $34 #
cone-surface $-1 71.887714515546605 37.776114845417887 11.343907111406548 -0.73135370988377701 0 -0.68199835119979291 1.0229975267996894 0 -1.0970305648256655 1 I I 0 1 1.5 forward I I I I #
face $-1 $87 $88 $21 $-1 $89 reversed single #
loop $-1 $-1 $90 $35 #
plane-surface $-1 0 0 -16.010102604766285 0 0 1 1 0 0 forward_v I I I I #
coedge $-1 $91 $92 $93 $94 forward $36 $-1 #
face $-1 $95 $96 $22 $-1 $97 reversed single #
loop $-1 $-1 $98 $38 #
plane-surface $-1 0 -43.239345959238328 -13.769207473641851 0 0 1 1 0 0 forward_v I I I I #
coedge $-1 $99 $100 $101 $102 reversed $39 $-1 #
face $-1 $103 $104 $23 $-1 $105 reversed single #
loop $-1 $-1 $106 $41 #
plane-surface $-1 -76.325571459089929 -1.6483176323130166 1.6858697976573183 -0.77714596973225614 0 0.62932038083071107 0.62932038083071107 0 0.77714596973225614 forward_v I I I I #
coedge $-1 $107 $108 $109 $110 reversed $42 $-1 #
face $-1 $-1 $111 $24 $-1 $112 forward single #
loop $-1 $113 $114 $44 #
cone-surface $-1 -67.344722259835862 -4.4276788238865521 6.2719969819111725 0.77714596973225614 0 -0.62932038083071107 0.4719902856230333 0 0.58285947729919207 1 I I -0.70710678118654757 0.70710678118654757 0.75 forward I I I I #
loop $-1 $-1 $115 $31 #
coedge $-1 $72 $72 $116 $117 reversed $45 $-1 #
face $-1 $-1 $118 $25 $-1 $119 forward single #
loop $-1 $120 $121 $47 #
cone-surface $-1 -67.344722259835862 1.1310435592605188 6.2719969819111725 0.77714596973225614 0 -0.62932038083071107 0.4719902856230333 0 0.58285947729919207 1 I I -0.70710678118654757 0.70710678118654757 0.75 forward I I I I #
loop $-1 $-1 $122 $32 #
coedge $-1 $77 $77 $123 $124 reversed $48 $-1 #
face $-1 $125 $126 $26 $-1 $127 forward single #
loop $-1 $-1 $128 $50 #
plane-surface $-1 83.859723371336827 25.1270853128919 223.66537513058108 0 1 0 0.73135370988377701 0 0.68199835119979291 forward_v I I I I #
coedge $-1 $129 $130 $131 $132 reversed $51 $-1 #
face $-1 $-1 $133 $27 $-1 $134 forward single #
loop $-1 $135 $136 $53 #
cone-surface $-1 70.675480173336211 37.776114845417887 10.213480326825621 -0.73135370988377701 0 -0.68199835119979291 0.51149876339984468 0 -0.54851528241283276 1 I I -0.70710678118654757 0.70710678118654757 0.75 forward I I I I #
loop $-1 $-1 $137 $34 #
coedge $-1 $86 $86 $138 $139 reversed $54 $-1 #
face $-1 $140 $141 $21 $-1 $142 reversed single #
loop $-1 $-1 $143 $56 #
plane-surface $-1 0 -50.425144377943873 0 0 1 0 0 0 1 forward_v I I I I #
coedge $-1 $144 $145 $146 $147 forward $57 $-1 #
coedge $-1 $148 $59 $149 $150 forward $36 $-1 #
coedge $-1 $59 $148 $151 $152 forward $36 $-1 #
coedge $-1 $153 $154 $59 $94 reversed $155 $-1 #
edge $-1 $156 -50.425144377943873 $157 50.425144377943873 $93 $158 forward 7 unknown #
face $-1 $159 $160 $22 $-1 $161 reversed single #
loop $-1 $-1 $162 $60 #
plane-surface $-1 0 -36.053547540532783 -9.4849769163930269 0 -1 0 0 0 -1 forward_v I I I I #
coedge $-1 $163 $164 $165 $166 reversed $61 $-1 #
coedge $-1 $167 $63 $168 $169 forward $39 $-1 #
coedge $-1 $63 $167 $170 $171 reversed $39 $-1 #
coedge $-1 $172 $173 $63 $102 forward $174 $-1 #
edge $-1 $175 14.433874560913619 $176 28.805471398324709 $101 $177 forward 7 unknown #
face $-1 $178 $179 $23 $-1 $180 reversed single #
loop $-1 $-1 $181 $64 #
plane-surface $-1 -194.95779195297604 4.8368584813585684 97.752345193169575 0 -1 0 0.77714596973225614 0 -0.62932038083071107 forward_v I I I I #
coedge $-1 $182 $183 $184 $185 reversed $65 $-1 #
coedge $-1 $108 $67 $186 $187 reversed $42 $-1 #
coedge $-1 $67 $107 $182 $188 reversed $42 $-1 #
coedge $-1 $184 $189 $67 $110 forward $190 $-1 #
edge $-1 $191 21.15332451739809 $192 32.752859220490336 $109 $193 forward 7 unknown #
loop $-1 $-1 $116 $68 #
plane-surface $-1 -76.325571459089929 -1.6483176323130166 1.6858697976573183 -0.77714596973225614 0 0.62932038083071107 0.62932038083071107 0 0.77714596973225614 forward_v I I I I #
loop $-1 $-1 $194 $44 #
coedge $-1 $114 $114 $115 $195 reversed $69 $-1 #
coedge $-1 $115 $115 $114 $195 forward $71 $-1 #
coedge $-1 $116 $116 $72 $117 forward $111 $-1 #
edge $-1 $196 0 $196 6.2831853071796004 $116 $197 forward 7 unknown #
loop $-1 $-1 $123 $73 #
plane-surface $-1 -76.325571459089929 -1.6483176323130166 1.6858697976573183 -0.77714596973225614 0 0.62932038083071107 0.62932038083071107 0 0.77714596973225614 forward_v I I I I #
loop $-1 $-1 $198 $47 #
coedge $-1 $121 $121 $122 $199 reversed $74 $-1 #
coedge $-1 $122 $122 $121 $199 forward $76 $-1 #
coedge $-1 $123 $123 $77 $124 forward $118 $-1 #
edge $-1 $200 0 $200 6.2831853071796004 $123 $201 forward 7 unknown #
face $-1 $202 $203 $26 $-1 $204 reversed single #
loop $-1 $-1 $131 $78 #
plane-surface $-1 0 0 16.010102604766285 0 0 1 1 0 0 forward_v I I I I #
coedge $-1 $205 $206 $207 $208 reversed $79 $-1 #
coedge $-1 $209 $81 $210 $211 reversed $51 $-1 #
coedge $-1 $81 $209 $205 $212 forward $51 $-1 #
coedge $-1 $207 $213 $81 $132 forward $126 $-1 #
edge $-1 $214 -31.53708695523493 $215 -6.2390278901829568 $131 $216 forward 7 unknown #
loop $-1 $-1 $138 $82 #
plane-surface $-1 -27.782256319872673 37.776114845417887 119.55754735161848 0.73135370988377701 0 0.68199835119979291 0.68199835119979291 0 -0.73135370988377701 forward_v I I I I #
loop $-1 $-1 $217 $53 #
coedge $-1 $136 $136 $137 $218 reversed $83 $-1 #
coedge $-1 $137 $137 $136 $218 forward $85 $-1 #
coedge $-1 $138 $138 $86 $139 forward $133 $-1 #
edge $-1 $219 0 $219 6.2831853071796004 $138 $220 forward 7 unknown #
face $-1 $221 $222 $21 $-1 $223 reversed single #
loop $-1 $-1 $224 $87 #
plane-surface $-1 -76.325571459089929 0 0 1 0 0 0 0 -1 forward_v I I I I #
coedge $-1 $225 $151 $226 $227 forward $88 $-1 #
coedge $-1 $228 $90 $225 $229 forward $57 $-1 #
coedge $-1 $90 $228 $230 $231 forward $57 $-1 #
coedge $-1 $154 $153 $90 $147 reversed $155 $-1 #
edge $-1 $232 -50.425144377943873 $233 50.425144377943873 $146 $234 forward 7 unknown #
coedge $-1 $92 $91 $235 $236 forward $36 $-1 #
coedge $-1 $237 $238 $91 $150 reversed $222 $-1 #
edge $-1 $157 -76.325571459089929 $239 76.325571459089929 $149 $240 forward 7 unknown #
coedge $-1 $143 $241 $92 $152 reversed $88 $-1 #
edge $-1 $242 -76.325571459089929 $156 76.325571459089929 $151 $243 forward 7 unknown #
coedge $-1 $146 $93 $241 $244 forward $155 $-1 #
coedge $-1 $93 $146 $237 $245 reversed $155 $-1 #
loop $-1 $-1 $153 $221 #
vertex $-1 $94 $246 #
vertex $-1 $94 $247 #
straight-curve $-1 76.325571459089929 0 16.010102604766285 0 1 0 I I #
face $-1 $248 $249 $22 $-1 $250 reversed single #
loop $-1 $-1 $251 $95 #
plane-surface $-1 -76.325571459089929 0 0 1 0 0 0 0 -1 forward_v I I I I #
coedge $-1 $252 $168 $173 $253 reversed $96 $-1 #
coedge $-1 $254 $98 $255 $256 reversed $61 $-1 #
coedge $-1 $98 $254 $252 $257 forward $61 $-1 #
coedge $-1 $173 $172 $98 $166 forward $174 $-1 #
edge $-1 $258 -28.805471398324709 $259 -14.433874560913619 $165 $260 forward 7 unknown #
coedge $-1 $100 $99 $251 $261 reversed $39 $-1 #
coedge $-1 $162 $262 $99 $169 reversed $96 $-1 #
edge $-1 $175 -76.325571459089929 $263 76.325571459089929 $168 $264 forward 7 unknown #
coedge $-1 $265 $266 $100 $171 forward $249 $-1 #
edge $-1 $176 -76.325571459089929 $267 76.325571459089929 $170 $268 forward 7 unknown #
coedge $-1 $165 $101 $266 $269 forward $174 $-1 #
coedge $-1 $101 $165 $162 $253 forward $174 $-1 #
loop $-1 $-1 $101 $248 #
vertex $-1 $102 $270 #
vertex $-1 $269 $271 #
straight-curve $-1 76.325571459089929 -21.619672979619164 -5.2007463591442029 0 -1 0 I I #
face $-1 $-1 $190 $23 $-1 $272 forward single #
loop $-1 $-1 $273 $103 #
plane-surface $-1 -76.325571459089929 0 0 1 0 0 0 0 -1 forward_v I I I I #
coedge $-1 $274 $275 $276 $277 reversed $104 $-1 #
coedge $-1 $278 $106 $108 $188 forward $65 $-1 #
coedge $-1 $106 $278 $274 $279 forward $65 $-1 #
coedge $-1 $276 $109 $106 $185 forward $190 $-1 #
edge $-1 $192 -7.3093349298280934 $280 5.6610172975150768 $184 $281 forward 7 unknown #
coedge $-1 $282 $283 $107 $187 forward $179 $-1 #
edge $-1 $284 -47.190302798927469 $191 -32.866069991818506 $186 $285 forward 7 unknown #
edge $-1 $192 -18.431843392360356 $284 0 $108 $286 forward 7 unknown #
coedge $-1 $109 $276 $282 $287 forward $190 $-1 #
loop $-1 $-1 $276 $178 #
vertex $-1 $187 $288 #
vertex $-1 $110 $289 #
straight-curve $-1 -97.478895976488019 -8.1334937459846017 16.010102604766288 1 0 0 I I #
coedge $-1 $194 $194 $-1 $290 reversed $113 $-1 #
edge $-1 $291 0 $291 6.2831853071796004 $114 $292 forward 7 unknown #
vertex $-1 $117 $293 #
ellipse-curve $-1 -70.525804107543806 -4.4276788238865521 8.8479862012117998 -0.77714596973225614 0 0.62932038083071107 0.9439805712460666 0 1.1657189545983841 1 I I #
coedge $-1 $198 $198 $-1 $294 reversed $120 $-1 #
edge $-1 $295 0 $295 6.2831853071796004 $121 $296 forward 7 unknown #
vertex $-1 $124 $297 #
ellipse-curve $-1 -70.525804107543806 1.1310435592605188 8.8479862012117998 -0.77714596973225614 0 0.62932038083071107 0.9439805712460666 0 1.1657189545983841 1 I I #
face $-1 $-1 $298 $26 $-1 $299 reversed single #
loop $-1 $-1 $300 $125 #
plane-surface $-1 76.325571459089929 0 0 -1 0 0 0 0 1 forward_v I I I I #
coedge $-1 $206 $128 $130 $212 reversed $79 $-1 #
coedge $-1 $128 $205 $301 $302 reversed $79 $-1 #
coedge $-1 $303 $131 $128 $208 forward $126 $-1 #
edge $-1 $215 26.847434005929927 $304 34.395709773421515 $207 $305 forward 7 unknown #
coedge $-1 $130 $129 $300 $306 reversed $51 $-1 #
coedge $-1 $307 $308 $129 $211 forward $298 $-1 #
edge $-1 $309 -99.457988516692495 $214 -88.390108727522303 $210 $310 forward 7 unknown #
edge $-1 $311 -152.65114291817986 $215 -141.58326312900965 $205 $312 forward 7 unknown #
coedge $-1 $131 $303 $307 $313 forward $126 $-1 #
vertex $-1 $211 $314 #
vertex $-1 $132 $315 #
straight-curve $-1 68.77729569159834 18.888057422708943 16.010102604766288 0 -1 0 I I #
coedge $-1 $217 $217 $-1 $316 reversed $135 $-1 #
edge $-1 $317 0 $317 6.2831853071796004 $136 $318 forward 7 unknown #
vertex $-1 $139 $319 #
ellipse-curve $-1 72.551433575344149 37.776114845417887 11.962835132587614 0.73135370988377701 0 0.68199835119979291 1.0229975267996894 0 -1.0970305648256655 1 I I #
face $-1 $-1 $155 $21 $-1 $320 reversed single #
loop $-1 $-1 $237 $140 #
plane-surface $-1 0 50.425144377943873 0 0 -1 0 0 0 -1 forward_v I I I I #
coedge $-1 $321 $235 $238 $322 forward $141 $-1 #
coedge $-1 $241 $143 $144 $229 reversed $88 $-1 #
coedge $-1 $235 $321 $143 $227 reversed $141 $-1 #
edge $-1 $242 -16.010102604766285 $323 16.010102604766285 $226 $324 forward 7 unknown #
coedge $-1 $145 $144 $321 $325 forward $57 $-1 #
edge $-1 $233 -76.325571459089929 $323 76.325571459089929 $225 $326 forward 7 unknown #
coedge $-1 $238 $237 $145 $231 reversed $222 $-1 #
edge $-1 $327 -76.325571459089929 $232 76.325571459089929 $230 $328 forward 7 unknown #
vertex $-1 $147 $329 #
vertex $-1 $244 $330 #
straight-curve $-1 76.325571459089929 0 -16.010102604766285 0 -1 0 I I #
coedge $-1 $224 $226 $148 $236 reversed $141 $-1 #
edge $-1 $239 -50.425144377943873 $242 50.425144377943873 $235 $331 forward 7 unknown #
coedge $-1 $230 $149 $154 $245 forward $222 $-1 #
coedge $-1 $149 $230 $224 $322 reversed $222 $-1 #
vertex $-1 $150 $332 #
straight-curve $-1 0 50.425144377943873 16.010102604766285 -1 0 0 I I #
coedge $-1 $151 $225 $153 $244 reversed $88 $-1 #
vertex $-1 $236 $333 #
straight-curve $-1 0 -50.425144377943873 16.010102604766285 1 0 0 I I #
edge $-1 $156 -16.010102604766285 $233 16.010102604766285 $153 $334 forward 7 unknown #
edge $-1 $157 -16.010102604766285 $232 16.010102604766285 $154 $335 forward 7 unknown #
point $-1 76.325571459089929 -50.425144377943873 16.010102604766285 #
point $-1 76.325571459089929 50.425144377943873 16.010102604766285 #
face $-1 $-1 $174 $22 $-1 $336 reversed single #
loop $-1 $-1 $170 $159 #
plane-surface $-1 0 -50.425144377943873 0 0 1 0 0 0 1 forward_v I I I I #
coedge $-1 $337 $338 $167 $261 forward $160 $-1 #
coedge $-1 $262 $162 $164 $257 reversed $96 $-1 #
edge $-1 $259 -9.0267190154453374 $175 -0.45825790094768948 $173 $339 forward 7 unknown #
coedge $-1 $164 $163 $340 $341 reversed $61 $-1 #
coedge $-1 $266 $265 $163 $256 forward $249 $-1 #
edge $-1 $342 -76.325571459089929 $258 76.325571459089929 $255 $343 forward 7 unknown #
edge $-1 $344 -76.325571459089929 $259 76.325571459089929 $252 $345 forward 7 unknown #
vertex $-1 $256 $346 #
vertex $-1 $166 $347 #
straight-curve $-1 76.325571459089929 -21.619672979619164 -13.769207473641851 0 1 0 I I #
edge $-1 $267 -28.805471398324709 $263 -14.433874560913619 $251 $348 forward 7 unknown #
coedge $-1 $168 $252 $337 $349 reversed $96 $-1 #
vertex $-1 $261 $350 #
straight-curve $-1 0 -36.053547540532783 -5.2007463591442029 -1 0 0 I I #
coedge $-1 $255 $170 $338 $351 forward $249 $-1 #
coedge $-1 $170 $255 $172 $269 reversed $249 $-1 #
vertex $-1 $351 $352 #
straight-curve $-1 0 -50.425144377943873 -5.2007463591442029 -1 0 0 I I #
edge $-1 $176 5.2007463591442029 $258 13.769207473641851 $172 $353 forward 7 unknown #
point $-1 76.325571459089929 -36.053547540532783 -5.2007463591442029 #
point $-1 76.325571459089929 -50.425144377943873 -5.2007463591442029 #
plane-surface $-1 0 0 16.010102604766285 0 0 1 1 0 0 forward_v I I I I #
coedge $-1 $283 $282 $275 $354 forward $179 $-1 #
coedge $-1 $275 $181 $183 $279 reversed $104 $-1 #
coedge $-1 $181 $274 $273 $354 reversed $104 $-1 #
coedge $-1 $189 $184 $181 $277 forward $190 $-1 #
edge $-1 $280 -32.752859220490336 $355 -21.15332451739809 $276 $356 forward 7 unknown #
coedge $-1 $183 $182 $283 $357 reversed $65 $-1 #
edge $-1 $358 0 $280 18.431843392360356 $274 $359 forward 7 unknown #
vertex $-1 $185 $360 #
straight-curve $-1 -64.726036755997683 -0.82415881615650832 16.010102604766285 0 1 0 I I #
coedge $-1 $273 $186 $189 $287 reversed $179 $-1 #
coedge $-1 $186 $273 $278 $357 forward $179 $-1 #
vertex $-1 $187 $361 #
straight-curve $-1 -76.325571459089929 -8.1334937459846017 48.876172596584787 0 0 1 I I #
straight-curve $-1 -76.325571459089929 -8.1334937459846017 1.6858697976573183 -0.62932038083071107 0 -0.77714596973225614 I I #
edge $-1 $355 -4.8368584813585684 $191 8.1334937459846017 $282 $362 forward 7 unknown #
point $-1 -76.325571459089929 -8.1334937459846017 16.010102604766285 #
point $-1 -64.726036755997683 -8.1334937459846017 16.010102604766285 #
edge $-1 $363 1 $363 0 $194 $-1 forward 7 unknown #
vertex $-1 $195 $364 #
ellipse-curve $-1 -67.927581737135057 -4.4276788238865521 6.7439872675342061 -0.77714596973225614 0 0.62932038083071107 0.9439805712460666 0 1.1657189545983841 1 I I #
point $-1 -69.581823536297748 -4.4276788238865521 10.013705155810191 #
edge $-1 $365 1 $365 0 $198 $-1 forward 7 unknown #
vertex $-1 $199 $366 #
ellipse-curve $-1 -67.927581737135057 1.1310435592605188 6.7439872675342061 -0.77714596973225614 0 0.62932038083071107 0.9439805712460666 0 1.1657189545983841 1 I I #
point $-1 -69.581823536297748 1.1310435592605188 10.013705155810191 #
loop $-1 $-1 $210 $202 #
plane-surface $-1 0 50.425144377943873 0 0 -1 0 0 0 -1 forward_v I I I I #
coedge $-1 $367 $301 $209 $306 forward $203 $-1 #
coedge $-1 $300 $368 $206 $302 forward $203 $-1 #
edge $-1 $304 95.822584960524253 $311 103.91711990488156 $301 $369 forward 7 unknown #
coedge $-1 $213 $207 $368 $370 forward $126 $-1 #
vertex $-1 $370 $371 #
straight-curve $-1 41.929861685668413 25.1270853128919 16.010102604766288 1 0 0 I I #
edge $-1 $311 6.2390278901829568 $309 31.53708695523493 $300 $372 forward 7 unknown #
coedge $-1 $308 $210 $213 $313 reversed $298 $-1 #
coedge $-1 $210 $307 $367 $373 forward $298 $-1 #
vertex $-1 $211 $374 #
straight-curve $-1 8.4953872770577092 50.425144377943873 80.654536539670147 -0.68199835119979291 0 0.73135370988377701 I I #
vertex $-1 $306 $375 #
straight-curve $-1 -27.782256319872673 25.1270853128919 119.55754735161848 -0.68199835119979291 0 0.73135370988377701 I I #
edge $-1 $376 -76.325571459089929 $214 -68.77729569159834 $307 $377 forward 7 unknown #
point $-1 68.77729569159834 50.425144377943873 16.010102604766288 #
point $-1 68.77729569159834 25.1270853128919 16.010102604766288 #
edge $-1 $378 1 $378 0 $217 $-1 forward 7 unknown #
vertex $-1 $218 $379 #
ellipse-curve $-1 71.223995455749048 37.776114845417887 10.724979090225466 0.73135370988377701 0 0.68199835119979291 1.0229975267996894 0 -1.0970305648256655 1 I I #
point $-1 73.574431102143848 37.776114845417887 10.865804567761963 #
plane-surface $-1 76.325571459089929 0 0 -1 0 0 0 0 1 forward_v I I I I #
coedge $-1 $226 $224 $228 $325 reversed $141 $-1 #
edge $-1 $239 -16.010102604766285 $327 16.010102604766285 $238 $380 forward 7 unknown #
vertex $-1 $325 $381 #
straight-curve $-1 -76.325571459089929 -50.425144377943873 0 0 0 -1 I I #
edge $-1 $323 -50.425144377943873 $327 50.425144377943873 $321 $382 forward 7 unknown #
straight-curve $-1 0 -50.425144377943873 -16.010102604766285 -1 0 0 I I #
vertex $-1 $231 $383 #
straight-curve $-1 0 50.425144377943873 -16.010102604766285 1 0 0 I I #
point $-1 76.325571459089929 50.425144377943873 -16.010102604766285 #
point $-1 76.325571459089929 -50.425144377943873 -16.010102604766285 #
straight-curve $-1 -76.325571459089929 0 16.010102604766285 0 -1 0 I I #
point $-1 -76.325571459089929 50.425144377943873 16.010102604766285 #
point $-1 -76.325571459089929 -50.425144377943873 16.010102604766285 #
straight-curve $-1 76.325571459089929 -50.425144377943873 0 0 0 -1 I I #
straight-curve $-1 76.325571459089929 50.425144377943873 0 0 0 -1 I I #
plane-surface $-1 76.325571459089929 0 0 -1 0 0 0 0 1 forward_v I I I I #
coedge $-1 $340 $251 $262 $349 forward $160 $-1 #
coedge $-1 $251 $340 $265 $351 reversed $160 $-1 #
straight-curve $-1 76.325571459089929 -36.053547540532783 -4.7424884581965134 0 0 1 I I #
coedge $-1 $338 $337 $254 $341 forward $160 $-1 #
edge $-1 $344 14.433874560913619 $342 28.805471398324709 $340 $384 forward 7 unknown #
vertex $-1 $256 $385 #
straight-curve $-1 0 -50.425144377943873 -13.769207473641851 1 0 0 I I #
vertex $-1 $341 $386 #
straight-curve $-1 0 -36.053547540532783 -13.769207473641851 1 0 0 I I #
point $-1 76.325571459089929 -50.425144377943873 -13.769207473641851 #
point $-1 76.325571459089929 -36.053547540532783 -13.769207473641851 #
straight-curve $-1 -76.325571459089929 -21.619672979619164 -5.2007463591442029 0 1 0 I I #
edge $-1 $263 0.45825790094768948 $344 9.0267190154453374 $337 $387 forward 7 unknown #
point $-1 -76.325571459089929 -36.053547540532783 -5.2007463591442029 #
edge $-1 $267 5.2007463591442029 $342 13.769207473641851 $338 $388 forward 7 unknown #
point $-1 -76.325571459089929 -50.425144377943873 -5.2007463591442029 #
straight-curve $-1 76.325571459089929 -50.425144377943873 0 0 0 -1 I I #
edge $-1 $355 32.866069991818506 $358 47.190302798927469 $273 $389 forward 7 unknown #
vertex $-1 $287 $390 #
straight-curve $-1 -97.478895976488019 4.8368584813585684 16.010102604766288 -1 0 0 I I #
edge $-1 $358 -5.6610172975150768 $284 7.3093349298280934 $283 $391 forward 7 unknown #
vertex $-1 $357 $392 #
straight-curve $-1 -76.325571459089929 4.8368584813585684 1.6858697976573183 0.62932038083071107 0 0.77714596973225614 I I #
point $-1 -64.726036755997683 4.8368584813585684 16.010102604766285 #
point $-1 -76.325571459089929 -8.1334937459846017 1.6858697976573183 #
straight-curve $-1 -76.325571459089929 0 16.010102604766285 0 -1 0 I I #
vertex $-1 $290 $393 #
point $-1 -66.983601165888984 -4.4276788238865521 7.9097062221325896 #
vertex $-1 $294 $394 #
point $-1 -66.983601165888984 1.1310435592605188 7.9097062221325896 #
coedge $-1 $368 $300 $308 $373 reversed $203 $-1 #
coedge $-1 $301 $367 $303 $370 reversed $203 $-1 #
straight-curve $-1 76.325571459089929 25.1270853128919 111.83268756529054 0 0 -1 I I #
edge $-1 $304 25.1270853128919 $376 50.425144377943873 $368 $395 forward 7 unknown #
point $-1 76.325571459089929 25.1270853128919 16.010102604766285 #
straight-curve $-1 76.325571459089929 18.888057422708943 7.9155676604090033 0 1 0 I I #
edge $-1 $376 -16.010102604766285 $309 -7.915567660408982 $367 $396 forward 7 unknown #
point $-1 76.325571459089929 50.425144377943873 7.915567660408982 #
point $-1 76.325571459089929 25.1270853128919 7.915567660408982 #
vertex $-1 $370 $397 #
straight-curve $-1 0 50.425144377943873 16.010102604766285 -1 0 0 I I #
vertex $-1 $316 $398 #
point $-1 72.246992982548733 37.776114845417887 9.6279485253998001 #
straight-curve $-1 -76.325571459089929 50.425144377943873 0 0 0 -1 I I #
point $-1 -76.325571459089929 -50.425144377943873 -16.010102604766285 #
straight-curve $-1 -76.325571459089929 0 -16.010102604766285 0 1 0 I I #
point $-1 -76.325571459089929 50.425144377943873 -16.010102604766285 #
straight-curve $-1 -76.325571459089929 -21.619672979619164 -13.769207473641851 0 -1 0 I I #
point $-1 -76.325571459089929 -50.425144377943873 -13.769207473641851 #
point $-1 -76.325571459089929 -36.053547540532783 -13.769207473641851 #
straight-curve $-1 -76.325571459089929 -36.053547540532783 -4.7424884581965134 0 0 -1 I I #
straight-curve $-1 -76.325571459089929 -50.425144377943873 0 0 0 -1 I I #
straight-curve $-1 -76.325571459089929 4.8368584813585684 48.876172596584787 0 0 -1 I I #
point $-1 -76.325571459089929 4.8368584813585684 16.010102604766285 #
straight-curve $-1 -76.325571459089929 -0.82415881615650832 1.6858697976573196 0 -1 0 I I #
point $-1 -76.325571459089929 4.8368584813585684 1.6858697976573183 #
point $-1 -66.761862782536667 -4.4276788238865521 5.8000066962881389 #
point $-1 -66.761862782536667 1.1310435592605188 5.8000066962881389 #
straight-curve $-1 76.325571459089929 0 16.010102604766285 0 1 0 I I #
straight-curve $-1 76.325571459089929 50.425144377943873 0 0 0 -1 I I #
point $-1 76.325571459089929 50.425144377943873 16.010102604766285 #
point $-1 70.126964890923375 37.776114845417887 9.7019815634257771 #
End-of-ACIS-data 