500 0 7 0           
7 Unknown 11 ACIS 5.0 NT 24 Thu Mar 25 18:00:40 1999 
-1 9.9999999999999995e-007 1e-010 
body $-1 $7 $-1 $8 #
body $-1 $9 $-1 $10 #
body $-1 $11 $-1 $12 #
body $-1 $13 $-1 $14 #
body $-1 $15 $-1 $16 #
body $-1 $17 $-1 $18 #
body $-1 $19 $-1 $20 #
lump $-1 $-1 $21 $0 #
transform $-1 1 0 0 0 1 0 0 0 1 48.376720480971713 24.615183260324379 7.5537294301443447 1 rotate no_reflect no_shear #
lump $-1 $-1 $22 $1 #
transform $-1 1 0 0 0 1 0 0 0 1 48.376720480971713 24.615183260324379 7.5537294301443447 1 rotate no_reflect no_shear #
lump $-1 $-1 $23 $2 #
transform $-1 1 0 0 0 1 0 0 0 1 48.376720480971713 24.615183260324379 7.5537294301443447 1 rotate no_reflect no_shear #
lump $-1 $-1 $24 $3 #
transform $-1 1 0 0 0 1 0 0 0 1 48.376720480971713 24.615183260324379 7.5537294301443447 1 rotate no_reflect no_shear #
lump $-1 $-1 $25 $4 #
transform $-1 1 0 0 0 1 0 0 0 1 48.376720480971713 24.615183260324379 7.5537294301443447 1 rotate no_reflect no_shear #
lump $-1 $-1 $26 $5 #
transform $-1 1 0 0 0 1 0 0 0 1 48.376720480971713 24.615183260324379 7.5537294301443447 1 rotate no_reflect no_shear #
lump $-1 $-1 $27 $6 #
transform $-1 1 0 0 0 1 0 0 0 1 48.376720480971713 24.615183260324379 7.5537294301443447 1 rotate no_reflect no_shear #
shell $-1 $-1 $-1 $28 $-1 $7 #
shell $-1 $-1 $-1 $29 $-1 $9 #
shell $-1 $-1 $-1 $30 $-1 $11 #
shell $-1 $-1 $-1 $31 $-1 $13 #
shell $-1 $-1 $-1 $32 $-1 $15 #
shell $-1 $-1 $-1 $33 $-1 $17 #
shell $-1 $-1 $-1 $34 $-1 $19 #
face $-1 $35 $36 $21 $-1 $37 forward single #
face $-1 $38 $39 $22 $-1 $40 forward single #
face $-1 $41 $42 $23 $-1 $43 reversed single #
face $-1 $44 $45 $24 $-1 $46 forward single #
face $-1 $47 $48 $25 $-1 $49 forward single #
face $-1 $50 $51 $26 $-1 $52 reversed single #
face $-1 $53 $54 $27 $-1 $55 forward single #
face $-1 $56 $57 $21 $-1 $58 reversed single #
loop $-1 $-1 $59 $28 #
plane-surface $-1 0 0 7.5537294301443447 0 0 1 1 0 0 forward_v I I I I #
face $-1 $60 $61 $22 $-1 $62 reversed single #
loop $-1 $-1 $63 $29 #
plane-surface $-1 0 -24.615183260324379 0 0 1 0 0 0 1 forward_v I I I I #
face $-1 $64 $65 $23 $-1 $66 reversed single #
loop $-1 $-1 $67 $30 #
plane-surface $-1 -113.11740987777117 -14.890899817117749 75.8236373379887 0 1 0 -0.66913061440640931 0 0.74314481823134659 forward_v I I I I #
face $-1 $68 $69 $24 $-1 $70 forward single #
loop $-1 $71 $72 $31 #
cone-surface $-1 -45.964590777436534 -12.162662394635349 5.2987411415992973 0.66913061440640931 0 -0.74314481823134659 0.74314481823134659 0 0.66913061440640931 1 I I 0 1 1 forward I I I I #
face $-1 $73 $74 $25 $-1 $75 forward single #
loop $-1 $76 $77 $32 #
cone-surface $-1 -45.964590777436534 -8.0703062609117495 5.2987411415992973 0.66913061440640931 0 -0.74314481823134659 0.74314481823134659 0 0.66913061440640931 1 I I 0 1 1 forward I I I I #
face $-1 $78 $79 $26 $-1 $80 reversed single #
loop $-1 $-1 $81 $33 #
plane-surface $-1 45.988708764315831 -4.1142282952176652 138.97536125853944 0 -1 0 -0.69465837861970381 0 -0.71933979245794832 forward_v I I I I #
face $-1 $82 $83 $27 $-1 $84 forward single #
loop $-1 $85 $86 $34 #
cone-surface $-1 44.7369177592714 -7.5391507767843891 3.9794255458832306 -0.69465837861970381 0 -0.71933979245794832 1.0790096886869225 0 -1.0419875679295556 1 I I 0 1 1.5 forward I I I I #
face $-1 $87 $88 $21 $-1 $89 reversed single #
loop $-1 $-1 $90 $35 #
plane-surface $-1 0 0 -7.5537294301443447 0 0 1 1 0 0 forward_v I I I I #
coedge $-1 $91 $92 $93 $94 forward $36 $-1 #
face $-1 $95 $96 $22 $-1 $97 forward single #
loop $-1 $-1 $98 $38 #
plane-surface $-1 -48.376720480971713 0 0 1 0 0 0 0 -1 forward_v I I I I #
coedge $-1 $99 $100 $101 $102 forward $39 $-1 #
face $-1 $103 $104 $23 $-1 $105 reversed single #
loop $-1 $-1 $106 $41 #
plane-surface $-1 -48.376720480971713 -10.116484327773549 3.9218190410679341 -0.66913061440640931 0 0.74314481823134659 0.74314481823134659 0 0.66913061440640931 forward_v I I I I #
coedge $-1 $107 $108 $109 $110 reversed $42 $-1 #
face $-1 $-1 $111 $24 $-1 $112 forward single #
loop $-1 $113 $114 $44 #
cone-surface $-1 -45.234718288200206 -12.162662394635349 4.4881356384767761 0.66913061440640931 0 -0.74314481823134659 0.3715724091156733 0 0.33456530720320465 1 I I -0.70710678118654746 0.70710678118654746 0.5 forward I I I I #
loop $-1 $-1 $115 $31 #
coedge $-1 $72 $72 $116 $117 reversed $45 $-1 #
face $-1 $-1 $118 $25 $-1 $119 forward single #
loop $-1 $120 $121 $47 #
cone-surface $-1 -45.234718288200206 -8.0703062609117495 4.4881356384767761 0.66913061440640931 0 -0.74314481823134659 0.3715724091156733 0 0.33456530720320465 1 I I -0.70710678118654746 0.70710678118654746 0.5 forward I I I I #
loop $-1 $-1 $122 $32 #
coedge $-1 $77 $77 $123 $124 reversed $48 $-1 #
face $-1 $125 $126 $26 $-1 $127 reversed single #
loop $-1 $-1 $128 $50 #
plane-surface $-1 -21.221879660185024 -7.5391507767843891 69.376761117382699 0.69465837861970381 0 0.71933979245794832 0.71933979245794832 0 -0.69465837861970381 forward_v I I I I #
coedge $-1 $129 $130 $131 $132 reversed $51 $-1 #
face $-1 $-1 $133 $27 $-1 $134 forward single #
loop $-1 $135 $136 $53 #
cone-surface $-1 43.365610349626749 -7.5391507767843891 2.5593951859098985 -0.69465837861970381 0 -0.71933979245794832 0.53950484434346124 0 -0.5209937839647778 1 I I -0.70710678118654757 0.70710678118654757 0.75 forward I I I I #
loop $-1 $-1 $137 $34 #
coedge $-1 $86 $86 $138 $139 reversed $54 $-1 #
face $-1 $140 $141 $21 $-1 $142 reversed single #
loop $-1 $-1 $143 $56 #
plane-surface $-1 0 -24.615183260324379 0 0 1 0 0 0 1 forward_v I I I I #
coedge $-1 $144 $145 $146 $147 forward $57 $-1 #
coedge $-1 $148 $59 $149 $150 forward $36 $-1 #
coedge $-1 $59 $148 $151 $152 forward $36 $-1 #
coedge $-1 $153 $154 $59 $94 reversed $155 $-1 #
edge $-1 $156 -24.615183260324379 $157 24.615183260324379 $93 $158 forward 7 unknown #
face $-1 $159 $160 $22 $-1 $161 reversed single #
loop $-1 $-1 $162 $60 #
plane-surface $-1 0 -27.702435610318545 2.02155150551767 0 0 1 1 0 0 forward_v I I I I #
coedge $-1 $163 $164 $100 $165 forward $61 $-1 #
coedge $-1 $166 $63 $167 $168 reversed $39 $-1 #
coedge $-1 $63 $166 $98 $165 reversed $39 $-1 #
coedge $-1 $169 $162 $63 $102 reversed $96 $-1 #
edge $-1 $170 -48.376720480971713 $171 48.376720480971713 $101 $172 forward 7 unknown #
face $-1 $173 $174 $23 $-1 $175 forward single #
loop $-1 $-1 $176 $64 #
plane-surface $-1 -113.11740987777117 -5.3420688384293475 75.8236373379887 0 -1 0 0.66913061440640931 0 -0.74314481823134659 forward_v I I I I #
coedge $-1 $177 $178 $179 $180 reversed $65 $-1 #
coedge $-1 $108 $67 $181 $182 reversed $42 $-1 #
coedge $-1 $67 $107 $177 $183 reversed $42 $-1 #
coedge $-1 $179 $184 $67 $110 forward $174 $-1 #
edge $-1 $185 8.1819844579138703 $186 12.215629500918013 $109 $187 forward 7 unknown #
loop $-1 $-1 $116 $68 #
plane-surface $-1 -48.376720480971713 -10.116484327773549 3.9218190410679341 -0.66913061440640931 0 0.74314481823134659 0.74314481823134659 0 0.66913061440640931 forward_v I I I I #
loop $-1 $-1 $188 $44 #
coedge $-1 $114 $114 $115 $189 reversed $69 $-1 #
coedge $-1 $115 $115 $114 $189 forward $71 $-1 #
coedge $-1 $116 $116 $72 $117 forward $111 $-1 #
edge $-1 $190 0 $190 6.2831853071796004 $116 $191 forward 7 unknown #
loop $-1 $-1 $123 $73 #
plane-surface $-1 -48.376720480971713 -10.116484327773549 3.9218190410679341 -0.66913061440640931 0 0.74314481823134659 0.74314481823134659 0 0.66913061440640931 forward_v I I I I #
loop $-1 $-1 $192 $47 #
coedge $-1 $121 $121 $122 $193 reversed $74 $-1 #
coedge $-1 $122 $122 $121 $193 forward $76 $-1 #
coedge $-1 $123 $123 $77 $124 forward $118 $-1 #
edge $-1 $194 0 $194 6.2831853071796004 $123 $195 forward 7 unknown #
face $-1 $196 $197 $26 $-1 $198 reversed single #
loop $-1 $-1 $199 $78 #
plane-surface $-1 45.988708764315831 -10.964073258351114 138.97536125853944 0 1 0 0.69465837861970381 0 0.71933979245794832 forward_v I I I I #
coedge $-1 $200 $201 $202 $203 reversed $79 $-1 #
coedge $-1 $130 $81 $204 $205 reversed $51 $-1 #
coedge $-1 $81 $129 $200 $206 reversed $51 $-1 #
coedge $-1 $202 $207 $81 $132 forward $208 $-1 #
edge $-1 $209 -25.382366098813797 $210 -19.803387906772876 $131 $211 forward 7 unknown #
loop $-1 $-1 $138 $82 #
plane-surface $-1 -21.221879660185024 -7.5391507767843891 69.376761117382699 0.69465837861970381 0 0.71933979245794832 0.71933979245794832 0 -0.69465837861970381 forward_v I I I I #
loop $-1 $-1 $212 $53 #
coedge $-1 $136 $136 $137 $213 reversed $83 $-1 #
coedge $-1 $137 $137 $136 $213 forward $85 $-1 #
coedge $-1 $138 $138 $86 $139 forward $133 $-1 #
edge $-1 $214 0 $214 6.2831853071796004 $138 $215 forward 7 unknown #
face $-1 $216 $217 $21 $-1 $218 reversed single #
loop $-1 $-1 $219 $87 #
plane-surface $-1 -48.376720480971713 0 0 1 0 0 0 0 -1 forward_v I I I I #
coedge $-1 $220 $151 $221 $222 forward $88 $-1 #
coedge $-1 $223 $90 $220 $224 forward $57 $-1 #
coedge $-1 $90 $223 $225 $226 forward $57 $-1 #
coedge $-1 $154 $153 $90 $147 reversed $155 $-1 #
edge $-1 $227 -24.615183260324379 $228 24.615183260324379 $146 $229 forward 7 unknown #
coedge $-1 $92 $91 $230 $231 forward $36 $-1 #
coedge $-1 $232 $233 $91 $150 reversed $217 $-1 #
edge $-1 $157 -48.376720480971713 $234 48.376720480971713 $149 $235 forward 7 unknown #
coedge $-1 $143 $236 $92 $152 reversed $88 $-1 #
edge $-1 $237 -48.376720480971713 $156 48.376720480971713 $151 $238 forward 7 unknown #
coedge $-1 $146 $93 $236 $239 forward $155 $-1 #
coedge $-1 $93 $146 $232 $240 reversed $155 $-1 #
loop $-1 $-1 $153 $216 #
vertex $-1 $94 $241 #
vertex $-1 $94 $242 #
straight-curve $-1 48.376720480971713 0 7.5537294301443447 0 1 0 I I #
face $-1 $243 $244 $22 $-1 $245 reversed single #
loop $-1 $-1 $246 $95 #
plane-surface $-1 0 -27.702435610318545 -0.97844849448232996 0 0 1 1 0 0 forward_v I I I I #
coedge $-1 $101 $247 $248 $249 forward $96 $-1 #
coedge $-1 $250 $98 $251 $252 reversed $61 $-1 #
coedge $-1 $98 $250 $169 $253 reversed $61 $-1 #
edge $-1 $170 -2.02155150551767 $254 0.97844849448232996 $98 $255 forward 7 unknown #
coedge $-1 $100 $99 $256 $257 forward $39 $-1 #
coedge $-1 $248 $258 $99 $168 forward $259 $-1 #
edge $-1 $260 -0.97844849448232996 $171 2.02155150551767 $167 $261 forward 7 unknown #
coedge $-1 $247 $101 $164 $253 forward $96 $-1 #
vertex $-1 $165 $262 #
vertex $-1 $249 $263 #
straight-curve $-1 0 -24.615183260324379 2.02155150551767 1 0 0 I I #
face $-1 $-1 $264 $23 $-1 $265 reversed single #
loop $-1 $-1 $109 $103 #
plane-surface $-1 0 0 7.5537294301443447 0 0 1 1 0 0 forward_v I I I I #
coedge $-1 $266 $267 $268 $269 reversed $104 $-1 #
coedge $-1 $270 $106 $108 $183 forward $65 $-1 #
coedge $-1 $106 $270 $266 $271 forward $65 $-1 #
coedge $-1 $268 $109 $106 $180 forward $174 $-1 #
edge $-1 $186 -9.8326576532309744 $272 -0.28382667454257327 $179 $273 forward 7 unknown #
coedge $-1 $274 $275 $107 $182 forward $264 $-1 #
edge $-1 $276 -33.989999627926416 $185 -30.358089238850006 $181 $277 forward 7 unknown #
edge $-1 $186 -5.4278048424048055 $276 0 $108 $278 forward 7 unknown #
coedge $-1 $109 $268 $274 $279 forward $174 $-1 #
vertex $-1 $182 $280 #
vertex $-1 $110 $281 #
straight-curve $-1 -56.558704938885583 -14.890899817117749 7.5537294301443438 1 0 0 I I #
coedge $-1 $188 $188 $-1 $282 reversed $113 $-1 #
edge $-1 $283 0 $283 6.2831853071796004 $114 $284 forward 7 unknown #
vertex $-1 $117 $285 #
ellipse-curve $-1 -46.359897959469649 -12.162662394635349 5.7377742356061363 -0.66913061440640931 0 0.74314481823134659 0.74314481823134659 0 0.66913061440640931 1 I I #
coedge $-1 $192 $192 $-1 $286 reversed $120 $-1 #
edge $-1 $287 0 $287 6.2831853071796004 $121 $288 forward 7 unknown #
vertex $-1 $124 $289 #
ellipse-curve $-1 -46.359897959469649 -8.0703062609117495 5.7377742356061363 -0.66913061440640931 0 0.74314481823134659 0.74314481823134659 0 0.66913061440640931 1 I I #
face $-1 $-1 $208 $26 $-1 $290 forward single #
loop $-1 $-1 $291 $125 #
plane-surface $-1 48.376720480971713 0 0 -1 0 0 0 0 1 forward_v I I I I #
coedge $-1 $292 $293 $294 $295 reversed $126 $-1 #
coedge $-1 $296 $128 $130 $206 forward $79 $-1 #
coedge $-1 $128 $296 $292 $297 forward $79 $-1 #
coedge $-1 $294 $131 $128 $203 forward $208 $-1 #
edge $-1 $210 0.34465290682547067 $298 7.1944978699589193 $202 $299 forward 7 unknown #
coedge $-1 $300 $301 $129 $205 forward $197 $-1 #
edge $-1 $302 -67.321507936387874 $209 -61.933951199125374 $204 $303 forward 7 unknown #
edge $-1 $210 88.997748519324844 $302 96.753440961943426 $130 $304 forward 7 unknown #
coedge $-1 $131 $294 $300 $305 forward $208 $-1 #
loop $-1 $-1 $294 $196 #
vertex $-1 $205 $306 #
vertex $-1 $132 $307 #
straight-curve $-1 22.994354382157915 -4.1142282952176652 7.5537294301443438 -1 0 0 I I #
coedge $-1 $212 $212 $-1 $308 reversed $135 $-1 #
edge $-1 $309 0 $309 6.2831853071796004 $136 $310 forward 7 unknown #
vertex $-1 $139 $311 #
ellipse-curve $-1 45.587231384951259 -7.5391507767843891 4.8599510615130859 0.69465837861970381 0 0.71933979245794832 1.0790096886869225 0 -1.0419875679295556 1 I I #
face $-1 $-1 $155 $21 $-1 $312 reversed single #
loop $-1 $-1 $232 $140 #
plane-surface $-1 0 24.615183260324379 0 0 -1 0 0 0 -1 forward_v I I I I #
coedge $-1 $313 $230 $233 $314 forward $141 $-1 #
coedge $-1 $236 $143 $144 $224 reversed $88 $-1 #
coedge $-1 $230 $313 $143 $222 reversed $141 $-1 #
edge $-1 $237 -7.5537294301443447 $315 7.5537294301443447 $221 $316 forward 7 unknown #
coedge $-1 $145 $144 $313 $317 forward $57 $-1 #
edge $-1 $228 -48.376720480971713 $315 48.376720480971713 $220 $318 forward 7 unknown #
coedge $-1 $233 $232 $145 $226 reversed $217 $-1 #
edge $-1 $319 -48.376720480971713 $227 48.376720480971713 $225 $320 forward 7 unknown #
vertex $-1 $147 $321 #
vertex $-1 $239 $322 #
straight-curve $-1 48.376720480971713 0 -7.5537294301443447 0 -1 0 I I #
coedge $-1 $219 $221 $148 $231 reversed $141 $-1 #
edge $-1 $234 -24.615183260324379 $237 24.615183260324379 $230 $323 forward 7 unknown #
coedge $-1 $225 $149 $154 $240 forward $217 $-1 #
coedge $-1 $149 $225 $219 $314 reversed $217 $-1 #
vertex $-1 $150 $324 #
straight-curve $-1 0 24.615183260324379 7.5537294301443447 -1 0 0 I I #
coedge $-1 $151 $220 $153 $239 reversed $88 $-1 #
vertex $-1 $231 $325 #
straight-curve $-1 0 -24.615183260324379 7.5537294301443447 1 0 0 I I #
edge $-1 $156 -7.5537294301443447 $228 7.5537294301443447 $153 $326 forward 7 unknown #
edge $-1 $157 -7.5537294301443447 $227 7.5537294301443447 $154 $327 forward 7 unknown #
point $-1 48.376720480971713 -24.615183260324379 7.5537294301443447 #
point $-1 48.376720480971713 24.615183260324379 7.5537294301443447 #
face $-1 $-1 $259 $22 $-1 $328 reversed single #
loop $-1 $-1 $329 $159 #
plane-surface $-1 0 -30.789687960312712 0.52155150551767004 0 1 0 0 0 1 forward_v I I I I #
coedge $-1 $330 $256 $258 $331 forward $160 $-1 #
coedge $-1 $162 $169 $332 $333 forward $96 $-1 #
coedge $-1 $334 $167 $162 $249 reversed $259 $-1 #
edge $-1 $335 -3.0872523499941664 $171 3.0872523499941664 $248 $336 forward 7 unknown #
coedge $-1 $164 $163 $329 $337 reversed $61 $-1 #
coedge $-1 $256 $330 $163 $252 forward $160 $-1 #
edge $-1 $338 -3.0872523499941664 $254 3.0872523499941664 $163 $339 forward 7 unknown #
edge $-1 $170 -3.0872523499941664 $340 3.0872523499941664 $164 $341 forward 7 unknown #
vertex $-1 $165 $342 #
straight-curve $-1 -48.376720480971713 -24.615183260324379 0 0 0 -1 I I #
coedge $-1 $246 $251 $166 $257 reversed $160 $-1 #
edge $-1 $260 -48.376720480971713 $254 48.376720480971713 $256 $343 forward 7 unknown #
coedge $-1 $167 $334 $246 $331 reversed $259 $-1 #
loop $-1 $-1 $167 $243 #
vertex $-1 $168 $344 #
straight-curve $-1 48.376720480971713 -24.615183260324379 0 0 0 1 I I #
point $-1 -48.376720480971713 -24.615183260324379 2.02155150551767 #
point $-1 48.376720480971713 -24.615183260324379 2.02155150551767 #
loop $-1 $-1 $181 $173 #
plane-surface $-1 -48.376720480971713 0 0 1 0 0 0 0 -1 forward_v I I I I #
coedge $-1 $267 $176 $178 $271 reversed $104 $-1 #
coedge $-1 $176 $266 $345 $346 reversed $104 $-1 #
coedge $-1 $184 $179 $176 $269 forward $174 $-1 #
edge $-1 $272 -12.215629500918013 $347 -8.1819844579138703 $268 $348 forward 7 unknown #
coedge $-1 $178 $177 $275 $349 reversed $65 $-1 #
edge $-1 $350 0 $272 5.4278048424048055 $266 $351 forward 7 unknown #
vertex $-1 $180 $352 #
straight-curve $-1 -44.343075437967578 -5.0582421638867743 7.5537294301443438 0 1 0 I I #
coedge $-1 $345 $181 $184 $279 reversed $264 $-1 #
coedge $-1 $181 $345 $270 $349 forward $264 $-1 #
vertex $-1 $182 $353 #
straight-curve $-1 -48.376720480971713 -14.890899817117749 37.91181866899435 0 0 1 I I #
straight-curve $-1 -48.376720480971713 -14.890899817117749 3.9218190410679341 -0.74314481823134659 0 -0.66913061440640931 I I #
edge $-1 $347 5.3420688384293475 $185 14.890899817117749 $274 $354 forward 7 unknown #
point $-1 -48.376720480971713 -14.890899817117749 7.5537294301443447 #
point $-1 -44.34307543796757 -14.890899817117749 7.5537294301443447 #
edge $-1 $355 1 $355 0 $188 $-1 forward 7 unknown #
vertex $-1 $189 $356 #
ellipse-curve $-1 -45.569283595403412 -12.162662394635349 4.8597080475924495 -0.66913061440640931 0 0.74314481823134659 0.74314481823134659 0 0.66913061440640931 1 I I #
point $-1 -45.616753141238306 -12.162662394635349 6.4069048500125554 #
edge $-1 $357 1 $357 0 $192 $-1 forward 7 unknown #
vertex $-1 $193 $358 #
ellipse-curve $-1 -45.569283595403412 -8.0703062609117495 4.8597080475924495 -0.66913061440640931 0 0.74314481823134659 0.74314481823134659 0 0.66913061440640931 1 I I #
point $-1 -45.616753141238306 -8.0703062609117495 6.4069048500125554 #
plane-surface $-1 0 0 7.5537294301443447 0 0 1 1 0 0 forward_v I I I I #
coedge $-1 $301 $300 $293 $359 forward $197 $-1 #
coedge $-1 $293 $199 $201 $297 reversed $126 $-1 #
coedge $-1 $199 $292 $291 $359 reversed $126 $-1 #
coedge $-1 $207 $202 $199 $295 forward $208 $-1 #
edge $-1 $298 19.803387906772876 $360 25.382366098813797 $294 $361 forward 7 unknown #
coedge $-1 $201 $200 $301 $362 reversed $79 $-1 #
edge $-1 $363 -96.753440961943426 $298 -88.997748519324844 $292 $364 forward 7 unknown #
vertex $-1 $203 $365 #
straight-curve $-1 42.797742288930792 -3.7695753883921945 7.5537294301443438 0 -1 0 I I #
coedge $-1 $291 $204 $207 $305 reversed $197 $-1 #
coedge $-1 $204 $291 $296 $362 forward $197 $-1 #
vertex $-1 $205 $366 #
straight-curve $-1 48.376720480971713 -4.1142282952176652 69.487680629269718 0 0 1 I I #
straight-curve $-1 -21.221879660185024 -4.1142282952176652 69.376761117382699 0.71933979245794832 0 -0.69465837861970381 I I #
edge $-1 $360 -10.964073258351114 $209 -4.1142282952176652 $300 $367 forward 7 unknown #
point $-1 48.376720480971713 -4.1142282952176652 7.5537294301443447 #
point $-1 42.797742288930792 -4.1142282952176652 7.5537294301443509 #
edge $-1 $368 1 $368 0 $212 $-1 forward 7 unknown #
vertex $-1 $213 $369 #
ellipse-curve $-1 43.886604133591526 -7.5391507767843891 3.0989000302533598 0.69465837861970381 0 0.71933979245794832 1.0790096886869225 0 -1.0419875679295556 1 I I #
point $-1 46.66624107363819 -7.5391507767843891 3.8179634935835454 #
plane-surface $-1 48.376720480971713 0 0 -1 0 0 0 0 1 forward_v I I I I #
coedge $-1 $221 $219 $223 $317 reversed $141 $-1 #
edge $-1 $234 -7.5537294301443447 $319 7.5537294301443447 $233 $370 forward 7 unknown #
vertex $-1 $317 $371 #
straight-curve $-1 -48.376720480971713 -24.615183260324379 0 0 0 -1 I I #
edge $-1 $315 -24.615183260324379 $319 24.615183260324379 $313 $372 forward 7 unknown #
straight-curve $-1 0 -24.615183260324379 -7.5537294301443447 -1 0 0 I I #
vertex $-1 $226 $373 #
straight-curve $-1 0 24.615183260324379 -7.5537294301443447 1 0 0 I I #
point $-1 48.376720480971713 24.615183260324379 -7.5537294301443447 #
point $-1 48.376720480971713 -24.615183260324379 -7.5537294301443447 #
straight-curve $-1 -48.376720480971713 0 7.5537294301443447 0 -1 0 I I #
point $-1 -48.376720480971713 24.615183260324379 7.5537294301443447 #
point $-1 -48.376720480971713 -24.615183260324379 7.5537294301443447 #
straight-curve $-1 48.376720480971713 -24.615183260324379 0 0 0 -1 I I #
straight-curve $-1 48.376720480971713 24.615183260324379 0 0 0 -1 I I #
plane-surface $-1 48.376720480971713 0 0 -1 0 0 0 0 1 forward_v I I I I #
coedge $-1 $374 $332 $250 $337 forward $244 $-1 #
coedge $-1 $251 $246 $374 $375 forward $160 $-1 #
edge $-1 $260 -3.0872523499941664 $376 3.0872523499941664 $258 $377 forward 7 unknown #
coedge $-1 $329 $378 $247 $333 reversed $244 $-1 #
edge $-1 $340 -48.376720480971713 $335 48.376720480971713 $332 $379 forward 7 unknown #
coedge $-1 $258 $248 $378 $380 forward $259 $-1 #
vertex $-1 $249 $381 #
straight-curve $-1 48.376720480971713 -27.702435610318545 2.02155150551767 0 1 0 I I #
edge $-1 $340 -1.5 $338 1.5 $250 $382 forward 7 unknown #
vertex $-1 $252 $383 #
straight-curve $-1 -48.376720480971713 -27.702435610318545 -0.97844849448232996 0 1 0 I I #
vertex $-1 $253 $384 #
straight-curve $-1 -48.376720480971713 -27.702435610318545 2.02155150551767 0 -1 0 I I #
point $-1 -48.376720480971713 -24.615183260324379 -0.97844849448232996 #
straight-curve $-1 0 -24.615183260324379 -0.97844849448232996 -1 0 0 I I #
point $-1 48.376720480971713 -24.615183260324379 -0.97844849448232996 #
coedge $-1 $275 $274 $267 $346 forward $264 $-1 #
edge $-1 $347 30.358089238850006 $350 33.989999627926416 $345 $385 forward 7 unknown #
vertex $-1 $279 $386 #
straight-curve $-1 -56.558704938885583 -5.3420688384293475 7.5537294301443438 -1 0 0 I I #
edge $-1 $350 0.28382667454257327 $276 9.8326576532309744 $275 $387 forward 7 unknown #
vertex $-1 $349 $388 #
straight-curve $-1 -48.376720480971713 -5.3420688384293475 3.9218190410679341 0.74314481823134659 0 0.66913061440640931 I I #
point $-1 -44.34307543796757 -5.3420688384293475 7.5537294301443447 #
point $-1 -48.376720480971713 -14.890899817117749 3.9218190410679341 #
straight-curve $-1 -48.376720480971713 0 7.5537294301443447 0 -1 0 I I #
vertex $-1 $282 $389 #
point $-1 -44.826138777172062 -12.162662394635349 5.5288386619988588 #
vertex $-1 $286 $390 #
point $-1 -44.826138777172062 -8.0703062609117495 5.5288386619988588 #
edge $-1 $360 61.933951199125374 $363 67.321507936387874 $291 $391 forward 7 unknown #
vertex $-1 $305 $392 #
straight-curve $-1 22.994354382157915 -10.964073258351114 7.5537294301443438 1 0 0 I I #
edge $-1 $363 -7.1944978699589193 $302 -0.34465290682547067 $301 $393 forward 7 unknown #
vertex $-1 $362 $394 #
straight-curve $-1 -21.221879660185024 -10.964073258351114 69.376761117382699 -0.71933979245794832 0 0.69465837861970381 I I #
point $-1 42.797742288930792 -10.964073258351114 7.5537294301443509 #
point $-1 48.376720480971713 -4.1142282952176652 2.1661726928818439 #
straight-curve $-1 48.376720480971713 0 7.5537294301443447 0 1 0 I I #
vertex $-1 $308 $395 #
point $-1 44.965613822278449 -7.5391507767843891 2.0569124623238042 #
straight-curve $-1 -48.376720480971713 24.615183260324379 0 0 0 -1 I I #
point $-1 -48.376720480971713 -24.615183260324379 -7.5537294301443447 #
straight-curve $-1 -48.376720480971713 0 -7.5537294301443447 0 1 0 I I #
point $-1 -48.376720480971713 24.615183260324379 -7.5537294301443447 #
coedge $-1 $378 $329 $330 $375 reversed $244 $-1 #
edge $-1 $376 -48.376720480971713 $338 48.376720480971713 $374 $396 forward 7 unknown #
vertex $-1 $380 $397 #
straight-curve $-1 48.376720480971713 -27.702435610318545 -0.97844849448232996 0 -1 0 I I #
coedge $-1 $332 $374 $334 $380 reversed $244 $-1 #
straight-curve $-1 0 -30.789687960312712 2.02155150551767 1 0 0 I I #
edge $-1 $335 -1.5 $376 1.5 $334 $398 forward 7 unknown #
point $-1 48.376720480971713 -30.789687960312712 2.02155150551767 #
straight-curve $-1 -48.376720480971713 -30.789687960312712 0.52155150551767004 0 0 -1 I I #
point $-1 -48.376720480971713 -30.789687960312712 -0.97844849448232996 #
point $-1 -48.376720480971713 -30.789687960312712 2.02155150551767 #
straight-curve $-1 -48.376720480971713 -5.3420688384293475 37.91181866899435 0 0 -1 I I #
point $-1 -48.376720480971713 -5.3420688384293475 7.5537294301443447 #
straight-curve $-1 -48.376720480971713 -5.0582421638867743 3.9218190410679346 0 -1 0 I I #
point $-1 -48.376720480971713 -5.3420688384293475 3.9218190410679341 #
point $-1 -44.900152980996999 -12.162662394635349 4.1165632293611027 #
point $-1 -44.900152980996999 -8.0703062609117495 4.1165632293611027 #
straight-curve $-1 48.376720480971713 -10.964073258351114 69.487680629269718 0 0 -1 I I #
point $-1 48.376720480971713 -10.964073258351114 7.5537294301443447 #
straight-curve $-1 48.376720480971713 -3.7695753883921945 2.1661726928818439 0 1 0 I I #
point $-1 48.376720480971713 -10.964073258351114 2.1661726928818439 #
point $-1 42.844616565661973 -7.5391507767843891 2.0198903415664371 #
straight-curve $-1 0 -30.789687960312712 -0.97844849448232996 -1 0 0 I I #
point $-1 48.376720480971713 -30.789687960312712 -0.97844849448232996 #
straight-curve $-1 48.376720480971713 -30.789687960312712 0.52155150551767004 0 0 -1 I I #
End-of-ACIS-data 