500 0 4 0           
7 Unknown 11 ACIS 5.0 NT 24 Thu Mar 25 18:31:12 1999 
-1 9.9999999999999995e-007 1e-010 
body $-1 $4 $-1 $5 #
body $-1 $6 $-1 $7 #
body $-1 $8 $-1 $9 #
body $-1 $10 $-1 $11 #
lump $-1 $-1 $12 $0 #
transform $-1 1 0 0 0 1 0 0 0 1 46.455275124362927 24.867969399666979 7.1884649970935914 1 rotate no_reflect no_shear #
lump $-1 $-1 $13 $1 #
transform $-1 1 0 0 0 1 0 0 0 1 46.455275124362927 24.867969399666979 7.1884649970935914 1 rotate no_reflect no_shear #
lump $-1 $-1 $14 $2 #
transform $-1 1 0 0 0 1 0 0 0 1 46.455275124362927 24.867969399666979 7.1884649970935914 1 rotate no_reflect no_shear #
lump $-1 $-1 $15 $3 #
transform $-1 1 0 0 0 1 0 0 0 1 46.455275124362927 24.867969399666979 7.1884649970935914 1 rotate no_reflect no_shear #
shell $-1 $-1 $-1 $16 $-1 $4 #
shell $-1 $-1 $-1 $17 $-1 $6 #
shell $-1 $-1 $-1 $18 $-1 $8 #
shell $-1 $-1 $-1 $19 $-1 $10 #
face $-1 $20 $21 $12 $-1 $22 forward single #
face $-1 $23 $24 $13 $-1 $25 forward single #
face $-1 $26 $27 $14 $-1 $28 forward single #
face $-1 $29 $30 $15 $-1 $31 reversed single #
face $-1 $32 $33 $12 $-1 $34 reversed single #
loop $-1 $-1 $35 $16 #
plane-surface $-1 0 0 7.1884649970935914 0 0 1 1 0 0 forward_v I I I I #
face $-1 $36 $37 $13 $-1 $38 forward single #
loop $-1 $-1 $39 $17 #
plane-surface $-1 -43.61916933603392 -20.974786089280851 0 0 -1 0 0 0 -1 forward_v I I I I #
face $-1 $40 $41 $14 $-1 $42 forward single #
loop $-1 $-1 $43 $18 #
plane-surface $-1 -28.835082577257843 -103.66058538722611 52.545135975892613 -1 0 0 0 -0.84804810408105047 0.52991925155115449 forward_v I I I I #
face $-1 $44 $45 $15 $-1 $46 reversed single #
loop $-1 $47 $48 $19 #
cone-surface $-1 -34.809073062481374 -23.232193032479195 4.9842962362121579 0 0.84804810408105047 -0.52991925155115449 0.5 0 0 1 I I 0 1 0.5 forward I I I I #
face $-1 $49 $50 $12 $-1 $51 reversed single #
loop $-1 $-1 $52 $20 #
plane-surface $-1 0 0 -7.1884649970935914 0 0 1 1 0 0 forward_v I I I I #
coedge $-1 $53 $54 $55 $56 forward $21 $-1 #
face $-1 $57 $58 $13 $-1 $59 forward single #
loop $-1 $-1 $60 $23 #
plane-surface $-1 -40.783063547704913 -22.921377744473915 0 -1 0 0 0 0 1 forward_v I I I I #
coedge $-1 $61 $62 $63 $64 reversed $24 $-1 #
face $-1 $65 $66 $14 $-1 $67 reversed single #
loop $-1 $-1 $68 $26 #
plane-surface $-1 -34.809073062481374 -24.867969399666976 3.310046726881879 0 -0.84804810408105047 0.52991925155115449 1 0 0 forward_v I I I I #
coedge $-1 $69 $70 $71 $72 reversed $27 $-1 #
face $-1 $73 $74 $15 $-1 $75 forward single #
loop $-1 $76 $77 $29 #
cone-surface $-1 -34.809073062481374 -22.596156954418408 4.5868567975487924 0 0.84804810408105047 -0.52991925155115449 0.25 0 0 1 I I -0.70710678118654746 0.70710678118654746 0.25 forward I I I I #
loop $-1 $-1 $78 $19 #
coedge $-1 $48 $48 $79 $80 reversed $30 $-1 #
face $-1 $81 $82 $12 $-1 $83 reversed single #
loop $-1 $-1 $84 $32 #
plane-surface $-1 0 -24.867969399666979 0 0 1 0 0 0 1 forward_v I I I I #
coedge $-1 $85 $86 $87 $88 forward $33 $-1 #
coedge $-1 $89 $35 $90 $91 forward $21 $-1 #
coedge $-1 $35 $89 $92 $93 forward $21 $-1 #
coedge $-1 $94 $95 $35 $56 reversed $96 $-1 #
edge $-1 $97 -24.867969399666979 $98 24.867969399666979 $55 $99 forward 7 unknown #
face $-1 $100 $101 $13 $-1 $102 reversed single #
loop $-1 $-1 $103 $36 #
plane-surface $-1 0 0 7.1884649970935914 0 0 1 1 0 0 forward_v I I I I #
coedge $-1 $104 $105 $106 $107 reversed $37 $-1 #
coedge $-1 $108 $39 $103 $109 reversed $24 $-1 #
coedge $-1 $39 $108 $110 $111 reversed $24 $-1 #
coedge $-1 $105 $104 $39 $64 forward $37 $-1 #
edge $-1 $112 -7.1884649970935914 $113 7.1884649970935914 $63 $114 forward 7 unknown #
face $-1 $115 $116 $14 $-1 $117 forward single #
loop $-1 $-1 $118 $40 #
plane-surface $-1 0 -24.867969399666979 0 0 1 0 0 0 1 forward_v I I I I #
coedge $-1 $119 $120 $121 $122 reversed $41 $-1 #
coedge $-1 $70 $43 $120 $123 forward $27 $-1 #
coedge $-1 $43 $69 $118 $124 reversed $27 $-1 #
coedge $-1 $125 $121 $43 $72 forward $126 $-1 #
edge $-1 $127 -29.385827924240598 $128 -26.962323293946074 $71 $129 forward 7 unknown #
face $-1 $130 $131 $15 $-1 $132 forward single #
loop $-1 $-1 $133 $44 #
plane-surface $-1 -28.835082577257843 -103.66058538722611 52.545135975892613 -1 0 0 0 -0.84804810408105047 0.52991925155115449 forward_v I I I I #
loop $-1 $-1 $134 $29 #
coedge $-1 $77 $77 $78 $135 forward $45 $-1 #
coedge $-1 $78 $78 $77 $135 reversed $47 $-1 #
coedge $-1 $79 $79 $48 $80 forward $131 $-1 #
edge $-1 $136 7.5243064764144144e-016 $136 6.2831853071796013 $79 $137 forward 7 unknown #
face $-1 $138 $139 $12 $-1 $140 reversed single #
loop $-1 $-1 $141 $49 #
plane-surface $-1 -46.455275124362927 0 0 1 0 0 0 0 -1 forward_v I I I I #
coedge $-1 $142 $92 $143 $144 forward $50 $-1 #
coedge $-1 $145 $52 $142 $146 forward $33 $-1 #
coedge $-1 $52 $145 $147 $148 forward $33 $-1 #
coedge $-1 $95 $94 $52 $88 reversed $96 $-1 #
edge $-1 $149 -24.867969399666979 $150 24.867969399666979 $87 $151 forward 7 unknown #
coedge $-1 $54 $53 $152 $153 forward $21 $-1 #
coedge $-1 $154 $155 $53 $91 reversed $139 $-1 #
edge $-1 $98 -46.455275124362927 $156 46.455275124362927 $90 $157 forward 7 unknown #
coedge $-1 $84 $158 $54 $93 reversed $50 $-1 #
edge $-1 $159 -46.455275124362927 $97 46.455275124362927 $92 $160 forward 7 unknown #
coedge $-1 $87 $55 $158 $161 forward $96 $-1 #
coedge $-1 $55 $87 $154 $162 reversed $96 $-1 #
loop $-1 $-1 $94 $138 #
vertex $-1 $56 $163 #
vertex $-1 $56 $164 #
straight-curve $-1 46.455275124362927 0 7.1884649970935914 0 1 0 I I #
face $-1 $165 $166 $13 $-1 $167 reversed single #
loop $-1 $-1 $106 $57 #
plane-surface $-1 0 -24.867969399666979 0 0 1 0 0 0 1 forward_v I I I I #
coedge $-1 $168 $169 $61 $109 forward $58 $-1 #
coedge $-1 $63 $60 $168 $170 reversed $37 $-1 #
coedge $-1 $60 $63 $171 $172 reversed $37 $-1 #
coedge $-1 $173 $174 $60 $107 forward $101 $-1 #
edge $-1 $175 -7.1884649970935914 $176 7.1884649970935914 $106 $177 forward 7 unknown #
coedge $-1 $62 $61 $178 $179 reversed $24 $-1 #
edge $-1 $180 -24.645690456345967 $112 -18.973478879687953 $103 $181 forward 7 unknown #
coedge $-1 $182 $171 $62 $111 forward $166 $-1 #
edge $-1 $113 18.973478879687953 $183 24.645690456345967 $110 $184 forward 7 unknown #
vertex $-1 $109 $185 #
vertex $-1 $111 $186 #
straight-curve $-1 -40.783063547704913 -20.974786089280851 0 0 0 -1 I I #
face $-1 $187 $188 $14 $-1 $189 forward single #
loop $-1 $-1 $190 $65 #
plane-surface $-1 -43.61916933603392 -20.974786089280851 0 0 -1 0 0 0 -1 forward_v I I I I #
coedge $-1 $191 $192 $70 $124 forward $66 $-1 #
coedge $-1 $193 $68 $194 $195 reversed $41 $-1 #
coedge $-1 $68 $193 $69 $123 reversed $41 $-1 #
coedge $-1 $71 $196 $68 $122 forward $126 $-1 #
edge $-1 $197 -23.378527016464226 $127 -11.430546046017156 $121 $198 forward 7 unknown #
edge $-1 $127 -4.5733470207027791 $199 6.7785685355760754e-015 $69 $200 forward 7 unknown #
edge $-1 $128 19.084102990852713 $199 22.962521261064435 $118 $201 forward 7 unknown #
coedge $-1 $202 $71 $192 $203 forward $126 $-1 #
loop $-1 $-1 $71 $187 #
vertex $-1 $122 $204 #
vertex $-1 $203 $205 #
straight-curve $-1 -28.835082577257843 -51.830292693613053 7.1884649970935932 0 -1 0 I I #
face $-1 $206 $207 $15 $-1 $208 reversed single #
loop $-1 $209 $79 $73 #
plane-surface $-1 -34.809073062481374 -24.867969399666976 3.310046726881879 0 -0.84804810408105047 0.52991925155115449 1 0 0 forward_v I I I I #
coedge $-1 $210 $211 $212 $213 reversed $74 $-1 #
coedge $-1 $134 $134 $-1 $214 forward $76 $-1 #
edge $-1 $215 0 $215 6.2831853071796004 $77 $216 forward 7 unknown #
vertex $-1 $80 $217 #
ellipse-curve $-1 -34.809073062481374 -23.656217084519717 5.2492558619877334 0 0.84804810408105047 -0.52991925155115449 0.5 0 0 1 I I #
face $-1 $-1 $96 $12 $-1 $218 reversed single #
loop $-1 $-1 $154 $81 #
plane-surface $-1 0 24.867969399666979 0 0 -1 0 0 0 -1 forward_v I I I I #
coedge $-1 $219 $152 $155 $220 forward $82 $-1 #
coedge $-1 $158 $84 $85 $146 reversed $50 $-1 #
coedge $-1 $152 $219 $84 $144 reversed $82 $-1 #
edge $-1 $159 -7.1884649970935914 $221 7.1884649970935914 $143 $222 forward 7 unknown #
coedge $-1 $86 $85 $219 $223 forward $33 $-1 #
edge $-1 $150 -46.455275124362927 $221 46.455275124362927 $142 $224 forward 7 unknown #
coedge $-1 $155 $154 $86 $148 reversed $139 $-1 #
edge $-1 $225 -46.455275124362927 $149 46.455275124362927 $147 $226 forward 7 unknown #
vertex $-1 $88 $227 #
vertex $-1 $161 $228 #
straight-curve $-1 46.455275124362927 0 -7.1884649970935914 0 -1 0 I I #
coedge $-1 $141 $143 $89 $153 reversed $82 $-1 #
edge $-1 $156 -24.867969399666979 $159 24.867969399666979 $152 $229 forward 7 unknown #
coedge $-1 $147 $90 $95 $162 forward $139 $-1 #
coedge $-1 $90 $147 $141 $220 reversed $139 $-1 #
vertex $-1 $91 $230 #
straight-curve $-1 0 24.867969399666979 7.1884649970935914 -1 0 0 I I #
coedge $-1 $92 $142 $94 $161 reversed $50 $-1 #
vertex $-1 $153 $231 #
straight-curve $-1 0 -24.867969399666979 7.1884649970935914 1 0 0 I I #
edge $-1 $97 -7.1884649970935914 $150 7.1884649970935914 $94 $232 forward 7 unknown #
edge $-1 $98 -7.1884649970935914 $149 7.1884649970935914 $95 $233 forward 7 unknown #
point $-1 46.455275124362927 -24.867969399666979 7.1884649970935914 #
point $-1 46.455275124362927 24.867969399666979 7.1884649970935914 #
face $-1 $234 $235 $13 $-1 $236 reversed single #
loop $-1 $-1 $110 $100 #
plane-surface $-1 0 0 -7.1884649970935914 0 0 1 1 0 0 forward_v I I I I #
coedge $-1 $237 $103 $104 $170 forward $58 $-1 #
coedge $-1 $103 $238 $239 $240 forward $58 $-1 #
edge $-1 $112 9.5140972170438936 $175 13.407280527430022 $168 $241 forward 7 unknown #
coedge $-1 $110 $242 $105 $172 forward $166 $-1 #
edge $-1 $176 -13.407280527430022 $113 -9.5140972170438936 $171 $243 forward 7 unknown #
coedge $-1 $244 $106 $242 $245 reversed $101 $-1 #
coedge $-1 $106 $244 $237 $246 reversed $101 $-1 #
vertex $-1 $246 $247 #
vertex $-1 $107 $248 #
straight-curve $-1 -40.783063547704913 -24.867969399666979 0 0 0 -1 I I #
coedge $-1 $239 $249 $108 $179 forward $235 $-1 #
edge $-1 $183 -7.1884649970935914 $180 7.1884649970935914 $178 $250 forward 7 unknown #
vertex $-1 $179 $251 #
straight-curve $-1 -21.80958466801696 -20.974786089280851 7.1884649970935914 1 0 0 I I #
coedge $-1 $252 $110 $249 $253 forward $166 $-1 #
vertex $-1 $253 $254 #
straight-curve $-1 -21.80958466801696 -20.974786089280851 -7.1884649970935914 -1 0 0 I I #
point $-1 -40.783063547704913 -20.974786089280851 7.1884649970935914 #
point $-1 -40.783063547704913 -20.974786089280851 -7.1884649970935914 #
face $-1 $255 $126 $14 $-1 $256 forward single #
loop $-1 $-1 $194 $115 #
plane-surface $-1 -40.783063547704913 -22.921377744473915 0 -1 0 0 0 0 1 forward_v I I I I #
coedge $-1 $257 $258 $259 $260 reversed $116 $-1 #
coedge $-1 $261 $118 $193 $262 forward $66 $-1 #
coedge $-1 $118 $263 $125 $203 reversed $66 $-1 #
coedge $-1 $120 $119 $191 $262 reversed $41 $-1 #
coedge $-1 $264 $265 $119 $195 forward $188 $-1 #
edge $-1 $266 0.88777122907810957 $197 5.4611182497808937 $194 $267 forward 7 unknown #
coedge $-1 $121 $268 $264 $269 forward $126 $-1 #
vertex $-1 $195 $270 #
straight-curve $-1 -17.404536531240687 -22.444464769372459 7.1884649970935914 1 0 0 I I #
vertex $-1 $262 $271 #
straight-curve $-1 -28.835082577257843 -24.867969399666976 3.310046726881879 0 -0.52991925155115449 -0.84804810408105047 I I #
straight-curve $-1 -28.835082577257843 -24.867969399666976 26.272567987946307 0 0 -1 I I #
coedge $-1 $272 $125 $273 $274 forward $126 $-1 #
edge $-1 $128 -28.835082577257843 $275 46.455275124362927 $192 $276 forward 7 unknown #
point $-1 -28.835082577257843 -22.444464769372455 7.1884649970935914 #
point $-1 -28.835082577257843 -24.867969399666979 7.1884649970935914 #
face $-1 $277 $278 $15 $-1 $279 forward single #
loop $-1 $-1 $280 $130 #
plane-surface $-1 0 -24.867969399666979 0 0 1 0 0 0 1 forward_v I I I I #
loop $-1 $-1 $281 $73 #
coedge $-1 $211 $133 $282 $283 forward $74 $-1 #
coedge $-1 $133 $210 $280 $284 reversed $74 $-1 #
coedge $-1 $285 $286 $133 $213 forward $287 $-1 #
edge $-1 $288 -29.385827924240598 $289 -26.962323293946074 $212 $290 forward 7 unknown #
edge $-1 $291 1 $291 0 $134 $-1 forward 7 unknown #
vertex $-1 $135 $292 #
ellipse-curve $-1 -34.809073062481374 -22.808168980438669 4.7193366104365806 0 -0.84804810408105047 0.52991925155115449 0.5 0 0 1 I I #
point $-1 -34.309073062481374 -23.656217084519721 5.2492558619877352 #
plane-surface $-1 46.455275124362927 0 0 -1 0 0 0 0 1 forward_v I I I I #
coedge $-1 $143 $141 $145 $223 reversed $82 $-1 #
edge $-1 $156 -7.1884649970935914 $225 7.1884649970935914 $155 $293 forward 7 unknown #
vertex $-1 $223 $294 #
straight-curve $-1 -46.455275124362927 -24.867969399666979 0 0 0 -1 I I #
edge $-1 $221 -24.867969399666979 $225 24.867969399666979 $219 $295 forward 7 unknown #
straight-curve $-1 0 -24.867969399666979 -7.1884649970935914 -1 0 0 I I #
vertex $-1 $148 $296 #
straight-curve $-1 0 24.867969399666979 -7.1884649970935914 1 0 0 I I #
point $-1 46.455275124362927 24.867969399666979 -7.1884649970935914 #
point $-1 46.455275124362927 -24.867969399666979 -7.1884649970935914 #
straight-curve $-1 -46.455275124362927 0 7.1884649970935914 0 -1 0 I I #
point $-1 -46.455275124362927 24.867969399666979 7.1884649970935914 #
point $-1 -46.455275124362927 -24.867969399666979 7.1884649970935914 #
straight-curve $-1 46.455275124362927 -24.867969399666979 0 0 0 -1 I I #
straight-curve $-1 46.455275124362927 24.867969399666979 0 0 0 -1 I I #
face $-1 $297 $298 $13 $-1 $299 reversed single #
loop $-1 $-1 $178 $165 #
plane-surface $-1 -46.455275124362927 0 0 1 0 0 0 0 -1 forward_v I I I I #
coedge $-1 $300 $168 $174 $246 forward $58 $-1 #
coedge $-1 $169 $300 $301 $302 forward $58 $-1 #
coedge $-1 $303 $178 $169 $240 reversed $235 $-1 #
edge $-1 $304 -24.867969399666979 $180 20.974786089280851 $239 $305 forward 7 unknown #
straight-curve $-1 -40.783063547704913 -11.460688872236958 7.1884649970935914 0 -1 0 I I #
coedge $-1 $171 $306 $173 $245 forward $166 $-1 #
straight-curve $-1 -40.783063547704913 -11.460688872236958 -7.1884649970935914 0 1 0 I I #
coedge $-1 $174 $173 $307 $308 reversed $101 $-1 #
edge $-1 $309 -46.455275124362927 $176 40.783063547704913 $173 $310 forward 7 unknown #
edge $-1 $175 -40.783063547704913 $311 46.455275124362927 $174 $312 forward 7 unknown #
point $-1 -40.783063547704913 -24.867969399666979 7.1884649970935914 #
point $-1 -40.783063547704913 -24.867969399666979 -7.1884649970935914 #
coedge $-1 $178 $303 $182 $253 reversed $235 $-1 #
straight-curve $-1 -46.455275124362927 -20.974786089280851 0 0 0 1 I I #
point $-1 -46.455275124362927 -20.974786089280851 7.1884649970935914 #
coedge $-1 $306 $182 $313 $314 forward $166 $-1 #
edge $-1 $183 -20.974786089280851 $315 24.867969399666979 $249 $316 forward 7 unknown #
point $-1 -46.455275124362927 -20.974786089280851 -7.1884649970935914 #
face $-1 $317 $318 $14 $-1 $319 reversed single #
plane-surface $-1 0 0 7.1884649970935914 0 0 1 1 0 0 forward_v I I I I #
coedge $-1 $320 $190 $268 $321 reversed $116 $-1 #
coedge $-1 $190 $320 $322 $323 reversed $116 $-1 #
coedge $-1 $324 $264 $190 $260 forward $188 $-1 #
edge $-1 $325 -7.1884649970935914 $326 7.1884649970935914 $259 $327 forward 7 unknown #
coedge $-1 $328 $191 $265 $329 forward $66 $-1 #
edge $-1 $199 11.430546046017156 $266 23.378527016464226 $191 $330 forward 7 unknown #
coedge $-1 $192 $328 $331 $332 reversed $66 $-1 #
coedge $-1 $259 $194 $196 $269 reversed $188 $-1 #
coedge $-1 $194 $324 $261 $329 reversed $188 $-1 #
vertex $-1 $329 $333 #
straight-curve $-1 -40.783063547704913 -25.338416464928699 2.5571740192044778 0 0.52991925155115449 0.84804810408105047 I I #
coedge $-1 $196 $334 $257 $321 forward $126 $-1 #
edge $-1 $325 9.5140972170438936 $197 10.983775897135502 $196 $335 forward 7 unknown #
point $-1 -40.783063547704913 -22.444464769372459 7.1884649970935914 #
point $-1 -28.835082577257843 -24.867969399666979 3.3100467268818732 #
coedge $-1 $334 $202 $336 $337 forward $126 $-1 #
coedge $-1 $331 $338 $202 $274 reversed $339 $-1 #
edge $-1 $275 -24.867969399666979 $340 24.867969399666979 $273 $341 forward 7 unknown #
vertex $-1 $274 $342 #
straight-curve $-1 0 -24.867969399666979 7.1884649970935914 1 0 0 I I #
face $-1 $343 $344 $15 $-1 $345 forward single #
loop $-1 $-1 $346 $206 #
plane-surface $-1 -43.61916933603392 -20.974786089280851 0 0 -1 0 0 0 -1 forward_v I I I I #
coedge $-1 $347 $348 $211 $284 forward $207 $-1 #
coedge $-1 $349 $282 $286 $350 reversed $209 $-1 #
coedge $-1 $281 $351 $210 $283 reversed $209 $-1 #
edge $-1 $288 -4.5733470207027791 $352 6.7785685355760754e-015 $210 $353 forward 7 unknown #
edge $-1 $289 19.084102990852713 $352 22.962521261064435 $280 $354 forward 7 unknown #
coedge $-1 $355 $212 $348 $356 forward $287 $-1 #
coedge $-1 $212 $357 $281 $350 forward $287 $-1 #
loop $-1 $-1 $212 $343 #
vertex $-1 $350 $358 #
vertex $-1 $356 $359 #
straight-curve $-1 -28.835082577257843 -51.830292693613053 7.1884649970935932 0 -1 0 I I #
vertex $-1 $214 $360 #
point $-1 -34.309073062481374 -22.808168980438669 4.7193366104365806 #
straight-curve $-1 -46.455275124362927 24.867969399666979 0 0 0 -1 I I #
point $-1 -46.455275124362927 -24.867969399666979 -7.1884649970935914 #
straight-curve $-1 -46.455275124362927 0 -7.1884649970935914 0 1 0 I I #
point $-1 -46.455275124362927 24.867969399666979 -7.1884649970935914 #
face $-1 $-1 $361 $13 $-1 $362 reversed single #
loop $-1 $-1 $363 $234 #
plane-surface $-1 0 24.867969399666979 0 0 -1 0 0 0 -1 forward_v I I I I #
coedge $-1 $238 $237 $364 $365 forward $58 $-1 #
coedge $-1 $363 $366 $238 $302 reversed $298 $-1 #
edge $-1 $367 -46.455275124362927 $304 46.455275124362927 $301 $368 forward 7 unknown #
coedge $-1 $249 $239 $366 $369 forward $235 $-1 #
vertex $-1 $302 $370 #
straight-curve $-1 -46.455275124362927 0 7.1884649970935914 0 -1 0 I I #
coedge $-1 $242 $252 $371 $372 forward $166 $-1 #
coedge $-1 $371 $364 $244 $308 forward $361 $-1 #
edge $-1 $311 -7.1884649970935914 $309 7.1884649970935914 $307 $373 forward 7 unknown #
vertex $-1 $308 $374 #
straight-curve $-1 0 -24.867969399666979 -7.1884649970935914 -1 0 0 I I #
vertex $-1 $365 $375 #
straight-curve $-1 0 -24.867969399666979 7.1884649970935914 1 0 0 I I #
coedge $-1 $366 $363 $252 $314 reversed $298 $-1 #
edge $-1 $315 -46.455275124362927 $376 46.455275124362927 $313 $377 forward 7 unknown #
vertex $-1 $314 $378 #
straight-curve $-1 -46.455275124362927 0 -7.1884649970935914 0 1 0 I I #
face $-1 $379 $380 $14 $-1 $381 reversed single #
loop $-1 $-1 $322 $255 #
plane-surface $-1 0 0 -7.1884649970935914 0 0 1 1 0 0 forward_v I I I I #
coedge $-1 $258 $257 $382 $383 reversed $116 $-1 #
edge $-1 $384 -24.645690456345967 $325 -18.973478879687953 $268 $385 forward 7 unknown #
coedge $-1 $386 $387 $258 $323 forward $318 $-1 #
edge $-1 $326 18.973478879687953 $388 24.645690456345967 $322 $389 forward 7 unknown #
coedge $-1 $265 $259 $387 $390 reversed $188 $-1 #
vertex $-1 $321 $391 #
vertex $-1 $323 $392 #
straight-curve $-1 -40.783063547704913 -20.974786089280851 0 0 0 -1 I I #
coedge $-1 $263 $261 $393 $394 reversed $66 $-1 #
edge $-1 $266 -3.3100467268818732 $395 7.1884649970935914 $261 $396 forward 7 unknown #
straight-curve $-1 -17.404536531240687 -24.867969399666979 3.310046726881871 -1 0 0 I I #
coedge $-1 $397 $273 $263 $332 forward $339 $-1 #
edge $-1 $275 -7.1884649970935914 $398 7.1884649970935914 $331 $399 forward 7 unknown #
point $-1 -40.783063547704913 -24.867969399666979 3.3100467268818732 #
coedge $-1 $268 $272 $400 $401 forward $126 $-1 #
straight-curve $-1 -40.783063547704913 -11.460688872236958 7.1884649970935914 0 -1 0 I I #
coedge $-1 $402 $403 $272 $337 reversed $404 $-1 #
edge $-1 $340 -46.455275124362927 $405 46.455275124362927 $336 $406 forward 7 unknown #
coedge $-1 $273 $397 $402 $407 reversed $339 $-1 #
loop $-1 $-1 $331 $408 #
vertex $-1 $274 $409 #
straight-curve $-1 46.455275124362927 0 7.1884649970935914 0 1 0 I I #
point $-1 46.455275124362927 -24.867969399666979 7.1884649970935914 #
face $-1 $410 $287 $15 $-1 $411 forward single #
loop $-1 $-1 $412 $277 #
plane-surface $-1 -40.783063547704913 -22.921377744473915 0 -1 0 0 0 0 1 forward_v I I I I #
coedge $-1 $413 $414 $415 $416 reversed $278 $-1 #
coedge $-1 $417 $280 $351 $418 forward $207 $-1 #
coedge $-1 $280 $419 $285 $356 reversed $207 $-1 #
coedge $-1 $351 $281 $412 $420 reversed $209 $-1 #
edge $-1 $421 -23.378527016464226 $288 -11.430546046017156 $286 $422 forward 7 unknown #
coedge $-1 $282 $349 $347 $418 reversed $209 $-1 #
vertex $-1 $418 $423 #
straight-curve $-1 -28.835082577257843 -24.867969399666976 3.310046726881879 0 -0.52991925155115449 -0.84804810408105047 I I #
straight-curve $-1 -28.835082577257843 -24.867969399666976 26.272567987946307 0 0 -1 I I #
coedge $-1 $424 $285 $425 $426 forward $287 $-1 #
edge $-1 $289 -28.835082577257843 $427 46.455275124362927 $348 $428 forward 7 unknown #
coedge $-1 $286 $429 $430 $431 forward $287 $-1 #
point $-1 -28.835082577257843 -22.444464769372455 7.1884649970935914 #
point $-1 -28.835082577257843 -24.867969399666979 7.1884649970935914 #
point $-1 -34.809073062481374 -22.384144928398147 4.4543769846610042 #
loop $-1 $-1 $307 $297 #
plane-surface $-1 46.455275124362927 0 0 -1 0 0 0 0 1 forward_v I I I I #
coedge $-1 $313 $301 $432 $433 forward $298 $-1 #
coedge $-1 $307 $432 $300 $365 reversed $361 $-1 #
edge $-1 $311 -24.867969399666979 $367 24.867969399666979 $364 $434 forward 7 unknown #
coedge $-1 $301 $313 $303 $369 reversed $298 $-1 #
vertex $-1 $365 $435 #
straight-curve $-1 0 24.867969399666979 7.1884649970935914 -1 0 0 I I #
edge $-1 $304 -7.1884649970935914 $315 7.1884649970935914 $366 $436 forward 7 unknown #
point $-1 -46.455275124362927 24.867969399666979 7.1884649970935914 #
coedge $-1 $432 $307 $306 $372 reversed $361 $-1 #
edge $-1 $376 -24.867969399666979 $309 24.867969399666979 $371 $437 forward 7 unknown #
straight-curve $-1 46.455275124362927 -24.867969399666979 0 0 0 -1 I I #
point $-1 46.455275124362927 -24.867969399666979 -7.1884649970935914 #
point $-1 46.455275124362927 -24.867969399666979 7.1884649970935914 #
vertex $-1 $372 $438 #
straight-curve $-1 0 24.867969399666979 -7.1884649970935914 1 0 0 I I #
point $-1 -46.455275124362927 24.867969399666979 -7.1884649970935914 #
face $-1 $408 $404 $14 $-1 $439 reversed single #
loop $-1 $-1 $382 $317 #
plane-surface $-1 -46.455275124362927 0 0 1 0 0 0 0 -1 forward_v I I I I #
coedge $-1 $400 $440 $320 $383 forward $380 $-1 #
edge $-1 $388 -7.1884649970935914 $384 7.1884649970935914 $382 $441 forward 7 unknown #
vertex $-1 $383 $442 #
straight-curve $-1 -21.80958466801696 -20.974786089280851 7.1884649970935914 1 0 0 I I #
coedge $-1 $443 $322 $440 $444 forward $318 $-1 #
coedge $-1 $322 $393 $324 $390 forward $318 $-1 #
vertex $-1 $444 $445 #
straight-curve $-1 -21.80958466801696 -20.974786089280851 -7.1884649970935914 -1 0 0 I I #
edge $-1 $395 -13.407280527430022 $326 -9.5140972170438936 $387 $446 forward 7 unknown #
point $-1 -40.783063547704913 -20.974786089280851 7.1884649970935914 #
point $-1 -40.783063547704913 -20.974786089280851 -7.1884649970935914 #
coedge $-1 $387 $447 $328 $394 forward $318 $-1 #
edge $-1 $398 -46.455275124362927 $395 40.783063547704913 $328 $448 forward 7 unknown #
vertex $-1 $329 $449 #
straight-curve $-1 -40.783063547704913 -24.867969399666979 0 0 0 -1 I I #
coedge $-1 $338 $331 $447 $450 reversed $339 $-1 #
vertex $-1 $332 $451 #
straight-curve $-1 46.455275124362927 -24.867969399666979 0 0 0 -1 I I #
coedge $-1 $452 $382 $334 $401 reversed $380 $-1 #
edge $-1 $405 -24.867969399666979 $384 20.974786089280851 $400 $453 forward 7 unknown #
coedge $-1 $454 $336 $338 $407 forward $404 $-1 #
coedge $-1 $336 $454 $452 $455 reversed $404 $-1 #
loop $-1 $-1 $402 $379 #
vertex $-1 $337 $456 #
straight-curve $-1 0 24.867969399666979 7.1884649970935914 -1 0 0 I I #
edge $-1 $340 -7.1884649970935914 $457 7.1884649970935914 $338 $458 forward 7 unknown #
face $-1 $-1 $339 $14 $-1 $459 reversed single #
point $-1 46.455275124362927 24.867969399666979 7.1884649970935914 #
face $-1 $460 $461 $15 $-1 $462 reversed single #
plane-surface $-1 0 0 7.1884649970935914 0 0 1 1 0 0 forward_v I I I I #
coedge $-1 $430 $463 $349 $420 forward $344 $-1 #
coedge $-1 $464 $346 $429 $465 reversed $278 $-1 #
coedge $-1 $346 $464 $466 $467 reversed $278 $-1 #
coedge $-1 $468 $430 $346 $416 forward $344 $-1 #
edge $-1 $469 -7.1884649970935914 $470 7.1884649970935914 $415 $471 forward 7 unknown #
coedge $-1 $472 $347 $463 $473 forward $207 $-1 #
edge $-1 $352 11.430546046017156 $474 23.378527016464226 $347 $475 forward 7 unknown #
coedge $-1 $348 $472 $476 $477 reversed $207 $-1 #
edge $-1 $474 0.88777122907810957 $421 5.4611182497808937 $412 $478 forward 7 unknown #
vertex $-1 $420 $479 #
straight-curve $-1 -17.404536531240687 -22.444464769372459 7.1884649970935914 1 0 0 I I #
point $-1 -28.835082577257843 -24.867969399666979 3.3100467268818732 #
coedge $-1 $480 $355 $481 $482 forward $287 $-1 #
coedge $-1 $476 $483 $355 $426 reversed $484 $-1 #
edge $-1 $427 -24.867969399666979 $485 24.867969399666979 $425 $486 forward 7 unknown #
vertex $-1 $426 $487 #
straight-curve $-1 0 -24.867969399666979 7.1884649970935914 1 0 0 I I #
coedge $-1 $357 $480 $413 $465 forward $287 $-1 #
coedge $-1 $415 $412 $357 $431 reversed $344 $-1 #
edge $-1 $469 9.5140972170438936 $421 10.983775897135502 $357 $488 forward 7 unknown #
coedge $-1 $364 $371 $363 $433 reversed $361 $-1 #
edge $-1 $367 -7.1884649970935914 $376 7.1884649970935914 $432 $489 forward 7 unknown #
straight-curve $-1 46.455275124362927 0 7.1884649970935914 0 1 0 I I #
point $-1 46.455275124362927 24.867969399666979 7.1884649970935914 #
straight-curve $-1 -46.455275124362927 24.867969399666979 0 0 0 -1 I I #
straight-curve $-1 46.455275124362927 0 -7.1884649970935914 0 -1 0 I I #
point $-1 46.455275124362927 24.867969399666979 -7.1884649970935914 #
plane-surface $-1 0 24.867969399666979 0 0 -1 0 0 0 -1 forward_v I I I I #
coedge $-1 $382 $452 $386 $444 reversed $380 $-1 #
straight-curve $-1 -46.455275124362927 -20.974786089280851 0 0 0 1 I I #
point $-1 -46.455275124362927 -20.974786089280851 7.1884649970935914 #
coedge $-1 $447 $386 $454 $490 forward $318 $-1 #
edge $-1 $388 -20.974786089280851 $491 24.867969399666979 $440 $492 forward 7 unknown #
point $-1 -46.455275124362927 -20.974786089280851 -7.1884649970935914 #
straight-curve $-1 -40.783063547704913 -11.460688872236958 -7.1884649970935914 0 1 0 I I #
coedge $-1 $393 $443 $397 $450 forward $318 $-1 #
straight-curve $-1 0 -24.867969399666979 -7.1884649970935914 -1 0 0 I I #
point $-1 -40.783063547704913 -24.867969399666979 -7.1884649970935914 #
edge $-1 $457 -24.867969399666979 $398 24.867969399666979 $397 $493 forward 7 unknown #
point $-1 46.455275124362927 -24.867969399666979 -7.1884649970935914 #
coedge $-1 $440 $400 $403 $455 forward $380 $-1 #
straight-curve $-1 -46.455275124362927 0 7.1884649970935914 0 -1 0 I I #
coedge $-1 $403 $402 $443 $490 reversed $404 $-1 #
edge $-1 $405 -7.1884649970935914 $491 7.1884649970935914 $403 $494 forward 7 unknown #
point $-1 -46.455275124362927 24.867969399666979 7.1884649970935914 #
vertex $-1 $450 $495 #
straight-curve $-1 46.455275124362927 24.867969399666979 0 0 0 -1 I I #
plane-surface $-1 46.455275124362927 0 0 -1 0 0 0 0 1 forward_v I I I I #
face $-1 $496 $497 $15 $-1 $498 reversed single #
loop $-1 $-1 $466 $410 #
plane-surface $-1 0 0 -7.1884649970935914 0 0 1 1 0 0 forward_v I I I I #
coedge $-1 $412 $468 $417 $473 reversed $344 $-1 #
coedge $-1 $414 $413 $499 $500 reversed $278 $-1 #
edge $-1 $501 -24.645690456345967 $469 -18.973478879687953 $429 $502 forward 7 unknown #
coedge $-1 $503 $504 $414 $467 forward $461 $-1 #
edge $-1 $470 18.973478879687953 $505 24.645690456345967 $466 $506 forward 7 unknown #
coedge $-1 $463 $415 $504 $507 reversed $344 $-1 #
vertex $-1 $465 $508 #
vertex $-1 $467 $509 #
straight-curve $-1 -40.783063547704913 -20.974786089280851 0 0 0 -1 I I #
coedge $-1 $419 $417 $510 $511 reversed $207 $-1 #
edge $-1 $474 -3.3100467268818732 $512 7.1884649970935914 $417 $513 forward 7 unknown #
vertex $-1 $473 $514 #
straight-curve $-1 -17.404536531240687 -24.867969399666979 3.310046726881871 -1 0 0 I I #
coedge $-1 $515 $425 $419 $477 forward $484 $-1 #
edge $-1 $427 -7.1884649970935914 $516 7.1884649970935914 $476 $517 forward 7 unknown #
straight-curve $-1 -40.783063547704913 -25.338416464928699 2.5571740192044778 0 0.52991925155115449 0.84804810408105047 I I #
point $-1 -40.783063547704913 -22.444464769372459 7.1884649970935914 #
coedge $-1 $429 $424 $518 $519 forward $287 $-1 #
coedge $-1 $520 $521 $424 $482 reversed $522 $-1 #
edge $-1 $485 -46.455275124362927 $523 46.455275124362927 $481 $524 forward 7 unknown #
coedge $-1 $425 $515 $520 $525 reversed $484 $-1 #
loop $-1 $-1 $476 $526 #
vertex $-1 $426 $527 #
straight-curve $-1 46.455275124362927 0 7.1884649970935914 0 1 0 I I #
point $-1 46.455275124362927 -24.867969399666979 7.1884649970935914 #
straight-curve $-1 -40.783063547704913 -11.460688872236958 7.1884649970935914 0 -1 0 I I #
straight-curve $-1 46.455275124362927 24.867969399666979 0 0 0 -1 I I #
edge $-1 $491 -46.455275124362927 $457 46.455275124362927 $454 $528 forward 7 unknown #
vertex $-1 $490 $529 #
straight-curve $-1 -46.455275124362927 0 -7.1884649970935914 0 1 0 I I #
straight-curve $-1 46.455275124362927 0 -7.1884649970935914 0 -1 0 I I #
straight-curve $-1 -46.455275124362927 24.867969399666979 0 0 0 -1 I I #
point $-1 46.455275124362927 24.867969399666979 -7.1884649970935914 #
face $-1 $526 $522 $15 $-1 $530 reversed single #
loop $-1 $-1 $499 $460 #
plane-surface $-1 -46.455275124362927 0 0 1 0 0 0 0 -1 forward_v I I I I #
coedge $-1 $518 $531 $464 $500 forward $497 $-1 #
edge $-1 $505 -7.1884649970935914 $501 7.1884649970935914 $499 $532 forward 7 unknown #
vertex $-1 $500 $533 #
straight-curve $-1 -21.80958466801696 -20.974786089280851 7.1884649970935914 1 0 0 I I #
coedge $-1 $534 $466 $531 $535 forward $461 $-1 #
coedge $-1 $466 $510 $468 $507 forward $461 $-1 #
vertex $-1 $535 $536 #
straight-curve $-1 -21.80958466801696 -20.974786089280851 -7.1884649970935914 -1 0 0 I I #
edge $-1 $512 -13.407280527430022 $470 -9.5140972170438936 $504 $537 forward 7 unknown #
point $-1 -40.783063547704913 -20.974786089280851 7.1884649970935914 #
point $-1 -40.783063547704913 -20.974786089280851 -7.1884649970935914 #
coedge $-1 $504 $538 $472 $511 forward $461 $-1 #
edge $-1 $516 -46.455275124362927 $512 40.783063547704913 $472 $539 forward 7 unknown #
vertex $-1 $473 $540 #
straight-curve $-1 -40.783063547704913 -24.867969399666979 0 0 0 -1 I I #
point $-1 -40.783063547704913 -24.867969399666979 3.3100467268818732 #
coedge $-1 $483 $476 $538 $541 reversed $484 $-1 #
vertex $-1 $477 $542 #
straight-curve $-1 46.455275124362927 -24.867969399666979 0 0 0 -1 I I #
coedge $-1 $543 $499 $480 $519 reversed $497 $-1 #
edge $-1 $523 -24.867969399666979 $501 20.974786089280851 $518 $544 forward 7 unknown #
coedge $-1 $545 $481 $483 $525 forward $522 $-1 #
coedge $-1 $481 $545 $543 $546 reversed $522 $-1 #
loop $-1 $-1 $520 $496 #
vertex $-1 $482 $547 #
straight-curve $-1 0 24.867969399666979 7.1884649970935914 -1 0 0 I I #
edge $-1 $485 -7.1884649970935914 $548 7.1884649970935914 $483 $549 forward 7 unknown #
face $-1 $-1 $484 $15 $-1 $550 reversed single #
point $-1 46.455275124362927 24.867969399666979 7.1884649970935914 #
straight-curve $-1 0 24.867969399666979 -7.1884649970935914 1 0 0 I I #
point $-1 -46.455275124362927 24.867969399666979 -7.1884649970935914 #
plane-surface $-1 0 24.867969399666979 0 0 -1 0 0 0 -1 forward_v I I I I #
coedge $-1 $499 $543 $503 $535 reversed $497 $-1 #
straight-curve $-1 -46.455275124362927 -20.974786089280851 0 0 0 1 I I #
point $-1 -46.455275124362927 -20.974786089280851 7.1884649970935914 #
coedge $-1 $538 $503 $545 $551 forward $461 $-1 #
edge $-1 $505 -20.974786089280851 $552 24.867969399666979 $531 $553 forward 7 unknown #
point $-1 -46.455275124362927 -20.974786089280851 -7.1884649970935914 #
straight-curve $-1 -40.783063547704913 -11.460688872236958 -7.1884649970935914 0 1 0 I I #
coedge $-1 $510 $534 $515 $541 forward $461 $-1 #
straight-curve $-1 0 -24.867969399666979 -7.1884649970935914 -1 0 0 I I #
point $-1 -40.783063547704913 -24.867969399666979 -7.1884649970935914 #
edge $-1 $548 -24.867969399666979 $516 24.867969399666979 $515 $554 forward 7 unknown #
point $-1 46.455275124362927 -24.867969399666979 -7.1884649970935914 #
coedge $-1 $531 $518 $521 $546 forward $497 $-1 #
straight-curve $-1 -46.455275124362927 0 7.1884649970935914 0 -1 0 I I #
coedge $-1 $521 $520 $534 $551 reversed $522 $-1 #
edge $-1 $523 -7.1884649970935914 $552 7.1884649970935914 $521 $555 forward 7 unknown #
point $-1 -46.455275124362927 24.867969399666979 7.1884649970935914 #
vertex $-1 $541 $556 #
straight-curve $-1 46.455275124362927 24.867969399666979 0 0 0 -1 I I #
plane-surface $-1 46.455275124362927 0 0 -1 0 0 0 0 1 forward_v I I I I #
edge $-1 $552 -46.455275124362927 $548 46.455275124362927 $545 $557 forward 7 unknown #
vertex $-1 $551 $558 #
straight-curve $-1 -46.455275124362927 0 -7.1884649970935914 0 1 0 I I #
straight-curve $-1 46.455275124362927 0 -7.1884649970935914 0 -1 0 I I #
straight-curve $-1 -46.455275124362927 24.867969399666979 0 0 0 -1 I I #
point $-1 46.455275124362927 24.867969399666979 -7.1884649970935914 #
straight-curve $-1 0 24.867969399666979 -7.1884649970935914 1 0 0 I I #
point $-1 -46.455275124362927 24.867969399666979 -7.1884649970935914 #
End-of-ACIS-data 