500 0 5 0           
7 Unknown 11 ACIS 5.0 NT 24 Fri Mar 26 01:07:09 1999 
-1 9.9999999999999995e-007 1e-010 
body $-1 $5 $-1 $6 #
body $-1 $7 $-1 $8 #
body $-1 $9 $-1 $10 #
body $-1 $11 $-1 $12 #
body $-1 $13 $-1 $14 #
lump $-1 $-1 $15 $0 #
transform $-1 1 0 0 0 1 0 0 0 1 53.297524948881495 31.803497003555417 12.202906778981928 1 rotate no_reflect no_shear #
lump $-1 $-1 $16 $1 #
transform $-1 1 0 0 0 1 0 0 0 1 53.297524948881495 31.803497003555417 12.202906778981928 1 rotate no_reflect no_shear #
lump $-1 $-1 $17 $2 #
transform $-1 1 0 0 0 1 0 0 0 1 53.297524948881495 31.803497003555417 12.202906778981928 1 rotate no_reflect no_shear #
lump $-1 $-1 $18 $3 #
transform $-1 1 0 0 0 1 0 0 0 1 53.297524948881495 31.803497003555417 12.202906778981928 1 rotate no_reflect no_shear #
lump $-1 $-1 $19 $4 #
transform $-1 1 0 0 0 1 0 0 0 1 53.297524948881495 31.803497003555417 12.202906778981928 1 rotate no_reflect no_shear #
shell $-1 $-1 $-1 $20 $-1 $5 #
shell $-1 $-1 $-1 $21 $-1 $7 #
shell $-1 $-1 $-1 $22 $-1 $9 #
shell $-1 $-1 $-1 $23 $-1 $11 #
shell $-1 $-1 $-1 $24 $-1 $13 #
face $-1 $25 $26 $15 $-1 $27 forward single #
face $-1 $28 $29 $16 $-1 $30 forward single #
face $-1 $31 $32 $17 $-1 $33 reversed single #
face $-1 $34 $35 $18 $-1 $36 forward single #
face $-1 $37 $38 $19 $-1 $39 reversed single #
face $-1 $40 $41 $15 $-1 $42 reversed single #
loop $-1 $-1 $43 $20 #
plane-surface $-1 0 0 12.202906778981928 0 0 1 1 0 0 forward_v I I I I #
face $-1 $44 $45 $16 $-1 $46 forward single #
loop $-1 $-1 $47 $21 #
plane-surface $-1 -32.121662576381986 -25.154534674271734 0 1 0 0 0 0 -1 forward_v I I I I #
face $-1 $48 $49 $17 $-1 $50 reversed single #
loop $-1 $-1 $51 $22 #
plane-surface $-1 0 36.390988516392298 6.887136315349851 0 0 1 1 0 0 forward_v I I I I #
face $-1 $52 $53 $18 $-1 $54 forward single #
loop $-1 $-1 $55 $23 #
plane-surface $-1 34.925946496645672 22.628513977881642 153.28775537068756 0 -1 0 -0.61566148304635926 0 -0.78801074757464917 forward_v I I I I #
face $-1 $56 $57 $19 $-1 $58 reversed single #
loop $-1 $59 $60 $24 #
cone-surface $-1 46.880164631126476 18.356966552691009 6.714282420977959 -0.61566148304635926 0 -0.78801074757464917 1.1820161213619738 0 -0.92349222456953894 1 I I 0 1 1.5 forward I I I I #
face $-1 $61 $62 $15 $-1 $63 reversed single #
loop $-1 $-1 $64 $25 #
plane-surface $-1 0 0 -12.202906778981928 0 0 1 1 0 0 forward_v I I I I #
coedge $-1 $65 $66 $67 $68 forward $26 $-1 #
face $-1 $69 $70 $16 $-1 $71 forward single #
loop $-1 $-1 $72 $28 #
plane-surface $-1 -30.506686983649814 -18.50557234498805 0 0 -1 0 0 0 -1 forward_v I I I I #
coedge $-1 $73 $74 $75 $76 reversed $29 $-1 #
face $-1 $77 $78 $17 $-1 $79 forward single #
loop $-1 $-1 $80 $31 #
plane-surface $-1 0 40.978480029229189 9.5450215471658897 0 -1 0 0 0 -1 forward_v I I I I #
coedge $-1 $81 $82 $83 $84 forward $32 $-1 #
face $-1 $85 $86 $18 $-1 $87 forward single #
loop $-1 $-1 $88 $34 #
plane-surface $-1 -30.700520008811758 18.356966552691009 69.289710412994324 0.61566148304635926 0 0.78801074757464917 0.78801074757464917 0 -0.61566148304635926 forward_v I I I I #
coedge $-1 $89 $90 $91 $92 reversed $35 $-1 #
face $-1 $93 $94 $19 $-1 $95 forward single #
loop $-1 $96 $97 $37 #
cone-surface $-1 45.466193107744608 18.356966552691009 4.9044814380155213 -0.61566148304635926 0 -0.78801074757464917 0.59100806068098688 0 -0.46174611228476947 1 I I -0.70710678118654757 0.70710678118654757 0.75 forward I I I I #
loop $-1 $-1 $98 $24 #
coedge $-1 $60 $60 $99 $100 reversed $38 $-1 #
face $-1 $101 $102 $15 $-1 $103 reversed single #
loop $-1 $-1 $104 $40 #
plane-surface $-1 0 -31.803497003555417 0 0 1 0 0 0 1 forward_v I I I I #
coedge $-1 $105 $106 $107 $108 forward $41 $-1 #
coedge $-1 $109 $43 $110 $111 forward $26 $-1 #
coedge $-1 $43 $109 $112 $113 forward $26 $-1 #
coedge $-1 $114 $115 $43 $68 reversed $116 $-1 #
edge $-1 $117 -31.803497003555417 $118 31.803497003555417 $67 $119 forward 7 unknown #
face $-1 $120 $121 $16 $-1 $122 forward single #
loop $-1 $-1 $123 $44 #
plane-surface $-1 -28.891711390917642 -25.154534674271734 0 -1 0 0 0 0 1 forward_v I I I I #
coedge $-1 $124 $125 $126 $127 reversed $45 $-1 #
coedge $-1 $128 $47 $129 $130 reversed $29 $-1 #
coedge $-1 $47 $128 $131 $132 reversed $29 $-1 #
coedge $-1 $125 $124 $47 $76 forward $45 $-1 #
edge $-1 $133 -12.202906778981928 $134 12.202906778981928 $75 $135 forward 7 unknown #
face $-1 $136 $137 $17 $-1 $138 forward single #
loop $-1 $-1 $139 $48 #
plane-surface $-1 -32.121662576381986 -25.154534674271734 0 1 0 0 0 0 -1 forward_v I I I I #
coedge $-1 $140 $141 $142 $143 forward $49 $-1 #
coedge $-1 $144 $51 $145 $146 reversed $32 $-1 #
coedge $-1 $51 $144 $140 $147 forward $32 $-1 #
coedge $-1 $142 $148 $51 $84 reversed $149 $-1 #
edge $-1 $150 -4.5874915128368912 $151 4.5874915128368876 $83 $152 forward 7 unknown #
face $-1 $153 $154 $18 $-1 $155 forward single #
loop $-1 $-1 $156 $52 #
plane-surface $-1 34.925946496645672 14.085419127500376 153.28775537068756 0 1 0 0.61566148304635926 0 0.78801074757464917 forward_v I I I I #
coedge $-1 $157 $158 $159 $160 reversed $53 $-1 #
coedge $-1 $90 $55 $158 $161 forward $35 $-1 #
coedge $-1 $55 $89 $162 $163 reversed $35 $-1 #
coedge $-1 $164 $159 $55 $92 forward $154 $-1 #
edge $-1 $165 24.904281887242814 $166 35.834551700558663 $91 $167 forward 7 unknown #
face $-1 $168 $169 $19 $-1 $170 forward single #
loop $-1 $-1 $171 $56 #
plane-surface $-1 34.925946496645672 22.628513977881642 153.28775537068756 0 -1 0 -0.61566148304635926 0 -0.78801074757464917 forward_v I I I I #
loop $-1 $-1 $172 $37 #
coedge $-1 $97 $97 $98 $173 forward $57 $-1 #
coedge $-1 $98 $98 $97 $173 reversed $59 $-1 #
coedge $-1 $99 $99 $60 $100 forward $169 $-1 #
edge $-1 $174 0 $174 6.2831853071796004 $99 $175 forward 7 unknown #
face $-1 $176 $177 $15 $-1 $178 reversed single #
loop $-1 $-1 $179 $61 #
plane-surface $-1 -53.297524948881495 0 0 1 0 0 0 0 -1 forward_v I I I I #
coedge $-1 $180 $112 $181 $182 forward $62 $-1 #
coedge $-1 $183 $64 $180 $184 forward $41 $-1 #
coedge $-1 $64 $183 $185 $186 forward $41 $-1 #
coedge $-1 $115 $114 $64 $108 reversed $116 $-1 #
edge $-1 $187 -31.803497003555417 $188 31.803497003555417 $107 $189 forward 7 unknown #
coedge $-1 $66 $65 $190 $191 forward $26 $-1 #
coedge $-1 $192 $193 $65 $111 reversed $177 $-1 #
edge $-1 $118 -53.297524948881495 $194 53.297524948881495 $110 $195 forward 7 unknown #
coedge $-1 $104 $196 $66 $113 reversed $62 $-1 #
edge $-1 $197 -53.297524948881495 $117 53.297524948881495 $112 $198 forward 7 unknown #
coedge $-1 $107 $67 $196 $199 forward $116 $-1 #
coedge $-1 $67 $107 $192 $200 reversed $116 $-1 #
loop $-1 $-1 $114 $176 #
vertex $-1 $68 $201 #
vertex $-1 $68 $202 #
straight-curve $-1 53.297524948881495 0 12.202906778981928 0 1 0 I I #
face $-1 $203 $204 $16 $-1 $205 reversed single #
loop $-1 $-1 $129 $69 #
plane-surface $-1 0 0 12.202906778981928 0 0 1 1 0 0 forward_v I I I I #
coedge $-1 $206 $207 $208 $209 reversed $70 $-1 #
coedge $-1 $75 $72 $210 $211 reversed $45 $-1 #
coedge $-1 $72 $75 $212 $213 reversed $45 $-1 #
coedge $-1 $207 $206 $72 $127 forward $70 $-1 #
edge $-1 $214 -12.202906778981928 $215 12.202906778981928 $126 $216 forward 7 unknown #
coedge $-1 $74 $73 $217 $218 reversed $29 $-1 #
coedge $-1 $210 $219 $73 $130 forward $121 $-1 #
edge $-1 $220 -19.226229666419549 $133 -5.9283050078521828 $129 $221 forward 7 unknown #
coedge $-1 $222 $212 $74 $132 forward $223 $-1 #
edge $-1 $134 5.9283050078521828 $224 19.226229666419549 $131 $225 forward 7 unknown #
vertex $-1 $130 $226 #
vertex $-1 $132 $227 #
straight-curve $-1 -32.121662576381986 -18.50557234498805 0 0 0 -1 I I #
face $-1 $228 $229 $17 $-1 $230 forward single #
loop $-1 $-1 $231 $77 #
plane-surface $-1 -30.506686983649814 -18.50557234498805 0 0 -1 0 0 0 -1 forward_v I I I I #
coedge $-1 $232 $233 $234 $235 reversed $78 $-1 #
coedge $-1 $236 $80 $82 $147 reversed $49 $-1 #
coedge $-1 $80 $236 $237 $238 reversed $49 $-1 #
coedge $-1 $239 $83 $80 $143 reversed $149 $-1 #
edge $-1 $240 -2.6578852318160386 $150 2.6578852318160386 $142 $241 forward 7 unknown #
coedge $-1 $82 $81 $242 $243 forward $32 $-1 #
coedge $-1 $244 $245 $81 $146 forward $246 $-1 #
edge $-1 $247 -53.297524948881495 $151 53.297524948881495 $145 $248 forward 7 unknown #
edge $-1 $249 -53.297524948881495 $150 53.297524948881495 $140 $250 forward 7 unknown #
coedge $-1 $83 $251 $244 $252 reversed $149 $-1 #
loop $-1 $-1 $253 $254 #
vertex $-1 $84 $255 #
vertex $-1 $252 $256 #
straight-curve $-1 53.297524948881495 36.390988516392298 6.887136315349851 0 -1 0 I I #
face $-1 $257 $258 $18 $-1 $259 reversed single #
loop $-1 $-1 $260 $85 #
plane-surface $-1 0 0 12.202906778981928 0 0 1 1 0 0 forward_v I I I I #
coedge $-1 $261 $262 $260 $263 reversed $86 $-1 #
coedge $-1 $264 $88 $262 $265 reversed $53 $-1 #
coedge $-1 $88 $264 $89 $161 reversed $53 $-1 #
coedge $-1 $91 $260 $88 $160 forward $154 $-1 #
edge $-1 $266 4.9069358511548717 $165 13.450030701536138 $159 $267 forward 7 unknown #
edge $-1 $165 92.72433830282958 $268 106.595049897763 $89 $269 forward 7 unknown #
coedge $-1 $270 $271 $90 $163 forward $272 $-1 #
edge $-1 $166 64.440970906361855 $268 72.980633777806901 $162 $273 forward 7 unknown #
coedge $-1 $274 $91 $271 $275 forward $154 $-1 #
vertex $-1 $160 $276 #
vertex $-1 $275 $277 #
straight-curve $-1 17.462973248322836 22.628513977881642 12.202906778981927 1 0 0 I I #
face $-1 $278 $279 $19 $-1 $280 forward single #
loop $-1 $281 $99 $93 #
plane-surface $-1 -30.700520008811758 18.356966552691009 69.289710412994324 0.61566148304635926 0 0.78801074757464917 0.78801074757464917 0 -0.61566148304635926 forward_v I I I I #
coedge $-1 $282 $283 $284 $285 reversed $94 $-1 #
coedge $-1 $172 $172 $-1 $286 forward $96 $-1 #
edge $-1 $287 0 $287 6.2831853071796004 $97 $288 forward 7 unknown #
vertex $-1 $100 $289 #
ellipse-curve $-1 47.832390042223579 18.356966552691009 7.9330753432594099 -0.61566148304635926 0 -0.78801074757464917 1.1820161213619738 0 -0.92349222456953894 1 I I #
face $-1 $-1 $116 $15 $-1 $290 reversed single #
loop $-1 $-1 $192 $101 #
plane-surface $-1 0 31.803497003555417 0 0 -1 0 0 0 -1 forward_v I I I I #
coedge $-1 $291 $190 $193 $292 forward $102 $-1 #
coedge $-1 $196 $104 $105 $184 reversed $62 $-1 #
coedge $-1 $190 $291 $104 $182 reversed $102 $-1 #
edge $-1 $197 -12.202906778981928 $293 12.202906778981928 $181 $294 forward 7 unknown #
coedge $-1 $106 $105 $291 $295 forward $41 $-1 #
edge $-1 $188 -53.297524948881495 $293 53.297524948881495 $180 $296 forward 7 unknown #
coedge $-1 $193 $192 $106 $186 reversed $177 $-1 #
edge $-1 $297 -53.297524948881495 $187 53.297524948881495 $185 $298 forward 7 unknown #
vertex $-1 $108 $299 #
vertex $-1 $199 $300 #
straight-curve $-1 53.297524948881495 0 -12.202906778981928 0 -1 0 I I #
coedge $-1 $179 $181 $109 $191 reversed $102 $-1 #
edge $-1 $194 -31.803497003555417 $197 31.803497003555417 $190 $301 forward 7 unknown #
coedge $-1 $185 $110 $115 $200 forward $177 $-1 #
coedge $-1 $110 $185 $179 $292 reversed $177 $-1 #
vertex $-1 $111 $302 #
straight-curve $-1 0 31.803497003555417 12.202906778981928 -1 0 0 I I #
coedge $-1 $112 $180 $114 $199 reversed $62 $-1 #
vertex $-1 $191 $303 #
straight-curve $-1 0 -31.803497003555417 12.202906778981928 1 0 0 I I #
edge $-1 $117 -12.202906778981928 $188 12.202906778981928 $114 $304 forward 7 unknown #
edge $-1 $118 -12.202906778981928 $187 12.202906778981928 $115 $305 forward 7 unknown #
point $-1 53.297524948881495 -31.803497003555417 12.202906778981928 #
point $-1 53.297524948881495 31.803497003555417 12.202906778981928 #
face $-1 $306 $223 $16 $-1 $307 reversed single #
loop $-1 $-1 $208 $120 #
plane-surface $-1 0 -31.803497003555417 0 0 1 0 0 0 1 forward_v I I I I #
coedge $-1 $126 $123 $308 $309 reversed $70 $-1 #
coedge $-1 $123 $126 $310 $311 reversed $70 $-1 #
coedge $-1 $312 $313 $123 $209 forward $204 $-1 #
edge $-1 $314 -12.202906778981928 $315 12.202906778981928 $208 $316 forward 7 unknown #
coedge $-1 $308 $129 $124 $211 forward $121 $-1 #
edge $-1 $133 -16.868319084557079 $214 -13.638367899092735 $210 $317 forward 7 unknown #
coedge $-1 $131 $310 $125 $213 forward $223 $-1 #
edge $-1 $215 13.638367899092735 $134 16.868319084557079 $212 $318 forward 7 unknown #
vertex $-1 $211 $319 #
vertex $-1 $213 $320 #
straight-curve $-1 -28.891711390917642 -18.50557234498805 0 0 0 -1 I I #
coedge $-1 $321 $322 $128 $218 forward $323 $-1 #
edge $-1 $224 -12.202906778981928 $220 12.202906778981928 $217 $324 forward 7 unknown #
coedge $-1 $129 $325 $321 $326 forward $121 $-1 #
vertex $-1 $218 $327 #
straight-curve $-1 -32.121662576381986 -12.577267337135867 12.202906778981928 0 1 0 I I #
coedge $-1 $328 $131 $322 $329 forward $223 $-1 #
loop $-1 $-1 $131 $203 #
vertex $-1 $329 $330 #
straight-curve $-1 -32.121662576381986 -12.577267337135867 -12.202906778981928 0 -1 0 I I #
point $-1 -32.121662576381986 -18.50557234498805 12.202906778981928 #
point $-1 -32.121662576381986 -18.50557234498805 -12.202906778981928 #
face $-1 $331 $332 $17 $-1 $333 forward single #
loop $-1 $-1 $334 $136 #
plane-surface $-1 -28.891711390917642 -25.154534674271734 0 -1 0 0 0 0 1 forward_v I I I I #
coedge $-1 $335 $336 $337 $338 reversed $137 $-1 #
coedge $-1 $339 $139 $340 $341 reversed $78 $-1 #
coedge $-1 $139 $339 $342 $343 reversed $78 $-1 #
coedge $-1 $336 $335 $139 $235 forward $137 $-1 #
edge $-1 $344 -12.202906778981928 $345 12.202906778981928 $234 $346 forward 7 unknown #
coedge $-1 $141 $140 $347 $348 reversed $49 $-1 #
coedge $-1 $349 $350 $141 $238 forward $332 $-1 #
edge $-1 $240 -53.297524948881495 $351 53.297524948881495 $141 $352 forward 7 unknown #
coedge $-1 $253 $142 $350 $353 reversed $149 $-1 #
vertex $-1 $353 $354 #
straight-curve $-1 53.297524948881495 40.978480029229189 9.5450215471658897 0 0 -1 I I #
coedge $-1 $355 $347 $144 $243 reversed $356 $-1 #
edge $-1 $247 -4.5874915128368876 $249 4.5874915128368912 $242 $357 forward 7 unknown #
coedge $-1 $358 $145 $148 $252 forward $246 $-1 #
coedge $-1 $145 $358 $355 $359 reversed $246 $-1 #
loop $-1 $-1 $145 $360 #
vertex $-1 $359 $361 #
straight-curve $-1 0 31.803497003555417 6.887136315349851 1 0 0 I I #
vertex $-1 $147 $362 #
straight-curve $-1 0 40.978480029229189 6.887136315349851 1 0 0 I I #
coedge $-1 $148 $253 $363 $364 reversed $149 $-1 #
edge $-1 $151 -6.887136315349851 $365 12.202906778981928 $148 $366 forward 7 unknown #
coedge $-1 $251 $239 $367 $368 forward $149 $-1 #
face $-1 $-1 $149 $17 $-1 $369 reversed single #
point $-1 53.297524948881495 40.978480029229189 6.887136315349851 #
point $-1 53.297524948881495 31.80349700355541 6.887136315349851 #
face $-1 $370 $371 $18 $-1 $372 reversed single #
loop $-1 $-1 $373 $153 #
plane-surface $-1 0 36.390988516392298 6.887136315349851 0 0 1 1 0 0 forward_v I I I I #
coedge $-1 $159 $374 $156 $263 forward $154 $-1 #
coedge $-1 $262 $156 $375 $376 reversed $86 $-1 #
coedge $-1 $156 $261 $157 $265 forward $86 $-1 #
edge $-1 $377 -35.834551700558663 $266 -24.904281887242814 $260 $378 forward 7 unknown #
coedge $-1 $158 $157 $270 $379 reversed $53 $-1 #
edge $-1 $380 -106.595049897763 $266 -92.72433830282958 $262 $381 forward 7 unknown #
vertex $-1 $160 $382 #
straight-curve $-1 42.367255135565664 9.1784832763455046 12.202906778981927 0 1 0 I I #
vertex $-1 $379 $383 #
straight-curve $-1 -30.700520008811758 22.628513977881642 69.289710412994324 0.78801074757464917 0 -0.61566148304635926 I I #
coedge $-1 $375 $162 $264 $379 forward $272 $-1 #
coedge $-1 $162 $384 $164 $275 reversed $272 $-1 #
loop $-1 $-1 $375 $385 #
straight-curve $-1 53.297524948881495 22.628513977881642 76.643877685343782 0 0 -1 I I #
coedge $-1 $386 $164 $387 $388 forward $154 $-1 #
edge $-1 $166 22.628513977881642 $389 40.978480029229189 $271 $390 forward 7 unknown #
point $-1 42.367255135565649 22.628513977881642 12.202906778981934 #
point $-1 53.297524948881495 22.628513977881642 12.202906778981928 #
face $-1 $391 $392 $19 $-1 $393 forward single #
loop $-1 $-1 $394 $168 #
plane-surface $-1 34.925946496645672 14.085419127500376 153.28775537068756 0 1 0 0.61566148304635926 0 0.78801074757464917 forward_v I I I I #
loop $-1 $-1 $395 $93 #
coedge $-1 $283 $171 $396 $397 forward $94 $-1 #
coedge $-1 $171 $282 $398 $399 reversed $94 $-1 #
coedge $-1 $400 $401 $171 $285 forward $392 $-1 #
edge $-1 $402 24.904281887242814 $403 35.834551700558663 $284 $404 forward 7 unknown #
edge $-1 $405 1 $405 0 $172 $-1 forward 7 unknown #
vertex $-1 $173 $406 #
ellipse-curve $-1 45.92793922002938 18.356966552691009 5.4954894986965082 0.61566148304635926 0 0.78801074757464917 1.1820161213619738 0 -0.92349222456953894 1 I I #
point $-1 49.014406163585555 18.356966552691009 7.0095831186898714 #
plane-surface $-1 53.297524948881495 0 0 -1 0 0 0 0 1 forward_v I I I I #
coedge $-1 $181 $179 $183 $295 reversed $102 $-1 #
edge $-1 $194 -12.202906778981928 $297 12.202906778981928 $193 $407 forward 7 unknown #
vertex $-1 $295 $408 #
straight-curve $-1 -53.297524948881495 -31.803497003555417 0 0 0 -1 I I #
edge $-1 $293 -31.803497003555417 $297 31.803497003555417 $291 $409 forward 7 unknown #
straight-curve $-1 0 -31.803497003555417 -12.202906778981928 -1 0 0 I I #
vertex $-1 $186 $410 #
straight-curve $-1 0 31.803497003555417 -12.202906778981928 1 0 0 I I #
point $-1 53.297524948881495 31.803497003555417 -12.202906778981928 #
point $-1 53.297524948881495 -31.803497003555417 -12.202906778981928 #
straight-curve $-1 -53.297524948881495 0 12.202906778981928 0 -1 0 I I #
point $-1 -53.297524948881495 31.803497003555417 12.202906778981928 #
point $-1 -53.297524948881495 -31.803497003555417 12.202906778981928 #
straight-curve $-1 53.297524948881495 -31.803497003555417 0 0 0 -1 I I #
straight-curve $-1 53.297524948881495 31.803497003555417 0 0 0 -1 I I #
face $-1 $411 $323 $16 $-1 $205 reversed single #
plane-surface $-1 0 0 -12.202906778981928 0 0 1 1 0 0 forward_v I I I I #
coedge $-1 $412 $210 $206 $309 forward $121 $-1 #
edge $-1 $214 5.9283050078521828 $314 19.226229666419549 $308 $413 forward 7 unknown #
coedge $-1 $212 $414 $207 $311 forward $223 $-1 #
edge $-1 $315 -19.226229666419549 $215 -5.9283050078521828 $310 $415 forward 7 unknown #
coedge $-1 $416 $208 $414 $417 reversed $204 $-1 #
coedge $-1 $208 $416 $412 $418 reversed $204 $-1 #
vertex $-1 $418 $419 #
vertex $-1 $209 $420 #
straight-curve $-1 -28.891711390917642 -31.803497003555417 0 0 0 -1 I I #
straight-curve $-1 -15.253343491824907 -18.50557234498805 12.202906778981928 1 0 0 I I #
straight-curve $-1 -15.253343491824907 -18.50557234498805 -12.202906778981928 -1 0 0 I I #
point $-1 -28.891711390917642 -18.50557234498805 12.202906778981928 #
point $-1 -28.891711390917642 -18.50557234498805 -12.202906778981928 #
coedge $-1 $421 $217 $219 $326 reversed $323 $-1 #
coedge $-1 $217 $421 $222 $329 reversed $323 $-1 #
loop $-1 $-1 $217 $306 #
straight-curve $-1 -32.121662576381986 -31.803497003555417 0 0 0 1 I I #
coedge $-1 $219 $422 $423 $424 forward $121 $-1 #
edge $-1 $425 -53.297524948881495 $220 -32.121662576381986 $321 $426 forward 7 unknown #
point $-1 -32.121662576381986 -31.803497003555417 12.202906778981928 #
coedge $-1 $427 $222 $428 $429 forward $223 $-1 #
edge $-1 $224 32.121662576381986 $430 53.297524948881495 $322 $431 forward 7 unknown #
point $-1 -32.121662576381986 -31.803497003555417 -12.202906778981928 #
face $-1 $432 $433 $17 $-1 $434 reversed single #
loop $-1 $-1 $340 $228 #
plane-surface $-1 0 0 12.202906778981928 0 0 1 1 0 0 forward_v I I I I #
coedge $-1 $435 $436 $437 $438 reversed $229 $-1 #
coedge $-1 $234 $231 $439 $440 reversed $137 $-1 #
coedge $-1 $231 $234 $441 $442 reversed $137 $-1 #
coedge $-1 $436 $435 $231 $338 forward $229 $-1 #
edge $-1 $443 -12.202906778981928 $444 12.202906778981928 $337 $445 forward 7 unknown #
coedge $-1 $233 $232 $446 $447 reversed $78 $-1 #
coedge $-1 $439 $448 $232 $341 forward $332 $-1 #
edge $-1 $449 -19.226229666419549 $344 -5.9283050078521828 $340 $450 forward 7 unknown #
coedge $-1 $451 $441 $233 $343 forward $452 $-1 #
edge $-1 $345 5.9283050078521828 $453 19.226229666419549 $342 $454 forward 7 unknown #
vertex $-1 $341 $455 #
vertex $-1 $343 $456 #
straight-curve $-1 -32.121662576381986 -18.50557234498805 0 0 0 -1 I I #
coedge $-1 $242 $457 $236 $348 forward $356 $-1 #
edge $-1 $351 -2.6578852318160386 $249 2.6578852318160386 $236 $458 forward 7 unknown #
coedge $-1 $448 $237 $457 $459 forward $332 $-1 #
coedge $-1 $237 $460 $239 $353 forward $332 $-1 #
vertex $-1 $238 $461 #
straight-curve $-1 0 40.978480029229189 12.202906778981928 -1 0 0 I I #
edge $-1 $462 -31.803497003555417 $240 40.978480029229189 $239 $463 forward 7 unknown #
point $-1 53.297524948881495 40.978480029229189 12.202906778981928 #
coedge $-1 $464 $242 $245 $359 forward $356 $-1 #
loop $-1 $-1 $355 $465 #
straight-curve $-1 -53.297524948881495 36.390988516392298 6.887136315349851 0 1 0 I I #
coedge $-1 $245 $244 $466 $467 reversed $246 $-1 #
edge $-1 $247 -6.887136315349851 $468 12.202906778981928 $245 $469 forward 7 unknown #
face $-1 $254 $246 $17 $-1 $470 reversed single #
point $-1 -53.297524948881495 31.80349700355541 6.887136315349851 #
point $-1 -53.297524948881495 40.978480029229189 6.887136315349851 #
coedge $-1 $471 $466 $251 $364 forward $452 $-1 #
edge $-1 $365 -31.803497003555417 $472 31.803497003555417 $251 $473 forward 7 unknown #
vertex $-1 $364 $474 #
straight-curve $-1 53.297524948881495 31.803497003555417 0 0 0 -1 I I #
coedge $-1 $475 $476 $253 $368 reversed $433 $-1 #
edge $-1 $462 -12.202906778981928 $472 12.202906778981928 $253 $477 forward 7 unknown #
plane-surface $-1 53.297524948881495 0 0 -1 0 0 0 0 1 forward_v I I I I #
face $-1 $478 $479 $18 $-1 $480 forward single #
loop $-1 $-1 $481 $257 #
plane-surface $-1 0 40.978480029229189 9.5450215471658897 0 -1 0 0 0 -1 forward_v I I I I #
coedge $-1 $482 $483 $484 $485 forward $258 $-1 #
coedge $-1 $260 $486 $487 $488 forward $154 $-1 #
coedge $-1 $487 $270 $261 $376 forward $272 $-1 #
edge $-1 $380 -72.980633777806901 $377 -64.440970906361855 $375 $489 forward 7 unknown #
vertex $-1 $376 $490 #
straight-curve $-1 17.462973248322836 14.085419127500376 12.202906778981927 -1 0 0 I I #
edge $-1 $268 -13.450030701536138 $380 -4.9069358511548717 $270 $491 forward 7 unknown #
vertex $-1 $379 $492 #
straight-curve $-1 -30.700520008811758 14.085419127500376 69.289710412994324 -0.78801074757464917 0 0.61566148304635926 I I #
point $-1 42.367255135565649 14.085419127500376 12.202906778981934 #
point $-1 53.297524948881495 22.628513977881642 3.6632439075368808 #
coedge $-1 $271 $484 $481 $493 reversed $272 $-1 #
face $-1 $-1 $272 $18 $-1 $494 reversed single #
coedge $-1 $495 $274 $496 $497 forward $154 $-1 #
coedge $-1 $481 $498 $274 $388 reversed $371 $-1 #
edge $-1 $389 -53.297524948881495 $499 53.297524948881495 $387 $500 forward 7 unknown #
vertex $-1 $275 $501 #
straight-curve $-1 53.297524948881495 0 12.202906778981928 0 1 0 I I #
face $-1 $502 $503 $19 $-1 $504 reversed single #
loop $-1 $-1 $505 $278 #
plane-surface $-1 0 0 12.202906778981928 0 0 1 1 0 0 forward_v I I I I #
coedge $-1 $506 $507 $505 $508 reversed $279 $-1 #
coedge $-1 $509 $396 $401 $510 reversed $281 $-1 #
coedge $-1 $395 $511 $282 $397 reversed $281 $-1 #
edge $-1 $402 92.72433830282958 $512 106.595049897763 $282 $513 forward 7 unknown #
coedge $-1 $514 $515 $283 $399 forward $516 $-1 #
edge $-1 $403 64.440970906361855 $512 72.980633777806901 $398 $517 forward 7 unknown #
coedge $-1 $518 $284 $515 $519 forward $392 $-1 #
coedge $-1 $284 $505 $395 $510 forward $392 $-1 #
vertex $-1 $510 $520 #
vertex $-1 $519 $521 #
straight-curve $-1 17.462973248322836 22.628513977881642 12.202906778981927 1 0 0 I I #
vertex $-1 $286 $522 #
point $-1 47.109955341391348 18.356966552691009 4.5719972741269697 #
straight-curve $-1 -53.297524948881495 31.803497003555417 0 0 0 -1 I I #
point $-1 -53.297524948881495 -31.803497003555417 -12.202906778981928 #
straight-curve $-1 -53.297524948881495 0 -12.202906778981928 0 1 0 I I #
point $-1 -53.297524948881495 31.803497003555417 -12.202906778981928 #
face $-1 $523 $524 $16 $-1 $525 reversed single #
coedge $-1 $526 $308 $313 $418 forward $121 $-1 #
straight-curve $-1 -28.891711390917642 -12.577267337135867 12.202906778981928 0 -1 0 I I #
coedge $-1 $310 $527 $312 $417 forward $223 $-1 #
straight-curve $-1 -28.891711390917642 -12.577267337135867 -12.202906778981928 0 1 0 I I #
coedge $-1 $313 $312 $528 $529 reversed $204 $-1 #
edge $-1 $530 -53.297524948881495 $315 28.891711390917642 $312 $431 forward 7 unknown #
edge $-1 $314 -28.891711390917642 $531 53.297524948881495 $313 $426 forward 7 unknown #
point $-1 -28.891711390917642 -31.803497003555417 12.202906778981928 #
point $-1 -28.891711390917642 -31.803497003555417 -12.202906778981928 #
coedge $-1 $322 $321 $532 $533 forward $323 $-1 #
coedge $-1 $325 $526 $534 $535 forward $121 $-1 #
coedge $-1 $536 $532 $325 $424 reversed $524 $-1 #
edge $-1 $537 -31.803497003555417 $425 31.803497003555417 $423 $538 forward 7 unknown #
vertex $-1 $424 $539 #
straight-curve $-1 0 -31.803497003555417 12.202906778981928 1 0 0 I I #
coedge $-1 $527 $328 $540 $541 forward $223 $-1 #
coedge $-1 $532 $536 $328 $429 reversed $524 $-1 #
edge $-1 $430 -31.803497003555417 $542 31.803497003555417 $428 $543 forward 7 unknown #
vertex $-1 $429 $544 #
straight-curve $-1 0 -31.803497003555417 -12.202906778981928 -1 0 0 I I #
face $-1 $545 $452 $17 $-1 $546 reversed single #
loop $-1 $-1 $437 $331 #
plane-surface $-1 0 -31.803497003555417 0 0 1 0 0 0 1 forward_v I I I I #
coedge $-1 $337 $334 $547 $548 reversed $229 $-1 #
coedge $-1 $334 $337 $549 $550 reversed $229 $-1 #
coedge $-1 $476 $475 $334 $438 forward $433 $-1 #
edge $-1 $551 -12.202906778981928 $552 12.202906778981928 $437 $553 forward 7 unknown #
coedge $-1 $547 $340 $335 $440 forward $332 $-1 #
edge $-1 $344 -16.868319084557079 $443 -13.638367899092735 $439 $554 forward 7 unknown #
coedge $-1 $342 $549 $336 $442 forward $452 $-1 #
edge $-1 $444 13.638367899092735 $345 16.868319084557079 $441 $555 forward 7 unknown #
vertex $-1 $440 $556 #
vertex $-1 $442 $557 #
straight-curve $-1 -28.891711390917642 -18.50557234498805 0 0 0 -1 I I #
coedge $-1 $558 $559 $339 $447 forward $560 $-1 #
edge $-1 $453 -12.202906778981928 $449 12.202906778981928 $446 $561 forward 7 unknown #
coedge $-1 $340 $349 $558 $562 forward $332 $-1 #
vertex $-1 $447 $563 #
straight-curve $-1 -32.121662576381986 -12.577267337135867 12.202906778981928 0 1 0 I I #
coedge $-1 $564 $342 $559 $565 forward $452 $-1 #
loop $-1 $-1 $342 $432 #
vertex $-1 $565 $566 #
straight-curve $-1 -32.121662576381986 -12.577267337135867 -12.202906778981928 0 -1 0 I I #
point $-1 -32.121662576381986 -18.50557234498805 12.202906778981928 #
point $-1 -32.121662576381986 -18.50557234498805 -12.202906778981928 #
coedge $-1 $347 $567 $349 $459 reversed $356 $-1 #
straight-curve $-1 -53.297524948881495 40.978480029229189 9.5450215471658897 0 0 -1 I I #
edge $-1 $351 -40.978480029229189 $568 31.803497003555417 $457 $569 forward 7 unknown #
coedge $-1 $350 $547 $475 $570 forward $332 $-1 #
point $-1 -53.297524948881495 40.978480029229189 12.202906778981928 #
vertex $-1 $353 $571 #
straight-curve $-1 53.297524948881495 0 12.202906778981928 0 1 0 I I #
coedge $-1 $567 $355 $564 $572 reversed $356 $-1 #
face $-1 $360 $356 $17 $-1 $573 reversed single #
coedge $-1 $363 $564 $358 $467 forward $452 $-1 #
edge $-1 $468 -53.297524948881495 $365 53.297524948881495 $358 $574 forward 7 unknown #
vertex $-1 $467 $575 #
straight-curve $-1 -53.297524948881495 31.803497003555417 0 0 0 -1 I I #
plane-surface $-1 0 31.803497003555417 0 0 -1 0 0 0 -1 forward_v I I I I #
coedge $-1 $549 $363 $476 $576 forward $452 $-1 #
vertex $-1 $368 $577 #
straight-curve $-1 53.297524948881495 0 -12.202906778981928 0 -1 0 I I #
point $-1 53.297524948881495 31.803497003555417 -12.202906778981928 #
coedge $-1 $437 $367 $460 $570 reversed $433 $-1 #
coedge $-1 $367 $437 $471 $576 reversed $433 $-1 #
straight-curve $-1 53.297524948881495 -31.803497003555417 0 0 0 -1 I I #
face $-1 $578 $579 $18 $-1 $580 forward single #
loop $-1 $-1 $581 $370 #
plane-surface $-1 -32.121662576381986 -25.154534674271734 0 1 0 0 0 0 -1 forward_v I I I I #
coedge $-1 $582 $387 $384 $493 forward $371 $-1 #
coedge $-1 $583 $373 $584 $585 reversed $258 $-1 #
coedge $-1 $373 $583 $582 $586 forward $258 $-1 #
coedge $-1 $384 $587 $373 $485 reversed $272 $-1 #
edge $-1 $588 -4.5874915128368912 $589 4.5874915128368876 $484 $590 forward 7 unknown #
coedge $-1 $374 $591 $592 $593 forward $154 $-1 #
coedge $-1 $594 $375 $374 $488 reversed $272 $-1 #
edge $-1 $595 -31.803497003555417 $377 14.085419127500376 $487 $390 forward 7 unknown #
straight-curve $-1 53.297524948881495 14.085419127500376 76.643877685343782 0 0 1 I I #
point $-1 53.297524948881495 14.085419127500376 12.202906778981928 #
straight-curve $-1 53.297524948881502 9.1784832763455046 3.6632439075368879 0 -1 0 I I #
point $-1 53.297524948881495 14.085419127500376 3.6632439075368808 #
edge $-1 $389 -2.6578852318160386 $588 2.6578852318160386 $384 $596 forward 7 unknown #
plane-surface $-1 53.297524948881495 0 0 -1 0 0 0 0 1 forward_v I I I I #
coedge $-1 $597 $386 $598 $599 forward $154 $-1 #
coedge $-1 $600 $601 $386 $497 reversed $602 $-1 #
edge $-1 $499 -40.978480029229189 $603 31.803497003555417 $496 $604 forward 7 unknown #
coedge $-1 $387 $582 $600 $605 reversed $371 $-1 #
vertex $-1 $388 $606 #
straight-curve $-1 0 40.978480029229189 12.202906778981928 -1 0 0 I I #
point $-1 53.297524948881495 40.978480029229189 12.202906778981928 #
face $-1 $607 $608 $19 $-1 $609 reversed single #
loop $-1 $-1 $610 $391 #
plane-surface $-1 0 36.390988516392298 6.887136315349851 0 0 1 1 0 0 forward_v I I I I #
coedge $-1 $401 $611 $394 $508 forward $392 $-1 #
coedge $-1 $507 $394 $612 $613 reversed $279 $-1 #
coedge $-1 $394 $506 $509 $614 forward $279 $-1 #
edge $-1 $615 -35.834551700558663 $616 -24.904281887242814 $505 $617 forward 7 unknown #
coedge $-1 $511 $395 $507 $614 reversed $281 $-1 #
edge $-1 $616 4.9069358511548717 $402 13.450030701536138 $401 $618 forward 7 unknown #
coedge $-1 $396 $509 $514 $619 reversed $281 $-1 #
vertex $-1 $619 $620 #
straight-curve $-1 -30.700520008811758 22.628513977881642 69.289710412994324 0.78801074757464917 0 -0.61566148304635926 I I #
coedge $-1 $612 $398 $511 $619 forward $516 $-1 #
coedge $-1 $398 $621 $400 $519 reversed $516 $-1 #
loop $-1 $-1 $612 $622 #
straight-curve $-1 53.297524948881495 22.628513977881642 76.643877685343782 0 0 -1 I I #
coedge $-1 $623 $400 $624 $625 forward $392 $-1 #
edge $-1 $403 22.628513977881642 $626 40.978480029229189 $515 $627 forward 7 unknown #
point $-1 42.367255135565649 22.628513977881642 12.202906778981934 #
point $-1 53.297524948881495 22.628513977881642 12.202906778981928 #
point $-1 45.004446995459837 18.356966552691009 4.3134733773345344 #
face $-1 $628 $629 $16 $-1 $630 reversed single #
loop $-1 $-1 $536 $411 #
plane-surface $-1 -53.297524948881495 0 0 1 0 0 0 0 -1 forward_v I I I I #
coedge $-1 $422 $412 $631 $632 forward $121 $-1 #
coedge $-1 $414 $427 $633 $634 forward $223 $-1 #
coedge $-1 $633 $631 $416 $529 forward $635 $-1 #
edge $-1 $531 -12.202906778981928 $530 12.202906778981928 $528 $636 forward 7 unknown #
vertex $-1 $529 $637 #
vertex $-1 $632 $638 #
coedge $-1 $423 $428 $421 $533 reversed $524 $-1 #
edge $-1 $425 -12.202906778981928 $430 12.202906778981928 $532 $639 forward 7 unknown #
coedge $-1 $640 $641 $422 $535 reversed $629 $-1 #
edge $-1 $642 -53.297524948881495 $537 53.297524948881495 $534 $643 forward 7 unknown #
coedge $-1 $428 $423 $641 $644 forward $524 $-1 #
vertex $-1 $535 $645 #
straight-curve $-1 -53.297524948881495 0 12.202906778981928 0 -1 0 I I #
point $-1 -53.297524948881495 -31.803497003555417 12.202906778981928 #
coedge $-1 $641 $640 $427 $541 reversed $629 $-1 #
edge $-1 $542 -53.297524948881495 $646 53.297524948881495 $540 $647 forward 7 unknown #
vertex $-1 $541 $648 #
straight-curve $-1 -53.297524948881495 0 -12.202906778981928 0 1 0 I I #
point $-1 -53.297524948881495 -31.803497003555417 -12.202906778981928 #
face $-1 $465 $560 $17 $-1 $434 reversed single #
plane-surface $-1 0 0 -12.202906778981928 0 0 1 1 0 0 forward_v I I I I #
coedge $-1 $460 $439 $435 $548 forward $332 $-1 #
edge $-1 $443 5.9283050078521828 $551 19.226229666419549 $547 $649 forward 7 unknown #
coedge $-1 $441 $471 $436 $550 forward $452 $-1 #
edge $-1 $552 -19.226229666419549 $444 -5.9283050078521828 $549 $650 forward 7 unknown #
vertex $-1 $570 $651 #
vertex $-1 $438 $652 #
straight-curve $-1 -28.891711390917642 -31.803497003555417 0 0 0 -1 I I #
straight-curve $-1 -15.253343491824907 -18.50557234498805 12.202906778981928 1 0 0 I I #
straight-curve $-1 -15.253343491824907 -18.50557234498805 -12.202906778981928 -1 0 0 I I #
point $-1 -28.891711390917642 -18.50557234498805 12.202906778981928 #
point $-1 -28.891711390917642 -18.50557234498805 -12.202906778981928 #
coedge $-1 $653 $446 $448 $562 reversed $560 $-1 #
coedge $-1 $446 $653 $451 $565 reversed $560 $-1 #
loop $-1 $-1 $446 $545 #
straight-curve $-1 -32.121662576381986 -31.803497003555417 0 0 0 1 I I #
edge $-1 $568 -53.297524948881495 $449 -32.121662576381986 $558 $654 forward 7 unknown #
point $-1 -32.121662576381986 -31.803497003555417 12.202906778981928 #
coedge $-1 $466 $451 $464 $572 forward $452 $-1 #
edge $-1 $453 32.121662576381986 $655 53.297524948881495 $559 $656 forward 7 unknown #
point $-1 -32.121662576381986 -31.803497003555417 -12.202906778981928 #
coedge $-1 $457 $464 $653 $657 reversed $356 $-1 #
vertex $-1 $459 $658 #
straight-curve $-1 -53.297524948881495 0 12.202906778981928 0 -1 0 I I #
edge $-1 $551 -28.891711390917642 $462 53.297524948881495 $475 $654 forward 7 unknown #
point $-1 53.297524948881495 -31.803497003555417 12.202906778981928 #
edge $-1 $655 -31.803497003555417 $468 31.803497003555417 $464 $659 forward 7 unknown #
plane-surface $-1 -53.297524948881495 0 0 1 0 0 0 0 -1 forward_v I I I I #
straight-curve $-1 0 31.803497003555417 -12.202906778981928 1 0 0 I I #
point $-1 -53.297524948881495 31.803497003555417 -12.202906778981928 #
edge $-1 $472 -53.297524948881495 $552 28.891711390917642 $476 $656 forward 7 unknown #
point $-1 53.297524948881495 -31.803497003555417 -12.202906778981928 #
face $-1 $660 $661 $18 $-1 $662 forward single #
loop $-1 $-1 $663 $478 #
plane-surface $-1 -30.506686983649814 -18.50557234498805 0 0 -1 0 0 0 -1 forward_v I I I I #
coedge $-1 $664 $665 $666 $667 reversed $479 $-1 #
coedge $-1 $498 $481 $483 $586 reversed $371 $-1 #
coedge $-1 $483 $482 $668 $669 forward $258 $-1 #
coedge $-1 $670 $671 $482 $585 forward $672 $-1 #
edge $-1 $673 -53.297524948881495 $589 53.297524948881495 $584 $674 forward 7 unknown #
edge $-1 $675 -53.297524948881495 $588 53.297524948881495 $582 $676 forward 7 unknown #
coedge $-1 $484 $677 $670 $678 reversed $272 $-1 #
vertex $-1 $485 $679 #
vertex $-1 $678 $680 #
straight-curve $-1 53.297524948881495 36.390988516392298 6.887136315349851 0 -1 0 I I #
coedge $-1 $486 $681 $682 $683 forward $154 $-1 #
coedge $-1 $684 $685 $486 $593 reversed $686 $-1 #
edge $-1 $687 -28.891711390917642 $595 53.297524948881495 $592 $688 forward 7 unknown #
coedge $-1 $677 $487 $685 $689 forward $272 $-1 #
vertex $-1 $488 $690 #
straight-curve $-1 53.297524948881495 40.978480029229189 9.5450215471658897 0 0 -1 I I #
coedge $-1 $681 $495 $664 $691 forward $154 $-1 #
coedge $-1 $692 $693 $495 $599 reversed $694 $-1 #
edge $-1 $603 -53.297524948881495 $695 -32.121662576381986 $598 $688 forward 7 unknown #
coedge $-1 $668 $496 $498 $605 forward $602 $-1 #
coedge $-1 $496 $696 $692 $697 reversed $602 $-1 #
loop $-1 $-1 $698 $699 #
vertex $-1 $497 $700 #
straight-curve $-1 -53.297524948881495 0 12.202906778981928 0 -1 0 I I #
edge $-1 $499 -2.6578852318160386 $675 2.6578852318160386 $498 $701 forward 7 unknown #
point $-1 -53.297524948881495 40.978480029229189 12.202906778981928 #
face $-1 $702 $703 $19 $-1 $704 forward single #
loop $-1 $-1 $705 $502 #
plane-surface $-1 0 40.978480029229189 9.5450215471658897 0 -1 0 0 0 -1 forward_v I I I I #
coedge $-1 $706 $707 $708 $709 forward $503 $-1 #
coedge $-1 $505 $710 $711 $712 forward $392 $-1 #
coedge $-1 $711 $514 $506 $613 forward $516 $-1 #
edge $-1 $713 -72.980633777806901 $615 -64.440970906361855 $612 $714 forward 7 unknown #
edge $-1 $713 -106.595049897763 $616 -92.72433830282958 $507 $715 forward 7 unknown #
vertex $-1 $613 $716 #
vertex $-1 $510 $717 #
straight-curve $-1 17.462973248322836 14.085419127500376 12.202906778981927 -1 0 0 I I #
straight-curve $-1 42.367255135565664 9.1784832763455046 12.202906778981927 0 1 0 I I #
edge $-1 $512 -13.450030701536138 $713 -4.9069358511548717 $514 $718 forward 7 unknown #
point $-1 53.297524948881495 22.628513977881642 3.6632439075368808 #
coedge $-1 $515 $708 $705 $719 reversed $516 $-1 #
face $-1 $-1 $516 $19 $-1 $720 reversed single #
coedge $-1 $721 $518 $722 $723 forward $392 $-1 #
coedge $-1 $705 $724 $518 $625 reversed $608 $-1 #
edge $-1 $626 -53.297524948881495 $725 53.297524948881495 $624 $726 forward 7 unknown #
vertex $-1 $519 $727 #
straight-curve $-1 53.297524948881495 0 12.202906778981928 0 1 0 I I #
face $-1 $-1 $635 $16 $-1 $728 reversed single #
loop $-1 $-1 $640 $523 #
plane-surface $-1 0 31.803497003555417 0 0 -1 0 0 0 -1 forward_v I I I I #
coedge $-1 $528 $729 $526 $632 reversed $635 $-1 #
edge $-1 $531 -31.803497003555417 $642 31.803497003555417 $631 $730 forward 7 unknown #
coedge $-1 $729 $528 $527 $634 reversed $635 $-1 #
edge $-1 $646 -31.803497003555417 $530 31.803497003555417 $633 $731 forward 7 unknown #
loop $-1 $-1 $528 $628 #
straight-curve $-1 53.297524948881495 -31.803497003555417 0 0 0 -1 I I #
point $-1 53.297524948881495 -31.803497003555417 -12.202906778981928 #
point $-1 53.297524948881495 -31.803497003555417 12.202906778981928 #
straight-curve $-1 -53.297524948881495 -31.803497003555417 0 0 0 -1 I I #
coedge $-1 $540 $534 $729 $732 forward $629 $-1 #
coedge $-1 $534 $540 $536 $644 reversed $629 $-1 #
vertex $-1 $632 $733 #
straight-curve $-1 0 31.803497003555417 12.202906778981928 -1 0 0 I I #
edge $-1 $537 -12.202906778981928 $542 12.202906778981928 $641 $734 forward 7 unknown #
point $-1 -53.297524948881495 31.803497003555417 12.202906778981928 #
vertex $-1 $634 $735 #
straight-curve $-1 0 31.803497003555417 -12.202906778981928 1 0 0 I I #
point $-1 -53.297524948881495 31.803497003555417 -12.202906778981928 #
straight-curve $-1 -28.891711390917642 -12.577267337135867 12.202906778981928 0 -1 0 I I #
straight-curve $-1 -28.891711390917642 -12.577267337135867 -12.202906778981928 0 1 0 I I #
point $-1 -28.891711390917642 -31.803497003555417 12.202906778981928 #
point $-1 -28.891711390917642 -31.803497003555417 -12.202906778981928 #
coedge $-1 $559 $558 $567 $657 forward $560 $-1 #
straight-curve $-1 0 -31.803497003555417 12.202906778981928 1 0 0 I I #
vertex $-1 $572 $736 #
straight-curve $-1 0 -31.803497003555417 -12.202906778981928 -1 0 0 I I #
edge $-1 $568 -12.202906778981928 $655 12.202906778981928 $567 $737 forward 7 unknown #
point $-1 -53.297524948881495 -31.803497003555417 12.202906778981928 #
straight-curve $-1 -53.297524948881495 0 -12.202906778981928 0 1 0 I I #
face $-1 $738 $686 $18 $-1 $739 reversed single #
loop $-1 $-1 $740 $578 #
plane-surface $-1 -28.891711390917642 -25.154534674271734 0 -1 0 0 0 0 1 forward_v I I I I #
coedge $-1 $741 $742 $743 $744 reversed $579 $-1 #
coedge $-1 $745 $581 $597 $691 reversed $479 $-1 #
coedge $-1 $581 $745 $746 $747 reversed $479 $-1 #
coedge $-1 $742 $741 $581 $667 forward $579 $-1 #
edge $-1 $748 -12.202906778981928 $749 12.202906778981928 $666 $750 forward 7 unknown #
coedge $-1 $698 $600 $583 $669 reversed $602 $-1 #
edge $-1 $673 -4.5874915128368876 $675 4.5874915128368912 $668 $751 forward 7 unknown #
coedge $-1 $752 $584 $587 $678 forward $672 $-1 #
coedge $-1 $584 $752 $698 $753 reversed $672 $-1 #
loop $-1 $-1 $584 $754 #
vertex $-1 $753 $755 #
straight-curve $-1 0 31.803497003555417 6.887136315349851 1 0 0 I I #
vertex $-1 $586 $756 #
straight-curve $-1 0 40.978480029229189 6.887136315349851 1 0 0 I I #
coedge $-1 $587 $594 $757 $758 reversed $272 $-1 #
edge $-1 $589 -6.887136315349851 $759 12.202906778981928 $587 $760 forward 7 unknown #
point $-1 53.297524948881495 40.978480029229189 6.887136315349851 #
point $-1 53.297524948881495 31.80349700355541 6.887136315349851 #
coedge $-1 $591 $597 $741 $761 forward $154 $-1 #
coedge $-1 $743 $740 $591 $683 reversed $661 $-1 #
edge $-1 $762 5.9283050078521828 $687 19.226229666419549 $591 $763 forward 7 unknown #
coedge $-1 $764 $592 $740 $765 forward $686 $-1 #
coedge $-1 $592 $764 $594 $689 reversed $686 $-1 #
loop $-1 $-1 $684 $660 #
vertex $-1 $593 $766 #
straight-curve $-1 0 -31.803497003555417 12.202906778981928 1 0 0 I I #
edge $-1 $595 -12.202906778981928 $767 12.202906778981928 $594 $768 forward 7 unknown #
point $-1 53.297524948881495 -31.803497003555417 12.202906778981928 #
edge $-1 $695 -19.226229666419549 $748 -5.9283050078521828 $597 $769 forward 7 unknown #
coedge $-1 $770 $598 $601 $697 forward $694 $-1 #
coedge $-1 $598 $770 $745 $771 forward $694 $-1 #
loop $-1 $-1 $693 $772 #
vertex $-1 $771 $773 #
coedge $-1 $601 $698 $774 $775 reversed $602 $-1 #
edge $-1 $603 -12.202906778981928 $776 12.202906778981928 $601 $777 forward 7 unknown #
coedge $-1 $696 $668 $671 $753 forward $602 $-1 #
face $-1 $754 $602 $18 $-1 $778 reversed single #
point $-1 -53.297524948881495 -31.803497003555417 12.202906778981928 #
straight-curve $-1 -53.297524948881495 40.978480029229189 9.5450215471658897 0 0 -1 I I #
face $-1 $779 $780 $19 $-1 $781 forward single #
loop $-1 $-1 $782 $607 #
plane-surface $-1 -32.121662576381986 -25.154534674271734 0 1 0 0 0 0 -1 forward_v I I I I #
coedge $-1 $783 $624 $621 $719 forward $608 $-1 #
coedge $-1 $784 $610 $785 $786 reversed $503 $-1 #
coedge $-1 $610 $784 $783 $787 forward $503 $-1 #
coedge $-1 $621 $788 $610 $709 reversed $516 $-1 #
edge $-1 $789 -4.5874915128368912 $790 4.5874915128368876 $708 $791 forward 7 unknown #
coedge $-1 $611 $792 $793 $794 forward $392 $-1 #
coedge $-1 $795 $612 $611 $712 reversed $516 $-1 #
edge $-1 $796 -31.803497003555417 $615 14.085419127500376 $711 $627 forward 7 unknown #
vertex $-1 $619 $797 #
straight-curve $-1 53.297524948881495 14.085419127500376 76.643877685343782 0 0 1 I I #
straight-curve $-1 -30.700520008811758 14.085419127500376 69.289710412994324 -0.78801074757464917 0 0.61566148304635926 I I #
point $-1 53.297524948881495 14.085419127500376 12.202906778981928 #
point $-1 42.367255135565649 14.085419127500376 12.202906778981934 #
straight-curve $-1 53.297524948881502 9.1784832763455046 3.6632439075368879 0 -1 0 I I #
edge $-1 $626 -2.6578852318160386 $789 2.6578852318160386 $621 $798 forward 7 unknown #
plane-surface $-1 53.297524948881495 0 0 -1 0 0 0 0 1 forward_v I I I I #
coedge $-1 $799 $623 $800 $801 forward $392 $-1 #
coedge $-1 $802 $803 $623 $723 reversed $804 $-1 #
edge $-1 $725 -40.978480029229189 $805 31.803497003555417 $722 $806 forward 7 unknown #
coedge $-1 $624 $783 $802 $807 reversed $608 $-1 #
vertex $-1 $625 $808 #
straight-curve $-1 0 40.978480029229189 12.202906778981928 -1 0 0 I I #
point $-1 53.297524948881495 40.978480029229189 12.202906778981928 #
plane-surface $-1 53.297524948881495 0 0 -1 0 0 0 0 1 forward_v I I I I #
coedge $-1 $631 $633 $640 $732 reversed $635 $-1 #
straight-curve $-1 53.297524948881495 0 12.202906778981928 0 1 0 I I #
straight-curve $-1 53.297524948881495 0 -12.202906778981928 0 -1 0 I I #
edge $-1 $642 -12.202906778981928 $646 12.202906778981928 $729 $809 forward 7 unknown #
point $-1 53.297524948881495 31.803497003555417 12.202906778981928 #
straight-curve $-1 -53.297524948881495 31.803497003555417 0 0 0 -1 I I #
point $-1 53.297524948881495 31.803497003555417 -12.202906778981928 #
point $-1 -53.297524948881495 -31.803497003555417 -12.202906778981928 #
straight-curve $-1 -53.297524948881495 -31.803497003555417 0 0 0 -1 I I #
face $-1 $772 $810 $18 $-1 $811 reversed single #
plane-surface $-1 0 -31.803497003555417 0 0 1 0 0 0 1 forward_v I I I I #
coedge $-1 $682 $812 $684 $765 reversed $661 $-1 #
coedge $-1 $666 $663 $681 $761 reversed $579 $-1 #
coedge $-1 $663 $666 $813 $814 reversed $579 $-1 #
coedge $-1 $812 $682 $663 $744 forward $661 $-1 #
edge $-1 $762 -12.202906778981928 $815 12.202906778981928 $743 $816 forward 7 unknown #
coedge $-1 $665 $664 $693 $771 reversed $479 $-1 #
coedge $-1 $817 $813 $665 $747 forward $810 $-1 #
edge $-1 $749 5.9283050078521828 $818 19.226229666419549 $746 $819 forward 7 unknown #
vertex $-1 $691 $820 #
vertex $-1 $747 $821 #
straight-curve $-1 -32.121662576381986 -18.50557234498805 0 0 0 -1 I I #
straight-curve $-1 -53.297524948881495 36.390988516392298 6.887136315349851 0 1 0 I I #
coedge $-1 $671 $670 $822 $823 reversed $672 $-1 #
edge $-1 $673 -6.887136315349851 $824 12.202906778981928 $671 $825 forward 7 unknown #
face $-1 $385 $672 $18 $-1 $826 reversed single #
point $-1 -53.297524948881495 31.80349700355541 6.887136315349851 #
point $-1 -53.297524948881495 40.978480029229189 6.887136315349851 #
coedge $-1 $827 $822 $677 $758 forward $810 $-1 #
edge $-1 $759 -31.803497003555417 $767 31.803497003555417 $677 $828 forward 7 unknown #
vertex $-1 $758 $829 #
straight-curve $-1 53.297524948881495 31.803497003555417 0 0 0 -1 I I #
edge $-1 $748 -16.868319084557079 $762 -13.638367899092735 $681 $830 forward 7 unknown #
vertex $-1 $761 $831 #
straight-curve $-1 -28.891711390917642 -12.577267337135867 12.202906778981928 0 -1 0 I I #
coedge $-1 $685 $684 $827 $832 reversed $686 $-1 #
edge $-1 $687 -12.202906778981928 $833 12.202906778981928 $684 $834 forward 7 unknown #
point $-1 -28.891711390917642 -31.803497003555417 12.202906778981928 #
vertex $-1 $689 $835 #
straight-curve $-1 53.297524948881495 -31.803497003555417 0 0 0 -1 I I #
straight-curve $-1 -32.121662576381986 -12.577267337135867 12.202906778981928 0 1 0 I I #
coedge $-1 $693 $692 $817 $836 reversed $694 $-1 #
edge $-1 $818 -12.202906778981928 $695 12.202906778981928 $693 $837 forward 7 unknown #
face $-1 $699 $694 $18 $-1 $739 reversed single #
point $-1 -32.121662576381986 -31.803497003555417 12.202906778981928 #
coedge $-1 $822 $817 $696 $775 forward $810 $-1 #
edge $-1 $776 -31.803497003555417 $824 31.803497003555417 $696 $838 forward 7 unknown #
vertex $-1 $775 $839 #
straight-curve $-1 -53.297524948881495 -31.803497003555417 0 0 0 -1 I I #
plane-surface $-1 -53.297524948881495 0 0 1 0 0 0 0 -1 forward_v I I I I #
face $-1 $840 $841 $19 $-1 $842 forward single #
loop $-1 $-1 $843 $702 #
plane-surface $-1 -30.506686983649814 -18.50557234498805 0 0 -1 0 0 0 -1 forward_v I I I I #
coedge $-1 $844 $845 $846 $847 reversed $703 $-1 #
coedge $-1 $724 $705 $707 $787 reversed $608 $-1 #
coedge $-1 $707 $706 $848 $849 forward $503 $-1 #
coedge $-1 $850 $851 $706 $786 forward $852 $-1 #
edge $-1 $853 -53.297524948881495 $790 53.297524948881495 $785 $854 forward 7 unknown #
edge $-1 $855 -53.297524948881495 $789 53.297524948881495 $783 $856 forward 7 unknown #
coedge $-1 $708 $857 $850 $858 reversed $516 $-1 #
vertex $-1 $709 $859 #
vertex $-1 $858 $860 #
straight-curve $-1 53.297524948881495 36.390988516392298 6.887136315349851 0 -1 0 I I #
coedge $-1 $710 $861 $862 $863 forward $392 $-1 #
coedge $-1 $864 $865 $710 $794 reversed $866 $-1 #
edge $-1 $867 -28.891711390917642 $796 53.297524948881495 $793 $868 forward 7 unknown #
coedge $-1 $857 $711 $865 $869 forward $516 $-1 #
vertex $-1 $712 $870 #
point $-1 53.297524948881495 14.085419127500376 3.6632439075368808 #
straight-curve $-1 53.297524948881495 40.978480029229189 9.5450215471658897 0 0 -1 I I #
coedge $-1 $861 $721 $844 $871 forward $392 $-1 #
coedge $-1 $872 $873 $721 $801 reversed $874 $-1 #
edge $-1 $805 -53.297524948881495 $875 -32.121662576381986 $800 $868 forward 7 unknown #
coedge $-1 $848 $722 $724 $807 forward $804 $-1 #
coedge $-1 $722 $876 $872 $877 reversed $804 $-1 #
loop $-1 $-1 $878 $879 #
vertex $-1 $723 $880 #
straight-curve $-1 -53.297524948881495 0 12.202906778981928 0 -1 0 I I #
edge $-1 $725 -2.6578852318160386 $855 2.6578852318160386 $724 $881 forward 7 unknown #
point $-1 -53.297524948881495 40.978480029229189 12.202906778981928 #
straight-curve $-1 53.297524948881495 31.803497003555417 0 0 0 -1 I I #
loop $-1 $-1 $746 $738 #
plane-surface $-1 0 0 -12.202906778981928 0 0 1 1 0 0 forward_v I I I I #
coedge $-1 $740 $743 $882 $883 reversed $661 $-1 #
coedge $-1 $746 $882 $742 $814 forward $810 $-1 #
edge $-1 $815 13.638367899092735 $749 16.868319084557079 $813 $884 forward 7 unknown #
vertex $-1 $814 $885 #
straight-curve $-1 -28.891711390917642 -18.50557234498805 0 0 0 -1 I I #
coedge $-1 $774 $746 $770 $836 forward $810 $-1 #
vertex $-1 $836 $886 #
straight-curve $-1 -32.121662576381986 -12.577267337135867 -12.202906778981928 0 -1 0 I I #
point $-1 -32.121662576381986 -18.50557234498805 12.202906778981928 #
point $-1 -32.121662576381986 -18.50557234498805 -12.202906778981928 #
coedge $-1 $757 $774 $752 $823 forward $810 $-1 #
edge $-1 $824 -53.297524948881495 $759 53.297524948881495 $752 $887 forward 7 unknown #
vertex $-1 $823 $888 #
straight-curve $-1 -53.297524948881495 31.803497003555417 0 0 0 -1 I I #
plane-surface $-1 0 31.803497003555417 0 0 -1 0 0 0 -1 forward_v I I I I #
coedge $-1 $882 $757 $764 $832 forward $810 $-1 #
straight-curve $-1 53.297524948881495 0 -12.202906778981928 0 -1 0 I I #
point $-1 53.297524948881495 31.803497003555417 -12.202906778981928 #
straight-curve $-1 -15.253343491824907 -18.50557234498805 12.202906778981928 1 0 0 I I #
point $-1 -28.891711390917642 -18.50557234498805 12.202906778981928 #
edge $-1 $767 -53.297524948881495 $833 28.891711390917642 $764 $889 forward 7 unknown #
vertex $-1 $765 $890 #
straight-curve $-1 -28.891711390917642 -31.803497003555417 0 0 0 -1 I I #
point $-1 53.297524948881495 -31.803497003555417 -12.202906778981928 #
edge $-1 $818 32.121662576381986 $776 53.297524948881495 $770 $889 forward 7 unknown #
straight-curve $-1 -32.121662576381986 -31.803497003555417 0 0 0 1 I I #
straight-curve $-1 -53.297524948881495 0 -12.202906778981928 0 1 0 I I #
point $-1 -53.297524948881495 -31.803497003555417 -12.202906778981928 #
face $-1 $891 $866 $19 $-1 $892 reversed single #
loop $-1 $-1 $893 $779 #
plane-surface $-1 -28.891711390917642 -25.154534674271734 0 -1 0 0 0 0 1 forward_v I I I I #
coedge $-1 $894 $895 $896 $897 reversed $780 $-1 #
coedge $-1 $898 $782 $799 $871 reversed $703 $-1 #
coedge $-1 $782 $898 $899 $900 reversed $703 $-1 #
coedge $-1 $895 $894 $782 $847 forward $780 $-1 #
edge $-1 $901 -12.202906778981928 $902 12.202906778981928 $846 $903 forward 7 unknown #
coedge $-1 $878 $802 $784 $849 reversed $804 $-1 #
edge $-1 $853 -4.5874915128368876 $855 4.5874915128368912 $848 $904 forward 7 unknown #
coedge $-1 $905 $785 $788 $858 forward $852 $-1 #
coedge $-1 $785 $905 $878 $906 reversed $852 $-1 #
loop $-1 $-1 $785 $907 #
vertex $-1 $906 $908 #
straight-curve $-1 0 31.803497003555417 6.887136315349851 1 0 0 I I #
vertex $-1 $787 $909 #
straight-curve $-1 0 40.978480029229189 6.887136315349851 1 0 0 I I #
coedge $-1 $788 $795 $910 $911 reversed $516 $-1 #
edge $-1 $790 -6.887136315349851 $912 12.202906778981928 $788 $913 forward 7 unknown #
point $-1 53.297524948881495 40.978480029229189 6.887136315349851 #
point $-1 53.297524948881495 31.80349700355541 6.887136315349851 #
coedge $-1 $792 $799 $894 $914 forward $392 $-1 #
coedge $-1 $896 $893 $792 $863 reversed $841 $-1 #
edge $-1 $915 5.9283050078521828 $867 19.226229666419549 $792 $916 forward 7 unknown #
coedge $-1 $917 $793 $893 $918 forward $866 $-1 #
coedge $-1 $793 $917 $795 $869 reversed $866 $-1 #
loop $-1 $-1 $864 $840 #
vertex $-1 $794 $919 #
straight-curve $-1 0 -31.803497003555417 12.202906778981928 1 0 0 I I #
edge $-1 $796 -12.202906778981928 $920 12.202906778981928 $795 $921 forward 7 unknown #
point $-1 53.297524948881495 -31.803497003555417 12.202906778981928 #
edge $-1 $875 -19.226229666419549 $901 -5.9283050078521828 $799 $922 forward 7 unknown #
coedge $-1 $923 $800 $803 $877 forward $874 $-1 #
coedge $-1 $800 $923 $898 $924 forward $874 $-1 #
loop $-1 $-1 $873 $925 #
vertex $-1 $924 $926 #
coedge $-1 $803 $878 $927 $928 reversed $804 $-1 #
edge $-1 $805 -12.202906778981928 $929 12.202906778981928 $803 $930 forward 7 unknown #
coedge $-1 $876 $848 $851 $906 forward $804 $-1 #
face $-1 $907 $804 $19 $-1 $931 reversed single #
point $-1 -53.297524948881495 -31.803497003555417 12.202906778981928 #
straight-curve $-1 -53.297524948881495 40.978480029229189 9.5450215471658897 0 0 -1 I I #
coedge $-1 $813 $827 $812 $883 forward $810 $-1 #
edge $-1 $833 -19.226229666419549 $815 -5.9283050078521828 $882 $932 forward 7 unknown #
straight-curve $-1 -15.253343491824907 -18.50557234498805 -12.202906778981928 -1 0 0 I I #
point $-1 -28.891711390917642 -18.50557234498805 -12.202906778981928 #
point $-1 -32.121662576381986 -31.803497003555417 -12.202906778981928 #
straight-curve $-1 0 31.803497003555417 -12.202906778981928 1 0 0 I I #
point $-1 -53.297524948881495 31.803497003555417 -12.202906778981928 #
straight-curve $-1 0 -31.803497003555417 -12.202906778981928 -1 0 0 I I #
point $-1 -28.891711390917642 -31.803497003555417 -12.202906778981928 #
face $-1 $925 $933 $19 $-1 $934 reversed single #
plane-surface $-1 0 -31.803497003555417 0 0 1 0 0 0 1 forward_v I I I I #
coedge $-1 $862 $935 $864 $918 reversed $841 $-1 #
coedge $-1 $846 $843 $861 $914 reversed $780 $-1 #
coedge $-1 $843 $846 $936 $937 reversed $780 $-1 #
coedge $-1 $935 $862 $843 $897 forward $841 $-1 #
edge $-1 $915 -12.202906778981928 $938 12.202906778981928 $896 $939 forward 7 unknown #
coedge $-1 $845 $844 $873 $924 reversed $703 $-1 #
coedge $-1 $940 $936 $845 $900 forward $933 $-1 #
edge $-1 $902 5.9283050078521828 $941 19.226229666419549 $899 $942 forward 7 unknown #
vertex $-1 $871 $943 #
vertex $-1 $900 $944 #
straight-curve $-1 -32.121662576381986 -18.50557234498805 0 0 0 -1 I I #
straight-curve $-1 -53.297524948881495 36.390988516392298 6.887136315349851 0 1 0 I I #
coedge $-1 $851 $850 $945 $946 reversed $852 $-1 #
edge $-1 $853 -6.887136315349851 $947 12.202906778981928 $851 $948 forward 7 unknown #
face $-1 $622 $852 $19 $-1 $949 reversed single #
point $-1 -53.297524948881495 31.80349700355541 6.887136315349851 #
point $-1 -53.297524948881495 40.978480029229189 6.887136315349851 #
coedge $-1 $950 $945 $857 $911 forward $933 $-1 #
edge $-1 $912 -31.803497003555417 $920 31.803497003555417 $857 $951 forward 7 unknown #
vertex $-1 $911 $952 #
straight-curve $-1 53.297524948881495 31.803497003555417 0 0 0 -1 I I #
edge $-1 $901 -16.868319084557079 $915 -13.638367899092735 $861 $953 forward 7 unknown #
vertex $-1 $914 $954 #
straight-curve $-1 -28.891711390917642 -12.577267337135867 12.202906778981928 0 -1 0 I I #
coedge $-1 $865 $864 $950 $955 reversed $866 $-1 #
edge $-1 $867 -12.202906778981928 $956 12.202906778981928 $864 $957 forward 7 unknown #
point $-1 -28.891711390917642 -31.803497003555417 12.202906778981928 #
vertex $-1 $869 $958 #
straight-curve $-1 53.297524948881495 -31.803497003555417 0 0 0 -1 I I #
straight-curve $-1 -32.121662576381986 -12.577267337135867 12.202906778981928 0 1 0 I I #
coedge $-1 $873 $872 $940 $959 reversed $874 $-1 #
edge $-1 $941 -12.202906778981928 $875 12.202906778981928 $873 $960 forward 7 unknown #
face $-1 $879 $874 $19 $-1 $892 reversed single #
point $-1 -32.121662576381986 -31.803497003555417 12.202906778981928 #
coedge $-1 $945 $940 $876 $928 forward $933 $-1 #
edge $-1 $929 -31.803497003555417 $947 31.803497003555417 $876 $961 forward 7 unknown #
vertex $-1 $928 $962 #
straight-curve $-1 -53.297524948881495 -31.803497003555417 0 0 0 -1 I I #
plane-surface $-1 -53.297524948881495 0 0 1 0 0 0 0 -1 forward_v I I I I #
straight-curve $-1 -28.891711390917642 -12.577267337135867 -12.202906778981928 0 1 0 I I #
loop $-1 $-1 $899 $891 #
plane-surface $-1 0 0 -12.202906778981928 0 0 1 1 0 0 forward_v I I I I #
coedge $-1 $893 $896 $963 $964 reversed $841 $-1 #
coedge $-1 $899 $963 $895 $937 forward $933 $-1 #
edge $-1 $938 13.638367899092735 $902 16.868319084557079 $936 $965 forward 7 unknown #
vertex $-1 $937 $966 #
straight-curve $-1 -28.891711390917642 -18.50557234498805 0 0 0 -1 I I #
coedge $-1 $927 $899 $923 $959 forward $933 $-1 #
vertex $-1 $959 $967 #
straight-curve $-1 -32.121662576381986 -12.577267337135867 -12.202906778981928 0 -1 0 I I #
point $-1 -32.121662576381986 -18.50557234498805 12.202906778981928 #
point $-1 -32.121662576381986 -18.50557234498805 -12.202906778981928 #
coedge $-1 $910 $927 $905 $946 forward $933 $-1 #
edge $-1 $947 -53.297524948881495 $912 53.297524948881495 $905 $968 forward 7 unknown #
vertex $-1 $946 $969 #
straight-curve $-1 -53.297524948881495 31.803497003555417 0 0 0 -1 I I #
plane-surface $-1 0 31.803497003555417 0 0 -1 0 0 0 -1 forward_v I I I I #
coedge $-1 $963 $910 $917 $955 forward $933 $-1 #
straight-curve $-1 53.297524948881495 0 -12.202906778981928 0 -1 0 I I #
point $-1 53.297524948881495 31.803497003555417 -12.202906778981928 #
straight-curve $-1 -15.253343491824907 -18.50557234498805 12.202906778981928 1 0 0 I I #
point $-1 -28.891711390917642 -18.50557234498805 12.202906778981928 #
edge $-1 $920 -53.297524948881495 $956 28.891711390917642 $917 $970 forward 7 unknown #
vertex $-1 $918 $971 #
straight-curve $-1 -28.891711390917642 -31.803497003555417 0 0 0 -1 I I #
point $-1 53.297524948881495 -31.803497003555417 -12.202906778981928 #
edge $-1 $941 32.121662576381986 $929 53.297524948881495 $923 $970 forward 7 unknown #
straight-curve $-1 -32.121662576381986 -31.803497003555417 0 0 0 1 I I #
straight-curve $-1 -53.297524948881495 0 -12.202906778981928 0 1 0 I I #
point $-1 -53.297524948881495 -31.803497003555417 -12.202906778981928 #
coedge $-1 $936 $950 $935 $964 forward $933 $-1 #
edge $-1 $956 -19.226229666419549 $938 -5.9283050078521828 $963 $972 forward 7 unknown #
straight-curve $-1 -15.253343491824907 -18.50557234498805 -12.202906778981928 -1 0 0 I I #
point $-1 -28.891711390917642 -18.50557234498805 -12.202906778981928 #
point $-1 -32.121662576381986 -31.803497003555417 -12.202906778981928 #
straight-curve $-1 0 31.803497003555417 -12.202906778981928 1 0 0 I I #
point $-1 -53.297524948881495 31.803497003555417 -12.202906778981928 #
straight-curve $-1 0 -31.803497003555417 -12.202906778981928 -1 0 0 I I #
point $-1 -28.891711390917642 -31.803497003555417 -12.202906778981928 #
straight-curve $-1 -28.891711390917642 -12.577267337135867 -12.202906778981928 0 1 0 I I #
End-of-ACIS-data 