500 0 11 0           
7 Unknown 11 ACIS 5.0 NT 24 Fri Mar 26 19:05:27 1999 
-1 9.9999999999999995e-007 1e-010 
body $-1 $11 $-1 $12 #
body $-1 $13 $-1 $14 #
body $-1 $15 $-1 $16 #
body $-1 $17 $-1 $18 #
body $-1 $19 $-1 $20 #
body $-1 $21 $-1 $22 #
body $-1 $23 $-1 $24 #
body $-1 $25 $-1 $26 #
body $-1 $27 $-1 $28 #
body $-1 $29 $-1 $30 #
body $-1 $31 $-1 $32 #
lump $-1 $-1 $33 $0 #
transform $-1 1 0 0 0 1 0 0 0 1 76.736960966826388 45.943348498403878 17.216101531189974 1 rotate no_reflect no_shear #
lump $-1 $-1 $34 $1 #
transform $-1 1 0 0 0 1 0 0 0 1 76.736960966826388 45.943348498403878 17.216101531189974 1 rotate no_reflect no_shear #
lump $-1 $-1 $35 $2 #
transform $-1 1 0 0 0 1 0 0 0 1 76.736960966826388 45.943348498403878 17.216101531189974 1 rotate no_reflect no_shear #
lump $-1 $-1 $36 $3 #
transform $-1 1 0 0 0 1 0 0 0 1 76.736960966826388 45.943348498403878 17.216101531189974 1 rotate no_reflect no_shear #
lump $-1 $-1 $37 $4 #
transform $-1 1 0 0 0 1 0 0 0 1 76.736960966826388 45.943348498403878 17.216101531189974 1 rotate no_reflect no_shear #
lump $-1 $-1 $38 $5 #
transform $-1 1 0 0 0 1 0 0 0 1 76.736960966826388 45.943348498403878 17.216101531189974 1 rotate no_reflect no_shear #
lump $-1 $-1 $39 $6 #
transform $-1 1 0 0 0 1 0 0 0 1 76.736960966826388 45.943348498403878 17.216101531189974 1 rotate no_reflect no_shear #
lump $-1 $-1 $40 $7 #
transform $-1 1 0 0 0 1 0 0 0 1 76.736960966826388 45.943348498403878 17.216101531189974 1 rotate no_reflect no_shear #
lump $-1 $-1 $41 $8 #
transform $-1 1 0 0 0 1 0 0 0 1 76.736960966826388 45.943348498403878 17.216101531189974 1 rotate no_reflect no_shear #
lump $-1 $-1 $42 $9 #
transform $-1 1 0 0 0 1 0 0 0 1 76.736960966826388 45.943348498403878 17.216101531189974 1 rotate no_reflect no_shear #
lump $-1 $-1 $43 $10 #
transform $-1 1 0 0 0 1 0 0 0 1 76.736960966826388 45.943348498403878 17.216101531189974 1 rotate no_reflect no_shear #
shell $-1 $-1 $-1 $44 $-1 $11 #
shell $-1 $-1 $-1 $45 $-1 $13 #
shell $-1 $-1 $-1 $46 $-1 $15 #
shell $-1 $-1 $-1 $47 $-1 $17 #
shell $-1 $-1 $-1 $48 $-1 $19 #
shell $-1 $-1 $-1 $49 $-1 $21 #
shell $-1 $-1 $-1 $50 $-1 $23 #
shell $-1 $-1 $-1 $51 $-1 $25 #
shell $-1 $-1 $-1 $52 $-1 $27 #
shell $-1 $-1 $-1 $53 $-1 $29 #
shell $-1 $-1 $-1 $54 $-1 $31 #
face $-1 $55 $56 $33 $-1 $57 forward single #
face $-1 $58 $59 $34 $-1 $60 forward single #
face $-1 $61 $62 $35 $-1 $63 reversed single #
face $-1 $64 $65 $36 $-1 $66 forward single #
face $-1 $67 $68 $37 $-1 $69 forward single #
face $-1 $70 $71 $38 $-1 $72 reversed single #
face $-1 $73 $74 $39 $-1 $75 forward single #
face $-1 $76 $77 $40 $-1 $78 forward single #
face $-1 $79 $80 $41 $-1 $81 reversed single #
face $-1 $82 $83 $42 $-1 $84 forward single #
face $-1 $85 $86 $43 $-1 $87 forward single #
face $-1 $88 $89 $33 $-1 $90 reversed single #
loop $-1 $-1 $91 $44 #
plane-surface $-1 0 0 17.216101531189974 0 0 1 1 0 0 forward_v I I I I #
face $-1 $92 $93 $34 $-1 $94 reversed single #
loop $-1 $-1 $95 $45 #
plane-surface $-1 -76.736960966826388 0 0 1 0 0 0 0 -1 forward_v I I I I #
face $-1 $96 $97 $35 $-1 $98 reversed single #
loop $-1 $-1 $99 $46 #
plane-surface $-1 19.617877021604635 -178.85566489850302 79.770467681868894 -1 0 0 0 -0.86602541151947299 0.49999998660252726 forward_v I I I I #
face $-1 $100 $101 $36 $-1 $102 forward single #
loop $-1 $103 $104 $47 #
cone-surface $-1 -0.31339751295284657 -40.138656416243066 9.1372300258300179 0 0.86602541151947299 -0.49999998660252726 1.5 0 0 1 I I 0 1 1.5 forward I I I I #
face $-1 $105 $106 $37 $-1 $107 forward single #
loop $-1 $108 $109 $48 #
cone-surface $-1 11.645367207781646 -40.138656416243066 9.1372300258300179 0 0.86602541151947299 -0.49999998660252726 1.5 0 0 1 I I 0 1 1.5 forward I I I I #
face $-1 $110 $111 $38 $-1 $112 reversed single #
loop $-1 $-1 $113 $49 #
plane-surface $-1 -60.074294549832516 101.48849263543534 180.83435378298572 1 0 0 0 -0.75470958851134928 -0.65605901945558964 forward_v I I I I #
face $-1 $114 $115 $39 $-1 $116 forward single #
loop $-1 $117 $118 $50 #
cone-surface $-1 -50.90025971252004 42.095723931417616 13.087388382716004 0 -0.75470958851134928 -0.65605901945558964 1 0 0 1 I I 0 1 1 forward I I I I #
face $-1 $119 $120 $40 $-1 $121 forward single #
loop $-1 $122 $123 $51 #
cone-surface $-1 -37.139207456551333 42.095723931417616 13.087388382716004 0 -0.75470958851134928 -0.65605901945558964 1 0 0 1 I I 0 1 1 forward I I I I #
face $-1 $124 $125 $41 $-1 $126 reversed single #
loop $-1 $-1 $127 $52 #
plane-surface $-1 8.331333208496936 101.48849263543534 180.83435378298572 1 0 0 0 -0.75470958851134928 -0.65605901945558964 forward_v I I I I #
face $-1 $128 $129 $42 $-1 $130 forward single #
loop $-1 $131 $132 $53 #
cone-surface $-1 17.505368045809405 42.095723931417616 13.087388382716004 0 -0.75470958851134928 -0.65605901945558964 1 0 0 1 I I 0 1 1 forward I I I I #
face $-1 $133 $134 $43 $-1 $135 forward single #
loop $-1 $136 $137 $54 #
cone-surface $-1 31.266420301778112 42.095723931417616 13.087388382716004 0 -0.75470958851134928 -0.65605901945558964 1 0 0 1 I I 0 1 1 forward I I I I #
face $-1 $138 $139 $33 $-1 $140 reversed single #
loop $-1 $-1 $141 $55 #
plane-surface $-1 0 0 -17.216101531189974 0 0 1 1 0 0 forward_v I I I I #
coedge $-1 $142 $143 $144 $145 forward $56 $-1 #
face $-1 $146 $147 $34 $-1 $148 reversed single #
loop $-1 $-1 $149 $58 #
plane-surface $-1 0 0 -17.216101531189974 0 0 1 1 0 0 forward_v I I I I #
coedge $-1 $150 $151 $152 $153 forward $59 $-1 #
face $-1 $154 $155 $35 $-1 $156 reversed single #
loop $-1 $-1 $157 $61 #
plane-surface $-1 5.6659848474143928 -45.943348498403907 3.0335087712051916 0 -0.86602541151947299 0.49999998660252726 1 0 0 forward_v I I I I #
coedge $-1 $158 $159 $160 $161 reversed $62 $-1 #
face $-1 $-1 $162 $36 $-1 $163 forward single #
loop $-1 $164 $165 $64 #
cone-surface $-1 -0.31339751295284657 -37.778607003064216 7.7746549105105593 0 0.86602541151947299 -0.49999998660252726 0.75 0 0 1 I I -0.70710678118654713 0.70710678118654802 0.75 forward I I I I #
loop $-1 $-1 $166 $47 #
coedge $-1 $104 $104 $167 $168 reversed $65 $-1 #
face $-1 $-1 $169 $37 $-1 $170 forward single #
loop $-1 $171 $172 $67 #
cone-surface $-1 11.645367207781646 -37.778607003064216 7.7746549105105593 0 0.86602541151947299 -0.49999998660252726 0.75 0 0 1 I I -0.70710678118654713 0.70710678118654802 0.75 forward I I I I #
loop $-1 $-1 $173 $48 #
coedge $-1 $109 $109 $174 $175 reversed $68 $-1 #
face $-1 $176 $177 $38 $-1 $178 reversed single #
loop $-1 $-1 $179 $70 #
plane-surface $-1 -44.019733584535693 -14.339747834334688 80.146403047189764 0 0.75470958851134928 0.65605901945558964 1 0 0 forward_v I I I I #
coedge $-1 $180 $181 $182 $183 reversed $71 $-1 #
face $-1 $-1 $184 $39 $-1 $185 forward single #
loop $-1 $186 $187 $73 #
cone-surface $-1 -50.90025971252004 40.660055177149928 11.839380606578249 0 -0.75470958851134928 -0.65605901945558964 0.5 0 0 1 I I -0.70710678118654746 0.70710678118654746 0.5 forward I I I I #
loop $-1 $-1 $188 $50 #
coedge $-1 $118 $118 $189 $190 reversed $74 $-1 #
face $-1 $-1 $191 $40 $-1 $192 forward single #
loop $-1 $193 $194 $76 #
cone-surface $-1 -37.139207456551333 40.660055177149928 11.839380606578249 0 -0.75470958851134928 -0.65605901945558964 0.5 0 0 1 I I -0.70710678118654746 0.70710678118654746 0.5 forward I I I I #
loop $-1 $-1 $195 $51 #
coedge $-1 $123 $123 $196 $197 reversed $77 $-1 #
face $-1 $198 $199 $41 $-1 $200 reversed single #
loop $-1 $-1 $201 $79 #
plane-surface $-1 24.385894173793758 -14.339747834334688 80.146403047189764 0 0.75470958851134928 0.65605901945558964 1 0 0 forward_v I I I I #
coedge $-1 $202 $203 $204 $205 reversed $80 $-1 #
face $-1 $-1 $206 $42 $-1 $207 forward single #
loop $-1 $208 $209 $82 #
cone-surface $-1 17.505368045809405 40.660055177149928 11.839380606578249 0 -0.75470958851134928 -0.65605901945558964 0.5 0 0 1 I I -0.70710678118654746 0.70710678118654746 0.5 forward I I I I #
loop $-1 $-1 $210 $53 #
coedge $-1 $132 $132 $211 $212 reversed $83 $-1 #
face $-1 $-1 $213 $43 $-1 $214 forward single #
loop $-1 $215 $216 $85 #
cone-surface $-1 31.266420301778112 40.660055177149928 11.839380606578249 0 -0.75470958851134928 -0.65605901945558964 0.5 0 0 1 I I -0.70710678118654746 0.70710678118654746 0.5 forward I I I I #
loop $-1 $-1 $217 $54 #
coedge $-1 $137 $137 $218 $219 reversed $86 $-1 #
face $-1 $220 $221 $33 $-1 $222 reversed single #
loop $-1 $-1 $223 $88 #
plane-surface $-1 0 -45.943348498403878 0 0 1 0 0 0 1 forward_v I I I I #
coedge $-1 $224 $225 $226 $227 forward $89 $-1 #
coedge $-1 $228 $91 $229 $230 forward $56 $-1 #
coedge $-1 $91 $228 $231 $232 forward $56 $-1 #
coedge $-1 $233 $234 $91 $145 reversed $235 $-1 #
edge $-1 $236 -45.943348498403878 $237 45.943348498403878 $144 $238 forward 7 unknown #
face $-1 $239 $240 $34 $-1 $241 reversed single #
loop $-1 $-1 $242 $92 #
plane-surface $-1 -85.068294175323331 -20.591381950881299 0 0 1 0 0 0 1 forward_v I I I I #
coedge $-1 $243 $244 $151 $245 forward $93 $-1 #
coedge $-1 $246 $95 $247 $248 reversed $59 $-1 #
coedge $-1 $95 $246 $149 $245 reversed $59 $-1 #
coedge $-1 $249 $250 $95 $153 reversed $251 $-1 #
edge $-1 $252 -17.216101531189974 $253 17.216101531189974 $152 $254 forward 7 unknown #
face $-1 $255 $256 $35 $-1 $257 forward single #
loop $-1 $-1 $258 $96 #
plane-surface $-1 -8.285907326775849 -178.85566489850302 79.770467681868894 1 0 0 0 0.86602541151947299 -0.49999998660252726 forward_v I I I I #
coedge $-1 $259 $260 $261 $262 reversed $97 $-1 #
coedge $-1 $159 $99 $263 $264 reversed $62 $-1 #
coedge $-1 $99 $158 $259 $265 reversed $62 $-1 #
coedge $-1 $261 $266 $99 $161 forward $256 $-1 #
edge $-1 $267 43.484483950847633 $268 51.67280740609074 $160 $269 forward 7 unknown #
loop $-1 $-1 $167 $100 #
plane-surface $-1 5.6659848474143928 -45.943348498403907 3.0335087712051916 0 -0.86602541151947299 0.49999998660252726 1 0 0 forward_v I I I I #
loop $-1 $-1 $270 $64 #
coedge $-1 $165 $165 $166 $271 reversed $101 $-1 #
coedge $-1 $166 $166 $165 $271 forward $103 $-1 #
coedge $-1 $167 $167 $104 $168 forward $162 $-1 #
edge $-1 $272 -1.0992137013060427e-015 $272 6.2831853071795996 $167 $273 forward 7 unknown #
loop $-1 $-1 $174 $105 #
plane-surface $-1 5.6659848474143928 -45.943348498403907 3.0335087712051916 0 -0.86602541151947299 0.49999998660252726 1 0 0 forward_v I I I I #
loop $-1 $-1 $274 $67 #
coedge $-1 $172 $172 $173 $275 reversed $106 $-1 #
coedge $-1 $173 $173 $172 $275 forward $108 $-1 #
coedge $-1 $174 $174 $109 $175 forward $169 $-1 #
edge $-1 $276 -1.0992137013060427e-015 $276 6.2831853071795996 $174 $277 forward 7 unknown #
face $-1 $278 $279 $38 $-1 $280 reversed single #
loop $-1 $-1 $281 $110 #
plane-surface $-1 -27.965172619238871 101.48849263543534 180.83435378298572 -1 0 0 0 0.75470958851134928 0.65605901945558964 forward_v I I I I #
coedge $-1 $282 $283 $284 $285 reversed $111 $-1 #
coedge $-1 $181 $113 $286 $287 reversed $71 $-1 #
coedge $-1 $113 $180 $282 $288 reversed $71 $-1 #
coedge $-1 $284 $289 $113 $183 forward $290 $-1 #
edge $-1 $291 4.8008978193137892 $292 10.379519033262248 $182 $293 forward 7 unknown #
loop $-1 $-1 $189 $114 #
plane-surface $-1 -44.019733584535693 -14.339747834334688 80.146403047189764 0 0.75470958851134928 0.65605901945558964 1 0 0 forward_v I I I I #
loop $-1 $-1 $294 $73 #
coedge $-1 $187 $187 $188 $295 reversed $115 $-1 #
coedge $-1 $188 $188 $187 $295 forward $117 $-1 #
coedge $-1 $189 $189 $118 $190 forward $184 $-1 #
edge $-1 $296 6.1275365110318934e-017 $296 6.2831853071796004 $189 $297 forward 7 unknown #
loop $-1 $-1 $196 $119 #
plane-surface $-1 -44.019733584535693 -14.339747834334688 80.146403047189764 0 0.75470958851134928 0.65605901945558964 1 0 0 forward_v I I I I #
loop $-1 $-1 $298 $76 #
coedge $-1 $194 $194 $195 $299 reversed $120 $-1 #
coedge $-1 $195 $195 $194 $299 forward $122 $-1 #
coedge $-1 $196 $196 $123 $197 forward $191 $-1 #
edge $-1 $300 6.1275365110318934e-017 $300 6.2831853071796004 $196 $301 forward 7 unknown #
face $-1 $302 $303 $41 $-1 $304 forward single #
loop $-1 $-1 $305 $124 #
plane-surface $-1 40.440455139090581 101.48849263543534 180.83435378298572 -1 0 0 0 0.75470958851134928 0.65605901945558964 forward_v I I I I #
coedge $-1 $306 $307 $308 $309 reversed $125 $-1 #
coedge $-1 $203 $127 $310 $311 reversed $80 $-1 #
coedge $-1 $127 $202 $306 $312 reversed $80 $-1 #
coedge $-1 $308 $313 $127 $205 forward $303 $-1 #
edge $-1 $314 4.8008978193137892 $315 10.379519033262248 $204 $316 forward 7 unknown #
loop $-1 $-1 $211 $128 #
plane-surface $-1 24.385894173793758 -14.339747834334688 80.146403047189764 0 0.75470958851134928 0.65605901945558964 1 0 0 forward_v I I I I #
loop $-1 $-1 $317 $82 #
coedge $-1 $209 $209 $210 $318 reversed $129 $-1 #
coedge $-1 $210 $210 $209 $318 forward $131 $-1 #
coedge $-1 $211 $211 $132 $212 forward $206 $-1 #
edge $-1 $319 6.1275365110318934e-017 $319 6.2831853071796004 $211 $320 forward 7 unknown #
loop $-1 $-1 $218 $133 #
plane-surface $-1 24.385894173793758 -14.339747834334688 80.146403047189764 0 0.75470958851134928 0.65605901945558964 1 0 0 forward_v I I I I #
loop $-1 $-1 $321 $85 #
coedge $-1 $216 $216 $217 $322 reversed $134 $-1 #
coedge $-1 $217 $217 $216 $322 forward $136 $-1 #
coedge $-1 $218 $218 $137 $219 forward $213 $-1 #
edge $-1 $323 6.1275365110318934e-017 $323 6.2831853071796004 $218 $324 forward 7 unknown #
face $-1 $325 $326 $33 $-1 $327 reversed single #
loop $-1 $-1 $328 $138 #
plane-surface $-1 -76.736960966826388 0 0 1 0 0 0 0 -1 forward_v I I I I #
coedge $-1 $329 $231 $330 $331 forward $139 $-1 #
coedge $-1 $332 $141 $329 $333 forward $89 $-1 #
coedge $-1 $141 $332 $334 $335 forward $89 $-1 #
coedge $-1 $234 $233 $141 $227 reversed $235 $-1 #
edge $-1 $336 -45.943348498403878 $337 45.943348498403878 $226 $338 forward 7 unknown #
coedge $-1 $143 $142 $339 $340 forward $56 $-1 #
coedge $-1 $341 $342 $142 $230 reversed $326 $-1 #
edge $-1 $237 -76.736960966826388 $343 76.736960966826388 $229 $344 forward 7 unknown #
coedge $-1 $223 $345 $143 $232 reversed $139 $-1 #
edge $-1 $346 -76.736960966826388 $236 76.736960966826388 $231 $347 forward 7 unknown #
coedge $-1 $226 $144 $345 $348 forward $235 $-1 #
coedge $-1 $144 $226 $341 $349 reversed $235 $-1 #
loop $-1 $-1 $233 $325 #
vertex $-1 $145 $350 #
vertex $-1 $145 $351 #
straight-curve $-1 76.736960966826388 0 17.216101531189974 0 1 0 I I #
face $-1 $352 $251 $34 $-1 $353 reversed single #
loop $-1 $-1 $354 $146 #
plane-surface $-1 -93.399627383820274 -16.051263693452615 0 1 0 0 0 0 -1 forward_v I I I I #
coedge $-1 $355 $356 $357 $358 forward $147 $-1 #
coedge $-1 $359 $149 $355 $360 forward $93 $-1 #
coedge $-1 $149 $359 $249 $361 forward $93 $-1 #
edge $-1 $252 11.511145436023931 $362 20.591381950881299 $149 $363 forward 7 unknown #
coedge $-1 $151 $150 $364 $365 forward $59 $-1 #
coedge $-1 $366 $367 $150 $248 forward $368 $-1 #
edge $-1 $369 -20.591381950881299 $253 -11.511145436023931 $247 $370 forward 7 unknown #
coedge $-1 $371 $152 $244 $361 reversed $251 $-1 #
coedge $-1 $152 $371 $366 $372 reversed $251 $-1 #
loop $-1 $-1 $152 $239 #
vertex $-1 $245 $373 #
vertex $-1 $372 $374 #
straight-curve $-1 -76.736960966826388 -11.511145436023931 0 0 0 1 I I #
face $-1 $-1 $375 $35 $-1 $376 reversed single #
loop $-1 $-1 $160 $154 #
plane-surface $-1 0 0 17.216101531189974 0 0 1 1 0 0 forward_v I I I I #
coedge $-1 $377 $378 $379 $380 reversed $155 $-1 #
coedge $-1 $381 $157 $159 $265 forward $97 $-1 #
coedge $-1 $157 $381 $377 $382 forward $97 $-1 #
coedge $-1 $379 $160 $157 $262 forward $256 $-1 #
edge $-1 $268 -16.784884597897438 $383 11.118899750483045 $261 $384 forward 7 unknown #
coedge $-1 $385 $386 $158 $264 forward $375 $-1 #
edge $-1 $387 -36.851725069729206 $267 -22.669132309744473 $263 $388 forward 7 unknown #
edge $-1 $268 -16.376647349297649 $387 -5.6900626353428066e-014 $159 $389 forward 7 unknown #
coedge $-1 $160 $379 $385 $390 forward $256 $-1 #
vertex $-1 $161 $391 #
vertex $-1 $161 $392 #
straight-curve $-1 19.617877021604635 -89.427832449251511 17.216101531189974 0 1 0 I I #
coedge $-1 $270 $270 $-1 $393 reversed $164 $-1 #
edge $-1 $394 0 $394 6.2831853071796004 $165 $395 forward 7 unknown #
vertex $-1 $168 $396 #
ellipse-curve $-1 -0.31339751295284657 -41.849186770782332 10.124805151197593 0 -0.86602541151947299 0.49999998660252726 1.5 0 0 1 I I #
coedge $-1 $274 $274 $-1 $397 reversed $171 $-1 #
edge $-1 $398 0 $398 6.2831853071796004 $172 $399 forward 7 unknown #
vertex $-1 $175 $400 #
ellipse-curve $-1 11.645367207781646 -41.849186770782332 10.124805151197593 0 -0.86602541151947299 0.49999998660252726 1.5 0 0 1 I I #
face $-1 $-1 $290 $38 $-1 $401 forward single #
loop $-1 $-1 $402 $176 #
plane-surface $-1 0 45.943348498403878 0 0 -1 0 0 0 -1 forward_v I I I I #
coedge $-1 $403 $404 $405 $406 reversed $177 $-1 #
coedge $-1 $407 $179 $181 $288 forward $111 $-1 #
coedge $-1 $179 $407 $403 $408 forward $111 $-1 #
coedge $-1 $405 $182 $179 $285 forward $290 $-1 #
edge $-1 $292 -38.064427757564673 $409 -5.9553058269710242 $284 $410 forward 7 unknown #
coedge $-1 $411 $412 $180 $287 forward $279 $-1 #
edge $-1 $413 -79.618545124430895 $291 -73.20107536030288 $286 $414 forward 7 unknown #
edge $-1 $292 83.383466268301504 $413 91.886696996807757 $181 $415 forward 7 unknown #
coedge $-1 $182 $405 $411 $416 forward $290 $-1 #
loop $-1 $-1 $405 $278 #
vertex $-1 $287 $417 #
vertex $-1 $183 $418 #
straight-curve $-1 -60.074294549832516 50.744246317717668 17.216101531189977 0 -1 0 I I #
coedge $-1 $294 $294 $-1 $419 reversed $186 $-1 #
edge $-1 $420 0 $420 6.2831853071796004 $187 $421 forward 7 unknown #
vertex $-1 $190 $422 #
ellipse-curve $-1 -50.90025971252004 43.154037891429645 14.007366649125975 0 0.75470958851134928 0.65605901945558964 1 0 0 1 I I #
coedge $-1 $298 $298 $-1 $423 reversed $193 $-1 #
edge $-1 $424 0 $424 6.2831853071796004 $194 $425 forward 7 unknown #
vertex $-1 $197 $426 #
ellipse-curve $-1 -37.139207456551333 43.154037891429645 14.007366649125975 0 0.75470958851134928 0.65605901945558964 1 0 0 1 I I #
face $-1 $-1 $427 $41 $-1 $428 reversed single #
loop $-1 $-1 $204 $198 #
plane-surface $-1 0 0 17.216101531189974 0 0 1 1 0 0 forward_v I I I I #
coedge $-1 $429 $430 $431 $432 reversed $199 $-1 #
coedge $-1 $433 $201 $203 $312 forward $125 $-1 #
coedge $-1 $201 $433 $429 $434 forward $125 $-1 #
coedge $-1 $431 $204 $201 $309 forward $303 $-1 #
edge $-1 $315 -3.8616138783999432 $435 28.247508052193702 $308 $436 forward 7 unknown #
coedge $-1 $437 $438 $202 $311 forward $427 $-1 #
edge $-1 $439 -79.618545124430895 $314 -73.20107536030288 $310 $440 forward 7 unknown #
edge $-1 $315 83.383466268301504 $439 91.886696996807757 $203 $441 forward 7 unknown #
coedge $-1 $204 $431 $437 $442 forward $303 $-1 #
vertex $-1 $205 $443 #
vertex $-1 $205 $444 #
straight-curve $-1 8.331333208496936 50.744246317717668 17.216101531189977 0 -1 0 I I #
coedge $-1 $317 $317 $-1 $445 reversed $208 $-1 #
edge $-1 $446 0 $446 6.2831853071796004 $209 $447 forward 7 unknown #
vertex $-1 $212 $448 #
ellipse-curve $-1 17.505368045809405 43.154037891429645 14.007366649125975 0 0.75470958851134928 0.65605901945558964 1 0 0 1 I I #
coedge $-1 $321 $321 $-1 $449 reversed $215 $-1 #
edge $-1 $450 0 $450 6.2831853071796004 $216 $451 forward 7 unknown #
vertex $-1 $219 $452 #
ellipse-curve $-1 31.266420301778112 43.154037891429645 14.007366649125975 0 0.75470958851134928 0.65605901945558964 1 0 0 1 I I #
face $-1 $-1 $235 $33 $-1 $453 reversed single #
loop $-1 $-1 $341 $220 #
plane-surface $-1 0 45.943348498403878 0 0 -1 0 0 0 -1 forward_v I I I I #
coedge $-1 $454 $339 $342 $455 forward $221 $-1 #
coedge $-1 $345 $223 $224 $333 reversed $139 $-1 #
coedge $-1 $339 $454 $223 $331 reversed $221 $-1 #
edge $-1 $346 -17.216101531189974 $456 17.216101531189974 $330 $457 forward 7 unknown #
coedge $-1 $225 $224 $454 $458 forward $89 $-1 #
edge $-1 $337 -76.736960966826388 $456 76.736960966826388 $329 $459 forward 7 unknown #
coedge $-1 $342 $341 $225 $335 reversed $326 $-1 #
edge $-1 $460 -76.736960966826388 $336 76.736960966826388 $334 $461 forward 7 unknown #
vertex $-1 $227 $462 #
vertex $-1 $348 $463 #
straight-curve $-1 76.736960966826388 0 -17.216101531189974 0 -1 0 I I #
coedge $-1 $328 $330 $228 $340 reversed $221 $-1 #
edge $-1 $343 -45.943348498403878 $346 45.943348498403878 $339 $464 forward 7 unknown #
coedge $-1 $334 $229 $234 $349 forward $326 $-1 #
coedge $-1 $229 $334 $328 $455 reversed $326 $-1 #
vertex $-1 $230 $465 #
straight-curve $-1 0 45.943348498403878 17.216101531189974 -1 0 0 I I #
coedge $-1 $231 $329 $233 $348 reversed $139 $-1 #
vertex $-1 $340 $466 #
straight-curve $-1 0 -45.943348498403878 17.216101531189974 1 0 0 I I #
edge $-1 $236 -17.216101531189974 $337 17.216101531189974 $233 $467 forward 7 unknown #
edge $-1 $237 -17.216101531189974 $336 17.216101531189974 $234 $468 forward 7 unknown #
point $-1 76.736960966826388 -45.943348498403878 17.216101531189974 #
point $-1 76.736960966826388 45.943348498403878 17.216101531189974 #
face $-1 $-1 $368 $34 $-1 $469 forward single #
plane-surface $-1 -85.068294175323331 -11.511145436023931 0 0 -1 0 0 0 -1 forward_v I I I I #
coedge $-1 $470 $471 $371 $472 forward $240 $-1 #
coedge $-1 $364 $242 $243 $360 reversed $147 $-1 #
coedge $-1 $242 $364 $367 $473 reversed $147 $-1 #
coedge $-1 $471 $470 $242 $358 reversed $240 $-1 #
edge $-1 $474 -17.216101531189974 $475 17.216101531189974 $357 $476 forward 7 unknown #
coedge $-1 $244 $243 $470 $477 forward $93 $-1 #
edge $-1 $362 -8.3313332084969431 $475 8.3313332084969431 $355 $478 forward 7 unknown #
edge $-1 $479 -8.3313332084969431 $252 8.3313332084969431 $249 $480 forward 7 unknown #
vertex $-1 $360 $481 #
straight-curve $-1 -76.736960966826388 0 -17.216101531189974 0 -1 0 I I #
coedge $-1 $356 $355 $246 $365 reversed $147 $-1 #
edge $-1 $369 -17.216101531189974 $362 17.216101531189974 $364 $482 forward 7 unknown #
coedge $-1 $483 $247 $250 $372 forward $368 $-1 #
coedge $-1 $247 $483 $356 $473 forward $368 $-1 #
loop $-1 $-1 $247 $352 #
vertex $-1 $248 $484 #
straight-curve $-1 -76.736960966826388 0 17.216101531189974 0 1 0 I I #
coedge $-1 $250 $249 $354 $472 reversed $251 $-1 #
edge $-1 $253 -8.3313332084969431 $485 8.3313332084969431 $250 $486 forward 7 unknown #
point $-1 -76.736960966826388 -11.511145436023931 -17.216101531189974 #
point $-1 -76.736960966826388 -11.511145436023931 17.216101531189974 #
loop $-1 $-1 $263 $255 #
plane-surface $-1 0 -45.943348498403878 0 0 1 0 0 0 1 forward_v I I I I #
coedge $-1 $378 $258 $260 $382 reversed $155 $-1 #
coedge $-1 $258 $377 $487 $488 reversed $155 $-1 #
coedge $-1 $266 $261 $258 $380 forward $256 $-1 #
edge $-1 $383 -51.67280740609074 $489 -43.484483950847633 $379 $490 forward 7 unknown #
coedge $-1 $260 $259 $386 $491 reversed $97 $-1 #
edge $-1 $492 5.6900626353428066e-014 $383 16.376647349297649 $377 $493 forward 7 unknown #
vertex $-1 $262 $494 #
straight-curve $-1 2.8329924237071964 -37.755025043160771 17.216101531189974 -1 0 0 I I #
coedge $-1 $487 $263 $266 $390 reversed $375 $-1 #
coedge $-1 $263 $487 $381 $491 forward $375 $-1 #
vertex $-1 $264 $495 #
straight-curve $-1 19.617877021604635 -45.943348498403878 39.885233840934447 0 0 1 I I #
straight-curve $-1 19.617877021604635 -45.943348498403907 3.0335087712051916 0 -0.49999998660252726 -0.86602541151947299 I I #
edge $-1 $489 -8.285907326775849 $267 19.617877021604635 $385 $496 forward 7 unknown #
point $-1 19.617877021604635 -45.943348498403878 17.216101531189974 #
point $-1 19.617877021604635 -37.755025043160771 17.216101531189974 #
edge $-1 $497 1 $497 0 $270 $-1 forward 7 unknown #
vertex $-1 $271 $498 #
ellipse-curve $-1 -0.31339751295284657 -38.428126061703821 8.1496549004624548 0 -0.86602541151947299 0.49999998660252726 1.5 0 0 1 I I #
point $-1 1.1866024870471534 -41.84918677078231 10.124805151197579 #
edge $-1 $499 1 $499 0 $274 $-1 forward 7 unknown #
vertex $-1 $275 $500 #
ellipse-curve $-1 11.645367207781646 -38.428126061703821 8.1496549004624548 0 -0.86602541151947299 0.49999998660252726 1.5 0 0 1 I I #
point $-1 13.145367207781646 -41.84918677078231 10.124805151197579 #
plane-surface $-1 0 0 17.216101531189974 0 0 1 1 0 0 forward_v I I I I #
coedge $-1 $412 $411 $404 $501 forward $279 $-1 #
coedge $-1 $404 $281 $283 $408 reversed $177 $-1 #
coedge $-1 $281 $403 $402 $501 reversed $177 $-1 #
coedge $-1 $289 $284 $281 $406 forward $290 $-1 #
edge $-1 $409 -10.379519033262248 $502 -4.8008978193137892 $405 $503 forward 7 unknown #
coedge $-1 $283 $282 $412 $504 reversed $111 $-1 #
edge $-1 $505 -91.886696996807757 $409 -83.383466268301504 $403 $506 forward 7 unknown #
vertex $-1 $285 $507 #
straight-curve $-1 -22.009866792267847 40.364727284455412 17.216101531189977 1 0 0 I I #
coedge $-1 $402 $286 $289 $416 reversed $279 $-1 #
coedge $-1 $286 $402 $407 $504 forward $279 $-1 #
vertex $-1 $287 $508 #
straight-curve $-1 -60.074294549832516 45.943348498403878 90.417176891492858 0 0 1 I I #
straight-curve $-1 -60.074294549832516 -14.339747834334688 80.146403047189764 0 0.65605901945558964 -0.75470958851134928 I I #
edge $-1 $502 27.965172619238871 $291 60.074294549832516 $411 $509 forward 7 unknown #
point $-1 -60.074294549832516 45.943348498403878 17.216101531189974 #
point $-1 -60.074294549832516 40.364727284455419 17.216101531189977 #
edge $-1 $510 1 $510 0 $294 $-1 forward 7 unknown #
vertex $-1 $295 $511 #
ellipse-curve $-1 -50.90025971252004 41.037409971405602 12.167410116306044 0 0.75470958851134928 0.65605901945558964 1 0 0 1 I I #
point $-1 -49.90025971252004 43.154037891429631 14.007366649125963 #
edge $-1 $512 1 $512 0 $298 $-1 forward 7 unknown #
vertex $-1 $299 $513 #
ellipse-curve $-1 -37.139207456551333 41.037409971405602 12.167410116306044 0 0.75470958851134928 0.65605901945558964 1 0 0 1 I I #
point $-1 -36.139207456551333 43.154037891429631 14.007366649125963 #
loop $-1 $-1 $310 $302 #
plane-surface $-1 0 45.943348498403878 0 0 -1 0 0 0 -1 forward_v I I I I #
coedge $-1 $430 $305 $307 $434 reversed $199 $-1 #
coedge $-1 $305 $429 $514 $515 reversed $199 $-1 #
coedge $-1 $313 $308 $305 $432 forward $303 $-1 #
edge $-1 $435 -10.379519033262248 $516 -4.8008978193137892 $431 $517 forward 7 unknown #
coedge $-1 $307 $306 $438 $518 reversed $125 $-1 #
edge $-1 $519 -91.886696996807757 $435 -83.383466268301504 $429 $520 forward 7 unknown #
vertex $-1 $309 $521 #
straight-curve $-1 12.192947086896879 40.364727284455412 17.216101531189977 1 0 0 I I #
coedge $-1 $514 $310 $313 $442 reversed $427 $-1 #
coedge $-1 $310 $514 $433 $518 forward $427 $-1 #
vertex $-1 $311 $522 #
straight-curve $-1 8.331333208496936 45.943348498403878 90.417176891492858 0 0 1 I I #
straight-curve $-1 8.331333208496936 -14.339747834334688 80.146403047189764 0 0.65605901945558964 -0.75470958851134928 I I #
edge $-1 $516 -40.440455139090581 $314 -8.331333208496936 $437 $523 forward 7 unknown #
point $-1 8.331333208496936 45.943348498403878 17.216101531189974 #
point $-1 8.331333208496936 40.364727284455419 17.216101531189977 #
edge $-1 $524 1 $524 0 $317 $-1 forward 7 unknown #
vertex $-1 $318 $525 #
ellipse-curve $-1 17.505368045809405 41.037409971405602 12.167410116306044 0 0.75470958851134928 0.65605901945558964 1 0 0 1 I I #
point $-1 18.505368045809405 43.154037891429631 14.007366649125963 #
edge $-1 $526 1 $526 0 $321 $-1 forward 7 unknown #
vertex $-1 $322 $527 #
ellipse-curve $-1 31.266420301778112 41.037409971405602 12.167410116306044 0 0.75470958851134928 0.65605901945558964 1 0 0 1 I I #
point $-1 32.266420301778112 43.154037891429631 14.007366649125963 #
plane-surface $-1 76.736960966826388 0 0 -1 0 0 0 0 1 forward_v I I I I #
coedge $-1 $330 $328 $332 $458 reversed $221 $-1 #
edge $-1 $343 -17.216101531189974 $460 17.216101531189974 $342 $528 forward 7 unknown #
vertex $-1 $458 $529 #
straight-curve $-1 -76.736960966826388 -45.943348498403878 0 0 0 -1 I I #
edge $-1 $456 -45.943348498403878 $460 45.943348498403878 $454 $530 forward 7 unknown #
straight-curve $-1 0 -45.943348498403878 -17.216101531189974 -1 0 0 I I #
vertex $-1 $335 $531 #
straight-curve $-1 0 45.943348498403878 -17.216101531189974 1 0 0 I I #
point $-1 76.736960966826388 45.943348498403878 -17.216101531189974 #
point $-1 76.736960966826388 -45.943348498403878 -17.216101531189974 #
straight-curve $-1 -76.736960966826388 0 17.216101531189974 0 -1 0 I I #
point $-1 -76.736960966826388 45.943348498403878 17.216101531189974 #
point $-1 -76.736960966826388 -45.943348498403878 17.216101531189974 #
straight-curve $-1 76.736960966826388 -45.943348498403878 0 0 0 -1 I I #
straight-curve $-1 76.736960966826388 45.943348498403878 0 0 0 -1 I I #
plane-surface $-1 0 0 17.216101531189974 0 0 1 1 0 0 forward_v I I I I #
coedge $-1 $357 $354 $359 $477 reversed $240 $-1 #
coedge $-1 $354 $357 $483 $532 reversed $240 $-1 #
edge $-1 $485 -17.216101531189974 $479 17.216101531189974 $371 $533 forward 7 unknown #
edge $-1 $474 -8.3313332084969431 $369 8.3313332084969431 $356 $534 forward 7 unknown #
vertex $-1 $532 $535 #
vertex $-1 $477 $536 #
straight-curve $-1 -93.399627383820274 -20.591381950881299 0 0 0 -1 I I #
edge $-1 $475 -4.5401182574286842 $479 4.5401182574286842 $470 $537 forward 7 unknown #
straight-curve $-1 -85.068294175323331 -20.591381950881299 -17.216101531189974 -1 0 0 I I #
vertex $-1 $361 $538 #
straight-curve $-1 -85.068294175323331 -11.511145436023931 -17.216101531189974 1 0 0 I I #
point $-1 -76.736960966826388 -20.591381950881299 -17.216101531189974 #
straight-curve $-1 -76.736960966826388 -20.591381950881299 0 0 0 -1 I I #
coedge $-1 $367 $366 $471 $532 forward $368 $-1 #
point $-1 -76.736960966826388 -20.591381950881299 17.216101531189974 #
vertex $-1 $372 $539 #
straight-curve $-1 -85.068294175323331 -11.511145436023931 17.216101531189974 -1 0 0 I I #
coedge $-1 $386 $385 $378 $488 forward $375 $-1 #
edge $-1 $489 22.669132309744473 $492 36.851725069729206 $487 $540 forward 7 unknown #
vertex $-1 $390 $541 #
straight-curve $-1 -8.285907326775849 -89.427832449251511 17.216101531189974 0 -1 0 I I #
edge $-1 $492 -11.118899750483045 $387 16.784884597897438 $386 $542 forward 7 unknown #
vertex $-1 $491 $543 #
straight-curve $-1 -8.285907326775849 -45.943348498403907 3.0335087712051916 0 0.49999998660252726 0.86602541151947299 I I #
point $-1 -8.285907326775849 -37.755025043160771 17.216101531189974 #
point $-1 19.617877021604635 -45.943348498403878 3.0335087712052409 #
straight-curve $-1 0 -45.943348498403878 17.216101531189974 1 0 0 I I #
vertex $-1 $393 $544 #
point $-1 1.1866024870471534 -38.428126061703821 8.1496549004624548 #
vertex $-1 $397 $545 #
point $-1 13.145367207781646 -38.428126061703821 8.1496549004624548 #
edge $-1 $502 73.20107536030288 $505 79.618545124430895 $402 $546 forward 7 unknown #
vertex $-1 $416 $547 #
straight-curve $-1 -27.965172619238871 50.744246317717668 17.216101531189977 0 1 0 I I #
edge $-1 $505 5.9553058269710242 $413 38.064427757564673 $412 $548 forward 7 unknown #
vertex $-1 $504 $549 #
straight-curve $-1 -27.965172619238871 -14.339747834334688 80.146403047189764 0 -0.65605901945558964 0.75470958851134928 I I #
point $-1 -27.965172619238871 40.364727284455419 17.216101531189977 #
point $-1 -60.074294549832516 45.943348498403871 10.798631767061963 #
straight-curve $-1 0 45.943348498403878 17.216101531189974 -1 0 0 I I #
vertex $-1 $419 $550 #
point $-1 -49.90025971252004 41.037409971405602 12.167410116306044 #
vertex $-1 $423 $551 #
point $-1 -36.139207456551333 41.037409971405602 12.167410116306044 #
coedge $-1 $438 $437 $430 $515 forward $427 $-1 #
edge $-1 $516 73.20107536030288 $519 79.618545124430895 $514 $552 forward 7 unknown #
vertex $-1 $442 $553 #
straight-curve $-1 40.440455139090581 50.744246317717668 17.216101531189977 0 1 0 I I #
edge $-1 $519 -28.247508052193702 $439 3.8616138783999432 $438 $554 forward 7 unknown #
vertex $-1 $518 $555 #
straight-curve $-1 40.440455139090581 -14.339747834334688 80.146403047189764 0 -0.65605901945558964 0.75470958851134928 I I #
point $-1 40.440455139090581 40.364727284455419 17.216101531189977 #
point $-1 8.331333208496936 45.943348498403871 10.798631767061963 #
straight-curve $-1 0 45.943348498403878 17.216101531189974 -1 0 0 I I #
vertex $-1 $445 $556 #
point $-1 18.505368045809405 41.037409971405602 12.167410116306044 #
vertex $-1 $449 $557 #
point $-1 32.266420301778112 41.037409971405602 12.167410116306044 #
straight-curve $-1 -76.736960966826388 45.943348498403878 0 0 0 -1 I I #
point $-1 -76.736960966826388 -45.943348498403878 -17.216101531189974 #
straight-curve $-1 -76.736960966826388 0 -17.216101531189974 0 1 0 I I #
point $-1 -76.736960966826388 45.943348498403878 -17.216101531189974 #
edge $-1 $485 -4.5401182574286842 $474 4.5401182574286842 $471 $558 forward 7 unknown #
straight-curve $-1 -93.399627383820274 -11.511145436023931 0 0 0 -1 I I #
straight-curve $-1 -85.068294175323331 -20.591381950881299 17.216101531189974 1 0 0 I I #
point $-1 -93.399627383820274 -20.591381950881299 17.216101531189974 #
point $-1 -93.399627383820274 -20.591381950881299 -17.216101531189974 #
straight-curve $-1 -93.399627383820274 -16.051263693452615 -17.216101531189974 0 1 0 I I #
point $-1 -93.399627383820274 -11.511145436023931 -17.216101531189974 #
point $-1 -93.399627383820274 -11.511145436023931 17.216101531189974 #
straight-curve $-1 -8.285907326775849 -45.943348498403878 39.885233840934447 0 0 -1 I I #
point $-1 -8.285907326775849 -45.943348498403878 17.216101531189974 #
straight-curve $-1 2.8329924237071964 -45.943348498403878 3.0335087712052422 1 0 0 I I #
point $-1 -8.285907326775849 -45.943348498403878 3.0335087712052409 #
point $-1 -0.31339751295284657 -37.129087944424612 7.3996549205586639 #
point $-1 11.645367207781646 -37.129087944424612 7.3996549205586639 #
straight-curve $-1 -27.965172619238871 45.943348498403878 90.417176891492858 0 0 -1 I I #
point $-1 -27.965172619238871 45.943348498403878 17.216101531189974 #
straight-curve $-1 -22.009866792267847 45.943348498403878 10.798631767061945 -1 0 0 I I #
point $-1 -27.965172619238871 45.943348498403871 10.798631767061963 #
point $-1 -50.90025971252004 40.282700382894255 11.511351096850454 #
point $-1 -37.139207456551333 40.282700382894255 11.511351096850454 #
straight-curve $-1 40.440455139090581 45.943348498403878 90.417176891492858 0 0 -1 I I #
point $-1 40.440455139090581 45.943348498403878 17.216101531189974 #
straight-curve $-1 12.192947086896879 45.943348498403878 10.798631767061945 -1 0 0 I I #
point $-1 40.440455139090581 45.943348498403871 10.798631767061963 #
point $-1 17.505368045809405 40.282700382894255 11.511351096850454 #
point $-1 31.266420301778112 40.282700382894255 11.511351096850454 #
straight-curve $-1 -93.399627383820274 -16.051263693452615 17.216101531189974 0 -1 0 I I #
End-of-ACIS-data 