500 0 16 0           
7 Unknown 11 ACIS 5.0 NT 24 Fri Mar 26 18:59:00 1999 
-1 9.9999999999999995e-007 1e-010 
body $-1 $16 $-1 $17 #
body $-1 $18 $-1 $19 #
body $-1 $20 $-1 $21 #
body $-1 $22 $-1 $23 #
body $-1 $24 $-1 $25 #
body $-1 $26 $-1 $27 #
body $-1 $28 $-1 $29 #
body $-1 $30 $-1 $31 #
body $-1 $32 $-1 $33 #
body $-1 $34 $-1 $35 #
body $-1 $36 $-1 $37 #
body $-1 $38 $-1 $39 #
body $-1 $40 $-1 $41 #
body $-1 $42 $-1 $43 #
body $-1 $44 $-1 $45 #
body $-1 $46 $-1 $47 #
lump $-1 $-1 $48 $0 #
transform $-1 1 0 0 0 1 0 0 0 1 69.808038575395983 40.067347095899223 16.74643183531477 1 rotate no_reflect no_shear #
lump $-1 $-1 $49 $1 #
transform $-1 1 0 0 0 1 0 0 0 1 69.808038575395983 40.067347095899223 16.74643183531477 1 rotate no_reflect no_shear #
lump $-1 $-1 $50 $2 #
transform $-1 1 0 0 0 1 0 0 0 1 69.808038575395983 40.067347095899223 16.74643183531477 1 rotate no_reflect no_shear #
lump $-1 $-1 $51 $3 #
transform $-1 1 0 0 0 1 0 0 0 1 69.808038575395983 40.067347095899223 16.74643183531477 1 rotate no_reflect no_shear #
lump $-1 $-1 $52 $4 #
transform $-1 1 0 0 0 1 0 0 0 1 69.808038575395983 40.067347095899223 16.74643183531477 1 rotate no_reflect no_shear #
lump $-1 $-1 $53 $5 #
transform $-1 1 0 0 0 1 0 0 0 1 69.808038575395983 40.067347095899223 16.74643183531477 1 rotate no_reflect no_shear #
lump $-1 $-1 $54 $6 #
transform $-1 1 0 0 0 1 0 0 0 1 69.808038575395983 40.067347095899223 16.74643183531477 1 rotate no_reflect no_shear #
lump $-1 $-1 $55 $7 #
transform $-1 1 0 0 0 1 0 0 0 1 69.808038575395983 40.067347095899223 16.74643183531477 1 rotate no_reflect no_shear #
lump $-1 $-1 $56 $8 #
transform $-1 1 0 0 0 1 0 0 0 1 69.808038575395983 40.067347095899223 16.74643183531477 1 rotate no_reflect no_shear #
lump $-1 $-1 $57 $9 #
transform $-1 1 0 0 0 1 0 0 0 1 69.808038575395983 40.067347095899223 16.74643183531477 1 rotate no_reflect no_shear #
lump $-1 $-1 $58 $10 #
transform $-1 1 0 0 0 1 0 0 0 1 69.808038575395983 40.067347095899223 16.74643183531477 1 rotate no_reflect no_shear #
lump $-1 $-1 $59 $11 #
transform $-1 1 0 0 0 1 0 0 0 1 69.808038575395983 40.067347095899223 16.74643183531477 1 rotate no_reflect no_shear #
lump $-1 $-1 $60 $12 #
transform $-1 1 0 0 0 1 0 0 0 1 69.808038575395983 40.067347095899223 16.74643183531477 1 rotate no_reflect no_shear #
lump $-1 $-1 $61 $13 #
transform $-1 1 0 0 0 1 0 0 0 1 69.808038575395983 40.067347095899223 16.74643183531477 1 rotate no_reflect no_shear #
lump $-1 $-1 $62 $14 #
transform $-1 1 0 0 0 1 0 0 0 1 69.808038575395983 40.067347095899223 16.74643183531477 1 rotate no_reflect no_shear #
lump $-1 $-1 $63 $15 #
transform $-1 1 0 0 0 1 0 0 0 1 69.808038575395983 40.067347095899223 16.74643183531477 1 rotate no_reflect no_shear #
shell $-1 $-1 $-1 $64 $-1 $16 #
shell $-1 $-1 $-1 $65 $-1 $18 #
shell $-1 $-1 $-1 $66 $-1 $20 #
shell $-1 $-1 $-1 $67 $-1 $22 #
shell $-1 $-1 $-1 $68 $-1 $24 #
shell $-1 $-1 $-1 $69 $-1 $26 #
shell $-1 $-1 $-1 $70 $-1 $28 #
shell $-1 $-1 $-1 $71 $-1 $30 #
shell $-1 $-1 $-1 $72 $-1 $32 #
shell $-1 $-1 $-1 $73 $-1 $34 #
shell $-1 $-1 $-1 $74 $-1 $36 #
shell $-1 $-1 $-1 $75 $-1 $38 #
shell $-1 $-1 $-1 $76 $-1 $40 #
shell $-1 $-1 $-1 $77 $-1 $42 #
shell $-1 $-1 $-1 $78 $-1 $44 #
shell $-1 $-1 $-1 $79 $-1 $46 #
face $-1 $80 $81 $48 $-1 $82 forward single #
face $-1 $83 $84 $49 $-1 $85 forward single #
face $-1 $86 $87 $50 $-1 $88 reversed single #
face $-1 $89 $90 $51 $-1 $91 forward single #
face $-1 $92 $93 $52 $-1 $94 forward single #
face $-1 $95 $96 $53 $-1 $97 reversed single #
face $-1 $98 $99 $54 $-1 $100 forward single #
face $-1 $101 $102 $55 $-1 $103 forward single #
face $-1 $104 $105 $56 $-1 $106 reversed single #
face $-1 $107 $108 $57 $-1 $109 forward single #
face $-1 $110 $111 $58 $-1 $112 forward single #
face $-1 $113 $114 $59 $-1 $115 forward single #
face $-1 $116 $117 $60 $-1 $118 reversed single #
face $-1 $119 $120 $61 $-1 $121 forward single #
face $-1 $122 $123 $62 $-1 $124 forward single #
face $-1 $125 $126 $63 $-1 $127 forward single #
face $-1 $128 $129 $48 $-1 $130 reversed single #
loop $-1 $-1 $131 $64 #
plane-surface $-1 0 0 16.74643183531477 0 0 1 1 0 0 forward_v I I I I #
face $-1 $132 $133 $49 $-1 $134 reversed single #
loop $-1 $-1 $135 $65 #
plane-surface $-1 -69.808038575395983 0 0 1 0 0 0 0 -1 forward_v I I I I #
face $-1 $136 $137 $50 $-1 $138 reversed single #
loop $-1 $-1 $139 $66 #
plane-surface $-1 0.019729740973687626 -140.49874930790082 106.54005735021612 -1 0 0 0 -0.71933980857756763 0.69465836192734942 forward_v I I I I #
face $-1 $140 $141 $51 $-1 $142 forward single #
loop $-1 $143 $144 $67 #
cone-surface $-1 -14.640806753865959 -35.818439610585074 12.400781666254058 0 0.71933980857756763 -0.69465836192734942 1 0 0 1 I I 0 1 1 forward I I I I #
face $-1 $145 $146 $52 $-1 $147 forward single #
loop $-1 $148 $149 $68 #
cone-surface $-1 -5.8444848569621684 -35.818439610585074 12.400781666254058 0 0.71933980857756763 -0.69465836192734942 1 0 0 1 I I 0 1 1 forward I I I I #
face $-1 $150 $151 $53 $-1 $152 reversed single #
loop $-1 $-1 $153 $69 #
plane-surface $-1 33.758278443976657 -140.49874930790082 106.54005735021612 -1 0 0 0 -0.71933980857756763 0.69465836192734942 forward_v I I I I #
face $-1 $154 $155 $54 $-1 $156 forward single #
loop $-1 $157 $158 $70 #
cone-surface $-1 19.097741949137003 -35.818439610585074 12.400781666254058 0 0.71933980857756763 -0.69465836192734942 1 0 0 1 I I 0 1 1 forward I I I I #
face $-1 $159 $160 $55 $-1 $161 forward single #
loop $-1 $162 $163 $71 #
cone-surface $-1 27.894063846040794 -35.818439610585074 12.400781666254058 0 0.71933980857756763 -0.69465836192734942 1 0 0 1 I I 0 1 1 forward I I I I #
face $-1 $164 $165 $56 $-1 $166 reversed single #
loop $-1 $-1 $167 $72 #
plane-surface $-1 -30.925735238808972 111.00357055929463 152.08730878532265 1 0 0 0 -0.82903758062907751 -0.55919289150049634 forward_v I I I I #
face $-1 $168 $169 $57 $-1 $170 forward single #
loop $-1 $171 $172 $73 #
cone-surface $-1 -28.158301939133537 36.291075150512839 11.701362799001547 0 -0.82903758062907751 -0.55919289150049634 1 0 0 1 I I 0 1 1 forward I I I I #
face $-1 $173 $174 $58 $-1 $175 forward single #
loop $-1 $176 $177 $74 #
cone-surface $-1 -24.00715198962039 36.291075150512839 11.701362799001547 0 -0.82903758062907751 -0.55919289150049634 1 0 0 1 I I 0 1 1 forward I I I I #
face $-1 $178 $179 $59 $-1 $180 forward single #
loop $-1 $181 $182 $75 #
cone-surface $-1 -19.856002040107242 36.291075150512839 11.701362799001547 0 -0.82903758062907751 -0.55919289150049634 1 0 0 1 I I 0 1 1 forward I I I I #
face $-1 $183 $184 $60 $-1 $185 reversed single #
loop $-1 $-1 $186 $76 #
plane-surface $-1 30.341825832606641 111.00357055929463 152.08730878532265 1 0 0 0 -0.82903758062907751 -0.55919289150049634 forward_v I I I I #
face $-1 $187 $188 $61 $-1 $189 forward single #
loop $-1 $190 $191 $77 #
cone-surface $-1 33.109259132282091 36.291075150512839 11.701362799001547 0 -0.82903758062907751 -0.55919289150049634 1 0 0 1 I I 0 1 1 forward I I I I #
face $-1 $192 $193 $62 $-1 $194 forward single #
loop $-1 $195 $196 $78 #
cone-surface $-1 37.260409081795231 36.291075150512839 11.701362799001547 0 -0.82903758062907751 -0.55919289150049634 1 0 0 1 I I 0 1 1 forward I I I I #
face $-1 $197 $198 $63 $-1 $199 forward single #
loop $-1 $200 $201 $79 #
cone-surface $-1 41.411559031308371 36.291075150512839 11.701362799001547 0 -0.82903758062907751 -0.55919289150049634 1 0 0 1 I I 0 1 1 forward I I I I #
face $-1 $202 $203 $48 $-1 $204 reversed single #
loop $-1 $-1 $205 $80 #
plane-surface $-1 0 0 -16.74643183531477 0 0 1 1 0 0 forward_v I I I I #
coedge $-1 $206 $207 $208 $209 forward $81 $-1 #
face $-1 $210 $211 $49 $-1 $212 forward single #
loop $-1 $-1 $213 $83 #
plane-surface $-1 0 40.067347095899223 0 0 -1 0 0 0 -1 forward_v I I I I #
coedge $-1 $214 $215 $216 $217 forward $84 $-1 #
face $-1 $218 $219 $50 $-1 $220 reversed single #
loop $-1 $-1 $221 $86 #
plane-surface $-1 -10.242645805414064 -40.067347095899223 9.5545818979245354 0 -0.71933980857756763 0.69465836192734942 1 0 0 forward_v I I I I #
coedge $-1 $222 $223 $224 $225 reversed $87 $-1 #
face $-1 $-1 $226 $51 $-1 $227 forward single #
loop $-1 $228 $229 $89 #
cone-surface $-1 -14.640806753865959 -34.682406515877837 11.303727284924779 0 0.71933980857756763 -0.69465836192734942 0.5 0 0 1 I I -0.70710678118654746 0.70710678118654746 0.5 forward I I I I #
loop $-1 $-1 $230 $67 #
coedge $-1 $144 $144 $231 $232 reversed $90 $-1 #
face $-1 $-1 $233 $52 $-1 $234 forward single #
loop $-1 $235 $236 $92 #
cone-surface $-1 -5.8444848569621684 -34.682406515877837 11.303727284924779 0 0.71933980857756763 -0.69465836192734942 0.5 0 0 1 I I -0.70710678118654746 0.70710678118654746 0.5 forward I I I I #
loop $-1 $-1 $237 $68 #
coedge $-1 $149 $149 $238 $239 reversed $93 $-1 #
face $-1 $240 $241 $53 $-1 $242 reversed single #
loop $-1 $-1 $243 $95 #
plane-surface $-1 23.495902897588905 -40.067347095899223 9.5545818979245354 0 -0.71933980857756763 0.69465836192734942 1 0 0 forward_v I I I I #
coedge $-1 $244 $245 $246 $247 reversed $96 $-1 #
face $-1 $-1 $248 $54 $-1 $249 forward single #
loop $-1 $250 $251 $98 #
cone-surface $-1 19.097741949137003 -34.682406515877837 11.303727284924779 0 0.71933980857756763 -0.69465836192734942 0.5 0 0 1 I I -0.70710678118654746 0.70710678118654746 0.5 forward I I I I #
loop $-1 $-1 $252 $70 #
coedge $-1 $158 $158 $253 $254 reversed $99 $-1 #
face $-1 $-1 $255 $55 $-1 $256 forward single #
loop $-1 $257 $258 $101 #
cone-surface $-1 27.894063846040794 -34.682406515877837 11.303727284924779 0 0.71933980857756763 -0.69465836192734942 0.5 0 0 1 I I -0.70710678118654746 0.70710678118654746 0.5 forward I I I I #
loop $-1 $-1 $259 $71 #
coedge $-1 $163 $163 $260 $261 reversed $102 $-1 #
face $-1 $262 $263 $56 $-1 $264 reversed single #
loop $-1 $-1 $265 $104 #
plane-surface $-1 -24.007151989620397 -4.7434042587205738 74.014990903414912 0 0.82903758062907751 0.55919289150049634 1 0 0 forward_v I I I I #
coedge $-1 $266 $267 $268 $269 reversed $105 $-1 #
face $-1 $-1 $270 $57 $-1 $271 forward single #
loop $-1 $272 $273 $107 #
cone-surface $-1 -28.158301939133537 35.191595274301491 10.959754281497791 0 -0.82903758062907751 -0.55919289150049634 0.5 0 0 1 I I -0.70710678118654746 0.70710678118654746 0.5 forward I I I I #
loop $-1 $-1 $274 $73 #
coedge $-1 $172 $172 $275 $276 reversed $108 $-1 #
face $-1 $-1 $277 $58 $-1 $278 forward single #
loop $-1 $279 $280 $110 #
cone-surface $-1 -24.00715198962039 35.191595274301491 10.959754281497791 0 -0.82903758062907751 -0.55919289150049634 0.5 0 0 1 I I -0.70710678118654746 0.70710678118654746 0.5 forward I I I I #
loop $-1 $-1 $281 $74 #
coedge $-1 $177 $177 $282 $283 reversed $111 $-1 #
face $-1 $-1 $284 $59 $-1 $285 forward single #
loop $-1 $286 $287 $113 #
cone-surface $-1 -19.856002040107242 35.191595274301491 10.959754281497791 0 -0.82903758062907751 -0.55919289150049634 0.5 0 0 1 I I -0.70710678118654746 0.70710678118654746 0.5 forward I I I I #
loop $-1 $-1 $288 $75 #
coedge $-1 $182 $182 $289 $290 reversed $114 $-1 #
face $-1 $291 $292 $60 $-1 $293 reversed single #
loop $-1 $-1 $294 $116 #
plane-surface $-1 37.260409081795217 -4.7434042587205738 74.014990903414912 0 0.82903758062907751 0.55919289150049634 1 0 0 forward_v I I I I #
coedge $-1 $295 $296 $297 $298 reversed $117 $-1 #
face $-1 $-1 $299 $61 $-1 $300 forward single #
loop $-1 $301 $302 $119 #
cone-surface $-1 33.109259132282091 35.191595274301491 10.959754281497791 0 -0.82903758062907751 -0.55919289150049634 0.5 0 0 1 I I -0.70710678118654746 0.70710678118654746 0.5 forward I I I I #
loop $-1 $-1 $303 $77 #
coedge $-1 $191 $191 $304 $305 reversed $120 $-1 #
face $-1 $-1 $306 $62 $-1 $307 forward single #
loop $-1 $308 $309 $122 #
cone-surface $-1 37.260409081795231 35.191595274301491 10.959754281497791 0 -0.82903758062907751 -0.55919289150049634 0.5 0 0 1 I I -0.70710678118654746 0.70710678118654746 0.5 forward I I I I #
loop $-1 $-1 $310 $78 #
coedge $-1 $196 $196 $311 $312 reversed $123 $-1 #
face $-1 $-1 $313 $63 $-1 $314 forward single #
loop $-1 $315 $316 $125 #
cone-surface $-1 41.411559031308371 35.191595274301491 10.959754281497791 0 -0.82903758062907751 -0.55919289150049634 0.5 0 0 1 I I -0.70710678118654746 0.70710678118654746 0.5 forward I I I I #
loop $-1 $-1 $317 $79 #
coedge $-1 $201 $201 $318 $319 reversed $126 $-1 #
face $-1 $320 $321 $48 $-1 $322 reversed single #
loop $-1 $-1 $323 $128 #
plane-surface $-1 0 -40.067347095899223 0 0 1 0 0 0 1 forward_v I I I I #
coedge $-1 $324 $325 $326 $327 forward $129 $-1 #
coedge $-1 $328 $131 $329 $330 forward $81 $-1 #
coedge $-1 $131 $328 $331 $332 forward $81 $-1 #
coedge $-1 $333 $334 $131 $209 reversed $335 $-1 #
edge $-1 $336 -40.067347095899223 $337 40.067347095899223 $208 $338 forward 7 unknown #
face $-1 $339 $340 $49 $-1 $341 reversed single #
loop $-1 $-1 $216 $132 #
plane-surface $-1 -76.4346671214834 0 -7.1847083572147286 0 0 1 1 0 0 forward_v I I I I #
coedge $-1 $342 $343 $215 $344 forward $133 $-1 #
coedge $-1 $345 $135 $346 $347 reversed $84 $-1 #
coedge $-1 $135 $345 $213 $344 reversed $84 $-1 #
coedge $-1 $348 $349 $135 $217 reversed $211 $-1 #
edge $-1 $350 -40.067347095899223 $351 40.067347095899223 $216 $352 forward 7 unknown #
face $-1 $353 $354 $50 $-1 $355 reversed single #
loop $-1 $-1 $356 $136 #
plane-surface $-1 -20.505021351801815 -140.49874930790082 106.54005735021612 1 0 0 0 0.71933980857756763 -0.69465836192734942 forward_v I I I I #
coedge $-1 $357 $358 $359 $360 reversed $137 $-1 #
coedge $-1 $223 $139 $361 $362 reversed $87 $-1 #
coedge $-1 $139 $222 $357 $363 reversed $87 $-1 #
coedge $-1 $359 $364 $139 $225 forward $365 $-1 #
edge $-1 $366 30.182027558051189 $367 37.127116147842614 $224 $368 forward 7 unknown #
loop $-1 $-1 $231 $140 #
plane-surface $-1 -10.242645805414064 -40.067347095899223 9.5545818979245354 0 -0.71933980857756763 0.69465836192734942 1 0 0 forward_v I I I I #
loop $-1 $-1 $369 $89 #
coedge $-1 $229 $229 $230 $370 reversed $141 $-1 #
coedge $-1 $230 $230 $229 $370 forward $143 $-1 #
coedge $-1 $231 $231 $144 $232 forward $226 $-1 #
edge $-1 $371 -9.2705973631236988e-016 $371 6.2831853071795996 $231 $372 forward 7 unknown #
loop $-1 $-1 $238 $145 #
plane-surface $-1 -10.242645805414064 -40.067347095899223 9.5545818979245354 0 -0.71933980857756763 0.69465836192734942 1 0 0 forward_v I I I I #
loop $-1 $-1 $373 $92 #
coedge $-1 $236 $236 $237 $374 reversed $146 $-1 #
coedge $-1 $237 $237 $236 $374 forward $148 $-1 #
coedge $-1 $238 $238 $149 $239 forward $233 $-1 #
edge $-1 $375 -9.2705973631236988e-016 $375 6.2831853071795996 $238 $376 forward 7 unknown #
face $-1 $377 $378 $53 $-1 $379 reversed single #
loop $-1 $-1 $380 $150 #
plane-surface $-1 13.233527351201154 -140.49874930790082 106.54005735021612 1 0 0 0 0.71933980857756763 -0.69465836192734942 forward_v I I I I #
coedge $-1 $381 $382 $383 $384 reversed $151 $-1 #
coedge $-1 $245 $153 $385 $386 reversed $96 $-1 #
coedge $-1 $153 $244 $381 $387 reversed $96 $-1 #
coedge $-1 $383 $388 $153 $247 forward $389 $-1 #
edge $-1 $390 30.182027558051189 $391 37.127116147842614 $246 $392 forward 7 unknown #
loop $-1 $-1 $253 $154 #
plane-surface $-1 23.495902897588905 -40.067347095899223 9.5545818979245354 0 -0.71933980857756763 0.69465836192734942 1 0 0 forward_v I I I I #
loop $-1 $-1 $393 $98 #
coedge $-1 $251 $251 $252 $394 reversed $155 $-1 #
coedge $-1 $252 $252 $251 $394 forward $157 $-1 #
coedge $-1 $253 $253 $158 $254 forward $248 $-1 #
edge $-1 $395 -9.2705973631236988e-016 $395 6.2831853071795996 $253 $396 forward 7 unknown #
loop $-1 $-1 $260 $159 #
plane-surface $-1 23.495902897588905 -40.067347095899223 9.5545818979245354 0 -0.71933980857756763 0.69465836192734942 1 0 0 forward_v I I I I #
loop $-1 $-1 $397 $101 #
coedge $-1 $258 $258 $259 $398 reversed $160 $-1 #
coedge $-1 $259 $259 $258 $398 forward $162 $-1 #
coedge $-1 $260 $260 $163 $261 forward $255 $-1 #
edge $-1 $399 -9.2705973631236988e-016 $399 6.2831853071795996 $260 $400 forward 7 unknown #
face $-1 $401 $402 $56 $-1 $403 forward single #
loop $-1 $-1 $404 $164 #
plane-surface $-1 -17.088568740431821 111.00357055929463 152.08730878532265 -1 0 0 0 0.82903758062907751 0.55919289150049634 forward_v I I I I #
coedge $-1 $405 $406 $407 $408 reversed $165 $-1 #
coedge $-1 $267 $167 $409 $410 reversed $105 $-1 #
coedge $-1 $167 $266 $405 $411 reversed $105 $-1 #
coedge $-1 $407 $412 $167 $269 forward $402 $-1 #
edge $-1 $413 15.434438183748092 $414 21.617059902727242 $268 $415 forward 7 unknown #
loop $-1 $-1 $275 $168 #
plane-surface $-1 -24.007151989620397 -4.7434042587205738 74.014990903414912 0 0.82903758062907751 0.55919289150049634 1 0 0 forward_v I I I I #
loop $-1 $-1 $416 $107 #
coedge $-1 $273 $273 $274 $417 reversed $169 $-1 #
coedge $-1 $274 $274 $273 $417 forward $171 $-1 #
coedge $-1 $275 $275 $172 $276 forward $270 $-1 #
edge $-1 $418 -1.4726665764702984e-015 $418 6.2831853071795987 $275 $419 forward 7 unknown #
loop $-1 $-1 $282 $173 #
plane-surface $-1 -24.007151989620397 -4.7434042587205738 74.014990903414912 0 0.82903758062907751 0.55919289150049634 1 0 0 forward_v I I I I #
loop $-1 $-1 $420 $110 #
coedge $-1 $280 $280 $281 $421 reversed $174 $-1 #
coedge $-1 $281 $281 $280 $421 forward $176 $-1 #
coedge $-1 $282 $282 $177 $283 forward $277 $-1 #
edge $-1 $422 -1.4726665764702984e-015 $422 6.2831853071795987 $282 $423 forward 7 unknown #
loop $-1 $-1 $289 $178 #
plane-surface $-1 -24.007151989620397 -4.7434042587205738 74.014990903414912 0 0.82903758062907751 0.55919289150049634 1 0 0 forward_v I I I I #
loop $-1 $-1 $424 $113 #
coedge $-1 $287 $287 $288 $425 reversed $179 $-1 #
coedge $-1 $288 $288 $287 $425 forward $181 $-1 #
coedge $-1 $289 $289 $182 $290 forward $284 $-1 #
edge $-1 $426 -1.4726665764702984e-015 $426 6.2831853071795987 $289 $427 forward 7 unknown #
face $-1 $428 $429 $60 $-1 $430 forward single #
loop $-1 $-1 $431 $183 #
plane-surface $-1 44.178992330983789 111.00357055929463 152.08730878532265 -1 0 0 0 0.82903758062907751 0.55919289150049634 forward_v I I I I #
coedge $-1 $432 $433 $434 $435 reversed $184 $-1 #
coedge $-1 $296 $186 $436 $437 reversed $117 $-1 #
coedge $-1 $186 $295 $432 $438 reversed $117 $-1 #
coedge $-1 $434 $439 $186 $298 forward $429 $-1 #
edge $-1 $440 15.434438183748092 $441 21.617059902727242 $297 $442 forward 7 unknown #
loop $-1 $-1 $304 $187 #
plane-surface $-1 37.260409081795217 -4.7434042587205738 74.014990903414912 0 0.82903758062907751 0.55919289150049634 1 0 0 forward_v I I I I #
loop $-1 $-1 $443 $119 #
coedge $-1 $302 $302 $303 $444 reversed $188 $-1 #
coedge $-1 $303 $303 $302 $444 forward $190 $-1 #
coedge $-1 $304 $304 $191 $305 forward $299 $-1 #
edge $-1 $445 -1.4726665764702984e-015 $445 6.2831853071795987 $304 $446 forward 7 unknown #
loop $-1 $-1 $311 $192 #
plane-surface $-1 37.260409081795217 -4.7434042587205738 74.014990903414912 0 0.82903758062907751 0.55919289150049634 1 0 0 forward_v I I I I #
loop $-1 $-1 $447 $122 #
coedge $-1 $309 $309 $310 $448 reversed $193 $-1 #
coedge $-1 $310 $310 $309 $448 forward $195 $-1 #
coedge $-1 $311 $311 $196 $312 forward $306 $-1 #
edge $-1 $449 -1.4726665764702984e-015 $449 6.2831853071795987 $311 $450 forward 7 unknown #
loop $-1 $-1 $318 $197 #
plane-surface $-1 37.260409081795217 -4.7434042587205738 74.014990903414912 0 0.82903758062907751 0.55919289150049634 1 0 0 forward_v I I I I #
loop $-1 $-1 $451 $125 #
coedge $-1 $316 $316 $317 $452 reversed $198 $-1 #
coedge $-1 $317 $317 $316 $452 forward $200 $-1 #
coedge $-1 $318 $318 $201 $319 forward $313 $-1 #
edge $-1 $453 -1.4726665764702984e-015 $453 6.2831853071795987 $318 $454 forward 7 unknown #
face $-1 $455 $456 $48 $-1 $457 reversed single #
loop $-1 $-1 $458 $202 #
plane-surface $-1 -69.808038575395983 0 0 1 0 0 0 0 -1 forward_v I I I I #
coedge $-1 $459 $331 $458 $460 forward $203 $-1 #
coedge $-1 $461 $205 $459 $462 forward $129 $-1 #
coedge $-1 $205 $461 $463 $464 forward $129 $-1 #
coedge $-1 $334 $333 $205 $327 reversed $335 $-1 #
edge $-1 $465 -40.067347095899223 $466 40.067347095899223 $326 $467 forward 7 unknown #
coedge $-1 $207 $206 $468 $469 forward $81 $-1 #
coedge $-1 $470 $471 $206 $330 reversed $456 $-1 #
edge $-1 $337 -69.808038575395983 $472 69.808038575395983 $329 $473 forward 7 unknown #
coedge $-1 $323 $474 $207 $332 reversed $203 $-1 #
edge $-1 $475 -69.808038575395983 $336 69.808038575395983 $331 $476 forward 7 unknown #
coedge $-1 $326 $208 $474 $477 forward $335 $-1 #
coedge $-1 $208 $326 $470 $478 reversed $335 $-1 #
loop $-1 $-1 $333 $455 #
vertex $-1 $209 $479 #
vertex $-1 $209 $480 #
straight-curve $-1 69.808038575395983 0 16.74643183531477 0 1 0 I I #
face $-1 $481 $482 $49 $-1 $483 reversed single #
loop $-1 $-1 $484 $210 #
plane-surface $-1 -83.061295667570818 0 -11.965570096264749 1 0 0 0 0 -1 forward_v I I I I #
coedge $-1 $485 $213 $486 $487 reversed $133 $-1 #
coedge $-1 $213 $485 $348 $488 reversed $133 $-1 #
edge $-1 $350 7.1847083572147286 $489 16.74643183531477 $213 $490 forward 7 unknown #
coedge $-1 $215 $214 $491 $492 reversed $84 $-1 #
coedge $-1 $493 $494 $214 $347 forward $495 $-1 #
edge $-1 $496 -16.74643183531477 $351 -7.1847083572147286 $346 $497 forward 7 unknown #
coedge $-1 $498 $216 $343 $488 forward $211 $-1 #
coedge $-1 $216 $498 $493 $499 forward $211 $-1 #
vertex $-1 $344 $500 #
vertex $-1 $499 $501 #
straight-curve $-1 -69.808038575395983 0 -7.1847083572147286 0 -1 0 I I #
face $-1 $-1 $365 $50 $-1 $502 forward single #
loop $-1 $-1 $503 $218 #
plane-surface $-1 0 -40.067347095899223 0 0 1 0 0 0 1 forward_v I I I I #
coedge $-1 $504 $505 $506 $507 reversed $219 $-1 #
coedge $-1 $508 $221 $223 $363 forward $137 $-1 #
coedge $-1 $221 $508 $504 $509 forward $137 $-1 #
coedge $-1 $506 $224 $221 $360 forward $365 $-1 #
edge $-1 $367 -5.1410526436807196 $510 15.383698449094783 $359 $511 forward 7 unknown #
coedge $-1 $512 $513 $222 $362 forward $354 $-1 #
edge $-1 $514 -43.715446777183523 $366 -36.523596839793285 $361 $515 forward 7 unknown #
edge $-1 $367 -9.9978478205057186 $514 0 $223 $516 forward 7 unknown #
coedge $-1 $224 $506 $512 $517 forward $365 $-1 #
loop $-1 $-1 $506 $353 #
vertex $-1 $362 $518 #
vertex $-1 $225 $519 #
straight-curve $-1 0.019729740973687626 -70.249374653950412 16.746431835314766 0 1 0 I I #
coedge $-1 $369 $369 $-1 $520 reversed $228 $-1 #
edge $-1 $521 0 $521 6.2831853071796004 $229 $522 forward 7 unknown #
vertex $-1 $232 $523 #
ellipse-curve $-1 -14.640806753865959 -36.59480280100351 13.150506866619651 0 -0.71933980857756763 0.69465836192734942 1 0 0 1 I I #
coedge $-1 $373 $373 $-1 $524 reversed $235 $-1 #
edge $-1 $525 0 $525 6.2831853071796004 $236 $526 forward 7 unknown #
vertex $-1 $239 $527 #
ellipse-curve $-1 -5.8444848569621684 -36.59480280100351 13.150506866619651 0 -0.71933980857756763 0.69465836192734942 1 0 0 1 I I #
face $-1 $-1 $389 $53 $-1 $528 forward single #
loop $-1 $-1 $529 $240 #
plane-surface $-1 0 -40.067347095899223 0 0 1 0 0 0 1 forward_v I I I I #
coedge $-1 $530 $531 $532 $533 reversed $241 $-1 #
coedge $-1 $534 $243 $245 $387 forward $151 $-1 #
coedge $-1 $243 $534 $530 $535 forward $151 $-1 #
coedge $-1 $532 $246 $243 $384 forward $389 $-1 #
edge $-1 $391 -22.010326995182204 $536 -1.4855759024067012 $383 $537 forward 7 unknown #
coedge $-1 $538 $539 $244 $386 forward $378 $-1 #
edge $-1 $540 -43.715446777183523 $390 -36.523596839793285 $385 $541 forward 7 unknown #
edge $-1 $391 -9.9978478205057186 $540 0 $245 $542 forward 7 unknown #
coedge $-1 $246 $532 $538 $543 forward $389 $-1 #
loop $-1 $-1 $532 $377 #
vertex $-1 $386 $544 #
vertex $-1 $247 $545 #
straight-curve $-1 33.758278443976657 -70.249374653950412 16.746431835314766 0 1 0 I I #
coedge $-1 $393 $393 $-1 $546 reversed $250 $-1 #
edge $-1 $547 0 $547 6.2831853071796004 $251 $548 forward 7 unknown #
vertex $-1 $254 $549 #
ellipse-curve $-1 19.097741949137003 -36.59480280100351 13.150506866619651 0 -0.71933980857756763 0.69465836192734942 1 0 0 1 I I #
coedge $-1 $397 $397 $-1 $550 reversed $257 $-1 #
edge $-1 $551 0 $551 6.2831853071796004 $258 $552 forward 7 unknown #
vertex $-1 $261 $553 #
ellipse-curve $-1 27.894063846040794 -36.59480280100351 13.150506866619651 0 -0.71933980857756763 0.69465836192734942 1 0 0 1 I I #
face $-1 $-1 $554 $56 $-1 $555 reversed single #
loop $-1 $-1 $268 $262 #
plane-surface $-1 0 0 16.74643183531477 0 0 1 1 0 0 forward_v I I I I #
coedge $-1 $556 $557 $558 $559 reversed $263 $-1 #
coedge $-1 $560 $265 $267 $411 forward $165 $-1 #
coedge $-1 $265 $560 $556 $561 forward $165 $-1 #
coedge $-1 $558 $268 $265 $408 forward $402 $-1 #
edge $-1 $414 -18.922159243998774 $562 -5.0849927456216228 $407 $563 forward 7 unknown #
coedge $-1 $564 $565 $266 $410 forward $554 $-1 #
edge $-1 $566 -68.463336486465977 $413 -59.297222557346558 $409 $567 forward 7 unknown #
edge $-1 $414 69.078363160141066 $566 80.134694191798445 $267 $568 forward 7 unknown #
coedge $-1 $268 $558 $564 $569 forward $402 $-1 #
vertex $-1 $410 $570 #
vertex $-1 $269 $571 #
straight-curve $-1 -30.925735238808972 55.501785279647315 16.746431835314766 0 -1 0 I I #
coedge $-1 $416 $416 $-1 $572 reversed $272 $-1 #
edge $-1 $573 0 $573 6.2831853071796004 $273 $574 forward 7 unknown #
vertex $-1 $276 $575 #
ellipse-curve $-1 -28.158301939133537 36.976036236409648 12.163374870755053 0 0.82903758062907751 0.55919289150049634 1 0 0 1 I I #
coedge $-1 $420 $420 $-1 $576 reversed $279 $-1 #
edge $-1 $577 0 $577 6.2831853071796004 $280 $578 forward 7 unknown #
vertex $-1 $283 $579 #
ellipse-curve $-1 -24.00715198962039 36.976036236409648 12.163374870755053 0 0.82903758062907751 0.55919289150049634 1 0 0 1 I I #
coedge $-1 $424 $424 $-1 $580 reversed $286 $-1 #
edge $-1 $581 0 $581 6.2831853071796004 $287 $582 forward 7 unknown #
vertex $-1 $290 $583 #
ellipse-curve $-1 -19.856002040107242 36.976036236409648 12.163374870755053 0 0.82903758062907751 0.55919289150049634 1 0 0 1 I I #
face $-1 $-1 $584 $60 $-1 $585 reversed single #
loop $-1 $-1 $297 $291 #
plane-surface $-1 0 0 16.74643183531477 0 0 1 1 0 0 forward_v I I I I #
coedge $-1 $586 $587 $588 $589 reversed $292 $-1 #
coedge $-1 $590 $294 $296 $438 forward $184 $-1 #
coedge $-1 $294 $590 $586 $591 forward $184 $-1 #
coedge $-1 $588 $297 $294 $435 forward $429 $-1 #
edge $-1 $441 11.711621291709033 $592 25.54878779008618 $434 $593 forward 7 unknown #
coedge $-1 $594 $595 $295 $437 forward $584 $-1 #
edge $-1 $596 -68.463336486465977 $440 -59.297222557346558 $436 $597 forward 7 unknown #
edge $-1 $441 69.078363160141066 $596 80.134694191798445 $296 $598 forward 7 unknown #
coedge $-1 $297 $588 $594 $599 forward $429 $-1 #
vertex $-1 $298 $600 #
vertex $-1 $298 $601 #
straight-curve $-1 30.341825832606641 55.501785279647315 16.746431835314766 0 -1 0 I I #
coedge $-1 $443 $443 $-1 $602 reversed $301 $-1 #
edge $-1 $603 0 $603 6.2831853071796004 $302 $604 forward 7 unknown #
vertex $-1 $305 $605 #
ellipse-curve $-1 33.109259132282091 36.976036236409648 12.163374870755053 0 0.82903758062907751 0.55919289150049634 1 0 0 1 I I #
coedge $-1 $447 $447 $-1 $606 reversed $308 $-1 #
edge $-1 $607 0 $607 6.2831853071796004 $309 $608 forward 7 unknown #
vertex $-1 $312 $609 #
ellipse-curve $-1 37.260409081795231 36.976036236409648 12.163374870755053 0 0.82903758062907751 0.55919289150049634 1 0 0 1 I I #
coedge $-1 $451 $451 $-1 $610 reversed $315 $-1 #
edge $-1 $611 0 $611 6.2831853071796004 $316 $612 forward 7 unknown #
vertex $-1 $319 $613 #
ellipse-curve $-1 41.411559031308371 36.976036236409648 12.163374870755053 0 0.82903758062907751 0.55919289150049634 1 0 0 1 I I #
face $-1 $-1 $335 $48 $-1 $614 reversed single #
loop $-1 $-1 $470 $320 #
plane-surface $-1 0 40.067347095899223 0 0 -1 0 0 0 -1 forward_v I I I I #
coedge $-1 $468 $615 $323 $460 reversed $321 $-1 #
coedge $-1 $474 $323 $324 $462 reversed $203 $-1 #
edge $-1 $475 -16.74643183531477 $616 16.74643183531477 $458 $617 forward 7 unknown #
coedge $-1 $325 $324 $615 $618 forward $129 $-1 #
edge $-1 $466 -69.808038575395983 $616 69.808038575395983 $459 $619 forward 7 unknown #
coedge $-1 $471 $470 $325 $464 reversed $456 $-1 #
edge $-1 $620 -69.808038575395983 $465 69.808038575395983 $463 $621 forward 7 unknown #
vertex $-1 $327 $622 #
vertex $-1 $477 $623 #
straight-curve $-1 69.808038575395983 0 -16.74643183531477 0 -1 0 I I #
coedge $-1 $624 $458 $328 $469 reversed $321 $-1 #
edge $-1 $472 -40.067347095899223 $475 40.067347095899223 $468 $625 forward 7 unknown #
coedge $-1 $463 $329 $334 $478 forward $456 $-1 #
coedge $-1 $329 $463 $624 $626 reversed $456 $-1 #
vertex $-1 $330 $627 #
straight-curve $-1 0 40.067347095899223 16.74643183531477 -1 0 0 I I #
coedge $-1 $331 $459 $333 $477 reversed $203 $-1 #
vertex $-1 $469 $628 #
straight-curve $-1 0 -40.067347095899223 16.74643183531477 1 0 0 I I #
edge $-1 $336 -16.74643183531477 $466 16.74643183531477 $333 $629 forward 7 unknown #
edge $-1 $337 -16.74643183531477 $465 16.74643183531477 $334 $630 forward 7 unknown #
point $-1 69.808038575395983 -40.067347095899223 16.74643183531477 #
point $-1 69.808038575395983 40.067347095899223 16.74643183531477 #
face $-1 $-1 $495 $49 $-1 $631 reversed single #
loop $-1 $-1 $491 $339 #
plane-surface $-1 0 0 -16.74643183531477 0 0 1 1 0 0 forward_v I I I I #
coedge $-1 $632 $633 $485 $634 forward $340 $-1 #
coedge $-1 $343 $342 $484 $634 reversed $133 $-1 #
coedge $-1 $491 $635 $342 $487 forward $482 $-1 #
edge $-1 $636 -83.061295667570818 $489 -69.808038575395983 $342 $637 forward 7 unknown #
edge $-1 $350 -6.6266285460874172 $638 6.6266285460874172 $343 $639 forward 7 unknown #
vertex $-1 $344 $640 #
straight-curve $-1 -69.808038575395983 40.067347095899223 0 0 0 -1 I I #
coedge $-1 $641 $486 $345 $492 forward $482 $-1 #
edge $-1 $489 -40.067347095899223 $496 40.067347095899223 $491 $642 forward 7 unknown #
coedge $-1 $643 $346 $349 $499 reversed $495 $-1 #
coedge $-1 $346 $643 $641 $644 reversed $495 $-1 #
loop $-1 $-1 $346 $481 #
vertex $-1 $644 $645 #
straight-curve $-1 -69.808038575395983 -40.067347095899223 0 0 0 1 I I #
coedge $-1 $349 $348 $633 $646 forward $211 $-1 #
edge $-1 $647 -6.6266285460874172 $351 6.6266285460874172 $493 $648 forward 7 unknown #
point $-1 -69.808038575395983 40.067347095899223 -7.1847083572147286 #
point $-1 -69.808038575395983 -40.067347095899223 -7.1847083572147286 #
plane-surface $-1 0 0 16.74643183531477 0 0 1 1 0 0 forward_v I I I I #
coedge $-1 $513 $512 $505 $649 forward $354 $-1 #
coedge $-1 $505 $356 $358 $509 reversed $219 $-1 #
coedge $-1 $356 $504 $503 $649 reversed $219 $-1 #
coedge $-1 $364 $359 $356 $507 forward $365 $-1 #
edge $-1 $510 -37.127116147842614 $650 -30.182027558051189 $506 $651 forward 7 unknown #
coedge $-1 $358 $357 $513 $652 reversed $137 $-1 #
edge $-1 $653 0 $510 9.9978478205057186 $504 $654 forward 7 unknown #
vertex $-1 $360 $655 #
straight-curve $-1 -5.1213229027070319 -33.122258506107798 16.74643183531477 -1 0 0 I I #
coedge $-1 $503 $361 $364 $517 reversed $354 $-1 #
coedge $-1 $361 $503 $508 $652 forward $354 $-1 #
vertex $-1 $362 $656 #
straight-curve $-1 0.019729740973687626 -40.067347095899223 53.270028675108058 0 0 1 I I #
straight-curve $-1 0.019729740973687626 -40.067347095899223 9.5545818979245354 0 -0.69465836192734942 -0.71933980857756763 I I #
edge $-1 $650 -20.505021351801815 $366 0.019729740973687626 $512 $657 forward 7 unknown #
point $-1 0.019729740973687626 -40.067347095899223 16.74643183531477 #
point $-1 0.019729740973687626 -33.122258506107798 16.74643183531477 #
edge $-1 $658 1 $658 0 $369 $-1 forward 7 unknown #
vertex $-1 $370 $659 #
ellipse-curve $-1 -14.640806753865959 -35.042076420166623 11.651056465888454 0 -0.71933980857756763 0.69465836192734942 1 0 0 1 I I #
point $-1 -13.640806753865959 -36.594802801003524 13.150506866619663 #
edge $-1 $660 1 $660 0 $373 $-1 forward 7 unknown #
vertex $-1 $374 $661 #
ellipse-curve $-1 -5.8444848569621684 -35.042076420166623 11.651056465888454 0 -0.71933980857756763 0.69465836192734942 1 0 0 1 I I #
point $-1 -4.8444848569621684 -36.594802801003524 13.150506866619663 #
plane-surface $-1 0 0 16.74643183531477 0 0 1 1 0 0 forward_v I I I I #
coedge $-1 $539 $538 $531 $662 forward $378 $-1 #
coedge $-1 $531 $380 $382 $535 reversed $241 $-1 #
coedge $-1 $380 $530 $529 $662 reversed $241 $-1 #
coedge $-1 $388 $383 $380 $533 forward $389 $-1 #
edge $-1 $536 -37.127116147842614 $663 -30.182027558051189 $532 $664 forward 7 unknown #
coedge $-1 $382 $381 $539 $665 reversed $151 $-1 #
edge $-1 $666 0 $536 9.9978478205057186 $530 $667 forward 7 unknown #
vertex $-1 $384 $668 #
straight-curve $-1 11.747951448794453 -33.122258506107798 16.74643183531477 -1 0 0 I I #
coedge $-1 $529 $385 $388 $543 reversed $378 $-1 #
coedge $-1 $385 $529 $534 $665 forward $378 $-1 #
vertex $-1 $386 $669 #
straight-curve $-1 33.758278443976657 -40.067347095899223 53.270028675108058 0 0 1 I I #
straight-curve $-1 33.758278443976657 -40.067347095899223 9.5545818979245354 0 -0.69465836192734942 -0.71933980857756763 I I #
edge $-1 $663 13.233527351201154 $390 33.758278443976657 $538 $670 forward 7 unknown #
point $-1 33.758278443976657 -40.067347095899223 16.74643183531477 #
point $-1 33.758278443976657 -33.122258506107798 16.74643183531477 #
edge $-1 $671 1 $671 0 $393 $-1 forward 7 unknown #
vertex $-1 $394 $672 #
ellipse-curve $-1 19.097741949137003 -35.042076420166623 11.651056465888454 0 -0.71933980857756763 0.69465836192734942 1 0 0 1 I I #
point $-1 20.097741949137003 -36.594802801003524 13.150506866619663 #
edge $-1 $673 1 $673 0 $397 $-1 forward 7 unknown #
vertex $-1 $398 $674 #
ellipse-curve $-1 27.894063846040794 -35.042076420166623 11.651056465888454 0 -0.71933980857756763 0.69465836192734942 1 0 0 1 I I #
point $-1 28.894063846040794 -36.594802801003524 13.150506866619663 #
loop $-1 $-1 $409 $401 #
plane-surface $-1 0 40.067347095899223 0 0 -1 0 0 0 -1 forward_v I I I I #
coedge $-1 $557 $404 $406 $561 reversed $263 $-1 #
coedge $-1 $404 $556 $675 $676 reversed $263 $-1 #
coedge $-1 $412 $407 $404 $559 forward $402 $-1 #
edge $-1 $562 -21.617059902727242 $677 -15.434438183748092 $558 $678 forward 7 unknown #
coedge $-1 $406 $405 $565 $679 reversed $165 $-1 #
edge $-1 $680 -80.134694191798445 $562 -69.078363160141066 $556 $681 forward 7 unknown #
vertex $-1 $408 $682 #
straight-curve $-1 -12.003575994810198 33.884725376920066 16.746431835314773 1 0 0 I I #
coedge $-1 $675 $409 $412 $569 reversed $554 $-1 #
coedge $-1 $409 $675 $560 $679 forward $554 $-1 #
vertex $-1 $410 $683 #
straight-curve $-1 -30.925735238808972 40.067347095899223 76.043654392661324 0 0 1 I I #
straight-curve $-1 -30.925735238808972 -4.7434042587205738 74.014990903414912 0 0.55919289150049634 -0.82903758062907751 I I #
edge $-1 $677 17.088568740431821 $413 30.925735238808972 $564 $684 forward 7 unknown #
point $-1 -30.925735238808972 40.067347095899223 16.74643183531477 #
point $-1 -30.925735238808972 33.884725376920073 16.746431835314766 #
edge $-1 $685 1 $685 0 $416 $-1 forward 7 unknown #
vertex $-1 $417 $686 #
ellipse-curve $-1 -28.158301939133537 35.60611406461603 11.23935072724804 0 0.82903758062907751 0.55919289150049634 1 0 0 1 I I #
point $-1 -27.158301939133537 36.976036236409648 12.163374870755055 #
edge $-1 $687 1 $687 0 $420 $-1 forward 7 unknown #
vertex $-1 $421 $688 #
ellipse-curve $-1 -24.00715198962039 35.60611406461603 11.23935072724804 0 0.82903758062907751 0.55919289150049634 1 0 0 1 I I #
point $-1 -23.00715198962039 36.976036236409648 12.163374870755055 #
edge $-1 $689 1 $689 0 $424 $-1 forward 7 unknown #
vertex $-1 $425 $690 #
ellipse-curve $-1 -19.856002040107242 35.60611406461603 11.23935072724804 0 0.82903758062907751 0.55919289150049634 1 0 0 1 I I #
point $-1 -18.856002040107242 36.976036236409648 12.163374870755055 #
loop $-1 $-1 $436 $428 #
plane-surface $-1 0 40.067347095899223 0 0 -1 0 0 0 -1 forward_v I I I I #
coedge $-1 $587 $431 $433 $591 reversed $292 $-1 #
coedge $-1 $431 $586 $691 $692 reversed $292 $-1 #
coedge $-1 $439 $434 $431 $589 forward $429 $-1 #
edge $-1 $592 -21.617059902727242 $693 -15.434438183748092 $588 $694 forward 7 unknown #
coedge $-1 $433 $432 $595 $695 reversed $184 $-1 #
edge $-1 $696 -80.134694191798445 $592 -69.078363160141066 $586 $697 forward 7 unknown #
vertex $-1 $435 $698 #
straight-curve $-1 18.630204540897608 33.884725376920066 16.746431835314773 1 0 0 I I #
coedge $-1 $691 $436 $439 $599 reversed $584 $-1 #
coedge $-1 $436 $691 $590 $695 forward $584 $-1 #
vertex $-1 $437 $699 #
straight-curve $-1 30.341825832606641 40.067347095899223 76.043654392661324 0 0 1 I I #
straight-curve $-1 30.341825832606641 -4.7434042587205738 74.014990903414912 0 0.55919289150049634 -0.82903758062907751 I I #
edge $-1 $693 -44.178992330983789 $440 -30.341825832606641 $594 $700 forward 7 unknown #
point $-1 30.341825832606641 40.067347095899223 16.74643183531477 #
point $-1 30.341825832606641 33.884725376920073 16.746431835314766 #
edge $-1 $701 1 $701 0 $443 $-1 forward 7 unknown #
vertex $-1 $444 $702 #
ellipse-curve $-1 33.109259132282091 35.60611406461603 11.23935072724804 0 0.82903758062907751 0.55919289150049634 1 0 0 1 I I #
point $-1 34.109259132282091 36.976036236409648 12.163374870755055 #
edge $-1 $703 1 $703 0 $447 $-1 forward 7 unknown #
vertex $-1 $448 $704 #
ellipse-curve $-1 37.260409081795231 35.60611406461603 11.23935072724804 0 0.82903758062907751 0.55919289150049634 1 0 0 1 I I #
point $-1 38.260409081795231 36.976036236409648 12.163374870755055 #
edge $-1 $705 1 $705 0 $451 $-1 forward 7 unknown #
vertex $-1 $452 $706 #
ellipse-curve $-1 41.411559031308371 35.60611406461603 11.23935072724804 0 0.82903758062907751 0.55919289150049634 1 0 0 1 I I #
point $-1 42.411559031308371 36.976036236409648 12.163374870755055 #
plane-surface $-1 69.808038575395983 0 0 -1 0 0 0 0 1 forward_v I I I I #
coedge $-1 $458 $624 $461 $618 reversed $321 $-1 #
vertex $-1 $618 $707 #
straight-curve $-1 -69.808038575395983 -40.067347095899223 0 0 0 -1 I I #
edge $-1 $616 -40.067347095899223 $620 40.067347095899223 $615 $708 forward 7 unknown #
straight-curve $-1 0 -40.067347095899223 -16.74643183531477 -1 0 0 I I #
vertex $-1 $464 $709 #
straight-curve $-1 0 40.067347095899223 -16.74643183531477 1 0 0 I I #
point $-1 69.808038575395983 40.067347095899223 -16.74643183531477 #
point $-1 69.808038575395983 -40.067347095899223 -16.74643183531477 #
coedge $-1 $615 $468 $471 $626 forward $321 $-1 #
straight-curve $-1 -69.808038575395983 0 16.74643183531477 0 -1 0 I I #
edge $-1 $472 -16.74643183531477 $620 16.74643183531477 $471 $710 forward 7 unknown #
point $-1 -69.808038575395983 40.067347095899223 16.74643183531477 #
point $-1 -69.808038575395983 -40.067347095899223 16.74643183531477 #
straight-curve $-1 69.808038575395983 -40.067347095899223 0 0 0 -1 I I #
straight-curve $-1 69.808038575395983 40.067347095899223 0 0 0 -1 I I #
plane-surface $-1 0 -40.067347095899223 0 0 1 0 0 0 1 forward_v I I I I #
coedge $-1 $711 $484 $635 $712 reversed $340 $-1 #
coedge $-1 $484 $711 $498 $646 reversed $340 $-1 #
edge $-1 $638 -4.7808617390500201 $636 4.780861739050021 $485 $713 forward 7 unknown #
coedge $-1 $486 $641 $632 $712 forward $482 $-1 #
vertex $-1 $487 $714 #
straight-curve $-1 0 40.067347095899223 -16.74643183531477 1 0 0 I I #
vertex $-1 $488 $715 #
straight-curve $-1 -76.4346671214834 40.067347095899223 -7.1847083572147286 -1 0 0 I I #
point $-1 -69.808038575395983 40.067347095899223 -16.74643183531477 #
coedge $-1 $635 $491 $494 $644 forward $482 $-1 #
straight-curve $-1 -69.808038575395983 0 -16.74643183531477 0 -1 0 I I #
coedge $-1 $494 $493 $711 $716 forward $495 $-1 #
edge $-1 $496 -6.6266285460874172 $717 6.6266285460874172 $494 $718 forward 7 unknown #
point $-1 -69.808038575395983 -40.067347095899223 -16.74643183531477 #
edge $-1 $638 -40.067347095899223 $647 40.067347095899223 $633 $719 forward 7 unknown #
vertex $-1 $646 $720 #
straight-curve $-1 -76.4346671214834 -40.067347095899223 -7.1847083572147286 1 0 0 I I #
edge $-1 $650 36.523596839793285 $653 43.715446777183523 $503 $721 forward 7 unknown #
vertex $-1 $517 $722 #
straight-curve $-1 -20.505021351801815 -70.249374653950412 16.746431835314766 0 -1 0 I I #
edge $-1 $653 -15.383698449094783 $514 5.1410526436807196 $513 $723 forward 7 unknown #
vertex $-1 $652 $724 #
straight-curve $-1 -20.505021351801815 -40.067347095899223 9.5545818979245354 0 0.69465836192734942 0.71933980857756763 I I #
point $-1 -20.505021351801815 -33.122258506107798 16.74643183531477 #
point $-1 0.019729740973687626 -40.067347095899223 9.5545818979245354 #
straight-curve $-1 0 -40.067347095899223 16.74643183531477 1 0 0 I I #
vertex $-1 $520 $725 #
point $-1 -13.640806753865959 -35.042076420166623 11.651056465888454 #
vertex $-1 $524 $726 #
point $-1 -4.8444848569621684 -35.042076420166623 11.651056465888454 #
edge $-1 $663 36.523596839793285 $666 43.715446777183523 $529 $727 forward 7 unknown #
vertex $-1 $543 $728 #
straight-curve $-1 13.233527351201154 -70.249374653950412 16.746431835314766 0 -1 0 I I #
edge $-1 $666 1.4855759024067012 $540 22.010326995182204 $539 $729 forward 7 unknown #
vertex $-1 $665 $730 #
straight-curve $-1 13.233527351201154 -40.067347095899223 9.5545818979245354 0 0.69465836192734942 0.71933980857756763 I I #
point $-1 13.233527351201154 -33.122258506107798 16.74643183531477 #
point $-1 33.758278443976657 -40.067347095899223 9.5545818979245354 #
straight-curve $-1 0 -40.067347095899223 16.74643183531477 1 0 0 I I #
vertex $-1 $546 $731 #
point $-1 20.097741949137003 -35.042076420166623 11.651056465888454 #
vertex $-1 $550 $732 #
point $-1 28.894063846040794 -35.042076420166623 11.651056465888454 #
coedge $-1 $565 $564 $557 $676 forward $554 $-1 #
edge $-1 $677 59.297222557346558 $680 68.463336486465977 $675 $733 forward 7 unknown #
vertex $-1 $569 $734 #
straight-curve $-1 -17.088568740431821 55.501785279647315 16.746431835314766 0 1 0 I I #
edge $-1 $680 5.0849927456216228 $566 18.922159243998774 $565 $735 forward 7 unknown #
vertex $-1 $679 $736 #
straight-curve $-1 -17.088568740431821 -4.7434042587205738 74.014990903414912 0 -0.55919289150049634 0.82903758062907751 I I #
point $-1 -17.088568740431821 33.884725376920073 16.746431835314766 #
point $-1 -30.925735238808972 40.067347095899223 7.5803179061953472 #
straight-curve $-1 0 40.067347095899223 16.74643183531477 -1 0 0 I I #
vertex $-1 $572 $737 #
point $-1 -27.158301939133537 35.60611406461603 11.23935072724804 #
vertex $-1 $576 $738 #
point $-1 -23.00715198962039 35.60611406461603 11.23935072724804 #
vertex $-1 $580 $739 #
point $-1 -18.856002040107242 35.60611406461603 11.23935072724804 #
coedge $-1 $595 $594 $587 $692 forward $584 $-1 #
edge $-1 $693 59.297222557346558 $696 68.463336486465977 $691 $740 forward 7 unknown #
vertex $-1 $599 $741 #
straight-curve $-1 44.178992330983789 55.501785279647315 16.746431835314766 0 1 0 I I #
edge $-1 $696 -25.54878779008618 $596 -11.711621291709033 $595 $742 forward 7 unknown #
vertex $-1 $695 $743 #
straight-curve $-1 44.178992330983789 -4.7434042587205738 74.014990903414912 0 -0.55919289150049634 0.82903758062907751 I I #
point $-1 44.178992330983789 33.884725376920073 16.746431835314766 #
point $-1 30.341825832606641 40.067347095899223 7.5803179061953472 #
straight-curve $-1 0 40.067347095899223 16.74643183531477 -1 0 0 I I #
vertex $-1 $602 $744 #
point $-1 34.109259132282091 35.60611406461603 11.23935072724804 #
vertex $-1 $606 $745 #
point $-1 38.260409081795231 35.60611406461603 11.23935072724804 #
vertex $-1 $610 $746 #
point $-1 42.411559031308371 35.60611406461603 11.23935072724804 #
point $-1 -69.808038575395983 -40.067347095899223 -16.74643183531477 #
straight-curve $-1 -69.808038575395983 0 -16.74643183531477 0 1 0 I I #
point $-1 -69.808038575395983 40.067347095899223 -16.74643183531477 #
straight-curve $-1 -69.808038575395983 40.067347095899223 0 0 0 -1 I I #
coedge $-1 $633 $632 $643 $716 reversed $340 $-1 #
edge $-1 $717 -40.067347095899223 $636 40.067347095899223 $632 $747 forward 7 unknown #
straight-curve $-1 -83.061295667570818 40.067347095899223 -11.965570096264749 0 0 -1 I I #
point $-1 -83.061295667570818 40.067347095899223 -16.74643183531477 #
point $-1 -83.061295667570818 40.067347095899223 -7.1847083572147286 #
edge $-1 $647 -4.7808617390500201 $717 4.780861739050021 $711 $748 forward 7 unknown #
vertex $-1 $712 $749 #
straight-curve $-1 -76.4346671214834 -40.067347095899223 -16.74643183531477 -1 0 0 I I #
straight-curve $-1 -83.061295667570818 0 -7.1847083572147286 0 -1 0 I I #
point $-1 -83.061295667570818 -40.067347095899223 -7.1847083572147286 #
straight-curve $-1 -20.505021351801815 -40.067347095899223 53.270028675108058 0 0 -1 I I #
point $-1 -20.505021351801815 -40.067347095899223 16.74643183531477 #
straight-curve $-1 -5.1213229027070319 -40.067347095899223 9.5545818979245389 1 0 0 I I #
point $-1 -20.505021351801815 -40.067347095899223 9.5545818979245354 #
point $-1 -14.640806753865959 -34.32273661158905 10.956398103961105 #
point $-1 -5.8444848569621684 -34.32273661158905 10.956398103961105 #
straight-curve $-1 13.233527351201154 -40.067347095899223 53.270028675108058 0 0 -1 I I #
point $-1 13.233527351201154 -40.067347095899223 16.74643183531477 #
straight-curve $-1 11.747951448794453 -40.067347095899223 9.5545818979245389 1 0 0 I I #
point $-1 13.233527351201154 -40.067347095899223 9.5545818979245354 #
point $-1 19.097741949137003 -34.32273661158905 10.956398103961105 #
point $-1 27.894063846040794 -34.32273661158905 10.956398103961105 #
straight-curve $-1 -17.088568740431821 40.067347095899223 76.043654392661324 0 0 -1 I I #
point $-1 -17.088568740431821 40.067347095899223 16.74643183531477 #
straight-curve $-1 -12.003575994810198 40.067347095899223 7.5803179061953436 -1 0 0 I I #
point $-1 -17.088568740431821 40.067347095899223 7.5803179061953472 #
point $-1 -28.158301939133537 34.777076483986953 10.680157835747542 #
point $-1 -24.00715198962039 34.777076483986953 10.680157835747542 #
point $-1 -19.856002040107242 34.777076483986953 10.680157835747542 #
straight-curve $-1 44.178992330983789 40.067347095899223 76.043654392661324 0 0 -1 I I #
point $-1 44.178992330983789 40.067347095899223 16.74643183531477 #
straight-curve $-1 18.630204540897608 40.067347095899223 7.5803179061953436 -1 0 0 I I #
point $-1 44.178992330983789 40.067347095899223 7.5803179061953472 #
point $-1 33.109259132282091 34.777076483986953 10.680157835747542 #
point $-1 37.260409081795231 34.777076483986953 10.680157835747542 #
point $-1 41.411559031308371 34.777076483986953 10.680157835747542 #
straight-curve $-1 -83.061295667570818 0 -16.74643183531477 0 1 0 I I #
straight-curve $-1 -83.061295667570818 -40.067347095899223 -11.965570096264749 0 0 -1 I I #
point $-1 -83.061295667570818 -40.067347095899223 -16.74643183531477 #
End-of-ACIS-data 