500 0 13 0           
7 Unknown 11 ACIS 5.0 NT 24 Thu Mar 25 17:35:09 1999 
-1 9.9999999999999995e-007 1e-010 
body $-1 $13 $-1 $14 #
body $-1 $15 $-1 $16 #
body $-1 $17 $-1 $18 #
body $-1 $19 $-1 $20 #
body $-1 $21 $-1 $22 #
body $-1 $23 $-1 $24 #
body $-1 $25 $-1 $26 #
body $-1 $27 $-1 $28 #
body $-1 $29 $-1 $30 #
body $-1 $31 $-1 $32 #
body $-1 $33 $-1 $34 #
body $-1 $35 $-1 $36 #
body $-1 $37 $-1 $38 #
lump $-1 $-1 $39 $0 #
transform $-1 1 0 0 0 1 0 0 0 1 71.407208471938233 30.704642002204075 9.231820506653472 1 rotate no_reflect no_shear #
lump $-1 $-1 $40 $1 #
transform $-1 1 0 0 0 1 0 0 0 1 71.407208471938233 30.704642002204075 9.231820506653472 1 rotate no_reflect no_shear #
lump $-1 $-1 $41 $2 #
transform $-1 1 0 0 0 1 0 0 0 1 71.407208471938233 30.704642002204075 9.231820506653472 1 rotate no_reflect no_shear #
lump $-1 $-1 $42 $3 #
transform $-1 1 0 0 0 1 0 0 0 1 71.407208471938233 30.704642002204075 9.231820506653472 1 rotate no_reflect no_shear #
lump $-1 $-1 $43 $4 #
transform $-1 1 0 0 0 1 0 0 0 1 71.407208471938233 30.704642002204075 9.231820506653472 1 rotate no_reflect no_shear #
lump $-1 $-1 $44 $5 #
transform $-1 1 0 0 0 1 0 0 0 1 71.407208471938233 30.704642002204075 9.231820506653472 1 rotate no_reflect no_shear #
lump $-1 $-1 $45 $6 #
transform $-1 1 0 0 0 1 0 0 0 1 71.407208471938233 30.704642002204075 9.231820506653472 1 rotate no_reflect no_shear #
lump $-1 $-1 $46 $7 #
transform $-1 1 0 0 0 1 0 0 0 1 71.407208471938233 30.704642002204075 9.231820506653472 1 rotate no_reflect no_shear #
lump $-1 $-1 $47 $8 #
transform $-1 1 0 0 0 1 0 0 0 1 71.407208471938233 30.704642002204075 9.231820506653472 1 rotate no_reflect no_shear #
lump $-1 $-1 $48 $9 #
transform $-1 1 0 0 0 1 0 0 0 1 71.407208471938233 30.704642002204075 9.231820506653472 1 rotate no_reflect no_shear #
lump $-1 $-1 $49 $10 #
transform $-1 1 0 0 0 1 0 0 0 1 71.407208471938233 30.704642002204075 9.231820506653472 1 rotate no_reflect no_shear #
lump $-1 $-1 $50 $11 #
transform $-1 1 0 0 0 1 0 0 0 1 71.407208471938233 30.704642002204075 9.231820506653472 1 rotate no_reflect no_shear #
lump $-1 $-1 $51 $12 #
transform $-1 1 0 0 0 1 0 0 0 1 71.407208471938233 30.704642002204075 9.231820506653472 1 rotate no_reflect no_shear #
shell $-1 $-1 $-1 $52 $-1 $13 #
shell $-1 $-1 $-1 $53 $-1 $15 #
shell $-1 $-1 $-1 $54 $-1 $17 #
shell $-1 $-1 $-1 $55 $-1 $19 #
shell $-1 $-1 $-1 $56 $-1 $21 #
shell $-1 $-1 $-1 $57 $-1 $23 #
shell $-1 $-1 $-1 $58 $-1 $25 #
shell $-1 $-1 $-1 $59 $-1 $27 #
shell $-1 $-1 $-1 $60 $-1 $29 #
shell $-1 $-1 $-1 $61 $-1 $31 #
shell $-1 $-1 $-1 $62 $-1 $33 #
shell $-1 $-1 $-1 $63 $-1 $35 #
shell $-1 $-1 $-1 $64 $-1 $37 #
face $-1 $65 $66 $39 $-1 $67 forward single #
face $-1 $68 $69 $40 $-1 $70 reversed single #
face $-1 $71 $72 $41 $-1 $73 forward single #
face $-1 $74 $75 $42 $-1 $76 reversed single #
face $-1 $77 $78 $43 $-1 $79 forward single #
face $-1 $80 $81 $44 $-1 $82 forward single #
face $-1 $83 $84 $45 $-1 $85 reversed single #
face $-1 $86 $87 $46 $-1 $88 forward single #
face $-1 $89 $90 $47 $-1 $91 forward single #
face $-1 $92 $93 $48 $-1 $94 reversed single #
face $-1 $95 $96 $49 $-1 $97 forward single #
face $-1 $98 $99 $50 $-1 $100 reversed single #
face $-1 $101 $102 $51 $-1 $103 forward single #
face $-1 $104 $105 $39 $-1 $106 reversed single #
loop $-1 $-1 $107 $52 #
plane-surface $-1 0 0 9.231820506653472 0 0 1 1 0 0 forward_v I I I I #
face $-1 $108 $109 $40 $-1 $110 reversed single #
loop $-1 $-1 $111 $53 #
plane-surface $-1 -67.443605633524044 -15.502721195370937 0 0 1 0 0 0 1 forward_v I I I I #
face $-1 $112 $113 $41 $-1 $114 reversed single #
loop $-1 $-1 $115 $54 #
plane-surface $-1 71.407208471938233 0 0 -1 0 0 0 0 1 forward_v I I I I #
face $-1 $116 $117 $42 $-1 $118 reversed single #
loop $-1 $-1 $119 $55 #
plane-surface $-1 -30.885469399243807 -128.10384130921082 107.60702893611048 -1 0 0 0 -0.68199836817093118 0.7313536940579346 forward_v I I I I #
face $-1 $120 $121 $43 $-1 $122 forward single #
loop $-1 $123 $124 $56 #
cone-surface $-1 -43.41041614127947 -25.48388863621286 4.0886191759443591 0 0.68199836817093118 -0.7313536940579346 1.5 0 0 1 I I 0 1 1.5 forward I I I I #
face $-1 $125 $126 $44 $-1 $127 forward single #
loop $-1 $128 $129 $57 #
cone-surface $-1 -35.895448096058068 -25.48388863621286 4.0886191759443591 0 0.68199836817093118 -0.7313536940579346 1.5 0 0 1 I I 0 1 1.5 forward I I I I #
face $-1 $130 $131 $45 $-1 $132 reversed single #
loop $-1 $-1 $133 $58 #
plane-surface $-1 31.958865628132781 -128.10384130921082 107.60702893611048 -1 0 0 0 -0.68199836817093118 0.7313536940579346 forward_v I I I I #
face $-1 $134 $135 $46 $-1 $136 forward single #
loop $-1 $137 $138 $59 #
cone-surface $-1 19.433918886097118 -25.48388863621286 4.0886191759443591 0 0.68199836817093118 -0.7313536940579346 1.5 0 0 1 I I 0 1 1.5 forward I I I I #
face $-1 $139 $140 $47 $-1 $141 forward single #
loop $-1 $142 $143 $60 #
cone-surface $-1 26.948886931318512 -25.48388863621286 4.0886191759443591 0 0.68199836817093118 -0.7313536940579346 1.5 0 0 1 I I 0 1 1.5 forward I I I I #
face $-1 $144 $145 $48 $-1 $146 reversed single #
loop $-1 $-1 $147 $61 #
plane-surface $-1 -63.480002795109868 88.266765202595366 144.58521638548658 1 0 0 0 -0.70710678939079041 -0.70710677298230451 forward_v I I I I #
face $-1 $148 $149 $49 $-1 $150 forward single #
loop $-1 $151 $152 $62 #
cone-surface $-1 -53.063516385492377 24.242439410995605 2.7696178552889275 0 -0.70710678939079041 -0.70710677298230451 1.5 0 0 1 I I 0 1 1.5 forward I I I I #
face $-1 $153 $154 $50 $-1 $155 reversed single #
loop $-1 $-1 $156 $63 #
plane-surface $-1 41.37569444040831 88.266765202595366 144.58521638548658 1 0 0 0 -0.70710678939079041 -0.70710677298230451 forward_v I I I I #
face $-1 $157 $158 $51 $-1 $159 forward single #
loop $-1 $160 $161 $64 #
cone-surface $-1 51.792180850025801 24.242439410995605 2.7696178552889275 0 -0.70710678939079041 -0.70710677298230451 1.5 0 0 1 I I 0 1 1.5 forward I I I I #
face $-1 $162 $163 $39 $-1 $164 reversed single #
loop $-1 $-1 $165 $65 #
plane-surface $-1 0 0 -9.231820506653472 0 0 1 1 0 0 forward_v I I I I #
coedge $-1 $166 $167 $168 $169 forward $66 $-1 #
face $-1 $170 $171 $40 $-1 $172 reversed single #
loop $-1 $-1 $173 $68 #
plane-surface $-1 -67.443605633524044 -12.241000988897129 0 0 -1 0 0 0 -1 forward_v I I I I #
coedge $-1 $174 $175 $176 $177 reversed $69 $-1 #
face $-1 $178 $179 $41 $-1 $180 reversed single #
loop $-1 $-1 $181 $71 #
plane-surface $-1 0 -30.704642002204075 0 0 1 0 0 0 1 forward_v I I I I #
coedge $-1 $182 $183 $184 $185 forward $72 $-1 #
face $-1 $186 $187 $42 $-1 $188 reversed single #
loop $-1 $-1 $189 $74 #
plane-surface $-1 -39.652932118668772 -30.704642002204082 3.1591775394763459 0 -0.68199836817093118 0.7313536940579346 1 0 0 forward_v I I I I #
coedge $-1 $190 $191 $192 $193 reversed $75 $-1 #
face $-1 $-1 $194 $43 $-1 $195 forward single #
loop $-1 $196 $197 $77 #
cone-surface $-1 -43.41041614127947 -23.007692574294232 1.4332240582803681 0 0.68199836817093118 -0.7313536940579346 0.75 0 0 1 I I -0.70710678118654757 0.70710678118654757 0.75 forward I I I I #
loop $-1 $-1 $198 $56 #
coedge $-1 $124 $124 $199 $200 reversed $78 $-1 #
face $-1 $-1 $201 $44 $-1 $202 forward single #
loop $-1 $203 $204 $80 #
cone-surface $-1 -35.895448096058068 -23.007692574294232 1.4332240582803681 0 0.68199836817093118 -0.7313536940579346 0.75 0 0 1 I I -0.70710678118654757 0.70710678118654757 0.75 forward I I I I #
loop $-1 $-1 $205 $57 #
coedge $-1 $129 $129 $206 $207 reversed $81 $-1 #
face $-1 $208 $209 $45 $-1 $210 reversed single #
loop $-1 $-1 $211 $83 #
plane-surface $-1 23.191402908707815 -30.704642002204082 3.1591775394763459 0 -0.68199836817093118 0.7313536940579346 1 0 0 forward_v I I I I #
coedge $-1 $212 $213 $214 $215 reversed $84 $-1 #
face $-1 $-1 $216 $46 $-1 $217 forward single #
loop $-1 $218 $219 $86 #
cone-surface $-1 19.433918886097118 -23.007692574294232 1.4332240582803681 0 0.68199836817093118 -0.7313536940579346 0.75 0 0 1 I I -0.70710678118654757 0.70710678118654757 0.75 forward I I I I #
loop $-1 $-1 $220 $59 #
coedge $-1 $138 $138 $221 $222 reversed $87 $-1 #
face $-1 $-1 $223 $47 $-1 $224 forward single #
loop $-1 $225 $226 $89 #
cone-surface $-1 26.948886931318512 -23.007692574294232 1.4332240582803681 0 0.68199836817093118 -0.7313536940579346 0.75 0 0 1 I I -0.70710678118654757 0.70710678118654757 0.75 forward I I I I #
loop $-1 $-1 $227 $60 #
coedge $-1 $143 $143 $228 $229 reversed $90 $-1 #
face $-1 $230 $231 $48 $-1 $232 reversed single #
loop $-1 $-1 $233 $92 #
plane-surface $-1 -53.063516385492377 -12.718278641306824 43.600174884952736 0 0.70710678939079041 0.70710677298230451 1 0 0 forward_v I I I I #
coedge $-1 $234 $235 $236 $237 reversed $93 $-1 #
face $-1 $-1 $238 $49 $-1 $239 forward single #
loop $-1 $240 $241 $95 #
cone-surface $-1 -53.063516385492377 21.777190259110483 0.30436876061016527 0 -0.70710678939079041 -0.70710677298230451 0.75 0 0 1 I I -0.70710678118654757 0.70710678118654757 0.75 forward I I I I #
loop $-1 $-1 $242 $62 #
coedge $-1 $152 $152 $243 $244 reversed $96 $-1 #
face $-1 $245 $246 $50 $-1 $247 reversed single #
loop $-1 $-1 $248 $98 #
plane-surface $-1 51.792180850025801 -12.718278641306824 43.600174884952736 0 0.70710678939079041 0.70710677298230451 1 0 0 forward_v I I I I #
coedge $-1 $249 $250 $251 $252 reversed $99 $-1 #
face $-1 $-1 $253 $51 $-1 $254 forward single #
loop $-1 $255 $256 $101 #
cone-surface $-1 51.792180850025801 21.777190259110483 0.30436876061016527 0 -0.70710678939079041 -0.70710677298230451 0.75 0 0 1 I I -0.70710678118654757 0.70710678118654757 0.75 forward I I I I #
loop $-1 $-1 $257 $64 #
coedge $-1 $161 $161 $258 $259 reversed $102 $-1 #
face $-1 $260 $261 $39 $-1 $262 reversed single #
loop $-1 $-1 $263 $104 #
plane-surface $-1 0 -30.704642002204075 0 0 1 0 0 0 1 forward_v I I I I #
coedge $-1 $264 $265 $266 $267 forward $105 $-1 #
coedge $-1 $268 $107 $269 $270 forward $66 $-1 #
coedge $-1 $107 $268 $271 $272 forward $66 $-1 #
coedge $-1 $273 $274 $107 $169 reversed $275 $-1 #
edge $-1 $276 -30.704642002204075 $277 30.704642002204075 $168 $278 forward 7 unknown #
face $-1 $279 $280 $40 $-1 $281 reversed single #
loop $-1 $-1 $282 $108 #
plane-surface $-1 -63.480002795109861 -13.871861092134033 0 -1 0 0 0 0 1 forward_v I I I I #
coedge $-1 $283 $284 $285 $286 forward $109 $-1 #
coedge $-1 $287 $111 $288 $289 reversed $69 $-1 #
coedge $-1 $111 $287 $290 $291 reversed $69 $-1 #
coedge $-1 $292 $293 $111 $177 forward $294 $-1 #
edge $-1 $295 -9.231820506653472 $296 9.231820506653472 $176 $297 forward 7 unknown #
face $-1 $298 $299 $41 $-1 $300 reversed single #
loop $-1 $-1 $301 $112 #
plane-surface $-1 0 0 -9.231820506653472 0 0 1 1 0 0 forward_v I I I I #
coedge $-1 $302 $303 $304 $305 forward $113 $-1 #
coedge $-1 $304 $115 $301 $306 reversed $72 $-1 #
coedge $-1 $115 $304 $307 $308 reversed $72 $-1 #
coedge $-1 $309 $310 $115 $185 reversed $299 $-1 #
edge $-1 $311 -9.231820506653472 $312 9.231820506653472 $184 $313 forward 7 unknown #
face $-1 $314 $315 $42 $-1 $316 forward single #
loop $-1 $-1 $317 $116 #
plane-surface $-1 -48.420394838093742 -128.10384130921082 107.60702893611048 1 0 0 0 0.68199836817093118 -0.7313536940579346 forward_v I I I I #
coedge $-1 $318 $319 $320 $321 reversed $117 $-1 #
coedge $-1 $191 $119 $322 $323 reversed $75 $-1 #
coedge $-1 $119 $190 $318 $324 reversed $75 $-1 #
coedge $-1 $320 $325 $119 $193 forward $315 $-1 #
edge $-1 $326 33.347278652401336 $327 39.859390812802872 $192 $328 forward 7 unknown #
loop $-1 $-1 $199 $120 #
plane-surface $-1 -39.652932118668772 -30.704642002204082 3.1591775394763459 0 -0.68199836817093118 0.7313536940579346 1 0 0 forward_v I I I I #
loop $-1 $-1 $329 $77 #
coedge $-1 $197 $197 $198 $330 reversed $121 $-1 #
coedge $-1 $198 $198 $197 $330 forward $123 $-1 #
coedge $-1 $199 $199 $124 $200 forward $194 $-1 #
edge $-1 $331 -3.4006073343905915e-016 $331 6.2831853071796004 $199 $332 forward 7 unknown #
loop $-1 $-1 $206 $125 #
plane-surface $-1 -39.652932118668772 -30.704642002204082 3.1591775394763459 0 -0.68199836817093118 0.7313536940579346 1 0 0 forward_v I I I I #
loop $-1 $-1 $333 $80 #
coedge $-1 $204 $204 $205 $334 reversed $126 $-1 #
coedge $-1 $205 $205 $204 $334 forward $128 $-1 #
coedge $-1 $206 $206 $129 $207 forward $201 $-1 #
edge $-1 $335 -3.4006073343905915e-016 $335 6.2831853071796004 $206 $336 forward 7 unknown #
face $-1 $337 $338 $45 $-1 $339 reversed single #
loop $-1 $-1 $340 $130 #
plane-surface $-1 14.423940189282849 -128.10384130921082 107.60702893611048 1 0 0 0 0.68199836817093118 -0.7313536940579346 forward_v I I I I #
coedge $-1 $341 $342 $343 $344 reversed $131 $-1 #
coedge $-1 $213 $133 $345 $346 reversed $84 $-1 #
coedge $-1 $133 $212 $341 $347 reversed $84 $-1 #
coedge $-1 $343 $348 $133 $215 forward $349 $-1 #
edge $-1 $350 33.347278652401336 $351 39.859390812802872 $214 $352 forward 7 unknown #
loop $-1 $-1 $221 $134 #
plane-surface $-1 23.191402908707815 -30.704642002204082 3.1591775394763459 0 -0.68199836817093118 0.7313536940579346 1 0 0 forward_v I I I I #
loop $-1 $-1 $353 $86 #
coedge $-1 $219 $219 $220 $354 reversed $135 $-1 #
coedge $-1 $220 $220 $219 $354 forward $137 $-1 #
coedge $-1 $221 $221 $138 $222 forward $216 $-1 #
edge $-1 $355 -3.4006073343905915e-016 $355 6.2831853071796004 $221 $356 forward 7 unknown #
loop $-1 $-1 $228 $139 #
plane-surface $-1 23.191402908707815 -30.704642002204082 3.1591775394763459 0 -0.68199836817093118 0.7313536940579346 1 0 0 forward_v I I I I #
loop $-1 $-1 $357 $89 #
coedge $-1 $226 $226 $227 $358 reversed $140 $-1 #
coedge $-1 $227 $227 $226 $358 forward $142 $-1 #
coedge $-1 $228 $228 $143 $229 forward $223 $-1 #
edge $-1 $359 -3.4006073343905915e-016 $359 6.2831853071796004 $228 $360 forward 7 unknown #
face $-1 $361 $362 $48 $-1 $363 reversed single #
loop $-1 $-1 $364 $144 #
plane-surface $-1 -42.647029975874887 88.266765202595366 144.58521638548658 -1 0 0 0 0.70710678939079041 0.70710677298230451 forward_v I I I I #
coedge $-1 $365 $366 $367 $368 reversed $145 $-1 #
coedge $-1 $235 $147 $369 $370 reversed $93 $-1 #
coedge $-1 $147 $234 $365 $371 reversed $93 $-1 #
coedge $-1 $367 $372 $147 $237 forward $373 $-1 #
edge $-1 $374 13.428740599093608 $375 22.483307661826444 $236 $376 forward 7 unknown #
loop $-1 $-1 $243 $148 #
plane-surface $-1 -53.063516385492377 -12.718278641306824 43.600174884952736 0 0.70710678939079041 0.70710677298230451 1 0 0 forward_v I I I I #
loop $-1 $-1 $377 $95 #
coedge $-1 $241 $241 $242 $378 reversed $149 $-1 #
coedge $-1 $242 $242 $241 $378 forward $151 $-1 #
coedge $-1 $243 $243 $152 $244 forward $238 $-1 #
edge $-1 $379 4.1869148262596796e-016 $379 6.2831853071796004 $243 $380 forward 7 unknown #
face $-1 $381 $382 $50 $-1 $383 forward single #
loop $-1 $-1 $384 $153 #
plane-surface $-1 62.208667259643292 88.266765202595366 144.58521638548658 -1 0 0 0 0.70710678939079041 0.70710677298230451 forward_v I I I I #
coedge $-1 $385 $386 $387 $388 reversed $154 $-1 #
coedge $-1 $250 $156 $389 $390 reversed $99 $-1 #
coedge $-1 $156 $249 $385 $391 reversed $99 $-1 #
coedge $-1 $387 $392 $156 $252 forward $382 $-1 #
edge $-1 $393 13.428740599093608 $394 22.483307661826444 $251 $395 forward 7 unknown #
loop $-1 $-1 $258 $157 #
plane-surface $-1 51.792180850025801 -12.718278641306824 43.600174884952736 0 0.70710678939079041 0.70710677298230451 1 0 0 forward_v I I I I #
loop $-1 $-1 $396 $101 #
coedge $-1 $256 $256 $257 $397 reversed $158 $-1 #
coedge $-1 $257 $257 $256 $397 forward $160 $-1 #
coedge $-1 $258 $258 $161 $259 forward $253 $-1 #
edge $-1 $398 4.1869148262596796e-016 $398 6.2831853071796004 $258 $399 forward 7 unknown #
face $-1 $400 $401 $39 $-1 $402 reversed single #
loop $-1 $-1 $403 $162 #
plane-surface $-1 -71.407208471938233 0 0 1 0 0 0 0 -1 forward_v I I I I #
coedge $-1 $404 $271 $405 $406 forward $163 $-1 #
coedge $-1 $407 $165 $404 $408 forward $105 $-1 #
coedge $-1 $165 $407 $409 $410 forward $105 $-1 #
coedge $-1 $274 $273 $165 $267 reversed $275 $-1 #
edge $-1 $411 -30.704642002204075 $412 30.704642002204075 $266 $413 forward 7 unknown #
coedge $-1 $167 $166 $414 $415 forward $66 $-1 #
coedge $-1 $416 $417 $166 $270 reversed $401 $-1 #
edge $-1 $277 -71.407208471938233 $418 71.407208471938233 $269 $419 forward 7 unknown #
coedge $-1 $263 $420 $167 $272 reversed $163 $-1 #
edge $-1 $421 -71.407208471938233 $276 71.407208471938233 $271 $422 forward 7 unknown #
coedge $-1 $266 $168 $420 $423 forward $275 $-1 #
coedge $-1 $168 $266 $416 $424 reversed $275 $-1 #
loop $-1 $-1 $273 $400 #
vertex $-1 $169 $425 #
vertex $-1 $169 $426 #
straight-curve $-1 71.407208471938233 0 9.231820506653472 0 1 0 I I #
face $-1 $427 $428 $40 $-1 $429 forward single #
loop $-1 $-1 $430 $170 #
plane-surface $-1 0 0 -9.231820506653472 0 0 1 1 0 0 forward_v I I I I #
coedge $-1 $431 $432 $287 $433 forward $171 $-1 #
coedge $-1 $434 $173 $430 $435 reversed $109 $-1 #
coedge $-1 $173 $434 $436 $437 reversed $109 $-1 #
coedge $-1 $432 $431 $173 $286 reversed $171 $-1 #
edge $-1 $438 -9.231820506653472 $439 9.231820506653472 $285 $440 forward 7 unknown #
coedge $-1 $175 $174 $282 $433 reversed $69 $-1 #
coedge $-1 $441 $442 $174 $289 forward $280 $-1 #
edge $-1 $443 29.758199978347839 $295 37.685405655176211 $288 $444 forward 7 unknown #
coedge $-1 $445 $446 $175 $291 forward $428 $-1 #
edge $-1 $296 -37.685405655176211 $447 -29.758199978347839 $290 $448 forward 7 unknown #
coedge $-1 $449 $176 $446 $450 reversed $294 $-1 #
coedge $-1 $176 $449 $441 $451 reversed $294 $-1 #
loop $-1 $-1 $449 $427 #
vertex $-1 $451 $452 #
vertex $-1 $177 $453 #
straight-curve $-1 -71.407208471938233 -15.502721195370937 0 0 0 1 I I #
face $-1 $454 $455 $41 $-1 $456 reversed single #
loop $-1 $-1 $457 $178 #
plane-surface $-1 76.006479078085718 -27.704642002204075 0 0 -1 0 0 0 -1 forward_v I I I I #
coedge $-1 $458 $459 $182 $306 forward $179 $-1 #
coedge $-1 $460 $181 $459 $461 reversed $113 $-1 #
coedge $-1 $181 $460 $462 $463 reversed $113 $-1 #
coedge $-1 $183 $182 $181 $305 reversed $72 $-1 #
edge $-1 $464 -9.231820506653472 $465 9.231820506653472 $181 $466 forward 7 unknown #
edge $-1 $465 -30.704642002204075 $312 -27.704642002204075 $301 $467 forward 7 unknown #
coedge $-1 $462 $468 $183 $308 forward $469 $-1 #
edge $-1 $311 27.704642002204075 $464 30.704642002204075 $307 $470 forward 7 unknown #
coedge $-1 $457 $184 $468 $471 reversed $299 $-1 #
coedge $-1 $184 $457 $458 $472 reversed $299 $-1 #
vertex $-1 $308 $473 #
vertex $-1 $472 $474 #
straight-curve $-1 71.407208471938233 -27.704642002204075 0 0 0 -1 I I #
face $-1 $-1 $475 $42 $-1 $476 reversed single #
loop $-1 $-1 $192 $186 #
plane-surface $-1 0 0 9.231820506653472 0 0 1 1 0 0 forward_v I I I I #
coedge $-1 $477 $478 $479 $480 reversed $187 $-1 #
coedge $-1 $481 $189 $191 $324 forward $117 $-1 #
coedge $-1 $189 $481 $477 $482 forward $117 $-1 #
coedge $-1 $479 $192 $189 $321 forward $315 $-1 #
edge $-1 $327 11.05900333990942 $483 28.593928778759356 $320 $484 forward 7 unknown #
coedge $-1 $485 $486 $190 $323 forward $475 $-1 #
edge $-1 $487 -50.644336928578888 $326 -44.57169396140177 $322 $488 forward 7 unknown #
edge $-1 $327 -8.9041898787287472 $487 -9.739602292442716e-015 $191 $489 forward 7 unknown #
coedge $-1 $192 $479 $485 $490 forward $315 $-1 #
vertex $-1 $323 $491 #
vertex $-1 $193 $492 #
straight-curve $-1 -30.885469399243807 -64.051920654605411 9.2318205066534702 0 1 0 I I #
coedge $-1 $329 $329 $-1 $493 reversed $196 $-1 #
edge $-1 $494 0 $494 6.2831853071796004 $197 $495 forward 7 unknown #
vertex $-1 $200 $496 #
ellipse-curve $-1 -43.41041614127947 -27.448585922003307 6.1954990230649152 0 -0.68199836817093118 0.7313536940579346 1.5 0 0 1 I I #
coedge $-1 $333 $333 $-1 $497 reversed $203 $-1 #
edge $-1 $498 0 $498 6.2831853071796004 $204 $499 forward 7 unknown #
vertex $-1 $207 $500 #
ellipse-curve $-1 -35.895448096058068 -27.448585922003307 6.1954990230649152 0 -0.68199836817093118 0.7313536940579346 1.5 0 0 1 I I #
face $-1 $-1 $349 $45 $-1 $501 forward single #
loop $-1 $-1 $502 $208 #
plane-surface $-1 0 -30.704642002204075 0 0 1 0 0 0 1 forward_v I I I I #
coedge $-1 $503 $504 $505 $506 reversed $209 $-1 #
coedge $-1 $507 $211 $213 $347 forward $131 $-1 #
coedge $-1 $211 $507 $503 $508 forward $131 $-1 #
coedge $-1 $505 $214 $211 $344 forward $349 $-1 #
edge $-1 $351 -20.363164173778873 $509 -2.8282387349289415 $343 $510 forward 7 unknown #
coedge $-1 $511 $512 $212 $346 forward $338 $-1 #
edge $-1 $513 -50.644336928578888 $350 -44.57169396140177 $345 $514 forward 7 unknown #
edge $-1 $351 -8.9041898787287472 $513 -9.739602292442716e-015 $213 $515 forward 7 unknown #
coedge $-1 $214 $505 $511 $516 forward $349 $-1 #
loop $-1 $-1 $505 $337 #
vertex $-1 $346 $517 #
vertex $-1 $215 $518 #
straight-curve $-1 31.958865628132781 -64.051920654605411 9.2318205066534702 0 1 0 I I #
coedge $-1 $353 $353 $-1 $519 reversed $218 $-1 #
edge $-1 $520 0 $520 6.2831853071796004 $219 $521 forward 7 unknown #
vertex $-1 $222 $522 #
ellipse-curve $-1 19.433918886097118 -27.448585922003307 6.1954990230649152 0 -0.68199836817093118 0.7313536940579346 1.5 0 0 1 I I #
coedge $-1 $357 $357 $-1 $523 reversed $225 $-1 #
edge $-1 $524 0 $524 6.2831853071796004 $226 $525 forward 7 unknown #
vertex $-1 $229 $526 #
ellipse-curve $-1 26.948886931318512 -27.448585922003307 6.1954990230649152 0 -0.68199836817093118 0.7313536940579346 1.5 0 0 1 I I #
face $-1 $-1 $373 $48 $-1 $527 forward single #
loop $-1 $-1 $528 $230 #
plane-surface $-1 0 30.704642002204075 0 0 -1 0 0 0 -1 forward_v I I I I #
coedge $-1 $529 $530 $531 $532 reversed $231 $-1 #
coedge $-1 $533 $233 $235 $371 forward $145 $-1 #
coedge $-1 $233 $533 $529 $534 forward $145 $-1 #
coedge $-1 $531 $236 $233 $368 forward $373 $-1 #
edge $-1 $375 -36.94824460236368 $535 -16.115271783128698 $367 $536 forward 7 unknown #
coedge $-1 $537 $538 $234 $370 forward $362 $-1 #
edge $-1 $539 -72.11535495893483 $374 -63.060787686089817 $369 $540 forward 7 unknown #
edge $-1 $375 48.604192314302928 $539 61.409284004408171 $235 $541 forward 7 unknown #
coedge $-1 $236 $531 $537 $542 forward $373 $-1 #
loop $-1 $-1 $531 $361 #
vertex $-1 $370 $543 #
vertex $-1 $237 $544 #
straight-curve $-1 -63.480002795109868 44.133382601297683 9.2318205066534773 0 -1 0 I I #
coedge $-1 $377 $377 $-1 $545 reversed $240 $-1 #
edge $-1 $546 0 $546 6.2831853071796004 $241 $547 forward 7 unknown #
vertex $-1 $244 $548 #
ellipse-curve $-1 -53.063516385492377 26.17735847083765 4.7045368702309762 0 0.70710678939079041 0.70710677298230451 1.5 0 0 1 I I #
face $-1 $-1 $549 $50 $-1 $550 reversed single #
loop $-1 $-1 $251 $245 #
plane-surface $-1 0 0 9.231820506653472 0 0 1 1 0 0 forward_v I I I I #
coedge $-1 $551 $552 $553 $554 reversed $246 $-1 #
coedge $-1 $555 $248 $250 $391 forward $154 $-1 #
coedge $-1 $248 $555 $551 $556 forward $154 $-1 #
coedge $-1 $553 $251 $248 $388 forward $382 $-1 #
edge $-1 $394 15.47960401539541 $557 36.312576834630391 $387 $558 forward 7 unknown #
coedge $-1 $559 $560 $249 $390 forward $549 $-1 #
edge $-1 $561 -72.11535495893483 $393 -63.060787686089817 $389 $562 forward 7 unknown #
edge $-1 $394 48.604192314302928 $561 61.409284004408171 $250 $563 forward 7 unknown #
coedge $-1 $251 $553 $559 $564 forward $382 $-1 #
vertex $-1 $390 $565 #
vertex $-1 $252 $566 #
straight-curve $-1 41.37569444040831 44.133382601297683 9.2318205066534773 0 -1 0 I I #
coedge $-1 $396 $396 $-1 $567 reversed $255 $-1 #
edge $-1 $568 0 $568 6.2831853071796004 $256 $569 forward 7 unknown #
vertex $-1 $259 $570 #
ellipse-curve $-1 51.792180850025801 26.17735847083765 4.7045368702309762 0 0.70710678939079041 0.70710677298230451 1.5 0 0 1 I I #
face $-1 $-1 $275 $39 $-1 $571 reversed single #
loop $-1 $-1 $416 $260 #
plane-surface $-1 0 30.704642002204075 0 0 -1 0 0 0 -1 forward_v I I I I #
coedge $-1 $572 $414 $417 $573 forward $261 $-1 #
coedge $-1 $420 $263 $264 $408 reversed $163 $-1 #
coedge $-1 $414 $572 $263 $406 reversed $261 $-1 #
edge $-1 $421 -9.231820506653472 $574 9.231820506653472 $405 $575 forward 7 unknown #
coedge $-1 $265 $264 $572 $576 forward $105 $-1 #
edge $-1 $412 -71.407208471938233 $574 71.407208471938233 $404 $577 forward 7 unknown #
coedge $-1 $417 $416 $265 $410 reversed $401 $-1 #
edge $-1 $578 -71.407208471938233 $411 71.407208471938233 $409 $579 forward 7 unknown #
vertex $-1 $267 $580 #
vertex $-1 $423 $581 #
straight-curve $-1 71.407208471938233 0 -9.231820506653472 0 -1 0 I I #
coedge $-1 $403 $405 $268 $415 reversed $261 $-1 #
edge $-1 $418 -30.704642002204075 $421 30.704642002204075 $414 $582 forward 7 unknown #
coedge $-1 $409 $269 $274 $424 forward $401 $-1 #
coedge $-1 $269 $409 $403 $573 reversed $401 $-1 #
vertex $-1 $270 $583 #
straight-curve $-1 0 30.704642002204075 9.231820506653472 -1 0 0 I I #
coedge $-1 $271 $404 $273 $423 reversed $163 $-1 #
vertex $-1 $415 $584 #
straight-curve $-1 0 -30.704642002204075 9.231820506653472 1 0 0 I I #
edge $-1 $276 -9.231820506653472 $412 9.231820506653472 $273 $585 forward 7 unknown #
edge $-1 $277 -9.231820506653472 $411 9.231820506653472 $274 $586 forward 7 unknown #
point $-1 71.407208471938233 -30.704642002204075 9.231820506653472 #
point $-1 71.407208471938233 30.704642002204075 9.231820506653472 #
face $-1 $-1 $294 $40 $-1 $587 reversed single #
loop $-1 $-1 $436 $279 #
plane-surface $-1 0 0 9.231820506653472 0 0 1 1 0 0 forward_v I I I I #
coedge $-1 $442 $441 $283 $435 forward $280 $-1 #
coedge $-1 $285 $282 $442 $588 reversed $171 $-1 #
coedge $-1 $282 $285 $445 $589 reversed $171 $-1 #
edge $-1 $447 -9.231820506653472 $443 9.231820506653472 $282 $590 forward 7 unknown #
coedge $-1 $284 $283 $449 $591 reversed $109 $-1 #
edge $-1 $592 -37.685405655176211 $439 -29.758199978347839 $430 $593 forward 7 unknown #
coedge $-1 $446 $445 $284 $437 forward $428 $-1 #
edge $-1 $438 29.758199978347839 $594 37.685405655176211 $436 $595 forward 7 unknown #
vertex $-1 $437 $596 #
vertex $-1 $435 $597 #
straight-curve $-1 -63.480002795109861 -12.241000988897129 0 0 0 -1 I I #
coedge $-1 $430 $288 $293 $451 forward $280 $-1 #
coedge $-1 $288 $430 $431 $588 forward $280 $-1 #
vertex $-1 $289 $598 #
straight-curve $-1 -33.721802816762022 -15.502721195370937 -9.231820506653472 -1 0 0 I I #
coedge $-1 $436 $290 $432 $589 forward $428 $-1 #
coedge $-1 $290 $436 $292 $450 forward $428 $-1 #
vertex $-1 $291 $599 #
straight-curve $-1 -33.721802816762022 -15.502721195370937 9.231820506653472 1 0 0 I I #
coedge $-1 $293 $292 $434 $591 forward $294 $-1 #
edge $-1 $594 12.241000988897129 $296 15.502721195370937 $292 $600 forward 7 unknown #
edge $-1 $295 -15.502721195370937 $592 -12.241000988897129 $293 $601 forward 7 unknown #
point $-1 -71.407208471938233 -15.502721195370937 -9.231820506653472 #
point $-1 -71.407208471938233 -15.502721195370937 9.231820506653472 #
face $-1 $-1 $469 $41 $-1 $602 forward single #
loop $-1 $-1 $603 $298 #
plane-surface $-1 80.605749684233189 -29.204642002204075 0 -1 0 0 0 0 1 forward_v I I I I #
coedge $-1 $310 $309 $604 $605 forward $299 $-1 #
coedge $-1 $606 $301 $310 $472 forward $179 $-1 #
coedge $-1 $301 $606 $302 $461 forward $179 $-1 #
coedge $-1 $303 $302 $603 $607 reversed $113 $-1 #
edge $-1 $608 -4.5992706061474706 $465 4.5992706061474848 $302 $609 forward 7 unknown #
coedge $-1 $610 $307 $303 $463 forward $469 $-1 #
edge $-1 $464 -4.5992706061474848 $611 4.5992706061474706 $303 $612 forward 7 unknown #
vertex $-1 $463 $613 #
vertex $-1 $306 $614 #
straight-curve $-1 71.407208471938233 -30.704642002204075 0 0 0 -1 I I #
straight-curve $-1 71.407208471938233 0 -9.231820506653472 0 1 0 I I #
coedge $-1 $307 $610 $309 $471 forward $469 $-1 #
loop $-1 $-1 $307 $454 #
straight-curve $-1 71.407208471938233 0 9.231820506653472 0 -1 0 I I #
edge $-1 $615 -4.5992706061474706 $311 4.5992706061474706 $309 $616 forward 7 unknown #
edge $-1 $312 -4.5992706061474706 $617 4.5992706061474706 $310 $618 forward 7 unknown #
point $-1 71.407208471938247 -27.704642002204075 9.231820506653472 #
point $-1 71.407208471938247 -27.704642002204075 -9.231820506653472 #
loop $-1 $-1 $322 $314 #
plane-surface $-1 0 -30.704642002204075 0 0 1 0 0 0 1 forward_v I I I I #
coedge $-1 $478 $317 $319 $482 reversed $187 $-1 #
coedge $-1 $317 $477 $619 $620 reversed $187 $-1 #
coedge $-1 $325 $320 $317 $480 forward $315 $-1 #
edge $-1 $483 -39.859390812802872 $621 -33.347278652401336 $479 $622 forward 7 unknown #
coedge $-1 $319 $318 $486 $623 reversed $117 $-1 #
edge $-1 $624 9.739602292442716e-015 $483 8.9041898787287472 $477 $625 forward 7 unknown #
vertex $-1 $321 $626 #
straight-curve $-1 -19.826466059334386 -24.192529841802543 9.231820506653472 -1 0 0 I I #
coedge $-1 $619 $322 $325 $490 reversed $475 $-1 #
coedge $-1 $322 $619 $481 $623 forward $475 $-1 #
vertex $-1 $323 $627 #
straight-curve $-1 -30.885469399243807 -30.704642002204075 53.803514468055241 0 0 1 I I #
straight-curve $-1 -30.885469399243807 -30.704642002204082 3.1591775394763459 0 -0.7313536940579346 -0.68199836817093118 I I #
edge $-1 $621 -124.42687391617946 $326 -106.89194847732952 $485 $628 forward 7 unknown #
point $-1 -30.885469399243803 -30.704642002204075 9.231820506653472 #
point $-1 -30.885469399243807 -24.192529841802539 9.231820506653472 #
edge $-1 $629 1 $629 0 $329 $-1 forward 7 unknown #
vertex $-1 $330 $630 #
ellipse-curve $-1 -43.41041614127947 -23.519191350422432 1.981739328823819 0 -0.68199836817093118 0.7313536940579346 1.5 0 0 1 I I #
point $-1 -41.91041614127947 -27.448585922003293 6.1954990230648992 #
edge $-1 $631 1 $631 0 $333 $-1 forward 7 unknown #
vertex $-1 $334 $632 #
ellipse-curve $-1 -35.895448096058068 -23.519191350422432 1.981739328823819 0 -0.68199836817093118 0.7313536940579346 1.5 0 0 1 I I #
point $-1 -34.395448096058068 -27.448585922003293 6.1954990230648992 #
plane-surface $-1 0 0 9.231820506653472 0 0 1 1 0 0 forward_v I I I I #
coedge $-1 $512 $511 $504 $633 forward $338 $-1 #
coedge $-1 $504 $340 $342 $508 reversed $209 $-1 #
coedge $-1 $340 $503 $502 $633 reversed $209 $-1 #
coedge $-1 $348 $343 $340 $506 forward $349 $-1 #
edge $-1 $509 -39.859390812802872 $634 -33.347278652401336 $505 $635 forward 7 unknown #
coedge $-1 $342 $341 $512 $636 reversed $131 $-1 #
edge $-1 $637 9.739602292442716e-015 $509 8.9041898787287472 $503 $638 forward 7 unknown #
vertex $-1 $344 $639 #
straight-curve $-1 11.595701454353907 -24.192529841802543 9.231820506653472 -1 0 0 I I #
coedge $-1 $502 $345 $348 $516 reversed $338 $-1 #
coedge $-1 $345 $502 $507 $636 forward $338 $-1 #
vertex $-1 $346 $640 #
straight-curve $-1 31.958865628132781 -30.704642002204075 53.803514468055241 0 0 1 I I #
straight-curve $-1 31.958865628132781 -30.704642002204082 3.1591775394763459 0 -0.7313536940579346 -0.68199836817093118 I I #
edge $-1 $634 -61.582538888802873 $350 -44.047613449952934 $511 $641 forward 7 unknown #
point $-1 31.958865628132784 -30.704642002204075 9.231820506653472 #
point $-1 31.958865628132781 -24.192529841802539 9.231820506653472 #
edge $-1 $642 1 $642 0 $353 $-1 forward 7 unknown #
vertex $-1 $354 $643 #
ellipse-curve $-1 19.433918886097118 -23.519191350422432 1.981739328823819 0 -0.68199836817093118 0.7313536940579346 1.5 0 0 1 I I #
point $-1 20.933918886097118 -27.448585922003293 6.1954990230648992 #
edge $-1 $644 1 $644 0 $357 $-1 forward 7 unknown #
vertex $-1 $358 $645 #
ellipse-curve $-1 26.948886931318512 -23.519191350422432 1.981739328823819 0 -0.68199836817093118 0.7313536940579346 1.5 0 0 1 I I #
point $-1 28.448886931318512 -27.448585922003293 6.1954990230648992 #
plane-surface $-1 0 0 9.231820506653472 0 0 1 1 0 0 forward_v I I I I #
coedge $-1 $538 $537 $530 $646 forward $362 $-1 #
coedge $-1 $530 $364 $366 $534 reversed $231 $-1 #
coedge $-1 $364 $529 $528 $646 reversed $231 $-1 #
coedge $-1 $372 $367 $364 $532 forward $373 $-1 #
edge $-1 $535 -22.483307661826444 $647 -13.428740599093608 $531 $648 forward 7 unknown #
coedge $-1 $366 $365 $538 $649 reversed $145 $-1 #
edge $-1 $650 -61.409284004408171 $535 -48.604192314302928 $529 $651 forward 7 unknown #
vertex $-1 $368 $652 #
straight-curve $-1 -26.531758192746189 21.650074939471239 9.2318205066534702 1 0 0 I I #
coedge $-1 $528 $369 $372 $542 reversed $362 $-1 #
coedge $-1 $369 $528 $533 $649 forward $362 $-1 #
vertex $-1 $370 $653 #
straight-curve $-1 -63.480002795109868 30.704642002204075 72.292608192743288 0 0 1 I I #
straight-curve $-1 -63.480002795109868 -12.718278641306824 43.600174884952736 0 0.70710677298230451 -0.70710678939079041 I I #
edge $-1 $647 42.647029975874887 $374 63.480002795109868 $537 $654 forward 7 unknown #
point $-1 -63.480002795109868 30.704642002204075 9.231820506653472 #
point $-1 -63.480002795109868 21.650074939471239 9.2318205066534702 #
edge $-1 $655 1 $655 0 $377 $-1 forward 7 unknown #
vertex $-1 $378 $656 #
ellipse-curve $-1 -53.063516385492377 22.307520351153578 0.83469884034689368 0 0.70710678939079041 0.70710677298230451 1.5 0 0 1 I I #
point $-1 -51.563516385492377 26.177358470837635 4.7045368702309611 #
loop $-1 $-1 $389 $381 #
plane-surface $-1 0 30.704642002204075 0 0 -1 0 0 0 -1 forward_v I I I I #
coedge $-1 $552 $384 $386 $556 reversed $246 $-1 #
coedge $-1 $384 $551 $657 $658 reversed $246 $-1 #
coedge $-1 $392 $387 $384 $554 forward $382 $-1 #
edge $-1 $557 -22.483307661826444 $659 -13.428740599093608 $553 $660 forward 7 unknown #
coedge $-1 $386 $385 $560 $661 reversed $154 $-1 #
edge $-1 $662 -61.409284004408171 $557 -48.604192314302928 $551 $663 forward 7 unknown #
vertex $-1 $388 $664 #
straight-curve $-1 25.8960904250129 21.650074939471239 9.2318205066534702 1 0 0 I I #
coedge $-1 $657 $389 $392 $564 reversed $549 $-1 #
coedge $-1 $389 $657 $555 $661 forward $549 $-1 #
vertex $-1 $390 $665 #
straight-curve $-1 41.37569444040831 30.704642002204075 72.292608192743288 0 0 1 I I #
straight-curve $-1 41.37569444040831 -12.718278641306824 43.600174884952736 0 0.70710677298230451 -0.70710678939079041 I I #
edge $-1 $659 -62.208667259643292 $393 -41.37569444040831 $559 $666 forward 7 unknown #
point $-1 41.37569444040831 30.704642002204075 9.231820506653472 #
point $-1 41.37569444040831 21.650074939471239 9.2318205066534702 #
edge $-1 $667 1 $667 0 $396 $-1 forward 7 unknown #
vertex $-1 $397 $668 #
ellipse-curve $-1 51.792180850025801 22.307520351153578 0.83469884034689368 0 0.70710678939079041 0.70710677298230451 1.5 0 0 1 I I #
point $-1 53.292180850025801 26.177358470837635 4.7045368702309611 #
plane-surface $-1 71.407208471938233 0 0 -1 0 0 0 0 1 forward_v I I I I #
coedge $-1 $405 $403 $407 $576 reversed $261 $-1 #
edge $-1 $418 -9.231820506653472 $578 9.231820506653472 $417 $669 forward 7 unknown #
vertex $-1 $576 $670 #
straight-curve $-1 -71.407208471938233 -30.704642002204075 0 0 0 -1 I I #
edge $-1 $574 -30.704642002204075 $578 30.704642002204075 $572 $671 forward 7 unknown #
straight-curve $-1 0 -30.704642002204075 -9.231820506653472 -1 0 0 I I #
vertex $-1 $410 $672 #
straight-curve $-1 0 30.704642002204075 -9.231820506653472 1 0 0 I I #
point $-1 71.407208471938233 30.704642002204075 -9.231820506653472 #
point $-1 71.407208471938233 -30.704642002204075 -9.231820506653472 #
straight-curve $-1 -71.407208471938233 0 9.231820506653472 0 -1 0 I I #
point $-1 -71.407208471938233 30.704642002204075 9.231820506653472 #
point $-1 -71.407208471938233 -30.704642002204075 9.231820506653472 #
straight-curve $-1 71.407208471938233 -30.704642002204075 0 0 0 -1 I I #
straight-curve $-1 71.407208471938233 30.704642002204075 0 0 0 -1 I I #
plane-surface $-1 -71.407208471938233 0 0 1 0 0 0 0 -1 forward_v I I I I #
edge $-1 $439 5.3050704428301128 $443 8.5667906493039201 $442 $673 forward 7 unknown #
edge $-1 $447 -8.5667906493039201 $438 -5.3050704428301128 $445 $674 forward 7 unknown #
straight-curve $-1 -63.480002795109861 -15.502721195370937 0 0 0 -1 I I #
edge $-1 $594 -9.231820506653472 $592 9.231820506653472 $449 $675 forward 7 unknown #
vertex $-1 $591 $676 #
straight-curve $-1 -33.721802816762022 -12.241000988897129 -9.231820506653472 1 0 0 I I #
vertex $-1 $450 $677 #
straight-curve $-1 -33.721802816762022 -12.241000988897129 9.231820506653472 -1 0 0 I I #
point $-1 -63.480002795109861 -12.241000988897129 9.231820506653472 #
point $-1 -63.480002795109861 -12.241000988897129 -9.231820506653472 #
point $-1 -63.480002795109861 -15.502721195370937 -9.231820506653472 #
point $-1 -63.480002795109861 -15.502721195370937 9.231820506653472 #
straight-curve $-1 -71.407208471938233 0 9.231820506653472 0 -1 0 I I #
straight-curve $-1 -71.407208471938233 0 -9.231820506653472 0 1 0 I I #
plane-surface $-1 0 0 9.231820506653472 0 0 1 1 0 0 forward_v I I I I #
coedge $-1 $678 $679 $460 $607 forward $455 $-1 #
coedge $-1 $679 $678 $457 $605 reversed $455 $-1 #
edge $-1 $615 -9.231820506653472 $617 9.231820506653472 $604 $680 forward 7 unknown #
coedge $-1 $459 $458 $678 $681 forward $179 $-1 #
edge $-1 $611 -9.231820506653472 $608 9.231820506653472 $603 $682 forward 7 unknown #
vertex $-1 $607 $683 #
straight-curve $-1 76.006479078085718 -30.704642002204075 -9.231820506653472 -1 0 0 I I #
coedge $-1 $468 $462 $679 $684 forward $469 $-1 #
vertex $-1 $684 $685 #
straight-curve $-1 76.006479078085718 -30.704642002204075 9.231820506653472 1 0 0 I I #
point $-1 71.407208471938233 -30.704642002204075 9.231820506653472 #
point $-1 71.407208471938233 -30.704642002204075 -9.231820506653472 #
vertex $-1 $684 $686 #
straight-curve $-1 76.006479078085718 -27.704642002204075 9.231820506653472 -1 0 0 I I #
vertex $-1 $681 $687 #
straight-curve $-1 76.006479078085718 -27.704642002204075 -9.231820506653472 1 0 0 I I #
coedge $-1 $486 $485 $478 $620 forward $475 $-1 #
edge $-1 $621 44.57169396140177 $624 50.644336928578888 $619 $688 forward 7 unknown #
vertex $-1 $490 $689 #
straight-curve $-1 -48.420394838093742 -64.051920654605411 9.2318205066534702 0 -1 0 I I #
edge $-1 $624 -28.593928778759356 $487 -11.05900333990942 $486 $690 forward 7 unknown #
vertex $-1 $623 $691 #
straight-curve $-1 -48.420394838093742 -30.704642002204082 3.1591775394763459 0 0.7313536940579346 0.68199836817093118 I I #
point $-1 -48.420394838093742 -24.192529841802539 9.231820506653472 #
point $-1 -30.885469399243807 -30.704642002204075 3.1591775394763526 #
straight-curve $-1 76.006479078085718 -30.704642002204075 9.231820506653472 1 0 0 I I #
vertex $-1 $493 $692 #
point $-1 -41.91041614127947 -23.519191350422432 1.981739328823819 #
vertex $-1 $497 $693 #
point $-1 -34.395448096058068 -23.519191350422432 1.981739328823819 #
edge $-1 $634 44.57169396140177 $637 50.644336928578888 $502 $694 forward 7 unknown #
vertex $-1 $516 $695 #
straight-curve $-1 14.423940189282849 -64.051920654605411 9.2318205066534702 0 -1 0 I I #
edge $-1 $637 2.8282387349289415 $513 20.363164173778873 $512 $696 forward 7 unknown #
vertex $-1 $636 $697 #
straight-curve $-1 14.423940189282849 -30.704642002204082 3.1591775394763459 0 0.7313536940579346 0.68199836817093118 I I #
point $-1 14.423940189282849 -24.192529841802539 9.231820506653472 #
point $-1 31.958865628132781 -30.704642002204075 3.1591775394763526 #
straight-curve $-1 76.006479078085718 -30.704642002204075 9.231820506653472 1 0 0 I I #
vertex $-1 $519 $698 #
point $-1 20.933918886097118 -23.519191350422432 1.981739328823819 #
vertex $-1 $523 $699 #
point $-1 28.448886931318512 -23.519191350422432 1.981739328823819 #
edge $-1 $647 63.060787686089817 $650 72.11535495893483 $528 $700 forward 7 unknown #
vertex $-1 $542 $701 #
straight-curve $-1 -42.647029975874887 44.133382601297683 9.2318205066534773 0 1 0 I I #
edge $-1 $650 16.115271783128698 $539 36.94824460236368 $538 $702 forward 7 unknown #
vertex $-1 $649 $703 #
straight-curve $-1 -42.647029975874887 -12.718278641306824 43.600174884952736 0 -0.70710677298230451 0.70710678939079041 I I #
point $-1 -42.647029975874887 21.650074939471239 9.2318205066534702 #
point $-1 -63.480002795109868 30.704642002204075 0.17725323380846447 #
straight-curve $-1 0 30.704642002204075 9.231820506653472 -1 0 0 I I #
vertex $-1 $545 $704 #
point $-1 -51.563516385492377 22.307520351153578 0.83469884034689368 #
coedge $-1 $560 $559 $552 $658 forward $549 $-1 #
edge $-1 $659 63.060787686089817 $662 72.11535495893483 $657 $705 forward 7 unknown #
vertex $-1 $564 $706 #
straight-curve $-1 62.208667259643292 44.133382601297683 9.2318205066534773 0 1 0 I I #
edge $-1 $662 -36.312576834630391 $561 -15.47960401539541 $560 $707 forward 7 unknown #
vertex $-1 $661 $708 #
straight-curve $-1 62.208667259643292 -12.718278641306824 43.600174884952736 0 -0.70710677298230451 0.70710678939079041 I I #
point $-1 62.208667259643292 21.650074939471239 9.2318205066534702 #
point $-1 41.37569444040831 30.704642002204075 0.17725323380846447 #
straight-curve $-1 0 30.704642002204075 9.231820506653472 -1 0 0 I I #
vertex $-1 $567 $709 #
point $-1 53.292180850025801 22.307520351153578 0.83469884034689368 #
straight-curve $-1 -71.407208471938233 30.704642002204075 0 0 0 -1 I I #
point $-1 -71.407208471938233 -30.704642002204075 -9.231820506653472 #
straight-curve $-1 -71.407208471938233 0 -9.231820506653472 0 1 0 I I #
point $-1 -71.407208471938233 30.704642002204075 -9.231820506653472 #
straight-curve $-1 -63.480002795109861 -6.9359305460670164 -9.231820506653472 0 -1 0 I I #
straight-curve $-1 -63.480002795109861 -6.9359305460670164 9.231820506653472 0 1 0 I I #
straight-curve $-1 -71.407208471938233 -12.241000988897129 0 0 0 -1 I I #
point $-1 -71.407208471938233 -12.241000988897129 -9.231820506653472 #
point $-1 -71.407208471938233 -12.241000988897129 9.231820506653472 #
coedge $-1 $604 $603 $606 $681 reversed $455 $-1 #
coedge $-1 $603 $604 $610 $684 reversed $455 $-1 #
straight-curve $-1 80.605749684233189 -27.704642002204075 0 0 0 -1 I I #
edge $-1 $617 -1.5 $608 1.5 $678 $710 forward 7 unknown #
straight-curve $-1 80.605749684233189 -30.704642002204075 0 0 0 -1 I I #
point $-1 80.605749684233189 -30.704642002204075 -9.231820506653472 #
edge $-1 $611 -1.5 $615 1.5 $679 $711 forward 7 unknown #
point $-1 80.605749684233189 -30.704642002204075 9.231820506653472 #
point $-1 80.605749684233189 -27.704642002204075 9.231820506653472 #
point $-1 80.605749684233189 -27.704642002204075 -9.231820506653472 #
straight-curve $-1 -48.420394838093742 -30.704642002204075 53.803514468055241 0 0 -1 I I #
point $-1 -48.420394838093742 -30.704642002204075 9.231820506653472 #
straight-curve $-1 -19.826466059334386 -30.704642002204075 3.1591775394763539 1 0 0 I I #
point $-1 -48.420394838093742 -30.704642002204075 3.1591775394763526 #
point $-1 -43.41041614127947 -22.496193798166033 0.88470878773691719 #
point $-1 -35.895448096058068 -22.496193798166033 0.88470878773691719 #
straight-curve $-1 14.423940189282849 -30.704642002204075 53.803514468055241 0 0 -1 I I #
point $-1 14.423940189282845 -30.704642002204075 9.231820506653472 #
straight-curve $-1 11.595701454353907 -30.704642002204075 3.1591775394763539 1 0 0 I I #
point $-1 14.423940189282849 -30.704642002204075 3.1591775394763526 #
point $-1 19.433918886097118 -22.496193798166033 0.88470878773691719 #
point $-1 26.948886931318512 -22.496193798166033 0.88470878773691719 #
straight-curve $-1 -42.647029975874887 30.704642002204075 72.292608192743288 0 0 -1 I I #
point $-1 -42.647029975874887 30.704642002204075 9.231820506653472 #
straight-curve $-1 -26.531758192746189 30.704642002204075 0.17725323380846447 -1 0 0 I I #
point $-1 -42.647029975874887 30.704642002204075 0.17725323380846447 #
point $-1 -53.063516385492377 21.246860167067389 -0.22596131912656314 #
straight-curve $-1 62.208667259643292 30.704642002204075 72.292608192743288 0 0 -1 I I #
point $-1 62.208667259643292 30.704642002204075 9.231820506653472 #
straight-curve $-1 25.8960904250129 30.704642002204075 0.17725323380846447 -1 0 0 I I #
point $-1 62.208667259643292 30.704642002204075 0.17725323380846447 #
point $-1 51.792180850025801 21.246860167067389 -0.22596131912656314 #
straight-curve $-1 80.605749684233189 -29.204642002204075 -9.231820506653472 0 -1 0 I I #
straight-curve $-1 80.605749684233189 -29.204642002204075 9.231820506653472 0 1 0 I I #
End-of-ACIS-data 