500 0 5 0           
7 Unknown 11 ACIS 5.0 NT 24 Thu Mar 25 23:54:48 1999 
-1 9.9999999999999995e-007 1e-010 
body $-1 $5 $-1 $6 #
body $-1 $7 $-1 $8 #
body $-1 $9 $-1 $10 #
body $-1 $11 $-1 $12 #
body $-1 $13 $-1 $14 #
lump $-1 $-1 $15 $0 #
transform $-1 1 0 0 0 1 0 0 0 1 47.702871791741693 21.741806344388781 6.6269811354284176 1 rotate no_reflect no_shear #
lump $-1 $-1 $16 $1 #
transform $-1 1 0 0 0 1 0 0 0 1 47.702871791741693 21.741806344388781 6.6269811354284176 1 rotate no_reflect no_shear #
lump $-1 $-1 $17 $2 #
transform $-1 1 0 0 0 1 0 0 0 1 47.702871791741693 21.741806344388781 6.6269811354284176 1 rotate no_reflect no_shear #
lump $-1 $-1 $18 $3 #
transform $-1 1 0 0 0 1 0 0 0 1 47.702871791741693 21.741806344388781 6.6269811354284176 1 rotate no_reflect no_shear #
lump $-1 $-1 $19 $4 #
transform $-1 1 0 0 0 1 0 0 0 1 47.702871791741693 21.741806344388781 6.6269811354284176 1 rotate no_reflect no_shear #
shell $-1 $-1 $-1 $20 $-1 $5 #
shell $-1 $-1 $-1 $21 $-1 $7 #
shell $-1 $-1 $-1 $22 $-1 $9 #
shell $-1 $-1 $-1 $23 $-1 $11 #
shell $-1 $-1 $-1 $24 $-1 $13 #
face $-1 $25 $26 $15 $-1 $27 forward single #
face $-1 $28 $29 $16 $-1 $30 forward single #
face $-1 $31 $32 $17 $-1 $33 reversed single #
face $-1 $34 $35 $18 $-1 $36 reversed single #
face $-1 $37 $38 $19 $-1 $39 reversed single #
face $-1 $40 $41 $15 $-1 $42 reversed single #
loop $-1 $-1 $43 $20 #
plane-surface $-1 0 0 6.6269811354284176 0 0 1 1 0 0 forward_v I I I I #
face $-1 $44 $45 $16 $-1 $46 forward single #
loop $-1 $-1 $47 $21 #
plane-surface $-1 40.526113251999 -21.741806344388777 1.7630712462265024 0 -0.69465837861970381 0.71933979245794832 1 0 0 forward_v I I I I #
face $-1 $48 $49 $17 $-1 $50 reversed single #
loop $-1 $51 $52 $22 #
cone-surface $-1 36.220058128153376 -18.531116949251139 3.478101247979497 0 0.69465837861970381 -0.71933979245794832 1 0 0 1 I I 0 1 1 forward I I I I #
face $-1 $53 $54 $18 $-1 $55 reversed single #
loop $-1 $56 $57 $23 #
cone-surface $-1 40.526113251999 -18.531116949251139 3.478101247979497 0 0.69465837861970381 -0.71933979245794832 1 0 0 1 I I 0 1 1 forward I I I I #
face $-1 $58 $59 $19 $-1 $60 reversed single #
loop $-1 $61 $62 $24 #
cone-surface $-1 44.832168375844624 -18.531116949251139 3.478101247979497 0 0.69465837861970381 -0.71933979245794832 1 0 0 1 I I 0 1 1 forward I I I I #
face $-1 $63 $64 $15 $-1 $65 reversed single #
loop $-1 $-1 $66 $25 #
plane-surface $-1 0 0 -6.6269811354284176 0 0 1 1 0 0 forward_v I I I I #
coedge $-1 $67 $68 $69 $70 forward $26 $-1 #
face $-1 $71 $72 $16 $-1 $73 forward single #
loop $-1 $-1 $74 $28 #
plane-surface $-1 33.3493547122563 -88.016205493098553 70.392219034865676 1 0 0 0 0.69465837861970381 -0.71933979245794832 forward_v I I I I #
coedge $-1 $75 $76 $77 $78 reversed $29 $-1 #
face $-1 $79 $80 $17 $-1 $81 forward single #
loop $-1 $82 $83 $31 #
cone-surface $-1 36.220058128153376 -17.491461374535735 2.4015064089025593 0 0.69465837861970381 -0.71933979245794832 0.5 0 0 1 I I -0.70710678118654746 0.70710678118654746 0.5 forward I I I I #
loop $-1 $-1 $84 $22 #
coedge $-1 $52 $52 $85 $86 reversed $32 $-1 #
face $-1 $87 $88 $18 $-1 $89 reversed single #
loop $-1 $90 $91 $34 #
cone-surface $-1 40.526113251999 -17.491461374535735 2.4015064089025593 0 0.69465837861970381 -0.71933979245794832 0.5 0 0 1 I I -0.70710678118654746 0.70710678118654746 0.5 forward I I I I #
loop $-1 $-1 $92 $23 #
coedge $-1 $57 $57 $93 $94 reversed $35 $-1 #
face $-1 $95 $96 $19 $-1 $97 reversed single #
loop $-1 $98 $99 $37 #
cone-surface $-1 44.832168375844624 -17.491461374535735 2.4015064089025593 0 0.69465837861970381 -0.71933979245794832 0.5 0 0 1 I I -0.70710678118654746 0.70710678118654746 0.5 forward I I I I #
loop $-1 $-1 $100 $24 #
coedge $-1 $62 $62 $101 $102 reversed $38 $-1 #
face $-1 $103 $104 $15 $-1 $105 reversed single #
loop $-1 $-1 $106 $40 #
plane-surface $-1 0 -21.741806344388781 0 0 1 0 0 0 1 forward_v I I I I #
coedge $-1 $107 $108 $109 $110 forward $41 $-1 #
coedge $-1 $111 $43 $112 $113 forward $26 $-1 #
coedge $-1 $43 $111 $114 $115 forward $26 $-1 #
coedge $-1 $116 $117 $43 $70 reversed $118 $-1 #
edge $-1 $119 -21.741806344388781 $120 21.741806344388781 $69 $121 forward 7 unknown #
face $-1 $122 $123 $16 $-1 $124 reversed single #
loop $-1 $-1 $125 $44 #
plane-surface $-1 0 0 6.6269811354284176 0 0 1 1 0 0 forward_v I I I I #
coedge $-1 $126 $127 $125 $128 reversed $45 $-1 #
coedge $-1 $129 $47 $127 $130 reversed $29 $-1 #
coedge $-1 $47 $129 $131 $132 reversed $29 $-1 #
coedge $-1 $133 $125 $47 $78 forward $72 $-1 #
edge $-1 $134 13.0862980862568 $135 27.4398151657422 $77 $136 forward 7 unknown #
face $-1 $137 $138 $17 $-1 $139 forward single #
loop $-1 $140 $85 $48 #
plane-surface $-1 40.526113251999 -21.741806344388777 1.7630712462265024 0 -0.69465837861970381 0.71933979245794832 1 0 0 forward_v I I I I #
loop $-1 $-1 $141 $31 #
coedge $-1 $83 $83 $84 $142 forward $49 $-1 #
coedge $-1 $84 $84 $83 $142 reversed $51 $-1 #
coedge $-1 $85 $85 $52 $86 forward $80 $-1 #
edge $-1 $143 -2.4679223238155992e-015 $143 6.2831853071795978 $85 $144 forward 7 unknown #
face $-1 $145 $146 $18 $-1 $147 reversed single #
loop $-1 $148 $149 $53 #
cone-surface $-1 36.220058128153376 -18.531116949251139 3.478101247979497 0 0.69465837861970381 -0.71933979245794832 1 0 0 1 I I 0 1 1 forward I I I I #
loop $-1 $-1 $150 $34 #
coedge $-1 $91 $91 $92 $151 forward $54 $-1 #
coedge $-1 $92 $92 $91 $151 reversed $56 $-1 #
coedge $-1 $93 $93 $57 $94 forward $152 $-1 #
edge $-1 $153 -2.4679223238155992e-015 $153 6.2831853071795978 $93 $154 forward 7 unknown #
face $-1 $155 $156 $19 $-1 $157 reversed single #
loop $-1 $158 $159 $58 #
cone-surface $-1 40.526113251999 -18.531116949251139 3.478101247979497 0 0.69465837861970381 -0.71933979245794832 1 0 0 1 I I 0 1 1 forward I I I I #
loop $-1 $-1 $160 $37 #
coedge $-1 $99 $99 $100 $161 forward $59 $-1 #
coedge $-1 $100 $100 $99 $161 reversed $61 $-1 #
coedge $-1 $101 $101 $62 $102 forward $162 $-1 #
edge $-1 $163 -2.4679223238155992e-015 $163 6.2831853071795978 $101 $164 forward 7 unknown #
face $-1 $165 $166 $15 $-1 $167 reversed single #
loop $-1 $-1 $168 $63 #
plane-surface $-1 -47.702871791741693 0 0 1 0 0 0 0 -1 forward_v I I I I #
coedge $-1 $169 $114 $170 $171 forward $64 $-1 #
coedge $-1 $172 $66 $169 $173 forward $41 $-1 #
coedge $-1 $66 $172 $174 $175 forward $41 $-1 #
coedge $-1 $117 $116 $66 $110 reversed $118 $-1 #
edge $-1 $176 -21.741806344388781 $177 21.741806344388781 $109 $178 forward 7 unknown #
coedge $-1 $68 $67 $179 $180 forward $26 $-1 #
coedge $-1 $181 $182 $67 $113 reversed $166 $-1 #
edge $-1 $120 -47.702871791741693 $183 47.702871791741693 $112 $184 forward 7 unknown #
coedge $-1 $106 $185 $68 $115 reversed $64 $-1 #
edge $-1 $186 -47.702871791741693 $119 47.702871791741693 $114 $187 forward 7 unknown #
coedge $-1 $109 $69 $185 $188 forward $118 $-1 #
coedge $-1 $69 $109 $181 $189 reversed $118 $-1 #
loop $-1 $-1 $116 $165 #
vertex $-1 $70 $190 #
vertex $-1 $70 $191 #
straight-curve $-1 47.702871791741693 0 6.6269811354284176 0 1 0 I I #
face $-1 $192 $193 $16 $-1 $194 reversed single #
loop $-1 $-1 $131 $71 #
plane-surface $-1 47.702871791741693 0 0 -1 0 0 0 0 1 forward_v I I I I #
coedge $-1 $77 $195 $74 $128 forward $72 $-1 #
coedge $-1 $127 $74 $196 $197 reversed $45 $-1 #
coedge $-1 $74 $126 $75 $130 forward $45 $-1 #
edge $-1 $198 22.266296402160496 $134 27.303022421624689 $125 $199 forward 7 unknown #
coedge $-1 $76 $75 $200 $201 reversed $29 $-1 #
edge $-1 $202 -4.8692854989479908e-015 $134 7.0018732068942642 $127 $203 forward 7 unknown #
coedge $-1 $204 $205 $76 $132 forward $123 $-1 #
edge $-1 $135 0.20563391817513815 $206 7.2075071250694078 $131 $207 forward 7 unknown #
coedge $-1 $208 $77 $205 $209 forward $72 $-1 #
vertex $-1 $78 $210 #
vertex $-1 $209 $211 #
straight-curve $-1 20.2630566259995 -16.705080324924587 6.6269811354284176 1 0 0 I I #
face $-1 $212 $213 $17 $-1 $214 forward single #
loop $-1 $-1 $215 $79 #
plane-surface $-1 33.3493547122563 -88.016205493098553 70.392219034865676 1 0 0 0 0.69465837861970381 -0.71933979245794832 forward_v I I I I #
loop $-1 $-1 $216 $48 #
coedge $-1 $141 $141 $-1 $217 forward $82 $-1 #
edge $-1 $218 0 $218 6.2831853071796004 $83 $219 forward 7 unknown #
vertex $-1 $86 $220 #
ellipse-curve $-1 36.220058128153376 -19.223443334656686 4.1950261908274573 0 0.69465837861970381 -0.71933979245794832 1 0 0 1 I I #
face $-1 $221 $152 $18 $-1 $222 forward single #
loop $-1 $223 $224 $87 #
cone-surface $-1 36.220058128153376 -17.491461374535735 2.4015064089025593 0 0.69465837861970381 -0.71933979245794832 0.5 0 0 1 I I -0.70710678118654746 0.70710678118654746 0.5 forward I I I I #
loop $-1 $-1 $225 $53 #
coedge $-1 $149 $149 $226 $227 reversed $88 $-1 #
coedge $-1 $150 $150 $-1 $228 forward $90 $-1 #
edge $-1 $229 0 $229 6.2831853071796004 $91 $230 forward 7 unknown #
loop $-1 $231 $93 $145 #
vertex $-1 $94 $232 #
ellipse-curve $-1 40.526113251999 -19.223443334656686 4.1950261908274573 0 0.69465837861970381 -0.71933979245794832 1 0 0 1 I I #
face $-1 $233 $234 $19 $-1 $235 reversed single #
loop $-1 $236 $237 $95 #
cone-surface $-1 40.526113251999 -17.491461374535735 2.4015064089025593 0 0.69465837861970381 -0.71933979245794832 0.5 0 0 1 I I -0.70710678118654746 0.70710678118654746 0.5 forward I I I I #
loop $-1 $-1 $238 $58 #
coedge $-1 $159 $159 $239 $240 reversed $96 $-1 #
coedge $-1 $160 $160 $-1 $241 forward $98 $-1 #
edge $-1 $242 0 $242 6.2831853071796004 $99 $243 forward 7 unknown #
loop $-1 $244 $101 $245 #
vertex $-1 $102 $246 #
ellipse-curve $-1 44.832168375844624 -19.223443334656686 4.1950261908274573 0 0.69465837861970381 -0.71933979245794832 1 0 0 1 I I #
face $-1 $-1 $118 $15 $-1 $247 reversed single #
loop $-1 $-1 $181 $103 #
plane-surface $-1 0 21.741806344388781 0 0 -1 0 0 0 -1 forward_v I I I I #
coedge $-1 $248 $179 $182 $249 forward $104 $-1 #
coedge $-1 $185 $106 $107 $173 reversed $64 $-1 #
coedge $-1 $179 $248 $106 $171 reversed $104 $-1 #
edge $-1 $186 -6.6269811354284176 $250 6.6269811354284176 $170 $251 forward 7 unknown #
coedge $-1 $108 $107 $248 $252 forward $41 $-1 #
edge $-1 $177 -47.702871791741693 $250 47.702871791741693 $169 $253 forward 7 unknown #
coedge $-1 $182 $181 $108 $175 reversed $166 $-1 #
edge $-1 $254 -47.702871791741693 $176 47.702871791741693 $174 $255 forward 7 unknown #
vertex $-1 $110 $256 #
vertex $-1 $188 $257 #
straight-curve $-1 47.702871791741693 0 -6.6269811354284176 0 -1 0 I I #
coedge $-1 $168 $170 $111 $180 reversed $104 $-1 #
edge $-1 $183 -21.741806344388781 $186 21.741806344388781 $179 $258 forward 7 unknown #
coedge $-1 $174 $112 $117 $189 forward $166 $-1 #
coedge $-1 $112 $174 $168 $249 reversed $166 $-1 #
vertex $-1 $113 $259 #
straight-curve $-1 0 21.741806344388781 6.6269811354284176 -1 0 0 I I #
coedge $-1 $114 $169 $116 $188 reversed $64 $-1 #
vertex $-1 $180 $260 #
straight-curve $-1 0 -21.741806344388781 6.6269811354284176 1 0 0 I I #
edge $-1 $119 -6.6269811354284176 $177 6.6269811354284176 $116 $261 forward 7 unknown #
edge $-1 $120 -6.6269811354284176 $176 6.6269811354284176 $117 $262 forward 7 unknown #
point $-1 47.702871791741693 -21.741806344388781 6.6269811354284176 #
point $-1 47.702871791741693 21.741806344388781 6.6269811354284176 #
face $-1 $263 $264 $16 $-1 $265 reversed single #
loop $-1 $-1 $266 $122 #
plane-surface $-1 0 0 -6.6269811354284176 0 0 1 1 0 0 forward_v I I I I #
coedge $-1 $125 $267 $268 $269 forward $72 $-1 #
coedge $-1 $268 $200 $126 $197 forward $264 $-1 #
edge $-1 $202 -33.433038271206335 $198 -28.569128382004422 $196 $270 forward 7 unknown #
vertex $-1 $197 $271 #
straight-curve $-1 33.3493547122563 -44.008102746549277 6.6269811354284158 0 1 0 I I #
coedge $-1 $196 $272 $129 $201 forward $264 $-1 #
edge $-1 $206 -27.4398151657422 $202 -13.0862980862568 $200 $273 forward 7 unknown #
vertex $-1 $201 $274 #
straight-curve $-1 33.3493547122563 -21.741806344388777 1.7630712462265024 0 0.71933979245794832 0.69465837861970381 I I #
coedge $-1 $275 $131 $272 $276 forward $123 $-1 #
coedge $-1 $131 $277 $133 $209 reversed $123 $-1 #
vertex $-1 $276 $278 #
straight-curve $-1 47.702871791741693 -16.557159664902169 6.7698264596171764 0 -0.71933979245794832 -0.69465837861970381 I I #
coedge $-1 $267 $133 $279 $280 forward $72 $-1 #
edge $-1 $135 -16.705080324924587 $281 21.741806344388781 $205 $282 forward 7 unknown #
point $-1 33.3493547122563 -16.705080324924587 6.6269811354284176 #
point $-1 47.7028717917417 -16.705080324924587 6.6269811354284176 #
face $-1 $283 $284 $17 $-1 $285 reversed single #
loop $-1 $-1 $286 $137 #
plane-surface $-1 0 0 6.6269811354284176 0 0 1 1 0 0 forward_v I I I I #
coedge $-1 $287 $288 $286 $289 reversed $138 $-1 #
coedge $-1 $290 $291 $292 $293 reversed $140 $-1 #
edge $-1 $294 1 $294 0 $141 $-1 forward 7 unknown #
vertex $-1 $142 $295 #
ellipse-curve $-1 36.220058128153376 -17.838790563845588 2.7611763051315332 0 -0.69465837861970381 0.71933979245794832 1 0 0 1 I I #
point $-1 37.220058128153376 -19.223443334656686 4.1950261908274609 #
face $-1 $296 $297 $18 $-1 $298 forward single #
plane-surface $-1 40.526113251999 -21.741806344388777 1.7630712462265024 0 -0.69465837861970381 0.71933979245794832 1 0 0 forward_v I I I I #
loop $-1 $-1 $299 $87 #
coedge $-1 $224 $224 $225 $300 forward $146 $-1 #
coedge $-1 $225 $225 $224 $300 reversed $148 $-1 #
coedge $-1 $226 $226 $149 $227 forward $231 $-1 #
edge $-1 $301 -2.4679223238155992e-015 $301 6.2831853071795978 $226 $302 forward 7 unknown #
edge $-1 $303 1 $303 0 $150 $-1 forward 7 unknown #
vertex $-1 $151 $304 #
ellipse-curve $-1 40.526113251999 -17.838790563845588 2.7611763051315332 0 -0.69465837861970381 0.71933979245794832 1 0 0 1 I I #
loop $-1 $305 $226 $145 #
point $-1 41.526113251999 -19.223443334656686 4.1950261908274609 #
face $-1 $245 $306 $19 $-1 $307 reversed single #
loop $-1 $308 $309 $155 #
cone-surface $-1 36.220058128153376 -18.531116949251139 3.478101247979497 0 0.69465837861970381 -0.71933979245794832 1 0 0 1 I I 0 1 1 forward I I I I #
loop $-1 $-1 $310 $95 #
coedge $-1 $237 $237 $238 $311 forward $156 $-1 #
coedge $-1 $238 $238 $237 $311 reversed $158 $-1 #
coedge $-1 $239 $239 $159 $240 forward $244 $-1 #
edge $-1 $312 -2.4679223238155992e-015 $312 6.2831853071795978 $239 $313 forward 7 unknown #
edge $-1 $314 1 $314 0 $160 $-1 forward 7 unknown #
vertex $-1 $161 $315 #
ellipse-curve $-1 44.832168375844624 -17.838790563845588 2.7611763051315332 0 -0.69465837861970381 0.71933979245794832 1 0 0 1 I I #
loop $-1 $316 $239 $245 #
face $-1 $317 $162 $19 $-1 $318 forward single #
point $-1 45.832168375844624 -19.223443334656686 4.1950261908274609 #
plane-surface $-1 47.702871791741693 0 0 -1 0 0 0 0 1 forward_v I I I I #
coedge $-1 $170 $168 $172 $252 reversed $104 $-1 #
edge $-1 $183 -6.6269811354284176 $254 6.6269811354284176 $182 $319 forward 7 unknown #
vertex $-1 $252 $320 #
straight-curve $-1 -47.702871791741693 -21.741806344388781 0 0 0 -1 I I #
edge $-1 $250 -21.741806344388781 $254 21.741806344388781 $248 $321 forward 7 unknown #
straight-curve $-1 0 -21.741806344388781 -6.6269811354284176 -1 0 0 I I #
vertex $-1 $175 $322 #
straight-curve $-1 0 21.741806344388781 -6.6269811354284176 1 0 0 I I #
point $-1 47.702871791741693 21.741806344388781 -6.6269811354284176 #
point $-1 47.702871791741693 -21.741806344388781 -6.6269811354284176 #
straight-curve $-1 -47.702871791741693 0 6.6269811354284176 0 -1 0 I I #
point $-1 -47.702871791741693 21.741806344388781 6.6269811354284176 #
point $-1 -47.702871791741693 -21.741806344388781 6.6269811354284176 #
straight-curve $-1 47.702871791741693 -21.741806344388781 0 0 0 -1 I I #
straight-curve $-1 47.702871791741693 21.741806344388781 0 0 0 -1 I I #
face $-1 $323 $324 $16 $-1 $325 reversed single #
loop $-1 $-1 $196 $192 #
plane-surface $-1 0 -21.741806344388781 0 0 1 0 0 0 1 forward_v I I I I #
coedge $-1 $326 $327 $275 $328 forward $193 $-1 #
coedge $-1 $195 $208 $329 $330 forward $72 $-1 #
coedge $-1 $331 $196 $195 $269 reversed $264 $-1 #
edge $-1 $332 -47.702871791741693 $198 33.3493547122563 $268 $333 forward 7 unknown #
straight-curve $-1 33.3493547122563 -21.741806344388785 35.196109517432838 0 0 1 I I #
point $-1 33.3493547122563 -21.741806344388781 6.6269811354284176 #
coedge $-1 $200 $334 $204 $276 reversed $264 $-1 #
straight-curve $-1 20.2630566259995 -21.741806344388781 1.7630712462264979 -1 0 0 I I #
point $-1 33.3493547122563 -21.741806344388781 1.763071246226499 #
coedge $-1 $277 $204 $266 $328 reversed $123 $-1 #
edge $-1 $206 -1.763071246226499 $335 6.6269811354284176 $204 $336 forward 7 unknown #
coedge $-1 $205 $275 $337 $338 reversed $123 $-1 #
point $-1 47.7028717917417 -21.741806344388781 1.763071246226499 #
coedge $-1 $337 $339 $208 $280 reversed $340 $-1 #
edge $-1 $281 -47.702871791741693 $341 47.702871791741693 $279 $342 forward 7 unknown #
vertex $-1 $209 $343 #
straight-curve $-1 47.702871791741693 0 6.6269811354284176 0 1 0 I I #
face $-1 $344 $345 $17 $-1 $346 reversed single #
loop $-1 $-1 $347 $212 #
plane-surface $-1 47.702871791741693 0 0 -1 0 0 0 0 1 forward_v I I I I #
coedge $-1 $292 $348 $215 $289 forward $213 $-1 #
coedge $-1 $288 $215 $349 $350 reversed $138 $-1 #
coedge $-1 $215 $287 $290 $351 forward $138 $-1 #
edge $-1 $352 22.266296402160496 $353 27.303022421624689 $286 $354 forward 7 unknown #
coedge $-1 $355 $216 $288 $351 reversed $140 $-1 #
coedge $-1 $216 $355 $347 $356 reversed $140 $-1 #
coedge $-1 $357 $286 $216 $293 forward $213 $-1 #
edge $-1 $353 13.0862980862568 $358 27.4398151657422 $292 $359 forward 7 unknown #
vertex $-1 $217 $360 #
point $-1 37.220058128153376 -17.838790563845588 2.7611763051315332 #
face $-1 $361 $362 $18 $-1 $363 forward single #
loop $-1 $-1 $364 $221 #
plane-surface $-1 33.3493547122563 -88.016205493098553 70.392219034865676 1 0 0 0 0.69465837861970381 -0.71933979245794832 forward_v I I I I #
coedge $-1 $299 $299 $-1 $365 forward $223 $-1 #
edge $-1 $366 0 $366 6.2831853071796004 $224 $367 forward 7 unknown #
vertex $-1 $227 $368 #
ellipse-curve $-1 36.220058128153376 -19.223443334656686 4.1950261908274573 0 0.69465837861970381 -0.71933979245794832 1 0 0 1 I I #
vertex $-1 $228 $369 #
point $-1 41.526113251999 -17.838790563845588 2.7611763051315332 #
loop $-1 $-1 $370 $145 #
loop $-1 $371 $372 $233 #
cone-surface $-1 36.220058128153376 -17.491461374535735 2.4015064089025593 0 0.69465837861970381 -0.71933979245794832 0.5 0 0 1 I I -0.70710678118654746 0.70710678118654746 0.5 forward I I I I #
loop $-1 $-1 $373 $155 #
coedge $-1 $309 $309 $374 $375 reversed $234 $-1 #
coedge $-1 $310 $310 $-1 $376 forward $236 $-1 #
edge $-1 $377 0 $377 6.2831853071796004 $237 $378 forward 7 unknown #
vertex $-1 $240 $379 #
ellipse-curve $-1 40.526113251999 -19.223443334656686 4.1950261908274573 0 0.69465837861970381 -0.71933979245794832 1 0 0 1 I I #
vertex $-1 $241 $380 #
point $-1 45.832168375844624 -17.838790563845588 2.7611763051315332 #
loop $-1 $381 $374 $245 #
face $-1 $382 $383 $19 $-1 $384 forward single #
plane-surface $-1 40.526113251999 -21.741806344388777 1.7630712462265024 0 -0.69465837861970381 0.71933979245794832 1 0 0 forward_v I I I I #
straight-curve $-1 -47.702871791741693 21.741806344388781 0 0 0 -1 I I #
point $-1 -47.702871791741693 -21.741806344388781 -6.6269811354284176 #
straight-curve $-1 -47.702871791741693 0 -6.6269811354284176 0 1 0 I I #
point $-1 -47.702871791741693 21.741806344388781 -6.6269811354284176 #
face $-1 $-1 $340 $16 $-1 $385 reversed single #
loop $-1 $-1 $386 $263 #
plane-surface $-1 -47.702871791741693 0 0 1 0 0 0 0 -1 forward_v I I I I #
coedge $-1 $387 $266 $334 $388 forward $193 $-1 #
coedge $-1 $266 $387 $389 $390 forward $193 $-1 #
edge $-1 $391 -21.741806344388781 $335 21.741806344388781 $275 $392 forward 7 unknown #
coedge $-1 $386 $393 $267 $330 reversed $324 $-1 #
edge $-1 $341 -21.741806344388781 $332 21.741806344388781 $329 $394 forward 7 unknown #
coedge $-1 $334 $268 $393 $395 forward $264 $-1 #
vertex $-1 $330 $396 #
straight-curve $-1 0 -21.741806344388781 6.6269811354284176 1 0 0 I I #
coedge $-1 $272 $331 $326 $388 reversed $264 $-1 #
vertex $-1 $276 $397 #
straight-curve $-1 47.702871791741693 -21.741806344388781 0 0 0 -1 I I #
coedge $-1 $389 $279 $277 $338 forward $340 $-1 #
edge $-1 $281 -6.6269811354284176 $391 6.6269811354284176 $277 $398 forward 7 unknown #
coedge $-1 $279 $389 $386 $399 reversed $340 $-1 #
loop $-1 $-1 $337 $323 #
vertex $-1 $280 $400 #
straight-curve $-1 0 21.741806344388781 6.6269811354284176 -1 0 0 I I #
point $-1 47.702871791741693 21.741806344388781 6.6269811354284176 #
face $-1 $401 $402 $17 $-1 $403 reversed single #
loop $-1 $-1 $404 $283 #
plane-surface $-1 0 0 -6.6269811354284176 0 0 1 1 0 0 forward_v I I I I #
coedge $-1 $405 $406 $291 $356 forward $284 $-1 #
coedge $-1 $286 $407 $408 $409 forward $213 $-1 #
coedge $-1 $408 $410 $287 $350 forward $402 $-1 #
edge $-1 $411 -33.433038271206335 $352 -28.569128382004422 $349 $412 forward 7 unknown #
edge $-1 $411 -4.8692854989479908e-015 $353 7.0018732068942642 $288 $413 forward 7 unknown #
vertex $-1 $350 $414 #
vertex $-1 $293 $415 #
straight-curve $-1 33.3493547122563 -44.008102746549277 6.6269811354284158 0 1 0 I I #
coedge $-1 $291 $290 $410 $416 reversed $140 $-1 #
edge $-1 $358 0.20563391817513815 $417 7.2075071250694078 $347 $418 forward 7 unknown #
coedge $-1 $419 $292 $406 $420 forward $213 $-1 #
vertex $-1 $420 $421 #
straight-curve $-1 20.2630566259995 -16.705080324924587 6.6269811354284176 1 0 0 I I #
point $-1 36.220058128153376 -17.144132185225882 2.0418365126735853 #
face $-1 $422 $423 $18 $-1 $424 reversed single #
loop $-1 $-1 $425 $296 #
plane-surface $-1 0 0 6.6269811354284176 0 0 1 1 0 0 forward_v I I I I #
coedge $-1 $426 $427 $425 $428 reversed $297 $-1 #
edge $-1 $429 1 $429 0 $299 $-1 forward 7 unknown #
vertex $-1 $300 $430 #
ellipse-curve $-1 36.220058128153376 -17.838790563845588 2.7611763051315332 0 -0.69465837861970381 0.71933979245794832 1 0 0 1 I I #
point $-1 37.220058128153376 -19.223443334656686 4.1950261908274609 #
point $-1 40.526113251999 -17.144132185225882 2.0418365126735853 #
coedge $-1 $431 $432 $433 $434 reversed $305 $-1 #
loop $-1 $-1 $435 $233 #
coedge $-1 $372 $372 $373 $436 forward $306 $-1 #
coedge $-1 $373 $373 $372 $436 reversed $308 $-1 #
coedge $-1 $374 $374 $309 $375 forward $316 $-1 #
edge $-1 $437 -2.4679223238155992e-015 $437 6.2831853071795978 $374 $438 forward 7 unknown #
edge $-1 $439 1 $439 0 $310 $-1 forward 7 unknown #
vertex $-1 $311 $440 #
ellipse-curve $-1 40.526113251999 -17.838790563845588 2.7611763051315332 0 -0.69465837861970381 0.71933979245794832 1 0 0 1 I I #
point $-1 41.526113251999 -19.223443334656686 4.1950261908274609 #
point $-1 44.832168375844624 -17.144132185225882 2.0418365126735853 #
loop $-1 $-1 $441 $245 #
face $-1 $442 $443 $19 $-1 $444 forward single #
loop $-1 $-1 $445 $317 #
plane-surface $-1 33.3493547122563 -88.016205493098553 70.392219034865676 1 0 0 0 0.69465837861970381 -0.71933979245794832 forward_v I I I I #
plane-surface $-1 0 21.741806344388781 0 0 -1 0 0 0 -1 forward_v I I I I #
coedge $-1 $446 $329 $339 $399 forward $324 $-1 #
coedge $-1 $327 $326 $446 $447 forward $193 $-1 #
edge $-1 $335 -47.702871791741693 $448 47.702871791741693 $334 $449 forward 7 unknown #
coedge $-1 $339 $337 $327 $390 reversed $340 $-1 #
edge $-1 $450 -47.702871791741693 $391 47.702871791741693 $389 $451 forward 7 unknown #
vertex $-1 $328 $452 #
straight-curve $-1 47.702871791741693 0 -6.6269811354284176 0 -1 0 I I #
coedge $-1 $329 $446 $331 $395 reversed $324 $-1 #
straight-curve $-1 -47.702871791741693 0 6.6269811354284176 0 -1 0 I I #
edge $-1 $332 -6.6269811354284176 $448 6.6269811354284176 $393 $453 forward 7 unknown #
point $-1 -47.702871791741693 -21.741806344388781 6.6269811354284176 #
point $-1 47.702871791741693 -21.741806344388781 -6.6269811354284176 #
straight-curve $-1 47.702871791741693 21.741806344388781 0 0 0 -1 I I #
edge $-1 $341 -6.6269811354284176 $450 6.6269811354284176 $339 $454 forward 7 unknown #
point $-1 -47.702871791741693 21.741806344388781 6.6269811354284176 #
face $-1 $455 $456 $17 $-1 $457 reversed single #
loop $-1 $-1 $349 $344 #
plane-surface $-1 0 -21.741806344388781 0 0 1 0 0 0 1 forward_v I I I I #
coedge $-1 $458 $459 $460 $461 forward $345 $-1 #
coedge $-1 $460 $347 $462 $463 forward $284 $-1 #
coedge $-1 $347 $464 $357 $420 reversed $284 $-1 #
coedge $-1 $348 $419 $465 $466 forward $213 $-1 #
coedge $-1 $467 $349 $348 $409 reversed $402 $-1 #
edge $-1 $468 -47.702871791741693 $352 33.3493547122563 $408 $469 forward 7 unknown #
coedge $-1 $349 $462 $355 $416 forward $402 $-1 #
vertex $-1 $416 $470 #
straight-curve $-1 33.3493547122563 -21.741806344388785 35.196109517432838 0 0 1 I I #
straight-curve $-1 33.3493547122563 -21.741806344388777 1.7630712462265024 0 0.71933979245794832 0.69465837861970381 I I #
point $-1 33.3493547122563 -21.741806344388781 6.6269811354284176 #
point $-1 33.3493547122563 -16.705080324924587 6.6269811354284176 #
edge $-1 $417 -27.4398151657422 $411 -13.0862980862568 $410 $471 forward 7 unknown #
vertex $-1 $463 $472 #
straight-curve $-1 47.702871791741693 -16.557159664902169 6.7698264596171764 0 -0.71933979245794832 -0.69465837861970381 I I #
coedge $-1 $407 $357 $473 $474 forward $213 $-1 #
edge $-1 $358 -16.705080324924587 $475 21.741806344388781 $406 $476 forward 7 unknown #
point $-1 47.7028717917417 -16.705080324924587 6.6269811354284176 #
face $-1 $477 $478 $18 $-1 $479 reversed single #
loop $-1 $-1 $480 $361 #
plane-surface $-1 47.702871791741693 0 0 -1 0 0 0 0 1 forward_v I I I I #
coedge $-1 $433 $481 $364 $428 forward $362 $-1 #
coedge $-1 $427 $364 $482 $483 reversed $297 $-1 #
coedge $-1 $364 $426 $431 $484 forward $297 $-1 #
edge $-1 $485 22.266296402160496 $486 27.303022421624689 $425 $487 forward 7 unknown #
vertex $-1 $365 $488 #
point $-1 37.220058128153376 -17.838790563845588 2.7611763051315332 #
coedge $-1 $489 $370 $427 $484 reversed $305 $-1 #
coedge $-1 $370 $489 $480 $490 reversed $305 $-1 #
coedge $-1 $491 $425 $370 $434 forward $362 $-1 #
edge $-1 $486 13.0862980862568 $492 27.4398151657422 $433 $493 forward 7 unknown #
coedge $-1 $435 $435 $-1 $494 forward $371 $-1 #
edge $-1 $495 0 $495 6.2831853071796004 $372 $496 forward 7 unknown #
vertex $-1 $375 $497 #
ellipse-curve $-1 36.220058128153376 -19.223443334656686 4.1950261908274573 0 0.69465837861970381 -0.71933979245794832 1 0 0 1 I I #
vertex $-1 $376 $498 #
point $-1 41.526113251999 -17.838790563845588 2.7611763051315332 #
coedge $-1 $499 $500 $501 $502 reversed $381 $-1 #
face $-1 $503 $504 $19 $-1 $505 reversed single #
loop $-1 $-1 $506 $382 #
plane-surface $-1 0 0 6.6269811354284176 0 0 1 1 0 0 forward_v I I I I #
coedge $-1 $507 $508 $506 $509 reversed $383 $-1 #
coedge $-1 $393 $386 $387 $447 reversed $324 $-1 #
edge $-1 $448 -21.741806344388781 $450 21.741806344388781 $446 $510 forward 7 unknown #
vertex $-1 $447 $511 #
straight-curve $-1 0 -21.741806344388781 -6.6269811354284176 -1 0 0 I I #
vertex $-1 $390 $512 #
straight-curve $-1 0 21.741806344388781 -6.6269811354284176 1 0 0 I I #
point $-1 47.702871791741693 21.741806344388781 -6.6269811354284176 #
straight-curve $-1 -47.702871791741693 -21.741806344388781 0 0 0 -1 I I #
straight-curve $-1 -47.702871791741693 21.741806344388781 0 0 0 -1 I I #
face $-1 $-1 $513 $17 $-1 $514 reversed single #
loop $-1 $-1 $515 $401 #
plane-surface $-1 -47.702871791741693 0 0 1 0 0 0 0 -1 forward_v I I I I #
coedge $-1 $516 $404 $517 $518 forward $345 $-1 #
coedge $-1 $404 $516 $519 $520 forward $345 $-1 #
coedge $-1 $464 $405 $404 $461 reversed $284 $-1 #
edge $-1 $521 -21.741806344388781 $522 21.741806344388781 $460 $523 forward 7 unknown #
coedge $-1 $410 $517 $405 $463 reversed $402 $-1 #
edge $-1 $417 -1.763071246226499 $522 6.6269811354284176 $405 $524 forward 7 unknown #
coedge $-1 $406 $460 $525 $526 reversed $284 $-1 #
coedge $-1 $515 $527 $407 $466 reversed $456 $-1 #
edge $-1 $528 -21.741806344388781 $468 21.741806344388781 $465 $529 forward 7 unknown #
coedge $-1 $517 $408 $527 $530 forward $402 $-1 #
vertex $-1 $466 $531 #
straight-curve $-1 0 -21.741806344388781 6.6269811354284176 1 0 0 I I #
point $-1 33.3493547122563 -21.741806344388781 1.763071246226499 #
straight-curve $-1 20.2630566259995 -21.741806344388781 1.7630712462264979 -1 0 0 I I #
point $-1 47.7028717917417 -21.741806344388781 1.763071246226499 #
coedge $-1 $525 $532 $419 $474 reversed $513 $-1 #
edge $-1 $475 -47.702871791741693 $528 47.702871791741693 $473 $533 forward 7 unknown #
vertex $-1 $420 $534 #
straight-curve $-1 47.702871791741693 0 6.6269811354284176 0 1 0 I I #
face $-1 $535 $536 $18 $-1 $537 reversed single #
loop $-1 $-1 $538 $422 #
plane-surface $-1 0 0 -6.6269811354284176 0 0 1 1 0 0 forward_v I I I I #
coedge $-1 $539 $540 $432 $490 forward $423 $-1 #
coedge $-1 $425 $541 $542 $543 forward $362 $-1 #
coedge $-1 $542 $544 $426 $483 forward $536 $-1 #
edge $-1 $545 -33.433038271206335 $485 -28.569128382004422 $482 $546 forward 7 unknown #
edge $-1 $545 -4.8692854989479908e-015 $486 7.0018732068942642 $427 $547 forward 7 unknown #
vertex $-1 $483 $548 #
vertex $-1 $434 $549 #
straight-curve $-1 33.3493547122563 -44.008102746549277 6.6269811354284158 0 1 0 I I #
point $-1 36.220058128153376 -17.144132185225882 2.0418365126735853 #
coedge $-1 $432 $431 $544 $550 reversed $305 $-1 #
edge $-1 $492 0.20563391817513815 $551 7.2075071250694078 $480 $552 forward 7 unknown #
coedge $-1 $553 $433 $540 $554 forward $362 $-1 #
vertex $-1 $554 $555 #
straight-curve $-1 20.2630566259995 -16.705080324924587 6.6269811354284176 1 0 0 I I #
edge $-1 $556 1 $556 0 $435 $-1 forward 7 unknown #
vertex $-1 $436 $557 #
ellipse-curve $-1 36.220058128153376 -17.838790563845588 2.7611763051315332 0 -0.69465837861970381 0.71933979245794832 1 0 0 1 I I #
point $-1 37.220058128153376 -19.223443334656686 4.1950261908274609 #
point $-1 40.526113251999 -17.144132185225882 2.0418365126735853 #
coedge $-1 $558 $441 $508 $559 reversed $381 $-1 #
coedge $-1 $441 $558 $560 $561 reversed $381 $-1 #
coedge $-1 $562 $506 $441 $502 forward $443 $-1 #
edge $-1 $563 13.0862980862568 $564 27.4398151657422 $501 $565 forward 7 unknown #
face $-1 $566 $567 $19 $-1 $568 reversed single #
loop $-1 $-1 $560 $442 #
plane-surface $-1 47.702871791741693 0 0 -1 0 0 0 0 1 forward_v I I I I #
coedge $-1 $501 $569 $445 $509 forward $443 $-1 #
coedge $-1 $508 $445 $570 $571 reversed $383 $-1 #
coedge $-1 $445 $507 $499 $559 forward $383 $-1 #
edge $-1 $572 22.266296402160496 $563 27.303022421624689 $506 $573 forward 7 unknown #
straight-curve $-1 -47.702871791741693 0 -6.6269811354284176 0 1 0 I I #
point $-1 -47.702871791741693 -21.741806344388781 -6.6269811354284176 #
point $-1 -47.702871791741693 21.741806344388781 -6.6269811354284176 #
loop $-1 $-1 $525 $455 #
plane-surface $-1 0 21.741806344388781 0 0 -1 0 0 0 -1 forward_v I I I I #
coedge $-1 $574 $465 $532 $575 forward $456 $-1 #
coedge $-1 $459 $458 $574 $576 forward $345 $-1 #
coedge $-1 $462 $467 $458 $518 reversed $402 $-1 #
edge $-1 $522 -47.702871791741693 $577 47.702871791741693 $517 $578 forward 7 unknown #
coedge $-1 $532 $525 $459 $520 reversed $513 $-1 #
edge $-1 $579 -47.702871791741693 $521 47.702871791741693 $519 $580 forward 7 unknown #
vertex $-1 $461 $581 #
vertex $-1 $463 $582 #
straight-curve $-1 47.702871791741693 0 -6.6269811354284176 0 -1 0 I I #
straight-curve $-1 47.702871791741693 -21.741806344388781 0 0 0 -1 I I #
coedge $-1 $519 $473 $464 $526 forward $513 $-1 #
edge $-1 $475 -6.6269811354284176 $521 6.6269811354284176 $464 $583 forward 7 unknown #
coedge $-1 $465 $574 $467 $530 reversed $456 $-1 #
vertex $-1 $474 $584 #
straight-curve $-1 -47.702871791741693 0 6.6269811354284176 0 -1 0 I I #
edge $-1 $468 -6.6269811354284176 $577 6.6269811354284176 $527 $585 forward 7 unknown #
point $-1 -47.702871791741693 -21.741806344388781 6.6269811354284176 #
coedge $-1 $473 $519 $515 $575 reversed $513 $-1 #
straight-curve $-1 0 21.741806344388781 6.6269811354284176 -1 0 0 I I #
point $-1 47.702871791741693 21.741806344388781 6.6269811354284176 #
face $-1 $586 $587 $18 $-1 $588 reversed single #
loop $-1 $-1 $482 $477 #
plane-surface $-1 0 -21.741806344388781 0 0 1 0 0 0 1 forward_v I I I I #
coedge $-1 $589 $590 $591 $592 forward $478 $-1 #
coedge $-1 $591 $480 $593 $594 forward $423 $-1 #
coedge $-1 $480 $595 $491 $554 reversed $423 $-1 #
coedge $-1 $481 $553 $596 $597 forward $362 $-1 #
coedge $-1 $598 $482 $481 $543 reversed $536 $-1 #
edge $-1 $599 -47.702871791741693 $485 33.3493547122563 $542 $600 forward 7 unknown #
coedge $-1 $482 $593 $489 $550 forward $536 $-1 #
vertex $-1 $550 $601 #
straight-curve $-1 33.3493547122563 -21.741806344388785 35.196109517432838 0 0 1 I I #
straight-curve $-1 33.3493547122563 -21.741806344388777 1.7630712462265024 0 0.71933979245794832 0.69465837861970381 I I #
point $-1 33.3493547122563 -21.741806344388781 6.6269811354284176 #
point $-1 33.3493547122563 -16.705080324924587 6.6269811354284176 #
edge $-1 $551 -27.4398151657422 $545 -13.0862980862568 $544 $602 forward 7 unknown #
vertex $-1 $594 $603 #
straight-curve $-1 47.702871791741693 -16.557159664902169 6.7698264596171764 0 -0.71933979245794832 -0.69465837861970381 I I #
coedge $-1 $541 $491 $604 $605 forward $362 $-1 #
edge $-1 $492 -16.705080324924587 $606 21.741806344388781 $540 $607 forward 7 unknown #
point $-1 47.7028717917417 -16.705080324924587 6.6269811354284176 #
vertex $-1 $494 $608 #
point $-1 37.220058128153376 -17.838790563845588 2.7611763051315332 #
coedge $-1 $500 $499 $609 $610 reversed $381 $-1 #
edge $-1 $611 -4.8692854989479908e-015 $563 7.0018732068942642 $508 $612 forward 7 unknown #
coedge $-1 $613 $614 $500 $561 forward $504 $-1 #
edge $-1 $564 0.20563391817513815 $615 7.2075071250694078 $560 $616 forward 7 unknown #
coedge $-1 $617 $501 $614 $618 forward $443 $-1 #
vertex $-1 $502 $619 #
vertex $-1 $618 $620 #
straight-curve $-1 20.2630566259995 -16.705080324924587 6.6269811354284176 1 0 0 I I #
face $-1 $621 $622 $19 $-1 $623 reversed single #
loop $-1 $-1 $624 $503 #
plane-surface $-1 0 0 -6.6269811354284176 0 0 1 1 0 0 forward_v I I I I #
coedge $-1 $506 $625 $626 $627 forward $443 $-1 #
coedge $-1 $626 $609 $507 $571 forward $622 $-1 #
edge $-1 $611 -33.433038271206335 $572 -28.569128382004422 $570 $628 forward 7 unknown #
vertex $-1 $571 $629 #
straight-curve $-1 33.3493547122563 -44.008102746549277 6.6269811354284158 0 1 0 I I #
coedge $-1 $527 $515 $516 $576 reversed $456 $-1 #
edge $-1 $528 -6.6269811354284176 $579 6.6269811354284176 $532 $630 forward 7 unknown #
edge $-1 $577 -21.741806344388781 $579 21.741806344388781 $574 $631 forward 7 unknown #
vertex $-1 $576 $632 #
straight-curve $-1 0 -21.741806344388781 -6.6269811354284176 -1 0 0 I I #
vertex $-1 $520 $633 #
straight-curve $-1 0 21.741806344388781 -6.6269811354284176 1 0 0 I I #
point $-1 47.702871791741693 21.741806344388781 -6.6269811354284176 #
point $-1 47.702871791741693 -21.741806344388781 -6.6269811354284176 #
straight-curve $-1 47.702871791741693 21.741806344388781 0 0 0 -1 I I #
point $-1 -47.702871791741693 21.741806344388781 6.6269811354284176 #
straight-curve $-1 -47.702871791741693 -21.741806344388781 0 0 0 -1 I I #
face $-1 $-1 $634 $18 $-1 $635 reversed single #
loop $-1 $-1 $636 $535 #
plane-surface $-1 -47.702871791741693 0 0 1 0 0 0 0 -1 forward_v I I I I #
coedge $-1 $637 $538 $638 $639 forward $478 $-1 #
coedge $-1 $538 $637 $640 $641 forward $478 $-1 #
coedge $-1 $595 $539 $538 $592 reversed $423 $-1 #
edge $-1 $642 -21.741806344388781 $643 21.741806344388781 $591 $644 forward 7 unknown #
coedge $-1 $544 $638 $539 $594 reversed $536 $-1 #
edge $-1 $551 -1.763071246226499 $643 6.6269811354284176 $539 $645 forward 7 unknown #
coedge $-1 $540 $591 $646 $647 reversed $423 $-1 #
coedge $-1 $636 $648 $541 $597 reversed $587 $-1 #
edge $-1 $649 -21.741806344388781 $599 21.741806344388781 $596 $650 forward 7 unknown #
coedge $-1 $638 $542 $648 $651 forward $536 $-1 #
vertex $-1 $597 $652 #
straight-curve $-1 0 -21.741806344388781 6.6269811354284176 1 0 0 I I #
point $-1 33.3493547122563 -21.741806344388781 1.763071246226499 #
straight-curve $-1 20.2630566259995 -21.741806344388781 1.7630712462264979 -1 0 0 I I #
point $-1 47.7028717917417 -21.741806344388781 1.763071246226499 #
coedge $-1 $646 $653 $553 $605 reversed $634 $-1 #
edge $-1 $606 -47.702871791741693 $649 47.702871791741693 $604 $654 forward 7 unknown #
vertex $-1 $554 $655 #
straight-curve $-1 47.702871791741693 0 6.6269811354284176 0 1 0 I I #
point $-1 36.220058128153376 -17.144132185225882 2.0418365126735853 #
coedge $-1 $570 $656 $558 $610 forward $622 $-1 #
edge $-1 $615 -27.4398151657422 $611 -13.0862980862568 $609 $657 forward 7 unknown #
vertex $-1 $610 $658 #
straight-curve $-1 33.3493547122563 -21.741806344388777 1.7630712462265024 0 0.71933979245794832 0.69465837861970381 I I #
coedge $-1 $659 $560 $656 $660 forward $504 $-1 #
coedge $-1 $560 $661 $562 $618 reversed $504 $-1 #
vertex $-1 $660 $662 #
straight-curve $-1 47.702871791741693 -16.557159664902169 6.7698264596171764 0 -0.71933979245794832 -0.69465837861970381 I I #
coedge $-1 $625 $562 $663 $664 forward $443 $-1 #
edge $-1 $564 -16.705080324924587 $665 21.741806344388781 $614 $666 forward 7 unknown #
point $-1 33.3493547122563 -16.705080324924587 6.6269811354284176 #
point $-1 47.7028717917417 -16.705080324924587 6.6269811354284176 #
face $-1 $667 $668 $19 $-1 $669 reversed single #
loop $-1 $-1 $570 $566 #
plane-surface $-1 0 -21.741806344388781 0 0 1 0 0 0 1 forward_v I I I I #
coedge $-1 $670 $671 $659 $672 forward $567 $-1 #
coedge $-1 $569 $617 $673 $674 forward $443 $-1 #
coedge $-1 $675 $570 $569 $627 reversed $622 $-1 #
edge $-1 $676 -47.702871791741693 $572 33.3493547122563 $626 $677 forward 7 unknown #
straight-curve $-1 33.3493547122563 -21.741806344388785 35.196109517432838 0 0 1 I I #
point $-1 33.3493547122563 -21.741806344388781 6.6269811354284176 #
straight-curve $-1 -47.702871791741693 21.741806344388781 0 0 0 -1 I I #
straight-curve $-1 -47.702871791741693 0 -6.6269811354284176 0 1 0 I I #
point $-1 -47.702871791741693 -21.741806344388781 -6.6269811354284176 #
point $-1 -47.702871791741693 21.741806344388781 -6.6269811354284176 #
loop $-1 $-1 $646 $586 #
plane-surface $-1 0 21.741806344388781 0 0 -1 0 0 0 -1 forward_v I I I I #
coedge $-1 $678 $596 $653 $679 forward $587 $-1 #
coedge $-1 $590 $589 $678 $680 forward $478 $-1 #
coedge $-1 $593 $598 $589 $639 reversed $536 $-1 #
edge $-1 $643 -47.702871791741693 $681 47.702871791741693 $638 $682 forward 7 unknown #
coedge $-1 $653 $646 $590 $641 reversed $634 $-1 #
edge $-1 $683 -47.702871791741693 $642 47.702871791741693 $640 $684 forward 7 unknown #
vertex $-1 $592 $685 #
vertex $-1 $594 $686 #
straight-curve $-1 47.702871791741693 0 -6.6269811354284176 0 -1 0 I I #
straight-curve $-1 47.702871791741693 -21.741806344388781 0 0 0 -1 I I #
coedge $-1 $640 $604 $595 $647 forward $634 $-1 #
edge $-1 $606 -6.6269811354284176 $642 6.6269811354284176 $595 $687 forward 7 unknown #
coedge $-1 $596 $678 $598 $651 reversed $587 $-1 #
vertex $-1 $605 $688 #
straight-curve $-1 -47.702871791741693 0 6.6269811354284176 0 -1 0 I I #
edge $-1 $599 -6.6269811354284176 $681 6.6269811354284176 $648 $689 forward 7 unknown #
point $-1 -47.702871791741693 -21.741806344388781 6.6269811354284176 #
coedge $-1 $604 $640 $636 $679 reversed $634 $-1 #
straight-curve $-1 0 21.741806344388781 6.6269811354284176 -1 0 0 I I #
point $-1 47.702871791741693 21.741806344388781 6.6269811354284176 #
coedge $-1 $609 $690 $613 $660 reversed $622 $-1 #
straight-curve $-1 20.2630566259995 -21.741806344388781 1.7630712462264979 -1 0 0 I I #
point $-1 33.3493547122563 -21.741806344388781 1.763071246226499 #
coedge $-1 $661 $613 $624 $672 reversed $504 $-1 #
edge $-1 $615 -1.763071246226499 $691 6.6269811354284176 $613 $692 forward 7 unknown #
coedge $-1 $614 $659 $693 $694 reversed $504 $-1 #
point $-1 47.7028717917417 -21.741806344388781 1.763071246226499 #
coedge $-1 $693 $695 $617 $664 reversed $696 $-1 #
edge $-1 $665 -47.702871791741693 $697 47.702871791741693 $663 $698 forward 7 unknown #
vertex $-1 $618 $699 #
straight-curve $-1 47.702871791741693 0 6.6269811354284176 0 1 0 I I #
face $-1 $-1 $696 $19 $-1 $700 reversed single #
loop $-1 $-1 $701 $621 #
plane-surface $-1 -47.702871791741693 0 0 1 0 0 0 0 -1 forward_v I I I I #
coedge $-1 $702 $624 $690 $703 forward $567 $-1 #
coedge $-1 $624 $702 $704 $705 forward $567 $-1 #
edge $-1 $706 -21.741806344388781 $691 21.741806344388781 $659 $707 forward 7 unknown #
coedge $-1 $701 $708 $625 $674 reversed $668 $-1 #
edge $-1 $697 -21.741806344388781 $676 21.741806344388781 $673 $709 forward 7 unknown #
coedge $-1 $690 $626 $708 $710 forward $622 $-1 #
vertex $-1 $674 $711 #
straight-curve $-1 0 -21.741806344388781 6.6269811354284176 1 0 0 I I #
coedge $-1 $648 $636 $637 $680 reversed $587 $-1 #
edge $-1 $649 -6.6269811354284176 $683 6.6269811354284176 $653 $712 forward 7 unknown #
edge $-1 $681 -21.741806344388781 $683 21.741806344388781 $678 $713 forward 7 unknown #
vertex $-1 $680 $714 #
straight-curve $-1 0 -21.741806344388781 -6.6269811354284176 -1 0 0 I I #
vertex $-1 $641 $715 #
straight-curve $-1 0 21.741806344388781 -6.6269811354284176 1 0 0 I I #
point $-1 47.702871791741693 21.741806344388781 -6.6269811354284176 #
point $-1 47.702871791741693 -21.741806344388781 -6.6269811354284176 #
straight-curve $-1 47.702871791741693 21.741806344388781 0 0 0 -1 I I #
point $-1 -47.702871791741693 21.741806344388781 6.6269811354284176 #
straight-curve $-1 -47.702871791741693 -21.741806344388781 0 0 0 -1 I I #
coedge $-1 $656 $675 $670 $703 reversed $622 $-1 #
vertex $-1 $660 $716 #
straight-curve $-1 47.702871791741693 -21.741806344388781 0 0 0 -1 I I #
coedge $-1 $704 $663 $661 $694 forward $696 $-1 #
edge $-1 $665 -6.6269811354284176 $706 6.6269811354284176 $661 $717 forward 7 unknown #
coedge $-1 $663 $704 $701 $718 reversed $696 $-1 #
loop $-1 $-1 $693 $667 #
vertex $-1 $664 $719 #
straight-curve $-1 0 21.741806344388781 6.6269811354284176 -1 0 0 I I #
point $-1 47.702871791741693 21.741806344388781 6.6269811354284176 #
plane-surface $-1 0 21.741806344388781 0 0 -1 0 0 0 -1 forward_v I I I I #
coedge $-1 $720 $673 $695 $718 forward $668 $-1 #
coedge $-1 $671 $670 $720 $721 forward $567 $-1 #
edge $-1 $691 -47.702871791741693 $722 47.702871791741693 $690 $723 forward 7 unknown #
coedge $-1 $695 $693 $671 $705 reversed $696 $-1 #
edge $-1 $724 -47.702871791741693 $706 47.702871791741693 $704 $725 forward 7 unknown #
vertex $-1 $672 $726 #
straight-curve $-1 47.702871791741693 0 -6.6269811354284176 0 -1 0 I I #
coedge $-1 $673 $720 $675 $710 reversed $668 $-1 #
straight-curve $-1 -47.702871791741693 0 6.6269811354284176 0 -1 0 I I #
edge $-1 $676 -6.6269811354284176 $722 6.6269811354284176 $708 $727 forward 7 unknown #
point $-1 -47.702871791741693 -21.741806344388781 6.6269811354284176 #
straight-curve $-1 -47.702871791741693 21.741806344388781 0 0 0 -1 I I #
straight-curve $-1 -47.702871791741693 0 -6.6269811354284176 0 1 0 I I #
point $-1 -47.702871791741693 -21.741806344388781 -6.6269811354284176 #
point $-1 -47.702871791741693 21.741806344388781 -6.6269811354284176 #
point $-1 47.702871791741693 -21.741806344388781 -6.6269811354284176 #
straight-curve $-1 47.702871791741693 21.741806344388781 0 0 0 -1 I I #
edge $-1 $697 -6.6269811354284176 $724 6.6269811354284176 $695 $728 forward 7 unknown #
point $-1 -47.702871791741693 21.741806344388781 6.6269811354284176 #
coedge $-1 $708 $701 $702 $721 reversed $668 $-1 #
edge $-1 $722 -21.741806344388781 $724 21.741806344388781 $720 $729 forward 7 unknown #
vertex $-1 $721 $730 #
straight-curve $-1 0 -21.741806344388781 -6.6269811354284176 -1 0 0 I I #
vertex $-1 $705 $731 #
straight-curve $-1 0 21.741806344388781 -6.6269811354284176 1 0 0 I I #
point $-1 47.702871791741693 21.741806344388781 -6.6269811354284176 #
straight-curve $-1 -47.702871791741693 -21.741806344388781 0 0 0 -1 I I #
straight-curve $-1 -47.702871791741693 21.741806344388781 0 0 0 -1 I I #
straight-curve $-1 -47.702871791741693 0 -6.6269811354284176 0 1 0 I I #
point $-1 -47.702871791741693 -21.741806344388781 -6.6269811354284176 #
point $-1 -47.702871791741693 21.741806344388781 -6.6269811354284176 #
End-of-ACIS-data 