500 0 6 0           
7 Unknown 11 ACIS 5.0 NT 24 Fri Mar 26 14:54:45 1999 
-1 9.9999999999999995e-007 1e-010 
body $-1 $6 $-1 $7 #
body $-1 $8 $-1 $9 #
body $-1 $10 $-1 $11 #
body $-1 $12 $-1 $13 #
body $-1 $14 $-1 $15 #
body $-1 $16 $-1 $17 #
lump $-1 $-1 $18 $0 #
transform $-1 1 0 0 0 1 0 0 0 1 65.988341929380169 41.244979304930894 18.2506547422118 1 rotate no_reflect no_shear #
lump $-1 $-1 $19 $1 #
transform $-1 1 0 0 0 1 0 0 0 1 65.988341929380169 41.244979304930894 18.2506547422118 1 rotate no_reflect no_shear #
lump $-1 $-1 $20 $2 #
transform $-1 1 0 0 0 1 0 0 0 1 65.988341929380169 41.244979304930894 18.2506547422118 1 rotate no_reflect no_shear #
lump $-1 $-1 $21 $3 #
transform $-1 1 0 0 0 1 0 0 0 1 65.988341929380169 41.244979304930894 18.2506547422118 1 rotate no_reflect no_shear #
lump $-1 $-1 $22 $4 #
transform $-1 1 0 0 0 1 0 0 0 1 65.988341929380169 41.244979304930894 18.2506547422118 1 rotate no_reflect no_shear #
lump $-1 $-1 $23 $5 #
transform $-1 1 0 0 0 1 0 0 0 1 65.988341929380169 41.244979304930894 18.2506547422118 1 rotate no_reflect no_shear #
shell $-1 $-1 $-1 $24 $-1 $6 #
shell $-1 $-1 $-1 $25 $-1 $8 #
shell $-1 $-1 $-1 $26 $-1 $10 #
shell $-1 $-1 $-1 $27 $-1 $12 #
shell $-1 $-1 $-1 $28 $-1 $14 #
shell $-1 $-1 $-1 $29 $-1 $16 #
face $-1 $30 $31 $18 $-1 $32 forward single #
face $-1 $33 $34 $19 $-1 $35 forward single #
face $-1 $36 $37 $20 $-1 $38 reversed single #
face $-1 $39 $40 $21 $-1 $41 forward single #
face $-1 $42 $43 $22 $-1 $44 reversed single #
face $-1 $45 $46 $23 $-1 $47 forward single #
face $-1 $48 $49 $18 $-1 $50 reversed single #
loop $-1 $-1 $51 $24 #
plane-surface $-1 0 0 18.2506547422118 0 0 1 1 0 0 forward_v I I I I #
face $-1 $52 $53 $19 $-1 $54 reversed single #
loop $-1 $-1 $55 $25 #
plane-surface $-1 -54.74429662294316 0 -13.62174139634504 0 0 1 1 0 0 forward_v I I I I #
face $-1 $56 $57 $20 $-1 $58 reversed single #
loop $-1 $-1 $59 $26 #
plane-surface $-1 -39.82699378186544 -124.30059863173514 108.7325225386667 1 0 0 0 0.62932039886446345 -0.77714595512881146 forward_v I I I I #
face $-1 $60 $61 $21 $-1 $62 forward single #
loop $-1 $63 $64 $27 #
cone-surface $-1 -24.380404395366185 -31.404682970979628 9.2705859030521918 0 0.62932039886446345 -0.77714595512881146 2.5 0 0 1 I I 0 1 2.5 forward I I I I #
face $-1 $65 $66 $22 $-1 $67 reversed single #
loop $-1 $-1 $68 $28 #
plane-surface $-1 49.649758159294095 94.458137754599534 153.45562777859089 1 0 0 0 -0.78801076186113728 -0.61566146476048833 forward_v I I I I #
face $-1 $69 $70 $23 $-1 $71 forward single #
loop $-1 $72 $73 $29 #
cone-surface $-1 57.819050044337132 35.573175463400531 11.666668687354704 0 -0.78801076186113728 -0.61566146476048833 1.5 0 0 1 I I 0 1 1.5 forward I I I I #
face $-1 $74 $75 $18 $-1 $76 reversed single #
loop $-1 $-1 $77 $30 #
plane-surface $-1 0 0 -18.2506547422118 0 0 1 1 0 0 forward_v I I I I #
coedge $-1 $78 $79 $80 $81 forward $31 $-1 #
face $-1 $82 $83 $19 $-1 $84 reversed single #
loop $-1 $-1 $85 $33 #
plane-surface $-1 -54.74429662294316 0 -17.7506547422118 0 0 1 1 0 0 forward_v I I I I #
coedge $-1 $86 $87 $88 $89 forward $34 $-1 #
face $-1 $90 $91 $20 $-1 $92 reversed single #
loop $-1 $-1 $93 $36 #
plane-surface $-1 -24.380404395366185 -41.244979304930894 6.1673765065172006 0 -0.62932039886446345 0.77714595512881146 1 0 0 forward_v I I I I #
coedge $-1 $94 $95 $96 $97 reversed $37 $-1 #
face $-1 $-1 $98 $21 $-1 $99 forward single #
loop $-1 $100 $101 $39 #
cone-surface $-1 -24.380404395366185 -28.238538952491396 5.3607237378288772 0 0.62932039886446345 -0.77714595512881146 1.25 0 0 1 I I -0.70710678118654724 0.70710678118654768 1.25 forward I I I I #
loop $-1 $-1 $102 $27 #
coedge $-1 $64 $64 $103 $104 reversed $40 $-1 #
face $-1 $105 $106 $22 $-1 $107 forward single #
loop $-1 $-1 $108 $42 #
plane-surface $-1 57.819050044337132 -9.5409094408486652 72.202669279874613 0 0.78801076186113728 0.61566146476048833 1 0 0 forward_v I I I I #
coedge $-1 $109 $110 $111 $112 reversed $43 $-1 #
face $-1 $-1 $113 $23 $-1 $114 forward single #
loop $-1 $115 $116 $45 #
cone-surface $-1 57.819050044337132 33.627341766134151 10.146416830121261 0 -0.78801076186113728 -0.61566146476048833 0.75 0 0 1 I I -0.70710678118654757 0.70710678118654757 0.75 forward I I I I #
loop $-1 $-1 $117 $29 #
coedge $-1 $73 $73 $118 $119 reversed $46 $-1 #
face $-1 $120 $121 $18 $-1 $122 reversed single #
loop $-1 $-1 $123 $48 #
plane-surface $-1 0 -41.244979304930894 0 0 1 0 0 0 1 forward_v I I I I #
coedge $-1 $124 $125 $126 $127 forward $49 $-1 #
coedge $-1 $128 $51 $129 $130 forward $31 $-1 #
coedge $-1 $51 $128 $131 $132 forward $31 $-1 #
coedge $-1 $133 $134 $51 $81 reversed $135 $-1 #
edge $-1 $136 -41.244979304930894 $137 41.244979304930894 $80 $138 forward 7 unknown #
face $-1 $139 $140 $19 $-1 $141 reversed single #
loop $-1 $-1 $142 $52 #
plane-surface $-1 -43.500251316506152 0 -15.68619806927842 -1 0 0 0 0 1 forward_v I I I I #
coedge $-1 $143 $144 $145 $146 forward $53 $-1 #
coedge $-1 $147 $55 $148 $149 reversed $34 $-1 #
coedge $-1 $55 $147 $150 $151 reversed $34 $-1 #
coedge $-1 $142 $152 $55 $89 reversed $83 $-1 #
edge $-1 $153 -41.244979304930894 $154 41.244979304930894 $88 $155 forward 7 unknown #
face $-1 $156 $157 $20 $-1 $158 forward single #
loop $-1 $-1 $159 $56 #
plane-surface $-1 -8.933815008866933 -124.30059863173514 108.7325225386667 -1 0 0 0 -0.62932039886446345 0.77714595512881146 forward_v I I I I #
coedge $-1 $160 $161 $162 $163 reversed $57 $-1 #
coedge $-1 $95 $59 $164 $165 reversed $37 $-1 #
coedge $-1 $59 $94 $160 $166 reversed $37 $-1 #
coedge $-1 $162 $167 $59 $97 forward $168 $-1 #
edge $-1 $169 36.11560652712155 $170 48.198884762816149 $96 $171 forward 7 unknown #
loop $-1 $-1 $103 $60 #
plane-surface $-1 -24.380404395366185 -41.244979304930894 6.1673765065172006 0 -0.62932039886446345 0.77714595512881146 1 0 0 forward_v I I I I #
loop $-1 $-1 $172 $39 #
coedge $-1 $101 $101 $102 $173 reversed $61 $-1 #
coedge $-1 $102 $102 $101 $173 forward $63 $-1 #
coedge $-1 $103 $103 $64 $104 forward $98 $-1 #
edge $-1 $174 -4.7417257510427312e-016 $174 6.2831853071795996 $103 $175 forward 7 unknown #
face $-1 $176 $177 $22 $-1 $178 reversed single #
loop $-1 $-1 $111 $65 #
plane-surface $-1 0 0 18.2506547422118 0 0 1 1 0 0 forward_v I I I I #
coedge $-1 $179 $180 $181 $182 reversed $66 $-1 #
coedge $-1 $110 $68 $183 $184 reversed $43 $-1 #
coedge $-1 $68 $109 $179 $185 reversed $43 $-1 #
coedge $-1 $181 $186 $68 $112 forward $106 $-1 #
edge $-1 $187 5.9840895723688732 $188 14.618046003688519 $111 $189 forward 7 unknown #
loop $-1 $-1 $118 $69 #
plane-surface $-1 57.819050044337132 -9.5409094408486652 72.202669279874613 0 0.78801076186113728 0.61566146476048833 1 0 0 forward_v I I I I #
loop $-1 $-1 $190 $45 #
coedge $-1 $116 $116 $117 $191 reversed $70 $-1 #
coedge $-1 $117 $117 $116 $191 forward $72 $-1 #
coedge $-1 $118 $118 $73 $119 forward $113 $-1 #
edge $-1 $192 -1.0499741346825417e-015 $192 6.2831853071795996 $118 $193 forward 7 unknown #
face $-1 $194 $195 $18 $-1 $196 reversed single #
loop $-1 $-1 $197 $74 #
plane-surface $-1 -65.988341929380169 0 0 1 0 0 0 0 -1 forward_v I I I I #
coedge $-1 $198 $131 $199 $200 forward $75 $-1 #
coedge $-1 $201 $77 $198 $202 forward $49 $-1 #
coedge $-1 $77 $201 $203 $204 forward $49 $-1 #
coedge $-1 $134 $133 $77 $127 reversed $135 $-1 #
edge $-1 $205 -41.244979304930894 $206 41.244979304930894 $126 $207 forward 7 unknown #
coedge $-1 $79 $78 $208 $209 forward $31 $-1 #
coedge $-1 $210 $211 $78 $130 reversed $195 $-1 #
edge $-1 $137 -65.988341929380169 $212 65.988341929380169 $129 $213 forward 7 unknown #
coedge $-1 $123 $214 $79 $132 reversed $75 $-1 #
edge $-1 $215 -65.988341929380169 $136 65.988341929380169 $131 $216 forward 7 unknown #
coedge $-1 $126 $80 $214 $217 forward $135 $-1 #
coedge $-1 $80 $126 $210 $218 reversed $135 $-1 #
loop $-1 $-1 $133 $194 #
vertex $-1 $81 $219 #
vertex $-1 $81 $220 #
straight-curve $-1 65.988341929380169 0 18.2506547422118 0 1 0 I I #
face $-1 $221 $222 $19 $-1 $223 reversed single #
loop $-1 $-1 $224 $82 #
plane-surface $-1 0 -41.244979304930894 0 0 1 0 0 0 1 forward_v I I I I #
coedge $-1 $145 $88 $225 $226 reversed $83 $-1 #
coedge $-1 $227 $85 $224 $228 reversed $53 $-1 #
coedge $-1 $85 $227 $229 $230 reversed $53 $-1 #
coedge $-1 $152 $142 $85 $146 reversed $83 $-1 #
edge $-1 $231 -41.244979304930894 $232 41.244979304930894 $145 $233 forward 7 unknown #
coedge $-1 $87 $86 $234 $235 reversed $34 $-1 #
coedge $-1 $236 $237 $86 $149 forward $238 $-1 #
edge $-1 $239 -38.616193617908593 $154 -16.128103005034571 $148 $240 forward 7 unknown #
coedge $-1 $241 $225 $87 $151 forward $140 $-1 #
edge $-1 $153 16.128103005034571 $242 38.616193617908593 $150 $243 forward 7 unknown #
coedge $-1 $88 $145 $236 $244 reversed $83 $-1 #
vertex $-1 $151 $245 #
vertex $-1 $149 $246 #
straight-curve $-1 -43.500251316506152 0 -13.62174139634504 0 1 0 I I #
face $-1 $-1 $168 $20 $-1 $247 reversed single #
loop $-1 $-1 $248 $90 #
plane-surface $-1 0 0 18.2506547422118 0 0 1 1 0 0 forward_v I I I I #
coedge $-1 $249 $250 $251 $252 reversed $91 $-1 #
coedge $-1 $253 $93 $95 $166 forward $57 $-1 #
coedge $-1 $93 $253 $249 $254 forward $57 $-1 #
coedge $-1 $251 $96 $93 $163 forward $168 $-1 #
edge $-1 $170 -27.636791584182347 $255 3.2563871888161593 $162 $256 forward 7 unknown #
coedge $-1 $257 $258 $94 $165 forward $157 $-1 #
edge $-1 $259 -35.826925639023877 $169 -20.905320010936677 $164 $260 forward 7 unknown #
edge $-1 $170 0 $259 19.200518936772891 $95 $261 forward 7 unknown #
coedge $-1 $96 $251 $257 $262 reversed $168 $-1 #
loop $-1 $-1 $251 $156 #
vertex $-1 $262 $263 #
vertex $-1 $97 $264 #
straight-curve $-1 -39.82699378186544 -41.244979304930894 54.36626126933335 0 0 -1 I I #
coedge $-1 $172 $172 $-1 $265 reversed $100 $-1 #
edge $-1 $266 0 $266 6.2831853071796004 $101 $267 forward 7 unknown #
vertex $-1 $104 $268 #
ellipse-curve $-1 -24.380404395366185 -33.78417649088729 12.209015624364504 0 -0.62932039886446345 0.77714595512881146 2.5 0 0 1 I I #
face $-1 $-1 $269 $22 $-1 $270 reversed single #
loop $-1 $-1 $271 $105 #
plane-surface $-1 65.988341929380169 0 0 -1 0 0 0 0 1 forward_v I I I I #
coedge $-1 $272 $108 $110 $185 forward $66 $-1 #
coedge $-1 $108 $272 $271 $273 reversed $66 $-1 #
coedge $-1 $274 $111 $108 $182 forward $106 $-1 #
edge $-1 $188 20.740233137125529 $275 37.078816907211603 $181 $276 forward 7 unknown #
coedge $-1 $277 $278 $109 $184 forward $269 $-1 #
edge $-1 $279 -69.528119739471691 $187 -58.477159147083647 $183 $280 forward 7 unknown #
edge $-1 $188 68.466088470972181 $279 82.489958609861773 $110 $281 forward 7 unknown #
coedge $-1 $111 $274 $277 $282 forward $106 $-1 #
vertex $-1 $184 $283 #
vertex $-1 $112 $284 #
straight-curve $-1 49.649758159294095 47.229068877299767 18.250654742211793 0 -1 0 I I #
coedge $-1 $190 $190 $-1 $285 reversed $115 $-1 #
edge $-1 $286 0 $286 6.2831853071796004 $116 $287 forward 7 unknown #
vertex $-1 $119 $288 #
ellipse-curve $-1 57.819050044337132 36.928001089271064 12.725174446017787 0 0.78801076186113728 0.61566146476048833 1.5 0 0 1 I I #
face $-1 $-1 $135 $18 $-1 $289 reversed single #
loop $-1 $-1 $210 $120 #
plane-surface $-1 0 41.244979304930894 0 0 -1 0 0 0 -1 forward_v I I I I #
coedge $-1 $290 $208 $211 $291 forward $121 $-1 #
coedge $-1 $214 $123 $124 $202 reversed $75 $-1 #
coedge $-1 $208 $290 $123 $200 reversed $121 $-1 #
edge $-1 $215 -18.2506547422118 $292 18.2506547422118 $199 $293 forward 7 unknown #
coedge $-1 $125 $124 $290 $294 forward $49 $-1 #
edge $-1 $206 -65.988341929380169 $292 65.988341929380169 $198 $295 forward 7 unknown #
coedge $-1 $211 $210 $125 $204 reversed $195 $-1 #
edge $-1 $296 -65.988341929380169 $205 65.988341929380169 $203 $297 forward 7 unknown #
vertex $-1 $127 $298 #
vertex $-1 $217 $299 #
straight-curve $-1 65.988341929380169 0 -18.2506547422118 0 -1 0 I I #
coedge $-1 $197 $199 $128 $209 reversed $121 $-1 #
edge $-1 $212 -41.244979304930894 $215 41.244979304930894 $208 $300 forward 7 unknown #
coedge $-1 $203 $129 $134 $218 forward $195 $-1 #
coedge $-1 $129 $203 $197 $291 reversed $195 $-1 #
vertex $-1 $130 $301 #
straight-curve $-1 0 41.244979304930894 18.2506547422118 -1 0 0 I I #
coedge $-1 $131 $198 $133 $217 reversed $75 $-1 #
vertex $-1 $209 $302 #
straight-curve $-1 0 -41.244979304930894 18.2506547422118 1 0 0 I I #
edge $-1 $136 -18.2506547422118 $206 18.2506547422118 $133 $303 forward 7 unknown #
edge $-1 $137 -18.2506547422118 $205 18.2506547422118 $134 $304 forward 7 unknown #
point $-1 65.988341929380169 -41.244979304930894 18.2506547422118 #
point $-1 65.988341929380169 41.244979304930894 18.2506547422118 #
face $-1 $-1 $238 $19 $-1 $305 reversed single #
loop $-1 $-1 $306 $139 #
plane-surface $-1 -65.988341929380169 0 0 1 0 0 0 0 -1 forward_v I I I I #
coedge $-1 $225 $241 $143 $228 forward $140 $-1 #
coedge $-1 $150 $224 $142 $226 forward $140 $-1 #
edge $-1 $232 -9.9075557075725911 $153 -5.7786423617058302 $225 $307 forward 7 unknown #
coedge $-1 $144 $143 $306 $308 reversed $53 $-1 #
edge $-1 $309 -38.616193617908593 $232 -16.128103005034571 $224 $310 forward 7 unknown #
coedge $-1 $237 $236 $144 $230 forward $238 $-1 #
edge $-1 $231 16.128103005034571 $311 38.616193617908593 $229 $312 forward 7 unknown #
vertex $-1 $230 $313 #
vertex $-1 $228 $314 #
straight-curve $-1 -43.500251316506152 0 -17.7506547422118 0 -1 0 I I #
coedge $-1 $315 $316 $147 $235 forward $222 $-1 #
edge $-1 $242 -41.244979304930894 $239 41.244979304930894 $234 $317 forward 7 unknown #
coedge $-1 $229 $148 $152 $244 forward $238 $-1 #
coedge $-1 $148 $229 $315 $318 reversed $238 $-1 #
loop $-1 $-1 $229 $221 #
vertex $-1 $318 $319 #
straight-curve $-1 -27.37214831147158 41.244979304930894 -13.62174139634504 1 0 0 I I #
coedge $-1 $224 $150 $316 $320 forward $140 $-1 #
vertex $-1 $320 $321 #
straight-curve $-1 -27.37214831147158 -41.244979304930894 -13.62174139634504 -1 0 0 I I #
edge $-1 $154 5.7786423617058302 $231 9.9075557075725911 $236 $322 forward 7 unknown #
point $-1 -43.500251316506152 -41.244979304930894 -13.62174139634504 #
point $-1 -43.500251316506152 41.244979304930894 -13.62174139634504 #
plane-surface $-1 0 -41.244979304930894 0 0 1 0 0 0 1 forward_v I I I I #
coedge $-1 $258 $257 $250 $323 forward $157 $-1 #
coedge $-1 $250 $159 $161 $254 reversed $91 $-1 #
coedge $-1 $159 $249 $248 $323 reversed $91 $-1 #
coedge $-1 $167 $162 $159 $252 forward $168 $-1 #
edge $-1 $255 -48.198884762816149 $324 -36.11560652712155 $251 $325 forward 7 unknown #
coedge $-1 $161 $160 $258 $326 reversed $57 $-1 #
edge $-1 $327 -19.200518936772891 $255 0 $249 $328 forward 7 unknown #
vertex $-1 $163 $329 #
straight-curve $-1 -12.190202197683092 -41.244979304930894 6.1673765065171988 1 0 0 I I #
coedge $-1 $248 $164 $167 $262 forward $157 $-1 #
coedge $-1 $164 $248 $253 $326 forward $157 $-1 #
vertex $-1 $165 $330 #
straight-curve $-1 -39.82699378186544 -62.150299315867571 18.2506547422118 0 -1 0 I I #
straight-curve $-1 -39.82699378186544 -41.244979304930894 6.1673765065172006 0 0.77714595512881146 0.62932039886446345 I I #
edge $-1 $169 -39.82699378186544 $324 -8.933815008866933 $167 $331 forward 7 unknown #
point $-1 -39.82699378186544 -41.244979304930894 18.2506547422118 #
point $-1 -39.82699378186544 -41.244979304930894 6.1673765065172006 #
edge $-1 $332 1 $332 0 $172 $-1 forward 7 unknown #
vertex $-1 $173 $333 #
ellipse-curve $-1 -24.380404395366185 -29.025189451071977 6.3321561817398919 0 -0.62932039886446345 0.77714595512881146 2.5 0 0 1 I I #
point $-1 -21.880404395366185 -33.784176490887283 12.209015624364493 #
loop $-1 $-1 $183 $176 #
plane-surface $-1 0 41.244979304930894 0 0 -1 0 0 0 -1 forward_v I I I I #
coedge $-1 $334 $335 $180 $273 forward $177 $-1 #
coedge $-1 $180 $179 $278 $336 reversed $66 $-1 #
edge $-1 $275 37.080863116401289 $337 51.104733255290881 $271 $338 forward 7 unknown #
coedge $-1 $186 $181 $335 $339 forward $106 $-1 #
vertex $-1 $339 $340 #
straight-curve $-1 28.909525022168566 32.61102287361124 18.2506547422118 1 0 0 I I #
coedge $-1 $341 $183 $186 $282 reversed $269 $-1 #
coedge $-1 $183 $341 $272 $336 forward $269 $-1 #
vertex $-1 $184 $342 #
straight-curve $-1 49.649758159294095 41.244979304930894 76.727813889295447 0 0 1 I I #
straight-curve $-1 49.649758159294095 -9.5409094408486652 72.202669279874613 0 0.61566146476048833 -0.78801076186113728 I I #
edge $-1 $343 -65.988341929380169 $187 -49.649758159294095 $277 $344 forward 7 unknown #
point $-1 49.649758159294095 41.244979304930894 18.2506547422118 #
point $-1 49.649758159294095 32.611022873611248 18.250654742211793 #
edge $-1 $345 1 $345 0 $190 $-1 forward 7 unknown #
vertex $-1 $191 $346 #
ellipse-curve $-1 57.819050044337132 34.218349837530006 10.608162928691627 0 0.78801076186113728 0.61566146476048833 1.5 0 0 1 I I #
point $-1 59.319050044337132 36.928001089271056 12.725174446017784 #
plane-surface $-1 65.988341929380169 0 0 -1 0 0 0 0 1 forward_v I I I I #
coedge $-1 $199 $197 $201 $294 reversed $121 $-1 #
edge $-1 $212 -18.2506547422118 $296 18.2506547422118 $211 $347 forward 7 unknown #
vertex $-1 $294 $348 #
straight-curve $-1 -65.988341929380169 -41.244979304930894 0 0 0 -1 I I #
edge $-1 $292 -41.244979304930894 $296 41.244979304930894 $290 $349 forward 7 unknown #
straight-curve $-1 0 -41.244979304930894 -18.2506547422118 -1 0 0 I I #
vertex $-1 $204 $350 #
straight-curve $-1 0 41.244979304930894 -18.2506547422118 1 0 0 I I #
point $-1 65.988341929380169 41.244979304930894 -18.2506547422118 #
point $-1 65.988341929380169 -41.244979304930894 -18.2506547422118 #
straight-curve $-1 -65.988341929380169 0 18.2506547422118 0 -1 0 I I #
point $-1 -65.988341929380169 41.244979304930894 18.2506547422118 #
point $-1 -65.988341929380169 -41.244979304930894 18.2506547422118 #
straight-curve $-1 65.988341929380169 -41.244979304930894 0 0 0 -1 I I #
straight-curve $-1 65.988341929380169 41.244979304930894 0 0 0 -1 I I #
plane-surface $-1 0 41.244979304930894 0 0 -1 0 0 0 -1 forward_v I I I I #
coedge $-1 $316 $315 $227 $308 forward $222 $-1 #
straight-curve $-1 -43.500251316506152 -41.244979304930894 -7.8430990346392102 0 0 1 I I #
edge $-1 $311 -41.244979304930894 $309 41.244979304930894 $306 $351 forward 7 unknown #
vertex $-1 $228 $352 #
straight-curve $-1 -27.37214831147158 -41.244979304930894 -17.7506547422118 1 0 0 I I #
vertex $-1 $230 $353 #
straight-curve $-1 -27.37214831147158 41.244979304930894 -17.7506547422118 -1 0 0 I I #
point $-1 -43.500251316506152 41.244979304930894 -17.7506547422118 #
point $-1 -43.500251316506152 -41.244979304930894 -17.7506547422118 #
coedge $-1 $306 $234 $237 $318 forward $222 $-1 #
coedge $-1 $234 $306 $241 $320 reversed $222 $-1 #
straight-curve $-1 -65.988341929380169 0 -13.62174139634504 0 1 0 I I #
edge $-1 $239 13.62174139634504 $311 17.7506547422118 $237 $354 forward 7 unknown #
point $-1 -65.988341929380169 41.244979304930894 -13.62174139634504 #
edge $-1 $242 13.62174139634504 $309 17.7506547422118 $316 $355 forward 7 unknown #
point $-1 -65.988341929380169 -41.244979304930894 -13.62174139634504 #
straight-curve $-1 -43.500251316506152 41.244979304930894 -7.8430990346392102 0 0 -1 I I #
edge $-1 $324 20.905320010936677 $327 35.826925639023877 $248 $356 forward 7 unknown #
vertex $-1 $323 $357 #
straight-curve $-1 -8.933815008866933 -41.244979304930894 54.36626126933335 0 0 1 I I #
edge $-1 $327 -3.2563871888161593 $259 27.636791584182347 $258 $358 forward 7 unknown #
vertex $-1 $326 $359 #
straight-curve $-1 -8.933815008866933 -41.244979304930894 6.1673765065172006 0 -0.77714595512881146 -0.62932039886446345 I I #
point $-1 -8.933815008866933 -41.244979304930894 6.1673765065172006 #
point $-1 -39.82699378186544 -26.323373676843694 18.2506547422118 #
straight-curve $-1 0 -41.244979304930894 18.2506547422118 1 0 0 I I #
vertex $-1 $265 $360 #
point $-1 -21.880404395366185 -29.025189451071977 6.3321561817398919 #
coedge $-1 $335 $271 $341 $361 reversed $177 $-1 #
coedge $-1 $271 $334 $274 $339 reversed $177 $-1 #
edge $-1 $337 -37.078816907211603 $279 -20.740233137125529 $278 $362 forward 7 unknown #
vertex $-1 $273 $363 #
straight-curve $-1 65.988341929380169 9.7817643727844654 47.470773937035716 0 0.61566146476048833 -0.78801076186113728 I I #
edge $-1 $275 32.611022873611248 $343 41.244979304930894 $335 $364 forward 7 unknown #
point $-1 65.988341929380169 32.611022873611248 18.250654742211793 #
coedge $-1 $278 $277 $334 $361 forward $269 $-1 #
point $-1 49.649758159294095 41.244979304930887 7.1996941498237561 #
vertex $-1 $339 $365 #
straight-curve $-1 0 41.244979304930894 18.2506547422118 -1 0 0 I I #
vertex $-1 $285 $366 #
point $-1 59.319050044337132 34.218349837530006 10.608162928691627 #
straight-curve $-1 -65.988341929380169 41.244979304930894 0 0 0 -1 I I #
point $-1 -65.988341929380169 -41.244979304930894 -18.2506547422118 #
straight-curve $-1 -65.988341929380169 0 -18.2506547422118 0 1 0 I I #
point $-1 -65.988341929380169 41.244979304930894 -18.2506547422118 #
straight-curve $-1 -65.988341929380169 0 -17.7506547422118 0 -1 0 I I #
point $-1 -65.988341929380169 -41.244979304930894 -17.7506547422118 #
point $-1 -65.988341929380169 41.244979304930894 -17.7506547422118 #
straight-curve $-1 -65.988341929380169 41.244979304930894 0 0 0 -1 I I #
straight-curve $-1 -65.988341929380169 -41.244979304930894 0 0 0 -1 I I #
straight-curve $-1 -8.933815008866933 -62.150299315867571 18.2506547422118 0 1 0 I I #
point $-1 -8.933815008866933 -41.244979304930894 18.2506547422118 #
straight-curve $-1 -12.190202197683092 -26.323373676843694 18.2506547422118 -1 0 0 I I #
point $-1 -8.933815008866933 -26.323373676843694 18.2506547422118 #
point $-1 -24.380404395366185 -27.451888453910815 4.3892912939178625 #
edge $-1 $343 -18.2506547422118 $337 -7.1996941498237561 $334 $367 forward 7 unknown #
straight-curve $-1 28.909525022168566 41.244979304930894 7.1996941498237419 -1 0 0 I I #
point $-1 65.988341929380169 41.244979304930887 7.1996941498237561 #
straight-curve $-1 65.988341929380169 0 18.2506547422118 0 1 0 I I #
point $-1 65.988341929380169 41.244979304930894 18.2506547422118 #
point $-1 57.819050044337132 33.036333694738296 9.6846707315508951 #
straight-curve $-1 65.988341929380169 41.244979304930894 0 0 0 -1 I I #
End-of-ACIS-data 