500 0 3 0           
7 Unknown 11 ACIS 5.0 NT 24 Fri Mar 26 19:10:22 1999 
-1 9.9999999999999995e-007 1e-010 
body $-1 $3 $-1 $4 #
body $-1 $5 $-1 $6 #
body $-1 $7 $-1 $8 #
lump $-1 $-1 $9 $0 #
transform $-1 1 0 0 0 1 0 0 0 1 42.447584459974976 22.080205636356379 8.7611927122303257 1 rotate no_reflect no_shear #
lump $-1 $-1 $10 $1 #
transform $-1 1 0 0 0 1 0 0 0 1 42.447584459974976 22.080205636356379 8.7611927122303257 1 rotate no_reflect no_shear #
lump $-1 $-1 $11 $2 #
transform $-1 1 0 0 0 1 0 0 0 1 42.447584459974976 22.080205636356379 8.7611927122303257 1 rotate no_reflect no_shear #
shell $-1 $-1 $-1 $12 $-1 $3 #
shell $-1 $-1 $-1 $13 $-1 $5 #
shell $-1 $-1 $-1 $14 $-1 $7 #
face $-1 $15 $16 $9 $-1 $17 forward single #
face $-1 $18 $19 $10 $-1 $20 reversed single #
face $-1 $21 $22 $11 $-1 $23 forward single #
face $-1 $24 $25 $9 $-1 $26 reversed single #
loop $-1 $-1 $27 $12 #
plane-surface $-1 0 0 8.7611927122303257 0 0 1 1 0 0 forward_v I I I I #
face $-1 $28 $29 $10 $-1 $30 reversed single #
loop $-1 $-1 $31 $13 #
plane-surface $-1 -27.916024075140768 66.292886685297262 85.091605870527772 1 0 0 0 -0.81915205242281985 -0.57357642473473569 forward_v I I I I #
face $-1 $32 $33 $11 $-1 $34 forward single #
loop $-1 $35 $36 $14 #
cone-surface $-1 -16.320437867685644 16.943395167423951 2.9885255838267186 0 -0.81915205242281985 -0.57357642473473569 2.5 0 0 1 I I 0 1 2.5 forward I I I I #
face $-1 $37 $38 $9 $-1 $39 reversed single #
loop $-1 $-1 $40 $15 #
plane-surface $-1 0 0 -8.7611927122303257 0 0 1 1 0 0 forward_v I I I I #
coedge $-1 $41 $42 $43 $44 forward $16 $-1 #
face $-1 $45 $46 $10 $-1 $47 reversed single #
loop $-1 $-1 $48 $18 #
plane-surface $-1 -16.320437867685644 -3.2491651762617266 36.397738404171427 0 0.81915205242281985 0.57357642473473569 1 0 0 forward_v I I I I #
coedge $-1 $49 $50 $51 $52 reversed $19 $-1 #
face $-1 $-1 $53 $11 $-1 $54 forward single #
loop $-1 $55 $56 $21 #
cone-surface $-1 -16.320437867685644 13.771671519515561 0.76766084347338293 0 -0.81915205242281985 -0.57357642473473569 1.25 0 0 1 I I -0.70710678118654746 0.70710678118654746 1.25 forward I I I I #
loop $-1 $-1 $57 $14 #
coedge $-1 $36 $36 $58 $59 reversed $22 $-1 #
face $-1 $60 $61 $9 $-1 $62 reversed single #
loop $-1 $-1 $63 $24 #
plane-surface $-1 0 -22.080205636356379 0 0 1 0 0 0 1 forward_v I I I I #
coedge $-1 $64 $65 $66 $67 forward $25 $-1 #
coedge $-1 $68 $27 $69 $70 forward $16 $-1 #
coedge $-1 $27 $68 $71 $72 forward $16 $-1 #
coedge $-1 $73 $74 $27 $44 reversed $75 $-1 #
edge $-1 $76 -22.080205636356379 $77 22.080205636356379 $43 $78 forward 7 unknown #
face $-1 $79 $80 $10 $-1 $81 reversed single #
loop $-1 $-1 $82 $28 #
plane-surface $-1 -4.7248516602305202 66.292886685297262 85.091605870527772 -1 0 0 0 0.81915205242281985 0.57357642473473569 forward_v I I I I #
coedge $-1 $83 $84 $85 $86 reversed $29 $-1 #
coedge $-1 $50 $31 $87 $88 reversed $19 $-1 #
coedge $-1 $31 $49 $83 $89 reversed $19 $-1 #
coedge $-1 $85 $90 $31 $52 forward $91 $-1 #
edge $-1 $92 11.066237706292252 $93 17.044291479397383 $51 $94 forward 7 unknown #
loop $-1 $-1 $58 $32 #
plane-surface $-1 -16.320437867685644 -3.2491651762617266 36.397738404171427 0 0.81915205242281985 0.57357642473473569 1 0 0 forward_v I I I I #
loop $-1 $-1 $95 $21 #
coedge $-1 $56 $56 $57 $96 reversed $33 $-1 #
coedge $-1 $57 $57 $56 $96 forward $35 $-1 #
coedge $-1 $58 $58 $36 $59 forward $53 $-1 #
edge $-1 $97 1.7509589716403656e-016 $97 6.2831853071796004 $58 $98 forward 7 unknown #
face $-1 $99 $100 $9 $-1 $101 reversed single #
loop $-1 $-1 $102 $37 #
plane-surface $-1 -42.447584459974976 0 0 1 0 0 0 0 -1 forward_v I I I I #
coedge $-1 $103 $71 $104 $105 forward $38 $-1 #
coedge $-1 $106 $40 $103 $107 forward $25 $-1 #
coedge $-1 $40 $106 $108 $109 forward $25 $-1 #
coedge $-1 $74 $73 $40 $67 reversed $75 $-1 #
edge $-1 $110 -22.080205636356379 $111 22.080205636356379 $66 $112 forward 7 unknown #
coedge $-1 $42 $41 $113 $114 forward $16 $-1 #
coedge $-1 $115 $116 $41 $70 reversed $100 $-1 #
edge $-1 $77 -42.447584459974976 $117 42.447584459974976 $69 $118 forward 7 unknown #
coedge $-1 $63 $119 $42 $72 reversed $38 $-1 #
edge $-1 $120 -42.447584459974976 $76 42.447584459974976 $71 $121 forward 7 unknown #
coedge $-1 $66 $43 $119 $122 forward $75 $-1 #
coedge $-1 $43 $66 $115 $123 reversed $75 $-1 #
loop $-1 $-1 $73 $99 #
vertex $-1 $44 $124 #
vertex $-1 $44 $125 #
straight-curve $-1 42.447584459974976 0 8.7611927122303257 0 1 0 I I #
face $-1 $-1 $91 $10 $-1 $126 forward single #
loop $-1 $-1 $127 $45 #
plane-surface $-1 0 22.080205636356379 0 0 -1 0 0 0 -1 forward_v I I I I #
coedge $-1 $128 $129 $130 $131 reversed $46 $-1 #
coedge $-1 $132 $48 $50 $89 forward $29 $-1 #
coedge $-1 $48 $132 $128 $133 forward $29 $-1 #
coedge $-1 $130 $51 $48 $86 forward $91 $-1 #
edge $-1 $93 -19.755805141297948 $134 3.435367273612302 $85 $135 forward 7 unknown #
coedge $-1 $136 $137 $49 $88 forward $80 $-1 #
edge $-1 $138 -42.322156060970947 $92 -33.78461022303356 $87 $139 forward 7 unknown #
edge $-1 $93 33.737992366862812 $138 44.160411272712764 $50 $140 forward 7 unknown #
coedge $-1 $51 $130 $136 $141 forward $91 $-1 #
loop $-1 $-1 $130 $79 #
vertex $-1 $88 $142 #
vertex $-1 $52 $143 #
straight-curve $-1 -27.916024075140768 33.146443342648631 8.7611927122303257 0 -1 0 I I #
coedge $-1 $95 $95 $-1 $144 reversed $55 $-1 #
edge $-1 $145 0 $145 6.2831853071796004 $56 $146 forward 7 unknown #
vertex $-1 $59 $147 #
ellipse-curve $-1 -16.320437867685644 19.091178749803809 4.4924197932616305 0 0.81915205242281985 0.57357642473473569 2.5 0 0 1 I I #
face $-1 $-1 $75 $9 $-1 $148 reversed single #
loop $-1 $-1 $115 $60 #
plane-surface $-1 0 22.080205636356379 0 0 -1 0 0 0 -1 forward_v I I I I #
coedge $-1 $149 $113 $116 $150 forward $61 $-1 #
coedge $-1 $119 $63 $64 $107 reversed $38 $-1 #
coedge $-1 $113 $149 $63 $105 reversed $61 $-1 #
edge $-1 $120 -8.7611927122303257 $151 8.7611927122303257 $104 $152 forward 7 unknown #
coedge $-1 $65 $64 $149 $153 forward $25 $-1 #
edge $-1 $111 -42.447584459974976 $151 42.447584459974976 $103 $154 forward 7 unknown #
coedge $-1 $116 $115 $65 $109 reversed $100 $-1 #
edge $-1 $155 -42.447584459974976 $110 42.447584459974976 $108 $156 forward 7 unknown #
vertex $-1 $67 $157 #
vertex $-1 $122 $158 #
straight-curve $-1 42.447584459974976 0 -8.7611927122303257 0 -1 0 I I #
coedge $-1 $102 $104 $68 $114 reversed $61 $-1 #
edge $-1 $117 -22.080205636356379 $120 22.080205636356379 $113 $159 forward 7 unknown #
coedge $-1 $108 $69 $74 $123 forward $100 $-1 #
coedge $-1 $69 $108 $102 $150 reversed $100 $-1 #
vertex $-1 $70 $160 #
straight-curve $-1 0 22.080205636356379 8.7611927122303257 -1 0 0 I I #
coedge $-1 $71 $103 $73 $122 reversed $38 $-1 #
vertex $-1 $114 $161 #
straight-curve $-1 0 -22.080205636356379 8.7611927122303257 1 0 0 I I #
edge $-1 $76 -8.7611927122303257 $111 8.7611927122303257 $73 $162 forward 7 unknown #
edge $-1 $77 -8.7611927122303257 $110 8.7611927122303257 $74 $163 forward 7 unknown #
point $-1 42.447584459974976 -22.080205636356379 8.7611927122303257 #
point $-1 42.447584459974976 22.080205636356379 8.7611927122303257 #
plane-surface $-1 0 0 8.7611927122303257 0 0 1 1 0 0 forward_v I I I I #
coedge $-1 $137 $136 $129 $164 forward $80 $-1 #
coedge $-1 $129 $82 $84 $133 reversed $46 $-1 #
coedge $-1 $82 $128 $127 $164 reversed $46 $-1 #
coedge $-1 $90 $85 $82 $131 forward $91 $-1 #
edge $-1 $134 -17.044291479397383 $165 -11.066237706292252 $130 $166 forward 7 unknown #
coedge $-1 $84 $83 $137 $167 reversed $29 $-1 #
edge $-1 $168 -44.160411272712764 $134 -33.737992366862812 $128 $169 forward 7 unknown #
vertex $-1 $86 $170 #
straight-curve $-1 -8.1602189338428222 16.102151863251247 8.7611927122303257 1 0 0 I I #
coedge $-1 $127 $87 $90 $141 reversed $80 $-1 #
coedge $-1 $87 $127 $132 $167 forward $80 $-1 #
vertex $-1 $88 $171 #
straight-curve $-1 -27.916024075140768 22.080205636356379 42.545802935263886 0 0 1 I I #
straight-curve $-1 -27.916024075140768 -3.2491651762617266 36.397738404171427 0 0.57357642473473569 -0.81915205242281985 I I #
edge $-1 $165 4.7248516602305202 $92 27.916024075140768 $136 $172 forward 7 unknown #
point $-1 -27.916024075140768 22.080205636356379 8.7611927122303257 #
point $-1 -27.916024075140768 16.102151863251247 8.7611927122303257 #
edge $-1 $173 1 $173 0 $95 $-1 forward 7 unknown #
vertex $-1 $96 $174 #
ellipse-curve $-1 -16.320437867685644 14.795611585044085 1.4846313743918025 0 0.81915205242281985 0.57357642473473569 2.5 0 0 1 I I #
point $-1 -13.820437867685644 19.091178749803817 4.492419793261635 #
plane-surface $-1 42.447584459974976 0 0 -1 0 0 0 0 1 forward_v I I I I #
coedge $-1 $104 $102 $106 $153 reversed $61 $-1 #
edge $-1 $117 -8.7611927122303257 $155 8.7611927122303257 $116 $175 forward 7 unknown #
vertex $-1 $153 $176 #
straight-curve $-1 -42.447584459974976 -22.080205636356379 0 0 0 -1 I I #
edge $-1 $151 -22.080205636356379 $155 22.080205636356379 $149 $177 forward 7 unknown #
straight-curve $-1 0 -22.080205636356379 -8.7611927122303257 -1 0 0 I I #
vertex $-1 $109 $178 #
straight-curve $-1 0 22.080205636356379 -8.7611927122303257 1 0 0 I I #
point $-1 42.447584459974976 22.080205636356379 -8.7611927122303257 #
point $-1 42.447584459974976 -22.080205636356379 -8.7611927122303257 #
straight-curve $-1 -42.447584459974976 0 8.7611927122303257 0 -1 0 I I #
point $-1 -42.447584459974976 22.080205636356379 8.7611927122303257 #
point $-1 -42.447584459974976 -22.080205636356379 8.7611927122303257 #
straight-curve $-1 42.447584459974976 -22.080205636356379 0 0 0 -1 I I #
straight-curve $-1 42.447584459974976 22.080205636356379 0 0 0 -1 I I #
edge $-1 $165 33.78461022303356 $168 42.322156060970947 $127 $179 forward 7 unknown #
vertex $-1 $141 $180 #
straight-curve $-1 -4.7248516602305202 33.146443342648631 8.7611927122303257 0 1 0 I I #
edge $-1 $168 -3.435367273612302 $138 19.755805141297948 $137 $181 forward 7 unknown #
vertex $-1 $167 $182 #
straight-curve $-1 -4.7248516602305202 -3.2491651762617266 36.397738404171427 0 -0.57357642473473569 0.81915205242281985 I I #
point $-1 -4.7248516602305202 16.102151863251247 8.7611927122303257 #
point $-1 -27.916024075140768 22.080205636356379 0.22364687429293895 #
straight-curve $-1 0 22.080205636356379 8.7611927122303257 -1 0 0 I I #
vertex $-1 $144 $183 #
point $-1 -13.820437867685644 14.795611585044085 1.4846313743918025 #
straight-curve $-1 -42.447584459974976 22.080205636356379 0 0 0 -1 I I #
point $-1 -42.447584459974976 -22.080205636356379 -8.7611927122303257 #
straight-curve $-1 -42.447584459974976 0 -8.7611927122303257 0 1 0 I I #
point $-1 -42.447584459974976 22.080205636356379 -8.7611927122303257 #
straight-curve $-1 -4.7248516602305202 22.080205636356379 42.545802935263886 0 0 -1 I I #
point $-1 -4.7248516602305202 22.080205636356379 8.7611927122303257 #
straight-curve $-1 -8.1602189338428222 22.080205636356382 0.22364687429293539 -1 0 0 I I #
point $-1 -4.7248516602305202 22.080205636356379 0.22364687429293895 #
point $-1 -16.320437867685644 12.747731453987036 0.050690312554963368 #
End-of-ACIS-data 