500 0 5 0           
7 Unknown 11 ACIS 5.0 NT 24 Fri Mar 26 02:37:44 1999 
-1 9.9999999999999995e-007 1e-010 
body $-1 $5 $-1 $6 #
body $-1 $7 $-1 $8 #
body $-1 $9 $-1 $10 #
body $-1 $11 $-1 $12 #
body $-1 $13 $-1 $14 #
lump $-1 $-1 $15 $0 #
transform $-1 1 0 0 0 1 0 0 0 1 79.357890560625023 34.977825209288945 16.118279724956768 1 rotate no_reflect no_shear #
lump $-1 $-1 $16 $1 #
transform $-1 1 0 0 0 1 0 0 0 1 79.357890560625023 34.977825209288945 16.118279724956768 1 rotate no_reflect no_shear #
lump $-1 $-1 $17 $2 #
transform $-1 1 0 0 0 1 0 0 0 1 79.357890560625023 34.977825209288945 16.118279724956768 1 rotate no_reflect no_shear #
lump $-1 $-1 $18 $3 #
transform $-1 1 0 0 0 1 0 0 0 1 79.357890560625023 34.977825209288945 16.118279724956768 1 rotate no_reflect no_shear #
lump $-1 $-1 $19 $4 #
transform $-1 1 0 0 0 1 0 0 0 1 79.357890560625023 34.977825209288945 16.118279724956768 1 rotate no_reflect no_shear #
shell $-1 $-1 $-1 $20 $-1 $5 #
shell $-1 $-1 $-1 $21 $-1 $7 #
shell $-1 $-1 $-1 $22 $-1 $9 #
shell $-1 $-1 $-1 $23 $-1 $11 #
shell $-1 $-1 $-1 $24 $-1 $13 #
face $-1 $25 $26 $15 $-1 $27 forward single #
face $-1 $28 $29 $16 $-1 $30 reversed single #
face $-1 $31 $32 $17 $-1 $33 reversed single #
face $-1 $34 $35 $18 $-1 $36 forward single #
face $-1 $37 $38 $19 $-1 $39 forward single #
face $-1 $40 $41 $15 $-1 $42 reversed single #
loop $-1 $-1 $43 $20 #
plane-surface $-1 0 0 16.118279724956768 0 0 1 1 0 0 forward_v I I I I #
face $-1 $44 $45 $16 $-1 $46 reversed single #
loop $-1 $-1 $47 $21 #
plane-surface $-1 -77.668538222619745 -15.447706028748476 0 0 -1 0 0 0 -1 forward_v I I I I #
face $-1 $48 $49 $17 $-1 $50 reversed single #
loop $-1 $-1 $51 $22 #
plane-surface $-1 -204.4276341613668 -7.8294536461105153 98.879809436685861 0 1 0 -0.78801076186113728 0 0.61566146476048833 forward_v I I I I #
face $-1 $52 $53 $18 $-1 $54 forward single #
loop $-1 $55 $56 $23 #
cone-surface $-1 -72.6813844207459 -3.9391168100624512 7.9891023135479911 0.78801076186113728 0 -0.61566146476048833 0.61566146476048833 0 0.78801076186113728 1 I I 0 1 1 forward I I I I #
face $-1 $57 $58 $19 $-1 $59 forward single #
loop $-1 $60 $61 $24 #
cone-surface $-1 -72.6813844207459 1.896388444009645 7.9891023135479911 0.78801076186113728 0 -0.61566146476048833 0.61566146476048833 0 0.78801076186113728 1 I I 0 1 1 forward I I I I #
face $-1 $62 $63 $15 $-1 $64 reversed single #
loop $-1 $-1 $65 $25 #
plane-surface $-1 0 0 -16.118279724956768 0 0 1 1 0 0 forward_v I I I I #
coedge $-1 $66 $67 $68 $69 forward $26 $-1 #
face $-1 $70 $71 $16 $-1 $72 forward single #
loop $-1 $-1 $73 $28 #
plane-surface $-1 -75.979185884614466 -25.212765619018711 0 -1 0 0 0 0 1 forward_v I I I I #
coedge $-1 $74 $75 $76 $77 forward $29 $-1 #
face $-1 $78 $79 $17 $-1 $80 reversed single #
loop $-1 $-1 $81 $31 #
plane-surface $-1 -79.357890560625037 -1.0213641830263995 1.1646191509720012 -0.78801076186113728 0 0.61566146476048833 0.61566146476048833 0 0.78801076186113728 forward_v I I I I #
coedge $-1 $82 $83 $84 $85 reversed $32 $-1 #
face $-1 $-1 $86 $18 $-1 $87 forward single #
loop $-1 $88 $89 $34 #
cone-surface $-1 -71.452412773558493 -3.9391168100624512 7.0289244567513585 0.78801076186113728 0 -0.61566146476048833 0.30783073238024417 0 0.39400538093056864 1 I I -0.70710678118654746 0.70710678118654746 0.5 forward I I I I #
loop $-1 $-1 $90 $23 #
coedge $-1 $56 $56 $91 $92 reversed $35 $-1 #
face $-1 $-1 $93 $19 $-1 $94 forward single #
loop $-1 $95 $96 $37 #
cone-surface $-1 -71.452412773558493 1.896388444009645 7.0289244567513585 0.78801076186113728 0 -0.61566146476048833 0.30783073238024417 0 0.39400538093056864 1 I I -0.70710678118654746 0.70710678118654746 0.5 forward I I I I #
loop $-1 $-1 $97 $24 #
coedge $-1 $61 $61 $98 $99 reversed $38 $-1 #
face $-1 $100 $101 $15 $-1 $102 reversed single #
loop $-1 $-1 $103 $40 #
plane-surface $-1 0 -34.977825209288945 0 0 1 0 0 0 1 forward_v I I I I #
coedge $-1 $104 $105 $106 $107 forward $41 $-1 #
coedge $-1 $108 $43 $109 $110 forward $26 $-1 #
coedge $-1 $43 $108 $111 $112 forward $26 $-1 #
coedge $-1 $113 $114 $43 $69 reversed $115 $-1 #
edge $-1 $116 -34.977825209288945 $117 34.977825209288945 $68 $118 forward 7 unknown #
face $-1 $119 $120 $16 $-1 $121 reversed single #
loop $-1 $-1 $122 $44 #
plane-surface $-1 0 0 16.118279724956768 0 0 1 1 0 0 forward_v I I I I #
coedge $-1 $123 $124 $125 $126 reversed $45 $-1 #
coedge $-1 $127 $47 $128 $129 reversed $29 $-1 #
coedge $-1 $47 $127 $130 $131 reversed $29 $-1 #
coedge $-1 $124 $123 $47 $77 reversed $45 $-1 #
edge $-1 $132 -16.118279724956768 $133 16.118279724956768 $76 $134 forward 7 unknown #
face $-1 $135 $136 $17 $-1 $137 reversed single #
loop $-1 $-1 $138 $48 #
plane-surface $-1 -204.4276341613668 5.7867252800577162 98.879809436685861 0 -1 0 0.78801076186113728 0 -0.61566146476048833 forward_v I I I I #
coedge $-1 $139 $140 $141 $142 reversed $49 $-1 #
coedge $-1 $83 $51 $143 $144 reversed $32 $-1 #
coedge $-1 $51 $82 $139 $145 reversed $32 $-1 #
coedge $-1 $141 $146 $51 $85 forward $147 $-1 #
edge $-1 $148 22.855926520058375 $149 34.539006267302938 $84 $150 forward 7 unknown #
loop $-1 $-1 $91 $52 #
plane-surface $-1 -79.357890560625037 -1.0213641830263995 1.1646191509720012 -0.78801076186113728 0 0.61566146476048833 0.61566146476048833 0 0.78801076186113728 forward_v I I I I #
loop $-1 $-1 $151 $34 #
coedge $-1 $89 $89 $90 $152 reversed $53 $-1 #
coedge $-1 $90 $90 $89 $152 forward $55 $-1 #
coedge $-1 $91 $91 $56 $92 forward $86 $-1 #
edge $-1 $153 0 $153 6.2831853071796004 $91 $154 forward 7 unknown #
loop $-1 $-1 $98 $57 #
plane-surface $-1 -79.357890560625037 -1.0213641830263995 1.1646191509720012 -0.78801076186113728 0 0.61566146476048833 0.61566146476048833 0 0.78801076186113728 forward_v I I I I #
loop $-1 $-1 $155 $37 #
coedge $-1 $96 $96 $97 $156 reversed $58 $-1 #
coedge $-1 $97 $97 $96 $156 forward $60 $-1 #
coedge $-1 $98 $98 $61 $99 forward $93 $-1 #
edge $-1 $157 0 $157 6.2831853071796004 $98 $158 forward 7 unknown #
face $-1 $159 $160 $15 $-1 $161 reversed single #
loop $-1 $-1 $162 $62 #
plane-surface $-1 -79.357890560625023 0 0 1 0 0 0 0 -1 forward_v I I I I #
coedge $-1 $163 $111 $164 $165 forward $63 $-1 #
coedge $-1 $166 $65 $163 $167 forward $41 $-1 #
coedge $-1 $65 $166 $168 $169 forward $41 $-1 #
coedge $-1 $114 $113 $65 $107 reversed $115 $-1 #
edge $-1 $170 -34.977825209288945 $171 34.977825209288945 $106 $172 forward 7 unknown #
coedge $-1 $67 $66 $173 $174 forward $26 $-1 #
coedge $-1 $175 $176 $66 $110 reversed $160 $-1 #
edge $-1 $117 -79.357890560625023 $177 79.357890560625023 $109 $178 forward 7 unknown #
coedge $-1 $103 $179 $67 $112 reversed $63 $-1 #
edge $-1 $180 -79.357890560625023 $116 79.357890560625023 $111 $181 forward 7 unknown #
coedge $-1 $106 $68 $179 $182 forward $115 $-1 #
coedge $-1 $68 $106 $175 $183 reversed $115 $-1 #
loop $-1 $-1 $113 $159 #
vertex $-1 $69 $184 #
vertex $-1 $69 $185 #
straight-curve $-1 79.357890560625023 0 16.118279724956768 0 1 0 I I #
face $-1 $186 $187 $16 $-1 $188 reversed single #
loop $-1 $-1 $189 $70 #
plane-surface $-1 -79.357890560625023 0 0 1 0 0 0 0 -1 forward_v I I I I #
coedge $-1 $130 $190 $124 $191 forward $71 $-1 #
coedge $-1 $76 $73 $192 $193 reversed $45 $-1 #
coedge $-1 $73 $76 $122 $191 reversed $45 $-1 #
coedge $-1 $194 $195 $73 $126 forward $196 $-1 #
edge $-1 $197 -16.118279724956768 $198 16.118279724956768 $125 $199 forward 7 unknown #
coedge $-1 $75 $74 $189 $200 reversed $29 $-1 #
coedge $-1 $192 $201 $74 $129 forward $187 $-1 #
edge $-1 $202 -40.523621449315151 $133 -37.144916773304594 $128 $203 forward 7 unknown #
coedge $-1 $204 $122 $75 $131 forward $71 $-1 #
edge $-1 $132 37.144916773304594 $205 40.523621449315151 $130 $206 forward 7 unknown #
vertex $-1 $131 $207 #
vertex $-1 $129 $208 #
straight-curve $-1 -75.979185884614466 -15.447706028748476 0 0 0 -1 I I #
face $-1 $-1 $147 $17 $-1 $209 forward single #
loop $-1 $-1 $210 $78 #
plane-surface $-1 -79.357890560625023 0 0 1 0 0 0 0 -1 forward_v I I I I #
coedge $-1 $211 $212 $213 $214 reversed $79 $-1 #
coedge $-1 $215 $81 $83 $145 forward $49 $-1 #
coedge $-1 $81 $215 $211 $216 forward $49 $-1 #
coedge $-1 $213 $84 $81 $142 forward $147 $-1 #
edge $-1 $149 -7.3187715545973155 $217 6.297407371570916 $141 $218 forward 7 unknown #
coedge $-1 $219 $220 $82 $144 forward $136 $-1 #
edge $-1 $221 -48.275285567370908 $148 -33.321624993386166 $143 $222 forward 7 unknown #
edge $-1 $149 -18.976467451620778 $221 -2.3096905769578348e-014 $83 $223 forward 7 unknown #
coedge $-1 $84 $213 $219 $224 forward $147 $-1 #
loop $-1 $-1 $213 $135 #
vertex $-1 $144 $225 #
vertex $-1 $85 $226 #
straight-curve $-1 -102.2138170806834 -7.8294536461105153 16.118279724956771 1 0 0 I I #
coedge $-1 $151 $151 $-1 $227 reversed $88 $-1 #
edge $-1 $228 0 $228 6.2831853071796004 $89 $229 forward 7 unknown #
vertex $-1 $92 $230 #
ellipse-curve $-1 -73.516350687002742 -3.9391168100624512 8.6414494379643862 -0.78801076186113728 0 0.61566146476048833 0.61566146476048833 0 0.78801076186113728 1 I I #
coedge $-1 $155 $155 $-1 $231 reversed $95 $-1 #
edge $-1 $232 0 $232 6.2831853071796004 $96 $233 forward 7 unknown #
vertex $-1 $99 $234 #
ellipse-curve $-1 -73.516350687002742 1.896388444009645 8.6414494379643862 -0.78801076186113728 0 0.61566146476048833 0.61566146476048833 0 0.78801076186113728 1 I I #
face $-1 $-1 $115 $15 $-1 $235 reversed single #
loop $-1 $-1 $175 $100 #
plane-surface $-1 0 34.977825209288945 0 0 -1 0 0 0 -1 forward_v I I I I #
coedge $-1 $236 $173 $176 $237 forward $101 $-1 #
coedge $-1 $179 $103 $104 $167 reversed $63 $-1 #
coedge $-1 $173 $236 $103 $165 reversed $101 $-1 #
edge $-1 $180 -16.118279724956768 $238 16.118279724956768 $164 $239 forward 7 unknown #
coedge $-1 $105 $104 $236 $240 forward $41 $-1 #
edge $-1 $171 -79.357890560625023 $238 79.357890560625023 $163 $241 forward 7 unknown #
coedge $-1 $176 $175 $105 $169 reversed $160 $-1 #
edge $-1 $242 -79.357890560625023 $170 79.357890560625023 $168 $243 forward 7 unknown #
vertex $-1 $107 $244 #
vertex $-1 $182 $245 #
straight-curve $-1 79.357890560625023 0 -16.118279724956768 0 -1 0 I I #
coedge $-1 $162 $164 $108 $174 reversed $101 $-1 #
edge $-1 $177 -34.977825209288945 $180 34.977825209288945 $173 $246 forward 7 unknown #
coedge $-1 $168 $109 $114 $183 forward $160 $-1 #
coedge $-1 $109 $168 $162 $237 reversed $160 $-1 #
vertex $-1 $110 $247 #
straight-curve $-1 0 34.977825209288945 16.118279724956768 -1 0 0 I I #
coedge $-1 $111 $163 $113 $182 reversed $63 $-1 #
vertex $-1 $174 $248 #
straight-curve $-1 0 -34.977825209288945 16.118279724956768 1 0 0 I I #
edge $-1 $116 -16.118279724956768 $171 16.118279724956768 $113 $249 forward 7 unknown #
edge $-1 $117 -16.118279724956768 $170 16.118279724956768 $114 $250 forward 7 unknown #
point $-1 79.357890560625023 -34.977825209288945 16.118279724956768 #
point $-1 79.357890560625023 34.977825209288945 16.118279724956768 #
face $-1 $-1 $196 $16 $-1 $251 reversed single #
loop $-1 $-1 $192 $119 #
plane-surface $-1 0 0 -16.118279724956768 0 0 1 1 0 0 forward_v I I I I #
coedge $-1 $252 $253 $127 $200 forward $120 $-1 #
coedge $-1 $122 $204 $194 $254 forward $71 $-1 #
edge $-1 $198 -22.371442399779589 $132 -2.8413232192391202 $122 $255 forward 7 unknown #
coedge $-1 $256 $128 $123 $193 forward $187 $-1 #
edge $-1 $133 2.8413232192391202 $197 22.371442399779589 $192 $257 forward 7 unknown #
coedge $-1 $258 $125 $190 $254 reversed $196 $-1 #
coedge $-1 $125 $258 $256 $259 reversed $196 $-1 #
loop $-1 $-1 $125 $186 #
vertex $-1 $259 $260 #
vertex $-1 $126 $261 #
straight-curve $-1 -75.979185884614466 -34.977825209288945 0 0 0 1 I I #
edge $-1 $205 -16.118279724956768 $202 16.118279724956768 $189 $262 forward 7 unknown #
coedge $-1 $128 $256 $252 $263 forward $187 $-1 #
vertex $-1 $129 $264 #
straight-curve $-1 -38.834269111309872 -15.447706028748476 -16.118279724956768 1 0 0 I I #
coedge $-1 $190 $130 $253 $265 forward $71 $-1 #
vertex $-1 $265 $266 #
straight-curve $-1 -38.834269111309872 -15.447706028748476 16.118279724956768 -1 0 0 I I #
point $-1 -75.979185884614466 -15.447706028748476 16.118279724956768 #
point $-1 -75.979185884614466 -15.447706028748476 -16.118279724956768 #
plane-surface $-1 0 0 16.118279724956768 0 0 1 1 0 0 forward_v I I I I #
coedge $-1 $220 $219 $212 $267 forward $136 $-1 #
coedge $-1 $212 $138 $140 $216 reversed $79 $-1 #
coedge $-1 $138 $211 $210 $267 reversed $79 $-1 #
coedge $-1 $146 $141 $138 $214 forward $147 $-1 #
edge $-1 $217 -34.539006267302938 $268 -22.855926520058375 $213 $269 forward 7 unknown #
coedge $-1 $140 $139 $220 $270 reversed $49 $-1 #
edge $-1 $271 2.3096905769578348e-014 $217 18.976467451620778 $211 $272 forward 7 unknown #
vertex $-1 $142 $273 #
straight-curve $-1 -67.674810813380446 -0.51068209151319977 16.118279724956768 0 1 0 I I #
coedge $-1 $210 $143 $146 $224 reversed $136 $-1 #
coedge $-1 $143 $210 $215 $270 forward $136 $-1 #
vertex $-1 $144 $274 #
straight-curve $-1 -79.357890560625023 -7.8294536461105153 49.43990471834293 0 0 1 I I #
straight-curve $-1 -79.357890560625037 -7.8294536461105153 1.1646191509720012 -0.61566146476048833 0 -0.78801076186113728 I I #
edge $-1 $268 -5.7867252800577162 $148 7.8294536461105153 $219 $275 forward 7 unknown #
point $-1 -79.357890560625023 -7.8294536461105153 16.118279724956768 #
point $-1 -67.674810813380461 -7.8294536461105153 16.118279724956768 #
edge $-1 $276 1 $276 0 $151 $-1 forward 7 unknown #
vertex $-1 $152 $277 #
ellipse-curve $-1 -71.846418154489058 -3.9391168100624512 7.336755189131603 -0.78801076186113728 0 0.61566146476048833 0.61566146476048833 0 0.78801076186113728 1 I I #
point $-1 -72.900689222242249 -3.9391168100624512 9.4294601998255168 #
edge $-1 $278 1 $278 0 $155 $-1 forward 7 unknown #
vertex $-1 $156 $279 #
ellipse-curve $-1 -71.846418154489058 1.896388444009645 7.336755189131603 -0.78801076186113728 0 0.61566146476048833 0.61566146476048833 0 0.78801076186113728 1 I I #
point $-1 -72.900689222242249 1.896388444009645 9.4294601998255168 #
plane-surface $-1 79.357890560625023 0 0 -1 0 0 0 0 1 forward_v I I I I #
coedge $-1 $164 $162 $166 $240 reversed $101 $-1 #
edge $-1 $177 -16.118279724956768 $242 16.118279724956768 $176 $280 forward 7 unknown #
vertex $-1 $240 $281 #
straight-curve $-1 -79.357890560625023 -34.977825209288945 0 0 0 -1 I I #
edge $-1 $238 -34.977825209288945 $242 34.977825209288945 $236 $282 forward 7 unknown #
straight-curve $-1 0 -34.977825209288945 -16.118279724956768 -1 0 0 I I #
vertex $-1 $169 $283 #
straight-curve $-1 0 34.977825209288945 -16.118279724956768 1 0 0 I I #
point $-1 79.357890560625023 34.977825209288945 -16.118279724956768 #
point $-1 79.357890560625023 -34.977825209288945 -16.118279724956768 #
straight-curve $-1 -79.357890560625023 0 16.118279724956768 0 -1 0 I I #
point $-1 -79.357890560625023 34.977825209288945 16.118279724956768 #
point $-1 -79.357890560625023 -34.977825209288945 16.118279724956768 #
straight-curve $-1 79.357890560625023 -34.977825209288945 0 0 0 -1 I I #
straight-curve $-1 79.357890560625023 34.977825209288945 0 0 0 -1 I I #
plane-surface $-1 0 -34.977825209288945 0 0 1 0 0 0 1 forward_v I I I I #
coedge $-1 $284 $189 $201 $263 reversed $120 $-1 #
coedge $-1 $189 $284 $204 $265 reversed $120 $-1 #
edge $-1 $285 -79.357890560625023 $198 -75.979185884614466 $194 $286 forward 7 unknown #
straight-curve $-1 -75.979185884614466 -12.606382809509356 16.118279724956768 0 1 0 I I #
coedge $-1 $201 $192 $195 $259 forward $187 $-1 #
straight-curve $-1 -75.979185884614466 -12.606382809509356 -16.118279724956768 0 -1 0 I I #
coedge $-1 $195 $194 $284 $287 forward $196 $-1 #
edge $-1 $197 75.979185884614466 $288 79.357890560625023 $195 $289 forward 7 unknown #
point $-1 -75.979185884614466 -34.977825209288945 -16.118279724956768 #
point $-1 -75.979185884614466 -34.977825209288945 16.118279724956768 #
straight-curve $-1 -79.357890560625023 -15.447706028748476 0 0 0 -1 I I #
edge $-1 $288 -34.977825209288945 $202 -15.447706028748476 $252 $290 forward 7 unknown #
point $-1 -79.357890560625023 -15.447706028748476 -16.118279724956768 #
edge $-1 $205 15.447706028748476 $285 34.977825209288945 $253 $291 forward 7 unknown #
point $-1 -79.357890560625023 -15.447706028748476 16.118279724956768 #
edge $-1 $268 33.321624993386166 $271 48.275285567370908 $210 $292 forward 7 unknown #
vertex $-1 $224 $293 #
straight-curve $-1 -102.2138170806834 5.7867252800577162 16.118279724956771 -1 0 0 I I #
edge $-1 $271 -6.297407371570916 $221 7.3187715545973155 $220 $294 forward 7 unknown #
vertex $-1 $270 $295 #
straight-curve $-1 -79.357890560625037 5.7867252800577162 1.1646191509720012 0.61566146476048833 0 0.78801076186113728 I I #
point $-1 -67.674810813380461 5.7867252800577162 16.118279724956768 #
point $-1 -79.357890560625023 -7.8294536461105153 1.1646191509720194 #
straight-curve $-1 -79.357890560625023 0 16.118279724956768 0 -1 0 I I #
vertex $-1 $227 $296 #
point $-1 -71.23075668972858 -3.9391168100624512 8.1247659509927406 #
vertex $-1 $231 $297 #
point $-1 -71.23075668972858 1.896388444009645 8.1247659509927406 #
straight-curve $-1 -79.357890560625023 34.977825209288945 0 0 0 -1 I I #
point $-1 -79.357890560625023 -34.977825209288945 -16.118279724956768 #
straight-curve $-1 -79.357890560625023 0 -16.118279724956768 0 1 0 I I #
point $-1 -79.357890560625023 34.977825209288945 -16.118279724956768 #
coedge $-1 $253 $252 $258 $287 reversed $120 $-1 #
vertex $-1 $265 $298 #
straight-curve $-1 0 -34.977825209288945 16.118279724956768 1 0 0 I I #
edge $-1 $285 -16.118279724956768 $288 16.118279724956768 $284 $299 forward 7 unknown #
vertex $-1 $263 $300 #
straight-curve $-1 0 -34.977825209288945 -16.118279724956768 -1 0 0 I I #
straight-curve $-1 -79.357890560625023 0 -16.118279724956768 0 1 0 I I #
straight-curve $-1 -79.357890560625023 0 16.118279724956768 0 -1 0 I I #
straight-curve $-1 -79.357890560625023 5.7867252800577162 49.43990471834293 0 0 -1 I I #
point $-1 -79.357890560625023 5.7867252800577162 16.118279724956768 #
straight-curve $-1 -79.357890560625023 -0.51068209151319977 1.1646191509720227 0 -1 0 I I #
point $-1 -79.357890560625023 5.7867252800577162 1.1646191509720194 #
point $-1 -71.058407392627927 -3.9391168100624512 6.721093724371114 #
point $-1 -71.058407392627927 1.896388444009645 6.721093724371114 #
point $-1 -79.357890560625023 -34.977825209288945 16.118279724956768 #
straight-curve $-1 -79.357890560625023 -34.977825209288945 0 0 0 -1 I I #
point $-1 -79.357890560625023 -34.977825209288945 -16.118279724956768 #
End-of-ACIS-data 