500 0 4 0           
7 Unknown 11 ACIS 5.0 NT 24 Thu Mar 25 18:31:09 1999 
-1 9.9999999999999995e-007 1e-010 
body $-1 $4 $-1 $5 #
body $-1 $6 $-1 $7 #
body $-1 $8 $-1 $9 #
body $-1 $10 $-1 $11 #
lump $-1 $-1 $12 $0 #
transform $-1 1 0 0 0 1 0 0 0 1 66.370433668019658 43.406429712074981 18.056979381856564 1 rotate no_reflect no_shear #
lump $-1 $-1 $13 $1 #
transform $-1 1 0 0 0 1 0 0 0 1 66.370433668019658 43.406429712074981 18.056979381856564 1 rotate no_reflect no_shear #
lump $-1 $-1 $14 $2 #
transform $-1 1 0 0 0 1 0 0 0 1 66.370433668019658 43.406429712074981 18.056979381856564 1 rotate no_reflect no_shear #
lump $-1 $-1 $15 $3 #
transform $-1 1 0 0 0 1 0 0 0 1 66.370433668019658 43.406429712074981 18.056979381856564 1 rotate no_reflect no_shear #
shell $-1 $-1 $-1 $16 $-1 $4 #
shell $-1 $-1 $-1 $17 $-1 $6 #
shell $-1 $-1 $-1 $18 $-1 $8 #
shell $-1 $-1 $-1 $19 $-1 $10 #
face $-1 $20 $21 $12 $-1 $22 forward single #
face $-1 $23 $24 $13 $-1 $25 forward single #
face $-1 $26 $27 $14 $-1 $28 reversed single #
face $-1 $29 $30 $15 $-1 $31 forward single #
face $-1 $32 $33 $12 $-1 $34 reversed single #
loop $-1 $-1 $35 $16 #
plane-surface $-1 0 0 18.056979381856564 0 0 1 1 0 0 forward_v I I I I #
face $-1 $36 $37 $13 $-1 $38 reversed single #
loop $-1 $-1 $39 $17 #
plane-surface $-1 0 -43.406429712074981 0 0 1 0 0 0 1 forward_v I I I I #
face $-1 $40 $41 $14 $-1 $42 reversed single #
loop $-1 $-1 $43 $18 #
plane-surface $-1 -172.38200504871025 13.793149685261611 86.998303655611153 0 1 0 -0.79863551827123203 0 0.60181501223851219 forward_v I I I I #
face $-1 $44 $45 $15 $-1 $46 forward single #
loop $-1 $47 $48 $19 #
cone-surface $-1 -58.746270862126863 24.456612635547941 9.9469749153335023 0.79863551827123203 0 -0.60181501223851219 1.8054450367155366 0 2.395906554813696 1 I I 0 1 3 forward I I I I #
face $-1 $49 $50 $12 $-1 $51 reversed single #
loop $-1 $-1 $52 $20 #
plane-surface $-1 0 0 -18.056979381856564 0 0 1 1 0 0 forward_v I I I I #
coedge $-1 $53 $54 $55 $56 forward $21 $-1 #
face $-1 $57 $58 $13 $-1 $59 reversed single #
loop $-1 $-1 $60 $23 #
plane-surface $-1 0 0 -18.056979381856564 0 0 1 1 0 0 forward_v I I I I #
coedge $-1 $61 $62 $63 $64 forward $24 $-1 #
face $-1 $65 $66 $14 $-1 $67 reversed single #
loop $-1 $-1 $68 $26 #
plane-surface $-1 -66.370433668019643 24.456612635547941 7.112856955221929 -0.79863551827123203 0 0.60181501223851219 0.60181501223851219 0 0.79863551827123203 forward_v I I I I #
coedge $-1 $69 $70 $71 $72 reversed $27 $-1 #
face $-1 $-1 $73 $15 $-1 $74 forward single #
loop $-1 $75 $76 $29 #
cone-surface $-1 -54.047648551294294 24.456612635547941 6.4063091437699775 0.79863551827123203 0 -0.60181501223851219 0.90272251835776829 0 1.197953277406848 1 I I -0.70710678118654757 0.70710678118654757 1.5 forward I I I I #
loop $-1 $-1 $77 $19 #
coedge $-1 $48 $48 $78 $79 reversed $30 $-1 #
face $-1 $80 $81 $12 $-1 $82 reversed single #
loop $-1 $-1 $83 $32 #
plane-surface $-1 0 -43.406429712074981 0 0 1 0 0 0 1 forward_v I I I I #
coedge $-1 $84 $85 $86 $87 forward $33 $-1 #
coedge $-1 $88 $35 $89 $90 forward $21 $-1 #
coedge $-1 $35 $88 $91 $92 forward $21 $-1 #
coedge $-1 $93 $94 $35 $56 reversed $95 $-1 #
edge $-1 $96 -43.406429712074981 $97 43.406429712074981 $55 $98 forward 7 unknown #
face $-1 $99 $100 $13 $-1 $101 reversed single #
loop $-1 $-1 $102 $36 #
plane-surface $-1 -36.41253319812634 -55.448060390110044 0 0 1 0 0 0 1 forward_v I I I I #
coedge $-1 $103 $104 $62 $105 forward $37 $-1 #
coedge $-1 $106 $39 $107 $108 reversed $24 $-1 #
coedge $-1 $39 $106 $60 $105 reversed $24 $-1 #
coedge $-1 $109 $110 $39 $64 reversed $100 $-1 #
edge $-1 $111 -18.056979381856564 $112 18.056979381856564 $63 $113 forward 7 unknown #
face $-1 $114 $115 $14 $-1 $116 reversed single #
loop $-1 $-1 $117 $40 #
plane-surface $-1 -172.38200504871025 35.120075585834272 86.998303655611153 0 -1 0 0.79863551827123203 0 -0.60181501223851219 forward_v I I I I #
coedge $-1 $118 $119 $120 $121 reversed $41 $-1 #
coedge $-1 $70 $43 $122 $123 reversed $27 $-1 #
coedge $-1 $43 $69 $118 $124 reversed $27 $-1 #
coedge $-1 $120 $125 $43 $72 forward $126 $-1 #
edge $-1 $127 19.82056885633547 $128 28.067556401269655 $71 $129 forward 7 unknown #
loop $-1 $-1 $78 $44 #
plane-surface $-1 -66.370433668019643 24.456612635547941 7.112856955221929 -0.79863551827123203 0 0.60181501223851219 0.60181501223851219 0 0.79863551827123203 forward_v I I I I #
loop $-1 $-1 $130 $29 #
coedge $-1 $76 $76 $77 $131 reversed $45 $-1 #
coedge $-1 $77 $77 $76 $131 forward $47 $-1 #
coedge $-1 $78 $78 $48 $79 forward $73 $-1 #
edge $-1 $132 0 $132 6.2831853071796004 $78 $133 forward 7 unknown #
face $-1 $134 $135 $12 $-1 $136 reversed single #
loop $-1 $-1 $137 $49 #
plane-surface $-1 -66.370433668019658 0 0 1 0 0 0 0 -1 forward_v I I I I #
coedge $-1 $138 $91 $139 $140 forward $50 $-1 #
coedge $-1 $141 $52 $138 $142 forward $33 $-1 #
coedge $-1 $52 $141 $143 $144 forward $33 $-1 #
coedge $-1 $94 $93 $52 $87 reversed $95 $-1 #
edge $-1 $145 -43.406429712074981 $146 43.406429712074981 $86 $147 forward 7 unknown #
coedge $-1 $54 $53 $148 $149 forward $21 $-1 #
coedge $-1 $150 $151 $53 $90 reversed $135 $-1 #
edge $-1 $97 -66.370433668019658 $152 66.370433668019658 $89 $153 forward 7 unknown #
coedge $-1 $83 $154 $54 $92 reversed $50 $-1 #
edge $-1 $155 -66.370433668019658 $96 66.370433668019658 $91 $156 forward 7 unknown #
coedge $-1 $86 $55 $154 $157 forward $95 $-1 #
coedge $-1 $55 $86 $150 $158 reversed $95 $-1 #
loop $-1 $-1 $93 $134 #
vertex $-1 $56 $159 #
vertex $-1 $56 $160 #
straight-curve $-1 66.370433668019658 0 18.056979381856564 0 1 0 I I #
face $-1 $161 $162 $13 $-1 $163 reversed single #
loop $-1 $-1 $63 $57 #
plane-surface $-1 -41.287702713110029 -49.427245051092513 0 1 0 0 0 0 -1 forward_v I I I I #
coedge $-1 $164 $165 $166 $167 forward $58 $-1 #
coedge $-1 $168 $60 $169 $170 forward $37 $-1 #
coedge $-1 $60 $168 $109 $171 forward $37 $-1 #
edge $-1 $111 -41.287702713110029 $172 -31.537363683142651 $60 $173 forward 7 unknown #
coedge $-1 $62 $61 $174 $175 forward $24 $-1 #
coedge $-1 $176 $177 $61 $108 forward $178 $-1 #
edge $-1 $179 31.537363683142651 $112 41.287702713110029 $107 $180 forward 7 unknown #
coedge $-1 $166 $63 $104 $171 reversed $100 $-1 #
coedge $-1 $63 $166 $176 $181 reversed $100 $-1 #
vertex $-1 $105 $182 #
vertex $-1 $181 $183 #
straight-curve $-1 -41.287702713110029 -43.406429712074981 0 0 0 1 I I #
face $-1 $-1 $126 $14 $-1 $184 forward single #
loop $-1 $-1 $185 $65 #
plane-surface $-1 -66.370433668019658 0 0 1 0 0 0 0 -1 forward_v I I I I #
coedge $-1 $186 $187 $188 $189 reversed $66 $-1 #
coedge $-1 $190 $68 $70 $124 forward $41 $-1 #
coedge $-1 $68 $190 $186 $191 forward $41 $-1 #
coedge $-1 $188 $71 $68 $121 forward $126 $-1 #
edge $-1 $128 1.5648433674876401 $192 22.891769268060301 $120 $193 forward 7 unknown #
coedge $-1 $194 $195 $69 $123 forward $115 $-1 #
edge $-1 $196 -36.386294872583669 $127 -25.442172445949012 $122 $197 forward 7 unknown #
edge $-1 $128 -13.703525796504582 $196 2.3448253187574213e-014 $70 $198 forward 7 unknown #
coedge $-1 $71 $188 $194 $199 forward $126 $-1 #
loop $-1 $-1 $188 $114 #
vertex $-1 $123 $200 #
vertex $-1 $72 $201 #
straight-curve $-1 -86.191002524355127 13.793149685261611 18.056979381856564 1 0 0 I I #
coedge $-1 $130 $130 $-1 $202 reversed $75 $-1 #
edge $-1 $203 0 $203 6.2831853071796004 $76 $204 forward 7 unknown #
vertex $-1 $79 $205 #
ellipse-curve $-1 -62.246939895552558 24.456612635547941 12.584918168539243 -0.79863551827123203 0 0.60181501223851219 1.8054450367155366 0 2.395906554813696 1 I I #
face $-1 $-1 $95 $12 $-1 $206 reversed single #
loop $-1 $-1 $150 $80 #
plane-surface $-1 0 43.406429712074981 0 0 -1 0 0 0 -1 forward_v I I I I #
coedge $-1 $207 $148 $151 $208 forward $81 $-1 #
coedge $-1 $154 $83 $84 $142 reversed $50 $-1 #
coedge $-1 $148 $207 $83 $140 reversed $81 $-1 #
edge $-1 $155 -18.056979381856564 $209 18.056979381856564 $139 $210 forward 7 unknown #
coedge $-1 $85 $84 $207 $211 forward $33 $-1 #
edge $-1 $146 -66.370433668019658 $209 66.370433668019658 $138 $212 forward 7 unknown #
coedge $-1 $151 $150 $85 $144 reversed $135 $-1 #
edge $-1 $213 -66.370433668019658 $145 66.370433668019658 $143 $214 forward 7 unknown #
vertex $-1 $87 $215 #
vertex $-1 $157 $216 #
straight-curve $-1 66.370433668019658 0 -18.056979381856564 0 -1 0 I I #
coedge $-1 $137 $139 $88 $149 reversed $81 $-1 #
edge $-1 $152 -43.406429712074981 $155 43.406429712074981 $148 $217 forward 7 unknown #
coedge $-1 $143 $89 $94 $158 forward $135 $-1 #
coedge $-1 $89 $143 $137 $208 reversed $135 $-1 #
vertex $-1 $90 $218 #
straight-curve $-1 0 43.406429712074981 18.056979381856564 -1 0 0 I I #
coedge $-1 $91 $138 $93 $157 reversed $50 $-1 #
vertex $-1 $149 $219 #
straight-curve $-1 0 -43.406429712074981 18.056979381856564 1 0 0 I I #
edge $-1 $96 -18.056979381856564 $146 18.056979381856564 $93 $220 forward 7 unknown #
edge $-1 $97 -18.056979381856564 $145 18.056979381856564 $94 $221 forward 7 unknown #
point $-1 66.370433668019658 -43.406429712074981 18.056979381856564 #
point $-1 66.370433668019658 43.406429712074981 18.056979381856564 #
face $-1 $-1 $178 $13 $-1 $222 forward single #
loop $-1 $-1 $223 $99 #
plane-surface $-1 -31.537363683142651 -49.427245051092513 0 -1 0 0 0 0 1 forward_v I I I I #
coedge $-1 $224 $102 $168 $225 reversed $58 $-1 #
coedge $-1 $102 $224 $226 $227 reversed $58 $-1 #
coedge $-1 $110 $109 $102 $167 reversed $100 $-1 #
edge $-1 $228 -18.056979381856564 $229 18.056979381856564 $166 $230 forward 7 unknown #
coedge $-1 $104 $103 $164 $225 forward $37 $-1 #
coedge $-1 $174 $223 $103 $170 reversed $162 $-1 #
edge $-1 $172 -6.0208153390175312 $231 6.0208153390175312 $169 $232 forward 7 unknown #
edge $-1 $229 -6.0208153390175312 $111 6.0208153390175312 $109 $233 forward 7 unknown #
vertex $-1 $170 $234 #
straight-curve $-1 0 -43.406429712074981 -18.056979381856564 1 0 0 I I #
coedge $-1 $235 $169 $106 $175 reversed $162 $-1 #
edge $-1 $179 -18.056979381856564 $172 18.056979381856564 $174 $236 forward 7 unknown #
coedge $-1 $226 $107 $110 $181 forward $178 $-1 #
coedge $-1 $107 $226 $235 $237 forward $178 $-1 #
loop $-1 $-1 $107 $161 #
vertex $-1 $108 $238 #
straight-curve $-1 0 -43.406429712074981 18.056979381856564 -1 0 0 I I #
edge $-1 $112 -6.0208153390175312 $228 6.0208153390175312 $110 $239 forward 7 unknown #
point $-1 -41.287702713110029 -43.406429712074981 -18.056979381856564 #
point $-1 -41.287702713110029 -43.406429712074981 18.056979381856564 #
plane-surface $-1 0 0 18.056979381856564 0 0 1 1 0 0 forward_v I I I I #
coedge $-1 $195 $194 $187 $240 forward $115 $-1 #
coedge $-1 $187 $117 $119 $191 reversed $66 $-1 #
coedge $-1 $117 $186 $185 $240 reversed $66 $-1 #
coedge $-1 $125 $120 $117 $189 forward $126 $-1 #
edge $-1 $192 -28.067556401269655 $241 -19.82056885633547 $188 $242 forward 7 unknown #
coedge $-1 $119 $118 $195 $243 reversed $41 $-1 #
edge $-1 $244 -2.3448253187574213e-014 $192 13.703525796504582 $186 $245 forward 7 unknown #
vertex $-1 $121 $246 #
straight-curve $-1 -58.123446123085472 12.228306317773971 18.056979381856564 0 1 0 I I #
coedge $-1 $185 $122 $125 $199 reversed $115 $-1 #
coedge $-1 $122 $185 $190 $243 forward $115 $-1 #
vertex $-1 $123 $247 #
straight-curve $-1 -66.370433668019658 13.793149685261611 43.499151827805576 0 0 1 I I #
straight-curve $-1 -66.370433668019643 13.793149685261611 7.112856955221929 -0.60181501223851219 0 -0.79863551827123203 I I #
edge $-1 $241 -35.120075585834272 $127 -13.793149685261611 $194 $248 forward 7 unknown #
point $-1 -66.370433668019658 13.793149685261611 18.056979381856564 #
point $-1 -58.123446123085472 13.793149685261611 18.056979381856564 #
edge $-1 $249 1 $249 0 $130 $-1 forward 7 unknown #
vertex $-1 $131 $250 #
ellipse-curve $-1 -55.24560182870114 24.456612635547941 7.3090316621277456 -0.79863551827123203 0 0.60181501223851219 1.8054450367155366 0 2.395906554813696 1 I I #
point $-1 -60.441494858837046 24.456612635547941 14.980824723352955 #
plane-surface $-1 66.370433668019658 0 0 -1 0 0 0 0 1 forward_v I I I I #
coedge $-1 $139 $137 $141 $211 reversed $81 $-1 #
edge $-1 $152 -18.056979381856564 $213 18.056979381856564 $151 $251 forward 7 unknown #
vertex $-1 $211 $252 #
straight-curve $-1 -66.370433668019658 -43.406429712074981 0 0 0 -1 I I #
edge $-1 $209 -43.406429712074981 $213 43.406429712074981 $207 $253 forward 7 unknown #
straight-curve $-1 0 -43.406429712074981 -18.056979381856564 -1 0 0 I I #
vertex $-1 $144 $254 #
straight-curve $-1 0 43.406429712074981 -18.056979381856564 1 0 0 I I #
point $-1 66.370433668019658 43.406429712074981 -18.056979381856564 #
point $-1 66.370433668019658 -43.406429712074981 -18.056979381856564 #
straight-curve $-1 -66.370433668019658 0 18.056979381856564 0 -1 0 I I #
point $-1 -66.370433668019658 43.406429712074981 18.056979381856564 #
point $-1 -66.370433668019658 -43.406429712074981 18.056979381856564 #
straight-curve $-1 66.370433668019658 -43.406429712074981 0 0 0 -1 I I #
straight-curve $-1 66.370433668019658 43.406429712074981 0 0 0 -1 I I #
plane-surface $-1 0 0 18.056979381856564 0 0 1 1 0 0 forward_v I I I I #
coedge $-1 $169 $235 $224 $255 forward $162 $-1 #
coedge $-1 $165 $164 $223 $255 reversed $58 $-1 #
edge $-1 $231 -4.8751695149836891 $229 4.8751695149836891 $164 $256 forward 7 unknown #
coedge $-1 $177 $176 $165 $227 forward $178 $-1 #
edge $-1 $228 -4.8751695149836891 $257 4.8751695149836891 $165 $258 forward 7 unknown #
vertex $-1 $181 $259 #
vertex $-1 $171 $260 #
straight-curve $-1 -41.287702713110029 -55.448060390110044 0 0 0 -1 I I #
vertex $-1 $255 $261 #
straight-curve $-1 -31.537363683142651 -49.427245051092513 -18.056979381856564 0 -1 0 I I #
straight-curve $-1 -41.287702713110029 -49.427245051092513 -18.056979381856564 0 1 0 I I #
point $-1 -31.537363683142651 -43.406429712074981 -18.056979381856564 #
coedge $-1 $223 $174 $177 $237 reversed $162 $-1 #
straight-curve $-1 -31.537363683142651 -43.406429712074981 0 0 0 -1 I I #
edge $-1 $257 -6.0208153390175312 $179 6.0208153390175312 $235 $262 forward 7 unknown #
point $-1 -31.537363683142651 -43.406429712074981 18.056979381856564 #
straight-curve $-1 -41.287702713110029 -49.427245051092513 18.056979381856564 0 -1 0 I I #
edge $-1 $241 25.442172445949012 $244 36.386294872583669 $185 $263 forward 7 unknown #
vertex $-1 $199 $264 #
straight-curve $-1 -86.191002524355127 35.120075585834272 18.056979381856564 -1 0 0 I I #
edge $-1 $244 -22.891769268060301 $196 -1.5648433674876401 $195 $265 forward 7 unknown #
vertex $-1 $243 $266 #
straight-curve $-1 -66.370433668019643 35.120075585834272 7.112856955221929 0.60181501223851219 0 0.79863551827123203 I I #
point $-1 -58.123446123085472 35.120075585834272 18.056979381856564 #
point $-1 -66.370433668019658 13.793149685261611 7.1128569552219103 #
straight-curve $-1 -66.370433668019658 0 18.056979381856564 0 -1 0 I I #
vertex $-1 $202 $267 #
point $-1 -53.440156791985608 24.456612635547941 9.7049382169414429 #
straight-curve $-1 -66.370433668019658 43.406429712074981 0 0 0 -1 I I #
point $-1 -66.370433668019658 -43.406429712074981 -18.056979381856564 #
straight-curve $-1 -66.370433668019658 0 -18.056979381856564 0 1 0 I I #
point $-1 -66.370433668019658 43.406429712074981 -18.056979381856564 #
edge $-1 $257 -18.056979381856564 $231 18.056979381856564 $223 $268 forward 7 unknown #
straight-curve $-1 -36.41253319812634 -55.448060390110044 -18.056979381856564 -1 0 0 I I #
vertex $-1 $237 $269 #
straight-curve $-1 -36.41253319812634 -55.448060390110044 18.056979381856564 1 0 0 I I #
point $-1 -41.287702713110029 -55.448060390110044 18.056979381856564 #
point $-1 -41.287702713110029 -55.448060390110044 -18.056979381856564 #
point $-1 -31.537363683142651 -55.448060390110044 -18.056979381856564 #
straight-curve $-1 -31.537363683142651 -49.427245051092513 18.056979381856564 0 1 0 I I #
straight-curve $-1 -66.370433668019658 35.120075585834272 43.499151827805576 0 0 -1 I I #
point $-1 -66.370433668019658 35.120075585834272 18.056979381856564 #
straight-curve $-1 -66.370433668019658 12.228306317773971 7.1128569552218934 0 -1 0 I I #
point $-1 -66.370433668019658 35.120075585834272 7.1128569552219103 #
point $-1 -52.849695273887448 24.456612635547941 5.5035866254122094 #
straight-curve $-1 -31.537363683142651 -55.448060390110044 0 0 0 -1 I I #
point $-1 -31.537363683142651 -55.448060390110044 18.056979381856564 #
End-of-ACIS-data 