500 0 8 0           
7 Unknown 11 ACIS 5.0 NT 24 Fri Mar 26 00:40:05 1999 
-1 9.9999999999999995e-007 1e-010 
body $-1 $8 $-1 $9 #
body $-1 $10 $-1 $11 #
body $-1 $12 $-1 $13 #
body $-1 $14 $-1 $15 #
body $-1 $16 $-1 $17 #
body $-1 $18 $-1 $19 #
body $-1 $20 $-1 $21 #
body $-1 $22 $-1 $23 #
lump $-1 $-1 $24 $0 #
transform $-1 1 0 0 0 1 0 0 0 1 57.396771141697442 35.8045356965129 11.227394141303764 1 rotate no_reflect no_shear #
lump $-1 $-1 $25 $1 #
transform $-1 1 0 0 0 1 0 0 0 1 57.396771141697442 35.8045356965129 11.227394141303764 1 rotate no_reflect no_shear #
lump $-1 $-1 $26 $2 #
transform $-1 1 0 0 0 1 0 0 0 1 57.396771141697442 35.8045356965129 11.227394141303764 1 rotate no_reflect no_shear #
lump $-1 $-1 $27 $3 #
transform $-1 1 0 0 0 1 0 0 0 1 57.396771141697442 35.8045356965129 11.227394141303764 1 rotate no_reflect no_shear #
lump $-1 $-1 $28 $4 #
transform $-1 1 0 0 0 1 0 0 0 1 57.396771141697442 35.8045356965129 11.227394141303764 1 rotate no_reflect no_shear #
lump $-1 $-1 $29 $5 #
transform $-1 1 0 0 0 1 0 0 0 1 57.396771141697442 35.8045356965129 11.227394141303764 1 rotate no_reflect no_shear #
lump $-1 $-1 $30 $6 #
transform $-1 1 0 0 0 1 0 0 0 1 57.396771141697442 35.8045356965129 11.227394141303764 1 rotate no_reflect no_shear #
lump $-1 $-1 $31 $7 #
transform $-1 1 0 0 0 1 0 0 0 1 57.396771141697442 35.8045356965129 11.227394141303764 1 rotate no_reflect no_shear #
shell $-1 $-1 $-1 $32 $-1 $8 #
shell $-1 $-1 $-1 $33 $-1 $10 #
shell $-1 $-1 $-1 $34 $-1 $12 #
shell $-1 $-1 $-1 $35 $-1 $14 #
shell $-1 $-1 $-1 $36 $-1 $16 #
shell $-1 $-1 $-1 $37 $-1 $18 #
shell $-1 $-1 $-1 $38 $-1 $20 #
shell $-1 $-1 $-1 $39 $-1 $22 #
face $-1 $40 $41 $24 $-1 $42 forward single #
face $-1 $43 $44 $25 $-1 $45 forward single #
face $-1 $46 $47 $26 $-1 $48 reversed single #
face $-1 $49 $50 $27 $-1 $51 forward single #
face $-1 $52 $53 $28 $-1 $54 forward single #
face $-1 $55 $56 $29 $-1 $57 reversed single #
face $-1 $58 $59 $30 $-1 $60 forward single #
face $-1 $61 $62 $31 $-1 $63 forward single #
face $-1 $64 $65 $24 $-1 $66 reversed single #
loop $-1 $-1 $67 $32 #
plane-surface $-1 0 0 11.227394141303764 0 0 1 1 0 0 forward_v I I I I #
face $-1 $68 $69 $25 $-1 $70 reversed single #
loop $-1 $-1 $71 $33 #
plane-surface $-1 0 -31.512989607799128 3.2565676216661208 0 0 1 1 0 0 forward_v I I I I #
face $-1 $72 $73 $26 $-1 $74 reversed single #
loop $-1 $-1 $75 $34 #
plane-surface $-1 29.206278650858707 0.68969379531024799 164.18791579177082 0 1 0 0.57357644374324357 0 0.81915203911291934 forward_v I I I I #
face $-1 $76 $77 $27 $-1 $78 forward single #
loop $-1 $79 $80 $35 #
cone-surface $-1 52.158290732053224 2.6455218054632539 7.3408802387958856 -0.57357644374324357 0 -0.81915203911291934 0.40957601955645967 0 -0.28678822187162178 1 I I 0 1 0.5 forward I I I I #
face $-1 $81 $82 $28 $-1 $83 forward single #
loop $-1 $84 $85 $36 #
cone-surface $-1 52.158290732053224 5.5792638206927663 7.3408802387958856 -0.57357644374324357 0 -0.81915203911291934 0.40957601955645967 0 -0.28678822187162178 1 I I 0 1 0.5 forward I I I I #
face $-1 $86 $87 $29 $-1 $88 reversed single #
loop $-1 $-1 $89 $37 #
plane-surface $-1 -123.23964288929673 25.098755560519422 99.500801215484756 0 1 0 -0.57357644374324357 0 0.81915203911291934 forward_v I I I I #
face $-1 $90 $91 $30 $-1 $92 forward single #
loop $-1 $93 $94 $38 #
cone-surface $-1 -52.448354463964826 28.15754988508899 7.1543677503860383 0.57357644374324357 0 -0.81915203911291934 1.228728058669379 0 0.86036466561486535 1 I I 0 1 1.5 forward I I I I #
face $-1 $95 $96 $31 $-1 $97 forward single #
loop $-1 $98 $99 $39 #
cone-surface $-1 -52.448354463964826 32.745741371943339 7.1543677503860383 0.57357644374324357 0 -0.81915203911291934 1.228728058669379 0 0.86036466561486535 1 I I 0 1 1.5 forward I I I I #
face $-1 $100 $101 $24 $-1 $102 reversed single #
loop $-1 $-1 $103 $40 #
plane-surface $-1 0 0 -11.227394141303764 0 0 1 1 0 0 forward_v I I I I #
coedge $-1 $104 $105 $106 $107 forward $41 $-1 #
face $-1 $108 $109 $25 $-1 $110 reversed single #
loop $-1 $-1 $111 $43 #
plane-surface $-1 0 -31.512989607799128 -2.8037650354962578 0 0 1 1 0 0 forward_v I I I I #
coedge $-1 $112 $113 $114 $115 reversed $44 $-1 #
face $-1 $116 $117 $26 $-1 $118 reversed single #
loop $-1 $-1 $119 $46 #
plane-surface $-1 -36.636593096740597 4.1123928130780101 70.15455155333278 0.57357644374324357 0 0.81915203911291934 0.81915203911291934 0 -0.57357644374324357 forward_v I I I I #
coedge $-1 $120 $121 $122 $123 reversed $47 $-1 #
face $-1 $-1 $124 $27 $-1 $125 forward single #
loop $-1 $126 $127 $49 #
cone-surface $-1 51.714747938395334 2.6455218054632539 6.7074354942949324 -0.57357644374324357 0 -0.81915203911291934 0.20478800977822983 0 -0.14339411093581089 1 I I -0.70710678118654746 0.70710678118654746 0.25 forward I I I I #
loop $-1 $-1 $128 $35 #
coedge $-1 $80 $80 $129 $130 reversed $50 $-1 #
face $-1 $-1 $131 $28 $-1 $132 forward single #
loop $-1 $133 $134 $52 #
cone-surface $-1 51.714747938395334 5.5792638206927663 6.7074354942949324 -0.57357644374324357 0 -0.81915203911291934 0.20478800977822983 0 -0.14339411093581089 1 I I -0.70710678118654746 0.70710678118654746 0.25 forward I I I I #
loop $-1 $-1 $135 $36 #
coedge $-1 $85 $85 $136 $137 reversed $53 $-1 #
face $-1 $138 $139 $29 $-1 $140 forward single #
loop $-1 $-1 $141 $55 #
plane-surface $-1 -57.396771141697428 30.451645628516161 5.4674369770467166 -0.57357644374324357 0 0.81915203911291934 0.81915203911291934 0 0.57357644374324357 forward_v I I I I #
coedge $-1 $142 $143 $144 $145 reversed $56 $-1 #
face $-1 $-1 $146 $30 $-1 $147 forward single #
loop $-1 $148 $149 $58 #
cone-surface $-1 -51.182791045953692 28.15754988508899 5.3469559122621515 0.57357644374324357 0 -0.81915203911291934 0.61436402933468948 0 0.43018233280743268 1 I I -0.70710678118654757 0.70710678118654757 0.75 forward I I I I #
loop $-1 $-1 $150 $38 #
coedge $-1 $94 $94 $151 $152 reversed $59 $-1 #
face $-1 $-1 $153 $31 $-1 $154 forward single #
loop $-1 $155 $156 $61 #
cone-surface $-1 -51.182791045953692 32.745741371943339 5.3469559122621515 0.57357644374324357 0 -0.81915203911291934 0.61436402933468948 0 0.43018233280743268 1 I I -0.70710678118654757 0.70710678118654757 0.75 forward I I I I #
loop $-1 $-1 $157 $39 #
coedge $-1 $99 $99 $158 $159 reversed $62 $-1 #
face $-1 $160 $161 $24 $-1 $162 reversed single #
loop $-1 $-1 $163 $64 #
plane-surface $-1 0 -35.8045356965129 0 0 1 0 0 0 1 forward_v I I I I #
coedge $-1 $164 $165 $166 $167 forward $65 $-1 #
coedge $-1 $168 $67 $169 $170 forward $41 $-1 #
coedge $-1 $67 $168 $171 $172 forward $41 $-1 #
coedge $-1 $173 $174 $67 $107 reversed $175 $-1 #
edge $-1 $176 -35.8045356965129 $177 35.8045356965129 $106 $178 forward 7 unknown #
face $-1 $179 $180 $25 $-1 $181 reversed single #
loop $-1 $-1 $182 $68 #
plane-surface $-1 0 -27.221443519085355 0.22640129308493151 0 -1 0 0 0 -1 forward_v I I I I #
coedge $-1 $183 $184 $185 $186 reversed $69 $-1 #
coedge $-1 $187 $71 $188 $189 forward $44 $-1 #
coedge $-1 $71 $187 $190 $191 reversed $44 $-1 #
coedge $-1 $192 $193 $71 $115 forward $194 $-1 #
edge $-1 $195 11.464948715185791 $196 20.048040892613336 $114 $197 forward 7 unknown #
face $-1 $198 $199 $26 $-1 $200 forward single #
loop $-1 $-1 $201 $72 #
plane-surface $-1 29.206278650858707 7.5350918308457722 164.18791579177082 0 -1 0 -0.57357644374324357 0 -0.81915203911291934 forward_v I I I I #
coedge $-1 $202 $203 $204 $205 reversed $73 $-1 #
coedge $-1 $121 $75 $206 $207 reversed $47 $-1 #
coedge $-1 $75 $120 $202 $208 reversed $47 $-1 #
coedge $-1 $204 $209 $75 $123 forward $210 $-1 #
edge $-1 $211 70.866563754581648 $212 77.78227809015192 $122 $213 forward 7 unknown #
loop $-1 $-1 $129 $76 #
plane-surface $-1 -36.636593096740597 4.1123928130780101 70.15455155333278 0.57357644374324357 0 0.81915203911291934 0.81915203911291934 0 -0.57357644374324357 forward_v I I I I #
loop $-1 $-1 $214 $49 #
coedge $-1 $127 $127 $128 $215 reversed $77 $-1 #
coedge $-1 $128 $128 $127 $215 forward $79 $-1 #
coedge $-1 $129 $129 $80 $130 forward $124 $-1 #
edge $-1 $216 0 $216 6.2831853071796004 $129 $217 forward 7 unknown #
loop $-1 $-1 $136 $81 #
plane-surface $-1 -36.636593096740597 4.1123928130780101 70.15455155333278 0.57357644374324357 0 0.81915203911291934 0.81915203911291934 0 -0.57357644374324357 forward_v I I I I #
loop $-1 $-1 $218 $52 #
coedge $-1 $134 $134 $135 $219 reversed $82 $-1 #
coedge $-1 $135 $135 $134 $219 forward $84 $-1 #
coedge $-1 $136 $136 $85 $137 forward $131 $-1 #
edge $-1 $220 0 $220 6.2831853071796004 $136 $221 forward 7 unknown #
face $-1 $222 $223 $29 $-1 $224 reversed single #
loop $-1 $-1 $144 $86 #
plane-surface $-1 0 0 11.227394141303764 0 0 1 1 0 0 forward_v I I I I #
coedge $-1 $225 $226 $227 $228 reversed $87 $-1 #
coedge $-1 $143 $89 $229 $230 reversed $56 $-1 #
coedge $-1 $89 $142 $225 $231 reversed $56 $-1 #
coedge $-1 $227 $232 $89 $145 forward $139 $-1 #
edge $-1 $233 4.2230503029509237 $234 12.44912148800875 $144 $235 forward 7 unknown #
loop $-1 $-1 $151 $90 #
plane-surface $-1 -57.396771141697428 30.451645628516161 5.4674369770467166 -0.57357644374324357 0 0.81915203911291934 0.81915203911291934 0 0.57357644374324357 forward_v I I I I #
loop $-1 $-1 $236 $58 #
coedge $-1 $149 $149 $150 $237 reversed $91 $-1 #
coedge $-1 $150 $150 $149 $237 forward $93 $-1 #
coedge $-1 $151 $151 $94 $152 forward $146 $-1 #
edge $-1 $238 0 $238 6.2831853071796004 $151 $239 forward 7 unknown #
loop $-1 $-1 $158 $95 #
plane-surface $-1 -57.396771141697428 30.451645628516161 5.4674369770467166 -0.57357644374324357 0 0.81915203911291934 0.81915203911291934 0 0.57357644374324357 forward_v I I I I #
loop $-1 $-1 $240 $61 #
coedge $-1 $156 $156 $157 $241 reversed $96 $-1 #
coedge $-1 $157 $157 $156 $241 forward $98 $-1 #
coedge $-1 $158 $158 $99 $159 forward $153 $-1 #
edge $-1 $242 0 $242 6.2831853071796004 $158 $243 forward 7 unknown #
face $-1 $244 $245 $24 $-1 $246 reversed single #
loop $-1 $-1 $247 $100 #
plane-surface $-1 -57.396771141697442 0 0 1 0 0 0 0 -1 forward_v I I I I #
coedge $-1 $248 $171 $249 $250 forward $101 $-1 #
coedge $-1 $251 $103 $248 $252 forward $65 $-1 #
coedge $-1 $103 $251 $253 $254 forward $65 $-1 #
coedge $-1 $174 $173 $103 $167 reversed $175 $-1 #
edge $-1 $255 -35.8045356965129 $256 35.8045356965129 $166 $257 forward 7 unknown #
coedge $-1 $105 $104 $258 $259 forward $41 $-1 #
coedge $-1 $260 $261 $104 $170 reversed $245 $-1 #
edge $-1 $177 -57.396771141697442 $262 57.396771141697442 $169 $263 forward 7 unknown #
coedge $-1 $163 $264 $105 $172 reversed $101 $-1 #
edge $-1 $265 -57.396771141697442 $176 57.396771141697442 $171 $266 forward 7 unknown #
coedge $-1 $166 $106 $264 $267 forward $175 $-1 #
coedge $-1 $106 $166 $260 $268 reversed $175 $-1 #
loop $-1 $-1 $173 $244 #
vertex $-1 $107 $269 #
vertex $-1 $107 $270 #
straight-curve $-1 57.396771141697442 0 11.227394141303764 0 1 0 I I #
face $-1 $271 $272 $25 $-1 $273 reversed single #
loop $-1 $-1 $274 $108 #
plane-surface $-1 -57.396771141697442 0 0 1 0 0 0 0 -1 forward_v I I I I #
coedge $-1 $275 $188 $193 $276 reversed $109 $-1 #
coedge $-1 $277 $111 $278 $279 reversed $69 $-1 #
coedge $-1 $111 $277 $275 $280 forward $69 $-1 #
coedge $-1 $193 $192 $111 $186 forward $194 $-1 #
edge $-1 $281 -20.048040892613336 $282 -11.464948715185791 $185 $283 forward 7 unknown #
coedge $-1 $113 $112 $274 $284 reversed $44 $-1 #
coedge $-1 $182 $285 $112 $189 reversed $109 $-1 #
edge $-1 $195 -57.396771141697442 $286 57.396771141697442 $188 $287 forward 7 unknown #
coedge $-1 $288 $289 $113 $191 forward $272 $-1 #
edge $-1 $196 -57.396771141697442 $290 57.396771141697442 $190 $291 forward 7 unknown #
coedge $-1 $185 $114 $289 $292 forward $194 $-1 #
coedge $-1 $114 $185 $182 $276 forward $194 $-1 #
loop $-1 $-1 $114 $271 #
vertex $-1 $115 $293 #
vertex $-1 $292 $294 #
straight-curve $-1 57.396771141697442 -15.756494803899564 3.2565676216661208 0 -1 0 I I #
face $-1 $-1 $210 $26 $-1 $295 reversed single #
loop $-1 $-1 $296 $116 #
plane-surface $-1 0 0 11.227394141303764 0 0 1 1 0 0 forward_v I I I I #
coedge $-1 $297 $298 $299 $300 reversed $117 $-1 #
coedge $-1 $301 $119 $121 $208 forward $73 $-1 #
coedge $-1 $119 $301 $297 $302 forward $73 $-1 #
coedge $-1 $299 $122 $119 $205 forward $210 $-1 #
edge $-1 $212 -1.366502611228757 $303 5.4788954243067671 $204 $304 forward 7 unknown #
coedge $-1 $305 $306 $120 $207 forward $199 $-1 #
edge $-1 $307 32.916968362423844 $211 42.793631816268089 $206 $308 forward 7 unknown #
edge $-1 $212 -114.79354228339487 $307 -102.73636244100575 $121 $309 forward 7 unknown #
coedge $-1 $122 $299 $305 $310 reversed $210 $-1 #
loop $-1 $-1 $299 $198 #
vertex $-1 $310 $311 #
vertex $-1 $123 $312 #
straight-curve $-1 57.396771141697442 0.68969379531024799 82.09395789588541 0 0 -1 I I #
coedge $-1 $214 $214 $-1 $313 reversed $126 $-1 #
edge $-1 $314 0 $314 6.2831853071796004 $127 $315 forward 7 unknown #
vertex $-1 $130 $316 #
ellipse-curve $-1 52.45843941477532 2.6455218054632539 7.7695369735186306 0.57357644374324357 0 0.81915203911291934 0.40957601955645967 0 -0.28678822187162178 1 I I #
coedge $-1 $218 $218 $-1 $317 reversed $133 $-1 #
edge $-1 $318 0 $318 6.2831853071796004 $134 $319 forward 7 unknown #
vertex $-1 $137 $320 #
ellipse-curve $-1 52.45843941477532 5.5792638206927663 7.7695369735186306 0.57357644374324357 0 0.81915203911291934 0.40957601955645967 0 -0.28678822187162178 1 I I #
face $-1 $-1 $321 $29 $-1 $322 reversed single #
loop $-1 $-1 $323 $138 #
plane-surface $-1 0 35.8045356965129 0 0 -1 0 0 0 -1 forward_v I I I I #
coedge $-1 $324 $141 $143 $231 forward $87 $-1 #
coedge $-1 $141 $324 $323 $325 reversed $87 $-1 #
coedge $-1 $326 $144 $141 $228 forward $139 $-1 #
edge $-1 $234 9.8729327462613412 $327 20.57871288225482 $227 $328 forward 7 unknown #
coedge $-1 $329 $330 $142 $230 forward $321 $-1 #
edge $-1 $331 -44.282963630695669 $233 -38.523006466438616 $229 $332 forward 7 unknown #
edge $-1 $234 -10.04217873151611 $331 1.7244671030687178e-014 $143 $333 forward 7 unknown #
coedge $-1 $144 $326 $329 $334 forward $139 $-1 #
vertex $-1 $230 $335 #
vertex $-1 $145 $336 #
straight-curve $-1 -61.619821444648366 25.098755560519422 11.227394141303762 1 0 0 I I #
coedge $-1 $236 $236 $-1 $337 reversed $148 $-1 #
edge $-1 $338 0 $338 6.2831853071796004 $149 $339 forward 7 unknown #
vertex $-1 $152 $340 #
ellipse-curve $-1 -53.283735549168526 28.15754988508899 8.3474155591752357 -0.57357644374324357 0 0.81915203911291934 1.228728058669379 0 0.86036466561486535 1 I I #
coedge $-1 $240 $240 $-1 $341 reversed $155 $-1 #
edge $-1 $342 0 $342 6.2831853071796004 $156 $343 forward 7 unknown #
vertex $-1 $159 $344 #
ellipse-curve $-1 -53.283735549168526 32.745741371943339 8.3474155591752357 -0.57357644374324357 0 0.81915203911291934 1.228728058669379 0 0.86036466561486535 1 I I #
face $-1 $-1 $175 $24 $-1 $345 reversed single #
loop $-1 $-1 $260 $160 #
plane-surface $-1 0 35.8045356965129 0 0 -1 0 0 0 -1 forward_v I I I I #
coedge $-1 $346 $258 $261 $347 forward $161 $-1 #
coedge $-1 $264 $163 $164 $252 reversed $101 $-1 #
coedge $-1 $258 $346 $163 $250 reversed $161 $-1 #
edge $-1 $265 -11.227394141303764 $348 11.227394141303764 $249 $349 forward 7 unknown #
coedge $-1 $165 $164 $346 $350 forward $65 $-1 #
edge $-1 $256 -57.396771141697442 $348 57.396771141697442 $248 $351 forward 7 unknown #
coedge $-1 $261 $260 $165 $254 reversed $245 $-1 #
edge $-1 $352 -57.396771141697442 $255 57.396771141697442 $253 $353 forward 7 unknown #
vertex $-1 $167 $354 #
vertex $-1 $267 $355 #
straight-curve $-1 57.396771141697442 0 -11.227394141303764 0 -1 0 I I #
coedge $-1 $247 $249 $168 $259 reversed $161 $-1 #
edge $-1 $262 -35.8045356965129 $265 35.8045356965129 $258 $356 forward 7 unknown #
coedge $-1 $253 $169 $174 $268 forward $245 $-1 #
coedge $-1 $169 $253 $247 $347 reversed $245 $-1 #
vertex $-1 $170 $357 #
straight-curve $-1 0 35.8045356965129 11.227394141303764 -1 0 0 I I #
coedge $-1 $171 $248 $173 $267 reversed $101 $-1 #
vertex $-1 $259 $358 #
straight-curve $-1 0 -35.8045356965129 11.227394141303764 1 0 0 I I #
edge $-1 $176 -11.227394141303764 $256 11.227394141303764 $173 $359 forward 7 unknown #
edge $-1 $177 -11.227394141303764 $255 11.227394141303764 $174 $360 forward 7 unknown #
point $-1 57.396771141697442 -35.8045356965129 11.227394141303764 #
point $-1 57.396771141697442 35.8045356965129 11.227394141303764 #
face $-1 $-1 $194 $25 $-1 $361 reversed single #
loop $-1 $-1 $190 $179 #
plane-surface $-1 0 -35.8045356965129 0 0 1 0 0 0 1 forward_v I I I I #
coedge $-1 $362 $363 $187 $284 forward $180 $-1 #
coedge $-1 $285 $182 $184 $280 reversed $109 $-1 #
edge $-1 $282 -2.9169656820387235 $195 3.143366975123655 $193 $364 forward 7 unknown #
coedge $-1 $184 $183 $365 $366 reversed $69 $-1 #
coedge $-1 $289 $288 $183 $279 forward $272 $-1 #
edge $-1 $367 -57.396771141697442 $281 57.396771141697442 $278 $368 forward 7 unknown #
edge $-1 $369 -57.396771141697442 $282 57.396771141697442 $275 $370 forward 7 unknown #
vertex $-1 $279 $371 #
vertex $-1 $186 $372 #
straight-curve $-1 57.396771141697442 -15.756494803899564 -2.8037650354962578 0 1 0 I I #
edge $-1 $290 -20.048040892613336 $286 -11.464948715185791 $274 $373 forward 7 unknown #
coedge $-1 $188 $275 $362 $374 reversed $109 $-1 #
vertex $-1 $284 $375 #
straight-curve $-1 0 -27.221443519085355 3.2565676216661208 -1 0 0 I I #
coedge $-1 $278 $190 $363 $376 forward $272 $-1 #
coedge $-1 $190 $278 $192 $292 reversed $272 $-1 #
vertex $-1 $376 $377 #
straight-curve $-1 0 -35.8045356965129 3.2565676216661208 -1 0 0 I I #
edge $-1 $196 -3.2565676216661208 $281 2.8037650354962578 $192 $378 forward 7 unknown #
point $-1 57.396771141697442 -27.221443519085355 3.2565676216661208 #
point $-1 57.396771141697442 -35.8045356965129 3.2565676216661208 #
plane-surface $-1 57.396771141697442 0 0 -1 0 0 0 0 1 forward_v I I I I #
coedge $-1 $306 $305 $298 $379 forward $199 $-1 #
coedge $-1 $298 $201 $203 $302 reversed $117 $-1 #
coedge $-1 $201 $297 $296 $379 reversed $117 $-1 #
coedge $-1 $209 $204 $201 $300 forward $210 $-1 #
edge $-1 $303 -77.78227809015192 $380 -70.866563754581648 $299 $381 forward 7 unknown #
coedge $-1 $203 $202 $306 $382 reversed $73 $-1 #
edge $-1 $383 102.73636244100575 $303 114.79354228339487 $297 $384 forward 7 unknown #
vertex $-1 $205 $385 #
straight-curve $-1 57.396771141697442 2.056196406539005 4.3116798057334904 0 1 0 I I #
coedge $-1 $296 $206 $209 $310 forward $199 $-1 #
coedge $-1 $206 $296 $301 $382 forward $199 $-1 #
vertex $-1 $207 $386 #
straight-curve $-1 14.603139325429353 0.68969379531024799 11.227394141303762 1 0 0 I I #
straight-curve $-1 -36.636593096740597 0.68969379531024799 70.15455155333278 -0.81915203911291934 0 0.57357644374324357 I I #
edge $-1 $211 0.68969379531024799 $380 7.5350918308457722 $209 $387 forward 7 unknown #
point $-1 57.396771141697442 0.68969379531024799 11.227394141303764 #
point $-1 57.396771141697442 0.68969379531024799 4.3116798057334904 #
edge $-1 $388 1 $388 0 $214 $-1 forward 7 unknown #
vertex $-1 $215 $389 #
ellipse-curve $-1 51.858142049331143 2.6455218054632539 6.9122235040731619 0.57357644374324357 0 0.81915203911291934 0.40957601955645967 0 -0.28678822187162178 1 I I #
point $-1 52.868015434331767 2.6455218054632539 7.4827487516469864 #
edge $-1 $390 1 $390 0 $218 $-1 forward 7 unknown #
vertex $-1 $219 $391 #
ellipse-curve $-1 51.858142049331143 5.5792638206927663 6.9122235040731619 0.57357644374324357 0 0.81915203911291934 0.40957601955645967 0 -0.28678822187162178 1 I I #
point $-1 52.868015434331767 5.5792638206927663 7.4827487516469864 #
loop $-1 $-1 $229 $222 #
plane-surface $-1 -57.396771141697442 0 0 1 0 0 0 0 -1 forward_v I I I I #
coedge $-1 $392 $393 $226 $325 forward $223 $-1 #
coedge $-1 $226 $225 $330 $394 reversed $87 $-1 #
edge $-1 $327 11.898165799251011 $395 21.940344530767138 $323 $396 forward 7 unknown #
coedge $-1 $232 $227 $393 $397 forward $139 $-1 #
vertex $-1 $397 $398 #
straight-curve $-1 -49.170699956639609 15.22582281425808 11.227394141303765 0 1 0 I I #
coedge $-1 $399 $229 $232 $334 reversed $321 $-1 #
coedge $-1 $229 $399 $324 $394 forward $321 $-1 #
vertex $-1 $230 $400 #
straight-curve $-1 -57.396771141697442 25.098755560519422 49.750400607742378 0 0 1 I I #
straight-curve $-1 -57.396771141697428 25.098755560519422 5.4674369770467166 -0.81915203911291934 0 -0.57357644374324357 I I #
edge $-1 $401 -35.8045356965129 $233 -25.098755560519422 $329 $402 forward 7 unknown #
point $-1 -57.396771141697442 25.098755560519422 11.227394141303764 #
point $-1 -49.170699956639616 25.098755560519422 11.227394141303764 #
edge $-1 $403 1 $403 0 $236 $-1 forward 7 unknown #
vertex $-1 $237 $404 #
ellipse-curve $-1 -51.612973378761126 28.15754988508899 5.961319941596841 -0.57357644374324357 0 0.81915203911291934 1.228728058669379 0 0.86036466561486535 1 I I #
point $-1 -52.05500749049915 28.15754988508899 9.2077802247901008 #
edge $-1 $405 1 $405 0 $240 $-1 forward 7 unknown #
vertex $-1 $241 $406 #
ellipse-curve $-1 -51.612973378761126 32.745741371943339 5.961319941596841 -0.57357644374324357 0 0.81915203911291934 1.228728058669379 0 0.86036466561486535 1 I I #
point $-1 -52.05500749049915 32.745741371943339 9.2077802247901008 #
plane-surface $-1 57.396771141697442 0 0 -1 0 0 0 0 1 forward_v I I I I #
coedge $-1 $249 $247 $251 $350 reversed $161 $-1 #
edge $-1 $262 -11.227394141303764 $352 11.227394141303764 $261 $407 forward 7 unknown #
vertex $-1 $350 $408 #
straight-curve $-1 -57.396771141697442 -35.8045356965129 0 0 0 -1 I I #
edge $-1 $348 -35.8045356965129 $352 35.8045356965129 $346 $409 forward 7 unknown #
straight-curve $-1 0 -35.8045356965129 -11.227394141303764 -1 0 0 I I #
vertex $-1 $254 $410 #
straight-curve $-1 0 35.8045356965129 -11.227394141303764 1 0 0 I I #
point $-1 57.396771141697442 35.8045356965129 -11.227394141303764 #
point $-1 57.396771141697442 -35.8045356965129 -11.227394141303764 #
straight-curve $-1 -57.396771141697442 0 11.227394141303764 0 -1 0 I I #
point $-1 -57.396771141697442 35.8045356965129 11.227394141303764 #
point $-1 -57.396771141697442 -35.8045356965129 11.227394141303764 #
straight-curve $-1 57.396771141697442 -35.8045356965129 0 0 0 -1 I I #
straight-curve $-1 57.396771141697442 35.8045356965129 0 0 0 -1 I I #
plane-surface $-1 57.396771141697442 0 0 -1 0 0 0 0 1 forward_v I I I I #
coedge $-1 $365 $274 $285 $374 forward $180 $-1 #
coedge $-1 $274 $365 $288 $376 reversed $180 $-1 #
straight-curve $-1 57.396771141697442 -27.221443519085355 0.11320064654246575 0 0 1 I I #
coedge $-1 $363 $362 $277 $366 forward $180 $-1 #
edge $-1 $369 11.464948715185791 $367 20.048040892613336 $365 $411 forward 7 unknown #
vertex $-1 $279 $412 #
straight-curve $-1 0 -35.8045356965129 -2.8037650354962578 1 0 0 I I #
vertex $-1 $366 $413 #
straight-curve $-1 0 -27.221443519085355 -2.8037650354962578 1 0 0 I I #
point $-1 57.396771141697442 -35.8045356965129 -2.8037650354962578 #
point $-1 57.396771141697442 -27.221443519085355 -2.8037650354962578 #
straight-curve $-1 -57.396771141697442 -15.756494803899564 3.2565676216661208 0 1 0 I I #
edge $-1 $286 -3.143366975123655 $369 2.9169656820387235 $362 $414 forward 7 unknown #
point $-1 -57.396771141697442 -27.221443519085355 3.2565676216661208 #
edge $-1 $290 -3.2565676216661208 $367 2.8037650354962578 $363 $415 forward 7 unknown #
point $-1 -57.396771141697442 -35.8045356965129 3.2565676216661208 #
straight-curve $-1 57.396771141697442 -35.8045356965129 0 0 0 -1 I I #
edge $-1 $380 -42.793631816268089 $383 -32.916968362423844 $296 $416 forward 7 unknown #
vertex $-1 $379 $417 #
straight-curve $-1 57.396771141697442 7.5350918308457722 82.09395789588541 0 0 1 I I #
edge $-1 $383 -5.4788954243067671 $307 1.366502611228757 $306 $418 forward 7 unknown #
vertex $-1 $382 $419 #
straight-curve $-1 -36.636593096740597 7.5350918308457722 70.15455155333278 0.81915203911291934 0 -0.57357644374324357 I I #
point $-1 57.396771141697442 7.5350918308457722 4.3116798057334904 #
point $-1 47.520107687853198 0.68969379531024799 11.227394141303762 #
straight-curve $-1 57.396771141697442 0 11.227394141303764 0 1 0 I I #
vertex $-1 $313 $420 #
point $-1 52.267718068887604 2.6455218054632539 6.6254352822015408 #
vertex $-1 $317 $421 #
point $-1 52.267718068887604 5.5792638206927663 6.6254352822015408 #
coedge $-1 $393 $323 $399 $422 reversed $223 $-1 #
coedge $-1 $323 $392 $326 $397 reversed $223 $-1 #
edge $-1 $395 -20.57871288225482 $331 -9.8729327462613412 $330 $423 forward 7 unknown #
vertex $-1 $325 $424 #
straight-curve $-1 -39.424293180479552 35.8045356965129 18.051901767505644 -0.81915203911291934 0 -0.57357644374324357 I I #
edge $-1 $327 49.170699956639616 $401 57.396771141697442 $393 $425 forward 7 unknown #
point $-1 -49.170699956639616 35.8045356965129 11.227394141303764 #
coedge $-1 $330 $329 $392 $422 forward $321 $-1 #
point $-1 -57.396771141697442 25.098755560519422 5.4674369770467068 #
vertex $-1 $397 $426 #
straight-curve $-1 -57.396771141697442 0 11.227394141303764 0 -1 0 I I #
vertex $-1 $337 $427 #
point $-1 -50.384245320091743 28.15754988508899 6.8216846072117061 #
vertex $-1 $341 $428 #
point $-1 -50.384245320091743 32.745741371943339 6.8216846072117061 #
straight-curve $-1 -57.396771141697442 35.8045356965129 0 0 0 -1 I I #
point $-1 -57.396771141697442 -35.8045356965129 -11.227394141303764 #
straight-curve $-1 -57.396771141697442 0 -11.227394141303764 0 1 0 I I #
point $-1 -57.396771141697442 35.8045356965129 -11.227394141303764 #
straight-curve $-1 -57.396771141697442 -15.756494803899564 -2.8037650354962578 0 -1 0 I I #
point $-1 -57.396771141697442 -35.8045356965129 -2.8037650354962578 #
point $-1 -57.396771141697442 -27.221443519085355 -2.8037650354962578 #
straight-curve $-1 -57.396771141697442 -27.221443519085355 0.11320064654246575 0 0 -1 I I #
straight-curve $-1 -57.396771141697442 -35.8045356965129 0 0 0 -1 I I #
straight-curve $-1 14.603139325429353 7.5350918308457722 11.227394141303762 -1 0 0 I I #
point $-1 57.396771141697442 7.5350918308457722 11.227394141303764 #
straight-curve $-1 47.520107687853198 2.056196406539005 11.227394141303762 0 -1 0 I I #
point $-1 47.520107687853198 7.5350918308457722 11.227394141303762 #
point $-1 51.571353827459525 2.6455218054632539 6.5026474845167028 #
point $-1 51.571353827459525 5.5792638206927663 6.5026474845167028 #
edge $-1 $401 -11.227394141303764 $395 -5.4674369770467068 $392 $429 forward 7 unknown #
straight-curve $-1 -57.396771141697442 15.22582281425808 5.4674369770467077 0 -1 0 I I #
point $-1 -57.396771141697442 35.8045356965129 5.4674369770467068 #
straight-curve $-1 0 35.8045356965129 11.227394141303764 -1 0 0 I I #
point $-1 -57.396771141697442 35.8045356965129 11.227394141303764 #
point $-1 -50.752608713146259 28.15754988508899 4.732591882927462 #
point $-1 -50.752608713146259 32.745741371943339 4.732591882927462 #
straight-curve $-1 -57.396771141697442 35.8045356965129 0 0 0 -1 I I #
End-of-ACIS-data 