500 0 9 0           
7 Unknown 11 ACIS 5.0 NT 24 Thu Mar 25 21:58:44 1999 
-1 9.9999999999999995e-007 1e-010 
body $-1 $9 $-1 $10 #
body $-1 $11 $-1 $12 #
body $-1 $13 $-1 $14 #
body $-1 $15 $-1 $16 #
body $-1 $17 $-1 $18 #
body $-1 $19 $-1 $20 #
body $-1 $21 $-1 $22 #
body $-1 $23 $-1 $24 #
body $-1 $25 $-1 $26 #
lump $-1 $-1 $27 $0 #
transform $-1 1 0 0 0 1 0 0 0 1 45.196691793572803 23.396429513588707 5.5149083722679864 1 rotate no_reflect no_shear #
lump $-1 $-1 $28 $1 #
transform $-1 1 0 0 0 1 0 0 0 1 45.196691793572803 23.396429513588707 5.5149083722679864 1 rotate no_reflect no_shear #
lump $-1 $-1 $29 $2 #
transform $-1 1 0 0 0 1 0 0 0 1 45.196691793572803 23.396429513588707 5.5149083722679864 1 rotate no_reflect no_shear #
lump $-1 $-1 $30 $3 #
transform $-1 1 0 0 0 1 0 0 0 1 45.196691793572803 23.396429513588707 5.5149083722679864 1 rotate no_reflect no_shear #
lump $-1 $-1 $31 $4 #
transform $-1 1 0 0 0 1 0 0 0 1 45.196691793572803 23.396429513588707 5.5149083722679864 1 rotate no_reflect no_shear #
lump $-1 $-1 $32 $5 #
transform $-1 1 0 0 0 1 0 0 0 1 45.196691793572803 23.396429513588707 5.5149083722679864 1 rotate no_reflect no_shear #
lump $-1 $-1 $33 $6 #
transform $-1 1 0 0 0 1 0 0 0 1 45.196691793572803 23.396429513588707 5.5149083722679864 1 rotate no_reflect no_shear #
lump $-1 $-1 $34 $7 #
transform $-1 1 0 0 0 1 0 0 0 1 45.196691793572803 23.396429513588707 5.5149083722679864 1 rotate no_reflect no_shear #
lump $-1 $-1 $35 $8 #
transform $-1 1 0 0 0 1 0 0 0 1 45.196691793572803 23.396429513588707 5.5149083722679864 1 rotate no_reflect no_shear #
shell $-1 $-1 $-1 $36 $-1 $9 #
shell $-1 $-1 $-1 $37 $-1 $11 #
shell $-1 $-1 $-1 $38 $-1 $13 #
shell $-1 $-1 $-1 $39 $-1 $15 #
shell $-1 $-1 $-1 $40 $-1 $17 #
shell $-1 $-1 $-1 $41 $-1 $19 #
shell $-1 $-1 $-1 $42 $-1 $21 #
shell $-1 $-1 $-1 $43 $-1 $23 #
shell $-1 $-1 $-1 $44 $-1 $25 #
face $-1 $45 $46 $27 $-1 $47 forward single #
face $-1 $48 $49 $28 $-1 $50 forward single #
face $-1 $51 $52 $29 $-1 $53 reversed single #
face $-1 $54 $55 $30 $-1 $56 forward single #
face $-1 $57 $58 $31 $-1 $59 forward single #
face $-1 $60 $61 $32 $-1 $62 forward single #
face $-1 $63 $64 $33 $-1 $65 reversed single #
face $-1 $66 $67 $34 $-1 $68 forward single #
face $-1 $69 $70 $35 $-1 $71 forward single #
face $-1 $72 $73 $27 $-1 $74 reversed single #
loop $-1 $-1 $75 $36 #
plane-surface $-1 0 0 5.5149083722679864 0 0 1 1 0 0 forward_v I I I I #
face $-1 $76 $77 $28 $-1 $78 reversed single #
loop $-1 $-1 $79 $37 #
plane-surface $-1 -45.196691793572803 0 0 1 0 0 0 0 -1 forward_v I I I I #
face $-1 $80 $81 $29 $-1 $82 reversed single #
loop $-1 $-1 $83 $38 #
plane-surface $-1 -16.070088680544774 -100.87868283253422 46.904407035052436 -1 0 0 0 -0.85716730853699208 0.51503806187062418 forward_v I I I I #
face $-1 $84 $85 $30 $-1 $86 forward single #
loop $-1 $87 $88 $39 #
cone-surface $-1 -35.480463030628158 -19.946029968468743 1.791077920617731 0 0.85716730853699208 -0.51503806187062418 1.5 0 0 1 I I 0 1 1.5 forward I I I I #
face $-1 $89 $90 $31 $-1 $91 forward single #
loop $-1 $92 $93 $40 #
cone-surface $-1 -28.201572649346886 -19.946029968468743 1.791077920617731 0 0.85716730853699208 -0.51503806187062418 1.5 0 0 1 I I 0 1 1.5 forward I I I I #
face $-1 $94 $95 $32 $-1 $96 forward single #
loop $-1 $97 $98 $41 #
cone-surface $-1 -20.922682268065618 -19.946029968468743 1.791077920617731 0 0.85716730853699208 -0.51503806187062418 1.5 0 0 1 I I 0 1 1.5 forward I I I I #
face $-1 $99 $100 $33 $-1 $101 reversed single #
loop $-1 $-1 $102 $42 #
plane-surface $-1 -16.693393576696938 43.917948605476006 100.47258507135639 1 0 0 0 -0.62932039886446345 -0.77714595512881146 forward_v I I I I #
face $-1 $103 $104 $34 $-1 $105 forward single #
loop $-1 $106 $107 $43 #
cone-surface $-1 -10.566413487177421 20.147805607027276 2.7470782009881054 0 -0.62932039886446345 -0.77714595512881146 1 0 0 1 I I 0 1 1 forward I I I I #
face $-1 $108 $109 $35 $-1 $110 forward single #
loop $-1 $111 $112 $44 #
cone-surface $-1 -1.3759433528981546 20.147805607027276 2.7470782009881054 0 -0.62932039886446345 -0.77714595512881146 1 0 0 1 I I 0 1 1 forward I I I I #
face $-1 $113 $114 $27 $-1 $115 reversed single #
loop $-1 $-1 $116 $45 #
plane-surface $-1 0 0 -5.5149083722679864 0 0 1 1 0 0 forward_v I I I I #
coedge $-1 $117 $118 $119 $120 forward $46 $-1 #
face $-1 $121 $122 $28 $-1 $123 reversed single #
loop $-1 $-1 $124 $48 #
plane-surface $-1 0 23.396429513588707 0 0 -1 0 0 0 -1 forward_v I I I I #
coedge $-1 $125 $126 $127 $128 forward $49 $-1 #
face $-1 $129 $130 $29 $-1 $131 reversed single #
loop $-1 $-1 $132 $51 #
plane-surface $-1 -28.201572649346886 -23.396429513588714 0.34837394640107533 0 -0.85716730853699208 0.51503806187062418 1 0 0 forward_v I I I I #
coedge $-1 $133 $134 $135 $136 reversed $52 $-1 #
face $-1 $-1 $137 $30 $-1 $138 forward single #
loop $-1 $139 $140 $54 #
cone-surface $-1 -35.480463030628158 -17.404938425137935 0.26423613549795721 0 0.85716730853699208 -0.51503806187062418 0.75 0 0 1 I I -0.70710678118654757 0.70710678118654757 0.75 forward I I I I #
loop $-1 $-1 $141 $39 #
coedge $-1 $88 $88 $142 $143 reversed $55 $-1 #
face $-1 $-1 $144 $31 $-1 $145 forward single #
loop $-1 $146 $147 $57 #
cone-surface $-1 -28.201572649346886 -17.404938425137935 0.26423613549795721 0 0.85716730853699208 -0.51503806187062418 0.75 0 0 1 I I -0.70710678118654757 0.70710678118654757 0.75 forward I I I I #
loop $-1 $-1 $148 $40 #
coedge $-1 $93 $93 $149 $150 reversed $58 $-1 #
face $-1 $-1 $151 $32 $-1 $152 forward single #
loop $-1 $153 $154 $60 #
cone-surface $-1 -20.922682268065618 -17.404938425137935 0.26423613549795721 0 0.85716730853699208 -0.51503806187062418 0.75 0 0 1 I I -0.70710678118654757 0.70710678118654757 0.75 forward I I I I #
loop $-1 $-1 $155 $41 #
coedge $-1 $98 $98 $156 $157 reversed $61 $-1 #
face $-1 $158 $159 $33 $-1 $160 reversed single #
loop $-1 $-1 $161 $63 #
plane-surface $-1 -5.9711784200377949 -12.968451608294913 30.223732646199096 0 0.62932039886446345 0.77714595512881146 1 0 0 forward_v I I I I #
coedge $-1 $162 $163 $164 $165 reversed $64 $-1 #
face $-1 $-1 $166 $34 $-1 $167 forward single #
loop $-1 $168 $169 $66 #
cone-surface $-1 -10.566413487177421 19.510533957052552 1.9601132686742195 0 -0.62932039886446345 -0.77714595512881146 0.5 0 0 1 I I -0.70710678118654746 0.70710678118654746 0.5 forward I I I I #
loop $-1 $-1 $170 $43 #
coedge $-1 $107 $107 $171 $172 reversed $67 $-1 #
face $-1 $-1 $173 $35 $-1 $174 forward single #
loop $-1 $175 $176 $69 #
cone-surface $-1 -1.3759433528981546 19.510533957052552 1.9601132686742195 0 -0.62932039886446345 -0.77714595512881146 0.5 0 0 1 I I -0.70710678118654746 0.70710678118654746 0.5 forward I I I I #
loop $-1 $-1 $177 $44 #
coedge $-1 $112 $112 $178 $179 reversed $70 $-1 #
face $-1 $180 $181 $27 $-1 $182 reversed single #
loop $-1 $-1 $183 $72 #
plane-surface $-1 0 -23.396429513588707 0 0 1 0 0 0 1 forward_v I I I I #
coedge $-1 $184 $185 $186 $187 forward $73 $-1 #
coedge $-1 $188 $75 $189 $190 forward $46 $-1 #
coedge $-1 $75 $188 $191 $192 forward $46 $-1 #
coedge $-1 $193 $194 $75 $120 reversed $195 $-1 #
edge $-1 $196 -23.396429513588707 $197 23.396429513588707 $119 $198 forward 7 unknown #
face $-1 $199 $200 $28 $-1 $201 reversed single #
loop $-1 $-1 $127 $76 #
plane-surface $-1 -47.628509381284708 0 2.5149083722679864 0 0 1 1 0 0 forward_v I I I I #
coedge $-1 $202 $203 $125 $204 forward $77 $-1 #
coedge $-1 $205 $79 $124 $204 reversed $49 $-1 #
coedge $-1 $79 $205 $206 $207 reversed $49 $-1 #
coedge $-1 $208 $209 $79 $128 reversed $122 $-1 #
edge $-1 $210 -23.396429513588707 $211 23.396429513588707 $127 $212 forward 7 unknown #
face $-1 $213 $214 $29 $-1 $215 reversed single #
loop $-1 $-1 $216 $80 #
plane-surface $-1 -40.333056618149001 -100.87868283253422 46.904407035052436 1 0 0 0 0.85716730853699208 -0.51503806187062418 forward_v I I I I #
coedge $-1 $217 $218 $219 $220 reversed $81 $-1 #
coedge $-1 $134 $83 $221 $222 reversed $52 $-1 #
coedge $-1 $83 $133 $217 $223 reversed $52 $-1 #
coedge $-1 $219 $224 $83 $136 forward $225 $-1 #
edge $-1 $226 27.042911902678405 $227 30.147278869062202 $135 $228 forward 7 unknown #
loop $-1 $-1 $142 $84 #
plane-surface $-1 -28.201572649346886 -23.396429513588714 0.34837394640107533 0 -0.85716730853699208 0.51503806187062418 1 0 0 forward_v I I I I #
loop $-1 $-1 $229 $54 #
coedge $-1 $140 $140 $141 $230 reversed $85 $-1 #
coedge $-1 $141 $141 $140 $230 forward $87 $-1 #
coedge $-1 $142 $142 $88 $143 forward $137 $-1 #
edge $-1 $231 -1.7274001820171073e-015 $231 6.2831853071795987 $142 $232 forward 7 unknown #
loop $-1 $-1 $149 $89 #
plane-surface $-1 -28.201572649346886 -23.396429513588714 0.34837394640107533 0 -0.85716730853699208 0.51503806187062418 1 0 0 forward_v I I I I #
loop $-1 $-1 $233 $57 #
coedge $-1 $147 $147 $148 $234 reversed $90 $-1 #
coedge $-1 $148 $148 $147 $234 forward $92 $-1 #
coedge $-1 $149 $149 $93 $150 forward $144 $-1 #
edge $-1 $235 -1.7274001820171073e-015 $235 6.2831853071795987 $149 $236 forward 7 unknown #
loop $-1 $-1 $156 $94 #
plane-surface $-1 -28.201572649346886 -23.396429513588714 0.34837394640107533 0 -0.85716730853699208 0.51503806187062418 1 0 0 forward_v I I I I #
loop $-1 $-1 $237 $60 #
coedge $-1 $154 $154 $155 $238 reversed $95 $-1 #
coedge $-1 $155 $155 $154 $238 forward $97 $-1 #
coedge $-1 $156 $156 $98 $157 forward $151 $-1 #
edge $-1 $239 -1.7274001820171073e-015 $239 6.2831853071795987 $156 $240 forward 7 unknown #
face $-1 $241 $242 $33 $-1 $243 forward single #
loop $-1 $-1 $244 $99 #
plane-surface $-1 4.751036736621348 43.917948605476006 100.47258507135639 -1 0 0 0 0.62932039886446345 0.77714595512881146 forward_v I I I I #
coedge $-1 $245 $246 $247 $248 reversed $100 $-1 #
coedge $-1 $163 $102 $249 $250 reversed $64 $-1 #
coedge $-1 $102 $162 $245 $251 reversed $64 $-1 #
coedge $-1 $247 $252 $102 $165 forward $242 $-1 #
edge $-1 $253 -1.4374552108507039 $254 4.4145697011871547 $164 $255 forward 7 unknown #
loop $-1 $-1 $171 $103 #
plane-surface $-1 -5.9711784200377949 -12.968451608294913 30.223732646199096 0 0.62932039886446345 0.77714595512881146 1 0 0 forward_v I I I I #
loop $-1 $-1 $256 $66 #
coedge $-1 $169 $169 $170 $257 reversed $104 $-1 #
coedge $-1 $170 $170 $169 $257 forward $106 $-1 #
coedge $-1 $171 $171 $107 $172 forward $166 $-1 #
edge $-1 $258 3.1324132020609563e-016 $258 6.2831853071796004 $171 $259 forward 7 unknown #
loop $-1 $-1 $178 $108 #
plane-surface $-1 -5.9711784200377949 -12.968451608294913 30.223732646199096 0 0.62932039886446345 0.77714595512881146 1 0 0 forward_v I I I I #
loop $-1 $-1 $260 $69 #
coedge $-1 $176 $176 $177 $261 reversed $109 $-1 #
coedge $-1 $177 $177 $176 $261 forward $111 $-1 #
coedge $-1 $178 $178 $112 $179 forward $173 $-1 #
edge $-1 $262 3.1324132020609563e-016 $262 6.2831853071796004 $178 $263 forward 7 unknown #
face $-1 $264 $265 $27 $-1 $266 reversed single #
loop $-1 $-1 $267 $113 #
plane-surface $-1 -45.196691793572803 0 0 1 0 0 0 0 -1 forward_v I I I I #
coedge $-1 $268 $191 $269 $270 forward $114 $-1 #
coedge $-1 $271 $116 $268 $272 forward $73 $-1 #
coedge $-1 $116 $271 $273 $274 forward $73 $-1 #
coedge $-1 $194 $193 $116 $187 reversed $195 $-1 #
edge $-1 $275 -23.396429513588707 $276 23.396429513588707 $186 $277 forward 7 unknown #
coedge $-1 $118 $117 $278 $279 forward $46 $-1 #
coedge $-1 $280 $281 $117 $190 reversed $265 $-1 #
edge $-1 $197 -45.196691793572803 $282 45.196691793572803 $189 $283 forward 7 unknown #
coedge $-1 $183 $284 $118 $192 reversed $114 $-1 #
edge $-1 $285 -45.196691793572803 $196 45.196691793572803 $191 $286 forward 7 unknown #
coedge $-1 $186 $119 $284 $287 forward $195 $-1 #
coedge $-1 $119 $186 $280 $288 reversed $195 $-1 #
loop $-1 $-1 $193 $264 #
vertex $-1 $120 $289 #
vertex $-1 $120 $290 #
straight-curve $-1 45.196691793572803 0 5.5149083722679864 0 1 0 I I #
face $-1 $291 $292 $28 $-1 $293 forward single #
loop $-1 $-1 $294 $121 #
plane-surface $-1 -50.060326968996613 0 4.0149083722679864 1 0 0 0 0 -1 forward_v I I I I #
coedge $-1 $295 $124 $209 $296 reversed $77 $-1 #
coedge $-1 $124 $295 $297 $298 reversed $77 $-1 #
edge $-1 $299 -5.5149083722679864 $211 -2.5149083722679864 $124 $300 forward 7 unknown #
coedge $-1 $126 $125 $301 $302 reversed $49 $-1 #
coedge $-1 $303 $304 $126 $207 forward $305 $-1 #
edge $-1 $210 2.5149083722679864 $306 5.5149083722679864 $206 $307 forward 7 unknown #
coedge $-1 $308 $127 $304 $309 forward $122 $-1 #
coedge $-1 $127 $308 $202 $296 forward $122 $-1 #
vertex $-1 $207 $310 #
vertex $-1 $204 $311 #
straight-curve $-1 -45.196691793572803 0 2.5149083722679864 0 1 0 I I #
face $-1 $-1 $225 $29 $-1 $312 forward single #
loop $-1 $-1 $313 $129 #
plane-surface $-1 0 -23.396429513588707 0 0 1 0 0 0 1 forward_v I I I I #
coedge $-1 $314 $315 $316 $317 reversed $130 $-1 #
coedge $-1 $318 $132 $134 $223 forward $81 $-1 #
coedge $-1 $132 $318 $314 $319 forward $81 $-1 #
coedge $-1 $316 $135 $132 $220 forward $225 $-1 #
edge $-1 $227 1.9693023558713314 $320 26.232270293475558 $219 $321 forward 7 unknown #
coedge $-1 $322 $323 $133 $222 forward $214 $-1 #
edge $-1 $324 -23.103829571125132 $226 -17.937295145258233 $221 $325 forward 7 unknown #
edge $-1 $227 -6.0274515539855589 $324 -1.379460482718971e-014 $134 $326 forward 7 unknown #
coedge $-1 $135 $316 $322 $327 forward $225 $-1 #
loop $-1 $-1 $316 $213 #
vertex $-1 $222 $328 #
vertex $-1 $136 $329 #
straight-curve $-1 -16.070088680544774 -50.439341416267112 5.5149083722679855 0 1 0 I I #
coedge $-1 $229 $229 $-1 $330 reversed $139 $-1 #
edge $-1 $331 0 $331 6.2831853071796004 $140 $332 forward 7 unknown #
vertex $-1 $143 $333 #
ellipse-curve $-1 -35.480463030628158 -21.844246030396807 2.9316411593345375 0 -0.85716730853699208 0.51503806187062418 1.5 0 0 1 I I #
coedge $-1 $233 $233 $-1 $334 reversed $146 $-1 #
edge $-1 $335 0 $335 6.2831853071796004 $147 $336 forward 7 unknown #
vertex $-1 $150 $337 #
ellipse-curve $-1 -28.201572649346886 -21.844246030396807 2.9316411593345375 0 -0.85716730853699208 0.51503806187062418 1.5 0 0 1 I I #
coedge $-1 $237 $237 $-1 $338 reversed $153 $-1 #
edge $-1 $339 0 $339 6.2831853071796004 $154 $340 forward 7 unknown #
vertex $-1 $157 $341 #
ellipse-curve $-1 -20.922682268065618 -21.844246030396807 2.9316411593345375 0 -0.85716730853699208 0.51503806187062418 1.5 0 0 1 I I #
face $-1 $-1 $342 $33 $-1 $343 reversed single #
loop $-1 $-1 $164 $158 #
plane-surface $-1 0 0 5.5149083722679864 0 0 1 1 0 0 forward_v I I I I #
coedge $-1 $344 $345 $346 $347 reversed $159 $-1 #
coedge $-1 $348 $161 $163 $251 forward $100 $-1 #
coedge $-1 $161 $348 $344 $349 forward $100 $-1 #
coedge $-1 $346 $164 $161 $248 forward $242 $-1 #
edge $-1 $254 -13.70780436667804 $350 7.7366259466402454 $247 $351 forward 7 unknown #
coedge $-1 $352 $353 $162 $250 forward $342 $-1 #
edge $-1 $354 -49.460260596471002 $253 -44.721384163410207 $249 $355 forward 7 unknown #
edge $-1 $254 39.262709930450931 $354 46.792859027177414 $163 $356 forward 7 unknown #
coedge $-1 $164 $346 $352 $357 forward $242 $-1 #
vertex $-1 $250 $358 #
vertex $-1 $165 $359 #
straight-curve $-1 -16.693393576696938 21.958974302738003 5.514908372267989 0 -1 0 I I #
coedge $-1 $256 $256 $-1 $360 reversed $168 $-1 #
edge $-1 $361 0 $361 6.2831853071796004 $169 $362 forward 7 unknown #
vertex $-1 $172 $363 #
ellipse-curve $-1 -10.566413487177421 20.470417057569772 3.1454701557375908 0 0.62932039886446345 0.77714595512881146 1 0 0 1 I I #
coedge $-1 $260 $260 $-1 $364 reversed $175 $-1 #
edge $-1 $365 0 $365 6.2831853071796004 $176 $366 forward 7 unknown #
vertex $-1 $179 $367 #
ellipse-curve $-1 -1.3759433528981546 20.470417057569772 3.1454701557375908 0 0.62932039886446345 0.77714595512881146 1 0 0 1 I I #
face $-1 $-1 $195 $27 $-1 $368 reversed single #
loop $-1 $-1 $280 $180 #
plane-surface $-1 0 23.396429513588707 0 0 -1 0 0 0 -1 forward_v I I I I #
coedge $-1 $369 $278 $281 $370 forward $181 $-1 #
coedge $-1 $284 $183 $184 $272 reversed $114 $-1 #
coedge $-1 $278 $369 $183 $270 reversed $181 $-1 #
edge $-1 $285 -5.5149083722679864 $371 5.5149083722679864 $269 $372 forward 7 unknown #
coedge $-1 $185 $184 $369 $373 forward $73 $-1 #
edge $-1 $276 -45.196691793572803 $371 45.196691793572803 $268 $374 forward 7 unknown #
coedge $-1 $281 $280 $185 $274 reversed $265 $-1 #
edge $-1 $375 -45.196691793572803 $275 45.196691793572803 $273 $376 forward 7 unknown #
vertex $-1 $187 $377 #
vertex $-1 $287 $378 #
straight-curve $-1 45.196691793572803 0 -5.5149083722679864 0 -1 0 I I #
coedge $-1 $267 $269 $188 $279 reversed $181 $-1 #
edge $-1 $282 -23.396429513588707 $285 23.396429513588707 $278 $379 forward 7 unknown #
coedge $-1 $273 $189 $194 $288 forward $265 $-1 #
coedge $-1 $189 $273 $267 $370 reversed $265 $-1 #
vertex $-1 $190 $380 #
straight-curve $-1 0 23.396429513588707 5.5149083722679864 -1 0 0 I I #
coedge $-1 $191 $268 $193 $287 reversed $114 $-1 #
vertex $-1 $279 $381 #
straight-curve $-1 0 -23.396429513588707 5.5149083722679864 1 0 0 I I #
edge $-1 $196 -5.5149083722679864 $276 5.5149083722679864 $193 $382 forward 7 unknown #
edge $-1 $197 -5.5149083722679864 $275 5.5149083722679864 $194 $383 forward 7 unknown #
point $-1 45.196691793572803 -23.396429513588707 5.5149083722679864 #
point $-1 45.196691793572803 23.396429513588707 5.5149083722679864 #
face $-1 $-1 $305 $28 $-1 $384 reversed single #
loop $-1 $-1 $301 $199 #
plane-surface $-1 0 0 5.5149083722679864 0 0 1 1 0 0 forward_v I I I I #
coedge $-1 $385 $386 $295 $387 forward $200 $-1 #
coedge $-1 $203 $202 $294 $387 reversed $77 $-1 #
edge $-1 $388 -2.4318175877119046 $211 2.4318175877119046 $202 $389 forward 7 unknown #
coedge $-1 $390 $301 $203 $298 forward $292 $-1 #
edge $-1 $299 45.196691793572803 $391 50.060326968996613 $203 $392 forward 7 unknown #
vertex $-1 $298 $393 #
straight-curve $-1 -45.196691793572803 23.396429513588707 0 0 0 -1 I I #
coedge $-1 $297 $394 $205 $302 forward $292 $-1 #
edge $-1 $306 -23.396429513588707 $299 23.396429513588707 $301 $395 forward 7 unknown #
coedge $-1 $396 $206 $394 $397 reversed $305 $-1 #
coedge $-1 $206 $396 $208 $309 reversed $305 $-1 #
loop $-1 $-1 $206 $291 #
vertex $-1 $207 $398 #
straight-curve $-1 -45.196691793572803 -23.396429513588707 0 0 0 1 I I #
coedge $-1 $209 $208 $385 $399 forward $122 $-1 #
edge $-1 $210 -2.4318175877119046 $400 2.4318175877119046 $304 $401 forward 7 unknown #
point $-1 -45.196691793572803 -23.396429513588707 2.5149083722679864 #
point $-1 -45.196691793572803 23.396429513588707 2.5149083722679864 #
plane-surface $-1 0 0 5.5149083722679864 0 0 1 1 0 0 forward_v I I I I #
coedge $-1 $323 $322 $315 $402 forward $214 $-1 #
coedge $-1 $315 $216 $218 $319 reversed $130 $-1 #
coedge $-1 $216 $314 $313 $402 reversed $130 $-1 #
coedge $-1 $224 $219 $216 $317 forward $225 $-1 #
edge $-1 $320 -30.147278869062202 $403 -27.042911902678405 $316 $404 forward 7 unknown #
coedge $-1 $218 $217 $323 $405 reversed $81 $-1 #
edge $-1 $406 1.379460482718971e-014 $320 6.0274515539855589 $314 $407 forward 7 unknown #
vertex $-1 $220 $408 #
straight-curve $-1 -14.100786324673443 -20.29206254720491 5.5149083722679864 -1 0 0 I I #
coedge $-1 $313 $221 $224 $327 reversed $214 $-1 #
coedge $-1 $221 $313 $318 $405 forward $214 $-1 #
vertex $-1 $222 $409 #
straight-curve $-1 -16.070088680544774 -23.396429513588707 23.452203517526218 0 0 1 I I #
straight-curve $-1 -16.070088680544774 -23.396429513588714 0.34837394640107533 0 -0.51503806187062418 -0.85716730853699208 I I #
edge $-1 $403 -40.333056618149001 $226 -16.070088680544774 $322 $410 forward 7 unknown #
point $-1 -16.070088680544774 -23.396429513588707 5.5149083722679864 #
point $-1 -16.070088680544774 -20.29206254720491 5.5149083722679864 #
edge $-1 $411 1 $411 0 $229 $-1 forward 7 unknown #
vertex $-1 $230 $412 #
ellipse-curve $-1 -35.480463030628158 -18.047813906540679 0.65051468190092532 0 -0.85716730853699208 0.51503806187062418 1.5 0 0 1 I I #
point $-1 -33.980463030628158 -21.84424603039681 2.9316411593345366 #
edge $-1 $413 1 $413 0 $233 $-1 forward 7 unknown #
vertex $-1 $234 $414 #
ellipse-curve $-1 -28.201572649346886 -18.047813906540679 0.65051468190092532 0 -0.85716730853699208 0.51503806187062418 1.5 0 0 1 I I #
point $-1 -26.701572649346886 -21.84424603039681 2.9316411593345366 #
edge $-1 $415 1 $415 0 $237 $-1 forward 7 unknown #
vertex $-1 $238 $416 #
ellipse-curve $-1 -20.922682268065618 -18.047813906540679 0.65051468190092532 0 -0.85716730853699208 0.51503806187062418 1.5 0 0 1 I I #
point $-1 -19.422682268065618 -21.84424603039681 2.9316411593345366 #
loop $-1 $-1 $249 $241 #
plane-surface $-1 0 23.396429513588707 0 0 -1 0 0 0 -1 forward_v I I I I #
coedge $-1 $345 $244 $246 $349 reversed $159 $-1 #
coedge $-1 $244 $344 $417 $418 reversed $159 $-1 #
coedge $-1 $252 $247 $244 $347 forward $242 $-1 #
edge $-1 $350 -4.4145697011871547 $419 1.4374552108507039 $346 $420 forward 7 unknown #
coedge $-1 $246 $245 $353 $421 reversed $100 $-1 #
edge $-1 $422 -46.792859027177414 $350 -39.262709930450931 $344 $423 forward 7 unknown #
vertex $-1 $248 $424 #
straight-curve $-1 -2.9855892100188974 17.544404601550852 5.5149083722679855 1 0 0 I I #
coedge $-1 $417 $249 $252 $357 reversed $342 $-1 #
coedge $-1 $249 $417 $348 $421 forward $342 $-1 #
vertex $-1 $250 $425 #
straight-curve $-1 -16.693393576696938 23.396429513588707 50.236292535678196 0 0 1 I I #
straight-curve $-1 -16.693393576696938 -12.968451608294913 30.223732646199096 0 0.77714595512881146 -0.62932039886446345 I I #
edge $-1 $419 -4.751036736621348 $253 16.693393576696938 $352 $426 forward 7 unknown #
point $-1 -16.693393576696938 23.396429513588707 5.5149083722679864 #
point $-1 -16.693393576696938 17.544404601550848 5.5149083722679855 #
edge $-1 $427 1 $427 0 $256 $-1 forward 7 unknown #
vertex $-1 $257 $428 #
ellipse-curve $-1 -10.566413487177421 19.825194156484784 2.3486862462386253 0 0.62932039886446345 0.77714595512881146 1 0 0 1 I I #
point $-1 -9.5664134871774209 20.470417057569769 3.1454701557375859 #
edge $-1 $429 1 $429 0 $260 $-1 forward 7 unknown #
vertex $-1 $261 $430 #
ellipse-curve $-1 -1.3759433528981546 19.825194156484784 2.3486862462386253 0 0.62932039886446345 0.77714595512881146 1 0 0 1 I I #
point $-1 -0.37594335289815461 20.470417057569769 3.1454701557375859 #
plane-surface $-1 45.196691793572803 0 0 -1 0 0 0 0 1 forward_v I I I I #
coedge $-1 $269 $267 $271 $373 reversed $181 $-1 #
edge $-1 $282 -5.5149083722679864 $375 5.5149083722679864 $281 $431 forward 7 unknown #
vertex $-1 $373 $432 #
straight-curve $-1 -45.196691793572803 -23.396429513588707 0 0 0 -1 I I #
edge $-1 $371 -23.396429513588707 $375 23.396429513588707 $369 $433 forward 7 unknown #
straight-curve $-1 0 -23.396429513588707 -5.5149083722679864 -1 0 0 I I #
vertex $-1 $274 $434 #
straight-curve $-1 0 23.396429513588707 -5.5149083722679864 1 0 0 I I #
point $-1 45.196691793572803 23.396429513588707 -5.5149083722679864 #
point $-1 45.196691793572803 -23.396429513588707 -5.5149083722679864 #
straight-curve $-1 -45.196691793572803 0 5.5149083722679864 0 -1 0 I I #
point $-1 -45.196691793572803 23.396429513588707 5.5149083722679864 #
point $-1 -45.196691793572803 -23.396429513588707 5.5149083722679864 #
straight-curve $-1 45.196691793572803 -23.396429513588707 0 0 0 -1 I I #
straight-curve $-1 45.196691793572803 23.396429513588707 0 0 0 -1 I I #
plane-surface $-1 0 -23.396429513588707 0 0 1 0 0 0 1 forward_v I I I I #
coedge $-1 $435 $294 $308 $399 reversed $200 $-1 #
coedge $-1 $294 $435 $390 $436 reversed $200 $-1 #
edge $-1 $391 -1.5 $388 1.5 $295 $437 forward 7 unknown #
vertex $-1 $296 $438 #
straight-curve $-1 -47.628509381284708 23.396429513588707 2.5149083722679864 1 0 0 I I #
coedge $-1 $394 $297 $386 $436 forward $292 $-1 #
vertex $-1 $298 $439 #
straight-curve $-1 0 23.396429513588707 5.5149083722679864 -1 0 0 I I #
point $-1 -45.196691793572803 23.396429513588707 5.5149083722679864 #
coedge $-1 $301 $390 $303 $397 forward $292 $-1 #
straight-curve $-1 -45.196691793572803 0 5.5149083722679864 0 1 0 I I #
coedge $-1 $304 $303 $435 $440 forward $305 $-1 #
edge $-1 $441 -50.060326968996613 $306 -45.196691793572803 $303 $442 forward 7 unknown #
point $-1 -45.196691793572803 -23.396429513588707 5.5149083722679864 #
edge $-1 $400 -23.396429513588707 $388 23.396429513588707 $385 $443 forward 7 unknown #
vertex $-1 $399 $444 #
straight-curve $-1 -47.628509381284708 -23.396429513588707 2.5149083722679864 -1 0 0 I I #
edge $-1 $403 17.937295145258233 $406 23.103829571125132 $313 $445 forward 7 unknown #
vertex $-1 $327 $446 #
straight-curve $-1 -40.333056618149001 -50.439341416267112 5.5149083722679855 0 -1 0 I I #
edge $-1 $406 -26.232270293475558 $324 -1.9693023558713314 $323 $447 forward 7 unknown #
vertex $-1 $405 $448 #
straight-curve $-1 -40.333056618149001 -23.396429513588714 0.34837394640107533 0 0.51503806187062418 0.85716730853699208 I I #
point $-1 -40.333056618149001 -20.29206254720491 5.5149083722679864 #
point $-1 -16.070088680544774 -23.396429513588707 0.34837394640108715 #
straight-curve $-1 0 -23.396429513588707 5.5149083722679864 1 0 0 I I #
vertex $-1 $330 $449 #
point $-1 -33.980463030628158 -18.047813906540679 0.65051468190092532 #
vertex $-1 $334 $450 #
point $-1 -26.701572649346886 -18.047813906540679 0.65051468190092532 #
vertex $-1 $338 $451 #
point $-1 -19.422682268065618 -18.047813906540679 0.65051468190092532 #
coedge $-1 $353 $352 $345 $418 forward $342 $-1 #
edge $-1 $419 44.721384163410207 $422 49.460260596471002 $417 $452 forward 7 unknown #
vertex $-1 $357 $453 #
straight-curve $-1 4.751036736621348 21.958974302738003 5.514908372267989 0 1 0 I I #
edge $-1 $422 -7.7366259466402454 $354 13.70780436667804 $353 $454 forward 7 unknown #
vertex $-1 $421 $455 #
straight-curve $-1 4.751036736621348 -12.968451608294913 30.223732646199096 0 -0.77714595512881146 0.62932039886446345 I I #
point $-1 4.751036736621348 17.544404601550848 5.5149083722679855 #
point $-1 -16.693393576696938 23.396429513588707 0.77603193920719704 #
straight-curve $-1 0 23.396429513588707 5.5149083722679864 -1 0 0 I I #
vertex $-1 $360 $456 #
point $-1 -9.5664134871774209 19.825194156484784 2.3486862462386253 #
vertex $-1 $364 $457 #
point $-1 -0.37594335289815461 19.825194156484784 2.3486862462386253 #
straight-curve $-1 -45.196691793572803 23.396429513588707 0 0 0 -1 I I #
point $-1 -45.196691793572803 -23.396429513588707 -5.5149083722679864 #
straight-curve $-1 -45.196691793572803 0 -5.5149083722679864 0 1 0 I I #
point $-1 -45.196691793572803 23.396429513588707 -5.5149083722679864 #
coedge $-1 $386 $385 $396 $440 reversed $200 $-1 #
edge $-1 $391 -23.396429513588707 $441 23.396429513588707 $386 $458 forward 7 unknown #
straight-curve $-1 -50.060326968996613 23.396429513588707 4.0149083722679864 0 0 -1 I I #
point $-1 -50.060326968996613 23.396429513588707 2.5149083722679864 #
point $-1 -50.060326968996613 23.396429513588707 5.5149083722679864 #
edge $-1 $441 -1.5 $400 1.5 $435 $459 forward 7 unknown #
vertex $-1 $436 $460 #
straight-curve $-1 0 -23.396429513588707 5.5149083722679864 1 0 0 I I #
straight-curve $-1 -50.060326968996613 0 2.5149083722679864 0 1 0 I I #
point $-1 -50.060326968996613 -23.396429513588707 2.5149083722679864 #
straight-curve $-1 -40.333056618149001 -23.396429513588707 23.452203517526218 0 0 -1 I I #
point $-1 -40.333056618149001 -23.396429513588707 5.5149083722679864 #
straight-curve $-1 -14.100786324673443 -23.396429513588707 0.34837394640108771 1 0 0 I I #
point $-1 -40.333056618149001 -23.396429513588707 0.34837394640108715 #
point $-1 -35.480463030628158 -16.762062943735192 -0.12204241090501089 #
point $-1 -28.201572649346886 -16.762062943735192 -0.12204241090501089 #
point $-1 -20.922682268065618 -16.762062943735192 -0.12204241090501089 #
straight-curve $-1 4.751036736621348 23.396429513588707 50.236292535678196 0 0 -1 I I #
point $-1 4.751036736621348 23.396429513588707 5.5149083722679864 #
straight-curve $-1 -2.9855892100188974 23.396429513588707 0.77603193920719882 -1 0 0 I I #
point $-1 4.751036736621348 23.396429513588707 0.77603193920719704 #
point $-1 -10.566413487177421 19.195873757620319 1.5715402911098137 #
point $-1 -1.3759433528981546 19.195873757620319 1.5715402911098137 #
straight-curve $-1 -50.060326968996613 0 5.5149083722679864 0 -1 0 I I #
straight-curve $-1 -50.060326968996613 -23.396429513588707 4.0149083722679864 0 0 -1 I I #
point $-1 -50.060326968996613 -23.396429513588707 5.5149083722679864 #
End-of-ACIS-data 