500 0 13 0           
7 Unknown 11 ACIS 5.0 NT 24 Fri Mar 26 17:46:56 1999 
-1 9.9999999999999995e-007 1e-010 
body $-1 $13 $-1 $14 #
body $-1 $15 $-1 $16 #
body $-1 $17 $-1 $18 #
body $-1 $19 $-1 $20 #
body $-1 $21 $-1 $22 #
body $-1 $23 $-1 $24 #
body $-1 $25 $-1 $26 #
body $-1 $27 $-1 $28 #
body $-1 $29 $-1 $30 #
body $-1 $31 $-1 $32 #
body $-1 $33 $-1 $34 #
body $-1 $35 $-1 $36 #
body $-1 $37 $-1 $38 #
lump $-1 $-1 $39 $0 #
transform $-1 1 0 0 0 1 0 0 0 1 49.286172063356425 21.653005113536601 5.0262435436283681 1 rotate no_reflect no_shear #
lump $-1 $-1 $40 $1 #
transform $-1 1 0 0 0 1 0 0 0 1 49.286172063356425 21.653005113536601 5.0262435436283681 1 rotate no_reflect no_shear #
lump $-1 $-1 $41 $2 #
transform $-1 1 0 0 0 1 0 0 0 1 49.286172063356425 21.653005113536601 5.0262435436283681 1 rotate no_reflect no_shear #
lump $-1 $-1 $42 $3 #
transform $-1 1 0 0 0 1 0 0 0 1 49.286172063356425 21.653005113536601 5.0262435436283681 1 rotate no_reflect no_shear #
lump $-1 $-1 $43 $4 #
transform $-1 1 0 0 0 1 0 0 0 1 49.286172063356425 21.653005113536601 5.0262435436283681 1 rotate no_reflect no_shear #
lump $-1 $-1 $44 $5 #
transform $-1 1 0 0 0 1 0 0 0 1 49.286172063356425 21.653005113536601 5.0262435436283681 1 rotate no_reflect no_shear #
lump $-1 $-1 $45 $6 #
transform $-1 1 0 0 0 1 0 0 0 1 49.286172063356425 21.653005113536601 5.0262435436283681 1 rotate no_reflect no_shear #
lump $-1 $-1 $46 $7 #
transform $-1 1 0 0 0 1 0 0 0 1 49.286172063356425 21.653005113536601 5.0262435436283681 1 rotate no_reflect no_shear #
lump $-1 $-1 $47 $8 #
transform $-1 1 0 0 0 1 0 0 0 1 49.286172063356425 21.653005113536601 5.0262435436283681 1 rotate no_reflect no_shear #
lump $-1 $-1 $48 $9 #
transform $-1 1 0 0 0 1 0 0 0 1 49.286172063356425 21.653005113536601 5.0262435436283681 1 rotate no_reflect no_shear #
lump $-1 $-1 $49 $10 #
transform $-1 1 0 0 0 1 0 0 0 1 49.286172063356425 21.653005113536601 5.0262435436283681 1 rotate no_reflect no_shear #
lump $-1 $-1 $50 $11 #
transform $-1 1 0 0 0 1 0 0 0 1 49.286172063356425 21.653005113536601 5.0262435436283681 1 rotate no_reflect no_shear #
lump $-1 $-1 $51 $12 #
transform $-1 1 0 0 0 1 0 0 0 1 49.286172063356425 21.653005113536601 5.0262435436283681 1 rotate no_reflect no_shear #
shell $-1 $-1 $-1 $52 $-1 $13 #
shell $-1 $-1 $-1 $53 $-1 $15 #
shell $-1 $-1 $-1 $54 $-1 $17 #
shell $-1 $-1 $-1 $55 $-1 $19 #
shell $-1 $-1 $-1 $56 $-1 $21 #
shell $-1 $-1 $-1 $57 $-1 $23 #
shell $-1 $-1 $-1 $58 $-1 $25 #
shell $-1 $-1 $-1 $59 $-1 $27 #
shell $-1 $-1 $-1 $60 $-1 $29 #
shell $-1 $-1 $-1 $61 $-1 $31 #
shell $-1 $-1 $-1 $62 $-1 $33 #
shell $-1 $-1 $-1 $63 $-1 $35 #
shell $-1 $-1 $-1 $64 $-1 $37 #
face $-1 $65 $66 $39 $-1 $67 forward single #
face $-1 $68 $69 $40 $-1 $70 reversed single #
face $-1 $71 $72 $41 $-1 $73 reversed single #
face $-1 $74 $75 $42 $-1 $76 reversed single #
face $-1 $77 $78 $43 $-1 $79 forward single #
face $-1 $80 $81 $44 $-1 $82 forward single #
face $-1 $83 $84 $45 $-1 $85 forward single #
face $-1 $86 $87 $46 $-1 $88 reversed single #
face $-1 $89 $90 $47 $-1 $91 forward single #
face $-1 $92 $93 $48 $-1 $94 forward single #
face $-1 $95 $96 $49 $-1 $97 reversed single #
face $-1 $98 $99 $50 $-1 $100 forward single #
face $-1 $101 $102 $51 $-1 $103 forward single #
face $-1 $104 $105 $39 $-1 $106 reversed single #
loop $-1 $-1 $107 $52 #
plane-surface $-1 0 0 5.0262435436283681 0 0 1 1 0 0 forward_v I I I I #
face $-1 $108 $109 $40 $-1 $110 reversed single #
loop $-1 $-1 $111 $53 #
plane-surface $-1 -46.779021898987338 0 2.0262435436283681 0 0 1 1 0 0 forward_v I I I I #
face $-1 $112 $113 $41 $-1 $114 reversed single #
loop $-1 $-1 $115 $54 #
plane-surface $-1 46.779021898987331 0 2.0262435436283681 0 0 1 1 0 0 forward_v I I I I #
face $-1 $116 $117 $42 $-1 $118 reversed single #
loop $-1 $-1 $119 $55 #
plane-surface $-1 -30.798857709432351 -70.939177837203175 87.243986248024711 -1 0 0 0 -0.50000000669873634 0.8660253999169214 forward_v I I I I #
face $-1 $120 $121 $43 $-1 $122 forward single #
loop $-1 $123 $124 $56 #
cone-surface $-1 -41.577268929581066 -17.927087874258028 1.7211765656470668 0 0.50000000669873634 -0.8660253999169214 1 0 0 1 I I 0 1 1 forward I I I I #
face $-1 $125 $126 $44 $-1 $127 forward single #
loop $-1 $128 $129 $57 #
cone-surface $-1 -37.535364722025299 -17.927087874258028 1.7211765656470668 0 0.50000000669873634 -0.8660253999169214 1 0 0 1 I I 0 1 1 forward I I I I #
face $-1 $130 $131 $45 $-1 $132 forward single #
loop $-1 $133 $134 $58 #
cone-surface $-1 -33.493460514469533 -17.927087874258028 1.7211765656470668 0 0.50000000669873634 -0.8660253999169214 1 0 0 1 I I 0 1 1 forward I I I I #
face $-1 $135 $136 $46 $-1 $137 reversed single #
loop $-1 $-1 $138 $59 #
plane-surface $-1 -15.528243555881041 72.667231417933209 94.897884877643889 1 0 0 0 -0.78801076186113728 -0.61566146476048833 forward_v I I I I #
face $-1 $139 $140 $47 $-1 $141 forward single #
loop $-1 $142 $143 $60 #
cone-surface $-1 -12.408604223199028 18.735414419824565 1.7842528070043902 0 -0.78801076186113728 -0.61566146476048833 1.5 0 0 1 I I 0 1 1.5 forward I I I I #
face $-1 $144 $145 $48 $-1 $146 forward single #
loop $-1 $147 $148 $61 #
cone-surface $-1 -7.7291452241760084 18.735414419824565 1.7842528070043902 0 -0.78801076186113728 -0.61566146476048833 1.5 0 0 1 I I 0 1 1.5 forward I I I I #
face $-1 $149 $150 $49 $-1 $151 reversed single #
loop $-1 $-1 $152 $62 #
plane-surface $-1 4.6095058914939884 72.667231417933209 94.897884877643889 1 0 0 0 -0.78801076186113728 -0.61566146476048833 forward_v I I I I #
face $-1 $153 $154 $50 $-1 $155 forward single #
loop $-1 $156 $157 $63 #
cone-surface $-1 7.7291452241760012 18.735414419824565 1.7842528070043902 0 -0.78801076186113728 -0.61566146476048833 1.5 0 0 1 I I 0 1 1.5 forward I I I I #
face $-1 $158 $159 $51 $-1 $160 forward single #
loop $-1 $161 $162 $64 #
cone-surface $-1 12.408604223199021 18.735414419824565 1.7842528070043902 0 -0.78801076186113728 -0.61566146476048833 1.5 0 0 1 I I 0 1 1.5 forward I I I I #
face $-1 $163 $164 $39 $-1 $165 reversed single #
loop $-1 $-1 $166 $65 #
plane-surface $-1 0 0 -5.0262435436283681 0 0 1 1 0 0 forward_v I I I I #
coedge $-1 $167 $168 $169 $170 forward $66 $-1 #
face $-1 $171 $172 $40 $-1 $173 reversed single #
loop $-1 $-1 $174 $68 #
plane-surface $-1 -44.271871734618252 0 3.5262435436283681 -1 0 0 0 0 1 forward_v I I I I #
coedge $-1 $175 $176 $174 $177 forward $69 $-1 #
face $-1 $178 $179 $41 $-1 $180 forward single #
loop $-1 $-1 $181 $71 #
plane-surface $-1 44.271871734618244 0 3.5262435436283681 1 0 0 0 0 -1 forward_v I I I I #
coedge $-1 $182 $183 $184 $185 reversed $72 $-1 #
face $-1 $186 $187 $42 $-1 $188 forward single #
loop $-1 $-1 $189 $74 #
plane-surface $-1 -37.535364722025299 -21.653005113536608 1.8778325049398177 0 -0.50000000669873634 0.8660253999169214 1 0 0 forward_v I I I I #
coedge $-1 $190 $191 $192 $193 reversed $75 $-1 #
face $-1 $-1 $194 $43 $-1 $195 forward single #
loop $-1 $196 $197 $77 #
cone-surface $-1 -41.577268929581066 -16.677774523983597 -0.44269759294841471 0 0.50000000669873634 -0.8660253999169214 0.5 0 0 1 I I -0.70710678118654746 0.70710678118654746 0.5 forward I I I I #
loop $-1 $-1 $198 $56 #
coedge $-1 $124 $124 $199 $200 reversed $78 $-1 #
face $-1 $-1 $201 $44 $-1 $202 forward single #
loop $-1 $203 $204 $80 #
cone-surface $-1 -37.535364722025299 -16.677774523983597 -0.44269759294841471 0 0.50000000669873634 -0.8660253999169214 0.5 0 0 1 I I -0.70710678118654746 0.70710678118654746 0.5 forward I I I I #
loop $-1 $-1 $205 $57 #
coedge $-1 $129 $129 $206 $207 reversed $81 $-1 #
face $-1 $-1 $208 $45 $-1 $209 forward single #
loop $-1 $210 $211 $83 #
cone-surface $-1 -33.493460514469533 -16.677774523983597 -0.44269759294841471 0 0.50000000669873634 -0.8660253999169214 0.5 0 0 1 I I -0.70710678118654746 0.70710678118654746 0.5 forward I I I I #
loop $-1 $-1 $212 $58 #
coedge $-1 $134 $134 $213 $214 reversed $84 $-1 #
face $-1 $215 $216 $46 $-1 $217 reversed single #
loop $-1 $-1 $218 $86 #
plane-surface $-1 -10.068874723687514 -5.0088365757959821 34.21069110771694 0 0.78801076186113728 0.61566146476048833 1 0 0 forward_v I I I I #
coedge $-1 $219 $220 $221 $222 reversed $87 $-1 #
face $-1 $-1 $223 $47 $-1 $224 forward single #
loop $-1 $225 $226 $89 #
cone-surface $-1 -12.408604223199028 17.157042114768267 0.55109324586683783 0 -0.78801076186113728 -0.61566146476048833 0.75 0 0 1 I I -0.70710678118654757 0.70710678118654757 0.75 forward I I I I #
loop $-1 $-1 $227 $60 #
coedge $-1 $143 $143 $228 $229 reversed $90 $-1 #
face $-1 $-1 $230 $48 $-1 $231 forward single #
loop $-1 $232 $233 $92 #
cone-surface $-1 -7.7291452241760084 17.157042114768267 0.55109324586683783 0 -0.78801076186113728 -0.61566146476048833 0.75 0 0 1 I I -0.70710678118654757 0.70710678118654757 0.75 forward I I I I #
loop $-1 $-1 $234 $61 #
coedge $-1 $148 $148 $235 $236 reversed $93 $-1 #
face $-1 $237 $238 $49 $-1 $239 reversed single #
loop $-1 $-1 $240 $95 #
plane-surface $-1 10.068874723687514 -5.0088365757959821 34.21069110771694 0 0.78801076186113728 0.61566146476048833 1 0 0 forward_v I I I I #
coedge $-1 $241 $242 $243 $244 reversed $96 $-1 #
face $-1 $-1 $245 $50 $-1 $246 forward single #
loop $-1 $247 $248 $98 #
cone-surface $-1 7.7291452241760012 17.157042114768267 0.55109324586683783 0 -0.78801076186113728 -0.61566146476048833 0.75 0 0 1 I I -0.70710678118654757 0.70710678118654757 0.75 forward I I I I #
loop $-1 $-1 $249 $63 #
coedge $-1 $157 $157 $250 $251 reversed $99 $-1 #
face $-1 $-1 $252 $51 $-1 $253 forward single #
loop $-1 $254 $255 $101 #
cone-surface $-1 12.408604223199021 17.157042114768267 0.55109324586683783 0 -0.78801076186113728 -0.61566146476048833 0.75 0 0 1 I I -0.70710678118654757 0.70710678118654757 0.75 forward I I I I #
loop $-1 $-1 $256 $64 #
coedge $-1 $162 $162 $257 $258 reversed $102 $-1 #
face $-1 $259 $260 $39 $-1 $261 reversed single #
loop $-1 $-1 $262 $104 #
plane-surface $-1 0 -21.653005113536601 0 0 1 0 0 0 1 forward_v I I I I #
coedge $-1 $263 $264 $265 $266 forward $105 $-1 #
coedge $-1 $267 $107 $268 $269 forward $66 $-1 #
coedge $-1 $107 $267 $270 $271 forward $66 $-1 #
coedge $-1 $272 $273 $107 $170 reversed $274 $-1 #
edge $-1 $275 -21.653005113536601 $276 21.653005113536601 $169 $277 forward 7 unknown #
face $-1 $278 $279 $40 $-1 $280 reversed single #
loop $-1 $-1 $281 $108 #
plane-surface $-1 0 21.653005113536601 0 0 -1 0 0 0 -1 forward_v I I I I #
coedge $-1 $282 $283 $111 $177 reversed $109 $-1 #
coedge $-1 $284 $111 $285 $286 reversed $69 $-1 #
coedge $-1 $111 $284 $287 $288 reversed $69 $-1 #
edge $-1 $289 -21.653005113536601 $290 21.653005113536601 $174 $291 forward 7 unknown #
face $-1 $292 $293 $41 $-1 $294 reversed single #
loop $-1 $-1 $295 $112 #
plane-surface $-1 0 0 5.0262435436283681 0 0 1 1 0 0 forward_v I I I I #
coedge $-1 $296 $297 $298 $299 reversed $113 $-1 #
coedge $-1 $300 $115 $301 $302 reversed $72 $-1 #
coedge $-1 $115 $300 $303 $304 reversed $72 $-1 #
coedge $-1 $305 $306 $115 $185 forward $307 $-1 #
edge $-1 $308 -21.653005113536601 $309 21.653005113536601 $184 $310 forward 7 unknown #
face $-1 $311 $312 $42 $-1 $313 forward single #
loop $-1 $-1 $192 $116 #
plane-surface $-1 0 0 5.0262435436283681 0 0 1 1 0 0 forward_v I I I I #
coedge $-1 $314 $315 $316 $317 reversed $117 $-1 #
coedge $-1 $191 $119 $318 $319 reversed $75 $-1 #
coedge $-1 $119 $190 $314 $320 reversed $75 $-1 #
coedge $-1 $316 $321 $119 $193 forward $187 $-1 #
edge $-1 $322 13.816583805064987 $323 19.26979158977198 $192 $324 forward 7 unknown #
loop $-1 $-1 $199 $120 #
plane-surface $-1 -37.535364722025299 -21.653005113536608 1.8778325049398177 0 -0.50000000669873634 0.8660253999169214 1 0 0 forward_v I I I I #
loop $-1 $-1 $325 $77 #
coedge $-1 $197 $197 $198 $326 reversed $121 $-1 #
coedge $-1 $198 $198 $197 $326 forward $123 $-1 #
coedge $-1 $199 $199 $124 $200 forward $194 $-1 #
edge $-1 $327 1.0464545872500812e-015 $327 6.2831853071796013 $199 $328 forward 7 unknown #
loop $-1 $-1 $206 $125 #
plane-surface $-1 -37.535364722025299 -21.653005113536608 1.8778325049398177 0 -0.50000000669873634 0.8660253999169214 1 0 0 forward_v I I I I #
loop $-1 $-1 $329 $80 #
coedge $-1 $204 $204 $205 $330 reversed $126 $-1 #
coedge $-1 $205 $205 $204 $330 forward $128 $-1 #
coedge $-1 $206 $206 $129 $207 forward $201 $-1 #
edge $-1 $331 1.0464545872500812e-015 $331 6.2831853071796013 $206 $332 forward 7 unknown #
loop $-1 $-1 $213 $130 #
plane-surface $-1 -37.535364722025299 -21.653005113536608 1.8778325049398177 0 -0.50000000669873634 0.8660253999169214 1 0 0 forward_v I I I I #
loop $-1 $-1 $333 $83 #
coedge $-1 $211 $211 $212 $334 reversed $131 $-1 #
coedge $-1 $212 $212 $211 $334 forward $133 $-1 #
coedge $-1 $213 $213 $134 $214 forward $208 $-1 #
edge $-1 $335 1.0464545872500812e-015 $335 6.2831853071796013 $213 $336 forward 7 unknown #
face $-1 $337 $338 $46 $-1 $339 reversed single #
loop $-1 $-1 $340 $135 #
plane-surface $-1 -4.6095058914939884 72.667231417933209 94.897884877643889 -1 0 0 0 0.78801076186113728 0.61566146476048833 forward_v I I I I #
coedge $-1 $341 $342 $343 $344 reversed $136 $-1 #
coedge $-1 $220 $138 $345 $346 reversed $87 $-1 #
coedge $-1 $138 $219 $341 $347 reversed $87 $-1 #
coedge $-1 $343 $348 $138 $222 forward $349 $-1 #
edge $-1 $350 14.680610595430004 $351 18.541063515533189 $221 $352 forward 7 unknown #
loop $-1 $-1 $228 $139 #
plane-surface $-1 -10.068874723687514 -5.0088365757959821 34.21069110771694 0 0.78801076186113728 0.61566146476048833 1 0 0 forward_v I I I I #
loop $-1 $-1 $353 $89 #
coedge $-1 $226 $226 $227 $354 reversed $140 $-1 #
coedge $-1 $227 $227 $226 $354 forward $142 $-1 #
coedge $-1 $228 $228 $143 $229 forward $223 $-1 #
edge $-1 $355 -8.748012390117625e-016 $355 6.2831853071795996 $228 $356 forward 7 unknown #
loop $-1 $-1 $235 $144 #
plane-surface $-1 -10.068874723687514 -5.0088365757959821 34.21069110771694 0 0.78801076186113728 0.61566146476048833 1 0 0 forward_v I I I I #
loop $-1 $-1 $357 $92 #
coedge $-1 $233 $233 $234 $358 reversed $145 $-1 #
coedge $-1 $234 $234 $233 $358 forward $147 $-1 #
coedge $-1 $235 $235 $148 $236 forward $230 $-1 #
edge $-1 $359 -8.748012390117625e-016 $359 6.2831853071795996 $235 $360 forward 7 unknown #
face $-1 $361 $362 $49 $-1 $363 forward single #
loop $-1 $-1 $364 $149 #
plane-surface $-1 15.528243555881041 72.667231417933209 94.897884877643889 -1 0 0 0 0.78801076186113728 0.61566146476048833 forward_v I I I I #
coedge $-1 $365 $366 $367 $368 reversed $150 $-1 #
coedge $-1 $242 $152 $369 $370 reversed $96 $-1 #
coedge $-1 $152 $241 $365 $371 reversed $96 $-1 #
coedge $-1 $367 $372 $152 $244 forward $362 $-1 #
edge $-1 $373 14.680610595430004 $374 18.541063515533189 $243 $375 forward 7 unknown #
loop $-1 $-1 $250 $153 #
plane-surface $-1 10.068874723687514 -5.0088365757959821 34.21069110771694 0 0.78801076186113728 0.61566146476048833 1 0 0 forward_v I I I I #
loop $-1 $-1 $376 $98 #
coedge $-1 $248 $248 $249 $377 reversed $154 $-1 #
coedge $-1 $249 $249 $248 $377 forward $156 $-1 #
coedge $-1 $250 $250 $157 $251 forward $245 $-1 #
edge $-1 $378 -8.748012390117625e-016 $378 6.2831853071795996 $250 $379 forward 7 unknown #
loop $-1 $-1 $257 $158 #
plane-surface $-1 10.068874723687514 -5.0088365757959821 34.21069110771694 0 0.78801076186113728 0.61566146476048833 1 0 0 forward_v I I I I #
loop $-1 $-1 $380 $101 #
coedge $-1 $255 $255 $256 $381 reversed $159 $-1 #
coedge $-1 $256 $256 $255 $381 forward $161 $-1 #
coedge $-1 $257 $257 $162 $258 forward $252 $-1 #
edge $-1 $382 -8.748012390117625e-016 $382 6.2831853071795996 $257 $383 forward 7 unknown #
face $-1 $384 $385 $39 $-1 $386 reversed single #
loop $-1 $-1 $387 $163 #
plane-surface $-1 -49.286172063356425 0 0 1 0 0 0 0 -1 forward_v I I I I #
coedge $-1 $388 $270 $389 $390 forward $164 $-1 #
coedge $-1 $391 $166 $388 $392 forward $105 $-1 #
coedge $-1 $166 $391 $393 $394 forward $105 $-1 #
coedge $-1 $273 $272 $166 $266 reversed $274 $-1 #
edge $-1 $395 -21.653005113536601 $396 21.653005113536601 $265 $397 forward 7 unknown #
coedge $-1 $168 $167 $398 $399 forward $66 $-1 #
coedge $-1 $400 $401 $167 $269 reversed $385 $-1 #
edge $-1 $276 -49.286172063356425 $402 49.286172063356425 $268 $403 forward 7 unknown #
coedge $-1 $262 $404 $168 $271 reversed $164 $-1 #
edge $-1 $405 -49.286172063356425 $275 49.286172063356425 $270 $406 forward 7 unknown #
coedge $-1 $265 $169 $404 $407 forward $274 $-1 #
coedge $-1 $169 $265 $400 $408 reversed $274 $-1 #
loop $-1 $-1 $272 $384 #
vertex $-1 $170 $409 #
vertex $-1 $170 $410 #
straight-curve $-1 49.286172063356425 0 5.0262435436283681 0 1 0 I I #
face $-1 $411 $412 $40 $-1 $413 forward single #
loop $-1 $-1 $414 $171 #
plane-surface $-1 -49.286172063356425 0 0 1 0 0 0 0 -1 forward_v I I I I #
coedge $-1 $287 $415 $282 $416 forward $172 $-1 #
coedge $-1 $417 $174 $281 $416 reversed $109 $-1 #
coedge $-1 $174 $417 $418 $419 reversed $109 $-1 #
coedge $-1 $176 $175 $414 $420 reversed $69 $-1 #
coedge $-1 $418 $421 $175 $286 forward $422 $-1 #
edge $-1 $423 -25.896661113862756 $290 -20.882360785124582 $285 $424 forward 7 unknown #
coedge $-1 $425 $281 $176 $288 forward $172 $-1 #
edge $-1 $289 20.882360785124582 $426 25.896661113862756 $287 $427 forward 7 unknown #
vertex $-1 $288 $428 #
vertex $-1 $286 $429 #
straight-curve $-1 -44.271871734618252 0 2.0262435436283681 0 -1 0 I I #
face $-1 $430 $431 $41 $-1 $432 reversed single #
loop $-1 $-1 $433 $178 #
plane-surface $-1 0 -21.653005113536601 0 0 1 0 0 0 1 forward_v I I I I #
coedge $-1 $434 $435 $297 $436 forward $179 $-1 #
coedge $-1 $437 $181 $300 $438 reversed $113 $-1 #
coedge $-1 $181 $437 $295 $436 reversed $113 $-1 #
coedge $-1 $439 $303 $181 $299 forward $431 $-1 #
edge $-1 $440 0.26312177181418406 $441 3.2631217718141841 $298 $442 forward 7 unknown #
coedge $-1 $183 $182 $296 $438 forward $72 $-1 #
coedge $-1 $443 $433 $182 $302 forward $293 $-1 #
edge $-1 $444 20.882360785124579 $308 25.896661113862752 $301 $445 forward 7 unknown #
coedge $-1 $298 $446 $183 $304 forward $431 $-1 #
edge $-1 $309 -25.896661113862752 $440 -20.882360785124579 $303 $447 forward 7 unknown #
coedge $-1 $448 $184 $446 $449 reversed $307 $-1 #
coedge $-1 $184 $448 $443 $450 forward $307 $-1 #
loop $-1 $-1 $184 $430 #
vertex $-1 $302 $451 #
vertex $-1 $185 $452 #
straight-curve $-1 49.286172063356425 0 2.0262435436283681 0 1 0 I I #
face $-1 $-1 $453 $42 $-1 $454 reversed single #
loop $-1 $-1 $455 $186 #
plane-surface $-1 -44.271871734618252 0 3.5262435436283681 -1 0 0 0 0 1 forward_v I I I I #
coedge $-1 $456 $189 $191 $320 forward $117 $-1 #
coedge $-1 $189 $456 $455 $457 forward $117 $-1 #
coedge $-1 $458 $192 $189 $317 forward $187 $-1 #
edge $-1 $323 12.031175348419701 $459 25.504189373605595 $316 $460 forward 7 unknown #
coedge $-1 $461 $462 $190 $319 forward $453 $-1 #
edge $-1 $463 -41.744160619072531 $322 -38.595749580383988 $318 $464 forward 7 unknown #
edge $-1 $323 -6.2968219930156 $463 -8.1518820400458524e-015 $191 $465 forward 7 unknown #
coedge $-1 $192 $458 $461 $466 forward $187 $-1 #
vertex $-1 $319 $467 #
vertex $-1 $193 $468 #
straight-curve $-1 -30.798857709432351 -35.469588918601588 5.0262435436283681 0 1 0 I I #
coedge $-1 $325 $325 $-1 $469 reversed $196 $-1 #
edge $-1 $470 0 $470 6.2831853071796004 $197 $471 forward 7 unknown #
vertex $-1 $200 $472 #
ellipse-curve $-1 -41.577268929581066 -18.926401221183099 3.4520380242840982 0 -0.50000000669873634 0.8660253999169214 1 0 0 1 I I #
coedge $-1 $329 $329 $-1 $473 reversed $203 $-1 #
edge $-1 $474 0 $474 6.2831853071796004 $204 $475 forward 7 unknown #
vertex $-1 $207 $476 #
ellipse-curve $-1 -37.535364722025299 -18.926401221183099 3.4520380242840982 0 -0.50000000669873634 0.8660253999169214 1 0 0 1 I I #
coedge $-1 $333 $333 $-1 $477 reversed $210 $-1 #
edge $-1 $478 0 $478 6.2831853071796004 $211 $479 forward 7 unknown #
vertex $-1 $214 $480 #
ellipse-curve $-1 -33.493460514469533 -18.926401221183099 3.4520380242840982 0 -0.50000000669873634 0.8660253999169214 1 0 0 1 I I #
face $-1 $-1 $349 $46 $-1 $481 forward single #
loop $-1 $-1 $482 $215 #
plane-surface $-1 0 21.653005113536601 0 0 -1 0 0 0 -1 forward_v I I I I #
coedge $-1 $483 $484 $485 $486 reversed $216 $-1 #
coedge $-1 $487 $218 $220 $347 forward $136 $-1 #
coedge $-1 $218 $487 $483 $488 forward $136 $-1 #
coedge $-1 $485 $221 $218 $344 forward $349 $-1 #
edge $-1 $351 -10.493806194037283 $489 0.42493147034976886 $343 $490 forward 7 unknown #
coedge $-1 $491 $492 $219 $346 forward $338 $-1 #
edge $-1 $493 -47.363853443307171 $350 -42.422698895193577 $345 $494 forward 7 unknown #
edge $-1 $351 37.035595167710966 $493 43.306010227073216 $220 $495 forward 7 unknown #
coedge $-1 $221 $485 $491 $496 forward $349 $-1 #
loop $-1 $-1 $485 $337 #
vertex $-1 $346 $497 #
vertex $-1 $222 $498 #
straight-curve $-1 -15.528243555881041 36.333615708966605 5.0262435436283681 0 -1 0 I I #
coedge $-1 $353 $353 $-1 $499 reversed $225 $-1 #
edge $-1 $500 0 $500 6.2831853071796004 $226 $501 forward 7 unknown #
vertex $-1 $229 $502 #
ellipse-curve $-1 -12.408604223199028 19.722778653485005 2.5556662695715717 0 0.78801076186113728 0.61566146476048833 1.5 0 0 1 I I #
coedge $-1 $357 $357 $-1 $503 reversed $232 $-1 #
edge $-1 $504 0 $504 6.2831853071796004 $233 $505 forward 7 unknown #
vertex $-1 $236 $506 #
ellipse-curve $-1 -7.7291452241760084 19.722778653485005 2.5556662695715717 0 0.78801076186113728 0.61566146476048833 1.5 0 0 1 I I #
face $-1 $-1 $507 $49 $-1 $508 reversed single #
loop $-1 $-1 $243 $237 #
plane-surface $-1 0 0 5.0262435436283681 0 0 1 1 0 0 forward_v I I I I #
coedge $-1 $509 $510 $511 $512 reversed $238 $-1 #
coedge $-1 $513 $240 $242 $371 forward $150 $-1 #
coedge $-1 $240 $513 $509 $514 forward $150 $-1 #
coedge $-1 $511 $243 $240 $368 forward $362 $-1 #
edge $-1 $374 -0.42493147034976886 $515 10.493806194037283 $367 $516 forward 7 unknown #
coedge $-1 $517 $518 $241 $370 forward $507 $-1 #
edge $-1 $519 -47.363853443307171 $373 -42.422698895193577 $369 $520 forward 7 unknown #
edge $-1 $374 37.035595167710966 $519 43.306010227073216 $242 $521 forward 7 unknown #
coedge $-1 $243 $511 $517 $522 forward $362 $-1 #
vertex $-1 $244 $523 #
vertex $-1 $244 $524 #
straight-curve $-1 4.6095058914939884 36.333615708966605 5.0262435436283681 0 -1 0 I I #
coedge $-1 $376 $376 $-1 $525 reversed $247 $-1 #
edge $-1 $526 0 $526 6.2831853071796004 $248 $527 forward 7 unknown #
vertex $-1 $251 $528 #
ellipse-curve $-1 7.7291452241760012 19.722778653485005 2.5556662695715717 0 0.78801076186113728 0.61566146476048833 1.5 0 0 1 I I #
coedge $-1 $380 $380 $-1 $529 reversed $254 $-1 #
edge $-1 $530 0 $530 6.2831853071796004 $255 $531 forward 7 unknown #
vertex $-1 $258 $532 #
ellipse-curve $-1 12.408604223199021 19.722778653485005 2.5556662695715717 0 0.78801076186113728 0.61566146476048833 1.5 0 0 1 I I #
face $-1 $-1 $274 $39 $-1 $533 reversed single #
loop $-1 $-1 $400 $259 #
plane-surface $-1 0 21.653005113536601 0 0 -1 0 0 0 -1 forward_v I I I I #
coedge $-1 $534 $398 $401 $535 forward $260 $-1 #
coedge $-1 $404 $262 $263 $392 reversed $164 $-1 #
coedge $-1 $398 $534 $262 $390 reversed $260 $-1 #
edge $-1 $405 -5.0262435436283681 $536 5.0262435436283681 $389 $537 forward 7 unknown #
coedge $-1 $264 $263 $534 $538 forward $105 $-1 #
edge $-1 $396 -49.286172063356425 $536 49.286172063356425 $388 $539 forward 7 unknown #
coedge $-1 $401 $400 $264 $394 reversed $385 $-1 #
edge $-1 $540 -49.286172063356425 $395 49.286172063356425 $393 $541 forward 7 unknown #
vertex $-1 $266 $542 #
vertex $-1 $407 $543 #
straight-curve $-1 49.286172063356425 0 -5.0262435436283681 0 -1 0 I I #
coedge $-1 $387 $389 $267 $399 reversed $260 $-1 #
edge $-1 $402 -21.653005113536601 $405 21.653005113536601 $398 $544 forward 7 unknown #
coedge $-1 $393 $268 $273 $408 forward $385 $-1 #
coedge $-1 $268 $393 $387 $535 reversed $385 $-1 #
vertex $-1 $269 $545 #
straight-curve $-1 0 21.653005113536601 5.0262435436283681 -1 0 0 I I #
coedge $-1 $270 $388 $272 $407 reversed $164 $-1 #
vertex $-1 $399 $546 #
straight-curve $-1 0 -21.653005113536601 5.0262435436283681 1 0 0 I I #
edge $-1 $275 -5.0262435436283681 $396 5.0262435436283681 $272 $547 forward 7 unknown #
edge $-1 $276 -5.0262435436283681 $395 5.0262435436283681 $273 $548 forward 7 unknown #
point $-1 49.286172063356425 -21.653005113536601 5.0262435436283681 #
point $-1 49.286172063356425 21.653005113536601 5.0262435436283681 #
face $-1 $-1 $422 $40 $-1 $549 reversed single #
loop $-1 $-1 $550 $278 #
plane-surface $-1 0 0 5.0262435436283681 0 0 1 1 0 0 forward_v I I I I #
coedge $-1 $551 $552 $284 $420 forward $279 $-1 #
coedge $-1 $281 $425 $553 $554 reversed $172 $-1 #
edge $-1 $555 -3.2631217718141841 $289 -0.26312177181418406 $281 $556 forward 7 unknown #
coedge $-1 $283 $282 $550 $557 reversed $109 $-1 #
coedge $-1 $558 $285 $283 $419 forward $422 $-1 #
edge $-1 $290 0.26312177181418406 $559 3.2631217718141841 $418 $560 forward 7 unknown #
edge $-1 $426 -21.653005113536601 $423 21.653005113536601 $414 $561 forward 7 unknown #
coedge $-1 $285 $558 $551 $562 forward $422 $-1 #
loop $-1 $-1 $418 $411 #
vertex $-1 $420 $563 #
straight-curve $-1 -23.389510949493669 -21.653005113536601 2.0262435436283681 1 0 0 I I #
coedge $-1 $415 $287 $552 $564 reversed $172 $-1 #
vertex $-1 $420 $565 #
straight-curve $-1 -23.389510949493669 21.653005113536601 2.0262435436283681 -1 0 0 I I #
point $-1 -44.271871734618252 21.653005113536601 2.0262435436283681 #
point $-1 -44.271871734618252 -21.653005113536601 2.0262435436283681 #
face $-1 $-1 $307 $41 $-1 $566 reversed single #
loop $-1 $-1 $298 $292 #
plane-surface $-1 0 21.653005113536601 0 0 -1 0 0 0 -1 forward_v I I I I #
coedge $-1 $301 $567 $437 $568 forward $293 $-1 #
coedge $-1 $569 $295 $567 $570 forward $179 $-1 #
coedge $-1 $295 $569 $439 $571 forward $179 $-1 #
edge $-1 $441 -21.653005113536601 $572 21.653005113536601 $295 $573 forward 7 unknown #
coedge $-1 $297 $296 $433 $568 reversed $113 $-1 #
edge $-1 $444 -21.653005113536601 $440 21.653005113536601 $296 $574 forward 7 unknown #
coedge $-1 $446 $298 $435 $571 reversed $431 $-1 #
vertex $-1 $304 $575 #
vertex $-1 $299 $576 #
straight-curve $-1 44.271871734618244 21.653005113536601 1.7631217718141841 0 0 1 I I #
coedge $-1 $567 $301 $306 $450 reversed $293 $-1 #
vertex $-1 $302 $577 #
straight-curve $-1 23.389510949493665 -21.653005113536601 2.0262435436283681 1 0 0 I I #
coedge $-1 $303 $439 $305 $449 forward $431 $-1 #
straight-curve $-1 23.389510949493665 21.653005113536601 2.0262435436283681 -1 0 0 I I #
coedge $-1 $306 $305 $569 $578 reversed $307 $-1 #
edge $-1 $579 -5.0262435436283681 $309 -2.0262435436283681 $305 $580 forward 7 unknown #
edge $-1 $581 -5.0262435436283681 $308 -2.0262435436283681 $306 $582 forward 7 unknown #
point $-1 49.286172063356418 -21.653005113536601 2.0262435436283681 #
point $-1 49.286172063356418 21.653005113536601 2.0262435436283681 #
loop $-1 $-1 $318 $311 #
plane-surface $-1 0 -21.653005113536601 0 0 1 0 0 0 1 forward_v I I I I #
coedge $-1 $583 $584 $315 $457 reversed $312 $-1 #
coedge $-1 $315 $314 $462 $585 reversed $117 $-1 #
edge $-1 $586 8.1518820400458524e-015 $459 6.2968219930156 $455 $587 forward 7 unknown #
coedge $-1 $321 $316 $584 $588 forward $187 $-1 #
vertex $-1 $588 $589 #
straight-curve $-1 -18.76768236101265 -16.199797328829604 5.0262435436283681 -1 0 0 I I #
coedge $-1 $590 $318 $321 $466 reversed $453 $-1 #
coedge $-1 $318 $590 $456 $585 forward $453 $-1 #
vertex $-1 $319 $591 #
straight-curve $-1 -30.798857709432351 -21.653005113536601 43.621993124012356 0 0 1 I I #
straight-curve $-1 -30.798857709432351 -21.653005113536608 1.8778325049398177 0 -0.8660253999169214 -0.50000000669873634 I I #
edge $-1 $592 -44.271871734618252 $322 -30.798857709432351 $461 $593 forward 7 unknown #
point $-1 -30.798857709432351 -21.653005113536601 5.0262435436283681 #
point $-1 -30.798857709432351 -16.199797328829607 5.0262435436283681 #
edge $-1 $594 1 $594 0 $325 $-1 forward 7 unknown #
vertex $-1 $326 $595 #
ellipse-curve $-1 -41.577268929581066 -16.927774527332964 -0.0096848929899540082 0 -0.50000000669873634 0.8660253999169214 1 0 0 1 I I #
point $-1 -40.577268929581066 -18.926401221183092 3.452038024284088 #
edge $-1 $596 1 $596 0 $329 $-1 forward 7 unknown #
vertex $-1 $330 $597 #
ellipse-curve $-1 -37.535364722025299 -16.927774527332964 -0.0096848929899540082 0 -0.50000000669873634 0.8660253999169214 1 0 0 1 I I #
point $-1 -36.535364722025299 -18.926401221183092 3.452038024284088 #
edge $-1 $598 1 $598 0 $333 $-1 forward 7 unknown #
vertex $-1 $334 $599 #
ellipse-curve $-1 -33.493460514469533 -16.927774527332964 -0.0096848929899540082 0 -0.50000000669873634 0.8660253999169214 1 0 0 1 I I #
point $-1 -32.493460514469533 -18.926401221183092 3.452038024284088 #
plane-surface $-1 0 0 5.0262435436283681 0 0 1 1 0 0 forward_v I I I I #
coedge $-1 $492 $491 $484 $600 forward $338 $-1 #
coedge $-1 $484 $340 $342 $488 reversed $216 $-1 #
coedge $-1 $340 $483 $482 $600 reversed $216 $-1 #
coedge $-1 $348 $343 $340 $486 forward $349 $-1 #
edge $-1 $489 -18.541063515533189 $601 -14.680610595430004 $485 $602 forward 7 unknown #
coedge $-1 $342 $341 $492 $603 reversed $136 $-1 #
edge $-1 $604 -43.306010227073216 $489 -37.035595167710966 $483 $605 forward 7 unknown #
vertex $-1 $344 $606 #
straight-curve $-1 -5.0344373618437572 17.792552193433416 5.0262435436283681 1 0 0 I I #
coedge $-1 $482 $345 $348 $496 reversed $338 $-1 #
coedge $-1 $345 $482 $487 $603 forward $338 $-1 #
vertex $-1 $346 $607 #
straight-curve $-1 -15.528243555881041 21.653005113536601 47.448942438821945 0 0 1 I I #
straight-curve $-1 -15.528243555881041 -5.0088365757959821 34.21069110771694 0 0.61566146476048833 -0.78801076186113728 I I #
edge $-1 $601 4.6095058914939884 $350 15.528243555881041 $491 $608 forward 7 unknown #
point $-1 -15.528243555881041 21.653005113536601 5.0262435436283681 #
point $-1 -15.528243555881041 17.792552193433416 5.0262435436283681 #
edge $-1 $609 1 $609 0 $353 $-1 forward 7 unknown #
vertex $-1 $354 $610 #
ellipse-curve $-1 -12.408604223199028 17.748050186164118 1.0128393444372041 0 0.78801076186113728 0.61566146476048833 1.5 0 0 1 I I #
point $-1 -10.908604223199028 19.722778653485008 2.5556662695715762 #
edge $-1 $611 1 $611 0 $357 $-1 forward 7 unknown #
vertex $-1 $358 $612 #
ellipse-curve $-1 -7.7291452241760084 17.748050186164118 1.0128393444372041 0 0.78801076186113728 0.61566146476048833 1.5 0 0 1 I I #
point $-1 -6.2291452241760084 19.722778653485008 2.5556662695715762 #
loop $-1 $-1 $369 $361 #
plane-surface $-1 0 21.653005113536601 0 0 -1 0 0 0 -1 forward_v I I I I #
coedge $-1 $510 $364 $366 $514 reversed $238 $-1 #
coedge $-1 $364 $509 $613 $614 reversed $238 $-1 #
coedge $-1 $372 $367 $364 $512 forward $362 $-1 #
edge $-1 $515 -18.541063515533189 $615 -14.680610595430004 $511 $616 forward 7 unknown #
coedge $-1 $366 $365 $518 $617 reversed $150 $-1 #
edge $-1 $618 -43.306010227073216 $515 -37.035595167710966 $509 $619 forward 7 unknown #
vertex $-1 $368 $620 #
straight-curve $-1 5.0344373618437572 17.792552193433416 5.0262435436283681 1 0 0 I I #
coedge $-1 $613 $369 $372 $522 reversed $507 $-1 #
coedge $-1 $369 $613 $513 $617 forward $507 $-1 #
vertex $-1 $370 $621 #
straight-curve $-1 4.6095058914939884 21.653005113536601 47.448942438821945 0 0 1 I I #
straight-curve $-1 4.6095058914939884 -5.0088365757959821 34.21069110771694 0 0.61566146476048833 -0.78801076186113728 I I #
edge $-1 $615 -15.528243555881041 $373 -4.6095058914939884 $517 $622 forward 7 unknown #
point $-1 4.6095058914939884 21.653005113536601 5.0262435436283681 #
point $-1 4.6095058914939884 17.792552193433416 5.0262435436283681 #
edge $-1 $623 1 $623 0 $376 $-1 forward 7 unknown #
vertex $-1 $377 $624 #
ellipse-curve $-1 7.7291452241760012 17.748050186164118 1.0128393444372041 0 0.78801076186113728 0.61566146476048833 1.5 0 0 1 I I #
point $-1 9.2291452241760012 19.722778653485008 2.5556662695715762 #
edge $-1 $625 1 $625 0 $380 $-1 forward 7 unknown #
vertex $-1 $381 $626 #
ellipse-curve $-1 12.408604223199021 17.748050186164118 1.0128393444372041 0 0.78801076186113728 0.61566146476048833 1.5 0 0 1 I I #
point $-1 13.908604223199021 19.722778653485008 2.5556662695715762 #
plane-surface $-1 49.286172063356425 0 0 -1 0 0 0 0 1 forward_v I I I I #
coedge $-1 $389 $387 $391 $538 reversed $260 $-1 #
edge $-1 $402 -5.0262435436283681 $540 5.0262435436283681 $401 $627 forward 7 unknown #
vertex $-1 $538 $628 #
straight-curve $-1 -49.286172063356425 -21.653005113536601 0 0 0 -1 I I #
edge $-1 $536 -21.653005113536601 $540 21.653005113536601 $534 $629 forward 7 unknown #
straight-curve $-1 0 -21.653005113536601 -5.0262435436283681 -1 0 0 I I #
vertex $-1 $394 $630 #
straight-curve $-1 0 21.653005113536601 -5.0262435436283681 1 0 0 I I #
point $-1 49.286172063356425 21.653005113536601 -5.0262435436283681 #
point $-1 49.286172063356425 -21.653005113536601 -5.0262435436283681 #
straight-curve $-1 -49.286172063356425 0 5.0262435436283681 0 -1 0 I I #
point $-1 -49.286172063356425 21.653005113536601 5.0262435436283681 #
point $-1 -49.286172063356425 -21.653005113536601 5.0262435436283681 #
straight-curve $-1 49.286172063356425 -21.653005113536601 0 0 0 -1 I I #
straight-curve $-1 49.286172063356425 21.653005113536601 0 0 0 -1 I I #
plane-surface $-1 0 -21.653005113536601 0 0 1 0 0 0 1 forward_v I I I I #
coedge $-1 $553 $631 $417 $557 forward $412 $-1 #
coedge $-1 $632 $414 $421 $562 reversed $279 $-1 #
coedge $-1 $414 $632 $425 $564 forward $279 $-1 #
coedge $-1 $633 $550 $415 $554 forward $412 $-1 #
edge $-1 $555 44.271871734618252 $634 49.286172063356425 $415 $635 forward 7 unknown #
vertex $-1 $554 $636 #
straight-curve $-1 -44.271871734618252 21.653005113536601 1.7631217718141841 0 0 -1 I I #
edge $-1 $559 -21.653005113536601 $555 21.653005113536601 $550 $637 forward 7 unknown #
coedge $-1 $421 $418 $631 $638 reversed $422 $-1 #
vertex $-1 $419 $639 #
straight-curve $-1 -44.271871734618252 -21.653005113536601 1.7631217718141841 0 0 1 I I #
straight-curve $-1 -49.286172063356425 0 2.0262435436283681 0 -1 0 I I #
edge $-1 $640 -5.0262435436283681 $423 -2.0262435436283681 $551 $641 forward 7 unknown #
point $-1 -49.286172063356425 -21.653005113536601 2.0262435436283681 #
edge $-1 $634 -5.0262435436283681 $426 -2.0262435436283681 $425 $642 forward 7 unknown #
point $-1 -49.286172063356425 21.653005113536601 2.0262435436283681 #
plane-surface $-1 49.286172063356425 0 0 -1 0 0 0 0 1 forward_v I I I I #
coedge $-1 $433 $443 $434 $570 reversed $293 $-1 #
edge $-1 $572 -3.2631217718141841 $444 -0.26312177181418406 $433 $643 forward 7 unknown #
coedge $-1 $435 $434 $448 $578 forward $179 $-1 #
edge $-1 $572 44.271871734618244 $581 49.286172063356425 $567 $644 forward 7 unknown #
edge $-1 $579 -49.286172063356425 $441 -44.271871734618244 $439 $645 forward 7 unknown #
vertex $-1 $570 $646 #
straight-curve $-1 44.271871734618244 0 5.0262435436283681 0 -1 0 I I #
straight-curve $-1 44.271871734618244 0 2.0262435436283681 0 1 0 I I #
point $-1 44.271871734618244 21.653005113536601 2.0262435436283681 #
point $-1 44.271871734618244 21.653005113536601 5.0262435436283681 #
point $-1 44.271871734618244 -21.653005113536601 2.0262435436283681 #
edge $-1 $581 -21.653005113536601 $579 21.653005113536601 $448 $647 forward 7 unknown #
vertex $-1 $578 $648 #
straight-curve $-1 49.286172063356425 21.653005113536601 0 0 0 -1 I I #
vertex $-1 $578 $649 #
straight-curve $-1 49.286172063356425 -21.653005113536601 0 0 0 -1 I I #
coedge $-1 $584 $455 $590 $650 reversed $312 $-1 #
coedge $-1 $455 $583 $458 $588 reversed $312 $-1 #
edge $-1 $586 -25.504189373605595 $463 -12.031175348419701 $462 $651 forward 7 unknown #
vertex $-1 $650 $652 #
straight-curve $-1 -44.271871734618244 -21.653005113536608 1.8778325049398177 0 0.8660253999169214 0.50000000669873634 I I #
edge $-1 $459 16.199797328829607 $592 21.653005113536601 $458 $653 forward 7 unknown #
point $-1 -44.271871734618244 -16.199797328829607 5.0262435436283681 #
coedge $-1 $462 $461 $583 $650 forward $453 $-1 #
point $-1 -30.798857709432351 -21.653005113536601 1.8778325049398217 #
vertex $-1 $466 $654 #
straight-curve $-1 0 -21.653005113536601 5.0262435436283681 1 0 0 I I #
vertex $-1 $469 $655 #
point $-1 -40.577268929581066 -16.927774527332964 -0.0096848929899540082 #
vertex $-1 $473 $656 #
point $-1 -36.535364722025299 -16.927774527332964 -0.0096848929899540082 #
vertex $-1 $477 $657 #
point $-1 -32.493460514469533 -16.927774527332964 -0.0096848929899540082 #
edge $-1 $601 42.422698895193577 $604 47.363853443307171 $482 $658 forward 7 unknown #
vertex $-1 $496 $659 #
straight-curve $-1 -4.6095058914939884 36.333615708966605 5.0262435436283681 0 1 0 I I #
edge $-1 $604 -0.42493147034976886 $493 10.493806194037283 $492 $660 forward 7 unknown #
vertex $-1 $603 $661 #
straight-curve $-1 -4.6095058914939884 -5.0088365757959821 34.21069110771694 0 -0.61566146476048833 0.78801076186113728 I I #
point $-1 -4.6095058914939884 17.792552193433416 5.0262435436283681 #
point $-1 -15.528243555881041 21.653005113536601 0.085088995514773558 #
straight-curve $-1 0 21.653005113536601 5.0262435436283681 -1 0 0 I I #
vertex $-1 $499 $662 #
point $-1 -10.908604223199028 17.748050186164118 1.0128393444372041 #
vertex $-1 $503 $663 #
point $-1 -6.2291452241760084 17.748050186164118 1.0128393444372041 #
coedge $-1 $518 $517 $510 $614 forward $507 $-1 #
edge $-1 $615 42.422698895193577 $618 47.363853443307171 $613 $664 forward 7 unknown #
vertex $-1 $522 $665 #
straight-curve $-1 15.528243555881041 36.333615708966605 5.0262435436283681 0 1 0 I I #
edge $-1 $618 -10.493806194037283 $519 0.42493147034976886 $518 $666 forward 7 unknown #
vertex $-1 $617 $667 #
straight-curve $-1 15.528243555881041 -5.0088365757959821 34.21069110771694 0 -0.61566146476048833 0.78801076186113728 I I #
point $-1 15.528243555881041 17.792552193433416 5.0262435436283681 #
point $-1 4.6095058914939884 21.653005113536601 0.085088995514773558 #
straight-curve $-1 0 21.653005113536601 5.0262435436283681 -1 0 0 I I #
vertex $-1 $525 $668 #
point $-1 9.2291452241760012 17.748050186164118 1.0128393444372041 #
vertex $-1 $529 $669 #
point $-1 13.908604223199021 17.748050186164118 1.0128393444372041 #
straight-curve $-1 -49.286172063356425 21.653005113536601 0 0 0 -1 I I #
point $-1 -49.286172063356425 -21.653005113536601 -5.0262435436283681 #
straight-curve $-1 -49.286172063356425 0 -5.0262435436283681 0 1 0 I I #
point $-1 -49.286172063356425 21.653005113536601 -5.0262435436283681 #
coedge $-1 $550 $633 $558 $638 forward $412 $-1 #
coedge $-1 $552 $551 $633 $670 reversed $279 $-1 #
coedge $-1 $631 $553 $632 $670 forward $412 $-1 #
vertex $-1 $554 $671 #
straight-curve $-1 0 21.653005113536601 5.0262435436283681 -1 0 0 I I #
point $-1 -44.271871734618252 21.653005113536601 5.0262435436283681 #
straight-curve $-1 -44.271871734618252 0 5.0262435436283681 0 1 0 I I #
edge $-1 $640 -49.286172063356425 $559 -44.271871734618252 $558 $672 forward 7 unknown #
point $-1 -44.271871734618252 -21.653005113536601 5.0262435436283681 #
vertex $-1 $670 $673 #
straight-curve $-1 -49.286172063356425 -21.653005113536601 0 0 0 -1 I I #
straight-curve $-1 -49.286172063356425 21.653005113536601 0 0 0 -1 I I #
straight-curve $-1 44.271871734618244 -21.653005113536601 1.7631217718141841 0 0 -1 I I #
straight-curve $-1 0 -21.653005113536601 5.0262435436283681 1 0 0 I I #
straight-curve $-1 0 21.653005113536601 5.0262435436283681 -1 0 0 I I #
point $-1 44.271871734618244 -21.653005113536601 5.0262435436283681 #
straight-curve $-1 49.286172063356425 0 5.0262435436283681 0 1 0 I I #
point $-1 49.286172063356425 21.653005113536601 5.0262435436283681 #
point $-1 49.286172063356425 -21.653005113536601 5.0262435436283681 #
edge $-1 $592 38.595749580383988 $586 41.744160619072531 $590 $674 forward 7 unknown #
straight-curve $-1 -18.76768236101265 -21.653005113536601 1.877832504939821 1 0 0 I I #
point $-1 -44.271871734618244 -21.653005113536601 1.8778325049398217 #
straight-curve $-1 -44.271871734618252 0 5.0262435436283681 0 -1 0 I I #
point $-1 -44.271871734618252 -21.653005113536601 5.0262435436283681 #
point $-1 -41.577268929581066 -16.42777452063423 -0.87571029290687541 #
point $-1 -37.535364722025299 -16.42777452063423 -0.87571029290687541 #
point $-1 -33.493460514469533 -16.42777452063423 -0.87571029290687541 #
straight-curve $-1 -4.6095058914939884 21.653005113536601 47.448942438821945 0 0 -1 I I #
point $-1 -4.6095058914939884 21.653005113536601 5.0262435436283681 #
straight-curve $-1 -5.0344373618437572 21.653005113536601 0.085088995514773558 -1 0 0 I I #
point $-1 -4.6095058914939884 21.653005113536601 0.085088995514773558 #
point $-1 -12.408604223199028 16.566034043372415 0.089347147296471585 #
point $-1 -7.7291452241760084 16.566034043372415 0.089347147296471585 #
straight-curve $-1 15.528243555881041 21.653005113536601 47.448942438821945 0 0 -1 I I #
point $-1 15.528243555881041 21.653005113536601 5.0262435436283681 #
straight-curve $-1 5.0344373618437572 21.653005113536601 0.085088995514773558 -1 0 0 I I #
point $-1 15.528243555881041 21.653005113536601 0.085088995514773558 #
point $-1 7.7291452241760012 16.566034043372415 0.089347147296471585 #
point $-1 12.408604223199021 16.566034043372415 0.089347147296471585 #
edge $-1 $634 -21.653005113536601 $640 21.653005113536601 $632 $675 forward 7 unknown #
point $-1 -49.286172063356425 21.653005113536601 5.0262435436283681 #
straight-curve $-1 0 -21.653005113536601 5.0262435436283681 1 0 0 I I #
point $-1 -49.286172063356425 -21.653005113536601 5.0262435436283681 #
straight-curve $-1 -44.271871734618244 -21.653005113536601 43.621993124012356 0 0 -1 I I #
straight-curve $-1 -49.286172063356425 0 5.0262435436283681 0 -1 0 I I #
End-of-ACIS-data 