500 0 5 0           
7 Unknown 11 ACIS 5.0 NT 24 Fri Mar 26 20:33:09 1999 
-1 9.9999999999999995e-007 1e-010 
body $-1 $5 $-1 $6 #
body $-1 $7 $-1 $8 #
body $-1 $9 $-1 $10 #
body $-1 $11 $-1 $12 #
body $-1 $13 $-1 $14 #
lump $-1 $-1 $15 $0 #
transform $-1 1 0 0 0 1 0 0 0 1 49.425336466566975 32.15460013199565 10.049306118098325 1 rotate no_reflect no_shear #
lump $-1 $-1 $16 $1 #
transform $-1 1 0 0 0 1 0 0 0 1 49.425336466566975 32.15460013199565 10.049306118098325 1 rotate no_reflect no_shear #
lump $-1 $-1 $17 $2 #
transform $-1 1 0 0 0 1 0 0 0 1 49.425336466566975 32.15460013199565 10.049306118098325 1 rotate no_reflect no_shear #
lump $-1 $-1 $18 $3 #
transform $-1 1 0 0 0 1 0 0 0 1 49.425336466566975 32.15460013199565 10.049306118098325 1 rotate no_reflect no_shear #
lump $-1 $-1 $19 $4 #
transform $-1 1 0 0 0 1 0 0 0 1 49.425336466566975 32.15460013199565 10.049306118098325 1 rotate no_reflect no_shear #
shell $-1 $-1 $-1 $20 $-1 $5 #
shell $-1 $-1 $-1 $21 $-1 $7 #
shell $-1 $-1 $-1 $22 $-1 $9 #
shell $-1 $-1 $-1 $23 $-1 $11 #
shell $-1 $-1 $-1 $24 $-1 $13 #
face $-1 $25 $26 $15 $-1 $27 forward single #
face $-1 $28 $29 $16 $-1 $30 forward single #
face $-1 $31 $32 $17 $-1 $33 forward single #
face $-1 $34 $35 $18 $-1 $36 reversed single #
face $-1 $37 $38 $19 $-1 $39 reversed single #
face $-1 $40 $41 $15 $-1 $42 reversed single #
loop $-1 $-1 $43 $20 #
plane-surface $-1 0 0 10.049306118098325 0 0 1 1 0 0 forward_v I I I I #
face $-1 $44 $45 $16 $-1 $46 forward single #
loop $-1 $-1 $47 $21 #
plane-surface $-1 -35.313493999007981 -28.694108213885787 0 1 0 0 0 0 -1 forward_v I I I I #
face $-1 $48 $49 $17 $-1 $50 forward single #
loop $-1 $-1 $51 $22 #
plane-surface $-1 -135.88208383161697 -10.118924742659717 49.044390495799078 0 1 0 -0.87461971476443456 0 0.48480960649040278 forward_v I I I I #
face $-1 $52 $53 $18 $-1 $54 reversed single #
loop $-1 $55 $56 $23 #
cone-surface $-1 -44.632006354400119 -6.0779104761720433 4.2996893236072209 0.87461971476443456 0 -0.48480960649040278 0.72721440973560414 0 1.311929572146652 1 I I 0 1 1.5 forward I I I I #
face $-1 $57 $58 $19 $-1 $59 reversed single #
loop $-1 $60 $61 $24 #
cone-surface $-1 -44.632006354400119 -0.016389076440532335 4.2996893236072209 0.87461971476443456 0 -0.48480960649040278 0.72721440973560414 0 1.311929572146652 1 I I 0 1 1.5 forward I I I I #
face $-1 $62 $63 $15 $-1 $64 reversed single #
loop $-1 $-1 $65 $25 #
plane-surface $-1 0 0 -10.049306118098325 0 0 1 1 0 0 forward_v I I I I #
coedge $-1 $66 $67 $68 $69 forward $26 $-1 #
face $-1 $70 $71 $16 $-1 $72 forward single #
loop $-1 $-1 $73 $28 #
plane-surface $-1 -32.320109114689153 -25.233616295775924 0 0 -1 0 0 0 -1 forward_v I I I I #
coedge $-1 $74 $75 $76 $77 reversed $29 $-1 #
face $-1 $78 $79 $17 $-1 $80 forward single #
loop $-1 $-1 $81 $31 #
plane-surface $-1 -49.425336466566947 -3.0471497763062843 1.1206346497748996 -0.87461971476443456 0 0.48480960649040278 0.48480960649040278 0 0.87461971476443456 forward_v I I I I #
coedge $-1 $82 $83 $84 $85 reversed $32 $-1 #
face $-1 $86 $87 $18 $-1 $88 forward single #
loop $-1 $89 $90 $34 #
cone-surface $-1 -41.657333070541121 -6.0779104761720433 2.6508010584100266 0.87461971476443456 0 -0.48480960649040278 0.36360720486780207 0 0.65596478607332598 1 I I -0.70710678118654757 0.70710678118654757 0.75 forward I I I I #
loop $-1 $-1 $91 $23 #
coedge $-1 $56 $56 $92 $93 reversed $35 $-1 #
face $-1 $94 $95 $19 $-1 $96 reversed single #
loop $-1 $97 $98 $37 #
cone-surface $-1 -41.657333070541121 -0.016389076440532335 2.6508010584100266 0.87461971476443456 0 -0.48480960649040278 0.36360720486780207 0 0.65596478607332598 1 I I -0.70710678118654757 0.70710678118654757 0.75 forward I I I I #
loop $-1 $-1 $99 $24 #
coedge $-1 $61 $61 $100 $101 reversed $38 $-1 #
face $-1 $102 $103 $15 $-1 $104 reversed single #
loop $-1 $-1 $105 $40 #
plane-surface $-1 0 -32.15460013199565 0 0 1 0 0 0 1 forward_v I I I I #
coedge $-1 $106 $107 $108 $109 forward $41 $-1 #
coedge $-1 $110 $43 $111 $112 forward $26 $-1 #
coedge $-1 $43 $110 $113 $114 forward $26 $-1 #
coedge $-1 $115 $116 $43 $69 reversed $117 $-1 #
edge $-1 $118 -32.15460013199565 $119 32.15460013199565 $68 $120 forward 7 unknown #
face $-1 $121 $122 $16 $-1 $123 forward single #
loop $-1 $-1 $124 $44 #
plane-surface $-1 -29.326724230370324 -28.694108213885787 0 -1 0 0 0 0 1 forward_v I I I I #
coedge $-1 $125 $126 $127 $128 reversed $45 $-1 #
coedge $-1 $129 $47 $130 $131 reversed $29 $-1 #
coedge $-1 $47 $129 $132 $133 reversed $29 $-1 #
coedge $-1 $126 $125 $47 $77 forward $45 $-1 #
edge $-1 $134 -10.049306118098325 $135 10.049306118098325 $76 $136 forward 7 unknown #
face $-1 $137 $138 $17 $-1 $139 forward single #
loop $-1 $-1 $140 $48 #
plane-surface $-1 -135.88208383161697 4.0246251900471481 49.044390495799078 0 -1 0 0.87461971476443456 0 -0.48480960649040278 forward_v I I I I #
coedge $-1 $141 $142 $143 $144 reversed $49 $-1 #
coedge $-1 $83 $51 $142 $145 forward $32 $-1 #
coedge $-1 $51 $82 $146 $147 reversed $32 $-1 #
coedge $-1 $148 $143 $51 $85 forward $138 $-1 #
edge $-1 $149 -23.464948678003921 $150 -18.515705449241509 $84 $151 forward 7 unknown #
face $-1 $152 $153 $18 $-1 $154 forward single #
loop $-1 $-1 $155 $52 #
plane-surface $-1 -135.88208383161697 -10.118924742659717 49.044390495799078 0 1 0 -0.87461971476443456 0 0.48480960649040278 forward_v I I I I #
loop $-1 $-1 $156 $34 #
coedge $-1 $90 $90 $91 $157 forward $53 $-1 #
coedge $-1 $91 $91 $90 $157 reversed $55 $-1 #
coedge $-1 $92 $92 $56 $93 forward $153 $-1 #
edge $-1 $158 0 $158 6.2831853071796004 $92 $159 forward 7 unknown #
face $-1 $160 $161 $19 $-1 $162 reversed single #
loop $-1 $163 $164 $57 #
cone-surface $-1 -44.632006354400119 -6.0779104761720433 4.2996893236072209 0.87461971476443456 0 -0.48480960649040278 0.72721440973560414 0 1.311929572146652 1 I I 0 1 1.5 forward I I I I #
loop $-1 $-1 $165 $37 #
coedge $-1 $98 $98 $99 $166 forward $58 $-1 #
coedge $-1 $99 $99 $98 $166 reversed $60 $-1 #
coedge $-1 $100 $100 $61 $101 forward $167 $-1 #
edge $-1 $168 0 $168 6.2831853071796004 $100 $169 forward 7 unknown #
face $-1 $170 $171 $15 $-1 $172 reversed single #
loop $-1 $-1 $173 $62 #
plane-surface $-1 -49.425336466566975 0 0 1 0 0 0 0 -1 forward_v I I I I #
coedge $-1 $174 $113 $175 $176 forward $63 $-1 #
coedge $-1 $177 $65 $174 $178 forward $41 $-1 #
coedge $-1 $65 $177 $179 $180 forward $41 $-1 #
coedge $-1 $116 $115 $65 $109 reversed $117 $-1 #
edge $-1 $181 -32.15460013199565 $182 32.15460013199565 $108 $183 forward 7 unknown #
coedge $-1 $67 $66 $184 $185 forward $26 $-1 #
coedge $-1 $186 $187 $66 $112 reversed $171 $-1 #
edge $-1 $119 -49.425336466566975 $188 49.425336466566975 $111 $189 forward 7 unknown #
coedge $-1 $105 $190 $67 $114 reversed $63 $-1 #
edge $-1 $191 -49.425336466566975 $118 49.425336466566975 $113 $192 forward 7 unknown #
coedge $-1 $108 $68 $190 $193 forward $117 $-1 #
coedge $-1 $68 $108 $186 $194 reversed $117 $-1 #
loop $-1 $-1 $115 $170 #
vertex $-1 $69 $195 #
vertex $-1 $69 $196 #
straight-curve $-1 49.425336466566975 0 10.049306118098325 0 1 0 I I #
face $-1 $197 $198 $16 $-1 $199 reversed single #
loop $-1 $-1 $130 $70 #
plane-surface $-1 0 0 10.049306118098325 0 0 1 1 0 0 forward_v I I I I #
coedge $-1 $200 $201 $202 $203 reversed $71 $-1 #
coedge $-1 $76 $73 $204 $205 reversed $45 $-1 #
coedge $-1 $73 $76 $206 $207 reversed $45 $-1 #
coedge $-1 $201 $200 $73 $128 forward $71 $-1 #
edge $-1 $208 -10.049306118098325 $209 10.049306118098325 $127 $210 forward 7 unknown #
coedge $-1 $75 $74 $211 $212 reversed $29 $-1 #
coedge $-1 $204 $213 $74 $131 forward $122 $-1 #
edge $-1 $214 -17.807546025052758 $134 -10.886562188833031 $130 $215 forward 7 unknown #
coedge $-1 $216 $206 $75 $133 forward $217 $-1 #
edge $-1 $135 10.886562188833031 $218 17.807546025052758 $132 $219 forward 7 unknown #
vertex $-1 $131 $220 #
vertex $-1 $133 $221 #
straight-curve $-1 -35.313493999007981 -25.233616295775924 0 0 0 -1 I I #
face $-1 $222 $223 $17 $-1 $224 forward single #
loop $-1 $-1 $225 $78 #
plane-surface $-1 0 0 10.049306118098325 0 0 1 1 0 0 forward_v I I I I #
coedge $-1 $226 $227 $225 $228 reversed $79 $-1 #
coedge $-1 $229 $81 $227 $230 reversed $49 $-1 #
coedge $-1 $81 $229 $82 $145 reversed $49 $-1 #
coedge $-1 $84 $225 $81 $144 forward $138 $-1 #
edge $-1 $231 -5.5482000782002903 $149 8.5953498545065745 $143 $232 forward 7 unknown #
edge $-1 $149 -10.208632755011962 $233 5.8640377829401115e-014 $82 $234 forward 7 unknown #
coedge $-1 $235 $236 $83 $147 forward $237 $-1 #
edge $-1 $150 14.472889129801214 $233 23.401560598124689 $146 $238 forward 7 unknown #
coedge $-1 $239 $84 $236 $240 forward $138 $-1 #
vertex $-1 $144 $241 #
vertex $-1 $240 $242 #
straight-curve $-1 -67.941041915808484 -10.118924742659717 10.049306118098325 -1 0 0 I I #
face $-1 $243 $244 $18 $-1 $245 forward single #
loop $-1 $246 $92 $86 #
plane-surface $-1 -49.425336466566947 -3.0471497763062843 1.1206346497748996 -0.87461971476443456 0 0.48480960649040278 0.48480960649040278 0 0.87461971476443456 forward_v I I I I #
coedge $-1 $247 $248 $249 $250 reversed $87 $-1 #
coedge $-1 $156 $156 $-1 $251 forward $89 $-1 #
edge $-1 $252 0 $252 6.2831853071796004 $90 $253 forward 7 unknown #
vertex $-1 $93 $254 #
ellipse-curve $-1 -46.950714852185762 -6.0779104761720433 5.5849703839365983 0.87461971476443456 0 -0.48480960649040278 0.72721440973560414 0 1.311929572146652 1 I I #
face $-1 $255 $256 $19 $-1 $257 forward single #
loop $-1 $258 $259 $94 #
cone-surface $-1 -41.657333070541121 -6.0779104761720433 2.6508010584100266 0.87461971476443456 0 -0.48480960649040278 0.36360720486780207 0 0.65596478607332598 1 I I -0.70710678118654757 0.70710678118654757 0.75 forward I I I I #
loop $-1 $-1 $260 $57 #
coedge $-1 $164 $164 $261 $262 reversed $95 $-1 #
coedge $-1 $165 $165 $-1 $263 forward $97 $-1 #
edge $-1 $264 0 $264 6.2831853071796004 $98 $265 forward 7 unknown #
loop $-1 $266 $100 $255 #
vertex $-1 $101 $267 #
ellipse-curve $-1 -46.950714852185762 -0.016389076440532335 5.5849703839365983 0.87461971476443456 0 -0.48480960649040278 0.72721440973560414 0 1.311929572146652 1 I I #
face $-1 $-1 $117 $15 $-1 $268 reversed single #
loop $-1 $-1 $186 $102 #
plane-surface $-1 0 32.15460013199565 0 0 -1 0 0 0 -1 forward_v I I I I #
coedge $-1 $269 $184 $187 $270 forward $103 $-1 #
coedge $-1 $190 $105 $106 $178 reversed $63 $-1 #
coedge $-1 $184 $269 $105 $176 reversed $103 $-1 #
edge $-1 $191 -10.049306118098325 $271 10.049306118098325 $175 $272 forward 7 unknown #
coedge $-1 $107 $106 $269 $273 forward $41 $-1 #
edge $-1 $182 -49.425336466566975 $271 49.425336466566975 $174 $274 forward 7 unknown #
coedge $-1 $187 $186 $107 $180 reversed $171 $-1 #
edge $-1 $275 -49.425336466566975 $181 49.425336466566975 $179 $276 forward 7 unknown #
vertex $-1 $109 $277 #
vertex $-1 $193 $278 #
straight-curve $-1 49.425336466566975 0 -10.049306118098325 0 -1 0 I I #
coedge $-1 $173 $175 $110 $185 reversed $103 $-1 #
edge $-1 $188 -32.15460013199565 $191 32.15460013199565 $184 $279 forward 7 unknown #
coedge $-1 $179 $111 $116 $194 forward $171 $-1 #
coedge $-1 $111 $179 $173 $270 reversed $171 $-1 #
vertex $-1 $112 $280 #
straight-curve $-1 0 32.15460013199565 10.049306118098325 -1 0 0 I I #
coedge $-1 $113 $174 $115 $193 reversed $63 $-1 #
vertex $-1 $185 $281 #
straight-curve $-1 0 -32.15460013199565 10.049306118098325 1 0 0 I I #
edge $-1 $118 -10.049306118098325 $182 10.049306118098325 $115 $282 forward 7 unknown #
edge $-1 $119 -10.049306118098325 $181 10.049306118098325 $116 $283 forward 7 unknown #
point $-1 49.425336466566975 -32.15460013199565 10.049306118098325 #
point $-1 49.425336466566975 32.15460013199565 10.049306118098325 #
face $-1 $284 $217 $16 $-1 $285 reversed single #
loop $-1 $-1 $202 $121 #
plane-surface $-1 0 -32.15460013199565 0 0 1 0 0 0 1 forward_v I I I I #
coedge $-1 $127 $124 $286 $287 reversed $71 $-1 #
coedge $-1 $124 $127 $288 $289 reversed $71 $-1 #
coedge $-1 $290 $291 $124 $203 forward $198 $-1 #
edge $-1 $292 -10.049306118098325 $293 10.049306118098325 $202 $294 forward 7 unknown #
coedge $-1 $286 $130 $125 $205 forward $122 $-1 #
edge $-1 $134 -19.153439441663405 $208 -13.166669673025748 $204 $295 forward 7 unknown #
coedge $-1 $132 $288 $126 $207 forward $217 $-1 #
edge $-1 $209 13.166669673025748 $135 19.153439441663405 $206 $296 forward 7 unknown #
vertex $-1 $205 $297 #
vertex $-1 $207 $298 #
straight-curve $-1 -29.326724230370324 -25.233616295775924 0 0 0 -1 I I #
coedge $-1 $299 $300 $129 $212 forward $301 $-1 #
edge $-1 $218 -10.049306118098325 $214 10.049306118098325 $211 $302 forward 7 unknown #
coedge $-1 $130 $303 $299 $304 forward $122 $-1 #
vertex $-1 $212 $305 #
straight-curve $-1 -35.313493999007981 -14.347054106942894 10.049306118098325 0 1 0 I I #
coedge $-1 $306 $132 $300 $307 forward $217 $-1 #
loop $-1 $-1 $132 $197 #
vertex $-1 $307 $308 #
straight-curve $-1 -35.313493999007981 -14.347054106942894 -10.049306118098325 0 -1 0 I I #
point $-1 -35.313493999007981 -25.233616295775924 10.049306118098325 #
point $-1 -35.313493999007981 -25.233616295775924 -10.049306118098325 #
face $-1 $309 $310 $17 $-1 $311 forward single #
loop $-1 $-1 $312 $137 #
plane-surface $-1 -35.313493999007981 -28.694108213885787 0 1 0 0 0 0 -1 forward_v I I I I #
coedge $-1 $143 $313 $140 $228 forward $138 $-1 #
coedge $-1 $227 $140 $314 $315 reversed $79 $-1 #
coedge $-1 $140 $226 $141 $230 forward $79 $-1 #
edge $-1 $316 18.515705449241509 $231 23.464948678003921 $225 $317 forward 7 unknown #
coedge $-1 $142 $141 $235 $318 reversed $49 $-1 #
edge $-1 $319 -5.8640377829401115e-014 $231 10.208632755011962 $227 $320 forward 7 unknown #
vertex $-1 $144 $321 #
straight-curve $-1 -44.476093237804569 -1.5235748881531421 10.049306118098325 0 -1 0 I I #
vertex $-1 $318 $322 #
straight-curve $-1 -49.425336466566947 -10.118924742659717 1.1206346497748996 -0.48480960649040278 0 -0.87461971476443456 I I #
coedge $-1 $314 $146 $229 $318 forward $237 $-1 #
coedge $-1 $146 $323 $148 $240 reversed $237 $-1 #
loop $-1 $-1 $314 $324 #
straight-curve $-1 -49.425336466566975 -10.118924742659717 24.522195247899539 0 0 -1 I I #
coedge $-1 $325 $148 $326 $327 forward $138 $-1 #
edge $-1 $150 10.118924742659717 $328 32.15460013199565 $236 $329 forward 7 unknown #
point $-1 -44.476093237804562 -10.118924742659717 10.049306118098325 #
point $-1 -49.425336466566975 -10.118924742659717 10.049306118098325 #
face $-1 $330 $331 $18 $-1 $332 forward single #
loop $-1 $-1 $333 $152 #
plane-surface $-1 -135.88208383161697 4.0246251900471481 49.044390495799078 0 -1 0 0.87461971476443456 0 -0.48480960649040278 forward_v I I I I #
loop $-1 $-1 $334 $86 #
coedge $-1 $248 $155 $335 $336 forward $87 $-1 #
coedge $-1 $155 $247 $337 $338 reversed $87 $-1 #
coedge $-1 $339 $340 $155 $250 forward $331 $-1 #
edge $-1 $341 -23.464948678003921 $342 -18.515705449241509 $249 $343 forward 7 unknown #
edge $-1 $344 1 $344 0 $156 $-1 forward 7 unknown #
vertex $-1 $157 $345 #
ellipse-curve $-1 -42.313297856614447 -6.0779104761720433 3.0144082632778284 -0.87461971476443456 0 0.48480960649040278 0.72721440973560414 0 1.311929572146652 1 I I #
point $-1 -46.223500442450181 -6.0779104761720433 6.8968999560832644 #
face $-1 $346 $167 $19 $-1 $347 forward single #
loop $-1 $-1 $348 $160 #
plane-surface $-1 -135.88208383161697 -10.118924742659717 49.044390495799078 0 1 0 -0.87461971476443456 0 0.48480960649040278 forward_v I I I I #
loop $-1 $-1 $349 $94 #
coedge $-1 $259 $259 $260 $350 forward $161 $-1 #
coedge $-1 $260 $260 $259 $350 reversed $163 $-1 #
coedge $-1 $261 $261 $164 $262 forward $266 $-1 #
edge $-1 $351 0 $351 6.2831853071796004 $261 $352 forward 7 unknown #
edge $-1 $353 1 $353 0 $165 $-1 forward 7 unknown #
vertex $-1 $166 $354 #
ellipse-curve $-1 -42.313297856614447 -0.016389076440532335 3.0144082632778284 -0.87461971476443456 0 0.48480960649040278 0.72721440973560414 0 1.311929572146652 1 I I #
loop $-1 $355 $261 $255 #
point $-1 -46.223500442450181 -0.016389076440532335 6.8968999560832644 #
plane-surface $-1 49.425336466566975 0 0 -1 0 0 0 0 1 forward_v I I I I #
coedge $-1 $175 $173 $177 $273 reversed $103 $-1 #
edge $-1 $188 -10.049306118098325 $275 10.049306118098325 $187 $356 forward 7 unknown #
vertex $-1 $273 $357 #
straight-curve $-1 -49.425336466566975 -32.15460013199565 0 0 0 -1 I I #
edge $-1 $271 -32.15460013199565 $275 32.15460013199565 $269 $358 forward 7 unknown #
straight-curve $-1 0 -32.15460013199565 -10.049306118098325 -1 0 0 I I #
vertex $-1 $180 $359 #
straight-curve $-1 0 32.15460013199565 -10.049306118098325 1 0 0 I I #
point $-1 49.425336466566975 32.15460013199565 -10.049306118098325 #
point $-1 49.425336466566975 -32.15460013199565 -10.049306118098325 #
straight-curve $-1 -49.425336466566975 0 10.049306118098325 0 -1 0 I I #
point $-1 -49.425336466566975 32.15460013199565 10.049306118098325 #
point $-1 -49.425336466566975 -32.15460013199565 10.049306118098325 #
straight-curve $-1 49.425336466566975 -32.15460013199565 0 0 0 -1 I I #
straight-curve $-1 49.425336466566975 32.15460013199565 0 0 0 -1 I I #
face $-1 $360 $301 $16 $-1 $199 reversed single #
plane-surface $-1 0 0 -10.049306118098325 0 0 1 1 0 0 forward_v I I I I #
coedge $-1 $361 $204 $200 $287 forward $122 $-1 #
edge $-1 $208 10.886562188833031 $292 17.807546025052758 $286 $362 forward 7 unknown #
coedge $-1 $206 $363 $201 $289 forward $217 $-1 #
edge $-1 $293 -17.807546025052758 $209 -10.886562188833031 $288 $364 forward 7 unknown #
coedge $-1 $365 $202 $363 $366 reversed $198 $-1 #
coedge $-1 $202 $365 $361 $367 reversed $198 $-1 #
vertex $-1 $367 $368 #
vertex $-1 $203 $369 #
straight-curve $-1 -29.326724230370324 -32.15460013199565 0 0 0 -1 I I #
straight-curve $-1 -16.160054557344576 -25.233616295775924 10.049306118098325 1 0 0 I I #
straight-curve $-1 -16.160054557344576 -25.233616295775924 -10.049306118098325 -1 0 0 I I #
point $-1 -29.326724230370324 -25.233616295775924 10.049306118098325 #
point $-1 -29.326724230370324 -25.233616295775924 -10.049306118098325 #
coedge $-1 $370 $211 $213 $304 reversed $301 $-1 #
coedge $-1 $211 $370 $216 $307 reversed $301 $-1 #
loop $-1 $-1 $211 $284 #
straight-curve $-1 -35.313493999007981 -32.15460013199565 0 0 0 1 I I #
coedge $-1 $213 $371 $372 $373 forward $122 $-1 #
edge $-1 $374 -49.425336466566975 $214 -35.313493999007981 $299 $375 forward 7 unknown #
point $-1 -35.313493999007981 -32.15460013199565 10.049306118098325 #
coedge $-1 $376 $216 $377 $378 forward $217 $-1 #
edge $-1 $218 35.313493999007981 $379 49.425336466566975 $300 $380 forward 7 unknown #
point $-1 -35.313493999007981 -32.15460013199565 -10.049306118098325 #
face $-1 $381 $382 $17 $-1 $383 forward single #
loop $-1 $-1 $384 $222 #
plane-surface $-1 -32.320109114689153 -25.233616295775924 0 0 -1 0 0 0 -1 forward_v I I I I #
coedge $-1 $385 $386 $387 $388 reversed $223 $-1 #
coedge $-1 $225 $389 $390 $391 forward $138 $-1 #
coedge $-1 $390 $235 $226 $315 forward $237 $-1 #
edge $-1 $319 -23.401560598124689 $316 -14.472889129801214 $314 $392 forward 7 unknown #
vertex $-1 $315 $393 #
straight-curve $-1 -67.941041915808484 4.0246251900471481 10.049306118098325 1 0 0 I I #
edge $-1 $233 -8.5953498545065745 $319 5.5482000782002903 $235 $394 forward 7 unknown #
vertex $-1 $318 $395 #
straight-curve $-1 -49.425336466566947 4.0246251900471481 1.1206346497748996 0.48480960649040278 0 0.87461971476443456 I I #
point $-1 -44.476093237804562 4.0246251900471481 10.049306118098325 #
point $-1 -49.425336466566975 -10.118924742659717 1.1206346497748483 #
coedge $-1 $236 $396 $397 $398 reversed $237 $-1 #
face $-1 $399 $237 $17 $-1 $400 reversed single #
coedge $-1 $401 $239 $385 $402 forward $138 $-1 #
coedge $-1 $397 $403 $239 $327 reversed $404 $-1 #
edge $-1 $328 -49.425336466566975 $405 -35.313493999007981 $326 $406 forward 7 unknown #
vertex $-1 $240 $407 #
straight-curve $-1 -49.425336466566975 0 10.049306118098325 0 -1 0 I I #
face $-1 $408 $409 $18 $-1 $410 forward single #
loop $-1 $-1 $411 $243 #
plane-surface $-1 0 0 10.049306118098325 0 0 1 1 0 0 forward_v I I I I #
coedge $-1 $412 $413 $411 $414 reversed $244 $-1 #
coedge $-1 $415 $335 $340 $416 reversed $246 $-1 #
coedge $-1 $334 $417 $247 $336 reversed $246 $-1 #
edge $-1 $341 -10.208632755011962 $418 5.8640377829401115e-014 $247 $419 forward 7 unknown #
coedge $-1 $420 $421 $248 $338 forward $422 $-1 #
edge $-1 $342 14.472889129801214 $418 23.401560598124689 $337 $423 forward 7 unknown #
coedge $-1 $424 $249 $421 $425 forward $331 $-1 #
coedge $-1 $249 $411 $334 $416 forward $331 $-1 #
vertex $-1 $416 $426 #
vertex $-1 $425 $427 #
straight-curve $-1 -67.941041915808484 -10.118924742659717 10.049306118098325 -1 0 0 I I #
vertex $-1 $251 $428 #
point $-1 -41.586083446878845 -6.0779104761720433 4.3263378354244804 #
face $-1 $429 $430 $19 $-1 $431 forward single #
plane-surface $-1 -49.425336466566947 -3.0471497763062843 1.1206346497748996 -0.87461971476443456 0 0.48480960649040278 0.48480960649040278 0 0.87461971476443456 forward_v I I I I #
coedge $-1 $432 $433 $434 $435 reversed $256 $-1 #
coedge $-1 $349 $349 $-1 $436 forward $258 $-1 #
edge $-1 $437 0 $437 6.2831853071796004 $259 $438 forward 7 unknown #
vertex $-1 $262 $439 #
ellipse-curve $-1 -46.950714852185762 -6.0779104761720433 5.5849703839365983 0.87461971476443456 0 -0.48480960649040278 0.72721440973560414 0 1.311929572146652 1 I I #
vertex $-1 $263 $440 #
point $-1 -41.586083446878845 -0.016389076440532335 4.3263378354244804 #
loop $-1 $-1 $441 $255 #
straight-curve $-1 -49.425336466566975 32.15460013199565 0 0 0 -1 I I #
point $-1 -49.425336466566975 -32.15460013199565 -10.049306118098325 #
straight-curve $-1 -49.425336466566975 0 -10.049306118098325 0 1 0 I I #
point $-1 -49.425336466566975 32.15460013199565 -10.049306118098325 #
face $-1 $442 $443 $16 $-1 $444 reversed single #
coedge $-1 $445 $286 $291 $367 forward $122 $-1 #
straight-curve $-1 -29.326724230370324 -14.347054106942894 10.049306118098325 0 -1 0 I I #
coedge $-1 $288 $446 $290 $366 forward $217 $-1 #
straight-curve $-1 -29.326724230370324 -14.347054106942894 -10.049306118098325 0 1 0 I I #
coedge $-1 $291 $290 $447 $448 reversed $198 $-1 #
edge $-1 $449 -49.425336466566975 $293 29.326724230370324 $290 $380 forward 7 unknown #
edge $-1 $292 -29.326724230370324 $450 49.425336466566975 $291 $375 forward 7 unknown #
point $-1 -29.326724230370324 -32.15460013199565 10.049306118098325 #
point $-1 -29.326724230370324 -32.15460013199565 -10.049306118098325 #
coedge $-1 $300 $299 $451 $452 forward $301 $-1 #
coedge $-1 $303 $445 $453 $454 forward $122 $-1 #
coedge $-1 $455 $451 $303 $373 reversed $443 $-1 #
edge $-1 $456 -32.15460013199565 $374 32.15460013199565 $372 $457 forward 7 unknown #
vertex $-1 $373 $458 #
straight-curve $-1 0 -32.15460013199565 10.049306118098325 1 0 0 I I #
coedge $-1 $446 $306 $459 $460 forward $217 $-1 #
coedge $-1 $451 $455 $306 $378 reversed $443 $-1 #
edge $-1 $379 -32.15460013199565 $461 32.15460013199565 $377 $462 forward 7 unknown #
vertex $-1 $378 $463 #
straight-curve $-1 0 -32.15460013199565 -10.049306118098325 -1 0 0 I I #
face $-1 $464 $465 $17 $-1 $466 reversed single #
loop $-1 $-1 $467 $309 #
plane-surface $-1 -29.326724230370324 -28.694108213885787 0 -1 0 0 0 0 1 forward_v I I I I #
coedge $-1 $468 $469 $470 $471 reversed $310 $-1 #
coedge $-1 $472 $312 $325 $402 reversed $223 $-1 #
coedge $-1 $312 $472 $473 $474 reversed $223 $-1 #
coedge $-1 $469 $468 $312 $388 forward $310 $-1 #
edge $-1 $475 -10.049306118098325 $476 10.049306118098325 $387 $477 forward 7 unknown #
coedge $-1 $313 $478 $479 $480 forward $138 $-1 #
coedge $-1 $481 $314 $313 $391 reversed $237 $-1 #
edge $-1 $482 -32.15460013199565 $316 -4.0246251900471481 $390 $329 forward 7 unknown #
straight-curve $-1 -49.425336466566975 4.0246251900471481 24.522195247899539 0 0 1 I I #
point $-1 -49.425336466566975 4.0246251900471481 10.049306118098325 #
straight-curve $-1 -49.425336466566975 -1.5235748881531421 1.1206346497748454 0 1 0 I I #
point $-1 -49.425336466566975 4.0246251900471481 1.1206346497748483 #
coedge $-1 $323 $481 $483 $484 reversed $237 $-1 #
coedge $-1 $485 $326 $323 $398 forward $404 $-1 #
edge $-1 $328 -10.049306118098325 $486 10.049306118098325 $323 $487 forward 7 unknown #
face $-1 $488 $489 $17 $-1 $490 reversed single #
plane-surface $-1 -49.425336466566975 0 0 1 0 0 0 0 -1 forward_v I I I I #
coedge $-1 $491 $325 $468 $492 forward $138 $-1 #
edge $-1 $405 -17.807546025052758 $475 -10.886562188833031 $325 $493 forward 7 unknown #
coedge $-1 $326 $485 $472 $494 forward $404 $-1 #
loop $-1 $-1 $403 $495 #
vertex $-1 $494 $496 #
straight-curve $-1 0 -32.15460013199565 10.049306118098325 1 0 0 I I #
point $-1 -49.425336466566975 -32.15460013199565 10.049306118098325 #
face $-1 $497 $498 $18 $-1 $499 forward single #
loop $-1 $-1 $500 $330 #
plane-surface $-1 -35.313493999007981 -28.694108213885787 0 1 0 0 0 0 -1 forward_v I I I I #
coedge $-1 $340 $501 $333 $414 forward $331 $-1 #
coedge $-1 $413 $333 $502 $503 reversed $244 $-1 #
coedge $-1 $333 $412 $415 $504 forward $244 $-1 #
edge $-1 $505 18.515705449241509 $506 23.464948678003921 $411 $507 forward 7 unknown #
coedge $-1 $417 $334 $413 $504 reversed $246 $-1 #
edge $-1 $506 -5.5482000782002903 $341 8.5953498545065745 $340 $508 forward 7 unknown #
coedge $-1 $335 $415 $420 $509 reversed $246 $-1 #
vertex $-1 $509 $510 #
straight-curve $-1 -49.425336466566947 -10.118924742659717 1.1206346497748996 -0.48480960649040278 0 -0.87461971476443456 I I #
coedge $-1 $502 $337 $417 $509 forward $422 $-1 #
coedge $-1 $337 $511 $339 $425 reversed $422 $-1 #
loop $-1 $-1 $502 $512 #
straight-curve $-1 -49.425336466566975 -10.118924742659717 24.522195247899539 0 0 -1 I I #
coedge $-1 $513 $339 $514 $515 forward $331 $-1 #
edge $-1 $342 10.118924742659717 $516 32.15460013199565 $421 $517 forward 7 unknown #
point $-1 -44.476093237804562 -10.118924742659717 10.049306118098325 #
point $-1 -49.425336466566975 -10.118924742659717 10.049306118098325 #
point $-1 -41.001368284467794 -6.0779104761720433 2.2871938535422247 #
face $-1 $518 $519 $19 $-1 $520 forward single #
loop $-1 $-1 $521 $346 #
plane-surface $-1 -135.88208383161697 4.0246251900471481 49.044390495799078 0 -1 0 0.87461971476443456 0 -0.48480960649040278 forward_v I I I I #
coedge $-1 $433 $348 $522 $523 forward $256 $-1 #
coedge $-1 $348 $432 $524 $525 reversed $256 $-1 #
coedge $-1 $526 $527 $348 $435 forward $519 $-1 #
edge $-1 $528 -23.464948678003921 $529 -18.515705449241509 $434 $530 forward 7 unknown #
edge $-1 $531 1 $531 0 $349 $-1 forward 7 unknown #
vertex $-1 $350 $532 #
ellipse-curve $-1 -42.313297856614447 -6.0779104761720433 3.0144082632778284 -0.87461971476443456 0 0.48480960649040278 0.72721440973560414 0 1.311929572146652 1 I I #
point $-1 -46.223500442450181 -6.0779104761720433 6.8968999560832644 #
point $-1 -41.001368284467794 -0.016389076440532335 2.2871938535422247 #
coedge $-1 $533 $522 $527 $534 reversed $355 $-1 #
face $-1 $535 $536 $16 $-1 $537 reversed single #
loop $-1 $-1 $455 $360 #
plane-surface $-1 -49.425336466566975 0 0 1 0 0 0 0 -1 forward_v I I I I #
coedge $-1 $371 $361 $538 $539 forward $122 $-1 #
coedge $-1 $363 $376 $540 $541 forward $217 $-1 #
coedge $-1 $540 $538 $365 $448 forward $542 $-1 #
edge $-1 $450 -10.049306118098325 $449 10.049306118098325 $447 $543 forward 7 unknown #
vertex $-1 $448 $544 #
vertex $-1 $539 $545 #
coedge $-1 $372 $377 $370 $452 reversed $443 $-1 #
edge $-1 $374 -10.049306118098325 $379 10.049306118098325 $451 $546 forward 7 unknown #
coedge $-1 $547 $548 $371 $454 reversed $536 $-1 #
edge $-1 $549 -49.425336466566975 $456 49.425336466566975 $453 $550 forward 7 unknown #
coedge $-1 $377 $372 $548 $551 forward $443 $-1 #
vertex $-1 $454 $552 #
straight-curve $-1 -49.425336466566975 0 10.049306118098325 0 -1 0 I I #
point $-1 -49.425336466566975 -32.15460013199565 10.049306118098325 #
coedge $-1 $548 $547 $376 $460 reversed $536 $-1 #
edge $-1 $461 -49.425336466566975 $553 49.425336466566975 $459 $554 forward 7 unknown #
vertex $-1 $460 $555 #
straight-curve $-1 -49.425336466566975 0 -10.049306118098325 0 1 0 I I #
point $-1 -49.425336466566975 -32.15460013199565 -10.049306118098325 #
face $-1 $495 $556 $17 $-1 $557 reversed single #
loop $-1 $-1 $558 $381 #
plane-surface $-1 0 -32.15460013199565 0 0 1 0 0 0 1 forward_v I I I I #
coedge $-1 $559 $560 $558 $561 reversed $382 $-1 #
coedge $-1 $387 $384 $401 $492 reversed $310 $-1 #
coedge $-1 $384 $387 $562 $563 reversed $310 $-1 #
coedge $-1 $560 $559 $384 $471 forward $382 $-1 #
edge $-1 $564 -10.049306118098325 $565 10.049306118098325 $470 $566 forward 7 unknown #
coedge $-1 $386 $385 $403 $494 reversed $223 $-1 #
coedge $-1 $567 $562 $386 $474 forward $556 $-1 #
edge $-1 $476 10.886562188833031 $568 17.807546025052758 $473 $569 forward 7 unknown #
vertex $-1 $402 $570 #
vertex $-1 $474 $571 #
straight-curve $-1 -35.313493999007981 -25.233616295775924 0 0 0 -1 I I #
coedge $-1 $389 $572 $573 $574 forward $138 $-1 #
coedge $-1 $575 $576 $389 $480 reversed $489 $-1 #
edge $-1 $577 -49.425336466566975 $482 49.425336466566975 $479 $578 forward 7 unknown #
coedge $-1 $396 $390 $576 $579 forward $237 $-1 #
vertex $-1 $480 $580 #
coedge $-1 $581 $567 $396 $484 forward $556 $-1 #
edge $-1 $486 -32.15460013199565 $582 32.15460013199565 $396 $583 forward 7 unknown #
coedge $-1 $403 $397 $567 $584 reversed $404 $-1 #
vertex $-1 $484 $585 #
straight-curve $-1 -49.425336466566975 -32.15460013199565 0 0 0 -1 I I #
face $-1 $-1 $586 $17 $-1 $587 reversed single #
loop $-1 $-1 $575 $399 #
plane-surface $-1 0 32.15460013199565 0 0 -1 0 0 0 -1 forward_v I I I I #
coedge $-1 $572 $401 $559 $588 forward $138 $-1 #
edge $-1 $475 -19.153439441663405 $564 -13.166669673025748 $401 $589 forward 7 unknown #
straight-curve $-1 -35.313493999007981 -14.347054106942894 10.049306118098325 0 1 0 I I #
edge $-1 $568 -10.049306118098325 $405 10.049306118098325 $403 $590 forward 7 unknown #
face $-1 $324 $404 $17 $-1 $466 reversed single #
point $-1 -35.313493999007981 -32.15460013199565 10.049306118098325 #
face $-1 $591 $592 $18 $-1 $593 forward single #
loop $-1 $-1 $594 $408 #
plane-surface $-1 -32.320109114689153 -25.233616295775924 0 0 -1 0 0 0 -1 forward_v I I I I #
coedge $-1 $595 $596 $597 $598 reversed $409 $-1 #
coedge $-1 $411 $599 $600 $601 forward $331 $-1 #
coedge $-1 $600 $420 $412 $503 forward $422 $-1 #
edge $-1 $602 -23.401560598124689 $505 -14.472889129801214 $502 $603 forward 7 unknown #
edge $-1 $602 -5.8640377829401115e-014 $506 10.208632755011962 $413 $604 forward 7 unknown #
vertex $-1 $503 $605 #
vertex $-1 $416 $606 #
straight-curve $-1 -67.941041915808484 4.0246251900471481 10.049306118098325 1 0 0 I I #
straight-curve $-1 -44.476093237804569 -1.5235748881531421 10.049306118098325 0 -1 0 I I #
edge $-1 $418 -8.5953498545065745 $602 5.5482000782002903 $420 $607 forward 7 unknown #
point $-1 -49.425336466566975 -10.118924742659717 1.1206346497748483 #
coedge $-1 $421 $608 $609 $610 reversed $422 $-1 #
face $-1 $611 $422 $18 $-1 $612 reversed single #
coedge $-1 $613 $424 $595 $614 forward $331 $-1 #
coedge $-1 $609 $615 $424 $515 reversed $616 $-1 #
edge $-1 $516 -49.425336466566975 $617 -35.313493999007981 $514 $618 forward 7 unknown #
vertex $-1 $425 $619 #
straight-curve $-1 -49.425336466566975 0 10.049306118098325 0 -1 0 I I #
face $-1 $620 $621 $19 $-1 $622 forward single #
loop $-1 $-1 $623 $429 #
plane-surface $-1 0 0 10.049306118098325 0 0 1 1 0 0 forward_v I I I I #
coedge $-1 $624 $625 $623 $626 reversed $430 $-1 #
coedge $-1 $441 $627 $432 $523 reversed $355 $-1 #
edge $-1 $528 -10.208632755011962 $628 5.8640377829401115e-014 $432 $629 forward 7 unknown #
coedge $-1 $630 $631 $433 $525 forward $632 $-1 #
edge $-1 $529 14.472889129801214 $628 23.401560598124689 $524 $633 forward 7 unknown #
coedge $-1 $634 $434 $631 $635 forward $519 $-1 #
coedge $-1 $434 $623 $441 $534 forward $519 $-1 #
vertex $-1 $534 $636 #
vertex $-1 $635 $637 #
straight-curve $-1 -67.941041915808484 -10.118924742659717 10.049306118098325 -1 0 0 I I #
vertex $-1 $436 $638 #
point $-1 -41.586083446878845 -6.0779104761720433 4.3263378354244804 #
coedge $-1 $627 $441 $625 $639 reversed $355 $-1 #
edge $-1 $640 -5.5482000782002903 $528 8.5953498545065745 $527 $641 forward 7 unknown #
face $-1 $-1 $542 $16 $-1 $642 reversed single #
loop $-1 $-1 $547 $442 #
plane-surface $-1 0 32.15460013199565 0 0 -1 0 0 0 -1 forward_v I I I I #
coedge $-1 $447 $643 $445 $539 reversed $542 $-1 #
edge $-1 $450 -32.15460013199565 $549 32.15460013199565 $538 $644 forward 7 unknown #
coedge $-1 $643 $447 $446 $541 reversed $542 $-1 #
edge $-1 $553 -32.15460013199565 $449 32.15460013199565 $540 $645 forward 7 unknown #
loop $-1 $-1 $447 $535 #
straight-curve $-1 49.425336466566975 -32.15460013199565 0 0 0 -1 I I #
point $-1 49.425336466566975 -32.15460013199565 -10.049306118098325 #
point $-1 49.425336466566975 -32.15460013199565 10.049306118098325 #
straight-curve $-1 -49.425336466566975 -32.15460013199565 0 0 0 -1 I I #
coedge $-1 $459 $453 $643 $646 forward $536 $-1 #
coedge $-1 $453 $459 $455 $551 reversed $536 $-1 #
vertex $-1 $539 $647 #
straight-curve $-1 0 32.15460013199565 10.049306118098325 -1 0 0 I I #
edge $-1 $456 -10.049306118098325 $461 10.049306118098325 $548 $648 forward 7 unknown #
point $-1 -49.425336466566975 32.15460013199565 10.049306118098325 #
vertex $-1 $541 $649 #
straight-curve $-1 0 32.15460013199565 -10.049306118098325 1 0 0 I I #
point $-1 -49.425336466566975 32.15460013199565 -10.049306118098325 #
loop $-1 $-1 $473 $464 #
plane-surface $-1 0 0 -10.049306118098325 0 0 1 1 0 0 forward_v I I I I #
coedge $-1 $650 $651 $467 $561 forward $465 $-1 #
coedge $-1 $470 $467 $491 $588 reversed $382 $-1 #
coedge $-1 $467 $470 $652 $653 reversed $382 $-1 #
edge $-1 $654 -10.049306118098325 $655 10.049306118098325 $558 $656 forward 7 unknown #
coedge $-1 $473 $652 $469 $563 forward $556 $-1 #
edge $-1 $565 13.166669673025748 $476 19.153439441663405 $562 $657 forward 7 unknown #
vertex $-1 $492 $658 #
vertex $-1 $563 $659 #
straight-curve $-1 -29.326724230370324 -25.233616295775924 0 0 0 -1 I I #
coedge $-1 $483 $473 $485 $584 forward $556 $-1 #
vertex $-1 $584 $660 #
straight-curve $-1 -35.313493999007981 -14.347054106942894 -10.049306118098325 0 -1 0 I I #
point $-1 -35.313493999007981 -25.233616295775924 10.049306118098325 #
point $-1 -35.313493999007981 -25.233616295775924 -10.049306118098325 #
coedge $-1 $478 $491 $651 $661 forward $138 $-1 #
coedge $-1 $662 $663 $478 $574 reversed $586 $-1 #
edge $-1 $664 -32.15460013199565 $577 32.15460013199565 $573 $665 forward 7 unknown #
coedge $-1 $666 $479 $663 $667 forward $489 $-1 #
coedge $-1 $479 $666 $481 $579 reversed $489 $-1 #
vertex $-1 $574 $668 #
straight-curve $-1 0 32.15460013199565 10.049306118098325 -1 0 0 I I #
edge $-1 $482 -10.049306118098325 $582 10.049306118098325 $576 $669 forward 7 unknown #
point $-1 -49.425336466566975 32.15460013199565 10.049306118098325 #
coedge $-1 $670 $483 $666 $671 forward $556 $-1 #
vertex $-1 $671 $672 #
straight-curve $-1 -49.425336466566975 0 -10.049306118098325 0 1 0 I I #
edge $-1 $568 35.313493999007981 $486 49.425336466566975 $485 $673 forward 7 unknown #
point $-1 -49.425336466566975 -32.15460013199565 -10.049306118098325 #
loop $-1 $-1 $662 $488 #
plane-surface $-1 49.425336466566975 0 0 -1 0 0 0 0 1 forward_v I I I I #
edge $-1 $564 10.886562188833031 $654 17.807546025052758 $491 $674 forward 7 unknown #
straight-curve $-1 -16.160054557344576 -25.233616295775924 10.049306118098325 1 0 0 I I #
straight-curve $-1 -35.313493999007981 -32.15460013199565 0 0 0 1 I I #
face $-1 $675 $676 $18 $-1 $677 reversed single #
loop $-1 $-1 $678 $497 #
plane-surface $-1 -29.326724230370324 -28.694108213885787 0 -1 0 0 0 0 1 forward_v I I I I #
coedge $-1 $679 $680 $681 $682 reversed $498 $-1 #
coedge $-1 $683 $500 $513 $614 reversed $409 $-1 #
coedge $-1 $500 $683 $684 $685 reversed $409 $-1 #
coedge $-1 $680 $679 $500 $598 forward $498 $-1 #
edge $-1 $686 -10.049306118098325 $687 10.049306118098325 $597 $688 forward 7 unknown #
coedge $-1 $501 $689 $690 $691 forward $331 $-1 #
coedge $-1 $692 $502 $501 $601 reversed $422 $-1 #
edge $-1 $693 -32.15460013199565 $505 -4.0246251900471481 $600 $517 forward 7 unknown #
vertex $-1 $509 $694 #
straight-curve $-1 -49.425336466566975 4.0246251900471481 24.522195247899539 0 0 1 I I #
straight-curve $-1 -49.425336466566947 4.0246251900471481 1.1206346497748996 0.48480960649040278 0 0.87461971476443456 I I #
point $-1 -49.425336466566975 4.0246251900471481 10.049306118098325 #
point $-1 -44.476093237804562 4.0246251900471481 10.049306118098325 #
straight-curve $-1 -49.425336466566975 -1.5235748881531421 1.1206346497748454 0 1 0 I I #
coedge $-1 $511 $692 $695 $696 reversed $422 $-1 #
coedge $-1 $697 $514 $511 $610 forward $616 $-1 #
edge $-1 $516 -10.049306118098325 $698 10.049306118098325 $511 $699 forward 7 unknown #
face $-1 $700 $701 $18 $-1 $702 reversed single #
plane-surface $-1 -49.425336466566975 0 0 1 0 0 0 0 -1 forward_v I I I I #
coedge $-1 $703 $513 $679 $704 forward $331 $-1 #
edge $-1 $617 -17.807546025052758 $686 -10.886562188833031 $513 $705 forward 7 unknown #
coedge $-1 $514 $697 $683 $706 forward $616 $-1 #
loop $-1 $-1 $615 $707 #
vertex $-1 $706 $708 #
straight-curve $-1 0 -32.15460013199565 10.049306118098325 1 0 0 I I #
point $-1 -49.425336466566975 -32.15460013199565 10.049306118098325 #
face $-1 $709 $710 $19 $-1 $711 forward single #
loop $-1 $-1 $712 $518 #
plane-surface $-1 -35.313493999007981 -28.694108213885787 0 1 0 0 0 0 -1 forward_v I I I I #
coedge $-1 $527 $713 $521 $626 forward $519 $-1 #
coedge $-1 $625 $521 $714 $715 reversed $430 $-1 #
coedge $-1 $521 $624 $533 $639 forward $430 $-1 #
edge $-1 $716 18.515705449241509 $640 23.464948678003921 $623 $717 forward 7 unknown #
coedge $-1 $522 $533 $630 $718 reversed $355 $-1 #
vertex $-1 $718 $719 #
straight-curve $-1 -49.425336466566947 -10.118924742659717 1.1206346497748996 -0.48480960649040278 0 -0.87461971476443456 I I #
coedge $-1 $714 $524 $627 $718 forward $632 $-1 #
coedge $-1 $524 $720 $526 $635 reversed $632 $-1 #
loop $-1 $-1 $714 $721 #
straight-curve $-1 -49.425336466566975 -10.118924742659717 24.522195247899539 0 0 -1 I I #
coedge $-1 $722 $526 $723 $724 forward $519 $-1 #
edge $-1 $529 10.118924742659717 $725 32.15460013199565 $631 $726 forward 7 unknown #
point $-1 -44.476093237804562 -10.118924742659717 10.049306118098325 #
point $-1 -49.425336466566975 -10.118924742659717 10.049306118098325 #
point $-1 -41.001368284467794 -6.0779104761720433 2.2871938535422247 #
edge $-1 $727 -5.8640377829401115e-014 $640 10.208632755011962 $625 $728 forward 7 unknown #
vertex $-1 $534 $729 #
straight-curve $-1 -44.476093237804569 -1.5235748881531421 10.049306118098325 0 -1 0 I I #
plane-surface $-1 49.425336466566975 0 0 -1 0 0 0 0 1 forward_v I I I I #
coedge $-1 $538 $540 $547 $646 reversed $542 $-1 #
straight-curve $-1 49.425336466566975 0 10.049306118098325 0 1 0 I I #
straight-curve $-1 49.425336466566975 0 -10.049306118098325 0 -1 0 I I #
edge $-1 $549 -10.049306118098325 $553 10.049306118098325 $643 $730 forward 7 unknown #
point $-1 49.425336466566975 32.15460013199565 10.049306118098325 #
straight-curve $-1 -49.425336466566975 32.15460013199565 0 0 0 -1 I I #
point $-1 49.425336466566975 32.15460013199565 -10.049306118098325 #
coedge $-1 $731 $558 $732 $733 reversed $465 $-1 #
coedge $-1 $558 $731 $572 $661 reversed $465 $-1 #
coedge $-1 $562 $732 $560 $653 forward $556 $-1 #
edge $-1 $655 -17.807546025052758 $565 -10.886562188833031 $652 $734 forward 7 unknown #
vertex $-1 $661 $735 #
vertex $-1 $561 $736 #
straight-curve $-1 -29.326724230370324 -32.15460013199565 0 0 0 -1 I I #
straight-curve $-1 -16.160054557344576 -25.233616295775924 -10.049306118098325 -1 0 0 I I #
point $-1 -29.326724230370324 -25.233616295775924 10.049306118098325 #
point $-1 -29.326724230370324 -25.233616295775924 -10.049306118098325 #
point $-1 -35.313493999007981 -32.15460013199565 -10.049306118098325 #
edge $-1 $654 -29.326724230370324 $664 49.425336466566975 $651 $406 forward 7 unknown #
coedge $-1 $737 $573 $731 $738 forward $586 $-1 #
coedge $-1 $573 $737 $575 $667 reversed $586 $-1 #
vertex $-1 $574 $739 #
straight-curve $-1 49.425336466566975 0 10.049306118098325 0 1 0 I I #
coedge $-1 $576 $575 $581 $671 reversed $489 $-1 #
edge $-1 $577 -10.049306118098325 $740 10.049306118098325 $663 $741 forward 7 unknown #
point $-1 49.425336466566975 32.15460013199565 10.049306118098325 #
straight-curve $-1 -49.425336466566975 32.15460013199565 0 0 0 -1 I I #
coedge $-1 $732 $581 $737 $742 forward $556 $-1 #
edge $-1 $582 -49.425336466566975 $740 49.425336466566975 $666 $743 forward 7 unknown #
point $-1 -49.425336466566975 32.15460013199565 -10.049306118098325 #
straight-curve $-1 0 -32.15460013199565 -10.049306118098325 -1 0 0 I I #
straight-curve $-1 -29.326724230370324 -14.347054106942894 10.049306118098325 0 -1 0 I I #
face $-1 $707 $744 $18 $-1 $745 reversed single #
loop $-1 $-1 $746 $591 #
plane-surface $-1 0 -32.15460013199565 0 0 1 0 0 0 1 forward_v I I I I #
coedge $-1 $747 $748 $746 $749 reversed $592 $-1 #
coedge $-1 $597 $594 $613 $704 reversed $498 $-1 #
coedge $-1 $594 $597 $750 $751 reversed $498 $-1 #
coedge $-1 $748 $747 $594 $682 forward $592 $-1 #
edge $-1 $752 -10.049306118098325 $753 10.049306118098325 $681 $754 forward 7 unknown #
coedge $-1 $596 $595 $615 $706 reversed $409 $-1 #
coedge $-1 $755 $750 $596 $685 forward $744 $-1 #
edge $-1 $687 10.886562188833031 $756 17.807546025052758 $684 $757 forward 7 unknown #
vertex $-1 $614 $758 #
vertex $-1 $685 $759 #
straight-curve $-1 -35.313493999007981 -25.233616295775924 0 0 0 -1 I I #
coedge $-1 $599 $760 $761 $762 forward $331 $-1 #
coedge $-1 $763 $764 $599 $691 reversed $701 $-1 #
edge $-1 $765 -49.425336466566975 $693 49.425336466566975 $690 $766 forward 7 unknown #
coedge $-1 $608 $600 $764 $767 forward $422 $-1 #
vertex $-1 $691 $768 #
point $-1 -49.425336466566975 4.0246251900471481 1.1206346497748483 #
coedge $-1 $769 $755 $608 $696 forward $744 $-1 #
edge $-1 $698 -32.15460013199565 $770 32.15460013199565 $608 $771 forward 7 unknown #
coedge $-1 $615 $609 $755 $772 reversed $616 $-1 #
vertex $-1 $696 $773 #
straight-curve $-1 -49.425336466566975 -32.15460013199565 0 0 0 -1 I I #
face $-1 $-1 $774 $18 $-1 $775 reversed single #
loop $-1 $-1 $763 $611 #
plane-surface $-1 0 32.15460013199565 0 0 -1 0 0 0 -1 forward_v I I I I #
coedge $-1 $760 $613 $747 $776 forward $331 $-1 #
edge $-1 $686 -19.153439441663405 $752 -13.166669673025748 $613 $777 forward 7 unknown #
straight-curve $-1 -35.313493999007981 -14.347054106942894 10.049306118098325 0 1 0 I I #
edge $-1 $756 -10.049306118098325 $617 10.049306118098325 $615 $778 forward 7 unknown #
face $-1 $512 $616 $18 $-1 $677 reversed single #
point $-1 -35.313493999007981 -32.15460013199565 10.049306118098325 #
face $-1 $779 $780 $19 $-1 $781 forward single #
loop $-1 $-1 $782 $620 #
plane-surface $-1 -32.320109114689153 -25.233616295775924 0 0 -1 0 0 0 -1 forward_v I I I I #
coedge $-1 $783 $784 $785 $786 reversed $621 $-1 #
coedge $-1 $623 $787 $788 $789 forward $519 $-1 #
coedge $-1 $788 $630 $624 $715 forward $632 $-1 #
edge $-1 $727 -23.401560598124689 $716 -14.472889129801214 $714 $790 forward 7 unknown #
vertex $-1 $715 $791 #
straight-curve $-1 -67.941041915808484 4.0246251900471481 10.049306118098325 1 0 0 I I #
edge $-1 $628 -8.5953498545065745 $727 5.5482000782002903 $630 $792 forward 7 unknown #
point $-1 -49.425336466566975 -10.118924742659717 1.1206346497748483 #
coedge $-1 $631 $793 $794 $795 reversed $632 $-1 #
face $-1 $796 $632 $19 $-1 $797 reversed single #
coedge $-1 $798 $634 $783 $799 forward $519 $-1 #
coedge $-1 $794 $800 $634 $724 reversed $801 $-1 #
edge $-1 $725 -49.425336466566975 $802 -35.313493999007981 $723 $803 forward 7 unknown #
vertex $-1 $635 $804 #
straight-curve $-1 -49.425336466566975 0 10.049306118098325 0 -1 0 I I #
vertex $-1 $718 $805 #
straight-curve $-1 -49.425336466566947 4.0246251900471481 1.1206346497748996 0.48480960649040278 0 0.87461971476443456 I I #
point $-1 -44.476093237804562 4.0246251900471481 10.049306118098325 #
straight-curve $-1 49.425336466566975 32.15460013199565 0 0 0 -1 I I #
coedge $-1 $651 $650 $662 $738 reversed $465 $-1 #
coedge $-1 $652 $670 $650 $733 forward $556 $-1 #
edge $-1 $806 -49.425336466566975 $655 29.326724230370324 $650 $673 forward 7 unknown #
straight-curve $-1 -29.326724230370324 -14.347054106942894 -10.049306118098325 0 1 0 I I #
point $-1 -29.326724230370324 -32.15460013199565 10.049306118098325 #
point $-1 -29.326724230370324 -32.15460013199565 -10.049306118098325 #
coedge $-1 $663 $662 $670 $742 reversed $586 $-1 #
edge $-1 $664 -10.049306118098325 $806 10.049306118098325 $662 $807 forward 7 unknown #
point $-1 49.425336466566975 -32.15460013199565 10.049306118098325 #
vertex $-1 $742 $808 #
straight-curve $-1 49.425336466566975 32.15460013199565 0 0 0 -1 I I #
edge $-1 $740 -32.15460013199565 $806 32.15460013199565 $737 $809 forward 7 unknown #
straight-curve $-1 0 32.15460013199565 -10.049306118098325 1 0 0 I I #
loop $-1 $-1 $684 $675 #
plane-surface $-1 0 0 -10.049306118098325 0 0 1 1 0 0 forward_v I I I I #
coedge $-1 $810 $811 $678 $749 forward $676 $-1 #
coedge $-1 $681 $678 $703 $776 reversed $592 $-1 #
coedge $-1 $678 $681 $812 $813 reversed $592 $-1 #
edge $-1 $814 -10.049306118098325 $815 10.049306118098325 $746 $816 forward 7 unknown #
coedge $-1 $684 $812 $680 $751 forward $744 $-1 #
edge $-1 $753 13.166669673025748 $687 19.153439441663405 $750 $817 forward 7 unknown #
vertex $-1 $704 $818 #
vertex $-1 $751 $819 #
straight-curve $-1 -29.326724230370324 -25.233616295775924 0 0 0 -1 I I #
coedge $-1 $695 $684 $697 $772 forward $744 $-1 #
vertex $-1 $772 $820 #
straight-curve $-1 -35.313493999007981 -14.347054106942894 -10.049306118098325 0 -1 0 I I #
point $-1 -35.313493999007981 -25.233616295775924 10.049306118098325 #
point $-1 -35.313493999007981 -25.233616295775924 -10.049306118098325 #
coedge $-1 $689 $703 $811 $821 forward $331 $-1 #
coedge $-1 $822 $823 $689 $762 reversed $774 $-1 #
edge $-1 $824 -32.15460013199565 $765 32.15460013199565 $761 $825 forward 7 unknown #
coedge $-1 $826 $690 $823 $827 forward $701 $-1 #
coedge $-1 $690 $826 $692 $767 reversed $701 $-1 #
vertex $-1 $762 $828 #
straight-curve $-1 0 32.15460013199565 10.049306118098325 -1 0 0 I I #
edge $-1 $693 -10.049306118098325 $770 10.049306118098325 $764 $829 forward 7 unknown #
point $-1 -49.425336466566975 32.15460013199565 10.049306118098325 #
coedge $-1 $830 $695 $826 $831 forward $744 $-1 #
vertex $-1 $831 $832 #
straight-curve $-1 -49.425336466566975 0 -10.049306118098325 0 1 0 I I #
edge $-1 $756 35.313493999007981 $698 49.425336466566975 $697 $833 forward 7 unknown #
point $-1 -49.425336466566975 -32.15460013199565 -10.049306118098325 #
loop $-1 $-1 $822 $700 #
plane-surface $-1 49.425336466566975 0 0 -1 0 0 0 0 1 forward_v I I I I #
edge $-1 $752 10.886562188833031 $814 17.807546025052758 $703 $834 forward 7 unknown #
straight-curve $-1 -16.160054557344576 -25.233616295775924 10.049306118098325 1 0 0 I I #
straight-curve $-1 -35.313493999007981 -32.15460013199565 0 0 0 1 I I #
face $-1 $835 $836 $19 $-1 $837 reversed single #
loop $-1 $-1 $838 $709 #
plane-surface $-1 -29.326724230370324 -28.694108213885787 0 -1 0 0 0 0 1 forward_v I I I I #
coedge $-1 $839 $840 $841 $842 reversed $710 $-1 #
coedge $-1 $843 $712 $722 $799 reversed $621 $-1 #
coedge $-1 $712 $843 $844 $845 reversed $621 $-1 #
coedge $-1 $840 $839 $712 $786 forward $710 $-1 #
edge $-1 $846 -10.049306118098325 $847 10.049306118098325 $785 $848 forward 7 unknown #
coedge $-1 $713 $849 $850 $851 forward $519 $-1 #
coedge $-1 $852 $714 $713 $789 reversed $632 $-1 #
edge $-1 $853 -32.15460013199565 $716 -4.0246251900471481 $788 $726 forward 7 unknown #
straight-curve $-1 -49.425336466566975 4.0246251900471481 24.522195247899539 0 0 1 I I #
point $-1 -49.425336466566975 4.0246251900471481 10.049306118098325 #
straight-curve $-1 -49.425336466566975 -1.5235748881531421 1.1206346497748454 0 1 0 I I #
coedge $-1 $720 $852 $854 $855 reversed $632 $-1 #
coedge $-1 $856 $723 $720 $795 forward $801 $-1 #
edge $-1 $725 -10.049306118098325 $857 10.049306118098325 $720 $858 forward 7 unknown #
face $-1 $859 $860 $19 $-1 $861 reversed single #
plane-surface $-1 -49.425336466566975 0 0 1 0 0 0 0 -1 forward_v I I I I #
coedge $-1 $862 $722 $839 $863 forward $519 $-1 #
edge $-1 $802 -17.807546025052758 $846 -10.886562188833031 $722 $864 forward 7 unknown #
coedge $-1 $723 $856 $843 $865 forward $801 $-1 #
loop $-1 $-1 $800 $866 #
vertex $-1 $865 $867 #
straight-curve $-1 0 -32.15460013199565 10.049306118098325 1 0 0 I I #
point $-1 -49.425336466566975 -32.15460013199565 10.049306118098325 #
point $-1 -49.425336466566975 4.0246251900471481 1.1206346497748483 #
vertex $-1 $738 $868 #
straight-curve $-1 49.425336466566975 -32.15460013199565 0 0 0 -1 I I #
point $-1 49.425336466566975 32.15460013199565 -10.049306118098325 #
straight-curve $-1 49.425336466566975 0 -10.049306118098325 0 -1 0 I I #
coedge $-1 $869 $746 $870 $871 reversed $676 $-1 #
coedge $-1 $746 $869 $760 $821 reversed $676 $-1 #
coedge $-1 $750 $870 $748 $813 forward $744 $-1 #
edge $-1 $815 -17.807546025052758 $753 -10.886562188833031 $812 $872 forward 7 unknown #
vertex $-1 $821 $873 #
vertex $-1 $749 $874 #
straight-curve $-1 -29.326724230370324 -32.15460013199565 0 0 0 -1 I I #
straight-curve $-1 -16.160054557344576 -25.233616295775924 -10.049306118098325 -1 0 0 I I #
point $-1 -29.326724230370324 -25.233616295775924 10.049306118098325 #
point $-1 -29.326724230370324 -25.233616295775924 -10.049306118098325 #
point $-1 -35.313493999007981 -32.15460013199565 -10.049306118098325 #
edge $-1 $814 -29.326724230370324 $824 49.425336466566975 $811 $618 forward 7 unknown #
coedge $-1 $875 $761 $869 $876 forward $774 $-1 #
coedge $-1 $761 $875 $763 $827 reversed $774 $-1 #
vertex $-1 $762 $877 #
straight-curve $-1 49.425336466566975 0 10.049306118098325 0 1 0 I I #
coedge $-1 $764 $763 $769 $831 reversed $701 $-1 #
edge $-1 $765 -10.049306118098325 $878 10.049306118098325 $823 $879 forward 7 unknown #
point $-1 49.425336466566975 32.15460013199565 10.049306118098325 #
straight-curve $-1 -49.425336466566975 32.15460013199565 0 0 0 -1 I I #
coedge $-1 $870 $769 $875 $880 forward $744 $-1 #
edge $-1 $770 -49.425336466566975 $878 49.425336466566975 $826 $881 forward 7 unknown #
point $-1 -49.425336466566975 32.15460013199565 -10.049306118098325 #
straight-curve $-1 0 -32.15460013199565 -10.049306118098325 -1 0 0 I I #
straight-curve $-1 -29.326724230370324 -14.347054106942894 10.049306118098325 0 -1 0 I I #
face $-1 $866 $882 $19 $-1 $883 reversed single #
loop $-1 $-1 $884 $779 #
plane-surface $-1 0 -32.15460013199565 0 0 1 0 0 0 1 forward_v I I I I #
coedge $-1 $885 $886 $884 $887 reversed $780 $-1 #
coedge $-1 $785 $782 $798 $863 reversed $710 $-1 #
coedge $-1 $782 $785 $888 $889 reversed $710 $-1 #
coedge $-1 $886 $885 $782 $842 forward $780 $-1 #
edge $-1 $890 -10.049306118098325 $891 10.049306118098325 $841 $892 forward 7 unknown #
coedge $-1 $784 $783 $800 $865 reversed $621 $-1 #
coedge $-1 $893 $888 $784 $845 forward $882 $-1 #
edge $-1 $847 10.886562188833031 $894 17.807546025052758 $844 $895 forward 7 unknown #
vertex $-1 $799 $896 #
vertex $-1 $845 $897 #
straight-curve $-1 -35.313493999007981 -25.233616295775924 0 0 0 -1 I I #
coedge $-1 $787 $898 $899 $900 forward $519 $-1 #
coedge $-1 $901 $902 $787 $851 reversed $860 $-1 #
edge $-1 $903 -49.425336466566975 $853 49.425336466566975 $850 $904 forward 7 unknown #
coedge $-1 $793 $788 $902 $905 forward $632 $-1 #
vertex $-1 $851 $906 #
coedge $-1 $907 $893 $793 $855 forward $882 $-1 #
edge $-1 $857 -32.15460013199565 $908 32.15460013199565 $793 $909 forward 7 unknown #
coedge $-1 $800 $794 $893 $910 reversed $801 $-1 #
vertex $-1 $855 $911 #
straight-curve $-1 -49.425336466566975 -32.15460013199565 0 0 0 -1 I I #
face $-1 $-1 $912 $19 $-1 $913 reversed single #
loop $-1 $-1 $901 $796 #
plane-surface $-1 0 32.15460013199565 0 0 -1 0 0 0 -1 forward_v I I I I #
coedge $-1 $898 $798 $885 $914 forward $519 $-1 #
edge $-1 $846 -19.153439441663405 $890 -13.166669673025748 $798 $915 forward 7 unknown #
straight-curve $-1 -35.313493999007981 -14.347054106942894 10.049306118098325 0 1 0 I I #
edge $-1 $894 -10.049306118098325 $802 10.049306118098325 $800 $916 forward 7 unknown #
face $-1 $721 $801 $19 $-1 $837 reversed single #
point $-1 -35.313493999007981 -32.15460013199565 10.049306118098325 #
point $-1 49.425336466566975 -32.15460013199565 -10.049306118098325 #
coedge $-1 $811 $810 $822 $876 reversed $676 $-1 #
coedge $-1 $812 $830 $810 $871 forward $744 $-1 #
edge $-1 $917 -49.425336466566975 $815 29.326724230370324 $810 $833 forward 7 unknown #
straight-curve $-1 -29.326724230370324 -14.347054106942894 -10.049306118098325 0 1 0 I I #
point $-1 -29.326724230370324 -32.15460013199565 10.049306118098325 #
point $-1 -29.326724230370324 -32.15460013199565 -10.049306118098325 #
coedge $-1 $823 $822 $830 $880 reversed $774 $-1 #
edge $-1 $824 -10.049306118098325 $917 10.049306118098325 $822 $918 forward 7 unknown #
point $-1 49.425336466566975 -32.15460013199565 10.049306118098325 #
vertex $-1 $880 $919 #
straight-curve $-1 49.425336466566975 32.15460013199565 0 0 0 -1 I I #
edge $-1 $878 -32.15460013199565 $917 32.15460013199565 $875 $920 forward 7 unknown #
straight-curve $-1 0 32.15460013199565 -10.049306118098325 1 0 0 I I #
loop $-1 $-1 $844 $835 #
plane-surface $-1 0 0 -10.049306118098325 0 0 1 1 0 0 forward_v I I I I #
coedge $-1 $921 $922 $838 $887 forward $836 $-1 #
coedge $-1 $841 $838 $862 $914 reversed $780 $-1 #
coedge $-1 $838 $841 $923 $924 reversed $780 $-1 #
edge $-1 $925 -10.049306118098325 $926 10.049306118098325 $884 $927 forward 7 unknown #
coedge $-1 $844 $923 $840 $889 forward $882 $-1 #
edge $-1 $891 13.166669673025748 $847 19.153439441663405 $888 $928 forward 7 unknown #
vertex $-1 $863 $929 #
vertex $-1 $889 $930 #
straight-curve $-1 -29.326724230370324 -25.233616295775924 0 0 0 -1 I I #
coedge $-1 $854 $844 $856 $910 forward $882 $-1 #
vertex $-1 $910 $931 #
straight-curve $-1 -35.313493999007981 -14.347054106942894 -10.049306118098325 0 -1 0 I I #
point $-1 -35.313493999007981 -25.233616295775924 10.049306118098325 #
point $-1 -35.313493999007981 -25.233616295775924 -10.049306118098325 #
coedge $-1 $849 $862 $922 $932 forward $519 $-1 #
coedge $-1 $933 $934 $849 $900 reversed $912 $-1 #
edge $-1 $935 -32.15460013199565 $903 32.15460013199565 $899 $936 forward 7 unknown #
coedge $-1 $937 $850 $934 $938 forward $860 $-1 #
coedge $-1 $850 $937 $852 $905 reversed $860 $-1 #
vertex $-1 $900 $939 #
straight-curve $-1 0 32.15460013199565 10.049306118098325 -1 0 0 I I #
edge $-1 $853 -10.049306118098325 $908 10.049306118098325 $902 $940 forward 7 unknown #
point $-1 -49.425336466566975 32.15460013199565 10.049306118098325 #
coedge $-1 $941 $854 $937 $942 forward $882 $-1 #
vertex $-1 $942 $943 #
straight-curve $-1 -49.425336466566975 0 -10.049306118098325 0 1 0 I I #
edge $-1 $894 35.313493999007981 $857 49.425336466566975 $856 $944 forward 7 unknown #
point $-1 -49.425336466566975 -32.15460013199565 -10.049306118098325 #
loop $-1 $-1 $933 $859 #
plane-surface $-1 49.425336466566975 0 0 -1 0 0 0 0 1 forward_v I I I I #
edge $-1 $890 10.886562188833031 $925 17.807546025052758 $862 $945 forward 7 unknown #
straight-curve $-1 -16.160054557344576 -25.233616295775924 10.049306118098325 1 0 0 I I #
straight-curve $-1 -35.313493999007981 -32.15460013199565 0 0 0 1 I I #
vertex $-1 $876 $946 #
straight-curve $-1 49.425336466566975 -32.15460013199565 0 0 0 -1 I I #
point $-1 49.425336466566975 32.15460013199565 -10.049306118098325 #
straight-curve $-1 49.425336466566975 0 -10.049306118098325 0 -1 0 I I #
coedge $-1 $947 $884 $948 $949 reversed $836 $-1 #
coedge $-1 $884 $947 $898 $932 reversed $836 $-1 #
coedge $-1 $888 $948 $886 $924 forward $882 $-1 #
edge $-1 $926 -17.807546025052758 $891 -10.886562188833031 $923 $950 forward 7 unknown #
vertex $-1 $932 $951 #
vertex $-1 $887 $952 #
straight-curve $-1 -29.326724230370324 -32.15460013199565 0 0 0 -1 I I #
straight-curve $-1 -16.160054557344576 -25.233616295775924 -10.049306118098325 -1 0 0 I I #
point $-1 -29.326724230370324 -25.233616295775924 10.049306118098325 #
point $-1 -29.326724230370324 -25.233616295775924 -10.049306118098325 #
point $-1 -35.313493999007981 -32.15460013199565 -10.049306118098325 #
edge $-1 $925 -29.326724230370324 $935 49.425336466566975 $922 $803 forward 7 unknown #
coedge $-1 $953 $899 $947 $954 forward $912 $-1 #
coedge $-1 $899 $953 $901 $938 reversed $912 $-1 #
vertex $-1 $900 $955 #
straight-curve $-1 49.425336466566975 0 10.049306118098325 0 1 0 I I #
coedge $-1 $902 $901 $907 $942 reversed $860 $-1 #
edge $-1 $903 -10.049306118098325 $956 10.049306118098325 $934 $957 forward 7 unknown #
point $-1 49.425336466566975 32.15460013199565 10.049306118098325 #
straight-curve $-1 -49.425336466566975 32.15460013199565 0 0 0 -1 I I #
coedge $-1 $948 $907 $953 $958 forward $882 $-1 #
edge $-1 $908 -49.425336466566975 $956 49.425336466566975 $937 $959 forward 7 unknown #
point $-1 -49.425336466566975 32.15460013199565 -10.049306118098325 #
straight-curve $-1 0 -32.15460013199565 -10.049306118098325 -1 0 0 I I #
straight-curve $-1 -29.326724230370324 -14.347054106942894 10.049306118098325 0 -1 0 I I #
point $-1 49.425336466566975 -32.15460013199565 -10.049306118098325 #
coedge $-1 $922 $921 $933 $954 reversed $836 $-1 #
coedge $-1 $923 $941 $921 $949 forward $882 $-1 #
edge $-1 $960 -49.425336466566975 $926 29.326724230370324 $921 $944 forward 7 unknown #
straight-curve $-1 -29.326724230370324 -14.347054106942894 -10.049306118098325 0 1 0 I I #
point $-1 -29.326724230370324 -32.15460013199565 10.049306118098325 #
point $-1 -29.326724230370324 -32.15460013199565 -10.049306118098325 #
coedge $-1 $934 $933 $941 $958 reversed $912 $-1 #
edge $-1 $935 -10.049306118098325 $960 10.049306118098325 $933 $961 forward 7 unknown #
point $-1 49.425336466566975 -32.15460013199565 10.049306118098325 #
vertex $-1 $958 $962 #
straight-curve $-1 49.425336466566975 32.15460013199565 0 0 0 -1 I I #
edge $-1 $956 -32.15460013199565 $960 32.15460013199565 $953 $963 forward 7 unknown #
straight-curve $-1 0 32.15460013199565 -10.049306118098325 1 0 0 I I #
vertex $-1 $954 $964 #
straight-curve $-1 49.425336466566975 -32.15460013199565 0 0 0 -1 I I #
point $-1 49.425336466566975 32.15460013199565 -10.049306118098325 #
straight-curve $-1 49.425336466566975 0 -10.049306118098325 0 -1 0 I I #
point $-1 49.425336466566975 -32.15460013199565 -10.049306118098325 #
End-of-ACIS-data 