500 0 6 0           
7 Unknown 11 ACIS 5.0 NT 24 Thu Mar 25 16:49:59 1999 
-1 9.9999999999999995e-007 1e-010 
body $-1 $6 $-1 $7 #
body $-1 $8 $-1 $9 #
body $-1 $10 $-1 $11 #
body $-1 $12 $-1 $13 #
body $-1 $14 $-1 $15 #
body $-1 $16 $-1 $17 #
lump $-1 $-1 $18 $0 #
transform $-1 1 0 0 0 1 0 0 0 1 52.688375499740587 30.823511692545157 14.368439191766464 1 rotate no_reflect no_shear #
lump $-1 $-1 $19 $1 #
transform $-1 1 0 0 0 1 0 0 0 1 52.688375499740587 30.823511692545157 14.368439191766464 1 rotate no_reflect no_shear #
lump $-1 $-1 $20 $2 #
transform $-1 1 0 0 0 1 0 0 0 1 52.688375499740587 30.823511692545157 14.368439191766464 1 rotate no_reflect no_shear #
lump $-1 $-1 $21 $3 #
transform $-1 1 0 0 0 1 0 0 0 1 52.688375499740587 30.823511692545157 14.368439191766464 1 rotate no_reflect no_shear #
lump $-1 $-1 $22 $4 #
transform $-1 1 0 0 0 1 0 0 0 1 52.688375499740587 30.823511692545157 14.368439191766464 1 rotate no_reflect no_shear #
lump $-1 $-1 $23 $5 #
transform $-1 1 0 0 0 1 0 0 0 1 52.688375499740587 30.823511692545157 14.368439191766464 1 rotate no_reflect no_shear #
shell $-1 $-1 $-1 $24 $-1 $6 #
shell $-1 $-1 $-1 $25 $-1 $8 #
shell $-1 $-1 $-1 $26 $-1 $10 #
shell $-1 $-1 $-1 $27 $-1 $12 #
shell $-1 $-1 $-1 $28 $-1 $14 #
shell $-1 $-1 $-1 $29 $-1 $16 #
face $-1 $30 $31 $18 $-1 $32 forward single #
face $-1 $33 $34 $19 $-1 $35 reversed single #
face $-1 $36 $37 $20 $-1 $38 reversed single #
face $-1 $39 $40 $21 $-1 $41 forward single #
face $-1 $42 $43 $22 $-1 $44 reversed single #
face $-1 $45 $46 $23 $-1 $47 forward single #
face $-1 $48 $49 $18 $-1 $50 reversed single #
loop $-1 $-1 $51 $24 #
plane-surface $-1 0 0 14.368439191766464 0 0 1 1 0 0 forward_v I I I I #
face $-1 $52 $53 $19 $-1 $54 reversed single #
loop $-1 $-1 $55 $25 #
plane-surface $-1 0 -25.168397120179758 9.3699395321410499 0 0 1 1 0 0 forward_v I I I I #
face $-1 $56 $57 $20 $-1 $58 reversed single #
loop $-1 $-1 $59 $26 #
plane-surface $-1 24.253022279515662 5.6551145723654042 156.67726379295465 0 -1 0 -0.55919291073839883 0 -0.82903756765294845 forward_v I I I I #
face $-1 $60 $61 $21 $-1 $62 forward single #
loop $-1 $63 $64 $27 #
cone-surface $-1 48.832337734438127 -0.24977346999244077 11.034659558691873 -0.55919291073839883 0 -0.82903756765294845 1.2435563514794228 0 -0.83878936610759824 1 I I 0 1 1.5 forward I I I I #
face $-1 $65 $66 $22 $-1 $67 reversed single #
loop $-1 $-1 $68 $28 #
plane-surface $-1 -34.672909836039693 -0.24977346999243721 69.315978457174367 0.55919291073839883 0 0.82903756765294845 0.82903756765294845 0 -0.55919291073839883 forward_v I I I I #
face $-1 $69 $70 $23 $-1 $71 forward single #
loop $-1 $72 $73 $29 #
cone-surface $-1 48.832337734438127 11.560002614723242 11.034659558691873 -0.55919291073839883 0 -0.82903756765294845 1.2435563514794228 0 -0.83878936610759824 1 I I 0 1 1.5 forward I I I I #
face $-1 $74 $75 $18 $-1 $76 reversed single #
loop $-1 $-1 $77 $30 #
plane-surface $-1 0 0 -14.368439191766464 0 0 1 1 0 0 forward_v I I I I #
coedge $-1 $78 $79 $80 $81 forward $31 $-1 #
face $-1 $82 $83 $19 $-1 $84 reversed single #
loop $-1 $-1 $85 $33 #
plane-surface $-1 0 -19.513282547814359 11.869189361953756 0 -1 0 0 0 -1 forward_v I I I I #
coedge $-1 $86 $87 $88 $89 reversed $34 $-1 #
face $-1 $90 $91 $20 $-1 $92 reversed single #
loop $-1 $-1 $93 $36 #
plane-surface $-1 -34.672909836039693 -0.24977346999243721 69.315978457174367 0.55919291073839883 0 0.82903756765294845 0.82903756765294845 0 -0.55919291073839883 forward_v I I I I #
coedge $-1 $94 $95 $96 $97 reversed $37 $-1 #
face $-1 $-1 $98 $21 $-1 $99 forward single #
loop $-1 $100 $101 $39 #
cone-surface $-1 47.506010208834624 -0.24977346999244077 9.068298174951293 -0.55919291073839883 0 -0.82903756765294845 0.62177817573971139 0 -0.41939468305379912 1 I I -0.70710678118654757 0.70710678118654757 0.75 forward I I I I #
loop $-1 $-1 $102 $27 #
coedge $-1 $64 $64 $103 $104 reversed $40 $-1 #
face $-1 $105 $106 $22 $-1 $107 reversed single #
loop $-1 $-1 $108 $42 #
plane-surface $-1 24.253022279515662 17.464890657081085 156.67726379295465 0 -1 0 -0.55919291073839883 0 -0.82903756765294845 forward_v I I I I #
coedge $-1 $109 $110 $111 $112 reversed $43 $-1 #
face $-1 $-1 $113 $23 $-1 $114 forward single #
loop $-1 $115 $116 $45 #
cone-surface $-1 47.506010208834624 11.560002614723242 9.068298174951293 -0.55919291073839883 0 -0.82903756765294845 0.62177817573971139 0 -0.41939468305379912 1 I I -0.70710678118654757 0.70710678118654757 0.75 forward I I I I #
loop $-1 $-1 $117 $29 #
coedge $-1 $73 $73 $118 $119 reversed $46 $-1 #
face $-1 $120 $121 $18 $-1 $122 reversed single #
loop $-1 $-1 $123 $48 #
plane-surface $-1 0 -30.823511692545157 0 0 1 0 0 0 1 forward_v I I I I #
coedge $-1 $124 $125 $126 $127 forward $49 $-1 #
coedge $-1 $128 $51 $129 $130 forward $31 $-1 #
coedge $-1 $51 $128 $131 $132 forward $31 $-1 #
coedge $-1 $133 $134 $51 $81 reversed $135 $-1 #
edge $-1 $136 -30.823511692545157 $137 30.823511692545157 $80 $138 forward 7 unknown #
face $-1 $139 $140 $19 $-1 $141 reversed single #
loop $-1 $-1 $142 $52 #
plane-surface $-1 -52.688375499740587 0 0 1 0 0 0 0 -1 forward_v I I I I #
coedge $-1 $143 $144 $145 $146 reversed $53 $-1 #
coedge $-1 $147 $55 $148 $149 reversed $34 $-1 #
coedge $-1 $55 $147 $143 $150 forward $34 $-1 #
coedge $-1 $145 $151 $55 $89 forward $152 $-1 #
edge $-1 $153 -18.23931313245528 $154 -6.9290839877244803 $88 $155 forward 7 unknown #
face $-1 $156 $157 $20 $-1 $158 reversed single #
loop $-1 $-1 $159 $56 #
plane-surface $-1 24.253022279515662 -6.1546615123502786 156.67726379295465 0 1 0 0.55919291073839883 0 0.82903756765294845 forward_v I I I I #
coedge $-1 $160 $161 $162 $163 reversed $57 $-1 #
coedge $-1 $95 $59 $164 $165 reversed $37 $-1 #
coedge $-1 $59 $94 $160 $166 reversed $37 $-1 #
coedge $-1 $162 $167 $59 $97 forward $168 $-1 #
edge $-1 $169 -40.561864359982756 $170 -34.663654514477223 $96 $171 forward 7 unknown #
loop $-1 $-1 $103 $60 #
plane-surface $-1 -34.672909836039693 -0.24977346999243721 69.315978457174367 0.55919291073839883 0 0.82903756765294845 0.82903756765294845 0 -0.55919291073839883 forward_v I I I I #
loop $-1 $-1 $172 $39 #
coedge $-1 $101 $101 $102 $173 reversed $61 $-1 #
coedge $-1 $102 $102 $101 $173 forward $63 $-1 #
coedge $-1 $103 $103 $64 $104 forward $98 $-1 #
edge $-1 $174 0 $174 6.2831853071796004 $103 $175 forward 7 unknown #
face $-1 $176 $177 $22 $-1 $178 forward single #
loop $-1 $-1 $179 $65 #
plane-surface $-1 52.688375499740587 0 0 -1 0 0 0 0 1 forward_v I I I I #
coedge $-1 $180 $181 $182 $183 reversed $66 $-1 #
coedge $-1 $184 $68 $185 $186 reversed $43 $-1 #
coedge $-1 $68 $184 $179 $187 reversed $43 $-1 #
coedge $-1 $188 $189 $68 $112 forward $177 $-1 #
edge $-1 $190 98.262224377721807 $191 105.37675099948117 $111 $192 forward 7 unknown #
loop $-1 $-1 $118 $69 #
plane-surface $-1 -34.672909836039693 -0.24977346999243721 69.315978457174367 0.55919291073839883 0 0.82903756765294845 0.82903756765294845 0 -0.55919291073839883 forward_v I I I I #
loop $-1 $-1 $193 $45 #
coedge $-1 $116 $116 $117 $194 reversed $70 $-1 #
coedge $-1 $117 $117 $116 $194 forward $72 $-1 #
coedge $-1 $118 $118 $73 $119 forward $113 $-1 #
edge $-1 $195 0 $195 6.2831853071796004 $118 $196 forward 7 unknown #
face $-1 $197 $198 $18 $-1 $199 reversed single #
loop $-1 $-1 $200 $74 #
plane-surface $-1 -52.688375499740587 0 0 1 0 0 0 0 -1 forward_v I I I I #
coedge $-1 $201 $131 $202 $203 forward $75 $-1 #
coedge $-1 $204 $77 $201 $205 forward $49 $-1 #
coedge $-1 $77 $204 $206 $207 forward $49 $-1 #
coedge $-1 $134 $133 $77 $127 reversed $135 $-1 #
edge $-1 $208 -30.823511692545157 $209 30.823511692545157 $126 $210 forward 7 unknown #
coedge $-1 $79 $78 $211 $212 forward $31 $-1 #
coedge $-1 $213 $214 $78 $130 reversed $198 $-1 #
edge $-1 $137 -52.688375499740587 $215 52.688375499740587 $129 $216 forward 7 unknown #
coedge $-1 $123 $217 $79 $132 reversed $75 $-1 #
edge $-1 $218 -52.688375499740587 $136 52.688375499740587 $131 $219 forward 7 unknown #
coedge $-1 $126 $80 $217 $220 forward $135 $-1 #
coedge $-1 $80 $126 $213 $221 reversed $135 $-1 #
loop $-1 $-1 $133 $197 #
vertex $-1 $81 $222 #
vertex $-1 $81 $223 #
straight-curve $-1 52.688375499740587 0 14.368439191766464 0 1 0 I I #
face $-1 $224 $225 $19 $-1 $226 forward single #
loop $-1 $-1 $148 $82 #
plane-surface $-1 0 -30.823511692545157 0 0 1 0 0 0 1 forward_v I I I I #
coedge $-1 $227 $228 $229 $230 forward $83 $-1 #
coedge $-1 $229 $85 $87 $150 reversed $53 $-1 #
coedge $-1 $85 $229 $231 $232 reversed $53 $-1 #
coedge $-1 $233 $88 $85 $146 forward $152 $-1 #
edge $-1 $154 3.4353448511641718 $234 8.4338445107895836 $145 $235 forward 7 unknown #
coedge $-1 $87 $86 $227 $236 reversed $34 $-1 #
coedge $-1 $237 $238 $86 $149 forward $140 $-1 #
edge $-1 $239 -52.688375499740587 $153 52.688375499740587 $148 $240 forward 7 unknown #
edge $-1 $241 -52.688375499740587 $154 52.688375499740587 $143 $242 forward 7 unknown #
coedge $-1 $88 $233 $237 $243 forward $152 $-1 #
loop $-1 $-1 $145 $224 #
vertex $-1 $149 $244 #
vertex $-1 $89 $245 #
straight-curve $-1 52.688375499740587 -12.584198560089879 9.3699395321410499 0 1 0 I I #
face $-1 $-1 $168 $20 $-1 $246 forward single #
loop $-1 $-1 $247 $90 #
plane-surface $-1 52.688375499740587 0 0 -1 0 0 0 0 1 forward_v I I I I #
coedge $-1 $248 $249 $250 $251 reversed $91 $-1 #
coedge $-1 $252 $93 $95 $166 forward $57 $-1 #
coedge $-1 $93 $252 $248 $253 forward $57 $-1 #
coedge $-1 $250 $96 $93 $163 forward $168 $-1 #
edge $-1 $170 -5.7800013073616228 $254 6.02977477735406 $162 $255 forward 7 unknown #
coedge $-1 $256 $257 $94 $165 forward $157 $-1 #
edge $-1 $258 -67.948585554858312 $169 -63.970192704710861 $164 $259 forward 7 unknown #
edge $-1 $170 98.262224377721807 $258 105.37675099948117 $95 $260 forward 7 unknown #
coedge $-1 $96 $250 $256 $261 forward $168 $-1 #
loop $-1 $-1 $250 $156 #
vertex $-1 $165 $262 #
vertex $-1 $97 $263 #
straight-curve $-1 12.126511139757831 5.6551145723654042 14.36843919176647 -1 0 0 I I #
coedge $-1 $172 $172 $-1 $264 reversed $100 $-1 #
edge $-1 $265 0 $265 6.2831853071796004 $101 $266 forward 7 unknown #
vertex $-1 $104 $267 #
ellipse-curve $-1 49.739270576987821 -0.24977346999244077 12.379242766692732 0.55919291073839883 0 0.82903756765294845 1.2435563514794228 0 -0.83878936610759824 1 I I #
face $-1 $-1 $268 $22 $-1 $269 forward single #
loop $-1 $-1 $189 $105 #
plane-surface $-1 24.253022279515662 5.6551145723654042 156.67726379295465 0 -1 0 -0.55919291073839883 0 -0.82903756765294845 forward_v I I I I #
coedge $-1 $182 $270 $110 $187 forward $106 $-1 #
coedge $-1 $181 $108 $184 $271 reversed $66 $-1 #
coedge $-1 $108 $180 $272 $273 reversed $66 $-1 #
coedge $-1 $274 $179 $108 $183 forward $106 $-1 #
edge $-1 $275 -67.948585554858312 $276 -63.970192704710861 $182 $277 forward 7 unknown #
coedge $-1 $110 $109 $180 $271 forward $43 $-1 #
coedge $-1 $278 $272 $109 $186 forward $268 $-1 #
edge $-1 $279 -17.589777392077302 $190 -5.7800013073616228 $185 $280 forward 7 unknown #
edge $-1 $191 5.7800013073616228 $275 17.589777392077302 $179 $281 forward 7 unknown #
coedge $-1 $189 $111 $270 $282 reversed $177 $-1 #
coedge $-1 $111 $188 $278 $283 reversed $177 $-1 #
vertex $-1 $186 $284 #
vertex $-1 $187 $285 #
straight-curve $-1 -34.672909836039693 5.6551145723654042 69.315978457174367 0.82903756765294845 0 -0.55919291073839883 I I #
coedge $-1 $193 $193 $-1 $286 reversed $115 $-1 #
edge $-1 $287 0 $287 6.2831853071796004 $116 $288 forward 7 unknown #
vertex $-1 $119 $289 #
ellipse-curve $-1 49.739270576987821 11.560002614723242 12.379242766692732 0.55919291073839883 0 0.82903756765294845 1.2435563514794228 0 -0.83878936610759824 1 I I #
face $-1 $-1 $135 $18 $-1 $290 reversed single #
loop $-1 $-1 $213 $120 #
plane-surface $-1 0 30.823511692545157 0 0 -1 0 0 0 -1 forward_v I I I I #
coedge $-1 $291 $211 $214 $292 forward $121 $-1 #
coedge $-1 $217 $123 $124 $205 reversed $75 $-1 #
coedge $-1 $211 $291 $123 $203 reversed $121 $-1 #
edge $-1 $218 -14.368439191766464 $293 14.368439191766464 $202 $294 forward 7 unknown #
coedge $-1 $125 $124 $291 $295 forward $49 $-1 #
edge $-1 $209 -52.688375499740587 $293 52.688375499740587 $201 $296 forward 7 unknown #
coedge $-1 $214 $213 $125 $207 reversed $198 $-1 #
edge $-1 $297 -52.688375499740587 $208 52.688375499740587 $206 $298 forward 7 unknown #
vertex $-1 $127 $299 #
vertex $-1 $220 $300 #
straight-curve $-1 52.688375499740587 0 -14.368439191766464 0 -1 0 I I #
coedge $-1 $200 $202 $128 $212 reversed $121 $-1 #
edge $-1 $215 -30.823511692545157 $218 30.823511692545157 $211 $301 forward 7 unknown #
coedge $-1 $206 $129 $134 $221 forward $198 $-1 #
coedge $-1 $129 $206 $200 $292 reversed $198 $-1 #
vertex $-1 $130 $302 #
straight-curve $-1 0 30.823511692545157 14.368439191766464 -1 0 0 I I #
coedge $-1 $131 $201 $133 $220 reversed $75 $-1 #
vertex $-1 $212 $303 #
straight-curve $-1 0 -30.823511692545157 14.368439191766464 1 0 0 I I #
edge $-1 $136 -14.368439191766464 $209 14.368439191766464 $133 $304 forward 7 unknown #
edge $-1 $137 -14.368439191766464 $208 14.368439191766464 $134 $305 forward 7 unknown #
point $-1 52.688375499740587 -30.823511692545157 14.368439191766464 #
point $-1 52.688375499740587 30.823511692545157 14.368439191766464 #
face $-1 $-1 $152 $19 $-1 $306 reversed single #
loop $-1 $-1 $231 $139 #
plane-surface $-1 0 0 14.368439191766464 0 0 1 1 0 0 forward_v I I I I #
coedge $-1 $307 $142 $147 $236 forward $83 $-1 #
coedge $-1 $142 $307 $308 $309 reversed $83 $-1 #
coedge $-1 $144 $143 $142 $230 reversed $53 $-1 #
edge $-1 $310 -8.4338445107895836 $241 -3.4353448511641718 $142 $311 forward 7 unknown #
coedge $-1 $308 $312 $144 $232 forward $225 $-1 #
edge $-1 $234 -52.688375499740587 $310 52.688375499740587 $231 $313 forward 7 unknown #
coedge $-1 $151 $145 $312 $314 reversed $152 $-1 #
vertex $-1 $146 $315 #
straight-curve $-1 52.688375499740587 -19.513282547814359 5.9345946809768781 0 0 1 I I #
edge $-1 $241 6.9290839877244803 $239 18.23931313245528 $227 $316 forward 7 unknown #
coedge $-1 $317 $148 $151 $243 reversed $140 $-1 #
coedge $-1 $148 $317 $307 $318 forward $140 $-1 #
vertex $-1 $149 $319 #
straight-curve $-1 0 -30.823511692545157 9.3699395321410499 1 0 0 I I #
vertex $-1 $236 $320 #
straight-curve $-1 0 -19.513282547814359 9.3699395321410499 1 0 0 I I #
edge $-1 $321 -14.368439191766464 $153 -9.3699395321410499 $151 $322 forward 7 unknown #
point $-1 52.688375499740587 -30.823511692545157 9.3699395321410499 #
point $-1 52.688375499740587 -19.513282547814359 9.3699395321410499 #
plane-surface $-1 0 0 14.368439191766464 0 0 1 1 0 0 forward_v I I I I #
coedge $-1 $257 $256 $249 $323 forward $157 $-1 #
coedge $-1 $249 $159 $161 $253 reversed $91 $-1 #
coedge $-1 $159 $248 $247 $323 reversed $91 $-1 #
coedge $-1 $167 $162 $159 $251 forward $168 $-1 #
edge $-1 $254 34.663654514477223 $324 40.561864359982756 $250 $325 forward 7 unknown #
coedge $-1 $161 $160 $257 $326 reversed $57 $-1 #
edge $-1 $327 -105.37675099948117 $254 -98.262224377721807 $248 $328 forward 7 unknown #
vertex $-1 $163 $329 #
straight-curve $-1 46.790165654235039 -0.12488673499621861 14.368439191766463 0 -1 0 I I #
coedge $-1 $247 $164 $167 $261 reversed $157 $-1 #
coedge $-1 $164 $247 $252 $326 forward $157 $-1 #
vertex $-1 $165 $330 #
straight-curve $-1 52.688375499740587 5.6551145723654042 78.338631896477324 0 0 1 I I #
straight-curve $-1 -34.672909836039693 5.6551145723654042 69.315978457174367 0.82903756765294845 0 -0.55919291073839883 I I #
edge $-1 $324 -6.1546615123502786 $169 5.6551145723654042 $256 $331 forward 7 unknown #
point $-1 52.688375499740587 5.6551145723654042 14.368439191766464 #
point $-1 46.790165654235054 5.6551145723654042 14.368439191766456 #
edge $-1 $332 1 $332 0 $172 $-1 forward 7 unknown #
vertex $-1 $173 $333 #
ellipse-curve $-1 47.925404891888427 -0.24977346999244077 9.6900763506910046 0.55919291073839883 0 0.82903756765294845 1.2435563514794228 0 -0.83878936610759824 1 I I #
point $-1 50.982826928467247 -0.24977346999244077 11.540453400585143 #
loop $-1 $-1 $185 $176 #
plane-surface $-1 0 0 14.368439191766464 0 0 1 1 0 0 forward_v I I I I #
coedge $-1 $179 $274 $188 $282 forward $106 $-1 #
edge $-1 $279 98.262224377721807 $275 105.37675099948117 $180 $334 forward 7 unknown #
coedge $-1 $185 $335 $181 $273 forward $268 $-1 #
edge $-1 $276 -40.561864359982756 $279 -34.663654514477223 $272 $336 forward 7 unknown #
coedge $-1 $270 $182 $335 $337 reversed $106 $-1 #
vertex $-1 $183 $338 #
vertex $-1 $183 $339 #
straight-curve $-1 52.688375499740587 17.464890657081085 78.338631896477324 0 0 1 I I #
coedge $-1 $335 $185 $189 $283 forward $268 $-1 #
vertex $-1 $273 $340 #
straight-curve $-1 46.790165654235039 -0.12488673499621861 14.368439191766463 0 -1 0 I I #
straight-curve $-1 52.688375499740594 -0.12488673499621861 10.390046341619009 0 1 0 I I #
edge $-1 $341 63.970192704710861 $191 67.948585554858312 $270 $342 forward 7 unknown #
edge $-1 $190 34.663654514477223 $341 40.561864359982756 $278 $343 forward 7 unknown #
point $-1 46.790165654235054 5.6551145723654042 14.368439191766456 #
point $-1 52.688375499740587 5.6551145723654042 10.390046341619012 #
edge $-1 $344 1 $344 0 $193 $-1 forward 7 unknown #
vertex $-1 $194 $345 #
ellipse-curve $-1 47.925404891888427 11.560002614723242 9.6900763506910046 0.55919291073839883 0 0.82903756765294845 1.2435563514794228 0 -0.83878936610759824 1 I I #
point $-1 50.982826928467247 11.560002614723242 11.540453400585143 #
plane-surface $-1 52.688375499740587 0 0 -1 0 0 0 0 1 forward_v I I I I #
coedge $-1 $202 $200 $204 $295 reversed $121 $-1 #
edge $-1 $215 -14.368439191766464 $297 14.368439191766464 $214 $346 forward 7 unknown #
vertex $-1 $295 $347 #
straight-curve $-1 -52.688375499740587 -30.823511692545157 0 0 0 -1 I I #
edge $-1 $293 -30.823511692545157 $297 30.823511692545157 $291 $348 forward 7 unknown #
straight-curve $-1 0 -30.823511692545157 -14.368439191766464 -1 0 0 I I #
vertex $-1 $207 $349 #
straight-curve $-1 0 30.823511692545157 -14.368439191766464 1 0 0 I I #
point $-1 52.688375499740587 30.823511692545157 -14.368439191766464 #
point $-1 52.688375499740587 -30.823511692545157 -14.368439191766464 #
straight-curve $-1 -52.688375499740587 0 14.368439191766464 0 -1 0 I I #
point $-1 -52.688375499740587 30.823511692545157 14.368439191766464 #
point $-1 -52.688375499740587 -30.823511692545157 14.368439191766464 #
straight-curve $-1 52.688375499740587 -30.823511692545157 0 0 0 -1 I I #
straight-curve $-1 52.688375499740587 30.823511692545157 0 0 0 -1 I I #
plane-surface $-1 52.688375499740587 0 0 -1 0 0 0 0 1 forward_v I I I I #
coedge $-1 $228 $227 $238 $318 reversed $83 $-1 #
coedge $-1 $350 $231 $228 $309 forward $225 $-1 #
edge $-1 $310 19.513282547814359 $351 30.823511692545157 $228 $352 forward 7 unknown #
vertex $-1 $309 $353 #
straight-curve $-1 -52.688375499740587 -19.513282547814359 5.9345946809768781 0 0 -1 I I #
coedge $-1 $231 $350 $233 $314 forward $225 $-1 #
straight-curve $-1 0 -19.513282547814359 14.368439191766464 -1 0 0 I I #
edge $-1 $321 -30.823511692545157 $234 -19.513282547814359 $233 $354 forward 7 unknown #
point $-1 52.688375499740587 -19.513282547814359 14.368439191766463 #
straight-curve $-1 -52.688375499740587 -12.584198560089879 9.3699395321410499 0 -1 0 I I #
coedge $-1 $238 $237 $350 $355 reversed $140 $-1 #
edge $-1 $351 -14.368439191766464 $239 -9.3699395321410499 $307 $356 forward 7 unknown #
point $-1 -52.688375499740587 -30.823511692545157 9.3699395321410499 #
point $-1 -52.688375499740587 -19.513282547814359 9.3699395321410499 #
vertex $-1 $314 $357 #
straight-curve $-1 52.688375499740587 -30.823511692545157 0 0 0 -1 I I #
edge $-1 $324 63.970192704710861 $327 67.948585554858312 $247 $358 forward 7 unknown #
vertex $-1 $261 $359 #
straight-curve $-1 12.126511139757831 -6.1546615123502786 14.36843919176647 1 0 0 I I #
edge $-1 $327 -6.02977477735406 $258 5.7800013073616228 $257 $360 forward 7 unknown #
vertex $-1 $326 $361 #
straight-curve $-1 -34.672909836039693 -6.1546615123502786 69.315978457174367 -0.82903756765294845 0 0.55919291073839883 I I #
point $-1 46.790165654235054 -6.1546615123502786 14.368439191766456 #
point $-1 52.688375499740587 5.6551145723654042 10.390046341619012 #
straight-curve $-1 52.688375499740587 0 14.368439191766464 0 1 0 I I #
vertex $-1 $264 $362 #
point $-1 49.168961243367846 -0.24977346999244077 8.8512869845834068 #
straight-curve $-1 -34.672909836039693 17.464890657081085 69.315978457174367 0.82903756765294845 0 -0.55919291073839883 I I #
coedge $-1 $272 $278 $274 $337 forward $268 $-1 #
straight-curve $-1 12.126511139757831 17.464890657081085 14.36843919176647 -1 0 0 I I #
edge $-1 $341 5.6551145723654042 $276 17.464890657081085 $274 $363 forward 7 unknown #
point $-1 52.688375499740587 17.464890657081085 10.390046341619012 #
point $-1 52.688375499740587 17.464890657081085 14.368439191766464 #
point $-1 46.790165654235054 17.464890657081085 14.368439191766456 #
vertex $-1 $337 $364 #
straight-curve $-1 52.688375499740587 5.6551145723654042 78.338631896477324 0 0 -1 I I #
straight-curve $-1 12.126511139757831 5.6551145723654042 14.36843919176647 1 0 0 I I #
vertex $-1 $286 $365 #
point $-1 49.168961243367846 11.560002614723242 8.8512869845834068 #
straight-curve $-1 -52.688375499740587 30.823511692545157 0 0 0 -1 I I #
point $-1 -52.688375499740587 -30.823511692545157 -14.368439191766464 #
straight-curve $-1 -52.688375499740587 0 -14.368439191766464 0 1 0 I I #
point $-1 -52.688375499740587 30.823511692545157 -14.368439191766464 #
coedge $-1 $312 $308 $317 $355 forward $225 $-1 #
vertex $-1 $309 $366 #
straight-curve $-1 -52.688375499740587 0 14.368439191766464 0 -1 0 I I #
point $-1 -52.688375499740587 -19.513282547814359 14.368439191766463 #
straight-curve $-1 52.688375499740587 0 14.368439191766464 0 1 0 I I #
edge $-1 $351 -52.688375499740587 $321 52.688375499740587 $317 $367 forward 7 unknown #
straight-curve $-1 -52.688375499740587 -30.823511692545157 0 0 0 -1 I I #
point $-1 52.688375499740587 -30.823511692545157 14.368439191766464 #
straight-curve $-1 52.688375499740587 -6.1546615123502786 78.338631896477324 0 0 -1 I I #
point $-1 52.688375499740587 -6.1546615123502786 14.368439191766464 #
straight-curve $-1 52.688375499740594 -0.12488673499621861 10.390046341619009 0 1 0 I I #
point $-1 52.688375499740587 -6.1546615123502786 10.390046341619012 #
point $-1 47.086615525780822 -0.24977346999244077 8.4465199992115814 #
straight-curve $-1 52.688375499740587 0 14.368439191766464 0 1 0 I I #
point $-1 52.688375499740587 5.6551145723654042 14.368439191766464 #
point $-1 47.086615525780822 11.560002614723242 8.4465199992115814 #
point $-1 -52.688375499740587 -30.823511692545157 14.368439191766464 #
straight-curve $-1 0 -30.823511692545157 14.368439191766464 1 0 0 I I #
End-of-ACIS-data 