500 0 8 0           
7 Unknown 11 ACIS 5.0 NT 24 Thu Mar 25 20:11:12 1999 
-1 9.9999999999999995e-007 1e-010 
body $-1 $8 $-1 $9 #
body $-1 $10 $-1 $11 #
body $-1 $12 $-1 $13 #
body $-1 $14 $-1 $15 #
body $-1 $16 $-1 $17 #
body $-1 $18 $-1 $19 #
body $-1 $20 $-1 $21 #
body $-1 $22 $-1 $23 #
lump $-1 $-1 $24 $0 #
transform $-1 1 0 0 0 1 0 0 0 1 50.397045808282726 20.637764826340504 5.987389256527627 1 rotate no_reflect no_shear #
lump $-1 $-1 $25 $1 #
transform $-1 1 0 0 0 1 0 0 0 1 50.397045808282726 20.637764826340504 5.987389256527627 1 rotate no_reflect no_shear #
lump $-1 $-1 $26 $2 #
transform $-1 1 0 0 0 1 0 0 0 1 50.397045808282726 20.637764826340504 5.987389256527627 1 rotate no_reflect no_shear #
lump $-1 $-1 $27 $3 #
transform $-1 1 0 0 0 1 0 0 0 1 50.397045808282726 20.637764826340504 5.987389256527627 1 rotate no_reflect no_shear #
lump $-1 $-1 $28 $4 #
transform $-1 1 0 0 0 1 0 0 0 1 50.397045808282726 20.637764826340504 5.987389256527627 1 rotate no_reflect no_shear #
lump $-1 $-1 $29 $5 #
transform $-1 1 0 0 0 1 0 0 0 1 50.397045808282726 20.637764826340504 5.987389256527627 1 rotate no_reflect no_shear #
lump $-1 $-1 $30 $6 #
transform $-1 1 0 0 0 1 0 0 0 1 50.397045808282726 20.637764826340504 5.987389256527627 1 rotate no_reflect no_shear #
lump $-1 $-1 $31 $7 #
transform $-1 1 0 0 0 1 0 0 0 1 50.397045808282726 20.637764826340504 5.987389256527627 1 rotate no_reflect no_shear #
shell $-1 $-1 $-1 $32 $-1 $8 #
shell $-1 $-1 $-1 $33 $-1 $10 #
shell $-1 $-1 $-1 $34 $-1 $12 #
shell $-1 $-1 $-1 $35 $-1 $14 #
shell $-1 $-1 $-1 $36 $-1 $16 #
shell $-1 $-1 $-1 $37 $-1 $18 #
shell $-1 $-1 $-1 $38 $-1 $20 #
shell $-1 $-1 $-1 $39 $-1 $22 #
face $-1 $40 $41 $24 $-1 $42 forward single #
face $-1 $43 $44 $25 $-1 $45 forward single #
face $-1 $46 $47 $26 $-1 $48 reversed single #
face $-1 $49 $50 $27 $-1 $51 forward single #
face $-1 $52 $53 $28 $-1 $54 forward single #
face $-1 $55 $56 $29 $-1 $57 reversed single #
face $-1 $58 $59 $30 $-1 $60 forward single #
face $-1 $61 $62 $31 $-1 $63 forward single #
face $-1 $64 $65 $24 $-1 $66 reversed single #
loop $-1 $-1 $67 $32 #
plane-surface $-1 0 0 5.987389256527627 0 0 1 1 0 0 forward_v I I I I #
face $-1 $68 $69 $25 $-1 $70 reversed single #
loop $-1 $-1 $71 $33 #
plane-surface $-1 0 -16.892674499436669 -2.6893641492224991 0 0 1 1 0 0 forward_v I I I I #
face $-1 $72 $73 $26 $-1 $74 reversed single #
loop $-1 $-1 $75 $34 #
plane-surface $-1 55.37177435324466 -3.2443366691987805 144.87720664235883 0 -1 0 -0.73135370988377701 0 -0.68199835119979291 forward_v I I I I #
face $-1 $76 $77 $27 $-1 $78 forward single #
loop $-1 $79 $80 $35 #
cone-surface $-1 47.612623348361105 -10.318084885865964 3.1582301133605859 -0.73135370988377701 0 -0.68199835119979291 0.68199835119979291 0 -0.73135370988377701 1 I I 0 1 1 forward I I I I #
face $-1 $81 $82 $28 $-1 $83 forward single #
loop $-1 $84 $85 $36 #
cone-surface $-1 47.612623348361105 -6.0738359558656541 3.1582301133605859 -0.73135370988377701 0 -0.68199835119979291 0.68199835119979291 0 -0.73135370988377701 1 I I 0 1 1 forward I I I I #
face $-1 $86 $87 $29 $-1 $88 reversed single #
loop $-1 $-1 $89 $37 #
plane-surface $-1 -111.0564451560342 -13.147584172532838 80.847470869158769 0 1 0 -0.6018150307709319 0 0.79863550430605224 forward_v I I I I #
face $-1 $90 $91 $30 $-1 $92 forward single #
loop $-1 $93 $94 $38 #
cone-surface $-1 -46.141657890095793 -11.284836507865785 2.4855629462240669 0.6018150307709319 0 -0.79863550430605224 0.39931775215302612 0 0.30090751538546595 1 I I 0 1 0.5 forward I I I I #
face $-1 $95 $96 $31 $-1 $97 forward single #
loop $-1 $98 $99 $39 #
cone-surface $-1 -46.141657890095793 -8.490715010865209 2.4855629462240669 0.6018150307709319 0 -0.79863550430605224 0.39931775215302612 0 0.30090751538546595 1 I I 0 1 0.5 forward I I I I #
face $-1 $100 $101 $24 $-1 $102 reversed single #
loop $-1 $-1 $103 $40 #
plane-surface $-1 0 0 -5.987389256527627 0 0 1 1 0 0 forward_v I I I I #
coedge $-1 $104 $105 $106 $107 forward $41 $-1 #
face $-1 $108 $109 $25 $-1 $110 reversed single #
loop $-1 $-1 $111 $43 #
plane-surface $-1 0 -13.147584172532836 -4.3383767028750633 0 -1 0 0 0 -1 forward_v I I I I #
coedge $-1 $112 $113 $114 $115 reversed $44 $-1 #
face $-1 $116 $117 $26 $-1 $118 reversed single #
loop $-1 $-1 $119 $46 #
plane-surface $-1 -18.344358484895793 -8.1959604208658092 76.135802349180324 0.73135370988377701 0 0.68199835119979291 0.68199835119979291 0 -0.73135370988377701 forward_v I I I I #
coedge $-1 $120 $121 $122 $123 reversed $47 $-1 #
face $-1 $-1 $124 $27 $-1 $125 forward single #
loop $-1 $126 $127 $49 #
cone-surface $-1 46.126000235971688 -10.318084885865964 1.7719316673375198 -0.73135370988377701 0 -0.68199835119979291 0.34099917559989645 0 -0.36567685494188851 1 I I -0.70710678118654746 0.70710678118654746 0.5 forward I I I I #
loop $-1 $-1 $128 $35 #
coedge $-1 $80 $80 $129 $130 reversed $50 $-1 #
face $-1 $-1 $131 $28 $-1 $132 forward single #
loop $-1 $133 $134 $52 #
cone-surface $-1 46.126000235971688 -6.0738359558656541 1.7719316673375198 -0.73135370988377701 0 -0.68199835119979291 0.34099917559989645 0 -0.36567685494188851 1 I I -0.70710678118654746 0.70710678118654746 0.5 forward I I I I #
loop $-1 $-1 $135 $36 #
coedge $-1 $85 $85 $136 $137 reversed $53 $-1 #
face $-1 $138 $139 $29 $-1 $140 reversed single #
loop $-1 $-1 $141 $55 #
plane-surface $-1 -50.397045808282734 -9.887775759365498 0.34973067989258766 -0.6018150307709319 0 0.79863550430605224 0.79863550430605224 0 0.6018150307709319 forward_v I I I I #
coedge $-1 $142 $143 $144 $145 reversed $56 $-1 #
face $-1 $-1 $146 $30 $-1 $147 forward single #
loop $-1 $148 $149 $58 #
cone-surface $-1 -45.476528950061727 -11.284836507865785 1.6029070481615211 0.6018150307709319 0 -0.79863550430605224 0.19965887607651306 0 0.15045375769273298 1 I I -0.70710678118654746 0.70710678118654746 0.25 forward I I I I #
loop $-1 $-1 $150 $38 #
coedge $-1 $94 $94 $151 $152 reversed $59 $-1 #
face $-1 $-1 $153 $31 $-1 $154 forward single #
loop $-1 $155 $156 $61 #
cone-surface $-1 -45.476528950061727 -8.490715010865209 1.6029070481615211 0.6018150307709319 0 -0.79863550430605224 0.19965887607651306 0 0.15045375769273298 1 I I -0.70710678118654746 0.70710678118654746 0.25 forward I I I I #
loop $-1 $-1 $157 $39 #
coedge $-1 $99 $99 $158 $159 reversed $62 $-1 #
face $-1 $160 $161 $24 $-1 $162 reversed single #
loop $-1 $-1 $163 $64 #
plane-surface $-1 0 -20.637764826340504 0 0 1 0 0 0 1 forward_v I I I I #
coedge $-1 $164 $165 $166 $167 forward $65 $-1 #
coedge $-1 $168 $67 $169 $170 forward $41 $-1 #
coedge $-1 $67 $168 $171 $172 forward $41 $-1 #
coedge $-1 $173 $174 $67 $107 reversed $175 $-1 #
edge $-1 $176 -20.637764826340504 $177 20.637764826340504 $106 $178 forward 7 unknown #
face $-1 $179 $180 $25 $-1 $181 reversed single #
loop $-1 $-1 $182 $68 #
plane-surface $-1 0 0 -5.987389256527627 0 0 1 1 0 0 forward_v I I I I #
coedge $-1 $183 $184 $185 $186 reversed $69 $-1 #
coedge $-1 $187 $71 $184 $188 forward $44 $-1 #
coedge $-1 $71 $187 $189 $190 reversed $44 $-1 #
coedge $-1 $191 $185 $71 $115 forward $180 $-1 #
edge $-1 $192 4.7012469228145015 $193 12.19142757662217 $114 $194 forward 7 unknown #
face $-1 $195 $196 $26 $-1 $197 reversed single #
loop $-1 $-1 $198 $72 #
plane-surface $-1 55.37177435324466 -13.147584172532838 144.87720664235883 0 1 0 0.73135370988377701 0 0.68199835119979291 forward_v I I I I #
coedge $-1 $199 $200 $201 $202 reversed $73 $-1 #
coedge $-1 $121 $75 $203 $204 reversed $47 $-1 #
coedge $-1 $75 $120 $199 $205 reversed $47 $-1 #
coedge $-1 $201 $206 $75 $123 forward $207 $-1 #
edge $-1 $208 -22.711158631660396 $209 -19.384206226712223 $122 $210 forward 7 unknown #
loop $-1 $-1 $129 $76 #
plane-surface $-1 -18.344358484895793 -8.1959604208658092 76.135802349180324 0.73135370988377701 0 0.68199835119979291 0.68199835119979291 0 -0.73135370988377701 forward_v I I I I #
loop $-1 $-1 $211 $49 #
coedge $-1 $127 $127 $128 $212 reversed $77 $-1 #
coedge $-1 $128 $128 $127 $212 forward $79 $-1 #
coedge $-1 $129 $129 $80 $130 forward $124 $-1 #
edge $-1 $213 0 $213 6.2831853071796004 $129 $214 forward 7 unknown #
loop $-1 $-1 $136 $81 #
plane-surface $-1 -18.344358484895793 -8.1959604208658092 76.135802349180324 0.73135370988377701 0 0.68199835119979291 0.68199835119979291 0 -0.73135370988377701 forward_v I I I I #
loop $-1 $-1 $215 $52 #
coedge $-1 $134 $134 $135 $216 reversed $82 $-1 #
coedge $-1 $135 $135 $134 $216 forward $84 $-1 #
coedge $-1 $136 $136 $85 $137 forward $131 $-1 #
edge $-1 $217 0 $217 6.2831853071796004 $136 $218 forward 7 unknown #
face $-1 $219 $220 $29 $-1 $221 forward single #
loop $-1 $-1 $222 $86 #
plane-surface $-1 -111.0564451560342 -6.6279673461981581 80.847470869158769 0 -1 0 0.6018150307709319 0 -0.79863550430605224 forward_v I I I I #
coedge $-1 $223 $224 $225 $226 reversed $87 $-1 #
coedge $-1 $143 $89 $227 $228 reversed $56 $-1 #
coedge $-1 $89 $142 $223 $229 reversed $56 $-1 #
coedge $-1 $225 $230 $89 $145 forward $220 $-1 #
edge $-1 $231 5.131176769734374 $232 12.612602241425556 $144 $233 forward 7 unknown #
loop $-1 $-1 $151 $90 #
plane-surface $-1 -50.397045808282734 -9.887775759365498 0.34973067989258766 -0.6018150307709319 0 0.79863550430605224 0.79863550430605224 0 0.6018150307709319 forward_v I I I I #
loop $-1 $-1 $234 $58 #
coedge $-1 $149 $149 $150 $235 reversed $91 $-1 #
coedge $-1 $150 $150 $149 $235 forward $93 $-1 #
coedge $-1 $151 $151 $94 $152 forward $146 $-1 #
edge $-1 $236 0 $236 6.2831853071796004 $151 $237 forward 7 unknown #
loop $-1 $-1 $158 $95 #
plane-surface $-1 -50.397045808282734 -9.887775759365498 0.34973067989258766 -0.6018150307709319 0 0.79863550430605224 0.79863550430605224 0 0.6018150307709319 forward_v I I I I #
loop $-1 $-1 $238 $61 #
coedge $-1 $156 $156 $157 $239 reversed $96 $-1 #
coedge $-1 $157 $157 $156 $239 forward $98 $-1 #
coedge $-1 $158 $158 $99 $159 forward $153 $-1 #
edge $-1 $240 0 $240 6.2831853071796004 $158 $241 forward 7 unknown #
face $-1 $242 $243 $24 $-1 $244 reversed single #
loop $-1 $-1 $245 $100 #
plane-surface $-1 -50.397045808282726 0 0 1 0 0 0 0 -1 forward_v I I I I #
coedge $-1 $246 $171 $247 $248 forward $101 $-1 #
coedge $-1 $249 $103 $246 $250 forward $65 $-1 #
coedge $-1 $103 $249 $251 $252 forward $65 $-1 #
coedge $-1 $174 $173 $103 $167 reversed $175 $-1 #
edge $-1 $253 -20.637764826340504 $254 20.637764826340504 $166 $255 forward 7 unknown #
coedge $-1 $105 $104 $256 $257 forward $41 $-1 #
coedge $-1 $258 $259 $104 $170 reversed $243 $-1 #
edge $-1 $177 -50.397045808282726 $260 50.397045808282726 $169 $261 forward 7 unknown #
coedge $-1 $163 $262 $105 $172 reversed $101 $-1 #
edge $-1 $263 -50.397045808282726 $176 50.397045808282726 $171 $264 forward 7 unknown #
coedge $-1 $166 $106 $262 $265 forward $175 $-1 #
coedge $-1 $106 $166 $258 $266 reversed $175 $-1 #
loop $-1 $-1 $173 $242 #
vertex $-1 $107 $267 #
vertex $-1 $107 $268 #
straight-curve $-1 50.397045808282726 0 5.987389256527627 0 1 0 I I #
face $-1 $269 $270 $25 $-1 $271 reversed single #
loop $-1 $-1 $185 $108 #
plane-surface $-1 50.397045808282726 0 0 -1 0 0 0 0 1 forward_v I I I I #
coedge $-1 $272 $273 $183 $274 forward $109 $-1 #
coedge $-1 $275 $111 $182 $274 reversed $69 $-1 #
coedge $-1 $111 $275 $112 $188 reversed $69 $-1 #
coedge $-1 $114 $276 $111 $186 forward $180 $-1 #
edge $-1 $277 -3.8182009050900962 $192 -0.52017579778496748 $185 $278 forward 7 unknown #
coedge $-1 $113 $112 $279 $280 reversed $44 $-1 #
edge $-1 $192 -50.397045808282726 $281 50.397045808282726 $184 $282 forward 7 unknown #
coedge $-1 $283 $284 $113 $190 forward $270 $-1 #
edge $-1 $193 -50.397045808282726 $285 50.397045808282726 $189 $286 forward 7 unknown #
coedge $-1 $276 $114 $284 $287 forward $180 $-1 #
vertex $-1 $115 $288 #
vertex $-1 $287 $289 #
straight-curve $-1 50.397045808282726 -8.4463372497183347 -2.6893641492224991 0 -1 0 I I #
face $-1 $-1 $207 $26 $-1 $290 forward single #
loop $-1 $-1 $291 $116 #
plane-surface $-1 50.397045808282726 0 0 -1 0 0 0 0 1 forward_v I I I I #
coedge $-1 $292 $293 $294 $295 reversed $117 $-1 #
coedge $-1 $296 $119 $121 $205 forward $73 $-1 #
coedge $-1 $119 $296 $292 $297 forward $73 $-1 #
coedge $-1 $294 $122 $119 $202 forward $207 $-1 #
edge $-1 $209 -0.85364354123412411 $298 9.0496039620999333 $201 $299 forward 7 unknown #
coedge $-1 $300 $301 $120 $204 forward $196 $-1 #
edge $-1 $302 -70.018933810139558 $208 -66.451214064651793 $203 $303 forward 7 unknown #
edge $-1 $209 95.915850490182549 $302 100.79409161656547 $121 $304 forward 7 unknown #
coedge $-1 $122 $294 $300 $305 forward $207 $-1 #
loop $-1 $-1 $294 $195 #
vertex $-1 $204 $306 #
vertex $-1 $123 $307 #
straight-curve $-1 27.68588717662233 -3.2443366691987805 5.9873892565276208 -1 0 0 I I #
coedge $-1 $211 $211 $-1 $308 reversed $126 $-1 #
edge $-1 $309 0 $309 6.2831853071796004 $127 $310 forward 7 unknown #
vertex $-1 $130 $311 #
ellipse-curve $-1 48.733569605808626 -10.318084885865964 4.2035293837837546 0.73135370988377701 0 0.68199835119979291 0.68199835119979291 0 -0.73135370988377701 1 I I #
coedge $-1 $215 $215 $-1 $312 reversed $133 $-1 #
edge $-1 $313 0 $313 6.2831853071796004 $134 $314 forward 7 unknown #
vertex $-1 $137 $315 #
ellipse-curve $-1 48.733569605808626 -6.0738359558656541 4.2035293837837546 0.73135370988377701 0 0.68199835119979291 0.68199835119979291 0 -0.73135370988377701 1 I I #
face $-1 $-1 $316 $29 $-1 $317 reversed single #
loop $-1 $-1 $144 $138 #
plane-surface $-1 0 0 5.987389256527627 0 0 1 1 0 0 forward_v I I I I #
coedge $-1 $318 $319 $320 $321 reversed $139 $-1 #
coedge $-1 $322 $141 $143 $229 forward $87 $-1 #
coedge $-1 $141 $322 $318 $323 forward $87 $-1 #
coedge $-1 $320 $144 $141 $226 forward $220 $-1 #
edge $-1 $232 -8.2036962928500898 $324 -1.6840794665154091 $225 $325 forward 7 unknown #
coedge $-1 $326 $327 $142 $228 forward $316 $-1 #
edge $-1 $328 -40.07400475468679 $231 -34.436346178051757 $227 $329 forward 7 unknown #
edge $-1 $232 -9.3677596742858622 $328 -8.8817612989391469e-015 $143 $330 forward 7 unknown #
coedge $-1 $144 $320 $326 $331 forward $220 $-1 #
vertex $-1 $228 $332 #
vertex $-1 $145 $333 #
straight-curve $-1 -55.5282225780171 -13.147584172532838 5.9873892565276279 1 0 0 I I #
coedge $-1 $234 $234 $-1 $334 reversed $148 $-1 #
edge $-1 $335 0 $335 6.2831853071796004 $149 $336 forward 7 unknown #
vertex $-1 $152 $337 #
ellipse-curve $-1 -46.656333072437135 -11.284836507865785 3.1685599682101118 -0.6018150307709319 0 0.79863550430605224 0.39931775215302612 0 0.30090751538546595 1 I I #
coedge $-1 $238 $238 $-1 $338 reversed $155 $-1 #
edge $-1 $339 0 $339 6.2831853071796004 $156 $340 forward 7 unknown #
vertex $-1 $159 $341 #
ellipse-curve $-1 -46.656333072437135 -8.490715010865209 3.1685599682101118 -0.6018150307709319 0 0.79863550430605224 0.39931775215302612 0 0.30090751538546595 1 I I #
face $-1 $-1 $175 $24 $-1 $342 reversed single #
loop $-1 $-1 $258 $160 #
plane-surface $-1 0 20.637764826340504 0 0 -1 0 0 0 -1 forward_v I I I I #
coedge $-1 $343 $256 $259 $344 forward $161 $-1 #
coedge $-1 $262 $163 $164 $250 reversed $101 $-1 #
coedge $-1 $256 $343 $163 $248 reversed $161 $-1 #
edge $-1 $263 -5.987389256527627 $345 5.987389256527627 $247 $346 forward 7 unknown #
coedge $-1 $165 $164 $343 $347 forward $65 $-1 #
edge $-1 $254 -50.397045808282726 $345 50.397045808282726 $246 $348 forward 7 unknown #
coedge $-1 $259 $258 $165 $252 reversed $243 $-1 #
edge $-1 $349 -50.397045808282726 $253 50.397045808282726 $251 $350 forward 7 unknown #
vertex $-1 $167 $351 #
vertex $-1 $265 $352 #
straight-curve $-1 50.397045808282726 0 -5.987389256527627 0 -1 0 I I #
coedge $-1 $245 $247 $168 $257 reversed $161 $-1 #
edge $-1 $260 -20.637764826340504 $263 20.637764826340504 $256 $353 forward 7 unknown #
coedge $-1 $251 $169 $174 $266 forward $243 $-1 #
coedge $-1 $169 $251 $245 $344 reversed $243 $-1 #
vertex $-1 $170 $354 #
straight-curve $-1 0 20.637764826340504 5.987389256527627 -1 0 0 I I #
coedge $-1 $171 $246 $173 $265 reversed $101 $-1 #
vertex $-1 $257 $355 #
straight-curve $-1 0 -20.637764826340504 5.987389256527627 1 0 0 I I #
edge $-1 $176 -5.987389256527627 $254 5.987389256527627 $173 $356 forward 7 unknown #
edge $-1 $177 -5.987389256527627 $253 5.987389256527627 $174 $357 forward 7 unknown #
point $-1 50.397045808282726 -20.637764826340504 5.987389256527627 #
point $-1 50.397045808282726 20.637764826340504 5.987389256527627 #
face $-1 $-1 $358 $25 $-1 $359 reversed single #
loop $-1 $-1 $189 $179 #
plane-surface $-1 0 -20.637764826340504 0 0 1 0 0 0 1 forward_v I I I I #
coedge $-1 $360 $182 $276 $361 forward $109 $-1 #
coedge $-1 $182 $360 $362 $363 forward $109 $-1 #
edge $-1 $364 -50.397045808282726 $277 50.397045808282726 $182 $365 forward 7 unknown #
coedge $-1 $184 $183 $366 $367 reversed $69 $-1 #
coedge $-1 $185 $191 $272 $361 reversed $180 $-1 #
vertex $-1 $361 $368 #
straight-curve $-1 50.397045808282726 -13.147584172532836 -2.1691883514375316 0 0 1 I I #
coedge $-1 $366 $369 $187 $280 forward $358 $-1 #
edge $-1 $285 -12.19142757662217 $281 -4.7012469228145015 $279 $370 forward 7 unknown #
vertex $-1 $280 $371 #
straight-curve $-1 0 -13.147584172532836 -2.6893641492224991 -1 0 0 I I #
coedge $-1 $372 $189 $369 $373 forward $270 $-1 #
coedge $-1 $189 $372 $191 $287 reversed $270 $-1 #
vertex $-1 $373 $374 #
straight-curve $-1 0 -20.637764826340504 -2.6893641492224991 -1 0 0 I I #
edge $-1 $193 2.6893641492224991 $375 5.987389256527627 $191 $376 forward 7 unknown #
point $-1 50.397045808282726 -13.147584172532836 -2.6893641492224991 #
point $-1 50.397045808282726 -20.637764826340504 -2.6893641492224991 #
plane-surface $-1 0 0 5.987389256527627 0 0 1 1 0 0 forward_v I I I I #
coedge $-1 $301 $300 $293 $377 forward $196 $-1 #
coedge $-1 $293 $198 $200 $297 reversed $117 $-1 #
coedge $-1 $198 $292 $291 $377 reversed $117 $-1 #
coedge $-1 $206 $201 $198 $295 forward $207 $-1 #
edge $-1 $298 19.384206226712223 $378 22.711158631660396 $294 $379 forward 7 unknown #
coedge $-1 $200 $199 $301 $380 reversed $73 $-1 #
edge $-1 $381 -100.79409161656547 $298 -95.915850490182549 $292 $382 forward 7 unknown #
vertex $-1 $202 $383 #
straight-curve $-1 47.07009340333456 -4.0979802104329046 5.9873892565276279 0 -1 0 I I #
coedge $-1 $291 $203 $206 $305 reversed $196 $-1 #
coedge $-1 $203 $291 $296 $380 forward $196 $-1 #
vertex $-1 $204 $384 #
straight-curve $-1 50.397045808282726 -3.2443366691987805 72.438603321179414 0 0 1 I I #
straight-curve $-1 -18.344358484895793 -3.2443366691987805 76.135802349180324 0.68199835119979291 0 -0.73135370988377701 I I #
edge $-1 $378 -13.147584172532838 $208 -3.2443366691987805 $300 $385 forward 7 unknown #
point $-1 50.397045808282726 -3.2443366691987805 5.987389256527627 #
point $-1 47.070093403334553 -3.2443366691987805 5.9873892565276208 #
edge $-1 $386 1 $386 0 $211 $-1 forward 7 unknown #
vertex $-1 $212 $387 #
ellipse-curve $-1 46.491677090913576 -10.318084885865964 2.1129308429374163 0.73135370988377701 0 0.68199835119979291 0.68199835119979291 0 -0.73135370988377701 1 I I #
point $-1 49.41556795700842 -10.318084885865964 3.4721756738999785 #
edge $-1 $388 1 $388 0 $215 $-1 forward 7 unknown #
vertex $-1 $216 $389 #
ellipse-curve $-1 46.491677090913576 -6.0738359558656541 2.1129308429374163 0.73135370988377701 0 0.68199835119979291 0.68199835119979291 0 -0.73135370988377701 1 I I #
point $-1 49.41556795700842 -6.0738359558656541 3.4721756738999785 #
loop $-1 $-1 $227 $219 #
plane-surface $-1 -50.397045808282726 0 0 1 0 0 0 0 -1 forward_v I I I I #
coedge $-1 $319 $222 $224 $323 reversed $139 $-1 #
coedge $-1 $222 $318 $390 $391 reversed $139 $-1 #
coedge $-1 $230 $225 $222 $321 forward $220 $-1 #
edge $-1 $324 -12.612602241425556 $392 -5.131176769734374 $320 $393 forward 7 unknown #
coedge $-1 $224 $223 $327 $394 reversed $87 $-1 #
edge $-1 $395 8.8817612989391469e-015 $324 9.3677596742858622 $318 $396 forward 7 unknown #
vertex $-1 $226 $397 #
straight-curve $-1 -42.915620336591545 -4.943887879682749 5.9873892565276261 0 1 0 I I #
coedge $-1 $390 $227 $230 $331 reversed $316 $-1 #
coedge $-1 $227 $390 $322 $394 forward $316 $-1 #
vertex $-1 $228 $398 #
straight-curve $-1 -50.397045808282726 -13.147584172532838 40.423735434579385 0 0 1 I I #
straight-curve $-1 -50.397045808282734 -13.147584172532838 0.34973067989258766 -0.79863550430605224 0 -0.6018150307709319 I I #
edge $-1 $392 6.6279673461981581 $231 13.147584172532838 $326 $399 forward 7 unknown #
point $-1 -50.397045808282726 -13.147584172532838 5.987389256527627 #
point $-1 -42.915620336591545 -13.147584172532838 5.987389256527627 #
edge $-1 $400 1 $400 0 $234 $-1 forward 7 unknown #
vertex $-1 $235 $401 #
ellipse-curve $-1 -45.626982707754458 -11.284836507865785 1.8025659242380341 -0.6018150307709319 0 0.79863550430605224 0.39931775215302612 0 0.30090751538546595 1 I I #
point $-1 -46.257015320284097 -11.284836507865785 3.4694674835955661 #
edge $-1 $402 1 $402 0 $238 $-1 forward 7 unknown #
vertex $-1 $239 $403 #
ellipse-curve $-1 -45.626982707754458 -8.490715010865209 1.8025659242380341 -0.6018150307709319 0 0.79863550430605224 0.39931775215302612 0 0.30090751538546595 1 I I #
point $-1 -46.257015320284097 -8.490715010865209 3.4694674835955661 #
plane-surface $-1 50.397045808282726 0 0 -1 0 0 0 0 1 forward_v I I I I #
coedge $-1 $247 $245 $249 $347 reversed $161 $-1 #
edge $-1 $260 -5.987389256527627 $349 5.987389256527627 $259 $404 forward 7 unknown #
vertex $-1 $347 $405 #
straight-curve $-1 -50.397045808282726 -20.637764826340504 0 0 0 -1 I I #
edge $-1 $345 -20.637764826340504 $349 20.637764826340504 $343 $406 forward 7 unknown #
straight-curve $-1 0 -20.637764826340504 -5.987389256527627 -1 0 0 I I #
vertex $-1 $252 $407 #
straight-curve $-1 0 20.637764826340504 -5.987389256527627 1 0 0 I I #
point $-1 50.397045808282726 20.637764826340504 -5.987389256527627 #
point $-1 50.397045808282726 -20.637764826340504 -5.987389256527627 #
straight-curve $-1 -50.397045808282726 0 5.987389256527627 0 -1 0 I I #
point $-1 -50.397045808282726 20.637764826340504 5.987389256527627 #
point $-1 -50.397045808282726 -20.637764826340504 5.987389256527627 #
straight-curve $-1 50.397045808282726 -20.637764826340504 0 0 0 -1 I I #
straight-curve $-1 50.397045808282726 20.637764826340504 0 0 0 -1 I I #
loop $-1 $-1 $366 $269 #
plane-surface $-1 -50.397045808282726 0 0 1 0 0 0 0 -1 forward_v I I I I #
coedge $-1 $273 $272 $372 $408 forward $109 $-1 #
edge $-1 $277 13.147584172532836 $375 20.637764826340504 $276 $409 forward 7 unknown #
coedge $-1 $369 $366 $273 $363 reversed $358 $-1 #
edge $-1 $410 -20.637764826340504 $364 -13.147584172532836 $362 $411 forward 7 unknown #
vertex $-1 $367 $412 #
straight-curve $-1 0 -13.147584172532836 -5.987389256527627 1 0 0 I I #
coedge $-1 $362 $279 $275 $367 forward $358 $-1 #
edge $-1 $281 0.52017579778496748 $364 3.8182009050900962 $366 $413 forward 7 unknown #
point $-1 50.397045808282726 -13.147584172532836 -5.9873892565276279 #
coedge $-1 $279 $362 $283 $373 reversed $358 $-1 #
straight-curve $-1 -50.397045808282726 -8.4463372497183347 -2.6893641492224991 0 1 0 I I #
point $-1 -50.397045808282726 -13.147584172532836 -2.6893641492224991 #
coedge $-1 $284 $283 $360 $408 reversed $270 $-1 #
edge $-1 $285 2.6893641492224991 $410 5.987389256527627 $369 $414 forward 7 unknown #
point $-1 -50.397045808282726 -20.637764826340504 -2.6893641492224991 #
vertex $-1 $287 $415 #
straight-curve $-1 50.397045808282726 -20.637764826340504 0 0 0 -1 I I #
edge $-1 $378 66.451214064651793 $381 70.018933810139558 $291 $416 forward 7 unknown #
vertex $-1 $305 $417 #
straight-curve $-1 27.68588717662233 -13.147584172532838 5.9873892565276208 1 0 0 I I #
edge $-1 $381 -9.0496039620999333 $302 0.85364354123412411 $301 $418 forward 7 unknown #
vertex $-1 $380 $419 #
straight-curve $-1 -18.344358484895793 -13.147584172532838 76.135802349180324 -0.68199835119979291 0 0.73135370988377701 I I #
point $-1 47.070093403334553 -13.147584172532838 5.9873892565276208 #
point $-1 50.397045808282726 -3.2443366691987805 2.4196695110398565 #
straight-curve $-1 50.397045808282726 0 5.987389256527627 0 1 0 I I #
vertex $-1 $308 $420 #
point $-1 47.173675442113371 -10.318084885865964 1.3815771330536393 #
vertex $-1 $312 $421 #
point $-1 47.173675442113371 -6.0738359558656541 1.3815771330536393 #
coedge $-1 $327 $326 $319 $391 forward $316 $-1 #
edge $-1 $392 34.436346178051757 $395 40.07400475468679 $390 $422 forward 7 unknown #
vertex $-1 $331 $423 #
straight-curve $-1 -55.5282225780171 -6.6279673461981581 5.9873892565276279 -1 0 0 I I #
edge $-1 $395 1.6840794665154091 $328 8.2036962928500898 $327 $424 forward 7 unknown #
vertex $-1 $394 $425 #
straight-curve $-1 -50.397045808282734 -6.6279673461981581 0.34973067989258766 0.79863550430605224 0 0.6018150307709319 I I #
point $-1 -42.915620336591545 -6.6279673461981581 5.987389256527627 #
point $-1 -50.397045808282726 -13.147584172532838 0.34973067989259299 #
straight-curve $-1 -50.397045808282726 0 5.987389256527627 0 -1 0 I I #
vertex $-1 $334 $426 #
point $-1 -45.227664955601433 -11.284836507865785 2.1034734396235 #
vertex $-1 $338 $427 #
point $-1 -45.227664955601433 -8.490715010865209 2.1034734396235 #
straight-curve $-1 -50.397045808282726 20.637764826340504 0 0 0 -1 I I #
point $-1 -50.397045808282726 -20.637764826340504 -5.987389256527627 #
straight-curve $-1 -50.397045808282726 0 -5.987389256527627 0 1 0 I I #
point $-1 -50.397045808282726 20.637764826340504 -5.987389256527627 #
edge $-1 $375 -50.397045808282726 $410 50.397045808282726 $372 $428 forward 7 unknown #
straight-curve $-1 50.397045808282726 0 -5.987389256527627 0 -1 0 I I #
vertex $-1 $363 $429 #
straight-curve $-1 -50.397045808282726 0 -5.987389256527627 0 1 0 I I #
point $-1 -50.397045808282726 -13.147584172532836 -5.9873892565276279 #
straight-curve $-1 -50.397045808282726 -13.147584172532836 -2.1691883514375316 0 0 -1 I I #
straight-curve $-1 -50.397045808282726 -20.637764826340504 0 0 0 -1 I I #
point $-1 50.397045808282726 -20.637764826340504 -5.987389256527627 #
straight-curve $-1 50.397045808282726 -13.147584172532838 72.438603321179414 0 0 -1 I I #
point $-1 50.397045808282726 -13.147584172532838 5.987389256527627 #
straight-curve $-1 50.397045808282726 -4.0979802104329046 2.4196695110398707 0 1 0 I I #
point $-1 50.397045808282726 -13.147584172532838 2.4196695110398565 #
point $-1 45.760323381029799 -10.318084885865964 1.4309324917376234 #
point $-1 45.760323381029799 -6.0738359558656541 1.4309324917376234 #
straight-curve $-1 -50.397045808282726 -6.6279673461981581 40.423735434579385 0 0 -1 I I #
point $-1 -50.397045808282726 -6.6279673461981581 5.987389256527627 #
straight-curve $-1 -50.397045808282726 -4.943887879682749 0.34973067989259043 0 -1 0 I I #
point $-1 -50.397045808282726 -6.6279673461981581 0.34973067989259299 #
point $-1 -45.326075192368997 -11.284836507865785 1.4032481720850081 #
point $-1 -45.326075192368997 -8.490715010865209 1.4032481720850081 #
straight-curve $-1 0 -20.637764826340504 -5.987389256527627 -1 0 0 I I #
point $-1 -50.397045808282726 -20.637764826340504 -5.987389256527627 #
End-of-ACIS-data 