500 0 5 0           
7 Unknown 11 ACIS 5.0 NT 24 Thu Mar 25 16:23:41 1999 
-1 9.9999999999999995e-007 1e-010 
body $-1 $5 $-1 $6 #
body $-1 $7 $-1 $8 #
body $-1 $9 $-1 $10 #
body $-1 $11 $-1 $12 #
body $-1 $13 $-1 $14 #
lump $-1 $-1 $15 $0 #
transform $-1 1 0 0 0 1 0 0 0 1 67.030854213080232 45.090917342592071 17.058917717137444 1 rotate no_reflect no_shear #
lump $-1 $-1 $16 $1 #
transform $-1 1 0 0 0 1 0 0 0 1 67.030854213080232 45.090917342592071 17.058917717137444 1 rotate no_reflect no_shear #
lump $-1 $-1 $17 $2 #
transform $-1 1 0 0 0 1 0 0 0 1 67.030854213080232 45.090917342592071 17.058917717137444 1 rotate no_reflect no_shear #
lump $-1 $-1 $18 $3 #
transform $-1 1 0 0 0 1 0 0 0 1 67.030854213080232 45.090917342592071 17.058917717137444 1 rotate no_reflect no_shear #
lump $-1 $-1 $19 $4 #
transform $-1 1 0 0 0 1 0 0 0 1 67.030854213080232 45.090917342592071 17.058917717137444 1 rotate no_reflect no_shear #
shell $-1 $-1 $-1 $20 $-1 $5 #
shell $-1 $-1 $-1 $21 $-1 $7 #
shell $-1 $-1 $-1 $22 $-1 $9 #
shell $-1 $-1 $-1 $23 $-1 $11 #
shell $-1 $-1 $-1 $24 $-1 $13 #
face $-1 $25 $26 $15 $-1 $27 forward single #
face $-1 $28 $29 $16 $-1 $30 reversed single #
face $-1 $31 $32 $17 $-1 $33 forward single #
face $-1 $34 $35 $18 $-1 $36 reversed single #
face $-1 $37 $38 $19 $-1 $39 reversed single #
face $-1 $40 $41 $15 $-1 $42 reversed single #
loop $-1 $-1 $43 $20 #
plane-surface $-1 0 0 17.058917717137444 0 0 1 1 0 0 forward_v I I I I #
face $-1 $44 $45 $16 $-1 $46 reversed single #
loop $-1 $-1 $47 $21 #
plane-surface $-1 -77.874150372834038 0 6.9980764779736209 0 0 1 1 0 0 forward_v I I I I #
face $-1 $48 $49 $17 $-1 $50 forward single #
loop $-1 $-1 $51 $22 #
plane-surface $-1 34.985752513536369 78.881275461434967 166.60235477588662 1 0 0 0 -0.71933980857756763 -0.69465836192734942 forward_v I I I I #
face $-1 $52 $53 $18 $-1 $54 reversed single #
loop $-1 $55 $56 $23 #
cone-surface $-1 44.141495856263191 38.576830117863224 10.48321109985897 0 -0.71933980857756763 -0.69465836192734942 2 0 0 1 I I 0 1 2 forward I I I I #
face $-1 $57 $58 $19 $-1 $59 reversed single #
loop $-1 $60 $61 $24 #
cone-surface $-1 57.87511087035341 38.576830117863224 10.48321109985897 0 -0.71933980857756763 -0.69465836192734942 2 0 0 1 I I 0 1 2 forward I I I I #
face $-1 $62 $63 $15 $-1 $64 reversed single #
loop $-1 $-1 $65 $25 #
plane-surface $-1 0 0 -17.058917717137444 0 0 1 1 0 0 forward_v I I I I #
coedge $-1 $66 $67 $68 $69 forward $26 $-1 #
face $-1 $70 $71 $16 $-1 $72 forward single #
loop $-1 $-1 $73 $28 #
plane-surface $-1 -88.717446532587843 0 12.028497097555533 1 0 0 0 0 -1 forward_v I I I I #
coedge $-1 $74 $75 $76 $77 reversed $29 $-1 #
face $-1 $78 $79 $17 $-1 $80 forward single #
loop $-1 $-1 $81 $31 #
plane-surface $-1 51.008303363308301 -17.554648215420983 73.475268003388052 0 0.71933980857756763 0.69465836192734942 1 0 0 forward_v I I I I #
coedge $-1 $82 $83 $84 $85 reversed $32 $-1 #
face $-1 $86 $87 $18 $-1 $88 forward single #
loop $-1 $89 $90 $34 #
cone-surface $-1 44.141495856263191 35.425868416610534 7.4403628273349547 0 -0.71933980857756763 -0.69465836192734942 1 0 0 1 I I -0.70710678118654746 0.70710678118654746 1 forward I I I I #
loop $-1 $-1 $91 $23 #
coedge $-1 $56 $56 $92 $93 reversed $35 $-1 #
face $-1 $94 $95 $19 $-1 $96 reversed single #
loop $-1 $97 $98 $37 #
cone-surface $-1 57.87511087035341 35.425868416610534 7.4403628273349547 0 -0.71933980857756763 -0.69465836192734942 1 0 0 1 I I -0.70710678118654746 0.70710678118654746 1 forward I I I I #
loop $-1 $-1 $99 $24 #
coedge $-1 $61 $61 $100 $101 reversed $38 $-1 #
face $-1 $102 $103 $15 $-1 $104 reversed single #
loop $-1 $-1 $105 $40 #
plane-surface $-1 0 -45.090917342592071 0 0 1 0 0 0 1 forward_v I I I I #
coedge $-1 $106 $107 $108 $109 forward $41 $-1 #
coedge $-1 $110 $43 $111 $112 forward $26 $-1 #
coedge $-1 $43 $110 $113 $114 forward $26 $-1 #
coedge $-1 $115 $116 $43 $69 reversed $117 $-1 #
edge $-1 $118 -45.090917342592071 $119 45.090917342592071 $68 $120 forward 7 unknown #
face $-1 $121 $122 $16 $-1 $123 reversed single #
loop $-1 $-1 $124 $44 #
plane-surface $-1 0 0 17.058917717137444 0 0 1 1 0 0 forward_v I I I I #
coedge $-1 $125 $126 $127 $128 forward $45 $-1 #
coedge $-1 $129 $47 $130 $131 forward $29 $-1 #
coedge $-1 $47 $129 $132 $133 forward $29 $-1 #
coedge $-1 $134 $135 $47 $77 forward $136 $-1 #
edge $-1 $137 -45.090917342592071 $138 45.090917342592071 $76 $139 forward 7 unknown #
face $-1 $140 $141 $17 $-1 $142 reversed single #
loop $-1 $-1 $143 $48 #
plane-surface $-1 0 0 17.058917717137444 0 0 1 1 0 0 forward_v I I I I #
coedge $-1 $144 $145 $143 $146 reversed $49 $-1 #
coedge $-1 $83 $51 $145 $147 forward $32 $-1 #
coedge $-1 $51 $82 $148 $149 reversed $32 $-1 #
coedge $-1 $150 $143 $51 $85 forward $79 $-1 #
edge $-1 $151 -2.5146510522328782 $152 5.6502796118745877 $84 $153 forward 7 unknown #
face $-1 $154 $155 $18 $-1 $156 forward single #
loop $-1 $-1 $157 $52 #
plane-surface $-1 34.985752513536369 78.881275461434967 166.60235477588662 1 0 0 0 -0.71933980857756763 -0.69465836192734942 forward_v I I I I #
loop $-1 $-1 $158 $34 #
coedge $-1 $90 $90 $91 $159 forward $53 $-1 #
coedge $-1 $91 $91 $90 $159 reversed $55 $-1 #
coedge $-1 $92 $92 $56 $93 forward $155 $-1 #
edge $-1 $160 6.3890209440981471e-016 $160 6.2831853071796013 $92 $161 forward 7 unknown #
face $-1 $162 $163 $19 $-1 $164 reversed single #
loop $-1 $165 $166 $57 #
cone-surface $-1 44.141495856263191 38.576830117863224 10.48321109985897 0 -0.71933980857756763 -0.69465836192734942 2 0 0 1 I I 0 1 2 forward I I I I #
loop $-1 $-1 $167 $37 #
coedge $-1 $98 $98 $99 $168 forward $58 $-1 #
coedge $-1 $99 $99 $98 $168 reversed $60 $-1 #
coedge $-1 $100 $100 $61 $101 forward $169 $-1 #
edge $-1 $170 6.3890209440981471e-016 $170 6.2831853071796013 $100 $171 forward 7 unknown #
face $-1 $172 $173 $15 $-1 $174 reversed single #
loop $-1 $-1 $175 $62 #
plane-surface $-1 -67.030854213080232 0 0 1 0 0 0 0 -1 forward_v I I I I #
coedge $-1 $176 $113 $177 $178 forward $63 $-1 #
coedge $-1 $179 $65 $176 $180 forward $41 $-1 #
coedge $-1 $65 $179 $181 $182 forward $41 $-1 #
coedge $-1 $116 $115 $65 $109 reversed $117 $-1 #
edge $-1 $183 -45.090917342592071 $184 45.090917342592071 $108 $185 forward 7 unknown #
coedge $-1 $67 $66 $186 $187 forward $26 $-1 #
coedge $-1 $188 $189 $66 $112 reversed $173 $-1 #
edge $-1 $119 -67.030854213080232 $190 67.030854213080232 $111 $191 forward 7 unknown #
coedge $-1 $105 $192 $67 $114 reversed $63 $-1 #
edge $-1 $193 -67.030854213080232 $118 67.030854213080232 $113 $194 forward 7 unknown #
coedge $-1 $108 $68 $192 $195 forward $117 $-1 #
coedge $-1 $68 $108 $188 $196 reversed $117 $-1 #
loop $-1 $-1 $115 $172 #
vertex $-1 $69 $197 #
vertex $-1 $69 $198 #
straight-curve $-1 67.030854213080232 0 17.058917717137444 0 1 0 I I #
face $-1 $199 $200 $16 $-1 $201 reversed single #
loop $-1 $-1 $202 $70 #
plane-surface $-1 0 0 -17.058917717137444 0 0 1 1 0 0 forward_v I I I I #
coedge $-1 $203 $204 $205 $206 forward $71 $-1 #
coedge $-1 $207 $73 $129 $208 reversed $45 $-1 #
coedge $-1 $73 $207 $209 $210 reversed $45 $-1 #
coedge $-1 $211 $132 $73 $128 reversed $212 $-1 #
edge $-1 $213 -5.0304206195819141 $214 5.0304206195819123 $127 $215 forward 7 unknown #
coedge $-1 $75 $74 $125 $208 forward $29 $-1 #
coedge $-1 $216 $217 $74 $131 reversed $200 $-1 #
edge $-1 $137 -10.843296159753805 $218 10.843296159753805 $130 $219 forward 7 unknown #
coedge $-1 $127 $220 $75 $133 reversed $212 $-1 #
edge $-1 $214 -10.843296159753805 $138 10.843296159753805 $132 $221 forward 7 unknown #
coedge $-1 $222 $76 $220 $223 forward $136 $-1 #
coedge $-1 $76 $222 $216 $224 reversed $136 $-1 #
loop $-1 $-1 $76 $199 #
vertex $-1 $224 $225 #
vertex $-1 $223 $226 #
straight-curve $-1 -67.030854213080232 0 6.9980764779736209 0 1 0 I I #
face $-1 $227 $228 $17 $-1 $229 reversed single #
loop $-1 $-1 $148 $78 #
plane-surface $-1 0 45.090917342592071 0 0 -1 0 0 0 -1 forward_v I I I I #
coedge $-1 $84 $230 $81 $146 forward $79 $-1 #
coedge $-1 $231 $81 $232 $233 reversed $49 $-1 #
coedge $-1 $81 $231 $82 $147 reversed $49 $-1 #
edge $-1 $234 -41.526702531426082 $151 -9.4816008318822185 $143 $235 forward 7 unknown #
edge $-1 $151 78.427955207718966 $236 90.181834685184157 $82 $237 forward 7 unknown #
coedge $-1 $238 $239 $83 $149 forward $141 $-1 #
edge $-1 $152 66.242259670805865 $236 74.697293084169473 $148 $240 forward 7 unknown #
coedge $-1 $241 $84 $239 $242 forward $79 $-1 #
vertex $-1 $146 $243 #
vertex $-1 $242 $244 #
straight-curve $-1 34.985752513536369 39.440637730717484 17.058917717137447 0 1 0 I I #
face $-1 $245 $246 $18 $-1 $247 forward single #
loop $-1 $248 $92 $86 #
plane-surface $-1 51.008303363308301 -17.554648215420983 73.475268003388052 0 0.71933980857756763 0.69465836192734942 1 0 0 forward_v I I I I #
coedge $-1 $249 $250 $251 $252 reversed $87 $-1 #
coedge $-1 $158 $158 $-1 $253 forward $89 $-1 #
edge $-1 $254 0 $254 6.2831853071796004 $90 $255 forward 7 unknown #
vertex $-1 $93 $256 #
ellipse-curve $-1 44.141495856263191 41.008452010538342 12.831401010455632 0 -0.71933980857756763 -0.69465836192734942 2 0 0 1 I I #
face $-1 $257 $258 $19 $-1 $259 forward single #
loop $-1 $260 $261 $94 #
cone-surface $-1 44.141495856263191 35.425868416610534 7.4403628273349547 0 -0.71933980857756763 -0.69465836192734942 1 0 0 1 I I -0.70710678118654746 0.70710678118654746 1 forward I I I I #
loop $-1 $-1 $262 $57 #
coedge $-1 $166 $166 $263 $264 reversed $95 $-1 #
coedge $-1 $167 $167 $-1 $265 forward $97 $-1 #
edge $-1 $266 0 $266 6.2831853071796004 $98 $267 forward 7 unknown #
loop $-1 $268 $100 $257 #
vertex $-1 $101 $269 #
ellipse-curve $-1 57.87511087035341 41.008452010538342 12.831401010455632 0 -0.71933980857756763 -0.69465836192734942 2 0 0 1 I I #
face $-1 $-1 $117 $15 $-1 $270 reversed single #
loop $-1 $-1 $188 $102 #
plane-surface $-1 0 45.090917342592071 0 0 -1 0 0 0 -1 forward_v I I I I #
coedge $-1 $271 $186 $189 $272 forward $103 $-1 #
coedge $-1 $192 $105 $106 $180 reversed $63 $-1 #
coedge $-1 $186 $271 $105 $178 reversed $103 $-1 #
edge $-1 $193 -17.058917717137444 $273 17.058917717137444 $177 $274 forward 7 unknown #
coedge $-1 $107 $106 $271 $275 forward $41 $-1 #
edge $-1 $184 -67.030854213080232 $273 67.030854213080232 $176 $276 forward 7 unknown #
coedge $-1 $189 $188 $107 $182 reversed $173 $-1 #
edge $-1 $277 -67.030854213080232 $183 67.030854213080232 $181 $278 forward 7 unknown #
vertex $-1 $109 $279 #
vertex $-1 $195 $280 #
straight-curve $-1 67.030854213080232 0 -17.058917717137444 0 -1 0 I I #
coedge $-1 $175 $177 $110 $187 reversed $103 $-1 #
edge $-1 $190 -45.090917342592071 $193 45.090917342592071 $186 $281 forward 7 unknown #
coedge $-1 $181 $111 $116 $196 forward $173 $-1 #
coedge $-1 $111 $181 $175 $272 reversed $173 $-1 #
vertex $-1 $112 $282 #
straight-curve $-1 0 45.090917342592071 17.058917717137444 -1 0 0 I I #
coedge $-1 $113 $176 $115 $195 reversed $63 $-1 #
vertex $-1 $187 $283 #
straight-curve $-1 0 -45.090917342592071 17.058917717137444 1 0 0 I I #
edge $-1 $118 -17.058917717137444 $184 17.058917717137444 $115 $284 forward 7 unknown #
edge $-1 $119 -17.058917717137444 $183 17.058917717137444 $116 $285 forward 7 unknown #
point $-1 67.030854213080232 -45.090917342592071 17.058917717137444 #
point $-1 67.030854213080232 45.090917342592071 17.058917717137444 #
face $-1 $286 $136 $16 $-1 $287 reversed single #
loop $-1 $-1 $216 $121 #
plane-surface $-1 0 -45.090917342592071 0 0 1 0 0 0 1 forward_v I I I I #
coedge $-1 $288 $289 $290 $291 forward $122 $-1 #
coedge $-1 $209 $124 $211 $292 forward $71 $-1 #
coedge $-1 $124 $209 $293 $294 forward $71 $-1 #
coedge $-1 $295 $296 $124 $206 reversed $297 $-1 #
edge $-1 $298 -45.090917342592071 $299 45.090917342592071 $205 $300 forward 7 unknown #
coedge $-1 $126 $125 $217 $301 reversed $45 $-1 #
edge $-1 $218 -45.090917342592071 $214 45.090917342592071 $125 $302 forward 7 unknown #
coedge $-1 $204 $203 $126 $210 forward $71 $-1 #
edge $-1 $213 -45.090917342592071 $303 45.090917342592071 $126 $304 forward 7 unknown #
coedge $-1 $305 $127 $203 $292 reversed $212 $-1 #
loop $-1 $-1 $305 $286 #
vertex $-1 $292 $306 #
vertex $-1 $133 $307 #
straight-curve $-1 -88.717446532587843 45.090917342592071 12.028497097555533 0 0 -1 I I #
coedge $-1 $308 $130 $135 $224 forward $200 $-1 #
coedge $-1 $130 $293 $207 $301 forward $200 $-1 #
vertex $-1 $208 $309 #
straight-curve $-1 -77.874150372834038 -45.090917342592071 6.9980764779736209 -1 0 0 I I #
coedge $-1 $132 $310 $134 $223 reversed $212 $-1 #
straight-curve $-1 -77.874150372834038 45.090917342592071 6.9980764779736209 1 0 0 I I #
coedge $-1 $135 $134 $311 $312 reversed $136 $-1 #
edge $-1 $138 -6.9980764779736209 $313 17.058917717137444 $220 $314 forward 7 unknown #
edge $-1 $137 -6.9980764779736209 $315 17.058917717137444 $135 $316 forward 7 unknown #
point $-1 -67.030854213080232 -45.090917342592071 6.9980764779736209 #
point $-1 -67.030854213080232 45.090917342592071 6.9980764779736209 #
face $-1 $317 $318 $17 $-1 $319 reversed single #
loop $-1 $-1 $320 $140 #
plane-surface $-1 -77.874150372834038 0 6.9980764779736209 0 0 1 1 0 0 forward_v I I I I #
coedge $-1 $143 $321 $322 $323 forward $79 $-1 #
coedge $-1 $145 $144 $238 $324 reversed $49 $-1 #
coedge $-1 $322 $325 $144 $233 forward $326 $-1 #
edge $-1 $327 -57.657750488045231 $234 -45.903871010580048 $232 $328 forward 7 unknown #
vertex $-1 $233 $329 #
straight-curve $-1 25.50415168165415 36.925986678484612 17.058917717137454 -1 0 0 I I #
vertex $-1 $324 $330 #
straight-curve $-1 34.985752513536369 -17.554648215420983 73.475268003388052 0 0.69465836192734942 -0.71933980857756763 I I #
coedge $-1 $331 $148 $231 $324 forward $141 $-1 #
coedge $-1 $148 $332 $150 $242 reversed $141 $-1 #
straight-curve $-1 34.985752513536369 45.090917342592071 83.301177387943312 0 0 -1 I I #
coedge $-1 $321 $150 $333 $334 forward $79 $-1 #
edge $-1 $152 -34.985752513536369 $335 88.717446532587843 $239 $336 forward 7 unknown #
point $-1 34.985752513536369 36.925986678484605 17.05891771713744 #
point $-1 34.985752513536369 45.090917342592071 17.058917717137444 #
face $-1 $337 $338 $18 $-1 $339 reversed single #
loop $-1 $-1 $340 $154 #
plane-surface $-1 0 0 17.058917717137444 0 0 1 1 0 0 forward_v I I I I #
loop $-1 $-1 $341 $86 #
coedge $-1 $250 $157 $342 $343 forward $87 $-1 #
coedge $-1 $157 $249 $344 $345 reversed $87 $-1 #
coedge $-1 $346 $340 $157 $252 forward $246 $-1 #
edge $-1 $347 -2.5146510522328782 $348 5.6502796118745877 $251 $349 forward 7 unknown #
edge $-1 $350 1 $350 0 $158 $-1 forward 7 unknown #
vertex $-1 $159 $351 #
ellipse-curve $-1 44.141495856263191 36.1452082251881 8.1350211892623037 0 0.71933980857756763 0.69465836192734942 2 0 0 1 I I #
point $-1 46.141495856263191 41.008452010538342 12.831401010455634 #
face $-1 $352 $169 $19 $-1 $353 forward single #
loop $-1 $-1 $354 $162 #
plane-surface $-1 34.985752513536369 78.881275461434967 166.60235477588662 1 0 0 0 -0.71933980857756763 -0.69465836192734942 forward_v I I I I #
loop $-1 $-1 $355 $94 #
coedge $-1 $261 $261 $262 $356 forward $163 $-1 #
coedge $-1 $262 $262 $261 $356 reversed $165 $-1 #
coedge $-1 $263 $263 $166 $264 forward $268 $-1 #
edge $-1 $357 6.3890209440981471e-016 $357 6.2831853071796013 $263 $358 forward 7 unknown #
edge $-1 $359 1 $359 0 $167 $-1 forward 7 unknown #
vertex $-1 $168 $360 #
ellipse-curve $-1 57.87511087035341 36.1452082251881 8.1350211892623037 0 0.71933980857756763 0.69465836192734942 2 0 0 1 I I #
loop $-1 $361 $263 $257 #
point $-1 59.87511087035341 41.008452010538342 12.831401010455634 #
plane-surface $-1 67.030854213080232 0 0 -1 0 0 0 0 1 forward_v I I I I #
coedge $-1 $177 $175 $179 $275 reversed $103 $-1 #
edge $-1 $190 -17.058917717137444 $277 17.058917717137444 $189 $362 forward 7 unknown #
vertex $-1 $275 $363 #
straight-curve $-1 -67.030854213080232 -45.090917342592071 0 0 0 -1 I I #
edge $-1 $273 -45.090917342592071 $277 45.090917342592071 $271 $364 forward 7 unknown #
straight-curve $-1 0 -45.090917342592071 -17.058917717137444 -1 0 0 I I #
vertex $-1 $182 $365 #
straight-curve $-1 0 45.090917342592071 -17.058917717137444 1 0 0 I I #
point $-1 67.030854213080232 45.090917342592071 -17.058917717137444 #
point $-1 67.030854213080232 -45.090917342592071 -17.058917717137444 #
straight-curve $-1 -67.030854213080232 0 17.058917717137444 0 -1 0 I I #
point $-1 -67.030854213080232 45.090917342592071 17.058917717137444 #
point $-1 -67.030854213080232 -45.090917342592071 17.058917717137444 #
straight-curve $-1 67.030854213080232 -45.090917342592071 0 0 0 -1 I I #
straight-curve $-1 67.030854213080232 45.090917342592071 0 0 0 -1 I I #
face $-1 $366 $212 $16 $-1 $367 reversed single #
plane-surface $-1 -67.030854213080232 0 0 1 0 0 0 0 -1 forward_v I I I I #
coedge $-1 $311 $202 $308 $368 forward $122 $-1 #
coedge $-1 $202 $311 $310 $369 forward $122 $-1 #
coedge $-1 $296 $295 $202 $291 reversed $297 $-1 #
edge $-1 $370 -45.090917342592071 $371 45.090917342592071 $290 $372 forward 7 unknown #
edge $-1 $299 -67.030854213080232 $213 88.717446532587843 $211 $373 forward 7 unknown #
coedge $-1 $217 $374 $204 $294 reversed $200 $-1 #
edge $-1 $303 -88.717446532587843 $298 67.030854213080232 $293 $375 forward 7 unknown #
coedge $-1 $290 $205 $374 $376 forward $297 $-1 #
coedge $-1 $205 $290 $305 $377 reversed $297 $-1 #
loop $-1 $-1 $295 $366 #
vertex $-1 $206 $378 #
vertex $-1 $206 $379 #
straight-curve $-1 67.030854213080232 0 17.058917717137444 0 1 0 I I #
edge $-1 $303 -5.0304206195819141 $218 5.0304206195819123 $207 $380 forward 7 unknown #
straight-curve $-1 -88.717446532587843 0 6.9980764779736209 0 1 0 I I #
vertex $-1 $210 $381 #
straight-curve $-1 -88.717446532587843 0 17.058917717137447 0 -1 0 I I #
coedge $-1 $310 $211 $296 $377 forward $212 $-1 #
point $-1 -88.717446532587843 45.090917342592071 17.058917717137447 #
point $-1 -88.717446532587843 45.090917342592071 6.9980764779736209 #
coedge $-1 $374 $216 $288 $368 reversed $200 $-1 #
point $-1 -88.717446532587843 -45.090917342592071 6.9980764779736209 #
coedge $-1 $220 $305 $289 $369 reversed $212 $-1 #
coedge $-1 $289 $288 $222 $312 forward $122 $-1 #
edge $-1 $315 -45.090917342592071 $313 45.090917342592071 $222 $382 forward 7 unknown #
vertex $-1 $369 $383 #
straight-curve $-1 -67.030854213080232 45.090917342592071 0 0 0 -1 I I #
vertex $-1 $312 $384 #
straight-curve $-1 -67.030854213080232 -45.090917342592071 0 0 0 -1 I I #
face $-1 $385 $386 $17 $-1 $387 reversed single #
loop $-1 $-1 $388 $227 #
plane-surface $-1 -88.717446532587843 0 12.028497097555533 1 0 0 0 0 -1 forward_v I I I I #
coedge $-1 $389 $390 $391 $392 reversed $228 $-1 #
coedge $-1 $230 $241 $393 $394 forward $79 $-1 #
coedge $-1 $395 $232 $230 $323 reversed $326 $-1 #
edge $-1 $396 -45.090917342592071 $234 36.925986678484605 $322 $397 forward 7 unknown #
edge $-1 $236 9.4816008318822185 $327 41.526702531426082 $238 $398 forward 7 unknown #
coedge $-1 $232 $399 $331 $400 reversed $326 $-1 #
loop $-1 $-1 $232 $401 #
vertex $-1 $400 $402 #
straight-curve $-1 67.030854213080232 5.038478836150734 50.079399502857449 0 -0.69465836192734942 0.71933980857756763 I I #
point $-1 67.030854213080232 36.925986678484605 17.05891771713744 #
point $-1 34.985752513536369 45.090917342592064 8.6038843037738388 #
coedge $-1 $403 $238 $325 $400 forward $141 $-1 #
coedge $-1 $239 $404 $388 $405 reversed $141 $-1 #
coedge $-1 $388 $406 $241 $334 reversed $318 $-1 #
edge $-1 $335 -45.090917342592071 $407 45.090917342592071 $333 $408 forward 7 unknown #
vertex $-1 $242 $409 #
straight-curve $-1 0 45.090917342592071 17.058917717137444 -1 0 0 I I #
face $-1 $410 $411 $18 $-1 $412 reversed single #
loop $-1 $-1 $344 $245 #
plane-surface $-1 0 45.090917342592071 0 0 -1 0 0 0 -1 forward_v I I I I #
coedge $-1 $251 $413 $341 $414 forward $246 $-1 #
coedge $-1 $415 $342 $340 $414 reversed $248 $-1 #
coedge $-1 $341 $416 $249 $343 reversed $248 $-1 #
edge $-1 $347 78.427955207718966 $417 90.181834685184157 $249 $418 forward 7 unknown #
coedge $-1 $419 $420 $250 $345 forward $338 $-1 #
edge $-1 $348 66.242259670805865 $417 74.697293084169473 $344 $421 forward 7 unknown #
coedge $-1 $422 $251 $420 $423 forward $246 $-1 #
vertex $-1 $414 $424 #
vertex $-1 $423 $425 #
straight-curve $-1 34.985752513536369 39.440637730717484 17.058917717137447 0 1 0 I I #
vertex $-1 $253 $426 #
point $-1 46.141495856263191 36.1452082251881 8.1350211892623037 #
face $-1 $427 $428 $19 $-1 $429 forward single #
plane-surface $-1 51.008303363308301 -17.554648215420983 73.475268003388052 0 0.71933980857756763 0.69465836192734942 1 0 0 forward_v I I I I #
coedge $-1 $430 $431 $432 $433 reversed $258 $-1 #
coedge $-1 $355 $355 $-1 $434 forward $260 $-1 #
edge $-1 $435 0 $435 6.2831853071796004 $261 $436 forward 7 unknown #
vertex $-1 $264 $437 #
ellipse-curve $-1 44.141495856263191 41.008452010538342 12.831401010455632 0 -0.71933980857756763 -0.69465836192734942 2 0 0 1 I I #
vertex $-1 $265 $438 #
point $-1 59.87511087035341 36.1452082251881 8.1350211892623037 #
loop $-1 $-1 $439 $257 #
straight-curve $-1 -67.030854213080232 45.090917342592071 0 0 0 -1 I I #
point $-1 -67.030854213080232 -45.090917342592071 -17.058917717137444 #
straight-curve $-1 -67.030854213080232 0 -17.058917717137444 0 1 0 I I #
point $-1 -67.030854213080232 45.090917342592071 -17.058917717137444 #
face $-1 $-1 $297 $16 $-1 $440 reversed single #
plane-surface $-1 0 45.090917342592071 0 0 -1 0 0 0 -1 forward_v I I I I #
edge $-1 $371 -67.030854213080232 $315 67.030854213080232 $308 $441 forward 7 unknown #
edge $-1 $313 -67.030854213080232 $370 67.030854213080232 $310 $442 forward 7 unknown #
vertex $-1 $291 $443 #
vertex $-1 $376 $444 #
straight-curve $-1 67.030854213080232 0 -17.058917717137444 0 -1 0 I I #
straight-curve $-1 0 45.090917342592071 17.058917717137444 -1 0 0 I I #
coedge $-1 $293 $308 $295 $376 reversed $200 $-1 #
straight-curve $-1 0 -45.090917342592071 17.058917717137444 1 0 0 I I #
edge $-1 $298 -17.058917717137444 $371 17.058917717137444 $295 $445 forward 7 unknown #
edge $-1 $299 -17.058917717137444 $370 17.058917717137444 $296 $446 forward 7 unknown #
point $-1 67.030854213080232 -45.090917342592071 17.058917717137444 #
point $-1 67.030854213080232 45.090917342592071 17.058917717137444 #
straight-curve $-1 -88.717446532587843 -45.090917342592071 12.028497097555533 0 0 -1 I I #
point $-1 -88.717446532587843 -45.090917342592071 17.058917717137447 #
straight-curve $-1 -67.030854213080232 0 -17.058917717137444 0 1 0 I I #
point $-1 -67.030854213080232 45.090917342592071 -17.058917717137444 #
point $-1 -67.030854213080232 -45.090917342592071 -17.058917717137444 #
face $-1 $447 $448 $17 $-1 $449 reversed single #
loop $-1 $-1 $450 $317 #
plane-surface $-1 0 0 -17.058917717137444 0 0 1 1 0 0 forward_v I I I I #
coedge $-1 $451 $333 $332 $405 forward $318 $-1 #
coedge $-1 $452 $320 $453 $454 forward $228 $-1 #
coedge $-1 $320 $452 $404 $455 forward $228 $-1 #
coedge $-1 $456 $457 $320 $392 forward $458 $-1 #
edge $-1 $459 -45.090917342592071 $460 45.090917342592071 $391 $461 forward 7 unknown #
coedge $-1 $462 $463 $321 $394 reversed $448 $-1 #
edge $-1 $407 -88.717446532587843 $396 67.030854213080232 $393 $464 forward 7 unknown #
coedge $-1 $399 $322 $463 $465 forward $326 $-1 #
vertex $-1 $323 $466 #
straight-curve $-1 67.030854213080232 0 17.058917717137444 0 1 0 I I #
straight-curve $-1 25.50415168165415 45.090917342592071 8.6038843037738282 1 0 0 I I #
coedge $-1 $325 $395 $450 $467 reversed $326 $-1 #
edge $-1 $327 -8.6038843037738388 $468 17.058917717137444 $325 $469 forward 7 unknown #
face $-1 $-1 $326 $17 $-1 $470 reversed single #
point $-1 67.030854213080232 45.090917342592064 8.6038843037738388 #
coedge $-1 $471 $331 $472 $473 reversed $141 $-1 #
coedge $-1 $332 $471 $390 $455 reversed $141 $-1 #
edge $-1 $335 -5.0304206195819141 $474 5.0304206195819123 $332 $475 forward 7 unknown #
coedge $-1 $333 $451 $462 $476 reversed $318 $-1 #
vertex $-1 $334 $477 #
straight-curve $-1 -88.717446532587843 0 17.058917717137447 0 -1 0 I I #
point $-1 -88.717446532587843 45.090917342592071 17.058917717137447 #
face $-1 $478 $479 $18 $-1 $480 reversed single #
loop $-1 $-1 $481 $337 #
plane-surface $-1 -77.874150372834038 0 6.9980764779736209 0 0 1 1 0 0 forward_v I I I I #
coedge $-1 $340 $482 $483 $484 forward $246 $-1 #
edge $-1 $485 -41.526702531426082 $347 -9.4816008318822185 $340 $486 forward 7 unknown #
coedge $-1 $416 $341 $487 $488 reversed $248 $-1 #
coedge $-1 $342 $415 $419 $489 reversed $248 $-1 #
vertex $-1 $489 $490 #
straight-curve $-1 34.985752513536369 -17.554648215420983 73.475268003388052 0 0.69465836192734942 -0.71933980857756763 I I #
coedge $-1 $491 $344 $416 $489 forward $338 $-1 #
coedge $-1 $344 $492 $346 $423 reversed $338 $-1 #
straight-curve $-1 34.985752513536369 45.090917342592071 83.301177387943312 0 0 -1 I I #
coedge $-1 $482 $346 $493 $494 forward $246 $-1 #
edge $-1 $348 -34.985752513536369 $495 88.717446532587843 $420 $496 forward 7 unknown #
point $-1 34.985752513536369 36.925986678484605 17.05891771713744 #
point $-1 34.985752513536369 45.090917342592071 17.058917717137444 #
point $-1 44.141495856263191 34.706528608032968 6.7457044654076057 #
face $-1 $497 $498 $19 $-1 $499 reversed single #
loop $-1 $-1 $500 $352 #
plane-surface $-1 0 0 17.058917717137444 0 0 1 1 0 0 forward_v I I I I #
coedge $-1 $431 $354 $501 $502 forward $258 $-1 #
coedge $-1 $354 $430 $503 $504 reversed $258 $-1 #
coedge $-1 $505 $500 $354 $433 forward $428 $-1 #
edge $-1 $506 -2.5146510522328782 $507 5.6502796118745877 $432 $508 forward 7 unknown #
edge $-1 $509 1 $509 0 $355 $-1 forward 7 unknown #
vertex $-1 $356 $510 #
ellipse-curve $-1 44.141495856263191 36.1452082251881 8.1350211892623037 0 0.71933980857756763 0.69465836192734942 2 0 0 1 I I #
point $-1 46.141495856263191 41.008452010538342 12.831401010455634 #
point $-1 57.87511087035341 34.706528608032968 6.7457044654076057 #
coedge $-1 $511 $501 $500 $512 reversed $361 $-1 #
plane-surface $-1 67.030854213080232 0 0 -1 0 0 0 0 1 forward_v I I I I #
straight-curve $-1 0 -45.090917342592071 -17.058917717137444 -1 0 0 I I #
straight-curve $-1 0 45.090917342592071 -17.058917717137444 1 0 0 I I #
point $-1 67.030854213080232 45.090917342592071 -17.058917717137444 #
point $-1 67.030854213080232 -45.090917342592071 -17.058917717137444 #
straight-curve $-1 67.030854213080232 -45.090917342592071 0 0 0 -1 I I #
straight-curve $-1 67.030854213080232 45.090917342592071 0 0 0 -1 I I #
face $-1 $401 $458 $17 $-1 $513 reversed single #
loop $-1 $-1 $514 $385 #
plane-surface $-1 0 -45.090917342592071 0 0 1 0 0 0 1 forward_v I I I I #
coedge $-1 $515 $472 $399 $467 forward $386 $-1 #
coedge $-1 $406 $388 $452 $516 reversed $318 $-1 #
coedge $-1 $390 $389 $451 $516 forward $228 $-1 #
coedge $-1 $514 $462 $389 $454 reversed $448 $-1 #
edge $-1 $459 -10.843296159753805 $517 10.843296159753805 $453 $518 forward 7 unknown #
edge $-1 $474 -10.843296159753805 $460 10.843296159753805 $404 $519 forward 7 unknown #
coedge $-1 $520 $391 $471 $521 forward $458 $-1 #
coedge $-1 $391 $520 $514 $522 reversed $458 $-1 #
loop $-1 $-1 $391 $447 #
vertex $-1 $522 $523 #
vertex $-1 $521 $524 #
straight-curve $-1 -67.030854213080232 0 6.9980764779736209 0 1 0 I I #
coedge $-1 $453 $393 $406 $476 forward $448 $-1 #
coedge $-1 $393 $525 $395 $465 reversed $448 $-1 #
straight-curve $-1 0 -45.090917342592071 17.058917717137444 1 0 0 I I #
edge $-1 $396 -17.058917717137444 $526 17.058917717137444 $395 $527 forward 7 unknown #
point $-1 67.030854213080232 -45.090917342592071 17.058917717137444 #
edge $-1 $468 -45.090917342592071 $526 45.090917342592071 $399 $528 forward 7 unknown #
vertex $-1 $467 $529 #
straight-curve $-1 67.030854213080232 45.090917342592071 0 0 0 -1 I I #
plane-surface $-1 67.030854213080232 0 0 -1 0 0 0 0 1 forward_v I I I I #
coedge $-1 $404 $403 $456 $521 reversed $141 $-1 #
coedge $-1 $450 $530 $403 $473 forward $386 $-1 #
edge $-1 $531 -67.030854213080232 $468 67.030854213080232 $403 $532 forward 7 unknown #
vertex $-1 $455 $533 #
straight-curve $-1 -88.717446532587843 45.090917342592071 12.028497097555533 0 0 -1 I I #
edge $-1 $407 -5.0304206195819141 $517 5.0304206195819123 $406 $534 forward 7 unknown #
point $-1 -88.717446532587843 -45.090917342592071 17.058917717137447 #
face $-1 $535 $536 $18 $-1 $537 reversed single #
loop $-1 $-1 $538 $410 #
plane-surface $-1 -88.717446532587843 0 12.028497097555533 1 0 0 0 0 -1 forward_v I I I I #
coedge $-1 $539 $540 $541 $542 reversed $411 $-1 #
coedge $-1 $413 $422 $543 $544 forward $246 $-1 #
coedge $-1 $545 $487 $413 $484 reversed $546 $-1 #
edge $-1 $547 -45.090917342592071 $485 36.925986678484605 $483 $548 forward 7 unknown #
vertex $-1 $488 $549 #
straight-curve $-1 25.50415168165415 36.925986678484612 17.058917717137454 -1 0 0 I I #
coedge $-1 $483 $550 $415 $488 forward $546 $-1 #
edge $-1 $551 -57.657750488045231 $485 -45.903871010580048 $487 $552 forward 7 unknown #
edge $-1 $417 9.4816008318822185 $551 41.526702531426082 $419 $553 forward 7 unknown #
point $-1 34.985752513536369 45.090917342592064 8.6038843037738388 #
coedge $-1 $554 $419 $550 $555 forward $338 $-1 #
coedge $-1 $420 $556 $538 $557 reversed $338 $-1 #
coedge $-1 $538 $558 $422 $494 reversed $479 $-1 #
edge $-1 $495 -45.090917342592071 $559 45.090917342592071 $493 $560 forward 7 unknown #
vertex $-1 $423 $561 #
straight-curve $-1 0 45.090917342592071 17.058917717137444 -1 0 0 I I #
face $-1 $562 $563 $19 $-1 $564 reversed single #
loop $-1 $-1 $503 $427 #
plane-surface $-1 0 45.090917342592071 0 0 -1 0 0 0 -1 forward_v I I I I #
coedge $-1 $432 $565 $439 $512 forward $428 $-1 #
coedge $-1 $439 $566 $430 $502 reversed $361 $-1 #
edge $-1 $506 78.427955207718966 $567 90.181834685184157 $430 $568 forward 7 unknown #
coedge $-1 $569 $570 $431 $504 forward $498 $-1 #
edge $-1 $507 66.242259670805865 $567 74.697293084169473 $503 $571 forward 7 unknown #
coedge $-1 $572 $432 $570 $573 forward $428 $-1 #
vertex $-1 $512 $574 #
vertex $-1 $573 $575 #
straight-curve $-1 34.985752513536369 39.440637730717484 17.058917717137447 0 1 0 I I #
vertex $-1 $434 $576 #
point $-1 46.141495856263191 36.1452082251881 8.1350211892623037 #
coedge $-1 $566 $439 $577 $578 reversed $361 $-1 #
edge $-1 $579 -41.526702531426082 $506 -9.4816008318822185 $500 $580 forward 7 unknown #
plane-surface $-1 -67.030854213080232 0 0 1 0 0 0 0 -1 forward_v I I I I #
coedge $-1 $525 $453 $457 $522 forward $448 $-1 #
coedge $-1 $530 $450 $525 $581 forward $386 $-1 #
edge $-1 $517 -45.090917342592071 $474 45.090917342592071 $451 $582 forward 7 unknown #
vertex $-1 $516 $583 #
straight-curve $-1 -77.874150372834038 -45.090917342592071 6.9980764779736209 -1 0 0 I I #
straight-curve $-1 -77.874150372834038 45.090917342592071 6.9980764779736209 1 0 0 I I #
coedge $-1 $457 $456 $530 $584 reversed $458 $-1 #
edge $-1 $460 -6.9980764779736209 $531 17.058917717137444 $471 $585 forward 7 unknown #
edge $-1 $459 -6.9980764779736209 $586 17.058917717137444 $457 $587 forward 7 unknown #
point $-1 -67.030854213080232 -45.090917342592071 6.9980764779736209 #
point $-1 -67.030854213080232 45.090917342592071 6.9980764779736209 #
coedge $-1 $463 $514 $515 $581 reversed $448 $-1 #
vertex $-1 $465 $588 #
straight-curve $-1 67.030854213080232 -45.090917342592071 0 0 0 -1 I I #
straight-curve $-1 67.030854213080232 0 -17.058917717137444 0 -1 0 I I #
point $-1 67.030854213080232 45.090917342592071 -17.058917717137444 #
coedge $-1 $472 $515 $520 $584 forward $386 $-1 #
vertex $-1 $473 $589 #
straight-curve $-1 0 45.090917342592071 -17.058917717137444 1 0 0 I I #
point $-1 -88.717446532587843 45.090917342592071 6.9980764779736209 #
straight-curve $-1 -88.717446532587843 -45.090917342592071 12.028497097555533 0 0 -1 I I #
face $-1 $590 $591 $18 $-1 $592 reversed single #
loop $-1 $-1 $593 $478 #
plane-surface $-1 0 0 -17.058917717137444 0 0 1 1 0 0 forward_v I I I I #
coedge $-1 $594 $493 $492 $557 forward $479 $-1 #
coedge $-1 $595 $481 $596 $597 forward $411 $-1 #
coedge $-1 $481 $595 $556 $598 forward $411 $-1 #
coedge $-1 $599 $600 $481 $542 forward $601 $-1 #
edge $-1 $602 -45.090917342592071 $603 45.090917342592071 $541 $604 forward 7 unknown #
coedge $-1 $605 $606 $482 $544 reversed $591 $-1 #
edge $-1 $559 -88.717446532587843 $547 67.030854213080232 $543 $607 forward 7 unknown #
coedge $-1 $608 $483 $606 $609 forward $546 $-1 #
loop $-1 $-1 $487 $610 #
vertex $-1 $484 $611 #
straight-curve $-1 67.030854213080232 0 17.058917717137444 0 1 0 I I #
point $-1 67.030854213080232 36.925986678484605 17.05891771713744 #
coedge $-1 $487 $608 $491 $555 reversed $546 $-1 #
vertex $-1 $555 $612 #
straight-curve $-1 67.030854213080232 5.038478836150734 50.079399502857449 0 -0.69465836192734942 0.71933980857756763 I I #
straight-curve $-1 25.50415168165415 45.090917342592071 8.6038843037738282 1 0 0 I I #
coedge $-1 $613 $491 $614 $615 reversed $338 $-1 #
edge $-1 $551 -8.6038843037738388 $616 17.058917717137444 $550 $617 forward 7 unknown #
coedge $-1 $492 $613 $540 $598 reversed $338 $-1 #
edge $-1 $495 -5.0304206195819141 $618 5.0304206195819123 $492 $619 forward 7 unknown #
coedge $-1 $493 $594 $605 $620 reversed $479 $-1 #
vertex $-1 $494 $621 #
straight-curve $-1 -88.717446532587843 0 17.058917717137447 0 -1 0 I I #
point $-1 -88.717446532587843 45.090917342592071 17.058917717137447 #
face $-1 $622 $623 $19 $-1 $624 reversed single #
loop $-1 $-1 $625 $497 #
plane-surface $-1 -77.874150372834038 0 6.9980764779736209 0 0 1 1 0 0 forward_v I I I I #
coedge $-1 $500 $626 $627 $628 forward $428 $-1 #
coedge $-1 $501 $511 $569 $629 reversed $361 $-1 #
vertex $-1 $629 $630 #
straight-curve $-1 34.985752513536369 -17.554648215420983 73.475268003388052 0 0.69465836192734942 -0.71933980857756763 I I #
coedge $-1 $631 $503 $566 $629 forward $498 $-1 #
coedge $-1 $503 $632 $505 $573 reversed $498 $-1 #
straight-curve $-1 34.985752513536369 45.090917342592071 83.301177387943312 0 0 -1 I I #
coedge $-1 $626 $505 $633 $634 forward $428 $-1 #
edge $-1 $507 -34.985752513536369 $635 88.717446532587843 $570 $636 forward 7 unknown #
point $-1 34.985752513536369 36.925986678484605 17.05891771713744 #
point $-1 34.985752513536369 45.090917342592071 17.058917717137444 #
point $-1 44.141495856263191 34.706528608032968 6.7457044654076057 #
coedge $-1 $627 $637 $511 $578 forward $638 $-1 #
edge $-1 $639 -57.657750488045231 $579 -45.903871010580048 $577 $640 forward 7 unknown #
vertex $-1 $578 $641 #
straight-curve $-1 25.50415168165415 36.925986678484612 17.058917717137454 -1 0 0 I I #
edge $-1 $526 -67.030854213080232 $586 67.030854213080232 $525 $642 forward 7 unknown #
straight-curve $-1 -88.717446532587843 0 6.9980764779736209 0 1 0 I I #
point $-1 -88.717446532587843 -45.090917342592071 6.9980764779736209 #
edge $-1 $586 -45.090917342592071 $531 45.090917342592071 $520 $643 forward 7 unknown #
straight-curve $-1 -67.030854213080232 45.090917342592071 0 0 0 -1 I I #
vertex $-1 $584 $644 #
straight-curve $-1 -67.030854213080232 -45.090917342592071 0 0 0 -1 I I #
point $-1 67.030854213080232 -45.090917342592071 -17.058917717137444 #
point $-1 -67.030854213080232 45.090917342592071 -17.058917717137444 #
face $-1 $610 $601 $18 $-1 $645 reversed single #
loop $-1 $-1 $646 $535 #
plane-surface $-1 0 -45.090917342592071 0 0 1 0 0 0 1 forward_v I I I I #
coedge $-1 $647 $614 $608 $648 forward $536 $-1 #
coedge $-1 $558 $538 $595 $649 reversed $479 $-1 #
coedge $-1 $540 $539 $594 $649 forward $411 $-1 #
coedge $-1 $646 $605 $539 $597 reversed $591 $-1 #
edge $-1 $602 -10.843296159753805 $650 10.843296159753805 $596 $651 forward 7 unknown #
edge $-1 $618 -10.843296159753805 $603 10.843296159753805 $556 $652 forward 7 unknown #
coedge $-1 $653 $541 $613 $654 forward $601 $-1 #
coedge $-1 $541 $653 $646 $655 reversed $601 $-1 #
loop $-1 $-1 $541 $590 #
vertex $-1 $655 $656 #
vertex $-1 $654 $657 #
straight-curve $-1 -67.030854213080232 0 6.9980764779736209 0 1 0 I I #
coedge $-1 $596 $543 $558 $620 forward $591 $-1 #
coedge $-1 $543 $658 $545 $609 reversed $591 $-1 #
straight-curve $-1 0 -45.090917342592071 17.058917717137444 1 0 0 I I #
coedge $-1 $550 $545 $593 $648 reversed $546 $-1 #
edge $-1 $547 -17.058917717137444 $659 17.058917717137444 $545 $660 forward 7 unknown #
face $-1 $-1 $546 $18 $-1 $661 reversed single #
point $-1 67.030854213080232 -45.090917342592071 17.058917717137444 #
point $-1 67.030854213080232 45.090917342592064 8.6038843037738388 #
coedge $-1 $556 $554 $599 $654 reversed $338 $-1 #
coedge $-1 $593 $662 $554 $615 forward $536 $-1 #
edge $-1 $663 -67.030854213080232 $616 67.030854213080232 $554 $664 forward 7 unknown #
vertex $-1 $648 $665 #
straight-curve $-1 67.030854213080232 45.090917342592071 0 0 0 -1 I I #
vertex $-1 $598 $666 #
straight-curve $-1 -88.717446532587843 45.090917342592071 12.028497097555533 0 0 -1 I I #
edge $-1 $559 -5.0304206195819141 $650 5.0304206195819123 $558 $667 forward 7 unknown #
point $-1 -88.717446532587843 -45.090917342592071 17.058917717137447 #
face $-1 $668 $669 $19 $-1 $670 reversed single #
loop $-1 $-1 $671 $562 #
plane-surface $-1 -88.717446532587843 0 12.028497097555533 1 0 0 0 0 -1 forward_v I I I I #
coedge $-1 $672 $673 $674 $675 reversed $563 $-1 #
coedge $-1 $565 $572 $676 $677 forward $428 $-1 #
coedge $-1 $678 $577 $565 $628 reversed $638 $-1 #
edge $-1 $679 -45.090917342592071 $579 36.925986678484605 $627 $680 forward 7 unknown #
edge $-1 $567 9.4816008318822185 $639 41.526702531426082 $569 $681 forward 7 unknown #
point $-1 34.985752513536369 45.090917342592064 8.6038843037738388 #
coedge $-1 $682 $569 $637 $683 forward $498 $-1 #
coedge $-1 $570 $684 $671 $685 reversed $498 $-1 #
coedge $-1 $671 $686 $572 $634 reversed $623 $-1 #
edge $-1 $635 -45.090917342592071 $687 45.090917342592071 $633 $688 forward 7 unknown #
vertex $-1 $573 $689 #
straight-curve $-1 0 45.090917342592071 17.058917717137444 -1 0 0 I I #
coedge $-1 $577 $690 $631 $683 reversed $638 $-1 #
loop $-1 $-1 $577 $691 #
vertex $-1 $683 $692 #
straight-curve $-1 67.030854213080232 5.038478836150734 50.079399502857449 0 -0.69465836192734942 0.71933980857756763 I I #
point $-1 67.030854213080232 36.925986678484605 17.05891771713744 #
straight-curve $-1 0 -45.090917342592071 -17.058917717137444 -1 0 0 I I #
straight-curve $-1 -67.030854213080232 0 -17.058917717137444 0 1 0 I I #
point $-1 -67.030854213080232 -45.090917342592071 -17.058917717137444 #
plane-surface $-1 -67.030854213080232 0 0 1 0 0 0 0 -1 forward_v I I I I #
coedge $-1 $658 $596 $600 $655 forward $591 $-1 #
coedge $-1 $662 $593 $658 $693 forward $536 $-1 #
edge $-1 $616 -45.090917342592071 $659 45.090917342592071 $608 $694 forward 7 unknown #
edge $-1 $650 -45.090917342592071 $618 45.090917342592071 $594 $695 forward 7 unknown #
vertex $-1 $649 $696 #
straight-curve $-1 -77.874150372834038 -45.090917342592071 6.9980764779736209 -1 0 0 I I #
straight-curve $-1 -77.874150372834038 45.090917342592071 6.9980764779736209 1 0 0 I I #
coedge $-1 $600 $599 $662 $697 reversed $601 $-1 #
edge $-1 $603 -6.9980764779736209 $663 17.058917717137444 $613 $698 forward 7 unknown #
edge $-1 $602 -6.9980764779736209 $699 17.058917717137444 $600 $700 forward 7 unknown #
point $-1 -67.030854213080232 -45.090917342592071 6.9980764779736209 #
point $-1 -67.030854213080232 45.090917342592071 6.9980764779736209 #
coedge $-1 $606 $646 $647 $693 reversed $591 $-1 #
vertex $-1 $609 $701 #
straight-curve $-1 67.030854213080232 -45.090917342592071 0 0 0 -1 I I #
plane-surface $-1 67.030854213080232 0 0 -1 0 0 0 0 1 forward_v I I I I #
coedge $-1 $614 $647 $653 $697 forward $536 $-1 #
vertex $-1 $615 $702 #
straight-curve $-1 0 45.090917342592071 -17.058917717137444 1 0 0 I I #
point $-1 67.030854213080232 45.090917342592071 -17.058917717137444 #
point $-1 -88.717446532587843 45.090917342592071 6.9980764779736209 #
straight-curve $-1 -88.717446532587843 -45.090917342592071 12.028497097555533 0 0 -1 I I #
face $-1 $703 $704 $19 $-1 $705 reversed single #
loop $-1 $-1 $706 $622 #
plane-surface $-1 0 0 -17.058917717137444 0 0 1 1 0 0 forward_v I I I I #
coedge $-1 $707 $633 $632 $685 forward $623 $-1 #
coedge $-1 $708 $625 $709 $710 forward $563 $-1 #
coedge $-1 $625 $708 $684 $711 forward $563 $-1 #
coedge $-1 $712 $713 $625 $675 forward $714 $-1 #
edge $-1 $715 -45.090917342592071 $716 45.090917342592071 $674 $717 forward 7 unknown #
coedge $-1 $718 $719 $626 $677 reversed $704 $-1 #
edge $-1 $687 -88.717446532587843 $679 67.030854213080232 $676 $720 forward 7 unknown #
coedge $-1 $690 $627 $719 $721 forward $638 $-1 #
vertex $-1 $628 $722 #
straight-curve $-1 67.030854213080232 0 17.058917717137444 0 1 0 I I #
straight-curve $-1 25.50415168165415 45.090917342592071 8.6038843037738282 1 0 0 I I #
coedge $-1 $723 $631 $724 $725 reversed $498 $-1 #
edge $-1 $639 -8.6038843037738388 $726 17.058917717137444 $637 $727 forward 7 unknown #
coedge $-1 $632 $723 $673 $711 reversed $498 $-1 #
edge $-1 $635 -5.0304206195819141 $728 5.0304206195819123 $632 $729 forward 7 unknown #
coedge $-1 $633 $707 $718 $730 reversed $623 $-1 #
vertex $-1 $634 $731 #
straight-curve $-1 -88.717446532587843 0 17.058917717137447 0 -1 0 I I #
point $-1 -88.717446532587843 45.090917342592071 17.058917717137447 #
coedge $-1 $637 $678 $706 $732 reversed $638 $-1 #
face $-1 $-1 $638 $19 $-1 $733 reversed single #
point $-1 67.030854213080232 45.090917342592064 8.6038843037738388 #
edge $-1 $659 -67.030854213080232 $699 67.030854213080232 $658 $734 forward 7 unknown #
straight-curve $-1 67.030854213080232 0 -17.058917717137444 0 -1 0 I I #
straight-curve $-1 -88.717446532587843 0 6.9980764779736209 0 1 0 I I #
point $-1 -88.717446532587843 -45.090917342592071 6.9980764779736209 #
edge $-1 $699 -45.090917342592071 $663 45.090917342592071 $653 $735 forward 7 unknown #
straight-curve $-1 -67.030854213080232 45.090917342592071 0 0 0 -1 I I #
vertex $-1 $697 $736 #
straight-curve $-1 -67.030854213080232 -45.090917342592071 0 0 0 -1 I I #
point $-1 67.030854213080232 -45.090917342592071 -17.058917717137444 #
point $-1 -67.030854213080232 45.090917342592071 -17.058917717137444 #
face $-1 $691 $714 $19 $-1 $737 reversed single #
loop $-1 $-1 $738 $668 #
plane-surface $-1 0 -45.090917342592071 0 0 1 0 0 0 1 forward_v I I I I #
coedge $-1 $739 $724 $690 $732 forward $669 $-1 #
coedge $-1 $686 $671 $708 $740 reversed $623 $-1 #
coedge $-1 $673 $672 $707 $740 forward $563 $-1 #
coedge $-1 $738 $718 $672 $710 reversed $704 $-1 #
edge $-1 $715 -10.843296159753805 $741 10.843296159753805 $709 $742 forward 7 unknown #
edge $-1 $728 -10.843296159753805 $716 10.843296159753805 $684 $743 forward 7 unknown #
coedge $-1 $744 $674 $723 $745 forward $714 $-1 #
coedge $-1 $674 $744 $738 $746 reversed $714 $-1 #
loop $-1 $-1 $674 $703 #
vertex $-1 $746 $747 #
vertex $-1 $745 $748 #
straight-curve $-1 -67.030854213080232 0 6.9980764779736209 0 1 0 I I #
coedge $-1 $709 $676 $686 $730 forward $704 $-1 #
coedge $-1 $676 $749 $678 $721 reversed $704 $-1 #
straight-curve $-1 0 -45.090917342592071 17.058917717137444 1 0 0 I I #
edge $-1 $679 -17.058917717137444 $750 17.058917717137444 $678 $751 forward 7 unknown #
point $-1 67.030854213080232 -45.090917342592071 17.058917717137444 #
coedge $-1 $684 $682 $712 $745 reversed $498 $-1 #
coedge $-1 $706 $752 $682 $725 forward $669 $-1 #
edge $-1 $753 -67.030854213080232 $726 67.030854213080232 $682 $754 forward 7 unknown #
vertex $-1 $732 $755 #
straight-curve $-1 67.030854213080232 45.090917342592071 0 0 0 -1 I I #
vertex $-1 $711 $756 #
straight-curve $-1 -88.717446532587843 45.090917342592071 12.028497097555533 0 0 -1 I I #
edge $-1 $687 -5.0304206195819141 $741 5.0304206195819123 $686 $757 forward 7 unknown #
point $-1 -88.717446532587843 -45.090917342592071 17.058917717137447 #
edge $-1 $726 -45.090917342592071 $750 45.090917342592071 $690 $758 forward 7 unknown #
plane-surface $-1 67.030854213080232 0 0 -1 0 0 0 0 1 forward_v I I I I #
straight-curve $-1 0 -45.090917342592071 -17.058917717137444 -1 0 0 I I #
straight-curve $-1 -67.030854213080232 0 -17.058917717137444 0 1 0 I I #
point $-1 -67.030854213080232 -45.090917342592071 -17.058917717137444 #
plane-surface $-1 -67.030854213080232 0 0 1 0 0 0 0 -1 forward_v I I I I #
coedge $-1 $749 $709 $713 $746 forward $704 $-1 #
coedge $-1 $752 $706 $749 $759 forward $669 $-1 #
edge $-1 $741 -45.090917342592071 $728 45.090917342592071 $707 $760 forward 7 unknown #
vertex $-1 $740 $761 #
straight-curve $-1 -77.874150372834038 -45.090917342592071 6.9980764779736209 -1 0 0 I I #
straight-curve $-1 -77.874150372834038 45.090917342592071 6.9980764779736209 1 0 0 I I #
coedge $-1 $713 $712 $752 $762 reversed $714 $-1 #
edge $-1 $716 -6.9980764779736209 $753 17.058917717137444 $723 $763 forward 7 unknown #
edge $-1 $715 -6.9980764779736209 $764 17.058917717137444 $713 $765 forward 7 unknown #
point $-1 -67.030854213080232 -45.090917342592071 6.9980764779736209 #
point $-1 -67.030854213080232 45.090917342592071 6.9980764779736209 #
coedge $-1 $719 $738 $739 $759 reversed $704 $-1 #
vertex $-1 $721 $766 #
straight-curve $-1 67.030854213080232 -45.090917342592071 0 0 0 -1 I I #
coedge $-1 $724 $739 $744 $762 forward $669 $-1 #
vertex $-1 $725 $767 #
straight-curve $-1 0 45.090917342592071 -17.058917717137444 1 0 0 I I #
point $-1 67.030854213080232 45.090917342592071 -17.058917717137444 #
point $-1 -88.717446532587843 45.090917342592071 6.9980764779736209 #
straight-curve $-1 -88.717446532587843 -45.090917342592071 12.028497097555533 0 0 -1 I I #
straight-curve $-1 67.030854213080232 0 -17.058917717137444 0 -1 0 I I #
edge $-1 $750 -67.030854213080232 $764 67.030854213080232 $749 $768 forward 7 unknown #
straight-curve $-1 -88.717446532587843 0 6.9980764779736209 0 1 0 I I #
point $-1 -88.717446532587843 -45.090917342592071 6.9980764779736209 #
edge $-1 $764 -45.090917342592071 $753 45.090917342592071 $744 $769 forward 7 unknown #
straight-curve $-1 -67.030854213080232 45.090917342592071 0 0 0 -1 I I #
vertex $-1 $762 $770 #
straight-curve $-1 -67.030854213080232 -45.090917342592071 0 0 0 -1 I I #
point $-1 67.030854213080232 -45.090917342592071 -17.058917717137444 #
point $-1 -67.030854213080232 45.090917342592071 -17.058917717137444 #
straight-curve $-1 0 -45.090917342592071 -17.058917717137444 -1 0 0 I I #
straight-curve $-1 -67.030854213080232 0 -17.058917717137444 0 1 0 I I #
point $-1 -67.030854213080232 -45.090917342592071 -17.058917717137444 #
End-of-ACIS-data 