500 0 10 0           
7 Unknown 11 ACIS 5.0 NT 24 Fri Mar 26 17:49:58 1999 
-1 9.9999999999999995e-007 1e-010 
body $-1 $10 $-1 $11 #
body $-1 $12 $-1 $13 #
body $-1 $14 $-1 $15 #
body $-1 $16 $-1 $17 #
body $-1 $18 $-1 $19 #
body $-1 $20 $-1 $21 #
body $-1 $22 $-1 $23 #
body $-1 $24 $-1 $25 #
body $-1 $26 $-1 $27 #
body $-1 $28 $-1 $29 #
lump $-1 $-1 $30 $0 #
transform $-1 1 0 0 0 1 0 0 0 1 57.990050965910825 33.125491499049019 10.602644193636165 1 rotate no_reflect no_shear #
lump $-1 $-1 $31 $1 #
transform $-1 1 0 0 0 1 0 0 0 1 57.990050965910825 33.125491499049019 10.602644193636165 1 rotate no_reflect no_shear #
lump $-1 $-1 $32 $2 #
transform $-1 1 0 0 0 1 0 0 0 1 57.990050965910825 33.125491499049019 10.602644193636165 1 rotate no_reflect no_shear #
lump $-1 $-1 $33 $3 #
transform $-1 1 0 0 0 1 0 0 0 1 57.990050965910825 33.125491499049019 10.602644193636165 1 rotate no_reflect no_shear #
lump $-1 $-1 $34 $4 #
transform $-1 1 0 0 0 1 0 0 0 1 57.990050965910825 33.125491499049019 10.602644193636165 1 rotate no_reflect no_shear #
lump $-1 $-1 $35 $5 #
transform $-1 1 0 0 0 1 0 0 0 1 57.990050965910825 33.125491499049019 10.602644193636165 1 rotate no_reflect no_shear #
lump $-1 $-1 $36 $6 #
transform $-1 1 0 0 0 1 0 0 0 1 57.990050965910825 33.125491499049019 10.602644193636165 1 rotate no_reflect no_shear #
lump $-1 $-1 $37 $7 #
transform $-1 1 0 0 0 1 0 0 0 1 57.990050965910825 33.125491499049019 10.602644193636165 1 rotate no_reflect no_shear #
lump $-1 $-1 $38 $8 #
transform $-1 1 0 0 0 1 0 0 0 1 57.990050965910825 33.125491499049019 10.602644193636165 1 rotate no_reflect no_shear #
lump $-1 $-1 $39 $9 #
transform $-1 1 0 0 0 1 0 0 0 1 57.990050965910825 33.125491499049019 10.602644193636165 1 rotate no_reflect no_shear #
shell $-1 $-1 $-1 $40 $-1 $10 #
shell $-1 $-1 $-1 $41 $-1 $12 #
shell $-1 $-1 $-1 $42 $-1 $14 #
shell $-1 $-1 $-1 $43 $-1 $16 #
shell $-1 $-1 $-1 $44 $-1 $18 #
shell $-1 $-1 $-1 $45 $-1 $20 #
shell $-1 $-1 $-1 $46 $-1 $22 #
shell $-1 $-1 $-1 $47 $-1 $24 #
shell $-1 $-1 $-1 $48 $-1 $26 #
shell $-1 $-1 $-1 $49 $-1 $28 #
face $-1 $50 $51 $30 $-1 $52 forward single #
face $-1 $53 $54 $31 $-1 $55 forward single #
face $-1 $56 $57 $32 $-1 $58 reversed single #
face $-1 $59 $60 $33 $-1 $61 forward single #
face $-1 $62 $63 $34 $-1 $64 forward single #
face $-1 $65 $66 $35 $-1 $67 forward single #
face $-1 $68 $69 $36 $-1 $70 reversed single #
face $-1 $71 $72 $37 $-1 $73 forward single #
face $-1 $74 $75 $38 $-1 $76 forward single #
face $-1 $77 $78 $39 $-1 $79 forward single #
face $-1 $80 $81 $30 $-1 $82 reversed single #
loop $-1 $-1 $83 $40 #
plane-surface $-1 0 0 10.602644193636165 0 0 1 1 0 0 forward_v I I I I #
face $-1 $84 $85 $31 $-1 $86 forward single #
loop $-1 $-1 $87 $41 #
plane-surface $-1 0 -33.125491499049019 0 0 1 0 0 0 1 forward_v I I I I #
face $-1 $88 $89 $32 $-1 $90 reversed single #
loop $-1 $-1 $91 $42 #
plane-surface $-1 -122.84530175290237 -9.657988680131421 99.430091522407864 0 1 0 -0.55919291073839883 0 0.82903756765294845 forward_v I I I I #
face $-1 $92 $93 $33 $-1 $94 forward single #
loop $-1 $95 $96 $43 #
cone-surface $-1 -52.281009254081262 -8.2596627967484295 6.5259182733463135 0.55919291073839883 0 -0.82903756765294845 0.41451878382647422 0 0.27959645536919941 1 I I 0 1 0.5 forward I I I I #
face $-1 $97 $98 $34 $-1 $99 forward single #
loop $-1 $100 $101 $44 #
cone-surface $-1 -52.281009254081262 -6.1621739716739405 6.5259182733463135 0.55919291073839883 0 -0.82903756765294845 0.41451878382647422 0 0.27959645536919941 1 I I 0 1 0.5 forward I I I I #
face $-1 $102 $103 $35 $-1 $104 forward single #
loop $-1 $105 $106 $45 #
cone-surface $-1 -52.281009254081262 -4.0646851465994516 6.5259182733463135 0.55919291073839883 0 -0.82903756765294845 0.41451878382647422 0 0.27959645536919941 1 I I 0 1 0.5 forward I I I I #
face $-1 $107 $108 $36 $-1 $109 reversed single #
loop $-1 $-1 $110 $46 #
plane-surface $-1 49.405876061891988 29.889675009372571 164.4037446195637 0 -1 0 -0.66913061440640931 0 -0.74314481823134659 forward_v I I I I #
face $-1 $111 $112 $37 $-1 $113 forward single #
loop $-1 $114 $115 $47 #
cone-surface $-1 52.105339558830039 22.614250549969853 5.2336976809170155 -0.66913061440640931 0 -0.74314481823134659 0.3715724091156733 0 -0.33456530720320465 1 I I 0 1 0.5 forward I I I I #
face $-1 $116 $117 $38 $-1 $118 forward single #
loop $-1 $119 $120 $48 #
cone-surface $-1 52.105339558830039 25.342534722245873 5.2336976809170155 -0.66913061440640931 0 -0.74314481823134659 0.3715724091156733 0 -0.33456530720320465 1 I I 0 1 0.5 forward I I I I #
face $-1 $121 $122 $39 $-1 $123 forward single #
loop $-1 $124 $125 $49 #
cone-surface $-1 52.105339558830039 28.070818894521892 5.2336976809170155 -0.66913061440640931 0 -0.74314481823134659 0.3715724091156733 0 -0.33456530720320465 1 I I 0 1 0.5 forward I I I I #
face $-1 $126 $127 $30 $-1 $128 reversed single #
loop $-1 $-1 $129 $50 #
plane-surface $-1 0 0 -10.602644193636165 0 0 1 1 0 0 forward_v I I I I #
coedge $-1 $130 $131 $132 $133 forward $51 $-1 #
face $-1 $134 $135 $31 $-1 $136 reversed single #
loop $-1 $-1 $137 $53 #
plane-surface $-1 0 0 10.602644193636165 0 0 1 1 0 0 forward_v I I I I #
coedge $-1 $138 $139 $140 $141 forward $54 $-1 #
face $-1 $142 $143 $32 $-1 $144 reversed single #
loop $-1 $-1 $145 $56 #
plane-surface $-1 -57.990050965910825 -6.1621739716739405 3.2782299207094212 -0.55919291073839883 0 0.82903756765294845 0.82903756765294845 0 0.55919291073839883 forward_v I I I I #
coedge $-1 $146 $147 $148 $149 reversed $57 $-1 #
face $-1 $-1 $150 $33 $-1 $151 forward single #
loop $-1 $152 $153 $59 #
cone-surface $-1 -51.861614571027459 -8.2596627967484295 5.9041400976066019 0.55919291073839883 0 -0.82903756765294845 0.20725939191323711 0 0.13979822768459971 1 I I -0.70710678118654746 0.70710678118654746 0.25 forward I I I I #
loop $-1 $-1 $154 $43 #
coedge $-1 $96 $96 $155 $156 reversed $60 $-1 #
face $-1 $-1 $157 $34 $-1 $158 forward single #
loop $-1 $159 $160 $62 #
cone-surface $-1 -51.861614571027459 -6.1621739716739405 5.9041400976066019 0.55919291073839883 0 -0.82903756765294845 0.20725939191323711 0 0.13979822768459971 1 I I -0.70710678118654746 0.70710678118654746 0.25 forward I I I I #
loop $-1 $-1 $161 $44 #
coedge $-1 $101 $101 $162 $163 reversed $63 $-1 #
face $-1 $-1 $164 $35 $-1 $165 forward single #
loop $-1 $166 $167 $65 #
cone-surface $-1 -51.861614571027459 -4.0646851465994516 5.9041400976066019 0.55919291073839883 0 -0.82903756765294845 0.20725939191323711 0 0.13979822768459971 1 I I -0.70710678118654746 0.70710678118654746 0.25 forward I I I I #
loop $-1 $-1 $168 $45 #
coedge $-1 $106 $106 $169 $170 reversed $66 $-1 #
face $-1 $171 $172 $36 $-1 $173 reversed single #
loop $-1 $-1 $174 $68 #
plane-surface $-1 -28.199960802665814 25.342534722245873 78.213732850987043 0.66913061440640931 0 0.74314481823134659 0.74314481823134659 0 -0.66913061440640931 forward_v I I I I #
coedge $-1 $175 $176 $177 $178 reversed $69 $-1 #
face $-1 $-1 $179 $37 $-1 $180 forward single #
loop $-1 $181 $182 $71 #
cone-surface $-1 51.603491598025229 22.614250549969853 4.6763390672435055 -0.66913061440640931 0 -0.74314481823134659 0.18578620455783665 0 -0.16728265360160233 1 I I -0.70710678118654746 0.70710678118654746 0.25 forward I I I I #
loop $-1 $-1 $183 $47 #
coedge $-1 $115 $115 $184 $185 reversed $72 $-1 #
face $-1 $-1 $186 $38 $-1 $187 forward single #
loop $-1 $188 $189 $74 #
cone-surface $-1 51.603491598025229 25.342534722245873 4.6763390672435055 -0.66913061440640931 0 -0.74314481823134659 0.18578620455783665 0 -0.16728265360160233 1 I I -0.70710678118654746 0.70710678118654746 0.25 forward I I I I #
loop $-1 $-1 $190 $48 #
coedge $-1 $120 $120 $191 $192 reversed $75 $-1 #
face $-1 $-1 $193 $39 $-1 $194 forward single #
loop $-1 $195 $196 $77 #
cone-surface $-1 51.603491598025229 28.070818894521892 4.6763390672435055 -0.66913061440640931 0 -0.74314481823134659 0.18578620455783665 0 -0.16728265360160233 1 I I -0.70710678118654746 0.70710678118654746 0.25 forward I I I I #
loop $-1 $-1 $197 $49 #
coedge $-1 $125 $125 $198 $199 reversed $78 $-1 #
face $-1 $200 $201 $30 $-1 $202 reversed single #
loop $-1 $-1 $203 $80 #
plane-surface $-1 0 -33.125491499049019 0 0 1 0 0 0 1 forward_v I I I I #
coedge $-1 $204 $205 $206 $207 forward $81 $-1 #
coedge $-1 $208 $83 $209 $210 forward $51 $-1 #
coedge $-1 $83 $208 $211 $212 forward $51 $-1 #
coedge $-1 $213 $214 $83 $133 reversed $215 $-1 #
edge $-1 $216 -33.125491499049019 $217 33.125491499049019 $132 $218 forward 7 unknown #
face $-1 $219 $220 $31 $-1 $221 reversed single #
loop $-1 $-1 $222 $84 #
plane-surface $-1 -57.990050965910825 0 0 1 0 0 0 0 -1 forward_v I I I I #
coedge $-1 $223 $224 $139 $225 forward $85 $-1 #
coedge $-1 $226 $87 $227 $228 reversed $54 $-1 #
coedge $-1 $87 $226 $137 $225 reversed $54 $-1 #
coedge $-1 $229 $230 $87 $141 reversed $231 $-1 #
edge $-1 $232 -10.602644193636165 $233 10.602644193636165 $140 $234 forward 7 unknown #
face $-1 $235 $236 $32 $-1 $237 reversed single #
loop $-1 $-1 $238 $88 #
plane-surface $-1 -122.84530175290237 -2.6663592632164601 99.430091522407864 0 -1 0 0.55919291073839883 0 -0.82903756765294845 forward_v I I I I #
coedge $-1 $239 $240 $241 $242 reversed $89 $-1 #
coedge $-1 $147 $91 $243 $244 reversed $57 $-1 #
coedge $-1 $91 $146 $239 $245 reversed $57 $-1 #
coedge $-1 $241 $246 $91 $149 forward $247 $-1 #
edge $-1 $248 3.4325999105403611 $249 14.291490423461092 $148 $250 forward 7 unknown #
loop $-1 $-1 $155 $92 #
plane-surface $-1 -57.990050965910825 -6.1621739716739405 3.2782299207094212 -0.55919291073839883 0 0.82903756765294845 0.82903756765294845 0 0.55919291073839883 forward_v I I I I #
loop $-1 $-1 $251 $59 #
coedge $-1 $153 $153 $154 $252 reversed $93 $-1 #
coedge $-1 $154 $154 $153 $252 forward $95 $-1 #
coedge $-1 $155 $155 $96 $156 forward $150 $-1 #
edge $-1 $253 0 $253 6.2831853071796004 $155 $254 forward 7 unknown #
loop $-1 $-1 $162 $97 #
plane-surface $-1 -57.990050965910825 -6.1621739716739405 3.2782299207094212 -0.55919291073839883 0 0.82903756765294845 0.82903756765294845 0 0.55919291073839883 forward_v I I I I #
loop $-1 $-1 $255 $62 #
coedge $-1 $160 $160 $161 $256 reversed $98 $-1 #
coedge $-1 $161 $161 $160 $256 forward $100 $-1 #
coedge $-1 $162 $162 $101 $163 forward $157 $-1 #
edge $-1 $257 0 $257 6.2831853071796004 $162 $258 forward 7 unknown #
loop $-1 $-1 $169 $102 #
plane-surface $-1 -57.990050965910825 -6.1621739716739405 3.2782299207094212 -0.55919291073839883 0 0.82903756765294845 0.82903756765294845 0 0.55919291073839883 forward_v I I I I #
loop $-1 $-1 $259 $65 #
coedge $-1 $167 $167 $168 $260 reversed $103 $-1 #
coedge $-1 $168 $168 $167 $260 forward $105 $-1 #
coedge $-1 $169 $169 $106 $170 forward $164 $-1 #
edge $-1 $261 0 $261 6.2831853071796004 $169 $262 forward 7 unknown #
face $-1 $263 $264 $36 $-1 $265 forward single #
loop $-1 $-1 $266 $107 #
plane-surface $-1 49.405876061891988 20.795394435119174 164.4037446195637 0 1 0 0.66913061440640931 0 0.74314481823134659 forward_v I I I I #
coedge $-1 $267 $268 $269 $270 reversed $108 $-1 #
coedge $-1 $176 $110 $271 $272 reversed $69 $-1 #
coedge $-1 $110 $175 $267 $273 reversed $69 $-1 #
coedge $-1 $269 $274 $110 $178 forward $264 $-1 #
edge $-1 $275 -33.287112934964831 $276 -22.186820735209643 $177 $277 forward 7 unknown #
loop $-1 $-1 $184 $111 #
plane-surface $-1 -28.199960802665814 25.342534722245873 78.213732850987043 0.66913061440640931 0 0.74314481823134659 0.74314481823134659 0 -0.66913061440640931 forward_v I I I I #
loop $-1 $-1 $278 $71 #
coedge $-1 $182 $182 $183 $279 reversed $112 $-1 #
coedge $-1 $183 $183 $182 $279 forward $114 $-1 #
coedge $-1 $184 $184 $115 $185 forward $179 $-1 #
edge $-1 $280 0 $280 6.2831853071796004 $184 $281 forward 7 unknown #
loop $-1 $-1 $191 $116 #
plane-surface $-1 -28.199960802665814 25.342534722245873 78.213732850987043 0.66913061440640931 0 0.74314481823134659 0.74314481823134659 0 -0.66913061440640931 forward_v I I I I #
loop $-1 $-1 $282 $74 #
coedge $-1 $189 $189 $190 $283 reversed $117 $-1 #
coedge $-1 $190 $190 $189 $283 forward $119 $-1 #
coedge $-1 $191 $191 $120 $192 forward $186 $-1 #
edge $-1 $284 0 $284 6.2831853071796004 $191 $285 forward 7 unknown #
loop $-1 $-1 $198 $121 #
plane-surface $-1 -28.199960802665814 25.342534722245873 78.213732850987043 0.66913061440640931 0 0.74314481823134659 0.74314481823134659 0 -0.66913061440640931 forward_v I I I I #
loop $-1 $-1 $286 $77 #
coedge $-1 $196 $196 $197 $287 reversed $122 $-1 #
coedge $-1 $197 $197 $196 $287 forward $124 $-1 #
coedge $-1 $198 $198 $125 $199 forward $193 $-1 #
edge $-1 $288 0 $288 6.2831853071796004 $198 $289 forward 7 unknown #
face $-1 $290 $291 $30 $-1 $292 reversed single #
loop $-1 $-1 $293 $126 #
plane-surface $-1 -57.990050965910825 0 0 1 0 0 0 0 -1 forward_v I I I I #
coedge $-1 $294 $211 $295 $296 forward $127 $-1 #
coedge $-1 $297 $129 $294 $298 forward $81 $-1 #
coedge $-1 $129 $297 $299 $300 forward $81 $-1 #
coedge $-1 $214 $213 $129 $207 reversed $215 $-1 #
edge $-1 $301 -33.125491499049019 $302 33.125491499049019 $206 $303 forward 7 unknown #
coedge $-1 $131 $130 $304 $305 forward $51 $-1 #
coedge $-1 $306 $307 $130 $210 reversed $291 $-1 #
edge $-1 $217 -57.990050965910825 $308 57.990050965910825 $209 $309 forward 7 unknown #
coedge $-1 $203 $310 $131 $212 reversed $127 $-1 #
edge $-1 $311 -57.990050965910825 $216 57.990050965910825 $211 $312 forward 7 unknown #
coedge $-1 $206 $132 $310 $313 forward $215 $-1 #
coedge $-1 $132 $206 $306 $314 reversed $215 $-1 #
loop $-1 $-1 $213 $290 #
vertex $-1 $133 $315 #
vertex $-1 $133 $316 #
straight-curve $-1 57.990050965910825 0 10.602644193636165 0 1 0 I I #
face $-1 $317 $231 $31 $-1 $318 reversed single #
loop $-1 $-1 $319 $134 #
plane-surface $-1 -56.165109622861763 -40.680843790879933 0 0 1 0 0 0 1 forward_v I I I I #
coedge $-1 $320 $321 $226 $322 forward $135 $-1 #
coedge $-1 $323 $137 $321 $324 forward $85 $-1 #
coedge $-1 $137 $323 $229 $325 forward $85 $-1 #
edge $-1 $232 54.340168279812701 $326 57.990050965910825 $137 $327 forward 7 unknown #
coedge $-1 $139 $138 $222 $322 reversed $54 $-1 #
coedge $-1 $328 $329 $138 $228 forward $330 $-1 #
edge $-1 $331 -57.990050965910825 $233 -54.340168279812701 $227 $332 forward 7 unknown #
coedge $-1 $333 $140 $224 $325 reversed $231 $-1 #
coedge $-1 $140 $333 $328 $334 reversed $231 $-1 #
loop $-1 $-1 $333 $219 #
vertex $-1 $225 $335 #
vertex $-1 $334 $336 #
straight-curve $-1 -54.340168279812701 -33.125491499049019 0 0 0 -1 I I #
face $-1 $-1 $247 $32 $-1 $337 forward single #
loop $-1 $-1 $338 $142 #
plane-surface $-1 -57.990050965910825 0 0 1 0 0 0 0 -1 forward_v I I I I #
coedge $-1 $339 $340 $341 $342 reversed $143 $-1 #
coedge $-1 $343 $145 $147 $245 forward $89 $-1 #
coedge $-1 $145 $343 $339 $344 forward $89 $-1 #
coedge $-1 $341 $148 $145 $242 forward $247 $-1 #
edge $-1 $249 -6.5769016942944507 $345 0.41472772262051016 $241 $346 forward 7 unknown #
coedge $-1 $347 $348 $146 $244 forward $236 $-1 #
edge $-1 $349 -46.436815840494511 $248 -39.112401567567765 $243 $350 forward 7 unknown #
edge $-1 $249 -13.098188714973261 $349 0 $147 $351 forward 7 unknown #
coedge $-1 $148 $341 $347 $352 forward $247 $-1 #
loop $-1 $-1 $341 $235 #
vertex $-1 $244 $353 #
vertex $-1 $149 $354 #
straight-curve $-1 -61.422650876451186 -9.657988680131421 10.602644193636166 1 0 0 I I #
coedge $-1 $251 $251 $-1 $355 reversed $152 $-1 #
edge $-1 $356 0 $356 6.2831853071796004 $153 $357 forward 7 unknown #
vertex $-1 $156 $358 #
ellipse-curve $-1 -52.560605709450464 -8.2596627967484295 6.9404370571727911 -0.55919291073839883 0 0.82903756765294845 0.41451878382647422 0 0.27959645536919941 1 I I #
coedge $-1 $255 $255 $-1 $359 reversed $159 $-1 #
edge $-1 $360 0 $360 6.2831853071796004 $160 $361 forward 7 unknown #
vertex $-1 $163 $362 #
ellipse-curve $-1 -52.560605709450464 -6.1621739716739405 6.9404370571727911 -0.55919291073839883 0 0.82903756765294845 0.41451878382647422 0 0.27959645536919941 1 I I #
coedge $-1 $259 $259 $-1 $363 reversed $166 $-1 #
edge $-1 $364 0 $364 6.2831853071796004 $167 $365 forward 7 unknown #
vertex $-1 $170 $366 #
ellipse-curve $-1 -52.560605709450464 -4.0646851465994516 6.9404370571727911 -0.55919291073839883 0 0.82903756765294845 0.41451878382647422 0 0.27959645536919941 1 I I #
face $-1 $-1 $367 $36 $-1 $368 reversed single #
loop $-1 $-1 $177 $171 #
plane-surface $-1 0 0 10.602644193636165 0 0 1 1 0 0 forward_v I I I I #
coedge $-1 $369 $370 $371 $372 reversed $172 $-1 #
coedge $-1 $373 $174 $176 $273 forward $108 $-1 #
coedge $-1 $174 $373 $369 $374 forward $108 $-1 #
coedge $-1 $371 $177 $174 $270 forward $264 $-1 #
edge $-1 $276 -17.218407648249634 $375 -8.1241270739962381 $269 $376 forward 7 unknown #
coedge $-1 $377 $378 $175 $272 forward $367 $-1 #
edge $-1 $379 -81.593976323352592 $275 -71.599228116145682 $271 $380 forward 7 unknown #
edge $-1 $276 101.04318529399401 $379 115.98010193182164 $176 $381 forward 7 unknown #
coedge $-1 $177 $371 $377 $382 forward $264 $-1 #
vertex $-1 $178 $383 #
vertex $-1 $178 $384 #
straight-curve $-1 24.702938030945994 29.889675009372571 10.602644193636166 -1 0 0 I I #
coedge $-1 $278 $278 $-1 $385 reversed $181 $-1 #
edge $-1 $386 0 $386 6.2831853071796004 $182 $387 forward 7 unknown #
vertex $-1 $185 $388 #
ellipse-curve $-1 52.439904866033245 22.614250549969853 5.6052700900326942 0.66913061440640931 0 0.74314481823134659 0.3715724091156733 0 -0.33456530720320465 1 I I #
coedge $-1 $282 $282 $-1 $389 reversed $188 $-1 #
edge $-1 $390 0 $390 6.2831853071796004 $189 $391 forward 7 unknown #
vertex $-1 $192 $392 #
ellipse-curve $-1 52.439904866033245 25.342534722245873 5.6052700900326942 0.66913061440640931 0 0.74314481823134659 0.3715724091156733 0 -0.33456530720320465 1 I I #
coedge $-1 $286 $286 $-1 $393 reversed $195 $-1 #
edge $-1 $394 0 $394 6.2831853071796004 $196 $395 forward 7 unknown #
vertex $-1 $199 $396 #
ellipse-curve $-1 52.439904866033245 28.070818894521892 5.6052700900326942 0.66913061440640931 0 0.74314481823134659 0.3715724091156733 0 -0.33456530720320465 1 I I #
face $-1 $-1 $215 $30 $-1 $397 reversed single #
loop $-1 $-1 $306 $200 #
plane-surface $-1 0 33.125491499049019 0 0 -1 0 0 0 -1 forward_v I I I I #
coedge $-1 $398 $304 $307 $399 forward $201 $-1 #
coedge $-1 $310 $203 $204 $298 reversed $127 $-1 #
coedge $-1 $304 $398 $203 $296 reversed $201 $-1 #
edge $-1 $311 -10.602644193636165 $400 10.602644193636165 $295 $401 forward 7 unknown #
coedge $-1 $205 $204 $398 $402 forward $81 $-1 #
edge $-1 $302 -57.990050965910825 $400 57.990050965910825 $294 $403 forward 7 unknown #
coedge $-1 $307 $306 $205 $300 reversed $291 $-1 #
edge $-1 $404 -57.990050965910825 $301 57.990050965910825 $299 $405 forward 7 unknown #
vertex $-1 $207 $406 #
vertex $-1 $313 $407 #
straight-curve $-1 57.990050965910825 0 -10.602644193636165 0 -1 0 I I #
coedge $-1 $293 $295 $208 $305 reversed $201 $-1 #
edge $-1 $308 -33.125491499049019 $311 33.125491499049019 $304 $408 forward 7 unknown #
coedge $-1 $299 $209 $214 $314 forward $291 $-1 #
coedge $-1 $209 $299 $293 $399 reversed $291 $-1 #
vertex $-1 $210 $409 #
straight-curve $-1 0 33.125491499049019 10.602644193636165 -1 0 0 I I #
coedge $-1 $211 $294 $213 $313 reversed $127 $-1 #
vertex $-1 $305 $410 #
straight-curve $-1 0 -33.125491499049019 10.602644193636165 1 0 0 I I #
edge $-1 $216 -10.602644193636165 $302 10.602644193636165 $213 $411 forward 7 unknown #
edge $-1 $217 -10.602644193636165 $301 10.602644193636165 $214 $412 forward 7 unknown #
point $-1 57.990050965910825 -33.125491499049019 10.602644193636165 #
point $-1 57.990050965910825 33.125491499049019 10.602644193636165 #
face $-1 $-1 $330 $31 $-1 $413 reversed single #
plane-surface $-1 -54.340168279812701 -36.903167644964476 0 -1 0 0 0 0 1 forward_v I I I I #
coedge $-1 $414 $415 $416 $417 forward $220 $-1 #
coedge $-1 $416 $222 $329 $418 reversed $135 $-1 #
coedge $-1 $222 $416 $223 $324 reversed $135 $-1 #
edge $-1 $326 -10.602644193636165 $331 10.602644193636165 $222 $419 forward 7 unknown #
coedge $-1 $224 $223 $415 $420 forward $85 $-1 #
edge $-1 $326 33.125491499049019 $421 40.680843790879933 $321 $422 forward 7 unknown #
edge $-1 $423 -3.7776761459154571 $232 3.7776761459154571 $229 $424 forward 7 unknown #
vertex $-1 $324 $425 #
straight-curve $-1 0 -33.125491499049019 10.602644193636165 -1 0 0 I I #
coedge $-1 $426 $227 $230 $334 forward $330 $-1 #
coedge $-1 $227 $426 $320 $418 forward $330 $-1 #
loop $-1 $-1 $227 $317 #
vertex $-1 $322 $427 #
straight-curve $-1 0 -33.125491499049019 -10.602644193636165 1 0 0 I I #
coedge $-1 $230 $229 $428 $429 forward $231 $-1 #
edge $-1 $233 -3.7776761459154571 $430 3.7776761459154571 $230 $431 forward 7 unknown #
point $-1 -54.340168279812701 -33.125491499049019 10.602644193636165 #
point $-1 -54.340168279812701 -33.125491499049019 -10.602644193636165 #
plane-surface $-1 0 0 10.602644193636165 0 0 1 1 0 0 forward_v I I I I #
coedge $-1 $348 $347 $340 $432 forward $236 $-1 #
coedge $-1 $340 $238 $240 $344 reversed $143 $-1 #
coedge $-1 $238 $339 $338 $432 reversed $143 $-1 #
coedge $-1 $246 $241 $238 $342 forward $247 $-1 #
edge $-1 $345 -14.291490423461092 $433 -3.4325999105403611 $341 $434 forward 7 unknown #
coedge $-1 $240 $239 $348 $435 reversed $89 $-1 #
edge $-1 $436 0 $345 13.098188714973261 $339 $437 forward 7 unknown #
vertex $-1 $242 $438 #
straight-curve $-1 -47.131160452990102 -3.0810869858369703 10.602644193636165 0 1 0 I I #
coedge $-1 $338 $243 $246 $352 reversed $236 $-1 #
coedge $-1 $243 $338 $343 $435 forward $236 $-1 #
vertex $-1 $244 $439 #
straight-curve $-1 -57.990050965910825 -9.657988680131421 49.715045761203932 0 0 1 I I #
straight-curve $-1 -57.990050965910825 -9.657988680131421 3.2782299207094212 -0.82903756765294845 0 -0.55919291073839883 I I #
edge $-1 $433 2.6663592632164601 $248 9.657988680131421 $347 $440 forward 7 unknown #
point $-1 -57.990050965910825 -9.657988680131421 10.602644193636165 #
point $-1 -47.131160452990095 -9.657988680131421 10.602644193636166 #
edge $-1 $441 1 $441 0 $251 $-1 forward 7 unknown #
vertex $-1 $252 $442 #
ellipse-curve $-1 -52.00141279871206 -8.2596627967484295 6.1113994895198394 -0.55919291073839883 0 0.82903756765294845 0.41451878382647422 0 0.27959645536919941 1 I I #
point $-1 -52.146086925623983 -8.2596627967484295 7.2200335125419866 #
edge $-1 $443 1 $443 0 $255 $-1 forward 7 unknown #
vertex $-1 $256 $444 #
ellipse-curve $-1 -52.00141279871206 -6.1621739716739405 6.1113994895198394 -0.55919291073839883 0 0.82903756765294845 0.41451878382647422 0 0.27959645536919941 1 I I #
point $-1 -52.146086925623983 -6.1621739716739405 7.2200335125419866 #
edge $-1 $445 1 $445 0 $259 $-1 forward 7 unknown #
vertex $-1 $260 $446 #
ellipse-curve $-1 -52.00141279871206 -4.0646851465994516 6.1113994895198394 -0.55919291073839883 0 0.82903756765294845 0.41451878382647422 0 0.27959645536919941 1 I I #
point $-1 -52.146086925623983 -4.0646851465994516 7.2200335125419866 #
loop $-1 $-1 $271 $263 #
plane-surface $-1 57.990050965910825 0 0 -1 0 0 0 0 1 forward_v I I I I #
coedge $-1 $370 $266 $268 $374 reversed $172 $-1 #
coedge $-1 $266 $369 $447 $448 reversed $172 $-1 #
coedge $-1 $274 $269 $266 $372 forward $264 $-1 #
edge $-1 $375 22.186820735209643 $449 33.287112934964831 $371 $450 forward 7 unknown #
coedge $-1 $268 $267 $378 $451 reversed $108 $-1 #
edge $-1 $452 -115.98010193182164 $375 -101.04318529399401 $369 $453 forward 7 unknown #
vertex $-1 $270 $454 #
straight-curve $-1 46.889758766155651 12.671267361122936 10.602644193636159 0 -1 0 I I #
coedge $-1 $447 $271 $274 $382 reversed $367 $-1 #
coedge $-1 $271 $447 $373 $451 forward $367 $-1 #
vertex $-1 $272 $455 #
straight-curve $-1 57.990050965910825 29.889675009372571 82.201872309781848 0 0 1 I I #
straight-curve $-1 -28.199960802665814 29.889675009372571 78.213732850987043 0.74314481823134659 0 -0.66913061440640931 I I #
edge $-1 $449 20.795394435119174 $275 29.889675009372571 $377 $456 forward 7 unknown #
point $-1 57.990050965910825 29.889675009372571 10.602644193636165 #
point $-1 46.889758766155637 29.889675009372571 10.602644193636166 #
edge $-1 $457 1 $457 0 $278 $-1 forward 7 unknown #
vertex $-1 $279 $458 #
ellipse-curve $-1 51.770774251626833 22.614250549969853 4.8621252718013421 0.66913061440640931 0 0.74314481823134659 0.3715724091156733 0 -0.33456530720320465 1 I I #
point $-1 52.811477275148917 22.614250549969853 5.2707047828294842 #
edge $-1 $459 1 $459 0 $282 $-1 forward 7 unknown #
vertex $-1 $283 $460 #
ellipse-curve $-1 51.770774251626833 25.342534722245873 4.8621252718013421 0.66913061440640931 0 0.74314481823134659 0.3715724091156733 0 -0.33456530720320465 1 I I #
point $-1 52.811477275148917 25.342534722245873 5.2707047828294842 #
edge $-1 $461 1 $461 0 $286 $-1 forward 7 unknown #
vertex $-1 $287 $462 #
ellipse-curve $-1 51.770774251626833 28.070818894521892 4.8621252718013421 0.66913061440640931 0 0.74314481823134659 0.3715724091156733 0 -0.33456530720320465 1 I I #
point $-1 52.811477275148917 28.070818894521892 5.2707047828294842 #
plane-surface $-1 57.990050965910825 0 0 -1 0 0 0 0 1 forward_v I I I I #
coedge $-1 $295 $293 $297 $402 reversed $201 $-1 #
edge $-1 $308 -10.602644193636165 $404 10.602644193636165 $307 $463 forward 7 unknown #
vertex $-1 $402 $464 #
straight-curve $-1 -57.990050965910825 -33.125491499049019 0 0 0 -1 I I #
edge $-1 $400 -33.125491499049019 $404 33.125491499049019 $398 $465 forward 7 unknown #
straight-curve $-1 0 -33.125491499049019 -10.602644193636165 -1 0 0 I I #
vertex $-1 $300 $466 #
straight-curve $-1 0 33.125491499049019 -10.602644193636165 1 0 0 I I #
point $-1 57.990050965910825 33.125491499049019 -10.602644193636165 #
point $-1 57.990050965910825 -33.125491499049019 -10.602644193636165 #
straight-curve $-1 -57.990050965910825 0 10.602644193636165 0 -1 0 I I #
point $-1 -57.990050965910825 33.125491499049019 10.602644193636165 #
point $-1 -57.990050965910825 -33.125491499049019 10.602644193636165 #
straight-curve $-1 57.990050965910825 -33.125491499049019 0 0 0 -1 I I #
straight-curve $-1 57.990050965910825 33.125491499049019 0 0 0 -1 I I #
plane-surface $-1 0 0 -10.602644193636165 0 0 1 1 0 0 forward_v I I I I #
coedge $-1 $428 $319 $426 $467 reversed $220 $-1 #
coedge $-1 $319 $428 $323 $420 reversed $220 $-1 #
coedge $-1 $321 $320 $319 $417 reversed $135 $-1 #
edge $-1 $421 -10.602644193636165 $468 10.602644193636165 $416 $469 forward 7 unknown #
edge $-1 $468 -40.680843790879933 $331 -33.125491499049019 $320 $470 forward 7 unknown #
straight-curve $-1 -57.990050965910825 -33.125491499049019 0 0 0 -1 I I #
edge $-1 $421 -1.824941343049062 $423 1.824941343049062 $415 $471 forward 7 unknown #
vertex $-1 $324 $472 #
straight-curve $-1 -57.990050965910825 0 10.602644193636165 0 -1 0 I I #
vertex $-1 $325 $473 #
straight-curve $-1 -54.340168279812701 -36.903167644964476 10.602644193636165 0 1 0 I I #
point $-1 -57.990050965910825 -33.125491499049019 10.602644193636165 #
coedge $-1 $329 $328 $414 $467 forward $330 $-1 #
point $-1 -57.990050965910825 -33.125491499049019 -10.602644193636165 #
coedge $-1 $415 $414 $333 $429 reversed $220 $-1 #
edge $-1 $423 -10.602644193636165 $430 10.602644193636165 $333 $474 forward 7 unknown #
vertex $-1 $429 $475 #
straight-curve $-1 -54.340168279812701 -36.903167644964476 -10.602644193636165 0 -1 0 I I #
edge $-1 $433 39.112401567567765 $436 46.436815840494511 $338 $476 forward 7 unknown #
vertex $-1 $352 $477 #
straight-curve $-1 -61.422650876451186 -2.6663592632164601 10.602644193636166 -1 0 0 I I #
edge $-1 $436 -0.41472772262051016 $349 6.5769016942944507 $348 $478 forward 7 unknown #
vertex $-1 $435 $479 #
straight-curve $-1 -57.990050965910825 -2.6663592632164601 3.2782299207094212 0.82903756765294845 0 0.55919291073839883 I I #
point $-1 -47.131160452990095 -2.6663592632164601 10.602644193636166 #
point $-1 -57.990050965910825 -9.657988680131421 3.2782299207094212 #
straight-curve $-1 -57.990050965910825 0 10.602644193636165 0 -1 0 I I #
vertex $-1 $355 $480 #
point $-1 -51.586894014885587 -8.2596627967484295 6.3909959448890383 #
vertex $-1 $359 $481 #
point $-1 -51.586894014885587 -6.1621739716739405 6.3909959448890383 #
vertex $-1 $363 $482 #
point $-1 -51.586894014885587 -4.0646851465994516 6.3909959448890383 #
coedge $-1 $378 $377 $370 $448 forward $367 $-1 #
edge $-1 $449 71.599228116145682 $452 81.593976323352592 $447 $483 forward 7 unknown #
vertex $-1 $382 $484 #
straight-curve $-1 24.702938030945994 20.795394435119174 10.602644193636166 1 0 0 I I #
edge $-1 $452 8.1241270739962381 $379 17.218407648249634 $378 $485 forward 7 unknown #
vertex $-1 $451 $486 #
straight-curve $-1 -28.199960802665814 20.795394435119174 78.213732850987043 -0.74314481823134659 0 0.66913061440640931 I I #
point $-1 46.889758766155637 20.795394435119174 10.602644193636166 #
point $-1 57.990050965910825 29.889675009372571 0.60789598642925569 #
straight-curve $-1 57.990050965910825 0 10.602644193636165 0 1 0 I I #
vertex $-1 $385 $487 #
point $-1 52.142346660742504 22.614250549969853 4.5275599645981375 #
vertex $-1 $389 $488 #
point $-1 52.142346660742504 25.342534722245873 4.5275599645981375 #
vertex $-1 $393 $489 #
point $-1 52.142346660742504 28.070818894521892 4.5275599645981375 #
straight-curve $-1 -57.990050965910825 33.125491499049019 0 0 0 -1 I I #
point $-1 -57.990050965910825 -33.125491499049019 -10.602644193636165 #
straight-curve $-1 -57.990050965910825 0 -10.602644193636165 0 1 0 I I #
point $-1 -57.990050965910825 33.125491499049019 -10.602644193636165 #
edge $-1 $430 -1.824941343049062 $468 1.824941343049062 $414 $490 forward 7 unknown #
vertex $-1 $418 $491 #
straight-curve $-1 -57.990050965910825 -40.680843790879933 0 0 0 -1 I I #
straight-curve $-1 -57.990050965910825 0 -10.602644193636165 0 1 0 I I #
straight-curve $-1 -56.165109622861763 -40.680843790879933 10.602644193636165 1 0 0 I I #
point $-1 -57.990050965910825 -40.680843790879933 10.602644193636165 #
point $-1 -54.340168279812701 -40.680843790879933 10.602644193636165 #
straight-curve $-1 -54.340168279812701 -40.680843790879933 0 0 0 -1 I I #
point $-1 -54.340168279812701 -40.680843790879933 -10.602644193636165 #
straight-curve $-1 -57.990050965910825 -2.6663592632164601 49.715045761203932 0 0 -1 I I #
point $-1 -57.990050965910825 -2.6663592632164601 10.602644193636165 #
straight-curve $-1 -57.990050965910825 -3.0810869858369703 3.2782299207094203 0 -1 0 I I #
point $-1 -57.990050965910825 -2.6663592632164601 3.2782299207094212 #
point $-1 -51.721816343342859 -8.2596627967484295 5.6968807056933644 #
point $-1 -51.721816343342859 -6.1621739716739405 5.6968807056933644 #
point $-1 -51.721816343342859 -4.0646851465994516 5.6968807056933644 #
straight-curve $-1 57.990050965910825 20.795394435119174 82.201872309781848 0 0 -1 I I #
point $-1 57.990050965910825 20.795394435119174 10.602644193636165 #
straight-curve $-1 57.990050965910818 12.671267361122936 0.60789598642925569 0 1 0 I I #
point $-1 57.990050965910825 20.795394435119174 0.60789598642925569 #
point $-1 51.436208944423626 22.614250549969853 4.4905528626856688 #
point $-1 51.436208944423626 25.342534722245873 4.4905528626856688 #
point $-1 51.436208944423626 28.070818894521892 4.4905528626856688 #
straight-curve $-1 -56.165109622861763 -40.680843790879933 -10.602644193636165 -1 0 0 I I #
point $-1 -57.990050965910825 -40.680843790879933 -10.602644193636165 #
End-of-ACIS-data 