500 0 8 0           
7 Unknown 11 ACIS 5.0 NT 24 Thu Mar 25 21:55:19 1999 
-1 9.9999999999999995e-007 1e-010 
body $-1 $8 $-1 $9 #
body $-1 $10 $-1 $11 #
body $-1 $12 $-1 $13 #
body $-1 $14 $-1 $15 #
body $-1 $16 $-1 $17 #
body $-1 $18 $-1 $19 #
body $-1 $20 $-1 $21 #
body $-1 $22 $-1 $23 #
lump $-1 $-1 $24 $0 #
transform $-1 1 0 0 0 1 0 0 0 1 50.923184911648917 31.676747981159892 13.218640131693101 1 rotate no_reflect no_shear #
lump $-1 $-1 $25 $1 #
transform $-1 1 0 0 0 1 0 0 0 1 50.923184911648917 31.676747981159892 13.218640131693101 1 rotate no_reflect no_shear #
lump $-1 $-1 $26 $2 #
transform $-1 1 0 0 0 1 0 0 0 1 50.923184911648917 31.676747981159892 13.218640131693101 1 rotate no_reflect no_shear #
lump $-1 $-1 $27 $3 #
transform $-1 1 0 0 0 1 0 0 0 1 50.923184911648917 31.676747981159892 13.218640131693101 1 rotate no_reflect no_shear #
lump $-1 $-1 $28 $4 #
transform $-1 1 0 0 0 1 0 0 0 1 50.923184911648917 31.676747981159892 13.218640131693101 1 rotate no_reflect no_shear #
lump $-1 $-1 $29 $5 #
transform $-1 1 0 0 0 1 0 0 0 1 50.923184911648917 31.676747981159892 13.218640131693101 1 rotate no_reflect no_shear #
lump $-1 $-1 $30 $6 #
transform $-1 1 0 0 0 1 0 0 0 1 50.923184911648917 31.676747981159892 13.218640131693101 1 rotate no_reflect no_shear #
lump $-1 $-1 $31 $7 #
transform $-1 1 0 0 0 1 0 0 0 1 50.923184911648917 31.676747981159892 13.218640131693101 1 rotate no_reflect no_shear #
shell $-1 $-1 $-1 $32 $-1 $8 #
shell $-1 $-1 $-1 $33 $-1 $10 #
shell $-1 $-1 $-1 $34 $-1 $12 #
shell $-1 $-1 $-1 $35 $-1 $14 #
shell $-1 $-1 $-1 $36 $-1 $16 #
shell $-1 $-1 $-1 $37 $-1 $18 #
shell $-1 $-1 $-1 $38 $-1 $20 #
shell $-1 $-1 $-1 $39 $-1 $22 #
face $-1 $40 $41 $24 $-1 $42 forward single #
face $-1 $43 $44 $25 $-1 $45 forward single #
face $-1 $46 $47 $26 $-1 $48 reversed single #
face $-1 $49 $50 $27 $-1 $51 forward single #
face $-1 $52 $53 $28 $-1 $54 forward single #
face $-1 $55 $56 $29 $-1 $57 reversed single #
face $-1 $58 $59 $30 $-1 $60 forward single #
face $-1 $61 $62 $31 $-1 $63 forward single #
face $-1 $64 $65 $24 $-1 $66 reversed single #
loop $-1 $-1 $67 $32 #
plane-surface $-1 0 0 13.218640131693101 0 0 1 1 0 0 forward_v I I I I #
face $-1 $68 $69 $25 $-1 $70 reversed single #
loop $-1 $-1 $71 $33 #
plane-surface $-1 0 -31.676747981159892 0 0 1 0 0 0 1 forward_v I I I I #
face $-1 $72 $73 $26 $-1 $74 reversed single #
loop $-1 $-1 $75 $34 #
plane-surface $-1 30.877734175194462 19.180191511414563 149.98284758334839 0 -1 0 -0.6018150307709319 0 -0.79863550430605224 forward_v I I I I #
face $-1 $76 $77 $27 $-1 $78 forward single #
loop $-1 $79 $80 $35 #
cone-surface $-1 46.577470384216731 9.7747504814100097 9.6840624078363025 -0.6018150307709319 0 -0.79863550430605224 1.1979532564590785 0 -0.90272254615639791 1 I I 0 1 1.5 forward I I I I #
face $-1 $81 $82 $28 $-1 $83 forward single #
loop $-1 $84 $85 $36 #
cone-surface $-1 46.577470384216731 15.418015099412742 9.6840624078363025 -0.6018150307709319 0 -0.79863550430605224 1.1979532564590785 0 -0.90272254615639791 1 I I 0 1 1.5 forward I I I I #
face $-1 $86 $87 $29 $-1 $88 reversed single #
loop $-1 $-1 $89 $37 #
plane-surface $-1 -139.12472924963487 10.542611696477465 54.832007528934476 0 1 0 -0.86602541151947299 0 0.49999998660252726 forward_v I I I I #
face $-1 $90 $91 $30 $-1 $92 forward single #
loop $-1 $93 $94 $38 #
cone-surface $-1 -47.394993348747022 15.010796088742147 8.0783656950304117 0.86602541151947299 0 -0.49999998660252726 0.49999998660252726 0 0.86602541151947299 1 I I 0 1 1 forward I I I I #
face $-1 $95 $96 $31 $-1 $97 forward single #
loop $-1 $98 $99 $39 #
cone-surface $-1 -47.394993348747022 21.713072677139166 8.0783656950304117 0.86602541151947299 0 -0.49999998660252726 0.49999998660252726 0 0.86602541151947299 1 I I 0 1 1 forward I I I I #
face $-1 $100 $101 $24 $-1 $102 reversed single #
loop $-1 $-1 $103 $40 #
plane-surface $-1 0 0 -13.218640131693101 0 0 1 1 0 0 forward_v I I I I #
coedge $-1 $104 $105 $106 $107 forward $41 $-1 #
face $-1 $108 $109 $25 $-1 $110 reversed single #
loop $-1 $-1 $111 $43 #
plane-surface $-1 0 0 -13.218640131693101 0 0 1 1 0 0 forward_v I I I I #
coedge $-1 $112 $113 $114 $115 forward $44 $-1 #
face $-1 $116 $117 $26 $-1 $118 reversed single #
loop $-1 $-1 $119 $46 #
plane-surface $-1 -30.414942013921234 12.596382790411376 68.644720657778223 0.6018150307709319 0 0.79863550430605224 0.79863550430605224 0 -0.6018150307709319 forward_v I I I I #
coedge $-1 $120 $121 $122 $123 reversed $47 $-1 #
face $-1 $-1 $124 $27 $-1 $125 forward single #
loop $-1 $126 $127 $49 #
cone-surface $-1 45.673012204025852 9.7747504814100097 8.4838058872652535 -0.6018150307709319 0 -0.79863550430605224 0.59897662822953923 0 -0.45136127307819895 1 I I -0.70710678118654757 0.70710678118654757 0.75 forward I I I I #
loop $-1 $-1 $128 $35 #
coedge $-1 $80 $80 $129 $130 reversed $50 $-1 #
face $-1 $-1 $131 $28 $-1 $132 forward single #
loop $-1 $133 $134 $52 #
cone-surface $-1 45.673012204025852 15.418015099412742 8.4838058872652535 -0.6018150307709319 0 -0.79863550430605224 0.59897662822953923 0 -0.45136127307819895 1 I I -0.70710678118654757 0.70710678118654757 0.75 forward I I I I #
loop $-1 $-1 $135 $36 #
coedge $-1 $85 $85 $136 $137 reversed $53 $-1 #
face $-1 $138 $139 $29 $-1 $140 reversed single #
loop $-1 $-1 $141 $55 #
plane-surface $-1 -50.923184911648931 18.361934382940653 3.9088239817695225 -0.86602541151947299 0 0.49999998660252726 0.49999998660252726 0 0.86602541151947299 forward_v I I I I #
coedge $-1 $142 $143 $144 $145 reversed $56 $-1 #
face $-1 $-1 $146 $30 $-1 $147 forward single #
loop $-1 $148 $149 $58 #
cone-surface $-1 -46.121301414201881 15.010796088742147 7.3429993400282552 0.86602541151947299 0 -0.49999998660252726 0.24999999330126363 0 0.43301270575973649 1 I I -0.70710678118654746 0.70710678118654746 0.5 forward I I I I #
loop $-1 $-1 $150 $38 #
coedge $-1 $94 $94 $151 $152 reversed $59 $-1 #
face $-1 $-1 $153 $31 $-1 $154 forward single #
loop $-1 $155 $156 $61 #
cone-surface $-1 -46.121301414201881 21.713072677139166 7.3429993400282552 0.86602541151947299 0 -0.49999998660252726 0.24999999330126363 0 0.43301270575973649 1 I I -0.70710678118654746 0.70710678118654746 0.5 forward I I I I #
loop $-1 $-1 $157 $39 #
coedge $-1 $99 $99 $158 $159 reversed $62 $-1 #
face $-1 $160 $161 $24 $-1 $162 reversed single #
loop $-1 $-1 $163 $64 #
plane-surface $-1 0 -31.676747981159892 0 0 1 0 0 0 1 forward_v I I I I #
coedge $-1 $164 $165 $166 $167 forward $65 $-1 #
coedge $-1 $168 $67 $169 $170 forward $41 $-1 #
coedge $-1 $67 $168 $171 $172 forward $41 $-1 #
coedge $-1 $173 $174 $67 $107 reversed $175 $-1 #
edge $-1 $176 -31.676747981159892 $177 31.676747981159892 $106 $178 forward 7 unknown #
face $-1 $179 $180 $25 $-1 $181 forward single #
loop $-1 $-1 $182 $68 #
plane-surface $-1 50.923184911648917 0 0 -1 0 0 0 0 1 forward_v I I I I #
coedge $-1 $183 $184 $185 $186 forward $69 $-1 #
coedge $-1 $185 $71 $182 $187 reversed $44 $-1 #
coedge $-1 $71 $185 $188 $189 reversed $44 $-1 #
coedge $-1 $190 $191 $71 $115 reversed $180 $-1 #
edge $-1 $192 -50.923184911648917 $193 50.923184911648917 $114 $194 forward 7 unknown #
face $-1 $195 $196 $26 $-1 $197 reversed single #
loop $-1 $-1 $198 $72 #
plane-surface $-1 30.877734175194462 6.0125740694081884 149.98284758334839 0 1 0 0.6018150307709319 0 0.79863550430605224 forward_v I I I I #
coedge $-1 $199 $200 $201 $202 reversed $73 $-1 #
coedge $-1 $121 $75 $203 $204 reversed $47 $-1 #
coedge $-1 $75 $120 $199 $205 reversed $47 $-1 #
coedge $-1 $201 $206 $75 $123 forward $207 $-1 #
edge $-1 $208 -35.484317824051686 $209 -27.699082583412675 $122 $210 forward 7 unknown #
loop $-1 $-1 $129 $76 #
plane-surface $-1 -30.414942013921234 12.596382790411376 68.644720657778223 0.6018150307709319 0 0.79863550430605224 0.79863550430605224 0 -0.6018150307709319 forward_v I I I I #
loop $-1 $-1 $211 $49 #
coedge $-1 $127 $127 $128 $212 reversed $77 $-1 #
coedge $-1 $128 $128 $127 $212 forward $79 $-1 #
coedge $-1 $129 $129 $80 $130 forward $124 $-1 #
edge $-1 $213 0 $213 6.2831853071796004 $129 $214 forward 7 unknown #
loop $-1 $-1 $136 $81 #
plane-surface $-1 -30.414942013921234 12.596382790411376 68.644720657778223 0.6018150307709319 0 0.79863550430605224 0.79863550430605224 0 -0.6018150307709319 forward_v I I I I #
loop $-1 $-1 $215 $52 #
coedge $-1 $134 $134 $135 $216 reversed $82 $-1 #
coedge $-1 $135 $135 $134 $216 forward $84 $-1 #
coedge $-1 $136 $136 $85 $137 forward $131 $-1 #
edge $-1 $217 0 $217 6.2831853071796004 $136 $218 forward 7 unknown #
face $-1 $219 $220 $29 $-1 $221 forward single #
loop $-1 $-1 $222 $86 #
plane-surface $-1 -139.12472924963487 26.181257069403841 54.832007528934476 0 -1 0 0.86602541151947299 0 -0.49999998660252726 forward_v I I I I #
coedge $-1 $223 $224 $225 $226 reversed $87 $-1 #
coedge $-1 $143 $89 $227 $228 reversed $56 $-1 #
coedge $-1 $89 $142 $223 $229 reversed $56 $-1 #
coedge $-1 $225 $230 $89 $145 forward $220 $-1 #
edge $-1 $231 18.639179713168517 $232 24.014204381401477 $144 $233 forward 7 unknown #
loop $-1 $-1 $151 $90 #
plane-surface $-1 -50.923184911648931 18.361934382940653 3.9088239817695225 -0.86602541151947299 0 0.49999998660252726 0.49999998660252726 0 0.86602541151947299 forward_v I I I I #
loop $-1 $-1 $234 $58 #
coedge $-1 $149 $149 $150 $235 reversed $91 $-1 #
coedge $-1 $150 $150 $149 $235 forward $93 $-1 #
coedge $-1 $151 $151 $94 $152 forward $146 $-1 #
edge $-1 $236 0 $236 6.2831853071796004 $151 $237 forward 7 unknown #
loop $-1 $-1 $158 $95 #
plane-surface $-1 -50.923184911648931 18.361934382940653 3.9088239817695225 -0.86602541151947299 0 0.49999998660252726 0.49999998660252726 0 0.86602541151947299 forward_v I I I I #
loop $-1 $-1 $238 $61 #
coedge $-1 $156 $156 $157 $239 reversed $96 $-1 #
coedge $-1 $157 $157 $156 $239 forward $98 $-1 #
coedge $-1 $158 $158 $99 $159 forward $153 $-1 #
edge $-1 $240 0 $240 6.2831853071796004 $158 $241 forward 7 unknown #
face $-1 $242 $243 $24 $-1 $244 reversed single #
loop $-1 $-1 $245 $100 #
plane-surface $-1 -50.923184911648917 0 0 1 0 0 0 0 -1 forward_v I I I I #
coedge $-1 $171 $246 $173 $247 reversed $101 $-1 #
coedge $-1 $248 $103 $246 $249 forward $65 $-1 #
coedge $-1 $103 $248 $250 $251 forward $65 $-1 #
coedge $-1 $174 $173 $103 $167 reversed $175 $-1 #
edge $-1 $252 -31.676747981159892 $253 31.676747981159892 $166 $254 forward 7 unknown #
coedge $-1 $105 $104 $255 $256 forward $41 $-1 #
coedge $-1 $257 $258 $104 $170 reversed $243 $-1 #
edge $-1 $177 -50.923184911648917 $259 50.923184911648917 $169 $260 forward 7 unknown #
coedge $-1 $261 $163 $105 $172 reversed $101 $-1 #
edge $-1 $262 -50.923184911648917 $176 50.923184911648917 $171 $263 forward 7 unknown #
coedge $-1 $166 $106 $163 $247 forward $175 $-1 #
coedge $-1 $106 $166 $257 $264 reversed $175 $-1 #
loop $-1 $-1 $173 $242 #
vertex $-1 $107 $265 #
vertex $-1 $107 $266 #
straight-curve $-1 50.923184911648917 0 13.218640131693101 0 1 0 I I #
face $-1 $267 $268 $25 $-1 $269 reversed single #
loop $-1 $-1 $191 $108 #
plane-surface $-1 0 -36.803710128688877 -5.8845075799731728 0 0 1 1 0 0 forward_v I I I I #
coedge $-1 $270 $271 $112 $187 forward $109 $-1 #
coedge $-1 $272 $111 $271 $273 forward $69 $-1 #
coedge $-1 $111 $272 $274 $275 forward $69 $-1 #
coedge $-1 $113 $112 $111 $186 reversed $44 $-1 #
edge $-1 $276 -50.923184911648917 $277 50.923184911648917 $111 $278 forward 7 unknown #
edge $-1 $277 -13.218640131693101 $193 -5.8845075799731728 $182 $279 forward 7 unknown #
coedge $-1 $274 $280 $113 $189 forward $281 $-1 #
edge $-1 $192 5.8845075799731728 $276 13.218640131693101 $188 $282 forward 7 unknown #
coedge $-1 $283 $114 $280 $284 forward $180 $-1 #
coedge $-1 $114 $283 $270 $285 forward $180 $-1 #
vertex $-1 $189 $286 #
vertex $-1 $285 $287 #
straight-curve $-1 0 -31.676747981159892 -5.8845075799731728 1 0 0 I I #
face $-1 $-1 $207 $26 $-1 $288 forward single #
loop $-1 $-1 $289 $116 #
plane-surface $-1 50.923184911648917 0 0 -1 0 0 0 0 1 forward_v I I I I #
coedge $-1 $290 $291 $292 $293 reversed $117 $-1 #
coedge $-1 $294 $119 $121 $205 forward $73 $-1 #
coedge $-1 $119 $294 $290 $295 forward $73 $-1 #
coedge $-1 $292 $122 $119 $202 forward $207 $-1 #
edge $-1 $209 -12.882000116208875 $296 0.28561732579749943 $201 $297 forward 7 unknown #
coedge $-1 $298 $299 $120 $204 forward $196 $-1 #
edge $-1 $300 -67.639379323011667 $208 -61.772783659981094 $203 $301 forward 7 unknown #
edge $-1 $209 92.098199101281494 $300 101.84636982329783 $121 $302 forward 7 unknown #
coedge $-1 $122 $292 $298 $303 forward $207 $-1 #
loop $-1 $-1 $292 $195 #
vertex $-1 $204 $304 #
vertex $-1 $123 $305 #
straight-curve $-1 15.438867087597231 19.180191511414563 13.218640131693107 -1 0 0 I I #
coedge $-1 $211 $211 $-1 $306 reversed $126 $-1 #
edge $-1 $307 0 $307 6.2831853071796004 $127 $308 forward 7 unknown #
vertex $-1 $130 $309 #
ellipse-curve $-1 47.030567291329419 9.7747504814100097 10.285342300177817 0.6018150307709319 0 0.79863550430605224 1.1979532564590785 0 -0.90272254615639791 1 I I #
coedge $-1 $215 $215 $-1 $310 reversed $133 $-1 #
edge $-1 $311 0 $311 6.2831853071796004 $134 $312 forward 7 unknown #
vertex $-1 $137 $313 #
ellipse-curve $-1 47.030567291329419 15.418015099412742 10.285342300177817 0.6018150307709319 0 0.79863550430605224 1.1979532564590785 0 -0.90272254615639791 1 I I #
face $-1 $-1 $314 $29 $-1 $315 reversed single #
loop $-1 $-1 $144 $138 #
plane-surface $-1 0 0 13.218640131693101 0 0 1 1 0 0 forward_v I I I I #
coedge $-1 $316 $317 $318 $319 reversed $139 $-1 #
coedge $-1 $320 $141 $143 $229 forward $87 $-1 #
coedge $-1 $141 $320 $316 $321 forward $87 $-1 #
coedge $-1 $318 $144 $141 $226 forward $220 $-1 #
edge $-1 $232 1.3616445050071384 $322 17.000289877933515 $225 $323 forward 7 unknown #
coedge $-1 $324 $325 $142 $228 forward $314 $-1 #
edge $-1 $326 -23.50717978269769 $231 -14.197363632774136 $227 $327 forward 7 unknown #
edge $-1 $232 -10.750049624512945 $326 -2.8258016906358157e-014 $143 $328 forward 7 unknown #
coedge $-1 $144 $318 $324 $329 forward $220 $-1 #
vertex $-1 $228 $330 #
vertex $-1 $145 $331 #
straight-curve $-1 -69.562364624817434 10.542611696477465 13.2186401316931 1 0 0 I I #
coedge $-1 $234 $234 $-1 $332 reversed $148 $-1 #
edge $-1 $333 0 $333 6.2831853071796004 $149 $334 forward 7 unknown #
vertex $-1 $152 $335 #
ellipse-curve $-1 -48.235672577532441 15.010796088742147 8.5637320567313147 -0.86602541151947299 0 0.49999998660252726 0.49999998660252726 0 0.86602541151947299 1 I I #
coedge $-1 $238 $238 $-1 $336 reversed $155 $-1 #
edge $-1 $337 0 $337 6.2831853071796004 $156 $338 forward 7 unknown #
vertex $-1 $159 $339 #
ellipse-curve $-1 -48.235672577532441 21.713072677139166 8.5637320567313147 -0.86602541151947299 0 0.49999998660252726 0.49999998660252726 0 0.86602541151947299 1 I I #
face $-1 $-1 $175 $24 $-1 $340 reversed single #
loop $-1 $-1 $257 $160 #
plane-surface $-1 0 31.676747981159892 0 0 -1 0 0 0 -1 forward_v I I I I #
coedge $-1 $341 $255 $258 $342 forward $161 $-1 #
coedge $-1 $163 $261 $164 $249 reversed $101 $-1 #
edge $-1 $176 -13.218640131693101 $253 13.218640131693101 $173 $343 forward 7 unknown #
coedge $-1 $165 $164 $341 $344 forward $65 $-1 #
edge $-1 $253 -50.923184911648917 $345 50.923184911648917 $246 $346 forward 7 unknown #
coedge $-1 $258 $257 $165 $251 reversed $243 $-1 #
edge $-1 $347 -50.923184911648917 $252 50.923184911648917 $250 $348 forward 7 unknown #
vertex $-1 $167 $349 #
vertex $-1 $247 $350 #
straight-curve $-1 50.923184911648917 0 -13.218640131693101 0 -1 0 I I #
coedge $-1 $245 $351 $168 $256 reversed $161 $-1 #
edge $-1 $259 -31.676747981159892 $262 31.676747981159892 $255 $352 forward 7 unknown #
coedge $-1 $250 $169 $174 $264 forward $243 $-1 #
coedge $-1 $169 $250 $245 $342 reversed $243 $-1 #
vertex $-1 $170 $353 #
straight-curve $-1 0 31.676747981159892 13.218640131693101 -1 0 0 I I #
coedge $-1 $246 $171 $351 $354 forward $101 $-1 #
vertex $-1 $256 $355 #
straight-curve $-1 0 -31.676747981159892 13.218640131693101 1 0 0 I I #
edge $-1 $177 -13.218640131693101 $252 13.218640131693101 $174 $356 forward 7 unknown #
point $-1 50.923184911648917 -31.676747981159892 13.218640131693101 #
point $-1 50.923184911648917 31.676747981159892 13.218640131693101 #
face $-1 $-1 $281 $25 $-1 $357 reversed single #
loop $-1 $-1 $358 $179 #
plane-surface $-1 0 -41.930672276217862 -9.5515738558331371 0 1 0 0 0 1 forward_v I I I I #
coedge $-1 $359 $182 $191 $285 reversed $109 $-1 #
coedge $-1 $182 $359 $183 $273 reversed $109 $-1 #
coedge $-1 $184 $183 $360 $361 forward $69 $-1 #
edge $-1 $277 31.676747981159892 $362 41.930672276217862 $271 $363 forward 7 unknown #
coedge $-1 $364 $188 $184 $275 reversed $281 $-1 #
edge $-1 $365 -41.930672276217862 $276 -31.676747981159892 $274 $366 forward 7 unknown #
vertex $-1 $189 $367 #
vertex $-1 $273 $368 #
straight-curve $-1 0 -31.676747981159892 -13.218640131693101 1 0 0 I I #
straight-curve $-1 50.923184911648917 -31.676747981159892 0 0 0 1 I I #
coedge $-1 $188 $364 $190 $284 reversed $281 $-1 #
loop $-1 $-1 $188 $267 #
straight-curve $-1 -50.923184911648917 -31.676747981159892 0 0 0 -1 I I #
coedge $-1 $191 $190 $369 $370 forward $180 $-1 #
edge $-1 $192 -5.1269621475289888 $371 5.1269621475289853 $280 $372 forward 7 unknown #
edge $-1 $373 -5.1269621475289853 $193 5.1269621475289888 $270 $374 forward 7 unknown #
point $-1 -50.923184911648917 -31.676747981159888 -5.8845075799731728 #
point $-1 50.923184911648917 -31.676747981159888 -5.8845075799731728 #
plane-surface $-1 0 0 13.218640131693101 0 0 1 1 0 0 forward_v I I I I #
coedge $-1 $299 $298 $291 $375 forward $196 $-1 #
coedge $-1 $291 $198 $200 $295 reversed $117 $-1 #
coedge $-1 $198 $290 $289 $375 reversed $117 $-1 #
coedge $-1 $206 $201 $198 $293 forward $207 $-1 #
edge $-1 $296 27.699082583412675 $376 35.484317824051686 $292 $377 forward 7 unknown #
coedge $-1 $200 $199 $299 $378 reversed $73 $-1 #
edge $-1 $379 -101.84636982329783 $296 -92.098199101281494 $290 $380 forward 7 unknown #
vertex $-1 $202 $381 #
straight-curve $-1 43.137949671009906 6.2981913952056878 13.2186401316931 0 -1 0 I I #
coedge $-1 $289 $203 $206 $303 reversed $196 $-1 #
coedge $-1 $203 $289 $294 $378 forward $196 $-1 #
vertex $-1 $204 $382 #
straight-curve $-1 50.923184911648917 19.180191511414563 74.991423791674194 0 0 1 I I #
straight-curve $-1 -30.414942013921234 19.180191511414563 68.644720657778223 0.79863550430605224 0 -0.6018150307709319 I I #
edge $-1 $376 6.0125740694081884 $208 19.180191511414563 $298 $383 forward 7 unknown #
point $-1 50.923184911648917 19.180191511414563 13.218640131693101 #
point $-1 43.137949671009906 19.180191511414563 13.218640131693093 #
edge $-1 $384 1 $384 0 $211 $-1 forward 7 unknown #
vertex $-1 $212 $385 #
ellipse-curve $-1 46.124373477104051 9.7747504814100097 9.0827825154947934 0.6018150307709319 0 0.79863550430605224 1.1979532564590785 0 -0.90272254615639791 1 I I #
point $-1 48.228520547788492 9.7747504814100097 9.3826197540214125 #
edge $-1 $386 1 $386 0 $215 $-1 forward 7 unknown #
vertex $-1 $216 $387 #
ellipse-curve $-1 46.124373477104051 15.418015099412742 9.0827825154947934 0.6018150307709319 0 0.79863550430605224 1.1979532564590785 0 -0.90272254615639791 1 I I #
point $-1 48.228520547788492 15.418015099412742 9.3826197540214125 #
loop $-1 $-1 $227 $219 #
plane-surface $-1 -50.923184911648917 0 0 1 0 0 0 0 -1 forward_v I I I I #
coedge $-1 $317 $222 $224 $321 reversed $139 $-1 #
coedge $-1 $222 $316 $388 $389 reversed $139 $-1 #
coedge $-1 $230 $225 $222 $319 forward $220 $-1 #
edge $-1 $322 -24.014204381401477 $390 -18.639179713168517 $318 $391 forward 7 unknown #
coedge $-1 $224 $223 $325 $392 reversed $87 $-1 #
edge $-1 $393 2.8258016906358157e-014 $322 10.750049624512945 $316 $394 forward 7 unknown #
vertex $-1 $226 $395 #
straight-curve $-1 -45.54816024341595 9.1809671914703266 13.218640131693101 0 1 0 I I #
coedge $-1 $388 $227 $230 $329 reversed $314 $-1 #
coedge $-1 $227 $388 $320 $392 forward $314 $-1 #
vertex $-1 $228 $396 #
straight-curve $-1 -50.923184911648917 10.542611696477465 27.416003764467238 0 0 1 I I #
straight-curve $-1 -50.923184911648931 10.542611696477465 3.9088239817695225 -0.49999998660252726 0 -0.86602541151947299 I I #
edge $-1 $390 -26.181257069403841 $231 -10.542611696477465 $324 $397 forward 7 unknown #
point $-1 -50.923184911648917 10.542611696477465 13.218640131693101 #
point $-1 -45.548160243415957 10.542611696477465 13.218640131693101 #
edge $-1 $398 1 $398 0 $234 $-1 forward 7 unknown #
vertex $-1 $235 $399 #
ellipse-curve $-1 -46.554314119961617 15.010796088742147 7.5929993333295185 -0.86602541151947299 0 0.49999998660252726 0.49999998660252726 0 0.86602541151947299 1 I I #
point $-1 -47.735672590929902 15.010796088742147 9.429757468250779 #
edge $-1 $400 1 $400 0 $238 $-1 forward 7 unknown #
vertex $-1 $239 $401 #
ellipse-curve $-1 -46.554314119961617 21.713072677139166 7.5929993333295185 -0.86602541151947299 0 0.49999998660252726 0.49999998660252726 0 0.86602541151947299 1 I I #
point $-1 -47.735672590929902 21.713072677139166 9.429757468250779 #
plane-surface $-1 50.923184911648917 0 0 -1 0 0 0 0 1 forward_v I I I I #
coedge $-1 $351 $245 $248 $344 reversed $161 $-1 #
edge $-1 $259 -13.218640131693101 $347 13.218640131693101 $258 $402 forward 7 unknown #
straight-curve $-1 50.923184911648917 -31.676747981159892 0 0 0 -1 I I #
edge $-1 $345 -31.676747981159892 $347 31.676747981159892 $341 $403 forward 7 unknown #
vertex $-1 $344 $404 #
straight-curve $-1 0 -31.676747981159892 -13.218640131693101 -1 0 0 I I #
vertex $-1 $251 $405 #
straight-curve $-1 0 31.676747981159892 -13.218640131693101 1 0 0 I I #
point $-1 50.923184911648917 31.676747981159892 -13.218640131693101 #
point $-1 50.923184911648917 -31.676747981159892 -13.218640131693101 #
coedge $-1 $255 $341 $261 $354 reversed $161 $-1 #
straight-curve $-1 -50.923184911648917 0 13.218640131693101 0 -1 0 I I #
point $-1 -50.923184911648917 31.676747981159892 13.218640131693101 #
edge $-1 $262 -13.218640131693101 $345 13.218640131693101 $351 $406 forward 7 unknown #
point $-1 -50.923184911648917 -31.676747981159892 13.218640131693101 #
straight-curve $-1 50.923184911648917 31.676747981159892 0 0 0 -1 I I #
plane-surface $-1 -50.923184911648917 0 0 1 0 0 0 0 -1 forward_v I I I I #
coedge $-1 $360 $369 $364 $407 forward $268 $-1 #
coedge $-1 $271 $270 $408 $409 forward $109 $-1 #
coedge $-1 $408 $358 $272 $361 reversed $268 $-1 #
edge $-1 $362 -50.923184911648917 $365 50.923184911648917 $360 $410 forward 7 unknown #
vertex $-1 $409 $411 #
straight-curve $-1 50.923184911648917 0 -13.218640131693101 0 -1 0 I I #
coedge $-1 $280 $274 $358 $407 reversed $281 $-1 #
vertex $-1 $275 $412 #
straight-curve $-1 -50.923184911648917 0 -13.218640131693101 0 1 0 I I #
point $-1 -50.923184911648917 -31.676747981159892 -13.218640131693101 #
point $-1 50.923184911648917 -31.676747981159892 -13.218640131693101 #
coedge $-1 $358 $408 $283 $370 reversed $268 $-1 #
edge $-1 $371 -50.923184911648917 $373 50.923184911648917 $369 $413 forward 7 unknown #
vertex $-1 $284 $414 #
straight-curve $-1 -50.923184911648917 -36.803710128688877 -5.8845075799731728 0 -1 0 I I #
vertex $-1 $285 $415 #
straight-curve $-1 50.923184911648917 -36.803710128688877 -5.8845075799731728 0 1 0 I I #
edge $-1 $376 61.772783659981094 $379 67.639379323011667 $289 $416 forward 7 unknown #
vertex $-1 $303 $417 #
straight-curve $-1 15.438867087597231 6.0125740694081884 13.218640131693107 1 0 0 I I #
edge $-1 $379 -0.28561732579749943 $300 12.882000116208875 $299 $418 forward 7 unknown #
vertex $-1 $378 $419 #
straight-curve $-1 -30.414942013921234 6.0125740694081884 68.644720657778223 -0.79863550430605224 0 0.6018150307709319 I I #
point $-1 43.137949671009906 6.0125740694081884 13.218640131693093 #
point $-1 50.923184911648917 19.180191511414563 7.3520444686625339 #
straight-curve $-1 50.923184911648917 0 13.218640131693101 0 1 0 I I #
vertex $-1 $306 $420 #
point $-1 47.322326733563131 9.7747504814100097 8.1800599693383944 #
vertex $-1 $310 $421 #
point $-1 47.322326733563131 15.418015099412742 8.1800599693383944 #
coedge $-1 $325 $324 $317 $389 forward $314 $-1 #
edge $-1 $390 14.197363632774136 $393 23.50717978269769 $388 $422 forward 7 unknown #
vertex $-1 $329 $423 #
straight-curve $-1 -69.562364624817434 26.181257069403841 13.2186401316931 -1 0 0 I I #
edge $-1 $393 -17.000289877933515 $326 -1.3616445050071384 $325 $424 forward 7 unknown #
vertex $-1 $392 $425 #
straight-curve $-1 -50.923184911648931 26.181257069403841 3.9088239817695225 0.49999998660252726 0 0.86602541151947299 I I #
point $-1 -45.548160243415957 26.181257069403841 13.218640131693101 #
point $-1 -50.923184911648917 10.542611696477465 3.9088239817695469 #
straight-curve $-1 -50.923184911648917 0 13.218640131693101 0 -1 0 I I #
vertex $-1 $332 $426 #
point $-1 -46.054314133359092 15.010796088742147 8.4590247448489926 #
vertex $-1 $336 $427 #
point $-1 -46.054314133359092 21.713072677139166 8.4590247448489926 #
straight-curve $-1 -50.923184911648917 31.676747981159892 0 0 0 -1 I I #
straight-curve $-1 -50.923184911648917 0 -13.218640131693101 0 1 0 I I #
point $-1 -50.923184911648917 -31.676747981159892 -13.218640131693101 #
point $-1 -50.923184911648917 31.676747981159892 -13.218640131693101 #
straight-curve $-1 -50.923184911648917 -31.676747981159892 0 0 0 -1 I I #
edge $-1 $371 -3.6670662758599644 $365 3.6670662758599644 $364 $428 forward 7 unknown #
coedge $-1 $369 $360 $359 $409 reversed $268 $-1 #
edge $-1 $373 -3.6670662758599644 $362 3.6670662758599644 $359 $429 forward 7 unknown #
straight-curve $-1 0 -41.930672276217862 -13.218640131693101 -1 0 0 I I #
point $-1 50.923184911648917 -41.930672276217862 -13.218640131693101 #
point $-1 -50.923184911648917 -41.930672276217862 -13.218640131693101 #
straight-curve $-1 0 -41.930672276217862 -5.8845075799731728 1 0 0 I I #
point $-1 -50.923184911648917 -41.930672276217862 -5.8845075799731728 #
point $-1 50.923184911648917 -41.930672276217862 -5.8845075799731728 #
straight-curve $-1 50.923184911648917 6.0125740694081884 74.991423791674194 0 0 -1 I I #
point $-1 50.923184911648917 6.0125740694081884 13.218640131693101 #
straight-curve $-1 50.923184911648917 6.2981913952056878 7.352044468662541 0 1 0 I I #
point $-1 50.923184911648917 6.0125740694081884 7.3520444686625339 #
point $-1 45.221650930947654 9.7747504814100097 7.8848292590357145 #
point $-1 45.221650930947654 15.418015099412742 7.8848292590357145 #
straight-curve $-1 -50.923184911648917 26.181257069403841 27.416003764467238 0 0 -1 I I #
point $-1 -50.923184911648917 26.181257069403841 13.218640131693101 #
straight-curve $-1 -50.923184911648917 9.1809671914703266 3.9088239817695425 0 -1 0 I I #
point $-1 -50.923184911648917 26.181257069403841 3.9088239817695469 #
point $-1 -45.688288708442144 15.010796088742147 7.0929993467269918 #
point $-1 -45.688288708442144 21.713072677139166 7.0929993467269918 #
straight-curve $-1 -50.923184911648917 -41.930672276217862 -9.5515738558331371 0 0 -1 I I #
straight-curve $-1 50.923184911648917 -41.930672276217862 -9.5515738558331371 0 0 -1 I I #
End-of-ACIS-data 