500 0 17 0           
7 Unknown 11 ACIS 5.0 NT 24 Fri Mar 26 18:22:02 1999 
-1 9.9999999999999995e-007 1e-010 
body $-1 $17 $-1 $18 #
body $-1 $19 $-1 $20 #
body $-1 $21 $-1 $22 #
body $-1 $23 $-1 $24 #
body $-1 $25 $-1 $26 #
body $-1 $27 $-1 $28 #
body $-1 $29 $-1 $30 #
body $-1 $31 $-1 $32 #
body $-1 $33 $-1 $34 #
body $-1 $35 $-1 $36 #
body $-1 $37 $-1 $38 #
body $-1 $39 $-1 $40 #
body $-1 $41 $-1 $42 #
body $-1 $43 $-1 $44 #
body $-1 $45 $-1 $46 #
body $-1 $47 $-1 $48 #
body $-1 $49 $-1 $50 #
lump $-1 $-1 $51 $0 #
transform $-1 1 0 0 0 1 0 0 0 1 72.123783074434641 29.002710510635112 13.216427283629912 1 rotate no_reflect no_shear #
lump $-1 $-1 $52 $1 #
transform $-1 1 0 0 0 1 0 0 0 1 6.0471840276942803 29.002710510635112 23.263082018846408 1 rotate no_reflect no_shear #
lump $-1 $-1 $53 $2 #
transform $-1 1 0 0 0 1 0 0 0 1 138.20038212117498 29.002710510635112 23.263082018846408 1 rotate no_reflect no_shear #
lump $-1 $-1 $54 $3 #
transform $-1 1 0 0 0 0.60181501223851219 0.79863551827123203 0 -0.79863551827123203 0.60181501223851219 27.527028472191795 -115.20122975066606 105.88094960558485 1 rotate no_reflect no_shear #
lump $-1 $-1 $55 $4 #
transform $-1 1 0 0 0 -0.60181501223851219 -0.79863551827123203 0 0.79863551827123203 -0.60181501223851219 23.309269109975265 5.2719466721122448 20.869335216252274 1 rotate no_reflect no_shear #
lump $-1 $-1 $56 $5 #
transform $-1 1 0 0 0 -0.60181501223851219 -0.79863551827123203 0 0.79863551827123203 -0.60181501223851219 27.527028472191795 5.2719466721122448 20.869335216252274 1 rotate no_reflect no_shear #
lump $-1 $-1 $57 $6 #
transform $-1 1 0 0 0 -0.60181501223851219 -0.79863551827123203 0 0.79863551827123203 -0.60181501223851219 31.744787834408324 5.2719466721122448 20.869335216252274 1 rotate no_reflect no_shear #
lump $-1 $-1 $58 $7 #
transform $-1 1 0 0 0 0.60181501223851219 0.79863551827123203 0 -0.79863551827123203 0.60181501223851219 87.556443491237872 -115.20122975066606 105.88094960558485 1 rotate no_reflect no_shear #
lump $-1 $-1 $59 $8 #
transform $-1 1 0 0 0 -0.60181501223851219 -0.79863551827123203 0 0.79863551827123203 -0.60181501223851219 83.338684129021345 5.2719466721122448 20.869335216252274 1 rotate no_reflect no_shear #
lump $-1 $-1 $60 $9 #
transform $-1 1 0 0 0 -0.60181501223851219 -0.79863551827123203 0 0.79863551827123203 -0.60181501223851219 87.556443491237872 5.2719466721122448 20.869335216252274 1 rotate no_reflect no_shear #
lump $-1 $-1 $61 $10 #
transform $-1 1 0 0 0 -0.60181501223851219 -0.79863551827123203 0 0.79863551827123203 -0.60181501223851219 91.774202853454398 5.2719466721122448 20.869335216252274 1 rotate no_reflect no_shear #
lump $-1 $-1 $62 $11 #
transform $-1 1 0 0 0 0.66913059716165679 -0.74314483375859142 0 0.74314483375859142 0.66913059716165679 20.997287050026681 126.38905258047723 158.71713063495548 1 rotate no_reflect no_shear #
lump $-1 $-1 $63 $12 #
transform $-1 1 0 0 0 -0.66913059716165679 0.74314483375859142 0 -0.74314483375859142 -0.66913059716165679 17.181750338038917 52.425795857812965 20.714059915252818 1 rotate no_reflect no_shear #
lump $-1 $-1 $64 $13 #
transform $-1 1 0 0 0 -0.66913059716165679 0.74314483375859142 0 -0.74314483375859142 -0.66913059716165679 24.81282376201445 52.425795857812965 20.714059915252818 1 rotate no_reflect no_shear #
lump $-1 $-1 $65 $14 #
transform $-1 1 0 0 0 0.66913059716165679 -0.74314483375859142 0 0.74314483375859142 0.66913059716165679 81.026702069072755 126.38905258047723 158.71713063495548 1 rotate no_reflect no_shear #
lump $-1 $-1 $66 $15 #
transform $-1 1 0 0 0 -0.66913059716165679 0.74314483375859142 0 -0.74314483375859142 -0.66913059716165679 77.211165357084994 52.425795857812965 20.714059915252818 1 rotate no_reflect no_shear #
lump $-1 $-1 $67 $16 #
transform $-1 1 0 0 0 -0.66913059716165679 0.74314483375859142 0 -0.74314483375859142 -0.66913059716165679 84.84223878106053 52.425795857812965 20.714059915252818 1 rotate no_reflect no_shear #
shell $-1 $-1 $-1 $68 $-1 $17 #
shell $-1 $-1 $-1 $69 $-1 $19 #
shell $-1 $-1 $-1 $70 $-1 $21 #
shell $-1 $-1 $-1 $71 $-1 $23 #
shell $-1 $-1 $-1 $72 $-1 $25 #
shell $-1 $-1 $-1 $73 $-1 $27 #
shell $-1 $-1 $-1 $74 $-1 $29 #
shell $-1 $-1 $-1 $75 $-1 $31 #
shell $-1 $-1 $-1 $76 $-1 $33 #
shell $-1 $-1 $-1 $77 $-1 $35 #
shell $-1 $-1 $-1 $78 $-1 $37 #
shell $-1 $-1 $-1 $79 $-1 $39 #
shell $-1 $-1 $-1 $80 $-1 $41 #
shell $-1 $-1 $-1 $81 $-1 $43 #
shell $-1 $-1 $-1 $82 $-1 $45 #
shell $-1 $-1 $-1 $83 $-1 $47 #
shell $-1 $-1 $-1 $84 $-1 $49 #
face $-1 $85 $86 $51 $-1 $87 forward single #
face $-1 $88 $89 $52 $-1 $90 forward single #
face $-1 $91 $92 $53 $-1 $93 forward single #
face $-1 $94 $95 $54 $-1 $96 forward single #
face $-1 $97 $98 $55 $-1 $99 forward single #
face $-1 $100 $101 $56 $-1 $102 forward single #
face $-1 $103 $104 $57 $-1 $105 forward single #
face $-1 $106 $107 $58 $-1 $108 forward single #
face $-1 $109 $110 $59 $-1 $111 forward single #
face $-1 $112 $113 $60 $-1 $114 forward single #
face $-1 $115 $116 $61 $-1 $117 forward single #
face $-1 $118 $119 $62 $-1 $120 forward single #
face $-1 $121 $122 $63 $-1 $123 forward single #
face $-1 $124 $125 $64 $-1 $126 forward single #
face $-1 $127 $128 $65 $-1 $129 forward single #
face $-1 $130 $131 $66 $-1 $132 forward single #
face $-1 $133 $134 $67 $-1 $135 forward single #
face $-1 $136 $137 $51 $-1 $138 reversed single #
loop $-1 $-1 $139 $68 #
plane-surface $-1 0 0 13.216427283629912 0 0 1 1 0 0 forward_v I I I I #
face $-1 $140 $141 $52 $-1 $142 reversed single #
loop $-1 $-1 $143 $69 #
plane-surface $-1 0 0 3.169772548413416 0 0 1 1 0 0 forward_v I I I I #
face $-1 $144 $145 $53 $-1 $146 reversed single #
loop $-1 $-1 $147 $70 #
plane-surface $-1 0 0 3.169772548413416 0 0 1 1 0 0 forward_v I I I I #
face $-1 $148 $149 $54 $-1 $150 reversed single #
loop $-1 $-1 $151 $71 #
plane-surface $-1 0 0 144.24756614886928 0 0 1 1 0 0 forward_v I I I I #
face $-1 $152 $153 $55 $-1 $154 forward single #
loop $-1 $155 $156 $72 #
cone-surface $-1 0 0 -1.8139286477248433 0 0 1 1 0 0 1 I I 0 1 1 forward I I I I #
face $-1 $157 $158 $56 $-1 $159 forward single #
loop $-1 $160 $161 $73 #
cone-surface $-1 0 0 -1.8139286477248433 0 0 1 1 0 0 1 I I 0 1 1 forward I I I I #
face $-1 $162 $163 $57 $-1 $164 forward single #
loop $-1 $165 $166 $74 #
cone-surface $-1 0 0 -1.8139286477248433 0 0 1 1 0 0 1 I I 0 1 1 forward I I I I #
face $-1 $167 $168 $58 $-1 $169 reversed single #
loop $-1 $-1 $170 $75 #
plane-surface $-1 0 0 144.24756614886928 0 0 1 1 0 0 forward_v I I I I #
face $-1 $171 $172 $59 $-1 $173 forward single #
loop $-1 $174 $175 $76 #
cone-surface $-1 0 0 -1.8139286477248433 0 0 1 1 0 0 1 I I 0 1 1 forward I I I I #
face $-1 $176 $177 $60 $-1 $178 forward single #
loop $-1 $179 $180 $77 #
cone-surface $-1 0 0 -1.8139286477248433 0 0 1 1 0 0 1 I I 0 1 1 forward I I I I #
face $-1 $181 $182 $61 $-1 $183 forward single #
loop $-1 $184 $185 $78 #
cone-surface $-1 0 0 -1.8139286477248433 0 0 1 1 0 0 1 I I 0 1 1 forward I I I I #
face $-1 $186 $187 $62 $-1 $188 reversed single #
loop $-1 $-1 $189 $79 #
plane-surface $-1 0 0 144.24756614886928 0 0 1 1 0 0 forward_v I I I I #
face $-1 $190 $191 $63 $-1 $192 forward single #
loop $-1 $193 $194 $80 #
cone-surface $-1 0 0 -1.7799615466780594 0 0 1 1 0 0 1 I I 0 1 1 forward I I I I #
face $-1 $195 $196 $64 $-1 $197 forward single #
loop $-1 $198 $199 $81 #
cone-surface $-1 0 0 -1.7799615466780594 0 0 1 1 0 0 1 I I 0 1 1 forward I I I I #
face $-1 $200 $201 $65 $-1 $202 reversed single #
loop $-1 $-1 $203 $82 #
plane-surface $-1 0 0 144.24756614886928 0 0 1 1 0 0 forward_v I I I I #
face $-1 $204 $205 $66 $-1 $206 forward single #
loop $-1 $207 $208 $83 #
cone-surface $-1 0 0 -1.7799615466780594 0 0 1 1 0 0 1 I I 0 1 1 forward I I I I #
face $-1 $209 $210 $67 $-1 $211 forward single #
loop $-1 $212 $213 $84 #
cone-surface $-1 0 0 -1.7799615466780594 0 0 1 1 0 0 1 I I 0 1 1 forward I I I I #
face $-1 $214 $215 $51 $-1 $216 reversed single #
loop $-1 $-1 $217 $85 #
plane-surface $-1 0 0 -13.216427283629912 0 0 1 1 0 0 forward_v I I I I #
coedge $-1 $218 $219 $220 $221 forward $86 $-1 #
face $-1 $222 $223 $52 $-1 $224 reversed single #
loop $-1 $-1 $225 $88 #
plane-surface $-1 0 0 -3.169772548413416 0 0 1 1 0 0 forward_v I I I I #
coedge $-1 $226 $227 $228 $229 forward $89 $-1 #
face $-1 $230 $231 $53 $-1 $232 reversed single #
loop $-1 $-1 $233 $91 #
plane-surface $-1 0 0 -3.169772548413416 0 0 1 1 0 0 forward_v I I I I #
coedge $-1 $234 $235 $236 $237 forward $92 $-1 #
face $-1 $238 $239 $54 $-1 $240 reversed single #
loop $-1 $-1 $241 $94 #
plane-surface $-1 0 0 -144.24756614886928 0 0 1 1 0 0 forward_v I I I I #
coedge $-1 $242 $243 $244 $245 forward $95 $-1 #
face $-1 $-1 $246 $55 $-1 $247 forward single #
loop $-1 $-1 $248 $97 #
plane-surface $-1 0 0 -3.1278572954496884 0 0 -1 -1 0 0 forward_v I I I I #
loop $-1 $-1 $249 $72 #
coedge $-1 $156 $156 $248 $250 reversed $98 $-1 #
face $-1 $-1 $251 $56 $-1 $252 forward single #
loop $-1 $-1 $253 $100 #
plane-surface $-1 0 0 -3.1278572954496884 0 0 -1 -1 0 0 forward_v I I I I #
loop $-1 $-1 $254 $73 #
coedge $-1 $161 $161 $253 $255 reversed $101 $-1 #
face $-1 $-1 $256 $57 $-1 $257 forward single #
loop $-1 $-1 $258 $103 #
plane-surface $-1 0 0 -3.1278572954496884 0 0 -1 -1 0 0 forward_v I I I I #
loop $-1 $-1 $259 $74 #
coedge $-1 $166 $166 $258 $260 reversed $104 $-1 #
face $-1 $261 $262 $58 $-1 $263 reversed single #
loop $-1 $-1 $264 $106 #
plane-surface $-1 0 0 -144.24756614886928 0 0 1 1 0 0 forward_v I I I I #
coedge $-1 $265 $266 $267 $268 forward $107 $-1 #
face $-1 $-1 $269 $59 $-1 $270 forward single #
loop $-1 $-1 $271 $109 #
plane-surface $-1 0 0 -3.1278572954496884 0 0 -1 -1 0 0 forward_v I I I I #
loop $-1 $-1 $272 $76 #
coedge $-1 $175 $175 $271 $273 reversed $110 $-1 #
face $-1 $-1 $274 $60 $-1 $275 forward single #
loop $-1 $-1 $276 $112 #
plane-surface $-1 0 0 -3.1278572954496884 0 0 -1 -1 0 0 forward_v I I I I #
loop $-1 $-1 $277 $77 #
coedge $-1 $180 $180 $276 $278 reversed $113 $-1 #
face $-1 $-1 $279 $61 $-1 $280 forward single #
loop $-1 $-1 $281 $115 #
plane-surface $-1 0 0 -3.1278572954496884 0 0 -1 -1 0 0 forward_v I I I I #
loop $-1 $-1 $282 $78 #
coedge $-1 $185 $185 $281 $283 reversed $116 $-1 #
face $-1 $284 $285 $62 $-1 $286 reversed single #
loop $-1 $-1 $287 $118 #
plane-surface $-1 0 0 -144.24756614886928 0 0 1 1 0 0 forward_v I I I I #
coedge $-1 $288 $289 $290 $291 forward $119 $-1 #
face $-1 $-1 $292 $63 $-1 $293 forward single #
loop $-1 $-1 $294 $121 #
plane-surface $-1 0 0 -3.0599230933561188 0 0 -1 -1 0 0 forward_v I I I I #
loop $-1 $-1 $295 $80 #
coedge $-1 $194 $194 $294 $296 reversed $122 $-1 #
face $-1 $-1 $297 $64 $-1 $298 forward single #
loop $-1 $-1 $299 $124 #
plane-surface $-1 0 0 -3.0599230933561188 0 0 -1 -1 0 0 forward_v I I I I #
loop $-1 $-1 $300 $81 #
coedge $-1 $199 $199 $299 $301 reversed $125 $-1 #
face $-1 $302 $303 $65 $-1 $304 reversed single #
loop $-1 $-1 $305 $127 #
plane-surface $-1 0 0 -144.24756614886928 0 0 1 1 0 0 forward_v I I I I #
coedge $-1 $306 $307 $308 $309 forward $128 $-1 #
face $-1 $-1 $310 $66 $-1 $311 forward single #
loop $-1 $-1 $312 $130 #
plane-surface $-1 0 0 -3.0599230933561188 0 0 -1 -1 0 0 forward_v I I I I #
loop $-1 $-1 $313 $83 #
coedge $-1 $208 $208 $312 $314 reversed $131 $-1 #
face $-1 $-1 $315 $67 $-1 $316 forward single #
loop $-1 $-1 $317 $133 #
plane-surface $-1 0 0 -3.0599230933561188 0 0 -1 -1 0 0 forward_v I I I I #
loop $-1 $-1 $318 $84 #
coedge $-1 $213 $213 $317 $319 reversed $134 $-1 #
face $-1 $320 $321 $51 $-1 $322 reversed single #
loop $-1 $-1 $323 $136 #
plane-surface $-1 0 -29.002710510635112 0 0 1 0 0 0 1 forward_v I I I I #
coedge $-1 $324 $325 $326 $327 forward $137 $-1 #
coedge $-1 $328 $139 $329 $330 forward $86 $-1 #
coedge $-1 $139 $328 $331 $332 forward $86 $-1 #
coedge $-1 $333 $334 $139 $221 reversed $335 $-1 #
edge $-1 $336 -29.002710510635112 $337 29.002710510635112 $220 $338 forward 7 unknown #
face $-1 $339 $340 $52 $-1 $341 reversed single #
loop $-1 $-1 $342 $140 #
plane-surface $-1 0 -29.002710510635112 0 0 1 0 0 0 1 forward_v I I I I #
coedge $-1 $343 $344 $345 $346 forward $141 $-1 #
coedge $-1 $347 $143 $348 $349 forward $89 $-1 #
coedge $-1 $143 $347 $350 $351 forward $89 $-1 #
coedge $-1 $352 $353 $143 $229 reversed $354 $-1 #
edge $-1 $355 -29.002710510635112 $356 29.002710510635112 $228 $357 forward 7 unknown #
face $-1 $358 $359 $53 $-1 $360 reversed single #
loop $-1 $-1 $361 $144 #
plane-surface $-1 0 -29.002710510635112 0 0 1 0 0 0 1 forward_v I I I I #
coedge $-1 $362 $363 $364 $365 forward $145 $-1 #
coedge $-1 $366 $147 $367 $368 forward $92 $-1 #
coedge $-1 $147 $366 $369 $370 forward $92 $-1 #
coedge $-1 $371 $372 $147 $237 reversed $373 $-1 #
edge $-1 $374 -29.002710510635112 $375 29.002710510635112 $236 $376 forward 7 unknown #
face $-1 $377 $378 $54 $-1 $379 reversed single #
loop $-1 $-1 $380 $148 #
plane-surface $-1 0 -288.49513229773856 0 0 1 0 0 0 1 forward_v I I I I #
coedge $-1 $381 $382 $383 $384 forward $149 $-1 #
coedge $-1 $385 $151 $386 $387 forward $95 $-1 #
coedge $-1 $151 $385 $388 $389 forward $95 $-1 #
coedge $-1 $390 $391 $151 $245 reversed $392 $-1 #
edge $-1 $393 -288.49513229773856 $394 288.49513229773856 $244 $395 forward 7 unknown #
loop $-1 $396 $397 $152 #
cone-surface $-1 0 0 0 0 0 1 0.5 0 0 1 I I -0.70710678118654746 0.70710678118654746 0.5 forward I I I I #
coedge $-1 $248 $248 $156 $250 forward $153 $-1 #
coedge $-1 $249 $249 $397 $398 forward $155 $-1 #
edge $-1 $399 0 $399 6.2831853071796004 $248 $400 forward 7 unknown #
loop $-1 $401 $402 $157 #
cone-surface $-1 0 0 0 0 0 1 0.5 0 0 1 I I -0.70710678118654746 0.70710678118654746 0.5 forward I I I I #
coedge $-1 $253 $253 $161 $255 forward $158 $-1 #
coedge $-1 $254 $254 $402 $403 forward $160 $-1 #
edge $-1 $404 0 $404 6.2831853071796004 $253 $405 forward 7 unknown #
loop $-1 $406 $407 $162 #
cone-surface $-1 0 0 0 0 0 1 0.5 0 0 1 I I -0.70710678118654746 0.70710678118654746 0.5 forward I I I I #
coedge $-1 $258 $258 $166 $260 forward $163 $-1 #
coedge $-1 $259 $259 $407 $408 forward $165 $-1 #
edge $-1 $409 0 $409 6.2831853071796004 $258 $410 forward 7 unknown #
face $-1 $411 $412 $58 $-1 $413 reversed single #
loop $-1 $-1 $414 $167 #
plane-surface $-1 0 -288.49513229773856 0 0 1 0 0 0 1 forward_v I I I I #
coedge $-1 $415 $416 $417 $418 forward $168 $-1 #
coedge $-1 $419 $170 $420 $421 forward $107 $-1 #
coedge $-1 $170 $419 $422 $423 forward $107 $-1 #
coedge $-1 $424 $425 $170 $268 reversed $426 $-1 #
edge $-1 $427 -288.49513229773856 $428 288.49513229773856 $267 $429 forward 7 unknown #
loop $-1 $430 $431 $171 #
cone-surface $-1 0 0 0 0 0 1 0.5 0 0 1 I I -0.70710678118654746 0.70710678118654746 0.5 forward I I I I #
coedge $-1 $271 $271 $175 $273 forward $172 $-1 #
coedge $-1 $272 $272 $431 $432 forward $174 $-1 #
edge $-1 $433 0 $433 6.2831853071796004 $271 $434 forward 7 unknown #
loop $-1 $435 $436 $176 #
cone-surface $-1 0 0 0 0 0 1 0.5 0 0 1 I I -0.70710678118654746 0.70710678118654746 0.5 forward I I I I #
coedge $-1 $276 $276 $180 $278 forward $177 $-1 #
coedge $-1 $277 $277 $436 $437 forward $179 $-1 #
edge $-1 $438 0 $438 6.2831853071796004 $276 $439 forward 7 unknown #
loop $-1 $440 $441 $181 #
cone-surface $-1 0 0 0 0 0 1 0.5 0 0 1 I I -0.70710678118654746 0.70710678118654746 0.5 forward I I I I #
coedge $-1 $281 $281 $185 $283 forward $182 $-1 #
coedge $-1 $282 $282 $441 $442 forward $184 $-1 #
edge $-1 $443 0 $443 6.2831853071796004 $281 $444 forward 7 unknown #
face $-1 $445 $446 $62 $-1 $447 reversed single #
loop $-1 $-1 $448 $186 #
plane-surface $-1 0 -288.49513229773856 0 0 1 0 0 0 1 forward_v I I I I #
coedge $-1 $449 $450 $451 $452 forward $187 $-1 #
coedge $-1 $453 $189 $454 $455 forward $119 $-1 #
coedge $-1 $189 $453 $456 $457 forward $119 $-1 #
coedge $-1 $458 $459 $189 $291 reversed $460 $-1 #
edge $-1 $461 -288.49513229773856 $462 288.49513229773856 $290 $463 forward 7 unknown #
loop $-1 $464 $465 $190 #
cone-surface $-1 0 0 0 0 0 1 0.5 0 0 1 I I -0.70710678118654691 0.70710678118654813 0.5 forward I I I I #
coedge $-1 $294 $294 $194 $296 forward $191 $-1 #
coedge $-1 $295 $295 $465 $466 forward $193 $-1 #
edge $-1 $467 0 $467 6.2831853071796004 $294 $468 forward 7 unknown #
loop $-1 $469 $470 $195 #
cone-surface $-1 0 0 0 0 0 1 0.5 0 0 1 I I -0.70710678118654691 0.70710678118654813 0.5 forward I I I I #
coedge $-1 $299 $299 $199 $301 forward $196 $-1 #
coedge $-1 $300 $300 $470 $471 forward $198 $-1 #
edge $-1 $472 0 $472 6.2831853071796004 $299 $473 forward 7 unknown #
face $-1 $474 $475 $65 $-1 $476 reversed single #
loop $-1 $-1 $477 $200 #
plane-surface $-1 0 -288.49513229773856 0 0 1 0 0 0 1 forward_v I I I I #
coedge $-1 $478 $479 $480 $481 forward $201 $-1 #
coedge $-1 $482 $203 $483 $484 forward $128 $-1 #
coedge $-1 $203 $482 $485 $486 forward $128 $-1 #
coedge $-1 $487 $488 $203 $309 reversed $489 $-1 #
edge $-1 $490 -288.49513229773856 $491 288.49513229773856 $308 $492 forward 7 unknown #
loop $-1 $493 $494 $204 #
cone-surface $-1 0 0 0 0 0 1 0.5 0 0 1 I I -0.70710678118654691 0.70710678118654813 0.5 forward I I I I #
coedge $-1 $312 $312 $208 $314 forward $205 $-1 #
coedge $-1 $313 $313 $494 $495 forward $207 $-1 #
edge $-1 $496 0 $496 6.2831853071796004 $312 $497 forward 7 unknown #
loop $-1 $498 $499 $209 #
cone-surface $-1 0 0 0 0 0 1 0.5 0 0 1 I I -0.70710678118654691 0.70710678118654813 0.5 forward I I I I #
coedge $-1 $317 $317 $213 $319 forward $210 $-1 #
coedge $-1 $318 $318 $499 $500 forward $212 $-1 #
edge $-1 $501 0 $501 6.2831853071796004 $317 $502 forward 7 unknown #
face $-1 $503 $504 $51 $-1 $505 reversed single #
loop $-1 $-1 $506 $214 #
plane-surface $-1 -72.123783074434641 0 0 1 0 0 0 0 -1 forward_v I I I I #
coedge $-1 $507 $331 $508 $509 forward $215 $-1 #
coedge $-1 $510 $217 $507 $511 forward $137 $-1 #
coedge $-1 $217 $510 $512 $513 forward $137 $-1 #
coedge $-1 $334 $333 $217 $327 reversed $335 $-1 #
edge $-1 $514 -29.002710510635112 $515 29.002710510635112 $326 $516 forward 7 unknown #
coedge $-1 $219 $218 $517 $518 forward $86 $-1 #
coedge $-1 $519 $520 $218 $330 reversed $504 $-1 #
edge $-1 $337 -72.123783074434641 $521 72.123783074434641 $329 $522 forward 7 unknown #
coedge $-1 $323 $523 $219 $332 reversed $215 $-1 #
edge $-1 $524 -72.123783074434641 $336 72.123783074434641 $331 $525 forward 7 unknown #
coedge $-1 $326 $220 $523 $526 forward $335 $-1 #
coedge $-1 $220 $326 $519 $527 reversed $335 $-1 #
loop $-1 $-1 $333 $503 #
vertex $-1 $221 $528 #
vertex $-1 $221 $529 #
straight-curve $-1 72.123783074434641 0 13.216427283629912 0 1 0 I I #
face $-1 $530 $531 $52 $-1 $532 reversed single #
loop $-1 $-1 $533 $222 #
plane-surface $-1 -6.0471840276942803 0 0 1 0 0 0 0 -1 forward_v I I I I #
coedge $-1 $534 $350 $535 $536 forward $223 $-1 #
coedge $-1 $537 $225 $534 $538 forward $141 $-1 #
coedge $-1 $225 $537 $539 $540 forward $141 $-1 #
coedge $-1 $353 $352 $225 $346 reversed $354 $-1 #
edge $-1 $541 -29.002710510635112 $542 29.002710510635112 $345 $543 forward 7 unknown #
coedge $-1 $227 $226 $544 $545 forward $89 $-1 #
coedge $-1 $546 $547 $226 $349 reversed $531 $-1 #
edge $-1 $356 -6.0471840276942803 $548 6.0471840276942803 $348 $549 forward 7 unknown #
coedge $-1 $342 $550 $227 $351 reversed $223 $-1 #
edge $-1 $551 -6.0471840276942803 $355 6.0471840276942803 $350 $552 forward 7 unknown #
coedge $-1 $345 $228 $550 $553 forward $354 $-1 #
coedge $-1 $228 $345 $546 $554 reversed $354 $-1 #
loop $-1 $-1 $352 $530 #
vertex $-1 $229 $555 #
vertex $-1 $229 $556 #
straight-curve $-1 6.0471840276942803 0 3.169772548413416 0 1 0 I I #
face $-1 $557 $558 $53 $-1 $559 reversed single #
loop $-1 $-1 $560 $230 #
plane-surface $-1 -6.0471840276942856 0 0 1 0 0 0 0 -1 forward_v I I I I #
coedge $-1 $561 $369 $562 $563 forward $231 $-1 #
coedge $-1 $564 $233 $561 $565 forward $145 $-1 #
coedge $-1 $233 $564 $566 $567 forward $145 $-1 #
coedge $-1 $372 $371 $233 $365 reversed $373 $-1 #
edge $-1 $568 -29.002710510635112 $569 29.002710510635112 $364 $570 forward 7 unknown #
coedge $-1 $235 $234 $571 $572 forward $92 $-1 #
coedge $-1 $573 $574 $234 $368 reversed $558 $-1 #
edge $-1 $375 -6.0471840276942856 $575 6.0471840276942856 $367 $576 forward 7 unknown #
coedge $-1 $361 $577 $235 $370 reversed $231 $-1 #
edge $-1 $578 -6.0471840276942856 $374 6.0471840276942856 $369 $579 forward 7 unknown #
coedge $-1 $364 $236 $577 $580 forward $373 $-1 #
coedge $-1 $236 $364 $573 $581 reversed $373 $-1 #
loop $-1 $-1 $371 $557 #
vertex $-1 $237 $582 #
vertex $-1 $237 $583 #
straight-curve $-1 6.0471840276942856 0 3.169772548413416 0 1 0 I I #
face $-1 $584 $585 $54 $-1 $586 reversed single #
loop $-1 $-1 $587 $238 #
plane-surface $-1 -7.0295989370275507 0 0 1 0 0 0 0 -1 forward_v I I I I #
coedge $-1 $588 $388 $589 $590 forward $239 $-1 #
coedge $-1 $591 $241 $588 $592 forward $149 $-1 #
coedge $-1 $241 $591 $593 $594 forward $149 $-1 #
coedge $-1 $391 $390 $241 $384 reversed $392 $-1 #
edge $-1 $595 -288.49513229773856 $596 288.49513229773856 $383 $597 forward 7 unknown #
coedge $-1 $243 $242 $598 $599 forward $95 $-1 #
coedge $-1 $600 $601 $242 $387 reversed $585 $-1 #
edge $-1 $394 -7.0295989370275507 $602 7.0295989370275507 $386 $603 forward 7 unknown #
coedge $-1 $380 $604 $243 $389 reversed $239 $-1 #
edge $-1 $605 -7.0295989370275507 $393 7.0295989370275507 $388 $606 forward 7 unknown #
coedge $-1 $383 $244 $604 $607 forward $392 $-1 #
coedge $-1 $244 $383 $600 $608 reversed $392 $-1 #
loop $-1 $-1 $390 $584 #
vertex $-1 $245 $609 #
vertex $-1 $245 $610 #
straight-curve $-1 7.0295989370275507 0 144.24756614886928 0 1 0 I I #
loop $-1 $-1 $611 $152 #
coedge $-1 $397 $397 $249 $398 reversed $246 $-1 #
edge $-1 $612 0 $612 6.2831853071796004 $397 $613 forward 7 unknown #
vertex $-1 $250 $614 #
ellipse-curve $-1 0 0 -3.1278572954496884 0 0 -1 1 0 0 1 I I #
loop $-1 $-1 $615 $157 #
coedge $-1 $402 $402 $254 $403 reversed $251 $-1 #
edge $-1 $616 0 $616 6.2831853071796004 $402 $617 forward 7 unknown #
vertex $-1 $255 $618 #
ellipse-curve $-1 0 0 -3.1278572954496884 0 0 -1 1 0 0 1 I I #
loop $-1 $-1 $619 $162 #
coedge $-1 $407 $407 $259 $408 reversed $256 $-1 #
edge $-1 $620 0 $620 6.2831853071796004 $407 $621 forward 7 unknown #
vertex $-1 $260 $622 #
ellipse-curve $-1 0 0 -3.1278572954496884 0 0 -1 1 0 0 1 I I #
face $-1 $623 $624 $58 $-1 $625 reversed single #
loop $-1 $-1 $626 $261 #
plane-surface $-1 -7.0295989370275507 0 0 1 0 0 0 0 -1 forward_v I I I I #
coedge $-1 $627 $422 $628 $629 forward $262 $-1 #
coedge $-1 $630 $264 $627 $631 forward $168 $-1 #
coedge $-1 $264 $630 $632 $633 forward $168 $-1 #
coedge $-1 $425 $424 $264 $418 reversed $426 $-1 #
edge $-1 $634 -288.49513229773856 $635 288.49513229773856 $417 $636 forward 7 unknown #
coedge $-1 $266 $265 $637 $638 forward $107 $-1 #
coedge $-1 $639 $640 $265 $421 reversed $624 $-1 #
edge $-1 $428 -7.0295989370275507 $641 7.0295989370275507 $420 $642 forward 7 unknown #
coedge $-1 $414 $643 $266 $423 reversed $262 $-1 #
edge $-1 $644 -7.0295989370275507 $427 7.0295989370275507 $422 $645 forward 7 unknown #
coedge $-1 $417 $267 $643 $646 forward $426 $-1 #
coedge $-1 $267 $417 $639 $647 reversed $426 $-1 #
loop $-1 $-1 $424 $623 #
vertex $-1 $268 $648 #
vertex $-1 $268 $649 #
straight-curve $-1 7.0295989370275507 0 144.24756614886928 0 1 0 I I #
loop $-1 $-1 $650 $171 #
coedge $-1 $431 $431 $272 $432 reversed $269 $-1 #
edge $-1 $651 0 $651 6.2831853071796004 $431 $652 forward 7 unknown #
vertex $-1 $273 $653 #
ellipse-curve $-1 0 0 -3.1278572954496884 0 0 -1 1 0 0 1 I I #
loop $-1 $-1 $654 $176 #
coedge $-1 $436 $436 $277 $437 reversed $274 $-1 #
edge $-1 $655 0 $655 6.2831853071796004 $436 $656 forward 7 unknown #
vertex $-1 $278 $657 #
ellipse-curve $-1 0 0 -3.1278572954496884 0 0 -1 1 0 0 1 I I #
loop $-1 $-1 $658 $181 #
coedge $-1 $441 $441 $282 $442 reversed $279 $-1 #
edge $-1 $659 0 $659 6.2831853071796004 $441 $660 forward 7 unknown #
vertex $-1 $283 $661 #
ellipse-curve $-1 0 0 -3.1278572954496884 0 0 -1 1 0 0 1 I I #
face $-1 $662 $663 $62 $-1 $664 reversed single #
loop $-1 $-1 $665 $284 #
plane-surface $-1 -8.9029189946381209 0 0 1 0 0 0 0 -1 forward_v I I I I #
coedge $-1 $666 $456 $667 $668 forward $285 $-1 #
coedge $-1 $669 $287 $666 $670 forward $187 $-1 #
coedge $-1 $287 $669 $671 $672 forward $187 $-1 #
coedge $-1 $459 $458 $287 $452 reversed $460 $-1 #
edge $-1 $673 -288.49513229773856 $674 288.49513229773856 $451 $675 forward 7 unknown #
coedge $-1 $289 $288 $676 $677 forward $119 $-1 #
coedge $-1 $678 $679 $288 $455 reversed $663 $-1 #
edge $-1 $462 -8.9029189946381209 $680 8.9029189946381209 $454 $681 forward 7 unknown #
coedge $-1 $448 $682 $289 $457 reversed $285 $-1 #
edge $-1 $683 -8.9029189946381209 $461 8.9029189946381209 $456 $684 forward 7 unknown #
coedge $-1 $451 $290 $682 $685 forward $460 $-1 #
coedge $-1 $290 $451 $678 $686 reversed $460 $-1 #
loop $-1 $-1 $458 $662 #
vertex $-1 $291 $687 #
vertex $-1 $291 $688 #
straight-curve $-1 8.9029189946381209 0 144.24756614886928 0 1 0 I I #
loop $-1 $-1 $689 $190 #
coedge $-1 $465 $465 $295 $466 reversed $292 $-1 #
edge $-1 $690 0 $690 6.2831853071796004 $465 $691 forward 7 unknown #
vertex $-1 $296 $692 #
ellipse-curve $-1 0 0 -3.0599230933561188 0 0 -1 1 0 0 1 I I #
loop $-1 $-1 $693 $195 #
coedge $-1 $470 $470 $300 $471 reversed $297 $-1 #
edge $-1 $694 0 $694 6.2831853071796004 $470 $695 forward 7 unknown #
vertex $-1 $301 $696 #
ellipse-curve $-1 0 0 -3.0599230933561188 0 0 -1 1 0 0 1 I I #
face $-1 $697 $698 $65 $-1 $699 reversed single #
loop $-1 $-1 $700 $302 #
plane-surface $-1 -8.9029189946381209 0 0 1 0 0 0 0 -1 forward_v I I I I #
coedge $-1 $701 $485 $702 $703 forward $303 $-1 #
coedge $-1 $704 $305 $701 $705 forward $201 $-1 #
coedge $-1 $305 $704 $706 $707 forward $201 $-1 #
coedge $-1 $488 $487 $305 $481 reversed $489 $-1 #
edge $-1 $708 -288.49513229773856 $709 288.49513229773856 $480 $710 forward 7 unknown #
coedge $-1 $307 $306 $711 $712 forward $128 $-1 #
coedge $-1 $713 $714 $306 $484 reversed $698 $-1 #
edge $-1 $491 -8.9029189946381209 $715 8.9029189946381209 $483 $716 forward 7 unknown #
coedge $-1 $477 $717 $307 $486 reversed $303 $-1 #
edge $-1 $718 -8.9029189946381209 $490 8.9029189946381209 $485 $719 forward 7 unknown #
coedge $-1 $480 $308 $717 $720 forward $489 $-1 #
coedge $-1 $308 $480 $713 $721 reversed $489 $-1 #
loop $-1 $-1 $487 $697 #
vertex $-1 $309 $722 #
vertex $-1 $309 $723 #
straight-curve $-1 8.9029189946381209 0 144.24756614886928 0 1 0 I I #
loop $-1 $-1 $724 $204 #
coedge $-1 $494 $494 $313 $495 reversed $310 $-1 #
edge $-1 $725 0 $725 6.2831853071796004 $494 $726 forward 7 unknown #
vertex $-1 $314 $727 #
ellipse-curve $-1 0 0 -3.0599230933561188 0 0 -1 1 0 0 1 I I #
loop $-1 $-1 $728 $209 #
coedge $-1 $499 $499 $318 $500 reversed $315 $-1 #
edge $-1 $729 0 $729 6.2831853071796004 $499 $730 forward 7 unknown #
vertex $-1 $319 $731 #
ellipse-curve $-1 0 0 -3.0599230933561188 0 0 -1 1 0 0 1 I I #
face $-1 $-1 $335 $51 $-1 $732 reversed single #
loop $-1 $-1 $519 $320 #
plane-surface $-1 0 29.002710510635112 0 0 -1 0 0 0 -1 forward_v I I I I #
coedge $-1 $733 $517 $520 $734 forward $321 $-1 #
coedge $-1 $523 $323 $324 $511 reversed $215 $-1 #
coedge $-1 $517 $733 $323 $509 reversed $321 $-1 #
edge $-1 $524 -13.216427283629912 $735 13.216427283629912 $508 $736 forward 7 unknown #
coedge $-1 $325 $324 $733 $737 forward $137 $-1 #
edge $-1 $515 -72.123783074434641 $735 72.123783074434641 $507 $738 forward 7 unknown #
coedge $-1 $520 $519 $325 $513 reversed $504 $-1 #
edge $-1 $739 -72.123783074434641 $514 72.123783074434641 $512 $740 forward 7 unknown #
vertex $-1 $327 $741 #
vertex $-1 $526 $742 #
straight-curve $-1 72.123783074434641 0 -13.216427283629912 0 -1 0 I I #
coedge $-1 $506 $508 $328 $518 reversed $321 $-1 #
edge $-1 $521 -29.002710510635112 $524 29.002710510635112 $517 $743 forward 7 unknown #
coedge $-1 $512 $329 $334 $527 forward $504 $-1 #
coedge $-1 $329 $512 $506 $734 reversed $504 $-1 #
vertex $-1 $330 $744 #
straight-curve $-1 0 29.002710510635112 13.216427283629912 -1 0 0 I I #
coedge $-1 $331 $507 $333 $526 reversed $215 $-1 #
vertex $-1 $518 $745 #
straight-curve $-1 0 -29.002710510635112 13.216427283629912 1 0 0 I I #
edge $-1 $336 -13.216427283629912 $515 13.216427283629912 $333 $746 forward 7 unknown #
edge $-1 $337 -13.216427283629912 $514 13.216427283629912 $334 $747 forward 7 unknown #
point $-1 72.123783074434641 -29.002710510635112 13.216427283629912 #
point $-1 72.123783074434641 29.002710510635112 13.216427283629912 #
face $-1 $-1 $354 $52 $-1 $748 reversed single #
loop $-1 $-1 $546 $339 #
plane-surface $-1 0 29.002710510635112 0 0 -1 0 0 0 -1 forward_v I I I I #
coedge $-1 $749 $544 $547 $750 forward $340 $-1 #
coedge $-1 $550 $342 $343 $538 reversed $223 $-1 #
coedge $-1 $544 $749 $342 $536 reversed $340 $-1 #
edge $-1 $551 -3.169772548413416 $751 3.169772548413416 $535 $752 forward 7 unknown #
coedge $-1 $344 $343 $749 $753 forward $141 $-1 #
edge $-1 $542 -6.0471840276942803 $751 6.0471840276942803 $534 $754 forward 7 unknown #
coedge $-1 $547 $546 $344 $540 reversed $531 $-1 #
edge $-1 $755 -6.0471840276942803 $541 6.0471840276942803 $539 $756 forward 7 unknown #
vertex $-1 $346 $757 #
vertex $-1 $553 $758 #
straight-curve $-1 6.0471840276942803 0 -3.169772548413416 0 -1 0 I I #
coedge $-1 $533 $535 $347 $545 reversed $340 $-1 #
edge $-1 $548 -29.002710510635112 $551 29.002710510635112 $544 $759 forward 7 unknown #
coedge $-1 $539 $348 $353 $554 forward $531 $-1 #
coedge $-1 $348 $539 $533 $750 reversed $531 $-1 #
vertex $-1 $349 $760 #
straight-curve $-1 0 29.002710510635112 3.169772548413416 -1 0 0 I I #
coedge $-1 $350 $534 $352 $553 reversed $223 $-1 #
vertex $-1 $545 $761 #
straight-curve $-1 0 -29.002710510635112 3.169772548413416 1 0 0 I I #
edge $-1 $355 -3.169772548413416 $542 3.169772548413416 $352 $762 forward 7 unknown #
edge $-1 $356 -3.169772548413416 $541 3.169772548413416 $353 $763 forward 7 unknown #
point $-1 6.0471840276942803 -29.002710510635112 3.169772548413416 #
point $-1 6.0471840276942803 29.002710510635112 3.169772548413416 #
face $-1 $-1 $373 $53 $-1 $764 reversed single #
loop $-1 $-1 $573 $358 #
plane-surface $-1 0 29.002710510635112 0 0 -1 0 0 0 -1 forward_v I I I I #
coedge $-1 $765 $571 $574 $766 forward $359 $-1 #
coedge $-1 $577 $361 $362 $565 reversed $231 $-1 #
coedge $-1 $571 $765 $361 $563 reversed $359 $-1 #
edge $-1 $578 -3.169772548413416 $767 3.169772548413416 $562 $768 forward 7 unknown #
coedge $-1 $363 $362 $765 $769 forward $145 $-1 #
edge $-1 $569 -6.0471840276942856 $767 6.0471840276942856 $561 $770 forward 7 unknown #
coedge $-1 $574 $573 $363 $567 reversed $558 $-1 #
edge $-1 $771 -6.0471840276942856 $568 6.0471840276942856 $566 $772 forward 7 unknown #
vertex $-1 $365 $773 #
vertex $-1 $580 $774 #
straight-curve $-1 6.0471840276942856 0 -3.169772548413416 0 -1 0 I I #
coedge $-1 $560 $562 $366 $572 reversed $359 $-1 #
edge $-1 $575 -29.002710510635112 $578 29.002710510635112 $571 $775 forward 7 unknown #
coedge $-1 $566 $367 $372 $581 forward $558 $-1 #
coedge $-1 $367 $566 $560 $766 reversed $558 $-1 #
vertex $-1 $368 $776 #
straight-curve $-1 0 29.002710510635112 3.169772548413416 -1 0 0 I I #
coedge $-1 $369 $561 $371 $580 reversed $231 $-1 #
vertex $-1 $572 $777 #
straight-curve $-1 0 -29.002710510635112 3.169772548413416 1 0 0 I I #
edge $-1 $374 -3.169772548413416 $569 3.169772548413416 $371 $778 forward 7 unknown #
edge $-1 $375 -3.169772548413416 $568 3.169772548413416 $372 $779 forward 7 unknown #
point $-1 6.0471840276942856 -29.002710510635112 3.169772548413416 #
point $-1 6.0471840276942856 29.002710510635112 3.169772548413416 #
face $-1 $-1 $392 $54 $-1 $780 reversed single #
loop $-1 $-1 $600 $377 #
plane-surface $-1 0 288.49513229773856 0 0 -1 0 0 0 -1 forward_v I I I I #
coedge $-1 $781 $598 $601 $782 forward $378 $-1 #
coedge $-1 $604 $380 $381 $592 reversed $239 $-1 #
coedge $-1 $598 $781 $380 $590 reversed $378 $-1 #
edge $-1 $605 -144.24756614886928 $783 144.24756614886928 $589 $784 forward 7 unknown #
coedge $-1 $382 $381 $781 $785 forward $149 $-1 #
edge $-1 $596 -7.0295989370275507 $783 7.0295989370275507 $588 $786 forward 7 unknown #
coedge $-1 $601 $600 $382 $594 reversed $585 $-1 #
edge $-1 $787 -7.0295989370275507 $595 7.0295989370275507 $593 $788 forward 7 unknown #
vertex $-1 $384 $789 #
vertex $-1 $607 $790 #
straight-curve $-1 7.0295989370275507 0 -144.24756614886928 0 -1 0 I I #
coedge $-1 $587 $589 $385 $599 reversed $378 $-1 #
edge $-1 $602 -288.49513229773856 $605 288.49513229773856 $598 $791 forward 7 unknown #
coedge $-1 $593 $386 $391 $608 forward $585 $-1 #
coedge $-1 $386 $593 $587 $782 reversed $585 $-1 #
vertex $-1 $387 $792 #
straight-curve $-1 0 288.49513229773856 144.24756614886928 -1 0 0 I I #
coedge $-1 $388 $588 $390 $607 reversed $239 $-1 #
vertex $-1 $599 $793 #
straight-curve $-1 0 -288.49513229773856 144.24756614886928 1 0 0 I I #
edge $-1 $393 -144.24756614886928 $596 144.24756614886928 $390 $794 forward 7 unknown #
edge $-1 $394 -144.24756614886928 $595 144.24756614886928 $391 $795 forward 7 unknown #
point $-1 7.0295989370275507 -288.49513229773856 144.24756614886928 #
point $-1 7.0295989370275507 288.49513229773856 144.24756614886928 #
coedge $-1 $611 $611 $-1 $796 reversed $396 $-1 #
vertex $-1 $398 $797 #
ellipse-curve $-1 0 0 -0.5 0 0 -1 1 0 0 1 I I #
point $-1 1 0 -3.1278572954496884 #
coedge $-1 $615 $615 $-1 $798 reversed $401 $-1 #
vertex $-1 $403 $799 #
ellipse-curve $-1 0 0 -0.5 0 0 -1 1 0 0 1 I I #
point $-1 1 0 -3.1278572954496884 #
coedge $-1 $619 $619 $-1 $800 reversed $406 $-1 #
vertex $-1 $408 $801 #
ellipse-curve $-1 0 0 -0.5 0 0 -1 1 0 0 1 I I #
point $-1 1 0 -3.1278572954496884 #
face $-1 $-1 $426 $58 $-1 $802 reversed single #
loop $-1 $-1 $639 $411 #
plane-surface $-1 0 288.49513229773856 0 0 -1 0 0 0 -1 forward_v I I I I #
coedge $-1 $803 $637 $640 $804 forward $412 $-1 #
coedge $-1 $643 $414 $415 $631 reversed $262 $-1 #
coedge $-1 $637 $803 $414 $629 reversed $412 $-1 #
edge $-1 $644 -144.24756614886928 $805 144.24756614886928 $628 $806 forward 7 unknown #
coedge $-1 $416 $415 $803 $807 forward $168 $-1 #
edge $-1 $635 -7.0295989370275507 $805 7.0295989370275507 $627 $808 forward 7 unknown #
coedge $-1 $640 $639 $416 $633 reversed $624 $-1 #
edge $-1 $809 -7.0295989370275507 $634 7.0295989370275507 $632 $810 forward 7 unknown #
vertex $-1 $418 $811 #
vertex $-1 $646 $812 #
straight-curve $-1 7.0295989370275507 0 -144.24756614886928 0 -1 0 I I #
coedge $-1 $626 $628 $419 $638 reversed $412 $-1 #
edge $-1 $641 -288.49513229773856 $644 288.49513229773856 $637 $813 forward 7 unknown #
coedge $-1 $632 $420 $425 $647 forward $624 $-1 #
coedge $-1 $420 $632 $626 $804 reversed $624 $-1 #
vertex $-1 $421 $814 #
straight-curve $-1 0 288.49513229773856 144.24756614886928 -1 0 0 I I #
coedge $-1 $422 $627 $424 $646 reversed $262 $-1 #
vertex $-1 $638 $815 #
straight-curve $-1 0 -288.49513229773856 144.24756614886928 1 0 0 I I #
edge $-1 $427 -144.24756614886928 $635 144.24756614886928 $424 $816 forward 7 unknown #
edge $-1 $428 -144.24756614886928 $634 144.24756614886928 $425 $817 forward 7 unknown #
point $-1 7.0295989370275507 -288.49513229773856 144.24756614886928 #
point $-1 7.0295989370275507 288.49513229773856 144.24756614886928 #
coedge $-1 $650 $650 $-1 $818 reversed $430 $-1 #
vertex $-1 $432 $819 #
ellipse-curve $-1 0 0 -0.5 0 0 -1 1 0 0 1 I I #
point $-1 1 0 -3.1278572954496884 #
coedge $-1 $654 $654 $-1 $820 reversed $435 $-1 #
vertex $-1 $437 $821 #
ellipse-curve $-1 0 0 -0.5 0 0 -1 1 0 0 1 I I #
point $-1 1 0 -3.1278572954496884 #
coedge $-1 $658 $658 $-1 $822 reversed $440 $-1 #
vertex $-1 $442 $823 #
ellipse-curve $-1 0 0 -0.5 0 0 -1 1 0 0 1 I I #
point $-1 1 0 -3.1278572954496884 #
face $-1 $-1 $460 $62 $-1 $824 reversed single #
loop $-1 $-1 $678 $445 #
plane-surface $-1 0 288.49513229773856 0 0 -1 0 0 0 -1 forward_v I I I I #
coedge $-1 $825 $676 $679 $826 forward $446 $-1 #
coedge $-1 $682 $448 $449 $670 reversed $285 $-1 #
coedge $-1 $676 $825 $448 $668 reversed $446 $-1 #
edge $-1 $683 -144.24756614886928 $827 144.24756614886928 $667 $828 forward 7 unknown #
coedge $-1 $450 $449 $825 $829 forward $187 $-1 #
edge $-1 $674 -8.9029189946381209 $827 8.9029189946381209 $666 $830 forward 7 unknown #
coedge $-1 $679 $678 $450 $672 reversed $663 $-1 #
edge $-1 $831 -8.9029189946381209 $673 8.9029189946381209 $671 $832 forward 7 unknown #
vertex $-1 $452 $833 #
vertex $-1 $685 $834 #
straight-curve $-1 8.9029189946381209 0 -144.24756614886928 0 -1 0 I I #
coedge $-1 $665 $667 $453 $677 reversed $446 $-1 #
edge $-1 $680 -288.49513229773856 $683 288.49513229773856 $676 $835 forward 7 unknown #
coedge $-1 $671 $454 $459 $686 forward $663 $-1 #
coedge $-1 $454 $671 $665 $826 reversed $663 $-1 #
vertex $-1 $455 $836 #
straight-curve $-1 0 288.49513229773856 144.24756614886928 -1 0 0 I I #
coedge $-1 $456 $666 $458 $685 reversed $285 $-1 #
vertex $-1 $677 $837 #
straight-curve $-1 0 -288.49513229773856 144.24756614886928 1 0 0 I I #
edge $-1 $461 -144.24756614886928 $674 144.24756614886928 $458 $838 forward 7 unknown #
edge $-1 $462 -144.24756614886928 $673 144.24756614886928 $459 $839 forward 7 unknown #
point $-1 8.9029189946381209 -288.49513229773856 144.24756614886928 #
point $-1 8.9029189946381209 288.49513229773856 144.24756614886928 #
coedge $-1 $689 $689 $-1 $840 reversed $464 $-1 #
vertex $-1 $466 $841 #
ellipse-curve $-1 0 0 -0.50000000000000089 0 0 -1 1 0 0 1 I I #
point $-1 1 0 -3.0599230933561188 #
coedge $-1 $693 $693 $-1 $842 reversed $469 $-1 #
vertex $-1 $471 $843 #
ellipse-curve $-1 0 0 -0.50000000000000089 0 0 -1 1 0 0 1 I I #
point $-1 1 0 -3.0599230933561188 #
face $-1 $-1 $489 $65 $-1 $844 reversed single #
loop $-1 $-1 $713 $474 #
plane-surface $-1 0 288.49513229773856 0 0 -1 0 0 0 -1 forward_v I I I I #
coedge $-1 $845 $711 $714 $846 forward $475 $-1 #
coedge $-1 $717 $477 $478 $705 reversed $303 $-1 #
coedge $-1 $711 $845 $477 $703 reversed $475 $-1 #
edge $-1 $718 -144.24756614886928 $847 144.24756614886928 $702 $848 forward 7 unknown #
coedge $-1 $479 $478 $845 $849 forward $201 $-1 #
edge $-1 $709 -8.9029189946381209 $847 8.9029189946381209 $701 $850 forward 7 unknown #
coedge $-1 $714 $713 $479 $707 reversed $698 $-1 #
edge $-1 $851 -8.9029189946381209 $708 8.9029189946381209 $706 $852 forward 7 unknown #
vertex $-1 $481 $853 #
vertex $-1 $720 $854 #
straight-curve $-1 8.9029189946381209 0 -144.24756614886928 0 -1 0 I I #
coedge $-1 $700 $702 $482 $712 reversed $475 $-1 #
edge $-1 $715 -288.49513229773856 $718 288.49513229773856 $711 $855 forward 7 unknown #
coedge $-1 $706 $483 $488 $721 forward $698 $-1 #
coedge $-1 $483 $706 $700 $846 reversed $698 $-1 #
vertex $-1 $484 $856 #
straight-curve $-1 0 288.49513229773856 144.24756614886928 -1 0 0 I I #
coedge $-1 $485 $701 $487 $720 reversed $303 $-1 #
vertex $-1 $712 $857 #
straight-curve $-1 0 -288.49513229773856 144.24756614886928 1 0 0 I I #
edge $-1 $490 -144.24756614886928 $709 144.24756614886928 $487 $858 forward 7 unknown #
edge $-1 $491 -144.24756614886928 $708 144.24756614886928 $488 $859 forward 7 unknown #
point $-1 8.9029189946381209 -288.49513229773856 144.24756614886928 #
point $-1 8.9029189946381209 288.49513229773856 144.24756614886928 #
coedge $-1 $724 $724 $-1 $860 reversed $493 $-1 #
vertex $-1 $495 $861 #
ellipse-curve $-1 0 0 -0.50000000000000089 0 0 -1 1 0 0 1 I I #
point $-1 1 0 -3.0599230933561188 #
coedge $-1 $728 $728 $-1 $862 reversed $498 $-1 #
vertex $-1 $500 $863 #
ellipse-curve $-1 0 0 -0.50000000000000089 0 0 -1 1 0 0 1 I I #
point $-1 1 0 -3.0599230933561188 #
plane-surface $-1 72.123783074434641 0 0 -1 0 0 0 0 1 forward_v I I I I #
coedge $-1 $508 $506 $510 $737 reversed $321 $-1 #
edge $-1 $521 -13.216427283629912 $739 13.216427283629912 $520 $864 forward 7 unknown #
vertex $-1 $737 $865 #
straight-curve $-1 -72.123783074434641 -29.002710510635112 0 0 0 -1 I I #
edge $-1 $735 -29.002710510635112 $739 29.002710510635112 $733 $866 forward 7 unknown #
straight-curve $-1 0 -29.002710510635112 -13.216427283629912 -1 0 0 I I #
vertex $-1 $513 $867 #
straight-curve $-1 0 29.002710510635112 -13.216427283629912 1 0 0 I I #
point $-1 72.123783074434641 29.002710510635112 -13.216427283629912 #
point $-1 72.123783074434641 -29.002710510635112 -13.216427283629912 #
straight-curve $-1 -72.123783074434641 0 13.216427283629912 0 -1 0 I I #
point $-1 -72.123783074434641 29.002710510635112 13.216427283629912 #
point $-1 -72.123783074434641 -29.002710510635112 13.216427283629912 #
straight-curve $-1 72.123783074434641 -29.002710510635112 0 0 0 -1 I I #
straight-curve $-1 72.123783074434641 29.002710510635112 0 0 0 -1 I I #
plane-surface $-1 6.0471840276942803 0 0 -1 0 0 0 0 1 forward_v I I I I #
coedge $-1 $535 $533 $537 $753 reversed $340 $-1 #
edge $-1 $548 -3.169772548413416 $755 3.169772548413416 $547 $868 forward 7 unknown #
vertex $-1 $753 $869 #
straight-curve $-1 -6.0471840276942803 -29.002710510635112 0 0 0 -1 I I #
edge $-1 $751 -29.002710510635112 $755 29.002710510635112 $749 $870 forward 7 unknown #
straight-curve $-1 0 -29.002710510635112 -3.169772548413416 -1 0 0 I I #
vertex $-1 $540 $871 #
straight-curve $-1 0 29.002710510635112 -3.169772548413416 1 0 0 I I #
point $-1 6.0471840276942803 29.002710510635112 -3.169772548413416 #
point $-1 6.0471840276942803 -29.002710510635112 -3.169772548413416 #
straight-curve $-1 -6.0471840276942803 0 3.169772548413416 0 -1 0 I I #
point $-1 -6.0471840276942803 29.002710510635112 3.169772548413416 #
point $-1 -6.0471840276942803 -29.002710510635112 3.169772548413416 #
straight-curve $-1 6.0471840276942803 -29.002710510635112 0 0 0 -1 I I #
straight-curve $-1 6.0471840276942803 29.002710510635112 0 0 0 -1 I I #
plane-surface $-1 6.0471840276942856 0 0 -1 0 0 0 0 1 forward_v I I I I #
coedge $-1 $562 $560 $564 $769 reversed $359 $-1 #
edge $-1 $575 -3.169772548413416 $771 3.169772548413416 $574 $872 forward 7 unknown #
vertex $-1 $769 $873 #
straight-curve $-1 -6.0471840276942856 -29.002710510635112 0 0 0 -1 I I #
edge $-1 $767 -29.002710510635112 $771 29.002710510635112 $765 $874 forward 7 unknown #
straight-curve $-1 0 -29.002710510635112 -3.169772548413416 -1 0 0 I I #
vertex $-1 $567 $875 #
straight-curve $-1 0 29.002710510635112 -3.169772548413416 1 0 0 I I #
point $-1 6.0471840276942856 29.002710510635112 -3.169772548413416 #
point $-1 6.0471840276942856 -29.002710510635112 -3.169772548413416 #
straight-curve $-1 -6.0471840276942856 0 3.169772548413416 0 -1 0 I I #
point $-1 -6.0471840276942856 29.002710510635112 3.169772548413416 #
point $-1 -6.0471840276942856 -29.002710510635112 3.169772548413416 #
straight-curve $-1 6.0471840276942856 -29.002710510635112 0 0 0 -1 I I #
straight-curve $-1 6.0471840276942856 29.002710510635112 0 0 0 -1 I I #
plane-surface $-1 7.0295989370275507 0 0 -1 0 0 0 0 1 forward_v I I I I #
coedge $-1 $589 $587 $591 $785 reversed $378 $-1 #
edge $-1 $602 -144.24756614886928 $787 144.24756614886928 $601 $876 forward 7 unknown #
vertex $-1 $785 $877 #
straight-curve $-1 -7.0295989370275507 -288.49513229773856 0 0 0 -1 I I #
edge $-1 $783 -288.49513229773856 $787 288.49513229773856 $781 $878 forward 7 unknown #
straight-curve $-1 0 -288.49513229773856 -144.24756614886928 -1 0 0 I I #
vertex $-1 $594 $879 #
straight-curve $-1 0 288.49513229773856 -144.24756614886928 1 0 0 I I #
point $-1 7.0295989370275507 288.49513229773856 -144.24756614886928 #
point $-1 7.0295989370275507 -288.49513229773856 -144.24756614886928 #
straight-curve $-1 -7.0295989370275507 0 144.24756614886928 0 -1 0 I I #
point $-1 -7.0295989370275507 288.49513229773856 144.24756614886928 #
point $-1 -7.0295989370275507 -288.49513229773856 144.24756614886928 #
straight-curve $-1 7.0295989370275507 -288.49513229773856 0 0 0 -1 I I #
straight-curve $-1 7.0295989370275507 288.49513229773856 0 0 0 -1 I I #
edge $-1 $880 1 $880 0 $611 $-1 forward 7 unknown #
point $-1 1 0 -0.5 #
edge $-1 $881 1 $881 0 $615 $-1 forward 7 unknown #
point $-1 1 0 -0.5 #
edge $-1 $882 1 $882 0 $619 $-1 forward 7 unknown #
point $-1 1 0 -0.5 #
plane-surface $-1 7.0295989370275507 0 0 -1 0 0 0 0 1 forward_v I I I I #
coedge $-1 $628 $626 $630 $807 reversed $412 $-1 #
edge $-1 $641 -144.24756614886928 $809 144.24756614886928 $640 $883 forward 7 unknown #
vertex $-1 $807 $884 #
straight-curve $-1 -7.0295989370275507 -288.49513229773856 0 0 0 -1 I I #
edge $-1 $805 -288.49513229773856 $809 288.49513229773856 $803 $885 forward 7 unknown #
straight-curve $-1 0 -288.49513229773856 -144.24756614886928 -1 0 0 I I #
vertex $-1 $633 $886 #
straight-curve $-1 0 288.49513229773856 -144.24756614886928 1 0 0 I I #
point $-1 7.0295989370275507 288.49513229773856 -144.24756614886928 #
point $-1 7.0295989370275507 -288.49513229773856 -144.24756614886928 #
straight-curve $-1 -7.0295989370275507 0 144.24756614886928 0 -1 0 I I #
point $-1 -7.0295989370275507 288.49513229773856 144.24756614886928 #
point $-1 -7.0295989370275507 -288.49513229773856 144.24756614886928 #
straight-curve $-1 7.0295989370275507 -288.49513229773856 0 0 0 -1 I I #
straight-curve $-1 7.0295989370275507 288.49513229773856 0 0 0 -1 I I #
edge $-1 $887 1 $887 0 $650 $-1 forward 7 unknown #
point $-1 1 0 -0.5 #
edge $-1 $888 1 $888 0 $654 $-1 forward 7 unknown #
point $-1 1 0 -0.5 #
edge $-1 $889 1 $889 0 $658 $-1 forward 7 unknown #
point $-1 1 0 -0.5 #
plane-surface $-1 8.9029189946381209 0 0 -1 0 0 0 0 1 forward_v I I I I #
coedge $-1 $667 $665 $669 $829 reversed $446 $-1 #
edge $-1 $680 -144.24756614886928 $831 144.24756614886928 $679 $890 forward 7 unknown #
vertex $-1 $829 $891 #
straight-curve $-1 -8.9029189946381209 -288.49513229773856 0 0 0 -1 I I #
edge $-1 $827 -288.49513229773856 $831 288.49513229773856 $825 $892 forward 7 unknown #
straight-curve $-1 0 -288.49513229773856 -144.24756614886928 -1 0 0 I I #
vertex $-1 $672 $893 #
straight-curve $-1 0 288.49513229773856 -144.24756614886928 1 0 0 I I #
point $-1 8.9029189946381209 288.49513229773856 -144.24756614886928 #
point $-1 8.9029189946381209 -288.49513229773856 -144.24756614886928 #
straight-curve $-1 -8.9029189946381209 0 144.24756614886928 0 -1 0 I I #
point $-1 -8.9029189946381209 288.49513229773856 144.24756614886928 #
point $-1 -8.9029189946381209 -288.49513229773856 144.24756614886928 #
straight-curve $-1 8.9029189946381209 -288.49513229773856 0 0 0 -1 I I #
straight-curve $-1 8.9029189946381209 288.49513229773856 0 0 0 -1 I I #
edge $-1 $894 1 $894 0 $689 $-1 forward 7 unknown #
point $-1 1 0 -0.50000000000000089 #
edge $-1 $895 1 $895 0 $693 $-1 forward 7 unknown #
point $-1 1 0 -0.50000000000000089 #
plane-surface $-1 8.9029189946381209 0 0 -1 0 0 0 0 1 forward_v I I I I #
coedge $-1 $702 $700 $704 $849 reversed $475 $-1 #
edge $-1 $715 -144.24756614886928 $851 144.24756614886928 $714 $896 forward 7 unknown #
vertex $-1 $849 $897 #
straight-curve $-1 -8.9029189946381209 -288.49513229773856 0 0 0 -1 I I #
edge $-1 $847 -288.49513229773856 $851 288.49513229773856 $845 $898 forward 7 unknown #
straight-curve $-1 0 -288.49513229773856 -144.24756614886928 -1 0 0 I I #
vertex $-1 $707 $899 #
straight-curve $-1 0 288.49513229773856 -144.24756614886928 1 0 0 I I #
point $-1 8.9029189946381209 288.49513229773856 -144.24756614886928 #
point $-1 8.9029189946381209 -288.49513229773856 -144.24756614886928 #
straight-curve $-1 -8.9029189946381209 0 144.24756614886928 0 -1 0 I I #
point $-1 -8.9029189946381209 288.49513229773856 144.24756614886928 #
point $-1 -8.9029189946381209 -288.49513229773856 144.24756614886928 #
straight-curve $-1 8.9029189946381209 -288.49513229773856 0 0 0 -1 I I #
straight-curve $-1 8.9029189946381209 288.49513229773856 0 0 0 -1 I I #
edge $-1 $900 1 $900 0 $724 $-1 forward 7 unknown #
point $-1 1 0 -0.50000000000000089 #
edge $-1 $901 1 $901 0 $728 $-1 forward 7 unknown #
point $-1 1 0 -0.50000000000000089 #
straight-curve $-1 -72.123783074434641 29.002710510635112 0 0 0 -1 I I #
point $-1 -72.123783074434641 -29.002710510635112 -13.216427283629912 #
straight-curve $-1 -72.123783074434641 0 -13.216427283629912 0 1 0 I I #
point $-1 -72.123783074434641 29.002710510635112 -13.216427283629912 #
straight-curve $-1 -6.0471840276942803 29.002710510635112 0 0 0 -1 I I #
point $-1 -6.0471840276942803 -29.002710510635112 -3.169772548413416 #
straight-curve $-1 -6.0471840276942803 0 -3.169772548413416 0 1 0 I I #
point $-1 -6.0471840276942803 29.002710510635112 -3.169772548413416 #
straight-curve $-1 -6.0471840276942856 29.002710510635112 0 0 0 -1 I I #
point $-1 -6.0471840276942856 -29.002710510635112 -3.169772548413416 #
straight-curve $-1 -6.0471840276942856 0 -3.169772548413416 0 1 0 I I #
point $-1 -6.0471840276942856 29.002710510635112 -3.169772548413416 #
straight-curve $-1 -7.0295989370275507 288.49513229773856 0 0 0 -1 I I #
point $-1 -7.0295989370275507 -288.49513229773856 -144.24756614886928 #
straight-curve $-1 -7.0295989370275507 0 -144.24756614886928 0 1 0 I I #
point $-1 -7.0295989370275507 288.49513229773856 -144.24756614886928 #
vertex $-1 $796 $902 #
vertex $-1 $798 $903 #
vertex $-1 $800 $904 #
straight-curve $-1 -7.0295989370275507 288.49513229773856 0 0 0 -1 I I #
point $-1 -7.0295989370275507 -288.49513229773856 -144.24756614886928 #
straight-curve $-1 -7.0295989370275507 0 -144.24756614886928 0 1 0 I I #
point $-1 -7.0295989370275507 288.49513229773856 -144.24756614886928 #
vertex $-1 $818 $905 #
vertex $-1 $820 $906 #
vertex $-1 $822 $907 #
straight-curve $-1 -8.9029189946381209 288.49513229773856 0 0 0 -1 I I #
point $-1 -8.9029189946381209 -288.49513229773856 -144.24756614886928 #
straight-curve $-1 -8.9029189946381209 0 -144.24756614886928 0 1 0 I I #
point $-1 -8.9029189946381209 288.49513229773856 -144.24756614886928 #
vertex $-1 $840 $908 #
vertex $-1 $842 $909 #
straight-curve $-1 -8.9029189946381209 288.49513229773856 0 0 0 -1 I I #
point $-1 -8.9029189946381209 -288.49513229773856 -144.24756614886928 #
straight-curve $-1 -8.9029189946381209 0 -144.24756614886928 0 1 0 I I #
point $-1 -8.9029189946381209 288.49513229773856 -144.24756614886928 #
vertex $-1 $860 $910 #
vertex $-1 $862 $911 #
point $-1 0 0 0.5 #
point $-1 0 0 0.5 #
point $-1 0 0 0.5 #
point $-1 0 0 0.5 #
point $-1 0 0 0.5 #
point $-1 0 0 0.5 #
point $-1 0 0 0.50000000000000089 #
point $-1 0 0 0.50000000000000089 #
point $-1 0 0 0.50000000000000089 #
point $-1 0 0 0.50000000000000089 #
End-of-ACIS-data 