500 0 18 0           
7 Unknown 11 ACIS 5.0 NT 24 Fri Mar 26 14:39:57 1999 
-1 9.9999999999999995e-007 1e-010 
body $-1 $18 $-1 $19 #
body $-1 $20 $-1 $21 #
body $-1 $22 $-1 $23 #
body $-1 $24 $-1 $25 #
body $-1 $26 $-1 $27 #
body $-1 $28 $-1 $29 #
body $-1 $30 $-1 $31 #
body $-1 $32 $-1 $33 #
body $-1 $34 $-1 $35 #
body $-1 $36 $-1 $37 #
body $-1 $38 $-1 $39 #
body $-1 $40 $-1 $41 #
body $-1 $42 $-1 $43 #
body $-1 $44 $-1 $45 #
body $-1 $46 $-1 $47 #
body $-1 $48 $-1 $49 #
body $-1 $50 $-1 $51 #
body $-1 $52 $-1 $53 #
lump $-1 $-1 $54 $0 #
transform $-1 1 0 0 0 1 0 0 0 1 55.936765648365736 35.016685018737519 17.061430137932984 1 rotate no_reflect no_shear #
lump $-1 $-1 $55 $1 #
transform $-1 1 0 0 0 1 0 0 0 1 55.936765648365736 35.016685018737519 17.061430137932984 1 rotate no_reflect no_shear #
lump $-1 $-1 $56 $2 #
transform $-1 1 0 0 0 1 0 0 0 1 55.936765648365736 35.016685018737519 17.061430137932984 1 rotate no_reflect no_shear #
lump $-1 $-1 $57 $3 #
transform $-1 1 0 0 0 1 0 0 0 1 55.936765648365736 35.016685018737519 17.061430137932984 1 rotate no_reflect no_shear #
lump $-1 $-1 $58 $4 #
transform $-1 1 0 0 0 1 0 0 0 1 55.936765648365736 35.016685018737519 17.061430137932984 1 rotate no_reflect no_shear #
lump $-1 $-1 $59 $5 #
transform $-1 1 0 0 0 1 0 0 0 1 55.936765648365736 35.016685018737519 17.061430137932984 1 rotate no_reflect no_shear #
lump $-1 $-1 $60 $6 #
transform $-1 1 0 0 0 1 0 0 0 1 55.936765648365736 35.016685018737519 17.061430137932984 1 rotate no_reflect no_shear #
lump $-1 $-1 $61 $7 #
transform $-1 1 0 0 0 1 0 0 0 1 55.936765648365736 35.016685018737519 17.061430137932984 1 rotate no_reflect no_shear #
lump $-1 $-1 $62 $8 #
transform $-1 1 0 0 0 1 0 0 0 1 55.936765648365736 35.016685018737519 17.061430137932984 1 rotate no_reflect no_shear #
lump $-1 $-1 $63 $9 #
transform $-1 1 0 0 0 1 0 0 0 1 55.936765648365736 35.016685018737519 17.061430137932984 1 rotate no_reflect no_shear #
lump $-1 $-1 $64 $10 #
transform $-1 1 0 0 0 1 0 0 0 1 55.936765648365736 35.016685018737519 17.061430137932984 1 rotate no_reflect no_shear #
lump $-1 $-1 $65 $11 #
transform $-1 1 0 0 0 1 0 0 0 1 55.936765648365736 35.016685018737519 17.061430137932984 1 rotate no_reflect no_shear #
lump $-1 $-1 $66 $12 #
transform $-1 1 0 0 0 1 0 0 0 1 55.936765648365736 35.016685018737519 17.061430137932984 1 rotate no_reflect no_shear #
lump $-1 $-1 $67 $13 #
transform $-1 1 0 0 0 1 0 0 0 1 55.936765648365736 35.016685018737519 17.061430137932984 1 rotate no_reflect no_shear #
lump $-1 $-1 $68 $14 #
transform $-1 1 0 0 0 1 0 0 0 1 55.936765648365736 35.016685018737519 17.061430137932984 1 rotate no_reflect no_shear #
lump $-1 $-1 $69 $15 #
transform $-1 1 0 0 0 1 0 0 0 1 55.936765648365736 35.016685018737519 17.061430137932984 1 rotate no_reflect no_shear #
lump $-1 $-1 $70 $16 #
transform $-1 1 0 0 0 1 0 0 0 1 55.936765648365736 35.016685018737519 17.061430137932984 1 rotate no_reflect no_shear #
lump $-1 $-1 $71 $17 #
transform $-1 1 0 0 0 1 0 0 0 1 55.936765648365736 35.016685018737519 17.061430137932984 1 rotate no_reflect no_shear #
shell $-1 $-1 $-1 $72 $-1 $18 #
shell $-1 $-1 $-1 $73 $-1 $20 #
shell $-1 $-1 $-1 $74 $-1 $22 #
shell $-1 $-1 $-1 $75 $-1 $24 #
shell $-1 $-1 $-1 $76 $-1 $26 #
shell $-1 $-1 $-1 $77 $-1 $28 #
shell $-1 $-1 $-1 $78 $-1 $30 #
shell $-1 $-1 $-1 $79 $-1 $32 #
shell $-1 $-1 $-1 $80 $-1 $34 #
shell $-1 $-1 $-1 $81 $-1 $36 #
shell $-1 $-1 $-1 $82 $-1 $38 #
shell $-1 $-1 $-1 $83 $-1 $40 #
shell $-1 $-1 $-1 $84 $-1 $42 #
shell $-1 $-1 $-1 $85 $-1 $44 #
shell $-1 $-1 $-1 $86 $-1 $46 #
shell $-1 $-1 $-1 $87 $-1 $48 #
shell $-1 $-1 $-1 $88 $-1 $50 #
shell $-1 $-1 $-1 $89 $-1 $52 #
face $-1 $90 $91 $54 $-1 $92 forward single #
face $-1 $93 $94 $55 $-1 $95 reversed single #
face $-1 $96 $97 $56 $-1 $98 reversed single #
face $-1 $99 $100 $57 $-1 $101 reversed single #
face $-1 $102 $103 $58 $-1 $104 forward single #
face $-1 $105 $106 $59 $-1 $107 forward single #
face $-1 $108 $109 $60 $-1 $110 forward single #
face $-1 $111 $112 $61 $-1 $113 reversed single #
face $-1 $114 $115 $62 $-1 $116 forward single #
face $-1 $117 $118 $63 $-1 $119 forward single #
face $-1 $120 $121 $64 $-1 $122 forward single #
face $-1 $123 $124 $65 $-1 $125 reversed single #
face $-1 $126 $127 $66 $-1 $128 forward single #
face $-1 $129 $130 $67 $-1 $131 forward single #
face $-1 $132 $133 $68 $-1 $134 forward single #
face $-1 $135 $136 $69 $-1 $137 reversed single #
face $-1 $138 $139 $70 $-1 $140 forward single #
face $-1 $141 $142 $71 $-1 $143 forward single #
face $-1 $144 $145 $54 $-1 $146 reversed single #
loop $-1 $-1 $147 $72 #
plane-surface $-1 0 0 17.061430137932984 0 0 1 1 0 0 forward_v I I I I #
face $-1 $148 $149 $55 $-1 $150 reversed single #
loop $-1 $-1 $151 $73 #
plane-surface $-1 0 -14.571273529944463 14.630591593087861 0 -1 0 0 0 -1 forward_v I I I I #
face $-1 $152 $153 $56 $-1 $154 reversed single #
loop $-1 $-1 $155 $74 #
plane-surface $-1 0 24.793979274340991 12.199753048242737 0 0 1 1 0 0 forward_v I I I I #
face $-1 $156 $157 $57 $-1 $158 reversed single #
loop $-1 $-1 $159 $75 #
plane-surface $-1 -55.936765648365743 -11.651243505376435 6.4696225092159239 -0.54463904215088732 0 0.83867056331134215 0.83867056331134215 0 0.54463904215088732 forward_v I I I I #
face $-1 $160 $161 $58 $-1 $162 forward single #
loop $-1 $163 $164 $76 #
cone-surface $-1 -47.254328417082156 -13.403261520117251 10.95330816747714 0.54463904215088732 0 -0.83867056331134215 0.41933528165567108 0 0.27231952107544366 1 I I 0 1 0.5 forward I I I I #
face $-1 $165 $166 $59 $-1 $167 forward single #
loop $-1 $168 $169 $77 #
cone-surface $-1 -47.254328417082156 -11.651243505376435 10.95330816747714 0.54463904215088732 0 -0.83867056331134215 0.41933528165567108 0 0.27231952107544366 1 I I 0 1 0.5 forward I I I I #
face $-1 $170 $171 $60 $-1 $172 forward single #
loop $-1 $173 $174 $78 #
cone-surface $-1 -47.254328417082156 -9.8992254906356187 10.95330816747714 0.54463904215088732 0 -0.83867056331134215 0.41933528165567108 0 0.27231952107544366 1 I I 0 1 0.5 forward I I I I #
face $-1 $175 $176 $61 $-1 $177 reversed single #
loop $-1 $-1 $178 $79 #
plane-surface $-1 -116.86745857585488 -2.9200300245680282 100.29466002147477 0 1 0 -0.54463904215088732 0 0.83867056331134215 forward_v I I I I #
face $-1 $179 $180 $62 $-1 $181 forward single #
loop $-1 $182 $183 $80 #
cone-surface $-1 -47.254328417082156 -1.7520180147408126 10.95330816747714 0.54463904215088732 0 -0.83867056331134215 0.41933528165567108 0 0.27231952107544366 1 I I 0 1 0.5 forward I I I I #
face $-1 $184 $185 $63 $-1 $186 forward single #
loop $-1 $187 $188 $81 #
cone-surface $-1 -47.254328417082156 0 10.95330816747714 0.54463904215088732 0 -0.83867056331134215 0.41933528165567108 0 0.27231952107544366 1 I I 0 1 0.5 forward I I I I #
face $-1 $189 $190 $64 $-1 $191 forward single #
loop $-1 $192 $193 $82 #
cone-surface $-1 -47.254328417082156 1.7520180147408126 10.95330816747714 0.54463904215088732 0 -0.83867056331134215 0.41933528165567108 0 0.27231952107544366 1 I I 0 1 0.5 forward I I I I #
face $-1 $194 $195 $65 $-1 $196 reversed single #
loop $-1 $-1 $197 $83 #
plane-surface $-1 -116.86745857585488 8.7312134808084068 100.29466002147477 0 1 0 -0.54463904215088732 0 0.83867056331134215 forward_v I I I I #
face $-1 $198 $199 $66 $-1 $200 forward single #
loop $-1 $201 $202 $84 #
cone-surface $-1 -47.254328417082156 9.8992254906356223 10.95330816747714 0.54463904215088732 0 -0.83867056331134215 0.41933528165567108 0 0.27231952107544366 1 I I 0 1 0.5 forward I I I I #
face $-1 $203 $204 $67 $-1 $205 forward single #
loop $-1 $206 $207 $85 #
cone-surface $-1 -47.254328417082156 11.651243505376435 10.95330816747714 0.54463904215088732 0 -0.83867056331134215 0.41933528165567108 0 0.27231952107544366 1 I I 0 1 0.5 forward I I I I #
face $-1 $208 $209 $68 $-1 $210 forward single #
loop $-1 $211 $212 $86 #
cone-surface $-1 -47.254328417082156 13.403261520117248 10.95330816747714 0.54463904215088732 0 -0.83867056331134215 0.41933528165567108 0 0.27231952107544366 1 I I 0 1 0.5 forward I I I I #
face $-1 $213 $214 $69 $-1 $215 reversed single #
loop $-1 $-1 $216 $87 #
plane-surface $-1 -14.467527672169794 10.408568217263529 92.323402933908952 0.77714596973225614 0 0.62932038083071107 0.62932038083071107 0 -0.77714596973225614 forward_v I I I I #
face $-1 $217 $218 $70 $-1 $219 forward single #
loop $-1 $220 $221 $88 #
cone-surface $-1 50.558179783335596 8.6245516546859875 10.695502455276461 -0.77714596973225614 0 -0.62932038083071107 0.31466019041535553 0 -0.38857298486612807 1 I I 0 1 0.5 forward I I I I #
face $-1 $222 $223 $71 $-1 $224 forward single #
loop $-1 $225 $226 $89 #
cone-surface $-1 50.558179783335596 12.19258477984107 10.695502455276461 -0.77714596973225614 0 -0.62932038083071107 0.31466019041535553 0 -0.38857298486612807 1 I I 0 1 0.5 forward I I I I #
face $-1 $227 $228 $54 $-1 $229 reversed single #
loop $-1 $-1 $230 $90 #
plane-surface $-1 0 0 -17.061430137932984 0 0 1 1 0 0 forward_v I I I I #
coedge $-1 $231 $232 $233 $234 forward $91 $-1 #
face $-1 $235 $236 $55 $-1 $237 reversed single #
loop $-1 $-1 $238 $93 #
plane-surface $-1 0 -24.793979274340991 12.199753048242737 0 0 1 1 0 0 forward_v I I I I #
coedge $-1 $239 $240 $241 $242 reversed $94 $-1 #
face $-1 $243 $244 $56 $-1 $245 forward single #
loop $-1 $-1 $246 $96 #
plane-surface $-1 0 14.571273529944463 14.630591593087861 0 1 0 0 0 1 forward_v I I I I #
coedge $-1 $247 $248 $249 $250 reversed $97 $-1 #
face $-1 $251 $252 $57 $-1 $253 reversed single #
loop $-1 $-1 $254 $99 #
plane-surface $-1 -116.86745857585488 -8.7312134808084068 100.29466002147477 0 -1 0 0.54463904215088732 0 -0.83867056331134215 forward_v I I I I #
coedge $-1 $255 $256 $257 $258 reversed $100 $-1 #
face $-1 $-1 $259 $58 $-1 $260 forward single #
loop $-1 $261 $262 $102 #
cone-surface $-1 -46.590708008816684 -13.403261520117251 9.9314223705519957 0.54463904215088732 0 -0.83867056331134215 0.20966764082783554 0 0.13615976053772183 1 I I -0.70710678118654746 0.70710678118654746 0.25 forward I I I I #
loop $-1 $-1 $263 $76 #
coedge $-1 $164 $164 $264 $265 reversed $103 $-1 #
face $-1 $-1 $266 $59 $-1 $267 forward single #
loop $-1 $268 $269 $105 #
cone-surface $-1 -46.590708008816684 -11.651243505376435 9.9314223705519957 0.54463904215088732 0 -0.83867056331134215 0.20966764082783554 0 0.13615976053772183 1 I I -0.70710678118654746 0.70710678118654746 0.25 forward I I I I #
loop $-1 $-1 $270 $77 #
coedge $-1 $169 $169 $271 $272 reversed $106 $-1 #
face $-1 $-1 $273 $60 $-1 $274 forward single #
loop $-1 $275 $276 $108 #
cone-surface $-1 -46.590708008816684 -9.8992254906356187 9.9314223705519957 0.54463904215088732 0 -0.83867056331134215 0.20966764082783554 0 0.13615976053772183 1 I I -0.70710678118654746 0.70710678118654746 0.25 forward I I I I #
loop $-1 $-1 $277 $78 #
coedge $-1 $174 $174 $278 $279 reversed $109 $-1 #
face $-1 $280 $281 $61 $-1 $282 reversed single #
loop $-1 $-1 $283 $111 #
plane-surface $-1 -55.936765648365743 0 6.4696225092159239 -0.54463904215088732 0 0.83867056331134215 0.83867056331134215 0 0.54463904215088732 forward_v I I I I #
coedge $-1 $284 $285 $286 $287 reversed $112 $-1 #
face $-1 $-1 $288 $62 $-1 $289 forward single #
loop $-1 $290 $291 $114 #
cone-surface $-1 -46.590708008816684 -1.7520180147408126 9.9314223705519957 0.54463904215088732 0 -0.83867056331134215 0.20966764082783554 0 0.13615976053772183 1 I I -0.70710678118654746 0.70710678118654746 0.25 forward I I I I #
loop $-1 $-1 $292 $80 #
coedge $-1 $183 $183 $293 $294 reversed $115 $-1 #
face $-1 $-1 $295 $63 $-1 $296 forward single #
loop $-1 $297 $298 $117 #
cone-surface $-1 -46.590708008816684 0 9.9314223705519957 0.54463904215088732 0 -0.83867056331134215 0.20966764082783554 0 0.13615976053772183 1 I I -0.70710678118654746 0.70710678118654746 0.25 forward I I I I #
loop $-1 $-1 $299 $81 #
coedge $-1 $188 $188 $300 $301 reversed $118 $-1 #
face $-1 $-1 $302 $64 $-1 $303 forward single #
loop $-1 $304 $305 $120 #
cone-surface $-1 -46.590708008816684 1.7520180147408126 9.9314223705519957 0.54463904215088732 0 -0.83867056331134215 0.20966764082783554 0 0.13615976053772183 1 I I -0.70710678118654746 0.70710678118654746 0.25 forward I I I I #
loop $-1 $-1 $306 $82 #
coedge $-1 $193 $193 $307 $308 reversed $121 $-1 #
face $-1 $309 $310 $65 $-1 $311 forward single #
loop $-1 $-1 $312 $123 #
plane-surface $-1 -55.936765648365743 11.651243505376435 6.4696225092159239 -0.54463904215088732 0 0.83867056331134215 0.83867056331134215 0 0.54463904215088732 forward_v I I I I #
coedge $-1 $313 $314 $315 $316 reversed $124 $-1 #
face $-1 $-1 $317 $66 $-1 $318 forward single #
loop $-1 $319 $320 $126 #
cone-surface $-1 -46.590708008816684 9.8992254906356223 9.9314223705519957 0.54463904215088732 0 -0.83867056331134215 0.20966764082783554 0 0.13615976053772183 1 I I -0.70710678118654746 0.70710678118654746 0.25 forward I I I I #
loop $-1 $-1 $321 $84 #
coedge $-1 $202 $202 $322 $323 reversed $127 $-1 #
face $-1 $-1 $324 $67 $-1 $325 forward single #
loop $-1 $326 $327 $129 #
cone-surface $-1 -46.590708008816684 11.651243505376435 9.9314223705519957 0.54463904215088732 0 -0.83867056331134215 0.20966764082783554 0 0.13615976053772183 1 I I -0.70710678118654746 0.70710678118654746 0.25 forward I I I I #
loop $-1 $-1 $328 $85 #
coedge $-1 $207 $207 $329 $330 reversed $130 $-1 #
face $-1 $-1 $331 $68 $-1 $332 forward single #
loop $-1 $333 $334 $132 #
cone-surface $-1 -46.590708008816684 13.403261520117248 9.9314223705519957 0.54463904215088732 0 -0.83867056331134215 0.20966764082783554 0 0.13615976053772183 1 I I -0.70710678118654746 0.70710678118654746 0.25 forward I I I I #
loop $-1 $-1 $335 $86 #
coedge $-1 $212 $212 $336 $337 reversed $133 $-1 #
face $-1 $338 $339 $69 $-1 $340 forward single #
loop $-1 $-1 $341 $135 #
plane-surface $-1 72.474536294800487 6.2458629045825944 162.72769625444448 0 1 0 0.77714596973225614 0 0.62932038083071107 forward_v I I I I #
coedge $-1 $342 $343 $344 $345 reversed $136 $-1 #
face $-1 $-1 $346 $70 $-1 $347 forward single #
loop $-1 $348 $349 $138 #
cone-surface $-1 49.714482966987276 8.6245516546859875 10.012290262909421 -0.77714596973225614 0 -0.62932038083071107 0.15733009520767777 0 -0.19428649243306403 1 I I -0.70710678118654746 0.70710678118654746 0.25 forward I I I I #
loop $-1 $-1 $350 $88 #
coedge $-1 $221 $221 $351 $352 reversed $139 $-1 #
face $-1 $-1 $353 $71 $-1 $354 forward single #
loop $-1 $355 $356 $141 #
cone-surface $-1 49.714482966987276 12.19258477984107 10.012290262909421 -0.77714596973225614 0 -0.62932038083071107 0.15733009520767777 0 -0.19428649243306403 1 I I -0.70710678118654746 0.70710678118654746 0.25 forward I I I I #
loop $-1 $-1 $357 $89 #
coedge $-1 $226 $226 $358 $359 reversed $142 $-1 #
face $-1 $360 $361 $54 $-1 $362 reversed single #
loop $-1 $-1 $363 $144 #
plane-surface $-1 0 -35.016685018737519 0 0 1 0 0 0 1 forward_v I I I I #
coedge $-1 $364 $365 $366 $367 forward $145 $-1 #
coedge $-1 $368 $147 $369 $370 forward $91 $-1 #
coedge $-1 $147 $368 $371 $372 forward $91 $-1 #
coedge $-1 $373 $374 $147 $234 reversed $375 $-1 #
edge $-1 $376 -35.016685018737519 $377 35.016685018737519 $233 $378 forward 7 unknown #
face $-1 $379 $380 $55 $-1 $381 reversed single #
loop $-1 $-1 $382 $148 #
plane-surface $-1 -55.936765648365736 0 0 1 0 0 0 0 -1 forward_v I I I I #
coedge $-1 $383 $384 $385 $386 reversed $149 $-1 #
coedge $-1 $387 $151 $388 $389 reversed $94 $-1 #
coedge $-1 $151 $387 $382 $390 reversed $94 $-1 #
coedge $-1 $391 $392 $151 $242 forward $393 $-1 #
edge $-1 $394 -55.936765648365736 $395 55.936765648365736 $241 $396 forward 7 unknown #
face $-1 $397 $398 $56 $-1 $399 reversed single #
loop $-1 $-1 $400 $152 #
plane-surface $-1 0 0 17.061430137932984 0 0 1 1 0 0 forward_v I I I I #
coedge $-1 $401 $402 $400 $403 reversed $153 $-1 #
coedge $-1 $404 $155 $405 $406 forward $97 $-1 #
coedge $-1 $155 $404 $407 $408 reversed $97 $-1 #
coedge $-1 $409 $410 $155 $250 forward $398 $-1 #
edge $-1 $411 2.1742838927739676 $412 22.619695381567023 $249 $413 forward 7 unknown #
face $-1 $414 $415 $57 $-1 $416 forward single #
loop $-1 $-1 $417 $156 #
plane-surface $-1 -55.936765648365736 0 0 1 0 0 0 0 -1 forward_v I I I I #
coedge $-1 $418 $419 $420 $421 reversed $157 $-1 #
coedge $-1 $422 $159 $423 $424 reversed $100 $-1 #
coedge $-1 $159 $422 $418 $425 forward $100 $-1 #
coedge $-1 $420 $426 $159 $258 forward $415 $-1 #
edge $-1 $427 -8.7456517772562457 $428 -2.9055917281201893 $257 $429 forward 7 unknown #
loop $-1 $-1 $264 $160 #
plane-surface $-1 -55.936765648365743 -11.651243505376435 6.4696225092159239 -0.54463904215088732 0 0.83867056331134215 0.83867056331134215 0 0.54463904215088732 forward_v I I I I #
loop $-1 $-1 $430 $102 #
coedge $-1 $262 $262 $263 $431 reversed $161 $-1 #
coedge $-1 $263 $263 $262 $431 forward $163 $-1 #
coedge $-1 $264 $264 $164 $265 forward $259 $-1 #
edge $-1 $432 0 $432 6.2831853071796004 $264 $433 forward 7 unknown #
loop $-1 $-1 $271 $165 #
plane-surface $-1 -55.936765648365743 -11.651243505376435 6.4696225092159239 -0.54463904215088732 0 0.83867056331134215 0.83867056331134215 0 0.54463904215088732 forward_v I I I I #
loop $-1 $-1 $434 $105 #
coedge $-1 $269 $269 $270 $435 reversed $166 $-1 #
coedge $-1 $270 $270 $269 $435 forward $168 $-1 #
coedge $-1 $271 $271 $169 $272 forward $266 $-1 #
edge $-1 $436 0 $436 6.2831853071796004 $271 $437 forward 7 unknown #
loop $-1 $-1 $278 $170 #
plane-surface $-1 -55.936765648365743 -11.651243505376435 6.4696225092159239 -0.54463904215088732 0 0.83867056331134215 0.83867056331134215 0 0.54463904215088732 forward_v I I I I #
loop $-1 $-1 $438 $108 #
coedge $-1 $276 $276 $277 $439 reversed $171 $-1 #
coedge $-1 $277 $277 $276 $439 forward $173 $-1 #
coedge $-1 $278 $278 $174 $279 forward $273 $-1 #
edge $-1 $440 0 $440 6.2831853071796004 $278 $441 forward 7 unknown #
face $-1 $442 $443 $61 $-1 $444 forward single #
loop $-1 $-1 $445 $175 #
plane-surface $-1 -116.86745857585488 2.9200300245680282 100.29466002147477 0 -1 0 0.54463904215088732 0 -0.83867056331134215 forward_v I I I I #
coedge $-1 $446 $447 $448 $449 reversed $176 $-1 #
coedge $-1 $285 $178 $450 $451 reversed $112 $-1 #
coedge $-1 $178 $284 $446 $452 reversed $112 $-1 #
coedge $-1 $448 $453 $178 $287 forward $443 $-1 #
edge $-1 $454 2.4969636395617059 $455 18.806916806673321 $286 $456 forward 7 unknown #
loop $-1 $-1 $293 $179 #
plane-surface $-1 -55.936765648365743 0 6.4696225092159239 -0.54463904215088732 0 0.83867056331134215 0.83867056331134215 0 0.54463904215088732 forward_v I I I I #
loop $-1 $-1 $457 $114 #
coedge $-1 $291 $291 $292 $458 reversed $180 $-1 #
coedge $-1 $292 $292 $291 $458 forward $182 $-1 #
coedge $-1 $293 $293 $183 $294 forward $288 $-1 #
edge $-1 $459 0 $459 6.2831853071796004 $293 $460 forward 7 unknown #
loop $-1 $-1 $300 $184 #
plane-surface $-1 -55.936765648365743 0 6.4696225092159239 -0.54463904215088732 0 0.83867056331134215 0.83867056331134215 0 0.54463904215088732 forward_v I I I I #
loop $-1 $-1 $461 $117 #
coedge $-1 $298 $298 $299 $462 reversed $185 $-1 #
coedge $-1 $299 $299 $298 $462 forward $187 $-1 #
coedge $-1 $300 $300 $188 $301 forward $295 $-1 #
edge $-1 $463 0 $463 6.2831853071796004 $300 $464 forward 7 unknown #
loop $-1 $-1 $307 $189 #
plane-surface $-1 -55.936765648365743 0 6.4696225092159239 -0.54463904215088732 0 0.83867056331134215 0.83867056331134215 0 0.54463904215088732 forward_v I I I I #
loop $-1 $-1 $465 $120 #
coedge $-1 $305 $305 $306 $466 reversed $190 $-1 #
coedge $-1 $306 $306 $305 $466 forward $192 $-1 #
coedge $-1 $307 $307 $193 $308 forward $302 $-1 #
edge $-1 $467 0 $467 6.2831853071796004 $307 $468 forward 7 unknown #
face $-1 $469 $470 $65 $-1 $471 forward single #
loop $-1 $-1 $315 $194 #
plane-surface $-1 0 0 17.061430137932984 0 0 1 1 0 0 forward_v I I I I #
coedge $-1 $472 $473 $474 $475 reversed $195 $-1 #
coedge $-1 $314 $197 $476 $477 reversed $124 $-1 #
coedge $-1 $197 $313 $472 $478 reversed $124 $-1 #
coedge $-1 $474 $479 $197 $316 forward $310 $-1 #
edge $-1 $480 2.4969636395617059 $481 18.806916806673321 $315 $482 forward 7 unknown #
loop $-1 $-1 $322 $198 #
plane-surface $-1 -55.936765648365743 11.651243505376435 6.4696225092159239 -0.54463904215088732 0 0.83867056331134215 0.83867056331134215 0 0.54463904215088732 forward_v I I I I #
loop $-1 $-1 $483 $126 #
coedge $-1 $320 $320 $321 $484 reversed $199 $-1 #
coedge $-1 $321 $321 $320 $484 forward $201 $-1 #
coedge $-1 $322 $322 $202 $323 forward $317 $-1 #
edge $-1 $485 0 $485 6.2831853071796004 $322 $486 forward 7 unknown #
loop $-1 $-1 $329 $203 #
plane-surface $-1 -55.936765648365743 11.651243505376435 6.4696225092159239 -0.54463904215088732 0 0.83867056331134215 0.83867056331134215 0 0.54463904215088732 forward_v I I I I #
loop $-1 $-1 $487 $129 #
coedge $-1 $327 $327 $328 $488 reversed $204 $-1 #
coedge $-1 $328 $328 $327 $488 forward $206 $-1 #
coedge $-1 $329 $329 $207 $330 forward $324 $-1 #
edge $-1 $489 0 $489 6.2831853071796004 $329 $490 forward 7 unknown #
loop $-1 $-1 $336 $208 #
plane-surface $-1 -55.936765648365743 11.651243505376435 6.4696225092159239 -0.54463904215088732 0 0.83867056331134215 0.83867056331134215 0 0.54463904215088732 forward_v I I I I #
loop $-1 $-1 $491 $132 #
coedge $-1 $334 $334 $335 $492 reversed $209 $-1 #
coedge $-1 $335 $335 $334 $492 forward $211 $-1 #
coedge $-1 $336 $336 $212 $337 forward $331 $-1 #
edge $-1 $493 0 $493 6.2831853071796004 $336 $494 forward 7 unknown #
face $-1 $495 $496 $69 $-1 $497 reversed single #
loop $-1 $-1 $344 $213 #
plane-surface $-1 0 0 17.061430137932984 0 0 1 1 0 0 forward_v I I I I #
coedge $-1 $498 $499 $500 $501 reversed $214 $-1 #
coedge $-1 $502 $216 $503 $504 reversed $136 $-1 #
coedge $-1 $216 $502 $498 $505 forward $136 $-1 #
coedge $-1 $500 $506 $216 $345 forward $339 $-1 #
edge $-1 $507 -9.3669894213126987 $508 -1.04157879595083 $344 $509 forward 7 unknown #
loop $-1 $-1 $351 $217 #
plane-surface $-1 -14.467527672169794 10.408568217263529 92.323402933908952 0.77714596973225614 0 0.62932038083071107 0.62932038083071107 0 -0.77714596973225614 forward_v I I I I #
loop $-1 $-1 $510 $138 #
coedge $-1 $349 $349 $350 $511 reversed $218 $-1 #
coedge $-1 $350 $350 $349 $511 forward $220 $-1 #
coedge $-1 $351 $351 $221 $352 forward $346 $-1 #
edge $-1 $512 0 $512 6.2831853071796004 $351 $513 forward 7 unknown #
loop $-1 $-1 $358 $222 #
plane-surface $-1 -14.467527672169794 10.408568217263529 92.323402933908952 0.77714596973225614 0 0.62932038083071107 0.62932038083071107 0 -0.77714596973225614 forward_v I I I I #
loop $-1 $-1 $514 $141 #
coedge $-1 $356 $356 $357 $515 reversed $223 $-1 #
coedge $-1 $357 $357 $356 $515 forward $225 $-1 #
coedge $-1 $358 $358 $226 $359 forward $353 $-1 #
edge $-1 $516 0 $516 6.2831853071796004 $358 $517 forward 7 unknown #
face $-1 $518 $519 $54 $-1 $520 reversed single #
loop $-1 $-1 $521 $227 #
plane-surface $-1 -55.936765648365736 0 0 1 0 0 0 0 -1 forward_v I I I I #
coedge $-1 $522 $371 $523 $524 forward $228 $-1 #
coedge $-1 $525 $230 $522 $526 forward $145 $-1 #
coedge $-1 $230 $525 $527 $528 forward $145 $-1 #
coedge $-1 $374 $373 $230 $367 reversed $375 $-1 #
edge $-1 $529 -35.016685018737519 $530 35.016685018737519 $366 $531 forward 7 unknown #
coedge $-1 $232 $231 $532 $533 forward $91 $-1 #
coedge $-1 $534 $535 $231 $370 reversed $519 $-1 #
edge $-1 $377 -55.936765648365736 $536 55.936765648365736 $369 $537 forward 7 unknown #
coedge $-1 $363 $538 $232 $372 reversed $228 $-1 #
edge $-1 $539 -55.936765648365736 $376 55.936765648365736 $371 $540 forward 7 unknown #
coedge $-1 $366 $233 $538 $541 forward $375 $-1 #
coedge $-1 $233 $366 $534 $542 reversed $375 $-1 #
loop $-1 $-1 $373 $518 #
vertex $-1 $234 $543 #
vertex $-1 $234 $544 #
straight-curve $-1 55.936765648365736 0 17.061430137932984 0 1 0 I I #
face $-1 $545 $393 $55 $-1 $546 forward single #
loop $-1 $-1 $547 $235 #
plane-surface $-1 0 -35.016685018737519 0 0 1 0 0 0 1 forward_v I I I I #
coedge $-1 $548 $549 $240 $390 forward $236 $-1 #
coedge $-1 $550 $238 $547 $551 reversed $149 $-1 #
coedge $-1 $238 $550 $387 $552 forward $149 $-1 #
coedge $-1 $388 $553 $238 $386 forward $554 $-1 #
edge $-1 $555 -22.619695381567023 $556 -2.1742838927739676 $385 $557 forward 7 unknown #
coedge $-1 $240 $239 $384 $552 reversed $94 $-1 #
coedge $-1 $558 $385 $239 $389 forward $554 $-1 #
edge $-1 $556 4.884457251698807 $394 9.7461343413890535 $388 $559 forward 7 unknown #
edge $-1 $395 -9.7461343413890535 $560 -4.884457251698807 $382 $561 forward 7 unknown #
coedge $-1 $562 $241 $549 $563 forward $393 $-1 #
coedge $-1 $241 $562 $558 $564 forward $393 $-1 #
loop $-1 $-1 $241 $379 #
vertex $-1 $389 $565 #
vertex $-1 $563 $566 #
straight-curve $-1 0 -14.571273529944463 17.061430137932984 -1 0 0 I I #
face $-1 $567 $568 $56 $-1 $569 reversed single #
loop $-1 $-1 $410 $243 #
plane-surface $-1 55.936765648365736 0 0 -1 0 0 0 0 1 forward_v I I I I #
coedge $-1 $570 $571 $246 $403 forward $244 $-1 #
coedge $-1 $405 $246 $572 $573 reversed $153 $-1 #
coedge $-1 $246 $405 $410 $574 reversed $153 $-1 #
edge $-1 $575 -55.936765648365736 $576 55.936765648365736 $400 $577 forward 7 unknown #
coedge $-1 $248 $247 $578 $579 reversed $97 $-1 #
coedge $-1 $402 $401 $247 $406 reversed $153 $-1 #
edge $-1 $411 -55.936765648365736 $580 55.936765648365736 $405 $581 forward 7 unknown #
coedge $-1 $582 $583 $248 $408 forward $584 $-1 #
edge $-1 $412 -55.936765648365736 $585 55.936765648365736 $407 $586 forward 7 unknown #
coedge $-1 $587 $249 $583 $588 reversed $398 $-1 #
coedge $-1 $249 $587 $402 $574 forward $398 $-1 #
vertex $-1 $250 $589 #
vertex $-1 $408 $590 #
straight-curve $-1 55.936765648365736 12.396989637170496 12.199753048242737 0 1 0 I I #
face $-1 $-1 $591 $57 $-1 $592 forward single #
loop $-1 $-1 $420 $251 #
plane-surface $-1 0 0 17.061430137932984 0 0 1 1 0 0 forward_v I I I I #
coedge $-1 $593 $594 $419 $595 forward $252 $-1 #
coedge $-1 $419 $254 $256 $425 reversed $157 $-1 #
coedge $-1 $254 $418 $417 $595 reversed $157 $-1 #
coedge $-1 $596 $257 $254 $421 forward $415 $-1 #
edge $-1 $428 -18.806916806673321 $597 -2.4969636395617059 $420 $598 forward 7 unknown #
coedge $-1 $256 $255 $593 $599 reversed $100 $-1 #
coedge $-1 $600 $601 $255 $424 forward $591 $-1 #
edge $-1 $602 -25.678650570496213 $427 -6.2312609987021874 $423 $603 forward 7 unknown #
edge $-1 $604 8.3777959833898778e-015 $428 19.447389571794034 $418 $605 forward 7 unknown #
coedge $-1 $257 $596 $600 $606 forward $415 $-1 #
vertex $-1 $424 $607 #
vertex $-1 $258 $608 #
straight-curve $-1 -39.62681248125412 -5.8256217526882175 17.061430137932984 0 1 0 I I #
coedge $-1 $430 $430 $-1 $609 reversed $261 $-1 #
edge $-1 $610 0 $610 6.2831853071796004 $262 $611 forward 7 unknown #
vertex $-1 $265 $612 #
ellipse-curve $-1 -47.781789064809914 -13.403261520117251 11.765526323574463 -0.54463904215088732 0 0.83867056331134215 0.41933528165567108 0 0.27231952107544366 1 I I #
coedge $-1 $434 $434 $-1 $613 reversed $268 $-1 #
edge $-1 $614 0 $614 6.2831853071796004 $269 $615 forward 7 unknown #
vertex $-1 $272 $616 #
ellipse-curve $-1 -47.781789064809914 -11.651243505376435 11.765526323574463 -0.54463904215088732 0 0.83867056331134215 0.41933528165567108 0 0.27231952107544366 1 I I #
coedge $-1 $438 $438 $-1 $617 reversed $275 $-1 #
edge $-1 $618 0 $618 6.2831853071796004 $276 $619 forward 7 unknown #
vertex $-1 $279 $620 #
ellipse-curve $-1 -47.781789064809914 -9.8992254906356187 11.765526323574463 -0.54463904215088732 0 0.83867056331134215 0.41933528165567108 0 0.27231952107544366 1 I I #
face $-1 $-1 $621 $61 $-1 $622 reversed single #
loop $-1 $-1 $286 $280 #
plane-surface $-1 0 0 17.061430137932984 0 0 1 1 0 0 forward_v I I I I #
coedge $-1 $623 $624 $625 $626 reversed $281 $-1 #
coedge $-1 $627 $283 $285 $452 forward $176 $-1 #
coedge $-1 $283 $627 $623 $628 forward $176 $-1 #
coedge $-1 $625 $286 $283 $449 forward $443 $-1 #
edge $-1 $455 -2.9200300245680282 $629 2.9200300245680282 $448 $630 forward 7 unknown #
coedge $-1 $631 $632 $284 $451 forward $621 $-1 #
edge $-1 $633 -43.677707501521454 $454 -33.085899872804404 $450 $634 forward 7 unknown #
edge $-1 $455 -19.447389571794034 $633 -8.3777959833898778e-015 $285 $635 forward 7 unknown #
coedge $-1 $286 $625 $631 $636 forward $443 $-1 #
vertex $-1 $451 $637 #
vertex $-1 $287 $638 #
straight-curve $-1 -58.433729287927441 -2.9200300245680282 17.061430137932987 1 0 0 I I #
coedge $-1 $457 $457 $-1 $639 reversed $290 $-1 #
edge $-1 $640 0 $640 6.2831853071796004 $291 $641 forward 7 unknown #
vertex $-1 $294 $642 #
ellipse-curve $-1 -47.781789064809914 -1.7520180147408126 11.765526323574463 -0.54463904215088732 0 0.83867056331134215 0.41933528165567108 0 0.27231952107544366 1 I I #
coedge $-1 $461 $461 $-1 $643 reversed $297 $-1 #
edge $-1 $644 0 $644 6.2831853071796004 $298 $645 forward 7 unknown #
vertex $-1 $301 $646 #
ellipse-curve $-1 -47.781789064809914 0 11.765526323574463 -0.54463904215088732 0 0.83867056331134215 0.41933528165567108 0 0.27231952107544366 1 I I #
coedge $-1 $465 $465 $-1 $647 reversed $304 $-1 #
edge $-1 $648 0 $648 6.2831853071796004 $305 $649 forward 7 unknown #
vertex $-1 $308 $650 #
ellipse-curve $-1 -47.781789064809914 1.7520180147408126 11.765526323574463 -0.54463904215088732 0 0.83867056331134215 0.41933528165567108 0 0.27231952107544366 1 I I #
face $-1 $-1 $651 $65 $-1 $652 reversed single #
loop $-1 $-1 $653 $309 #
plane-surface $-1 0 14.571273529944463 14.630591593087861 0 1 0 0 0 1 forward_v I I I I #
coedge $-1 $654 $312 $314 $478 forward $195 $-1 #
coedge $-1 $312 $654 $653 $655 forward $195 $-1 #
coedge $-1 $656 $315 $312 $475 forward $310 $-1 #
edge $-1 $481 2.9055917281201893 $657 8.7456517772562457 $474 $658 forward 7 unknown #
coedge $-1 $659 $660 $313 $477 forward $651 $-1 #
edge $-1 $661 -43.677707501521454 $480 -33.085899872804404 $476 $662 forward 7 unknown #
edge $-1 $481 -19.447389571794034 $661 -8.3777959833898778e-015 $314 $663 forward 7 unknown #
coedge $-1 $315 $656 $659 $664 forward $310 $-1 #
vertex $-1 $477 $665 #
vertex $-1 $316 $666 #
straight-curve $-1 -58.433729287927441 8.7312134808084068 17.061430137932987 1 0 0 I I #
coedge $-1 $483 $483 $-1 $667 reversed $319 $-1 #
edge $-1 $668 0 $668 6.2831853071796004 $320 $669 forward 7 unknown #
vertex $-1 $323 $670 #
ellipse-curve $-1 -47.781789064809914 9.8992254906356223 11.765526323574463 -0.54463904215088732 0 0.83867056331134215 0.41933528165567108 0 0.27231952107544366 1 I I #
coedge $-1 $487 $487 $-1 $671 reversed $326 $-1 #
edge $-1 $672 0 $672 6.2831853071796004 $327 $673 forward 7 unknown #
vertex $-1 $330 $674 #
ellipse-curve $-1 -47.781789064809914 11.651243505376435 11.765526323574463 -0.54463904215088732 0 0.83867056331134215 0.41933528165567108 0 0.27231952107544366 1 I I #
coedge $-1 $491 $491 $-1 $675 reversed $333 $-1 #
edge $-1 $676 0 $676 6.2831853071796004 $334 $677 forward 7 unknown #
vertex $-1 $337 $678 #
ellipse-curve $-1 -47.781789064809914 13.403261520117248 11.765526323574463 -0.54463904215088732 0 0.83867056331134215 0.41933528165567108 0 0.27231952107544366 1 I I #
face $-1 $-1 $679 $69 $-1 $680 forward single #
loop $-1 $-1 $681 $338 #
plane-surface $-1 55.936765648365736 0 0 -1 0 0 0 0 1 forward_v I I I I #
coedge $-1 $499 $341 $343 $505 reversed $214 $-1 #
coedge $-1 $341 $498 $681 $682 reversed $214 $-1 #
coedge $-1 $683 $344 $341 $501 forward $339 $-1 #
edge $-1 $508 10.241146418735738 $684 19.699497500965492 $500 $685 forward 7 unknown #
coedge $-1 $343 $342 $686 $687 reversed $136 $-1 #
coedge $-1 $688 $689 $342 $504 forward $679 $-1 #
edge $-1 $690 -77.131848679223282 $507 -62.102379794480335 $503 $691 forward 7 unknown #
edge $-1 $692 -111.87353129673147 $508 -96.844062411988531 $498 $693 forward 7 unknown #
coedge $-1 $344 $683 $688 $694 forward $339 $-1 #
vertex $-1 $504 $695 #
vertex $-1 $345 $696 #
straight-curve $-1 46.478414566135974 5.2042841086317644 17.061430137932987 0 -1 0 I I #
coedge $-1 $510 $510 $-1 $697 reversed $348 $-1 #
edge $-1 $698 0 $698 6.2831853071796004 $349 $699 forward 7 unknown #
vertex $-1 $352 $700 #
ellipse-curve $-1 51.207590107250851 8.6245516546859875 11.22138455243582 0.77714596973225614 0 0.62932038083071107 0.31466019041535553 0 -0.38857298486612807 1 I I #
coedge $-1 $514 $514 $-1 $701 reversed $355 $-1 #
edge $-1 $702 0 $702 6.2831853071796004 $356 $703 forward 7 unknown #
vertex $-1 $359 $704 #
ellipse-curve $-1 51.207590107250851 12.19258477984107 11.22138455243582 0.77714596973225614 0 0.62932038083071107 0.31466019041535553 0 -0.38857298486612807 1 I I #
face $-1 $-1 $375 $54 $-1 $705 reversed single #
loop $-1 $-1 $534 $360 #
plane-surface $-1 0 35.016685018737519 0 0 -1 0 0 0 -1 forward_v I I I I #
coedge $-1 $706 $532 $535 $707 forward $361 $-1 #
coedge $-1 $538 $363 $364 $526 reversed $228 $-1 #
coedge $-1 $532 $706 $363 $524 reversed $361 $-1 #
edge $-1 $539 -17.061430137932984 $708 17.061430137932984 $523 $709 forward 7 unknown #
coedge $-1 $365 $364 $706 $710 forward $145 $-1 #
edge $-1 $530 -55.936765648365736 $708 55.936765648365736 $522 $711 forward 7 unknown #
coedge $-1 $535 $534 $365 $528 reversed $519 $-1 #
edge $-1 $712 -55.936765648365736 $529 55.936765648365736 $527 $713 forward 7 unknown #
vertex $-1 $367 $714 #
vertex $-1 $541 $715 #
straight-curve $-1 55.936765648365736 0 -17.061430137932984 0 -1 0 I I #
coedge $-1 $521 $523 $368 $533 reversed $361 $-1 #
edge $-1 $536 -35.016685018737519 $539 35.016685018737519 $532 $716 forward 7 unknown #
coedge $-1 $527 $369 $374 $542 forward $519 $-1 #
coedge $-1 $369 $527 $521 $707 reversed $519 $-1 #
vertex $-1 $370 $717 #
straight-curve $-1 0 35.016685018737519 17.061430137932984 -1 0 0 I I #
coedge $-1 $371 $522 $373 $541 reversed $228 $-1 #
vertex $-1 $533 $718 #
straight-curve $-1 0 -35.016685018737519 17.061430137932984 1 0 0 I I #
edge $-1 $376 -17.061430137932984 $530 17.061430137932984 $373 $719 forward 7 unknown #
edge $-1 $377 -17.061430137932984 $529 17.061430137932984 $374 $720 forward 7 unknown #
point $-1 55.936765648365736 -35.016685018737519 17.061430137932984 #
point $-1 55.936765648365736 35.016685018737519 17.061430137932984 #
face $-1 $-1 $554 $55 $-1 $721 reversed single #
plane-surface $-1 0 0 17.061430137932984 0 0 1 1 0 0 forward_v I I I I #
coedge $-1 $722 $723 $383 $551 forward $380 $-1 #
coedge $-1 $724 $382 $550 $725 forward $236 $-1 #
coedge $-1 $382 $724 $391 $563 reversed $236 $-1 #
coedge $-1 $384 $383 $548 $725 reversed $149 $-1 #
edge $-1 $726 -55.936765648365736 $555 55.936765648365736 $547 $727 forward 7 unknown #
edge $-1 $560 -55.936765648365736 $556 55.936765648365736 $387 $728 forward 7 unknown #
coedge $-1 $385 $558 $722 $729 forward $554 $-1 #
loop $-1 $-1 $388 $545 #
vertex $-1 $551 $730 #
vertex $-1 $386 $731 #
straight-curve $-1 55.936765648365736 -12.396989637170496 12.199753048242737 0 1 0 I I #
coedge $-1 $553 $388 $392 $564 reversed $554 $-1 #
straight-curve $-1 55.936765648365736 -14.571273529944463 7.3152957965439303 0 0 1 I I #
vertex $-1 $725 $732 #
straight-curve $-1 -55.936765648365736 -14.571273529944463 7.3152957965439303 0 0 -1 I I #
coedge $-1 $392 $391 $733 $734 forward $393 $-1 #
edge $-1 $395 14.571273529944463 $735 35.016685018737519 $549 $736 forward 7 unknown #
edge $-1 $737 -35.016685018737519 $394 -14.571273529944463 $558 $738 forward 7 unknown #
point $-1 55.936765648365736 -14.571273529944463 17.061430137932984 #
point $-1 -55.936765648365736 -14.571273529944463 17.061430137932984 #
face $-1 $-1 $584 $56 $-1 $739 reversed single #
loop $-1 $-1 $572 $397 #
plane-surface $-1 -55.936765648365736 0 0 1 0 0 0 0 -1 forward_v I I I I #
coedge $-1 $740 $400 $587 $741 forward $244 $-1 #
coedge $-1 $400 $740 $742 $743 forward $244 $-1 #
coedge $-1 $742 $578 $401 $573 forward $568 $-1 #
edge $-1 $580 4.884457251698807 $575 9.7461343413890535 $572 $744 forward 7 unknown #
edge $-1 $576 -9.7461343413890535 $411 -4.884457251698807 $410 $745 forward 7 unknown #
vertex $-1 $573 $746 #
vertex $-1 $741 $747 #
straight-curve $-1 0 14.571273529944463 17.061430137932984 1 0 0 I I #
coedge $-1 $572 $748 $404 $579 forward $568 $-1 #
edge $-1 $585 -22.619695381567023 $580 -2.1742838927739676 $578 $749 forward 7 unknown #
vertex $-1 $579 $750 #
straight-curve $-1 0 14.571273529944463 12.199753048242737 -1 0 0 I I #
coedge $-1 $751 $407 $748 $752 reversed $584 $-1 #
coedge $-1 $407 $751 $409 $588 forward $584 $-1 #
loop $-1 $-1 $407 $567 #
vertex $-1 $408 $753 #
straight-curve $-1 0 35.016685018737519 12.199753048242737 -1 0 0 I I #
coedge $-1 $410 $409 $570 $741 reversed $398 $-1 #
edge $-1 $754 -17.061430137932984 $412 -12.199753048242737 $409 $755 forward 7 unknown #
point $-1 55.936765648365736 14.571273529944463 12.199753048242737 #
point $-1 55.936765648365736 35.016685018737519 12.199753048242737 #
loop $-1 $-1 $423 $414 #
plane-surface $-1 0 -14.571273529944463 14.630591593087861 0 -1 0 0 0 -1 forward_v I I I I #
coedge $-1 $756 $417 $422 $599 forward $252 $-1 #
coedge $-1 $417 $756 $596 $757 reversed $252 $-1 #
edge $-1 $597 33.085899872804404 $604 43.677707501521454 $417 $758 forward 7 unknown #
coedge $-1 $426 $420 $594 $757 forward $415 $-1 #
vertex $-1 $757 $759 #
straight-curve $-1 -58.433729287927441 -8.7312134808084068 17.061430137932987 -1 0 0 I I #
edge $-1 $604 2.9055917281201893 $602 8.7456517772562457 $593 $760 forward 7 unknown #
coedge $-1 $601 $423 $426 $606 reversed $591 $-1 #
coedge $-1 $423 $600 $756 $761 reversed $591 $-1 #
vertex $-1 $761 $762 #
straight-curve $-1 -34.400837309332559 -14.571273529944463 20.455218159658322 0.83867056331134215 0 0.54463904215088732 I I #
vertex $-1 $599 $763 #
straight-curve $-1 -55.936765648365743 -8.7312134808084068 6.4696225092159239 0.83867056331134215 0 0.54463904215088732 I I #
edge $-1 $764 -55.936765648365736 $427 -39.62681248125412 $426 $765 forward 7 unknown #
point $-1 -39.62681248125412 -14.571273529944463 17.061430137932984 #
point $-1 -39.62681248125412 -8.7312134808084068 17.061430137932984 #
edge $-1 $766 1 $766 0 $430 $-1 forward 7 unknown #
vertex $-1 $431 $767 #
ellipse-curve $-1 -46.726867769354406 -13.403261520117251 10.141090011379831 -0.54463904215088732 0 0.83867056331134215 0.41933528165567108 0 0.27231952107544366 1 I I #
point $-1 -47.362453783154237 -13.403261520117251 12.03784584464989 #
edge $-1 $768 1 $768 0 $434 $-1 forward 7 unknown #
vertex $-1 $435 $769 #
ellipse-curve $-1 -46.726867769354406 -11.651243505376435 10.141090011379831 -0.54463904215088732 0 0.83867056331134215 0.41933528165567108 0 0.27231952107544366 1 I I #
point $-1 -47.362453783154237 -11.651243505376435 12.03784584464989 #
edge $-1 $770 1 $770 0 $438 $-1 forward 7 unknown #
vertex $-1 $439 $771 #
ellipse-curve $-1 -46.726867769354406 -9.8992254906356187 10.141090011379831 -0.54463904215088732 0 0.83867056331134215 0.41933528165567108 0 0.27231952107544366 1 I I #
point $-1 -47.362453783154237 -9.8992254906356187 12.03784584464989 #
loop $-1 $-1 $450 $442 #
plane-surface $-1 -55.936765648365736 0 0 1 0 0 0 0 -1 forward_v I I I I #
coedge $-1 $624 $445 $447 $628 reversed $281 $-1 #
coedge $-1 $445 $623 $772 $773 reversed $281 $-1 #
coedge $-1 $453 $448 $445 $626 forward $443 $-1 #
edge $-1 $629 -18.806916806673321 $774 -2.4969636395617059 $625 $775 forward 7 unknown #
coedge $-1 $447 $446 $632 $776 reversed $176 $-1 #
edge $-1 $777 8.3777959833898778e-015 $629 19.447389571794034 $623 $778 forward 7 unknown #
vertex $-1 $449 $779 #
straight-curve $-1 -39.62681248125412 0 17.061430137932984 0 1 0 I I #
coedge $-1 $772 $450 $453 $636 reversed $621 $-1 #
coedge $-1 $450 $772 $627 $776 forward $621 $-1 #
vertex $-1 $451 $780 #
straight-curve $-1 -55.936765648365736 -2.9200300245680282 50.147330010737384 0 0 1 I I #
straight-curve $-1 -55.936765648365743 -2.9200300245680282 6.4696225092159239 -0.83867056331134215 0 -0.54463904215088732 I I #
edge $-1 $774 -2.9200300245680282 $454 2.9200300245680282 $631 $781 forward 7 unknown #
point $-1 -55.936765648365736 -2.9200300245680282 17.061430137932984 #
point $-1 -39.62681248125412 -2.9200300245680282 17.061430137932984 #
edge $-1 $782 1 $782 0 $457 $-1 forward 7 unknown #
vertex $-1 $458 $783 #
ellipse-curve $-1 -46.726867769354406 -1.7520180147408126 10.141090011379831 -0.54463904215088732 0 0.83867056331134215 0.41933528165567108 0 0.27231952107544366 1 I I #
point $-1 -47.362453783154237 -1.7520180147408126 12.03784584464989 #
edge $-1 $784 1 $784 0 $461 $-1 forward 7 unknown #
vertex $-1 $462 $785 #
ellipse-curve $-1 -46.726867769354406 0 10.141090011379831 -0.54463904215088732 0 0.83867056331134215 0.41933528165567108 0 0.27231952107544366 1 I I #
point $-1 -47.362453783154237 0 12.03784584464989 #
edge $-1 $786 1 $786 0 $465 $-1 forward 7 unknown #
vertex $-1 $466 $787 #
ellipse-curve $-1 -46.726867769354406 1.7520180147408126 10.141090011379831 -0.54463904215088732 0 0.83867056331134215 0.41933528165567108 0 0.27231952107544366 1 I I #
point $-1 -47.362453783154237 1.7520180147408126 12.03784584464989 #
loop $-1 $-1 $476 $469 #
plane-surface $-1 -55.936765648365736 0 0 1 0 0 0 0 -1 forward_v I I I I #
coedge $-1 $788 $789 $473 $655 reversed $470 $-1 #
coedge $-1 $473 $472 $660 $790 reversed $195 $-1 #
edge $-1 $791 8.3777959833898778e-015 $657 19.447389571794034 $653 $792 forward 7 unknown #
coedge $-1 $479 $474 $789 $793 forward $310 $-1 #
vertex $-1 $793 $794 #
straight-curve $-1 -39.62681248125412 5.8256217526882175 17.061430137932984 0 1 0 I I #
coedge $-1 $795 $476 $479 $664 reversed $651 $-1 #
coedge $-1 $476 $795 $654 $790 forward $651 $-1 #
vertex $-1 $477 $796 #
straight-curve $-1 -55.936765648365736 8.7312134808084068 50.147330010737384 0 0 1 I I #
straight-curve $-1 -55.936765648365743 8.7312134808084068 6.4696225092159239 -0.83867056331134215 0 -0.54463904215088732 I I #
edge $-1 $797 -14.571273529944463 $480 -8.7312134808084068 $659 $798 forward 7 unknown #
point $-1 -55.936765648365736 8.7312134808084068 17.061430137932984 #
point $-1 -39.62681248125412 8.7312134808084068 17.061430137932984 #
edge $-1 $799 1 $799 0 $483 $-1 forward 7 unknown #
vertex $-1 $484 $800 #
ellipse-curve $-1 -46.726867769354406 9.8992254906356223 10.141090011379831 -0.54463904215088732 0 0.83867056331134215 0.41933528165567108 0 0.27231952107544366 1 I I #
point $-1 -47.362453783154237 9.8992254906356223 12.03784584464989 #
edge $-1 $801 1 $801 0 $487 $-1 forward 7 unknown #
vertex $-1 $488 $802 #
ellipse-curve $-1 -46.726867769354406 11.651243505376435 10.141090011379831 -0.54463904215088732 0 0.83867056331134215 0.41933528165567108 0 0.27231952107544366 1 I I #
point $-1 -47.362453783154237 11.651243505376435 12.03784584464989 #
edge $-1 $803 1 $803 0 $491 $-1 forward 7 unknown #
vertex $-1 $492 $804 #
ellipse-curve $-1 -46.726867769354406 13.403261520117248 10.141090011379831 -0.54463904215088732 0 0.83867056331134215 0.41933528165567108 0 0.27231952107544366 1 I I #
point $-1 -47.362453783154237 13.403261520117248 12.03784584464989 #
loop $-1 $-1 $503 $495 #
plane-surface $-1 0 14.571273529944463 14.630591593087861 0 1 0 0 0 1 forward_v I I I I #
coedge $-1 $686 $805 $499 $682 forward $496 $-1 #
edge $-1 $684 64.302417989289253 $692 75.982509160283584 $681 $806 forward 7 unknown #
coedge $-1 $506 $500 $805 $807 forward $339 $-1 #
vertex $-1 $807 $808 #
straight-curve $-1 36.237268147400243 6.2458629045825944 17.061430137932987 1 0 0 I I #
coedge $-1 $809 $681 $502 $687 forward $496 $-1 #
edge $-1 $692 1.04157879595083 $690 9.3669894213126987 $686 $810 forward 7 unknown #
coedge $-1 $689 $503 $506 $694 reversed $679 $-1 #
coedge $-1 $503 $688 $809 $811 reversed $679 $-1 #
vertex $-1 $811 $812 #
straight-curve $-1 7.3961212633801541 14.571273529944463 65.324044305995272 -0.62932038083071107 0 0.77714596973225614 I I #
vertex $-1 $687 $813 #
straight-curve $-1 -14.467527672169794 6.2458629045825944 92.323402933908952 -0.62932038083071107 0 0.77714596973225614 I I #
edge $-1 $814 -55.936765648365736 $507 -46.478414566135982 $506 $815 forward 7 unknown #
point $-1 46.478414566135982 14.571273529944463 17.061430137932987 #
point $-1 46.478414566135982 6.2458629045825944 17.061430137932987 #
edge $-1 $816 1 $816 0 $510 $-1 forward 7 unknown #
vertex $-1 $511 $817 #
ellipse-curve $-1 49.908769459420341 8.6245516546859875 10.169620358117099 0.77714596973225614 0 0.62932038083071107 0.31466019041535553 0 -0.38857298486612807 1 I I #
point $-1 51.522250297666211 8.6245516546859875 10.832811567569697 #
edge $-1 $818 1 $818 0 $514 $-1 forward 7 unknown #
vertex $-1 $515 $819 #
ellipse-curve $-1 49.908769459420341 12.19258477984107 10.169620358117099 0.77714596973225614 0 0.62932038083071107 0.31466019041535553 0 -0.38857298486612807 1 I I #
point $-1 51.522250297666211 12.19258477984107 10.832811567569697 #
plane-surface $-1 55.936765648365736 0 0 -1 0 0 0 0 1 forward_v I I I I #
coedge $-1 $523 $521 $525 $710 reversed $361 $-1 #
edge $-1 $536 -17.061430137932984 $712 17.061430137932984 $535 $820 forward 7 unknown #
vertex $-1 $710 $821 #
straight-curve $-1 -55.936765648365736 -35.016685018737519 0 0 0 -1 I I #
edge $-1 $708 -35.016685018737519 $712 35.016685018737519 $706 $822 forward 7 unknown #
straight-curve $-1 0 -35.016685018737519 -17.061430137932984 -1 0 0 I I #
vertex $-1 $528 $823 #
straight-curve $-1 0 35.016685018737519 -17.061430137932984 1 0 0 I I #
point $-1 55.936765648365736 35.016685018737519 -17.061430137932984 #
point $-1 55.936765648365736 -35.016685018737519 -17.061430137932984 #
straight-curve $-1 -55.936765648365736 0 17.061430137932984 0 -1 0 I I #
point $-1 -55.936765648365736 35.016685018737519 17.061430137932984 #
point $-1 -55.936765648365736 -35.016685018737519 17.061430137932984 #
straight-curve $-1 55.936765648365736 -35.016685018737519 0 0 0 -1 I I #
straight-curve $-1 55.936765648365736 35.016685018737519 0 0 0 -1 I I #
plane-surface $-1 55.936765648365736 0 0 -1 0 0 0 0 1 forward_v I I I I #
coedge $-1 $733 $547 $553 $729 reversed $380 $-1 #
coedge $-1 $547 $733 $724 $824 forward $380 $-1 #
coedge $-1 $549 $548 $723 $824 reversed $236 $-1 #
edge $-1 $560 2.1742838927739676 $726 22.619695381567023 $548 $825 forward 7 unknown #
vertex $-1 $551 $826 #
straight-curve $-1 0 -35.016685018737519 12.199753048242737 1 0 0 I I #
straight-curve $-1 0 -14.571273529944463 12.199753048242737 1 0 0 I I #
edge $-1 $737 -17.061430137932984 $555 -12.199753048242737 $553 $827 forward 7 unknown #
point $-1 55.936765648365736 -35.016685018737519 12.199753048242737 #
point $-1 55.936765648365736 -14.571273529944463 12.199753048242737 #
point $-1 -55.936765648365736 -14.571273529944463 12.199753048242737 #
coedge $-1 $723 $722 $562 $734 reversed $380 $-1 #
edge $-1 $735 -55.936765648365736 $737 55.936765648365736 $733 $828 forward 7 unknown #
vertex $-1 $563 $829 #
straight-curve $-1 -55.936765648365736 0 17.061430137932984 0 -1 0 I I #
vertex $-1 $564 $830 #
straight-curve $-1 55.936765648365736 0 17.061430137932984 0 1 0 I I #
plane-surface $-1 0 35.016685018737519 0 0 -1 0 0 0 -1 forward_v I I I I #
coedge $-1 $571 $570 $751 $831 forward $244 $-1 #
edge $-1 $576 14.571273529944463 $754 35.016685018737519 $587 $832 forward 7 unknown #
coedge $-1 $748 $572 $571 $743 reversed $568 $-1 #
edge $-1 $833 -35.016685018737519 $575 -14.571273529944463 $742 $834 forward 7 unknown #
straight-curve $-1 -55.936765648365736 14.571273529944463 7.3152957965439303 0 0 1 I I #
straight-curve $-1 55.936765648365736 14.571273529944463 7.3152957965439303 0 0 -1 I I #
point $-1 -55.936765648365736 14.571273529944463 17.061430137932984 #
point $-1 55.936765648365736 14.571273529944463 17.061430137932984 #
coedge $-1 $578 $742 $582 $752 forward $568 $-1 #
straight-curve $-1 -55.936765648365736 12.396989637170496 12.199753048242737 0 -1 0 I I #
point $-1 -55.936765648365736 14.571273529944463 12.199753048242737 #
coedge $-1 $583 $582 $740 $831 reversed $584 $-1 #
edge $-1 $833 -17.061430137932984 $585 -12.199753048242737 $582 $835 forward 7 unknown #
point $-1 -55.936765648365736 35.016685018737519 12.199753048242737 #
vertex $-1 $741 $836 #
straight-curve $-1 55.936765648365736 35.016685018737519 0 0 0 -1 I I #
coedge $-1 $594 $593 $601 $761 forward $252 $-1 #
edge $-1 $597 8.7312134808084068 $764 14.571273529944463 $594 $837 forward 7 unknown #
straight-curve $-1 -55.936765648365736 -8.7312134808084068 50.147330010737384 0 0 -1 I I #
point $-1 -55.936765648365736 -8.7312134808084068 17.061430137932984 #
straight-curve $-1 -55.936765648365736 -5.8256217526882175 6.4696225092159239 0 -1 0 I I #
edge $-1 $602 -43.677707501521454 $764 -33.085899872804404 $756 $838 forward 7 unknown #
point $-1 -55.936765648365736 -14.571273529944463 6.4696225092159283 #
point $-1 -55.936765648365736 -8.7312134808084068 6.4696225092159283 #
vertex $-1 $761 $839 #
straight-curve $-1 0 -14.571273529944463 17.061430137932984 1 0 0 I I #
vertex $-1 $609 $840 #
point $-1 -46.307532487698737 -13.403261520117251 10.413409532455274 #
vertex $-1 $613 $841 #
point $-1 -46.307532487698737 -11.651243505376435 10.413409532455274 #
vertex $-1 $617 $842 #
point $-1 -46.307532487698737 -9.8992254906356187 10.413409532455274 #
coedge $-1 $632 $631 $624 $773 forward $621 $-1 #
edge $-1 $774 33.085899872804404 $777 43.677707501521454 $772 $843 forward 7 unknown #
vertex $-1 $636 $844 #
straight-curve $-1 -58.433729287927441 2.9200300245680282 17.061430137932987 -1 0 0 I I #
edge $-1 $777 -2.9200300245680282 $633 2.9200300245680282 $632 $845 forward 7 unknown #
vertex $-1 $776 $846 #
straight-curve $-1 -55.936765648365743 2.9200300245680282 6.4696225092159239 0.83867056331134215 0 0.54463904215088732 I I #
point $-1 -39.62681248125412 2.9200300245680282 17.061430137932984 #
point $-1 -55.936765648365736 -2.9200300245680282 6.4696225092159283 #
straight-curve $-1 -55.936765648365736 0 17.061430137932984 0 -1 0 I I #
vertex $-1 $639 $847 #
point $-1 -46.307532487698737 -1.7520180147408126 10.413409532455274 #
vertex $-1 $643 $848 #
point $-1 -46.307532487698737 0 10.413409532455274 #
vertex $-1 $647 $849 #
point $-1 -46.307532487698737 1.7520180147408126 10.413409532455274 #
coedge $-1 $789 $653 $795 $850 reversed $470 $-1 #
coedge $-1 $653 $788 $656 $793 reversed $470 $-1 #
edge $-1 $791 -8.7456517772562457 $661 -2.9055917281201893 $660 $851 forward 7 unknown #
vertex $-1 $850 $852 #
straight-curve $-1 -55.936765648365743 14.571273529944463 6.4696225092159239 0.83867056331134215 0 0.54463904215088732 I I #
edge $-1 $657 39.62681248125412 $797 55.936765648365736 $656 $853 forward 7 unknown #
point $-1 -39.62681248125412 14.571273529944463 17.061430137932984 #
coedge $-1 $660 $659 $788 $850 forward $651 $-1 #
point $-1 -55.936765648365736 8.7312134808084068 6.4696225092159283 #
vertex $-1 $664 $854 #
straight-curve $-1 -55.936765648365736 0 17.061430137932984 0 -1 0 I I #
vertex $-1 $667 $855 #
point $-1 -46.307532487698737 9.8992254906356223 10.413409532455274 #
vertex $-1 $671 $856 #
point $-1 -46.307532487698737 11.651243505376435 10.413409532455274 #
vertex $-1 $675 $857 #
point $-1 -46.307532487698737 13.403261520117248 10.413409532455274 #
coedge $-1 $681 $809 $683 $807 reversed $496 $-1 #
straight-curve $-1 55.936765648365736 6.2458629045825944 81.363848127222241 0 0 -1 I I #
edge $-1 $684 6.2458629045825944 $814 14.571273529944463 $805 $858 forward 7 unknown #
point $-1 55.936765648365736 6.2458629045825944 17.061430137932984 #
coedge $-1 $805 $686 $689 $811 forward $496 $-1 #
straight-curve $-1 55.936765648365729 5.2042841086317644 5.3813389669386567 0 1 0 I I #
edge $-1 $690 -75.982509160283584 $814 -64.302417989289253 $809 $859 forward 7 unknown #
point $-1 55.936765648365736 14.571273529944463 5.3813389669386567 #
point $-1 55.936765648365736 6.2458629045825944 5.3813389669386567 #
vertex $-1 $694 $860 #
straight-curve $-1 0 14.571273529944463 17.061430137932984 -1 0 0 I I #
vertex $-1 $697 $861 #
point $-1 50.223429649835694 8.6245516546859875 9.7810473732509706 #
vertex $-1 $701 $862 #
point $-1 50.223429649835694 12.19258477984107 9.7810473732509706 #
straight-curve $-1 -55.936765648365736 35.016685018737519 0 0 0 -1 I I #
point $-1 -55.936765648365736 -35.016685018737519 -17.061430137932984 #
straight-curve $-1 -55.936765648365736 0 -17.061430137932984 0 1 0 I I #
point $-1 -55.936765648365736 35.016685018737519 -17.061430137932984 #
edge $-1 $735 -17.061430137932984 $726 -12.199753048242737 $724 $863 forward 7 unknown #
straight-curve $-1 -55.936765648365736 -12.396989637170496 12.199753048242737 0 -1 0 I I #
point $-1 -55.936765648365736 -35.016685018737519 12.199753048242737 #
straight-curve $-1 55.936765648365736 -35.016685018737519 0 0 0 -1 I I #
straight-curve $-1 0 -35.016685018737519 17.061430137932984 1 0 0 I I #
point $-1 -55.936765648365736 -35.016685018737519 17.061430137932984 #
point $-1 55.936765648365736 -35.016685018737519 17.061430137932984 #
edge $-1 $754 -55.936765648365736 $833 55.936765648365736 $751 $864 forward 7 unknown #
straight-curve $-1 55.936765648365736 0 17.061430137932984 0 1 0 I I #
vertex $-1 $831 $865 #
straight-curve $-1 -55.936765648365736 0 17.061430137932984 0 -1 0 I I #
straight-curve $-1 -55.936765648365736 35.016685018737519 0 0 0 -1 I I #
point $-1 55.936765648365736 35.016685018737519 17.061430137932984 #
straight-curve $-1 -55.936765648365736 0 17.061430137932984 0 -1 0 I I #
straight-curve $-1 -55.936765648365736 -14.571273529944463 50.147330010737384 0 0 1 I I #
point $-1 -55.936765648365736 -14.571273529944463 17.061430137932984 #
point $-1 -46.454548248278961 -13.403261520117251 9.7217547297241609 #
point $-1 -46.454548248278961 -11.651243505376435 9.7217547297241609 #
point $-1 -46.454548248278961 -9.8992254906356187 9.7217547297241609 #
straight-curve $-1 -55.936765648365736 2.9200300245680282 50.147330010737384 0 0 -1 I I #
point $-1 -55.936765648365736 2.9200300245680282 17.061430137932984 #
straight-curve $-1 -55.936765648365736 0 6.4696225092159239 0 -1 0 I I #
point $-1 -55.936765648365736 2.9200300245680282 6.4696225092159283 #
point $-1 -46.454548248278961 -1.7520180147408126 9.7217547297241609 #
point $-1 -46.454548248278961 0 9.7217547297241609 #
point $-1 -46.454548248278961 1.7520180147408126 9.7217547297241609 #
edge $-1 $797 33.085899872804404 $791 43.677707501521454 $795 $866 forward 7 unknown #
straight-curve $-1 -55.936765648365736 5.8256217526882175 6.4696225092159239 0 -1 0 I I #
point $-1 -55.936765648365736 14.571273529944463 6.4696225092159283 #
straight-curve $-1 0 14.571273529944463 17.061430137932984 -1 0 0 I I #
point $-1 -55.936765648365736 14.571273529944463 17.061430137932984 #
point $-1 -46.454548248278961 9.8992254906356223 9.7217547297241609 #
point $-1 -46.454548248278961 11.651243505376435 9.7217547297241609 #
point $-1 -46.454548248278961 13.403261520117248 9.7217547297241609 #
straight-curve $-1 55.936765648365736 0 17.061430137932984 0 1 0 I I #
straight-curve $-1 55.936765648365736 14.571273529944463 81.363848127222241 0 0 1 I I #
point $-1 55.936765648365736 14.571273529944463 17.061430137932984 #
point $-1 49.520196474554211 8.6245516546859875 9.8549601677017424 #
point $-1 49.520196474554211 12.19258477984107 9.8549601677017424 #
straight-curve $-1 -55.936765648365736 -35.016685018737519 0 0 0 -1 I I #
straight-curve $-1 0 35.016685018737519 17.061430137932984 -1 0 0 I I #
point $-1 -55.936765648365736 35.016685018737519 17.061430137932984 #
straight-curve $-1 -55.936765648365736 14.571273529944463 50.147330010737384 0 0 -1 I I #
End-of-ACIS-data 