500 0 3 0           
7 Unknown 11 ACIS 5.0 NT 24 Fri Mar 26 00:40:13 1999 
-1 9.9999999999999995e-007 1e-010 
body $-1 $3 $-1 $4 #
body $-1 $5 $-1 $6 #
body $-1 $7 $-1 $8 #
lump $-1 $-1 $9 $0 #
transform $-1 1 0 0 0 1 0 0 0 1 72.634052552873328 45.219890294140612 12.857452678103575 1 rotate no_reflect no_shear #
lump $-1 $-1 $10 $1 #
transform $-1 1 0 0 0 1 0 0 0 1 72.634052552873328 45.219890294140612 12.857452678103575 1 rotate no_reflect no_shear #
lump $-1 $-1 $11 $2 #
transform $-1 1 0 0 0 1 0 0 0 1 72.634052552873328 45.219890294140612 12.857452678103575 1 rotate no_reflect no_shear #
shell $-1 $-1 $-1 $12 $-1 $3 #
shell $-1 $-1 $-1 $13 $-1 $5 #
shell $-1 $-1 $-1 $14 $-1 $7 #
face $-1 $15 $16 $9 $-1 $17 forward single #
face $-1 $18 $19 $10 $-1 $20 reversed single #
face $-1 $21 $22 $11 $-1 $23 reversed single #
face $-1 $24 $25 $9 $-1 $26 reversed single #
loop $-1 $-1 $27 $12 #
plane-surface $-1 0 0 12.857452678103575 0 0 1 1 0 0 forward_v I I I I #
face $-1 $28 $29 $10 $-1 $30 reversed single #
loop $-1 $-1 $31 $13 #
plane-surface $-1 -64.536729662601076 0 9.6892149873310327 0 0 1 1 0 0 forward_v I I I I #
face $-1 $32 $33 $11 $-1 $34 reversed single #
loop $-1 $-1 $35 $14 #
plane-surface $-1 64.536729662601061 0 9.6892149873310327 0 0 1 1 0 0 forward_v I I I I #
face $-1 $36 $37 $9 $-1 $38 reversed single #
loop $-1 $-1 $39 $15 #
plane-surface $-1 0 0 -12.857452678103575 0 0 1 1 0 0 forward_v I I I I #
coedge $-1 $40 $41 $42 $43 forward $16 $-1 #
face $-1 $44 $45 $10 $-1 $46 reversed single #
loop $-1 $-1 $47 $18 #
plane-surface $-1 -56.439406772328823 0 11.273333832717304 -1 0 0 0 0 1 forward_v I I I I #
coedge $-1 $48 $49 $50 $51 forward $19 $-1 #
face $-1 $52 $53 $11 $-1 $54 forward single #
loop $-1 $-1 $55 $21 #
plane-surface $-1 56.439406772328809 0 11.273333832717304 1 0 0 0 0 -1 forward_v I I I I #
coedge $-1 $56 $57 $58 $59 reversed $22 $-1 #
face $-1 $60 $61 $9 $-1 $62 reversed single #
loop $-1 $-1 $63 $24 #
plane-surface $-1 0 -45.219890294140612 0 0 1 0 0 0 1 forward_v I I I I #
coedge $-1 $64 $65 $66 $67 forward $25 $-1 #
coedge $-1 $68 $27 $69 $70 forward $16 $-1 #
coedge $-1 $27 $68 $71 $72 forward $16 $-1 #
coedge $-1 $73 $74 $27 $43 reversed $75 $-1 #
edge $-1 $76 -45.219890294140612 $77 45.219890294140612 $42 $78 forward 7 unknown #
face $-1 $79 $80 $10 $-1 $81 reversed single #
loop $-1 $-1 $82 $28 #
plane-surface $-1 0 45.219890294140612 0 0 -1 0 0 0 -1 forward_v I I I I #
coedge $-1 $50 $83 $84 $85 reversed $29 $-1 #
coedge $-1 $86 $31 $87 $88 reversed $19 $-1 #
coedge $-1 $31 $86 $89 $90 reversed $19 $-1 #
coedge $-1 $91 $47 $31 $51 reversed $29 $-1 #
edge $-1 $92 -45.219890294140612 $93 45.219890294140612 $50 $94 forward 7 unknown #
face $-1 $95 $96 $11 $-1 $97 reversed single #
loop $-1 $-1 $98 $32 #
plane-surface $-1 0 0 12.857452678103575 0 0 1 1 0 0 forward_v I I I I #
coedge $-1 $99 $100 $101 $102 reversed $33 $-1 #
coedge $-1 $103 $35 $104 $105 reversed $22 $-1 #
coedge $-1 $35 $103 $106 $107 reversed $22 $-1 #
coedge $-1 $108 $109 $35 $59 forward $110 $-1 #
edge $-1 $111 -45.219890294140612 $112 45.219890294140612 $58 $113 forward 7 unknown #
face $-1 $114 $115 $9 $-1 $116 reversed single #
loop $-1 $-1 $117 $36 #
plane-surface $-1 -72.634052552873328 0 0 1 0 0 0 0 -1 forward_v I I I I #
coedge $-1 $118 $71 $119 $120 forward $37 $-1 #
coedge $-1 $121 $39 $118 $122 forward $25 $-1 #
coedge $-1 $39 $121 $123 $124 forward $25 $-1 #
coedge $-1 $74 $73 $39 $67 reversed $75 $-1 #
edge $-1 $125 -45.219890294140612 $126 45.219890294140612 $66 $127 forward 7 unknown #
coedge $-1 $41 $40 $128 $129 forward $16 $-1 #
coedge $-1 $130 $131 $40 $70 reversed $115 $-1 #
edge $-1 $77 -72.634052552873328 $132 72.634052552873328 $69 $133 forward 7 unknown #
coedge $-1 $63 $134 $41 $72 reversed $37 $-1 #
edge $-1 $135 -72.634052552873328 $76 72.634052552873328 $71 $136 forward 7 unknown #
coedge $-1 $66 $42 $134 $137 forward $75 $-1 #
coedge $-1 $42 $66 $130 $138 reversed $75 $-1 #
loop $-1 $-1 $73 $114 #
vertex $-1 $43 $139 #
vertex $-1 $43 $140 #
straight-curve $-1 72.634052552873328 0 12.857452678103575 0 1 0 I I #
face $-1 $141 $142 $10 $-1 $143 forward single #
loop $-1 $-1 $144 $44 #
plane-surface $-1 -72.634052552873328 0 0 1 0 0 0 0 -1 forward_v I I I I #
coedge $-1 $89 $145 $91 $146 forward $45 $-1 #
coedge $-1 $47 $91 $147 $148 reversed $29 $-1 #
coedge $-1 $149 $87 $47 $85 forward $150 $-1 #
edge $-1 $93 4.0525480709723807 $151 7.2207857617449234 $84 $152 forward 7 unknown #
coedge $-1 $49 $48 $144 $153 reversed $19 $-1 #
coedge $-1 $84 $154 $48 $88 forward $150 $-1 #
edge $-1 $155 -40.36568772157279 $93 -24.171041941028285 $87 $156 forward 7 unknown #
coedge $-1 $157 $82 $49 $90 forward $45 $-1 #
edge $-1 $92 24.171041941028285 $158 40.36568772157279 $89 $159 forward 7 unknown #
coedge $-1 $83 $50 $82 $146 reversed $29 $-1 #
vertex $-1 $90 $160 #
vertex $-1 $88 $161 #
straight-curve $-1 -56.439406772328823 0 9.6892149873310327 0 -1 0 I I #
face $-1 $162 $163 $11 $-1 $164 reversed single #
loop $-1 $-1 $165 $52 #
plane-surface $-1 0 -45.219890294140612 0 0 1 0 0 0 1 forward_v I I I I #
coedge $-1 $166 $167 $100 $168 forward $53 $-1 #
coedge $-1 $169 $55 $103 $170 reversed $33 $-1 #
coedge $-1 $55 $169 $98 $168 reversed $33 $-1 #
coedge $-1 $171 $106 $55 $102 forward $163 $-1 #
edge $-1 $172 4.0525480709723807 $173 7.2207857617449234 $101 $174 forward 7 unknown #
coedge $-1 $57 $56 $99 $170 forward $22 $-1 #
coedge $-1 $175 $165 $56 $105 forward $96 $-1 #
edge $-1 $176 24.171041941028278 $111 40.365687721572783 $104 $177 forward 7 unknown #
coedge $-1 $101 $178 $57 $107 forward $163 $-1 #
edge $-1 $112 -40.365687721572783 $172 -24.171041941028278 $106 $179 forward 7 unknown #
coedge $-1 $180 $58 $178 $181 reversed $110 $-1 #
coedge $-1 $58 $180 $175 $182 forward $110 $-1 #
loop $-1 $-1 $58 $162 #
vertex $-1 $105 $183 #
vertex $-1 $59 $184 #
straight-curve $-1 72.634052552873328 0 9.6892149873310327 0 1 0 I I #
face $-1 $-1 $75 $9 $-1 $185 reversed single #
loop $-1 $-1 $130 $60 #
plane-surface $-1 0 45.219890294140612 0 0 -1 0 0 0 -1 forward_v I I I I #
coedge $-1 $186 $128 $131 $187 forward $61 $-1 #
coedge $-1 $134 $63 $64 $122 reversed $37 $-1 #
coedge $-1 $128 $186 $63 $120 reversed $61 $-1 #
edge $-1 $135 -12.857452678103575 $188 12.857452678103575 $119 $189 forward 7 unknown #
coedge $-1 $65 $64 $186 $190 forward $25 $-1 #
edge $-1 $126 -72.634052552873328 $188 72.634052552873328 $118 $191 forward 7 unknown #
coedge $-1 $131 $130 $65 $124 reversed $115 $-1 #
edge $-1 $192 -72.634052552873328 $125 72.634052552873328 $123 $193 forward 7 unknown #
vertex $-1 $67 $194 #
vertex $-1 $137 $195 #
straight-curve $-1 72.634052552873328 0 -12.857452678103575 0 -1 0 I I #
coedge $-1 $117 $119 $68 $129 reversed $61 $-1 #
edge $-1 $132 -45.219890294140612 $135 45.219890294140612 $128 $196 forward 7 unknown #
coedge $-1 $123 $69 $74 $138 forward $115 $-1 #
coedge $-1 $69 $123 $117 $187 reversed $115 $-1 #
vertex $-1 $70 $197 #
straight-curve $-1 0 45.219890294140612 12.857452678103575 -1 0 0 I I #
coedge $-1 $71 $118 $73 $137 reversed $37 $-1 #
vertex $-1 $129 $198 #
straight-curve $-1 0 -45.219890294140612 12.857452678103575 1 0 0 I I #
edge $-1 $76 -12.857452678103575 $126 12.857452678103575 $73 $199 forward 7 unknown #
edge $-1 $77 -12.857452678103575 $125 12.857452678103575 $74 $200 forward 7 unknown #
point $-1 72.634052552873328 -45.219890294140612 12.857452678103575 #
point $-1 72.634052552873328 45.219890294140612 12.857452678103575 #
face $-1 $-1 $150 $10 $-1 $201 reversed single #
loop $-1 $-1 $147 $79 #
plane-surface $-1 0 0 12.857452678103575 0 0 1 1 0 0 forward_v I I I I #
coedge $-1 $202 $203 $86 $153 forward $80 $-1 #
coedge $-1 $82 $157 $204 $205 reversed $45 $-1 #
edge $-1 $206 -7.2207857617449234 $92 -4.0525480709723807 $82 $207 forward 7 unknown #
coedge $-1 $204 $208 $83 $148 forward $142 $-1 #
edge $-1 $151 -45.219890294140612 $206 45.219890294140612 $147 $209 forward 7 unknown #
coedge $-1 $154 $84 $208 $210 reversed $150 $-1 #
loop $-1 $-1 $84 $141 #
vertex $-1 $85 $211 #
straight-curve $-1 -56.439406772328823 -45.219890294140612 5.636666916358652 0 0 1 I I #
edge $-1 $158 -45.219890294140612 $155 45.219890294140612 $144 $212 forward 7 unknown #
coedge $-1 $87 $149 $202 $213 forward $150 $-1 #
vertex $-1 $153 $214 #
straight-curve $-1 -32.268364831300538 -45.219890294140612 9.6892149873310327 1 0 0 I I #
coedge $-1 $145 $89 $203 $215 reversed $45 $-1 #
vertex $-1 $153 $216 #
straight-curve $-1 -32.268364831300538 45.219890294140612 9.6892149873310327 -1 0 0 I I #
point $-1 -56.439406772328823 45.219890294140612 9.6892149873310327 #
point $-1 -56.439406772328823 -45.219890294140612 9.6892149873310327 #
face $-1 $-1 $110 $11 $-1 $217 reversed single #
loop $-1 $-1 $101 $95 #
plane-surface $-1 0 45.219890294140612 0 0 -1 0 0 0 -1 forward_v I I I I #
coedge $-1 $104 $218 $169 $219 forward $96 $-1 #
coedge $-1 $220 $98 $218 $221 forward $53 $-1 #
coedge $-1 $98 $220 $171 $222 forward $53 $-1 #
edge $-1 $173 -45.219890294140612 $223 45.219890294140612 $98 $224 forward 7 unknown #
coedge $-1 $100 $99 $165 $219 reversed $33 $-1 #
edge $-1 $176 -45.219890294140612 $172 45.219890294140612 $99 $225 forward 7 unknown #
coedge $-1 $178 $101 $167 $222 reversed $163 $-1 #
vertex $-1 $107 $226 #
vertex $-1 $102 $227 #
straight-curve $-1 56.439406772328809 45.219890294140612 5.636666916358652 0 0 1 I I #
coedge $-1 $218 $104 $109 $182 reversed $96 $-1 #
vertex $-1 $105 $228 #
straight-curve $-1 32.268364831300531 -45.219890294140612 9.6892149873310327 1 0 0 I I #
coedge $-1 $106 $171 $108 $181 forward $163 $-1 #
straight-curve $-1 32.268364831300531 45.219890294140612 9.6892149873310327 -1 0 0 I I #
coedge $-1 $109 $108 $220 $229 reversed $110 $-1 #
edge $-1 $230 -12.857452678103575 $112 -9.6892149873310327 $108 $231 forward 7 unknown #
edge $-1 $232 -12.857452678103575 $111 -9.6892149873310327 $109 $233 forward 7 unknown #
point $-1 72.634052552873314 -45.219890294140612 9.6892149873310327 #
point $-1 72.634052552873314 45.219890294140612 9.6892149873310327 #
plane-surface $-1 72.634052552873328 0 0 -1 0 0 0 0 1 forward_v I I I I #
coedge $-1 $119 $117 $121 $190 reversed $61 $-1 #
edge $-1 $132 -12.857452678103575 $192 12.857452678103575 $131 $234 forward 7 unknown #
vertex $-1 $190 $235 #
straight-curve $-1 -72.634052552873328 -45.219890294140612 0 0 0 -1 I I #
edge $-1 $188 -45.219890294140612 $192 45.219890294140612 $186 $236 forward 7 unknown #
straight-curve $-1 0 -45.219890294140612 -12.857452678103575 -1 0 0 I I #
vertex $-1 $124 $237 #
straight-curve $-1 0 45.219890294140612 -12.857452678103575 1 0 0 I I #
point $-1 72.634052552873328 45.219890294140612 -12.857452678103575 #
point $-1 72.634052552873328 -45.219890294140612 -12.857452678103575 #
straight-curve $-1 -72.634052552873328 0 12.857452678103575 0 -1 0 I I #
point $-1 -72.634052552873328 45.219890294140612 12.857452678103575 #
point $-1 -72.634052552873328 -45.219890294140612 12.857452678103575 #
straight-curve $-1 72.634052552873328 -45.219890294140612 0 0 0 -1 I I #
straight-curve $-1 72.634052552873328 45.219890294140612 0 0 0 -1 I I #
plane-surface $-1 0 -45.219890294140612 0 0 1 0 0 0 1 forward_v I I I I #
coedge $-1 $238 $144 $154 $213 reversed $80 $-1 #
coedge $-1 $144 $238 $157 $215 forward $80 $-1 #
coedge $-1 $239 $147 $145 $205 forward $142 $-1 #
edge $-1 $206 56.439406772328823 $240 72.634052552873328 $145 $241 forward 7 unknown #
vertex $-1 $205 $242 #
straight-curve $-1 -56.439406772328823 45.219890294140612 5.636666916358652 0 0 -1 I I #
coedge $-1 $147 $239 $149 $210 forward $142 $-1 #
straight-curve $-1 -56.439406772328823 0 12.857452678103575 0 1 0 I I #
edge $-1 $243 -72.634052552873328 $151 -56.439406772328823 $149 $244 forward 7 unknown #
point $-1 -56.439406772328823 -45.219890294140612 12.857452678103575 #
straight-curve $-1 -72.634052552873328 0 9.6892149873310327 0 -1 0 I I #
edge $-1 $243 -12.857452678103575 $155 -9.6892149873310327 $202 $245 forward 7 unknown #
point $-1 -72.634052552873328 -45.219890294140612 9.6892149873310327 #
edge $-1 $240 -12.857452678103575 $158 -9.6892149873310327 $157 $246 forward 7 unknown #
point $-1 -72.634052552873328 45.219890294140612 9.6892149873310327 #
plane-surface $-1 72.634052552873328 0 0 -1 0 0 0 0 1 forward_v I I I I #
coedge $-1 $165 $175 $166 $221 reversed $96 $-1 #
edge $-1 $223 -7.2207857617449234 $176 -4.0525480709723807 $165 $247 forward 7 unknown #
coedge $-1 $167 $166 $180 $229 forward $53 $-1 #
edge $-1 $223 56.439406772328809 $232 72.634052552873328 $218 $248 forward 7 unknown #
edge $-1 $230 -72.634052552873328 $173 -56.439406772328809 $171 $249 forward 7 unknown #
vertex $-1 $221 $250 #
straight-curve $-1 56.439406772328809 0 12.857452678103575 0 -1 0 I I #
straight-curve $-1 56.439406772328809 0 9.6892149873310327 0 1 0 I I #
point $-1 56.439406772328809 45.219890294140612 9.6892149873310327 #
point $-1 56.439406772328809 45.219890294140612 12.857452678103575 #
point $-1 56.439406772328809 -45.219890294140612 9.6892149873310327 #
edge $-1 $232 -45.219890294140612 $230 45.219890294140612 $180 $251 forward 7 unknown #
vertex $-1 $229 $252 #
straight-curve $-1 72.634052552873328 45.219890294140612 0 0 0 -1 I I #
vertex $-1 $229 $253 #
straight-curve $-1 72.634052552873328 -45.219890294140612 0 0 0 -1 I I #
straight-curve $-1 -72.634052552873328 45.219890294140612 0 0 0 -1 I I #
point $-1 -72.634052552873328 -45.219890294140612 -12.857452678103575 #
straight-curve $-1 -72.634052552873328 0 -12.857452678103575 0 1 0 I I #
point $-1 -72.634052552873328 45.219890294140612 -12.857452678103575 #
coedge $-1 $203 $202 $239 $254 reversed $80 $-1 #
coedge $-1 $208 $204 $238 $254 forward $142 $-1 #
vertex $-1 $205 $255 #
straight-curve $-1 0 45.219890294140612 12.857452678103575 -1 0 0 I I #
point $-1 -56.439406772328823 45.219890294140612 12.857452678103575 #
vertex $-1 $254 $256 #
straight-curve $-1 0 -45.219890294140612 12.857452678103575 1 0 0 I I #
straight-curve $-1 -72.634052552873328 -45.219890294140612 0 0 0 -1 I I #
straight-curve $-1 -72.634052552873328 45.219890294140612 0 0 0 -1 I I #
straight-curve $-1 56.439406772328809 -45.219890294140612 5.636666916358652 0 0 -1 I I #
straight-curve $-1 0 -45.219890294140612 12.857452678103575 1 0 0 I I #
straight-curve $-1 0 45.219890294140612 12.857452678103575 -1 0 0 I I #
point $-1 56.439406772328809 -45.219890294140612 12.857452678103575 #
straight-curve $-1 72.634052552873328 0 12.857452678103575 0 1 0 I I #
point $-1 72.634052552873328 45.219890294140612 12.857452678103575 #
point $-1 72.634052552873328 -45.219890294140612 12.857452678103575 #
edge $-1 $240 -45.219890294140612 $243 45.219890294140612 $238 $257 forward 7 unknown #
point $-1 -72.634052552873328 45.219890294140612 12.857452678103575 #
point $-1 -72.634052552873328 -45.219890294140612 12.857452678103575 #
straight-curve $-1 -72.634052552873328 0 12.857452678103575 0 -1 0 I I #
End-of-ACIS-data 