500 0 7 0           
7 Unknown 11 ACIS 5.0 NT 24 Fri Mar 26 20:40:33 1999 
-1 9.9999999999999995e-007 1e-010 
body $-1 $7 $-1 $8 #
body $-1 $9 $-1 $10 #
body $-1 $11 $-1 $12 #
body $-1 $13 $-1 $14 #
body $-1 $15 $-1 $16 #
body $-1 $17 $-1 $18 #
body $-1 $19 $-1 $20 #
lump $-1 $-1 $21 $0 #
transform $-1 1 0 0 0 1 0 0 0 1 78.801232947782836 33.209451762420365 11.722276681702022 1 rotate no_reflect no_shear #
lump $-1 $-1 $22 $1 #
transform $-1 1 0 0 0 1 0 0 0 1 78.801232947782836 33.209451762420365 11.722276681702022 1 rotate no_reflect no_shear #
lump $-1 $-1 $23 $2 #
transform $-1 1 0 0 0 1 0 0 0 1 78.801232947782836 33.209451762420365 11.722276681702022 1 rotate no_reflect no_shear #
lump $-1 $-1 $24 $3 #
transform $-1 1 0 0 0 1 0 0 0 1 78.801232947782836 33.209451762420365 11.722276681702022 1 rotate no_reflect no_shear #
lump $-1 $-1 $25 $4 #
transform $-1 1 0 0 0 1 0 0 0 1 78.801232947782836 33.209451762420365 11.722276681702022 1 rotate no_reflect no_shear #
lump $-1 $-1 $26 $5 #
transform $-1 1 0 0 0 1 0 0 0 1 78.801232947782836 33.209451762420365 11.722276681702022 1 rotate no_reflect no_shear #
lump $-1 $-1 $27 $6 #
transform $-1 1 0 0 0 1 0 0 0 1 78.801232947782836 33.209451762420365 11.722276681702022 1 rotate no_reflect no_shear #
shell $-1 $-1 $-1 $28 $-1 $7 #
shell $-1 $-1 $-1 $29 $-1 $9 #
shell $-1 $-1 $-1 $30 $-1 $11 #
shell $-1 $-1 $-1 $31 $-1 $13 #
shell $-1 $-1 $-1 $32 $-1 $15 #
shell $-1 $-1 $-1 $33 $-1 $17 #
shell $-1 $-1 $-1 $34 $-1 $19 #
face $-1 $35 $36 $21 $-1 $37 forward single #
face $-1 $38 $39 $22 $-1 $40 reversed single #
face $-1 $41 $42 $23 $-1 $43 reversed single #
face $-1 $44 $45 $24 $-1 $46 forward single #
face $-1 $47 $48 $25 $-1 $49 reversed single #
face $-1 $50 $51 $26 $-1 $52 forward single #
face $-1 $53 $54 $27 $-1 $55 forward single #
face $-1 $56 $57 $21 $-1 $58 reversed single #
loop $-1 $-1 $59 $28 #
plane-surface $-1 0 0 11.722276681702022 0 0 1 1 0 0 forward_v I I I I #
face $-1 $60 $61 $22 $-1 $62 reversed single #
loop $-1 $-1 $63 $29 #
plane-surface $-1 -71.737451338814168 0 4.7719078402626725 0 0 1 1 0 0 forward_v I I I I #
face $-1 $64 $65 $23 $-1 $66 reversed single #
loop $-1 $-1 $67 $30 #
plane-surface $-1 72.907898633613684 -119.04590782839912 133.05418019499717 -1 0 0 0 -0.54463904215088732 0.83867056331134215 forward_v I I I I #
face $-1 $68 $69 $24 $-1 $70 forward single #
loop $-1 $71 $72 $31 #
cone-surface $-1 60.224510565094988 -22.485166366243249 2.6433278327883523 0 0.54463904215088732 -0.83867056331134215 2.5 0 0 1 I I 0 1 2.5 forward I I I I #
face $-1 $73 $74 $25 $-1 $75 reversed single #
loop $-1 $-1 $76 $32 #
plane-surface $-1 -46.84953916159629 100.44073268751271 164.55711855127439 -1 0 0 0 0.71933980857756763 0.69465836192734942 forward_v I I I I #
face $-1 $77 $78 $26 $-1 $79 forward single #
loop $-1 $80 $81 $33 #
cone-surface $-1 -59.58106099606001 30.571039910750105 9.0252439702026646 0 -0.71933980857756763 -0.69465836192734942 0.5 0 0 1 I I 0 1 0.5 forward I I I I #
face $-1 $82 $83 $27 $-1 $84 forward single #
loop $-1 $85 $86 $34 #
cone-surface $-1 -51.94214789538178 30.571039910750105 9.0252439702026646 0 -0.71933980857756763 -0.69465836192734942 0.5 0 0 1 I I 0 1 0.5 forward I I I I #
face $-1 $87 $88 $21 $-1 $89 reversed single #
loop $-1 $-1 $90 $35 #
plane-surface $-1 0 0 -11.722276681702022 0 0 1 1 0 0 forward_v I I I I #
coedge $-1 $91 $92 $93 $94 forward $36 $-1 #
face $-1 $95 $96 $22 $-1 $97 reversed single #
loop $-1 $-1 $98 $38 #
plane-surface $-1 -64.6736697298455 0 8.2470922609823472 -1 0 0 0 0 1 forward_v I I I I #
coedge $-1 $99 $100 $101 $102 forward $39 $-1 #
face $-1 $103 $104 $23 $-1 $105 reversed single #
loop $-1 $-1 $106 $41 #
plane-surface $-1 60.224510565094988 -33.209451762420343 0.87763134310651481 0 -0.54463904215088732 0.83867056331134215 1 0 0 forward_v I I I I #
coedge $-1 $107 $108 $109 $110 reversed $42 $-1 #
face $-1 $-1 $111 $24 $-1 $112 forward single #
loop $-1 $113 $114 $44 #
cone-surface $-1 60.224510565094988 -19.429726712793613 -2.061636550966746 0 0.54463904215088732 -0.83867056331134215 1.25 0 0 1 I I -0.70710678118654746 0.70710678118654746 1.25 forward I I I I #
loop $-1 $-1 $115 $31 #
coedge $-1 $72 $72 $116 $117 reversed $45 $-1 #
face $-1 $118 $119 $25 $-1 $120 forward single #
loop $-1 $-1 $121 $47 #
plane-surface $-1 -55.761604445720891 -12.928994961156135 55.077247756549781 0 0.71933980857756763 0.69465836192734942 1 0 0 forward_v I I I I #
coedge $-1 $122 $123 $124 $125 reversed $48 $-1 #
face $-1 $-1 $126 $26 $-1 $127 forward single #
loop $-1 $128 $129 $50 #
cone-surface $-1 -59.58106099606001 29.888312516057091 8.3659418045430325 0 -0.71933980857756763 -0.69465836192734942 0.25 0 0 1 I I -0.70710678118654746 0.70710678118654746 0.25 forward I I I I #
loop $-1 $-1 $130 $33 #
coedge $-1 $81 $81 $131 $132 reversed $51 $-1 #
face $-1 $-1 $133 $27 $-1 $134 forward single #
loop $-1 $135 $136 $53 #
cone-surface $-1 -51.94214789538178 29.888312516057091 8.3659418045430325 0 -0.71933980857756763 -0.69465836192734942 0.25 0 0 1 I I -0.70710678118654746 0.70710678118654746 0.25 forward I I I I #
loop $-1 $-1 $137 $34 #
coedge $-1 $86 $86 $138 $139 reversed $54 $-1 #
face $-1 $140 $141 $21 $-1 $142 reversed single #
loop $-1 $-1 $143 $56 #
plane-surface $-1 0 -33.209451762420365 0 0 1 0 0 0 1 forward_v I I I I #
coedge $-1 $144 $145 $146 $147 forward $57 $-1 #
coedge $-1 $148 $59 $149 $150 forward $36 $-1 #
coedge $-1 $59 $148 $151 $152 forward $36 $-1 #
coedge $-1 $153 $154 $59 $94 reversed $155 $-1 #
edge $-1 $156 -33.209451762420365 $157 33.209451762420365 $93 $158 forward 7 unknown #
face $-1 $159 $160 $22 $-1 $161 reversed single #
loop $-1 $-1 $162 $60 #
plane-surface $-1 0 33.209451762420365 0 0 -1 0 0 0 -1 forward_v I I I I #
coedge $-1 $163 $164 $165 $166 reversed $61 $-1 #
coedge $-1 $167 $63 $168 $169 reversed $39 $-1 #
coedge $-1 $63 $167 $170 $171 reversed $39 $-1 #
coedge $-1 $164 $163 $63 $102 reversed $61 $-1 #
edge $-1 $172 -33.209451762420365 $173 33.209451762420365 $101 $174 forward 7 unknown #
face $-1 $175 $176 $23 $-1 $177 reversed single #
loop $-1 $-1 $178 $64 #
plane-surface $-1 47.541122496576293 -119.04590782839912 133.05418019499717 1 0 0 0 0.54463904215088732 -0.83867056331134215 forward_v I I I I #
coedge $-1 $179 $180 $181 $182 reversed $65 $-1 #
coedge $-1 $108 $67 $183 $184 reversed $42 $-1 #
coedge $-1 $67 $107 $179 $185 reversed $42 $-1 #
coedge $-1 $181 $186 $67 $110 forward $187 $-1 #
edge $-1 $188 26.313502151779197 $189 43.012791242611428 $109 $190 forward 7 unknown #
loop $-1 $-1 $116 $68 #
plane-surface $-1 60.224510565094988 -33.209451762420343 0.87763134310651481 0 -0.54463904215088732 0.83867056331134215 1 0 0 forward_v I I I I #
loop $-1 $-1 $191 $44 #
coedge $-1 $114 $114 $115 $192 reversed $69 $-1 #
coedge $-1 $115 $115 $114 $192 forward $71 $-1 #
coedge $-1 $116 $116 $72 $117 forward $111 $-1 #
edge $-1 $193 4.8792014888211371e-016 $193 6.2831853071796013 $116 $194 forward 7 unknown #
face $-1 $195 $196 $25 $-1 $197 forward single #
loop $-1 $-1 $198 $73 #
plane-surface $-1 0 0 11.722276681702022 0 0 1 1 0 0 forward_v I I I I #
coedge $-1 $199 $200 $201 $202 reversed $74 $-1 #
coedge $-1 $123 $76 $203 $204 reversed $48 $-1 #
coedge $-1 $76 $122 $199 $205 reversed $48 $-1 #
coedge $-1 $201 $206 $76 $125 forward $207 $-1 #
edge $-1 $208 70.556282593935165 $209 74.979072866578264 $124 $210 forward 7 unknown #
loop $-1 $-1 $131 $77 #
plane-surface $-1 -55.761604445720891 -12.928994961156135 55.077247756549781 0 0.71933980857756763 0.69465836192734942 1 0 0 forward_v I I I I #
loop $-1 $-1 $211 $50 #
coedge $-1 $129 $129 $130 $212 reversed $78 $-1 #
coedge $-1 $130 $130 $129 $212 forward $80 $-1 #
coedge $-1 $131 $131 $81 $132 forward $126 $-1 #
edge $-1 $213 -1.5033750201174806e-015 $213 6.2831853071795987 $131 $214 forward 7 unknown #
loop $-1 $-1 $138 $82 #
plane-surface $-1 -55.761604445720891 -12.928994961156135 55.077247756549781 0 0.71933980857756763 0.69465836192734942 1 0 0 forward_v I I I I #
loop $-1 $-1 $215 $53 #
coedge $-1 $136 $136 $137 $216 reversed $83 $-1 #
coedge $-1 $137 $137 $136 $216 forward $85 $-1 #
coedge $-1 $138 $138 $86 $139 forward $133 $-1 #
edge $-1 $217 -1.5033750201174806e-015 $217 6.2831853071795987 $138 $218 forward 7 unknown #
face $-1 $219 $220 $21 $-1 $221 reversed single #
loop $-1 $-1 $222 $87 #
plane-surface $-1 -78.801232947782836 0 0 1 0 0 0 0 -1 forward_v I I I I #
coedge $-1 $223 $151 $224 $225 forward $88 $-1 #
coedge $-1 $226 $90 $223 $227 forward $57 $-1 #
coedge $-1 $90 $226 $228 $229 forward $57 $-1 #
coedge $-1 $154 $153 $90 $147 reversed $155 $-1 #
edge $-1 $230 -33.209451762420365 $231 33.209451762420365 $146 $232 forward 7 unknown #
coedge $-1 $92 $91 $233 $234 forward $36 $-1 #
coedge $-1 $235 $236 $91 $150 reversed $220 $-1 #
edge $-1 $157 -78.801232947782836 $237 78.801232947782836 $149 $238 forward 7 unknown #
coedge $-1 $143 $239 $92 $152 reversed $88 $-1 #
edge $-1 $240 -78.801232947782836 $156 78.801232947782836 $151 $241 forward 7 unknown #
coedge $-1 $146 $93 $239 $242 forward $155 $-1 #
coedge $-1 $93 $146 $235 $243 reversed $155 $-1 #
loop $-1 $-1 $153 $219 #
vertex $-1 $94 $244 #
vertex $-1 $94 $245 #
straight-curve $-1 78.801232947782836 0 11.722276681702022 0 1 0 I I #
face $-1 $246 $247 $22 $-1 $248 forward single #
loop $-1 $-1 $249 $95 #
plane-surface $-1 -78.801232947782836 0 0 1 0 0 0 0 -1 forward_v I I I I #
coedge $-1 $170 $250 $164 $251 forward $96 $-1 #
coedge $-1 $101 $98 $252 $253 reversed $61 $-1 #
coedge $-1 $98 $101 $162 $251 reversed $61 $-1 #
coedge $-1 $254 $255 $98 $166 forward $247 $-1 #
edge $-1 $256 -33.209451762420365 $257 33.209451762420365 $165 $258 forward 7 unknown #
coedge $-1 $100 $99 $249 $259 reversed $39 $-1 #
coedge $-1 $252 $260 $99 $169 forward $261 $-1 #
edge $-1 $262 -42.932507278375752 $173 -28.804944060438416 $168 $263 forward 7 unknown #
coedge $-1 $264 $162 $100 $171 forward $96 $-1 #
edge $-1 $172 28.804944060438416 $265 42.932507278375752 $170 $266 forward 7 unknown #
vertex $-1 $171 $267 #
vertex $-1 $169 $268 #
straight-curve $-1 -64.6736697298455 0 4.7719078402626725 0 -1 0 I I #
face $-1 $-1 $187 $23 $-1 $269 forward single #
loop $-1 $-1 $270 $103 #
plane-surface $-1 0 -33.209451762420365 0 0 1 0 0 0 1 forward_v I I I I #
coedge $-1 $271 $272 $273 $274 reversed $104 $-1 #
coedge $-1 $275 $106 $108 $185 forward $65 $-1 #
coedge $-1 $106 $275 $271 $276 forward $65 $-1 #
coedge $-1 $273 $109 $106 $182 forward $187 $-1 #
edge $-1 $189 -42.79564335106619 $277 -17.428867214028799 $181 $278 forward 7 unknown #
coedge $-1 $279 $280 $107 $184 forward $176 $-1 #
edge $-1 $281 -65.649458754392086 $188 -54.804813415796566 $183 $282 forward 7 unknown #
edge $-1 $189 -19.911619438385937 $281 2.5435723352522492e-014 $108 $283 forward 7 unknown #
coedge $-1 $109 $273 $279 $284 forward $187 $-1 #
loop $-1 $-1 $273 $175 #
vertex $-1 $184 $285 #
vertex $-1 $110 $286 #
straight-curve $-1 72.907898633613684 -59.522953914199562 11.72227668170202 0 1 0 I I #
coedge $-1 $191 $191 $-1 $287 reversed $113 $-1 #
edge $-1 $288 0 $288 6.2831853071796004 $114 $289 forward 7 unknown #
vertex $-1 $117 $290 #
ellipse-curve $-1 60.224510565094988 -24.85980721700426 6.2999540124042541 0 -0.54463904215088732 0.83867056331134215 2.5 0 0 1 I I #
face $-1 $-1 $207 $25 $-1 $291 reversed single #
loop $-1 $-1 $292 $118 #
plane-surface $-1 -64.6736697298455 0 8.2470922609823472 -1 0 0 0 0 1 forward_v I I I I #
coedge $-1 $203 $293 $294 $295 forward $119 $-1 #
coedge $-1 $294 $121 $123 $205 forward $74 $-1 #
coedge $-1 $121 $294 $292 $296 reversed $74 $-1 #
coedge $-1 $297 $124 $121 $202 forward $207 $-1 #
edge $-1 $209 18.968736938735844 $298 36.792867506985054 $201 $299 forward 7 unknown #
coedge $-1 $300 $198 $122 $204 forward $119 $-1 #
edge $-1 $301 -21.281953399579244 $208 -17.010914581335989 $203 $302 forward 7 unknown #
edge $-1 $209 -66.418903524840701 $301 -60.270501587529921 $123 $303 forward 7 unknown #
coedge $-1 $124 $297 $300 $304 reversed $207 $-1 #
loop $-1 $-1 $201 $195 #
vertex $-1 $304 $305 #
vertex $-1 $125 $306 #
straight-curve $-1 -46.84953916159629 33.209451762420365 82.278559275637193 0 0 -1 I I #
coedge $-1 $211 $211 $-1 $307 reversed $128 $-1 #
edge $-1 $308 0 $308 6.2831853071796004 $129 $309 forward 7 unknown #
vertex $-1 $132 $310 #
ellipse-curve $-1 -59.58106099606001 31.073932353298744 9.5108815453804763 0 0.71933980857756763 0.69465836192734942 0.5 0 0 1 I I #
coedge $-1 $215 $215 $-1 $311 reversed $135 $-1 #
edge $-1 $312 0 $312 6.2831853071796004 $136 $313 forward 7 unknown #
vertex $-1 $139 $314 #
ellipse-curve $-1 -51.94214789538178 31.073932353298744 9.5108815453804763 0 0.71933980857756763 0.69465836192734942 0.5 0 0 1 I I #
face $-1 $-1 $155 $21 $-1 $315 reversed single #
loop $-1 $-1 $235 $140 #
plane-surface $-1 0 33.209451762420365 0 0 -1 0 0 0 -1 forward_v I I I I #
coedge $-1 $316 $233 $236 $317 forward $141 $-1 #
coedge $-1 $239 $143 $144 $227 reversed $88 $-1 #
coedge $-1 $233 $316 $143 $225 reversed $141 $-1 #
edge $-1 $240 -11.722276681702022 $318 11.722276681702022 $224 $319 forward 7 unknown #
coedge $-1 $145 $144 $316 $320 forward $57 $-1 #
edge $-1 $231 -78.801232947782836 $318 78.801232947782836 $223 $321 forward 7 unknown #
coedge $-1 $236 $235 $145 $229 reversed $220 $-1 #
edge $-1 $322 -78.801232947782836 $230 78.801232947782836 $228 $323 forward 7 unknown #
vertex $-1 $147 $324 #
vertex $-1 $242 $325 #
straight-curve $-1 78.801232947782836 0 -11.722276681702022 0 -1 0 I I #
coedge $-1 $222 $224 $148 $234 reversed $141 $-1 #
edge $-1 $237 -33.209451762420365 $240 33.209451762420365 $233 $326 forward 7 unknown #
coedge $-1 $228 $149 $154 $243 forward $220 $-1 #
coedge $-1 $149 $228 $222 $317 reversed $220 $-1 #
vertex $-1 $150 $327 #
straight-curve $-1 0 33.209451762420365 11.722276681702022 -1 0 0 I I #
coedge $-1 $151 $223 $153 $242 reversed $88 $-1 #
vertex $-1 $234 $328 #
straight-curve $-1 0 -33.209451762420365 11.722276681702022 1 0 0 I I #
edge $-1 $156 -11.722276681702022 $231 11.722276681702022 $153 $329 forward 7 unknown #
edge $-1 $157 -11.722276681702022 $230 11.722276681702022 $154 $330 forward 7 unknown #
point $-1 78.801232947782836 -33.209451762420365 11.722276681702022 #
point $-1 78.801232947782836 33.209451762420365 11.722276681702022 #
face $-1 $-1 $261 $22 $-1 $331 reversed single #
loop $-1 $-1 $165 $159 #
plane-surface $-1 0 0 11.722276681702022 0 0 1 1 0 0 forward_v I I I I #
coedge $-1 $332 $333 $167 $259 forward $160 $-1 #
coedge $-1 $162 $264 $254 $334 reversed $96 $-1 #
edge $-1 $257 -7.5987305512108483 $172 -0.64836170977149887 $162 $335 forward 7 unknown #
coedge $-1 $336 $168 $163 $253 forward $261 $-1 #
edge $-1 $173 0.64836170977149887 $256 7.5987305512108483 $252 $337 forward 7 unknown #
coedge $-1 $338 $165 $250 $334 forward $247 $-1 #
coedge $-1 $165 $338 $336 $339 forward $247 $-1 #
vertex $-1 $253 $340 #
vertex $-1 $334 $341 #
straight-curve $-1 -64.6736697298455 0 11.722276681702022 0 1 0 I I #
edge $-1 $265 -33.209451762420365 $262 33.209451762420365 $249 $342 forward 7 unknown #
coedge $-1 $168 $336 $332 $343 forward $261 $-1 #
loop $-1 $-1 $252 $246 #
vertex $-1 $259 $344 #
straight-curve $-1 -35.868725669407084 -33.209451762420365 4.7719078402626725 1 0 0 I I #
coedge $-1 $250 $170 $333 $345 reversed $96 $-1 #
vertex $-1 $259 $346 #
straight-curve $-1 -35.868725669407084 33.209451762420365 4.7719078402626725 -1 0 0 I I #
point $-1 -64.6736697298455 33.209451762420365 4.7719078402626725 #
point $-1 -64.6736697298455 -33.209451762420365 4.7719078402626725 #
plane-surface $-1 0 0 11.722276681702022 0 0 1 1 0 0 forward_v I I I I #
coedge $-1 $280 $279 $272 $347 forward $176 $-1 #
coedge $-1 $272 $178 $180 $276 reversed $104 $-1 #
coedge $-1 $178 $271 $270 $347 reversed $104 $-1 #
coedge $-1 $186 $181 $178 $274 forward $187 $-1 #
edge $-1 $277 -43.012791242611428 $348 -26.313502151779197 $273 $349 forward 7 unknown #
coedge $-1 $180 $179 $280 $350 reversed $65 $-1 #
edge $-1 $351 -2.5435723352522492e-014 $277 19.911619438385937 $271 $352 forward 7 unknown #
vertex $-1 $182 $353 #
straight-curve $-1 30.112255282547494 -16.510162671588137 11.722276681702022 -1 0 0 I I #
coedge $-1 $270 $183 $186 $284 reversed $176 $-1 #
coedge $-1 $183 $270 $275 $350 forward $176 $-1 #
vertex $-1 $184 $354 #
straight-curve $-1 72.907898633613684 -33.209451762420365 66.527090097498586 0 0 1 I I #
straight-curve $-1 72.907898633613684 -33.209451762420343 0.87763134310651481 0 -0.83867056331134215 -0.54463904215088732 I I #
edge $-1 $348 47.541122496576293 $188 72.907898633613684 $279 $355 forward 7 unknown #
point $-1 72.907898633613684 -33.209451762420365 11.722276681702022 #
point $-1 72.907898633613684 -16.510162671588137 11.722276681702022 #
edge $-1 $356 1 $356 0 $191 $-1 forward 7 unknown #
vertex $-1 $192 $357 #
ellipse-curve $-1 60.224510565094988 -20.110525515482223 -1.0132983468275683 0 -0.54463904215088732 0.83867056331134215 2.5 0 0 1 I I #
point $-1 62.724510565094988 -24.859807217004271 6.2999540124042728 #
plane-surface $-1 0 33.209451762420365 0 0 -1 0 0 0 -1 forward_v I I I I #
coedge $-1 $358 $359 $200 $296 forward $196 $-1 #
coedge $-1 $198 $300 $358 $360 forward $119 $-1 #
coedge $-1 $200 $199 $198 $295 reversed $74 $-1 #
edge $-1 $361 -36.792867506985054 $301 -18.968736938735844 $198 $362 forward 7 unknown #
edge $-1 $298 -45.084888749379274 $361 -38.93648681206848 $292 $363 forward 7 unknown #
coedge $-1 $206 $201 $359 $364 forward $207 $-1 #
vertex $-1 $364 $365 #
straight-curve $-1 -27.880802222860446 33.209451762420365 7.2994864090589324 -1 0 0 I I #
coedge $-1 $293 $203 $206 $304 forward $119 $-1 #
vertex $-1 $204 $366 #
straight-curve $-1 -46.84953916159629 50.220366343756353 11.722276681702027 0 1 0 I I #
straight-curve $-1 -46.84953916159629 -12.928994961156135 55.077247756549781 0 -0.69465836192734942 0.71933980857756763 I I #
edge $-1 $208 46.84953916159629 $367 64.6736697298455 $206 $368 forward 7 unknown #
point $-1 -46.84953916159629 33.209451762420365 11.722276681702022 #
point $-1 -46.84953916159629 33.209451762420358 7.299486409058936 #
edge $-1 $369 1 $369 0 $211 $-1 forward 7 unknown #
vertex $-1 $212 $370 #
ellipse-curve $-1 -59.58106099606001 30.068147468201484 8.5396063950248706 0 0.71933980857756763 0.69465836192734942 0.5 0 0 1 I I #
point $-1 -59.08106099606001 31.073932353298723 9.5108815453804567 #
edge $-1 $371 1 $371 0 $215 $-1 forward 7 unknown #
vertex $-1 $216 $372 #
ellipse-curve $-1 -51.94214789538178 30.068147468201484 8.5396063950248706 0 0.71933980857756763 0.69465836192734942 0.5 0 0 1 I I #
point $-1 -51.44214789538178 31.073932353298723 9.5108815453804567 #
plane-surface $-1 78.801232947782836 0 0 -1 0 0 0 0 1 forward_v I I I I #
coedge $-1 $224 $222 $226 $320 reversed $141 $-1 #
edge $-1 $237 -11.722276681702022 $322 11.722276681702022 $236 $373 forward 7 unknown #
vertex $-1 $320 $374 #
straight-curve $-1 -78.801232947782836 -33.209451762420365 0 0 0 -1 I I #
edge $-1 $318 -33.209451762420365 $322 33.209451762420365 $316 $375 forward 7 unknown #
straight-curve $-1 0 -33.209451762420365 -11.722276681702022 -1 0 0 I I #
vertex $-1 $229 $376 #
straight-curve $-1 0 33.209451762420365 -11.722276681702022 1 0 0 I I #
point $-1 78.801232947782836 33.209451762420365 -11.722276681702022 #
point $-1 78.801232947782836 -33.209451762420365 -11.722276681702022 #
straight-curve $-1 -78.801232947782836 0 11.722276681702022 0 -1 0 I I #
point $-1 -78.801232947782836 33.209451762420365 11.722276681702022 #
point $-1 -78.801232947782836 -33.209451762420365 11.722276681702022 #
straight-curve $-1 78.801232947782836 -33.209451762420365 0 0 0 -1 I I #
straight-curve $-1 78.801232947782836 33.209451762420365 0 0 0 -1 I I #
plane-surface $-1 0 -33.209451762420365 0 0 1 0 0 0 1 forward_v I I I I #
coedge $-1 $377 $249 $260 $343 reversed $160 $-1 #
coedge $-1 $249 $377 $264 $345 forward $160 $-1 #
edge $-1 $257 64.6736697298455 $378 78.801232947782836 $250 $379 forward 7 unknown #
straight-curve $-1 -64.6736697298455 33.209451762420365 4.1235461304911736 0 0 -1 I I #
coedge $-1 $260 $252 $255 $339 reversed $261 $-1 #
straight-curve $-1 -64.6736697298455 -33.209451762420365 4.1235461304911736 0 0 1 I I #
coedge $-1 $255 $254 $377 $380 forward $247 $-1 #
edge $-1 $381 -78.801232947782836 $256 -64.6736697298455 $336 $382 forward 7 unknown #
point $-1 -64.6736697298455 -33.209451762420365 11.722276681702022 #
point $-1 -64.6736697298455 33.209451762420365 11.722276681702022 #
straight-curve $-1 -78.801232947782836 0 4.7719078402626725 0 -1 0 I I #
edge $-1 $381 -11.722276681702022 $262 -4.7719078402626725 $332 $383 forward 7 unknown #
point $-1 -78.801232947782836 -33.209451762420365 4.7719078402626725 #
edge $-1 $378 -11.722276681702022 $265 -4.7719078402626725 $264 $384 forward 7 unknown #
point $-1 -78.801232947782836 33.209451762420365 4.7719078402626725 #
edge $-1 $348 54.804813415796566 $351 65.649458754392086 $270 $385 forward 7 unknown #
vertex $-1 $284 $386 #
straight-curve $-1 47.541122496576293 -59.522953914199562 11.72227668170202 0 -1 0 I I #
edge $-1 $351 17.428867214028799 $281 42.79564335106619 $280 $387 forward 7 unknown #
vertex $-1 $350 $388 #
straight-curve $-1 47.541122496576293 -33.209451762420343 0.87763134310651481 0 0.83867056331134215 0.54463904215088732 I I #
point $-1 47.541122496576293 -16.510162671588137 11.722276681702022 #
point $-1 72.907898633613684 -33.209451762420365 0.87763134310650093 #
straight-curve $-1 0 -33.209451762420365 11.722276681702022 1 0 0 I I #
vertex $-1 $287 $389 #
point $-1 62.724510565094988 -20.110525515482223 -1.0132983468275683 #
coedge $-1 $359 $292 $293 $360 reversed $196 $-1 #
coedge $-1 $292 $358 $297 $364 reversed $196 $-1 #
edge $-1 $367 -33.209451762420365 $361 -28.938412944177109 $293 $390 forward 7 unknown #
vertex $-1 $296 $391 #
straight-curve $-1 -27.880802222860446 28.938412944177113 11.722276681702024 1 0 0 I I #
straight-curve $-1 -64.6736697298455 1.8908567960997757 39.730841651778348 0 -0.69465836192734942 0.71933980857756763 I I #
edge $-1 $298 3.1759402785677642 $367 7.5987305512108483 $297 $392 forward 7 unknown #
point $-1 -64.6736697298455 33.209451762420365 7.2994864090589378 #
point $-1 -46.84953916159629 28.938412944177109 11.72227668170202 #
vertex $-1 $360 $393 #
straight-curve $-1 0 33.209451762420365 11.722276681702022 -1 0 0 I I #
vertex $-1 $307 $394 #
point $-1 -59.08106099606001 30.068147468201484 8.5396063950248706 #
vertex $-1 $311 $395 #
point $-1 -51.44214789538178 30.068147468201484 8.5396063950248706 #
straight-curve $-1 -78.801232947782836 33.209451762420365 0 0 0 -1 I I #
point $-1 -78.801232947782836 -33.209451762420365 -11.722276681702022 #
straight-curve $-1 -78.801232947782836 0 -11.722276681702022 0 1 0 I I #
point $-1 -78.801232947782836 33.209451762420365 -11.722276681702022 #
coedge $-1 $333 $332 $338 $380 reversed $160 $-1 #
vertex $-1 $334 $396 #
straight-curve $-1 0 33.209451762420365 11.722276681702022 -1 0 0 I I #
edge $-1 $378 -33.209451762420365 $381 33.209451762420365 $377 $397 forward 7 unknown #
vertex $-1 $380 $398 #
straight-curve $-1 0 -33.209451762420365 11.722276681702022 1 0 0 I I #
straight-curve $-1 -78.801232947782836 -33.209451762420365 0 0 0 -1 I I #
straight-curve $-1 -78.801232947782836 33.209451762420365 0 0 0 -1 I I #
straight-curve $-1 47.541122496576293 -33.209451762420365 66.527090097498586 0 0 -1 I I #
point $-1 47.541122496576293 -33.209451762420365 11.722276681702022 #
straight-curve $-1 30.112255282547494 -33.209451762420365 0.87763134310650492 1 0 0 I I #
point $-1 47.541122496576293 -33.209451762420365 0.87763134310650093 #
point $-1 60.224510565094988 -18.748927910105003 -3.1099747551059238 #
straight-curve $-1 -64.6736697298455 0 11.722276681702022 0 -1 0 I I #
point $-1 -64.6736697298455 28.938412944177109 11.72227668170202 #
straight-curve $-1 -64.6736697298455 33.209451762420365 4.1235461304911736 0 0 1 I I #
point $-1 -64.6736697298455 33.209451762420365 11.722276681702022 #
point $-1 -59.58106099606001 29.708477563912698 8.1922772140611944 #
point $-1 -51.94214789538178 29.708477563912698 8.1922772140611944 #
point $-1 -78.801232947782836 33.209451762420365 11.722276681702022 #
straight-curve $-1 -78.801232947782836 0 11.722276681702022 0 -1 0 I I #
point $-1 -78.801232947782836 -33.209451762420365 11.722276681702022 #
End-of-ACIS-data 