500 0 6 0           
7 Unknown 11 ACIS 5.0 NT 24 Fri Mar 26 19:11:38 1999 
-1 9.9999999999999995e-007 1e-010 
body $-1 $6 $-1 $7 #
body $-1 $8 $-1 $9 #
body $-1 $10 $-1 $11 #
body $-1 $12 $-1 $13 #
body $-1 $14 $-1 $15 #
body $-1 $16 $-1 $17 #
lump $-1 $-1 $18 $0 #
transform $-1 1 0 0 0 1 0 0 0 1 63.303933835871455 32.754139660431669 9.0029651433356079 1 rotate no_reflect no_shear #
lump $-1 $-1 $19 $1 #
transform $-1 1 0 0 0 1 0 0 0 1 63.303933835871455 32.754139660431669 9.0029651433356079 1 rotate no_reflect no_shear #
lump $-1 $-1 $20 $2 #
transform $-1 1 0 0 0 1 0 0 0 1 63.303933835871455 32.754139660431669 9.0029651433356079 1 rotate no_reflect no_shear #
lump $-1 $-1 $21 $3 #
transform $-1 1 0 0 0 1 0 0 0 1 63.303933835871455 32.754139660431669 9.0029651433356079 1 rotate no_reflect no_shear #
lump $-1 $-1 $22 $4 #
transform $-1 1 0 0 0 1 0 0 0 1 63.303933835871455 32.754139660431669 9.0029651433356079 1 rotate no_reflect no_shear #
lump $-1 $-1 $23 $5 #
transform $-1 1 0 0 0 1 0 0 0 1 63.303933835871455 32.754139660431669 9.0029651433356079 1 rotate no_reflect no_shear #
shell $-1 $-1 $-1 $24 $-1 $6 #
shell $-1 $-1 $-1 $25 $-1 $8 #
shell $-1 $-1 $-1 $26 $-1 $10 #
shell $-1 $-1 $-1 $27 $-1 $12 #
shell $-1 $-1 $-1 $28 $-1 $14 #
shell $-1 $-1 $-1 $29 $-1 $16 #
face $-1 $30 $31 $18 $-1 $32 forward single #
face $-1 $33 $34 $19 $-1 $35 forward single #
face $-1 $36 $37 $20 $-1 $38 forward single #
face $-1 $39 $40 $21 $-1 $41 reversed single #
face $-1 $42 $43 $22 $-1 $44 forward single #
face $-1 $45 $46 $23 $-1 $47 forward single #
face $-1 $48 $49 $18 $-1 $50 reversed single #
loop $-1 $-1 $51 $24 #
plane-surface $-1 0 0 9.0029651433356079 0 0 1 1 0 0 forward_v I I I I #
face $-1 $52 $53 $19 $-1 $54 reversed single #
loop $-1 $-1 $55 $25 #
plane-surface $-1 -58.579854070669768 0 -3.7692274856512711 0 0 1 1 0 0 forward_v I I I I #
face $-1 $56 $57 $20 $-1 $58 reversed single #
loop $-1 $-1 $59 $26 #
plane-surface $-1 63.303933835871455 0 0 -1 0 0 0 0 1 forward_v I I I I #
face $-1 $60 $61 $21 $-1 $62 reversed single #
loop $-1 $-1 $63 $27 #
plane-surface $-1 -39.967942085415686 -105.37343014950514 106.74033057732925 1 0 0 0 0.57357644374324357 -0.81915203911291934 forward_v I I I I #
face $-1 $64 $65 $22 $-1 $66 forward single #
loop $-1 $67 $68 $28 #
cone-surface $-1 -33.989702349031084 -25.995918475943146 2.4563886537974096 0 0.57357644374324357 -0.81915203911291934 2.5 0 0 1 I I 0 1 2.5 forward I I I I #
face $-1 $69 $70 $23 $-1 $71 forward single #
loop $-1 $72 $73 $29 #
cone-surface $-1 -25.022342744454185 -25.995918475943146 2.4563886537974096 0 0.57357644374324357 -0.81915203911291934 2.5 0 0 1 I I 0 1 2.5 forward I I I I #
face $-1 $74 $75 $18 $-1 $76 reversed single #
loop $-1 $-1 $77 $30 #
plane-surface $-1 0 0 -9.0029651433356079 0 0 1 1 0 0 forward_v I I I I #
coedge $-1 $78 $79 $80 $81 forward $31 $-1 #
face $-1 $82 $83 $19 $-1 $84 reversed single #
loop $-1 $-1 $85 $33 #
plane-surface $-1 -53.855774305468081 0 -6.3860963144934395 -1 0 0 0 0 1 forward_v I I I I #
coedge $-1 $86 $87 $88 $89 forward $34 $-1 #
face $-1 $90 $91 $20 $-1 $92 forward single #
loop $-1 $-1 $93 $36 #
plane-surface $-1 0 32.754139660431669 0 0 -1 0 0 0 -1 forward_v I I I I #
coedge $-1 $94 $95 $96 $97 forward $37 $-1 #
face $-1 $98 $99 $21 $-1 $100 reversed single #
loop $-1 $-1 $101 $39 #
plane-surface $-1 -29.506022546742635 -32.754139660431662 3.0292376062823649 0 -0.57357644374324357 0.81915203911291934 1 0 0 forward_v I I I I #
coedge $-1 $102 $103 $104 $105 reversed $40 $-1 #
face $-1 $-1 $106 $22 $-1 $107 forward single #
loop $-1 $108 $109 $42 #
cone-surface $-1 -33.989702349031084 -22.786410192277312 -2.1272641161053176 0 0.57357644374324357 -0.81915203911291934 1.25 0 0 1 I I -0.70710678118654746 0.70710678118654746 1.25 forward I I I I #
loop $-1 $-1 $110 $28 #
coedge $-1 $68 $68 $111 $112 reversed $43 $-1 #
face $-1 $-1 $113 $23 $-1 $114 forward single #
loop $-1 $115 $116 $45 #
cone-surface $-1 -25.022342744454185 -22.786410192277312 -2.1272641161053176 0 0.57357644374324357 -0.81915203911291934 1.25 0 0 1 I I -0.70710678118654746 0.70710678118654746 1.25 forward I I I I #
loop $-1 $-1 $117 $29 #
coedge $-1 $73 $73 $118 $119 reversed $46 $-1 #
face $-1 $120 $121 $18 $-1 $122 reversed single #
loop $-1 $-1 $123 $48 #
plane-surface $-1 0 -32.754139660431669 0 0 1 0 0 0 1 forward_v I I I I #
coedge $-1 $124 $125 $126 $127 forward $49 $-1 #
coedge $-1 $128 $51 $129 $130 forward $31 $-1 #
coedge $-1 $51 $128 $131 $132 forward $31 $-1 #
coedge $-1 $133 $134 $51 $81 reversed $135 $-1 #
edge $-1 $136 -32.754139660431669 $137 32.754139660431669 $80 $138 forward 7 unknown #
face $-1 $139 $140 $19 $-1 $141 reversed single #
loop $-1 $-1 $142 $52 #
plane-surface $-1 0 0 -9.0029651433356079 0 0 1 1 0 0 forward_v I I I I #
coedge $-1 $143 $88 $144 $145 reversed $53 $-1 #
coedge $-1 $146 $55 $147 $148 reversed $34 $-1 #
coedge $-1 $55 $146 $149 $150 reversed $34 $-1 #
coedge $-1 $85 $151 $55 $89 reversed $53 $-1 #
edge $-1 $152 -32.754139660431669 $153 32.754139660431669 $88 $154 forward 7 unknown #
face $-1 $155 $156 $20 $-1 $157 reversed single #
loop $-1 $-1 $158 $56 #
plane-surface $-1 0 0 9.0029651433356079 0 0 1 1 0 0 forward_v I I I I #
coedge $-1 $159 $160 $95 $161 forward $57 $-1 #
coedge $-1 $162 $59 $163 $164 reversed $37 $-1 #
coedge $-1 $59 $162 $93 $161 reversed $37 $-1 #
coedge $-1 $165 $166 $59 $97 reversed $156 $-1 #
edge $-1 $167 -32.754139660431669 $168 32.754139660431669 $96 $169 forward 7 unknown #
face $-1 $170 $171 $21 $-1 $172 forward single #
loop $-1 $-1 $173 $60 #
plane-surface $-1 -19.04410300806958 -105.37343014950514 106.74033057732925 -1 0 0 0 -0.57357644374324357 0.81915203911291934 forward_v I I I I #
coedge $-1 $174 $175 $176 $177 reversed $61 $-1 #
coedge $-1 $103 $63 $178 $179 reversed $40 $-1 #
coedge $-1 $63 $102 $174 $180 reversed $40 $-1 #
coedge $-1 $176 $181 $63 $105 forward $182 $-1 #
edge $-1 $183 44.367200145329015 $184 50.340927682382265 $104 $185 forward 7 unknown #
loop $-1 $-1 $111 $64 #
plane-surface $-1 -29.506022546742635 -32.754139660431662 3.0292376062823649 0 -0.57357644374324357 0.81915203911291934 1 0 0 forward_v I I I I #
loop $-1 $-1 $186 $42 #
coedge $-1 $109 $109 $110 $187 reversed $65 $-1 #
coedge $-1 $110 $110 $109 $187 forward $67 $-1 #
coedge $-1 $111 $111 $68 $112 forward $106 $-1 #
edge $-1 $188 -3.4898391073976959e-016 $188 6.2831853071796004 $111 $189 forward 7 unknown #
loop $-1 $-1 $118 $69 #
plane-surface $-1 -29.506022546742635 -32.754139660431662 3.0292376062823649 0 -0.57357644374324357 0.81915203911291934 1 0 0 forward_v I I I I #
loop $-1 $-1 $190 $45 #
coedge $-1 $116 $116 $117 $191 reversed $70 $-1 #
coedge $-1 $117 $117 $116 $191 forward $72 $-1 #
coedge $-1 $118 $118 $73 $119 forward $113 $-1 #
edge $-1 $192 -3.4898391073976959e-016 $192 6.2831853071796004 $118 $193 forward 7 unknown #
face $-1 $194 $195 $18 $-1 $196 reversed single #
loop $-1 $-1 $197 $74 #
plane-surface $-1 -63.303933835871455 0 0 1 0 0 0 0 -1 forward_v I I I I #
coedge $-1 $198 $131 $199 $200 forward $75 $-1 #
coedge $-1 $201 $77 $198 $202 forward $49 $-1 #
coedge $-1 $77 $201 $203 $204 forward $49 $-1 #
coedge $-1 $134 $133 $77 $127 reversed $135 $-1 #
edge $-1 $205 -32.754139660431669 $206 32.754139660431669 $126 $207 forward 7 unknown #
coedge $-1 $79 $78 $208 $209 forward $31 $-1 #
coedge $-1 $210 $211 $78 $130 reversed $195 $-1 #
edge $-1 $137 -63.303933835871455 $212 63.303933835871455 $129 $213 forward 7 unknown #
coedge $-1 $123 $214 $79 $132 reversed $75 $-1 #
edge $-1 $215 -63.303933835871455 $136 63.303933835871455 $131 $216 forward 7 unknown #
coedge $-1 $126 $80 $214 $217 forward $135 $-1 #
coedge $-1 $80 $126 $210 $218 reversed $135 $-1 #
loop $-1 $-1 $133 $194 #
vertex $-1 $81 $219 #
vertex $-1 $81 $220 #
straight-curve $-1 63.303933835871455 0 9.0029651433356079 0 1 0 I I #
face $-1 $221 $222 $19 $-1 $223 reversed single #
loop $-1 $-1 $144 $82 #
plane-surface $-1 0 -32.754139660431669 0 0 1 0 0 0 1 forward_v I I I I #
coedge $-1 $224 $225 $143 $226 forward $83 $-1 #
coedge $-1 $151 $85 $142 $226 reversed $53 $-1 #
coedge $-1 $149 $227 $85 $145 forward $140 $-1 #
edge $-1 $228 -5.8099169860888882 $152 -0.57617932840455133 $144 $229 forward 7 unknown #
coedge $-1 $87 $86 $230 $231 reversed $34 $-1 #
coedge $-1 $232 $233 $86 $148 forward $234 $-1 #
edge $-1 $235 -34.014006800536571 $153 -24.565847270133197 $147 $236 forward 7 unknown #
coedge $-1 $237 $144 $87 $150 forward $140 $-1 #
edge $-1 $152 24.565847270133197 $238 34.014006800536571 $149 $239 forward 7 unknown #
coedge $-1 $88 $143 $232 $240 reversed $53 $-1 #
vertex $-1 $150 $241 #
vertex $-1 $148 $242 #
straight-curve $-1 -53.855774305468081 0 -3.7692274856512711 0 1 0 I I #
face $-1 $243 $244 $20 $-1 $245 reversed single #
loop $-1 $-1 $246 $90 #
plane-surface $-1 67.219420008772119 0 4.7385704534447228 0 0 1 1 0 0 forward_v I I I I #
coedge $-1 $247 $248 $162 $249 forward $91 $-1 #
coedge $-1 $250 $93 $248 $251 reversed $57 $-1 #
coedge $-1 $93 $250 $165 $252 reversed $57 $-1 #
edge $-1 $167 4.7385704534447228 $253 9.0029651433356079 $93 $254 forward 7 unknown #
coedge $-1 $95 $94 $158 $249 reversed $37 $-1 #
coedge $-1 $255 $256 $94 $164 forward $257 $-1 #
edge $-1 $258 -9.0029651433356079 $168 -4.7385704534447228 $163 $259 forward 7 unknown #
coedge $-1 $246 $96 $160 $252 forward $156 $-1 #
coedge $-1 $96 $246 $255 $260 forward $156 $-1 #
vertex $-1 $161 $261 #
vertex $-1 $164 $262 #
straight-curve $-1 63.303933835871455 0 4.7385704534447228 0 -1 0 I I #
face $-1 $-1 $182 $21 $-1 $263 reversed single #
loop $-1 $-1 $264 $98 #
plane-surface $-1 0 0 9.0029651433356079 0 0 1 1 0 0 forward_v I I I I #
coedge $-1 $265 $266 $267 $268 reversed $99 $-1 #
coedge $-1 $269 $101 $103 $180 forward $61 $-1 #
coedge $-1 $101 $269 $265 $270 forward $61 $-1 #
coedge $-1 $267 $104 $101 $177 forward $182 $-1 #
edge $-1 $184 -25.214930812044368 $271 -4.2910917346982629 $176 $272 forward 7 unknown #
coedge $-1 $273 $274 $102 $179 forward $171 $-1 #
edge $-1 $275 -28.463942325324396 $183 -19.932575414320901 $178 $276 forward 7 unknown #
edge $-1 $184 -8.6223355153435888e-015 $275 10.41487599816308 $103 $277 forward 7 unknown #
coedge $-1 $104 $267 $273 $278 reversed $182 $-1 #
loop $-1 $-1 $267 $170 #
vertex $-1 $278 $279 #
vertex $-1 $105 $280 #
straight-curve $-1 -39.967942085415686 -32.754139660431669 53.370165288664623 0 0 -1 I I #
coedge $-1 $186 $186 $-1 $281 reversed $108 $-1 #
edge $-1 $282 0 $282 6.2831853071796004 $109 $283 forward 7 unknown #
vertex $-1 $112 $284 #
ellipse-curve $-1 -33.989702349031084 -28.488456204929921 6.0161013748089829 0 -0.57357644374324357 0.81915203911291934 2.5 0 0 1 I I #
coedge $-1 $190 $190 $-1 $285 reversed $115 $-1 #
edge $-1 $286 0 $286 6.2831853071796004 $116 $287 forward 7 unknown #
vertex $-1 $119 $288 #
ellipse-curve $-1 -25.022342744454185 -28.488456204929921 6.0161013748089829 0 -0.57357644374324357 0.81915203911291934 2.5 0 0 1 I I #
face $-1 $-1 $135 $18 $-1 $289 reversed single #
loop $-1 $-1 $210 $120 #
plane-surface $-1 0 32.754139660431669 0 0 -1 0 0 0 -1 forward_v I I I I #
coedge $-1 $290 $208 $211 $291 forward $121 $-1 #
coedge $-1 $214 $123 $124 $202 reversed $75 $-1 #
coedge $-1 $208 $290 $123 $200 reversed $121 $-1 #
edge $-1 $215 -9.0029651433356079 $292 9.0029651433356079 $199 $293 forward 7 unknown #
coedge $-1 $125 $124 $290 $294 forward $49 $-1 #
edge $-1 $206 -63.303933835871455 $292 63.303933835871455 $198 $295 forward 7 unknown #
coedge $-1 $211 $210 $125 $204 reversed $195 $-1 #
edge $-1 $296 -63.303933835871455 $205 63.303933835871455 $203 $297 forward 7 unknown #
vertex $-1 $127 $298 #
vertex $-1 $217 $299 #
straight-curve $-1 63.303933835871455 0 -9.0029651433356079 0 -1 0 I I #
coedge $-1 $197 $199 $128 $209 reversed $121 $-1 #
edge $-1 $212 -32.754139660431669 $215 32.754139660431669 $208 $300 forward 7 unknown #
coedge $-1 $203 $129 $134 $218 forward $195 $-1 #
coedge $-1 $129 $203 $197 $291 reversed $195 $-1 #
vertex $-1 $130 $301 #
straight-curve $-1 0 32.754139660431669 9.0029651433356079 -1 0 0 I I #
coedge $-1 $131 $198 $133 $217 reversed $75 $-1 #
vertex $-1 $209 $302 #
straight-curve $-1 0 -32.754139660431669 9.0029651433356079 1 0 0 I I #
edge $-1 $136 -9.0029651433356079 $206 9.0029651433356079 $133 $303 forward 7 unknown #
edge $-1 $137 -9.0029651433356079 $205 9.0029651433356079 $134 $304 forward 7 unknown #
point $-1 63.303933835871455 -32.754139660431669 9.0029651433356079 #
point $-1 63.303933835871455 32.754139660431669 9.0029651433356079 #
face $-1 $-1 $234 $19 $-1 $305 reversed single #
loop $-1 $-1 $230 $139 #
plane-surface $-1 -63.303933835871455 0 0 1 0 0 0 0 -1 forward_v I I I I #
coedge $-1 $306 $142 $227 $307 forward $83 $-1 #
coedge $-1 $142 $306 $308 $309 forward $83 $-1 #
edge $-1 $310 -32.754139660431669 $228 32.754139660431669 $142 $311 forward 7 unknown #
coedge $-1 $144 $237 $224 $307 reversed $140 $-1 #
vertex $-1 $307 $312 #
straight-curve $-1 -53.855774305468081 -32.754139660431669 -3.1930481572467198 0 0 1 I I #
coedge $-1 $313 $314 $146 $231 forward $222 $-1 #
edge $-1 $238 -32.754139660431669 $235 32.754139660431669 $230 $315 forward 7 unknown #
coedge $-1 $308 $147 $151 $240 forward $234 $-1 #
coedge $-1 $147 $308 $313 $316 reversed $234 $-1 #
loop $-1 $-1 $232 $221 #
vertex $-1 $316 $317 #
straight-curve $-1 -29.289927035334884 32.754139660431669 -3.7692274856512711 1 0 0 I I #
coedge $-1 $227 $149 $314 $318 forward $140 $-1 #
vertex $-1 $318 $319 #
straight-curve $-1 -29.289927035334884 -32.754139660431669 -3.7692274856512711 -1 0 0 I I #
edge $-1 $153 0.57617932840455133 $310 5.8099169860888882 $232 $320 forward 7 unknown #
point $-1 -53.855774305468081 -32.754139660431669 -3.7692274856512711 #
point $-1 -53.855774305468081 32.754139660431669 -3.7692274856512711 #
face $-1 $-1 $257 $20 $-1 $321 reversed single #
loop $-1 $-1 $322 $155 #
plane-surface $-1 71.134906181672761 0 6.8707677983901654 -1 0 0 0 0 1 forward_v I I I I #
coedge $-1 $166 $165 $323 $324 forward $156 $-1 #
coedge $-1 $325 $158 $256 $326 forward $91 $-1 #
coedge $-1 $158 $325 $159 $251 forward $91 $-1 #
edge $-1 $253 -32.754139660431669 $258 32.754139660431669 $158 $327 forward 7 unknown #
coedge $-1 $160 $159 $328 $329 forward $57 $-1 #
edge $-1 $330 -71.134906181672761 $253 -63.303933835871455 $159 $331 forward 7 unknown #
edge $-1 $167 -3.9154861729006498 $332 3.9154861729006427 $160 $333 forward 7 unknown #
vertex $-1 $249 $334 #
straight-curve $-1 63.303933835871455 32.754139660431669 0 0 0 1 I I #
coedge $-1 $335 $163 $166 $260 reversed $257 $-1 #
coedge $-1 $163 $335 $247 $326 reversed $257 $-1 #
loop $-1 $-1 $163 $243 #
vertex $-1 $326 $336 #
straight-curve $-1 63.303933835871455 -32.754139660431669 0 0 0 -1 I I #
edge $-1 $337 -3.9154861729006427 $168 3.9154861729006498 $255 $338 forward 7 unknown #
point $-1 63.303933835871469 32.754139660431669 4.7385704534447228 #
point $-1 63.303933835871469 -32.754139660431669 4.7385704534447228 #
plane-surface $-1 0 -32.754139660431669 0 0 1 0 0 0 1 forward_v I I I I #
coedge $-1 $274 $273 $266 $339 forward $171 $-1 #
coedge $-1 $266 $173 $175 $270 reversed $99 $-1 #
coedge $-1 $173 $265 $264 $339 reversed $99 $-1 #
coedge $-1 $181 $176 $173 $268 forward $182 $-1 #
edge $-1 $271 -50.340927682382265 $340 -44.367200145329015 $267 $341 forward 7 unknown #
coedge $-1 $175 $174 $274 $342 reversed $61 $-1 #
edge $-1 $343 -10.41487599816308 $271 8.6223355153435888e-015 $265 $344 forward 7 unknown #
vertex $-1 $177 $345 #
straight-curve $-1 -14.753011273371317 -32.754139660431669 3.0292376062823583 1 0 0 I I #
coedge $-1 $264 $178 $181 $278 forward $171 $-1 #
coedge $-1 $178 $264 $269 $342 forward $171 $-1 #
vertex $-1 $179 $346 #
straight-curve $-1 -39.967942085415686 -52.68671507475257 9.0029651433356079 0 -1 0 I I #
straight-curve $-1 -39.967942085415686 -32.754139660431662 3.0292376062823649 0 0.81915203911291934 0.57357644374324357 I I #
edge $-1 $183 -107.1873620941878 $340 -86.263523016841702 $181 $347 forward 7 unknown #
point $-1 -39.967942085415686 -32.754139660431669 9.0029651433356079 #
point $-1 -39.967942085415686 -32.754139660431669 3.0292376062823601 #
edge $-1 $348 1 $348 0 $186 $-1 forward 7 unknown #
vertex $-1 $187 $349 #
ellipse-curve $-1 -33.989702349031084 -23.503380746956367 -1.1033240672141684 0 -0.57357644374324357 0.81915203911291934 2.5 0 0 1 I I #
point $-1 -31.489702349031084 -28.488456204929925 6.0161013748089864 #
edge $-1 $350 1 $350 0 $190 $-1 forward 7 unknown #
vertex $-1 $191 $351 #
ellipse-curve $-1 -25.022342744454185 -23.503380746956367 -1.1033240672141684 0 -0.57357644374324357 0.81915203911291934 2.5 0 0 1 I I #
point $-1 -22.522342744454185 -28.488456204929925 6.0161013748089864 #
plane-surface $-1 63.303933835871455 0 0 -1 0 0 0 0 1 forward_v I I I I #
coedge $-1 $199 $197 $201 $294 reversed $121 $-1 #
edge $-1 $212 -9.0029651433356079 $296 9.0029651433356079 $211 $352 forward 7 unknown #
vertex $-1 $294 $353 #
straight-curve $-1 -63.303933835871455 -32.754139660431669 0 0 0 -1 I I #
edge $-1 $292 -32.754139660431669 $296 32.754139660431669 $290 $354 forward 7 unknown #
straight-curve $-1 0 -32.754139660431669 -9.0029651433356079 -1 0 0 I I #
vertex $-1 $204 $355 #
straight-curve $-1 0 32.754139660431669 -9.0029651433356079 1 0 0 I I #
point $-1 63.303933835871455 32.754139660431669 -9.0029651433356079 #
point $-1 63.303933835871455 -32.754139660431669 -9.0029651433356079 #
straight-curve $-1 -63.303933835871455 0 9.0029651433356079 0 -1 0 I I #
point $-1 -63.303933835871455 32.754139660431669 9.0029651433356079 #
point $-1 -63.303933835871455 -32.754139660431669 9.0029651433356079 #
straight-curve $-1 63.303933835871455 -32.754139660431669 0 0 0 -1 I I #
straight-curve $-1 63.303933835871455 32.754139660431669 0 0 0 -1 I I #
plane-surface $-1 0 32.754139660431669 0 0 -1 0 0 0 -1 forward_v I I I I #
coedge $-1 $225 $224 $356 $357 forward $83 $-1 #
edge $-1 $228 53.855774305468081 $358 63.303933835871455 $227 $359 forward 7 unknown #
coedge $-1 $233 $232 $225 $309 reversed $234 $-1 #
edge $-1 $360 -63.303933835871455 $310 -53.855774305468081 $308 $361 forward 7 unknown #
vertex $-1 $240 $362 #
straight-curve $-1 -53.855774305468081 0 -9.0029651433356079 0 -1 0 I I #
point $-1 -53.855774305468081 -32.754139660431669 -9.0029651433356079 #
coedge $-1 $356 $230 $233 $316 forward $222 $-1 #
coedge $-1 $230 $356 $237 $318 reversed $222 $-1 #
straight-curve $-1 -63.303933835871455 0 -3.7692274856512711 0 1 0 I I #
edge $-1 $235 3.7692274856512711 $360 9.0029651433356079 $233 $363 forward 7 unknown #
point $-1 -63.303933835871455 32.754139660431669 -3.7692274856512711 #
edge $-1 $238 3.7692274856512711 $358 9.0029651433356079 $314 $364 forward 7 unknown #
point $-1 -63.303933835871455 -32.754139660431669 -3.7692274856512711 #
straight-curve $-1 -53.855774305468081 32.754139660431669 -3.1930481572467198 0 0 -1 I I #
plane-surface $-1 0 -32.754139660431669 0 0 1 0 0 0 1 forward_v I I I I #
coedge $-1 $323 $365 $335 $366 forward $244 $-1 #
coedge $-1 $328 $322 $246 $324 reversed $244 $-1 #
edge $-1 $332 -32.754139660431669 $337 32.754139660431669 $323 $367 forward 7 unknown #
coedge $-1 $248 $247 $365 $368 forward $91 $-1 #
edge $-1 $258 -3.915486172900664 $369 3.9154861729006427 $256 $370 forward 7 unknown #
straight-curve $-1 63.303933835871455 0 9.0029651433356079 0 -1 0 I I #
coedge $-1 $365 $323 $250 $329 reversed $244 $-1 #
edge $-1 $330 -2.1321973449454426 $332 2.1321973449454426 $328 $371 forward 7 unknown #
vertex $-1 $368 $372 #
straight-curve $-1 0 32.754139660431669 9.0029651433356079 -1 0 0 I I #
vertex $-1 $324 $373 #
straight-curve $-1 67.219420008772119 32.754139660431669 4.7385704534447228 1 0 0 I I #
point $-1 63.303933835871455 32.754139660431669 9.0029651433356079 #
coedge $-1 $256 $255 $322 $366 reversed $257 $-1 #
point $-1 63.303933835871455 -32.754139660431669 9.0029651433356079 #
vertex $-1 $366 $374 #
straight-curve $-1 67.219420008772119 -32.754139660431669 4.7385704534447228 -1 0 0 I I #
edge $-1 $340 19.932575414320901 $343 28.463942325324396 $264 $375 forward 7 unknown #
vertex $-1 $268 $376 #
straight-curve $-1 -19.04410300806958 -32.754139660431669 53.370165288664623 0 0 1 I I #
edge $-1 $343 4.2910917346982629 $275 25.214930812044368 $274 $377 forward 7 unknown #
vertex $-1 $342 $378 #
straight-curve $-1 -19.04410300806958 -32.754139660431662 3.0292376062823649 0 -0.81915203911291934 -0.57357644374324357 I I #
point $-1 -19.04410300806958 -32.754139660431669 3.0292376062823601 #
point $-1 -39.967942085415686 -24.222772749428174 9.0029651433356079 #
straight-curve $-1 67.219420008772119 -32.754139660431669 9.0029651433356079 1 0 0 I I #
vertex $-1 $281 $379 #
point $-1 -31.489702349031084 -23.503380746956367 -1.1033240672141684 #
vertex $-1 $285 $380 #
point $-1 -22.522342744454185 -23.503380746956367 -1.1033240672141684 #
straight-curve $-1 -63.303933835871455 32.754139660431669 0 0 0 -1 I I #
point $-1 -63.303933835871455 -32.754139660431669 -9.0029651433356079 #
straight-curve $-1 -63.303933835871455 0 -9.0029651433356079 0 1 0 I I #
point $-1 -63.303933835871455 32.754139660431669 -9.0029651433356079 #
coedge $-1 $314 $313 $306 $357 reversed $222 $-1 #
edge $-1 $358 -32.754139660431669 $360 32.754139660431669 $356 $381 forward 7 unknown #
vertex $-1 $357 $382 #
straight-curve $-1 0 -32.754139660431669 -9.0029651433356079 -1 0 0 I I #
vertex $-1 $309 $383 #
straight-curve $-1 0 32.754139660431669 -9.0029651433356079 1 0 0 I I #
point $-1 -53.855774305468081 32.754139660431669 -9.0029651433356079 #
straight-curve $-1 -63.303933835871455 32.754139660431669 0 0 0 -1 I I #
straight-curve $-1 -63.303933835871455 -32.754139660431669 0 0 0 -1 I I #
coedge $-1 $322 $328 $325 $368 reversed $244 $-1 #
edge $-1 $369 -2.1321973449454426 $337 2.1321973449454426 $322 $384 forward 7 unknown #
straight-curve $-1 71.134906181672761 0 4.7385704534447228 0 -1 0 I I #
edge $-1 $369 -32.754139660431669 $330 32.754139660431669 $365 $385 forward 7 unknown #
vertex $-1 $368 $386 #
straight-curve $-1 67.219420008772119 -32.754139660431669 9.0029651433356079 1 0 0 I I #
straight-curve $-1 71.134906181672761 32.754139660431669 6.8707677983901654 0 0 -1 I I #
point $-1 71.134906181672761 32.754139660431669 9.0029651433356079 #
point $-1 71.134906181672761 32.754139660431669 4.7385704534447228 #
point $-1 71.134906181672761 -32.754139660431669 4.7385704534447228 #
straight-curve $-1 -19.04410300806958 -52.68671507475257 9.0029651433356079 0 1 0 I I #
point $-1 -19.044103008069584 -32.754139660431669 9.0029651433356079 #
straight-curve $-1 -14.753011273371317 -24.222772749428174 9.0029651433356079 -1 0 0 I I #
point $-1 -19.04410300806958 -24.222772749428174 9.0029651433356079 #
point $-1 -33.989702349031084 -22.069439637598258 -3.151204164996467 #
point $-1 -25.022342744454185 -22.069439637598258 -3.151204164996467 #
straight-curve $-1 -63.303933835871455 0 -9.0029651433356079 0 1 0 I I #
point $-1 -63.303933835871455 -32.754139660431669 -9.0029651433356079 #
point $-1 -63.303933835871455 32.754139660431669 -9.0029651433356079 #
straight-curve $-1 71.134906181672761 -32.754139660431669 6.8707677983901654 0 0 -1 I I #
straight-curve $-1 71.134906181672761 0 9.0029651433356079 0 1 0 I I #
point $-1 71.134906181672761 -32.754139660431669 9.0029651433356079 #
End-of-ACIS-data 