500 0 8 0           
7 Unknown 11 ACIS 5.0 NT 24 Thu Mar 25 19:32:24 1999 
-1 9.9999999999999995e-007 1e-010 
body $-1 $8 $-1 $9 #
body $-1 $10 $-1 $11 #
body $-1 $12 $-1 $13 #
body $-1 $14 $-1 $15 #
body $-1 $16 $-1 $17 #
body $-1 $18 $-1 $19 #
body $-1 $20 $-1 $21 #
body $-1 $22 $-1 $23 #
lump $-1 $-1 $24 $0 #
transform $-1 1 0 0 0 1 0 0 0 1 76.754051332132946 39.119572566066047 15.499669629611063 1 rotate no_reflect no_shear #
lump $-1 $-1 $25 $1 #
transform $-1 1 0 0 0 1 0 0 0 1 76.754051332132946 39.119572566066047 15.499669629611063 1 rotate no_reflect no_shear #
lump $-1 $-1 $26 $2 #
transform $-1 1 0 0 0 1 0 0 0 1 76.754051332132946 39.119572566066047 15.499669629611063 1 rotate no_reflect no_shear #
lump $-1 $-1 $27 $3 #
transform $-1 1 0 0 0 1 0 0 0 1 76.754051332132946 39.119572566066047 15.499669629611063 1 rotate no_reflect no_shear #
lump $-1 $-1 $28 $4 #
transform $-1 1 0 0 0 1 0 0 0 1 76.754051332132946 39.119572566066047 15.499669629611063 1 rotate no_reflect no_shear #
lump $-1 $-1 $29 $5 #
transform $-1 1 0 0 0 1 0 0 0 1 76.754051332132946 39.119572566066047 15.499669629611063 1 rotate no_reflect no_shear #
lump $-1 $-1 $30 $6 #
transform $-1 1 0 0 0 1 0 0 0 1 76.754051332132946 39.119572566066047 15.499669629611063 1 rotate no_reflect no_shear #
lump $-1 $-1 $31 $7 #
transform $-1 1 0 0 0 1 0 0 0 1 76.754051332132946 39.119572566066047 15.499669629611063 1 rotate no_reflect no_shear #
shell $-1 $-1 $-1 $32 $-1 $8 #
shell $-1 $-1 $-1 $33 $-1 $10 #
shell $-1 $-1 $-1 $34 $-1 $12 #
shell $-1 $-1 $-1 $35 $-1 $14 #
shell $-1 $-1 $-1 $36 $-1 $16 #
shell $-1 $-1 $-1 $37 $-1 $18 #
shell $-1 $-1 $-1 $38 $-1 $20 #
shell $-1 $-1 $-1 $39 $-1 $22 #
face $-1 $40 $41 $24 $-1 $42 forward single #
face $-1 $43 $44 $25 $-1 $45 reversed single #
face $-1 $46 $47 $26 $-1 $48 reversed single #
face $-1 $49 $50 $27 $-1 $51 forward single #
face $-1 $52 $53 $28 $-1 $54 forward single #
face $-1 $55 $56 $29 $-1 $57 reversed single #
face $-1 $58 $59 $30 $-1 $60 forward single #
face $-1 $61 $62 $31 $-1 $63 forward single #
face $-1 $64 $65 $24 $-1 $66 reversed single #
loop $-1 $-1 $67 $32 #
plane-surface $-1 0 0 15.499669629611063 0 0 1 1 0 0 forward_v I I I I #
face $-1 $68 $69 $25 $-1 $70 reversed single #
loop $-1 $-1 $71 $33 #
plane-surface $-1 -67.541097277502288 0 6.4051614893227153 0 0 1 1 0 0 forward_v I I I I #
face $-1 $72 $73 $26 $-1 $74 reversed single #
loop $-1 $-1 $75 $34 #
plane-surface $-1 -33.844160506064242 -154.97360956097211 105.64203609830707 -1 0 0 0 -0.75470958851134928 0.65605901945558964 forward_v I I I I #
face $-1 $76 $77 $27 $-1 $78 forward single #
loop $-1 $79 $80 $35 #
cone-surface $-1 -51.332719589498083 -32.604508724600308 8.5451143380609196 0 0.75470958851134928 -0.65605901945558964 3 0 0 1 I I 0 1 3 forward I I I I #
face $-1 $81 $82 $28 $-1 $83 forward single #
loop $-1 $84 $85 $36 #
cone-surface $-1 -40.839584139437775 -32.604508724600308 8.5451143380609196 0 0.75470958851134928 -0.65605901945558964 3 0 0 1 I I 0 1 3 forward I I I I #
face $-1 $86 $87 $29 $-1 $88 reversed single #
loop $-1 $-1 $89 $37 #
plane-surface $-1 -46.086151864467936 -12.209924272364105 63.979493814051963 0 0.75470958851134928 0.65605901945558964 1 0 0 forward_v I I I I #
face $-1 $90 $91 $30 $-1 $92 forward single #
loop $-1 $93 $94 $38 #
cone-surface $-1 -51.332719589498083 32.604508724600294 8.5451143380609125 0 -0.75470958851134928 -0.65605901945558964 3 0 0 1 I I 0 1 3 forward I I I I #
face $-1 $95 $96 $31 $-1 $97 forward single #
loop $-1 $98 $99 $39 #
cone-surface $-1 -40.839584139437775 32.604508724600294 8.5451143380609125 0 -0.75470958851134928 -0.65605901945558964 3 0 0 1 I I 0 1 3 forward I I I I #
face $-1 $100 $101 $24 $-1 $102 reversed single #
loop $-1 $-1 $103 $40 #
plane-surface $-1 0 0 -15.499669629611063 0 0 1 1 0 0 forward_v I I I I #
coedge $-1 $104 $105 $106 $107 forward $41 $-1 #
face $-1 $108 $109 $25 $-1 $110 reversed single #
loop $-1 $-1 $111 $43 #
plane-surface $-1 -58.328143222871631 0 10.952415559466889 -1 0 0 0 0 1 forward_v I I I I #
coedge $-1 $112 $113 $114 $115 forward $44 $-1 #
face $-1 $116 $117 $26 $-1 $118 forward single #
loop $-1 $-1 $119 $46 #
plane-surface $-1 -46.086151864467936 -39.11957256606604 4.931660785900803 0 -0.75470958851134928 0.65605901945558964 1 0 0 forward_v I I I I #
coedge $-1 $120 $121 $122 $123 reversed $47 $-1 #
face $-1 $-1 $124 $27 $-1 $125 forward single #
loop $-1 $126 $127 $49 #
cone-surface $-1 -51.332719589498083 -29.550695349645014 5.8904749391825177 0 0.75470958851134928 -0.65605901945558964 1.5 0 0 1 I I -0.70710678118654757 0.70710678118654757 1.5 forward I I I I #
loop $-1 $-1 $128 $35 #
coedge $-1 $80 $80 $129 $130 reversed $50 $-1 #
face $-1 $-1 $131 $28 $-1 $132 forward single #
loop $-1 $133 $134 $52 #
cone-surface $-1 -40.839584139437775 -29.550695349645014 5.8904749391825177 0 0.75470958851134928 -0.65605901945558964 1.5 0 0 1 I I -0.70710678118654757 0.70710678118654757 1.5 forward I I I I #
loop $-1 $-1 $135 $36 #
coedge $-1 $85 $85 $136 $137 reversed $53 $-1 #
face $-1 $138 $139 $29 $-1 $140 forward single #
loop $-1 $-1 $141 $55 #
plane-surface $-1 -33.844160506064242 103.64411272254196 164.68986912645823 -1 0 0 0 0.75470958851134928 0.65605901945558964 forward_v I I I I #
coedge $-1 $142 $143 $144 $145 reversed $56 $-1 #
face $-1 $-1 $146 $30 $-1 $147 forward single #
loop $-1 $148 $149 $58 #
cone-surface $-1 -51.332719589498083 29.550695349645004 5.8904749391825106 0 -0.75470958851134928 -0.65605901945558964 1.5 0 0 1 I I -0.70710678118654757 0.70710678118654757 1.5 forward I I I I #
loop $-1 $-1 $150 $38 #
coedge $-1 $94 $94 $151 $152 reversed $59 $-1 #
face $-1 $-1 $153 $31 $-1 $154 forward single #
loop $-1 $155 $156 $61 #
cone-surface $-1 -40.839584139437775 29.550695349645004 5.8904749391825106 0 -0.75470958851134928 -0.65605901945558964 1.5 0 0 1 I I -0.70710678118654757 0.70710678118654757 1.5 forward I I I I #
loop $-1 $-1 $157 $39 #
coedge $-1 $99 $99 $158 $159 reversed $62 $-1 #
face $-1 $160 $161 $24 $-1 $162 reversed single #
loop $-1 $-1 $163 $64 #
plane-surface $-1 0 -39.119572566066047 0 0 1 0 0 0 1 forward_v I I I I #
coedge $-1 $164 $165 $166 $167 forward $65 $-1 #
coedge $-1 $168 $67 $169 $170 forward $41 $-1 #
coedge $-1 $67 $168 $171 $172 forward $41 $-1 #
coedge $-1 $173 $174 $67 $107 reversed $175 $-1 #
edge $-1 $176 -39.119572566066047 $177 39.119572566066047 $106 $178 forward 7 unknown #
face $-1 $179 $180 $25 $-1 $181 reversed single #
loop $-1 $-1 $182 $68 #
plane-surface $-1 0 39.119572566066047 0 0 -1 0 0 0 -1 forward_v I I I I #
coedge $-1 $114 $183 $184 $185 reversed $69 $-1 #
coedge $-1 $186 $71 $187 $188 reversed $44 $-1 #
coedge $-1 $71 $186 $189 $190 reversed $44 $-1 #
coedge $-1 $191 $111 $71 $115 reversed $69 $-1 #
edge $-1 $192 -39.119572566066047 $193 39.119572566066047 $114 $194 forward 7 unknown #
face $-1 $195 $196 $26 $-1 $197 forward single #
loop $-1 $-1 $198 $72 #
plane-surface $-1 -58.328143222871631 0 10.952415559466889 -1 0 0 0 0 1 forward_v I I I I #
coedge $-1 $199 $200 $201 $202 reversed $73 $-1 #
coedge $-1 $121 $75 $203 $204 reversed $47 $-1 #
coedge $-1 $75 $120 $199 $205 reversed $47 $-1 #
coedge $-1 $201 $206 $75 $123 forward $196 $-1 #
edge $-1 $207 38.367232214420007 $208 47.553861912974973 $122 $209 forward 7 unknown #
loop $-1 $-1 $129 $76 #
plane-surface $-1 -46.086151864467936 -39.11957256606604 4.931660785900803 0 -0.75470958851134928 0.65605901945558964 1 0 0 forward_v I I I I #
loop $-1 $-1 $210 $49 #
coedge $-1 $127 $127 $128 $211 reversed $77 $-1 #
coedge $-1 $128 $128 $127 $211 forward $79 $-1 #
coedge $-1 $129 $129 $80 $130 forward $124 $-1 #
edge $-1 $212 6.8052933050826196e-016 $212 6.2831853071796013 $129 $213 forward 7 unknown #
loop $-1 $-1 $136 $81 #
plane-surface $-1 -46.086151864467936 -39.11957256606604 4.931660785900803 0 -0.75470958851134928 0.65605901945558964 1 0 0 forward_v I I I I #
loop $-1 $-1 $214 $52 #
coedge $-1 $134 $134 $135 $215 reversed $82 $-1 #
coedge $-1 $135 $135 $134 $215 forward $84 $-1 #
coedge $-1 $136 $136 $85 $137 forward $131 $-1 #
edge $-1 $216 6.8052933050826196e-016 $216 6.2831853071796013 $136 $217 forward 7 unknown #
face $-1 $218 $219 $29 $-1 $220 reversed single #
loop $-1 $-1 $144 $86 #
plane-surface $-1 0 0 15.499669629611063 0 0 1 1 0 0 forward_v I I I I #
coedge $-1 $221 $222 $223 $224 reversed $87 $-1 #
coedge $-1 $225 $89 $226 $227 reversed $56 $-1 #
coedge $-1 $89 $225 $221 $228 forward $56 $-1 #
coedge $-1 $223 $229 $89 $145 forward $139 $-1 #
edge $-1 $230 -35.285067290637663 $231 -10.801084573830273 $144 $232 forward 7 unknown #
loop $-1 $-1 $151 $90 #
plane-surface $-1 -46.086151864467936 -12.209924272364105 63.979493814051963 0 0.75470958851134928 0.65605901945558964 1 0 0 forward_v I I I I #
loop $-1 $-1 $233 $58 #
coedge $-1 $149 $149 $150 $234 reversed $91 $-1 #
coedge $-1 $150 $150 $149 $234 forward $93 $-1 #
coedge $-1 $151 $151 $94 $152 forward $146 $-1 #
edge $-1 $235 2.0425121703439646e-017 $235 6.2831853071796004 $151 $236 forward 7 unknown #
loop $-1 $-1 $158 $95 #
plane-surface $-1 -46.086151864467936 -12.209924272364105 63.979493814051963 0 0.75470958851134928 0.65605901945558964 1 0 0 forward_v I I I I #
loop $-1 $-1 $237 $61 #
coedge $-1 $156 $156 $157 $238 reversed $96 $-1 #
coedge $-1 $157 $157 $156 $238 forward $98 $-1 #
coedge $-1 $158 $158 $99 $159 forward $153 $-1 #
edge $-1 $239 2.0425121703439646e-017 $239 6.2831853071796004 $158 $240 forward 7 unknown #
face $-1 $241 $242 $24 $-1 $243 reversed single #
loop $-1 $-1 $244 $100 #
plane-surface $-1 -76.754051332132946 0 0 1 0 0 0 0 -1 forward_v I I I I #
coedge $-1 $245 $171 $246 $247 forward $101 $-1 #
coedge $-1 $248 $103 $245 $249 forward $65 $-1 #
coedge $-1 $103 $248 $250 $251 forward $65 $-1 #
coedge $-1 $174 $173 $103 $167 reversed $175 $-1 #
edge $-1 $252 -39.119572566066047 $253 39.119572566066047 $166 $254 forward 7 unknown #
coedge $-1 $105 $104 $255 $256 forward $41 $-1 #
coedge $-1 $257 $258 $104 $170 reversed $242 $-1 #
edge $-1 $177 -76.754051332132946 $259 76.754051332132946 $169 $260 forward 7 unknown #
coedge $-1 $163 $261 $105 $172 reversed $101 $-1 #
edge $-1 $262 -76.754051332132946 $176 76.754051332132946 $171 $263 forward 7 unknown #
coedge $-1 $166 $106 $261 $264 forward $175 $-1 #
coedge $-1 $106 $166 $257 $265 reversed $175 $-1 #
loop $-1 $-1 $173 $241 #
vertex $-1 $107 $266 #
vertex $-1 $107 $267 #
straight-curve $-1 76.754051332132946 0 15.499669629611063 0 1 0 I I #
face $-1 $268 $269 $25 $-1 $270 forward single #
loop $-1 $-1 $271 $108 #
plane-surface $-1 -76.754051332132946 0 0 1 0 0 0 0 -1 forward_v I I I I #
coedge $-1 $189 $272 $191 $273 forward $109 $-1 #
coedge $-1 $111 $191 $274 $275 reversed $69 $-1 #
coedge $-1 $276 $187 $111 $185 forward $277 $-1 #
edge $-1 $193 0.92895370958927082 $278 10.023461849877618 $184 $279 forward 7 unknown #
coedge $-1 $113 $112 $271 $280 reversed $44 $-1 #
coedge $-1 $184 $281 $112 $188 forward $277 $-1 #
edge $-1 $282 -42.983502693381801 $193 -24.557594584120487 $187 $283 forward 7 unknown #
coedge $-1 $284 $182 $113 $190 forward $109 $-1 #
edge $-1 $192 24.557594584120487 $285 42.983502693381801 $189 $286 forward 7 unknown #
coedge $-1 $183 $114 $182 $273 reversed $69 $-1 #
vertex $-1 $190 $287 #
vertex $-1 $188 $288 #
straight-curve $-1 -58.328143222871631 0 6.4051614893227153 0 -1 0 I I #
face $-1 $-1 $289 $26 $-1 $290 reversed single #
loop $-1 $-1 $201 $116 #
plane-surface $-1 0 0 15.499669629611063 0 0 1 1 0 0 forward_v I I I I #
coedge $-1 $291 $292 $200 $293 reversed $117 $-1 #
coedge $-1 $294 $119 $121 $205 forward $73 $-1 #
coedge $-1 $119 $294 $198 $293 forward $73 $-1 #
coedge $-1 $295 $122 $119 $202 forward $196 $-1 #
edge $-1 $208 10.801084573830273 $296 35.285067290637663 $201 $297 forward 7 unknown #
coedge $-1 $298 $299 $120 $204 forward $289 $-1 #
edge $-1 $300 -47.889357263252741 $207 -37.321348419542474 $203 $301 forward 7 unknown #
edge $-1 $208 -14.00274887795644 $300 1.0694430631949516e-014 $121 $302 forward 7 unknown #
coedge $-1 $122 $295 $298 $303 forward $196 $-1 #
vertex $-1 $204 $304 #
vertex $-1 $123 $305 #
straight-curve $-1 -33.844160506064242 -77.486804780486054 15.499669629611063 0 1 0 I I #
coedge $-1 $210 $210 $-1 $306 reversed $126 $-1 #
edge $-1 $307 0 $307 6.2831853071796004 $127 $308 forward 7 unknown #
vertex $-1 $130 $309 #
ellipse-curve $-1 -51.332719589498083 -34.526257716788564 10.215665207755928 0 -0.75470958851134928 0.65605901945558964 3 0 0 1 I I #
coedge $-1 $214 $214 $-1 $310 reversed $133 $-1 #
edge $-1 $311 0 $311 6.2831853071796004 $134 $312 forward 7 unknown #
vertex $-1 $137 $313 #
ellipse-curve $-1 -40.839584139437775 -34.526257716788564 10.215665207755928 0 -0.75470958851134928 0.65605901945558964 3 0 0 1 I I #
face $-1 $-1 $314 $29 $-1 $315 forward single #
loop $-1 $-1 $316 $138 #
plane-surface $-1 0 39.119572566066047 0 0 -1 0 0 0 -1 forward_v I I I I #
coedge $-1 $222 $141 $143 $228 reversed $87 $-1 #
coedge $-1 $141 $221 $316 $317 reversed $87 $-1 #
coedge $-1 $318 $144 $141 $224 forward $139 $-1 #
edge $-1 $231 -21.889113493759886 $319 -12.702483795204934 $223 $320 forward 7 unknown #
coedge $-1 $143 $142 $321 $322 reversed $56 $-1 #
coedge $-1 $323 $324 $142 $227 forward $314 $-1 #
edge $-1 $325 -54.223907454516478 $230 -40.221158576560057 $226 $326 forward 7 unknown #
edge $-1 $327 -78.239145132132123 $231 -64.236396254175688 $221 $328 forward 7 unknown #
coedge $-1 $144 $318 $323 $329 forward $139 $-1 #
vertex $-1 $227 $330 #
vertex $-1 $145 $331 #
straight-curve $-1 -23.043075932233968 29.932942867511098 15.499669629611059 1 0 0 I I #
coedge $-1 $233 $233 $-1 $332 reversed $148 $-1 #
edge $-1 $333 0 $333 6.2831853071796004 $149 $334 forward 7 unknown #
vertex $-1 $152 $335 #
ellipse-curve $-1 -51.332719589498083 34.526257716788578 10.215665207755942 0 0.75470958851134928 0.65605901945558964 3 0 0 1 I I #
coedge $-1 $237 $237 $-1 $336 reversed $155 $-1 #
edge $-1 $337 0 $337 6.2831853071796004 $156 $338 forward 7 unknown #
vertex $-1 $159 $339 #
ellipse-curve $-1 -40.839584139437775 34.526257716788578 10.215665207755942 0 0.75470958851134928 0.65605901945558964 3 0 0 1 I I #
face $-1 $-1 $175 $24 $-1 $340 reversed single #
loop $-1 $-1 $257 $160 #
plane-surface $-1 0 39.119572566066047 0 0 -1 0 0 0 -1 forward_v I I I I #
coedge $-1 $341 $255 $258 $342 forward $161 $-1 #
coedge $-1 $261 $163 $164 $249 reversed $101 $-1 #
coedge $-1 $255 $341 $163 $247 reversed $161 $-1 #
edge $-1 $262 -15.499669629611063 $343 15.499669629611063 $246 $344 forward 7 unknown #
coedge $-1 $165 $164 $341 $345 forward $65 $-1 #
edge $-1 $253 -76.754051332132946 $343 76.754051332132946 $245 $346 forward 7 unknown #
coedge $-1 $258 $257 $165 $251 reversed $242 $-1 #
edge $-1 $347 -76.754051332132946 $252 76.754051332132946 $250 $348 forward 7 unknown #
vertex $-1 $167 $349 #
vertex $-1 $264 $350 #
straight-curve $-1 76.754051332132946 0 -15.499669629611063 0 -1 0 I I #
coedge $-1 $244 $246 $168 $256 reversed $161 $-1 #
edge $-1 $259 -39.119572566066047 $262 39.119572566066047 $255 $351 forward 7 unknown #
coedge $-1 $250 $169 $174 $265 forward $242 $-1 #
coedge $-1 $169 $250 $244 $342 reversed $242 $-1 #
vertex $-1 $170 $352 #
straight-curve $-1 0 39.119572566066047 15.499669629611063 -1 0 0 I I #
coedge $-1 $171 $245 $173 $264 reversed $101 $-1 #
vertex $-1 $256 $353 #
straight-curve $-1 0 -39.119572566066047 15.499669629611063 1 0 0 I I #
edge $-1 $176 -15.499669629611063 $253 15.499669629611063 $173 $354 forward 7 unknown #
edge $-1 $177 -15.499669629611063 $252 15.499669629611063 $174 $355 forward 7 unknown #
point $-1 76.754051332132946 -39.119572566066047 15.499669629611063 #
point $-1 76.754051332132946 39.119572566066047 15.499669629611063 #
face $-1 $-1 $277 $25 $-1 $356 reversed single #
loop $-1 $-1 $274 $179 #
plane-surface $-1 0 0 15.499669629611063 0 0 1 1 0 0 forward_v I I I I #
coedge $-1 $357 $358 $186 $280 forward $180 $-1 #
coedge $-1 $182 $284 $359 $360 reversed $109 $-1 #
edge $-1 $361 -10.023461849877618 $192 -0.92895370958927082 $182 $362 forward 7 unknown #
coedge $-1 $359 $363 $183 $275 forward $269 $-1 #
edge $-1 $278 -39.119572566066047 $361 39.119572566066047 $274 $364 forward 7 unknown #
coedge $-1 $281 $184 $363 $365 reversed $277 $-1 #
loop $-1 $-1 $184 $268 #
vertex $-1 $185 $366 #
straight-curve $-1 -58.328143222871631 -39.119572566066047 5.4762077797334445 0 0 1 I I #
edge $-1 $285 -39.119572566066047 $282 39.119572566066047 $271 $367 forward 7 unknown #
coedge $-1 $187 $276 $357 $368 forward $277 $-1 #
vertex $-1 $280 $369 #
straight-curve $-1 -33.770548638751144 -39.119572566066047 6.4051614893227153 1 0 0 I I #
coedge $-1 $272 $189 $358 $370 reversed $109 $-1 #
vertex $-1 $280 $371 #
straight-curve $-1 -33.770548638751144 39.119572566066047 6.4051614893227153 -1 0 0 I I #
point $-1 -58.328143222871631 39.119572566066047 6.4051614893227153 #
point $-1 -58.328143222871631 -39.119572566066047 6.4051614893227153 #
loop $-1 $-1 $203 $195 #
plane-surface $-1 0 -39.119572566066047 0 0 1 0 0 0 1 forward_v I I I I #
coedge $-1 $292 $198 $372 $373 reversed $117 $-1 #
coedge $-1 $198 $291 $295 $374 reversed $117 $-1 #
edge $-1 $375 -1.0694430631949516e-014 $296 14.002748877956437 $198 $376 forward 7 unknown #
coedge $-1 $200 $199 $299 $377 reversed $73 $-1 #
coedge $-1 $206 $201 $292 $374 forward $196 $-1 #
vertex $-1 $374 $378 #
straight-curve $-1 -23.043075932233968 -29.93294286751108 15.499669629611063 -1 0 0 I I #
coedge $-1 $372 $203 $206 $303 reversed $289 $-1 #
coedge $-1 $203 $372 $294 $377 forward $289 $-1 #
vertex $-1 $204 $379 #
straight-curve $-1 -33.844160506064242 -39.119572566066047 52.821018049153537 0 0 1 I I #
straight-curve $-1 -33.844160506064242 -39.11957256606604 4.931660785900803 0 -0.65605901945558964 -0.75470958851134928 I I #
edge $-1 $380 -58.328143222871631 $207 -33.844160506064242 $298 $381 forward 7 unknown #
point $-1 -33.844160506064242 -39.119572566066047 15.499669629611063 #
point $-1 -33.844160506064242 -29.93294286751108 15.499669629611063 #
edge $-1 $382 1 $382 0 $210 $-1 forward 7 unknown #
vertex $-1 $211 $383 #
ellipse-curve $-1 -51.332719589498083 -30.682759732412038 6.8745634683659027 0 -0.75470958851134928 0.65605901945558964 3 0 0 1 I I #
point $-1 -48.332719589498083 -34.526257716788571 10.215665207755936 #
edge $-1 $384 1 $384 0 $214 $-1 forward 7 unknown #
vertex $-1 $215 $385 #
ellipse-curve $-1 -40.839584139437775 -30.682759732412038 6.8745634683659027 0 -0.75470958851134928 0.65605901945558964 3 0 0 1 I I #
point $-1 -37.839584139437775 -34.526257716788571 10.215665207755936 #
loop $-1 $-1 $226 $218 #
plane-surface $-1 -58.328143222871631 0 10.952415559466889 -1 0 0 0 0 1 forward_v I I I I #
coedge $-1 $321 $386 $222 $317 forward $219 $-1 #
edge $-1 $319 66.845264933618054 $327 77.4132737773283 $316 $387 forward 7 unknown #
coedge $-1 $229 $223 $386 $388 forward $139 $-1 #
vertex $-1 $388 $389 #
straight-curve $-1 -33.844160506064242 51.822056361270981 15.499669629611063 0 1 0 I I #
coedge $-1 $390 $316 $225 $322 forward $219 $-1 #
edge $-1 $327 10.801084573830273 $325 35.285067290637663 $321 $391 forward 7 unknown #
coedge $-1 $324 $226 $229 $329 reversed $314 $-1 #
coedge $-1 $226 $323 $390 $392 reversed $314 $-1 #
vertex $-1 $392 $393 #
straight-curve $-1 -58.328143222871631 3.5454890104053245 45.854963668376428 0 -0.65605901945558975 0.75470958851134939 I I #
vertex $-1 $322 $394 #
straight-curve $-1 -33.844160506064242 -12.209924272364105 63.979493814051963 0 -0.65605901945558964 0.75470958851134928 I I #
edge $-1 $395 -39.119572566066047 $230 -29.932942867511095 $229 $396 forward 7 unknown #
point $-1 -58.328143222871631 29.932942867511095 15.499669629611063 #
point $-1 -33.844160506064242 29.932942867511095 15.499669629611063 #
edge $-1 $397 1 $397 0 $233 $-1 forward 7 unknown #
vertex $-1 $234 $398 #
ellipse-curve $-1 -51.332719589498083 30.682759732412027 6.8745634683658956 0 0.75470958851134928 0.65605901945558964 3 0 0 1 I I #
point $-1 -48.332719589498083 34.526257716788564 10.215665207755929 #
edge $-1 $399 1 $399 0 $237 $-1 forward 7 unknown #
vertex $-1 $238 $400 #
ellipse-curve $-1 -40.839584139437775 30.682759732412027 6.8745634683658956 0 0.75470958851134928 0.65605901945558964 3 0 0 1 I I #
point $-1 -37.839584139437775 34.526257716788564 10.215665207755929 #
plane-surface $-1 76.754051332132946 0 0 -1 0 0 0 0 1 forward_v I I I I #
coedge $-1 $246 $244 $248 $345 reversed $161 $-1 #
edge $-1 $259 -15.499669629611063 $347 15.499669629611063 $258 $401 forward 7 unknown #
vertex $-1 $345 $402 #
straight-curve $-1 -76.754051332132946 -39.119572566066047 0 0 0 -1 I I #
edge $-1 $343 -39.119572566066047 $347 39.119572566066047 $341 $403 forward 7 unknown #
straight-curve $-1 0 -39.119572566066047 -15.499669629611063 -1 0 0 I I #
vertex $-1 $251 $404 #
straight-curve $-1 0 39.119572566066047 -15.499669629611063 1 0 0 I I #
point $-1 76.754051332132946 39.119572566066047 -15.499669629611063 #
point $-1 76.754051332132946 -39.119572566066047 -15.499669629611063 #
straight-curve $-1 -76.754051332132946 0 15.499669629611063 0 -1 0 I I #
point $-1 -76.754051332132946 39.119572566066047 15.499669629611063 #
point $-1 -76.754051332132946 -39.119572566066047 15.499669629611063 #
straight-curve $-1 76.754051332132946 -39.119572566066047 0 0 0 -1 I I #
straight-curve $-1 76.754051332132946 39.119572566066047 0 0 0 -1 I I #
plane-surface $-1 0 -39.119572566066047 0 0 1 0 0 0 1 forward_v I I I I #
coedge $-1 $405 $271 $281 $368 reversed $180 $-1 #
coedge $-1 $271 $405 $284 $370 forward $180 $-1 #
coedge $-1 $406 $274 $272 $360 forward $269 $-1 #
edge $-1 $361 58.328143222871631 $407 76.754051332132946 $272 $408 forward 7 unknown #
vertex $-1 $360 $409 #
straight-curve $-1 -58.328143222871631 39.119572566066047 5.4762077797334445 0 0 -1 I I #
coedge $-1 $274 $406 $276 $365 forward $269 $-1 #
straight-curve $-1 -58.328143222871631 0 15.499669629611063 0 1 0 I I #
edge $-1 $410 -76.754051332132946 $278 -58.328143222871631 $276 $411 forward 7 unknown #
point $-1 -58.328143222871631 -39.119572566066047 15.499669629611063 #
straight-curve $-1 -76.754051332132946 0 6.4051614893227153 0 -1 0 I I #
edge $-1 $410 -15.499669629611063 $282 -6.4051614893227153 $357 $412 forward 7 unknown #
point $-1 -76.754051332132946 -39.119572566066047 6.4051614893227153 #
edge $-1 $407 -15.499669629611063 $285 -6.4051614893227153 $284 $413 forward 7 unknown #
point $-1 -76.754051332132946 39.119572566066047 6.4051614893227153 #
coedge $-1 $299 $298 $291 $373 forward $289 $-1 #
edge $-1 $380 37.321348419542474 $375 47.889357263252741 $372 $414 forward 7 unknown #
edge $-1 $296 29.932942867511084 $380 39.119572566066047 $295 $415 forward 7 unknown #
vertex $-1 $373 $416 #
straight-curve $-1 -58.328143222871631 -39.11957256606604 4.931660785900803 0 0.65605901945558964 0.75470958851134928 I I #
edge $-1 $375 -35.285067290637663 $300 -10.801084573830273 $299 $417 forward 7 unknown #
point $-1 -58.328143222871631 -29.932942867511084 15.499669629611063 #
point $-1 -33.844160506064242 -39.119572566066047 4.931660785900795 #
vertex $-1 $303 $418 #
straight-curve $-1 0 -39.119572566066047 15.499669629611063 1 0 0 I I #
vertex $-1 $306 $419 #
point $-1 -48.332719589498083 -30.682759732412038 6.8745634683659027 #
vertex $-1 $310 $420 #
point $-1 -37.839584139437775 -30.682759732412038 6.8745634683659027 #
coedge $-1 $316 $390 $318 $388 reversed $219 $-1 #
straight-curve $-1 -33.844160506064242 39.119572566066047 82.344934563229117 0 0 -1 I I #
edge $-1 $319 33.844160506064242 $395 58.328143222871631 $386 $421 forward 7 unknown #
point $-1 -33.844160506064242 39.119572566066047 15.499669629611063 #
coedge $-1 $386 $321 $324 $392 forward $219 $-1 #
straight-curve $-1 -23.043075932233968 39.119572566066054 4.9316607859008066 -1 0 0 I I #
edge $-1 $325 -77.4132737773283 $395 -66.845264933618054 $390 $422 forward 7 unknown #
point $-1 -58.328143222871631 39.119572566066047 4.9316607859008172 #
point $-1 -33.844160506064242 39.119572566066047 4.9316607859008172 #
vertex $-1 $329 $423 #
straight-curve $-1 -58.328143222871631 0 15.499669629611063 0 -1 0 I I #
vertex $-1 $332 $424 #
point $-1 -48.332719589498083 30.682759732412027 6.8745634683658956 #
vertex $-1 $336 $425 #
point $-1 -37.839584139437775 30.682759732412027 6.8745634683658956 #
straight-curve $-1 -76.754051332132946 39.119572566066047 0 0 0 -1 I I #
point $-1 -76.754051332132946 -39.119572566066047 -15.499669629611063 #
straight-curve $-1 -76.754051332132946 0 -15.499669629611063 0 1 0 I I #
point $-1 -76.754051332132946 39.119572566066047 -15.499669629611063 #
coedge $-1 $358 $357 $406 $426 reversed $180 $-1 #
coedge $-1 $363 $359 $405 $426 forward $269 $-1 #
vertex $-1 $360 $427 #
straight-curve $-1 0 39.119572566066047 15.499669629611063 -1 0 0 I I #
point $-1 -58.328143222871631 39.119572566066047 15.499669629611063 #
vertex $-1 $426 $428 #
straight-curve $-1 0 -39.119572566066047 15.499669629611063 1 0 0 I I #
straight-curve $-1 -76.754051332132946 -39.119572566066047 0 0 0 -1 I I #
straight-curve $-1 -76.754051332132946 39.119572566066047 0 0 0 -1 I I #
straight-curve $-1 -58.328143222871631 -39.119572566066047 52.821018049153537 0 0 -1 I I #
straight-curve $-1 -58.328143222871631 0 15.499669629611063 0 -1 0 I I #
point $-1 -58.328143222871631 -39.119572566066047 4.931660785900795 #
straight-curve $-1 -23.043075932233968 -39.119572566066047 4.9316607859007924 1 0 0 I I #
point $-1 -58.328143222871631 -39.119572566066047 15.499669629611063 #
point $-1 -51.332719589498083 -28.418630966877991 4.9063864099991328 #
point $-1 -40.839584139437775 -28.418630966877991 4.9063864099991328 #
straight-curve $-1 0 39.119572566066047 15.499669629611063 -1 0 0 I I #
straight-curve $-1 -58.328143222871631 39.119572566066047 82.344934563229117 0 0 1 I I #
point $-1 -58.328143222871631 39.119572566066047 15.499669629611063 #
point $-1 -51.332719589498083 28.418630966877981 4.9063864099991257 #
point $-1 -40.839584139437775 28.418630966877981 4.9063864099991257 #
edge $-1 $407 -39.119572566066047 $410 39.119572566066047 $405 $429 forward 7 unknown #
point $-1 -76.754051332132946 39.119572566066047 15.499669629611063 #
point $-1 -76.754051332132946 -39.119572566066047 15.499669629611063 #
straight-curve $-1 -76.754051332132946 0 15.499669629611063 0 -1 0 I I #
End-of-ACIS-data 