500 0 5 0           
7 Unknown 11 ACIS 5.0 NT 24 Fri Mar 26 17:18:06 1999 
-1 9.9999999999999995e-007 1e-010 
body $-1 $5 $-1 $6 #
body $-1 $7 $-1 $8 #
body $-1 $9 $-1 $10 #
body $-1 $11 $-1 $12 #
body $-1 $13 $-1 $14 #
lump $-1 $-1 $15 $0 #
transform $-1 1 0 0 0 1 0 0 0 1 60.964995269631032 33.192776531549164 15.211827977578489 1 rotate no_reflect no_shear #
lump $-1 $-1 $16 $1 #
transform $-1 1 0 0 0 1 0 0 0 1 60.964995269631032 33.192776531549164 15.211827977578489 1 rotate no_reflect no_shear #
lump $-1 $-1 $17 $2 #
transform $-1 1 0 0 0 1 0 0 0 1 60.964995269631032 33.192776531549164 15.211827977578489 1 rotate no_reflect no_shear #
lump $-1 $-1 $18 $3 #
transform $-1 1 0 0 0 1 0 0 0 1 60.964995269631032 33.192776531549164 15.211827977578489 1 rotate no_reflect no_shear #
lump $-1 $-1 $19 $4 #
transform $-1 1 0 0 0 1 0 0 0 1 60.964995269631032 33.192776531549164 15.211827977578489 1 rotate no_reflect no_shear #
shell $-1 $-1 $-1 $20 $-1 $5 #
shell $-1 $-1 $-1 $21 $-1 $7 #
shell $-1 $-1 $-1 $22 $-1 $9 #
shell $-1 $-1 $-1 $23 $-1 $11 #
shell $-1 $-1 $-1 $24 $-1 $13 #
face $-1 $25 $26 $15 $-1 $27 forward single #
face $-1 $28 $29 $16 $-1 $30 forward single #
face $-1 $31 $32 $17 $-1 $33 reversed single #
face $-1 $34 $35 $18 $-1 $36 forward single #
face $-1 $37 $38 $19 $-1 $39 forward single #
face $-1 $40 $41 $15 $-1 $42 reversed single #
loop $-1 $-1 $43 $20 #
plane-surface $-1 0 0 15.211827977578489 0 0 1 1 0 0 forward_v I I I I #
face $-1 $44 $45 $16 $-1 $46 reversed single #
loop $-1 $-1 $47 $21 #
plane-surface $-1 -51.29960951735616 0 -7.2165539581243978 0 0 1 1 0 0 forward_v I I I I #
face $-1 $48 $49 $17 $-1 $50 reversed single #
loop $-1 $-1 $51 $22 #
plane-surface $-1 43.117609528612441 -114.77986601565325 99.728677547497085 1 0 0 0 0.66913061440640931 -0.74314481823134659 forward_v I I I I #
face $-1 $52 $53 $18 $-1 $54 forward single #
loop $-1 $55 $56 $23 #
cone-surface $-1 48.216862597474886 -28.018922331566635 10.177126159883013 0 0.66913061440640931 -0.74314481823134659 2 0 0 1 I I 0 1 2 forward I I I I #
face $-1 $57 $58 $19 $-1 $59 forward single #
loop $-1 $60 $61 $24 #
cone-surface $-1 55.86574220076858 -28.018922331566635 10.177126159883013 0 0.66913061440640931 -0.74314481823134659 2 0 0 1 I I 0 1 2 forward I I I I #
face $-1 $62 $63 $15 $-1 $64 reversed single #
loop $-1 $-1 $65 $25 #
plane-surface $-1 0 0 -15.211827977578489 0 0 1 1 0 0 forward_v I I I I #
coedge $-1 $66 $67 $68 $69 forward $26 $-1 #
face $-1 $70 $71 $16 $-1 $72 reversed single #
loop $-1 $-1 $73 $28 #
plane-surface $-1 -41.634223765081288 0 -11.214190967851444 -1 0 0 0 0 1 forward_v I I I I #
coedge $-1 $74 $75 $76 $77 forward $29 $-1 #
face $-1 $78 $79 $17 $-1 $80 forward single #
loop $-1 $-1 $81 $31 #
plane-surface $-1 52.041302399121747 -33.192776531549157 9.1170368912473663 0 -0.66913061440640931 0.74314481823134659 1 0 0 forward_v I I I I #
coedge $-1 $82 $83 $84 $85 reversed $32 $-1 #
face $-1 $-1 $86 $18 $-1 $87 forward single #
loop $-1 $88 $89 $34 #
cone-surface $-1 48.216862597474886 -25.560413071347011 7.4466750671217508 0 0.66913061440640931 -0.74314481823134659 1 0 0 1 I I -0.70710678118654746 0.70710678118654746 1 forward I I I I #
loop $-1 $-1 $90 $23 #
coedge $-1 $56 $56 $91 $92 reversed $35 $-1 #
face $-1 $-1 $93 $19 $-1 $94 forward single #
loop $-1 $95 $96 $37 #
cone-surface $-1 55.86574220076858 -25.560413071347011 7.4466750671217508 0 0.66913061440640931 -0.74314481823134659 1 0 0 1 I I -0.70710678118654746 0.70710678118654746 1 forward I I I I #
loop $-1 $-1 $97 $24 #
coedge $-1 $61 $61 $98 $99 reversed $38 $-1 #
face $-1 $100 $101 $15 $-1 $102 reversed single #
loop $-1 $-1 $103 $40 #
plane-surface $-1 0 -33.192776531549164 0 0 1 0 0 0 1 forward_v I I I I #
coedge $-1 $104 $105 $106 $107 forward $41 $-1 #
coedge $-1 $108 $43 $109 $110 forward $26 $-1 #
coedge $-1 $43 $108 $111 $112 forward $26 $-1 #
coedge $-1 $113 $114 $43 $69 reversed $115 $-1 #
edge $-1 $116 -33.192776531549164 $117 33.192776531549164 $68 $118 forward 7 unknown #
face $-1 $119 $120 $16 $-1 $121 reversed single #
loop $-1 $-1 $122 $44 #
plane-surface $-1 0 0 -15.211827977578489 0 0 1 1 0 0 forward_v I I I I #
coedge $-1 $123 $76 $124 $125 reversed $45 $-1 #
coedge $-1 $126 $47 $127 $128 reversed $29 $-1 #
coedge $-1 $47 $126 $129 $130 reversed $29 $-1 #
coedge $-1 $73 $131 $47 $77 reversed $45 $-1 #
edge $-1 $132 -33.192776531549164 $133 33.192776531549164 $76 $134 forward 7 unknown #
face $-1 $135 $136 $17 $-1 $137 reversed single #
loop $-1 $-1 $138 $48 #
plane-surface $-1 0 0 15.211827977578489 0 0 1 1 0 0 forward_v I I I I #
coedge $-1 $139 $140 $141 $142 reversed $49 $-1 #
coedge $-1 $83 $51 $143 $144 reversed $32 $-1 #
coedge $-1 $51 $82 $139 $145 reversed $32 $-1 #
coedge $-1 $141 $146 $51 $85 forward $136 $-1 #
edge $-1 $147 34.652510796170056 $148 40.747301882501183 $84 $149 forward 7 unknown #
loop $-1 $-1 $91 $52 #
plane-surface $-1 52.041302399121747 -33.192776531549157 9.1170368912473663 0 -0.66913061440640931 0.74314481823134659 1 0 0 forward_v I I I I #
loop $-1 $-1 $150 $34 #
coedge $-1 $89 $89 $90 $151 reversed $53 $-1 #
coedge $-1 $90 $90 $89 $151 forward $55 $-1 #
coedge $-1 $91 $91 $56 $92 forward $86 $-1 #
edge $-1 $152 -1.3147563717719145e-016 $152 6.2831853071796004 $91 $153 forward 7 unknown #
loop $-1 $-1 $98 $57 #
plane-surface $-1 52.041302399121747 -33.192776531549157 9.1170368912473663 0 -0.66913061440640931 0.74314481823134659 1 0 0 forward_v I I I I #
loop $-1 $-1 $154 $37 #
coedge $-1 $96 $96 $97 $155 reversed $58 $-1 #
coedge $-1 $97 $97 $96 $155 forward $60 $-1 #
coedge $-1 $98 $98 $61 $99 forward $93 $-1 #
edge $-1 $156 -1.3147563717719145e-016 $156 6.2831853071796004 $98 $157 forward 7 unknown #
face $-1 $158 $159 $15 $-1 $160 reversed single #
loop $-1 $-1 $161 $62 #
plane-surface $-1 -60.964995269631032 0 0 1 0 0 0 0 -1 forward_v I I I I #
coedge $-1 $162 $111 $163 $164 forward $63 $-1 #
coedge $-1 $165 $65 $162 $166 forward $41 $-1 #
coedge $-1 $65 $165 $167 $168 forward $41 $-1 #
coedge $-1 $114 $113 $65 $107 reversed $115 $-1 #
edge $-1 $169 -33.192776531549164 $170 33.192776531549164 $106 $171 forward 7 unknown #
coedge $-1 $67 $66 $172 $173 forward $26 $-1 #
coedge $-1 $174 $175 $66 $110 reversed $159 $-1 #
edge $-1 $117 -60.964995269631032 $176 60.964995269631032 $109 $177 forward 7 unknown #
coedge $-1 $103 $178 $67 $112 reversed $63 $-1 #
edge $-1 $179 -60.964995269631032 $116 60.964995269631032 $111 $180 forward 7 unknown #
coedge $-1 $106 $68 $178 $181 forward $115 $-1 #
coedge $-1 $68 $106 $174 $182 reversed $115 $-1 #
loop $-1 $-1 $113 $158 #
vertex $-1 $69 $183 #
vertex $-1 $69 $184 #
straight-curve $-1 60.964995269631032 0 15.211827977578489 0 1 0 I I #
face $-1 $185 $186 $16 $-1 $187 reversed single #
loop $-1 $-1 $124 $70 #
plane-surface $-1 0 -33.192776531549164 0 0 1 0 0 0 1 forward_v I I I I #
coedge $-1 $188 $189 $123 $190 forward $71 $-1 #
coedge $-1 $131 $73 $122 $190 reversed $45 $-1 #
coedge $-1 $129 $191 $73 $125 forward $120 $-1 #
edge $-1 $192 -9.6047324936527687 $132 -1.6094584741986759 $124 $193 forward 7 unknown #
coedge $-1 $75 $74 $194 $195 reversed $29 $-1 #
coedge $-1 $196 $197 $74 $128 forward $198 $-1 #
edge $-1 $199 -35.315190510952952 $133 -15.984419006403208 $127 $200 forward 7 unknown #
coedge $-1 $201 $124 $75 $130 forward $120 $-1 #
edge $-1 $132 15.984419006403208 $202 35.315190510952952 $129 $203 forward 7 unknown #
coedge $-1 $76 $123 $196 $204 reversed $45 $-1 #
vertex $-1 $130 $205 #
vertex $-1 $128 $206 #
straight-curve $-1 -41.634223765081288 0 -7.2165539581243978 0 1 0 I I #
face $-1 $-1 $207 $17 $-1 $208 reversed single #
loop $-1 $-1 $141 $78 #
plane-surface $-1 0 -33.192776531549164 0 0 1 0 0 0 1 forward_v I I I I #
coedge $-1 $143 $209 $210 $211 forward $79 $-1 #
coedge $-1 $210 $81 $83 $145 forward $49 $-1 #
coedge $-1 $81 $210 $212 $213 reversed $49 $-1 #
coedge $-1 $214 $84 $81 $142 forward $136 $-1 #
edge $-1 $148 17.096958329051567 $215 34.94434407007018 $141 $216 forward 7 unknown #
coedge $-1 $217 $138 $82 $144 forward $79 $-1 #
edge $-1 $218 -30.966107584616104 $147 -24.197156476277463 $143 $219 forward 7 unknown #
edge $-1 $148 -1.0034820495532102e-014 $218 9.1085222452986372 $83 $220 forward 7 unknown #
coedge $-1 $84 $214 $217 $221 reversed $136 $-1 #
vertex $-1 $221 $222 #
vertex $-1 $85 $223 #
straight-curve $-1 43.117609528612441 -33.192776531549164 49.864338773748543 0 0 -1 I I #
coedge $-1 $150 $150 $-1 $224 reversed $88 $-1 #
edge $-1 $225 0 $225 6.2831853071796004 $89 $226 forward 7 unknown #
vertex $-1 $92 $227 #
ellipse-curve $-1 48.216862597474886 -29.808300977379847 12.164432434412923 0 -0.66913061440640931 0.74314481823134659 2 0 0 1 I I #
coedge $-1 $154 $154 $-1 $228 reversed $95 $-1 #
edge $-1 $229 0 $229 6.2831853071796004 $96 $230 forward 7 unknown #
vertex $-1 $99 $231 #
ellipse-curve $-1 55.86574220076858 -29.808300977379847 12.164432434412923 0 -0.66913061440640931 0.74314481823134659 2 0 0 1 I I #
face $-1 $-1 $115 $15 $-1 $232 reversed single #
loop $-1 $-1 $174 $100 #
plane-surface $-1 0 33.192776531549164 0 0 -1 0 0 0 -1 forward_v I I I I #
coedge $-1 $233 $172 $175 $234 forward $101 $-1 #
coedge $-1 $178 $103 $104 $166 reversed $63 $-1 #
coedge $-1 $172 $233 $103 $164 reversed $101 $-1 #
edge $-1 $179 -15.211827977578489 $235 15.211827977578489 $163 $236 forward 7 unknown #
coedge $-1 $105 $104 $233 $237 forward $41 $-1 #
edge $-1 $170 -60.964995269631032 $235 60.964995269631032 $162 $238 forward 7 unknown #
coedge $-1 $175 $174 $105 $168 reversed $159 $-1 #
edge $-1 $239 -60.964995269631032 $169 60.964995269631032 $167 $240 forward 7 unknown #
vertex $-1 $107 $241 #
vertex $-1 $181 $242 #
straight-curve $-1 60.964995269631032 0 -15.211827977578489 0 -1 0 I I #
coedge $-1 $161 $163 $108 $173 reversed $101 $-1 #
edge $-1 $176 -33.192776531549164 $179 33.192776531549164 $172 $243 forward 7 unknown #
coedge $-1 $167 $109 $114 $182 forward $159 $-1 #
coedge $-1 $109 $167 $161 $234 reversed $159 $-1 #
vertex $-1 $110 $244 #
straight-curve $-1 0 33.192776531549164 15.211827977578489 -1 0 0 I I #
coedge $-1 $111 $162 $113 $181 reversed $63 $-1 #
vertex $-1 $173 $245 #
straight-curve $-1 0 -33.192776531549164 15.211827977578489 1 0 0 I I #
edge $-1 $116 -15.211827977578489 $170 15.211827977578489 $113 $246 forward 7 unknown #
edge $-1 $117 -15.211827977578489 $169 15.211827977578489 $114 $247 forward 7 unknown #
point $-1 60.964995269631032 -33.192776531549164 15.211827977578489 #
point $-1 60.964995269631032 33.192776531549164 15.211827977578489 #
face $-1 $-1 $198 $16 $-1 $248 reversed single #
loop $-1 $-1 $194 $119 #
plane-surface $-1 -60.964995269631032 0 0 1 0 0 0 0 -1 forward_v I I I I #
coedge $-1 $249 $122 $191 $250 forward $71 $-1 #
coedge $-1 $122 $249 $251 $252 forward $71 $-1 #
edge $-1 $253 -33.192776531549164 $192 33.192776531549164 $122 $254 forward 7 unknown #
coedge $-1 $124 $201 $188 $250 reversed $120 $-1 #
vertex $-1 $250 $255 #
straight-curve $-1 -41.634223765081288 -33.192776531549164 -5.6070954839257219 0 0 1 I I #
coedge $-1 $256 $257 $126 $195 forward $186 $-1 #
edge $-1 $202 -33.192776531549164 $199 33.192776531549164 $194 $258 forward 7 unknown #
coedge $-1 $251 $127 $131 $204 forward $198 $-1 #
coedge $-1 $127 $251 $256 $259 reversed $198 $-1 #
loop $-1 $-1 $196 $185 #
vertex $-1 $259 $260 #
straight-curve $-1 -25.64980475867808 33.192776531549164 -7.2165539581243978 1 0 0 I I #
coedge $-1 $191 $129 $257 $261 forward $120 $-1 #
vertex $-1 $261 $262 #
straight-curve $-1 -25.64980475867808 -33.192776531549164 -7.2165539581243978 -1 0 0 I I #
edge $-1 $133 1.6094584741986759 $253 9.6047324936527687 $196 $263 forward 7 unknown #
point $-1 -41.634223765081288 -33.192776531549164 -7.2165539581243978 #
point $-1 -41.634223765081288 33.192776531549164 -7.2165539581243978 #
loop $-1 $-1 $212 $135 #
plane-surface $-1 60.964995269631032 0 0 -1 0 0 0 0 1 forward_v I I I I #
coedge $-1 $138 $217 $264 $265 forward $79 $-1 #
coedge $-1 $140 $139 $138 $211 reversed $49 $-1 #
edge $-1 $266 -34.94434407007018 $218 -17.096958329051567 $138 $267 forward 7 unknown #
coedge $-1 $264 $268 $140 $213 forward $207 $-1 #
edge $-1 $215 -9.2832756927627891 $266 -0.1747534474641412 $212 $269 forward 7 unknown #
coedge $-1 $146 $141 $268 $270 reversed $136 $-1 #
vertex $-1 $142 $271 #
straight-curve $-1 26.020651199560874 -33.192776531549164 9.1170368912473574 1 0 0 I I #
coedge $-1 $209 $143 $146 $221 forward $79 $-1 #
vertex $-1 $144 $272 #
straight-curve $-1 43.117609528612441 -57.389933007826627 15.211827977578487 0 -1 0 I I #
straight-curve $-1 43.117609528612441 -33.192776531549157 9.1170368912473663 0 0.74314481823134659 0.66913061440640931 I I #
edge $-1 $147 43.117609528612441 $273 60.964995269631032 $146 $274 forward 7 unknown #
point $-1 43.117609528612441 -33.192776531549164 15.211827977578489 #
point $-1 43.117609528612441 -33.192776531549164 9.1170368912473592 #
edge $-1 $275 1 $275 0 $150 $-1 forward 7 unknown #
vertex $-1 $151 $276 #
ellipse-curve $-1 48.216862597474886 -26.22954368575342 8.1898198853530975 0 -0.66913061440640931 0.74314481823134659 2 0 0 1 I I #
point $-1 50.216862597474886 -29.808300977379851 12.164432434412927 #
edge $-1 $277 1 $277 0 $154 $-1 forward 7 unknown #
vertex $-1 $155 $278 #
ellipse-curve $-1 55.86574220076858 -26.22954368575342 8.1898198853530975 0 -0.66913061440640931 0.74314481823134659 2 0 0 1 I I #
point $-1 57.86574220076858 -29.808300977379851 12.164432434412927 #
plane-surface $-1 60.964995269631032 0 0 -1 0 0 0 0 1 forward_v I I I I #
coedge $-1 $163 $161 $165 $237 reversed $101 $-1 #
edge $-1 $176 -15.211827977578489 $239 15.211827977578489 $175 $279 forward 7 unknown #
vertex $-1 $237 $280 #
straight-curve $-1 -60.964995269631032 -33.192776531549164 0 0 0 -1 I I #
edge $-1 $235 -33.192776531549164 $239 33.192776531549164 $233 $281 forward 7 unknown #
straight-curve $-1 0 -33.192776531549164 -15.211827977578489 -1 0 0 I I #
vertex $-1 $168 $282 #
straight-curve $-1 0 33.192776531549164 -15.211827977578489 1 0 0 I I #
point $-1 60.964995269631032 33.192776531549164 -15.211827977578489 #
point $-1 60.964995269631032 -33.192776531549164 -15.211827977578489 #
straight-curve $-1 -60.964995269631032 0 15.211827977578489 0 -1 0 I I #
point $-1 -60.964995269631032 33.192776531549164 15.211827977578489 #
point $-1 -60.964995269631032 -33.192776531549164 15.211827977578489 #
straight-curve $-1 60.964995269631032 -33.192776531549164 0 0 0 -1 I I #
straight-curve $-1 60.964995269631032 33.192776531549164 0 0 0 -1 I I #
plane-surface $-1 0 33.192776531549164 0 0 -1 0 0 0 -1 forward_v I I I I #
coedge $-1 $189 $188 $283 $284 forward $71 $-1 #
edge $-1 $192 41.634223765081288 $285 60.964995269631032 $191 $286 forward 7 unknown #
coedge $-1 $197 $196 $189 $252 reversed $198 $-1 #
edge $-1 $287 -60.964995269631032 $253 -41.634223765081288 $251 $288 forward 7 unknown #
vertex $-1 $204 $289 #
straight-curve $-1 -41.634223765081288 0 -15.211827977578489 0 -1 0 I I #
point $-1 -41.634223765081288 -33.192776531549164 -15.211827977578491 #
coedge $-1 $283 $194 $197 $259 forward $186 $-1 #
coedge $-1 $194 $283 $201 $261 reversed $186 $-1 #
straight-curve $-1 -60.964995269631032 0 -7.2165539581243978 0 1 0 I I #
edge $-1 $199 7.2165539581243978 $287 15.211827977578489 $197 $290 forward 7 unknown #
point $-1 -60.964995269631032 33.192776531549164 -7.2165539581243978 #
edge $-1 $202 7.2165539581243978 $285 15.211827977578489 $257 $291 forward 7 unknown #
point $-1 -60.964995269631032 -33.192776531549164 -7.2165539581243978 #
straight-curve $-1 -41.634223765081288 33.192776531549164 -5.6070954839257219 0 0 -1 I I #
coedge $-1 $268 $212 $209 $265 reversed $207 $-1 #
edge $-1 $273 -33.192776531549164 $266 -26.423825423210523 $264 $292 forward 7 unknown #
vertex $-1 $211 $293 #
straight-curve $-1 26.020651199560874 -26.423825423210527 15.211827977578489 -1 0 0 I I #
coedge $-1 $212 $264 $214 $270 forward $207 $-1 #
straight-curve $-1 60.964995269631032 -26.293958304259483 15.328760859249808 0 0.74314481823134659 0.66913061440640931 I I #
edge $-1 $273 -15.211827977578489 $215 -9.1170368912473592 $268 $294 forward 7 unknown #
point $-1 60.964995269631054 -33.192776531549164 9.1170368912473592 #
point $-1 43.117609528612441 -26.423825423210523 15.211827977578489 #
vertex $-1 $265 $295 #
straight-curve $-1 0 -33.192776531549164 15.211827977578489 1 0 0 I I #
vertex $-1 $224 $296 #
point $-1 50.216862597474886 -26.22954368575342 8.1898198853530975 #
vertex $-1 $228 $297 #
point $-1 57.86574220076858 -26.22954368575342 8.1898198853530975 #
straight-curve $-1 -60.964995269631032 33.192776531549164 0 0 0 -1 I I #
point $-1 -60.964995269631032 -33.192776531549164 -15.211827977578489 #
straight-curve $-1 -60.964995269631032 0 -15.211827977578489 0 1 0 I I #
point $-1 -60.964995269631032 33.192776531549164 -15.211827977578489 #
coedge $-1 $257 $256 $249 $284 reversed $186 $-1 #
edge $-1 $285 -33.192776531549164 $287 33.192776531549164 $283 $298 forward 7 unknown #
vertex $-1 $284 $299 #
straight-curve $-1 0 -33.192776531549164 -15.211827977578489 -1 0 0 I I #
vertex $-1 $252 $300 #
straight-curve $-1 0 33.192776531549164 -15.211827977578489 1 0 0 I I #
point $-1 -41.634223765081288 33.192776531549164 -15.211827977578491 #
straight-curve $-1 -60.964995269631032 33.192776531549164 0 0 0 -1 I I #
straight-curve $-1 -60.964995269631032 -33.192776531549164 0 0 0 -1 I I #
straight-curve $-1 60.964995269631032 0 15.211827977578489 0 1 0 I I #
point $-1 60.964995269631054 -26.423825423210523 15.211827977578489 #
straight-curve $-1 60.964995269631032 -33.192776531549164 0 0 0 -1 I I #
point $-1 60.964995269631032 -33.192776531549164 15.211827977578489 #
point $-1 48.216862597474886 -24.891282456940601 6.7035302488904041 #
point $-1 55.86574220076858 -24.891282456940601 6.7035302488904041 #
straight-curve $-1 -60.964995269631032 0 -15.211827977578489 0 1 0 I I #
point $-1 -60.964995269631032 -33.192776531549164 -15.211827977578489 #
point $-1 -60.964995269631032 33.192776531549164 -15.211827977578489 #
End-of-ACIS-data 