500 0 14 0           
7 Unknown 11 ACIS 5.0 NT 24 Thu Mar 25 20:07:21 1999 
-1 9.9999999999999995e-007 1e-010 
body $-1 $14 $-1 $15 #
body $-1 $16 $-1 $17 #
body $-1 $18 $-1 $19 #
body $-1 $20 $-1 $21 #
body $-1 $22 $-1 $23 #
body $-1 $24 $-1 $25 #
body $-1 $26 $-1 $27 #
body $-1 $28 $-1 $29 #
body $-1 $30 $-1 $31 #
body $-1 $32 $-1 $33 #
body $-1 $34 $-1 $35 #
body $-1 $36 $-1 $37 #
body $-1 $38 $-1 $39 #
body $-1 $40 $-1 $41 #
lump $-1 $-1 $42 $0 #
transform $-1 1 0 0 0 1 0 0 0 1 46.974089785454879 27.951497250583319 11.582209206504107 1 rotate no_reflect no_shear #
lump $-1 $-1 $43 $1 #
transform $-1 1 0 0 0 1 0 0 0 1 46.974089785454879 27.951497250583319 11.582209206504107 1 rotate no_reflect no_shear #
lump $-1 $-1 $44 $2 #
transform $-1 1 0 0 0 1 0 0 0 1 46.974089785454879 27.951497250583319 11.582209206504107 1 rotate no_reflect no_shear #
lump $-1 $-1 $45 $3 #
transform $-1 1 0 0 0 1 0 0 0 1 46.974089785454879 27.951497250583319 11.582209206504107 1 rotate no_reflect no_shear #
lump $-1 $-1 $46 $4 #
transform $-1 1 0 0 0 1 0 0 0 1 46.974089785454879 27.951497250583319 11.582209206504107 1 rotate no_reflect no_shear #
lump $-1 $-1 $47 $5 #
transform $-1 1 0 0 0 1 0 0 0 1 46.974089785454879 27.951497250583319 11.582209206504107 1 rotate no_reflect no_shear #
lump $-1 $-1 $48 $6 #
transform $-1 1 0 0 0 1 0 0 0 1 46.974089785454879 27.951497250583319 11.582209206504107 1 rotate no_reflect no_shear #
lump $-1 $-1 $49 $7 #
transform $-1 1 0 0 0 1 0 0 0 1 46.974089785454879 27.951497250583319 11.582209206504107 1 rotate no_reflect no_shear #
lump $-1 $-1 $50 $8 #
transform $-1 1 0 0 0 1 0 0 0 1 46.974089785454879 27.951497250583319 11.582209206504107 1 rotate no_reflect no_shear #
lump $-1 $-1 $51 $9 #
transform $-1 1 0 0 0 1 0 0 0 1 46.974089785454879 27.951497250583319 11.582209206504107 1 rotate no_reflect no_shear #
lump $-1 $-1 $52 $10 #
transform $-1 1 0 0 0 1 0 0 0 1 46.974089785454879 27.951497250583319 11.582209206504107 1 rotate no_reflect no_shear #
lump $-1 $-1 $53 $11 #
transform $-1 1 0 0 0 1 0 0 0 1 46.974089785454879 27.951497250583319 11.582209206504107 1 rotate no_reflect no_shear #
lump $-1 $-1 $54 $12 #
transform $-1 1 0 0 0 1 0 0 0 1 46.974089785454879 27.951497250583319 11.582209206504107 1 rotate no_reflect no_shear #
lump $-1 $-1 $55 $13 #
transform $-1 1 0 0 0 1 0 0 0 1 46.974089785454879 27.951497250583319 11.582209206504107 1 rotate no_reflect no_shear #
shell $-1 $-1 $-1 $56 $-1 $14 #
shell $-1 $-1 $-1 $57 $-1 $16 #
shell $-1 $-1 $-1 $58 $-1 $18 #
shell $-1 $-1 $-1 $59 $-1 $20 #
shell $-1 $-1 $-1 $60 $-1 $22 #
shell $-1 $-1 $-1 $61 $-1 $24 #
shell $-1 $-1 $-1 $62 $-1 $26 #
shell $-1 $-1 $-1 $63 $-1 $28 #
shell $-1 $-1 $-1 $64 $-1 $30 #
shell $-1 $-1 $-1 $65 $-1 $32 #
shell $-1 $-1 $-1 $66 $-1 $34 #
shell $-1 $-1 $-1 $67 $-1 $36 #
shell $-1 $-1 $-1 $68 $-1 $38 #
shell $-1 $-1 $-1 $69 $-1 $40 #
face $-1 $70 $71 $42 $-1 $72 forward single #
face $-1 $73 $74 $43 $-1 $75 forward single #
face $-1 $76 $77 $44 $-1 $78 reversed single #
face $-1 $79 $80 $45 $-1 $81 forward single #
face $-1 $82 $83 $46 $-1 $84 reversed single #
face $-1 $85 $86 $47 $-1 $87 forward single #
face $-1 $88 $89 $48 $-1 $90 reversed single #
face $-1 $91 $92 $49 $-1 $93 forward single #
face $-1 $94 $95 $50 $-1 $96 reversed single #
face $-1 $97 $98 $51 $-1 $99 forward single #
face $-1 $100 $101 $52 $-1 $102 reversed single #
face $-1 $103 $104 $53 $-1 $105 forward single #
face $-1 $106 $107 $54 $-1 $108 forward single #
face $-1 $109 $110 $55 $-1 $111 forward single #
face $-1 $112 $113 $42 $-1 $114 reversed single #
loop $-1 $-1 $115 $56 #
plane-surface $-1 0 0 11.582209206504107 0 0 1 1 0 0 forward_v I I I I #
face $-1 $116 $117 $43 $-1 $118 reversed single #
loop $-1 $-1 $119 $57 #
plane-surface $-1 0 -27.951497250583319 0 0 1 0 0 0 1 forward_v I I I I #
face $-1 $120 $121 $44 $-1 $122 reversed single #
loop $-1 $-1 $123 $58 #
plane-surface $-1 -115.683439451467 -14.278523783575677 67.680661591303547 0 1 0 -0.73135370988377701 0 0.68199835119979291 forward_v I I I I #
face $-1 $124 $125 $45 $-1 $126 forward single #
loop $-1 $127 $128 $59 #
cone-surface $-1 -42.769455736981392 -11.243168214642125 7.1413540605006398 0.73135370988377701 0 -0.68199835119979291 0.68199835119979291 0 0.73135370988377701 1 I I 0 1 1 forward I I I I #
face $-1 $129 $130 $46 $-1 $131 reversed single #
loop $-1 $-1 $132 $60 #
plane-surface $-1 -115.683439451467 -2.2254204848117123 67.680661591303547 0 1 0 -0.73135370988377701 0 0.68199835119979291 forward_v I I I I #
face $-1 $133 $134 $47 $-1 $135 forward single #
loop $-1 $136 $137 $61 #
cone-surface $-1 -42.769455736981392 0.80993508412183957 7.1413540605006398 0.73135370988377701 0 -0.68199835119979291 0.68199835119979291 0 0.73135370988377701 1 I I 0 1 1 forward I I I I #
face $-1 $138 $139 $48 $-1 $140 reversed single #
loop $-1 $-1 $141 $62 #
plane-surface $-1 -115.683439451467 9.8276828139522525 67.680661591303547 0 1 0 -0.73135370988377701 0 0.68199835119979291 forward_v I I I I #
face $-1 $142 $143 $49 $-1 $144 forward single #
loop $-1 $145 $146 $63 #
cone-surface $-1 -42.769455736981392 12.863038382885801 7.1413540605006398 0.73135370988377701 0 -0.68199835119979291 0.68199835119979291 0 0.73135370988377701 1 I I 0 1 1 forward I I I I #
face $-1 $147 $148 $50 $-1 $149 reversed single #
loop $-1 $-1 $150 $64 #
plane-surface $-1 -115.683439451467 21.880786112716216 67.680661591303547 0 1 0 -0.73135370988377701 0 0.68199835119979291 forward_v I I I I #
face $-1 $151 $152 $51 $-1 $153 forward single #
loop $-1 $154 $155 $65 #
cone-surface $-1 -42.769455736981392 24.916141681649766 7.1413540605006398 0.73135370988377701 0 -0.68199835119979291 0.68199835119979291 0 0.73135370988377701 1 I I 0 1 1 forward I I I I #
face $-1 $156 $157 $52 $-1 $158 reversed single #
loop $-1 $-1 $159 $66 #
plane-surface $-1 23.902709653431501 19.427740018238577 136.99697983014619 0 -1 0 -0.57357644374324357 0 -0.81915203911291934 forward_v I I I I #
face $-1 $160 $161 $53 $-1 $162 forward single #
loop $-1 $163 $164 $67 #
cone-surface $-1 42.514426223689469 10.145562078030476 8.0354400389427436 -0.57357644374324357 0 -0.81915203911291934 0.81915203911291934 0 -0.57357644374324357 1 I I 0 1 1 forward I I I I #
face $-1 $165 $166 $54 $-1 $167 forward single #
loop $-1 $168 $169 $68 #
cone-surface $-1 42.514426223689469 13.626378805608514 8.0354400389427436 -0.57357644374324357 0 -0.81915203911291934 0.81915203911291934 0 -0.57357644374324357 1 I I 0 1 1 forward I I I I #
face $-1 $170 $171 $55 $-1 $172 forward single #
loop $-1 $173 $174 $69 #
cone-surface $-1 42.514426223689469 17.107195533186552 8.0354400389427436 -0.57357644374324357 0 -0.81915203911291934 0.81915203911291934 0 -0.57357644374324357 1 I I 0 1 1 forward I I I I #
face $-1 $175 $176 $42 $-1 $177 reversed single #
loop $-1 $-1 $178 $70 #
plane-surface $-1 0 0 -11.582209206504107 0 0 1 1 0 0 forward_v I I I I #
coedge $-1 $179 $180 $181 $182 forward $71 $-1 #
face $-1 $183 $184 $43 $-1 $185 reversed single #
loop $-1 $-1 $186 $73 #
plane-surface $-1 0 0 -11.582209206504107 0 0 1 1 0 0 forward_v I I I I #
coedge $-1 $187 $188 $189 $190 forward $74 $-1 #
face $-1 $191 $192 $44 $-1 $193 reversed single #
loop $-1 $-1 $194 $76 #
plane-surface $-1 -46.974089785454879 -11.243168214642129 3.6081580257210248 -0.73135370988377701 0 0.68199835119979291 0.68199835119979291 0 0.73135370988377701 forward_v I I I I #
coedge $-1 $195 $196 $197 $198 reversed $77 $-1 #
face $-1 $-1 $199 $45 $-1 $200 forward single #
loop $-1 $201 $202 $79 #
cone-surface $-1 -41.917106255092854 -11.243168214642125 6.34652532928882 0.73135370988377701 0 -0.68199835119979291 0.34099917559989645 0 0.36567685494188851 1 I I -0.70710678118654746 0.70710678118654746 0.5 forward I I I I #
loop $-1 $-1 $203 $59 #
coedge $-1 $128 $128 $204 $205 reversed $80 $-1 #
face $-1 $206 $207 $46 $-1 $208 reversed single #
loop $-1 $-1 $209 $82 #
plane-surface $-1 -46.974089785454879 0.80993508412183601 3.6081580257210248 -0.73135370988377701 0 0.68199835119979291 0.68199835119979291 0 0.73135370988377701 forward_v I I I I #
coedge $-1 $210 $211 $212 $213 reversed $83 $-1 #
face $-1 $-1 $214 $47 $-1 $215 forward single #
loop $-1 $216 $217 $85 #
cone-surface $-1 -41.917106255092854 0.80993508412183957 6.34652532928882 0.73135370988377701 0 -0.68199835119979291 0.34099917559989645 0 0.36567685494188851 1 I I -0.70710678118654746 0.70710678118654746 0.5 forward I I I I #
loop $-1 $-1 $218 $61 #
coedge $-1 $137 $137 $219 $220 reversed $86 $-1 #
face $-1 $221 $222 $48 $-1 $223 reversed single #
loop $-1 $-1 $224 $88 #
plane-surface $-1 -46.974089785454879 12.863038382885801 3.6081580257210248 -0.73135370988377701 0 0.68199835119979291 0.68199835119979291 0 0.73135370988377701 forward_v I I I I #
coedge $-1 $225 $226 $227 $228 reversed $89 $-1 #
face $-1 $-1 $229 $49 $-1 $230 forward single #
loop $-1 $231 $232 $91 #
cone-surface $-1 -41.917106255092854 12.863038382885801 6.34652532928882 0.73135370988377701 0 -0.68199835119979291 0.34099917559989645 0 0.36567685494188851 1 I I -0.70710678118654746 0.70710678118654746 0.5 forward I I I I #
loop $-1 $-1 $233 $63 #
coedge $-1 $146 $146 $234 $235 reversed $92 $-1 #
face $-1 $236 $237 $50 $-1 $238 forward single #
loop $-1 $-1 $239 $94 #
plane-surface $-1 -46.974089785454879 24.916141681649766 3.6081580257210248 -0.73135370988377701 0 0.68199835119979291 0.68199835119979291 0 0.73135370988377701 forward_v I I I I #
coedge $-1 $240 $241 $242 $243 reversed $95 $-1 #
face $-1 $-1 $244 $51 $-1 $245 forward single #
loop $-1 $246 $247 $97 #
cone-surface $-1 -41.917106255092854 24.916141681649766 6.34652532928882 0.73135370988377701 0 -0.68199835119979291 0.34099917559989645 0 0.36567685494188851 1 I I -0.70710678118654746 0.70710678118654746 0.5 forward I I I I #
loop $-1 $-1 $248 $65 #
coedge $-1 $155 $155 $249 $250 reversed $98 $-1 #
face $-1 $251 $252 $52 $-1 $253 reversed single #
loop $-1 $-1 $254 $100 #
plane-surface $-1 -29.983753081002568 13.626378805608514 60.039136963688748 0.57357644374324357 0 0.81915203911291934 0.81915203911291934 0 -0.57357644374324357 forward_v I I I I #
coedge $-1 $255 $256 $257 $258 reversed $101 $-1 #
face $-1 $-1 $259 $53 $-1 $260 forward single #
loop $-1 $261 $262 $103 #
cone-surface $-1 41.645064143233938 10.145562078030476 6.793862340449639 -0.57357644374324357 0 -0.81915203911291934 0.40957601955645967 0 -0.28678822187162178 1 I I -0.70710678118654746 0.70710678118654746 0.5 forward I I I I #
loop $-1 $-1 $263 $67 #
coedge $-1 $164 $164 $264 $265 reversed $104 $-1 #
face $-1 $-1 $266 $54 $-1 $267 forward single #
loop $-1 $268 $269 $106 #
cone-surface $-1 41.645064143233938 13.626378805608514 6.793862340449639 -0.57357644374324357 0 -0.81915203911291934 0.40957601955645967 0 -0.28678822187162178 1 I I -0.70710678118654746 0.70710678118654746 0.5 forward I I I I #
loop $-1 $-1 $270 $68 #
coedge $-1 $169 $169 $271 $272 reversed $107 $-1 #
face $-1 $-1 $273 $55 $-1 $274 forward single #
loop $-1 $275 $276 $109 #
cone-surface $-1 41.645064143233938 17.107195533186552 6.793862340449639 -0.57357644374324357 0 -0.81915203911291934 0.40957601955645967 0 -0.28678822187162178 1 I I -0.70710678118654746 0.70710678118654746 0.5 forward I I I I #
loop $-1 $-1 $277 $69 #
coedge $-1 $174 $174 $278 $279 reversed $110 $-1 #
face $-1 $280 $281 $42 $-1 $282 reversed single #
loop $-1 $-1 $283 $112 #
plane-surface $-1 0 -27.951497250583319 0 0 1 0 0 0 1 forward_v I I I I #
coedge $-1 $284 $285 $286 $287 forward $113 $-1 #
coedge $-1 $288 $115 $289 $290 forward $71 $-1 #
coedge $-1 $115 $288 $291 $292 forward $71 $-1 #
coedge $-1 $293 $294 $115 $182 reversed $295 $-1 #
edge $-1 $296 -27.951497250583319 $297 27.951497250583319 $181 $298 forward 7 unknown #
face $-1 $299 $300 $43 $-1 $301 forward single #
loop $-1 $-1 $302 $116 #
plane-surface $-1 46.974089785454879 0 0 -1 0 0 0 0 1 forward_v I I I I #
coedge $-1 $303 $304 $305 $306 forward $117 $-1 #
coedge $-1 $305 $119 $302 $307 reversed $74 $-1 #
coedge $-1 $119 $305 $308 $309 reversed $74 $-1 #
coedge $-1 $310 $311 $119 $190 reversed $300 $-1 #
edge $-1 $312 -46.974089785454879 $313 46.974089785454879 $189 $314 forward 7 unknown #
face $-1 $315 $316 $44 $-1 $317 forward single #
loop $-1 $-1 $318 $120 #
plane-surface $-1 -115.683439451467 -8.2078126457085805 67.680661591303547 0 -1 0 0.73135370988377701 0 -0.68199835119979291 forward_v I I I I #
coedge $-1 $319 $320 $321 $322 reversed $121 $-1 #
coedge $-1 $196 $123 $323 $324 reversed $77 $-1 #
coedge $-1 $123 $195 $319 $325 reversed $77 $-1 #
coedge $-1 $321 $326 $123 $198 forward $316 $-1 #
edge $-1 $327 10.867629940278619 $328 18.303552783332286 $197 $329 forward 7 unknown #
loop $-1 $-1 $204 $124 #
plane-surface $-1 -46.974089785454879 -11.243168214642129 3.6081580257210248 -0.73135370988377701 0 0.68199835119979291 0.68199835119979291 0 0.73135370988377701 forward_v I I I I #
loop $-1 $-1 $330 $79 #
coedge $-1 $202 $202 $203 $331 reversed $125 $-1 #
coedge $-1 $203 $203 $202 $331 forward $127 $-1 #
coedge $-1 $204 $204 $128 $205 forward $199 $-1 #
edge $-1 $332 0 $332 6.2831853071796004 $204 $333 forward 7 unknown #
face $-1 $334 $335 $46 $-1 $336 forward single #
loop $-1 $-1 $337 $129 #
plane-surface $-1 -115.683439451467 3.8452906530553843 67.680661591303547 0 -1 0 0.73135370988377701 0 -0.68199835119979291 forward_v I I I I #
coedge $-1 $338 $339 $340 $341 reversed $130 $-1 #
coedge $-1 $211 $132 $342 $343 reversed $83 $-1 #
coedge $-1 $132 $210 $338 $344 reversed $83 $-1 #
coedge $-1 $340 $345 $132 $213 forward $335 $-1 #
edge $-1 $346 10.867629940278619 $347 18.303552783332286 $212 $348 forward 7 unknown #
loop $-1 $-1 $219 $133 #
plane-surface $-1 -46.974089785454879 0.80993508412183601 3.6081580257210248 -0.73135370988377701 0 0.68199835119979291 0.68199835119979291 0 0.73135370988377701 forward_v I I I I #
loop $-1 $-1 $349 $85 #
coedge $-1 $217 $217 $218 $350 reversed $134 $-1 #
coedge $-1 $218 $218 $217 $350 forward $136 $-1 #
coedge $-1 $219 $219 $137 $220 forward $214 $-1 #
edge $-1 $351 0 $351 6.2831853071796004 $219 $352 forward 7 unknown #
face $-1 $353 $354 $48 $-1 $355 forward single #
loop $-1 $-1 $356 $138 #
plane-surface $-1 -115.683439451467 15.898393951819349 67.680661591303547 0 -1 0 0.73135370988377701 0 -0.68199835119979291 forward_v I I I I #
coedge $-1 $357 $358 $359 $360 reversed $139 $-1 #
coedge $-1 $226 $141 $361 $362 reversed $89 $-1 #
coedge $-1 $141 $225 $357 $363 reversed $89 $-1 #
coedge $-1 $359 $364 $141 $228 forward $354 $-1 #
edge $-1 $365 10.867629940278619 $366 18.303552783332286 $227 $367 forward 7 unknown #
loop $-1 $-1 $234 $142 #
plane-surface $-1 -46.974089785454879 12.863038382885801 3.6081580257210248 -0.73135370988377701 0 0.68199835119979291 0.68199835119979291 0 0.73135370988377701 forward_v I I I I #
loop $-1 $-1 $368 $91 #
coedge $-1 $232 $232 $233 $369 reversed $143 $-1 #
coedge $-1 $233 $233 $232 $369 forward $145 $-1 #
coedge $-1 $234 $234 $146 $235 forward $229 $-1 #
edge $-1 $370 0 $370 6.2831853071796004 $234 $371 forward 7 unknown #
face $-1 $372 $373 $50 $-1 $374 reversed single #
loop $-1 $-1 $242 $147 #
plane-surface $-1 0 0 11.582209206504107 0 0 1 1 0 0 forward_v I I I I #
coedge $-1 $375 $376 $377 $378 reversed $148 $-1 #
coedge $-1 $241 $150 $379 $380 reversed $95 $-1 #
coedge $-1 $150 $240 $375 $381 reversed $95 $-1 #
coedge $-1 $377 $382 $150 $243 forward $237 $-1 #
edge $-1 $383 10.867629940278619 $384 18.303552783332286 $242 $385 forward 7 unknown #
loop $-1 $-1 $249 $151 #
plane-surface $-1 -46.974089785454879 24.916141681649766 3.6081580257210248 -0.73135370988377701 0 0.68199835119979291 0.68199835119979291 0 0.73135370988377701 forward_v I I I I #
loop $-1 $-1 $386 $97 #
coedge $-1 $247 $247 $248 $387 reversed $152 $-1 #
coedge $-1 $248 $248 $247 $387 forward $154 $-1 #
coedge $-1 $249 $249 $155 $250 forward $244 $-1 #
edge $-1 $388 0 $388 6.2831853071796004 $249 $389 forward 7 unknown #
face $-1 $390 $391 $52 $-1 $392 forward single #
loop $-1 $-1 $393 $156 #
plane-surface $-1 23.902709653431501 7.8250175929784511 136.99697983014619 0 1 0 0.57357644374324357 0 0.81915203911291934 forward_v I I I I #
coedge $-1 $394 $395 $396 $397 reversed $157 $-1 #
coedge $-1 $256 $159 $398 $399 reversed $101 $-1 #
coedge $-1 $159 $255 $394 $400 reversed $101 $-1 #
coedge $-1 $396 $401 $159 $258 forward $391 $-1 #
edge $-1 $402 -35.022734958739129 $403 -27.268555552376128 $257 $404 forward 7 unknown #
loop $-1 $-1 $264 $160 #
plane-surface $-1 -29.983753081002568 13.626378805608514 60.039136963688748 0.57357644374324357 0 0.81915203911291934 0.81915203911291934 0 -0.57357644374324357 forward_v I I I I #
loop $-1 $-1 $405 $103 #
coedge $-1 $262 $262 $263 $406 reversed $161 $-1 #
coedge $-1 $263 $263 $262 $406 forward $163 $-1 #
coedge $-1 $264 $264 $164 $265 forward $259 $-1 #
edge $-1 $407 0 $407 6.2831853071796004 $264 $408 forward 7 unknown #
loop $-1 $-1 $271 $165 #
plane-surface $-1 -29.983753081002568 13.626378805608514 60.039136963688748 0.57357644374324357 0 0.81915203911291934 0.81915203911291934 0 -0.57357644374324357 forward_v I I I I #
loop $-1 $-1 $409 $106 #
coedge $-1 $269 $269 $270 $410 reversed $166 $-1 #
coedge $-1 $270 $270 $269 $410 forward $168 $-1 #
coedge $-1 $271 $271 $169 $272 forward $266 $-1 #
edge $-1 $411 0 $411 6.2831853071796004 $271 $412 forward 7 unknown #
loop $-1 $-1 $278 $170 #
plane-surface $-1 -29.983753081002568 13.626378805608514 60.039136963688748 0.57357644374324357 0 0.81915203911291934 0.81915203911291934 0 -0.57357644374324357 forward_v I I I I #
loop $-1 $-1 $413 $109 #
coedge $-1 $276 $276 $277 $414 reversed $171 $-1 #
coedge $-1 $277 $277 $276 $414 forward $173 $-1 #
coedge $-1 $278 $278 $174 $279 forward $273 $-1 #
edge $-1 $415 0 $415 6.2831853071796004 $278 $416 forward 7 unknown #
face $-1 $417 $418 $42 $-1 $419 reversed single #
loop $-1 $-1 $420 $175 #
plane-surface $-1 -46.974089785454879 0 0 1 0 0 0 0 -1 forward_v I I I I #
coedge $-1 $421 $291 $422 $423 forward $176 $-1 #
coedge $-1 $424 $178 $421 $425 forward $113 $-1 #
coedge $-1 $178 $424 $426 $427 forward $113 $-1 #
coedge $-1 $294 $293 $178 $287 reversed $295 $-1 #
edge $-1 $428 -27.951497250583319 $429 27.951497250583319 $286 $430 forward 7 unknown #
coedge $-1 $180 $179 $431 $432 forward $71 $-1 #
coedge $-1 $433 $434 $179 $290 reversed $418 $-1 #
edge $-1 $297 -46.974089785454879 $435 46.974089785454879 $289 $436 forward 7 unknown #
coedge $-1 $283 $437 $180 $292 reversed $176 $-1 #
edge $-1 $438 -46.974089785454879 $296 46.974089785454879 $291 $439 forward 7 unknown #
coedge $-1 $286 $181 $437 $440 forward $295 $-1 #
coedge $-1 $181 $286 $433 $441 reversed $295 $-1 #
loop $-1 $-1 $293 $417 #
vertex $-1 $182 $442 #
vertex $-1 $182 $443 #
straight-curve $-1 46.974089785454879 0 11.582209206504107 0 1 0 I I #
face $-1 $444 $445 $43 $-1 $446 reversed single #
loop $-1 $-1 $311 $183 #
plane-surface $-1 0 -34.787983984087141 -8.543271084857377 0 0 1 1 0 0 forward_v I I I I #
coedge $-1 $447 $448 $187 $307 forward $184 $-1 #
coedge $-1 $449 $186 $448 $450 forward $117 $-1 #
coedge $-1 $186 $449 $451 $452 forward $117 $-1 #
coedge $-1 $188 $187 $186 $306 reversed $74 $-1 #
edge $-1 $453 -46.974089785454879 $454 46.974089785454879 $186 $455 forward 7 unknown #
edge $-1 $454 -11.582209206504107 $313 -8.543271084857377 $302 $456 forward 7 unknown #
coedge $-1 $451 $457 $188 $309 forward $458 $-1 #
edge $-1 $312 8.543271084857377 $453 11.582209206504107 $308 $459 forward 7 unknown #
coedge $-1 $460 $189 $457 $461 forward $300 $-1 #
coedge $-1 $189 $460 $447 $462 forward $300 $-1 #
vertex $-1 $309 $463 #
vertex $-1 $462 $464 #
straight-curve $-1 0 -27.951497250583319 -8.543271084857377 1 0 0 I I #
face $-1 $-1 $465 $44 $-1 $466 reversed single #
loop $-1 $-1 $197 $191 #
plane-surface $-1 0 0 11.582209206504107 0 0 1 1 0 0 forward_v I I I I #
coedge $-1 $467 $468 $469 $470 reversed $192 $-1 #
coedge $-1 $471 $194 $196 $325 forward $121 $-1 #
coedge $-1 $194 $471 $467 $472 forward $121 $-1 #
coedge $-1 $469 $197 $194 $322 forward $316 $-1 #
edge $-1 $328 -8.6569396762546127 $473 -2.5862285383875161 $321 $474 forward 7 unknown #
coedge $-1 $475 $476 $195 $324 forward $465 $-1 #
edge $-1 $477 -30.232172769930749 $327 -22.258121589147667 $323 $478 forward 7 unknown #
edge $-1 $328 -10.903139032480297 $477 0 $196 $479 forward 7 unknown #
coedge $-1 $197 $469 $475 $480 forward $316 $-1 #
vertex $-1 $324 $481 #
vertex $-1 $198 $482 #
straight-curve $-1 -57.841719725733498 -14.278523783575677 11.582209206504107 1 0 0 I I #
coedge $-1 $330 $330 $-1 $483 reversed $201 $-1 #
edge $-1 $484 0 $484 6.2831853071796004 $202 $485 forward 7 unknown #
vertex $-1 $205 $486 #
ellipse-curve $-1 -43.256128363928042 -11.243168214642125 7.5951836161125668 -0.73135370988377701 0 0.68199835119979291 0.68199835119979291 0 0.73135370988377701 1 I I #
face $-1 $-1 $487 $46 $-1 $488 reversed single #
loop $-1 $-1 $212 $206 #
plane-surface $-1 0 0 11.582209206504107 0 0 1 1 0 0 forward_v I I I I #
coedge $-1 $489 $490 $491 $492 reversed $207 $-1 #
coedge $-1 $493 $209 $211 $344 forward $130 $-1 #
coedge $-1 $209 $493 $489 $494 forward $130 $-1 #
coedge $-1 $491 $212 $209 $341 forward $335 $-1 #
edge $-1 $347 -2.6303880268726303 $495 3.4403231109944663 $340 $496 forward 7 unknown #
coedge $-1 $497 $498 $210 $343 forward $487 $-1 #
edge $-1 $499 -30.232172769930749 $346 -22.258121589147667 $342 $500 forward 7 unknown #
edge $-1 $347 -10.903139032480297 $499 0 $211 $501 forward 7 unknown #
coedge $-1 $212 $491 $497 $502 forward $335 $-1 #
vertex $-1 $213 $503 #
vertex $-1 $213 $504 #
straight-curve $-1 -57.841719725733498 -2.2254204848117123 11.582209206504107 1 0 0 I I #
coedge $-1 $349 $349 $-1 $505 reversed $216 $-1 #
edge $-1 $506 0 $506 6.2831853071796004 $217 $507 forward 7 unknown #
vertex $-1 $220 $508 #
ellipse-curve $-1 -43.256128363928042 0.80993508412183957 7.5951836161125668 -0.73135370988377701 0 0.68199835119979291 0.68199835119979291 0 0.73135370988377701 1 I I #
face $-1 $-1 $509 $48 $-1 $510 reversed single #
loop $-1 $-1 $227 $221 #
plane-surface $-1 0 0 11.582209206504107 0 0 1 1 0 0 forward_v I I I I #
coedge $-1 $511 $512 $513 $514 reversed $222 $-1 #
coedge $-1 $515 $224 $226 $363 forward $139 $-1 #
coedge $-1 $224 $515 $511 $516 forward $139 $-1 #
coedge $-1 $513 $227 $224 $360 forward $354 $-1 #
edge $-1 $366 3.3961636225093521 $517 9.4668747603764487 $359 $518 forward 7 unknown #
coedge $-1 $519 $520 $225 $362 forward $509 $-1 #
edge $-1 $521 -30.232172769930749 $365 -22.258121589147667 $361 $522 forward 7 unknown #
edge $-1 $366 -10.903139032480297 $521 0 $226 $523 forward 7 unknown #
coedge $-1 $227 $513 $519 $524 forward $354 $-1 #
vertex $-1 $228 $525 #
vertex $-1 $228 $526 #
straight-curve $-1 -57.841719725733498 9.8276828139522525 11.582209206504107 1 0 0 I I #
coedge $-1 $368 $368 $-1 $527 reversed $231 $-1 #
edge $-1 $528 0 $528 6.2831853071796004 $232 $529 forward 7 unknown #
vertex $-1 $235 $530 #
ellipse-curve $-1 -43.256128363928042 12.863038382885801 7.5951836161125668 -0.73135370988377701 0 0.68199835119979291 0.68199835119979291 0 0.73135370988377701 1 I I #
face $-1 $-1 $531 $50 $-1 $532 reversed single #
loop $-1 $-1 $533 $236 #
plane-surface $-1 0 27.951497250583319 0 0 -1 0 0 0 -1 forward_v I I I I #
coedge $-1 $534 $239 $241 $381 forward $148 $-1 #
coedge $-1 $239 $534 $533 $535 reversed $148 $-1 #
coedge $-1 $536 $242 $239 $378 forward $237 $-1 #
edge $-1 $384 9.4227152718913327 $537 15.493426409758433 $377 $538 forward 7 unknown #
coedge $-1 $539 $540 $240 $380 forward $531 $-1 #
edge $-1 $541 -30.232172769930749 $383 -22.258121589147667 $379 $542 forward 7 unknown #
edge $-1 $384 -10.903139032480297 $541 0 $241 $543 forward 7 unknown #
coedge $-1 $242 $536 $539 $544 forward $237 $-1 #
vertex $-1 $380 $545 #
vertex $-1 $243 $546 #
straight-curve $-1 -57.841719725733498 21.880786112716216 11.582209206504107 1 0 0 I I #
coedge $-1 $386 $386 $-1 $547 reversed $246 $-1 #
edge $-1 $548 0 $548 6.2831853071796004 $247 $549 forward 7 unknown #
vertex $-1 $250 $550 #
ellipse-curve $-1 -43.256128363928042 24.916141681649766 7.5951836161125668 -0.73135370988377701 0 0.68199835119979291 0.68199835119979291 0 0.73135370988377701 1 I I #
face $-1 $-1 $551 $52 $-1 $552 reversed single #
loop $-1 $-1 $257 $251 #
plane-surface $-1 0 0 11.582209206504107 0 0 1 1 0 0 forward_v I I I I #
coedge $-1 $553 $554 $555 $556 reversed $252 $-1 #
coedge $-1 $557 $254 $256 $400 forward $157 $-1 #
coedge $-1 $254 $557 $553 $558 forward $157 $-1 #
coedge $-1 $555 $257 $254 $397 forward $391 $-1 #
edge $-1 $403 -12.61455061543432 $559 -1.0118281901741941 $396 $560 forward 7 unknown #
coedge $-1 $561 $562 $255 $399 forward $551 $-1 #
edge $-1 $563 -62.345815685818415 $402 -56.916280708568991 $398 $564 forward 7 unknown #
edge $-1 $403 84.482074335109829 $563 93.948179570909758 $256 $565 forward 7 unknown #
coedge $-1 $257 $555 $561 $566 forward $391 $-1 #
vertex $-1 $399 $567 #
vertex $-1 $258 $568 #
straight-curve $-1 11.95135482671575 19.427740018238577 11.582209206504103 -1 0 0 I I #
coedge $-1 $405 $405 $-1 $569 reversed $261 $-1 #
edge $-1 $570 0 $570 6.2831853071796004 $262 $571 forward 7 unknown #
vertex $-1 $265 $572 #
ellipse-curve $-1 43.097000082273382 10.145562078030476 8.8674417178793945 0.57357644374324357 0 0.81915203911291934 0.81915203911291934 0 -0.57357644374324357 1 I I #
coedge $-1 $409 $409 $-1 $573 reversed $268 $-1 #
edge $-1 $574 0 $574 6.2831853071796004 $269 $575 forward 7 unknown #
vertex $-1 $272 $576 #
ellipse-curve $-1 43.097000082273382 13.626378805608514 8.8674417178793945 0.57357644374324357 0 0.81915203911291934 0.81915203911291934 0 -0.57357644374324357 1 I I #
coedge $-1 $413 $413 $-1 $577 reversed $275 $-1 #
edge $-1 $578 0 $578 6.2831853071796004 $276 $579 forward 7 unknown #
vertex $-1 $279 $580 #
ellipse-curve $-1 43.097000082273382 17.107195533186552 8.8674417178793945 0.57357644374324357 0 0.81915203911291934 0.81915203911291934 0 -0.57357644374324357 1 I I #
face $-1 $-1 $295 $42 $-1 $581 reversed single #
loop $-1 $-1 $433 $280 #
plane-surface $-1 0 27.951497250583319 0 0 -1 0 0 0 -1 forward_v I I I I #
coedge $-1 $582 $431 $434 $583 forward $281 $-1 #
coedge $-1 $437 $283 $284 $425 reversed $176 $-1 #
coedge $-1 $431 $582 $283 $423 reversed $281 $-1 #
edge $-1 $438 -11.582209206504107 $584 11.582209206504107 $422 $585 forward 7 unknown #
coedge $-1 $285 $284 $582 $586 forward $113 $-1 #
edge $-1 $429 -46.974089785454879 $584 46.974089785454879 $421 $587 forward 7 unknown #
coedge $-1 $434 $433 $285 $427 reversed $418 $-1 #
edge $-1 $588 -46.974089785454879 $428 46.974089785454879 $426 $589 forward 7 unknown #
vertex $-1 $287 $590 #
vertex $-1 $440 $591 #
straight-curve $-1 46.974089785454879 0 -11.582209206504107 0 -1 0 I I #
coedge $-1 $420 $422 $288 $432 reversed $281 $-1 #
edge $-1 $435 -27.951497250583319 $438 27.951497250583319 $431 $592 forward 7 unknown #
coedge $-1 $426 $289 $294 $441 forward $418 $-1 #
coedge $-1 $289 $426 $420 $583 reversed $418 $-1 #
vertex $-1 $290 $593 #
straight-curve $-1 0 27.951497250583319 11.582209206504107 -1 0 0 I I #
coedge $-1 $291 $421 $293 $440 reversed $176 $-1 #
vertex $-1 $432 $594 #
straight-curve $-1 0 -27.951497250583319 11.582209206504107 1 0 0 I I #
edge $-1 $296 -11.582209206504107 $429 11.582209206504107 $293 $595 forward 7 unknown #
edge $-1 $297 -11.582209206504107 $428 11.582209206504107 $294 $596 forward 7 unknown #
point $-1 46.974089785454879 -27.951497250583319 11.582209206504107 #
point $-1 46.974089785454879 27.951497250583319 11.582209206504107 #
face $-1 $-1 $458 $43 $-1 $597 reversed single #
loop $-1 $-1 $598 $299 #
plane-surface $-1 0 -41.624470717590967 -10.062740145680742 0 1 0 0 0 1 forward_v I I I I #
coedge $-1 $599 $302 $311 $462 reversed $184 $-1 #
coedge $-1 $302 $599 $303 $450 reversed $184 $-1 #
coedge $-1 $304 $303 $600 $601 forward $117 $-1 #
edge $-1 $454 27.951497250583319 $602 41.624470717590967 $448 $603 forward 7 unknown #
coedge $-1 $604 $308 $304 $452 reversed $458 $-1 #
edge $-1 $605 -41.624470717590967 $453 -27.951497250583319 $451 $606 forward 7 unknown #
vertex $-1 $309 $607 #
vertex $-1 $450 $608 #
straight-curve $-1 0 -27.951497250583319 -11.582209206504107 1 0 0 I I #
straight-curve $-1 46.974089785454879 -27.951497250583319 0 0 0 1 I I #
coedge $-1 $308 $604 $310 $461 reversed $458 $-1 #
loop $-1 $-1 $308 $444 #
straight-curve $-1 -46.974089785454879 -27.951497250583319 0 0 0 -1 I I #
coedge $-1 $311 $310 $609 $610 forward $300 $-1 #
edge $-1 $312 -6.836486733503822 $611 6.8364867335038255 $457 $612 forward 7 unknown #
edge $-1 $613 -6.8364867335038255 $313 6.836486733503822 $447 $614 forward 7 unknown #
point $-1 -46.974089785454879 -27.951497250583319 -8.543271084857377 #
point $-1 46.974089785454879 -27.951497250583319 -8.543271084857377 #
loop $-1 $-1 $323 $315 #
plane-surface $-1 -46.974089785454879 0 0 1 0 0 0 0 -1 forward_v I I I I #
coedge $-1 $468 $318 $320 $472 reversed $192 $-1 #
coedge $-1 $318 $467 $615 $616 reversed $192 $-1 #
coedge $-1 $326 $321 $318 $470 forward $316 $-1 #
edge $-1 $473 -18.303552783332286 $617 -10.867629940278619 $469 $618 forward 7 unknown #
coedge $-1 $320 $319 $476 $619 reversed $121 $-1 #
edge $-1 $620 0 $473 10.903139032480297 $467 $621 forward 7 unknown #
vertex $-1 $322 $622 #
straight-curve $-1 -39.538166942401212 -5.6215841073210644 11.582209206504107 0 1 0 I I #
coedge $-1 $615 $323 $326 $480 reversed $465 $-1 #
coedge $-1 $323 $615 $471 $619 forward $465 $-1 #
vertex $-1 $324 $623 #
straight-curve $-1 -46.974089785454879 -14.278523783575677 33.840330795651774 0 0 1 I I #
straight-curve $-1 -46.974089785454879 -14.278523783575677 3.6081580257210248 -0.68199835119979291 0 -0.73135370988377701 I I #
edge $-1 $617 8.2078126457085805 $327 14.278523783575677 $475 $624 forward 7 unknown #
point $-1 -46.974089785454879 -14.278523783575677 11.582209206504107 #
point $-1 -39.538166942401212 -14.278523783575677 11.582209206504107 #
edge $-1 $625 1 $625 0 $330 $-1 forward 7 unknown #
vertex $-1 $331 $626 #
ellipse-curve $-1 -42.282783110034742 -11.243168214642125 6.6875245048887164 -0.73135370988377701 0 0.68199835119979291 0.68199835119979291 0 0.73135370988377701 1 I I #
point $-1 -42.574130012728247 -11.243168214642125 8.3265373259963393 #
loop $-1 $-1 $342 $334 #
plane-surface $-1 -46.974089785454879 0 0 1 0 0 0 0 -1 forward_v I I I I #
coedge $-1 $490 $337 $339 $494 reversed $207 $-1 #
coedge $-1 $337 $489 $627 $628 reversed $207 $-1 #
coedge $-1 $345 $340 $337 $492 forward $335 $-1 #
edge $-1 $495 -18.303552783332286 $629 -10.867629940278619 $491 $630 forward 7 unknown #
coedge $-1 $339 $338 $498 $631 reversed $130 $-1 #
edge $-1 $632 0 $495 10.903139032480297 $489 $633 forward 7 unknown #
vertex $-1 $341 $634 #
straight-curve $-1 -39.538166942401212 0.40496754206091801 11.582209206504107 0 1 0 I I #
coedge $-1 $627 $342 $345 $502 reversed $487 $-1 #
coedge $-1 $342 $627 $493 $631 forward $487 $-1 #
vertex $-1 $343 $635 #
straight-curve $-1 -46.974089785454879 -2.2254204848117123 33.840330795651774 0 0 1 I I #
straight-curve $-1 -46.974089785454879 -2.2254204848117123 3.6081580257210248 -0.68199835119979291 0 -0.73135370988377701 I I #
edge $-1 $629 -3.8452906530553843 $346 2.2254204848117123 $497 $636 forward 7 unknown #
point $-1 -46.974089785454879 -2.2254204848117123 11.582209206504107 #
point $-1 -39.538166942401212 -2.2254204848117123 11.582209206504107 #
edge $-1 $637 1 $637 0 $349 $-1 forward 7 unknown #
vertex $-1 $350 $638 #
ellipse-curve $-1 -42.282783110034742 0.80993508412183957 6.6875245048887164 -0.73135370988377701 0 0.68199835119979291 0.68199835119979291 0 0.73135370988377701 1 I I #
point $-1 -42.574130012728247 0.80993508412183957 8.3265373259963393 #
loop $-1 $-1 $361 $353 #
plane-surface $-1 -46.974089785454879 0 0 1 0 0 0 0 -1 forward_v I I I I #
coedge $-1 $512 $356 $358 $516 reversed $222 $-1 #
coedge $-1 $356 $511 $639 $640 reversed $222 $-1 #
coedge $-1 $364 $359 $356 $514 forward $354 $-1 #
edge $-1 $517 -18.303552783332286 $641 -10.867629940278619 $513 $642 forward 7 unknown #
coedge $-1 $358 $357 $520 $643 reversed $139 $-1 #
edge $-1 $644 0 $517 10.903139032480297 $511 $645 forward 7 unknown #
vertex $-1 $360 $646 #
straight-curve $-1 -39.538166942401212 6.4315191914429004 11.582209206504107 0 1 0 I I #
coedge $-1 $639 $361 $364 $524 reversed $509 $-1 #
coedge $-1 $361 $639 $515 $643 forward $509 $-1 #
vertex $-1 $362 $647 #
straight-curve $-1 -46.974089785454879 9.8276828139522525 33.840330795651774 0 0 1 I I #
straight-curve $-1 -46.974089785454879 9.8276828139522525 3.6081580257210248 -0.68199835119979291 0 -0.73135370988377701 I I #
edge $-1 $641 -15.898393951819349 $365 -9.8276828139522525 $519 $648 forward 7 unknown #
point $-1 -46.974089785454879 9.8276828139522525 11.582209206504107 #
point $-1 -39.538166942401212 9.8276828139522525 11.582209206504107 #
edge $-1 $649 1 $649 0 $368 $-1 forward 7 unknown #
vertex $-1 $369 $650 #
ellipse-curve $-1 -42.282783110034742 12.863038382885801 6.6875245048887164 -0.73135370988377701 0 0.68199835119979291 0.68199835119979291 0 0.73135370988377701 1 I I #
point $-1 -42.574130012728247 12.863038382885801 8.3265373259963393 #
loop $-1 $-1 $379 $372 #
plane-surface $-1 -46.974089785454879 0 0 1 0 0 0 0 -1 forward_v I I I I #
coedge $-1 $651 $652 $376 $535 forward $373 $-1 #
coedge $-1 $376 $375 $540 $653 reversed $148 $-1 #
edge $-1 $537 3.7955669799363378 $654 14.698706012416636 $533 $655 forward 7 unknown #
coedge $-1 $382 $377 $652 $656 forward $237 $-1 #
vertex $-1 $656 $657 #
straight-curve $-1 -39.538166942401212 12.458070840824883 11.582209206504107 0 1 0 I I #
coedge $-1 $658 $379 $382 $544 reversed $531 $-1 #
coedge $-1 $379 $658 $534 $653 forward $531 $-1 #
vertex $-1 $380 $659 #
straight-curve $-1 -46.974089785454879 21.880786112716216 33.840330795651774 0 0 1 I I #
straight-curve $-1 -46.974089785454879 21.880786112716216 3.6081580257210248 -0.68199835119979291 0 -0.73135370988377701 I I #
edge $-1 $660 -27.951497250583319 $383 -21.880786112716216 $539 $661 forward 7 unknown #
point $-1 -46.974089785454879 21.880786112716216 11.582209206504107 #
point $-1 -39.538166942401212 21.880786112716216 11.582209206504107 #
edge $-1 $662 1 $662 0 $386 $-1 forward 7 unknown #
vertex $-1 $387 $663 #
ellipse-curve $-1 -42.282783110034742 24.916141681649766 6.6875245048887164 -0.73135370988377701 0 0.68199835119979291 0.68199835119979291 0 0.73135370988377701 1 I I #
point $-1 -42.574130012728247 24.916141681649766 8.3265373259963393 #
loop $-1 $-1 $398 $390 #
plane-surface $-1 46.974089785454879 0 0 -1 0 0 0 0 1 forward_v I I I I #
coedge $-1 $554 $393 $395 $558 reversed $252 $-1 #
coedge $-1 $393 $553 $664 $665 reversed $252 $-1 #
coedge $-1 $401 $396 $393 $556 forward $391 $-1 #
edge $-1 $559 27.268555552376128 $666 35.022734958739129 $555 $667 forward 7 unknown #
coedge $-1 $395 $394 $562 $668 reversed $157 $-1 #
edge $-1 $669 -93.948179570909758 $559 -84.482074335109829 $553 $670 forward 7 unknown #
vertex $-1 $397 $671 #
straight-curve $-1 39.219910379091871 6.813189402804257 11.58220920650411 0 -1 0 I I #
coedge $-1 $664 $398 $401 $566 reversed $551 $-1 #
coedge $-1 $398 $664 $557 $668 forward $551 $-1 #
vertex $-1 $399 $672 #
straight-curve $-1 46.974089785454879 19.427740018238577 68.498489915073094 0 0 1 I I #
straight-curve $-1 -29.983753081002568 19.427740018238577 60.039136963688748 0.81915203911291934 0 -0.57357644374324357 I I #
edge $-1 $666 7.8250175929784511 $402 19.427740018238577 $561 $673 forward 7 unknown #
point $-1 46.974089785454879 19.427740018238577 11.582209206504107 #
point $-1 39.219910379091878 19.427740018238577 11.582209206504103 #
edge $-1 $674 1 $674 0 $405 $-1 forward 7 unknown #
vertex $-1 $406 $675 #
ellipse-curve $-1 41.931852365105563 10.145562078030476 7.2034383600060989 0.57357644374324357 0 0.81915203911291934 0.81915203911291934 0 -0.57357644374324357 1 I I #
point $-1 43.91615212138629 10.145562078030476 8.2938652741361452 #
edge $-1 $676 1 $676 0 $409 $-1 forward 7 unknown #
vertex $-1 $410 $677 #
ellipse-curve $-1 41.931852365105563 13.626378805608514 7.2034383600060989 0.57357644374324357 0 0.81915203911291934 0.81915203911291934 0 -0.57357644374324357 1 I I #
point $-1 43.91615212138629 13.626378805608514 8.2938652741361452 #
edge $-1 $678 1 $678 0 $413 $-1 forward 7 unknown #
vertex $-1 $414 $679 #
ellipse-curve $-1 41.931852365105563 17.107195533186552 7.2034383600060989 0.57357644374324357 0 0.81915203911291934 0.81915203911291934 0 -0.57357644374324357 1 I I #
point $-1 43.91615212138629 17.107195533186552 8.2938652741361452 #
plane-surface $-1 46.974089785454879 0 0 -1 0 0 0 0 1 forward_v I I I I #
coedge $-1 $422 $420 $424 $586 reversed $281 $-1 #
edge $-1 $435 -11.582209206504107 $588 11.582209206504107 $434 $680 forward 7 unknown #
vertex $-1 $586 $681 #
straight-curve $-1 -46.974089785454879 -27.951497250583319 0 0 0 -1 I I #
edge $-1 $584 -27.951497250583319 $588 27.951497250583319 $582 $682 forward 7 unknown #
straight-curve $-1 0 -27.951497250583319 -11.582209206504107 -1 0 0 I I #
vertex $-1 $427 $683 #
straight-curve $-1 0 27.951497250583319 -11.582209206504107 1 0 0 I I #
point $-1 46.974089785454879 27.951497250583319 -11.582209206504107 #
point $-1 46.974089785454879 -27.951497250583319 -11.582209206504107 #
straight-curve $-1 -46.974089785454879 0 11.582209206504107 0 -1 0 I I #
point $-1 -46.974089785454879 27.951497250583319 11.582209206504107 #
point $-1 -46.974089785454879 -27.951497250583319 11.582209206504107 #
straight-curve $-1 46.974089785454879 -27.951497250583319 0 0 0 -1 I I #
straight-curve $-1 46.974089785454879 27.951497250583319 0 0 0 -1 I I #
plane-surface $-1 -46.974089785454879 0 0 1 0 0 0 0 -1 forward_v I I I I #
coedge $-1 $600 $609 $604 $684 forward $445 $-1 #
coedge $-1 $448 $447 $685 $686 forward $184 $-1 #
coedge $-1 $685 $598 $449 $601 reversed $445 $-1 #
edge $-1 $602 -46.974089785454879 $605 46.974089785454879 $600 $687 forward 7 unknown #
vertex $-1 $686 $688 #
straight-curve $-1 46.974089785454879 0 -11.582209206504107 0 -1 0 I I #
coedge $-1 $457 $451 $598 $684 reversed $458 $-1 #
vertex $-1 $452 $689 #
straight-curve $-1 -46.974089785454879 0 -11.582209206504107 0 1 0 I I #
point $-1 -46.974089785454879 -27.951497250583319 -11.582209206504107 #
point $-1 46.974089785454879 -27.951497250583319 -11.582209206504107 #
coedge $-1 $598 $685 $460 $610 reversed $445 $-1 #
edge $-1 $611 -46.974089785454879 $613 46.974089785454879 $609 $690 forward 7 unknown #
vertex $-1 $461 $691 #
straight-curve $-1 -46.974089785454879 -34.787983984087141 -8.543271084857377 0 -1 0 I I #
vertex $-1 $462 $692 #
straight-curve $-1 46.974089785454879 -34.787983984087141 -8.543271084857377 0 1 0 I I #
coedge $-1 $476 $475 $468 $616 forward $465 $-1 #
edge $-1 $617 22.258121589147667 $620 30.232172769930749 $615 $693 forward 7 unknown #
vertex $-1 $480 $694 #
straight-curve $-1 -57.841719725733498 -8.2078126457085805 11.582209206504107 -1 0 0 I I #
edge $-1 $620 2.5862285383875161 $477 8.6569396762546127 $476 $695 forward 7 unknown #
vertex $-1 $619 $696 #
straight-curve $-1 -46.974089785454879 -8.2078126457085805 3.6081580257210248 0.68199835119979291 0 0.73135370988377701 I I #
point $-1 -39.538166942401212 -8.2078126457085805 11.582209206504107 #
point $-1 -46.974089785454879 -14.278523783575677 3.6081580257210248 #
straight-curve $-1 -46.974089785454879 0 11.582209206504107 0 -1 0 I I #
vertex $-1 $483 $697 #
point $-1 -41.600784758834948 -11.243168214642125 7.4188782147724934 #
coedge $-1 $498 $497 $490 $628 forward $487 $-1 #
edge $-1 $629 22.258121589147667 $632 30.232172769930749 $627 $698 forward 7 unknown #
vertex $-1 $502 $699 #
straight-curve $-1 -57.841719725733498 3.8452906530553843 11.582209206504107 -1 0 0 I I #
edge $-1 $632 -3.4403231109944663 $499 2.6303880268726303 $498 $700 forward 7 unknown #
vertex $-1 $631 $701 #
straight-curve $-1 -46.974089785454879 3.8452906530553843 3.6081580257210248 0.68199835119979291 0 0.73135370988377701 I I #
point $-1 -39.538166942401212 3.8452906530553843 11.582209206504107 #
point $-1 -46.974089785454879 -2.2254204848117123 3.6081580257210248 #
straight-curve $-1 -46.974089785454879 0 11.582209206504107 0 -1 0 I I #
vertex $-1 $505 $702 #
point $-1 -41.600784758834948 0.80993508412183957 7.4188782147724934 #
coedge $-1 $520 $519 $512 $640 forward $509 $-1 #
edge $-1 $641 22.258121589147667 $644 30.232172769930749 $639 $703 forward 7 unknown #
vertex $-1 $524 $704 #
straight-curve $-1 -57.841719725733498 15.898393951819349 11.582209206504107 -1 0 0 I I #
edge $-1 $644 -9.4668747603764487 $521 -3.3961636225093521 $520 $705 forward 7 unknown #
vertex $-1 $643 $706 #
straight-curve $-1 -46.974089785454879 15.898393951819349 3.6081580257210248 0.68199835119979291 0 0.73135370988377701 I I #
point $-1 -39.538166942401212 15.898393951819349 11.582209206504107 #
point $-1 -46.974089785454879 9.8276828139522525 3.6081580257210248 #
straight-curve $-1 -46.974089785454879 0 11.582209206504107 0 -1 0 I I #
vertex $-1 $527 $707 #
point $-1 -41.600784758834948 12.863038382885801 7.4188782147724934 #
coedge $-1 $652 $533 $658 $708 reversed $373 $-1 #
coedge $-1 $533 $651 $536 $656 reversed $373 $-1 #
edge $-1 $654 -15.493426409758433 $541 -9.4227152718913327 $540 $709 forward 7 unknown #
vertex $-1 $535 $710 #
straight-curve $-1 -36.949596520216247 27.951497250583319 14.358111198392907 -0.68199835119979291 0 -0.73135370988377701 I I #
edge $-1 $537 39.538166942401212 $660 46.974089785454879 $652 $711 forward 7 unknown #
point $-1 -39.538166942401212 27.951497250583316 11.582209206504107 #
coedge $-1 $540 $539 $651 $708 forward $531 $-1 #
point $-1 -46.974089785454879 21.880786112716216 3.6081580257210248 #
vertex $-1 $656 $712 #
straight-curve $-1 -46.974089785454879 0 11.582209206504107 0 -1 0 I I #
vertex $-1 $547 $713 #
point $-1 -41.600784758834948 24.916141681649766 7.4188782147724934 #
coedge $-1 $562 $561 $554 $665 forward $551 $-1 #
edge $-1 $666 56.916280708568991 $669 62.345815685818415 $664 $714 forward 7 unknown #
vertex $-1 $566 $715 #
straight-curve $-1 11.95135482671575 7.8250175929784511 11.582209206504103 1 0 0 I I #
edge $-1 $669 1.0118281901741941 $563 12.61455061543432 $562 $716 forward 7 unknown #
vertex $-1 $668 $717 #
straight-curve $-1 -29.983753081002568 7.8250175929784511 60.039136963688748 -0.81915203911291934 0 0.57357644374324357 I I #
point $-1 39.219910379091878 7.8250175929784511 11.582209206504103 #
point $-1 46.974089785454872 19.427740018238577 6.1526742292546786 #
straight-curve $-1 46.974089785454879 0 11.582209206504107 0 1 0 I I #
vertex $-1 $569 $718 #
point $-1 42.751004404218477 10.145562078030476 6.6298619162628549 #
vertex $-1 $573 $719 #
point $-1 42.751004404218477 13.626378805608514 6.6298619162628549 #
vertex $-1 $577 $720 #
point $-1 42.751004404218477 17.107195533186552 6.6298619162628549 #
straight-curve $-1 -46.974089785454879 27.951497250583319 0 0 0 -1 I I #
point $-1 -46.974089785454879 -27.951497250583319 -11.582209206504107 #
straight-curve $-1 -46.974089785454879 0 -11.582209206504107 0 1 0 I I #
point $-1 -46.974089785454879 27.951497250583319 -11.582209206504107 #
edge $-1 $611 -1.519469060823365 $605 1.519469060823365 $604 $721 forward 7 unknown #
coedge $-1 $609 $600 $599 $686 reversed $445 $-1 #
edge $-1 $613 -1.519469060823365 $602 1.519469060823365 $599 $722 forward 7 unknown #
straight-curve $-1 0 -41.624470717590967 -11.582209206504107 -1 0 0 I I #
point $-1 46.974089785454879 -41.624470717590967 -11.582209206504107 #
point $-1 -46.974089785454879 -41.624470717590967 -11.582209206504107 #
straight-curve $-1 0 -41.624470717590967 -8.543271084857377 1 0 0 I I #
point $-1 -46.974089785454879 -41.624470717590967 -8.543271084857377 #
point $-1 46.974089785454879 -41.624470717590967 -8.543271084857377 #
straight-curve $-1 -46.974089785454879 -8.2078126457085805 33.840330795651774 0 0 -1 I I #
point $-1 -46.974089785454879 -8.2078126457085805 11.582209206504107 #
straight-curve $-1 -46.974089785454879 -5.6215841073210644 3.6081580257210262 0 -1 0 I I #
point $-1 -46.974089785454879 -8.2078126457085805 3.6081580257210248 #
point $-1 -41.551429400150965 -11.243168214642125 6.0055261536889235 #
straight-curve $-1 -46.974089785454879 3.8452906530553843 33.840330795651774 0 0 -1 I I #
point $-1 -46.974089785454879 3.8452906530553843 11.582209206504107 #
straight-curve $-1 -46.974089785454879 0.40496754206091801 3.6081580257210262 0 -1 0 I I #
point $-1 -46.974089785454879 3.8452906530553843 3.6081580257210248 #
point $-1 -41.551429400150965 0.80993508412183957 6.0055261536889235 #
straight-curve $-1 -46.974089785454879 15.898393951819349 33.840330795651774 0 0 -1 I I #
point $-1 -46.974089785454879 15.898393951819349 11.582209206504107 #
straight-curve $-1 -46.974089785454879 6.4315191914429004 3.6081580257210262 0 -1 0 I I #
point $-1 -46.974089785454879 15.898393951819349 3.6081580257210248 #
point $-1 -41.551429400150965 12.863038382885801 6.0055261536889235 #
edge $-1 $660 -11.582209206504107 $654 -3.6081580257210248 $651 $723 forward 7 unknown #
straight-curve $-1 -46.974089785454879 12.458070840824883 3.6081580257210262 0 -1 0 I I #
point $-1 -46.974089785454879 27.951497250583316 3.6081580257210248 #
straight-curve $-1 0 27.951497250583319 11.582209206504107 -1 0 0 I I #
point $-1 -46.974089785454879 27.951497250583319 11.582209206504107 #
point $-1 -41.551429400150965 24.916141681649766 6.0055261536889235 #
straight-curve $-1 46.974089785454879 7.8250175929784511 68.498489915073094 0 0 -1 I I #
point $-1 46.974089785454879 7.8250175929784511 11.582209206504107 #
straight-curve $-1 46.974089785454879 6.813189402804257 6.1526742292546786 0 1 0 I I #
point $-1 46.974089785454872 7.8250175929784511 6.1526742292546786 #
point $-1 41.358275921362313 10.145562078030476 6.384286320893179 #
point $-1 41.358275921362313 13.626378805608514 6.384286320893179 #
point $-1 41.358275921362313 17.107195533186552 6.384286320893179 #
straight-curve $-1 -46.974089785454879 -41.624470717590967 -10.062740145680742 0 0 -1 I I #
straight-curve $-1 46.974089785454879 -41.624470717590967 -10.062740145680742 0 0 -1 I I #
straight-curve $-1 -46.974089785454879 27.951497250583319 0 0 0 -1 I I #
End-of-ACIS-data 