500 0 10 0           
7 Unknown 11 ACIS 5.0 NT 24 Fri Mar 26 01:06:54 1999 
-1 9.9999999999999995e-007 1e-010 
body $-1 $10 $-1 $11 #
body $-1 $12 $-1 $13 #
body $-1 $14 $-1 $15 #
body $-1 $16 $-1 $17 #
body $-1 $18 $-1 $19 #
body $-1 $20 $-1 $21 #
body $-1 $22 $-1 $23 #
body $-1 $24 $-1 $25 #
body $-1 $26 $-1 $27 #
body $-1 $28 $-1 $29 #
lump $-1 $-1 $30 $0 #
transform $-1 1 0 0 0 1 0 0 0 1 56.172368541520427 28.104527248249589 8.4703839012669349 1 rotate no_reflect no_shear #
lump $-1 $-1 $31 $1 #
transform $-1 1 0 0 0 1 0 0 0 1 56.172368541520427 28.104527248249589 8.4703839012669349 1 rotate no_reflect no_shear #
lump $-1 $-1 $32 $2 #
transform $-1 1 0 0 0 1 0 0 0 1 56.172368541520427 28.104527248249589 8.4703839012669349 1 rotate no_reflect no_shear #
lump $-1 $-1 $33 $3 #
transform $-1 1 0 0 0 1 0 0 0 1 56.172368541520427 28.104527248249589 8.4703839012669349 1 rotate no_reflect no_shear #
lump $-1 $-1 $34 $4 #
transform $-1 1 0 0 0 1 0 0 0 1 56.172368541520427 28.104527248249589 8.4703839012669349 1 rotate no_reflect no_shear #
lump $-1 $-1 $35 $5 #
transform $-1 1 0 0 0 1 0 0 0 1 56.172368541520427 28.104527248249589 8.4703839012669349 1 rotate no_reflect no_shear #
lump $-1 $-1 $36 $6 #
transform $-1 1 0 0 0 1 0 0 0 1 56.172368541520427 28.104527248249589 8.4703839012669349 1 rotate no_reflect no_shear #
lump $-1 $-1 $37 $7 #
transform $-1 1 0 0 0 1 0 0 0 1 56.172368541520427 28.104527248249589 8.4703839012669349 1 rotate no_reflect no_shear #
lump $-1 $-1 $38 $8 #
transform $-1 1 0 0 0 1 0 0 0 1 56.172368541520427 28.104527248249589 8.4703839012669349 1 rotate no_reflect no_shear #
lump $-1 $-1 $39 $9 #
transform $-1 1 0 0 0 1 0 0 0 1 56.172368541520427 28.104527248249589 8.4703839012669349 1 rotate no_reflect no_shear #
shell $-1 $-1 $-1 $40 $-1 $10 #
shell $-1 $-1 $-1 $41 $-1 $12 #
shell $-1 $-1 $-1 $42 $-1 $14 #
shell $-1 $-1 $-1 $43 $-1 $16 #
shell $-1 $-1 $-1 $44 $-1 $18 #
shell $-1 $-1 $-1 $45 $-1 $20 #
shell $-1 $-1 $-1 $46 $-1 $22 #
shell $-1 $-1 $-1 $47 $-1 $24 #
shell $-1 $-1 $-1 $48 $-1 $26 #
shell $-1 $-1 $-1 $49 $-1 $28 #
face $-1 $50 $51 $30 $-1 $52 forward single #
face $-1 $53 $54 $31 $-1 $55 forward single #
face $-1 $56 $57 $32 $-1 $58 reversed single #
face $-1 $59 $60 $33 $-1 $61 forward single #
face $-1 $62 $63 $34 $-1 $64 forward single #
face $-1 $65 $66 $35 $-1 $67 forward single #
face $-1 $68 $69 $36 $-1 $70 reversed single #
face $-1 $71 $72 $37 $-1 $73 forward single #
face $-1 $74 $75 $38 $-1 $76 forward single #
face $-1 $77 $78 $39 $-1 $79 forward single #
face $-1 $80 $81 $30 $-1 $82 reversed single #
loop $-1 $-1 $83 $40 #
plane-surface $-1 0 0 8.4703839012669349 0 0 1 1 0 0 forward_v I I I I #
face $-1 $84 $85 $31 $-1 $86 reversed single #
loop $-1 $-1 $87 $41 #
plane-surface $-1 -56.172368541520427 0 0 1 0 0 0 0 -1 forward_v I I I I #
face $-1 $88 $89 $32 $-1 $90 reversed single #
loop $-1 $-1 $91 $42 #
plane-surface $-1 -10.067963693320102 -106.14574015681166 82.653639460562744 -1 0 0 0 -0.69465837861970381 0.71933979245794832 forward_v I I I I #
face $-1 $92 $93 $33 $-1 $94 forward single #
loop $-1 $95 $96 $43 #
cone-surface $-1 -28.605071490360345 -23.676494048813264 4.1248004438828998 0 0.69465837861970381 -0.71933979245794832 1.5 0 0 1 I I 0 1 1.5 forward I I I I #
face $-1 $97 $98 $34 $-1 $99 forward single #
loop $-1 $100 $101 $44 #
cone-surface $-1 -21.653656066470255 -23.676494048813264 4.1248004438828998 0 0.69465837861970381 -0.71933979245794832 1.5 0 0 1 I I 0 1 1.5 forward I I I I #
face $-1 $102 $103 $35 $-1 $104 forward single #
loop $-1 $105 $106 $45 #
cone-surface $-1 -14.702240642580165 -23.676494048813264 4.1248004438828998 0 0.69465837861970381 -0.71933979245794832 1.5 0 0 1 I I 0 1 1.5 forward I I I I #
face $-1 $107 $108 $36 $-1 $109 reversed single #
loop $-1 $-1 $110 $46 #
plane-surface $-1 41.027750427748714 -106.14574015681166 82.653639460562744 -1 0 0 0 -0.69465837861970381 0.71933979245794832 forward_v I I I I #
face $-1 $111 $112 $37 $-1 $113 forward single #
loop $-1 $114 $115 $47 #
cone-surface $-1 22.490642630708464 -23.676494048813264 4.1248004438828998 0 0.69465837861970381 -0.71933979245794832 1.5 0 0 1 I I 0 1 1.5 forward I I I I #
face $-1 $116 $117 $38 $-1 $118 forward single #
loop $-1 $119 $120 $48 #
cone-surface $-1 29.442058054598562 -23.676494048813264 4.1248004438828998 0 0.69465837861970381 -0.71933979245794832 1.5 0 0 1 I I 0 1 1.5 forward I I I I #
face $-1 $121 $122 $39 $-1 $123 forward single #
loop $-1 $124 $125 $49 #
cone-surface $-1 36.393473478488659 -23.676494048813264 4.1248004438828998 0 0.69465837861970381 -0.71933979245794832 1.5 0 0 1 I I 0 1 1.5 forward I I I I #
face $-1 $126 $127 $30 $-1 $128 reversed single #
loop $-1 $-1 $129 $50 #
plane-surface $-1 0 0 -8.4703839012669349 0 0 1 1 0 0 forward_v I I I I #
coedge $-1 $130 $131 $132 $133 forward $51 $-1 #
face $-1 $134 $135 $31 $-1 $136 reversed single #
loop $-1 $-1 $137 $53 #
plane-surface $-1 0 0 -8.4703839012669349 0 0 1 1 0 0 forward_v I I I I #
coedge $-1 $138 $139 $140 $141 forward $54 $-1 #
face $-1 $142 $143 $32 $-1 $144 reversed single #
loop $-1 $-1 $145 $56 #
plane-surface $-1 -21.653656066470255 -28.104527248249582 1.8395996035053628 0 -0.69465837861970381 0.71933979245794832 1 0 0 forward_v I I I I #
coedge $-1 $146 $147 $148 $149 reversed $57 $-1 #
face $-1 $-1 $150 $33 $-1 $151 forward single #
loop $-1 $152 $153 $59 #
cone-surface $-1 -28.605071490360345 -22.160656059736876 2.5551042910361872 0 0.69465837861970381 -0.71933979245794832 0.75 0 0 1 I I -0.70710678118654757 0.70710678118654757 0.75 forward I I I I #
loop $-1 $-1 $154 $43 #
coedge $-1 $96 $96 $155 $156 reversed $60 $-1 #
face $-1 $-1 $157 $34 $-1 $158 forward single #
loop $-1 $159 $160 $62 #
cone-surface $-1 -21.653656066470255 -22.160656059736876 2.5551042910361872 0 0.69465837861970381 -0.71933979245794832 0.75 0 0 1 I I -0.70710678118654757 0.70710678118654757 0.75 forward I I I I #
loop $-1 $-1 $161 $44 #
coedge $-1 $101 $101 $162 $163 reversed $63 $-1 #
face $-1 $-1 $164 $35 $-1 $165 forward single #
loop $-1 $166 $167 $65 #
cone-surface $-1 -14.702240642580165 -22.160656059736876 2.5551042910361872 0 0.69465837861970381 -0.71933979245794832 0.75 0 0 1 I I -0.70710678118654757 0.70710678118654757 0.75 forward I I I I #
loop $-1 $-1 $168 $45 #
coedge $-1 $106 $106 $169 $170 reversed $66 $-1 #
face $-1 $171 $172 $36 $-1 $173 reversed single #
loop $-1 $-1 $174 $68 #
plane-surface $-1 29.442058054598562 -28.104527248249582 1.8395996035053628 0 -0.69465837861970381 0.71933979245794832 1 0 0 forward_v I I I I #
coedge $-1 $175 $176 $177 $178 reversed $69 $-1 #
face $-1 $-1 $179 $37 $-1 $180 forward single #
loop $-1 $181 $182 $71 #
cone-surface $-1 22.490642630708464 -22.160656059736876 2.5551042910361872 0 0.69465837861970381 -0.71933979245794832 0.75 0 0 1 I I -0.70710678118654757 0.70710678118654757 0.75 forward I I I I #
loop $-1 $-1 $183 $47 #
coedge $-1 $115 $115 $184 $185 reversed $72 $-1 #
face $-1 $-1 $186 $38 $-1 $187 forward single #
loop $-1 $188 $189 $74 #
cone-surface $-1 29.442058054598562 -22.160656059736876 2.5551042910361872 0 0.69465837861970381 -0.71933979245794832 0.75 0 0 1 I I -0.70710678118654757 0.70710678118654757 0.75 forward I I I I #
loop $-1 $-1 $190 $48 #
coedge $-1 $120 $120 $191 $192 reversed $75 $-1 #
face $-1 $-1 $193 $39 $-1 $194 forward single #
loop $-1 $195 $196 $77 #
cone-surface $-1 36.393473478488659 -22.160656059736876 2.5551042910361872 0 0.69465837861970381 -0.71933979245794832 0.75 0 0 1 I I -0.70710678118654757 0.70710678118654757 0.75 forward I I I I #
loop $-1 $-1 $197 $49 #
coedge $-1 $125 $125 $198 $199 reversed $78 $-1 #
face $-1 $200 $201 $30 $-1 $202 reversed single #
loop $-1 $-1 $203 $80 #
plane-surface $-1 0 -28.104527248249589 0 0 1 0 0 0 1 forward_v I I I I #
coedge $-1 $204 $205 $206 $207 forward $81 $-1 #
coedge $-1 $208 $83 $209 $210 forward $51 $-1 #
coedge $-1 $83 $208 $211 $212 forward $51 $-1 #
coedge $-1 $213 $214 $83 $133 reversed $215 $-1 #
edge $-1 $216 -28.104527248249589 $217 28.104527248249589 $132 $218 forward 7 unknown #
face $-1 $219 $220 $31 $-1 $221 reversed single #
loop $-1 $-1 $222 $84 #
plane-surface $-1 -61.249022961972038 -14.163759445715719 0 0 1 0 0 0 1 forward_v I I I I #
coedge $-1 $223 $224 $139 $225 forward $85 $-1 #
coedge $-1 $226 $87 $227 $228 reversed $54 $-1 #
coedge $-1 $87 $226 $137 $225 reversed $54 $-1 #
coedge $-1 $229 $230 $87 $141 reversed $231 $-1 #
edge $-1 $232 -8.4703839012669349 $233 8.4703839012669349 $140 $234 forward 7 unknown #
face $-1 $235 $236 $32 $-1 $237 forward single #
loop $-1 $-1 $238 $88 #
plane-surface $-1 -33.239348439620407 -106.14574015681166 82.653639460562744 1 0 0 0 0.69465837861970381 -0.71933979245794832 forward_v I I I I #
coedge $-1 $239 $240 $241 $242 reversed $89 $-1 #
coedge $-1 $147 $91 $243 $244 reversed $57 $-1 #
coedge $-1 $91 $146 $239 $245 reversed $57 $-1 #
coedge $-1 $241 $246 $91 $149 forward $236 $-1 #
edge $-1 $247 24.968342830156239 $248 31.834720818805671 $148 $249 forward 7 unknown #
loop $-1 $-1 $155 $92 #
plane-surface $-1 -21.653656066470255 -28.104527248249582 1.8395996035053628 0 -0.69465837861970381 0.71933979245794832 1 0 0 forward_v I I I I #
loop $-1 $-1 $250 $59 #
coedge $-1 $153 $153 $154 $251 reversed $93 $-1 #
coedge $-1 $154 $154 $153 $251 forward $95 $-1 #
coedge $-1 $155 $155 $96 $156 forward $150 $-1 #
edge $-1 $252 -1.7621962112840893e-015 $252 6.2831853071795987 $155 $253 forward 7 unknown #
loop $-1 $-1 $162 $97 #
plane-surface $-1 -21.653656066470255 -28.104527248249582 1.8395996035053628 0 -0.69465837861970381 0.71933979245794832 1 0 0 forward_v I I I I #
loop $-1 $-1 $254 $62 #
coedge $-1 $160 $160 $161 $255 reversed $98 $-1 #
coedge $-1 $161 $161 $160 $255 forward $100 $-1 #
coedge $-1 $162 $162 $101 $163 forward $157 $-1 #
edge $-1 $256 -1.7621962112840893e-015 $256 6.2831853071795987 $162 $257 forward 7 unknown #
loop $-1 $-1 $169 $102 #
plane-surface $-1 -21.653656066470255 -28.104527248249582 1.8395996035053628 0 -0.69465837861970381 0.71933979245794832 1 0 0 forward_v I I I I #
loop $-1 $-1 $258 $65 #
coedge $-1 $167 $167 $168 $259 reversed $103 $-1 #
coedge $-1 $168 $168 $167 $259 forward $105 $-1 #
coedge $-1 $169 $169 $106 $170 forward $164 $-1 #
edge $-1 $260 -1.7621962112840893e-015 $260 6.2831853071795987 $169 $261 forward 7 unknown #
face $-1 $262 $263 $36 $-1 $264 reversed single #
loop $-1 $-1 $265 $107 #
plane-surface $-1 17.856365681448409 -106.14574015681166 82.653639460562744 1 0 0 0 0.69465837861970381 -0.71933979245794832 forward_v I I I I #
coedge $-1 $266 $267 $268 $269 reversed $108 $-1 #
coedge $-1 $176 $110 $270 $271 reversed $69 $-1 #
coedge $-1 $110 $175 $266 $272 reversed $69 $-1 #
coedge $-1 $268 $273 $110 $178 forward $274 $-1 #
edge $-1 $275 24.968342830156239 $276 31.834720818805671 $177 $277 forward 7 unknown #
loop $-1 $-1 $184 $111 #
plane-surface $-1 29.442058054598562 -28.104527248249582 1.8395996035053628 0 -0.69465837861970381 0.71933979245794832 1 0 0 forward_v I I I I #
loop $-1 $-1 $278 $71 #
coedge $-1 $182 $182 $183 $279 reversed $112 $-1 #
coedge $-1 $183 $183 $182 $279 forward $114 $-1 #
coedge $-1 $184 $184 $115 $185 forward $179 $-1 #
edge $-1 $280 -1.7621962112840893e-015 $280 6.2831853071795987 $184 $281 forward 7 unknown #
loop $-1 $-1 $191 $116 #
plane-surface $-1 29.442058054598562 -28.104527248249582 1.8395996035053628 0 -0.69465837861970381 0.71933979245794832 1 0 0 forward_v I I I I #
loop $-1 $-1 $282 $74 #
coedge $-1 $189 $189 $190 $283 reversed $117 $-1 #
coedge $-1 $190 $190 $189 $283 forward $119 $-1 #
coedge $-1 $191 $191 $120 $192 forward $186 $-1 #
edge $-1 $284 -1.7621962112840893e-015 $284 6.2831853071795987 $191 $285 forward 7 unknown #
loop $-1 $-1 $198 $121 #
plane-surface $-1 29.442058054598562 -28.104527248249582 1.8395996035053628 0 -0.69465837861970381 0.71933979245794832 1 0 0 forward_v I I I I #
loop $-1 $-1 $286 $77 #
coedge $-1 $196 $196 $197 $287 reversed $122 $-1 #
coedge $-1 $197 $197 $196 $287 forward $124 $-1 #
coedge $-1 $198 $198 $125 $199 forward $193 $-1 #
edge $-1 $288 -1.7621962112840893e-015 $288 6.2831853071795987 $198 $289 forward 7 unknown #
face $-1 $290 $291 $30 $-1 $292 reversed single #
loop $-1 $-1 $293 $126 #
plane-surface $-1 -56.172368541520427 0 0 1 0 0 0 0 -1 forward_v I I I I #
coedge $-1 $294 $211 $295 $296 forward $127 $-1 #
coedge $-1 $297 $129 $294 $298 forward $81 $-1 #
coedge $-1 $129 $297 $299 $300 forward $81 $-1 #
coedge $-1 $214 $213 $129 $207 reversed $215 $-1 #
edge $-1 $301 -28.104527248249589 $302 28.104527248249589 $206 $303 forward 7 unknown #
coedge $-1 $131 $130 $304 $305 forward $51 $-1 #
coedge $-1 $306 $307 $130 $210 reversed $291 $-1 #
edge $-1 $217 -56.172368541520427 $308 56.172368541520427 $209 $309 forward 7 unknown #
coedge $-1 $203 $310 $131 $212 reversed $127 $-1 #
edge $-1 $311 -56.172368541520427 $216 56.172368541520427 $211 $312 forward 7 unknown #
coedge $-1 $206 $132 $310 $313 forward $215 $-1 #
coedge $-1 $132 $206 $306 $314 reversed $215 $-1 #
loop $-1 $-1 $213 $290 #
vertex $-1 $133 $315 #
vertex $-1 $133 $316 #
straight-curve $-1 56.172368541520427 0 8.4703839012669349 0 1 0 I I #
face $-1 $317 $231 $31 $-1 $318 reversed single #
loop $-1 $-1 $319 $134 #
plane-surface $-1 -66.325677382423649 -12.663759445715719 0 1 0 0 0 0 -1 forward_v I I I I #
coedge $-1 $320 $321 $322 $323 forward $135 $-1 #
coedge $-1 $324 $137 $320 $325 forward $85 $-1 #
coedge $-1 $137 $324 $229 $326 forward $85 $-1 #
edge $-1 $232 11.163759445715719 $327 14.163759445715719 $137 $328 forward 7 unknown #
coedge $-1 $139 $138 $329 $330 forward $54 $-1 #
coedge $-1 $331 $332 $138 $228 forward $333 $-1 #
edge $-1 $334 -14.163759445715719 $233 -11.163759445715719 $227 $335 forward 7 unknown #
coedge $-1 $336 $140 $224 $326 reversed $231 $-1 #
coedge $-1 $140 $336 $331 $337 reversed $231 $-1 #
loop $-1 $-1 $140 $219 #
vertex $-1 $225 $338 #
vertex $-1 $337 $339 #
straight-curve $-1 -56.172368541520427 -11.163759445715719 0 0 0 1 I I #
face $-1 $-1 $340 $32 $-1 $341 reversed single #
loop $-1 $-1 $148 $142 #
plane-surface $-1 0 0 8.4703839012669349 0 0 1 1 0 0 forward_v I I I I #
coedge $-1 $342 $343 $344 $345 reversed $143 $-1 #
coedge $-1 $346 $145 $147 $245 forward $89 $-1 #
coedge $-1 $145 $346 $342 $347 forward $89 $-1 #
coedge $-1 $344 $148 $145 $242 forward $236 $-1 #
edge $-1 $248 -0.758864339915025 $348 22.41252040638528 $241 $349 forward 7 unknown #
coedge $-1 $350 $351 $146 $244 forward $340 $-1 #
edge $-1 $352 -39.487220126776016 $247 -32.856435829014437 $243 $353 forward 7 unknown #
edge $-1 $248 -9.5453887865529481 $352 9.8928161431344572e-015 $147 $354 forward 7 unknown #
coedge $-1 $148 $344 $350 $355 forward $236 $-1 #
vertex $-1 $149 $356 #
vertex $-1 $149 $357 #
straight-curve $-1 -10.067963693320102 -53.072870078405828 8.4703839012669349 0 1 0 I I #
coedge $-1 $250 $250 $-1 $358 reversed $152 $-1 #
edge $-1 $359 0 $359 6.2831853071796004 $153 $360 forward 7 unknown #
vertex $-1 $156 $361 #
ellipse-curve $-1 -28.605071490360345 -24.671338253924873 5.154991752386147 0 -0.69465837861970381 0.71933979245794832 1.5 0 0 1 I I #
coedge $-1 $254 $254 $-1 $362 reversed $159 $-1 #
edge $-1 $363 0 $363 6.2831853071796004 $160 $364 forward 7 unknown #
vertex $-1 $163 $365 #
ellipse-curve $-1 -21.653656066470255 -24.671338253924873 5.154991752386147 0 -0.69465837861970381 0.71933979245794832 1.5 0 0 1 I I #
coedge $-1 $258 $258 $-1 $366 reversed $166 $-1 #
edge $-1 $367 0 $367 6.2831853071796004 $167 $368 forward 7 unknown #
vertex $-1 $170 $369 #
ellipse-curve $-1 -14.702240642580165 -24.671338253924873 5.154991752386147 0 -0.69465837861970381 0.71933979245794832 1.5 0 0 1 I I #
face $-1 $-1 $274 $36 $-1 $370 forward single #
loop $-1 $-1 $371 $171 #
plane-surface $-1 0 -28.104527248249589 0 0 1 0 0 0 1 forward_v I I I I #
coedge $-1 $372 $373 $374 $375 reversed $172 $-1 #
coedge $-1 $376 $174 $176 $272 forward $108 $-1 #
coedge $-1 $174 $376 $372 $377 forward $108 $-1 #
coedge $-1 $374 $177 $174 $269 forward $274 $-1 #
edge $-1 $276 -26.306721400449433 $378 -3.1353366541491283 $268 $379 forward 7 unknown #
coedge $-1 $380 $381 $175 $271 forward $263 $-1 #
edge $-1 $382 -39.487220126776016 $275 -32.856435829014437 $270 $383 forward 7 unknown #
edge $-1 $276 -9.5453887865529481 $382 9.8928161431344572e-015 $176 $384 forward 7 unknown #
coedge $-1 $177 $374 $380 $385 forward $274 $-1 #
loop $-1 $-1 $374 $262 #
vertex $-1 $271 $386 #
vertex $-1 $178 $387 #
straight-curve $-1 41.027750427748714 -53.072870078405828 8.4703839012669349 0 1 0 I I #
coedge $-1 $278 $278 $-1 $388 reversed $181 $-1 #
edge $-1 $389 0 $389 6.2831853071796004 $182 $390 forward 7 unknown #
vertex $-1 $185 $391 #
ellipse-curve $-1 22.490642630708464 -24.671338253924873 5.154991752386147 0 -0.69465837861970381 0.71933979245794832 1.5 0 0 1 I I #
coedge $-1 $282 $282 $-1 $392 reversed $188 $-1 #
edge $-1 $393 0 $393 6.2831853071796004 $189 $394 forward 7 unknown #
vertex $-1 $192 $395 #
ellipse-curve $-1 29.442058054598562 -24.671338253924873 5.154991752386147 0 -0.69465837861970381 0.71933979245794832 1.5 0 0 1 I I #
coedge $-1 $286 $286 $-1 $396 reversed $195 $-1 #
edge $-1 $397 0 $397 6.2831853071796004 $196 $398 forward 7 unknown #
vertex $-1 $199 $399 #
ellipse-curve $-1 36.393473478488659 -24.671338253924873 5.154991752386147 0 -0.69465837861970381 0.71933979245794832 1.5 0 0 1 I I #
face $-1 $-1 $215 $30 $-1 $400 reversed single #
loop $-1 $-1 $306 $200 #
plane-surface $-1 0 28.104527248249589 0 0 -1 0 0 0 -1 forward_v I I I I #
coedge $-1 $401 $304 $307 $402 forward $201 $-1 #
coedge $-1 $310 $203 $204 $298 reversed $127 $-1 #
coedge $-1 $304 $401 $203 $296 reversed $201 $-1 #
edge $-1 $311 -8.4703839012669349 $403 8.4703839012669349 $295 $404 forward 7 unknown #
coedge $-1 $205 $204 $401 $405 forward $81 $-1 #
edge $-1 $302 -56.172368541520427 $403 56.172368541520427 $294 $406 forward 7 unknown #
coedge $-1 $307 $306 $205 $300 reversed $291 $-1 #
edge $-1 $407 -56.172368541520427 $301 56.172368541520427 $299 $408 forward 7 unknown #
vertex $-1 $207 $409 #
vertex $-1 $313 $410 #
straight-curve $-1 56.172368541520427 0 -8.4703839012669349 0 -1 0 I I #
coedge $-1 $293 $295 $208 $305 reversed $201 $-1 #
edge $-1 $308 -28.104527248249589 $311 28.104527248249589 $304 $411 forward 7 unknown #
coedge $-1 $299 $209 $214 $314 forward $291 $-1 #
coedge $-1 $209 $299 $293 $402 reversed $291 $-1 #
vertex $-1 $210 $412 #
straight-curve $-1 0 28.104527248249589 8.4703839012669349 -1 0 0 I I #
coedge $-1 $211 $294 $213 $313 reversed $127 $-1 #
vertex $-1 $305 $413 #
straight-curve $-1 0 -28.104527248249589 8.4703839012669349 1 0 0 I I #
edge $-1 $216 -8.4703839012669349 $302 8.4703839012669349 $213 $414 forward 7 unknown #
edge $-1 $217 -8.4703839012669349 $301 8.4703839012669349 $214 $415 forward 7 unknown #
point $-1 56.172368541520427 -28.104527248249589 8.4703839012669349 #
point $-1 56.172368541520427 28.104527248249589 8.4703839012669349 #
face $-1 $-1 $333 $31 $-1 $416 forward single #
plane-surface $-1 -61.249022961972038 -11.163759445715719 0 0 -1 0 0 0 -1 forward_v I I I I #
coedge $-1 $417 $418 $336 $419 forward $220 $-1 #
coedge $-1 $329 $222 $223 $325 reversed $135 $-1 #
coedge $-1 $222 $329 $332 $420 reversed $135 $-1 #
coedge $-1 $418 $417 $222 $323 reversed $220 $-1 #
edge $-1 $421 -8.4703839012669349 $422 8.4703839012669349 $322 $423 forward 7 unknown #
coedge $-1 $224 $223 $417 $424 forward $85 $-1 #
edge $-1 $327 -5.0766544204516109 $422 5.0766544204516109 $320 $425 forward 7 unknown #
edge $-1 $426 -5.0766544204516109 $232 5.0766544204516109 $229 $427 forward 7 unknown #
vertex $-1 $325 $428 #
straight-curve $-1 -56.172368541520427 0 -8.4703839012669349 0 -1 0 I I #
coedge $-1 $321 $320 $226 $330 reversed $135 $-1 #
edge $-1 $334 -8.4703839012669349 $327 8.4703839012669349 $329 $429 forward 7 unknown #
coedge $-1 $430 $227 $230 $337 forward $333 $-1 #
coedge $-1 $227 $430 $321 $420 forward $333 $-1 #
loop $-1 $-1 $227 $317 #
vertex $-1 $228 $431 #
straight-curve $-1 -56.172368541520427 0 8.4703839012669349 0 1 0 I I #
coedge $-1 $230 $229 $319 $419 reversed $231 $-1 #
edge $-1 $233 -5.0766544204516109 $432 5.0766544204516109 $230 $433 forward 7 unknown #
point $-1 -56.172368541520427 -11.163759445715719 -8.4703839012669349 #
point $-1 -56.172368541520427 -11.163759445715719 8.4703839012669349 #
loop $-1 $-1 $243 $235 #
plane-surface $-1 0 -28.104527248249589 0 0 1 0 0 0 1 forward_v I I I I #
coedge $-1 $343 $238 $240 $347 reversed $143 $-1 #
coedge $-1 $238 $342 $434 $435 reversed $143 $-1 #
coedge $-1 $246 $241 $238 $345 forward $236 $-1 #
edge $-1 $348 -31.834720818805671 $436 -24.968342830156239 $344 $437 forward 7 unknown #
coedge $-1 $240 $239 $351 $438 reversed $89 $-1 #
edge $-1 $439 -9.8928161431344572e-015 $348 9.5453887865529481 $342 $440 forward 7 unknown #
vertex $-1 $242 $441 #
straight-curve $-1 -10.826828033235127 -21.238149259600156 8.4703839012669349 -1 0 0 I I #
coedge $-1 $434 $243 $246 $355 reversed $340 $-1 #
coedge $-1 $243 $434 $346 $438 forward $340 $-1 #
vertex $-1 $244 $442 #
straight-curve $-1 -10.067963693320102 -28.104527248249589 41.326819730281372 0 0 1 I I #
straight-curve $-1 -10.067963693320102 -28.104527248249582 1.8395996035053628 0 -0.71933979245794832 -0.69465837861970381 I I #
edge $-1 $436 -33.239348439620407 $247 -10.067963693320102 $350 $443 forward 7 unknown #
point $-1 -10.067963693320102 -28.104527248249589 8.4703839012669349 #
point $-1 -10.067963693320102 -21.238149259600156 8.4703839012669349 #
edge $-1 $444 1 $444 0 $250 $-1 forward 7 unknown #
vertex $-1 $251 $445 #
ellipse-curve $-1 -28.605071490360345 -22.681649843701653 3.0946091353796485 0 -0.69465837861970381 0.71933979245794832 1.5 0 0 1 I I #
point $-1 -27.105071490360345 -24.67133825392488 5.1549917523861506 #
edge $-1 $446 1 $446 0 $254 $-1 forward 7 unknown #
vertex $-1 $255 $447 #
ellipse-curve $-1 -21.653656066470255 -22.681649843701653 3.0946091353796485 0 -0.69465837861970381 0.71933979245794832 1.5 0 0 1 I I #
point $-1 -20.153656066470255 -24.67133825392488 5.1549917523861506 #
edge $-1 $448 1 $448 0 $258 $-1 forward 7 unknown #
vertex $-1 $259 $449 #
ellipse-curve $-1 -14.702240642580165 -22.681649843701653 3.0946091353796485 0 -0.69465837861970381 0.71933979245794832 1.5 0 0 1 I I #
point $-1 -13.202240642580165 -24.67133825392488 5.1549917523861506 #
plane-surface $-1 0 0 8.4703839012669349 0 0 1 1 0 0 forward_v I I I I #
coedge $-1 $381 $380 $373 $450 forward $263 $-1 #
coedge $-1 $373 $265 $267 $377 reversed $172 $-1 #
coedge $-1 $265 $372 $371 $450 reversed $172 $-1 #
coedge $-1 $273 $268 $265 $375 forward $274 $-1 #
edge $-1 $378 -31.834720818805671 $451 -24.968342830156239 $374 $452 forward 7 unknown #
coedge $-1 $267 $266 $381 $453 reversed $108 $-1 #
edge $-1 $454 -9.8928161431344572e-015 $378 9.5453887865529481 $372 $455 forward 7 unknown #
vertex $-1 $269 $456 #
straight-curve $-1 14.721029027299281 -21.238149259600156 8.4703839012669349 -1 0 0 I I #
coedge $-1 $371 $270 $273 $385 reversed $263 $-1 #
coedge $-1 $270 $371 $376 $453 forward $263 $-1 #
vertex $-1 $271 $457 #
straight-curve $-1 41.027750427748714 -28.104527248249589 41.326819730281372 0 0 1 I I #
straight-curve $-1 41.027750427748714 -28.104527248249582 1.8395996035053628 0 -0.71933979245794832 -0.69465837861970381 I I #
edge $-1 $451 17.856365681448409 $275 41.027750427748714 $380 $458 forward 7 unknown #
point $-1 41.027750427748714 -28.104527248249589 8.4703839012669349 #
point $-1 41.027750427748714 -21.238149259600156 8.4703839012669349 #
edge $-1 $459 1 $459 0 $278 $-1 forward 7 unknown #
vertex $-1 $279 $460 #
ellipse-curve $-1 22.490642630708464 -22.681649843701653 3.0946091353796485 0 -0.69465837861970381 0.71933979245794832 1.5 0 0 1 I I #
point $-1 23.990642630708464 -24.67133825392488 5.1549917523861506 #
edge $-1 $461 1 $461 0 $282 $-1 forward 7 unknown #
vertex $-1 $283 $462 #
ellipse-curve $-1 29.442058054598562 -22.681649843701653 3.0946091353796485 0 -0.69465837861970381 0.71933979245794832 1.5 0 0 1 I I #
point $-1 30.942058054598562 -24.67133825392488 5.1549917523861506 #
edge $-1 $463 1 $463 0 $286 $-1 forward 7 unknown #
vertex $-1 $287 $464 #
ellipse-curve $-1 36.393473478488659 -22.681649843701653 3.0946091353796485 0 -0.69465837861970381 0.71933979245794832 1.5 0 0 1 I I #
point $-1 37.893473478488659 -24.67133825392488 5.1549917523861506 #
plane-surface $-1 56.172368541520427 0 0 -1 0 0 0 0 1 forward_v I I I I #
coedge $-1 $295 $293 $297 $405 reversed $201 $-1 #
edge $-1 $308 -8.4703839012669349 $407 8.4703839012669349 $307 $465 forward 7 unknown #
vertex $-1 $405 $466 #
straight-curve $-1 -56.172368541520427 -28.104527248249589 0 0 0 -1 I I #
edge $-1 $403 -28.104527248249589 $407 28.104527248249589 $401 $467 forward 7 unknown #
straight-curve $-1 0 -28.104527248249589 -8.4703839012669349 -1 0 0 I I #
vertex $-1 $300 $468 #
straight-curve $-1 0 28.104527248249589 -8.4703839012669349 1 0 0 I I #
point $-1 56.172368541520427 28.104527248249589 -8.4703839012669349 #
point $-1 56.172368541520427 -28.104527248249589 -8.4703839012669349 #
straight-curve $-1 -56.172368541520427 0 8.4703839012669349 0 -1 0 I I #
point $-1 -56.172368541520427 28.104527248249589 8.4703839012669349 #
point $-1 -56.172368541520427 -28.104527248249589 8.4703839012669349 #
straight-curve $-1 56.172368541520427 -28.104527248249589 0 0 0 -1 I I #
straight-curve $-1 56.172368541520427 28.104527248249589 0 0 0 -1 I I #
plane-surface $-1 0 0 8.4703839012669349 0 0 1 1 0 0 forward_v I I I I #
coedge $-1 $322 $319 $324 $424 reversed $220 $-1 #
coedge $-1 $319 $322 $430 $469 reversed $220 $-1 #
edge $-1 $432 -8.4703839012669349 $426 8.4703839012669349 $336 $470 forward 7 unknown #
edge $-1 $421 -5.0766544204516109 $334 5.0766544204516109 $321 $471 forward 7 unknown #
vertex $-1 $469 $472 #
vertex $-1 $424 $473 #
straight-curve $-1 -66.325677382423649 -14.163759445715719 0 0 0 -1 I I #
edge $-1 $422 -1.5 $426 1.5 $417 $474 forward 7 unknown #
straight-curve $-1 -61.249022961972038 -14.163759445715719 -8.4703839012669349 -1 0 0 I I #
vertex $-1 $326 $475 #
straight-curve $-1 -61.249022961972038 -11.163759445715719 -8.4703839012669349 1 0 0 I I #
point $-1 -56.172368541520427 -14.163759445715719 -8.4703839012669349 #
straight-curve $-1 -56.172368541520427 -14.163759445715719 0 0 0 -1 I I #
coedge $-1 $332 $331 $418 $469 forward $333 $-1 #
point $-1 -56.172368541520427 -14.163759445715719 8.4703839012669349 #
vertex $-1 $337 $476 #
straight-curve $-1 -61.249022961972038 -11.163759445715719 8.4703839012669349 -1 0 0 I I #
coedge $-1 $351 $350 $343 $435 forward $340 $-1 #
edge $-1 $436 32.856435829014437 $439 39.487220126776016 $434 $477 forward 7 unknown #
vertex $-1 $355 $478 #
straight-curve $-1 -33.239348439620407 -53.072870078405828 8.4703839012669349 0 -1 0 I I #
edge $-1 $439 -22.41252040638528 $352 0.758864339915025 $351 $479 forward 7 unknown #
vertex $-1 $438 $480 #
straight-curve $-1 -33.239348439620407 -28.104527248249582 1.8395996035053628 0 0.71933979245794832 0.69465837861970381 I I #
point $-1 -33.239348439620407 -21.238149259600156 8.4703839012669349 #
point $-1 -10.067963693320102 -28.104527248249589 1.8395996035053559 #
straight-curve $-1 0 -28.104527248249589 8.4703839012669349 1 0 0 I I #
vertex $-1 $358 $481 #
point $-1 -27.105071490360345 -22.681649843701653 3.0946091353796485 #
vertex $-1 $362 $482 #
point $-1 -20.153656066470255 -22.681649843701653 3.0946091353796485 #
vertex $-1 $366 $483 #
point $-1 -13.202240642580165 -22.681649843701653 3.0946091353796485 #
edge $-1 $451 32.856435829014437 $454 39.487220126776016 $371 $484 forward 7 unknown #
vertex $-1 $385 $485 #
straight-curve $-1 17.856365681448409 -53.072870078405828 8.4703839012669349 0 -1 0 I I #
edge $-1 $454 3.1353366541491283 $382 26.306721400449433 $381 $486 forward 7 unknown #
vertex $-1 $453 $487 #
straight-curve $-1 17.856365681448409 -28.104527248249582 1.8395996035053628 0 0.71933979245794832 0.69465837861970381 I I #
point $-1 17.856365681448409 -21.238149259600156 8.4703839012669349 #
point $-1 41.027750427748714 -28.104527248249589 1.8395996035053559 #
straight-curve $-1 0 -28.104527248249589 8.4703839012669349 1 0 0 I I #
vertex $-1 $388 $488 #
point $-1 23.990642630708464 -22.681649843701653 3.0946091353796485 #
vertex $-1 $392 $489 #
point $-1 30.942058054598562 -22.681649843701653 3.0946091353796485 #
vertex $-1 $396 $490 #
point $-1 37.893473478488659 -22.681649843701653 3.0946091353796485 #
straight-curve $-1 -56.172368541520427 28.104527248249589 0 0 0 -1 I I #
point $-1 -56.172368541520427 -28.104527248249589 -8.4703839012669349 #
straight-curve $-1 -56.172368541520427 0 -8.4703839012669349 0 1 0 I I #
point $-1 -56.172368541520427 28.104527248249589 -8.4703839012669349 #
edge $-1 $432 -1.5 $421 1.5 $418 $491 forward 7 unknown #
straight-curve $-1 -66.325677382423649 -11.163759445715719 0 0 0 -1 I I #
straight-curve $-1 -61.249022961972038 -14.163759445715719 8.4703839012669349 1 0 0 I I #
point $-1 -66.325677382423649 -14.163759445715719 8.4703839012669349 #
point $-1 -66.325677382423649 -14.163759445715719 -8.4703839012669349 #
straight-curve $-1 -66.325677382423649 -12.663759445715719 -8.4703839012669349 0 1 0 I I #
point $-1 -66.325677382423649 -11.163759445715719 -8.4703839012669349 #
point $-1 -66.325677382423649 -11.163759445715719 8.4703839012669349 #
straight-curve $-1 -33.239348439620407 -28.104527248249589 41.326819730281372 0 0 -1 I I #
point $-1 -33.239348439620407 -28.104527248249589 8.4703839012669349 #
straight-curve $-1 -10.826828033235127 -28.104527248249589 1.8395996035053548 1 0 0 I I #
point $-1 -33.239348439620407 -28.104527248249589 1.8395996035053559 #
point $-1 -28.605071490360345 -21.6396622757721 2.0155994466927258 #
point $-1 -21.653656066470255 -21.6396622757721 2.0155994466927258 #
point $-1 -14.702240642580165 -21.6396622757721 2.0155994466927258 #
straight-curve $-1 17.856365681448409 -28.104527248249589 41.326819730281372 0 0 -1 I I #
point $-1 17.856365681448409 -28.104527248249589 8.4703839012669349 #
straight-curve $-1 14.721029027299281 -28.104527248249589 1.8395996035053548 1 0 0 I I #
point $-1 17.856365681448409 -28.104527248249589 1.8395996035053559 #
point $-1 22.490642630708464 -21.6396622757721 2.0155994466927258 #
point $-1 29.442058054598562 -21.6396622757721 2.0155994466927258 #
point $-1 36.393473478488659 -21.6396622757721 2.0155994466927258 #
straight-curve $-1 -66.325677382423649 -12.663759445715719 8.4703839012669349 0 -1 0 I I #
End-of-ACIS-data 