500 0 8 0           
7 Unknown 11 ACIS 5.0 NT 24 Thu Mar 25 17:41:04 1999 
-1 9.9999999999999995e-007 1e-010 
body $-1 $8 $-1 $9 #
body $-1 $10 $-1 $11 #
body $-1 $12 $-1 $13 #
body $-1 $14 $-1 $15 #
body $-1 $16 $-1 $17 #
body $-1 $18 $-1 $19 #
body $-1 $20 $-1 $21 #
body $-1 $22 $-1 $23 #
lump $-1 $-1 $24 $0 #
transform $-1 1 0 0 0 1 0 0 0 1 47.402569658497882 21.427865284636088 4.7095265791913734 1 rotate no_reflect no_shear #
lump $-1 $-1 $25 $1 #
transform $-1 1 0 0 0 1 0 0 0 1 47.402569658497882 21.427865284636088 4.7095265791913734 1 rotate no_reflect no_shear #
lump $-1 $-1 $26 $2 #
transform $-1 1 0 0 0 1 0 0 0 1 47.402569658497882 21.427865284636088 4.7095265791913734 1 rotate no_reflect no_shear #
lump $-1 $-1 $27 $3 #
transform $-1 1 0 0 0 1 0 0 0 1 47.402569658497882 21.427865284636088 4.7095265791913734 1 rotate no_reflect no_shear #
lump $-1 $-1 $28 $4 #
transform $-1 1 0 0 0 1 0 0 0 1 47.402569658497882 21.427865284636088 4.7095265791913734 1 rotate no_reflect no_shear #
lump $-1 $-1 $29 $5 #
transform $-1 1 0 0 0 1 0 0 0 1 47.402569658497882 21.427865284636088 4.7095265791913734 1 rotate no_reflect no_shear #
lump $-1 $-1 $30 $6 #
transform $-1 1 0 0 0 1 0 0 0 1 47.402569658497882 21.427865284636088 4.7095265791913734 1 rotate no_reflect no_shear #
lump $-1 $-1 $31 $7 #
transform $-1 1 0 0 0 1 0 0 0 1 47.402569658497882 21.427865284636088 4.7095265791913734 1 rotate no_reflect no_shear #
shell $-1 $-1 $-1 $32 $-1 $8 #
shell $-1 $-1 $-1 $33 $-1 $10 #
shell $-1 $-1 $-1 $34 $-1 $12 #
shell $-1 $-1 $-1 $35 $-1 $14 #
shell $-1 $-1 $-1 $36 $-1 $16 #
shell $-1 $-1 $-1 $37 $-1 $18 #
shell $-1 $-1 $-1 $38 $-1 $20 #
shell $-1 $-1 $-1 $39 $-1 $22 #
face $-1 $40 $41 $24 $-1 $42 forward single #
face $-1 $43 $44 $25 $-1 $45 forward single #
face $-1 $46 $47 $26 $-1 $48 reversed single #
face $-1 $49 $50 $27 $-1 $51 forward single #
face $-1 $52 $53 $28 $-1 $54 forward single #
face $-1 $55 $56 $29 $-1 $57 reversed single #
face $-1 $58 $59 $30 $-1 $60 forward single #
face $-1 $61 $62 $31 $-1 $63 forward single #
face $-1 $64 $65 $24 $-1 $66 reversed single #
loop $-1 $-1 $67 $32 #
plane-surface $-1 0 0 4.7095265791913734 0 0 1 1 0 0 forward_v I I I I #
face $-1 $68 $69 $25 $-1 $70 reversed single #
loop $-1 $-1 $71 $33 #
plane-surface $-1 0 -18.388209171454825 1.4526901657841904 0 0 1 1 0 0 forward_v I I I I #
face $-1 $72 $73 $26 $-1 $74 reversed single #
loop $-1 $-1 $75 $34 #
plane-surface $-1 -96.2308267534343 -7.8730965813120761 82.500398356586757 0 -1 0 0.51503808176128008 0 -0.85716729658548041 forward_v I I I I #
face $-1 $76 $77 $27 $-1 $78 forward single #
loop $-1 $79 $80 $35 #
cone-surface $-1 -44.006251358668244 -13.212708350570281 2.1304008104113956 0.51503808176128008 0 -0.85716729658548041 0.4285836482927402 0 0.25751904088064004 1 I I 0 1 0.5 forward I I I I #
face $-1 $81 $82 $28 $-1 $83 forward single #
loop $-1 $84 $85 $36 #
cone-surface $-1 -44.006251358668244 -10.008941289015358 2.1304008104113956 0.51503808176128008 0 -0.85716729658548041 0.4285836482927402 0 0.25751904088064004 1 I I 0 1 0.5 forward I I I I #
face $-1 $86 $87 $29 $-1 $88 reversed single #
loop $-1 $-1 $89 $37 #
plane-surface $-1 -33.86129531226122 -11.610824819792819 50.064790480764088 0.51503808176128008 0 0.85716729658548041 0.85716729658548041 0 -0.51503808176128008 forward_v I I I I #
face $-1 $90 $91 $30 $-1 $92 forward single #
loop $-1 $93 $94 $38 #
cone-surface $-1 44.006251358668244 -13.212708350570281 2.1304008104113938 -0.51503808176128008 0 -0.85716729658548041 0.4285836482927402 0 -0.25751904088064004 1 I I 0 1 0.5 forward I I I I #
face $-1 $95 $96 $31 $-1 $97 forward single #
loop $-1 $98 $99 $39 #
cone-surface $-1 44.006251358668244 -10.008941289015358 2.1304008104113938 -0.51503808176128008 0 -0.85716729658548041 0.4285836482927402 0 -0.25751904088064004 1 I I 0 1 0.5 forward I I I I #
face $-1 $100 $101 $24 $-1 $102 reversed single #
loop $-1 $-1 $103 $40 #
plane-surface $-1 0 0 -4.7095265791913734 0 0 1 1 0 0 forward_v I I I I #
coedge $-1 $104 $105 $106 $107 forward $41 $-1 #
face $-1 $108 $109 $25 $-1 $110 reversed single #
loop $-1 $-1 $111 $43 #
plane-surface $-1 0 -18.388209171454825 -1.5473098342158096 0 0 1 1 0 0 forward_v I I I I #
coedge $-1 $112 $113 $114 $115 reversed $44 $-1 #
face $-1 $116 $117 $26 $-1 $118 forward single #
loop $-1 $-1 $119 $46 #
plane-surface $-1 -47.402569658497889 -11.610824819792819 1.2365333858276557 -0.51503808176128008 0 0.85716729658548041 0.85716729658548041 0 0.51503808176128008 forward_v I I I I #
coedge $-1 $120 $121 $122 $123 reversed $47 $-1 #
face $-1 $-1 $124 $27 $-1 $125 forward single #
loop $-1 $126 $127 $49 #
cone-surface $-1 -43.371189143103777 -13.212708350570281 1.0734798141669062 0.51503808176128008 0 -0.85716729658548041 0.2142918241463701 0 0.12875952044032002 1 I I -0.70710678118654746 0.70710678118654746 0.25 forward I I I I #
loop $-1 $-1 $128 $35 #
coedge $-1 $80 $80 $129 $130 reversed $50 $-1 #
face $-1 $-1 $131 $28 $-1 $132 forward single #
loop $-1 $133 $134 $52 #
cone-surface $-1 -43.371189143103777 -10.008941289015358 1.0734798141669062 0.51503808176128008 0 -0.85716729658548041 0.2142918241463701 0 0.12875952044032002 1 I I -0.70710678118654746 0.70710678118654746 0.25 forward I I I I #
loop $-1 $-1 $135 $36 #
coedge $-1 $85 $85 $136 $137 reversed $53 $-1 #
face $-1 $138 $139 $29 $-1 $140 forward single #
loop $-1 $-1 $141 $55 #
plane-surface $-1 14.966961782675192 -7.8730965813120761 131.32865545152319 0 -1 0 -0.51503808176128008 0 -0.85716729658548041 forward_v I I I I #
coedge $-1 $142 $143 $144 $145 reversed $56 $-1 #
face $-1 $-1 $146 $30 $-1 $147 forward single #
loop $-1 $148 $149 $58 #
cone-surface $-1 43.371189143103777 -13.212708350570281 1.0734798141669044 -0.51503808176128008 0 -0.85716729658548041 0.2142918241463701 0 -0.12875952044032002 1 I I -0.70710678118654746 0.70710678118654746 0.25 forward I I I I #
loop $-1 $-1 $150 $38 #
coedge $-1 $94 $94 $151 $152 reversed $59 $-1 #
face $-1 $-1 $153 $31 $-1 $154 forward single #
loop $-1 $155 $156 $61 #
cone-surface $-1 43.371189143103777 -10.008941289015358 1.0734798141669044 -0.51503808176128008 0 -0.85716729658548041 0.2142918241463701 0 -0.12875952044032002 1 I I -0.70710678118654746 0.70710678118654746 0.25 forward I I I I #
loop $-1 $-1 $157 $39 #
coedge $-1 $99 $99 $158 $159 reversed $62 $-1 #
face $-1 $160 $161 $24 $-1 $162 reversed single #
loop $-1 $-1 $163 $64 #
plane-surface $-1 0 -21.427865284636088 0 0 1 0 0 0 1 forward_v I I I I #
coedge $-1 $164 $165 $166 $167 forward $65 $-1 #
coedge $-1 $168 $67 $169 $170 forward $41 $-1 #
coedge $-1 $67 $168 $171 $172 forward $41 $-1 #
coedge $-1 $173 $174 $67 $107 reversed $175 $-1 #
edge $-1 $176 -21.427865284636088 $177 21.427865284636088 $106 $178 forward 7 unknown #
face $-1 $179 $180 $25 $-1 $181 reversed single #
loop $-1 $-1 $182 $68 #
plane-surface $-1 0 -15.348553058273563 -0.047309834215809587 0 -1 0 0 0 -1 forward_v I I I I #
coedge $-1 $183 $184 $185 $186 reversed $69 $-1 #
coedge $-1 $187 $71 $188 $189 forward $44 $-1 #
coedge $-1 $71 $187 $190 $191 reversed $44 $-1 #
coedge $-1 $192 $193 $71 $115 forward $194 $-1 #
edge $-1 $195 6.1544484725461501 $196 12.233760698908675 $114 $197 forward 7 unknown #
face $-1 $198 $199 $26 $-1 $200 forward single #
loop $-1 $-1 $201 $72 #
plane-surface $-1 0 -15.348553058273563 -0.047309834215809587 0 -1 0 0 0 -1 forward_v I I I I #
coedge $-1 $202 $203 $204 $205 reversed $73 $-1 #
coedge $-1 $121 $75 $206 $207 reversed $47 $-1 #
coedge $-1 $75 $120 $202 $208 reversed $47 $-1 #
coedge $-1 $204 $209 $75 $123 forward $210 $-1 #
edge $-1 $211 36.540672599102002 $212 40.013665792465716 $122 $213 forward 7 unknown #
loop $-1 $-1 $129 $76 #
plane-surface $-1 -47.402569658497889 -11.610824819792819 1.2365333858276557 -0.51503808176128008 0 0.85716729658548041 0.85716729658548041 0 0.51503808176128008 forward_v I I I I #
loop $-1 $-1 $214 $49 #
coedge $-1 $127 $127 $128 $215 reversed $77 $-1 #
coedge $-1 $128 $128 $127 $215 forward $79 $-1 #
coedge $-1 $129 $129 $80 $130 forward $124 $-1 #
edge $-1 $216 0 $216 6.2831853071796004 $129 $217 forward 7 unknown #
loop $-1 $-1 $136 $81 #
plane-surface $-1 -47.402569658497889 -11.610824819792819 1.2365333858276557 -0.51503808176128008 0 0.85716729658548041 0.85716729658548041 0 0.51503808176128008 forward_v I I I I #
loop $-1 $-1 $218 $52 #
coedge $-1 $134 $134 $135 $219 reversed $82 $-1 #
coedge $-1 $135 $135 $134 $219 forward $84 $-1 #
coedge $-1 $136 $136 $85 $137 forward $131 $-1 #
edge $-1 $220 0 $220 6.2831853071796004 $136 $221 forward 7 unknown #
face $-1 $222 $223 $29 $-1 $224 forward single #
loop $-1 $-1 $225 $86 #
plane-surface $-1 0 0 4.7095265791913734 0 0 1 1 0 0 forward_v I I I I #
coedge $-1 $226 $227 $228 $229 reversed $87 $-1 #
coedge $-1 $230 $89 $231 $232 reversed $56 $-1 #
coedge $-1 $89 $230 $226 $233 forward $56 $-1 #
coedge $-1 $228 $234 $89 $145 forward $235 $-1 #
edge $-1 $236 -9.5431406483771539 $237 -2.0676841714156664 $144 $238 forward 7 unknown #
loop $-1 $-1 $151 $90 #
plane-surface $-1 -33.86129531226122 -11.610824819792819 50.064790480764088 0.51503808176128008 0 0.85716729658548041 0.85716729658548041 0 -0.51503808176128008 forward_v I I I I #
loop $-1 $-1 $239 $58 #
coedge $-1 $149 $149 $150 $240 reversed $91 $-1 #
coedge $-1 $150 $150 $149 $240 forward $93 $-1 #
coedge $-1 $151 $151 $94 $152 forward $146 $-1 #
edge $-1 $241 0 $241 6.2831853071796004 $151 $242 forward 7 unknown #
loop $-1 $-1 $158 $95 #
plane-surface $-1 -33.86129531226122 -11.610824819792819 50.064790480764088 0.51503808176128008 0 0.85716729658548041 0.85716729658548041 0 -0.51503808176128008 forward_v I I I I #
loop $-1 $-1 $243 $61 #
coedge $-1 $156 $156 $157 $244 reversed $96 $-1 #
coedge $-1 $157 $157 $156 $244 forward $98 $-1 #
coedge $-1 $158 $158 $99 $159 forward $153 $-1 #
edge $-1 $245 0 $245 6.2831853071796004 $158 $246 forward 7 unknown #
face $-1 $247 $248 $24 $-1 $249 reversed single #
loop $-1 $-1 $250 $100 #
plane-surface $-1 -47.402569658497882 0 0 1 0 0 0 0 -1 forward_v I I I I #
coedge $-1 $251 $171 $252 $253 forward $101 $-1 #
coedge $-1 $254 $103 $251 $255 forward $65 $-1 #
coedge $-1 $103 $254 $256 $257 forward $65 $-1 #
coedge $-1 $174 $173 $103 $167 reversed $175 $-1 #
edge $-1 $258 -21.427865284636088 $259 21.427865284636088 $166 $260 forward 7 unknown #
coedge $-1 $105 $104 $261 $262 forward $41 $-1 #
coedge $-1 $263 $264 $104 $170 reversed $248 $-1 #
edge $-1 $177 -47.402569658497882 $265 47.402569658497882 $169 $266 forward 7 unknown #
coedge $-1 $163 $267 $105 $172 reversed $101 $-1 #
edge $-1 $268 -47.402569658497882 $176 47.402569658497882 $171 $269 forward 7 unknown #
coedge $-1 $166 $106 $267 $270 forward $175 $-1 #
coedge $-1 $106 $166 $263 $271 reversed $175 $-1 #
loop $-1 $-1 $173 $247 #
vertex $-1 $107 $272 #
vertex $-1 $107 $273 #
straight-curve $-1 47.402569658497882 0 4.7095265791913734 0 1 0 I I #
face $-1 $274 $275 $25 $-1 $276 reversed single #
loop $-1 $-1 $277 $108 #
plane-surface $-1 -47.402569658497882 0 0 1 0 0 0 0 -1 forward_v I I I I #
coedge $-1 $278 $188 $193 $279 reversed $109 $-1 #
coedge $-1 $280 $111 $281 $282 reversed $69 $-1 #
coedge $-1 $111 $280 $278 $283 forward $69 $-1 #
coedge $-1 $193 $192 $111 $186 forward $194 $-1 #
edge $-1 $284 -12.233760698908675 $285 -6.1544484725461501 $185 $286 forward 7 unknown #
coedge $-1 $113 $112 $277 $287 reversed $44 $-1 #
coedge $-1 $182 $288 $112 $189 reversed $109 $-1 #
edge $-1 $195 -47.402569658497882 $289 47.402569658497882 $188 $290 forward 7 unknown #
coedge $-1 $291 $292 $113 $191 forward $275 $-1 #
edge $-1 $196 -47.402569658497882 $293 47.402569658497882 $190 $294 forward 7 unknown #
coedge $-1 $185 $114 $292 $295 forward $194 $-1 #
coedge $-1 $114 $185 $182 $279 forward $194 $-1 #
loop $-1 $-1 $114 $274 #
vertex $-1 $115 $296 #
vertex $-1 $295 $297 #
straight-curve $-1 47.402569658497882 -9.1941045857274126 1.4526901657841904 0 -1 0 I I #
face $-1 $-1 $210 $26 $-1 $298 reversed single #
loop $-1 $-1 $206 $116 #
plane-surface $-1 0 0 4.7095265791913734 0 0 1 1 0 0 forward_v I I I I #
coedge $-1 $299 $300 $203 $301 reversed $117 $-1 #
coedge $-1 $302 $119 $121 $208 forward $73 $-1 #
coedge $-1 $119 $302 $201 $301 forward $73 $-1 #
coedge $-1 $303 $122 $119 $205 forward $210 $-1 #
edge $-1 $212 2.0676841714156664 $304 9.5431406483771539 $204 $305 forward 7 unknown #
coedge $-1 $306 $307 $120 $207 forward $199 $-1 #
edge $-1 $308 -6.4928749276302185 $211 -0.7128437182192684 $206 $309 forward 7 unknown #
edge $-1 $212 8.2634070795339233e-015 $308 6.7431774782305265 $121 $310 forward 7 unknown #
coedge $-1 $122 $303 $306 $311 reversed $210 $-1 #
loop $-1 $-1 $204 $198 #
vertex $-1 $311 $312 #
vertex $-1 $123 $313 #
straight-curve $-1 -47.402569658497882 -7.8730965813120761 41.250199178293379 0 0 -1 I I #
coedge $-1 $214 $214 $-1 $314 reversed $126 $-1 #
edge $-1 $315 0 $315 6.2831853071796004 $127 $316 forward 7 unknown #
vertex $-1 $130 $317 #
ellipse-curve $-1 -44.5125540537924 -13.212708350570281 2.9730299825095208 -0.51503808176128008 0 0.85716729658548041 0.4285836482927402 0 0.25751904088064004 1 I I #
coedge $-1 $218 $218 $-1 $318 reversed $133 $-1 #
edge $-1 $319 0 $319 6.2831853071796004 $134 $320 forward 7 unknown #
vertex $-1 $137 $321 #
ellipse-curve $-1 -44.5125540537924 -10.008941289015358 2.9730299825095208 -0.51503808176128008 0 0.85716729658548041 0.4285836482927402 0 0.25751904088064004 1 I I #
face $-1 $-1 $235 $29 $-1 $322 reversed single #
loop $-1 $-1 $231 $138 #
plane-surface $-1 0 -15.348553058273563 -0.047309834215809587 0 -1 0 0 0 -1 forward_v I I I I #
coedge $-1 $323 $324 $227 $325 forward $139 $-1 #
coedge $-1 $227 $141 $143 $233 reversed $87 $-1 #
coedge $-1 $141 $226 $225 $325 reversed $87 $-1 #
coedge $-1 $326 $144 $141 $229 forward $235 $-1 #
edge $-1 $237 -64.427794339933911 $327 -60.954801146570219 $228 $328 forward 7 unknown #
coedge $-1 $143 $142 $323 $329 reversed $56 $-1 #
coedge $-1 $330 $331 $142 $232 forward $223 $-1 #
edge $-1 $332 60.644744348290445 $236 67.387921826520937 $231 $333 forward 7 unknown #
edge $-1 $334 88.061961838765257 $237 94.805139316995763 $226 $335 forward 7 unknown #
coedge $-1 $144 $326 $330 $336 forward $235 $-1 #
loop $-1 $-1 $228 $222 #
vertex $-1 $232 $337 #
vertex $-1 $145 $338 #
straight-curve $-1 47.402569658497882 -5.8054124098964097 1.2365333858276699 0 1 0 I I #
coedge $-1 $239 $239 $-1 $339 reversed $148 $-1 #
edge $-1 $340 0 $340 6.2831853071796004 $149 $341 forward 7 unknown #
vertex $-1 $152 $342 #
ellipse-curve $-1 44.5125540537924 -13.212708350570281 2.9730299825095252 0.51503808176128008 0 0.85716729658548041 0.4285836482927402 0 -0.25751904088064004 1 I I #
coedge $-1 $243 $243 $-1 $343 reversed $155 $-1 #
edge $-1 $344 0 $344 6.2831853071796004 $156 $345 forward 7 unknown #
vertex $-1 $159 $346 #
ellipse-curve $-1 44.5125540537924 -10.008941289015358 2.9730299825095252 0.51503808176128008 0 0.85716729658548041 0.4285836482927402 0 -0.25751904088064004 1 I I #
face $-1 $-1 $175 $24 $-1 $347 reversed single #
loop $-1 $-1 $263 $160 #
plane-surface $-1 0 21.427865284636088 0 0 -1 0 0 0 -1 forward_v I I I I #
coedge $-1 $348 $261 $264 $349 forward $161 $-1 #
coedge $-1 $267 $163 $164 $255 reversed $101 $-1 #
coedge $-1 $261 $348 $163 $253 reversed $161 $-1 #
edge $-1 $268 -4.7095265791913734 $350 4.7095265791913734 $252 $351 forward 7 unknown #
coedge $-1 $165 $164 $348 $352 forward $65 $-1 #
edge $-1 $259 -47.402569658497882 $350 47.402569658497882 $251 $353 forward 7 unknown #
coedge $-1 $264 $263 $165 $257 reversed $248 $-1 #
edge $-1 $354 -47.402569658497882 $258 47.402569658497882 $256 $355 forward 7 unknown #
vertex $-1 $167 $356 #
vertex $-1 $270 $357 #
straight-curve $-1 47.402569658497882 0 -4.7095265791913734 0 -1 0 I I #
coedge $-1 $250 $252 $168 $262 reversed $161 $-1 #
edge $-1 $265 -21.427865284636088 $268 21.427865284636088 $261 $358 forward 7 unknown #
coedge $-1 $256 $169 $174 $271 forward $248 $-1 #
coedge $-1 $169 $256 $250 $349 reversed $248 $-1 #
vertex $-1 $170 $359 #
straight-curve $-1 0 21.427865284636088 4.7095265791913734 -1 0 0 I I #
coedge $-1 $171 $251 $173 $270 reversed $101 $-1 #
vertex $-1 $262 $360 #
straight-curve $-1 0 -21.427865284636088 4.7095265791913734 1 0 0 I I #
edge $-1 $176 -4.7095265791913734 $259 4.7095265791913734 $173 $361 forward 7 unknown #
edge $-1 $177 -4.7095265791913734 $258 4.7095265791913734 $174 $362 forward 7 unknown #
point $-1 47.402569658497882 -21.427865284636088 4.7095265791913734 #
point $-1 47.402569658497882 21.427865284636088 4.7095265791913734 #
face $-1 $-1 $194 $25 $-1 $363 reversed single #
loop $-1 $-1 $190 $179 #
plane-surface $-1 0 -21.427865284636088 0 0 1 0 0 0 1 forward_v I I I I #
coedge $-1 $364 $365 $187 $287 forward $180 $-1 #
coedge $-1 $288 $182 $184 $283 reversed $109 $-1 #
edge $-1 $285 -1.5236549171079048 $195 1.4763450828920952 $193 $366 forward 7 unknown #
coedge $-1 $184 $183 $367 $368 reversed $69 $-1 #
coedge $-1 $292 $291 $183 $282 forward $275 $-1 #
edge $-1 $369 -47.402569658497882 $284 47.402569658497882 $281 $370 forward 7 unknown #
edge $-1 $371 -47.402569658497882 $285 47.402569658497882 $278 $372 forward 7 unknown #
vertex $-1 $282 $373 #
vertex $-1 $186 $374 #
straight-curve $-1 47.402569658497882 -9.1941045857274126 -1.5473098342158096 0 1 0 I I #
edge $-1 $293 -12.233760698908675 $289 -6.1544484725461501 $277 $375 forward 7 unknown #
coedge $-1 $188 $278 $364 $376 reversed $109 $-1 #
vertex $-1 $287 $377 #
straight-curve $-1 0 -15.348553058273563 1.4526901657841904 -1 0 0 I I #
coedge $-1 $281 $190 $365 $378 forward $275 $-1 #
coedge $-1 $190 $281 $192 $295 reversed $275 $-1 #
vertex $-1 $378 $379 #
straight-curve $-1 0 -21.427865284636088 1.4526901657841904 -1 0 0 I I #
edge $-1 $196 -1.4526901657841904 $284 1.5473098342158096 $192 $380 forward 7 unknown #
point $-1 47.402569658497882 -15.348553058273563 1.4526901657841904 #
point $-1 47.402569658497882 -21.427865284636088 1.4526901657841904 #
plane-surface $-1 -47.402569658497882 0 0 1 0 0 0 0 -1 forward_v I I I I #
coedge $-1 $300 $201 $381 $382 reversed $117 $-1 #
coedge $-1 $201 $299 $303 $383 reversed $117 $-1 #
edge $-1 $384 -6.7431774782305265 $304 -8.2634070795339233e-015 $201 $385 forward 7 unknown #
coedge $-1 $203 $202 $307 $386 reversed $73 $-1 #
coedge $-1 $209 $204 $300 $383 forward $210 $-1 #
vertex $-1 $383 $387 #
straight-curve $-1 -47.402569658497882 -5.8054124098964097 1.2365333858276577 0 -1 0 I I #
coedge $-1 $381 $206 $209 $311 forward $199 $-1 #
coedge $-1 $206 $381 $302 $386 forward $199 $-1 #
vertex $-1 $207 $388 #
straight-curve $-1 -48.11541337671715 -7.8730965813120761 4.7095265791913761 -1 0 0 I I #
straight-curve $-1 -47.402569658497889 -7.8730965813120761 1.2365333858276557 0.85716729658548041 0 0.51503808176128008 I I #
edge $-1 $211 7.8730965813120761 $389 15.348553058273563 $209 $390 forward 7 unknown #
point $-1 -47.402569658497882 -7.8730965813120761 4.7095265791913734 #
point $-1 -47.402569658497882 -7.8730965813120761 1.2365333858276599 #
edge $-1 $391 1 $391 0 $214 $-1 forward 7 unknown #
vertex $-1 $215 $392 #
ellipse-curve $-1 -43.499948663544096 -13.212708350570281 1.2877716383132762 -0.51503808176128008 0 0.85716729658548041 0.4285836482927402 0 0.25751904088064004 1 I I #
point $-1 -44.083970405499656 -13.212708350570281 3.2305490233901542 #
edge $-1 $393 1 $393 0 $218 $-1 forward 7 unknown #
vertex $-1 $219 $394 #
ellipse-curve $-1 -43.499948663544096 -10.008941289015358 1.2877716383132762 -0.51503808176128008 0 0.85716729658548041 0.4285836482927402 0 0.25751904088064004 1 I I #
point $-1 -44.083970405499656 -10.008941289015358 3.2305490233901542 #
plane-surface $-1 47.402569658497882 0 0 -1 0 0 0 0 1 forward_v I I I I #
coedge $-1 $395 $225 $230 $329 forward $139 $-1 #
coedge $-1 $225 $395 $326 $396 forward $139 $-1 #
edge $-1 $327 -39.919088767160289 $334 -34.139057557749354 $225 $397 forward 7 unknown #
coedge $-1 $234 $228 $324 $396 reversed $235 $-1 #
vertex $-1 $229 $398 #
straight-curve $-1 47.402569658497882 -7.8730965813120761 65.664327725761595 0 0 1 I I #
edge $-1 $334 2.0676841714156664 $332 9.5431406483771539 $323 $399 forward 7 unknown #
coedge $-1 $331 $231 $234 $336 reversed $223 $-1 #
coedge $-1 $231 $330 $395 $400 reversed $223 $-1 #
vertex $-1 $400 $401 #
straight-curve $-1 -10.360153116054768 -15.348553058273563 35.943879377238119 0.85716729658548041 0 -0.51503808176128008 I I #
vertex $-1 $329 $402 #
straight-curve $-1 -33.86129531226122 -7.8730965813120761 50.064790480764088 0.85716729658548041 0 -0.51503808176128008 I I #
edge $-1 $403 60.954801146570219 $236 64.427794339933925 $234 $404 forward 7 unknown #
point $-1 47.402569658497882 -15.348553058273563 1.2365333858276681 #
point $-1 47.402569658497882 -7.8730965813120761 1.236533385827677 #
edge $-1 $405 1 $405 0 $239 $-1 forward 7 unknown #
vertex $-1 $240 $406 #
ellipse-curve $-1 43.499948663544096 -13.212708350570281 1.2877716383132745 0.51503808176128008 0 0.85716729658548041 0.4285836482927402 0 -0.25751904088064004 1 I I #
point $-1 44.941137702085136 -13.212708350570281 2.7155109416288723 #
edge $-1 $407 1 $407 0 $243 $-1 forward 7 unknown #
vertex $-1 $244 $408 #
ellipse-curve $-1 43.499948663544096 -10.008941289015358 1.2877716383132745 0.51503808176128008 0 0.85716729658548041 0.4285836482927402 0 -0.25751904088064004 1 I I #
point $-1 44.941137702085136 -10.008941289015358 2.7155109416288723 #
plane-surface $-1 47.402569658497882 0 0 -1 0 0 0 0 1 forward_v I I I I #
coedge $-1 $252 $250 $254 $352 reversed $161 $-1 #
edge $-1 $265 -4.7095265791913734 $354 4.7095265791913734 $264 $409 forward 7 unknown #
vertex $-1 $352 $410 #
straight-curve $-1 -47.402569658497882 -21.427865284636088 0 0 0 -1 I I #
edge $-1 $350 -21.427865284636088 $354 21.427865284636088 $348 $411 forward 7 unknown #
straight-curve $-1 0 -21.427865284636088 -4.7095265791913734 -1 0 0 I I #
vertex $-1 $257 $412 #
straight-curve $-1 0 21.427865284636088 -4.7095265791913734 1 0 0 I I #
point $-1 47.402569658497882 21.427865284636088 -4.7095265791913734 #
point $-1 47.402569658497882 -21.427865284636088 -4.7095265791913734 #
straight-curve $-1 -47.402569658497882 0 4.7095265791913734 0 -1 0 I I #
point $-1 -47.402569658497882 21.427865284636088 4.7095265791913734 #
point $-1 -47.402569658497882 -21.427865284636088 4.7095265791913734 #
straight-curve $-1 47.402569658497882 -21.427865284636088 0 0 0 -1 I I #
straight-curve $-1 47.402569658497882 21.427865284636088 0 0 0 -1 I I #
plane-surface $-1 47.402569658497882 0 0 -1 0 0 0 0 1 forward_v I I I I #
coedge $-1 $367 $277 $288 $376 forward $180 $-1 #
coedge $-1 $277 $367 $291 $378 reversed $180 $-1 #
straight-curve $-1 47.402569658497882 -15.348553058273563 -0.023654917107904794 0 0 1 I I #
coedge $-1 $365 $364 $280 $368 forward $180 $-1 #
edge $-1 $371 6.1544484725461501 $369 12.233760698908675 $367 $413 forward 7 unknown #
vertex $-1 $282 $414 #
straight-curve $-1 0 -21.427865284636088 -1.5473098342158096 1 0 0 I I #
vertex $-1 $368 $415 #
straight-curve $-1 0 -15.348553058273563 -1.5473098342158096 1 0 0 I I #
point $-1 47.402569658497882 -21.427865284636088 -1.5473098342158096 #
point $-1 47.402569658497882 -15.348553058273563 -1.5473098342158096 #
straight-curve $-1 -47.402569658497882 -9.1941045857274126 1.4526901657841904 0 1 0 I I #
edge $-1 $289 -1.4763450828920952 $371 1.5236549171079048 $364 $416 forward 7 unknown #
point $-1 -47.402569658497882 -15.348553058273563 1.4526901657841904 #
edge $-1 $293 -1.4526901657841904 $369 1.5473098342158096 $365 $417 forward 7 unknown #
point $-1 -47.402569658497882 -21.427865284636088 1.4526901657841904 #
straight-curve $-1 47.402569658497882 -21.427865284636088 0 0 0 -1 I I #
coedge $-1 $307 $306 $299 $382 forward $199 $-1 #
edge $-1 $389 0.7128437182192684 $384 6.4928749276302185 $381 $418 forward 7 unknown #
edge $-1 $304 -40.013665792465716 $389 -36.540672599102002 $303 $419 forward 7 unknown #
vertex $-1 $386 $420 #
straight-curve $-1 -47.402569658497889 -15.348553058273563 1.2365333858276557 -0.85716729658548041 0 -0.51503808176128008 I I #
edge $-1 $384 -9.5431406483771539 $308 -2.0676841714156664 $307 $421 forward 7 unknown #
point $-1 -47.402569658497882 -15.348553058273563 1.2365333858276599 #
point $-1 -41.622538449086932 -7.8730965813120761 4.7095265791913734 #
vertex $-1 $383 $422 #
straight-curve $-1 -47.402569658497882 0 4.7095265791913734 0 -1 0 I I #
vertex $-1 $314 $423 #
point $-1 -43.071365015251359 -13.212708350570281 1.5452906791939163 #
vertex $-1 $318 $424 #
point $-1 -43.071365015251359 -10.008941289015358 1.5452906791939163 #
coedge $-1 $324 $323 $331 $400 forward $139 $-1 #
edge $-1 $403 -15.348553058273563 $327 -7.8730965813120761 $326 $425 forward 7 unknown #
straight-curve $-1 7.4834808913375959 -7.8730965813120761 4.7095265791913761 -1 0 0 I I #
point $-1 47.402569658497882 -7.8730965813120761 4.7095265791913734 #
straight-curve $-1 41.62253844908696 -5.8054124098964097 4.7095265791913761 0 -1 0 I I #
edge $-1 $332 34.139057557749354 $403 39.919088767160289 $395 $426 forward 7 unknown #
point $-1 41.622538449086946 -15.348553058273563 4.7095265791913761 #
point $-1 41.622538449086946 -7.8730965813120761 4.7095265791913761 #
vertex $-1 $396 $427 #
straight-curve $-1 47.402569658497882 -15.348553058273563 65.664327725761595 0 0 -1 I I #
vertex $-1 $339 $428 #
point $-1 43.92853231183684 -13.212708350570281 1.0302525974326344 #
vertex $-1 $343 $429 #
point $-1 43.92853231183684 -10.008941289015358 1.0302525974326344 #
straight-curve $-1 -47.402569658497882 21.427865284636088 0 0 0 -1 I I #
point $-1 -47.402569658497882 -21.427865284636088 -4.7095265791913734 #
straight-curve $-1 -47.402569658497882 0 -4.7095265791913734 0 1 0 I I #
point $-1 -47.402569658497882 21.427865284636088 -4.7095265791913734 #
straight-curve $-1 -47.402569658497882 -9.1941045857274126 -1.5473098342158096 0 -1 0 I I #
point $-1 -47.402569658497882 -21.427865284636088 -1.5473098342158096 #
point $-1 -47.402569658497882 -15.348553058273563 -1.5473098342158096 #
straight-curve $-1 -47.402569658497882 -15.348553058273563 -0.023654917107904794 0 0 -1 I I #
straight-curve $-1 -47.402569658497882 -21.427865284636088 0 0 0 -1 I I #
straight-curve $-1 -48.11541337671715 -15.348553058273563 4.7095265791913761 1 0 0 I I #
straight-curve $-1 -47.402569658497882 -15.348553058273563 41.250199178293379 0 0 1 I I #
point $-1 -41.622538449086932 -15.348553058273563 4.7095265791913734 #
straight-curve $-1 -41.622538449086932 -5.8054124098964097 4.7095265791913734 0 1 0 I I #
point $-1 -47.402569658497882 -15.348553058273563 4.7095265791913734 #
point $-1 -43.242429622663458 -13.212708350570281 0.85918799002053614 #
point $-1 -43.242429622663458 -10.008941289015358 0.85918799002053614 #
straight-curve $-1 47.402569658497882 0 4.7095265791913734 0 1 0 I I #
straight-curve $-1 7.4834808913375959 -15.348553058273563 4.7095265791913761 1 0 0 I I #
point $-1 47.402569658497882 -15.348553058273563 4.7095265791913734 #
point $-1 43.242429622663458 -13.212708350570281 0.85918799002053436 #
point $-1 43.242429622663458 -10.008941289015358 0.85918799002053436 #
End-of-ACIS-data 