500 0 16 0           
7 Unknown 11 ACIS 5.0 NT 24 Thu Mar 25 23:18:29 1999 
-1 9.9999999999999995e-007 1e-010 
body $-1 $16 $-1 $17 #
body $-1 $18 $-1 $19 #
body $-1 $20 $-1 $21 #
body $-1 $22 $-1 $23 #
body $-1 $24 $-1 $25 #
body $-1 $26 $-1 $27 #
body $-1 $28 $-1 $29 #
body $-1 $30 $-1 $31 #
body $-1 $32 $-1 $33 #
body $-1 $34 $-1 $35 #
body $-1 $36 $-1 $37 #
body $-1 $38 $-1 $39 #
body $-1 $40 $-1 $41 #
body $-1 $42 $-1 $43 #
body $-1 $44 $-1 $45 #
body $-1 $46 $-1 $47 #
lump $-1 $-1 $48 $0 #
transform $-1 1 0 0 0 1 0 0 0 1 41.590624713888971 21.63481671150139 7.8759395472012796 1 rotate no_reflect no_shear #
lump $-1 $-1 $49 $1 #
transform $-1 1 0 0 0 1 0 0 0 1 41.590624713888971 21.63481671150139 7.8759395472012796 1 rotate no_reflect no_shear #
lump $-1 $-1 $50 $2 #
transform $-1 1 0 0 0 1 0 0 0 1 41.590624713888971 21.63481671150139 7.8759395472012796 1 rotate no_reflect no_shear #
lump $-1 $-1 $51 $3 #
transform $-1 1 0 0 0 1 0 0 0 1 41.590624713888971 21.63481671150139 7.8759395472012796 1 rotate no_reflect no_shear #
lump $-1 $-1 $52 $4 #
transform $-1 1 0 0 0 1 0 0 0 1 41.590624713888971 21.63481671150139 7.8759395472012796 1 rotate no_reflect no_shear #
lump $-1 $-1 $53 $5 #
transform $-1 1 0 0 0 1 0 0 0 1 41.590624713888971 21.63481671150139 7.8759395472012796 1 rotate no_reflect no_shear #
lump $-1 $-1 $54 $6 #
transform $-1 1 0 0 0 1 0 0 0 1 41.590624713888971 21.63481671150139 7.8759395472012796 1 rotate no_reflect no_shear #
lump $-1 $-1 $55 $7 #
transform $-1 1 0 0 0 1 0 0 0 1 41.590624713888971 21.63481671150139 7.8759395472012796 1 rotate no_reflect no_shear #
lump $-1 $-1 $56 $8 #
transform $-1 1 0 0 0 1 0 0 0 1 41.590624713888971 21.63481671150139 7.8759395472012796 1 rotate no_reflect no_shear #
lump $-1 $-1 $57 $9 #
transform $-1 1 0 0 0 1 0 0 0 1 41.590624713888971 21.63481671150139 7.8759395472012796 1 rotate no_reflect no_shear #
lump $-1 $-1 $58 $10 #
transform $-1 1 0 0 0 1 0 0 0 1 41.590624713888971 21.63481671150139 7.8759395472012796 1 rotate no_reflect no_shear #
lump $-1 $-1 $59 $11 #
transform $-1 1 0 0 0 1 0 0 0 1 41.590624713888971 21.63481671150139 7.8759395472012796 1 rotate no_reflect no_shear #
lump $-1 $-1 $60 $12 #
transform $-1 1 0 0 0 1 0 0 0 1 41.590624713888971 21.63481671150139 7.8759395472012796 1 rotate no_reflect no_shear #
lump $-1 $-1 $61 $13 #
transform $-1 1 0 0 0 1 0 0 0 1 41.590624713888971 21.63481671150139 7.8759395472012796 1 rotate no_reflect no_shear #
lump $-1 $-1 $62 $14 #
transform $-1 1 0 0 0 1 0 0 0 1 41.590624713888971 21.63481671150139 7.8759395472012796 1 rotate no_reflect no_shear #
lump $-1 $-1 $63 $15 #
transform $-1 1 0 0 0 1 0 0 0 1 41.590624713888971 21.63481671150139 7.8759395472012796 1 rotate no_reflect no_shear #
shell $-1 $-1 $-1 $64 $-1 $16 #
shell $-1 $-1 $-1 $65 $-1 $18 #
shell $-1 $-1 $-1 $66 $-1 $20 #
shell $-1 $-1 $-1 $67 $-1 $22 #
shell $-1 $-1 $-1 $68 $-1 $24 #
shell $-1 $-1 $-1 $69 $-1 $26 #
shell $-1 $-1 $-1 $70 $-1 $28 #
shell $-1 $-1 $-1 $71 $-1 $30 #
shell $-1 $-1 $-1 $72 $-1 $32 #
shell $-1 $-1 $-1 $73 $-1 $34 #
shell $-1 $-1 $-1 $74 $-1 $36 #
shell $-1 $-1 $-1 $75 $-1 $38 #
shell $-1 $-1 $-1 $76 $-1 $40 #
shell $-1 $-1 $-1 $77 $-1 $42 #
shell $-1 $-1 $-1 $78 $-1 $44 #
shell $-1 $-1 $-1 $79 $-1 $46 #
face $-1 $80 $81 $48 $-1 $82 forward single #
face $-1 $83 $84 $49 $-1 $85 forward single #
face $-1 $86 $87 $50 $-1 $88 reversed single #
face $-1 $89 $90 $51 $-1 $91 forward single #
face $-1 $92 $93 $52 $-1 $94 forward single #
face $-1 $95 $96 $53 $-1 $97 forward single #
face $-1 $98 $99 $54 $-1 $100 reversed single #
face $-1 $101 $102 $55 $-1 $103 forward single #
face $-1 $104 $105 $56 $-1 $106 forward single #
face $-1 $107 $108 $57 $-1 $109 forward single #
face $-1 $110 $111 $58 $-1 $112 reversed single #
face $-1 $113 $114 $59 $-1 $115 forward single #
face $-1 $116 $117 $60 $-1 $118 forward single #
face $-1 $119 $120 $61 $-1 $121 reversed single #
face $-1 $122 $123 $62 $-1 $124 forward single #
face $-1 $125 $126 $63 $-1 $127 forward single #
face $-1 $128 $129 $48 $-1 $130 reversed single #
loop $-1 $-1 $131 $64 #
plane-surface $-1 0 0 7.8759395472012796 0 0 1 1 0 0 forward_v I I I I #
face $-1 $132 $133 $49 $-1 $134 reversed single #
loop $-1 $-1 $135 $65 #
plane-surface $-1 -37.124623032695851 0 -0.70157423937508057 0 0 1 1 0 0 forward_v I I I I #
face $-1 $136 $137 $50 $-1 $138 reversed single #
loop $-1 $-1 $139 $66 #
plane-surface $-1 -29.957905072525705 35.521660473535391 94.268889404182801 1 0 0 0 -0.5877852598018023 -0.80901698891910034 forward_v I I I I #
face $-1 $140 $141 $51 $-1 $142 forward single #
loop $-1 $143 $144 $67 #
cone-surface $-1 -28.223368179136767 16.712248184468734 3.9338583491306736 0 -0.5877852598018023 -0.80901698891910034 0.5 0 0 1 I I 0 1 0.5 forward I I I I #
face $-1 $145 $146 $52 $-1 $147 forward single #
loop $-1 $148 $149 $68 #
cone-surface $-1 -25.621562839053357 16.712248184468734 3.9338583491306736 0 -0.5877852598018023 -0.80901698891910034 0.5 0 0 1 I I 0 1 0.5 forward I I I I #
face $-1 $150 $151 $53 $-1 $152 forward single #
loop $-1 $153 $154 $69 #
cone-surface $-1 -23.019757498969948 16.712248184468734 3.9338583491306736 0 -0.5877852598018023 -0.80901698891910034 0.5 0 0 1 I I 0 1 0.5 forward I I I I #
face $-1 $155 $156 $54 $-1 $157 reversed single #
loop $-1 $-1 $158 $70 #
plane-surface $-1 7.1667179601701489 35.521660473535391 94.268889404182801 1 0 0 0 -0.5877852598018023 -0.80901698891910034 forward_v I I I I #
face $-1 $159 $160 $55 $-1 $161 forward single #
loop $-1 $162 $163 $71 #
cone-surface $-1 8.901254853559081 16.712248184468734 3.9338583491306736 0 -0.5877852598018023 -0.80901698891910034 0.5 0 0 1 I I 0 1 0.5 forward I I I I #
face $-1 $164 $165 $56 $-1 $166 forward single #
loop $-1 $167 $168 $72 #
cone-surface $-1 11.503060193642497 16.712248184468734 3.9338583491306736 0 -0.5877852598018023 -0.80901698891910034 0.5 0 0 1 I I 0 1 0.5 forward I I I I #
face $-1 $169 $170 $57 $-1 $171 forward single #
loop $-1 $172 $173 $73 #
cone-surface $-1 14.104865533725899 16.712248184468734 3.9338583491306736 0 -0.5877852598018023 -0.80901698891910034 0.5 0 0 1 I I 0 1 0.5 forward I I I I #
face $-1 $174 $175 $58 $-1 $176 reversed single #
loop $-1 $-1 $177 $74 #
plane-surface $-1 -14.476755627604197 -64.476327855290705 72.628641496360686 -1 0 0 0 -0.51503808176128008 0.85716729658548041 forward_v I I I I #
face $-1 $178 $179 $59 $-1 $180 forward single #
loop $-1 $181 $182 $75 #
cone-surface $-1 -21.515444570462041 -15.509809945043322 3.476224419218152 0 0.51503808176128008 -0.85716729658548041 1 0 0 1 I I 0 1 1 forward I I I I #
face $-1 $183 $184 $60 $-1 $185 forward single #
loop $-1 $186 $187 $76 #
cone-surface $-1 -17.292231204747335 -15.509809945043322 3.476224419218152 0 0.51503808176128008 -0.85716729658548041 1 0 0 1 I I 0 1 1 forward I I I I #
face $-1 $188 $189 $61 $-1 $190 reversed single #
loop $-1 $-1 $191 $77 #
plane-surface $-1 33.26292350999141 -64.476327855290705 72.628641496360686 -1 0 0 0 -0.51503808176128008 0.85716729658548041 forward_v I I I I #
face $-1 $192 $193 $62 $-1 $194 forward single #
loop $-1 $195 $196 $78 #
cone-surface $-1 26.224234567133564 -15.509809945043322 3.476224419218152 0 0.51503808176128008 -0.85716729658548041 1 0 0 1 I I 0 1 1 forward I I I I #
face $-1 $197 $198 $63 $-1 $199 forward single #
loop $-1 $200 $201 $79 #
cone-surface $-1 30.447447932848277 -15.509809945043322 3.476224419218152 0 0.51503808176128008 -0.85716729658548041 1 0 0 1 I I 0 1 1 forward I I I I #
face $-1 $202 $203 $48 $-1 $204 reversed single #
loop $-1 $-1 $205 $80 #
plane-surface $-1 0 0 -7.8759395472012796 0 0 1 1 0 0 forward_v I I I I #
coedge $-1 $206 $207 $208 $209 forward $81 $-1 #
face $-1 $210 $211 $49 $-1 $212 reversed single #
loop $-1 $-1 $213 $83 #
plane-surface $-1 -37.124623032695851 0 -5.1290891674233308 0 0 1 1 0 0 forward_v I I I I #
coedge $-1 $214 $215 $216 $217 forward $84 $-1 #
face $-1 $218 $219 $50 $-1 $220 reversed single #
loop $-1 $-1 $221 $86 #
plane-surface $-1 -25.621562839053357 -13.371051832009584 26.973845457593256 0 0.5877852598018023 0.80901698891910034 1 0 0 forward_v I I I I #
coedge $-1 $222 $223 $224 $225 reversed $87 $-1 #
face $-1 $-1 $226 $51 $-1 $227 forward single #
loop $-1 $228 $229 $89 #
cone-surface $-1 -28.223368179136767 16.002661663823577 2.9571963101685208 0 -0.5877852598018023 -0.80901698891910034 0.25 0 0 1 I I -0.70710678118654746 0.70710678118654746 0.25 forward I I I I #
loop $-1 $-1 $230 $67 #
coedge $-1 $144 $144 $231 $232 reversed $90 $-1 #
face $-1 $-1 $233 $52 $-1 $234 forward single #
loop $-1 $235 $236 $92 #
cone-surface $-1 -25.621562839053357 16.002661663823577 2.9571963101685208 0 -0.5877852598018023 -0.80901698891910034 0.25 0 0 1 I I -0.70710678118654746 0.70710678118654746 0.25 forward I I I I #
loop $-1 $-1 $237 $68 #
coedge $-1 $149 $149 $238 $239 reversed $93 $-1 #
face $-1 $-1 $240 $53 $-1 $241 forward single #
loop $-1 $242 $243 $95 #
cone-surface $-1 -23.019757498969948 16.002661663823577 2.9571963101685208 0 -0.5877852598018023 -0.80901698891910034 0.25 0 0 1 I I -0.70710678118654746 0.70710678118654746 0.25 forward I I I I #
loop $-1 $-1 $244 $69 #
coedge $-1 $154 $154 $245 $246 reversed $96 $-1 #
face $-1 $247 $248 $54 $-1 $249 reversed single #
loop $-1 $-1 $250 $98 #
plane-surface $-1 11.503060193642497 -13.371051832009584 26.973845457593256 0 0.5877852598018023 0.80901698891910034 1 0 0 forward_v I I I I #
coedge $-1 $251 $252 $253 $254 reversed $99 $-1 #
face $-1 $-1 $255 $55 $-1 $256 forward single #
loop $-1 $257 $258 $101 #
cone-surface $-1 8.901254853559081 16.002661663823577 2.9571963101685208 0 -0.5877852598018023 -0.80901698891910034 0.25 0 0 1 I I -0.70710678118654746 0.70710678118654746 0.25 forward I I I I #
loop $-1 $-1 $259 $71 #
coedge $-1 $163 $163 $260 $261 reversed $102 $-1 #
face $-1 $-1 $262 $56 $-1 $263 forward single #
loop $-1 $264 $265 $104 #
cone-surface $-1 11.503060193642497 16.002661663823577 2.9571963101685208 0 -0.5877852598018023 -0.80901698891910034 0.25 0 0 1 I I -0.70710678118654746 0.70710678118654746 0.25 forward I I I I #
loop $-1 $-1 $266 $72 #
coedge $-1 $168 $168 $267 $268 reversed $105 $-1 #
face $-1 $-1 $269 $57 $-1 $270 forward single #
loop $-1 $271 $272 $107 #
cone-surface $-1 14.104865533725899 16.002661663823577 2.9571963101685208 0 -0.5877852598018023 -0.80901698891910034 0.25 0 0 1 I I -0.70710678118654746 0.70710678118654746 0.25 forward I I I I #
loop $-1 $-1 $273 $73 #
coedge $-1 $173 $173 $274 $275 reversed $108 $-1 #
face $-1 $276 $277 $58 $-1 $278 reversed single #
loop $-1 $-1 $279 $110 #
plane-surface $-1 -19.403837887604688 -21.634816711501379 1.3283947977497235 0 -0.51503808176128008 0.85716729658548041 1 0 0 forward_v I I I I #
coedge $-1 $280 $281 $282 $283 reversed $111 $-1 #
face $-1 $-1 $284 $59 $-1 $285 forward single #
loop $-1 $286 $287 $113 #
cone-surface $-1 -21.515444570462041 -14.575756232202231 1.9216980176680503 0 0.51503808176128008 -0.85716729658548041 0.5 0 0 1 I I -0.70710678118654746 0.70710678118654746 0.5 forward I I I I #
loop $-1 $-1 $288 $75 #
coedge $-1 $182 $182 $289 $290 reversed $114 $-1 #
face $-1 $-1 $291 $60 $-1 $292 forward single #
loop $-1 $293 $294 $116 #
cone-surface $-1 -17.292231204747335 -14.575756232202231 1.9216980176680503 0 0.51503808176128008 -0.85716729658548041 0.5 0 0 1 I I -0.70710678118654746 0.70710678118654746 0.5 forward I I I I #
loop $-1 $-1 $295 $76 #
coedge $-1 $187 $187 $296 $297 reversed $117 $-1 #
face $-1 $298 $299 $61 $-1 $300 reversed single #
loop $-1 $-1 $301 $119 #
plane-surface $-1 28.335841249990921 -21.634816711501379 1.3283947977497235 0 -0.51503808176128008 0.85716729658548041 1 0 0 forward_v I I I I #
coedge $-1 $302 $303 $304 $305 reversed $120 $-1 #
face $-1 $-1 $306 $62 $-1 $307 forward single #
loop $-1 $308 $309 $122 #
cone-surface $-1 26.224234567133564 -14.575756232202231 1.9216980176680503 0 0.51503808176128008 -0.85716729658548041 0.5 0 0 1 I I -0.70710678118654746 0.70710678118654746 0.5 forward I I I I #
loop $-1 $-1 $310 $78 #
coedge $-1 $196 $196 $311 $312 reversed $123 $-1 #
face $-1 $-1 $313 $63 $-1 $314 forward single #
loop $-1 $315 $316 $125 #
cone-surface $-1 30.447447932848277 -14.575756232202231 1.9216980176680503 0 0.51503808176128008 -0.85716729658548041 0.5 0 0 1 I I -0.70710678118654746 0.70710678118654746 0.5 forward I I I I #
loop $-1 $-1 $317 $79 #
coedge $-1 $201 $201 $318 $319 reversed $126 $-1 #
face $-1 $320 $321 $48 $-1 $322 reversed single #
loop $-1 $-1 $323 $128 #
plane-surface $-1 0 -21.63481671150139 0 0 1 0 0 0 1 forward_v I I I I #
coedge $-1 $324 $325 $326 $327 forward $129 $-1 #
coedge $-1 $328 $131 $329 $330 forward $81 $-1 #
coedge $-1 $131 $328 $331 $332 forward $81 $-1 #
coedge $-1 $333 $334 $131 $209 reversed $335 $-1 #
edge $-1 $336 -21.63481671150139 $337 21.63481671150139 $208 $338 forward 7 unknown #
face $-1 $339 $340 $49 $-1 $341 reversed single #
loop $-1 $-1 $342 $132 #
plane-surface $-1 -32.658621351502731 0 -2.9153317033992057 -1 0 0 0 0 1 forward_v I I I I #
coedge $-1 $343 $344 $345 $346 forward $133 $-1 #
coedge $-1 $347 $135 $348 $349 reversed $84 $-1 #
coedge $-1 $135 $347 $350 $351 reversed $84 $-1 #
coedge $-1 $342 $352 $135 $217 reversed $211 $-1 #
edge $-1 $353 -21.63481671150139 $354 21.63481671150139 $216 $355 forward 7 unknown #
face $-1 $356 $357 $50 $-1 $358 forward single #
loop $-1 $-1 $359 $136 #
plane-surface $-1 -21.28522060558101 35.521660473535391 94.268889404182801 -1 0 0 0 0.5877852598018023 0.80901698891910034 forward_v I I I I #
coedge $-1 $360 $361 $362 $363 reversed $137 $-1 #
coedge $-1 $223 $139 $364 $365 reversed $87 $-1 #
coedge $-1 $139 $222 $360 $366 reversed $87 $-1 #
coedge $-1 $362 $367 $139 $225 forward $357 $-1 #
edge $-1 $368 -3.8739864747336945 $369 4.8458701679422127 $224 $370 forward 7 unknown #
loop $-1 $-1 $231 $140 #
plane-surface $-1 -25.621562839053357 -13.371051832009584 26.973845457593256 0 0.5877852598018023 0.80901698891910034 1 0 0 forward_v I I I I #
loop $-1 $-1 $371 $89 #
coedge $-1 $229 $229 $230 $372 reversed $141 $-1 #
coedge $-1 $230 $230 $229 $372 forward $143 $-1 #
coedge $-1 $231 $231 $144 $232 forward $226 $-1 #
edge $-1 $373 5.2782961409183908e-016 $373 6.2831853071796013 $231 $374 forward 7 unknown #
loop $-1 $-1 $238 $145 #
plane-surface $-1 -25.621562839053357 -13.371051832009584 26.973845457593256 0 0.5877852598018023 0.80901698891910034 1 0 0 forward_v I I I I #
loop $-1 $-1 $375 $92 #
coedge $-1 $236 $236 $237 $376 reversed $146 $-1 #
coedge $-1 $237 $237 $236 $376 forward $148 $-1 #
coedge $-1 $238 $238 $149 $239 forward $233 $-1 #
edge $-1 $377 5.2782961409183908e-016 $377 6.2831853071796013 $238 $378 forward 7 unknown #
loop $-1 $-1 $245 $150 #
plane-surface $-1 -25.621562839053357 -13.371051832009584 26.973845457593256 0 0.5877852598018023 0.80901698891910034 1 0 0 forward_v I I I I #
loop $-1 $-1 $379 $95 #
coedge $-1 $243 $243 $244 $380 reversed $151 $-1 #
coedge $-1 $244 $244 $243 $380 forward $153 $-1 #
coedge $-1 $245 $245 $154 $246 forward $240 $-1 #
edge $-1 $381 5.2782961409183908e-016 $381 6.2831853071796013 $245 $382 forward 7 unknown #
face $-1 $383 $384 $54 $-1 $385 forward single #
loop $-1 $-1 $386 $155 #
plane-surface $-1 15.839402427114845 35.521660473535391 94.268889404182801 -1 0 0 0 0.5877852598018023 0.80901698891910034 forward_v I I I I #
coedge $-1 $387 $388 $389 $390 reversed $156 $-1 #
coedge $-1 $252 $158 $391 $392 reversed $99 $-1 #
coedge $-1 $158 $251 $387 $393 reversed $99 $-1 #
coedge $-1 $389 $394 $158 $254 forward $384 $-1 #
edge $-1 $395 -3.8739864747336945 $396 4.8458701679422127 $253 $397 forward 7 unknown #
loop $-1 $-1 $260 $159 #
plane-surface $-1 11.503060193642497 -13.371051832009584 26.973845457593256 0 0.5877852598018023 0.80901698891910034 1 0 0 forward_v I I I I #
loop $-1 $-1 $398 $101 #
coedge $-1 $258 $258 $259 $399 reversed $160 $-1 #
coedge $-1 $259 $259 $258 $399 forward $162 $-1 #
coedge $-1 $260 $260 $163 $261 forward $255 $-1 #
edge $-1 $400 5.2782961409183908e-016 $400 6.2831853071796013 $260 $401 forward 7 unknown #
loop $-1 $-1 $267 $164 #
plane-surface $-1 11.503060193642497 -13.371051832009584 26.973845457593256 0 0.5877852598018023 0.80901698891910034 1 0 0 forward_v I I I I #
loop $-1 $-1 $402 $104 #
coedge $-1 $265 $265 $266 $403 reversed $165 $-1 #
coedge $-1 $266 $266 $265 $403 forward $167 $-1 #
coedge $-1 $267 $267 $168 $268 forward $262 $-1 #
edge $-1 $404 5.2782961409183908e-016 $404 6.2831853071796013 $267 $405 forward 7 unknown #
loop $-1 $-1 $274 $169 #
plane-surface $-1 11.503060193642497 -13.371051832009584 26.973845457593256 0 0.5877852598018023 0.80901698891910034 1 0 0 forward_v I I I I #
loop $-1 $-1 $406 $107 #
coedge $-1 $272 $272 $273 $407 reversed $170 $-1 #
coedge $-1 $273 $273 $272 $407 forward $172 $-1 #
coedge $-1 $274 $274 $173 $275 forward $269 $-1 #
edge $-1 $408 5.2782961409183908e-016 $408 6.2831853071796013 $274 $409 forward 7 unknown #
face $-1 $410 $411 $58 $-1 $412 reversed single #
loop $-1 $-1 $413 $174 #
plane-surface $-1 -24.330920147605177 -64.476327855290705 72.628641496360686 1 0 0 0 0.51503808176128008 -0.85716729658548041 forward_v I I I I #
coedge $-1 $414 $415 $416 $417 reversed $175 $-1 #
coedge $-1 $281 $177 $418 $419 reversed $111 $-1 #
coedge $-1 $177 $280 $414 $420 reversed $111 $-1 #
coedge $-1 $416 $421 $177 $283 forward $422 $-1 #
edge $-1 $423 10.603347216143963 $424 21.500291405139237 $282 $425 forward 7 unknown #
loop $-1 $-1 $289 $178 #
plane-surface $-1 -19.403837887604688 -21.634816711501379 1.3283947977497235 0 -0.51503808176128008 0.85716729658548041 1 0 0 forward_v I I I I #
loop $-1 $-1 $426 $113 #
coedge $-1 $287 $287 $288 $427 reversed $179 $-1 #
coedge $-1 $288 $288 $287 $427 forward $181 $-1 #
coedge $-1 $289 $289 $182 $290 forward $284 $-1 #
edge $-1 $428 -2.1172743084281412e-015 $428 6.2831853071795987 $289 $429 forward 7 unknown #
loop $-1 $-1 $296 $183 #
plane-surface $-1 -19.403837887604688 -21.634816711501379 1.3283947977497235 0 -0.51503808176128008 0.85716729658548041 1 0 0 forward_v I I I I #
loop $-1 $-1 $430 $116 #
coedge $-1 $294 $294 $295 $431 reversed $184 $-1 #
coedge $-1 $295 $295 $294 $431 forward $186 $-1 #
coedge $-1 $296 $296 $187 $297 forward $291 $-1 #
edge $-1 $432 -2.1172743084281412e-015 $432 6.2831853071795987 $296 $433 forward 7 unknown #
face $-1 $434 $435 $61 $-1 $436 reversed single #
loop $-1 $-1 $437 $188 #
plane-surface $-1 23.408758989990432 -64.476327855290705 72.628641496360686 1 0 0 0 0.51503808176128008 -0.85716729658548041 forward_v I I I I #
coedge $-1 $438 $439 $440 $441 reversed $189 $-1 #
coedge $-1 $303 $191 $442 $443 reversed $120 $-1 #
coedge $-1 $191 $302 $438 $444 reversed $120 $-1 #
coedge $-1 $440 $445 $191 $305 forward $446 $-1 #
edge $-1 $447 10.603347216143963 $448 21.500291405139237 $304 $449 forward 7 unknown #
loop $-1 $-1 $311 $192 #
plane-surface $-1 28.335841249990921 -21.634816711501379 1.3283947977497235 0 -0.51503808176128008 0.85716729658548041 1 0 0 forward_v I I I I #
loop $-1 $-1 $450 $122 #
coedge $-1 $309 $309 $310 $451 reversed $193 $-1 #
coedge $-1 $310 $310 $309 $451 forward $195 $-1 #
coedge $-1 $311 $311 $196 $312 forward $306 $-1 #
edge $-1 $452 -2.1172743084281412e-015 $452 6.2831853071795987 $311 $453 forward 7 unknown #
loop $-1 $-1 $318 $197 #
plane-surface $-1 28.335841249990921 -21.634816711501379 1.3283947977497235 0 -0.51503808176128008 0.85716729658548041 1 0 0 forward_v I I I I #
loop $-1 $-1 $454 $125 #
coedge $-1 $316 $316 $317 $455 reversed $198 $-1 #
coedge $-1 $317 $317 $316 $455 forward $200 $-1 #
coedge $-1 $318 $318 $201 $319 forward $313 $-1 #
edge $-1 $456 -2.1172743084281412e-015 $456 6.2831853071795987 $318 $457 forward 7 unknown #
face $-1 $458 $459 $48 $-1 $460 reversed single #
loop $-1 $-1 $461 $202 #
plane-surface $-1 -41.590624713888971 0 0 1 0 0 0 0 -1 forward_v I I I I #
coedge $-1 $462 $331 $463 $464 forward $203 $-1 #
coedge $-1 $465 $205 $462 $466 forward $129 $-1 #
coedge $-1 $205 $465 $467 $468 forward $129 $-1 #
coedge $-1 $334 $333 $205 $327 reversed $335 $-1 #
edge $-1 $469 -21.63481671150139 $470 21.63481671150139 $326 $471 forward 7 unknown #
coedge $-1 $207 $206 $472 $473 forward $81 $-1 #
coedge $-1 $474 $475 $206 $330 reversed $459 $-1 #
edge $-1 $337 -41.590624713888971 $476 41.590624713888971 $329 $477 forward 7 unknown #
coedge $-1 $323 $478 $207 $332 reversed $203 $-1 #
edge $-1 $479 -41.590624713888971 $336 41.590624713888971 $331 $480 forward 7 unknown #
coedge $-1 $326 $208 $478 $481 forward $335 $-1 #
coedge $-1 $208 $326 $474 $482 reversed $335 $-1 #
loop $-1 $-1 $333 $458 #
vertex $-1 $209 $483 #
vertex $-1 $209 $484 #
straight-curve $-1 41.590624713888971 0 7.8759395472012796 0 1 0 I I #
face $-1 $485 $486 $49 $-1 $487 reversed single #
loop $-1 $-1 $488 $210 #
plane-surface $-1 0 -21.63481671150139 0 0 1 0 0 0 1 forward_v I I I I #
coedge $-1 $345 $216 $489 $490 reversed $211 $-1 #
coedge $-1 $491 $213 $488 $492 reversed $133 $-1 #
coedge $-1 $213 $491 $493 $494 reversed $133 $-1 #
coedge $-1 $352 $342 $213 $346 reversed $211 $-1 #
edge $-1 $495 -21.63481671150139 $496 21.63481671150139 $345 $497 forward 7 unknown #
coedge $-1 $215 $214 $498 $499 reversed $84 $-1 #
coedge $-1 $500 $501 $214 $349 forward $502 $-1 #
edge $-1 $503 -23.028313197541046 $354 -14.096309835154806 $348 $504 forward 7 unknown #
coedge $-1 $505 $489 $215 $351 forward $340 $-1 #
edge $-1 $353 14.096309835154806 $506 23.028313197541046 $350 $507 forward 7 unknown #
coedge $-1 $216 $345 $500 $508 reversed $211 $-1 #
vertex $-1 $351 $509 #
vertex $-1 $349 $510 #
straight-curve $-1 -32.658621351502731 0 -0.70157423937508057 0 1 0 I I #
face $-1 $-1 $511 $50 $-1 $512 reversed single #
loop $-1 $-1 $224 $218 #
plane-surface $-1 0 0 7.8759395472012796 0 0 1 1 0 0 forward_v I I I I #
coedge $-1 $513 $514 $515 $516 reversed $219 $-1 #
coedge $-1 $517 $221 $223 $366 forward $137 $-1 #
coedge $-1 $221 $517 $513 $518 forward $137 $-1 #
coedge $-1 $515 $224 $221 $363 forward $357 $-1 #
edge $-1 $369 -17.147123652999028 $519 -8.4744391860543313 $362 $520 forward 7 unknown #
coedge $-1 $521 $522 $222 $365 forward $511 $-1 #
edge $-1 $523 -45.593851967566579 $368 -39.258505154890123 $364 $524 forward 7 unknown #
edge $-1 $369 32.49129778591535 $523 43.269633423002773 $223 $525 forward 7 unknown #
coedge $-1 $224 $515 $521 $526 forward $357 $-1 #
vertex $-1 $365 $527 #
vertex $-1 $225 $528 #
straight-curve $-1 -29.957905072525705 17.760830236767696 7.875939547201277 0 -1 0 I I #
coedge $-1 $371 $371 $-1 $529 reversed $228 $-1 #
edge $-1 $530 0 $530 6.2831853071796004 $229 $531 forward 7 unknown #
vertex $-1 $232 $532 #
ellipse-curve $-1 -28.223368179136767 17.27488839016344 4.7082661408630466 0 0.5877852598018023 0.80901698891910034 0.5 0 0 1 I I #
coedge $-1 $375 $375 $-1 $533 reversed $235 $-1 #
edge $-1 $534 0 $534 6.2831853071796004 $236 $535 forward 7 unknown #
vertex $-1 $239 $536 #
ellipse-curve $-1 -25.621562839053357 17.27488839016344 4.7082661408630466 0 0.5877852598018023 0.80901698891910034 0.5 0 0 1 I I #
coedge $-1 $379 $379 $-1 $537 reversed $242 $-1 #
edge $-1 $538 0 $538 6.2831853071796004 $243 $539 forward 7 unknown #
vertex $-1 $246 $540 #
ellipse-curve $-1 -23.019757498969948 17.27488839016344 4.7082661408630466 0 0.5877852598018023 0.80901698891910034 0.5 0 0 1 I I #
face $-1 $-1 $541 $54 $-1 $542 reversed single #
loop $-1 $-1 $253 $247 #
plane-surface $-1 0 0 7.8759395472012796 0 0 1 1 0 0 forward_v I I I I #
coedge $-1 $543 $544 $545 $546 reversed $248 $-1 #
coedge $-1 $547 $250 $252 $393 forward $156 $-1 #
coedge $-1 $250 $547 $543 $548 forward $156 $-1 #
coedge $-1 $545 $253 $250 $390 forward $384 $-1 #
edge $-1 $396 1.4151878633489003 $549 10.087872330293596 $389 $550 forward 7 unknown #
coedge $-1 $551 $552 $251 $392 forward $541 $-1 #
edge $-1 $553 -45.593851967566579 $395 -39.258505154890123 $391 $554 forward 7 unknown #
edge $-1 $396 32.49129778591535 $553 43.269633423002773 $252 $555 forward 7 unknown #
coedge $-1 $253 $545 $551 $556 forward $384 $-1 #
vertex $-1 $254 $557 #
vertex $-1 $254 $558 #
straight-curve $-1 7.1667179601701489 17.760830236767696 7.875939547201277 0 -1 0 I I #
coedge $-1 $398 $398 $-1 $559 reversed $257 $-1 #
edge $-1 $560 0 $560 6.2831853071796004 $258 $561 forward 7 unknown #
vertex $-1 $261 $562 #
ellipse-curve $-1 8.901254853559081 17.27488839016344 4.7082661408630466 0 0.5877852598018023 0.80901698891910034 0.5 0 0 1 I I #
coedge $-1 $402 $402 $-1 $563 reversed $264 $-1 #
edge $-1 $564 0 $564 6.2831853071796004 $265 $565 forward 7 unknown #
vertex $-1 $268 $566 #
ellipse-curve $-1 11.503060193642497 17.27488839016344 4.7082661408630466 0 0.5877852598018023 0.80901698891910034 0.5 0 0 1 I I #
coedge $-1 $406 $406 $-1 $567 reversed $271 $-1 #
edge $-1 $568 0 $568 6.2831853071796004 $272 $569 forward 7 unknown #
vertex $-1 $275 $570 #
ellipse-curve $-1 14.104865533725899 17.27488839016344 4.7082661408630466 0 0.5877852598018023 0.80901698891910034 0.5 0 0 1 I I #
face $-1 $-1 $422 $58 $-1 $571 forward single #
loop $-1 $-1 $572 $276 #
plane-surface $-1 0 -21.63481671150139 0 0 1 0 0 0 1 forward_v I I I I #
coedge $-1 $573 $574 $575 $576 reversed $277 $-1 #
coedge $-1 $577 $279 $281 $420 forward $175 $-1 #
coedge $-1 $279 $577 $573 $578 forward $175 $-1 #
coedge $-1 $575 $282 $279 $417 forward $422 $-1 #
edge $-1 $424 4.774836683801853 $579 14.629001203802833 $416 $580 forward 7 unknown #
coedge $-1 $581 $582 $280 $419 forward $411 $-1 #
edge $-1 $583 -34.985925950430627 $423 -28.438381200979062 $418 $584 forward 7 unknown #
edge $-1 $424 -12.7127390795276 $583 1.24522913329939e-014 $281 $585 forward 7 unknown #
coedge $-1 $282 $575 $581 $586 forward $422 $-1 #
loop $-1 $-1 $575 $410 #
vertex $-1 $419 $587 #
vertex $-1 $283 $588 #
straight-curve $-1 -14.476755627604197 -32.238163927645353 7.875939547201277 0 1 0 I I #
coedge $-1 $426 $426 $-1 $589 reversed $286 $-1 #
edge $-1 $590 0 $590 6.2831853071796004 $287 $591 forward 7 unknown #
vertex $-1 $290 $592 #
ellipse-curve $-1 -21.515444570462041 -16.186344617003762 4.6021671724754931 0 -0.51503808176128008 0.85716729658548041 1 0 0 1 I I #
coedge $-1 $430 $430 $-1 $593 reversed $293 $-1 #
edge $-1 $594 0 $594 6.2831853071796004 $294 $595 forward 7 unknown #
vertex $-1 $297 $596 #
ellipse-curve $-1 -17.292231204747335 -16.186344617003762 4.6021671724754931 0 -0.51503808176128008 0.85716729658548041 1 0 0 1 I I #
face $-1 $-1 $446 $61 $-1 $597 forward single #
loop $-1 $-1 $598 $298 #
plane-surface $-1 0 -21.63481671150139 0 0 1 0 0 0 1 forward_v I I I I #
coedge $-1 $599 $600 $601 $602 reversed $299 $-1 #
coedge $-1 $603 $301 $303 $444 forward $189 $-1 #
coedge $-1 $301 $603 $599 $604 forward $189 $-1 #
coedge $-1 $601 $304 $301 $441 forward $446 $-1 #
edge $-1 $448 -19.095002884995949 $605 -9.2408383649949712 $440 $606 forward 7 unknown #
coedge $-1 $607 $608 $302 $443 forward $435 $-1 #
edge $-1 $609 -34.985925950430627 $447 -28.438381200979062 $442 $610 forward 7 unknown #
edge $-1 $448 -12.7127390795276 $609 1.24522913329939e-014 $303 $611 forward 7 unknown #
coedge $-1 $304 $601 $607 $612 forward $446 $-1 #
loop $-1 $-1 $601 $434 #
vertex $-1 $443 $613 #
vertex $-1 $305 $614 #
straight-curve $-1 33.26292350999141 -32.238163927645353 7.875939547201277 0 1 0 I I #
coedge $-1 $450 $450 $-1 $615 reversed $308 $-1 #
edge $-1 $616 0 $616 6.2831853071796004 $309 $617 forward 7 unknown #
vertex $-1 $312 $618 #
ellipse-curve $-1 26.224234567133564 -16.186344617003762 4.6021671724754931 0 -0.51503808176128008 0.85716729658548041 1 0 0 1 I I #
coedge $-1 $454 $454 $-1 $619 reversed $315 $-1 #
edge $-1 $620 0 $620 6.2831853071796004 $316 $621 forward 7 unknown #
vertex $-1 $319 $622 #
ellipse-curve $-1 30.447447932848277 -16.186344617003762 4.6021671724754931 0 -0.51503808176128008 0.85716729658548041 1 0 0 1 I I #
face $-1 $-1 $335 $48 $-1 $623 reversed single #
loop $-1 $-1 $474 $320 #
plane-surface $-1 0 21.63481671150139 0 0 -1 0 0 0 -1 forward_v I I I I #
coedge $-1 $624 $472 $475 $625 forward $321 $-1 #
coedge $-1 $478 $323 $324 $466 reversed $203 $-1 #
coedge $-1 $472 $624 $323 $464 reversed $321 $-1 #
edge $-1 $479 -7.8759395472012796 $626 7.8759395472012796 $463 $627 forward 7 unknown #
coedge $-1 $325 $324 $624 $628 forward $129 $-1 #
edge $-1 $470 -41.590624713888971 $626 41.590624713888971 $462 $629 forward 7 unknown #
coedge $-1 $475 $474 $325 $468 reversed $459 $-1 #
edge $-1 $630 -41.590624713888971 $469 41.590624713888971 $467 $631 forward 7 unknown #
vertex $-1 $327 $632 #
vertex $-1 $481 $633 #
straight-curve $-1 41.590624713888971 0 -7.8759395472012796 0 -1 0 I I #
coedge $-1 $461 $463 $328 $473 reversed $321 $-1 #
edge $-1 $476 -21.63481671150139 $479 21.63481671150139 $472 $634 forward 7 unknown #
coedge $-1 $467 $329 $334 $482 forward $459 $-1 #
coedge $-1 $329 $467 $461 $625 reversed $459 $-1 #
vertex $-1 $330 $635 #
straight-curve $-1 0 21.63481671150139 7.8759395472012796 -1 0 0 I I #
coedge $-1 $331 $462 $333 $481 reversed $203 $-1 #
vertex $-1 $473 $636 #
straight-curve $-1 0 -21.63481671150139 7.8759395472012796 1 0 0 I I #
edge $-1 $336 -7.8759395472012796 $470 7.8759395472012796 $333 $637 forward 7 unknown #
edge $-1 $337 -7.8759395472012796 $469 7.8759395472012796 $334 $638 forward 7 unknown #
point $-1 41.590624713888971 -21.63481671150139 7.8759395472012796 #
point $-1 41.590624713888971 21.63481671150139 7.8759395472012796 #
face $-1 $-1 $502 $49 $-1 $639 reversed single #
loop $-1 $-1 $640 $339 #
plane-surface $-1 -41.590624713888971 0 0 1 0 0 0 0 -1 forward_v I I I I #
coedge $-1 $489 $505 $343 $492 forward $340 $-1 #
coedge $-1 $350 $488 $342 $490 forward $340 $-1 #
edge $-1 $496 -3.6714233157237279 $353 0.75609161232452227 $489 $641 forward 7 unknown #
coedge $-1 $344 $343 $640 $642 reversed $133 $-1 #
edge $-1 $643 -23.028313197541046 $496 -14.096309835154806 $488 $644 forward 7 unknown #
coedge $-1 $501 $500 $344 $494 forward $502 $-1 #
edge $-1 $495 14.096309835154806 $645 23.028313197541046 $493 $646 forward 7 unknown #
vertex $-1 $494 $647 #
vertex $-1 $492 $648 #
straight-curve $-1 -32.658621351502731 0 -5.1290891674233308 0 -1 0 I I #
coedge $-1 $649 $650 $347 $499 forward $486 $-1 #
edge $-1 $506 -21.63481671150139 $503 21.63481671150139 $498 $651 forward 7 unknown #
coedge $-1 $493 $348 $352 $508 forward $502 $-1 #
coedge $-1 $348 $493 $649 $652 reversed $502 $-1 #
loop $-1 $-1 $493 $485 #
vertex $-1 $652 $653 #
straight-curve $-1 -18.562311516347926 21.63481671150139 -0.70157423937508057 1 0 0 I I #
coedge $-1 $488 $350 $650 $654 forward $340 $-1 #
vertex $-1 $654 $655 #
straight-curve $-1 -18.562311516347926 -21.63481671150139 -0.70157423937508057 -1 0 0 I I #
edge $-1 $354 -0.75609161232452227 $495 3.6714233157237279 $500 $656 forward 7 unknown #
point $-1 -32.658621351502731 -21.63481671150139 -0.70157423937508057 #
point $-1 -32.658621351502731 21.63481671150139 -0.70157423937508057 #
loop $-1 $-1 $364 $356 #
plane-surface $-1 0 21.63481671150139 0 0 -1 0 0 0 -1 forward_v I I I I #
coedge $-1 $514 $359 $361 $518 reversed $219 $-1 #
coedge $-1 $359 $513 $657 $658 reversed $219 $-1 #
coedge $-1 $367 $362 $359 $516 forward $357 $-1 #
edge $-1 $519 -4.8458701679422127 $659 3.8739864747336945 $515 $660 forward 7 unknown #
coedge $-1 $361 $360 $522 $661 reversed $137 $-1 #
edge $-1 $662 -43.269633423002773 $519 -32.49129778591535 $513 $663 forward 7 unknown #
vertex $-1 $363 $664 #
straight-curve $-1 -12.810781419526679 12.914960068825476 7.8759395472012805 1 0 0 I I #
coedge $-1 $657 $364 $367 $526 reversed $511 $-1 #
coedge $-1 $364 $657 $517 $661 forward $511 $-1 #
vertex $-1 $365 $665 #
straight-curve $-1 -29.957905072525705 21.63481671150139 47.1344447020914 0 0 1 I I #
straight-curve $-1 -29.957905072525705 -13.371051832009584 26.973845457593256 0 0.80901698891910034 -0.5877852598018023 I I #
edge $-1 $659 21.28522060558101 $368 29.957905072525705 $521 $666 forward 7 unknown #
point $-1 -29.957905072525705 21.63481671150139 7.8759395472012796 #
point $-1 -29.957905072525705 12.914960068825483 7.8759395472012805 #
edge $-1 $667 1 $667 0 $371 $-1 forward 7 unknown #
vertex $-1 $372 $668 #
ellipse-curve $-1 -28.223368179136767 16.149607978774029 3.1594505573982961 0 0.5877852598018023 0.80901698891910034 0.5 0 0 1 I I #
point $-1 -27.723368179136767 17.274888390163444 4.7082661408630511 #
edge $-1 $669 1 $669 0 $375 $-1 forward 7 unknown #
vertex $-1 $376 $670 #
ellipse-curve $-1 -25.621562839053357 16.149607978774029 3.1594505573982961 0 0.5877852598018023 0.80901698891910034 0.5 0 0 1 I I #
point $-1 -25.121562839053357 17.274888390163444 4.7082661408630511 #
edge $-1 $671 1 $671 0 $379 $-1 forward 7 unknown #
vertex $-1 $380 $672 #
ellipse-curve $-1 -23.019757498969948 16.149607978774029 3.1594505573982961 0 0.5877852598018023 0.80901698891910034 0.5 0 0 1 I I #
point $-1 -22.519757498969948 17.274888390163444 4.7082661408630511 #
loop $-1 $-1 $391 $383 #
plane-surface $-1 0 21.63481671150139 0 0 -1 0 0 0 -1 forward_v I I I I #
coedge $-1 $544 $386 $388 $548 reversed $248 $-1 #
coedge $-1 $386 $543 $673 $674 reversed $248 $-1 #
coedge $-1 $394 $389 $386 $546 forward $384 $-1 #
edge $-1 $549 -4.8458701679422127 $675 3.8739864747336945 $545 $676 forward 7 unknown #
coedge $-1 $388 $387 $552 $677 reversed $156 $-1 #
edge $-1 $678 -43.269633423002773 $549 -32.49129778591535 $543 $679 forward 7 unknown #
vertex $-1 $390 $680 #
straight-curve $-1 5.7515300968212486 12.914960068825476 7.8759395472012805 1 0 0 I I #
coedge $-1 $673 $391 $394 $556 reversed $541 $-1 #
coedge $-1 $391 $673 $547 $677 forward $541 $-1 #
vertex $-1 $392 $681 #
straight-curve $-1 7.1667179601701489 21.63481671150139 47.1344447020914 0 0 1 I I #
straight-curve $-1 7.1667179601701489 -13.371051832009584 26.973845457593256 0 0.80901698891910034 -0.5877852598018023 I I #
edge $-1 $675 -15.839402427114845 $395 -7.1667179601701489 $551 $682 forward 7 unknown #
point $-1 7.1667179601701489 21.63481671150139 7.8759395472012796 #
point $-1 7.1667179601701489 12.914960068825483 7.8759395472012805 #
edge $-1 $683 1 $683 0 $398 $-1 forward 7 unknown #
vertex $-1 $399 $684 #
ellipse-curve $-1 8.901254853559081 16.149607978774029 3.1594505573982961 0 0.5877852598018023 0.80901698891910034 0.5 0 0 1 I I #
point $-1 9.401254853559081 17.274888390163444 4.7082661408630511 #
edge $-1 $685 1 $685 0 $402 $-1 forward 7 unknown #
vertex $-1 $403 $686 #
ellipse-curve $-1 11.503060193642497 16.149607978774029 3.1594505573982961 0 0.5877852598018023 0.80901698891910034 0.5 0 0 1 I I #
point $-1 12.003060193642497 17.274888390163444 4.7082661408630511 #
edge $-1 $687 1 $687 0 $406 $-1 forward 7 unknown #
vertex $-1 $407 $688 #
ellipse-curve $-1 14.104865533725899 16.149607978774029 3.1594505573982961 0 0.5877852598018023 0.80901698891910034 0.5 0 0 1 I I #
point $-1 14.604865533725899 17.274888390163444 4.7082661408630511 #
plane-surface $-1 0 0 7.8759395472012796 0 0 1 1 0 0 forward_v I I I I #
coedge $-1 $582 $581 $574 $689 forward $411 $-1 #
coedge $-1 $574 $413 $415 $578 reversed $277 $-1 #
coedge $-1 $413 $573 $572 $689 reversed $277 $-1 #
coedge $-1 $421 $416 $413 $576 forward $422 $-1 #
edge $-1 $579 -21.500291405139237 $690 -10.603347216143963 $575 $691 forward 7 unknown #
coedge $-1 $415 $414 $582 $692 reversed $175 $-1 #
edge $-1 $693 -1.24522913329939e-014 $579 12.7127390795276 $573 $694 forward 7 unknown #
vertex $-1 $417 $695 #
straight-curve $-1 -9.7019189438023439 -10.737872522506116 7.8759395472012796 -1 0 0 I I #
coedge $-1 $572 $418 $421 $586 reversed $411 $-1 #
coedge $-1 $418 $572 $577 $692 forward $411 $-1 #
vertex $-1 $419 $696 #
straight-curve $-1 -14.476755627604197 -21.63481671150139 36.314320748180343 0 0 1 I I #
straight-curve $-1 -14.476755627604197 -21.634816711501379 1.3283947977497235 0 -0.85716729658548041 -0.51503808176128008 I I #
edge $-1 $690 -24.330920147605177 $423 -14.476755627604197 $581 $697 forward 7 unknown #
point $-1 -14.476755627604197 -21.63481671150139 7.8759395472012796 #
point $-1 -14.476755627604197 -10.737872522506118 7.8759395472012796 #
edge $-1 $698 1 $698 0 $426 $-1 forward 7 unknown #
vertex $-1 $427 $699 #
ellipse-curve $-1 -21.515444570462041 -14.833275273082871 2.3502816659607904 0 -0.51503808176128008 0.85716729658548041 1 0 0 1 I I #
point $-1 -20.515444570462041 -16.186344617003776 4.6021671724755127 #
edge $-1 $700 1 $700 0 $430 $-1 forward 7 unknown #
vertex $-1 $431 $701 #
ellipse-curve $-1 -17.292231204747335 -14.833275273082871 2.3502816659607904 0 -0.51503808176128008 0.85716729658548041 1 0 0 1 I I #
point $-1 -16.292231204747335 -16.186344617003776 4.6021671724755127 #
plane-surface $-1 0 0 7.8759395472012796 0 0 1 1 0 0 forward_v I I I I #
coedge $-1 $608 $607 $600 $702 forward $435 $-1 #
coedge $-1 $600 $437 $439 $604 reversed $299 $-1 #
coedge $-1 $437 $599 $598 $702 reversed $299 $-1 #
coedge $-1 $445 $440 $437 $602 forward $446 $-1 #
edge $-1 $605 -21.500291405139237 $703 -10.603347216143963 $601 $704 forward 7 unknown #
coedge $-1 $439 $438 $608 $705 reversed $189 $-1 #
edge $-1 $706 -1.24522913329939e-014 $605 12.7127390795276 $599 $707 forward 7 unknown #
vertex $-1 $441 $708 #
straight-curve $-1 14.16792062499546 -10.737872522506116 7.8759395472012796 -1 0 0 I I #
coedge $-1 $598 $442 $445 $612 reversed $435 $-1 #
coedge $-1 $442 $598 $603 $705 forward $435 $-1 #
vertex $-1 $443 $709 #
straight-curve $-1 33.26292350999141 -21.63481671150139 36.314320748180343 0 0 1 I I #
straight-curve $-1 33.26292350999141 -21.634816711501379 1.3283947977497235 0 -0.85716729658548041 -0.51503808176128008 I I #
edge $-1 $703 23.408758989990432 $447 33.26292350999141 $607 $710 forward 7 unknown #
point $-1 33.26292350999141 -21.63481671150139 7.8759395472012796 #
point $-1 33.26292350999141 -10.737872522506118 7.8759395472012796 #
edge $-1 $711 1 $711 0 $450 $-1 forward 7 unknown #
vertex $-1 $451 $712 #
ellipse-curve $-1 26.224234567133564 -14.833275273082871 2.3502816659607904 0 -0.51503808176128008 0.85716729658548041 1 0 0 1 I I #
point $-1 27.224234567133564 -16.186344617003776 4.6021671724755127 #
edge $-1 $713 1 $713 0 $454 $-1 forward 7 unknown #
vertex $-1 $455 $714 #
ellipse-curve $-1 30.447447932848277 -14.833275273082871 2.3502816659607904 0 -0.51503808176128008 0.85716729658548041 1 0 0 1 I I #
point $-1 31.447447932848277 -16.186344617003776 4.6021671724755127 #
plane-surface $-1 41.590624713888971 0 0 -1 0 0 0 0 1 forward_v I I I I #
coedge $-1 $463 $461 $465 $628 reversed $321 $-1 #
edge $-1 $476 -7.8759395472012796 $630 7.8759395472012796 $475 $715 forward 7 unknown #
vertex $-1 $628 $716 #
straight-curve $-1 -41.590624713888971 -21.63481671150139 0 0 0 -1 I I #
edge $-1 $626 -21.63481671150139 $630 21.63481671150139 $624 $717 forward 7 unknown #
straight-curve $-1 0 -21.63481671150139 -7.8759395472012796 -1 0 0 I I #
vertex $-1 $468 $718 #
straight-curve $-1 0 21.63481671150139 -7.8759395472012796 1 0 0 I I #
point $-1 41.590624713888971 21.63481671150139 -7.8759395472012796 #
point $-1 41.590624713888971 -21.63481671150139 -7.8759395472012796 #
straight-curve $-1 -41.590624713888971 0 7.8759395472012796 0 -1 0 I I #
point $-1 -41.590624713888971 21.63481671150139 7.8759395472012796 #
point $-1 -41.590624713888971 -21.63481671150139 7.8759395472012796 #
straight-curve $-1 41.590624713888971 -21.63481671150139 0 0 0 -1 I I #
straight-curve $-1 41.590624713888971 21.63481671150139 0 0 0 -1 I I #
plane-surface $-1 0 21.63481671150139 0 0 -1 0 0 0 -1 forward_v I I I I #
coedge $-1 $650 $649 $491 $642 forward $486 $-1 #
straight-curve $-1 -32.658621351502731 -21.63481671150139 -1.4576658516996028 0 0 1 I I #
edge $-1 $645 -21.63481671150139 $643 21.63481671150139 $640 $719 forward 7 unknown #
vertex $-1 $492 $720 #
straight-curve $-1 -18.562311516347926 -21.63481671150139 -5.1290891674233308 1 0 0 I I #
vertex $-1 $494 $721 #
straight-curve $-1 -18.562311516347926 21.63481671150139 -5.1290891674233308 -1 0 0 I I #
point $-1 -32.658621351502731 21.63481671150139 -5.1290891674233308 #
point $-1 -32.658621351502731 -21.63481671150139 -5.1290891674233308 #
coedge $-1 $640 $498 $501 $652 forward $486 $-1 #
coedge $-1 $498 $640 $505 $654 reversed $486 $-1 #
straight-curve $-1 -41.590624713888971 0 -0.70157423937508057 0 1 0 I I #
edge $-1 $503 0.70157423937508057 $645 5.1290891674233308 $501 $722 forward 7 unknown #
point $-1 -41.590624713888971 21.63481671150139 -0.70157423937508057 #
edge $-1 $506 0.70157423937508057 $643 5.1290891674233308 $650 $723 forward 7 unknown #
point $-1 -41.590624713888971 -21.63481671150139 -0.70157423937508057 #
straight-curve $-1 -32.658621351502731 21.63481671150139 -1.4576658516996028 0 0 -1 I I #
coedge $-1 $522 $521 $514 $658 forward $511 $-1 #
edge $-1 $659 39.258505154890123 $662 45.593851967566579 $657 $724 forward 7 unknown #
vertex $-1 $526 $725 #
straight-curve $-1 -21.28522060558101 17.760830236767696 7.875939547201277 0 1 0 I I #
edge $-1 $662 8.4744391860543313 $523 17.147123652999028 $522 $726 forward 7 unknown #
vertex $-1 $661 $727 #
straight-curve $-1 -21.28522060558101 -13.371051832009584 26.973845457593256 0 -0.80901698891910034 0.5877852598018023 I I #
point $-1 -21.28522060558101 12.914960068825483 7.8759395472012805 #
point $-1 -29.957905072525705 21.634816711501387 1.5405927345248251 #
straight-curve $-1 0 21.63481671150139 7.8759395472012796 -1 0 0 I I #
vertex $-1 $529 $728 #
point $-1 -27.723368179136767 16.149607978774029 3.1594505573982961 #
vertex $-1 $533 $729 #
point $-1 -25.121562839053357 16.149607978774029 3.1594505573982961 #
vertex $-1 $537 $730 #
point $-1 -22.519757498969948 16.149607978774029 3.1594505573982961 #
coedge $-1 $552 $551 $544 $674 forward $541 $-1 #
edge $-1 $675 39.258505154890123 $678 45.593851967566579 $673 $731 forward 7 unknown #
vertex $-1 $556 $732 #
straight-curve $-1 15.839402427114845 17.760830236767696 7.875939547201277 0 1 0 I I #
edge $-1 $678 -10.087872330293596 $553 -1.4151878633489003 $552 $733 forward 7 unknown #
vertex $-1 $677 $734 #
straight-curve $-1 15.839402427114845 -13.371051832009584 26.973845457593256 0 -0.80901698891910034 0.5877852598018023 I I #
point $-1 15.839402427114845 12.914960068825483 7.8759395472012805 #
point $-1 7.1667179601701489 21.634816711501387 1.5405927345248251 #
straight-curve $-1 0 21.63481671150139 7.8759395472012796 -1 0 0 I I #
vertex $-1 $559 $735 #
point $-1 9.401254853559081 16.149607978774029 3.1594505573982961 #
vertex $-1 $563 $736 #
point $-1 12.003060193642497 16.149607978774029 3.1594505573982961 #
vertex $-1 $567 $737 #
point $-1 14.604865533725899 16.149607978774029 3.1594505573982961 #
edge $-1 $690 28.438381200979062 $693 34.985925950430627 $572 $738 forward 7 unknown #
vertex $-1 $586 $739 #
straight-curve $-1 -24.330920147605177 -32.238163927645353 7.875939547201277 0 -1 0 I I #
edge $-1 $693 -14.629001203802833 $583 -4.774836683801853 $582 $740 forward 7 unknown #
vertex $-1 $692 $741 #
straight-curve $-1 -24.330920147605177 -21.634816711501379 1.3283947977497235 0 0.85716729658548041 0.51503808176128008 I I #
point $-1 -24.330920147605177 -10.737872522506118 7.8759395472012796 #
point $-1 -14.476755627604197 -21.63481671150139 1.328394797749717 #
straight-curve $-1 0 -21.63481671150139 7.8759395472012796 1 0 0 I I #
vertex $-1 $589 $742 #
point $-1 -20.515444570462041 -14.833275273082871 2.3502816659607904 #
vertex $-1 $593 $743 #
point $-1 -16.292231204747335 -14.833275273082871 2.3502816659607904 #
edge $-1 $703 28.438381200979062 $706 34.985925950430627 $598 $744 forward 7 unknown #
vertex $-1 $612 $745 #
straight-curve $-1 23.408758989990432 -32.238163927645353 7.875939547201277 0 -1 0 I I #
edge $-1 $706 9.2408383649949712 $609 19.095002884995949 $608 $746 forward 7 unknown #
vertex $-1 $705 $747 #
straight-curve $-1 23.408758989990432 -21.634816711501379 1.3283947977497235 0 0.85716729658548041 0.51503808176128008 I I #
point $-1 23.408758989990432 -10.737872522506118 7.8759395472012796 #
point $-1 33.26292350999141 -21.63481671150139 1.328394797749717 #
straight-curve $-1 0 -21.63481671150139 7.8759395472012796 1 0 0 I I #
vertex $-1 $615 $748 #
point $-1 27.224234567133564 -14.833275273082871 2.3502816659607904 #
vertex $-1 $619 $749 #
point $-1 31.447447932848277 -14.833275273082871 2.3502816659607904 #
straight-curve $-1 -41.590624713888971 21.63481671150139 0 0 0 -1 I I #
point $-1 -41.590624713888971 -21.63481671150139 -7.8759395472012796 #
straight-curve $-1 -41.590624713888971 0 -7.8759395472012796 0 1 0 I I #
point $-1 -41.590624713888971 21.63481671150139 -7.8759395472012796 #
straight-curve $-1 -41.590624713888971 0 -5.1290891674233308 0 -1 0 I I #
point $-1 -41.590624713888971 -21.63481671150139 -5.1290891674233308 #
point $-1 -41.590624713888971 21.63481671150139 -5.1290891674233308 #
straight-curve $-1 -41.590624713888971 21.63481671150139 0 0 0 -1 I I #
straight-curve $-1 -41.590624713888971 -21.63481671150139 0 0 0 -1 I I #
straight-curve $-1 -21.28522060558101 21.63481671150139 47.1344447020914 0 0 -1 I I #
point $-1 -21.28522060558101 21.63481671150139 7.8759395472012796 #
straight-curve $-1 -12.810781419526679 21.63481671150139 1.5405927345248198 -1 0 0 I I #
point $-1 -21.28522060558101 21.634816711501387 1.5405927345248251 #
point $-1 -28.223368179136767 15.855715348873126 2.7549420629387456 #
point $-1 -25.621562839053357 15.855715348873126 2.7549420629387456 #
point $-1 -23.019757498969948 15.855715348873126 2.7549420629387456 #
straight-curve $-1 15.839402427114845 21.63481671150139 47.1344447020914 0 0 -1 I I #
point $-1 15.839402427114845 21.63481671150139 7.8759395472012796 #
straight-curve $-1 5.7515300968212486 21.63481671150139 1.5405927345248198 -1 0 0 I I #
point $-1 15.839402427114845 21.634816711501387 1.5405927345248251 #
point $-1 8.901254853559081 15.855715348873126 2.7549420629387456 #
point $-1 11.503060193642497 15.855715348873126 2.7549420629387456 #
point $-1 14.104865533725899 15.855715348873126 2.7549420629387456 #
straight-curve $-1 -24.330920147605177 -21.63481671150139 36.314320748180343 0 0 -1 I I #
point $-1 -24.330920147605177 -21.63481671150139 7.8759395472012796 #
straight-curve $-1 -9.7019189438023439 -21.63481671150139 1.3283947977497188 1 0 0 I I #
point $-1 -24.330920147605177 -21.63481671150139 1.328394797749717 #
point $-1 -21.515444570462041 -14.318237191321591 1.4931143693753102 #
point $-1 -17.292231204747335 -14.318237191321591 1.4931143693753102 #
straight-curve $-1 23.408758989990432 -21.63481671150139 36.314320748180343 0 0 -1 I I #
point $-1 23.408758989990432 -21.63481671150139 7.8759395472012796 #
straight-curve $-1 14.16792062499546 -21.63481671150139 1.3283947977497188 1 0 0 I I #
point $-1 23.408758989990432 -21.63481671150139 1.328394797749717 #
point $-1 26.224234567133564 -14.318237191321591 1.4931143693753102 #
point $-1 30.447447932848277 -14.318237191321591 1.4931143693753102 #
End-of-ACIS-data 