500 0 10 0           
7 Unknown 11 ACIS 5.0 NT 24 Thu Mar 25 21:57:47 1999 
-1 9.9999999999999995e-007 1e-010 
body $-1 $10 $-1 $11 #
body $-1 $12 $-1 $13 #
body $-1 $14 $-1 $15 #
body $-1 $16 $-1 $17 #
body $-1 $18 $-1 $19 #
body $-1 $20 $-1 $21 #
body $-1 $22 $-1 $23 #
body $-1 $24 $-1 $25 #
body $-1 $26 $-1 $27 #
body $-1 $28 $-1 $29 #
lump $-1 $-1 $30 $0 #
transform $-1 1 0 0 0 1 0 0 0 1 76.087527085177157 48.488005594766371 18.496826793203564 1 rotate no_reflect no_shear #
lump $-1 $-1 $31 $1 #
transform $-1 1 0 0 0 1 0 0 0 1 76.087527085177157 48.488005594766371 18.496826793203564 1 rotate no_reflect no_shear #
lump $-1 $-1 $32 $2 #
transform $-1 1 0 0 0 1 0 0 0 1 76.087527085177157 48.488005594766371 18.496826793203564 1 rotate no_reflect no_shear #
lump $-1 $-1 $33 $3 #
transform $-1 1 0 0 0 1 0 0 0 1 76.087527085177157 48.488005594766371 18.496826793203564 1 rotate no_reflect no_shear #
lump $-1 $-1 $34 $4 #
transform $-1 1 0 0 0 1 0 0 0 1 76.087527085177157 48.488005594766371 18.496826793203564 1 rotate no_reflect no_shear #
lump $-1 $-1 $35 $5 #
transform $-1 1 0 0 0 1 0 0 0 1 76.087527085177157 48.488005594766371 18.496826793203564 1 rotate no_reflect no_shear #
lump $-1 $-1 $36 $6 #
transform $-1 1 0 0 0 1 0 0 0 1 76.087527085177157 48.488005594766371 18.496826793203564 1 rotate no_reflect no_shear #
lump $-1 $-1 $37 $7 #
transform $-1 1 0 0 0 1 0 0 0 1 76.087527085177157 48.488005594766371 18.496826793203564 1 rotate no_reflect no_shear #
lump $-1 $-1 $38 $8 #
transform $-1 1 0 0 0 1 0 0 0 1 76.087527085177157 48.488005594766371 18.496826793203564 1 rotate no_reflect no_shear #
lump $-1 $-1 $39 $9 #
transform $-1 1 0 0 0 1 0 0 0 1 76.087527085177157 48.488005594766371 18.496826793203564 1 rotate no_reflect no_shear #
shell $-1 $-1 $-1 $40 $-1 $10 #
shell $-1 $-1 $-1 $41 $-1 $12 #
shell $-1 $-1 $-1 $42 $-1 $14 #
shell $-1 $-1 $-1 $43 $-1 $16 #
shell $-1 $-1 $-1 $44 $-1 $18 #
shell $-1 $-1 $-1 $45 $-1 $20 #
shell $-1 $-1 $-1 $46 $-1 $22 #
shell $-1 $-1 $-1 $47 $-1 $24 #
shell $-1 $-1 $-1 $48 $-1 $26 #
shell $-1 $-1 $-1 $49 $-1 $28 #
face $-1 $50 $51 $30 $-1 $52 forward single #
face $-1 $53 $54 $31 $-1 $55 forward single #
face $-1 $56 $57 $32 $-1 $58 forward single #
face $-1 $59 $60 $33 $-1 $61 reversed single #
face $-1 $62 $63 $34 $-1 $64 forward single #
face $-1 $65 $66 $35 $-1 $67 forward single #
face $-1 $68 $69 $36 $-1 $70 reversed single #
face $-1 $71 $72 $37 $-1 $73 forward single #
face $-1 $74 $75 $38 $-1 $76 forward single #
face $-1 $77 $78 $39 $-1 $79 forward single #
face $-1 $80 $81 $30 $-1 $82 reversed single #
loop $-1 $-1 $83 $40 #
plane-surface $-1 0 0 18.496826793203564 0 0 1 1 0 0 forward_v I I I I #
face $-1 $84 $85 $31 $-1 $86 reversed single #
loop $-1 $-1 $87 $41 #
plane-surface $-1 -68.432204900295687 0 10.853271042165099 0 0 1 1 0 0 forward_v I I I I #
face $-1 $88 $89 $32 $-1 $90 reversed single #
loop $-1 $-1 $91 $42 #
plane-surface $-1 76.087527085177157 0 0 -1 0 0 0 0 1 forward_v I I I I #
face $-1 $92 $93 $33 $-1 $94 reversed single #
loop $-1 $-1 $95 $43 #
plane-surface $-1 -42.368532816505493 81.347380196802675 183.10749593808816 -1 0 0 0 0.68199836817093118 0.7313536940579346 forward_v I I I I #
face $-1 $96 $97 $34 $-1 $98 forward single #
loop $-1 $99 $100 $44 #
cone-surface $-1 -55.517354172868863 40.948603861320983 11.373190653059396 0 -0.68199836817093118 -0.7313536940579346 1.5 0 0 1 I I 0 1 1.5 forward I I I I #
face $-1 $101 $102 $35 $-1 $103 forward single #
loop $-1 $104 $105 $45 #
cone-surface $-1 -47.628061359050847 40.948603861320983 11.373190653059396 0 -0.68199836817093118 -0.7313536940579346 1.5 0 0 1 I I 0 1 1.5 forward I I I I #
face $-1 $106 $107 $36 $-1 $108 reversed single #
loop $-1 $-1 $109 $46 #
plane-surface $-1 32.872864044840391 -174.64684433625573 99.766282012351539 1 0 0 0 0.82903758062907751 -0.55919289150049634 forward_v I I I I #
face $-1 $110 $111 $37 $-1 $112 forward single #
loop $-1 $113 $114 $47 #
cone-surface $-1 37.071220352298823 -46.668666026519027 16.227075771159974 0 0.82903758062907751 -0.55919289150049634 0.5 0 0 1 I I 0 1 0.5 forward I I I I #
face $-1 $115 $116 $38 $-1 $117 forward single #
loop $-1 $118 $119 $48 #
cone-surface $-1 43.368754813486461 -46.668666026519027 16.227075771159974 0 0.82903758062907751 -0.55919289150049634 0.5 0 0 1 I I 0 1 0.5 forward I I I I #
face $-1 $120 $121 $39 $-1 $122 forward single #
loop $-1 $123 $124 $49 #
cone-surface $-1 49.666289274674099 -46.668666026519027 16.227075771159974 0 0.82903758062907751 -0.55919289150049634 0.5 0 0 1 I I 0 1 0.5 forward I I I I #
face $-1 $125 $126 $30 $-1 $127 reversed single #
loop $-1 $-1 $128 $50 #
plane-surface $-1 0 0 -18.496826793203564 0 0 1 1 0 0 forward_v I I I I #
coedge $-1 $129 $130 $131 $132 forward $51 $-1 #
face $-1 $133 $134 $31 $-1 $135 reversed single #
loop $-1 $-1 $136 $53 #
plane-surface $-1 -68.432204900295687 0 0.4671167964864491 0 0 1 1 0 0 forward_v I I I I #
coedge $-1 $137 $138 $139 $140 forward $54 $-1 #
face $-1 $141 $142 $32 $-1 $143 forward single #
loop $-1 $-1 $144 $56 #
plane-surface $-1 0 48.488005594766371 0 0 -1 0 0 0 -1 forward_v I I I I #
coedge $-1 $145 $146 $147 $148 forward $57 $-1 #
face $-1 $149 $150 $33 $-1 $151 forward single #
loop $-1 $-1 $152 $59 #
plane-surface $-1 -51.572707765959855 -22.435758423702026 71.813707927133223 0 0.68199836817093118 0.7313536940579346 1 0 0 forward_v I I I I #
coedge $-1 $153 $154 $155 $156 reversed $60 $-1 #
face $-1 $-1 $157 $34 $-1 $158 forward single #
loop $-1 $159 $160 $62 #
cone-surface $-1 -55.517354172868863 39.77190847436021 10.111339366900598 0 -0.68199836817093118 -0.7313536940579346 0.75 0 0 1 I I -0.70710678118654757 0.70710678118654757 0.75 forward I I I I #
loop $-1 $-1 $161 $44 #
coedge $-1 $100 $100 $162 $163 reversed $63 $-1 #
face $-1 $-1 $164 $35 $-1 $165 forward single #
loop $-1 $166 $167 $65 #
cone-surface $-1 -47.628061359050847 39.77190847436021 10.111339366900598 0 -0.68199836817093118 -0.7313536940579346 0.75 0 0 1 I I -0.70710678118654757 0.70710678118654757 0.75 forward I I I I #
loop $-1 $-1 $168 $45 #
coedge $-1 $105 $105 $169 $170 reversed $66 $-1 #
face $-1 $171 $172 $36 $-1 $173 reversed single #
loop $-1 $-1 $174 $68 #
plane-surface $-1 43.368754813486447 -48.488005594766378 14.671073456586441 0 -0.82903758062907751 0.55919289150049634 1 0 0 forward_v I I I I #
coedge $-1 $175 $176 $177 $178 reversed $69 $-1 #
face $-1 $-1 $179 $37 $-1 $180 forward single #
loop $-1 $181 $182 $71 #
cone-surface $-1 37.071220352298823 -45.932318627372375 15.730403194549826 0 0.82903758062907751 -0.55919289150049634 0.25 0 0 1 I I -0.70710678118654746 0.70710678118654746 0.25 forward I I I I #
loop $-1 $-1 $183 $47 #
coedge $-1 $114 $114 $184 $185 reversed $72 $-1 #
face $-1 $-1 $186 $38 $-1 $187 forward single #
loop $-1 $188 $189 $74 #
cone-surface $-1 43.368754813486461 -45.932318627372375 15.730403194549826 0 0.82903758062907751 -0.55919289150049634 0.25 0 0 1 I I -0.70710678118654746 0.70710678118654746 0.25 forward I I I I #
loop $-1 $-1 $190 $48 #
coedge $-1 $119 $119 $191 $192 reversed $75 $-1 #
face $-1 $-1 $193 $39 $-1 $194 forward single #
loop $-1 $195 $196 $77 #
cone-surface $-1 49.666289274674099 -45.932318627372375 15.730403194549826 0 0.82903758062907751 -0.55919289150049634 0.25 0 0 1 I I -0.70710678118654746 0.70710678118654746 0.25 forward I I I I #
loop $-1 $-1 $197 $49 #
coedge $-1 $124 $124 $198 $199 reversed $78 $-1 #
face $-1 $200 $201 $30 $-1 $202 reversed single #
loop $-1 $-1 $203 $80 #
plane-surface $-1 0 -48.488005594766371 0 0 1 0 0 0 1 forward_v I I I I #
coedge $-1 $204 $205 $206 $207 forward $81 $-1 #
coedge $-1 $208 $83 $209 $210 forward $51 $-1 #
coedge $-1 $83 $208 $211 $212 forward $51 $-1 #
coedge $-1 $213 $214 $83 $132 reversed $215 $-1 #
edge $-1 $216 -48.488005594766371 $217 48.488005594766371 $131 $218 forward 7 unknown #
face $-1 $219 $220 $31 $-1 $221 reversed single #
loop $-1 $-1 $222 $84 #
plane-surface $-1 -60.776882715414217 0 5.6601939193257742 -1 0 0 0 0 1 forward_v I I I I #
coedge $-1 $223 $224 $225 $226 forward $85 $-1 #
coedge $-1 $227 $87 $228 $229 reversed $54 $-1 #
coedge $-1 $87 $227 $230 $231 reversed $54 $-1 #
coedge $-1 $222 $232 $87 $140 reversed $134 $-1 #
edge $-1 $233 -48.488005594766371 $234 48.488005594766371 $139 $235 forward 7 unknown #
face $-1 $236 $237 $32 $-1 $238 reversed single #
loop $-1 $-1 $239 $88 #
plane-surface $-1 87.198967836699467 0 17.974814833187182 0 0 1 1 0 0 forward_v I I I I #
coedge $-1 $240 $241 $146 $242 forward $89 $-1 #
coedge $-1 $243 $91 $244 $245 reversed $57 $-1 #
coedge $-1 $91 $243 $144 $242 reversed $57 $-1 #
coedge $-1 $246 $247 $91 $148 reversed $237 $-1 #
edge $-1 $248 -48.488005594766371 $249 48.488005594766371 $147 $250 forward 7 unknown #
face $-1 $251 $252 $33 $-1 $253 reversed single #
loop $-1 $-1 $254 $92 #
plane-surface $-1 0 0 18.496826793203564 0 0 1 1 0 0 forward_v I I I I #
coedge $-1 $255 $256 $257 $258 reversed $93 $-1 #
coedge $-1 $154 $95 $259 $260 reversed $60 $-1 #
coedge $-1 $95 $153 $255 $261 reversed $60 $-1 #
coedge $-1 $257 $262 $95 $156 forward $252 $-1 #
edge $-1 $263 73.056921175840515 $264 85.877521424898177 $155 $265 forward 7 unknown #
loop $-1 $-1 $162 $96 #
plane-surface $-1 -51.572707765959855 -22.435758423702026 71.813707927133223 0 0.68199836817093118 0.7313536940579346 1 0 0 forward_v I I I I #
loop $-1 $-1 $266 $62 #
coedge $-1 $160 $160 $161 $267 reversed $97 $-1 #
coedge $-1 $161 $161 $160 $267 forward $99 $-1 #
coedge $-1 $162 $162 $100 $163 forward $157 $-1 #
edge $-1 $268 -1.3815028324797736e-015 $268 6.2831853071795987 $162 $269 forward 7 unknown #
loop $-1 $-1 $169 $101 #
plane-surface $-1 -51.572707765959855 -22.435758423702026 71.813707927133223 0 0.68199836817093118 0.7313536940579346 1 0 0 forward_v I I I I #
loop $-1 $-1 $270 $65 #
coedge $-1 $167 $167 $168 $271 reversed $102 $-1 #
coedge $-1 $168 $168 $167 $271 forward $104 $-1 #
coedge $-1 $169 $169 $105 $170 forward $164 $-1 #
edge $-1 $272 -1.3815028324797736e-015 $272 6.2831853071795987 $169 $273 forward 7 unknown #
face $-1 $274 $275 $36 $-1 $276 reversed single #
loop $-1 $-1 $277 $106 #
plane-surface $-1 53.864645582132503 -174.64684433625573 99.766282012351539 -1 0 0 0 -0.82903758062907751 0.55919289150049634 forward_v I I I I #
coedge $-1 $278 $279 $280 $281 reversed $107 $-1 #
coedge $-1 $176 $109 $282 $283 reversed $69 $-1 #
coedge $-1 $109 $175 $278 $284 reversed $69 $-1 #
coedge $-1 $280 $285 $109 $178 forward $275 $-1 #
edge $-1 $286 31.386314212972206 $287 35.212067549589321 $177 $288 forward 7 unknown #
loop $-1 $-1 $184 $110 #
plane-surface $-1 43.368754813486447 -48.488005594766378 14.671073456586441 0 -0.82903758062907751 0.55919289150049634 1 0 0 forward_v I I I I #
loop $-1 $-1 $289 $71 #
coedge $-1 $182 $182 $183 $290 reversed $111 $-1 #
coedge $-1 $183 $183 $182 $290 forward $113 $-1 #
coedge $-1 $184 $184 $114 $185 forward $179 $-1 #
edge $-1 $291 -3.834723672875115e-015 $291 6.2831853071795969 $184 $292 forward 7 unknown #
loop $-1 $-1 $191 $115 #
plane-surface $-1 43.368754813486447 -48.488005594766378 14.671073456586441 0 -0.82903758062907751 0.55919289150049634 1 0 0 forward_v I I I I #
loop $-1 $-1 $293 $74 #
coedge $-1 $189 $189 $190 $294 reversed $116 $-1 #
coedge $-1 $190 $190 $189 $294 forward $118 $-1 #
coedge $-1 $191 $191 $119 $192 forward $186 $-1 #
edge $-1 $295 -3.834723672875115e-015 $295 6.2831853071795969 $191 $296 forward 7 unknown #
loop $-1 $-1 $198 $120 #
plane-surface $-1 43.368754813486447 -48.488005594766378 14.671073456586441 0 -0.82903758062907751 0.55919289150049634 1 0 0 forward_v I I I I #
loop $-1 $-1 $297 $77 #
coedge $-1 $196 $196 $197 $298 reversed $121 $-1 #
coedge $-1 $197 $197 $196 $298 forward $123 $-1 #
coedge $-1 $198 $198 $124 $199 forward $193 $-1 #
edge $-1 $299 -3.834723672875115e-015 $299 6.2831853071795969 $198 $300 forward 7 unknown #
face $-1 $301 $302 $30 $-1 $303 reversed single #
loop $-1 $-1 $304 $125 #
plane-surface $-1 -76.087527085177157 0 0 1 0 0 0 0 -1 forward_v I I I I #
coedge $-1 $305 $211 $306 $307 forward $126 $-1 #
coedge $-1 $308 $128 $305 $309 forward $81 $-1 #
coedge $-1 $128 $308 $310 $311 forward $81 $-1 #
coedge $-1 $214 $213 $128 $207 reversed $215 $-1 #
edge $-1 $312 -48.488005594766371 $313 48.488005594766371 $206 $314 forward 7 unknown #
coedge $-1 $130 $129 $315 $316 forward $51 $-1 #
coedge $-1 $317 $318 $129 $210 reversed $302 $-1 #
edge $-1 $217 -76.087527085177157 $319 76.087527085177157 $209 $320 forward 7 unknown #
coedge $-1 $203 $321 $130 $212 reversed $126 $-1 #
edge $-1 $322 -76.087527085177157 $216 76.087527085177157 $211 $323 forward 7 unknown #
coedge $-1 $206 $131 $321 $324 forward $215 $-1 #
coedge $-1 $131 $206 $317 $325 reversed $215 $-1 #
loop $-1 $-1 $213 $301 #
vertex $-1 $132 $326 #
vertex $-1 $132 $327 #
straight-curve $-1 76.087527085177157 0 18.496826793203564 0 1 0 I I #
face $-1 $328 $329 $31 $-1 $330 reversed single #
loop $-1 $-1 $331 $133 #
plane-surface $-1 0 -48.488005594766371 0 0 1 0 0 0 1 forward_v I I I I #
coedge $-1 $225 $139 $332 $333 reversed $134 $-1 #
coedge $-1 $334 $136 $331 $335 reversed $85 $-1 #
coedge $-1 $136 $334 $336 $337 reversed $85 $-1 #
coedge $-1 $232 $222 $136 $226 reversed $134 $-1 #
edge $-1 $338 -48.488005594766371 $339 48.488005594766371 $225 $340 forward 7 unknown #
coedge $-1 $138 $137 $341 $342 reversed $54 $-1 #
coedge $-1 $343 $344 $137 $229 forward $345 $-1 #
edge $-1 $346 -41.871424635029314 $234 -26.560780265266374 $228 $347 forward 7 unknown #
coedge $-1 $348 $332 $138 $231 forward $220 $-1 #
edge $-1 $233 26.560780265266374 $349 41.871424635029314 $230 $350 forward 7 unknown #
coedge $-1 $139 $225 $343 $351 reversed $134 $-1 #
vertex $-1 $231 $352 #
vertex $-1 $229 $353 #
straight-curve $-1 -60.776882715414217 0 10.853271042165099 0 1 0 I I #
face $-1 $354 $355 $32 $-1 $356 reversed single #
loop $-1 $-1 $357 $141 #
plane-surface $-1 87.198967836699467 0 9.6323603989686646 0 0 1 1 0 0 forward_v I I I I #
coedge $-1 $358 $359 $360 $361 forward $142 $-1 #
coedge $-1 $362 $144 $358 $363 reversed $89 $-1 #
coedge $-1 $144 $362 $246 $364 reversed $89 $-1 #
edge $-1 $248 9.6323603989686646 $365 17.974814833187182 $144 $366 forward 7 unknown #
coedge $-1 $146 $145 $367 $368 forward $57 $-1 #
coedge $-1 $369 $370 $145 $245 forward $371 $-1 #
edge $-1 $372 -17.974814833187182 $249 -9.6323603989686646 $244 $373 forward 7 unknown #
coedge $-1 $357 $147 $241 $364 forward $237 $-1 #
coedge $-1 $147 $357 $369 $374 forward $237 $-1 #
vertex $-1 $242 $375 #
vertex $-1 $245 $376 #
straight-curve $-1 76.087527085177157 0 9.6323603989686646 0 -1 0 I I #
face $-1 $-1 $377 $33 $-1 $378 forward single #
loop $-1 $-1 $379 $149 #
plane-surface $-1 0 48.488005594766371 0 0 -1 0 0 0 -1 forward_v I I I I #
coedge $-1 $380 $381 $382 $383 forward $150 $-1 #
coedge $-1 $384 $152 $154 $261 forward $93 $-1 #
coedge $-1 $152 $384 $385 $386 forward $93 $-1 #
coedge $-1 $379 $155 $152 $258 forward $252 $-1 #
edge $-1 $264 16.582178933525565 $387 34.990528832434293 $257 $388 forward 7 unknown #
coedge $-1 $381 $380 $153 $260 forward $150 $-1 #
edge $-1 $389 -5.9340947488606091 $263 7.8143154963650332 $259 $390 forward 7 unknown #
edge $-1 $264 -96.976011189532784 $389 -78.177432120433892 $154 $391 forward 7 unknown #
coedge $-1 $155 $379 $381 $392 reversed $252 $-1 #
vertex $-1 $392 $393 #
vertex $-1 $156 $394 #
straight-curve $-1 -42.368532816505493 48.488005594766371 91.553747969044082 0 0 -1 I I #
coedge $-1 $266 $266 $-1 $395 reversed $159 $-1 #
edge $-1 $396 0 $396 6.2831853071796004 $160 $397 forward 7 unknown #
vertex $-1 $163 $398 #
ellipse-curve $-1 -55.517354172868863 41.613800472153549 12.086526668674733 0 0.68199836817093118 0.7313536940579346 1.5 0 0 1 I I #
coedge $-1 $270 $270 $-1 $399 reversed $166 $-1 #
edge $-1 $400 0 $400 6.2831853071796004 $167 $401 forward 7 unknown #
vertex $-1 $170 $402 #
ellipse-curve $-1 -47.628061359050847 41.613800472153549 12.086526668674733 0 0.68199836817093118 0.7313536940579346 1.5 0 0 1 I I #
face $-1 $-1 $403 $36 $-1 $404 forward single #
loop $-1 $-1 $177 $171 #
plane-surface $-1 0 -48.488005594766371 0 0 1 0 0 0 1 forward_v I I I I #
coedge $-1 $405 $406 $407 $408 reversed $172 $-1 #
coedge $-1 $409 $174 $176 $284 forward $107 $-1 #
coedge $-1 $174 $409 $405 $410 forward $107 $-1 #
coedge $-1 $407 $177 $174 $281 forward $275 $-1 #
edge $-1 $287 11.188486638097167 $411 32.18026817538928 $280 $412 forward 7 unknown #
coedge $-1 $413 $414 $175 $283 forward $403 $-1 #
edge $-1 $415 -41.415919701877399 $286 -38.835416573361492 $282 $416 forward 7 unknown #
edge $-1 $287 1.2809303928265426e-014 $415 4.6146922962335708 $176 $417 forward 7 unknown #
coedge $-1 $177 $407 $413 $418 reversed $275 $-1 #
vertex $-1 $418 $419 #
vertex $-1 $178 $420 #
straight-curve $-1 32.872864044840391 -48.488005594766371 49.883141006175769 0 0 -1 I I #
coedge $-1 $289 $289 $-1 $421 reversed $181 $-1 #
edge $-1 $422 0 $422 6.2831853071796004 $182 $423 forward 7 unknown #
vertex $-1 $185 $424 #
ellipse-curve $-1 37.071220352298823 -47.19775403050842 16.583950124895004 0 -0.82903758062907751 0.55919289150049634 0.5 0 0 1 I I #
coedge $-1 $293 $293 $-1 $425 reversed $188 $-1 #
edge $-1 $426 0 $426 6.2831853071796004 $189 $427 forward 7 unknown #
vertex $-1 $192 $428 #
ellipse-curve $-1 43.368754813486461 -47.19775403050842 16.583950124895004 0 -0.82903758062907751 0.55919289150049634 0.5 0 0 1 I I #
coedge $-1 $297 $297 $-1 $429 reversed $195 $-1 #
edge $-1 $430 0 $430 6.2831853071796004 $196 $431 forward 7 unknown #
vertex $-1 $199 $432 #
ellipse-curve $-1 49.666289274674099 -47.19775403050842 16.583950124895004 0 -0.82903758062907751 0.55919289150049634 0.5 0 0 1 I I #
face $-1 $-1 $215 $30 $-1 $433 reversed single #
loop $-1 $-1 $317 $200 #
plane-surface $-1 0 48.488005594766371 0 0 -1 0 0 0 -1 forward_v I I I I #
coedge $-1 $434 $315 $318 $435 forward $201 $-1 #
coedge $-1 $321 $203 $204 $309 reversed $126 $-1 #
coedge $-1 $315 $434 $203 $307 reversed $201 $-1 #
edge $-1 $322 -18.496826793203564 $436 18.496826793203564 $306 $437 forward 7 unknown #
coedge $-1 $205 $204 $434 $438 forward $81 $-1 #
edge $-1 $313 -76.087527085177157 $436 76.087527085177157 $305 $439 forward 7 unknown #
coedge $-1 $318 $317 $205 $311 reversed $302 $-1 #
edge $-1 $440 -76.087527085177157 $312 76.087527085177157 $310 $441 forward 7 unknown #
vertex $-1 $207 $442 #
vertex $-1 $324 $443 #
straight-curve $-1 76.087527085177157 0 -18.496826793203564 0 -1 0 I I #
coedge $-1 $304 $306 $208 $316 reversed $201 $-1 #
edge $-1 $319 -48.488005594766371 $322 48.488005594766371 $315 $444 forward 7 unknown #
coedge $-1 $310 $209 $214 $325 forward $302 $-1 #
coedge $-1 $209 $310 $304 $435 reversed $302 $-1 #
vertex $-1 $210 $445 #
straight-curve $-1 0 48.488005594766371 18.496826793203564 -1 0 0 I I #
coedge $-1 $211 $305 $213 $324 reversed $126 $-1 #
vertex $-1 $316 $446 #
straight-curve $-1 0 -48.488005594766371 18.496826793203564 1 0 0 I I #
edge $-1 $216 -18.496826793203564 $313 18.496826793203564 $213 $447 forward 7 unknown #
edge $-1 $217 -18.496826793203564 $312 18.496826793203564 $214 $448 forward 7 unknown #
point $-1 76.087527085177157 -48.488005594766371 18.496826793203564 #
point $-1 76.087527085177157 48.488005594766371 18.496826793203564 #
face $-1 $-1 $345 $31 $-1 $449 reversed single #
loop $-1 $-1 $450 $219 #
plane-surface $-1 -76.087527085177157 0 0 1 0 0 0 0 -1 forward_v I I I I #
coedge $-1 $332 $348 $223 $335 forward $220 $-1 #
coedge $-1 $230 $331 $222 $333 forward $220 $-1 #
edge $-1 $339 -2.362980163176438 $233 8.0231740825022122 $332 $451 forward 7 unknown #
coedge $-1 $224 $223 $450 $452 reversed $85 $-1 #
edge $-1 $453 -41.871424635029314 $339 -26.560780265266374 $331 $454 forward 7 unknown #
coedge $-1 $344 $343 $224 $337 forward $345 $-1 #
edge $-1 $338 26.560780265266374 $455 41.871424635029314 $336 $456 forward 7 unknown #
vertex $-1 $337 $457 #
vertex $-1 $335 $458 #
straight-curve $-1 -60.776882715414217 0 0.4671167964864491 0 -1 0 I I #
coedge $-1 $459 $460 $227 $342 forward $329 $-1 #
edge $-1 $349 -48.488005594766371 $346 48.488005594766371 $341 $461 forward 7 unknown #
coedge $-1 $336 $228 $232 $351 forward $345 $-1 #
coedge $-1 $228 $336 $459 $462 reversed $345 $-1 #
loop $-1 $-1 $336 $328 #
vertex $-1 $462 $463 #
straight-curve $-1 -34.216102450147844 48.488005594766371 10.853271042165099 1 0 0 I I #
coedge $-1 $331 $230 $460 $464 forward $220 $-1 #
vertex $-1 $464 $465 #
straight-curve $-1 -34.216102450147844 -48.488005594766371 10.853271042165099 -1 0 0 I I #
edge $-1 $234 -8.0231740825022122 $338 2.362980163176438 $343 $466 forward 7 unknown #
point $-1 -60.776882715414217 -48.488005594766371 10.853271042165099 #
point $-1 -60.776882715414217 48.488005594766371 10.853271042165099 #
face $-1 $-1 $371 $32 $-1 $467 reversed single #
loop $-1 $-1 $468 $236 #
plane-surface $-1 98.31040858822179 0 13.803587616077923 -1 0 0 0 0 1 forward_v I I I I #
coedge $-1 $247 $246 $469 $470 forward $237 $-1 #
coedge $-1 $367 $239 $240 $363 forward $142 $-1 #
coedge $-1 $239 $367 $370 $471 forward $142 $-1 #
coedge $-1 $468 $472 $239 $361 reversed $355 $-1 #
edge $-1 $473 -48.488005594766371 $474 48.488005594766371 $360 $475 forward 7 unknown #
coedge $-1 $241 $240 $472 $476 forward $89 $-1 #
edge $-1 $474 -11.111440751522323 $365 11.111440751522323 $240 $477 forward 7 unknown #
edge $-1 $248 -11.111440751522323 $478 11.111440751522323 $241 $479 forward 7 unknown #
vertex $-1 $363 $480 #
straight-curve $-1 76.087527085177157 48.488005594766371 0 0 0 1 I I #
coedge $-1 $359 $358 $243 $368 reversed $142 $-1 #
edge $-1 $372 -48.488005594766371 $365 48.488005594766371 $367 $481 forward 7 unknown #
coedge $-1 $482 $244 $247 $374 reversed $371 $-1 #
coedge $-1 $244 $482 $359 $471 reversed $371 $-1 #
loop $-1 $-1 $244 $354 #
vertex $-1 $245 $483 #
straight-curve $-1 76.087527085177157 -48.488005594766371 0 0 0 -1 I I #
edge $-1 $484 -11.111440751522323 $249 11.111440751522323 $369 $485 forward 7 unknown #
point $-1 76.087527085177143 48.488005594766371 9.6323603989686646 #
point $-1 76.087527085177143 -48.488005594766371 9.6323603989686646 #
loop $-1 $-1 $385 $251 #
plane-surface $-1 -60.776882715414217 0 5.6601939193257742 -1 0 0 0 0 1 forward_v I I I I #
coedge $-1 $262 $257 $486 $487 forward $252 $-1 #
coedge $-1 $259 $254 $384 $488 forward $150 $-1 #
coedge $-1 $254 $259 $262 $392 forward $150 $-1 #
coedge $-1 $486 $385 $254 $383 reversed $377 $-1 #
edge $-1 $489 -7.8143154963650332 $490 5.9340947488606091 $254 $491 forward 7 unknown #
coedge $-1 $256 $255 $380 $488 reversed $93 $-1 #
coedge $-1 $382 $486 $256 $386 reversed $377 $-1 #
edge $-1 $490 78.177432120433892 $387 96.976011189532784 $385 $492 forward 7 unknown #
vertex $-1 $487 $493 #
straight-curve $-1 -25.786353882979927 48.488005594766371 5.676226544145905 -1 0 0 I I #
vertex $-1 $260 $494 #
straight-curve $-1 -42.368532816505493 40.673690098401337 18.496826793203567 0 1 0 I I #
straight-curve $-1 -42.368532816505493 -22.435758423702026 71.813707927133223 0 -0.7313536940579346 0.68199836817093118 I I #
edge $-1 $263 42.368532816505493 $489 60.776882715414217 $262 $495 forward 7 unknown #
point $-1 -42.368532816505493 48.488005594766371 18.496826793203564 #
point $-1 -42.368532816505493 48.488005594766378 5.676226544145905 #
edge $-1 $496 1 $496 0 $266 $-1 forward 7 unknown #
vertex $-1 $267 $497 #
ellipse-curve $-1 -55.517354172868863 40.283407250488409 10.659854637444049 0 0.68199836817093118 0.7313536940579346 1.5 0 0 1 I I #
point $-1 -54.017354172868863 41.613800472153557 12.086526668674743 #
edge $-1 $498 1 $498 0 $270 $-1 forward 7 unknown #
vertex $-1 $271 $499 #
ellipse-curve $-1 -47.628061359050847 40.283407250488409 10.659854637444049 0 0.68199836817093118 0.7313536940579346 1.5 0 0 1 I I #
point $-1 -46.128061359050847 41.613800472153557 12.086526668674743 #
loop $-1 $-1 $282 $274 #
plane-surface $-1 0 0 18.496826793203564 0 0 1 1 0 0 forward_v I I I I #
coedge $-1 $406 $277 $279 $410 reversed $172 $-1 #
coedge $-1 $277 $405 $500 $501 reversed $172 $-1 #
coedge $-1 $285 $280 $277 $408 forward $275 $-1 #
edge $-1 $411 -35.212067549589321 $502 -31.386314212972206 $407 $503 forward 7 unknown #
coedge $-1 $279 $278 $414 $504 reversed $107 $-1 #
edge $-1 $505 -4.6146922962335708 $411 -1.2809303928265426e-014 $405 $506 forward 7 unknown #
vertex $-1 $281 $507 #
straight-curve $-1 21.684377406743224 -48.488005594766371 14.671073456586459 1 0 0 I I #
coedge $-1 $500 $282 $285 $418 forward $403 $-1 #
coedge $-1 $282 $500 $409 $504 forward $403 $-1 #
vertex $-1 $283 $508 #
straight-curve $-1 32.872864044840391 -87.323422168127863 18.496826793203567 0 -1 0 I I #
straight-curve $-1 32.872864044840391 -48.488005594766378 14.671073456586441 0 0.55919289150049634 0.82903758062907751 I I #
edge $-1 $286 32.872864044840391 $502 53.864645582132503 $285 $509 forward 7 unknown #
point $-1 32.872864044840391 -48.488005594766371 18.496826793203564 #
point $-1 32.872864044840391 -48.488005594766371 14.671073456586452 #
edge $-1 $510 1 $510 0 $289 $-1 forward 7 unknown #
vertex $-1 $290 $511 #
ellipse-curve $-1 37.071220352298823 -46.139578022529648 15.870201417424949 0 -0.82903758062907751 0.55919289150049634 0.5 0 0 1 I I #
point $-1 37.571220352298823 -47.197754030508413 16.583950124894997 #
edge $-1 $512 1 $512 0 $293 $-1 forward 7 unknown #
vertex $-1 $294 $513 #
ellipse-curve $-1 43.368754813486461 -46.139578022529648 15.870201417424949 0 -0.82903758062907751 0.55919289150049634 0.5 0 0 1 I I #
point $-1 43.868754813486461 -47.197754030508413 16.583950124894997 #
edge $-1 $514 1 $514 0 $297 $-1 forward 7 unknown #
vertex $-1 $298 $515 #
ellipse-curve $-1 49.666289274674099 -46.139578022529648 15.870201417424949 0 -0.82903758062907751 0.55919289150049634 0.5 0 0 1 I I #
point $-1 50.166289274674099 -47.197754030508413 16.583950124894997 #
plane-surface $-1 76.087527085177157 0 0 -1 0 0 0 0 1 forward_v I I I I #
coedge $-1 $306 $304 $308 $438 reversed $201 $-1 #
edge $-1 $319 -18.496826793203564 $440 18.496826793203564 $318 $516 forward 7 unknown #
vertex $-1 $438 $517 #
straight-curve $-1 -76.087527085177157 -48.488005594766371 0 0 0 -1 I I #
edge $-1 $436 -48.488005594766371 $440 48.488005594766371 $434 $518 forward 7 unknown #
straight-curve $-1 0 -48.488005594766371 -18.496826793203564 -1 0 0 I I #
vertex $-1 $311 $519 #
straight-curve $-1 0 48.488005594766371 -18.496826793203564 1 0 0 I I #
point $-1 76.087527085177157 48.488005594766371 -18.496826793203564 #
point $-1 76.087527085177157 -48.488005594766371 -18.496826793203564 #
straight-curve $-1 -76.087527085177157 0 18.496826793203564 0 -1 0 I I #
point $-1 -76.087527085177157 48.488005594766371 18.496826793203564 #
point $-1 -76.087527085177157 -48.488005594766371 18.496826793203564 #
straight-curve $-1 76.087527085177157 -48.488005594766371 0 0 0 -1 I I #
straight-curve $-1 76.087527085177157 48.488005594766371 0 0 0 -1 I I #
plane-surface $-1 0 48.488005594766371 0 0 -1 0 0 0 -1 forward_v I I I I #
coedge $-1 $460 $459 $334 $452 forward $329 $-1 #
straight-curve $-1 -60.776882715414217 -48.488005594766371 2.8300969596628871 0 0 1 I I #
edge $-1 $455 -48.488005594766371 $453 48.488005594766371 $450 $520 forward 7 unknown #
vertex $-1 $335 $521 #
straight-curve $-1 -34.216102450147844 -48.488005594766371 0.4671167964864491 1 0 0 I I #
vertex $-1 $337 $522 #
straight-curve $-1 -34.216102450147844 48.488005594766371 0.4671167964864491 -1 0 0 I I #
point $-1 -60.776882715414217 48.488005594766371 0.4671167964864491 #
point $-1 -60.776882715414217 -48.488005594766371 0.4671167964864491 #
coedge $-1 $450 $341 $344 $462 forward $329 $-1 #
coedge $-1 $341 $450 $348 $464 reversed $329 $-1 #
straight-curve $-1 -76.087527085177157 0 10.853271042165099 0 1 0 I I #
edge $-1 $346 -10.853271042165099 $455 -0.4671167964864491 $344 $523 forward 7 unknown #
point $-1 -76.087527085177157 48.488005594766371 10.853271042165099 #
edge $-1 $349 -10.853271042165099 $453 -0.4671167964864491 $460 $524 forward 7 unknown #
point $-1 -76.087527085177157 -48.488005594766371 10.853271042165099 #
straight-curve $-1 -60.776882715414217 48.488005594766371 2.8300969596628871 0 0 -1 I I #
plane-surface $-1 0 -48.488005594766371 0 0 1 0 0 0 1 forward_v I I I I #
coedge $-1 $469 $360 $482 $525 forward $355 $-1 #
coedge $-1 $472 $468 $357 $470 reversed $355 $-1 #
edge $-1 $478 -48.488005594766371 $484 48.488005594766371 $469 $526 forward 7 unknown #
edge $-1 $372 -11.111440751522323 $473 11.111440751522323 $370 $527 forward 7 unknown #
coedge $-1 $360 $469 $362 $476 reversed $355 $-1 #
vertex $-1 $361 $528 #
vertex $-1 $361 $529 #
straight-curve $-1 98.31040858822179 0 17.974814833187182 0 1 0 I I #
edge $-1 $474 -4.1712272171092586 $478 4.1712272171092586 $472 $530 forward 7 unknown #
straight-curve $-1 87.198967836699467 48.488005594766371 17.974814833187182 -1 0 0 I I #
vertex $-1 $470 $531 #
straight-curve $-1 87.198967836699467 48.488005594766371 9.6323603989686646 1 0 0 I I #
point $-1 76.087527085177143 48.488005594766371 17.974814833187182 #
straight-curve $-1 76.087527085177157 0 17.974814833187182 0 1 0 I I #
coedge $-1 $370 $369 $468 $525 reversed $371 $-1 #
point $-1 76.087527085177143 -48.488005594766371 17.974814833187182 #
vertex $-1 $525 $532 #
straight-curve $-1 87.198967836699467 -48.488005594766371 9.6323603989686646 -1 0 0 I I #
coedge $-1 $385 $382 $379 $487 reversed $377 $-1 #
edge $-1 $387 -85.877521424898177 $489 -73.056921175840515 $379 $533 forward 7 unknown #
edge $-1 $490 -34.990528832434293 $389 -16.582178933525565 $380 $534 forward 7 unknown #
vertex $-1 $383 $535 #
vertex $-1 $488 $536 #
straight-curve $-1 -60.776882715414217 40.673690098401337 18.496826793203567 0 -1 0 I I #
straight-curve $-1 -60.776882715414217 -22.435758423702026 71.813707927133223 0 0.7313536940579346 -0.68199836817093118 I I #
point $-1 -60.776882715414217 48.488005594766371 5.6762265441459085 #
point $-1 -42.368532816505493 34.739595349540728 18.496826793203567 #
straight-curve $-1 0 48.488005594766371 18.496826793203564 -1 0 0 I I #
vertex $-1 $395 $537 #
point $-1 -54.017354172868863 40.283407250488409 10.659854637444049 #
vertex $-1 $399 $538 #
point $-1 -46.128061359050847 40.283407250488409 10.659854637444049 #
coedge $-1 $414 $413 $406 $501 forward $403 $-1 #
edge $-1 $502 38.835416573361492 $505 41.415919701877399 $500 $539 forward 7 unknown #
vertex $-1 $501 $540 #
straight-curve $-1 53.864645582132503 -48.488005594766371 49.883141006175769 0 0 1 I I #
edge $-1 $505 -32.18026817538928 $415 -11.188486638097167 $414 $541 forward 7 unknown #
vertex $-1 $504 $542 #
straight-curve $-1 53.864645582132503 -48.488005594766378 14.671073456586441 0 -0.55919289150049634 -0.82903758062907751 I I #
point $-1 53.864645582132503 -48.488005594766371 14.671073456586452 #
point $-1 32.872864044840391 -45.907502466250463 18.496826793203564 #
straight-curve $-1 0 -48.488005594766371 18.496826793203564 1 0 0 I I #
vertex $-1 $421 $543 #
point $-1 37.571220352298823 -46.139578022529648 15.870201417424949 #
vertex $-1 $425 $544 #
point $-1 43.868754813486461 -46.139578022529648 15.870201417424949 #
vertex $-1 $429 $545 #
point $-1 50.166289274674099 -46.139578022529648 15.870201417424949 #
straight-curve $-1 -76.087527085177157 48.488005594766371 0 0 0 -1 I I #
point $-1 -76.087527085177157 -48.488005594766371 -18.496826793203564 #
straight-curve $-1 -76.087527085177157 0 -18.496826793203564 0 1 0 I I #
point $-1 -76.087527085177157 48.488005594766371 -18.496826793203564 #
straight-curve $-1 -76.087527085177157 0 0.4671167964864491 0 -1 0 I I #
point $-1 -76.087527085177157 -48.488005594766371 0.4671167964864491 #
point $-1 -76.087527085177157 48.488005594766371 0.4671167964864491 #
straight-curve $-1 -76.087527085177157 48.488005594766371 0 0 0 -1 I I #
straight-curve $-1 -76.087527085177157 -48.488005594766371 0 0 0 -1 I I #
edge $-1 $473 -4.1712272171092586 $484 4.1712272171092586 $468 $546 forward 7 unknown #
straight-curve $-1 98.31040858822179 0 9.6323603989686646 0 -1 0 I I #
straight-curve $-1 87.198967836699467 -48.488005594766371 17.974814833187182 1 0 0 I I #
point $-1 98.31040858822179 -48.488005594766371 17.974814833187182 #
point $-1 98.31040858822179 48.488005594766371 17.974814833187182 #
straight-curve $-1 98.31040858822179 48.488005594766371 13.803587616077923 0 0 -1 I I #
point $-1 98.31040858822179 48.488005594766371 9.6323603989686646 #
point $-1 98.31040858822179 -48.488005594766371 9.6323603989686646 #
straight-curve $-1 -60.776882715414217 48.488005594766371 91.553747969044082 0 0 1 I I #
straight-curve $-1 -25.786353882979927 34.739595349540728 18.496826793203567 1 0 0 I I #
point $-1 -60.776882715414217 48.488005594766371 18.496826793203564 #
point $-1 -60.776882715414217 34.739595349540728 18.496826793203567 #
point $-1 -55.517354172868863 39.26040969823201 9.5628240963571471 #
point $-1 -47.628061359050847 39.26040969823201 9.5628240963571471 #
straight-curve $-1 53.864645582132503 -87.323422168127863 18.496826793203567 0 1 0 I I #
point $-1 53.864645582132503 -48.488005594766371 18.496826793203564 #
straight-curve $-1 21.684377406743224 -45.907502466250463 18.496826793203564 -1 0 0 I I #
point $-1 53.864645582132503 -45.907502466250463 18.496826793203564 #
point $-1 37.071220352298823 -45.725059232215102 15.590604971674702 #
point $-1 43.368754813486461 -45.725059232215102 15.590604971674702 #
point $-1 49.666289274674099 -45.725059232215102 15.590604971674702 #
straight-curve $-1 98.31040858822179 -48.488005594766371 13.803587616077923 0 0 -1 I I #
End-of-ACIS-data 