500 0 6 0           
7 Unknown 11 ACIS 5.0 NT 24 Fri Mar 26 14:43:17 1999 
-1 9.9999999999999995e-007 1e-010 
body $-1 $6 $-1 $7 #
body $-1 $8 $-1 $9 #
body $-1 $10 $-1 $11 #
body $-1 $12 $-1 $13 #
body $-1 $14 $-1 $15 #
body $-1 $16 $-1 $17 #
lump $-1 $-1 $18 $0 #
transform $-1 1 0 0 0 1 0 0 0 1 60.574358348338265 26.277296038899486 8.0289020197837413 1 rotate no_reflect no_shear #
lump $-1 $-1 $19 $1 #
transform $-1 1 0 0 0 1 0 0 0 1 60.574358348338265 26.277296038899486 8.0289020197837413 1 rotate no_reflect no_shear #
lump $-1 $-1 $20 $2 #
transform $-1 1 0 0 0 1 0 0 0 1 60.574358348338265 26.277296038899486 8.0289020197837413 1 rotate no_reflect no_shear #
lump $-1 $-1 $21 $3 #
transform $-1 1 0 0 0 1 0 0 0 1 60.574358348338265 26.277296038899486 8.0289020197837413 1 rotate no_reflect no_shear #
lump $-1 $-1 $22 $4 #
transform $-1 1 0 0 0 1 0 0 0 1 60.574358348338265 26.277296038899486 8.0289020197837413 1 rotate no_reflect no_shear #
lump $-1 $-1 $23 $5 #
transform $-1 1 0 0 0 1 0 0 0 1 60.574358348338265 26.277296038899486 8.0289020197837413 1 rotate no_reflect no_shear #
shell $-1 $-1 $-1 $24 $-1 $6 #
shell $-1 $-1 $-1 $25 $-1 $8 #
shell $-1 $-1 $-1 $26 $-1 $10 #
shell $-1 $-1 $-1 $27 $-1 $12 #
shell $-1 $-1 $-1 $28 $-1 $14 #
shell $-1 $-1 $-1 $29 $-1 $16 #
face $-1 $30 $31 $18 $-1 $32 forward single #
face $-1 $33 $34 $19 $-1 $35 forward single #
face $-1 $36 $37 $20 $-1 $38 reversed single #
face $-1 $39 $40 $21 $-1 $41 forward single #
face $-1 $42 $43 $22 $-1 $44 forward single #
face $-1 $45 $46 $23 $-1 $47 forward single #
face $-1 $48 $49 $18 $-1 $50 reversed single #
loop $-1 $-1 $51 $24 #
plane-surface $-1 0 0 8.0289020197837413 0 0 1 1 0 0 forward_v I I I I #
face $-1 $52 $53 $19 $-1 $54 reversed single #
loop $-1 $-1 $55 $25 #
plane-surface $-1 0 -21.455375214042096 -4.4048575038681701 0 0 1 1 0 0 forward_v I I I I #
face $-1 $56 $57 $20 $-1 $58 reversed single #
loop $-1 $-1 $59 $26 #
plane-surface $-1 43.968033050229721 70.464528076229158 126.0518934712286 1 0 0 0 -0.68199836817093118 -0.7313536940579346 forward_v I I I I #
face $-1 $60 $61 $21 $-1 $62 forward single #
loop $-1 $63 $64 $27 #
cone-surface $-1 47.28929810985143 21.912249654612658 3.8295101102858315 0 -0.68199836817093118 -0.7313536940579346 1 0 0 1 I I 0 1 1 forward I I I I #
face $-1 $65 $66 $22 $-1 $67 forward single #
loop $-1 $68 $69 $28 #
cone-surface $-1 52.271195699283993 21.912249654612658 3.8295101102858315 0 -0.68199836817093118 -0.7313536940579346 1 0 0 1 I I 0 1 1 forward I I I I #
face $-1 $70 $71 $23 $-1 $72 forward single #
loop $-1 $73 $74 $29 #
cone-surface $-1 57.253093288716556 21.912249654612658 3.8295101102858315 0 -0.68199836817093118 -0.7313536940579346 1 0 0 1 I I 0 1 1 forward I I I I #
face $-1 $75 $76 $18 $-1 $77 reversed single #
loop $-1 $-1 $78 $30 #
plane-surface $-1 0 0 -8.0289020197837413 0 0 1 1 0 0 forward_v I I I I #
coedge $-1 $79 $80 $81 $82 forward $31 $-1 #
face $-1 $83 $84 $19 $-1 $85 reversed single #
loop $-1 $-1 $86 $33 #
plane-surface $-1 0 -16.633454389184706 -6.2168797618259557 0 -1 0 0 0 -1 forward_v I I I I #
coedge $-1 $87 $88 $89 $90 reversed $34 $-1 #
face $-1 $91 $92 $20 $-1 $93 reversed single #
loop $-1 $-1 $94 $36 #
plane-surface $-1 52.271195699283993 -12.158699016906681 37.449331984736034 0 0.68199836817093118 0.7313536940579346 1 0 0 forward_v I I I I #
coedge $-1 $95 $96 $97 $98 reversed $37 $-1 #
face $-1 $-1 $99 $21 $-1 $100 forward single #
loop $-1 $101 $102 $39 #
cone-surface $-1 47.28929810985143 20.649427699840025 2.4752993897567297 0 -0.68199836817093118 -0.7313536940579346 0.5 0 0 1 I I -0.70710678118654746 0.70710678118654746 0.5 forward I I I I #
loop $-1 $-1 $103 $27 #
coedge $-1 $64 $64 $104 $105 reversed $40 $-1 #
face $-1 $-1 $106 $22 $-1 $107 forward single #
loop $-1 $108 $109 $42 #
cone-surface $-1 52.271195699283993 20.649427699840025 2.4752993897567297 0 -0.68199836817093118 -0.7313536940579346 0.5 0 0 1 I I -0.70710678118654746 0.70710678118654746 0.5 forward I I I I #
loop $-1 $-1 $110 $28 #
coedge $-1 $69 $69 $111 $112 reversed $43 $-1 #
face $-1 $-1 $113 $23 $-1 $114 forward single #
loop $-1 $115 $116 $45 #
cone-surface $-1 57.253093288716556 20.649427699840025 2.4752993897567297 0 -0.68199836817093118 -0.7313536940579346 0.5 0 0 1 I I -0.70710678118654746 0.70710678118654746 0.5 forward I I I I #
loop $-1 $-1 $117 $29 #
coedge $-1 $74 $74 $118 $119 reversed $46 $-1 #
face $-1 $120 $121 $18 $-1 $122 reversed single #
loop $-1 $-1 $123 $48 #
plane-surface $-1 0 -26.277296038899486 0 0 1 0 0 0 1 forward_v I I I I #
coedge $-1 $124 $125 $126 $127 forward $49 $-1 #
coedge $-1 $128 $51 $129 $130 forward $31 $-1 #
coedge $-1 $51 $128 $131 $132 forward $31 $-1 #
coedge $-1 $133 $134 $51 $82 reversed $135 $-1 #
edge $-1 $136 -26.277296038899486 $137 26.277296038899486 $81 $138 forward 7 unknown #
face $-1 $139 $140 $19 $-1 $141 reversed single #
loop $-1 $-1 $142 $52 #
plane-surface $-1 0 0 -8.0289020197837413 0 0 1 1 0 0 forward_v I I I I #
coedge $-1 $143 $144 $145 $146 reversed $53 $-1 #
coedge $-1 $147 $55 $144 $148 forward $34 $-1 #
coedge $-1 $55 $147 $149 $150 reversed $34 $-1 #
coedge $-1 $151 $145 $55 $90 forward $140 $-1 #
edge $-1 $152 5.9057667821636581 $153 15.549608431878438 $89 $154 forward 7 unknown #
face $-1 $155 $156 $20 $-1 $157 forward single #
loop $-1 $-1 $158 $56 #
plane-surface $-1 60.574358348338265 0 0 -1 0 0 0 0 1 forward_v I I I I #
coedge $-1 $159 $160 $161 $162 reversed $57 $-1 #
coedge $-1 $96 $59 $163 $164 reversed $37 $-1 #
coedge $-1 $59 $95 $159 $165 reversed $37 $-1 #
coedge $-1 $161 $166 $59 $98 forward $156 $-1 #
edge $-1 $167 8.9549679992150928 $168 15.841415226414419 $97 $169 forward 7 unknown #
loop $-1 $-1 $104 $60 #
plane-surface $-1 52.271195699283993 -12.158699016906681 37.449331984736034 0 0.68199836817093118 0.7313536940579346 1 0 0 forward_v I I I I #
loop $-1 $-1 $170 $39 #
coedge $-1 $102 $102 $103 $171 reversed $61 $-1 #
coedge $-1 $103 $103 $102 $171 forward $63 $-1 #
coedge $-1 $104 $104 $64 $105 forward $99 $-1 #
edge $-1 $172 1.131772257081362e-015 $172 6.2831853071796013 $104 $173 forward 7 unknown #
loop $-1 $-1 $111 $65 #
plane-surface $-1 52.271195699283993 -12.158699016906681 37.449331984736034 0 0.68199836817093118 0.7313536940579346 1 0 0 forward_v I I I I #
loop $-1 $-1 $174 $42 #
coedge $-1 $109 $109 $110 $175 reversed $66 $-1 #
coedge $-1 $110 $110 $109 $175 forward $68 $-1 #
coedge $-1 $111 $111 $69 $112 forward $106 $-1 #
edge $-1 $176 1.131772257081362e-015 $176 6.2831853071796013 $111 $177 forward 7 unknown #
loop $-1 $-1 $118 $70 #
plane-surface $-1 52.271195699283993 -12.158699016906681 37.449331984736034 0 0.68199836817093118 0.7313536940579346 1 0 0 forward_v I I I I #
loop $-1 $-1 $178 $45 #
coedge $-1 $116 $116 $117 $179 reversed $71 $-1 #
coedge $-1 $117 $117 $116 $179 forward $73 $-1 #
coedge $-1 $118 $118 $74 $119 forward $113 $-1 #
edge $-1 $180 1.131772257081362e-015 $180 6.2831853071796013 $118 $181 forward 7 unknown #
face $-1 $182 $183 $18 $-1 $184 reversed single #
loop $-1 $-1 $185 $75 #
plane-surface $-1 -60.574358348338265 0 0 1 0 0 0 0 -1 forward_v I I I I #
coedge $-1 $186 $131 $187 $188 forward $76 $-1 #
coedge $-1 $189 $78 $186 $190 forward $49 $-1 #
coedge $-1 $78 $189 $191 $192 forward $49 $-1 #
coedge $-1 $134 $133 $78 $127 reversed $135 $-1 #
edge $-1 $193 -26.277296038899486 $194 26.277296038899486 $126 $195 forward 7 unknown #
coedge $-1 $80 $79 $196 $197 forward $31 $-1 #
coedge $-1 $198 $199 $79 $130 reversed $183 $-1 #
edge $-1 $137 -60.574358348338265 $200 60.574358348338265 $129 $201 forward 7 unknown #
coedge $-1 $123 $202 $80 $132 reversed $76 $-1 #
edge $-1 $203 -60.574358348338265 $136 60.574358348338265 $131 $204 forward 7 unknown #
coedge $-1 $126 $81 $202 $205 forward $135 $-1 #
coedge $-1 $81 $126 $198 $206 reversed $135 $-1 #
loop $-1 $-1 $133 $182 #
vertex $-1 $82 $207 #
vertex $-1 $82 $208 #
straight-curve $-1 60.574358348338265 0 8.0289020197837413 0 1 0 I I #
face $-1 $209 $210 $19 $-1 $211 reversed single #
loop $-1 $-1 $145 $83 #
plane-surface $-1 60.574358348338265 0 0 -1 0 0 0 0 1 forward_v I I I I #
coedge $-1 $212 $213 $143 $214 forward $84 $-1 #
coedge $-1 $215 $86 $142 $214 reversed $53 $-1 #
coedge $-1 $86 $215 $87 $148 reversed $53 $-1 #
coedge $-1 $89 $216 $86 $146 forward $140 $-1 #
edge $-1 $217 -4.9204621388707634 $152 -1.2964176229551923 $145 $218 forward 7 unknown #
coedge $-1 $88 $87 $219 $220 reversed $34 $-1 #
edge $-1 $152 -60.574358348338265 $221 60.574358348338265 $144 $222 forward 7 unknown #
coedge $-1 $223 $224 $88 $150 forward $210 $-1 #
edge $-1 $153 -60.574358348338265 $225 60.574358348338265 $149 $226 forward 7 unknown #
coedge $-1 $216 $89 $224 $227 forward $140 $-1 #
vertex $-1 $90 $228 #
vertex $-1 $227 $229 #
straight-curve $-1 60.574358348338265 -10.727687607021048 -4.4048575038681701 0 -1 0 I I #
face $-1 $-1 $230 $20 $-1 $231 reversed single #
loop $-1 $-1 $161 $91 #
plane-surface $-1 0 0 8.0289020197837413 0 0 1 1 0 0 forward_v I I I I #
coedge $-1 $232 $233 $160 $234 forward $92 $-1 #
coedge $-1 $235 $94 $96 $165 forward $57 $-1 #
coedge $-1 $94 $235 $158 $234 reversed $57 $-1 #
coedge $-1 $236 $97 $94 $162 forward $156 $-1 #
edge $-1 $168 17.832435200587724 $237 34.438760498696269 $161 $238 forward 7 unknown #
coedge $-1 $239 $240 $95 $164 forward $230 $-1 #
edge $-1 $241 -61.418760787826137 $167 -54.997044715830555 $163 $242 forward 7 unknown #
edge $-1 $168 43.138563577293731 $241 52.554592077799008 $96 $243 forward 7 unknown #
coedge $-1 $97 $236 $239 $244 forward $156 $-1 #
vertex $-1 $164 $245 #
vertex $-1 $98 $246 #
straight-curve $-1 43.968033050229721 35.232264038114579 8.0289020197837431 0 -1 0 I I #
coedge $-1 $170 $170 $-1 $247 reversed $101 $-1 #
edge $-1 $248 0 $248 6.2831853071796004 $102 $249 forward 7 unknown #
vertex $-1 $105 $250 #
ellipse-curve $-1 47.28929810985143 22.834072425299819 4.8180439837859561 0 0.68199836817093118 0.7313536940579346 1 0 0 1 I I #
coedge $-1 $174 $174 $-1 $251 reversed $108 $-1 #
edge $-1 $252 0 $252 6.2831853071796004 $109 $253 forward 7 unknown #
vertex $-1 $112 $254 #
ellipse-curve $-1 52.271195699283993 22.834072425299819 4.8180439837859561 0 0.68199836817093118 0.7313536940579346 1 0 0 1 I I #
coedge $-1 $178 $178 $-1 $255 reversed $115 $-1 #
edge $-1 $256 0 $256 6.2831853071796004 $116 $257 forward 7 unknown #
vertex $-1 $119 $258 #
ellipse-curve $-1 57.253093288716556 22.834072425299819 4.8180439837859561 0 0.68199836817093118 0.7313536940579346 1 0 0 1 I I #
face $-1 $-1 $135 $18 $-1 $259 reversed single #
loop $-1 $-1 $198 $120 #
plane-surface $-1 0 26.277296038899486 0 0 -1 0 0 0 -1 forward_v I I I I #
coedge $-1 $260 $196 $199 $261 forward $121 $-1 #
coedge $-1 $202 $123 $124 $190 reversed $76 $-1 #
coedge $-1 $196 $260 $123 $188 reversed $121 $-1 #
edge $-1 $203 -8.0289020197837413 $262 8.0289020197837413 $187 $263 forward 7 unknown #
coedge $-1 $125 $124 $260 $264 forward $49 $-1 #
edge $-1 $194 -60.574358348338265 $262 60.574358348338265 $186 $265 forward 7 unknown #
coedge $-1 $199 $198 $125 $192 reversed $183 $-1 #
edge $-1 $266 -60.574358348338265 $193 60.574358348338265 $191 $267 forward 7 unknown #
vertex $-1 $127 $268 #
vertex $-1 $205 $269 #
straight-curve $-1 60.574358348338265 0 -8.0289020197837413 0 -1 0 I I #
coedge $-1 $185 $187 $128 $197 reversed $121 $-1 #
edge $-1 $200 -26.277296038899486 $203 26.277296038899486 $196 $270 forward 7 unknown #
coedge $-1 $191 $129 $134 $206 forward $183 $-1 #
coedge $-1 $129 $191 $185 $261 reversed $183 $-1 #
vertex $-1 $130 $271 #
straight-curve $-1 0 26.277296038899486 8.0289020197837413 -1 0 0 I I #
coedge $-1 $131 $186 $133 $205 reversed $76 $-1 #
vertex $-1 $197 $272 #
straight-curve $-1 0 -26.277296038899486 8.0289020197837413 1 0 0 I I #
edge $-1 $136 -8.0289020197837413 $194 8.0289020197837413 $133 $273 forward 7 unknown #
edge $-1 $137 -8.0289020197837413 $193 8.0289020197837413 $134 $274 forward 7 unknown #
point $-1 60.574358348338265 -26.277296038899486 8.0289020197837413 #
point $-1 60.574358348338265 26.277296038899486 8.0289020197837413 #
face $-1 $-1 $275 $19 $-1 $276 reversed single #
loop $-1 $-1 $149 $139 #
plane-surface $-1 0 -26.277296038899486 0 0 1 0 0 0 1 forward_v I I I I #
coedge $-1 $277 $142 $216 $278 forward $84 $-1 #
coedge $-1 $142 $277 $279 $280 forward $84 $-1 #
edge $-1 $281 -60.574358348338265 $217 60.574358348338265 $142 $282 forward 7 unknown #
coedge $-1 $144 $143 $283 $284 reversed $53 $-1 #
coedge $-1 $145 $151 $212 $278 reversed $140 $-1 #
vertex $-1 $278 $285 #
straight-curve $-1 60.574358348338265 -16.633454389184706 -3.1084398809129778 0 0 1 I I #
coedge $-1 $283 $286 $147 $220 forward $275 $-1 #
edge $-1 $225 -15.549608431878438 $221 -5.9057667821636581 $219 $287 forward 7 unknown #
vertex $-1 $220 $288 #
straight-curve $-1 0 -16.633454389184706 -4.4048575038681701 -1 0 0 I I #
coedge $-1 $289 $149 $286 $290 forward $210 $-1 #
coedge $-1 $149 $289 $151 $227 reversed $210 $-1 #
vertex $-1 $290 $291 #
straight-curve $-1 0 -26.277296038899486 -4.4048575038681701 -1 0 0 I I #
edge $-1 $153 4.4048575038681701 $292 8.0289020197837413 $151 $293 forward 7 unknown #
point $-1 60.574358348338265 -16.633454389184706 -4.4048575038681701 #
point $-1 60.574358348338265 -26.277296038899486 -4.4048575038681701 #
loop $-1 $-1 $163 $155 #
plane-surface $-1 0 26.277296038899486 0 0 -1 0 0 0 -1 forward_v I I I I #
coedge $-1 $233 $158 $294 $295 reversed $92 $-1 #
coedge $-1 $158 $232 $236 $296 reversed $92 $-1 #
edge $-1 $237 25.922217205476375 $297 35.338245705981649 $158 $298 forward 7 unknown #
coedge $-1 $160 $159 $240 $299 reversed $57 $-1 #
coedge $-1 $166 $161 $233 $296 forward $156 $-1 #
vertex $-1 $296 $300 #
straight-curve $-1 26.135597849641997 19.390848811700163 8.0289020197837431 1 0 0 I I #
coedge $-1 $294 $163 $166 $244 reversed $230 $-1 #
coedge $-1 $163 $294 $235 $299 forward $230 $-1 #
vertex $-1 $164 $301 #
straight-curve $-1 43.968033050229721 26.277296038899486 63.025946735614298 0 0 1 I I #
straight-curve $-1 43.968033050229721 -12.158699016906681 37.449331984736034 0 0.7313536940579346 -0.68199836817093118 I I #
edge $-1 $302 -60.574358348338265 $167 -43.968033050229721 $239 $303 forward 7 unknown #
point $-1 43.968033050229721 26.277296038899486 8.0289020197837413 #
point $-1 43.968033050229721 19.39084881170016 8.0289020197837431 #
edge $-1 $304 1 $304 0 $170 $-1 forward 7 unknown #
vertex $-1 $171 $305 #
ellipse-curve $-1 47.28929810985143 20.99042688392549 2.8409762367856972 0 0.68199836817093118 0.7313536940579346 1 0 0 1 I I #
point $-1 48.28929810985143 22.83407242529983 4.8180439837859659 #
edge $-1 $306 1 $306 0 $174 $-1 forward 7 unknown #
vertex $-1 $175 $307 #
ellipse-curve $-1 52.271195699283993 20.99042688392549 2.8409762367856972 0 0.68199836817093118 0.7313536940579346 1 0 0 1 I I #
point $-1 53.271195699283993 22.83407242529983 4.8180439837859659 #
edge $-1 $308 1 $308 0 $178 $-1 forward 7 unknown #
vertex $-1 $179 $309 #
ellipse-curve $-1 57.253093288716556 20.99042688392549 2.8409762367856972 0 0.68199836817093118 0.7313536940579346 1 0 0 1 I I #
point $-1 58.253093288716556 22.83407242529983 4.8180439837859659 #
plane-surface $-1 60.574358348338265 0 0 -1 0 0 0 0 1 forward_v I I I I #
coedge $-1 $187 $185 $189 $264 reversed $121 $-1 #
edge $-1 $200 -8.0289020197837413 $266 8.0289020197837413 $199 $310 forward 7 unknown #
vertex $-1 $264 $311 #
straight-curve $-1 -60.574358348338265 -26.277296038899486 0 0 0 -1 I I #
edge $-1 $262 -26.277296038899486 $266 26.277296038899486 $260 $312 forward 7 unknown #
straight-curve $-1 0 -26.277296038899486 -8.0289020197837413 -1 0 0 I I #
vertex $-1 $192 $313 #
straight-curve $-1 0 26.277296038899486 -8.0289020197837413 1 0 0 I I #
point $-1 60.574358348338265 26.277296038899486 -8.0289020197837413 #
point $-1 60.574358348338265 -26.277296038899486 -8.0289020197837413 #
straight-curve $-1 -60.574358348338265 0 8.0289020197837413 0 -1 0 I I #
point $-1 -60.574358348338265 26.277296038899486 8.0289020197837413 #
point $-1 -60.574358348338265 -26.277296038899486 8.0289020197837413 #
straight-curve $-1 60.574358348338265 -26.277296038899486 0 0 0 -1 I I #
straight-curve $-1 60.574358348338265 26.277296038899486 0 0 0 -1 I I #
loop $-1 $-1 $283 $209 #
plane-surface $-1 -60.574358348338265 0 0 1 0 0 0 0 -1 forward_v I I I I #
coedge $-1 $213 $212 $289 $314 forward $84 $-1 #
edge $-1 $217 16.633454389184706 $292 26.277296038899486 $216 $315 forward 7 unknown #
coedge $-1 $286 $283 $213 $280 reversed $275 $-1 #
edge $-1 $316 -26.277296038899486 $281 -16.633454389184706 $279 $317 forward 7 unknown #
vertex $-1 $284 $318 #
straight-curve $-1 0 -16.633454389184706 -8.0289020197837413 1 0 0 I I #
coedge $-1 $279 $219 $215 $284 forward $275 $-1 #
edge $-1 $221 1.2964176229551923 $281 4.9204621388707634 $283 $319 forward 7 unknown #
point $-1 60.574358348338265 -16.633454389184706 -8.0289020197837413 #
coedge $-1 $219 $279 $223 $290 reversed $275 $-1 #
straight-curve $-1 -60.574358348338265 -10.727687607021048 -4.4048575038681701 0 1 0 I I #
point $-1 -60.574358348338265 -16.633454389184706 -4.4048575038681701 #
coedge $-1 $224 $223 $277 $314 reversed $210 $-1 #
edge $-1 $225 4.4048575038681701 $316 8.0289020197837413 $286 $320 forward 7 unknown #
point $-1 -60.574358348338265 -26.277296038899486 -4.4048575038681701 #
vertex $-1 $227 $321 #
straight-curve $-1 60.574358348338265 -26.277296038899486 0 0 0 -1 I I #
coedge $-1 $240 $239 $232 $295 forward $230 $-1 #
edge $-1 $302 -8.0289020197837413 $297 -1.6071859477881603 $232 $322 forward 7 unknown #
edge $-1 $237 19.39084881170016 $302 26.277296038899486 $233 $323 forward 7 unknown #
vertex $-1 $234 $324 #
straight-curve $-1 60.574358348338265 0.43253950030286337 25.707811853291066 0 0.7313536940579346 -0.68199836817093118 I I #
edge $-1 $297 -34.438760498696269 $241 -17.832435200587724 $240 $325 forward 7 unknown #
point $-1 60.574358348338265 19.39084881170016 8.0289020197837431 #
point $-1 43.968033050229721 26.277296038899486 1.6071859477881603 #
vertex $-1 $296 $326 #
straight-curve $-1 0 26.277296038899486 8.0289020197837413 -1 0 0 I I #
vertex $-1 $247 $327 #
point $-1 48.28929810985143 20.99042688392549 2.8409762367856972 #
vertex $-1 $251 $328 #
point $-1 53.271195699283993 20.99042688392549 2.8409762367856972 #
vertex $-1 $255 $329 #
point $-1 58.253093288716556 20.99042688392549 2.8409762367856972 #
straight-curve $-1 -60.574358348338265 26.277296038899486 0 0 0 -1 I I #
point $-1 -60.574358348338265 -26.277296038899486 -8.0289020197837413 #
straight-curve $-1 -60.574358348338265 0 -8.0289020197837413 0 1 0 I I #
point $-1 -60.574358348338265 26.277296038899486 -8.0289020197837413 #
edge $-1 $292 -60.574358348338265 $316 60.574358348338265 $289 $330 forward 7 unknown #
straight-curve $-1 60.574358348338265 0 -8.0289020197837413 0 -1 0 I I #
vertex $-1 $280 $331 #
straight-curve $-1 -60.574358348338265 0 -8.0289020197837413 0 1 0 I I #
point $-1 -60.574358348338265 -16.633454389184706 -8.0289020197837413 #
straight-curve $-1 -60.574358348338265 -16.633454389184706 -3.1084398809129778 0 0 -1 I I #
straight-curve $-1 -60.574358348338265 -26.277296038899486 0 0 0 -1 I I #
point $-1 60.574358348338265 -26.277296038899486 -8.0289020197837413 #
straight-curve $-1 60.574358348338265 26.277296038899486 0 0 0 -1 I I #
straight-curve $-1 60.574358348338265 0 8.0289020197837413 0 1 0 I I #
point $-1 60.574358348338265 26.277296038899486 1.6071859477881603 #
straight-curve $-1 26.135597849641997 26.277296038899483 1.6071859477881674 -1 0 0 I I #
point $-1 60.574358348338265 26.277296038899486 8.0289020197837413 #
point $-1 47.28929810985143 20.30842851575456 2.1096225427277622 #
point $-1 52.271195699283993 20.30842851575456 2.1096225427277622 #
point $-1 57.253093288716556 20.30842851575456 2.1096225427277622 #
straight-curve $-1 0 -26.277296038899486 -8.0289020197837413 -1 0 0 I I #
point $-1 -60.574358348338265 -26.277296038899486 -8.0289020197837413 #
End-of-ACIS-data 