500 0 13 0           
7 Unknown 11 ACIS 5.0 NT 24 Fri Mar 26 14:27:07 1999 
-1 9.9999999999999995e-007 1e-010 
body $-1 $13 $-1 $14 #
body $-1 $15 $-1 $16 #
body $-1 $17 $-1 $18 #
body $-1 $19 $-1 $20 #
body $-1 $21 $-1 $22 #
body $-1 $23 $-1 $24 #
body $-1 $25 $-1 $26 #
body $-1 $27 $-1 $28 #
body $-1 $29 $-1 $30 #
body $-1 $31 $-1 $32 #
body $-1 $33 $-1 $34 #
body $-1 $35 $-1 $36 #
body $-1 $37 $-1 $38 #
lump $-1 $-1 $39 $0 #
transform $-1 1 0 0 0 1 0 0 0 1 52.33069856868191 22.776877860250487 8.1121469772849277 1 rotate no_reflect no_shear #
lump $-1 $-1 $40 $1 #
transform $-1 1 0 0 0 1 0 0 0 1 52.33069856868191 22.776877860250487 8.1121469772849277 1 rotate no_reflect no_shear #
lump $-1 $-1 $41 $2 #
transform $-1 1 0 0 0 1 0 0 0 1 52.33069856868191 22.776877860250487 8.1121469772849277 1 rotate no_reflect no_shear #
lump $-1 $-1 $42 $3 #
transform $-1 1 0 0 0 1 0 0 0 1 52.33069856868191 22.776877860250487 8.1121469772849277 1 rotate no_reflect no_shear #
lump $-1 $-1 $43 $4 #
transform $-1 1 0 0 0 1 0 0 0 1 52.33069856868191 22.776877860250487 8.1121469772849277 1 rotate no_reflect no_shear #
lump $-1 $-1 $44 $5 #
transform $-1 1 0 0 0 1 0 0 0 1 52.33069856868191 22.776877860250487 8.1121469772849277 1 rotate no_reflect no_shear #
lump $-1 $-1 $45 $6 #
transform $-1 1 0 0 0 1 0 0 0 1 52.33069856868191 22.776877860250487 8.1121469772849277 1 rotate no_reflect no_shear #
lump $-1 $-1 $46 $7 #
transform $-1 1 0 0 0 1 0 0 0 1 52.33069856868191 22.776877860250487 8.1121469772849277 1 rotate no_reflect no_shear #
lump $-1 $-1 $47 $8 #
transform $-1 1 0 0 0 1 0 0 0 1 52.33069856868191 22.776877860250487 8.1121469772849277 1 rotate no_reflect no_shear #
lump $-1 $-1 $48 $9 #
transform $-1 1 0 0 0 1 0 0 0 1 52.33069856868191 22.776877860250487 8.1121469772849277 1 rotate no_reflect no_shear #
lump $-1 $-1 $49 $10 #
transform $-1 1 0 0 0 1 0 0 0 1 52.33069856868191 22.776877860250487 8.1121469772849277 1 rotate no_reflect no_shear #
lump $-1 $-1 $50 $11 #
transform $-1 1 0 0 0 1 0 0 0 1 52.33069856868191 22.776877860250487 8.1121469772849277 1 rotate no_reflect no_shear #
lump $-1 $-1 $51 $12 #
transform $-1 1 0 0 0 1 0 0 0 1 52.33069856868191 22.776877860250487 8.1121469772849277 1 rotate no_reflect no_shear #
shell $-1 $-1 $-1 $52 $-1 $13 #
shell $-1 $-1 $-1 $53 $-1 $15 #
shell $-1 $-1 $-1 $54 $-1 $17 #
shell $-1 $-1 $-1 $55 $-1 $19 #
shell $-1 $-1 $-1 $56 $-1 $21 #
shell $-1 $-1 $-1 $57 $-1 $23 #
shell $-1 $-1 $-1 $58 $-1 $25 #
shell $-1 $-1 $-1 $59 $-1 $27 #
shell $-1 $-1 $-1 $60 $-1 $29 #
shell $-1 $-1 $-1 $61 $-1 $31 #
shell $-1 $-1 $-1 $62 $-1 $33 #
shell $-1 $-1 $-1 $63 $-1 $35 #
shell $-1 $-1 $-1 $64 $-1 $37 #
face $-1 $65 $66 $39 $-1 $67 forward single #
face $-1 $68 $69 $40 $-1 $70 reversed single #
face $-1 $71 $72 $41 $-1 $73 reversed single #
face $-1 $74 $75 $42 $-1 $76 forward single #
face $-1 $77 $78 $43 $-1 $79 reversed single #
face $-1 $80 $81 $44 $-1 $82 forward single #
face $-1 $83 $84 $45 $-1 $85 forward single #
face $-1 $86 $87 $46 $-1 $88 reversed single #
face $-1 $89 $90 $47 $-1 $91 forward single #
face $-1 $92 $93 $48 $-1 $94 forward single #
face $-1 $95 $96 $49 $-1 $97 reversed single #
face $-1 $98 $99 $50 $-1 $100 forward single #
face $-1 $101 $102 $51 $-1 $103 forward single #
face $-1 $104 $105 $39 $-1 $106 reversed single #
loop $-1 $-1 $107 $52 #
plane-surface $-1 0 0 8.1121469772849277 0 0 1 1 0 0 forward_v I I I I #
face $-1 $108 $109 $40 $-1 $110 reversed single #
loop $-1 $-1 $111 $53 #
plane-surface $-1 0 -17.942788895952162 4.7839559108329421 0 0 1 1 0 0 forward_v I I I I #
face $-1 $112 $113 $41 $-1 $114 reversed single #
loop $-1 $-1 $115 $54 #
plane-surface $-1 54.913893258465066 -4.3834218470134658 149.73028047606297 0 -1 0 -0.71933980857756763 0 -0.69465836192734942 forward_v I I I I #
face $-1 $116 $117 $42 $-1 $118 forward single #
loop $-1 $119 $120 $55 #
cone-surface $-1 48.671051108775309 -8.7460608893336502 4.3631560397778433 -0.71933980857756763 0 -0.69465836192734942 0.34732918096367471 0 -0.35966990428878381 1 I I 0 1 0.5 forward I I I I #
face $-1 $121 $122 $43 $-1 $123 reversed single #
loop $-1 $-1 $124 $56 #
plane-surface $-1 -135.91700771447171 -8.0831948358792509 66.504628608510515 0 1 0 -0.79863551827123203 0 0.60181501223851219 forward_v I I I I #
face $-1 $125 $126 $44 $-1 $127 forward single #
loop $-1 $128 $129 $57 #
cone-surface $-1 -49.929664967747527 -6.1013793592525296 5.3101065614514695 0.79863551827123203 0 -0.60181501223851219 0.3009075061192561 0 0.39931775913561601 1 I I 0 1 0.5 forward I I I I #
face $-1 $130 $131 $45 $-1 $132 forward single #
loop $-1 $133 $134 $58 #
cone-surface $-1 -49.929664967747527 -3.1286561443124477 5.3101065614514695 0.79863551827123203 0 -0.60181501223851219 0.3009075061192561 0 0.39931775913561601 1 I I 0 1 0.5 forward I I I I #
face $-1 $135 $136 $46 $-1 $137 reversed single #
loop $-1 $-1 $138 $59 #
plane-surface $-1 -135.91700771447171 3.8786644280888574 66.504628608510515 0 1 0 -0.79863551827123203 0 0.60181501223851219 forward_v I I I I #
face $-1 $139 $140 $47 $-1 $141 forward single #
loop $-1 $142 $143 $60 #
cone-surface $-1 -49.929664967747527 5.8604799047155787 5.3101065614514695 0.79863551827123203 0 -0.60181501223851219 0.3009075061192561 0 0.39931775913561601 1 I I 0 1 0.5 forward I I I I #
face $-1 $144 $145 $48 $-1 $146 forward single #
loop $-1 $147 $148 $61 #
cone-surface $-1 -49.929664967747527 8.8332031196556606 5.3101065614514695 0.79863551827123203 0 -0.60181501223851219 0.3009075061192561 0 0.39931775913561601 1 I I 0 1 0.5 forward I I I I #
face $-1 $149 $150 $49 $-1 $151 reversed single #
loop $-1 $-1 $152 $62 #
plane-surface $-1 -135.91700771447171 15.840523692056966 66.504628608510515 0 1 0 -0.79863551827123203 0 0.60181501223851219 forward_v I I I I #
face $-1 $153 $154 $50 $-1 $155 forward single #
loop $-1 $156 $157 $63 #
cone-surface $-1 -49.929664967747527 17.822339168683691 5.3101065614514695 0.79863551827123203 0 -0.60181501223851219 0.3009075061192561 0 0.39931775913561601 1 I I 0 1 0.5 forward I I I I #
face $-1 $158 $159 $51 $-1 $160 forward single #
loop $-1 $161 $162 $64 #
cone-surface $-1 -49.929664967747527 20.795062383623765 5.3101065614514695 0.79863551827123203 0 -0.60181501223851219 0.3009075061192561 0 0.39931775913561601 1 I I 0 1 0.5 forward I I I I #
face $-1 $163 $164 $39 $-1 $165 reversed single #
loop $-1 $-1 $166 $65 #
plane-surface $-1 0 0 -8.1121469772849277 0 0 1 1 0 0 forward_v I I I I #
coedge $-1 $167 $168 $169 $170 forward $66 $-1 #
face $-1 $171 $172 $40 $-1 $173 reversed single #
loop $-1 $-1 $174 $68 #
plane-surface $-1 0 -13.108699931653836 6.4480514440589349 0 -1 0 0 0 -1 forward_v I I I I #
coedge $-1 $175 $176 $177 $178 reversed $69 $-1 #
face $-1 $179 $180 $41 $-1 $181 forward single #
loop $-1 $-1 $182 $71 #
plane-surface $-1 -20.373216123787003 -8.7460608893336502 77.026365783594045 0.71933980857756763 0 0.69465836192734942 0.69465836192734942 0 -0.71933980857756763 forward_v I I I I #
coedge $-1 $183 $184 $185 $186 reversed $72 $-1 #
face $-1 $-1 $187 $42 $-1 $188 forward single #
loop $-1 $189 $190 $74 #
cone-surface $-1 47.908683069819247 -8.7460608893336502 3.6269457997604153 -0.71933980857756763 0 -0.69465836192734942 0.17366459048183736 0 -0.17983495214439191 1 I I -0.70710678118654746 0.70710678118654746 0.25 forward I I I I #
loop $-1 $-1 $191 $55 #
coedge $-1 $120 $120 $192 $193 reversed $75 $-1 #
face $-1 $194 $195 $43 $-1 $196 reversed single #
loop $-1 $-1 $197 $77 #
plane-surface $-1 -52.33069856868191 -4.6150177517824886 3.5178286093881255 -0.79863551827123203 0 0.60181501223851219 0.60181501223851219 0 0.79863551827123203 forward_v I I I I #
coedge $-1 $198 $199 $200 $201 reversed $78 $-1 #
face $-1 $-1 $202 $44 $-1 $203 forward single #
loop $-1 $204 $205 $80 #
cone-surface $-1 -49.060006044823979 -6.1013793592525296 4.6547715765067892 0.79863551827123203 0 -0.60181501223851219 0.15045375305962805 0 0.19965887956780801 1 I I -0.70710678118654746 0.70710678118654746 0.25 forward I I I I #
loop $-1 $-1 $206 $57 #
coedge $-1 $129 $129 $207 $208 reversed $81 $-1 #
face $-1 $-1 $209 $45 $-1 $210 forward single #
loop $-1 $211 $212 $83 #
cone-surface $-1 -49.060006044823979 -3.1286561443124477 4.6547715765067892 0.79863551827123203 0 -0.60181501223851219 0.15045375305962805 0 0.19965887956780801 1 I I -0.70710678118654746 0.70710678118654746 0.25 forward I I I I #
loop $-1 $-1 $213 $58 #
coedge $-1 $134 $134 $214 $215 reversed $84 $-1 #
face $-1 $216 $217 $46 $-1 $218 reversed single #
loop $-1 $-1 $219 $86 #
plane-surface $-1 -52.33069856868191 7.3468415121856196 3.5178286093881255 -0.79863551827123203 0 0.60181501223851219 0.60181501223851219 0 0.79863551827123203 forward_v I I I I #
coedge $-1 $220 $221 $222 $223 reversed $87 $-1 #
face $-1 $-1 $224 $47 $-1 $225 forward single #
loop $-1 $226 $227 $89 #
cone-surface $-1 -49.060006044823979 5.8604799047155787 4.6547715765067892 0.79863551827123203 0 -0.60181501223851219 0.15045375305962805 0 0.19965887956780801 1 I I -0.70710678118654746 0.70710678118654746 0.25 forward I I I I #
loop $-1 $-1 $228 $60 #
coedge $-1 $143 $143 $229 $230 reversed $90 $-1 #
face $-1 $-1 $231 $48 $-1 $232 forward single #
loop $-1 $233 $234 $92 #
cone-surface $-1 -49.060006044823979 8.8332031196556606 4.6547715765067892 0.79863551827123203 0 -0.60181501223851219 0.15045375305962805 0 0.19965887956780801 1 I I -0.70710678118654746 0.70710678118654746 0.25 forward I I I I #
loop $-1 $-1 $235 $61 #
coedge $-1 $148 $148 $236 $237 reversed $93 $-1 #
face $-1 $238 $239 $49 $-1 $240 forward single #
loop $-1 $-1 $241 $95 #
plane-surface $-1 -52.33069856868191 19.308700776153728 3.5178286093881255 -0.79863551827123203 0 0.60181501223851219 0.60181501223851219 0 0.79863551827123203 forward_v I I I I #
coedge $-1 $242 $243 $244 $245 reversed $96 $-1 #
face $-1 $-1 $246 $50 $-1 $247 forward single #
loop $-1 $248 $249 $98 #
cone-surface $-1 -49.060006044823979 17.822339168683691 4.6547715765067892 0.79863551827123203 0 -0.60181501223851219 0.15045375305962805 0 0.19965887956780801 1 I I -0.70710678118654746 0.70710678118654746 0.25 forward I I I I #
loop $-1 $-1 $250 $63 #
coedge $-1 $157 $157 $251 $252 reversed $99 $-1 #
face $-1 $-1 $253 $51 $-1 $254 forward single #
loop $-1 $255 $256 $101 #
cone-surface $-1 -49.060006044823979 20.795062383623765 4.6547715765067892 0.79863551827123203 0 -0.60181501223851219 0.15045375305962805 0 0.19965887956780801 1 I I -0.70710678118654746 0.70710678118654746 0.25 forward I I I I #
loop $-1 $-1 $257 $64 #
coedge $-1 $162 $162 $258 $259 reversed $102 $-1 #
face $-1 $260 $261 $39 $-1 $262 reversed single #
loop $-1 $-1 $263 $104 #
plane-surface $-1 0 -22.776877860250487 0 0 1 0 0 0 1 forward_v I I I I #
coedge $-1 $264 $265 $266 $267 forward $105 $-1 #
coedge $-1 $268 $107 $269 $270 forward $66 $-1 #
coedge $-1 $107 $268 $271 $272 forward $66 $-1 #
coedge $-1 $273 $274 $107 $170 reversed $275 $-1 #
edge $-1 $276 -22.776877860250487 $277 22.776877860250487 $169 $278 forward 7 unknown #
face $-1 $279 $280 $40 $-1 $281 reversed single #
loop $-1 $-1 $282 $108 #
plane-surface $-1 -52.33069856868191 0 0 1 0 0 0 0 -1 forward_v I I I I #
coedge $-1 $283 $284 $285 $286 reversed $109 $-1 #
coedge $-1 $287 $111 $288 $289 reversed $69 $-1 #
coedge $-1 $111 $287 $283 $290 forward $69 $-1 #
coedge $-1 $285 $291 $111 $178 forward $292 $-1 #
edge $-1 $293 -13.805483412274405 $294 -4.1373054836777552 $177 $295 forward 7 unknown #
face $-1 $296 $297 $41 $-1 $298 forward single #
loop $-1 $-1 $299 $112 #
plane-surface $-1 0 -13.108699931653836 6.4480514440589349 0 -1 0 0 0 -1 forward_v I I I I #
coedge $-1 $300 $301 $302 $303 reversed $113 $-1 #
coedge $-1 $184 $115 $304 $305 reversed $72 $-1 #
coedge $-1 $115 $183 $300 $306 reversed $72 $-1 #
coedge $-1 $302 $307 $115 $186 forward $297 $-1 #
edge $-1 $308 -24.873751939449377 $309 -18.719523193259533 $185 $310 forward 7 unknown #
loop $-1 $-1 $192 $116 #
plane-surface $-1 -20.373216123787003 -8.7460608893336502 77.026365783594045 0.71933980857756763 0 0.69465836192734942 0.69465836192734942 0 -0.71933980857756763 forward_v I I I I #
loop $-1 $-1 $311 $74 #
coedge $-1 $190 $190 $191 $312 reversed $117 $-1 #
coedge $-1 $191 $191 $190 $312 forward $119 $-1 #
coedge $-1 $192 $192 $120 $193 forward $187 $-1 #
edge $-1 $313 0 $313 6.2831853071796004 $192 $314 forward 7 unknown #
face $-1 $315 $316 $43 $-1 $317 forward single #
loop $-1 $-1 $318 $121 #
plane-surface $-1 -135.91700771447171 -1.1468406676857263 66.504628608510515 0 -1 0 0.79863551827123203 0 -0.60181501223851219 forward_v I I I I #
coedge $-1 $319 $320 $321 $322 reversed $122 $-1 #
coedge $-1 $199 $124 $323 $324 reversed $78 $-1 #
coedge $-1 $124 $198 $319 $325 reversed $78 $-1 #
coedge $-1 $321 $326 $124 $201 forward $316 $-1 #
edge $-1 $327 15.627805288553944 $328 19.08987240371124 $200 $329 forward 7 unknown #
loop $-1 $-1 $207 $125 #
plane-surface $-1 -52.33069856868191 -4.6150177517824886 3.5178286093881255 -0.79863551827123203 0 0.60181501223851219 0.60181501223851219 0 0.79863551827123203 forward_v I I I I #
loop $-1 $-1 $330 $80 #
coedge $-1 $205 $205 $206 $331 reversed $126 $-1 #
coedge $-1 $206 $206 $205 $331 forward $128 $-1 #
coedge $-1 $207 $207 $129 $208 forward $202 $-1 #
edge $-1 $332 0 $332 6.2831853071796004 $207 $333 forward 7 unknown #
loop $-1 $-1 $214 $130 #
plane-surface $-1 -52.33069856868191 -4.6150177517824886 3.5178286093881255 -0.79863551827123203 0 0.60181501223851219 0.60181501223851219 0 0.79863551827123203 forward_v I I I I #
loop $-1 $-1 $334 $83 #
coedge $-1 $212 $212 $213 $335 reversed $131 $-1 #
coedge $-1 $213 $213 $212 $335 forward $133 $-1 #
coedge $-1 $214 $214 $134 $215 forward $209 $-1 #
edge $-1 $336 0 $336 6.2831853071796004 $214 $337 forward 7 unknown #
face $-1 $338 $339 $46 $-1 $340 forward single #
loop $-1 $-1 $341 $135 #
plane-surface $-1 -135.91700771447171 10.815018596282382 66.504628608510515 0 -1 0 0.79863551827123203 0 -0.60181501223851219 forward_v I I I I #
coedge $-1 $342 $343 $344 $345 reversed $136 $-1 #
coedge $-1 $221 $138 $346 $347 reversed $87 $-1 #
coedge $-1 $138 $220 $342 $348 reversed $87 $-1 #
coedge $-1 $344 $349 $138 $223 forward $339 $-1 #
edge $-1 $350 15.627805288553944 $351 19.08987240371124 $222 $352 forward 7 unknown #
loop $-1 $-1 $229 $139 #
plane-surface $-1 -52.33069856868191 7.3468415121856196 3.5178286093881255 -0.79863551827123203 0 0.60181501223851219 0.60181501223851219 0 0.79863551827123203 forward_v I I I I #
loop $-1 $-1 $353 $89 #
coedge $-1 $227 $227 $228 $354 reversed $140 $-1 #
coedge $-1 $228 $228 $227 $354 forward $142 $-1 #
coedge $-1 $229 $229 $143 $230 forward $224 $-1 #
edge $-1 $355 0 $355 6.2831853071796004 $229 $356 forward 7 unknown #
loop $-1 $-1 $236 $144 #
plane-surface $-1 -52.33069856868191 7.3468415121856196 3.5178286093881255 -0.79863551827123203 0 0.60181501223851219 0.60181501223851219 0 0.79863551827123203 forward_v I I I I #
loop $-1 $-1 $357 $92 #
coedge $-1 $234 $234 $235 $358 reversed $145 $-1 #
coedge $-1 $235 $235 $234 $358 forward $147 $-1 #
coedge $-1 $236 $236 $148 $237 forward $231 $-1 #
edge $-1 $359 0 $359 6.2831853071796004 $236 $360 forward 7 unknown #
face $-1 $361 $362 $49 $-1 $363 reversed single #
loop $-1 $-1 $244 $149 #
plane-surface $-1 0 0 8.1121469772849277 0 0 1 1 0 0 forward_v I I I I #
coedge $-1 $364 $365 $366 $367 reversed $150 $-1 #
coedge $-1 $243 $152 $368 $369 reversed $96 $-1 #
coedge $-1 $152 $242 $364 $370 reversed $96 $-1 #
coedge $-1 $366 $371 $152 $245 forward $239 $-1 #
edge $-1 $372 15.627805288553944 $373 19.08987240371124 $244 $374 forward 7 unknown #
loop $-1 $-1 $251 $153 #
plane-surface $-1 -52.33069856868191 19.308700776153728 3.5178286093881255 -0.79863551827123203 0 0.60181501223851219 0.60181501223851219 0 0.79863551827123203 forward_v I I I I #
loop $-1 $-1 $375 $98 #
coedge $-1 $249 $249 $250 $376 reversed $154 $-1 #
coedge $-1 $250 $250 $249 $376 forward $156 $-1 #
coedge $-1 $251 $251 $157 $252 forward $246 $-1 #
edge $-1 $377 0 $377 6.2831853071796004 $251 $378 forward 7 unknown #
loop $-1 $-1 $258 $158 #
plane-surface $-1 -52.33069856868191 19.308700776153728 3.5178286093881255 -0.79863551827123203 0 0.60181501223851219 0.60181501223851219 0 0.79863551827123203 forward_v I I I I #
loop $-1 $-1 $379 $101 #
coedge $-1 $256 $256 $257 $380 reversed $159 $-1 #
coedge $-1 $257 $257 $256 $380 forward $161 $-1 #
coedge $-1 $258 $258 $162 $259 forward $253 $-1 #
edge $-1 $381 0 $381 6.2831853071796004 $258 $382 forward 7 unknown #
face $-1 $383 $384 $39 $-1 $385 reversed single #
loop $-1 $-1 $386 $163 #
plane-surface $-1 -52.33069856868191 0 0 1 0 0 0 0 -1 forward_v I I I I #
coedge $-1 $387 $271 $388 $389 forward $164 $-1 #
coedge $-1 $390 $166 $387 $391 forward $105 $-1 #
coedge $-1 $166 $390 $392 $393 forward $105 $-1 #
coedge $-1 $274 $273 $166 $267 reversed $275 $-1 #
edge $-1 $394 -22.776877860250487 $395 22.776877860250487 $266 $396 forward 7 unknown #
coedge $-1 $168 $167 $397 $398 forward $66 $-1 #
coedge $-1 $399 $400 $167 $270 reversed $384 $-1 #
edge $-1 $277 -52.33069856868191 $401 52.33069856868191 $269 $402 forward 7 unknown #
coedge $-1 $263 $403 $168 $272 reversed $164 $-1 #
edge $-1 $404 -52.33069856868191 $276 52.33069856868191 $271 $405 forward 7 unknown #
coedge $-1 $266 $169 $403 $406 forward $275 $-1 #
coedge $-1 $169 $266 $399 $407 reversed $275 $-1 #
loop $-1 $-1 $273 $383 #
vertex $-1 $170 $408 #
vertex $-1 $170 $409 #
straight-curve $-1 52.33069856868191 0 8.1121469772849277 0 1 0 I I #
face $-1 $410 $411 $40 $-1 $412 forward single #
loop $-1 $-1 $288 $171 #
plane-surface $-1 0 -22.776877860250487 0 0 1 0 0 0 1 forward_v I I I I #
coedge $-1 $413 $414 $415 $416 forward $172 $-1 #
coedge $-1 $415 $174 $176 $290 reversed $109 $-1 #
coedge $-1 $174 $415 $417 $418 reversed $109 $-1 #
coedge $-1 $419 $177 $174 $286 forward $292 $-1 #
edge $-1 $294 1.5599301888034747 $420 4.8881212552554603 $285 $421 forward 7 unknown #
coedge $-1 $176 $175 $413 $422 reversed $69 $-1 #
coedge $-1 $423 $424 $175 $289 forward $280 $-1 #
edge $-1 $425 -52.33069856868191 $293 52.33069856868191 $288 $426 forward 7 unknown #
edge $-1 $427 -52.33069856868191 $294 52.33069856868191 $283 $428 forward 7 unknown #
coedge $-1 $177 $419 $423 $429 forward $292 $-1 #
loop $-1 $-1 $285 $410 #
vertex $-1 $289 $430 #
vertex $-1 $178 $431 #
straight-curve $-1 52.33069856868191 -8.9713944479760812 4.7839559108329421 0 1 0 I I #
face $-1 $-1 $432 $41 $-1 $433 reversed single #
loop $-1 $-1 $302 $179 #
plane-surface $-1 0 0 8.1121469772849277 0 0 1 1 0 0 forward_v I I I I #
coedge $-1 $434 $435 $301 $436 reversed $180 $-1 #
coedge $-1 $437 $182 $184 $306 forward $113 $-1 #
coedge $-1 $182 $437 $299 $436 forward $113 $-1 #
coedge $-1 $438 $185 $182 $303 forward $297 $-1 #
edge $-1 $309 0.01039140234664071 $439 8.7356694869870104 $302 $440 forward 7 unknown #
coedge $-1 $441 $442 $183 $305 forward $432 $-1 #
edge $-1 $443 -73.125883836689496 $308 -66.752993260746564 $304 $444 forward 7 unknown #
edge $-1 $309 95.802036790624783 $443 104.66139713736379 $184 $445 forward 7 unknown #
coedge $-1 $185 $438 $441 $446 forward $297 $-1 #
vertex $-1 $305 $447 #
vertex $-1 $186 $448 #
straight-curve $-1 27.456946629232533 -4.3834218470134658 8.1121469772849224 -1 0 0 I I #
coedge $-1 $311 $311 $-1 $449 reversed $189 $-1 #
edge $-1 $450 0 $450 6.2831853071796004 $190 $451 forward 7 unknown #
vertex $-1 $193 $452 #
ellipse-curve $-1 49.253584195586996 -8.7460608893336502 4.9257016893134526 0.71933980857756763 0 0.69465836192734942 0.34732918096367471 0 -0.35966990428878381 1 I I #
face $-1 $-1 $453 $43 $-1 $454 reversed single #
loop $-1 $-1 $200 $194 #
plane-surface $-1 0 0 8.1121469772849277 0 0 1 1 0 0 forward_v I I I I #
coedge $-1 $455 $456 $457 $458 reversed $195 $-1 #
coedge $-1 $459 $197 $199 $325 forward $122 $-1 #
coedge $-1 $197 $459 $455 $460 forward $122 $-1 #
coedge $-1 $457 $200 $197 $322 forward $316 $-1 #
edge $-1 $328 -5.7756859599880066 $461 1.160668208205518 $321 $462 forward 7 unknown #
coedge $-1 $463 $464 $198 $324 forward $453 $-1 #
edge $-1 $465 -29.734485694867132 $327 -25.140167326970328 $323 $466 forward 7 unknown #
edge $-1 $328 -5.7527097941272425 $465 0 $199 $467 forward 7 unknown #
coedge $-1 $200 $457 $463 $468 forward $316 $-1 #
vertex $-1 $324 $469 #
vertex $-1 $201 $470 #
straight-curve $-1 -67.958503857235854 -8.0831948358792509 8.1121469772849295 1 0 0 I I #
coedge $-1 $330 $330 $-1 $471 reversed $204 $-1 #
edge $-1 $472 0 $472 6.2831853071796004 $205 $473 forward 7 unknown #
vertex $-1 $208 $474 #
ellipse-curve $-1 -50.599665011103262 -6.1013793592525296 5.8149877933365222 -0.79863551827123203 0 0.60181501223851219 0.3009075061192561 0 0.39931775913561601 1 I I #
coedge $-1 $334 $334 $-1 $475 reversed $211 $-1 #
edge $-1 $476 0 $476 6.2831853071796004 $212 $477 forward 7 unknown #
vertex $-1 $215 $478 #
ellipse-curve $-1 -50.599665011103262 -3.1286561443124477 5.8149877933365222 -0.79863551827123203 0 0.60181501223851219 0.3009075061192561 0 0.39931775913561601 1 I I #
face $-1 $-1 $479 $46 $-1 $480 reversed single #
loop $-1 $-1 $222 $216 #
plane-surface $-1 0 0 8.1121469772849277 0 0 1 1 0 0 forward_v I I I I #
coedge $-1 $481 $482 $483 $484 reversed $217 $-1 #
coedge $-1 $485 $219 $221 $348 forward $136 $-1 #
coedge $-1 $219 $485 $481 $486 forward $136 $-1 #
coedge $-1 $483 $222 $219 $345 forward $339 $-1 #
edge $-1 $351 0.20524367199604754 $487 7.1415978401895721 $344 $488 forward 7 unknown #
coedge $-1 $489 $490 $220 $347 forward $479 $-1 #
edge $-1 $491 -29.734485694867132 $350 -25.140167326970328 $346 $492 forward 7 unknown #
edge $-1 $351 -5.7527097941272425 $491 0 $221 $493 forward 7 unknown #
coedge $-1 $222 $483 $489 $494 forward $339 $-1 #
vertex $-1 $223 $495 #
vertex $-1 $223 $496 #
straight-curve $-1 -67.958503857235854 3.8786644280888574 8.1121469772849295 1 0 0 I I #
coedge $-1 $353 $353 $-1 $497 reversed $226 $-1 #
edge $-1 $498 0 $498 6.2831853071796004 $227 $499 forward 7 unknown #
vertex $-1 $230 $500 #
ellipse-curve $-1 -50.599665011103262 5.8604799047155787 5.8149877933365222 -0.79863551827123203 0 0.60181501223851219 0.3009075061192561 0 0.39931775913561601 1 I I #
coedge $-1 $357 $357 $-1 $501 reversed $233 $-1 #
edge $-1 $502 0 $502 6.2831853071796004 $234 $503 forward 7 unknown #
vertex $-1 $237 $504 #
ellipse-curve $-1 -50.599665011103262 8.8332031196556606 5.8149877933365222 -0.79863551827123203 0 0.60181501223851219 0.3009075061192561 0 0.39931775913561601 1 I I #
face $-1 $-1 $505 $49 $-1 $506 reversed single #
loop $-1 $-1 $507 $238 #
plane-surface $-1 0 22.776877860250487 0 0 -1 0 0 0 -1 forward_v I I I I #
coedge $-1 $508 $241 $243 $370 forward $150 $-1 #
coedge $-1 $241 $508 $507 $509 reversed $150 $-1 #
coedge $-1 $510 $244 $241 $367 forward $239 $-1 #
edge $-1 $373 6.1861733039801017 $511 13.122527472173626 $366 $512 forward 7 unknown #
coedge $-1 $513 $514 $242 $369 forward $505 $-1 #
edge $-1 $515 -29.734485694867132 $372 -25.140167326970328 $368 $516 forward 7 unknown #
edge $-1 $373 -5.7527097941272425 $515 0 $243 $517 forward 7 unknown #
coedge $-1 $244 $510 $513 $518 forward $239 $-1 #
vertex $-1 $369 $519 #
vertex $-1 $245 $520 #
straight-curve $-1 -67.958503857235854 15.840523692056966 8.1121469772849295 1 0 0 I I #
coedge $-1 $375 $375 $-1 $521 reversed $248 $-1 #
edge $-1 $522 0 $522 6.2831853071796004 $249 $523 forward 7 unknown #
vertex $-1 $252 $524 #
ellipse-curve $-1 -50.599665011103262 17.822339168683691 5.8149877933365222 -0.79863551827123203 0 0.60181501223851219 0.3009075061192561 0 0.39931775913561601 1 I I #
coedge $-1 $379 $379 $-1 $525 reversed $255 $-1 #
edge $-1 $526 0 $526 6.2831853071796004 $256 $527 forward 7 unknown #
vertex $-1 $259 $528 #
ellipse-curve $-1 -50.599665011103262 20.795062383623765 5.8149877933365222 -0.79863551827123203 0 0.60181501223851219 0.3009075061192561 0 0.39931775913561601 1 I I #
face $-1 $-1 $275 $39 $-1 $529 reversed single #
loop $-1 $-1 $399 $260 #
plane-surface $-1 0 22.776877860250487 0 0 -1 0 0 0 -1 forward_v I I I I #
coedge $-1 $530 $397 $400 $531 forward $261 $-1 #
coedge $-1 $403 $263 $264 $391 reversed $164 $-1 #
coedge $-1 $397 $530 $263 $389 reversed $261 $-1 #
edge $-1 $404 -8.1121469772849277 $532 8.1121469772849277 $388 $533 forward 7 unknown #
coedge $-1 $265 $264 $530 $534 forward $105 $-1 #
edge $-1 $395 -52.33069856868191 $532 52.33069856868191 $387 $535 forward 7 unknown #
coedge $-1 $400 $399 $265 $393 reversed $384 $-1 #
edge $-1 $536 -52.33069856868191 $394 52.33069856868191 $392 $537 forward 7 unknown #
vertex $-1 $267 $538 #
vertex $-1 $406 $539 #
straight-curve $-1 52.33069856868191 0 -8.1121469772849277 0 -1 0 I I #
coedge $-1 $386 $388 $268 $398 reversed $261 $-1 #
edge $-1 $401 -22.776877860250487 $404 22.776877860250487 $397 $540 forward 7 unknown #
coedge $-1 $392 $269 $274 $407 forward $384 $-1 #
coedge $-1 $269 $392 $386 $531 reversed $384 $-1 #
vertex $-1 $270 $541 #
straight-curve $-1 0 22.776877860250487 8.1121469772849277 -1 0 0 I I #
coedge $-1 $271 $387 $273 $406 reversed $164 $-1 #
vertex $-1 $398 $542 #
straight-curve $-1 0 -22.776877860250487 8.1121469772849277 1 0 0 I I #
edge $-1 $276 -8.1121469772849277 $395 8.1121469772849277 $273 $543 forward 7 unknown #
edge $-1 $277 -8.1121469772849277 $394 8.1121469772849277 $274 $544 forward 7 unknown #
point $-1 52.33069856868191 -22.776877860250487 8.1121469772849277 #
point $-1 52.33069856868191 22.776877860250487 8.1121469772849277 #
face $-1 $-1 $292 $40 $-1 $545 reversed single #
loop $-1 $-1 $417 $279 #
plane-surface $-1 0 0 8.1121469772849277 0 0 1 1 0 0 forward_v I I I I #
coedge $-1 $546 $282 $287 $422 forward $172 $-1 #
coedge $-1 $282 $546 $547 $548 reversed $172 $-1 #
coedge $-1 $284 $283 $282 $416 reversed $109 $-1 #
edge $-1 $549 -4.8881212552554603 $427 -1.5599301888034747 $282 $550 forward 7 unknown #
coedge $-1 $547 $551 $284 $418 forward $411 $-1 #
edge $-1 $420 -52.33069856868191 $549 52.33069856868191 $417 $552 forward 7 unknown #
coedge $-1 $291 $285 $551 $553 reversed $292 $-1 #
vertex $-1 $286 $554 #
straight-curve $-1 52.33069856868191 -13.108699931653836 3.2240257220294675 0 0 1 I I #
edge $-1 $427 4.1373054836777552 $425 13.805483412274405 $413 $555 forward 7 unknown #
coedge $-1 $556 $288 $291 $429 reversed $280 $-1 #
coedge $-1 $288 $556 $546 $557 forward $280 $-1 #
vertex $-1 $289 $558 #
straight-curve $-1 0 -22.776877860250487 4.7839559108329421 1 0 0 I I #
vertex $-1 $422 $559 #
straight-curve $-1 0 -13.108699931653836 4.7839559108329421 1 0 0 I I #
edge $-1 $560 -8.1121469772849277 $293 -4.7839559108329421 $291 $561 forward 7 unknown #
point $-1 52.33069856868191 -22.776877860250487 4.7839559108329421 #
point $-1 52.33069856868191 -13.108699931653836 4.7839559108329421 #
loop $-1 $-1 $304 $296 #
plane-surface $-1 52.33069856868191 0 0 -1 0 0 0 0 1 forward_v I I I I #
coedge $-1 $435 $299 $562 $563 reversed $180 $-1 #
coedge $-1 $299 $434 $438 $564 reversed $180 $-1 #
edge $-1 $565 -104.66139713736379 $439 -95.802036790624783 $299 $566 forward 7 unknown #
coedge $-1 $301 $300 $442 $567 reversed $113 $-1 #
coedge $-1 $307 $302 $435 $564 forward $297 $-1 #
vertex $-1 $564 $568 #
straight-curve $-1 46.176469822492052 -4.3730304446668251 8.1121469772849295 0 -1 0 I I #
coedge $-1 $562 $304 $307 $446 reversed $432 $-1 #
coedge $-1 $304 $562 $437 $567 forward $432 $-1 #
vertex $-1 $305 $569 #
straight-curve $-1 52.33069856868191 -4.3834218470134658 74.865140238031486 0 0 1 I I #
straight-curve $-1 -20.373216123787003 -4.3834218470134658 77.026365783594045 0.69465836192734942 0 -0.71933980857756763 I I #
edge $-1 $570 -13.108699931653836 $308 -4.3834218470134658 $441 $571 forward 7 unknown #
point $-1 52.33069856868191 -4.3834218470134658 8.1121469772849277 #
point $-1 46.176469822492066 -4.3834218470134658 8.1121469772849224 #
edge $-1 $572 1 $572 0 $311 $-1 forward 7 unknown #
vertex $-1 $312 $573 #
ellipse-curve $-1 48.088518021963637 -8.7460608893336502 3.8006103902422526 0.71933980857756763 0 0.69465836192734942 0.34732918096367471 0 -0.35966990428878381 1 I I #
point $-1 49.60091337655065 -8.7460608893336502 4.5660317850246503 #
loop $-1 $-1 $323 $315 #
plane-surface $-1 -52.33069856868191 0 0 1 0 0 0 0 -1 forward_v I I I I #
coedge $-1 $456 $318 $320 $460 reversed $195 $-1 #
coedge $-1 $318 $455 $574 $575 reversed $195 $-1 #
coedge $-1 $326 $321 $318 $458 forward $316 $-1 #
edge $-1 $461 -19.08987240371124 $576 -15.627805288553944 $457 $577 forward 7 unknown #
coedge $-1 $320 $319 $464 $578 reversed $122 $-1 #
edge $-1 $579 0 $461 5.7527097941272425 $455 $580 forward 7 unknown #
vertex $-1 $322 $581 #
straight-curve $-1 -48.868631453524614 -2.3075088758912443 8.1121469772849295 0 1 0 I I #
coedge $-1 $574 $323 $326 $468 reversed $453 $-1 #
coedge $-1 $323 $574 $459 $578 forward $453 $-1 #
vertex $-1 $324 $582 #
straight-curve $-1 -52.33069856868191 -8.0831948358792509 33.252314304255258 0 0 1 I I #
straight-curve $-1 -52.33069856868191 -8.0831948358792509 3.5178286093881255 -0.60181501223851219 0 -0.79863551827123203 I I #
edge $-1 $576 1.1468406676857263 $327 8.0831948358792509 $463 $583 forward 7 unknown #
point $-1 -52.33069856868191 -8.0831948358792509 8.1121469772849277 #
point $-1 -48.868631453524614 -8.0831948358792509 8.1121469772849277 #
edge $-1 $584 1 $584 0 $330 $-1 forward 7 unknown #
vertex $-1 $331 $585 #
ellipse-curve $-1 -49.259664924391785 -6.1013793592525296 4.8052253295664169 -0.79863551827123203 0 0.60181501223851219 0.3009075061192561 0 0.39931775913561601 1 I I #
point $-1 -50.298757504984003 -6.1013793592525296 6.2143055524721387 #
edge $-1 $586 1 $586 0 $334 $-1 forward 7 unknown #
vertex $-1 $335 $587 #
ellipse-curve $-1 -49.259664924391785 -3.1286561443124477 4.8052253295664169 -0.79863551827123203 0 0.60181501223851219 0.3009075061192561 0 0.39931775913561601 1 I I #
point $-1 -50.298757504984003 -3.1286561443124477 6.2143055524721387 #
loop $-1 $-1 $346 $338 #
plane-surface $-1 -52.33069856868191 0 0 1 0 0 0 0 -1 forward_v I I I I #
coedge $-1 $482 $341 $343 $486 reversed $217 $-1 #
coedge $-1 $341 $481 $588 $589 reversed $217 $-1 #
coedge $-1 $349 $344 $341 $484 forward $339 $-1 #
edge $-1 $487 -19.08987240371124 $590 -15.627805288553944 $483 $591 forward 7 unknown #
coedge $-1 $343 $342 $490 $592 reversed $136 $-1 #
edge $-1 $593 0 $487 5.7527097941272425 $481 $594 forward 7 unknown #
vertex $-1 $345 $595 #
straight-curve $-1 -48.868631453524614 3.6734207560928098 8.1121469772849295 0 1 0 I I #
coedge $-1 $588 $346 $349 $494 reversed $479 $-1 #
coedge $-1 $346 $588 $485 $592 forward $479 $-1 #
vertex $-1 $347 $596 #
straight-curve $-1 -52.33069856868191 3.8786644280888574 33.252314304255258 0 0 1 I I #
straight-curve $-1 -52.33069856868191 3.8786644280888574 3.5178286093881255 -0.60181501223851219 0 -0.79863551827123203 I I #
edge $-1 $590 -10.815018596282382 $350 -3.8786644280888574 $489 $597 forward 7 unknown #
point $-1 -52.33069856868191 3.8786644280888574 8.1121469772849277 #
point $-1 -48.868631453524614 3.8786644280888574 8.1121469772849277 #
edge $-1 $598 1 $598 0 $353 $-1 forward 7 unknown #
vertex $-1 $354 $599 #
ellipse-curve $-1 -49.259664924391785 5.8604799047155787 4.8052253295664169 -0.79863551827123203 0 0.60181501223851219 0.3009075061192561 0 0.39931775913561601 1 I I #
point $-1 -50.298757504984003 5.8604799047155787 6.2143055524721387 #
edge $-1 $600 1 $600 0 $357 $-1 forward 7 unknown #
vertex $-1 $358 $601 #
ellipse-curve $-1 -49.259664924391785 8.8332031196556606 4.8052253295664169 -0.79863551827123203 0 0.60181501223851219 0.3009075061192561 0 0.39931775913561601 1 I I #
point $-1 -50.298757504984003 8.8332031196556606 6.2143055524721387 #
loop $-1 $-1 $368 $361 #
plane-surface $-1 -52.33069856868191 0 0 1 0 0 0 0 -1 forward_v I I I I #
coedge $-1 $602 $603 $365 $509 forward $362 $-1 #
coedge $-1 $365 $364 $514 $604 reversed $150 $-1 #
edge $-1 $511 8.58925876832933 $605 14.341968562456573 $507 $606 forward 7 unknown #
coedge $-1 $371 $366 $603 $607 forward $239 $-1 #
vertex $-1 $607 $608 #
straight-curve $-1 -48.868631453524614 9.654350388076864 8.1121469772849295 0 1 0 I I #
coedge $-1 $609 $368 $371 $518 reversed $505 $-1 #
coedge $-1 $368 $609 $508 $604 forward $505 $-1 #
vertex $-1 $369 $610 #
straight-curve $-1 -52.33069856868191 15.840523692056966 33.252314304255258 0 0 1 I I #
straight-curve $-1 -52.33069856868191 15.840523692056966 3.5178286093881255 -0.60181501223851219 0 -0.79863551827123203 I I #
edge $-1 $611 -22.776877860250487 $372 -15.840523692056966 $513 $612 forward 7 unknown #
point $-1 -52.33069856868191 15.840523692056966 8.1121469772849277 #
point $-1 -48.868631453524614 15.840523692056966 8.1121469772849277 #
edge $-1 $613 1 $613 0 $375 $-1 forward 7 unknown #
vertex $-1 $376 $614 #
ellipse-curve $-1 -49.259664924391785 17.822339168683691 4.8052253295664169 -0.79863551827123203 0 0.60181501223851219 0.3009075061192561 0 0.39931775913561601 1 I I #
point $-1 -50.298757504984003 17.822339168683691 6.2143055524721387 #
edge $-1 $615 1 $615 0 $379 $-1 forward 7 unknown #
vertex $-1 $380 $616 #
ellipse-curve $-1 -49.259664924391785 20.795062383623765 4.8052253295664169 -0.79863551827123203 0 0.60181501223851219 0.3009075061192561 0 0.39931775913561601 1 I I #
point $-1 -50.298757504984003 20.795062383623765 6.2143055524721387 #
plane-surface $-1 52.33069856868191 0 0 -1 0 0 0 0 1 forward_v I I I I #
coedge $-1 $388 $386 $390 $534 reversed $261 $-1 #
edge $-1 $401 -8.1121469772849277 $536 8.1121469772849277 $400 $617 forward 7 unknown #
vertex $-1 $534 $618 #
straight-curve $-1 -52.33069856868191 -22.776877860250487 0 0 0 -1 I I #
edge $-1 $532 -22.776877860250487 $536 22.776877860250487 $530 $619 forward 7 unknown #
straight-curve $-1 0 -22.776877860250487 -8.1121469772849277 -1 0 0 I I #
vertex $-1 $393 $620 #
straight-curve $-1 0 22.776877860250487 -8.1121469772849277 1 0 0 I I #
point $-1 52.33069856868191 22.776877860250487 -8.1121469772849277 #
point $-1 52.33069856868191 -22.776877860250487 -8.1121469772849277 #
straight-curve $-1 -52.33069856868191 0 8.1121469772849277 0 -1 0 I I #
point $-1 -52.33069856868191 22.776877860250487 8.1121469772849277 #
point $-1 -52.33069856868191 -22.776877860250487 8.1121469772849277 #
straight-curve $-1 52.33069856868191 -22.776877860250487 0 0 0 -1 I I #
straight-curve $-1 52.33069856868191 22.776877860250487 0 0 0 -1 I I #
plane-surface $-1 52.33069856868191 0 0 -1 0 0 0 0 1 forward_v I I I I #
coedge $-1 $414 $413 $424 $557 reversed $172 $-1 #
coedge $-1 $621 $417 $414 $548 forward $411 $-1 #
edge $-1 $549 13.108699931653836 $622 22.776877860250487 $414 $623 forward 7 unknown #
vertex $-1 $548 $624 #
straight-curve $-1 -52.33069856868191 -13.108699931653836 3.2240257220294675 0 0 -1 I I #
coedge $-1 $417 $621 $419 $553 forward $411 $-1 #
straight-curve $-1 0 -13.108699931653836 8.1121469772849277 -1 0 0 I I #
edge $-1 $560 -22.776877860250487 $420 -13.108699931653836 $419 $625 forward 7 unknown #
point $-1 52.33069856868191 -13.108699931653836 8.1121469772849277 #
straight-curve $-1 -52.33069856868191 -8.9713944479760812 4.7839559108329421 0 -1 0 I I #
coedge $-1 $424 $423 $621 $626 reversed $280 $-1 #
edge $-1 $622 -8.1121469772849277 $425 -4.7839559108329421 $546 $627 forward 7 unknown #
point $-1 -52.33069856868191 -22.776877860250487 4.7839559108329421 #
point $-1 -52.33069856868191 -13.108699931653836 4.7839559108329421 #
vertex $-1 $553 $628 #
straight-curve $-1 52.33069856868191 -22.776877860250487 0 0 0 -1 I I #
coedge $-1 $442 $441 $434 $563 forward $432 $-1 #
edge $-1 $570 66.752993260746564 $565 73.125883836689496 $562 $629 forward 7 unknown #
edge $-1 $439 46.176469822492066 $570 52.33069856868191 $438 $630 forward 7 unknown #
vertex $-1 $563 $631 #
straight-curve $-1 -20.373216123787003 -13.108699931653835 77.026365783594045 -0.69465836192734942 0 0.71933980857756763 I I #
edge $-1 $565 -8.7356694869870104 $443 -0.01039140234664071 $442 $632 forward 7 unknown #
point $-1 46.176469822492066 -13.108699931653836 8.1121469772849277 #
point $-1 52.33069856868191 -4.3834218470134658 1.73925640134199 #
vertex $-1 $446 $633 #
straight-curve $-1 52.33069856868191 0 8.1121469772849277 0 1 0 I I #
vertex $-1 $449 $634 #
point $-1 48.435847202927313 -8.7460608893336502 3.4409404859534689 #
coedge $-1 $464 $463 $456 $575 forward $453 $-1 #
edge $-1 $576 25.140167326970328 $579 29.734485694867132 $574 $635 forward 7 unknown #
vertex $-1 $468 $636 #
straight-curve $-1 -67.958503857235854 -1.1468406676857263 8.1121469772849295 -1 0 0 I I #
edge $-1 $579 -1.160668208205518 $465 5.7756859599880066 $464 $637 forward 7 unknown #
vertex $-1 $578 $638 #
straight-curve $-1 -52.33069856868191 -1.1468406676857263 3.5178286093881255 0.60181501223851219 0 0.79863551827123203 I I #
point $-1 -48.868631453524614 -1.1468406676857263 8.1121469772849277 #
point $-1 -52.33069856868191 -8.0831948358792509 3.5178286093881255 #
straight-curve $-1 -52.33069856868191 0 8.1121469772849277 0 -1 0 I I #
vertex $-1 $471 $639 #
point $-1 -48.958757418272533 -6.1013793592525296 5.2045430887020334 #
vertex $-1 $475 $640 #
point $-1 -48.958757418272533 -3.1286561443124477 5.2045430887020334 #
coedge $-1 $490 $489 $482 $589 forward $479 $-1 #
edge $-1 $590 25.140167326970328 $593 29.734485694867132 $588 $641 forward 7 unknown #
vertex $-1 $494 $642 #
straight-curve $-1 -67.958503857235854 10.815018596282382 8.1121469772849295 -1 0 0 I I #
edge $-1 $593 -7.1415978401895721 $491 -0.20524367199604754 $490 $643 forward 7 unknown #
vertex $-1 $592 $644 #
straight-curve $-1 -52.33069856868191 10.815018596282382 3.5178286093881255 0.60181501223851219 0 0.79863551827123203 I I #
point $-1 -48.868631453524614 10.815018596282382 8.1121469772849277 #
point $-1 -52.33069856868191 3.8786644280888574 3.5178286093881255 #
straight-curve $-1 -52.33069856868191 0 8.1121469772849277 0 -1 0 I I #
vertex $-1 $497 $645 #
point $-1 -48.958757418272533 5.8604799047155787 5.2045430887020334 #
vertex $-1 $501 $646 #
point $-1 -48.958757418272533 8.8332031196556606 5.2045430887020334 #
coedge $-1 $603 $507 $609 $647 reversed $362 $-1 #
coedge $-1 $507 $602 $510 $607 reversed $362 $-1 #
edge $-1 $605 -13.122527472173626 $515 -6.1861733039801017 $514 $648 forward 7 unknown #
vertex $-1 $509 $649 #
straight-curve $-1 -43.69948658274275 22.776877860250487 14.971834105295347 -0.60181501223851219 0 -0.79863551827123203 I I #
edge $-1 $511 48.868631453524614 $611 52.33069856868191 $603 $650 forward 7 unknown #
point $-1 -48.868631453524614 22.77687786025049 8.1121469772849277 #
coedge $-1 $514 $513 $602 $647 forward $505 $-1 #
point $-1 -52.33069856868191 15.840523692056966 3.5178286093881255 #
vertex $-1 $607 $651 #
straight-curve $-1 -52.33069856868191 0 8.1121469772849277 0 -1 0 I I #
vertex $-1 $521 $652 #
point $-1 -48.958757418272533 17.822339168683691 5.2045430887020334 #
vertex $-1 $525 $653 #
point $-1 -48.958757418272533 20.795062383623765 5.2045430887020334 #
straight-curve $-1 -52.33069856868191 22.776877860250487 0 0 0 -1 I I #
point $-1 -52.33069856868191 -22.776877860250487 -8.1121469772849277 #
straight-curve $-1 -52.33069856868191 0 -8.1121469772849277 0 1 0 I I #
point $-1 -52.33069856868191 22.776877860250487 -8.1121469772849277 #
coedge $-1 $551 $547 $556 $626 forward $411 $-1 #
vertex $-1 $548 $654 #
straight-curve $-1 -52.33069856868191 0 8.1121469772849277 0 -1 0 I I #
point $-1 -52.33069856868191 -13.108699931653836 8.1121469772849277 #
straight-curve $-1 52.33069856868191 0 8.1121469772849277 0 1 0 I I #
edge $-1 $622 -52.33069856868191 $560 52.33069856868191 $556 $655 forward 7 unknown #
straight-curve $-1 -52.33069856868191 -22.776877860250487 0 0 0 -1 I I #
point $-1 52.33069856868191 -22.776877860250487 8.1121469772849277 #
straight-curve $-1 52.33069856868191 -13.108699931653835 74.865140238031486 0 0 -1 I I #
straight-curve $-1 0 -13.108699931653836 8.1121469772849277 1 0 0 I I #
point $-1 52.33069856868191 -13.108699931653835 1.73925640134199 #
straight-curve $-1 52.330698568681903 -4.3730304446668251 1.7392564013419971 0 1 0 I I #
point $-1 52.33069856868191 -13.108699931653836 8.1121469772849277 #
point $-1 47.728848117674858 -8.7460608893336502 3.4532812092785781 #
straight-curve $-1 -52.33069856868191 -1.1468406676857263 33.252314304255258 0 0 -1 I I #
point $-1 -52.33069856868191 -1.1468406676857263 8.1121469772849277 #
straight-curve $-1 -52.33069856868191 -2.3075088758912443 3.517828609388121 0 -1 0 I I #
point $-1 -52.33069856868191 -1.1468406676857263 3.5178286093881255 #
point $-1 -48.860347165256172 -6.1013793592525296 4.5043178234471615 #
point $-1 -48.860347165256172 -3.1286561443124477 4.5043178234471615 #
straight-curve $-1 -52.33069856868191 10.815018596282382 33.252314304255258 0 0 -1 I I #
point $-1 -52.33069856868191 10.815018596282382 8.1121469772849277 #
straight-curve $-1 -52.33069856868191 3.6734207560928098 3.517828609388121 0 -1 0 I I #
point $-1 -52.33069856868191 10.815018596282382 3.5178286093881255 #
point $-1 -48.860347165256172 5.8604799047155787 4.5043178234471615 #
point $-1 -48.860347165256172 8.8332031196556606 4.5043178234471615 #
edge $-1 $611 -8.1121469772849277 $605 -3.5178286093881255 $602 $656 forward 7 unknown #
straight-curve $-1 -52.33069856868191 9.654350388076864 3.517828609388121 0 -1 0 I I #
point $-1 -52.33069856868191 22.77687786025049 3.5178286093881255 #
straight-curve $-1 0 22.776877860250487 8.1121469772849277 -1 0 0 I I #
point $-1 -52.33069856868191 22.776877860250487 8.1121469772849277 #
point $-1 -48.860347165256172 17.822339168683691 4.5043178234471615 #
point $-1 -48.860347165256172 20.795062383623765 4.5043178234471615 #
point $-1 -52.33069856868191 -22.776877860250487 8.1121469772849277 #
straight-curve $-1 0 -22.776877860250487 8.1121469772849277 1 0 0 I I #
straight-curve $-1 -52.33069856868191 22.776877860250487 0 0 0 -1 I I #
End-of-ACIS-data 