500 0 4 0           
7 Unknown 11 ACIS 5.0 NT 24 Fri Mar 26 14:53:05 1999 
-1 9.9999999999999995e-007 1e-010 
body $-1 $4 $-1 $5 #
body $-1 $6 $-1 $7 #
body $-1 $8 $-1 $9 #
body $-1 $10 $-1 $11 #
lump $-1 $-1 $12 $0 #
transform $-1 1 0 0 0 1 0 0 0 1 78.670613727225557 52.879799807146526 19.468229162679282 1 rotate no_reflect no_shear #
lump $-1 $-1 $13 $1 #
transform $-1 1 0 0 0 1 0 0 0 1 78.670613727225557 52.879799807146526 19.468229162679282 1 rotate no_reflect no_shear #
lump $-1 $-1 $14 $2 #
transform $-1 1 0 0 0 1 0 0 0 1 78.670613727225557 52.879799807146526 19.468229162679282 1 rotate no_reflect no_shear #
lump $-1 $-1 $15 $3 #
transform $-1 1 0 0 0 1 0 0 0 1 78.670613727225557 52.879799807146526 19.468229162679282 1 rotate no_reflect no_shear #
shell $-1 $-1 $-1 $16 $-1 $4 #
shell $-1 $-1 $-1 $17 $-1 $6 #
shell $-1 $-1 $-1 $18 $-1 $8 #
shell $-1 $-1 $-1 $19 $-1 $10 #
face $-1 $20 $21 $12 $-1 $22 forward single #
face $-1 $23 $24 $13 $-1 $25 forward single #
face $-1 $26 $27 $14 $-1 $28 reversed single #
face $-1 $29 $30 $15 $-1 $31 forward single #
face $-1 $32 $33 $12 $-1 $34 reversed single #
loop $-1 $-1 $35 $16 #
plane-surface $-1 0 0 19.468229162679282 0 0 1 1 0 0 forward_v I I I I #
face $-1 $36 $37 $13 $-1 $38 reversed single #
loop $-1 $-1 $39 $17 #
plane-surface $-1 0 -52.879799807146526 0 0 1 0 0 0 1 forward_v I I I I #
face $-1 $40 $41 $14 $-1 $42 reversed single #
loop $-1 $-1 $43 $18 #
plane-surface $-1 113.47949063830369 -8.7302916147396168 221.77487103200224 0 -1 0 -0.80901700255871778 0 -0.5877852410284794 forward_v I I I I #
face $-1 $44 $45 $15 $-1 $46 forward single #
loop $-1 $47 $48 $19 #
cone-surface $-1 69.465814167991596 -16.034962755103223 8.6569300353534313 -0.80901700255871778 0 -0.5877852410284794 1.1755704820569588 0 -1.6180340051174356 1 I I 0 1 2 forward I I I I #
face $-1 $49 $50 $12 $-1 $51 reversed single #
loop $-1 $-1 $52 $20 #
plane-surface $-1 0 0 -19.468229162679282 0 0 1 1 0 0 forward_v I I I I #
coedge $-1 $53 $54 $55 $56 forward $21 $-1 #
face $-1 $57 $58 $13 $-1 $59 reversed single #
loop $-1 $-1 $60 $23 #
plane-surface $-1 0 0 -19.468229162679282 0 0 1 1 0 0 forward_v I I I I #
coedge $-1 $61 $62 $63 $64 forward $24 $-1 #
face $-1 $65 $66 $14 $-1 $67 reversed single #
loop $-1 $-1 $68 $26 #
plane-surface $-1 -13.812237575805781 -16.034962755103223 129.2920197289709 0.80901700255871778 0 0.5877852410284794 0.5877852410284794 0 -0.80901700255871778 forward_v I I I I #
coedge $-1 $69 $70 $71 $72 reversed $27 $-1 #
face $-1 $-1 $73 $15 $-1 $74 forward single #
loop $-1 $75 $76 $29 #
cone-surface $-1 65.797597209247996 -16.034962755103223 5.9918144909080375 -0.80901700255871778 0 -0.5877852410284794 0.5877852410284794 0 -0.80901700255871778 1 I I -0.70710678118654746 0.70710678118654746 1 forward I I I I #
loop $-1 $-1 $77 $19 #
coedge $-1 $48 $48 $78 $79 reversed $30 $-1 #
face $-1 $80 $81 $12 $-1 $82 reversed single #
loop $-1 $-1 $83 $32 #
plane-surface $-1 0 -52.879799807146526 0 0 1 0 0 0 1 forward_v I I I I #
coedge $-1 $84 $85 $86 $87 forward $33 $-1 #
coedge $-1 $88 $35 $89 $90 forward $21 $-1 #
coedge $-1 $35 $88 $91 $92 forward $21 $-1 #
coedge $-1 $93 $94 $35 $56 reversed $95 $-1 #
edge $-1 $96 -52.879799807146526 $97 52.879799807146526 $55 $98 forward 7 unknown #
face $-1 $99 $100 $13 $-1 $101 reversed single #
loop $-1 $-1 $102 $36 #
plane-surface $-1 -44.366021844609122 -69.447038833302855 0 0 1 0 0 0 1 forward_v I I I I #
coedge $-1 $103 $104 $62 $105 forward $37 $-1 #
coedge $-1 $106 $39 $107 $108 reversed $24 $-1 #
coedge $-1 $39 $106 $60 $105 reversed $24 $-1 #
coedge $-1 $109 $110 $39 $64 reversed $100 $-1 #
edge $-1 $111 -19.468229162679282 $112 19.468229162679282 $63 $113 forward 7 unknown #
face $-1 $114 $115 $14 $-1 $116 forward single #
loop $-1 $-1 $117 $40 #
plane-surface $-1 113.47949063830369 -23.339633895466829 221.77487103200224 0 1 0 0.80901700255871778 0 0.5877852410284794 forward_v I I I I #
coedge $-1 $118 $119 $120 $121 reversed $41 $-1 #
coedge $-1 $70 $43 $122 $123 reversed $27 $-1 #
coedge $-1 $43 $69 $118 $124 reversed $27 $-1 #
coedge $-1 $120 $125 $43 $72 forward $115 $-1 #
edge $-1 $126 -21.930868408073714 $127 -9.239669201975623 $71 $128 forward 7 unknown #
loop $-1 $-1 $78 $44 #
plane-surface $-1 -13.812237575805781 -16.034962755103223 129.2920197289709 0.80901700255871778 0 0.5877852410284794 0.5877852410284794 0 -0.80901700255871778 forward_v I I I I #
loop $-1 $-1 $129 $29 #
coedge $-1 $76 $76 $77 $130 reversed $45 $-1 #
coedge $-1 $77 $77 $76 $130 forward $47 $-1 #
coedge $-1 $78 $78 $48 $79 forward $73 $-1 #
edge $-1 $131 0 $131 6.2831853071796004 $78 $132 forward 7 unknown #
face $-1 $133 $134 $12 $-1 $135 reversed single #
loop $-1 $-1 $136 $49 #
plane-surface $-1 -78.670613727225557 0 0 1 0 0 0 0 -1 forward_v I I I I #
coedge $-1 $137 $91 $138 $139 forward $50 $-1 #
coedge $-1 $140 $52 $137 $141 forward $33 $-1 #
coedge $-1 $52 $140 $142 $143 forward $33 $-1 #
coedge $-1 $94 $93 $52 $87 reversed $95 $-1 #
edge $-1 $144 -52.879799807146526 $145 52.879799807146526 $86 $146 forward 7 unknown #
coedge $-1 $54 $53 $147 $148 forward $21 $-1 #
coedge $-1 $149 $150 $53 $90 reversed $134 $-1 #
edge $-1 $97 -78.670613727225557 $151 78.670613727225557 $89 $152 forward 7 unknown #
coedge $-1 $83 $153 $54 $92 reversed $50 $-1 #
edge $-1 $154 -78.670613727225557 $96 78.670613727225557 $91 $155 forward 7 unknown #
coedge $-1 $86 $55 $153 $156 forward $95 $-1 #
coedge $-1 $55 $86 $149 $157 reversed $95 $-1 #
loop $-1 $-1 $93 $133 #
vertex $-1 $56 $158 #
vertex $-1 $56 $159 #
straight-curve $-1 78.670613727225557 0 19.468229162679282 0 1 0 I I #
face $-1 $160 $161 $13 $-1 $162 reversed single #
loop $-1 $-1 $63 $57 #
plane-surface $-1 -48.997888287351252 -61.163419320224691 0 1 0 0 0 0 -1 forward_v I I I I #
coedge $-1 $163 $164 $165 $166 forward $58 $-1 #
coedge $-1 $167 $60 $168 $169 forward $37 $-1 #
coedge $-1 $60 $167 $109 $170 forward $37 $-1 #
edge $-1 $111 -48.997888287351252 $171 -39.734155401866992 $60 $172 forward 7 unknown #
coedge $-1 $62 $61 $173 $174 forward $24 $-1 #
coedge $-1 $175 $176 $61 $108 forward $177 $-1 #
edge $-1 $178 39.734155401866992 $112 48.997888287351252 $107 $179 forward 7 unknown #
coedge $-1 $165 $63 $104 $170 reversed $100 $-1 #
coedge $-1 $63 $165 $175 $180 reversed $100 $-1 #
vertex $-1 $105 $181 #
vertex $-1 $180 $182 #
straight-curve $-1 -48.997888287351252 -52.879799807146526 0 0 0 1 I I #
face $-1 $-1 $183 $14 $-1 $184 reversed single #
loop $-1 $-1 $71 $65 #
plane-surface $-1 0 0 19.468229162679282 0 0 1 1 0 0 forward_v I I I I #
coedge $-1 $185 $186 $187 $188 reversed $66 $-1 #
coedge $-1 $189 $68 $70 $124 forward $41 $-1 #
coedge $-1 $68 $189 $185 $190 forward $41 $-1 #
coedge $-1 $187 $71 $68 $121 forward $115 $-1 #
edge $-1 $127 0.7128102371880054 $191 15.322152517915217 $120 $192 forward 7 unknown #
coedge $-1 $193 $194 $69 $123 forward $183 $-1 #
edge $-1 $195 -108.88714400113967 $126 -91.41920635332184 $122 $196 forward 7 unknown #
edge $-1 $127 135.74966931343411 $195 157.34122745445109 $70 $197 forward 7 unknown #
coedge $-1 $71 $187 $193 $198 forward $115 $-1 #
vertex $-1 $72 $199 #
vertex $-1 $72 $200 #
straight-curve $-1 56.739745319151844 -8.7302916147396168 19.468229162679279 -1 0 0 I I #
coedge $-1 $129 $129 $-1 $201 reversed $75 $-1 #
edge $-1 $202 0 $202 6.2831853071796004 $76 $203 forward 7 unknown #
vertex $-1 $79 $204 #
ellipse-curve $-1 72.325014124176505 -16.034962755103223 10.734260338770369 0.80901700255871778 0 0.5877852410284794 1.1755704820569588 0 -1.6180340051174356 1 I I #
face $-1 $-1 $95 $12 $-1 $205 reversed single #
loop $-1 $-1 $149 $80 #
plane-surface $-1 0 52.879799807146526 0 0 -1 0 0 0 -1 forward_v I I I I #
coedge $-1 $206 $147 $150 $207 forward $81 $-1 #
coedge $-1 $153 $83 $84 $141 reversed $50 $-1 #
coedge $-1 $147 $206 $83 $139 reversed $81 $-1 #
edge $-1 $154 -19.468229162679282 $208 19.468229162679282 $138 $209 forward 7 unknown #
coedge $-1 $85 $84 $206 $210 forward $33 $-1 #
edge $-1 $145 -78.670613727225557 $208 78.670613727225557 $137 $211 forward 7 unknown #
coedge $-1 $150 $149 $85 $143 reversed $134 $-1 #
edge $-1 $212 -78.670613727225557 $144 78.670613727225557 $142 $213 forward 7 unknown #
vertex $-1 $87 $214 #
vertex $-1 $156 $215 #
straight-curve $-1 78.670613727225557 0 -19.468229162679282 0 -1 0 I I #
coedge $-1 $136 $138 $88 $148 reversed $81 $-1 #
edge $-1 $151 -52.879799807146526 $154 52.879799807146526 $147 $216 forward 7 unknown #
coedge $-1 $142 $89 $94 $157 forward $134 $-1 #
coedge $-1 $89 $142 $136 $207 reversed $134 $-1 #
vertex $-1 $90 $217 #
straight-curve $-1 0 52.879799807146526 19.468229162679282 -1 0 0 I I #
coedge $-1 $91 $137 $93 $156 reversed $50 $-1 #
vertex $-1 $148 $218 #
straight-curve $-1 0 -52.879799807146526 19.468229162679282 1 0 0 I I #
edge $-1 $96 -19.468229162679282 $145 19.468229162679282 $93 $219 forward 7 unknown #
edge $-1 $97 -19.468229162679282 $144 19.468229162679282 $94 $220 forward 7 unknown #
point $-1 78.670613727225557 -52.879799807146526 19.468229162679282 #
point $-1 78.670613727225557 52.879799807146526 19.468229162679282 #
face $-1 $-1 $177 $13 $-1 $221 forward single #
loop $-1 $-1 $222 $99 #
plane-surface $-1 -39.734155401866992 -61.163419320224691 0 -1 0 0 0 0 1 forward_v I I I I #
coedge $-1 $223 $102 $167 $224 reversed $58 $-1 #
coedge $-1 $102 $223 $225 $226 reversed $58 $-1 #
coedge $-1 $110 $109 $102 $166 reversed $100 $-1 #
edge $-1 $227 -19.468229162679282 $228 19.468229162679282 $165 $229 forward 7 unknown #
coedge $-1 $104 $103 $163 $224 forward $37 $-1 #
coedge $-1 $173 $222 $103 $169 reversed $161 $-1 #
edge $-1 $171 -8.2836195130781647 $230 8.2836195130781647 $168 $231 forward 7 unknown #
edge $-1 $228 -8.2836195130781647 $111 8.2836195130781647 $109 $232 forward 7 unknown #
vertex $-1 $169 $233 #
straight-curve $-1 0 -52.879799807146526 -19.468229162679282 1 0 0 I I #
coedge $-1 $234 $168 $106 $174 reversed $161 $-1 #
edge $-1 $178 -19.468229162679282 $171 19.468229162679282 $173 $235 forward 7 unknown #
coedge $-1 $225 $107 $110 $180 forward $177 $-1 #
coedge $-1 $107 $225 $234 $236 forward $177 $-1 #
loop $-1 $-1 $107 $160 #
vertex $-1 $108 $237 #
straight-curve $-1 0 -52.879799807146526 19.468229162679282 -1 0 0 I I #
edge $-1 $112 -8.2836195130781647 $227 8.2836195130781647 $110 $238 forward 7 unknown #
point $-1 -48.997888287351252 -52.879799807146526 -19.468229162679282 #
point $-1 -48.997888287351252 -52.879799807146526 19.468229162679282 #
loop $-1 $-1 $122 $114 #
plane-surface $-1 78.670613727225557 0 0 -1 0 0 0 0 1 forward_v I I I I #
coedge $-1 $186 $117 $119 $190 reversed $66 $-1 #
coedge $-1 $117 $185 $239 $240 reversed $66 $-1 #
coedge $-1 $125 $120 $117 $188 forward $115 $-1 #
edge $-1 $191 9.239669201975623 $241 21.930868408073714 $187 $242 forward 7 unknown #
coedge $-1 $119 $118 $194 $243 reversed $41 $-1 #
edge $-1 $244 -157.34122745445109 $191 -135.74966931343411 $185 $245 forward 7 unknown #
vertex $-1 $121 $246 #
straight-curve $-1 65.979414521127467 -8.0174813775516114 19.468229162679279 0 -1 0 I I #
coedge $-1 $239 $122 $125 $198 reversed $183 $-1 #
coedge $-1 $122 $239 $189 $243 forward $183 $-1 #
vertex $-1 $123 $247 #
straight-curve $-1 78.670613727225557 -8.7302916147396168 110.88743551600112 0 0 1 I I #
straight-curve $-1 -13.812237575805781 -8.7302916147396168 129.2920197289709 0.5877852410284794 0 -0.80901700255871778 I I #
edge $-1 $241 -23.339633895466829 $126 -8.7302916147396168 $193 $248 forward 7 unknown #
point $-1 78.670613727225557 -8.7302916147396168 19.468229162679282 #
point $-1 65.979414521127467 -8.7302916147396168 19.468229162679279 #
edge $-1 $249 1 $249 0 $129 $-1 forward 7 unknown #
vertex $-1 $130 $250 #
ellipse-curve $-1 66.606614211806715 -16.034962755103223 6.5795997319365167 0.80901700255871778 0 0.5877852410284794 1.1755704820569588 0 -1.6180340051174356 1 I I #
point $-1 73.500584606233417 -16.034962755103223 9.1162263336529108 #
plane-surface $-1 78.670613727225557 0 0 -1 0 0 0 0 1 forward_v I I I I #
coedge $-1 $138 $136 $140 $210 reversed $81 $-1 #
edge $-1 $151 -19.468229162679282 $212 19.468229162679282 $150 $251 forward 7 unknown #
vertex $-1 $210 $252 #
straight-curve $-1 -78.670613727225557 -52.879799807146526 0 0 0 -1 I I #
edge $-1 $208 -52.879799807146526 $212 52.879799807146526 $206 $253 forward 7 unknown #
straight-curve $-1 0 -52.879799807146526 -19.468229162679282 -1 0 0 I I #
vertex $-1 $143 $254 #
straight-curve $-1 0 52.879799807146526 -19.468229162679282 1 0 0 I I #
point $-1 78.670613727225557 52.879799807146526 -19.468229162679282 #
point $-1 78.670613727225557 -52.879799807146526 -19.468229162679282 #
straight-curve $-1 -78.670613727225557 0 19.468229162679282 0 -1 0 I I #
point $-1 -78.670613727225557 52.879799807146526 19.468229162679282 #
point $-1 -78.670613727225557 -52.879799807146526 19.468229162679282 #
straight-curve $-1 78.670613727225557 -52.879799807146526 0 0 0 -1 I I #
straight-curve $-1 78.670613727225557 52.879799807146526 0 0 0 -1 I I #
plane-surface $-1 0 0 19.468229162679282 0 0 1 1 0 0 forward_v I I I I #
coedge $-1 $168 $234 $223 $255 forward $161 $-1 #
coedge $-1 $164 $163 $222 $255 reversed $58 $-1 #
edge $-1 $230 -4.6318664427421297 $228 4.6318664427421297 $163 $256 forward 7 unknown #
coedge $-1 $176 $175 $164 $226 forward $177 $-1 #
edge $-1 $227 -4.6318664427421297 $257 4.6318664427421297 $164 $258 forward 7 unknown #
vertex $-1 $180 $259 #
vertex $-1 $170 $260 #
straight-curve $-1 -48.997888287351252 -69.447038833302855 0 0 0 -1 I I #
vertex $-1 $255 $261 #
straight-curve $-1 -39.734155401866992 -61.163419320224691 -19.468229162679282 0 -1 0 I I #
straight-curve $-1 -48.997888287351252 -61.163419320224691 -19.468229162679282 0 1 0 I I #
point $-1 -39.734155401866992 -52.879799807146526 -19.468229162679282 #
coedge $-1 $222 $173 $176 $236 reversed $161 $-1 #
straight-curve $-1 -39.734155401866992 -52.879799807146526 0 0 0 -1 I I #
edge $-1 $257 -8.2836195130781647 $178 8.2836195130781647 $234 $262 forward 7 unknown #
point $-1 -39.734155401866992 -52.879799807146526 19.468229162679282 #
straight-curve $-1 -48.997888287351252 -61.163419320224691 19.468229162679282 0 -1 0 I I #
coedge $-1 $194 $193 $186 $240 forward $183 $-1 #
edge $-1 $241 91.41920635332184 $244 108.88714400113967 $239 $263 forward 7 unknown #
vertex $-1 $198 $264 #
straight-curve $-1 56.739745319151844 -23.339633895466829 19.468229162679279 1 0 0 I I #
edge $-1 $244 -15.322152517915217 $195 -0.7128102371880054 $194 $265 forward 7 unknown #
vertex $-1 $243 $266 #
straight-curve $-1 -13.812237575805781 -23.339633895466829 129.2920197289709 -0.5877852410284794 0 0.80901700255871778 I I #
point $-1 65.979414521127467 -23.339633895466829 19.468229162679279 #
point $-1 78.670613727225557 -8.7302916147396168 2.0002915148614449 #
straight-curve $-1 78.670613727225557 0 19.468229162679282 0 1 0 I I #
vertex $-1 $201 $267 #
point $-1 67.78218469386367 -16.034962755103223 4.9615657268190816 #
straight-curve $-1 -78.670613727225557 52.879799807146526 0 0 0 -1 I I #
point $-1 -78.670613727225557 -52.879799807146526 -19.468229162679282 #
straight-curve $-1 -78.670613727225557 0 -19.468229162679282 0 1 0 I I #
point $-1 -78.670613727225557 52.879799807146526 -19.468229162679282 #
edge $-1 $257 -19.468229162679282 $230 19.468229162679282 $222 $268 forward 7 unknown #
straight-curve $-1 -44.366021844609122 -69.447038833302855 -19.468229162679282 -1 0 0 I I #
vertex $-1 $236 $269 #
straight-curve $-1 -44.366021844609122 -69.447038833302855 19.468229162679282 1 0 0 I I #
point $-1 -48.997888287351252 -69.447038833302855 19.468229162679282 #
point $-1 -48.997888287351252 -69.447038833302855 -19.468229162679282 #
point $-1 -39.734155401866992 -69.447038833302855 -19.468229162679282 #
straight-curve $-1 -39.734155401866992 -61.163419320224691 19.468229162679282 0 1 0 I I #
straight-curve $-1 78.670613727225557 -23.339633895466829 110.88743551600112 0 0 -1 I I #
point $-1 78.670613727225557 -23.339633895466829 19.468229162679282 #
straight-curve $-1 78.670613727225572 -8.0174813775516114 2.0002915148614377 0 1 0 I I #
point $-1 78.670613727225557 -23.339633895466829 2.0002915148614449 #
point $-1 64.988580206689278 -16.034962755103223 5.4040292498795583 #
straight-curve $-1 -39.734155401866992 -69.447038833302855 0 0 0 -1 I I #
point $-1 -39.734155401866992 -69.447038833302855 19.468229162679282 #
End-of-ACIS-data 