500 0 9 0           
7 Unknown 11 ACIS 5.0 NT 24 Thu Mar 25 16:39:48 1999 
-1 9.9999999999999995e-007 1e-010 
body $-1 $9 $-1 $10 #
body $-1 $11 $-1 $12 #
body $-1 $13 $-1 $14 #
body $-1 $15 $-1 $16 #
body $-1 $17 $-1 $18 #
body $-1 $19 $-1 $20 #
body $-1 $21 $-1 $22 #
body $-1 $23 $-1 $24 #
body $-1 $25 $-1 $26 #
lump $-1 $-1 $27 $0 #
transform $-1 1 0 0 0 1 0 0 0 1 45.775322733237708 29.935080129165449 7.0062905672958387 1 rotate no_reflect no_shear #
lump $-1 $-1 $28 $1 #
transform $-1 1 0 0 0 1 0 0 0 1 45.775322733237708 29.935080129165449 7.0062905672958387 1 rotate no_reflect no_shear #
lump $-1 $-1 $29 $2 #
transform $-1 1 0 0 0 1 0 0 0 1 45.775322733237708 29.935080129165449 7.0062905672958387 1 rotate no_reflect no_shear #
lump $-1 $-1 $30 $3 #
transform $-1 1 0 0 0 1 0 0 0 1 45.775322733237708 29.935080129165449 7.0062905672958387 1 rotate no_reflect no_shear #
lump $-1 $-1 $31 $4 #
transform $-1 1 0 0 0 1 0 0 0 1 45.775322733237708 29.935080129165449 7.0062905672958387 1 rotate no_reflect no_shear #
lump $-1 $-1 $32 $5 #
transform $-1 1 0 0 0 1 0 0 0 1 45.775322733237708 29.935080129165449 7.0062905672958387 1 rotate no_reflect no_shear #
lump $-1 $-1 $33 $6 #
transform $-1 1 0 0 0 1 0 0 0 1 45.775322733237708 29.935080129165449 7.0062905672958387 1 rotate no_reflect no_shear #
lump $-1 $-1 $34 $7 #
transform $-1 1 0 0 0 1 0 0 0 1 45.775322733237708 29.935080129165449 7.0062905672958387 1 rotate no_reflect no_shear #
lump $-1 $-1 $35 $8 #
transform $-1 1 0 0 0 1 0 0 0 1 45.775322733237708 29.935080129165449 7.0062905672958387 1 rotate no_reflect no_shear #
shell $-1 $-1 $-1 $36 $-1 $9 #
shell $-1 $-1 $-1 $37 $-1 $11 #
shell $-1 $-1 $-1 $38 $-1 $13 #
shell $-1 $-1 $-1 $39 $-1 $15 #
shell $-1 $-1 $-1 $40 $-1 $17 #
shell $-1 $-1 $-1 $41 $-1 $19 #
shell $-1 $-1 $-1 $42 $-1 $21 #
shell $-1 $-1 $-1 $43 $-1 $23 #
shell $-1 $-1 $-1 $44 $-1 $25 #
face $-1 $45 $46 $27 $-1 $47 forward single #
face $-1 $48 $49 $28 $-1 $50 forward single #
face $-1 $51 $52 $29 $-1 $53 forward single #
face $-1 $54 $55 $30 $-1 $56 reversed single #
face $-1 $57 $58 $31 $-1 $59 forward single #
face $-1 $60 $61 $32 $-1 $62 forward single #
face $-1 $63 $64 $33 $-1 $65 reversed single #
face $-1 $66 $67 $34 $-1 $68 forward single #
face $-1 $69 $70 $35 $-1 $71 forward single #
face $-1 $72 $73 $27 $-1 $74 reversed single #
loop $-1 $-1 $75 $36 #
plane-surface $-1 0 0 7.0062905672958387 0 0 1 1 0 0 forward_v I I I I #
face $-1 $76 $77 $28 $-1 $78 reversed single #
loop $-1 $-1 $79 $37 #
plane-surface $-1 0 -27.448718300571585 5.1598255032543729 0 0 1 1 0 0 forward_v I I I I #
face $-1 $80 $81 $29 $-1 $82 reversed single #
loop $-1 $-1 $83 $38 #
plane-surface $-1 0 27.448718300571585 5.1598255032543729 0 0 1 1 0 0 forward_v I I I I #
face $-1 $84 $85 $30 $-1 $86 reversed single #
loop $-1 $-1 $87 $39 #
plane-surface $-1 -22.260065050908608 -20.964575057400683 61.661717111053619 0.66913061440640931 0 0.74314481823134659 0.74314481823134659 0 -0.66913061440640931 forward_v I I I I #
face $-1 $88 $89 $31 $-1 $90 forward single #
loop $-1 $91 $92 $40 #
cone-surface $-1 41.548642678074962 -22.67790994936227 3.0829620256379568 -0.66913061440640931 0 -0.74314481823134659 0.3715724091156733 0 -0.33456530720320465 1 I I 0 1 0.5 forward I I I I #
face $-1 $93 $94 $32 $-1 $95 forward single #
loop $-1 $96 $97 $41 #
cone-surface $-1 41.548642678074962 -19.251240165439096 3.0829620256379568 -0.66913061440640931 0 -0.74314481823134659 0.3715724091156733 0 -0.33456530720320465 1 I I 0 1 0.5 forward I I I I #
face $-1 $98 $99 $33 $-1 $100 reversed single #
loop $-1 $-1 $101 $42 #
plane-surface $-1 38.999274599377436 16.966793642823635 129.69710489519994 0 1 0 0.66913061440640931 0 0.74314481823134659 forward_v I I I I #
face $-1 $102 $103 $34 $-1 $104 forward single #
loop $-1 $105 $106 $43 #
cone-surface $-1 41.548642678074962 19.251240165439093 3.0829620256379568 -0.66913061440640931 0 -0.74314481823134659 0.3715724091156733 0 -0.33456530720320465 1 I I 0 1 0.5 forward I I I I #
face $-1 $107 $108 $35 $-1 $109 forward single #
loop $-1 $110 $111 $44 #
cone-surface $-1 41.548642678074962 22.677909949362267 3.0829620256379568 -0.66913061440640931 0 -0.74314481823134659 0.3715724091156733 0 -0.33456530720320465 1 I I 0 1 0.5 forward I I I I #
face $-1 $112 $113 $27 $-1 $114 reversed single #
loop $-1 $-1 $115 $45 #
plane-surface $-1 0 0 -7.0062905672958387 0 0 1 1 0 0 forward_v I I I I #
coedge $-1 $116 $117 $118 $119 forward $46 $-1 #
face $-1 $120 $121 $28 $-1 $122 reversed single #
loop $-1 $-1 $123 $48 #
plane-surface $-1 0 -27.448718300571585 2.1598255032543729 0 0 1 1 0 0 forward_v I I I I #
coedge $-1 $124 $125 $126 $127 reversed $49 $-1 #
face $-1 $128 $129 $29 $-1 $130 reversed single #
loop $-1 $-1 $131 $51 #
plane-surface $-1 0 27.448718300571585 2.1598255032543729 0 0 1 1 0 0 forward_v I I I I #
coedge $-1 $132 $133 $134 $135 reversed $52 $-1 #
face $-1 $136 $137 $30 $-1 $138 forward single #
loop $-1 $-1 $139 $54 #
plane-surface $-1 38.999274599377436 -16.966793642823646 129.69710489519994 0 -1 0 -0.66913061440640931 0 -0.74314481823134659 forward_v I I I I #
coedge $-1 $140 $141 $142 $143 reversed $55 $-1 #
face $-1 $-1 $144 $31 $-1 $145 forward single #
loop $-1 $146 $147 $57 #
cone-surface $-1 40.821874160926093 -22.67790994936227 2.2758038326863748 -0.66913061440640931 0 -0.74314481823134659 0.18578620455783665 0 -0.16728265360160233 1 I I -0.70710678118654746 0.70710678118654746 0.25 forward I I I I #
loop $-1 $-1 $148 $40 #
coedge $-1 $92 $92 $149 $150 reversed $58 $-1 #
face $-1 $-1 $151 $32 $-1 $152 forward single #
loop $-1 $153 $154 $60 #
cone-surface $-1 40.821874160926093 -19.251240165439096 2.2758038326863748 -0.66913061440640931 0 -0.74314481823134659 0.18578620455783665 0 -0.16728265360160233 1 I I -0.70710678118654746 0.70710678118654746 0.25 forward I I I I #
loop $-1 $-1 $155 $41 #
coedge $-1 $97 $97 $156 $157 reversed $61 $-1 #
face $-1 $158 $159 $33 $-1 $160 forward single #
loop $-1 $-1 $161 $63 #
plane-surface $-1 -22.260065050908608 20.964575057400673 61.661717111053619 0.66913061440640931 0 0.74314481823134659 0.74314481823134659 0 -0.66913061440640931 forward_v I I I I #
coedge $-1 $162 $163 $164 $165 reversed $64 $-1 #
face $-1 $-1 $166 $34 $-1 $167 forward single #
loop $-1 $168 $169 $66 #
cone-surface $-1 40.821874160926093 19.251240165439093 2.2758038326863748 -0.66913061440640931 0 -0.74314481823134659 0.18578620455783665 0 -0.16728265360160233 1 I I -0.70710678118654746 0.70710678118654746 0.25 forward I I I I #
loop $-1 $-1 $170 $43 #
coedge $-1 $106 $106 $171 $172 reversed $67 $-1 #
face $-1 $-1 $173 $35 $-1 $174 forward single #
loop $-1 $175 $176 $69 #
cone-surface $-1 40.821874160926093 22.677909949362267 2.2758038326863748 -0.66913061440640931 0 -0.74314481823134659 0.18578620455783665 0 -0.16728265360160233 1 I I -0.70710678118654746 0.70710678118654746 0.25 forward I I I I #
loop $-1 $-1 $177 $44 #
coedge $-1 $111 $111 $178 $179 reversed $70 $-1 #
face $-1 $180 $181 $27 $-1 $182 reversed single #
loop $-1 $-1 $183 $72 #
plane-surface $-1 0 -29.935080129165449 0 0 1 0 0 0 1 forward_v I I I I #
coedge $-1 $184 $185 $186 $187 forward $73 $-1 #
coedge $-1 $188 $75 $189 $190 forward $46 $-1 #
coedge $-1 $75 $188 $191 $192 forward $46 $-1 #
coedge $-1 $193 $194 $75 $119 reversed $195 $-1 #
edge $-1 $196 -29.935080129165449 $197 29.935080129165449 $118 $198 forward 7 unknown #
face $-1 $199 $200 $28 $-1 $201 reversed single #
loop $-1 $-1 $202 $76 #
plane-surface $-1 0 -24.962356471977721 3.6598255032543729 0 -1 0 0 0 -1 forward_v I I I I #
coedge $-1 $203 $204 $205 $206 reversed $77 $-1 #
coedge $-1 $207 $79 $208 $209 forward $49 $-1 #
coedge $-1 $79 $207 $210 $211 reversed $49 $-1 #
coedge $-1 $212 $213 $79 $127 forward $214 $-1 #
edge $-1 $215 11.237997321691928 $216 16.210720978879657 $126 $217 forward 7 unknown #
face $-1 $218 $219 $29 $-1 $220 reversed single #
loop $-1 $-1 $221 $80 #
plane-surface $-1 0 24.962356471977721 3.6598255032543729 0 1 0 0 0 1 forward_v I I I I #
coedge $-1 $222 $223 $224 $225 reversed $81 $-1 #
coedge $-1 $226 $83 $227 $228 reversed $52 $-1 #
coedge $-1 $83 $226 $229 $230 forward $52 $-1 #
coedge $-1 $231 $232 $83 $135 forward $219 $-1 #
edge $-1 $233 -16.210720978879657 $234 -11.237997321691928 $134 $235 forward 7 unknown #
face $-1 $236 $237 $30 $-1 $238 reversed single #
loop $-1 $-1 $239 $84 #
plane-surface $-1 0 -24.962356471977721 3.6598255032543729 0 -1 0 0 0 -1 forward_v I I I I #
coedge $-1 $240 $241 $242 $243 reversed $85 $-1 #
coedge $-1 $244 $87 $239 $245 forward $55 $-1 #
coedge $-1 $87 $244 $240 $246 forward $55 $-1 #
coedge $-1 $242 $247 $87 $143 forward $237 $-1 #
edge $-1 $248 -14.480068943277379 $249 -6.4845061141233042 $142 $250 forward 7 unknown #
loop $-1 $-1 $149 $88 #
plane-surface $-1 -22.260065050908608 -20.964575057400683 61.661717111053619 0.66913061440640931 0 0.74314481823134659 0.74314481823134659 0 -0.66913061440640931 forward_v I I I I #
loop $-1 $-1 $251 $57 #
coedge $-1 $147 $147 $148 $252 reversed $89 $-1 #
coedge $-1 $148 $148 $147 $252 forward $91 $-1 #
coedge $-1 $149 $149 $92 $150 forward $144 $-1 #
edge $-1 $253 0 $253 6.2831853071796004 $149 $254 forward 7 unknown #
loop $-1 $-1 $156 $93 #
plane-surface $-1 -22.260065050908608 -20.964575057400683 61.661717111053619 0.66913061440640931 0 0.74314481823134659 0.74314481823134659 0 -0.66913061440640931 forward_v I I I I #
loop $-1 $-1 $255 $60 #
coedge $-1 $154 $154 $155 $256 reversed $94 $-1 #
coedge $-1 $155 $155 $154 $256 forward $96 $-1 #
coedge $-1 $156 $156 $97 $157 forward $151 $-1 #
edge $-1 $257 0 $257 6.2831853071796004 $156 $258 forward 7 unknown #
face $-1 $259 $260 $33 $-1 $261 forward single #
loop $-1 $-1 $262 $98 #
plane-surface $-1 0 24.962356471977721 3.6598255032543729 0 1 0 0 0 1 forward_v I I I I #
coedge $-1 $263 $264 $265 $266 reversed $99 $-1 #
coedge $-1 $163 $101 $267 $268 reversed $64 $-1 #
coedge $-1 $101 $162 $263 $269 reversed $64 $-1 #
coedge $-1 $265 $270 $101 $165 forward $271 $-1 #
edge $-1 $272 57.842261880304136 $273 64.446174986832375 $164 $274 forward 7 unknown #
loop $-1 $-1 $171 $102 #
plane-surface $-1 -22.260065050908608 20.964575057400673 61.661717111053619 0.66913061440640931 0 0.74314481823134659 0.74314481823134659 0 -0.66913061440640931 forward_v I I I I #
loop $-1 $-1 $275 $66 #
coedge $-1 $169 $169 $170 $276 reversed $103 $-1 #
coedge $-1 $170 $170 $169 $276 forward $105 $-1 #
coedge $-1 $171 $171 $106 $172 forward $166 $-1 #
edge $-1 $277 0 $277 6.2831853071796004 $171 $278 forward 7 unknown #
loop $-1 $-1 $178 $107 #
plane-surface $-1 -22.260065050908608 20.964575057400673 61.661717111053619 0.66913061440640931 0 0.74314481823134659 0.74314481823134659 0 -0.66913061440640931 forward_v I I I I #
loop $-1 $-1 $279 $69 #
coedge $-1 $176 $176 $177 $280 reversed $108 $-1 #
coedge $-1 $177 $177 $176 $280 forward $110 $-1 #
coedge $-1 $178 $178 $111 $179 forward $173 $-1 #
edge $-1 $281 0 $281 6.2831853071796004 $178 $282 forward 7 unknown #
face $-1 $283 $284 $27 $-1 $285 reversed single #
loop $-1 $-1 $286 $112 #
plane-surface $-1 -45.775322733237708 0 0 1 0 0 0 0 -1 forward_v I I I I #
coedge $-1 $287 $191 $288 $289 forward $113 $-1 #
coedge $-1 $290 $115 $287 $291 forward $73 $-1 #
coedge $-1 $115 $290 $292 $293 forward $73 $-1 #
coedge $-1 $194 $193 $115 $187 reversed $195 $-1 #
edge $-1 $294 -29.935080129165449 $295 29.935080129165449 $186 $296 forward 7 unknown #
coedge $-1 $117 $116 $297 $298 forward $46 $-1 #
coedge $-1 $299 $300 $116 $190 reversed $284 $-1 #
edge $-1 $197 -45.775322733237708 $301 45.775322733237708 $189 $302 forward 7 unknown #
coedge $-1 $183 $303 $117 $192 reversed $113 $-1 #
edge $-1 $304 -45.775322733237708 $196 45.775322733237708 $191 $305 forward 7 unknown #
coedge $-1 $186 $118 $303 $306 forward $195 $-1 #
coedge $-1 $118 $186 $299 $307 reversed $195 $-1 #
loop $-1 $-1 $193 $283 #
vertex $-1 $119 $308 #
vertex $-1 $119 $309 #
straight-curve $-1 45.775322733237708 0 7.0062905672958387 0 1 0 I I #
face $-1 $310 $311 $28 $-1 $312 reversed single #
loop $-1 $-1 $313 $120 #
plane-surface $-1 -45.775322733237708 0 0 1 0 0 0 0 -1 forward_v I I I I #
coedge $-1 $314 $208 $213 $315 reversed $121 $-1 #
coedge $-1 $316 $123 $317 $318 reversed $77 $-1 #
coedge $-1 $123 $316 $314 $319 forward $77 $-1 #
coedge $-1 $213 $212 $123 $206 forward $214 $-1 #
edge $-1 $320 -16.210720978879657 $321 -11.237997321691928 $205 $322 forward 7 unknown #
coedge $-1 $125 $124 $313 $323 reversed $49 $-1 #
coedge $-1 $202 $324 $124 $209 reversed $121 $-1 #
edge $-1 $215 -45.775322733237708 $325 45.775322733237708 $208 $326 forward 7 unknown #
coedge $-1 $327 $328 $125 $211 forward $311 $-1 #
edge $-1 $216 -45.775322733237708 $329 45.775322733237708 $210 $330 forward 7 unknown #
coedge $-1 $205 $126 $328 $331 forward $214 $-1 #
coedge $-1 $126 $205 $202 $315 forward $214 $-1 #
loop $-1 $-1 $126 $310 #
vertex $-1 $127 $332 #
vertex $-1 $331 $333 #
straight-curve $-1 45.775322733237708 -13.724359150285792 5.1598255032543729 0 -1 0 I I #
face $-1 $334 $335 $29 $-1 $336 reversed single #
loop $-1 $-1 $134 $128 #
plane-surface $-1 45.775322733237708 0 0 -1 0 0 0 0 1 forward_v I I I I #
coedge $-1 $337 $229 $338 $339 reversed $129 $-1 #
coedge $-1 $340 $131 $337 $341 forward $81 $-1 #
coedge $-1 $131 $340 $342 $343 reversed $81 $-1 #
coedge $-1 $232 $231 $131 $225 forward $219 $-1 #
edge $-1 $344 11.237997321691928 $345 16.210720978879657 $224 $346 forward 7 unknown #
coedge $-1 $133 $132 $347 $348 reversed $52 $-1 #
coedge $-1 $349 $350 $132 $228 forward $351 $-1 #
edge $-1 $352 -45.775322733237708 $233 45.775322733237708 $227 $353 forward 7 unknown #
coedge $-1 $221 $354 $133 $230 reversed $129 $-1 #
edge $-1 $355 -45.775322733237708 $234 45.775322733237708 $229 $356 forward 7 unknown #
coedge $-1 $224 $134 $354 $357 forward $219 $-1 #
coedge $-1 $134 $224 $349 $358 reversed $219 $-1 #
vertex $-1 $358 $359 #
vertex $-1 $135 $360 #
straight-curve $-1 45.775322733237708 13.724359150285792 5.1598255032543729 0 -1 0 I I #
face $-1 $-1 $361 $30 $-1 $362 forward single #
loop $-1 $-1 $247 $136 #
plane-surface $-1 45.775322733237708 0 0 -1 0 0 0 0 1 forward_v I I I I #
coedge $-1 $363 $364 $140 $245 reversed $137 $-1 #
coedge $-1 $241 $139 $141 $246 reversed $85 $-1 #
coedge $-1 $139 $240 $365 $366 reversed $85 $-1 #
coedge $-1 $367 $142 $139 $243 forward $237 $-1 #
edge $-1 $249 -64.446174986832375 $368 -57.842261880304136 $242 $369 forward 7 unknown #
coedge $-1 $141 $140 $370 $371 reversed $55 $-1 #
edge $-1 $248 -91.550645466475402 $372 -81.681252310123355 $239 $373 forward 7 unknown #
edge $-1 $374 81.681252310123355 $249 91.550645466475402 $240 $375 forward 7 unknown #
coedge $-1 $142 $367 $363 $376 forward $237 $-1 #
vertex $-1 $143 $377 #
vertex $-1 $143 $378 #
straight-curve $-1 45.775322733237708 -10.482287528700342 0.4023774607675854 0 1 0 I I #
coedge $-1 $251 $251 $-1 $379 reversed $146 $-1 #
edge $-1 $380 0 $380 6.2831853071796004 $147 $381 forward 7 unknown #
vertex $-1 $150 $382 #
ellipse-curve $-1 42.108128541622236 -22.67790994936227 3.7043340140317116 0.66913061440640931 0 0.74314481823134659 0.3715724091156733 0 -0.33456530720320465 1 I I #
coedge $-1 $255 $255 $-1 $383 reversed $153 $-1 #
edge $-1 $384 0 $384 6.2831853071796004 $154 $385 forward 7 unknown #
vertex $-1 $157 $386 #
ellipse-curve $-1 42.108128541622236 -19.251240165439096 3.7043340140317116 0.66913061440640931 0 0.74314481823134659 0.3715724091156733 0 -0.33456530720320465 1 I I #
face $-1 $-1 $271 $33 $-1 $387 reversed single #
loop $-1 $-1 $388 $158 #
plane-surface $-1 0 0 7.0062905672958387 0 0 1 1 0 0 forward_v I I I I #
coedge $-1 $389 $390 $264 $391 reversed $159 $-1 #
coedge $-1 $392 $161 $163 $269 forward $99 $-1 #
coedge $-1 $161 $392 $262 $391 forward $99 $-1 #
coedge $-1 $393 $164 $161 $266 forward $271 $-1 #
edge $-1 $273 6.4845061141232989 $394 14.480068943277374 $265 $395 forward 7 unknown #
coedge $-1 $396 $397 $162 $268 forward $260 $-1 #
edge $-1 $398 18.941297050318052 $272 26.27568543354899 $267 $399 forward 7 unknown #
edge $-1 $273 -91.550645466475402 $398 -81.681252310123355 $163 $400 forward 7 unknown #
coedge $-1 $164 $393 $396 $401 reversed $271 $-1 #
loop $-1 $-1 $393 $259 #
vertex $-1 $401 $402 #
vertex $-1 $165 $403 #
straight-curve $-1 45.775322733237708 16.966793642823635 64.848552447599971 0 0 -1 I I #
coedge $-1 $275 $275 $-1 $404 reversed $168 $-1 #
edge $-1 $405 0 $405 6.2831853071796004 $169 $406 forward 7 unknown #
vertex $-1 $172 $407 #
ellipse-curve $-1 42.108128541622236 19.251240165439093 3.7043340140317116 0.66913061440640931 0 0.74314481823134659 0.3715724091156733 0 -0.33456530720320465 1 I I #
coedge $-1 $279 $279 $-1 $408 reversed $175 $-1 #
edge $-1 $409 0 $409 6.2831853071796004 $176 $410 forward 7 unknown #
vertex $-1 $179 $411 #
ellipse-curve $-1 42.108128541622236 22.677909949362267 3.7043340140317116 0.66913061440640931 0 0.74314481823134659 0.3715724091156733 0 -0.33456530720320465 1 I I #
face $-1 $-1 $195 $27 $-1 $412 reversed single #
loop $-1 $-1 $299 $180 #
plane-surface $-1 0 29.935080129165449 0 0 -1 0 0 0 -1 forward_v I I I I #
coedge $-1 $413 $297 $300 $414 forward $181 $-1 #
coedge $-1 $303 $183 $184 $291 reversed $113 $-1 #
coedge $-1 $297 $413 $183 $289 reversed $181 $-1 #
edge $-1 $304 -7.0062905672958387 $415 7.0062905672958387 $288 $416 forward 7 unknown #
coedge $-1 $185 $184 $413 $417 forward $73 $-1 #
edge $-1 $295 -45.775322733237708 $415 45.775322733237708 $287 $418 forward 7 unknown #
coedge $-1 $300 $299 $185 $293 reversed $284 $-1 #
edge $-1 $419 -45.775322733237708 $294 45.775322733237708 $292 $420 forward 7 unknown #
vertex $-1 $187 $421 #
vertex $-1 $306 $422 #
straight-curve $-1 45.775322733237708 0 -7.0062905672958387 0 -1 0 I I #
coedge $-1 $286 $288 $188 $298 reversed $181 $-1 #
edge $-1 $301 -29.935080129165449 $304 29.935080129165449 $297 $423 forward 7 unknown #
coedge $-1 $292 $189 $194 $307 forward $284 $-1 #
coedge $-1 $189 $292 $286 $414 reversed $284 $-1 #
vertex $-1 $190 $424 #
straight-curve $-1 0 29.935080129165449 7.0062905672958387 -1 0 0 I I #
coedge $-1 $191 $287 $193 $306 reversed $113 $-1 #
vertex $-1 $298 $425 #
straight-curve $-1 0 -29.935080129165449 7.0062905672958387 1 0 0 I I #
edge $-1 $196 -7.0062905672958387 $295 7.0062905672958387 $193 $426 forward 7 unknown #
edge $-1 $197 -7.0062905672958387 $294 7.0062905672958387 $194 $427 forward 7 unknown #
point $-1 45.775322733237708 -29.935080129165449 7.0062905672958387 #
point $-1 45.775322733237708 29.935080129165449 7.0062905672958387 #
face $-1 $-1 $214 $28 $-1 $428 reversed single #
loop $-1 $-1 $210 $199 #
plane-surface $-1 0 -29.935080129165449 0 0 1 0 0 0 1 forward_v I I I I #
coedge $-1 $429 $430 $207 $323 forward $200 $-1 #
coedge $-1 $324 $202 $204 $319 reversed $121 $-1 #
edge $-1 $321 0.32991275162718647 $215 3.3299127516271865 $213 $431 forward 7 unknown #
coedge $-1 $204 $203 $432 $433 reversed $77 $-1 #
coedge $-1 $328 $327 $203 $318 forward $311 $-1 #
edge $-1 $434 -45.775322733237708 $320 45.775322733237708 $317 $435 forward 7 unknown #
edge $-1 $436 -45.775322733237708 $321 45.775322733237708 $314 $437 forward 7 unknown #
vertex $-1 $318 $438 #
vertex $-1 $206 $439 #
straight-curve $-1 45.775322733237708 -13.724359150285792 2.1598255032543729 0 1 0 I I #
edge $-1 $329 -16.210720978879657 $325 -11.237997321691928 $313 $440 forward 7 unknown #
coedge $-1 $208 $314 $429 $441 reversed $121 $-1 #
vertex $-1 $323 $442 #
straight-curve $-1 0 -24.962356471977721 5.1598255032543729 -1 0 0 I I #
coedge $-1 $317 $210 $430 $443 forward $311 $-1 #
coedge $-1 $210 $317 $212 $331 reversed $311 $-1 #
vertex $-1 $443 $444 #
straight-curve $-1 0 -29.935080129165449 5.1598255032543729 -1 0 0 I I #
edge $-1 $216 -5.1598255032543729 $320 -2.1598255032543729 $212 $445 forward 7 unknown #
point $-1 45.775322733237708 -24.962356471977721 5.1598255032543729 #
point $-1 45.775322733237708 -29.935080129165449 5.1598255032543729 #
face $-1 $-1 $351 $29 $-1 $446 reversed single #
loop $-1 $-1 $347 $218 #
plane-surface $-1 -45.775322733237708 0 0 1 0 0 0 0 -1 forward_v I I I I #
coedge $-1 $354 $221 $222 $341 reversed $129 $-1 #
coedge $-1 $347 $447 $221 $339 forward $335 $-1 #
edge $-1 $448 0.32991275162718647 $355 3.3299127516271865 $338 $449 forward 7 unknown #
coedge $-1 $223 $222 $447 $450 reversed $81 $-1 #
edge $-1 $344 -45.775322733237708 $448 45.775322733237708 $337 $451 forward 7 unknown #
coedge $-1 $350 $349 $223 $343 forward $351 $-1 #
edge $-1 $345 -45.775322733237708 $452 45.775322733237708 $342 $453 forward 7 unknown #
vertex $-1 $225 $454 #
vertex $-1 $343 $455 #
straight-curve $-1 45.775322733237708 13.724359150285792 2.1598255032543729 0 1 0 I I #
coedge $-1 $456 $338 $226 $348 forward $335 $-1 #
edge $-1 $355 11.237997321691928 $352 16.210720978879657 $347 $457 forward 7 unknown #
coedge $-1 $342 $227 $232 $358 forward $351 $-1 #
coedge $-1 $227 $342 $456 $458 reversed $351 $-1 #
loop $-1 $-1 $227 $334 #
vertex $-1 $458 $459 #
straight-curve $-1 0 29.935080129165449 5.1598255032543729 1 0 0 I I #
coedge $-1 $229 $337 $231 $357 reversed $129 $-1 #
vertex $-1 $348 $460 #
straight-curve $-1 0 24.962356471977721 5.1598255032543729 1 0 0 I I #
edge $-1 $234 -3.3299127516271865 $344 -0.32991275162718647 $231 $461 forward 7 unknown #
edge $-1 $233 -5.1598255032543729 $345 -2.1598255032543729 $232 $462 forward 7 unknown #
point $-1 45.775322733237708 29.935080129165449 5.1598255032543729 #
point $-1 45.775322733237708 24.962356471977721 5.1598255032543729 #
loop $-1 $-1 $463 $236 #
plane-surface $-1 0 0 7.0062905672958387 0 0 1 1 0 0 forward_v I I I I #
coedge $-1 $364 $239 $247 $376 reversed $137 $-1 #
coedge $-1 $239 $363 $463 $464 reversed $137 $-1 #
coedge $-1 $370 $465 $241 $366 forward $361 $-1 #
edge $-1 $368 -26.27568543354899 $374 -18.941297050318052 $365 $466 forward 7 unknown #
coedge $-1 $247 $242 $465 $467 reversed $237 $-1 #
vertex $-1 $366 $468 #
straight-curve $-1 45.775322733237708 -16.966793642823646 64.848552447599971 0 0 1 I I #
coedge $-1 $463 $365 $244 $371 forward $361 $-1 #
edge $-1 $374 6.4845061141233042 $372 14.480068943277379 $370 $469 forward 7 unknown #
vertex $-1 $464 $470 #
straight-curve $-1 -22.260065050908608 -24.962356471977721 61.661717111053619 -0.74314481823134659 0 0.66913061440640931 I I #
vertex $-1 $371 $471 #
straight-curve $-1 -22.260065050908608 -16.966793642823646 61.661717111053619 0.74314481823134659 0 -0.66913061440640931 I I #
edge $-1 $472 57.842261880304136 $248 64.446174986832375 $247 $473 forward 7 unknown #
point $-1 45.775322733237701 -24.962356471977721 0.40237746076758896 #
point $-1 45.775322733237701 -16.966793642823646 0.40237746076758896 #
edge $-1 $474 1 $474 0 $251 $-1 forward 7 unknown #
vertex $-1 $252 $475 #
ellipse-curve $-1 40.989156814527696 -22.67790994936227 2.4615900372442114 0.66913061440640931 0 0.74314481823134659 0.3715724091156733 0 -0.33456530720320465 1 I I #
point $-1 42.479700950737893 -22.67790994936227 3.3697687068284981 #
edge $-1 $476 1 $476 0 $255 $-1 forward 7 unknown #
vertex $-1 $256 $477 #
ellipse-curve $-1 40.989156814527696 -19.251240165439096 2.4615900372442114 0.66913061440640931 0 0.74314481823134659 0.3715724091156733 0 -0.33456530720320465 1 I I #
point $-1 42.479700950737893 -19.251240165439096 3.3697687068284981 #
plane-surface $-1 45.775322733237708 0 0 -1 0 0 0 0 1 forward_v I I I I #
coedge $-1 $397 $396 $389 $478 forward $260 $-1 #
coedge $-1 $390 $262 $388 $478 reversed $159 $-1 #
coedge $-1 $262 $389 $393 $479 reversed $159 $-1 #
edge $-1 $480 81.681252310123355 $394 91.550645466475402 $262 $481 forward 7 unknown #
coedge $-1 $264 $263 $397 $482 reversed $99 $-1 #
coedge $-1 $270 $265 $390 $479 forward $271 $-1 #
vertex $-1 $479 $483 #
straight-curve $-1 45.775322733237708 10.482287528700336 0.4023774607675854 0 1 0 I I #
coedge $-1 $388 $267 $270 $401 forward $260 $-1 #
coedge $-1 $267 $388 $392 $482 forward $260 $-1 #
vertex $-1 $268 $484 #
straight-curve $-1 19.499637299688718 16.966793642823635 7.0062905672958351 1 0 0 I I #
straight-curve $-1 -22.260065050908608 16.966793642823635 61.661717111053619 -0.74314481823134659 0 0.66913061440640931 I I #
edge $-1 $272 16.966793642823635 $485 24.96235647197771 $270 $486 forward 7 unknown #
point $-1 45.775322733237708 16.966793642823635 7.0062905672958387 #
point $-1 45.775322733237701 16.966793642823635 0.40237746076758896 #
edge $-1 $487 1 $487 0 $275 $-1 forward 7 unknown #
vertex $-1 $276 $488 #
ellipse-curve $-1 40.989156814527696 19.251240165439093 2.4615900372442114 0.66913061440640931 0 0.74314481823134659 0.3715724091156733 0 -0.33456530720320465 1 I I #
point $-1 42.479700950737893 19.251240165439093 3.3697687068284981 #
edge $-1 $489 1 $489 0 $279 $-1 forward 7 unknown #
vertex $-1 $280 $490 #
ellipse-curve $-1 40.989156814527696 22.677909949362267 2.4615900372442114 0.66913061440640931 0 0.74314481823134659 0.3715724091156733 0 -0.33456530720320465 1 I I #
point $-1 42.479700950737893 22.677909949362267 3.3697687068284981 #
plane-surface $-1 45.775322733237708 0 0 -1 0 0 0 0 1 forward_v I I I I #
coedge $-1 $288 $286 $290 $417 reversed $181 $-1 #
edge $-1 $301 -7.0062905672958387 $419 7.0062905672958387 $300 $491 forward 7 unknown #
vertex $-1 $417 $492 #
straight-curve $-1 -45.775322733237708 -29.935080129165449 0 0 0 -1 I I #
edge $-1 $415 -29.935080129165449 $419 29.935080129165449 $413 $493 forward 7 unknown #
straight-curve $-1 0 -29.935080129165449 -7.0062905672958387 -1 0 0 I I #
vertex $-1 $293 $494 #
straight-curve $-1 0 29.935080129165449 -7.0062905672958387 1 0 0 I I #
point $-1 45.775322733237708 29.935080129165449 -7.0062905672958387 #
point $-1 45.775322733237708 -29.935080129165449 -7.0062905672958387 #
straight-curve $-1 -45.775322733237708 0 7.0062905672958387 0 -1 0 I I #
point $-1 -45.775322733237708 29.935080129165449 7.0062905672958387 #
point $-1 -45.775322733237708 -29.935080129165449 7.0062905672958387 #
straight-curve $-1 45.775322733237708 -29.935080129165449 0 0 0 -1 I I #
straight-curve $-1 45.775322733237708 29.935080129165449 0 0 0 -1 I I #
plane-surface $-1 45.775322733237708 0 0 -1 0 0 0 0 1 forward_v I I I I #
coedge $-1 $432 $313 $324 $441 forward $200 $-1 #
coedge $-1 $313 $432 $327 $443 reversed $200 $-1 #
straight-curve $-1 45.775322733237708 -24.962356471977721 1.8299127516271865 0 0 1 I I #
coedge $-1 $430 $429 $316 $433 forward $200 $-1 #
edge $-1 $436 11.237997321691928 $434 16.210720978879657 $432 $495 forward 7 unknown #
vertex $-1 $318 $496 #
straight-curve $-1 0 -29.935080129165449 2.1598255032543729 1 0 0 I I #
vertex $-1 $433 $497 #
straight-curve $-1 0 -24.962356471977721 2.1598255032543729 1 0 0 I I #
point $-1 45.775322733237708 -29.935080129165449 2.1598255032543729 #
point $-1 45.775322733237708 -24.962356471977721 2.1598255032543729 #
straight-curve $-1 -45.775322733237708 -13.724359150285792 5.1598255032543729 0 1 0 I I #
edge $-1 $325 -3.3299127516271865 $436 -0.32991275162718647 $429 $498 forward 7 unknown #
point $-1 -45.775322733237708 -24.962356471977721 5.1598255032543729 #
edge $-1 $329 -5.1598255032543729 $434 -2.1598255032543729 $430 $499 forward 7 unknown #
point $-1 -45.775322733237708 -29.935080129165449 5.1598255032543729 #
straight-curve $-1 45.775322733237708 -29.935080129165449 0 0 0 -1 I I #
plane-surface $-1 0 29.935080129165449 0 0 -1 0 0 0 -1 forward_v I I I I #
coedge $-1 $338 $456 $340 $450 forward $335 $-1 #
vertex $-1 $450 $500 #
straight-curve $-1 -45.775322733237708 24.962356471977721 1.8299127516271865 0 0 1 I I #
edge $-1 $452 -16.210720978879657 $448 -11.237997321691928 $447 $501 forward 7 unknown #
straight-curve $-1 0 24.962356471977721 2.1598255032543729 -1 0 0 I I #
vertex $-1 $343 $502 #
straight-curve $-1 0 29.935080129165449 2.1598255032543729 -1 0 0 I I #
point $-1 45.775322733237708 24.962356471977721 2.1598255032543729 #
point $-1 45.775322733237708 29.935080129165449 2.1598255032543729 #
coedge $-1 $447 $347 $350 $458 forward $335 $-1 #
straight-curve $-1 -45.775322733237708 13.724359150285792 5.1598255032543729 0 1 0 I I #
edge $-1 $352 -5.1598255032543729 $452 -2.1598255032543729 $350 $503 forward 7 unknown #
point $-1 -45.775322733237708 29.935080129165449 5.1598255032543729 #
point $-1 -45.775322733237708 24.962356471977721 5.1598255032543729 #
straight-curve $-1 45.775322733237708 24.962356471977721 1.8299127516271865 0 0 -1 I I #
straight-curve $-1 45.775322733237708 29.935080129165449 0 0 0 -1 I I #
coedge $-1 $465 $370 $364 $464 forward $361 $-1 #
edge $-1 $372 18.941297050318052 $472 26.27568543354899 $463 $504 forward 7 unknown #
coedge $-1 $365 $463 $367 $467 forward $361 $-1 #
straight-curve $-1 19.499637299688718 -16.966793642823646 7.0062905672958351 -1 0 0 I I #
edge $-1 $472 -24.962356471977721 $368 -16.966793642823646 $367 $505 forward 7 unknown #
point $-1 45.775322733237708 -16.966793642823646 7.0062905672958387 #
straight-curve $-1 38.440934350006771 -10.482287528700342 7.0062905672958422 0 -1 0 I I #
point $-1 38.440934350006771 -24.962356471977721 7.0062905672958422 #
point $-1 38.440934350006771 -16.966793642823646 7.0062905672958422 #
vertex $-1 $467 $506 #
straight-curve $-1 45.775322733237708 -24.962356471977721 64.848552447599971 0 0 -1 I I #
vertex $-1 $379 $507 #
point $-1 41.360729223643368 -22.67790994936227 2.1270247300410068 #
vertex $-1 $383 $508 #
point $-1 41.360729223643368 -19.251240165439096 2.1270247300410068 #
edge $-1 $485 -26.27568543354899 $480 -18.941297050318052 $388 $509 forward 7 unknown #
edge $-1 $394 -64.446174986832375 $485 -57.842261880304136 $393 $510 forward 7 unknown #
vertex $-1 $478 $511 #
straight-curve $-1 -22.260065050908608 24.96235647197771 61.661717111053619 0.74314481823134659 0 -0.66913061440640931 I I #
edge $-1 $480 -14.480068943277374 $398 -6.4845061141232989 $397 $512 forward 7 unknown #
point $-1 45.775322733237701 24.96235647197771 0.40237746076758896 #
point $-1 38.440934350006771 16.966793642823635 7.0062905672958422 #
vertex $-1 $478 $513 #
straight-curve $-1 45.775322733237708 0 7.0062905672958387 0 1 0 I I #
vertex $-1 $404 $514 #
point $-1 41.360729223643368 19.251240165439093 2.1270247300410068 #
vertex $-1 $408 $515 #
point $-1 41.360729223643368 22.677909949362267 2.1270247300410068 #
straight-curve $-1 -45.775322733237708 29.935080129165449 0 0 0 -1 I I #
point $-1 -45.775322733237708 -29.935080129165449 -7.0062905672958387 #
straight-curve $-1 -45.775322733237708 0 -7.0062905672958387 0 1 0 I I #
point $-1 -45.775322733237708 29.935080129165449 -7.0062905672958387 #
straight-curve $-1 -45.775322733237708 -13.724359150285792 2.1598255032543729 0 -1 0 I I #
point $-1 -45.775322733237708 -29.935080129165449 2.1598255032543729 #
point $-1 -45.775322733237708 -24.962356471977721 2.1598255032543729 #
straight-curve $-1 -45.775322733237708 -24.962356471977721 1.8299127516271865 0 0 -1 I I #
straight-curve $-1 -45.775322733237708 -29.935080129165449 0 0 0 -1 I I #
point $-1 -45.775322733237708 24.962356471977721 2.1598255032543729 #
straight-curve $-1 -45.775322733237708 13.724359150285792 2.1598255032543729 0 -1 0 I I #
point $-1 -45.775322733237708 29.935080129165449 2.1598255032543729 #
straight-curve $-1 -45.775322733237708 29.935080129165449 0 0 0 -1 I I #
straight-curve $-1 19.499637299688718 -24.962356471977721 7.0062905672958351 1 0 0 I I #
straight-curve $-1 45.775322733237708 0 7.0062905672958387 0 1 0 I I #
point $-1 45.775322733237708 -24.962356471977721 7.0062905672958387 #
point $-1 40.65459150732449 -22.67790994936227 2.0900176281285381 #
point $-1 40.65459150732449 -19.251240165439096 2.0900176281285381 #
straight-curve $-1 19.499637299688718 24.96235647197771 7.0062905672958351 -1 0 0 I I #
straight-curve $-1 45.775322733237708 24.96235647197771 64.848552447599971 0 0 1 I I #
point $-1 38.440934350006771 24.96235647197771 7.0062905672958422 #
straight-curve $-1 38.440934350006771 10.482287528700336 7.0062905672958422 0 -1 0 I I #
point $-1 45.775322733237708 24.96235647197771 7.0062905672958387 #
point $-1 40.65459150732449 19.251240165439093 2.0900176281285381 #
point $-1 40.65459150732449 22.677909949362267 2.0900176281285381 #
End-of-ACIS-data 