500 0 11 0           
7 Unknown 11 ACIS 5.0 NT 24 Fri Mar 26 20:12:55 1999 
-1 9.9999999999999995e-007 1e-010 
body $-1 $11 $-1 $12 #
body $-1 $13 $-1 $14 #
body $-1 $15 $-1 $16 #
body $-1 $17 $-1 $18 #
body $-1 $19 $-1 $20 #
body $-1 $21 $-1 $22 #
body $-1 $23 $-1 $24 #
body $-1 $25 $-1 $26 #
body $-1 $27 $-1 $28 #
body $-1 $29 $-1 $30 #
body $-1 $31 $-1 $32 #
lump $-1 $-1 $33 $0 #
transform $-1 1 0 0 0 1 0 0 0 1 65.428022095400863 29.78395704145051 10.433520032358462 1 rotate no_reflect no_shear #
lump $-1 $-1 $34 $1 #
transform $-1 1 0 0 0 1 0 0 0 1 65.428022095400863 29.78395704145051 10.433520032358462 1 rotate no_reflect no_shear #
lump $-1 $-1 $35 $2 #
transform $-1 1 0 0 0 1 0 0 0 1 65.428022095400863 29.78395704145051 10.433520032358462 1 rotate no_reflect no_shear #
lump $-1 $-1 $36 $3 #
transform $-1 1 0 0 0 1 0 0 0 1 65.428022095400863 29.78395704145051 10.433520032358462 1 rotate no_reflect no_shear #
lump $-1 $-1 $37 $4 #
transform $-1 1 0 0 0 1 0 0 0 1 65.428022095400863 29.78395704145051 10.433520032358462 1 rotate no_reflect no_shear #
lump $-1 $-1 $38 $5 #
transform $-1 1 0 0 0 1 0 0 0 1 65.428022095400863 29.78395704145051 10.433520032358462 1 rotate no_reflect no_shear #
lump $-1 $-1 $39 $6 #
transform $-1 1 0 0 0 1 0 0 0 1 65.428022095400863 29.78395704145051 10.433520032358462 1 rotate no_reflect no_shear #
lump $-1 $-1 $40 $7 #
transform $-1 1 0 0 0 1 0 0 0 1 65.428022095400863 29.78395704145051 10.433520032358462 1 rotate no_reflect no_shear #
lump $-1 $-1 $41 $8 #
transform $-1 1 0 0 0 1 0 0 0 1 65.428022095400863 29.78395704145051 10.433520032358462 1 rotate no_reflect no_shear #
lump $-1 $-1 $42 $9 #
transform $-1 1 0 0 0 1 0 0 0 1 65.428022095400863 29.78395704145051 10.433520032358462 1 rotate no_reflect no_shear #
lump $-1 $-1 $43 $10 #
transform $-1 1 0 0 0 1 0 0 0 1 65.428022095400863 29.78395704145051 10.433520032358462 1 rotate no_reflect no_shear #
shell $-1 $-1 $-1 $44 $-1 $11 #
shell $-1 $-1 $-1 $45 $-1 $13 #
shell $-1 $-1 $-1 $46 $-1 $15 #
shell $-1 $-1 $-1 $47 $-1 $17 #
shell $-1 $-1 $-1 $48 $-1 $19 #
shell $-1 $-1 $-1 $49 $-1 $21 #
shell $-1 $-1 $-1 $50 $-1 $23 #
shell $-1 $-1 $-1 $51 $-1 $25 #
shell $-1 $-1 $-1 $52 $-1 $27 #
shell $-1 $-1 $-1 $53 $-1 $29 #
shell $-1 $-1 $-1 $54 $-1 $31 #
face $-1 $55 $56 $33 $-1 $57 forward single #
face $-1 $58 $59 $34 $-1 $60 forward single #
face $-1 $61 $62 $35 $-1 $63 reversed single #
face $-1 $64 $65 $36 $-1 $66 forward single #
face $-1 $67 $68 $37 $-1 $69 forward single #
face $-1 $70 $71 $38 $-1 $72 reversed single #
face $-1 $73 $74 $39 $-1 $75 forward single #
face $-1 $76 $77 $40 $-1 $78 forward single #
face $-1 $79 $80 $41 $-1 $81 reversed single #
face $-1 $82 $83 $42 $-1 $84 forward single #
face $-1 $85 $86 $43 $-1 $87 forward single #
face $-1 $88 $89 $33 $-1 $90 reversed single #
loop $-1 $-1 $91 $44 #
plane-surface $-1 0 0 10.433520032358462 0 0 1 1 0 0 forward_v I I I I #
face $-1 $92 $93 $34 $-1 $94 reversed single #
loop $-1 $-1 $95 $45 #
plane-surface $-1 0 -24.6762638796273 0.7865070978520432 0 0 1 1 0 0 forward_v I I I I #
face $-1 $96 $97 $35 $-1 $98 reversed single #
loop $-1 $-1 $99 $46 #
plane-surface $-1 33.292971135524127 -19.568570717804089 188.31453616250499 0 1 0 0.57357644374324357 0 0.81915203911291934 forward_v I I I I #
face $-1 $100 $101 $36 $-1 $102 forward single #
loop $-1 $103 $104 $47 #
cone-surface $-1 61.647872291128976 -15.861703317552749 7.304328421107857 -0.57357644374324357 0 -0.81915203911291934 1.228728058669379 0 -0.86036466561486535 1 I I 0 1 1.5 forward I I I I #
face $-1 $105 $106 $37 $-1 $107 forward single #
loop $-1 $108 $109 $48 #
cone-surface $-1 61.647872291128976 -10.301402217175738 7.304328421107857 -0.57357644374324357 0 -0.81915203911291934 1.228728058669379 0 -0.86036466561486535 1 I I 0 1 1.5 forward I I I I #
face $-1 $110 $111 $38 $-1 $112 reversed single #
loop $-1 $-1 $113 $49 #
plane-surface $-1 -179.87729814076209 -6.0358130002174004 67.492893465478716 0 1 0 -0.87461971476443456 0 0.48480960649040278 forward_v I I I I #
face $-1 $114 $115 $39 $-1 $116 forward single #
loop $-1 $117 $118 $50 #
cone-surface $-1 -61.634139429903541 -2.8519540967772272 6.1203816230073107 0.87461971476443456 0 -0.48480960649040278 0.72721440973560414 0 1.311929572146652 1 I I 0 1 1.5 forward I I I I #
face $-1 $119 $120 $40 $-1 $121 forward single #
loop $-1 $122 $123 $51 #
cone-surface $-1 -61.634139429903541 1.9238342583830352 6.1203816230073107 0.87461971476443456 0 -0.48480960649040278 0.72721440973560414 0 1.311929572146652 1 I I 0 1 1.5 forward I I I I #
face $-1 $124 $125 $41 $-1 $126 reversed single #
loop $-1 $-1 $127 $52 #
plane-surface $-1 -65.428022095400848 -0.46405991919709422 4.052626174445372 -0.87461971476443456 0 0.48480960649040278 0.48480960649040278 0 0.87461971476443456 forward_v I I I I #
face $-1 $128 $129 $42 $-1 $130 forward single #
loop $-1 $131 $132 $53 #
cone-surface $-1 -61.634139429903541 8.2915520652633852 6.1203816230073107 0.87461971476443456 0 -0.48480960649040278 0.72721440973560414 0 1.311929572146652 1 I I 0 1 1.5 forward I I I I #
face $-1 $133 $134 $43 $-1 $135 forward single #
loop $-1 $136 $137 $54 #
cone-surface $-1 -61.634139429903541 13.067340420423651 6.1203816230073107 0.87461971476443456 0 -0.48480960649040278 0.72721440973560414 0 1.311929572146652 1 I I 0 1 1.5 forward I I I I #
face $-1 $138 $139 $33 $-1 $140 reversed single #
loop $-1 $-1 $141 $55 #
plane-surface $-1 0 0 -10.433520032358462 0 0 1 1 0 0 forward_v I I I I #
coedge $-1 $142 $143 $144 $145 forward $56 $-1 #
face $-1 $146 $147 $34 $-1 $148 reversed single #
loop $-1 $-1 $149 $58 #
plane-surface $-1 0 -24.6762638796273 -2.2134929021479568 0 0 1 1 0 0 forward_v I I I I #
coedge $-1 $150 $151 $152 $153 reversed $59 $-1 #
face $-1 $154 $155 $35 $-1 $156 reversed single #
loop $-1 $-1 $157 $61 #
plane-surface $-1 -41.762973333744654 -13.081552767364244 81.123540733359476 0.57357644374324357 0 0.81915203911291934 0.81915203911291934 0 -0.57357644374324357 forward_v I I I I #
coedge $-1 $158 $159 $160 $161 reversed $62 $-1 #
face $-1 $-1 $162 $36 $-1 $163 forward single #
loop $-1 $164 $165 $64 #
cone-surface $-1 60.555132757790744 -15.861703317552749 5.74373466465644 -0.57357644374324357 0 -0.81915203911291934 0.61436402933468948 0 -0.43018233280743268 1 I I -0.70710678118654757 0.70710678118654757 0.75 forward I I I I #
loop $-1 $-1 $166 $47 #
coedge $-1 $104 $104 $167 $168 reversed $65 $-1 #
face $-1 $-1 $169 $37 $-1 $170 forward single #
loop $-1 $171 $172 $67 #
cone-surface $-1 60.555132757790744 -10.301402217175738 5.74373466465644 -0.57357644374324357 0 -0.81915203911291934 0.61436402933468948 0 -0.43018233280743268 1 I I -0.70710678118654757 0.70710678118654757 0.75 forward I I I I #
loop $-1 $-1 $173 $48 #
coedge $-1 $109 $109 $174 $175 reversed $68 $-1 #
face $-1 $176 $177 $38 $-1 $178 reversed single #
loop $-1 $-1 $179 $70 #
plane-surface $-1 -65.428022095400848 -0.46405991919709422 4.052626174445372 -0.87461971476443456 0 0.48480960649040278 0.48480960649040278 0 0.87461971476443456 forward_v I I I I #
coedge $-1 $180 $181 $182 $183 reversed $71 $-1 #
face $-1 $-1 $184 $39 $-1 $185 forward single #
loop $-1 $186 $187 $73 #
cone-surface $-1 -58.952785523636223 -2.8519540967772272 4.6340829377448998 0.87461971476443456 0 -0.48480960649040278 0.36360720486780207 0 0.65596478607332598 1 I I -0.70710678118654757 0.70710678118654757 0.75 forward I I I I #
loop $-1 $-1 $188 $50 #
coedge $-1 $118 $118 $189 $190 reversed $74 $-1 #
face $-1 $-1 $191 $40 $-1 $192 forward single #
loop $-1 $193 $194 $76 #
cone-surface $-1 -58.952785523636223 1.9238342583830352 4.6340829377448998 0.87461971476443456 0 -0.48480960649040278 0.36360720486780207 0 0.65596478607332598 1 I I -0.70710678118654757 0.70710678118654757 0.75 forward I I I I #
loop $-1 $-1 $195 $51 #
coedge $-1 $123 $123 $196 $197 reversed $77 $-1 #
face $-1 $198 $199 $41 $-1 $200 forward single #
loop $-1 $-1 $201 $79 #
plane-surface $-1 -179.87729814076209 16.25119932386383 67.492893465478716 0 -1 0 0.87461971476443456 0 -0.48480960649040278 forward_v I I I I #
coedge $-1 $202 $203 $204 $205 reversed $80 $-1 #
face $-1 $-1 $206 $42 $-1 $207 forward single #
loop $-1 $208 $209 $82 #
cone-surface $-1 -58.952785523636223 8.2915520652633852 4.6340829377448998 0.87461971476443456 0 -0.48480960649040278 0.36360720486780207 0 0.65596478607332598 1 I I -0.70710678118654757 0.70710678118654757 0.75 forward I I I I #
loop $-1 $-1 $210 $53 #
coedge $-1 $132 $132 $211 $212 reversed $83 $-1 #
face $-1 $-1 $213 $43 $-1 $214 forward single #
loop $-1 $215 $216 $85 #
cone-surface $-1 -58.952785523636223 13.067340420423651 4.6340829377448998 0.87461971476443456 0 -0.48480960649040278 0.36360720486780207 0 0.65596478607332598 1 I I -0.70710678118654757 0.70710678118654757 0.75 forward I I I I #
loop $-1 $-1 $217 $54 #
coedge $-1 $137 $137 $218 $219 reversed $86 $-1 #
face $-1 $220 $221 $33 $-1 $222 reversed single #
loop $-1 $-1 $223 $88 #
plane-surface $-1 0 -29.78395704145051 0 0 1 0 0 0 1 forward_v I I I I #
coedge $-1 $224 $225 $226 $227 forward $89 $-1 #
coedge $-1 $228 $91 $229 $230 forward $56 $-1 #
coedge $-1 $91 $228 $231 $232 forward $56 $-1 #
coedge $-1 $233 $234 $91 $145 reversed $235 $-1 #
edge $-1 $236 -29.78395704145051 $237 29.78395704145051 $144 $238 forward 7 unknown #
face $-1 $239 $240 $34 $-1 $241 reversed single #
loop $-1 $-1 $242 $92 #
plane-surface $-1 0 -19.568570717804089 -0.7134929021479568 0 -1 0 0 0 -1 forward_v I I I I #
coedge $-1 $243 $244 $245 $246 reversed $93 $-1 #
coedge $-1 $247 $95 $248 $249 forward $59 $-1 #
coedge $-1 $95 $247 $250 $251 reversed $59 $-1 #
coedge $-1 $252 $253 $95 $153 forward $254 $-1 #
edge $-1 $255 7.2304387779904395 $256 17.44582510163686 $152 $257 forward 7 unknown #
face $-1 $258 $259 $35 $-1 $260 forward single #
loop $-1 $-1 $261 $96 #
plane-surface $-1 33.292971135524127 -6.5945348169243978 188.31453616250499 0 -1 0 -0.57357644374324357 0 -0.81915203911291934 forward_v I I I I #
coedge $-1 $262 $263 $264 $265 reversed $97 $-1 #
coedge $-1 $159 $99 $266 $267 reversed $62 $-1 #
coedge $-1 $99 $158 $262 $268 reversed $62 $-1 #
coedge $-1 $264 $269 $99 $161 forward $270 $-1 #
edge $-1 $271 83.723748048894038 $272 88.089671817161801 $160 $273 forward 7 unknown #
loop $-1 $-1 $167 $100 #
plane-surface $-1 -41.762973333744654 -13.081552767364244 81.123540733359476 0.57357644374324357 0 0.81915203911291934 0.81915203911291934 0 -0.57357644374324357 forward_v I I I I #
loop $-1 $-1 $274 $64 #
coedge $-1 $165 $165 $166 $275 reversed $101 $-1 #
coedge $-1 $166 $166 $165 $275 forward $103 $-1 #
coedge $-1 $167 $167 $104 $168 forward $162 $-1 #
edge $-1 $276 0 $276 6.2831853071796004 $167 $277 forward 7 unknown #
loop $-1 $-1 $174 $105 #
plane-surface $-1 -41.762973333744654 -13.081552767364244 81.123540733359476 0.57357644374324357 0 0.81915203911291934 0.81915203911291934 0 -0.57357644374324357 forward_v I I I I #
loop $-1 $-1 $278 $67 #
coedge $-1 $172 $172 $173 $279 reversed $106 $-1 #
coedge $-1 $173 $173 $172 $279 forward $108 $-1 #
coedge $-1 $174 $174 $109 $175 forward $169 $-1 #
edge $-1 $280 0 $280 6.2831853071796004 $174 $281 forward 7 unknown #
face $-1 $282 $283 $38 $-1 $284 reversed single #
loop $-1 $-1 $285 $110 #
plane-surface $-1 -179.87729814076209 5.107693161823212 67.492893465478716 0 -1 0 0.87461971476443456 0 -0.48480960649040278 forward_v I I I I #
coedge $-1 $286 $287 $288 $289 reversed $111 $-1 #
coedge $-1 $181 $113 $290 $291 reversed $71 $-1 #
coedge $-1 $113 $180 $286 $292 reversed $71 $-1 #
coedge $-1 $288 $293 $113 $183 forward $294 $-1 #
edge $-1 $295 24.510626974980184 $296 28.047614065586849 $182 $297 forward 7 unknown #
loop $-1 $-1 $189 $114 #
plane-surface $-1 -65.428022095400848 -0.46405991919709422 4.052626174445372 -0.87461971476443456 0 0.48480960649040278 0.48480960649040278 0 0.87461971476443456 forward_v I I I I #
loop $-1 $-1 $298 $73 #
coedge $-1 $187 $187 $188 $299 reversed $115 $-1 #
coedge $-1 $188 $188 $187 $299 forward $117 $-1 #
coedge $-1 $189 $189 $118 $190 forward $184 $-1 #
edge $-1 $300 0 $300 6.2831853071796004 $189 $301 forward 7 unknown #
loop $-1 $-1 $196 $119 #
plane-surface $-1 -65.428022095400848 -0.46405991919709422 4.052626174445372 -0.87461971476443456 0 0.48480960649040278 0.48480960649040278 0 0.87461971476443456 forward_v I I I I #
loop $-1 $-1 $302 $76 #
coedge $-1 $194 $194 $195 $303 reversed $120 $-1 #
coedge $-1 $195 $195 $194 $303 forward $122 $-1 #
coedge $-1 $196 $196 $123 $197 forward $191 $-1 #
edge $-1 $304 0 $304 6.2831853071796004 $196 $305 forward 7 unknown #
face $-1 $306 $307 $41 $-1 $308 forward single #
loop $-1 $-1 $309 $124 #
plane-surface $-1 0 0 10.433520032358462 0 0 1 1 0 0 forward_v I I I I #
coedge $-1 $310 $311 $312 $313 reversed $125 $-1 #
coedge $-1 $314 $127 $315 $316 reversed $80 $-1 #
coedge $-1 $127 $314 $309 $317 reversed $80 $-1 #
coedge $-1 $318 $319 $127 $205 forward $307 $-1 #
edge $-1 $320 -2.9417291209212814e-014 $321 7.2956208855087246 $204 $322 forward 7 unknown #
loop $-1 $-1 $211 $128 #
plane-surface $-1 -65.428022095400848 -0.46405991919709422 4.052626174445372 -0.87461971476443456 0 0.48480960649040278 0.48480960649040278 0 0.87461971476443456 forward_v I I I I #
loop $-1 $-1 $323 $82 #
coedge $-1 $209 $209 $210 $324 reversed $129 $-1 #
coedge $-1 $210 $210 $209 $324 forward $131 $-1 #
coedge $-1 $211 $211 $132 $212 forward $206 $-1 #
edge $-1 $325 0 $325 6.2831853071796004 $211 $326 forward 7 unknown #
loop $-1 $-1 $218 $133 #
plane-surface $-1 -65.428022095400848 -0.46405991919709422 4.052626174445372 -0.87461971476443456 0 0.48480960649040278 0.48480960649040278 0 0.87461971476443456 forward_v I I I I #
loop $-1 $-1 $327 $85 #
coedge $-1 $216 $216 $217 $328 reversed $134 $-1 #
coedge $-1 $217 $217 $216 $328 forward $136 $-1 #
coedge $-1 $218 $218 $137 $219 forward $213 $-1 #
edge $-1 $329 0 $329 6.2831853071796004 $218 $330 forward 7 unknown #
face $-1 $331 $332 $33 $-1 $333 reversed single #
loop $-1 $-1 $334 $138 #
plane-surface $-1 -65.428022095400863 0 0 1 0 0 0 0 -1 forward_v I I I I #
coedge $-1 $335 $231 $336 $337 forward $139 $-1 #
coedge $-1 $338 $141 $335 $339 forward $89 $-1 #
coedge $-1 $141 $338 $340 $341 forward $89 $-1 #
coedge $-1 $234 $233 $141 $227 reversed $235 $-1 #
edge $-1 $342 -29.78395704145051 $343 29.78395704145051 $226 $344 forward 7 unknown #
coedge $-1 $143 $142 $345 $346 forward $56 $-1 #
coedge $-1 $347 $348 $142 $230 reversed $332 $-1 #
edge $-1 $237 -65.428022095400863 $349 65.428022095400863 $229 $350 forward 7 unknown #
coedge $-1 $223 $351 $143 $232 reversed $139 $-1 #
edge $-1 $352 -65.428022095400863 $236 65.428022095400863 $231 $353 forward 7 unknown #
coedge $-1 $226 $144 $351 $354 forward $235 $-1 #
coedge $-1 $144 $226 $347 $355 reversed $235 $-1 #
loop $-1 $-1 $233 $331 #
vertex $-1 $145 $356 #
vertex $-1 $145 $357 #
straight-curve $-1 65.428022095400863 0 10.433520032358462 0 1 0 I I #
face $-1 $358 $359 $34 $-1 $360 reversed single #
loop $-1 $-1 $361 $146 #
plane-surface $-1 -65.428022095400863 0 0 1 0 0 0 0 -1 forward_v I I I I #
coedge $-1 $362 $248 $253 $363 reversed $147 $-1 #
coedge $-1 $364 $149 $365 $366 reversed $93 $-1 #
coedge $-1 $149 $364 $362 $367 forward $93 $-1 #
coedge $-1 $253 $252 $149 $246 forward $254 $-1 #
edge $-1 $368 -17.44582510163686 $369 -7.2304387779904395 $245 $370 forward 7 unknown #
coedge $-1 $151 $150 $361 $371 reversed $59 $-1 #
coedge $-1 $242 $372 $150 $249 reversed $147 $-1 #
edge $-1 $255 -65.428022095400863 $373 65.428022095400863 $248 $374 forward 7 unknown #
coedge $-1 $375 $376 $151 $251 forward $359 $-1 #
edge $-1 $256 -65.428022095400863 $377 65.428022095400863 $250 $378 forward 7 unknown #
coedge $-1 $245 $152 $376 $379 forward $254 $-1 #
coedge $-1 $152 $245 $242 $363 forward $254 $-1 #
loop $-1 $-1 $152 $358 #
vertex $-1 $153 $380 #
vertex $-1 $379 $381 #
straight-curve $-1 65.428022095400863 -12.33813193981365 0.7865070978520432 0 -1 0 I I #
face $-1 $-1 $270 $35 $-1 $382 reversed single #
loop $-1 $-1 $383 $154 #
plane-surface $-1 0 0 10.433520032358462 0 0 1 1 0 0 forward_v I I I I #
coedge $-1 $384 $385 $386 $387 reversed $155 $-1 #
coedge $-1 $388 $157 $159 $268 forward $97 $-1 #
coedge $-1 $157 $388 $384 $389 forward $97 $-1 #
coedge $-1 $386 $160 $157 $265 forward $270 $-1 #
edge $-1 $272 -13.027794334121968 $390 -0.053758433242276027 $264 $391 forward 7 unknown #
coedge $-1 $392 $393 $158 $267 forward $259 $-1 #
edge $-1 $394 42.546351320156639 $271 48.781536527638799 $266 $395 forward 7 unknown #
edge $-1 $272 -130.85604419080173 $394 -123.24428848518887 $159 $396 forward 7 unknown #
coedge $-1 $160 $386 $392 $397 reversed $270 $-1 #
loop $-1 $-1 $386 $258 #
vertex $-1 $397 $398 #
vertex $-1 $161 $399 #
straight-curve $-1 65.428022095400863 -19.568570717804089 94.157268081252496 0 0 -1 I I #
coedge $-1 $274 $274 $-1 $400 reversed $164 $-1 #
edge $-1 $401 0 $401 6.2831853071796004 $165 $402 forward 7 unknown #
vertex $-1 $168 $403 #
ellipse-curve $-1 62.310429491659775 -15.861703317552749 8.2505581482245862 0.57357644374324357 0 0.81915203911291934 1.228728058669379 0 -0.86036466561486535 1 I I #
coedge $-1 $278 $278 $-1 $404 reversed $171 $-1 #
edge $-1 $405 0 $405 6.2831853071796004 $172 $406 forward 7 unknown #
vertex $-1 $175 $407 #
ellipse-curve $-1 62.310429491659775 -10.301402217175738 8.2505581482245862 0.57357644374324357 0 0.81915203911291934 1.228728058669379 0 -0.86036466561486535 1 I I #
face $-1 $-1 $294 $38 $-1 $408 forward single #
loop $-1 $-1 $409 $176 #
plane-surface $-1 -65.428022095400863 0 0 1 0 0 0 0 -1 forward_v I I I I #
coedge $-1 $410 $411 $412 $413 reversed $177 $-1 #
coedge $-1 $414 $179 $181 $292 forward $111 $-1 #
coedge $-1 $179 $414 $410 $415 forward $111 $-1 #
coedge $-1 $412 $182 $179 $289 forward $294 $-1 #
edge $-1 $296 -5.8037830406188533 $416 5.3397231214217591 $288 $417 forward 7 unknown #
coedge $-1 $418 $419 $180 $291 forward $283 $-1 #
edge $-1 $420 -29.693820558294011 $295 -23.312926700380896 $290 $421 forward 7 unknown #
edge $-1 $296 -7.2956208855087246 $420 2.9417291209212814e-014 $181 $422 forward 7 unknown #
coedge $-1 $182 $412 $418 $423 forward $294 $-1 #
loop $-1 $-1 $412 $282 #
vertex $-1 $291 $424 #
vertex $-1 $183 $425 #
straight-curve $-1 -89.938649070381047 -6.0358130002174004 10.433520032358462 1 0 0 I I #
coedge $-1 $298 $298 $-1 $426 reversed $186 $-1 #
edge $-1 $427 0 $427 6.2831853071796004 $187 $428 forward 7 unknown #
vertex $-1 $190 $429 #
ellipse-curve $-1 -63.659528550097527 -2.8519540967772272 7.2430731034019145 -0.87461971476443456 0 0.48480960649040278 0.72721440973560414 0 1.311929572146652 1 I I #
coedge $-1 $302 $302 $-1 $430 reversed $193 $-1 #
edge $-1 $431 0 $431 6.2831853071796004 $194 $432 forward 7 unknown #
vertex $-1 $197 $433 #
ellipse-curve $-1 -63.659528550097527 1.9238342583830352 7.2430731034019145 -0.87461971476443456 0 0.48480960649040278 0.72721440973560414 0 1.311929572146652 1 I I #
face $-1 $-1 $434 $41 $-1 $435 reversed single #
loop $-1 $-1 $318 $198 #
plane-surface $-1 -179.87729814076209 5.107693161823212 67.492893465478716 0 -1 0 0.87461971476443456 0 -0.48480960649040278 forward_v I I I I #
coedge $-1 $312 $436 $203 $317 forward $199 $-1 #
coedge $-1 $311 $201 $314 $437 reversed $125 $-1 #
coedge $-1 $201 $310 $438 $439 reversed $125 $-1 #
coedge $-1 $440 $309 $201 $313 forward $199 $-1 #
edge $-1 $441 -28.047614065586849 $442 -24.510626974980184 $312 $443 forward 7 unknown #
coedge $-1 $203 $202 $310 $437 forward $80 $-1 #
coedge $-1 $444 $438 $202 $316 forward $434 $-1 #
edge $-1 $445 -16.483229283462379 $320 -5.3397231214217591 $315 $446 forward 7 unknown #
edge $-1 $321 5.3397231214217591 $441 16.483229283462379 $309 $447 forward 7 unknown #
coedge $-1 $319 $204 $436 $448 reversed $307 $-1 #
coedge $-1 $204 $318 $444 $449 reversed $307 $-1 #
vertex $-1 $316 $450 #
vertex $-1 $317 $451 #
straight-curve $-1 -65.428022095400848 5.107693161823212 4.052626174445372 0.48480960649040278 0 0.87461971476443456 I I #
coedge $-1 $323 $323 $-1 $452 reversed $208 $-1 #
edge $-1 $453 0 $453 6.2831853071796004 $209 $454 forward 7 unknown #
vertex $-1 $212 $455 #
ellipse-curve $-1 -63.659528550097527 8.2915520652633852 7.2430731034019145 -0.87461971476443456 0 0.48480960649040278 0.72721440973560414 0 1.311929572146652 1 I I #
coedge $-1 $327 $327 $-1 $456 reversed $215 $-1 #
edge $-1 $457 0 $457 6.2831853071796004 $216 $458 forward 7 unknown #
vertex $-1 $219 $459 #
ellipse-curve $-1 -63.659528550097527 13.067340420423651 7.2430731034019145 -0.87461971476443456 0 0.48480960649040278 0.72721440973560414 0 1.311929572146652 1 I I #
face $-1 $-1 $235 $33 $-1 $460 reversed single #
loop $-1 $-1 $347 $220 #
plane-surface $-1 0 29.78395704145051 0 0 -1 0 0 0 -1 forward_v I I I I #
coedge $-1 $461 $345 $348 $462 forward $221 $-1 #
coedge $-1 $351 $223 $224 $339 reversed $139 $-1 #
coedge $-1 $345 $461 $223 $337 reversed $221 $-1 #
edge $-1 $352 -10.433520032358462 $463 10.433520032358462 $336 $464 forward 7 unknown #
coedge $-1 $225 $224 $461 $465 forward $89 $-1 #
edge $-1 $343 -65.428022095400863 $463 65.428022095400863 $335 $466 forward 7 unknown #
coedge $-1 $348 $347 $225 $341 reversed $332 $-1 #
edge $-1 $467 -65.428022095400863 $342 65.428022095400863 $340 $468 forward 7 unknown #
vertex $-1 $227 $469 #
vertex $-1 $354 $470 #
straight-curve $-1 65.428022095400863 0 -10.433520032358462 0 -1 0 I I #
coedge $-1 $334 $336 $228 $346 reversed $221 $-1 #
edge $-1 $349 -29.78395704145051 $352 29.78395704145051 $345 $471 forward 7 unknown #
coedge $-1 $340 $229 $234 $355 forward $332 $-1 #
coedge $-1 $229 $340 $334 $462 reversed $332 $-1 #
vertex $-1 $230 $472 #
straight-curve $-1 0 29.78395704145051 10.433520032358462 -1 0 0 I I #
coedge $-1 $231 $335 $233 $354 reversed $139 $-1 #
vertex $-1 $346 $473 #
straight-curve $-1 0 -29.78395704145051 10.433520032358462 1 0 0 I I #
edge $-1 $236 -10.433520032358462 $343 10.433520032358462 $233 $474 forward 7 unknown #
edge $-1 $237 -10.433520032358462 $342 10.433520032358462 $234 $475 forward 7 unknown #
point $-1 65.428022095400863 -29.78395704145051 10.433520032358462 #
point $-1 65.428022095400863 29.78395704145051 10.433520032358462 #
face $-1 $-1 $254 $34 $-1 $476 reversed single #
loop $-1 $-1 $250 $239 #
plane-surface $-1 0 -29.78395704145051 0 0 1 0 0 0 1 forward_v I I I I #
coedge $-1 $477 $478 $247 $371 forward $240 $-1 #
coedge $-1 $372 $242 $244 $367 reversed $147 $-1 #
edge $-1 $369 -1.8567464510739784 $255 1.1432535489260216 $253 $479 forward 7 unknown #
coedge $-1 $244 $243 $480 $481 reversed $93 $-1 #
coedge $-1 $376 $375 $243 $366 forward $359 $-1 #
edge $-1 $482 -65.428022095400863 $368 65.428022095400863 $365 $483 forward 7 unknown #
edge $-1 $484 -65.428022095400863 $369 65.428022095400863 $362 $485 forward 7 unknown #
vertex $-1 $366 $486 #
vertex $-1 $246 $487 #
straight-curve $-1 65.428022095400863 -12.33813193981365 -2.2134929021479568 0 1 0 I I #
edge $-1 $377 -17.44582510163686 $373 -7.2304387779904395 $361 $488 forward 7 unknown #
coedge $-1 $248 $362 $477 $489 reversed $147 $-1 #
vertex $-1 $371 $490 #
straight-curve $-1 0 -19.568570717804089 0.7865070978520432 -1 0 0 I I #
coedge $-1 $365 $250 $478 $491 forward $359 $-1 #
coedge $-1 $250 $365 $252 $379 reversed $359 $-1 #
vertex $-1 $491 $492 #
straight-curve $-1 0 -29.78395704145051 0.7865070978520432 -1 0 0 I I #
edge $-1 $256 -0.7865070978520432 $368 2.2134929021479568 $252 $493 forward 7 unknown #
point $-1 65.428022095400863 -19.568570717804089 0.7865070978520432 #
point $-1 65.428022095400863 -29.78395704145051 0.7865070978520432 #
plane-surface $-1 65.428022095400863 0 0 -1 0 0 0 0 1 forward_v I I I I #
coedge $-1 $393 $392 $385 $494 forward $259 $-1 #
coedge $-1 $385 $261 $263 $389 reversed $155 $-1 #
coedge $-1 $261 $384 $383 $494 reversed $155 $-1 #
coedge $-1 $269 $264 $261 $387 forward $270 $-1 #
edge $-1 $390 -88.089671817161801 $495 -83.723748048894038 $386 $496 forward 7 unknown #
coedge $-1 $263 $262 $393 $497 reversed $97 $-1 #
edge $-1 $498 123.24428848518887 $390 130.85604419080173 $384 $499 forward 7 unknown #
vertex $-1 $265 $500 #
straight-curve $-1 65.428022095400863 -6.5407763836821218 6.0675962640907031 0 1 0 I I #
coedge $-1 $383 $266 $269 $397 forward $259 $-1 #
coedge $-1 $266 $383 $388 $497 forward $259 $-1 #
vertex $-1 $267 $501 #
straight-curve $-1 16.646485567762063 -19.568570717804089 10.433520032358459 1 0 0 I I #
straight-curve $-1 -41.762973333744654 -19.568570717804089 81.123540733359476 -0.81915203911291934 0 0.57357644374324357 I I #
edge $-1 $271 -19.568570717804089 $495 -6.5945348169243978 $269 $502 forward 7 unknown #
point $-1 65.428022095400863 -19.568570717804089 10.433520032358462 #
point $-1 65.428022095400863 -19.568570717804089 6.067596264090696 #
edge $-1 $503 1 $503 0 $274 $-1 forward 7 unknown #
vertex $-1 $275 $504 #
ellipse-curve $-1 60.985315090598178 -15.861703317552749 6.3580986939911295 0.57357644374324357 0 0.81915203911291934 1.228728058669379 0 -0.86036466561486535 1 I I #
point $-1 63.539157550329158 -15.861703317552749 7.3901934826097175 #
edge $-1 $505 1 $505 0 $278 $-1 forward 7 unknown #
vertex $-1 $279 $506 #
ellipse-curve $-1 60.985315090598178 -10.301402217175738 6.3580986939911295 0.57357644374324357 0 0.81915203911291934 1.228728058669379 0 -0.86036466561486535 1 I I #
point $-1 63.539157550329158 -10.301402217175738 7.3901934826097175 #
plane-surface $-1 0 0 10.433520032358462 0 0 1 1 0 0 forward_v I I I I #
coedge $-1 $419 $418 $411 $507 forward $283 $-1 #
coedge $-1 $411 $285 $287 $415 reversed $177 $-1 #
coedge $-1 $285 $410 $409 $507 reversed $177 $-1 #
coedge $-1 $293 $288 $285 $413 forward $294 $-1 #
edge $-1 $416 -28.047614065586849 $508 -24.510626974980184 $412 $509 forward 7 unknown #
coedge $-1 $287 $286 $419 $510 reversed $111 $-1 #
edge $-1 $511 -2.9417291209212814e-014 $416 7.2956208855087246 $410 $512 forward 7 unknown #
vertex $-1 $289 $513 #
straight-curve $-1 -61.891035004794205 -0.23202995959854711 10.433520032358464 0 1 0 I I #
coedge $-1 $409 $290 $293 $423 reversed $283 $-1 #
coedge $-1 $290 $409 $414 $510 forward $283 $-1 #
vertex $-1 $291 $514 #
straight-curve $-1 -65.428022095400863 -6.0358130002174004 33.746446732739358 0 0 1 I I #
straight-curve $-1 -65.428022095400848 -6.0358130002174004 4.052626174445372 -0.48480960649040278 0 -0.87461971476443456 I I #
edge $-1 $508 -5.107693161823212 $295 6.0358130002174004 $418 $515 forward 7 unknown #
point $-1 -65.428022095400863 -6.0358130002174004 10.433520032358462 #
point $-1 -61.891035004794198 -6.0358130002174004 10.433520032358462 #
edge $-1 $516 1 $516 0 $298 $-1 forward 7 unknown #
vertex $-1 $299 $517 #
ellipse-curve $-1 -59.608750309709549 -2.8519540967772272 4.9976901426127016 -0.87461971476443456 0 0.48480960649040278 0.72721440973560414 0 1.311929572146652 1 I I #
point $-1 -62.932314140361932 -2.8519540967772272 8.5550026755485717 #
edge $-1 $518 1 $518 0 $302 $-1 forward 7 unknown #
vertex $-1 $303 $519 #
ellipse-curve $-1 -59.608750309709549 1.9238342583830352 4.9976901426127016 -0.87461971476443456 0 0.48480960649040278 0.72721440973560414 0 1.311929572146652 1 I I #
point $-1 -62.932314140361932 1.9238342583830352 8.5550026755485717 #
loop $-1 $-1 $315 $306 #
plane-surface $-1 -65.428022095400863 0 0 1 0 0 0 0 -1 forward_v I I I I #
coedge $-1 $309 $440 $318 $448 forward $199 $-1 #
edge $-1 $445 -2.9417291209212814e-014 $441 7.2956208855087246 $310 $520 forward 7 unknown #
coedge $-1 $315 $521 $311 $439 forward $434 $-1 #
edge $-1 $442 23.312926700380896 $445 29.693820558294011 $438 $522 forward 7 unknown #
coedge $-1 $436 $312 $521 $523 forward $199 $-1 #
vertex $-1 $313 $524 #
vertex $-1 $523 $525 #
straight-curve $-1 -89.938649070381047 16.25119932386383 10.433520032358462 -1 0 0 I I #
coedge $-1 $521 $315 $319 $449 forward $434 $-1 #
vertex $-1 $439 $526 #
straight-curve $-1 -65.428022095400863 -0.23202995959854711 4.0526261744453347 0 -1 0 I I #
straight-curve $-1 -61.891035004794205 -0.23202995959854711 10.433520032358464 0 1 0 I I #
edge $-1 $527 24.510626974980184 $321 28.047614065586849 $436 $528 forward 7 unknown #
edge $-1 $320 -29.693820558294011 $527 -23.312926700380896 $444 $529 forward 7 unknown #
point $-1 -65.428022095400863 5.107693161823212 4.0526261744453462 #
point $-1 -61.891035004794198 5.107693161823212 10.433520032358462 #
edge $-1 $530 1 $530 0 $323 $-1 forward 7 unknown #
vertex $-1 $324 $531 #
ellipse-curve $-1 -59.608750309709549 8.2915520652633852 4.9976901426127016 -0.87461971476443456 0 0.48480960649040278 0.72721440973560414 0 1.311929572146652 1 I I #
point $-1 -62.932314140361932 8.2915520652633852 8.5550026755485717 #
edge $-1 $532 1 $532 0 $327 $-1 forward 7 unknown #
vertex $-1 $328 $533 #
ellipse-curve $-1 -59.608750309709549 13.067340420423651 4.9976901426127016 -0.87461971476443456 0 0.48480960649040278 0.72721440973560414 0 1.311929572146652 1 I I #
point $-1 -62.932314140361932 13.067340420423651 8.5550026755485717 #
plane-surface $-1 65.428022095400863 0 0 -1 0 0 0 0 1 forward_v I I I I #
coedge $-1 $336 $334 $338 $465 reversed $221 $-1 #
edge $-1 $349 -10.433520032358462 $467 10.433520032358462 $348 $534 forward 7 unknown #
vertex $-1 $465 $535 #
straight-curve $-1 -65.428022095400863 -29.78395704145051 0 0 0 -1 I I #
edge $-1 $463 -29.78395704145051 $467 29.78395704145051 $461 $536 forward 7 unknown #
straight-curve $-1 0 -29.78395704145051 -10.433520032358462 -1 0 0 I I #
vertex $-1 $341 $537 #
straight-curve $-1 0 29.78395704145051 -10.433520032358462 1 0 0 I I #
point $-1 65.428022095400863 29.78395704145051 -10.433520032358462 #
point $-1 65.428022095400863 -29.78395704145051 -10.433520032358462 #
straight-curve $-1 -65.428022095400863 0 10.433520032358462 0 -1 0 I I #
point $-1 -65.428022095400863 29.78395704145051 10.433520032358462 #
point $-1 -65.428022095400863 -29.78395704145051 10.433520032358462 #
straight-curve $-1 65.428022095400863 -29.78395704145051 0 0 0 -1 I I #
straight-curve $-1 65.428022095400863 29.78395704145051 0 0 0 -1 I I #
plane-surface $-1 65.428022095400863 0 0 -1 0 0 0 0 1 forward_v I I I I #
coedge $-1 $480 $361 $372 $489 forward $240 $-1 #
coedge $-1 $361 $480 $375 $491 reversed $240 $-1 #
straight-curve $-1 65.428022095400863 -19.568570717804089 -0.3567464510739784 0 0 1 I I #
coedge $-1 $478 $477 $364 $481 forward $240 $-1 #
edge $-1 $484 7.2304387779904395 $482 17.44582510163686 $480 $538 forward 7 unknown #
vertex $-1 $366 $539 #
straight-curve $-1 0 -29.78395704145051 -2.2134929021479568 1 0 0 I I #
vertex $-1 $481 $540 #
straight-curve $-1 0 -19.568570717804089 -2.2134929021479568 1 0 0 I I #
point $-1 65.428022095400863 -29.78395704145051 -2.2134929021479568 #
point $-1 65.428022095400863 -19.568570717804089 -2.2134929021479568 #
straight-curve $-1 -65.428022095400863 -12.33813193981365 0.7865070978520432 0 1 0 I I #
edge $-1 $373 -1.1432535489260216 $484 1.8567464510739784 $477 $541 forward 7 unknown #
point $-1 -65.428022095400863 -19.568570717804089 0.7865070978520432 #
edge $-1 $377 -0.7865070978520432 $482 2.2134929021479568 $478 $542 forward 7 unknown #
point $-1 -65.428022095400863 -29.78395704145051 0.7865070978520432 #
straight-curve $-1 65.428022095400863 -29.78395704145051 0 0 0 -1 I I #
edge $-1 $495 -48.781536527638799 $498 -42.546351320156639 $383 $543 forward 7 unknown #
vertex $-1 $494 $544 #
straight-curve $-1 65.428022095400863 -6.5945348169243978 94.157268081252496 0 0 1 I I #
edge $-1 $498 0.053758433242276027 $394 13.027794334121968 $393 $545 forward 7 unknown #
vertex $-1 $497 $546 #
straight-curve $-1 -41.762973333744654 -6.5945348169243978 81.123540733359476 0.81915203911291934 0 -0.57357644374324357 I I #
point $-1 65.428022095400863 -6.5945348169243978 6.067596264090696 #
point $-1 59.192836887918702 -19.568570717804089 10.433520032358459 #
straight-curve $-1 65.428022095400863 0 10.433520032358462 0 1 0 I I #
vertex $-1 $400 $547 #
point $-1 62.214043149267553 -15.861703317552749 5.4977340283762643 #
vertex $-1 $404 $548 #
point $-1 62.214043149267553 -10.301402217175738 5.4977340283762643 #
edge $-1 $508 23.312926700380896 $511 29.693820558294011 $409 $549 forward 7 unknown #
vertex $-1 $423 $550 #
straight-curve $-1 -89.938649070381047 5.107693161823212 10.433520032358462 -1 0 0 I I #
edge $-1 $511 -5.3397231214217591 $420 5.8037830406188533 $419 $551 forward 7 unknown #
vertex $-1 $510 $552 #
straight-curve $-1 -65.428022095400848 5.107693161823212 4.052626174445372 0.48480960649040278 0 0.87461971476443456 I I #
point $-1 -61.891035004794198 5.107693161823212 10.433520032358462 #
point $-1 -65.428022095400863 -6.0358130002174004 4.0526261744453462 #
straight-curve $-1 -65.428022095400863 0 10.433520032358462 0 -1 0 I I #
vertex $-1 $426 $553 #
point $-1 -58.881535899973947 -2.8519540967772272 6.3096197147593536 #
vertex $-1 $430 $554 #
point $-1 -58.881535899973947 1.9238342583830352 6.3096197147593536 #
straight-curve $-1 -65.428022095400848 16.25119932386383 4.052626174445372 0.48480960649040278 0 0.87461971476443456 I I #
coedge $-1 $438 $444 $440 $523 reversed $434 $-1 #
straight-curve $-1 -65.428022095400863 16.25119932386383 33.746446732739358 0 0 -1 I I #
edge $-1 $442 -16.25119932386383 $527 -5.107693161823212 $521 $555 forward 7 unknown #
point $-1 -61.891035004794198 16.25119932386383 10.433520032358462 #
point $-1 -65.428022095400863 16.25119932386383 10.433520032358462 #
point $-1 -65.428022095400863 16.25119932386383 4.0526261744453462 #
vertex $-1 $449 $556 #
straight-curve $-1 -89.938649070381047 5.107693161823212 10.433520032358462 1 0 0 I I #
straight-curve $-1 -65.428022095400863 5.107693161823212 33.746446732739358 0 0 1 I I #
vertex $-1 $452 $557 #
point $-1 -58.881535899973947 8.2915520652633852 6.3096197147593536 #
vertex $-1 $456 $558 #
point $-1 -58.881535899973947 13.067340420423651 6.3096197147593536 #
straight-curve $-1 -65.428022095400863 29.78395704145051 0 0 0 -1 I I #
point $-1 -65.428022095400863 -29.78395704145051 -10.433520032358462 #
straight-curve $-1 -65.428022095400863 0 -10.433520032358462 0 1 0 I I #
point $-1 -65.428022095400863 29.78395704145051 -10.433520032358462 #
straight-curve $-1 -65.428022095400863 -12.33813193981365 -2.2134929021479568 0 -1 0 I I #
point $-1 -65.428022095400863 -29.78395704145051 -2.2134929021479568 #
point $-1 -65.428022095400863 -19.568570717804089 -2.2134929021479568 #
straight-curve $-1 -65.428022095400863 -19.568570717804089 -0.3567464510739784 0 0 -1 I I #
straight-curve $-1 -65.428022095400863 -29.78395704145051 0 0 0 -1 I I #
straight-curve $-1 16.646485567762063 -6.5945348169243978 10.433520032358459 -1 0 0 I I #
point $-1 65.428022095400863 -6.5945348169243978 10.433520032358462 #
straight-curve $-1 59.192836887918695 -6.5407763836821218 10.433520032358466 0 -1 0 I I #
point $-1 59.192836887918702 -6.5945348169243978 10.433520032358459 #
point $-1 60.124950424983311 -15.861703317552749 5.1293706353217505 #
point $-1 60.124950424983311 -10.301402217175738 5.1293706353217505 #
straight-curve $-1 -65.428022095400863 5.107693161823212 33.746446732739358 0 0 -1 I I #
point $-1 -65.428022095400863 5.107693161823212 10.433520032358462 #
straight-curve $-1 -65.428022095400863 -0.23202995959854711 4.0526261744453347 0 -1 0 I I #
point $-1 -65.428022095400863 5.107693161823212 4.0526261744453462 #
point $-1 -58.296820737562896 -2.8519540967772272 4.2704757328770979 #
point $-1 -58.296820737562896 1.9238342583830352 4.2704757328770979 #
straight-curve $-1 -65.428022095400863 0 10.433520032358462 0 -1 0 I I #
point $-1 -65.428022095400863 5.107693161823212 10.433520032358462 #
point $-1 -58.296820737562896 8.2915520652633852 4.2704757328770979 #
point $-1 -58.296820737562896 13.067340420423651 4.2704757328770979 #
End-of-ACIS-data 