500 0 15 0           
7 Unknown 11 ACIS 5.0 NT 24 Fri Mar 26 15:30:56 1999 
-1 9.9999999999999995e-007 1e-010 
body $-1 $15 $-1 $16 #
body $-1 $17 $-1 $18 #
body $-1 $19 $-1 $20 #
body $-1 $21 $-1 $22 #
body $-1 $23 $-1 $24 #
body $-1 $25 $-1 $26 #
body $-1 $27 $-1 $28 #
body $-1 $29 $-1 $30 #
body $-1 $31 $-1 $32 #
body $-1 $33 $-1 $34 #
body $-1 $35 $-1 $36 #
body $-1 $37 $-1 $38 #
body $-1 $39 $-1 $40 #
body $-1 $41 $-1 $42 #
body $-1 $43 $-1 $44 #
lump $-1 $-1 $45 $0 #
transform $-1 1 0 0 0 1 0 0 0 1 44.967192602313304 30.273637159551726 8.703381962657831 1 rotate no_reflect no_shear #
lump $-1 $-1 $46 $1 #
transform $-1 1 0 0 0 1 0 0 0 1 44.967192602313304 30.273637159551726 8.703381962657831 1 rotate no_reflect no_shear #
lump $-1 $-1 $47 $2 #
transform $-1 1 0 0 0 1 0 0 0 1 44.967192602313304 30.273637159551726 8.703381962657831 1 rotate no_reflect no_shear #
lump $-1 $-1 $48 $3 #
transform $-1 1 0 0 0 1 0 0 0 1 44.967192602313304 30.273637159551726 8.703381962657831 1 rotate no_reflect no_shear #
lump $-1 $-1 $49 $4 #
transform $-1 1 0 0 0 1 0 0 0 1 44.967192602313304 30.273637159551726 8.703381962657831 1 rotate no_reflect no_shear #
lump $-1 $-1 $50 $5 #
transform $-1 1 0 0 0 1 0 0 0 1 44.967192602313304 30.273637159551726 8.703381962657831 1 rotate no_reflect no_shear #
lump $-1 $-1 $51 $6 #
transform $-1 1 0 0 0 1 0 0 0 1 44.967192602313304 30.273637159551726 8.703381962657831 1 rotate no_reflect no_shear #
lump $-1 $-1 $52 $7 #
transform $-1 1 0 0 0 1 0 0 0 1 44.967192602313304 30.273637159551726 8.703381962657831 1 rotate no_reflect no_shear #
lump $-1 $-1 $53 $8 #
transform $-1 1 0 0 0 1 0 0 0 1 44.967192602313304 30.273637159551726 8.703381962657831 1 rotate no_reflect no_shear #
lump $-1 $-1 $54 $9 #
transform $-1 1 0 0 0 1 0 0 0 1 44.967192602313304 30.273637159551726 8.703381962657831 1 rotate no_reflect no_shear #
lump $-1 $-1 $55 $10 #
transform $-1 1 0 0 0 1 0 0 0 1 44.967192602313304 30.273637159551726 8.703381962657831 1 rotate no_reflect no_shear #
lump $-1 $-1 $56 $11 #
transform $-1 1 0 0 0 1 0 0 0 1 44.967192602313304 30.273637159551726 8.703381962657831 1 rotate no_reflect no_shear #
lump $-1 $-1 $57 $12 #
transform $-1 1 0 0 0 1 0 0 0 1 44.967192602313304 30.273637159551726 8.703381962657831 1 rotate no_reflect no_shear #
lump $-1 $-1 $58 $13 #
transform $-1 1 0 0 0 1 0 0 0 1 44.967192602313304 30.273637159551726 8.703381962657831 1 rotate no_reflect no_shear #
lump $-1 $-1 $59 $14 #
transform $-1 1 0 0 0 1 0 0 0 1 44.967192602313304 30.273637159551726 8.703381962657831 1 rotate no_reflect no_shear #
shell $-1 $-1 $-1 $60 $-1 $15 #
shell $-1 $-1 $-1 $61 $-1 $17 #
shell $-1 $-1 $-1 $62 $-1 $19 #
shell $-1 $-1 $-1 $63 $-1 $21 #
shell $-1 $-1 $-1 $64 $-1 $23 #
shell $-1 $-1 $-1 $65 $-1 $25 #
shell $-1 $-1 $-1 $66 $-1 $27 #
shell $-1 $-1 $-1 $67 $-1 $29 #
shell $-1 $-1 $-1 $68 $-1 $31 #
shell $-1 $-1 $-1 $69 $-1 $33 #
shell $-1 $-1 $-1 $70 $-1 $35 #
shell $-1 $-1 $-1 $71 $-1 $37 #
shell $-1 $-1 $-1 $72 $-1 $39 #
shell $-1 $-1 $-1 $73 $-1 $41 #
shell $-1 $-1 $-1 $74 $-1 $43 #
face $-1 $75 $76 $45 $-1 $77 forward single #
face $-1 $78 $79 $46 $-1 $80 forward single #
face $-1 $81 $82 $47 $-1 $83 reversed single #
face $-1 $84 $85 $48 $-1 $86 reversed single #
face $-1 $87 $88 $49 $-1 $89 forward single #
face $-1 $90 $91 $50 $-1 $92 forward single #
face $-1 $93 $94 $51 $-1 $95 reversed single #
face $-1 $96 $97 $52 $-1 $98 forward single #
face $-1 $99 $100 $53 $-1 $101 forward single #
face $-1 $102 $103 $54 $-1 $104 reversed single #
face $-1 $105 $106 $55 $-1 $107 forward single #
face $-1 $108 $109 $56 $-1 $110 forward single #
face $-1 $111 $112 $57 $-1 $113 reversed single #
face $-1 $114 $115 $58 $-1 $116 forward single #
face $-1 $117 $118 $59 $-1 $119 forward single #
face $-1 $120 $121 $45 $-1 $122 reversed single #
loop $-1 $-1 $123 $60 #
plane-surface $-1 0 0 8.703381962657831 0 0 1 1 0 0 forward_v I I I I #
face $-1 $124 $125 $46 $-1 $126 reversed single #
loop $-1 $-1 $127 $61 #
plane-surface $-1 -41.314441601158265 0 -5.703381962657831 0 0 1 1 0 0 forward_v I I I I #
face $-1 $128 $129 $47 $-1 $130 reversed single #
loop $-1 $-1 $131 $62 #
plane-surface $-1 40.504793603709828 0 5.6798950129543453 0 0 1 1 0 0 forward_v I I I I #
face $-1 $132 $133 $48 $-1 $134 reversed single #
loop $-1 $-1 $135 $63 #
plane-surface $-1 -34.685705840776613 65.660172862493525 106.55186684507555 1 0 0 0 -0.79863551827123203 -0.60181501223851219 forward_v I I I I #
face $-1 $136 $137 $49 $-1 $138 forward single #
loop $-1 $139 $140 $64 #
cone-surface $-1 -32.317087793595419 28.051939146575585 6.0286448105274575 0 -0.79863551827123203 -0.60181501223851219 0.5 0 0 1 I I 0 1 0.5 forward I I I I #
face $-1 $141 $142 $50 $-1 $143 forward single #
loop $-1 $144 $145 $65 #
cone-surface $-1 -28.764160722823625 28.051939146575585 6.0286448105274575 0 -0.79863551827123203 -0.60181501223851219 0.5 0 0 1 I I 0 1 0.5 forward I I I I #
face $-1 $146 $147 $51 $-1 $148 reversed single #
loop $-1 $-1 $149 $66 #
plane-surface $-1 -16.259684539499222 65.660172862493525 106.55186684507555 1 0 0 0 -0.79863551827123203 -0.60181501223851219 forward_v I I I I #
face $-1 $150 $151 $52 $-1 $152 forward single #
loop $-1 $153 $154 $67 #
cone-surface $-1 -13.891066492318028 28.051939146575585 6.0286448105274575 0 -0.79863551827123203 -0.60181501223851219 0.5 0 0 1 I I 0 1 0.5 forward I I I I #
face $-1 $155 $156 $53 $-1 $157 forward single #
loop $-1 $158 $159 $68 #
cone-surface $-1 -10.338139421546231 28.051939146575585 6.0286448105274575 0 -0.79863551827123203 -0.60181501223851219 0.5 0 0 1 I I 0 1 0.5 forward I I I I #
face $-1 $160 $161 $54 $-1 $162 reversed single #
loop $-1 $-1 $163 $69 #
plane-surface $-1 2.1663367617781644 65.660172862493525 106.55186684507555 1 0 0 0 -0.79863551827123203 -0.60181501223851219 forward_v I I I I #
face $-1 $164 $165 $55 $-1 $166 forward single #
loop $-1 $167 $168 $70 #
cone-surface $-1 4.5349548089593625 28.051939146575585 6.0286448105274575 0 -0.79863551827123203 -0.60181501223851219 0.5 0 0 1 I I 0 1 0.5 forward I I I I #
face $-1 $169 $170 $56 $-1 $171 forward single #
loop $-1 $172 $173 $71 #
cone-surface $-1 8.0878818797311567 28.051939146575585 6.0286448105274575 0 -0.79863551827123203 -0.60181501223851219 0.5 0 0 1 I I 0 1 0.5 forward I I I I #
face $-1 $174 $175 $57 $-1 $176 reversed single #
loop $-1 $-1 $177 $72 #
plane-surface $-1 20.592358063055553 65.660172862493525 106.55186684507555 1 0 0 0 -0.79863551827123203 -0.60181501223851219 forward_v I I I I #
face $-1 $178 $179 $58 $-1 $180 forward single #
loop $-1 $181 $182 $73 #
cone-surface $-1 22.960976110236757 28.051939146575585 6.0286448105274575 0 -0.79863551827123203 -0.60181501223851219 0.5 0 0 1 I I 0 1 0.5 forward I I I I #
face $-1 $183 $184 $59 $-1 $185 forward single #
loop $-1 $186 $187 $74 #
cone-surface $-1 26.513903181008544 28.051939146575585 6.0286448105274575 0 -0.79863551827123203 -0.60181501223851219 0.5 0 0 1 I I 0 1 0.5 forward I I I I #
face $-1 $188 $189 $45 $-1 $190 reversed single #
loop $-1 $-1 $191 $75 #
plane-surface $-1 0 0 -8.703381962657831 0 0 1 1 0 0 forward_v I I I I #
coedge $-1 $192 $193 $194 $195 forward $76 $-1 #
face $-1 $196 $197 $46 $-1 $198 reversed single #
loop $-1 $-1 $199 $78 #
plane-surface $-1 -37.661690600003226 0 -7.203381962657831 -1 0 0 0 0 1 forward_v I I I I #
coedge $-1 $200 $201 $202 $203 forward $79 $-1 #
face $-1 $204 $205 $47 $-1 $206 reversed single #
loop $-1 $-1 $207 $81 #
plane-surface $-1 36.042394605106345 0 7.1916384878060882 1 0 0 0 0 -1 forward_v I I I I #
coedge $-1 $208 $209 $210 $211 reversed $82 $-1 #
face $-1 $212 $213 $48 $-1 $214 reversed single #
loop $-1 $-1 $215 $84 #
plane-surface $-1 -30.540624258209522 -6.1646214758080617 52.428003712490117 0 0.79863551827123203 0.60181501223851219 1 0 0 forward_v I I I I #
coedge $-1 $216 $217 $218 $219 reversed $85 $-1 #
face $-1 $-1 $220 $49 $-1 $221 forward single #
loop $-1 $222 $223 $87 #
cone-surface $-1 -32.317087793595419 27.375279135710841 5.5187449332951299 0 -0.79863551827123203 -0.60181501223851219 0.25 0 0 1 I I -0.70710678118654746 0.70710678118654746 0.25 forward I I I I #
loop $-1 $-1 $224 $64 #
coedge $-1 $140 $140 $225 $226 reversed $88 $-1 #
face $-1 $-1 $227 $50 $-1 $228 forward single #
loop $-1 $229 $230 $90 #
cone-surface $-1 -28.764160722823625 27.375279135710841 5.5187449332951299 0 -0.79863551827123203 -0.60181501223851219 0.25 0 0 1 I I -0.70710678118654746 0.70710678118654746 0.25 forward I I I I #
loop $-1 $-1 $231 $65 #
coedge $-1 $145 $145 $232 $233 reversed $91 $-1 #
face $-1 $234 $235 $51 $-1 $236 reversed single #
loop $-1 $-1 $237 $93 #
plane-surface $-1 -12.114602956932131 -6.1646214758080617 52.428003712490117 0 0.79863551827123203 0.60181501223851219 1 0 0 forward_v I I I I #
coedge $-1 $238 $239 $240 $241 reversed $94 $-1 #
face $-1 $-1 $242 $52 $-1 $243 forward single #
loop $-1 $244 $245 $96 #
cone-surface $-1 -13.891066492318028 27.375279135710841 5.5187449332951299 0 -0.79863551827123203 -0.60181501223851219 0.25 0 0 1 I I -0.70710678118654746 0.70710678118654746 0.25 forward I I I I #
loop $-1 $-1 $246 $67 #
coedge $-1 $154 $154 $247 $248 reversed $97 $-1 #
face $-1 $-1 $249 $53 $-1 $250 forward single #
loop $-1 $251 $252 $99 #
cone-surface $-1 -10.338139421546231 27.375279135710841 5.5187449332951299 0 -0.79863551827123203 -0.60181501223851219 0.25 0 0 1 I I -0.70710678118654746 0.70710678118654746 0.25 forward I I I I #
loop $-1 $-1 $253 $68 #
coedge $-1 $159 $159 $254 $255 reversed $100 $-1 #
face $-1 $256 $257 $54 $-1 $258 reversed single #
loop $-1 $-1 $259 $102 #
plane-surface $-1 6.3114183443452561 -6.1646214758080617 52.428003712490117 0 0.79863551827123203 0.60181501223851219 1 0 0 forward_v I I I I #
coedge $-1 $260 $261 $262 $263 reversed $103 $-1 #
face $-1 $-1 $264 $55 $-1 $265 forward single #
loop $-1 $266 $267 $105 #
cone-surface $-1 4.5349548089593625 27.375279135710841 5.5187449332951299 0 -0.79863551827123203 -0.60181501223851219 0.25 0 0 1 I I -0.70710678118654746 0.70710678118654746 0.25 forward I I I I #
loop $-1 $-1 $268 $70 #
coedge $-1 $168 $168 $269 $270 reversed $106 $-1 #
face $-1 $-1 $271 $56 $-1 $272 forward single #
loop $-1 $273 $274 $108 #
cone-surface $-1 8.0878818797311567 27.375279135710841 5.5187449332951299 0 -0.79863551827123203 -0.60181501223851219 0.25 0 0 1 I I -0.70710678118654746 0.70710678118654746 0.25 forward I I I I #
loop $-1 $-1 $275 $71 #
coedge $-1 $173 $173 $276 $277 reversed $109 $-1 #
face $-1 $278 $279 $57 $-1 $280 reversed single #
loop $-1 $-1 $281 $111 #
plane-surface $-1 24.737439645622644 -6.1646214758080617 52.428003712490117 0 0.79863551827123203 0.60181501223851219 1 0 0 forward_v I I I I #
coedge $-1 $282 $283 $284 $285 reversed $112 $-1 #
face $-1 $-1 $286 $58 $-1 $287 forward single #
loop $-1 $288 $289 $114 #
cone-surface $-1 22.960976110236757 27.375279135710841 5.5187449332951299 0 -0.79863551827123203 -0.60181501223851219 0.25 0 0 1 I I -0.70710678118654746 0.70710678118654746 0.25 forward I I I I #
loop $-1 $-1 $290 $73 #
coedge $-1 $182 $182 $291 $292 reversed $115 $-1 #
face $-1 $-1 $293 $59 $-1 $294 forward single #
loop $-1 $295 $296 $117 #
cone-surface $-1 26.513903181008544 27.375279135710841 5.5187449332951299 0 -0.79863551827123203 -0.60181501223851219 0.25 0 0 1 I I -0.70710678118654746 0.70710678118654746 0.25 forward I I I I #
loop $-1 $-1 $297 $74 #
coedge $-1 $187 $187 $298 $299 reversed $118 $-1 #
face $-1 $300 $301 $45 $-1 $302 reversed single #
loop $-1 $-1 $303 $120 #
plane-surface $-1 0 -30.273637159551726 0 0 1 0 0 0 1 forward_v I I I I #
coedge $-1 $304 $305 $306 $307 forward $121 $-1 #
coedge $-1 $308 $123 $309 $310 forward $76 $-1 #
coedge $-1 $123 $308 $311 $312 forward $76 $-1 #
coedge $-1 $313 $314 $123 $195 reversed $315 $-1 #
edge $-1 $316 -30.273637159551726 $317 30.273637159551726 $194 $318 forward 7 unknown #
face $-1 $319 $320 $46 $-1 $321 reversed single #
loop $-1 $-1 $322 $124 #
plane-surface $-1 0 0 -8.703381962657831 0 0 1 1 0 0 forward_v I I I I #
coedge $-1 $323 $202 $324 $325 reversed $125 $-1 #
coedge $-1 $326 $127 $327 $328 reversed $79 $-1 #
coedge $-1 $127 $326 $329 $330 reversed $79 $-1 #
coedge $-1 $199 $331 $127 $203 reversed $125 $-1 #
edge $-1 $332 -30.273637159551726 $333 30.273637159551726 $202 $334 forward 7 unknown #
face $-1 $335 $336 $47 $-1 $337 reversed single #
loop $-1 $-1 $210 $128 #
plane-surface $-1 44.967192602313304 0 0 -1 0 0 0 0 1 forward_v I I I I #
coedge $-1 $338 $339 $340 $341 reversed $129 $-1 #
coedge $-1 $342 $131 $343 $344 reversed $82 $-1 #
coedge $-1 $131 $342 $345 $346 reversed $82 $-1 #
coedge $-1 $347 $348 $131 $211 forward $205 $-1 #
edge $-1 $349 -30.273637159551726 $350 30.273637159551726 $210 $351 forward 7 unknown #
face $-1 $352 $353 $48 $-1 $354 reversed single #
loop $-1 $-1 $355 $132 #
plane-surface $-1 -26.395542675642432 65.660172862493525 106.55186684507555 -1 0 0 0 0.79863551827123203 0.60181501223851219 forward_v I I I I #
coedge $-1 $356 $357 $358 $359 reversed $133 $-1 #
coedge $-1 $217 $135 $360 $361 reversed $85 $-1 #
coedge $-1 $135 $216 $356 $362 reversed $85 $-1 #
coedge $-1 $358 $363 $135 $219 forward $364 $-1 #
edge $-1 $365 2.5564492716950369 $366 6.0458430350534158 $218 $367 forward 7 unknown #
loop $-1 $-1 $225 $136 #
plane-surface $-1 -30.540624258209522 -6.1646214758080617 52.428003712490117 0 0.79863551827123203 0.60181501223851219 1 0 0 forward_v I I I I #
loop $-1 $-1 $368 $87 #
coedge $-1 $223 $223 $224 $369 reversed $137 $-1 #
coedge $-1 $224 $224 $223 $369 forward $139 $-1 #
coedge $-1 $225 $225 $140 $226 forward $220 $-1 #
edge $-1 $370 2.7969876162035207e-015 $370 6.2831853071796031 $225 $371 forward 7 unknown #
loop $-1 $-1 $232 $141 #
plane-surface $-1 -30.540624258209522 -6.1646214758080617 52.428003712490117 0 0.79863551827123203 0.60181501223851219 1 0 0 forward_v I I I I #
loop $-1 $-1 $372 $90 #
coedge $-1 $230 $230 $231 $373 reversed $142 $-1 #
coedge $-1 $231 $231 $230 $373 forward $144 $-1 #
coedge $-1 $232 $232 $145 $233 forward $227 $-1 #
edge $-1 $374 2.7969876162035207e-015 $374 6.2831853071796031 $232 $375 forward 7 unknown #
face $-1 $376 $377 $51 $-1 $378 forward single #
loop $-1 $-1 $379 $146 #
plane-surface $-1 -7.9695213743650397 65.660172862493525 106.55186684507555 -1 0 0 0 0.79863551827123203 0.60181501223851219 forward_v I I I I #
coedge $-1 $380 $381 $382 $383 reversed $147 $-1 #
coedge $-1 $239 $149 $384 $385 reversed $94 $-1 #
coedge $-1 $149 $238 $380 $386 reversed $94 $-1 #
coedge $-1 $382 $387 $149 $241 forward $377 $-1 #
edge $-1 $388 2.5564492716950369 $389 6.0458430350534158 $240 $390 forward 7 unknown #
loop $-1 $-1 $247 $150 #
plane-surface $-1 -12.114602956932131 -6.1646214758080617 52.428003712490117 0 0.79863551827123203 0.60181501223851219 1 0 0 forward_v I I I I #
loop $-1 $-1 $391 $96 #
coedge $-1 $245 $245 $246 $392 reversed $151 $-1 #
coedge $-1 $246 $246 $245 $392 forward $153 $-1 #
coedge $-1 $247 $247 $154 $248 forward $242 $-1 #
edge $-1 $393 2.7969876162035207e-015 $393 6.2831853071796031 $247 $394 forward 7 unknown #
loop $-1 $-1 $254 $155 #
plane-surface $-1 -12.114602956932131 -6.1646214758080617 52.428003712490117 0 0.79863551827123203 0.60181501223851219 1 0 0 forward_v I I I I #
loop $-1 $-1 $395 $99 #
coedge $-1 $252 $252 $253 $396 reversed $156 $-1 #
coedge $-1 $253 $253 $252 $396 forward $158 $-1 #
coedge $-1 $254 $254 $159 $255 forward $249 $-1 #
edge $-1 $397 2.7969876162035207e-015 $397 6.2831853071796031 $254 $398 forward 7 unknown #
face $-1 $399 $400 $54 $-1 $401 forward single #
loop $-1 $-1 $402 $160 #
plane-surface $-1 10.456499926912347 65.660172862493525 106.55186684507555 -1 0 0 0 0.79863551827123203 0.60181501223851219 forward_v I I I I #
coedge $-1 $403 $404 $405 $406 reversed $161 $-1 #
coedge $-1 $261 $163 $407 $408 reversed $103 $-1 #
coedge $-1 $163 $260 $403 $409 reversed $103 $-1 #
coedge $-1 $405 $410 $163 $263 forward $400 $-1 #
edge $-1 $411 2.5564492716950369 $412 6.0458430350534158 $262 $413 forward 7 unknown #
loop $-1 $-1 $269 $164 #
plane-surface $-1 6.3114183443452561 -6.1646214758080617 52.428003712490117 0 0.79863551827123203 0.60181501223851219 1 0 0 forward_v I I I I #
loop $-1 $-1 $414 $105 #
coedge $-1 $267 $267 $268 $415 reversed $165 $-1 #
coedge $-1 $268 $268 $267 $415 forward $167 $-1 #
coedge $-1 $269 $269 $168 $270 forward $264 $-1 #
edge $-1 $416 2.7969876162035207e-015 $416 6.2831853071796031 $269 $417 forward 7 unknown #
loop $-1 $-1 $276 $169 #
plane-surface $-1 6.3114183443452561 -6.1646214758080617 52.428003712490117 0 0.79863551827123203 0.60181501223851219 1 0 0 forward_v I I I I #
loop $-1 $-1 $418 $108 #
coedge $-1 $274 $274 $275 $419 reversed $170 $-1 #
coedge $-1 $275 $275 $274 $419 forward $172 $-1 #
coedge $-1 $276 $276 $173 $277 forward $271 $-1 #
edge $-1 $420 2.7969876162035207e-015 $420 6.2831853071796031 $276 $421 forward 7 unknown #
face $-1 $422 $423 $57 $-1 $424 forward single #
loop $-1 $-1 $425 $174 #
plane-surface $-1 28.882521228189734 65.660172862493525 106.55186684507555 -1 0 0 0 0.79863551827123203 0.60181501223851219 forward_v I I I I #
coedge $-1 $426 $427 $428 $429 reversed $175 $-1 #
coedge $-1 $283 $177 $430 $431 reversed $112 $-1 #
coedge $-1 $177 $282 $426 $432 reversed $112 $-1 #
coedge $-1 $428 $433 $177 $285 forward $423 $-1 #
edge $-1 $434 2.5564492716950369 $435 6.0458430350534158 $284 $436 forward 7 unknown #
loop $-1 $-1 $291 $178 #
plane-surface $-1 24.737439645622644 -6.1646214758080617 52.428003712490117 0 0.79863551827123203 0.60181501223851219 1 0 0 forward_v I I I I #
loop $-1 $-1 $437 $114 #
coedge $-1 $289 $289 $290 $438 reversed $179 $-1 #
coedge $-1 $290 $290 $289 $438 forward $181 $-1 #
coedge $-1 $291 $291 $182 $292 forward $286 $-1 #
edge $-1 $439 2.7969876162035207e-015 $439 6.2831853071796031 $291 $440 forward 7 unknown #
loop $-1 $-1 $298 $183 #
plane-surface $-1 24.737439645622644 -6.1646214758080617 52.428003712490117 0 0.79863551827123203 0.60181501223851219 1 0 0 forward_v I I I I #
loop $-1 $-1 $441 $117 #
coedge $-1 $296 $296 $297 $442 reversed $184 $-1 #
coedge $-1 $297 $297 $296 $442 forward $186 $-1 #
coedge $-1 $298 $298 $187 $299 forward $293 $-1 #
edge $-1 $443 2.7969876162035207e-015 $443 6.2831853071796031 $298 $444 forward 7 unknown #
face $-1 $445 $446 $45 $-1 $447 reversed single #
loop $-1 $-1 $448 $188 #
plane-surface $-1 -44.967192602313304 0 0 1 0 0 0 0 -1 forward_v I I I I #
coedge $-1 $449 $311 $450 $451 forward $189 $-1 #
coedge $-1 $452 $191 $449 $453 forward $121 $-1 #
coedge $-1 $191 $452 $454 $455 forward $121 $-1 #
coedge $-1 $314 $313 $191 $307 reversed $315 $-1 #
edge $-1 $456 -30.273637159551726 $457 30.273637159551726 $306 $458 forward 7 unknown #
coedge $-1 $193 $192 $459 $460 forward $76 $-1 #
coedge $-1 $461 $462 $192 $310 reversed $446 $-1 #
edge $-1 $317 -44.967192602313304 $463 44.967192602313304 $309 $464 forward 7 unknown #
coedge $-1 $303 $465 $193 $312 reversed $189 $-1 #
edge $-1 $466 -44.967192602313304 $316 44.967192602313304 $311 $467 forward 7 unknown #
coedge $-1 $306 $194 $465 $468 forward $315 $-1 #
coedge $-1 $194 $306 $461 $469 reversed $315 $-1 #
loop $-1 $-1 $313 $445 #
vertex $-1 $195 $470 #
vertex $-1 $195 $471 #
straight-curve $-1 44.967192602313304 0 8.703381962657831 0 1 0 I I #
face $-1 $472 $473 $46 $-1 $474 reversed single #
loop $-1 $-1 $324 $196 #
plane-surface $-1 0 -30.273637159551726 0 0 1 0 0 0 1 forward_v I I I I #
coedge $-1 $475 $476 $323 $477 forward $197 $-1 #
coedge $-1 $331 $199 $322 $477 reversed $125 $-1 #
coedge $-1 $329 $478 $199 $325 forward $320 $-1 #
edge $-1 $479 -5.1016909813289155 $332 -2.1016909813289155 $324 $480 forward 7 unknown #
coedge $-1 $201 $200 $481 $482 reversed $79 $-1 #
coedge $-1 $483 $484 $200 $328 forward $485 $-1 #
edge $-1 $486 -24.309971801734171 $333 -17.004469799424093 $327 $487 forward 7 unknown #
coedge $-1 $488 $324 $201 $330 forward $320 $-1 #
edge $-1 $332 17.004469799424093 $489 24.309971801734171 $329 $490 forward 7 unknown #
coedge $-1 $202 $323 $483 $491 reversed $125 $-1 #
vertex $-1 $330 $492 #
vertex $-1 $328 $493 #
straight-curve $-1 -37.661690600003226 0 -5.703381962657831 0 1 0 I I #
face $-1 $494 $495 $47 $-1 $496 reversed single #
loop $-1 $-1 $345 $204 #
plane-surface $-1 0 30.273637159551726 0 0 -1 0 0 0 -1 forward_v I I I I #
coedge $-1 $497 $207 $342 $498 reversed $129 $-1 #
coedge $-1 $207 $497 $499 $500 reversed $129 $-1 #
coedge $-1 $501 $345 $207 $341 forward $336 $-1 #
edge $-1 $502 2.0840757690513012 $503 5.107562718754787 $340 $504 forward 7 unknown #
coedge $-1 $209 $208 $338 $498 forward $82 $-1 #
coedge $-1 $505 $506 $208 $344 forward $495 $-1 #
edge $-1 $507 15.789997803251431 $349 24.714795800458397 $343 $508 forward 7 unknown #
coedge $-1 $340 $509 $209 $346 forward $336 $-1 #
edge $-1 $350 -24.714795800458397 $502 -15.789997803251431 $345 $510 forward 7 unknown #
coedge $-1 $511 $210 $509 $512 reversed $205 $-1 #
coedge $-1 $210 $511 $505 $513 forward $205 $-1 #
vertex $-1 $211 $514 #
vertex $-1 $211 $515 #
straight-curve $-1 44.967192602313304 0 5.6798950129543453 0 1 0 I I #
face $-1 $-1 $364 $48 $-1 $516 forward single #
loop $-1 $-1 $517 $212 #
plane-surface $-1 0 30.273637159551726 0 0 -1 0 0 0 -1 forward_v I I I I #
coedge $-1 $518 $519 $520 $521 reversed $213 $-1 #
coedge $-1 $522 $215 $217 $362 forward $133 $-1 #
coedge $-1 $215 $522 $518 $523 forward $133 $-1 #
coedge $-1 $520 $218 $215 $359 forward $364 $-1 #
edge $-1 $366 -19.415393711671854 $524 -11.12523054653767 $358 $525 forward 7 unknown #
coedge $-1 $526 $527 $216 $361 forward $353 $-1 #
edge $-1 $528 -49.203133515795287 $365 -44.572551459879946 $360 $529 forward 7 unknown #
edge $-1 $366 54.749157468579497 $528 60.54727431910343 $217 $530 forward 7 unknown #
coedge $-1 $218 $520 $526 $531 forward $364 $-1 #
loop $-1 $-1 $520 $352 #
vertex $-1 $361 $532 #
vertex $-1 $219 $533 #
straight-curve $-1 -34.685705840776613 32.830086431246762 8.7033819626578293 0 -1 0 I I #
coedge $-1 $368 $368 $-1 $534 reversed $222 $-1 #
edge $-1 $535 0 $535 6.2831853071796004 $223 $536 forward 7 unknown #
vertex $-1 $226 $537 #
ellipse-curve $-1 -32.317087793595419 28.528940277872529 6.3880909347001644 0 0.79863551827123203 0.60181501223851219 0.5 0 0 1 I I #
coedge $-1 $372 $372 $-1 $538 reversed $229 $-1 #
edge $-1 $539 0 $539 6.2831853071796004 $230 $540 forward 7 unknown #
vertex $-1 $233 $541 #
ellipse-curve $-1 -28.764160722823625 28.528940277872529 6.3880909347001644 0 0.79863551827123203 0.60181501223851219 0.5 0 0 1 I I #
face $-1 $-1 $542 $51 $-1 $543 reversed single #
loop $-1 $-1 $240 $234 #
plane-surface $-1 0 0 8.703381962657831 0 0 1 1 0 0 forward_v I I I I #
coedge $-1 $544 $545 $546 $547 reversed $235 $-1 #
coedge $-1 $548 $237 $239 $386 forward $147 $-1 #
coedge $-1 $237 $548 $544 $549 forward $147 $-1 #
coedge $-1 $546 $240 $237 $383 forward $377 $-1 #
edge $-1 $389 -10.202383061033157 $550 -1.912219895898974 $382 $551 forward 7 unknown #
coedge $-1 $552 $553 $238 $385 forward $542 $-1 #
edge $-1 $554 -49.203133515795287 $388 -44.572551459879946 $384 $555 forward 7 unknown #
edge $-1 $389 54.749157468579497 $554 60.54727431910343 $239 $556 forward 7 unknown #
coedge $-1 $240 $546 $552 $557 forward $377 $-1 #
vertex $-1 $385 $558 #
vertex $-1 $241 $559 #
straight-curve $-1 -16.259684539499222 32.830086431246762 8.7033819626578293 0 -1 0 I I #
coedge $-1 $391 $391 $-1 $560 reversed $244 $-1 #
edge $-1 $561 0 $561 6.2831853071796004 $245 $562 forward 7 unknown #
vertex $-1 $248 $563 #
ellipse-curve $-1 -13.891066492318028 28.528940277872529 6.3880909347001644 0 0.79863551827123203 0.60181501223851219 0.5 0 0 1 I I #
coedge $-1 $395 $395 $-1 $564 reversed $251 $-1 #
edge $-1 $565 0 $565 6.2831853071796004 $252 $566 forward 7 unknown #
vertex $-1 $255 $567 #
ellipse-curve $-1 -10.338139421546231 28.528940277872529 6.3880909347001644 0 0.79863551827123203 0.60181501223851219 0.5 0 0 1 I I #
face $-1 $-1 $568 $54 $-1 $569 reversed single #
loop $-1 $-1 $262 $256 #
plane-surface $-1 0 0 8.703381962657831 0 0 1 1 0 0 forward_v I I I I #
coedge $-1 $570 $571 $572 $573 reversed $257 $-1 #
coedge $-1 $574 $259 $261 $409 forward $161 $-1 #
coedge $-1 $259 $574 $570 $575 forward $161 $-1 #
coedge $-1 $572 $262 $259 $406 forward $400 $-1 #
edge $-1 $412 -0.98937241039446366 $576 7.3007907547397188 $405 $577 forward 7 unknown #
coedge $-1 $578 $579 $260 $408 forward $568 $-1 #
edge $-1 $580 -49.203133515795287 $411 -44.572551459879946 $407 $581 forward 7 unknown #
edge $-1 $412 54.749157468579497 $580 60.54727431910343 $261 $582 forward 7 unknown #
coedge $-1 $262 $572 $578 $583 forward $400 $-1 #
vertex $-1 $263 $584 #
vertex $-1 $263 $585 #
straight-curve $-1 2.1663367617781644 32.830086431246762 8.7033819626578293 0 -1 0 I I #
coedge $-1 $414 $414 $-1 $586 reversed $266 $-1 #
edge $-1 $587 0 $587 6.2831853071796004 $267 $588 forward 7 unknown #
vertex $-1 $270 $589 #
ellipse-curve $-1 4.5349548089593625 28.528940277872529 6.3880909347001644 0 0.79863551827123203 0.60181501223851219 0.5 0 0 1 I I #
coedge $-1 $418 $418 $-1 $590 reversed $273 $-1 #
edge $-1 $591 0 $591 6.2831853071796004 $274 $592 forward 7 unknown #
vertex $-1 $277 $593 #
ellipse-curve $-1 8.0878818797311567 28.528940277872529 6.3880909347001644 0 0.79863551827123203 0.60181501223851219 0.5 0 0 1 I I #
face $-1 $-1 $594 $57 $-1 $595 reversed single #
loop $-1 $-1 $284 $278 #
plane-surface $-1 0 0 8.703381962657831 0 0 1 1 0 0 forward_v I I I I #
coedge $-1 $596 $597 $598 $599 reversed $279 $-1 #
coedge $-1 $600 $281 $283 $432 forward $175 $-1 #
coedge $-1 $281 $600 $596 $601 forward $175 $-1 #
coedge $-1 $598 $284 $281 $429 forward $423 $-1 #
edge $-1 $435 8.223638240244231 $602 16.513801405378413 $428 $603 forward 7 unknown #
coedge $-1 $604 $605 $282 $431 forward $594 $-1 #
edge $-1 $606 -49.203133515795287 $434 -44.572551459879946 $430 $607 forward 7 unknown #
edge $-1 $435 54.749157468579497 $606 60.54727431910343 $283 $608 forward 7 unknown #
coedge $-1 $284 $598 $604 $609 forward $423 $-1 #
vertex $-1 $285 $610 #
vertex $-1 $285 $611 #
straight-curve $-1 20.592358063055553 32.830086431246762 8.7033819626578293 0 -1 0 I I #
coedge $-1 $437 $437 $-1 $612 reversed $288 $-1 #
edge $-1 $613 0 $613 6.2831853071796004 $289 $614 forward 7 unknown #
vertex $-1 $292 $615 #
ellipse-curve $-1 22.960976110236757 28.528940277872529 6.3880909347001644 0 0.79863551827123203 0.60181501223851219 0.5 0 0 1 I I #
coedge $-1 $441 $441 $-1 $616 reversed $295 $-1 #
edge $-1 $617 0 $617 6.2831853071796004 $296 $618 forward 7 unknown #
vertex $-1 $299 $619 #
ellipse-curve $-1 26.513903181008544 28.528940277872529 6.3880909347001644 0 0.79863551827123203 0.60181501223851219 0.5 0 0 1 I I #
face $-1 $-1 $315 $45 $-1 $620 reversed single #
loop $-1 $-1 $461 $300 #
plane-surface $-1 0 30.273637159551726 0 0 -1 0 0 0 -1 forward_v I I I I #
coedge $-1 $621 $459 $462 $622 forward $301 $-1 #
coedge $-1 $465 $303 $304 $453 reversed $189 $-1 #
coedge $-1 $459 $621 $303 $451 reversed $301 $-1 #
edge $-1 $466 -8.703381962657831 $623 8.703381962657831 $450 $624 forward 7 unknown #
coedge $-1 $305 $304 $621 $625 forward $121 $-1 #
edge $-1 $457 -44.967192602313304 $623 44.967192602313304 $449 $626 forward 7 unknown #
coedge $-1 $462 $461 $305 $455 reversed $446 $-1 #
edge $-1 $627 -44.967192602313304 $456 44.967192602313304 $454 $628 forward 7 unknown #
vertex $-1 $307 $629 #
vertex $-1 $468 $630 #
straight-curve $-1 44.967192602313304 0 -8.703381962657831 0 -1 0 I I #
coedge $-1 $448 $450 $308 $460 reversed $301 $-1 #
edge $-1 $463 -30.273637159551726 $466 30.273637159551726 $459 $631 forward 7 unknown #
coedge $-1 $454 $309 $314 $469 forward $446 $-1 #
coedge $-1 $309 $454 $448 $622 reversed $446 $-1 #
vertex $-1 $310 $632 #
straight-curve $-1 0 30.273637159551726 8.703381962657831 -1 0 0 I I #
coedge $-1 $311 $449 $313 $468 reversed $189 $-1 #
vertex $-1 $460 $633 #
straight-curve $-1 0 -30.273637159551726 8.703381962657831 1 0 0 I I #
edge $-1 $316 -8.703381962657831 $457 8.703381962657831 $313 $634 forward 7 unknown #
edge $-1 $317 -8.703381962657831 $456 8.703381962657831 $314 $635 forward 7 unknown #
point $-1 44.967192602313304 -30.273637159551726 8.703381962657831 #
point $-1 44.967192602313304 30.273637159551726 8.703381962657831 #
face $-1 $-1 $485 $46 $-1 $636 reversed single #
loop $-1 $-1 $481 $319 #
plane-surface $-1 -44.967192602313304 0 0 1 0 0 0 0 -1 forward_v I I I I #
coedge $-1 $637 $322 $478 $638 forward $197 $-1 #
coedge $-1 $322 $637 $639 $640 forward $197 $-1 #
edge $-1 $641 -30.273637159551726 $479 30.273637159551726 $322 $642 forward 7 unknown #
coedge $-1 $324 $488 $475 $638 reversed $320 $-1 #
vertex $-1 $638 $643 #
straight-curve $-1 -37.661690600003226 -30.273637159551726 -3.6016909813289155 0 0 1 I I #
coedge $-1 $644 $645 $326 $482 forward $473 $-1 #
edge $-1 $489 -30.273637159551726 $486 30.273637159551726 $481 $646 forward 7 unknown #
coedge $-1 $639 $327 $331 $491 forward $485 $-1 #
coedge $-1 $327 $639 $644 $647 reversed $485 $-1 #
loop $-1 $-1 $483 $472 #
vertex $-1 $647 $648 #
straight-curve $-1 -20.657220800579132 30.273637159551726 -5.703381962657831 1 0 0 I I #
coedge $-1 $478 $329 $645 $649 forward $320 $-1 #
vertex $-1 $649 $650 #
straight-curve $-1 -20.657220800579132 -30.273637159551726 -5.703381962657831 -1 0 0 I I #
edge $-1 $333 2.1016909813289155 $641 5.1016909813289155 $483 $651 forward 7 unknown #
point $-1 -37.661690600003226 -30.273637159551726 -5.703381962657831 #
point $-1 -37.661690600003226 30.273637159551726 -5.703381962657831 #
face $-1 $-1 $652 $47 $-1 $653 forward single #
loop $-1 $-1 $343 $335 #
plane-surface $-1 0 -30.273637159551726 0 0 1 0 0 0 1 forward_v I I I I #
coedge $-1 $339 $338 $506 $654 reversed $129 $-1 #
edge $-1 $507 -30.273637159551726 $502 30.273637159551726 $338 $655 forward 7 unknown #
coedge $-1 $656 $657 $339 $500 forward $652 $-1 #
edge $-1 $503 -30.273637159551726 $658 30.273637159551726 $499 $659 forward 7 unknown #
coedge $-1 $509 $340 $657 $660 reversed $336 $-1 #
vertex $-1 $346 $661 #
vertex $-1 $341 $662 #
straight-curve $-1 36.042394605106345 30.273637159551726 3.5958192439030441 0 0 1 I I #
coedge $-1 $663 $343 $348 $513 reversed $495 $-1 #
coedge $-1 $343 $663 $497 $654 forward $495 $-1 #
vertex $-1 $344 $664 #
straight-curve $-1 20.252396801854914 -30.273637159551726 5.6798950129543453 1 0 0 I I #
coedge $-1 $345 $501 $347 $512 forward $336 $-1 #
straight-curve $-1 20.252396801854914 30.273637159551726 5.6798950129543453 -1 0 0 I I #
coedge $-1 $348 $347 $665 $666 reversed $205 $-1 #
edge $-1 $667 -8.703381962657831 $350 -5.6798950129543453 $347 $668 forward 7 unknown #
edge $-1 $669 -8.703381962657831 $349 -5.6798950129543453 $348 $670 forward 7 unknown #
point $-1 44.967192602313311 -30.273637159551726 5.6798950129543453 #
point $-1 44.967192602313311 30.273637159551726 5.6798950129543453 #
plane-surface $-1 0 0 8.703381962657831 0 0 1 1 0 0 forward_v I I I I #
coedge $-1 $527 $526 $519 $671 forward $353 $-1 #
coedge $-1 $519 $355 $357 $523 reversed $213 $-1 #
coedge $-1 $355 $518 $517 $671 reversed $213 $-1 #
coedge $-1 $363 $358 $355 $521 forward $364 $-1 #
edge $-1 $524 -6.0458430350534158 $672 -2.5564492716950369 $520 $673 forward 7 unknown #
coedge $-1 $357 $356 $527 $674 reversed $133 $-1 #
edge $-1 $675 -60.54727431910343 $524 -54.749157468579497 $518 $676 forward 7 unknown #
vertex $-1 $359 $677 #
straight-curve $-1 -15.270312129104761 26.784243396193343 8.7033819626578328 1 0 0 I I #
coedge $-1 $517 $360 $363 $531 reversed $353 $-1 #
coedge $-1 $360 $517 $522 $674 forward $353 $-1 #
vertex $-1 $361 $678 #
straight-curve $-1 -34.685705840776613 30.273637159551726 53.275933422537776 0 0 1 I I #
straight-curve $-1 -34.685705840776613 -6.1646214758080617 52.428003712490117 0 0.60181501223851219 -0.79863551827123203 I I #
edge $-1 $672 26.395542675642432 $365 34.685705840776613 $526 $679 forward 7 unknown #
point $-1 -34.685705840776613 30.273637159551726 8.703381962657831 #
point $-1 -34.685705840776613 26.784243396193347 8.7033819626578293 #
edge $-1 $680 1 $680 0 $368 $-1 forward 7 unknown #
vertex $-1 $369 $681 #
ellipse-curve $-1 -32.317087793595419 27.574938015278647 5.6691986863547577 0 0.79863551827123203 0.60181501223851219 0.5 0 0 1 I I #
point $-1 -31.817087793595419 28.528940277872522 6.3880909347001573 #
edge $-1 $682 1 $682 0 $372 $-1 forward 7 unknown #
vertex $-1 $373 $683 #
ellipse-curve $-1 -28.764160722823625 27.574938015278647 5.6691986863547577 0 0.79863551827123203 0.60181501223851219 0.5 0 0 1 I I #
point $-1 -28.264160722823625 28.528940277872522 6.3880909347001573 #
loop $-1 $-1 $384 $376 #
plane-surface $-1 0 30.273637159551726 0 0 -1 0 0 0 -1 forward_v I I I I #
coedge $-1 $545 $379 $381 $549 reversed $235 $-1 #
coedge $-1 $379 $544 $684 $685 reversed $235 $-1 #
coedge $-1 $387 $382 $379 $547 forward $377 $-1 #
edge $-1 $550 -6.0458430350534158 $686 -2.5564492716950369 $546 $687 forward 7 unknown #
coedge $-1 $381 $380 $553 $688 reversed $147 $-1 #
edge $-1 $689 -60.54727431910343 $550 -54.749157468579497 $544 $690 forward 7 unknown #
vertex $-1 $383 $691 #
straight-curve $-1 -6.0573014784660657 26.784243396193343 8.7033819626578328 1 0 0 I I #
coedge $-1 $684 $384 $387 $557 reversed $542 $-1 #
coedge $-1 $384 $684 $548 $688 forward $542 $-1 #
vertex $-1 $385 $692 #
straight-curve $-1 -16.259684539499222 30.273637159551726 53.275933422537776 0 0 1 I I #
straight-curve $-1 -16.259684539499222 -6.1646214758080617 52.428003712490117 0 0.60181501223851219 -0.79863551827123203 I I #
edge $-1 $686 7.9695213743650397 $388 16.259684539499222 $552 $693 forward 7 unknown #
point $-1 -16.259684539499222 30.273637159551726 8.703381962657831 #
point $-1 -16.259684539499222 26.784243396193347 8.7033819626578293 #
edge $-1 $694 1 $694 0 $391 $-1 forward 7 unknown #
vertex $-1 $392 $695 #
ellipse-curve $-1 -13.891066492318028 27.574938015278647 5.6691986863547577 0 0.79863551827123203 0.60181501223851219 0.5 0 0 1 I I #
point $-1 -13.391066492318028 28.528940277872522 6.3880909347001573 #
edge $-1 $696 1 $696 0 $395 $-1 forward 7 unknown #
vertex $-1 $396 $697 #
ellipse-curve $-1 -10.338139421546231 27.574938015278647 5.6691986863547577 0 0.79863551827123203 0.60181501223851219 0.5 0 0 1 I I #
point $-1 -9.8381394215462308 28.528940277872522 6.3880909347001573 #
loop $-1 $-1 $407 $399 #
plane-surface $-1 0 30.273637159551726 0 0 -1 0 0 0 -1 forward_v I I I I #
coedge $-1 $571 $402 $404 $575 reversed $257 $-1 #
coedge $-1 $402 $570 $698 $699 reversed $257 $-1 #
coedge $-1 $410 $405 $402 $573 forward $400 $-1 #
edge $-1 $576 -6.0458430350534158 $700 -2.5564492716950369 $572 $701 forward 7 unknown #
coedge $-1 $404 $403 $579 $702 reversed $161 $-1 #
edge $-1 $703 -60.54727431910343 $576 -54.749157468579497 $570 $704 forward 7 unknown #
vertex $-1 $406 $705 #
straight-curve $-1 3.155709172172628 26.784243396193343 8.7033819626578328 1 0 0 I I #
coedge $-1 $698 $407 $410 $583 reversed $568 $-1 #
coedge $-1 $407 $698 $574 $702 forward $568 $-1 #
vertex $-1 $408 $706 #
straight-curve $-1 2.1663367617781644 30.273637159551726 53.275933422537776 0 0 1 I I #
straight-curve $-1 2.1663367617781644 -6.1646214758080617 52.428003712490117 0 0.60181501223851219 -0.79863551827123203 I I #
edge $-1 $700 -10.456499926912347 $411 -2.1663367617781644 $578 $707 forward 7 unknown #
point $-1 2.1663367617781644 30.273637159551726 8.703381962657831 #
point $-1 2.1663367617781644 26.784243396193347 8.7033819626578293 #
edge $-1 $708 1 $708 0 $414 $-1 forward 7 unknown #
vertex $-1 $415 $709 #
ellipse-curve $-1 4.5349548089593625 27.574938015278647 5.6691986863547577 0 0.79863551827123203 0.60181501223851219 0.5 0 0 1 I I #
point $-1 5.0349548089593625 28.528940277872522 6.3880909347001573 #
edge $-1 $710 1 $710 0 $418 $-1 forward 7 unknown #
vertex $-1 $419 $711 #
ellipse-curve $-1 8.0878818797311567 27.574938015278647 5.6691986863547577 0 0.79863551827123203 0.60181501223851219 0.5 0 0 1 I I #
point $-1 8.5878818797311567 28.528940277872522 6.3880909347001573 #
loop $-1 $-1 $430 $422 #
plane-surface $-1 0 30.273637159551726 0 0 -1 0 0 0 -1 forward_v I I I I #
coedge $-1 $597 $425 $427 $601 reversed $279 $-1 #
coedge $-1 $425 $596 $712 $713 reversed $279 $-1 #
coedge $-1 $433 $428 $425 $599 forward $423 $-1 #
edge $-1 $602 -6.0458430350534158 $714 -2.5564492716950369 $598 $715 forward 7 unknown #
coedge $-1 $427 $426 $605 $716 reversed $175 $-1 #
edge $-1 $717 -60.54727431910343 $602 -54.749157468579497 $596 $718 forward 7 unknown #
vertex $-1 $429 $719 #
straight-curve $-1 12.368719822811322 26.784243396193343 8.7033819626578328 1 0 0 I I #
coedge $-1 $712 $430 $433 $609 reversed $594 $-1 #
coedge $-1 $430 $712 $600 $716 forward $594 $-1 #
vertex $-1 $431 $720 #
straight-curve $-1 20.592358063055553 30.273637159551726 53.275933422537776 0 0 1 I I #
straight-curve $-1 20.592358063055553 -6.1646214758080617 52.428003712490117 0 0.60181501223851219 -0.79863551827123203 I I #
edge $-1 $714 -28.882521228189734 $434 -20.592358063055553 $604 $721 forward 7 unknown #
point $-1 20.592358063055553 30.273637159551726 8.703381962657831 #
point $-1 20.592358063055553 26.784243396193347 8.7033819626578293 #
edge $-1 $722 1 $722 0 $437 $-1 forward 7 unknown #
vertex $-1 $438 $723 #
ellipse-curve $-1 22.960976110236757 27.574938015278647 5.6691986863547577 0 0.79863551827123203 0.60181501223851219 0.5 0 0 1 I I #
point $-1 23.460976110236757 28.528940277872522 6.3880909347001573 #
edge $-1 $724 1 $724 0 $441 $-1 forward 7 unknown #
vertex $-1 $442 $725 #
ellipse-curve $-1 26.513903181008544 27.574938015278647 5.6691986863547577 0 0.79863551827123203 0.60181501223851219 0.5 0 0 1 I I #
point $-1 27.013903181008544 28.528940277872522 6.3880909347001573 #
plane-surface $-1 44.967192602313304 0 0 -1 0 0 0 0 1 forward_v I I I I #
coedge $-1 $450 $448 $452 $625 reversed $301 $-1 #
edge $-1 $463 -8.703381962657831 $627 8.703381962657831 $462 $726 forward 7 unknown #
vertex $-1 $625 $727 #
straight-curve $-1 -44.967192602313304 -30.273637159551726 0 0 0 -1 I I #
edge $-1 $623 -30.273637159551726 $627 30.273637159551726 $621 $728 forward 7 unknown #
straight-curve $-1 0 -30.273637159551726 -8.703381962657831 -1 0 0 I I #
vertex $-1 $455 $729 #
straight-curve $-1 0 30.273637159551726 -8.703381962657831 1 0 0 I I #
point $-1 44.967192602313304 30.273637159551726 -8.703381962657831 #
point $-1 44.967192602313304 -30.273637159551726 -8.703381962657831 #
straight-curve $-1 -44.967192602313304 0 8.703381962657831 0 -1 0 I I #
point $-1 -44.967192602313304 30.273637159551726 8.703381962657831 #
point $-1 -44.967192602313304 -30.273637159551726 8.703381962657831 #
straight-curve $-1 44.967192602313304 -30.273637159551726 0 0 0 -1 I I #
straight-curve $-1 44.967192602313304 30.273637159551726 0 0 0 -1 I I #
plane-surface $-1 0 30.273637159551726 0 0 -1 0 0 0 -1 forward_v I I I I #
coedge $-1 $476 $475 $730 $731 forward $197 $-1 #
edge $-1 $479 37.661690600003226 $732 44.967192602313304 $478 $733 forward 7 unknown #
coedge $-1 $484 $483 $476 $640 reversed $485 $-1 #
edge $-1 $734 -44.967192602313304 $641 -37.661690600003226 $639 $735 forward 7 unknown #
vertex $-1 $491 $736 #
straight-curve $-1 -37.661690600003226 0 -8.703381962657831 0 -1 0 I I #
point $-1 -37.661690600003226 -30.273637159551726 -8.703381962657831 #
coedge $-1 $730 $481 $484 $647 forward $473 $-1 #
coedge $-1 $481 $730 $488 $649 reversed $473 $-1 #
straight-curve $-1 -44.967192602313304 0 -5.703381962657831 0 1 0 I I #
edge $-1 $486 5.703381962657831 $734 8.703381962657831 $484 $737 forward 7 unknown #
point $-1 -44.967192602313304 30.273637159551726 -5.703381962657831 #
edge $-1 $489 5.703381962657831 $732 8.703381962657831 $645 $738 forward 7 unknown #
point $-1 -44.967192602313304 -30.273637159551726 -5.703381962657831 #
straight-curve $-1 -37.661690600003226 30.273637159551726 -3.6016909813289155 0 0 -1 I I #
loop $-1 $-1 $499 $494 #
plane-surface $-1 0 0 8.703381962657831 0 0 1 1 0 0 forward_v I I I I #
edge $-1 $658 -5.107562718754787 $507 -2.0840757690513012 $506 $739 forward 7 unknown #
straight-curve $-1 36.042394605106345 0 5.6798950129543453 0 1 0 I I #
coedge $-1 $665 $499 $663 $740 forward $652 $-1 #
coedge $-1 $499 $665 $501 $660 forward $652 $-1 #
vertex $-1 $740 $741 #
straight-curve $-1 36.042394605106345 0 8.703381962657831 0 -1 0 I I #
edge $-1 $667 -44.967192602313304 $503 -36.042394605106345 $501 $742 forward 7 unknown #
point $-1 36.042394605106345 30.273637159551726 5.6798950129543453 #
point $-1 36.042394605106345 30.273637159551726 8.703381962657831 #
coedge $-1 $506 $505 $656 $740 reversed $495 $-1 #
point $-1 36.042394605106345 -30.273637159551726 5.6798950129543453 #
coedge $-1 $657 $656 $511 $666 forward $652 $-1 #
edge $-1 $669 -30.273637159551726 $667 30.273637159551726 $511 $743 forward 7 unknown #
vertex $-1 $666 $744 #
straight-curve $-1 44.967192602313304 30.273637159551726 0 0 0 -1 I I #
vertex $-1 $666 $745 #
straight-curve $-1 44.967192602313304 -30.273637159551726 0 0 0 -1 I I #
edge $-1 $672 44.572551459879946 $675 49.203133515795287 $517 $746 forward 7 unknown #
vertex $-1 $531 $747 #
straight-curve $-1 -26.395542675642432 32.830086431246762 8.7033819626578293 0 1 0 I I #
edge $-1 $675 11.12523054653767 $528 19.415393711671854 $527 $748 forward 7 unknown #
vertex $-1 $674 $749 #
straight-curve $-1 -26.395542675642432 -6.1646214758080617 52.428003712490117 0 -0.60181501223851219 0.79863551827123203 I I #
point $-1 -26.395542675642432 26.784243396193347 8.7033819626578293 #
point $-1 -34.685705840776613 30.273637159551726 4.0727999067424889 #
straight-curve $-1 0 30.273637159551726 8.703381962657831 -1 0 0 I I #
vertex $-1 $534 $750 #
point $-1 -31.817087793595419 27.574938015278647 5.6691986863547577 #
vertex $-1 $538 $751 #
point $-1 -28.264160722823625 27.574938015278647 5.6691986863547577 #
coedge $-1 $553 $552 $545 $685 forward $542 $-1 #
edge $-1 $686 44.572551459879946 $689 49.203133515795287 $684 $752 forward 7 unknown #
vertex $-1 $557 $753 #
straight-curve $-1 -7.9695213743650397 32.830086431246762 8.7033819626578293 0 1 0 I I #
edge $-1 $689 1.912219895898974 $554 10.202383061033157 $553 $754 forward 7 unknown #
vertex $-1 $688 $755 #
straight-curve $-1 -7.9695213743650397 -6.1646214758080617 52.428003712490117 0 -0.60181501223851219 0.79863551827123203 I I #
point $-1 -7.9695213743650397 26.784243396193347 8.7033819626578293 #
point $-1 -16.259684539499222 30.273637159551726 4.0727999067424889 #
straight-curve $-1 0 30.273637159551726 8.703381962657831 -1 0 0 I I #
vertex $-1 $560 $756 #
point $-1 -13.391066492318028 27.574938015278647 5.6691986863547577 #
vertex $-1 $564 $757 #
point $-1 -9.8381394215462308 27.574938015278647 5.6691986863547577 #
coedge $-1 $579 $578 $571 $699 forward $568 $-1 #
edge $-1 $700 44.572551459879946 $703 49.203133515795287 $698 $758 forward 7 unknown #
vertex $-1 $583 $759 #
straight-curve $-1 10.456499926912347 32.830086431246762 8.7033819626578293 0 1 0 I I #
edge $-1 $703 -7.3007907547397188 $580 0.98937241039446366 $579 $760 forward 7 unknown #
vertex $-1 $702 $761 #
straight-curve $-1 10.456499926912347 -6.1646214758080617 52.428003712490117 0 -0.60181501223851219 0.79863551827123203 I I #
point $-1 10.456499926912347 26.784243396193347 8.7033819626578293 #
point $-1 2.1663367617781644 30.273637159551726 4.0727999067424889 #
straight-curve $-1 0 30.273637159551726 8.703381962657831 -1 0 0 I I #
vertex $-1 $586 $762 #
point $-1 5.0349548089593625 27.574938015278647 5.6691986863547577 #
vertex $-1 $590 $763 #
point $-1 8.5878818797311567 27.574938015278647 5.6691986863547577 #
coedge $-1 $605 $604 $597 $713 forward $594 $-1 #
edge $-1 $714 44.572551459879946 $717 49.203133515795287 $712 $764 forward 7 unknown #
vertex $-1 $609 $765 #
straight-curve $-1 28.882521228189734 32.830086431246762 8.7033819626578293 0 1 0 I I #
edge $-1 $717 -16.513801405378413 $606 -8.223638240244231 $605 $766 forward 7 unknown #
vertex $-1 $716 $767 #
straight-curve $-1 28.882521228189734 -6.1646214758080617 52.428003712490117 0 -0.60181501223851219 0.79863551827123203 I I #
point $-1 28.882521228189734 26.784243396193347 8.7033819626578293 #
point $-1 20.592358063055553 30.273637159551726 4.0727999067424889 #
straight-curve $-1 0 30.273637159551726 8.703381962657831 -1 0 0 I I #
vertex $-1 $612 $768 #
point $-1 23.460976110236757 27.574938015278647 5.6691986863547577 #
vertex $-1 $616 $769 #
point $-1 27.013903181008544 27.574938015278647 5.6691986863547577 #
straight-curve $-1 -44.967192602313304 30.273637159551726 0 0 0 -1 I I #
point $-1 -44.967192602313304 -30.273637159551726 -8.703381962657831 #
straight-curve $-1 -44.967192602313304 0 -8.703381962657831 0 1 0 I I #
point $-1 -44.967192602313304 30.273637159551726 -8.703381962657831 #
coedge $-1 $645 $644 $637 $731 reversed $473 $-1 #
edge $-1 $732 -30.273637159551726 $734 30.273637159551726 $730 $770 forward 7 unknown #
vertex $-1 $731 $771 #
straight-curve $-1 0 -30.273637159551726 -8.703381962657831 -1 0 0 I I #
vertex $-1 $640 $772 #
straight-curve $-1 0 30.273637159551726 -8.703381962657831 1 0 0 I I #
point $-1 -37.661690600003226 30.273637159551726 -8.703381962657831 #
straight-curve $-1 -44.967192602313304 30.273637159551726 0 0 0 -1 I I #
straight-curve $-1 -44.967192602313304 -30.273637159551726 0 0 0 -1 I I #
straight-curve $-1 36.042394605106345 -30.273637159551726 3.5958192439030441 0 0 -1 I I #
edge $-1 $658 36.042394605106345 $669 44.967192602313304 $663 $773 forward 7 unknown #
point $-1 36.042394605106345 -30.273637159551726 8.703381962657831 #
straight-curve $-1 0 30.273637159551726 8.703381962657831 -1 0 0 I I #
straight-curve $-1 44.967192602313304 0 8.703381962657831 0 1 0 I I #
point $-1 44.967192602313304 30.273637159551726 8.703381962657831 #
point $-1 44.967192602313304 -30.273637159551726 8.703381962657831 #
straight-curve $-1 -26.395542675642432 30.273637159551726 53.275933422537776 0 0 -1 I I #
point $-1 -26.395542675642432 30.273637159551726 8.703381962657831 #
straight-curve $-1 -15.270312129104761 30.273637159551726 4.0727999067424925 -1 0 0 I I #
point $-1 -26.395542675642432 30.273637159551726 4.0727999067424889 #
point $-1 -32.317087793595419 27.175620256143034 5.3682911802355022 #
point $-1 -28.764160722823625 27.175620256143034 5.3682911802355022 #
straight-curve $-1 -7.9695213743650397 30.273637159551726 53.275933422537776 0 0 -1 I I #
point $-1 -7.9695213743650397 30.273637159551726 8.703381962657831 #
straight-curve $-1 -6.0573014784660657 30.273637159551726 4.0727999067424925 -1 0 0 I I #
point $-1 -7.9695213743650397 30.273637159551726 4.0727999067424889 #
point $-1 -13.891066492318028 27.175620256143034 5.3682911802355022 #
point $-1 -10.338139421546231 27.175620256143034 5.3682911802355022 #
straight-curve $-1 10.456499926912347 30.273637159551726 53.275933422537776 0 0 -1 I I #
point $-1 10.456499926912347 30.273637159551726 8.703381962657831 #
straight-curve $-1 3.155709172172628 30.273637159551726 4.0727999067424925 -1 0 0 I I #
point $-1 10.456499926912347 30.273637159551726 4.0727999067424889 #
point $-1 4.5349548089593625 27.175620256143034 5.3682911802355022 #
point $-1 8.0878818797311567 27.175620256143034 5.3682911802355022 #
straight-curve $-1 28.882521228189734 30.273637159551726 53.275933422537776 0 0 -1 I I #
point $-1 28.882521228189734 30.273637159551726 8.703381962657831 #
straight-curve $-1 12.368719822811322 30.273637159551726 4.0727999067424925 -1 0 0 I I #
point $-1 28.882521228189734 30.273637159551726 4.0727999067424889 #
point $-1 22.960976110236757 27.175620256143034 5.3682911802355022 #
point $-1 26.513903181008544 27.175620256143034 5.3682911802355022 #
straight-curve $-1 -44.967192602313304 0 -8.703381962657831 0 1 0 I I #
point $-1 -44.967192602313304 -30.273637159551726 -8.703381962657831 #
point $-1 -44.967192602313304 30.273637159551726 -8.703381962657831 #
straight-curve $-1 0 -30.273637159551726 8.703381962657831 1 0 0 I I #
End-of-ACIS-data 