500 0 14 0           
7 Unknown 11 ACIS 5.0 NT 24 Fri Mar 26 18:49:20 1999 
-1 9.9999999999999995e-007 1e-010 
body $-1 $14 $-1 $15 #
body $-1 $16 $-1 $17 #
body $-1 $18 $-1 $19 #
body $-1 $20 $-1 $21 #
body $-1 $22 $-1 $23 #
body $-1 $24 $-1 $25 #
body $-1 $26 $-1 $27 #
body $-1 $28 $-1 $29 #
body $-1 $30 $-1 $31 #
body $-1 $32 $-1 $33 #
body $-1 $34 $-1 $35 #
body $-1 $36 $-1 $37 #
body $-1 $38 $-1 $39 #
body $-1 $40 $-1 $41 #
lump $-1 $-1 $42 $0 #
transform $-1 1 0 0 0 1 0 0 0 1 79.67040009765924 42.072837586897677 19.907397336185152 1 rotate no_reflect no_shear #
lump $-1 $-1 $43 $1 #
transform $-1 1 0 0 0 1 0 0 0 1 79.67040009765924 42.072837586897677 19.907397336185152 1 rotate no_reflect no_shear #
lump $-1 $-1 $44 $2 #
transform $-1 1 0 0 0 1 0 0 0 1 79.67040009765924 42.072837586897677 19.907397336185152 1 rotate no_reflect no_shear #
lump $-1 $-1 $45 $3 #
transform $-1 1 0 0 0 1 0 0 0 1 79.67040009765924 42.072837586897677 19.907397336185152 1 rotate no_reflect no_shear #
lump $-1 $-1 $46 $4 #
transform $-1 1 0 0 0 1 0 0 0 1 79.67040009765924 42.072837586897677 19.907397336185152 1 rotate no_reflect no_shear #
lump $-1 $-1 $47 $5 #
transform $-1 1 0 0 0 1 0 0 0 1 79.67040009765924 42.072837586897677 19.907397336185152 1 rotate no_reflect no_shear #
lump $-1 $-1 $48 $6 #
transform $-1 1 0 0 0 1 0 0 0 1 79.67040009765924 42.072837586897677 19.907397336185152 1 rotate no_reflect no_shear #
lump $-1 $-1 $49 $7 #
transform $-1 1 0 0 0 1 0 0 0 1 79.67040009765924 42.072837586897677 19.907397336185152 1 rotate no_reflect no_shear #
lump $-1 $-1 $50 $8 #
transform $-1 1 0 0 0 1 0 0 0 1 79.67040009765924 42.072837586897677 19.907397336185152 1 rotate no_reflect no_shear #
lump $-1 $-1 $51 $9 #
transform $-1 1 0 0 0 1 0 0 0 1 79.67040009765924 42.072837586897677 19.907397336185152 1 rotate no_reflect no_shear #
lump $-1 $-1 $52 $10 #
transform $-1 1 0 0 0 1 0 0 0 1 79.67040009765924 42.072837586897677 19.907397336185152 1 rotate no_reflect no_shear #
lump $-1 $-1 $53 $11 #
transform $-1 1 0 0 0 1 0 0 0 1 79.67040009765924 42.072837586897677 19.907397336185152 1 rotate no_reflect no_shear #
lump $-1 $-1 $54 $12 #
transform $-1 1 0 0 0 1 0 0 0 1 79.67040009765924 42.072837586897677 19.907397336185152 1 rotate no_reflect no_shear #
lump $-1 $-1 $55 $13 #
transform $-1 1 0 0 0 1 0 0 0 1 79.67040009765924 42.072837586897677 19.907397336185152 1 rotate no_reflect no_shear #
shell $-1 $-1 $-1 $56 $-1 $14 #
shell $-1 $-1 $-1 $57 $-1 $16 #
shell $-1 $-1 $-1 $58 $-1 $18 #
shell $-1 $-1 $-1 $59 $-1 $20 #
shell $-1 $-1 $-1 $60 $-1 $22 #
shell $-1 $-1 $-1 $61 $-1 $24 #
shell $-1 $-1 $-1 $62 $-1 $26 #
shell $-1 $-1 $-1 $63 $-1 $28 #
shell $-1 $-1 $-1 $64 $-1 $30 #
shell $-1 $-1 $-1 $65 $-1 $32 #
shell $-1 $-1 $-1 $66 $-1 $34 #
shell $-1 $-1 $-1 $67 $-1 $36 #
shell $-1 $-1 $-1 $68 $-1 $38 #
shell $-1 $-1 $-1 $69 $-1 $40 #
face $-1 $70 $71 $42 $-1 $72 forward single #
face $-1 $73 $74 $43 $-1 $75 forward single #
face $-1 $76 $77 $44 $-1 $78 reversed single #
face $-1 $79 $80 $45 $-1 $81 forward single #
face $-1 $82 $83 $46 $-1 $84 forward single #
face $-1 $85 $86 $47 $-1 $87 reversed single #
face $-1 $88 $89 $48 $-1 $90 forward single #
face $-1 $91 $92 $49 $-1 $93 forward single #
face $-1 $94 $95 $50 $-1 $96 reversed single #
face $-1 $97 $98 $51 $-1 $99 forward single #
face $-1 $100 $101 $52 $-1 $102 forward single #
face $-1 $103 $104 $53 $-1 $105 reversed single #
face $-1 $106 $107 $54 $-1 $108 forward single #
face $-1 $109 $110 $55 $-1 $111 forward single #
face $-1 $112 $113 $42 $-1 $114 reversed single #
loop $-1 $-1 $115 $56 #
plane-surface $-1 0 0 19.907397336185152 0 0 1 1 0 0 forward_v I I I I #
face $-1 $116 $117 $43 $-1 $118 reversed single #
loop $-1 $-1 $119 $57 #
plane-surface $-1 0 -34.166732628763235 6.0705827034268847 0 0 1 1 0 0 forward_v I I I I #
face $-1 $120 $121 $44 $-1 $122 reversed single #
loop $-1 $-1 $123 $58 #
plane-surface $-1 44.419159351515034 -26.260627670628789 234.8192205326109 0 1 0 0.5877852598018023 0 0.80901698891910034 forward_v I I I I #
face $-1 $124 $125 $45 $-1 $126 forward single #
loop $-1 $127 $128 $59 #
cone-surface $-1 73.758216523391383 -22.473357622192516 15.193736745448708 -0.5877852598018023 0 -0.80901698891910034 0.80901698891910034 0 -0.5877852598018023 1 I I 0 1 1 forward I I I I #
face $-1 $129 $130 $46 $-1 $131 forward single #
loop $-1 $132 $133 $60 #
cone-surface $-1 73.758216523391383 -16.792452549538105 15.193736745448708 -0.5877852598018023 0 -0.80901698891910034 0.80901698891910034 0 -0.5877852598018023 1 I I 0 1 1 forward I I I I #
face $-1 $134 $135 $47 $-1 $136 reversed single #
loop $-1 $-1 $137 $61 #
plane-surface $-1 44.419159351515034 28.817392417370723 234.8192205326109 0 1 0 0.5877852598018023 0 0.80901698891910034 forward_v I I I I #
face $-1 $138 $139 $48 $-1 $140 forward single #
loop $-1 $141 $142 $62 #
cone-surface $-1 73.758216523391383 32.604662465806996 15.193736745448708 -0.5877852598018023 0 -0.80901698891910034 0.80901698891910034 0 -0.5877852598018023 1 I I 0 1 1 forward I I I I #
face $-1 $143 $144 $49 $-1 $145 forward single #
loop $-1 $146 $147 $63 #
cone-surface $-1 73.758216523391383 38.285567538461407 15.193736745448708 -0.5877852598018023 0 -0.80901698891910034 0.80901698891910034 0 -0.5877852598018023 1 I I 0 1 1 forward I I I I #
face $-1 $148 $149 $50 $-1 $150 reversed single #
loop $-1 $-1 $151 $64 #
plane-surface $-1 -196.2048854563551 -12.584368020471132 109.13352074416814 0 1 0 -0.73135370988377701 0 0.68199835119979291 forward_v I I I I #
face $-1 $152 $153 $51 $-1 $154 forward single #
loop $-1 $155 $156 $65 #
cone-surface $-1 -69.014361203207045 -8.1762936135398832 8.7025769562413675 0.73135370988377701 0 -0.68199835119979291 1.3639967023995858 0 1.462707419767554 1 I I 0 1 2 forward I I I I #
face $-1 $157 $158 $52 $-1 $159 forward single #
loop $-1 $160 $161 $66 #
cone-surface $-1 -69.014361203207045 -1.56418200314301 8.7025769562413675 0.73135370988377701 0 -0.68199835119979291 1.3639967023995858 0 1.462707419767554 1 I I 0 1 2 forward I I I I #
face $-1 $162 $163 $53 $-1 $164 reversed single #
loop $-1 $-1 $165 $67 #
plane-surface $-1 -196.2048854563551 12.96831751248066 109.13352074416814 0 1 0 -0.73135370988377701 0 0.68199835119979291 forward_v I I I I #
face $-1 $166 $167 $54 $-1 $168 forward single #
loop $-1 $169 $170 $68 #
cone-surface $-1 -69.014361203207045 17.376391919411908 8.7025769562413675 0.73135370988377701 0 -0.68199835119979291 1.3639967023995858 0 1.462707419767554 1 I I 0 1 2 forward I I I I #
face $-1 $171 $172 $55 $-1 $173 forward single #
loop $-1 $174 $175 $69 #
cone-surface $-1 -69.014361203207045 23.988503529808781 8.7025769562413675 0.73135370988377701 0 -0.68199835119979291 1.3639967023995858 0 1.462707419767554 1 I I 0 1 2 forward I I I I #
face $-1 $176 $177 $42 $-1 $178 reversed single #
loop $-1 $-1 $179 $70 #
plane-surface $-1 0 0 -19.907397336185152 0 0 1 1 0 0 forward_v I I I I #
coedge $-1 $180 $181 $182 $183 forward $71 $-1 #
face $-1 $184 $185 $43 $-1 $186 reversed single #
loop $-1 $-1 $187 $73 #
plane-surface $-1 0 -34.166732628763235 -2.2696611135744416 0 0 1 1 0 0 forward_v I I I I #
coedge $-1 $188 $189 $190 $191 reversed $74 $-1 #
face $-1 $192 $193 $44 $-1 $194 reversed single #
loop $-1 $-1 $195 $76 #
plane-surface $-1 -49.239014288317307 -19.63290508586531 105.90980614663434 0.5877852598018023 0 0.80901698891910034 0.80901698891910034 0 -0.5877852598018023 forward_v I I I I #
coedge $-1 $196 $197 $198 $199 reversed $77 $-1 #
face $-1 $-1 $200 $45 $-1 $201 forward single #
loop $-1 $202 $203 $79 #
cone-surface $-1 72.820768365653038 -22.473357622192516 13.903450074944306 -0.5877852598018023 0 -0.80901698891910034 0.40450849445955017 0 -0.29389262990090115 1 I I -0.70710678118654746 0.70710678118654746 0.5 forward I I I I #
loop $-1 $-1 $204 $59 #
coedge $-1 $128 $128 $205 $206 reversed $80 $-1 #
face $-1 $-1 $207 $46 $-1 $208 forward single #
loop $-1 $209 $210 $82 #
cone-surface $-1 72.820768365653038 -16.792452549538105 13.903450074944306 -0.5877852598018023 0 -0.80901698891910034 0.40450849445955017 0 -0.29389262990090115 1 I I -0.70710678118654746 0.70710678118654746 0.5 forward I I I I #
loop $-1 $-1 $211 $60 #
coedge $-1 $133 $133 $212 $213 reversed $83 $-1 #
face $-1 $214 $215 $47 $-1 $216 reversed single #
loop $-1 $-1 $217 $85 #
plane-surface $-1 -49.239014288317307 35.445115002134202 105.90980614663434 0.5877852598018023 0 0.80901698891910034 0.80901698891910034 0 -0.5877852598018023 forward_v I I I I #
coedge $-1 $218 $219 $220 $221 reversed $86 $-1 #
face $-1 $-1 $222 $48 $-1 $223 forward single #
loop $-1 $224 $225 $88 #
cone-surface $-1 72.820768365653038 32.604662465806996 13.903450074944306 -0.5877852598018023 0 -0.80901698891910034 0.40450849445955017 0 -0.29389262990090115 1 I I -0.70710678118654746 0.70710678118654746 0.5 forward I I I I #
loop $-1 $-1 $226 $62 #
coedge $-1 $142 $142 $227 $228 reversed $89 $-1 #
face $-1 $-1 $229 $49 $-1 $230 forward single #
loop $-1 $231 $232 $91 #
cone-surface $-1 72.820768365653038 38.285567538461407 13.903450074944306 -0.5877852598018023 0 -0.80901698891910034 0.40450849445955017 0 -0.29389262990090115 1 I I -0.70710678118654746 0.70710678118654746 0.5 forward I I I I #
loop $-1 $-1 $233 $63 #
coedge $-1 $147 $147 $234 $235 reversed $92 $-1 #
face $-1 $236 $237 $50 $-1 $238 reversed single #
loop $-1 $-1 $239 $94 #
plane-surface $-1 -79.670400097659268 -4.8702378083414501 0.46335773210529396 -0.73135370988377701 0 0.68199835119979291 0.68199835119979291 0 0.73135370988377701 forward_v I I I I #
coedge $-1 $240 $241 $242 $243 reversed $95 $-1 #
face $-1 $-1 $244 $51 $-1 $245 forward single #
loop $-1 $246 $247 $97 #
cone-surface $-1 -66.692898511739969 -8.1762936135398832 6.5377780271377191 0.73135370988377701 0 -0.68199835119979291 0.68199835119979291 0 0.73135370988377701 1 I I -0.70710678118654746 0.70710678118654746 1 forward I I I I #
loop $-1 $-1 $248 $65 #
coedge $-1 $156 $156 $249 $250 reversed $98 $-1 #
face $-1 $-1 $251 $52 $-1 $252 forward single #
loop $-1 $253 $254 $100 #
cone-surface $-1 -66.692898511739969 -1.56418200314301 6.5377780271377191 0.73135370988377701 0 -0.68199835119979291 0.68199835119979291 0 0.73135370988377701 1 I I -0.70710678118654746 0.70710678118654746 1 forward I I I I #
loop $-1 $-1 $255 $66 #
coedge $-1 $161 $161 $256 $257 reversed $101 $-1 #
face $-1 $258 $259 $53 $-1 $260 reversed single #
loop $-1 $-1 $261 $103 #
plane-surface $-1 -79.670400097659268 20.682447724610341 0.46335773210529396 -0.73135370988377701 0 0.68199835119979291 0.68199835119979291 0 0.73135370988377701 forward_v I I I I #
coedge $-1 $262 $263 $264 $265 reversed $104 $-1 #
face $-1 $-1 $266 $54 $-1 $267 forward single #
loop $-1 $268 $269 $106 #
cone-surface $-1 -66.692898511739969 17.376391919411908 6.5377780271377191 0.73135370988377701 0 -0.68199835119979291 0.68199835119979291 0 0.73135370988377701 1 I I -0.70710678118654746 0.70710678118654746 1 forward I I I I #
loop $-1 $-1 $270 $68 #
coedge $-1 $170 $170 $271 $272 reversed $107 $-1 #
face $-1 $-1 $273 $55 $-1 $274 forward single #
loop $-1 $275 $276 $109 #
cone-surface $-1 -66.692898511739969 23.988503529808781 6.5377780271377191 0.73135370988377701 0 -0.68199835119979291 0.68199835119979291 0 0.73135370988377701 1 I I -0.70710678118654746 0.70710678118654746 1 forward I I I I #
loop $-1 $-1 $277 $69 #
coedge $-1 $175 $175 $278 $279 reversed $110 $-1 #
face $-1 $280 $281 $42 $-1 $282 reversed single #
loop $-1 $-1 $283 $112 #
plane-surface $-1 0 -42.072837586897677 0 0 1 0 0 0 1 forward_v I I I I #
coedge $-1 $284 $285 $286 $287 forward $113 $-1 #
coedge $-1 $288 $115 $289 $290 forward $71 $-1 #
coedge $-1 $115 $288 $291 $292 forward $71 $-1 #
coedge $-1 $293 $294 $115 $183 reversed $295 $-1 #
edge $-1 $296 -42.072837586897677 $297 42.072837586897677 $182 $298 forward 7 unknown #
face $-1 $299 $300 $43 $-1 $301 reversed single #
loop $-1 $-1 $302 $116 #
plane-surface $-1 0 -26.260627670628789 1.9004607949262216 0 -1 0 0 0 -1 forward_v I I I I #
coedge $-1 $303 $304 $305 $306 reversed $117 $-1 #
coedge $-1 $307 $119 $308 $309 forward $74 $-1 #
coedge $-1 $119 $307 $310 $311 reversed $74 $-1 #
coedge $-1 $312 $313 $119 $191 forward $314 $-1 #
edge $-1 $315 9.1772613562471719 $316 24.989471272516059 $190 $317 forward 7 unknown #
face $-1 $318 $319 $44 $-1 $320 forward single #
loop $-1 $-1 $321 $120 #
plane-surface $-1 44.419159351515034 -13.005182501101832 234.8192205326109 0 -1 0 -0.5877852598018023 0 -0.80901698891910034 forward_v I I I I #
coedge $-1 $322 $323 $324 $325 reversed $121 $-1 #
coedge $-1 $197 $123 $326 $327 reversed $77 $-1 #
coedge $-1 $123 $196 $322 $328 reversed $77 $-1 #
coedge $-1 $324 $329 $123 $199 forward $330 $-1 #
edge $-1 $331 97.502212930120294 $332 105.15797775950345 $198 $333 forward 7 unknown #
loop $-1 $-1 $205 $124 #
plane-surface $-1 -49.239014288317307 -19.63290508586531 105.90980614663434 0.5877852598018023 0 0.80901698891910034 0.80901698891910034 0 -0.5877852598018023 forward_v I I I I #
loop $-1 $-1 $334 $79 #
coedge $-1 $203 $203 $204 $335 reversed $125 $-1 #
coedge $-1 $204 $204 $203 $335 forward $127 $-1 #
coedge $-1 $205 $205 $128 $206 forward $200 $-1 #
edge $-1 $336 0 $336 6.2831853071796004 $205 $337 forward 7 unknown #
loop $-1 $-1 $212 $129 #
plane-surface $-1 -49.239014288317307 -19.63290508586531 105.90980614663434 0.5877852598018023 0 0.80901698891910034 0.80901698891910034 0 -0.5877852598018023 forward_v I I I I #
loop $-1 $-1 $338 $82 #
coedge $-1 $210 $210 $211 $339 reversed $130 $-1 #
coedge $-1 $211 $211 $210 $339 forward $132 $-1 #
coedge $-1 $212 $212 $133 $213 forward $207 $-1 #
edge $-1 $340 0 $340 6.2831853071796004 $212 $341 forward 7 unknown #
face $-1 $342 $343 $47 $-1 $344 forward single #
loop $-1 $-1 $220 $134 #
plane-surface $-1 79.67040009765924 0 0 -1 0 0 0 0 1 forward_v I I I I #
coedge $-1 $345 $346 $347 $348 reversed $135 $-1 #
coedge $-1 $219 $137 $349 $350 reversed $86 $-1 #
coedge $-1 $137 $218 $345 $351 reversed $86 $-1 #
coedge $-1 $347 $352 $137 $221 forward $215 $-1 #
edge $-1 $353 97.502212930120294 $354 105.15797775950345 $220 $355 forward 7 unknown #
loop $-1 $-1 $227 $138 #
plane-surface $-1 -49.239014288317307 35.445115002134202 105.90980614663434 0.5877852598018023 0 0.80901698891910034 0.80901698891910034 0 -0.5877852598018023 forward_v I I I I #
loop $-1 $-1 $356 $88 #
coedge $-1 $225 $225 $226 $357 reversed $139 $-1 #
coedge $-1 $226 $226 $225 $357 forward $141 $-1 #
coedge $-1 $227 $227 $142 $228 forward $222 $-1 #
edge $-1 $358 0 $358 6.2831853071796004 $227 $359 forward 7 unknown #
loop $-1 $-1 $234 $143 #
plane-surface $-1 -49.239014288317307 35.445115002134202 105.90980614663434 0.5877852598018023 0 0.80901698891910034 0.80901698891910034 0 -0.5877852598018023 forward_v I I I I #
loop $-1 $-1 $360 $91 #
coedge $-1 $232 $232 $233 $361 reversed $144 $-1 #
coedge $-1 $233 $233 $232 $361 forward $146 $-1 #
coedge $-1 $234 $234 $147 $235 forward $229 $-1 #
edge $-1 $362 0 $362 6.2831853071796004 $234 $363 forward 7 unknown #
face $-1 $364 $365 $50 $-1 $366 reversed single #
loop $-1 $-1 $367 $148 #
plane-surface $-1 -196.2048854563551 2.8438924037882316 109.13352074416814 0 -1 0 0.73135370988377701 0 -0.68199835119979291 forward_v I I I I #
coedge $-1 $368 $369 $370 $371 reversed $149 $-1 #
coedge $-1 $241 $151 $372 $373 reversed $95 $-1 #
coedge $-1 $151 $240 $368 $374 reversed $95 $-1 #
coedge $-1 $370 $375 $151 $243 forward $376 $-1 #
edge $-1 $377 18.43204263051831 $378 36.563902456256059 $242 $379 forward 7 unknown #
loop $-1 $-1 $249 $152 #
plane-surface $-1 -79.670400097659268 -4.8702378083414501 0.46335773210529396 -0.73135370988377701 0 0.68199835119979291 0.68199835119979291 0 0.73135370988377701 forward_v I I I I #
loop $-1 $-1 $380 $97 #
coedge $-1 $247 $247 $248 $381 reversed $153 $-1 #
coedge $-1 $248 $248 $247 $381 forward $155 $-1 #
coedge $-1 $249 $249 $156 $250 forward $244 $-1 #
edge $-1 $382 0 $382 6.2831853071796004 $249 $383 forward 7 unknown #
loop $-1 $-1 $256 $157 #
plane-surface $-1 -79.670400097659268 -4.8702378083414501 0.46335773210529396 -0.73135370988377701 0 0.68199835119979291 0.68199835119979291 0 0.73135370988377701 forward_v I I I I #
loop $-1 $-1 $384 $100 #
coedge $-1 $254 $254 $255 $385 reversed $158 $-1 #
coedge $-1 $255 $255 $254 $385 forward $160 $-1 #
coedge $-1 $256 $256 $161 $257 forward $251 $-1 #
edge $-1 $386 0 $386 6.2831853071796004 $256 $387 forward 7 unknown #
face $-1 $388 $389 $53 $-1 $390 forward single #
loop $-1 $-1 $391 $162 #
plane-surface $-1 -196.2048854563551 28.396577936740023 109.13352074416814 0 -1 0 0.73135370988377701 0 -0.68199835119979291 forward_v I I I I #
coedge $-1 $392 $393 $394 $395 reversed $163 $-1 #
coedge $-1 $263 $165 $396 $397 reversed $104 $-1 #
coedge $-1 $165 $262 $392 $398 reversed $104 $-1 #
coedge $-1 $394 $399 $165 $265 forward $389 $-1 #
edge $-1 $400 18.43204263051831 $401 36.563902456256059 $264 $402 forward 7 unknown #
loop $-1 $-1 $271 $166 #
plane-surface $-1 -79.670400097659268 20.682447724610341 0.46335773210529396 -0.73135370988377701 0 0.68199835119979291 0.68199835119979291 0 0.73135370988377701 forward_v I I I I #
loop $-1 $-1 $403 $106 #
coedge $-1 $269 $269 $270 $404 reversed $167 $-1 #
coedge $-1 $270 $270 $269 $404 forward $169 $-1 #
coedge $-1 $271 $271 $170 $272 forward $266 $-1 #
edge $-1 $405 0 $405 6.2831853071796004 $271 $406 forward 7 unknown #
loop $-1 $-1 $278 $171 #
plane-surface $-1 -79.670400097659268 20.682447724610341 0.46335773210529396 -0.73135370988377701 0 0.68199835119979291 0.68199835119979291 0 0.73135370988377701 forward_v I I I I #
loop $-1 $-1 $407 $109 #
coedge $-1 $276 $276 $277 $408 reversed $172 $-1 #
coedge $-1 $277 $277 $276 $408 forward $174 $-1 #
coedge $-1 $278 $278 $175 $279 forward $273 $-1 #
edge $-1 $409 0 $409 6.2831853071796004 $278 $410 forward 7 unknown #
face $-1 $411 $412 $42 $-1 $413 reversed single #
loop $-1 $-1 $414 $176 #
plane-surface $-1 -79.67040009765924 0 0 1 0 0 0 0 -1 forward_v I I I I #
coedge $-1 $415 $291 $416 $417 forward $177 $-1 #
coedge $-1 $418 $179 $415 $419 forward $113 $-1 #
coedge $-1 $179 $418 $420 $421 forward $113 $-1 #
coedge $-1 $294 $293 $179 $287 reversed $295 $-1 #
edge $-1 $422 -42.072837586897677 $423 42.072837586897677 $286 $424 forward 7 unknown #
coedge $-1 $181 $180 $425 $426 forward $71 $-1 #
coedge $-1 $427 $428 $180 $290 reversed $412 $-1 #
edge $-1 $297 -79.67040009765924 $429 79.67040009765924 $289 $430 forward 7 unknown #
coedge $-1 $283 $431 $181 $292 reversed $177 $-1 #
edge $-1 $432 -79.67040009765924 $296 79.67040009765924 $291 $433 forward 7 unknown #
coedge $-1 $286 $182 $431 $434 forward $295 $-1 #
coedge $-1 $182 $286 $427 $435 reversed $295 $-1 #
loop $-1 $-1 $293 $411 #
vertex $-1 $183 $436 #
vertex $-1 $183 $437 #
straight-curve $-1 79.67040009765924 0 19.907397336185152 0 1 0 I I #
face $-1 $438 $439 $43 $-1 $440 reversed single #
loop $-1 $-1 $441 $184 #
plane-surface $-1 -79.67040009765924 0 0 1 0 0 0 0 -1 forward_v I I I I #
coedge $-1 $442 $308 $313 $443 reversed $185 $-1 #
coedge $-1 $444 $187 $445 $446 reversed $117 $-1 #
coedge $-1 $187 $444 $442 $447 forward $117 $-1 #
coedge $-1 $313 $312 $187 $306 forward $314 $-1 #
edge $-1 $448 -24.989471272516059 $449 -9.1772613562471719 $305 $450 forward 7 unknown #
coedge $-1 $189 $188 $441 $451 reversed $74 $-1 #
coedge $-1 $302 $452 $188 $309 reversed $185 $-1 #
edge $-1 $315 -79.67040009765924 $453 79.67040009765924 $308 $454 forward 7 unknown #
coedge $-1 $455 $456 $189 $311 forward $439 $-1 #
edge $-1 $316 -79.67040009765924 $457 79.67040009765924 $310 $458 forward 7 unknown #
coedge $-1 $305 $190 $456 $459 forward $314 $-1 #
coedge $-1 $190 $305 $302 $443 forward $314 $-1 #
loop $-1 $-1 $190 $438 #
vertex $-1 $191 $460 #
vertex $-1 $459 $461 #
straight-curve $-1 79.67040009765924 -17.083366314381617 6.0705827034268847 0 -1 0 I I #
face $-1 $-1 $330 $44 $-1 $462 reversed single #
loop $-1 $-1 $463 $192 #
plane-surface $-1 0 0 19.907397336185152 0 0 1 1 0 0 forward_v I I I I #
coedge $-1 $464 $465 $466 $467 reversed $193 $-1 #
coedge $-1 $468 $195 $197 $328 forward $121 $-1 #
coedge $-1 $195 $468 $464 $469 forward $121 $-1 #
coedge $-1 $466 $198 $195 $325 forward $330 $-1 #
edge $-1 $332 -16.444175127696134 $470 -3.1887299581691764 $324 $471 forward 7 unknown #
coedge $-1 $472 $473 $196 $327 forward $319 $-1 #
edge $-1 $474 46.923564329040907 $331 57.460820421901722 $326 $475 forward 7 unknown #
edge $-1 $332 -159.34080019531848 $474 -146.31603528038227 $197 $476 forward 7 unknown #
coedge $-1 $198 $466 $472 $477 reversed $330 $-1 #
loop $-1 $-1 $466 $318 #
vertex $-1 $477 $478 #
vertex $-1 $199 $479 #
straight-curve $-1 79.67040009765924 -26.260627670628789 117.40961026630545 0 0 -1 I I #
coedge $-1 $334 $334 $-1 $480 reversed $202 $-1 #
edge $-1 $481 0 $481 6.2831853071796004 $203 $482 forward 7 unknown #
vertex $-1 $206 $483 #
ellipse-curve $-1 74.401772051228846 -22.473357622192516 16.07951492149358 0.5877852598018023 0 0.80901698891910034 0.80901698891910034 0 -0.5877852598018023 1 I I #
coedge $-1 $338 $338 $-1 $484 reversed $209 $-1 #
edge $-1 $485 0 $485 6.2831853071796004 $210 $486 forward 7 unknown #
vertex $-1 $213 $487 #
ellipse-curve $-1 74.401772051228846 -16.792452549538105 16.07951492149358 0.5877852598018023 0 0.80901698891910034 0.80901698891910034 0 -0.5877852598018023 1 I I #
face $-1 $-1 $488 $47 $-1 $489 reversed single #
loop $-1 $-1 $349 $214 #
plane-surface $-1 0 0 19.907397336185152 0 0 1 1 0 0 forward_v I I I I #
coedge $-1 $490 $217 $219 $351 forward $135 $-1 #
coedge $-1 $217 $490 $491 $492 reversed $135 $-1 #
coedge $-1 $493 $220 $217 $348 forward $215 $-1 #
edge $-1 $354 11.094834916303622 $494 24.350280085830576 $347 $495 forward 7 unknown #
coedge $-1 $496 $497 $218 $350 forward $343 $-1 #
edge $-1 $498 46.923564329040907 $353 57.460820421901722 $349 $499 forward 7 unknown #
edge $-1 $354 -159.34080019531848 $498 -146.31603528038227 $219 $500 forward 7 unknown #
coedge $-1 $220 $493 $496 $501 reversed $215 $-1 #
vertex $-1 $501 $502 #
vertex $-1 $221 $503 #
straight-curve $-1 79.67040009765924 28.817392417370723 117.40961026630545 0 0 -1 I I #
coedge $-1 $356 $356 $-1 $504 reversed $224 $-1 #
edge $-1 $505 0 $505 6.2831853071796004 $225 $506 forward 7 unknown #
vertex $-1 $228 $507 #
ellipse-curve $-1 74.401772051228846 32.604662465806996 16.07951492149358 0.5877852598018023 0 0.80901698891910034 0.80901698891910034 0 -0.5877852598018023 1 I I #
coedge $-1 $360 $360 $-1 $508 reversed $231 $-1 #
edge $-1 $509 0 $509 6.2831853071796004 $232 $510 forward 7 unknown #
vertex $-1 $235 $511 #
ellipse-curve $-1 74.401772051228846 38.285567538461407 16.07951492149358 0.5877852598018023 0 0.80901698891910034 0.80901698891910034 0 -0.5877852598018023 1 I I #
face $-1 $-1 $376 $50 $-1 $512 forward single #
loop $-1 $-1 $513 $236 #
plane-surface $-1 -79.67040009765924 0 0 1 0 0 0 0 -1 forward_v I I I I #
coedge $-1 $514 $515 $516 $517 reversed $237 $-1 #
coedge $-1 $518 $239 $241 $374 forward $149 $-1 #
coedge $-1 $239 $518 $514 $519 forward $149 $-1 #
coedge $-1 $516 $242 $239 $371 forward $376 $-1 #
edge $-1 $378 -10.149249116300407 $520 5.2790113079589567 $370 $521 forward 7 unknown #
coedge $-1 $522 $523 $240 $373 forward $365 $-1 #
edge $-1 $524 -54.103402639978746 $377 -34.65936303589892 $372 $525 forward 7 unknown #
edge $-1 $378 -26.58636900490982 $524 -4.1672018199517132e-014 $241 $526 forward 7 unknown #
coedge $-1 $242 $516 $522 $527 forward $376 $-1 #
loop $-1 $-1 $516 $364 #
vertex $-1 $373 $528 #
vertex $-1 $243 $529 #
straight-curve $-1 -98.10244272817755 -12.584368020471132 19.907397336185156 1 0 0 I I #
coedge $-1 $380 $380 $-1 $530 reversed $246 $-1 #
edge $-1 $531 0 $531 6.2831853071796004 $247 $532 forward 7 unknown #
vertex $-1 $250 $533 #
ellipse-curve $-1 -70.604470184790358 -8.1762936135398832 10.185377534145239 -0.73135370988377701 0 0.68199835119979291 1.3639967023995858 0 1.462707419767554 1 I I #
coedge $-1 $384 $384 $-1 $534 reversed $253 $-1 #
edge $-1 $535 0 $535 6.2831853071796004 $254 $536 forward 7 unknown #
vertex $-1 $257 $537 #
ellipse-curve $-1 -70.604470184790358 -1.56418200314301 10.185377534145239 -0.73135370988377701 0 0.68199835119979291 1.3639967023995858 0 1.462707419767554 1 I I #
face $-1 $-1 $538 $53 $-1 $539 reversed single #
loop $-1 $-1 $264 $258 #
plane-surface $-1 0 0 19.907397336185152 0 0 1 1 0 0 forward_v I I I I #
coedge $-1 $540 $541 $542 $543 reversed $259 $-1 #
coedge $-1 $544 $261 $263 $398 forward $163 $-1 #
coedge $-1 $261 $544 $540 $545 forward $163 $-1 #
coedge $-1 $542 $264 $261 $395 forward $389 $-1 #
edge $-1 $401 2.6270936501754889 $546 18.055354074434852 $394 $547 forward 7 unknown #
coedge $-1 $548 $549 $262 $397 forward $538 $-1 #
edge $-1 $550 -54.103402639978746 $400 -34.65936303589892 $396 $551 forward 7 unknown #
edge $-1 $401 -26.58636900490982 $550 -4.1672018199517132e-014 $263 $552 forward 7 unknown #
coedge $-1 $264 $542 $548 $553 forward $389 $-1 #
vertex $-1 $265 $554 #
vertex $-1 $265 $555 #
straight-curve $-1 -98.10244272817755 12.96831751248066 19.907397336185156 1 0 0 I I #
coedge $-1 $403 $403 $-1 $556 reversed $268 $-1 #
edge $-1 $557 0 $557 6.2831853071796004 $269 $558 forward 7 unknown #
vertex $-1 $272 $559 #
ellipse-curve $-1 -70.604470184790358 17.376391919411908 10.185377534145239 -0.73135370988377701 0 0.68199835119979291 1.3639967023995858 0 1.462707419767554 1 I I #
coedge $-1 $407 $407 $-1 $560 reversed $275 $-1 #
edge $-1 $561 0 $561 6.2831853071796004 $276 $562 forward 7 unknown #
vertex $-1 $279 $563 #
ellipse-curve $-1 -70.604470184790358 23.988503529808781 10.185377534145239 -0.73135370988377701 0 0.68199835119979291 1.3639967023995858 0 1.462707419767554 1 I I #
face $-1 $-1 $295 $42 $-1 $564 reversed single #
loop $-1 $-1 $427 $280 #
plane-surface $-1 0 42.072837586897677 0 0 -1 0 0 0 -1 forward_v I I I I #
coedge $-1 $565 $425 $428 $566 forward $281 $-1 #
coedge $-1 $431 $283 $284 $419 reversed $177 $-1 #
coedge $-1 $425 $565 $283 $417 reversed $281 $-1 #
edge $-1 $432 -19.907397336185152 $567 19.907397336185152 $416 $568 forward 7 unknown #
coedge $-1 $285 $284 $565 $569 forward $113 $-1 #
edge $-1 $423 -79.67040009765924 $567 79.67040009765924 $415 $570 forward 7 unknown #
coedge $-1 $428 $427 $285 $421 reversed $412 $-1 #
edge $-1 $571 -79.67040009765924 $422 79.67040009765924 $420 $572 forward 7 unknown #
vertex $-1 $287 $573 #
vertex $-1 $434 $574 #
straight-curve $-1 79.67040009765924 0 -19.907397336185152 0 -1 0 I I #
coedge $-1 $414 $416 $288 $426 reversed $281 $-1 #
edge $-1 $429 -42.072837586897677 $432 42.072837586897677 $425 $575 forward 7 unknown #
coedge $-1 $420 $289 $294 $435 forward $412 $-1 #
coedge $-1 $289 $420 $414 $566 reversed $412 $-1 #
vertex $-1 $290 $576 #
straight-curve $-1 0 42.072837586897677 19.907397336185152 -1 0 0 I I #
coedge $-1 $291 $415 $293 $434 reversed $177 $-1 #
vertex $-1 $426 $577 #
straight-curve $-1 0 -42.072837586897677 19.907397336185152 1 0 0 I I #
edge $-1 $296 -19.907397336185152 $423 19.907397336185152 $293 $578 forward 7 unknown #
edge $-1 $297 -19.907397336185152 $422 19.907397336185152 $294 $579 forward 7 unknown #
point $-1 79.67040009765924 -42.072837586897677 19.907397336185152 #
point $-1 79.67040009765924 42.072837586897677 19.907397336185152 #
face $-1 $-1 $314 $43 $-1 $580 reversed single #
loop $-1 $-1 $310 $299 #
plane-surface $-1 0 -42.072837586897677 0 0 1 0 0 0 1 forward_v I I I I #
coedge $-1 $581 $582 $307 $451 forward $300 $-1 #
coedge $-1 $452 $302 $304 $447 reversed $185 $-1 #
edge $-1 $449 -3.2198915110375523 $315 5.1203523059637739 $313 $583 forward 7 unknown #
coedge $-1 $304 $303 $584 $585 reversed $117 $-1 #
coedge $-1 $456 $455 $303 $446 forward $439 $-1 #
edge $-1 $586 -79.67040009765924 $448 79.67040009765924 $445 $587 forward 7 unknown #
edge $-1 $588 -79.67040009765924 $449 79.67040009765924 $442 $589 forward 7 unknown #
vertex $-1 $446 $590 #
vertex $-1 $306 $591 #
straight-curve $-1 79.67040009765924 -17.083366314381617 -2.2696611135744416 0 1 0 I I #
edge $-1 $457 -24.989471272516059 $453 -9.1772613562471719 $441 $592 forward 7 unknown #
coedge $-1 $308 $442 $581 $593 reversed $185 $-1 #
vertex $-1 $451 $594 #
straight-curve $-1 0 -26.260627670628789 6.0705827034268847 -1 0 0 I I #
coedge $-1 $445 $310 $582 $595 forward $439 $-1 #
coedge $-1 $310 $445 $312 $459 reversed $439 $-1 #
vertex $-1 $595 $596 #
straight-curve $-1 0 -42.072837586897677 6.0705827034268847 -1 0 0 I I #
edge $-1 $316 -6.0705827034268847 $448 2.2696611135744416 $312 $597 forward 7 unknown #
point $-1 79.67040009765924 -26.260627670628789 6.0705827034268847 #
point $-1 79.67040009765924 -42.072837586897677 6.0705827034268847 #
plane-surface $-1 79.67040009765924 0 0 -1 0 0 0 0 1 forward_v I I I I #
coedge $-1 $473 $472 $465 $598 forward $319 $-1 #
coedge $-1 $465 $321 $323 $469 reversed $193 $-1 #
coedge $-1 $321 $464 $463 $598 reversed $193 $-1 #
coedge $-1 $329 $324 $321 $467 forward $330 $-1 #
edge $-1 $470 -105.15797775950345 $599 -97.502212930120294 $466 $600 forward 7 unknown #
coedge $-1 $323 $322 $473 $601 reversed $121 $-1 #
edge $-1 $602 146.31603528038227 $470 159.34080019531848 $464 $603 forward 7 unknown #
vertex $-1 $325 $604 #
straight-curve $-1 79.67040009765924 -9.8164525429326552 12.25163250680199 0 1 0 I I #
coedge $-1 $463 $326 $329 $477 forward $319 $-1 #
coedge $-1 $326 $463 $468 $601 forward $319 $-1 #
vertex $-1 $327 $605 #
straight-curve $-1 22.209579675757517 -26.260627670628789 19.907397336185156 1 0 0 I I #
straight-curve $-1 -49.239014288317307 -26.260627670628789 105.90980614663434 -0.80901698891910034 0 0.5877852598018023 I I #
edge $-1 $331 -26.260627670628789 $599 -13.005182501101832 $329 $606 forward 7 unknown #
point $-1 79.67040009765924 -26.260627670628789 19.907397336185152 #
point $-1 79.670400097659254 -26.260627670628789 12.251632506801997 #
edge $-1 $607 1 $607 0 $334 $-1 forward 7 unknown #
vertex $-1 $335 $608 #
ellipse-curve $-1 73.114660995553933 -22.473357622192516 14.307958569403857 0.5877852598018023 0 0.80901698891910034 0.80901698891910034 0 -0.5877852598018023 1 I I #
point $-1 75.21078904014793 -22.473357622192516 15.491729661691759 #
edge $-1 $609 1 $609 0 $338 $-1 forward 7 unknown #
vertex $-1 $339 $610 #
ellipse-curve $-1 73.114660995553933 -16.792452549538105 14.307958569403857 0.5877852598018023 0 0.80901698891910034 0.80901698891910034 0 -0.5877852598018023 1 I I #
point $-1 75.21078904014793 -16.792452549538105 15.491729661691759 #
loop $-1 $-1 $491 $342 #
plane-surface $-1 0 42.072837586897677 0 0 -1 0 0 0 -1 forward_v I I I I #
coedge $-1 $346 $345 $497 $611 reversed $135 $-1 #
coedge $-1 $612 $613 $346 $492 forward $488 $-1 #
edge $-1 $494 -108.29708919614998 $614 -95.272324281213784 $491 $615 forward 7 unknown #
coedge $-1 $352 $347 $613 $616 reversed $215 $-1 #
vertex $-1 $492 $617 #
straight-curve $-1 79.67040009765924 17.722557501067101 12.25163250680199 0 1 0 I I #
coedge $-1 $618 $349 $352 $501 forward $343 $-1 #
coedge $-1 $349 $618 $490 $611 forward $343 $-1 #
vertex $-1 $350 $619 #
straight-curve $-1 22.209579675757517 28.817392417370723 19.907397336185156 1 0 0 I I #
straight-curve $-1 -49.239014288317307 28.817392417370723 105.90980614663434 -0.80901698891910034 0 0.5877852598018023 I I #
edge $-1 $353 28.817392417370723 $620 42.072837586897677 $352 $621 forward 7 unknown #
point $-1 79.67040009765924 28.817392417370723 19.907397336185152 #
point $-1 79.670400097659254 28.817392417370723 12.251632506801997 #
edge $-1 $622 1 $622 0 $356 $-1 forward 7 unknown #
vertex $-1 $357 $623 #
ellipse-curve $-1 73.114660995553933 32.604662465806996 14.307958569403857 0.5877852598018023 0 0.80901698891910034 0.80901698891910034 0 -0.5877852598018023 1 I I #
point $-1 75.21078904014793 32.604662465806996 15.491729661691759 #
edge $-1 $624 1 $624 0 $360 $-1 forward 7 unknown #
vertex $-1 $361 $625 #
ellipse-curve $-1 73.114660995553933 38.285567538461407 14.307958569403857 0.5877852598018023 0 0.80901698891910034 0.80901698891910034 0 -0.5877852598018023 1 I I #
point $-1 75.21078904014793 38.285567538461407 15.491729661691759 #
plane-surface $-1 0 0 19.907397336185152 0 0 1 1 0 0 forward_v I I I I #
coedge $-1 $523 $522 $515 $626 forward $365 $-1 #
coedge $-1 $515 $367 $369 $519 reversed $237 $-1 #
coedge $-1 $367 $514 $513 $626 reversed $237 $-1 #
coedge $-1 $375 $370 $367 $517 forward $376 $-1 #
edge $-1 $520 -36.563902456256059 $627 -18.43204263051831 $516 $628 forward 7 unknown #
coedge $-1 $369 $368 $523 $629 reversed $149 $-1 #
edge $-1 $630 4.1672018199517132e-014 $520 26.58636900490982 $514 $631 forward 7 unknown #
vertex $-1 $371 $632 #
straight-curve $-1 -61.538540271921491 -2.4351189041707251 19.907397336185152 0 1 0 I I #
coedge $-1 $513 $372 $375 $527 reversed $365 $-1 #
coedge $-1 $372 $513 $518 $629 forward $365 $-1 #
vertex $-1 $373 $633 #
straight-curve $-1 -79.67040009765924 -12.584368020471132 54.566760372084069 0 0 1 I I #
straight-curve $-1 -79.670400097659268 -12.584368020471132 0.46335773210529396 -0.68199835119979291 0 -0.73135370988377701 I I #
edge $-1 $627 -2.8438924037882316 $377 12.584368020471132 $522 $634 forward 7 unknown #
point $-1 -79.67040009765924 -12.584368020471132 19.907397336185152 #
point $-1 -61.538540271921491 -12.584368020471132 19.907397336185152 #
edge $-1 $635 1 $635 0 $380 $-1 forward 7 unknown #
vertex $-1 $381 $636 #
ellipse-curve $-1 -67.424252221623746 -8.1762936135398832 7.219776378337512 -0.73135370988377701 0 0.68199835119979291 1.3639967023995858 0 1.462707419767554 1 I I #
point $-1 -69.240473482390769 -8.1762936135398832 11.648084953912777 #
edge $-1 $637 1 $637 0 $384 $-1 forward 7 unknown #
vertex $-1 $385 $638 #
ellipse-curve $-1 -67.424252221623746 -1.56418200314301 7.219776378337512 -0.73135370988377701 0 0.68199835119979291 1.3639967023995858 0 1.462707419767554 1 I I #
point $-1 -69.240473482390769 -1.56418200314301 11.648084953912777 #
loop $-1 $-1 $396 $388 #
plane-surface $-1 -79.67040009765924 0 0 1 0 0 0 0 -1 forward_v I I I I #
coedge $-1 $541 $391 $393 $545 reversed $259 $-1 #
coedge $-1 $391 $540 $639 $640 reversed $259 $-1 #
coedge $-1 $399 $394 $391 $543 forward $389 $-1 #
edge $-1 $546 -36.563902456256059 $641 -18.43204263051831 $542 $642 forward 7 unknown #
coedge $-1 $393 $392 $549 $643 reversed $163 $-1 #
edge $-1 $644 4.1672018199517132e-014 $546 26.58636900490982 $540 $645 forward 7 unknown #
vertex $-1 $395 $646 #
straight-curve $-1 -61.538540271921491 10.341223862305171 19.907397336185152 0 1 0 I I #
coedge $-1 $639 $396 $399 $553 reversed $538 $-1 #
coedge $-1 $396 $639 $544 $643 forward $538 $-1 #
vertex $-1 $397 $647 #
straight-curve $-1 -79.67040009765924 12.96831751248066 54.566760372084069 0 0 1 I I #
straight-curve $-1 -79.670400097659268 12.96831751248066 0.46335773210529396 -0.68199835119979291 0 -0.73135370988377701 I I #
edge $-1 $641 -28.396577936740023 $400 -12.96831751248066 $548 $648 forward 7 unknown #
point $-1 -79.67040009765924 12.96831751248066 19.907397336185152 #
point $-1 -61.538540271921491 12.96831751248066 19.907397336185152 #
edge $-1 $649 1 $649 0 $403 $-1 forward 7 unknown #
vertex $-1 $404 $650 #
ellipse-curve $-1 -67.424252221623746 17.376391919411908 7.219776378337512 -0.73135370988377701 0 0.68199835119979291 1.3639967023995858 0 1.462707419767554 1 I I #
point $-1 -69.240473482390769 17.376391919411908 11.648084953912777 #
edge $-1 $651 1 $651 0 $407 $-1 forward 7 unknown #
vertex $-1 $408 $652 #
ellipse-curve $-1 -67.424252221623746 23.988503529808781 7.219776378337512 -0.73135370988377701 0 0.68199835119979291 1.3639967023995858 0 1.462707419767554 1 I I #
point $-1 -69.240473482390769 23.988503529808781 11.648084953912777 #
plane-surface $-1 79.67040009765924 0 0 -1 0 0 0 0 1 forward_v I I I I #
coedge $-1 $416 $414 $418 $569 reversed $281 $-1 #
edge $-1 $429 -19.907397336185152 $571 19.907397336185152 $428 $653 forward 7 unknown #
vertex $-1 $569 $654 #
straight-curve $-1 -79.67040009765924 -42.072837586897677 0 0 0 -1 I I #
edge $-1 $567 -42.072837586897677 $571 42.072837586897677 $565 $655 forward 7 unknown #
straight-curve $-1 0 -42.072837586897677 -19.907397336185152 -1 0 0 I I #
vertex $-1 $421 $656 #
straight-curve $-1 0 42.072837586897677 -19.907397336185152 1 0 0 I I #
point $-1 79.67040009765924 42.072837586897677 -19.907397336185152 #
point $-1 79.67040009765924 -42.072837586897677 -19.907397336185152 #
straight-curve $-1 -79.67040009765924 0 19.907397336185152 0 -1 0 I I #
point $-1 -79.67040009765924 42.072837586897677 19.907397336185152 #
point $-1 -79.67040009765924 -42.072837586897677 19.907397336185152 #
straight-curve $-1 79.67040009765924 -42.072837586897677 0 0 0 -1 I I #
straight-curve $-1 79.67040009765924 42.072837586897677 0 0 0 -1 I I #
plane-surface $-1 79.67040009765924 0 0 -1 0 0 0 0 1 forward_v I I I I #
coedge $-1 $584 $441 $452 $593 forward $300 $-1 #
coedge $-1 $441 $584 $455 $595 reversed $300 $-1 #
straight-curve $-1 79.67040009765924 -26.260627670628789 0.95023039746311078 0 0 1 I I #
coedge $-1 $582 $581 $444 $585 forward $300 $-1 #
edge $-1 $588 9.1772613562471719 $586 24.989471272516059 $584 $657 forward 7 unknown #
vertex $-1 $446 $658 #
straight-curve $-1 0 -42.072837586897677 -2.2696611135744416 1 0 0 I I #
vertex $-1 $585 $659 #
straight-curve $-1 0 -26.260627670628789 -2.2696611135744416 1 0 0 I I #
point $-1 79.67040009765924 -42.072837586897677 -2.2696611135744416 #
point $-1 79.67040009765924 -26.260627670628789 -2.2696611135744416 #
straight-curve $-1 -79.67040009765924 -17.083366314381617 6.0705827034268847 0 1 0 I I #
edge $-1 $453 -5.1203523059637739 $588 3.2198915110375523 $581 $660 forward 7 unknown #
point $-1 -79.67040009765924 -26.260627670628789 6.0705827034268847 #
edge $-1 $457 -6.0705827034268847 $586 2.2696611135744416 $582 $661 forward 7 unknown #
point $-1 -79.67040009765924 -42.072837586897677 6.0705827034268847 #
straight-curve $-1 79.67040009765924 -42.072837586897677 0 0 0 -1 I I #
edge $-1 $599 -57.460820421901722 $602 -46.923564329040907 $463 $662 forward 7 unknown #
vertex $-1 $598 $663 #
straight-curve $-1 79.67040009765924 -13.005182501101832 117.40961026630545 0 0 1 I I #
edge $-1 $602 3.1887299581691764 $474 16.444175127696134 $473 $664 forward 7 unknown #
vertex $-1 $601 $665 #
straight-curve $-1 -49.239014288317307 -13.005182501101832 105.90980614663434 0.80901698891910034 0 -0.5877852598018023 I I #
point $-1 79.670400097659254 -13.005182501101832 12.251632506801997 #
point $-1 69.133144004798424 -26.260627670628789 19.907397336185156 #
straight-curve $-1 79.67040009765924 0 19.907397336185152 0 1 0 I I #
vertex $-1 $480 $666 #
point $-1 73.923677984473045 -22.473357622192516 13.720173309602053 #
vertex $-1 $484 $667 #
point $-1 73.923677984473045 -16.792452549538105 13.720173309602053 #
edge $-1 $614 -24.350280085830576 $498 -11.094834916303622 $497 $668 forward 7 unknown #
coedge $-1 $613 $491 $618 $669 reversed $488 $-1 #
coedge $-1 $491 $612 $493 $616 forward $488 $-1 #
vertex $-1 $492 $670 #
straight-curve $-1 -7.9437849125132409 42.072837586897677 75.907065215739962 -0.80901698891910034 0 0.5877852598018023 I I #
edge $-1 $620 -19.907397336185152 $494 -12.251632506801997 $493 $671 forward 7 unknown #
point $-1 79.670400097659254 42.072837586897677 12.251632506801997 #
coedge $-1 $497 $496 $612 $669 forward $343 $-1 #
point $-1 69.133144004798424 28.817392417370723 19.907397336185156 #
vertex $-1 $501 $672 #
straight-curve $-1 79.67040009765924 0 19.907397336185152 0 1 0 I I #
vertex $-1 $504 $673 #
point $-1 73.923677984473045 32.604662465806996 13.720173309602053 #
vertex $-1 $508 $674 #
point $-1 73.923677984473045 38.285567538461407 13.720173309602053 #
edge $-1 $627 34.65936303589892 $630 54.103402639978746 $513 $675 forward 7 unknown #
vertex $-1 $527 $676 #
straight-curve $-1 -98.10244272817755 2.8438924037882316 19.907397336185156 -1 0 0 I I #
edge $-1 $630 -5.2790113079589567 $524 10.149249116300407 $523 $677 forward 7 unknown #
vertex $-1 $629 $678 #
straight-curve $-1 -79.670400097659268 2.8438924037882316 0.46335773210529396 0.68199835119979291 0 0.73135370988377701 I I #
point $-1 -61.538540271921491 2.8438924037882316 19.907397336185152 #
point $-1 -79.67040009765924 -12.584368020471132 0.46335773210532444 #
straight-curve $-1 -79.67040009765924 0 19.907397336185152 0 -1 0 I I #
vertex $-1 $530 $679 #
point $-1 -66.060255519224157 -8.1762936135398832 8.682483798105066 #
vertex $-1 $534 $680 #
point $-1 -66.060255519224157 -1.56418200314301 8.682483798105066 #
coedge $-1 $549 $548 $541 $640 forward $538 $-1 #
edge $-1 $641 34.65936303589892 $644 54.103402639978746 $639 $681 forward 7 unknown #
vertex $-1 $553 $682 #
straight-curve $-1 -98.10244272817755 28.396577936740023 19.907397336185156 -1 0 0 I I #
edge $-1 $644 -18.055354074434852 $550 -2.6270936501754889 $549 $683 forward 7 unknown #
vertex $-1 $643 $684 #
straight-curve $-1 -79.670400097659268 28.396577936740023 0.46335773210529396 0.68199835119979291 0 0.73135370988377701 I I #
point $-1 -61.538540271921491 28.396577936740023 19.907397336185152 #
point $-1 -79.67040009765924 12.96831751248066 0.46335773210532444 #
straight-curve $-1 -79.67040009765924 0 19.907397336185152 0 -1 0 I I #
vertex $-1 $556 $685 #
point $-1 -66.060255519224157 17.376391919411908 8.682483798105066 #
vertex $-1 $560 $686 #
point $-1 -66.060255519224157 23.988503529808781 8.682483798105066 #
straight-curve $-1 -79.67040009765924 42.072837586897677 0 0 0 -1 I I #
point $-1 -79.67040009765924 -42.072837586897677 -19.907397336185152 #
straight-curve $-1 -79.67040009765924 0 -19.907397336185152 0 1 0 I I #
point $-1 -79.67040009765924 42.072837586897677 -19.907397336185152 #
straight-curve $-1 -79.67040009765924 -17.083366314381617 -2.2696611135744416 0 -1 0 I I #
point $-1 -79.67040009765924 -42.072837586897677 -2.2696611135744416 #
point $-1 -79.67040009765924 -26.260627670628789 -2.2696611135744416 #
straight-curve $-1 -79.67040009765924 -26.260627670628789 0.95023039746311078 0 0 -1 I I #
straight-curve $-1 -79.67040009765924 -42.072837586897677 0 0 0 -1 I I #
straight-curve $-1 22.209579675757517 -13.005182501101832 19.907397336185156 -1 0 0 I I #
point $-1 79.67040009765924 -13.005182501101832 19.907397336185152 #
straight-curve $-1 69.133144004798439 -9.8164525429326552 19.907397336185156 0 -1 0 I I #
point $-1 69.133144004798424 -13.005182501101832 19.907397336185156 #
point $-1 72.526875735752142 -22.473357622192516 13.498941580484756 #
point $-1 72.526875735752142 -16.792452549538105 13.498941580484756 #
straight-curve $-1 69.133144004798439 17.722557501067101 19.907397336185156 0 -1 0 I I #
edge $-1 $620 -79.67040009765924 $614 -69.133144004798424 $612 $687 forward 7 unknown #
point $-1 69.133144004798424 42.072837586897677 19.907397336185156 #
straight-curve $-1 79.67040009765924 42.072837586897677 0 0 0 -1 I I #
point $-1 79.67040009765924 42.072837586897677 19.907397336185152 #
point $-1 72.526875735752142 32.604662465806996 13.498941580484756 #
point $-1 72.526875735752142 38.285567538461407 13.498941580484756 #
straight-curve $-1 -79.67040009765924 2.8438924037882316 54.566760372084069 0 0 -1 I I #
point $-1 -79.67040009765924 2.8438924037882316 19.907397336185152 #
straight-curve $-1 -79.67040009765924 -2.4351189041707251 0.46335773210533054 0 -1 0 I I #
point $-1 -79.67040009765924 2.8438924037882316 0.46335773210532444 #
point $-1 -65.961544801856192 -8.1762936135398832 5.8557796759379261 #
point $-1 -65.961544801856192 -1.56418200314301 5.8557796759379261 #
straight-curve $-1 -79.67040009765924 28.396577936740023 54.566760372084069 0 0 -1 I I #
point $-1 -79.67040009765924 28.396577936740023 19.907397336185152 #
straight-curve $-1 -79.67040009765924 10.341223862305171 0.46335773210533054 0 -1 0 I I #
point $-1 -79.67040009765924 28.396577936740023 0.46335773210532444 #
point $-1 -65.961544801856192 17.376391919411908 5.8557796759379261 #
point $-1 -65.961544801856192 23.988503529808781 5.8557796759379261 #
straight-curve $-1 0 42.072837586897677 19.907397336185152 -1 0 0 I I #
End-of-ACIS-data 