500 0 13 0           
7 Unknown 11 ACIS 5.0 NT 24 Fri Mar 26 01:12:28 1999 
-1 9.9999999999999995e-007 1e-010 
body $-1 $13 $-1 $14 #
body $-1 $15 $-1 $16 #
body $-1 $17 $-1 $18 #
body $-1 $19 $-1 $20 #
body $-1 $21 $-1 $22 #
body $-1 $23 $-1 $24 #
body $-1 $25 $-1 $26 #
body $-1 $27 $-1 $28 #
body $-1 $29 $-1 $30 #
body $-1 $31 $-1 $32 #
body $-1 $33 $-1 $34 #
body $-1 $35 $-1 $36 #
body $-1 $37 $-1 $38 #
lump $-1 $-1 $39 $0 #
transform $-1 1 0 0 0 1 0 0 0 1 55.681630909146399 26.819523905868799 9.9340361230973127 1 rotate no_reflect no_shear #
lump $-1 $-1 $40 $1 #
transform $-1 1 0 0 0 1 0 0 0 1 55.681630909146399 26.819523905868799 9.9340361230973127 1 rotate no_reflect no_shear #
lump $-1 $-1 $41 $2 #
transform $-1 1 0 0 0 1 0 0 0 1 55.681630909146399 26.819523905868799 9.9340361230973127 1 rotate no_reflect no_shear #
lump $-1 $-1 $42 $3 #
transform $-1 1 0 0 0 1 0 0 0 1 55.681630909146399 26.819523905868799 9.9340361230973127 1 rotate no_reflect no_shear #
lump $-1 $-1 $43 $4 #
transform $-1 1 0 0 0 1 0 0 0 1 55.681630909146399 26.819523905868799 9.9340361230973127 1 rotate no_reflect no_shear #
lump $-1 $-1 $44 $5 #
transform $-1 1 0 0 0 1 0 0 0 1 55.681630909146399 26.819523905868799 9.9340361230973127 1 rotate no_reflect no_shear #
lump $-1 $-1 $45 $6 #
transform $-1 1 0 0 0 1 0 0 0 1 55.681630909146399 26.819523905868799 9.9340361230973127 1 rotate no_reflect no_shear #
lump $-1 $-1 $46 $7 #
transform $-1 1 0 0 0 1 0 0 0 1 55.681630909146399 26.819523905868799 9.9340361230973127 1 rotate no_reflect no_shear #
lump $-1 $-1 $47 $8 #
transform $-1 1 0 0 0 1 0 0 0 1 55.681630909146399 26.819523905868799 9.9340361230973127 1 rotate no_reflect no_shear #
lump $-1 $-1 $48 $9 #
transform $-1 1 0 0 0 1 0 0 0 1 55.681630909146399 26.819523905868799 9.9340361230973127 1 rotate no_reflect no_shear #
lump $-1 $-1 $49 $10 #
transform $-1 1 0 0 0 1 0 0 0 1 55.681630909146399 26.819523905868799 9.9340361230973127 1 rotate no_reflect no_shear #
lump $-1 $-1 $50 $11 #
transform $-1 1 0 0 0 1 0 0 0 1 55.681630909146399 26.819523905868799 9.9340361230973127 1 rotate no_reflect no_shear #
lump $-1 $-1 $51 $12 #
transform $-1 1 0 0 0 1 0 0 0 1 55.681630909146399 26.819523905868799 9.9340361230973127 1 rotate no_reflect no_shear #
shell $-1 $-1 $-1 $52 $-1 $13 #
shell $-1 $-1 $-1 $53 $-1 $15 #
shell $-1 $-1 $-1 $54 $-1 $17 #
shell $-1 $-1 $-1 $55 $-1 $19 #
shell $-1 $-1 $-1 $56 $-1 $21 #
shell $-1 $-1 $-1 $57 $-1 $23 #
shell $-1 $-1 $-1 $58 $-1 $25 #
shell $-1 $-1 $-1 $59 $-1 $27 #
shell $-1 $-1 $-1 $60 $-1 $29 #
shell $-1 $-1 $-1 $61 $-1 $31 #
shell $-1 $-1 $-1 $62 $-1 $33 #
shell $-1 $-1 $-1 $63 $-1 $35 #
shell $-1 $-1 $-1 $64 $-1 $37 #
face $-1 $65 $66 $39 $-1 $67 forward single #
face $-1 $68 $69 $40 $-1 $70 reversed single #
face $-1 $71 $72 $41 $-1 $73 reversed single #
face $-1 $74 $75 $42 $-1 $76 forward single #
face $-1 $77 $78 $43 $-1 $79 forward single #
face $-1 $80 $81 $44 $-1 $82 reversed single #
face $-1 $83 $84 $45 $-1 $85 forward single #
face $-1 $86 $87 $46 $-1 $88 forward single #
face $-1 $89 $90 $47 $-1 $91 forward single #
face $-1 $92 $93 $48 $-1 $94 reversed single #
face $-1 $95 $96 $49 $-1 $97 forward single #
face $-1 $98 $99 $50 $-1 $100 forward single #
face $-1 $101 $102 $51 $-1 $103 forward single #
face $-1 $104 $105 $39 $-1 $106 reversed single #
loop $-1 $-1 $107 $52 #
plane-surface $-1 0 0 9.9340361230973127 0 0 1 1 0 0 forward_v I I I I #
face $-1 $108 $109 $40 $-1 $110 reversed single #
loop $-1 $-1 $111 $53 #
plane-surface $-1 -49.739554171529008 -22.137008413105157 0 0 1 0 0 0 1 forward_v I I I I #
face $-1 $112 $113 $41 $-1 $114 reversed single #
loop $-1 $-1 $115 $54 #
plane-surface $-1 -4.9209240076392078 79.608888007913663 114.95209799582437 1 0 0 0 -0.77714596973225614 -0.62932038083071107 forward_v I I I I #
face $-1 $116 $117 $42 $-1 $118 forward single #
loop $-1 $119 $120 $55 #
cone-surface $-1 3.1018883251152474 23.260856955379534 5.8903589384553374 0 -0.77714596973225614 -0.62932038083071107 1.5 0 0 1 I I 0 1 1.5 forward I I I I #
face $-1 $121 $122 $43 $-1 $123 forward single #
loop $-1 $124 $125 $56 #
cone-surface $-1 15.13610682424693 23.260856955379534 5.8903589384553374 0 -0.77714596973225614 -0.62932038083071107 1.5 0 0 1 I I 0 1 1.5 forward I I I I #
face $-1 $126 $127 $44 $-1 $128 reversed single #
loop $-1 $-1 $129 $57 #
plane-surface $-1 2.4092389904550728 -95.381594833798943 94.067119349873295 -1 0 0 0 -0.61566148304635926 0.78801074757464917 forward_v I I I I #
face $-1 $130 $131 $45 $-1 $132 forward single #
loop $-1 $133 $134 $58 #
cone-surface $-1 -17.05487000362475 -24.047353986256752 7.5418083393158941 0 0.61566148304635926 -0.78801074757464917 1 0 0 1 I I 0 1 1 forward I I I I #
face $-1 $135 $136 $46 $-1 $137 forward single #
loop $-1 $138 $139 $59 #
cone-surface $-1 -9.7558291308448162 -24.047353986256752 7.5418083393158941 0 0.61566148304635926 -0.78801074757464917 1 0 0 1 I I 0 1 1 forward I I I I #
face $-1 $140 $141 $47 $-1 $142 forward single #
loop $-1 $143 $144 $60 #
cone-surface $-1 -2.4567882580648828 -24.047353986256752 7.5418083393158941 0 0.61566148304635926 -0.78801074757464917 1 0 0 1 I I 0 1 1 forward I I I I #
face $-1 $145 $146 $48 $-1 $147 reversed single #
loop $-1 $-1 $148 $61 #
plane-surface $-1 33.805050727379509 -95.381594833798943 94.067119349873295 -1 0 0 0 -0.61566148304635926 0.78801074757464917 forward_v I I I I #
face $-1 $149 $150 $49 $-1 $151 forward single #
loop $-1 $152 $153 $62 #
cone-surface $-1 14.34094173329968 -24.047353986256752 7.5418083393158941 0 0.61566148304635926 -0.78801074757464917 1 0 0 1 I I 0 1 1 forward I I I I #
face $-1 $154 $155 $50 $-1 $156 forward single #
loop $-1 $157 $158 $63 #
cone-surface $-1 21.63998260607962 -24.047353986256752 7.5418083393158941 0 0.61566148304635926 -0.78801074757464917 1 0 0 1 I I 0 1 1 forward I I I I #
face $-1 $159 $160 $51 $-1 $161 forward single #
loop $-1 $162 $163 $64 #
cone-surface $-1 28.939023478859561 -24.047353986256752 7.5418083393158941 0 0.61566148304635926 -0.78801074757464917 1 0 0 1 I I 0 1 1 forward I I I I #
face $-1 $164 $165 $39 $-1 $166 reversed single #
loop $-1 $-1 $167 $65 #
plane-surface $-1 0 0 -9.9340361230973127 0 0 1 1 0 0 forward_v I I I I #
coedge $-1 $168 $169 $170 $171 forward $66 $-1 #
face $-1 $172 $173 $40 $-1 $174 reversed single #
loop $-1 $-1 $175 $68 #
plane-surface $-1 -49.739554171529008 -19.137008413105157 0 0 -1 0 0 0 -1 forward_v I I I I #
coedge $-1 $176 $177 $178 $179 reversed $69 $-1 #
face $-1 $180 $181 $41 $-1 $182 reversed single #
loop $-1 $-1 $183 $71 #
plane-surface $-1 9.1189975746810816 -6.9366220904106228 44.868927657786159 0 0.77714596973225614 0.62932038083071107 1 0 0 forward_v I I I I #
coedge $-1 $184 $185 $186 $187 reversed $72 $-1 #
face $-1 $-1 $188 $42 $-1 $189 forward single #
loop $-1 $190 $191 $74 #
cone-surface $-1 3.1018883251152474 21.852545222943498 4.7499306144297382 0 -0.77714596973225614 -0.62932038083071107 0.75 0 0 1 I I -0.70710678118654757 0.70710678118654757 0.75 forward I I I I #
loop $-1 $-1 $192 $55 #
coedge $-1 $120 $120 $193 $194 reversed $75 $-1 #
face $-1 $-1 $195 $43 $-1 $196 forward single #
loop $-1 $197 $198 $77 #
cone-surface $-1 15.13610682424693 21.852545222943498 4.7499306144297382 0 -0.77714596973225614 -0.62932038083071107 0.75 0 0 1 I I -0.70710678118654757 0.70710678118654757 0.75 forward I I I I #
loop $-1 $-1 $199 $56 #
coedge $-1 $125 $125 $200 $201 reversed $78 $-1 #
face $-1 $202 $203 $44 $-1 $204 reversed single #
loop $-1 $-1 $205 $80 #
plane-surface $-1 -9.7558291308448162 -26.819523905868792 6.3116721520889882 0 -0.61566148304635926 0.78801074757464917 1 0 0 forward_v I I I I #
coedge $-1 $206 $207 $208 $209 reversed $81 $-1 #
face $-1 $-1 $210 $45 $-1 $211 forward single #
loop $-1 $212 $213 $83 #
cone-surface $-1 -17.05487000362475 -23.285560505029508 6.5667571672513052 0 0.61566148304635926 -0.78801074757464917 0.5 0 0 1 I I -0.70710678118654746 0.70710678118654746 0.5 forward I I I I #
loop $-1 $-1 $214 $58 #
coedge $-1 $134 $134 $215 $216 reversed $84 $-1 #
face $-1 $-1 $217 $46 $-1 $218 forward single #
loop $-1 $219 $220 $86 #
cone-surface $-1 -9.7558291308448162 -23.285560505029508 6.5667571672513052 0 0.61566148304635926 -0.78801074757464917 0.5 0 0 1 I I -0.70710678118654746 0.70710678118654746 0.5 forward I I I I #
loop $-1 $-1 $221 $59 #
coedge $-1 $139 $139 $222 $223 reversed $87 $-1 #
face $-1 $-1 $224 $47 $-1 $225 forward single #
loop $-1 $226 $227 $89 #
cone-surface $-1 -2.4567882580648828 -23.285560505029508 6.5667571672513052 0 0.61566148304635926 -0.78801074757464917 0.5 0 0 1 I I -0.70710678118654746 0.70710678118654746 0.5 forward I I I I #
loop $-1 $-1 $228 $60 #
coedge $-1 $144 $144 $229 $230 reversed $90 $-1 #
face $-1 $231 $232 $48 $-1 $233 reversed single #
loop $-1 $-1 $234 $92 #
plane-surface $-1 21.63998260607962 -26.819523905868792 6.3116721520889882 0 -0.61566148304635926 0.78801074757464917 1 0 0 forward_v I I I I #
coedge $-1 $235 $236 $237 $238 reversed $93 $-1 #
face $-1 $-1 $239 $49 $-1 $240 forward single #
loop $-1 $241 $242 $95 #
cone-surface $-1 14.34094173329968 -23.285560505029508 6.5667571672513052 0 0.61566148304635926 -0.78801074757464917 0.5 0 0 1 I I -0.70710678118654746 0.70710678118654746 0.5 forward I I I I #
loop $-1 $-1 $243 $62 #
coedge $-1 $153 $153 $244 $245 reversed $96 $-1 #
face $-1 $-1 $246 $50 $-1 $247 forward single #
loop $-1 $248 $249 $98 #
cone-surface $-1 21.63998260607962 -23.285560505029508 6.5667571672513052 0 0.61566148304635926 -0.78801074757464917 0.5 0 0 1 I I -0.70710678118654746 0.70710678118654746 0.5 forward I I I I #
loop $-1 $-1 $250 $63 #
coedge $-1 $158 $158 $251 $252 reversed $99 $-1 #
face $-1 $-1 $253 $51 $-1 $254 forward single #
loop $-1 $255 $256 $101 #
cone-surface $-1 28.939023478859561 -23.285560505029508 6.5667571672513052 0 0.61566148304635926 -0.78801074757464917 0.5 0 0 1 I I -0.70710678118654746 0.70710678118654746 0.5 forward I I I I #
loop $-1 $-1 $257 $64 #
coedge $-1 $163 $163 $258 $259 reversed $102 $-1 #
face $-1 $260 $261 $39 $-1 $262 reversed single #
loop $-1 $-1 $263 $104 #
plane-surface $-1 0 -26.819523905868799 0 0 1 0 0 0 1 forward_v I I I I #
coedge $-1 $264 $265 $266 $267 forward $105 $-1 #
coedge $-1 $268 $107 $269 $270 forward $66 $-1 #
coedge $-1 $107 $268 $271 $272 forward $66 $-1 #
coedge $-1 $273 $274 $107 $171 reversed $275 $-1 #
edge $-1 $276 -26.819523905868799 $277 26.819523905868799 $170 $278 forward 7 unknown #
face $-1 $279 $280 $40 $-1 $281 reversed single #
loop $-1 $-1 $282 $108 #
plane-surface $-1 -43.79747743391161 -20.637008413105157 0 -1 0 0 0 0 1 forward_v I I I I #
coedge $-1 $283 $284 $285 $286 forward $109 $-1 #
coedge $-1 $287 $111 $288 $289 reversed $69 $-1 #
coedge $-1 $111 $287 $290 $291 reversed $69 $-1 #
coedge $-1 $292 $293 $111 $179 forward $294 $-1 #
edge $-1 $295 -9.9340361230973127 $296 9.9340361230973127 $178 $297 forward 7 unknown #
face $-1 $298 $299 $41 $-1 $300 reversed single #
loop $-1 $-1 $301 $112 #
plane-surface $-1 23.158919157001371 79.608888007913663 114.95209799582437 -1 0 0 0 0.77714596973225614 0.62932038083071107 forward_v I I I I #
coedge $-1 $302 $303 $304 $305 reversed $113 $-1 #
coedge $-1 $185 $115 $306 $307 reversed $72 $-1 #
coedge $-1 $115 $184 $302 $308 reversed $72 $-1 #
coedge $-1 $304 $309 $115 $187 forward $310 $-1 #
edge $-1 $311 12.984920098088033 $312 18.451349488792875 $186 $313 forward 7 unknown #
loop $-1 $-1 $193 $116 #
plane-surface $-1 9.1189975746810816 -6.9366220904106228 44.868927657786159 0 0.77714596973225614 0.62932038083071107 1 0 0 forward_v I I I I #
loop $-1 $-1 $314 $74 #
coedge $-1 $191 $191 $192 $315 reversed $117 $-1 #
coedge $-1 $192 $192 $191 $315 forward $119 $-1 #
coedge $-1 $193 $193 $120 $194 forward $188 $-1 #
edge $-1 $316 9.2032570569748882e-016 $316 6.2831853071796013 $193 $317 forward 7 unknown #
loop $-1 $-1 $200 $121 #
plane-surface $-1 9.1189975746810816 -6.9366220904106228 44.868927657786159 0 0.77714596973225614 0.62932038083071107 1 0 0 forward_v I I I I #
loop $-1 $-1 $318 $77 #
coedge $-1 $198 $198 $199 $319 reversed $122 $-1 #
coedge $-1 $199 $199 $198 $319 forward $124 $-1 #
coedge $-1 $200 $200 $125 $201 forward $195 $-1 #
edge $-1 $320 9.2032570569748882e-016 $320 6.2831853071796013 $200 $321 forward 7 unknown #
face $-1 $322 $323 $44 $-1 $324 forward single #
loop $-1 $-1 $325 $126 #
plane-surface $-1 -21.920897252144705 -95.381594833798943 94.067119349873295 1 0 0 0 0.61566148304635926 -0.78801074757464917 forward_v I I I I #
coedge $-1 $326 $327 $328 $329 reversed $127 $-1 #
coedge $-1 $207 $129 $330 $331 reversed $81 $-1 #
coedge $-1 $129 $206 $326 $332 reversed $81 $-1 #
coedge $-1 $328 $333 $129 $209 forward $323 $-1 #
edge $-1 $334 20.871273511030672 $335 25.507687870846663 $208 $336 forward 7 unknown #
loop $-1 $-1 $215 $130 #
plane-surface $-1 -9.7558291308448162 -26.819523905868792 6.3116721520889882 0 -0.61566148304635926 0.78801074757464917 1 0 0 forward_v I I I I #
loop $-1 $-1 $337 $83 #
coedge $-1 $213 $213 $214 $338 reversed $131 $-1 #
coedge $-1 $214 $214 $213 $338 forward $133 $-1 #
coedge $-1 $215 $215 $134 $216 forward $210 $-1 #
edge $-1 $339 -7.4328828269788301e-016 $339 6.2831853071795996 $215 $340 forward 7 unknown #
loop $-1 $-1 $222 $135 #
plane-surface $-1 -9.7558291308448162 -26.819523905868792 6.3116721520889882 0 -0.61566148304635926 0.78801074757464917 1 0 0 forward_v I I I I #
loop $-1 $-1 $341 $86 #
coedge $-1 $220 $220 $221 $342 reversed $136 $-1 #
coedge $-1 $221 $221 $220 $342 forward $138 $-1 #
coedge $-1 $222 $222 $139 $223 forward $217 $-1 #
edge $-1 $343 -7.4328828269788301e-016 $343 6.2831853071795996 $222 $344 forward 7 unknown #
loop $-1 $-1 $229 $140 #
plane-surface $-1 -9.7558291308448162 -26.819523905868792 6.3116721520889882 0 -0.61566148304635926 0.78801074757464917 1 0 0 forward_v I I I I #
loop $-1 $-1 $345 $89 #
coedge $-1 $227 $227 $228 $346 reversed $141 $-1 #
coedge $-1 $228 $228 $227 $346 forward $143 $-1 #
coedge $-1 $229 $229 $144 $230 forward $224 $-1 #
edge $-1 $347 -7.4328828269788301e-016 $347 6.2831853071795996 $229 $348 forward 7 unknown #
face $-1 $349 $350 $48 $-1 $351 reversed single #
loop $-1 $-1 $352 $145 #
plane-surface $-1 9.4749144847797311 -95.381594833798943 94.067119349873295 1 0 0 0 0.61566148304635926 -0.78801074757464917 forward_v I I I I #
coedge $-1 $353 $354 $355 $356 reversed $146 $-1 #
coedge $-1 $236 $148 $357 $358 reversed $93 $-1 #
coedge $-1 $148 $235 $353 $359 reversed $93 $-1 #
coedge $-1 $355 $360 $148 $238 forward $361 $-1 #
edge $-1 $362 20.871273511030672 $363 25.507687870846663 $237 $364 forward 7 unknown #
loop $-1 $-1 $244 $149 #
plane-surface $-1 21.63998260607962 -26.819523905868792 6.3116721520889882 0 -0.61566148304635926 0.78801074757464917 1 0 0 forward_v I I I I #
loop $-1 $-1 $365 $95 #
coedge $-1 $242 $242 $243 $366 reversed $150 $-1 #
coedge $-1 $243 $243 $242 $366 forward $152 $-1 #
coedge $-1 $244 $244 $153 $245 forward $239 $-1 #
edge $-1 $367 -7.4328828269788301e-016 $367 6.2831853071795996 $244 $368 forward 7 unknown #
loop $-1 $-1 $251 $154 #
plane-surface $-1 21.63998260607962 -26.819523905868792 6.3116721520889882 0 -0.61566148304635926 0.78801074757464917 1 0 0 forward_v I I I I #
loop $-1 $-1 $369 $98 #
coedge $-1 $249 $249 $250 $370 reversed $155 $-1 #
coedge $-1 $250 $250 $249 $370 forward $157 $-1 #
coedge $-1 $251 $251 $158 $252 forward $246 $-1 #
edge $-1 $371 -7.4328828269788301e-016 $371 6.2831853071795996 $251 $372 forward 7 unknown #
loop $-1 $-1 $258 $159 #
plane-surface $-1 21.63998260607962 -26.819523905868792 6.3116721520889882 0 -0.61566148304635926 0.78801074757464917 1 0 0 forward_v I I I I #
loop $-1 $-1 $373 $101 #
coedge $-1 $256 $256 $257 $374 reversed $160 $-1 #
coedge $-1 $257 $257 $256 $374 forward $162 $-1 #
coedge $-1 $258 $258 $163 $259 forward $253 $-1 #
edge $-1 $375 -7.4328828269788301e-016 $375 6.2831853071795996 $258 $376 forward 7 unknown #
face $-1 $377 $378 $39 $-1 $379 reversed single #
loop $-1 $-1 $380 $164 #
plane-surface $-1 -55.681630909146399 0 0 1 0 0 0 0 -1 forward_v I I I I #
coedge $-1 $381 $271 $382 $383 forward $165 $-1 #
coedge $-1 $384 $167 $381 $385 forward $105 $-1 #
coedge $-1 $167 $384 $386 $387 forward $105 $-1 #
coedge $-1 $274 $273 $167 $267 reversed $275 $-1 #
edge $-1 $388 -26.819523905868799 $389 26.819523905868799 $266 $390 forward 7 unknown #
coedge $-1 $169 $168 $391 $392 forward $66 $-1 #
coedge $-1 $393 $394 $168 $270 reversed $378 $-1 #
edge $-1 $277 -55.681630909146399 $395 55.681630909146399 $269 $396 forward 7 unknown #
coedge $-1 $263 $397 $169 $272 reversed $165 $-1 #
edge $-1 $398 -55.681630909146399 $276 55.681630909146399 $271 $399 forward 7 unknown #
coedge $-1 $266 $170 $397 $400 forward $275 $-1 #
coedge $-1 $170 $266 $393 $401 reversed $275 $-1 #
loop $-1 $-1 $273 $377 #
vertex $-1 $171 $402 #
vertex $-1 $171 $403 #
straight-curve $-1 55.681630909146399 0 9.9340361230973127 0 1 0 I I #
face $-1 $404 $405 $40 $-1 $406 forward single #
loop $-1 $-1 $407 $172 #
plane-surface $-1 0 0 -9.9340361230973127 0 0 1 1 0 0 forward_v I I I I #
coedge $-1 $408 $409 $287 $410 forward $173 $-1 #
coedge $-1 $411 $175 $407 $412 reversed $109 $-1 #
coedge $-1 $175 $411 $413 $414 reversed $109 $-1 #
coedge $-1 $409 $408 $175 $286 reversed $173 $-1 #
edge $-1 $415 -9.9340361230973127 $416 9.9340361230973127 $285 $417 forward 7 unknown #
coedge $-1 $177 $176 $282 $410 reversed $69 $-1 #
coedge $-1 $418 $419 $176 $289 forward $280 $-1 #
edge $-1 $420 18.927700348147106 $295 30.811853823381902 $288 $421 forward 7 unknown #
coedge $-1 $422 $423 $177 $291 forward $405 $-1 #
edge $-1 $296 -30.811853823381902 $424 -18.927700348147106 $290 $425 forward 7 unknown #
coedge $-1 $426 $178 $423 $427 reversed $294 $-1 #
coedge $-1 $178 $426 $418 $428 reversed $294 $-1 #
loop $-1 $-1 $426 $404 #
vertex $-1 $428 $429 #
vertex $-1 $179 $430 #
straight-curve $-1 -55.681630909146399 -22.137008413105157 0 0 0 1 I I #
face $-1 $-1 $310 $41 $-1 $431 forward single #
loop $-1 $-1 $432 $180 #
plane-surface $-1 0 26.819523905868799 0 0 -1 0 0 0 -1 forward_v I I I I #
coedge $-1 $433 $434 $435 $436 reversed $181 $-1 #
coedge $-1 $437 $183 $185 $308 forward $113 $-1 #
coedge $-1 $183 $437 $433 $438 forward $113 $-1 #
coedge $-1 $435 $186 $183 $305 forward $310 $-1 #
edge $-1 $312 -9.4804227949797486 $439 18.59942036966083 $304 $440 forward 7 unknown #
coedge $-1 $441 $442 $184 $307 forward $299 $-1 #
edge $-1 $443 -54.29249116729369 $311 -47.542012874814873 $306 $444 forward 7 unknown #
edge $-1 $312 44.952805387030033 $443 53.639047811737598 $185 $445 forward 7 unknown #
coedge $-1 $186 $435 $441 $446 forward $310 $-1 #
loop $-1 $-1 $435 $298 #
vertex $-1 $307 $447 #
vertex $-1 $187 $448 #
straight-curve $-1 -4.9209240076392078 39.804444003956831 9.9340361230973144 0 -1 0 I I #
coedge $-1 $314 $314 $-1 $449 reversed $190 $-1 #
edge $-1 $450 0 $450 6.2831853071796004 $191 $451 forward 7 unknown #
vertex $-1 $194 $452 #
ellipse-curve $-1 3.1018883251152474 24.086309210516379 6.558796976857904 0 0.77714596973225614 0.62932038083071107 1.5 0 0 1 I I #
coedge $-1 $318 $318 $-1 $453 reversed $197 $-1 #
edge $-1 $454 0 $454 6.2831853071796004 $198 $455 forward 7 unknown #
vertex $-1 $201 $456 #
ellipse-curve $-1 15.13610682424693 24.086309210516379 6.558796976857904 0 0.77714596973225614 0.62932038083071107 1.5 0 0 1 I I #
face $-1 $-1 $457 $44 $-1 $458 reversed single #
loop $-1 $-1 $208 $202 #
plane-surface $-1 0 0 9.9340361230973127 0 0 1 1 0 0 forward_v I I I I #
coedge $-1 $459 $460 $461 $462 reversed $203 $-1 #
coedge $-1 $463 $205 $207 $332 forward $127 $-1 #
coedge $-1 $205 $463 $459 $464 forward $127 $-1 #
coedge $-1 $461 $208 $205 $329 forward $323 $-1 #
edge $-1 $335 -7.2871535558774809 $465 17.042982686722297 $328 $466 forward 7 unknown #
coedge $-1 $467 $468 $206 $331 forward $457 $-1 #
edge $-1 $469 -40.721887522847666 $334 -37.099523551839333 $330 $470 forward 7 unknown #
edge $-1 $335 -5.8836943202691154 $469 8.8800565823946346e-015 $207 $471 forward 7 unknown #
coedge $-1 $208 $461 $467 $472 forward $323 $-1 #
vertex $-1 $331 $473 #
vertex $-1 $209 $474 #
straight-curve $-1 2.4092389904550728 -47.690797416899471 9.9340361230973144 0 1 0 I I #
coedge $-1 $337 $337 $-1 $475 reversed $212 $-1 #
edge $-1 $476 0 $476 6.2831853071796004 $213 $477 forward 7 unknown #
vertex $-1 $216 $478 #
ellipse-curve $-1 -17.05487000362475 -24.501316725960805 8.122854137593146 0 -0.61566148304635926 0.78801074757464917 1 0 0 1 I I #
coedge $-1 $341 $341 $-1 $479 reversed $219 $-1 #
edge $-1 $480 0 $480 6.2831853071796004 $220 $481 forward 7 unknown #
vertex $-1 $223 $482 #
ellipse-curve $-1 -9.7558291308448162 -24.501316725960805 8.122854137593146 0 -0.61566148304635926 0.78801074757464917 1 0 0 1 I I #
coedge $-1 $345 $345 $-1 $483 reversed $226 $-1 #
edge $-1 $484 0 $484 6.2831853071796004 $227 $485 forward 7 unknown #
vertex $-1 $230 $486 #
ellipse-curve $-1 -2.4567882580648828 -24.501316725960805 8.122854137593146 0 -0.61566148304635926 0.78801074757464917 1 0 0 1 I I #
face $-1 $-1 $361 $48 $-1 $487 forward single #
loop $-1 $-1 $488 $231 #
plane-surface $-1 0 -26.819523905868799 0 0 1 0 0 0 1 forward_v I I I I #
coedge $-1 $489 $490 $491 $492 reversed $232 $-1 #
coedge $-1 $493 $234 $236 $359 forward $146 $-1 #
coedge $-1 $234 $493 $489 $494 forward $146 $-1 #
coedge $-1 $491 $237 $234 $356 forward $361 $-1 #
edge $-1 $363 -22.985059424339699 $495 1.345076818260079 $355 $496 forward 7 unknown #
coedge $-1 $497 $498 $235 $358 forward $350 $-1 #
edge $-1 $499 -40.721887522847666 $362 -37.099523551839333 $357 $500 forward 7 unknown #
edge $-1 $363 -5.8836943202691154 $499 8.8800565823946346e-015 $236 $501 forward 7 unknown #
coedge $-1 $237 $491 $497 $502 forward $361 $-1 #
loop $-1 $-1 $491 $349 #
vertex $-1 $358 $503 #
vertex $-1 $238 $504 #
straight-curve $-1 33.805050727379509 -47.690797416899471 9.9340361230973144 0 1 0 I I #
coedge $-1 $365 $365 $-1 $505 reversed $241 $-1 #
edge $-1 $506 0 $506 6.2831853071796004 $242 $507 forward 7 unknown #
vertex $-1 $245 $508 #
ellipse-curve $-1 14.34094173329968 -24.501316725960805 8.122854137593146 0 -0.61566148304635926 0.78801074757464917 1 0 0 1 I I #
coedge $-1 $369 $369 $-1 $509 reversed $248 $-1 #
edge $-1 $510 0 $510 6.2831853071796004 $249 $511 forward 7 unknown #
vertex $-1 $252 $512 #
ellipse-curve $-1 21.63998260607962 -24.501316725960805 8.122854137593146 0 -0.61566148304635926 0.78801074757464917 1 0 0 1 I I #
coedge $-1 $373 $373 $-1 $513 reversed $255 $-1 #
edge $-1 $514 0 $514 6.2831853071796004 $256 $515 forward 7 unknown #
vertex $-1 $259 $516 #
ellipse-curve $-1 28.939023478859561 -24.501316725960805 8.122854137593146 0 -0.61566148304635926 0.78801074757464917 1 0 0 1 I I #
face $-1 $-1 $275 $39 $-1 $517 reversed single #
loop $-1 $-1 $393 $260 #
plane-surface $-1 0 26.819523905868799 0 0 -1 0 0 0 -1 forward_v I I I I #
coedge $-1 $518 $391 $394 $519 forward $261 $-1 #
coedge $-1 $397 $263 $264 $385 reversed $165 $-1 #
coedge $-1 $391 $518 $263 $383 reversed $261 $-1 #
edge $-1 $398 -9.9340361230973127 $520 9.9340361230973127 $382 $521 forward 7 unknown #
coedge $-1 $265 $264 $518 $522 forward $105 $-1 #
edge $-1 $389 -55.681630909146399 $520 55.681630909146399 $381 $523 forward 7 unknown #
coedge $-1 $394 $393 $265 $387 reversed $378 $-1 #
edge $-1 $524 -55.681630909146399 $388 55.681630909146399 $386 $525 forward 7 unknown #
vertex $-1 $267 $526 #
vertex $-1 $400 $527 #
straight-curve $-1 55.681630909146399 0 -9.9340361230973127 0 -1 0 I I #
coedge $-1 $380 $382 $268 $392 reversed $261 $-1 #
edge $-1 $395 -26.819523905868799 $398 26.819523905868799 $391 $528 forward 7 unknown #
coedge $-1 $386 $269 $274 $401 forward $378 $-1 #
coedge $-1 $269 $386 $380 $519 reversed $378 $-1 #
vertex $-1 $270 $529 #
straight-curve $-1 0 26.819523905868799 9.9340361230973127 -1 0 0 I I #
coedge $-1 $271 $381 $273 $400 reversed $165 $-1 #
vertex $-1 $392 $530 #
straight-curve $-1 0 -26.819523905868799 9.9340361230973127 1 0 0 I I #
edge $-1 $276 -9.9340361230973127 $389 9.9340361230973127 $273 $531 forward 7 unknown #
edge $-1 $277 -9.9340361230973127 $388 9.9340361230973127 $274 $532 forward 7 unknown #
point $-1 55.681630909146399 -26.819523905868799 9.9340361230973127 #
point $-1 55.681630909146399 26.819523905868799 9.9340361230973127 #
face $-1 $-1 $294 $40 $-1 $533 reversed single #
loop $-1 $-1 $413 $279 #
plane-surface $-1 0 0 9.9340361230973127 0 0 1 1 0 0 forward_v I I I I #
coedge $-1 $419 $418 $283 $412 forward $280 $-1 #
coedge $-1 $285 $282 $419 $534 reversed $173 $-1 #
coedge $-1 $282 $285 $422 $535 reversed $173 $-1 #
edge $-1 $424 -9.9340361230973127 $420 9.9340361230973127 $282 $536 forward 7 unknown #
coedge $-1 $284 $283 $426 $537 reversed $109 $-1 #
edge $-1 $538 -30.811853823381902 $416 -18.927700348147106 $407 $539 forward 7 unknown #
coedge $-1 $423 $422 $284 $414 forward $405 $-1 #
edge $-1 $415 18.927700348147106 $540 30.811853823381902 $413 $541 forward 7 unknown #
vertex $-1 $414 $542 #
vertex $-1 $412 $543 #
straight-curve $-1 -43.79747743391161 -19.137008413105157 0 0 0 -1 I I #
coedge $-1 $407 $288 $293 $428 forward $280 $-1 #
coedge $-1 $288 $407 $408 $534 forward $280 $-1 #
vertex $-1 $289 $544 #
straight-curve $-1 -24.869777085764504 -22.137008413105157 -9.9340361230973127 -1 0 0 I I #
coedge $-1 $413 $290 $409 $535 forward $405 $-1 #
coedge $-1 $290 $413 $292 $427 forward $405 $-1 #
vertex $-1 $291 $545 #
straight-curve $-1 -24.869777085764504 -22.137008413105157 9.9340361230973127 1 0 0 I I #
coedge $-1 $293 $292 $411 $537 forward $294 $-1 #
edge $-1 $540 19.137008413105157 $296 22.137008413105157 $292 $546 forward 7 unknown #
edge $-1 $295 -22.137008413105157 $538 -19.137008413105157 $293 $547 forward 7 unknown #
point $-1 -55.681630909146406 -22.137008413105157 -9.9340361230973127 #
point $-1 -55.681630909146406 -22.137008413105157 9.9340361230973127 #
plane-surface $-1 0 0 9.9340361230973127 0 0 1 1 0 0 forward_v I I I I #
coedge $-1 $442 $441 $434 $548 forward $299 $-1 #
coedge $-1 $434 $301 $303 $438 reversed $181 $-1 #
coedge $-1 $301 $433 $432 $548 reversed $181 $-1 #
coedge $-1 $309 $304 $301 $436 forward $310 $-1 #
edge $-1 $439 -18.451349488792875 $549 -12.984920098088033 $435 $550 forward 7 unknown #
coedge $-1 $303 $302 $442 $551 reversed $113 $-1 #
edge $-1 $552 -53.639047811737598 $439 -44.952805387030033 $433 $553 forward 7 unknown #
vertex $-1 $305 $554 #
straight-curve $-1 4.5594987873405408 21.35309451516396 9.9340361230973144 1 0 0 I I #
coedge $-1 $432 $306 $309 $446 reversed $299 $-1 #
coedge $-1 $306 $432 $437 $551 forward $299 $-1 #
vertex $-1 $307 $555 #
straight-curve $-1 -4.9209240076392078 26.819523905868799 57.476048997912187 0 0 1 I I #
straight-curve $-1 -4.9209240076392078 -6.9366220904106228 44.868927657786159 0 0.62932038083071107 -0.77714596973225614 I I #
edge $-1 $549 -23.158919157001371 $311 4.9209240076392078 $441 $556 forward 7 unknown #
point $-1 -4.9209240076392078 26.819523905868799 9.9340361230973127 #
point $-1 -4.9209240076392078 21.353094515163956 9.9340361230973144 #
edge $-1 $557 1 $557 0 $314 $-1 forward 7 unknown #
vertex $-1 $315 $558 #
ellipse-curve $-1 3.1018883251152474 22.435404700242689 5.2219209000527718 0 0.77714596973225614 0.62932038083071107 1.5 0 0 1 I I #
point $-1 4.6018883251152474 24.086309210516379 6.5587969768579022 #
edge $-1 $559 1 $559 0 $318 $-1 forward 7 unknown #
vertex $-1 $319 $560 #
ellipse-curve $-1 15.13610682424693 22.435404700242689 5.2219209000527718 0 0.77714596973225614 0.62932038083071107 1.5 0 0 1 I I #
point $-1 16.63610682424693 24.086309210516379 6.5587969768579022 #
loop $-1 $-1 $330 $322 #
plane-surface $-1 0 -26.819523905868799 0 0 1 0 0 0 1 forward_v I I I I #
coedge $-1 $460 $325 $327 $464 reversed $203 $-1 #
coedge $-1 $325 $459 $561 $562 reversed $203 $-1 #
coedge $-1 $333 $328 $325 $462 forward $323 $-1 #
edge $-1 $465 -25.507687870846663 $563 -20.871273511030672 $461 $564 forward 7 unknown #
coedge $-1 $327 $326 $468 $565 reversed $127 $-1 #
edge $-1 $566 -8.8800565823946346e-015 $465 5.8836943202691154 $459 $567 forward 7 unknown #
vertex $-1 $329 $568 #
straight-curve $-1 -4.8779145654224081 -22.183109546052812 9.9340361230973127 -1 0 0 I I #
coedge $-1 $561 $330 $333 $472 reversed $457 $-1 #
coedge $-1 $330 $561 $463 $565 forward $457 $-1 #
vertex $-1 $331 $569 #
straight-curve $-1 2.4092389904550728 -26.819523905868799 47.033559674936647 0 0 1 I I #
straight-curve $-1 2.4092389904550728 -26.819523905868792 6.3116721520889882 0 -0.78801074757464917 -0.61566148304635926 I I #
edge $-1 $563 -21.920897252144705 $334 2.4092389904550728 $467 $570 forward 7 unknown #
point $-1 2.4092389904550728 -26.819523905868799 9.9340361230973127 #
point $-1 2.4092389904550728 -22.183109546052808 9.9340361230973127 #
edge $-1 $571 1 $571 0 $337 $-1 forward 7 unknown #
vertex $-1 $338 $572 #
ellipse-curve $-1 -17.05487000362475 -23.593391246552688 6.9607625410386298 0 -0.61566148304635926 0.78801074757464917 1 0 0 1 I I #
point $-1 -16.05487000362475 -24.501316725960816 8.1228541375931584 #
edge $-1 $573 1 $573 0 $341 $-1 forward 7 unknown #
vertex $-1 $342 $574 #
ellipse-curve $-1 -9.7558291308448162 -23.593391246552688 6.9607625410386298 0 -0.61566148304635926 0.78801074757464917 1 0 0 1 I I #
point $-1 -8.7558291308448162 -24.501316725960816 8.1228541375931584 #
edge $-1 $575 1 $575 0 $345 $-1 forward 7 unknown #
vertex $-1 $346 $576 #
ellipse-curve $-1 -2.4567882580648828 -23.593391246552688 6.9607625410386298 0 -0.61566148304635926 0.78801074757464917 1 0 0 1 I I #
point $-1 -1.4567882580648828 -24.501316725960816 8.1228541375931584 #
plane-surface $-1 0 0 9.9340361230973127 0 0 1 1 0 0 forward_v I I I I #
coedge $-1 $498 $497 $490 $577 forward $350 $-1 #
coedge $-1 $490 $352 $354 $494 reversed $232 $-1 #
coedge $-1 $352 $489 $488 $577 reversed $232 $-1 #
coedge $-1 $360 $355 $352 $492 forward $361 $-1 #
edge $-1 $495 -25.507687870846663 $578 -20.871273511030672 $491 $579 forward 7 unknown #
coedge $-1 $354 $353 $498 $580 reversed $146 $-1 #
edge $-1 $581 -8.8800565823946346e-015 $495 5.8836943202691154 $489 $582 forward 7 unknown #
vertex $-1 $356 $583 #
straight-curve $-1 10.81999130303981 -22.183109546052812 9.9340361230973127 -1 0 0 I I #
coedge $-1 $488 $357 $360 $502 reversed $350 $-1 #
coedge $-1 $357 $488 $493 $580 forward $350 $-1 #
vertex $-1 $358 $584 #
straight-curve $-1 33.805050727379509 -26.819523905868799 47.033559674936647 0 0 1 I I #
straight-curve $-1 33.805050727379509 -26.819523905868792 6.3116721520889882 0 -0.78801074757464917 -0.61566148304635926 I I #
edge $-1 $578 9.4749144847797311 $362 33.805050727379509 $497 $585 forward 7 unknown #
point $-1 33.805050727379509 -26.819523905868799 9.9340361230973127 #
point $-1 33.805050727379509 -22.183109546052808 9.9340361230973127 #
edge $-1 $586 1 $586 0 $365 $-1 forward 7 unknown #
vertex $-1 $366 $587 #
ellipse-curve $-1 14.34094173329968 -23.593391246552688 6.9607625410386298 0 -0.61566148304635926 0.78801074757464917 1 0 0 1 I I #
point $-1 15.34094173329968 -24.501316725960816 8.1228541375931584 #
edge $-1 $588 1 $588 0 $369 $-1 forward 7 unknown #
vertex $-1 $370 $589 #
ellipse-curve $-1 21.63998260607962 -23.593391246552688 6.9607625410386298 0 -0.61566148304635926 0.78801074757464917 1 0 0 1 I I #
point $-1 22.63998260607962 -24.501316725960816 8.1228541375931584 #
edge $-1 $590 1 $590 0 $373 $-1 forward 7 unknown #
vertex $-1 $374 $591 #
ellipse-curve $-1 28.939023478859561 -23.593391246552688 6.9607625410386298 0 -0.61566148304635926 0.78801074757464917 1 0 0 1 I I #
point $-1 29.939023478859561 -24.501316725960816 8.1228541375931584 #
plane-surface $-1 55.681630909146399 0 0 -1 0 0 0 0 1 forward_v I I I I #
coedge $-1 $382 $380 $384 $522 reversed $261 $-1 #
edge $-1 $395 -9.9340361230973127 $524 9.9340361230973127 $394 $592 forward 7 unknown #
vertex $-1 $522 $593 #
straight-curve $-1 -55.681630909146399 -26.819523905868799 0 0 0 -1 I I #
edge $-1 $520 -26.819523905868799 $524 26.819523905868799 $518 $594 forward 7 unknown #
straight-curve $-1 0 -26.819523905868799 -9.9340361230973127 -1 0 0 I I #
vertex $-1 $387 $595 #
straight-curve $-1 0 26.819523905868799 -9.9340361230973127 1 0 0 I I #
point $-1 55.681630909146399 26.819523905868799 -9.9340361230973127 #
point $-1 55.681630909146399 -26.819523905868799 -9.9340361230973127 #
straight-curve $-1 -55.681630909146399 0 9.9340361230973127 0 -1 0 I I #
point $-1 -55.681630909146399 26.819523905868799 9.9340361230973127 #
point $-1 -55.681630909146399 -26.819523905868799 9.9340361230973127 #
straight-curve $-1 55.681630909146399 -26.819523905868799 0 0 0 -1 I I #
straight-curve $-1 55.681630909146399 26.819523905868799 0 0 0 -1 I I #
plane-surface $-1 -55.681630909146399 0 0 1 0 0 0 0 -1 forward_v I I I I #
edge $-1 $416 8.8185042065525785 $420 11.818504206552578 $419 $596 forward 7 unknown #
edge $-1 $424 -11.818504206552578 $415 -8.8185042065525785 $422 $597 forward 7 unknown #
straight-curve $-1 -43.79747743391161 -22.137008413105157 0 0 0 -1 I I #
edge $-1 $540 -9.9340361230973127 $538 9.9340361230973127 $426 $598 forward 7 unknown #
vertex $-1 $537 $599 #
straight-curve $-1 -24.869777085764504 -19.137008413105157 -9.9340361230973127 1 0 0 I I #
vertex $-1 $427 $600 #
straight-curve $-1 -24.869777085764504 -19.137008413105157 9.9340361230973127 -1 0 0 I I #
point $-1 -43.79747743391161 -19.137008413105157 9.9340361230973127 #
point $-1 -43.79747743391161 -19.137008413105157 -9.9340361230973127 #
point $-1 -43.79747743391161 -22.137008413105157 -9.9340361230973127 #
point $-1 -43.79747743391161 -22.137008413105157 9.9340361230973127 #
straight-curve $-1 -55.681630909146399 0 9.9340361230973127 0 -1 0 I I #
straight-curve $-1 -55.681630909146399 0 -9.9340361230973127 0 1 0 I I #
edge $-1 $549 47.542012874814873 $552 54.29249116729369 $432 $601 forward 7 unknown #
vertex $-1 $446 $602 #
straight-curve $-1 23.158919157001371 39.804444003956831 9.9340361230973144 0 1 0 I I #
edge $-1 $552 -18.59942036966083 $443 9.4804227949797486 $442 $603 forward 7 unknown #
vertex $-1 $551 $604 #
straight-curve $-1 23.158919157001371 -6.9366220904106228 44.868927657786159 0 -0.62932038083071107 0.77714596973225614 I I #
point $-1 23.158919157001371 21.353094515163956 9.9340361230973144 #
point $-1 -4.9209240076392078 26.819523905868799 3.1835578306184971 #
straight-curve $-1 0 26.819523905868799 9.9340361230973127 -1 0 0 I I #
vertex $-1 $449 $605 #
point $-1 4.6018883251152474 22.435404700242689 5.2219209000527718 #
vertex $-1 $453 $606 #
point $-1 16.63610682424693 22.435404700242689 5.2219209000527718 #
coedge $-1 $468 $467 $460 $562 forward $457 $-1 #
edge $-1 $563 37.099523551839333 $566 40.721887522847666 $561 $607 forward 7 unknown #
vertex $-1 $472 $608 #
straight-curve $-1 -21.920897252144705 -47.690797416899471 9.9340361230973144 0 -1 0 I I #
edge $-1 $566 -17.042982686722297 $469 7.2871535558774809 $468 $609 forward 7 unknown #
vertex $-1 $565 $610 #
straight-curve $-1 -21.920897252144705 -26.819523905868792 6.3116721520889882 0 0.78801074757464917 0.61566148304635926 I I #
point $-1 -21.920897252144705 -22.183109546052808 9.9340361230973127 #
point $-1 2.4092389904550728 -26.819523905868799 6.3116721520889829 #
straight-curve $-1 0 -26.819523905868799 9.9340361230973127 1 0 0 I I #
vertex $-1 $475 $611 #
point $-1 -16.05487000362475 -23.593391246552688 6.9607625410386298 #
vertex $-1 $479 $612 #
point $-1 -8.7558291308448162 -23.593391246552688 6.9607625410386298 #
vertex $-1 $483 $613 #
point $-1 -1.4567882580648828 -23.593391246552688 6.9607625410386298 #
edge $-1 $578 37.099523551839333 $581 40.721887522847666 $488 $614 forward 7 unknown #
vertex $-1 $502 $615 #
straight-curve $-1 9.4749144847797311 -47.690797416899471 9.9340361230973144 0 -1 0 I I #
edge $-1 $581 -1.345076818260079 $499 22.985059424339699 $498 $616 forward 7 unknown #
vertex $-1 $580 $617 #
straight-curve $-1 9.4749144847797311 -26.819523905868792 6.3116721520889882 0 0.78801074757464917 0.61566148304635926 I I #
point $-1 9.4749144847797311 -22.183109546052808 9.9340361230973127 #
point $-1 33.805050727379509 -26.819523905868799 6.3116721520889829 #
straight-curve $-1 0 -26.819523905868799 9.9340361230973127 1 0 0 I I #
vertex $-1 $505 $618 #
point $-1 15.34094173329968 -23.593391246552688 6.9607625410386298 #
vertex $-1 $509 $619 #
point $-1 22.63998260607962 -23.593391246552688 6.9607625410386298 #
vertex $-1 $513 $620 #
point $-1 29.939023478859561 -23.593391246552688 6.9607625410386298 #
straight-curve $-1 -55.681630909146399 26.819523905868799 0 0 0 -1 I I #
point $-1 -55.681630909146399 -26.819523905868799 -9.9340361230973127 #
straight-curve $-1 -55.681630909146399 0 -9.9340361230973127 0 1 0 I I #
point $-1 -55.681630909146399 26.819523905868799 -9.9340361230973127 #
straight-curve $-1 -43.79747743391161 -10.318504206552578 -9.9340361230973127 0 -1 0 I I #
straight-curve $-1 -43.79747743391161 -10.318504206552578 9.9340361230973127 0 1 0 I I #
straight-curve $-1 -55.681630909146399 -19.137008413105157 0 0 0 -1 I I #
point $-1 -55.681630909146406 -19.137008413105157 -9.9340361230973127 #
point $-1 -55.681630909146406 -19.137008413105157 9.9340361230973127 #
straight-curve $-1 23.158919157001371 26.819523905868799 57.476048997912187 0 0 -1 I I #
point $-1 23.158919157001371 26.819523905868799 9.9340361230973127 #
straight-curve $-1 4.5594987873405408 26.819523905868799 3.1835578306184971 -1 0 0 I I #
point $-1 23.158919157001371 26.819523905868799 3.1835578306184971 #
point $-1 3.1018883251152474 21.269685745644306 4.2779403288067046 #
point $-1 15.13610682424693 21.269685745644306 4.2779403288067046 #
straight-curve $-1 -21.920897252144705 -26.819523905868799 47.033559674936647 0 0 -1 I I #
point $-1 -21.920897252144705 -26.819523905868799 9.9340361230973127 #
straight-curve $-1 -4.8779145654224081 -26.819523905868799 6.311672152088982 1 0 0 I I #
point $-1 -21.920897252144705 -26.819523905868799 6.3116721520889829 #
point $-1 -17.05487000362475 -22.977729763506328 6.1727517934639806 #
point $-1 -9.7558291308448162 -22.977729763506328 6.1727517934639806 #
point $-1 -2.4567882580648828 -22.977729763506328 6.1727517934639806 #
straight-curve $-1 9.4749144847797311 -26.819523905868799 47.033559674936647 0 0 -1 I I #
point $-1 9.4749144847797311 -26.819523905868799 9.9340361230973127 #
straight-curve $-1 10.81999130303981 -26.819523905868799 6.311672152088982 1 0 0 I I #
point $-1 9.4749144847797311 -26.819523905868799 6.3116721520889829 #
point $-1 14.34094173329968 -22.977729763506328 6.1727517934639806 #
point $-1 21.63998260607962 -22.977729763506328 6.1727517934639806 #
point $-1 28.939023478859561 -22.977729763506328 6.1727517934639806 #
End-of-ACIS-data 