500 0 6 0           
7 Unknown 11 ACIS 5.0 NT 24 Fri Mar 26 18:00:52 1999 
-1 9.9999999999999995e-007 1e-010 
body $-1 $6 $-1 $7 #
body $-1 $8 $-1 $9 #
body $-1 $10 $-1 $11 #
body $-1 $12 $-1 $13 #
body $-1 $14 $-1 $15 #
body $-1 $16 $-1 $17 #
lump $-1 $-1 $18 $0 #
transform $-1 1 0 0 0 1 0 0 0 1 69.433271279030734 38.456882446809807 11.229217196404518 1 rotate no_reflect no_shear #
lump $-1 $-1 $19 $1 #
transform $-1 1 0 0 0 1 0 0 0 1 69.433271279030734 38.456882446809807 11.229217196404518 1 rotate no_reflect no_shear #
lump $-1 $-1 $20 $2 #
transform $-1 1 0 0 0 1 0 0 0 1 69.433271279030734 38.456882446809807 11.229217196404518 1 rotate no_reflect no_shear #
lump $-1 $-1 $21 $3 #
transform $-1 1 0 0 0 1 0 0 0 1 69.433271279030734 38.456882446809807 11.229217196404518 1 rotate no_reflect no_shear #
lump $-1 $-1 $22 $4 #
transform $-1 1 0 0 0 1 0 0 0 1 69.433271279030734 38.456882446809807 11.229217196404518 1 rotate no_reflect no_shear #
lump $-1 $-1 $23 $5 #
transform $-1 1 0 0 0 1 0 0 0 1 69.433271279030734 38.456882446809807 11.229217196404518 1 rotate no_reflect no_shear #
shell $-1 $-1 $-1 $24 $-1 $6 #
shell $-1 $-1 $-1 $25 $-1 $8 #
shell $-1 $-1 $-1 $26 $-1 $10 #
shell $-1 $-1 $-1 $27 $-1 $12 #
shell $-1 $-1 $-1 $28 $-1 $14 #
shell $-1 $-1 $-1 $29 $-1 $16 #
face $-1 $30 $31 $18 $-1 $32 forward single #
face $-1 $33 $34 $19 $-1 $35 reversed single #
face $-1 $36 $37 $20 $-1 $38 reversed single #
face $-1 $39 $40 $21 $-1 $41 reversed single #
face $-1 $42 $43 $22 $-1 $44 forward single #
face $-1 $45 $46 $23 $-1 $47 forward single #
face $-1 $48 $49 $18 $-1 $50 reversed single #
loop $-1 $-1 $51 $24 #
plane-surface $-1 0 0 11.229217196404518 0 0 1 1 0 0 forward_v I I I I #
face $-1 $52 $53 $19 $-1 $54 reversed single #
loop $-1 $-1 $55 $25 #
plane-surface $-1 0 -31.494908291617286 7.5034625189585942 0 0 1 1 0 0 forward_v I I I I #
face $-1 $56 $57 $20 $-1 $58 reversed single #
loop $-1 $-1 $59 $26 #
plane-surface $-1 0 31.494908291617286 7.5034625189585942 0 0 1 1 0 0 forward_v I I I I #
face $-1 $60 $61 $21 $-1 $62 reversed single #
loop $-1 $-1 $63 $27 #
plane-surface $-1 -27.031533700866802 20.855540712963311 103.55842412229086 0.71933980857756763 0 0.69465836192734942 0.69465836192734942 0 -0.71933980857756763 forward_v I I I I #
face $-1 $64 $65 $22 $-1 $66 forward single #
loop $-1 $67 $68 $28 #
cone-surface $-1 65.382985546126875 19.279514960051252 7.0628568176882851 -0.71933980857756763 0 -0.69465836192734942 0.34732918096367471 0 -0.35966990428878381 1 I I 0 1 0.5 forward I I I I #
face $-1 $69 $70 $23 $-1 $71 forward single #
loop $-1 $72 $73 $29 #
cone-surface $-1 65.382985546126875 22.431566465875356 7.0628568176882851 -0.71933980857756763 0 -0.69465836192734942 0.34732918096367471 0 -0.35966990428878381 1 I I 0 1 0.5 forward I I I I #
face $-1 $74 $75 $18 $-1 $76 reversed single #
loop $-1 $-1 $77 $30 #
plane-surface $-1 0 0 -11.229217196404518 0 0 1 1 0 0 forward_v I I I I #
coedge $-1 $78 $79 $80 $81 forward $31 $-1 #
face $-1 $82 $83 $19 $-1 $84 reversed single #
loop $-1 $-1 $85 $33 #
plane-surface $-1 0 -24.532934136424764 9.3663398576815577 0 -1 0 0 0 -1 forward_v I I I I #
coedge $-1 $86 $87 $88 $89 reversed $34 $-1 #
face $-1 $90 $91 $20 $-1 $92 forward single #
loop $-1 $-1 $93 $36 #
plane-surface $-1 0 24.532934136424764 9.3663398576815577 0 1 0 0 0 1 forward_v I I I I #
coedge $-1 $94 $95 $96 $97 reversed $37 $-1 #
face $-1 $98 $99 $21 $-1 $100 forward single #
loop $-1 $-1 $101 $39 #
plane-surface $-1 72.86069844067778 17.178147289501855 200.0232291021884 0 1 0 0.71933980857756763 0 0.69465836192734942 forward_v I I I I #
coedge $-1 $102 $103 $104 $105 reversed $40 $-1 #
face $-1 $-1 $106 $22 $-1 $107 forward single #
loop $-1 $108 $109 $42 #
cone-surface $-1 64.804629051575162 19.279514960051252 6.5043444563193464 -0.71933980857756763 0 -0.69465836192734942 0.17366459048183736 0 -0.17983495214439191 1 I I -0.70710678118654746 0.70710678118654746 0.25 forward I I I I #
loop $-1 $-1 $110 $28 #
coedge $-1 $68 $68 $111 $112 reversed $43 $-1 #
face $-1 $-1 $113 $23 $-1 $114 forward single #
loop $-1 $115 $116 $45 #
cone-surface $-1 64.804629051575162 22.431566465875356 6.5043444563193464 -0.71933980857756763 0 -0.69465836192734942 0.17366459048183736 0 -0.17983495214439191 1 I I -0.70710678118654746 0.70710678118654746 0.25 forward I I I I #
loop $-1 $-1 $117 $29 #
coedge $-1 $73 $73 $118 $119 reversed $46 $-1 #
face $-1 $120 $121 $18 $-1 $122 reversed single #
loop $-1 $-1 $123 $48 #
plane-surface $-1 0 -38.456882446809807 0 0 1 0 0 0 1 forward_v I I I I #
coedge $-1 $124 $125 $126 $127 forward $49 $-1 #
coedge $-1 $128 $51 $129 $130 forward $31 $-1 #
coedge $-1 $51 $128 $131 $132 forward $31 $-1 #
coedge $-1 $133 $134 $51 $81 reversed $135 $-1 #
edge $-1 $136 -38.456882446809807 $137 38.456882446809807 $80 $138 forward 7 unknown #
face $-1 $139 $140 $19 $-1 $141 reversed single #
loop $-1 $-1 $142 $52 #
plane-surface $-1 -69.433271279030734 0 0 1 0 0 0 0 -1 forward_v I I I I #
coedge $-1 $143 $144 $145 $146 reversed $53 $-1 #
coedge $-1 $147 $55 $148 $149 reversed $34 $-1 #
coedge $-1 $55 $147 $143 $150 forward $34 $-1 #
coedge $-1 $145 $151 $55 $89 forward $152 $-1 #
edge $-1 $153 -22.709428301001164 $154 -8.7854799906161212 $88 $155 forward 7 unknown #
face $-1 $156 $157 $20 $-1 $158 reversed single #
loop $-1 $-1 $159 $56 #
plane-surface $-1 0 0 11.229217196404518 0 0 1 1 0 0 forward_v I I I I #
coedge $-1 $160 $161 $162 $163 reversed $57 $-1 #
coedge $-1 $164 $59 $160 $165 forward $37 $-1 #
coedge $-1 $59 $164 $166 $167 reversed $37 $-1 #
coedge $-1 $168 $169 $59 $97 forward $157 $-1 #
edge $-1 $170 8.7854799906161212 $171 22.709428301001164 $96 $172 forward 7 unknown #
face $-1 $173 $174 $21 $-1 $175 reversed single #
loop $-1 $-1 $104 $60 #
plane-surface $-1 0 0 11.229217196404518 0 0 1 1 0 0 forward_v I I I I #
coedge $-1 $176 $177 $178 $179 reversed $61 $-1 #
coedge $-1 $180 $63 $181 $182 reversed $40 $-1 #
coedge $-1 $63 $180 $176 $183 forward $40 $-1 #
coedge $-1 $178 $184 $63 $105 forward $99 $-1 #
edge $-1 $185 -14.105163779943108 $186 -6.750376933020199 $104 $187 forward 7 unknown #
loop $-1 $-1 $111 $64 #
plane-surface $-1 -27.031533700866802 20.855540712963311 103.55842412229086 0.71933980857756763 0 0.69465836192734942 0.69465836192734942 0 -0.71933980857756763 forward_v I I I I #
loop $-1 $-1 $188 $42 #
coedge $-1 $109 $109 $110 $189 reversed $65 $-1 #
coedge $-1 $110 $110 $109 $189 forward $67 $-1 #
coedge $-1 $111 $111 $68 $112 forward $106 $-1 #
edge $-1 $190 0 $190 6.2831853071796004 $111 $191 forward 7 unknown #
loop $-1 $-1 $118 $69 #
plane-surface $-1 -27.031533700866802 20.855540712963311 103.55842412229086 0.71933980857756763 0 0.69465836192734942 0.69465836192734942 0 -0.71933980857756763 forward_v I I I I #
loop $-1 $-1 $192 $45 #
coedge $-1 $116 $116 $117 $193 reversed $70 $-1 #
coedge $-1 $117 $117 $116 $193 forward $72 $-1 #
coedge $-1 $118 $118 $73 $119 forward $113 $-1 #
edge $-1 $194 0 $194 6.2831853071796004 $118 $195 forward 7 unknown #
face $-1 $196 $197 $18 $-1 $198 reversed single #
loop $-1 $-1 $199 $74 #
plane-surface $-1 -69.433271279030734 0 0 1 0 0 0 0 -1 forward_v I I I I #
coedge $-1 $200 $131 $201 $202 forward $75 $-1 #
coedge $-1 $203 $77 $200 $204 forward $49 $-1 #
coedge $-1 $77 $203 $205 $206 forward $49 $-1 #
coedge $-1 $134 $133 $77 $127 reversed $135 $-1 #
edge $-1 $207 -38.456882446809807 $208 38.456882446809807 $126 $209 forward 7 unknown #
coedge $-1 $79 $78 $210 $211 forward $31 $-1 #
coedge $-1 $212 $213 $78 $130 reversed $197 $-1 #
edge $-1 $137 -69.433271279030734 $214 69.433271279030734 $129 $215 forward 7 unknown #
coedge $-1 $123 $216 $79 $132 reversed $75 $-1 #
edge $-1 $217 -69.433271279030734 $136 69.433271279030734 $131 $218 forward 7 unknown #
coedge $-1 $126 $80 $216 $219 forward $135 $-1 #
coedge $-1 $80 $126 $212 $220 reversed $135 $-1 #
loop $-1 $-1 $133 $196 #
vertex $-1 $81 $221 #
vertex $-1 $81 $222 #
straight-curve $-1 69.433271279030734 0 11.229217196404518 0 1 0 I I #
face $-1 $223 $224 $19 $-1 $225 forward single #
loop $-1 $-1 $148 $82 #
plane-surface $-1 0 -38.456882446809807 0 0 1 0 0 0 1 forward_v I I I I #
coedge $-1 $226 $227 $228 $229 forward $83 $-1 #
coedge $-1 $228 $85 $87 $150 reversed $53 $-1 #
coedge $-1 $85 $228 $230 $231 reversed $53 $-1 #
coedge $-1 $232 $88 $85 $146 forward $152 $-1 #
edge $-1 $154 2.8202925901178153 $233 6.5460472675637424 $145 $234 forward 7 unknown #
coedge $-1 $87 $86 $226 $235 reversed $34 $-1 #
coedge $-1 $236 $237 $86 $149 forward $140 $-1 #
edge $-1 $238 -69.433271279030734 $153 69.433271279030734 $148 $239 forward 7 unknown #
edge $-1 $240 -69.433271279030734 $154 69.433271279030734 $143 $241 forward 7 unknown #
coedge $-1 $88 $232 $236 $242 forward $152 $-1 #
loop $-1 $-1 $145 $223 #
vertex $-1 $149 $243 #
vertex $-1 $89 $244 #
straight-curve $-1 69.433271279030734 -15.747454145808643 7.5034625189585942 0 1 0 I I #
face $-1 $245 $246 $20 $-1 $247 reversed single #
loop $-1 $-1 $169 $90 #
plane-surface $-1 69.433271279030734 0 0 -1 0 0 0 0 1 forward_v I I I I #
coedge $-1 $248 $249 $161 $250 forward $91 $-1 #
coedge $-1 $251 $93 $94 $165 reversed $57 $-1 #
coedge $-1 $93 $251 $159 $250 reversed $57 $-1 #
coedge $-1 $252 $253 $93 $163 forward $246 $-1 #
edge $-1 $254 2.8202925901178153 $255 6.5460472675637424 $162 $256 forward 7 unknown #
coedge $-1 $95 $94 $253 $257 reversed $37 $-1 #
edge $-1 $170 -69.433271279030734 $254 69.433271279030734 $160 $258 forward 7 unknown #
coedge $-1 $259 $260 $95 $167 forward $261 $-1 #
edge $-1 $171 -69.433271279030734 $262 69.433271279030734 $166 $263 forward 7 unknown #
coedge $-1 $264 $96 $260 $265 reversed $157 $-1 #
coedge $-1 $96 $264 $251 $266 forward $157 $-1 #
vertex $-1 $97 $267 #
vertex $-1 $167 $268 #
straight-curve $-1 69.433271279030734 15.747454145808643 7.5034625189585942 0 1 0 I I #
face $-1 $-1 $269 $21 $-1 $270 forward single #
loop $-1 $-1 $271 $98 #
plane-surface $-1 69.433271279030734 0 0 -1 0 0 0 0 1 forward_v I I I I #
coedge $-1 $177 $101 $103 $183 reversed $61 $-1 #
coedge $-1 $101 $176 $271 $272 reversed $61 $-1 #
coedge $-1 $273 $104 $101 $179 forward $99 $-1 #
edge $-1 $186 25.699393677698758 $274 33.002922058691844 $178 $275 forward 7 unknown #
coedge $-1 $103 $102 $276 $277 reversed $40 $-1 #
coedge $-1 $278 $279 $102 $182 forward $269 $-1 #
edge $-1 $280 -95.59964416533434 $185 -85.085801993004878 $181 $281 forward 7 unknown #
edge $-1 $282 -138.8665425580615 $186 -128.35270038573199 $176 $283 forward 7 unknown #
coedge $-1 $104 $273 $278 $284 forward $99 $-1 #
vertex $-1 $182 $285 #
vertex $-1 $105 $286 #
straight-curve $-1 62.129742898037641 10.427770356481656 11.229217196404534 0 -1 0 I I #
coedge $-1 $188 $188 $-1 $287 reversed $108 $-1 #
edge $-1 $288 0 $288 6.2831853071796004 $109 $289 forward 7 unknown #
vertex $-1 $112 $290 #
ellipse-curve $-1 65.781507088534198 19.279514960051252 7.447704588575391 0.71933980857756763 0 0.69465836192734942 0.34732918096367471 0 -0.35966990428878381 1 I I #
coedge $-1 $192 $192 $-1 $291 reversed $115 $-1 #
edge $-1 $292 0 $292 6.2831853071796004 $116 $293 forward 7 unknown #
vertex $-1 $119 $294 #
ellipse-curve $-1 65.781507088534198 22.431566465875356 7.447704588575391 0.71933980857756763 0 0.69465836192734942 0.34732918096367471 0 -0.35966990428878381 1 I I #
face $-1 $-1 $135 $18 $-1 $295 reversed single #
loop $-1 $-1 $212 $120 #
plane-surface $-1 0 38.456882446809807 0 0 -1 0 0 0 -1 forward_v I I I I #
coedge $-1 $296 $210 $213 $297 forward $121 $-1 #
coedge $-1 $216 $123 $124 $204 reversed $75 $-1 #
coedge $-1 $210 $296 $123 $202 reversed $121 $-1 #
edge $-1 $217 -11.229217196404518 $298 11.229217196404518 $201 $299 forward 7 unknown #
coedge $-1 $125 $124 $296 $300 forward $49 $-1 #
edge $-1 $208 -69.433271279030734 $298 69.433271279030734 $200 $301 forward 7 unknown #
coedge $-1 $213 $212 $125 $206 reversed $197 $-1 #
edge $-1 $302 -69.433271279030734 $207 69.433271279030734 $205 $303 forward 7 unknown #
vertex $-1 $127 $304 #
vertex $-1 $219 $305 #
straight-curve $-1 69.433271279030734 0 -11.229217196404518 0 -1 0 I I #
coedge $-1 $199 $201 $128 $211 reversed $121 $-1 #
edge $-1 $214 -38.456882446809807 $217 38.456882446809807 $210 $306 forward 7 unknown #
coedge $-1 $205 $129 $134 $220 forward $197 $-1 #
coedge $-1 $129 $205 $199 $297 reversed $197 $-1 #
vertex $-1 $130 $307 #
straight-curve $-1 0 38.456882446809807 11.229217196404518 -1 0 0 I I #
coedge $-1 $131 $200 $133 $219 reversed $75 $-1 #
vertex $-1 $211 $308 #
straight-curve $-1 0 -38.456882446809807 11.229217196404518 1 0 0 I I #
edge $-1 $136 -11.229217196404518 $208 11.229217196404518 $133 $309 forward 7 unknown #
edge $-1 $137 -11.229217196404518 $207 11.229217196404518 $134 $310 forward 7 unknown #
point $-1 69.433271279030734 -38.456882446809807 11.229217196404518 #
point $-1 69.433271279030734 38.456882446809807 11.229217196404518 #
face $-1 $-1 $152 $19 $-1 $311 reversed single #
loop $-1 $-1 $230 $139 #
plane-surface $-1 0 0 11.229217196404518 0 0 1 1 0 0 forward_v I I I I #
coedge $-1 $312 $142 $147 $235 forward $83 $-1 #
coedge $-1 $142 $312 $313 $314 reversed $83 $-1 #
coedge $-1 $144 $143 $142 $229 reversed $53 $-1 #
edge $-1 $315 -6.5460472675637424 $240 -2.8202925901178153 $142 $316 forward 7 unknown #
coedge $-1 $313 $317 $144 $231 forward $224 $-1 #
edge $-1 $233 -69.433271279030734 $315 69.433271279030734 $230 $318 forward 7 unknown #
coedge $-1 $151 $145 $317 $319 reversed $152 $-1 #
vertex $-1 $146 $320 #
straight-curve $-1 69.433271279030734 -24.532934136424764 4.6831699288407789 0 0 1 I I #
edge $-1 $240 8.7854799906161212 $238 22.709428301001164 $226 $321 forward 7 unknown #
coedge $-1 $322 $148 $151 $242 reversed $140 $-1 #
coedge $-1 $148 $322 $312 $323 forward $140 $-1 #
vertex $-1 $149 $324 #
straight-curve $-1 0 -38.456882446809807 7.5034625189585942 1 0 0 I I #
vertex $-1 $235 $325 #
straight-curve $-1 0 -24.532934136424764 7.5034625189585942 1 0 0 I I #
edge $-1 $326 -11.229217196404518 $153 -7.5034625189585942 $151 $327 forward 7 unknown #
point $-1 69.433271279030734 -38.456882446809807 7.5034625189585942 #
point $-1 69.433271279030734 -24.532934136424764 7.5034625189585942 #
face $-1 $-1 $261 $20 $-1 $328 reversed single #
loop $-1 $-1 $162 $156 #
plane-surface $-1 -69.433271279030734 0 0 1 0 0 0 0 -1 forward_v I I I I #
coedge $-1 $329 $159 $264 $330 forward $91 $-1 #
coedge $-1 $159 $329 $252 $331 forward $91 $-1 #
edge $-1 $255 -69.433271279030734 $332 69.433271279030734 $159 $333 forward 7 unknown #
coedge $-1 $161 $160 $169 $266 reversed $57 $-1 #
coedge $-1 $334 $162 $249 $331 reversed $246 $-1 #
coedge $-1 $162 $334 $164 $257 forward $246 $-1 #
vertex $-1 $257 $335 #
vertex $-1 $163 $336 #
straight-curve $-1 -69.433271279030734 24.532934136424764 4.6831699288407789 0 0 1 I I #
edge $-1 $262 -22.709428301001164 $254 -8.7854799906161212 $253 $337 forward 7 unknown #
straight-curve $-1 0 24.532934136424764 7.5034625189585942 -1 0 0 I I #
coedge $-1 $338 $166 $334 $339 reversed $261 $-1 #
coedge $-1 $166 $338 $168 $265 forward $261 $-1 #
loop $-1 $-1 $166 $245 #
vertex $-1 $167 $340 #
straight-curve $-1 0 38.456882446809807 7.5034625189585942 -1 0 0 I I #
coedge $-1 $169 $168 $248 $330 reversed $157 $-1 #
edge $-1 $341 -11.229217196404518 $171 -7.5034625189585942 $168 $342 forward 7 unknown #
edge $-1 $332 -6.5460472675637424 $170 -2.8202925901178153 $169 $343 forward 7 unknown #
point $-1 69.433271279030734 24.532934136424764 7.5034625189585942 #
point $-1 69.433271279030734 38.456882446809807 7.5034625189585942 #
loop $-1 $-1 $181 $173 #
plane-surface $-1 0 24.532934136424764 9.3663398576815577 0 1 0 0 0 1 forward_v I I I I #
coedge $-1 $276 $344 $177 $272 forward $174 $-1 #
edge $-1 $274 88.782397354689678 $282 96.345422570347921 $271 $345 forward 7 unknown #
coedge $-1 $184 $178 $344 $346 forward $99 $-1 #
vertex $-1 $346 $347 #
straight-curve $-1 36.43034922033889 17.178147289501855 11.22921719640452 1 0 0 I I #
coedge $-1 $348 $271 $180 $277 forward $174 $-1 #
edge $-1 $282 6.750376933020199 $280 14.105163779943112 $276 $349 forward 7 unknown #
coedge $-1 $279 $181 $184 $284 reversed $269 $-1 #
coedge $-1 $181 $278 $348 $350 reversed $269 $-1 #
vertex $-1 $350 $351 #
straight-curve $-1 3.0241790623020925 24.532934136424764 72.434821714721465 -0.69465836192734942 0 0.71933980857756763 I I #
vertex $-1 $277 $352 #
straight-curve $-1 -27.031533700866802 17.178147289501855 103.55842412229086 -0.69465836192734942 0 0.71933980857756763 I I #
edge $-1 $353 -69.433271279030734 $185 -62.129742898037655 $184 $354 forward 7 unknown #
point $-1 62.129742898037655 24.532934136424764 11.229217196404518 #
point $-1 62.129742898037648 17.178147289501855 11.22921719640452 #
edge $-1 $355 1 $355 0 $188 $-1 forward 7 unknown #
vertex $-1 $189 $356 #
ellipse-curve $-1 64.984464003719552 19.279514960051252 6.6780090468011837 0.71933980857756763 0 0.69465836192734942 0.34732918096367471 0 -0.35966990428878381 1 I I #
point $-1 66.128836269497867 19.279514960051252 7.0880346842866029 #
edge $-1 $357 1 $357 0 $192 $-1 forward 7 unknown #
vertex $-1 $193 $358 #
ellipse-curve $-1 64.984464003719552 22.431566465875356 6.6780090468011837 0.71933980857756763 0 0.69465836192734942 0.34732918096367471 0 -0.35966990428878381 1 I I #
point $-1 66.128836269497867 22.431566465875356 7.0880346842866029 #
plane-surface $-1 69.433271279030734 0 0 -1 0 0 0 0 1 forward_v I I I I #
coedge $-1 $201 $199 $203 $300 reversed $121 $-1 #
edge $-1 $214 -11.229217196404518 $302 11.229217196404518 $213 $359 forward 7 unknown #
vertex $-1 $300 $360 #
straight-curve $-1 -69.433271279030734 -38.456882446809807 0 0 0 -1 I I #
edge $-1 $298 -38.456882446809807 $302 38.456882446809807 $296 $361 forward 7 unknown #
straight-curve $-1 0 -38.456882446809807 -11.229217196404518 -1 0 0 I I #
vertex $-1 $206 $362 #
straight-curve $-1 0 38.456882446809807 -11.229217196404518 1 0 0 I I #
point $-1 69.433271279030734 38.456882446809807 -11.229217196404518 #
point $-1 69.433271279030734 -38.456882446809807 -11.229217196404518 #
straight-curve $-1 -69.433271279030734 0 11.229217196404518 0 -1 0 I I #
point $-1 -69.433271279030734 38.456882446809807 11.229217196404518 #
point $-1 -69.433271279030734 -38.456882446809807 11.229217196404518 #
straight-curve $-1 69.433271279030734 -38.456882446809807 0 0 0 -1 I I #
straight-curve $-1 69.433271279030734 38.456882446809807 0 0 0 -1 I I #
plane-surface $-1 69.433271279030734 0 0 -1 0 0 0 0 1 forward_v I I I I #
coedge $-1 $227 $226 $237 $323 reversed $83 $-1 #
coedge $-1 $363 $230 $227 $314 forward $224 $-1 #
edge $-1 $315 24.532934136424764 $364 38.456882446809807 $227 $365 forward 7 unknown #
vertex $-1 $314 $366 #
straight-curve $-1 -69.433271279030734 -24.532934136424764 4.6831699288407789 0 0 -1 I I #
coedge $-1 $230 $363 $232 $319 forward $224 $-1 #
straight-curve $-1 0 -24.532934136424764 11.229217196404518 -1 0 0 I I #
edge $-1 $326 -38.456882446809807 $233 -24.532934136424764 $232 $367 forward 7 unknown #
point $-1 69.433271279030734 -24.532934136424764 11.229217196404521 #
straight-curve $-1 -69.433271279030734 -15.747454145808643 7.5034625189585942 0 -1 0 I I #
coedge $-1 $237 $236 $363 $368 reversed $140 $-1 #
edge $-1 $364 -11.229217196404518 $238 -7.5034625189585942 $312 $369 forward 7 unknown #
point $-1 -69.433271279030734 -38.456882446809807 7.5034625189585942 #
point $-1 -69.433271279030734 -24.532934136424764 7.5034625189585942 #
vertex $-1 $319 $370 #
straight-curve $-1 69.433271279030734 -38.456882446809807 0 0 0 -1 I I #
plane-surface $-1 0 38.456882446809807 0 0 -1 0 0 0 -1 forward_v I I I I #
coedge $-1 $249 $248 $338 $371 forward $91 $-1 #
edge $-1 $332 24.532934136424764 $341 38.456882446809807 $264 $372 forward 7 unknown #
edge $-1 $373 -38.456882446809807 $255 -24.532934136424764 $252 $374 forward 7 unknown #
vertex $-1 $330 $375 #
straight-curve $-1 0 24.532934136424764 11.229217196404518 1 0 0 I I #
coedge $-1 $253 $252 $259 $339 forward $246 $-1 #
point $-1 -69.433271279030734 24.532934136424764 7.5034625189585942 #
point $-1 -69.433271279030734 24.532934136424764 11.229217196404521 #
straight-curve $-1 -69.433271279030734 15.747454145808643 7.5034625189585942 0 -1 0 I I #
coedge $-1 $260 $259 $329 $371 reversed $261 $-1 #
edge $-1 $373 -11.229217196404518 $262 -7.5034625189585942 $259 $376 forward 7 unknown #
point $-1 -69.433271279030734 38.456882446809807 7.5034625189585942 #
vertex $-1 $330 $377 #
straight-curve $-1 69.433271279030734 38.456882446809807 0 0 0 -1 I I #
straight-curve $-1 69.433271279030734 24.532934136424764 4.6831699288407789 0 0 -1 I I #
coedge $-1 $271 $348 $273 $346 reversed $174 $-1 #
straight-curve $-1 69.433271279030734 17.178147289501855 100.0116145510942 0 0 -1 I I #
edge $-1 $274 17.178147289501855 $353 24.532934136424764 $344 $378 forward 7 unknown #
point $-1 69.433271279030734 17.178147289501855 11.229217196404518 #
coedge $-1 $344 $276 $279 $350 forward $174 $-1 #
straight-curve $-1 69.433271279030734 10.427770356481656 3.6661919807462624 0 1 0 I I #
edge $-1 $280 -96.345422570347921 $353 -88.782397354689678 $348 $379 forward 7 unknown #
point $-1 69.433271279030734 24.532934136424768 3.6661919807462766 #
point $-1 69.433271279030734 17.178147289501855 3.6661919807462766 #
vertex $-1 $284 $380 #
straight-curve $-1 0 24.532934136424764 11.229217196404518 -1 0 0 I I #
vertex $-1 $287 $381 #
point $-1 65.331793184683235 19.279514960051252 6.3183391425124 #
vertex $-1 $291 $382 #
point $-1 65.331793184683235 22.431566465875356 6.3183391425124 #
straight-curve $-1 -69.433271279030734 38.456882446809807 0 0 0 -1 I I #
point $-1 -69.433271279030734 -38.456882446809807 -11.229217196404518 #
straight-curve $-1 -69.433271279030734 0 -11.229217196404518 0 1 0 I I #
point $-1 -69.433271279030734 38.456882446809807 -11.229217196404518 #
coedge $-1 $317 $313 $322 $368 forward $224 $-1 #
vertex $-1 $314 $383 #
straight-curve $-1 -69.433271279030734 0 11.229217196404518 0 -1 0 I I #
point $-1 -69.433271279030734 -24.532934136424764 11.229217196404521 #
straight-curve $-1 69.433271279030734 0 11.229217196404518 0 1 0 I I #
edge $-1 $364 -69.433271279030734 $326 69.433271279030734 $322 $384 forward 7 unknown #
straight-curve $-1 -69.433271279030734 -38.456882446809807 0 0 0 -1 I I #
point $-1 69.433271279030734 -38.456882446809807 11.229217196404518 #
edge $-1 $341 -69.433271279030734 $373 69.433271279030734 $338 $385 forward 7 unknown #
straight-curve $-1 69.433271279030734 0 11.229217196404518 0 1 0 I I #
vertex $-1 $371 $386 #
straight-curve $-1 -69.433271279030734 0 11.229217196404518 0 -1 0 I I #
point $-1 69.433271279030734 24.532934136424764 11.229217196404521 #
straight-curve $-1 -69.433271279030734 38.456882446809807 0 0 0 -1 I I #
point $-1 69.433271279030734 38.456882446809807 11.229217196404518 #
straight-curve $-1 69.433271279030734 0 11.229217196404518 0 1 0 I I #
straight-curve $-1 69.433271279030734 24.532934136424768 100.0116145510942 0 0 1 I I #
point $-1 69.433271279030734 24.532934136424764 11.229217196404521 #
point $-1 64.624794099430773 19.279514960051252 6.3306798658375092 #
point $-1 64.624794099430773 22.431566465875356 6.3306798658375092 #
point $-1 -69.433271279030734 -38.456882446809807 11.229217196404518 #
straight-curve $-1 0 -38.456882446809807 11.229217196404518 1 0 0 I I #
straight-curve $-1 0 38.456882446809807 11.229217196404518 -1 0 0 I I #
point $-1 -69.433271279030734 38.456882446809807 11.229217196404518 #
End-of-ACIS-data 