500 0 18 0           
7 Unknown 11 ACIS 5.0 NT 24 Thu Mar 25 16:20:10 1999 
-1 9.9999999999999995e-007 1e-010 
body $-1 $18 $-1 $19 #
body $-1 $20 $-1 $21 #
body $-1 $22 $-1 $23 #
body $-1 $24 $-1 $25 #
body $-1 $26 $-1 $27 #
body $-1 $28 $-1 $29 #
body $-1 $30 $-1 $31 #
body $-1 $32 $-1 $33 #
body $-1 $34 $-1 $35 #
body $-1 $36 $-1 $37 #
body $-1 $38 $-1 $39 #
body $-1 $40 $-1 $41 #
body $-1 $42 $-1 $43 #
body $-1 $44 $-1 $45 #
body $-1 $46 $-1 $47 #
body $-1 $48 $-1 $49 #
body $-1 $50 $-1 $51 #
body $-1 $52 $-1 $53 #
lump $-1 $-1 $54 $0 #
transform $-1 1 0 0 0 1 0 0 0 1 73.449507126071964 42.934797648306819 14.591829998812051 1 rotate no_reflect no_shear #
lump $-1 $-1 $55 $1 #
transform $-1 1 0 0 0 1 0 0 0 1 73.449507126071964 42.934797648306819 14.591829998812051 1 rotate no_reflect no_shear #
lump $-1 $-1 $56 $2 #
transform $-1 1 0 0 0 1 0 0 0 1 73.449507126071964 42.934797648306819 14.591829998812051 1 rotate no_reflect no_shear #
lump $-1 $-1 $57 $3 #
transform $-1 1 0 0 0 1 0 0 0 1 73.449507126071964 42.934797648306819 14.591829998812051 1 rotate no_reflect no_shear #
lump $-1 $-1 $58 $4 #
transform $-1 1 0 0 0 1 0 0 0 1 73.449507126071964 42.934797648306819 14.591829998812051 1 rotate no_reflect no_shear #
lump $-1 $-1 $59 $5 #
transform $-1 1 0 0 0 1 0 0 0 1 73.449507126071964 42.934797648306819 14.591829998812051 1 rotate no_reflect no_shear #
lump $-1 $-1 $60 $6 #
transform $-1 1 0 0 0 1 0 0 0 1 73.449507126071964 42.934797648306819 14.591829998812051 1 rotate no_reflect no_shear #
lump $-1 $-1 $61 $7 #
transform $-1 1 0 0 0 1 0 0 0 1 73.449507126071964 42.934797648306819 14.591829998812051 1 rotate no_reflect no_shear #
lump $-1 $-1 $62 $8 #
transform $-1 1 0 0 0 1 0 0 0 1 73.449507126071964 42.934797648306819 14.591829998812051 1 rotate no_reflect no_shear #
lump $-1 $-1 $63 $9 #
transform $-1 1 0 0 0 1 0 0 0 1 73.449507126071964 42.934797648306819 14.591829998812051 1 rotate no_reflect no_shear #
lump $-1 $-1 $64 $10 #
transform $-1 1 0 0 0 1 0 0 0 1 73.449507126071964 42.934797648306819 14.591829998812051 1 rotate no_reflect no_shear #
lump $-1 $-1 $65 $11 #
transform $-1 1 0 0 0 1 0 0 0 1 73.449507126071964 42.934797648306819 14.591829998812051 1 rotate no_reflect no_shear #
lump $-1 $-1 $66 $12 #
transform $-1 1 0 0 0 1 0 0 0 1 73.449507126071964 42.934797648306819 14.591829998812051 1 rotate no_reflect no_shear #
lump $-1 $-1 $67 $13 #
transform $-1 1 0 0 0 1 0 0 0 1 73.449507126071964 42.934797648306819 14.591829998812051 1 rotate no_reflect no_shear #
lump $-1 $-1 $68 $14 #
transform $-1 1 0 0 0 1 0 0 0 1 73.449507126071964 42.934797648306819 14.591829998812051 1 rotate no_reflect no_shear #
lump $-1 $-1 $69 $15 #
transform $-1 1 0 0 0 1 0 0 0 1 73.449507126071964 42.934797648306819 14.591829998812051 1 rotate no_reflect no_shear #
lump $-1 $-1 $70 $16 #
transform $-1 1 0 0 0 1 0 0 0 1 73.449507126071964 42.934797648306819 14.591829998812051 1 rotate no_reflect no_shear #
lump $-1 $-1 $71 $17 #
transform $-1 1 0 0 0 1 0 0 0 1 73.449507126071964 42.934797648306819 14.591829998812051 1 rotate no_reflect no_shear #
shell $-1 $-1 $-1 $72 $-1 $18 #
shell $-1 $-1 $-1 $73 $-1 $20 #
shell $-1 $-1 $-1 $74 $-1 $22 #
shell $-1 $-1 $-1 $75 $-1 $24 #
shell $-1 $-1 $-1 $76 $-1 $26 #
shell $-1 $-1 $-1 $77 $-1 $28 #
shell $-1 $-1 $-1 $78 $-1 $30 #
shell $-1 $-1 $-1 $79 $-1 $32 #
shell $-1 $-1 $-1 $80 $-1 $34 #
shell $-1 $-1 $-1 $81 $-1 $36 #
shell $-1 $-1 $-1 $82 $-1 $38 #
shell $-1 $-1 $-1 $83 $-1 $40 #
shell $-1 $-1 $-1 $84 $-1 $42 #
shell $-1 $-1 $-1 $85 $-1 $44 #
shell $-1 $-1 $-1 $86 $-1 $46 #
shell $-1 $-1 $-1 $87 $-1 $48 #
shell $-1 $-1 $-1 $88 $-1 $50 #
shell $-1 $-1 $-1 $89 $-1 $52 #
face $-1 $90 $91 $54 $-1 $92 forward single #
face $-1 $93 $94 $55 $-1 $95 forward single #
face $-1 $96 $97 $56 $-1 $98 reversed single #
face $-1 $99 $100 $57 $-1 $101 reversed single #
face $-1 $102 $103 $58 $-1 $104 forward single #
face $-1 $105 $106 $59 $-1 $107 forward single #
face $-1 $108 $109 $60 $-1 $110 reversed single #
face $-1 $111 $112 $61 $-1 $113 forward single #
face $-1 $114 $115 $62 $-1 $116 forward single #
face $-1 $117 $118 $63 $-1 $119 reversed single #
face $-1 $120 $121 $64 $-1 $122 forward single #
face $-1 $123 $124 $65 $-1 $125 forward single #
face $-1 $126 $127 $66 $-1 $128 reversed single #
face $-1 $129 $130 $67 $-1 $131 forward single #
face $-1 $132 $133 $68 $-1 $134 forward single #
face $-1 $135 $136 $69 $-1 $137 reversed single #
face $-1 $138 $139 $70 $-1 $140 forward single #
face $-1 $141 $142 $71 $-1 $143 forward single #
face $-1 $144 $145 $54 $-1 $146 reversed single #
loop $-1 $-1 $147 $72 #
plane-surface $-1 0 0 14.591829998812051 0 0 1 1 0 0 forward_v I I I I #
face $-1 $148 $149 $55 $-1 $150 reversed single #
loop $-1 $-1 $151 $73 #
plane-surface $-1 0 -34.541117639947529 13.454990252738844 0 0 1 1 0 0 forward_v I I I I #
face $-1 $152 $153 $56 $-1 $154 forward single #
loop $-1 $-1 $155 $74 #
plane-surface $-1 0 26.147437631588247 9.5859086591026017 0 1 0 0 0 1 forward_v I I I I #
face $-1 $156 $157 $57 $-1 $158 reversed single #
loop $-1 $-1 $159 $75 #
plane-surface $-1 69.823831762884609 16.562348707676861 213.26870008677525 0 1 0 0.69465837861970381 0 0.71933979245794832 forward_v I I I I #
face $-1 $160 $161 $58 $-1 $162 forward single #
loop $-1 $163 $164 $76 #
cone-surface $-1 67.602112246291895 19.300945543080111 8.863505474827317 -0.69465837861970381 0 -0.71933979245794832 0.71933979245794832 0 -0.69465837861970381 1 I I 0 1 1 forward I I I I #
face $-1 $165 $166 $59 $-1 $167 forward single #
loop $-1 $168 $169 $77 #
cone-surface $-1 67.602112246291895 23.408840796184997 8.863505474827317 -0.69465837861970381 0 -0.71933979245794832 0.71933979245794832 0 -0.69465837861970381 1 I I 0 1 1 forward I I I I #
face $-1 $170 $171 $60 $-1 $172 reversed single #
loop $-1 $-1 $173 $78 #
plane-surface $-1 -161.8555419084455 -15.462614978417307 127.94517262340892 0 -1 0 0.6018150307709319 0 -0.79863550430605224 forward_v I I I I #
face $-1 $174 $175 $61 $-1 $176 forward single #
loop $-1 $177 $178 $79 #
cone-surface $-1 -70.517450839422679 -20.830842620077028 12.209799394296002 0.6018150307709319 0 -0.79863550430605224 0.19965887607651306 0 0.15045375769273298 1 I I 0 1 0.25 forward I I I I #
face $-1 $179 $180 $62 $-1 $181 forward single #
loop $-1 $182 $183 $80 #
cone-surface $-1 -70.517450839422679 -17.609906035081195 12.209799394296002 0.6018150307709319 0 -0.79863550430605224 0.19965887607651306 0 0.15045375769273298 1 I I 0 1 0.25 forward I I I I #
face $-1 $184 $185 $63 $-1 $186 reversed single #
loop $-1 $-1 $187 $81 #
plane-surface $-1 -161.8555419084455 -2.3888961626231868 127.94517262340892 0 -1 0 0.6018150307709319 0 -0.79863550430605224 forward_v I I I I #
face $-1 $188 $189 $64 $-1 $190 forward single #
loop $-1 $191 $192 $82 #
cone-surface $-1 -70.517450839422679 -7.7571238042829052 12.209799394296002 0.6018150307709319 0 -0.79863550430605224 0.19965887607651306 0 0.15045375769273298 1 I I 0 1 0.25 forward I I I I #
face $-1 $193 $194 $65 $-1 $195 forward single #
loop $-1 $196 $197 $83 #
cone-surface $-1 -70.517450839422679 -4.5361872192870791 12.209799394296002 0.6018150307709319 0 -0.79863550430605224 0.19965887607651306 0 0.15045375769273298 1 I I 0 1 0.25 forward I I I I #
face $-1 $198 $199 $66 $-1 $200 reversed single #
loop $-1 $-1 $201 $84 #
plane-surface $-1 -161.8555419084455 10.684822653170936 127.94517262340892 0 -1 0 0.6018150307709319 0 -0.79863550430605224 forward_v I I I I #
face $-1 $202 $203 $67 $-1 $204 forward single #
loop $-1 $205 $206 $85 #
cone-surface $-1 -70.517450839422679 5.3165950115112182 12.209799394296002 0.6018150307709319 0 -0.79863550430605224 0.19965887607651306 0 0.15045375769273298 1 I I 0 1 0.25 forward I I I I #
face $-1 $207 $208 $68 $-1 $209 forward single #
loop $-1 $210 $211 $86 #
cone-surface $-1 -70.517450839422679 8.5375315965070442 12.209799394296002 0.6018150307709319 0 -0.79863550430605224 0.19965887607651306 0 0.15045375769273298 1 I I 0 1 0.25 forward I I I I #
face $-1 $212 $213 $69 $-1 $214 reversed single #
loop $-1 $-1 $215 $87 #
plane-surface $-1 -161.8555419084455 23.75854146896506 127.94517262340892 0 -1 0 0.6018150307709319 0 -0.79863550430605224 forward_v I I I I #
face $-1 $216 $217 $70 $-1 $218 forward single #
loop $-1 $219 $220 $88 #
cone-surface $-1 -70.517450839422679 18.390313827305341 12.209799394296002 0.6018150307709319 0 -0.79863550430605224 0.19965887607651306 0 0.15045375769273298 1 I I 0 1 0.25 forward I I I I #
face $-1 $221 $222 $71 $-1 $223 forward single #
loop $-1 $224 $225 $89 #
cone-surface $-1 -70.517450839422679 21.611250412301168 12.209799394296002 0.6018150307709319 0 -0.79863550430605224 0.19965887607651306 0 0.15045375769273298 1 I I 0 1 0.25 forward I I I I #
face $-1 $226 $227 $54 $-1 $228 reversed single #
loop $-1 $-1 $229 $90 #
plane-surface $-1 0 0 -14.591829998812051 0 0 1 1 0 0 forward_v I I I I #
coedge $-1 $230 $231 $232 $233 forward $91 $-1 #
face $-1 $234 $235 $55 $-1 $236 reversed single #
loop $-1 $-1 $237 $93 #
plane-surface $-1 0 -34.541117639947529 5.7168270654663598 0 0 1 1 0 0 forward_v I I I I #
coedge $-1 $238 $239 $240 $241 reversed $94 $-1 #
face $-1 $242 $243 $56 $-1 $244 reversed single #
loop $-1 $-1 $245 $96 #
plane-surface $-1 0 34.541117639947537 13.454990252738844 0 0 1 1 0 0 forward_v I I I I #
coedge $-1 $246 $247 $248 $249 reversed $97 $-1 #
face $-1 $250 $251 $57 $-1 $252 forward single #
loop $-1 $-1 $253 $99 #
plane-surface $-1 -32.220799298342456 21.354893169632554 107.59839366236085 0.69465837861970381 0 0.71933979245794832 0.71933979245794832 0 -0.69465837861970381 forward_v I I I I #
coedge $-1 $254 $255 $256 $257 reversed $100 $-1 #
face $-1 $-1 $258 $58 $-1 $259 forward single #
loop $-1 $260 $261 $102 #
cone-surface $-1 66.086984455148908 19.300945543080111 7.294544753452735 -0.69465837861970381 0 -0.71933979245794832 0.35966989622897416 0 -0.3473291893098519 1 I I -0.70710678118654746 0.70710678118654746 0.5 forward I I I I #
loop $-1 $-1 $262 $76 #
coedge $-1 $164 $164 $263 $264 reversed $103 $-1 #
face $-1 $-1 $265 $59 $-1 $266 forward single #
loop $-1 $267 $268 $105 #
cone-surface $-1 66.086984455148908 23.408840796184997 7.294544753452735 -0.69465837861970381 0 -0.71933979245794832 0.35966989622897416 0 -0.3473291893098519 1 I I -0.70710678118654746 0.70710678118654746 0.5 forward I I I I #
loop $-1 $-1 $269 $77 #
coedge $-1 $169 $169 $270 $271 reversed $106 $-1 #
face $-1 $272 $273 $60 $-1 $274 reversed single #
loop $-1 $-1 $275 $108 #
plane-surface $-1 -73.449507126071936 -19.220374327579112 10.626404294086001 -0.6018150307709319 0 0.79863550430605224 0.79863550430605224 0 0.6018150307709319 forward_v I I I I #
coedge $-1 $276 $277 $278 $279 reversed $109 $-1 #
face $-1 $-1 $280 $61 $-1 $281 forward single #
loop $-1 $282 $283 $111 #
cone-surface $-1 -70.141316445190853 -20.830842620077028 11.71065220410472 0.6018150307709319 0 -0.79863550430605224 0.099829438038256529 0 0.075226878846366488 1 I I -0.70710678118654746 0.70710678118654746 0.125 forward I I I I #
loop $-1 $-1 $284 $79 #
coedge $-1 $178 $178 $285 $286 reversed $112 $-1 #
face $-1 $-1 $287 $62 $-1 $288 forward single #
loop $-1 $289 $290 $114 #
cone-surface $-1 -70.141316445190853 -17.609906035081195 11.71065220410472 0.6018150307709319 0 -0.79863550430605224 0.099829438038256529 0 0.075226878846366488 1 I I -0.70710678118654746 0.70710678118654746 0.125 forward I I I I #
loop $-1 $-1 $291 $80 #
coedge $-1 $183 $183 $292 $293 reversed $115 $-1 #
face $-1 $294 $295 $63 $-1 $296 reversed single #
loop $-1 $-1 $297 $117 #
plane-surface $-1 -73.449507126071936 -6.1466555117849921 10.626404294086001 -0.6018150307709319 0 0.79863550430605224 0.79863550430605224 0 0.6018150307709319 forward_v I I I I #
coedge $-1 $298 $299 $300 $301 reversed $118 $-1 #
face $-1 $-1 $302 $64 $-1 $303 forward single #
loop $-1 $304 $305 $120 #
cone-surface $-1 -70.141316445190853 -7.7571238042829052 11.71065220410472 0.6018150307709319 0 -0.79863550430605224 0.099829438038256529 0 0.075226878846366488 1 I I -0.70710678118654746 0.70710678118654746 0.125 forward I I I I #
loop $-1 $-1 $306 $82 #
coedge $-1 $192 $192 $307 $308 reversed $121 $-1 #
face $-1 $-1 $309 $65 $-1 $310 forward single #
loop $-1 $311 $312 $123 #
cone-surface $-1 -70.141316445190853 -4.5361872192870791 11.71065220410472 0.6018150307709319 0 -0.79863550430605224 0.099829438038256529 0 0.075226878846366488 1 I I -0.70710678118654746 0.70710678118654746 0.125 forward I I I I #
loop $-1 $-1 $313 $83 #
coedge $-1 $197 $197 $314 $315 reversed $124 $-1 #
face $-1 $316 $317 $66 $-1 $318 reversed single #
loop $-1 $-1 $319 $126 #
plane-surface $-1 -73.449507126071936 6.9270633040091312 10.626404294086001 -0.6018150307709319 0 0.79863550430605224 0.79863550430605224 0 0.6018150307709319 forward_v I I I I #
coedge $-1 $320 $321 $322 $323 reversed $127 $-1 #
face $-1 $-1 $324 $67 $-1 $325 forward single #
loop $-1 $326 $327 $129 #
cone-surface $-1 -70.141316445190853 5.3165950115112182 11.71065220410472 0.6018150307709319 0 -0.79863550430605224 0.099829438038256529 0 0.075226878846366488 1 I I -0.70710678118654746 0.70710678118654746 0.125 forward I I I I #
loop $-1 $-1 $328 $85 #
coedge $-1 $206 $206 $329 $330 reversed $130 $-1 #
face $-1 $-1 $331 $68 $-1 $332 forward single #
loop $-1 $333 $334 $132 #
cone-surface $-1 -70.141316445190853 8.5375315965070442 11.71065220410472 0.6018150307709319 0 -0.79863550430605224 0.099829438038256529 0 0.075226878846366488 1 I I -0.70710678118654746 0.70710678118654746 0.125 forward I I I I #
loop $-1 $-1 $335 $86 #
coedge $-1 $211 $211 $336 $337 reversed $133 $-1 #
face $-1 $338 $339 $69 $-1 $340 reversed single #
loop $-1 $-1 $341 $135 #
plane-surface $-1 -73.449507126071936 20.000782119803254 10.626404294086001 -0.6018150307709319 0 0.79863550430605224 0.79863550430605224 0 0.6018150307709319 forward_v I I I I #
coedge $-1 $342 $343 $344 $345 reversed $136 $-1 #
face $-1 $-1 $346 $70 $-1 $347 forward single #
loop $-1 $348 $349 $138 #
cone-surface $-1 -70.141316445190853 18.390313827305341 11.71065220410472 0.6018150307709319 0 -0.79863550430605224 0.099829438038256529 0 0.075226878846366488 1 I I -0.70710678118654746 0.70710678118654746 0.125 forward I I I I #
loop $-1 $-1 $350 $88 #
coedge $-1 $220 $220 $351 $352 reversed $139 $-1 #
face $-1 $-1 $353 $71 $-1 $354 forward single #
loop $-1 $355 $356 $141 #
cone-surface $-1 -70.141316445190853 21.611250412301168 11.71065220410472 0.6018150307709319 0 -0.79863550430605224 0.099829438038256529 0 0.075226878846366488 1 I I -0.70710678118654746 0.70710678118654746 0.125 forward I I I I #
loop $-1 $-1 $357 $89 #
coedge $-1 $225 $225 $358 $359 reversed $142 $-1 #
face $-1 $360 $361 $54 $-1 $362 reversed single #
loop $-1 $-1 $363 $144 #
plane-surface $-1 0 -42.934797648306819 0 0 1 0 0 0 1 forward_v I I I I #
coedge $-1 $364 $365 $366 $367 forward $145 $-1 #
coedge $-1 $368 $147 $369 $370 forward $91 $-1 #
coedge $-1 $147 $368 $371 $372 forward $91 $-1 #
coedge $-1 $373 $374 $147 $233 reversed $375 $-1 #
edge $-1 $376 -42.934797648306819 $377 42.934797648306819 $232 $378 forward 7 unknown #
face $-1 $379 $380 $55 $-1 $381 reversed single #
loop $-1 $-1 $382 $148 #
plane-surface $-1 0 -26.14743763158824 9.5859086591026017 0 -1 0 0 0 -1 forward_v I I I I #
coedge $-1 $383 $384 $385 $386 reversed $149 $-1 #
coedge $-1 $387 $151 $388 $389 forward $94 $-1 #
coedge $-1 $151 $387 $390 $391 reversed $94 $-1 #
coedge $-1 $392 $393 $151 $241 forward $394 $-1 #
edge $-1 $395 8.8768788116144748 $396 25.664238828333055 $240 $397 forward 7 unknown #
face $-1 $398 $399 $56 $-1 $400 reversed single #
loop $-1 $-1 $401 $152 #
plane-surface $-1 0 34.541117639947537 5.7168270654663598 0 0 1 1 0 0 forward_v I I I I #
coedge $-1 $402 $248 $403 $404 reversed $153 $-1 #
coedge $-1 $405 $155 $406 $407 reversed $97 $-1 #
coedge $-1 $155 $405 $408 $409 reversed $97 $-1 #
coedge $-1 $245 $410 $155 $249 forward $153 $-1 #
edge $-1 $411 -73.449507126071964 $412 73.449507126071964 $155 $413 forward 7 unknown #
face $-1 $414 $415 $57 $-1 $416 reversed single #
loop $-1 $-1 $417 $156 #
plane-surface $-1 0 0 14.591829998812051 0 0 1 1 0 0 forward_v I I I I #
coedge $-1 $418 $419 $420 $421 reversed $157 $-1 #
coedge $-1 $255 $159 $422 $423 reversed $100 $-1 #
coedge $-1 $159 $254 $418 $424 reversed $100 $-1 #
coedge $-1 $420 $425 $159 $257 forward $415 $-1 #
edge $-1 $426 92.042520044575582 $427 101.08058744225386 $256 $428 forward 7 unknown #
loop $-1 $-1 $263 $160 #
plane-surface $-1 -32.220799298342456 21.354893169632554 107.59839366236085 0.69465837861970381 0 0.71933979245794832 0.71933979245794832 0 -0.69465837861970381 forward_v I I I I #
loop $-1 $-1 $429 $102 #
coedge $-1 $261 $261 $262 $430 reversed $161 $-1 #
coedge $-1 $262 $262 $261 $430 forward $163 $-1 #
coedge $-1 $263 $263 $164 $264 forward $258 $-1 #
edge $-1 $431 0 $431 6.2831853071796004 $263 $432 forward 7 unknown #
loop $-1 $-1 $270 $165 #
plane-surface $-1 -32.220799298342456 21.354893169632554 107.59839366236085 0.69465837861970381 0 0.71933979245794832 0.71933979245794832 0 -0.69465837861970381 forward_v I I I I #
loop $-1 $-1 $433 $105 #
coedge $-1 $268 $268 $269 $434 reversed $166 $-1 #
coedge $-1 $269 $269 $268 $434 forward $168 $-1 #
coedge $-1 $270 $270 $169 $271 forward $265 $-1 #
edge $-1 $435 0 $435 6.2831853071796004 $270 $436 forward 7 unknown #
face $-1 $437 $438 $60 $-1 $439 reversed single #
loop $-1 $-1 $440 $170 #
plane-surface $-1 -161.8555419084455 -22.978133676740917 127.94517262340892 0 1 0 -0.6018150307709319 0 0.79863550430605224 forward_v I I I I #
coedge $-1 $441 $442 $443 $444 reversed $171 $-1 #
coedge $-1 $277 $173 $445 $446 reversed $109 $-1 #
coedge $-1 $173 $276 $441 $447 reversed $109 $-1 #
coedge $-1 $443 $448 $173 $279 forward $438 $-1 #
edge $-1 $449 49.380756312892409 $450 53.346182017618482 $278 $451 forward 7 unknown #
loop $-1 $-1 $285 $174 #
plane-surface $-1 -73.449507126071936 -19.220374327579112 10.626404294086001 -0.6018150307709319 0 0.79863550430605224 0.79863550430605224 0 0.6018150307709319 forward_v I I I I #
loop $-1 $-1 $452 $111 #
coedge $-1 $283 $283 $284 $453 reversed $175 $-1 #
coedge $-1 $284 $284 $283 $453 forward $177 $-1 #
coedge $-1 $285 $285 $178 $286 forward $280 $-1 #
edge $-1 $454 0 $454 6.2831853071796004 $285 $455 forward 7 unknown #
loop $-1 $-1 $292 $179 #
plane-surface $-1 -73.449507126071936 -19.220374327579112 10.626404294086001 -0.6018150307709319 0 0.79863550430605224 0.79863550430605224 0 0.6018150307709319 forward_v I I I I #
loop $-1 $-1 $456 $114 #
coedge $-1 $290 $290 $291 $457 reversed $180 $-1 #
coedge $-1 $291 $291 $290 $457 forward $182 $-1 #
coedge $-1 $292 $292 $183 $293 forward $287 $-1 #
edge $-1 $458 0 $458 6.2831853071796004 $292 $459 forward 7 unknown #
face $-1 $460 $461 $63 $-1 $462 reversed single #
loop $-1 $-1 $463 $184 #
plane-surface $-1 -161.8555419084455 -9.9044148609467975 127.94517262340892 0 1 0 -0.6018150307709319 0 0.79863550430605224 forward_v I I I I #
coedge $-1 $464 $465 $466 $467 reversed $185 $-1 #
coedge $-1 $299 $187 $468 $469 reversed $118 $-1 #
coedge $-1 $187 $298 $464 $470 reversed $118 $-1 #
coedge $-1 $466 $471 $187 $301 forward $461 $-1 #
edge $-1 $472 49.380756312892409 $473 53.346182017618482 $300 $474 forward 7 unknown #
loop $-1 $-1 $307 $188 #
plane-surface $-1 -73.449507126071936 -6.1466555117849921 10.626404294086001 -0.6018150307709319 0 0.79863550430605224 0.79863550430605224 0 0.6018150307709319 forward_v I I I I #
loop $-1 $-1 $475 $120 #
coedge $-1 $305 $305 $306 $476 reversed $189 $-1 #
coedge $-1 $306 $306 $305 $476 forward $191 $-1 #
coedge $-1 $307 $307 $192 $308 forward $302 $-1 #
edge $-1 $477 0 $477 6.2831853071796004 $307 $478 forward 7 unknown #
loop $-1 $-1 $314 $193 #
plane-surface $-1 -73.449507126071936 -6.1466555117849921 10.626404294086001 -0.6018150307709319 0 0.79863550430605224 0.79863550430605224 0 0.6018150307709319 forward_v I I I I #
loop $-1 $-1 $479 $123 #
coedge $-1 $312 $312 $313 $480 reversed $194 $-1 #
coedge $-1 $313 $313 $312 $480 forward $196 $-1 #
coedge $-1 $314 $314 $197 $315 forward $309 $-1 #
edge $-1 $481 0 $481 6.2831853071796004 $314 $482 forward 7 unknown #
face $-1 $483 $484 $66 $-1 $485 forward single #
loop $-1 $-1 $486 $198 #
plane-surface $-1 -161.8555419084455 3.1693039548473259 127.94517262340892 0 1 0 -0.6018150307709319 0 0.79863550430605224 forward_v I I I I #
coedge $-1 $487 $488 $489 $490 reversed $199 $-1 #
coedge $-1 $321 $201 $491 $492 reversed $127 $-1 #
coedge $-1 $201 $320 $487 $493 reversed $127 $-1 #
coedge $-1 $489 $494 $201 $323 forward $495 $-1 #
edge $-1 $496 49.380756312892409 $497 53.346182017618482 $322 $498 forward 7 unknown #
loop $-1 $-1 $329 $202 #
plane-surface $-1 -73.449507126071936 6.9270633040091312 10.626404294086001 -0.6018150307709319 0 0.79863550430605224 0.79863550430605224 0 0.6018150307709319 forward_v I I I I #
loop $-1 $-1 $499 $129 #
coedge $-1 $327 $327 $328 $500 reversed $203 $-1 #
coedge $-1 $328 $328 $327 $500 forward $205 $-1 #
coedge $-1 $329 $329 $206 $330 forward $324 $-1 #
edge $-1 $501 0 $501 6.2831853071796004 $329 $502 forward 7 unknown #
loop $-1 $-1 $336 $207 #
plane-surface $-1 -73.449507126071936 6.9270633040091312 10.626404294086001 -0.6018150307709319 0 0.79863550430605224 0.79863550430605224 0 0.6018150307709319 forward_v I I I I #
loop $-1 $-1 $503 $132 #
coedge $-1 $334 $334 $335 $504 reversed $208 $-1 #
coedge $-1 $335 $335 $334 $504 forward $210 $-1 #
coedge $-1 $336 $336 $211 $337 forward $331 $-1 #
edge $-1 $505 0 $505 6.2831853071796004 $336 $506 forward 7 unknown #
face $-1 $507 $508 $69 $-1 $509 forward single #
loop $-1 $-1 $510 $212 #
plane-surface $-1 -161.8555419084455 16.243022770641449 127.94517262340892 0 1 0 -0.6018150307709319 0 0.79863550430605224 forward_v I I I I #
coedge $-1 $511 $512 $513 $514 reversed $213 $-1 #
coedge $-1 $343 $215 $515 $516 reversed $136 $-1 #
coedge $-1 $215 $342 $511 $517 reversed $136 $-1 #
coedge $-1 $513 $518 $215 $345 forward $519 $-1 #
edge $-1 $520 49.380756312892409 $521 53.346182017618482 $344 $522 forward 7 unknown #
loop $-1 $-1 $351 $216 #
plane-surface $-1 -73.449507126071936 20.000782119803254 10.626404294086001 -0.6018150307709319 0 0.79863550430605224 0.79863550430605224 0 0.6018150307709319 forward_v I I I I #
loop $-1 $-1 $523 $138 #
coedge $-1 $349 $349 $350 $524 reversed $217 $-1 #
coedge $-1 $350 $350 $349 $524 forward $219 $-1 #
coedge $-1 $351 $351 $220 $352 forward $346 $-1 #
edge $-1 $525 0 $525 6.2831853071796004 $351 $526 forward 7 unknown #
loop $-1 $-1 $358 $221 #
plane-surface $-1 -73.449507126071936 20.000782119803254 10.626404294086001 -0.6018150307709319 0 0.79863550430605224 0.79863550430605224 0 0.6018150307709319 forward_v I I I I #
loop $-1 $-1 $527 $141 #
coedge $-1 $356 $356 $357 $528 reversed $222 $-1 #
coedge $-1 $357 $357 $356 $528 forward $224 $-1 #
coedge $-1 $358 $358 $225 $359 forward $353 $-1 #
edge $-1 $529 0 $529 6.2831853071796004 $358 $530 forward 7 unknown #
face $-1 $531 $532 $54 $-1 $533 reversed single #
loop $-1 $-1 $534 $226 #
plane-surface $-1 -73.449507126071964 0 0 1 0 0 0 0 -1 forward_v I I I I #
coedge $-1 $535 $371 $536 $537 forward $227 $-1 #
coedge $-1 $538 $229 $535 $539 forward $145 $-1 #
coedge $-1 $229 $538 $540 $541 forward $145 $-1 #
coedge $-1 $374 $373 $229 $367 reversed $375 $-1 #
edge $-1 $542 -42.934797648306819 $543 42.934797648306819 $366 $544 forward 7 unknown #
coedge $-1 $231 $230 $545 $546 forward $91 $-1 #
coedge $-1 $547 $548 $230 $370 reversed $532 $-1 #
edge $-1 $377 -73.449507126071964 $549 73.449507126071964 $369 $550 forward 7 unknown #
coedge $-1 $363 $551 $231 $372 reversed $227 $-1 #
edge $-1 $552 -73.449507126071964 $376 73.449507126071964 $371 $553 forward 7 unknown #
coedge $-1 $366 $232 $551 $554 forward $375 $-1 #
coedge $-1 $232 $366 $547 $555 reversed $375 $-1 #
loop $-1 $-1 $373 $531 #
vertex $-1 $233 $556 #
vertex $-1 $233 $557 #
straight-curve $-1 73.449507126071964 0 14.591829998812051 0 1 0 I I #
face $-1 $558 $559 $55 $-1 $560 reversed single #
loop $-1 $-1 $561 $234 #
plane-surface $-1 -73.449507126071964 0 0 1 0 0 0 0 -1 forward_v I I I I #
coedge $-1 $562 $388 $393 $563 reversed $235 $-1 #
coedge $-1 $564 $237 $565 $566 reversed $149 $-1 #
coedge $-1 $237 $564 $562 $567 forward $149 $-1 #
coedge $-1 $393 $392 $237 $386 forward $394 $-1 #
edge $-1 $568 -25.664238828333055 $569 -8.8768788116144748 $385 $570 forward 7 unknown #
coedge $-1 $239 $238 $561 $571 reversed $94 $-1 #
coedge $-1 $382 $572 $238 $389 reversed $235 $-1 #
edge $-1 $395 -73.449507126071964 $573 73.449507126071964 $388 $574 forward 7 unknown #
coedge $-1 $575 $576 $239 $391 forward $559 $-1 #
edge $-1 $396 -73.449507126071964 $577 73.449507126071964 $390 $578 forward 7 unknown #
coedge $-1 $385 $240 $576 $579 forward $394 $-1 #
coedge $-1 $240 $385 $382 $563 forward $394 $-1 #
loop $-1 $-1 $240 $558 #
vertex $-1 $241 $580 #
vertex $-1 $579 $581 #
straight-curve $-1 73.449507126071964 -17.270558819973765 13.454990252738844 0 -1 0 I I #
face $-1 $582 $583 $56 $-1 $584 reversed single #
loop $-1 $-1 $403 $242 #
plane-surface $-1 73.449507126071964 0 0 -1 0 0 0 0 1 forward_v I I I I #
coedge $-1 $585 $586 $587 $588 reversed $243 $-1 #
coedge $-1 $410 $245 $589 $590 reversed $153 $-1 #
coedge $-1 $408 $591 $245 $404 forward $399 $-1 #
edge $-1 $592 -25.664238828333058 $412 -8.8768788116144783 $403 $593 forward 7 unknown #
coedge $-1 $247 $246 $585 $594 reversed $97 $-1 #
coedge $-1 $595 $596 $246 $407 forward $583 $-1 #
edge $-1 $597 0.92387273591505892 $411 8.6620359231875419 $406 $598 forward 7 unknown #
coedge $-1 $587 $403 $247 $409 forward $399 $-1 #
edge $-1 $412 -8.6620359231875419 $599 -0.92387273591505892 $408 $600 forward 7 unknown #
coedge $-1 $248 $402 $595 $601 reversed $153 $-1 #
vertex $-1 $601 $602 #
vertex $-1 $404 $603 #
straight-curve $-1 0 26.147437631588247 13.454990252738844 1 0 0 I I #
face $-1 $-1 $604 $57 $-1 $605 forward single #
loop $-1 $-1 $606 $250 #
plane-surface $-1 73.449507126071964 0 0 -1 0 0 0 0 1 forward_v I I I I #
coedge $-1 $607 $608 $609 $610 forward $251 $-1 #
coedge $-1 $611 $253 $255 $424 forward $157 $-1 #
coedge $-1 $253 $611 $612 $613 forward $157 $-1 #
coedge $-1 $606 $256 $253 $421 forward $415 $-1 #
edge $-1 $427 5.8849021228605842 $614 15.46999104677197 $420 $615 forward 7 unknown #
coedge $-1 $608 $607 $254 $423 forward $251 $-1 #
edge $-1 $616 29.17839868873579 $426 38.53759124462966 $422 $617 forward 7 unknown #
edge $-1 $427 -146.89901425214396 $616 -133.88820537708648 $255 $618 forward 7 unknown #
coedge $-1 $256 $606 $608 $619 reversed $415 $-1 #
vertex $-1 $619 $620 #
vertex $-1 $257 $621 #
straight-curve $-1 73.449507126071964 16.562348707676861 106.63435004338763 0 0 -1 I I #
coedge $-1 $429 $429 $-1 $622 reversed $260 $-1 #
edge $-1 $623 0 $623 6.2831853071796004 $261 $624 forward 7 unknown #
vertex $-1 $264 $625 #
ellipse-curve $-1 68.769910848125022 19.300945543080111 10.072796299972909 0.69465837861970381 0 0.71933979245794832 0.71933979245794832 0 -0.69465837861970381 1 I I #
coedge $-1 $433 $433 $-1 $626 reversed $267 $-1 #
edge $-1 $627 0 $627 6.2831853071796004 $268 $628 forward 7 unknown #
vertex $-1 $271 $629 #
ellipse-curve $-1 68.769910848125022 23.408840796184997 10.072796299972909 0.69465837861970381 0 0.71933979245794832 0.71933979245794832 0 -0.69465837861970381 1 I I #
face $-1 $-1 $630 $60 $-1 $631 forward single #
loop $-1 $-1 $278 $272 #
plane-surface $-1 -73.449507126071964 0 0 1 0 0 0 0 -1 forward_v I I I I #
coedge $-1 $632 $633 $634 $635 reversed $273 $-1 #
coedge $-1 $636 $275 $277 $447 forward $171 $-1 #
coedge $-1 $275 $636 $632 $637 forward $171 $-1 #
coedge $-1 $634 $278 $275 $444 forward $438 $-1 #
edge $-1 $450 5.8524278146277506 $638 13.367946512951361 $443 $639 forward 7 unknown #
coedge $-1 $640 $641 $276 $446 forward $630 $-1 #
edge $-1 $642 -12.740561370678449 $449 -7.4782638281507872 $445 $643 forward 7 unknown #
edge $-1 $450 -3.5527045195756588e-014 $642 6.589110444194608 $277 $644 forward 7 unknown #
coedge $-1 $278 $634 $640 $645 reversed $438 $-1 #
vertex $-1 $645 $646 #
vertex $-1 $279 $647 #
straight-curve $-1 -73.449507126071964 -15.462614978417307 63.972586311704461 0 0 -1 I I #
coedge $-1 $452 $452 $-1 $648 reversed $282 $-1 #
edge $-1 $649 0 $649 6.2831853071796004 $283 $650 forward 7 unknown #
vertex $-1 $286 $651 #
ellipse-curve $-1 -70.81835835480814 -20.830842620077028 12.609117146449012 -0.6018150307709319 0 0.79863550430605224 0.19965887607651306 0 0.15045375769273298 1 I I #
coedge $-1 $456 $456 $-1 $652 reversed $289 $-1 #
edge $-1 $653 0 $653 6.2831853071796004 $290 $654 forward 7 unknown #
vertex $-1 $293 $655 #
ellipse-curve $-1 -70.81835835480814 -17.609906035081195 12.609117146449012 -0.6018150307709319 0 0.79863550430605224 0.19965887607651306 0 0.15045375769273298 1 I I #
face $-1 $-1 $656 $63 $-1 $657 forward single #
loop $-1 $-1 $300 $294 #
plane-surface $-1 -73.449507126071964 0 0 1 0 0 0 0 -1 forward_v I I I I #
coedge $-1 $658 $659 $660 $661 reversed $295 $-1 #
coedge $-1 $662 $297 $299 $470 forward $185 $-1 #
coedge $-1 $297 $662 $658 $663 forward $185 $-1 #
coedge $-1 $660 $300 $297 $467 forward $461 $-1 #
edge $-1 $473 -0.68443159326930925 $664 6.8310871050543014 $466 $665 forward 7 unknown #
coedge $-1 $666 $667 $298 $469 forward $656 $-1 #
edge $-1 $668 -12.740561370678449 $472 -7.4782638281507872 $468 $669 forward 7 unknown #
edge $-1 $473 -3.5527045195756588e-014 $668 6.589110444194608 $299 $670 forward 7 unknown #
coedge $-1 $300 $660 $666 $671 reversed $461 $-1 #
vertex $-1 $671 $672 #
vertex $-1 $301 $673 #
straight-curve $-1 -73.449507126071964 -2.3888961626231868 63.972586311704461 0 0 -1 I I #
coedge $-1 $475 $475 $-1 $674 reversed $304 $-1 #
edge $-1 $675 0 $675 6.2831853071796004 $305 $676 forward 7 unknown #
vertex $-1 $308 $677 #
ellipse-curve $-1 -70.81835835480814 -7.7571238042829052 12.609117146449012 -0.6018150307709319 0 0.79863550430605224 0.19965887607651306 0 0.15045375769273298 1 I I #
coedge $-1 $479 $479 $-1 $678 reversed $311 $-1 #
edge $-1 $679 0 $679 6.2831853071796004 $312 $680 forward 7 unknown #
vertex $-1 $315 $681 #
ellipse-curve $-1 -70.81835835480814 -4.5361872192870791 12.609117146449012 -0.6018150307709319 0 0.79863550430605224 0.19965887607651306 0 0.15045375769273298 1 I I #
face $-1 $-1 $495 $66 $-1 $682 reversed single #
loop $-1 $-1 $683 $316 #
plane-surface $-1 0 0 14.591829998812051 0 0 1 1 0 0 forward_v I I I I #
coedge $-1 $684 $685 $686 $687 reversed $317 $-1 #
coedge $-1 $688 $319 $321 $493 forward $199 $-1 #
coedge $-1 $319 $688 $684 $689 forward $199 $-1 #
coedge $-1 $686 $322 $319 $490 forward $495 $-1 #
edge $-1 $497 -7.2212910011663709 $690 0.29422769715723973 $489 $691 forward 7 unknown #
coedge $-1 $692 $693 $320 $492 forward $484 $-1 #
edge $-1 $694 -12.740561370678449 $496 -7.4782638281507872 $491 $695 forward 7 unknown #
edge $-1 $497 -3.5527045195756588e-014 $694 6.589110444194608 $321 $696 forward 7 unknown #
coedge $-1 $322 $686 $692 $697 reversed $495 $-1 #
loop $-1 $-1 $686 $483 #
vertex $-1 $697 $698 #
vertex $-1 $323 $699 #
straight-curve $-1 -73.449507126071964 10.684822653170936 63.972586311704461 0 0 -1 I I #
coedge $-1 $499 $499 $-1 $700 reversed $326 $-1 #
edge $-1 $701 0 $701 6.2831853071796004 $327 $702 forward 7 unknown #
vertex $-1 $330 $703 #
ellipse-curve $-1 -70.81835835480814 5.3165950115112182 12.609117146449012 -0.6018150307709319 0 0.79863550430605224 0.19965887607651306 0 0.15045375769273298 1 I I #
coedge $-1 $503 $503 $-1 $704 reversed $333 $-1 #
edge $-1 $705 0 $705 6.2831853071796004 $334 $706 forward 7 unknown #
vertex $-1 $337 $707 #
ellipse-curve $-1 -70.81835835480814 8.5375315965070442 12.609117146449012 -0.6018150307709319 0 0.79863550430605224 0.19965887607651306 0 0.15045375769273298 1 I I #
face $-1 $-1 $519 $69 $-1 $708 reversed single #
loop $-1 $-1 $709 $338 #
plane-surface $-1 0 0 14.591829998812051 0 0 1 1 0 0 forward_v I I I I #
coedge $-1 $710 $711 $712 $713 reversed $339 $-1 #
coedge $-1 $714 $341 $343 $517 forward $213 $-1 #
coedge $-1 $341 $714 $710 $715 forward $213 $-1 #
coedge $-1 $712 $344 $341 $514 forward $519 $-1 #
edge $-1 $521 -13.758150409063433 $716 -6.2426317107398219 $513 $717 forward 7 unknown #
coedge $-1 $718 $719 $342 $516 forward $508 $-1 #
edge $-1 $720 -12.740561370678449 $520 -7.4782638281507872 $515 $721 forward 7 unknown #
edge $-1 $521 -3.5527045195756588e-014 $720 6.589110444194608 $343 $722 forward 7 unknown #
coedge $-1 $344 $712 $718 $723 reversed $519 $-1 #
loop $-1 $-1 $712 $507 #
vertex $-1 $723 $724 #
vertex $-1 $345 $725 #
straight-curve $-1 -73.449507126071964 23.75854146896506 63.972586311704461 0 0 -1 I I #
coedge $-1 $523 $523 $-1 $726 reversed $348 $-1 #
edge $-1 $727 0 $727 6.2831853071796004 $349 $728 forward 7 unknown #
vertex $-1 $352 $729 #
ellipse-curve $-1 -70.81835835480814 18.390313827305341 12.609117146449012 -0.6018150307709319 0 0.79863550430605224 0.19965887607651306 0 0.15045375769273298 1 I I #
coedge $-1 $527 $527 $-1 $730 reversed $355 $-1 #
edge $-1 $731 0 $731 6.2831853071796004 $356 $732 forward 7 unknown #
vertex $-1 $359 $733 #
ellipse-curve $-1 -70.81835835480814 21.611250412301168 12.609117146449012 -0.6018150307709319 0 0.79863550430605224 0.19965887607651306 0 0.15045375769273298 1 I I #
face $-1 $-1 $375 $54 $-1 $734 reversed single #
loop $-1 $-1 $547 $360 #
plane-surface $-1 0 42.934797648306819 0 0 -1 0 0 0 -1 forward_v I I I I #
coedge $-1 $735 $545 $548 $736 forward $361 $-1 #
coedge $-1 $551 $363 $364 $539 reversed $227 $-1 #
coedge $-1 $545 $735 $363 $537 reversed $361 $-1 #
edge $-1 $552 -14.591829998812051 $737 14.591829998812051 $536 $738 forward 7 unknown #
coedge $-1 $365 $364 $735 $739 forward $145 $-1 #
edge $-1 $543 -73.449507126071964 $737 73.449507126071964 $535 $740 forward 7 unknown #
coedge $-1 $548 $547 $365 $541 reversed $532 $-1 #
edge $-1 $741 -73.449507126071964 $542 73.449507126071964 $540 $742 forward 7 unknown #
vertex $-1 $367 $743 #
vertex $-1 $554 $744 #
straight-curve $-1 73.449507126071964 0 -14.591829998812051 0 -1 0 I I #
coedge $-1 $534 $536 $368 $546 reversed $361 $-1 #
edge $-1 $549 -42.934797648306819 $552 42.934797648306819 $545 $745 forward 7 unknown #
coedge $-1 $540 $369 $374 $555 forward $532 $-1 #
coedge $-1 $369 $540 $534 $736 reversed $532 $-1 #
vertex $-1 $370 $746 #
straight-curve $-1 0 42.934797648306819 14.591829998812051 -1 0 0 I I #
coedge $-1 $371 $535 $373 $554 reversed $227 $-1 #
vertex $-1 $546 $747 #
straight-curve $-1 0 -42.934797648306819 14.591829998812051 1 0 0 I I #
edge $-1 $376 -14.591829998812051 $543 14.591829998812051 $373 $748 forward 7 unknown #
edge $-1 $377 -14.591829998812051 $542 14.591829998812051 $374 $749 forward 7 unknown #
point $-1 73.449507126071964 -42.934797648306819 14.591829998812051 #
point $-1 73.449507126071964 42.934797648306819 14.591829998812051 #
face $-1 $-1 $394 $55 $-1 $750 reversed single #
loop $-1 $-1 $390 $379 #
plane-surface $-1 0 -42.934797648306819 0 0 1 0 0 0 1 forward_v I I I I #
coedge $-1 $751 $752 $387 $571 forward $380 $-1 #
coedge $-1 $572 $382 $384 $567 reversed $235 $-1 #
edge $-1 $569 0.92387273591505892 $395 8.6620359231875419 $393 $753 forward 7 unknown #
coedge $-1 $384 $383 $754 $755 reversed $149 $-1 #
coedge $-1 $576 $575 $383 $566 forward $559 $-1 #
edge $-1 $756 -73.449507126071964 $568 73.449507126071964 $565 $757 forward 7 unknown #
edge $-1 $758 -73.449507126071964 $569 73.449507126071964 $562 $759 forward 7 unknown #
vertex $-1 $566 $760 #
vertex $-1 $386 $761 #
straight-curve $-1 73.449507126071964 -17.270558819973765 5.7168270654663598 0 1 0 I I #
edge $-1 $577 -25.664238828333055 $573 -8.8768788116144748 $561 $762 forward 7 unknown #
coedge $-1 $388 $562 $751 $763 reversed $235 $-1 #
vertex $-1 $571 $764 #
straight-curve $-1 0 -26.14743763158824 13.454990252738844 -1 0 0 I I #
coedge $-1 $565 $390 $752 $765 forward $559 $-1 #
coedge $-1 $390 $565 $392 $579 reversed $559 $-1 #
vertex $-1 $765 $766 #
straight-curve $-1 0 -42.934797648306819 13.454990252738844 -1 0 0 I I #
edge $-1 $396 -13.454990252738844 $568 -5.7168270654663598 $392 $767 forward 7 unknown #
point $-1 73.449507126071964 -26.14743763158824 13.454990252738844 #
point $-1 73.449507126071964 -42.934797648306819 13.454990252738844 #
face $-1 $-1 $768 $56 $-1 $769 reversed single #
loop $-1 $-1 $595 $398 #
plane-surface $-1 -73.449507126071964 0 0 1 0 0 0 0 -1 forward_v I I I I #
coedge $-1 $770 $401 $405 $594 forward $243 $-1 #
coedge $-1 $401 $770 $771 $772 reversed $243 $-1 #
coedge $-1 $591 $408 $401 $588 forward $399 $-1 #
edge $-1 $599 8.8768788116144783 $773 25.664238828333058 $587 $774 forward 7 unknown #
coedge $-1 $775 $776 $402 $590 forward $768 $-1 #
edge $-1 $777 -73.449507126071964 $592 73.449507126071964 $589 $778 forward 7 unknown #
coedge $-1 $403 $587 $775 $779 reversed $399 $-1 #
vertex $-1 $779 $780 #
straight-curve $-1 73.449507126071964 17.270558819973768 13.454990252738844 0 -1 0 I I #
edge $-1 $599 -73.449507126071964 $597 73.449507126071964 $405 $781 forward 7 unknown #
coedge $-1 $782 $406 $410 $601 forward $583 $-1 #
coedge $-1 $406 $782 $770 $783 forward $583 $-1 #
vertex $-1 $783 $784 #
straight-curve $-1 -73.449507126071964 26.147437631588247 4.7929543295513009 0 0 1 I I #
vertex $-1 $588 $785 #
straight-curve $-1 73.449507126071964 26.147437631588247 4.7929543295513009 0 0 -1 I I #
edge $-1 $411 8.8768788116144783 $777 25.664238828333058 $595 $786 forward 7 unknown #
point $-1 -73.449507126071964 26.147437631588247 13.454990252738844 #
point $-1 73.449507126071964 26.147437631588247 13.454990252738844 #
loop $-1 $-1 $612 $414 #
plane-surface $-1 0 26.147437631588247 9.5859086591026017 0 1 0 0 0 1 forward_v I I I I #
coedge $-1 $425 $420 $787 $788 forward $415 $-1 #
coedge $-1 $422 $417 $611 $789 forward $251 $-1 #
coedge $-1 $417 $422 $425 $619 forward $251 $-1 #
coedge $-1 $787 $612 $417 $610 reversed $604 $-1 #
edge $-1 $790 -38.53759124462966 $791 -29.17839868873579 $417 $792 forward 7 unknown #
coedge $-1 $419 $418 $607 $789 reversed $157 $-1 #
coedge $-1 $609 $787 $419 $613 reversed $604 $-1 #
edge $-1 $791 133.88820537708648 $614 146.89901425214396 $612 $793 forward 7 unknown #
vertex $-1 $788 $794 #
straight-curve $-1 73.44950712607195 10.677446584816277 5.5537626011337835 0 1 0 I I #
vertex $-1 $423 $795 #
straight-curve $-1 34.911915881442305 16.562348707676861 14.591829998812045 1 0 0 I I #
straight-curve $-1 -32.220799298342456 16.562348707676861 107.59839366236085 -0.71933979245794832 0 0.69465837861970381 I I #
edge $-1 $426 16.562348707676861 $790 26.147437631588247 $425 $796 forward 7 unknown #
point $-1 73.449507126071964 16.562348707676861 14.591829998812051 #
point $-1 73.449507126071964 16.562348707676861 5.5537626011337693 #
edge $-1 $797 1 $797 0 $429 $-1 forward 7 unknown #
vertex $-1 $430 $798 #
ellipse-curve $-1 66.434313644458754 19.300945543080111 7.6542146496817089 0.69465837861970381 0 0.71933979245794832 0.71933979245794832 0 -0.69465837861970381 1 I I #
point $-1 69.489250640582981 19.300945543080111 9.3781379213532183 #
edge $-1 $799 1 $799 0 $433 $-1 forward 7 unknown #
vertex $-1 $434 $800 #
ellipse-curve $-1 66.434313644458754 23.408840796184997 7.6542146496817089 0.69465837861970381 0 0.71933979245794832 0.71933979245794832 0 -0.69465837861970381 1 I I #
point $-1 69.489250640582981 23.408840796184997 9.3781379213532183 #
loop $-1 $-1 $445 $437 #
plane-surface $-1 0 0 14.591829998812051 0 0 1 1 0 0 forward_v I I I I #
coedge $-1 $633 $440 $442 $637 reversed $273 $-1 #
coedge $-1 $440 $632 $801 $802 reversed $273 $-1 #
coedge $-1 $448 $443 $440 $635 forward $438 $-1 #
edge $-1 $638 -53.346182017618482 $803 -49.380756312892409 $634 $804 forward 7 unknown #
coedge $-1 $442 $441 $641 $805 reversed $171 $-1 #
edge $-1 $806 -6.589110444194608 $638 3.5527045195756588e-014 $632 $807 forward 7 unknown #
vertex $-1 $444 $808 #
straight-curve $-1 -73.449507126071964 -9.610187163789556 10.626404294085976 0 -1 0 I I #
coedge $-1 $801 $445 $448 $645 forward $630 $-1 #
coedge $-1 $445 $801 $636 $805 forward $630 $-1 #
vertex $-1 $446 $809 #
straight-curve $-1 -80.927770954222751 -15.462614978417307 14.591829998812052 -1 0 0 I I #
straight-curve $-1 -73.449507126071936 -15.462614978417307 10.626404294086001 0.79863550430605224 0 0.6018150307709319 I I #
edge $-1 $449 15.462614978417307 $803 22.978133676740917 $448 $810 forward 7 unknown #
point $-1 -73.449507126071964 -15.462614978417307 14.591829998812051 #
point $-1 -73.449507126071964 -15.462614978417307 10.62640429408598 #
edge $-1 $811 1 $811 0 $452 $-1 forward 7 unknown #
vertex $-1 $453 $812 #
ellipse-curve $-1 -70.216543324037218 -20.830842620077028 11.810481642142976 -0.6018150307709319 0 0.79863550430605224 0.19965887607651306 0 0.15045375769273298 1 I I #
point $-1 -70.618699478731642 -20.830842620077028 12.759570904141762 #
edge $-1 $813 1 $813 0 $456 $-1 forward 7 unknown #
vertex $-1 $457 $814 #
ellipse-curve $-1 -70.216543324037218 -17.609906035081195 11.810481642142976 -0.6018150307709319 0 0.79863550430605224 0.19965887607651306 0 0.15045375769273298 1 I I #
point $-1 -70.618699478731642 -17.609906035081195 12.759570904141762 #
loop $-1 $-1 $468 $460 #
plane-surface $-1 0 0 14.591829998812051 0 0 1 1 0 0 forward_v I I I I #
coedge $-1 $659 $463 $465 $663 reversed $295 $-1 #
coedge $-1 $463 $658 $815 $816 reversed $295 $-1 #
coedge $-1 $471 $466 $463 $661 forward $461 $-1 #
edge $-1 $664 -53.346182017618482 $817 -49.380756312892409 $660 $818 forward 7 unknown #
coedge $-1 $465 $464 $667 $819 reversed $185 $-1 #
edge $-1 $820 -6.589110444194608 $664 3.5527045195756588e-014 $658 $821 forward 7 unknown #
vertex $-1 $467 $822 #
straight-curve $-1 -73.449507126071964 -3.0733277558924961 10.626404294085976 0 -1 0 I I #
coedge $-1 $815 $468 $471 $671 forward $656 $-1 #
coedge $-1 $468 $815 $662 $819 forward $656 $-1 #
vertex $-1 $469 $823 #
straight-curve $-1 -80.927770954222751 -2.3888961626231868 14.591829998812052 -1 0 0 I I #
straight-curve $-1 -73.449507126071936 -2.3888961626231868 10.626404294086001 0.79863550430605224 0 0.6018150307709319 I I #
edge $-1 $472 2.3888961626231868 $817 9.9044148609467975 $471 $824 forward 7 unknown #
point $-1 -73.449507126071964 -2.3888961626231868 14.591829998812051 #
point $-1 -73.449507126071964 -2.3888961626231868 10.62640429408598 #
edge $-1 $825 1 $825 0 $475 $-1 forward 7 unknown #
vertex $-1 $476 $826 #
ellipse-curve $-1 -70.216543324037218 -7.7571238042829052 11.810481642142976 -0.6018150307709319 0 0.79863550430605224 0.19965887607651306 0 0.15045375769273298 1 I I #
point $-1 -70.618699478731642 -7.7571238042829052 12.759570904141762 #
edge $-1 $827 1 $827 0 $479 $-1 forward 7 unknown #
vertex $-1 $480 $828 #
ellipse-curve $-1 -70.216543324037218 -4.5361872192870791 11.810481642142976 -0.6018150307709319 0 0.79863550430605224 0.19965887607651306 0 0.15045375769273298 1 I I #
point $-1 -70.618699478731642 -4.5361872192870791 12.759570904141762 #
plane-surface $-1 -73.449507126071964 0 0 1 0 0 0 0 -1 forward_v I I I I #
coedge $-1 $693 $692 $685 $829 forward $484 $-1 #
coedge $-1 $685 $486 $488 $689 reversed $317 $-1 #
coedge $-1 $486 $684 $683 $829 reversed $317 $-1 #
coedge $-1 $494 $489 $486 $687 forward $495 $-1 #
edge $-1 $690 -53.346182017618482 $830 -49.380756312892409 $686 $831 forward 7 unknown #
coedge $-1 $488 $487 $693 $832 reversed $199 $-1 #
edge $-1 $833 -6.589110444194608 $690 3.5527045195756588e-014 $684 $834 forward 7 unknown #
vertex $-1 $490 $835 #
straight-curve $-1 -73.449507126071964 3.4635316520045656 10.626404294085976 0 -1 0 I I #
coedge $-1 $683 $491 $494 $697 forward $484 $-1 #
coedge $-1 $491 $683 $688 $832 forward $484 $-1 #
vertex $-1 $492 $836 #
straight-curve $-1 -80.927770954222751 10.684822653170936 14.591829998812052 -1 0 0 I I #
straight-curve $-1 -73.449507126071936 10.684822653170936 10.626404294086001 0.79863550430605224 0 0.6018150307709319 I I #
edge $-1 $496 -10.684822653170936 $830 -3.1693039548473259 $494 $837 forward 7 unknown #
point $-1 -73.449507126071964 10.684822653170936 14.591829998812051 #
point $-1 -73.449507126071964 10.684822653170936 10.62640429408598 #
edge $-1 $838 1 $838 0 $499 $-1 forward 7 unknown #
vertex $-1 $500 $839 #
ellipse-curve $-1 -70.216543324037218 5.3165950115112182 11.810481642142976 -0.6018150307709319 0 0.79863550430605224 0.19965887607651306 0 0.15045375769273298 1 I I #
point $-1 -70.618699478731642 5.3165950115112182 12.759570904141762 #
edge $-1 $840 1 $840 0 $503 $-1 forward 7 unknown #
vertex $-1 $504 $841 #
ellipse-curve $-1 -70.216543324037218 8.5375315965070442 11.810481642142976 -0.6018150307709319 0 0.79863550430605224 0.19965887607651306 0 0.15045375769273298 1 I I #
point $-1 -70.618699478731642 8.5375315965070442 12.759570904141762 #
plane-surface $-1 -73.449507126071964 0 0 1 0 0 0 0 -1 forward_v I I I I #
coedge $-1 $719 $718 $711 $842 forward $508 $-1 #
coedge $-1 $711 $510 $512 $715 reversed $339 $-1 #
coedge $-1 $510 $710 $709 $842 reversed $339 $-1 #
coedge $-1 $518 $513 $510 $713 forward $519 $-1 #
edge $-1 $716 -53.346182017618482 $843 -49.380756312892409 $712 $844 forward 7 unknown #
coedge $-1 $512 $511 $719 $845 reversed $213 $-1 #
edge $-1 $846 -6.589110444194608 $716 3.5527045195756588e-014 $710 $847 forward 7 unknown #
vertex $-1 $514 $848 #
straight-curve $-1 -73.449507126071964 10.000391059901627 10.626404294085976 0 -1 0 I I #
coedge $-1 $709 $515 $518 $723 forward $508 $-1 #
coedge $-1 $515 $709 $714 $845 forward $508 $-1 #
vertex $-1 $516 $849 #
straight-curve $-1 -80.927770954222751 23.75854146896506 14.591829998812052 -1 0 0 I I #
straight-curve $-1 -73.449507126071936 23.75854146896506 10.626404294086001 0.79863550430605224 0 0.6018150307709319 I I #
edge $-1 $520 -23.75854146896506 $843 -16.243022770641449 $518 $850 forward 7 unknown #
point $-1 -73.449507126071964 23.75854146896506 14.591829998812051 #
point $-1 -73.449507126071964 23.75854146896506 10.62640429408598 #
edge $-1 $851 1 $851 0 $523 $-1 forward 7 unknown #
vertex $-1 $524 $852 #
ellipse-curve $-1 -70.216543324037218 18.390313827305341 11.810481642142976 -0.6018150307709319 0 0.79863550430605224 0.19965887607651306 0 0.15045375769273298 1 I I #
point $-1 -70.618699478731642 18.390313827305341 12.759570904141762 #
edge $-1 $853 1 $853 0 $527 $-1 forward 7 unknown #
vertex $-1 $528 $854 #
ellipse-curve $-1 -70.216543324037218 21.611250412301168 11.810481642142976 -0.6018150307709319 0 0.79863550430605224 0.19965887607651306 0 0.15045375769273298 1 I I #
point $-1 -70.618699478731642 21.611250412301168 12.759570904141762 #
plane-surface $-1 73.449507126071964 0 0 -1 0 0 0 0 1 forward_v I I I I #
coedge $-1 $536 $534 $538 $739 reversed $361 $-1 #
edge $-1 $549 -14.591829998812051 $741 14.591829998812051 $548 $855 forward 7 unknown #
vertex $-1 $739 $856 #
straight-curve $-1 -73.449507126071964 -42.934797648306819 0 0 0 -1 I I #
edge $-1 $737 -42.934797648306819 $741 42.934797648306819 $735 $857 forward 7 unknown #
straight-curve $-1 0 -42.934797648306819 -14.591829998812051 -1 0 0 I I #
vertex $-1 $541 $858 #
straight-curve $-1 0 42.934797648306819 -14.591829998812051 1 0 0 I I #
point $-1 73.449507126071964 42.934797648306819 -14.591829998812051 #
point $-1 73.449507126071964 -42.934797648306819 -14.591829998812051 #
straight-curve $-1 -73.449507126071964 0 14.591829998812051 0 -1 0 I I #
point $-1 -73.449507126071964 42.934797648306819 14.591829998812051 #
point $-1 -73.449507126071964 -42.934797648306819 14.591829998812051 #
straight-curve $-1 73.449507126071964 -42.934797648306819 0 0 0 -1 I I #
straight-curve $-1 73.449507126071964 42.934797648306819 0 0 0 -1 I I #
plane-surface $-1 73.449507126071964 0 0 -1 0 0 0 0 1 forward_v I I I I #
coedge $-1 $754 $561 $572 $763 forward $380 $-1 #
coedge $-1 $561 $754 $575 $765 reversed $380 $-1 #
straight-curve $-1 73.449507126071964 -26.14743763158824 4.7929543295513009 0 0 1 I I #
coedge $-1 $752 $751 $564 $755 forward $380 $-1 #
edge $-1 $758 8.8768788116144748 $756 25.664238828333055 $754 $859 forward 7 unknown #
vertex $-1 $566 $860 #
straight-curve $-1 0 -42.934797648306819 5.7168270654663598 1 0 0 I I #
vertex $-1 $755 $861 #
straight-curve $-1 0 -26.14743763158824 5.7168270654663598 1 0 0 I I #
point $-1 73.449507126071964 -42.934797648306819 5.7168270654663598 #
point $-1 73.449507126071964 -26.14743763158824 5.7168270654663598 #
straight-curve $-1 -73.449507126071964 -17.270558819973765 13.454990252738844 0 1 0 I I #
edge $-1 $573 -8.6620359231875419 $758 -0.92387273591505892 $751 $862 forward 7 unknown #
point $-1 -73.449507126071964 -26.14743763158824 13.454990252738844 #
edge $-1 $577 -13.454990252738844 $756 -5.7168270654663598 $752 $863 forward 7 unknown #
point $-1 -73.449507126071964 -42.934797648306819 13.454990252738844 #
straight-curve $-1 73.449507126071964 -42.934797648306819 0 0 0 -1 I I #
loop $-1 $-1 $589 $582 #
plane-surface $-1 0 42.934797648306819 0 0 -1 0 0 0 -1 forward_v I I I I #
coedge $-1 $586 $585 $596 $783 reversed $243 $-1 #
coedge $-1 $776 $775 $586 $772 forward $768 $-1 #
edge $-1 $773 -73.449507126071964 $864 73.449507126071964 $771 $865 forward 7 unknown #
vertex $-1 $772 $866 #
straight-curve $-1 73.449507126071964 17.270558819973768 5.7168270654663598 0 1 0 I I #
coedge $-1 $771 $589 $591 $779 forward $768 $-1 #
coedge $-1 $589 $771 $782 $867 reversed $768 $-1 #
vertex $-1 $867 $868 #
straight-curve $-1 0 42.934797648306819 13.454990252738844 1 0 0 I I #
edge $-1 $592 -13.454990252738844 $773 -5.7168270654663598 $591 $869 forward 7 unknown #
point $-1 73.449507126071964 42.934797648306827 13.454990252738844 #
straight-curve $-1 0 26.147437631588247 5.7168270654663598 -1 0 0 I I #
coedge $-1 $596 $595 $776 $867 forward $583 $-1 #
edge $-1 $864 -25.664238828333058 $597 -8.8768788116144783 $596 $870 forward 7 unknown #
point $-1 -73.449507126071964 26.147437631588247 5.7168270654663598 #
point $-1 73.449507126071964 26.147437631588247 5.7168270654663598 #
straight-curve $-1 -73.449507126071964 17.270558819973768 13.454990252738844 0 1 0 I I #
coedge $-1 $612 $609 $606 $788 reversed $604 $-1 #
edge $-1 $614 -101.08058744225386 $790 -92.042520044575582 $606 $871 forward 7 unknown #
edge $-1 $791 -15.46999104677197 $616 -5.8849021228605842 $607 $872 forward 7 unknown #
vertex $-1 $610 $873 #
vertex $-1 $610 $874 #
straight-curve $-1 34.911915881442305 26.147437631588247 14.591829998812045 -1 0 0 I I #
straight-curve $-1 -32.220799298342456 26.147437631588247 107.59839366236085 0.71933979245794832 0 -0.69465837861970381 I I #
point $-1 73.449507126071964 26.147437631588247 5.5537626011337693 #
point $-1 64.090314570178094 16.562348707676861 14.591829998812045 #
straight-curve $-1 73.449507126071964 0 14.591829998812051 0 1 0 I I #
vertex $-1 $622 $875 #
point $-1 67.153653436916713 19.300945543080111 6.9595562710620058 #
vertex $-1 $626 $876 #
point $-1 67.153653436916713 23.408840796184997 6.9595562710620058 #
coedge $-1 $641 $640 $633 $802 forward $630 $-1 #
edge $-1 $803 7.4782638281507872 $806 12.740561370678449 $801 $877 forward 7 unknown #
vertex $-1 $802 $878 #
straight-curve $-1 -73.449507126071964 -22.978133676740917 63.972586311704461 0 0 1 I I #
edge $-1 $806 -13.367946512951361 $642 -5.8524278146277506 $641 $879 forward 7 unknown #
vertex $-1 $805 $880 #
straight-curve $-1 -73.449507126071936 -22.978133676740917 10.626404294086001 -0.79863550430605224 0 -0.6018150307709319 I I #
point $-1 -73.449507126071964 -22.978133676740917 10.62640429408598 #
point $-1 -68.187209583544302 -15.462614978417307 14.591829998812051 #
straight-curve $-1 -73.449507126071964 0 14.591829998812051 0 -1 0 I I #
vertex $-1 $648 $881 #
point $-1 -70.016884447960706 -20.830842620077028 11.96093539983571 #
vertex $-1 $652 $882 #
point $-1 -70.016884447960706 -17.609906035081195 11.96093539983571 #
coedge $-1 $667 $666 $659 $816 forward $656 $-1 #
edge $-1 $817 7.4782638281507872 $820 12.740561370678449 $815 $883 forward 7 unknown #
vertex $-1 $816 $884 #
straight-curve $-1 -73.449507126071964 -9.9044148609467975 63.972586311704461 0 0 1 I I #
edge $-1 $820 -6.8310871050543014 $668 0.68443159326930925 $667 $885 forward 7 unknown #
vertex $-1 $819 $886 #
straight-curve $-1 -73.449507126071936 -9.9044148609467975 10.626404294086001 -0.79863550430605224 0 -0.6018150307709319 I I #
point $-1 -73.449507126071964 -9.9044148609467975 10.62640429408598 #
point $-1 -68.187209583544302 -2.3888961626231868 14.591829998812051 #
straight-curve $-1 -73.449507126071964 0 14.591829998812051 0 -1 0 I I #
vertex $-1 $674 $887 #
point $-1 -70.016884447960706 -7.7571238042829052 11.96093539983571 #
vertex $-1 $678 $888 #
point $-1 -70.016884447960706 -4.5361872192870791 11.96093539983571 #
edge $-1 $830 7.4782638281507872 $833 12.740561370678449 $683 $889 forward 7 unknown #
vertex $-1 $687 $890 #
straight-curve $-1 -73.449507126071964 3.1693039548473259 63.972586311704461 0 0 1 I I #
edge $-1 $833 -0.29422769715723973 $694 7.2212910011663709 $693 $891 forward 7 unknown #
vertex $-1 $832 $892 #
straight-curve $-1 -73.449507126071936 3.1693039548473259 10.626404294086001 -0.79863550430605224 0 -0.6018150307709319 I I #
point $-1 -73.449507126071964 3.1693039548473259 10.62640429408598 #
point $-1 -68.187209583544302 10.684822653170936 14.591829998812051 #
straight-curve $-1 -73.449507126071964 0 14.591829998812051 0 -1 0 I I #
vertex $-1 $700 $893 #
point $-1 -70.016884447960706 5.3165950115112182 11.96093539983571 #
vertex $-1 $704 $894 #
point $-1 -70.016884447960706 8.5375315965070442 11.96093539983571 #
edge $-1 $843 7.4782638281507872 $846 12.740561370678449 $709 $895 forward 7 unknown #
vertex $-1 $713 $896 #
straight-curve $-1 -73.449507126071964 16.243022770641449 63.972586311704461 0 0 1 I I #
edge $-1 $846 6.2426317107398219 $720 13.758150409063433 $719 $897 forward 7 unknown #
vertex $-1 $845 $898 #
straight-curve $-1 -73.449507126071936 16.243022770641449 10.626404294086001 -0.79863550430605224 0 -0.6018150307709319 I I #
point $-1 -73.449507126071964 16.243022770641449 10.62640429408598 #
point $-1 -68.187209583544302 23.75854146896506 14.591829998812051 #
straight-curve $-1 -73.449507126071964 0 14.591829998812051 0 -1 0 I I #
vertex $-1 $726 $899 #
point $-1 -70.016884447960706 18.390313827305341 11.96093539983571 #
vertex $-1 $730 $900 #
point $-1 -70.016884447960706 21.611250412301168 11.96093539983571 #
straight-curve $-1 -73.449507126071964 42.934797648306819 0 0 0 -1 I I #
point $-1 -73.449507126071964 -42.934797648306819 -14.591829998812051 #
straight-curve $-1 -73.449507126071964 0 -14.591829998812051 0 1 0 I I #
point $-1 -73.449507126071964 42.934797648306819 -14.591829998812051 #
straight-curve $-1 -73.449507126071964 -17.270558819973765 5.7168270654663598 0 -1 0 I I #
point $-1 -73.449507126071964 -42.934797648306819 5.7168270654663598 #
point $-1 -73.449507126071964 -26.14743763158824 5.7168270654663598 #
straight-curve $-1 -73.449507126071964 -26.14743763158824 4.7929543295513009 0 0 -1 I I #
straight-curve $-1 -73.449507126071964 -42.934797648306819 0 0 0 -1 I I #
vertex $-1 $772 $901 #
straight-curve $-1 0 42.934797648306819 5.7168270654663598 -1 0 0 I I #
point $-1 73.449507126071964 42.934797648306827 5.7168270654663598 #
edge $-1 $777 -13.454990252738844 $864 -5.7168270654663598 $776 $902 forward 7 unknown #
point $-1 -73.449507126071964 42.934797648306827 13.454990252738844 #
straight-curve $-1 73.449507126071964 42.934797648306819 0 0 0 -1 I I #
straight-curve $-1 -73.449507126071964 17.270558819973768 5.7168270654663598 0 -1 0 I I #
straight-curve $-1 73.449507126071964 26.147437631588247 106.63435004338763 0 0 1 I I #
straight-curve $-1 64.090314570178066 10.677446584816277 14.591829998812052 0 -1 0 I I #
point $-1 73.449507126071964 26.147437631588247 14.591829998812051 #
point $-1 64.090314570178094 26.147437631588247 14.591829998812045 #
point $-1 65.739655265839062 19.300945543080111 6.9348748572237611 #
point $-1 65.739655265839062 23.408840796184997 6.9348748572237611 #
straight-curve $-1 -80.927770954222751 -22.978133676740917 14.591829998812052 1 0 0 I I #
point $-1 -73.449507126071964 -22.978133676740917 14.591829998812051 #
straight-curve $-1 -68.187209583544302 -9.610187163789556 14.591829998812052 0 1 0 I I #
point $-1 -68.187209583544302 -22.978133676740917 14.591829998812051 #
point $-1 -70.066089566344488 -20.830842620077028 11.610822766066464 #
point $-1 -70.066089566344488 -17.609906035081195 11.610822766066464 #
straight-curve $-1 -80.927770954222751 -9.9044148609467975 14.591829998812052 1 0 0 I I #
point $-1 -73.449507126071964 -9.9044148609467975 14.591829998812051 #
straight-curve $-1 -68.187209583544302 -3.0733277558924961 14.591829998812052 0 1 0 I I #
point $-1 -68.187209583544302 -9.9044148609467975 14.591829998812051 #
point $-1 -70.066089566344488 -7.7571238042829052 11.610822766066464 #
point $-1 -70.066089566344488 -4.5361872192870791 11.610822766066464 #
straight-curve $-1 -80.927770954222751 3.1693039548473259 14.591829998812052 1 0 0 I I #
point $-1 -73.449507126071964 3.1693039548473259 14.591829998812051 #
straight-curve $-1 -68.187209583544302 3.4635316520045656 14.591829998812052 0 1 0 I I #
point $-1 -68.187209583544302 3.1693039548473259 14.591829998812051 #
point $-1 -70.066089566344488 5.3165950115112182 11.610822766066464 #
point $-1 -70.066089566344488 8.5375315965070442 11.610822766066464 #
straight-curve $-1 -80.927770954222751 16.243022770641449 14.591829998812052 1 0 0 I I #
point $-1 -73.449507126071964 16.243022770641449 14.591829998812051 #
straight-curve $-1 -68.187209583544302 10.000391059901627 14.591829998812052 0 1 0 I I #
point $-1 -68.187209583544302 16.243022770641449 14.591829998812051 #
point $-1 -70.066089566344488 18.390313827305341 11.610822766066464 #
point $-1 -70.066089566344488 21.611250412301168 11.610822766066464 #
point $-1 -73.449507126071964 42.934797648306827 5.7168270654663598 #
straight-curve $-1 -73.449507126071964 42.934797648306819 0 0 0 -1 I I #
End-of-ACIS-data 