500 0 14 0           
7 Unknown 11 ACIS 5.0 NT 24 Thu Mar 25 15:46:08 1999 
-1 9.9999999999999995e-007 1e-010 
body $-1 $14 $-1 $15 #
body $-1 $16 $-1 $17 #
body $-1 $18 $-1 $19 #
body $-1 $20 $-1 $21 #
body $-1 $22 $-1 $23 #
body $-1 $24 $-1 $25 #
body $-1 $26 $-1 $27 #
body $-1 $28 $-1 $29 #
body $-1 $30 $-1 $31 #
body $-1 $32 $-1 $33 #
body $-1 $34 $-1 $35 #
body $-1 $36 $-1 $37 #
body $-1 $38 $-1 $39 #
body $-1 $40 $-1 $41 #
lump $-1 $-1 $42 $0 #
transform $-1 1 0 0 0 1 0 0 0 1 66.114078188421274 43.212138905677179 18.814892598263384 1 rotate no_reflect no_shear #
lump $-1 $-1 $43 $1 #
transform $-1 1 0 0 0 1 0 0 0 1 66.114078188421274 43.212138905677179 18.814892598263384 1 rotate no_reflect no_shear #
lump $-1 $-1 $44 $2 #
transform $-1 1 0 0 0 1 0 0 0 1 66.114078188421274 43.212138905677179 18.814892598263384 1 rotate no_reflect no_shear #
lump $-1 $-1 $45 $3 #
transform $-1 1 0 0 0 1 0 0 0 1 66.114078188421274 43.212138905677179 18.814892598263384 1 rotate no_reflect no_shear #
lump $-1 $-1 $46 $4 #
transform $-1 1 0 0 0 1 0 0 0 1 66.114078188421274 43.212138905677179 18.814892598263384 1 rotate no_reflect no_shear #
lump $-1 $-1 $47 $5 #
transform $-1 1 0 0 0 1 0 0 0 1 66.114078188421274 43.212138905677179 18.814892598263384 1 rotate no_reflect no_shear #
lump $-1 $-1 $48 $6 #
transform $-1 1 0 0 0 1 0 0 0 1 66.114078188421274 43.212138905677179 18.814892598263384 1 rotate no_reflect no_shear #
lump $-1 $-1 $49 $7 #
transform $-1 1 0 0 0 1 0 0 0 1 66.114078188421274 43.212138905677179 18.814892598263384 1 rotate no_reflect no_shear #
lump $-1 $-1 $50 $8 #
transform $-1 1 0 0 0 1 0 0 0 1 66.114078188421274 43.212138905677179 18.814892598263384 1 rotate no_reflect no_shear #
lump $-1 $-1 $51 $9 #
transform $-1 1 0 0 0 1 0 0 0 1 66.114078188421274 43.212138905677179 18.814892598263384 1 rotate no_reflect no_shear #
lump $-1 $-1 $52 $10 #
transform $-1 1 0 0 0 1 0 0 0 1 66.114078188421274 43.212138905677179 18.814892598263384 1 rotate no_reflect no_shear #
lump $-1 $-1 $53 $11 #
transform $-1 1 0 0 0 1 0 0 0 1 66.114078188421274 43.212138905677179 18.814892598263384 1 rotate no_reflect no_shear #
lump $-1 $-1 $54 $12 #
transform $-1 1 0 0 0 1 0 0 0 1 66.114078188421274 43.212138905677179 18.814892598263384 1 rotate no_reflect no_shear #
lump $-1 $-1 $55 $13 #
transform $-1 1 0 0 0 1 0 0 0 1 66.114078188421274 43.212138905677179 18.814892598263384 1 rotate no_reflect no_shear #
shell $-1 $-1 $-1 $56 $-1 $14 #
shell $-1 $-1 $-1 $57 $-1 $16 #
shell $-1 $-1 $-1 $58 $-1 $18 #
shell $-1 $-1 $-1 $59 $-1 $20 #
shell $-1 $-1 $-1 $60 $-1 $22 #
shell $-1 $-1 $-1 $61 $-1 $24 #
shell $-1 $-1 $-1 $62 $-1 $26 #
shell $-1 $-1 $-1 $63 $-1 $28 #
shell $-1 $-1 $-1 $64 $-1 $30 #
shell $-1 $-1 $-1 $65 $-1 $32 #
shell $-1 $-1 $-1 $66 $-1 $34 #
shell $-1 $-1 $-1 $67 $-1 $36 #
shell $-1 $-1 $-1 $68 $-1 $38 #
shell $-1 $-1 $-1 $69 $-1 $40 #
face $-1 $70 $71 $42 $-1 $72 forward single #
face $-1 $73 $74 $43 $-1 $75 reversed single #
face $-1 $76 $77 $44 $-1 $78 reversed single #
face $-1 $79 $80 $45 $-1 $81 forward single #
face $-1 $82 $83 $46 $-1 $84 forward single #
face $-1 $85 $86 $47 $-1 $87 reversed single #
face $-1 $88 $89 $48 $-1 $90 forward single #
face $-1 $91 $92 $49 $-1 $93 forward single #
face $-1 $94 $95 $50 $-1 $96 reversed single #
face $-1 $97 $98 $51 $-1 $99 forward single #
face $-1 $100 $101 $52 $-1 $102 forward single #
face $-1 $103 $104 $53 $-1 $105 reversed single #
face $-1 $106 $107 $54 $-1 $108 forward single #
face $-1 $109 $110 $55 $-1 $111 forward single #
face $-1 $112 $113 $42 $-1 $114 reversed single #
loop $-1 $-1 $115 $56 #
plane-surface $-1 0 0 18.814892598263384 0 0 1 1 0 0 forward_v I I I I #
face $-1 $116 $117 $43 $-1 $118 reversed single #
loop $-1 $-1 $119 $57 #
plane-surface $-1 -59.195724985314058 -40.222960071957473 0 0 1 0 0 0 1 forward_v I I I I #
face $-1 $120 $121 $44 $-1 $122 reversed single #
loop $-1 $-1 $123 $58 #
plane-surface $-1 -17.230005080491921 70.184810947311306 160.19523191560646 1 0 0 0 -0.68199836817093118 -0.7313536940579346 forward_v I I I I #
face $-1 $124 $125 $45 $-1 $126 forward single #
loop $-1 $127 $128 $59 #
cone-surface $-1 -10.330474142320739 33.72660309598929 9.7127019151830609 0 -0.68199836817093118 -0.7313536940579346 1.5 0 0 1 I I 0 1 1.5 forward I I I I #
face $-1 $129 $130 $46 $-1 $131 forward single #
loop $-1 $132 $133 $60 #
cone-surface $-1 0.018822264936034117 33.72660309598929 9.7127019151830609 0 -0.68199836817093118 -0.7313536940579346 1.5 0 0 1 I I 0 1 1.5 forward I I I I #
face $-1 $134 $135 $47 $-1 $136 reversed single #
loop $-1 $-1 $137 $61 #
plane-surface $-1 41.965719904822144 70.184810947311306 160.19523191560646 1 0 0 0 -0.68199836817093118 -0.7313536940579346 forward_v I I I I #
face $-1 $138 $139 $48 $-1 $140 forward single #
loop $-1 $141 $142 $62 #
cone-surface $-1 48.865250842993319 33.72660309598929 9.7127019151830609 0 -0.68199836817093118 -0.7313536940579346 1.5 0 0 1 I I 0 1 1.5 forward I I I I #
face $-1 $143 $144 $49 $-1 $145 forward single #
loop $-1 $146 $147 $63 #
cone-surface $-1 59.214547250250092 33.72660309598929 9.7127019151830609 0 -0.68199836817093118 -0.7313536940579346 1.5 0 0 1 I I 0 1 1.5 forward I I I I #
face $-1 $148 $149 $50 $-1 $150 reversed single #
loop $-1 $-1 $151 $64 #
plane-surface $-1 -19.960071250840841 -131.6900464239406 100.5562769525399 -1 0 0 0 -0.66913061440640931 0.74314481823134659 forward_v I I I I #
face $-1 $152 $153 $51 $-1 $154 forward single #
loop $-1 $155 $156 $65 #
cone-surface $-1 -30.264332566128175 -32.486481926171408 8.8316078929704016 0 0.66913061440640931 -0.74314481823134659 1.5 0 0 1 I I 0 1 1.5 forward I I I I #
face $-1 $157 $158 $52 $-1 $159 forward single #
loop $-1 $160 $161 $66 #
cone-surface $-1 -24.081775776955766 -32.486481926171408 8.8316078929704016 0 0.66913061440640931 -0.74314481823134659 1.5 0 0 1 I I 0 1 1.5 forward I I I I #
face $-1 $162 $163 $53 $-1 $164 reversed single #
loop $-1 $-1 $165 $67 #
plane-surface $-1 39.235653734473217 -131.6900464239406 100.5562769525399 -1 0 0 0 -0.66913061440640931 0.74314481823134659 forward_v I I I I #
face $-1 $166 $167 $54 $-1 $168 forward single #
loop $-1 $169 $170 $68 #
cone-surface $-1 28.931392419185883 -32.486481926171408 8.8316078929704016 0 0.66913061440640931 -0.74314481823134659 1.5 0 0 1 I I 0 1 1.5 forward I I I I #
face $-1 $171 $172 $55 $-1 $173 forward single #
loop $-1 $174 $175 $69 #
cone-surface $-1 35.113949208358292 -32.486481926171408 8.8316078929704016 0 0.66913061440640931 -0.74314481823134659 1.5 0 0 1 I I 0 1 1.5 forward I I I I #
face $-1 $176 $177 $42 $-1 $178 reversed single #
loop $-1 $-1 $179 $70 #
plane-surface $-1 0 0 -18.814892598263384 0 0 1 1 0 0 forward_v I I I I #
coedge $-1 $180 $181 $182 $183 forward $71 $-1 #
face $-1 $184 $185 $43 $-1 $186 reversed single #
loop $-1 $-1 $187 $73 #
plane-surface $-1 -59.195724985314058 -32.6380898584042 0 0 -1 0 0 0 -1 forward_v I I I I #
coedge $-1 $188 $189 $190 $191 reversed $74 $-1 #
face $-1 $192 $193 $44 $-1 $194 reversed single #
loop $-1 $-1 $195 $76 #
plane-surface $-1 -5.1558259386923524 -19.994575927946016 63.48968129093241 0 0.68199836817093118 0.7313536940579346 1 0 0 forward_v I I I I #
coedge $-1 $196 $197 $198 $199 reversed $77 $-1 #
face $-1 $-1 $200 $45 $-1 $201 forward single #
loop $-1 $202 $203 $79 #
cone-surface $-1 -10.330474142320739 31.379003698939101 7.1952098340722159 0 -0.68199836817093118 -0.7313536940579346 0.75 0 0 1 I I -0.70710678118654757 0.70710678118654757 0.75 forward I I I I #
loop $-1 $-1 $204 $59 #
coedge $-1 $128 $128 $205 $206 reversed $80 $-1 #
face $-1 $-1 $207 $46 $-1 $208 forward single #
loop $-1 $209 $210 $82 #
cone-surface $-1 0.018822264936034117 31.379003698939101 7.1952098340722159 0 -0.68199836817093118 -0.7313536940579346 0.75 0 0 1 I I -0.70710678118654757 0.70710678118654757 0.75 forward I I I I #
loop $-1 $-1 $211 $60 #
coedge $-1 $133 $133 $212 $213 reversed $83 $-1 #
face $-1 $214 $215 $47 $-1 $216 forward single #
loop $-1 $-1 $217 $85 #
plane-surface $-1 54.039899046621713 -19.994575927946016 63.48968129093241 0 0.68199836817093118 0.7313536940579346 1 0 0 forward_v I I I I #
coedge $-1 $218 $219 $220 $221 reversed $86 $-1 #
face $-1 $-1 $222 $48 $-1 $223 forward single #
loop $-1 $224 $225 $88 #
cone-surface $-1 48.865250842993319 31.379003698939101 7.1952098340722159 0 -0.68199836817093118 -0.7313536940579346 0.75 0 0 1 I I -0.70710678118654757 0.70710678118654757 0.75 forward I I I I #
loop $-1 $-1 $226 $62 #
coedge $-1 $142 $142 $227 $228 reversed $89 $-1 #
face $-1 $-1 $229 $49 $-1 $230 forward single #
loop $-1 $231 $232 $91 #
cone-surface $-1 59.214547250250092 31.379003698939101 7.1952098340722159 0 -0.68199836817093118 -0.7313536940579346 0.75 0 0 1 I I -0.70710678118654757 0.70710678118654757 0.75 forward I I I I #
loop $-1 $-1 $233 $63 #
coedge $-1 $147 $147 $234 $235 reversed $92 $-1 #
face $-1 $236 $237 $50 $-1 $238 reversed single #
loop $-1 $-1 $239 $94 #
plane-surface $-1 -27.173054171541978 -43.212138905677179 2.2916077168051743 0 -0.66913061440640931 0.74314481823134659 1 0 0 forward_v I I I I #
coedge $-1 $240 $241 $242 $243 reversed $95 $-1 #
face $-1 $-1 $244 $51 $-1 $245 forward single #
loop $-1 $246 $247 $97 #
cone-surface $-1 -30.264332566128175 -30.434460273760457 6.5526070147330238 0 0.66913061440640931 -0.74314481823134659 0.75 0 0 1 I I -0.70710678118654757 0.70710678118654757 0.75 forward I I I I #
loop $-1 $-1 $248 $65 #
coedge $-1 $156 $156 $249 $250 reversed $98 $-1 #
face $-1 $-1 $251 $52 $-1 $252 forward single #
loop $-1 $253 $254 $100 #
cone-surface $-1 -24.081775776955766 -30.434460273760457 6.5526070147330238 0 0.66913061440640931 -0.74314481823134659 0.75 0 0 1 I I -0.70710678118654757 0.70710678118654757 0.75 forward I I I I #
loop $-1 $-1 $255 $66 #
coedge $-1 $161 $161 $256 $257 reversed $101 $-1 #
face $-1 $258 $259 $53 $-1 $260 reversed single #
loop $-1 $-1 $261 $103 #
plane-surface $-1 32.022670813772081 -43.212138905677179 2.2916077168051743 0 -0.66913061440640931 0.74314481823134659 1 0 0 forward_v I I I I #
coedge $-1 $262 $263 $264 $265 reversed $104 $-1 #
face $-1 $-1 $266 $54 $-1 $267 forward single #
loop $-1 $268 $269 $106 #
cone-surface $-1 28.931392419185883 -30.434460273760457 6.5526070147330238 0 0.66913061440640931 -0.74314481823134659 0.75 0 0 1 I I -0.70710678118654757 0.70710678118654757 0.75 forward I I I I #
loop $-1 $-1 $270 $68 #
coedge $-1 $170 $170 $271 $272 reversed $107 $-1 #
face $-1 $-1 $273 $55 $-1 $274 forward single #
loop $-1 $275 $276 $109 #
cone-surface $-1 35.113949208358292 -30.434460273760457 6.5526070147330238 0 0.66913061440640931 -0.74314481823134659 0.75 0 0 1 I I -0.70710678118654757 0.70710678118654757 0.75 forward I I I I #
loop $-1 $-1 $277 $69 #
coedge $-1 $175 $175 $278 $279 reversed $110 $-1 #
face $-1 $280 $281 $42 $-1 $282 reversed single #
loop $-1 $-1 $283 $112 #
plane-surface $-1 0 -43.212138905677179 0 0 1 0 0 0 1 forward_v I I I I #
coedge $-1 $284 $285 $286 $287 forward $113 $-1 #
coedge $-1 $288 $115 $289 $290 forward $71 $-1 #
coedge $-1 $115 $288 $291 $292 forward $71 $-1 #
coedge $-1 $293 $294 $115 $183 reversed $295 $-1 #
edge $-1 $296 -43.212138905677179 $297 43.212138905677179 $182 $298 forward 7 unknown #
face $-1 $299 $300 $43 $-1 $301 reversed single #
loop $-1 $-1 $302 $116 #
plane-surface $-1 -52.277371782206842 -36.430524965180837 0 -1 0 0 0 0 1 forward_v I I I I #
coedge $-1 $303 $304 $305 $306 forward $117 $-1 #
coedge $-1 $307 $119 $308 $309 reversed $74 $-1 #
coedge $-1 $119 $307 $310 $311 reversed $74 $-1 #
coedge $-1 $312 $313 $119 $191 forward $314 $-1 #
edge $-1 $315 -18.814892598263384 $316 18.814892598263384 $190 $317 forward 7 unknown #
face $-1 $318 $319 $44 $-1 $320 reversed single #
loop $-1 $-1 $321 $120 #
plane-surface $-1 6.9183532031072161 70.184810947311306 160.19523191560646 -1 0 0 0 0.68199836817093118 0.7313536940579346 forward_v I I I I #
coedge $-1 $322 $323 $324 $325 reversed $121 $-1 #
coedge $-1 $197 $123 $326 $327 reversed $77 $-1 #
coedge $-1 $123 $196 $322 $328 reversed $77 $-1 #
coedge $-1 $324 $329 $123 $199 forward $330 $-1 #
edge $-1 $331 -8.1197334320215262 $332 7.1791369455102441 $198 $333 forward 7 unknown #
loop $-1 $-1 $205 $124 #
plane-surface $-1 -5.1558259386923524 -19.994575927946016 63.48968129093241 0 0.68199836817093118 0.7313536940579346 1 0 0 forward_v I I I I #
loop $-1 $-1 $334 $79 #
coedge $-1 $203 $203 $204 $335 reversed $125 $-1 #
coedge $-1 $204 $204 $203 $335 forward $127 $-1 #
coedge $-1 $205 $205 $128 $206 forward $200 $-1 #
edge $-1 $336 0 $336 6.2831853071796004 $205 $337 forward 7 unknown #
loop $-1 $-1 $212 $129 #
plane-surface $-1 -5.1558259386923524 -19.994575927946016 63.48968129093241 0 0.68199836817093118 0.7313536940579346 1 0 0 forward_v I I I I #
loop $-1 $-1 $338 $82 #
coedge $-1 $210 $210 $211 $339 reversed $130 $-1 #
coedge $-1 $211 $211 $210 $339 forward $132 $-1 #
coedge $-1 $212 $212 $133 $213 forward $207 $-1 #
edge $-1 $340 0 $340 6.2831853071796004 $212 $341 forward 7 unknown #
face $-1 $342 $343 $47 $-1 $344 reversed single #
loop $-1 $-1 $220 $134 #
plane-surface $-1 0 0 18.814892598263384 0 0 1 1 0 0 forward_v I I I I #
coedge $-1 $345 $346 $347 $348 reversed $135 $-1 #
coedge $-1 $219 $137 $349 $350 reversed $86 $-1 #
coedge $-1 $137 $218 $345 $351 reversed $86 $-1 #
coedge $-1 $347 $352 $137 $221 forward $215 $-1 #
edge $-1 $353 -8.1197334320215262 $354 7.1791369455102441 $220 $355 forward 7 unknown #
loop $-1 $-1 $227 $138 #
plane-surface $-1 54.039899046621713 -19.994575927946016 63.48968129093241 0 0.68199836817093118 0.7313536940579346 1 0 0 forward_v I I I I #
loop $-1 $-1 $356 $88 #
coedge $-1 $225 $225 $226 $357 reversed $139 $-1 #
coedge $-1 $226 $226 $225 $357 forward $141 $-1 #
coedge $-1 $227 $227 $142 $228 forward $222 $-1 #
edge $-1 $358 0 $358 6.2831853071796004 $227 $359 forward 7 unknown #
loop $-1 $-1 $234 $143 #
plane-surface $-1 54.039899046621713 -19.994575927946016 63.48968129093241 0 0.68199836817093118 0.7313536940579346 1 0 0 forward_v I I I I #
loop $-1 $-1 $360 $91 #
coedge $-1 $232 $232 $233 $361 reversed $144 $-1 #
coedge $-1 $233 $233 $232 $361 forward $146 $-1 #
coedge $-1 $234 $234 $147 $235 forward $229 $-1 #
edge $-1 $362 0 $362 6.2831853071796004 $234 $363 forward 7 unknown #
face $-1 $364 $365 $50 $-1 $366 reversed single #
loop $-1 $-1 $367 $148 #
plane-surface $-1 -34.386037092243114 -131.6900464239406 100.5562769525399 1 0 0 0 0.66913061440640931 -0.74314481823134659 forward_v I I I I #
coedge $-1 $368 $369 $370 $371 reversed $149 $-1 #
coedge $-1 $241 $151 $372 $373 reversed $95 $-1 #
coedge $-1 $151 $240 $368 $374 reversed $95 $-1 #
coedge $-1 $370 $375 $151 $243 forward $376 $-1 #
edge $-1 $377 22.632884306293121 $378 40.983850882092348 $242 $379 forward 7 unknown #
loop $-1 $-1 $249 $152 #
plane-surface $-1 -27.173054171541978 -43.212138905677179 2.2916077168051743 0 -0.66913061440640931 0.74314481823134659 1 0 0 forward_v I I I I #
loop $-1 $-1 $380 $97 #
coedge $-1 $247 $247 $248 $381 reversed $153 $-1 #
coedge $-1 $248 $248 $247 $381 forward $155 $-1 #
coedge $-1 $249 $249 $156 $250 forward $244 $-1 #
edge $-1 $382 -1.2342179586647117e-015 $382 6.2831853071795996 $249 $383 forward 7 unknown #
loop $-1 $-1 $256 $157 #
plane-surface $-1 -27.173054171541978 -43.212138905677179 2.2916077168051743 0 -0.66913061440640931 0.74314481823134659 1 0 0 forward_v I I I I #
loop $-1 $-1 $384 $100 #
coedge $-1 $254 $254 $255 $385 reversed $158 $-1 #
coedge $-1 $255 $255 $254 $385 forward $160 $-1 #
coedge $-1 $256 $256 $161 $257 forward $251 $-1 #
edge $-1 $386 -1.2342179586647117e-015 $386 6.2831853071795996 $256 $387 forward 7 unknown #
face $-1 $388 $389 $53 $-1 $390 reversed single #
loop $-1 $-1 $391 $162 #
plane-surface $-1 24.809687893070944 -131.6900464239406 100.5562769525399 1 0 0 0 0.66913061440640931 -0.74314481823134659 forward_v I I I I #
coedge $-1 $392 $393 $394 $395 reversed $163 $-1 #
coedge $-1 $263 $165 $396 $397 reversed $104 $-1 #
coedge $-1 $165 $262 $392 $398 reversed $104 $-1 #
coedge $-1 $394 $399 $165 $265 forward $400 $-1 #
edge $-1 $401 22.632884306293121 $402 40.983850882092348 $264 $403 forward 7 unknown #
loop $-1 $-1 $271 $166 #
plane-surface $-1 32.022670813772081 -43.212138905677179 2.2916077168051743 0 -0.66913061440640931 0.74314481823134659 1 0 0 forward_v I I I I #
loop $-1 $-1 $404 $106 #
coedge $-1 $269 $269 $270 $405 reversed $167 $-1 #
coedge $-1 $270 $270 $269 $405 forward $169 $-1 #
coedge $-1 $271 $271 $170 $272 forward $266 $-1 #
edge $-1 $406 -1.2342179586647117e-015 $406 6.2831853071795996 $271 $407 forward 7 unknown #
loop $-1 $-1 $278 $171 #
plane-surface $-1 32.022670813772081 -43.212138905677179 2.2916077168051743 0 -0.66913061440640931 0.74314481823134659 1 0 0 forward_v I I I I #
loop $-1 $-1 $408 $109 #
coedge $-1 $276 $276 $277 $409 reversed $172 $-1 #
coedge $-1 $277 $277 $276 $409 forward $174 $-1 #
coedge $-1 $278 $278 $175 $279 forward $273 $-1 #
edge $-1 $410 -1.2342179586647117e-015 $410 6.2831853071795996 $278 $411 forward 7 unknown #
face $-1 $412 $413 $42 $-1 $414 reversed single #
loop $-1 $-1 $415 $176 #
plane-surface $-1 -66.114078188421274 0 0 1 0 0 0 0 -1 forward_v I I I I #
coedge $-1 $416 $291 $417 $418 forward $177 $-1 #
coedge $-1 $419 $179 $416 $420 forward $113 $-1 #
coedge $-1 $179 $419 $421 $422 forward $113 $-1 #
coedge $-1 $294 $293 $179 $287 reversed $295 $-1 #
edge $-1 $423 -43.212138905677179 $424 43.212138905677179 $286 $425 forward 7 unknown #
coedge $-1 $181 $180 $426 $427 forward $71 $-1 #
coedge $-1 $428 $429 $180 $290 reversed $413 $-1 #
edge $-1 $297 -66.114078188421274 $430 66.114078188421274 $289 $431 forward 7 unknown #
coedge $-1 $283 $432 $181 $292 reversed $177 $-1 #
edge $-1 $433 -66.114078188421274 $296 66.114078188421274 $291 $434 forward 7 unknown #
coedge $-1 $286 $182 $432 $435 forward $295 $-1 #
coedge $-1 $182 $286 $428 $436 reversed $295 $-1 #
loop $-1 $-1 $293 $412 #
vertex $-1 $183 $437 #
vertex $-1 $183 $438 #
straight-curve $-1 66.114078188421274 0 18.814892598263384 0 1 0 I I #
face $-1 $439 $440 $43 $-1 $441 forward single #
loop $-1 $-1 $442 $184 #
plane-surface $-1 0 0 -18.814892598263384 0 0 1 1 0 0 forward_v I I I I #
coedge $-1 $443 $444 $307 $445 forward $185 $-1 #
coedge $-1 $446 $187 $442 $447 reversed $117 $-1 #
coedge $-1 $187 $446 $448 $449 reversed $117 $-1 #
coedge $-1 $444 $443 $187 $306 reversed $185 $-1 #
edge $-1 $450 -18.814892598263384 $451 18.814892598263384 $305 $452 forward 7 unknown #
coedge $-1 $189 $188 $302 $445 reversed $74 $-1 #
coedge $-1 $453 $454 $188 $309 forward $300 $-1 #
edge $-1 $455 22.679509289549813 $315 36.516215695764245 $308 $456 forward 7 unknown #
coedge $-1 $457 $458 $189 $311 forward $440 $-1 #
edge $-1 $316 -36.516215695764245 $459 -22.679509289549813 $310 $460 forward 7 unknown #
coedge $-1 $461 $190 $458 $462 reversed $314 $-1 #
coedge $-1 $190 $461 $453 $463 reversed $314 $-1 #
loop $-1 $-1 $461 $439 #
vertex $-1 $463 $464 #
vertex $-1 $191 $465 #
straight-curve $-1 -66.114078188421274 -40.222960071957473 0 0 0 1 I I #
face $-1 $-1 $330 $44 $-1 $466 forward single #
loop $-1 $-1 $467 $192 #
plane-surface $-1 0 43.212138905677179 0 0 -1 0 0 0 -1 forward_v I I I I #
coedge $-1 $468 $469 $470 $471 reversed $193 $-1 #
coedge $-1 $472 $195 $197 $328 forward $121 $-1 #
coedge $-1 $195 $472 $468 $473 forward $121 $-1 #
coedge $-1 $470 $198 $195 $325 forward $330 $-1 #
edge $-1 $332 -14.652092111145745 $474 9.4962661724533923 $324 $475 forward 7 unknown #
coedge $-1 $476 $477 $196 $327 forward $319 $-1 #
edge $-1 $478 -75.549151104565695 $331 -61.282723359539844 $326 $479 forward 7 unknown #
edge $-1 $332 65.505712004096864 $478 86.42427781135433 $197 $480 forward 7 unknown #
coedge $-1 $198 $470 $476 $481 forward $330 $-1 #
loop $-1 $-1 $470 $318 #
vertex $-1 $327 $482 #
vertex $-1 $199 $483 #
straight-curve $-1 -17.230005080491921 35.092405473655653 18.814892598263384 0 -1 0 I I #
coedge $-1 $334 $334 $-1 $484 reversed $202 $-1 #
edge $-1 $485 0 $485 6.2831853071796004 $203 $486 forward 7 unknown #
vertex $-1 $206 $487 #
ellipse-curve $-1 -10.330474142320739 35.562703716911287 11.681678725750455 0 0.68199836817093118 0.7313536940579346 1.5 0 0 1 I I #
coedge $-1 $338 $338 $-1 $488 reversed $209 $-1 #
edge $-1 $489 0 $489 6.2831853071796004 $210 $490 forward 7 unknown #
vertex $-1 $213 $491 #
ellipse-curve $-1 0.018822264936034117 35.562703716911287 11.681678725750455 0 0.68199836817093118 0.7313536940579346 1.5 0 0 1 I I #
face $-1 $-1 $492 $47 $-1 $493 reversed single #
loop $-1 $-1 $494 $214 #
plane-surface $-1 66.114078188421274 0 0 -1 0 0 0 0 1 forward_v I I I I #
coedge $-1 $495 $217 $219 $351 forward $135 $-1 #
coedge $-1 $217 $495 $494 $496 reversed $135 $-1 #
coedge $-1 $497 $220 $217 $348 forward $215 $-1 #
edge $-1 $354 14.945770381511288 $498 39.094128665110418 $347 $499 forward 7 unknown #
coedge $-1 $500 $501 $218 $350 forward $492 $-1 #
edge $-1 $502 -75.549151104565695 $353 -61.282723359539844 $349 $503 forward 7 unknown #
edge $-1 $354 65.505712004096864 $502 86.42427781135433 $219 $504 forward 7 unknown #
coedge $-1 $220 $497 $500 $505 forward $215 $-1 #
vertex $-1 $350 $506 #
vertex $-1 $221 $507 #
straight-curve $-1 41.965719904822144 35.092405473655653 18.814892598263384 0 -1 0 I I #
coedge $-1 $356 $356 $-1 $508 reversed $224 $-1 #
edge $-1 $509 0 $509 6.2831853071796004 $225 $510 forward 7 unknown #
vertex $-1 $228 $511 #
ellipse-curve $-1 48.865250842993319 35.562703716911287 11.681678725750455 0 0.68199836817093118 0.7313536940579346 1.5 0 0 1 I I #
coedge $-1 $360 $360 $-1 $512 reversed $231 $-1 #
edge $-1 $513 0 $513 6.2831853071796004 $232 $514 forward 7 unknown #
vertex $-1 $235 $515 #
ellipse-curve $-1 59.214547250250092 35.562703716911287 11.681678725750455 0 0.68199836817093118 0.7313536940579346 1.5 0 0 1 I I #
face $-1 $-1 $376 $50 $-1 $516 forward single #
loop $-1 $-1 $517 $236 #
plane-surface $-1 0 -43.212138905677179 0 0 1 0 0 0 1 forward_v I I I I #
coedge $-1 $518 $519 $520 $521 reversed $237 $-1 #
coedge $-1 $522 $239 $241 $374 forward $149 $-1 #
coedge $-1 $239 $522 $518 $523 forward $149 $-1 #
coedge $-1 $520 $242 $239 $371 forward $376 $-1 #
edge $-1 $378 6.3735441650698519 $524 20.799510006472126 $370 $525 forward 7 unknown #
coedge $-1 $526 $527 $240 $373 forward $365 $-1 #
edge $-1 $528 -47.986530759464777 $377 -31.463245878006568 $372 $529 forward 7 unknown #
edge $-1 $378 -24.6936614850841 $528 0 $241 $530 forward 7 unknown #
coedge $-1 $242 $520 $526 $531 forward $376 $-1 #
loop $-1 $-1 $520 $364 #
vertex $-1 $373 $532 #
vertex $-1 $243 $533 #
straight-curve $-1 -19.960071250840841 -65.8450232119703 18.814892598263384 0 1 0 I I #
coedge $-1 $380 $380 $-1 $534 reversed $246 $-1 #
edge $-1 $535 0 $535 6.2831853071796004 $247 $536 forward 7 unknown #
vertex $-1 $250 $537 #
ellipse-curve $-1 -30.264332566128175 -34.036655617777562 10.553250157534283 0 -0.66913061440640931 0.74314481823134659 1.5 0 0 1 I I #
coedge $-1 $384 $384 $-1 $538 reversed $253 $-1 #
edge $-1 $539 0 $539 6.2831853071796004 $254 $540 forward 7 unknown #
vertex $-1 $257 $541 #
ellipse-curve $-1 -24.081775776955766 -34.036655617777562 10.553250157534283 0 -0.66913061440640931 0.74314481823134659 1.5 0 0 1 I I #
face $-1 $-1 $400 $53 $-1 $542 forward single #
loop $-1 $-1 $543 $258 #
plane-surface $-1 0 -43.212138905677179 0 0 1 0 0 0 1 forward_v I I I I #
coedge $-1 $544 $545 $546 $547 reversed $259 $-1 #
coedge $-1 $548 $261 $263 $398 forward $163 $-1 #
coedge $-1 $261 $548 $544 $549 forward $163 $-1 #
coedge $-1 $546 $264 $261 $395 forward $400 $-1 #
edge $-1 $402 -23.224318327587177 $550 -8.7983524861849034 $394 $551 forward 7 unknown #
coedge $-1 $552 $553 $262 $397 forward $389 $-1 #
edge $-1 $554 -47.986530759464777 $401 -31.463245878006568 $396 $555 forward 7 unknown #
edge $-1 $402 -24.6936614850841 $554 0 $263 $556 forward 7 unknown #
coedge $-1 $264 $546 $552 $557 forward $400 $-1 #
loop $-1 $-1 $546 $388 #
vertex $-1 $397 $558 #
vertex $-1 $265 $559 #
straight-curve $-1 39.235653734473217 -65.8450232119703 18.814892598263384 0 1 0 I I #
coedge $-1 $404 $404 $-1 $560 reversed $268 $-1 #
edge $-1 $561 0 $561 6.2831853071796004 $269 $562 forward 7 unknown #
vertex $-1 $272 $563 #
ellipse-curve $-1 28.931392419185883 -34.036655617777562 10.553250157534283 0 -0.66913061440640931 0.74314481823134659 1.5 0 0 1 I I #
coedge $-1 $408 $408 $-1 $564 reversed $275 $-1 #
edge $-1 $565 0 $565 6.2831853071796004 $276 $566 forward 7 unknown #
vertex $-1 $279 $567 #
ellipse-curve $-1 35.113949208358292 -34.036655617777562 10.553250157534283 0 -0.66913061440640931 0.74314481823134659 1.5 0 0 1 I I #
face $-1 $-1 $295 $42 $-1 $568 reversed single #
loop $-1 $-1 $428 $280 #
plane-surface $-1 0 43.212138905677179 0 0 -1 0 0 0 -1 forward_v I I I I #
coedge $-1 $569 $426 $429 $570 forward $281 $-1 #
coedge $-1 $432 $283 $284 $420 reversed $177 $-1 #
coedge $-1 $426 $569 $283 $418 reversed $281 $-1 #
edge $-1 $433 -18.814892598263384 $571 18.814892598263384 $417 $572 forward 7 unknown #
coedge $-1 $285 $284 $569 $573 forward $113 $-1 #
edge $-1 $424 -66.114078188421274 $571 66.114078188421274 $416 $574 forward 7 unknown #
coedge $-1 $429 $428 $285 $422 reversed $413 $-1 #
edge $-1 $575 -66.114078188421274 $423 66.114078188421274 $421 $576 forward 7 unknown #
vertex $-1 $287 $577 #
vertex $-1 $435 $578 #
straight-curve $-1 66.114078188421274 0 -18.814892598263384 0 -1 0 I I #
coedge $-1 $415 $417 $288 $427 reversed $281 $-1 #
edge $-1 $430 -43.212138905677179 $433 43.212138905677179 $426 $579 forward 7 unknown #
coedge $-1 $421 $289 $294 $436 forward $413 $-1 #
coedge $-1 $289 $421 $415 $570 reversed $413 $-1 #
vertex $-1 $290 $580 #
straight-curve $-1 0 43.212138905677179 18.814892598263384 -1 0 0 I I #
coedge $-1 $291 $416 $293 $435 reversed $177 $-1 #
vertex $-1 $427 $581 #
straight-curve $-1 0 -43.212138905677179 18.814892598263384 1 0 0 I I #
edge $-1 $296 -18.814892598263384 $424 18.814892598263384 $293 $582 forward 7 unknown #
edge $-1 $297 -18.814892598263384 $423 18.814892598263384 $294 $583 forward 7 unknown #
point $-1 66.114078188421274 -43.212138905677179 18.814892598263384 #
point $-1 66.114078188421274 43.212138905677179 18.814892598263384 #
face $-1 $-1 $314 $43 $-1 $584 reversed single #
loop $-1 $-1 $448 $299 #
plane-surface $-1 0 0 18.814892598263384 0 0 1 1 0 0 forward_v I I I I #
coedge $-1 $454 $453 $303 $447 forward $300 $-1 #
coedge $-1 $305 $302 $454 $585 reversed $185 $-1 #
coedge $-1 $302 $305 $457 $586 reversed $185 $-1 #
edge $-1 $459 -18.814892598263384 $455 18.814892598263384 $302 $587 forward 7 unknown #
coedge $-1 $304 $303 $461 $588 reversed $117 $-1 #
edge $-1 $589 -36.516215695764245 $451 -22.679509289549813 $442 $590 forward 7 unknown #
coedge $-1 $458 $457 $304 $449 forward $440 $-1 #
edge $-1 $450 22.679509289549813 $591 36.516215695764245 $448 $592 forward 7 unknown #
vertex $-1 $449 $593 #
vertex $-1 $447 $594 #
straight-curve $-1 -52.277371782206842 -32.6380898584042 0 0 0 -1 I I #
coedge $-1 $442 $308 $313 $463 forward $300 $-1 #
coedge $-1 $308 $442 $443 $585 forward $300 $-1 #
vertex $-1 $309 $595 #
straight-curve $-1 -29.597862492657029 -40.222960071957473 -18.814892598263384 -1 0 0 I I #
coedge $-1 $448 $310 $444 $586 forward $440 $-1 #
coedge $-1 $310 $448 $312 $462 forward $440 $-1 #
vertex $-1 $311 $596 #
straight-curve $-1 -29.597862492657029 -40.222960071957473 18.814892598263384 1 0 0 I I #
coedge $-1 $313 $312 $446 $588 forward $314 $-1 #
edge $-1 $591 32.6380898584042 $316 40.222960071957473 $312 $597 forward 7 unknown #
edge $-1 $315 -40.222960071957473 $589 -32.6380898584042 $313 $598 forward 7 unknown #
point $-1 -66.114078188421274 -40.222960071957473 -18.814892598263384 #
point $-1 -66.114078188421274 -40.222960071957473 18.814892598263384 #
plane-surface $-1 0 0 18.814892598263384 0 0 1 1 0 0 forward_v I I I I #
coedge $-1 $477 $476 $469 $599 forward $319 $-1 #
coedge $-1 $469 $321 $323 $473 reversed $193 $-1 #
coedge $-1 $321 $468 $467 $599 reversed $193 $-1 #
coedge $-1 $329 $324 $321 $471 forward $330 $-1 #
edge $-1 $474 -7.1791369455102441 $600 8.1197334320215262 $470 $601 forward 7 unknown #
coedge $-1 $323 $322 $477 $602 reversed $121 $-1 #
edge $-1 $603 -86.42427781135433 $474 -65.505712004096864 $468 $604 forward 7 unknown #
vertex $-1 $325 $605 #
straight-curve $-1 -2.5779129693461762 27.913268528145402 18.814892598263384 1 0 0 I I #
coedge $-1 $467 $326 $329 $481 reversed $319 $-1 #
coedge $-1 $326 $467 $472 $602 forward $319 $-1 #
vertex $-1 $327 $606 #
straight-curve $-1 -17.230005080491921 43.212138905677179 80.097615957803228 0 0 1 I I #
straight-curve $-1 -17.230005080491921 -19.994575927946016 63.48968129093241 0 0.7313536940579346 -0.68199836817093118 I I #
edge $-1 $600 -6.9183532031072161 $331 17.230005080491921 $476 $607 forward 7 unknown #
point $-1 -17.230005080491921 43.212138905677179 18.814892598263384 #
point $-1 -17.230005080491921 27.913268528145409 18.814892598263377 #
edge $-1 $608 1 $608 0 $334 $-1 forward 7 unknown #
vertex $-1 $335 $609 #
ellipse-curve $-1 -10.330474142320739 31.890502475067301 7.7437251046156668 0 0.68199836817093118 0.7313536940579346 1.5 0 0 1 I I #
point $-1 -8.8304741423207389 35.562703716911287 11.681678725750455 #
edge $-1 $610 1 $610 0 $338 $-1 forward 7 unknown #
vertex $-1 $339 $611 #
ellipse-curve $-1 0.018822264936034117 31.890502475067301 7.7437251046156668 0 0.68199836817093118 0.7313536940579346 1.5 0 0 1 I I #
point $-1 1.5188222649360341 35.562703716911287 11.681678725750455 #
loop $-1 $-1 $349 $342 #
plane-surface $-1 0 43.212138905677179 0 0 -1 0 0 0 -1 forward_v I I I I #
coedge $-1 $612 $613 $346 $496 forward $343 $-1 #
coedge $-1 $346 $345 $501 $614 reversed $135 $-1 #
edge $-1 $498 36.544229003030068 $615 57.462794810287548 $494 $616 forward 7 unknown #
coedge $-1 $352 $347 $613 $617 forward $215 $-1 #
vertex $-1 $617 $618 #
straight-curve $-1 27.019949523310856 27.913268528145402 18.814892598263384 1 0 0 I I #
coedge $-1 $619 $349 $352 $505 reversed $492 $-1 #
coedge $-1 $349 $619 $495 $614 forward $492 $-1 #
vertex $-1 $350 $620 #
straight-curve $-1 41.965719904822144 43.212138905677179 80.097615957803228 0 0 1 I I #
straight-curve $-1 41.965719904822144 -19.994575927946016 63.48968129093241 0 0.7313536940579346 -0.68199836817093118 I I #
edge $-1 $621 -66.114078188421274 $353 -41.965719904822144 $500 $622 forward 7 unknown #
point $-1 41.965719904822144 43.212138905677179 18.814892598263384 #
point $-1 41.965719904822144 27.913268528145409 18.814892598263377 #
edge $-1 $623 1 $623 0 $356 $-1 forward 7 unknown #
vertex $-1 $357 $624 #
ellipse-curve $-1 48.865250842993319 31.890502475067301 7.7437251046156668 0 0.68199836817093118 0.7313536940579346 1.5 0 0 1 I I #
point $-1 50.365250842993319 35.562703716911287 11.681678725750455 #
edge $-1 $625 1 $625 0 $360 $-1 forward 7 unknown #
vertex $-1 $361 $626 #
ellipse-curve $-1 59.214547250250092 31.890502475067301 7.7437251046156668 0 0.68199836817093118 0.7313536940579346 1.5 0 0 1 I I #
point $-1 60.714547250250092 35.562703716911287 11.681678725750455 #
plane-surface $-1 0 0 18.814892598263384 0 0 1 1 0 0 forward_v I I I I #
coedge $-1 $527 $526 $519 $627 forward $365 $-1 #
coedge $-1 $519 $367 $369 $523 reversed $237 $-1 #
coedge $-1 $367 $518 $517 $627 reversed $237 $-1 #
coedge $-1 $375 $370 $367 $521 forward $376 $-1 #
edge $-1 $524 -40.983850882092348 $628 -22.632884306293121 $520 $629 forward 7 unknown #
coedge $-1 $369 $368 $527 $630 reversed $149 $-1 #
edge $-1 $631 0 $524 24.6936614850841 $518 $632 forward 7 unknown #
vertex $-1 $371 $633 #
straight-curve $-1 -13.586527085770989 -24.861172329877952 18.814892598263384 -1 0 0 I I #
coedge $-1 $517 $372 $375 $531 reversed $365 $-1 #
coedge $-1 $372 $517 $522 $630 forward $365 $-1 #
vertex $-1 $373 $634 #
straight-curve $-1 -19.960071250840841 -43.212138905677179 50.278138476269952 0 0 1 I I #
straight-curve $-1 -19.960071250840841 -43.212138905677179 2.2916077168051743 0 -0.74314481823134659 -0.66913061440640931 I I #
edge $-1 $628 -34.386037092243114 $377 -19.960071250840841 $526 $635 forward 7 unknown #
point $-1 -19.960071250840841 -43.212138905677179 18.814892598263384 #
point $-1 -19.960071250840841 -24.861172329877952 18.814892598263384 #
edge $-1 $636 1 $636 0 $380 $-1 forward 7 unknown #
vertex $-1 $381 $637 #
ellipse-curve $-1 -30.264332566128175 -30.936308234565264 7.1099656284065338 0 -0.66913061440640931 0.74314481823134659 1.5 0 0 1 I I #
point $-1 -28.764332566128175 -34.036655617777555 10.553250157534272 #
edge $-1 $638 1 $638 0 $384 $-1 forward 7 unknown #
vertex $-1 $385 $639 #
ellipse-curve $-1 -24.081775776955766 -30.936308234565264 7.1099656284065338 0 -0.66913061440640931 0.74314481823134659 1.5 0 0 1 I I #
point $-1 -22.581775776955766 -34.036655617777555 10.553250157534272 #
plane-surface $-1 0 0 18.814892598263384 0 0 1 1 0 0 forward_v I I I I #
coedge $-1 $553 $552 $545 $640 forward $389 $-1 #
coedge $-1 $545 $391 $393 $549 reversed $259 $-1 #
coedge $-1 $391 $544 $543 $640 reversed $259 $-1 #
coedge $-1 $399 $394 $391 $547 forward $400 $-1 #
edge $-1 $550 -40.983850882092348 $641 -22.632884306293121 $546 $642 forward 7 unknown #
coedge $-1 $393 $392 $553 $643 reversed $163 $-1 #
edge $-1 $644 0 $550 24.6936614850841 $544 $645 forward 7 unknown #
vertex $-1 $395 $646 #
straight-curve $-1 16.01133540688604 -24.861172329877952 18.814892598263384 -1 0 0 I I #
coedge $-1 $543 $396 $399 $557 reversed $389 $-1 #
coedge $-1 $396 $543 $548 $643 forward $389 $-1 #
vertex $-1 $397 $647 #
straight-curve $-1 39.235653734473217 -43.212138905677179 50.278138476269952 0 0 1 I I #
straight-curve $-1 39.235653734473217 -43.212138905677179 2.2916077168051743 0 -0.74314481823134659 -0.66913061440640931 I I #
edge $-1 $641 24.809687893070944 $401 39.235653734473217 $552 $648 forward 7 unknown #
point $-1 39.235653734473217 -43.212138905677179 18.814892598263384 #
point $-1 39.235653734473217 -24.861172329877952 18.814892598263384 #
edge $-1 $649 1 $649 0 $404 $-1 forward 7 unknown #
vertex $-1 $405 $650 #
ellipse-curve $-1 28.931392419185883 -30.936308234565264 7.1099656284065338 0 -0.66913061440640931 0.74314481823134659 1.5 0 0 1 I I #
point $-1 30.431392419185883 -34.036655617777555 10.553250157534272 #
edge $-1 $651 1 $651 0 $408 $-1 forward 7 unknown #
vertex $-1 $409 $652 #
ellipse-curve $-1 35.113949208358292 -30.936308234565264 7.1099656284065338 0 -0.66913061440640931 0.74314481823134659 1.5 0 0 1 I I #
point $-1 36.613949208358292 -34.036655617777555 10.553250157534272 #
plane-surface $-1 66.114078188421274 0 0 -1 0 0 0 0 1 forward_v I I I I #
coedge $-1 $417 $415 $419 $573 reversed $281 $-1 #
edge $-1 $430 -18.814892598263384 $575 18.814892598263384 $429 $653 forward 7 unknown #
vertex $-1 $573 $654 #
straight-curve $-1 -66.114078188421274 -43.212138905677179 0 0 0 -1 I I #
edge $-1 $571 -43.212138905677179 $575 43.212138905677179 $569 $655 forward 7 unknown #
straight-curve $-1 0 -43.212138905677179 -18.814892598263384 -1 0 0 I I #
vertex $-1 $422 $656 #
straight-curve $-1 0 43.212138905677179 -18.814892598263384 1 0 0 I I #
point $-1 66.114078188421274 43.212138905677179 -18.814892598263384 #
point $-1 66.114078188421274 -43.212138905677179 -18.814892598263384 #
straight-curve $-1 -66.114078188421274 0 18.814892598263384 0 -1 0 I I #
point $-1 -66.114078188421274 43.212138905677179 18.814892598263384 #
point $-1 -66.114078188421274 -43.212138905677179 18.814892598263384 #
straight-curve $-1 66.114078188421274 -43.212138905677179 0 0 0 -1 I I #
straight-curve $-1 66.114078188421274 43.212138905677179 0 0 0 -1 I I #
plane-surface $-1 -66.114078188421274 0 0 1 0 0 0 0 -1 forward_v I I I I #
edge $-1 $451 14.422827375813782 $455 22.007697589367055 $454 $657 forward 7 unknown #
edge $-1 $459 -22.007697589367055 $450 -14.422827375813782 $457 $658 forward 7 unknown #
straight-curve $-1 -52.277371782206842 -40.222960071957473 0 0 0 -1 I I #
edge $-1 $591 -18.814892598263384 $589 18.814892598263384 $461 $659 forward 7 unknown #
vertex $-1 $588 $660 #
straight-curve $-1 -29.597862492657029 -32.6380898584042 -18.814892598263384 1 0 0 I I #
vertex $-1 $462 $661 #
straight-curve $-1 -29.597862492657029 -32.6380898584042 18.814892598263384 -1 0 0 I I #
point $-1 -52.277371782206842 -32.6380898584042 18.814892598263384 #
point $-1 -52.277371782206842 -32.6380898584042 -18.814892598263384 #
point $-1 -52.277371782206842 -40.222960071957473 -18.814892598263384 #
point $-1 -52.277371782206842 -40.222960071957473 18.814892598263384 #
straight-curve $-1 -66.114078188421274 0 18.814892598263384 0 -1 0 I I #
straight-curve $-1 -66.114078188421274 0 -18.814892598263384 0 1 0 I I #
edge $-1 $600 61.282723359539844 $603 75.549151104565695 $467 $662 forward 7 unknown #
vertex $-1 $481 $663 #
straight-curve $-1 6.9183532031072161 35.092405473655653 18.814892598263384 0 1 0 I I #
edge $-1 $603 -9.4962661724533923 $478 14.652092111145745 $477 $664 forward 7 unknown #
vertex $-1 $602 $665 #
straight-curve $-1 6.9183532031072161 -19.994575927946016 63.48968129093241 0 -0.7313536940579346 0.68199836817093118 I I #
point $-1 6.9183532031072161 27.913268528145409 18.814892598263377 #
point $-1 -17.230005080491921 43.212138905677172 4.5484648532375331 #
straight-curve $-1 0 43.212138905677179 18.814892598263384 -1 0 0 I I #
vertex $-1 $484 $666 #
point $-1 -8.8304741423207389 31.890502475067301 7.7437251046156668 #
vertex $-1 $488 $667 #
point $-1 1.5188222649360341 31.890502475067301 7.7437251046156668 #
coedge $-1 $613 $494 $619 $668 reversed $343 $-1 #
coedge $-1 $494 $612 $497 $617 reversed $343 $-1 #
edge $-1 $615 -39.094128665110418 $502 -14.945770381511288 $501 $669 forward 7 unknown #
vertex $-1 $496 $670 #
straight-curve $-1 66.114078188421274 1.1865116502802575 43.737997144394697 0 0.7313536940579346 -0.68199836817093118 I I #
edge $-1 $498 27.913268528145409 $621 43.212138905677179 $613 $671 forward 7 unknown #
point $-1 66.114078188421274 27.913268528145409 18.814892598263377 #
coedge $-1 $501 $500 $612 $668 forward $492 $-1 #
point $-1 41.965719904822144 43.212138905677172 4.5484648532375331 #
vertex $-1 $617 $672 #
straight-curve $-1 0 43.212138905677179 18.814892598263384 -1 0 0 I I #
vertex $-1 $508 $673 #
point $-1 50.365250842993319 31.890502475067301 7.7437251046156668 #
vertex $-1 $512 $674 #
point $-1 60.714547250250092 31.890502475067301 7.7437251046156668 #
edge $-1 $628 31.463245878006568 $631 47.986530759464777 $517 $675 forward 7 unknown #
vertex $-1 $531 $676 #
straight-curve $-1 -34.386037092243114 -65.8450232119703 18.814892598263384 0 -1 0 I I #
edge $-1 $631 -20.799510006472126 $528 -6.3735441650698519 $527 $677 forward 7 unknown #
vertex $-1 $630 $678 #
straight-curve $-1 -34.386037092243114 -43.212138905677179 2.2916077168051743 0 0.74314481823134659 0.66913061440640931 I I #
point $-1 -34.386037092243114 -24.861172329877952 18.814892598263384 #
point $-1 -19.960071250840841 -43.212138905677179 2.2916077168051743 #
straight-curve $-1 0 -43.212138905677179 18.814892598263384 1 0 0 I I #
vertex $-1 $534 $679 #
point $-1 -28.764332566128175 -30.936308234565264 7.1099656284065338 #
vertex $-1 $538 $680 #
point $-1 -22.581775776955766 -30.936308234565264 7.1099656284065338 #
edge $-1 $641 31.463245878006568 $644 47.986530759464777 $543 $681 forward 7 unknown #
vertex $-1 $557 $682 #
straight-curve $-1 24.809687893070944 -65.8450232119703 18.814892598263384 0 -1 0 I I #
edge $-1 $644 8.7983524861849034 $554 23.224318327587177 $553 $683 forward 7 unknown #
vertex $-1 $643 $684 #
straight-curve $-1 24.809687893070944 -43.212138905677179 2.2916077168051743 0 0.74314481823134659 0.66913061440640931 I I #
point $-1 24.809687893070944 -24.861172329877952 18.814892598263384 #
point $-1 39.235653734473217 -43.212138905677179 2.2916077168051743 #
straight-curve $-1 0 -43.212138905677179 18.814892598263384 1 0 0 I I #
vertex $-1 $560 $685 #
point $-1 30.431392419185883 -30.936308234565264 7.1099656284065338 #
vertex $-1 $564 $686 #
point $-1 36.613949208358292 -30.936308234565264 7.1099656284065338 #
straight-curve $-1 -66.114078188421274 43.212138905677179 0 0 0 -1 I I #
point $-1 -66.114078188421274 -43.212138905677179 -18.814892598263384 #
straight-curve $-1 -66.114078188421274 0 -18.814892598263384 0 1 0 I I #
point $-1 -66.114078188421274 43.212138905677179 -18.814892598263384 #
straight-curve $-1 -52.277371782206842 -18.215262482590418 -18.814892598263384 0 -1 0 I I #
straight-curve $-1 -52.277371782206842 -18.215262482590418 18.814892598263384 0 1 0 I I #
straight-curve $-1 -66.114078188421274 -32.6380898584042 0 0 0 -1 I I #
point $-1 -66.114078188421274 -32.6380898584042 -18.814892598263384 #
point $-1 -66.114078188421274 -32.6380898584042 18.814892598263384 #
straight-curve $-1 6.9183532031072161 43.212138905677179 80.097615957803228 0 0 -1 I I #
point $-1 6.9183532031072161 43.212138905677179 18.814892598263384 #
straight-curve $-1 -2.5779129693461762 43.212138905677172 4.5484648532375331 -1 0 0 I I #
point $-1 6.9183532031072161 43.212138905677172 4.5484648532375331 #
point $-1 -10.330474142320739 30.867504922810902 6.6466945635287651 #
point $-1 0.018822264936034117 30.867504922810902 6.6466945635287651 #
edge $-1 $621 -18.814892598263384 $615 -4.5484648532375331 $612 $687 forward 7 unknown #
straight-curve $-1 27.019949523310856 43.212138905677172 4.5484648532375331 -1 0 0 I I #
point $-1 66.114078188421274 43.212138905677172 4.5484648532375331 #
straight-curve $-1 66.114078188421274 0 18.814892598263384 0 1 0 I I #
point $-1 66.114078188421274 43.212138905677179 18.814892598263384 #
point $-1 48.865250842993319 30.867504922810902 6.6466945635287651 #
point $-1 59.214547250250092 30.867504922810902 6.6466945635287651 #
straight-curve $-1 -34.386037092243114 -43.212138905677179 50.278138476269952 0 0 -1 I I #
point $-1 -34.386037092243114 -43.212138905677179 18.814892598263384 #
straight-curve $-1 -13.586527085770989 -43.212138905677179 2.2916077168051761 1 0 0 I I #
point $-1 -34.386037092243114 -43.212138905677179 2.2916077168051743 #
point $-1 -30.264332566128175 -29.932612312955651 5.9952484010595137 #
point $-1 -24.081775776955766 -29.932612312955651 5.9952484010595137 #
straight-curve $-1 24.809687893070944 -43.212138905677179 50.278138476269952 0 0 -1 I I #
point $-1 24.809687893070944 -43.212138905677179 18.814892598263384 #
straight-curve $-1 16.01133540688604 -43.212138905677179 2.2916077168051761 1 0 0 I I #
point $-1 24.809687893070944 -43.212138905677179 2.2916077168051743 #
point $-1 28.931392419185883 -29.932612312955651 5.9952484010595137 #
point $-1 35.113949208358292 -29.932612312955651 5.9952484010595137 #
straight-curve $-1 66.114078188421274 43.212138905677179 0 0 0 -1 I I #
End-of-ACIS-data 