500 0 7 0           
7 Unknown 11 ACIS 5.0 NT 24 Thu Mar 25 15:07:03 1999 
-1 9.9999999999999995e-007 1e-010 
body $-1 $7 $-1 $8 #
body $-1 $9 $-1 $10 #
body $-1 $11 $-1 $12 #
body $-1 $13 $-1 $14 #
body $-1 $15 $-1 $16 #
body $-1 $17 $-1 $18 #
body $-1 $19 $-1 $20 #
lump $-1 $-1 $21 $0 #
transform $-1 1 0 0 0 1 0 0 0 1 43.098239082003232 28.126773394732197 11.347106240495144 1 rotate no_reflect no_shear #
lump $-1 $-1 $22 $1 #
transform $-1 1 0 0 0 1 0 0 0 1 43.098239082003232 28.126773394732197 11.347106240495144 1 rotate no_reflect no_shear #
lump $-1 $-1 $23 $2 #
transform $-1 1 0 0 0 1 0 0 0 1 43.098239082003232 28.126773394732197 11.347106240495144 1 rotate no_reflect no_shear #
lump $-1 $-1 $24 $3 #
transform $-1 1 0 0 0 1 0 0 0 1 43.098239082003232 28.126773394732197 11.347106240495144 1 rotate no_reflect no_shear #
lump $-1 $-1 $25 $4 #
transform $-1 1 0 0 0 1 0 0 0 1 43.098239082003232 28.126773394732197 11.347106240495144 1 rotate no_reflect no_shear #
lump $-1 $-1 $26 $5 #
transform $-1 1 0 0 0 1 0 0 0 1 43.098239082003232 28.126773394732197 11.347106240495144 1 rotate no_reflect no_shear #
lump $-1 $-1 $27 $6 #
transform $-1 1 0 0 0 1 0 0 0 1 43.098239082003232 28.126773394732197 11.347106240495144 1 rotate no_reflect no_shear #
shell $-1 $-1 $-1 $28 $-1 $7 #
shell $-1 $-1 $-1 $29 $-1 $9 #
shell $-1 $-1 $-1 $30 $-1 $11 #
shell $-1 $-1 $-1 $31 $-1 $13 #
shell $-1 $-1 $-1 $32 $-1 $15 #
shell $-1 $-1 $-1 $33 $-1 $17 #
shell $-1 $-1 $-1 $34 $-1 $19 #
face $-1 $35 $36 $21 $-1 $37 reversed single #
face $-1 $38 $39 $22 $-1 $40 forward single #
face $-1 $41 $42 $23 $-1 $43 forward single #
face $-1 $44 $45 $24 $-1 $46 reversed single #
face $-1 $47 $48 $25 $-1 $49 forward single #
face $-1 $50 $51 $26 $-1 $52 forward single #
face $-1 $53 $54 $27 $-1 $55 forward single #
face $-1 $56 $57 $21 $-1 $58 forward single #
loop $-1 $-1 $59 $28 #
plane-surface $-1 0 -28.126773394732197 0 0 1 0 0 0 1 forward_v I I I I #
face $-1 $60 $61 $22 $-1 $62 forward single #
loop $-1 $-1 $63 $29 #
plane-surface $-1 0 -28.126773394732197 0 0 1 0 0 0 1 forward_v I I I I #
face $-1 $64 $65 $23 $-1 $66 reversed single #
loop $-1 $-1 $67 $30 #
plane-surface $-1 0 23.398409602617569 -6.519950689415996 0 0 1 1 0 0 forward_v I I I I #
face $-1 $68 $69 $24 $-1 $70 reversed single #
loop $-1 $-1 $71 $31 #
plane-surface $-1 -114.55835879783825 1.2851521812974838 51.656787018190244 0 -1 0 0.82903758062907751 0 -0.55919289150049634 forward_v I I I I #
face $-1 $72 $73 $25 $-1 $74 forward single #
loop $-1 $75 $76 $32 #
cone-surface $-1 -38.852174248011082 -7.4078670013425914 6.3327116155471828 0.82903758062907751 0 -0.55919289150049634 0.55919289150049634 0 0.82903758062907751 1 I I 0 1 1 forward I I I I #
face $-1 $77 $78 $26 $-1 $79 forward single #
loop $-1 $80 $81 $33 #
cone-surface $-1 -38.852174248011082 -4.1479848078525627 6.3327116155471828 0.82903758062907751 0 -0.55919289150049634 0.55919289150049634 0 0.82903758062907751 1 I I 0 1 1 forward I I I I #
face $-1 $82 $83 $27 $-1 $84 forward single #
loop $-1 $85 $86 $34 #
cone-surface $-1 -38.852174248011082 -0.88810261436253413 6.3327116155471828 0.82903758062907751 0 -0.55919289150049634 0.55919289150049634 0 0.82903758062907751 1 I I 0 1 1 forward I I I I #
face $-1 $87 $88 $21 $-1 $89 reversed single #
loop $-1 $-1 $90 $35 #
plane-surface $-1 0 0 11.347106240495144 0 0 1 1 0 0 forward_v I I I I #
coedge $-1 $91 $92 $93 $94 reversed $36 $-1 #
face $-1 $95 $96 $22 $-1 $97 reversed single #
loop $-1 $-1 $98 $38 #
plane-surface $-1 0 0 11.347106240495144 0 0 1 1 0 0 forward_v I I I I #
coedge $-1 $99 $100 $101 $102 forward $39 $-1 #
face $-1 $103 $104 $23 $-1 $105 reversed single #
loop $-1 $-1 $106 $41 #
plane-surface $-1 0 23.398409602617569 -9.519950689415996 0 0 1 1 0 0 forward_v I I I I #
coedge $-1 $107 $108 $109 $110 reversed $42 $-1 #
face $-1 $111 $112 $24 $-1 $113 reversed single #
loop $-1 $-1 $114 $44 #
plane-surface $-1 -43.098239082003218 -4.1479848078525627 3.4563291565000753 -0.82903758062907751 0 0.55919289150049634 0.55919289150049634 0 0.82903758062907751 forward_v I I I I #
coedge $-1 $115 $116 $117 $118 reversed $45 $-1 #
face $-1 $-1 $119 $25 $-1 $120 forward single #
loop $-1 $121 $122 $47 #
cone-surface $-1 -36.852788714650316 -7.4078670013425914 4.9841090868465017 0.82903758062907751 0 -0.55919289150049634 0.27959644575024817 0 0.41451879031453875 1 I I -0.70710678118654746 0.70710678118654746 0.5 forward I I I I #
loop $-1 $-1 $123 $32 #
coedge $-1 $76 $76 $124 $125 reversed $48 $-1 #
face $-1 $-1 $126 $26 $-1 $127 forward single #
loop $-1 $128 $129 $50 #
cone-surface $-1 -36.852788714650316 -4.1479848078525627 4.9841090868465017 0.82903758062907751 0 -0.55919289150049634 0.27959644575024817 0 0.41451879031453875 1 I I -0.70710678118654746 0.70710678118654746 0.5 forward I I I I #
loop $-1 $-1 $130 $33 #
coedge $-1 $81 $81 $131 $132 reversed $51 $-1 #
face $-1 $-1 $133 $27 $-1 $134 forward single #
loop $-1 $135 $136 $53 #
cone-surface $-1 -36.852788714650316 -0.88810261436253413 4.9841090868465017 0.82903758062907751 0 -0.55919289150049634 0.27959644575024817 0 0.41451879031453875 1 I I -0.70710678118654746 0.70710678118654746 0.5 forward I I I I #
loop $-1 $-1 $137 $34 #
coedge $-1 $86 $86 $138 $139 reversed $54 $-1 #
face $-1 $140 $141 $21 $-1 $142 reversed single #
loop $-1 $-1 $143 $56 #
plane-surface $-1 0 0 -11.347106240495144 0 0 1 1 0 0 forward_v I I I I #
coedge $-1 $144 $145 $146 $147 forward $57 $-1 #
coedge $-1 $148 $59 $149 $150 reversed $36 $-1 #
coedge $-1 $59 $148 $151 $152 forward $36 $-1 #
coedge $-1 $153 $143 $59 $94 forward $88 $-1 #
edge $-1 $154 -43.098239082003232 $155 43.098239082003232 $59 $156 forward 7 unknown #
face $-1 $157 $158 $22 $-1 $159 reversed single #
loop $-1 $-1 $160 $60 #
plane-surface $-1 -43.098239082003232 0 0 1 0 0 0 0 -1 forward_v I I I I #
coedge $-1 $161 $162 $100 $163 forward $61 $-1 #
coedge $-1 $164 $63 $165 $166 reversed $39 $-1 #
coedge $-1 $63 $164 $98 $163 reversed $39 $-1 #
coedge $-1 $167 $168 $63 $102 reversed $169 $-1 #
edge $-1 $170 -11.347106240495144 $171 11.347106240495144 $101 $172 forward 7 unknown #
face $-1 $173 $174 $23 $-1 $175 reversed single #
loop $-1 $-1 $176 $64 #
plane-surface $-1 0 18.670045810502941 -8.019950689415996 0 1 0 0 0 1 forward_v I I I I #
coedge $-1 $177 $178 $179 $180 reversed $65 $-1 #
coedge $-1 $181 $67 $182 $183 reversed $42 $-1 #
coedge $-1 $67 $181 $184 $185 forward $42 $-1 #
coedge $-1 $186 $187 $67 $110 forward $188 $-1 #
edge $-1 $189 -16.427568593423413 $190 -6.9708410091941566 $109 $191 forward 7 unknown #
face $-1 $192 $193 $24 $-1 $194 reversed single #
loop $-1 $-1 $195 $68 #
plane-surface $-1 -114.55835879783825 -9.5811217970026092 51.656787018190244 0 1 0 -0.82903758062907751 0 0.55919289150049634 forward_v I I I I #
coedge $-1 $196 $197 $198 $199 reversed $69 $-1 #
coedge $-1 $116 $71 $200 $201 reversed $45 $-1 #
coedge $-1 $71 $115 $196 $202 reversed $45 $-1 #
coedge $-1 $198 $203 $71 $118 forward $193 $-1 #
edge $-1 $204 14.481287268599978 $205 22.372064352595068 $117 $206 forward 7 unknown #
loop $-1 $-1 $124 $72 #
plane-surface $-1 -43.098239082003218 -4.1479848078525627 3.4563291565000753 -0.82903758062907751 0 0.55919289150049634 0.55919289150049634 0 0.82903758062907751 forward_v I I I I #
loop $-1 $-1 $207 $47 #
coedge $-1 $122 $122 $123 $208 reversed $73 $-1 #
coedge $-1 $123 $123 $122 $208 forward $75 $-1 #
coedge $-1 $124 $124 $76 $125 forward $119 $-1 #
edge $-1 $209 0 $209 6.2831853071796004 $124 $210 forward 7 unknown #
loop $-1 $-1 $131 $77 #
plane-surface $-1 -43.098239082003218 -4.1479848078525627 3.4563291565000753 -0.82903758062907751 0 0.55919289150049634 0.55919289150049634 0 0.82903758062907751 forward_v I I I I #
loop $-1 $-1 $211 $50 #
coedge $-1 $129 $129 $130 $212 reversed $78 $-1 #
coedge $-1 $130 $130 $129 $212 forward $80 $-1 #
coedge $-1 $131 $131 $81 $132 forward $126 $-1 #
edge $-1 $213 0 $213 6.2831853071796004 $131 $214 forward 7 unknown #
loop $-1 $-1 $138 $82 #
plane-surface $-1 -43.098239082003218 -4.1479848078525627 3.4563291565000753 -0.82903758062907751 0 0.55919289150049634 0.55919289150049634 0 0.82903758062907751 forward_v I I I I #
loop $-1 $-1 $215 $53 #
coedge $-1 $136 $136 $137 $216 reversed $83 $-1 #
coedge $-1 $137 $137 $136 $216 forward $85 $-1 #
coedge $-1 $138 $138 $86 $139 forward $133 $-1 #
edge $-1 $217 0 $217 6.2831853071796004 $138 $218 forward 7 unknown #
face $-1 $219 $220 $21 $-1 $221 reversed single #
loop $-1 $-1 $222 $87 #
plane-surface $-1 -43.098239082003232 0 0 1 0 0 0 0 -1 forward_v I I I I #
coedge $-1 $93 $223 $224 $225 forward $88 $-1 #
coedge $-1 $226 $90 $227 $228 forward $57 $-1 #
coedge $-1 $90 $226 $148 $229 forward $57 $-1 #
coedge $-1 $149 $230 $90 $147 reversed $231 $-1 #
edge $-1 $232 -28.126773394732197 $233 28.126773394732197 $146 $234 forward 7 unknown #
coedge $-1 $92 $91 $145 $229 reversed $36 $-1 #
coedge $-1 $224 $146 $91 $150 forward $231 $-1 #
edge $-1 $232 -11.347106240495144 $154 11.347106240495144 $149 $235 forward 7 unknown #
coedge $-1 $236 $237 $92 $152 reversed $141 $-1 #
edge $-1 $238 -11.347106240495144 $155 11.347106240495144 $151 $239 forward 7 unknown #
coedge $-1 $223 $93 $237 $240 forward $88 $-1 #
vertex $-1 $150 $241 #
vertex $-1 $240 $242 #
straight-curve $-1 0 -28.126773394732197 -11.347106240495144 -1 0 0 I I #
face $-1 $243 $169 $22 $-1 $244 reversed single #
loop $-1 $-1 $245 $95 #
plane-surface $-1 -41.598239082003232 -36.025435628475876 0 0 1 0 0 0 1 forward_v I I I I #
coedge $-1 $246 $247 $164 $248 forward $96 $-1 #
coedge $-1 $249 $98 $247 $250 forward $61 $-1 #
coedge $-1 $98 $249 $167 $251 forward $61 $-1 #
edge $-1 $170 40.098239082003232 $252 43.098239082003232 $98 $253 forward 7 unknown #
coedge $-1 $100 $99 $160 $248 reversed $39 $-1 #
coedge $-1 $254 $255 $99 $166 forward $256 $-1 #
edge $-1 $257 -43.098239082003232 $171 -40.098239082003232 $165 $258 forward 7 unknown #
coedge $-1 $259 $101 $162 $251 reversed $169 $-1 #
coedge $-1 $101 $259 $254 $260 reversed $169 $-1 #
loop $-1 $-1 $259 $157 #
vertex $-1 $163 $261 #
vertex $-1 $260 $262 #
straight-curve $-1 -40.098239082003232 -28.126773394732197 0 0 0 -1 I I #
face $-1 $263 $188 $23 $-1 $264 reversed single #
loop $-1 $-1 $265 $103 #
plane-surface $-1 -43.098239082003232 0 0 1 0 0 0 0 -1 forward_v I I I I #
coedge $-1 $266 $184 $267 $268 reversed $104 $-1 #
coedge $-1 $269 $106 $266 $270 forward $65 $-1 #
coedge $-1 $106 $269 $271 $272 reversed $65 $-1 #
coedge $-1 $187 $186 $106 $180 forward $188 $-1 #
edge $-1 $273 6.9708410091941566 $274 16.427568593423413 $179 $275 forward 7 unknown #
coedge $-1 $108 $107 $276 $277 reversed $42 $-1 #
coedge $-1 $278 $279 $107 $183 forward $280 $-1 #
edge $-1 $281 -43.098239082003232 $189 43.098239082003232 $182 $282 forward 7 unknown #
coedge $-1 $176 $283 $108 $185 reversed $104 $-1 #
edge $-1 $284 -43.098239082003232 $190 43.098239082003232 $184 $285 forward 7 unknown #
coedge $-1 $179 $109 $283 $286 forward $188 $-1 #
coedge $-1 $109 $179 $278 $287 reversed $188 $-1 #
loop $-1 $-1 $109 $173 #
vertex $-1 $287 $288 #
vertex $-1 $110 $289 #
straight-curve $-1 43.098239082003232 11.699204801308785 -6.519950689415996 0 -1 0 I I #
face $-1 $-1 $290 $24 $-1 $291 forward single #
loop $-1 $-1 $117 $111 #
plane-surface $-1 -43.098239082003232 0 0 1 0 0 0 0 -1 forward_v I I I I #
coedge $-1 $292 $293 $294 $295 reversed $112 $-1 #
coedge $-1 $296 $114 $116 $202 forward $69 $-1 #
coedge $-1 $114 $296 $292 $297 forward $69 $-1 #
coedge $-1 $294 $117 $114 $199 forward $193 $-1 #
edge $-1 $205 -3.3591445852237651 $298 7.5071293930763279 $198 $299 forward 7 unknown #
coedge $-1 $300 $301 $115 $201 forward $290 $-1 #
edge $-1 $302 -19.503336498807755 $204 -14.180940316915894 $200 $303 forward 7 unknown #
edge $-1 $205 -2.5250441212413278e-014 $302 9.517996853661943 $116 $304 forward 7 unknown #
coedge $-1 $117 $294 $300 $305 reversed $193 $-1 #
vertex $-1 $305 $306 #
vertex $-1 $118 $307 #
straight-curve $-1 -43.098239082003232 1.2851521812974838 25.828393509095122 0 0 -1 I I #
coedge $-1 $207 $207 $-1 $308 reversed $121 $-1 #
edge $-1 $309 0 $309 6.2831853071796004 $122 $310 forward 7 unknown #
vertex $-1 $125 $311 #
ellipse-curve $-1 -40.437040991057295 -7.4078670013425914 7.401717698497607 -0.82903758062907751 0 0.55919289150049634 0.55919289150049634 0 0.82903758062907751 1 I I #
coedge $-1 $211 $211 $-1 $312 reversed $128 $-1 #
edge $-1 $313 0 $313 6.2831853071796004 $129 $314 forward 7 unknown #
vertex $-1 $132 $315 #
ellipse-curve $-1 -40.437040991057295 -4.1479848078525627 7.401717698497607 -0.82903758062907751 0 0.55919289150049634 0.55919289150049634 0 0.82903758062907751 1 I I #
coedge $-1 $215 $215 $-1 $316 reversed $135 $-1 #
edge $-1 $317 0 $317 6.2831853071796004 $136 $318 forward 7 unknown #
vertex $-1 $139 $319 #
ellipse-curve $-1 -40.437040991057295 -0.88810261436253413 7.401717698497607 -0.82903758062907751 0 0.55919289150049634 0.55919289150049634 0 0.82903758062907751 1 I I #
face $-1 $-1 $231 $21 $-1 $320 reversed single #
loop $-1 $-1 $321 $140 #
plane-surface $-1 0 28.126773394732197 0 0 -1 0 0 0 -1 forward_v I I I I #
coedge $-1 $237 $236 $322 $323 forward $141 $-1 #
coedge $-1 $143 $153 $324 $325 forward $88 $-1 #
coedge $-1 $230 $149 $143 $225 reversed $231 $-1 #
edge $-1 $326 -28.126773394732197 $154 28.126773394732197 $224 $327 forward 7 unknown #
coedge $-1 $145 $144 $236 $328 forward $57 $-1 #
coedge $-1 $321 $322 $144 $228 reversed $220 $-1 #
edge $-1 $233 -43.098239082003232 $329 43.098239082003232 $227 $330 forward 7 unknown #
edge $-1 $238 -43.098239082003232 $232 43.098239082003232 $148 $331 forward 7 unknown #
coedge $-1 $146 $224 $321 $332 reversed $231 $-1 #
loop $-1 $-1 $149 $219 #
vertex $-1 $147 $333 #
vertex $-1 $147 $334 #
straight-curve $-1 43.098239082003232 0 11.347106240495144 0 1 0 I I #
straight-curve $-1 43.098239082003232 -28.126773394732197 0 0 0 -1 I I #
coedge $-1 $222 $151 $226 $328 reversed $141 $-1 #
coedge $-1 $151 $222 $153 $240 reversed $141 $-1 #
vertex $-1 $328 $335 #
straight-curve $-1 -43.098239082003232 -28.126773394732197 0 0 0 -1 I I #
edge $-1 $155 -28.126773394732197 $336 28.126773394732197 $237 $337 forward 7 unknown #
point $-1 43.098239082003232 -28.126773394732197 -11.347106240495144 #
point $-1 -43.098239082003232 -28.126773394732197 -11.347106240495144 #
face $-1 $-1 $256 $22 $-1 $338 reversed single #
plane-surface $-1 -40.098239082003232 -32.076104511604036 0 -1 0 0 0 0 1 forward_v I I I I #
coedge $-1 $339 $340 $341 $342 forward $158 $-1 #
coedge $-1 $341 $160 $255 $343 reversed $96 $-1 #
coedge $-1 $160 $341 $161 $250 reversed $96 $-1 #
edge $-1 $252 -11.347106240495144 $257 11.347106240495144 $160 $344 forward 7 unknown #
coedge $-1 $162 $161 $340 $345 forward $61 $-1 #
edge $-1 $252 28.126773394732197 $346 36.025435628475876 $247 $347 forward 7 unknown #
edge $-1 $348 -3.9493311168718392 $170 3.9493311168718428 $167 $349 forward 7 unknown #
vertex $-1 $250 $350 #
straight-curve $-1 0 -28.126773394732197 11.347106240495144 -1 0 0 I I #
coedge $-1 $351 $165 $168 $260 forward $256 $-1 #
coedge $-1 $165 $351 $246 $343 forward $256 $-1 #
loop $-1 $-1 $165 $243 #
vertex $-1 $248 $352 #
straight-curve $-1 0 -28.126773394732197 -11.347106240495144 1 0 0 I I #
coedge $-1 $168 $167 $353 $354 forward $169 $-1 #
edge $-1 $171 -3.9493311168718428 $355 3.9493311168718392 $168 $356 forward 7 unknown #
point $-1 -40.098239082003232 -28.126773394732194 11.347106240495144 #
point $-1 -40.098239082003232 -28.126773394732194 -11.347106240495144 #
face $-1 $-1 $280 $23 $-1 $357 reversed single #
plane-surface $-1 43.098239082003232 0 0 -1 0 0 0 0 1 forward_v I I I I #
coedge $-1 $267 $358 $269 $359 forward $174 $-1 #
coedge $-1 $283 $176 $177 $270 reversed $104 $-1 #
coedge $-1 $276 $265 $176 $268 forward $174 $-1 #
edge $-1 $360 -5.509975344707998 $284 -2.509975344707998 $267 $361 forward 7 unknown #
coedge $-1 $178 $177 $265 $359 reversed $65 $-1 #
edge $-1 $273 -43.098239082003232 $360 43.098239082003232 $266 $362 forward 7 unknown #
coedge $-1 $279 $278 $178 $272 forward $280 $-1 #
edge $-1 $274 -43.098239082003232 $363 43.098239082003232 $271 $364 forward 7 unknown #
vertex $-1 $180 $365 #
vertex $-1 $180 $366 #
straight-curve $-1 43.098239082003232 11.699204801308785 -9.519950689415996 0 1 0 I I #
coedge $-1 $358 $267 $181 $277 forward $174 $-1 #
edge $-1 $284 6.9708410091941566 $281 16.427568593423413 $276 $367 forward 7 unknown #
coedge $-1 $271 $182 $187 $287 forward $280 $-1 #
coedge $-1 $182 $271 $358 $368 reversed $280 $-1 #
loop $-1 $-1 $271 $263 #
vertex $-1 $368 $369 #
straight-curve $-1 0 28.126773394732197 -6.519950689415996 1 0 0 I I #
coedge $-1 $184 $266 $186 $286 reversed $104 $-1 #
vertex $-1 $277 $370 #
straight-curve $-1 0 18.670045810502941 -6.519950689415996 1 0 0 I I #
edge $-1 $190 2.509975344707998 $273 5.509975344707998 $186 $371 forward 7 unknown #
edge $-1 $189 6.519950689415996 $274 9.519950689415996 $187 $372 forward 7 unknown #
point $-1 43.098239082003232 28.126773394732197 -6.519950689415996 #
point $-1 43.098239082003232 18.670045810502941 -6.519950689415996 #
loop $-1 $-1 $200 $192 #
plane-surface $-1 0 0 11.347106240495144 0 0 1 1 0 0 forward_v I I I I #
coedge $-1 $293 $195 $197 $297 reversed $112 $-1 #
coedge $-1 $195 $292 $373 $374 reversed $112 $-1 #
coedge $-1 $203 $198 $195 $295 forward $193 $-1 #
edge $-1 $298 -22.372064352595068 $375 -14.481287268599978 $294 $376 forward 7 unknown #
coedge $-1 $197 $196 $301 $377 reversed $69 $-1 #
edge $-1 $378 -9.517996853661943 $298 2.5250441212413278e-014 $292 $379 forward 7 unknown #
vertex $-1 $199 $380 #
straight-curve $-1 -43.098239082003232 -2.0739924039262814 3.4563291565000527 0 -1 0 I I #
coedge $-1 $373 $200 $203 $305 forward $290 $-1 #
coedge $-1 $200 $373 $296 $377 forward $290 $-1 #
vertex $-1 $201 $381 #
straight-curve $-1 -57.279179398919126 1.2851521812974838 11.347106240495144 -1 0 0 I I #
straight-curve $-1 -43.098239082003218 1.2851521812974838 3.4563291565000753 0.55919289150049634 0 0.82903758062907751 I I #
edge $-1 $204 -1.2851521812974838 $375 9.5811217970026092 $203 $382 forward 7 unknown #
point $-1 -43.098239082003232 1.2851521812974838 11.347106240495144 #
point $-1 -43.098239082003232 1.2851521812974838 3.4563291565000545 #
edge $-1 $383 1 $383 0 $207 $-1 forward 7 unknown #
vertex $-1 $208 $384 #
ellipse-curve $-1 -37.267307504964855 -7.4078670013425914 5.2637055325967497 -0.82903758062907751 0 0.55919289150049634 0.55919289150049634 0 0.82903758062907751 1 I I #
point $-1 -39.877848099556815 -7.4078670013425914 8.2307552791266936 #
edge $-1 $385 1 $385 0 $211 $-1 forward 7 unknown #
vertex $-1 $212 $386 #
ellipse-curve $-1 -37.267307504964855 -4.1479848078525627 5.2637055325967497 -0.82903758062907751 0 0.55919289150049634 0.55919289150049634 0 0.82903758062907751 1 I I #
point $-1 -39.877848099556815 -4.1479848078525627 8.2307552791266936 #
edge $-1 $387 1 $387 0 $215 $-1 forward 7 unknown #
vertex $-1 $216 $388 #
ellipse-curve $-1 -37.267307504964855 -0.88810261436253413 5.2637055325967497 -0.82903758062907751 0 0.55919289150049634 0.55919289150049634 0 0.82903758062907751 1 I I #
point $-1 -39.877848099556815 -0.88810261436253413 8.2307552791266936 #
plane-surface $-1 43.098239082003232 0 0 -1 0 0 0 0 1 forward_v I I I I #
coedge $-1 $324 $227 $230 $332 forward $220 $-1 #
coedge $-1 $227 $324 $222 $323 reversed $220 $-1 #
edge $-1 $329 -11.347106240495144 $336 11.347106240495144 $322 $389 forward 7 unknown #
coedge $-1 $322 $321 $223 $325 reversed $220 $-1 #
edge $-1 $336 -43.098239082003232 $326 43.098239082003232 $324 $390 forward 7 unknown #
vertex $-1 $225 $391 #
straight-curve $-1 43.098239082003232 0 -11.347106240495144 0 -1 0 I I #
edge $-1 $329 -28.126773394732197 $238 28.126773394732197 $236 $392 forward 7 unknown #
vertex $-1 $228 $393 #
straight-curve $-1 0 28.126773394732197 11.347106240495144 -1 0 0 I I #
straight-curve $-1 0 -28.126773394732197 11.347106240495144 1 0 0 I I #
edge $-1 $233 -11.347106240495144 $326 11.347106240495144 $230 $394 forward 7 unknown #
point $-1 43.098239082003232 -28.126773394732197 11.347106240495144 #
point $-1 43.098239082003232 28.126773394732197 11.347106240495144 #
point $-1 -43.098239082003232 -28.126773394732197 11.347106240495144 #
vertex $-1 $325 $395 #
straight-curve $-1 -43.098239082003232 0 -11.347106240495144 0 1 0 I I #
plane-surface $-1 0 0 -11.347106240495144 0 0 1 1 0 0 forward_v I I I I #
coedge $-1 $353 $245 $351 $396 reversed $158 $-1 #
coedge $-1 $245 $353 $249 $345 reversed $158 $-1 #
coedge $-1 $247 $246 $245 $342 reversed $96 $-1 #
edge $-1 $346 -11.347106240495144 $397 11.347106240495144 $341 $398 forward 7 unknown #
edge $-1 $397 -36.025435628475876 $257 -28.126773394732197 $246 $399 forward 7 unknown #
straight-curve $-1 -43.098239082003232 -28.126773394732197 0 0 0 -1 I I #
edge $-1 $346 -1.5 $348 1.5 $340 $400 forward 7 unknown #
vertex $-1 $250 $401 #
straight-curve $-1 -43.098239082003232 0 11.347106240495144 0 -1 0 I I #
vertex $-1 $251 $402 #
straight-curve $-1 -40.098239082003232 -32.076104511604036 11.347106240495144 0 1 0 I I #
point $-1 -43.098239082003232 -28.126773394732197 11.347106240495144 #
coedge $-1 $255 $254 $339 $396 forward $256 $-1 #
point $-1 -43.098239082003232 -28.126773394732197 -11.347106240495144 #
coedge $-1 $340 $339 $259 $354 reversed $158 $-1 #
edge $-1 $348 -11.347106240495144 $355 11.347106240495144 $259 $403 forward 7 unknown #
vertex $-1 $354 $404 #
straight-curve $-1 -40.098239082003232 -32.076104511604036 -11.347106240495144 0 -1 0 I I #
plane-surface $-1 0 28.126773394732197 0 0 -1 0 0 0 -1 forward_v I I I I #
coedge $-1 $265 $276 $279 $368 forward $174 $-1 #
edge $-1 $363 -16.427568593423413 $360 -6.9708410091941566 $265 $405 forward 7 unknown #
vertex $-1 $359 $406 #
straight-curve $-1 -43.098239082003232 18.670045810502941 -4.009975344707998 0 0 1 I I #
straight-curve $-1 0 18.670045810502941 -9.519950689415996 -1 0 0 I I #
vertex $-1 $272 $407 #
straight-curve $-1 0 28.126773394732197 -9.519950689415996 -1 0 0 I I #
point $-1 43.098239082003232 18.670045810502941 -9.519950689415996 #
point $-1 43.098239082003232 28.126773394732197 -9.519950689415996 #
straight-curve $-1 -43.098239082003232 11.699204801308785 -6.519950689415996 0 1 0 I I #
edge $-1 $281 6.519950689415996 $363 9.519950689415996 $279 $408 forward 7 unknown #
point $-1 -43.098239082003232 28.126773394732197 -6.519950689415996 #
point $-1 -43.098239082003232 18.670045810502941 -6.519950689415996 #
straight-curve $-1 43.098239082003232 18.670045810502941 -4.009975344707998 0 0 -1 I I #
straight-curve $-1 43.098239082003232 28.126773394732197 0 0 0 -1 I I #
coedge $-1 $301 $300 $293 $374 forward $290 $-1 #
edge $-1 $375 14.180940316915894 $378 19.503336498807755 $373 $409 forward 7 unknown #
vertex $-1 $374 $410 #
straight-curve $-1 -43.098239082003232 -9.5811217970026092 25.828393509095122 0 0 1 I I #
edge $-1 $378 -7.5071293930763279 $302 3.3591445852237651 $301 $411 forward 7 unknown #
vertex $-1 $377 $412 #
straight-curve $-1 -43.098239082003218 -9.5811217970026092 3.4563291565000753 -0.55919289150049634 0 -0.82903758062907751 I I #
point $-1 -43.098239082003232 -9.5811217970026092 3.4563291565000545 #
point $-1 -37.775842900111371 1.2851521812974838 11.347106240495144 #
straight-curve $-1 -43.098239082003232 0 11.347106240495144 0 -1 0 I I #
vertex $-1 $308 $413 #
point $-1 -36.70811461346436 -7.4078670013425914 6.0927431132258274 #
vertex $-1 $312 $414 #
point $-1 -36.70811461346436 -4.1479848078525627 6.0927431132258274 #
vertex $-1 $316 $415 #
point $-1 -36.70811461346436 -0.88810261436253413 6.0927431132258274 #
straight-curve $-1 -43.098239082003232 28.126773394732197 0 0 0 -1 I I #
straight-curve $-1 0 28.126773394732197 -11.347106240495144 1 0 0 I I #
point $-1 43.098239082003232 28.126773394732197 -11.347106240495144 #
straight-curve $-1 -43.098239082003232 0 11.347106240495144 0 -1 0 I I #
point $-1 -43.098239082003232 28.126773394732197 11.347106240495144 #
straight-curve $-1 43.098239082003232 28.126773394732197 0 0 0 -1 I I #
point $-1 -43.098239082003232 28.126773394732197 -11.347106240495144 #
edge $-1 $355 -1.5 $397 1.5 $339 $416 forward 7 unknown #
vertex $-1 $343 $417 #
straight-curve $-1 -43.098239082003232 -36.025435628475876 0 0 0 -1 I I #
straight-curve $-1 -43.098239082003232 0 -11.347106240495144 0 1 0 I I #
straight-curve $-1 -41.598239082003232 -36.025435628475876 11.347106240495144 1 0 0 I I #
point $-1 -43.098239082003232 -36.025435628475876 11.347106240495144 #
point $-1 -40.098239082003232 -36.025435628475876 11.347106240495144 #
straight-curve $-1 -40.098239082003232 -36.025435628475876 0 0 0 -1 I I #
point $-1 -40.098239082003232 -36.025435628475876 -11.347106240495144 #
straight-curve $-1 -43.098239082003232 11.699204801308785 -9.519950689415996 0 -1 0 I I #
point $-1 -43.098239082003232 18.670045810502941 -9.519950689415996 #
point $-1 -43.098239082003232 28.126773394732197 -9.519950689415996 #
straight-curve $-1 -43.098239082003232 28.126773394732197 0 0 0 -1 I I #
straight-curve $-1 -57.279179398919126 -9.5811217970026092 11.347106240495144 1 0 0 I I #
point $-1 -43.098239082003232 -9.5811217970026092 11.347106240495144 #
straight-curve $-1 -37.775842900111371 -2.0739924039262814 11.347106240495144 0 1 0 I I #
point $-1 -37.775842900111371 -9.5811217970026092 11.347106240495144 #
point $-1 -36.438269924335778 -7.4078670013425914 4.7045126410962537 #
point $-1 -36.438269924335778 -4.1479848078525627 4.7045126410962537 #
point $-1 -36.438269924335778 -0.88810261436253413 4.7045126410962537 #
straight-curve $-1 -41.598239082003232 -36.025435628475876 -11.347106240495144 -1 0 0 I I #
point $-1 -43.098239082003232 -36.025435628475876 -11.347106240495144 #
End-of-ACIS-data 