500 0 11 0           
7 Unknown 11 ACIS 5.0 NT 24 Fri Mar 26 19:27:50 1999 
-1 9.9999999999999995e-007 1e-010 
body $-1 $11 $-1 $12 #
body $-1 $13 $-1 $14 #
body $-1 $15 $-1 $16 #
body $-1 $17 $-1 $18 #
body $-1 $19 $-1 $20 #
body $-1 $21 $-1 $22 #
body $-1 $23 $-1 $24 #
body $-1 $25 $-1 $26 #
body $-1 $27 $-1 $28 #
body $-1 $29 $-1 $30 #
body $-1 $31 $-1 $32 #
lump $-1 $-1 $33 $0 #
transform $-1 1 0 0 0 1 0 0 0 1 50.589922788171023 24.6695157407914 10.000237334214603 1 rotate no_reflect no_shear #
lump $-1 $-1 $34 $1 #
transform $-1 1 0 0 0 1 0 0 0 1 50.589922788171023 24.6695157407914 10.000237334214603 1 rotate no_reflect no_shear #
lump $-1 $-1 $35 $2 #
transform $-1 1 0 0 0 1 0 0 0 1 50.589922788171023 24.6695157407914 10.000237334214603 1 rotate no_reflect no_shear #
lump $-1 $-1 $36 $3 #
transform $-1 1 0 0 0 1 0 0 0 1 50.589922788171023 24.6695157407914 10.000237334214603 1 rotate no_reflect no_shear #
lump $-1 $-1 $37 $4 #
transform $-1 1 0 0 0 1 0 0 0 1 50.589922788171023 24.6695157407914 10.000237334214603 1 rotate no_reflect no_shear #
lump $-1 $-1 $38 $5 #
transform $-1 1 0 0 0 1 0 0 0 1 50.589922788171023 24.6695157407914 10.000237334214603 1 rotate no_reflect no_shear #
lump $-1 $-1 $39 $6 #
transform $-1 1 0 0 0 1 0 0 0 1 50.589922788171023 24.6695157407914 10.000237334214603 1 rotate no_reflect no_shear #
lump $-1 $-1 $40 $7 #
transform $-1 1 0 0 0 1 0 0 0 1 50.589922788171023 24.6695157407914 10.000237334214603 1 rotate no_reflect no_shear #
lump $-1 $-1 $41 $8 #
transform $-1 1 0 0 0 1 0 0 0 1 50.589922788171023 24.6695157407914 10.000237334214603 1 rotate no_reflect no_shear #
lump $-1 $-1 $42 $9 #
transform $-1 1 0 0 0 1 0 0 0 1 50.589922788171023 24.6695157407914 10.000237334214603 1 rotate no_reflect no_shear #
lump $-1 $-1 $43 $10 #
transform $-1 1 0 0 0 1 0 0 0 1 50.589922788171023 24.6695157407914 10.000237334214603 1 rotate no_reflect no_shear #
shell $-1 $-1 $-1 $44 $-1 $11 #
shell $-1 $-1 $-1 $45 $-1 $13 #
shell $-1 $-1 $-1 $46 $-1 $15 #
shell $-1 $-1 $-1 $47 $-1 $17 #
shell $-1 $-1 $-1 $48 $-1 $19 #
shell $-1 $-1 $-1 $49 $-1 $21 #
shell $-1 $-1 $-1 $50 $-1 $23 #
shell $-1 $-1 $-1 $51 $-1 $25 #
shell $-1 $-1 $-1 $52 $-1 $27 #
shell $-1 $-1 $-1 $53 $-1 $29 #
shell $-1 $-1 $-1 $54 $-1 $31 #
face $-1 $55 $56 $33 $-1 $57 forward single #
face $-1 $58 $59 $34 $-1 $60 reversed single #
face $-1 $61 $62 $35 $-1 $63 reversed single #
face $-1 $64 $65 $36 $-1 $66 forward single #
face $-1 $67 $68 $37 $-1 $69 forward single #
face $-1 $70 $71 $38 $-1 $72 reversed single #
face $-1 $73 $74 $39 $-1 $75 forward single #
face $-1 $76 $77 $40 $-1 $78 forward single #
face $-1 $79 $80 $41 $-1 $81 reversed single #
face $-1 $82 $83 $42 $-1 $84 forward single #
face $-1 $85 $86 $43 $-1 $87 forward single #
face $-1 $88 $89 $33 $-1 $90 reversed single #
loop $-1 $-1 $91 $44 #
plane-surface $-1 0 0 10.000237334214603 0 0 1 1 0 0 forward_v I I I I #
face $-1 $92 $93 $34 $-1 $94 reversed single #
loop $-1 $-1 $95 $45 #
plane-surface $-1 -48.880380747933152 -21.025400201893035 0 1 0 0 0 0 -1 forward_v I I I I #
face $-1 $96 $97 $35 $-1 $98 reversed single #
loop $-1 $-1 $99 $46 #
plane-surface $-1 68.02819805400577 -9.5057519402751147 146.58341682641324 0 -1 0 -0.78801076186113728 0 -0.61566146476048833 forward_v I I I I #
face $-1 $100 $101 $36 $-1 $102 forward single #
loop $-1 $103 $104 $47 #
cone-surface $-1 47.57871742229991 -15.131132456503369 6.5879024060062594 -0.78801076186113728 0 -0.61566146476048833 0.61566146476048833 0 -0.78801076186113728 1 I I 0 1 1 forward I I I I #
face $-1 $105 $106 $37 $-1 $107 forward single #
loop $-1 $108 $109 $48 #
cone-surface $-1 47.57871742229991 -11.755904146766415 6.5879024060062594 -0.78801076186113728 0 -0.61566146476048833 0.61566146476048833 0 -0.78801076186113728 1 I I 0 1 1 forward I I I I #
face $-1 $110 $111 $38 $-1 $112 reversed single #
loop $-1 $-1 $113 $49 #
plane-surface $-1 -110.06194460696747 -5.4515744195682565 88.161704437457587 0 1 0 -0.5877852598018023 0 0.80901698891910034 forward_v I I I I #
face $-1 $114 $115 $39 $-1 $116 forward single #
loop $-1 $117 $118 $50 #
cone-surface $-1 -46.984672377483626 -2.852805860006363 6.6903768579101826 0.5877852598018023 0 -0.80901698891910034 0.80901698891910034 0 0.5877852598018023 1 I I 0 1 1 forward I I I I #
face $-1 $119 $120 $40 $-1 $121 forward single #
loop $-1 $122 $123 $51 #
cone-surface $-1 -46.984672377483626 1.0453469793364754 6.6903768579101826 0.5877852598018023 0 -0.80901698891910034 0.80901698891910034 0 0.5877852598018023 1 I I 0 1 1 forward I I I I #
face $-1 $124 $125 $41 $-1 $126 reversed single #
loop $-1 $-1 $127 $52 #
plane-surface $-1 -50.589922788171023 -0.90372944033494562 6.3054904299857952 -0.5877852598018023 0 0.80901698891910034 0.80901698891910034 0 0.5877852598018023 forward_v I I I I #
face $-1 $128 $129 $42 $-1 $130 forward single #
loop $-1 $131 $132 $53 #
cone-surface $-1 -46.984672377483626 6.2428840984602587 6.6903768579101826 0.5877852598018023 0 -0.80901698891910034 0.80901698891910034 0 0.5877852598018023 1 I I 0 1 1 forward I I I I #
face $-1 $133 $134 $43 $-1 $135 forward single #
loop $-1 $136 $137 $54 #
cone-surface $-1 -46.984672377483626 10.141036937803097 6.6903768579101826 0.5877852598018023 0 -0.80901698891910034 0.80901698891910034 0 0.5877852598018023 1 I I 0 1 1 forward I I I I #
face $-1 $138 $139 $33 $-1 $140 reversed single #
loop $-1 $-1 $141 $55 #
plane-surface $-1 0 0 -10.000237334214603 0 0 1 1 0 0 forward_v I I I I #
coedge $-1 $142 $143 $144 $145 forward $56 $-1 #
face $-1 $146 $147 $34 $-1 $148 reversed single #
loop $-1 $-1 $149 $58 #
plane-surface $-1 -47.380380747933152 -17.38128466299467 0 0 -1 0 0 0 -1 forward_v I I I I #
coedge $-1 $150 $151 $152 $153 forward $59 $-1 #
face $-1 $154 $155 $35 $-1 $156 reversed single #
loop $-1 $-1 $157 $61 #
plane-surface $-1 -11.702609143599744 -13.443518301634892 84.290884894642488 0.78801076186113728 0 0.61566146476048833 0.61566146476048833 0 -0.78801076186113728 forward_v I I I I #
coedge $-1 $158 $159 $160 $161 reversed $62 $-1 #
face $-1 $-1 $162 $36 $-1 $163 forward single #
loop $-1 $164 $165 $64 #
cone-surface $-1 46.29866588198243 -15.131132456503369 5.5878165640064879 -0.78801076186113728 0 -0.61566146476048833 0.30783073238024417 0 -0.39400538093056864 1 I I -0.70710678118654746 0.70710678118654746 0.5 forward I I I I #
loop $-1 $-1 $166 $47 #
coedge $-1 $104 $104 $167 $168 reversed $65 $-1 #
face $-1 $-1 $169 $37 $-1 $170 forward single #
loop $-1 $171 $172 $67 #
cone-surface $-1 46.29866588198243 -11.755904146766415 5.5878165640064879 -0.78801076186113728 0 -0.61566146476048833 0.30783073238024417 0 -0.39400538093056864 1 I I -0.70710678118654746 0.70710678118654746 0.5 forward I I I I #
loop $-1 $-1 $173 $48 #
coedge $-1 $109 $109 $174 $175 reversed $68 $-1 #
face $-1 $176 $177 $38 $-1 $178 reversed single #
loop $-1 $-1 $179 $70 #
plane-surface $-1 -50.589922788171023 -0.90372944033494562 6.3054904299857952 -0.5877852598018023 0 0.80901698891910034 0.80901698891910034 0 0.5877852598018023 forward_v I I I I #
coedge $-1 $180 $181 $182 $183 reversed $71 $-1 #
face $-1 $-1 $184 $39 $-1 $185 forward single #
loop $-1 $186 $187 $73 #
cone-surface $-1 -45.628220707112128 -2.852805860006363 4.8233813392606244 0.5877852598018023 0 -0.80901698891910034 0.40450849445955017 0 0.29389262990090115 1 I I -0.70710678118654746 0.70710678118654746 0.5 forward I I I I #
loop $-1 $-1 $188 $50 #
coedge $-1 $118 $118 $189 $190 reversed $74 $-1 #
face $-1 $-1 $191 $40 $-1 $192 forward single #
loop $-1 $193 $194 $76 #
cone-surface $-1 -45.628220707112128 1.0453469793364754 4.8233813392606244 0.5877852598018023 0 -0.80901698891910034 0.40450849445955017 0 0.29389262990090115 1 I I -0.70710678118654746 0.70710678118654746 0.5 forward I I I I #
loop $-1 $-1 $195 $51 #
coedge $-1 $123 $123 $196 $197 reversed $77 $-1 #
face $-1 $198 $199 $41 $-1 $200 reversed single #
loop $-1 $-1 $201 $79 #
plane-surface $-1 -110.06194460696747 12.739805497364987 88.161704437457587 0 -1 0 0.5877852598018023 0 -0.80901698891910034 forward_v I I I I #
coedge $-1 $202 $203 $204 $205 reversed $80 $-1 #
face $-1 $-1 $206 $42 $-1 $207 forward single #
loop $-1 $208 $209 $82 #
cone-surface $-1 -45.628220707112128 6.2428840984602587 4.8233813392606244 0.5877852598018023 0 -0.80901698891910034 0.40450849445955017 0 0.29389262990090115 1 I I -0.70710678118654746 0.70710678118654746 0.5 forward I I I I #
loop $-1 $-1 $210 $53 #
coedge $-1 $132 $132 $211 $212 reversed $83 $-1 #
face $-1 $-1 $213 $43 $-1 $214 forward single #
loop $-1 $215 $216 $85 #
cone-surface $-1 -45.628220707112128 10.141036937803097 4.8233813392606244 0.5877852598018023 0 -0.80901698891910034 0.40450849445955017 0 0.29389262990090115 1 I I -0.70710678118654746 0.70710678118654746 0.5 forward I I I I #
loop $-1 $-1 $217 $54 #
coedge $-1 $137 $137 $218 $219 reversed $86 $-1 #
face $-1 $220 $221 $33 $-1 $222 reversed single #
loop $-1 $-1 $223 $88 #
plane-surface $-1 0 -24.6695157407914 0 0 1 0 0 0 1 forward_v I I I I #
coedge $-1 $224 $225 $226 $227 forward $89 $-1 #
coedge $-1 $228 $91 $229 $230 forward $56 $-1 #
coedge $-1 $91 $228 $231 $232 forward $56 $-1 #
coedge $-1 $233 $234 $91 $145 reversed $235 $-1 #
edge $-1 $236 -24.6695157407914 $237 24.6695157407914 $144 $238 forward 7 unknown #
face $-1 $239 $240 $34 $-1 $241 forward single #
loop $-1 $-1 $242 $92 #
plane-surface $-1 -45.880380747933152 -21.025400201893035 0 -1 0 0 0 0 1 forward_v I I I I #
coedge $-1 $243 $244 $245 $246 forward $93 $-1 #
coedge $-1 $247 $95 $248 $249 reversed $59 $-1 #
coedge $-1 $95 $247 $250 $251 reversed $59 $-1 #
coedge $-1 $244 $243 $95 $153 reversed $93 $-1 #
edge $-1 $252 -10.000237334214603 $253 10.000237334214603 $152 $254 forward 7 unknown #
face $-1 $255 $256 $35 $-1 $257 reversed single #
loop $-1 $-1 $258 $96 #
plane-surface $-1 68.02819805400577 -17.38128466299467 146.58341682641324 0 1 0 0.78801076186113728 0 0.61566146476048833 forward_v I I I I #
coedge $-1 $259 $260 $261 $262 reversed $97 $-1 #
coedge $-1 $159 $99 $263 $264 reversed $62 $-1 #
coedge $-1 $99 $158 $259 $265 reversed $62 $-1 #
coedge $-1 $261 $266 $99 $161 forward $267 $-1 #
edge $-1 $268 -16.575823761168138 $269 -12.325505348199705 $160 $270 forward 7 unknown #
loop $-1 $-1 $167 $100 #
plane-surface $-1 -11.702609143599744 -13.443518301634892 84.290884894642488 0.78801076186113728 0 0.61566146476048833 0.61566146476048833 0 -0.78801076186113728 forward_v I I I I #
loop $-1 $-1 $271 $64 #
coedge $-1 $165 $165 $166 $272 reversed $101 $-1 #
coedge $-1 $166 $166 $165 $272 forward $103 $-1 #
coedge $-1 $167 $167 $104 $168 forward $162 $-1 #
edge $-1 $273 0 $273 6.2831853071796004 $167 $274 forward 7 unknown #
loop $-1 $-1 $174 $105 #
plane-surface $-1 -11.702609143599744 -13.443518301634892 84.290884894642488 0.78801076186113728 0 0.61566146476048833 0.61566146476048833 0 -0.78801076186113728 forward_v I I I I #
loop $-1 $-1 $275 $67 #
coedge $-1 $172 $172 $173 $276 reversed $106 $-1 #
coedge $-1 $173 $173 $172 $276 forward $108 $-1 #
coedge $-1 $174 $174 $109 $175 forward $169 $-1 #
edge $-1 $277 0 $277 6.2831853071796004 $174 $278 forward 7 unknown #
face $-1 $279 $280 $38 $-1 $281 reversed single #
loop $-1 $-1 $282 $110 #
plane-surface $-1 -110.06194460696747 3.6441155388983653 88.161704437457587 0 -1 0 0.5877852598018023 0 -0.80901698891910034 forward_v I I I I #
coedge $-1 $283 $284 $285 $286 reversed $111 $-1 #
coedge $-1 $181 $113 $287 $288 reversed $71 $-1 #
coedge $-1 $113 $180 $283 $289 reversed $71 $-1 #
coedge $-1 $285 $290 $113 $183 forward $291 $-1 #
edge $-1 $292 4.441049515312713 $293 9.5264322557463004 $182 $294 forward 7 unknown #
loop $-1 $-1 $189 $114 #
plane-surface $-1 -50.589922788171023 -0.90372944033494562 6.3054904299857952 -0.5877852598018023 0 0.80901698891910034 0.80901698891910034 0 0.5877852598018023 forward_v I I I I #
loop $-1 $-1 $295 $73 #
coedge $-1 $187 $187 $188 $296 reversed $115 $-1 #
coedge $-1 $188 $188 $187 $296 forward $117 $-1 #
coedge $-1 $189 $189 $118 $190 forward $184 $-1 #
edge $-1 $297 0 $297 6.2831853071796004 $189 $298 forward 7 unknown #
loop $-1 $-1 $196 $119 #
plane-surface $-1 -50.589922788171023 -0.90372944033494562 6.3054904299857952 -0.5877852598018023 0 0.80901698891910034 0.80901698891910034 0 0.5877852598018023 forward_v I I I I #
loop $-1 $-1 $299 $76 #
coedge $-1 $194 $194 $195 $300 reversed $120 $-1 #
coedge $-1 $195 $195 $194 $300 forward $122 $-1 #
coedge $-1 $196 $196 $123 $197 forward $191 $-1 #
edge $-1 $301 0 $301 6.2831853071796004 $196 $302 forward 7 unknown #
face $-1 $303 $304 $41 $-1 $305 forward single #
loop $-1 $-1 $306 $124 #
plane-surface $-1 -50.589922788171023 0 0 1 0 0 0 0 -1 forward_v I I I I #
coedge $-1 $307 $308 $309 $310 reversed $125 $-1 #
coedge $-1 $311 $127 $312 $313 reversed $80 $-1 #
coedge $-1 $127 $311 $314 $315 reversed $80 $-1 #
coedge $-1 $316 $317 $127 $205 forward $304 $-1 #
edge $-1 $318 0 $319 6.285878801170778 $204 $320 forward 7 unknown #
loop $-1 $-1 $211 $128 #
plane-surface $-1 -50.589922788171023 -0.90372944033494562 6.3054904299857952 -0.5877852598018023 0 0.80901698891910034 0.80901698891910034 0 0.5877852598018023 forward_v I I I I #
loop $-1 $-1 $321 $82 #
coedge $-1 $209 $209 $210 $322 reversed $129 $-1 #
coedge $-1 $210 $210 $209 $322 forward $131 $-1 #
coedge $-1 $211 $211 $132 $212 forward $206 $-1 #
edge $-1 $323 0 $323 6.2831853071796004 $211 $324 forward 7 unknown #
loop $-1 $-1 $218 $133 #
plane-surface $-1 -50.589922788171023 -0.90372944033494562 6.3054904299857952 -0.5877852598018023 0 0.80901698891910034 0.80901698891910034 0 0.5877852598018023 forward_v I I I I #
loop $-1 $-1 $325 $85 #
coedge $-1 $216 $216 $217 $326 reversed $134 $-1 #
coedge $-1 $217 $217 $216 $326 forward $136 $-1 #
coedge $-1 $218 $218 $137 $219 forward $213 $-1 #
edge $-1 $327 0 $327 6.2831853071796004 $218 $328 forward 7 unknown #
face $-1 $329 $330 $33 $-1 $331 reversed single #
loop $-1 $-1 $332 $138 #
plane-surface $-1 -50.589922788171023 0 0 1 0 0 0 0 -1 forward_v I I I I #
coedge $-1 $333 $231 $334 $335 forward $139 $-1 #
coedge $-1 $336 $141 $333 $337 forward $89 $-1 #
coedge $-1 $141 $336 $338 $339 forward $89 $-1 #
coedge $-1 $234 $233 $141 $227 reversed $235 $-1 #
edge $-1 $340 -24.6695157407914 $341 24.6695157407914 $226 $342 forward 7 unknown #
coedge $-1 $143 $142 $343 $344 forward $56 $-1 #
coedge $-1 $345 $346 $142 $230 reversed $330 $-1 #
edge $-1 $237 -50.589922788171023 $347 50.589922788171023 $229 $348 forward 7 unknown #
coedge $-1 $223 $349 $143 $232 reversed $139 $-1 #
edge $-1 $350 -50.589922788171023 $236 50.589922788171023 $231 $351 forward 7 unknown #
coedge $-1 $226 $144 $349 $352 forward $235 $-1 #
coedge $-1 $144 $226 $345 $353 reversed $235 $-1 #
loop $-1 $-1 $233 $329 #
vertex $-1 $145 $354 #
vertex $-1 $145 $355 #
straight-curve $-1 50.589922788171023 0 10.000237334214603 0 1 0 I I #
face $-1 $356 $357 $34 $-1 $358 reversed single #
loop $-1 $-1 $359 $146 #
plane-surface $-1 0 0 10.000237334214603 0 0 1 1 0 0 forward_v I I I I #
coedge $-1 $360 $361 $362 $363 reversed $147 $-1 #
coedge $-1 $152 $149 $364 $365 reversed $93 $-1 #
coedge $-1 $149 $152 $366 $367 reversed $93 $-1 #
coedge $-1 $361 $360 $149 $246 reversed $147 $-1 #
edge $-1 $368 -10.000237334214603 $369 10.000237334214603 $245 $370 forward 7 unknown #
coedge $-1 $151 $150 $371 $372 reversed $59 $-1 #
coedge $-1 $364 $373 $150 $249 forward $357 $-1 #
edge $-1 $374 -14.156815639844883 $253 -6.8685845620481523 $248 $375 forward 7 unknown #
coedge $-1 $376 $366 $151 $251 forward $240 $-1 #
edge $-1 $252 6.8685845620481523 $377 14.156815639844883 $250 $378 forward 7 unknown #
vertex $-1 $251 $379 #
vertex $-1 $249 $380 #
straight-curve $-1 -48.880380747933152 -17.38128466299467 0 0 0 -1 I I #
face $-1 $-1 $267 $35 $-1 $381 forward single #
loop $-1 $-1 $382 $154 #
plane-surface $-1 50.589922788171023 0 0 -1 0 0 0 0 1 forward_v I I I I #
coedge $-1 $383 $384 $385 $386 reversed $155 $-1 #
coedge $-1 $387 $157 $159 $265 forward $97 $-1 #
coedge $-1 $157 $387 $383 $388 forward $97 $-1 #
coedge $-1 $385 $160 $157 $262 forward $267 $-1 #
edge $-1 $269 2.7839927894576686 $389 10.659525512177224 $261 $390 forward 7 unknown #
coedge $-1 $391 $392 $158 $264 forward $256 $-1 #
edge $-1 $393 -68.731630716169661 $268 -63.291471078992018 $263 $394 forward 7 unknown #
edge $-1 $269 94.276183976176881 $393 101.17984557634207 $159 $395 forward 7 unknown #
coedge $-1 $160 $385 $391 $396 forward $267 $-1 #
loop $-1 $-1 $385 $255 #
vertex $-1 $264 $397 #
vertex $-1 $161 $398 #
straight-curve $-1 34.014099027002885 -9.5057519402751147 10.000237334214603 -1 0 0 I I #
coedge $-1 $271 $271 $-1 $399 reversed $164 $-1 #
edge $-1 $400 0 $400 6.2831853071796004 $165 $401 forward 7 unknown #
vertex $-1 $168 $402 #
ellipse-curve $-1 48.464763581686803 -15.131132456503369 7.2801575156257758 0.78801076186113728 0 0.61566146476048833 0.61566146476048833 0 -0.78801076186113728 1 I I #
coedge $-1 $275 $275 $-1 $403 reversed $171 $-1 #
edge $-1 $404 0 $404 6.2831853071796004 $172 $405 forward 7 unknown #
vertex $-1 $175 $406 #
ellipse-curve $-1 48.464763581686803 -11.755904146766415 7.2801575156257758 0.78801076186113728 0 0.61566146476048833 0.61566146476048833 0 -0.78801076186113728 1 I I #
face $-1 $-1 $291 $38 $-1 $407 forward single #
loop $-1 $-1 $408 $176 #
plane-surface $-1 -50.589922788171023 0 0 1 0 0 0 0 -1 forward_v I I I I #
coedge $-1 $409 $410 $411 $412 reversed $177 $-1 #
coedge $-1 $413 $179 $181 $289 forward $111 $-1 #
coedge $-1 $179 $413 $409 $414 forward $111 $-1 #
coedge $-1 $411 $182 $179 $286 forward $291 $-1 #
edge $-1 $293 -4.9997096994007837 $415 4.0959802590658381 $285 $416 forward 7 unknown #
coedge $-1 $417 $418 $180 $288 forward $280 $-1 #
edge $-1 $419 -37.775361788742998 $292 -34.080614884514191 $287 $420 forward 7 unknown #
edge $-1 $293 -6.285878801170778 $419 0 $181 $421 forward 7 unknown #
coedge $-1 $182 $411 $417 $422 forward $291 $-1 #
loop $-1 $-1 $411 $279 #
vertex $-1 $288 $423 #
vertex $-1 $183 $424 #
straight-curve $-1 -55.030972303483736 -5.4515744195682565 10.000237334214603 1 0 0 I I #
coedge $-1 $295 $295 $-1 $425 reversed $186 $-1 #
edge $-1 $426 0 $426 6.2831853071796004 $187 $427 forward 7 unknown #
vertex $-1 $190 $428 #
ellipse-curve $-1 -48.047231417954229 -2.852805860006363 8.1528638821002009 -0.5877852598018023 0 0.80901698891910034 0.80901698891910034 0 0.5877852598018023 1 I I #
coedge $-1 $299 $299 $-1 $429 reversed $193 $-1 #
edge $-1 $430 0 $430 6.2831853071796004 $194 $431 forward 7 unknown #
vertex $-1 $197 $432 #
ellipse-curve $-1 -48.047231417954229 1.0453469793364754 8.1528638821002009 -0.5877852598018023 0 0.80901698891910034 0.80901698891910034 0 0.5877852598018023 1 I I #
face $-1 $-1 $433 $41 $-1 $434 forward single #
loop $-1 $-1 $316 $198 #
plane-surface $-1 -110.06194460696747 3.6441155388983653 88.161704437457587 0 -1 0 0.5877852598018023 0 -0.80901698891910034 forward_v I I I I #
coedge $-1 $312 $435 $308 $436 forward $199 $-1 #
coedge $-1 $308 $201 $311 $437 reversed $125 $-1 #
coedge $-1 $201 $307 $306 $436 reversed $125 $-1 #
coedge $-1 $438 $314 $201 $310 forward $433 $-1 #
edge $-1 $439 -9.5264322557463004 $440 -4.441049515312713 $309 $441 forward 7 unknown #
coedge $-1 $203 $202 $307 $437 forward $80 $-1 #
coedge $-1 $442 $306 $202 $313 forward $199 $-1 #
edge $-1 $443 -13.19167021753246 $318 -4.0959802590658381 $312 $444 forward 7 unknown #
coedge $-1 $309 $445 $203 $315 forward $433 $-1 #
edge $-1 $319 4.0959802590658381 $439 13.19167021753246 $314 $446 forward 7 unknown #
coedge $-1 $317 $204 $445 $447 reversed $304 $-1 #
coedge $-1 $204 $316 $442 $448 reversed $304 $-1 #
vertex $-1 $313 $449 #
vertex $-1 $315 $450 #
straight-curve $-1 -50.589922788171023 3.6441155388983653 6.3054904299857952 0.80901698891910034 0 0.5877852598018023 I I #
coedge $-1 $321 $321 $-1 $451 reversed $208 $-1 #
edge $-1 $452 0 $452 6.2831853071796004 $209 $453 forward 7 unknown #
vertex $-1 $212 $454 #
ellipse-curve $-1 -48.047231417954229 6.2428840984602587 8.1528638821002009 -0.5877852598018023 0 0.80901698891910034 0.80901698891910034 0 0.5877852598018023 1 I I #
coedge $-1 $325 $325 $-1 $455 reversed $215 $-1 #
edge $-1 $456 0 $456 6.2831853071796004 $216 $457 forward 7 unknown #
vertex $-1 $219 $458 #
ellipse-curve $-1 -48.047231417954229 10.141036937803097 8.1528638821002009 -0.5877852598018023 0 0.80901698891910034 0.80901698891910034 0 0.5877852598018023 1 I I #
face $-1 $-1 $235 $33 $-1 $459 reversed single #
loop $-1 $-1 $345 $220 #
plane-surface $-1 0 24.6695157407914 0 0 -1 0 0 0 -1 forward_v I I I I #
coedge $-1 $460 $343 $346 $461 forward $221 $-1 #
coedge $-1 $349 $223 $224 $337 reversed $139 $-1 #
coedge $-1 $343 $460 $223 $335 reversed $221 $-1 #
edge $-1 $350 -10.000237334214603 $462 10.000237334214603 $334 $463 forward 7 unknown #
coedge $-1 $225 $224 $460 $464 forward $89 $-1 #
edge $-1 $341 -50.589922788171023 $462 50.589922788171023 $333 $465 forward 7 unknown #
coedge $-1 $346 $345 $225 $339 reversed $330 $-1 #
edge $-1 $466 -50.589922788171023 $340 50.589922788171023 $338 $467 forward 7 unknown #
vertex $-1 $227 $468 #
vertex $-1 $352 $469 #
straight-curve $-1 50.589922788171023 0 -10.000237334214603 0 -1 0 I I #
coedge $-1 $332 $334 $228 $344 reversed $221 $-1 #
edge $-1 $347 -24.6695157407914 $350 24.6695157407914 $343 $470 forward 7 unknown #
coedge $-1 $338 $229 $234 $353 forward $330 $-1 #
coedge $-1 $229 $338 $332 $461 reversed $330 $-1 #
vertex $-1 $230 $471 #
straight-curve $-1 0 24.6695157407914 10.000237334214603 -1 0 0 I I #
coedge $-1 $231 $333 $233 $352 reversed $139 $-1 #
vertex $-1 $344 $472 #
straight-curve $-1 0 -24.6695157407914 10.000237334214603 1 0 0 I I #
edge $-1 $236 -10.000237334214603 $341 10.000237334214603 $233 $473 forward 7 unknown #
edge $-1 $237 -10.000237334214603 $340 10.000237334214603 $234 $474 forward 7 unknown #
point $-1 50.589922788171023 -24.6695157407914 10.000237334214603 #
point $-1 50.589922788171023 24.6695157407914 10.000237334214603 #
face $-1 $-1 $475 $34 $-1 $476 reversed single #
loop $-1 $-1 $477 $239 #
plane-surface $-1 0 0 -10.000237334214603 0 0 1 1 0 0 forward_v I I I I #
coedge $-1 $366 $376 $361 $478 forward $240 $-1 #
coedge $-1 $245 $242 $477 $479 reversed $147 $-1 #
coedge $-1 $242 $245 $359 $478 reversed $147 $-1 #
coedge $-1 $480 $481 $242 $363 forward $475 $-1 #
edge $-1 $482 -10.000237334214603 $483 10.000237334214603 $362 $484 forward 7 unknown #
coedge $-1 $477 $248 $243 $365 forward $357 $-1 #
edge $-1 $253 -25.190190373966576 $369 -22.190190373966576 $364 $485 forward 7 unknown #
coedge $-1 $250 $359 $244 $367 forward $240 $-1 #
edge $-1 $368 22.190190373966576 $252 25.190190373966576 $366 $486 forward 7 unknown #
vertex $-1 $367 $487 #
vertex $-1 $365 $488 #
straight-curve $-1 -45.880380747933152 -17.38128466299467 0 0 0 -1 I I #
coedge $-1 $481 $480 $247 $372 forward $475 $-1 #
edge $-1 $377 -10.000237334214603 $374 10.000237334214603 $371 $489 forward 7 unknown #
coedge $-1 $248 $477 $481 $490 forward $357 $-1 #
vertex $-1 $249 $491 #
straight-curve $-1 -48.880380747933152 -10.512700100946518 -10.000237334214603 0 1 0 I I #
coedge $-1 $359 $250 $480 $492 forward $240 $-1 #
vertex $-1 $492 $493 #
straight-curve $-1 -48.880380747933152 -10.512700100946518 10.000237334214603 0 -1 0 I I #
point $-1 -48.880380747933152 -17.38128466299467 10.000237334214603 #
point $-1 -48.880380747933152 -17.38128466299467 -10.000237334214603 #
plane-surface $-1 0 0 10.000237334214603 0 0 1 1 0 0 forward_v I I I I #
coedge $-1 $392 $391 $384 $494 forward $256 $-1 #
coedge $-1 $384 $258 $260 $388 reversed $155 $-1 #
coedge $-1 $258 $383 $382 $494 reversed $155 $-1 #
coedge $-1 $266 $261 $258 $386 forward $267 $-1 #
edge $-1 $389 12.325505348199705 $495 16.575823761168138 $385 $496 forward 7 unknown #
coedge $-1 $260 $259 $392 $497 reversed $97 $-1 #
edge $-1 $498 -101.17984557634207 $389 -94.276183976176881 $383 $499 forward 7 unknown #
vertex $-1 $262 $500 #
straight-curve $-1 46.339604375202597 -6.7217591508174461 10.000237334214603 0 -1 0 I I #
coedge $-1 $382 $263 $266 $396 reversed $256 $-1 #
coedge $-1 $263 $382 $387 $497 forward $256 $-1 #
vertex $-1 $264 $501 #
straight-curve $-1 50.589922788171023 -9.5057519402751147 73.291708413206621 0 0 1 I I #
straight-curve $-1 -11.702609143599744 -9.5057519402751147 84.290884894642488 0.61566146476048833 0 -0.78801076186113728 I I #
edge $-1 $495 -17.38128466299467 $268 -9.5057519402751147 $391 $502 forward 7 unknown #
point $-1 50.589922788171023 -9.5057519402751147 10.000237334214603 #
point $-1 46.33960437520259 -9.5057519402751147 10.000237334214603 #
edge $-1 $503 1 $503 0 $271 $-1 forward 7 unknown #
vertex $-1 $272 $504 #
ellipse-curve $-1 46.692671262912995 -15.131132456503369 5.8956472963867324 0.78801076186113728 0 0.61566146476048833 0.61566146476048833 0 -0.78801076186113728 1 I I #
point $-1 49.080425046447303 -15.131132456503369 6.4921467537646498 #
edge $-1 $505 1 $505 0 $275 $-1 forward 7 unknown #
vertex $-1 $276 $506 #
ellipse-curve $-1 46.692671262912995 -11.755904146766415 5.8956472963867324 0.78801076186113728 0 0.61566146476048833 0.61566146476048833 0 -0.78801076186113728 1 I I #
point $-1 49.080425046447303 -11.755904146766415 6.4921467537646498 #
plane-surface $-1 0 0 10.000237334214603 0 0 1 1 0 0 forward_v I I I I #
coedge $-1 $418 $417 $410 $507 forward $280 $-1 #
coedge $-1 $410 $282 $284 $414 reversed $177 $-1 #
coedge $-1 $282 $409 $408 $507 reversed $177 $-1 #
coedge $-1 $290 $285 $282 $412 forward $291 $-1 #
edge $-1 $415 -9.5264322557463004 $508 -4.441049515312713 $411 $509 forward 7 unknown #
coedge $-1 $284 $283 $418 $510 reversed $111 $-1 #
edge $-1 $511 0 $415 6.285878801170778 $409 $512 forward 7 unknown #
vertex $-1 $286 $513 #
straight-curve $-1 -45.504540047737436 -0.45186472016747281 10.000237334214601 0 1 0 I I #
coedge $-1 $408 $287 $290 $422 reversed $280 $-1 #
coedge $-1 $287 $408 $413 $510 forward $280 $-1 #
vertex $-1 $288 $514 #
straight-curve $-1 -50.589922788171023 -5.4515744195682565 44.080852218728793 0 0 1 I I #
straight-curve $-1 -50.589922788171023 -5.4515744195682565 6.3054904299857952 -0.80901698891910034 0 -0.5877852598018023 I I #
edge $-1 $508 -3.6441155388983653 $292 5.4515744195682565 $417 $515 forward 7 unknown #
point $-1 -50.589922788171023 -5.4515744195682565 10.000237334214603 #
point $-1 -45.504540047737436 -5.4515744195682565 10.000237334214603 #
edge $-1 $516 1 $516 0 $295 $-1 forward 7 unknown #
vertex $-1 $296 $517 #
ellipse-curve $-1 -45.92211333701303 -2.852805860006363 5.2278898337201749 -0.5877852598018023 0 0.80901698891910034 0.80901698891910034 0 0.5877852598018023 1 I I #
point $-1 -47.238214429035118 -2.852805860006363 8.7406491419019936 #
edge $-1 $518 1 $518 0 $299 $-1 forward 7 unknown #
vertex $-1 $300 $519 #
ellipse-curve $-1 -45.92211333701303 1.0453469793364754 5.2278898337201749 -0.5877852598018023 0 0.80901698891910034 0.80901698891910034 0 0.5877852598018023 1 I I #
point $-1 -47.238214429035118 1.0453469793364754 8.7406491419019936 #
loop $-1 $-1 $309 $303 #
plane-surface $-1 0 0 10.000237334214603 0 0 1 1 0 0 forward_v I I I I #
coedge $-1 $306 $442 $438 $520 reversed $199 $-1 #
edge $-1 $440 34.080614884514191 $443 37.775361788742998 $306 $521 forward 7 unknown #
edge $-1 $443 0 $439 6.285878801170778 $307 $522 forward 7 unknown #
coedge $-1 $445 $309 $435 $520 forward $433 $-1 #
vertex $-1 $310 $523 #
vertex $-1 $520 $524 #
straight-curve $-1 -55.030972303483736 12.739805497364987 10.000237334214603 -1 0 0 I I #
coedge $-1 $435 $312 $317 $448 forward $199 $-1 #
vertex $-1 $436 $525 #
straight-curve $-1 -50.589922788171023 -0.45186472016747281 6.305490429985797 0 -1 0 I I #
coedge $-1 $314 $438 $316 $447 forward $433 $-1 #
straight-curve $-1 -45.504540047737436 -0.45186472016747281 10.000237334214601 0 1 0 I I #
edge $-1 $526 4.441049515312713 $319 9.5264322557463004 $445 $527 forward 7 unknown #
edge $-1 $318 -37.775361788742998 $526 -34.080614884514191 $442 $528 forward 7 unknown #
point $-1 -50.589922788171023 3.6441155388983653 6.3054904299857952 #
point $-1 -45.504540047737436 3.6441155388983653 10.000237334214603 #
edge $-1 $529 1 $529 0 $321 $-1 forward 7 unknown #
vertex $-1 $322 $530 #
ellipse-curve $-1 -45.92211333701303 6.2428840984602587 5.2278898337201749 -0.5877852598018023 0 0.80901698891910034 0.80901698891910034 0 0.5877852598018023 1 I I #
point $-1 -47.238214429035118 6.2428840984602587 8.7406491419019936 #
edge $-1 $531 1 $531 0 $325 $-1 forward 7 unknown #
vertex $-1 $326 $532 #
ellipse-curve $-1 -45.92211333701303 10.141036937803097 5.2278898337201749 -0.5877852598018023 0 0.80901698891910034 0.80901698891910034 0 0.5877852598018023 1 I I #
point $-1 -47.238214429035118 10.141036937803097 8.7406491419019936 #
plane-surface $-1 50.589922788171023 0 0 -1 0 0 0 0 1 forward_v I I I I #
coedge $-1 $334 $332 $336 $464 reversed $221 $-1 #
edge $-1 $347 -10.000237334214603 $466 10.000237334214603 $346 $533 forward 7 unknown #
vertex $-1 $464 $534 #
straight-curve $-1 -50.589922788171023 -24.6695157407914 0 0 0 -1 I I #
edge $-1 $462 -24.6695157407914 $466 24.6695157407914 $460 $535 forward 7 unknown #
straight-curve $-1 0 -24.6695157407914 -10.000237334214603 -1 0 0 I I #
vertex $-1 $339 $536 #
straight-curve $-1 0 24.6695157407914 -10.000237334214603 1 0 0 I I #
point $-1 50.589922788171023 24.6695157407914 -10.000237334214603 #
point $-1 50.589922788171023 -24.6695157407914 -10.000237334214603 #
straight-curve $-1 -50.589922788171023 0 10.000237334214603 0 -1 0 I I #
point $-1 -50.589922788171023 24.6695157407914 10.000237334214603 #
point $-1 -50.589922788171023 -24.6695157407914 10.000237334214603 #
straight-curve $-1 50.589922788171023 -24.6695157407914 0 0 0 -1 I I #
straight-curve $-1 50.589922788171023 24.6695157407914 0 0 0 -1 I I #
loop $-1 $-1 $362 $356 #
plane-surface $-1 0 -24.6695157407914 0 0 1 0 0 0 1 forward_v I I I I #
coedge $-1 $373 $364 $360 $479 forward $357 $-1 #
edge $-1 $483 -14.156815639844883 $368 -6.8685845620481523 $359 $537 forward 7 unknown #
edge $-1 $369 6.8685845620481523 $482 14.156815639844883 $477 $538 forward 7 unknown #
coedge $-1 $371 $362 $376 $492 reversed $475 $-1 #
coedge $-1 $362 $371 $373 $490 reversed $475 $-1 #
vertex $-1 $490 $539 #
vertex $-1 $363 $540 #
straight-curve $-1 -45.880380747933152 -24.6695157407914 0 0 0 1 I I #
straight-curve $-1 -23.690190373966576 -17.38128466299467 -10.000237334214603 1 0 0 I I #
straight-curve $-1 -23.690190373966576 -17.38128466299467 10.000237334214603 -1 0 0 I I #
point $-1 -45.880380747933152 -17.38128466299467 10.000237334214603 #
point $-1 -45.880380747933152 -17.38128466299467 -10.000237334214603 #
straight-curve $-1 -48.880380747933152 -24.6695157407914 0 0 0 -1 I I #
edge $-1 $482 45.880380747933152 $374 48.880380747933152 $481 $541 forward 7 unknown #
point $-1 -48.880380747933152 -24.6695157407914 -10.000237334214603 #
edge $-1 $377 -48.880380747933152 $483 -45.880380747933152 $480 $542 forward 7 unknown #
point $-1 -48.880380747933152 -24.6695157407914 10.000237334214603 #
edge $-1 $495 63.291471078992018 $498 68.731630716169661 $382 $543 forward 7 unknown #
vertex $-1 $396 $544 #
straight-curve $-1 34.014099027002885 -17.38128466299467 10.000237334214603 1 0 0 I I #
edge $-1 $498 -10.659525512177224 $393 -2.7839927894576686 $392 $545 forward 7 unknown #
vertex $-1 $497 $546 #
straight-curve $-1 -11.702609143599744 -17.38128466299467 84.290884894642488 -0.61566146476048833 0 0.78801076186113728 I I #
point $-1 46.33960437520259 -17.38128466299467 10.000237334214603 #
point $-1 50.589922788171023 -9.5057519402751147 4.5600776970369594 #
straight-curve $-1 50.589922788171023 0 10.000237334214603 0 1 0 I I #
vertex $-1 $399 $547 #
point $-1 47.308332727673488 -15.131132456503369 5.1076365345255947 #
vertex $-1 $403 $548 #
point $-1 47.308332727673488 -11.755904146766415 5.1076365345255947 #
edge $-1 $508 34.080614884514191 $511 37.775361788742998 $408 $549 forward 7 unknown #
vertex $-1 $422 $550 #
straight-curve $-1 -55.030972303483736 3.6441155388983653 10.000237334214603 -1 0 0 I I #
edge $-1 $511 -4.0959802590658381 $419 4.9997096994007837 $418 $551 forward 7 unknown #
vertex $-1 $510 $552 #
straight-curve $-1 -50.589922788171023 3.6441155388983653 6.3054904299857952 0.80901698891910034 0 0.5877852598018023 I I #
point $-1 -45.504540047737436 3.6441155388983653 10.000237334214603 #
point $-1 -50.589922788171023 -5.4515744195682565 6.3054904299857952 #
straight-curve $-1 -50.589922788171023 0 10.000237334214603 0 -1 0 I I #
vertex $-1 $425 $553 #
point $-1 -45.113096348093926 -2.852805860006363 5.8156750935219765 #
vertex $-1 $429 $554 #
point $-1 -45.113096348093926 1.0453469793364754 5.8156750935219765 #
edge $-1 $440 -12.739805497364987 $526 -3.6441155388983653 $435 $555 forward 7 unknown #
straight-curve $-1 -50.589922788171023 12.739805497364987 44.080852218728793 0 0 -1 I I #
straight-curve $-1 -50.589922788171023 12.739805497364987 6.3054904299857952 0.80901698891910034 0 0.5877852598018023 I I #
point $-1 -45.504540047737436 12.739805497364987 10.000237334214603 #
point $-1 -50.589922788171023 12.739805497364987 10.000237334214603 #
point $-1 -50.589922788171023 12.739805497364987 6.3054904299857952 #
vertex $-1 $448 $556 #
straight-curve $-1 -55.030972303483736 3.6441155388983653 10.000237334214603 1 0 0 I I #
straight-curve $-1 -50.589922788171023 3.6441155388983653 44.080852218728793 0 0 1 I I #
vertex $-1 $451 $557 #
point $-1 -45.113096348093926 6.2428840984602587 5.8156750935219765 #
vertex $-1 $455 $558 #
point $-1 -45.113096348093926 10.141036937803097 5.8156750935219765 #
straight-curve $-1 -50.589922788171023 24.6695157407914 0 0 0 -1 I I #
point $-1 -50.589922788171023 -24.6695157407914 -10.000237334214603 #
straight-curve $-1 -50.589922788171023 0 -10.000237334214603 0 1 0 I I #
point $-1 -50.589922788171023 24.6695157407914 -10.000237334214603 #
straight-curve $-1 -45.880380747933152 -10.512700100946518 10.000237334214603 0 1 0 I I #
straight-curve $-1 -45.880380747933152 -10.512700100946518 -10.000237334214603 0 -1 0 I I #
point $-1 -45.880380747933152 -24.6695157407914 -10.000237334214603 #
point $-1 -45.880380747933152 -24.6695157407914 10.000237334214603 #
straight-curve $-1 0 -24.6695157407914 -10.000237334214603 -1 0 0 I I #
straight-curve $-1 0 -24.6695157407914 10.000237334214603 1 0 0 I I #
straight-curve $-1 50.589922788171023 -17.38128466299467 73.291708413206621 0 0 -1 I I #
point $-1 50.589922788171023 -17.38128466299467 10.000237334214603 #
straight-curve $-1 50.589922788171023 -6.7217591508174461 4.5600776970369594 0 1 0 I I #
point $-1 50.589922788171023 -17.38128466299467 4.5600776970369594 #
point $-1 45.904660501051865 -15.131132456503369 5.2799858316262434 #
point $-1 45.904660501051865 -11.755904146766415 5.2799858316262434 #
straight-curve $-1 -50.589922788171023 3.6441155388983653 44.080852218728793 0 0 -1 I I #
point $-1 -50.589922788171023 3.6441155388983653 10.000237334214603 #
straight-curve $-1 -50.589922788171023 -0.45186472016747281 6.305490429985797 0 -1 0 I I #
point $-1 -50.589922788171023 3.6441155388983653 6.3054904299857952 #
point $-1 -45.334328077211225 -2.852805860006363 4.4188728448010739 #
point $-1 -45.334328077211225 1.0453469793364754 4.4188728448010739 #
straight-curve $-1 -50.589922788171023 0 10.000237334214603 0 -1 0 I I #
point $-1 -50.589922788171023 3.6441155388983653 10.000237334214603 #
point $-1 -45.334328077211225 6.2428840984602587 4.4188728448010739 #
point $-1 -45.334328077211225 10.141036937803097 4.4188728448010739 #
End-of-ACIS-data 