500 0 7 0           
7 Unknown 11 ACIS 5.0 NT 24 Fri Mar 26 02:39:08 1999 
-1 9.9999999999999995e-007 1e-010 
body $-1 $7 $-1 $8 #
body $-1 $9 $-1 $10 #
body $-1 $11 $-1 $12 #
body $-1 $13 $-1 $14 #
body $-1 $15 $-1 $16 #
body $-1 $17 $-1 $18 #
body $-1 $19 $-1 $20 #
lump $-1 $-1 $21 $0 #
transform $-1 1 0 0 0 1 0 0 0 1 66.51326029236732 34.625990948003512 11.375843231127433 1 rotate no_reflect no_shear #
lump $-1 $-1 $22 $1 #
transform $-1 1 0 0 0 1 0 0 0 1 66.51326029236732 34.625990948003512 11.375843231127433 1 rotate no_reflect no_shear #
lump $-1 $-1 $23 $2 #
transform $-1 1 0 0 0 1 0 0 0 1 66.51326029236732 34.625990948003512 11.375843231127433 1 rotate no_reflect no_shear #
lump $-1 $-1 $24 $3 #
transform $-1 1 0 0 0 1 0 0 0 1 66.51326029236732 34.625990948003512 11.375843231127433 1 rotate no_reflect no_shear #
lump $-1 $-1 $25 $4 #
transform $-1 1 0 0 0 1 0 0 0 1 66.51326029236732 34.625990948003512 11.375843231127433 1 rotate no_reflect no_shear #
lump $-1 $-1 $26 $5 #
transform $-1 1 0 0 0 1 0 0 0 1 66.51326029236732 34.625990948003512 11.375843231127433 1 rotate no_reflect no_shear #
lump $-1 $-1 $27 $6 #
transform $-1 1 0 0 0 1 0 0 0 1 66.51326029236732 34.625990948003512 11.375843231127433 1 rotate no_reflect no_shear #
shell $-1 $-1 $-1 $28 $-1 $7 #
shell $-1 $-1 $-1 $29 $-1 $9 #
shell $-1 $-1 $-1 $30 $-1 $11 #
shell $-1 $-1 $-1 $31 $-1 $13 #
shell $-1 $-1 $-1 $32 $-1 $15 #
shell $-1 $-1 $-1 $33 $-1 $17 #
shell $-1 $-1 $-1 $34 $-1 $19 #
face $-1 $35 $36 $21 $-1 $37 forward single #
face $-1 $38 $39 $22 $-1 $40 reversed single #
face $-1 $41 $42 $23 $-1 $43 reversed single #
face $-1 $44 $45 $24 $-1 $46 reversed single #
face $-1 $47 $48 $25 $-1 $49 forward single #
face $-1 $50 $51 $26 $-1 $52 forward single #
face $-1 $53 $54 $27 $-1 $55 forward single #
face $-1 $56 $57 $21 $-1 $58 reversed single #
loop $-1 $-1 $59 $28 #
plane-surface $-1 0 0 11.375843231127433 0 0 1 1 0 0 forward_v I I I I #
face $-1 $60 $61 $22 $-1 $62 reversed single #
loop $-1 $-1 $63 $29 #
plane-surface $-1 0 -28.766558541917576 8.0995642744896674 0 0 1 1 0 0 forward_v I I I I #
face $-1 $64 $65 $23 $-1 $66 reversed single #
loop $-1 $-1 $67 $30 #
plane-surface $-1 0 28.766558541917576 8.0995642744896674 0 0 1 1 0 0 forward_v I I I I #
face $-1 $68 $69 $24 $-1 $70 reversed single #
loop $-1 $-1 $71 $31 #
plane-surface $-1 -150.22956328630428 -18.97957711542071 107.01259088950776 0 1 0 -0.62932039886446345 0 0.77714595512881146 forward_v I I I I #
face $-1 $72 $73 $25 $-1 $74 forward single #
loop $-1 $75 $76 $32 #
cone-surface $-1 -61.413278845012904 -16.710310718184534 7.1106503075691299 0.62932039886446345 0 -0.77714595512881146 0.77714595512881146 0 0.62932039886446345 1 I I 0 1 1 forward I I I I #
face $-1 $77 $78 $26 $-1 $79 forward single #
loop $-1 $80 $81 $33 #
cone-surface $-1 -61.413278845012904 -13.306411122330275 7.1106503075691299 0.62932039886446345 0 -0.77714595512881146 0.77714595512881146 0 0.62932039886446345 1 I I 0 1 1 forward I I I I #
face $-1 $82 $83 $27 $-1 $84 forward single #
loop $-1 $85 $86 $34 #
cone-surface $-1 -61.413278845012904 -9.9025115264760153 7.1106503075691299 0.62932039886446345 0 -0.77714595512881146 0.77714595512881146 0 0.62932039886446345 1 I I 0 1 1 forward I I I I #
face $-1 $87 $88 $21 $-1 $89 reversed single #
loop $-1 $-1 $90 $35 #
plane-surface $-1 0 0 -11.375843231127433 0 0 1 1 0 0 forward_v I I I I #
coedge $-1 $91 $92 $93 $94 forward $36 $-1 #
face $-1 $95 $96 $22 $-1 $97 reversed single #
loop $-1 $-1 $98 $38 #
plane-surface $-1 0 -22.907126135831639 9.7377037528085495 0 -1 0 0 0 -1 forward_v I I I I #
coedge $-1 $99 $100 $101 $102 reversed $39 $-1 #
face $-1 $103 $104 $23 $-1 $105 forward single #
loop $-1 $-1 $106 $41 #
plane-surface $-1 0 22.907126135831639 9.7377037528085495 0 1 0 0 0 1 forward_v I I I I #
coedge $-1 $107 $108 $109 $110 reversed $42 $-1 #
face $-1 $111 $112 $24 $-1 $113 reversed single #
loop $-1 $-1 $114 $44 #
plane-surface $-1 -66.51326029236732 -13.306411122330275 3.6315684922216604 -0.62932039886446345 0 0.77714595512881146 0.77714595512881146 0 0.62932039886446345 forward_v I I I I #
coedge $-1 $115 $116 $117 $118 reversed $45 $-1 #
face $-1 $-1 $119 $25 $-1 $120 forward single #
loop $-1 $121 $122 $47 #
cone-surface $-1 -60.78032852716332 -16.710310718184534 6.3290217758993066 0.62932039886446345 0 -0.77714595512881146 0.38857297756440573 0 0.31466019943223172 1 I I -0.70710678118654746 0.70710678118654746 0.5 forward I I I I #
loop $-1 $-1 $123 $32 #
coedge $-1 $76 $76 $124 $125 reversed $48 $-1 #
face $-1 $-1 $126 $26 $-1 $127 forward single #
loop $-1 $128 $129 $50 #
cone-surface $-1 -60.78032852716332 -13.306411122330275 6.3290217758993066 0.62932039886446345 0 -0.77714595512881146 0.38857297756440573 0 0.31466019943223172 1 I I -0.70710678118654746 0.70710678118654746 0.5 forward I I I I #
loop $-1 $-1 $130 $33 #
coedge $-1 $81 $81 $131 $132 reversed $51 $-1 #
face $-1 $-1 $133 $27 $-1 $134 forward single #
loop $-1 $135 $136 $53 #
cone-surface $-1 -60.78032852716332 -9.9025115264760153 6.3290217758993066 0.62932039886446345 0 -0.77714595512881146 0.38857297756440573 0 0.31466019943223172 1 I I -0.70710678118654746 0.70710678118654746 0.5 forward I I I I #
loop $-1 $-1 $137 $34 #
coedge $-1 $86 $86 $138 $139 reversed $54 $-1 #
face $-1 $140 $141 $21 $-1 $142 reversed single #
loop $-1 $-1 $143 $56 #
plane-surface $-1 0 -34.625990948003512 0 0 1 0 0 0 1 forward_v I I I I #
coedge $-1 $144 $145 $146 $147 forward $57 $-1 #
coedge $-1 $148 $59 $149 $150 forward $36 $-1 #
coedge $-1 $59 $148 $151 $152 forward $36 $-1 #
coedge $-1 $153 $154 $59 $94 reversed $155 $-1 #
edge $-1 $156 -34.625990948003512 $157 34.625990948003512 $93 $158 forward 7 unknown #
face $-1 $159 $160 $22 $-1 $161 reversed single #
loop $-1 $-1 $162 $60 #
plane-surface $-1 -66.51326029236732 0 0 1 0 0 0 0 -1 forward_v I I I I #
coedge $-1 $163 $164 $165 $166 reversed $61 $-1 #
coedge $-1 $167 $63 $168 $169 reversed $39 $-1 #
coedge $-1 $63 $167 $163 $170 forward $39 $-1 #
coedge $-1 $165 $171 $63 $102 forward $172 $-1 #
edge $-1 $173 -20.242711677044724 $174 -8.5238468648728514 $101 $175 forward 7 unknown #
face $-1 $176 $177 $23 $-1 $178 reversed single #
loop $-1 $-1 $179 $64 #
plane-surface $-1 0 0 11.375843231127433 0 0 1 1 0 0 forward_v I I I I #
coedge $-1 $180 $181 $182 $183 reversed $65 $-1 #
coedge $-1 $184 $67 $180 $185 forward $42 $-1 #
coedge $-1 $67 $184 $186 $187 reversed $42 $-1 #
coedge $-1 $188 $189 $67 $110 forward $177 $-1 #
edge $-1 $190 8.5238468648728514 $191 20.242711677044724 $109 $192 forward 7 unknown #
face $-1 $193 $194 $24 $-1 $195 reversed single #
loop $-1 $-1 $196 $68 #
plane-surface $-1 -150.22956328630428 -7.6332451292398407 107.01259088950776 0 -1 0 0.62932039886446345 0 -0.77714595512881146 forward_v I I I I #
coedge $-1 $197 $198 $199 $200 reversed $69 $-1 #
coedge $-1 $116 $71 $201 $202 reversed $45 $-1 #
coedge $-1 $71 $115 $197 $203 reversed $45 $-1 #
coedge $-1 $199 $204 $71 $118 forward $205 $-1 #
edge $-1 $206 8.6015213507848216 $207 18.164904008658972 $117 $208 forward 7 unknown #
loop $-1 $-1 $124 $72 #
plane-surface $-1 -66.51326029236732 -13.306411122330275 3.6315684922216604 -0.62932039886446345 0 0.77714595512881146 0.77714595512881146 0 0.62932039886446345 forward_v I I I I #
loop $-1 $-1 $209 $47 #
coedge $-1 $122 $122 $123 $210 reversed $73 $-1 #
coedge $-1 $123 $123 $122 $210 forward $75 $-1 #
coedge $-1 $124 $124 $76 $125 forward $119 $-1 #
edge $-1 $211 0 $211 6.2831853071796004 $124 $212 forward 7 unknown #
loop $-1 $-1 $131 $77 #
plane-surface $-1 -66.51326029236732 -13.306411122330275 3.6315684922216604 -0.62932039886446345 0 0.77714595512881146 0.77714595512881146 0 0.62932039886446345 forward_v I I I I #
loop $-1 $-1 $213 $50 #
coedge $-1 $129 $129 $130 $214 reversed $78 $-1 #
coedge $-1 $130 $130 $129 $214 forward $80 $-1 #
coedge $-1 $131 $131 $81 $132 forward $126 $-1 #
edge $-1 $215 0 $215 6.2831853071796004 $131 $216 forward 7 unknown #
loop $-1 $-1 $138 $82 #
plane-surface $-1 -66.51326029236732 -13.306411122330275 3.6315684922216604 -0.62932039886446345 0 0.77714595512881146 0.77714595512881146 0 0.62932039886446345 forward_v I I I I #
loop $-1 $-1 $217 $53 #
coedge $-1 $136 $136 $137 $218 reversed $83 $-1 #
coedge $-1 $137 $137 $136 $218 forward $85 $-1 #
coedge $-1 $138 $138 $86 $139 forward $133 $-1 #
edge $-1 $219 0 $219 6.2831853071796004 $138 $220 forward 7 unknown #
face $-1 $221 $222 $21 $-1 $223 reversed single #
loop $-1 $-1 $224 $87 #
plane-surface $-1 -66.51326029236732 0 0 1 0 0 0 0 -1 forward_v I I I I #
coedge $-1 $225 $151 $226 $227 forward $88 $-1 #
coedge $-1 $228 $90 $225 $229 forward $57 $-1 #
coedge $-1 $90 $228 $230 $231 forward $57 $-1 #
coedge $-1 $154 $153 $90 $147 reversed $155 $-1 #
edge $-1 $232 -34.625990948003512 $233 34.625990948003512 $146 $234 forward 7 unknown #
coedge $-1 $92 $91 $235 $236 forward $36 $-1 #
coedge $-1 $237 $238 $91 $150 reversed $222 $-1 #
edge $-1 $157 -66.51326029236732 $239 66.51326029236732 $149 $240 forward 7 unknown #
coedge $-1 $143 $241 $92 $152 reversed $88 $-1 #
edge $-1 $242 -66.51326029236732 $156 66.51326029236732 $151 $243 forward 7 unknown #
coedge $-1 $146 $93 $241 $244 forward $155 $-1 #
coedge $-1 $93 $146 $237 $245 reversed $155 $-1 #
loop $-1 $-1 $153 $221 #
vertex $-1 $94 $246 #
vertex $-1 $94 $247 #
straight-curve $-1 66.51326029236732 0 11.375843231127433 0 1 0 I I #
face $-1 $248 $249 $22 $-1 $250 forward single #
loop $-1 $-1 $168 $95 #
plane-surface $-1 0 -34.625990948003512 0 0 1 0 0 0 1 forward_v I I I I #
coedge $-1 $251 $252 $253 $254 forward $96 $-1 #
coedge $-1 $253 $98 $100 $170 reversed $61 $-1 #
coedge $-1 $98 $253 $255 $256 reversed $61 $-1 #
coedge $-1 $257 $101 $98 $166 forward $172 $-1 #
edge $-1 $174 3.2307123980853927 $258 6.5069913547231568 $165 $259 forward 7 unknown #
coedge $-1 $100 $99 $251 $260 reversed $39 $-1 #
coedge $-1 $261 $262 $99 $169 forward $160 $-1 #
edge $-1 $263 -66.51326029236732 $173 66.51326029236732 $168 $264 forward 7 unknown #
edge $-1 $265 -66.51326029236732 $174 66.51326029236732 $163 $266 forward 7 unknown #
coedge $-1 $101 $257 $261 $267 forward $172 $-1 #
loop $-1 $-1 $165 $248 #
vertex $-1 $169 $268 #
vertex $-1 $102 $269 #
straight-curve $-1 66.51326029236732 -14.383279270958788 8.0995642744896674 0 1 0 I I #
face $-1 $270 $271 $23 $-1 $272 reversed single #
loop $-1 $-1 $189 $103 #
plane-surface $-1 66.51326029236732 0 0 -1 0 0 0 0 1 forward_v I I I I #
coedge $-1 $273 $274 $181 $275 forward $104 $-1 #
coedge $-1 $276 $106 $107 $185 reversed $65 $-1 #
coedge $-1 $106 $276 $179 $275 reversed $65 $-1 #
coedge $-1 $277 $278 $106 $183 forward $271 $-1 #
edge $-1 $279 3.2307123980853927 $280 6.5069913547231568 $182 $281 forward 7 unknown #
coedge $-1 $108 $107 $278 $282 reversed $42 $-1 #
edge $-1 $190 -66.51326029236732 $279 66.51326029236732 $180 $283 forward 7 unknown #
coedge $-1 $284 $285 $108 $187 forward $286 $-1 #
edge $-1 $191 -66.51326029236732 $287 66.51326029236732 $186 $288 forward 7 unknown #
coedge $-1 $289 $109 $285 $290 reversed $177 $-1 #
coedge $-1 $109 $289 $276 $291 forward $177 $-1 #
vertex $-1 $110 $292 #
vertex $-1 $187 $293 #
straight-curve $-1 66.51326029236732 14.383279270958788 8.0995642744896674 0 1 0 I I #
face $-1 $-1 $205 $24 $-1 $294 forward single #
loop $-1 $-1 $295 $111 #
plane-surface $-1 -66.51326029236732 0 0 1 0 0 0 0 -1 forward_v I I I I #
coedge $-1 $296 $297 $298 $299 reversed $112 $-1 #
coedge $-1 $300 $114 $116 $203 forward $69 $-1 #
coedge $-1 $114 $300 $296 $301 forward $69 $-1 #
coedge $-1 $298 $117 $114 $200 forward $205 $-1 #
edge $-1 $207 -12.326371554255573 $302 -0.98003956807470338 $199 $303 forward 7 unknown #
coedge $-1 $304 $305 $115 $202 forward $194 $-1 #
edge $-1 $306 -49.874726952532221 $206 -42.130452213626448 $201 $307 forward 7 unknown #
edge $-1 $207 -12.305774217520089 $306 0 $116 $308 forward 7 unknown #
coedge $-1 $117 $298 $304 $309 forward $205 $-1 #
loop $-1 $-1 $298 $193 #
vertex $-1 $202 $310 #
vertex $-1 $118 $311 #
straight-curve $-1 -75.114781643152142 -18.97957711542071 11.375843231127433 1 0 0 I I #
coedge $-1 $209 $209 $-1 $312 reversed $121 $-1 #
edge $-1 $313 0 $313 6.2831853071796004 $122 $314 forward 7 unknown #
vertex $-1 $125 $315 #
ellipse-curve $-1 -61.731568963430249 -16.710310718184534 7.5037058616745425 -0.62932039886446345 0 0.77714595512881146 0.77714595512881146 0 0.62932039886446345 1 I I #
coedge $-1 $213 $213 $-1 $316 reversed $128 $-1 #
edge $-1 $317 0 $317 6.2831853071796004 $129 $318 forward 7 unknown #
vertex $-1 $132 $319 #
ellipse-curve $-1 -61.731568963430249 -13.306411122330275 7.5037058616745425 -0.62932039886446345 0 0.77714595512881146 0.77714595512881146 0 0.62932039886446345 1 I I #
coedge $-1 $217 $217 $-1 $320 reversed $135 $-1 #
edge $-1 $321 0 $321 6.2831853071796004 $136 $322 forward 7 unknown #
vertex $-1 $139 $323 #
ellipse-curve $-1 -61.731568963430249 -9.9025115264760153 7.5037058616745425 -0.62932039886446345 0 0.77714595512881146 0.77714595512881146 0 0.62932039886446345 1 I I #
face $-1 $-1 $155 $21 $-1 $324 reversed single #
loop $-1 $-1 $237 $140 #
plane-surface $-1 0 34.625990948003512 0 0 -1 0 0 0 -1 forward_v I I I I #
coedge $-1 $325 $235 $238 $326 forward $141 $-1 #
coedge $-1 $241 $143 $144 $229 reversed $88 $-1 #
coedge $-1 $235 $325 $143 $227 reversed $141 $-1 #
edge $-1 $242 -11.375843231127433 $327 11.375843231127433 $226 $328 forward 7 unknown #
coedge $-1 $145 $144 $325 $329 forward $57 $-1 #
edge $-1 $233 -66.51326029236732 $327 66.51326029236732 $225 $330 forward 7 unknown #
coedge $-1 $238 $237 $145 $231 reversed $222 $-1 #
edge $-1 $331 -66.51326029236732 $232 66.51326029236732 $230 $332 forward 7 unknown #
vertex $-1 $147 $333 #
vertex $-1 $244 $334 #
straight-curve $-1 66.51326029236732 0 -11.375843231127433 0 -1 0 I I #
coedge $-1 $224 $226 $148 $236 reversed $141 $-1 #
edge $-1 $239 -34.625990948003512 $242 34.625990948003512 $235 $335 forward 7 unknown #
coedge $-1 $230 $149 $154 $245 forward $222 $-1 #
coedge $-1 $149 $230 $224 $326 reversed $222 $-1 #
vertex $-1 $150 $336 #
straight-curve $-1 0 34.625990948003512 11.375843231127433 -1 0 0 I I #
coedge $-1 $151 $225 $153 $244 reversed $88 $-1 #
vertex $-1 $236 $337 #
straight-curve $-1 0 -34.625990948003512 11.375843231127433 1 0 0 I I #
edge $-1 $156 -11.375843231127433 $233 11.375843231127433 $153 $338 forward 7 unknown #
edge $-1 $157 -11.375843231127433 $232 11.375843231127433 $154 $339 forward 7 unknown #
point $-1 66.51326029236732 -34.625990948003512 11.375843231127433 #
point $-1 66.51326029236732 34.625990948003512 11.375843231127433 #
face $-1 $-1 $172 $22 $-1 $340 reversed single #
loop $-1 $-1 $255 $159 #
plane-surface $-1 0 0 11.375843231127433 0 0 1 1 0 0 forward_v I I I I #
coedge $-1 $341 $162 $167 $260 forward $96 $-1 #
coedge $-1 $162 $341 $342 $343 reversed $96 $-1 #
coedge $-1 $164 $163 $162 $254 reversed $61 $-1 #
edge $-1 $344 -6.5069913547231568 $265 -3.2307123980853927 $162 $345 forward 7 unknown #
coedge $-1 $342 $346 $164 $256 forward $249 $-1 #
edge $-1 $258 -66.51326029236732 $344 66.51326029236732 $255 $347 forward 7 unknown #
coedge $-1 $171 $165 $346 $348 reversed $172 $-1 #
vertex $-1 $166 $349 #
straight-curve $-1 66.51326029236732 -22.907126135831639 4.8688518764042747 0 0 1 I I #
edge $-1 $265 8.5238468648728514 $263 20.242711677044724 $251 $350 forward 7 unknown #
coedge $-1 $351 $168 $171 $267 reversed $160 $-1 #
coedge $-1 $168 $351 $341 $352 forward $160 $-1 #
vertex $-1 $169 $353 #
straight-curve $-1 0 -34.625990948003512 8.0995642744896674 1 0 0 I I #
vertex $-1 $260 $354 #
straight-curve $-1 0 -22.907126135831639 8.0995642744896674 1 0 0 I I #
edge $-1 $355 -11.375843231127433 $173 -8.0995642744896674 $171 $356 forward 7 unknown #
point $-1 66.51326029236732 -34.625990948003512 8.0995642744896674 #
point $-1 66.51326029236732 -22.907126135831639 8.0995642744896674 #
face $-1 $-1 $286 $23 $-1 $357 reversed single #
loop $-1 $-1 $182 $176 #
plane-surface $-1 -66.51326029236732 0 0 1 0 0 0 0 -1 forward_v I I I I #
coedge $-1 $358 $179 $289 $359 forward $104 $-1 #
coedge $-1 $179 $358 $277 $360 forward $104 $-1 #
edge $-1 $280 -66.51326029236732 $361 66.51326029236732 $179 $362 forward 7 unknown #
coedge $-1 $181 $180 $189 $291 reversed $65 $-1 #
coedge $-1 $363 $182 $274 $360 reversed $271 $-1 #
coedge $-1 $182 $363 $184 $282 forward $271 $-1 #
vertex $-1 $282 $364 #
vertex $-1 $183 $365 #
straight-curve $-1 -66.51326029236732 22.907126135831639 4.8688518764042747 0 0 1 I I #
edge $-1 $287 -20.242711677044724 $279 -8.5238468648728514 $278 $366 forward 7 unknown #
straight-curve $-1 0 22.907126135831639 8.0995642744896674 -1 0 0 I I #
coedge $-1 $367 $186 $363 $368 reversed $286 $-1 #
coedge $-1 $186 $367 $188 $290 forward $286 $-1 #
loop $-1 $-1 $186 $270 #
vertex $-1 $187 $369 #
straight-curve $-1 0 34.625990948003512 8.0995642744896674 -1 0 0 I I #
coedge $-1 $189 $188 $273 $359 reversed $177 $-1 #
edge $-1 $370 -11.375843231127433 $191 -8.0995642744896674 $188 $371 forward 7 unknown #
edge $-1 $361 -6.5069913547231568 $190 -3.2307123980853927 $189 $372 forward 7 unknown #
point $-1 66.51326029236732 22.907126135831639 8.0995642744896674 #
point $-1 66.51326029236732 34.625990948003512 8.0995642744896674 #
plane-surface $-1 0 0 11.375843231127433 0 0 1 1 0 0 forward_v I I I I #
coedge $-1 $305 $304 $297 $373 forward $194 $-1 #
coedge $-1 $297 $196 $198 $301 reversed $112 $-1 #
coedge $-1 $196 $296 $295 $373 reversed $112 $-1 #
coedge $-1 $204 $199 $196 $299 forward $205 $-1 #
edge $-1 $302 -18.164904008658972 $374 -8.6015213507848216 $298 $375 forward 7 unknown #
coedge $-1 $198 $197 $305 $376 reversed $69 $-1 #
edge $-1 $377 0 $302 12.305774217520089 $296 $378 forward 7 unknown #
vertex $-1 $200 $379 #
straight-curve $-1 -56.94987763449317 -6.6532055611651373 11.375843231127432 0 1 0 I I #
coedge $-1 $295 $201 $204 $309 reversed $194 $-1 #
coedge $-1 $201 $295 $300 $376 forward $194 $-1 #
vertex $-1 $202 $380 #
straight-curve $-1 -66.51326029236732 -18.97957711542071 53.506295444753881 0 0 1 I I #
straight-curve $-1 -66.51326029236732 -18.97957711542071 3.6315684922216604 -0.77714595512881146 0 -0.62932039886446345 I I #
edge $-1 $374 7.6332451292398407 $206 18.97957711542071 $304 $381 forward 7 unknown #
point $-1 -66.51326029236732 -18.97957711542071 11.375843231127433 #
point $-1 -56.94987763449317 -18.97957711542071 11.375843231127433 #
edge $-1 $382 1 $382 0 $209 $-1 forward 7 unknown #
vertex $-1 $210 $383 #
ellipse-curve $-1 -61.094988726595552 -16.710310718184534 6.7175947534637119 -0.62932039886446345 0 0.77714595512881146 0.77714595512881146 0 0.62932039886446345 1 I I #
point $-1 -60.95442300830144 -16.710310718184534 8.1330262605390118 #
edge $-1 $384 1 $384 0 $213 $-1 forward 7 unknown #
vertex $-1 $214 $385 #
ellipse-curve $-1 -61.094988726595552 -13.306411122330275 6.7175947534637119 -0.62932039886446345 0 0.77714595512881146 0.77714595512881146 0 0.62932039886446345 1 I I #
point $-1 -60.95442300830144 -13.306411122330275 8.1330262605390118 #
edge $-1 $386 1 $386 0 $217 $-1 forward 7 unknown #
vertex $-1 $218 $387 #
ellipse-curve $-1 -61.094988726595552 -9.9025115264760153 6.7175947534637119 -0.62932039886446345 0 0.77714595512881146 0.77714595512881146 0 0.62932039886446345 1 I I #
point $-1 -60.95442300830144 -9.9025115264760153 8.1330262605390118 #
plane-surface $-1 66.51326029236732 0 0 -1 0 0 0 0 1 forward_v I I I I #
coedge $-1 $226 $224 $228 $329 reversed $141 $-1 #
edge $-1 $239 -11.375843231127433 $331 11.375843231127433 $238 $388 forward 7 unknown #
vertex $-1 $329 $389 #
straight-curve $-1 -66.51326029236732 -34.625990948003512 0 0 0 -1 I I #
edge $-1 $327 -34.625990948003512 $331 34.625990948003512 $325 $390 forward 7 unknown #
straight-curve $-1 0 -34.625990948003512 -11.375843231127433 -1 0 0 I I #
vertex $-1 $231 $391 #
straight-curve $-1 0 34.625990948003512 -11.375843231127433 1 0 0 I I #
point $-1 66.51326029236732 34.625990948003512 -11.375843231127433 #
point $-1 66.51326029236732 -34.625990948003512 -11.375843231127433 #
straight-curve $-1 -66.51326029236732 0 11.375843231127433 0 -1 0 I I #
point $-1 -66.51326029236732 34.625990948003512 11.375843231127433 #
point $-1 -66.51326029236732 -34.625990948003512 11.375843231127433 #
straight-curve $-1 66.51326029236732 -34.625990948003512 0 0 0 -1 I I #
straight-curve $-1 66.51326029236732 34.625990948003512 0 0 0 -1 I I #
plane-surface $-1 66.51326029236732 0 0 -1 0 0 0 0 1 forward_v I I I I #
coedge $-1 $252 $251 $262 $352 reversed $96 $-1 #
coedge $-1 $392 $255 $252 $343 forward $249 $-1 #
edge $-1 $344 22.907126135831639 $393 34.625990948003512 $252 $394 forward 7 unknown #
vertex $-1 $343 $395 #
straight-curve $-1 -66.51326029236732 -22.907126135831639 4.8688518764042747 0 0 -1 I I #
coedge $-1 $255 $392 $257 $348 forward $249 $-1 #
straight-curve $-1 0 -22.907126135831639 11.375843231127433 -1 0 0 I I #
edge $-1 $355 -34.625990948003512 $258 -22.907126135831639 $257 $396 forward 7 unknown #
point $-1 66.51326029236732 -22.907126135831639 11.375843231127432 #
straight-curve $-1 -66.51326029236732 -14.383279270958788 8.0995642744896674 0 -1 0 I I #
coedge $-1 $262 $261 $392 $397 reversed $160 $-1 #
edge $-1 $393 -11.375843231127433 $263 -8.0995642744896674 $341 $398 forward 7 unknown #
point $-1 -66.51326029236732 -34.625990948003512 8.0995642744896674 #
point $-1 -66.51326029236732 -22.907126135831639 8.0995642744896674 #
vertex $-1 $348 $399 #
straight-curve $-1 66.51326029236732 -34.625990948003512 0 0 0 -1 I I #
plane-surface $-1 0 34.625990948003512 0 0 -1 0 0 0 -1 forward_v I I I I #
coedge $-1 $274 $273 $367 $400 forward $104 $-1 #
edge $-1 $361 22.907126135831639 $370 34.625990948003512 $289 $401 forward 7 unknown #
edge $-1 $402 -34.625990948003512 $280 -22.907126135831639 $277 $403 forward 7 unknown #
vertex $-1 $359 $404 #
straight-curve $-1 0 22.907126135831639 11.375843231127433 1 0 0 I I #
coedge $-1 $278 $277 $284 $368 forward $271 $-1 #
point $-1 -66.51326029236732 22.907126135831639 8.0995642744896674 #
point $-1 -66.51326029236732 22.907126135831639 11.375843231127432 #
straight-curve $-1 -66.51326029236732 14.383279270958788 8.0995642744896674 0 -1 0 I I #
coedge $-1 $285 $284 $358 $400 reversed $286 $-1 #
edge $-1 $402 -11.375843231127433 $287 -8.0995642744896674 $284 $405 forward 7 unknown #
point $-1 -66.51326029236732 34.625990948003512 8.0995642744896674 #
vertex $-1 $359 $406 #
straight-curve $-1 66.51326029236732 34.625990948003512 0 0 0 -1 I I #
straight-curve $-1 66.51326029236732 22.907126135831639 4.8688518764042747 0 0 -1 I I #
edge $-1 $374 42.130452213626448 $377 49.874726952532221 $295 $407 forward 7 unknown #
vertex $-1 $309 $408 #
straight-curve $-1 -75.114781643152142 -7.6332451292398407 11.375843231127433 -1 0 0 I I #
edge $-1 $377 0.98003956807470338 $306 12.326371554255573 $305 $409 forward 7 unknown #
vertex $-1 $376 $410 #
straight-curve $-1 -66.51326029236732 -7.6332451292398407 3.6315684922216604 0.77714595512881146 0 0.62932039886446345 I I #
point $-1 -56.94987763449317 -7.6332451292398407 11.375843231127433 #
point $-1 -66.51326029236732 -18.97957711542071 3.6315684922216604 #
straight-curve $-1 -66.51326029236732 0 11.375843231127433 0 -1 0 I I #
vertex $-1 $312 $411 #
point $-1 -60.317842771466744 -16.710310718184534 7.3469151523281759 #
vertex $-1 $316 $412 #
point $-1 -60.317842771466744 -13.306411122330275 7.3469151523281759 #
vertex $-1 $320 $413 #
point $-1 -60.317842771466744 -9.9025115264760153 7.3469151523281759 #
straight-curve $-1 -66.51326029236732 34.625990948003512 0 0 0 -1 I I #
point $-1 -66.51326029236732 -34.625990948003512 -11.375843231127433 #
straight-curve $-1 -66.51326029236732 0 -11.375843231127433 0 1 0 I I #
point $-1 -66.51326029236732 34.625990948003512 -11.375843231127433 #
coedge $-1 $346 $342 $351 $397 forward $249 $-1 #
vertex $-1 $343 $414 #
straight-curve $-1 -66.51326029236732 0 11.375843231127433 0 -1 0 I I #
point $-1 -66.51326029236732 -22.907126135831639 11.375843231127432 #
straight-curve $-1 66.51326029236732 0 11.375843231127433 0 1 0 I I #
edge $-1 $393 -66.51326029236732 $355 66.51326029236732 $351 $415 forward 7 unknown #
straight-curve $-1 -66.51326029236732 -34.625990948003512 0 0 0 -1 I I #
point $-1 66.51326029236732 -34.625990948003512 11.375843231127433 #
edge $-1 $370 -66.51326029236732 $402 66.51326029236732 $367 $416 forward 7 unknown #
straight-curve $-1 66.51326029236732 0 11.375843231127433 0 1 0 I I #
vertex $-1 $400 $417 #
straight-curve $-1 -66.51326029236732 0 11.375843231127433 0 -1 0 I I #
point $-1 66.51326029236732 22.907126135831639 11.375843231127432 #
straight-curve $-1 -66.51326029236732 34.625990948003512 0 0 0 -1 I I #
point $-1 66.51326029236732 34.625990948003512 11.375843231127433 #
straight-curve $-1 -66.51326029236732 -7.6332451292398407 53.506295444753881 0 0 -1 I I #
point $-1 -66.51326029236732 -7.6332451292398407 11.375843231127433 #
straight-curve $-1 -66.51326029236732 -6.6532055611651373 3.6315684922216556 0 -1 0 I I #
point $-1 -66.51326029236732 -7.6332451292398407 3.6315684922216604 #
point $-1 -60.465668327731088 -16.710310718184534 5.9404487983349012 #
point $-1 -60.465668327731088 -13.306411122330275 5.9404487983349012 #
point $-1 -60.465668327731088 -9.9025115264760153 5.9404487983349012 #
point $-1 -66.51326029236732 -34.625990948003512 11.375843231127433 #
straight-curve $-1 0 -34.625990948003512 11.375843231127433 1 0 0 I I #
straight-curve $-1 0 34.625990948003512 11.375843231127433 -1 0 0 I I #
point $-1 -66.51326029236732 34.625990948003512 11.375843231127433 #
End-of-ACIS-data 