500 0 9 0           
7 Unknown 11 ACIS 5.0 NT 24 Thu Mar 25 19:14:57 1999 
-1 9.9999999999999995e-007 1e-010 
body $-1 $9 $-1 $10 #
body $-1 $11 $-1 $12 #
body $-1 $13 $-1 $14 #
body $-1 $15 $-1 $16 #
body $-1 $17 $-1 $18 #
body $-1 $19 $-1 $20 #
body $-1 $21 $-1 $22 #
body $-1 $23 $-1 $24 #
body $-1 $25 $-1 $26 #
lump $-1 $-1 $27 $0 #
transform $-1 1 0 0 0 1 0 0 0 1 64.691915646839817 41.494867919170382 15.468226055857736 1 rotate no_reflect no_shear #
lump $-1 $-1 $28 $1 #
transform $-1 1 0 0 0 1 0 0 0 1 64.691915646839817 41.494867919170382 15.468226055857736 1 rotate no_reflect no_shear #
lump $-1 $-1 $29 $2 #
transform $-1 1 0 0 0 1 0 0 0 1 64.691915646839817 41.494867919170382 15.468226055857736 1 rotate no_reflect no_shear #
lump $-1 $-1 $30 $3 #
transform $-1 1 0 0 0 1 0 0 0 1 64.691915646839817 41.494867919170382 15.468226055857736 1 rotate no_reflect no_shear #
lump $-1 $-1 $31 $4 #
transform $-1 1 0 0 0 1 0 0 0 1 64.691915646839817 41.494867919170382 15.468226055857736 1 rotate no_reflect no_shear #
lump $-1 $-1 $32 $5 #
transform $-1 1 0 0 0 1 0 0 0 1 64.691915646839817 41.494867919170382 15.468226055857736 1 rotate no_reflect no_shear #
lump $-1 $-1 $33 $6 #
transform $-1 1 0 0 0 1 0 0 0 1 64.691915646839817 41.494867919170382 15.468226055857736 1 rotate no_reflect no_shear #
lump $-1 $-1 $34 $7 #
transform $-1 1 0 0 0 1 0 0 0 1 64.691915646839817 41.494867919170382 15.468226055857736 1 rotate no_reflect no_shear #
lump $-1 $-1 $35 $8 #
transform $-1 1 0 0 0 1 0 0 0 1 64.691915646839817 41.494867919170382 15.468226055857736 1 rotate no_reflect no_shear #
shell $-1 $-1 $-1 $36 $-1 $9 #
shell $-1 $-1 $-1 $37 $-1 $11 #
shell $-1 $-1 $-1 $38 $-1 $13 #
shell $-1 $-1 $-1 $39 $-1 $15 #
shell $-1 $-1 $-1 $40 $-1 $17 #
shell $-1 $-1 $-1 $41 $-1 $19 #
shell $-1 $-1 $-1 $42 $-1 $21 #
shell $-1 $-1 $-1 $43 $-1 $23 #
shell $-1 $-1 $-1 $44 $-1 $25 #
face $-1 $45 $46 $27 $-1 $47 forward single #
face $-1 $48 $49 $28 $-1 $50 forward single #
face $-1 $51 $52 $29 $-1 $53 reversed single #
face $-1 $54 $55 $30 $-1 $56 forward single #
face $-1 $57 $58 $31 $-1 $59 forward single #
face $-1 $60 $61 $32 $-1 $62 reversed single #
face $-1 $63 $64 $33 $-1 $65 forward single #
face $-1 $66 $67 $34 $-1 $68 forward single #
face $-1 $69 $70 $35 $-1 $71 forward single #
face $-1 $72 $73 $27 $-1 $74 reversed single #
loop $-1 $-1 $75 $36 #
plane-surface $-1 0 0 15.468226055857736 0 0 1 1 0 0 forward_v I I I I #
face $-1 $76 $77 $28 $-1 $78 reversed single #
loop $-1 $-1 $79 $37 #
plane-surface $-1 0 -41.494867919170382 0 0 1 0 0 0 1 forward_v I I I I #
face $-1 $80 $81 $29 $-1 $82 reversed single #
loop $-1 $-1 $83 $38 #
plane-surface $-1 -174.41562847418732 -12.256371525654775 77.070082560715434 0 1 0 -0.84804810408105047 0 0.52991925155115449 forward_v I I I I #
face $-1 $84 $85 $30 $-1 $86 forward single #
loop $-1 $87 $88 $39 #
cone-surface $-1 -60.606341465592308 -8.0783783934492348 10.793739366001979 0.84804810408105047 0 -0.52991925155115449 1.059838503102309 0 1.6960962081621009 1 I I 0 1 2 forward I I I I #
face $-1 $89 $90 $31 $-1 $91 forward single #
loop $-1 $92 $93 $40 #
cone-surface $-1 -60.606341465592308 -1.8113886951409341 10.793739366001979 0.84804810408105047 0 -0.52991925155115449 1.059838503102309 0 1.6960962081621009 1 I I 0 1 2 forward I I I I #
face $-1 $94 $95 $32 $-1 $96 reversed single #
loop $-1 $-1 $97 $41 #
plane-surface $-1 93.315728557471772 28.62764141277961 190.15042207222555 0 -1 0 -0.80901700255871778 0 -0.5877852410284794 forward_v I I I I #
face $-1 $98 $99 $33 $-1 $100 forward single #
loop $-1 $101 $102 $42 #
cone-surface $-1 62.049663842857264 21.733116805329331 12.122329594927852 -0.80901700255871778 0 -0.5877852410284794 0.2938926205142397 0 -0.40450850127935889 1 I I 0 1 0.5 forward I I I I #
face $-1 $103 $104 $34 $-1 $105 forward single #
loop $-1 $106 $107 $43 #
cone-surface $-1 62.049663842857264 24.318563533123189 12.122329594927852 -0.80901700255871778 0 -0.5877852410284794 0.2938926205142397 0 -0.40450850127935889 1 I I 0 1 0.5 forward I I I I #
face $-1 $108 $109 $35 $-1 $110 forward single #
loop $-1 $111 $112 $44 #
cone-surface $-1 62.049663842857264 26.90401026091704 12.122329594927852 -0.80901700255871778 0 -0.5877852410284794 0.2938926205142397 0 -0.40450850127935889 1 I I 0 1 0.5 forward I I I I #
face $-1 $113 $114 $27 $-1 $115 reversed single #
loop $-1 $-1 $116 $45 #
plane-surface $-1 0 0 -15.468226055857736 0 0 1 1 0 0 forward_v I I I I #
coedge $-1 $117 $118 $119 $120 forward $46 $-1 #
face $-1 $121 $122 $28 $-1 $123 forward single #
loop $-1 $-1 $124 $48 #
plane-surface $-1 -64.691915646839817 0 0 1 0 0 0 0 -1 forward_v I I I I #
coedge $-1 $125 $126 $127 $128 forward $49 $-1 #
face $-1 $129 $130 $29 $-1 $131 reversed single #
loop $-1 $-1 $132 $51 #
plane-surface $-1 -64.691915646839817 -4.944883544295088 8.5070995187478786 -0.84804810408105047 0 0.52991925155115449 0.52991925155115449 0 0.84804810408105047 forward_v I I I I #
coedge $-1 $133 $134 $135 $136 reversed $52 $-1 #
face $-1 $-1 $137 $30 $-1 $138 forward single #
loop $-1 $139 $140 $54 #
cone-surface $-1 -57.847616421791919 -8.0783783934492348 9.0698966931500049 0.84804810408105047 0 -0.52991925155115449 0.52991925155115449 0 0.84804810408105047 1 I I -0.70710678118654746 0.70710678118654746 1 forward I I I I #
loop $-1 $-1 $141 $39 #
coedge $-1 $88 $88 $142 $143 reversed $55 $-1 #
face $-1 $-1 $144 $31 $-1 $145 forward single #
loop $-1 $146 $147 $57 #
cone-surface $-1 -57.847616421791919 -1.8113886951409341 9.0698966931500049 0.84804810408105047 0 -0.52991925155115449 0.52991925155115449 0 0.84804810408105047 1 I I -0.70710678118654746 0.70710678118654746 1 forward I I I I #
loop $-1 $-1 $148 $40 #
coedge $-1 $93 $93 $149 $150 reversed $58 $-1 #
face $-1 $151 $152 $32 $-1 $153 reversed single #
loop $-1 $-1 $154 $60 #
plane-surface $-1 -11.357990815303751 24.318563533123189 114.10051561008196 0.80901700255871778 0 0.5877852410284794 0.5877852410284794 0 -0.80901700255871778 forward_v I I I I #
coedge $-1 $155 $156 $157 $158 reversed $61 $-1 #
face $-1 $-1 $159 $33 $-1 $160 forward single #
loop $-1 $161 $162 $63 #
cone-surface $-1 61.399835570545363 21.733116805329331 11.650201733016507 -0.80901700255871778 0 -0.5877852410284794 0.14694631025711985 0 -0.20225425063967944 1 I I -0.70710678118654746 0.70710678118654746 0.25 forward I I I I #
loop $-1 $-1 $163 $42 #
coedge $-1 $102 $102 $164 $165 reversed $64 $-1 #
face $-1 $-1 $166 $34 $-1 $167 forward single #
loop $-1 $168 $169 $66 #
cone-surface $-1 61.399835570545363 24.318563533123189 11.650201733016507 -0.80901700255871778 0 -0.5877852410284794 0.14694631025711985 0 -0.20225425063967944 1 I I -0.70710678118654746 0.70710678118654746 0.25 forward I I I I #
loop $-1 $-1 $170 $43 #
coedge $-1 $107 $107 $171 $172 reversed $67 $-1 #
face $-1 $-1 $173 $35 $-1 $174 forward single #
loop $-1 $175 $176 $69 #
cone-surface $-1 61.399835570545363 26.90401026091704 11.650201733016507 -0.80901700255871778 0 -0.5877852410284794 0.14694631025711985 0 -0.20225425063967944 1 I I -0.70710678118654746 0.70710678118654746 0.25 forward I I I I #
loop $-1 $-1 $177 $44 #
coedge $-1 $112 $112 $178 $179 reversed $70 $-1 #
face $-1 $180 $181 $27 $-1 $182 reversed single #
loop $-1 $-1 $183 $72 #
plane-surface $-1 0 -41.494867919170382 0 0 1 0 0 0 1 forward_v I I I I #
coedge $-1 $184 $185 $186 $187 forward $73 $-1 #
coedge $-1 $188 $75 $189 $190 forward $46 $-1 #
coedge $-1 $75 $188 $191 $192 forward $46 $-1 #
coedge $-1 $193 $194 $75 $120 reversed $195 $-1 #
edge $-1 $196 -41.494867919170382 $197 41.494867919170382 $119 $198 forward 7 unknown #
face $-1 $199 $200 $28 $-1 $201 reversed single #
loop $-1 $-1 $202 $76 #
plane-surface $-1 0 -46.812648318111712 -10.153570992769563 0 0 1 1 0 0 forward_v I I I I #
coedge $-1 $203 $204 $126 $205 forward $77 $-1 #
coedge $-1 $206 $79 $207 $208 reversed $49 $-1 #
coedge $-1 $79 $206 $124 $205 reversed $49 $-1 #
coedge $-1 $209 $202 $79 $128 reversed $122 $-1 #
edge $-1 $210 -64.691915646839817 $211 64.691915646839817 $127 $212 forward 7 unknown #
face $-1 $213 $214 $29 $-1 $215 forward single #
loop $-1 $-1 $216 $80 #
plane-surface $-1 -174.41562847418732 2.3666044370645984 77.070082560715434 0 -1 0 0.84804810408105047 0 -0.52991925155115449 forward_v I I I I #
coedge $-1 $217 $218 $219 $220 reversed $81 $-1 #
coedge $-1 $134 $83 $221 $222 reversed $52 $-1 #
coedge $-1 $83 $133 $217 $223 reversed $52 $-1 #
coedge $-1 $219 $224 $83 $136 forward $214 $-1 #
edge $-1 $225 22.51589859025384 $226 26.865693073310169 $135 $227 forward 7 unknown #
loop $-1 $-1 $142 $84 #
plane-surface $-1 -64.691915646839817 -4.944883544295088 8.5070995187478786 -0.84804810408105047 0 0.52991925155115449 0.52991925155115449 0 0.84804810408105047 forward_v I I I I #
loop $-1 $-1 $228 $54 #
coedge $-1 $140 $140 $141 $229 reversed $85 $-1 #
coedge $-1 $141 $141 $140 $229 forward $87 $-1 #
coedge $-1 $142 $142 $88 $143 forward $137 $-1 #
edge $-1 $230 0 $230 6.2831853071796004 $142 $231 forward 7 unknown #
loop $-1 $-1 $149 $89 #
plane-surface $-1 -64.691915646839817 -4.944883544295088 8.5070995187478786 -0.84804810408105047 0 0.52991925155115449 0.52991925155115449 0 0.84804810408105047 forward_v I I I I #
loop $-1 $-1 $232 $57 #
coedge $-1 $147 $147 $148 $233 reversed $90 $-1 #
coedge $-1 $148 $148 $147 $233 forward $92 $-1 #
coedge $-1 $149 $149 $93 $150 forward $144 $-1 #
edge $-1 $234 0 $234 6.2831853071796004 $149 $235 forward 7 unknown #
face $-1 $236 $237 $32 $-1 $238 reversed single #
loop $-1 $-1 $239 $94 #
plane-surface $-1 93.315728557471772 20.009485653466768 190.15042207222555 0 1 0 0.80901700255871778 0 0.5877852410284794 forward_v I I I I #
coedge $-1 $240 $241 $242 $243 reversed $95 $-1 #
coedge $-1 $156 $97 $244 $245 reversed $61 $-1 #
coedge $-1 $97 $155 $240 $246 reversed $61 $-1 #
coedge $-1 $242 $247 $97 $158 forward $248 $-1 #
edge $-1 $249 -18.034051368103931 $250 -13.644695803483316 $157 $251 forward 7 unknown #
loop $-1 $-1 $164 $98 #
plane-surface $-1 -11.357990815303751 24.318563533123189 114.10051561008196 0.80901700255871778 0 0.5877852410284794 0.5877852410284794 0 -0.80901700255871778 forward_v I I I I #
loop $-1 $-1 $252 $63 #
coedge $-1 $162 $162 $163 $253 reversed $99 $-1 #
coedge $-1 $163 $163 $162 $253 forward $101 $-1 #
coedge $-1 $164 $164 $102 $165 forward $159 $-1 #
edge $-1 $254 0 $254 6.2831853071796004 $164 $255 forward 7 unknown #
loop $-1 $-1 $171 $103 #
plane-surface $-1 -11.357990815303751 24.318563533123189 114.10051561008196 0.80901700255871778 0 0.5877852410284794 0.5877852410284794 0 -0.80901700255871778 forward_v I I I I #
loop $-1 $-1 $256 $66 #
coedge $-1 $169 $169 $170 $257 reversed $104 $-1 #
coedge $-1 $170 $170 $169 $257 forward $106 $-1 #
coedge $-1 $171 $171 $107 $172 forward $166 $-1 #
edge $-1 $258 0 $258 6.2831853071796004 $171 $259 forward 7 unknown #
loop $-1 $-1 $178 $108 #
plane-surface $-1 -11.357990815303751 24.318563533123189 114.10051561008196 0.80901700255871778 0 0.5877852410284794 0.5877852410284794 0 -0.80901700255871778 forward_v I I I I #
loop $-1 $-1 $260 $69 #
coedge $-1 $176 $176 $177 $261 reversed $109 $-1 #
coedge $-1 $177 $177 $176 $261 forward $111 $-1 #
coedge $-1 $178 $178 $112 $179 forward $173 $-1 #
edge $-1 $262 0 $262 6.2831853071796004 $178 $263 forward 7 unknown #
face $-1 $264 $265 $27 $-1 $266 reversed single #
loop $-1 $-1 $267 $113 #
plane-surface $-1 -64.691915646839817 0 0 1 0 0 0 0 -1 forward_v I I I I #
coedge $-1 $268 $191 $269 $270 forward $114 $-1 #
coedge $-1 $271 $116 $268 $272 forward $73 $-1 #
coedge $-1 $116 $271 $273 $274 forward $73 $-1 #
coedge $-1 $194 $193 $116 $187 reversed $195 $-1 #
edge $-1 $275 -41.494867919170382 $276 41.494867919170382 $186 $277 forward 7 unknown #
coedge $-1 $118 $117 $278 $279 forward $46 $-1 #
coedge $-1 $280 $281 $117 $190 reversed $265 $-1 #
edge $-1 $197 -64.691915646839817 $282 64.691915646839817 $189 $283 forward 7 unknown #
coedge $-1 $183 $284 $118 $192 reversed $114 $-1 #
edge $-1 $285 -64.691915646839817 $196 64.691915646839817 $191 $286 forward 7 unknown #
coedge $-1 $186 $119 $284 $287 forward $195 $-1 #
coedge $-1 $119 $186 $280 $288 reversed $195 $-1 #
loop $-1 $-1 $193 $264 #
vertex $-1 $120 $289 #
vertex $-1 $120 $290 #
straight-curve $-1 64.691915646839817 0 15.468226055857736 0 1 0 I I #
face $-1 $291 $292 $28 $-1 $293 reversed single #
loop $-1 $-1 $294 $121 #
plane-surface $-1 0 -46.812648318111712 -13.464178290652502 0 0 1 1 0 0 forward_v I I I I #
coedge $-1 $127 $295 $296 $297 forward $122 $-1 #
coedge $-1 $298 $124 $299 $300 reversed $77 $-1 #
coedge $-1 $124 $298 $209 $301 reversed $77 $-1 #
edge $-1 $210 10.153570992769563 $302 13.464178290652502 $124 $303 forward 7 unknown #
coedge $-1 $126 $125 $304 $305 forward $49 $-1 #
coedge $-1 $296 $306 $125 $208 forward $307 $-1 #
edge $-1 $308 -13.464178290652502 $211 -10.153570992769563 $207 $309 forward 7 unknown #
coedge $-1 $295 $127 $204 $301 forward $122 $-1 #
vertex $-1 $205 $310 #
vertex $-1 $297 $311 #
straight-curve $-1 0 -41.494867919170382 -10.153570992769563 1 0 0 I I #
face $-1 $-1 $312 $29 $-1 $313 reversed single #
loop $-1 $-1 $135 $129 #
plane-surface $-1 0 0 15.468226055857736 0 0 1 1 0 0 forward_v I I I I #
coedge $-1 $314 $315 $316 $317 reversed $130 $-1 #
coedge $-1 $318 $132 $134 $223 forward $81 $-1 #
coedge $-1 $132 $318 $314 $319 forward $81 $-1 #
coedge $-1 $316 $135 $132 $220 forward $214 $-1 #
edge $-1 $226 -9.7839297535072305 $320 4.8390462092121425 $219 $321 forward 7 unknown #
coedge $-1 $322 $323 $133 $222 forward $312 $-1 #
edge $-1 $324 -30.027941761609839 $225 -23.066815224499983 $221 $325 forward 7 unknown #
edge $-1 $226 -8.2084099989268537 $324 0 $134 $326 forward 7 unknown #
coedge $-1 $135 $316 $322 $327 forward $214 $-1 #
vertex $-1 $222 $328 #
vertex $-1 $136 $329 #
straight-curve $-1 -87.207814237093658 -12.256371525654775 15.468226055857734 1 0 0 I I #
coedge $-1 $228 $228 $-1 $330 reversed $139 $-1 #
edge $-1 $331 0 $331 6.2831853071796004 $140 $332 forward 7 unknown #
vertex $-1 $143 $333 #
ellipse-curve $-1 -62.517018405311653 -8.0783783934492348 11.987662787302805 -0.84804810408105047 0 0.52991925155115449 1.059838503102309 0 1.6960962081621009 1 I I #
coedge $-1 $232 $232 $-1 $334 reversed $146 $-1 #
edge $-1 $335 0 $335 6.2831853071796004 $147 $336 forward 7 unknown #
vertex $-1 $150 $337 #
ellipse-curve $-1 -62.517018405311653 -1.8113886951409341 11.987662787302805 -0.84804810408105047 0 0.52991925155115449 1.059838503102309 0 1.6960962081621009 1 I I #
face $-1 $-1 $248 $32 $-1 $338 forward single #
loop $-1 $-1 $339 $151 #
plane-surface $-1 64.691915646839817 0 0 -1 0 0 0 0 1 forward_v I I I I #
coedge $-1 $340 $341 $342 $343 reversed $152 $-1 #
coedge $-1 $344 $154 $156 $246 forward $95 $-1 #
coedge $-1 $154 $344 $340 $345 forward $95 $-1 #
coedge $-1 $342 $157 $154 $243 forward $248 $-1 #
edge $-1 $250 -16.468359646218016 $346 -7.8502038869051738 $242 $347 forward 7 unknown #
coedge $-1 $348 $349 $155 $245 forward $237 $-1 #
edge $-1 $350 -85.6484147988063 $249 -79.606984980255035 $244 $351 forward 7 unknown #
edge $-1 $250 121.91621343219614 $350 129.38383129367958 $156 $352 forward 7 unknown #
coedge $-1 $157 $342 $348 $353 forward $248 $-1 #
loop $-1 $-1 $342 $236 #
vertex $-1 $245 $354 #
vertex $-1 $158 $355 #
straight-curve $-1 46.657864278735886 28.62764141277961 15.468226055857741 -1 0 0 I I #
coedge $-1 $252 $252 $-1 $356 reversed $161 $-1 #
edge $-1 $357 0 $357 6.2831853071796004 $162 $358 forward 7 unknown #
vertex $-1 $165 $359 #
ellipse-curve $-1 62.497237864529509 21.733116805329331 12.447511146582093 0.80901700255871778 0 0.5877852410284794 0.2938926205142397 0 -0.40450850127935889 1 I I #
coedge $-1 $256 $256 $-1 $360 reversed $168 $-1 #
edge $-1 $361 0 $361 6.2831853071796004 $169 $362 forward 7 unknown #
vertex $-1 $172 $363 #
ellipse-curve $-1 62.497237864529509 24.318563533123189 12.447511146582093 0.80901700255871778 0 0.5877852410284794 0.2938926205142397 0 -0.40450850127935889 1 I I #
coedge $-1 $260 $260 $-1 $364 reversed $175 $-1 #
edge $-1 $365 0 $365 6.2831853071796004 $176 $366 forward 7 unknown #
vertex $-1 $179 $367 #
ellipse-curve $-1 62.497237864529509 26.90401026091704 12.447511146582093 0.80901700255871778 0 0.5877852410284794 0.2938926205142397 0 -0.40450850127935889 1 I I #
face $-1 $-1 $195 $27 $-1 $368 reversed single #
loop $-1 $-1 $280 $180 #
plane-surface $-1 0 41.494867919170382 0 0 -1 0 0 0 -1 forward_v I I I I #
coedge $-1 $369 $278 $281 $370 forward $181 $-1 #
coedge $-1 $284 $183 $184 $272 reversed $114 $-1 #
coedge $-1 $278 $369 $183 $270 reversed $181 $-1 #
edge $-1 $285 -15.468226055857736 $371 15.468226055857736 $269 $372 forward 7 unknown #
coedge $-1 $185 $184 $369 $373 forward $73 $-1 #
edge $-1 $276 -64.691915646839817 $371 64.691915646839817 $268 $374 forward 7 unknown #
coedge $-1 $281 $280 $185 $274 reversed $265 $-1 #
edge $-1 $375 -64.691915646839817 $275 64.691915646839817 $273 $376 forward 7 unknown #
vertex $-1 $187 $377 #
vertex $-1 $287 $378 #
straight-curve $-1 64.691915646839817 0 -15.468226055857736 0 -1 0 I I #
coedge $-1 $267 $269 $188 $279 reversed $181 $-1 #
edge $-1 $282 -41.494867919170382 $285 41.494867919170382 $278 $379 forward 7 unknown #
coedge $-1 $273 $189 $194 $288 forward $265 $-1 #
coedge $-1 $189 $273 $267 $370 reversed $265 $-1 #
vertex $-1 $190 $380 #
straight-curve $-1 0 41.494867919170382 15.468226055857736 -1 0 0 I I #
coedge $-1 $191 $268 $193 $287 reversed $114 $-1 #
vertex $-1 $279 $381 #
straight-curve $-1 0 -41.494867919170382 15.468226055857736 1 0 0 I I #
edge $-1 $196 -15.468226055857736 $276 15.468226055857736 $193 $382 forward 7 unknown #
edge $-1 $197 -15.468226055857736 $275 15.468226055857736 $194 $383 forward 7 unknown #
point $-1 64.691915646839817 -41.494867919170382 15.468226055857736 #
point $-1 64.691915646839817 41.494867919170382 15.468226055857736 #
face $-1 $-1 $307 $28 $-1 $384 reversed single #
loop $-1 $-1 $385 $199 #
plane-surface $-1 0 -52.13042871705305 -11.808874641711032 0 1 0 0 0 1 forward_v I I I I #
coedge $-1 $386 $304 $306 $387 forward $200 $-1 #
coedge $-1 $202 $209 $388 $389 forward $122 $-1 #
coedge $-1 $390 $207 $202 $297 reversed $307 $-1 #
edge $-1 $391 -5.3177803989413377 $211 5.3177803989413377 $296 $392 forward 7 unknown #
coedge $-1 $204 $203 $385 $393 reversed $77 $-1 #
coedge $-1 $304 $386 $203 $300 forward $200 $-1 #
edge $-1 $394 -5.3177803989413377 $302 5.3177803989413377 $203 $395 forward 7 unknown #
edge $-1 $210 -5.3177803989413377 $396 5.3177803989413377 $204 $397 forward 7 unknown #
vertex $-1 $205 $398 #
straight-curve $-1 -64.691915646839817 -41.494867919170382 0 0 0 -1 I I #
coedge $-1 $294 $299 $206 $305 reversed $200 $-1 #
edge $-1 $308 -64.691915646839817 $302 64.691915646839817 $304 $399 forward 7 unknown #
coedge $-1 $207 $390 $294 $387 reversed $307 $-1 #
loop $-1 $-1 $207 $291 #
vertex $-1 $208 $400 #
straight-curve $-1 64.691915646839817 -41.494867919170382 0 0 0 1 I I #
point $-1 -64.691915646839817 -41.494867919170375 -10.153570992769563 #
point $-1 64.691915646839817 -41.494867919170375 -10.153570992769563 #
loop $-1 $-1 $221 $213 #
plane-surface $-1 -64.691915646839817 0 0 1 0 0 0 0 -1 forward_v I I I I #
coedge $-1 $315 $216 $218 $319 reversed $130 $-1 #
coedge $-1 $216 $314 $401 $402 reversed $130 $-1 #
coedge $-1 $224 $219 $216 $317 forward $214 $-1 #
edge $-1 $320 -26.865693073310169 $403 -22.51589859025384 $316 $404 forward 7 unknown #
coedge $-1 $218 $217 $323 $405 reversed $81 $-1 #
edge $-1 $406 0 $320 8.2084099989268537 $314 $407 forward 7 unknown #
vertex $-1 $220 $408 #
straight-curve $-1 -60.342121163783482 -2.472441772147544 15.468226055857736 0 1 0 I I #
coedge $-1 $401 $221 $224 $327 reversed $312 $-1 #
coedge $-1 $221 $401 $318 $405 forward $312 $-1 #
vertex $-1 $222 $409 #
straight-curve $-1 -64.691915646839817 -12.256371525654775 38.535041280357717 0 0 1 I I #
straight-curve $-1 -64.691915646839817 -12.256371525654775 8.5070995187478786 -0.52991925155115449 0 -0.84804810408105047 I I #
edge $-1 $403 -2.3666044370645984 $225 12.256371525654775 $322 $410 forward 7 unknown #
point $-1 -64.691915646839817 -12.256371525654775 15.468226055857736 #
point $-1 -60.342121163783489 -12.256371525654775 15.468226055857736 #
edge $-1 $411 1 $411 0 $228 $-1 forward 7 unknown #
vertex $-1 $229 $412 #
ellipse-curve $-1 -58.695664525872971 -8.0783783934492348 9.5998159447011595 -0.84804810408105047 0 0.52991925155115449 1.059838503102309 0 1.6960962081621009 1 I I #
point $-1 -61.457179902209333 -8.0783783934492348 13.683758995464901 #
edge $-1 $413 1 $413 0 $232 $-1 forward 7 unknown #
vertex $-1 $233 $414 #
ellipse-curve $-1 -58.695664525872971 -1.8113886951409341 9.5998159447011595 -0.84804810408105047 0 0.52991925155115449 1.059838503102309 0 1.6960962081621009 1 I I #
point $-1 -61.457179902209333 -1.8113886951409341 13.683758995464901 #
plane-surface $-1 0 0 15.468226055857736 0 0 1 1 0 0 forward_v I I I I #
coedge $-1 $349 $348 $341 $415 forward $237 $-1 #
coedge $-1 $341 $239 $241 $345 reversed $152 $-1 #
coedge $-1 $239 $340 $339 $415 reversed $152 $-1 #
coedge $-1 $247 $242 $239 $343 forward $248 $-1 #
edge $-1 $346 13.644695803483316 $416 18.034051368103931 $342 $417 forward 7 unknown #
coedge $-1 $241 $240 $349 $418 reversed $95 $-1 #
edge $-1 $419 -129.38383129367958 $346 -121.91621343219614 $340 $420 forward 7 unknown #
vertex $-1 $243 $421 #
straight-curve $-1 60.302560082219202 12.159281766561595 15.468226055857734 0 -1 0 I I #
coedge $-1 $339 $244 $247 $353 reversed $237 $-1 #
coedge $-1 $244 $339 $344 $418 forward $237 $-1 #
vertex $-1 $245 $422 #
straight-curve $-1 64.691915646839817 28.62764141277961 95.075211036112776 0 0 1 I I #
straight-curve $-1 -11.357990815303751 28.62764141277961 114.10051561008196 0.5877852410284794 0 -0.80901700255871778 I I #
edge $-1 $416 20.009485653466768 $249 28.62764141277961 $348 $423 forward 7 unknown #
point $-1 64.691915646839817 28.62764141277961 15.468226055857736 #
point $-1 60.302560082219202 28.62764141277961 15.468226055857741 #
edge $-1 $424 1 $424 0 $252 $-1 forward 7 unknown #
vertex $-1 $253 $425 #
ellipse-curve $-1 61.602089821185039 21.733116805329331 11.797148043273626 0.80901700255871778 0 0.5877852410284794 0.2938926205142397 0 -0.40450850127935889 1 I I #
point $-1 62.79113048504373 21.733116805329331 12.043002645302719 #
edge $-1 $426 1 $426 0 $256 $-1 forward 7 unknown #
vertex $-1 $257 $427 #
ellipse-curve $-1 61.602089821185039 24.318563533123189 11.797148043273626 0.80901700255871778 0 0.5877852410284794 0.2938926205142397 0 -0.40450850127935889 1 I I #
point $-1 62.79113048504373 24.318563533123189 12.043002645302719 #
edge $-1 $428 1 $428 0 $260 $-1 forward 7 unknown #
vertex $-1 $261 $429 #
ellipse-curve $-1 61.602089821185039 26.90401026091704 11.797148043273626 0.80901700255871778 0 0.5877852410284794 0.2938926205142397 0 -0.40450850127935889 1 I I #
point $-1 62.79113048504373 26.90401026091704 12.043002645302719 #
plane-surface $-1 64.691915646839817 0 0 -1 0 0 0 0 1 forward_v I I I I #
coedge $-1 $269 $267 $271 $373 reversed $181 $-1 #
edge $-1 $282 -15.468226055857736 $375 15.468226055857736 $281 $430 forward 7 unknown #
vertex $-1 $373 $431 #
straight-curve $-1 -64.691915646839817 -41.494867919170382 0 0 0 -1 I I #
edge $-1 $371 -41.494867919170382 $375 41.494867919170382 $369 $432 forward 7 unknown #
straight-curve $-1 0 -41.494867919170382 -15.468226055857736 -1 0 0 I I #
vertex $-1 $274 $433 #
straight-curve $-1 0 41.494867919170382 -15.468226055857736 1 0 0 I I #
point $-1 64.691915646839817 41.494867919170382 -15.468226055857736 #
point $-1 64.691915646839817 -41.494867919170382 -15.468226055857736 #
straight-curve $-1 -64.691915646839817 0 15.468226055857736 0 -1 0 I I #
point $-1 -64.691915646839817 41.494867919170382 15.468226055857736 #
point $-1 -64.691915646839817 -41.494867919170382 15.468226055857736 #
straight-curve $-1 64.691915646839817 -41.494867919170382 0 0 0 -1 I I #
straight-curve $-1 64.691915646839817 41.494867919170382 0 0 0 -1 I I #
plane-surface $-1 64.691915646839817 0 0 -1 0 0 0 0 1 forward_v I I I I #
coedge $-1 $434 $388 $298 $393 forward $292 $-1 #
coedge $-1 $299 $294 $434 $435 forward $200 $-1 #
edge $-1 $308 -5.3177803989413377 $436 5.3177803989413377 $306 $437 forward 7 unknown #
coedge $-1 $385 $438 $295 $389 reversed $292 $-1 #
edge $-1 $396 -64.691915646839817 $391 64.691915646839817 $388 $439 forward 7 unknown #
coedge $-1 $306 $296 $438 $440 forward $307 $-1 #
vertex $-1 $297 $441 #
straight-curve $-1 64.691915646839817 -46.812648318111712 -10.153570992769563 0 1 0 I I #
edge $-1 $396 -1.6553036489414694 $394 1.6553036489414694 $298 $442 forward 7 unknown #
vertex $-1 $300 $443 #
straight-curve $-1 -64.691915646839817 -46.812648318111712 -13.464178290652502 0 1 0 I I #
vertex $-1 $301 $444 #
straight-curve $-1 -64.691915646839817 -46.812648318111712 -10.153570992769563 0 -1 0 I I #
point $-1 -64.691915646839817 -41.494867919170375 -13.464178290652502 #
straight-curve $-1 0 -41.494867919170382 -13.464178290652502 -1 0 0 I I #
point $-1 64.691915646839817 -41.494867919170375 -13.464178290652502 #
coedge $-1 $323 $322 $315 $402 forward $312 $-1 #
edge $-1 $403 23.066815224499983 $406 30.027941761609839 $401 $445 forward 7 unknown #
vertex $-1 $327 $446 #
straight-curve $-1 -87.207814237093658 2.3666044370645984 15.468226055857734 -1 0 0 I I #
edge $-1 $406 -4.8390462092121425 $324 9.7839297535072305 $323 $447 forward 7 unknown #
vertex $-1 $405 $448 #
straight-curve $-1 -64.691915646839817 2.3666044370645984 8.5070995187478786 0.52991925155115449 0 0.84804810408105047 I I #
point $-1 -60.342121163783489 2.3666044370645984 15.468226055857736 #
point $-1 -64.691915646839817 -12.256371525654775 8.5070995187478786 #
straight-curve $-1 -64.691915646839817 0 15.468226055857736 0 -1 0 I I #
vertex $-1 $330 $449 #
point $-1 -57.635826022770658 -8.0783783934492348 11.295912152863259 #
vertex $-1 $334 $450 #
point $-1 -57.635826022770658 -1.8113886951409341 11.295912152863259 #
edge $-1 $416 79.606984980255035 $419 85.6484147988063 $339 $451 forward 7 unknown #
vertex $-1 $353 $452 #
straight-curve $-1 46.657864278735886 20.009485653466768 15.468226055857741 1 0 0 I I #
edge $-1 $419 7.8502038869051738 $350 16.468359646218016 $349 $453 forward 7 unknown #
vertex $-1 $418 $454 #
straight-curve $-1 -11.357990815303751 20.009485653466768 114.10051561008196 -0.5877852410284794 0 0.80901700255871778 I I #
point $-1 60.302560082219202 20.009485653466768 15.468226055857741 #
point $-1 64.691915646839817 28.62764141277961 9.4267962373064762 #
straight-curve $-1 64.691915646839817 0 15.468226055857736 0 1 0 I I #
vertex $-1 $356 $455 #
point $-1 61.895982441699282 21.733116805329331 11.392639541994267 #
vertex $-1 $360 $456 #
point $-1 61.895982441699282 24.318563533123189 11.392639541994267 #
vertex $-1 $364 $457 #
point $-1 61.895982441699282 26.90401026091704 11.392639541994267 #
straight-curve $-1 -64.691915646839817 41.494867919170382 0 0 0 -1 I I #
point $-1 -64.691915646839817 -41.494867919170382 -15.468226055857736 #
straight-curve $-1 -64.691915646839817 0 -15.468226055857736 0 1 0 I I #
point $-1 -64.691915646839817 41.494867919170382 -15.468226055857736 #
coedge $-1 $438 $385 $386 $435 reversed $292 $-1 #
edge $-1 $436 -64.691915646839817 $394 64.691915646839817 $434 $458 forward 7 unknown #
vertex $-1 $440 $459 #
straight-curve $-1 64.691915646839817 -46.812648318111712 -13.464178290652502 0 -1 0 I I #
coedge $-1 $388 $434 $390 $440 reversed $292 $-1 #
straight-curve $-1 0 -52.13042871705305 -10.153570992769563 1 0 0 I I #
edge $-1 $391 -1.6553036489414694 $436 1.6553036489414694 $390 $460 forward 7 unknown #
point $-1 64.691915646839817 -52.13042871705305 -10.153570992769563 #
straight-curve $-1 -64.691915646839817 -52.13042871705305 -11.808874641711032 0 0 -1 I I #
point $-1 -64.691915646839817 -52.13042871705305 -13.464178290652502 #
point $-1 -64.691915646839817 -52.13042871705305 -10.153570992769563 #
straight-curve $-1 -64.691915646839817 2.3666044370645984 38.535041280357717 0 0 -1 I I #
point $-1 -64.691915646839817 2.3666044370645984 15.468226055857736 #
straight-curve $-1 -64.691915646839817 -2.472441772147544 8.5070995187478751 0 -1 0 I I #
point $-1 -64.691915646839817 2.3666044370645984 8.5070995187478786 #
point $-1 -56.999568317710867 -8.0783783934492348 8.5399774415988503 #
point $-1 -56.999568317710867 -1.8113886951409341 8.5399774415988503 #
straight-curve $-1 64.691915646839817 20.009485653466768 95.075211036112776 0 0 -1 I I #
point $-1 64.691915646839817 20.009485653466768 15.468226055857736 #
straight-curve $-1 64.691915646839817 12.159281766561595 9.426796237306462 0 1 0 I I #
point $-1 64.691915646839817 20.009485653466768 9.4267962373064762 #
point $-1 61.197581319905687 21.733116805329331 11.503255422759388 #
point $-1 61.197581319905687 24.318563533123189 11.503255422759388 #
point $-1 61.197581319905687 26.90401026091704 11.503255422759388 #
straight-curve $-1 0 -52.13042871705305 -13.464178290652502 -1 0 0 I I #
point $-1 64.691915646839817 -52.13042871705305 -13.464178290652502 #
straight-curve $-1 64.691915646839817 -52.13042871705305 -11.808874641711032 0 0 -1 I I #
End-of-ACIS-data 