500 0 14 0           
7 Unknown 11 ACIS 5.0 NT 24 Fri Mar 26 17:43:45 1999 
-1 9.9999999999999995e-007 1e-010 
body $-1 $14 $-1 $15 #
body $-1 $16 $-1 $17 #
body $-1 $18 $-1 $19 #
body $-1 $20 $-1 $21 #
body $-1 $22 $-1 $23 #
body $-1 $24 $-1 $25 #
body $-1 $26 $-1 $27 #
body $-1 $28 $-1 $29 #
body $-1 $30 $-1 $31 #
body $-1 $32 $-1 $33 #
body $-1 $34 $-1 $35 #
body $-1 $36 $-1 $37 #
body $-1 $38 $-1 $39 #
body $-1 $40 $-1 $41 #
lump $-1 $-1 $42 $0 #
transform $-1 1 0 0 0 1 0 0 0 1 66.182439649647506 41.00091713956067 19.229025972792282 1 rotate no_reflect no_shear #
lump $-1 $-1 $43 $1 #
transform $-1 1 0 0 0 1 0 0 0 1 66.182439649647506 41.00091713956067 19.229025972792282 1 rotate no_reflect no_shear #
lump $-1 $-1 $44 $2 #
transform $-1 1 0 0 0 1 0 0 0 1 66.182439649647506 41.00091713956067 19.229025972792282 1 rotate no_reflect no_shear #
lump $-1 $-1 $45 $3 #
transform $-1 1 0 0 0 1 0 0 0 1 66.182439649647506 41.00091713956067 19.229025972792282 1 rotate no_reflect no_shear #
lump $-1 $-1 $46 $4 #
transform $-1 1 0 0 0 1 0 0 0 1 66.182439649647506 41.00091713956067 19.229025972792282 1 rotate no_reflect no_shear #
lump $-1 $-1 $47 $5 #
transform $-1 1 0 0 0 1 0 0 0 1 66.182439649647506 41.00091713956067 19.229025972792282 1 rotate no_reflect no_shear #
lump $-1 $-1 $48 $6 #
transform $-1 1 0 0 0 1 0 0 0 1 66.182439649647506 41.00091713956067 19.229025972792282 1 rotate no_reflect no_shear #
lump $-1 $-1 $49 $7 #
transform $-1 1 0 0 0 1 0 0 0 1 66.182439649647506 41.00091713956067 19.229025972792282 1 rotate no_reflect no_shear #
lump $-1 $-1 $50 $8 #
transform $-1 1 0 0 0 1 0 0 0 1 66.182439649647506 41.00091713956067 19.229025972792282 1 rotate no_reflect no_shear #
lump $-1 $-1 $51 $9 #
transform $-1 1 0 0 0 1 0 0 0 1 66.182439649647506 41.00091713956067 19.229025972792282 1 rotate no_reflect no_shear #
lump $-1 $-1 $52 $10 #
transform $-1 1 0 0 0 1 0 0 0 1 66.182439649647506 41.00091713956067 19.229025972792282 1 rotate no_reflect no_shear #
lump $-1 $-1 $53 $11 #
transform $-1 1 0 0 0 1 0 0 0 1 66.182439649647506 41.00091713956067 19.229025972792282 1 rotate no_reflect no_shear #
lump $-1 $-1 $54 $12 #
transform $-1 1 0 0 0 1 0 0 0 1 66.182439649647506 41.00091713956067 19.229025972792282 1 rotate no_reflect no_shear #
lump $-1 $-1 $55 $13 #
transform $-1 1 0 0 0 1 0 0 0 1 66.182439649647506 41.00091713956067 19.229025972792282 1 rotate no_reflect no_shear #
shell $-1 $-1 $-1 $56 $-1 $14 #
shell $-1 $-1 $-1 $57 $-1 $16 #
shell $-1 $-1 $-1 $58 $-1 $18 #
shell $-1 $-1 $-1 $59 $-1 $20 #
shell $-1 $-1 $-1 $60 $-1 $22 #
shell $-1 $-1 $-1 $61 $-1 $24 #
shell $-1 $-1 $-1 $62 $-1 $26 #
shell $-1 $-1 $-1 $63 $-1 $28 #
shell $-1 $-1 $-1 $64 $-1 $30 #
shell $-1 $-1 $-1 $65 $-1 $32 #
shell $-1 $-1 $-1 $66 $-1 $34 #
shell $-1 $-1 $-1 $67 $-1 $36 #
shell $-1 $-1 $-1 $68 $-1 $38 #
shell $-1 $-1 $-1 $69 $-1 $40 #
face $-1 $70 $71 $42 $-1 $72 forward single #
face $-1 $73 $74 $43 $-1 $75 forward single #
face $-1 $76 $77 $44 $-1 $78 reversed single #
face $-1 $79 $80 $45 $-1 $81 forward single #
face $-1 $82 $83 $46 $-1 $84 forward single #
face $-1 $85 $86 $47 $-1 $87 forward single #
face $-1 $88 $89 $48 $-1 $90 reversed single #
face $-1 $91 $92 $49 $-1 $93 forward single #
face $-1 $94 $95 $50 $-1 $96 forward single #
face $-1 $97 $98 $51 $-1 $99 forward single #
face $-1 $100 $101 $52 $-1 $102 reversed single #
face $-1 $103 $104 $53 $-1 $105 forward single #
face $-1 $106 $107 $54 $-1 $108 forward single #
face $-1 $109 $110 $55 $-1 $111 forward single #
face $-1 $112 $113 $42 $-1 $114 reversed single #
loop $-1 $-1 $115 $56 #
plane-surface $-1 0 0 19.229025972792282 0 0 1 1 0 0 forward_v I I I I #
face $-1 $116 $117 $43 $-1 $118 reversed single #
loop $-1 $-1 $119 $57 #
plane-surface $-1 -53.846450545546837 0 -8.4648323692112477 0 0 1 1 0 0 forward_v I I I I #
face $-1 $120 $121 $44 $-1 $122 reversed single #
loop $-1 $-1 $123 $58 #
plane-surface $-1 -41.510461441446168 -155.632266205458 79.473429177903441 1 0 0 0 0.86602541151947299 -0.49999998660252726 forward_v I I I I #
face $-1 $124 $125 $45 $-1 $126 forward single #
loop $-1 $127 $128 $59 #
cone-surface $-1 -37.64926651789996 -37.840495505805031 15.425010795870921 0 0.86602541151947299 -0.49999998660252726 1.5 0 0 1 I I 0 1 1.5 forward I I I I #
face $-1 $129 $130 $46 $-1 $131 forward single #
loop $-1 $132 $133 $60 #
cone-surface $-1 -31.857474132580649 -37.840495505805031 15.425010795870921 0 0.86602541151947299 -0.49999998660252726 1.5 0 0 1 I I 0 1 1.5 forward I I I I #
face $-1 $134 $135 $47 $-1 $136 forward single #
loop $-1 $137 $138 $61 #
cone-surface $-1 -26.065681747261337 -37.840495505805031 15.425010795870921 0 0.86602541151947299 -0.49999998660252726 1.5 0 0 1 I I 0 1 1.5 forward I I I I #
face $-1 $139 $140 $48 $-1 $141 reversed single #
loop $-1 $-1 $142 $62 #
plane-surface $-1 -8.5130568067688586 68.631071920933493 169.25276033554209 1 0 0 0 -0.66913061440640931 -0.74314481823134659 forward_v I I I I #
face $-1 $143 $144 $49 $-1 $145 forward single #
loop $-1 $146 $147 $63 #
cone-surface $-1 -4.3432476245949516 38.730593399598611 17.082568742376758 0 -0.66913061440640931 -0.74314481823134659 0.5 0 0 1 I I 0 1 0.5 forward I I I I #
face $-1 $148 $149 $50 $-1 $150 forward single #
loop $-1 $151 $152 $64 #
cone-surface $-1 1.9114661486659088 38.730593399598611 17.082568742376758 0 -0.66913061440640931 -0.74314481823134659 0.5 0 0 1 I I 0 1 0.5 forward I I I I #
face $-1 $153 $154 $51 $-1 $155 forward single #
loop $-1 $156 $157 $65 #
cone-surface $-1 8.1661799219267692 38.730593399598611 17.082568742376758 0 -0.66913061440640931 -0.74314481823134659 0.5 0 0 1 I I 0 1 0.5 forward I I I I #
face $-1 $158 $159 $52 $-1 $160 reversed single #
loop $-1 $-1 $161 $66 #
plane-surface $-1 1.9114661486659088 -19.938321090433988 70.886486168453374 0 0.66913061440640931 0.74314481823134659 1 0 0 forward_v I I I I #
face $-1 $162 $163 $53 $-1 $164 forward single #
loop $-1 $165 $166 $67 #
cone-surface $-1 16.505798286274569 38.730593399598611 17.082568742376758 0 -0.66913061440640931 -0.74314481823134659 0.5 0 0 1 I I 0 1 0.5 forward I I I I #
face $-1 $167 $168 $54 $-1 $169 forward single #
loop $-1 $170 $171 $68 #
cone-surface $-1 22.760512059535429 38.730593399598611 17.082568742376758 0 -0.66913061440640931 -0.74314481823134659 0.5 0 0 1 I I 0 1 0.5 forward I I I I #
face $-1 $172 $173 $55 $-1 $174 forward single #
loop $-1 $175 $176 $69 #
cone-surface $-1 29.01522583279629 38.730593399598611 17.082568742376758 0 -0.66913061440640931 -0.74314481823134659 0.5 0 0 1 I I 0 1 0.5 forward I I I I #
face $-1 $177 $178 $42 $-1 $179 reversed single #
loop $-1 $-1 $180 $70 #
plane-surface $-1 0 0 -19.229025972792282 0 0 1 1 0 0 forward_v I I I I #
coedge $-1 $181 $182 $183 $184 forward $71 $-1 #
face $-1 $185 $186 $43 $-1 $187 reversed single #
loop $-1 $-1 $188 $73 #
plane-surface $-1 -41.510461441446168 0 -13.846929171001765 -1 0 0 0 0 1 forward_v I I I I #
coedge $-1 $189 $190 $191 $192 forward $74 $-1 #
face $-1 $193 $194 $44 $-1 $195 reversed single #
loop $-1 $-1 $196 $76 #
plane-surface $-1 -31.857474132580641 -41.000917139560656 13.290991301610802 0 -0.86602541151947299 0.49999998660252726 1 0 0 forward_v I I I I #
coedge $-1 $197 $198 $199 $200 reversed $77 $-1 #
face $-1 $-1 $201 $45 $-1 $202 forward single #
loop $-1 $203 $204 $79 #
cone-surface $-1 -37.64926651789996 -35.744717710100574 14.215012964588414 0 0.86602541151947299 -0.49999998660252726 0.75 0 0 1 I I -0.70710678118654835 0.70710678118654668 0.75 forward I I I I #
loop $-1 $-1 $205 $59 #
coedge $-1 $128 $128 $206 $207 reversed $80 $-1 #
face $-1 $-1 $208 $46 $-1 $209 forward single #
loop $-1 $210 $211 $82 #
cone-surface $-1 -31.857474132580649 -35.744717710100574 14.215012964588414 0 0.86602541151947299 -0.49999998660252726 0.75 0 0 1 I I -0.70710678118654835 0.70710678118654668 0.75 forward I I I I #
loop $-1 $-1 $212 $60 #
coedge $-1 $133 $133 $213 $214 reversed $83 $-1 #
face $-1 $-1 $215 $47 $-1 $216 forward single #
loop $-1 $217 $218 $85 #
cone-surface $-1 -26.065681747261337 -35.744717710100574 14.215012964588414 0 0.86602541151947299 -0.49999998660252726 0.75 0 0 1 I I -0.70710678118654835 0.70710678118654668 0.75 forward I I I I #
loop $-1 $-1 $219 $61 #
coedge $-1 $138 $138 $220 $221 reversed $86 $-1 #
face $-1 $222 $223 $48 $-1 $224 reversed single #
loop $-1 $-1 $225 $88 #
plane-surface $-1 1.9114661486659088 -19.938321090433988 70.886486168453374 0 0.66913061440640931 0.74314481823134659 1 0 0 forward_v I I I I #
coedge $-1 $226 $227 $228 $229 reversed $89 $-1 #
face $-1 $-1 $230 $49 $-1 $231 forward single #
loop $-1 $232 $233 $91 #
cone-surface $-1 -4.3432476245949516 38.076895856936261 16.356564086393352 0 -0.66913061440640931 -0.74314481823134659 0.25 0 0 1 I I -0.70710678118654746 0.70710678118654746 0.25 forward I I I I #
loop $-1 $-1 $234 $63 #
coedge $-1 $147 $147 $235 $236 reversed $92 $-1 #
face $-1 $-1 $237 $50 $-1 $238 forward single #
loop $-1 $239 $240 $94 #
cone-surface $-1 1.9114661486659088 38.076895856936261 16.356564086393352 0 -0.66913061440640931 -0.74314481823134659 0.25 0 0 1 I I -0.70710678118654746 0.70710678118654746 0.25 forward I I I I #
loop $-1 $-1 $241 $64 #
coedge $-1 $152 $152 $242 $243 reversed $95 $-1 #
face $-1 $-1 $244 $51 $-1 $245 forward single #
loop $-1 $246 $247 $97 #
cone-surface $-1 8.1661799219267692 38.076895856936261 16.356564086393352 0 -0.66913061440640931 -0.74314481823134659 0.25 0 0 1 I I -0.70710678118654746 0.70710678118654746 0.25 forward I I I I #
loop $-1 $-1 $248 $65 #
coedge $-1 $157 $157 $249 $250 reversed $98 $-1 #
face $-1 $251 $252 $52 $-1 $253 reversed single #
loop $-1 $-1 $254 $100 #
plane-surface $-1 33.185035014970197 68.631071920933493 169.25276033554209 -1 0 0 0 0.66913061440640931 0.74314481823134659 forward_v I I I I #
coedge $-1 $255 $256 $257 $258 reversed $101 $-1 #
face $-1 $-1 $259 $53 $-1 $260 forward single #
loop $-1 $261 $262 $103 #
cone-surface $-1 16.505798286274569 38.076895856936261 16.356564086393352 0 -0.66913061440640931 -0.74314481823134659 0.25 0 0 1 I I -0.70710678118654746 0.70710678118654746 0.25 forward I I I I #
loop $-1 $-1 $263 $67 #
coedge $-1 $166 $166 $264 $265 reversed $104 $-1 #
face $-1 $-1 $266 $54 $-1 $267 forward single #
loop $-1 $268 $269 $106 #
cone-surface $-1 22.760512059535429 38.076895856936261 16.356564086393352 0 -0.66913061440640931 -0.74314481823134659 0.25 0 0 1 I I -0.70710678118654746 0.70710678118654746 0.25 forward I I I I #
loop $-1 $-1 $270 $68 #
coedge $-1 $171 $171 $271 $272 reversed $107 $-1 #
face $-1 $-1 $273 $55 $-1 $274 forward single #
loop $-1 $275 $276 $109 #
cone-surface $-1 29.01522583279629 38.076895856936261 16.356564086393352 0 -0.66913061440640931 -0.74314481823134659 0.25 0 0 1 I I -0.70710678118654746 0.70710678118654746 0.25 forward I I I I #
loop $-1 $-1 $277 $69 #
coedge $-1 $176 $176 $278 $279 reversed $110 $-1 #
face $-1 $280 $281 $42 $-1 $282 reversed single #
loop $-1 $-1 $283 $112 #
plane-surface $-1 0 -41.00091713956067 0 0 1 0 0 0 1 forward_v I I I I #
coedge $-1 $284 $285 $286 $287 forward $113 $-1 #
coedge $-1 $288 $115 $289 $290 forward $71 $-1 #
coedge $-1 $115 $288 $291 $292 forward $71 $-1 #
coedge $-1 $293 $294 $115 $184 reversed $295 $-1 #
edge $-1 $296 -41.00091713956067 $297 41.00091713956067 $183 $298 forward 7 unknown #
face $-1 $299 $300 $43 $-1 $301 reversed single #
loop $-1 $-1 $302 $116 #
plane-surface $-1 0 0 -19.229025972792282 0 0 1 1 0 0 forward_v I I I I #
coedge $-1 $303 $191 $304 $305 reversed $117 $-1 #
coedge $-1 $306 $119 $307 $308 reversed $74 $-1 #
coedge $-1 $119 $306 $309 $310 reversed $74 $-1 #
coedge $-1 $188 $311 $119 $192 reversed $117 $-1 #
edge $-1 $312 -41.00091713956067 $313 41.00091713956067 $191 $314 forward 7 unknown #
face $-1 $315 $316 $44 $-1 $317 forward single #
loop $-1 $-1 $318 $120 #
plane-surface $-1 -22.204486823715115 -155.632266205458 79.473429177903441 -1 0 0 0 -0.86602541151947299 0.49999998660252726 forward_v I I I I #
coedge $-1 $319 $320 $321 $322 reversed $121 $-1 #
coedge $-1 $198 $123 $323 $324 reversed $77 $-1 #
coedge $-1 $123 $197 $319 $325 reversed $77 $-1 #
coedge $-1 $321 $326 $123 $200 forward $327 $-1 #
edge $-1 $328 20.507688616159438 $329 26.445723287340943 $199 $330 forward 7 unknown #
loop $-1 $-1 $206 $124 #
plane-surface $-1 -31.857474132580641 -41.000917139560656 13.290991301610802 0 -0.86602541151947299 0.49999998660252726 1 0 0 forward_v I I I I #
loop $-1 $-1 $331 $79 #
coedge $-1 $204 $204 $205 $332 reversed $125 $-1 #
coedge $-1 $205 $205 $204 $332 forward $127 $-1 #
coedge $-1 $206 $206 $128 $207 forward $201 $-1 #
edge $-1 $333 -3.1731550527444483e-016 $333 6.2831853071796004 $206 $334 forward 7 unknown #
loop $-1 $-1 $213 $129 #
plane-surface $-1 -31.857474132580641 -41.000917139560656 13.290991301610802 0 -0.86602541151947299 0.49999998660252726 1 0 0 forward_v I I I I #
loop $-1 $-1 $335 $82 #
coedge $-1 $211 $211 $212 $336 reversed $130 $-1 #
coedge $-1 $212 $212 $211 $336 forward $132 $-1 #
coedge $-1 $213 $213 $133 $214 forward $208 $-1 #
edge $-1 $337 -3.1731550527444483e-016 $337 6.2831853071796004 $213 $338 forward 7 unknown #
loop $-1 $-1 $220 $134 #
plane-surface $-1 -31.857474132580641 -41.000917139560656 13.290991301610802 0 -0.86602541151947299 0.49999998660252726 1 0 0 forward_v I I I I #
loop $-1 $-1 $339 $85 #
coedge $-1 $218 $218 $219 $340 reversed $135 $-1 #
coedge $-1 $219 $219 $218 $340 forward $137 $-1 #
coedge $-1 $220 $220 $138 $221 forward $215 $-1 #
edge $-1 $341 -3.1731550527444483e-016 $341 6.2831853071796004 $220 $342 forward 7 unknown #
face $-1 $343 $344 $48 $-1 $345 reversed single #
loop $-1 $-1 $346 $139 #
plane-surface $-1 12.335989104100676 68.631071920933493 169.25276033554209 -1 0 0 0 0.66913061440640931 0.74314481823134659 forward_v I I I I #
coedge $-1 $347 $348 $349 $350 reversed $140 $-1 #
coedge $-1 $227 $142 $351 $352 reversed $89 $-1 #
coedge $-1 $142 $226 $347 $353 reversed $89 $-1 #
coedge $-1 $349 $354 $142 $229 forward $355 $-1 #
edge $-1 $356 -6.6853811790939233 $357 -3.1175634772912488 $228 $358 forward 7 unknown #
loop $-1 $-1 $235 $143 #
plane-surface $-1 1.9114661486659088 -19.938321090433988 70.886486168453374 0 0.66913061440640931 0.74314481823134659 1 0 0 forward_v I I I I #
loop $-1 $-1 $359 $91 #
coedge $-1 $233 $233 $234 $360 reversed $144 $-1 #
coedge $-1 $234 $234 $233 $360 forward $146 $-1 #
coedge $-1 $235 $235 $147 $236 forward $230 $-1 #
edge $-1 $361 3.1554152922525962e-015 $361 6.283185307179604 $235 $362 forward 7 unknown #
loop $-1 $-1 $242 $148 #
plane-surface $-1 1.9114661486659088 -19.938321090433988 70.886486168453374 0 0.66913061440640931 0.74314481823134659 1 0 0 forward_v I I I I #
loop $-1 $-1 $363 $94 #
coedge $-1 $240 $240 $241 $364 reversed $149 $-1 #
coedge $-1 $241 $241 $240 $364 forward $151 $-1 #
coedge $-1 $242 $242 $152 $243 forward $237 $-1 #
edge $-1 $365 3.1554152922525962e-015 $365 6.283185307179604 $242 $366 forward 7 unknown #
loop $-1 $-1 $249 $153 #
plane-surface $-1 1.9114661486659088 -19.938321090433988 70.886486168453374 0 0.66913061440640931 0.74314481823134659 1 0 0 forward_v I I I I #
loop $-1 $-1 $367 $97 #
coedge $-1 $247 $247 $248 $368 reversed $154 $-1 #
coedge $-1 $248 $248 $247 $368 forward $156 $-1 #
coedge $-1 $249 $249 $157 $250 forward $244 $-1 #
edge $-1 $369 3.1554152922525962e-015 $369 6.283185307179604 $249 $370 forward 7 unknown #
face $-1 $371 $372 $52 $-1 $373 forward single #
loop $-1 $-1 $374 $158 #
plane-surface $-1 0 41.00091713956067 0 0 -1 0 0 0 -1 forward_v I I I I #
coedge $-1 $375 $376 $377 $378 reversed $159 $-1 #
coedge $-1 $379 $161 $380 $381 reversed $101 $-1 #
coedge $-1 $161 $379 $382 $383 reversed $101 $-1 #
coedge $-1 $384 $385 $161 $258 forward $372 $-1 #
edge $-1 $386 -82.001834279121368 $387 -77.200861959494716 $257 $388 forward 7 unknown #
loop $-1 $-1 $264 $162 #
plane-surface $-1 1.9114661486659088 -19.938321090433988 70.886486168453374 0 0.66913061440640931 0.74314481823134659 1 0 0 forward_v I I I I #
loop $-1 $-1 $389 $103 #
coedge $-1 $262 $262 $263 $390 reversed $163 $-1 #
coedge $-1 $263 $263 $262 $390 forward $165 $-1 #
coedge $-1 $264 $264 $166 $265 forward $259 $-1 #
edge $-1 $391 3.1554152922525962e-015 $391 6.283185307179604 $264 $392 forward 7 unknown #
loop $-1 $-1 $271 $167 #
plane-surface $-1 1.9114661486659088 -19.938321090433988 70.886486168453374 0 0.66913061440640931 0.74314481823134659 1 0 0 forward_v I I I I #
loop $-1 $-1 $393 $106 #
coedge $-1 $269 $269 $270 $394 reversed $168 $-1 #
coedge $-1 $270 $270 $269 $394 forward $170 $-1 #
coedge $-1 $271 $271 $171 $272 forward $266 $-1 #
edge $-1 $395 3.1554152922525962e-015 $395 6.283185307179604 $271 $396 forward 7 unknown #
loop $-1 $-1 $278 $172 #
plane-surface $-1 1.9114661486659088 -19.938321090433988 70.886486168453374 0 0.66913061440640931 0.74314481823134659 1 0 0 forward_v I I I I #
loop $-1 $-1 $397 $109 #
coedge $-1 $276 $276 $277 $398 reversed $173 $-1 #
coedge $-1 $277 $277 $276 $398 forward $175 $-1 #
coedge $-1 $278 $278 $176 $279 forward $273 $-1 #
edge $-1 $399 3.1554152922525962e-015 $399 6.283185307179604 $278 $400 forward 7 unknown #
face $-1 $401 $402 $42 $-1 $403 reversed single #
loop $-1 $-1 $404 $177 #
plane-surface $-1 -66.182439649647506 0 0 1 0 0 0 0 -1 forward_v I I I I #
coedge $-1 $405 $291 $406 $407 forward $178 $-1 #
coedge $-1 $408 $180 $405 $409 forward $113 $-1 #
coedge $-1 $180 $408 $410 $411 forward $113 $-1 #
coedge $-1 $294 $293 $180 $287 reversed $295 $-1 #
edge $-1 $412 -41.00091713956067 $413 41.00091713956067 $286 $414 forward 7 unknown #
coedge $-1 $182 $181 $415 $416 forward $71 $-1 #
coedge $-1 $417 $418 $181 $290 reversed $402 $-1 #
edge $-1 $297 -66.182439649647506 $419 66.182439649647506 $289 $420 forward 7 unknown #
coedge $-1 $283 $421 $182 $292 reversed $178 $-1 #
edge $-1 $422 -66.182439649647506 $296 66.182439649647506 $291 $423 forward 7 unknown #
coedge $-1 $286 $183 $421 $424 forward $295 $-1 #
coedge $-1 $183 $286 $417 $425 reversed $295 $-1 #
loop $-1 $-1 $293 $401 #
vertex $-1 $184 $426 #
vertex $-1 $184 $427 #
straight-curve $-1 66.182439649647506 0 19.229025972792282 0 1 0 I I #
face $-1 $428 $429 $43 $-1 $430 reversed single #
loop $-1 $-1 $304 $185 #
plane-surface $-1 0 -41.00091713956067 0 0 1 0 0 0 1 forward_v I I I I #
coedge $-1 $431 $432 $303 $433 forward $186 $-1 #
coedge $-1 $311 $188 $302 $433 reversed $117 $-1 #
coedge $-1 $309 $434 $188 $305 forward $300 $-1 #
edge $-1 $435 -12.3055613872914 $312 -1.5413677837103652 $304 $436 forward 7 unknown #
coedge $-1 $190 $189 $437 $438 reversed $74 $-1 #
coedge $-1 $439 $440 $189 $308 forward $441 $-1 #
edge $-1 $442 -39.259214376874084 $313 -14.587236168672749 $307 $443 forward 7 unknown #
coedge $-1 $444 $304 $190 $310 forward $300 $-1 #
edge $-1 $312 14.587236168672749 $445 39.259214376874084 $309 $446 forward 7 unknown #
coedge $-1 $191 $303 $439 $447 reversed $117 $-1 #
vertex $-1 $310 $448 #
vertex $-1 $308 $449 #
straight-curve $-1 -41.510461441446168 0 -8.4648323692112477 0 1 0 I I #
face $-1 $-1 $327 $44 $-1 $450 reversed single #
loop $-1 $-1 $451 $193 #
plane-surface $-1 0 0 19.229025972792282 0 0 1 1 0 0 forward_v I I I I #
coedge $-1 $452 $453 $454 $455 reversed $194 $-1 #
coedge $-1 $456 $196 $198 $325 forward $121 $-1 #
coedge $-1 $196 $456 $452 $457 forward $121 $-1 #
coedge $-1 $454 $199 $196 $322 forward $327 $-1 #
edge $-1 $329 -25.581724375155847 $458 -6.2757497574247942 $321 $459 forward 7 unknown #
coedge $-1 $460 $461 $197 $324 forward $316 $-1 #
edge $-1 $462 -40.243541756549895 $328 -36.815215963168328 $323 $463 forward 7 unknown #
edge $-1 $329 -2.8642609447069912e-014 $462 6.8566517704867156 $198 $464 forward 7 unknown #
coedge $-1 $199 $454 $460 $465 reversed $327 $-1 #
loop $-1 $-1 $454 $315 #
vertex $-1 $465 $466 #
vertex $-1 $200 $467 #
straight-curve $-1 -41.510461441446168 -41.00091713956067 39.73671458895172 0 0 -1 I I #
coedge $-1 $331 $331 $-1 $468 reversed $203 $-1 #
edge $-1 $469 0 $469 6.2831853071796004 $204 $470 forward 7 unknown #
vertex $-1 $207 $471 #
ellipse-curve $-1 -37.64926651789996 -39.286754242869883 16.260008637201533 0 -0.86602541151947299 0.49999998660252726 1.5 0 0 1 I I #
coedge $-1 $335 $335 $-1 $472 reversed $210 $-1 #
edge $-1 $473 0 $473 6.2831853071796004 $211 $474 forward 7 unknown #
vertex $-1 $214 $475 #
ellipse-curve $-1 -31.857474132580649 -39.286754242869883 16.260008637201533 0 -0.86602541151947299 0.49999998660252726 1.5 0 0 1 I I #
coedge $-1 $339 $339 $-1 $476 reversed $217 $-1 #
edge $-1 $477 0 $477 6.2831853071796004 $218 $478 forward 7 unknown #
vertex $-1 $221 $479 #
ellipse-curve $-1 -26.065681747261337 -39.286754242869883 16.260008637201533 0 -0.86602541151947299 0.49999998660252726 1.5 0 0 1 I I #
face $-1 $-1 $355 $48 $-1 $480 forward single #
loop $-1 $-1 $481 $222 #
plane-surface $-1 0 41.00091713956067 0 0 -1 0 0 0 -1 forward_v I I I I #
coedge $-1 $482 $483 $484 $485 reversed $223 $-1 #
coedge $-1 $486 $225 $227 $353 forward $140 $-1 #
coedge $-1 $225 $486 $482 $487 forward $140 $-1 #
coedge $-1 $484 $228 $225 $350 forward $355 $-1 #
edge $-1 $357 -9.468789881101813 $488 11.380256029767722 $349 $489 forward 7 unknown #
coedge $-1 $490 $491 $226 $352 forward $344 $-1 #
edge $-1 $492 -68.609831752958712 $356 -65.39735419497876 $351 $493 forward 7 unknown #
edge $-1 $357 77.200861959494716 $492 82.001834279121368 $227 $494 forward 7 unknown #
coedge $-1 $228 $484 $490 $495 forward $355 $-1 #
loop $-1 $-1 $484 $343 #
vertex $-1 $352 $496 #
vertex $-1 $229 $497 #
straight-curve $-1 -8.5130568067688586 34.315535960466747 19.229025972792286 0 -1 0 I I #
coedge $-1 $359 $359 $-1 $498 reversed $232 $-1 #
edge $-1 $499 0 $499 6.2831853071796004 $233 $500 forward 7 unknown #
vertex $-1 $236 $501 #
ellipse-curve $-1 -4.3432476245949516 39.217008288659336 17.622787193802303 0 0.66913061440640931 0.74314481823134659 0.5 0 0 1 I I #
coedge $-1 $363 $363 $-1 $502 reversed $239 $-1 #
edge $-1 $503 0 $503 6.2831853071796004 $240 $504 forward 7 unknown #
vertex $-1 $243 $505 #
ellipse-curve $-1 1.9114661486659088 39.217008288659336 17.622787193802303 0 0.66913061440640931 0.74314481823134659 0.5 0 0 1 I I #
coedge $-1 $367 $367 $-1 $506 reversed $246 $-1 #
edge $-1 $507 0 $507 6.2831853071796004 $247 $508 forward 7 unknown #
vertex $-1 $250 $509 #
ellipse-curve $-1 8.1661799219267692 39.217008288659336 17.622787193802303 0 0.66913061440640931 0.74314481823134659 0.5 0 0 1 I I #
face $-1 $-1 $510 $52 $-1 $511 forward single #
loop $-1 $-1 $384 $251 #
plane-surface $-1 12.335989104100676 68.631071920933493 169.25276033554209 -1 0 0 0 0.66913061440640931 0.74314481823134659 forward_v I I I I #
coedge $-1 $380 $512 $376 $513 forward $252 $-1 #
coedge $-1 $376 $254 $379 $514 reversed $159 $-1 #
coedge $-1 $254 $375 $374 $513 reversed $159 $-1 #
coedge $-1 $515 $382 $254 $378 forward $510 $-1 #
edge $-1 $516 3.1175634772912488 $517 6.6853811790939233 $377 $518 forward 7 unknown #
coedge $-1 $256 $255 $375 $514 forward $101 $-1 #
coedge $-1 $519 $374 $255 $381 forward $252 $-1 #
edge $-1 $520 -32.229301940637242 $386 -11.380256029767722 $380 $521 forward 7 unknown #
coedge $-1 $377 $522 $256 $383 forward $510 $-1 #
edge $-1 $387 11.380256029767722 $516 32.229301940637242 $382 $523 forward 7 unknown #
coedge $-1 $385 $257 $522 $524 reversed $372 $-1 #
coedge $-1 $257 $384 $519 $525 reversed $372 $-1 #
vertex $-1 $381 $526 #
vertex $-1 $383 $527 #
straight-curve $-1 12.335989104100676 -19.938321090433988 70.886486168453374 0 -0.74314481823134659 0.66913061440640931 I I #
coedge $-1 $389 $389 $-1 $528 reversed $261 $-1 #
edge $-1 $529 0 $529 6.2831853071796004 $262 $530 forward 7 unknown #
vertex $-1 $265 $531 #
ellipse-curve $-1 16.505798286274569 39.217008288659336 17.622787193802303 0 0.66913061440640931 0.74314481823134659 0.5 0 0 1 I I #
coedge $-1 $393 $393 $-1 $532 reversed $268 $-1 #
edge $-1 $533 0 $533 6.2831853071796004 $269 $534 forward 7 unknown #
vertex $-1 $272 $535 #
ellipse-curve $-1 22.760512059535429 39.217008288659336 17.622787193802303 0 0.66913061440640931 0.74314481823134659 0.5 0 0 1 I I #
coedge $-1 $397 $397 $-1 $536 reversed $275 $-1 #
edge $-1 $537 0 $537 6.2831853071796004 $276 $538 forward 7 unknown #
vertex $-1 $279 $539 #
ellipse-curve $-1 29.01522583279629 39.217008288659336 17.622787193802303 0 0.66913061440640931 0.74314481823134659 0.5 0 0 1 I I #
face $-1 $-1 $295 $42 $-1 $540 reversed single #
loop $-1 $-1 $417 $280 #
plane-surface $-1 0 41.00091713956067 0 0 -1 0 0 0 -1 forward_v I I I I #
coedge $-1 $541 $415 $418 $542 forward $281 $-1 #
coedge $-1 $421 $283 $284 $409 reversed $178 $-1 #
coedge $-1 $415 $541 $283 $407 reversed $281 $-1 #
edge $-1 $422 -19.229025972792282 $543 19.229025972792282 $406 $544 forward 7 unknown #
coedge $-1 $285 $284 $541 $545 forward $113 $-1 #
edge $-1 $413 -66.182439649647506 $543 66.182439649647506 $405 $546 forward 7 unknown #
coedge $-1 $418 $417 $285 $411 reversed $402 $-1 #
edge $-1 $547 -66.182439649647506 $412 66.182439649647506 $410 $548 forward 7 unknown #
vertex $-1 $287 $549 #
vertex $-1 $424 $550 #
straight-curve $-1 66.182439649647506 0 -19.229025972792282 0 -1 0 I I #
coedge $-1 $404 $406 $288 $416 reversed $281 $-1 #
edge $-1 $419 -41.00091713956067 $422 41.00091713956067 $415 $551 forward 7 unknown #
coedge $-1 $410 $289 $294 $425 forward $402 $-1 #
coedge $-1 $289 $410 $404 $542 reversed $402 $-1 #
vertex $-1 $290 $552 #
straight-curve $-1 0 41.00091713956067 19.229025972792282 -1 0 0 I I #
coedge $-1 $291 $405 $293 $424 reversed $178 $-1 #
vertex $-1 $416 $553 #
straight-curve $-1 0 -41.00091713956067 19.229025972792282 1 0 0 I I #
edge $-1 $296 -19.229025972792282 $413 19.229025972792282 $293 $554 forward 7 unknown #
edge $-1 $297 -19.229025972792282 $412 19.229025972792282 $294 $555 forward 7 unknown #
point $-1 66.182439649647506 -41.00091713956067 19.229025972792282 #
point $-1 66.182439649647506 41.00091713956067 19.229025972792282 #
face $-1 $-1 $441 $43 $-1 $556 reversed single #
loop $-1 $-1 $437 $299 #
plane-surface $-1 -66.182439649647506 0 0 1 0 0 0 0 -1 forward_v I I I I #
coedge $-1 $557 $302 $434 $558 forward $186 $-1 #
coedge $-1 $302 $557 $559 $560 forward $186 $-1 #
edge $-1 $561 -41.00091713956067 $435 41.00091713956067 $302 $562 forward 7 unknown #
coedge $-1 $304 $444 $431 $558 reversed $300 $-1 #
vertex $-1 $558 $563 #
straight-curve $-1 -41.510461441446168 -41.00091713956067 -6.9234645855008825 0 0 1 I I #
coedge $-1 $564 $565 $306 $438 forward $429 $-1 #
edge $-1 $445 -41.00091713956067 $442 41.00091713956067 $437 $566 forward 7 unknown #
coedge $-1 $559 $307 $311 $447 forward $441 $-1 #
coedge $-1 $307 $559 $564 $567 reversed $441 $-1 #
loop $-1 $-1 $439 $428 #
vertex $-1 $567 $568 #
straight-curve $-1 -26.923225272773418 41.00091713956067 -8.4648323692112477 1 0 0 I I #
coedge $-1 $434 $309 $565 $569 forward $300 $-1 #
vertex $-1 $569 $570 #
straight-curve $-1 -26.923225272773418 -41.00091713956067 -8.4648323692112477 -1 0 0 I I #
edge $-1 $313 1.5413677837103652 $561 12.3055613872914 $439 $571 forward 7 unknown #
point $-1 -41.510461441446168 -41.00091713956067 -8.4648323692112477 #
point $-1 -41.510461441446168 41.00091713956067 -8.4648323692112477 #
plane-surface $-1 0 -41.00091713956067 0 0 1 0 0 0 1 forward_v I I I I #
coedge $-1 $461 $460 $453 $572 forward $316 $-1 #
coedge $-1 $453 $318 $320 $457 reversed $194 $-1 #
coedge $-1 $318 $452 $451 $572 reversed $194 $-1 #
coedge $-1 $326 $321 $318 $455 forward $327 $-1 #
edge $-1 $458 -26.445723287340943 $573 -20.507688616159438 $454 $574 forward 7 unknown #
coedge $-1 $320 $319 $461 $575 reversed $121 $-1 #
edge $-1 $576 -6.8566517704867156 $458 2.8642609447069912e-014 $452 $577 forward 7 unknown #
vertex $-1 $322 $578 #
straight-curve $-1 -15.928737066290321 -41.00091713956067 13.290991301610774 1 0 0 I I #
coedge $-1 $451 $323 $326 $465 forward $316 $-1 #
coedge $-1 $323 $451 $456 $575 forward $316 $-1 #
vertex $-1 $324 $579 #
straight-curve $-1 -41.510461441446168 -77.816133102728998 19.229025972792282 0 -1 0 I I #
straight-curve $-1 -41.510461441446168 -41.000917139560656 13.290991301610802 0 0.49999998660252726 0.86602541151947299 I I #
edge $-1 $328 -41.510461441446168 $573 -22.204486823715115 $326 $580 forward 7 unknown #
point $-1 -41.510461441446168 -41.00091713956067 19.229025972792282 #
point $-1 -41.510461441446168 -41.00091713956067 13.290991301610777 #
edge $-1 $581 1 $581 0 $331 $-1 forward 7 unknown #
vertex $-1 $332 $582 #
ellipse-curve $-1 -37.64926651789996 -36.394236768740178 14.59001295454031 0 -0.86602541151947299 0.49999998660252726 1.5 0 0 1 I I #
point $-1 -36.14926651789996 -39.28675424286989 16.260008637201537 #
edge $-1 $583 1 $583 0 $335 $-1 forward 7 unknown #
vertex $-1 $336 $584 #
ellipse-curve $-1 -31.857474132580649 -36.394236768740178 14.59001295454031 0 -0.86602541151947299 0.49999998660252726 1.5 0 0 1 I I #
point $-1 -30.357474132580649 -39.28675424286989 16.260008637201537 #
edge $-1 $585 1 $585 0 $339 $-1 forward 7 unknown #
vertex $-1 $340 $586 #
ellipse-curve $-1 -26.065681747261337 -36.394236768740178 14.59001295454031 0 -0.86602541151947299 0.49999998660252726 1.5 0 0 1 I I #
point $-1 -24.565681747261337 -39.28675424286989 16.260008637201537 #
plane-surface $-1 0 0 19.229025972792282 0 0 1 1 0 0 forward_v I I I I #
coedge $-1 $491 $490 $483 $587 forward $344 $-1 #
coedge $-1 $483 $346 $348 $487 reversed $223 $-1 #
coedge $-1 $346 $482 $481 $587 reversed $223 $-1 #
coedge $-1 $354 $349 $346 $485 forward $355 $-1 #
edge $-1 $488 3.1175634772912488 $588 6.6853811790939233 $484 $589 forward 7 unknown #
coedge $-1 $348 $347 $491 $590 reversed $140 $-1 #
edge $-1 $591 -82.001834279121368 $488 -77.200861959494716 $482 $592 forward 7 unknown #
vertex $-1 $350 $593 #
straight-curve $-1 0.9557330743329544 37.433099437758003 19.229025972792279 1 0 0 I I #
coedge $-1 $481 $351 $354 $495 reversed $344 $-1 #
coedge $-1 $351 $481 $486 $590 forward $344 $-1 #
vertex $-1 $352 $594 #
straight-curve $-1 -8.5130568067688586 41.00091713956067 84.626380167771046 0 0 1 I I #
straight-curve $-1 -8.5130568067688586 -19.938321090433988 70.886486168453374 0 0.74314481823134659 -0.66913061440640931 I I #
edge $-1 $588 -12.335989104100676 $356 8.5130568067688586 $490 $595 forward 7 unknown #
point $-1 -8.5130568067688586 41.00091713956067 19.229025972792282 #
point $-1 -8.5130568067688586 37.433099437757996 19.229025972792279 #
edge $-1 $596 1 $596 0 $359 $-1 forward 7 unknown #
vertex $-1 $360 $597 #
ellipse-curve $-1 -4.3432476245949516 38.244178510537864 16.542350290951187 0 0.66913061440640931 0.74314481823134659 0.5 0 0 1 I I #
point $-1 -3.8432476245949516 39.217008288659358 17.622787193802324 #
edge $-1 $598 1 $598 0 $363 $-1 forward 7 unknown #
vertex $-1 $364 $599 #
ellipse-curve $-1 1.9114661486659088 38.244178510537864 16.542350290951187 0 0.66913061440640931 0.74314481823134659 0.5 0 0 1 I I #
point $-1 2.4114661486659088 39.217008288659358 17.622787193802324 #
edge $-1 $600 1 $600 0 $367 $-1 forward 7 unknown #
vertex $-1 $368 $601 #
ellipse-curve $-1 8.1661799219267692 38.244178510537864 16.542350290951187 0 0.66913061440640931 0.74314481823134659 0.5 0 0 1 I I #
point $-1 8.6661799219267692 39.217008288659358 17.622787193802324 #
loop $-1 $-1 $377 $371 #
plane-surface $-1 0 0 19.229025972792282 0 0 1 1 0 0 forward_v I I I I #
coedge $-1 $374 $519 $515 $602 reversed $252 $-1 #
edge $-1 $517 65.39735419497876 $520 68.609831752958712 $374 $603 forward 7 unknown #
edge $-1 $520 -82.001834279121368 $516 -77.200861959494716 $375 $604 forward 7 unknown #
coedge $-1 $522 $377 $512 $602 forward $510 $-1 #
vertex $-1 $378 $605 #
vertex $-1 $602 $606 #
straight-curve $-1 33.185035014970197 34.315535960466747 19.229025972792286 0 1 0 I I #
coedge $-1 $512 $380 $385 $525 forward $252 $-1 #
vertex $-1 $513 $607 #
straight-curve $-1 0.9557330743329544 41.00091713956067 16.016548414812338 -1 0 0 I I #
coedge $-1 $382 $515 $384 $524 forward $510 $-1 #
straight-curve $-1 0.9557330743329544 37.433099437758003 19.229025972792279 1 0 0 I I #
edge $-1 $608 -6.6853811790939233 $387 -3.1175634772912488 $522 $609 forward 7 unknown #
edge $-1 $386 -68.609831752958712 $608 -65.39735419497876 $519 $610 forward 7 unknown #
point $-1 12.335989104100676 41.00091713956067 16.016548414812334 #
point $-1 12.335989104100676 37.433099437757996 19.229025972792279 #
edge $-1 $611 1 $611 0 $389 $-1 forward 7 unknown #
vertex $-1 $390 $612 #
ellipse-curve $-1 16.505798286274569 38.244178510537864 16.542350290951187 0 0.66913061440640931 0.74314481823134659 0.5 0 0 1 I I #
point $-1 17.005798286274569 39.217008288659358 17.622787193802324 #
edge $-1 $613 1 $613 0 $393 $-1 forward 7 unknown #
vertex $-1 $394 $614 #
ellipse-curve $-1 22.760512059535429 38.244178510537864 16.542350290951187 0 0.66913061440640931 0.74314481823134659 0.5 0 0 1 I I #
point $-1 23.260512059535429 39.217008288659358 17.622787193802324 #
edge $-1 $615 1 $615 0 $397 $-1 forward 7 unknown #
vertex $-1 $398 $616 #
ellipse-curve $-1 29.01522583279629 38.244178510537864 16.542350290951187 0 0.66913061440640931 0.74314481823134659 0.5 0 0 1 I I #
point $-1 29.51522583279629 39.217008288659358 17.622787193802324 #
plane-surface $-1 66.182439649647506 0 0 -1 0 0 0 0 1 forward_v I I I I #
coedge $-1 $406 $404 $408 $545 reversed $281 $-1 #
edge $-1 $419 -19.229025972792282 $547 19.229025972792282 $418 $617 forward 7 unknown #
vertex $-1 $545 $618 #
straight-curve $-1 -66.182439649647506 -41.00091713956067 0 0 0 -1 I I #
edge $-1 $543 -41.00091713956067 $547 41.00091713956067 $541 $619 forward 7 unknown #
straight-curve $-1 0 -41.00091713956067 -19.229025972792282 -1 0 0 I I #
vertex $-1 $411 $620 #
straight-curve $-1 0 41.00091713956067 -19.229025972792282 1 0 0 I I #
point $-1 66.182439649647506 41.00091713956067 -19.229025972792282 #
point $-1 66.182439649647506 -41.00091713956067 -19.229025972792282 #
straight-curve $-1 -66.182439649647506 0 19.229025972792282 0 -1 0 I I #
point $-1 -66.182439649647506 41.00091713956067 19.229025972792282 #
point $-1 -66.182439649647506 -41.00091713956067 19.229025972792282 #
straight-curve $-1 66.182439649647506 -41.00091713956067 0 0 0 -1 I I #
straight-curve $-1 66.182439649647506 41.00091713956067 0 0 0 -1 I I #
plane-surface $-1 0 41.00091713956067 0 0 -1 0 0 0 -1 forward_v I I I I #
coedge $-1 $432 $431 $621 $622 forward $186 $-1 #
edge $-1 $435 41.510461441446168 $623 66.182439649647506 $434 $624 forward 7 unknown #
coedge $-1 $440 $439 $432 $560 reversed $441 $-1 #
edge $-1 $625 -66.182439649647506 $561 -41.510461441446168 $559 $626 forward 7 unknown #
vertex $-1 $447 $627 #
straight-curve $-1 -41.510461441446168 0 -19.229025972792282 0 -1 0 I I #
point $-1 -41.510461441446168 -41.00091713956067 -19.229025972792282 #
coedge $-1 $621 $437 $440 $567 forward $429 $-1 #
coedge $-1 $437 $621 $444 $569 reversed $429 $-1 #
straight-curve $-1 -66.182439649647506 0 -8.4648323692112477 0 1 0 I I #
edge $-1 $442 8.4648323692112477 $625 19.229025972792282 $440 $628 forward 7 unknown #
point $-1 -66.182439649647506 41.00091713956067 -8.4648323692112477 #
edge $-1 $445 8.4648323692112477 $623 19.229025972792282 $565 $629 forward 7 unknown #
point $-1 -66.182439649647506 -41.00091713956067 -8.4648323692112477 #
straight-curve $-1 -41.510461441446168 41.00091713956067 -6.9234645855008825 0 0 -1 I I #
edge $-1 $573 36.815215963168328 $576 40.243541756549895 $451 $630 forward 7 unknown #
vertex $-1 $455 $631 #
straight-curve $-1 -22.204486823715115 -41.00091713956067 39.73671458895172 0 0 1 I I #
edge $-1 $576 6.2757497574247942 $462 25.581724375155847 $461 $632 forward 7 unknown #
vertex $-1 $575 $633 #
straight-curve $-1 -22.204486823715115 -41.000917139560656 13.290991301610802 0 -0.49999998660252726 -0.86602541151947299 I I #
point $-1 -22.204486823715115 -41.00091713956067 13.290991301610777 #
point $-1 -41.510461441446168 -37.572591346179102 19.229025972792282 #
straight-curve $-1 0 -41.00091713956067 19.229025972792282 1 0 0 I I #
vertex $-1 $468 $634 #
point $-1 -36.14926651789996 -36.394236768740178 14.59001295454031 #
vertex $-1 $472 $635 #
point $-1 -30.357474132580649 -36.394236768740178 14.59001295454031 #
vertex $-1 $476 $636 #
point $-1 -24.565681747261337 -36.394236768740178 14.59001295454031 #
edge $-1 $588 65.39735419497876 $591 68.609831752958712 $481 $637 forward 7 unknown #
vertex $-1 $495 $638 #
straight-curve $-1 12.335989104100676 34.315535960466747 19.229025972792286 0 1 0 I I #
edge $-1 $591 -11.380256029767722 $492 9.468789881101813 $491 $639 forward 7 unknown #
vertex $-1 $590 $640 #
straight-curve $-1 12.335989104100676 -19.938321090433988 70.886486168453374 0 -0.74314481823134659 0.66913061440640931 I I #
point $-1 12.335989104100676 37.433099437757996 19.229025972792279 #
point $-1 -8.5130568067688586 41.00091713956067 16.016548414812334 #
straight-curve $-1 0 41.00091713956067 19.229025972792282 -1 0 0 I I #
vertex $-1 $498 $641 #
point $-1 -3.8432476245949516 38.244178510537864 16.542350290951187 #
vertex $-1 $502 $642 #
point $-1 2.4114661486659088 38.244178510537864 16.542350290951187 #
vertex $-1 $506 $643 #
point $-1 8.6661799219267692 38.244178510537864 16.542350290951187 #
edge $-1 $517 -33.185035014970197 $608 -12.335989104100676 $512 $644 forward 7 unknown #
straight-curve $-1 33.185035014970197 41.00091713956067 84.626380167771046 0 0 -1 I I #
straight-curve $-1 33.185035014970197 -19.938321090433988 70.886486168453374 0 -0.74314481823134659 0.66913061440640931 I I #
point $-1 33.185035014970197 37.433099437757996 19.229025972792279 #
point $-1 33.185035014970197 41.00091713956067 19.229025972792282 #
point $-1 33.185035014970197 41.00091713956067 16.016548414812334 #
vertex $-1 $525 $645 #
straight-curve $-1 12.335989104100676 34.315535960466747 19.229025972792286 0 -1 0 I I #
straight-curve $-1 12.335989104100676 41.00091713956067 84.626380167771046 0 0 1 I I #
vertex $-1 $528 $646 #
point $-1 17.005798286274569 38.244178510537864 16.542350290951187 #
vertex $-1 $532 $647 #
point $-1 23.260512059535429 38.244178510537864 16.542350290951187 #
vertex $-1 $536 $648 #
point $-1 29.51522583279629 38.244178510537864 16.542350290951187 #
straight-curve $-1 -66.182439649647506 41.00091713956067 0 0 0 -1 I I #
point $-1 -66.182439649647506 -41.00091713956067 -19.229025972792282 #
straight-curve $-1 -66.182439649647506 0 -19.229025972792282 0 1 0 I I #
point $-1 -66.182439649647506 41.00091713956067 -19.229025972792282 #
coedge $-1 $565 $564 $557 $622 reversed $429 $-1 #
edge $-1 $623 -41.00091713956067 $625 41.00091713956067 $621 $649 forward 7 unknown #
vertex $-1 $622 $650 #
straight-curve $-1 0 -41.00091713956067 -19.229025972792282 -1 0 0 I I #
vertex $-1 $560 $651 #
straight-curve $-1 0 41.00091713956067 -19.229025972792282 1 0 0 I I #
point $-1 -41.510461441446168 41.00091713956067 -19.229025972792282 #
straight-curve $-1 -66.182439649647506 41.00091713956067 0 0 0 -1 I I #
straight-curve $-1 -66.182439649647506 -41.00091713956067 0 0 0 -1 I I #
straight-curve $-1 -22.204486823715115 -77.816133102728998 19.229025972792282 0 1 0 I I #
point $-1 -22.204486823715115 -41.00091713956067 19.229025972792282 #
straight-curve $-1 -15.928737066290321 -37.572591346179102 19.229025972792282 -1 0 0 I I #
point $-1 -22.204486823715115 -37.572591346179102 19.229025972792282 #
point $-1 -37.64926651789996 -35.095198651460969 13.840012974636519 #
point $-1 -31.857474132580649 -35.095198651460969 13.840012974636519 #
point $-1 -26.065681747261337 -35.095198651460969 13.840012974636519 #
straight-curve $-1 12.335989104100676 41.00091713956067 84.626380167771046 0 0 -1 I I #
point $-1 12.335989104100676 41.00091713956067 19.229025972792282 #
straight-curve $-1 0.9557330743329544 41.00091713956067 16.016548414812338 -1 0 0 I I #
point $-1 12.335989104100676 41.00091713956067 16.016548414812334 #
point $-1 -4.3432476245949516 37.909613203334658 16.170777881835516 #
point $-1 1.9114661486659088 37.909613203334658 16.170777881835516 #
point $-1 8.1661799219267692 37.909613203334658 16.170777881835516 #
straight-curve $-1 0 41.00091713956067 19.229025972792282 -1 0 0 I I #
point $-1 12.335989104100676 41.00091713956067 19.229025972792282 #
point $-1 16.505798286274569 37.909613203334658 16.170777881835516 #
point $-1 22.760512059535429 37.909613203334658 16.170777881835516 #
point $-1 29.01522583279629 37.909613203334658 16.170777881835516 #
straight-curve $-1 -66.182439649647506 0 -19.229025972792282 0 1 0 I I #
point $-1 -66.182439649647506 -41.00091713956067 -19.229025972792282 #
point $-1 -66.182439649647506 41.00091713956067 -19.229025972792282 #
End-of-ACIS-data 