500 0 4 0           
7 Unknown 11 ACIS 5.0 NT 24 Thu Mar 25 22:24:20 1999 
-1 9.9999999999999995e-007 1e-010 
body $-1 $4 $-1 $5 #
body $-1 $6 $-1 $7 #
body $-1 $8 $-1 $9 #
body $-1 $10 $-1 $11 #
lump $-1 $-1 $12 $0 #
transform $-1 1 0 0 0 1 0 0 0 1 61.785332804345835 40.353457100513467 17.352590001628617 1 rotate no_reflect no_shear #
lump $-1 $-1 $13 $1 #
transform $-1 1 0 0 0 1 0 0 0 1 61.785332804345835 40.353457100513467 17.352590001628617 1 rotate no_reflect no_shear #
lump $-1 $-1 $14 $2 #
transform $-1 1 0 0 0 1 0 0 0 1 61.785332804345835 40.353457100513467 17.352590001628617 1 rotate no_reflect no_shear #
lump $-1 $-1 $15 $3 #
transform $-1 1 0 0 0 1 0 0 0 1 61.785332804345835 40.353457100513467 17.352590001628617 1 rotate no_reflect no_shear #
shell $-1 $-1 $-1 $16 $-1 $4 #
shell $-1 $-1 $-1 $17 $-1 $6 #
shell $-1 $-1 $-1 $18 $-1 $8 #
shell $-1 $-1 $-1 $19 $-1 $10 #
face $-1 $20 $21 $12 $-1 $22 reversed single #
face $-1 $23 $24 $13 $-1 $25 forward single #
face $-1 $26 $27 $14 $-1 $28 reversed single #
face $-1 $29 $30 $15 $-1 $31 forward single #
face $-1 $32 $33 $12 $-1 $34 forward single #
loop $-1 $-1 $35 $16 #
plane-surface $-1 0 -40.353457100513467 0 0 1 0 0 0 1 forward_v I I I I #
face $-1 $36 $37 $13 $-1 $38 reversed single #
loop $-1 $-1 $39 $17 #
plane-surface $-1 0 -40.353457100513467 0 0 1 0 0 0 1 forward_v I I I I #
face $-1 $40 $41 $14 $-1 $42 reversed single #
loop $-1 $-1 $43 $18 #
plane-surface $-1 37.464095884193135 33.273410487889784 174.33537423971902 0 1 0 0.6018150307709319 0 0.79863550430605224 forward_v I I I I #
face $-1 $44 $45 $15 $-1 $46 forward single #
loop $-1 $47 $48 $19 #
cone-surface $-1 50.234851713893015 36.813433794201629 8.1402967296664119 -0.6018150307709319 0 -0.79863550430605224 1.1979532564590785 0 -0.90272254615639791 1 I I 0 1 1.5 forward I I I I #
face $-1 $49 $50 $12 $-1 $51 reversed single #
loop $-1 $-1 $52 $20 #
plane-surface $-1 0 0 17.352590001628617 0 0 1 1 0 0 forward_v I I I I #
coedge $-1 $53 $54 $55 $56 reversed $21 $-1 #
face $-1 $57 $58 $13 $-1 $59 reversed single #
loop $-1 $-1 $60 $23 #
plane-surface $-1 0 0 -17.352590001628617 0 0 1 1 0 0 forward_v I I I I #
coedge $-1 $61 $62 $63 $64 forward $24 $-1 #
face $-1 $65 $66 $14 $-1 $67 reversed single #
loop $-1 $-1 $68 $26 #
plane-surface $-1 -36.902588041486176 36.813433794201629 75.647453393887005 0.6018150307709319 0 0.79863550430605224 0.79863550430605224 0 -0.6018150307709319 forward_v I I I I #
coedge $-1 $69 $70 $71 $72 reversed $27 $-1 #
face $-1 $-1 $73 $15 $-1 $74 forward single #
loop $-1 $75 $76 $29 #
cone-surface $-1 48.897022245140072 36.813433794201629 6.3649370961851339 -0.6018150307709319 0 -0.79863550430605224 0.59897662822953923 0 -0.45136127307819895 1 I I -0.70710678118654757 0.70710678118654757 0.75 forward I I I I #
loop $-1 $-1 $77 $19 #
coedge $-1 $48 $48 $78 $79 reversed $30 $-1 #
face $-1 $80 $81 $12 $-1 $82 reversed single #
loop $-1 $-1 $83 $32 #
plane-surface $-1 0 0 -17.352590001628617 0 0 1 1 0 0 forward_v I I I I #
coedge $-1 $84 $85 $86 $87 forward $33 $-1 #
coedge $-1 $88 $35 $89 $90 reversed $21 $-1 #
coedge $-1 $35 $88 $91 $92 forward $21 $-1 #
coedge $-1 $93 $83 $35 $56 forward $50 $-1 #
edge $-1 $94 -61.785332804345835 $95 61.785332804345835 $35 $96 forward 7 unknown #
face $-1 $97 $98 $13 $-1 $99 reversed single #
loop $-1 $-1 $100 $36 #
plane-surface $-1 -39.742720011369059 -62.672381979661324 0 0 1 0 0 0 1 forward_v I I I I #
coedge $-1 $101 $102 $62 $103 forward $37 $-1 #
coedge $-1 $104 $39 $105 $106 reversed $24 $-1 #
coedge $-1 $39 $104 $60 $103 reversed $24 $-1 #
coedge $-1 $107 $108 $39 $64 reversed $98 $-1 #
edge $-1 $109 -17.352590001628617 $110 17.352590001628617 $63 $111 forward 7 unknown #
face $-1 $112 $113 $14 $-1 $114 forward single #
loop $-1 $-1 $115 $40 #
plane-surface $-1 0 40.353457100513467 0 0 -1 0 0 0 -1 forward_v I I I I #
coedge $-1 $116 $117 $118 $119 reversed $41 $-1 #
coedge $-1 $70 $43 $120 $121 reversed $27 $-1 #
coedge $-1 $43 $69 $116 $122 reversed $27 $-1 #
coedge $-1 $118 $123 $43 $72 forward $124 $-1 #
edge $-1 $125 69.815097118230895 $126 85.886917651651814 $71 $127 forward 7 unknown #
loop $-1 $-1 $78 $44 #
plane-surface $-1 -36.902588041486176 36.813433794201629 75.647453393887005 0.6018150307709319 0 0.79863550430605224 0.79863550430605224 0 -0.6018150307709319 forward_v I I I I #
loop $-1 $-1 $128 $29 #
coedge $-1 $76 $76 $77 $129 reversed $45 $-1 #
coedge $-1 $77 $77 $76 $129 forward $47 $-1 #
coedge $-1 $78 $78 $48 $79 forward $73 $-1 #
edge $-1 $130 0 $130 6.2831853071796004 $78 $131 forward 7 unknown #
face $-1 $132 $133 $12 $-1 $134 reversed single #
loop $-1 $-1 $135 $49 #
plane-surface $-1 -61.785332804345835 0 0 1 0 0 0 0 -1 forward_v I I I I #
coedge $-1 $55 $136 $137 $138 forward $50 $-1 #
coedge $-1 $139 $52 $140 $141 forward $33 $-1 #
coedge $-1 $52 $139 $88 $142 forward $33 $-1 #
coedge $-1 $89 $143 $52 $87 reversed $144 $-1 #
edge $-1 $145 -40.353457100513467 $146 40.353457100513467 $86 $147 forward 7 unknown #
coedge $-1 $54 $53 $85 $142 reversed $21 $-1 #
coedge $-1 $137 $86 $53 $90 forward $144 $-1 #
edge $-1 $145 -17.352590001628617 $94 17.352590001628617 $89 $148 forward 7 unknown #
coedge $-1 $149 $150 $54 $92 reversed $81 $-1 #
edge $-1 $151 -17.352590001628617 $95 17.352590001628617 $91 $152 forward 7 unknown #
coedge $-1 $136 $55 $150 $153 forward $50 $-1 #
vertex $-1 $90 $154 #
vertex $-1 $153 $155 #
straight-curve $-1 0 -40.353457100513467 -17.352590001628617 -1 0 0 I I #
face $-1 $156 $157 $13 $-1 $158 reversed single #
loop $-1 $-1 $63 $57 #
plane-surface $-1 -43.284042213581365 -51.512919540087395 0 1 0 0 0 0 -1 forward_v I I I I #
coedge $-1 $159 $160 $161 $162 forward $58 $-1 #
coedge $-1 $163 $60 $164 $165 forward $37 $-1 #
coedge $-1 $60 $163 $107 $166 forward $37 $-1 #
edge $-1 $109 -43.284042213581365 $167 -36.201397809156752 $60 $168 forward 7 unknown #
coedge $-1 $62 $61 $169 $170 forward $24 $-1 #
coedge $-1 $171 $172 $61 $106 forward $173 $-1 #
edge $-1 $174 36.201397809156752 $110 43.284042213581365 $105 $175 forward 7 unknown #
coedge $-1 $161 $63 $102 $166 reversed $98 $-1 #
coedge $-1 $63 $161 $171 $176 reversed $98 $-1 #
vertex $-1 $103 $177 #
vertex $-1 $176 $178 #
straight-curve $-1 -43.284042213581365 -40.353457100513467 0 0 0 1 I I #
face $-1 $-1 $124 $14 $-1 $179 reversed single #
loop $-1 $-1 $180 $65 #
plane-surface $-1 0 0 17.352590001628617 0 0 1 1 0 0 forward_v I I I I #
coedge $-1 $181 $182 $117 $183 forward $66 $-1 #
coedge $-1 $184 $68 $70 $122 forward $41 $-1 #
coedge $-1 $68 $184 $115 $183 reversed $41 $-1 #
coedge $-1 $185 $71 $68 $119 forward $124 $-1 #
edge $-1 $126 14.866693590788969 $186 21.946740203412652 $118 $187 forward 7 unknown #
coedge $-1 $188 $180 $69 $121 forward $113 $-1 #
edge $-1 $189 21.725259072693088 $125 43.053284862249271 $120 $190 forward 7 unknown #
edge $-1 $126 -123.57066560869168 $189 -96.865083807531377 $70 $191 forward 7 unknown #
coedge $-1 $71 $185 $188 $192 reversed $124 $-1 #
loop $-1 $-1 $118 $112 #
vertex $-1 $192 $193 #
vertex $-1 $72 $194 #
straight-curve $-1 61.785332804345835 33.273410487889784 87.167687119859508 0 0 -1 I I #
coedge $-1 $128 $128 $-1 $195 reversed $75 $-1 #
edge $-1 $196 0 $196 6.2831853071796004 $76 $197 forward 7 unknown #
vertex $-1 $79 $198 #
ellipse-curve $-1 51.12131990956776 36.813433794201629 9.3166797349181465 0.6018150307709319 0 0.79863550430605224 1.1979532564590785 0 -0.90272254615639791 1 I I #
face $-1 $-1 $144 $12 $-1 $199 reversed single #
loop $-1 $-1 $200 $80 #
plane-surface $-1 0 40.353457100513467 0 0 -1 0 0 0 -1 forward_v I I I I #
coedge $-1 $150 $149 $201 $202 forward $81 $-1 #
coedge $-1 $83 $93 $203 $204 forward $50 $-1 #
coedge $-1 $143 $89 $83 $138 reversed $144 $-1 #
edge $-1 $205 -40.353457100513467 $94 40.353457100513467 $137 $206 forward 7 unknown #
coedge $-1 $85 $84 $149 $207 forward $33 $-1 #
coedge $-1 $200 $201 $84 $141 reversed $133 $-1 #
edge $-1 $146 -61.785332804345835 $208 61.785332804345835 $140 $209 forward 7 unknown #
edge $-1 $151 -61.785332804345835 $145 61.785332804345835 $88 $210 forward 7 unknown #
coedge $-1 $86 $137 $200 $211 reversed $144 $-1 #
loop $-1 $-1 $89 $132 #
vertex $-1 $87 $212 #
vertex $-1 $87 $213 #
straight-curve $-1 61.785332804345835 0 17.352590001628617 0 1 0 I I #
straight-curve $-1 61.785332804345835 -40.353457100513467 0 0 0 -1 I I #
coedge $-1 $135 $91 $139 $207 reversed $81 $-1 #
coedge $-1 $91 $135 $93 $153 reversed $81 $-1 #
vertex $-1 $207 $214 #
straight-curve $-1 -61.785332804345835 -40.353457100513467 0 0 0 -1 I I #
edge $-1 $95 -40.353457100513467 $215 40.353457100513467 $150 $216 forward 7 unknown #
point $-1 61.785332804345835 -40.353457100513467 -17.352590001628617 #
point $-1 -61.785332804345835 -40.353457100513467 -17.352590001628617 #
face $-1 $-1 $173 $13 $-1 $217 forward single #
loop $-1 $-1 $218 $97 #
plane-surface $-1 -36.201397809156752 -51.512919540087395 0 -1 0 0 0 0 1 forward_v I I I I #
coedge $-1 $219 $100 $163 $220 reversed $58 $-1 #
coedge $-1 $100 $219 $221 $222 reversed $58 $-1 #
coedge $-1 $108 $107 $100 $162 reversed $98 $-1 #
edge $-1 $223 -17.352590001628617 $224 17.352590001628617 $161 $225 forward 7 unknown #
coedge $-1 $102 $101 $159 $220 forward $37 $-1 #
coedge $-1 $169 $218 $101 $165 reversed $157 $-1 #
edge $-1 $167 -11.159462439573929 $226 11.159462439573929 $164 $227 forward 7 unknown #
edge $-1 $224 -11.159462439573929 $109 11.159462439573929 $107 $228 forward 7 unknown #
vertex $-1 $165 $229 #
straight-curve $-1 0 -40.353457100513467 -17.352590001628617 1 0 0 I I #
coedge $-1 $230 $164 $104 $170 reversed $157 $-1 #
edge $-1 $174 -17.352590001628617 $167 17.352590001628617 $169 $231 forward 7 unknown #
coedge $-1 $221 $105 $108 $176 forward $173 $-1 #
coedge $-1 $105 $221 $230 $232 forward $173 $-1 #
loop $-1 $-1 $105 $156 #
vertex $-1 $106 $233 #
straight-curve $-1 0 -40.353457100513467 17.352590001628617 -1 0 0 I I #
edge $-1 $110 -11.159462439573929 $223 11.159462439573929 $108 $234 forward 7 unknown #
point $-1 -43.284042213581365 -40.353457100513467 -17.352590001628617 #
point $-1 -43.284042213581365 -40.353457100513467 17.352590001628617 #
plane-surface $-1 61.785332804345835 0 0 -1 0 0 0 0 1 forward_v I I I I #
coedge $-1 $120 $235 $184 $236 forward $113 $-1 #
coedge $-1 $182 $115 $235 $237 reversed $66 $-1 #
coedge $-1 $115 $181 $185 $238 forward $66 $-1 #
edge $-1 $186 -86.0719198573439 $239 -59.366338056183608 $115 $240 forward 7 unknown #
coedge $-1 $117 $116 $180 $236 reversed $41 $-1 #
coedge $-1 $123 $118 $182 $238 reversed $124 $-1 #
vertex $-1 $119 $241 #
straight-curve $-1 61.785332804345828 18.406716897100814 1.2807694682077013 0 1 0 I I #
coedge $-1 $235 $120 $123 $192 forward $113 $-1 #
vertex $-1 $121 $242 #
straight-curve $-1 18.732047942096568 33.273410487889784 17.352590001628613 1 0 0 I I #
straight-curve $-1 -36.902588041486176 33.273410487889784 75.647453393887005 -0.79863550430605224 0 0.6018150307709319 I I #
edge $-1 $125 33.273410487889784 $243 40.353457100513467 $123 $244 forward 7 unknown #
point $-1 61.785332804345835 33.273410487889784 17.352590001628617 #
point $-1 61.785332804345835 33.273410487889784 1.2807694682076942 #
edge $-1 $245 1 $245 0 $128 $-1 forward 7 unknown #
vertex $-1 $129 $246 #
ellipse-curve $-1 49.34838351821827 36.813433794201629 6.9639137244146729 0.6018150307709319 0 0.79863550430605224 1.1979532564590785 0 -0.90272254615639791 1 I I #
point $-1 52.319273166026839 36.813433794201629 8.4139571887617546 #
plane-surface $-1 61.785332804345835 0 0 -1 0 0 0 0 1 forward_v I I I I #
coedge $-1 $203 $140 $143 $211 forward $133 $-1 #
coedge $-1 $140 $203 $135 $202 reversed $133 $-1 #
edge $-1 $208 -17.352590001628617 $215 17.352590001628617 $201 $247 forward 7 unknown #
coedge $-1 $201 $200 $136 $204 reversed $133 $-1 #
edge $-1 $215 -61.785332804345835 $205 61.785332804345835 $203 $248 forward 7 unknown #
vertex $-1 $138 $249 #
straight-curve $-1 61.785332804345835 0 -17.352590001628617 0 -1 0 I I #
edge $-1 $208 -40.353457100513467 $151 40.353457100513467 $149 $250 forward 7 unknown #
vertex $-1 $141 $251 #
straight-curve $-1 0 40.353457100513467 17.352590001628617 -1 0 0 I I #
straight-curve $-1 0 -40.353457100513467 17.352590001628617 1 0 0 I I #
edge $-1 $146 -17.352590001628617 $205 17.352590001628617 $143 $252 forward 7 unknown #
point $-1 61.785332804345835 -40.353457100513467 17.352590001628617 #
point $-1 61.785332804345835 40.353457100513467 17.352590001628617 #
point $-1 -61.785332804345835 -40.353457100513467 17.352590001628617 #
vertex $-1 $204 $253 #
straight-curve $-1 -61.785332804345835 0 -17.352590001628617 0 1 0 I I #
plane-surface $-1 0 0 17.352590001628617 0 0 1 1 0 0 forward_v I I I I #
coedge $-1 $164 $230 $219 $254 forward $157 $-1 #
coedge $-1 $160 $159 $218 $254 reversed $58 $-1 #
edge $-1 $226 -3.5413222022123065 $224 3.5413222022123065 $159 $255 forward 7 unknown #
coedge $-1 $172 $171 $160 $222 forward $173 $-1 #
edge $-1 $223 -3.5413222022123065 $256 3.5413222022123065 $160 $257 forward 7 unknown #
vertex $-1 $176 $258 #
vertex $-1 $166 $259 #
straight-curve $-1 -43.284042213581365 -62.672381979661324 0 0 0 -1 I I #
vertex $-1 $254 $260 #
straight-curve $-1 -36.201397809156752 -51.512919540087395 -17.352590001628617 0 -1 0 I I #
straight-curve $-1 -43.284042213581365 -51.512919540087395 -17.352590001628617 0 1 0 I I #
point $-1 -36.201397809156752 -40.353457100513467 -17.352590001628617 #
coedge $-1 $218 $169 $172 $232 reversed $157 $-1 #
straight-curve $-1 -36.201397809156752 -40.353457100513467 0 0 0 -1 I I #
edge $-1 $256 -11.159462439573929 $174 11.159462439573929 $230 $261 forward 7 unknown #
point $-1 -36.201397809156752 -40.353457100513467 17.352590001628617 #
straight-curve $-1 -43.284042213581365 -51.512919540087395 17.352590001628617 0 -1 0 I I #
coedge $-1 $180 $188 $181 $237 forward $113 $-1 #
edge $-1 $239 -21.946740203412659 $189 -14.866693590788969 $180 $262 forward 7 unknown #
edge $-1 $243 -61.785332804345835 $239 -40.457307014789656 $181 $263 forward 7 unknown #
edge $-1 $243 -17.352590001628617 $186 -1.2807694682077024 $185 $264 forward 7 unknown #
vertex $-1 $236 $265 #
straight-curve $-1 -6.9547583175141128 40.353457100513467 53.080144565668299 -0.79863550430605224 0 0.6018150307709319 I I #
point $-1 61.785332804345835 40.353457100513467 1.2807694682077024 #
point $-1 40.457307014789656 33.273410487889784 17.352590001628613 #
vertex $-1 $192 $266 #
straight-curve $-1 61.785332804345835 0 17.352590001628617 0 1 0 I I #
vertex $-1 $195 $267 #
point $-1 50.54633677467735 36.813433794201629 6.0611911782582748 #
straight-curve $-1 -61.785332804345835 40.353457100513467 0 0 0 -1 I I #
straight-curve $-1 0 40.353457100513467 -17.352590001628617 1 0 0 I I #
point $-1 61.785332804345835 40.353457100513467 -17.352590001628617 #
straight-curve $-1 -61.785332804345835 0 17.352590001628617 0 -1 0 I I #
point $-1 -61.785332804345835 40.353457100513467 17.352590001628617 #
straight-curve $-1 61.785332804345835 40.353457100513467 0 0 0 -1 I I #
point $-1 -61.785332804345835 40.353457100513467 -17.352590001628617 #
edge $-1 $256 -17.352590001628617 $226 17.352590001628617 $218 $268 forward 7 unknown #
straight-curve $-1 -39.742720011369059 -62.672381979661324 -17.352590001628617 -1 0 0 I I #
vertex $-1 $232 $269 #
straight-curve $-1 -39.742720011369059 -62.672381979661324 17.352590001628617 1 0 0 I I #
point $-1 -43.284042213581365 -62.672381979661324 17.352590001628617 #
point $-1 -43.284042213581365 -62.672381979661324 -17.352590001628617 #
point $-1 -36.201397809156752 -62.672381979661324 -17.352590001628617 #
straight-curve $-1 -36.201397809156752 -51.512919540087395 17.352590001628617 0 1 0 I I #
straight-curve $-1 40.45730701478967 18.406716897100814 17.352590001628613 0 -1 0 I I #
straight-curve $-1 0 40.353457100513467 17.352590001628617 -1 0 0 I I #
straight-curve $-1 61.785332804345835 40.353457100513467 0 0 0 -1 I I #
point $-1 40.457307014789656 40.353457100513474 17.352590001628613 #
point $-1 61.785332804345835 40.353457100513467 17.352590001628617 #
point $-1 48.445660972061873 36.813433794201629 5.7659604679555949 #
straight-curve $-1 -36.201397809156752 -62.672381979661324 0 0 0 -1 I I #
point $-1 -36.201397809156752 -62.672381979661324 17.352590001628617 #
End-of-ACIS-data 