500 0 8 0           
7 Unknown 11 ACIS 5.0 NT 24 Fri Mar 26 20:24:17 1999 
-1 9.9999999999999995e-007 1e-010 
body $-1 $8 $-1 $9 #
body $-1 $10 $-1 $11 #
body $-1 $12 $-1 $13 #
body $-1 $14 $-1 $15 #
body $-1 $16 $-1 $17 #
body $-1 $18 $-1 $19 #
body $-1 $20 $-1 $21 #
body $-1 $22 $-1 $23 #
lump $-1 $-1 $24 $0 #
transform $-1 1 0 0 0 1 0 0 0 1 49.823297830133974 29.035181780008553 9.9936424949831988 1 rotate no_reflect no_shear #
lump $-1 $-1 $25 $1 #
transform $-1 1 0 0 0 1 0 0 0 1 49.823297830133974 29.035181780008553 9.9936424949831988 1 rotate no_reflect no_shear #
lump $-1 $-1 $26 $2 #
transform $-1 1 0 0 0 1 0 0 0 1 49.823297830133974 29.035181780008553 9.9936424949831988 1 rotate no_reflect no_shear #
lump $-1 $-1 $27 $3 #
transform $-1 1 0 0 0 1 0 0 0 1 49.823297830133974 29.035181780008553 9.9936424949831988 1 rotate no_reflect no_shear #
lump $-1 $-1 $28 $4 #
transform $-1 1 0 0 0 1 0 0 0 1 49.823297830133974 29.035181780008553 9.9936424949831988 1 rotate no_reflect no_shear #
lump $-1 $-1 $29 $5 #
transform $-1 1 0 0 0 1 0 0 0 1 49.823297830133974 29.035181780008553 9.9936424949831988 1 rotate no_reflect no_shear #
lump $-1 $-1 $30 $6 #
transform $-1 1 0 0 0 1 0 0 0 1 49.823297830133974 29.035181780008553 9.9936424949831988 1 rotate no_reflect no_shear #
lump $-1 $-1 $31 $7 #
transform $-1 1 0 0 0 1 0 0 0 1 49.823297830133974 29.035181780008553 9.9936424949831988 1 rotate no_reflect no_shear #
shell $-1 $-1 $-1 $32 $-1 $8 #
shell $-1 $-1 $-1 $33 $-1 $10 #
shell $-1 $-1 $-1 $34 $-1 $12 #
shell $-1 $-1 $-1 $35 $-1 $14 #
shell $-1 $-1 $-1 $36 $-1 $16 #
shell $-1 $-1 $-1 $37 $-1 $18 #
shell $-1 $-1 $-1 $38 $-1 $20 #
shell $-1 $-1 $-1 $39 $-1 $22 #
face $-1 $40 $41 $24 $-1 $42 forward single #
face $-1 $43 $44 $25 $-1 $45 forward single #
face $-1 $46 $47 $26 $-1 $48 reversed single #
face $-1 $49 $50 $27 $-1 $51 forward single #
face $-1 $52 $53 $28 $-1 $54 forward single #
face $-1 $55 $56 $29 $-1 $57 reversed single #
face $-1 $58 $59 $30 $-1 $60 forward single #
face $-1 $61 $62 $31 $-1 $63 forward single #
face $-1 $64 $65 $24 $-1 $66 reversed single #
loop $-1 $-1 $67 $32 #
plane-surface $-1 0 0 9.9936424949831988 0 0 1 1 0 0 forward_v I I I I #
face $-1 $68 $69 $25 $-1 $70 reversed single #
loop $-1 $-1 $71 $33 #
plane-surface $-1 0 -29.035181780008553 0 0 1 0 0 0 1 forward_v I I I I #
face $-1 $72 $73 $26 $-1 $74 reversed single #
loop $-1 $-1 $75 $34 #
plane-surface $-1 -131.44901118218931 -19.748880681772537 60.5496304151307 0 1 0 -0.81915205242281985 0 0.57357642473473569 forward_v I I I I #
face $-1 $76 $77 $27 $-1 $78 forward single #
loop $-1 $79 $80 $35 #
cone-surface $-1 -46.657954530778206 -16.195202908719899 6.0954717514308197 0.81915205242281985 0 -0.57357642473473569 0.57357642473473569 0 0.81915205242281985 1 I I 0 1 1 forward I I I I #
face $-1 $81 $82 $28 $-1 $83 forward single #
loop $-1 $84 $85 $36 #
cone-surface $-1 -46.657954530778206 -10.864686249140945 6.0954717514308197 0.81915205242281985 0 -0.57357642473473569 0.57357642473473569 0 0.81915205242281985 1 I I 0 1 1 forward I I I I #
face $-1 $86 $87 $29 $-1 $88 reversed single #
loop $-1 $-1 $89 $37 #
plane-surface $-1 62.105423483349973 14.13466468833867 146.79969618731735 0 -1 0 -0.7660444514056185 0 -0.64278759981090561 forward_v I I I I #
face $-1 $90 $91 $30 $-1 $92 forward single #
loop $-1 $93 $94 $38 #
cone-surface $-1 47.029287950917627 8.0211538400730298 7.1196165786088059 -0.7660444514056185 0 -0.64278759981090561 0.64278759981090561 0 -0.7660444514056185 1 I I 0 1 1 forward I I I I #
face $-1 $95 $96 $31 $-1 $97 forward single #
loop $-1 $98 $99 $39 #
cone-surface $-1 47.029287950917627 11.689260349032413 7.1196165786088059 -0.7660444514056185 0 -0.64278759981090561 0.64278759981090561 0 -0.7660444514056185 1 I I 0 1 1 forward I I I I #
face $-1 $100 $101 $24 $-1 $102 reversed single #
loop $-1 $-1 $103 $40 #
plane-surface $-1 0 0 -9.9936424949831988 0 0 1 1 0 0 forward_v I I I I #
coedge $-1 $104 $105 $106 $107 forward $41 $-1 #
face $-1 $108 $109 $25 $-1 $110 reversed single #
loop $-1 $-1 $111 $43 #
plane-surface $-1 0 0 -9.9936424949831988 0 0 1 1 0 0 forward_v I I I I #
coedge $-1 $112 $113 $114 $115 forward $44 $-1 #
face $-1 $116 $117 $26 $-1 $118 reversed single #
loop $-1 $-1 $119 $46 #
plane-surface $-1 -49.823297830133967 -13.529944578930422 3.394692339326383 -0.81915205242281985 0 0.57357642473473569 0.57357642473473569 0 0.81915205242281985 forward_v I I I I #
coedge $-1 $120 $121 $122 $123 reversed $47 $-1 #
face $-1 $-1 $124 $27 $-1 $125 forward single #
loop $-1 $126 $127 $49 #
cone-surface $-1 -45.393352457111575 -16.195202908719899 5.2099878733394789 0.81915205242281985 0 -0.57357642473473569 0.28678821236736785 0 0.40957602621140993 1 I I -0.70710678118654746 0.70710678118654746 0.5 forward I I I I #
loop $-1 $-1 $128 $35 #
coedge $-1 $80 $80 $129 $130 reversed $50 $-1 #
face $-1 $-1 $131 $28 $-1 $132 forward single #
loop $-1 $133 $134 $52 #
cone-surface $-1 -45.393352457111575 -10.864686249140945 5.2099878733394789 0.81915205242281985 0 -0.57357642473473569 0.28678821236736785 0 0.40957602621140993 1 I I -0.70710678118654746 0.70710678118654746 0.5 forward I I I I #
loop $-1 $-1 $135 $36 #
coedge $-1 $85 $85 $136 $137 reversed $53 $-1 #
face $-1 $138 $139 $29 $-1 $140 reversed single #
loop $-1 $-1 $141 $55 #
plane-surface $-1 -14.228298223657468 9.8552070945527213 82.748100133525909 0.7660444514056185 0 0.64278759981090561 0.64278759981090561 0 -0.7660444514056185 forward_v I I I I #
coedge $-1 $142 $143 $144 $145 reversed $56 $-1 #
face $-1 $-1 $146 $30 $-1 $147 forward single #
loop $-1 $148 $149 $58 #
cone-surface $-1 45.353935386550141 8.0211538400730298 5.7138288965613455 -0.7660444514056185 0 -0.64278759981090561 0.3213937999054528 0 -0.38302222570280925 1 I I -0.70710678118654746 0.70710678118654746 0.5 forward I I I I #
loop $-1 $-1 $150 $38 #
coedge $-1 $94 $94 $151 $152 reversed $59 $-1 #
face $-1 $-1 $153 $31 $-1 $154 forward single #
loop $-1 $155 $156 $61 #
cone-surface $-1 45.353935386550141 11.689260349032413 5.7138288965613455 -0.7660444514056185 0 -0.64278759981090561 0.3213937999054528 0 -0.38302222570280925 1 I I -0.70710678118654746 0.70710678118654746 0.5 forward I I I I #
loop $-1 $-1 $157 $39 #
coedge $-1 $99 $99 $158 $159 reversed $62 $-1 #
face $-1 $160 $161 $24 $-1 $162 reversed single #
loop $-1 $-1 $163 $64 #
plane-surface $-1 0 -29.035181780008553 0 0 1 0 0 0 1 forward_v I I I I #
coedge $-1 $164 $165 $166 $167 forward $65 $-1 #
coedge $-1 $168 $67 $169 $170 forward $41 $-1 #
coedge $-1 $67 $168 $171 $172 forward $41 $-1 #
coedge $-1 $173 $174 $67 $107 reversed $175 $-1 #
edge $-1 $176 -29.035181780008553 $177 29.035181780008553 $106 $178 forward 7 unknown #
face $-1 $179 $180 $25 $-1 $181 forward single #
loop $-1 $-1 $182 $68 #
plane-surface $-1 49.823297830133974 0 0 -1 0 0 0 0 1 forward_v I I I I #
coedge $-1 $183 $184 $185 $186 forward $69 $-1 #
coedge $-1 $185 $71 $182 $187 reversed $44 $-1 #
coedge $-1 $71 $185 $188 $189 reversed $44 $-1 #
coedge $-1 $190 $191 $71 $115 reversed $180 $-1 #
edge $-1 $192 -49.823297830133974 $193 49.823297830133974 $114 $194 forward 7 unknown #
face $-1 $195 $196 $26 $-1 $197 forward single #
loop $-1 $-1 $198 $72 #
plane-surface $-1 -131.44901118218931 -7.3110084760883076 60.5496304151307 0 -1 0 0.81915205242281985 0 -0.57357642473473569 forward_v I I I I #
coedge $-1 $199 $200 $201 $202 reversed $73 $-1 #
coedge $-1 $121 $75 $203 $204 reversed $47 $-1 #
coedge $-1 $75 $120 $199 $205 reversed $47 $-1 #
coedge $-1 $201 $206 $75 $123 forward $196 $-1 #
edge $-1 $207 15.901207760960681 $208 20.52184226476178 $122 $209 forward 7 unknown #
loop $-1 $-1 $129 $76 #
plane-surface $-1 -49.823297830133967 -13.529944578930422 3.394692339326383 -0.81915205242281985 0 0.57357642473473569 0.57357642473473569 0 0.81915205242281985 forward_v I I I I #
loop $-1 $-1 $210 $49 #
coedge $-1 $127 $127 $128 $211 reversed $77 $-1 #
coedge $-1 $128 $128 $127 $211 forward $79 $-1 #
coedge $-1 $129 $129 $80 $130 forward $124 $-1 #
edge $-1 $212 0 $212 6.2831853071796004 $129 $213 forward 7 unknown #
loop $-1 $-1 $136 $81 #
plane-surface $-1 -49.823297830133967 -13.529944578930422 3.394692339326383 -0.81915205242281985 0 0.57357642473473569 0.57357642473473569 0 0.81915205242281985 forward_v I I I I #
loop $-1 $-1 $214 $52 #
coedge $-1 $134 $134 $135 $215 reversed $82 $-1 #
coedge $-1 $135 $135 $134 $215 forward $84 $-1 #
coedge $-1 $136 $136 $85 $137 forward $131 $-1 #
edge $-1 $216 0 $216 6.2831853071796004 $136 $217 forward 7 unknown #
face $-1 $218 $219 $29 $-1 $220 reversed single #
loop $-1 $-1 $221 $86 #
plane-surface $-1 62.105423483349973 5.5757495007667721 146.79969618731735 0 1 0 0.7660444514056185 0 0.64278759981090561 forward_v I I I I #
coedge $-1 $222 $223 $224 $225 reversed $87 $-1 #
coedge $-1 $143 $89 $226 $227 reversed $56 $-1 #
coedge $-1 $89 $142 $222 $228 reversed $56 $-1 #
coedge $-1 $224 $229 $89 $145 forward $230 $-1 #
edge $-1 $231 -18.770586088458987 $232 -15.767227007355675 $144 $233 forward 7 unknown #
loop $-1 $-1 $151 $90 #
plane-surface $-1 -14.228298223657468 9.8552070945527213 82.748100133525909 0.7660444514056185 0 0.64278759981090561 0.64278759981090561 0 -0.7660444514056185 forward_v I I I I #
loop $-1 $-1 $234 $58 #
coedge $-1 $149 $149 $150 $235 reversed $91 $-1 #
coedge $-1 $150 $150 $149 $235 forward $93 $-1 #
coedge $-1 $151 $151 $94 $152 forward $146 $-1 #
edge $-1 $236 0 $236 6.2831853071796004 $151 $237 forward 7 unknown #
loop $-1 $-1 $158 $95 #
plane-surface $-1 -14.228298223657468 9.8552070945527213 82.748100133525909 0.7660444514056185 0 0.64278759981090561 0.64278759981090561 0 -0.7660444514056185 forward_v I I I I #
loop $-1 $-1 $238 $61 #
coedge $-1 $156 $156 $157 $239 reversed $96 $-1 #
coedge $-1 $157 $157 $156 $239 forward $98 $-1 #
coedge $-1 $158 $158 $99 $159 forward $153 $-1 #
edge $-1 $240 0 $240 6.2831853071796004 $158 $241 forward 7 unknown #
face $-1 $242 $243 $24 $-1 $244 reversed single #
loop $-1 $-1 $245 $100 #
plane-surface $-1 -49.823297830133974 0 0 1 0 0 0 0 -1 forward_v I I I I #
coedge $-1 $246 $171 $247 $248 forward $101 $-1 #
coedge $-1 $249 $103 $246 $250 forward $65 $-1 #
coedge $-1 $103 $249 $251 $252 forward $65 $-1 #
coedge $-1 $174 $173 $103 $167 reversed $175 $-1 #
edge $-1 $253 -29.035181780008553 $254 29.035181780008553 $166 $255 forward 7 unknown #
coedge $-1 $105 $104 $256 $257 forward $41 $-1 #
coedge $-1 $258 $259 $104 $170 reversed $243 $-1 #
edge $-1 $177 -49.823297830133974 $260 49.823297830133974 $169 $261 forward 7 unknown #
coedge $-1 $163 $262 $105 $172 reversed $101 $-1 #
edge $-1 $263 -49.823297830133974 $176 49.823297830133974 $171 $264 forward 7 unknown #
coedge $-1 $166 $106 $262 $265 forward $175 $-1 #
coedge $-1 $106 $166 $258 $266 reversed $175 $-1 #
loop $-1 $-1 $173 $242 #
vertex $-1 $107 $267 #
vertex $-1 $107 $268 #
straight-curve $-1 49.823297830133974 0 9.9936424949831988 0 1 0 I I #
face $-1 $269 $270 $25 $-1 $271 reversed single #
loop $-1 $-1 $191 $108 #
plane-surface $-1 0 -33.678332329126562 -5.2114434656903867 0 0 1 1 0 0 forward_v I I I I #
coedge $-1 $272 $273 $112 $187 forward $109 $-1 #
coedge $-1 $274 $111 $273 $275 forward $69 $-1 #
coedge $-1 $111 $274 $276 $277 forward $69 $-1 #
coedge $-1 $113 $112 $111 $186 reversed $44 $-1 #
edge $-1 $278 -49.823297830133974 $279 49.823297830133974 $111 $280 forward 7 unknown #
edge $-1 $279 -9.9936424949831988 $193 -5.2114434656903867 $182 $281 forward 7 unknown #
coedge $-1 $276 $282 $113 $189 forward $283 $-1 #
edge $-1 $192 5.2114434656903867 $278 9.9936424949831988 $188 $284 forward 7 unknown #
coedge $-1 $285 $114 $282 $286 forward $180 $-1 #
coedge $-1 $114 $285 $272 $287 forward $180 $-1 #
vertex $-1 $189 $288 #
vertex $-1 $287 $289 #
straight-curve $-1 0 -29.035181780008553 -5.2114434656903867 1 0 0 I I #
face $-1 $-1 $290 $26 $-1 $291 reversed single #
loop $-1 $-1 $122 $116 #
plane-surface $-1 0 0 9.9936424949831988 0 0 1 1 0 0 forward_v I I I I #
coedge $-1 $292 $293 $294 $295 reversed $117 $-1 #
coedge $-1 $296 $119 $121 $205 forward $73 $-1 #
coedge $-1 $119 $296 $292 $297 forward $73 $-1 #
coedge $-1 $294 $122 $119 $202 forward $196 $-1 #
edge $-1 $208 -12.983908392307326 $298 -0.5460361866230965 $201 $299 forward 7 unknown #
coedge $-1 $300 $301 $120 $204 forward $290 $-1 #
edge $-1 $302 -26.880122868238978 $207 -20.281172712582151 $203 $303 forward 7 unknown #
edge $-1 $208 -8.0558305825383574 $302 1.2442367137257826e-014 $121 $304 forward 7 unknown #
coedge $-1 $122 $294 $300 $305 forward $196 $-1 #
vertex $-1 $204 $306 #
vertex $-1 $123 $307 #
straight-curve $-1 -65.724505591094655 -19.748880681772537 9.9936424949831988 1 0 0 I I #
coedge $-1 $210 $210 $-1 $308 reversed $126 $-1 #
edge $-1 $309 0 $309 6.2831853071796004 $127 $310 forward 7 unknown #
vertex $-1 $130 $311 #
ellipse-curve $-1 -47.512980578233424 -16.195202908719899 6.6941674171547882 -0.81915205242281985 0 0.57357642473473569 0.57357642473473569 0 0.81915205242281985 1 I I #
coedge $-1 $214 $214 $-1 $312 reversed $133 $-1 #
edge $-1 $313 0 $313 6.2831853071796004 $134 $314 forward 7 unknown #
vertex $-1 $137 $315 #
ellipse-curve $-1 -47.512980578233424 -10.864686249140945 6.6941674171547882 -0.81915205242281985 0 0.57357642473473569 0.57357642473473569 0 0.81915205242281985 1 I I #
face $-1 $-1 $230 $29 $-1 $316 forward single #
loop $-1 $-1 $317 $138 #
plane-surface $-1 49.823297830133974 0 0 -1 0 0 0 0 1 forward_v I I I I #
coedge $-1 $318 $319 $320 $321 reversed $139 $-1 #
coedge $-1 $322 $141 $143 $228 forward $87 $-1 #
coedge $-1 $141 $322 $318 $323 forward $87 $-1 #
coedge $-1 $320 $144 $141 $225 forward $230 $-1 #
edge $-1 $232 -9.2070611410623098 $324 -0.64814595349041149 $224 $325 forward 7 unknown #
coedge $-1 $326 $327 $142 $227 forward $219 $-1 #
edge $-1 $328 -66.985469667140208 $231 -63.406205598675477 $226 $329 forward 7 unknown #
edge $-1 $232 94.974198305392363 $328 99.646595660267977 $143 $330 forward 7 unknown #
coedge $-1 $144 $320 $326 $331 forward $230 $-1 #
loop $-1 $-1 $320 $218 #
vertex $-1 $227 $332 #
vertex $-1 $145 $333 #
straight-curve $-1 31.052711741674987 14.13466468833867 9.9936424949831917 -1 0 0 I I #
coedge $-1 $234 $234 $-1 $334 reversed $148 $-1 #
edge $-1 $335 0 $335 6.2831853071796004 $149 $336 forward 7 unknown #
vertex $-1 $152 $337 #
ellipse-curve $-1 48.321618289582318 8.0211538400730298 8.2040104607508226 0.7660444514056185 0 0.64278759981090561 0.64278759981090561 0 -0.7660444514056185 1 I I #
coedge $-1 $238 $238 $-1 $338 reversed $155 $-1 #
edge $-1 $339 0 $339 6.2831853071796004 $156 $340 forward 7 unknown #
vertex $-1 $159 $341 #
ellipse-curve $-1 48.321618289582318 11.689260349032413 8.2040104607508226 0.7660444514056185 0 0.64278759981090561 0.64278759981090561 0 -0.7660444514056185 1 I I #
face $-1 $-1 $175 $24 $-1 $342 reversed single #
loop $-1 $-1 $258 $160 #
plane-surface $-1 0 29.035181780008553 0 0 -1 0 0 0 -1 forward_v I I I I #
coedge $-1 $343 $256 $259 $344 forward $161 $-1 #
coedge $-1 $262 $163 $164 $250 reversed $101 $-1 #
coedge $-1 $256 $343 $163 $248 reversed $161 $-1 #
edge $-1 $263 -9.9936424949831988 $345 9.9936424949831988 $247 $346 forward 7 unknown #
coedge $-1 $165 $164 $343 $347 forward $65 $-1 #
edge $-1 $254 -49.823297830133974 $345 49.823297830133974 $246 $348 forward 7 unknown #
coedge $-1 $259 $258 $165 $252 reversed $243 $-1 #
edge $-1 $349 -49.823297830133974 $253 49.823297830133974 $251 $350 forward 7 unknown #
vertex $-1 $167 $351 #
vertex $-1 $265 $352 #
straight-curve $-1 49.823297830133974 0 -9.9936424949831988 0 -1 0 I I #
coedge $-1 $245 $247 $168 $257 reversed $161 $-1 #
edge $-1 $260 -29.035181780008553 $263 29.035181780008553 $256 $353 forward 7 unknown #
coedge $-1 $251 $169 $174 $266 forward $243 $-1 #
coedge $-1 $169 $251 $245 $344 reversed $243 $-1 #
vertex $-1 $170 $354 #
straight-curve $-1 0 29.035181780008553 9.9936424949831988 -1 0 0 I I #
coedge $-1 $171 $246 $173 $265 reversed $101 $-1 #
vertex $-1 $257 $355 #
straight-curve $-1 0 -29.035181780008553 9.9936424949831988 1 0 0 I I #
edge $-1 $176 -9.9936424949831988 $254 9.9936424949831988 $173 $356 forward 7 unknown #
edge $-1 $177 -9.9936424949831988 $253 9.9936424949831988 $174 $357 forward 7 unknown #
point $-1 49.823297830133974 -29.035181780008553 9.9936424949831988 #
point $-1 49.823297830133974 29.035181780008553 9.9936424949831988 #
face $-1 $-1 $283 $25 $-1 $358 reversed single #
loop $-1 $-1 $359 $179 #
plane-surface $-1 0 -38.321482878244566 -7.6025429803367928 0 1 0 0 0 1 forward_v I I I I #
coedge $-1 $360 $182 $191 $287 reversed $109 $-1 #
coedge $-1 $182 $360 $183 $275 reversed $109 $-1 #
coedge $-1 $184 $183 $361 $362 forward $69 $-1 #
edge $-1 $279 29.035181780008553 $363 38.321482878244566 $273 $364 forward 7 unknown #
coedge $-1 $365 $188 $184 $277 reversed $283 $-1 #
edge $-1 $366 -38.321482878244566 $278 -29.035181780008553 $276 $367 forward 7 unknown #
vertex $-1 $189 $368 #
vertex $-1 $275 $369 #
straight-curve $-1 0 -29.035181780008553 -9.9936424949831988 1 0 0 I I #
straight-curve $-1 49.823297830133974 -29.035181780008553 0 0 0 1 I I #
coedge $-1 $188 $365 $190 $286 reversed $283 $-1 #
loop $-1 $-1 $188 $269 #
straight-curve $-1 -49.823297830133974 -29.035181780008553 0 0 0 -1 I I #
coedge $-1 $191 $190 $370 $371 forward $180 $-1 #
edge $-1 $192 -4.6431505491180083 $372 4.6431505491180047 $282 $373 forward 7 unknown #
edge $-1 $374 -4.6431505491180047 $193 4.6431505491180083 $272 $375 forward 7 unknown #
point $-1 -49.823297830133974 -29.035181780008553 -5.2114434656903867 #
point $-1 49.823297830133974 -29.035181780008553 -5.2114434656903867 #
loop $-1 $-1 $203 $195 #
plane-surface $-1 -49.823297830133974 0 0 1 0 0 0 0 -1 forward_v I I I I #
coedge $-1 $293 $198 $200 $297 reversed $117 $-1 #
coedge $-1 $198 $292 $376 $377 reversed $117 $-1 #
coedge $-1 $206 $201 $198 $295 forward $196 $-1 #
edge $-1 $298 -20.52184226476178 $378 -15.901207760960681 $294 $379 forward 7 unknown #
coedge $-1 $200 $199 $301 $380 reversed $73 $-1 #
edge $-1 $381 -1.2442367137257826e-014 $298 8.0558305825383574 $292 $382 forward 7 unknown #
vertex $-1 $202 $383 #
straight-curve $-1 -45.202663326332868 -6.7649722894652111 9.9936424949831988 0 1 0 I I #
coedge $-1 $376 $203 $206 $305 reversed $290 $-1 #
coedge $-1 $203 $376 $296 $380 forward $290 $-1 #
vertex $-1 $204 $384 #
straight-curve $-1 -49.823297830133974 -19.748880681772537 30.27481520756535 0 0 1 I I #
straight-curve $-1 -49.823297830133967 -19.748880681772537 3.394692339326383 -0.57357642473473569 0 -0.81915205242281985 I I #
edge $-1 $378 7.3110084760883076 $207 19.748880681772537 $300 $385 forward 7 unknown #
point $-1 -49.823297830133974 -19.748880681772537 9.9936424949831988 #
point $-1 -45.202663326332875 -19.748880681772537 9.9936424949831988 #
edge $-1 $386 1 $386 0 $210 $-1 forward 7 unknown #
vertex $-1 $211 $387 #
ellipse-curve $-1 -45.802928483322987 -16.195202908719899 5.4967760857068466 -0.81915205242281985 0 0.57357642473473569 0.57357642473473569 0 0.81915205242281985 1 I I #
point $-1 -46.939404153498693 -16.195202908719899 7.5133194695776115 #
edge $-1 $388 1 $388 0 $214 $-1 forward 7 unknown #
vertex $-1 $215 $389 #
ellipse-curve $-1 -45.802928483322987 -10.864686249140945 5.4967760857068466 -0.81915205242281985 0 0.57357642473473569 0.57357642473473569 0 0.81915205242281985 1 I I #
point $-1 -46.939404153498693 -10.864686249140945 7.5133194695776115 #
plane-surface $-1 0 0 9.9936424949831988 0 0 1 1 0 0 forward_v I I I I #
coedge $-1 $327 $326 $319 $390 forward $219 $-1 #
coedge $-1 $319 $221 $223 $323 reversed $139 $-1 #
coedge $-1 $221 $318 $317 $390 reversed $139 $-1 #
coedge $-1 $229 $224 $221 $321 forward $230 $-1 #
edge $-1 $324 15.767227007355675 $391 18.770586088458987 $320 $392 forward 7 unknown #
coedge $-1 $223 $222 $327 $393 reversed $87 $-1 #
edge $-1 $394 -99.646595660267977 $324 -94.974198305392363 $318 $395 forward 7 unknown #
vertex $-1 $225 $396 #
straight-curve $-1 46.819938749030655 4.9276035472763606 9.9936424949832059 0 -1 0 I I #
coedge $-1 $317 $226 $229 $331 reversed $219 $-1 #
coedge $-1 $226 $317 $322 $393 forward $219 $-1 #
vertex $-1 $227 $397 #
straight-curve $-1 49.823297830133974 14.13466468833867 73.399848093658676 0 0 1 I I #
straight-curve $-1 -14.228298223657468 14.13466468833867 82.748100133525909 0.64278759981090561 0 -0.7660444514056185 I I #
edge $-1 $391 5.5757495007667721 $231 14.13466468833867 $326 $398 forward 7 unknown #
point $-1 49.823297830133974 14.13466468833867 9.9936424949831988 #
point $-1 46.819938749030662 14.13466468833867 9.9936424949832059 #
edge $-1 $399 1 $399 0 $234 $-1 forward 7 unknown #
vertex $-1 $235 $400 #
ellipse-curve $-1 45.736957612252951 8.0211538400730298 6.0352226964667981 0.7660444514056185 0 0.64278759981090561 0.64278759981090561 0 -0.7660444514056185 1 I I #
point $-1 48.964405889393213 8.0211538400730298 7.4379660093451943 #
edge $-1 $401 1 $401 0 $238 $-1 forward 7 unknown #
vertex $-1 $239 $402 #
ellipse-curve $-1 45.736957612252951 11.689260349032413 6.0352226964667981 0.7660444514056185 0 0.64278759981090561 0.64278759981090561 0 -0.7660444514056185 1 I I #
point $-1 48.964405889393213 11.689260349032413 7.4379660093451943 #
plane-surface $-1 49.823297830133974 0 0 -1 0 0 0 0 1 forward_v I I I I #
coedge $-1 $247 $245 $249 $347 reversed $161 $-1 #
edge $-1 $260 -9.9936424949831988 $349 9.9936424949831988 $259 $403 forward 7 unknown #
vertex $-1 $347 $404 #
straight-curve $-1 -49.823297830133974 -29.035181780008553 0 0 0 -1 I I #
edge $-1 $345 -29.035181780008553 $349 29.035181780008553 $343 $405 forward 7 unknown #
straight-curve $-1 0 -29.035181780008553 -9.9936424949831988 -1 0 0 I I #
vertex $-1 $252 $406 #
straight-curve $-1 0 29.035181780008553 -9.9936424949831988 1 0 0 I I #
point $-1 49.823297830133974 29.035181780008553 -9.9936424949831988 #
point $-1 49.823297830133974 -29.035181780008553 -9.9936424949831988 #
straight-curve $-1 -49.823297830133974 0 9.9936424949831988 0 -1 0 I I #
point $-1 -49.823297830133974 29.035181780008553 9.9936424949831988 #
point $-1 -49.823297830133974 -29.035181780008553 9.9936424949831988 #
straight-curve $-1 49.823297830133974 -29.035181780008553 0 0 0 -1 I I #
straight-curve $-1 49.823297830133974 29.035181780008553 0 0 0 -1 I I #
plane-surface $-1 -49.823297830133974 0 0 1 0 0 0 0 -1 forward_v I I I I #
coedge $-1 $361 $370 $365 $407 forward $270 $-1 #
coedge $-1 $273 $272 $408 $409 forward $109 $-1 #
coedge $-1 $408 $359 $274 $362 reversed $270 $-1 #
edge $-1 $363 -49.823297830133974 $366 49.823297830133974 $361 $410 forward 7 unknown #
vertex $-1 $409 $411 #
straight-curve $-1 49.823297830133974 0 -9.9936424949831988 0 -1 0 I I #
coedge $-1 $282 $276 $359 $407 reversed $283 $-1 #
vertex $-1 $277 $412 #
straight-curve $-1 -49.823297830133974 0 -9.9936424949831988 0 1 0 I I #
point $-1 -49.823297830133974 -29.035181780008553 -9.9936424949831988 #
point $-1 49.823297830133974 -29.035181780008553 -9.9936424949831988 #
coedge $-1 $359 $408 $285 $371 reversed $270 $-1 #
edge $-1 $372 -49.823297830133974 $374 49.823297830133974 $370 $413 forward 7 unknown #
vertex $-1 $286 $414 #
straight-curve $-1 -49.823297830133974 -33.678332329126562 -5.2114434656903867 0 -1 0 I I #
vertex $-1 $287 $415 #
straight-curve $-1 49.823297830133974 -33.678332329126562 -5.2114434656903867 0 1 0 I I #
coedge $-1 $301 $300 $293 $377 forward $290 $-1 #
edge $-1 $378 20.281172712582151 $381 26.880122868238978 $376 $416 forward 7 unknown #
vertex $-1 $305 $417 #
straight-curve $-1 -65.724505591094655 -7.3110084760883076 9.9936424949831988 -1 0 0 I I #
edge $-1 $381 0.5460361866230965 $302 12.983908392307326 $301 $418 forward 7 unknown #
vertex $-1 $380 $419 #
straight-curve $-1 -49.823297830133967 -7.3110084760883076 3.394692339326383 0.57357642473473569 0 0.81915205242281985 I I #
point $-1 -45.202663326332875 -7.3110084760883076 9.9936424949831988 #
point $-1 -49.823297830133974 -19.748880681772537 3.3946923393263728 #
straight-curve $-1 -49.823297830133974 0 9.9936424949831988 0 -1 0 I I #
vertex $-1 $308 $420 #
point $-1 -45.229352058588248 -16.195202908719899 6.3159281381296664 #
vertex $-1 $312 $421 #
point $-1 -45.229352058588248 -10.864686249140945 6.3159281381296664 #
edge $-1 $391 63.406205598675477 $394 66.985469667140208 $317 $422 forward 7 unknown #
vertex $-1 $331 $423 #
straight-curve $-1 31.052711741674987 5.5757495007667721 9.9936424949831917 1 0 0 I I #
edge $-1 $394 0.64814595349041149 $328 9.2070611410623098 $327 $424 forward 7 unknown #
vertex $-1 $393 $425 #
straight-curve $-1 -14.228298223657468 5.5757495007667721 82.748100133525909 -0.64278759981090561 0 0.7660444514056185 I I #
point $-1 46.819938749030662 5.5757495007667721 9.9936424949832059 #
point $-1 49.823297830133974 14.13466468833867 6.4143784265184678 #
straight-curve $-1 49.823297830133974 0 9.9936424949831988 0 1 0 I I #
vertex $-1 $334 $426 #
point $-1 46.379745212063852 8.0211538400730298 5.2691782450611795 #
vertex $-1 $338 $427 #
point $-1 46.379745212063852 11.689260349032413 5.2691782450611795 #
straight-curve $-1 -49.823297830133974 29.035181780008553 0 0 0 -1 I I #
point $-1 -49.823297830133974 -29.035181780008553 -9.9936424949831988 #
straight-curve $-1 -49.823297830133974 0 -9.9936424949831988 0 1 0 I I #
point $-1 -49.823297830133974 29.035181780008553 -9.9936424949831988 #
edge $-1 $372 -2.391099514646406 $366 2.391099514646406 $365 $428 forward 7 unknown #
coedge $-1 $370 $361 $360 $409 reversed $270 $-1 #
edge $-1 $374 -2.391099514646406 $363 2.391099514646406 $360 $429 forward 7 unknown #
straight-curve $-1 0 -38.321482878244566 -9.9936424949831988 -1 0 0 I I #
point $-1 49.823297830133974 -38.321482878244566 -9.9936424949831988 #
point $-1 -49.823297830133974 -38.321482878244566 -9.9936424949831988 #
straight-curve $-1 0 -38.321482878244566 -5.2114434656903867 1 0 0 I I #
point $-1 -49.823297830133974 -38.321482878244566 -5.2114434656903867 #
point $-1 49.823297830133974 -38.321482878244566 -5.2114434656903867 #
straight-curve $-1 -49.823297830133974 -7.3110084760883076 30.27481520756535 0 0 -1 I I #
point $-1 -49.823297830133974 -7.3110084760883076 9.9936424949831988 #
straight-curve $-1 -49.823297830133974 -6.7649722894652111 3.394692339326367 0 -1 0 I I #
point $-1 -49.823297830133974 -7.3110084760883076 3.3946923393263728 #
point $-1 -44.983776430900164 -16.195202908719899 4.9231996609721111 #
point $-1 -44.983776430900164 -10.864686249140945 4.9231996609721111 #
straight-curve $-1 49.823297830133974 5.5757495007667721 73.399848093658676 0 0 -1 I I #
point $-1 49.823297830133974 5.5757495007667721 9.9936424949831988 #
straight-curve $-1 49.823297830133974 4.9276035472763606 6.4143784265184607 0 1 0 I I #
point $-1 49.823297830133974 5.5757495007667721 6.4143784265184678 #
point $-1 44.970913160847331 8.0211538400730298 5.3924350966558929 #
point $-1 44.970913160847331 11.689260349032413 5.3924350966558929 #
straight-curve $-1 -49.823297830133974 -38.321482878244566 -7.6025429803367928 0 0 -1 I I #
straight-curve $-1 49.823297830133974 -38.321482878244566 -7.6025429803367928 0 0 -1 I I #
End-of-ACIS-data 