500 0 11 0           
7 Unknown 11 ACIS 5.0 NT 24 Fri Mar 26 17:04:33 1999 
-1 9.9999999999999995e-007 1e-010 
body $-1 $11 $-1 $12 #
body $-1 $13 $-1 $14 #
body $-1 $15 $-1 $16 #
body $-1 $17 $-1 $18 #
body $-1 $19 $-1 $20 #
body $-1 $21 $-1 $22 #
body $-1 $23 $-1 $24 #
body $-1 $25 $-1 $26 #
body $-1 $27 $-1 $28 #
body $-1 $29 $-1 $30 #
body $-1 $31 $-1 $32 #
lump $-1 $-1 $33 $0 #
transform $-1 1 0 0 0 1 0 0 0 1 63.954588457899717 43.075416895976545 19.917204086659183 1 rotate no_reflect no_shear #
lump $-1 $-1 $34 $1 #
transform $-1 1 0 0 0 1 0 0 0 1 63.954588457899717 43.075416895976545 19.917204086659183 1 rotate no_reflect no_shear #
lump $-1 $-1 $35 $2 #
transform $-1 1 0 0 0 1 0 0 0 1 63.954588457899717 43.075416895976545 19.917204086659183 1 rotate no_reflect no_shear #
lump $-1 $-1 $36 $3 #
transform $-1 1 0 0 0 1 0 0 0 1 63.954588457899717 43.075416895976545 19.917204086659183 1 rotate no_reflect no_shear #
lump $-1 $-1 $37 $4 #
transform $-1 1 0 0 0 1 0 0 0 1 63.954588457899717 43.075416895976545 19.917204086659183 1 rotate no_reflect no_shear #
lump $-1 $-1 $38 $5 #
transform $-1 1 0 0 0 1 0 0 0 1 63.954588457899717 43.075416895976545 19.917204086659183 1 rotate no_reflect no_shear #
lump $-1 $-1 $39 $6 #
transform $-1 1 0 0 0 1 0 0 0 1 63.954588457899717 43.075416895976545 19.917204086659183 1 rotate no_reflect no_shear #
lump $-1 $-1 $40 $7 #
transform $-1 1 0 0 0 1 0 0 0 1 63.954588457899717 43.075416895976545 19.917204086659183 1 rotate no_reflect no_shear #
lump $-1 $-1 $41 $8 #
transform $-1 1 0 0 0 1 0 0 0 1 63.954588457899717 43.075416895976545 19.917204086659183 1 rotate no_reflect no_shear #
lump $-1 $-1 $42 $9 #
transform $-1 1 0 0 0 1 0 0 0 1 63.954588457899717 43.075416895976545 19.917204086659183 1 rotate no_reflect no_shear #
lump $-1 $-1 $43 $10 #
transform $-1 1 0 0 0 1 0 0 0 1 63.954588457899717 43.075416895976545 19.917204086659183 1 rotate no_reflect no_shear #
shell $-1 $-1 $-1 $44 $-1 $11 #
shell $-1 $-1 $-1 $45 $-1 $13 #
shell $-1 $-1 $-1 $46 $-1 $15 #
shell $-1 $-1 $-1 $47 $-1 $17 #
shell $-1 $-1 $-1 $48 $-1 $19 #
shell $-1 $-1 $-1 $49 $-1 $21 #
shell $-1 $-1 $-1 $50 $-1 $23 #
shell $-1 $-1 $-1 $51 $-1 $25 #
shell $-1 $-1 $-1 $52 $-1 $27 #
shell $-1 $-1 $-1 $53 $-1 $29 #
shell $-1 $-1 $-1 $54 $-1 $31 #
face $-1 $55 $56 $33 $-1 $57 reversed single #
face $-1 $58 $59 $34 $-1 $60 forward single #
face $-1 $61 $62 $35 $-1 $63 forward single #
face $-1 $64 $65 $36 $-1 $66 reversed single #
face $-1 $67 $68 $37 $-1 $69 forward single #
face $-1 $70 $71 $38 $-1 $72 forward single #
face $-1 $73 $74 $39 $-1 $75 forward single #
face $-1 $76 $77 $40 $-1 $78 reversed single #
face $-1 $79 $80 $41 $-1 $81 forward single #
face $-1 $82 $83 $42 $-1 $84 reversed single #
face $-1 $85 $86 $43 $-1 $87 forward single #
face $-1 $88 $89 $33 $-1 $90 reversed single #
loop $-1 $-1 $91 $44 #
plane-surface $-1 63.954588457899717 0 0 -1 0 0 0 0 1 forward_v I I I I #
face $-1 $92 $93 $34 $-1 $94 reversed single #
loop $-1 $-1 $95 $45 #
plane-surface $-1 -63.954588457899717 0 0 1 0 0 0 0 -1 forward_v I I I I #
face $-1 $96 $97 $35 $-1 $98 reversed single #
loop $-1 $-1 $99 $46 #
plane-surface $-1 63.954588457899717 0 0 -1 0 0 0 0 1 forward_v I I I I #
face $-1 $100 $101 $36 $-1 $102 reversed single #
loop $-1 $-1 $103 $47 #
plane-surface $-1 -44.37476176179382 80.484302050082363 151.97818708350474 1 0 0 0 -0.74314483375859142 -0.66913059716165679 forward_v I I I I #
face $-1 $104 $105 $37 $-1 $106 forward single #
loop $-1 $107 $108 $48 #
cone-surface $-1 -41.488418268701793 34.803020690125578 10.807884792196193 0 -0.74314483375859142 -0.66913059716165679 0.5 0 0 1 I I 0 1 0.5 forward I I I I #
face $-1 $109 $110 $38 $-1 $111 forward single #
loop $-1 $112 $113 $49 #
cone-surface $-1 -37.158903029063751 34.803020690125578 10.807884792196193 0 -0.74314483375859142 -0.66913059716165679 0.5 0 0 1 I I 0 1 0.5 forward I I I I #
face $-1 $114 $115 $39 $-1 $116 forward single #
loop $-1 $117 $118 $50 #
cone-surface $-1 -32.829387789425709 34.803020690125578 10.807884792196193 0 -0.74314483375859142 -0.66913059716165679 0.5 0 0 1 I I 0 1 0.5 forward I I I I #
face $-1 $119 $120 $40 $-1 $121 reversed single #
loop $-1 $-1 $122 $51 #
plane-surface $-1 -6.7475188347137554 -145.22822869377273 87.976143008275159 -1 0 0 0 -0.79863551827123203 0.60181501223851219 forward_v I I I I #
face $-1 $123 $124 $41 $-1 $125 forward single #
loop $-1 $126 $127 $52 #
cone-surface $-1 -11.893133165904032 -37.064434485652725 13.460462588370234 0 0.79863551827123203 -0.60181501223851219 2.5 0 0 1 I I 0 1 2.5 forward I I I I #
face $-1 $128 $129 $42 $-1 $130 reversed single #
loop $-1 $-1 $131 $53 #
plane-surface $-1 17.038747497094338 -145.22822869377273 87.976143008275159 -1 0 0 0 -0.79863551827123203 0.60181501223851219 forward_v I I I I #
face $-1 $132 $133 $43 $-1 $134 forward single #
loop $-1 $135 $136 $54 #
cone-surface $-1 11.893133165904061 -37.064434485652725 13.460462588370234 0 0.79863551827123203 -0.60181501223851219 2.5 0 0 1 I I 0 1 2.5 forward I I I I #
face $-1 $137 $138 $33 $-1 $139 forward single #
loop $-1 $-1 $140 $55 #
plane-surface $-1 -63.954588457899717 0 0 1 0 0 0 0 -1 forward_v I I I I #
coedge $-1 $141 $142 $143 $144 reversed $56 $-1 #
face $-1 $145 $146 $34 $-1 $147 reversed single #
loop $-1 $-1 $148 $58 #
plane-surface $-1 0 0 -19.917204086659183 0 0 1 1 0 0 forward_v I I I I #
coedge $-1 $149 $150 $151 $152 forward $59 $-1 #
face $-1 $153 $154 $35 $-1 $155 reversed single #
loop $-1 $-1 $156 $61 #
plane-surface $-1 0 0 -19.917204086659183 0 0 1 1 0 0 forward_v I I I I #
coedge $-1 $157 $158 $159 $160 forward $62 $-1 #
face $-1 $161 $162 $36 $-1 $163 reversed single #
loop $-1 $-1 $164 $64 #
plane-surface $-1 -37.158903029063751 -14.570741965207674 66.390243151379849 0 0.74314483375859142 0.66913059716165679 1 0 0 forward_v I I I I #
coedge $-1 $165 $166 $167 $168 reversed $65 $-1 #
face $-1 $-1 $169 $37 $-1 $170 forward single #
loop $-1 $171 $172 $67 #
cone-surface $-1 -41.488418268701793 34.245662064806638 10.30603684432495 0 -0.74314483375859142 -0.66913059716165679 0.25 0 0 1 I I -0.70710678118654746 0.70710678118654746 0.25 forward I I I I #
loop $-1 $-1 $173 $48 #
coedge $-1 $108 $108 $174 $175 reversed $68 $-1 #
face $-1 $-1 $176 $38 $-1 $177 forward single #
loop $-1 $178 $179 $70 #
cone-surface $-1 -37.158903029063751 34.245662064806638 10.30603684432495 0 -0.74314483375859142 -0.66913059716165679 0.25 0 0 1 I I -0.70710678118654746 0.70710678118654746 0.25 forward I I I I #
loop $-1 $-1 $180 $49 #
coedge $-1 $113 $113 $181 $182 reversed $71 $-1 #
face $-1 $-1 $183 $39 $-1 $184 forward single #
loop $-1 $185 $186 $73 #
cone-surface $-1 -32.829387789425709 34.245662064806638 10.30603684432495 0 -0.74314483375859142 -0.66913059716165679 0.25 0 0 1 I I -0.70710678118654746 0.70710678118654746 0.25 forward I I I I #
loop $-1 $-1 $187 $50 #
coedge $-1 $118 $118 $188 $189 reversed $74 $-1 #
face $-1 $190 $191 $40 $-1 $192 reversed single #
loop $-1 $-1 $193 $76 #
plane-surface $-1 -11.893133165904032 -43.075416895976559 10.998480137275308 0 -0.79863551827123203 0.60181501223851219 1 0 0 forward_v I I I I #
coedge $-1 $194 $195 $196 $197 reversed $77 $-1 #
face $-1 $-1 $198 $41 $-1 $199 forward single #
loop $-1 $200 $201 $79 #
cone-surface $-1 -11.893133165904032 -33.415527858851789 10.710814299475075 0 0.79863551827123203 -0.60181501223851219 1.25 0 0 1 I I -0.70710678118654746 0.70710678118654746 1.25 forward I I I I #
loop $-1 $-1 $202 $52 #
coedge $-1 $127 $127 $203 $204 reversed $80 $-1 #
face $-1 $205 $206 $42 $-1 $207 reversed single #
loop $-1 $-1 $208 $82 #
plane-surface $-1 11.893133165904061 -43.075416895976559 10.998480137275308 0 -0.79863551827123203 0.60181501223851219 1 0 0 forward_v I I I I #
coedge $-1 $209 $210 $211 $212 reversed $83 $-1 #
face $-1 $-1 $213 $43 $-1 $214 forward single #
loop $-1 $215 $216 $85 #
cone-surface $-1 11.893133165904061 -33.415527858851789 10.710814299475075 0 0.79863551827123203 -0.60181501223851219 1.25 0 0 1 I I -0.70710678118654746 0.70710678118654746 1.25 forward I I I I #
loop $-1 $-1 $217 $54 #
coedge $-1 $136 $136 $218 $219 reversed $86 $-1 #
face $-1 $220 $221 $33 $-1 $222 reversed single #
loop $-1 $-1 $223 $88 #
plane-surface $-1 0 0 19.917204086659183 0 0 1 1 0 0 forward_v I I I I #
coedge $-1 $224 $225 $226 $227 reversed $89 $-1 #
coedge $-1 $228 $91 $229 $230 reversed $56 $-1 #
coedge $-1 $91 $228 $231 $232 forward $56 $-1 #
coedge $-1 $233 $234 $91 $144 forward $221 $-1 #
edge $-1 $235 -43.075416895976545 $236 43.075416895976545 $91 $237 forward 7 unknown #
face $-1 $238 $239 $34 $-1 $240 reversed single #
loop $-1 $-1 $241 $92 #
plane-surface $-1 -73.744501805952666 -10.315211567024676 0 0 1 0 0 0 1 forward_v I I I I #
coedge $-1 $242 $243 $150 $244 forward $93 $-1 #
coedge $-1 $245 $95 $246 $247 reversed $59 $-1 #
coedge $-1 $95 $245 $148 $244 reversed $59 $-1 #
coedge $-1 $248 $249 $95 $152 reversed $250 $-1 #
edge $-1 $251 -19.917204086659183 $252 19.917204086659183 $151 $253 forward 7 unknown #
face $-1 $254 $255 $35 $-1 $256 reversed single #
loop $-1 $-1 $159 $96 #
plane-surface $-1 73.744501805952666 -10.315211567024676 0 0 1 0 0 0 1 forward_v I I I I #
coedge $-1 $257 $258 $158 $259 forward $97 $-1 #
coedge $-1 $260 $99 $261 $262 reversed $62 $-1 #
coedge $-1 $99 $260 $156 $259 reversed $62 $-1 #
coedge $-1 $263 $264 $99 $160 reversed $154 $-1 #
edge $-1 $265 -19.917204086659183 $266 19.917204086659183 $159 $267 forward 7 unknown #
face $-1 $268 $269 $36 $-1 $270 reversed single #
loop $-1 $-1 $271 $100 #
plane-surface $-1 -29.943044296333685 80.484302050082363 151.97818708350474 -1 0 0 0 0.74314483375859142 0.66913059716165679 forward_v I I I I #
coedge $-1 $272 $273 $274 $275 reversed $101 $-1 #
coedge $-1 $166 $103 $276 $277 reversed $65 $-1 #
coedge $-1 $103 $165 $272 $278 reversed $65 $-1 #
coedge $-1 $274 $279 $103 $168 forward $280 $-1 #
edge $-1 $281 -2.8332658709353638 $282 12.968381707007978 $167 $283 forward 7 unknown #
loop $-1 $-1 $174 $104 #
plane-surface $-1 -37.158903029063751 -14.570741965207674 66.390243151379849 0 0.74314483375859142 0.66913059716165679 1 0 0 forward_v I I I I #
loop $-1 $-1 $284 $67 #
coedge $-1 $172 $172 $173 $285 reversed $105 $-1 #
coedge $-1 $173 $173 $172 $285 forward $107 $-1 #
coedge $-1 $174 $174 $108 $175 forward $169 $-1 #
edge $-1 $286 3.1767505061768946e-015 $286 6.283185307179604 $174 $287 forward 7 unknown #
loop $-1 $-1 $181 $109 #
plane-surface $-1 -37.158903029063751 -14.570741965207674 66.390243151379849 0 0.74314483375859142 0.66913059716165679 1 0 0 forward_v I I I I #
loop $-1 $-1 $288 $70 #
coedge $-1 $179 $179 $180 $289 reversed $110 $-1 #
coedge $-1 $180 $180 $179 $289 forward $112 $-1 #
coedge $-1 $181 $181 $113 $182 forward $176 $-1 #
edge $-1 $290 3.1767505061768946e-015 $290 6.283185307179604 $181 $291 forward 7 unknown #
loop $-1 $-1 $188 $114 #
plane-surface $-1 -37.158903029063751 -14.570741965207674 66.390243151379849 0 0.74314483375859142 0.66913059716165679 1 0 0 forward_v I I I I #
loop $-1 $-1 $292 $73 #
coedge $-1 $186 $186 $187 $293 reversed $115 $-1 #
coedge $-1 $187 $187 $186 $293 forward $117 $-1 #
coedge $-1 $188 $188 $118 $189 forward $183 $-1 #
edge $-1 $294 3.1767505061768946e-015 $294 6.283185307179604 $188 $295 forward 7 unknown #
face $-1 $296 $297 $40 $-1 $298 forward single #
loop $-1 $-1 $299 $119 #
plane-surface $-1 -17.03874749709431 -145.22822869377273 87.976143008275159 1 0 0 0 0.79863551827123203 -0.60181501223851219 forward_v I I I I #
coedge $-1 $300 $301 $302 $303 reversed $120 $-1 #
coedge $-1 $195 $122 $304 $305 reversed $77 $-1 #
coedge $-1 $122 $194 $300 $306 reversed $77 $-1 #
coedge $-1 $302 $307 $122 $197 forward $297 $-1 #
edge $-1 $308 29.538697450909822 $309 36.259437813633681 $196 $310 forward 7 unknown #
loop $-1 $-1 $203 $123 #
plane-surface $-1 -11.893133165904032 -43.075416895976559 10.998480137275308 0 -0.79863551827123203 0.60181501223851219 1 0 0 forward_v I I I I #
loop $-1 $-1 $311 $79 #
coedge $-1 $201 $201 $202 $312 reversed $124 $-1 #
coedge $-1 $202 $202 $201 $312 forward $126 $-1 #
coedge $-1 $203 $203 $127 $204 forward $198 $-1 #
edge $-1 $313 0 $313 6.2831853071796004 $203 $314 forward 7 unknown #
face $-1 $315 $316 $42 $-1 $317 reversed single #
loop $-1 $-1 $318 $128 #
plane-surface $-1 6.7475188347137838 -145.22822869377273 87.976143008275159 1 0 0 0 0.79863551827123203 -0.60181501223851219 forward_v I I I I #
coedge $-1 $319 $320 $321 $322 reversed $129 $-1 #
coedge $-1 $210 $131 $323 $324 reversed $83 $-1 #
coedge $-1 $131 $209 $319 $325 reversed $83 $-1 #
coedge $-1 $321 $326 $131 $212 forward $327 $-1 #
edge $-1 $328 29.538697450909822 $329 36.259437813633681 $211 $330 forward 7 unknown #
loop $-1 $-1 $218 $132 #
plane-surface $-1 11.893133165904061 -43.075416895976559 10.998480137275308 0 -0.79863551827123203 0.60181501223851219 1 0 0 forward_v I I I I #
loop $-1 $-1 $331 $85 #
coedge $-1 $216 $216 $217 $332 reversed $133 $-1 #
coedge $-1 $217 $217 $216 $332 forward $135 $-1 #
coedge $-1 $218 $218 $136 $219 forward $213 $-1 #
edge $-1 $333 0 $333 6.2831853071796004 $218 $334 forward 7 unknown #
face $-1 $335 $336 $33 $-1 $337 reversed single #
loop $-1 $-1 $143 $137 #
plane-surface $-1 0 0 -19.917204086659183 0 0 1 1 0 0 forward_v I I I I #
coedge $-1 $338 $339 $228 $340 forward $138 $-1 #
coedge $-1 $341 $140 $342 $343 reversed $89 $-1 #
coedge $-1 $140 $341 $344 $345 forward $89 $-1 #
coedge $-1 $234 $233 $140 $227 forward $221 $-1 #
edge $-1 $346 -43.075416895976545 $347 43.075416895976545 $140 $348 forward 7 unknown #
coedge $-1 $142 $141 $223 $340 reversed $56 $-1 #
coedge $-1 $349 $350 $141 $230 forward $351 $-1 #
edge $-1 $352 -19.917204086659183 $235 19.917204086659183 $141 $353 forward 7 unknown #
coedge $-1 $354 $355 $142 $232 reversed $336 $-1 #
edge $-1 $356 -19.917204086659183 $236 19.917204086659183 $142 $357 forward 7 unknown #
coedge $-1 $226 $143 $355 $358 forward $221 $-1 #
coedge $-1 $143 $226 $349 $359 forward $221 $-1 #
vertex $-1 $144 $360 #
vertex $-1 $232 $361 #
straight-curve $-1 63.954588457899717 0 -19.917204086659183 0 -1 0 I I #
face $-1 $362 $250 $34 $-1 $363 reversed single #
loop $-1 $-1 $364 $145 #
plane-surface $-1 -83.534415154005615 -6.7781101448414276 0 1 0 0 0 0 -1 forward_v I I I I #
coedge $-1 $365 $366 $367 $368 forward $146 $-1 #
coedge $-1 $369 $148 $365 $370 forward $93 $-1 #
coedge $-1 $148 $369 $248 $371 forward $93 $-1 #
edge $-1 $251 3.2410087226581794 $372 10.315211567024676 $148 $373 forward 7 unknown #
coedge $-1 $150 $149 $374 $375 forward $59 $-1 #
coedge $-1 $376 $377 $149 $247 forward $378 $-1 #
edge $-1 $379 -10.315211567024676 $252 -3.2410087226581794 $246 $380 forward 7 unknown #
coedge $-1 $381 $151 $243 $371 reversed $250 $-1 #
coedge $-1 $151 $381 $376 $382 reversed $250 $-1 #
loop $-1 $-1 $151 $238 #
vertex $-1 $244 $383 #
vertex $-1 $382 $384 #
straight-curve $-1 -63.954588457899717 -3.2410087226581794 0 0 0 1 I I #
face $-1 $385 $386 $35 $-1 $387 reversed single #
loop $-1 $-1 $388 $153 #
plane-surface $-1 73.744501805952666 -3.2410087226581794 0 0 -1 0 0 0 -1 forward_v I I I I #
coedge $-1 $389 $156 $390 $391 forward $97 $-1 #
coedge $-1 $156 $389 $263 $392 forward $97 $-1 #
edge $-1 $265 -10.315211567024676 $393 -3.2410087226581794 $156 $394 forward 7 unknown #
coedge $-1 $158 $157 $395 $396 forward $62 $-1 #
coedge $-1 $397 $398 $157 $262 forward $399 $-1 #
edge $-1 $400 3.2410087226581794 $266 10.315211567024676 $261 $401 forward 7 unknown #
coedge $-1 $402 $159 $258 $392 reversed $154 $-1 #
coedge $-1 $159 $402 $397 $403 reversed $154 $-1 #
vertex $-1 $259 $404 #
vertex $-1 $403 $405 #
straight-curve $-1 63.954588457899717 -10.315211567024676 0 0 0 1 I I #
face $-1 $-1 $280 $36 $-1 $406 forward single #
loop $-1 $-1 $407 $161 #
plane-surface $-1 0 43.075416895976545 0 0 -1 0 0 0 -1 forward_v I I I I #
coedge $-1 $408 $409 $410 $411 reversed $162 $-1 #
coedge $-1 $412 $164 $166 $278 forward $101 $-1 #
coedge $-1 $164 $412 $408 $413 forward $101 $-1 #
coedge $-1 $410 $167 $164 $275 forward $280 $-1 #
edge $-1 $282 -25.795310247261945 $414 -11.36359278180181 $274 $415 forward 7 unknown #
coedge $-1 $416 $417 $165 $277 forward $269 $-1 #
edge $-1 $418 -73.621397446857543 $281 -56.071889455093185 $276 $419 forward 7 unknown #
edge $-1 $282 62.535641712901018 $418 86.15083379195309 $166 $420 forward 7 unknown #
coedge $-1 $167 $410 $416 $421 forward $280 $-1 #
loop $-1 $-1 $410 $268 #
vertex $-1 $277 $422 #
vertex $-1 $168 $423 #
straight-curve $-1 -44.37476176179382 40.242151025041181 19.917204086659183 0 -1 0 I I #
coedge $-1 $284 $284 $-1 $424 reversed $171 $-1 #
edge $-1 $425 0 $425 6.2831853071796004 $172 $426 forward 7 unknown #
vertex $-1 $175 $427 #
ellipse-curve $-1 -41.488418268701793 35.17459310700486 11.142450090777011 0 0.74314483375859142 0.66913059716165679 0.5 0 0 1 I I #
coedge $-1 $288 $288 $-1 $428 reversed $178 $-1 #
edge $-1 $429 0 $429 6.2831853071796004 $179 $430 forward 7 unknown #
vertex $-1 $182 $431 #
ellipse-curve $-1 -37.158903029063751 35.17459310700486 11.142450090777011 0 0.74314483375859142 0.66913059716165679 0.5 0 0 1 I I #
coedge $-1 $292 $292 $-1 $432 reversed $185 $-1 #
edge $-1 $433 0 $433 6.2831853071796004 $186 $434 forward 7 unknown #
vertex $-1 $189 $435 #
ellipse-curve $-1 -32.829387789425709 35.17459310700486 11.142450090777011 0 0.74314483375859142 0.66913059716165679 0.5 0 0 1 I I #
face $-1 $-1 $436 $40 $-1 $437 reversed single #
loop $-1 $-1 $196 $190 #
plane-surface $-1 0 0 19.917204086659183 0 0 1 1 0 0 forward_v I I I I #
coedge $-1 $438 $439 $440 $441 reversed $191 $-1 #
coedge $-1 $442 $193 $195 $306 forward $120 $-1 #
coedge $-1 $193 $442 $438 $443 forward $120 $-1 #
coedge $-1 $440 $196 $193 $303 forward $297 $-1 #
edge $-1 $309 0.80095225176173912 $444 11.092180914142293 $302 $445 forward 7 unknown #
coedge $-1 $446 $447 $194 $305 forward $436 $-1 #
edge $-1 $448 -32.98959136686225 $308 -24.070867417478397 $304 $449 forward 7 unknown #
edge $-1 $309 -11.167452167278771 $448 -2.4157584020108747e-014 $195 $450 forward 7 unknown #
coedge $-1 $196 $440 $446 $451 forward $297 $-1 #
vertex $-1 $197 $452 #
vertex $-1 $197 $453 #
straight-curve $-1 -6.7475188347137554 -72.614114346886367 19.917204086659183 0 1 0 I I #
coedge $-1 $311 $311 $-1 $454 reversed $200 $-1 #
edge $-1 $455 0 $455 6.2831853071796004 $201 $456 forward 7 unknown #
vertex $-1 $204 $457 #
ellipse-curve $-1 -11.893133165904032 -39.715046714614616 15.457842111967253 0 -0.79863551827123203 0.60181501223851219 2.5 0 0 1 I I #
face $-1 $-1 $327 $42 $-1 $458 forward single #
loop $-1 $-1 $459 $205 #
plane-surface $-1 0 -43.075416895976545 0 0 1 0 0 0 1 forward_v I I I I #
coedge $-1 $460 $461 $462 $463 reversed $206 $-1 #
coedge $-1 $464 $208 $210 $325 forward $129 $-1 #
coedge $-1 $208 $464 $460 $465 forward $129 $-1 #
coedge $-1 $462 $211 $208 $322 forward $327 $-1 #
edge $-1 $329 -11.092180914142308 $466 -0.80095225176175333 $321 $467 forward 7 unknown #
coedge $-1 $468 $469 $209 $324 forward $316 $-1 #
edge $-1 $470 -32.98959136686225 $328 -24.070867417478397 $323 $471 forward 7 unknown #
edge $-1 $329 -11.167452167278771 $470 -2.4157584020108747e-014 $210 $472 forward 7 unknown #
coedge $-1 $211 $462 $468 $473 forward $327 $-1 #
loop $-1 $-1 $462 $315 #
vertex $-1 $324 $474 #
vertex $-1 $212 $475 #
straight-curve $-1 17.038747497094338 -72.614114346886367 19.917204086659183 0 1 0 I I #
coedge $-1 $331 $331 $-1 $476 reversed $215 $-1 #
edge $-1 $477 0 $477 6.2831853071796004 $216 $478 forward 7 unknown #
vertex $-1 $219 $479 #
ellipse-curve $-1 11.893133165904061 -39.715046714614616 15.457842111967253 0 -0.79863551827123203 0.60181501223851219 2.5 0 0 1 I I #
face $-1 $-1 $351 $33 $-1 $480 reversed single #
loop $-1 $-1 $342 $220 #
plane-surface $-1 0 -43.075416895976545 0 0 1 0 0 0 1 forward_v I I I I #
coedge $-1 $481 $223 $350 $482 forward $138 $-1 #
coedge $-1 $223 $481 $354 $483 forward $138 $-1 #
edge $-1 $356 -43.075416895976545 $352 43.075416895976545 $228 $484 forward 7 unknown #
coedge $-1 $225 $224 $481 $485 reversed $89 $-1 #
coedge $-1 $355 $354 $224 $343 forward $336 $-1 #
edge $-1 $486 -19.917204086659183 $346 19.917204086659183 $224 $487 forward 7 unknown #
coedge $-1 $350 $349 $225 $345 reversed $351 $-1 #
edge $-1 $488 -19.917204086659183 $347 19.917204086659183 $344 $489 forward 7 unknown #
vertex $-1 $227 $490 #
vertex $-1 $359 $491 #
straight-curve $-1 -63.954588457899717 0 -19.917204086659183 0 1 0 I I #
coedge $-1 $344 $229 $234 $359 reversed $351 $-1 #
coedge $-1 $229 $344 $338 $482 reversed $351 $-1 #
loop $-1 $-1 $229 $335 #
vertex $-1 $340 $492 #
straight-curve $-1 63.954588457899717 43.075416895976545 0 0 0 -1 I I #
coedge $-1 $342 $231 $339 $483 reversed $336 $-1 #
coedge $-1 $231 $342 $233 $358 reversed $336 $-1 #
vertex $-1 $340 $493 #
straight-curve $-1 63.954588457899717 -43.075416895976545 0 0 0 -1 I I #
edge $-1 $236 -63.954588457899717 $346 63.954588457899717 $355 $494 forward 7 unknown #
edge $-1 $347 -63.954588457899717 $235 63.954588457899717 $349 $495 forward 7 unknown #
point $-1 63.954588457899717 43.075416895976545 -19.917204086659183 #
point $-1 63.954588457899717 -43.075416895976545 -19.917204086659183 #
face $-1 $-1 $378 $34 $-1 $496 forward single #
plane-surface $-1 -73.744501805952666 -3.2410087226581794 0 0 -1 0 0 0 -1 forward_v I I I I #
coedge $-1 $497 $498 $381 $499 forward $239 $-1 #
coedge $-1 $374 $241 $242 $370 reversed $146 $-1 #
coedge $-1 $241 $374 $377 $500 reversed $146 $-1 #
coedge $-1 $498 $497 $241 $368 reversed $239 $-1 #
edge $-1 $501 -19.917204086659183 $502 19.917204086659183 $367 $503 forward 7 unknown #
coedge $-1 $243 $242 $497 $504 forward $93 $-1 #
edge $-1 $372 -9.7899133480529485 $502 9.7899133480529485 $365 $505 forward 7 unknown #
edge $-1 $506 -9.7899133480529485 $251 9.7899133480529485 $248 $507 forward 7 unknown #
vertex $-1 $370 $508 #
straight-curve $-1 -63.954588457899717 0 -19.917204086659183 0 -1 0 I I #
coedge $-1 $366 $365 $245 $375 reversed $146 $-1 #
edge $-1 $379 -19.917204086659183 $372 19.917204086659183 $374 $509 forward 7 unknown #
coedge $-1 $510 $246 $249 $382 forward $378 $-1 #
coedge $-1 $246 $510 $366 $500 forward $378 $-1 #
loop $-1 $-1 $246 $362 #
vertex $-1 $247 $511 #
straight-curve $-1 -63.954588457899717 0 19.917204086659183 0 1 0 I I #
coedge $-1 $249 $248 $364 $499 reversed $250 $-1 #
edge $-1 $252 -9.7899133480529485 $512 9.7899133480529485 $249 $513 forward 7 unknown #
point $-1 -63.954588457899717 -3.2410087226581794 -19.917204086659183 #
point $-1 -63.954588457899717 -3.2410087226581794 19.917204086659183 #
face $-1 $-1 $399 $35 $-1 $514 forward single #
loop $-1 $-1 $515 $254 #
plane-surface $-1 83.534415154005615 -6.7781101448414276 0 -1 0 0 0 0 1 forward_v I I I I #
coedge $-1 $390 $516 $517 $518 forward $255 $-1 #
coedge $-1 $258 $257 $519 $520 forward $97 $-1 #
coedge $-1 $395 $388 $257 $391 reversed $255 $-1 #
edge $-1 $393 -9.7899133480529485 $521 9.7899133480529485 $390 $522 forward 7 unknown #
edge $-1 $523 -9.7899133480529485 $265 9.7899133480529485 $263 $524 forward 7 unknown #
vertex $-1 $391 $525 #
straight-curve $-1 63.954588457899717 0 -19.917204086659183 0 1 0 I I #
coedge $-1 $516 $390 $260 $396 reversed $255 $-1 #
edge $-1 $400 -19.917204086659183 $393 19.917204086659183 $395 $526 forward 7 unknown #
coedge $-1 $527 $261 $264 $403 forward $399 $-1 #
coedge $-1 $261 $527 $516 $528 forward $399 $-1 #
loop $-1 $-1 $261 $385 #
vertex $-1 $262 $529 #
straight-curve $-1 63.954588457899717 0 19.917204086659183 0 -1 0 I I #
coedge $-1 $264 $263 $515 $530 reversed $154 $-1 #
edge $-1 $266 -9.7899133480529485 $531 9.7899133480529485 $264 $532 forward 7 unknown #
point $-1 63.954588457899717 -10.315211567024676 -19.917204086659183 #
point $-1 63.954588457899717 -10.315211567024676 19.917204086659183 #
plane-surface $-1 0 0 19.917204086659183 0 0 1 1 0 0 forward_v I I I I #
coedge $-1 $417 $416 $409 $533 forward $269 $-1 #
coedge $-1 $409 $271 $273 $413 reversed $162 $-1 #
coedge $-1 $271 $408 $407 $533 reversed $162 $-1 #
coedge $-1 $279 $274 $271 $411 forward $280 $-1 #
edge $-1 $414 -12.968381707007978 $534 2.8332658709353638 $410 $535 forward 7 unknown #
coedge $-1 $273 $272 $417 $536 reversed $101 $-1 #
edge $-1 $537 -86.15083379195309 $414 -62.535641712901018 $408 $538 forward 7 unknown #
vertex $-1 $275 $539 #
straight-curve $-1 -18.579451514531875 27.273769318033203 19.917204086659179 1 0 0 I I #
coedge $-1 $407 $276 $279 $421 reversed $269 $-1 #
coedge $-1 $276 $407 $412 $536 forward $269 $-1 #
vertex $-1 $277 $540 #
straight-curve $-1 -44.37476176179382 43.075416895976545 75.989093541752368 0 0 1 I I #
straight-curve $-1 -44.37476176179382 -14.570741965207674 66.390243151379849 0 0.66913059716165679 -0.74314483375859142 I I #
edge $-1 $534 29.943044296333685 $281 44.37476176179382 $416 $541 forward 7 unknown #
point $-1 -44.37476176179382 43.075416895976545 19.917204086659183 #
point $-1 -44.37476176179382 27.273769318033203 19.917204086659183 #
edge $-1 $542 1 $542 0 $284 $-1 forward 7 unknown #
vertex $-1 $285 $543 #
ellipse-curve $-1 -41.488418268701793 34.431448273246282 10.473319493615364 0 0.74314483375859142 0.66913059716165679 0.5 0 0 1 I I #
point $-1 -40.988418268701793 35.174593107004874 11.142450090777022 #
edge $-1 $544 1 $544 0 $288 $-1 forward 7 unknown #
vertex $-1 $289 $545 #
ellipse-curve $-1 -37.158903029063751 34.431448273246282 10.473319493615364 0 0.74314483375859142 0.66913059716165679 0.5 0 0 1 I I #
point $-1 -36.658903029063751 35.174593107004874 11.142450090777022 #
edge $-1 $546 1 $546 0 $292 $-1 forward 7 unknown #
vertex $-1 $293 $547 #
ellipse-curve $-1 -32.829387789425709 34.431448273246282 10.473319493615364 0 0.74314483375859142 0.66913059716165679 0.5 0 0 1 I I #
point $-1 -32.329387789425709 35.174593107004874 11.142450090777022 #
loop $-1 $-1 $304 $296 #
plane-surface $-1 0 -43.075416895976545 0 0 1 0 0 0 1 forward_v I I I I #
coedge $-1 $439 $299 $301 $443 reversed $191 $-1 #
coedge $-1 $299 $438 $548 $549 reversed $191 $-1 #
coedge $-1 $307 $302 $299 $441 forward $297 $-1 #
edge $-1 $444 -36.259437813633681 $550 -29.538697450909822 $440 $551 forward 7 unknown #
coedge $-1 $301 $300 $447 $552 reversed $120 $-1 #
edge $-1 $553 2.4157584020108747e-014 $444 11.167452167278771 $438 $554 forward 7 unknown #
vertex $-1 $303 $555 #
straight-curve $-1 -5.9465665829520162 -36.354676533252686 19.917204086659183 -1 0 0 I I #
coedge $-1 $548 $304 $307 $451 reversed $436 $-1 #
coedge $-1 $304 $548 $442 $552 forward $436 $-1 #
vertex $-1 $305 $556 #
straight-curve $-1 -6.7475188347137554 -43.075416895976545 43.988071504137579 0 0 1 I I #
straight-curve $-1 -6.7475188347137554 -43.075416895976559 10.998480137275308 0 -0.60181501223851219 -0.79863551827123203 I I #
edge $-1 $550 -17.03874749709431 $308 -6.7475188347137554 $446 $557 forward 7 unknown #
point $-1 -6.7475188347137554 -43.075416895976545 19.917204086659183 #
point $-1 -6.7475188347137554 -36.354676533252686 19.917204086659183 #
edge $-1 $558 1 $558 0 $311 $-1 forward 7 unknown #
vertex $-1 $312 $559 #
ellipse-curve $-1 -11.893133165904032 -34.413822256690828 11.463083064773215 0 -0.79863551827123203 0.60181501223851219 2.5 0 0 1 I I #
point $-1 -9.3931331659040325 -39.715046714614616 15.457842111967253 #
plane-surface $-1 0 0 19.917204086659183 0 0 1 1 0 0 forward_v I I I I #
coedge $-1 $469 $468 $461 $560 forward $316 $-1 #
coedge $-1 $461 $318 $320 $465 reversed $206 $-1 #
coedge $-1 $318 $460 $459 $560 reversed $206 $-1 #
coedge $-1 $326 $321 $318 $463 forward $327 $-1 #
edge $-1 $466 -36.259437813633681 $561 -29.538697450909822 $462 $562 forward 7 unknown #
coedge $-1 $320 $319 $469 $563 reversed $129 $-1 #
edge $-1 $564 2.4157584020108747e-014 $466 11.167452167278771 $460 $565 forward 7 unknown #
vertex $-1 $322 $566 #
straight-curve $-1 5.9465665829520304 -36.354676533252686 19.917204086659183 -1 0 0 I I #
coedge $-1 $459 $323 $326 $473 reversed $316 $-1 #
coedge $-1 $323 $459 $464 $563 forward $316 $-1 #
vertex $-1 $324 $567 #
straight-curve $-1 17.038747497094338 -43.075416895976545 43.988071504137579 0 0 1 I I #
straight-curve $-1 17.038747497094338 -43.075416895976559 10.998480137275308 0 -0.60181501223851219 -0.79863551827123203 I I #
edge $-1 $561 6.7475188347137838 $328 17.038747497094338 $468 $568 forward 7 unknown #
point $-1 17.038747497094338 -43.075416895976545 19.917204086659183 #
point $-1 17.038747497094338 -36.354676533252686 19.917204086659183 #
edge $-1 $569 1 $569 0 $331 $-1 forward 7 unknown #
vertex $-1 $332 $570 #
ellipse-curve $-1 11.893133165904061 -34.413822256690828 11.463083064773215 0 -0.79863551827123203 0.60181501223851219 2.5 0 0 1 I I #
point $-1 14.393133165904061 -39.715046714614616 15.457842111967253 #
plane-surface $-1 0 43.075416895976545 0 0 -1 0 0 0 -1 forward_v I I I I #
coedge $-1 $339 $338 $341 $485 forward $138 $-1 #
edge $-1 $352 -63.954588457899717 $488 63.954588457899717 $350 $571 forward 7 unknown #
edge $-1 $486 -63.954588457899717 $356 63.954588457899717 $354 $572 forward 7 unknown #
straight-curve $-1 63.954588457899717 0 19.917204086659183 0 1 0 I I #
edge $-1 $488 -43.075416895976545 $486 43.075416895976545 $341 $573 forward 7 unknown #
vertex $-1 $485 $574 #
straight-curve $-1 -63.954588457899717 -43.075416895976545 0 0 0 -1 I I #
vertex $-1 $482 $575 #
straight-curve $-1 -63.954588457899717 43.075416895976545 0 0 0 -1 I I #
point $-1 -63.954588457899717 -43.075416895976545 -19.917204086659183 #
point $-1 -63.954588457899717 43.075416895976545 -19.917204086659183 #
point $-1 63.954588457899717 43.075416895976545 19.917204086659183 #
point $-1 63.954588457899717 -43.075416895976545 19.917204086659183 #
straight-curve $-1 0 -43.075416895976545 -19.917204086659183 -1 0 0 I I #
straight-curve $-1 0 43.075416895976545 -19.917204086659183 1 0 0 I I #
plane-surface $-1 0 0 19.917204086659183 0 0 1 1 0 0 forward_v I I I I #
coedge $-1 $367 $364 $369 $504 reversed $239 $-1 #
coedge $-1 $364 $367 $510 $576 reversed $239 $-1 #
edge $-1 $512 -19.917204086659183 $506 19.917204086659183 $381 $577 forward 7 unknown #
edge $-1 $501 -9.7899133480529485 $379 9.7899133480529485 $366 $578 forward 7 unknown #
vertex $-1 $576 $579 #
vertex $-1 $504 $580 #
straight-curve $-1 -83.534415154005615 -10.315211567024676 0 0 0 -1 I I #
edge $-1 $502 -3.5371014221832482 $506 3.5371014221832482 $497 $581 forward 7 unknown #
straight-curve $-1 -73.744501805952666 -10.315211567024676 -19.917204086659183 -1 0 0 I I #
vertex $-1 $371 $582 #
straight-curve $-1 -73.744501805952666 -3.2410087226581794 -19.917204086659183 1 0 0 I I #
point $-1 -63.954588457899717 -10.315211567024676 -19.917204086659183 #
straight-curve $-1 -63.954588457899717 -10.315211567024676 0 0 0 -1 I I #
coedge $-1 $377 $376 $498 $576 forward $378 $-1 #
point $-1 -63.954588457899717 -10.315211567024676 19.917204086659183 #
vertex $-1 $382 $583 #
straight-curve $-1 -73.744501805952666 -3.2410087226581794 19.917204086659183 -1 0 0 I I #
plane-surface $-1 0 0 19.917204086659183 0 0 1 1 0 0 forward_v I I I I #
coedge $-1 $519 $584 $402 $530 forward $386 $-1 #
coedge $-1 $388 $395 $398 $528 reversed $255 $-1 #
coedge $-1 $584 $519 $388 $518 reversed $386 $-1 #
edge $-1 $585 -19.917204086659183 $521 19.917204086659183 $517 $586 forward 7 unknown #
coedge $-1 $517 $515 $389 $520 reversed $386 $-1 #
edge $-1 $521 -3.5371014221832482 $523 3.5371014221832482 $519 $587 forward 7 unknown #
vertex $-1 $520 $588 #
straight-curve $-1 73.744501805952666 -3.2410087226581794 -19.917204086659183 1 0 0 I I #
vertex $-1 $530 $589 #
straight-curve $-1 73.744501805952666 -10.315211567024676 -19.917204086659183 -1 0 0 I I #
point $-1 63.954588457899717 -3.2410087226581794 -19.917204086659183 #
straight-curve $-1 63.954588457899717 -3.2410087226581794 0 0 0 -1 I I #
coedge $-1 $398 $397 $584 $590 forward $399 $-1 #
edge $-1 $585 -9.7899133480529485 $400 9.7899133480529485 $516 $591 forward 7 unknown #
point $-1 63.954588457899717 -3.2410087226581794 19.917204086659183 #
edge $-1 $531 -19.917204086659183 $523 19.917204086659183 $515 $592 forward 7 unknown #
vertex $-1 $590 $593 #
straight-curve $-1 73.744501805952666 -10.315211567024676 19.917204086659183 1 0 0 I I #
edge $-1 $534 56.071889455093185 $537 73.621397446857543 $407 $594 forward 7 unknown #
vertex $-1 $421 $595 #
straight-curve $-1 -29.943044296333685 40.242151025041181 19.917204086659183 0 1 0 I I #
edge $-1 $537 11.36359278180181 $418 25.795310247261945 $417 $596 forward 7 unknown #
vertex $-1 $536 $597 #
straight-curve $-1 -29.943044296333685 -14.570741965207674 66.390243151379849 0 -0.66913059716165679 0.74314483375859142 I I #
point $-1 -29.943044296333685 27.273769318033203 19.917204086659183 #
point $-1 -44.37476176179382 43.075416895976545 2.3676960948948249 #
straight-curve $-1 0 43.075416895976545 19.917204086659183 -1 0 0 I I #
vertex $-1 $424 $598 #
point $-1 -40.988418268701793 34.431448273246282 10.473319493615364 #
vertex $-1 $428 $599 #
point $-1 -36.658903029063751 34.431448273246282 10.473319493615364 #
vertex $-1 $432 $600 #
point $-1 -32.329387789425709 34.431448273246282 10.473319493615364 #
coedge $-1 $447 $446 $439 $549 forward $436 $-1 #
edge $-1 $550 24.070867417478397 $553 32.98959136686225 $548 $601 forward 7 unknown #
vertex $-1 $451 $602 #
straight-curve $-1 -17.03874749709431 -72.614114346886367 19.917204086659183 0 -1 0 I I #
edge $-1 $553 -11.092180914142293 $448 -0.80095225176173912 $447 $603 forward 7 unknown #
vertex $-1 $552 $604 #
straight-curve $-1 -17.03874749709431 -43.075416895976559 10.998480137275308 0 0.60181501223851219 0.79863551827123203 I I #
point $-1 -17.03874749709431 -36.354676533252686 19.917204086659183 #
point $-1 -6.7475188347137554 -43.075416895976545 10.998480137275328 #
straight-curve $-1 0 -43.075416895976545 19.917204086659183 1 0 0 I I #
vertex $-1 $454 $605 #
point $-1 -9.3931331659040325 -34.413822256690828 11.463083064773215 #
edge $-1 $561 24.070867417478397 $564 32.98959136686225 $459 $606 forward 7 unknown #
vertex $-1 $473 $607 #
straight-curve $-1 6.7475188347137838 -72.614114346886367 19.917204086659183 0 -1 0 I I #
edge $-1 $564 0.80095225176175333 $470 11.092180914142308 $469 $608 forward 7 unknown #
vertex $-1 $563 $609 #
straight-curve $-1 6.7475188347137838 -43.075416895976559 10.998480137275308 0 0.60181501223851219 0.79863551827123203 I I #
point $-1 6.7475188347137838 -36.354676533252686 19.917204086659183 #
point $-1 17.038747497094338 -43.075416895976545 10.998480137275328 #
straight-curve $-1 0 -43.075416895976545 19.917204086659183 1 0 0 I I #
vertex $-1 $476 $610 #
point $-1 14.393133165904061 -34.413822256690828 11.463083064773215 #
straight-curve $-1 0 43.075416895976545 19.917204086659183 -1 0 0 I I #
straight-curve $-1 0 -43.075416895976545 19.917204086659183 1 0 0 I I #
straight-curve $-1 -63.954588457899717 0 19.917204086659183 0 -1 0 I I #
point $-1 -63.954588457899717 -43.075416895976545 19.917204086659183 #
point $-1 -63.954588457899717 43.075416895976545 19.917204086659183 #
edge $-1 $512 -3.5371014221832482 $501 3.5371014221832482 $498 $611 forward 7 unknown #
straight-curve $-1 -83.534415154005615 -3.2410087226581794 0 0 0 -1 I I #
straight-curve $-1 -73.744501805952666 -10.315211567024676 19.917204086659183 1 0 0 I I #
point $-1 -83.534415154005615 -10.315211567024676 19.917204086659183 #
point $-1 -83.534415154005615 -10.315211567024676 -19.917204086659183 #
straight-curve $-1 -83.534415154005615 -6.7781101448414276 -19.917204086659183 0 1 0 I I #
point $-1 -83.534415154005615 -3.2410087226581794 -19.917204086659183 #
point $-1 -83.534415154005615 -3.2410087226581794 19.917204086659183 #
coedge $-1 $515 $517 $527 $590 reversed $386 $-1 #
vertex $-1 $590 $612 #
straight-curve $-1 83.534415154005615 -3.2410087226581794 0 0 0 -1 I I #
straight-curve $-1 83.534415154005615 -6.7781101448414276 -19.917204086659183 0 -1 0 I I #
point $-1 83.534415154005615 -3.2410087226581794 -19.917204086659183 #
point $-1 83.534415154005615 -10.315211567024676 -19.917204086659183 #
edge $-1 $531 -3.5371014221832482 $585 3.5371014221832482 $584 $613 forward 7 unknown #
straight-curve $-1 73.744501805952666 -3.2410087226581794 19.917204086659183 -1 0 0 I I #
straight-curve $-1 83.534415154005615 -10.315211567024676 0 0 0 -1 I I #
point $-1 83.534415154005615 -10.315211567024676 19.917204086659183 #
straight-curve $-1 -29.943044296333685 43.075416895976545 75.989093541752368 0 0 -1 I I #
point $-1 -29.943044296333685 43.075416895976545 19.917204086659183 #
straight-curve $-1 -18.579451514531875 43.075416895976545 2.3676960948948214 -1 0 0 I I #
point $-1 -29.943044296333685 43.075416895976545 2.3676960948948249 #
point $-1 -41.488418268701793 34.059875856366993 10.138754195034537 #
point $-1 -37.158903029063751 34.059875856366993 10.138754195034537 #
point $-1 -32.829387789425709 34.059875856366993 10.138754195034537 #
straight-curve $-1 -17.03874749709431 -43.075416895976545 43.988071504137579 0 0 -1 I I #
point $-1 -17.03874749709431 -43.075416895976545 19.917204086659183 #
straight-curve $-1 -5.9465665829520162 -43.075416895976545 10.998480137275324 1 0 0 I I #
point $-1 -17.03874749709431 -43.075416895976545 10.998480137275328 #
point $-1 -11.893133165904032 -32.417233461012749 9.9585455341769347 #
straight-curve $-1 6.7475188347137838 -43.075416895976545 43.988071504137579 0 0 -1 I I #
point $-1 6.7475188347137838 -43.075416895976545 19.917204086659183 #
straight-curve $-1 5.9465665829520304 -43.075416895976545 10.998480137275324 1 0 0 I I #
point $-1 6.7475188347137838 -43.075416895976545 10.998480137275328 #
point $-1 11.893133165904061 -32.417233461012749 9.9585455341769347 #
straight-curve $-1 -83.534415154005615 -6.7781101448414276 19.917204086659183 0 -1 0 I I #
point $-1 83.534415154005615 -3.2410087226581794 19.917204086659183 #
straight-curve $-1 83.534415154005615 -6.7781101448414276 19.917204086659183 0 1 0 I I #
End-of-ACIS-data 