500 0 5 0           
7 Unknown 11 ACIS 5.0 NT 24 Fri Mar 26 03:19:52 1999 
-1 9.9999999999999995e-007 1e-010 
body $-1 $5 $-1 $6 #
body $-1 $7 $-1 $8 #
body $-1 $9 $-1 $10 #
body $-1 $11 $-1 $12 #
body $-1 $13 $-1 $14 #
lump $-1 $-1 $15 $0 #
transform $-1 1 0 0 0 1 0 0 0 1 56.085695974608598 34.572799772427494 11.006699809747891 1 rotate no_reflect no_shear #
lump $-1 $-1 $16 $1 #
transform $-1 1 0 0 0 1 0 0 0 1 56.085695974608598 34.572799772427494 11.006699809747891 1 rotate no_reflect no_shear #
lump $-1 $-1 $17 $2 #
transform $-1 1 0 0 0 1 0 0 0 1 56.085695974608598 34.572799772427494 11.006699809747891 1 rotate no_reflect no_shear #
lump $-1 $-1 $18 $3 #
transform $-1 1 0 0 0 1 0 0 0 1 56.085695974608598 34.572799772427494 11.006699809747891 1 rotate no_reflect no_shear #
lump $-1 $-1 $19 $4 #
transform $-1 1 0 0 0 1 0 0 0 1 56.085695974608598 34.572799772427494 11.006699809747891 1 rotate no_reflect no_shear #
shell $-1 $-1 $-1 $20 $-1 $5 #
shell $-1 $-1 $-1 $21 $-1 $7 #
shell $-1 $-1 $-1 $22 $-1 $9 #
shell $-1 $-1 $-1 $23 $-1 $11 #
shell $-1 $-1 $-1 $24 $-1 $13 #
face $-1 $25 $26 $15 $-1 $27 forward single #
face $-1 $28 $29 $16 $-1 $30 forward single #
face $-1 $31 $32 $17 $-1 $33 reversed single #
face $-1 $34 $35 $18 $-1 $36 reversed single #
face $-1 $37 $38 $19 $-1 $39 reversed single #
face $-1 $40 $41 $15 $-1 $42 reversed single #
loop $-1 $-1 $43 $20 #
plane-surface $-1 0 0 11.006699809747891 0 0 1 1 0 0 forward_v I I I I #
face $-1 $44 $45 $16 $-1 $46 forward single #
loop $-1 $-1 $47 $21 #
plane-surface $-1 -118.81114314026915 -2.330674150716554 100.29384148919229 0 1 0 -0.55919291073839883 0 0.82903756765294845 forward_v I I I I #
face $-1 $48 $49 $17 $-1 $50 reversed single #
loop $-1 $51 $52 $22 #
cone-surface $-1 -52.883551317310229 1.3331331200671031 8.4798876126476834 0.55919291073839883 0 -0.82903756765294845 0.82903756765294845 0 0.55919291073839883 1 I I 0 1 1 forward I I I I #
face $-1 $53 $54 $18 $-1 $55 reversed single #
loop $-1 $56 $57 $23 #
cone-surface $-1 -52.883551317310229 6.8288440262425922 8.4798876126476834 0.55919291073839883 0 -0.82903756765294845 0.82903756765294845 0 0.55919291073839883 1 I I 0 1 1 forward I I I I #
face $-1 $58 $59 $19 $-1 $60 reversed single #
loop $-1 $61 $62 $24 #
cone-surface $-1 -52.883551317310229 12.324554932418081 8.4798876126476834 0.55919291073839883 0 -0.82903756765294845 0.82903756765294845 0 0.55919291073839883 1 I I 0 1 1 forward I I I I #
face $-1 $63 $64 $15 $-1 $65 reversed single #
loop $-1 $-1 $66 $25 #
plane-surface $-1 0 0 -11.006699809747891 0 0 1 1 0 0 forward_v I I I I #
coedge $-1 $67 $68 $69 $70 forward $26 $-1 #
face $-1 $71 $72 $16 $-1 $73 forward single #
loop $-1 $-1 $74 $28 #
plane-surface $-1 -56.085695974608591 6.8288440262425922 7.2995435473677475 -0.55919291073839883 0 0.82903756765294845 0.82903756765294845 0 0.55919291073839883 forward_v I I I I #
coedge $-1 $75 $76 $77 $78 reversed $29 $-1 #
face $-1 $79 $80 $17 $-1 $81 forward single #
loop $-1 $82 $83 $31 #
cone-surface $-1 -52.149852742069264 1.3331331200671031 7.3921347629110787 0.55919291073839883 0 -0.82903756765294845 0.41451878382647422 0 0.27959645536919941 1 I I -0.70710678118654746 0.70710678118654746 0.5 forward I I I I #
loop $-1 $-1 $84 $22 #
coedge $-1 $52 $52 $85 $86 reversed $32 $-1 #
face $-1 $87 $88 $18 $-1 $89 reversed single #
loop $-1 $90 $91 $34 #
cone-surface $-1 -52.149852742069264 6.8288440262425922 7.3921347629110787 0.55919291073839883 0 -0.82903756765294845 0.41451878382647422 0 0.27959645536919941 1 I I -0.70710678118654746 0.70710678118654746 0.5 forward I I I I #
loop $-1 $-1 $92 $23 #
coedge $-1 $57 $57 $93 $94 reversed $35 $-1 #
face $-1 $95 $96 $19 $-1 $97 reversed single #
loop $-1 $98 $99 $37 #
cone-surface $-1 -52.149852742069264 12.324554932418081 7.3921347629110787 0.55919291073839883 0 -0.82903756765294845 0.41451878382647422 0 0.27959645536919941 1 I I -0.70710678118654746 0.70710678118654746 0.5 forward I I I I #
loop $-1 $-1 $100 $24 #
coedge $-1 $62 $62 $101 $102 reversed $38 $-1 #
face $-1 $103 $104 $15 $-1 $105 reversed single #
loop $-1 $-1 $106 $40 #
plane-surface $-1 0 -34.572799772427494 0 0 1 0 0 0 1 forward_v I I I I #
coedge $-1 $107 $108 $109 $110 forward $41 $-1 #
coedge $-1 $111 $43 $112 $113 forward $26 $-1 #
coedge $-1 $43 $111 $114 $115 forward $26 $-1 #
coedge $-1 $116 $117 $43 $70 reversed $118 $-1 #
edge $-1 $119 -34.572799772427494 $120 34.572799772427494 $69 $121 forward 7 unknown #
face $-1 $122 $123 $16 $-1 $124 forward single #
loop $-1 $-1 $125 $44 #
plane-surface $-1 -118.81114314026915 15.988362203201739 100.29384148919229 0 -1 0 0.55919291073839883 0 -0.82903756765294845 forward_v I I I I #
coedge $-1 $126 $127 $128 $129 reversed $45 $-1 #
coedge $-1 $76 $47 $127 $130 forward $29 $-1 #
coedge $-1 $47 $75 $131 $132 reversed $29 $-1 #
coedge $-1 $133 $128 $47 $78 forward $123 $-1 #
edge $-1 $134 -8.8159606703791837 $135 -3.3198755955259784 $77 $136 forward 7 unknown #
face $-1 $137 $138 $17 $-1 $139 forward single #
loop $-1 $-1 $140 $48 #
plane-surface $-1 -118.81114314026915 -2.330674150716554 100.29384148919229 0 1 0 -0.55919291073839883 0 0.82903756765294845 forward_v I I I I #
loop $-1 $-1 $141 $31 #
coedge $-1 $83 $83 $84 $142 forward $49 $-1 #
coedge $-1 $84 $84 $83 $142 reversed $51 $-1 #
coedge $-1 $85 $85 $52 $86 forward $138 $-1 #
edge $-1 $143 0 $143 6.2831853071796004 $85 $144 forward 7 unknown #
face $-1 $145 $146 $18 $-1 $147 reversed single #
loop $-1 $148 $149 $53 #
cone-surface $-1 -52.883551317310229 1.3331331200671031 8.4798876126476834 0.55919291073839883 0 -0.82903756765294845 0.82903756765294845 0 0.55919291073839883 1 I I 0 1 1 forward I I I I #
loop $-1 $-1 $150 $34 #
coedge $-1 $91 $91 $92 $151 forward $54 $-1 #
coedge $-1 $92 $92 $91 $151 reversed $56 $-1 #
coedge $-1 $93 $93 $57 $94 forward $152 $-1 #
edge $-1 $153 0 $153 6.2831853071796004 $93 $154 forward 7 unknown #
face $-1 $155 $156 $19 $-1 $157 reversed single #
loop $-1 $158 $159 $58 #
cone-surface $-1 -52.883551317310229 6.8288440262425922 8.4798876126476834 0.55919291073839883 0 -0.82903756765294845 0.82903756765294845 0 0.55919291073839883 1 I I 0 1 1 forward I I I I #
loop $-1 $-1 $160 $37 #
coedge $-1 $99 $99 $100 $161 forward $59 $-1 #
coedge $-1 $100 $100 $99 $161 reversed $61 $-1 #
coedge $-1 $101 $101 $62 $102 forward $162 $-1 #
edge $-1 $163 0 $163 6.2831853071796004 $101 $164 forward 7 unknown #
face $-1 $165 $166 $15 $-1 $167 reversed single #
loop $-1 $-1 $168 $63 #
plane-surface $-1 -56.085695974608598 0 0 1 0 0 0 0 -1 forward_v I I I I #
coedge $-1 $169 $114 $170 $171 forward $64 $-1 #
coedge $-1 $172 $66 $169 $173 forward $41 $-1 #
coedge $-1 $66 $172 $174 $175 forward $41 $-1 #
coedge $-1 $117 $116 $66 $110 reversed $118 $-1 #
edge $-1 $176 -34.572799772427494 $177 34.572799772427494 $109 $178 forward 7 unknown #
coedge $-1 $68 $67 $179 $180 forward $26 $-1 #
coedge $-1 $181 $182 $67 $113 reversed $166 $-1 #
edge $-1 $120 -56.085695974608598 $183 56.085695974608598 $112 $184 forward 7 unknown #
coedge $-1 $106 $185 $68 $115 reversed $64 $-1 #
edge $-1 $186 -56.085695974608598 $119 56.085695974608598 $114 $187 forward 7 unknown #
coedge $-1 $109 $69 $185 $188 forward $118 $-1 #
coedge $-1 $69 $109 $181 $189 reversed $118 $-1 #
loop $-1 $-1 $116 $165 #
vertex $-1 $70 $190 #
vertex $-1 $70 $191 #
straight-curve $-1 56.085695974608598 0 11.006699809747891 0 1 0 I I #
face $-1 $192 $193 $16 $-1 $194 reversed single #
loop $-1 $-1 $195 $71 #
plane-surface $-1 0 0 11.006699809747891 0 0 1 1 0 0 forward_v I I I I #
coedge $-1 $196 $197 $195 $198 reversed $72 $-1 #
coedge $-1 $199 $74 $197 $200 reversed $45 $-1 #
coedge $-1 $74 $199 $75 $130 reversed $45 $-1 #
coedge $-1 $77 $195 $74 $129 forward $123 $-1 #
edge $-1 $201 -12.573940190080442 $134 5.7450961638378502 $128 $202 forward 7 unknown #
edge $-1 $134 -6.6294765029924045 $203 8.3739815925159718e-015 $75 $204 forward 7 unknown #
coedge $-1 $205 $206 $76 $132 forward $207 $-1 #
edge $-1 $135 39.140220934848251 $203 42.847377197228404 $131 $208 forward 7 unknown #
coedge $-1 $209 $77 $206 $210 forward $123 $-1 #
vertex $-1 $129 $211 #
vertex $-1 $210 $212 #
straight-curve $-1 -59.405571570134576 -2.330674150716554 11.006699809747893 -1 0 0 I I #
face $-1 $213 $214 $17 $-1 $215 forward single #
loop $-1 $216 $85 $79 #
plane-surface $-1 -56.085695974608591 6.8288440262425922 7.2995435473677475 -0.55919291073839883 0 0.82903756765294845 0.82903756765294845 0 0.55919291073839883 forward_v I I I I #
coedge $-1 $217 $218 $219 $220 reversed $80 $-1 #
coedge $-1 $141 $141 $-1 $221 forward $82 $-1 #
edge $-1 $222 0 $222 6.2831853071796004 $83 $223 forward 7 unknown #
vertex $-1 $86 $224 #
ellipse-curve $-1 -53.337653437181991 1.3331331200671031 9.1531216785578184 0.55919291073839883 0 -0.82903756765294845 0.82903756765294845 0 0.55919291073839883 1 I I #
face $-1 $225 $226 $18 $-1 $227 forward single #
loop $-1 $228 $229 $87 #
cone-surface $-1 -52.149852742069264 1.3331331200671031 7.3921347629110787 0.55919291073839883 0 -0.82903756765294845 0.41451878382647422 0 0.27959645536919941 1 I I -0.70710678118654746 0.70710678118654746 0.5 forward I I I I #
loop $-1 $-1 $230 $53 #
coedge $-1 $149 $149 $231 $232 reversed $88 $-1 #
coedge $-1 $150 $150 $-1 $233 forward $90 $-1 #
edge $-1 $234 0 $234 6.2831853071796004 $91 $235 forward 7 unknown #
loop $-1 $236 $93 $225 #
vertex $-1 $94 $237 #
ellipse-curve $-1 -53.337653437181991 6.8288440262425922 9.1531216785578184 0.55919291073839883 0 -0.82903756765294845 0.82903756765294845 0 0.55919291073839883 1 I I #
face $-1 $238 $239 $19 $-1 $240 reversed single #
loop $-1 $241 $242 $95 #
cone-surface $-1 -52.149852742069264 6.8288440262425922 7.3921347629110787 0.55919291073839883 0 -0.82903756765294845 0.41451878382647422 0 0.27959645536919941 1 I I -0.70710678118654746 0.70710678118654746 0.5 forward I I I I #
loop $-1 $-1 $243 $58 #
coedge $-1 $159 $159 $244 $245 reversed $96 $-1 #
coedge $-1 $160 $160 $-1 $246 forward $98 $-1 #
edge $-1 $247 0 $247 6.2831853071796004 $99 $248 forward 7 unknown #
loop $-1 $249 $101 $250 #
vertex $-1 $102 $251 #
ellipse-curve $-1 -53.337653437181991 12.324554932418081 9.1531216785578184 0.55919291073839883 0 -0.82903756765294845 0.82903756765294845 0 0.55919291073839883 1 I I #
face $-1 $-1 $118 $15 $-1 $252 reversed single #
loop $-1 $-1 $181 $103 #
plane-surface $-1 0 34.572799772427494 0 0 -1 0 0 0 -1 forward_v I I I I #
coedge $-1 $253 $179 $182 $254 forward $104 $-1 #
coedge $-1 $185 $106 $107 $173 reversed $64 $-1 #
coedge $-1 $179 $253 $106 $171 reversed $104 $-1 #
edge $-1 $186 -11.006699809747891 $255 11.006699809747891 $170 $256 forward 7 unknown #
coedge $-1 $108 $107 $253 $257 forward $41 $-1 #
edge $-1 $177 -56.085695974608598 $255 56.085695974608598 $169 $258 forward 7 unknown #
coedge $-1 $182 $181 $108 $175 reversed $166 $-1 #
edge $-1 $259 -56.085695974608598 $176 56.085695974608598 $174 $260 forward 7 unknown #
vertex $-1 $110 $261 #
vertex $-1 $188 $262 #
straight-curve $-1 56.085695974608598 0 -11.006699809747891 0 -1 0 I I #
coedge $-1 $168 $170 $111 $180 reversed $104 $-1 #
edge $-1 $183 -34.572799772427494 $186 34.572799772427494 $179 $263 forward 7 unknown #
coedge $-1 $174 $112 $117 $189 forward $166 $-1 #
coedge $-1 $112 $174 $168 $254 reversed $166 $-1 #
vertex $-1 $113 $264 #
straight-curve $-1 0 34.572799772427494 11.006699809747891 -1 0 0 I I #
coedge $-1 $114 $169 $116 $188 reversed $64 $-1 #
vertex $-1 $180 $265 #
straight-curve $-1 0 -34.572799772427494 11.006699809747891 1 0 0 I I #
edge $-1 $119 -11.006699809747891 $177 11.006699809747891 $116 $266 forward 7 unknown #
edge $-1 $120 -11.006699809747891 $176 11.006699809747891 $117 $267 forward 7 unknown #
point $-1 56.085695974608598 -34.572799772427494 11.006699809747891 #
point $-1 56.085695974608598 34.572799772427494 11.006699809747891 #
face $-1 $268 $269 $16 $-1 $270 reversed single #
loop $-1 $-1 $271 $122 #
plane-surface $-1 0 0 -11.006699809747891 0 0 1 1 0 0 forward_v I I I I #
coedge $-1 $128 $272 $125 $198 forward $123 $-1 #
coedge $-1 $197 $125 $273 $274 reversed $72 $-1 #
coedge $-1 $125 $196 $126 $200 forward $72 $-1 #
edge $-1 $275 3.3198755955259784 $201 8.8159606703791837 $195 $276 forward 7 unknown #
coedge $-1 $127 $126 $205 $277 reversed $45 $-1 #
edge $-1 $278 -8.3739815925159718e-015 $201 6.6294765029924045 $197 $279 forward 7 unknown #
vertex $-1 $129 $280 #
straight-curve $-1 -50.589610899755399 3.4144220131212961 11.006699809747889 0 -1 0 I I #
vertex $-1 $277 $281 #
straight-curve $-1 -56.085695974608591 -2.330674150716554 7.2995435473677475 -0.82903756765294845 0 -0.55919291073839883 I I #
coedge $-1 $273 $131 $199 $277 forward $207 $-1 #
coedge $-1 $131 $282 $133 $210 reversed $207 $-1 #
loop $-1 $-1 $273 $268 #
straight-curve $-1 -56.085695974608598 -2.330674150716554 50.146920744596144 0 0 -1 I I #
coedge $-1 $283 $133 $284 $285 forward $123 $-1 #
edge $-1 $135 2.330674150716554 $286 34.572799772427494 $206 $287 forward 7 unknown #
point $-1 -50.589610899755392 -2.330674150716554 11.006699809747891 #
point $-1 -56.085695974608598 -2.330674150716554 11.006699809747891 #
face $-1 $288 $289 $17 $-1 $290 forward single #
loop $-1 $-1 $291 $137 #
plane-surface $-1 -118.81114314026915 15.988362203201739 100.29384148919229 0 -1 0 0.55919291073839883 0 -0.82903756765294845 forward_v I I I I #
loop $-1 $-1 $292 $79 #
coedge $-1 $218 $140 $293 $294 forward $80 $-1 #
coedge $-1 $140 $217 $295 $296 reversed $80 $-1 #
coedge $-1 $297 $298 $140 $220 forward $289 $-1 #
edge $-1 $299 -8.8159606703791837 $300 -3.3198755955259784 $219 $301 forward 7 unknown #
edge $-1 $302 1 $302 0 $141 $-1 forward 7 unknown #
vertex $-1 $142 $303 #
ellipse-curve $-1 -52.429449197438466 1.3331331200671031 7.8066535467375529 -0.55919291073839883 0 0.82903756765294845 0.82903756765294845 0 0.55919291073839883 1 I I #
point $-1 -52.508615869529038 1.3331331200671031 9.7123145892962146 #
face $-1 $304 $152 $18 $-1 $305 forward single #
loop $-1 $-1 $306 $145 #
plane-surface $-1 -118.81114314026915 -2.330674150716554 100.29384148919229 0 1 0 -0.55919291073839883 0 0.82903756765294845 forward_v I I I I #
loop $-1 $-1 $307 $87 #
coedge $-1 $229 $229 $230 $308 forward $146 $-1 #
coedge $-1 $230 $230 $229 $308 reversed $148 $-1 #
coedge $-1 $231 $231 $149 $232 forward $236 $-1 #
edge $-1 $309 0 $309 6.2831853071796004 $231 $310 forward 7 unknown #
edge $-1 $311 1 $311 0 $150 $-1 forward 7 unknown #
vertex $-1 $151 $312 #
ellipse-curve $-1 -52.429449197438466 6.8288440262425922 7.8066535467375529 -0.55919291073839883 0 0.82903756765294845 0.82903756765294845 0 0.55919291073839883 1 I I #
loop $-1 $313 $231 $225 #
point $-1 -52.508615869529038 6.8288440262425922 9.7123145892962146 #
face $-1 $314 $315 $19 $-1 $316 reversed single #
loop $-1 $317 $318 $155 #
cone-surface $-1 -52.883551317310229 1.3331331200671031 8.4798876126476834 0.55919291073839883 0 -0.82903756765294845 0.82903756765294845 0 0.55919291073839883 1 I I 0 1 1 forward I I I I #
loop $-1 $-1 $319 $95 #
coedge $-1 $242 $242 $243 $320 forward $156 $-1 #
coedge $-1 $243 $243 $242 $320 reversed $158 $-1 #
coedge $-1 $244 $244 $159 $245 forward $249 $-1 #
edge $-1 $321 0 $321 6.2831853071796004 $244 $322 forward 7 unknown #
edge $-1 $323 1 $323 0 $160 $-1 forward 7 unknown #
vertex $-1 $161 $324 #
ellipse-curve $-1 -52.429449197438466 12.324554932418081 7.8066535467375529 -0.55919291073839883 0 0.82903756765294845 0.82903756765294845 0 0.55919291073839883 1 I I #
loop $-1 $325 $244 $250 #
face $-1 $326 $162 $19 $-1 $327 forward single #
point $-1 -52.508615869529038 12.324554932418081 9.7123145892962146 #
plane-surface $-1 56.085695974608598 0 0 -1 0 0 0 0 1 forward_v I I I I #
coedge $-1 $170 $168 $172 $257 reversed $104 $-1 #
edge $-1 $183 -11.006699809747891 $259 11.006699809747891 $182 $328 forward 7 unknown #
vertex $-1 $257 $329 #
straight-curve $-1 -56.085695974608598 -34.572799772427494 0 0 0 -1 I I #
edge $-1 $255 -34.572799772427494 $259 34.572799772427494 $253 $330 forward 7 unknown #
straight-curve $-1 0 -34.572799772427494 -11.006699809747891 -1 0 0 I I #
vertex $-1 $175 $331 #
straight-curve $-1 0 34.572799772427494 -11.006699809747891 1 0 0 I I #
point $-1 56.085695974608598 34.572799772427494 -11.006699809747891 #
point $-1 56.085695974608598 -34.572799772427494 -11.006699809747891 #
straight-curve $-1 -56.085695974608598 0 11.006699809747891 0 -1 0 I I #
point $-1 -56.085695974608598 34.572799772427494 11.006699809747891 #
point $-1 -56.085695974608598 -34.572799772427494 11.006699809747891 #
straight-curve $-1 56.085695974608598 -34.572799772427494 0 0 0 -1 I I #
straight-curve $-1 56.085695974608598 34.572799772427494 0 0 0 -1 I I #
face $-1 $332 $207 $16 $-1 $333 reversed single #
loop $-1 $-1 $334 $192 #
plane-surface $-1 0 -34.572799772427494 0 0 1 0 0 0 1 forward_v I I I I #
coedge $-1 $335 $336 $337 $338 forward $193 $-1 #
coedge $-1 $195 $339 $340 $341 forward $123 $-1 #
coedge $-1 $340 $205 $196 $274 forward $207 $-1 #
edge $-1 $278 -42.847377197228404 $275 -39.140220934848251 $273 $342 forward 7 unknown #
vertex $-1 $274 $343 #
straight-curve $-1 -59.405571570134576 15.988362203201739 11.006699809747893 1 0 0 I I #
edge $-1 $203 -5.7450961638378502 $278 12.573940190080442 $205 $344 forward 7 unknown #
vertex $-1 $277 $345 #
straight-curve $-1 -56.085695974608591 15.988362203201739 7.2995435473677475 0.82903756765294845 0 0.55919291073839883 I I #
point $-1 -50.589610899755392 15.988362203201739 11.006699809747891 #
point $-1 -56.085695974608598 -2.330674150716554 7.299543547367743 #
coedge $-1 $206 $346 $334 $347 reversed $207 $-1 #
coedge $-1 $339 $209 $348 $349 forward $123 $-1 #
coedge $-1 $334 $350 $209 $285 reversed $269 $-1 #
edge $-1 $286 -56.085695974608598 $351 56.085695974608598 $284 $352 forward 7 unknown #
vertex $-1 $210 $353 #
straight-curve $-1 -56.085695974608598 0 11.006699809747891 0 -1 0 I I #
face $-1 $354 $355 $17 $-1 $356 reversed single #
loop $-1 $-1 $357 $213 #
plane-surface $-1 0 0 11.006699809747891 0 0 1 1 0 0 forward_v I I I I #
coedge $-1 $358 $359 $357 $360 reversed $214 $-1 #
coedge $-1 $361 $293 $298 $362 reversed $216 $-1 #
coedge $-1 $292 $363 $217 $294 reversed $216 $-1 #
edge $-1 $299 -6.6294765029924045 $364 8.3739815925159718e-015 $217 $365 forward 7 unknown #
coedge $-1 $366 $367 $218 $296 forward $368 $-1 #
edge $-1 $300 39.140220934848251 $364 42.847377197228404 $295 $369 forward 7 unknown #
coedge $-1 $370 $219 $367 $371 forward $289 $-1 #
coedge $-1 $219 $357 $292 $362 forward $289 $-1 #
vertex $-1 $362 $372 #
vertex $-1 $371 $373 #
straight-curve $-1 -59.405571570134576 -2.330674150716554 11.006699809747893 -1 0 0 I I #
vertex $-1 $221 $374 #
point $-1 -51.600411629785512 1.3331331200671031 8.3658464574759517 #
face $-1 $375 $376 $18 $-1 $377 forward single #
plane-surface $-1 -56.085695974608591 6.8288440262425922 7.2995435473677475 -0.55919291073839883 0 0.82903756765294845 0.82903756765294845 0 0.55919291073839883 forward_v I I I I #
coedge $-1 $378 $379 $380 $381 reversed $226 $-1 #
coedge $-1 $307 $307 $-1 $382 forward $228 $-1 #
edge $-1 $383 0 $383 6.2831853071796004 $229 $384 forward 7 unknown #
vertex $-1 $232 $385 #
ellipse-curve $-1 -53.337653437181991 1.3331331200671031 9.1531216785578184 0.55919291073839883 0 -0.82903756765294845 0.82903756765294845 0 0.55919291073839883 1 I I #
vertex $-1 $233 $386 #
point $-1 -51.600411629785512 6.8288440262425922 8.3658464574759517 #
loop $-1 $-1 $387 $225 #
face $-1 $250 $388 $19 $-1 $389 forward single #
loop $-1 $390 $391 $238 #
cone-surface $-1 -52.149852742069264 1.3331331200671031 7.3921347629110787 0.55919291073839883 0 -0.82903756765294845 0.41451878382647422 0 0.27959645536919941 1 I I -0.70710678118654746 0.70710678118654746 0.5 forward I I I I #
loop $-1 $-1 $392 $155 #
coedge $-1 $318 $318 $393 $394 reversed $239 $-1 #
coedge $-1 $319 $319 $-1 $395 forward $241 $-1 #
edge $-1 $396 0 $396 6.2831853071796004 $242 $397 forward 7 unknown #
vertex $-1 $245 $398 #
ellipse-curve $-1 -53.337653437181991 6.8288440262425922 9.1531216785578184 0.55919291073839883 0 -0.82903756765294845 0.82903756765294845 0 0.55919291073839883 1 I I #
vertex $-1 $246 $399 #
point $-1 -51.600411629785512 12.324554932418081 8.3658464574759517 #
loop $-1 $400 $393 $250 #
face $-1 $401 $402 $19 $-1 $403 forward single #
plane-surface $-1 -56.085695974608591 6.8288440262425922 7.2995435473677475 -0.55919291073839883 0 0.82903756765294845 0.82903756765294845 0 0.55919291073839883 forward_v I I I I #
straight-curve $-1 -56.085695974608598 34.572799772427494 0 0 0 -1 I I #
point $-1 -56.085695974608598 -34.572799772427494 -11.006699809747891 #
straight-curve $-1 -56.085695974608598 0 -11.006699809747891 0 1 0 I I #
point $-1 -56.085695974608598 34.572799772427494 -11.006699809747891 #
face $-1 $404 $405 $16 $-1 $406 reversed single #
plane-surface $-1 -56.085695974608598 0 0 1 0 0 0 0 -1 forward_v I I I I #
coedge $-1 $407 $284 $282 $347 forward $269 $-1 #
coedge $-1 $408 $271 $407 $409 forward $193 $-1 #
coedge $-1 $271 $408 $410 $411 forward $193 $-1 #
coedge $-1 $412 $413 $271 $338 reversed $414 $-1 #
edge $-1 $415 -34.572799772427494 $416 34.572799772427494 $337 $417 forward 7 unknown #
coedge $-1 $272 $283 $418 $419 forward $123 $-1 #
coedge $-1 $420 $273 $272 $341 reversed $207 $-1 #
edge $-1 $421 -34.572799772427494 $275 -15.988362203201739 $340 $287 forward 7 unknown #
straight-curve $-1 -56.085695974608598 15.988362203201739 50.146920744596144 0 0 1 I I #
point $-1 -56.085695974608598 15.988362203201739 11.006699809747891 #
straight-curve $-1 -56.085695974608598 3.4144220131212961 7.2995435473677448 0 1 0 I I #
point $-1 -56.085695974608598 15.988362203201739 7.299543547367743 #
coedge $-1 $282 $420 $408 $422 reversed $207 $-1 #
edge $-1 $286 -11.006699809747891 $423 11.006699809747891 $282 $424 forward 7 unknown #
coedge $-1 $413 $412 $283 $349 reversed $414 $-1 #
edge $-1 $351 -34.572799772427494 $425 34.572799772427494 $348 $426 forward 7 unknown #
coedge $-1 $284 $407 $413 $427 reversed $269 $-1 #
vertex $-1 $349 $428 #
straight-curve $-1 0 -34.572799772427494 11.006699809747891 1 0 0 I I #
point $-1 -56.085695974608598 -34.572799772427494 11.006699809747891 #
face $-1 $429 $430 $17 $-1 $431 reversed single #
loop $-1 $-1 $432 $288 #
plane-surface $-1 0 0 -11.006699809747891 0 0 1 1 0 0 forward_v I I I I #
coedge $-1 $298 $433 $291 $360 forward $289 $-1 #
coedge $-1 $359 $291 $434 $435 reversed $214 $-1 #
coedge $-1 $291 $358 $361 $436 forward $214 $-1 #
edge $-1 $437 3.3198755955259784 $438 8.8159606703791837 $357 $439 forward 7 unknown #
coedge $-1 $363 $292 $359 $436 reversed $216 $-1 #
edge $-1 $438 -12.573940190080442 $299 5.7450961638378502 $298 $440 forward 7 unknown #
coedge $-1 $293 $361 $366 $441 reversed $216 $-1 #
vertex $-1 $441 $442 #
straight-curve $-1 -56.085695974608591 -2.330674150716554 7.2995435473677475 -0.82903756765294845 0 -0.55919291073839883 I I #
coedge $-1 $434 $295 $363 $441 forward $368 $-1 #
coedge $-1 $295 $443 $297 $371 reversed $368 $-1 #
loop $-1 $-1 $434 $429 #
straight-curve $-1 -56.085695974608598 -2.330674150716554 50.146920744596144 0 0 -1 I I #
coedge $-1 $444 $297 $445 $446 forward $289 $-1 #
edge $-1 $300 2.330674150716554 $447 34.572799772427494 $367 $448 forward 7 unknown #
point $-1 -50.589610899755392 -2.330674150716554 11.006699809747891 #
point $-1 -56.085695974608598 -2.330674150716554 11.006699809747891 #
point $-1 -51.870256286700062 1.3331331200671031 6.9776159790846046 #
face $-1 $449 $450 $18 $-1 $451 forward single #
loop $-1 $-1 $452 $304 #
plane-surface $-1 -118.81114314026915 15.988362203201739 100.29384148919229 0 -1 0 0.55919291073839883 0 -0.82903756765294845 forward_v I I I I #
coedge $-1 $379 $306 $453 $454 forward $226 $-1 #
coedge $-1 $306 $378 $455 $456 reversed $226 $-1 #
coedge $-1 $457 $458 $306 $381 forward $450 $-1 #
edge $-1 $459 -8.8159606703791837 $460 -3.3198755955259784 $380 $461 forward 7 unknown #
edge $-1 $462 1 $462 0 $307 $-1 forward 7 unknown #
vertex $-1 $308 $463 #
ellipse-curve $-1 -52.429449197438466 1.3331331200671031 7.8066535467375529 -0.55919291073839883 0 0.82903756765294845 0.82903756765294845 0 0.55919291073839883 1 I I #
point $-1 -52.508615869529038 1.3331331200671031 9.7123145892962146 #
point $-1 -51.870256286700062 6.8288440262425922 6.9776159790846046 #
coedge $-1 $464 $453 $458 $465 reversed $313 $-1 #
loop $-1 $-1 $466 $314 #
plane-surface $-1 -118.81114314026915 -2.330674150716554 100.29384148919229 0 1 0 -0.55919291073839883 0 0.82903756765294845 forward_v I I I I #
loop $-1 $-1 $467 $238 #
coedge $-1 $391 $391 $392 $468 forward $315 $-1 #
coedge $-1 $392 $392 $391 $468 reversed $317 $-1 #
coedge $-1 $393 $393 $318 $394 forward $325 $-1 #
edge $-1 $469 0 $469 6.2831853071796004 $393 $470 forward 7 unknown #
edge $-1 $471 1 $471 0 $319 $-1 forward 7 unknown #
vertex $-1 $320 $472 #
ellipse-curve $-1 -52.429449197438466 6.8288440262425922 7.8066535467375529 -0.55919291073839883 0 0.82903756765294845 0.82903756765294845 0 0.55919291073839883 1 I I #
point $-1 -52.508615869529038 6.8288440262425922 9.7123145892962146 #
point $-1 -51.870256286700062 12.324554932418081 6.9776159790846046 #
loop $-1 $-1 $473 $250 #
face $-1 $474 $475 $19 $-1 $476 forward single #
loop $-1 $-1 $477 $326 #
plane-surface $-1 -118.81114314026915 15.988362203201739 100.29384148919229 0 -1 0 0.55919291073839883 0 -0.82903756765294845 forward_v I I I I #
face $-1 $-1 $414 $16 $-1 $478 reversed single #
loop $-1 $-1 $479 $332 #
plane-surface $-1 0 34.572799772427494 0 0 -1 0 0 0 -1 forward_v I I I I #
coedge $-1 $350 $334 $335 $409 reversed $269 $-1 #
coedge $-1 $336 $335 $346 $422 forward $193 $-1 #
edge $-1 $416 -56.085695974608598 $423 56.085695974608598 $407 $480 forward 7 unknown #
coedge $-1 $481 $479 $336 $411 reversed $405 $-1 #
edge $-1 $482 -56.085695974608598 $415 56.085695974608598 $410 $483 forward 7 unknown #
coedge $-1 $348 $337 $479 $484 reversed $414 $-1 #
coedge $-1 $337 $348 $350 $427 forward $414 $-1 #
loop $-1 $-1 $413 $404 #
vertex $-1 $338 $485 #
vertex $-1 $427 $486 #
straight-curve $-1 56.085695974608598 0 -11.006699809747891 0 -1 0 I I #
coedge $-1 $479 $481 $339 $419 reversed $405 $-1 #
edge $-1 $425 -56.085695974608598 $421 56.085695974608598 $418 $487 forward 7 unknown #
coedge $-1 $346 $340 $481 $488 forward $207 $-1 #
vertex $-1 $419 $489 #
edge $-1 $423 -34.572799772427494 $482 34.572799772427494 $346 $490 forward 7 unknown #
vertex $-1 $422 $491 #
straight-curve $-1 -56.085695974608598 -34.572799772427494 0 0 0 -1 I I #
vertex $-1 $349 $492 #
straight-curve $-1 56.085695974608598 0 11.006699809747891 0 1 0 I I #
edge $-1 $351 -11.006699809747891 $416 11.006699809747891 $413 $493 forward 7 unknown #
point $-1 56.085695974608598 -34.572799772427494 11.006699809747891 #
face $-1 $494 $368 $17 $-1 $495 reversed single #
loop $-1 $-1 $496 $354 #
plane-surface $-1 0 -34.572799772427494 0 0 1 0 0 0 1 forward_v I I I I #
coedge $-1 $497 $498 $499 $500 forward $355 $-1 #
coedge $-1 $357 $501 $502 $503 forward $289 $-1 #
coedge $-1 $502 $366 $358 $435 forward $368 $-1 #
edge $-1 $504 -42.847377197228404 $437 -39.140220934848251 $434 $505 forward 7 unknown #
edge $-1 $504 -8.3739815925159718e-015 $438 6.6294765029924045 $359 $506 forward 7 unknown #
vertex $-1 $435 $507 #
vertex $-1 $362 $508 #
straight-curve $-1 -59.405571570134576 15.988362203201739 11.006699809747893 1 0 0 I I #
straight-curve $-1 -50.589610899755399 3.4144220131212961 11.006699809747889 0 -1 0 I I #
edge $-1 $364 -5.7450961638378502 $504 12.573940190080442 $366 $509 forward 7 unknown #
point $-1 -56.085695974608598 -2.330674150716554 7.299543547367743 #
coedge $-1 $367 $510 $496 $511 reversed $368 $-1 #
coedge $-1 $501 $370 $512 $513 forward $289 $-1 #
coedge $-1 $496 $514 $370 $446 reversed $430 $-1 #
edge $-1 $447 -56.085695974608598 $515 56.085695974608598 $445 $516 forward 7 unknown #
vertex $-1 $371 $517 #
straight-curve $-1 -56.085695974608598 0 11.006699809747891 0 -1 0 I I #
face $-1 $518 $519 $18 $-1 $520 reversed single #
loop $-1 $-1 $521 $375 #
plane-surface $-1 0 0 11.006699809747891 0 0 1 1 0 0 forward_v I I I I #
coedge $-1 $522 $523 $521 $524 reversed $376 $-1 #
coedge $-1 $387 $525 $378 $454 reversed $313 $-1 #
edge $-1 $459 -6.6294765029924045 $526 8.3739815925159718e-015 $378 $527 forward 7 unknown #
coedge $-1 $528 $529 $379 $456 forward $530 $-1 #
edge $-1 $460 39.140220934848251 $526 42.847377197228404 $455 $531 forward 7 unknown #
coedge $-1 $532 $380 $529 $533 forward $450 $-1 #
coedge $-1 $380 $521 $387 $465 forward $450 $-1 #
vertex $-1 $465 $534 #
vertex $-1 $533 $535 #
straight-curve $-1 -59.405571570134576 -2.330674150716554 11.006699809747893 -1 0 0 I I #
vertex $-1 $382 $536 #
point $-1 -51.600411629785512 1.3331331200671031 8.3658464574759517 #
coedge $-1 $525 $387 $523 $537 reversed $313 $-1 #
edge $-1 $538 -12.573940190080442 $459 5.7450961638378502 $458 $539 forward 7 unknown #
coedge $-1 $540 $541 $542 $543 reversed $388 $-1 #
coedge $-1 $467 $467 $-1 $544 forward $390 $-1 #
edge $-1 $545 0 $545 6.2831853071796004 $391 $546 forward 7 unknown #
vertex $-1 $394 $547 #
ellipse-curve $-1 -53.337653437181991 1.3331331200671031 9.1531216785578184 0.55919291073839883 0 -0.82903756765294845 0.82903756765294845 0 0.55919291073839883 1 I I #
vertex $-1 $395 $548 #
point $-1 -51.600411629785512 6.8288440262425922 8.3658464574759517 #
coedge $-1 $549 $550 $551 $552 reversed $400 $-1 #
face $-1 $553 $554 $19 $-1 $555 reversed single #
loop $-1 $-1 $556 $401 #
plane-surface $-1 0 0 11.006699809747891 0 0 1 1 0 0 forward_v I I I I #
coedge $-1 $557 $558 $556 $559 reversed $402 $-1 #
plane-surface $-1 56.085695974608598 0 0 -1 0 0 0 0 1 forward_v I I I I #
coedge $-1 $410 $418 $412 $484 forward $405 $-1 #
straight-curve $-1 0 -34.572799772427494 -11.006699809747891 -1 0 0 I I #
coedge $-1 $418 $410 $420 $488 reversed $405 $-1 #
vertex $-1 $411 $560 #
straight-curve $-1 0 34.572799772427494 -11.006699809747891 1 0 0 I I #
edge $-1 $425 -11.006699809747891 $415 11.006699809747891 $412 $561 forward 7 unknown #
point $-1 56.085695974608598 34.572799772427494 -11.006699809747891 #
point $-1 56.085695974608598 -34.572799772427494 -11.006699809747891 #
straight-curve $-1 0 34.572799772427494 11.006699809747891 -1 0 0 I I #
edge $-1 $421 -11.006699809747891 $482 11.006699809747891 $481 $562 forward 7 unknown #
point $-1 -56.085695974608598 34.572799772427494 11.006699809747891 #
straight-curve $-1 -56.085695974608598 0 -11.006699809747891 0 1 0 I I #
point $-1 -56.085695974608598 -34.572799772427494 -11.006699809747891 #
point $-1 56.085695974608598 34.572799772427494 11.006699809747891 #
straight-curve $-1 56.085695974608598 -34.572799772427494 0 0 0 -1 I I #
face $-1 $563 $564 $17 $-1 $565 reversed single #
plane-surface $-1 -56.085695974608598 0 0 1 0 0 0 0 -1 forward_v I I I I #
coedge $-1 $566 $445 $443 $511 forward $430 $-1 #
coedge $-1 $567 $432 $566 $568 forward $355 $-1 #
coedge $-1 $432 $567 $569 $570 forward $355 $-1 #
coedge $-1 $571 $572 $432 $500 reversed $573 $-1 #
edge $-1 $574 -34.572799772427494 $575 34.572799772427494 $499 $576 forward 7 unknown #
coedge $-1 $433 $444 $577 $578 forward $289 $-1 #
coedge $-1 $579 $434 $433 $503 reversed $368 $-1 #
edge $-1 $580 -34.572799772427494 $437 -15.988362203201739 $502 $448 forward 7 unknown #
vertex $-1 $441 $581 #
straight-curve $-1 -56.085695974608598 15.988362203201739 50.146920744596144 0 0 1 I I #
straight-curve $-1 -56.085695974608591 15.988362203201739 7.2995435473677475 0.82903756765294845 0 0.55919291073839883 I I #
point $-1 -56.085695974608598 15.988362203201739 11.006699809747891 #
point $-1 -50.589610899755392 15.988362203201739 11.006699809747891 #
straight-curve $-1 -56.085695974608598 3.4144220131212961 7.2995435473677448 0 1 0 I I #
coedge $-1 $443 $579 $567 $582 reversed $368 $-1 #
edge $-1 $447 -11.006699809747891 $583 11.006699809747891 $443 $584 forward 7 unknown #
coedge $-1 $572 $571 $444 $513 reversed $573 $-1 #
edge $-1 $515 -34.572799772427494 $585 34.572799772427494 $512 $586 forward 7 unknown #
coedge $-1 $445 $566 $572 $587 reversed $430 $-1 #
vertex $-1 $513 $588 #
straight-curve $-1 0 -34.572799772427494 11.006699809747891 1 0 0 I I #
point $-1 -56.085695974608598 -34.572799772427494 11.006699809747891 #
face $-1 $589 $590 $18 $-1 $591 reversed single #
loop $-1 $-1 $592 $449 #
plane-surface $-1 0 0 -11.006699809747891 0 0 1 1 0 0 forward_v I I I I #
coedge $-1 $458 $593 $452 $524 forward $450 $-1 #
coedge $-1 $523 $452 $594 $595 reversed $376 $-1 #
coedge $-1 $452 $522 $464 $537 forward $376 $-1 #
edge $-1 $596 3.3198755955259784 $538 8.8159606703791837 $521 $597 forward 7 unknown #
coedge $-1 $453 $464 $528 $598 reversed $313 $-1 #
vertex $-1 $598 $599 #
straight-curve $-1 -56.085695974608591 -2.330674150716554 7.2995435473677475 -0.82903756765294845 0 -0.55919291073839883 I I #
coedge $-1 $594 $455 $525 $598 forward $530 $-1 #
coedge $-1 $455 $600 $457 $533 reversed $530 $-1 #
loop $-1 $-1 $594 $589 #
straight-curve $-1 -56.085695974608598 -2.330674150716554 50.146920744596144 0 0 -1 I I #
coedge $-1 $601 $457 $602 $603 forward $450 $-1 #
edge $-1 $460 2.330674150716554 $604 34.572799772427494 $529 $605 forward 7 unknown #
point $-1 -50.589610899755392 -2.330674150716554 11.006699809747891 #
point $-1 -56.085695974608598 -2.330674150716554 11.006699809747891 #
point $-1 -51.870256286700062 1.3331331200671031 6.9776159790846046 #
edge $-1 $606 -8.3739815925159718e-015 $538 6.6294765029924045 $523 $607 forward 7 unknown #
vertex $-1 $465 $608 #
straight-curve $-1 -50.589610899755399 3.4144220131212961 11.006699809747889 0 -1 0 I I #
coedge $-1 $541 $466 $550 $609 forward $388 $-1 #
coedge $-1 $466 $540 $610 $611 reversed $388 $-1 #
coedge $-1 $612 $551 $466 $543 forward $475 $-1 #
edge $-1 $613 -8.8159606703791837 $614 -3.3198755955259784 $542 $615 forward 7 unknown #
edge $-1 $616 1 $616 0 $467 $-1 forward 7 unknown #
vertex $-1 $468 $617 #
ellipse-curve $-1 -52.429449197438466 1.3331331200671031 7.8066535467375529 -0.55919291073839883 0 0.82903756765294845 0.82903756765294845 0 0.55919291073839883 1 I I #
point $-1 -52.508615869529038 1.3331331200671031 9.7123145892962146 #
point $-1 -51.870256286700062 6.8288440262425922 6.9776159790846046 #
coedge $-1 $618 $473 $558 $619 reversed $400 $-1 #
coedge $-1 $473 $618 $540 $609 reversed $400 $-1 #
coedge $-1 $542 $556 $473 $552 forward $475 $-1 #
edge $-1 $620 -12.573940190080442 $613 5.7450961638378502 $551 $621 forward 7 unknown #
face $-1 $622 $623 $19 $-1 $624 reversed single #
loop $-1 $-1 $625 $474 #
plane-surface $-1 0 0 -11.006699809747891 0 0 1 1 0 0 forward_v I I I I #
coedge $-1 $551 $626 $477 $559 forward $475 $-1 #
coedge $-1 $558 $477 $627 $628 reversed $402 $-1 #
coedge $-1 $477 $557 $549 $619 forward $402 $-1 #
edge $-1 $629 3.3198755955259784 $620 8.8159606703791837 $556 $630 forward 7 unknown #
point $-1 -56.085695974608598 34.572799772427494 -11.006699809747891 #
straight-curve $-1 56.085695974608598 34.572799772427494 0 0 0 -1 I I #
straight-curve $-1 -56.085695974608598 34.572799772427494 0 0 0 -1 I I #
face $-1 $-1 $573 $17 $-1 $631 reversed single #
loop $-1 $-1 $632 $494 #
plane-surface $-1 0 34.572799772427494 0 0 -1 0 0 0 -1 forward_v I I I I #
coedge $-1 $514 $496 $497 $568 reversed $430 $-1 #
coedge $-1 $498 $497 $510 $582 forward $355 $-1 #
edge $-1 $575 -56.085695974608598 $583 56.085695974608598 $566 $633 forward 7 unknown #
coedge $-1 $634 $632 $498 $570 reversed $564 $-1 #
edge $-1 $635 -56.085695974608598 $574 56.085695974608598 $569 $636 forward 7 unknown #
coedge $-1 $512 $499 $632 $637 reversed $573 $-1 #
coedge $-1 $499 $512 $514 $587 forward $573 $-1 #
loop $-1 $-1 $572 $563 #
vertex $-1 $500 $638 #
vertex $-1 $587 $639 #
straight-curve $-1 56.085695974608598 0 -11.006699809747891 0 -1 0 I I #
coedge $-1 $632 $634 $501 $578 reversed $564 $-1 #
edge $-1 $585 -56.085695974608598 $580 56.085695974608598 $577 $640 forward 7 unknown #
coedge $-1 $510 $502 $634 $641 forward $368 $-1 #
vertex $-1 $578 $642 #
point $-1 -56.085695974608598 15.988362203201739 7.299543547367743 #
edge $-1 $583 -34.572799772427494 $635 34.572799772427494 $510 $643 forward 7 unknown #
vertex $-1 $582 $644 #
straight-curve $-1 -56.085695974608598 -34.572799772427494 0 0 0 -1 I I #
vertex $-1 $513 $645 #
straight-curve $-1 56.085695974608598 0 11.006699809747891 0 1 0 I I #
edge $-1 $515 -11.006699809747891 $575 11.006699809747891 $572 $646 forward 7 unknown #
point $-1 56.085695974608598 -34.572799772427494 11.006699809747891 #
face $-1 $647 $530 $18 $-1 $648 reversed single #
loop $-1 $-1 $649 $518 #
plane-surface $-1 0 -34.572799772427494 0 0 1 0 0 0 1 forward_v I I I I #
coedge $-1 $650 $651 $652 $653 forward $519 $-1 #
coedge $-1 $521 $654 $655 $656 forward $450 $-1 #
coedge $-1 $655 $528 $522 $595 forward $530 $-1 #
edge $-1 $606 -42.847377197228404 $596 -39.140220934848251 $594 $657 forward 7 unknown #
vertex $-1 $595 $658 #
straight-curve $-1 -59.405571570134576 15.988362203201739 11.006699809747893 1 0 0 I I #
edge $-1 $526 -5.7450961638378502 $606 12.573940190080442 $528 $659 forward 7 unknown #
point $-1 -56.085695974608598 -2.330674150716554 7.299543547367743 #
coedge $-1 $529 $660 $649 $661 reversed $530 $-1 #
coedge $-1 $654 $532 $662 $663 forward $450 $-1 #
coedge $-1 $649 $664 $532 $603 reversed $590 $-1 #
edge $-1 $604 -56.085695974608598 $665 56.085695974608598 $602 $666 forward 7 unknown #
vertex $-1 $533 $667 #
straight-curve $-1 -56.085695974608598 0 11.006699809747891 0 -1 0 I I #
vertex $-1 $598 $668 #
straight-curve $-1 -56.085695974608591 15.988362203201739 7.2995435473677475 0.82903756765294845 0 0.55919291073839883 I I #
point $-1 -50.589610899755392 15.988362203201739 11.006699809747891 #
edge $-1 $613 -6.6294765029924045 $669 8.3739815925159718e-015 $540 $670 forward 7 unknown #
coedge $-1 $671 $672 $541 $611 forward $673 $-1 #
edge $-1 $614 39.140220934848251 $669 42.847377197228404 $610 $674 forward 7 unknown #
coedge $-1 $675 $542 $672 $676 forward $475 $-1 #
vertex $-1 $552 $677 #
vertex $-1 $676 $678 #
straight-curve $-1 -59.405571570134576 -2.330674150716554 11.006699809747893 -1 0 0 I I #
vertex $-1 $544 $679 #
point $-1 -51.600411629785512 1.3331331200671031 8.3658464574759517 #
coedge $-1 $550 $549 $671 $680 reversed $400 $-1 #
edge $-1 $681 -8.3739815925159718e-015 $620 6.6294765029924045 $558 $682 forward 7 unknown #
vertex $-1 $552 $683 #
straight-curve $-1 -50.589610899755399 3.4144220131212961 11.006699809747889 0 -1 0 I I #
face $-1 $684 $673 $19 $-1 $685 reversed single #
loop $-1 $-1 $686 $553 #
plane-surface $-1 0 -34.572799772427494 0 0 1 0 0 0 1 forward_v I I I I #
coedge $-1 $687 $688 $689 $690 forward $554 $-1 #
coedge $-1 $556 $691 $692 $693 forward $475 $-1 #
coedge $-1 $692 $671 $557 $628 forward $673 $-1 #
edge $-1 $681 -42.847377197228404 $629 -39.140220934848251 $627 $694 forward 7 unknown #
vertex $-1 $628 $695 #
straight-curve $-1 -59.405571570134576 15.988362203201739 11.006699809747893 1 0 0 I I #
plane-surface $-1 56.085695974608598 0 0 -1 0 0 0 0 1 forward_v I I I I #
coedge $-1 $569 $577 $571 $637 forward $564 $-1 #
straight-curve $-1 0 -34.572799772427494 -11.006699809747891 -1 0 0 I I #
coedge $-1 $577 $569 $579 $641 reversed $564 $-1 #
vertex $-1 $570 $696 #
straight-curve $-1 0 34.572799772427494 -11.006699809747891 1 0 0 I I #
edge $-1 $585 -11.006699809747891 $574 11.006699809747891 $571 $697 forward 7 unknown #
point $-1 56.085695974608598 34.572799772427494 -11.006699809747891 #
point $-1 56.085695974608598 -34.572799772427494 -11.006699809747891 #
straight-curve $-1 0 34.572799772427494 11.006699809747891 -1 0 0 I I #
edge $-1 $580 -11.006699809747891 $635 11.006699809747891 $634 $698 forward 7 unknown #
point $-1 -56.085695974608598 34.572799772427494 11.006699809747891 #
straight-curve $-1 -56.085695974608598 0 -11.006699809747891 0 1 0 I I #
point $-1 -56.085695974608598 -34.572799772427494 -11.006699809747891 #
point $-1 56.085695974608598 34.572799772427494 11.006699809747891 #
straight-curve $-1 56.085695974608598 -34.572799772427494 0 0 0 -1 I I #
face $-1 $699 $700 $18 $-1 $701 reversed single #
plane-surface $-1 -56.085695974608598 0 0 1 0 0 0 0 -1 forward_v I I I I #
coedge $-1 $702 $602 $600 $661 forward $590 $-1 #
coedge $-1 $703 $592 $702 $704 forward $519 $-1 #
coedge $-1 $592 $703 $705 $706 forward $519 $-1 #
coedge $-1 $707 $708 $592 $653 reversed $709 $-1 #
edge $-1 $710 -34.572799772427494 $711 34.572799772427494 $652 $712 forward 7 unknown #
coedge $-1 $593 $601 $713 $714 forward $450 $-1 #
coedge $-1 $715 $594 $593 $656 reversed $530 $-1 #
edge $-1 $716 -34.572799772427494 $596 -15.988362203201739 $655 $605 forward 7 unknown #
straight-curve $-1 -56.085695974608598 15.988362203201739 50.146920744596144 0 0 1 I I #
point $-1 -56.085695974608598 15.988362203201739 11.006699809747891 #
straight-curve $-1 -56.085695974608598 3.4144220131212961 7.2995435473677448 0 1 0 I I #
coedge $-1 $600 $715 $703 $717 reversed $530 $-1 #
edge $-1 $604 -11.006699809747891 $718 11.006699809747891 $600 $719 forward 7 unknown #
coedge $-1 $708 $707 $601 $663 reversed $709 $-1 #
edge $-1 $665 -34.572799772427494 $720 34.572799772427494 $662 $721 forward 7 unknown #
coedge $-1 $602 $702 $708 $722 reversed $590 $-1 #
vertex $-1 $663 $723 #
straight-curve $-1 0 -34.572799772427494 11.006699809747891 1 0 0 I I #
point $-1 -56.085695974608598 -34.572799772427494 11.006699809747891 #
point $-1 -56.085695974608598 15.988362203201739 7.299543547367743 #
vertex $-1 $680 $724 #
straight-curve $-1 -56.085695974608591 -2.330674150716554 7.2995435473677475 -0.82903756765294845 0 -0.55919291073839883 I I #
coedge $-1 $627 $610 $618 $680 forward $673 $-1 #
coedge $-1 $610 $725 $612 $676 reversed $673 $-1 #
loop $-1 $-1 $627 $622 #
straight-curve $-1 -56.085695974608598 -2.330674150716554 50.146920744596144 0 0 -1 I I #
coedge $-1 $726 $612 $727 $728 forward $475 $-1 #
edge $-1 $614 2.330674150716554 $729 34.572799772427494 $672 $730 forward 7 unknown #
point $-1 -50.589610899755392 -2.330674150716554 11.006699809747891 #
point $-1 -56.085695974608598 -2.330674150716554 11.006699809747891 #
point $-1 -51.870256286700062 1.3331331200671031 6.9776159790846046 #
edge $-1 $669 -5.7450961638378502 $681 12.573940190080442 $671 $731 forward 7 unknown #
vertex $-1 $680 $732 #
straight-curve $-1 -56.085695974608591 15.988362203201739 7.2995435473677475 0.82903756765294845 0 0.55919291073839883 I I #
point $-1 -50.589610899755392 15.988362203201739 11.006699809747891 #
face $-1 $733 $734 $19 $-1 $735 reversed single #
plane-surface $-1 -56.085695974608598 0 0 1 0 0 0 0 -1 forward_v I I I I #
coedge $-1 $736 $727 $725 $737 forward $623 $-1 #
coedge $-1 $738 $625 $736 $739 forward $554 $-1 #
coedge $-1 $625 $738 $740 $741 forward $554 $-1 #
coedge $-1 $742 $743 $625 $690 reversed $744 $-1 #
edge $-1 $745 -34.572799772427494 $746 34.572799772427494 $689 $747 forward 7 unknown #
coedge $-1 $626 $726 $748 $749 forward $475 $-1 #
coedge $-1 $750 $627 $626 $693 reversed $673 $-1 #
edge $-1 $751 -34.572799772427494 $629 -15.988362203201739 $692 $730 forward 7 unknown #
straight-curve $-1 -56.085695974608598 15.988362203201739 50.146920744596144 0 0 1 I I #
point $-1 -56.085695974608598 15.988362203201739 11.006699809747891 #
point $-1 -56.085695974608598 34.572799772427494 -11.006699809747891 #
straight-curve $-1 56.085695974608598 34.572799772427494 0 0 0 -1 I I #
straight-curve $-1 -56.085695974608598 34.572799772427494 0 0 0 -1 I I #
face $-1 $-1 $709 $18 $-1 $752 reversed single #
loop $-1 $-1 $753 $647 #
plane-surface $-1 0 34.572799772427494 0 0 -1 0 0 0 -1 forward_v I I I I #
coedge $-1 $664 $649 $650 $704 reversed $590 $-1 #
coedge $-1 $651 $650 $660 $717 forward $519 $-1 #
edge $-1 $711 -56.085695974608598 $718 56.085695974608598 $702 $754 forward 7 unknown #
coedge $-1 $755 $753 $651 $706 reversed $700 $-1 #
edge $-1 $756 -56.085695974608598 $710 56.085695974608598 $705 $757 forward 7 unknown #
coedge $-1 $662 $652 $753 $758 reversed $709 $-1 #
coedge $-1 $652 $662 $664 $722 forward $709 $-1 #
loop $-1 $-1 $708 $699 #
vertex $-1 $653 $759 #
vertex $-1 $722 $760 #
straight-curve $-1 56.085695974608598 0 -11.006699809747891 0 -1 0 I I #
coedge $-1 $753 $755 $654 $714 reversed $700 $-1 #
edge $-1 $720 -56.085695974608598 $716 56.085695974608598 $713 $761 forward 7 unknown #
coedge $-1 $660 $655 $755 $762 forward $530 $-1 #
vertex $-1 $714 $763 #
edge $-1 $718 -34.572799772427494 $756 34.572799772427494 $660 $764 forward 7 unknown #
vertex $-1 $717 $765 #
straight-curve $-1 -56.085695974608598 -34.572799772427494 0 0 0 -1 I I #
vertex $-1 $663 $766 #
straight-curve $-1 56.085695974608598 0 11.006699809747891 0 1 0 I I #
edge $-1 $665 -11.006699809747891 $711 11.006699809747891 $708 $767 forward 7 unknown #
point $-1 56.085695974608598 -34.572799772427494 11.006699809747891 #
point $-1 -56.085695974608598 -2.330674150716554 7.299543547367743 #
coedge $-1 $672 $768 $686 $737 reversed $673 $-1 #
coedge $-1 $691 $675 $769 $770 forward $475 $-1 #
coedge $-1 $686 $771 $675 $728 reversed $623 $-1 #
edge $-1 $729 -56.085695974608598 $772 56.085695974608598 $727 $773 forward 7 unknown #
vertex $-1 $676 $774 #
straight-curve $-1 -56.085695974608598 0 11.006699809747891 0 -1 0 I I #
straight-curve $-1 -56.085695974608598 3.4144220131212961 7.2995435473677448 0 1 0 I I #
point $-1 -56.085695974608598 15.988362203201739 7.299543547367743 #
face $-1 $-1 $744 $19 $-1 $775 reversed single #
loop $-1 $-1 $776 $684 #
plane-surface $-1 0 34.572799772427494 0 0 -1 0 0 0 -1 forward_v I I I I #
coedge $-1 $771 $686 $687 $739 reversed $623 $-1 #
edge $-1 $729 -11.006699809747891 $777 11.006699809747891 $725 $778 forward 7 unknown #
coedge $-1 $688 $687 $768 $779 forward $554 $-1 #
edge $-1 $746 -56.085695974608598 $777 56.085695974608598 $736 $780 forward 7 unknown #
coedge $-1 $781 $776 $688 $741 reversed $734 $-1 #
edge $-1 $782 -56.085695974608598 $745 56.085695974608598 $740 $783 forward 7 unknown #
coedge $-1 $769 $689 $776 $784 reversed $744 $-1 #
coedge $-1 $689 $769 $771 $785 forward $744 $-1 #
loop $-1 $-1 $743 $733 #
vertex $-1 $690 $786 #
vertex $-1 $785 $787 #
straight-curve $-1 56.085695974608598 0 -11.006699809747891 0 -1 0 I I #
coedge $-1 $776 $781 $691 $749 reversed $734 $-1 #
edge $-1 $788 -56.085695974608598 $751 56.085695974608598 $748 $789 forward 7 unknown #
coedge $-1 $768 $692 $781 $790 forward $673 $-1 #
vertex $-1 $749 $791 #
plane-surface $-1 56.085695974608598 0 0 -1 0 0 0 0 1 forward_v I I I I #
coedge $-1 $705 $713 $707 $758 forward $700 $-1 #
straight-curve $-1 0 -34.572799772427494 -11.006699809747891 -1 0 0 I I #
coedge $-1 $713 $705 $715 $762 reversed $700 $-1 #
vertex $-1 $706 $792 #
straight-curve $-1 0 34.572799772427494 -11.006699809747891 1 0 0 I I #
edge $-1 $720 -11.006699809747891 $710 11.006699809747891 $707 $793 forward 7 unknown #
point $-1 56.085695974608598 34.572799772427494 -11.006699809747891 #
point $-1 56.085695974608598 -34.572799772427494 -11.006699809747891 #
straight-curve $-1 0 34.572799772427494 11.006699809747891 -1 0 0 I I #
edge $-1 $716 -11.006699809747891 $756 11.006699809747891 $755 $794 forward 7 unknown #
point $-1 -56.085695974608598 34.572799772427494 11.006699809747891 #
straight-curve $-1 -56.085695974608598 0 -11.006699809747891 0 1 0 I I #
point $-1 -56.085695974608598 -34.572799772427494 -11.006699809747891 #
point $-1 56.085695974608598 34.572799772427494 11.006699809747891 #
straight-curve $-1 56.085695974608598 -34.572799772427494 0 0 0 -1 I I #
coedge $-1 $725 $750 $738 $779 reversed $673 $-1 #
coedge $-1 $743 $742 $726 $770 reversed $744 $-1 #
edge $-1 $772 -34.572799772427494 $788 34.572799772427494 $769 $795 forward 7 unknown #
coedge $-1 $727 $736 $743 $785 reversed $623 $-1 #
vertex $-1 $770 $796 #
straight-curve $-1 0 -34.572799772427494 11.006699809747891 1 0 0 I I #
point $-1 -56.085695974608598 -34.572799772427494 11.006699809747891 #
plane-surface $-1 56.085695974608598 0 0 -1 0 0 0 0 1 forward_v I I I I #
coedge $-1 $740 $748 $742 $784 forward $734 $-1 #
vertex $-1 $779 $797 #
straight-curve $-1 -56.085695974608598 -34.572799772427494 0 0 0 -1 I I #
edge $-1 $777 -34.572799772427494 $782 34.572799772427494 $768 $798 forward 7 unknown #
straight-curve $-1 0 -34.572799772427494 -11.006699809747891 -1 0 0 I I #
coedge $-1 $748 $740 $750 $790 reversed $734 $-1 #
vertex $-1 $741 $799 #
straight-curve $-1 0 34.572799772427494 -11.006699809747891 1 0 0 I I #
edge $-1 $788 -11.006699809747891 $745 11.006699809747891 $742 $800 forward 7 unknown #
edge $-1 $772 -11.006699809747891 $746 11.006699809747891 $743 $801 forward 7 unknown #
point $-1 56.085695974608598 34.572799772427494 -11.006699809747891 #
point $-1 56.085695974608598 -34.572799772427494 -11.006699809747891 #
vertex $-1 $770 $802 #
straight-curve $-1 0 34.572799772427494 11.006699809747891 -1 0 0 I I #
edge $-1 $751 -11.006699809747891 $782 11.006699809747891 $781 $803 forward 7 unknown #
point $-1 -56.085695974608598 34.572799772427494 11.006699809747891 #
point $-1 -56.085695974608598 34.572799772427494 -11.006699809747891 #
straight-curve $-1 56.085695974608598 34.572799772427494 0 0 0 -1 I I #
straight-curve $-1 -56.085695974608598 34.572799772427494 0 0 0 -1 I I #
straight-curve $-1 56.085695974608598 0 11.006699809747891 0 1 0 I I #
point $-1 56.085695974608598 -34.572799772427494 11.006699809747891 #
point $-1 -56.085695974608598 -34.572799772427494 -11.006699809747891 #
straight-curve $-1 -56.085695974608598 0 -11.006699809747891 0 1 0 I I #
point $-1 -56.085695974608598 34.572799772427494 -11.006699809747891 #
straight-curve $-1 56.085695974608598 34.572799772427494 0 0 0 -1 I I #
straight-curve $-1 56.085695974608598 -34.572799772427494 0 0 0 -1 I I #
point $-1 56.085695974608598 34.572799772427494 11.006699809747891 #
straight-curve $-1 -56.085695974608598 34.572799772427494 0 0 0 -1 I I #
End-of-ACIS-data 