500 0 12 0           
7 Unknown 11 ACIS 5.0 NT 24 Thu Mar 25 19:19:26 1999 
-1 9.9999999999999995e-007 1e-010 
body $-1 $12 $-1 $13 #
body $-1 $14 $-1 $15 #
body $-1 $16 $-1 $17 #
body $-1 $18 $-1 $19 #
body $-1 $20 $-1 $21 #
body $-1 $22 $-1 $23 #
body $-1 $24 $-1 $25 #
body $-1 $26 $-1 $27 #
body $-1 $28 $-1 $29 #
body $-1 $30 $-1 $31 #
body $-1 $32 $-1 $33 #
body $-1 $34 $-1 $35 #
lump $-1 $-1 $36 $0 #
transform $-1 1 0 0 0 1 0 0 0 1 49.311807611316262 30.570551660939209 8.9975402147922523 1 rotate no_reflect no_shear #
lump $-1 $-1 $37 $1 #
transform $-1 1 0 0 0 1 0 0 0 1 49.311807611316262 30.570551660939209 8.9975402147922523 1 rotate no_reflect no_shear #
lump $-1 $-1 $38 $2 #
transform $-1 1 0 0 0 1 0 0 0 1 49.311807611316262 30.570551660939209 8.9975402147922523 1 rotate no_reflect no_shear #
lump $-1 $-1 $39 $3 #
transform $-1 1 0 0 0 1 0 0 0 1 49.311807611316262 30.570551660939209 8.9975402147922523 1 rotate no_reflect no_shear #
lump $-1 $-1 $40 $4 #
transform $-1 1 0 0 0 1 0 0 0 1 49.311807611316262 30.570551660939209 8.9975402147922523 1 rotate no_reflect no_shear #
lump $-1 $-1 $41 $5 #
transform $-1 1 0 0 0 1 0 0 0 1 49.311807611316262 30.570551660939209 8.9975402147922523 1 rotate no_reflect no_shear #
lump $-1 $-1 $42 $6 #
transform $-1 1 0 0 0 1 0 0 0 1 49.311807611316262 30.570551660939209 8.9975402147922523 1 rotate no_reflect no_shear #
lump $-1 $-1 $43 $7 #
transform $-1 1 0 0 0 1 0 0 0 1 49.311807611316262 30.570551660939209 8.9975402147922523 1 rotate no_reflect no_shear #
lump $-1 $-1 $44 $8 #
transform $-1 1 0 0 0 1 0 0 0 1 49.311807611316262 30.570551660939209 8.9975402147922523 1 rotate no_reflect no_shear #
lump $-1 $-1 $45 $9 #
transform $-1 1 0 0 0 1 0 0 0 1 49.311807611316262 30.570551660939209 8.9975402147922523 1 rotate no_reflect no_shear #
lump $-1 $-1 $46 $10 #
transform $-1 1 0 0 0 1 0 0 0 1 49.311807611316262 30.570551660939209 8.9975402147922523 1 rotate no_reflect no_shear #
lump $-1 $-1 $47 $11 #
transform $-1 1 0 0 0 1 0 0 0 1 49.311807611316262 30.570551660939209 8.9975402147922523 1 rotate no_reflect no_shear #
shell $-1 $-1 $-1 $48 $-1 $12 #
shell $-1 $-1 $-1 $49 $-1 $14 #
shell $-1 $-1 $-1 $50 $-1 $16 #
shell $-1 $-1 $-1 $51 $-1 $18 #
shell $-1 $-1 $-1 $52 $-1 $20 #
shell $-1 $-1 $-1 $53 $-1 $22 #
shell $-1 $-1 $-1 $54 $-1 $24 #
shell $-1 $-1 $-1 $55 $-1 $26 #
shell $-1 $-1 $-1 $56 $-1 $28 #
shell $-1 $-1 $-1 $57 $-1 $30 #
shell $-1 $-1 $-1 $58 $-1 $32 #
shell $-1 $-1 $-1 $59 $-1 $34 #
face $-1 $60 $61 $36 $-1 $62 forward single #
face $-1 $63 $64 $37 $-1 $65 forward single #
face $-1 $66 $67 $38 $-1 $68 reversed single #
face $-1 $69 $70 $39 $-1 $71 forward single #
face $-1 $72 $73 $40 $-1 $74 forward single #
face $-1 $75 $76 $41 $-1 $77 reversed single #
face $-1 $78 $79 $42 $-1 $80 forward single #
face $-1 $81 $82 $43 $-1 $83 forward single #
face $-1 $84 $85 $44 $-1 $86 reversed single #
face $-1 $87 $88 $45 $-1 $89 forward single #
face $-1 $90 $91 $46 $-1 $92 forward single #
face $-1 $93 $94 $47 $-1 $95 forward single #
face $-1 $96 $97 $36 $-1 $98 reversed single #
loop $-1 $-1 $99 $48 #
plane-surface $-1 0 0 8.9975402147922523 0 0 1 1 0 0 forward_v I I I I #
face $-1 $100 $101 $37 $-1 $102 reversed single #
loop $-1 $-1 $103 $49 #
plane-surface $-1 0 -30.570551660939209 0 0 1 0 0 0 1 forward_v I I I I #
face $-1 $104 $105 $38 $-1 $106 reversed single #
loop $-1 $-1 $107 $50 #
plane-surface $-1 56.611359202449201 -17.665237375955858 140.67405005137596 0 -1 0 -0.74314483375859142 0 -0.66913059716165679 forward_v I I I I #
face $-1 $108 $109 $39 $-1 $110 forward single #
loop $-1 $111 $112 $51 #
cone-surface $-1 45.258736419548512 -22.430488061368656 4.6282214701272686 -0.74314483375859142 0 -0.66913059716165679 0.3345652985808284 0 -0.37157241687929571 1 I I 0 1 0.5 forward I I I I #
face $-1 $113 $114 $40 $-1 $115 forward single #
loop $-1 $116 $117 $52 #
cone-surface $-1 45.258736419548512 -19.571337650120981 4.6282214701272686 -0.74314483375859142 0 -0.66913059716165679 0.3345652985808284 0 -0.37157241687929571 1 I I 0 1 0.5 forward I I I I #
face $-1 $118 $119 $41 $-1 $120 reversed single #
loop $-1 $-1 $121 $53 #
plane-surface $-1 56.611359202449201 23.899200701361288 140.67405005137596 0 1 0 0.74314483375859142 0 0.66913059716165679 forward_v I I I I #
face $-1 $122 $123 $42 $-1 $124 forward single #
loop $-1 $125 $126 $54 #
cone-surface $-1 45.258736419548512 25.805300975526407 4.6282214701272686 -0.74314483375859142 0 -0.66913059716165679 0.3345652985808284 0 -0.37157241687929571 1 I I 0 1 0.5 forward I I I I #
face $-1 $127 $128 $43 $-1 $129 forward single #
loop $-1 $130 $131 $55 #
cone-surface $-1 45.258736419548512 28.664451386774083 4.6282214701272686 -0.74314483375859142 0 -0.66913059716165679 0.3345652985808284 0 -0.37157241687929571 1 I I 0 1 0.5 forward I I I I #
face $-1 $132 $133 $44 $-1 $134 reversed single #
loop $-1 $-1 $135 $56 #
plane-surface $-1 -103.02607893962852 -8.0419843889011773 83.824666560923987 0 1 0 -0.54463904215088732 0 0.83867056331134215 forward_v I I I I #
face $-1 $136 $137 $45 $-1 $138 forward single #
loop $-1 $139 $140 $57 #
cone-surface $-1 -42.799672397769477 -4.8296277706408084 4.37603355560511 0.54463904215088732 0 -0.83867056331134215 0.41933528165567108 0 0.27231952107544366 1 I I 0 1 0.5 forward I I I I #
face $-1 $141 $142 $46 $-1 $143 forward single #
loop $-1 $144 $145 $58 #
cone-surface $-1 -42.799672397769477 -0.011092843250253281 4.37603355560511 0.54463904215088732 0 -0.83867056331134215 0.41933528165567108 0 0.27231952107544366 1 I I 0 1 0.5 forward I I I I #
face $-1 $146 $147 $47 $-1 $148 forward single #
loop $-1 $149 $150 $59 #
cone-surface $-1 -42.799672397769477 4.8074420841402983 4.37603355560511 0.54463904215088732 0 -0.83867056331134215 0.41933528165567108 0 0.27231952107544366 1 I I 0 1 0.5 forward I I I I #
face $-1 $151 $152 $36 $-1 $153 reversed single #
loop $-1 $-1 $154 $60 #
plane-surface $-1 0 0 -8.9975402147922523 0 0 1 1 0 0 forward_v I I I I #
coedge $-1 $155 $156 $157 $158 forward $61 $-1 #
face $-1 $159 $160 $37 $-1 $161 forward single #
loop $-1 $-1 $162 $63 #
plane-surface $-1 -49.311807611316262 0 0 1 0 0 0 0 -1 forward_v I I I I #
coedge $-1 $163 $164 $165 $166 forward $64 $-1 #
face $-1 $167 $168 $38 $-1 $169 reversed single #
loop $-1 $-1 $170 $66 #
plane-surface $-1 -16.680270936845325 -21.000912855744819 74.681971503214385 0.74314483375859142 0 0.66913059716165679 0.66913059716165679 0 -0.74314483375859142 forward_v I I I I #
coedge $-1 $171 $172 $173 $174 reversed $67 $-1 #
face $-1 $-1 $175 $39 $-1 $176 forward single #
loop $-1 $177 $178 $69 #
cone-surface $-1 44.44465523965544 -22.430488061368656 3.8952195016080751 -0.74314483375859142 0 -0.66913059716165679 0.1672826492904142 0 -0.18578620843964785 1 I I -0.70710678118654746 0.70710678118654746 0.25 forward I I I I #
loop $-1 $-1 $179 $51 #
coedge $-1 $112 $112 $180 $181 reversed $70 $-1 #
face $-1 $-1 $182 $40 $-1 $183 forward single #
loop $-1 $184 $185 $72 #
cone-surface $-1 44.44465523965544 -19.571337650120981 3.8952195016080751 -0.74314483375859142 0 -0.66913059716165679 0.1672826492904142 0 -0.18578620843964785 1 I I -0.70710678118654746 0.70710678118654746 0.25 forward I I I I #
loop $-1 $-1 $186 $52 #
coedge $-1 $117 $117 $187 $188 reversed $73 $-1 #
face $-1 $189 $190 $41 $-1 $191 reversed single #
loop $-1 $-1 $192 $75 #
plane-surface $-1 -16.680270936845325 27.234876181150248 74.681971503214385 0.74314483375859142 0 0.66913059716165679 0.66913059716165679 0 -0.74314483375859142 forward_v I I I I #
coedge $-1 $193 $194 $195 $196 reversed $76 $-1 #
face $-1 $-1 $197 $42 $-1 $198 forward single #
loop $-1 $199 $200 $78 #
cone-surface $-1 44.44465523965544 25.805300975526407 3.8952195016080751 -0.74314483375859142 0 -0.66913059716165679 0.1672826492904142 0 -0.18578620843964785 1 I I -0.70710678118654746 0.70710678118654746 0.25 forward I I I I #
loop $-1 $-1 $201 $54 #
coedge $-1 $126 $126 $202 $203 reversed $79 $-1 #
face $-1 $-1 $204 $43 $-1 $205 forward single #
loop $-1 $206 $207 $81 #
cone-surface $-1 44.44465523965544 28.664451386774083 3.8952195016080751 -0.74314483375859142 0 -0.66913059716165679 0.1672826492904142 0 -0.18578620843964785 1 I I -0.70710678118654746 0.70710678118654746 0.25 forward I I I I #
loop $-1 $-1 $208 $55 #
coedge $-1 $131 $131 $209 $210 reversed $82 $-1 #
face $-1 $211 $212 $44 $-1 $213 reversed single #
loop $-1 $-1 $214 $84 #
plane-surface $-1 -49.311807611316269 -0.011092843250253281 1.1119436263577143 -0.54463904215088732 0 0.83867056331134215 0.83867056331134215 0 0.54463904215088732 forward_v I I I I #
coedge $-1 $215 $216 $217 $218 reversed $85 $-1 #
face $-1 $-1 $219 $45 $-1 $220 forward single #
loop $-1 $221 $222 $87 #
cone-surface $-1 -42.222754263243424 -4.8296277706408084 3.4876575498074054 0.54463904215088732 0 -0.83867056331134215 0.20966764082783554 0 0.13615976053772183 1 I I -0.70710678118654746 0.70710678118654746 0.25 forward I I I I #
loop $-1 $-1 $223 $57 #
coedge $-1 $140 $140 $224 $225 reversed $88 $-1 #
face $-1 $-1 $226 $46 $-1 $227 forward single #
loop $-1 $228 $229 $90 #
cone-surface $-1 -42.222754263243424 -0.011092843250253281 3.4876575498074054 0.54463904215088732 0 -0.83867056331134215 0.20966764082783554 0 0.13615976053772183 1 I I -0.70710678118654746 0.70710678118654746 0.25 forward I I I I #
loop $-1 $-1 $230 $58 #
coedge $-1 $145 $145 $231 $232 reversed $91 $-1 #
face $-1 $-1 $233 $47 $-1 $234 forward single #
loop $-1 $235 $236 $93 #
cone-surface $-1 -42.222754263243424 4.8074420841402983 3.4876575498074054 0.54463904215088732 0 -0.83867056331134215 0.20966764082783554 0 0.13615976053772183 1 I I -0.70710678118654746 0.70710678118654746 0.25 forward I I I I #
loop $-1 $-1 $237 $59 #
coedge $-1 $150 $150 $238 $239 reversed $94 $-1 #
face $-1 $240 $241 $36 $-1 $242 reversed single #
loop $-1 $-1 $243 $96 #
plane-surface $-1 0 -30.570551660939209 0 0 1 0 0 0 1 forward_v I I I I #
coedge $-1 $244 $245 $246 $247 forward $97 $-1 #
coedge $-1 $248 $99 $249 $250 forward $61 $-1 #
coedge $-1 $99 $248 $251 $252 forward $61 $-1 #
coedge $-1 $253 $254 $99 $158 reversed $255 $-1 #
edge $-1 $256 -30.570551660939209 $257 30.570551660939209 $157 $258 forward 7 unknown #
face $-1 $259 $260 $37 $-1 $261 reversed single #
loop $-1 $-1 $262 $100 #
plane-surface $-1 0 -33.687533323641922 8.4975402147922523 0 0 1 1 0 0 forward_v I I I I #
coedge $-1 $263 $264 $164 $265 forward $101 $-1 #
coedge $-1 $266 $103 $267 $268 reversed $64 $-1 #
coedge $-1 $103 $266 $162 $265 reversed $64 $-1 #
coedge $-1 $269 $262 $103 $166 reversed $160 $-1 #
edge $-1 $270 -49.311807611316262 $271 49.311807611316262 $165 $272 forward 7 unknown #
face $-1 $273 $274 $38 $-1 $275 reversed single #
loop $-1 $-1 $276 $104 #
plane-surface $-1 56.611359202449201 -24.336588335533779 140.67405005137596 0 1 0 0.74314483375859142 0 0.66913059716165679 forward_v I I I I #
coedge $-1 $277 $278 $279 $280 reversed $105 $-1 #
coedge $-1 $172 $107 $281 $282 reversed $67 $-1 #
coedge $-1 $107 $171 $277 $283 reversed $67 $-1 #
coedge $-1 $279 $284 $107 $174 forward $285 $-1 #
edge $-1 $286 -21.006128010091661 $287 -14.156575569463005 $173 $288 forward 7 unknown #
loop $-1 $-1 $180 $108 #
plane-surface $-1 -16.680270936845325 -21.000912855744819 74.681971503214385 0.74314483375859142 0 0.66913059716165679 0.66913059716165679 0 -0.74314483375859142 forward_v I I I I #
loop $-1 $-1 $289 $69 #
coedge $-1 $178 $178 $179 $290 reversed $109 $-1 #
coedge $-1 $179 $179 $178 $290 forward $111 $-1 #
coedge $-1 $180 $180 $112 $181 forward $175 $-1 #
edge $-1 $291 0 $291 6.2831853071796004 $180 $292 forward 7 unknown #
loop $-1 $-1 $187 $113 #
plane-surface $-1 -16.680270936845325 -21.000912855744819 74.681971503214385 0.74314483375859142 0 0.66913059716165679 0.66913059716165679 0 -0.74314483375859142 forward_v I I I I #
loop $-1 $-1 $293 $72 #
coedge $-1 $185 $185 $186 $294 reversed $114 $-1 #
coedge $-1 $186 $186 $185 $294 forward $116 $-1 #
coedge $-1 $187 $187 $117 $188 forward $182 $-1 #
edge $-1 $295 0 $295 6.2831853071796004 $187 $296 forward 7 unknown #
face $-1 $297 $298 $41 $-1 $299 forward single #
loop $-1 $-1 $195 $118 #
plane-surface $-1 49.311807611316262 0 0 -1 0 0 0 0 1 forward_v I I I I #
coedge $-1 $300 $301 $302 $303 reversed $119 $-1 #
coedge $-1 $194 $121 $304 $305 reversed $76 $-1 #
coedge $-1 $121 $193 $300 $306 reversed $76 $-1 #
coedge $-1 $302 $307 $121 $196 forward $190 $-1 #
edge $-1 $308 61.339484810895726 $309 68.946683661768148 $195 $310 forward 7 unknown #
loop $-1 $-1 $202 $122 #
plane-surface $-1 -16.680270936845325 27.234876181150248 74.681971503214385 0.74314483375859142 0 0.66913059716165679 0.66913059716165679 0 -0.74314483375859142 forward_v I I I I #
loop $-1 $-1 $311 $78 #
coedge $-1 $200 $200 $201 $312 reversed $123 $-1 #
coedge $-1 $201 $201 $200 $312 forward $125 $-1 #
coedge $-1 $202 $202 $126 $203 forward $197 $-1 #
edge $-1 $313 0 $313 6.2831853071796004 $202 $314 forward 7 unknown #
loop $-1 $-1 $209 $127 #
plane-surface $-1 -16.680270936845325 27.234876181150248 74.681971503214385 0.74314483375859142 0 0.66913059716165679 0.66913059716165679 0 -0.74314483375859142 forward_v I I I I #
loop $-1 $-1 $315 $81 #
coedge $-1 $207 $207 $208 $316 reversed $128 $-1 #
coedge $-1 $208 $208 $207 $316 forward $130 $-1 #
coedge $-1 $209 $209 $131 $210 forward $204 $-1 #
edge $-1 $317 0 $317 6.2831853071796004 $209 $318 forward 7 unknown #
face $-1 $319 $320 $44 $-1 $321 reversed single #
loop $-1 $-1 $322 $132 #
plane-surface $-1 -103.02607893962852 8.0197987024006707 83.824666560923987 0 -1 0 0.54463904215088732 0 -0.83867056331134215 forward_v I I I I #
coedge $-1 $323 $324 $325 $326 reversed $133 $-1 #
coedge $-1 $216 $135 $327 $328 reversed $85 $-1 #
coedge $-1 $135 $215 $323 $329 reversed $85 $-1 #
coedge $-1 $325 $330 $135 $218 forward $331 $-1 #
edge $-1 $332 2.201231858497998 $333 14.343985537614891 $217 $334 forward 7 unknown #
loop $-1 $-1 $224 $136 #
plane-surface $-1 -49.311807611316269 -0.011092843250253281 1.1119436263577143 -0.54463904215088732 0 0.83867056331134215 0.83867056331134215 0 0.54463904215088732 forward_v I I I I #
loop $-1 $-1 $335 $87 #
coedge $-1 $222 $222 $223 $336 reversed $137 $-1 #
coedge $-1 $223 $223 $222 $336 forward $139 $-1 #
coedge $-1 $224 $224 $140 $225 forward $219 $-1 #
edge $-1 $337 0 $337 6.2831853071796004 $224 $338 forward 7 unknown #
loop $-1 $-1 $231 $141 #
plane-surface $-1 -49.311807611316269 -0.011092843250253281 1.1119436263577143 -0.54463904215088732 0 0.83867056331134215 0.83867056331134215 0 0.54463904215088732 forward_v I I I I #
loop $-1 $-1 $339 $90 #
coedge $-1 $229 $229 $230 $340 reversed $142 $-1 #
coedge $-1 $230 $230 $229 $340 forward $144 $-1 #
coedge $-1 $231 $231 $145 $232 forward $226 $-1 #
edge $-1 $341 0 $341 6.2831853071796004 $231 $342 forward 7 unknown #
loop $-1 $-1 $238 $146 #
plane-surface $-1 -49.311807611316269 -0.011092843250253281 1.1119436263577143 -0.54463904215088732 0 0.83867056331134215 0.83867056331134215 0 0.54463904215088732 forward_v I I I I #
loop $-1 $-1 $343 $93 #
coedge $-1 $236 $236 $237 $344 reversed $147 $-1 #
coedge $-1 $237 $237 $236 $344 forward $149 $-1 #
coedge $-1 $238 $238 $150 $239 forward $233 $-1 #
edge $-1 $345 0 $345 6.2831853071796004 $238 $346 forward 7 unknown #
face $-1 $347 $348 $36 $-1 $349 reversed single #
loop $-1 $-1 $350 $151 #
plane-surface $-1 -49.311807611316262 0 0 1 0 0 0 0 -1 forward_v I I I I #
coedge $-1 $351 $251 $352 $353 forward $152 $-1 #
coedge $-1 $354 $154 $351 $355 forward $97 $-1 #
coedge $-1 $154 $354 $356 $357 forward $97 $-1 #
coedge $-1 $254 $253 $154 $247 reversed $255 $-1 #
edge $-1 $358 -30.570551660939209 $359 30.570551660939209 $246 $360 forward 7 unknown #
coedge $-1 $156 $155 $361 $362 forward $61 $-1 #
coedge $-1 $363 $364 $155 $250 reversed $348 $-1 #
edge $-1 $257 -49.311807611316262 $365 49.311807611316262 $249 $366 forward 7 unknown #
coedge $-1 $243 $367 $156 $252 reversed $152 $-1 #
edge $-1 $368 -49.311807611316262 $256 49.311807611316262 $251 $369 forward 7 unknown #
coedge $-1 $246 $157 $367 $370 forward $255 $-1 #
coedge $-1 $157 $246 $363 $371 reversed $255 $-1 #
loop $-1 $-1 $253 $347 #
vertex $-1 $158 $372 #
vertex $-1 $158 $373 #
straight-curve $-1 49.311807611316262 0 8.9975402147922523 0 1 0 I I #
face $-1 $374 $375 $37 $-1 $376 reversed single #
loop $-1 $-1 $377 $159 #
plane-surface $-1 0 -33.687533323641922 4.1946362359770566 0 0 1 1 0 0 forward_v I I I I #
coedge $-1 $165 $378 $379 $380 forward $160 $-1 #
coedge $-1 $381 $162 $382 $383 reversed $101 $-1 #
coedge $-1 $162 $381 $269 $384 reversed $101 $-1 #
edge $-1 $270 -8.4975402147922523 $385 -4.1946362359770566 $162 $386 forward 7 unknown #
coedge $-1 $164 $163 $387 $388 forward $64 $-1 #
coedge $-1 $379 $389 $163 $268 forward $390 $-1 #
edge $-1 $391 4.1946362359770566 $271 8.4975402147922523 $267 $392 forward 7 unknown #
coedge $-1 $378 $165 $264 $384 forward $160 $-1 #
vertex $-1 $265 $393 #
vertex $-1 $380 $394 #
straight-curve $-1 0 -30.570551660939209 8.4975402147922523 1 0 0 I I #
face $-1 $-1 $285 $38 $-1 $395 forward single #
loop $-1 $-1 $396 $167 #
plane-surface $-1 49.311807611316262 0 0 -1 0 0 0 0 1 forward_v I I I I #
coedge $-1 $397 $398 $399 $400 reversed $168 $-1 #
coedge $-1 $401 $170 $172 $283 forward $105 $-1 #
coedge $-1 $170 $401 $397 $402 forward $105 $-1 #
coedge $-1 $399 $173 $170 $280 forward $285 $-1 #
edge $-1 $287 7.1647809480834486 $403 13.83613190766137 $279 $404 forward 7 unknown #
coedge $-1 $405 $406 $171 $282 forward $274 $-1 #
edge $-1 $407 -68.946683661768148 $286 -61.339484810895726 $281 $408 forward 7 unknown #
edge $-1 $287 88.387119582344468 $407 98.623615222632537 $172 $409 forward 7 unknown #
coedge $-1 $173 $399 $405 $410 forward $285 $-1 #
loop $-1 $-1 $399 $273 #
vertex $-1 $282 $411 #
vertex $-1 $174 $412 #
straight-curve $-1 28.3056796012246 -17.665237375955858 8.9975402147922523 -1 0 0 I I #
coedge $-1 $289 $289 $-1 $413 reversed $177 $-1 #
edge $-1 $414 0 $414 6.2831853071796004 $178 $415 forward 7 unknown #
vertex $-1 $181 $416 #
ellipse-curve $-1 45.887031391001933 -22.430488061368656 5.193940789356045 0.74314483375859142 0 0.66913059716165679 0.3345652985808284 0 -0.37157241687929571 1 I I #
coedge $-1 $293 $293 $-1 $417 reversed $184 $-1 #
edge $-1 $418 0 $418 6.2831853071796004 $185 $419 forward 7 unknown #
vertex $-1 $188 $420 #
ellipse-curve $-1 45.887031391001933 -19.571337650120981 5.193940789356045 0.74314483375859142 0 0.66913059716165679 0.3345652985808284 0 -0.37157241687929571 1 I I #
face $-1 $-1 $421 $41 $-1 $422 reversed single #
loop $-1 $-1 $304 $189 #
plane-surface $-1 0 0 8.9975402147922523 0 0 1 1 0 0 forward_v I I I I #
coedge $-1 $423 $192 $194 $306 forward $119 $-1 #
coedge $-1 $192 $423 $424 $425 reversed $119 $-1 #
coedge $-1 $426 $195 $192 $303 forward $190 $-1 #
edge $-1 $309 10.281762610786163 $427 16.953113570364085 $302 $428 forward 7 unknown #
coedge $-1 $429 $430 $193 $305 forward $298 $-1 #
edge $-1 $431 14.156575569463005 $308 21.006128010091661 $304 $432 forward 7 unknown #
edge $-1 $309 -98.623615222632537 $431 -88.387119582344468 $194 $433 forward 7 unknown #
coedge $-1 $195 $426 $429 $434 reversed $190 $-1 #
vertex $-1 $434 $435 #
vertex $-1 $196 $436 #
straight-curve $-1 49.311807611316262 23.899200701361288 70.337025025687979 0 0 -1 I I #
coedge $-1 $311 $311 $-1 $437 reversed $199 $-1 #
edge $-1 $438 0 $438 6.2831853071796004 $200 $439 forward 7 unknown #
vertex $-1 $203 $440 #
ellipse-curve $-1 45.887031391001933 25.805300975526407 5.193940789356045 0.74314483375859142 0 0.66913059716165679 0.3345652985808284 0 -0.37157241687929571 1 I I #
coedge $-1 $315 $315 $-1 $441 reversed $206 $-1 #
edge $-1 $442 0 $442 6.2831853071796004 $207 $443 forward 7 unknown #
vertex $-1 $210 $444 #
ellipse-curve $-1 45.887031391001933 28.664451386774083 5.193940789356045 0.74314483375859142 0 0.66913059716165679 0.3345652985808284 0 -0.37157241687929571 1 I I #
face $-1 $-1 $331 $44 $-1 $445 forward single #
loop $-1 $-1 $446 $211 #
plane-surface $-1 -49.311807611316262 0 0 1 0 0 0 0 -1 forward_v I I I I #
coedge $-1 $447 $448 $449 $450 reversed $212 $-1 #
coedge $-1 $451 $214 $216 $329 forward $133 $-1 #
coedge $-1 $214 $451 $447 $452 forward $133 $-1 #
coedge $-1 $449 $217 $214 $326 forward $331 $-1 #
edge $-1 $333 -8.0364379672760506 $453 8.0253451240257974 $325 $454 forward 7 unknown #
coedge $-1 $455 $456 $215 $328 forward $320 $-1 #
edge $-1 $457 -40.800389654104272 $332 -32.914793065669741 $327 $458 forward 7 unknown #
edge $-1 $333 -14.478573840929133 $457 -8.4987301443310198e-015 $216 $459 forward 7 unknown #
coedge $-1 $217 $449 $455 $460 forward $331 $-1 #
loop $-1 $-1 $449 $319 #
vertex $-1 $328 $461 #
vertex $-1 $218 $462 #
straight-curve $-1 -51.51303946981426 -8.0419843889011773 8.9975402147922523 1 0 0 I I #
coedge $-1 $335 $335 $-1 $463 reversed $221 $-1 #
edge $-1 $464 0 $464 6.2831853071796004 $222 $465 forward 7 unknown #
vertex $-1 $225 $466 #
ellipse-curve $-1 -43.240430771757815 -4.8296277706408084 5.0547419205749868 -0.54463904215088732 0 0.83867056331134215 0.41933528165567108 0 0.27231952107544366 1 I I #
coedge $-1 $339 $339 $-1 $467 reversed $228 $-1 #
edge $-1 $468 0 $468 6.2831853071796004 $229 $469 forward 7 unknown #
vertex $-1 $232 $470 #
ellipse-curve $-1 -43.240430771757815 -0.011092843250253281 5.0547419205749868 -0.54463904215088732 0 0.83867056331134215 0.41933528165567108 0 0.27231952107544366 1 I I #
coedge $-1 $343 $343 $-1 $471 reversed $235 $-1 #
edge $-1 $472 0 $472 6.2831853071796004 $236 $473 forward 7 unknown #
vertex $-1 $239 $474 #
ellipse-curve $-1 -43.240430771757815 4.8074420841402983 5.0547419205749868 -0.54463904215088732 0 0.83867056331134215 0.41933528165567108 0 0.27231952107544366 1 I I #
face $-1 $-1 $255 $36 $-1 $475 reversed single #
loop $-1 $-1 $363 $240 #
plane-surface $-1 0 30.570551660939209 0 0 -1 0 0 0 -1 forward_v I I I I #
coedge $-1 $476 $361 $364 $477 forward $241 $-1 #
coedge $-1 $367 $243 $244 $355 reversed $152 $-1 #
coedge $-1 $361 $476 $243 $353 reversed $241 $-1 #
edge $-1 $368 -8.9975402147922523 $478 8.9975402147922523 $352 $479 forward 7 unknown #
coedge $-1 $245 $244 $476 $480 forward $97 $-1 #
edge $-1 $359 -49.311807611316262 $478 49.311807611316262 $351 $481 forward 7 unknown #
coedge $-1 $364 $363 $245 $357 reversed $348 $-1 #
edge $-1 $482 -49.311807611316262 $358 49.311807611316262 $356 $483 forward 7 unknown #
vertex $-1 $247 $484 #
vertex $-1 $370 $485 #
straight-curve $-1 49.311807611316262 0 -8.9975402147922523 0 -1 0 I I #
coedge $-1 $350 $352 $248 $362 reversed $241 $-1 #
edge $-1 $365 -30.570551660939209 $368 30.570551660939209 $361 $486 forward 7 unknown #
coedge $-1 $356 $249 $254 $371 forward $348 $-1 #
coedge $-1 $249 $356 $350 $477 reversed $348 $-1 #
vertex $-1 $250 $487 #
straight-curve $-1 0 30.570551660939209 8.9975402147922523 -1 0 0 I I #
coedge $-1 $251 $351 $253 $370 reversed $152 $-1 #
vertex $-1 $362 $488 #
straight-curve $-1 0 -30.570551660939209 8.9975402147922523 1 0 0 I I #
edge $-1 $256 -8.9975402147922523 $359 8.9975402147922523 $253 $489 forward 7 unknown #
edge $-1 $257 -8.9975402147922523 $358 8.9975402147922523 $254 $490 forward 7 unknown #
point $-1 49.311807611316262 -30.570551660939209 8.9975402147922523 #
point $-1 49.311807611316262 30.570551660939209 8.9975402147922523 #
face $-1 $-1 $390 $37 $-1 $491 reversed single #
loop $-1 $-1 $492 $259 #
plane-surface $-1 0 -36.804514986344635 6.3460882253846549 0 1 0 0 0 1 forward_v I I I I #
coedge $-1 $493 $387 $389 $494 forward $260 $-1 #
coedge $-1 $262 $269 $495 $496 forward $160 $-1 #
coedge $-1 $497 $267 $262 $380 reversed $390 $-1 #
edge $-1 $498 -3.1169816627027132 $271 3.1169816627027167 $379 $499 forward 7 unknown #
coedge $-1 $264 $263 $492 $500 reversed $101 $-1 #
coedge $-1 $387 $493 $263 $383 forward $260 $-1 #
edge $-1 $501 -3.1169816627027132 $385 3.1169816627027167 $263 $502 forward 7 unknown #
edge $-1 $270 -3.1169816627027167 $503 3.1169816627027132 $264 $504 forward 7 unknown #
vertex $-1 $265 $505 #
straight-curve $-1 -49.311807611316262 -30.570551660939209 0 0 0 -1 I I #
coedge $-1 $377 $382 $266 $388 reversed $260 $-1 #
edge $-1 $391 -49.311807611316262 $385 49.311807611316262 $387 $506 forward 7 unknown #
coedge $-1 $267 $497 $377 $494 reversed $390 $-1 #
loop $-1 $-1 $267 $374 #
vertex $-1 $268 $507 #
straight-curve $-1 49.311807611316262 -30.570551660939209 0 0 0 1 I I #
point $-1 -49.311807611316262 -30.570551660939206 8.4975402147922523 #
point $-1 49.311807611316262 -30.570551660939206 8.4975402147922523 #
plane-surface $-1 0 0 8.9975402147922523 0 0 1 1 0 0 forward_v I I I I #
coedge $-1 $406 $405 $398 $508 forward $274 $-1 #
coedge $-1 $398 $276 $278 $402 reversed $168 $-1 #
coedge $-1 $276 $397 $396 $508 reversed $168 $-1 #
coedge $-1 $284 $279 $276 $400 forward $285 $-1 #
edge $-1 $403 14.156575569463005 $509 21.006128010091661 $399 $510 forward 7 unknown #
coedge $-1 $278 $277 $406 $511 reversed $105 $-1 #
edge $-1 $512 -98.623615222632537 $403 -88.387119582344468 $397 $513 forward 7 unknown #
vertex $-1 $280 $514 #
straight-curve $-1 42.462255170687598 -10.500456427872409 8.9975402147922594 0 -1 0 I I #
coedge $-1 $396 $281 $284 $410 reversed $274 $-1 #
coedge $-1 $281 $396 $401 $511 forward $274 $-1 #
vertex $-1 $282 $515 #
straight-curve $-1 49.311807611316262 -17.665237375955858 70.337025025687979 0 0 1 I I #
straight-curve $-1 -16.680270936845325 -17.665237375955858 74.681971503214385 0.66913059716165679 0 -0.74314483375859142 I I #
edge $-1 $509 -24.336588335533779 $286 -17.665237375955858 $405 $516 forward 7 unknown #
point $-1 49.311807611316262 -17.665237375955858 8.9975402147922523 #
point $-1 42.462255170687605 -17.665237375955858 8.9975402147922523 #
edge $-1 $517 1 $517 0 $289 $-1 forward 7 unknown #
vertex $-1 $290 $518 #
ellipse-curve $-1 44.630441448095084 -22.430488061368656 4.0625021508984895 0.74314483375859142 0 0.66913059716165679 0.3345652985808284 0 -0.37157241687929571 1 I I #
point $-1 46.221596689582761 -22.430488061368656 4.8223683724767508 #
edge $-1 $519 1 $519 0 $293 $-1 forward 7 unknown #
vertex $-1 $294 $520 #
ellipse-curve $-1 44.630441448095084 -19.571337650120981 4.0625021508984895 0.74314483375859142 0 0.66913059716165679 0.3345652985808284 0 -0.37157241687929571 1 I I #
point $-1 46.221596689582761 -19.571337650120981 4.8223683724767508 #
loop $-1 $-1 $424 $297 #
plane-surface $-1 0 30.570551660939209 0 0 -1 0 0 0 -1 forward_v I I I I #
coedge $-1 $301 $300 $430 $521 reversed $119 $-1 #
coedge $-1 $522 $523 $301 $425 forward $421 $-1 #
edge $-1 $427 -65.29321474747772 $524 -55.056719107189643 $424 $525 forward 7 unknown #
coedge $-1 $307 $302 $523 $526 reversed $190 $-1 #
vertex $-1 $303 $527 #
straight-curve $-1 49.311807611316262 13.617438090575124 1.3903413639198305 0 1 0 I I #
coedge $-1 $528 $304 $307 $434 forward $298 $-1 #
coedge $-1 $304 $528 $423 $521 forward $298 $-1 #
vertex $-1 $305 $529 #
straight-curve $-1 28.3056796012246 23.899200701361288 8.9975402147922523 1 0 0 I I #
straight-curve $-1 -16.680270936845325 23.899200701361288 74.681971503214385 -0.66913059716165679 0 0.74314483375859142 I I #
edge $-1 $308 23.899200701361288 $530 30.570551660939209 $307 $531 forward 7 unknown #
point $-1 49.311807611316262 23.899200701361288 8.9975402147922523 #
point $-1 49.311807611316262 23.899200701361288 1.3903413639198305 #
edge $-1 $532 1 $532 0 $311 $-1 forward 7 unknown #
vertex $-1 $312 $533 #
ellipse-curve $-1 44.630441448095084 25.805300975526407 4.0625021508984895 0.74314483375859142 0 0.66913059716165679 0.3345652985808284 0 -0.37157241687929571 1 I I #
point $-1 46.221596689582761 25.805300975526407 4.8223683724767508 #
edge $-1 $534 1 $534 0 $315 $-1 forward 7 unknown #
vertex $-1 $316 $535 #
ellipse-curve $-1 44.630441448095084 28.664451386774083 4.0625021508984895 0.74314483375859142 0 0.66913059716165679 0.3345652985808284 0 -0.37157241687929571 1 I I #
point $-1 46.221596689582761 28.664451386774083 4.8223683724767508 #
plane-surface $-1 0 0 8.9975402147922523 0 0 1 1 0 0 forward_v I I I I #
coedge $-1 $456 $455 $448 $536 forward $320 $-1 #
coedge $-1 $448 $322 $324 $452 reversed $212 $-1 #
coedge $-1 $322 $447 $446 $536 reversed $212 $-1 #
coedge $-1 $330 $325 $322 $450 forward $331 $-1 #
edge $-1 $453 -14.343985537614891 $537 -2.201231858497998 $449 $538 forward 7 unknown #
coedge $-1 $324 $323 $456 $539 reversed $133 $-1 #
edge $-1 $540 8.4987301443310198e-015 $453 14.478573840929133 $447 $541 forward 7 unknown #
vertex $-1 $326 $542 #
straight-curve $-1 -37.169053932199375 -0.0055464216251266407 8.9975402147922523 0 1 0 I I #
coedge $-1 $446 $327 $330 $460 reversed $320 $-1 #
coedge $-1 $327 $446 $451 $539 forward $320 $-1 #
vertex $-1 $328 $543 #
straight-curve $-1 -49.311807611316262 -8.0419843889011773 41.912333280461993 0 0 1 I I #
straight-curve $-1 -49.311807611316269 -8.0419843889011773 1.1119436263577143 -0.83867056331134215 0 -0.54463904215088732 I I #
edge $-1 $537 -8.0197987024006707 $332 8.0419843889011773 $455 $544 forward 7 unknown #
point $-1 -49.311807611316262 -8.0419843889011773 8.9975402147922523 #
point $-1 -37.169053932199368 -8.0419843889011773 8.9975402147922523 #
edge $-1 $545 1 $545 0 $335 $-1 forward 7 unknown #
vertex $-1 $336 $546 #
ellipse-curve $-1 -42.358914023781146 -4.8296277706408084 3.6973251906352411 -0.54463904215088732 0 0.83867056331134215 0.41933528165567108 0 0.27231952107544366 1 I I #
point $-1 -42.821095490102138 -4.8296277706408084 5.3270614416504216 #
edge $-1 $547 1 $547 0 $339 $-1 forward 7 unknown #
vertex $-1 $340 $548 #
ellipse-curve $-1 -42.358914023781146 -0.011092843250253281 3.6973251906352411 -0.54463904215088732 0 0.83867056331134215 0.41933528165567108 0 0.27231952107544366 1 I I #
point $-1 -42.821095490102138 -0.011092843250253281 5.3270614416504216 #
edge $-1 $549 1 $549 0 $343 $-1 forward 7 unknown #
vertex $-1 $344 $550 #
ellipse-curve $-1 -42.358914023781146 4.8074420841402983 3.6973251906352411 -0.54463904215088732 0 0.83867056331134215 0.41933528165567108 0 0.27231952107544366 1 I I #
point $-1 -42.821095490102138 4.8074420841402983 5.3270614416504216 #
plane-surface $-1 49.311807611316262 0 0 -1 0 0 0 0 1 forward_v I I I I #
coedge $-1 $352 $350 $354 $480 reversed $241 $-1 #
edge $-1 $365 -8.9975402147922523 $482 8.9975402147922523 $364 $551 forward 7 unknown #
vertex $-1 $480 $552 #
straight-curve $-1 -49.311807611316262 -30.570551660939209 0 0 0 -1 I I #
edge $-1 $478 -30.570551660939209 $482 30.570551660939209 $476 $553 forward 7 unknown #
straight-curve $-1 0 -30.570551660939209 -8.9975402147922523 -1 0 0 I I #
vertex $-1 $357 $554 #
straight-curve $-1 0 30.570551660939209 -8.9975402147922523 1 0 0 I I #
point $-1 49.311807611316262 30.570551660939209 -8.9975402147922523 #
point $-1 49.311807611316262 -30.570551660939209 -8.9975402147922523 #
straight-curve $-1 -49.311807611316262 0 8.9975402147922523 0 -1 0 I I #
point $-1 -49.311807611316262 30.570551660939209 8.9975402147922523 #
point $-1 -49.311807611316262 -30.570551660939209 8.9975402147922523 #
straight-curve $-1 49.311807611316262 -30.570551660939209 0 0 0 -1 I I #
straight-curve $-1 49.311807611316262 30.570551660939209 0 0 0 -1 I I #
plane-surface $-1 49.311807611316262 0 0 -1 0 0 0 0 1 forward_v I I I I #
coedge $-1 $555 $495 $381 $500 forward $375 $-1 #
coedge $-1 $382 $377 $555 $556 forward $260 $-1 #
edge $-1 $391 -3.1169816627027167 $557 3.1169816627027132 $389 $558 forward 7 unknown #
coedge $-1 $492 $559 $378 $496 reversed $375 $-1 #
edge $-1 $503 -49.311807611316262 $498 49.311807611316262 $495 $560 forward 7 unknown #
coedge $-1 $389 $379 $559 $561 forward $390 $-1 #
vertex $-1 $380 $562 #
straight-curve $-1 49.311807611316262 -33.687533323641922 8.4975402147922523 0 1 0 I I #
edge $-1 $503 -2.1514519894075974 $501 2.1514519894075983 $381 $563 forward 7 unknown #
vertex $-1 $383 $564 #
straight-curve $-1 -49.311807611316262 -33.687533323641922 4.1946362359770566 0 1 0 I I #
vertex $-1 $384 $565 #
straight-curve $-1 -49.311807611316262 -33.687533323641922 8.4975402147922523 0 -1 0 I I #
point $-1 -49.311807611316262 -30.570551660939206 4.1946362359770566 #
straight-curve $-1 0 -30.570551660939209 4.1946362359770566 -1 0 0 I I #
point $-1 49.311807611316262 -30.570551660939206 4.1946362359770566 #
edge $-1 $509 61.339484810895726 $512 68.946683661768148 $396 $566 forward 7 unknown #
vertex $-1 $410 $567 #
straight-curve $-1 28.3056796012246 -24.336588335533779 8.9975402147922523 1 0 0 I I #
edge $-1 $512 -13.83613190766137 $407 -7.1647809480834486 $406 $568 forward 7 unknown #
vertex $-1 $511 $569 #
straight-curve $-1 -16.680270936845325 -24.336588335533779 74.681971503214385 -0.66913059716165679 0 0.74314483375859142 I I #
point $-1 42.462255170687605 -24.336588335533779 8.9975402147922523 #
point $-1 49.311807611316262 -17.665237375955858 1.3903413639198305 #
straight-curve $-1 49.311807611316262 0 8.9975402147922523 0 1 0 I I #
vertex $-1 $413 $570 #
point $-1 44.965006746675918 -22.430488061368656 3.6909297340191936 #
vertex $-1 $417 $571 #
point $-1 44.965006746675918 -19.571337650120981 3.6909297340191936 #
edge $-1 $524 -16.953113570364085 $431 -10.281762610786163 $430 $572 forward 7 unknown #
coedge $-1 $523 $424 $528 $573 reversed $421 $-1 #
coedge $-1 $424 $522 $426 $526 forward $421 $-1 #
vertex $-1 $425 $574 #
straight-curve $-1 5.6221198367321961 30.570551660939209 49.912656582998167 -0.66913059716165679 0 0.74314483375859142 I I #
edge $-1 $530 -8.9975402147922523 $427 -1.3903413639198272 $426 $575 forward 7 unknown #
point $-1 49.311807611316262 30.570551660939209 1.3903413639198272 #
coedge $-1 $430 $429 $522 $573 forward $298 $-1 #
point $-1 42.462255170687605 23.899200701361288 8.9975402147922523 #
vertex $-1 $434 $576 #
straight-curve $-1 49.311807611316262 0 8.9975402147922523 0 1 0 I I #
vertex $-1 $437 $577 #
point $-1 44.965006746675918 25.805300975526407 3.6909297340191936 #
vertex $-1 $441 $578 #
point $-1 44.965006746675918 28.664451386774083 3.6909297340191936 #
edge $-1 $537 32.914793065669741 $540 40.800389654104272 $446 $579 forward 7 unknown #
vertex $-1 $460 $580 #
straight-curve $-1 -51.51303946981426 8.0197987024006707 8.9975402147922523 -1 0 0 I I #
edge $-1 $540 -8.0253451240257974 $457 8.0364379672760506 $456 $581 forward 7 unknown #
vertex $-1 $539 $582 #
straight-curve $-1 -49.311807611316269 8.0197987024006707 1.1119436263577143 0.83867056331134215 0 0.54463904215088732 I I #
point $-1 -37.169053932199368 8.0197987024006707 8.9975402147922523 #
point $-1 -49.311807611316262 -8.0419843889011773 1.1119436263577189 #
straight-curve $-1 -49.311807611316262 0 8.9975402147922523 0 -1 0 I I #
vertex $-1 $463 $583 #
point $-1 -41.939578742125477 -4.8296277706408084 3.9696447117106848 #
vertex $-1 $467 $584 #
point $-1 -41.939578742125477 -0.011092843250253281 3.9696447117106848 #
vertex $-1 $471 $585 #
point $-1 -41.939578742125477 4.8074420841402983 3.9696447117106848 #
straight-curve $-1 -49.311807611316262 30.570551660939209 0 0 0 -1 I I #
point $-1 -49.311807611316262 -30.570551660939209 -8.9975402147922523 #
straight-curve $-1 -49.311807611316262 0 -8.9975402147922523 0 1 0 I I #
point $-1 -49.311807611316262 30.570551660939209 -8.9975402147922523 #
coedge $-1 $559 $492 $493 $556 reversed $375 $-1 #
edge $-1 $557 -49.311807611316262 $501 49.311807611316262 $555 $586 forward 7 unknown #
vertex $-1 $561 $587 #
straight-curve $-1 49.311807611316262 -33.687533323641922 4.1946362359770566 0 -1 0 I I #
coedge $-1 $495 $555 $497 $561 reversed $375 $-1 #
straight-curve $-1 0 -36.804514986344635 8.4975402147922523 1 0 0 I I #
edge $-1 $498 -2.1514519894075974 $557 2.1514519894075983 $497 $588 forward 7 unknown #
point $-1 49.311807611316262 -36.804514986344635 8.4975402147922523 #
straight-curve $-1 -49.311807611316262 -36.804514986344635 6.3460882253846549 0 0 -1 I I #
point $-1 -49.311807611316262 -36.804514986344635 4.1946362359770566 #
point $-1 -49.311807611316262 -36.804514986344635 8.4975402147922523 #
straight-curve $-1 49.311807611316262 -24.336588335533779 70.337025025687979 0 0 -1 I I #
point $-1 49.311807611316262 -24.336588335533779 8.9975402147922523 #
straight-curve $-1 49.311807611316262 -10.500456427872409 1.3903413639198305 0 1 0 I I #
point $-1 49.311807611316262 -24.336588335533779 1.3903413639198305 #
point $-1 44.258869031215795 -22.430488061368656 3.727936852317661 #
point $-1 44.258869031215795 -19.571337650120981 3.727936852317661 #
straight-curve $-1 42.462255170687598 13.617438090575124 8.9975402147922594 0 -1 0 I I #
edge $-1 $530 -49.311807611316262 $524 -42.462255170687605 $522 $589 forward 7 unknown #
point $-1 42.462255170687605 30.570551660939209 8.9975402147922523 #
straight-curve $-1 49.311807611316262 30.570551660939209 0 0 0 -1 I I #
point $-1 49.311807611316262 30.570551660939209 8.9975402147922523 #
point $-1 44.258869031215795 25.805300975526407 3.727936852317661 #
point $-1 44.258869031215795 28.664451386774083 3.727936852317661 #
straight-curve $-1 -49.311807611316262 8.0197987024006707 41.912333280461993 0 0 -1 I I #
point $-1 -49.311807611316262 8.0197987024006707 8.9975402147922523 #
straight-curve $-1 -49.311807611316262 -0.0055464216251266407 1.1119436263577218 0 -1 0 I I #
point $-1 -49.311807611316262 8.0197987024006707 1.1119436263577189 #
point $-1 -42.086594502705701 -4.8296277706408084 3.2779899089795697 #
point $-1 -42.086594502705701 -0.011092843250253281 3.2779899089795697 #
point $-1 -42.086594502705701 4.8074420841402983 3.2779899089795697 #
straight-curve $-1 0 -36.804514986344635 4.1946362359770566 -1 0 0 I I #
point $-1 49.311807611316262 -36.804514986344635 4.1946362359770566 #
straight-curve $-1 49.311807611316262 -36.804514986344635 6.3460882253846549 0 0 -1 I I #
straight-curve $-1 0 30.570551660939209 8.9975402147922523 -1 0 0 I I #
End-of-ACIS-data 