500 0 4 0           
7 Unknown 11 ACIS 5.0 NT 24 Fri Mar 26 01:45:52 1999 
-1 9.9999999999999995e-007 1e-010 
body $-1 $4 $-1 $5 #
body $-1 $6 $-1 $7 #
body $-1 $8 $-1 $9 #
body $-1 $10 $-1 $11 #
lump $-1 $-1 $12 $0 #
transform $-1 1 0 0 0 1 0 0 0 1 58.745689260536516 38.060544481298493 8.9766991137538081 1 rotate no_reflect no_shear #
lump $-1 $-1 $13 $1 #
transform $-1 1 0 0 0 1 0 0 0 1 58.745689260536516 38.060544481298493 8.9766991137538081 1 rotate no_reflect no_shear #
lump $-1 $-1 $14 $2 #
transform $-1 1 0 0 0 1 0 0 0 1 58.745689260536516 38.060544481298493 8.9766991137538081 1 rotate no_reflect no_shear #
lump $-1 $-1 $15 $3 #
transform $-1 1 0 0 0 1 0 0 0 1 58.745689260536516 38.060544481298493 8.9766991137538081 1 rotate no_reflect no_shear #
shell $-1 $-1 $-1 $16 $-1 $4 #
shell $-1 $-1 $-1 $17 $-1 $6 #
shell $-1 $-1 $-1 $18 $-1 $8 #
shell $-1 $-1 $-1 $19 $-1 $10 #
face $-1 $20 $21 $12 $-1 $22 forward single #
face $-1 $23 $24 $13 $-1 $25 forward single #
face $-1 $26 $27 $14 $-1 $28 reversed single #
face $-1 $29 $30 $15 $-1 $31 forward single #
face $-1 $32 $33 $12 $-1 $34 reversed single #
loop $-1 $-1 $35 $16 #
plane-surface $-1 0 0 8.9766991137538081 0 0 1 1 0 0 forward_v I I I I #
face $-1 $36 $37 $13 $-1 $38 reversed single #
loop $-1 $-1 $39 $17 #
plane-surface $-1 -55.5080943919682 0 0.81659689600345642 0 0 1 1 0 0 forward_v I I I I #
face $-1 $40 $41 $14 $-1 $42 reversed single #
loop $-1 $-1 $43 $18 #
plane-surface $-1 70.336280610786019 -23.529772687965327 170.37023842164041 0 -1 0 -0.75470958851134928 0 -0.65605901945558964 forward_v I I I I #
face $-1 $44 $45 $15 $-1 $46 forward single #
loop $-1 $47 $48 $19 #
cone-surface $-1 56.277463268185201 -30.79515858463191 6.2984882684439283 -0.75470958851134928 0 -0.65605901945558964 0.65605901945558964 0 -0.75470958851134928 1 I I 0 1 1 forward I I I I #
face $-1 $49 $50 $12 $-1 $51 reversed single #
loop $-1 $-1 $52 $20 #
plane-surface $-1 0 0 -8.9766991137538081 0 0 1 1 0 0 forward_v I I I I #
coedge $-1 $53 $54 $55 $56 forward $21 $-1 #
face $-1 $57 $58 $13 $-1 $59 reversed single #
loop $-1 $-1 $60 $23 #
plane-surface $-1 -55.5080943919682 0 -2.245841798811703 0 0 1 1 0 0 forward_v I I I I #
coedge $-1 $61 $62 $63 $64 forward $24 $-1 #
face $-1 $65 $66 $14 $-1 $67 reversed single #
loop $-1 $-1 $68 $26 #
plane-surface $-1 -18.335589326484182 -30.79515858463191 93.288959834619703 0.75470958851134928 0 0.65605901945558964 0.65605901945558964 0 -0.75470958851134928 forward_v I I I I #
coedge $-1 $69 $70 $71 $72 reversed $27 $-1 #
face $-1 $-1 $73 $15 $-1 $74 forward single #
loop $-1 $75 $76 $29 #
cone-surface $-1 55.326757670169251 -30.79515858463191 5.4720525216084344 -0.75470958851134928 0 -0.65605901945558964 0.32802950972779482 0 -0.37735479425567464 1 I I -0.70710678118654746 0.70710678118654746 0.5 forward I I I I #
loop $-1 $-1 $77 $19 #
coedge $-1 $48 $48 $78 $79 reversed $30 $-1 #
face $-1 $80 $81 $12 $-1 $82 reversed single #
loop $-1 $-1 $83 $32 #
plane-surface $-1 0 -38.060544481298493 0 0 1 0 0 0 1 forward_v I I I I #
coedge $-1 $84 $85 $86 $87 forward $33 $-1 #
coedge $-1 $88 $35 $89 $90 forward $21 $-1 #
coedge $-1 $35 $88 $91 $92 forward $21 $-1 #
coedge $-1 $93 $94 $35 $56 reversed $95 $-1 #
edge $-1 $96 -38.060544481298493 $97 38.060544481298493 $55 $98 forward 7 unknown #
face $-1 $99 $100 $13 $-1 $101 reversed single #
loop $-1 $-1 $102 $36 #
plane-surface $-1 -52.270499523399884 0 -0.71462245140412328 -1 0 0 0 0 1 forward_v I I I I #
coedge $-1 $103 $104 $105 $106 forward $37 $-1 #
coedge $-1 $107 $39 $108 $109 reversed $24 $-1 #
coedge $-1 $39 $107 $110 $111 reversed $24 $-1 #
coedge $-1 $102 $112 $39 $64 reversed $58 $-1 #
edge $-1 $113 -38.060544481298493 $114 38.060544481298493 $63 $115 forward 7 unknown #
face $-1 $116 $117 $14 $-1 $118 forward single #
loop $-1 $-1 $119 $40 #
plane-surface $-1 0 -38.060544481298493 0 0 1 0 0 0 1 forward_v I I I I #
coedge $-1 $120 $121 $122 $123 reversed $41 $-1 #
coedge $-1 $70 $43 $124 $125 reversed $27 $-1 #
coedge $-1 $43 $69 $120 $126 reversed $27 $-1 #
coedge $-1 $122 $127 $43 $72 forward $117 $-1 #
edge $-1 $128 -23.577548955143506 $129 -19.787798577961496 $71 $130 forward 7 unknown #
loop $-1 $-1 $78 $44 #
plane-surface $-1 -18.335589326484182 -30.79515858463191 93.288959834619703 0.75470958851134928 0 0.65605901945558964 0.65605901945558964 0 -0.75470958851134928 forward_v I I I I #
loop $-1 $-1 $131 $29 #
coedge $-1 $76 $76 $77 $132 reversed $45 $-1 #
coedge $-1 $77 $77 $76 $132 forward $47 $-1 #
coedge $-1 $78 $78 $48 $79 forward $73 $-1 #
edge $-1 $133 0 $133 6.2831853071796004 $78 $134 forward 7 unknown #
face $-1 $135 $136 $12 $-1 $137 reversed single #
loop $-1 $-1 $138 $49 #
plane-surface $-1 -58.745689260536516 0 0 1 0 0 0 0 -1 forward_v I I I I #
coedge $-1 $139 $91 $140 $141 forward $50 $-1 #
coedge $-1 $142 $52 $139 $143 forward $33 $-1 #
coedge $-1 $52 $142 $144 $145 forward $33 $-1 #
coedge $-1 $94 $93 $52 $87 reversed $95 $-1 #
edge $-1 $146 -38.060544481298493 $147 38.060544481298493 $86 $148 forward 7 unknown #
coedge $-1 $54 $53 $149 $150 forward $21 $-1 #
coedge $-1 $151 $152 $53 $90 reversed $136 $-1 #
edge $-1 $97 -58.745689260536516 $153 58.745689260536516 $89 $154 forward 7 unknown #
coedge $-1 $83 $155 $54 $92 reversed $50 $-1 #
edge $-1 $156 -58.745689260536516 $96 58.745689260536516 $91 $157 forward 7 unknown #
coedge $-1 $86 $55 $155 $158 forward $95 $-1 #
coedge $-1 $55 $86 $151 $159 reversed $95 $-1 #
loop $-1 $-1 $93 $135 #
vertex $-1 $56 $160 #
vertex $-1 $56 $161 #
straight-curve $-1 58.745689260536516 0 8.9766991137538081 0 1 0 I I #
face $-1 $162 $163 $13 $-1 $164 reversed single #
loop $-1 $-1 $165 $57 #
plane-surface $-1 0 -38.060544481298493 0 0 1 0 0 0 1 forward_v I I I I #
coedge $-1 $105 $63 $166 $167 reversed $58 $-1 #
coedge $-1 $168 $60 $165 $169 reversed $37 $-1 #
coedge $-1 $60 $168 $170 $171 reversed $37 $-1 #
coedge $-1 $112 $102 $60 $106 reversed $58 $-1 #
edge $-1 $172 -38.060544481298493 $173 38.060544481298493 $105 $174 forward 7 unknown #
coedge $-1 $62 $61 $175 $176 reversed $24 $-1 #
coedge $-1 $177 $178 $61 $109 forward $179 $-1 #
edge $-1 $180 -30.991642064552416 $114 -24.516452327415784 $108 $181 forward 7 unknown #
coedge $-1 $182 $166 $62 $111 forward $100 $-1 #
edge $-1 $113 24.516452327415784 $183 30.991642064552416 $110 $184 forward 7 unknown #
coedge $-1 $63 $105 $177 $185 reversed $58 $-1 #
vertex $-1 $111 $186 #
vertex $-1 $109 $187 #
straight-curve $-1 -52.270499523399884 0 0.81659689600345642 0 1 0 I I #
face $-1 $-1 $188 $14 $-1 $189 reversed single #
loop $-1 $-1 $122 $65 #
plane-surface $-1 0 0 8.9766991137538081 0 0 1 1 0 0 forward_v I I I I #
coedge $-1 $190 $191 $121 $192 forward $66 $-1 #
coedge $-1 $193 $68 $70 $126 forward $41 $-1 #
coedge $-1 $68 $193 $119 $192 reversed $41 $-1 #
coedge $-1 $194 $71 $68 $123 forward $117 $-1 #
edge $-1 $129 8.1321933956493719 $195 22.66296518898254 $122 $196 forward 7 unknown #
coedge $-1 $197 $198 $69 $125 forward $188 $-1 #
edge $-1 $199 -80.568029313470717 $128 -76.208420097066394 $124 $200 forward 7 unknown #
edge $-1 $129 111.71483972685478 $199 117.49137852107306 $70 $201 forward 7 unknown #
coedge $-1 $71 $194 $197 $202 forward $117 $-1 #
vertex $-1 $125 $203 #
vertex $-1 $72 $204 #
straight-curve $-1 35.16814030539301 -23.529772687965327 8.9766991137538099 -1 0 0 I I #
coedge $-1 $131 $131 $-1 $205 reversed $75 $-1 #
edge $-1 $206 0 $206 6.2831853071796004 $76 $207 forward 7 unknown #
vertex $-1 $79 $208 #
ellipse-curve $-1 56.850814071945507 -30.79515858463191 6.7968945055516512 0.75470958851134928 0 0.65605901945558964 0.65605901945558964 0 -0.75470958851134928 1 I I #
face $-1 $-1 $95 $12 $-1 $209 reversed single #
loop $-1 $-1 $151 $80 #
plane-surface $-1 0 38.060544481298493 0 0 -1 0 0 0 -1 forward_v I I I I #
coedge $-1 $210 $149 $152 $211 forward $81 $-1 #
coedge $-1 $155 $83 $84 $143 reversed $50 $-1 #
coedge $-1 $149 $210 $83 $141 reversed $81 $-1 #
edge $-1 $156 -8.9766991137538081 $212 8.9766991137538081 $140 $213 forward 7 unknown #
coedge $-1 $85 $84 $210 $214 forward $33 $-1 #
edge $-1 $147 -58.745689260536516 $212 58.745689260536516 $139 $215 forward 7 unknown #
coedge $-1 $152 $151 $85 $145 reversed $136 $-1 #
edge $-1 $216 -58.745689260536516 $146 58.745689260536516 $144 $217 forward 7 unknown #
vertex $-1 $87 $218 #
vertex $-1 $158 $219 #
straight-curve $-1 58.745689260536516 0 -8.9766991137538081 0 -1 0 I I #
coedge $-1 $138 $140 $88 $150 reversed $81 $-1 #
edge $-1 $153 -38.060544481298493 $156 38.060544481298493 $149 $220 forward 7 unknown #
coedge $-1 $144 $89 $94 $159 forward $136 $-1 #
coedge $-1 $89 $144 $138 $211 reversed $136 $-1 #
vertex $-1 $90 $221 #
straight-curve $-1 0 38.060544481298493 8.9766991137538081 -1 0 0 I I #
coedge $-1 $91 $139 $93 $158 reversed $50 $-1 #
vertex $-1 $150 $222 #
straight-curve $-1 0 -38.060544481298493 8.9766991137538081 1 0 0 I I #
edge $-1 $96 -8.9766991137538081 $147 8.9766991137538081 $93 $223 forward 7 unknown #
edge $-1 $97 -8.9766991137538081 $146 8.9766991137538081 $94 $224 forward 7 unknown #
point $-1 58.745689260536516 -38.060544481298493 8.9766991137538081 #
point $-1 58.745689260536516 38.060544481298493 8.9766991137538081 #
face $-1 $-1 $179 $13 $-1 $225 reversed single #
loop $-1 $-1 $226 $99 #
plane-surface $-1 -58.745689260536516 0 0 1 0 0 0 0 -1 forward_v I I I I #
coedge $-1 $166 $182 $103 $169 forward $100 $-1 #
coedge $-1 $110 $165 $102 $167 forward $100 $-1 #
edge $-1 $173 -1.8885305731096413 $113 1.1739081217055181 $166 $227 forward 7 unknown #
coedge $-1 $104 $103 $226 $228 reversed $37 $-1 #
edge $-1 $229 -30.991642064552416 $173 -24.516452327415784 $165 $230 forward 7 unknown #
coedge $-1 $178 $177 $104 $171 forward $179 $-1 #
edge $-1 $172 24.516452327415784 $231 30.991642064552416 $170 $232 forward 7 unknown #
vertex $-1 $171 $233 #
vertex $-1 $169 $234 #
straight-curve $-1 -52.270499523399884 0 -2.245841798811703 0 -1 0 I I #
coedge $-1 $235 $236 $107 $176 forward $163 $-1 #
edge $-1 $183 -38.060544481298493 $180 38.060544481298493 $175 $237 forward 7 unknown #
coedge $-1 $170 $108 $112 $185 forward $179 $-1 #
coedge $-1 $108 $170 $235 $238 reversed $179 $-1 #
loop $-1 $-1 $170 $162 #
vertex $-1 $238 $239 #
straight-curve $-1 -27.7540471959841 38.060544481298493 0.81659689600345642 1 0 0 I I #
coedge $-1 $165 $110 $236 $240 forward $100 $-1 #
vertex $-1 $240 $241 #
straight-curve $-1 -27.7540471959841 -38.060544481298493 0.81659689600345642 -1 0 0 I I #
edge $-1 $114 -1.1739081217055181 $172 1.8885305731096413 $177 $242 forward 7 unknown #
point $-1 -52.270499523399884 -38.060544481298493 0.81659689600345642 #
point $-1 -52.270499523399884 38.060544481298493 0.81659689600345642 #
loop $-1 $-1 $124 $116 #
plane-surface $-1 58.745689260536516 0 0 -1 0 0 0 0 1 forward_v I I I I #
coedge $-1 $191 $119 $243 $244 reversed $66 $-1 #
coedge $-1 $119 $190 $194 $245 reversed $66 $-1 #
edge $-1 $195 70.497189104799148 $246 76.27372789901743 $119 $247 forward 7 unknown #
coedge $-1 $121 $120 $198 $248 reversed $41 $-1 #
coedge $-1 $127 $122 $191 $245 forward $117 $-1 #
vertex $-1 $245 $249 #
straight-curve $-1 54.955938883354506 -15.397579292315955 8.9766991137538028 0 -1 0 I I #
coedge $-1 $243 $124 $127 $202 reversed $188 $-1 #
coedge $-1 $124 $243 $193 $248 forward $188 $-1 #
vertex $-1 $125 $250 #
straight-curve $-1 58.745689260536516 -23.529772687965327 85.185119210820204 0 0 1 I I #
straight-curve $-1 -18.335589326484182 -23.529772687965327 93.288959834619703 0.65605901945558964 0 -0.75470958851134928 I I #
edge $-1 $251 -38.060544481298493 $128 -23.529772687965327 $197 $252 forward 7 unknown #
point $-1 58.745689260536516 -23.529772687965327 8.9766991137538081 #
point $-1 54.955938883354506 -23.529772687965327 8.9766991137538099 #
edge $-1 $253 1 $253 0 $131 $-1 forward 7 unknown #
vertex $-1 $132 $254 #
ellipse-curve $-1 55.704112464424924 -30.79515858463191 5.8000820313362293 0.75470958851134928 0 0.65605901945558964 0.65605901945558964 0 -0.75470958851134928 1 I I #
point $-1 57.506873091401069 -30.79515858463191 6.042184917040279 #
plane-surface $-1 58.745689260536516 0 0 -1 0 0 0 0 1 forward_v I I I I #
coedge $-1 $140 $138 $142 $214 reversed $81 $-1 #
edge $-1 $153 -8.9766991137538081 $216 8.9766991137538081 $152 $255 forward 7 unknown #
vertex $-1 $214 $256 #
straight-curve $-1 -58.745689260536516 -38.060544481298493 0 0 0 -1 I I #
edge $-1 $212 -38.060544481298493 $216 38.060544481298493 $210 $257 forward 7 unknown #
straight-curve $-1 0 -38.060544481298493 -8.9766991137538081 -1 0 0 I I #
vertex $-1 $145 $258 #
straight-curve $-1 0 38.060544481298493 -8.9766991137538081 1 0 0 I I #
point $-1 58.745689260536516 38.060544481298493 -8.9766991137538081 #
point $-1 58.745689260536516 -38.060544481298493 -8.9766991137538081 #
straight-curve $-1 -58.745689260536516 0 8.9766991137538081 0 -1 0 I I #
point $-1 -58.745689260536516 38.060544481298493 8.9766991137538081 #
point $-1 -58.745689260536516 -38.060544481298493 8.9766991137538081 #
straight-curve $-1 58.745689260536516 -38.060544481298493 0 0 0 -1 I I #
straight-curve $-1 58.745689260536516 38.060544481298493 0 0 0 -1 I I #
plane-surface $-1 0 38.060544481298493 0 0 -1 0 0 0 -1 forward_v I I I I #
coedge $-1 $236 $235 $168 $228 forward $163 $-1 #
straight-curve $-1 -52.270499523399884 -38.060544481298493 -0.35731122570206164 0 0 1 I I #
edge $-1 $231 -38.060544481298493 $229 38.060544481298493 $226 $259 forward 7 unknown #
vertex $-1 $169 $260 #
straight-curve $-1 -27.7540471959841 -38.060544481298493 -2.245841798811703 1 0 0 I I #
vertex $-1 $171 $261 #
straight-curve $-1 -27.7540471959841 38.060544481298493 -2.245841798811703 -1 0 0 I I #
point $-1 -52.270499523399884 38.060544481298493 -2.245841798811703 #
point $-1 -52.270499523399884 -38.060544481298493 -2.245841798811703 #
coedge $-1 $226 $175 $178 $238 forward $163 $-1 #
coedge $-1 $175 $226 $182 $240 reversed $163 $-1 #
straight-curve $-1 -58.745689260536516 0 0.81659689600345642 0 1 0 I I #
edge $-1 $180 -0.81659689600345642 $231 2.245841798811703 $178 $262 forward 7 unknown #
point $-1 -58.745689260536516 38.060544481298493 0.81659689600345642 #
edge $-1 $183 -0.81659689600345642 $229 2.245841798811703 $236 $263 forward 7 unknown #
point $-1 -58.745689260536516 -38.060544481298493 0.81659689600345642 #
straight-curve $-1 -52.270499523399884 38.060544481298493 -0.35731122570206164 0 0 -1 I I #
coedge $-1 $198 $197 $190 $244 forward $188 $-1 #
edge $-1 $251 -8.9766991137538081 $246 -4.6170898973494916 $243 $264 forward 7 unknown #
edge $-1 $195 54.955938883354506 $251 58.745689260536516 $191 $265 forward 7 unknown #
vertex $-1 $192 $266 #
straight-curve $-1 8.7056221248846946 -38.060544481298493 62.181603694243549 0.65605901945558975 0 -0.75470958851134939 I I #
edge $-1 $246 -22.66296518898254 $199 -8.1321933956493719 $198 $267 forward 7 unknown #
point $-1 54.955938883354506 -38.060544481298493 8.9766991137538081 #
point $-1 58.745689260536523 -23.529772687965327 4.6170898973494872 #
vertex $-1 $202 $268 #
straight-curve $-1 58.745689260536516 0 8.9766991137538081 0 1 0 I I #
vertex $-1 $205 $269 #
point $-1 56.360171483880514 -30.79515858463191 5.0453724428248803 #
straight-curve $-1 -58.745689260536516 38.060544481298493 0 0 0 -1 I I #
point $-1 -58.745689260536516 -38.060544481298493 -8.9766991137538081 #
straight-curve $-1 -58.745689260536516 0 -8.9766991137538081 0 1 0 I I #
point $-1 -58.745689260536516 38.060544481298493 -8.9766991137538081 #
straight-curve $-1 -58.745689260536516 0 -2.245841798811703 0 -1 0 I I #
point $-1 -58.745689260536516 -38.060544481298493 -2.245841798811703 #
point $-1 -58.745689260536516 38.060544481298493 -2.245841798811703 #
straight-curve $-1 -58.745689260536516 38.060544481298493 0 0 0 -1 I I #
straight-curve $-1 -58.745689260536516 -38.060544481298493 0 0 0 -1 I I #
straight-curve $-1 58.745689260536516 -38.060544481298493 0 0 0 -1 I I #
straight-curve $-1 0 -38.060544481298493 8.9766991137538081 1 0 0 I I #
point $-1 58.745689260536516 -38.060544481298493 4.6170898973494916 #
straight-curve $-1 58.745689260536516 -15.397579292315955 4.6170898973494943 0 1 0 I I #
point $-1 58.745689260536516 -38.060544481298493 8.9766991137538081 #
point $-1 54.949402875913577 -30.79515858463191 5.1440230118806394 #
End-of-ACIS-data 