500 0 12 0           
7 Unknown 11 ACIS 5.0 NT 24 Thu Mar 25 23:58:01 1999 
-1 9.9999999999999995e-007 1e-010 
body $-1 $12 $-1 $13 #
body $-1 $14 $-1 $15 #
body $-1 $16 $-1 $17 #
body $-1 $18 $-1 $19 #
body $-1 $20 $-1 $21 #
body $-1 $22 $-1 $23 #
body $-1 $24 $-1 $25 #
body $-1 $26 $-1 $27 #
body $-1 $28 $-1 $29 #
body $-1 $30 $-1 $31 #
body $-1 $32 $-1 $33 #
body $-1 $34 $-1 $35 #
lump $-1 $-1 $36 $0 #
transform $-1 1 0 0 0 1 0 0 0 1 54.092226935636461 28.454918255161356 11.848125330549623 1 rotate no_reflect no_shear #
lump $-1 $-1 $37 $1 #
transform $-1 1 0 0 0 0.77714595512881146 0.62932039886446345 0 -0.62932039886446345 0.77714595512881146 45.9768643488366 -68.082683661203632 103.7455113589435 1 rotate no_reflect no_shear #
lump $-1 $-1 $38 $2 #
transform $-1 1 0 0 0 -0.77714595512881146 -0.62932039886446345 0 0.62932039886446345 -0.77714595512881146 40.075321712513322 5.637259635504261 17.791542017373715 1 rotate no_reflect no_shear #
lump $-1 $-1 $39 $3 #
transform $-1 1 0 0 0 -0.77714595512881146 -0.62932039886446345 0 0.62932039886446345 -0.77714595512881146 51.878406985159884 5.637259635504261 17.791542017373715 1 rotate no_reflect no_shear #
lump $-1 $-1 $40 $4 #
transform $-1 1 0 0 0 0.54463902268945019 -0.83867057594974714 0 0.83867057594974714 0.54463902268945019 5.640625565682023 116.64563700895349 125.77744767396999 1 rotate no_reflect no_shear #
lump $-1 $-1 $41 $5 #
transform $-1 1 0 0 0 -0.54463902268945019 0.83867057594974714 0 -0.83867057594974714 -0.54463902268945019 5.640625565682023 52.613862772897086 19.58538907792348 1 rotate no_reflect no_shear #
lump $-1 $-1 $42 $6 #
transform $-1 1 0 0 0 0.54463902268945019 -0.83867057594974714 0 0.83867057594974714 0.54463902268945019 32.686739033500253 116.64563700895349 125.77744767396999 1 rotate no_reflect no_shear #
lump $-1 $-1 $43 $7 #
transform $-1 1 0 0 0 -0.54463902268945019 0.83867057594974714 0 -0.83867057594974714 -0.54463902268945019 32.686739033500253 52.613862772897086 19.58538907792348 1 rotate no_reflect no_shear #
lump $-1 $-1 $44 $8 #
transform $-1 1 0 0 0 0.54463902268945019 -0.83867057594974714 0 0.83867057594974714 0.54463902268945019 59.732852501318483 116.64563700895349 125.77744767396999 1 rotate no_reflect no_shear #
lump $-1 $-1 $45 $9 #
transform $-1 1 0 0 0 -0.54463902268945019 0.83867057594974714 0 -0.83867057594974714 -0.54463902268945019 59.732852501318483 52.613862772897086 19.58538907792348 1 rotate no_reflect no_shear #
lump $-1 $-1 $46 $10 #
transform $-1 1 0 0 0 0.54463902268945019 -0.83867057594974714 0 0.83867057594974714 0.54463902268945019 86.778965969136721 116.64563700895349 125.77744767396999 1 rotate no_reflect no_shear #
lump $-1 $-1 $47 $11 #
transform $-1 1 0 0 0 -0.54463902268945019 0.83867057594974714 0 -0.83867057594974714 -0.54463902268945019 86.778965969136721 52.613862772897086 19.58538907792348 1 rotate no_reflect no_shear #
shell $-1 $-1 $-1 $48 $-1 $12 #
shell $-1 $-1 $-1 $49 $-1 $14 #
shell $-1 $-1 $-1 $50 $-1 $16 #
shell $-1 $-1 $-1 $51 $-1 $18 #
shell $-1 $-1 $-1 $52 $-1 $20 #
shell $-1 $-1 $-1 $53 $-1 $22 #
shell $-1 $-1 $-1 $54 $-1 $24 #
shell $-1 $-1 $-1 $55 $-1 $26 #
shell $-1 $-1 $-1 $56 $-1 $28 #
shell $-1 $-1 $-1 $57 $-1 $30 #
shell $-1 $-1 $-1 $58 $-1 $32 #
shell $-1 $-1 $-1 $59 $-1 $34 #
face $-1 $60 $61 $36 $-1 $62 forward single #
face $-1 $63 $64 $37 $-1 $65 forward single #
face $-1 $66 $67 $38 $-1 $68 forward single #
face $-1 $69 $70 $39 $-1 $71 forward single #
face $-1 $72 $73 $40 $-1 $74 forward single #
face $-1 $75 $76 $41 $-1 $77 forward single #
face $-1 $78 $79 $42 $-1 $80 forward single #
face $-1 $81 $82 $43 $-1 $83 forward single #
face $-1 $84 $85 $44 $-1 $86 forward single #
face $-1 $87 $88 $45 $-1 $89 forward single #
face $-1 $90 $91 $46 $-1 $92 forward single #
face $-1 $93 $94 $47 $-1 $95 forward single #
face $-1 $96 $97 $36 $-1 $98 reversed single #
loop $-1 $-1 $99 $48 #
plane-surface $-1 0 0 11.848125330549623 0 0 1 1 0 0 forward_v I I I I #
face $-1 $100 $101 $37 $-1 $102 reversed single #
loop $-1 $-1 $103 $49 #
plane-surface $-1 0 0 108.18445387127292 0 0 1 1 0 0 forward_v I I I I #
face $-1 $104 $105 $38 $-1 $106 forward single #
loop $-1 $107 $108 $50 #
cone-surface $-1 0 0 -2.878894924771874 0 0 1 1.5 0 0 1 I I 0 1 1.5 forward I I I I #
face $-1 $109 $110 $39 $-1 $111 forward single #
loop $-1 $112 $113 $51 #
cone-surface $-1 0 0 -2.878894924771874 0 0 1 1.5 0 0 1 I I 0 1 1.5 forward I I I I #
face $-1 $114 $115 $40 $-1 $116 reversed single #
loop $-1 $-1 $117 $52 #
plane-surface $-1 0 0 108.18445387127292 0 0 1 1 0 0 forward_v I I I I #
face $-1 $118 $119 $41 $-1 $120 forward single #
loop $-1 $121 $122 $53 #
cone-surface $-1 0 0 -1.9267250587481328 0 0 1 1 0 0 1 I I 0 1 1 forward I I I I #
face $-1 $123 $124 $42 $-1 $125 reversed single #
loop $-1 $-1 $126 $54 #
plane-surface $-1 0 0 108.18445387127292 0 0 1 1 0 0 forward_v I I I I #
face $-1 $127 $128 $43 $-1 $129 forward single #
loop $-1 $130 $131 $55 #
cone-surface $-1 0 0 -1.9267250587481328 0 0 1 1 0 0 1 I I 0 1 1 forward I I I I #
face $-1 $132 $133 $44 $-1 $134 reversed single #
loop $-1 $-1 $135 $56 #
plane-surface $-1 0 0 108.18445387127292 0 0 1 1 0 0 forward_v I I I I #
face $-1 $136 $137 $45 $-1 $138 forward single #
loop $-1 $139 $140 $57 #
cone-surface $-1 0 0 -1.9267250587481328 0 0 1 1 0 0 1 I I 0 1 1 forward I I I I #
face $-1 $141 $142 $46 $-1 $143 reversed single #
loop $-1 $-1 $144 $58 #
plane-surface $-1 0 0 108.18445387127292 0 0 1 1 0 0 forward_v I I I I #
face $-1 $145 $146 $47 $-1 $147 forward single #
loop $-1 $148 $149 $59 #
cone-surface $-1 0 0 -1.9267250587481328 0 0 1 1 0 0 1 I I 0 1 1 forward I I I I #
face $-1 $150 $151 $36 $-1 $152 reversed single #
loop $-1 $-1 $153 $60 #
plane-surface $-1 0 0 -11.848125330549623 0 0 1 1 0 0 forward_v I I I I #
coedge $-1 $154 $155 $156 $157 forward $61 $-1 #
face $-1 $158 $159 $37 $-1 $160 reversed single #
loop $-1 $-1 $161 $63 #
plane-surface $-1 0 0 -108.18445387127292 0 0 1 1 0 0 forward_v I I I I #
coedge $-1 $162 $163 $164 $165 forward $64 $-1 #
face $-1 $-1 $166 $38 $-1 $167 forward single #
loop $-1 $-1 $168 $66 #
plane-surface $-1 0 0 -5.0077898495437481 0 0 -1 -1 0 0 forward_v I I I I #
loop $-1 $-1 $169 $50 #
coedge $-1 $108 $108 $168 $170 reversed $67 $-1 #
face $-1 $-1 $171 $39 $-1 $172 forward single #
loop $-1 $-1 $173 $69 #
plane-surface $-1 0 0 -5.0077898495437481 0 0 -1 -1 0 0 forward_v I I I I #
loop $-1 $-1 $174 $51 #
coedge $-1 $113 $113 $173 $175 reversed $70 $-1 #
face $-1 $176 $177 $40 $-1 $178 reversed single #
loop $-1 $-1 $179 $72 #
plane-surface $-1 0 0 -108.18445387127292 0 0 1 1 0 0 forward_v I I I I #
coedge $-1 $180 $181 $182 $183 forward $73 $-1 #
face $-1 $-1 $184 $41 $-1 $185 forward single #
loop $-1 $-1 $186 $75 #
plane-surface $-1 0 0 -3.3534501174962639 0 0 -1 -1 0 0 forward_v I I I I #
loop $-1 $-1 $187 $53 #
coedge $-1 $122 $122 $186 $188 reversed $76 $-1 #
face $-1 $189 $190 $42 $-1 $191 reversed single #
loop $-1 $-1 $192 $78 #
plane-surface $-1 0 0 -108.18445387127292 0 0 1 1 0 0 forward_v I I I I #
coedge $-1 $193 $194 $195 $196 forward $79 $-1 #
face $-1 $-1 $197 $43 $-1 $198 forward single #
loop $-1 $-1 $199 $81 #
plane-surface $-1 0 0 -3.3534501174962639 0 0 -1 -1 0 0 forward_v I I I I #
loop $-1 $-1 $200 $55 #
coedge $-1 $131 $131 $199 $201 reversed $82 $-1 #
face $-1 $202 $203 $44 $-1 $204 reversed single #
loop $-1 $-1 $205 $84 #
plane-surface $-1 0 0 -108.18445387127292 0 0 1 1 0 0 forward_v I I I I #
coedge $-1 $206 $207 $208 $209 forward $85 $-1 #
face $-1 $-1 $210 $45 $-1 $211 forward single #
loop $-1 $-1 $212 $87 #
plane-surface $-1 0 0 -3.3534501174962639 0 0 -1 -1 0 0 forward_v I I I I #
loop $-1 $-1 $213 $57 #
coedge $-1 $140 $140 $212 $214 reversed $88 $-1 #
face $-1 $215 $216 $46 $-1 $217 reversed single #
loop $-1 $-1 $218 $90 #
plane-surface $-1 0 0 -108.18445387127292 0 0 1 1 0 0 forward_v I I I I #
coedge $-1 $219 $220 $221 $222 forward $91 $-1 #
face $-1 $-1 $223 $47 $-1 $224 forward single #
loop $-1 $-1 $225 $93 #
plane-surface $-1 0 0 -3.3534501174962639 0 0 -1 -1 0 0 forward_v I I I I #
loop $-1 $-1 $226 $59 #
coedge $-1 $149 $149 $225 $227 reversed $94 $-1 #
face $-1 $228 $229 $36 $-1 $230 reversed single #
loop $-1 $-1 $231 $96 #
plane-surface $-1 0 -28.454918255161356 0 0 1 0 0 0 1 forward_v I I I I #
coedge $-1 $232 $233 $234 $235 forward $97 $-1 #
coedge $-1 $236 $99 $237 $238 forward $61 $-1 #
coedge $-1 $99 $236 $239 $240 forward $61 $-1 #
coedge $-1 $241 $242 $99 $157 reversed $243 $-1 #
edge $-1 $244 -28.454918255161356 $245 28.454918255161356 $156 $246 forward 7 unknown #
face $-1 $247 $248 $37 $-1 $249 reversed single #
loop $-1 $-1 $250 $100 #
plane-surface $-1 0 -216.36890774254584 0 0 1 0 0 0 1 forward_v I I I I #
coedge $-1 $251 $252 $253 $254 forward $101 $-1 #
coedge $-1 $255 $103 $256 $257 forward $64 $-1 #
coedge $-1 $103 $255 $258 $259 forward $64 $-1 #
coedge $-1 $260 $261 $103 $165 reversed $262 $-1 #
edge $-1 $263 -216.36890774254584 $264 216.36890774254584 $164 $265 forward 7 unknown #
loop $-1 $266 $267 $104 #
cone-surface $-1 0 0 0 0 0 1 0.75 0 0 1 I I -0.70710678118654757 0.70710678118654757 0.75 forward I I I I #
coedge $-1 $168 $168 $108 $170 forward $105 $-1 #
coedge $-1 $169 $169 $267 $268 forward $107 $-1 #
edge $-1 $269 0 $269 6.2831853071796004 $168 $270 forward 7 unknown #
loop $-1 $271 $272 $109 #
cone-surface $-1 0 0 0 0 0 1 0.75 0 0 1 I I -0.70710678118654757 0.70710678118654757 0.75 forward I I I I #
coedge $-1 $173 $173 $113 $175 forward $110 $-1 #
coedge $-1 $174 $174 $272 $273 forward $112 $-1 #
edge $-1 $274 0 $274 6.2831853071796004 $173 $275 forward 7 unknown #
face $-1 $276 $277 $40 $-1 $278 reversed single #
loop $-1 $-1 $279 $114 #
plane-surface $-1 0 -216.36890774254584 0 0 1 0 0 0 1 forward_v I I I I #
coedge $-1 $280 $281 $282 $283 forward $115 $-1 #
coedge $-1 $284 $117 $285 $286 forward $73 $-1 #
coedge $-1 $117 $284 $287 $288 forward $73 $-1 #
coedge $-1 $289 $290 $117 $183 reversed $291 $-1 #
edge $-1 $292 -216.36890774254584 $293 216.36890774254584 $182 $294 forward 7 unknown #
loop $-1 $295 $296 $118 #
cone-surface $-1 0 0 0 0 0 1 0.5 0 0 1 I I -0.70710678118654746 0.70710678118654746 0.5 forward I I I I #
coedge $-1 $186 $186 $122 $188 forward $119 $-1 #
coedge $-1 $187 $187 $296 $297 forward $121 $-1 #
edge $-1 $298 0 $298 6.2831853071796004 $186 $299 forward 7 unknown #
face $-1 $300 $301 $42 $-1 $302 reversed single #
loop $-1 $-1 $303 $123 #
plane-surface $-1 0 -216.36890774254584 0 0 1 0 0 0 1 forward_v I I I I #
coedge $-1 $304 $305 $306 $307 forward $124 $-1 #
coedge $-1 $308 $126 $309 $310 forward $79 $-1 #
coedge $-1 $126 $308 $311 $312 forward $79 $-1 #
coedge $-1 $313 $314 $126 $196 reversed $315 $-1 #
edge $-1 $316 -216.36890774254584 $317 216.36890774254584 $195 $318 forward 7 unknown #
loop $-1 $319 $320 $127 #
cone-surface $-1 0 0 0 0 0 1 0.5 0 0 1 I I -0.70710678118654746 0.70710678118654746 0.5 forward I I I I #
coedge $-1 $199 $199 $131 $201 forward $128 $-1 #
coedge $-1 $200 $200 $320 $321 forward $130 $-1 #
edge $-1 $322 0 $322 6.2831853071796004 $199 $323 forward 7 unknown #
face $-1 $324 $325 $44 $-1 $326 reversed single #
loop $-1 $-1 $327 $132 #
plane-surface $-1 0 -216.36890774254584 0 0 1 0 0 0 1 forward_v I I I I #
coedge $-1 $328 $329 $330 $331 forward $133 $-1 #
coedge $-1 $332 $135 $333 $334 forward $85 $-1 #
coedge $-1 $135 $332 $335 $336 forward $85 $-1 #
coedge $-1 $337 $338 $135 $209 reversed $339 $-1 #
edge $-1 $340 -216.36890774254584 $341 216.36890774254584 $208 $342 forward 7 unknown #
loop $-1 $343 $344 $136 #
cone-surface $-1 0 0 0 0 0 1 0.5 0 0 1 I I -0.70710678118654746 0.70710678118654746 0.5 forward I I I I #
coedge $-1 $212 $212 $140 $214 forward $137 $-1 #
coedge $-1 $213 $213 $344 $345 forward $139 $-1 #
edge $-1 $346 0 $346 6.2831853071796004 $212 $347 forward 7 unknown #
face $-1 $348 $349 $46 $-1 $350 reversed single #
loop $-1 $-1 $351 $141 #
plane-surface $-1 0 -216.36890774254584 0 0 1 0 0 0 1 forward_v I I I I #
coedge $-1 $352 $353 $354 $355 forward $142 $-1 #
coedge $-1 $356 $144 $357 $358 forward $91 $-1 #
coedge $-1 $144 $356 $359 $360 forward $91 $-1 #
coedge $-1 $361 $362 $144 $222 reversed $363 $-1 #
edge $-1 $364 -216.36890774254584 $365 216.36890774254584 $221 $366 forward 7 unknown #
loop $-1 $367 $368 $145 #
cone-surface $-1 0 0 0 0 0 1 0.5 0 0 1 I I -0.70710678118654746 0.70710678118654746 0.5 forward I I I I #
coedge $-1 $225 $225 $149 $227 forward $146 $-1 #
coedge $-1 $226 $226 $368 $369 forward $148 $-1 #
edge $-1 $370 0 $370 6.2831853071796004 $225 $371 forward 7 unknown #
face $-1 $372 $373 $36 $-1 $374 reversed single #
loop $-1 $-1 $375 $150 #
plane-surface $-1 -54.092226935636461 0 0 1 0 0 0 0 -1 forward_v I I I I #
coedge $-1 $376 $239 $377 $378 forward $151 $-1 #
coedge $-1 $379 $153 $376 $380 forward $97 $-1 #
coedge $-1 $153 $379 $381 $382 forward $97 $-1 #
coedge $-1 $242 $241 $153 $235 reversed $243 $-1 #
edge $-1 $383 -28.454918255161356 $384 28.454918255161356 $234 $385 forward 7 unknown #
coedge $-1 $155 $154 $386 $387 forward $61 $-1 #
coedge $-1 $388 $389 $154 $238 reversed $373 $-1 #
edge $-1 $245 -54.092226935636461 $390 54.092226935636461 $237 $391 forward 7 unknown #
coedge $-1 $231 $392 $155 $240 reversed $151 $-1 #
edge $-1 $393 -54.092226935636461 $244 54.092226935636461 $239 $394 forward 7 unknown #
coedge $-1 $234 $156 $392 $395 forward $243 $-1 #
coedge $-1 $156 $234 $388 $396 reversed $243 $-1 #
loop $-1 $-1 $241 $372 #
vertex $-1 $157 $397 #
vertex $-1 $157 $398 #
straight-curve $-1 54.092226935636461 0 11.848125330549623 0 1 0 I I #
face $-1 $399 $400 $37 $-1 $401 reversed single #
loop $-1 $-1 $402 $158 #
plane-surface $-1 -13.770266151420987 0 0 1 0 0 0 0 -1 forward_v I I I I #
coedge $-1 $403 $258 $404 $405 forward $159 $-1 #
coedge $-1 $406 $161 $403 $407 forward $101 $-1 #
coedge $-1 $161 $406 $408 $409 forward $101 $-1 #
coedge $-1 $261 $260 $161 $254 reversed $262 $-1 #
edge $-1 $410 -216.36890774254584 $411 216.36890774254584 $253 $412 forward 7 unknown #
coedge $-1 $163 $162 $413 $414 forward $64 $-1 #
coedge $-1 $415 $416 $162 $257 reversed $400 $-1 #
edge $-1 $264 -13.770266151420987 $417 13.770266151420987 $256 $418 forward 7 unknown #
coedge $-1 $250 $419 $163 $259 reversed $159 $-1 #
edge $-1 $420 -13.770266151420987 $263 13.770266151420987 $258 $421 forward 7 unknown #
coedge $-1 $253 $164 $419 $422 forward $262 $-1 #
coedge $-1 $164 $253 $415 $423 reversed $262 $-1 #
loop $-1 $-1 $260 $399 #
vertex $-1 $165 $424 #
vertex $-1 $165 $425 #
straight-curve $-1 13.770266151420987 0 108.18445387127292 0 1 0 I I #
loop $-1 $-1 $426 $104 #
coedge $-1 $267 $267 $169 $268 reversed $166 $-1 #
edge $-1 $427 0 $427 6.2831853071796004 $267 $428 forward 7 unknown #
vertex $-1 $170 $429 #
ellipse-curve $-1 0 0 -5.0077898495437481 0 0 -1 1.5 0 0 1 I I #
loop $-1 $-1 $430 $109 #
coedge $-1 $272 $272 $174 $273 reversed $171 $-1 #
edge $-1 $431 0 $431 6.2831853071796004 $272 $432 forward 7 unknown #
vertex $-1 $175 $433 #
ellipse-curve $-1 0 0 -5.0077898495437481 0 0 -1 1.5 0 0 1 I I #
face $-1 $434 $435 $40 $-1 $436 reversed single #
loop $-1 $-1 $437 $176 #
plane-surface $-1 -5.640625565682023 0 0 1 0 0 0 0 -1 forward_v I I I I #
coedge $-1 $438 $287 $439 $440 forward $177 $-1 #
coedge $-1 $441 $179 $438 $442 forward $115 $-1 #
coedge $-1 $179 $441 $443 $444 forward $115 $-1 #
coedge $-1 $290 $289 $179 $283 reversed $291 $-1 #
edge $-1 $445 -216.36890774254584 $446 216.36890774254584 $282 $447 forward 7 unknown #
coedge $-1 $181 $180 $448 $449 forward $73 $-1 #
coedge $-1 $450 $451 $180 $286 reversed $435 $-1 #
edge $-1 $293 -5.640625565682023 $452 5.640625565682023 $285 $453 forward 7 unknown #
coedge $-1 $279 $454 $181 $288 reversed $177 $-1 #
edge $-1 $455 -5.640625565682023 $292 5.640625565682023 $287 $456 forward 7 unknown #
coedge $-1 $282 $182 $454 $457 forward $291 $-1 #
coedge $-1 $182 $282 $450 $458 reversed $291 $-1 #
loop $-1 $-1 $289 $434 #
vertex $-1 $183 $459 #
vertex $-1 $183 $460 #
straight-curve $-1 5.640625565682023 0 108.18445387127292 0 1 0 I I #
loop $-1 $-1 $461 $118 #
coedge $-1 $296 $296 $187 $297 reversed $184 $-1 #
edge $-1 $462 0 $462 6.2831853071796004 $296 $463 forward 7 unknown #
vertex $-1 $188 $464 #
ellipse-curve $-1 0 0 -3.3534501174962639 0 0 -1 1 0 0 1 I I #
face $-1 $465 $466 $42 $-1 $467 reversed single #
loop $-1 $-1 $468 $189 #
plane-surface $-1 -5.640625565682023 0 0 1 0 0 0 0 -1 forward_v I I I I #
coedge $-1 $469 $311 $470 $471 forward $190 $-1 #
coedge $-1 $472 $192 $469 $473 forward $124 $-1 #
coedge $-1 $192 $472 $474 $475 forward $124 $-1 #
coedge $-1 $314 $313 $192 $307 reversed $315 $-1 #
edge $-1 $476 -216.36890774254584 $477 216.36890774254584 $306 $478 forward 7 unknown #
coedge $-1 $194 $193 $479 $480 forward $79 $-1 #
coedge $-1 $481 $482 $193 $310 reversed $466 $-1 #
edge $-1 $317 -5.640625565682023 $483 5.640625565682023 $309 $484 forward 7 unknown #
coedge $-1 $303 $485 $194 $312 reversed $190 $-1 #
edge $-1 $486 -5.640625565682023 $316 5.640625565682023 $311 $487 forward 7 unknown #
coedge $-1 $306 $195 $485 $488 forward $315 $-1 #
coedge $-1 $195 $306 $481 $489 reversed $315 $-1 #
loop $-1 $-1 $313 $465 #
vertex $-1 $196 $490 #
vertex $-1 $196 $491 #
straight-curve $-1 5.640625565682023 0 108.18445387127292 0 1 0 I I #
loop $-1 $-1 $492 $127 #
coedge $-1 $320 $320 $200 $321 reversed $197 $-1 #
edge $-1 $493 0 $493 6.2831853071796004 $320 $494 forward 7 unknown #
vertex $-1 $201 $495 #
ellipse-curve $-1 0 0 -3.3534501174962639 0 0 -1 1 0 0 1 I I #
face $-1 $496 $497 $44 $-1 $498 reversed single #
loop $-1 $-1 $499 $202 #
plane-surface $-1 -5.640625565682023 0 0 1 0 0 0 0 -1 forward_v I I I I #
coedge $-1 $500 $335 $501 $502 forward $203 $-1 #
coedge $-1 $503 $205 $500 $504 forward $133 $-1 #
coedge $-1 $205 $503 $505 $506 forward $133 $-1 #
coedge $-1 $338 $337 $205 $331 reversed $339 $-1 #
edge $-1 $507 -216.36890774254584 $508 216.36890774254584 $330 $509 forward 7 unknown #
coedge $-1 $207 $206 $510 $511 forward $85 $-1 #
coedge $-1 $512 $513 $206 $334 reversed $497 $-1 #
edge $-1 $341 -5.640625565682023 $514 5.640625565682023 $333 $515 forward 7 unknown #
coedge $-1 $327 $516 $207 $336 reversed $203 $-1 #
edge $-1 $517 -5.640625565682023 $340 5.640625565682023 $335 $518 forward 7 unknown #
coedge $-1 $330 $208 $516 $519 forward $339 $-1 #
coedge $-1 $208 $330 $512 $520 reversed $339 $-1 #
loop $-1 $-1 $337 $496 #
vertex $-1 $209 $521 #
vertex $-1 $209 $522 #
straight-curve $-1 5.640625565682023 0 108.18445387127292 0 1 0 I I #
loop $-1 $-1 $523 $136 #
coedge $-1 $344 $344 $213 $345 reversed $210 $-1 #
edge $-1 $524 0 $524 6.2831853071796004 $344 $525 forward 7 unknown #
vertex $-1 $214 $526 #
ellipse-curve $-1 0 0 -3.3534501174962639 0 0 -1 1 0 0 1 I I #
face $-1 $527 $528 $46 $-1 $529 reversed single #
loop $-1 $-1 $530 $215 #
plane-surface $-1 -5.640625565682023 0 0 1 0 0 0 0 -1 forward_v I I I I #
coedge $-1 $531 $359 $532 $533 forward $216 $-1 #
coedge $-1 $534 $218 $531 $535 forward $142 $-1 #
coedge $-1 $218 $534 $536 $537 forward $142 $-1 #
coedge $-1 $362 $361 $218 $355 reversed $363 $-1 #
edge $-1 $538 -216.36890774254584 $539 216.36890774254584 $354 $540 forward 7 unknown #
coedge $-1 $220 $219 $541 $542 forward $91 $-1 #
coedge $-1 $543 $544 $219 $358 reversed $528 $-1 #
edge $-1 $365 -5.640625565682023 $545 5.640625565682023 $357 $546 forward 7 unknown #
coedge $-1 $351 $547 $220 $360 reversed $216 $-1 #
edge $-1 $548 -5.640625565682023 $364 5.640625565682023 $359 $549 forward 7 unknown #
coedge $-1 $354 $221 $547 $550 forward $363 $-1 #
coedge $-1 $221 $354 $543 $551 reversed $363 $-1 #
loop $-1 $-1 $361 $527 #
vertex $-1 $222 $552 #
vertex $-1 $222 $553 #
straight-curve $-1 5.640625565682023 0 108.18445387127292 0 1 0 I I #
loop $-1 $-1 $554 $145 #
coedge $-1 $368 $368 $226 $369 reversed $223 $-1 #
edge $-1 $555 0 $555 6.2831853071796004 $368 $556 forward 7 unknown #
vertex $-1 $227 $557 #
ellipse-curve $-1 0 0 -3.3534501174962639 0 0 -1 1 0 0 1 I I #
face $-1 $-1 $243 $36 $-1 $558 reversed single #
loop $-1 $-1 $388 $228 #
plane-surface $-1 0 28.454918255161356 0 0 -1 0 0 0 -1 forward_v I I I I #
coedge $-1 $559 $386 $389 $560 forward $229 $-1 #
coedge $-1 $392 $231 $232 $380 reversed $151 $-1 #
coedge $-1 $386 $559 $231 $378 reversed $229 $-1 #
edge $-1 $393 -11.848125330549623 $561 11.848125330549623 $377 $562 forward 7 unknown #
coedge $-1 $233 $232 $559 $563 forward $97 $-1 #
edge $-1 $384 -54.092226935636461 $561 54.092226935636461 $376 $564 forward 7 unknown #
coedge $-1 $389 $388 $233 $382 reversed $373 $-1 #
edge $-1 $565 -54.092226935636461 $383 54.092226935636461 $381 $566 forward 7 unknown #
vertex $-1 $235 $567 #
vertex $-1 $395 $568 #
straight-curve $-1 54.092226935636461 0 -11.848125330549623 0 -1 0 I I #
coedge $-1 $375 $377 $236 $387 reversed $229 $-1 #
edge $-1 $390 -28.454918255161356 $393 28.454918255161356 $386 $569 forward 7 unknown #
coedge $-1 $381 $237 $242 $396 forward $373 $-1 #
coedge $-1 $237 $381 $375 $560 reversed $373 $-1 #
vertex $-1 $238 $570 #
straight-curve $-1 0 28.454918255161356 11.848125330549623 -1 0 0 I I #
coedge $-1 $239 $376 $241 $395 reversed $151 $-1 #
vertex $-1 $387 $571 #
straight-curve $-1 0 -28.454918255161356 11.848125330549623 1 0 0 I I #
edge $-1 $244 -11.848125330549623 $384 11.848125330549623 $241 $572 forward 7 unknown #
edge $-1 $245 -11.848125330549623 $383 11.848125330549623 $242 $573 forward 7 unknown #
point $-1 54.092226935636461 -28.454918255161356 11.848125330549623 #
point $-1 54.092226935636461 28.454918255161356 11.848125330549623 #
face $-1 $-1 $262 $37 $-1 $574 reversed single #
loop $-1 $-1 $415 $247 #
plane-surface $-1 0 216.36890774254584 0 0 -1 0 0 0 -1 forward_v I I I I #
coedge $-1 $575 $413 $416 $576 forward $248 $-1 #
coedge $-1 $419 $250 $251 $407 reversed $159 $-1 #
coedge $-1 $413 $575 $250 $405 reversed $248 $-1 #
edge $-1 $420 -108.18445387127292 $577 108.18445387127292 $404 $578 forward 7 unknown #
coedge $-1 $252 $251 $575 $579 forward $101 $-1 #
edge $-1 $411 -13.770266151420987 $577 13.770266151420987 $403 $580 forward 7 unknown #
coedge $-1 $416 $415 $252 $409 reversed $400 $-1 #
edge $-1 $581 -13.770266151420987 $410 13.770266151420987 $408 $582 forward 7 unknown #
vertex $-1 $254 $583 #
vertex $-1 $422 $584 #
straight-curve $-1 13.770266151420987 0 -108.18445387127292 0 -1 0 I I #
coedge $-1 $402 $404 $255 $414 reversed $248 $-1 #
edge $-1 $417 -216.36890774254584 $420 216.36890774254584 $413 $585 forward 7 unknown #
coedge $-1 $408 $256 $261 $423 forward $400 $-1 #
coedge $-1 $256 $408 $402 $576 reversed $400 $-1 #
vertex $-1 $257 $586 #
straight-curve $-1 0 216.36890774254584 108.18445387127292 -1 0 0 I I #
coedge $-1 $258 $403 $260 $422 reversed $159 $-1 #
vertex $-1 $414 $587 #
straight-curve $-1 0 -216.36890774254584 108.18445387127292 1 0 0 I I #
edge $-1 $263 -108.18445387127292 $411 108.18445387127292 $260 $588 forward 7 unknown #
edge $-1 $264 -108.18445387127292 $410 108.18445387127292 $261 $589 forward 7 unknown #
point $-1 13.770266151420987 -216.36890774254584 108.18445387127292 #
point $-1 13.770266151420987 216.36890774254584 108.18445387127292 #
coedge $-1 $426 $426 $-1 $590 reversed $266 $-1 #
vertex $-1 $268 $591 #
ellipse-curve $-1 0 0 -0.75 0 0 -1 1.5 0 0 1 I I #
point $-1 1.5 0 -5.0077898495437481 #
coedge $-1 $430 $430 $-1 $592 reversed $271 $-1 #
vertex $-1 $273 $593 #
ellipse-curve $-1 0 0 -0.75 0 0 -1 1.5 0 0 1 I I #
point $-1 1.5 0 -5.0077898495437481 #
face $-1 $-1 $291 $40 $-1 $594 reversed single #
loop $-1 $-1 $450 $276 #
plane-surface $-1 0 216.36890774254584 0 0 -1 0 0 0 -1 forward_v I I I I #
coedge $-1 $595 $448 $451 $596 forward $277 $-1 #
coedge $-1 $454 $279 $280 $442 reversed $177 $-1 #
coedge $-1 $448 $595 $279 $440 reversed $277 $-1 #
edge $-1 $455 -108.18445387127292 $597 108.18445387127292 $439 $598 forward 7 unknown #
coedge $-1 $281 $280 $595 $599 forward $115 $-1 #
edge $-1 $446 -5.640625565682023 $597 5.640625565682023 $438 $600 forward 7 unknown #
coedge $-1 $451 $450 $281 $444 reversed $435 $-1 #
edge $-1 $601 -5.640625565682023 $445 5.640625565682023 $443 $602 forward 7 unknown #
vertex $-1 $283 $603 #
vertex $-1 $457 $604 #
straight-curve $-1 5.640625565682023 0 -108.18445387127292 0 -1 0 I I #
coedge $-1 $437 $439 $284 $449 reversed $277 $-1 #
edge $-1 $452 -216.36890774254584 $455 216.36890774254584 $448 $605 forward 7 unknown #
coedge $-1 $443 $285 $290 $458 forward $435 $-1 #
coedge $-1 $285 $443 $437 $596 reversed $435 $-1 #
vertex $-1 $286 $606 #
straight-curve $-1 0 216.36890774254584 108.18445387127292 -1 0 0 I I #
coedge $-1 $287 $438 $289 $457 reversed $177 $-1 #
vertex $-1 $449 $607 #
straight-curve $-1 0 -216.36890774254584 108.18445387127292 1 0 0 I I #
edge $-1 $292 -108.18445387127292 $446 108.18445387127292 $289 $608 forward 7 unknown #
edge $-1 $293 -108.18445387127292 $445 108.18445387127292 $290 $609 forward 7 unknown #
point $-1 5.640625565682023 -216.36890774254584 108.18445387127292 #
point $-1 5.640625565682023 216.36890774254584 108.18445387127292 #
coedge $-1 $461 $461 $-1 $610 reversed $295 $-1 #
vertex $-1 $297 $611 #
ellipse-curve $-1 0 0 -0.5 0 0 -1 1 0 0 1 I I #
point $-1 1 0 -3.3534501174962639 #
face $-1 $-1 $315 $42 $-1 $612 reversed single #
loop $-1 $-1 $481 $300 #
plane-surface $-1 0 216.36890774254584 0 0 -1 0 0 0 -1 forward_v I I I I #
coedge $-1 $613 $479 $482 $614 forward $301 $-1 #
coedge $-1 $485 $303 $304 $473 reversed $190 $-1 #
coedge $-1 $479 $613 $303 $471 reversed $301 $-1 #
edge $-1 $486 -108.18445387127292 $615 108.18445387127292 $470 $616 forward 7 unknown #
coedge $-1 $305 $304 $613 $617 forward $124 $-1 #
edge $-1 $477 -5.640625565682023 $615 5.640625565682023 $469 $618 forward 7 unknown #
coedge $-1 $482 $481 $305 $475 reversed $466 $-1 #
edge $-1 $619 -5.640625565682023 $476 5.640625565682023 $474 $620 forward 7 unknown #
vertex $-1 $307 $621 #
vertex $-1 $488 $622 #
straight-curve $-1 5.640625565682023 0 -108.18445387127292 0 -1 0 I I #
coedge $-1 $468 $470 $308 $480 reversed $301 $-1 #
edge $-1 $483 -216.36890774254584 $486 216.36890774254584 $479 $623 forward 7 unknown #
coedge $-1 $474 $309 $314 $489 forward $466 $-1 #
coedge $-1 $309 $474 $468 $614 reversed $466 $-1 #
vertex $-1 $310 $624 #
straight-curve $-1 0 216.36890774254584 108.18445387127292 -1 0 0 I I #
coedge $-1 $311 $469 $313 $488 reversed $190 $-1 #
vertex $-1 $480 $625 #
straight-curve $-1 0 -216.36890774254584 108.18445387127292 1 0 0 I I #
edge $-1 $316 -108.18445387127292 $477 108.18445387127292 $313 $626 forward 7 unknown #
edge $-1 $317 -108.18445387127292 $476 108.18445387127292 $314 $627 forward 7 unknown #
point $-1 5.640625565682023 -216.36890774254584 108.18445387127292 #
point $-1 5.640625565682023 216.36890774254584 108.18445387127292 #
coedge $-1 $492 $492 $-1 $628 reversed $319 $-1 #
vertex $-1 $321 $629 #
ellipse-curve $-1 0 0 -0.5 0 0 -1 1 0 0 1 I I #
point $-1 1 0 -3.3534501174962639 #
face $-1 $-1 $339 $44 $-1 $630 reversed single #
loop $-1 $-1 $512 $324 #
plane-surface $-1 0 216.36890774254584 0 0 -1 0 0 0 -1 forward_v I I I I #
coedge $-1 $631 $510 $513 $632 forward $325 $-1 #
coedge $-1 $516 $327 $328 $504 reversed $203 $-1 #
coedge $-1 $510 $631 $327 $502 reversed $325 $-1 #
edge $-1 $517 -108.18445387127292 $633 108.18445387127292 $501 $634 forward 7 unknown #
coedge $-1 $329 $328 $631 $635 forward $133 $-1 #
edge $-1 $508 -5.640625565682023 $633 5.640625565682023 $500 $636 forward 7 unknown #
coedge $-1 $513 $512 $329 $506 reversed $497 $-1 #
edge $-1 $637 -5.640625565682023 $507 5.640625565682023 $505 $638 forward 7 unknown #
vertex $-1 $331 $639 #
vertex $-1 $519 $640 #
straight-curve $-1 5.640625565682023 0 -108.18445387127292 0 -1 0 I I #
coedge $-1 $499 $501 $332 $511 reversed $325 $-1 #
edge $-1 $514 -216.36890774254584 $517 216.36890774254584 $510 $641 forward 7 unknown #
coedge $-1 $505 $333 $338 $520 forward $497 $-1 #
coedge $-1 $333 $505 $499 $632 reversed $497 $-1 #
vertex $-1 $334 $642 #
straight-curve $-1 0 216.36890774254584 108.18445387127292 -1 0 0 I I #
coedge $-1 $335 $500 $337 $519 reversed $203 $-1 #
vertex $-1 $511 $643 #
straight-curve $-1 0 -216.36890774254584 108.18445387127292 1 0 0 I I #
edge $-1 $340 -108.18445387127292 $508 108.18445387127292 $337 $644 forward 7 unknown #
edge $-1 $341 -108.18445387127292 $507 108.18445387127292 $338 $645 forward 7 unknown #
point $-1 5.640625565682023 -216.36890774254584 108.18445387127292 #
point $-1 5.640625565682023 216.36890774254584 108.18445387127292 #
coedge $-1 $523 $523 $-1 $646 reversed $343 $-1 #
vertex $-1 $345 $647 #
ellipse-curve $-1 0 0 -0.5 0 0 -1 1 0 0 1 I I #
point $-1 1 0 -3.3534501174962639 #
face $-1 $-1 $363 $46 $-1 $648 reversed single #
loop $-1 $-1 $543 $348 #
plane-surface $-1 0 216.36890774254584 0 0 -1 0 0 0 -1 forward_v I I I I #
coedge $-1 $649 $541 $544 $650 forward $349 $-1 #
coedge $-1 $547 $351 $352 $535 reversed $216 $-1 #
coedge $-1 $541 $649 $351 $533 reversed $349 $-1 #
edge $-1 $548 -108.18445387127292 $651 108.18445387127292 $532 $652 forward 7 unknown #
coedge $-1 $353 $352 $649 $653 forward $142 $-1 #
edge $-1 $539 -5.640625565682023 $651 5.640625565682023 $531 $654 forward 7 unknown #
coedge $-1 $544 $543 $353 $537 reversed $528 $-1 #
edge $-1 $655 -5.640625565682023 $538 5.640625565682023 $536 $656 forward 7 unknown #
vertex $-1 $355 $657 #
vertex $-1 $550 $658 #
straight-curve $-1 5.640625565682023 0 -108.18445387127292 0 -1 0 I I #
coedge $-1 $530 $532 $356 $542 reversed $349 $-1 #
edge $-1 $545 -216.36890774254584 $548 216.36890774254584 $541 $659 forward 7 unknown #
coedge $-1 $536 $357 $362 $551 forward $528 $-1 #
coedge $-1 $357 $536 $530 $650 reversed $528 $-1 #
vertex $-1 $358 $660 #
straight-curve $-1 0 216.36890774254584 108.18445387127292 -1 0 0 I I #
coedge $-1 $359 $531 $361 $550 reversed $216 $-1 #
vertex $-1 $542 $661 #
straight-curve $-1 0 -216.36890774254584 108.18445387127292 1 0 0 I I #
edge $-1 $364 -108.18445387127292 $539 108.18445387127292 $361 $662 forward 7 unknown #
edge $-1 $365 -108.18445387127292 $538 108.18445387127292 $362 $663 forward 7 unknown #
point $-1 5.640625565682023 -216.36890774254584 108.18445387127292 #
point $-1 5.640625565682023 216.36890774254584 108.18445387127292 #
coedge $-1 $554 $554 $-1 $664 reversed $367 $-1 #
vertex $-1 $369 $665 #
ellipse-curve $-1 0 0 -0.5 0 0 -1 1 0 0 1 I I #
point $-1 1 0 -3.3534501174962639 #
plane-surface $-1 54.092226935636461 0 0 -1 0 0 0 0 1 forward_v I I I I #
coedge $-1 $377 $375 $379 $563 reversed $229 $-1 #
edge $-1 $390 -11.848125330549623 $565 11.848125330549623 $389 $666 forward 7 unknown #
vertex $-1 $563 $667 #
straight-curve $-1 -54.092226935636461 -28.454918255161356 0 0 0 -1 I I #
edge $-1 $561 -28.454918255161356 $565 28.454918255161356 $559 $668 forward 7 unknown #
straight-curve $-1 0 -28.454918255161356 -11.848125330549623 -1 0 0 I I #
vertex $-1 $382 $669 #
straight-curve $-1 0 28.454918255161356 -11.848125330549623 1 0 0 I I #
point $-1 54.092226935636461 28.454918255161356 -11.848125330549623 #
point $-1 54.092226935636461 -28.454918255161356 -11.848125330549623 #
straight-curve $-1 -54.092226935636461 0 11.848125330549623 0 -1 0 I I #
point $-1 -54.092226935636461 28.454918255161356 11.848125330549623 #
point $-1 -54.092226935636461 -28.454918255161356 11.848125330549623 #
straight-curve $-1 54.092226935636461 -28.454918255161356 0 0 0 -1 I I #
straight-curve $-1 54.092226935636461 28.454918255161356 0 0 0 -1 I I #
plane-surface $-1 13.770266151420987 0 0 -1 0 0 0 0 1 forward_v I I I I #
coedge $-1 $404 $402 $406 $579 reversed $248 $-1 #
edge $-1 $417 -108.18445387127292 $581 108.18445387127292 $416 $670 forward 7 unknown #
vertex $-1 $579 $671 #
straight-curve $-1 -13.770266151420987 -216.36890774254584 0 0 0 -1 I I #
edge $-1 $577 -216.36890774254584 $581 216.36890774254584 $575 $672 forward 7 unknown #
straight-curve $-1 0 -216.36890774254584 -108.18445387127292 -1 0 0 I I #
vertex $-1 $409 $673 #
straight-curve $-1 0 216.36890774254584 -108.18445387127292 1 0 0 I I #
point $-1 13.770266151420987 216.36890774254584 -108.18445387127292 #
point $-1 13.770266151420987 -216.36890774254584 -108.18445387127292 #
straight-curve $-1 -13.770266151420987 0 108.18445387127292 0 -1 0 I I #
point $-1 -13.770266151420987 216.36890774254584 108.18445387127292 #
point $-1 -13.770266151420987 -216.36890774254584 108.18445387127292 #
straight-curve $-1 13.770266151420987 -216.36890774254584 0 0 0 -1 I I #
straight-curve $-1 13.770266151420987 216.36890774254584 0 0 0 -1 I I #
edge $-1 $674 1 $674 0 $426 $-1 forward 7 unknown #
point $-1 1.5 0 -0.75 #
edge $-1 $675 1 $675 0 $430 $-1 forward 7 unknown #
point $-1 1.5 0 -0.75 #
plane-surface $-1 5.640625565682023 0 0 -1 0 0 0 0 1 forward_v I I I I #
coedge $-1 $439 $437 $441 $599 reversed $277 $-1 #
edge $-1 $452 -108.18445387127292 $601 108.18445387127292 $451 $676 forward 7 unknown #
vertex $-1 $599 $677 #
straight-curve $-1 -5.640625565682023 -216.36890774254584 0 0 0 -1 I I #
edge $-1 $597 -216.36890774254584 $601 216.36890774254584 $595 $678 forward 7 unknown #
straight-curve $-1 0 -216.36890774254584 -108.18445387127292 -1 0 0 I I #
vertex $-1 $444 $679 #
straight-curve $-1 0 216.36890774254584 -108.18445387127292 1 0 0 I I #
point $-1 5.640625565682023 216.36890774254584 -108.18445387127292 #
point $-1 5.640625565682023 -216.36890774254584 -108.18445387127292 #
straight-curve $-1 -5.640625565682023 0 108.18445387127292 0 -1 0 I I #
point $-1 -5.640625565682023 216.36890774254584 108.18445387127292 #
point $-1 -5.640625565682023 -216.36890774254584 108.18445387127292 #
straight-curve $-1 5.640625565682023 -216.36890774254584 0 0 0 -1 I I #
straight-curve $-1 5.640625565682023 216.36890774254584 0 0 0 -1 I I #
edge $-1 $680 1 $680 0 $461 $-1 forward 7 unknown #
point $-1 1 0 -0.5 #
plane-surface $-1 5.640625565682023 0 0 -1 0 0 0 0 1 forward_v I I I I #
coedge $-1 $470 $468 $472 $617 reversed $301 $-1 #
edge $-1 $483 -108.18445387127292 $619 108.18445387127292 $482 $681 forward 7 unknown #
vertex $-1 $617 $682 #
straight-curve $-1 -5.640625565682023 -216.36890774254584 0 0 0 -1 I I #
edge $-1 $615 -216.36890774254584 $619 216.36890774254584 $613 $683 forward 7 unknown #
straight-curve $-1 0 -216.36890774254584 -108.18445387127292 -1 0 0 I I #
vertex $-1 $475 $684 #
straight-curve $-1 0 216.36890774254584 -108.18445387127292 1 0 0 I I #
point $-1 5.640625565682023 216.36890774254584 -108.18445387127292 #
point $-1 5.640625565682023 -216.36890774254584 -108.18445387127292 #
straight-curve $-1 -5.640625565682023 0 108.18445387127292 0 -1 0 I I #
point $-1 -5.640625565682023 216.36890774254584 108.18445387127292 #
point $-1 -5.640625565682023 -216.36890774254584 108.18445387127292 #
straight-curve $-1 5.640625565682023 -216.36890774254584 0 0 0 -1 I I #
straight-curve $-1 5.640625565682023 216.36890774254584 0 0 0 -1 I I #
edge $-1 $685 1 $685 0 $492 $-1 forward 7 unknown #
point $-1 1 0 -0.5 #
plane-surface $-1 5.640625565682023 0 0 -1 0 0 0 0 1 forward_v I I I I #
coedge $-1 $501 $499 $503 $635 reversed $325 $-1 #
edge $-1 $514 -108.18445387127292 $637 108.18445387127292 $513 $686 forward 7 unknown #
vertex $-1 $635 $687 #
straight-curve $-1 -5.640625565682023 -216.36890774254584 0 0 0 -1 I I #
edge $-1 $633 -216.36890774254584 $637 216.36890774254584 $631 $688 forward 7 unknown #
straight-curve $-1 0 -216.36890774254584 -108.18445387127292 -1 0 0 I I #
vertex $-1 $506 $689 #
straight-curve $-1 0 216.36890774254584 -108.18445387127292 1 0 0 I I #
point $-1 5.640625565682023 216.36890774254584 -108.18445387127292 #
point $-1 5.640625565682023 -216.36890774254584 -108.18445387127292 #
straight-curve $-1 -5.640625565682023 0 108.18445387127292 0 -1 0 I I #
point $-1 -5.640625565682023 216.36890774254584 108.18445387127292 #
point $-1 -5.640625565682023 -216.36890774254584 108.18445387127292 #
straight-curve $-1 5.640625565682023 -216.36890774254584 0 0 0 -1 I I #
straight-curve $-1 5.640625565682023 216.36890774254584 0 0 0 -1 I I #
edge $-1 $690 1 $690 0 $523 $-1 forward 7 unknown #
point $-1 1 0 -0.5 #
plane-surface $-1 5.640625565682023 0 0 -1 0 0 0 0 1 forward_v I I I I #
coedge $-1 $532 $530 $534 $653 reversed $349 $-1 #
edge $-1 $545 -108.18445387127292 $655 108.18445387127292 $544 $691 forward 7 unknown #
vertex $-1 $653 $692 #
straight-curve $-1 -5.640625565682023 -216.36890774254584 0 0 0 -1 I I #
edge $-1 $651 -216.36890774254584 $655 216.36890774254584 $649 $693 forward 7 unknown #
straight-curve $-1 0 -216.36890774254584 -108.18445387127292 -1 0 0 I I #
vertex $-1 $537 $694 #
straight-curve $-1 0 216.36890774254584 -108.18445387127292 1 0 0 I I #
point $-1 5.640625565682023 216.36890774254584 -108.18445387127292 #
point $-1 5.640625565682023 -216.36890774254584 -108.18445387127292 #
straight-curve $-1 -5.640625565682023 0 108.18445387127292 0 -1 0 I I #
point $-1 -5.640625565682023 216.36890774254584 108.18445387127292 #
point $-1 -5.640625565682023 -216.36890774254584 108.18445387127292 #
straight-curve $-1 5.640625565682023 -216.36890774254584 0 0 0 -1 I I #
straight-curve $-1 5.640625565682023 216.36890774254584 0 0 0 -1 I I #
edge $-1 $695 1 $695 0 $554 $-1 forward 7 unknown #
point $-1 1 0 -0.5 #
straight-curve $-1 -54.092226935636461 28.454918255161356 0 0 0 -1 I I #
point $-1 -54.092226935636461 -28.454918255161356 -11.848125330549623 #
straight-curve $-1 -54.092226935636461 0 -11.848125330549623 0 1 0 I I #
point $-1 -54.092226935636461 28.454918255161356 -11.848125330549623 #
straight-curve $-1 -13.770266151420987 216.36890774254584 0 0 0 -1 I I #
point $-1 -13.770266151420987 -216.36890774254584 -108.18445387127292 #
straight-curve $-1 -13.770266151420987 0 -108.18445387127292 0 1 0 I I #
point $-1 -13.770266151420987 216.36890774254584 -108.18445387127292 #
vertex $-1 $590 $696 #
vertex $-1 $592 $697 #
straight-curve $-1 -5.640625565682023 216.36890774254584 0 0 0 -1 I I #
point $-1 -5.640625565682023 -216.36890774254584 -108.18445387127292 #
straight-curve $-1 -5.640625565682023 0 -108.18445387127292 0 1 0 I I #
point $-1 -5.640625565682023 216.36890774254584 -108.18445387127292 #
vertex $-1 $610 $698 #
straight-curve $-1 -5.640625565682023 216.36890774254584 0 0 0 -1 I I #
point $-1 -5.640625565682023 -216.36890774254584 -108.18445387127292 #
straight-curve $-1 -5.640625565682023 0 -108.18445387127292 0 1 0 I I #
point $-1 -5.640625565682023 216.36890774254584 -108.18445387127292 #
vertex $-1 $628 $699 #
straight-curve $-1 -5.640625565682023 216.36890774254584 0 0 0 -1 I I #
point $-1 -5.640625565682023 -216.36890774254584 -108.18445387127292 #
straight-curve $-1 -5.640625565682023 0 -108.18445387127292 0 1 0 I I #
point $-1 -5.640625565682023 216.36890774254584 -108.18445387127292 #
vertex $-1 $646 $700 #
straight-curve $-1 -5.640625565682023 216.36890774254584 0 0 0 -1 I I #
point $-1 -5.640625565682023 -216.36890774254584 -108.18445387127292 #
straight-curve $-1 -5.640625565682023 0 -108.18445387127292 0 1 0 I I #
point $-1 -5.640625565682023 216.36890774254584 -108.18445387127292 #
vertex $-1 $664 $701 #
point $-1 0 0 0.75 #
point $-1 0 0 0.75 #
point $-1 0 0 0.5 #
point $-1 0 0 0.5 #
point $-1 0 0 0.5 #
point $-1 0 0 0.5 #
End-of-ACIS-data 