500 0 5 0           
7 Unknown 11 ACIS 5.0 NT 24 Fri Mar 26 14:48:00 1999 
-1 9.9999999999999995e-007 1e-010 
body $-1 $5 $-1 $6 #
body $-1 $7 $-1 $8 #
body $-1 $9 $-1 $10 #
body $-1 $11 $-1 $12 #
body $-1 $13 $-1 $14 #
lump $-1 $-1 $15 $0 #
transform $-1 1 0 0 0 1 0 0 0 1 48.890652180547505 28.146554515184977 12.019172340689451 1 rotate no_reflect no_shear #
lump $-1 $-1 $16 $1 #
transform $-1 1 0 0 0 1 0 0 0 1 48.890652180547505 28.146554515184977 12.019172340689451 1 rotate no_reflect no_shear #
lump $-1 $-1 $17 $2 #
transform $-1 1 0 0 0 1 0 0 0 1 48.890652180547505 28.146554515184977 12.019172340689451 1 rotate no_reflect no_shear #
lump $-1 $-1 $18 $3 #
transform $-1 1 0 0 0 1 0 0 0 1 48.890652180547505 28.146554515184977 12.019172340689451 1 rotate no_reflect no_shear #
lump $-1 $-1 $19 $4 #
transform $-1 1 0 0 0 1 0 0 0 1 48.890652180547505 28.146554515184977 12.019172340689451 1 rotate no_reflect no_shear #
shell $-1 $-1 $-1 $20 $-1 $5 #
shell $-1 $-1 $-1 $21 $-1 $7 #
shell $-1 $-1 $-1 $22 $-1 $9 #
shell $-1 $-1 $-1 $23 $-1 $11 #
shell $-1 $-1 $-1 $24 $-1 $13 #
face $-1 $25 $26 $15 $-1 $27 forward single #
face $-1 $28 $29 $16 $-1 $30 forward single #
face $-1 $31 $32 $17 $-1 $33 reversed single #
face $-1 $34 $35 $18 $-1 $36 forward single #
face $-1 $37 $38 $19 $-1 $39 forward single #
face $-1 $40 $41 $15 $-1 $42 reversed single #
loop $-1 $-1 $43 $20 #
plane-surface $-1 0 0 12.019172340689451 0 0 1 1 0 0 forward_v I I I I #
face $-1 $44 $45 $16 $-1 $46 reversed single #
loop $-1 $-1 $47 $21 #
plane-surface $-1 0 -28.146554515184977 0 0 1 0 0 0 1 forward_v I I I I #
face $-1 $48 $49 $17 $-1 $50 reversed single #
loop $-1 $-1 $51 $22 #
plane-surface $-1 24.194210737571751 32.223488368348427 113.74578375090589 1 0 0 0 -0.52991927123019833 -0.84804809178421925 forward_v I I I I #
face $-1 $52 $53 $18 $-1 $54 forward single #
loop $-1 $55 $56 $23 #
cone-surface $-1 31.250336864136244 18.298967412654513 4.8670450320455814 0 -0.52991927123019833 -0.84804809178421925 2.5 0 0 1 I I 0 1 2.5 forward I I I I #
face $-1 $57 $58 $19 $-1 $59 forward single #
loop $-1 $60 $61 $24 #
cone-surface $-1 41.834526053982998 18.298967412654513 4.8670450320455814 0 -0.52991927123019833 -0.84804809178421925 2.5 0 0 1 I I 0 1 2.5 forward I I I I #
face $-1 $62 $63 $15 $-1 $64 reversed single #
loop $-1 $-1 $65 $25 #
plane-surface $-1 0 0 -12.019172340689451 0 0 1 1 0 0 forward_v I I I I #
coedge $-1 $66 $67 $68 $69 forward $26 $-1 #
face $-1 $70 $71 $16 $-1 $72 reversed single #
loop $-1 $-1 $73 $28 #
plane-surface $-1 0 0 -12.019172340689451 0 0 1 1 0 0 forward_v I I I I #
coedge $-1 $74 $75 $76 $77 forward $29 $-1 #
face $-1 $78 $79 $17 $-1 $80 forward single #
loop $-1 $-1 $81 $31 #
plane-surface $-1 36.542431459059628 -19.592709178621256 30.822535175307308 0 0.52991927123019833 0.84804809178421925 1 0 0 forward_v I I I I #
coedge $-1 $82 $83 $84 $85 reversed $32 $-1 #
face $-1 $-1 $86 $18 $-1 $87 forward single #
loop $-1 $88 $89 $34 #
cone-surface $-1 31.250336864136244 16.612777941060298 2.1685778476903792 0 -0.52991927123019833 -0.84804809178421925 1.25 0 0 1 I I -0.70710678118654746 0.70710678118654746 1.25 forward I I I I #
loop $-1 $-1 $90 $23 #
coedge $-1 $56 $56 $91 $92 reversed $35 $-1 #
face $-1 $-1 $93 $19 $-1 $94 forward single #
loop $-1 $95 $96 $37 #
cone-surface $-1 41.834526053982998 16.612777941060298 2.1685778476903792 0 -0.52991927123019833 -0.84804809178421925 1.25 0 0 1 I I -0.70710678118654746 0.70710678118654746 1.25 forward I I I I #
loop $-1 $-1 $97 $24 #
coedge $-1 $61 $61 $98 $99 reversed $38 $-1 #
face $-1 $100 $101 $15 $-1 $102 reversed single #
loop $-1 $-1 $103 $40 #
plane-surface $-1 0 -28.146554515184977 0 0 1 0 0 0 1 forward_v I I I I #
coedge $-1 $104 $105 $106 $107 forward $41 $-1 #
coedge $-1 $108 $43 $109 $110 forward $26 $-1 #
coedge $-1 $43 $108 $111 $112 forward $26 $-1 #
coedge $-1 $113 $114 $43 $69 reversed $115 $-1 #
edge $-1 $116 -28.146554515184977 $117 28.146554515184977 $68 $118 forward 7 unknown #
face $-1 $119 $120 $16 $-1 $121 reversed single #
loop $-1 $-1 $122 $44 #
plane-surface $-1 -26.87374543527217 -39.134903183821876 0 0 1 0 0 0 1 forward_v I I I I #
coedge $-1 $123 $124 $75 $125 forward $45 $-1 #
coedge $-1 $126 $47 $127 $128 reversed $29 $-1 #
coedge $-1 $47 $126 $73 $125 reversed $29 $-1 #
coedge $-1 $129 $130 $47 $77 reversed $120 $-1 #
edge $-1 $131 -12.019172340689451 $132 12.019172340689451 $76 $133 forward 7 unknown #
face $-1 $134 $135 $17 $-1 $136 reversed single #
loop $-1 $-1 $84 $48 #
plane-surface $-1 0 0 12.019172340689451 0 0 1 1 0 0 forward_v I I I I #
coedge $-1 $137 $138 $139 $140 reversed $49 $-1 #
coedge $-1 $83 $51 $141 $142 reversed $32 $-1 #
coedge $-1 $51 $82 $137 $143 reversed $32 $-1 #
coedge $-1 $139 $144 $51 $85 forward $79 $-1 #
edge $-1 $145 -12.034810331010764 $146 5.6127831089372577 $84 $147 forward 7 unknown #
loop $-1 $-1 $91 $52 #
plane-surface $-1 36.542431459059628 -19.592709178621256 30.822535175307308 0 0.52991927123019833 0.84804809178421925 1 0 0 forward_v I I I I #
loop $-1 $-1 $148 $34 #
coedge $-1 $89 $89 $90 $149 reversed $53 $-1 #
coedge $-1 $90 $90 $89 $149 forward $55 $-1 #
coedge $-1 $91 $91 $56 $92 forward $86 $-1 #
edge $-1 $150 -7.5306057742380742e-016 $150 6.2831853071795996 $91 $151 forward 7 unknown #
loop $-1 $-1 $98 $57 #
plane-surface $-1 36.542431459059628 -19.592709178621256 30.822535175307308 0 0.52991927123019833 0.84804809178421925 1 0 0 forward_v I I I I #
loop $-1 $-1 $152 $37 #
coedge $-1 $96 $96 $97 $153 reversed $58 $-1 #
coedge $-1 $97 $97 $96 $153 forward $60 $-1 #
coedge $-1 $98 $98 $61 $99 forward $93 $-1 #
edge $-1 $154 -7.5306057742380742e-016 $154 6.2831853071795996 $98 $155 forward 7 unknown #
face $-1 $156 $157 $15 $-1 $158 reversed single #
loop $-1 $-1 $159 $62 #
plane-surface $-1 -48.890652180547505 0 0 1 0 0 0 0 -1 forward_v I I I I #
coedge $-1 $160 $111 $161 $162 forward $63 $-1 #
coedge $-1 $163 $65 $160 $164 forward $41 $-1 #
coedge $-1 $65 $163 $165 $166 forward $41 $-1 #
coedge $-1 $114 $113 $65 $107 reversed $115 $-1 #
edge $-1 $167 -28.146554515184977 $168 28.146554515184977 $106 $169 forward 7 unknown #
coedge $-1 $67 $66 $170 $171 forward $26 $-1 #
coedge $-1 $172 $173 $66 $110 reversed $157 $-1 #
edge $-1 $117 -48.890652180547505 $174 48.890652180547505 $109 $175 forward 7 unknown #
coedge $-1 $103 $176 $67 $112 reversed $63 $-1 #
edge $-1 $177 -48.890652180547505 $116 48.890652180547505 $111 $178 forward 7 unknown #
coedge $-1 $106 $68 $176 $179 forward $115 $-1 #
coedge $-1 $68 $106 $172 $180 reversed $115 $-1 #
loop $-1 $-1 $113 $156 #
vertex $-1 $69 $181 #
vertex $-1 $69 $182 #
straight-curve $-1 48.890652180547505 0 12.019172340689451 0 1 0 I I #
face $-1 $183 $184 $16 $-1 $185 reversed single #
loop $-1 $-1 $76 $70 #
plane-surface $-1 -28.895183371375737 -33.640728849503425 0 1 0 0 0 0 -1 forward_v I I I I #
coedge $-1 $186 $187 $188 $189 forward $71 $-1 #
coedge $-1 $190 $73 $191 $192 forward $45 $-1 #
coedge $-1 $73 $190 $129 $193 forward $45 $-1 #
edge $-1 $131 -28.895183371375737 $194 -24.852307499168603 $73 $195 forward 7 unknown #
coedge $-1 $75 $74 $196 $197 forward $29 $-1 #
coedge $-1 $198 $199 $74 $128 forward $200 $-1 #
edge $-1 $201 24.852307499168603 $132 28.895183371375737 $127 $202 forward 7 unknown #
coedge $-1 $188 $76 $124 $193 reversed $120 $-1 #
coedge $-1 $76 $188 $198 $203 reversed $120 $-1 #
vertex $-1 $125 $204 #
vertex $-1 $203 $205 #
straight-curve $-1 -28.895183371375737 -28.146554515184977 0 0 0 1 I I #
face $-1 $-1 $206 $17 $-1 $207 reversed single #
loop $-1 $-1 $208 $78 #
plane-surface $-1 48.890652180547505 0 0 -1 0 0 0 0 1 forward_v I I I I #
coedge $-1 $209 $81 $83 $143 forward $49 $-1 #
coedge $-1 $81 $209 $208 $210 reversed $49 $-1 #
coedge $-1 $211 $84 $81 $140 forward $79 $-1 #
edge $-1 $146 5.9229950080419371 $212 30.619436451017691 $139 $213 forward 7 unknown #
coedge $-1 $214 $215 $82 $142 forward $206 $-1 #
edge $-1 $216 -55.881160012801374 $145 -44.853719534763492 $141 $217 forward 7 unknown #
edge $-1 $146 35.483447867382097 $216 56.293109030369955 $83 $218 forward 7 unknown #
coedge $-1 $84 $211 $214 $219 forward $79 $-1 #
vertex $-1 $142 $220 #
vertex $-1 $85 $221 #
straight-curve $-1 24.194210737571751 16.111744184174214 12.019172340689451 0 -1 0 I I #
coedge $-1 $148 $148 $-1 $222 reversed $88 $-1 #
edge $-1 $223 0 $223 6.2831853071796004 $89 $224 forward 7 unknown #
vertex $-1 $92 $225 #
ellipse-curve $-1 31.250336864136244 19.322757795210975 6.5054521016705049 0 0.52991927123019833 0.84804809178421925 2.5 0 0 1 I I #
coedge $-1 $152 $152 $-1 $226 reversed $95 $-1 #
edge $-1 $227 0 $227 6.2831853071796004 $96 $228 forward 7 unknown #
vertex $-1 $99 $229 #
ellipse-curve $-1 41.834526053982998 19.322757795210975 6.5054521016705049 0 0.52991927123019833 0.84804809178421925 2.5 0 0 1 I I #
face $-1 $-1 $115 $15 $-1 $230 reversed single #
loop $-1 $-1 $172 $100 #
plane-surface $-1 0 28.146554515184977 0 0 -1 0 0 0 -1 forward_v I I I I #
coedge $-1 $231 $170 $173 $232 forward $101 $-1 #
coedge $-1 $176 $103 $104 $164 reversed $63 $-1 #
coedge $-1 $170 $231 $103 $162 reversed $101 $-1 #
edge $-1 $177 -12.019172340689451 $233 12.019172340689451 $161 $234 forward 7 unknown #
coedge $-1 $105 $104 $231 $235 forward $41 $-1 #
edge $-1 $168 -48.890652180547505 $233 48.890652180547505 $160 $236 forward 7 unknown #
coedge $-1 $173 $172 $105 $166 reversed $157 $-1 #
edge $-1 $237 -48.890652180547505 $167 48.890652180547505 $165 $238 forward 7 unknown #
vertex $-1 $107 $239 #
vertex $-1 $179 $240 #
straight-curve $-1 48.890652180547505 0 -12.019172340689451 0 -1 0 I I #
coedge $-1 $159 $161 $108 $171 reversed $101 $-1 #
edge $-1 $174 -28.146554515184977 $177 28.146554515184977 $170 $241 forward 7 unknown #
coedge $-1 $165 $109 $114 $180 forward $157 $-1 #
coedge $-1 $109 $165 $159 $232 reversed $157 $-1 #
vertex $-1 $110 $242 #
straight-curve $-1 0 28.146554515184977 12.019172340689451 -1 0 0 I I #
coedge $-1 $111 $160 $113 $179 reversed $63 $-1 #
vertex $-1 $171 $243 #
straight-curve $-1 0 -28.146554515184977 12.019172340689451 1 0 0 I I #
edge $-1 $116 -12.019172340689451 $168 12.019172340689451 $113 $244 forward 7 unknown #
edge $-1 $117 -12.019172340689451 $167 12.019172340689451 $114 $245 forward 7 unknown #
point $-1 48.890652180547505 -28.146554515184977 12.019172340689451 #
point $-1 48.890652180547505 28.146554515184977 12.019172340689451 #
face $-1 $-1 $200 $16 $-1 $246 forward single #
loop $-1 $-1 $247 $119 #
plane-surface $-1 -24.852307499168603 -33.640728849503425 0 -1 0 0 0 0 1 forward_v I I I I #
coedge $-1 $248 $122 $190 $249 reversed $71 $-1 #
coedge $-1 $122 $248 $250 $251 reversed $71 $-1 #
coedge $-1 $130 $129 $122 $189 reversed $120 $-1 #
edge $-1 $252 -12.019172340689451 $253 12.019172340689451 $188 $254 forward 7 unknown #
coedge $-1 $124 $123 $186 $249 forward $45 $-1 #
coedge $-1 $196 $247 $123 $192 reversed $184 $-1 #
edge $-1 $194 -5.4941743343184513 $255 5.4941743343184513 $191 $256 forward 7 unknown #
edge $-1 $253 -5.4941743343184513 $131 5.4941743343184513 $129 $257 forward 7 unknown #
vertex $-1 $192 $258 #
straight-curve $-1 0 -28.146554515184977 -12.019172340689451 1 0 0 I I #
coedge $-1 $259 $191 $126 $197 reversed $184 $-1 #
edge $-1 $201 -12.019172340689451 $194 12.019172340689451 $196 $260 forward 7 unknown #
coedge $-1 $250 $127 $130 $203 forward $200 $-1 #
coedge $-1 $127 $250 $259 $261 forward $200 $-1 #
loop $-1 $-1 $127 $183 #
vertex $-1 $128 $262 #
straight-curve $-1 0 -28.146554515184977 12.019172340689451 -1 0 0 I I #
edge $-1 $132 -5.4941743343184513 $252 5.4941743343184513 $130 $263 forward 7 unknown #
point $-1 -28.895183371375737 -28.146554515184974 -12.019172340689451 #
point $-1 -28.895183371375737 -28.146554515184974 12.019172340689451 #
loop $-1 $-1 $141 $134 #
plane-surface $-1 0 28.146554515184977 0 0 -1 0 0 0 -1 forward_v I I I I #
coedge $-1 $264 $265 $138 $210 forward $135 $-1 #
coedge $-1 $138 $137 $215 $266 reversed $49 $-1 #
edge $-1 $212 19.008940362692641 $267 39.818601525680492 $208 $268 forward 7 unknown #
coedge $-1 $144 $139 $265 $269 forward $79 $-1 #
vertex $-1 $269 $270 #
straight-curve $-1 18.271215729529814 10.498961075236959 12.019172340689449 1 0 0 I I #
coedge $-1 $271 $141 $144 $219 reversed $206 $-1 #
coedge $-1 $141 $271 $209 $266 forward $206 $-1 #
vertex $-1 $142 $272 #
straight-curve $-1 24.194210737571751 28.146554515184977 56.872891875452943 0 0 1 I I #
straight-curve $-1 24.194210737571751 -19.592709178621256 30.822535175307308 0 0.84804809178421925 -0.52991927123019833 I I #
edge $-1 $273 -48.890652180547505 $145 -24.194210737571751 $214 $274 forward 7 unknown #
point $-1 24.194210737571751 28.146554515184977 12.019172340689451 #
point $-1 24.194210737571751 10.498961075236956 12.019172340689451 #
edge $-1 $275 1 $275 0 $148 $-1 forward 7 unknown #
vertex $-1 $149 $276 #
ellipse-curve $-1 31.250336864136244 17.275177030098046 3.2286379624206534 0 0.52991927123019833 0.84804809178421925 2.5 0 0 1 I I #
point $-1 33.750336864136244 19.322757795210975 6.5054521016705085 #
edge $-1 $277 1 $277 0 $152 $-1 forward 7 unknown #
vertex $-1 $153 $278 #
ellipse-curve $-1 41.834526053982998 17.275177030098046 3.2286379624206534 0 0.52991927123019833 0.84804809178421925 2.5 0 0 1 I I #
point $-1 44.334526053982998 19.322757795210975 6.5054521016705085 #
plane-surface $-1 48.890652180547505 0 0 -1 0 0 0 0 1 forward_v I I I I #
coedge $-1 $161 $159 $163 $235 reversed $101 $-1 #
edge $-1 $174 -12.019172340689451 $237 12.019172340689451 $173 $279 forward 7 unknown #
vertex $-1 $235 $280 #
straight-curve $-1 -48.890652180547505 -28.146554515184977 0 0 0 -1 I I #
edge $-1 $233 -28.146554515184977 $237 28.146554515184977 $231 $281 forward 7 unknown #
straight-curve $-1 0 -28.146554515184977 -12.019172340689451 -1 0 0 I I #
vertex $-1 $166 $282 #
straight-curve $-1 0 28.146554515184977 -12.019172340689451 1 0 0 I I #
point $-1 48.890652180547505 28.146554515184977 -12.019172340689451 #
point $-1 48.890652180547505 -28.146554515184977 -12.019172340689451 #
straight-curve $-1 -48.890652180547505 0 12.019172340689451 0 -1 0 I I #
point $-1 -48.890652180547505 28.146554515184977 12.019172340689451 #
point $-1 -48.890652180547505 -28.146554515184977 12.019172340689451 #
straight-curve $-1 48.890652180547505 -28.146554515184977 0 0 0 -1 I I #
straight-curve $-1 48.890652180547505 28.146554515184977 0 0 0 -1 I I #
plane-surface $-1 0 0 12.019172340689451 0 0 1 1 0 0 forward_v I I I I #
coedge $-1 $191 $259 $248 $283 forward $184 $-1 #
coedge $-1 $187 $186 $247 $283 reversed $71 $-1 #
edge $-1 $255 -2.0214379361035668 $253 2.0214379361035668 $186 $284 forward 7 unknown #
coedge $-1 $199 $198 $187 $251 forward $200 $-1 #
edge $-1 $252 -2.0214379361035668 $285 2.0214379361035668 $187 $286 forward 7 unknown #
vertex $-1 $203 $287 #
vertex $-1 $193 $288 #
straight-curve $-1 -28.895183371375737 -39.134903183821876 0 0 0 -1 I I #
vertex $-1 $283 $289 #
straight-curve $-1 -24.852307499168603 -33.640728849503425 -12.019172340689451 0 -1 0 I I #
straight-curve $-1 -28.895183371375737 -33.640728849503425 -12.019172340689451 0 1 0 I I #
point $-1 -24.852307499168603 -28.146554515184974 -12.019172340689451 #
coedge $-1 $247 $196 $199 $261 reversed $184 $-1 #
straight-curve $-1 -24.852307499168603 -28.146554515184977 0 0 0 -1 I I #
edge $-1 $285 -5.4941743343184513 $201 5.4941743343184513 $259 $290 forward 7 unknown #
point $-1 -24.852307499168603 -28.146554515184974 12.019172340689451 #
straight-curve $-1 -28.895183371375737 -33.640728849503425 12.019172340689451 0 -1 0 I I #
coedge $-1 $265 $208 $271 $291 reversed $135 $-1 #
coedge $-1 $208 $264 $211 $269 reversed $135 $-1 #
edge $-1 $267 -30.619436451017691 $216 -5.9229950080419371 $215 $292 forward 7 unknown #
vertex $-1 $210 $293 #
straight-curve $-1 48.890652180547505 -5.6215345261845622 22.09237616454584 0 0.84804809178421925 -0.52991927123019833 I I #
edge $-1 $212 10.498961075236956 $273 28.146554515184977 $265 $294 forward 7 unknown #
point $-1 48.890652180547505 10.498961075236956 12.019172340689451 #
coedge $-1 $215 $214 $264 $291 forward $206 $-1 #
point $-1 24.194210737571751 28.146554515184981 0.99173186265156943 #
vertex $-1 $269 $295 #
straight-curve $-1 0 28.146554515184977 12.019172340689451 -1 0 0 I I #
vertex $-1 $222 $296 #
point $-1 33.750336864136244 17.275177030098046 3.2286379624206534 #
vertex $-1 $226 $297 #
point $-1 44.334526053982998 17.275177030098046 3.2286379624206534 #
straight-curve $-1 -48.890652180547505 28.146554515184977 0 0 0 -1 I I #
point $-1 -48.890652180547505 -28.146554515184977 -12.019172340689451 #
straight-curve $-1 -48.890652180547505 0 -12.019172340689451 0 1 0 I I #
point $-1 -48.890652180547505 28.146554515184977 -12.019172340689451 #
edge $-1 $285 -12.019172340689451 $255 12.019172340689451 $247 $298 forward 7 unknown #
straight-curve $-1 -26.87374543527217 -39.134903183821876 -12.019172340689451 -1 0 0 I I #
vertex $-1 $261 $299 #
straight-curve $-1 -26.87374543527217 -39.134903183821876 12.019172340689451 1 0 0 I I #
point $-1 -28.895183371375737 -39.134903183821876 12.019172340689451 #
point $-1 -28.895183371375737 -39.134903183821876 -12.019172340689451 #
point $-1 -24.852307499168603 -39.134903183821876 -12.019172340689451 #
straight-curve $-1 -24.852307499168603 -33.640728849503425 12.019172340689451 0 1 0 I I #
edge $-1 $273 -12.019172340689451 $267 -0.99173186265156943 $264 $300 forward 7 unknown #
straight-curve $-1 18.271215729529814 28.146554515184981 0.99173186265156588 -1 0 0 I I #
point $-1 48.890652180547505 28.146554515184981 0.99173186265156943 #
straight-curve $-1 48.890652180547505 0 12.019172340689451 0 1 0 I I #
point $-1 48.890652180547505 28.146554515184977 12.019172340689451 #
point $-1 31.250336864136244 15.950378852022549 1.108517732960105 #
point $-1 41.834526053982998 15.950378852022549 1.108517732960105 #
straight-curve $-1 -24.852307499168603 -39.134903183821876 0 0 0 -1 I I #
point $-1 -24.852307499168603 -39.134903183821876 12.019172340689451 #
straight-curve $-1 48.890652180547505 28.146554515184977 0 0 0 -1 I I #
End-of-ACIS-data 