500 0 4 0           
7 Unknown 11 ACIS 5.0 NT 24 Fri Mar 26 18:35:39 1999 
-1 9.9999999999999995e-007 1e-010 
body $-1 $4 $-1 $5 #
body $-1 $6 $-1 $7 #
body $-1 $8 $-1 $9 #
body $-1 $10 $-1 $11 #
lump $-1 $-1 $12 $0 #
transform $-1 1 0 0 0 1 0 0 0 1 67.962279122287669 32.605798904813106 15.500466631677121 1 rotate no_reflect no_shear #
lump $-1 $-1 $13 $1 #
transform $-1 1 0 0 0 1 0 0 0 1 67.962279122287669 32.605798904813106 15.500466631677121 1 rotate no_reflect no_shear #
lump $-1 $-1 $14 $2 #
transform $-1 1 0 0 0 1 0 0 0 1 67.962279122287669 32.605798904813106 15.500466631677121 1 rotate no_reflect no_shear #
lump $-1 $-1 $15 $3 #
transform $-1 1 0 0 0 1 0 0 0 1 67.962279122287669 32.605798904813106 15.500466631677121 1 rotate no_reflect no_shear #
shell $-1 $-1 $-1 $16 $-1 $4 #
shell $-1 $-1 $-1 $17 $-1 $6 #
shell $-1 $-1 $-1 $18 $-1 $8 #
shell $-1 $-1 $-1 $19 $-1 $10 #
face $-1 $20 $21 $12 $-1 $22 forward single #
face $-1 $23 $24 $13 $-1 $25 forward single #
face $-1 $26 $27 $14 $-1 $28 reversed single #
face $-1 $29 $30 $15 $-1 $31 reversed single #
face $-1 $32 $33 $12 $-1 $34 reversed single #
loop $-1 $-1 $35 $16 #
plane-surface $-1 0 0 15.500466631677121 0 0 1 1 0 0 forward_v I I I I #
face $-1 $36 $37 $13 $-1 $38 forward single #
loop $-1 $-1 $39 $17 #
plane-surface $-1 13.091518176895917 85.081962900356274 150.69042403677054 1 0 0 0 -0.71933980857756763 -0.69465836192734942 forward_v I I I I #
face $-1 $40 $41 $14 $-1 $42 reversed single #
loop $-1 $43 $44 $18 #
cone-surface $-1 22.267251056872524 28.080414285587153 10.923280824850913 0 -0.71933980857756763 -0.69465836192734942 1.5 0 0 1 I I 0 1 1.5 forward I I I I #
face $-1 $45 $46 $15 $-1 $47 reversed single #
loop $-1 $48 $49 $19 #
cone-surface $-1 36.030850376837435 28.080414285587153 10.923280824850913 0 -0.71933980857756763 -0.69465836192734942 1.5 0 0 1 I I 0 1 1.5 forward I I I I #
face $-1 $50 $51 $12 $-1 $52 reversed single #
loop $-1 $-1 $53 $20 #
plane-surface $-1 0 0 -15.500466631677121 0 0 1 1 0 0 forward_v I I I I #
coedge $-1 $54 $55 $56 $57 forward $21 $-1 #
face $-1 $58 $59 $13 $-1 $60 forward single #
loop $-1 $-1 $61 $23 #
plane-surface $-1 29.149050716854987 -12.693982808286989 56.269293060895237 0 0.71933980857756763 0.69465836192734942 1 0 0 forward_v I I I I #
coedge $-1 $62 $63 $64 $65 reversed $24 $-1 #
face $-1 $66 $67 $14 $-1 $68 forward single #
loop $-1 $69 $70 $26 #
cone-surface $-1 22.267251056872524 25.980417111329118 8.8953371746770671 0 -0.71933980857756763 -0.69465836192734942 0.75 0 0 1 I I -0.70710678118654757 0.70710678118654757 0.75 forward I I I I #
loop $-1 $-1 $71 $18 #
coedge $-1 $44 $44 $72 $73 reversed $27 $-1 #
face $-1 $74 $75 $15 $-1 $76 reversed single #
loop $-1 $77 $78 $29 #
cone-surface $-1 36.030850376837435 25.980417111329118 8.8953371746770671 0 -0.71933980857756763 -0.69465836192734942 0.75 0 0 1 I I -0.70710678118654757 0.70710678118654757 0.75 forward I I I I #
loop $-1 $-1 $79 $19 #
coedge $-1 $49 $49 $80 $81 reversed $30 $-1 #
face $-1 $82 $83 $12 $-1 $84 reversed single #
loop $-1 $-1 $85 $32 #
plane-surface $-1 0 -32.605798904813106 0 0 1 0 0 0 1 forward_v I I I I #
coedge $-1 $86 $87 $88 $89 forward $33 $-1 #
coedge $-1 $90 $35 $91 $92 forward $21 $-1 #
coedge $-1 $35 $90 $93 $94 forward $21 $-1 #
coedge $-1 $95 $96 $35 $57 reversed $97 $-1 #
edge $-1 $98 -32.605798904813106 $99 32.605798904813106 $56 $100 forward 7 unknown #
face $-1 $101 $102 $13 $-1 $103 forward single #
loop $-1 $-1 $104 $36 #
plane-surface $-1 45.206583256814056 85.081962900356274 150.69042403677054 -1 0 0 0 0.71933980857756763 0.69465836192734942 forward_v I I I I #
coedge $-1 $105 $106 $107 $108 reversed $37 $-1 #
coedge $-1 $63 $39 $106 $109 forward $24 $-1 #
coedge $-1 $39 $62 $110 $111 reversed $24 $-1 #
coedge $-1 $112 $107 $39 $65 forward $102 $-1 #
edge $-1 $113 -15.864967148167217 $114 -9.9351825453650306 $64 $115 forward 7 unknown #
face $-1 $116 $117 $14 $-1 $118 forward single #
loop $-1 $-1 $119 $40 #
plane-surface $-1 13.091518176895917 85.081962900356274 150.69042403677054 1 0 0 0 -0.71933980857756763 -0.69465836192734942 forward_v I I I I #
loop $-1 $-1 $120 $26 #
coedge $-1 $70 $70 $71 $121 forward $41 $-1 #
coedge $-1 $71 $71 $70 $121 reversed $43 $-1 #
coedge $-1 $72 $72 $44 $73 forward $117 $-1 #
edge $-1 $122 1.7037389184261722e-015 $122 6.2831853071796022 $72 $123 forward 7 unknown #
face $-1 $124 $125 $15 $-1 $126 reversed single #
loop $-1 $127 $128 $45 #
cone-surface $-1 22.267251056872524 28.080414285587153 10.923280824850913 0 -0.71933980857756763 -0.69465836192734942 1.5 0 0 1 I I 0 1 1.5 forward I I I I #
loop $-1 $-1 $129 $29 #
coedge $-1 $78 $78 $79 $130 forward $46 $-1 #
coedge $-1 $79 $79 $78 $130 reversed $48 $-1 #
coedge $-1 $80 $80 $49 $81 forward $131 $-1 #
edge $-1 $132 1.7037389184261722e-015 $132 6.2831853071796022 $80 $133 forward 7 unknown #
face $-1 $134 $135 $12 $-1 $136 reversed single #
loop $-1 $-1 $137 $50 #
plane-surface $-1 -67.962279122287669 0 0 1 0 0 0 0 -1 forward_v I I I I #
coedge $-1 $138 $93 $139 $140 forward $51 $-1 #
coedge $-1 $141 $53 $138 $142 forward $33 $-1 #
coedge $-1 $53 $141 $143 $144 forward $33 $-1 #
coedge $-1 $96 $95 $53 $89 reversed $97 $-1 #
edge $-1 $145 -32.605798904813106 $146 32.605798904813106 $88 $147 forward 7 unknown #
coedge $-1 $55 $54 $148 $149 forward $21 $-1 #
coedge $-1 $150 $151 $54 $92 reversed $135 $-1 #
edge $-1 $99 -67.962279122287669 $152 67.962279122287669 $91 $153 forward 7 unknown #
coedge $-1 $85 $154 $55 $94 reversed $51 $-1 #
edge $-1 $155 -67.962279122287669 $98 67.962279122287669 $93 $156 forward 7 unknown #
coedge $-1 $88 $56 $154 $157 forward $97 $-1 #
coedge $-1 $56 $88 $150 $158 reversed $97 $-1 #
loop $-1 $-1 $95 $134 #
vertex $-1 $57 $159 #
vertex $-1 $57 $160 #
straight-curve $-1 67.962279122287669 0 15.500466631677121 0 1 0 I I #
face $-1 $161 $162 $13 $-1 $163 reversed single #
loop $-1 $-1 $164 $58 #
plane-surface $-1 0 0 15.500466631677121 0 0 1 1 0 0 forward_v I I I I #
coedge $-1 $165 $166 $164 $167 reversed $59 $-1 #
coedge $-1 $168 $61 $166 $169 reversed $37 $-1 #
coedge $-1 $61 $168 $62 $109 reversed $37 $-1 #
coedge $-1 $64 $164 $61 $108 forward $102 $-1 #
edge $-1 $170 -30.632057898386563 $113 1.4830071815315762 $107 $171 forward 7 unknown #
edge $-1 $113 56.675337501249864 $172 65.211597809626241 $62 $173 forward 7 unknown #
coedge $-1 $174 $175 $63 $111 forward $176 $-1 #
edge $-1 $114 59.844745386708148 $172 65.9852172429039 $110 $177 forward 7 unknown #
coedge $-1 $178 $64 $175 $179 forward $102 $-1 #
vertex $-1 $108 $180 #
vertex $-1 $179 $181 #
straight-curve $-1 13.091518176895917 42.540981450178137 15.500466631677114 0 1 0 I I #
face $-1 $182 $183 $14 $-1 $184 forward single #
loop $-1 $185 $72 $66 #
plane-surface $-1 29.149050716854987 -12.693982808286989 56.269293060895237 0 0.71933980857756763 0.69465836192734942 1 0 0 forward_v I I I I #
coedge $-1 $186 $187 $188 $189 reversed $67 $-1 #
coedge $-1 $120 $120 $-1 $190 forward $69 $-1 #
edge $-1 $191 0 $191 6.2831853071796004 $70 $192 forward 7 unknown #
vertex $-1 $73 $193 #
ellipse-curve $-1 22.267251056872524 29.640906603412009 12.430230703579245 0 -0.71933980857756763 -0.69465836192734942 1.5 0 0 1 I I #
face $-1 $194 $195 $15 $-1 $196 forward single #
loop $-1 $197 $198 $74 #
cone-surface $-1 22.267251056872524 25.980417111329118 8.8953371746770671 0 -0.71933980857756763 -0.69465836192734942 0.75 0 0 1 I I -0.70710678118654757 0.70710678118654757 0.75 forward I I I I #
loop $-1 $-1 $199 $45 #
coedge $-1 $128 $128 $200 $201 reversed $75 $-1 #
coedge $-1 $129 $129 $-1 $202 forward $77 $-1 #
edge $-1 $203 0 $203 6.2831853071796004 $78 $204 forward 7 unknown #
loop $-1 $205 $80 $194 #
vertex $-1 $81 $206 #
ellipse-curve $-1 36.030850376837435 29.640906603412009 12.430230703579245 0 -0.71933980857756763 -0.69465836192734942 1.5 0 0 1 I I #
face $-1 $-1 $97 $12 $-1 $207 reversed single #
loop $-1 $-1 $150 $82 #
plane-surface $-1 0 32.605798904813106 0 0 -1 0 0 0 -1 forward_v I I I I #
coedge $-1 $208 $148 $151 $209 forward $83 $-1 #
coedge $-1 $154 $85 $86 $142 reversed $51 $-1 #
coedge $-1 $148 $208 $85 $140 reversed $83 $-1 #
edge $-1 $155 -15.500466631677121 $210 15.500466631677121 $139 $211 forward 7 unknown #
coedge $-1 $87 $86 $208 $212 forward $33 $-1 #
edge $-1 $146 -67.962279122287669 $210 67.962279122287669 $138 $213 forward 7 unknown #
coedge $-1 $151 $150 $87 $144 reversed $135 $-1 #
edge $-1 $214 -67.962279122287669 $145 67.962279122287669 $143 $215 forward 7 unknown #
vertex $-1 $89 $216 #
vertex $-1 $157 $217 #
straight-curve $-1 67.962279122287669 0 -15.500466631677121 0 -1 0 I I #
coedge $-1 $137 $139 $90 $149 reversed $83 $-1 #
edge $-1 $152 -32.605798904813106 $155 32.605798904813106 $148 $218 forward 7 unknown #
coedge $-1 $143 $91 $96 $158 forward $135 $-1 #
coedge $-1 $91 $143 $137 $209 reversed $135 $-1 #
vertex $-1 $92 $219 #
straight-curve $-1 0 32.605798904813106 15.500466631677121 -1 0 0 I I #
coedge $-1 $93 $138 $95 $157 reversed $51 $-1 #
vertex $-1 $149 $220 #
straight-curve $-1 0 -32.605798904813106 15.500466631677121 1 0 0 I I #
edge $-1 $98 -15.500466631677121 $146 15.500466631677121 $95 $221 forward 7 unknown #
edge $-1 $99 -15.500466631677121 $145 15.500466631677121 $96 $222 forward 7 unknown #
point $-1 67.962279122287669 -32.605798904813106 15.500466631677121 #
point $-1 67.962279122287669 32.605798904813106 15.500466631677121 #
face $-1 $223 $224 $13 $-1 $225 reversed single #
loop $-1 $-1 $226 $101 #
plane-surface $-1 0 0 -15.500466631677121 0 0 1 1 0 0 forward_v I I I I #
coedge $-1 $107 $227 $104 $167 forward $102 $-1 #
coedge $-1 $166 $104 $228 $229 reversed $59 $-1 #
coedge $-1 $104 $165 $105 $169 forward $59 $-1 #
edge $-1 $230 9.9351825453650306 $170 15.864967148167217 $164 $231 forward 7 unknown #
coedge $-1 $106 $105 $174 $232 reversed $37 $-1 #
edge $-1 $233 -65.211597809626241 $170 -56.675337501249864 $166 $234 forward 7 unknown #
vertex $-1 $108 $235 #
straight-curve $-1 14.574525358427493 26.676014302010916 15.500466631677124 -1 0 0 I I #
vertex $-1 $232 $236 #
straight-curve $-1 13.091518176895917 -12.693982808286989 56.269293060895237 0 0.69465836192734942 -0.71933980857756763 I I #
coedge $-1 $228 $110 $168 $232 forward $176 $-1 #
coedge $-1 $110 $237 $112 $179 reversed $176 $-1 #
loop $-1 $-1 $228 $238 #
straight-curve $-1 13.091518176895917 32.605798904813106 75.345212018385268 0 0 -1 I I #
coedge $-1 $239 $112 $240 $241 forward $102 $-1 #
edge $-1 $114 -13.091518176895917 $242 67.962279122287669 $175 $243 forward 7 unknown #
point $-1 13.091518176895917 26.67601430201092 15.500466631677121 #
point $-1 13.091518176895917 32.605798904813106 15.500466631677121 #
face $-1 $244 $245 $14 $-1 $246 forward single #
loop $-1 $-1 $247 $116 #
plane-surface $-1 45.206583256814056 85.081962900356274 150.69042403677054 -1 0 0 0 0.71933980857756763 0.69465836192734942 forward_v I I I I #
loop $-1 $-1 $248 $66 #
coedge $-1 $187 $119 $249 $250 forward $67 $-1 #
coedge $-1 $119 $186 $251 $252 reversed $67 $-1 #
coedge $-1 $253 $254 $119 $189 forward $245 $-1 #
edge $-1 $255 -15.864967148167217 $256 -9.9351825453650306 $188 $257 forward 7 unknown #
edge $-1 $258 1 $258 0 $120 $-1 forward 7 unknown #
vertex $-1 $121 $259 #
ellipse-curve $-1 22.267251056872524 26.519921967762293 9.4163309461225797 0 0.71933980857756763 0.69465836192734942 1.5 0 0 1 I I #
point $-1 23.767251056872524 29.640906603412009 12.430230703579248 #
face $-1 $260 $131 $15 $-1 $261 forward single #
loop $-1 $-1 $262 $124 #
plane-surface $-1 13.091518176895917 85.081962900356274 150.69042403677054 1 0 0 0 -0.71933980857756763 -0.69465836192734942 forward_v I I I I #
loop $-1 $-1 $263 $74 #
coedge $-1 $198 $198 $199 $264 forward $125 $-1 #
coedge $-1 $199 $199 $198 $264 reversed $127 $-1 #
coedge $-1 $200 $200 $128 $201 forward $205 $-1 #
edge $-1 $265 1.7037389184261722e-015 $265 6.2831853071796022 $200 $266 forward 7 unknown #
edge $-1 $267 1 $267 0 $129 $-1 forward 7 unknown #
vertex $-1 $130 $268 #
ellipse-curve $-1 36.030850376837435 26.519921967762293 9.4163309461225797 0 0.71933980857756763 0.69465836192734942 1.5 0 0 1 I I #
loop $-1 $269 $200 $194 #
point $-1 37.530850376837435 29.640906603412009 12.430230703579248 #
plane-surface $-1 67.962279122287669 0 0 -1 0 0 0 0 1 forward_v I I I I #
coedge $-1 $139 $137 $141 $212 reversed $83 $-1 #
edge $-1 $152 -15.500466631677121 $214 15.500466631677121 $151 $270 forward 7 unknown #
vertex $-1 $212 $271 #
straight-curve $-1 -67.962279122287669 -32.605798904813106 0 0 0 -1 I I #
edge $-1 $210 -32.605798904813106 $214 32.605798904813106 $208 $272 forward 7 unknown #
straight-curve $-1 0 -32.605798904813106 -15.500466631677121 -1 0 0 I I #
vertex $-1 $144 $273 #
straight-curve $-1 0 32.605798904813106 -15.500466631677121 1 0 0 I I #
point $-1 67.962279122287669 32.605798904813106 -15.500466631677121 #
point $-1 67.962279122287669 -32.605798904813106 -15.500466631677121 #
straight-curve $-1 -67.962279122287669 0 15.500466631677121 0 -1 0 I I #
point $-1 -67.962279122287669 32.605798904813106 15.500466631677121 #
point $-1 -67.962279122287669 -32.605798904813106 15.500466631677121 #
straight-curve $-1 67.962279122287669 -32.605798904813106 0 0 0 -1 I I #
straight-curve $-1 67.962279122287669 32.605798904813106 0 0 0 -1 I I #
face $-1 $238 $274 $13 $-1 $275 reversed single #
loop $-1 $-1 $276 $161 #
plane-surface $-1 0 -32.605798904813106 0 0 1 0 0 0 1 forward_v I I I I #
coedge $-1 $277 $278 $279 $280 forward $162 $-1 #
coedge $-1 $164 $281 $282 $283 forward $102 $-1 #
coedge $-1 $282 $174 $165 $229 forward $176 $-1 #
edge $-1 $233 -65.9852172429039 $230 -59.844745386708148 $228 $284 forward 7 unknown #
vertex $-1 $229 $285 #
straight-curve $-1 45.206583256814056 42.540981450178137 15.500466631677114 0 -1 0 I I #
edge $-1 $172 -1.4830071815315762 $233 30.632057898386563 $174 $286 forward 7 unknown #
vertex $-1 $232 $287 #
straight-curve $-1 45.206583256814056 -12.693982808286989 56.269293060895237 0 -0.69465836192734942 0.71933980857756763 I I #
point $-1 45.206583256814056 26.67601430201092 15.500466631677121 #
point $-1 13.091518176895917 32.605798904813099 9.3599947754813684 #
coedge $-1 $175 $288 $289 $290 reversed $176 $-1 #
face $-1 $291 $176 $13 $-1 $292 reversed single #
coedge $-1 $281 $178 $293 $294 forward $102 $-1 #
coedge $-1 $289 $295 $178 $241 reversed $274 $-1 #
edge $-1 $242 -32.605798904813106 $296 32.605798904813106 $240 $297 forward 7 unknown #
vertex $-1 $179 $298 #
straight-curve $-1 0 32.605798904813106 15.500466631677121 -1 0 0 I I #
face $-1 $299 $300 $14 $-1 $301 reversed single #
loop $-1 $-1 $302 $182 #
plane-surface $-1 0 0 15.500466631677121 0 0 1 1 0 0 forward_v I I I I #
coedge $-1 $303 $304 $302 $305 reversed $183 $-1 #
coedge $-1 $306 $249 $254 $307 reversed $185 $-1 #
coedge $-1 $248 $308 $186 $250 reversed $185 $-1 #
edge $-1 $255 56.675337501249864 $309 65.211597809626241 $186 $310 forward 7 unknown #
coedge $-1 $311 $312 $187 $252 forward $313 $-1 #
edge $-1 $256 59.844745386708148 $309 65.9852172429039 $251 $314 forward 7 unknown #
coedge $-1 $315 $188 $312 $316 forward $245 $-1 #
coedge $-1 $188 $302 $248 $307 forward $245 $-1 #
vertex $-1 $307 $317 #
vertex $-1 $316 $318 #
straight-curve $-1 13.091518176895917 42.540981450178137 15.500466631677114 0 1 0 I I #
vertex $-1 $190 $319 #
point $-1 23.767251056872524 26.519921967762293 9.4163309461225797 #
face $-1 $320 $321 $15 $-1 $322 forward single #
plane-surface $-1 29.149050716854987 -12.693982808286989 56.269293060895237 0 0.71933980857756763 0.69465836192734942 1 0 0 forward_v I I I I #
coedge $-1 $323 $324 $325 $326 reversed $195 $-1 #
coedge $-1 $263 $263 $-1 $327 forward $197 $-1 #
edge $-1 $328 0 $328 6.2831853071796004 $198 $329 forward 7 unknown #
vertex $-1 $201 $330 #
ellipse-curve $-1 22.267251056872524 29.640906603412009 12.430230703579245 0 -0.71933980857756763 -0.69465836192734942 1.5 0 0 1 I I #
vertex $-1 $202 $331 #
point $-1 37.530850376837435 26.519921967762293 9.4163309461225797 #
loop $-1 $-1 $332 $194 #
straight-curve $-1 -67.962279122287669 32.605798904813106 0 0 0 -1 I I #
point $-1 -67.962279122287669 -32.605798904813106 -15.500466631677121 #
straight-curve $-1 -67.962279122287669 0 -15.500466631677121 0 1 0 I I #
point $-1 -67.962279122287669 32.605798904813106 -15.500466631677121 #
loop $-1 $-1 $289 $223 #
plane-surface $-1 -67.962279122287669 0 0 1 0 0 0 0 -1 forward_v I I I I #
coedge $-1 $333 $293 $295 $334 forward $224 $-1 #
coedge $-1 $335 $226 $333 $336 forward $162 $-1 #
coedge $-1 $226 $335 $288 $337 forward $162 $-1 #
coedge $-1 $338 $339 $226 $280 reversed $340 $-1 #
edge $-1 $341 -32.605798904813106 $342 32.605798904813106 $279 $343 forward 7 unknown #
coedge $-1 $227 $239 $344 $345 forward $102 $-1 #
coedge $-1 $346 $228 $227 $283 reversed $176 $-1 #
edge $-1 $347 -67.962279122287669 $230 -45.206583256814056 $282 $243 forward 7 unknown #
straight-curve $-1 45.206583256814056 32.605798904813106 75.345212018385268 0 0 1 I I #
point $-1 45.206583256814056 32.605798904813106 15.500466631677121 #
straight-curve $-1 14.574525358427493 32.605798904813106 9.3599947754813648 1 0 0 I I #
point $-1 45.206583256814056 32.605798904813099 9.3599947754813684 #
coedge $-1 $237 $346 $278 $337 reversed $176 $-1 #
coedge $-1 $348 $240 $237 $290 forward $274 $-1 #
edge $-1 $242 -15.500466631677121 $349 15.500466631677121 $237 $350 forward 7 unknown #
face $-1 $-1 $340 $13 $-1 $351 reversed single #
plane-surface $-1 0 32.605798904813106 0 0 -1 0 0 0 -1 forward_v I I I I #
coedge $-1 $276 $352 $239 $294 reversed $224 $-1 #
edge $-1 $296 -67.962279122287669 $353 67.962279122287669 $293 $354 forward 7 unknown #
coedge $-1 $240 $348 $276 $334 reversed $274 $-1 #
vertex $-1 $241 $355 #
straight-curve $-1 -67.962279122287669 0 15.500466631677121 0 -1 0 I I #
point $-1 -67.962279122287669 32.605798904813106 15.500466631677121 #
face $-1 $356 $357 $14 $-1 $358 reversed single #
loop $-1 $-1 $359 $244 #
plane-surface $-1 0 0 -15.500466631677121 0 0 1 1 0 0 forward_v I I I I #
coedge $-1 $254 $360 $247 $305 forward $245 $-1 #
coedge $-1 $304 $247 $361 $362 reversed $183 $-1 #
coedge $-1 $247 $303 $306 $363 forward $183 $-1 #
edge $-1 $364 9.9351825453650306 $365 15.864967148167217 $302 $366 forward 7 unknown #
coedge $-1 $308 $248 $304 $363 reversed $185 $-1 #
edge $-1 $365 -30.632057898386563 $255 1.4830071815315762 $254 $367 forward 7 unknown #
coedge $-1 $249 $306 $311 $368 reversed $185 $-1 #
vertex $-1 $368 $369 #
straight-curve $-1 13.091518176895917 -12.693982808286989 56.269293060895237 0 0.69465836192734942 -0.71933980857756763 I I #
coedge $-1 $361 $251 $308 $368 forward $313 $-1 #
coedge $-1 $251 $370 $253 $316 reversed $313 $-1 #
loop $-1 $-1 $361 $371 #
straight-curve $-1 13.091518176895917 32.605798904813106 75.345212018385268 0 0 -1 I I #
coedge $-1 $372 $253 $373 $374 forward $245 $-1 #
edge $-1 $256 -13.091518176895917 $375 67.962279122287669 $312 $376 forward 7 unknown #
point $-1 13.091518176895917 26.67601430201092 15.500466631677121 #
point $-1 13.091518176895917 32.605798904813106 15.500466631677121 #
point $-1 22.267251056872524 25.440912254895942 8.3743434032315545 #
face $-1 $377 $378 $15 $-1 $379 forward single #
loop $-1 $-1 $380 $260 #
plane-surface $-1 45.206583256814056 85.081962900356274 150.69042403677054 -1 0 0 0 0.71933980857756763 0.69465836192734942 forward_v I I I I #
coedge $-1 $324 $262 $381 $382 forward $195 $-1 #
coedge $-1 $262 $323 $383 $384 reversed $195 $-1 #
coedge $-1 $385 $386 $262 $326 forward $378 $-1 #
edge $-1 $387 -15.864967148167217 $388 -9.9351825453650306 $325 $389 forward 7 unknown #
edge $-1 $390 1 $390 0 $263 $-1 forward 7 unknown #
vertex $-1 $264 $391 #
ellipse-curve $-1 22.267251056872524 26.519921967762293 9.4163309461225797 0 0.71933980857756763 0.69465836192734942 1.5 0 0 1 I I #
point $-1 23.767251056872524 29.640906603412009 12.430230703579248 #
point $-1 36.030850376837435 25.440912254895942 8.3743434032315545 #
coedge $-1 $392 $381 $386 $393 reversed $269 $-1 #
coedge $-1 $352 $276 $277 $336 reversed $224 $-1 #
edge $-1 $296 -15.500466631677121 $394 15.500466631677121 $295 $395 forward 7 unknown #
coedge $-1 $278 $277 $348 $396 forward $162 $-1 #
edge $-1 $342 -67.962279122287669 $394 67.962279122287669 $333 $397 forward 7 unknown #
edge $-1 $349 -67.962279122287669 $341 67.962279122287669 $288 $398 forward 7 unknown #
coedge $-1 $344 $279 $346 $399 reversed $340 $-1 #
coedge $-1 $279 $344 $352 $400 forward $340 $-1 #
loop $-1 $-1 $339 $291 #
vertex $-1 $280 $401 #
vertex $-1 $400 $402 #
straight-curve $-1 67.962279122287669 0 -15.500466631677121 0 -1 0 I I #
coedge $-1 $339 $338 $281 $345 reversed $340 $-1 #
edge $-1 $353 -32.605798904813106 $347 32.605798904813106 $344 $403 forward 7 unknown #
coedge $-1 $288 $282 $338 $399 forward $176 $-1 #
vertex $-1 $345 $404 #
coedge $-1 $295 $289 $335 $396 reversed $274 $-1 #
vertex $-1 $337 $405 #
straight-curve $-1 -67.962279122287669 32.605798904813106 0 0 0 -1 I I #
plane-surface $-1 67.962279122287669 0 0 -1 0 0 0 0 1 forward_v I I I I #
coedge $-1 $293 $333 $339 $400 reversed $224 $-1 #
vertex $-1 $345 $406 #
straight-curve $-1 0 -32.605798904813106 15.500466631677121 1 0 0 I I #
point $-1 -67.962279122287669 -32.605798904813106 15.500466631677121 #
face $-1 $371 $407 $14 $-1 $408 reversed single #
loop $-1 $-1 $409 $299 #
plane-surface $-1 0 -32.605798904813106 0 0 1 0 0 0 1 forward_v I I I I #
coedge $-1 $410 $411 $412 $413 forward $300 $-1 #
coedge $-1 $302 $414 $415 $416 forward $245 $-1 #
coedge $-1 $415 $311 $303 $362 forward $313 $-1 #
edge $-1 $417 -65.9852172429039 $364 -59.844745386708148 $361 $418 forward 7 unknown #
edge $-1 $417 -65.211597809626241 $365 -56.675337501249864 $304 $419 forward 7 unknown #
vertex $-1 $362 $420 #
vertex $-1 $307 $421 #
straight-curve $-1 45.206583256814056 42.540981450178137 15.500466631677114 0 -1 0 I I #
straight-curve $-1 14.574525358427493 26.676014302010916 15.500466631677124 -1 0 0 I I #
edge $-1 $309 -1.4830071815315762 $417 30.632057898386563 $311 $422 forward 7 unknown #
point $-1 13.091518176895917 32.605798904813099 9.3599947754813684 #
coedge $-1 $312 $423 $424 $425 reversed $313 $-1 #
face $-1 $426 $313 $14 $-1 $427 reversed single #
coedge $-1 $414 $315 $428 $429 forward $245 $-1 #
coedge $-1 $424 $430 $315 $374 reversed $407 $-1 #
edge $-1 $375 -32.605798904813106 $431 32.605798904813106 $373 $432 forward 7 unknown #
vertex $-1 $316 $433 #
straight-curve $-1 0 32.605798904813106 15.500466631677121 -1 0 0 I I #
face $-1 $434 $435 $15 $-1 $436 reversed single #
loop $-1 $-1 $437 $320 #
plane-surface $-1 0 0 15.500466631677121 0 0 1 1 0 0 forward_v I I I I #
coedge $-1 $438 $439 $437 $440 reversed $321 $-1 #
coedge $-1 $332 $441 $323 $382 reversed $269 $-1 #
edge $-1 $387 56.675337501249864 $442 65.211597809626241 $323 $443 forward 7 unknown #
coedge $-1 $444 $445 $324 $384 forward $446 $-1 #
edge $-1 $388 59.844745386708148 $442 65.9852172429039 $383 $447 forward 7 unknown #
coedge $-1 $448 $325 $445 $449 forward $378 $-1 #
coedge $-1 $325 $437 $332 $393 forward $378 $-1 #
vertex $-1 $393 $450 #
vertex $-1 $449 $451 #
straight-curve $-1 13.091518176895917 42.540981450178137 15.500466631677114 0 1 0 I I #
vertex $-1 $327 $452 #
point $-1 23.767251056872524 26.519921967762293 9.4163309461225797 #
coedge $-1 $441 $332 $439 $453 reversed $269 $-1 #
edge $-1 $454 -30.632057898386563 $387 1.4830071815315762 $386 $455 forward 7 unknown #
vertex $-1 $396 $456 #
straight-curve $-1 -67.962279122287669 -32.605798904813106 0 0 0 -1 I I #
edge $-1 $394 -32.605798904813106 $349 32.605798904813106 $348 $457 forward 7 unknown #
straight-curve $-1 0 -32.605798904813106 -15.500466631677121 -1 0 0 I I #
straight-curve $-1 0 32.605798904813106 -15.500466631677121 1 0 0 I I #
edge $-1 $347 -15.500466631677121 $341 15.500466631677121 $338 $458 forward 7 unknown #
edge $-1 $353 -15.500466631677121 $342 15.500466631677121 $339 $459 forward 7 unknown #
point $-1 67.962279122287669 32.605798904813106 -15.500466631677121 #
point $-1 67.962279122287669 -32.605798904813106 -15.500466631677121 #
straight-curve $-1 67.962279122287669 0 15.500466631677121 0 1 0 I I #
point $-1 67.962279122287669 32.605798904813106 15.500466631677121 #
point $-1 -67.962279122287669 32.605798904813106 -15.500466631677121 #
point $-1 67.962279122287669 -32.605798904813106 15.500466631677121 #
loop $-1 $-1 $424 $356 #
plane-surface $-1 -67.962279122287669 0 0 1 0 0 0 0 -1 forward_v I I I I #
coedge $-1 $460 $428 $430 $461 forward $357 $-1 #
coedge $-1 $462 $359 $460 $463 forward $300 $-1 #
coedge $-1 $359 $462 $423 $464 forward $300 $-1 #
coedge $-1 $465 $466 $359 $413 reversed $467 $-1 #
edge $-1 $468 -32.605798904813106 $469 32.605798904813106 $412 $470 forward 7 unknown #
coedge $-1 $360 $372 $471 $472 forward $245 $-1 #
coedge $-1 $473 $361 $360 $416 reversed $313 $-1 #
edge $-1 $474 -67.962279122287669 $364 -45.206583256814056 $415 $376 forward 7 unknown #
vertex $-1 $368 $475 #
straight-curve $-1 45.206583256814056 32.605798904813106 75.345212018385268 0 0 1 I I #
straight-curve $-1 45.206583256814056 -12.693982808286989 56.269293060895237 0 -0.69465836192734942 0.71933980857756763 I I #
point $-1 45.206583256814056 32.605798904813106 15.500466631677121 #
point $-1 45.206583256814056 26.67601430201092 15.500466631677121 #
straight-curve $-1 14.574525358427493 32.605798904813106 9.3599947754813648 1 0 0 I I #
coedge $-1 $370 $473 $411 $464 reversed $313 $-1 #
coedge $-1 $476 $373 $370 $425 forward $407 $-1 #
edge $-1 $375 -15.500466631677121 $477 15.500466631677121 $370 $478 forward 7 unknown #
face $-1 $-1 $467 $14 $-1 $479 reversed single #
plane-surface $-1 0 32.605798904813106 0 0 -1 0 0 0 -1 forward_v I I I I #
coedge $-1 $409 $480 $372 $429 reversed $357 $-1 #
edge $-1 $431 -67.962279122287669 $481 67.962279122287669 $428 $482 forward 7 unknown #
coedge $-1 $373 $476 $409 $461 reversed $407 $-1 #
vertex $-1 $374 $483 #
straight-curve $-1 -67.962279122287669 0 15.500466631677121 0 -1 0 I I #
point $-1 -67.962279122287669 32.605798904813106 15.500466631677121 #
face $-1 $484 $485 $15 $-1 $486 reversed single #
loop $-1 $-1 $487 $377 #
plane-surface $-1 0 0 -15.500466631677121 0 0 1 1 0 0 forward_v I I I I #
coedge $-1 $386 $488 $380 $440 forward $378 $-1 #
coedge $-1 $439 $380 $489 $490 reversed $321 $-1 #
coedge $-1 $380 $438 $392 $453 forward $321 $-1 #
edge $-1 $491 9.9351825453650306 $454 15.864967148167217 $437 $492 forward 7 unknown #
coedge $-1 $381 $392 $444 $493 reversed $269 $-1 #
vertex $-1 $493 $494 #
straight-curve $-1 13.091518176895917 -12.693982808286989 56.269293060895237 0 0.69465836192734942 -0.71933980857756763 I I #
coedge $-1 $489 $383 $441 $493 forward $446 $-1 #
coedge $-1 $383 $495 $385 $449 reversed $446 $-1 #
loop $-1 $-1 $489 $496 #
straight-curve $-1 13.091518176895917 32.605798904813106 75.345212018385268 0 0 -1 I I #
coedge $-1 $497 $385 $498 $499 forward $378 $-1 #
edge $-1 $388 -13.091518176895917 $500 67.962279122287669 $445 $501 forward 7 unknown #
point $-1 13.091518176895917 26.67601430201092 15.500466631677121 #
point $-1 13.091518176895917 32.605798904813106 15.500466631677121 #
point $-1 22.267251056872524 25.440912254895942 8.3743434032315545 #
edge $-1 $502 -65.211597809626241 $454 -56.675337501249864 $439 $503 forward 7 unknown #
vertex $-1 $393 $504 #
straight-curve $-1 14.574525358427493 26.676014302010916 15.500466631677124 -1 0 0 I I #
point $-1 -67.962279122287669 -32.605798904813106 -15.500466631677121 #
straight-curve $-1 -67.962279122287669 0 -15.500466631677121 0 1 0 I I #
straight-curve $-1 67.962279122287669 32.605798904813106 0 0 0 -1 I I #
straight-curve $-1 67.962279122287669 -32.605798904813106 0 0 0 -1 I I #
coedge $-1 $480 $409 $410 $463 reversed $357 $-1 #
edge $-1 $431 -15.500466631677121 $505 15.500466631677121 $430 $506 forward 7 unknown #
coedge $-1 $411 $410 $476 $507 forward $300 $-1 #
edge $-1 $469 -67.962279122287669 $505 67.962279122287669 $460 $508 forward 7 unknown #
edge $-1 $477 -67.962279122287669 $468 67.962279122287669 $423 $509 forward 7 unknown #
coedge $-1 $471 $412 $473 $510 reversed $467 $-1 #
coedge $-1 $412 $471 $480 $511 forward $467 $-1 #
loop $-1 $-1 $466 $426 #
vertex $-1 $413 $512 #
vertex $-1 $511 $513 #
straight-curve $-1 67.962279122287669 0 -15.500466631677121 0 -1 0 I I #
coedge $-1 $466 $465 $414 $472 reversed $467 $-1 #
edge $-1 $481 -32.605798904813106 $474 32.605798904813106 $471 $514 forward 7 unknown #
coedge $-1 $423 $415 $465 $510 forward $313 $-1 #
vertex $-1 $472 $515 #
point $-1 45.206583256814056 32.605798904813099 9.3599947754813684 #
coedge $-1 $430 $424 $462 $507 reversed $407 $-1 #
vertex $-1 $464 $516 #
straight-curve $-1 -67.962279122287669 32.605798904813106 0 0 0 -1 I I #
plane-surface $-1 67.962279122287669 0 0 -1 0 0 0 0 1 forward_v I I I I #
coedge $-1 $428 $460 $466 $511 reversed $357 $-1 #
vertex $-1 $472 $517 #
straight-curve $-1 0 -32.605798904813106 15.500466631677121 1 0 0 I I #
point $-1 -67.962279122287669 -32.605798904813106 15.500466631677121 #
face $-1 $496 $518 $15 $-1 $519 reversed single #
loop $-1 $-1 $520 $434 #
plane-surface $-1 0 -32.605798904813106 0 0 1 0 0 0 1 forward_v I I I I #
coedge $-1 $521 $522 $523 $524 forward $435 $-1 #
coedge $-1 $437 $525 $526 $527 forward $378 $-1 #
coedge $-1 $526 $444 $438 $490 forward $446 $-1 #
edge $-1 $502 -65.9852172429039 $491 -59.844745386708148 $489 $528 forward 7 unknown #
vertex $-1 $490 $529 #
straight-curve $-1 45.206583256814056 42.540981450178137 15.500466631677114 0 -1 0 I I #
edge $-1 $442 -1.4830071815315762 $502 30.632057898386563 $444 $530 forward 7 unknown #
point $-1 13.091518176895917 32.605798904813099 9.3599947754813684 #
coedge $-1 $445 $531 $532 $533 reversed $446 $-1 #
face $-1 $534 $446 $15 $-1 $535 reversed single #
coedge $-1 $525 $448 $536 $537 forward $378 $-1 #
coedge $-1 $532 $538 $448 $499 reversed $518 $-1 #
edge $-1 $500 -32.605798904813106 $539 32.605798904813106 $498 $540 forward 7 unknown #
vertex $-1 $449 $541 #
straight-curve $-1 0 32.605798904813106 15.500466631677121 -1 0 0 I I #
vertex $-1 $493 $542 #
straight-curve $-1 45.206583256814056 -12.693982808286989 56.269293060895237 0 -0.69465836192734942 0.71933980857756763 I I #
point $-1 45.206583256814056 26.67601430201092 15.500466631677121 #
vertex $-1 $507 $543 #
straight-curve $-1 -67.962279122287669 -32.605798904813106 0 0 0 -1 I I #
edge $-1 $505 -32.605798904813106 $477 32.605798904813106 $476 $544 forward 7 unknown #
straight-curve $-1 0 -32.605798904813106 -15.500466631677121 -1 0 0 I I #
straight-curve $-1 0 32.605798904813106 -15.500466631677121 1 0 0 I I #
edge $-1 $474 -15.500466631677121 $468 15.500466631677121 $465 $545 forward 7 unknown #
edge $-1 $481 -15.500466631677121 $469 15.500466631677121 $466 $546 forward 7 unknown #
point $-1 67.962279122287669 32.605798904813106 -15.500466631677121 #
point $-1 67.962279122287669 -32.605798904813106 -15.500466631677121 #
straight-curve $-1 67.962279122287669 0 15.500466631677121 0 1 0 I I #
point $-1 67.962279122287669 32.605798904813106 15.500466631677121 #
point $-1 -67.962279122287669 32.605798904813106 -15.500466631677121 #
point $-1 67.962279122287669 -32.605798904813106 15.500466631677121 #
loop $-1 $-1 $532 $484 #
plane-surface $-1 -67.962279122287669 0 0 1 0 0 0 0 -1 forward_v I I I I #
coedge $-1 $547 $536 $538 $548 forward $485 $-1 #
coedge $-1 $549 $487 $547 $550 forward $435 $-1 #
coedge $-1 $487 $549 $531 $551 forward $435 $-1 #
coedge $-1 $552 $553 $487 $524 reversed $554 $-1 #
edge $-1 $555 -32.605798904813106 $556 32.605798904813106 $523 $557 forward 7 unknown #
coedge $-1 $488 $497 $558 $559 forward $378 $-1 #
coedge $-1 $560 $489 $488 $527 reversed $446 $-1 #
edge $-1 $561 -67.962279122287669 $491 -45.206583256814056 $526 $501 forward 7 unknown #
straight-curve $-1 45.206583256814056 32.605798904813106 75.345212018385268 0 0 1 I I #
point $-1 45.206583256814056 32.605798904813106 15.500466631677121 #
straight-curve $-1 14.574525358427493 32.605798904813106 9.3599947754813648 1 0 0 I I #
coedge $-1 $495 $560 $522 $551 reversed $446 $-1 #
coedge $-1 $562 $498 $495 $533 forward $518 $-1 #
edge $-1 $500 -15.500466631677121 $563 15.500466631677121 $495 $564 forward 7 unknown #
face $-1 $-1 $554 $15 $-1 $565 reversed single #
plane-surface $-1 0 32.605798904813106 0 0 -1 0 0 0 -1 forward_v I I I I #
coedge $-1 $520 $566 $497 $537 reversed $485 $-1 #
edge $-1 $539 -67.962279122287669 $567 67.962279122287669 $536 $568 forward 7 unknown #
coedge $-1 $498 $562 $520 $548 reversed $518 $-1 #
vertex $-1 $499 $569 #
straight-curve $-1 -67.962279122287669 0 15.500466631677121 0 -1 0 I I #
point $-1 -67.962279122287669 32.605798904813106 15.500466631677121 #
point $-1 45.206583256814056 32.605798904813099 9.3599947754813684 #
point $-1 -67.962279122287669 -32.605798904813106 -15.500466631677121 #
straight-curve $-1 -67.962279122287669 0 -15.500466631677121 0 1 0 I I #
straight-curve $-1 67.962279122287669 32.605798904813106 0 0 0 -1 I I #
straight-curve $-1 67.962279122287669 -32.605798904813106 0 0 0 -1 I I #
coedge $-1 $566 $520 $521 $550 reversed $485 $-1 #
edge $-1 $539 -15.500466631677121 $570 15.500466631677121 $538 $571 forward 7 unknown #
coedge $-1 $522 $521 $562 $572 forward $435 $-1 #
edge $-1 $556 -67.962279122287669 $570 67.962279122287669 $547 $573 forward 7 unknown #
edge $-1 $563 -67.962279122287669 $555 67.962279122287669 $531 $574 forward 7 unknown #
coedge $-1 $558 $523 $560 $575 reversed $554 $-1 #
coedge $-1 $523 $558 $566 $576 forward $554 $-1 #
loop $-1 $-1 $553 $534 #
vertex $-1 $524 $577 #
vertex $-1 $576 $578 #
straight-curve $-1 67.962279122287669 0 -15.500466631677121 0 -1 0 I I #
coedge $-1 $553 $552 $525 $559 reversed $554 $-1 #
edge $-1 $567 -32.605798904813106 $561 32.605798904813106 $558 $579 forward 7 unknown #
coedge $-1 $531 $526 $552 $575 forward $446 $-1 #
vertex $-1 $559 $580 #
coedge $-1 $538 $532 $549 $572 reversed $518 $-1 #
vertex $-1 $551 $581 #
straight-curve $-1 -67.962279122287669 32.605798904813106 0 0 0 -1 I I #
plane-surface $-1 67.962279122287669 0 0 -1 0 0 0 0 1 forward_v I I I I #
coedge $-1 $536 $547 $553 $576 reversed $485 $-1 #
vertex $-1 $559 $582 #
straight-curve $-1 0 -32.605798904813106 15.500466631677121 1 0 0 I I #
point $-1 -67.962279122287669 -32.605798904813106 15.500466631677121 #
vertex $-1 $572 $583 #
straight-curve $-1 -67.962279122287669 -32.605798904813106 0 0 0 -1 I I #
edge $-1 $570 -32.605798904813106 $563 32.605798904813106 $562 $584 forward 7 unknown #
straight-curve $-1 0 -32.605798904813106 -15.500466631677121 -1 0 0 I I #
straight-curve $-1 0 32.605798904813106 -15.500466631677121 1 0 0 I I #
edge $-1 $561 -15.500466631677121 $555 15.500466631677121 $552 $585 forward 7 unknown #
edge $-1 $567 -15.500466631677121 $556 15.500466631677121 $553 $586 forward 7 unknown #
point $-1 67.962279122287669 32.605798904813106 -15.500466631677121 #
point $-1 67.962279122287669 -32.605798904813106 -15.500466631677121 #
straight-curve $-1 67.962279122287669 0 15.500466631677121 0 1 0 I I #
point $-1 67.962279122287669 32.605798904813106 15.500466631677121 #
point $-1 -67.962279122287669 32.605798904813106 -15.500466631677121 #
point $-1 67.962279122287669 -32.605798904813106 15.500466631677121 #
point $-1 -67.962279122287669 -32.605798904813106 -15.500466631677121 #
straight-curve $-1 -67.962279122287669 0 -15.500466631677121 0 1 0 I I #
straight-curve $-1 67.962279122287669 32.605798904813106 0 0 0 -1 I I #
straight-curve $-1 67.962279122287669 -32.605798904813106 0 0 0 -1 I I #
End-of-ACIS-data 