500 0 11 0           
7 Unknown 11 ACIS 5.0 NT 24 Thu Mar 25 23:47:53 1999 
-1 9.9999999999999995e-007 1e-010 
body $-1 $11 $-1 $12 #
body $-1 $13 $-1 $14 #
body $-1 $15 $-1 $16 #
body $-1 $17 $-1 $18 #
body $-1 $19 $-1 $20 #
body $-1 $21 $-1 $22 #
body $-1 $23 $-1 $24 #
body $-1 $25 $-1 $26 #
body $-1 $27 $-1 $28 #
body $-1 $29 $-1 $30 #
body $-1 $31 $-1 $32 #
lump $-1 $-1 $33 $0 #
transform $-1 1 0 0 0 1 0 0 0 1 57.108676412244023 36.240750899175346 11.874163080341397 1 rotate no_reflect no_shear #
lump $-1 $-1 $34 $1 #
transform $-1 1 0 0 0 1 0 0 0 1 57.108676412244023 36.240750899175346 11.874163080341397 1 rotate no_reflect no_shear #
lump $-1 $-1 $35 $2 #
transform $-1 1 0 0 0 1 0 0 0 1 57.108676412244023 36.240750899175346 11.874163080341397 1 rotate no_reflect no_shear #
lump $-1 $-1 $36 $3 #
transform $-1 1 0 0 0 1 0 0 0 1 57.108676412244023 36.240750899175346 11.874163080341397 1 rotate no_reflect no_shear #
lump $-1 $-1 $37 $4 #
transform $-1 1 0 0 0 1 0 0 0 1 57.108676412244023 36.240750899175346 11.874163080341397 1 rotate no_reflect no_shear #
lump $-1 $-1 $38 $5 #
transform $-1 1 0 0 0 1 0 0 0 1 57.108676412244023 36.240750899175346 11.874163080341397 1 rotate no_reflect no_shear #
lump $-1 $-1 $39 $6 #
transform $-1 1 0 0 0 1 0 0 0 1 57.108676412244023 36.240750899175346 11.874163080341397 1 rotate no_reflect no_shear #
lump $-1 $-1 $40 $7 #
transform $-1 1 0 0 0 1 0 0 0 1 57.108676412244023 36.240750899175346 11.874163080341397 1 rotate no_reflect no_shear #
lump $-1 $-1 $41 $8 #
transform $-1 1 0 0 0 1 0 0 0 1 57.108676412244023 36.240750899175346 11.874163080341397 1 rotate no_reflect no_shear #
lump $-1 $-1 $42 $9 #
transform $-1 1 0 0 0 1 0 0 0 1 57.108676412244023 36.240750899175346 11.874163080341397 1 rotate no_reflect no_shear #
lump $-1 $-1 $43 $10 #
transform $-1 1 0 0 0 1 0 0 0 1 57.108676412244023 36.240750899175346 11.874163080341397 1 rotate no_reflect no_shear #
shell $-1 $-1 $-1 $44 $-1 $11 #
shell $-1 $-1 $-1 $45 $-1 $13 #
shell $-1 $-1 $-1 $46 $-1 $15 #
shell $-1 $-1 $-1 $47 $-1 $17 #
shell $-1 $-1 $-1 $48 $-1 $19 #
shell $-1 $-1 $-1 $49 $-1 $21 #
shell $-1 $-1 $-1 $50 $-1 $23 #
shell $-1 $-1 $-1 $51 $-1 $25 #
shell $-1 $-1 $-1 $52 $-1 $27 #
shell $-1 $-1 $-1 $53 $-1 $29 #
shell $-1 $-1 $-1 $54 $-1 $31 #
face $-1 $55 $56 $33 $-1 $57 forward single #
face $-1 $58 $59 $34 $-1 $60 reversed single #
face $-1 $61 $62 $35 $-1 $63 reversed single #
face $-1 $64 $65 $36 $-1 $66 forward single #
face $-1 $67 $68 $37 $-1 $69 forward single #
face $-1 $70 $71 $38 $-1 $72 reversed single #
face $-1 $73 $74 $39 $-1 $75 forward single #
face $-1 $76 $77 $40 $-1 $78 forward single #
face $-1 $79 $80 $41 $-1 $81 reversed single #
face $-1 $82 $83 $42 $-1 $84 forward single #
face $-1 $85 $86 $43 $-1 $87 forward single #
face $-1 $88 $89 $33 $-1 $90 reversed single #
loop $-1 $-1 $91 $44 #
plane-surface $-1 0 0 11.874163080341397 0 0 1 1 0 0 forward_v I I I I #
face $-1 $92 $93 $34 $-1 $94 reversed single #
loop $-1 $-1 $95 $45 #
plane-surface $-1 -51.376561618491117 -32.915753312354319 0 0 -1 0 0 0 -1 forward_v I I I I #
face $-1 $96 $97 $35 $-1 $98 reversed single #
loop $-1 $-1 $99 $46 #
plane-surface $-1 -24.748328599061562 88.228449226753781 130.51216676601754 1 0 0 0 -0.81915205242281985 -0.57357642473473569 forward_v I I I I #
face $-1 $100 $101 $36 $-1 $102 forward single #
loop $-1 $103 $104 $47 #
cone-surface $-1 -17.905273158344308 33.272756407707973 8.2036829429287614 0 -0.81915205242281985 -0.57357642473473569 1.5 0 0 1 I I 0 1 1.5 forward I I I I #
face $-1 $105 $106 $37 $-1 $107 forward single #
loop $-1 $108 $109 $48 #
cone-surface $-1 -7.6406899972684386 33.272756407707973 8.2036829429287614 0 -0.81915205242281985 -0.57357642473473569 1.5 0 0 1 I I 0 1 1.5 forward I I I I #
face $-1 $110 $111 $38 $-1 $112 reversed single #
loop $-1 $-1 $113 $49 #
plane-surface $-1 26.628233019429548 88.228449226753781 130.51216676601754 1 0 0 0 -0.81915205242281985 -0.57357642473473569 forward_v I I I I #
face $-1 $114 $115 $39 $-1 $116 forward single #
loop $-1 $117 $118 $50 #
cone-surface $-1 33.471288460146809 33.272756407707973 8.2036829429287614 0 -0.81915205242281985 -0.57357642473473569 1.5 0 0 1 I I 0 1 1.5 forward I I I I #
face $-1 $119 $120 $40 $-1 $121 forward single #
loop $-1 $122 $123 $51 #
cone-surface $-1 43.735871621222685 33.272756407707973 8.2036829429287614 0 -0.81915205242281985 -0.57357642473473569 1.5 0 0 1 I I 0 1 1.5 forward I I I I #
face $-1 $124 $125 $41 $-1 $126 reversed single #
loop $-1 $-1 $127 $52 #
plane-surface $-1 22.358855114591655 -111.17407739832362 89.786398071939772 -1 0 0 0 -0.6560590369687036 0.75470957328743171 forward_v I I I I #
face $-1 $128 $129 $42 $-1 $130 forward single #
loop $-1 $131 $132 $53 #
cone-surface $-1 9.9602885460129187 -29.981715100524827 6.0140301846984006 0 0.6560590369687036 -0.75470957328743171 1.5 0 0 1 I I 0 1 1.5 forward I I I I #
face $-1 $133 $134 $43 $-1 $135 forward single #
loop $-1 $136 $137 $54 #
cone-surface $-1 17.399428487160165 -29.981715100524827 6.0140301846984006 0 0.6560590369687036 -0.75470957328743171 1.5 0 0 1 I I 0 1 1.5 forward I I I I #
face $-1 $138 $139 $33 $-1 $140 reversed single #
loop $-1 $-1 $141 $55 #
plane-surface $-1 0 0 -11.874163080341397 0 0 1 1 0 0 forward_v I I I I #
coedge $-1 $142 $143 $144 $145 forward $56 $-1 #
face $-1 $146 $147 $34 $-1 $148 forward single #
loop $-1 $-1 $149 $58 #
plane-surface $-1 -45.64444682473821 -34.578252105764832 0 -1 0 0 0 0 1 forward_v I I I I #
coedge $-1 $150 $151 $152 $153 forward $59 $-1 #
face $-1 $154 $155 $35 $-1 $156 reversed single #
loop $-1 $-1 $157 $61 #
plane-surface $-1 -12.772981577806377 -5.3329297617269589 64.999785890281828 0 0.81915205242281985 0.57357642473473569 1 0 0 forward_v I I I I #
coedge $-1 $158 $159 $160 $161 reversed $62 $-1 #
face $-1 $-1 $162 $36 $-1 $163 forward single #
loop $-1 $164 $165 $64 #
cone-surface $-1 -17.905273158344308 31.877757986940985 7.2268945623984919 0 -0.81915205242281985 -0.57357642473473569 0.75 0 0 1 I I -0.70710678118654757 0.70710678118654757 0.75 forward I I I I #
loop $-1 $-1 $166 $47 #
coedge $-1 $104 $104 $167 $168 reversed $65 $-1 #
face $-1 $-1 $169 $37 $-1 $170 forward single #
loop $-1 $171 $172 $67 #
cone-surface $-1 -7.6406899972684386 31.877757986940985 7.2268945623984919 0 -0.81915205242281985 -0.57357642473473569 0.75 0 0 1 I I -0.70710678118654757 0.70710678118654757 0.75 forward I I I I #
loop $-1 $-1 $173 $48 #
coedge $-1 $109 $109 $174 $175 reversed $68 $-1 #
face $-1 $176 $177 $38 $-1 $178 reversed single #
loop $-1 $-1 $179 $70 #
plane-surface $-1 38.603580040684733 -5.3329297617269589 64.999785890281828 0 0.81915205242281985 0.57357642473473569 1 0 0 forward_v I I I I #
coedge $-1 $180 $181 $182 $183 reversed $71 $-1 #
face $-1 $-1 $184 $39 $-1 $185 forward single #
loop $-1 $186 $187 $73 #
cone-surface $-1 33.471288460146809 31.877757986940985 7.2268945623984919 0 -0.81915205242281985 -0.57357642473473569 0.75 0 0 1 I I -0.70710678118654757 0.70710678118654757 0.75 forward I I I I #
loop $-1 $-1 $188 $50 #
coedge $-1 $118 $118 $189 $190 reversed $74 $-1 #
face $-1 $-1 $191 $40 $-1 $192 forward single #
loop $-1 $193 $194 $76 #
cone-surface $-1 43.735871621222685 31.877757986940985 7.2268945623984919 0 -0.81915205242281985 -0.57357642473473569 0.75 0 0 1 I I -0.70710678118654757 0.70710678118654757 0.75 forward I I I I #
loop $-1 $-1 $195 $51 #
coedge $-1 $123 $123 $196 $197 reversed $77 $-1 #
face $-1 $198 $199 $41 $-1 $200 reversed single #
loop $-1 $-1 $201 $79 #
plane-surface $-1 13.679858516586535 -36.240750899175353 3.5854684597503592 0 -0.6560590369687036 0.75470957328743171 1 0 0 forward_v I I I I #
coedge $-1 $202 $203 $204 $205 reversed $80 $-1 #
face $-1 $-1 $206 $42 $-1 $207 forward single #
loop $-1 $208 $209 $82 #
cone-surface $-1 9.9602885460129187 -27.998161136675453 3.7322124193853554 0 0.6560590369687036 -0.75470957328743171 0.75 0 0 1 I I -0.70710678118654757 0.70710678118654757 0.75 forward I I I I #
loop $-1 $-1 $210 $53 #
coedge $-1 $132 $132 $211 $212 reversed $83 $-1 #
face $-1 $-1 $213 $43 $-1 $214 forward single #
loop $-1 $215 $216 $85 #
cone-surface $-1 17.399428487160165 -27.998161136675453 3.7322124193853554 0 0.6560590369687036 -0.75470957328743171 0.75 0 0 1 I I -0.70710678118654757 0.70710678118654757 0.75 forward I I I I #
loop $-1 $-1 $217 $54 #
coedge $-1 $137 $137 $218 $219 reversed $86 $-1 #
face $-1 $220 $221 $33 $-1 $222 reversed single #
loop $-1 $-1 $223 $88 #
plane-surface $-1 0 -36.240750899175346 0 0 1 0 0 0 1 forward_v I I I I #
coedge $-1 $224 $225 $226 $227 forward $89 $-1 #
coedge $-1 $228 $91 $229 $230 forward $56 $-1 #
coedge $-1 $91 $228 $231 $232 forward $56 $-1 #
coedge $-1 $233 $234 $91 $145 reversed $235 $-1 #
edge $-1 $236 -36.240750899175346 $237 36.240750899175346 $144 $238 forward 7 unknown #
face $-1 $239 $240 $34 $-1 $241 reversed single #
loop $-1 $-1 $242 $92 #
plane-surface $-1 0 0 11.874163080341397 0 0 1 1 0 0 forward_v I I I I #
coedge $-1 $243 $244 $245 $246 reversed $93 $-1 #
coedge $-1 $247 $95 $248 $249 reversed $59 $-1 #
coedge $-1 $95 $247 $250 $251 reversed $59 $-1 #
coedge $-1 $244 $243 $95 $153 reversed $93 $-1 #
edge $-1 $252 -11.874163080341397 $253 11.874163080341397 $152 $254 forward 7 unknown #
face $-1 $255 $256 $35 $-1 $257 reversed single #
loop $-1 $-1 $258 $96 #
plane-surface $-1 -0.79763455655119131 88.228449226753781 130.51216676601754 -1 0 0 0 0.81915205242281985 0.57357642473473569 forward_v I I I I #
coedge $-1 $259 $260 $261 $262 reversed $97 $-1 #
coedge $-1 $159 $99 $263 $264 reversed $62 $-1 #
coedge $-1 $99 $158 $259 $265 reversed $62 $-1 #
coedge $-1 $261 $266 $99 $161 forward $267 $-1 #
edge $-1 $268 7.8734737142015447 $269 12.248193934236525 $160 $270 forward 7 unknown #
loop $-1 $-1 $167 $100 #
plane-surface $-1 -12.772981577806377 -5.3329297617269589 64.999785890281828 0 0.81915205242281985 0.57357642473473569 1 0 0 forward_v I I I I #
loop $-1 $-1 $271 $64 #
coedge $-1 $165 $165 $166 $272 reversed $101 $-1 #
coedge $-1 $166 $166 $165 $272 forward $103 $-1 #
coedge $-1 $167 $167 $104 $168 forward $162 $-1 #
edge $-1 $273 9.7007090055335263e-016 $273 6.2831853071796013 $167 $274 forward 7 unknown #
loop $-1 $-1 $174 $105 #
plane-surface $-1 -12.772981577806377 -5.3329297617269589 64.999785890281828 0 0.81915205242281985 0.57357642473473569 1 0 0 forward_v I I I I #
loop $-1 $-1 $275 $67 #
coedge $-1 $172 $172 $173 $276 reversed $106 $-1 #
coedge $-1 $173 $173 $172 $276 forward $108 $-1 #
coedge $-1 $174 $174 $109 $175 forward $169 $-1 #
edge $-1 $277 9.7007090055335263e-016 $277 6.2831853071796013 $174 $278 forward 7 unknown #
face $-1 $279 $280 $38 $-1 $281 forward single #
loop $-1 $-1 $282 $110 #
plane-surface $-1 50.578927061939922 88.228449226753781 130.51216676601754 -1 0 0 0 0.81915205242281985 0.57357642473473569 forward_v I I I I #
coedge $-1 $283 $284 $285 $286 reversed $111 $-1 #
coedge $-1 $181 $113 $287 $288 reversed $71 $-1 #
coedge $-1 $113 $180 $283 $289 reversed $71 $-1 #
coedge $-1 $285 $290 $113 $183 forward $280 $-1 #
edge $-1 $291 7.8734737142015447 $292 12.248193934236525 $182 $293 forward 7 unknown #
loop $-1 $-1 $189 $114 #
plane-surface $-1 38.603580040684733 -5.3329297617269589 64.999785890281828 0 0.81915205242281985 0.57357642473473569 1 0 0 forward_v I I I I #
loop $-1 $-1 $294 $73 #
coedge $-1 $187 $187 $188 $295 reversed $115 $-1 #
coedge $-1 $188 $188 $187 $295 forward $117 $-1 #
coedge $-1 $189 $189 $118 $190 forward $184 $-1 #
edge $-1 $296 9.7007090055335263e-016 $296 6.2831853071796013 $189 $297 forward 7 unknown #
loop $-1 $-1 $196 $119 #
plane-surface $-1 38.603580040684733 -5.3329297617269589 64.999785890281828 0 0.81915205242281985 0.57357642473473569 1 0 0 forward_v I I I I #
loop $-1 $-1 $298 $76 #
coedge $-1 $194 $194 $195 $299 reversed $120 $-1 #
coedge $-1 $195 $195 $194 $299 forward $122 $-1 #
coedge $-1 $196 $196 $123 $197 forward $191 $-1 #
edge $-1 $300 9.7007090055335263e-016 $300 6.2831853071796013 $196 $301 forward 7 unknown #
face $-1 $302 $303 $41 $-1 $304 forward single #
loop $-1 $-1 $305 $124 #
plane-surface $-1 5.000861918581414 -111.17407739832362 89.786398071939772 1 0 0 0 0.6560590369687036 -0.75470957328743171 forward_v I I I I #
coedge $-1 $306 $307 $308 $309 reversed $125 $-1 #
coedge $-1 $203 $127 $310 $311 reversed $80 $-1 #
coedge $-1 $127 $202 $306 $312 reversed $80 $-1 #
coedge $-1 $308 $313 $127 $205 forward $303 $-1 #
edge $-1 $314 19.346287799986463 $315 28.881340025041784 $204 $316 forward 7 unknown #
loop $-1 $-1 $211 $128 #
plane-surface $-1 13.679858516586535 -36.240750899175353 3.5854684597503592 0 -0.6560590369687036 0.75470957328743171 1 0 0 forward_v I I I I #
loop $-1 $-1 $317 $82 #
coedge $-1 $209 $209 $210 $318 reversed $129 $-1 #
coedge $-1 $210 $210 $209 $318 forward $131 $-1 #
coedge $-1 $211 $211 $132 $212 forward $206 $-1 #
edge $-1 $319 -6.9809214430229678e-016 $319 6.2831853071795996 $211 $320 forward 7 unknown #
loop $-1 $-1 $218 $133 #
plane-surface $-1 13.679858516586535 -36.240750899175353 3.5854684597503592 0 -0.6560590369687036 0.75470957328743171 1 0 0 forward_v I I I I #
loop $-1 $-1 $321 $85 #
coedge $-1 $216 $216 $217 $322 reversed $134 $-1 #
coedge $-1 $217 $217 $216 $322 forward $136 $-1 #
coedge $-1 $218 $218 $137 $219 forward $213 $-1 #
edge $-1 $323 -6.9809214430229678e-016 $323 6.2831853071795996 $218 $324 forward 7 unknown #
face $-1 $325 $326 $33 $-1 $327 reversed single #
loop $-1 $-1 $328 $138 #
plane-surface $-1 -57.108676412244023 0 0 1 0 0 0 0 -1 forward_v I I I I #
coedge $-1 $329 $231 $330 $331 forward $139 $-1 #
coedge $-1 $332 $141 $329 $333 forward $89 $-1 #
coedge $-1 $141 $332 $334 $335 forward $89 $-1 #
coedge $-1 $234 $233 $141 $227 reversed $235 $-1 #
edge $-1 $336 -36.240750899175346 $337 36.240750899175346 $226 $338 forward 7 unknown #
coedge $-1 $143 $142 $339 $340 forward $56 $-1 #
coedge $-1 $341 $342 $142 $230 reversed $326 $-1 #
edge $-1 $237 -57.108676412244023 $343 57.108676412244023 $229 $344 forward 7 unknown #
coedge $-1 $223 $345 $143 $232 reversed $139 $-1 #
edge $-1 $346 -57.108676412244023 $236 57.108676412244023 $231 $347 forward 7 unknown #
coedge $-1 $226 $144 $345 $348 forward $235 $-1 #
coedge $-1 $144 $226 $341 $349 reversed $235 $-1 #
loop $-1 $-1 $233 $325 #
vertex $-1 $145 $350 #
vertex $-1 $145 $351 #
straight-curve $-1 57.108676412244023 0 11.874163080341397 0 1 0 I I #
face $-1 $352 $353 $34 $-1 $354 reversed single #
loop $-1 $-1 $355 $146 #
plane-surface $-1 -57.108676412244023 0 0 1 0 0 0 0 -1 forward_v I I I I #
coedge $-1 $250 $356 $244 $357 forward $147 $-1 #
coedge $-1 $152 $149 $358 $359 reversed $93 $-1 #
coedge $-1 $149 $152 $242 $357 reversed $93 $-1 #
coedge $-1 $360 $361 $149 $246 forward $362 $-1 #
edge $-1 $363 -11.874163080341397 $364 11.874163080341397 $245 $365 forward 7 unknown #
coedge $-1 $151 $150 $355 $366 reversed $59 $-1 #
coedge $-1 $358 $367 $150 $249 forward $353 $-1 #
edge $-1 $368 -31.420395602998465 $253 -19.956166015492652 $248 $369 forward 7 unknown #
coedge $-1 $370 $242 $151 $251 forward $147 $-1 #
edge $-1 $252 19.956166015492652 $371 31.420395602998465 $250 $372 forward 7 unknown #
vertex $-1 $251 $373 #
vertex $-1 $249 $374 #
straight-curve $-1 -45.64444682473821 -32.915753312354319 0 0 0 -1 I I #
face $-1 $-1 $267 $35 $-1 $375 forward single #
loop $-1 $-1 $376 $154 #
plane-surface $-1 0 36.240750899175346 0 0 -1 0 0 0 -1 forward_v I I I I #
coedge $-1 $377 $378 $379 $380 reversed $155 $-1 #
coedge $-1 $381 $157 $159 $265 forward $97 $-1 #
coedge $-1 $157 $381 $377 $382 forward $97 $-1 #
coedge $-1 $379 $160 $157 $262 forward $267 $-1 #
edge $-1 $269 -18.361837810158374 $383 5.588856232351997 $261 $384 forward 7 unknown #
coedge $-1 $385 $386 $158 $264 forward $256 $-1 #
edge $-1 $387 -59.629668453534222 $268 -53.381920302667375 $263 $388 forward 7 unknown #
edge $-1 $269 64.854409694524833 $387 72.481501798350706 $159 $389 forward 7 unknown #
coedge $-1 $160 $379 $385 $390 forward $267 $-1 #
loop $-1 $-1 $379 $255 #
vertex $-1 $264 $391 #
vertex $-1 $161 $392 #
straight-curve $-1 -24.748328599061562 44.114224613376891 11.874163080341397 0 -1 0 I I #
coedge $-1 $271 $271 $-1 $393 reversed $164 $-1 #
edge $-1 $394 0 $394 6.2831853071796004 $165 $395 forward 7 unknown #
vertex $-1 $168 $396 #
ellipse-curve $-1 -17.905273158344308 34.053390789157852 8.7502890049079802 0 0.81915205242281985 0.57357642473473569 1.5 0 0 1 I I #
coedge $-1 $275 $275 $-1 $397 reversed $171 $-1 #
edge $-1 $398 0 $398 6.2831853071796004 $172 $399 forward 7 unknown #
vertex $-1 $175 $400 #
ellipse-curve $-1 -7.6406899972684386 34.053390789157852 8.7502890049079802 0 0.81915205242281985 0.57357642473473569 1.5 0 0 1 I I #
face $-1 $-1 $401 $38 $-1 $402 reversed single #
loop $-1 $-1 $182 $176 #
plane-surface $-1 0 0 11.874163080341397 0 0 1 1 0 0 forward_v I I I I #
coedge $-1 $403 $404 $405 $406 reversed $177 $-1 #
coedge $-1 $407 $179 $181 $289 forward $111 $-1 #
coedge $-1 $179 $407 $403 $408 forward $111 $-1 #
coedge $-1 $405 $182 $179 $286 forward $280 $-1 #
edge $-1 $292 7.3264429990871811 $409 31.277137041597555 $285 $410 forward 7 unknown #
coedge $-1 $411 $412 $180 $288 forward $401 $-1 #
edge $-1 $413 -59.629668453534222 $291 -53.381920302667375 $287 $414 forward 7 unknown #
edge $-1 $292 64.854409694524833 $413 72.481501798350706 $181 $415 forward 7 unknown #
coedge $-1 $182 $405 $411 $416 forward $280 $-1 #
vertex $-1 $288 $417 #
vertex $-1 $183 $418 #
straight-curve $-1 26.628233019429548 44.114224613376891 11.874163080341397 0 -1 0 I I #
coedge $-1 $294 $294 $-1 $419 reversed $186 $-1 #
edge $-1 $420 0 $420 6.2831853071796004 $187 $421 forward 7 unknown #
vertex $-1 $190 $422 #
ellipse-curve $-1 33.471288460146809 34.053390789157852 8.7502890049079802 0 0.81915205242281985 0.57357642473473569 1.5 0 0 1 I I #
coedge $-1 $298 $298 $-1 $423 reversed $193 $-1 #
edge $-1 $424 0 $424 6.2831853071796004 $194 $425 forward 7 unknown #
vertex $-1 $197 $426 #
ellipse-curve $-1 43.735871621222685 34.053390789157852 8.7502890049079802 0 0.81915205242281985 0.57357642473473569 1.5 0 0 1 I I #
face $-1 $-1 $427 $41 $-1 $428 reversed single #
loop $-1 $-1 $204 $198 #
plane-surface $-1 0 0 11.874163080341397 0 0 1 1 0 0 forward_v I I I I #
coedge $-1 $429 $430 $431 $432 reversed $199 $-1 #
coedge $-1 $433 $201 $203 $312 forward $125 $-1 #
coedge $-1 $201 $433 $429 $434 forward $125 $-1 #
coedge $-1 $431 $204 $201 $309 forward $303 $-1 #
edge $-1 $315 -15.518925856298388 $435 1.8390673397118533 $308 $436 forward 7 unknown #
coedge $-1 $437 $438 $202 $311 forward $427 $-1 #
edge $-1 $439 -41.307730576219519 $314 -33.019035955628489 $310 $440 forward 7 unknown #
edge $-1 $315 -12.634068206557513 $439 -9.44141639987384e-015 $203 $441 forward 7 unknown #
coedge $-1 $204 $431 $437 $442 forward $303 $-1 #
vertex $-1 $205 $443 #
vertex $-1 $205 $444 #
straight-curve $-1 22.358855114591655 -55.587038699161809 11.874163080341397 0 1 0 I I #
coedge $-1 $317 $317 $-1 $445 reversed $208 $-1 #
edge $-1 $446 0 $446 6.2831853071796004 $209 $447 forward 7 unknown #
vertex $-1 $212 $448 #
ellipse-curve $-1 9.9602885460129187 -31.473224786647684 7.7298157700458825 0 -0.6560590369687036 0.75470957328743171 1.5 0 0 1 I I #
coedge $-1 $321 $321 $-1 $449 reversed $215 $-1 #
edge $-1 $450 0 $450 6.2831853071796004 $216 $451 forward 7 unknown #
vertex $-1 $219 $452 #
ellipse-curve $-1 17.399428487160165 -31.473224786647684 7.7298157700458825 0 -0.6560590369687036 0.75470957328743171 1.5 0 0 1 I I #
face $-1 $-1 $235 $33 $-1 $453 reversed single #
loop $-1 $-1 $341 $220 #
plane-surface $-1 0 36.240750899175346 0 0 -1 0 0 0 -1 forward_v I I I I #
coedge $-1 $454 $339 $342 $455 forward $221 $-1 #
coedge $-1 $345 $223 $224 $333 reversed $139 $-1 #
coedge $-1 $339 $454 $223 $331 reversed $221 $-1 #
edge $-1 $346 -11.874163080341397 $456 11.874163080341397 $330 $457 forward 7 unknown #
coedge $-1 $225 $224 $454 $458 forward $89 $-1 #
edge $-1 $337 -57.108676412244023 $456 57.108676412244023 $329 $459 forward 7 unknown #
coedge $-1 $342 $341 $225 $335 reversed $326 $-1 #
edge $-1 $460 -57.108676412244023 $336 57.108676412244023 $334 $461 forward 7 unknown #
vertex $-1 $227 $462 #
vertex $-1 $348 $463 #
straight-curve $-1 57.108676412244023 0 -11.874163080341397 0 -1 0 I I #
coedge $-1 $328 $330 $228 $340 reversed $221 $-1 #
edge $-1 $343 -36.240750899175346 $346 36.240750899175346 $339 $464 forward 7 unknown #
coedge $-1 $334 $229 $234 $349 forward $326 $-1 #
coedge $-1 $229 $334 $328 $455 reversed $326 $-1 #
vertex $-1 $230 $465 #
straight-curve $-1 0 36.240750899175346 11.874163080341397 -1 0 0 I I #
coedge $-1 $231 $329 $233 $348 reversed $139 $-1 #
vertex $-1 $340 $466 #
straight-curve $-1 0 -36.240750899175346 11.874163080341397 1 0 0 I I #
edge $-1 $236 -11.874163080341397 $337 11.874163080341397 $233 $467 forward 7 unknown #
edge $-1 $237 -11.874163080341397 $336 11.874163080341397 $234 $468 forward 7 unknown #
point $-1 57.108676412244023 -36.240750899175346 11.874163080341397 #
point $-1 57.108676412244023 36.240750899175346 11.874163080341397 #
face $-1 $-1 $362 $34 $-1 $469 reversed single #
loop $-1 $-1 $358 $239 #
plane-surface $-1 0 0 -11.874163080341397 0 0 1 1 0 0 forward_v I I I I #
coedge $-1 $470 $471 $247 $366 forward $240 $-1 #
coedge $-1 $242 $370 $360 $472 forward $147 $-1 #
edge $-1 $364 -18.95162484629293 $252 -15.626627259471903 $242 $473 forward 7 unknown #
coedge $-1 $474 $248 $243 $359 forward $353 $-1 #
edge $-1 $253 15.626627259471903 $363 18.95162484629293 $358 $475 forward 7 unknown #
coedge $-1 $476 $245 $356 $472 reversed $362 $-1 #
coedge $-1 $245 $476 $474 $477 reversed $362 $-1 #
loop $-1 $-1 $245 $352 #
vertex $-1 $477 $478 #
vertex $-1 $246 $479 #
straight-curve $-1 -45.64444682473821 -36.240750899175346 0 0 0 1 I I #
edge $-1 $371 -11.874163080341397 $368 11.874163080341397 $355 $480 forward 7 unknown #
coedge $-1 $248 $474 $470 $481 forward $353 $-1 #
vertex $-1 $249 $482 #
straight-curve $-1 -25.688280809245558 -32.915753312354319 -11.874163080341397 1 0 0 I I #
coedge $-1 $356 $250 $471 $483 forward $147 $-1 #
vertex $-1 $483 $484 #
straight-curve $-1 -25.688280809245558 -32.915753312354319 11.874163080341397 -1 0 0 I I #
point $-1 -45.64444682473821 -32.915753312354319 11.874163080341397 #
point $-1 -45.64444682473821 -32.915753312354319 -11.874163080341397 #
plane-surface $-1 0 0 11.874163080341397 0 0 1 1 0 0 forward_v I I I I #
coedge $-1 $386 $385 $378 $485 forward $256 $-1 #
coedge $-1 $378 $258 $260 $382 reversed $155 $-1 #
coedge $-1 $258 $377 $376 $485 reversed $155 $-1 #
coedge $-1 $266 $261 $258 $380 forward $267 $-1 #
edge $-1 $383 -12.248193934236525 $486 -7.8734737142015447 $379 $487 forward 7 unknown #
coedge $-1 $260 $259 $386 $488 reversed $97 $-1 #
edge $-1 $489 -72.481501798350706 $383 -64.854409694524833 $377 $490 forward 7 unknown #
vertex $-1 $262 $491 #
straight-curve $-1 -6.3864907889031883 31.866030679140369 11.874163080341397 1 0 0 I I #
coedge $-1 $376 $263 $266 $390 reversed $256 $-1 #
coedge $-1 $263 $376 $381 $488 forward $256 $-1 #
vertex $-1 $264 $492 #
straight-curve $-1 -24.748328599061562 36.240750899175346 65.256083383008772 0 0 1 I I #
straight-curve $-1 -24.748328599061562 -5.3329297617269589 64.999785890281828 0 0.57357642473473569 -0.81915205242281985 I I #
edge $-1 $486 0.79763455655119131 $268 24.748328599061562 $385 $493 forward 7 unknown #
point $-1 -24.748328599061562 36.240750899175346 11.874163080341397 #
point $-1 -24.748328599061562 31.866030679140366 11.874163080341397 #
edge $-1 $494 1 $494 0 $271 $-1 forward 7 unknown #
vertex $-1 $272 $495 #
ellipse-curve $-1 -17.905273158344308 32.492122026258102 7.6570768809495435 0 0.81915205242281985 0.57357642473473569 1.5 0 0 1 I I #
point $-1 -16.405273158344308 34.053390789157852 8.7502890049079785 #
edge $-1 $496 1 $496 0 $275 $-1 forward 7 unknown #
vertex $-1 $276 $497 #
ellipse-curve $-1 -7.6406899972684386 32.492122026258102 7.6570768809495435 0 0.81915205242281985 0.57357642473473569 1.5 0 0 1 I I #
point $-1 -6.1406899972684386 34.053390789157852 8.7502890049079785 #
loop $-1 $-1 $287 $279 #
plane-surface $-1 0 36.240750899175346 0 0 -1 0 0 0 -1 forward_v I I I I #
coedge $-1 $404 $282 $284 $408 reversed $177 $-1 #
coedge $-1 $282 $403 $498 $499 reversed $177 $-1 #
coedge $-1 $290 $285 $282 $406 forward $280 $-1 #
edge $-1 $409 -12.248193934236525 $500 -7.8734737142015447 $405 $501 forward 7 unknown #
coedge $-1 $284 $283 $412 $502 reversed $111 $-1 #
edge $-1 $503 -72.481501798350706 $409 -64.854409694524833 $403 $504 forward 7 unknown #
vertex $-1 $286 $505 #
straight-curve $-1 19.301790020342366 31.866030679140369 11.874163080341397 1 0 0 I I #
coedge $-1 $498 $287 $290 $416 reversed $401 $-1 #
coedge $-1 $287 $498 $407 $502 forward $401 $-1 #
vertex $-1 $288 $506 #
straight-curve $-1 26.628233019429548 36.240750899175346 65.256083383008772 0 0 1 I I #
straight-curve $-1 26.628233019429548 -5.3329297617269589 64.999785890281828 0 0.57357642473473569 -0.81915205242281985 I I #
edge $-1 $500 -50.578927061939922 $291 -26.628233019429548 $411 $507 forward 7 unknown #
point $-1 26.628233019429548 36.240750899175346 11.874163080341397 #
point $-1 26.628233019429548 31.866030679140366 11.874163080341397 #
edge $-1 $508 1 $508 0 $294 $-1 forward 7 unknown #
vertex $-1 $295 $509 #
ellipse-curve $-1 33.471288460146809 32.492122026258102 7.6570768809495435 0 0.81915205242281985 0.57357642473473569 1.5 0 0 1 I I #
point $-1 34.971288460146809 34.053390789157852 8.7502890049079785 #
edge $-1 $510 1 $510 0 $298 $-1 forward 7 unknown #
vertex $-1 $299 $511 #
ellipse-curve $-1 43.735871621222685 32.492122026258102 7.6570768809495435 0 0.81915205242281985 0.57357642473473569 1.5 0 0 1 I I #
point $-1 45.235871621222685 34.053390789157852 8.7502890049079785 #
loop $-1 $-1 $310 $302 #
plane-surface $-1 0 -36.240750899175346 0 0 1 0 0 0 1 forward_v I I I I #
coedge $-1 $430 $305 $307 $434 reversed $199 $-1 #
coedge $-1 $305 $429 $512 $513 reversed $199 $-1 #
coedge $-1 $313 $308 $305 $432 forward $303 $-1 #
edge $-1 $435 -28.881340025041784 $514 -19.346287799986463 $431 $515 forward 7 unknown #
coedge $-1 $307 $306 $438 $516 reversed $125 $-1 #
edge $-1 $517 9.44141639987384e-015 $435 12.634068206557513 $429 $518 forward 7 unknown #
vertex $-1 $309 $519 #
straight-curve $-1 6.8399292582932674 -26.705698674120026 11.874163080341397 -1 0 0 I I #
coedge $-1 $512 $310 $313 $442 reversed $427 $-1 #
coedge $-1 $310 $512 $433 $516 forward $427 $-1 #
vertex $-1 $311 $520 #
straight-curve $-1 22.358855114591655 -36.240750899175346 44.893199035969886 0 0 1 I I #
straight-curve $-1 22.358855114591655 -36.240750899175353 3.5854684597503592 0 -0.75470957328743171 -0.6560590369687036 I I #
edge $-1 $514 5.000861918581414 $314 22.358855114591655 $437 $521 forward 7 unknown #
point $-1 22.358855114591655 -36.240750899175346 11.874163080341397 #
point $-1 22.358855114591655 -26.705698674120026 11.874163080341397 #
edge $-1 $522 1 $522 0 $317 $-1 forward 7 unknown #
vertex $-1 $318 $523 #
ellipse-curve $-1 9.9602885460129187 -28.490205414401981 4.2982445993509293 0 -0.6560590369687036 0.75470957328743171 1.5 0 0 1 I I #
point $-1 11.460288546012919 -31.473224786647677 7.7298157700458727 #
edge $-1 $524 1 $524 0 $321 $-1 forward 7 unknown #
vertex $-1 $322 $525 #
ellipse-curve $-1 17.399428487160165 -28.490205414401981 4.2982445993509293 0 -0.6560590369687036 0.75470957328743171 1.5 0 0 1 I I #
point $-1 18.899428487160165 -31.473224786647677 7.7298157700458727 #
plane-surface $-1 57.108676412244023 0 0 -1 0 0 0 0 1 forward_v I I I I #
coedge $-1 $330 $328 $332 $458 reversed $221 $-1 #
edge $-1 $343 -11.874163080341397 $460 11.874163080341397 $342 $526 forward 7 unknown #
vertex $-1 $458 $527 #
straight-curve $-1 -57.108676412244023 -36.240750899175346 0 0 0 -1 I I #
edge $-1 $456 -36.240750899175346 $460 36.240750899175346 $454 $528 forward 7 unknown #
straight-curve $-1 0 -36.240750899175346 -11.874163080341397 -1 0 0 I I #
vertex $-1 $335 $529 #
straight-curve $-1 0 36.240750899175346 -11.874163080341397 1 0 0 I I #
point $-1 57.108676412244023 36.240750899175346 -11.874163080341397 #
point $-1 57.108676412244023 -36.240750899175346 -11.874163080341397 #
straight-curve $-1 -57.108676412244023 0 11.874163080341397 0 -1 0 I I #
point $-1 -57.108676412244023 36.240750899175346 11.874163080341397 #
point $-1 -57.108676412244023 -36.240750899175346 11.874163080341397 #
straight-curve $-1 57.108676412244023 -36.240750899175346 0 0 0 -1 I I #
straight-curve $-1 57.108676412244023 36.240750899175346 0 0 0 -1 I I #
plane-surface $-1 0 -36.240750899175346 0 0 1 0 0 0 1 forward_v I I I I #
coedge $-1 $530 $355 $367 $481 reversed $240 $-1 #
coedge $-1 $355 $530 $370 $483 reversed $240 $-1 #
edge $-1 $531 -57.108676412244023 $364 -45.64444682473821 $360 $532 forward 7 unknown #
straight-curve $-1 -45.64444682473821 -17.289126052882416 11.874163080341397 0 1 0 I I #
coedge $-1 $367 $358 $361 $477 forward $353 $-1 #
straight-curve $-1 -45.64444682473821 -17.289126052882416 -11.874163080341397 0 -1 0 I I #
coedge $-1 $361 $360 $530 $533 forward $362 $-1 #
edge $-1 $363 45.64444682473821 $534 57.108676412244023 $361 $535 forward 7 unknown #
point $-1 -45.64444682473821 -36.240750899175346 -11.874163080341397 #
point $-1 -45.64444682473821 -36.240750899175346 11.874163080341397 #
straight-curve $-1 -57.108676412244023 -32.915753312354319 0 0 0 -1 I I #
edge $-1 $534 -36.240750899175346 $368 -32.915753312354319 $470 $536 forward 7 unknown #
point $-1 -57.108676412244023 -32.915753312354319 -11.874163080341397 #
edge $-1 $371 32.915753312354319 $531 36.240750899175346 $471 $537 forward 7 unknown #
point $-1 -57.108676412244023 -32.915753312354319 11.874163080341397 #
edge $-1 $486 53.381920302667375 $489 59.629668453534222 $376 $538 forward 7 unknown #
vertex $-1 $390 $539 #
straight-curve $-1 -0.79763455655119131 44.114224613376891 11.874163080341397 0 1 0 I I #
edge $-1 $489 -5.588856232351997 $387 18.361837810158374 $386 $540 forward 7 unknown #
vertex $-1 $488 $541 #
straight-curve $-1 -0.79763455655119131 -5.3329297617269589 64.999785890281828 0 -0.57357642473473569 0.81915205242281985 I I #
point $-1 -0.79763455655119131 31.866030679140366 11.874163080341397 #
point $-1 -24.748328599061562 36.240750899175346 5.6264149294745494 #
straight-curve $-1 0 36.240750899175346 11.874163080341397 -1 0 0 I I #
vertex $-1 $393 $542 #
point $-1 -16.405273158344308 32.492122026258102 7.6570768809495435 #
vertex $-1 $397 $543 #
point $-1 -6.1406899972684386 32.492122026258102 7.6570768809495435 #
coedge $-1 $412 $411 $404 $499 forward $401 $-1 #
edge $-1 $500 53.381920302667375 $503 59.629668453534222 $498 $544 forward 7 unknown #
vertex $-1 $416 $545 #
straight-curve $-1 50.578927061939922 44.114224613376891 11.874163080341397 0 1 0 I I #
edge $-1 $503 -31.277137041597555 $413 -7.3264429990871811 $412 $546 forward 7 unknown #
vertex $-1 $502 $547 #
straight-curve $-1 50.578927061939922 -5.3329297617269589 64.999785890281828 0 -0.57357642473473569 0.81915205242281985 I I #
point $-1 50.578927061939922 31.866030679140366 11.874163080341397 #
point $-1 26.628233019429548 36.240750899175346 5.6264149294745494 #
straight-curve $-1 0 36.240750899175346 11.874163080341397 -1 0 0 I I #
vertex $-1 $419 $548 #
point $-1 34.971288460146809 32.492122026258102 7.6570768809495435 #
vertex $-1 $423 $549 #
point $-1 45.235871621222685 32.492122026258102 7.6570768809495435 #
coedge $-1 $438 $437 $430 $513 forward $427 $-1 #
edge $-1 $514 33.019035955628489 $517 41.307730576219519 $512 $550 forward 7 unknown #
vertex $-1 $442 $551 #
straight-curve $-1 5.000861918581414 -55.587038699161809 11.874163080341397 0 -1 0 I I #
edge $-1 $517 -1.8390673397118533 $439 15.518925856298388 $438 $552 forward 7 unknown #
vertex $-1 $516 $553 #
straight-curve $-1 5.000861918581414 -36.240750899175353 3.5854684597503592 0 0.75470957328743171 0.6560590369687036 I I #
point $-1 5.000861918581414 -26.705698674120026 11.874163080341397 #
point $-1 22.358855114591655 -36.240750899175346 3.5854684597503654 #
straight-curve $-1 0 -36.240750899175346 11.874163080341397 1 0 0 I I #
vertex $-1 $445 $554 #
point $-1 11.460288546012919 -28.490205414401981 4.2982445993509293 #
vertex $-1 $449 $555 #
point $-1 18.899428487160165 -28.490205414401981 4.2982445993509293 #
straight-curve $-1 -57.108676412244023 36.240750899175346 0 0 0 -1 I I #
point $-1 -57.108676412244023 -36.240750899175346 -11.874163080341397 #
straight-curve $-1 -57.108676412244023 0 -11.874163080341397 0 1 0 I I #
point $-1 -57.108676412244023 36.240750899175346 -11.874163080341397 #
coedge $-1 $471 $470 $476 $533 reversed $240 $-1 #
vertex $-1 $483 $556 #
straight-curve $-1 0 -36.240750899175346 11.874163080341397 1 0 0 I I #
edge $-1 $531 -11.874163080341397 $534 11.874163080341397 $530 $557 forward 7 unknown #
vertex $-1 $481 $558 #
straight-curve $-1 0 -36.240750899175346 -11.874163080341397 -1 0 0 I I #
straight-curve $-1 -57.108676412244023 0 -11.874163080341397 0 1 0 I I #
straight-curve $-1 -57.108676412244023 0 11.874163080341397 0 -1 0 I I #
straight-curve $-1 -0.79763455655119131 36.240750899175346 65.256083383008772 0 0 -1 I I #
point $-1 -0.79763455655119131 36.240750899175346 11.874163080341397 #
straight-curve $-1 -6.3864907889031883 36.240750899175353 5.6264149294745458 -1 0 0 I I #
point $-1 -0.79763455655119131 36.240750899175346 5.6264149294745494 #
point $-1 -17.905273158344308 31.263393947623872 6.7967122438474403 #
point $-1 -7.6406899972684386 31.263393947623872 6.7967122438474403 #
straight-curve $-1 50.578927061939922 36.240750899175346 65.256083383008772 0 0 -1 I I #
point $-1 50.578927061939922 36.240750899175346 11.874163080341397 #
straight-curve $-1 19.301790020342366 36.240750899175353 5.6264149294745458 -1 0 0 I I #
point $-1 50.578927061939922 36.240750899175346 5.6264149294745494 #
point $-1 33.471288460146809 31.263393947623872 6.7967122438474403 #
point $-1 43.735871621222685 31.263393947623872 6.7967122438474403 #
straight-curve $-1 5.000861918581414 -36.240750899175346 44.893199035969886 0 0 -1 I I #
point $-1 5.000861918581414 -36.240750899175346 11.874163080341397 #
straight-curve $-1 6.8399292582932674 -36.240750899175346 3.5854684597503659 1 0 0 I I #
point $-1 5.000861918581414 -36.240750899175346 3.5854684597503654 #
point $-1 9.9602885460129187 -27.506116858948925 3.1661802394197816 #
point $-1 17.399428487160165 -27.506116858948925 3.1661802394197816 #
point $-1 -57.108676412244023 -36.240750899175346 11.874163080341397 #
straight-curve $-1 -57.108676412244023 -36.240750899175346 0 0 0 -1 I I #
point $-1 -57.108676412244023 -36.240750899175346 -11.874163080341397 #
End-of-ACIS-data 