500 0 11 0           
7 Unknown 11 ACIS 5.0 NT 24 Thu Mar 25 15:23:10 1999 
-1 9.9999999999999995e-007 1e-010 
body $-1 $11 $-1 $12 #
body $-1 $13 $-1 $14 #
body $-1 $15 $-1 $16 #
body $-1 $17 $-1 $18 #
body $-1 $19 $-1 $20 #
body $-1 $21 $-1 $22 #
body $-1 $23 $-1 $24 #
body $-1 $25 $-1 $26 #
body $-1 $27 $-1 $28 #
body $-1 $29 $-1 $30 #
body $-1 $31 $-1 $32 #
lump $-1 $-1 $33 $0 #
transform $-1 1 0 0 0 1 0 0 0 1 75.73595385601368 30.937167539517123 8.6213738808433096 1 rotate no_reflect no_shear #
lump $-1 $-1 $34 $1 #
transform $-1 1 0 0 0 1 0 0 0 1 75.73595385601368 30.937167539517123 8.6213738808433096 1 rotate no_reflect no_shear #
lump $-1 $-1 $35 $2 #
transform $-1 1 0 0 0 1 0 0 0 1 75.73595385601368 30.937167539517123 8.6213738808433096 1 rotate no_reflect no_shear #
lump $-1 $-1 $36 $3 #
transform $-1 1 0 0 0 1 0 0 0 1 75.73595385601368 30.937167539517123 8.6213738808433096 1 rotate no_reflect no_shear #
lump $-1 $-1 $37 $4 #
transform $-1 1 0 0 0 1 0 0 0 1 75.73595385601368 30.937167539517123 8.6213738808433096 1 rotate no_reflect no_shear #
lump $-1 $-1 $38 $5 #
transform $-1 1 0 0 0 1 0 0 0 1 75.73595385601368 30.937167539517123 8.6213738808433096 1 rotate no_reflect no_shear #
lump $-1 $-1 $39 $6 #
transform $-1 1 0 0 0 1 0 0 0 1 75.73595385601368 30.937167539517123 8.6213738808433096 1 rotate no_reflect no_shear #
lump $-1 $-1 $40 $7 #
transform $-1 1 0 0 0 1 0 0 0 1 75.73595385601368 30.937167539517123 8.6213738808433096 1 rotate no_reflect no_shear #
lump $-1 $-1 $41 $8 #
transform $-1 1 0 0 0 1 0 0 0 1 75.73595385601368 30.937167539517123 8.6213738808433096 1 rotate no_reflect no_shear #
lump $-1 $-1 $42 $9 #
transform $-1 1 0 0 0 1 0 0 0 1 75.73595385601368 30.937167539517123 8.6213738808433096 1 rotate no_reflect no_shear #
lump $-1 $-1 $43 $10 #
transform $-1 1 0 0 0 1 0 0 0 1 75.73595385601368 30.937167539517123 8.6213738808433096 1 rotate no_reflect no_shear #
shell $-1 $-1 $-1 $44 $-1 $11 #
shell $-1 $-1 $-1 $45 $-1 $13 #
shell $-1 $-1 $-1 $46 $-1 $15 #
shell $-1 $-1 $-1 $47 $-1 $17 #
shell $-1 $-1 $-1 $48 $-1 $19 #
shell $-1 $-1 $-1 $49 $-1 $21 #
shell $-1 $-1 $-1 $50 $-1 $23 #
shell $-1 $-1 $-1 $51 $-1 $25 #
shell $-1 $-1 $-1 $52 $-1 $27 #
shell $-1 $-1 $-1 $53 $-1 $29 #
shell $-1 $-1 $-1 $54 $-1 $31 #
face $-1 $55 $56 $33 $-1 $57 forward single #
face $-1 $58 $59 $34 $-1 $60 reversed single #
face $-1 $61 $62 $35 $-1 $63 reversed single #
face $-1 $64 $65 $36 $-1 $66 forward single #
face $-1 $67 $68 $37 $-1 $69 forward single #
face $-1 $70 $71 $38 $-1 $72 reversed single #
face $-1 $73 $74 $39 $-1 $75 forward single #
face $-1 $76 $77 $40 $-1 $78 forward single #
face $-1 $79 $80 $41 $-1 $81 reversed single #
face $-1 $82 $83 $42 $-1 $84 forward single #
face $-1 $85 $86 $43 $-1 $87 forward single #
face $-1 $88 $89 $33 $-1 $90 reversed single #
loop $-1 $-1 $91 $44 #
plane-surface $-1 0 0 8.6213738808433096 0 0 1 1 0 0 forward_v I I I I #
face $-1 $92 $93 $34 $-1 $94 reversed single #
loop $-1 $-1 $95 $45 #
plane-surface $-1 -74.23595385601368 -21.531742495765929 0 0 -1 0 0 0 -1 forward_v I I I I #
face $-1 $96 $97 $35 $-1 $98 reversed single #
loop $-1 $-1 $99 $46 #
plane-surface $-1 -202.7709859370666 -19.093486924876199 84.304682180086616 0 1 0 -0.83867057594974714 0 0.54463902268945019 forward_v I I I I #
face $-1 $100 $101 $36 $-1 $102 forward single #
loop $-1 $103 $104 $47 #
cone-surface $-1 -73.104020897845672 -17.350840159432472 4.94195262852765 0.83867057594974714 0 -0.54463902268945019 0.2723195113447251 0 0.41933528797487357 1 I I 0 1 0.5 forward I I I I #
face $-1 $105 $106 $37 $-1 $107 forward single #
loop $-1 $108 $109 $48 #
cone-surface $-1 -73.104020897845672 -14.73687001126688 4.94195262852765 0.83867057594974714 0 -0.54463902268945019 0.2723195113447251 0 0.41933528797487357 1 I I 0 1 0.5 forward I I I I #
face $-1 $110 $111 $38 $-1 $112 reversed single #
loop $-1 $-1 $113 $49 #
plane-surface $-1 -202.7709859370666 22.399648289574344 84.304682180086616 0 1 0 -0.83867057594974714 0 0.54463902268945019 forward_v I I I I #
face $-1 $114 $115 $39 $-1 $116 forward single #
loop $-1 $117 $118 $50 #
cone-surface $-1 -73.104020897845672 24.142295055018078 4.94195262852765 0.83867057594974714 0 -0.54463902268945019 0.2723195113447251 0 0.41933528797487357 1 I I 0 1 0.5 forward I I I I #
face $-1 $119 $120 $40 $-1 $121 forward single #
loop $-1 $122 $123 $51 #
cone-surface $-1 -73.104020897845672 26.75626520318367 4.94195262852765 0.83867057594974714 0 -0.54463902268945019 0.2723195113447251 0 0.41933528797487357 1 I I 0 1 0.5 forward I I I I #
face $-1 $124 $125 $41 $-1 $126 reversed single #
loop $-1 $-1 $127 $52 #
plane-surface $-1 112.93376266950639 28.427773588123753 212.850815287232 0 -1 0 -0.81915205242281985 0 -0.57357642473473569 forward_v I I I I #
face $-1 $128 $129 $42 $-1 $130 forward single #
loop $-1 $131 $132 $53 #
cone-surface $-1 72.002139892537627 19.066372360298242 4.291808526602308 -0.81915205242281985 0 -0.57357642473473569 0.57357642473473569 0 -0.81915205242281985 1 I I 0 1 1 forward I I I I #
face $-1 $133 $134 $43 $-1 $135 forward single #
loop $-1 $136 $137 $54 #
cone-surface $-1 72.002139892537627 24.683213096993544 4.291808526602308 -0.81915205242281985 0 -0.57357642473473569 0.57357642473473569 0 -0.81915205242281985 1 I I 0 1 1 forward I I I I #
face $-1 $138 $139 $33 $-1 $140 reversed single #
loop $-1 $-1 $141 $55 #
plane-surface $-1 0 0 -8.6213738808433096 0 0 1 1 0 0 forward_v I I I I #
coedge $-1 $142 $143 $144 $145 forward $56 $-1 #
face $-1 $146 $147 $34 $-1 $148 forward single #
loop $-1 $-1 $149 $58 #
plane-surface $-1 -72.73595385601368 -26.234455017641526 0 -1 0 0 0 0 1 forward_v I I I I #
coedge $-1 $150 $151 $152 $153 forward $59 $-1 #
face $-1 $154 $155 $35 $-1 $156 reversed single #
loop $-1 $-1 $157 $61 #
plane-surface $-1 -75.735953856013666 -16.043855085349676 1.8071703989014338 -0.83867057594974714 0 0.54463902268945019 0.54463902268945019 0 0.83867057594974714 forward_v I I I I #
coedge $-1 $158 $159 $160 $161 reversed $62 $-1 #
face $-1 $-1 $162 $36 $-1 $163 forward single #
loop $-1 $164 $165 $64 #
cone-surface $-1 -72.475017965883367 -17.350840159432472 4.5334733615105627 0.83867057594974714 0 -0.54463902268945019 0.13615975567236255 0 0.20966764398743679 1 I I -0.70710678118654746 0.70710678118654746 0.25 forward I I I I #
loop $-1 $-1 $166 $47 #
coedge $-1 $104 $104 $167 $168 reversed $65 $-1 #
face $-1 $-1 $169 $37 $-1 $170 forward single #
loop $-1 $171 $172 $67 #
cone-surface $-1 -72.475017965883367 -14.73687001126688 4.5334733615105627 0.83867057594974714 0 -0.54463902268945019 0.13615975567236255 0 0.20966764398743679 1 I I -0.70710678118654746 0.70710678118654746 0.25 forward I I I I #
loop $-1 $-1 $173 $48 #
coedge $-1 $109 $109 $174 $175 reversed $68 $-1 #
face $-1 $176 $177 $38 $-1 $178 reversed single #
loop $-1 $-1 $179 $70 #
plane-surface $-1 -75.735953856013666 25.449280129100867 1.8071703989014338 -0.83867057594974714 0 0.54463902268945019 0.54463902268945019 0 0.83867057594974714 forward_v I I I I #
coedge $-1 $180 $181 $182 $183 reversed $71 $-1 #
face $-1 $-1 $184 $39 $-1 $185 forward single #
loop $-1 $186 $187 $73 #
cone-surface $-1 -72.475017965883367 24.142295055018078 4.5334733615105627 0.83867057594974714 0 -0.54463902268945019 0.13615975567236255 0 0.20966764398743679 1 I I -0.70710678118654746 0.70710678118654746 0.25 forward I I I I #
loop $-1 $-1 $188 $50 #
coedge $-1 $118 $118 $189 $190 reversed $74 $-1 #
face $-1 $-1 $191 $40 $-1 $192 forward single #
loop $-1 $193 $194 $76 #
cone-surface $-1 -72.475017965883367 26.75626520318367 4.5334733615105627 0.83867057594974714 0 -0.54463902268945019 0.13615975567236255 0 0.20966764398743679 1 I I -0.70710678118654746 0.70710678118654746 0.25 forward I I I I #
loop $-1 $-1 $195 $51 #
coedge $-1 $123 $123 $196 $197 reversed $77 $-1 #
face $-1 $198 $199 $41 $-1 $200 reversed single #
loop $-1 $-1 $201 $79 #
plane-surface $-1 -11.144761417200769 21.874792728645897 125.9701000140175 0.81915205242281985 0 0.57357642473473569 0.57357642473473569 0 -0.81915205242281985 forward_v I I I I #
coedge $-1 $202 $203 $204 $205 reversed $80 $-1 #
face $-1 $-1 $206 $42 $-1 $207 forward single #
loop $-1 $208 $209 $82 #
cone-surface $-1 70.21487746058358 19.066372360298242 3.040353936760452 -0.81915205242281985 0 -0.57357642473473569 0.28678821236736785 0 -0.40957602621140993 1 I I -0.70710678118654746 0.70710678118654746 0.5 forward I I I I #
loop $-1 $-1 $210 $53 #
coedge $-1 $132 $132 $211 $212 reversed $83 $-1 #
face $-1 $-1 $213 $43 $-1 $214 forward single #
loop $-1 $215 $216 $85 #
cone-surface $-1 70.21487746058358 24.683213096993544 3.040353936760452 -0.81915205242281985 0 -0.57357642473473569 0.28678821236736785 0 -0.40957602621140993 1 I I -0.70710678118654746 0.70710678118654746 0.5 forward I I I I #
loop $-1 $-1 $217 $54 #
coedge $-1 $137 $137 $218 $219 reversed $86 $-1 #
face $-1 $220 $221 $33 $-1 $222 reversed single #
loop $-1 $-1 $223 $88 #
plane-surface $-1 0 -30.937167539517123 0 0 1 0 0 0 1 forward_v I I I I #
coedge $-1 $224 $225 $226 $227 forward $89 $-1 #
coedge $-1 $228 $91 $229 $230 forward $56 $-1 #
coedge $-1 $91 $228 $231 $232 forward $56 $-1 #
coedge $-1 $233 $234 $91 $145 reversed $235 $-1 #
edge $-1 $236 -30.937167539517123 $237 30.937167539517123 $144 $238 forward 7 unknown #
face $-1 $239 $240 $34 $-1 $241 reversed single #
loop $-1 $-1 $242 $92 #
plane-surface $-1 0 0 8.6213738808433096 0 0 1 1 0 0 forward_v I I I I #
coedge $-1 $243 $244 $245 $246 reversed $93 $-1 #
coedge $-1 $247 $95 $248 $249 reversed $59 $-1 #
coedge $-1 $95 $247 $250 $251 reversed $59 $-1 #
coedge $-1 $244 $243 $95 $153 reversed $93 $-1 #
edge $-1 $252 -8.6213738808433096 $253 8.6213738808433096 $152 $254 forward 7 unknown #
face $-1 $255 $256 $35 $-1 $257 reversed single #
loop $-1 $-1 $258 $96 #
plane-surface $-1 -202.7709859370666 -12.994223245823154 84.304682180086616 0 -1 0 0.83867057594974714 0 -0.54463902268945019 forward_v I I I I #
coedge $-1 $259 $260 $261 $262 reversed $97 $-1 #
coedge $-1 $159 $99 $263 $264 reversed $62 $-1 #
coedge $-1 $99 $158 $259 $265 reversed $62 $-1 #
coedge $-1 $261 $266 $99 $161 forward $267 $-1 #
edge $-1 $268 25.649539112519619 $269 30.074734452905886 $160 $270 forward 7 unknown #
loop $-1 $-1 $167 $100 #
plane-surface $-1 -75.735953856013666 -16.043855085349676 1.8071703989014338 -0.83867057594974714 0 0.54463902268945019 0.54463902268945019 0 0.83867057594974714 forward_v I I I I #
loop $-1 $-1 $271 $64 #
coedge $-1 $165 $165 $166 $272 reversed $101 $-1 #
coedge $-1 $166 $166 $165 $272 forward $103 $-1 #
coedge $-1 $167 $167 $104 $168 forward $162 $-1 #
edge $-1 $273 0 $273 6.2831853071796004 $167 $274 forward 7 unknown #
loop $-1 $-1 $174 $105 #
plane-surface $-1 -75.735953856013666 -16.043855085349676 1.8071703989014338 -0.83867057594974714 0 0.54463902268945019 0.54463902268945019 0 0.83867057594974714 forward_v I I I I #
loop $-1 $-1 $275 $67 #
coedge $-1 $172 $172 $173 $276 reversed $106 $-1 #
coedge $-1 $173 $173 $172 $276 forward $108 $-1 #
coedge $-1 $174 $174 $109 $175 forward $169 $-1 #
edge $-1 $277 0 $277 6.2831853071796004 $174 $278 forward 7 unknown #
face $-1 $279 $280 $38 $-1 $281 forward single #
loop $-1 $-1 $282 $110 #
plane-surface $-1 -202.7709859370666 28.49891196862739 84.304682180086616 0 -1 0 0.83867057594974714 0 -0.54463902268945019 forward_v I I I I #
coedge $-1 $283 $284 $285 $286 reversed $111 $-1 #
coedge $-1 $181 $113 $287 $288 reversed $71 $-1 #
coedge $-1 $113 $180 $283 $289 reversed $71 $-1 #
coedge $-1 $285 $290 $113 $183 forward $280 $-1 #
edge $-1 $291 25.649539112519619 $292 30.074734452905886 $182 $293 forward 7 unknown #
loop $-1 $-1 $189 $114 #
plane-surface $-1 -75.735953856013666 25.449280129100867 1.8071703989014338 -0.83867057594974714 0 0.54463902268945019 0.54463902268945019 0 0.83867057594974714 forward_v I I I I #
loop $-1 $-1 $294 $73 #
coedge $-1 $187 $187 $188 $295 reversed $115 $-1 #
coedge $-1 $188 $188 $187 $295 forward $117 $-1 #
coedge $-1 $189 $189 $118 $190 forward $184 $-1 #
edge $-1 $296 0 $296 6.2831853071796004 $189 $297 forward 7 unknown #
loop $-1 $-1 $196 $119 #
plane-surface $-1 -75.735953856013666 25.449280129100867 1.8071703989014338 -0.83867057594974714 0 0.54463902268945019 0.54463902268945019 0 0.83867057594974714 forward_v I I I I #
loop $-1 $-1 $298 $76 #
coedge $-1 $194 $194 $195 $299 reversed $120 $-1 #
coedge $-1 $195 $195 $194 $299 forward $122 $-1 #
coedge $-1 $196 $196 $123 $197 forward $191 $-1 #
edge $-1 $300 0 $300 6.2831853071796004 $196 $301 forward 7 unknown #
face $-1 $302 $303 $41 $-1 $304 forward single #
loop $-1 $-1 $305 $124 #
plane-surface $-1 112.93376266950639 15.321811869168041 212.850815287232 0 1 0 0.81915205242281985 0 0.57357642473473569 forward_v I I I I #
coedge $-1 $306 $307 $308 $309 reversed $125 $-1 #
coedge $-1 $203 $127 $310 $311 reversed $80 $-1 #
coedge $-1 $127 $202 $306 $312 reversed $80 $-1 #
coedge $-1 $308 $313 $127 $205 forward $303 $-1 #
edge $-1 $314 -19.269072521260483 $315 -14.556817405793694 $204 $316 forward 7 unknown #
loop $-1 $-1 $211 $128 #
plane-surface $-1 -11.144761417200769 21.874792728645897 125.9701000140175 0.81915205242281985 0 0.57357642473473569 0.57357642473473569 0 -0.81915205242281985 forward_v I I I I #
loop $-1 $-1 $317 $82 #
coedge $-1 $209 $209 $210 $318 reversed $129 $-1 #
coedge $-1 $210 $210 $209 $318 forward $131 $-1 #
coedge $-1 $211 $211 $132 $212 forward $206 $-1 #
edge $-1 $319 0 $319 6.2831853071796004 $211 $320 forward 7 unknown #
loop $-1 $-1 $218 $133 #
plane-surface $-1 -11.144761417200769 21.874792728645897 125.9701000140175 0.81915205242281985 0 0.57357642473473569 0.57357642473473569 0 -0.81915205242281985 forward_v I I I I #
loop $-1 $-1 $321 $85 #
coedge $-1 $216 $216 $217 $322 reversed $134 $-1 #
coedge $-1 $217 $217 $216 $322 forward $136 $-1 #
coedge $-1 $218 $218 $137 $219 forward $213 $-1 #
edge $-1 $323 0 $323 6.2831853071796004 $218 $324 forward 7 unknown #
face $-1 $325 $326 $33 $-1 $327 reversed single #
loop $-1 $-1 $328 $138 #
plane-surface $-1 -75.73595385601368 0 0 1 0 0 0 0 -1 forward_v I I I I #
coedge $-1 $329 $231 $330 $331 forward $139 $-1 #
coedge $-1 $332 $141 $329 $333 forward $89 $-1 #
coedge $-1 $141 $332 $334 $335 forward $89 $-1 #
coedge $-1 $234 $233 $141 $227 reversed $235 $-1 #
edge $-1 $336 -30.937167539517123 $337 30.937167539517123 $226 $338 forward 7 unknown #
coedge $-1 $143 $142 $339 $340 forward $56 $-1 #
coedge $-1 $341 $342 $142 $230 reversed $326 $-1 #
edge $-1 $237 -75.73595385601368 $343 75.73595385601368 $229 $344 forward 7 unknown #
coedge $-1 $223 $345 $143 $232 reversed $139 $-1 #
edge $-1 $346 -75.73595385601368 $236 75.73595385601368 $231 $347 forward 7 unknown #
coedge $-1 $226 $144 $345 $348 forward $235 $-1 #
coedge $-1 $144 $226 $341 $349 reversed $235 $-1 #
loop $-1 $-1 $233 $325 #
vertex $-1 $145 $350 #
vertex $-1 $145 $351 #
straight-curve $-1 75.73595385601368 0 8.6213738808433096 0 1 0 I I #
face $-1 $352 $353 $34 $-1 $354 reversed single #
loop $-1 $-1 $355 $146 #
plane-surface $-1 -75.73595385601368 0 0 1 0 0 0 0 -1 forward_v I I I I #
coedge $-1 $250 $356 $244 $357 forward $147 $-1 #
coedge $-1 $152 $149 $358 $359 reversed $93 $-1 #
coedge $-1 $149 $152 $242 $357 reversed $93 $-1 #
coedge $-1 $360 $361 $149 $246 forward $362 $-1 #
edge $-1 $363 -8.6213738808433096 $364 8.6213738808433096 $245 $365 forward 7 unknown #
coedge $-1 $151 $150 $355 $366 reversed $59 $-1 #
coedge $-1 $358 $367 $150 $249 forward $353 $-1 #
edge $-1 $368 -38.61797692800684 $253 -35.61797692800684 $248 $369 forward 7 unknown #
coedge $-1 $370 $242 $151 $251 forward $147 $-1 #
edge $-1 $252 35.61797692800684 $371 38.61797692800684 $250 $372 forward 7 unknown #
vertex $-1 $251 $373 #
vertex $-1 $249 $374 #
straight-curve $-1 -72.73595385601368 -21.531742495765929 0 0 0 -1 I I #
face $-1 $-1 $267 $35 $-1 $375 forward single #
loop $-1 $-1 $376 $154 #
plane-surface $-1 -75.73595385601368 0 0 1 0 0 0 0 -1 forward_v I I I I #
coedge $-1 $377 $378 $379 $380 reversed $155 $-1 #
coedge $-1 $381 $157 $159 $265 forward $97 $-1 #
coedge $-1 $157 $381 $377 $382 forward $97 $-1 #
coedge $-1 $379 $160 $157 $262 forward $267 $-1 #
edge $-1 $269 -11.071559382201361 $383 -4.9722957031483155 $261 $384 forward 7 unknown #
coedge $-1 $385 $386 $158 $264 forward $256 $-1 #
edge $-1 $387 -40.345170691141895 $268 -33.5309672092 $263 $388 forward 7 unknown #
edge $-1 $269 -8.1250060242368427 $387 2.617579141687138e-014 $159 $389 forward 7 unknown #
coedge $-1 $160 $379 $385 $390 forward $267 $-1 #
loop $-1 $-1 $379 $255 #
vertex $-1 $264 $391 #
vertex $-1 $161 $392 #
straight-curve $-1 -101.3854929685333 -19.093486924876199 8.6213738808433078 1 0 0 I I #
coedge $-1 $271 $271 $-1 $393 reversed $164 $-1 #
edge $-1 $394 0 $394 6.2831853071796004 $165 $395 forward 7 unknown #
vertex $-1 $168 $396 #
ellipse-curve $-1 -73.523356185820546 -17.350840159432472 5.2142721398723726 -0.83867057594974714 0 0.54463902268945019 0.2723195113447251 0 0.41933528797487357 1 I I #
coedge $-1 $275 $275 $-1 $397 reversed $171 $-1 #
edge $-1 $398 0 $398 6.2831853071796004 $172 $399 forward 7 unknown #
vertex $-1 $175 $400 #
ellipse-curve $-1 -73.523356185820546 -14.73687001126688 5.2142721398723726 -0.83867057594974714 0 0.54463902268945019 0.2723195113447251 0 0.41933528797487357 1 I I #
face $-1 $-1 $401 $38 $-1 $402 reversed single #
loop $-1 $-1 $182 $176 #
plane-surface $-1 0 0 8.6213738808433096 0 0 1 1 0 0 forward_v I I I I #
coedge $-1 $403 $404 $405 $406 reversed $177 $-1 #
coedge $-1 $407 $179 $181 $289 forward $111 $-1 #
coedge $-1 $179 $407 $403 $408 forward $111 $-1 #
coedge $-1 $405 $182 $179 $286 forward $280 $-1 #
edge $-1 $292 9.6750082250239107 $409 15.774271904076956 $285 $410 forward 7 unknown #
coedge $-1 $411 $412 $180 $288 forward $401 $-1 #
edge $-1 $413 -40.345170691141895 $291 -33.5309672092 $287 $414 forward 7 unknown #
edge $-1 $292 -8.1250060242368427 $413 2.617579141687138e-014 $181 $415 forward 7 unknown #
coedge $-1 $182 $405 $411 $416 forward $280 $-1 #
vertex $-1 $288 $417 #
vertex $-1 $183 $418 #
straight-curve $-1 -101.3854929685333 22.399648289574344 8.6213738808433078 1 0 0 I I #
coedge $-1 $294 $294 $-1 $419 reversed $186 $-1 #
edge $-1 $420 0 $420 6.2831853071796004 $187 $421 forward 7 unknown #
vertex $-1 $190 $422 #
ellipse-curve $-1 -73.523356185820546 24.142295055018078 5.2142721398723726 -0.83867057594974714 0 0.54463902268945019 0.2723195113447251 0 0.41933528797487357 1 I I #
coedge $-1 $298 $298 $-1 $423 reversed $193 $-1 #
edge $-1 $424 0 $424 6.2831853071796004 $194 $425 forward 7 unknown #
vertex $-1 $197 $426 #
ellipse-curve $-1 -73.523356185820546 26.75626520318367 5.2142721398723726 -0.83867057594974714 0 0.54463902268945019 0.2723195113447251 0 0.41933528797487357 1 I I #
face $-1 $-1 $427 $41 $-1 $428 reversed single #
loop $-1 $-1 $204 $198 #
plane-surface $-1 0 0 8.6213738808433096 0 0 1 1 0 0 forward_v I I I I #
coedge $-1 $429 $430 $431 $432 reversed $199 $-1 #
coedge $-1 $433 $201 $203 $312 forward $125 $-1 #
coedge $-1 $201 $433 $429 $434 forward $125 $-1 #
coedge $-1 $431 $204 $201 $309 forward $303 $-1 #
edge $-1 $315 -17.490377223800806 $435 -4.3844155048450926 $308 $436 forward 7 unknown #
coedge $-1 $437 $438 $202 $311 forward $427 $-1 #
edge $-1 $439 -104.53383171630558 $314 -97.80403376277269 $310 $440 forward 7 unknown #
edge $-1 $315 143.2563414644325 $439 151.4719077120273 $203 $441 forward 7 unknown #
coedge $-1 $204 $431 $437 $442 forward $303 $-1 #
vertex $-1 $205 $443 #
vertex $-1 $205 $444 #
straight-curve $-1 56.466881334753197 28.427773588123753 8.6213738808433078 -1 0 0 I I #
coedge $-1 $317 $317 $-1 $445 reversed $208 $-1 #
edge $-1 $446 0 $446 6.2831853071796004 $209 $447 forward 7 unknown #
vertex $-1 $212 $448 #
ellipse-curve $-1 73.379826298280307 19.066372360298242 5.2564749040768257 0.81915205242281985 0 0.57357642473473569 0.57357642473473569 0 -0.81915205242281985 1 I I #
coedge $-1 $321 $321 $-1 $449 reversed $215 $-1 #
edge $-1 $450 0 $450 6.2831853071796004 $216 $451 forward 7 unknown #
vertex $-1 $219 $452 #
ellipse-curve $-1 73.379826298280307 24.683213096993544 5.2564749040768257 0.81915205242281985 0 0.57357642473473569 0.57357642473473569 0 -0.81915205242281985 1 I I #
face $-1 $-1 $235 $33 $-1 $453 reversed single #
loop $-1 $-1 $341 $220 #
plane-surface $-1 0 30.937167539517123 0 0 -1 0 0 0 -1 forward_v I I I I #
coedge $-1 $454 $339 $342 $455 forward $221 $-1 #
coedge $-1 $345 $223 $224 $333 reversed $139 $-1 #
coedge $-1 $339 $454 $223 $331 reversed $221 $-1 #
edge $-1 $346 -8.6213738808433096 $456 8.6213738808433096 $330 $457 forward 7 unknown #
coedge $-1 $225 $224 $454 $458 forward $89 $-1 #
edge $-1 $337 -75.73595385601368 $456 75.73595385601368 $329 $459 forward 7 unknown #
coedge $-1 $342 $341 $225 $335 reversed $326 $-1 #
edge $-1 $460 -75.73595385601368 $336 75.73595385601368 $334 $461 forward 7 unknown #
vertex $-1 $227 $462 #
vertex $-1 $348 $463 #
straight-curve $-1 75.73595385601368 0 -8.6213738808433096 0 -1 0 I I #
coedge $-1 $328 $330 $228 $340 reversed $221 $-1 #
edge $-1 $343 -30.937167539517123 $346 30.937167539517123 $339 $464 forward 7 unknown #
coedge $-1 $334 $229 $234 $349 forward $326 $-1 #
coedge $-1 $229 $334 $328 $455 reversed $326 $-1 #
vertex $-1 $230 $465 #
straight-curve $-1 0 30.937167539517123 8.6213738808433096 -1 0 0 I I #
coedge $-1 $231 $329 $233 $348 reversed $139 $-1 #
vertex $-1 $340 $466 #
straight-curve $-1 0 -30.937167539517123 8.6213738808433096 1 0 0 I I #
edge $-1 $236 -8.6213738808433096 $337 8.6213738808433096 $233 $467 forward 7 unknown #
edge $-1 $237 -8.6213738808433096 $336 8.6213738808433096 $234 $468 forward 7 unknown #
point $-1 75.73595385601368 -30.937167539517123 8.6213738808433096 #
point $-1 75.73595385601368 30.937167539517123 8.6213738808433096 #
face $-1 $-1 $362 $34 $-1 $469 reversed single #
loop $-1 $-1 $358 $239 #
plane-surface $-1 0 0 -8.6213738808433096 0 0 1 1 0 0 forward_v I I I I #
coedge $-1 $470 $471 $247 $366 forward $240 $-1 #
coedge $-1 $242 $370 $360 $472 forward $147 $-1 #
edge $-1 $364 -17.819940030696358 $252 -8.4145149869451661 $242 $473 forward 7 unknown #
coedge $-1 $474 $248 $243 $359 forward $353 $-1 #
edge $-1 $253 8.4145149869451661 $363 17.819940030696358 $358 $475 forward 7 unknown #
coedge $-1 $476 $245 $356 $472 reversed $362 $-1 #
coedge $-1 $245 $476 $474 $477 reversed $362 $-1 #
loop $-1 $-1 $245 $352 #
vertex $-1 $477 $478 #
vertex $-1 $246 $479 #
straight-curve $-1 -72.73595385601368 -30.937167539517123 0 0 0 1 I I #
edge $-1 $371 -8.6213738808433096 $368 8.6213738808433096 $355 $480 forward 7 unknown #
coedge $-1 $248 $474 $470 $481 forward $353 $-1 #
vertex $-1 $249 $482 #
straight-curve $-1 -37.11797692800684 -21.531742495765929 -8.6213738808433096 1 0 0 I I #
coedge $-1 $356 $250 $471 $483 forward $147 $-1 #
vertex $-1 $483 $484 #
straight-curve $-1 -37.11797692800684 -21.531742495765929 8.6213738808433096 -1 0 0 I I #
point $-1 -72.73595385601368 -21.531742495765929 8.6213738808433096 #
point $-1 -72.73595385601368 -21.531742495765929 -8.6213738808433096 #
plane-surface $-1 0 0 8.6213738808433096 0 0 1 1 0 0 forward_v I I I I #
coedge $-1 $386 $385 $378 $485 forward $256 $-1 #
coedge $-1 $378 $258 $260 $382 reversed $155 $-1 #
coedge $-1 $258 $377 $376 $485 reversed $155 $-1 #
coedge $-1 $266 $261 $258 $380 forward $267 $-1 #
edge $-1 $383 -30.074734452905886 $486 -25.649539112519619 $379 $487 forward 7 unknown #
coedge $-1 $260 $259 $386 $488 reversed $97 $-1 #
edge $-1 $489 -2.617579141687138e-014 $383 8.1250060242368427 $377 $490 forward 7 unknown #
vertex $-1 $262 $491 #
straight-curve $-1 -71.310758515627413 -8.0219275426748382 8.6213738808433096 0 1 0 I I #
coedge $-1 $376 $263 $266 $390 reversed $256 $-1 #
coedge $-1 $263 $376 $381 $488 forward $256 $-1 #
vertex $-1 $264 $492 #
straight-curve $-1 -75.73595385601368 -19.093486924876199 42.152341090043308 0 0 1 I I #
straight-curve $-1 -75.735953856013666 -19.093486924876199 1.8071703989014338 -0.54463902268945019 0 -0.83867057594974714 I I #
edge $-1 $486 12.994223245823154 $268 19.093486924876199 $385 $493 forward 7 unknown #
point $-1 -75.73595385601368 -19.093486924876199 8.6213738808433096 #
point $-1 -71.310758515627413 -19.093486924876199 8.6213738808433078 #
edge $-1 $494 1 $494 0 $271 $-1 forward 7 unknown #
vertex $-1 $272 $495 #
ellipse-curve $-1 -72.684685609870797 -17.350840159432472 4.6696331171829248 -0.83867057594974714 0 0.54463902268945019 0.2723195113447251 0 0.41933528797487357 1 I I #
point $-1 -73.251036674475827 -17.350840159432472 5.6336074278472488 #
edge $-1 $496 1 $496 0 $275 $-1 forward 7 unknown #
vertex $-1 $276 $497 #
ellipse-curve $-1 -72.684685609870797 -14.73687001126688 4.6696331171829248 -0.83867057594974714 0 0.54463902268945019 0.2723195113447251 0 0.41933528797487357 1 I I #
point $-1 -73.251036674475827 -14.73687001126688 5.6336074278472488 #
loop $-1 $-1 $287 $279 #
plane-surface $-1 -75.73595385601368 0 0 1 0 0 0 0 -1 forward_v I I I I #
coedge $-1 $404 $282 $284 $408 reversed $177 $-1 #
coedge $-1 $282 $403 $498 $499 reversed $177 $-1 #
coedge $-1 $290 $285 $282 $406 forward $280 $-1 #
edge $-1 $409 -30.074734452905886 $500 -25.649539112519619 $405 $501 forward 7 unknown #
coedge $-1 $284 $283 $412 $502 reversed $111 $-1 #
edge $-1 $503 -2.617579141687138e-014 $409 8.1250060242368427 $403 $504 forward 7 unknown #
vertex $-1 $286 $505 #
straight-curve $-1 -71.310758515627413 12.724640064550433 8.6213738808433096 0 1 0 I I #
coedge $-1 $498 $287 $290 $416 reversed $401 $-1 #
coedge $-1 $287 $498 $407 $502 forward $401 $-1 #
vertex $-1 $288 $506 #
straight-curve $-1 -75.73595385601368 22.399648289574344 42.152341090043308 0 0 1 I I #
straight-curve $-1 -75.735953856013666 22.399648289574344 1.8071703989014338 -0.54463902268945019 0 -0.83867057594974714 I I #
edge $-1 $500 -28.49891196862739 $291 -22.399648289574344 $411 $507 forward 7 unknown #
point $-1 -75.73595385601368 22.399648289574344 8.6213738808433096 #
point $-1 -71.310758515627413 22.399648289574344 8.6213738808433078 #
edge $-1 $508 1 $508 0 $294 $-1 forward 7 unknown #
vertex $-1 $295 $509 #
ellipse-curve $-1 -72.684685609870797 24.142295055018078 4.6696331171829248 -0.83867057594974714 0 0.54463902268945019 0.2723195113447251 0 0.41933528797487357 1 I I #
point $-1 -73.251036674475827 24.142295055018078 5.6336074278472488 #
edge $-1 $510 1 $510 0 $298 $-1 forward 7 unknown #
vertex $-1 $299 $511 #
ellipse-curve $-1 -72.684685609870797 26.75626520318367 4.6696331171829248 -0.83867057594974714 0 0.54463902268945019 0.2723195113447251 0 0.41933528797487357 1 I I #
point $-1 -73.251036674475827 26.75626520318367 5.6336074278472488 #
loop $-1 $-1 $310 $302 #
plane-surface $-1 75.73595385601368 0 0 -1 0 0 0 0 1 forward_v I I I I #
coedge $-1 $430 $305 $307 $434 reversed $199 $-1 #
coedge $-1 $305 $429 $512 $513 reversed $199 $-1 #
coedge $-1 $313 $308 $305 $432 forward $303 $-1 #
edge $-1 $435 14.556817405793694 $514 19.269072521260483 $431 $515 forward 7 unknown #
coedge $-1 $307 $306 $438 $516 reversed $125 $-1 #
edge $-1 $517 -151.4719077120273 $435 -143.2563414644325 $429 $518 forward 7 unknown #
vertex $-1 $309 $519 #
straight-curve $-1 71.023698740546905 10.937396364322948 8.6213738808433078 0 -1 0 I I #
coedge $-1 $512 $310 $313 $442 reversed $427 $-1 #
coedge $-1 $310 $512 $433 $516 forward $427 $-1 #
vertex $-1 $311 $520 #
straight-curve $-1 75.73595385601368 28.427773588123753 106.425407643616 0 0 1 I I #
straight-curve $-1 -11.144761417200769 28.427773588123753 125.9701000140175 0.57357642473473569 0 -0.81915205242281985 I I #
edge $-1 $514 15.321811869168041 $314 28.427773588123753 $437 $521 forward 7 unknown #
point $-1 75.73595385601368 28.427773588123753 8.6213738808433096 #
point $-1 71.023698740546891 28.427773588123753 8.621373880843322 #
edge $-1 $522 1 $522 0 $317 $-1 forward 7 unknown #
vertex $-1 $318 $523 #
ellipse-curve $-1 70.624453486794991 19.066372360298242 3.3271421491278197 0.81915205242281985 0 0.57357642473473569 0.57357642473473569 0 -0.81915205242281985 1 I I #
point $-1 73.953402723015017 19.066372360298242 4.4373228516539758 #
edge $-1 $524 1 $524 0 $321 $-1 forward 7 unknown #
vertex $-1 $322 $525 #
ellipse-curve $-1 70.624453486794991 24.683213096993544 3.3271421491278197 0.81915205242281985 0 0.57357642473473569 0.57357642473473569 0 -0.81915205242281985 1 I I #
point $-1 73.953402723015017 24.683213096993544 4.4373228516539758 #
plane-surface $-1 75.73595385601368 0 0 -1 0 0 0 0 1 forward_v I I I I #
coedge $-1 $330 $328 $332 $458 reversed $221 $-1 #
edge $-1 $343 -8.6213738808433096 $460 8.6213738808433096 $342 $526 forward 7 unknown #
vertex $-1 $458 $527 #
straight-curve $-1 -75.73595385601368 -30.937167539517123 0 0 0 -1 I I #
edge $-1 $456 -30.937167539517123 $460 30.937167539517123 $454 $528 forward 7 unknown #
straight-curve $-1 0 -30.937167539517123 -8.6213738808433096 -1 0 0 I I #
vertex $-1 $335 $529 #
straight-curve $-1 0 30.937167539517123 -8.6213738808433096 1 0 0 I I #
point $-1 75.73595385601368 30.937167539517123 -8.6213738808433096 #
point $-1 75.73595385601368 -30.937167539517123 -8.6213738808433096 #
straight-curve $-1 -75.73595385601368 0 8.6213738808433096 0 -1 0 I I #
point $-1 -75.73595385601368 30.937167539517123 8.6213738808433096 #
point $-1 -75.73595385601368 -30.937167539517123 8.6213738808433096 #
straight-curve $-1 75.73595385601368 -30.937167539517123 0 0 0 -1 I I #
straight-curve $-1 75.73595385601368 30.937167539517123 0 0 0 -1 I I #
plane-surface $-1 0 -30.937167539517123 0 0 1 0 0 0 1 forward_v I I I I #
coedge $-1 $530 $355 $367 $481 reversed $240 $-1 #
coedge $-1 $355 $530 $370 $483 reversed $240 $-1 #
edge $-1 $531 -75.73595385601368 $364 -72.73595385601368 $360 $532 forward 7 unknown #
straight-curve $-1 -72.73595385601368 -13.117227508820763 8.6213738808433096 0 1 0 I I #
coedge $-1 $367 $358 $361 $477 forward $353 $-1 #
straight-curve $-1 -72.73595385601368 -13.117227508820763 -8.6213738808433096 0 -1 0 I I #
coedge $-1 $361 $360 $530 $533 forward $362 $-1 #
edge $-1 $363 72.73595385601368 $534 75.73595385601368 $361 $535 forward 7 unknown #
point $-1 -72.73595385601368 -30.937167539517123 -8.6213738808433096 #
point $-1 -72.73595385601368 -30.937167539517123 8.6213738808433096 #
straight-curve $-1 -75.73595385601368 -21.531742495765929 0 0 0 -1 I I #
edge $-1 $534 -30.937167539517123 $368 -21.531742495765929 $470 $536 forward 7 unknown #
point $-1 -75.73595385601368 -21.531742495765929 -8.6213738808433096 #
edge $-1 $371 21.531742495765929 $531 30.937167539517123 $471 $537 forward 7 unknown #
point $-1 -75.73595385601368 -21.531742495765929 8.6213738808433096 #
edge $-1 $486 33.5309672092 $489 40.345170691141895 $376 $538 forward 7 unknown #
vertex $-1 $390 $539 #
straight-curve $-1 -101.3854929685333 -12.994223245823154 8.6213738808433078 -1 0 0 I I #
edge $-1 $489 4.9722957031483155 $387 11.071559382201361 $386 $540 forward 7 unknown #
vertex $-1 $488 $541 #
straight-curve $-1 -75.735953856013666 -12.994223245823154 1.8071703989014338 0.54463902268945019 0 0.83867057594974714 I I #
point $-1 -71.310758515627413 -12.994223245823154 8.6213738808433078 #
point $-1 -75.73595385601368 -19.093486924876199 1.8071703989014118 #
straight-curve $-1 -75.73595385601368 0 8.6213738808433096 0 -1 0 I I #
vertex $-1 $393 $542 #
point $-1 -72.412366098526078 -17.350840159432472 5.0889684051577984 #
vertex $-1 $397 $543 #
point $-1 -72.412366098526078 -14.73687001126688 5.0889684051577984 #
coedge $-1 $412 $411 $404 $499 forward $401 $-1 #
edge $-1 $500 33.5309672092 $503 40.345170691141895 $498 $544 forward 7 unknown #
vertex $-1 $416 $545 #
straight-curve $-1 -101.3854929685333 28.49891196862739 8.6213738808433078 -1 0 0 I I #
edge $-1 $503 -15.774271904076956 $413 -9.6750082250239107 $412 $546 forward 7 unknown #
vertex $-1 $502 $547 #
straight-curve $-1 -75.735953856013666 28.49891196862739 1.8071703989014338 0.54463902268945019 0 0.83867057594974714 I I #
point $-1 -71.310758515627413 28.49891196862739 8.6213738808433078 #
point $-1 -75.73595385601368 22.399648289574344 1.8071703989014118 #
straight-curve $-1 -75.73595385601368 0 8.6213738808433096 0 -1 0 I I #
vertex $-1 $419 $548 #
point $-1 -72.412366098526078 24.142295055018078 5.0889684051577984 #
vertex $-1 $423 $549 #
point $-1 -72.412366098526078 26.75626520318367 5.0889684051577984 #
coedge $-1 $438 $437 $430 $513 forward $427 $-1 #
edge $-1 $514 97.80403376277269 $517 104.53383171630558 $512 $550 forward 7 unknown #
vertex $-1 $442 $551 #
straight-curve $-1 56.466881334753197 15.321811869168041 8.6213738808433078 1 0 0 I I #
edge $-1 $517 4.3844155048450926 $439 17.490377223800806 $438 $552 forward 7 unknown #
vertex $-1 $516 $553 #
straight-curve $-1 -11.144761417200769 15.321811869168041 125.9701000140175 -0.57357642473473569 0 0.81915205242281985 I I #
point $-1 71.023698740546891 15.321811869168041 8.621373880843322 #
point $-1 75.73595385601368 28.427773588123753 1.8915759273104129 #
straight-curve $-1 75.73595385601368 0 8.6213738808433096 0 1 0 I I #
vertex $-1 $445 $554 #
point $-1 71.19802991152973 19.066372360298242 2.5079900967049999 #
vertex $-1 $449 $555 #
point $-1 71.19802991152973 24.683213096993544 2.5079900967049999 #
straight-curve $-1 -75.73595385601368 30.937167539517123 0 0 0 -1 I I #
point $-1 -75.73595385601368 -30.937167539517123 -8.6213738808433096 #
straight-curve $-1 -75.73595385601368 0 -8.6213738808433096 0 1 0 I I #
point $-1 -75.73595385601368 30.937167539517123 -8.6213738808433096 #
coedge $-1 $471 $470 $476 $533 reversed $240 $-1 #
vertex $-1 $483 $556 #
straight-curve $-1 0 -30.937167539517123 8.6213738808433096 1 0 0 I I #
edge $-1 $531 -8.6213738808433096 $534 8.6213738808433096 $530 $557 forward 7 unknown #
vertex $-1 $481 $558 #
straight-curve $-1 0 -30.937167539517123 -8.6213738808433096 -1 0 0 I I #
straight-curve $-1 -75.73595385601368 0 -8.6213738808433096 0 1 0 I I #
straight-curve $-1 -75.73595385601368 0 8.6213738808433096 0 -1 0 I I #
straight-curve $-1 -75.73595385601368 -12.994223245823154 42.152341090043308 0 0 -1 I I #
point $-1 -75.73595385601368 -12.994223245823154 8.6213738808433096 #
straight-curve $-1 -75.73595385601368 -8.0219275426748382 1.8071703989014289 0 -1 0 I I #
point $-1 -75.73595385601368 -12.994223245823154 1.8071703989014118 #
point $-1 -72.265350321895937 -17.350840159432472 4.3973136058382005 #
point $-1 -72.265350321895937 -14.73687001126688 4.3973136058382005 #
straight-curve $-1 -75.73595385601368 28.49891196862739 42.152341090043308 0 0 -1 I I #
point $-1 -75.73595385601368 28.49891196862739 8.6213738808433096 #
straight-curve $-1 -75.73595385601368 12.724640064550433 1.8071703989014289 0 -1 0 I I #
point $-1 -75.73595385601368 28.49891196862739 1.8071703989014118 #
point $-1 -72.265350321895937 24.142295055018078 4.3973136058382005 #
point $-1 -72.265350321895937 26.75626520318367 4.3973136058382005 #
straight-curve $-1 75.73595385601368 15.321811869168041 106.425407643616 0 0 -1 I I #
point $-1 75.73595385601368 15.321811869168041 8.6213738808433096 #
straight-curve $-1 75.73595385601368 10.937396364322948 1.8915759273104058 0 1 0 I I #
point $-1 75.73595385601368 15.321811869168041 1.8915759273104129 #
point $-1 69.805301434372169 19.066372360298242 2.7535657243930842 #
point $-1 69.805301434372169 24.683213096993544 2.7535657243930842 #
point $-1 -75.73595385601368 -30.937167539517123 8.6213738808433096 #
straight-curve $-1 -75.73595385601368 -30.937167539517123 0 0 0 -1 I I #
point $-1 -75.73595385601368 -30.937167539517123 -8.6213738808433096 #
End-of-ACIS-data 