500 0 7 0           
7 Unknown 11 ACIS 5.0 NT 24 Fri Mar 26 15:50:25 1999 
-1 9.9999999999999995e-007 1e-010 
body $-1 $7 $-1 $8 #
body $-1 $9 $-1 $10 #
body $-1 $11 $-1 $12 #
body $-1 $13 $-1 $14 #
body $-1 $15 $-1 $16 #
body $-1 $17 $-1 $18 #
body $-1 $19 $-1 $20 #
lump $-1 $-1 $21 $0 #
transform $-1 1 0 0 0 1 0 0 0 1 79.626453444013805 42.562863004605298 15.663710321775993 1 rotate no_reflect no_shear #
lump $-1 $-1 $22 $1 #
transform $-1 1 0 0 0 1 0 0 0 1 79.626453444013805 42.562863004605298 15.663710321775993 1 rotate no_reflect no_shear #
lump $-1 $-1 $23 $2 #
transform $-1 1 0 0 0 1 0 0 0 1 79.626453444013805 42.562863004605298 15.663710321775993 1 rotate no_reflect no_shear #
lump $-1 $-1 $24 $3 #
transform $-1 1 0 0 0 1 0 0 0 1 79.626453444013805 42.562863004605298 15.663710321775993 1 rotate no_reflect no_shear #
lump $-1 $-1 $25 $4 #
transform $-1 1 0 0 0 1 0 0 0 1 79.626453444013805 42.562863004605298 15.663710321775993 1 rotate no_reflect no_shear #
lump $-1 $-1 $26 $5 #
transform $-1 1 0 0 0 1 0 0 0 1 79.626453444013805 42.562863004605298 15.663710321775993 1 rotate no_reflect no_shear #
lump $-1 $-1 $27 $6 #
transform $-1 1 0 0 0 1 0 0 0 1 79.626453444013805 42.562863004605298 15.663710321775993 1 rotate no_reflect no_shear #
shell $-1 $-1 $-1 $28 $-1 $7 #
shell $-1 $-1 $-1 $29 $-1 $9 #
shell $-1 $-1 $-1 $30 $-1 $11 #
shell $-1 $-1 $-1 $31 $-1 $13 #
shell $-1 $-1 $-1 $32 $-1 $15 #
shell $-1 $-1 $-1 $33 $-1 $17 #
shell $-1 $-1 $-1 $34 $-1 $19 #
face $-1 $35 $36 $21 $-1 $37 forward single #
face $-1 $38 $39 $22 $-1 $40 reversed single #
face $-1 $41 $42 $23 $-1 $43 forward single #
face $-1 $44 $45 $24 $-1 $46 forward single #
face $-1 $47 $48 $25 $-1 $49 reversed single #
face $-1 $50 $51 $26 $-1 $52 forward single #
face $-1 $53 $54 $27 $-1 $55 forward single #
face $-1 $56 $57 $21 $-1 $58 reversed single #
loop $-1 $-1 $59 $28 #
plane-surface $-1 0 0 15.663710321775993 0 0 1 1 0 0 forward_v I I I I #
face $-1 $60 $61 $22 $-1 $62 reversed single #
loop $-1 $-1 $63 $29 #
plane-surface $-1 -186.18744887600639 -10.672605099787546 128.38286247726236 0 1 0 -0.66913061440640931 0 0.74314481823134659 forward_v I I I I #
face $-1 $64 $65 $23 $-1 $66 forward single #
loop $-1 $67 $68 $30 #
cone-surface $-1 -75.632755503265813 -7.6232893569911013 11.885312002403621 0.66913061440640931 0 -0.74314481823134659 0.74314481823134659 0 0.66913061440640931 1 I I 0 1 1 forward I I I I #
face $-1 $69 $70 $24 $-1 $71 forward single #
loop $-1 $72 $73 $31 #
cone-surface $-1 -75.632755503265813 -3.0493157427964377 11.885312002403621 0.66913061440640931 0 -0.74314481823134659 0.74314481823134659 0 0.66913061440640931 1 I I 0 1 1 forward I I I I #
face $-1 $74 $75 $25 $-1 $76 reversed single #
loop $-1 $-1 $77 $32 #
plane-surface $-1 -79.626453444013777 -5.3363025498937731 10.034889935145529 -0.66913061440640931 0 0.74314481823134659 0.74314481823134659 0 0.66913061440640931 forward_v I I I I #
face $-1 $78 $79 $26 $-1 $80 forward single #
loop $-1 $81 $82 $33 #
cone-surface $-1 -75.632755503265813 3.0493157427964448 11.885312002403621 0.66913061440640931 0 -0.74314481823134659 0.74314481823134659 0 0.66913061440640931 1 I I 0 1 1 forward I I I I #
face $-1 $83 $84 $27 $-1 $85 forward single #
loop $-1 $86 $87 $34 #
cone-surface $-1 -75.632755503265813 7.6232893569911084 11.885312002403621 0.66913061440640931 0 -0.74314481823134659 0.74314481823134659 0 0.66913061440640931 1 I I 0 1 1 forward I I I I #
face $-1 $88 $89 $21 $-1 $90 reversed single #
loop $-1 $-1 $91 $35 #
plane-surface $-1 0 0 -15.663710321775993 0 0 1 1 0 0 forward_v I I I I #
coedge $-1 $92 $93 $94 $95 forward $36 $-1 #
face $-1 $96 $97 $22 $-1 $98 reversed single #
loop $-1 $-1 $99 $38 #
plane-surface $-1 -79.626453444013777 -5.3363025498937731 10.034889935145529 -0.66913061440640931 0 0.74314481823134659 0.74314481823134659 0 0.66913061440640931 forward_v I I I I #
coedge $-1 $100 $101 $102 $103 reversed $39 $-1 #
face $-1 $-1 $104 $23 $-1 $105 forward single #
loop $-1 $106 $107 $41 #
cone-surface $-1 -74.430211369803345 -7.6232893569911013 10.549751467230807 0.66913061440640931 0 -0.74314481823134659 0.3715724091156733 0 0.33456530720320465 1 I I -0.70710678118654746 0.70710678118654746 0.5 forward I I I I #
loop $-1 $-1 $108 $30 #
coedge $-1 $68 $68 $109 $110 reversed $42 $-1 #
face $-1 $-1 $111 $24 $-1 $112 forward single #
loop $-1 $113 $114 $44 #
cone-surface $-1 -74.430211369803345 -3.0493157427964377 10.549751467230807 0.66913061440640931 0 -0.74314481823134659 0.3715724091156733 0 0.33456530720320465 1 I I -0.70710678118654746 0.70710678118654746 0.5 forward I I I I #
loop $-1 $-1 $115 $31 #
coedge $-1 $73 $73 $116 $117 reversed $45 $-1 #
face $-1 $118 $119 $25 $-1 $120 forward single #
loop $-1 $-1 $121 $47 #
plane-surface $-1 -186.18744887600639 10.672605099787546 128.38286247726236 0 -1 0 0.66913061440640931 0 -0.74314481823134659 forward_v I I I I #
coedge $-1 $122 $123 $124 $125 reversed $48 $-1 #
face $-1 $-1 $126 $26 $-1 $127 forward single #
loop $-1 $128 $129 $50 #
cone-surface $-1 -74.430211369803345 3.0493157427964448 10.549751467230807 0.66913061440640931 0 -0.74314481823134659 0.3715724091156733 0 0.33456530720320465 1 I I -0.70710678118654746 0.70710678118654746 0.5 forward I I I I #
loop $-1 $-1 $130 $33 #
coedge $-1 $82 $82 $131 $132 reversed $51 $-1 #
face $-1 $-1 $133 $27 $-1 $134 forward single #
loop $-1 $135 $136 $53 #
cone-surface $-1 -74.430211369803345 7.6232893569911084 10.549751467230807 0.66913061440640931 0 -0.74314481823134659 0.3715724091156733 0 0.33456530720320465 1 I I -0.70710678118654746 0.70710678118654746 0.5 forward I I I I #
loop $-1 $-1 $137 $34 #
coedge $-1 $87 $87 $138 $139 reversed $54 $-1 #
face $-1 $140 $141 $21 $-1 $142 reversed single #
loop $-1 $-1 $143 $56 #
plane-surface $-1 0 -42.562863004605298 0 0 1 0 0 0 1 forward_v I I I I #
coedge $-1 $144 $145 $146 $147 forward $57 $-1 #
coedge $-1 $148 $59 $149 $150 forward $36 $-1 #
coedge $-1 $59 $148 $151 $152 forward $36 $-1 #
coedge $-1 $153 $154 $59 $95 reversed $155 $-1 #
edge $-1 $156 -42.562863004605298 $157 42.562863004605298 $94 $158 forward 7 unknown #
face $-1 $159 $160 $22 $-1 $161 reversed single #
loop $-1 $-1 $162 $60 #
plane-surface $-1 -186.18744887600639 0 128.38286247726236 0 -1 0 0.66913061440640931 0 -0.74314481823134659 forward_v I I I I #
coedge $-1 $163 $164 $165 $166 reversed $61 $-1 #
coedge $-1 $101 $63 $167 $168 reversed $39 $-1 #
coedge $-1 $63 $100 $163 $169 reversed $39 $-1 #
coedge $-1 $165 $170 $63 $103 forward $171 $-1 #
edge $-1 $172 13.467270993989388 $173 19.718709222966865 $102 $174 forward 7 unknown #
loop $-1 $-1 $109 $64 #
plane-surface $-1 -79.626453444013777 -5.3363025498937731 10.034889935145529 -0.66913061440640931 0 0.74314481823134659 0.74314481823134659 0 0.66913061440640931 forward_v I I I I #
loop $-1 $-1 $175 $41 #
coedge $-1 $107 $107 $108 $176 reversed $65 $-1 #
coedge $-1 $108 $108 $107 $176 forward $67 $-1 #
coedge $-1 $109 $109 $68 $110 forward $104 $-1 #
edge $-1 $177 0 $177 6.2831853071796004 $109 $178 forward 7 unknown #
loop $-1 $-1 $116 $69 #
plane-surface $-1 -79.626453444013777 -5.3363025498937731 10.034889935145529 -0.66913061440640931 0 0.74314481823134659 0.74314481823134659 0 0.66913061440640931 forward_v I I I I #
loop $-1 $-1 $179 $44 #
coedge $-1 $114 $114 $115 $180 reversed $70 $-1 #
coedge $-1 $115 $115 $114 $180 forward $72 $-1 #
coedge $-1 $116 $116 $73 $117 forward $111 $-1 #
edge $-1 $181 0 $181 6.2831853071796004 $116 $182 forward 7 unknown #
face $-1 $183 $184 $25 $-1 $185 forward single #
loop $-1 $-1 $186 $74 #
plane-surface $-1 0 0 15.663710321775993 0 0 1 1 0 0 forward_v I I I I #
coedge $-1 $187 $188 $189 $190 reversed $75 $-1 #
coedge $-1 $191 $77 $192 $193 reversed $48 $-1 #
coedge $-1 $77 $191 $186 $194 reversed $48 $-1 #
coedge $-1 $195 $196 $77 $125 forward $184 $-1 #
edge $-1 $197 -3.7762052495422576e-014 $198 8.4121399700473027 $124 $199 forward 7 unknown #
loop $-1 $-1 $131 $78 #
plane-surface $-1 -79.626453444013777 -5.3363025498937731 10.034889935145529 -0.66913061440640931 0 0.74314481823134659 0.74314481823134659 0 0.66913061440640931 forward_v I I I I #
loop $-1 $-1 $200 $50 #
coedge $-1 $129 $129 $130 $201 reversed $79 $-1 #
coedge $-1 $130 $130 $129 $201 forward $81 $-1 #
coedge $-1 $131 $131 $82 $132 forward $126 $-1 #
edge $-1 $202 0 $202 6.2831853071796004 $131 $203 forward 7 unknown #
loop $-1 $-1 $138 $83 #
plane-surface $-1 -79.626453444013777 -5.3363025498937731 10.034889935145529 -0.66913061440640931 0 0.74314481823134659 0.74314481823134659 0 0.66913061440640931 forward_v I I I I #
loop $-1 $-1 $204 $53 #
coedge $-1 $136 $136 $137 $205 reversed $84 $-1 #
coedge $-1 $137 $137 $136 $205 forward $86 $-1 #
coedge $-1 $138 $138 $87 $139 forward $133 $-1 #
edge $-1 $206 0 $206 6.2831853071796004 $138 $207 forward 7 unknown #
face $-1 $208 $209 $21 $-1 $210 reversed single #
loop $-1 $-1 $211 $88 #
plane-surface $-1 -79.626453444013805 0 0 1 0 0 0 0 -1 forward_v I I I I #
coedge $-1 $212 $151 $213 $214 forward $89 $-1 #
coedge $-1 $215 $91 $212 $216 forward $57 $-1 #
coedge $-1 $91 $215 $217 $218 forward $57 $-1 #
coedge $-1 $154 $153 $91 $147 reversed $155 $-1 #
edge $-1 $219 -42.562863004605298 $220 42.562863004605298 $146 $221 forward 7 unknown #
coedge $-1 $93 $92 $222 $223 forward $36 $-1 #
coedge $-1 $224 $225 $92 $150 reversed $209 $-1 #
edge $-1 $157 -79.626453444013805 $226 79.626453444013805 $149 $227 forward 7 unknown #
coedge $-1 $143 $228 $93 $152 reversed $89 $-1 #
edge $-1 $229 -79.626453444013805 $156 79.626453444013805 $151 $230 forward 7 unknown #
coedge $-1 $146 $94 $228 $231 forward $155 $-1 #
coedge $-1 $94 $146 $224 $232 reversed $155 $-1 #
loop $-1 $-1 $153 $208 #
vertex $-1 $95 $233 #
vertex $-1 $95 $234 #
straight-curve $-1 79.626453444013805 0 15.663710321775993 0 1 0 I I #
face $-1 $-1 $171 $22 $-1 $235 forward single #
loop $-1 $-1 $236 $96 #
plane-surface $-1 -79.626453444013805 0 0 1 0 0 0 0 -1 forward_v I I I I #
coedge $-1 $237 $238 $239 $240 reversed $97 $-1 #
coedge $-1 $241 $99 $101 $169 forward $61 $-1 #
coedge $-1 $99 $241 $237 $242 forward $61 $-1 #
coedge $-1 $239 $102 $99 $166 forward $171 $-1 #
edge $-1 $173 -8.0044538248406596 $243 2.6681512749468865 $165 $244 forward 7 unknown #
coedge $-1 $245 $246 $100 $168 forward $160 $-1 #
edge $-1 $247 -54.156541303485682 $172 -48.527720916855188 $167 $248 forward 7 unknown #
edge $-1 $173 -8.4121399700473027 $247 3.7762052495422576e-014 $101 $249 forward 7 unknown #
coedge $-1 $102 $239 $245 $250 forward $171 $-1 #
loop $-1 $-1 $239 $159 #
vertex $-1 $168 $251 #
vertex $-1 $103 $252 #
straight-curve $-1 -93.093724438003193 -10.672605099787546 15.663710321775994 1 0 0 I I #
coedge $-1 $175 $175 $-1 $253 reversed $106 $-1 #
edge $-1 $254 0 $254 6.2831853071796004 $107 $255 forward 7 unknown #
vertex $-1 $110 $256 #
ellipse-curve $-1 -76.500734329525059 -7.6232893569911013 12.849300128460751 -0.66913061440640931 0 0.74314481823134659 0.74314481823134659 0 0.66913061440640931 1 I I #
coedge $-1 $179 $179 $-1 $257 reversed $113 $-1 #
edge $-1 $258 0 $258 6.2831853071796004 $114 $259 forward 7 unknown #
vertex $-1 $117 $260 #
ellipse-curve $-1 -76.500734329525059 -3.0493157427964377 12.849300128460751 -0.66913061440640931 0 0.74314481823134659 0.74314481823134659 0 0.66913061440640931 1 I I #
face $-1 $-1 $261 $25 $-1 $262 reversed single #
loop $-1 $-1 $195 $118 #
plane-surface $-1 -186.18744887600639 0 128.38286247726236 0 -1 0 0.66913061440640931 0 -0.74314481823134659 forward_v I I I I #
coedge $-1 $189 $263 $123 $194 forward $119 $-1 #
coedge $-1 $188 $121 $191 $264 reversed $75 $-1 #
coedge $-1 $121 $187 $265 $266 reversed $75 $-1 #
coedge $-1 $267 $186 $121 $190 forward $119 $-1 #
edge $-1 $268 -19.718709222966865 $269 -13.467270993989388 $189 $270 forward 7 unknown #
coedge $-1 $123 $122 $187 $264 forward $48 $-1 #
coedge $-1 $271 $265 $122 $193 forward $261 $-1 #
edge $-1 $272 -13.340756374734433 $197 -2.6681512749468865 $192 $273 forward 7 unknown #
edge $-1 $198 2.6681512749468865 $268 13.340756374734433 $186 $274 forward 7 unknown #
coedge $-1 $196 $124 $263 $275 reversed $184 $-1 #
coedge $-1 $124 $195 $271 $276 reversed $184 $-1 #
vertex $-1 $193 $277 #
vertex $-1 $194 $278 #
straight-curve $-1 -79.626453444013777 0 10.034889935145529 0.74314481823134659 0 0.66913061440640931 I I #
coedge $-1 $200 $200 $-1 $279 reversed $128 $-1 #
edge $-1 $280 0 $280 6.2831853071796004 $129 $281 forward 7 unknown #
vertex $-1 $132 $282 #
ellipse-curve $-1 -76.500734329525059 3.0493157427964448 12.849300128460751 -0.66913061440640931 0 0.74314481823134659 0.74314481823134659 0 0.66913061440640931 1 I I #
coedge $-1 $204 $204 $-1 $283 reversed $135 $-1 #
edge $-1 $284 0 $284 6.2831853071796004 $136 $285 forward 7 unknown #
vertex $-1 $139 $286 #
ellipse-curve $-1 -76.500734329525059 7.6232893569911084 12.849300128460751 -0.66913061440640931 0 0.74314481823134659 0.74314481823134659 0 0.66913061440640931 1 I I #
face $-1 $-1 $155 $21 $-1 $287 reversed single #
loop $-1 $-1 $224 $140 #
plane-surface $-1 0 42.562863004605298 0 0 -1 0 0 0 -1 forward_v I I I I #
coedge $-1 $288 $222 $225 $289 forward $141 $-1 #
coedge $-1 $228 $143 $144 $216 reversed $89 $-1 #
coedge $-1 $222 $288 $143 $214 reversed $141 $-1 #
edge $-1 $229 -15.663710321775993 $290 15.663710321775993 $213 $291 forward 7 unknown #
coedge $-1 $145 $144 $288 $292 forward $57 $-1 #
edge $-1 $220 -79.626453444013805 $290 79.626453444013805 $212 $293 forward 7 unknown #
coedge $-1 $225 $224 $145 $218 reversed $209 $-1 #
edge $-1 $294 -79.626453444013805 $219 79.626453444013805 $217 $295 forward 7 unknown #
vertex $-1 $147 $296 #
vertex $-1 $231 $297 #
straight-curve $-1 79.626453444013805 0 -15.663710321775993 0 -1 0 I I #
coedge $-1 $211 $213 $148 $223 reversed $141 $-1 #
edge $-1 $226 -42.562863004605298 $229 42.562863004605298 $222 $298 forward 7 unknown #
coedge $-1 $217 $149 $154 $232 forward $209 $-1 #
coedge $-1 $149 $217 $211 $289 reversed $209 $-1 #
vertex $-1 $150 $299 #
straight-curve $-1 0 42.562863004605298 15.663710321775993 -1 0 0 I I #
coedge $-1 $151 $212 $153 $231 reversed $89 $-1 #
vertex $-1 $223 $300 #
straight-curve $-1 0 -42.562863004605298 15.663710321775993 1 0 0 I I #
edge $-1 $156 -15.663710321775993 $220 15.663710321775993 $153 $301 forward 7 unknown #
edge $-1 $157 -15.663710321775993 $219 15.663710321775993 $154 $302 forward 7 unknown #
point $-1 79.626453444013805 -42.562863004605298 15.663710321775993 #
point $-1 79.626453444013805 42.562863004605298 15.663710321775993 #
plane-surface $-1 0 0 15.663710321775993 0 0 1 1 0 0 forward_v I I I I #
coedge $-1 $246 $245 $238 $303 forward $160 $-1 #
coedge $-1 $238 $162 $164 $242 reversed $97 $-1 #
coedge $-1 $162 $237 $236 $303 reversed $97 $-1 #
coedge $-1 $170 $165 $162 $240 forward $171 $-1 #
edge $-1 $243 -19.718709222966865 $304 -13.467270993989388 $239 $305 forward 7 unknown #
coedge $-1 $164 $163 $246 $306 reversed $61 $-1 #
edge $-1 $307 -3.7762052495422576e-014 $243 8.4121399700473027 $237 $308 forward 7 unknown #
vertex $-1 $166 $309 #
straight-curve $-1 -73.375015215036342 -2.6681512749468865 15.663710321775991 0 1 0 I I #
coedge $-1 $236 $167 $170 $250 reversed $160 $-1 #
coedge $-1 $167 $236 $241 $306 forward $160 $-1 #
vertex $-1 $168 $310 #
straight-curve $-1 -79.626453444013805 -10.672605099787546 64.191431238631182 0 0 1 I I #
straight-curve $-1 -79.626453444013777 -10.672605099787546 10.034889935145529 -0.74314481823134659 0 -0.66913061440640931 I I #
edge $-1 $304 0 $172 10.672605099787546 $245 $311 forward 7 unknown #
point $-1 -79.626453444013805 -10.672605099787546 15.663710321775993 #
point $-1 -73.375015215036328 -10.672605099787546 15.663710321775993 #
edge $-1 $312 1 $312 0 $175 $-1 forward 7 unknown #
vertex $-1 $176 $313 #
ellipse-curve $-1 -74.764776677006552 -7.6232893569911013 10.921323876346481 -0.66913061440640931 0 0.74314481823134659 0.74314481823134659 0 0.66913061440640931 1 I I #
point $-1 -75.75758951129373 -7.6232893569911013 13.518430742867171 #
edge $-1 $314 1 $314 0 $179 $-1 forward 7 unknown #
vertex $-1 $180 $315 #
ellipse-curve $-1 -74.764776677006552 -3.0493157427964377 10.921323876346481 -0.66913061440640931 0 0.74314481823134659 0.74314481823134659 0 0.66913061440640931 1 I I #
point $-1 -75.75758951129373 -3.0493157427964377 13.518430742867171 #
loop $-1 $-1 $192 $183 #
plane-surface $-1 -79.626453444013805 0 0 1 0 0 0 0 -1 forward_v I I I I #
coedge $-1 $186 $267 $195 $275 forward $119 $-1 #
edge $-1 $272 -3.7762052495422576e-014 $268 8.4121399700473027 $187 $316 forward 7 unknown #
coedge $-1 $192 $317 $188 $266 forward $261 $-1 #
edge $-1 $269 48.527720916855188 $272 54.156541303485682 $265 $318 forward 7 unknown #
coedge $-1 $263 $189 $317 $319 forward $119 $-1 #
vertex $-1 $190 $320 #
vertex $-1 $319 $321 #
straight-curve $-1 -93.093724438003193 10.672605099787546 15.663710321775994 -1 0 0 I I #
coedge $-1 $317 $192 $196 $276 forward $261 $-1 #
vertex $-1 $266 $322 #
straight-curve $-1 -79.626453444013805 -2.6681512749468865 10.0348899351455 0 -1 0 I I #
straight-curve $-1 -73.375015215036342 -2.6681512749468865 15.663710321775991 0 1 0 I I #
edge $-1 $323 13.467270993989388 $198 19.718709222966865 $263 $324 forward 7 unknown #
edge $-1 $197 -54.156541303485682 $323 -48.527720916855188 $271 $325 forward 7 unknown #
point $-1 -79.626453444013805 0 10.034889935145504 #
point $-1 -73.375015215036328 0 15.663710321775993 #
edge $-1 $326 1 $326 0 $200 $-1 forward 7 unknown #
vertex $-1 $201 $327 #
ellipse-curve $-1 -74.764776677006552 3.0493157427964448 10.921323876346481 -0.66913061440640931 0 0.74314481823134659 0.74314481823134659 0 0.66913061440640931 1 I I #
point $-1 -75.75758951129373 3.0493157427964448 13.518430742867171 #
edge $-1 $328 1 $328 0 $204 $-1 forward 7 unknown #
vertex $-1 $205 $329 #
ellipse-curve $-1 -74.764776677006552 7.6232893569911084 10.921323876346481 -0.66913061440640931 0 0.74314481823134659 0.74314481823134659 0 0.66913061440640931 1 I I #
point $-1 -75.75758951129373 7.6232893569911084 13.518430742867171 #
plane-surface $-1 79.626453444013805 0 0 -1 0 0 0 0 1 forward_v I I I I #
coedge $-1 $213 $211 $215 $292 reversed $141 $-1 #
edge $-1 $226 -15.663710321775993 $294 15.663710321775993 $225 $330 forward 7 unknown #
vertex $-1 $292 $331 #
straight-curve $-1 -79.626453444013805 -42.562863004605298 0 0 0 -1 I I #
edge $-1 $290 -42.562863004605298 $294 42.562863004605298 $288 $332 forward 7 unknown #
straight-curve $-1 0 -42.562863004605298 -15.663710321775993 -1 0 0 I I #
vertex $-1 $218 $333 #
straight-curve $-1 0 42.562863004605298 -15.663710321775993 1 0 0 I I #
point $-1 79.626453444013805 42.562863004605298 -15.663710321775993 #
point $-1 79.626453444013805 -42.562863004605298 -15.663710321775993 #
straight-curve $-1 -79.626453444013805 0 15.663710321775993 0 -1 0 I I #
point $-1 -79.626453444013805 42.562863004605298 15.663710321775993 #
point $-1 -79.626453444013805 -42.562863004605298 15.663710321775993 #
straight-curve $-1 79.626453444013805 -42.562863004605298 0 0 0 -1 I I #
straight-curve $-1 79.626453444013805 42.562863004605298 0 0 0 -1 I I #
edge $-1 $304 48.527720916855188 $307 54.156541303485682 $236 $334 forward 7 unknown #
vertex $-1 $250 $335 #
straight-curve $-1 -93.093724438003193 0 15.663710321775994 -1 0 0 I I #
edge $-1 $307 -2.6681512749468865 $247 8.0044538248406596 $246 $336 forward 7 unknown #
vertex $-1 $306 $337 #
straight-curve $-1 -79.626453444013777 0 10.034889935145529 0.74314481823134659 0 0.66913061440640931 I I #
point $-1 -73.375015215036328 0 15.663710321775993 #
point $-1 -79.626453444013805 -10.672605099787546 10.034889935145504 #
straight-curve $-1 -79.626453444013805 0 15.663710321775993 0 -1 0 I I #
vertex $-1 $253 $338 #
point $-1 -74.021631858775208 -7.6232893569911013 11.59045449075289 #
vertex $-1 $257 $339 #
point $-1 -74.021631858775208 -3.0493157427964377 11.59045449075289 #
straight-curve $-1 -79.626453444013777 10.672605099787546 10.034889935145529 0.74314481823134659 0 0.66913061440640931 I I #
coedge $-1 $265 $271 $267 $319 reversed $261 $-1 #
straight-curve $-1 -79.626453444013805 10.672605099787546 64.191431238631182 0 0 -1 I I #
edge $-1 $269 -10.672605099787546 $323 0 $317 $340 forward 7 unknown #
point $-1 -73.375015215036328 10.672605099787546 15.663710321775993 #
point $-1 -79.626453444013805 10.672605099787546 15.663710321775993 #
point $-1 -79.626453444013805 10.672605099787546 10.034889935145504 #
vertex $-1 $276 $341 #
straight-curve $-1 -93.093724438003193 0 15.663710321775994 1 0 0 I I #
straight-curve $-1 -79.626453444013805 0 64.191431238631182 0 0 1 I I #
vertex $-1 $279 $342 #
point $-1 -74.021631858775208 3.0493157427964448 11.59045449075289 #
vertex $-1 $283 $343 #
point $-1 -74.021631858775208 7.6232893569911084 11.59045449075289 #
straight-curve $-1 -79.626453444013805 42.562863004605298 0 0 0 -1 I I #
point $-1 -79.626453444013805 -42.562863004605298 -15.663710321775993 #
straight-curve $-1 -79.626453444013805 0 -15.663710321775993 0 1 0 I I #
point $-1 -79.626453444013805 42.562863004605298 -15.663710321775993 #
straight-curve $-1 -79.626453444013805 0 64.191431238631182 0 0 -1 I I #
point $-1 -79.626453444013805 0 15.663710321775993 #
straight-curve $-1 -79.626453444013805 -2.6681512749468865 10.0348899351455 0 -1 0 I I #
point $-1 -79.626453444013805 0 10.034889935145504 #
point $-1 -74.095646062600139 -7.6232893569911013 10.178179058115134 #
point $-1 -74.095646062600139 -3.0493157427964377 10.178179058115134 #
straight-curve $-1 -79.626453444013805 0 15.663710321775993 0 -1 0 I I #
point $-1 -79.626453444013805 0 15.663710321775993 #
point $-1 -74.095646062600139 3.0493157427964448 10.178179058115134 #
point $-1 -74.095646062600139 7.6232893569911084 10.178179058115134 #
End-of-ACIS-data 