500 0 9 0           
7 Unknown 11 ACIS 5.0 NT 24 Thu Mar 25 22:05:21 1999 
-1 9.9999999999999995e-007 1e-010 
body $-1 $9 $-1 $10 #
body $-1 $11 $-1 $12 #
body $-1 $13 $-1 $14 #
body $-1 $15 $-1 $16 #
body $-1 $17 $-1 $18 #
body $-1 $19 $-1 $20 #
body $-1 $21 $-1 $22 #
body $-1 $23 $-1 $24 #
body $-1 $25 $-1 $26 #
lump $-1 $-1 $27 $0 #
transform $-1 1 0 0 0 1 0 0 0 1 76.905423139133887 51.970716730617866 20.942611187559173 1 rotate no_reflect no_shear #
lump $-1 $-1 $28 $1 #
transform $-1 1 0 0 0 1 0 0 0 1 76.905423139133887 51.970716730617866 20.942611187559173 1 rotate no_reflect no_shear #
lump $-1 $-1 $29 $2 #
transform $-1 1 0 0 0 1 0 0 0 1 76.905423139133887 51.970716730617866 20.942611187559173 1 rotate no_reflect no_shear #
lump $-1 $-1 $30 $3 #
transform $-1 1 0 0 0 1 0 0 0 1 76.905423139133887 51.970716730617866 20.942611187559173 1 rotate no_reflect no_shear #
lump $-1 $-1 $31 $4 #
transform $-1 1 0 0 0 1 0 0 0 1 76.905423139133887 51.970716730617866 20.942611187559173 1 rotate no_reflect no_shear #
lump $-1 $-1 $32 $5 #
transform $-1 1 0 0 0 1 0 0 0 1 76.905423139133887 51.970716730617866 20.942611187559173 1 rotate no_reflect no_shear #
lump $-1 $-1 $33 $6 #
transform $-1 1 0 0 0 1 0 0 0 1 76.905423139133887 51.970716730617866 20.942611187559173 1 rotate no_reflect no_shear #
lump $-1 $-1 $34 $7 #
transform $-1 1 0 0 0 1 0 0 0 1 76.905423139133887 51.970716730617866 20.942611187559173 1 rotate no_reflect no_shear #
lump $-1 $-1 $35 $8 #
transform $-1 1 0 0 0 1 0 0 0 1 76.905423139133887 51.970716730617866 20.942611187559173 1 rotate no_reflect no_shear #
shell $-1 $-1 $-1 $36 $-1 $9 #
shell $-1 $-1 $-1 $37 $-1 $11 #
shell $-1 $-1 $-1 $38 $-1 $13 #
shell $-1 $-1 $-1 $39 $-1 $15 #
shell $-1 $-1 $-1 $40 $-1 $17 #
shell $-1 $-1 $-1 $41 $-1 $19 #
shell $-1 $-1 $-1 $42 $-1 $21 #
shell $-1 $-1 $-1 $43 $-1 $23 #
shell $-1 $-1 $-1 $44 $-1 $25 #
face $-1 $45 $46 $27 $-1 $47 forward single #
face $-1 $48 $49 $28 $-1 $50 reversed single #
face $-1 $51 $52 $29 $-1 $53 forward single #
face $-1 $54 $55 $30 $-1 $56 reversed single #
face $-1 $57 $58 $31 $-1 $59 forward single #
face $-1 $60 $61 $32 $-1 $62 forward single #
face $-1 $63 $64 $33 $-1 $65 reversed single #
face $-1 $66 $67 $34 $-1 $68 forward single #
face $-1 $69 $70 $35 $-1 $71 forward single #
face $-1 $72 $73 $27 $-1 $74 reversed single #
loop $-1 $-1 $75 $36 #
plane-surface $-1 0 0 20.942611187559173 0 0 1 1 0 0 forward_v I I I I #
face $-1 $76 $77 $28 $-1 $78 reversed single #
loop $-1 $-1 $79 $37 #
plane-surface $-1 47.613908448713083 45.330713993580218 201.99739335990955 1 0 0 0 -0.52991927123019833 -0.84804809178421925 forward_v I I I I #
face $-1 $80 $81 $29 $-1 $82 forward single #
loop $-1 $83 $84 $38 #
cone-surface $-1 62.259665793923489 47.592050623679867 17.420199872814059 0 -0.52991927123019833 -0.84804809178421925 1 0 0 1 I I 0 1 1 forward I I I I #
face $-1 $85 $86 $30 $-1 $87 reversed single #
loop $-1 $-1 $88 $39 #
plane-surface $-1 -45.208507611568955 -144.53639591647664 128.91203196946248 -1 0 0 0 -0.6018150307709319 0.79863550430605224 forward_v I I I I #
face $-1 $89 $90 $31 $-1 $91 forward single #
loop $-1 $92 $93 $40 #
cone-surface $-1 -66.29195791397197 -41.439249902234685 12.625038836077604 0 0.6018150307709319 -0.79863550430605224 1.5 0 0 1 I I 0 1 1.5 forward I I I I #
face $-1 $94 $95 $32 $-1 $96 forward single #
loop $-1 $97 $98 $41 #
cone-surface $-1 -53.641887732530158 -41.439249902234685 12.625038836077604 0 0.6018150307709319 -0.79863550430605224 1.5 0 0 1 I I 0 1 1.5 forward I I I I #
face $-1 $99 $100 $33 $-1 $101 reversed single #
loop $-1 $-1 $102 $42 #
plane-surface $-1 74.725338034933202 -144.53639591647664 128.91203196946248 -1 0 0 0 -0.6018150307709319 0.79863550430605224 forward_v I I I I #
face $-1 $103 $104 $34 $-1 $105 forward single #
loop $-1 $106 $107 $43 #
cone-surface $-1 53.641887732530165 -41.439249902234685 12.625038836077604 0 0.6018150307709319 -0.79863550430605224 1.5 0 0 1 I I 0 1 1.5 forward I I I I #
face $-1 $108 $109 $35 $-1 $110 forward single #
loop $-1 $111 $112 $44 #
cone-surface $-1 66.29195791397197 -41.439249902234685 12.625038836077604 0 0.6018150307709319 -0.79863550430605224 1.5 0 0 1 I I 0 1 1.5 forward I I I I #
face $-1 $113 $114 $27 $-1 $115 reversed single #
loop $-1 $-1 $116 $45 #
plane-surface $-1 0 0 -20.942611187559173 0 0 1 1 0 0 forward_v I I I I #
coedge $-1 $117 $118 $119 $120 forward $46 $-1 #
face $-1 $121 $122 $28 $-1 $123 forward single #
loop $-1 $-1 $124 $48 #
plane-surface $-1 62.259665793923489 -36.176617573499499 71.558398677908684 0 0.52991927123019833 0.84804809178421925 1 0 0 forward_v I I I I #
coedge $-1 $125 $126 $127 $128 reversed $49 $-1 #
face $-1 $-1 $129 $29 $-1 $130 forward single #
loop $-1 $131 $132 $51 #
cone-surface $-1 62.259665793923489 46.520996559060038 15.706155102202182 0 -0.52991927123019833 -0.84804809178421925 0.5 0 0 1 I I -0.70710678118654746 0.70710678118654746 0.5 forward I I I I #
loop $-1 $-1 $133 $38 #
coedge $-1 $84 $84 $134 $135 reversed $52 $-1 #
face $-1 $136 $137 $30 $-1 $138 reversed single #
loop $-1 $-1 $139 $54 #
plane-surface $-1 -59.966922823251068 -51.970716730617838 6.0732291842774089 0 -0.6018150307709319 0.79863550430605224 1 0 0 forward_v I I I I #
coedge $-1 $140 $141 $142 $143 reversed $55 $-1 #
face $-1 $-1 $144 $31 $-1 $145 forward single #
loop $-1 $146 $147 $57 #
cone-surface $-1 -66.29195791397197 -40.322589799018516 11.143180858007362 0 0.6018150307709319 -0.79863550430605224 0.75 0 0 1 I I -0.70710678118654757 0.70710678118654757 0.75 forward I I I I #
loop $-1 $-1 $148 $40 #
coedge $-1 $93 $93 $149 $150 reversed $58 $-1 #
face $-1 $-1 $151 $32 $-1 $152 forward single #
loop $-1 $153 $154 $60 #
cone-surface $-1 -53.641887732530158 -40.322589799018516 11.143180858007362 0 0.6018150307709319 -0.79863550430605224 0.75 0 0 1 I I -0.70710678118654757 0.70710678118654757 0.75 forward I I I I #
loop $-1 $-1 $155 $41 #
coedge $-1 $98 $98 $156 $157 reversed $61 $-1 #
face $-1 $158 $159 $33 $-1 $160 reversed single #
loop $-1 $-1 $161 $63 #
plane-surface $-1 59.966922823251082 -51.970716730617838 6.0732291842774089 0 -0.6018150307709319 0.79863550430605224 1 0 0 forward_v I I I I #
coedge $-1 $162 $163 $164 $165 reversed $64 $-1 #
face $-1 $-1 $166 $34 $-1 $167 forward single #
loop $-1 $168 $169 $66 #
cone-surface $-1 53.641887732530165 -40.322589799018516 11.143180858007362 0 0.6018150307709319 -0.79863550430605224 0.75 0 0 1 I I -0.70710678118654757 0.70710678118654757 0.75 forward I I I I #
loop $-1 $-1 $170 $43 #
coedge $-1 $107 $107 $171 $172 reversed $67 $-1 #
face $-1 $-1 $173 $35 $-1 $174 forward single #
loop $-1 $175 $176 $69 #
cone-surface $-1 66.29195791397197 -40.322589799018516 11.143180858007362 0 0.6018150307709319 -0.79863550430605224 0.75 0 0 1 I I -0.70710678118654757 0.70710678118654757 0.75 forward I I I I #
loop $-1 $-1 $177 $44 #
coedge $-1 $112 $112 $178 $179 reversed $70 $-1 #
face $-1 $180 $181 $27 $-1 $182 reversed single #
loop $-1 $-1 $183 $72 #
plane-surface $-1 0 -51.970716730617866 0 0 1 0 0 0 1 forward_v I I I I #
coedge $-1 $184 $185 $186 $187 forward $73 $-1 #
coedge $-1 $188 $75 $189 $190 forward $46 $-1 #
coedge $-1 $75 $188 $191 $192 forward $46 $-1 #
coedge $-1 $193 $194 $75 $120 reversed $195 $-1 #
edge $-1 $196 -51.970716730617866 $197 51.970716730617866 $119 $198 forward 7 unknown #
face $-1 $199 $200 $28 $-1 $201 reversed single #
loop $-1 $-1 $127 $76 #
plane-surface $-1 0 0 20.942611187559173 0 0 1 1 0 0 forward_v I I I I #
coedge $-1 $202 $203 $204 $205 reversed $77 $-1 #
coedge $-1 $126 $79 $206 $207 reversed $49 $-1 #
coedge $-1 $79 $125 $202 $208 reversed $49 $-1 #
coedge $-1 $204 $209 $79 $128 forward $122 $-1 #
edge $-1 $210 -29.305359733827757 $211 -22.160216377961248 $127 $212 forward 7 unknown #
loop $-1 $-1 $134 $80 #
plane-surface $-1 62.259665793923489 -36.176617573499499 71.558398677908684 0 0.52991927123019833 0.84804809178421925 1 0 0 forward_v I I I I #
loop $-1 $-1 $213 $51 #
coedge $-1 $132 $132 $133 $214 reversed $81 $-1 #
coedge $-1 $133 $133 $132 $214 forward $83 $-1 #
coedge $-1 $134 $134 $84 $135 forward $129 $-1 #
edge $-1 $215 -2.2604412248058798e-015 $215 6.2831853071795978 $134 $216 forward 7 unknown #
face $-1 $217 $218 $30 $-1 $219 reversed single #
loop $-1 $-1 $220 $85 #
plane-surface $-1 -74.725338034933174 -144.53639591647664 128.91203196946248 1 0 0 0 0.6018150307709319 -0.79863550430605224 forward_v I I I I #
coedge $-1 $221 $222 $223 $224 reversed $86 $-1 #
coedge $-1 $141 $88 $225 $226 reversed $55 $-1 #
coedge $-1 $88 $140 $221 $227 reversed $55 $-1 #
coedge $-1 $223 $228 $88 $143 forward $229 $-1 #
edge $-1 $230 20.297481227620452 $231 40.029817224110928 $142 $232 forward 7 unknown #
loop $-1 $-1 $149 $89 #
plane-surface $-1 -59.966922823251068 -51.970716730617838 6.0732291842774089 0 -0.6018150307709319 0.79863550430605224 1 0 0 forward_v I I I I #
loop $-1 $-1 $233 $57 #
coedge $-1 $147 $147 $148 $234 reversed $90 $-1 #
coedge $-1 $148 $148 $147 $234 forward $92 $-1 #
coedge $-1 $149 $149 $93 $150 forward $144 $-1 #
edge $-1 $235 1.4791658294704109e-015 $235 6.2831853071796022 $149 $236 forward 7 unknown #
loop $-1 $-1 $156 $94 #
plane-surface $-1 -59.966922823251068 -51.970716730617838 6.0732291842774089 0 -0.6018150307709319 0.79863550430605224 1 0 0 forward_v I I I I #
loop $-1 $-1 $237 $60 #
coedge $-1 $154 $154 $155 $238 reversed $95 $-1 #
coedge $-1 $155 $155 $154 $238 forward $97 $-1 #
coedge $-1 $156 $156 $98 $157 forward $151 $-1 #
edge $-1 $239 1.4791658294704109e-015 $239 6.2831853071796022 $156 $240 forward 7 unknown #
face $-1 $241 $242 $33 $-1 $243 reversed single #
loop $-1 $-1 $244 $99 #
plane-surface $-1 45.208507611568969 -144.53639591647664 128.91203196946248 1 0 0 0 0.6018150307709319 -0.79863550430605224 forward_v I I I I #
coedge $-1 $245 $246 $247 $248 reversed $100 $-1 #
coedge $-1 $163 $102 $249 $250 reversed $64 $-1 #
coedge $-1 $102 $162 $245 $251 reversed $64 $-1 #
coedge $-1 $247 $252 $102 $165 forward $253 $-1 #
edge $-1 $254 20.297481227620452 $255 40.029817224110928 $164 $256 forward 7 unknown #
loop $-1 $-1 $171 $103 #
plane-surface $-1 59.966922823251082 -51.970716730617838 6.0732291842774089 0 -0.6018150307709319 0.79863550430605224 1 0 0 forward_v I I I I #
loop $-1 $-1 $257 $66 #
coedge $-1 $169 $169 $170 $258 reversed $104 $-1 #
coedge $-1 $170 $170 $169 $258 forward $106 $-1 #
coedge $-1 $171 $171 $107 $172 forward $166 $-1 #
edge $-1 $259 1.4791658294704109e-015 $259 6.2831853071796022 $171 $260 forward 7 unknown #
loop $-1 $-1 $178 $108 #
plane-surface $-1 59.966922823251082 -51.970716730617838 6.0732291842774089 0 -0.6018150307709319 0.79863550430605224 1 0 0 forward_v I I I I #
loop $-1 $-1 $261 $69 #
coedge $-1 $176 $176 $177 $262 reversed $109 $-1 #
coedge $-1 $177 $177 $176 $262 forward $111 $-1 #
coedge $-1 $178 $178 $112 $179 forward $173 $-1 #
edge $-1 $263 1.4791658294704109e-015 $263 6.2831853071796022 $178 $264 forward 7 unknown #
face $-1 $265 $266 $27 $-1 $267 reversed single #
loop $-1 $-1 $268 $113 #
plane-surface $-1 -76.905423139133887 0 0 1 0 0 0 0 -1 forward_v I I I I #
coedge $-1 $269 $191 $270 $271 forward $114 $-1 #
coedge $-1 $272 $116 $269 $273 forward $73 $-1 #
coedge $-1 $116 $272 $274 $275 forward $73 $-1 #
coedge $-1 $194 $193 $116 $187 reversed $195 $-1 #
edge $-1 $276 -51.970716730617866 $277 51.970716730617866 $186 $278 forward 7 unknown #
coedge $-1 $118 $117 $279 $280 forward $46 $-1 #
coedge $-1 $281 $282 $117 $190 reversed $266 $-1 #
edge $-1 $197 -76.905423139133887 $283 76.905423139133887 $189 $284 forward 7 unknown #
coedge $-1 $183 $285 $118 $192 reversed $114 $-1 #
edge $-1 $286 -76.905423139133887 $196 76.905423139133887 $191 $287 forward 7 unknown #
coedge $-1 $186 $119 $285 $288 forward $195 $-1 #
coedge $-1 $119 $186 $281 $289 reversed $195 $-1 #
loop $-1 $-1 $193 $265 #
vertex $-1 $120 $290 #
vertex $-1 $120 $291 #
straight-curve $-1 76.905423139133887 0 20.942611187559173 0 1 0 I I #
face $-1 $-1 $292 $28 $-1 $293 reversed single #
loop $-1 $-1 $206 $121 #
plane-surface $-1 0 51.970716730617866 0 0 -1 0 0 0 -1 forward_v I I I I #
coedge $-1 $294 $124 $126 $208 forward $77 $-1 #
coedge $-1 $124 $294 $295 $296 reversed $77 $-1 #
coedge $-1 $297 $127 $124 $205 forward $122 $-1 #
edge $-1 $211 16.484075551751339 $298 45.775590242172143 $204 $299 forward 7 unknown #
coedge $-1 $300 $301 $125 $207 forward $200 $-1 #
edge $-1 $302 -84.520866672446289 $210 -80.056085492395596 $206 $303 forward 7 unknown #
edge $-1 $211 95.516034683633706 $302 103.94143346123576 $126 $304 forward 7 unknown #
coedge $-1 $127 $297 $300 $305 forward $122 $-1 #
vertex $-1 $207 $306 #
vertex $-1 $128 $307 #
straight-curve $-1 47.613908448713083 22.665356996790109 20.94261118755918 0 -1 0 I I #
coedge $-1 $213 $213 $-1 $308 reversed $131 $-1 #
edge $-1 $309 0 $309 6.2831853071796004 $132 $310 forward 7 unknown #
vertex $-1 $135 $311 #
ellipse-curve $-1 62.259665793923489 48.398145052684605 18.710220597533834 0 0.52991927123019833 0.84804809178421925 1 0 0 1 I I #
face $-1 $-1 $229 $30 $-1 $312 forward single #
loop $-1 $-1 $313 $136 #
plane-surface $-1 0 -51.970716730617866 0 0 1 0 0 0 1 forward_v I I I I #
coedge $-1 $314 $315 $316 $317 reversed $137 $-1 #
coedge $-1 $318 $139 $141 $227 forward $86 $-1 #
coedge $-1 $139 $318 $314 $319 forward $86 $-1 #
coedge $-1 $316 $142 $139 $224 forward $229 $-1 #
edge $-1 $231 15.225046199943421 $320 44.74187662330764 $223 $321 forward 7 unknown #
coedge $-1 $322 $323 $140 $226 forward $218 $-1 #
edge $-1 $324 -58.38278680045385 $230 -43.513404797172065 $225 $325 forward 7 unknown #
edge $-1 $231 -24.707561697543373 $324 3.5527045195756588e-014 $141 $326 forward 7 unknown #
coedge $-1 $142 $316 $322 $327 forward $229 $-1 #
loop $-1 $-1 $316 $217 #
vertex $-1 $226 $328 #
vertex $-1 $143 $329 #
straight-curve $-1 -45.208507611568955 -72.268197958238318 20.942611187559173 0 1 0 I I #
coedge $-1 $233 $233 $-1 $330 reversed $146 $-1 #
edge $-1 $331 0 $331 6.2831853071796004 $147 $332 forward 7 unknown #
vertex $-1 $150 $333 #
ellipse-curve $-1 -66.29195791397197 -42.104548732372635 13.507920185918275 0 -0.6018150307709319 0.79863550430605224 1.5 0 0 1 I I #
coedge $-1 $237 $237 $-1 $334 reversed $153 $-1 #
edge $-1 $335 0 $335 6.2831853071796004 $154 $336 forward 7 unknown #
vertex $-1 $157 $337 #
ellipse-curve $-1 -53.641887732530158 -42.104548732372635 13.507920185918275 0 -0.6018150307709319 0.79863550430605224 1.5 0 0 1 I I #
face $-1 $-1 $253 $33 $-1 $338 forward single #
loop $-1 $-1 $339 $158 #
plane-surface $-1 0 -51.970716730617866 0 0 1 0 0 0 1 forward_v I I I I #
coedge $-1 $340 $341 $342 $343 reversed $159 $-1 #
coedge $-1 $344 $161 $163 $251 forward $100 $-1 #
coedge $-1 $161 $344 $340 $345 forward $100 $-1 #
coedge $-1 $342 $164 $161 $248 forward $253 $-1 #
edge $-1 $255 -44.741876623307661 $346 -15.225046199943428 $247 $347 forward 7 unknown #
coedge $-1 $348 $349 $162 $250 forward $242 $-1 #
edge $-1 $350 -58.38278680045385 $254 -43.513404797172065 $249 $351 forward 7 unknown #
edge $-1 $255 -24.707561697543373 $350 3.5527045195756588e-014 $163 $352 forward 7 unknown #
coedge $-1 $164 $342 $348 $353 forward $253 $-1 #
loop $-1 $-1 $342 $241 #
vertex $-1 $250 $354 #
vertex $-1 $165 $355 #
straight-curve $-1 74.725338034933202 -72.268197958238318 20.942611187559173 0 1 0 I I #
coedge $-1 $257 $257 $-1 $356 reversed $168 $-1 #
edge $-1 $357 0 $357 6.2831853071796004 $169 $358 forward 7 unknown #
vertex $-1 $172 $359 #
ellipse-curve $-1 53.641887732530165 -42.104548732372635 13.507920185918275 0 -0.6018150307709319 0.79863550430605224 1.5 0 0 1 I I #
coedge $-1 $261 $261 $-1 $360 reversed $175 $-1 #
edge $-1 $361 0 $361 6.2831853071796004 $176 $362 forward 7 unknown #
vertex $-1 $179 $363 #
ellipse-curve $-1 66.29195791397197 -42.104548732372635 13.507920185918275 0 -0.6018150307709319 0.79863550430605224 1.5 0 0 1 I I #
face $-1 $-1 $195 $27 $-1 $364 reversed single #
loop $-1 $-1 $281 $180 #
plane-surface $-1 0 51.970716730617866 0 0 -1 0 0 0 -1 forward_v I I I I #
coedge $-1 $365 $279 $282 $366 forward $181 $-1 #
coedge $-1 $285 $183 $184 $273 reversed $114 $-1 #
coedge $-1 $279 $365 $183 $271 reversed $181 $-1 #
edge $-1 $286 -20.942611187559173 $367 20.942611187559173 $270 $368 forward 7 unknown #
coedge $-1 $185 $184 $365 $369 forward $73 $-1 #
edge $-1 $277 -76.905423139133887 $367 76.905423139133887 $269 $370 forward 7 unknown #
coedge $-1 $282 $281 $185 $275 reversed $266 $-1 #
edge $-1 $371 -76.905423139133887 $276 76.905423139133887 $274 $372 forward 7 unknown #
vertex $-1 $187 $373 #
vertex $-1 $288 $374 #
straight-curve $-1 76.905423139133887 0 -20.942611187559173 0 -1 0 I I #
coedge $-1 $268 $270 $188 $280 reversed $181 $-1 #
edge $-1 $283 -51.970716730617866 $286 51.970716730617866 $279 $375 forward 7 unknown #
coedge $-1 $274 $189 $194 $289 forward $266 $-1 #
coedge $-1 $189 $274 $268 $366 reversed $266 $-1 #
vertex $-1 $190 $376 #
straight-curve $-1 0 51.970716730617866 20.942611187559173 -1 0 0 I I #
coedge $-1 $191 $269 $193 $288 reversed $114 $-1 #
vertex $-1 $280 $377 #
straight-curve $-1 0 -51.970716730617866 20.942611187559173 1 0 0 I I #
edge $-1 $196 -20.942611187559173 $277 20.942611187559173 $193 $378 forward 7 unknown #
edge $-1 $197 -20.942611187559173 $276 20.942611187559173 $194 $379 forward 7 unknown #
point $-1 76.905423139133887 -51.970716730617866 20.942611187559173 #
point $-1 76.905423139133887 51.970716730617866 20.942611187559173 #
loop $-1 $-1 $295 $199 #
plane-surface $-1 76.905423139133887 0 0 -1 0 0 0 0 1 forward_v I I I I #
coedge $-1 $203 $202 $301 $380 reversed $77 $-1 #
coedge $-1 $381 $382 $203 $296 forward $292 $-1 #
edge $-1 $298 61.216191694528177 $383 69.641590472130218 $295 $384 forward 7 unknown #
coedge $-1 $209 $204 $382 $385 forward $122 $-1 #
vertex $-1 $385 $386 #
straight-curve $-1 31.129832896961744 44.825573374751357 20.942611187559173 1 0 0 I I #
coedge $-1 $387 $206 $209 $305 reversed $200 $-1 #
coedge $-1 $206 $387 $294 $380 forward $200 $-1 #
vertex $-1 $207 $388 #
straight-curve $-1 47.613908448713083 51.970716730617866 100.99869667995478 0 0 1 I I #
straight-curve $-1 47.613908448713083 -36.176617573499499 71.558398677908684 0 0.84804809178421925 -0.52991927123019833 I I #
edge $-1 $389 -76.905423139133887 $210 -47.613908448713083 $300 $390 forward 7 unknown #
point $-1 47.613908448713083 51.970716730617866 20.942611187559173 #
point $-1 47.613908448713083 44.825573374751357 20.942611187559173 #
edge $-1 $391 1 $391 0 $213 $-1 forward 7 unknown #
vertex $-1 $214 $392 #
ellipse-curve $-1 62.259665793923489 46.785956194675137 16.130179148094292 0 0.52991927123019833 0.84804809178421925 1 0 0 1 I I #
point $-1 63.259665793923489 48.398145052684598 18.710220597533826 #
plane-surface $-1 0 0 20.942611187559173 0 0 1 1 0 0 forward_v I I I I #
coedge $-1 $323 $322 $315 $393 forward $218 $-1 #
coedge $-1 $315 $220 $222 $319 reversed $137 $-1 #
coedge $-1 $220 $314 $313 $393 reversed $137 $-1 #
coedge $-1 $228 $223 $220 $317 forward $229 $-1 #
edge $-1 $320 -40.029817224110928 $394 -20.297481227620452 $316 $395 forward 7 unknown #
coedge $-1 $222 $221 $323 $396 reversed $86 $-1 #
edge $-1 $397 -3.5527045195756588e-014 $320 24.707561697543373 $314 $398 forward 7 unknown #
vertex $-1 $224 $399 #
straight-curve $-1 -29.983461411625534 -32.238380734127389 20.942611187559173 -1 0 0 I I #
coedge $-1 $313 $225 $228 $327 reversed $218 $-1 #
coedge $-1 $225 $313 $318 $396 forward $218 $-1 #
vertex $-1 $226 $400 #
straight-curve $-1 -45.208507611568955 -51.970716730617866 64.456015984731238 0 0 1 I I #
straight-curve $-1 -45.208507611568955 -51.970716730617838 6.0732291842774089 0 -0.79863550430605224 -0.6018150307709319 I I #
edge $-1 $394 -74.725338034933174 $230 -45.208507611568955 $322 $401 forward 7 unknown #
point $-1 -45.208507611568955 -51.970716730617866 20.942611187559173 #
point $-1 -45.208507611568955 -32.238380734127389 20.942611187559173 #
edge $-1 $402 1 $402 0 $233 $-1 forward 7 unknown #
vertex $-1 $234 $403 #
ellipse-curve $-1 -66.29195791397197 -40.773951072096715 11.742157486236902 0 -0.6018150307709319 0.79863550430605224 1.5 0 0 1 I I #
point $-1 -64.79195791397197 -42.104548732372656 13.507920185918307 #
edge $-1 $404 1 $404 0 $237 $-1 forward 7 unknown #
vertex $-1 $238 $405 #
ellipse-curve $-1 -53.641887732530158 -40.773951072096715 11.742157486236902 0 -0.6018150307709319 0.79863550430605224 1.5 0 0 1 I I #
point $-1 -52.141887732530158 -42.104548732372656 13.507920185918307 #
plane-surface $-1 0 0 20.942611187559173 0 0 1 1 0 0 forward_v I I I I #
coedge $-1 $349 $348 $341 $406 forward $242 $-1 #
coedge $-1 $341 $244 $246 $345 reversed $159 $-1 #
coedge $-1 $244 $340 $339 $406 reversed $159 $-1 #
coedge $-1 $252 $247 $244 $343 forward $253 $-1 #
edge $-1 $346 -40.029817224110928 $407 -20.297481227620452 $342 $408 forward 7 unknown #
coedge $-1 $246 $245 $349 $409 reversed $100 $-1 #
edge $-1 $410 -3.5527045195756588e-014 $346 24.707561697543373 $340 $411 forward 7 unknown #
vertex $-1 $248 $412 #
straight-curve $-1 29.983461411625541 -32.238380734127389 20.942611187559173 -1 0 0 I I #
coedge $-1 $339 $249 $252 $353 reversed $242 $-1 #
coedge $-1 $249 $339 $344 $409 forward $242 $-1 #
vertex $-1 $250 $413 #
straight-curve $-1 74.725338034933202 -51.970716730617866 64.456015984731238 0 0 1 I I #
straight-curve $-1 74.725338034933202 -51.970716730617838 6.0732291842774089 0 -0.79863550430605224 -0.6018150307709319 I I #
edge $-1 $407 45.208507611568969 $254 74.725338034933202 $348 $414 forward 7 unknown #
point $-1 74.725338034933202 -51.970716730617866 20.942611187559173 #
point $-1 74.725338034933202 -32.238380734127389 20.942611187559173 #
edge $-1 $415 1 $415 0 $257 $-1 forward 7 unknown #
vertex $-1 $258 $416 #
ellipse-curve $-1 53.641887732530165 -40.773951072096715 11.742157486236902 0 -0.6018150307709319 0.79863550430605224 1.5 0 0 1 I I #
point $-1 55.141887732530165 -42.104548732372656 13.507920185918307 #
edge $-1 $417 1 $417 0 $261 $-1 forward 7 unknown #
vertex $-1 $262 $418 #
ellipse-curve $-1 66.29195791397197 -40.773951072096715 11.742157486236902 0 -0.6018150307709319 0.79863550430605224 1.5 0 0 1 I I #
point $-1 67.79195791397197 -42.104548732372656 13.507920185918307 #
plane-surface $-1 76.905423139133887 0 0 -1 0 0 0 0 1 forward_v I I I I #
coedge $-1 $270 $268 $272 $369 reversed $181 $-1 #
edge $-1 $283 -20.942611187559173 $371 20.942611187559173 $282 $419 forward 7 unknown #
vertex $-1 $369 $420 #
straight-curve $-1 -76.905423139133887 -51.970716730617866 0 0 0 -1 I I #
edge $-1 $367 -51.970716730617866 $371 51.970716730617866 $365 $421 forward 7 unknown #
straight-curve $-1 0 -51.970716730617866 -20.942611187559173 -1 0 0 I I #
vertex $-1 $275 $422 #
straight-curve $-1 0 51.970716730617866 -20.942611187559173 1 0 0 I I #
point $-1 76.905423139133887 51.970716730617866 -20.942611187559173 #
point $-1 76.905423139133887 -51.970716730617866 -20.942611187559173 #
straight-curve $-1 -76.905423139133887 0 20.942611187559173 0 -1 0 I I #
point $-1 -76.905423139133887 51.970716730617866 20.942611187559173 #
point $-1 -76.905423139133887 -51.970716730617866 20.942611187559173 #
straight-curve $-1 76.905423139133887 -51.970716730617866 0 0 0 -1 I I #
straight-curve $-1 76.905423139133887 51.970716730617866 0 0 0 -1 I I #
edge $-1 $383 -45.775590242172143 $302 -16.484075551751339 $301 $423 forward 7 unknown #
coedge $-1 $382 $295 $387 $424 reversed $292 $-1 #
coedge $-1 $295 $381 $297 $385 reversed $292 $-1 #
vertex $-1 $296 $425 #
straight-curve $-1 76.905423139133887 -7.0887011780902256 53.382250877811657 0 0.84804809178421925 -0.52991927123019833 I I #
edge $-1 $298 44.825573374751357 $389 51.970716730617866 $382 $426 forward 7 unknown #
point $-1 76.905423139133887 44.825573374751357 20.942611187559173 #
coedge $-1 $301 $300 $381 $424 forward $200 $-1 #
point $-1 47.613908448713083 51.970716730617866 16.477830007508487 #
vertex $-1 $385 $427 #
straight-curve $-1 0 51.970716730617866 20.942611187559173 -1 0 0 I I #
vertex $-1 $308 $428 #
point $-1 63.259665793923489 46.785956194675137 16.130179148094292 #
edge $-1 $394 43.513404797172065 $397 58.38278680045385 $313 $429 forward 7 unknown #
vertex $-1 $327 $430 #
straight-curve $-1 -74.725338034933174 -72.268197958238318 20.942611187559173 0 -1 0 I I #
edge $-1 $397 -44.74187662330764 $324 -15.225046199943421 $323 $431 forward 7 unknown #
vertex $-1 $396 $432 #
straight-curve $-1 -74.725338034933174 -51.970716730617838 6.0732291842774089 0 0.79863550430605224 0.6018150307709319 I I #
point $-1 -74.725338034933174 -32.238380734127389 20.942611187559173 #
point $-1 -45.208507611568955 -51.970716730617866 6.0732291842773876 #
straight-curve $-1 0 -51.970716730617866 20.942611187559173 1 0 0 I I #
vertex $-1 $330 $433 #
point $-1 -64.79195791397197 -40.773951072096715 11.742157486236902 #
vertex $-1 $334 $434 #
point $-1 -52.141887732530158 -40.773951072096715 11.742157486236902 #
edge $-1 $407 43.513404797172065 $410 58.38278680045385 $339 $435 forward 7 unknown #
vertex $-1 $353 $436 #
straight-curve $-1 45.208507611568969 -72.268197958238318 20.942611187559173 0 -1 0 I I #
edge $-1 $410 15.225046199943428 $350 44.741876623307661 $349 $437 forward 7 unknown #
vertex $-1 $409 $438 #
straight-curve $-1 45.208507611568969 -51.970716730617838 6.0732291842774089 0 0.79863550430605224 0.6018150307709319 I I #
point $-1 45.208507611568969 -32.238380734127389 20.942611187559173 #
point $-1 74.725338034933202 -51.970716730617866 6.0732291842773876 #
straight-curve $-1 0 -51.970716730617866 20.942611187559173 1 0 0 I I #
vertex $-1 $356 $439 #
point $-1 55.141887732530165 -40.773951072096715 11.742157486236902 #
vertex $-1 $360 $440 #
point $-1 67.79195791397197 -40.773951072096715 11.742157486236902 #
straight-curve $-1 -76.905423139133887 51.970716730617866 0 0 0 -1 I I #
point $-1 -76.905423139133887 -51.970716730617866 -20.942611187559173 #
straight-curve $-1 -76.905423139133887 0 -20.942611187559173 0 1 0 I I #
point $-1 -76.905423139133887 51.970716730617866 -20.942611187559173 #
straight-curve $-1 31.129832896961744 51.970716730617866 16.477830007508487 -1 0 0 I I #
edge $-1 $389 -20.942611187559173 $383 -16.477830007508487 $381 $441 forward 7 unknown #
point $-1 76.905423139133887 51.970716730617866 16.477830007508487 #
straight-curve $-1 76.905423139133887 0 20.942611187559173 0 1 0 I I #
point $-1 76.905423139133887 51.970716730617866 20.942611187559173 #
point $-1 62.259665793923489 46.256036923444938 15.282131056310073 #
straight-curve $-1 -74.725338034933174 -51.970716730617866 64.456015984731238 0 0 -1 I I #
point $-1 -74.725338034933174 -51.970716730617866 20.942611187559173 #
straight-curve $-1 -29.983461411625534 -51.970716730617866 6.0732291842773867 1 0 0 I I #
point $-1 -74.725338034933174 -51.970716730617866 6.0732291842773876 #
point $-1 -66.29195791397197 -39.871228525940317 10.544204229777822 #
point $-1 -53.641887732530158 -39.871228525940317 10.544204229777822 #
straight-curve $-1 45.208507611568969 -51.970716730617866 64.456015984731238 0 0 -1 I I #
point $-1 45.208507611568969 -51.970716730617866 20.942611187559173 #
straight-curve $-1 29.983461411625541 -51.970716730617866 6.0732291842773867 1 0 0 I I #
point $-1 45.208507611568969 -51.970716730617866 6.0732291842773876 #
point $-1 53.641887732530165 -39.871228525940317 10.544204229777822 #
point $-1 66.29195791397197 -39.871228525940317 10.544204229777822 #
straight-curve $-1 76.905423139133887 51.970716730617866 0 0 0 -1 I I #
End-of-ACIS-data 