500 0 9 0           
7 Unknown 11 ACIS 5.0 NT 24 Fri Mar 26 01:05:56 1999 
-1 9.9999999999999995e-007 1e-010 
body $-1 $9 $-1 $10 #
body $-1 $11 $-1 $12 #
body $-1 $13 $-1 $14 #
body $-1 $15 $-1 $16 #
body $-1 $17 $-1 $18 #
body $-1 $19 $-1 $20 #
body $-1 $21 $-1 $22 #
body $-1 $23 $-1 $24 #
body $-1 $25 $-1 $26 #
lump $-1 $-1 $27 $0 #
transform $-1 1 0 0 0 1 0 0 0 1 57.588427381206699 25.162840398722821 10.19192179594743 1 rotate no_reflect no_shear #
lump $-1 $-1 $28 $1 #
transform $-1 1 0 0 0 1 0 0 0 1 57.588427381206699 25.162840398722821 10.19192179594743 1 rotate no_reflect no_shear #
lump $-1 $-1 $29 $2 #
transform $-1 1 0 0 0 1 0 0 0 1 57.588427381206699 25.162840398722821 10.19192179594743 1 rotate no_reflect no_shear #
lump $-1 $-1 $30 $3 #
transform $-1 1 0 0 0 1 0 0 0 1 57.588427381206699 25.162840398722821 10.19192179594743 1 rotate no_reflect no_shear #
lump $-1 $-1 $31 $4 #
transform $-1 1 0 0 0 1 0 0 0 1 57.588427381206699 25.162840398722821 10.19192179594743 1 rotate no_reflect no_shear #
lump $-1 $-1 $32 $5 #
transform $-1 1 0 0 0 1 0 0 0 1 57.588427381206699 25.162840398722821 10.19192179594743 1 rotate no_reflect no_shear #
lump $-1 $-1 $33 $6 #
transform $-1 1 0 0 0 1 0 0 0 1 57.588427381206699 25.162840398722821 10.19192179594743 1 rotate no_reflect no_shear #
lump $-1 $-1 $34 $7 #
transform $-1 1 0 0 0 1 0 0 0 1 57.588427381206699 25.162840398722821 10.19192179594743 1 rotate no_reflect no_shear #
lump $-1 $-1 $35 $8 #
transform $-1 1 0 0 0 1 0 0 0 1 57.588427381206699 25.162840398722821 10.19192179594743 1 rotate no_reflect no_shear #
shell $-1 $-1 $-1 $36 $-1 $9 #
shell $-1 $-1 $-1 $37 $-1 $11 #
shell $-1 $-1 $-1 $38 $-1 $13 #
shell $-1 $-1 $-1 $39 $-1 $15 #
shell $-1 $-1 $-1 $40 $-1 $17 #
shell $-1 $-1 $-1 $41 $-1 $19 #
shell $-1 $-1 $-1 $42 $-1 $21 #
shell $-1 $-1 $-1 $43 $-1 $23 #
shell $-1 $-1 $-1 $44 $-1 $25 #
face $-1 $45 $46 $27 $-1 $47 forward single #
face $-1 $48 $49 $28 $-1 $50 reversed single #
face $-1 $51 $52 $29 $-1 $53 forward single #
face $-1 $54 $55 $30 $-1 $56 forward single #
face $-1 $57 $58 $31 $-1 $59 forward single #
face $-1 $60 $61 $32 $-1 $62 reversed single #
face $-1 $63 $64 $33 $-1 $65 forward single #
face $-1 $66 $67 $34 $-1 $68 forward single #
face $-1 $69 $70 $35 $-1 $71 forward single #
face $-1 $72 $73 $27 $-1 $74 reversed single #
loop $-1 $-1 $75 $36 #
plane-surface $-1 0 0 10.19192179594743 0 0 1 1 0 0 forward_v I I I I #
face $-1 $76 $77 $28 $-1 $78 reversed single #
loop $-1 $-1 $79 $37 #
plane-surface $-1 -23.85577800535744 -84.48330673885377 101.92836415412677 -1 0 0 0 -0.51503808176128008 0.85716729658548041 forward_v I I I I #
face $-1 $80 $81 $29 $-1 $82 forward single #
loop $-1 $83 $84 $38 #
cone-surface $-1 -50.841897506036851 -18.444705930020749 5.196071815653112 0 0.51503808176128008 -0.85716729658548041 1.5 0 0 1 I I 0 1 1.5 forward I I I I #
face $-1 $85 $86 $30 $-1 $87 forward single #
loop $-1 $88 $89 $39 #
cone-surface $-1 -40.722102693282068 -18.444705930020749 5.196071815653112 0 0.51503808176128008 -0.85716729658548041 1.5 0 0 1 I I 0 1 1.5 forward I I I I #
face $-1 $90 $91 $31 $-1 $92 forward single #
loop $-1 $93 $94 $40 #
cone-surface $-1 -30.602307880527295 -18.444705930020749 5.196071815653112 0 0.51503808176128008 -0.85716729658548041 1.5 0 0 1 I I 0 1 1.5 forward I I I I #
face $-1 $95 $96 $32 $-1 $97 reversed single #
loop $-1 $-1 $98 $41 #
plane-surface $-1 -23.85577800535744 41.345778980883466 127.84800625537366 -1 0 0 0 0.51503808176128008 0.85716729658548041 forward_v I I I I #
face $-1 $99 $100 $33 $-1 $101 forward single #
loop $-1 $102 $103 $42 #
cone-surface $-1 -50.841897506036851 18.444705930020756 5.1960718156531103 0 -0.51503808176128008 -0.85716729658548041 1.5 0 0 1 I I 0 1 1.5 forward I I I I #
face $-1 $104 $105 $34 $-1 $106 forward single #
loop $-1 $107 $108 $43 #
cone-surface $-1 -40.722102693282068 18.444705930020756 5.1960718156531103 0 -0.51503808176128008 -0.85716729658548041 1.5 0 0 1 I I 0 1 1.5 forward I I I I #
face $-1 $109 $110 $35 $-1 $111 forward single #
loop $-1 $112 $113 $44 #
cone-surface $-1 -30.602307880527295 18.444705930020756 5.1960718156531103 0 -0.51503808176128008 -0.85716729658548041 1.5 0 0 1 I I 0 1 1.5 forward I I I I #
face $-1 $114 $115 $27 $-1 $116 reversed single #
loop $-1 $-1 $117 $45 #
plane-surface $-1 0 0 -10.19192179594743 0 0 1 1 0 0 forward_v I I I I #
coedge $-1 $118 $119 $120 $121 forward $46 $-1 #
face $-1 $122 $123 $28 $-1 $124 forward single #
loop $-1 $-1 $125 $48 #
plane-surface $-1 -40.722102693282068 -25.162840398722814 3.2025309282103649 0 -0.51503808176128008 0.85716729658548041 1 0 0 forward_v I I I I #
coedge $-1 $126 $127 $128 $129 reversed $49 $-1 #
face $-1 $-1 $130 $29 $-1 $131 forward single #
loop $-1 $132 $133 $51 #
cone-surface $-1 -50.841897506036851 -17.156442702347952 3.0520417967882185 0 0.51503808176128008 -0.85716729658548041 0.75 0 0 1 I I -0.70710678118654757 0.70710678118654757 0.75 forward I I I I #
loop $-1 $-1 $134 $38 #
coedge $-1 $84 $84 $135 $136 reversed $52 $-1 #
face $-1 $-1 $137 $30 $-1 $138 forward single #
loop $-1 $139 $140 $54 #
cone-surface $-1 -40.722102693282068 -17.156442702347952 3.0520417967882185 0 0.51503808176128008 -0.85716729658548041 0.75 0 0 1 I I -0.70710678118654757 0.70710678118654757 0.75 forward I I I I #
loop $-1 $-1 $141 $39 #
coedge $-1 $89 $89 $142 $143 reversed $55 $-1 #
face $-1 $-1 $144 $31 $-1 $145 forward single #
loop $-1 $146 $147 $57 #
cone-surface $-1 -30.602307880527295 -17.156442702347952 3.0520417967882185 0 0.51503808176128008 -0.85716729658548041 0.75 0 0 1 I I -0.70710678118654757 0.70710678118654757 0.75 forward I I I I #
loop $-1 $-1 $148 $40 #
coedge $-1 $94 $94 $149 $150 reversed $58 $-1 #
face $-1 $151 $152 $32 $-1 $153 reversed single #
loop $-1 $-1 $154 $60 #
plane-surface $-1 -40.722102693282068 -17.97468735924749 29.122173029457258 0 0.51503808176128008 0.85716729658548041 1 0 0 forward_v I I I I #
coedge $-1 $155 $156 $157 $158 reversed $61 $-1 #
face $-1 $-1 $159 $33 $-1 $160 forward single #
loop $-1 $161 $162 $63 #
cone-surface $-1 -50.841897506036851 17.15644270234796 3.0520417967882167 0 -0.51503808176128008 -0.85716729658548041 0.75 0 0 1 I I -0.70710678118654757 0.70710678118654757 0.75 forward I I I I #
loop $-1 $-1 $163 $42 #
coedge $-1 $103 $103 $164 $165 reversed $64 $-1 #
face $-1 $-1 $166 $34 $-1 $167 forward single #
loop $-1 $168 $169 $66 #
cone-surface $-1 -40.722102693282068 17.15644270234796 3.0520417967882167 0 -0.51503808176128008 -0.85716729658548041 0.75 0 0 1 I I -0.70710678118654757 0.70710678118654757 0.75 forward I I I I #
loop $-1 $-1 $170 $43 #
coedge $-1 $108 $108 $171 $172 reversed $67 $-1 #
face $-1 $-1 $173 $35 $-1 $174 forward single #
loop $-1 $175 $176 $69 #
cone-surface $-1 -30.602307880527295 17.15644270234796 3.0520417967882167 0 -0.51503808176128008 -0.85716729658548041 0.75 0 0 1 I I -0.70710678118654757 0.70710678118654757 0.75 forward I I I I #
loop $-1 $-1 $177 $44 #
coedge $-1 $113 $113 $178 $179 reversed $70 $-1 #
face $-1 $180 $181 $27 $-1 $182 reversed single #
loop $-1 $-1 $183 $72 #
plane-surface $-1 0 -25.162840398722821 0 0 1 0 0 0 1 forward_v I I I I #
coedge $-1 $184 $185 $186 $187 forward $73 $-1 #
coedge $-1 $188 $75 $189 $190 forward $46 $-1 #
coedge $-1 $75 $188 $191 $192 forward $46 $-1 #
coedge $-1 $193 $194 $75 $121 reversed $195 $-1 #
edge $-1 $196 -25.162840398722821 $197 25.162840398722821 $120 $198 forward 7 unknown #
face $-1 $199 $200 $28 $-1 $201 reversed single #
loop $-1 $-1 $128 $76 #
plane-surface $-1 0 0 10.19192179594743 0 0 1 1 0 0 forward_v I I I I #
coedge $-1 $202 $203 $204 $205 reversed $77 $-1 #
coedge $-1 $127 $79 $206 $207 reversed $49 $-1 #
coedge $-1 $79 $126 $202 $208 reversed $49 $-1 #
coedge $-1 $204 $209 $79 $129 forward $123 $-1 #
edge $-1 $210 17.078812970704064 $211 28.711112575404538 $128 $212 forward 7 unknown #
loop $-1 $-1 $135 $80 #
plane-surface $-1 -40.722102693282068 -25.162840398722814 3.2025309282103649 0 -0.51503808176128008 0.85716729658548041 1 0 0 forward_v I I I I #
loop $-1 $-1 $213 $51 #
coedge $-1 $133 $133 $134 $214 reversed $81 $-1 #
coedge $-1 $134 $134 $133 $214 forward $83 $-1 #
coedge $-1 $135 $135 $84 $136 forward $130 $-1 #
edge $-1 $215 3.0496380636274512e-016 $215 6.2831853071796004 $135 $216 forward 7 unknown #
loop $-1 $-1 $142 $85 #
plane-surface $-1 -40.722102693282068 -25.162840398722814 3.2025309282103649 0 -0.51503808176128008 0.85716729658548041 1 0 0 forward_v I I I I #
loop $-1 $-1 $217 $54 #
coedge $-1 $140 $140 $141 $218 reversed $86 $-1 #
coedge $-1 $141 $141 $140 $218 forward $88 $-1 #
coedge $-1 $142 $142 $89 $143 forward $137 $-1 #
edge $-1 $219 3.0496380636274512e-016 $219 6.2831853071796004 $142 $220 forward 7 unknown #
loop $-1 $-1 $149 $90 #
plane-surface $-1 -40.722102693282068 -25.162840398722814 3.2025309282103649 0 -0.51503808176128008 0.85716729658548041 1 0 0 forward_v I I I I #
loop $-1 $-1 $221 $57 #
coedge $-1 $147 $147 $148 $222 reversed $91 $-1 #
coedge $-1 $148 $148 $147 $222 forward $93 $-1 #
coedge $-1 $149 $149 $94 $150 forward $144 $-1 #
edge $-1 $223 3.0496380636274512e-016 $223 6.2831853071796004 $149 $224 forward 7 unknown #
face $-1 $225 $226 $32 $-1 $227 forward single #
loop $-1 $-1 $157 $95 #
plane-surface $-1 0 25.162840398722821 0 0 -1 0 0 0 -1 forward_v I I I I #
coedge $-1 $228 $229 $230 $231 reversed $96 $-1 #
coedge $-1 $156 $98 $232 $233 reversed $61 $-1 #
coedge $-1 $98 $155 $228 $234 reversed $61 $-1 #
coedge $-1 $230 $235 $98 $158 forward $152 $-1 #
edge $-1 $236 53.732081331739401 $237 60.721472199476466 $157 $238 forward 7 unknown #
loop $-1 $-1 $164 $99 #
plane-surface $-1 -40.722102693282068 -17.97468735924749 29.122173029457258 0 0.51503808176128008 0.85716729658548041 1 0 0 forward_v I I I I #
loop $-1 $-1 $239 $63 #
coedge $-1 $162 $162 $163 $240 reversed $100 $-1 #
coedge $-1 $163 $163 $162 $240 forward $102 $-1 #
coedge $-1 $164 $164 $103 $165 forward $159 $-1 #
edge $-1 $241 1.2198552254509805e-015 $241 6.2831853071796013 $164 $242 forward 7 unknown #
loop $-1 $-1 $171 $104 #
plane-surface $-1 -40.722102693282068 -17.97468735924749 29.122173029457258 0 0.51503808176128008 0.85716729658548041 1 0 0 forward_v I I I I #
loop $-1 $-1 $243 $66 #
coedge $-1 $169 $169 $170 $244 reversed $105 $-1 #
coedge $-1 $170 $170 $169 $244 forward $107 $-1 #
coedge $-1 $171 $171 $108 $172 forward $166 $-1 #
edge $-1 $245 1.2198552254509805e-015 $245 6.2831853071796013 $171 $246 forward 7 unknown #
loop $-1 $-1 $178 $109 #
plane-surface $-1 -40.722102693282068 -17.97468735924749 29.122173029457258 0 0.51503808176128008 0.85716729658548041 1 0 0 forward_v I I I I #
loop $-1 $-1 $247 $69 #
coedge $-1 $176 $176 $177 $248 reversed $110 $-1 #
coedge $-1 $177 $177 $176 $248 forward $112 $-1 #
coedge $-1 $178 $178 $113 $179 forward $173 $-1 #
edge $-1 $249 1.2198552254509805e-015 $249 6.2831853071796013 $178 $250 forward 7 unknown #
face $-1 $251 $252 $27 $-1 $253 reversed single #
loop $-1 $-1 $254 $114 #
plane-surface $-1 -57.588427381206699 0 0 1 0 0 0 0 -1 forward_v I I I I #
coedge $-1 $255 $191 $256 $257 forward $115 $-1 #
coedge $-1 $258 $117 $255 $259 forward $73 $-1 #
coedge $-1 $117 $258 $260 $261 forward $73 $-1 #
coedge $-1 $194 $193 $117 $187 reversed $195 $-1 #
edge $-1 $262 -25.162840398722821 $263 25.162840398722821 $186 $264 forward 7 unknown #
coedge $-1 $119 $118 $265 $266 forward $46 $-1 #
coedge $-1 $267 $268 $118 $190 reversed $252 $-1 #
edge $-1 $197 -57.588427381206699 $269 57.588427381206699 $189 $270 forward 7 unknown #
coedge $-1 $183 $271 $119 $192 reversed $115 $-1 #
edge $-1 $272 -57.588427381206699 $196 57.588427381206699 $191 $273 forward 7 unknown #
coedge $-1 $186 $120 $271 $274 forward $195 $-1 #
coedge $-1 $120 $186 $267 $275 reversed $195 $-1 #
loop $-1 $-1 $193 $251 #
vertex $-1 $121 $276 #
vertex $-1 $121 $277 #
straight-curve $-1 57.588427381206699 0 10.19192179594743 0 1 0 I I #
face $-1 $-1 $278 $28 $-1 $279 reversed single #
loop $-1 $-1 $280 $122 #
plane-surface $-1 -57.588427381206699 0 0 1 0 0 0 0 -1 forward_v I I I I #
coedge $-1 $281 $125 $127 $208 forward $77 $-1 #
coedge $-1 $125 $281 $280 $282 reversed $77 $-1 #
coedge $-1 $283 $128 $125 $205 forward $123 $-1 #
edge $-1 $211 3.4947266587164059 $284 37.227376034565665 $204 $285 forward 7 unknown #
coedge $-1 $286 $287 $126 $207 forward $278 $-1 #
edge $-1 $288 -47.761651148853026 $210 -40.772260281115955 $206 $289 forward 7 unknown #
edge $-1 $211 -13.570629270432558 $288 8.3777685069199533e-015 $127 $290 forward 7 unknown #
coedge $-1 $128 $283 $286 $291 forward $123 $-1 #
vertex $-1 $207 $292 #
vertex $-1 $129 $293 #
straight-curve $-1 -23.85577800535744 -42.241653369426885 10.19192179594743 0 1 0 I I #
coedge $-1 $213 $213 $-1 $294 reversed $132 $-1 #
edge $-1 $295 0 $295 6.2831853071796004 $133 $296 forward 7 unknown #
vertex $-1 $136 $297 #
ellipse-curve $-1 -50.841897506036851 -19.346690596372586 6.6972263620788945 0 -0.51503808176128008 0.85716729658548041 1.5 0 0 1 I I #
coedge $-1 $217 $217 $-1 $298 reversed $139 $-1 #
edge $-1 $299 0 $299 6.2831853071796004 $140 $300 forward 7 unknown #
vertex $-1 $143 $301 #
ellipse-curve $-1 -40.722102693282068 -19.346690596372586 6.6972263620788945 0 -0.51503808176128008 0.85716729658548041 1.5 0 0 1 I I #
coedge $-1 $221 $221 $-1 $302 reversed $146 $-1 #
edge $-1 $303 0 $303 6.2831853071796004 $147 $304 forward 7 unknown #
vertex $-1 $150 $305 #
ellipse-curve $-1 -30.602307880527295 -19.346690596372586 6.6972263620788945 0 -0.51503808176128008 0.85716729658548041 1.5 0 0 1 I I #
face $-1 $-1 $306 $32 $-1 $307 reversed single #
loop $-1 $-1 $232 $151 #
plane-surface $-1 0 0 10.19192179594743 0 0 1 1 0 0 forward_v I I I I #
coedge $-1 $308 $154 $156 $234 forward $96 $-1 #
coedge $-1 $154 $308 $309 $310 reversed $96 $-1 #
coedge $-1 $311 $157 $154 $231 forward $152 $-1 #
edge $-1 $237 3.4947266587164059 $312 37.227376034565665 $230 $313 forward 7 unknown #
coedge $-1 $314 $315 $155 $233 forward $226 $-1 #
edge $-1 $316 -7.1423486964193827 $236 4.489950908281088 $232 $317 forward 7 unknown #
edge $-1 $237 -50.325680797445649 $316 -36.755051527013087 $156 $318 forward 7 unknown #
coedge $-1 $157 $311 $314 $319 reversed $152 $-1 #
vertex $-1 $319 $320 #
vertex $-1 $158 $321 #
straight-curve $-1 -23.85577800535744 25.162840398722821 63.924003127686831 0 0 -1 I I #
coedge $-1 $239 $239 $-1 $322 reversed $161 $-1 #
edge $-1 $323 0 $323 6.2831853071796004 $162 $324 forward 7 unknown #
vertex $-1 $165 $325 #
ellipse-curve $-1 -50.841897506036851 19.346690596372593 6.6972263620788972 0 0.51503808176128008 0.85716729658548041 1.5 0 0 1 I I #
coedge $-1 $243 $243 $-1 $326 reversed $168 $-1 #
edge $-1 $327 0 $327 6.2831853071796004 $169 $328 forward 7 unknown #
vertex $-1 $172 $329 #
ellipse-curve $-1 -40.722102693282068 19.346690596372593 6.6972263620788972 0 0.51503808176128008 0.85716729658548041 1.5 0 0 1 I I #
coedge $-1 $247 $247 $-1 $330 reversed $175 $-1 #
edge $-1 $331 0 $331 6.2831853071796004 $176 $332 forward 7 unknown #
vertex $-1 $179 $333 #
ellipse-curve $-1 -30.602307880527295 19.346690596372593 6.6972263620788972 0 0.51503808176128008 0.85716729658548041 1.5 0 0 1 I I #
face $-1 $-1 $195 $27 $-1 $334 reversed single #
loop $-1 $-1 $267 $180 #
plane-surface $-1 0 25.162840398722821 0 0 -1 0 0 0 -1 forward_v I I I I #
coedge $-1 $335 $265 $268 $336 forward $181 $-1 #
coedge $-1 $271 $183 $184 $259 reversed $115 $-1 #
coedge $-1 $265 $335 $183 $257 reversed $181 $-1 #
edge $-1 $272 -10.19192179594743 $337 10.19192179594743 $256 $338 forward 7 unknown #
coedge $-1 $185 $184 $335 $339 forward $73 $-1 #
edge $-1 $263 -57.588427381206699 $337 57.588427381206699 $255 $340 forward 7 unknown #
coedge $-1 $268 $267 $185 $261 reversed $252 $-1 #
edge $-1 $341 -57.588427381206699 $262 57.588427381206699 $260 $342 forward 7 unknown #
vertex $-1 $187 $343 #
vertex $-1 $274 $344 #
straight-curve $-1 57.588427381206699 0 -10.19192179594743 0 -1 0 I I #
coedge $-1 $254 $256 $188 $266 reversed $181 $-1 #
edge $-1 $269 -25.162840398722821 $272 25.162840398722821 $265 $345 forward 7 unknown #
coedge $-1 $260 $189 $194 $275 forward $252 $-1 #
coedge $-1 $189 $260 $254 $336 reversed $252 $-1 #
vertex $-1 $190 $346 #
straight-curve $-1 0 25.162840398722821 10.19192179594743 -1 0 0 I I #
coedge $-1 $191 $255 $193 $274 reversed $115 $-1 #
vertex $-1 $266 $347 #
straight-curve $-1 0 -25.162840398722821 10.19192179594743 1 0 0 I I #
edge $-1 $196 -10.19192179594743 $263 10.19192179594743 $193 $348 forward 7 unknown #
edge $-1 $197 -10.19192179594743 $262 10.19192179594743 $194 $349 forward 7 unknown #
point $-1 57.588427381206699 -25.162840398722821 10.19192179594743 #
point $-1 57.588427381206699 25.162840398722821 10.19192179594743 #
loop $-1 $-1 $206 $199 #
plane-surface $-1 0 -25.162840398722821 0 0 1 0 0 0 1 forward_v I I I I #
coedge $-1 $350 $351 $203 $282 forward $200 $-1 #
coedge $-1 $203 $202 $287 $352 reversed $77 $-1 #
edge $-1 $284 -3.610960023963302 $353 9.9596692464692644 $280 $354 forward 7 unknown #
coedge $-1 $209 $204 $351 $355 forward $123 $-1 #
vertex $-1 $355 $356 #
straight-curve $-1 -20.361051346641034 -13.530540794022347 10.19192179594743 -1 0 0 I I #
coedge $-1 $357 $206 $209 $291 reversed $278 $-1 #
coedge $-1 $206 $357 $281 $352 forward $278 $-1 #
vertex $-1 $207 $358 #
straight-curve $-1 -23.85577800535744 -25.162840398722821 50.964182077063384 0 0 1 I I #
straight-curve $-1 -23.85577800535744 -25.162840398722814 3.2025309282103649 0 -0.85716729658548041 -0.51503808176128008 I I #
edge $-1 $359 -57.588427381206699 $210 -23.85577800535744 $286 $360 forward 7 unknown #
point $-1 -23.85577800535744 -25.162840398722821 10.19192179594743 #
point $-1 -23.85577800535744 -13.530540794022347 10.19192179594743 #
edge $-1 $361 1 $361 0 $213 $-1 forward 7 unknown #
vertex $-1 $214 $362 #
ellipse-curve $-1 -50.841897506036851 -17.542721263668913 3.6949172692273287 0 -0.51503808176128008 0.85716729658548041 1.5 0 0 1 I I #
point $-1 -49.341897506036851 -19.346690596372586 6.6972263620788954 #
edge $-1 $363 1 $363 0 $217 $-1 forward 7 unknown #
vertex $-1 $218 $364 #
ellipse-curve $-1 -40.722102693282068 -17.542721263668913 3.6949172692273287 0 -0.51503808176128008 0.85716729658548041 1.5 0 0 1 I I #
point $-1 -39.222102693282068 -19.346690596372586 6.6972263620788954 #
edge $-1 $365 1 $365 0 $221 $-1 forward 7 unknown #
vertex $-1 $222 $366 #
ellipse-curve $-1 -30.602307880527295 -17.542721263668913 3.6949172692273287 0 -0.51503808176128008 0.85716729658548041 1.5 0 0 1 I I #
point $-1 -29.102307880527295 -19.346690596372586 6.6972263620788954 #
loop $-1 $-1 $309 $225 #
plane-surface $-1 -57.588427381206699 0 0 1 0 0 0 0 -1 forward_v I I I I #
coedge $-1 $229 $228 $315 $367 reversed $96 $-1 #
coedge $-1 $368 $369 $229 $310 forward $306 $-1 #
edge $-1 $312 -35.122509645192082 $370 -21.551880374759516 $309 $371 forward 7 unknown #
coedge $-1 $235 $230 $369 $372 reversed $152 $-1 #
vertex $-1 $231 $373 #
straight-curve $-1 -20.361051346641034 25.162840398722818 3.2025309282103649 -1 0 0 I I #
coedge $-1 $374 $232 $235 $319 forward $226 $-1 #
coedge $-1 $232 $374 $308 $367 forward $226 $-1 #
vertex $-1 $233 $375 #
straight-curve $-1 -23.85577800535744 20.672889490441733 10.19192179594743 0 1 0 I I #
straight-curve $-1 -23.85577800535744 -17.97468735924749 29.122173029457258 0 -0.85716729658548041 0.51503808176128008 I I #
edge $-1 $236 23.85577800535744 $376 57.588427381206699 $235 $377 forward 7 unknown #
point $-1 -23.85577800535744 25.162840398722821 10.19192179594743 #
point $-1 -23.85577800535744 25.162840398722821 3.2025309282103613 #
edge $-1 $378 1 $378 0 $239 $-1 forward 7 unknown #
vertex $-1 $240 $379 #
ellipse-curve $-1 -50.841897506036851 17.54272126366892 3.6949172692273269 0 0.51503808176128008 0.85716729658548041 1.5 0 0 1 I I #
point $-1 -49.341897506036851 19.346690596372593 6.6972263620788937 #
edge $-1 $380 1 $380 0 $243 $-1 forward 7 unknown #
vertex $-1 $244 $381 #
ellipse-curve $-1 -40.722102693282068 17.54272126366892 3.6949172692273269 0 0.51503808176128008 0.85716729658548041 1.5 0 0 1 I I #
point $-1 -39.222102693282068 19.346690596372593 6.6972263620788937 #
edge $-1 $382 1 $382 0 $247 $-1 forward 7 unknown #
vertex $-1 $248 $383 #
ellipse-curve $-1 -30.602307880527295 17.54272126366892 3.6949172692273269 0 0.51503808176128008 0.85716729658548041 1.5 0 0 1 I I #
point $-1 -29.102307880527295 19.346690596372593 6.6972263620788937 #
plane-surface $-1 57.588427381206699 0 0 -1 0 0 0 0 1 forward_v I I I I #
coedge $-1 $256 $254 $258 $339 reversed $181 $-1 #
edge $-1 $269 -10.19192179594743 $341 10.19192179594743 $268 $384 forward 7 unknown #
vertex $-1 $339 $385 #
straight-curve $-1 -57.588427381206699 -25.162840398722821 0 0 0 -1 I I #
edge $-1 $337 -25.162840398722821 $341 25.162840398722821 $335 $386 forward 7 unknown #
straight-curve $-1 0 -25.162840398722821 -10.19192179594743 -1 0 0 I I #
vertex $-1 $261 $387 #
straight-curve $-1 0 25.162840398722821 -10.19192179594743 1 0 0 I I #
point $-1 57.588427381206699 25.162840398722821 -10.19192179594743 #
point $-1 57.588427381206699 -25.162840398722821 -10.19192179594743 #
straight-curve $-1 -57.588427381206699 0 10.19192179594743 0 -1 0 I I #
point $-1 -57.588427381206699 25.162840398722821 10.19192179594743 #
point $-1 -57.588427381206699 -25.162840398722821 10.19192179594743 #
straight-curve $-1 57.588427381206699 -25.162840398722821 0 0 0 -1 I I #
straight-curve $-1 57.588427381206699 25.162840398722821 0 0 0 -1 I I #
coedge $-1 $351 $280 $357 $388 reversed $200 $-1 #
coedge $-1 $280 $350 $283 $355 reversed $200 $-1 #
edge $-1 $353 -37.227376034565665 $288 -3.4947266587164059 $287 $389 forward 7 unknown #
vertex $-1 $282 $390 #
straight-curve $-1 -57.588427381206699 -16.625737635841212 8.3321398718887032 0 -0.85716729658548041 -0.51503808176128008 I I #
edge $-1 $284 13.530540794022347 $359 25.162840398722821 $351 $391 forward 7 unknown #
point $-1 -57.588427381206699 -13.530540794022347 10.19192179594743 #
coedge $-1 $287 $286 $350 $388 forward $278 $-1 #
point $-1 -23.85577800535744 -25.162840398722821 3.2025309282103605 #
vertex $-1 $355 $392 #
straight-curve $-1 0 -25.162840398722821 10.19192179594743 1 0 0 I I #
vertex $-1 $294 $393 #
point $-1 -49.341897506036851 -17.542721263668913 3.6949172692273287 #
vertex $-1 $298 $394 #
point $-1 -39.222102693282068 -17.542721263668913 3.6949172692273287 #
vertex $-1 $302 $395 #
point $-1 -29.102307880527295 -17.542721263668913 3.6949172692273287 #
edge $-1 $370 -37.227376034565665 $316 -3.4947266587164059 $315 $396 forward 7 unknown #
coedge $-1 $369 $309 $374 $397 reversed $306 $-1 #
coedge $-1 $309 $368 $311 $372 forward $306 $-1 #
vertex $-1 $310 $398 #
straight-curve $-1 -57.588427381206699 -4.9430262431439376 21.29196092251215 0 -0.85716729658548041 0.51503808176128008 I I #
edge $-1 $376 -10.19192179594743 $312 -3.2025309282103627 $311 $399 forward 7 unknown #
point $-1 -57.588427381206699 25.162840398722821 3.2025309282103627 #
coedge $-1 $315 $314 $368 $397 forward $226 $-1 #
point $-1 -23.85577800535744 13.53054079402235 10.19192179594743 #
vertex $-1 $319 $400 #
straight-curve $-1 0 25.162840398722821 10.19192179594743 -1 0 0 I I #
vertex $-1 $322 $401 #
point $-1 -49.341897506036851 17.54272126366892 3.6949172692273269 #
vertex $-1 $326 $402 #
point $-1 -39.222102693282068 17.54272126366892 3.6949172692273269 #
vertex $-1 $330 $403 #
point $-1 -29.102307880527295 17.54272126366892 3.6949172692273269 #
straight-curve $-1 -57.588427381206699 25.162840398722821 0 0 0 -1 I I #
point $-1 -57.588427381206699 -25.162840398722821 -10.19192179594743 #
straight-curve $-1 -57.588427381206699 0 -10.19192179594743 0 1 0 I I #
point $-1 -57.588427381206699 25.162840398722821 -10.19192179594743 #
edge $-1 $359 -10.19192179594743 $353 -3.2025309282103605 $350 $404 forward 7 unknown #
straight-curve $-1 -20.361051346641034 -25.162840398722821 3.2025309282103609 1 0 0 I I #
point $-1 -57.588427381206699 -25.162840398722821 3.2025309282103605 #
straight-curve $-1 -57.588427381206699 0 10.19192179594743 0 -1 0 I I #
point $-1 -57.588427381206699 -25.162840398722821 10.19192179594743 #
point $-1 -50.841897506036851 -16.770164141026992 2.4091663243491084 #
point $-1 -40.722102693282068 -16.770164141026992 2.4091663243491084 #
point $-1 -30.602307880527295 -16.770164141026992 2.4091663243491084 #
straight-curve $-1 -20.361051346641034 13.53054079402235 10.19192179594743 1 0 0 I I #
edge $-1 $376 -25.162840398722821 $370 -13.53054079402235 $368 $405 forward 7 unknown #
point $-1 -57.588427381206699 13.53054079402235 10.19192179594743 #
straight-curve $-1 -57.588427381206699 25.162840398722821 0 0 0 -1 I I #
point $-1 -57.588427381206699 25.162840398722821 10.19192179594743 #
point $-1 -50.841897506036851 16.770164141026999 2.4091663243491066 #
point $-1 -40.722102693282068 16.770164141026999 2.4091663243491066 #
point $-1 -30.602307880527295 16.770164141026999 2.4091663243491066 #
straight-curve $-1 -57.588427381206699 -25.162840398722821 0 0 0 -1 I I #
straight-curve $-1 -57.588427381206699 0 10.19192179594743 0 -1 0 I I #
End-of-ACIS-data 