500 0 8 0           
7 Unknown 11 ACIS 5.0 NT 24 Fri Mar 26 01:19:28 1999 
-1 9.9999999999999995e-007 1e-010 
body $-1 $8 $-1 $9 #
body $-1 $10 $-1 $11 #
body $-1 $12 $-1 $13 #
body $-1 $14 $-1 $15 #
body $-1 $16 $-1 $17 #
body $-1 $18 $-1 $19 #
body $-1 $20 $-1 $21 #
body $-1 $22 $-1 $23 #
lump $-1 $-1 $24 $0 #
transform $-1 1 0 0 0 1 0 0 0 1 40.622577593310339 23.312204697481217 8.913234745047891 1 rotate no_reflect no_shear #
lump $-1 $-1 $25 $1 #
transform $-1 1 0 0 0 1 0 0 0 1 40.622577593310339 23.312204697481217 8.913234745047891 1 rotate no_reflect no_shear #
lump $-1 $-1 $26 $2 #
transform $-1 1 0 0 0 1 0 0 0 1 40.622577593310339 23.312204697481217 8.913234745047891 1 rotate no_reflect no_shear #
lump $-1 $-1 $27 $3 #
transform $-1 1 0 0 0 1 0 0 0 1 40.622577593310339 23.312204697481217 8.913234745047891 1 rotate no_reflect no_shear #
lump $-1 $-1 $28 $4 #
transform $-1 1 0 0 0 1 0 0 0 1 40.622577593310339 23.312204697481217 8.913234745047891 1 rotate no_reflect no_shear #
lump $-1 $-1 $29 $5 #
transform $-1 1 0 0 0 1 0 0 0 1 40.622577593310339 23.312204697481217 8.913234745047891 1 rotate no_reflect no_shear #
lump $-1 $-1 $30 $6 #
transform $-1 1 0 0 0 1 0 0 0 1 40.622577593310339 23.312204697481217 8.913234745047891 1 rotate no_reflect no_shear #
lump $-1 $-1 $31 $7 #
transform $-1 1 0 0 0 1 0 0 0 1 40.622577593310339 23.312204697481217 8.913234745047891 1 rotate no_reflect no_shear #
shell $-1 $-1 $-1 $32 $-1 $8 #
shell $-1 $-1 $-1 $33 $-1 $10 #
shell $-1 $-1 $-1 $34 $-1 $12 #
shell $-1 $-1 $-1 $35 $-1 $14 #
shell $-1 $-1 $-1 $36 $-1 $16 #
shell $-1 $-1 $-1 $37 $-1 $18 #
shell $-1 $-1 $-1 $38 $-1 $20 #
shell $-1 $-1 $-1 $39 $-1 $22 #
face $-1 $40 $41 $24 $-1 $42 forward single #
face $-1 $43 $44 $25 $-1 $45 forward single #
face $-1 $46 $47 $26 $-1 $48 reversed single #
face $-1 $49 $50 $27 $-1 $51 forward single #
face $-1 $52 $53 $28 $-1 $54 forward single #
face $-1 $55 $56 $29 $-1 $57 reversed single #
face $-1 $58 $59 $30 $-1 $60 forward single #
face $-1 $61 $62 $31 $-1 $63 forward single #
face $-1 $64 $65 $24 $-1 $66 reversed single #
loop $-1 $-1 $67 $32 #
plane-surface $-1 0 0 8.913234745047891 0 0 1 1 0 0 forward_v I I I I #
face $-1 $68 $69 $25 $-1 $70 reversed single #
loop $-1 $-1 $71 $33 #
plane-surface $-1 -40.622577593310339 0 0 1 0 0 0 0 -1 forward_v I I I I #
face $-1 $72 $73 $26 $-1 $74 reversed single #
loop $-1 $-1 $75 $34 #
plane-surface $-1 30.230714393294271 54.0403380265614 93.771480460475573 1 0 0 0 -0.75470958851134928 -0.65605901945558964 forward_v I I I I #
face $-1 $76 $77 $27 $-1 $78 forward single #
loop $-1 $79 $80 $35 #
cone-surface $-1 33.199818164727432 20.554908345810965 6.0727215257424501 0 -0.75470958851134928 -0.65605901945558964 1 0 0 1 I I 0 1 1 forward I I I I #
face $-1 $81 $82 $28 $-1 $83 forward single #
loop $-1 $84 $85 $36 #
cone-surface $-1 37.653473821877171 20.554908345810965 6.0727215257424501 0 -0.75470958851134928 -0.65605901945558964 1 0 0 1 I I 0 1 1 forward I I I I #
face $-1 $86 $87 $29 $-1 $88 reversed single #
loop $-1 $-1 $89 $37 #
plane-surface $-1 -9.0078844791769814 -66.365578124959612 74.594492740837069 -1 0 0 0 -0.52991927123019833 0.84804809178421925 forward_v I I I I #
face $-1 $90 $91 $30 $-1 $92 forward single #
loop $-1 $93 $94 $38 #
cone-surface $-1 -16.895863871505988 -20.196733972299327 6.4396240472300201 0 0.52991927123019833 -0.84804809178421925 1 0 0 1 I I 0 1 1 forward I I I I #
face $-1 $95 $96 $31 $-1 $97 forward single #
loop $-1 $98 $99 $39 #
cone-surface $-1 -12.16307623610858 -20.196733972299327 6.4396240472300201 0 0.52991927123019833 -0.84804809178421925 1 0 0 1 I I 0 1 1 forward I I I I #
face $-1 $100 $101 $24 $-1 $102 reversed single #
loop $-1 $-1 $103 $40 #
plane-surface $-1 0 0 -8.913234745047891 0 0 1 1 0 0 forward_v I I I I #
coedge $-1 $104 $105 $106 $107 forward $41 $-1 #
face $-1 $108 $109 $25 $-1 $110 forward single #
loop $-1 $-1 $111 $43 #
plane-surface $-1 0 23.312204697481217 0 0 -1 0 0 0 -1 forward_v I I I I #
coedge $-1 $112 $113 $114 $115 forward $44 $-1 #
face $-1 $116 $117 $26 $-1 $118 reversed single #
loop $-1 $-1 $119 $46 #
plane-surface $-1 35.426645993302301 -7.2761596128738049 40.469863613224 0 0.75470958851134928 0.65605901945558964 1 0 0 forward_v I I I I #
coedge $-1 $120 $121 $122 $123 reversed $47 $-1 #
face $-1 $-1 $124 $27 $-1 $125 forward single #
loop $-1 $126 $127 $49 #
cone-surface $-1 33.199818164727432 18.998560222391223 4.7198087771495558 0 -0.75470958851134928 -0.65605901945558964 0.5 0 0 1 I I -0.70710678118654746 0.70710678118654746 0.5 forward I I I I #
loop $-1 $-1 $128 $35 #
coedge $-1 $80 $80 $129 $130 reversed $50 $-1 #
face $-1 $-1 $131 $28 $-1 $132 forward single #
loop $-1 $133 $134 $52 #
cone-surface $-1 37.653473821877171 18.998560222391223 4.7198087771495558 0 -0.75470958851134928 -0.65605901945558964 0.5 0 0 1 I I -0.70710678118654746 0.70710678118654746 0.5 forward I I I I #
loop $-1 $-1 $135 $36 #
coedge $-1 $85 $85 $136 $137 reversed $53 $-1 #
face $-1 $138 $139 $29 $-1 $140 reversed single #
loop $-1 $-1 $141 $55 #
plane-surface $-1 -14.529470053807287 -23.312204697481214 5.6946939181106444 0 -0.52991927123019833 0.84804809178421925 1 0 0 forward_v I I I I #
coedge $-1 $142 $143 $144 $145 reversed $56 $-1 #
face $-1 $-1 $146 $30 $-1 $147 forward single #
loop $-1 $148 $149 $58 #
cone-surface $-1 -16.895863871505988 -19.391674573457831 5.1512597169886671 0 0.52991927123019833 -0.84804809178421925 0.5 0 0 1 I I -0.70710678118654746 0.70710678118654746 0.5 forward I I I I #
loop $-1 $-1 $150 $38 #
coedge $-1 $94 $94 $151 $152 reversed $59 $-1 #
face $-1 $-1 $153 $31 $-1 $154 forward single #
loop $-1 $155 $156 $61 #
cone-surface $-1 -12.16307623610858 -19.391674573457831 5.1512597169886671 0 0.52991927123019833 -0.84804809178421925 0.5 0 0 1 I I -0.70710678118654746 0.70710678118654746 0.5 forward I I I I #
loop $-1 $-1 $157 $39 #
coedge $-1 $99 $99 $158 $159 reversed $62 $-1 #
face $-1 $160 $161 $24 $-1 $162 reversed single #
loop $-1 $-1 $163 $64 #
plane-surface $-1 0 -23.312204697481217 0 0 1 0 0 0 1 forward_v I I I I #
coedge $-1 $164 $165 $166 $167 forward $65 $-1 #
coedge $-1 $168 $67 $169 $170 forward $41 $-1 #
coedge $-1 $67 $168 $171 $172 forward $41 $-1 #
coedge $-1 $173 $174 $67 $107 reversed $175 $-1 #
edge $-1 $176 -23.312204697481217 $177 23.312204697481217 $106 $178 forward 7 unknown #
face $-1 $179 $180 $25 $-1 $181 reversed single #
loop $-1 $-1 $114 $68 #
plane-surface $-1 -43.75146654836324 0 -4.891112744644218 0 0 1 1 0 0 forward_v I I I I #
coedge $-1 $182 $183 $113 $184 forward $69 $-1 #
coedge $-1 $185 $71 $186 $187 reversed $44 $-1 #
coedge $-1 $71 $185 $111 $184 reversed $44 $-1 #
coedge $-1 $188 $189 $71 $115 reversed $109 $-1 #
edge $-1 $190 -23.312204697481217 $191 23.312204697481217 $114 $192 forward 7 unknown #
face $-1 $193 $194 $26 $-1 $195 reversed single #
loop $-1 $-1 $196 $72 #
plane-surface $-1 40.622577593310339 0 0 -1 0 0 0 0 1 forward_v I I I I #
coedge $-1 $197 $198 $199 $200 reversed $73 $-1 #
coedge $-1 $121 $75 $201 $202 reversed $47 $-1 #
coedge $-1 $75 $120 $197 $203 reversed $47 $-1 #
coedge $-1 $199 $204 $75 $123 forward $205 $-1 #
edge $-1 $206 3.707964315799483 $207 6.864570360811836 $122 $208 forward 7 unknown #
loop $-1 $-1 $129 $76 #
plane-surface $-1 35.426645993302301 -7.2761596128738049 40.469863613224 0 0.75470958851134928 0.65605901945558964 1 0 0 forward_v I I I I #
loop $-1 $-1 $209 $49 #
coedge $-1 $127 $127 $128 $210 reversed $77 $-1 #
coedge $-1 $128 $128 $127 $210 forward $79 $-1 #
coedge $-1 $129 $129 $80 $130 forward $124 $-1 #
edge $-1 $211 -9.595186306520749e-016 $211 6.2831853071795996 $129 $212 forward 7 unknown #
loop $-1 $-1 $136 $81 #
plane-surface $-1 35.426645993302301 -7.2761596128738049 40.469863613224 0 0.75470958851134928 0.65605901945558964 1 0 0 forward_v I I I I #
loop $-1 $-1 $213 $52 #
coedge $-1 $134 $134 $135 $214 reversed $82 $-1 #
coedge $-1 $135 $135 $134 $214 forward $84 $-1 #
coedge $-1 $136 $136 $85 $137 forward $131 $-1 #
edge $-1 $215 -9.595186306520749e-016 $215 6.2831853071795996 $136 $216 forward 7 unknown #
face $-1 $217 $218 $29 $-1 $219 forward single #
loop $-1 $-1 $220 $86 #
plane-surface $-1 -20.051055628437595 -66.365578124959612 74.594492740837069 1 0 0 0 0.52991927123019833 -0.84804809178421925 forward_v I I I I #
coedge $-1 $221 $222 $223 $224 reversed $87 $-1 #
coedge $-1 $143 $89 $225 $226 reversed $56 $-1 #
coedge $-1 $89 $142 $221 $227 reversed $56 $-1 #
coedge $-1 $223 $228 $89 $145 forward $218 $-1 #
edge $-1 $229 9.8705843649985887 $230 15.02132628890957 $144 $231 forward 7 unknown #
loop $-1 $-1 $151 $90 #
plane-surface $-1 -14.529470053807287 -23.312204697481214 5.6946939181106444 0 -0.52991927123019833 0.84804809178421925 1 0 0 forward_v I I I I #
loop $-1 $-1 $232 $58 #
coedge $-1 $149 $149 $150 $233 reversed $91 $-1 #
coedge $-1 $150 $150 $149 $233 forward $93 $-1 #
coedge $-1 $151 $151 $94 $152 forward $146 $-1 #
edge $-1 $234 1.1302206124029399e-015 $234 6.2831853071796013 $151 $235 forward 7 unknown #
loop $-1 $-1 $158 $95 #
plane-surface $-1 -14.529470053807287 -23.312204697481214 5.6946939181106444 0 -0.52991927123019833 0.84804809178421925 1 0 0 forward_v I I I I #
loop $-1 $-1 $236 $61 #
coedge $-1 $156 $156 $157 $237 reversed $96 $-1 #
coedge $-1 $157 $157 $156 $237 forward $98 $-1 #
coedge $-1 $158 $158 $99 $159 forward $153 $-1 #
edge $-1 $238 1.1302206124029399e-015 $238 6.2831853071796013 $158 $239 forward 7 unknown #
face $-1 $240 $241 $24 $-1 $242 reversed single #
loop $-1 $-1 $243 $100 #
plane-surface $-1 -40.622577593310339 0 0 1 0 0 0 0 -1 forward_v I I I I #
coedge $-1 $244 $171 $245 $246 forward $101 $-1 #
coedge $-1 $247 $103 $244 $248 forward $65 $-1 #
coedge $-1 $103 $247 $249 $250 forward $65 $-1 #
coedge $-1 $174 $173 $103 $167 reversed $175 $-1 #
edge $-1 $251 -23.312204697481217 $252 23.312204697481217 $166 $253 forward 7 unknown #
coedge $-1 $105 $104 $254 $255 forward $41 $-1 #
coedge $-1 $256 $257 $104 $170 reversed $241 $-1 #
edge $-1 $177 -40.622577593310339 $258 40.622577593310339 $169 $259 forward 7 unknown #
coedge $-1 $163 $260 $105 $172 reversed $101 $-1 #
edge $-1 $261 -40.622577593310339 $176 40.622577593310339 $171 $262 forward 7 unknown #
coedge $-1 $166 $106 $260 $263 forward $175 $-1 #
coedge $-1 $106 $166 $256 $264 reversed $175 $-1 #
loop $-1 $-1 $173 $240 #
vertex $-1 $107 $265 #
vertex $-1 $107 $266 #
straight-curve $-1 40.622577593310339 0 8.913234745047891 0 1 0 I I #
face $-1 $267 $268 $25 $-1 $269 reversed single #
loop $-1 $-1 $270 $108 #
plane-surface $-1 -46.880355503416141 0 -6.9021737448460545 1 0 0 0 0 -1 forward_v I I I I #
coedge $-1 $271 $111 $272 $273 reversed $69 $-1 #
coedge $-1 $111 $271 $188 $274 reversed $69 $-1 #
edge $-1 $190 4.891112744644218 $275 8.913234745047891 $111 $276 forward 7 unknown #
coedge $-1 $113 $112 $277 $278 reversed $44 $-1 #
coedge $-1 $279 $280 $112 $187 forward $281 $-1 #
edge $-1 $282 -8.913234745047891 $191 -4.891112744644218 $186 $283 forward 7 unknown #
coedge $-1 $284 $114 $183 $274 forward $109 $-1 #
coedge $-1 $114 $284 $279 $285 forward $109 $-1 #
vertex $-1 $184 $286 #
vertex $-1 $285 $287 #
straight-curve $-1 -40.622577593310339 0 -4.891112744644218 0 -1 0 I I #
face $-1 $-1 $205 $26 $-1 $288 forward single #
loop $-1 $-1 $289 $116 #
plane-surface $-1 0 23.312204697481217 0 0 -1 0 0 0 -1 forward_v I I I I #
coedge $-1 $290 $291 $198 $292 forward $117 $-1 #
coedge $-1 $293 $119 $121 $203 forward $73 $-1 #
coedge $-1 $119 $293 $196 $292 reversed $73 $-1 #
coedge $-1 $294 $122 $119 $200 forward $205 $-1 #
edge $-1 $207 12.51739139664312 $295 22.909254596659181 $199 $296 forward 7 unknown #
coedge $-1 $297 $289 $120 $202 forward $194 $-1 #
edge $-1 $298 -41.603765446070554 $206 -37.972505485189899 $201 $299 forward 7 unknown #
edge $-1 $207 41.812942817410047 $298 46.62440939496242 $121 $300 forward 7 unknown #
coedge $-1 $122 $294 $297 $301 forward $205 $-1 #
loop $-1 $-1 $199 $193 #
vertex $-1 $202 $302 #
vertex $-1 $123 $303 #
straight-curve $-1 30.230714393294271 27.0201690132807 8.9132347450478946 0 -1 0 I I #
coedge $-1 $209 $209 $-1 $304 reversed $126 $-1 #
edge $-1 $305 0 $305 6.2831853071796004 $127 $306 forward 7 unknown #
vertex $-1 $130 $307 #
ellipse-curve $-1 33.199818164727432 21.733901674975041 7.0976047646075582 0 0.75470958851134928 0.65605901945558964 1 0 0 1 I I #
coedge $-1 $213 $213 $-1 $308 reversed $133 $-1 #
edge $-1 $309 0 $309 6.2831853071796004 $134 $310 forward 7 unknown #
vertex $-1 $137 $311 #
ellipse-curve $-1 37.653473821877171 21.733901674975041 7.0976047646075582 0 0.75470958851134928 0.65605901945558964 1 0 0 1 I I #
face $-1 $-1 $312 $29 $-1 $313 reversed single #
loop $-1 $-1 $144 $138 #
plane-surface $-1 0 0 8.913234745047891 0 0 1 1 0 0 forward_v I I I I #
coedge $-1 $314 $315 $316 $317 reversed $139 $-1 #
coedge $-1 $318 $141 $143 $227 forward $87 $-1 #
coedge $-1 $141 $318 $314 $319 forward $87 $-1 #
coedge $-1 $316 $144 $141 $224 forward $218 $-1 #
edge $-1 $230 1.7431494522733377 $320 12.786320601533951 $223 $321 forward 7 unknown #
coedge $-1 $322 $323 $142 $226 forward $312 $-1 #
edge $-1 $324 -31.60255245230789 $229 -28.384011625370643 $225 $325 forward 7 unknown #
edge $-1 $230 -6.0736436692809086 $324 3.9541977777422176e-015 $143 $326 forward 7 unknown #
coedge $-1 $144 $316 $322 $327 forward $218 $-1 #
vertex $-1 $226 $328 #
vertex $-1 $145 $329 #
straight-curve $-1 -9.0078844791769814 -33.182789062479806 8.9132347450478946 0 1 0 I I #
coedge $-1 $232 $232 $-1 $330 reversed $148 $-1 #
edge $-1 $331 0 $331 6.2831853071796004 $149 $332 forward 7 unknown #
vertex $-1 $152 $333 #
ellipse-curve $-1 -16.895863871505988 -20.736833735525725 7.3039643315792677 0 -0.52991927123019833 0.84804809178421925 1 0 0 1 I I #
coedge $-1 $236 $236 $-1 $334 reversed $155 $-1 #
edge $-1 $335 0 $335 6.2831853071796004 $156 $336 forward 7 unknown #
vertex $-1 $159 $337 #
ellipse-curve $-1 -12.16307623610858 -20.736833735525725 7.3039643315792677 0 -0.52991927123019833 0.84804809178421925 1 0 0 1 I I #
face $-1 $-1 $175 $24 $-1 $338 reversed single #
loop $-1 $-1 $256 $160 #
plane-surface $-1 0 23.312204697481217 0 0 -1 0 0 0 -1 forward_v I I I I #
coedge $-1 $339 $254 $257 $340 forward $161 $-1 #
coedge $-1 $260 $163 $164 $248 reversed $101 $-1 #
coedge $-1 $254 $339 $163 $246 reversed $161 $-1 #
edge $-1 $261 -8.913234745047891 $341 8.913234745047891 $245 $342 forward 7 unknown #
coedge $-1 $165 $164 $339 $343 forward $65 $-1 #
edge $-1 $252 -40.622577593310339 $341 40.622577593310339 $244 $344 forward 7 unknown #
coedge $-1 $257 $256 $165 $250 reversed $241 $-1 #
edge $-1 $345 -40.622577593310339 $251 40.622577593310339 $249 $346 forward 7 unknown #
vertex $-1 $167 $347 #
vertex $-1 $263 $348 #
straight-curve $-1 40.622577593310339 0 -8.913234745047891 0 -1 0 I I #
coedge $-1 $243 $245 $168 $255 reversed $161 $-1 #
edge $-1 $258 -23.312204697481217 $261 23.312204697481217 $254 $349 forward 7 unknown #
coedge $-1 $249 $169 $174 $264 forward $241 $-1 #
coedge $-1 $169 $249 $243 $340 reversed $241 $-1 #
vertex $-1 $170 $350 #
straight-curve $-1 0 23.312204697481217 8.913234745047891 -1 0 0 I I #
coedge $-1 $171 $244 $173 $263 reversed $101 $-1 #
vertex $-1 $255 $351 #
straight-curve $-1 0 -23.312204697481217 8.913234745047891 1 0 0 I I #
edge $-1 $176 -8.913234745047891 $252 8.913234745047891 $173 $352 forward 7 unknown #
edge $-1 $177 -8.913234745047891 $251 8.913234745047891 $174 $353 forward 7 unknown #
point $-1 40.622577593310339 -23.312204697481217 8.913234745047891 #
point $-1 40.622577593310339 23.312204697481217 8.913234745047891 #
face $-1 $-1 $281 $25 $-1 $354 reversed single #
loop $-1 $-1 $277 $179 #
plane-surface $-1 0 0 -8.913234745047891 0 0 1 1 0 0 forward_v I I I I #
coedge $-1 $355 $356 $271 $357 forward $180 $-1 #
coedge $-1 $183 $182 $270 $357 reversed $69 $-1 #
coedge $-1 $277 $358 $182 $273 forward $268 $-1 #
edge $-1 $359 -46.880355503416141 $275 -40.622577593310339 $182 $360 forward 7 unknown #
edge $-1 $190 -3.1288889550529007 $361 3.1288889550529007 $183 $362 forward 7 unknown #
vertex $-1 $184 $363 #
straight-curve $-1 -40.622577593310339 23.312204697481217 0 0 0 -1 I I #
coedge $-1 $364 $272 $185 $278 forward $268 $-1 #
edge $-1 $275 -23.312204697481217 $282 23.312204697481217 $277 $365 forward 7 unknown #
coedge $-1 $366 $186 $189 $285 reversed $281 $-1 #
coedge $-1 $186 $366 $364 $367 reversed $281 $-1 #
loop $-1 $-1 $186 $267 #
vertex $-1 $367 $368 #
straight-curve $-1 -40.622577593310339 -23.312204697481217 0 0 0 1 I I #
coedge $-1 $189 $188 $356 $369 forward $109 $-1 #
edge $-1 $370 -3.1288889550529007 $191 3.1288889550529007 $279 $371 forward 7 unknown #
point $-1 -40.622577593310339 23.312204697481217 -4.891112744644218 #
point $-1 -40.622577593310339 -23.312204697481217 -4.891112744644218 #
plane-surface $-1 0 0 8.913234745047891 0 0 1 1 0 0 forward_v I I I I #
coedge $-1 $201 $372 $293 $373 forward $194 $-1 #
coedge $-1 $291 $196 $372 $374 reversed $117 $-1 #
coedge $-1 $196 $290 $294 $375 reversed $117 $-1 #
edge $-1 $295 24.15465068957451 $376 28.966117267126883 $196 $377 forward 7 unknown #
coedge $-1 $198 $197 $289 $373 reversed $73 $-1 #
coedge $-1 $204 $199 $291 $375 forward $205 $-1 #
vertex $-1 $375 $378 #
straight-curve $-1 17.713322996651151 20.155598652468868 8.9132347450478875 1 0 0 I I #
coedge $-1 $372 $201 $204 $301 reversed $194 $-1 #
vertex $-1 $202 $379 #
straight-curve $-1 30.230714393294271 23.312204697481217 46.885740230237786 0 0 1 I I #
straight-curve $-1 30.230714393294271 -7.2761596128738049 40.469863613224 0 0.65605901945558964 -0.75470958851134928 I I #
edge $-1 $380 -40.622577593310339 $206 -30.230714393294271 $297 $381 forward 7 unknown #
point $-1 30.230714393294271 23.312204697481217 8.913234745047891 #
point $-1 30.230714393294271 20.155598652468864 8.913234745047891 #
edge $-1 $382 1 $382 0 $209 $-1 forward 7 unknown #
vertex $-1 $210 $383 #
ellipse-curve $-1 33.199818164727432 19.375915016646896 5.0478382868773508 0 0.75470958851134928 0.65605901945558964 1 0 0 1 I I #
point $-1 34.199818164727432 21.73390167497503 7.0976047646075502 #
edge $-1 $384 1 $384 0 $213 $-1 forward 7 unknown #
vertex $-1 $214 $385 #
ellipse-curve $-1 37.653473821877171 19.375915016646896 5.0478382868773508 0 0.75470958851134928 0.65605901945558964 1 0 0 1 I I #
point $-1 38.653473821877171 21.73390167497503 7.0976047646075502 #
loop $-1 $-1 $225 $217 #
plane-surface $-1 0 -23.312204697481217 0 0 1 0 0 0 1 forward_v I I I I #
coedge $-1 $315 $220 $222 $319 reversed $139 $-1 #
coedge $-1 $220 $314 $386 $387 reversed $139 $-1 #
coedge $-1 $228 $223 $220 $317 forward $218 $-1 #
edge $-1 $320 -15.02132628890957 $388 -9.8705843649985887 $316 $389 forward 7 unknown #
coedge $-1 $222 $221 $323 $390 reversed $87 $-1 #
edge $-1 $391 -3.9541977777422176e-015 $320 6.0736436692809086 $314 $392 forward 7 unknown #
vertex $-1 $224 $393 #
straight-curve $-1 -7.2647350269036437 -18.161462773570239 8.913234745047891 -1 0 0 I I #
coedge $-1 $386 $225 $228 $327 reversed $312 $-1 #
coedge $-1 $225 $386 $318 $390 forward $312 $-1 #
vertex $-1 $226 $394 #
straight-curve $-1 -9.0078844791769814 -23.312204697481217 37.297246370418534 0 0 1 I I #
straight-curve $-1 -9.0078844791769814 -23.312204697481214 5.6946939181106444 0 -0.84804809178421925 -0.52991927123019833 I I #
edge $-1 $388 -20.051055628437595 $229 -9.0078844791769814 $322 $395 forward 7 unknown #
point $-1 -9.0078844791769814 -23.312204697481217 8.913234745047891 #
point $-1 -9.0078844791769814 -18.161462773570236 8.913234745047891 #
edge $-1 $396 1 $396 0 $232 $-1 forward 7 unknown #
vertex $-1 $233 $397 #
ellipse-curve $-1 -16.895863871505988 -19.65663420907293 5.575283762880777 0 -0.52991927123019833 0.84804809178421925 1 0 0 1 I I #
point $-1 -15.895863871505988 -20.736833735525721 7.3039643315792642 #
edge $-1 $398 1 $398 0 $236 $-1 forward 7 unknown #
vertex $-1 $237 $399 #
ellipse-curve $-1 -12.16307623610858 -19.65663420907293 5.575283762880777 0 -0.52991927123019833 0.84804809178421925 1 0 0 1 I I #
point $-1 -11.16307623610858 -20.736833735525721 7.3039643315792642 #
plane-surface $-1 40.622577593310339 0 0 -1 0 0 0 0 1 forward_v I I I I #
coedge $-1 $245 $243 $247 $343 reversed $161 $-1 #
edge $-1 $258 -8.913234745047891 $345 8.913234745047891 $257 $400 forward 7 unknown #
vertex $-1 $343 $401 #
straight-curve $-1 -40.622577593310339 -23.312204697481217 0 0 0 -1 I I #
edge $-1 $341 -23.312204697481217 $345 23.312204697481217 $339 $402 forward 7 unknown #
straight-curve $-1 0 -23.312204697481217 -8.913234745047891 -1 0 0 I I #
vertex $-1 $250 $403 #
straight-curve $-1 0 23.312204697481217 -8.913234745047891 1 0 0 I I #
point $-1 40.622577593310339 23.312204697481217 -8.913234745047891 #
point $-1 40.622577593310339 -23.312204697481217 -8.913234745047891 #
straight-curve $-1 -40.622577593310339 0 8.913234745047891 0 -1 0 I I #
point $-1 -40.622577593310339 23.312204697481217 8.913234745047891 #
point $-1 -40.622577593310339 -23.312204697481217 8.913234745047891 #
straight-curve $-1 40.622577593310339 -23.312204697481217 0 0 0 -1 I I #
straight-curve $-1 40.622577593310339 23.312204697481217 0 0 0 -1 I I #
plane-surface $-1 0 -23.312204697481217 0 0 1 0 0 0 1 forward_v I I I I #
coedge $-1 $404 $270 $358 $405 reversed $180 $-1 #
coedge $-1 $270 $404 $284 $369 reversed $180 $-1 #
edge $-1 $361 -2.0110610002018365 $359 2.0110610002018365 $271 $406 forward 7 unknown #
coedge $-1 $272 $364 $355 $405 forward $268 $-1 #
vertex $-1 $273 $407 #
straight-curve $-1 0 23.312204697481217 -8.913234745047891 1 0 0 I I #
vertex $-1 $274 $408 #
straight-curve $-1 -43.75146654836324 23.312204697481217 -4.891112744644218 -1 0 0 I I #
point $-1 -40.622577593310339 23.312204697481217 -8.913234745047891 #
coedge $-1 $358 $277 $280 $367 forward $268 $-1 #
straight-curve $-1 -40.622577593310339 0 -8.913234745047891 0 -1 0 I I #
coedge $-1 $280 $279 $404 $409 forward $281 $-1 #
edge $-1 $282 -3.1288889550529007 $410 3.1288889550529007 $280 $411 forward 7 unknown #
point $-1 -40.622577593310339 -23.312204697481217 -8.913234745047891 #
edge $-1 $361 -23.312204697481217 $370 23.312204697481217 $356 $412 forward 7 unknown #
vertex $-1 $369 $413 #
straight-curve $-1 -43.75146654836324 -23.312204697481217 -4.891112744644218 1 0 0 I I #
coedge $-1 $289 $297 $290 $374 forward $194 $-1 #
edge $-1 $376 -22.909254596659181 $298 -12.51739139664312 $289 $414 forward 7 unknown #
edge $-1 $380 -8.913234745047891 $376 -5.2819747841672324 $290 $415 forward 7 unknown #
edge $-1 $295 20.155598652468864 $380 23.312204697481217 $291 $416 forward 7 unknown #
vertex $-1 $292 $417 #
straight-curve $-1 40.622577593310339 4.3087222057743313 27.142981227612047 0 0.65605901945558975 -0.75470958851134939 I I #
point $-1 40.622577593310332 20.155598652468864 8.913234745047891 #
point $-1 30.230714393294271 23.312204697481217 5.2819747841672324 #
vertex $-1 $375 $418 #
straight-curve $-1 0 23.312204697481217 8.913234745047891 -1 0 0 I I #
vertex $-1 $304 $419 #
point $-1 34.199818164727432 19.375915016646896 5.0478382868773508 #
vertex $-1 $308 $420 #
point $-1 38.653473821877171 19.375915016646896 5.0478382868773508 #
coedge $-1 $323 $322 $315 $387 forward $312 $-1 #
edge $-1 $388 28.384011625370643 $391 31.60255245230789 $386 $421 forward 7 unknown #
vertex $-1 $327 $422 #
straight-curve $-1 -20.051055628437595 -33.182789062479806 8.9132347450478946 0 -1 0 I I #
edge $-1 $391 -12.786320601533951 $324 -1.7431494522733377 $323 $423 forward 7 unknown #
vertex $-1 $390 $424 #
straight-curve $-1 -20.051055628437595 -23.312204697481214 5.6946939181106444 0 0.84804809178421925 0.52991927123019833 I I #
point $-1 -20.051055628437595 -18.161462773570236 8.913234745047891 #
point $-1 -9.0078844791769814 -23.312204697481217 5.6946939181106426 #
straight-curve $-1 0 -23.312204697481217 8.913234745047891 1 0 0 I I #
vertex $-1 $330 $425 #
point $-1 -15.895863871505988 -19.65663420907293 5.575283762880777 #
vertex $-1 $334 $426 #
point $-1 -11.16307623610858 -19.65663420907293 5.575283762880777 #
straight-curve $-1 -40.622577593310339 23.312204697481217 0 0 0 -1 I I #
point $-1 -40.622577593310339 -23.312204697481217 -8.913234745047891 #
straight-curve $-1 -40.622577593310339 0 -8.913234745047891 0 1 0 I I #
point $-1 -40.622577593310339 23.312204697481217 -8.913234745047891 #
coedge $-1 $356 $355 $366 $409 reversed $180 $-1 #
edge $-1 $410 -23.312204697481217 $359 23.312204697481217 $355 $427 forward 7 unknown #
straight-curve $-1 -46.880355503416141 23.312204697481217 -6.9021737448460545 0 0 -1 I I #
point $-1 -46.880355503416141 23.312204697481217 -8.913234745047891 #
point $-1 -46.880355503416141 23.312204697481217 -4.891112744644218 #
edge $-1 $370 -2.0110610002018365 $410 2.0110610002018365 $404 $428 forward 7 unknown #
vertex $-1 $405 $429 #
straight-curve $-1 -43.75146654836324 -23.312204697481217 -8.913234745047891 -1 0 0 I I #
straight-curve $-1 -46.880355503416141 0 -4.891112744644218 0 -1 0 I I #
point $-1 -46.880355503416141 -23.312204697481217 -4.891112744644218 #
straight-curve $-1 17.713322996651151 23.312204697481217 5.2819747841672289 -1 0 0 I I #
straight-curve $-1 40.622577593310339 23.312204697481217 0 0 0 -1 I I #
straight-curve $-1 40.622577593310339 0 8.913234745047891 0 1 0 I I #
point $-1 40.622577593310332 23.312204697481217 5.2819747841672324 #
point $-1 40.622577593310339 23.312204697481217 8.913234745047891 #
point $-1 33.199818164727432 18.62120542813555 4.3917792674217608 #
point $-1 37.653473821877171 18.62120542813555 4.3917792674217608 #
straight-curve $-1 -20.051055628437595 -23.312204697481217 37.297246370418534 0 0 -1 I I #
point $-1 -20.051055628437595 -23.312204697481217 8.913234745047891 #
straight-curve $-1 -7.2647350269036437 -23.312204697481217 5.6946939181106409 1 0 0 I I #
point $-1 -20.051055628437595 -23.312204697481217 5.6946939181106426 #
point $-1 -16.895863871505988 -19.126714937842731 4.7272356710965573 #
point $-1 -12.16307623610858 -19.126714937842731 4.7272356710965573 #
straight-curve $-1 -46.880355503416141 0 -8.913234745047891 0 1 0 I I #
straight-curve $-1 -46.880355503416141 -23.312204697481217 -6.9021737448460545 0 0 -1 I I #
point $-1 -46.880355503416141 -23.312204697481217 -8.913234745047891 #
End-of-ACIS-data 