500 0 8 0           
7 Unknown 11 ACIS 5.0 NT 24 Thu Mar 25 15:31:00 1999 
-1 9.9999999999999995e-007 1e-010 
body $-1 $8 $-1 $9 #
body $-1 $10 $-1 $11 #
body $-1 $12 $-1 $13 #
body $-1 $14 $-1 $15 #
body $-1 $16 $-1 $17 #
body $-1 $18 $-1 $19 #
body $-1 $20 $-1 $21 #
body $-1 $22 $-1 $23 #
lump $-1 $-1 $24 $0 #
transform $-1 1 0 0 0 1 0 0 0 1 59.900509659108252 35.800640921110997 13.658916363270032 1 rotate no_reflect no_shear #
lump $-1 $-1 $25 $1 #
transform $-1 1 0 0 0 1 0 0 0 1 59.900509659108252 35.800640921110997 13.658916363270032 1 rotate no_reflect no_shear #
lump $-1 $-1 $26 $2 #
transform $-1 1 0 0 0 1 0 0 0 1 59.900509659108252 35.800640921110997 13.658916363270032 1 rotate no_reflect no_shear #
lump $-1 $-1 $27 $3 #
transform $-1 1 0 0 0 1 0 0 0 1 59.900509659108252 35.800640921110997 13.658916363270032 1 rotate no_reflect no_shear #
lump $-1 $-1 $28 $4 #
transform $-1 1 0 0 0 1 0 0 0 1 59.900509659108252 35.800640921110997 13.658916363270032 1 rotate no_reflect no_shear #
lump $-1 $-1 $29 $5 #
transform $-1 1 0 0 0 1 0 0 0 1 59.900509659108252 35.800640921110997 13.658916363270032 1 rotate no_reflect no_shear #
lump $-1 $-1 $30 $6 #
transform $-1 1 0 0 0 1 0 0 0 1 59.900509659108252 35.800640921110997 13.658916363270032 1 rotate no_reflect no_shear #
lump $-1 $-1 $31 $7 #
transform $-1 1 0 0 0 1 0 0 0 1 59.900509659108252 35.800640921110997 13.658916363270032 1 rotate no_reflect no_shear #
shell $-1 $-1 $-1 $32 $-1 $8 #
shell $-1 $-1 $-1 $33 $-1 $10 #
shell $-1 $-1 $-1 $34 $-1 $12 #
shell $-1 $-1 $-1 $35 $-1 $14 #
shell $-1 $-1 $-1 $36 $-1 $16 #
shell $-1 $-1 $-1 $37 $-1 $18 #
shell $-1 $-1 $-1 $38 $-1 $20 #
shell $-1 $-1 $-1 $39 $-1 $22 #
face $-1 $40 $41 $24 $-1 $42 forward single #
face $-1 $43 $44 $25 $-1 $45 forward single #
face $-1 $46 $47 $26 $-1 $48 reversed single #
face $-1 $49 $50 $27 $-1 $51 forward single #
face $-1 $52 $53 $28 $-1 $54 forward single #
face $-1 $55 $56 $29 $-1 $57 reversed single #
face $-1 $58 $59 $30 $-1 $60 forward single #
face $-1 $61 $62 $31 $-1 $63 forward single #
face $-1 $64 $65 $24 $-1 $66 reversed single #
loop $-1 $-1 $67 $32 #
plane-surface $-1 0 0 13.658916363270032 0 0 1 1 0 0 forward_v I I I I #
face $-1 $68 $69 $25 $-1 $70 reversed single #
loop $-1 $-1 $71 $33 #
plane-surface $-1 -59.900509659108252 0 0 1 0 0 0 0 -1 forward_v I I I I #
face $-1 $72 $73 $26 $-1 $74 reversed single #
loop $-1 $-1 $75 $34 #
plane-surface $-1 33.676933460210371 92.867084532488107 137.8857665688549 1 0 0 0 -0.81915205242281985 -0.57357642473473569 forward_v I I I I #
face $-1 $76 $77 $27 $-1 $78 forward single #
loop $-1 $79 $80 $35 #
cone-surface $-1 37.76883722355123 34.161814433820432 11.711019590926666 0 -0.81915205242281985 -0.57357642473473569 0.5 0 0 1 I I 0 1 0.5 forward I I I I #
face $-1 $81 $82 $28 $-1 $83 forward single #
loop $-1 $84 $85 $36 #
cone-surface $-1 43.906692868562502 34.161814433820432 11.711019590926666 0 -0.81915205242281985 -0.57357642473473569 0.5 0 0 1 I I 0 1 0.5 forward I I I I #
face $-1 $86 $87 $29 $-1 $88 reversed single #
loop $-1 $-1 $89 $37 #
plane-surface $-1 52.130480010886885 -35.800640921110968 1.4745587900846289 0 -0.84804810408105047 0.52991925155115449 1 0 0 forward_v I I I I #
face $-1 $90 $91 $30 $-1 $92 forward single #
loop $-1 $93 $94 $38 #
cone-surface $-1 48.800467304506284 -29.680573260683328 6.1212573610997909 0 0.84804810408105047 -0.52991925155115449 1.5 0 0 1 I I 0 1 1.5 forward I I I I #
face $-1 $95 $96 $31 $-1 $97 forward single #
loop $-1 $98 $99 $39 #
cone-surface $-1 55.460492717267456 -29.680573260683328 6.1212573610997909 0 0.84804810408105047 -0.52991925155115449 1.5 0 0 1 I I 0 1 1.5 forward I I I I #
face $-1 $100 $101 $24 $-1 $102 reversed single #
loop $-1 $-1 $103 $40 #
plane-surface $-1 0 0 -13.658916363270032 0 0 1 1 0 0 forward_v I I I I #
coedge $-1 $104 $105 $106 $107 forward $41 $-1 #
face $-1 $108 $109 $25 $-1 $110 forward single #
loop $-1 $-1 $111 $43 #
plane-surface $-1 0 35.800640921110997 0 0 -1 0 0 0 -1 forward_v I I I I #
coedge $-1 $112 $113 $114 $115 forward $44 $-1 #
face $-1 $116 $117 $26 $-1 $118 reversed single #
loop $-1 $-1 $119 $46 #
plane-surface $-1 40.837765046056859 -5.2681663243748318 69.170726228735276 0 0.81915205242281985 0.57357642473473569 1 0 0 forward_v I I I I #
coedge $-1 $120 $121 $122 $123 reversed $47 $-1 #
face $-1 $-1 $124 $27 $-1 $125 forward single #
loop $-1 $126 $127 $49 #
cone-surface $-1 37.76883722355123 33.417710279019403 11.189992268247464 0 -0.81915205242281985 -0.57357642473473569 0.25 0 0 1 I I -0.70710678118654746 0.70710678118654746 0.25 forward I I I I #
loop $-1 $-1 $128 $35 #
coedge $-1 $80 $80 $129 $130 reversed $50 $-1 #
face $-1 $-1 $131 $28 $-1 $132 forward single #
loop $-1 $133 $134 $52 #
cone-surface $-1 43.906692868562502 33.417710279019403 11.189992268247464 0 -0.81915205242281985 -0.57357642473473569 0.25 0 0 1 I I -0.70710678118654746 0.70710678118654746 0.25 forward I I I I #
loop $-1 $-1 $135 $36 #
coedge $-1 $85 $85 $136 $137 reversed $53 $-1 #
face $-1 $138 $139 $29 $-1 $140 reversed single #
loop $-1 $-1 $141 $55 #
plane-surface $-1 44.36045036266551 -137.39766822090178 64.959425282259318 1 0 0 0 0.84804810408105047 -0.52991925155115449 forward_v I I I I #
coedge $-1 $142 $143 $144 $145 reversed $56 $-1 #
face $-1 $-1 $146 $30 $-1 $147 forward single #
loop $-1 $148 $149 $58 #
cone-surface $-1 48.800467304506284 -26.731285205610966 4.278337706858883 0 0.84804810408105047 -0.52991925155115449 0.75 0 0 1 I I -0.70710678118654757 0.70710678118654757 0.75 forward I I I I #
loop $-1 $-1 $150 $38 #
coedge $-1 $94 $94 $151 $152 reversed $59 $-1 #
face $-1 $-1 $153 $31 $-1 $154 forward single #
loop $-1 $155 $156 $61 #
cone-surface $-1 55.460492717267456 -26.731285205610966 4.278337706858883 0 0.84804810408105047 -0.52991925155115449 0.75 0 0 1 I I -0.70710678118654757 0.70710678118654757 0.75 forward I I I I #
loop $-1 $-1 $157 $39 #
coedge $-1 $99 $99 $158 $159 reversed $62 $-1 #
face $-1 $160 $161 $24 $-1 $162 reversed single #
loop $-1 $-1 $163 $64 #
plane-surface $-1 0 -35.800640921110997 0 0 1 0 0 0 1 forward_v I I I I #
coedge $-1 $164 $165 $166 $167 forward $65 $-1 #
coedge $-1 $168 $67 $169 $170 forward $41 $-1 #
coedge $-1 $67 $168 $171 $172 forward $41 $-1 #
coedge $-1 $173 $174 $67 $107 reversed $175 $-1 #
edge $-1 $176 -35.800640921110997 $177 35.800640921110997 $106 $178 forward 7 unknown #
face $-1 $179 $180 $25 $-1 $181 reversed single #
loop $-1 $-1 $114 $68 #
plane-surface $-1 -66.711676472903051 0 13.158916363270034 0 0 1 1 0 0 forward_v I I I I #
coedge $-1 $182 $183 $113 $184 forward $69 $-1 #
coedge $-1 $185 $71 $186 $187 reversed $44 $-1 #
coedge $-1 $71 $185 $111 $184 reversed $44 $-1 #
coedge $-1 $188 $189 $71 $115 reversed $109 $-1 #
edge $-1 $190 -35.800640921110997 $191 35.800640921110997 $114 $192 forward 7 unknown #
face $-1 $193 $194 $26 $-1 $195 forward single #
loop $-1 $-1 $196 $72 #
plane-surface $-1 47.998596631903347 92.867084532488107 137.8857665688549 -1 0 0 0 0.81915205242281985 0.57357642473473569 forward_v I I I I #
coedge $-1 $197 $198 $199 $200 reversed $73 $-1 #
coedge $-1 $121 $75 $201 $202 reversed $47 $-1 #
coedge $-1 $75 $120 $197 $203 reversed $47 $-1 #
coedge $-1 $199 $204 $75 $123 forward $194 $-1 #
edge $-1 $205 10.632901345133057 $206 12.831922036323505 $122 $207 forward 7 unknown #
loop $-1 $-1 $129 $76 #
plane-surface $-1 40.837765046056859 -5.2681663243748318 69.170726228735276 0 0.81915205242281985 0.57357642473473569 1 0 0 forward_v I I I I #
loop $-1 $-1 $208 $49 #
coedge $-1 $127 $127 $128 $209 reversed $77 $-1 #
coedge $-1 $128 $128 $127 $209 forward $79 $-1 #
coedge $-1 $129 $129 $80 $130 forward $124 $-1 #
edge $-1 $210 4.0694664316797508e-015 $210 6.2831853071796049 $129 $211 forward 7 unknown #
loop $-1 $-1 $136 $81 #
plane-surface $-1 40.837765046056859 -5.2681663243748318 69.170726228735276 0 0.81915205242281985 0.57357642473473569 1 0 0 forward_v I I I I #
loop $-1 $-1 $212 $52 #
coedge $-1 $134 $134 $135 $213 reversed $82 $-1 #
coedge $-1 $135 $135 $134 $213 forward $84 $-1 #
coedge $-1 $136 $136 $85 $137 forward $131 $-1 #
edge $-1 $214 4.0694664316797508e-015 $214 6.2831853071796049 $136 $215 forward 7 unknown #
face $-1 $216 $217 $29 $-1 $218 forward single #
loop $-1 $-1 $219 $86 #
plane-surface $-1 0 -35.800640921110997 0 0 1 0 0 0 1 forward_v I I I I #
coedge $-1 $220 $221 $222 $223 reversed $87 $-1 #
coedge $-1 $224 $89 $225 $226 reversed $56 $-1 #
coedge $-1 $89 $224 $220 $227 forward $56 $-1 #
coedge $-1 $222 $228 $89 $145 forward $217 $-1 #
edge $-1 $229 -33.835269653664817 $230 -18.295210357222068 $144 $231 forward 7 unknown #
loop $-1 $-1 $151 $90 #
plane-surface $-1 52.130480010886885 -35.800640921110968 1.4745587900846289 0 -0.84804810408105047 0.52991925155115449 1 0 0 forward_v I I I I #
loop $-1 $-1 $232 $58 #
coedge $-1 $149 $149 $150 $233 reversed $91 $-1 #
coedge $-1 $150 $150 $149 $233 forward $93 $-1 #
coedge $-1 $151 $151 $94 $152 forward $146 $-1 #
edge $-1 $234 2.5238497042238725e-016 $234 6.2831853071796004 $151 $235 forward 7 unknown #
loop $-1 $-1 $158 $95 #
plane-surface $-1 52.130480010886885 -35.800640921110968 1.4745587900846289 0 -0.84804810408105047 0.52991925155115449 1 0 0 forward_v I I I I #
loop $-1 $-1 $236 $61 #
coedge $-1 $156 $156 $157 $237 reversed $96 $-1 #
coedge $-1 $157 $157 $156 $237 forward $98 $-1 #
coedge $-1 $158 $158 $99 $159 forward $153 $-1 #
edge $-1 $238 2.5238497042238725e-016 $238 6.2831853071796004 $158 $239 forward 7 unknown #
face $-1 $240 $241 $24 $-1 $242 reversed single #
loop $-1 $-1 $243 $100 #
plane-surface $-1 -59.900509659108252 0 0 1 0 0 0 0 -1 forward_v I I I I #
coedge $-1 $244 $171 $243 $245 forward $101 $-1 #
coedge $-1 $246 $103 $244 $247 forward $65 $-1 #
coedge $-1 $103 $246 $248 $249 forward $65 $-1 #
coedge $-1 $174 $173 $103 $167 reversed $175 $-1 #
edge $-1 $250 -35.800640921110997 $251 35.800640921110997 $166 $252 forward 7 unknown #
coedge $-1 $105 $104 $253 $254 forward $41 $-1 #
coedge $-1 $255 $256 $104 $170 reversed $241 $-1 #
edge $-1 $177 -59.900509659108252 $257 59.900509659108252 $169 $258 forward 7 unknown #
coedge $-1 $163 $259 $105 $172 reversed $101 $-1 #
edge $-1 $260 -59.900509659108252 $176 59.900509659108252 $171 $261 forward 7 unknown #
coedge $-1 $166 $106 $259 $262 forward $175 $-1 #
coedge $-1 $106 $166 $255 $263 reversed $175 $-1 #
loop $-1 $-1 $173 $240 #
vertex $-1 $107 $264 #
vertex $-1 $107 $265 #
straight-curve $-1 59.900509659108252 0 13.658916363270032 0 1 0 I I #
face $-1 $266 $267 $25 $-1 $268 reversed single #
loop $-1 $-1 $269 $108 #
plane-surface $-1 -66.711676472903051 0 9.976768600767187 0 0 1 1 0 0 forward_v I I I I #
coedge $-1 $270 $111 $271 $272 reversed $69 $-1 #
coedge $-1 $111 $270 $188 $273 reversed $69 $-1 #
edge $-1 $190 -13.158916363270034 $274 -9.976768600767187 $111 $275 forward 7 unknown #
coedge $-1 $113 $112 $269 $276 forward $44 $-1 #
coedge $-1 $277 $278 $112 $187 forward $279 $-1 #
edge $-1 $280 9.976768600767187 $191 13.158916363270034 $186 $281 forward 7 unknown #
coedge $-1 $282 $114 $183 $273 forward $109 $-1 #
coedge $-1 $114 $282 $277 $283 forward $109 $-1 #
vertex $-1 $184 $284 #
vertex $-1 $283 $285 #
straight-curve $-1 -59.900509659108252 0 13.158916363270034 0 -1 0 I I #
face $-1 $-1 $286 $26 $-1 $287 reversed single #
loop $-1 $-1 $122 $116 #
plane-surface $-1 0 0 13.658916363270032 0 0 1 1 0 0 forward_v I I I I #
coedge $-1 $288 $289 $290 $291 reversed $117 $-1 #
coedge $-1 $292 $119 $121 $203 forward $73 $-1 #
coedge $-1 $119 $292 $288 $293 forward $73 $-1 #
coedge $-1 $290 $122 $119 $200 forward $194 $-1 #
edge $-1 $206 13.258050937181942 $294 27.579714108874917 $199 $295 forward 7 unknown #
coedge $-1 $296 $297 $120 $202 forward $286 $-1 #
edge $-1 $298 -58.424494032853097 $205 -55.283966921157422 $201 $299 forward 7 unknown #
edge $-1 $206 67.767406187016249 $298 71.601281842221994 $121 $300 forward 7 unknown #
coedge $-1 $122 $290 $296 $301 forward $194 $-1 #
vertex $-1 $202 $302 #
vertex $-1 $123 $303 #
straight-curve $-1 33.676933460210371 46.433542266244054 13.658916363270031 0 -1 0 I I #
coedge $-1 $208 $208 $-1 $304 reversed $126 $-1 #
edge $-1 $305 0 $305 6.2831853071796004 $127 $306 forward 7 unknown #
vertex $-1 $130 $307 #
ellipse-curve $-1 37.76883722355123 34.701130575515769 12.088652807422198 0 0.81915205242281985 0.57357642473473569 0.5 0 0 1 I I #
coedge $-1 $212 $212 $-1 $308 reversed $133 $-1 #
edge $-1 $309 0 $309 6.2831853071796004 $134 $310 forward 7 unknown #
vertex $-1 $137 $311 #
ellipse-curve $-1 43.906692868562502 34.701130575515769 12.088652807422198 0 0.81915205242281985 0.57357642473473569 0.5 0 0 1 I I #
face $-1 $-1 $312 $29 $-1 $313 reversed single #
loop $-1 $-1 $222 $138 #
plane-surface $-1 0 0 13.658916363270032 0 0 1 1 0 0 forward_v I I I I #
coedge $-1 $314 $315 $221 $316 forward $139 $-1 #
coedge $-1 $221 $141 $143 $227 reversed $87 $-1 #
coedge $-1 $141 $220 $219 $316 reversed $87 $-1 #
coedge $-1 $317 $144 $141 $223 forward $217 $-1 #
edge $-1 $230 -40.511824556172101 $318 -32.898193189339892 $222 $319 forward 7 unknown #
coedge $-1 $143 $142 $314 $320 reversed $56 $-1 #
coedge $-1 $321 $322 $142 $226 forward $312 $-1 #
edge $-1 $323 -8.8604760278397734 $229 5.5070551470438556 $225 $324 forward 7 unknown #
edge $-1 $325 -5.3663634765924311e-014 $230 14.367531174883574 $220 $326 forward 7 unknown #
coedge $-1 $144 $317 $321 $327 forward $217 $-1 #
vertex $-1 $226 $328 #
vertex $-1 $145 $329 #
straight-curve $-1 26.065240005443442 -28.187009554278784 13.658916363270032 -1 0 0 I I #
coedge $-1 $232 $232 $-1 $330 reversed $148 $-1 #
edge $-1 $331 0 $331 6.2831853071796004 $149 $332 forward 7 unknown #
vertex $-1 $152 $333 #
ellipse-curve $-1 48.800467304506284 -31.993825237694885 7.5667375766773199 0 -0.84804810408105047 0.52991925155115449 1.5 0 0 1 I I #
coedge $-1 $236 $236 $-1 $334 reversed $155 $-1 #
edge $-1 $335 0 $335 6.2831853071796004 $156 $336 forward 7 unknown #
vertex $-1 $159 $337 #
ellipse-curve $-1 55.460492717267456 -31.993825237694885 7.5667375766773199 0 -0.84804810408105047 0.52991925155115449 1.5 0 0 1 I I #
face $-1 $-1 $175 $24 $-1 $338 reversed single #
loop $-1 $-1 $255 $160 #
plane-surface $-1 0 35.800640921110997 0 0 -1 0 0 0 -1 forward_v I I I I #
coedge $-1 $253 $339 $163 $245 reversed $161 $-1 #
coedge $-1 $259 $163 $164 $247 reversed $101 $-1 #
edge $-1 $260 -13.658916363270032 $340 13.658916363270032 $243 $341 forward 7 unknown #
coedge $-1 $165 $164 $339 $342 forward $65 $-1 #
edge $-1 $251 -59.900509659108252 $340 59.900509659108252 $244 $343 forward 7 unknown #
coedge $-1 $256 $255 $165 $249 reversed $241 $-1 #
edge $-1 $344 -59.900509659108252 $250 59.900509659108252 $248 $345 forward 7 unknown #
vertex $-1 $167 $346 #
vertex $-1 $262 $347 #
straight-curve $-1 59.900509659108252 0 -13.658916363270032 0 -1 0 I I #
coedge $-1 $348 $243 $168 $254 reversed $161 $-1 #
edge $-1 $257 -35.800640921110997 $260 35.800640921110997 $253 $349 forward 7 unknown #
coedge $-1 $248 $169 $174 $263 forward $241 $-1 #
coedge $-1 $169 $248 $348 $350 reversed $241 $-1 #
vertex $-1 $170 $351 #
straight-curve $-1 0 35.800640921110997 13.658916363270032 -1 0 0 I I #
coedge $-1 $171 $244 $173 $262 reversed $101 $-1 #
vertex $-1 $254 $352 #
straight-curve $-1 0 -35.800640921110997 13.658916363270032 1 0 0 I I #
edge $-1 $176 -13.658916363270032 $251 13.658916363270032 $173 $353 forward 7 unknown #
edge $-1 $177 -13.658916363270032 $250 13.658916363270032 $174 $354 forward 7 unknown #
point $-1 59.900509659108252 -35.800640921110997 13.658916363270032 #
point $-1 59.900509659108252 35.800640921110997 13.658916363270032 #
face $-1 $-1 $279 $25 $-1 $355 reversed single #
loop $-1 $-1 $356 $179 #
plane-surface $-1 -73.522843286697849 0 11.567842482018611 1 0 0 0 0 -1 forward_v I I I I #
coedge $-1 $357 $271 $185 $276 reversed $180 $-1 #
coedge $-1 $183 $182 $356 $358 reversed $69 $-1 #
coedge $-1 $269 $359 $182 $272 forward $180 $-1 #
edge $-1 $360 -6.8111668137947987 $274 6.8111668137948058 $182 $361 forward 7 unknown #
edge $-1 $190 -6.8111668137948058 $362 6.8111668137947987 $183 $363 forward 7 unknown #
vertex $-1 $184 $364 #
straight-curve $-1 -59.900509659108252 35.800640921110997 0 0 0 -1 I I #
edge $-1 $280 -35.800640921110997 $274 35.800640921110997 $269 $365 forward 7 unknown #
coedge $-1 $366 $186 $189 $283 reversed $279 $-1 #
coedge $-1 $186 $366 $357 $367 reversed $279 $-1 #
loop $-1 $-1 $186 $266 #
vertex $-1 $187 $368 #
straight-curve $-1 -59.900509659108252 -35.800640921110997 0 0 0 1 I I #
coedge $-1 $189 $188 $369 $370 forward $109 $-1 #
edge $-1 $371 -6.8111668137947987 $191 6.8111668137948058 $277 $372 forward 7 unknown #
point $-1 -59.900509659108245 35.800640921110997 13.158916363270034 #
point $-1 -59.900509659108245 -35.800640921110997 13.158916363270034 #
loop $-1 $-1 $201 $193 #
plane-surface $-1 0 35.800640921110997 0 0 -1 0 0 0 -1 forward_v I I I I #
coedge $-1 $289 $196 $198 $293 reversed $117 $-1 #
coedge $-1 $196 $288 $373 $374 reversed $117 $-1 #
coedge $-1 $204 $199 $196 $291 forward $194 $-1 #
edge $-1 $294 -12.831922036323505 $375 -10.632901345133057 $290 $376 forward 7 unknown #
coedge $-1 $198 $197 $297 $377 reversed $73 $-1 #
edge $-1 $378 -71.601281842221994 $294 -67.767406187016249 $288 $379 forward 7 unknown #
vertex $-1 $200 $380 #
straight-curve $-1 20.418882523028429 33.601620229920556 13.658916363270031 1 0 0 I I #
coedge $-1 $373 $201 $204 $301 reversed $286 $-1 #
coedge $-1 $201 $373 $292 $377 forward $286 $-1 #
vertex $-1 $202 $381 #
straight-curve $-1 33.676933460210371 35.800640921110997 68.942883284427452 0 0 1 I I #
straight-curve $-1 33.676933460210371 -5.2681663243748318 69.170726228735276 0 0.57357642473473569 -0.81915205242281985 I I #
edge $-1 $375 -47.998596631903347 $205 -33.676933460210371 $296 $382 forward 7 unknown #
point $-1 33.676933460210371 35.800640921110997 13.658916363270032 #
point $-1 33.676933460210371 33.601620229920549 13.658916363270023 #
edge $-1 $383 1 $383 0 $208 $-1 forward 7 unknown #
vertex $-1 $209 $384 #
ellipse-curve $-1 37.76883722355123 33.622498292125108 11.333386374431148 0 0.81915205242281985 0.57357642473473569 0.5 0 0 1 I I #
point $-1 38.26883722355123 34.701130575515755 12.088652807422186 #
edge $-1 $385 1 $385 0 $212 $-1 forward 7 unknown #
vertex $-1 $213 $386 #
ellipse-curve $-1 43.906692868562502 33.622498292125108 11.333386374431148 0 0.81915205242281985 0.57357642473473569 0.5 0 0 1 I I #
point $-1 44.406692868562502 34.701130575515755 12.088652807422186 #
loop $-1 $-1 $225 $216 #
plane-surface $-1 59.900509659108252 0 0 -1 0 0 0 0 1 forward_v I I I I #
coedge $-1 $387 $219 $224 $320 forward $139 $-1 #
coedge $-1 $219 $387 $317 $388 reversed $139 $-1 #
edge $-1 $318 18.820796277859628 $325 31.005153851045076 $219 $389 forward 7 unknown #
coedge $-1 $228 $222 $315 $388 forward $217 $-1 #
vertex $-1 $388 $390 #
straight-curve $-1 44.36045036266551 -68.698834110450889 13.658916363270031 0 -1 0 I I #
edge $-1 $325 18.295210357222068 $323 33.835269653664817 $314 $391 forward 7 unknown #
coedge $-1 $322 $225 $228 $327 reversed $312 $-1 #
coedge $-1 $225 $321 $387 $392 forward $312 $-1 #
vertex $-1 $320 $393 #
straight-curve $-1 59.900509659108252 -31.105304096051199 8.9886686867497012 0 0.52991925155115449 0.84804810408105047 I I #
vertex $-1 $320 $394 #
straight-curve $-1 44.36045036266551 -35.800640921110968 1.4745587900846289 0 0.52991925155115449 0.84804810408105047 I I #
edge $-1 $395 -35.800640921110997 $229 -28.187009554278784 $321 $396 forward 7 unknown #
point $-1 59.900509659108259 -28.187009554278784 13.658916363270032 #
point $-1 44.36045036266551 -28.187009554278784 13.658916363270032 #
edge $-1 $397 1 $397 0 $232 $-1 forward 7 unknown #
vertex $-1 $233 $398 #
ellipse-curve $-1 48.800467304506284 -27.367321283671753 4.6757771455222485 0 -0.84804810408105047 0.52991925155115449 1.5 0 0 1 I I #
point $-1 50.300467304506284 -31.993825237694903 7.5667375766773315 #
edge $-1 $399 1 $399 0 $236 $-1 forward 7 unknown #
vertex $-1 $237 $400 #
ellipse-curve $-1 55.460492717267456 -27.367321283671753 4.6757771455222485 0 -0.84804810408105047 0.52991925155115449 1.5 0 0 1 I I #
point $-1 56.960492717267456 -31.993825237694903 7.5667375766773315 #
plane-surface $-1 59.900509659108252 0 0 -1 0 0 0 0 1 forward_v I I I I #
coedge $-1 $243 $348 $246 $342 reversed $161 $-1 #
vertex $-1 $342 $401 #
straight-curve $-1 -59.900509659108252 -35.800640921110997 0 0 0 -1 I I #
edge $-1 $340 -35.800640921110997 $344 35.800640921110997 $339 $402 forward 7 unknown #
straight-curve $-1 0 -35.800640921110997 -13.658916363270032 -1 0 0 I I #
vertex $-1 $249 $403 #
straight-curve $-1 0 35.800640921110997 -13.658916363270032 1 0 0 I I #
point $-1 59.900509659108252 35.800640921110997 -13.658916363270032 #
point $-1 59.900509659108252 -35.800640921110997 -13.658916363270032 #
coedge $-1 $339 $253 $256 $350 forward $161 $-1 #
straight-curve $-1 -59.900509659108252 0 13.658916363270032 0 -1 0 I I #
edge $-1 $257 -13.658916363270032 $344 13.658916363270032 $256 $404 forward 7 unknown #
point $-1 -59.900509659108252 35.800640921110997 13.658916363270032 #
point $-1 -59.900509659108252 -35.800640921110997 13.658916363270032 #
straight-curve $-1 59.900509659108252 -35.800640921110997 0 0 0 -1 I I #
straight-curve $-1 59.900509659108252 35.800640921110997 0 0 0 -1 I I #
plane-surface $-1 0 -35.800640921110997 0 0 1 0 0 0 1 forward_v I I I I #
coedge $-1 $405 $369 $270 $358 forward $267 $-1 #
coedge $-1 $359 $269 $278 $367 forward $180 $-1 #
edge $-1 $362 -1.5910738812514236 $360 1.5910738812514236 $270 $406 forward 7 unknown #
coedge $-1 $271 $357 $405 $407 forward $180 $-1 #
vertex $-1 $272 $408 #
straight-curve $-1 -66.711676472903051 35.800640921110997 9.976768600767187 1 0 0 I I #
vertex $-1 $273 $409 #
straight-curve $-1 -66.711676472903051 35.800640921110997 13.158916363270034 -1 0 0 I I #
point $-1 -59.900509659108245 35.800640921110997 9.976768600767187 #
straight-curve $-1 -59.900509659108252 0 9.976768600767187 0 1 0 I I #
coedge $-1 $278 $277 $410 $411 forward $279 $-1 #
edge $-1 $280 -6.8111668137948058 $412 6.8111668137947987 $278 $413 forward 7 unknown #
point $-1 -59.900509659108245 -35.800640921110997 9.976768600767187 #
coedge $-1 $356 $410 $282 $370 reversed $267 $-1 #
edge $-1 $362 -35.800640921110997 $371 35.800640921110997 $369 $414 forward 7 unknown #
vertex $-1 $370 $415 #
straight-curve $-1 -66.711676472903051 -35.800640921110997 13.158916363270034 1 0 0 I I #
coedge $-1 $297 $296 $289 $374 forward $286 $-1 #
edge $-1 $375 55.283966921157422 $378 58.424494032853097 $373 $416 forward 7 unknown #
vertex $-1 $301 $417 #
straight-curve $-1 47.998596631903347 46.433542266244054 13.658916363270031 0 1 0 I I #
edge $-1 $378 -27.579714108874917 $298 -13.258050937181942 $297 $418 forward 7 unknown #
vertex $-1 $377 $419 #
straight-curve $-1 47.998596631903347 -5.2681663243748318 69.170726228735276 0 -0.57357642473473569 0.81915205242281985 I I #
point $-1 47.998596631903347 33.601620229920549 13.658916363270023 #
point $-1 33.676933460210371 35.800640921111004 10.518389251574355 #
straight-curve $-1 0 35.800640921110997 13.658916363270032 -1 0 0 I I #
vertex $-1 $304 $420 #
point $-1 38.26883722355123 33.622498292125108 11.333386374431148 #
vertex $-1 $308 $421 #
point $-1 44.406692868562502 33.622498292125108 11.333386374431148 #
coedge $-1 $315 $314 $322 $392 reversed $139 $-1 #
edge $-1 $318 44.36045036266551 $395 59.900509659108252 $315 $422 forward 7 unknown #
straight-curve $-1 44.36045036266551 -35.800640921110997 32.479712641129659 0 0 -1 I I #
point $-1 44.36045036266551 -35.800640921110997 13.658916363270032 #
straight-curve $-1 26.065240005443442 -35.800640921110997 1.4745587900845787 1 0 0 I I #
edge $-1 $395 -13.658916363270032 $323 -1.4745587900845833 $322 $423 forward 7 unknown #
point $-1 59.900509659108259 -35.800640921110997 1.4745587900845833 #
point $-1 44.36045036266551 -35.800640921110997 1.4745587900845833 #
vertex $-1 $327 $424 #
straight-curve $-1 59.900509659108252 0 13.658916363270032 0 1 0 I I #
vertex $-1 $330 $425 #
point $-1 50.300467304506284 -27.367321283671753 4.6757771455222485 #
vertex $-1 $334 $426 #
point $-1 56.960492717267456 -27.367321283671753 4.6757771455222485 #
point $-1 -59.900509659108252 -35.800640921110997 -13.658916363270032 #
straight-curve $-1 -59.900509659108252 0 -13.658916363270032 0 1 0 I I #
point $-1 -59.900509659108252 35.800640921110997 -13.658916363270032 #
straight-curve $-1 -59.900509659108252 35.800640921110997 0 0 0 -1 I I #
coedge $-1 $410 $356 $359 $407 reversed $267 $-1 #
straight-curve $-1 -73.522843286697849 35.800640921110997 11.567842482018611 0 0 -1 I I #
edge $-1 $412 -35.800640921110997 $360 35.800640921110997 $405 $427 forward 7 unknown #
point $-1 -73.522843286697849 35.800640921110997 9.976768600767187 #
point $-1 -73.522843286697849 35.800640921110997 13.158916363270034 #
coedge $-1 $369 $405 $366 $411 reversed $267 $-1 #
edge $-1 $371 -1.5910738812514236 $412 1.5910738812514236 $410 $428 forward 7 unknown #
vertex $-1 $407 $429 #
straight-curve $-1 -66.711676472903051 -35.800640921110997 9.976768600767187 -1 0 0 I I #
straight-curve $-1 -73.522843286697849 0 13.158916363270034 0 -1 0 I I #
point $-1 -73.522843286697849 -35.800640921110997 13.158916363270034 #
straight-curve $-1 47.998596631903347 35.800640921110997 68.942883284427452 0 0 -1 I I #
point $-1 47.998596631903347 35.800640921110997 13.658916363270032 #
straight-curve $-1 20.418882523028429 35.800640921110997 10.518389251574366 -1 0 0 I I #
point $-1 47.998596631903347 35.800640921111004 10.518389251574355 #
point $-1 37.76883722355123 33.212922265913697 11.046598162063779 #
point $-1 43.906692868562502 33.212922265913697 11.046598162063779 #
straight-curve $-1 0 -35.800640921110997 13.658916363270032 1 0 0 I I #
straight-curve $-1 59.900509659108252 -35.800640921110997 0 0 0 -1 I I #
point $-1 59.900509659108252 -35.800640921110997 13.658916363270032 #
point $-1 48.800467304506284 -26.095249127550179 3.8808982681955171 #
point $-1 55.460492717267456 -26.095249127550179 3.8808982681955171 #
straight-curve $-1 -73.522843286697849 0 9.976768600767187 0 1 0 I I #
straight-curve $-1 -73.522843286697849 -35.800640921110997 11.567842482018611 0 0 -1 I I #
point $-1 -73.522843286697849 -35.800640921110997 9.976768600767187 #
End-of-ACIS-data 