500 0 10 0           
7 Unknown 11 ACIS 5.0 NT 24 Fri Mar 26 19:43:04 1999 
-1 9.9999999999999995e-007 1e-010 
body $-1 $10 $-1 $11 #
body $-1 $12 $-1 $13 #
body $-1 $14 $-1 $15 #
body $-1 $16 $-1 $17 #
body $-1 $18 $-1 $19 #
body $-1 $20 $-1 $21 #
body $-1 $22 $-1 $23 #
body $-1 $24 $-1 $25 #
body $-1 $26 $-1 $27 #
body $-1 $28 $-1 $29 #
lump $-1 $-1 $30 $0 #
transform $-1 1 0 0 0 1 0 0 0 1 53.170567949461351 37.144916255107873 15.302227272952196 1 rotate no_reflect no_shear #
lump $-1 $-1 $31 $1 #
transform $-1 1 0 0 0 1 0 0 0 1 53.170567949461351 37.144916255107873 15.302227272952196 1 rotate no_reflect no_shear #
lump $-1 $-1 $32 $2 #
transform $-1 1 0 0 0 1 0 0 0 1 53.170567949461351 37.144916255107873 15.302227272952196 1 rotate no_reflect no_shear #
lump $-1 $-1 $33 $3 #
transform $-1 1 0 0 0 1 0 0 0 1 53.170567949461351 37.144916255107873 15.302227272952196 1 rotate no_reflect no_shear #
lump $-1 $-1 $34 $4 #
transform $-1 1 0 0 0 1 0 0 0 1 53.170567949461351 37.144916255107873 15.302227272952196 1 rotate no_reflect no_shear #
lump $-1 $-1 $35 $5 #
transform $-1 1 0 0 0 1 0 0 0 1 53.170567949461351 37.144916255107873 15.302227272952196 1 rotate no_reflect no_shear #
lump $-1 $-1 $36 $6 #
transform $-1 1 0 0 0 1 0 0 0 1 53.170567949461351 37.144916255107873 15.302227272952196 1 rotate no_reflect no_shear #
lump $-1 $-1 $37 $7 #
transform $-1 1 0 0 0 1 0 0 0 1 53.170567949461351 37.144916255107873 15.302227272952196 1 rotate no_reflect no_shear #
lump $-1 $-1 $38 $8 #
transform $-1 1 0 0 0 1 0 0 0 1 53.170567949461351 37.144916255107873 15.302227272952196 1 rotate no_reflect no_shear #
lump $-1 $-1 $39 $9 #
transform $-1 1 0 0 0 1 0 0 0 1 53.170567949461351 37.144916255107873 15.302227272952196 1 rotate no_reflect no_shear #
shell $-1 $-1 $-1 $40 $-1 $10 #
shell $-1 $-1 $-1 $41 $-1 $12 #
shell $-1 $-1 $-1 $42 $-1 $14 #
shell $-1 $-1 $-1 $43 $-1 $16 #
shell $-1 $-1 $-1 $44 $-1 $18 #
shell $-1 $-1 $-1 $45 $-1 $20 #
shell $-1 $-1 $-1 $46 $-1 $22 #
shell $-1 $-1 $-1 $47 $-1 $24 #
shell $-1 $-1 $-1 $48 $-1 $26 #
shell $-1 $-1 $-1 $49 $-1 $28 #
face $-1 $50 $51 $30 $-1 $52 forward single #
face $-1 $53 $54 $31 $-1 $55 forward single #
face $-1 $56 $57 $32 $-1 $58 forward single #
face $-1 $59 $60 $33 $-1 $61 reversed single #
face $-1 $62 $63 $34 $-1 $64 forward single #
face $-1 $65 $66 $35 $-1 $67 forward single #
face $-1 $68 $69 $36 $-1 $70 reversed single #
face $-1 $71 $72 $37 $-1 $73 forward single #
face $-1 $74 $75 $38 $-1 $76 forward single #
face $-1 $77 $78 $39 $-1 $79 forward single #
face $-1 $80 $81 $30 $-1 $82 reversed single #
loop $-1 $-1 $83 $40 #
plane-surface $-1 0 0 15.302227272952196 0 0 1 1 0 0 forward_v I I I I #
face $-1 $84 $85 $31 $-1 $86 reversed single #
loop $-1 $-1 $87 $41 #
plane-surface $-1 0 -37.144916255107873 0 0 1 0 0 0 1 forward_v I I I I #
face $-1 $88 $89 $32 $-1 $90 reversed single #
loop $-1 $-1 $91 $42 #
plane-surface $-1 0 37.144916255107873 0 0 -1 0 0 0 -1 forward_v I I I I #
face $-1 $92 $93 $33 $-1 $94 reversed single #
loop $-1 $-1 $95 $43 #
plane-surface $-1 42.679957860289882 26.396641532210555 153.96942106871464 0 -1 0 -0.6560590369687036 0 -0.75470957328743171 forward_v I I I I #
face $-1 $96 $97 $34 $-1 $98 forward single #
loop $-1 $99 $100 $44 #
cone-surface $-1 45.380409848317349 19.909948927127779 8.1765683926593216 -0.6560590369687036 0 -0.75470957328743171 0.75470957328743171 0 -0.6560590369687036 1 I I 0 1 1 forward I I I I #
face $-1 $101 $102 $35 $-1 $103 forward single #
loop $-1 $104 $105 $45 #
cone-surface $-1 45.380409848317349 23.80196449017744 8.1765683926593216 -0.6560590369687036 0 -0.75470957328743171 0.75470957328743171 0 -0.6560590369687036 1 I I 0 1 1 forward I I I I #
face $-1 $106 $107 $36 $-1 $108 reversed single #
loop $-1 $-1 $109 $46 #
plane-surface $-1 -144.32271319470743 -26.396641532210545 63.673050428105739 0 1 0 -0.85716730853699208 0 0.51503806187062418 forward_v I I I I #
face $-1 $110 $111 $37 $-1 $112 forward single #
loop $-1 $113 $114 $47 #
cone-surface $-1 -50.503551656221546 -24.428385792851671 11.655377771164648 0.85716730853699208 0 -0.51503806187062418 0.25751903093531209 0 0.42858365426849604 1 I I 0 1 0.5 forward I I I I #
face $-1 $115 $116 $38 $-1 $117 forward single #
loop $-1 $118 $119 $48 #
cone-surface $-1 -50.503551656221546 -21.47600218381336 11.655377771164648 0.85716730853699208 0 -0.51503806187062418 0.25751903093531209 0 0.42858365426849604 1 I I 0 1 0.5 forward I I I I #
face $-1 $120 $121 $39 $-1 $122 forward single #
loop $-1 $123 $124 $49 #
cone-surface $-1 -50.503551656221546 -18.52361857477505 11.655377771164648 0.85716730853699208 0 -0.51503806187062418 0.25751903093531209 0 0.42858365426849604 1 I I 0 1 0.5 forward I I I I #
face $-1 $125 $126 $30 $-1 $127 reversed single #
loop $-1 $-1 $128 $50 #
plane-surface $-1 0 0 -15.302227272952196 0 0 1 1 0 0 forward_v I I I I #
coedge $-1 $129 $130 $131 $132 forward $51 $-1 #
face $-1 $133 $134 $31 $-1 $135 reversed single #
loop $-1 $-1 $136 $53 #
plane-surface $-1 0 0 -15.302227272952196 0 0 1 1 0 0 forward_v I I I I #
coedge $-1 $137 $138 $139 $140 forward $54 $-1 #
face $-1 $141 $142 $32 $-1 $143 reversed single #
loop $-1 $-1 $144 $56 #
plane-surface $-1 0 0 -15.302227272952196 0 0 1 1 0 0 forward_v I I I I #
coedge $-1 $145 $146 $147 $148 forward $57 $-1 #
face $-1 $149 $150 $33 $-1 $151 reversed single #
loop $-1 $-1 $152 $59 #
plane-surface $-1 -27.086105347715382 21.855956708652613 73.712747771537906 0.6560590369687036 0 0.75470957328743171 0.75470957328743171 0 -0.6560590369687036 forward_v I I I I #
coedge $-1 $153 $154 $155 $156 reversed $60 $-1 #
face $-1 $-1 $157 $34 $-1 $158 forward single #
loop $-1 $159 $160 $62 #
cone-surface $-1 43.793750879122065 19.909948927127779 6.3513260804325125 -0.6560590369687036 0 -0.75470957328743171 0.37735478664371586 0 -0.3280295184843518 1 I I -0.70710678118654746 0.70710678118654746 0.5 forward I I I I #
loop $-1 $-1 $161 $44 #
coedge $-1 $100 $100 $162 $163 reversed $63 $-1 #
face $-1 $-1 $164 $35 $-1 $165 forward single #
loop $-1 $166 $167 $65 #
cone-surface $-1 43.793750879122065 23.80196449017744 6.3513260804325125 -0.6560590369687036 0 -0.75470957328743171 0.37735478664371586 0 -0.3280295184843518 1 I I -0.70710678118654746 0.70710678118654746 0.5 forward I I I I #
loop $-1 $-1 $168 $45 #
coedge $-1 $105 $105 $169 $170 reversed $66 $-1 #
face $-1 $171 $172 $36 $-1 $173 reversed single #
loop $-1 $-1 $174 $68 #
plane-surface $-1 -53.170567949461358 -21.47600218381336 8.9033178976039338 -0.85716730853699208 0 0.51503806187062418 0.51503806187062418 0 0.85716730853699208 forward_v I I I I #
coedge $-1 $175 $176 $177 $178 reversed $69 $-1 #
face $-1 $-1 $179 $37 $-1 $180 forward single #
loop $-1 $181 $182 $71 #
cone-surface $-1 -49.544669793791343 -24.428385792851671 11.07922344158357 0.85716730853699208 0 -0.51503806187062418 0.12875951546765604 0 0.21429182713424802 1 I I -0.70710678118654746 0.70710678118654746 0.25 forward I I I I #
loop $-1 $-1 $183 $47 #
coedge $-1 $114 $114 $184 $185 reversed $72 $-1 #
face $-1 $-1 $186 $38 $-1 $187 forward single #
loop $-1 $188 $189 $74 #
cone-surface $-1 -49.544669793791343 -21.47600218381336 11.07922344158357 0.85716730853699208 0 -0.51503806187062418 0.12875951546765604 0 0.21429182713424802 1 I I -0.70710678118654746 0.70710678118654746 0.25 forward I I I I #
loop $-1 $-1 $190 $48 #
coedge $-1 $119 $119 $191 $192 reversed $75 $-1 #
face $-1 $-1 $193 $39 $-1 $194 forward single #
loop $-1 $195 $196 $77 #
cone-surface $-1 -49.544669793791343 -18.52361857477505 11.07922344158357 0.85716730853699208 0 -0.51503806187062418 0.12875951546765604 0 0.21429182713424802 1 I I -0.70710678118654746 0.70710678118654746 0.25 forward I I I I #
loop $-1 $-1 $197 $49 #
coedge $-1 $124 $124 $198 $199 reversed $78 $-1 #
face $-1 $200 $201 $30 $-1 $202 reversed single #
loop $-1 $-1 $203 $80 #
plane-surface $-1 0 -37.144916255107873 0 0 1 0 0 0 1 forward_v I I I I #
coedge $-1 $204 $205 $206 $207 forward $81 $-1 #
coedge $-1 $208 $83 $209 $210 forward $51 $-1 #
coedge $-1 $83 $208 $211 $212 forward $51 $-1 #
coedge $-1 $213 $214 $83 $132 reversed $215 $-1 #
edge $-1 $216 -37.144916255107873 $217 37.144916255107873 $131 $218 forward 7 unknown #
face $-1 $219 $220 $31 $-1 $221 reversed single #
loop $-1 $-1 $222 $84 #
plane-surface $-1 -48.024248090056226 -47.893190978005194 0 0 1 0 0 0 1 forward_v I I I I #
coedge $-1 $223 $224 $138 $225 forward $85 $-1 #
coedge $-1 $226 $87 $227 $228 reversed $54 $-1 #
coedge $-1 $87 $226 $136 $225 reversed $54 $-1 #
coedge $-1 $229 $230 $87 $140 reversed $220 $-1 #
edge $-1 $231 -15.302227272952196 $232 15.302227272952196 $139 $233 forward 7 unknown #
face $-1 $234 $235 $32 $-1 $236 reversed single #
loop $-1 $-1 $237 $88 #
plane-surface $-1 -49.944136591958561 42.519053616556533 0 1 0 0 0 0 -1 forward_v I I I I #
coedge $-1 $238 $239 $146 $240 forward $89 $-1 #
coedge $-1 $241 $91 $242 $243 reversed $57 $-1 #
coedge $-1 $91 $241 $144 $240 reversed $57 $-1 #
coedge $-1 $244 $245 $91 $148 reversed $246 $-1 #
edge $-1 $247 -15.302227272952196 $248 15.302227272952196 $147 $249 forward 7 unknown #
face $-1 $250 $251 $33 $-1 $252 forward single #
loop $-1 $-1 $253 $92 #
plane-surface $-1 42.679957860289882 17.315271885094671 153.96942106871464 0 1 0 0.6560590369687036 0 0.75470957328743171 forward_v I I I I #
coedge $-1 $254 $255 $256 $257 reversed $93 $-1 #
coedge $-1 $154 $95 $258 $259 reversed $60 $-1 #
coedge $-1 $95 $153 $254 $260 reversed $60 $-1 #
coedge $-1 $256 $261 $95 $156 forward $251 $-1 #
edge $-1 $262 -31.83058901931641 $263 -18.767531718450275 $155 $264 forward 7 unknown #
loop $-1 $-1 $162 $96 #
plane-surface $-1 -27.086105347715382 21.855956708652613 73.712747771537906 0.6560590369687036 0 0.75470957328743171 0.75470957328743171 0 -0.6560590369687036 forward_v I I I I #
loop $-1 $-1 $265 $62 #
coedge $-1 $160 $160 $161 $266 reversed $97 $-1 #
coedge $-1 $161 $161 $160 $266 forward $99 $-1 #
coedge $-1 $162 $162 $100 $163 forward $157 $-1 #
edge $-1 $267 0 $267 6.2831853071796004 $162 $268 forward 7 unknown #
loop $-1 $-1 $169 $101 #
plane-surface $-1 -27.086105347715382 21.855956708652613 73.712747771537906 0.6560590369687036 0 0.75470957328743171 0.75470957328743171 0 -0.6560590369687036 forward_v I I I I #
loop $-1 $-1 $269 $65 #
coedge $-1 $167 $167 $168 $270 reversed $102 $-1 #
coedge $-1 $168 $168 $167 $270 forward $104 $-1 #
coedge $-1 $169 $169 $105 $170 forward $164 $-1 #
edge $-1 $271 0 $271 6.2831853071796004 $169 $272 forward 7 unknown #
face $-1 $273 $274 $36 $-1 $275 reversed single #
loop $-1 $-1 $276 $106 #
plane-surface $-1 -144.32271319470743 -16.555362835416176 63.673050428105739 0 -1 0 0.85716730853699208 0 -0.51503806187062418 forward_v I I I I #
coedge $-1 $277 $278 $279 $280 reversed $107 $-1 #
coedge $-1 $176 $109 $281 $282 reversed $69 $-1 #
coedge $-1 $109 $175 $277 $283 reversed $69 $-1 #
coedge $-1 $279 $284 $109 $178 forward $285 $-1 #
edge $-1 $286 18.990788647892366 $287 22.835641163780053 $177 $288 forward 7 unknown #
loop $-1 $-1 $184 $110 #
plane-surface $-1 -53.170567949461358 -21.47600218381336 8.9033178976039338 -0.85716730853699208 0 0.51503806187062418 0.51503806187062418 0 0.85716730853699208 forward_v I I I I #
loop $-1 $-1 $289 $71 #
coedge $-1 $182 $182 $183 $290 reversed $111 $-1 #
coedge $-1 $183 $183 $182 $290 forward $113 $-1 #
coedge $-1 $184 $184 $114 $185 forward $179 $-1 #
edge $-1 $291 0 $291 6.2831853071796004 $184 $292 forward 7 unknown #
loop $-1 $-1 $191 $115 #
plane-surface $-1 -53.170567949461358 -21.47600218381336 8.9033178976039338 -0.85716730853699208 0 0.51503806187062418 0.51503806187062418 0 0.85716730853699208 forward_v I I I I #
loop $-1 $-1 $293 $74 #
coedge $-1 $189 $189 $190 $294 reversed $116 $-1 #
coedge $-1 $190 $190 $189 $294 forward $118 $-1 #
coedge $-1 $191 $191 $119 $192 forward $186 $-1 #
edge $-1 $295 0 $295 6.2831853071796004 $191 $296 forward 7 unknown #
loop $-1 $-1 $198 $120 #
plane-surface $-1 -53.170567949461358 -21.47600218381336 8.9033178976039338 -0.85716730853699208 0 0.51503806187062418 0.51503806187062418 0 0.85716730853699208 forward_v I I I I #
loop $-1 $-1 $297 $77 #
coedge $-1 $196 $196 $197 $298 reversed $121 $-1 #
coedge $-1 $197 $197 $196 $298 forward $123 $-1 #
coedge $-1 $198 $198 $124 $199 forward $193 $-1 #
edge $-1 $299 0 $299 6.2831853071796004 $198 $300 forward 7 unknown #
face $-1 $301 $302 $30 $-1 $303 reversed single #
loop $-1 $-1 $304 $125 #
plane-surface $-1 -53.170567949461351 0 0 1 0 0 0 0 -1 forward_v I I I I #
coedge $-1 $305 $211 $306 $307 forward $126 $-1 #
coedge $-1 $308 $128 $305 $309 forward $81 $-1 #
coedge $-1 $128 $308 $310 $311 forward $81 $-1 #
coedge $-1 $214 $213 $128 $207 reversed $215 $-1 #
edge $-1 $312 -37.144916255107873 $313 37.144916255107873 $206 $314 forward 7 unknown #
coedge $-1 $130 $129 $315 $316 forward $51 $-1 #
coedge $-1 $317 $318 $129 $210 reversed $302 $-1 #
edge $-1 $217 -53.170567949461351 $319 53.170567949461351 $209 $320 forward 7 unknown #
coedge $-1 $203 $321 $130 $212 reversed $126 $-1 #
edge $-1 $322 -53.170567949461351 $216 53.170567949461351 $211 $323 forward 7 unknown #
coedge $-1 $206 $131 $321 $324 forward $215 $-1 #
coedge $-1 $131 $206 $317 $325 reversed $215 $-1 #
loop $-1 $-1 $213 $301 #
vertex $-1 $132 $326 #
vertex $-1 $132 $327 #
straight-curve $-1 53.170567949461351 0 15.302227272952196 0 1 0 I I #
face $-1 $328 $329 $31 $-1 $330 reversed single #
loop $-1 $-1 $139 $133 #
plane-surface $-1 -49.944136591958561 -42.519053616556533 0 1 0 0 0 0 -1 forward_v I I I I #
coedge $-1 $331 $332 $333 $334 forward $134 $-1 #
coedge $-1 $335 $136 $336 $337 forward $85 $-1 #
coedge $-1 $136 $335 $229 $338 forward $85 $-1 #
edge $-1 $231 -49.944136591958561 $339 -46.104359588153891 $136 $340 forward 7 unknown #
coedge $-1 $138 $137 $341 $342 forward $54 $-1 #
coedge $-1 $343 $344 $137 $228 forward $345 $-1 #
edge $-1 $346 46.104359588153891 $232 49.944136591958561 $227 $347 forward 7 unknown #
coedge $-1 $333 $139 $224 $338 reversed $220 $-1 #
coedge $-1 $139 $333 $343 $348 reversed $220 $-1 #
vertex $-1 $225 $349 #
vertex $-1 $348 $350 #
straight-curve $-1 -49.944136591958561 -37.144916255107873 0 0 0 1 I I #
face $-1 $351 $246 $32 $-1 $352 reversed single #
loop $-1 $-1 $353 $141 #
plane-surface $-1 -48.024248090056226 47.893190978005194 0 0 -1 0 0 0 -1 forward_v I I I I #
coedge $-1 $354 $355 $356 $357 forward $142 $-1 #
coedge $-1 $358 $144 $354 $359 forward $89 $-1 #
coedge $-1 $144 $358 $244 $360 forward $89 $-1 #
edge $-1 $247 46.104359588153891 $361 49.944136591958561 $144 $362 forward 7 unknown #
coedge $-1 $146 $145 $363 $364 forward $57 $-1 #
coedge $-1 $365 $366 $145 $243 forward $367 $-1 #
edge $-1 $368 -49.944136591958561 $248 -46.104359588153891 $242 $369 forward 7 unknown #
coedge $-1 $370 $147 $239 $360 reversed $246 $-1 #
coedge $-1 $147 $370 $365 $371 reversed $246 $-1 #
loop $-1 $-1 $147 $234 #
vertex $-1 $240 $372 #
vertex $-1 $371 $373 #
straight-curve $-1 -46.104359588153891 37.144916255107873 0 0 0 1 I I #
face $-1 $-1 $374 $33 $-1 $375 reversed single #
loop $-1 $-1 $155 $149 #
plane-surface $-1 0 0 15.302227272952196 0 0 1 1 0 0 forward_v I I I I #
coedge $-1 $376 $377 $378 $379 reversed $150 $-1 #
coedge $-1 $380 $152 $154 $260 forward $93 $-1 #
coedge $-1 $152 $380 $376 $381 forward $93 $-1 #
coedge $-1 $378 $155 $152 $257 forward $251 $-1 #
edge $-1 $263 -15.468663177884249 $382 -6.387293530768364 $256 $383 forward 7 unknown #
coedge $-1 $384 $385 $153 $259 forward $374 $-1 #
edge $-1 $386 -73.038025970824663 $262 -61.682483261405125 $258 $387 forward 7 unknown #
edge $-1 $263 89.032415083357989 $386 106.34113589892269 $154 $388 forward 7 unknown #
coedge $-1 $155 $378 $384 $389 forward $251 $-1 #
vertex $-1 $156 $390 #
vertex $-1 $156 $391 #
straight-curve $-1 21.339978930144941 26.396641532210555 15.302227272952194 -1 0 0 I I #
coedge $-1 $265 $265 $-1 $392 reversed $159 $-1 #
edge $-1 $393 0 $393 6.2831853071796004 $160 $394 forward 7 unknown #
vertex $-1 $163 $395 #
ellipse-curve $-1 46.63903929902829 19.909948927127779 9.6244559182424201 0.6560590369687036 0 0.75470957328743171 0.75470957328743171 0 -0.6560590369687036 1 I I #
coedge $-1 $269 $269 $-1 $396 reversed $166 $-1 #
edge $-1 $397 0 $397 6.2831853071796004 $167 $398 forward 7 unknown #
vertex $-1 $170 $399 #
ellipse-curve $-1 46.63903929902829 23.80196449017744 9.6244559182424201 0.6560590369687036 0 0.75470957328743171 0.75470957328743171 0 -0.6560590369687036 1 I I #
face $-1 $-1 $285 $36 $-1 $400 forward single #
loop $-1 $-1 $401 $171 #
plane-surface $-1 -53.170567949461351 0 0 1 0 0 0 0 -1 forward_v I I I I #
coedge $-1 $402 $403 $404 $405 reversed $172 $-1 #
coedge $-1 $406 $174 $176 $283 forward $107 $-1 #
coedge $-1 $174 $406 $402 $407 forward $107 $-1 #
coedge $-1 $404 $177 $174 $280 forward $285 $-1 #
edge $-1 $287 -15.658640440303865 $408 -5.8173617435094958 $279 $409 forward 7 unknown #
coedge $-1 $410 $411 $175 $282 forward $274 $-1 #
edge $-1 $412 -22.933207316448922 $286 -16.534297941100675 $281 $413 forward 7 unknown #
edge $-1 $287 -7.4651813148005894 $412 -1.431801061223127e-014 $176 $414 forward 7 unknown #
coedge $-1 $177 $404 $410 $415 forward $285 $-1 #
loop $-1 $-1 $404 $273 #
vertex $-1 $282 $416 #
vertex $-1 $178 $417 #
straight-curve $-1 -72.161356597353716 -26.396641532210545 15.302227272952194 1 0 0 I I #
coedge $-1 $289 $289 $-1 $418 reversed $181 $-1 #
edge $-1 $419 0 $419 6.2831853071796004 $182 $420 forward 7 unknown #
vertex $-1 $185 $421 #
ellipse-curve $-1 -51.24814169151751 -24.428385792851671 12.102772585278071 -0.85716730853699208 0 0.51503806187062418 0.25751903093531209 0 0.42858365426849604 1 I I #
coedge $-1 $293 $293 $-1 $422 reversed $188 $-1 #
edge $-1 $423 0 $423 6.2831853071796004 $189 $424 forward 7 unknown #
vertex $-1 $192 $425 #
ellipse-curve $-1 -51.24814169151751 -21.47600218381336 12.102772585278071 -0.85716730853699208 0 0.51503806187062418 0.25751903093531209 0 0.42858365426849604 1 I I #
coedge $-1 $297 $297 $-1 $426 reversed $195 $-1 #
edge $-1 $427 0 $427 6.2831853071796004 $196 $428 forward 7 unknown #
vertex $-1 $199 $429 #
ellipse-curve $-1 -51.24814169151751 -18.52361857477505 12.102772585278071 -0.85716730853699208 0 0.51503806187062418 0.25751903093531209 0 0.42858365426849604 1 I I #
face $-1 $-1 $215 $30 $-1 $430 reversed single #
loop $-1 $-1 $317 $200 #
plane-surface $-1 0 37.144916255107873 0 0 -1 0 0 0 -1 forward_v I I I I #
coedge $-1 $431 $315 $318 $432 forward $201 $-1 #
coedge $-1 $321 $203 $204 $309 reversed $126 $-1 #
coedge $-1 $315 $431 $203 $307 reversed $201 $-1 #
edge $-1 $322 -15.302227272952196 $433 15.302227272952196 $306 $434 forward 7 unknown #
coedge $-1 $205 $204 $431 $435 forward $81 $-1 #
edge $-1 $313 -53.170567949461351 $433 53.170567949461351 $305 $436 forward 7 unknown #
coedge $-1 $318 $317 $205 $311 reversed $302 $-1 #
edge $-1 $437 -53.170567949461351 $312 53.170567949461351 $310 $438 forward 7 unknown #
vertex $-1 $207 $439 #
vertex $-1 $324 $440 #
straight-curve $-1 53.170567949461351 0 -15.302227272952196 0 -1 0 I I #
coedge $-1 $304 $306 $208 $316 reversed $201 $-1 #
edge $-1 $319 -37.144916255107873 $322 37.144916255107873 $315 $441 forward 7 unknown #
coedge $-1 $310 $209 $214 $325 forward $302 $-1 #
coedge $-1 $209 $310 $304 $432 reversed $302 $-1 #
vertex $-1 $210 $442 #
straight-curve $-1 0 37.144916255107873 15.302227272952196 -1 0 0 I I #
coedge $-1 $211 $305 $213 $324 reversed $126 $-1 #
vertex $-1 $316 $443 #
straight-curve $-1 0 -37.144916255107873 15.302227272952196 1 0 0 I I #
edge $-1 $216 -15.302227272952196 $313 15.302227272952196 $213 $444 forward 7 unknown #
edge $-1 $217 -15.302227272952196 $312 15.302227272952196 $214 $445 forward 7 unknown #
point $-1 53.170567949461351 -37.144916255107873 15.302227272952196 #
point $-1 53.170567949461351 37.144916255107873 15.302227272952196 #
face $-1 $-1 $345 $31 $-1 $446 forward single #
loop $-1 $-1 $447 $219 #
plane-surface $-1 -46.104359588153891 -42.519053616556533 0 -1 0 0 0 0 1 forward_v I I I I #
coedge $-1 $448 $222 $335 $449 reversed $134 $-1 #
coedge $-1 $222 $448 $450 $451 reversed $134 $-1 #
coedge $-1 $230 $229 $222 $334 reversed $220 $-1 #
edge $-1 $452 -15.302227272952196 $453 15.302227272952196 $333 $454 forward 7 unknown #
coedge $-1 $224 $223 $331 $449 forward $85 $-1 #
coedge $-1 $341 $447 $223 $337 reversed $329 $-1 #
edge $-1 $339 -5.3741373614486605 $455 5.3741373614486605 $336 $456 forward 7 unknown #
edge $-1 $453 -5.3741373614486605 $231 5.3741373614486605 $229 $457 forward 7 unknown #
vertex $-1 $337 $458 #
straight-curve $-1 0 -37.144916255107873 -15.302227272952196 1 0 0 I I #
coedge $-1 $459 $336 $226 $342 reversed $329 $-1 #
edge $-1 $346 -15.302227272952196 $339 15.302227272952196 $341 $460 forward 7 unknown #
coedge $-1 $450 $227 $230 $348 forward $345 $-1 #
coedge $-1 $227 $450 $459 $461 forward $345 $-1 #
loop $-1 $-1 $227 $328 #
vertex $-1 $228 $462 #
straight-curve $-1 0 -37.144916255107873 15.302227272952196 -1 0 0 I I #
edge $-1 $232 -5.3741373614486605 $452 5.3741373614486605 $230 $463 forward 7 unknown #
point $-1 -49.944136591958561 -37.144916255107873 -15.302227272952196 #
point $-1 -49.944136591958561 -37.144916255107873 15.302227272952196 #
face $-1 $-1 $367 $32 $-1 $464 forward single #
plane-surface $-1 -46.104359588153891 42.519053616556533 0 -1 0 0 0 0 1 forward_v I I I I #
coedge $-1 $465 $466 $370 $467 forward $235 $-1 #
coedge $-1 $363 $237 $238 $359 reversed $142 $-1 #
coedge $-1 $237 $363 $366 $468 reversed $142 $-1 #
coedge $-1 $466 $465 $237 $357 reversed $235 $-1 #
edge $-1 $469 -15.302227272952196 $470 15.302227272952196 $356 $471 forward 7 unknown #
coedge $-1 $239 $238 $465 $472 forward $89 $-1 #
edge $-1 $361 -5.3741373614486605 $470 5.3741373614486605 $354 $473 forward 7 unknown #
edge $-1 $474 -5.3741373614486605 $247 5.3741373614486605 $244 $475 forward 7 unknown #
vertex $-1 $359 $476 #
straight-curve $-1 0 37.144916255107873 -15.302227272952196 -1 0 0 I I #
coedge $-1 $355 $354 $241 $364 reversed $142 $-1 #
edge $-1 $368 -15.302227272952196 $361 15.302227272952196 $363 $477 forward 7 unknown #
coedge $-1 $478 $242 $245 $371 forward $367 $-1 #
coedge $-1 $242 $478 $355 $468 forward $367 $-1 #
loop $-1 $-1 $242 $351 #
vertex $-1 $243 $479 #
straight-curve $-1 0 37.144916255107873 15.302227272952196 1 0 0 I I #
coedge $-1 $245 $244 $353 $467 reversed $246 $-1 #
edge $-1 $248 -5.3741373614486605 $480 5.3741373614486605 $245 $481 forward 7 unknown #
point $-1 -46.104359588153891 37.144916255107873 -15.302227272952196 #
point $-1 -46.104359588153891 37.144916255107873 15.302227272952196 #
loop $-1 $-1 $258 $250 #
plane-surface $-1 53.170567949461351 0 0 -1 0 0 0 0 1 forward_v I I I I #
coedge $-1 $377 $253 $255 $381 reversed $150 $-1 #
coedge $-1 $253 $376 $482 $483 reversed $150 $-1 #
coedge $-1 $261 $256 $253 $379 forward $251 $-1 #
edge $-1 $382 18.767531718450275 $484 31.83058901931641 $378 $485 forward 7 unknown #
coedge $-1 $255 $254 $385 $486 reversed $93 $-1 #
edge $-1 $487 -106.34113589892269 $382 -89.032415083357989 $376 $488 forward 7 unknown #
vertex $-1 $257 $489 #
straight-curve $-1 40.107510648595209 10.927978354326306 15.302227272952202 0 -1 0 I I #
coedge $-1 $482 $258 $261 $389 reversed $374 $-1 #
coedge $-1 $258 $482 $380 $486 forward $374 $-1 #
vertex $-1 $259 $490 #
straight-curve $-1 53.170567949461351 26.396641532210555 76.984710534357319 0 0 1 I I #
straight-curve $-1 -27.086105347715382 26.396641532210555 73.712747771537906 0.75470957328743171 0 -0.6560590369687036 I I #
edge $-1 $484 17.315271885094671 $262 26.396641532210555 $384 $491 forward 7 unknown #
point $-1 53.170567949461351 26.396641532210555 15.302227272952196 #
point $-1 40.107510648595216 26.396641532210555 15.302227272952194 #
edge $-1 $492 1 $492 0 $265 $-1 forward 7 unknown #
vertex $-1 $266 $493 #
ellipse-curve $-1 44.121780397606415 19.909948927127779 6.7286808670762284 0.6560590369687036 0 0.75470957328743171 0.75470957328743171 0 -0.6560590369687036 1 I I #
point $-1 47.393748872315719 19.909948927127779 8.9683968812737103 #
edge $-1 $494 1 $494 0 $269 $-1 forward 7 unknown #
vertex $-1 $270 $495 #
ellipse-curve $-1 44.121780397606415 23.80196449017744 6.7286808670762284 0.6560590369687036 0 0.75470957328743171 0.75470957328743171 0 -0.6560590369687036 1 I I #
point $-1 47.393748872315719 23.80196449017744 8.9683968812737103 #
plane-surface $-1 0 0 15.302227272952196 0 0 1 1 0 0 forward_v I I I I #
coedge $-1 $411 $410 $403 $496 forward $274 $-1 #
coedge $-1 $403 $276 $278 $407 reversed $172 $-1 #
coedge $-1 $276 $402 $401 $496 reversed $172 $-1 #
coedge $-1 $284 $279 $276 $405 forward $285 $-1 #
edge $-1 $408 -22.835641163780053 $497 -18.990788647892366 $404 $498 forward 7 unknown #
coedge $-1 $278 $277 $411 $499 reversed $107 $-1 #
edge $-1 $500 1.431801061223127e-014 $408 7.4651813148005894 $402 $501 forward 7 unknown #
vertex $-1 $280 $502 #
straight-curve $-1 -49.325715433573663 -10.73800109190668 15.302227272952194 0 1 0 I I #
coedge $-1 $401 $281 $284 $415 reversed $274 $-1 #
coedge $-1 $281 $401 $406 $499 forward $274 $-1 #
vertex $-1 $282 $503 #
straight-curve $-1 -53.170567949461351 -26.396641532210545 31.83652521405287 0 0 1 I I #
straight-curve $-1 -53.170567949461358 -26.396641532210545 8.9033178976039338 -0.51503806187062418 0 -0.85716730853699208 I I #
edge $-1 $497 16.555362835416176 $286 26.396641532210545 $410 $504 forward 7 unknown #
point $-1 -53.170567949461351 -26.396641532210545 15.302227272952196 #
point $-1 -49.325715433573663 -26.396641532210545 15.302227272952196 #
edge $-1 $505 1 $505 0 $289 $-1 forward 7 unknown #
vertex $-1 $290 $506 #
ellipse-curve $-1 -49.758961620925589 -24.428385792851671 11.207982957051227 -0.85716730853699208 0 0.51503806187062418 0.25751903093531209 0 0.42858365426849604 1 I I #
point $-1 -50.990622660582197 -24.428385792851671 12.531356239546568 #
edge $-1 $507 1 $507 0 $293 $-1 forward 7 unknown #
vertex $-1 $294 $508 #
ellipse-curve $-1 -49.758961620925589 -21.47600218381336 11.207982957051227 -0.85716730853699208 0 0.51503806187062418 0.25751903093531209 0 0.42858365426849604 1 I I #
point $-1 -50.990622660582197 -21.47600218381336 12.531356239546568 #
edge $-1 $509 1 $509 0 $297 $-1 forward 7 unknown #
vertex $-1 $298 $510 #
ellipse-curve $-1 -49.758961620925589 -18.52361857477505 11.207982957051227 -0.85716730853699208 0 0.51503806187062418 0.25751903093531209 0 0.42858365426849604 1 I I #
point $-1 -50.990622660582197 -18.52361857477505 12.531356239546568 #
plane-surface $-1 53.170567949461351 0 0 -1 0 0 0 0 1 forward_v I I I I #
coedge $-1 $306 $304 $308 $435 reversed $201 $-1 #
edge $-1 $319 -15.302227272952196 $437 15.302227272952196 $318 $511 forward 7 unknown #
vertex $-1 $435 $512 #
straight-curve $-1 -53.170567949461351 -37.144916255107873 0 0 0 -1 I I #
edge $-1 $433 -37.144916255107873 $437 37.144916255107873 $431 $513 forward 7 unknown #
straight-curve $-1 0 -37.144916255107873 -15.302227272952196 -1 0 0 I I #
vertex $-1 $311 $514 #
straight-curve $-1 0 37.144916255107873 -15.302227272952196 1 0 0 I I #
point $-1 53.170567949461351 37.144916255107873 -15.302227272952196 #
point $-1 53.170567949461351 -37.144916255107873 -15.302227272952196 #
straight-curve $-1 -53.170567949461351 0 15.302227272952196 0 -1 0 I I #
point $-1 -53.170567949461351 37.144916255107873 15.302227272952196 #
point $-1 -53.170567949461351 -37.144916255107873 15.302227272952196 #
straight-curve $-1 53.170567949461351 -37.144916255107873 0 0 0 -1 I I #
straight-curve $-1 53.170567949461351 37.144916255107873 0 0 0 -1 I I #
plane-surface $-1 0 0 15.302227272952196 0 0 1 1 0 0 forward_v I I I I #
coedge $-1 $336 $459 $448 $515 forward $329 $-1 #
coedge $-1 $332 $331 $447 $515 reversed $134 $-1 #
edge $-1 $455 -1.9198885019023351 $453 1.9198885019023351 $331 $516 forward 7 unknown #
coedge $-1 $344 $343 $332 $451 forward $345 $-1 #
edge $-1 $452 -1.9198885019023351 $517 1.9198885019023351 $332 $518 forward 7 unknown #
vertex $-1 $348 $519 #
vertex $-1 $338 $520 #
straight-curve $-1 -49.944136591958561 -47.893190978005194 0 0 0 -1 I I #
vertex $-1 $515 $521 #
straight-curve $-1 -46.104359588153891 -42.519053616556533 -15.302227272952196 0 -1 0 I I #
straight-curve $-1 -49.944136591958561 -42.519053616556533 -15.302227272952196 0 1 0 I I #
point $-1 -46.104359588153891 -37.144916255107873 -15.302227272952196 #
coedge $-1 $447 $341 $344 $461 reversed $329 $-1 #
straight-curve $-1 -46.104359588153891 -37.144916255107873 0 0 0 -1 I I #
edge $-1 $517 -5.3741373614486605 $346 5.3741373614486605 $459 $522 forward 7 unknown #
point $-1 -46.104359588153891 -37.144916255107873 15.302227272952196 #
straight-curve $-1 -49.944136591958561 -42.519053616556533 15.302227272952196 0 -1 0 I I #
plane-surface $-1 0 0 15.302227272952196 0 0 1 1 0 0 forward_v I I I I #
coedge $-1 $356 $353 $358 $472 reversed $235 $-1 #
coedge $-1 $353 $356 $478 $523 reversed $235 $-1 #
edge $-1 $480 -15.302227272952196 $474 15.302227272952196 $370 $524 forward 7 unknown #
edge $-1 $469 -5.3741373614486605 $368 5.3741373614486605 $355 $525 forward 7 unknown #
vertex $-1 $523 $526 #
vertex $-1 $472 $527 #
straight-curve $-1 -49.944136591958561 47.893190978005194 0 0 0 -1 I I #
edge $-1 $470 -1.9198885019023351 $474 1.9198885019023351 $465 $528 forward 7 unknown #
straight-curve $-1 -49.944136591958561 42.519053616556533 -15.302227272952196 0 1 0 I I #
vertex $-1 $360 $529 #
straight-curve $-1 -46.104359588153891 42.519053616556533 -15.302227272952196 0 -1 0 I I #
point $-1 -49.944136591958561 37.144916255107873 -15.302227272952196 #
straight-curve $-1 -49.944136591958561 37.144916255107873 0 0 0 -1 I I #
coedge $-1 $366 $365 $466 $523 forward $367 $-1 #
point $-1 -49.944136591958561 37.144916255107873 15.302227272952196 #
vertex $-1 $371 $530 #
straight-curve $-1 -46.104359588153891 42.519053616556533 15.302227272952196 0 1 0 I I #
coedge $-1 $385 $384 $377 $483 forward $374 $-1 #
edge $-1 $484 61.682483261405125 $487 73.038025970824663 $482 $531 forward 7 unknown #
vertex $-1 $389 $532 #
straight-curve $-1 21.339978930144941 17.315271885094671 15.302227272952194 1 0 0 I I #
edge $-1 $487 6.387293530768364 $386 15.468663177884249 $385 $533 forward 7 unknown #
vertex $-1 $486 $534 #
straight-curve $-1 -27.086105347715382 17.315271885094671 73.712747771537906 -0.75470957328743171 0 0.6560590369687036 I I #
point $-1 40.107510648595216 17.315271885094671 15.302227272952194 #
point $-1 53.170567949461351 26.396641532210555 3.9466845635326564 #
straight-curve $-1 53.170567949461351 0 15.302227272952196 0 1 0 I I #
vertex $-1 $392 $535 #
point $-1 44.87648997089385 19.909948927127779 6.0726218301075248 #
vertex $-1 $396 $536 #
point $-1 44.87648997089385 23.80196449017744 6.0726218301075248 #
edge $-1 $497 16.534297941100675 $500 22.933207316448922 $401 $537 forward 7 unknown #
vertex $-1 $415 $538 #
straight-curve $-1 -72.161356597353716 -16.555362835416176 15.302227272952194 -1 0 0 I I #
edge $-1 $500 5.8173617435094958 $412 15.658640440303865 $411 $539 forward 7 unknown #
vertex $-1 $499 $540 #
straight-curve $-1 -53.170567949461358 -16.555362835416176 8.9033178976039338 0.51503806187062418 0 0.85716730853699208 I I #
point $-1 -49.325715433573663 -16.555362835416176 15.302227272952196 #
point $-1 -53.170567949461351 -26.396641532210545 8.9033178976039462 #
straight-curve $-1 -53.170567949461351 0 15.302227272952196 0 -1 0 I I #
vertex $-1 $418 $541 #
point $-1 -49.501442589990276 -24.428385792851671 11.636566611319722 #
vertex $-1 $422 $542 #
point $-1 -49.501442589990276 -21.47600218381336 11.636566611319722 #
vertex $-1 $426 $543 #
point $-1 -49.501442589990276 -18.52361857477505 11.636566611319722 #
straight-curve $-1 -53.170567949461351 37.144916255107873 0 0 0 -1 I I #
point $-1 -53.170567949461351 -37.144916255107873 -15.302227272952196 #
straight-curve $-1 -53.170567949461351 0 -15.302227272952196 0 1 0 I I #
point $-1 -53.170567949461351 37.144916255107873 -15.302227272952196 #
edge $-1 $517 -15.302227272952196 $455 15.302227272952196 $447 $544 forward 7 unknown #
straight-curve $-1 -48.024248090056226 -47.893190978005194 -15.302227272952196 -1 0 0 I I #
vertex $-1 $461 $545 #
straight-curve $-1 -48.024248090056226 -47.893190978005194 15.302227272952196 1 0 0 I I #
point $-1 -49.944136591958561 -47.893190978005194 15.302227272952196 #
point $-1 -49.944136591958561 -47.893190978005194 -15.302227272952196 #
point $-1 -46.104359588153891 -47.893190978005194 -15.302227272952196 #
straight-curve $-1 -46.104359588153891 -42.519053616556533 15.302227272952196 0 1 0 I I #
edge $-1 $480 -1.9198885019023351 $469 1.9198885019023351 $466 $546 forward 7 unknown #
straight-curve $-1 -46.104359588153891 47.893190978005194 0 0 0 -1 I I #
straight-curve $-1 -49.944136591958561 42.519053616556533 15.302227272952196 0 -1 0 I I #
point $-1 -49.944136591958561 47.893190978005194 15.302227272952196 #
point $-1 -49.944136591958561 47.893190978005194 -15.302227272952196 #
straight-curve $-1 -48.024248090056226 47.893190978005194 -15.302227272952196 1 0 0 I I #
point $-1 -46.104359588153891 47.893190978005194 -15.302227272952196 #
point $-1 -46.104359588153891 47.893190978005194 15.302227272952196 #
straight-curve $-1 53.170567949461351 17.315271885094671 76.984710534357319 0 0 -1 I I #
point $-1 53.170567949461351 17.315271885094671 15.302227272952196 #
straight-curve $-1 53.170567949461351 10.927978354326306 3.9466845635326493 0 1 0 I I #
point $-1 53.170567949461351 17.315271885094671 3.9466845635326564 #
point $-1 43.465721360637716 19.909948927127779 5.9739712937887965 #
point $-1 43.465721360637716 23.80196449017744 5.9739712937887965 #
straight-curve $-1 -53.170567949461351 -16.555362835416176 31.83652521405287 0 0 -1 I I #
point $-1 -53.170567949461351 -16.555362835416176 15.302227272952196 #
straight-curve $-1 -53.170567949461351 -10.73800109190668 8.9033178976039515 0 -1 0 I I #
point $-1 -53.170567949461351 -16.555362835416176 8.9033178976039462 #
point $-1 -49.330377966657096 -24.428385792851671 10.950463926115914 #
point $-1 -49.330377966657096 -21.47600218381336 10.950463926115914 #
point $-1 -49.330377966657096 -18.52361857477505 10.950463926115914 #
straight-curve $-1 -46.104359588153891 -47.893190978005194 0 0 0 -1 I I #
point $-1 -46.104359588153891 -47.893190978005194 15.302227272952196 #
straight-curve $-1 -48.024248090056226 47.893190978005194 15.302227272952196 -1 0 0 I I #
End-of-ACIS-data 