500 0 8 0           
7 Unknown 11 ACIS 5.0 NT 24 Thu Mar 25 21:16:16 1999 
-1 9.9999999999999995e-007 1e-010 
body $-1 $8 $-1 $9 #
body $-1 $10 $-1 $11 #
body $-1 $12 $-1 $13 #
body $-1 $14 $-1 $15 #
body $-1 $16 $-1 $17 #
body $-1 $18 $-1 $19 #
body $-1 $20 $-1 $21 #
body $-1 $22 $-1 $23 #
lump $-1 $-1 $24 $0 #
transform $-1 1 0 0 0 1 0 0 0 1 53.274330881679738 30.461985027593357 12.958266454134289 1 rotate no_reflect no_shear #
lump $-1 $-1 $25 $1 #
transform $-1 1 0 0 0 1 0 0 0 1 53.274330881679738 30.461985027593357 12.958266454134289 1 rotate no_reflect no_shear #
lump $-1 $-1 $26 $2 #
transform $-1 1 0 0 0 1 0 0 0 1 53.274330881679738 30.461985027593357 12.958266454134289 1 rotate no_reflect no_shear #
lump $-1 $-1 $27 $3 #
transform $-1 1 0 0 0 1 0 0 0 1 53.274330881679738 30.461985027593357 12.958266454134289 1 rotate no_reflect no_shear #
lump $-1 $-1 $28 $4 #
transform $-1 1 0 0 0 1 0 0 0 1 53.274330881679738 30.461985027593357 12.958266454134289 1 rotate no_reflect no_shear #
lump $-1 $-1 $29 $5 #
transform $-1 1 0 0 0 1 0 0 0 1 53.274330881679738 30.461985027593357 12.958266454134289 1 rotate no_reflect no_shear #
lump $-1 $-1 $30 $6 #
transform $-1 1 0 0 0 1 0 0 0 1 53.274330881679738 30.461985027593357 12.958266454134289 1 rotate no_reflect no_shear #
lump $-1 $-1 $31 $7 #
transform $-1 1 0 0 0 1 0 0 0 1 53.274330881679738 30.461985027593357 12.958266454134289 1 rotate no_reflect no_shear #
shell $-1 $-1 $-1 $32 $-1 $8 #
shell $-1 $-1 $-1 $33 $-1 $10 #
shell $-1 $-1 $-1 $34 $-1 $12 #
shell $-1 $-1 $-1 $35 $-1 $14 #
shell $-1 $-1 $-1 $36 $-1 $16 #
shell $-1 $-1 $-1 $37 $-1 $18 #
shell $-1 $-1 $-1 $38 $-1 $20 #
shell $-1 $-1 $-1 $39 $-1 $22 #
face $-1 $40 $41 $24 $-1 $42 forward single #
face $-1 $43 $44 $25 $-1 $45 reversed single #
face $-1 $46 $47 $26 $-1 $48 reversed single #
face $-1 $49 $50 $27 $-1 $51 forward single #
face $-1 $52 $53 $28 $-1 $54 forward single #
face $-1 $55 $56 $29 $-1 $57 reversed single #
face $-1 $58 $59 $30 $-1 $60 forward single #
face $-1 $61 $62 $31 $-1 $63 forward single #
face $-1 $64 $65 $24 $-1 $66 reversed single #
loop $-1 $-1 $67 $32 #
plane-surface $-1 0 0 12.958266454134289 0 0 1 1 0 0 forward_v I I I I #
face $-1 $68 $69 $25 $-1 $70 reversed single #
loop $-1 $-1 $71 $33 #
plane-surface $-1 -45.498765944723473 -22.851683430666942 0 0 1 0 0 0 1 forward_v I I I I #
face $-1 $72 $73 $26 $-1 $74 reversed single #
loop $-1 $-1 $75 $34 #
plane-surface $-1 18.807393548120352 -97.515231346985544 86.608225034179796 -1 0 0 0 -0.62932039886446345 0.77714595512881146 forward_v I I I I #
face $-1 $76 $77 $27 $-1 $78 forward single #
loop $-1 $79 $80 $35 #
cone-surface $-1 1.0134641089218235 -21.934909720029705 4.8309720627669099 0 0.62932039886446345 -0.77714595512881146 3 0 0 1 I I 0 1 3 forward I I I I #
face $-1 $81 $82 $28 $-1 $83 forward single #
loop $-1 $84 $85 $36 #
cone-surface $-1 11.689821772440943 -21.934909720029705 4.8309720627669099 0 0.62932039886446345 -0.77714595512881146 3 0 0 1 I I 0 1 3 forward I I I I #
face $-1 $86 $87 $29 $-1 $88 reversed single #
loop $-1 $-1 $89 $37 #
plane-surface $-1 -6.1041076667575922 50.168414448208352 124.94892216971654 1 0 0 0 -0.62932039886446345 -0.77714595512881146 forward_v I I I I #
face $-1 $90 $91 $30 $-1 $92 forward single #
loop $-1 $93 $94 $38 #
cone-surface $-1 1.0134641089218235 21.934909720029708 4.8309720627669082 0 -0.62932039886446345 -0.77714595512881146 3 0 0 1 I I 0 1 3 forward I I I I #
face $-1 $95 $96 $31 $-1 $97 forward single #
loop $-1 $98 $99 $39 #
cone-surface $-1 11.689821772440943 21.934909720029708 4.8309720627669082 0 -0.62932039886446345 -0.77714595512881146 3 0 0 1 I I 0 1 3 forward I I I I #
face $-1 $100 $101 $24 $-1 $102 reversed single #
loop $-1 $-1 $103 $40 #
plane-surface $-1 0 0 -12.958266454134289 0 0 1 1 0 0 forward_v I I I I #
coedge $-1 $104 $105 $106 $107 forward $41 $-1 #
face $-1 $108 $109 $25 $-1 $110 reversed single #
loop $-1 $-1 $111 $43 #
plane-surface $-1 -45.498765944723473 -18.195850703700085 0 0 -1 0 0 0 -1 forward_v I I I I #
coedge $-1 $112 $113 $114 $115 reversed $44 $-1 #
face $-1 $116 $117 $26 $-1 $118 reversed single #
loop $-1 $-1 $119 $46 #
plane-surface $-1 6.3516429406813799 -30.461985027593357 3.8043635203971178 0 -0.62932039886446345 0.77714595512881146 1 0 0 forward_v I I I I #
coedge $-1 $120 $121 $122 $123 reversed $47 $-1 #
face $-1 $-1 $124 $27 $-1 $125 forward single #
loop $-1 $126 $127 $49 #
cone-surface $-1 1.0134641089218235 -18.115918049995681 0.11491020557488874 0 0.62932039886446345 -0.77714595512881146 1.5 0 0 1 I I -0.70710678118654757 0.70710678118654757 1.5 forward I I I I #
loop $-1 $-1 $128 $35 #
coedge $-1 $80 $80 $129 $130 reversed $50 $-1 #
face $-1 $-1 $131 $28 $-1 $132 forward single #
loop $-1 $133 $134 $52 #
cone-surface $-1 11.689821772440943 -18.115918049995681 0.11491020557488874 0 0.62932039886446345 -0.77714595512881146 1.5 0 0 1 I I -0.70710678118654757 0.70710678118654757 1.5 forward I I I I #
loop $-1 $-1 $135 $36 #
coedge $-1 $85 $85 $136 $137 reversed $53 $-1 #
face $-1 $138 $139 $29 $-1 $140 reversed single #
loop $-1 $-1 $141 $55 #
plane-surface $-1 6.3516429406813799 -16.884831871183835 42.145060655933861 0 0.62932039886446345 0.77714595512881146 1 0 0 forward_v I I I I #
coedge $-1 $142 $143 $144 $145 reversed $56 $-1 #
face $-1 $-1 $146 $30 $-1 $147 forward single #
loop $-1 $148 $149 $58 #
cone-surface $-1 1.0134641089218235 18.115918049995685 0.11491020557488696 0 -0.62932039886446345 -0.77714595512881146 1.5 0 0 1 I I -0.70710678118654757 0.70710678118654757 1.5 forward I I I I #
loop $-1 $-1 $150 $38 #
coedge $-1 $94 $94 $151 $152 reversed $59 $-1 #
face $-1 $-1 $153 $31 $-1 $154 forward single #
loop $-1 $155 $156 $61 #
cone-surface $-1 11.689821772440943 18.115918049995685 0.11491020557488696 0 -0.62932039886446345 -0.77714595512881146 1.5 0 0 1 I I -0.70710678118654757 0.70710678118654757 1.5 forward I I I I #
loop $-1 $-1 $157 $39 #
coedge $-1 $99 $99 $158 $159 reversed $62 $-1 #
face $-1 $160 $161 $24 $-1 $162 reversed single #
loop $-1 $-1 $163 $64 #
plane-surface $-1 0 -30.461985027593357 0 0 1 0 0 0 1 forward_v I I I I #
coedge $-1 $164 $165 $166 $167 forward $65 $-1 #
coedge $-1 $168 $67 $169 $170 forward $41 $-1 #
coedge $-1 $67 $168 $171 $172 forward $41 $-1 #
coedge $-1 $173 $174 $67 $107 reversed $175 $-1 #
edge $-1 $176 -30.461985027593357 $177 30.461985027593357 $106 $178 forward 7 unknown #
face $-1 $179 $180 $25 $-1 $181 reversed single #
loop $-1 $-1 $182 $68 #
plane-surface $-1 -37.723201007767216 -20.523767067183513 0 -1 0 0 0 0 1 forward_v I I I I #
coedge $-1 $183 $184 $185 $186 forward $69 $-1 #
coedge $-1 $187 $71 $188 $189 reversed $44 $-1 #
coedge $-1 $71 $187 $190 $191 reversed $44 $-1 #
coedge $-1 $192 $193 $71 $115 forward $194 $-1 #
edge $-1 $195 -12.958266454134289 $196 12.958266454134289 $114 $197 forward 7 unknown #
face $-1 $198 $199 $26 $-1 $200 reversed single #
loop $-1 $-1 $201 $72 #
plane-surface $-1 -6.1041076667575922 -97.515231346985544 86.608225034179796 1 0 0 0 0.62932039886446345 -0.77714595512881146 forward_v I I I I #
coedge $-1 $202 $203 $204 $205 reversed $73 $-1 #
coedge $-1 $121 $75 $206 $207 reversed $47 $-1 #
coedge $-1 $75 $120 $202 $208 reversed $47 $-1 #
coedge $-1 $204 $209 $75 $123 forward $210 $-1 #
edge $-1 $211 18.295630645899415 $212 29.599759117552097 $122 $213 forward 7 unknown #
loop $-1 $-1 $129 $76 #
plane-surface $-1 6.3516429406813799 -30.461985027593357 3.8043635203971178 0 -0.62932039886446345 0.77714595512881146 1 0 0 forward_v I I I I #
loop $-1 $-1 $214 $49 #
coedge $-1 $127 $127 $128 $215 reversed $77 $-1 #
coedge $-1 $128 $128 $127 $215 forward $79 $-1 #
coedge $-1 $129 $129 $80 $130 forward $124 $-1 #
edge $-1 $216 -1.5254934425098145e-016 $216 6.2831853071796004 $129 $217 forward 7 unknown #
loop $-1 $-1 $136 $81 #
plane-surface $-1 6.3516429406813799 -30.461985027593357 3.8043635203971178 0 -0.62932039886446345 0.77714595512881146 1 0 0 forward_v I I I I #
loop $-1 $-1 $218 $52 #
coedge $-1 $134 $134 $135 $219 reversed $82 $-1 #
coedge $-1 $135 $135 $134 $219 forward $84 $-1 #
coedge $-1 $136 $136 $85 $137 forward $131 $-1 #
edge $-1 $220 -1.5254934425098145e-016 $220 6.2831853071796004 $136 $221 forward 7 unknown #
face $-1 $222 $223 $29 $-1 $224 reversed single #
loop $-1 $-1 $225 $86 #
plane-surface $-1 18.807393548120352 50.168414448208352 124.94892216971654 -1 0 0 0 0.62932039886446345 0.77714595512881146 forward_v I I I I #
coedge $-1 $226 $227 $228 $229 reversed $87 $-1 #
coedge $-1 $143 $89 $230 $231 reversed $56 $-1 #
coedge $-1 $89 $142 $226 $232 reversed $56 $-1 #
coedge $-1 $228 $233 $89 $145 forward $234 $-1 #
edge $-1 $235 -5.377777803489181 $236 5.9263506681634865 $144 $237 forward 7 unknown #
loop $-1 $-1 $151 $90 #
plane-surface $-1 6.3516429406813799 -16.884831871183835 42.145060655933861 0 0.62932039886446345 0.77714595512881146 1 0 0 forward_v I I I I #
loop $-1 $-1 $238 $58 #
coedge $-1 $149 $149 $150 $239 reversed $91 $-1 #
coedge $-1 $150 $150 $149 $239 forward $93 $-1 #
coedge $-1 $151 $151 $94 $152 forward $146 $-1 #
edge $-1 $240 -2.2511281021232826e-017 $240 6.2831853071796004 $151 $241 forward 7 unknown #
loop $-1 $-1 $158 $95 #
plane-surface $-1 6.3516429406813799 -16.884831871183835 42.145060655933861 0 0.62932039886446345 0.77714595512881146 1 0 0 forward_v I I I I #
loop $-1 $-1 $242 $61 #
coedge $-1 $156 $156 $157 $243 reversed $96 $-1 #
coedge $-1 $157 $157 $156 $243 forward $98 $-1 #
coedge $-1 $158 $158 $99 $159 forward $153 $-1 #
edge $-1 $244 -2.2511281021232826e-017 $244 6.2831853071796004 $158 $245 forward 7 unknown #
face $-1 $246 $247 $24 $-1 $248 reversed single #
loop $-1 $-1 $249 $100 #
plane-surface $-1 -53.274330881679738 0 0 1 0 0 0 0 -1 forward_v I I I I #
coedge $-1 $250 $171 $251 $252 forward $101 $-1 #
coedge $-1 $253 $103 $250 $254 forward $65 $-1 #
coedge $-1 $103 $253 $255 $256 forward $65 $-1 #
coedge $-1 $174 $173 $103 $167 reversed $175 $-1 #
edge $-1 $257 -30.461985027593357 $258 30.461985027593357 $166 $259 forward 7 unknown #
coedge $-1 $105 $104 $260 $261 forward $41 $-1 #
coedge $-1 $262 $263 $104 $170 reversed $247 $-1 #
edge $-1 $177 -53.274330881679738 $264 53.274330881679738 $169 $265 forward 7 unknown #
coedge $-1 $163 $266 $105 $172 reversed $101 $-1 #
edge $-1 $267 -53.274330881679738 $176 53.274330881679738 $171 $268 forward 7 unknown #
coedge $-1 $166 $106 $266 $269 forward $175 $-1 #
coedge $-1 $106 $166 $262 $270 reversed $175 $-1 #
loop $-1 $-1 $173 $246 #
vertex $-1 $107 $271 #
vertex $-1 $107 $272 #
straight-curve $-1 53.274330881679738 0 12.958266454134289 0 1 0 I I #
face $-1 $273 $274 $25 $-1 $275 forward single #
loop $-1 $-1 $276 $108 #
plane-surface $-1 0 0 -12.958266454134289 0 0 1 1 0 0 forward_v I I I I #
coedge $-1 $277 $278 $187 $279 forward $109 $-1 #
coedge $-1 $280 $111 $276 $281 reversed $69 $-1 #
coedge $-1 $111 $280 $282 $283 reversed $69 $-1 #
coedge $-1 $278 $277 $111 $186 reversed $109 $-1 #
edge $-1 $284 -12.958266454134289 $285 12.958266454134289 $185 $286 forward 7 unknown #
coedge $-1 $113 $112 $182 $279 reversed $44 $-1 #
coedge $-1 $287 $288 $112 $189 forward $180 $-1 #
edge $-1 $289 14.973818035405479 $195 30.524947909317994 $188 $290 forward 7 unknown #
coedge $-1 $291 $292 $113 $191 forward $274 $-1 #
edge $-1 $196 -30.524947909317994 $293 -14.973818035405479 $190 $294 forward 7 unknown #
coedge $-1 $295 $114 $292 $296 reversed $194 $-1 #
coedge $-1 $114 $295 $287 $297 reversed $194 $-1 #
loop $-1 $-1 $295 $273 #
vertex $-1 $297 $298 #
vertex $-1 $115 $299 #
straight-curve $-1 -53.274330881679738 -22.851683430666942 0 0 0 1 I I #
face $-1 $-1 $210 $26 $-1 $300 forward single #
loop $-1 $-1 $301 $116 #
plane-surface $-1 0 -30.461985027593357 0 0 1 0 0 0 1 forward_v I I I I #
coedge $-1 $302 $303 $304 $305 reversed $117 $-1 #
coedge $-1 $306 $119 $121 $208 forward $73 $-1 #
coedge $-1 $119 $306 $302 $307 forward $73 $-1 #
coedge $-1 $304 $122 $119 $205 forward $210 $-1 #
edge $-1 $212 -15.631572077779662 $308 9.2799291370982822 $204 $309 forward 7 unknown #
coedge $-1 $310 $311 $120 $207 forward $199 $-1 #
edge $-1 $312 -39.49974899669278 $211 -30.345846062955609 $206 $313 forward 7 unknown #
edge $-1 $212 -14.545695563427374 $312 0 $121 $314 forward 7 unknown #
coedge $-1 $122 $304 $310 $315 forward $210 $-1 #
loop $-1 $-1 $304 $198 #
vertex $-1 $207 $316 #
vertex $-1 $123 $317 #
straight-curve $-1 18.807393548120352 -48.757615673492772 12.958266454134289 0 1 0 I I #
coedge $-1 $214 $214 $-1 $318 reversed $126 $-1 #
edge $-1 $319 0 $319 6.2831853071796004 $127 $320 forward 7 unknown #
vertex $-1 $130 $321 #
ellipse-curve $-1 1.0134641089218235 -24.80992079176702 8.3813149872657 0 -0.62932039886446345 0.77714595512881146 3 0 0 1 I I #
coedge $-1 $218 $218 $-1 $322 reversed $133 $-1 #
edge $-1 $323 0 $323 6.2831853071796004 $134 $324 forward 7 unknown #
vertex $-1 $137 $325 #
ellipse-curve $-1 11.689821772440943 -24.80992079176702 8.3813149872657 0 -0.62932039886446345 0.77714595512881146 3 0 0 1 I I #
face $-1 $-1 $234 $29 $-1 $326 forward single #
loop $-1 $-1 $327 $138 #
plane-surface $-1 0 30.461985027593357 0 0 -1 0 0 0 -1 forward_v I I I I #
coedge $-1 $328 $329 $330 $331 reversed $139 $-1 #
coedge $-1 $332 $141 $143 $232 forward $87 $-1 #
coedge $-1 $141 $332 $328 $333 forward $87 $-1 #
coedge $-1 $330 $144 $141 $229 forward $234 $-1 #
edge $-1 $236 -9.2799291370982822 $334 15.631572077779662 $228 $335 forward 7 unknown #
coedge $-1 $336 $337 $142 $231 forward $223 $-1 #
edge $-1 $338 -58.670097564461145 $235 -49.51619463072398 $230 $339 forward 7 unknown #
edge $-1 $236 46.378274491759363 $338 60.923970055186729 $143 $340 forward 7 unknown #
coedge $-1 $144 $330 $336 $341 forward $234 $-1 #
loop $-1 $-1 $330 $222 #
vertex $-1 $231 $342 #
vertex $-1 $145 $343 #
straight-curve $-1 -6.1041076667575922 25.084207224104176 12.958266454134289 0 -1 0 I I #
coedge $-1 $238 $238 $-1 $344 reversed $148 $-1 #
edge $-1 $345 0 $345 6.2831853071796004 $149 $346 forward 7 unknown #
vertex $-1 $152 $347 #
ellipse-curve $-1 1.0134641089218235 24.809920791767027 8.3813149872657018 0 0.62932039886446345 0.77714595512881146 3 0 0 1 I I #
coedge $-1 $242 $242 $-1 $348 reversed $155 $-1 #
edge $-1 $349 0 $349 6.2831853071796004 $156 $350 forward 7 unknown #
vertex $-1 $159 $351 #
ellipse-curve $-1 11.689821772440943 24.809920791767027 8.3813149872657018 0 0.62932039886446345 0.77714595512881146 3 0 0 1 I I #
face $-1 $-1 $175 $24 $-1 $352 reversed single #
loop $-1 $-1 $262 $160 #
plane-surface $-1 0 30.461985027593357 0 0 -1 0 0 0 -1 forward_v I I I I #
coedge $-1 $353 $260 $263 $354 forward $161 $-1 #
coedge $-1 $266 $163 $164 $254 reversed $101 $-1 #
coedge $-1 $260 $353 $163 $252 reversed $161 $-1 #
edge $-1 $267 -12.958266454134289 $355 12.958266454134289 $251 $356 forward 7 unknown #
coedge $-1 $165 $164 $353 $357 forward $65 $-1 #
edge $-1 $258 -53.274330881679738 $355 53.274330881679738 $250 $358 forward 7 unknown #
coedge $-1 $263 $262 $165 $256 reversed $247 $-1 #
edge $-1 $359 -53.274330881679738 $257 53.274330881679738 $255 $360 forward 7 unknown #
vertex $-1 $167 $361 #
vertex $-1 $269 $362 #
straight-curve $-1 53.274330881679738 0 -12.958266454134289 0 -1 0 I I #
coedge $-1 $249 $251 $168 $261 reversed $161 $-1 #
edge $-1 $264 -30.461985027593357 $267 30.461985027593357 $260 $363 forward 7 unknown #
coedge $-1 $255 $169 $174 $270 forward $247 $-1 #
coedge $-1 $169 $255 $249 $354 reversed $247 $-1 #
vertex $-1 $170 $364 #
straight-curve $-1 0 30.461985027593357 12.958266454134289 -1 0 0 I I #
coedge $-1 $171 $250 $173 $269 reversed $101 $-1 #
vertex $-1 $261 $365 #
straight-curve $-1 0 -30.461985027593357 12.958266454134289 1 0 0 I I #
edge $-1 $176 -12.958266454134289 $258 12.958266454134289 $173 $366 forward 7 unknown #
edge $-1 $177 -12.958266454134289 $257 12.958266454134289 $174 $367 forward 7 unknown #
point $-1 53.274330881679738 -30.461985027593357 12.958266454134289 #
point $-1 53.274330881679738 30.461985027593357 12.958266454134289 #
face $-1 $-1 $194 $25 $-1 $368 reversed single #
loop $-1 $-1 $282 $179 #
plane-surface $-1 0 0 12.958266454134289 0 0 1 1 0 0 forward_v I I I I #
coedge $-1 $288 $287 $183 $281 forward $180 $-1 #
coedge $-1 $185 $182 $288 $369 reversed $109 $-1 #
coedge $-1 $182 $185 $291 $370 reversed $109 $-1 #
edge $-1 $293 -12.958266454134289 $289 12.958266454134289 $182 $371 forward 7 unknown #
coedge $-1 $184 $183 $295 $372 reversed $69 $-1 #
edge $-1 $373 -30.524947909317994 $285 -14.973818035405479 $276 $374 forward 7 unknown #
coedge $-1 $292 $291 $184 $283 forward $274 $-1 #
edge $-1 $284 14.973818035405479 $375 30.524947909317994 $282 $376 forward 7 unknown #
vertex $-1 $283 $377 #
vertex $-1 $281 $378 #
straight-curve $-1 -37.723201007767216 -18.195850703700085 0 0 0 -1 I I #
coedge $-1 $276 $188 $193 $297 forward $180 $-1 #
coedge $-1 $188 $276 $277 $369 forward $180 $-1 #
vertex $-1 $189 $379 #
straight-curve $-1 -22.749382972361737 -22.851683430666942 -12.958266454134289 -1 0 0 I I #
coedge $-1 $282 $190 $278 $370 forward $274 $-1 #
coedge $-1 $190 $282 $192 $296 forward $274 $-1 #
vertex $-1 $191 $380 #
straight-curve $-1 -22.749382972361737 -22.851683430666942 12.958266454134289 1 0 0 I I #
coedge $-1 $193 $192 $280 $372 forward $194 $-1 #
edge $-1 $375 18.195850703700085 $196 22.851683430666942 $192 $381 forward 7 unknown #
edge $-1 $195 -22.851683430666942 $373 -18.195850703700085 $193 $382 forward 7 unknown #
point $-1 -53.274330881679731 -22.851683430666942 -12.958266454134289 #
point $-1 -53.274330881679731 -22.851683430666942 12.958266454134289 #
plane-surface $-1 0 0 12.958266454134289 0 0 1 1 0 0 forward_v I I I I #
coedge $-1 $311 $310 $303 $383 forward $199 $-1 #
coedge $-1 $303 $201 $203 $307 reversed $117 $-1 #
coedge $-1 $201 $302 $301 $383 reversed $117 $-1 #
coedge $-1 $209 $204 $201 $305 forward $210 $-1 #
edge $-1 $308 -29.599759117552097 $384 -18.295630645899415 $304 $385 forward 7 unknown #
coedge $-1 $203 $202 $311 $386 reversed $73 $-1 #
edge $-1 $387 0 $308 14.545695563427374 $302 $388 forward 7 unknown #
vertex $-1 $205 $389 #
straight-curve $-1 3.17582147034069 -19.157856555940679 12.958266454134289 -1 0 0 I I #
coedge $-1 $301 $206 $209 $315 reversed $199 $-1 #
coedge $-1 $206 $301 $306 $386 forward $199 $-1 #
vertex $-1 $207 $390 #
straight-curve $-1 18.807393548120352 -30.461985027593357 43.304112517089898 0 0 1 I I #
straight-curve $-1 18.807393548120352 -30.461985027593357 3.8043635203971178 0 -0.77714595512881146 -0.62932039886446345 I I #
edge $-1 $384 -6.1041076667575922 $211 18.807393548120352 $310 $391 forward 7 unknown #
point $-1 18.807393548120352 -30.461985027593357 12.958266454134289 #
point $-1 18.807393548120352 -19.157856555940675 12.958266454134289 #
edge $-1 $392 1 $392 0 $214 $-1 forward 7 unknown #
vertex $-1 $215 $393 #
ellipse-curve $-1 1.0134641089218235 -19.059898648292375 1.2806291382681059 0 -0.62932039886446345 0.77714595512881146 3 0 0 1 I I #
point $-1 4.0134641089218235 -24.809920791767031 8.3813149872657124 #
edge $-1 $394 1 $394 0 $218 $-1 forward 7 unknown #
vertex $-1 $219 $395 #
ellipse-curve $-1 11.689821772440943 -19.059898648292375 1.2806291382681059 0 -0.62932039886446345 0.77714595512881146 3 0 0 1 I I #
point $-1 14.689821772440943 -24.809920791767031 8.3813149872657124 #
plane-surface $-1 0 0 12.958266454134289 0 0 1 1 0 0 forward_v I I I I #
coedge $-1 $337 $336 $329 $396 forward $223 $-1 #
coedge $-1 $329 $225 $227 $333 reversed $139 $-1 #
coedge $-1 $225 $328 $327 $396 reversed $139 $-1 #
coedge $-1 $233 $228 $225 $331 forward $234 $-1 #
edge $-1 $334 -5.9263506681634865 $397 5.377777803489181 $330 $398 forward 7 unknown #
coedge $-1 $227 $226 $337 $399 reversed $87 $-1 #
edge $-1 $400 -60.923970055186729 $334 -46.378274491759363 $328 $401 forward 7 unknown #
vertex $-1 $229 $402 #
straight-curve $-1 3.17582147034069 19.15785655594069 12.958266454134286 1 0 0 I I #
coedge $-1 $327 $230 $233 $341 reversed $223 $-1 #
coedge $-1 $230 $327 $332 $399 forward $223 $-1 #
vertex $-1 $231 $403 #
straight-curve $-1 -6.1041076667575922 30.461985027593357 62.47446108485827 0 0 1 I I #
straight-curve $-1 -6.1041076667575922 -16.884831871183835 42.145060655933861 0 0.77714595512881146 -0.62932039886446345 I I #
edge $-1 $397 -18.807393548120352 $235 6.1041076667575922 $336 $404 forward 7 unknown #
point $-1 -6.1041076667575922 30.461985027593357 12.958266454134289 #
point $-1 -6.1041076667575922 19.15785655594069 12.958266454134289 #
edge $-1 $405 1 $405 0 $238 $-1 forward 7 unknown #
vertex $-1 $239 $406 #
ellipse-curve $-1 1.0134641089218235 19.059898648292378 1.2806291382681041 0 0.62932039886446345 0.77714595512881146 3 0 0 1 I I #
point $-1 4.0134641089218235 24.809920791767034 8.3813149872657107 #
edge $-1 $407 1 $407 0 $242 $-1 forward 7 unknown #
vertex $-1 $243 $408 #
ellipse-curve $-1 11.689821772440943 19.059898648292378 1.2806291382681041 0 0.62932039886446345 0.77714595512881146 3 0 0 1 I I #
point $-1 14.689821772440943 24.809920791767034 8.3813149872657107 #
plane-surface $-1 53.274330881679738 0 0 -1 0 0 0 0 1 forward_v I I I I #
coedge $-1 $251 $249 $253 $357 reversed $161 $-1 #
edge $-1 $264 -12.958266454134289 $359 12.958266454134289 $263 $409 forward 7 unknown #
vertex $-1 $357 $410 #
straight-curve $-1 -53.274330881679738 -30.461985027593357 0 0 0 -1 I I #
edge $-1 $355 -30.461985027593357 $359 30.461985027593357 $353 $411 forward 7 unknown #
straight-curve $-1 0 -30.461985027593357 -12.958266454134289 -1 0 0 I I #
vertex $-1 $256 $412 #
straight-curve $-1 0 30.461985027593357 -12.958266454134289 1 0 0 I I #
point $-1 53.274330881679738 30.461985027593357 -12.958266454134289 #
point $-1 53.274330881679738 -30.461985027593357 -12.958266454134289 #
straight-curve $-1 -53.274330881679738 0 12.958266454134289 0 -1 0 I I #
point $-1 -53.274330881679738 30.461985027593357 12.958266454134289 #
point $-1 -53.274330881679738 -30.461985027593357 12.958266454134289 #
straight-curve $-1 53.274330881679738 -30.461985027593357 0 0 0 -1 I I #
straight-curve $-1 53.274330881679738 30.461985027593357 0 0 0 -1 I I #
plane-surface $-1 -53.274330881679738 0 0 1 0 0 0 0 -1 forward_v I I I I #
edge $-1 $285 7.9339671701083283 $289 12.589799897075185 $288 $413 forward 7 unknown #
edge $-1 $293 -12.589799897075185 $284 -7.9339671701083283 $291 $414 forward 7 unknown #
straight-curve $-1 -37.723201007767216 -22.851683430666942 0 0 0 -1 I I #
edge $-1 $375 -12.958266454134289 $373 12.958266454134289 $295 $415 forward 7 unknown #
vertex $-1 $372 $416 #
straight-curve $-1 -22.749382972361737 -18.195850703700085 -12.958266454134289 1 0 0 I I #
vertex $-1 $296 $417 #
straight-curve $-1 -22.749382972361737 -18.195850703700085 12.958266454134289 -1 0 0 I I #
point $-1 -37.723201007767216 -18.195850703700085 12.958266454134289 #
point $-1 -37.723201007767216 -18.195850703700085 -12.958266454134289 #
point $-1 -37.723201007767216 -22.851683430666942 -12.958266454134289 #
point $-1 -37.723201007767216 -22.851683430666942 12.958266454134289 #
straight-curve $-1 -53.274330881679738 0 12.958266454134289 0 -1 0 I I #
straight-curve $-1 -53.274330881679738 0 -12.958266454134289 0 1 0 I I #
edge $-1 $384 30.345846062955609 $387 39.49974899669278 $301 $418 forward 7 unknown #
vertex $-1 $315 $419 #
straight-curve $-1 -6.1041076667575922 -48.757615673492772 12.958266454134289 0 -1 0 I I #
edge $-1 $387 -9.2799291370982822 $312 15.631572077779662 $311 $420 forward 7 unknown #
vertex $-1 $386 $421 #
straight-curve $-1 -6.1041076667575922 -30.461985027593357 3.8043635203971178 0 0.77714595512881146 0.62932039886446345 I I #
point $-1 -6.1041076667575922 -19.157856555940675 12.958266454134289 #
point $-1 18.807393548120352 -30.461985027593357 3.8043635203971178 #
straight-curve $-1 0 -30.461985027593357 12.958266454134289 1 0 0 I I #
vertex $-1 $318 $422 #
point $-1 4.0134641089218235 -19.059898648292375 1.2806291382681059 #
vertex $-1 $322 $423 #
point $-1 14.689821772440943 -19.059898648292375 1.2806291382681059 #
edge $-1 $397 49.51619463072398 $400 58.670097564461145 $327 $424 forward 7 unknown #
vertex $-1 $341 $425 #
straight-curve $-1 18.807393548120352 25.084207224104176 12.958266454134289 0 1 0 I I #
edge $-1 $400 -15.631572077779662 $338 9.2799291370982822 $337 $426 forward 7 unknown #
vertex $-1 $399 $427 #
straight-curve $-1 18.807393548120352 -16.884831871183835 42.145060655933861 0 -0.77714595512881146 0.62932039886446345 I I #
point $-1 18.807393548120352 19.15785655594069 12.958266454134289 #
point $-1 -6.1041076667575922 30.461985027593357 3.8043635203971249 #
straight-curve $-1 0 30.461985027593357 12.958266454134289 -1 0 0 I I #
vertex $-1 $344 $428 #
point $-1 4.0134641089218235 19.059898648292378 1.2806291382681041 #
vertex $-1 $348 $429 #
point $-1 14.689821772440943 19.059898648292378 1.2806291382681041 #
straight-curve $-1 -53.274330881679738 30.461985027593357 0 0 0 -1 I I #
point $-1 -53.274330881679738 -30.461985027593357 -12.958266454134289 #
straight-curve $-1 -53.274330881679738 0 -12.958266454134289 0 1 0 I I #
point $-1 -53.274330881679738 30.461985027593357 -12.958266454134289 #
straight-curve $-1 -37.723201007767216 -10.261883533591757 -12.958266454134289 0 -1 0 I I #
straight-curve $-1 -37.723201007767216 -10.261883533591757 12.958266454134289 0 1 0 I I #
straight-curve $-1 -53.274330881679738 -18.195850703700085 0 0 0 -1 I I #
point $-1 -53.274330881679731 -18.195850703700085 -12.958266454134289 #
point $-1 -53.274330881679731 -18.195850703700085 12.958266454134289 #
straight-curve $-1 -6.1041076667575922 -30.461985027593357 43.304112517089898 0 0 -1 I I #
point $-1 -6.1041076667575922 -30.461985027593357 12.958266454134289 #
straight-curve $-1 3.17582147034069 -30.461985027593357 3.8043635203971178 1 0 0 I I #
point $-1 -6.1041076667575922 -30.461985027593357 3.8043635203971178 #
point $-1 1.0134641089218235 -17.171937451698987 -1.0508087271183284 #
point $-1 11.689821772440943 -17.171937451698987 -1.0508087271183284 #
straight-curve $-1 18.807393548120352 30.461985027593357 62.47446108485827 0 0 -1 I I #
point $-1 18.807393548120352 30.461985027593357 12.958266454134289 #
straight-curve $-1 3.17582147034069 30.461985027593357 3.8043635203971284 -1 0 0 I I #
point $-1 18.807393548120352 30.461985027593357 3.8043635203971249 #
point $-1 1.0134641089218235 17.171937451698991 -1.0508087271183302 #
point $-1 11.689821772440943 17.171937451698991 -1.0508087271183302 #
End-of-ACIS-data 