500 0 11 0           
7 Unknown 11 ACIS 5.0 NT 24 Fri Mar 26 15:05:06 1999 
-1 9.9999999999999995e-007 1e-010 
body $-1 $11 $-1 $12 #
body $-1 $13 $-1 $14 #
body $-1 $15 $-1 $16 #
body $-1 $17 $-1 $18 #
body $-1 $19 $-1 $20 #
body $-1 $21 $-1 $22 #
body $-1 $23 $-1 $24 #
body $-1 $25 $-1 $26 #
body $-1 $27 $-1 $28 #
body $-1 $29 $-1 $30 #
body $-1 $31 $-1 $32 #
lump $-1 $-1 $33 $0 #
transform $-1 1 0 0 0 1 0 0 0 1 58.003479110080264 23.318754559923043 6.4936258959602586 1 rotate no_reflect no_shear #
lump $-1 $-1 $34 $1 #
transform $-1 1 0 0 0 1 0 0 0 1 58.003479110080264 23.318754559923043 6.4936258959602586 1 rotate no_reflect no_shear #
lump $-1 $-1 $35 $2 #
transform $-1 1 0 0 0 1 0 0 0 1 58.003479110080264 23.318754559923043 6.4936258959602586 1 rotate no_reflect no_shear #
lump $-1 $-1 $36 $3 #
transform $-1 1 0 0 0 1 0 0 0 1 58.003479110080264 23.318754559923043 6.4936258959602586 1 rotate no_reflect no_shear #
lump $-1 $-1 $37 $4 #
transform $-1 1 0 0 0 1 0 0 0 1 58.003479110080264 23.318754559923043 6.4936258959602586 1 rotate no_reflect no_shear #
lump $-1 $-1 $38 $5 #
transform $-1 1 0 0 0 1 0 0 0 1 58.003479110080264 23.318754559923043 6.4936258959602586 1 rotate no_reflect no_shear #
lump $-1 $-1 $39 $6 #
transform $-1 1 0 0 0 1 0 0 0 1 58.003479110080264 23.318754559923043 6.4936258959602586 1 rotate no_reflect no_shear #
lump $-1 $-1 $40 $7 #
transform $-1 1 0 0 0 1 0 0 0 1 58.003479110080264 23.318754559923043 6.4936258959602586 1 rotate no_reflect no_shear #
lump $-1 $-1 $41 $8 #
transform $-1 1 0 0 0 1 0 0 0 1 58.003479110080264 23.318754559923043 6.4936258959602586 1 rotate no_reflect no_shear #
lump $-1 $-1 $42 $9 #
transform $-1 1 0 0 0 1 0 0 0 1 58.003479110080264 23.318754559923043 6.4936258959602586 1 rotate no_reflect no_shear #
lump $-1 $-1 $43 $10 #
transform $-1 1 0 0 0 1 0 0 0 1 58.003479110080264 23.318754559923043 6.4936258959602586 1 rotate no_reflect no_shear #
shell $-1 $-1 $-1 $44 $-1 $11 #
shell $-1 $-1 $-1 $45 $-1 $13 #
shell $-1 $-1 $-1 $46 $-1 $15 #
shell $-1 $-1 $-1 $47 $-1 $17 #
shell $-1 $-1 $-1 $48 $-1 $19 #
shell $-1 $-1 $-1 $49 $-1 $21 #
shell $-1 $-1 $-1 $50 $-1 $23 #
shell $-1 $-1 $-1 $51 $-1 $25 #
shell $-1 $-1 $-1 $52 $-1 $27 #
shell $-1 $-1 $-1 $53 $-1 $29 #
shell $-1 $-1 $-1 $54 $-1 $31 #
face $-1 $55 $56 $33 $-1 $57 forward single #
face $-1 $58 $59 $34 $-1 $60 forward single #
face $-1 $61 $62 $35 $-1 $63 forward single #
face $-1 $64 $65 $36 $-1 $66 reversed single #
face $-1 $67 $68 $37 $-1 $69 forward single #
face $-1 $70 $71 $38 $-1 $72 reversed single #
face $-1 $73 $74 $39 $-1 $75 forward single #
face $-1 $76 $77 $40 $-1 $78 reversed single #
face $-1 $79 $80 $41 $-1 $81 forward single #
face $-1 $82 $83 $42 $-1 $84 reversed single #
face $-1 $85 $86 $43 $-1 $87 forward single #
face $-1 $88 $89 $33 $-1 $90 reversed single #
loop $-1 $-1 $91 $44 #
plane-surface $-1 0 0 6.4936258959602586 0 0 1 1 0 0 forward_v I I I I #
face $-1 $92 $93 $34 $-1 $94 reversed single #
loop $-1 $-1 $95 $45 #
plane-surface $-1 0 -23.318754559923043 0 0 1 0 0 0 1 forward_v I I I I #
face $-1 $96 $97 $35 $-1 $98 reversed single #
loop $-1 $-1 $99 $46 #
plane-surface $-1 0 23.318754559923043 0 0 -1 0 0 0 -1 forward_v I I I I #
face $-1 $100 $101 $36 $-1 $102 reversed single #
loop $-1 $-1 $103 $47 #
plane-surface $-1 35.170934659819352 -1.7763568394002505e-015 162.77696294538097 0 -1 0 -0.6018150307709319 0 -0.79863550430605224 forward_v I I I I #
face $-1 $104 $105 $37 $-1 $106 forward single #
loop $-1 $107 $108 $48 #
cone-surface $-1 53.05651931174625 -3.8982021219331706 2.2799203939299888 -0.6018150307709319 0 -0.79863550430605224 0.79863550430605224 0 -0.6018150307709319 1 I I 0 1 1 forward I I I I #
face $-1 $109 $110 $38 $-1 $111 reversed single #
loop $-1 $-1 $112 $49 #
plane-surface $-1 35.170934659819352 15.768423678538317 162.77696294538097 0 -1 0 -0.6018150307709319 0 -0.79863550430605224 forward_v I I I I #
face $-1 $113 $114 $39 $-1 $115 forward single #
loop $-1 $116 $117 $50 #
cone-surface $-1 53.05651931174625 11.870221556605152 2.2799203939299888 -0.6018150307709319 0 -0.79863550430605224 0.79863550430605224 0 -0.6018150307709319 1 I I 0 1 1 forward I I I I #
face $-1 $118 $119 $40 $-1 $120 reversed single #
loop $-1 $-1 $121 $51 #
plane-surface $-1 -127.81821024098839 -7.7964042438663466 92.962231814472858 0 1 0 -0.6018150307709319 0 0.79863550430605224 forward_v I I I I #
face $-1 $122 $123 $41 $-1 $124 forward single #
loop $-1 $125 $126 $52 #
cone-surface $-1 -53.05651931174625 -3.8982021219331706 2.2799203939299773 0.6018150307709319 0 -0.79863550430605224 0.79863550430605224 0 0.6018150307709319 1 I I 0 1 1 forward I I I I #
face $-1 $127 $128 $42 $-1 $129 reversed single #
loop $-1 $-1 $130 $53 #
plane-surface $-1 -127.81821024098839 7.9720194346719726 92.962231814472858 0 1 0 -0.6018150307709319 0 0.79863550430605224 forward_v I I I I #
face $-1 $131 $132 $43 $-1 $133 forward single #
loop $-1 $134 $135 $54 #
cone-surface $-1 -53.05651931174625 11.870221556605152 2.2799203939299773 0.6018150307709319 0 -0.79863550430605224 0.79863550430605224 0 0.6018150307709319 1 I I 0 1 1 forward I I I I #
face $-1 $136 $137 $33 $-1 $138 reversed single #
loop $-1 $-1 $139 $55 #
plane-surface $-1 0 0 -6.4936258959602586 0 0 1 1 0 0 forward_v I I I I #
coedge $-1 $140 $141 $142 $143 forward $56 $-1 #
face $-1 $144 $145 $34 $-1 $146 reversed single #
loop $-1 $-1 $147 $58 #
plane-surface $-1 0 0 -6.4936258959602586 0 0 1 1 0 0 forward_v I I I I #
coedge $-1 $148 $149 $150 $151 forward $59 $-1 #
face $-1 $152 $153 $35 $-1 $154 reversed single #
loop $-1 $-1 $155 $61 #
plane-surface $-1 0 0 -6.4936258959602586 0 0 1 1 0 0 forward_v I I I I #
coedge $-1 $156 $157 $158 $159 forward $62 $-1 #
face $-1 $160 $161 $36 $-1 $162 reversed single #
loop $-1 $-1 $163 $64 #
plane-surface $-1 -34.643796471088763 -3.8982021219331742 70.129687364211932 0.6018150307709319 0 0.79863550430605224 0.79863550430605224 0 -0.6018150307709319 forward_v I I I I #
coedge $-1 $164 $165 $166 $167 reversed $65 $-1 #
face $-1 $-1 $168 $37 $-1 $169 forward single #
loop $-1 $170 $171 $67 #
cone-surface $-1 51.908337706819196 -3.8982021219331706 0.75623197107489482 -0.6018150307709319 0 -0.79863550430605224 0.39931775215302612 0 -0.30090751538546595 1 I I -0.70710678118654746 0.70710678118654746 0.5 forward I I I I #
loop $-1 $-1 $172 $48 #
coedge $-1 $108 $108 $173 $174 reversed $68 $-1 #
face $-1 $175 $176 $38 $-1 $177 reversed single #
loop $-1 $-1 $178 $70 #
plane-surface $-1 -34.643796471088763 11.870221556605145 70.129687364211932 0.6018150307709319 0 0.79863550430605224 0.79863550430605224 0 -0.6018150307709319 forward_v I I I I #
coedge $-1 $179 $180 $181 $182 reversed $71 $-1 #
face $-1 $-1 $183 $39 $-1 $184 forward single #
loop $-1 $185 $186 $73 #
cone-surface $-1 51.908337706819196 11.870221556605152 0.75623197107489482 -0.6018150307709319 0 -0.79863550430605224 0.39931775215302612 0 -0.30090751538546595 1 I I -0.70710678118654746 0.70710678118654746 0.5 forward I I I I #
loop $-1 $-1 $187 $50 #
coedge $-1 $117 $117 $188 $189 reversed $74 $-1 #
face $-1 $190 $191 $40 $-1 $192 reversed single #
loop $-1 $-1 $193 $76 #
plane-surface $-1 -58.003479110080278 -3.8982021219331742 0.31495623330381761 -0.6018150307709319 0 0.79863550430605224 0.79863550430605224 0 0.6018150307709319 forward_v I I I I #
coedge $-1 $194 $195 $196 $197 reversed $77 $-1 #
face $-1 $-1 $198 $41 $-1 $199 forward single #
loop $-1 $200 $201 $79 #
cone-surface $-1 -51.908337706819196 -3.8982021219331706 0.75623197107488327 0.6018150307709319 0 -0.79863550430605224 0.39931775215302612 0 0.30090751538546595 1 I I -0.70710678118654746 0.70710678118654746 0.5 forward I I I I #
loop $-1 $-1 $202 $52 #
coedge $-1 $126 $126 $203 $204 reversed $80 $-1 #
face $-1 $205 $206 $42 $-1 $207 reversed single #
loop $-1 $-1 $208 $82 #
plane-surface $-1 -58.003479110080278 11.870221556605145 0.31495623330381761 -0.6018150307709319 0 0.79863550430605224 0.79863550430605224 0 0.6018150307709319 forward_v I I I I #
coedge $-1 $209 $210 $211 $212 reversed $83 $-1 #
face $-1 $-1 $213 $43 $-1 $214 forward single #
loop $-1 $215 $216 $85 #
cone-surface $-1 -51.908337706819196 11.870221556605152 0.75623197107488327 0.6018150307709319 0 -0.79863550430605224 0.39931775215302612 0 0.30090751538546595 1 I I -0.70710678118654746 0.70710678118654746 0.5 forward I I I I #
loop $-1 $-1 $217 $54 #
coedge $-1 $135 $135 $218 $219 reversed $86 $-1 #
face $-1 $220 $221 $33 $-1 $222 reversed single #
loop $-1 $-1 $223 $88 #
plane-surface $-1 0 -23.318754559923043 0 0 1 0 0 0 1 forward_v I I I I #
coedge $-1 $224 $225 $226 $227 forward $89 $-1 #
coedge $-1 $228 $91 $229 $230 forward $56 $-1 #
coedge $-1 $91 $228 $231 $232 forward $56 $-1 #
coedge $-1 $233 $234 $91 $143 reversed $235 $-1 #
edge $-1 $236 -23.318754559923043 $237 23.318754559923043 $142 $238 forward 7 unknown #
face $-1 $239 $240 $34 $-1 $241 reversed single #
loop $-1 $-1 $242 $92 #
plane-surface $-1 -46.51622731815975 -30.869085441307767 0 0 1 0 0 0 1 forward_v I I I I #
coedge $-1 $243 $244 $149 $245 forward $93 $-1 #
coedge $-1 $246 $95 $247 $248 reversed $59 $-1 #
coedge $-1 $95 $246 $147 $245 reversed $59 $-1 #
coedge $-1 $249 $250 $95 $151 reversed $240 $-1 #
edge $-1 $251 -6.4936258959602586 $252 6.4936258959602586 $150 $253 forward 7 unknown #
face $-1 $254 $255 $35 $-1 $256 reversed single #
loop $-1 $-1 $257 $96 #
plane-surface $-1 -48.01622731815975 27.093920000615405 0 1 0 0 0 0 -1 forward_v I I I I #
coedge $-1 $258 $259 $157 $260 forward $97 $-1 #
coedge $-1 $261 $99 $262 $263 reversed $62 $-1 #
coedge $-1 $99 $261 $155 $260 reversed $62 $-1 #
coedge $-1 $264 $265 $99 $159 reversed $266 $-1 #
edge $-1 $267 -6.4936258959602586 $268 6.4936258959602586 $158 $269 forward 7 unknown #
face $-1 $270 $271 $36 $-1 $272 forward single #
loop $-1 $-1 $273 $100 #
plane-surface $-1 35.170934659819352 -7.7964042438663466 162.77696294538097 0 1 0 0.6018150307709319 0 0.79863550430605224 forward_v I I I I #
coedge $-1 $274 $275 $276 $277 reversed $101 $-1 #
coedge $-1 $165 $103 $278 $279 reversed $65 $-1 #
coedge $-1 $103 $164 $274 $280 reversed $65 $-1 #
coedge $-1 $276 $281 $103 $167 forward $271 $-1 #
edge $-1 $282 -40.418011780170588 $283 -32.218640362585731 $166 $284 forward 7 unknown #
loop $-1 $-1 $173 $104 #
plane-surface $-1 -34.643796471088763 -3.8982021219331742 70.129687364211932 0.6018150307709319 0 0.79863550430605224 0.79863550430605224 0 -0.6018150307709319 forward_v I I I I #
loop $-1 $-1 $285 $67 #
coedge $-1 $171 $171 $172 $286 reversed $105 $-1 #
coedge $-1 $172 $172 $171 $286 forward $107 $-1 #
coedge $-1 $173 $173 $108 $174 forward $168 $-1 #
edge $-1 $287 0 $287 6.2831853071796004 $173 $288 forward 7 unknown #
face $-1 $289 $290 $38 $-1 $291 reversed single #
loop $-1 $-1 $292 $109 #
plane-surface $-1 35.170934659819352 7.9720194346719726 162.77696294538097 0 1 0 0.6018150307709319 0 0.79863550430605224 forward_v I I I I #
coedge $-1 $293 $294 $295 $296 reversed $110 $-1 #
coedge $-1 $180 $112 $297 $298 reversed $71 $-1 #
coedge $-1 $112 $179 $293 $299 reversed $71 $-1 #
coedge $-1 $295 $300 $112 $182 forward $301 $-1 #
edge $-1 $302 -40.418011780170588 $303 -32.218640362585731 $181 $304 forward 7 unknown #
loop $-1 $-1 $188 $113 #
plane-surface $-1 -34.643796471088763 11.870221556605145 70.129687364211932 0.6018150307709319 0 0.79863550430605224 0.79863550430605224 0 -0.6018150307709319 forward_v I I I I #
loop $-1 $-1 $305 $73 #
coedge $-1 $186 $186 $187 $306 reversed $114 $-1 #
coedge $-1 $187 $187 $186 $306 forward $116 $-1 #
coedge $-1 $188 $188 $117 $189 forward $183 $-1 #
edge $-1 $307 0 $307 6.2831853071796004 $188 $308 forward 7 unknown #
face $-1 $309 $310 $40 $-1 $311 reversed single #
loop $-1 $-1 $312 $118 #
plane-surface $-1 -127.81821024098839 -1.7763568394002505e-015 92.962231814472858 0 -1 0 0.6018150307709319 0 -0.79863550430605224 forward_v I I I I #
coedge $-1 $313 $314 $315 $316 reversed $119 $-1 #
coedge $-1 $195 $121 $317 $318 reversed $77 $-1 #
coedge $-1 $121 $194 $313 $319 reversed $77 $-1 #
coedge $-1 $315 $320 $121 $197 forward $321 $-1 #
edge $-1 $322 5.9056260104139326 $323 14.104997427998775 $196 $324 forward 7 unknown #
loop $-1 $-1 $203 $122 #
plane-surface $-1 -58.003479110080278 -3.8982021219331742 0.31495623330381761 -0.6018150307709319 0 0.79863550430605224 0.79863550430605224 0 0.6018150307709319 forward_v I I I I #
loop $-1 $-1 $325 $79 #
coedge $-1 $201 $201 $202 $326 reversed $123 $-1 #
coedge $-1 $202 $202 $201 $326 forward $125 $-1 #
coedge $-1 $203 $203 $126 $204 forward $198 $-1 #
edge $-1 $327 0 $327 6.2831853071796004 $203 $328 forward 7 unknown #
face $-1 $329 $330 $42 $-1 $331 forward single #
loop $-1 $-1 $332 $127 #
plane-surface $-1 -127.81821024098839 15.768423678538317 92.962231814472858 0 -1 0 0.6018150307709319 0 -0.79863550430605224 forward_v I I I I #
coedge $-1 $333 $334 $335 $336 reversed $128 $-1 #
coedge $-1 $210 $130 $337 $338 reversed $83 $-1 #
coedge $-1 $130 $209 $333 $339 reversed $83 $-1 #
coedge $-1 $335 $340 $130 $212 forward $330 $-1 #
edge $-1 $341 5.9056260104139326 $342 14.104997427998775 $211 $343 forward 7 unknown #
loop $-1 $-1 $218 $131 #
plane-surface $-1 -58.003479110080278 11.870221556605145 0.31495623330381761 -0.6018150307709319 0 0.79863550430605224 0.79863550430605224 0 0.6018150307709319 forward_v I I I I #
loop $-1 $-1 $344 $85 #
coedge $-1 $216 $216 $217 $345 reversed $132 $-1 #
coedge $-1 $217 $217 $216 $345 forward $134 $-1 #
coedge $-1 $218 $218 $135 $219 forward $213 $-1 #
edge $-1 $346 0 $346 6.2831853071796004 $218 $347 forward 7 unknown #
face $-1 $348 $349 $33 $-1 $350 reversed single #
loop $-1 $-1 $351 $136 #
plane-surface $-1 -58.003479110080264 0 0 1 0 0 0 0 -1 forward_v I I I I #
coedge $-1 $352 $231 $353 $354 forward $137 $-1 #
coedge $-1 $355 $139 $352 $356 forward $89 $-1 #
coedge $-1 $139 $355 $357 $358 forward $89 $-1 #
coedge $-1 $234 $233 $139 $227 reversed $235 $-1 #
edge $-1 $359 -23.318754559923043 $360 23.318754559923043 $226 $361 forward 7 unknown #
coedge $-1 $141 $140 $362 $363 forward $56 $-1 #
coedge $-1 $364 $365 $140 $230 reversed $349 $-1 #
edge $-1 $237 -58.003479110080264 $366 58.003479110080264 $229 $367 forward 7 unknown #
coedge $-1 $223 $368 $141 $232 reversed $137 $-1 #
edge $-1 $369 -58.003479110080264 $236 58.003479110080264 $231 $370 forward 7 unknown #
coedge $-1 $226 $142 $368 $371 forward $235 $-1 #
coedge $-1 $142 $226 $364 $372 reversed $235 $-1 #
loop $-1 $-1 $233 $348 #
vertex $-1 $143 $373 #
vertex $-1 $143 $374 #
straight-curve $-1 58.003479110080264 0 6.4936258959602586 0 1 0 I I #
face $-1 $375 $376 $34 $-1 $377 reversed single #
loop $-1 $-1 $150 $144 #
plane-surface $-1 -48.01622731815975 -27.093920000615405 0 1 0 0 0 0 -1 forward_v I I I I #
coedge $-1 $378 $379 $380 $381 forward $145 $-1 #
coedge $-1 $382 $147 $383 $384 forward $93 $-1 #
coedge $-1 $147 $382 $249 $385 forward $93 $-1 #
edge $-1 $251 -48.01622731815975 $386 -45.01622731815975 $147 $387 forward 7 unknown #
coedge $-1 $149 $148 $388 $389 forward $59 $-1 #
coedge $-1 $390 $391 $148 $248 forward $392 $-1 #
edge $-1 $393 45.01622731815975 $252 48.01622731815975 $247 $394 forward 7 unknown #
coedge $-1 $380 $150 $244 $385 reversed $240 $-1 #
coedge $-1 $150 $380 $390 $395 reversed $240 $-1 #
vertex $-1 $245 $396 #
vertex $-1 $395 $397 #
straight-curve $-1 -48.01622731815975 -23.318754559923043 0 0 0 1 I I #
face $-1 $398 $266 $35 $-1 $399 reversed single #
loop $-1 $-1 $400 $152 #
plane-surface $-1 -46.51622731815975 30.869085441307767 0 0 -1 0 0 0 -1 forward_v I I I I #
coedge $-1 $401 $402 $403 $404 forward $153 $-1 #
coedge $-1 $405 $155 $401 $406 forward $97 $-1 #
coedge $-1 $155 $405 $264 $407 forward $97 $-1 #
edge $-1 $267 45.01622731815975 $408 48.01622731815975 $155 $409 forward 7 unknown #
coedge $-1 $157 $156 $410 $411 forward $62 $-1 #
coedge $-1 $412 $413 $156 $263 forward $414 $-1 #
edge $-1 $415 -48.01622731815975 $268 -45.01622731815975 $262 $416 forward 7 unknown #
coedge $-1 $417 $158 $259 $407 reversed $266 $-1 #
coedge $-1 $158 $417 $412 $418 reversed $266 $-1 #
loop $-1 $-1 $158 $254 #
vertex $-1 $260 $419 #
vertex $-1 $418 $420 #
straight-curve $-1 -45.01622731815975 23.318754559923043 0 0 0 1 I I #
face $-1 $-1 $421 $36 $-1 $422 reversed single #
loop $-1 $-1 $166 $160 #
plane-surface $-1 0 0 6.4936258959602586 0 0 1 1 0 0 forward_v I I I I #
coedge $-1 $423 $424 $425 $426 reversed $161 $-1 #
coedge $-1 $427 $163 $165 $280 forward $101 $-1 #
coedge $-1 $163 $427 $423 $428 forward $101 $-1 #
coedge $-1 $425 $166 $163 $277 forward $271 $-1 #
edge $-1 $283 -1.9491010609665853 $429 5.8473031828997595 $276 $430 forward 7 unknown #
coedge $-1 $431 $432 $164 $279 forward $421 $-1 #
edge $-1 $433 -81.073525239386669 $282 -74.894855576730222 $278 $434 forward 7 unknown #
edge $-1 $283 105.74023281993001 $433 116.00695822016053 $165 $435 forward 7 unknown #
coedge $-1 $166 $425 $431 $436 forward $271 $-1 #
vertex $-1 $167 $437 #
vertex $-1 $167 $438 #
straight-curve $-1 17.585467329909676 -1.7763568394002505e-015 6.493625895960264 -1 0 0 I I #
coedge $-1 $285 $285 $-1 $439 reversed $170 $-1 #
edge $-1 $440 0 $440 6.2831853071796004 $171 $441 forward 7 unknown #
vertex $-1 $174 $442 #
ellipse-curve $-1 53.903793401287828 -3.8982021219331706 3.4042910646320417 0.6018150307709319 0 0.79863550430605224 0.79863550430605224 0 -0.6018150307709319 1 I I #
face $-1 $-1 $301 $38 $-1 $443 forward single #
loop $-1 $-1 $444 $175 #
plane-surface $-1 58.003479110080264 0 0 -1 0 0 0 0 1 forward_v I I I I #
coedge $-1 $445 $446 $447 $448 reversed $176 $-1 #
coedge $-1 $449 $178 $180 $299 forward $110 $-1 #
coedge $-1 $178 $449 $445 $450 forward $110 $-1 #
coedge $-1 $447 $181 $178 $296 forward $301 $-1 #
edge $-1 $303 -9.8333129002357449 $451 -2.0369086563694001 $295 $452 forward 7 unknown #
coedge $-1 $453 $454 $179 $298 forward $290 $-1 #
edge $-1 $455 -81.073525239386669 $302 -74.894855576730222 $297 $456 forward 7 unknown #
edge $-1 $303 105.74023281993001 $455 116.00695822016053 $180 $457 forward 7 unknown #
coedge $-1 $181 $447 $453 $458 forward $301 $-1 #
loop $-1 $-1 $447 $289 #
vertex $-1 $298 $459 #
vertex $-1 $182 $460 #
straight-curve $-1 17.585467329909676 15.768423678538317 6.493625895960264 -1 0 0 I I #
coedge $-1 $305 $305 $-1 $461 reversed $185 $-1 #
edge $-1 $462 0 $462 6.2831853071796004 $186 $463 forward 7 unknown #
vertex $-1 $189 $464 #
ellipse-curve $-1 53.903793401287828 11.870221556605152 3.4042910646320417 0.6018150307709319 0 0.79863550430605224 0.79863550430605224 0 -0.6018150307709319 1 I I #
face $-1 $-1 $321 $40 $-1 $465 forward single #
loop $-1 $-1 $466 $190 #
plane-surface $-1 -58.003479110080264 0 0 1 0 0 0 0 -1 forward_v I I I I #
coedge $-1 $467 $468 $469 $470 reversed $191 $-1 #
coedge $-1 $471 $193 $195 $319 forward $119 $-1 #
coedge $-1 $193 $471 $467 $472 forward $119 $-1 #
coedge $-1 $469 $196 $193 $316 forward $321 $-1 #
edge $-1 $323 -5.8473031828997595 $473 1.9491010609665853 $315 $474 forward 7 unknown #
coedge $-1 $475 $476 $194 $318 forward $310 $-1 #
edge $-1 $477 -46.166159673932597 $322 -39.987490011276172 $317 $478 forward 7 unknown #
edge $-1 $323 -10.266725400230522 $477 -1.7796930043064663e-014 $195 $479 forward 7 unknown #
coedge $-1 $196 $469 $475 $480 forward $321 $-1 #
loop $-1 $-1 $469 $309 #
vertex $-1 $318 $481 #
vertex $-1 $197 $482 #
straight-curve $-1 -63.909105120494196 -7.7964042438663466 6.4936258959602569 1 0 0 I I #
coedge $-1 $325 $325 $-1 $483 reversed $200 $-1 #
edge $-1 $484 0 $484 6.2831853071796004 $201 $485 forward 7 unknown #
vertex $-1 $204 $486 #
ellipse-curve $-1 -53.903793401287835 -3.8982021219331706 3.4042910646320443 -0.6018150307709319 0 0.79863550430605224 0.79863550430605224 0 0.6018150307709319 1 I I #
face $-1 $-1 $487 $42 $-1 $488 reversed single #
loop $-1 $-1 $211 $205 #
plane-surface $-1 0 0 6.4936258959602586 0 0 1 1 0 0 forward_v I I I I #
coedge $-1 $489 $490 $491 $492 reversed $206 $-1 #
coedge $-1 $493 $208 $210 $339 forward $128 $-1 #
coedge $-1 $208 $493 $489 $494 forward $128 $-1 #
coedge $-1 $491 $211 $208 $336 forward $330 $-1 #
edge $-1 $342 2.0369086563694001 $495 9.8333129002357449 $335 $496 forward 7 unknown #
coedge $-1 $497 $498 $209 $338 forward $487 $-1 #
edge $-1 $499 -46.166159673932597 $341 -39.987490011276172 $337 $500 forward 7 unknown #
edge $-1 $342 -10.266725400230522 $499 -1.7796930043064663e-014 $210 $501 forward 7 unknown #
coedge $-1 $211 $491 $497 $502 forward $330 $-1 #
vertex $-1 $338 $503 #
vertex $-1 $212 $504 #
straight-curve $-1 -63.909105120494196 7.9720194346719726 6.4936258959602569 1 0 0 I I #
coedge $-1 $344 $344 $-1 $505 reversed $215 $-1 #
edge $-1 $506 0 $506 6.2831853071796004 $216 $507 forward 7 unknown #
vertex $-1 $219 $508 #
ellipse-curve $-1 -53.903793401287835 11.870221556605152 3.4042910646320443 -0.6018150307709319 0 0.79863550430605224 0.79863550430605224 0 0.6018150307709319 1 I I #
face $-1 $-1 $235 $33 $-1 $509 reversed single #
loop $-1 $-1 $364 $220 #
plane-surface $-1 0 23.318754559923043 0 0 -1 0 0 0 -1 forward_v I I I I #
coedge $-1 $510 $362 $365 $511 forward $221 $-1 #
coedge $-1 $368 $223 $224 $356 reversed $137 $-1 #
coedge $-1 $362 $510 $223 $354 reversed $221 $-1 #
edge $-1 $369 -6.4936258959602586 $512 6.4936258959602586 $353 $513 forward 7 unknown #
coedge $-1 $225 $224 $510 $514 forward $89 $-1 #
edge $-1 $360 -58.003479110080264 $512 58.003479110080264 $352 $515 forward 7 unknown #
coedge $-1 $365 $364 $225 $358 reversed $349 $-1 #
edge $-1 $516 -58.003479110080264 $359 58.003479110080264 $357 $517 forward 7 unknown #
vertex $-1 $227 $518 #
vertex $-1 $371 $519 #
straight-curve $-1 58.003479110080264 0 -6.4936258959602586 0 -1 0 I I #
coedge $-1 $351 $353 $228 $363 reversed $221 $-1 #
edge $-1 $366 -23.318754559923043 $369 23.318754559923043 $362 $520 forward 7 unknown #
coedge $-1 $357 $229 $234 $372 forward $349 $-1 #
coedge $-1 $229 $357 $351 $511 reversed $349 $-1 #
vertex $-1 $230 $521 #
straight-curve $-1 0 23.318754559923043 6.4936258959602586 -1 0 0 I I #
coedge $-1 $231 $352 $233 $371 reversed $137 $-1 #
vertex $-1 $363 $522 #
straight-curve $-1 0 -23.318754559923043 6.4936258959602586 1 0 0 I I #
edge $-1 $236 -6.4936258959602586 $360 6.4936258959602586 $233 $523 forward 7 unknown #
edge $-1 $237 -6.4936258959602586 $359 6.4936258959602586 $234 $524 forward 7 unknown #
point $-1 58.003479110080264 -23.318754559923043 6.4936258959602586 #
point $-1 58.003479110080264 23.318754559923043 6.4936258959602586 #
face $-1 $-1 $392 $34 $-1 $525 forward single #
loop $-1 $-1 $526 $239 #
plane-surface $-1 -45.01622731815975 -27.093920000615405 0 -1 0 0 0 0 1 forward_v I I I I #
coedge $-1 $527 $242 $382 $528 reversed $145 $-1 #
coedge $-1 $242 $527 $529 $530 reversed $145 $-1 #
coedge $-1 $250 $249 $242 $381 reversed $240 $-1 #
edge $-1 $531 -6.4936258959602586 $532 6.4936258959602586 $380 $533 forward 7 unknown #
coedge $-1 $244 $243 $378 $528 forward $93 $-1 #
coedge $-1 $388 $526 $243 $384 reversed $376 $-1 #
edge $-1 $386 -3.775165440692362 $534 3.775165440692362 $383 $535 forward 7 unknown #
edge $-1 $532 -3.775165440692362 $251 3.775165440692362 $249 $536 forward 7 unknown #
vertex $-1 $384 $537 #
straight-curve $-1 0 -23.318754559923043 -6.4936258959602586 1 0 0 I I #
coedge $-1 $538 $383 $246 $389 reversed $376 $-1 #
edge $-1 $393 -6.4936258959602586 $386 6.4936258959602586 $388 $539 forward 7 unknown #
coedge $-1 $529 $247 $250 $395 forward $392 $-1 #
coedge $-1 $247 $529 $538 $540 forward $392 $-1 #
loop $-1 $-1 $247 $375 #
vertex $-1 $248 $541 #
straight-curve $-1 0 -23.318754559923043 6.4936258959602586 -1 0 0 I I #
edge $-1 $252 -3.775165440692362 $531 3.775165440692362 $250 $542 forward 7 unknown #
point $-1 -48.01622731815975 -23.318754559923043 -6.4936258959602586 #
point $-1 -48.01622731815975 -23.318754559923043 6.4936258959602586 #
face $-1 $-1 $414 $35 $-1 $543 forward single #
plane-surface $-1 -45.01622731815975 27.093920000615405 0 -1 0 0 0 0 1 forward_v I I I I #
coedge $-1 $544 $545 $417 $546 forward $255 $-1 #
coedge $-1 $410 $257 $258 $406 reversed $153 $-1 #
coedge $-1 $257 $410 $413 $547 reversed $153 $-1 #
coedge $-1 $545 $544 $257 $404 reversed $255 $-1 #
edge $-1 $548 -6.4936258959602586 $549 6.4936258959602586 $403 $550 forward 7 unknown #
coedge $-1 $259 $258 $544 $551 forward $97 $-1 #
edge $-1 $408 -3.775165440692362 $549 3.775165440692362 $401 $552 forward 7 unknown #
edge $-1 $553 -3.775165440692362 $267 3.775165440692362 $264 $554 forward 7 unknown #
vertex $-1 $406 $555 #
straight-curve $-1 0 23.318754559923043 -6.4936258959602586 -1 0 0 I I #
coedge $-1 $402 $401 $261 $411 reversed $153 $-1 #
edge $-1 $415 -6.4936258959602586 $408 6.4936258959602586 $410 $556 forward 7 unknown #
coedge $-1 $557 $262 $265 $418 forward $414 $-1 #
coedge $-1 $262 $557 $402 $547 forward $414 $-1 #
loop $-1 $-1 $262 $398 #
vertex $-1 $263 $558 #
straight-curve $-1 0 23.318754559923043 6.4936258959602586 1 0 0 I I #
coedge $-1 $265 $264 $400 $546 reversed $266 $-1 #
edge $-1 $268 -3.775165440692362 $559 3.775165440692362 $265 $560 forward 7 unknown #
point $-1 -45.01622731815975 23.318754559923043 -6.4936258959602586 #
point $-1 -45.01622731815975 23.318754559923043 6.4936258959602586 #
loop $-1 $-1 $278 $270 #
plane-surface $-1 58.003479110080264 0 0 -1 0 0 0 0 1 forward_v I I I I #
coedge $-1 $424 $273 $275 $428 reversed $161 $-1 #
coedge $-1 $273 $423 $561 $562 reversed $161 $-1 #
coedge $-1 $281 $276 $273 $426 forward $271 $-1 #
edge $-1 $429 32.218640362585731 $563 40.418011780170588 $425 $564 forward 7 unknown #
coedge $-1 $275 $274 $432 $565 reversed $101 $-1 #
edge $-1 $566 -116.00695822016053 $429 -105.74023281993001 $423 $567 forward 7 unknown #
vertex $-1 $277 $568 #
straight-curve $-1 49.804107692495414 -1.9491010609665871 6.4936258959602569 0 -1 0 I I #
coedge $-1 $561 $278 $281 $436 reversed $421 $-1 #
coedge $-1 $278 $561 $427 $565 forward $421 $-1 #
vertex $-1 $279 $569 #
straight-curve $-1 58.003479110080264 -1.7763568394002505e-015 81.388481472690486 0 0 1 I I #
straight-curve $-1 -34.643796471088763 -1.7763568394002505e-015 70.129687364211932 0.79863550430605224 0 -0.6018150307709319 I I #
edge $-1 $563 -7.7964042438663466 $282 -1.7763568394002505e-015 $431 $570 forward 7 unknown #
point $-1 58.003479110080264 -1.7763568394002505e-015 6.4936258959602586 #
point $-1 49.804107692495407 -1.7763568394002505e-015 6.4936258959602569 #
edge $-1 $571 1 $571 0 $285 $-1 forward 7 unknown #
vertex $-1 $286 $572 #
ellipse-curve $-1 52.209245222204665 -3.8982021219331706 1.1555497232279208 0.6018150307709319 0 0.79863550430605224 0.79863550430605224 0 -0.6018150307709319 1 I I #
point $-1 54.702428905593891 -3.8982021219331706 2.8024760338611241 #
plane-surface $-1 0 0 6.4936258959602586 0 0 1 1 0 0 forward_v I I I I #
coedge $-1 $454 $453 $446 $573 forward $290 $-1 #
coedge $-1 $446 $292 $294 $450 reversed $176 $-1 #
coedge $-1 $292 $445 $444 $573 reversed $176 $-1 #
coedge $-1 $300 $295 $292 $448 forward $301 $-1 #
edge $-1 $451 32.218640362585731 $574 40.418011780170588 $447 $575 forward 7 unknown #
coedge $-1 $294 $293 $454 $576 reversed $110 $-1 #
edge $-1 $577 -116.00695822016053 $451 -105.74023281993001 $445 $578 forward 7 unknown #
vertex $-1 $296 $579 #
straight-curve $-1 49.804107692495414 5.9351107783025725 6.4936258959602569 0 -1 0 I I #
coedge $-1 $444 $297 $300 $458 reversed $290 $-1 #
coedge $-1 $297 $444 $449 $576 forward $290 $-1 #
vertex $-1 $298 $580 #
straight-curve $-1 58.003479110080264 15.768423678538317 81.388481472690486 0 0 1 I I #
straight-curve $-1 -34.643796471088763 15.768423678538317 70.129687364211932 0.79863550430605224 0 -0.6018150307709319 I I #
edge $-1 $574 7.9720194346719726 $302 15.768423678538317 $453 $581 forward 7 unknown #
point $-1 58.003479110080264 15.768423678538317 6.4936258959602586 #
point $-1 49.804107692495407 15.768423678538317 6.4936258959602569 #
edge $-1 $582 1 $582 0 $305 $-1 forward 7 unknown #
vertex $-1 $306 $583 #
ellipse-curve $-1 52.209245222204665 11.870221556605152 1.1555497232279208 0.6018150307709319 0 0.79863550430605224 0.79863550430605224 0 -0.6018150307709319 1 I I #
point $-1 54.702428905593891 11.870221556605152 2.8024760338611241 #
plane-surface $-1 0 0 6.4936258959602586 0 0 1 1 0 0 forward_v I I I I #
coedge $-1 $476 $475 $468 $584 forward $310 $-1 #
coedge $-1 $468 $312 $314 $472 reversed $191 $-1 #
coedge $-1 $312 $467 $466 $584 reversed $191 $-1 #
coedge $-1 $320 $315 $312 $470 forward $321 $-1 #
edge $-1 $473 -14.104997427998775 $585 -5.9056260104139326 $469 $586 forward 7 unknown #
coedge $-1 $314 $313 $476 $587 reversed $119 $-1 #
edge $-1 $588 1.7796930043064663e-014 $473 10.266725400230522 $467 $589 forward 7 unknown #
vertex $-1 $316 $590 #
straight-curve $-1 -49.804107692495421 -1.9491010609665871 6.4936258959602586 0 1 0 I I #
coedge $-1 $466 $317 $320 $480 reversed $310 $-1 #
coedge $-1 $317 $466 $471 $587 forward $310 $-1 #
vertex $-1 $318 $591 #
straight-curve $-1 -58.003479110080264 -7.7964042438663466 46.481115907236429 0 0 1 I I #
straight-curve $-1 -58.003479110080278 -7.7964042438663466 0.31495623330381761 -0.79863550430605224 0 -0.6018150307709319 I I #
edge $-1 $585 1.7763568394002505e-015 $322 7.7964042438663466 $475 $592 forward 7 unknown #
point $-1 -58.003479110080264 -7.7964042438663466 6.4936258959602586 #
point $-1 -49.804107692495421 -7.7964042438663466 6.4936258959602586 #
edge $-1 $593 1 $593 0 $325 $-1 forward 7 unknown #
vertex $-1 $326 $594 #
ellipse-curve $-1 -52.209245222204665 -3.8982021219331706 1.1555497232279093 -0.6018150307709319 0 0.79863550430605224 0.79863550430605224 0 0.6018150307709319 1 I I #
point $-1 -53.105157896981787 -3.8982021219331706 4.0061060954029761 #
loop $-1 $-1 $337 $329 #
plane-surface $-1 -58.003479110080264 0 0 1 0 0 0 0 -1 forward_v I I I I #
coedge $-1 $490 $332 $334 $494 reversed $206 $-1 #
coedge $-1 $332 $489 $595 $596 reversed $206 $-1 #
coedge $-1 $340 $335 $332 $492 forward $330 $-1 #
edge $-1 $495 -14.104997427998775 $597 -5.9056260104139326 $491 $598 forward 7 unknown #
coedge $-1 $334 $333 $498 $599 reversed $128 $-1 #
edge $-1 $600 1.7796930043064663e-014 $495 10.266725400230522 $489 $601 forward 7 unknown #
vertex $-1 $336 $602 #
straight-curve $-1 -49.804107692495421 5.9351107783025725 6.4936258959602586 0 1 0 I I #
coedge $-1 $595 $337 $340 $502 reversed $487 $-1 #
coedge $-1 $337 $595 $493 $599 forward $487 $-1 #
vertex $-1 $338 $603 #
straight-curve $-1 -58.003479110080264 7.9720194346719726 46.481115907236429 0 0 1 I I #
straight-curve $-1 -58.003479110080278 7.9720194346719726 0.31495623330381761 -0.79863550430605224 0 -0.6018150307709319 I I #
edge $-1 $597 -15.768423678538317 $341 -7.9720194346719726 $497 $604 forward 7 unknown #
point $-1 -58.003479110080264 7.9720194346719726 6.4936258959602586 #
point $-1 -49.804107692495421 7.9720194346719726 6.4936258959602586 #
edge $-1 $605 1 $605 0 $344 $-1 forward 7 unknown #
vertex $-1 $345 $606 #
ellipse-curve $-1 -52.209245222204665 11.870221556605152 1.1555497232279093 -0.6018150307709319 0 0.79863550430605224 0.79863550430605224 0 0.6018150307709319 1 I I #
point $-1 -53.105157896981787 11.870221556605152 4.0061060954029761 #
plane-surface $-1 58.003479110080264 0 0 -1 0 0 0 0 1 forward_v I I I I #
coedge $-1 $353 $351 $355 $514 reversed $221 $-1 #
edge $-1 $366 -6.4936258959602586 $516 6.4936258959602586 $365 $607 forward 7 unknown #
vertex $-1 $514 $608 #
straight-curve $-1 -58.003479110080264 -23.318754559923043 0 0 0 -1 I I #
edge $-1 $512 -23.318754559923043 $516 23.318754559923043 $510 $609 forward 7 unknown #
straight-curve $-1 0 -23.318754559923043 -6.4936258959602586 -1 0 0 I I #
vertex $-1 $358 $610 #
straight-curve $-1 0 23.318754559923043 -6.4936258959602586 1 0 0 I I #
point $-1 58.003479110080264 23.318754559923043 -6.4936258959602586 #
point $-1 58.003479110080264 -23.318754559923043 -6.4936258959602586 #
straight-curve $-1 -58.003479110080264 0 6.4936258959602586 0 -1 0 I I #
point $-1 -58.003479110080264 23.318754559923043 6.4936258959602586 #
point $-1 -58.003479110080264 -23.318754559923043 6.4936258959602586 #
straight-curve $-1 58.003479110080264 -23.318754559923043 0 0 0 -1 I I #
straight-curve $-1 58.003479110080264 23.318754559923043 0 0 0 -1 I I #
plane-surface $-1 0 0 6.4936258959602586 0 0 1 1 0 0 forward_v I I I I #
coedge $-1 $383 $538 $527 $611 forward $376 $-1 #
coedge $-1 $379 $378 $526 $611 reversed $145 $-1 #
edge $-1 $534 -1.5 $532 1.5 $378 $612 forward 7 unknown #
coedge $-1 $391 $390 $379 $530 forward $392 $-1 #
edge $-1 $531 -1.5 $613 1.5 $379 $614 forward 7 unknown #
vertex $-1 $395 $615 #
vertex $-1 $385 $616 #
straight-curve $-1 -48.01622731815975 -30.869085441307767 0 0 0 -1 I I #
vertex $-1 $611 $617 #
straight-curve $-1 -45.01622731815975 -27.093920000615405 -6.4936258959602586 0 -1 0 I I #
straight-curve $-1 -48.01622731815975 -27.093920000615405 -6.4936258959602586 0 1 0 I I #
point $-1 -45.01622731815975 -23.318754559923043 -6.4936258959602586 #
coedge $-1 $526 $388 $391 $540 reversed $376 $-1 #
straight-curve $-1 -45.01622731815975 -23.318754559923043 0 0 0 -1 I I #
edge $-1 $613 -3.775165440692362 $393 3.775165440692362 $538 $618 forward 7 unknown #
point $-1 -45.01622731815975 -23.318754559923043 6.4936258959602586 #
straight-curve $-1 -48.01622731815975 -27.093920000615405 6.4936258959602586 0 -1 0 I I #
plane-surface $-1 0 0 6.4936258959602586 0 0 1 1 0 0 forward_v I I I I #
coedge $-1 $403 $400 $405 $551 reversed $255 $-1 #
coedge $-1 $400 $403 $557 $619 reversed $255 $-1 #
edge $-1 $559 -6.4936258959602586 $553 6.4936258959602586 $417 $620 forward 7 unknown #
edge $-1 $548 -3.775165440692362 $415 3.775165440692362 $402 $621 forward 7 unknown #
vertex $-1 $619 $622 #
vertex $-1 $551 $623 #
straight-curve $-1 -48.01622731815975 30.869085441307767 0 0 0 -1 I I #
edge $-1 $549 -1.5 $553 1.5 $544 $624 forward 7 unknown #
straight-curve $-1 -48.01622731815975 27.093920000615405 -6.4936258959602586 0 1 0 I I #
vertex $-1 $407 $625 #
straight-curve $-1 -45.01622731815975 27.093920000615405 -6.4936258959602586 0 -1 0 I I #
point $-1 -48.01622731815975 23.318754559923043 -6.4936258959602586 #
straight-curve $-1 -48.01622731815975 23.318754559923043 0 0 0 -1 I I #
coedge $-1 $413 $412 $545 $619 forward $414 $-1 #
point $-1 -48.01622731815975 23.318754559923043 6.4936258959602586 #
vertex $-1 $418 $626 #
straight-curve $-1 -45.01622731815975 27.093920000615405 6.4936258959602586 0 1 0 I I #
coedge $-1 $432 $431 $424 $562 forward $421 $-1 #
edge $-1 $563 74.894855576730222 $566 81.073525239386669 $561 $627 forward 7 unknown #
vertex $-1 $436 $628 #
straight-curve $-1 17.585467329909676 -7.7964042438663466 6.493625895960264 1 0 0 I I #
edge $-1 $566 -5.8473031828997595 $433 1.9491010609665853 $432 $629 forward 7 unknown #
vertex $-1 $565 $630 #
straight-curve $-1 -34.643796471088763 -7.7964042438663466 70.129687364211932 -0.79863550430605224 0 0.6018150307709319 I I #
point $-1 49.804107692495407 -7.7964042438663466 6.4936258959602569 #
point $-1 58.003479110080264 -1.7763568394002505e-015 0.31495623330381761 #
straight-curve $-1 58.003479110080264 0 6.4936258959602586 0 1 0 I I #
vertex $-1 $439 $631 #
point $-1 53.007880726510713 -3.8982021219331706 0.55373469245698903 #
edge $-1 $574 74.894855576730222 $577 81.073525239386669 $444 $632 forward 7 unknown #
vertex $-1 $458 $633 #
straight-curve $-1 17.585467329909676 7.9720194346719726 6.493625895960264 1 0 0 I I #
edge $-1 $577 2.0369086563694001 $455 9.8333129002357449 $454 $634 forward 7 unknown #
vertex $-1 $576 $635 #
straight-curve $-1 -34.643796471088763 7.9720194346719726 70.129687364211932 -0.79863550430605224 0 0.6018150307709319 I I #
point $-1 49.804107692495407 7.9720194346719726 6.4936258959602569 #
point $-1 58.003479110080264 15.768423678538317 0.31495623330381761 #
straight-curve $-1 58.003479110080264 0 6.4936258959602586 0 1 0 I I #
vertex $-1 $461 $636 #
point $-1 53.007880726510713 11.870221556605152 0.55373469245698903 #
edge $-1 $585 39.987490011276172 $588 46.166159673932597 $466 $637 forward 7 unknown #
vertex $-1 $480 $638 #
straight-curve $-1 -63.909105120494196 -1.7763568394002505e-015 6.4936258959602569 -1 0 0 I I #
edge $-1 $588 -1.9491010609665853 $477 5.8473031828997595 $476 $639 forward 7 unknown #
vertex $-1 $587 $640 #
straight-curve $-1 -58.003479110080278 -1.7763568394002505e-015 0.31495623330381761 0.79863550430605224 0 0.6018150307709319 I I #
point $-1 -49.804107692495421 -1.7763568394002505e-015 6.4936258959602586 #
point $-1 -58.003479110080264 -7.7964042438663466 0.31495623330382833 #
straight-curve $-1 -58.003479110080264 0 6.4936258959602586 0 -1 0 I I #
vertex $-1 $483 $641 #
point $-1 -51.410609717898609 -3.8982021219331706 1.7573647539988413 #
coedge $-1 $498 $497 $490 $596 forward $487 $-1 #
edge $-1 $597 39.987490011276172 $600 46.166159673932597 $595 $642 forward 7 unknown #
vertex $-1 $502 $643 #
straight-curve $-1 -63.909105120494196 15.768423678538317 6.4936258959602569 -1 0 0 I I #
edge $-1 $600 -9.8333129002357449 $499 -2.0369086563694001 $498 $644 forward 7 unknown #
vertex $-1 $599 $645 #
straight-curve $-1 -58.003479110080278 15.768423678538317 0.31495623330381761 0.79863550430605224 0 0.6018150307709319 I I #
point $-1 -49.804107692495421 15.768423678538317 6.4936258959602586 #
point $-1 -58.003479110080264 7.9720194346719726 0.31495623330382833 #
straight-curve $-1 -58.003479110080264 0 6.4936258959602586 0 -1 0 I I #
vertex $-1 $505 $646 #
point $-1 -51.410609717898609 11.870221556605152 1.7573647539988413 #
straight-curve $-1 -58.003479110080264 23.318754559923043 0 0 0 -1 I I #
point $-1 -58.003479110080264 -23.318754559923043 -6.4936258959602586 #
straight-curve $-1 -58.003479110080264 0 -6.4936258959602586 0 1 0 I I #
point $-1 -58.003479110080264 23.318754559923043 -6.4936258959602586 #
edge $-1 $613 -6.4936258959602586 $534 6.4936258959602586 $526 $647 forward 7 unknown #
straight-curve $-1 -46.51622731815975 -30.869085441307767 -6.4936258959602586 -1 0 0 I I #
vertex $-1 $540 $648 #
straight-curve $-1 -46.51622731815975 -30.869085441307767 6.4936258959602586 1 0 0 I I #
point $-1 -48.01622731815975 -30.869085441307767 6.4936258959602586 #
point $-1 -48.01622731815975 -30.869085441307767 -6.4936258959602586 #
point $-1 -45.01622731815975 -30.869085441307767 -6.4936258959602586 #
straight-curve $-1 -45.01622731815975 -27.093920000615405 6.4936258959602586 0 1 0 I I #
edge $-1 $559 -1.5 $548 1.5 $545 $649 forward 7 unknown #
straight-curve $-1 -45.01622731815975 30.869085441307767 0 0 0 -1 I I #
straight-curve $-1 -48.01622731815975 27.093920000615405 6.4936258959602586 0 -1 0 I I #
point $-1 -48.01622731815975 30.869085441307767 6.4936258959602586 #
point $-1 -48.01622731815975 30.869085441307767 -6.4936258959602586 #
straight-curve $-1 -46.51622731815975 30.869085441307767 -6.4936258959602586 1 0 0 I I #
point $-1 -45.01622731815975 30.869085441307767 -6.4936258959602586 #
point $-1 -45.01622731815975 30.869085441307767 6.4936258959602586 #
straight-curve $-1 58.003479110080264 -7.7964042438663466 81.388481472690486 0 0 -1 I I #
point $-1 58.003479110080264 -7.7964042438663466 6.4936258959602586 #
straight-curve $-1 58.003479110080256 -1.9491010609665871 0.31495623330382472 0 1 0 I I #
point $-1 58.003479110080264 -7.7964042438663466 0.31495623330381761 #
point $-1 51.607430191433728 -3.8982021219331706 0.3569142189218687 #
straight-curve $-1 58.003479110080264 7.9720194346719726 81.388481472690486 0 0 -1 I I #
point $-1 58.003479110080264 7.9720194346719726 6.4936258959602586 #
straight-curve $-1 58.003479110080256 5.9351107783025725 0.31495623330382472 0 1 0 I I #
point $-1 58.003479110080264 7.9720194346719726 0.31495623330381761 #
point $-1 51.607430191433728 11.870221556605152 0.3569142189218687 #
straight-curve $-1 -58.003479110080264 -1.7763568394002505e-015 46.481115907236429 0 0 -1 I I #
point $-1 -58.003479110080264 -1.7763568394002505e-015 6.4936258959602586 #
straight-curve $-1 -58.003479110080264 -1.9491010609665871 0.31495623330382583 0 -1 0 I I #
point $-1 -58.003479110080264 -1.7763568394002505e-015 0.31495623330382833 #
point $-1 -51.607430191433728 -3.8982021219331706 0.35691421892185715 #
straight-curve $-1 -58.003479110080264 15.768423678538317 46.481115907236429 0 0 -1 I I #
point $-1 -58.003479110080264 15.768423678538317 6.4936258959602586 #
straight-curve $-1 -58.003479110080264 5.9351107783025725 0.31495623330382583 0 -1 0 I I #
point $-1 -58.003479110080264 15.768423678538317 0.31495623330382833 #
point $-1 -51.607430191433728 11.870221556605152 0.35691421892185715 #
straight-curve $-1 -45.01622731815975 -30.869085441307767 0 0 0 -1 I I #
point $-1 -45.01622731815975 -30.869085441307767 6.4936258959602586 #
straight-curve $-1 -46.51622731815975 30.869085441307767 6.4936258959602586 -1 0 0 I I #
End-of-ACIS-data 