500 0 4 0           
7 Unknown 11 ACIS 5.0 NT 24 Fri Mar 26 16:29:00 1999 
-1 9.9999999999999995e-007 1e-010 
body $-1 $4 $-1 $5 #
body $-1 $6 $-1 $7 #
body $-1 $8 $-1 $9 #
body $-1 $10 $-1 $11 #
lump $-1 $-1 $12 $0 #
transform $-1 1 0 0 0 1 0 0 0 1 68.453016754661704 37.994171444350485 13.988979216077825 1 rotate no_reflect no_shear #
lump $-1 $-1 $13 $1 #
transform $-1 1 0 0 0 1 0 0 0 1 68.453016754661704 37.994171444350485 13.988979216077825 1 rotate no_reflect no_shear #
lump $-1 $-1 $14 $2 #
transform $-1 1 0 0 0 1 0 0 0 1 68.453016754661704 37.994171444350485 13.988979216077825 1 rotate no_reflect no_shear #
lump $-1 $-1 $15 $3 #
transform $-1 1 0 0 0 1 0 0 0 1 68.453016754661704 37.994171444350485 13.988979216077825 1 rotate no_reflect no_shear #
shell $-1 $-1 $-1 $16 $-1 $4 #
shell $-1 $-1 $-1 $17 $-1 $6 #
shell $-1 $-1 $-1 $18 $-1 $8 #
shell $-1 $-1 $-1 $19 $-1 $10 #
face $-1 $20 $21 $12 $-1 $22 forward single #
face $-1 $23 $24 $13 $-1 $25 forward single #
face $-1 $26 $27 $14 $-1 $28 reversed single #
face $-1 $29 $30 $15 $-1 $31 forward single #
face $-1 $32 $33 $12 $-1 $34 reversed single #
loop $-1 $-1 $35 $16 #
plane-surface $-1 0 0 13.988979216077825 0 0 1 1 0 0 forward_v I I I I #
face $-1 $36 $37 $13 $-1 $38 reversed single #
loop $-1 $-1 $39 $17 #
plane-surface $-1 -61.177176486416499 0 1.2498993008152333 0 0 1 1 0 0 forward_v I I I I #
face $-1 $40 $41 $14 $-1 $42 reversed single #
loop $-1 $-1 $43 $18 #
plane-surface $-1 41.201382383769278 -152.81323341861011 79.141796109046282 1 0 0 0 0.83867057594974714 -0.54463902268945019 forward_v I I I I #
face $-1 $44 $45 $15 $-1 $46 forward single #
loop $-1 $47 $48 $19 #
cone-surface $-1 54.827199569215495 -33.455334547048878 8.3202161695668853 0 0.83867057594974714 -0.54463902268945019 1.5 0 0 1 I I 0 1 1.5 forward I I I I #
face $-1 $49 $50 $12 $-1 $51 reversed single #
loop $-1 $-1 $52 $20 #
plane-surface $-1 0 0 -13.988979216077825 0 0 1 1 0 0 forward_v I I I I #
coedge $-1 $53 $54 $55 $56 forward $21 $-1 #
face $-1 $57 $58 $13 $-1 $59 reversed single #
loop $-1 $-1 $60 $23 #
plane-surface $-1 -61.177176486416499 0 -3.4084260819879404 0 0 1 1 0 0 forward_v I I I I #
coedge $-1 $61 $62 $63 $64 forward $24 $-1 #
face $-1 $65 $66 $14 $-1 $67 forward single #
loop $-1 $-1 $68 $26 #
plane-surface $-1 54.827199569215495 -37.994171444350471 4.5774278182392578 0 -0.83867057594974714 0.54463902268945019 1 0 0 forward_v I I I I #
coedge $-1 $69 $70 $71 $72 reversed $27 $-1 #
face $-1 $-1 $73 $15 $-1 $74 forward single #
loop $-1 $75 $76 $29 #
cone-surface $-1 54.827199569215495 -31.343461090222387 6.9487495549581357 0 0.83867057594974714 -0.54463902268945019 0.75 0 0 1 I I -0.70710678118654757 0.70710678118654757 0.75 forward I I I I #
loop $-1 $-1 $77 $19 #
coedge $-1 $48 $48 $78 $79 reversed $30 $-1 #
face $-1 $80 $81 $12 $-1 $82 reversed single #
loop $-1 $-1 $83 $32 #
plane-surface $-1 0 -37.994171444350485 0 0 1 0 0 0 1 forward_v I I I I #
coedge $-1 $84 $85 $86 $87 forward $33 $-1 #
coedge $-1 $88 $35 $89 $90 forward $21 $-1 #
coedge $-1 $35 $88 $91 $92 forward $21 $-1 #
coedge $-1 $93 $94 $35 $56 reversed $95 $-1 #
edge $-1 $96 -37.994171444350485 $97 37.994171444350485 $55 $98 forward 7 unknown #
face $-1 $99 $100 $13 $-1 $101 reversed single #
loop $-1 $-1 $102 $36 #
plane-surface $-1 -53.901336218171295 0 -1.0792633905863536 -1 0 0 0 0 1 forward_v I I I I #
coedge $-1 $103 $104 $105 $106 forward $37 $-1 #
coedge $-1 $107 $39 $108 $109 reversed $24 $-1 #
coedge $-1 $39 $107 $110 $111 reversed $24 $-1 #
coedge $-1 $102 $112 $39 $64 reversed $58 $-1 #
edge $-1 $113 -37.994171444350485 $114 37.994171444350485 $63 $115 forward 7 unknown #
face $-1 $116 $117 $14 $-1 $118 reversed single #
loop $-1 $-1 $119 $40 #
plane-surface $-1 0 0 13.988979216077825 0 0 1 1 0 0 forward_v I I I I #
coedge $-1 $120 $121 $122 $123 reversed $41 $-1 #
coedge $-1 $70 $43 $124 $125 reversed $27 $-1 #
coedge $-1 $43 $69 $120 $126 reversed $27 $-1 #
coedge $-1 $122 $127 $43 $72 forward $117 $-1 #
edge $-1 $128 25.581918838445318 $129 34.993470236283905 $71 $130 forward 7 unknown #
loop $-1 $-1 $78 $44 #
plane-surface $-1 54.827199569215495 -37.994171444350471 4.5774278182392578 0 -0.83867057594974714 0.54463902268945019 1 0 0 forward_v I I I I #
loop $-1 $-1 $131 $29 #
coedge $-1 $76 $76 $77 $132 reversed $45 $-1 #
coedge $-1 $77 $77 $76 $132 forward $47 $-1 #
coedge $-1 $78 $78 $48 $79 forward $73 $-1 #
edge $-1 $133 1.792440980983453e-015 $133 6.2831853071796022 $78 $134 forward 7 unknown #
face $-1 $135 $136 $12 $-1 $137 reversed single #
loop $-1 $-1 $138 $49 #
plane-surface $-1 -68.453016754661704 0 0 1 0 0 0 0 -1 forward_v I I I I #
coedge $-1 $139 $91 $140 $141 forward $50 $-1 #
coedge $-1 $142 $52 $139 $143 forward $33 $-1 #
coedge $-1 $52 $142 $144 $145 forward $33 $-1 #
coedge $-1 $94 $93 $52 $87 reversed $95 $-1 #
edge $-1 $146 -37.994171444350485 $147 37.994171444350485 $86 $148 forward 7 unknown #
coedge $-1 $54 $53 $149 $150 forward $21 $-1 #
coedge $-1 $151 $152 $53 $90 reversed $136 $-1 #
edge $-1 $97 -68.453016754661704 $153 68.453016754661704 $89 $154 forward 7 unknown #
coedge $-1 $83 $155 $54 $92 reversed $50 $-1 #
edge $-1 $156 -68.453016754661704 $96 68.453016754661704 $91 $157 forward 7 unknown #
coedge $-1 $86 $55 $155 $158 forward $95 $-1 #
coedge $-1 $55 $86 $151 $159 reversed $95 $-1 #
loop $-1 $-1 $93 $135 #
vertex $-1 $56 $160 #
vertex $-1 $56 $161 #
straight-curve $-1 68.453016754661704 0 13.988979216077825 0 1 0 I I #
face $-1 $162 $163 $13 $-1 $164 reversed single #
loop $-1 $-1 $165 $57 #
plane-surface $-1 0 -37.994171444350485 0 0 1 0 0 0 1 forward_v I I I I #
coedge $-1 $105 $63 $166 $167 reversed $58 $-1 #
coedge $-1 $168 $60 $165 $169 reversed $37 $-1 #
coedge $-1 $60 $168 $170 $171 reversed $37 $-1 #
coedge $-1 $112 $102 $60 $106 reversed $58 $-1 #
edge $-1 $172 -37.994171444350485 $173 37.994171444350485 $105 $174 forward 7 unknown #
coedge $-1 $62 $61 $175 $176 reversed $24 $-1 #
coedge $-1 $177 $178 $61 $109 forward $179 $-1 #
edge $-1 $180 -37.864428511453454 $114 -23.312747974963045 $108 $181 forward 7 unknown #
coedge $-1 $182 $166 $62 $111 forward $100 $-1 #
edge $-1 $113 23.312747974963045 $183 37.864428511453454 $110 $184 forward 7 unknown #
coedge $-1 $63 $105 $177 $185 reversed $58 $-1 #
vertex $-1 $111 $186 #
vertex $-1 $109 $187 #
straight-curve $-1 -53.901336218171295 0 1.2498993008152333 0 1 0 I I #
face $-1 $-1 $188 $14 $-1 $189 reversed single #
loop $-1 $-1 $71 $65 #
plane-surface $-1 0 -37.994171444350485 0 0 1 0 0 0 1 forward_v I I I I #
coedge $-1 $124 $190 $191 $192 forward $66 $-1 #
coedge $-1 $191 $68 $70 $126 forward $41 $-1 #
coedge $-1 $68 $191 $193 $194 reversed $41 $-1 #
coedge $-1 $195 $71 $68 $123 forward $117 $-1 #
edge $-1 $129 13.787782599161531 $196 41.039416970053971 $122 $197 forward 7 unknown #
coedge $-1 $198 $119 $69 $125 forward $66 $-1 #
edge $-1 $199 -44.524378009829455 $128 -38.41244526495457 $124 $200 forward 7 unknown #
edge $-1 $129 -2.636201369357039e-014 $199 11.221988308318217 $70 $201 forward 7 unknown #
coedge $-1 $71 $195 $198 $202 reversed $117 $-1 #
vertex $-1 $202 $203 #
vertex $-1 $72 $204 #
straight-curve $-1 41.201382383769278 -37.994171444350485 39.570898054523141 0 0 -1 I I #
coedge $-1 $131 $131 $-1 $205 reversed $75 $-1 #
edge $-1 $206 0 $206 6.2831853071796004 $76 $207 forward 7 unknown #
vertex $-1 $79 $208 #
ellipse-curve $-1 54.827199569215495 -34.938205071913039 9.283203517158535 0 -0.83867057594974714 0.54463902268945019 1.5 0 0 1 I I #
face $-1 $-1 $95 $12 $-1 $209 reversed single #
loop $-1 $-1 $151 $80 #
plane-surface $-1 0 37.994171444350485 0 0 -1 0 0 0 -1 forward_v I I I I #
coedge $-1 $210 $149 $152 $211 forward $81 $-1 #
coedge $-1 $155 $83 $84 $143 reversed $50 $-1 #
coedge $-1 $149 $210 $83 $141 reversed $81 $-1 #
edge $-1 $156 -13.988979216077825 $212 13.988979216077825 $140 $213 forward 7 unknown #
coedge $-1 $85 $84 $210 $214 forward $33 $-1 #
edge $-1 $147 -68.453016754661704 $212 68.453016754661704 $139 $215 forward 7 unknown #
coedge $-1 $152 $151 $85 $145 reversed $136 $-1 #
edge $-1 $216 -68.453016754661704 $146 68.453016754661704 $144 $217 forward 7 unknown #
vertex $-1 $87 $218 #
vertex $-1 $158 $219 #
straight-curve $-1 68.453016754661704 0 -13.988979216077825 0 -1 0 I I #
coedge $-1 $138 $140 $88 $150 reversed $81 $-1 #
edge $-1 $153 -37.994171444350485 $156 37.994171444350485 $149 $220 forward 7 unknown #
coedge $-1 $144 $89 $94 $159 forward $136 $-1 #
coedge $-1 $89 $144 $138 $211 reversed $136 $-1 #
vertex $-1 $90 $221 #
straight-curve $-1 0 37.994171444350485 13.988979216077825 -1 0 0 I I #
coedge $-1 $91 $139 $93 $158 reversed $50 $-1 #
vertex $-1 $150 $222 #
straight-curve $-1 0 -37.994171444350485 13.988979216077825 1 0 0 I I #
edge $-1 $96 -13.988979216077825 $147 13.988979216077825 $93 $223 forward 7 unknown #
edge $-1 $97 -13.988979216077825 $146 13.988979216077825 $94 $224 forward 7 unknown #
point $-1 68.453016754661704 -37.994171444350485 13.988979216077825 #
point $-1 68.453016754661704 37.994171444350485 13.988979216077825 #
face $-1 $-1 $179 $13 $-1 $225 reversed single #
loop $-1 $-1 $226 $99 #
plane-surface $-1 -68.453016754661704 0 0 1 0 0 0 0 -1 forward_v I I I I #
coedge $-1 $166 $182 $103 $169 forward $100 $-1 #
coedge $-1 $110 $165 $102 $167 forward $100 $-1 #
edge $-1 $173 -2.8687943866947636 $113 1.78953099610841 $166 $227 forward 7 unknown #
coedge $-1 $104 $103 $226 $228 reversed $37 $-1 #
edge $-1 $229 -37.864428511453454 $173 -23.312747974963045 $165 $230 forward 7 unknown #
coedge $-1 $178 $177 $104 $171 forward $179 $-1 #
edge $-1 $172 23.312747974963045 $231 37.864428511453454 $170 $232 forward 7 unknown #
vertex $-1 $171 $233 #
vertex $-1 $169 $234 #
straight-curve $-1 -53.901336218171295 0 -3.4084260819879404 0 -1 0 I I #
coedge $-1 $235 $236 $107 $176 forward $163 $-1 #
edge $-1 $183 -37.994171444350485 $180 37.994171444350485 $175 $237 forward 7 unknown #
coedge $-1 $170 $108 $112 $185 forward $179 $-1 #
coedge $-1 $108 $170 $235 $238 reversed $179 $-1 #
loop $-1 $-1 $170 $162 #
vertex $-1 $238 $239 #
straight-curve $-1 -30.58858824320825 37.994171444350485 1.2498993008152333 1 0 0 I I #
coedge $-1 $165 $110 $236 $240 forward $100 $-1 #
vertex $-1 $240 $241 #
straight-curve $-1 -30.58858824320825 -37.994171444350485 1.2498993008152333 -1 0 0 I I #
edge $-1 $114 -1.78953099610841 $172 2.8687943866947636 $177 $242 forward 7 unknown #
point $-1 -53.901336218171295 -37.994171444350485 1.2498993008152333 #
point $-1 -53.901336218171295 37.994171444350485 1.2498993008152333 #
loop $-1 $-1 $193 $116 #
plane-surface $-1 68.453016754661704 0 0 -1 0 0 0 0 1 forward_v I I I I #
coedge $-1 $119 $198 $243 $244 forward $66 $-1 #
coedge $-1 $121 $120 $119 $192 reversed $41 $-1 #
edge $-1 $245 -41.039416970053971 $199 -13.787782599161531 $119 $246 forward 7 unknown #
coedge $-1 $243 $247 $121 $194 forward $188 $-1 #
edge $-1 $196 -8.4270771893276972 $245 2.7949111189905462 $193 $248 forward 7 unknown #
coedge $-1 $127 $122 $247 $249 reversed $117 $-1 #
vertex $-1 $123 $250 #
straight-curve $-1 27.413599784607747 -37.994171444350485 4.5774278182392356 1 0 0 I I #
coedge $-1 $190 $124 $127 $202 forward $66 $-1 #
vertex $-1 $125 $251 #
straight-curve $-1 41.201382383769278 -76.406616709305055 13.988979216077823 0 -1 0 I I #
straight-curve $-1 41.201382383769278 -37.994171444350471 4.5774278182392578 0 0.54463902268945019 0.83867057594974714 I I #
edge $-1 $128 41.201382383769278 $252 68.453016754661704 $127 $253 forward 7 unknown #
point $-1 41.201382383769278 -37.994171444350485 13.988979216077825 #
point $-1 41.201382383769278 -37.994171444350485 4.5774278182392356 #
edge $-1 $254 1 $254 0 $131 $-1 forward 7 unknown #
vertex $-1 $132 $255 #
ellipse-curve $-1 54.827199569215495 -31.972464022184699 7.3572288219752231 0 -0.83867057594974714 0.54463902268945019 1.5 0 0 1 I I #
point $-1 56.327199569215495 -34.938205071913053 9.2832035171585474 #
plane-surface $-1 68.453016754661704 0 0 -1 0 0 0 0 1 forward_v I I I I #
coedge $-1 $140 $138 $142 $214 reversed $81 $-1 #
edge $-1 $153 -13.988979216077825 $216 13.988979216077825 $152 $256 forward 7 unknown #
vertex $-1 $214 $257 #
straight-curve $-1 -68.453016754661704 -37.994171444350485 0 0 0 -1 I I #
edge $-1 $212 -37.994171444350485 $216 37.994171444350485 $210 $258 forward 7 unknown #
straight-curve $-1 0 -37.994171444350485 -13.988979216077825 -1 0 0 I I #
vertex $-1 $145 $259 #
straight-curve $-1 0 37.994171444350485 -13.988979216077825 1 0 0 I I #
point $-1 68.453016754661704 37.994171444350485 -13.988979216077825 #
point $-1 68.453016754661704 -37.994171444350485 -13.988979216077825 #
straight-curve $-1 -68.453016754661704 0 13.988979216077825 0 -1 0 I I #
point $-1 -68.453016754661704 37.994171444350485 13.988979216077825 #
point $-1 -68.453016754661704 -37.994171444350485 13.988979216077825 #
straight-curve $-1 68.453016754661704 -37.994171444350485 0 0 0 -1 I I #
straight-curve $-1 68.453016754661704 37.994171444350485 0 0 0 -1 I I #
plane-surface $-1 0 37.994171444350485 0 0 -1 0 0 0 -1 forward_v I I I I #
coedge $-1 $236 $235 $168 $228 forward $163 $-1 #
straight-curve $-1 -53.901336218171295 -37.994171444350485 -0.53963169529317678 0 0 1 I I #
edge $-1 $231 -37.994171444350485 $229 37.994171444350485 $226 $260 forward 7 unknown #
vertex $-1 $169 $261 #
straight-curve $-1 -30.58858824320825 -37.994171444350485 -3.4084260819879404 1 0 0 I I #
vertex $-1 $171 $262 #
straight-curve $-1 -30.58858824320825 37.994171444350485 -3.4084260819879404 -1 0 0 I I #
point $-1 -53.901336218171295 37.994171444350485 -3.4084260819879404 #
point $-1 -53.901336218171295 -37.994171444350485 -3.4084260819879404 #
coedge $-1 $226 $175 $178 $238 forward $163 $-1 #
coedge $-1 $175 $226 $182 $240 reversed $163 $-1 #
straight-curve $-1 -68.453016754661704 0 1.2498993008152333 0 1 0 I I #
edge $-1 $180 -1.2498993008152333 $231 3.4084260819879404 $178 $263 forward 7 unknown #
point $-1 -68.453016754661704 37.994171444350485 1.2498993008152333 #
edge $-1 $183 -1.2498993008152333 $229 3.4084260819879404 $236 $264 forward 7 unknown #
point $-1 -68.453016754661704 -37.994171444350485 1.2498993008152333 #
straight-curve $-1 -53.901336218171295 37.994171444350485 -0.53963169529317678 0 0 -1 I I #
coedge $-1 $247 $193 $190 $244 reversed $188 $-1 #
edge $-1 $252 -37.994171444350485 $245 -31.8822386994756 $243 $265 forward 7 unknown #
vertex $-1 $194 $266 #
straight-curve $-1 27.413599784607747 -31.882238699475597 13.988979216077825 -1 0 0 I I #
coedge $-1 $193 $243 $195 $249 forward $188 $-1 #
straight-curve $-1 68.453016754661704 -33.40445635982649 11.644969498185672 0 0.54463902268945019 0.83867057594974714 I I #
edge $-1 $252 -13.988979216077825 $196 -4.5774278182392356 $247 $267 forward 7 unknown #
point $-1 68.453016754661718 -37.994171444350485 4.5774278182392356 #
point $-1 41.201382383769278 -31.8822386994756 13.988979216077825 #
vertex $-1 $244 $268 #
straight-curve $-1 0 -37.994171444350485 13.988979216077825 1 0 0 I I #
vertex $-1 $205 $269 #
point $-1 56.327199569215495 -31.972464022184699 7.3572288219752231 #
straight-curve $-1 -68.453016754661704 37.994171444350485 0 0 0 -1 I I #
point $-1 -68.453016754661704 -37.994171444350485 -13.988979216077825 #
straight-curve $-1 -68.453016754661704 0 -13.988979216077825 0 1 0 I I #
point $-1 -68.453016754661704 37.994171444350485 -13.988979216077825 #
straight-curve $-1 -68.453016754661704 0 -3.4084260819879404 0 -1 0 I I #
point $-1 -68.453016754661704 -37.994171444350485 -3.4084260819879404 #
point $-1 -68.453016754661704 37.994171444350485 -3.4084260819879404 #
straight-curve $-1 -68.453016754661704 37.994171444350485 0 0 0 -1 I I #
straight-curve $-1 -68.453016754661704 -37.994171444350485 0 0 0 -1 I I #
straight-curve $-1 68.453016754661704 0 13.988979216077825 0 1 0 I I #
point $-1 68.453016754661718 -31.8822386994756 13.988979216077825 #
straight-curve $-1 68.453016754661704 -37.994171444350485 0 0 0 -1 I I #
point $-1 68.453016754661704 -37.994171444350485 13.988979216077825 #
point $-1 54.827199569215495 -30.714458158260076 6.5402702879410484 #
End-of-ACIS-data 