500 0 9 0           
7 Unknown 11 ACIS 5.0 NT 24 Thu Mar 25 17:27:32 1999 
-1 9.9999999999999995e-007 1e-010 
body $-1 $9 $-1 $10 #
body $-1 $11 $-1 $12 #
body $-1 $13 $-1 $14 #
body $-1 $15 $-1 $16 #
body $-1 $17 $-1 $18 #
body $-1 $19 $-1 $20 #
body $-1 $21 $-1 $22 #
body $-1 $23 $-1 $24 #
body $-1 $25 $-1 $26 #
lump $-1 $-1 $27 $0 #
transform $-1 1 0 0 0 1 0 0 0 1 59.503769035920286 35.881134105961429 7.9557848939494482 1 rotate no_reflect no_shear #
lump $-1 $-1 $28 $1 #
transform $-1 1 0 0 0 1 0 0 0 1 59.503769035920286 35.881134105961429 7.9557848939494482 1 rotate no_reflect no_shear #
lump $-1 $-1 $29 $2 #
transform $-1 1 0 0 0 1 0 0 0 1 59.503769035920286 35.881134105961429 7.9557848939494482 1 rotate no_reflect no_shear #
lump $-1 $-1 $30 $3 #
transform $-1 1 0 0 0 1 0 0 0 1 59.503769035920286 35.881134105961429 7.9557848939494482 1 rotate no_reflect no_shear #
lump $-1 $-1 $31 $4 #
transform $-1 1 0 0 0 1 0 0 0 1 59.503769035920286 35.881134105961429 7.9557848939494482 1 rotate no_reflect no_shear #
lump $-1 $-1 $32 $5 #
transform $-1 1 0 0 0 1 0 0 0 1 59.503769035920286 35.881134105961429 7.9557848939494482 1 rotate no_reflect no_shear #
lump $-1 $-1 $33 $6 #
transform $-1 1 0 0 0 1 0 0 0 1 59.503769035920286 35.881134105961429 7.9557848939494482 1 rotate no_reflect no_shear #
lump $-1 $-1 $34 $7 #
transform $-1 1 0 0 0 1 0 0 0 1 59.503769035920286 35.881134105961429 7.9557848939494482 1 rotate no_reflect no_shear #
lump $-1 $-1 $35 $8 #
transform $-1 1 0 0 0 1 0 0 0 1 59.503769035920286 35.881134105961429 7.9557848939494482 1 rotate no_reflect no_shear #
shell $-1 $-1 $-1 $36 $-1 $9 #
shell $-1 $-1 $-1 $37 $-1 $11 #
shell $-1 $-1 $-1 $38 $-1 $13 #
shell $-1 $-1 $-1 $39 $-1 $15 #
shell $-1 $-1 $-1 $40 $-1 $17 #
shell $-1 $-1 $-1 $41 $-1 $19 #
shell $-1 $-1 $-1 $42 $-1 $21 #
shell $-1 $-1 $-1 $43 $-1 $23 #
shell $-1 $-1 $-1 $44 $-1 $25 #
face $-1 $45 $46 $27 $-1 $47 forward single #
face $-1 $48 $49 $28 $-1 $50 forward single #
face $-1 $51 $52 $29 $-1 $53 reversed single #
face $-1 $54 $55 $30 $-1 $56 forward single #
face $-1 $57 $58 $31 $-1 $59 forward single #
face $-1 $60 $61 $32 $-1 $62 reversed single #
face $-1 $63 $64 $33 $-1 $65 forward single #
face $-1 $66 $67 $34 $-1 $68 forward single #
face $-1 $69 $70 $35 $-1 $71 forward single #
face $-1 $72 $73 $27 $-1 $74 reversed single #
loop $-1 $-1 $75 $36 #
plane-surface $-1 0 0 7.9557848939494482 0 0 1 1 0 0 forward_v I I I I #
face $-1 $76 $77 $28 $-1 $78 reversed single #
loop $-1 $-1 $79 $37 #
plane-surface $-1 -55.741486687566891 0 -4.4557848939494482 0 0 1 1 0 0 forward_v I I I I #
face $-1 $80 $81 $29 $-1 $82 reversed single #
loop $-1 $-1 $83 $38 #
plane-surface $-1 31.986353942663513 -115.51272117496626 89.124361828043945 1 0 0 0 0.66913061440640931 -0.74314481823134659 forward_v I I I I #
face $-1 $84 $85 $30 $-1 $86 forward single #
loop $-1 $87 $88 $39 #
cone-surface $-1 39.848472540736878 -30.927528925058976 3.303023468831249 0 0.66913061440640931 -0.74314481823134659 1.5 0 0 1 I I 0 1 1.5 forward I I I I #
face $-1 $89 $90 $31 $-1 $91 forward single #
loop $-1 $92 $93 $40 #
cone-surface $-1 51.64165043784692 -30.927528925058976 3.303023468831249 0 0.66913061440640931 -0.74314481823134659 1.5 0 0 1 I I 0 1 1.5 forward I I I I #
face $-1 $94 $95 $32 $-1 $96 reversed single #
loop $-1 $-1 $97 $41 #
plane-surface $-1 -41.304182532821478 69.28858636801948 138.97803758078223 1 0 0 0 -0.70710678939079041 -0.70710677298230451 forward_v I I I I #
face $-1 $98 $99 $33 $-1 $100 forward single #
loop $-1 $101 $102 $42 #
cone-surface $-1 -34.984012819356224 33.192858876846707 5.267509637357656 0 -0.70710678939079041 -0.70710677298230451 1 0 0 1 I I 0 1 1 forward I I I I #
face $-1 $103 $104 $34 $-1 $105 forward single #
loop $-1 $106 $107 $43 #
cone-surface $-1 -25.503758249158345 33.192858876846707 5.267509637357656 0 -0.70710678939079041 -0.70710677298230451 1 0 0 1 I I 0 1 1 forward I I I I #
face $-1 $108 $109 $35 $-1 $110 forward single #
loop $-1 $111 $112 $44 #
cone-surface $-1 -16.023503678960466 33.192858876846707 5.267509637357656 0 -0.70710678939079041 -0.70710677298230451 1 0 0 1 I I 0 1 1 forward I I I I #
face $-1 $113 $114 $27 $-1 $115 reversed single #
loop $-1 $-1 $116 $45 #
plane-surface $-1 0 0 -7.9557848939494482 0 0 1 1 0 0 forward_v I I I I #
coedge $-1 $117 $118 $119 $120 forward $46 $-1 #
face $-1 $121 $122 $28 $-1 $123 reversed single #
loop $-1 $-1 $124 $48 #
plane-surface $-1 -55.741486687566891 0 -7.4557848939494482 0 0 1 1 0 0 forward_v I I I I #
coedge $-1 $125 $126 $127 $128 forward $49 $-1 #
face $-1 $129 $130 $29 $-1 $131 forward single #
loop $-1 $-1 $132 $51 #
plane-surface $-1 45.745061489291899 -35.881134105961436 0.68452657948591877 0 -0.66913061440640931 0.74314481823134659 1 0 0 forward_v I I I I #
coedge $-1 $133 $134 $135 $136 reversed $52 $-1 #
face $-1 $-1 $137 $30 $-1 $138 forward single #
loop $-1 $139 $140 $54 #
cone-surface $-1 39.848472540736878 -29.509850936718994 1.7285325872713022 0 0.66913061440640931 -0.74314481823134659 0.75 0 0 1 I I -0.70710678118654757 0.70710678118654757 0.75 forward I I I I #
loop $-1 $-1 $141 $39 #
coedge $-1 $88 $88 $142 $143 reversed $55 $-1 #
face $-1 $-1 $144 $31 $-1 $145 forward single #
loop $-1 $146 $147 $57 #
cone-surface $-1 51.64165043784692 -29.509850936718994 1.7285325872713022 0 0.66913061440640931 -0.74314481823134659 0.75 0 0 1 I I -0.70710678118654757 0.70710678118654757 0.75 forward I I I I #
loop $-1 $-1 $148 $40 #
coedge $-1 $93 $93 $149 $150 reversed $58 $-1 #
face $-1 $151 $152 $32 $-1 $153 reversed single #
loop $-1 $-1 $154 $60 #
plane-surface $-1 -25.503758249158345 -14.862451791261961 54.8270013742343 0 0.70710678939079041 0.70710677298230451 1 0 0 forward_v I I I I #
coedge $-1 $155 $156 $157 $158 reversed $61 $-1 #
face $-1 $-1 $159 $33 $-1 $160 forward single #
loop $-1 $161 $162 $63 #
cone-surface $-1 -34.984012819356224 32.08721550533155 4.1618662914990674 0 -0.70710678939079041 -0.70710677298230451 0.5 0 0 1 I I -0.70710678118654746 0.70710678118654746 0.5 forward I I I I #
loop $-1 $-1 $163 $42 #
coedge $-1 $102 $102 $164 $165 reversed $64 $-1 #
face $-1 $-1 $166 $34 $-1 $167 forward single #
loop $-1 $168 $169 $66 #
cone-surface $-1 -25.503758249158345 32.08721550533155 4.1618662914990674 0 -0.70710678939079041 -0.70710677298230451 0.5 0 0 1 I I -0.70710678118654746 0.70710678118654746 0.5 forward I I I I #
loop $-1 $-1 $170 $43 #
coedge $-1 $107 $107 $171 $172 reversed $67 $-1 #
face $-1 $-1 $173 $35 $-1 $174 forward single #
loop $-1 $175 $176 $69 #
cone-surface $-1 -16.023503678960466 32.08721550533155 4.1618662914990674 0 -0.70710678939079041 -0.70710677298230451 0.5 0 0 1 I I -0.70710678118654746 0.70710678118654746 0.5 forward I I I I #
loop $-1 $-1 $177 $44 #
coedge $-1 $112 $112 $178 $179 reversed $70 $-1 #
face $-1 $180 $181 $27 $-1 $182 reversed single #
loop $-1 $-1 $183 $72 #
plane-surface $-1 0 -35.881134105961429 0 0 1 0 0 0 1 forward_v I I I I #
coedge $-1 $184 $185 $186 $187 forward $73 $-1 #
coedge $-1 $188 $75 $189 $190 forward $46 $-1 #
coedge $-1 $75 $188 $191 $192 forward $46 $-1 #
coedge $-1 $193 $194 $75 $120 reversed $195 $-1 #
edge $-1 $196 -35.881134105961429 $197 35.881134105961429 $119 $198 forward 7 unknown #
face $-1 $199 $200 $28 $-1 $201 reversed single #
loop $-1 $-1 $202 $76 #
plane-surface $-1 -51.979204339213496 0 -5.9557848939494482 -1 0 0 0 0 1 forward_v I I I I #
coedge $-1 $203 $204 $205 $206 forward $77 $-1 #
coedge $-1 $207 $79 $208 $209 reversed $49 $-1 #
coedge $-1 $79 $207 $210 $211 reversed $49 $-1 #
coedge $-1 $202 $212 $79 $128 reversed $122 $-1 #
edge $-1 $213 -35.881134105961429 $214 35.881134105961429 $127 $215 forward 7 unknown #
face $-1 $216 $217 $29 $-1 $218 reversed single #
loop $-1 $-1 $219 $80 #
plane-surface $-1 0 0 7.9557848939494482 0 0 1 1 0 0 forward_v I I I I #
coedge $-1 $220 $221 $222 $223 reversed $81 $-1 #
coedge $-1 $134 $83 $224 $225 reversed $52 $-1 #
coedge $-1 $83 $133 $220 $226 reversed $52 $-1 #
coedge $-1 $222 $227 $83 $136 forward $217 $-1 #
edge $-1 $228 36.606396020072523 $229 43.877654334536047 $135 $230 forward 7 unknown #
loop $-1 $-1 $142 $84 #
plane-surface $-1 45.745061489291899 -35.881134105961436 0.68452657948591877 0 -0.66913061440640931 0.74314481823134659 1 0 0 forward_v I I I I #
loop $-1 $-1 $231 $54 #
coedge $-1 $140 $140 $141 $232 reversed $85 $-1 #
coedge $-1 $141 $141 $140 $232 forward $87 $-1 #
coedge $-1 $142 $142 $88 $143 forward $137 $-1 #
edge $-1 $233 1.3639155929225055e-015 $233 6.2831853071796022 $142 $234 forward 7 unknown #
loop $-1 $-1 $149 $89 #
plane-surface $-1 45.745061489291899 -35.881134105961436 0.68452657948591877 0 -0.66913061440640931 0.74314481823134659 1 0 0 forward_v I I I I #
loop $-1 $-1 $235 $57 #
coedge $-1 $147 $147 $148 $236 reversed $90 $-1 #
coedge $-1 $148 $148 $147 $236 forward $92 $-1 #
coedge $-1 $149 $149 $93 $150 forward $144 $-1 #
edge $-1 $237 1.3639155929225055e-015 $237 6.2831853071796022 $149 $238 forward 7 unknown #
face $-1 $239 $240 $32 $-1 $241 reversed single #
loop $-1 $-1 $242 $94 #
plane-surface $-1 -9.7033339654952098 69.28858636801948 138.97803758078223 -1 0 0 0 0.70710678939079041 0.70710677298230451 forward_v I I I I #
coedge $-1 $243 $244 $245 $246 reversed $95 $-1 #
coedge $-1 $156 $97 $247 $248 reversed $61 $-1 #
coedge $-1 $97 $155 $243 $249 reversed $61 $-1 #
coedge $-1 $245 $250 $97 $158 forward $251 $-1 #
edge $-1 $252 -1.2368409219516892 $253 2.6355295826382559 $157 $254 forward 7 unknown #
loop $-1 $-1 $164 $98 #
plane-surface $-1 -25.503758249158345 -14.862451791261961 54.8270013742343 0 0.70710678939079041 0.70710677298230451 1 0 0 forward_v I I I I #
loop $-1 $-1 $255 $63 #
coedge $-1 $162 $162 $163 $256 reversed $99 $-1 #
coedge $-1 $163 $163 $162 $256 forward $101 $-1 #
coedge $-1 $164 $164 $102 $165 forward $159 $-1 #
edge $-1 $257 -6.2803699076034151e-016 $257 6.2831853071795996 $164 $258 forward 7 unknown #
loop $-1 $-1 $171 $103 #
plane-surface $-1 -25.503758249158345 -14.862451791261961 54.8270013742343 0 0.70710678939079041 0.70710677298230451 1 0 0 forward_v I I I I #
loop $-1 $-1 $259 $66 #
coedge $-1 $169 $169 $170 $260 reversed $104 $-1 #
coedge $-1 $170 $170 $169 $260 forward $106 $-1 #
coedge $-1 $171 $171 $107 $172 forward $166 $-1 #
edge $-1 $261 -6.2803699076034151e-016 $261 6.2831853071795996 $171 $262 forward 7 unknown #
loop $-1 $-1 $178 $108 #
plane-surface $-1 -25.503758249158345 -14.862451791261961 54.8270013742343 0 0.70710678939079041 0.70710677298230451 1 0 0 forward_v I I I I #
loop $-1 $-1 $263 $69 #
coedge $-1 $176 $176 $177 $264 reversed $109 $-1 #
coedge $-1 $177 $177 $176 $264 forward $111 $-1 #
coedge $-1 $178 $178 $112 $179 forward $173 $-1 #
edge $-1 $265 -6.2803699076034151e-016 $265 6.2831853071795996 $178 $266 forward 7 unknown #
face $-1 $267 $268 $27 $-1 $269 reversed single #
loop $-1 $-1 $270 $113 #
plane-surface $-1 -59.503769035920286 0 0 1 0 0 0 0 -1 forward_v I I I I #
coedge $-1 $271 $191 $272 $273 forward $114 $-1 #
coedge $-1 $274 $116 $271 $275 forward $73 $-1 #
coedge $-1 $116 $274 $276 $277 forward $73 $-1 #
coedge $-1 $194 $193 $116 $187 reversed $195 $-1 #
edge $-1 $278 -35.881134105961429 $279 35.881134105961429 $186 $280 forward 7 unknown #
coedge $-1 $118 $117 $281 $282 forward $46 $-1 #
coedge $-1 $283 $284 $117 $190 reversed $268 $-1 #
edge $-1 $197 -59.503769035920286 $285 59.503769035920286 $189 $286 forward 7 unknown #
coedge $-1 $183 $287 $118 $192 reversed $114 $-1 #
edge $-1 $288 -59.503769035920286 $196 59.503769035920286 $191 $289 forward 7 unknown #
coedge $-1 $186 $119 $287 $290 forward $195 $-1 #
coedge $-1 $119 $186 $283 $291 reversed $195 $-1 #
loop $-1 $-1 $193 $267 #
vertex $-1 $120 $292 #
vertex $-1 $120 $293 #
straight-curve $-1 59.503769035920286 0 7.9557848939494482 0 1 0 I I #
face $-1 $294 $295 $28 $-1 $296 reversed single #
loop $-1 $-1 $297 $121 #
plane-surface $-1 0 -35.881134105961429 0 0 1 0 0 0 1 forward_v I I I I #
coedge $-1 $205 $127 $298 $299 reversed $122 $-1 #
coedge $-1 $300 $124 $297 $301 reversed $77 $-1 #
coedge $-1 $124 $300 $302 $303 reversed $77 $-1 #
coedge $-1 $212 $202 $124 $206 reversed $122 $-1 #
edge $-1 $304 -35.881134105961429 $305 35.881134105961429 $205 $306 forward 7 unknown #
coedge $-1 $126 $125 $307 $308 reversed $49 $-1 #
coedge $-1 $309 $310 $125 $209 forward $311 $-1 #
edge $-1 $312 -31.63302569213684 $214 -24.10846099543005 $208 $313 forward 7 unknown #
coedge $-1 $314 $298 $126 $211 forward $200 $-1 #
edge $-1 $213 24.10846099543005 $315 31.63302569213684 $210 $316 forward 7 unknown #
coedge $-1 $127 $205 $309 $317 reversed $122 $-1 #
vertex $-1 $211 $318 #
vertex $-1 $209 $319 #
straight-curve $-1 -51.979204339213496 0 -4.4557848939494482 0 1 0 I I #
face $-1 $-1 $320 $29 $-1 $321 reversed single #
loop $-1 $-1 $135 $129 #
plane-surface $-1 0 -35.881134105961429 0 0 1 0 0 0 1 forward_v I I I I #
coedge $-1 $224 $322 $323 $324 forward $130 $-1 #
coedge $-1 $323 $132 $134 $226 forward $81 $-1 #
coedge $-1 $132 $323 $325 $326 reversed $81 $-1 #
coedge $-1 $327 $135 $132 $223 forward $217 $-1 #
edge $-1 $229 9.1138231980175632 $328 36.631238291274336 $222 $329 forward 7 unknown #
coedge $-1 $330 $219 $133 $225 forward $130 $-1 #
edge $-1 $331 -29.95077678825626 $228 -21.8752264815217 $224 $332 forward 7 unknown #
edge $-1 $229 9.5890899667747578e-015 $331 10.866724908281048 $134 $333 forward 7 unknown #
coedge $-1 $135 $327 $330 $334 reversed $217 $-1 #
vertex $-1 $334 $335 #
vertex $-1 $136 $336 #
straight-curve $-1 31.986353942663513 -35.881134105961429 44.562180914021972 0 0 -1 I I #
coedge $-1 $231 $231 $-1 $337 reversed $139 $-1 #
edge $-1 $338 0 $338 6.2831853071796004 $140 $339 forward 7 unknown #
vertex $-1 $143 $340 #
ellipse-curve $-1 39.848472540736878 -31.843358952594151 4.3201557367176866 0 -0.66913061440640931 0.74314481823134659 1.5 0 0 1 I I #
coedge $-1 $235 $235 $-1 $341 reversed $146 $-1 #
edge $-1 $342 0 $342 6.2831853071796004 $147 $343 forward 7 unknown #
vertex $-1 $150 $344 #
ellipse-curve $-1 51.64165043784692 -31.843358952594151 4.3201557367176866 0 -0.66913061440640931 0.74314481823134659 1.5 0 0 1 I I #
face $-1 $-1 $251 $32 $-1 $345 forward single #
loop $-1 $-1 $346 $151 #
plane-surface $-1 0 35.881134105961429 0 0 -1 0 0 0 -1 forward_v I I I I #
coedge $-1 $347 $348 $349 $350 reversed $152 $-1 #
coedge $-1 $351 $154 $156 $249 forward $95 $-1 #
coedge $-1 $154 $351 $347 $352 forward $95 $-1 #
coedge $-1 $349 $157 $154 $246 forward $251 $-1 #
edge $-1 $253 -28.552303408242306 $353 3.0485451590839627 $245 $354 forward 7 unknown #
coedge $-1 $355 $356 $155 $248 forward $240 $-1 #
edge $-1 $357 -65.405604490890369 $252 -61.533233896441665 $247 $358 forward 7 unknown #
edge $-1 $253 66.2859092622585 $357 71.762268211922887 $156 $359 forward 7 unknown #
coedge $-1 $157 $349 $355 $360 forward $251 $-1 #
loop $-1 $-1 $349 $239 #
vertex $-1 $248 $361 #
vertex $-1 $158 $362 #
straight-curve $-1 -41.304182532821478 34.64429318400974 7.955784893949442 0 -1 0 I I #
coedge $-1 $255 $255 $-1 $363 reversed $161 $-1 #
edge $-1 $364 0 $364 6.2831853071796004 $162 $365 forward 7 unknown #
vertex $-1 $165 $366 #
ellipse-curve $-1 -34.984012819356224 33.944948853666467 6.019599596725091 0 0.70710678939079041 0.70710677298230451 1 0 0 1 I I #
coedge $-1 $259 $259 $-1 $367 reversed $168 $-1 #
edge $-1 $368 0 $368 6.2831853071796004 $169 $369 forward 7 unknown #
vertex $-1 $172 $370 #
ellipse-curve $-1 -25.503758249158345 33.944948853666467 6.019599596725091 0 0.70710678939079041 0.70710677298230451 1 0 0 1 I I #
coedge $-1 $263 $263 $-1 $371 reversed $175 $-1 #
edge $-1 $372 0 $372 6.2831853071796004 $176 $373 forward 7 unknown #
vertex $-1 $179 $374 #
ellipse-curve $-1 -16.023503678960466 33.944948853666467 6.019599596725091 0 0.70710678939079041 0.70710677298230451 1 0 0 1 I I #
face $-1 $-1 $195 $27 $-1 $375 reversed single #
loop $-1 $-1 $283 $180 #
plane-surface $-1 0 35.881134105961429 0 0 -1 0 0 0 -1 forward_v I I I I #
coedge $-1 $376 $281 $284 $377 forward $181 $-1 #
coedge $-1 $287 $183 $184 $275 reversed $114 $-1 #
coedge $-1 $281 $376 $183 $273 reversed $181 $-1 #
edge $-1 $288 -7.9557848939494482 $378 7.9557848939494482 $272 $379 forward 7 unknown #
coedge $-1 $185 $184 $376 $380 forward $73 $-1 #
edge $-1 $279 -59.503769035920286 $378 59.503769035920286 $271 $381 forward 7 unknown #
coedge $-1 $284 $283 $185 $277 reversed $268 $-1 #
edge $-1 $382 -59.503769035920286 $278 59.503769035920286 $276 $383 forward 7 unknown #
vertex $-1 $187 $384 #
vertex $-1 $290 $385 #
straight-curve $-1 59.503769035920286 0 -7.9557848939494482 0 -1 0 I I #
coedge $-1 $270 $272 $188 $282 reversed $181 $-1 #
edge $-1 $285 -35.881134105961429 $288 35.881134105961429 $281 $386 forward 7 unknown #
coedge $-1 $276 $189 $194 $291 forward $268 $-1 #
coedge $-1 $189 $276 $270 $377 reversed $268 $-1 #
vertex $-1 $190 $387 #
straight-curve $-1 0 35.881134105961429 7.9557848939494482 -1 0 0 I I #
coedge $-1 $191 $271 $193 $290 reversed $114 $-1 #
vertex $-1 $282 $388 #
straight-curve $-1 0 -35.881134105961429 7.9557848939494482 1 0 0 I I #
edge $-1 $196 -7.9557848939494482 $279 7.9557848939494482 $193 $389 forward 7 unknown #
edge $-1 $197 -7.9557848939494482 $278 7.9557848939494482 $194 $390 forward 7 unknown #
point $-1 59.503769035920286 -35.881134105961429 7.9557848939494482 #
point $-1 59.503769035920286 35.881134105961429 7.9557848939494482 #
face $-1 $-1 $311 $28 $-1 $391 reversed single #
loop $-1 $-1 $392 $199 #
plane-surface $-1 -59.503769035920286 0 0 1 0 0 0 0 -1 forward_v I I I I #
coedge $-1 $298 $314 $203 $301 forward $200 $-1 #
coedge $-1 $210 $297 $202 $299 forward $200 $-1 #
edge $-1 $305 -4.4778924469747245 $213 -1.4778924469747241 $298 $393 forward 7 unknown #
coedge $-1 $204 $203 $392 $394 reversed $77 $-1 #
edge $-1 $395 -31.63302569213684 $305 -24.10846099543005 $297 $396 forward 7 unknown #
coedge $-1 $310 $309 $204 $303 forward $311 $-1 #
edge $-1 $304 24.10846099543005 $397 31.63302569213684 $302 $398 forward 7 unknown #
vertex $-1 $303 $399 #
vertex $-1 $301 $400 #
straight-curve $-1 -51.979204339213496 0 -7.4557848939494482 0 -1 0 I I #
coedge $-1 $401 $402 $207 $308 forward $295 $-1 #
edge $-1 $315 -35.881134105961429 $312 35.881134105961429 $307 $403 forward 7 unknown #
coedge $-1 $302 $208 $212 $317 forward $311 $-1 #
coedge $-1 $208 $302 $401 $404 reversed $311 $-1 #
loop $-1 $-1 $302 $294 #
vertex $-1 $404 $405 #
straight-curve $-1 -27.870743343783445 35.881134105961429 -4.4557848939494482 1 0 0 I I #
coedge $-1 $297 $210 $402 $406 forward $200 $-1 #
vertex $-1 $406 $407 #
straight-curve $-1 -27.870743343783445 -35.881134105961429 -4.4557848939494482 -1 0 0 I I #
edge $-1 $214 1.4778924469747241 $304 4.4778924469747245 $309 $408 forward 7 unknown #
point $-1 -51.979204339213496 -35.881134105961429 -4.4557848939494482 #
point $-1 -51.979204339213496 35.881134105961429 -4.4557848939494482 #
loop $-1 $-1 $325 $216 #
plane-surface $-1 59.503769035920286 0 0 -1 0 0 0 0 1 forward_v I I I I #
coedge $-1 $219 $330 $409 $410 forward $130 $-1 #
coedge $-1 $221 $220 $219 $324 reversed $81 $-1 #
edge $-1 $411 -36.631238291274336 $331 -9.1138231980175632 $219 $412 forward 7 unknown #
coedge $-1 $409 $413 $221 $326 forward $320 $-1 #
edge $-1 $328 -13.103420596200166 $411 -2.2366956879191271 $325 $414 forward 7 unknown #
coedge $-1 $227 $222 $413 $415 reversed $217 $-1 #
vertex $-1 $223 $416 #
straight-curve $-1 22.87253074464595 -35.881134105961429 0.68452657948592921 1 0 0 I I #
coedge $-1 $322 $224 $227 $334 forward $130 $-1 #
vertex $-1 $225 $417 #
straight-curve $-1 31.986353942663513 -57.75636058748313 7.9557848939494491 0 -1 0 I I #
straight-curve $-1 31.986353942663513 -35.881134105961436 0.68452657948591877 0 0.74314481823134659 0.66913061440640931 I I #
edge $-1 $228 31.986353942663513 $418 59.503769035920286 $227 $419 forward 7 unknown #
point $-1 31.986353942663513 -35.881134105961429 7.9557848939494482 #
point $-1 31.986353942663513 -35.881134105961429 0.68452657948592521 #
edge $-1 $420 1 $420 0 $231 $-1 forward 7 unknown #
vertex $-1 $232 $421 #
ellipse-curve $-1 39.848472540736878 -30.0116988975238 2.2858912009448122 0 -0.66913061440640931 0.74314481823134659 1.5 0 0 1 I I #
point $-1 41.348472540736878 -31.843358952594148 4.3201557367176857 #
edge $-1 $422 1 $422 0 $235 $-1 forward 7 unknown #
vertex $-1 $236 $423 #
ellipse-curve $-1 51.64165043784692 -30.0116988975238 2.2858912009448122 0 -0.66913061440640931 0.74314481823134659 1.5 0 0 1 I I #
point $-1 53.14165043784692 -31.843358952594148 4.3201557367176857 #
plane-surface $-1 0 0 7.9557848939494482 0 0 1 1 0 0 forward_v I I I I #
coedge $-1 $356 $355 $348 $424 forward $240 $-1 #
coedge $-1 $348 $242 $244 $352 reversed $152 $-1 #
coedge $-1 $242 $347 $346 $424 reversed $152 $-1 #
coedge $-1 $250 $245 $242 $350 forward $251 $-1 #
edge $-1 $353 -2.6355295826382559 $425 1.2368409219516892 $349 $426 forward 7 unknown #
coedge $-1 $244 $243 $356 $427 reversed $95 $-1 #
edge $-1 $428 -71.762268211922887 $353 -66.2859092622585 $347 $429 forward 7 unknown #
vertex $-1 $246 $430 #
straight-curve $-1 -12.751879124579172 32.008763601371477 7.9557848939494455 1 0 0 I I #
coedge $-1 $346 $247 $250 $360 reversed $240 $-1 #
coedge $-1 $247 $346 $351 $427 forward $240 $-1 #
vertex $-1 $248 $431 #
straight-curve $-1 -41.304182532821478 35.881134105961429 69.489018790391114 0 0 1 I I #
straight-curve $-1 -41.304182532821478 -14.862451791261961 54.8270013742343 0 0.70710677298230451 -0.70710678939079041 I I #
edge $-1 $425 9.7033339654952098 $252 41.304182532821478 $355 $432 forward 7 unknown #
point $-1 -41.304182532821478 35.881134105961429 7.9557848939494482 #
point $-1 -41.304182532821478 32.008763601371484 7.9557848939494491 #
edge $-1 $433 1 $433 0 $255 $-1 forward 7 unknown #
vertex $-1 $256 $434 #
ellipse-curve $-1 -34.984012819356224 32.440768900026946 4.51541967799022 0 0.70710678939079041 0.70710677298230451 1 0 0 1 I I #
point $-1 -33.984012819356224 33.944948853666467 6.0195995967250919 #
edge $-1 $435 1 $435 0 $259 $-1 forward 7 unknown #
vertex $-1 $260 $436 #
ellipse-curve $-1 -25.503758249158345 32.440768900026946 4.51541967799022 0 0.70710678939079041 0.70710677298230451 1 0 0 1 I I #
point $-1 -24.503758249158345 33.944948853666467 6.0195995967250919 #
edge $-1 $437 1 $437 0 $263 $-1 forward 7 unknown #
vertex $-1 $264 $438 #
ellipse-curve $-1 -16.023503678960466 32.440768900026946 4.51541967799022 0 0.70710678939079041 0.70710677298230451 1 0 0 1 I I #
point $-1 -15.023503678960466 33.944948853666467 6.0195995967250919 #
plane-surface $-1 59.503769035920286 0 0 -1 0 0 0 0 1 forward_v I I I I #
coedge $-1 $272 $270 $274 $380 reversed $181 $-1 #
edge $-1 $285 -7.9557848939494482 $382 7.9557848939494482 $284 $439 forward 7 unknown #
vertex $-1 $380 $440 #
straight-curve $-1 -59.503769035920286 -35.881134105961429 0 0 0 -1 I I #
edge $-1 $378 -35.881134105961429 $382 35.881134105961429 $376 $441 forward 7 unknown #
straight-curve $-1 0 -35.881134105961429 -7.9557848939494482 -1 0 0 I I #
vertex $-1 $277 $442 #
straight-curve $-1 0 35.881134105961429 -7.9557848939494482 1 0 0 I I #
point $-1 59.503769035920286 35.881134105961429 -7.9557848939494482 #
point $-1 59.503769035920286 -35.881134105961429 -7.9557848939494482 #
straight-curve $-1 -59.503769035920286 0 7.9557848939494482 0 -1 0 I I #
point $-1 -59.503769035920286 35.881134105961429 7.9557848939494482 #
point $-1 -59.503769035920286 -35.881134105961429 7.9557848939494482 #
straight-curve $-1 59.503769035920286 -35.881134105961429 0 0 0 -1 I I #
straight-curve $-1 59.503769035920286 35.881134105961429 0 0 0 -1 I I #
plane-surface $-1 0 35.881134105961429 0 0 -1 0 0 0 -1 forward_v I I I I #
coedge $-1 $402 $401 $300 $394 forward $295 $-1 #
straight-curve $-1 -51.979204339213496 -35.881134105961429 -2.9778924469747241 0 0 1 I I #
edge $-1 $397 -35.881134105961429 $395 35.881134105961429 $392 $443 forward 7 unknown #
vertex $-1 $301 $444 #
straight-curve $-1 -27.870743343783445 -35.881134105961429 -7.4557848939494482 1 0 0 I I #
vertex $-1 $303 $445 #
straight-curve $-1 -27.870743343783445 35.881134105961429 -7.4557848939494482 -1 0 0 I I #
point $-1 -51.979204339213496 35.881134105961429 -7.4557848939494482 #
point $-1 -51.979204339213496 -35.881134105961429 -7.4557848939494482 #
coedge $-1 $392 $307 $310 $404 forward $295 $-1 #
coedge $-1 $307 $392 $314 $406 reversed $295 $-1 #
straight-curve $-1 -59.503769035920286 0 -4.4557848939494482 0 1 0 I I #
edge $-1 $312 4.4557848939494482 $397 7.4557848939494482 $310 $446 forward 7 unknown #
point $-1 -59.503769035920286 35.881134105961429 -4.4557848939494482 #
edge $-1 $315 4.4557848939494482 $395 7.4557848939494482 $402 $447 forward 7 unknown #
point $-1 -59.503769035920286 -35.881134105961429 -4.4557848939494482 #
straight-curve $-1 -51.979204339213496 35.881134105961429 -2.9778924469747241 0 0 -1 I I #
coedge $-1 $413 $325 $322 $410 reversed $320 $-1 #
edge $-1 $418 -35.881134105961429 $411 -27.80558379922687 $409 $448 forward 7 unknown #
vertex $-1 $326 $449 #
straight-curve $-1 22.87253074464595 -27.80558379922687 7.9557848939494473 -1 0 0 I I #
coedge $-1 $325 $409 $327 $415 forward $320 $-1 #
straight-curve $-1 59.503769035920286 -26.143394988789375 9.4524264538469414 0 0.74314481823134659 0.66913061440640931 I I #
edge $-1 $418 -7.9557848939494482 $328 -0.68452657948592521 $413 $450 forward 7 unknown #
point $-1 59.503769035920286 -35.881134105961429 0.68452657948592521 #
point $-1 31.986353942663513 -27.80558379922687 7.9557848939494482 #
vertex $-1 $410 $451 #
straight-curve $-1 0 -35.881134105961429 7.9557848939494482 1 0 0 I I #
vertex $-1 $337 $452 #
point $-1 41.348472540736878 -30.0116988975238 2.2858912009448122 #
vertex $-1 $341 $453 #
point $-1 53.14165043784692 -30.0116988975238 2.2858912009448122 #
edge $-1 $425 61.533233896441665 $428 65.405604490890369 $346 $454 forward 7 unknown #
vertex $-1 $360 $455 #
straight-curve $-1 -9.7033339654952098 34.64429318400974 7.955784893949442 0 1 0 I I #
edge $-1 $428 -3.0485451590839627 $357 28.552303408242306 $356 $456 forward 7 unknown #
vertex $-1 $427 $457 #
straight-curve $-1 -9.7033339654952098 -14.862451791261961 54.8270013742343 0 -0.70710677298230451 0.70710678939079041 I I #
point $-1 -9.7033339654952098 32.008763601371484 7.9557848939494491 #
point $-1 -41.304182532821478 35.881134105961429 4.0834142995007383 #
straight-curve $-1 0 35.881134105961429 7.9557848939494482 -1 0 0 I I #
vertex $-1 $363 $458 #
point $-1 -33.984012819356224 32.440768900026946 4.51541967799022 #
vertex $-1 $367 $459 #
point $-1 -24.503758249158345 32.440768900026946 4.51541967799022 #
vertex $-1 $371 $460 #
point $-1 -15.023503678960466 32.440768900026946 4.51541967799022 #
straight-curve $-1 -59.503769035920286 35.881134105961429 0 0 0 -1 I I #
point $-1 -59.503769035920286 -35.881134105961429 -7.9557848939494482 #
straight-curve $-1 -59.503769035920286 0 -7.9557848939494482 0 1 0 I I #
point $-1 -59.503769035920286 35.881134105961429 -7.9557848939494482 #
straight-curve $-1 -59.503769035920286 0 -7.4557848939494482 0 -1 0 I I #
point $-1 -59.503769035920286 -35.881134105961429 -7.4557848939494482 #
point $-1 -59.503769035920286 35.881134105961429 -7.4557848939494482 #
straight-curve $-1 -59.503769035920286 35.881134105961429 0 0 0 -1 I I #
straight-curve $-1 -59.503769035920286 -35.881134105961429 0 0 0 -1 I I #
straight-curve $-1 59.503769035920286 0 7.9557848939494482 0 1 0 I I #
point $-1 59.503769035920286 -27.80558379922687 7.9557848939494482 #
straight-curve $-1 59.503769035920286 -35.881134105961429 0 0 0 -1 I I #
point $-1 59.503769035920286 -35.881134105961429 7.9557848939494482 #
point $-1 39.848472540736878 -29.008002975914188 1.1711739735977922 #
point $-1 51.64165043784692 -29.008002975914188 1.1711739735977922 #
straight-curve $-1 -9.7033339654952098 35.881134105961429 69.489018790391114 0 0 -1 I I #
point $-1 -9.7033339654952098 35.881134105961429 7.9557848939494482 #
straight-curve $-1 -12.751879124579172 35.881134105961429 4.0834142995007454 -1 0 0 I I #
point $-1 -9.7033339654952098 35.881134105961429 4.0834142995007383 #
point $-1 -34.984012819356224 31.733662110636153 3.8083129050079152 #
point $-1 -25.503758249158345 31.733662110636153 3.8083129050079152 #
point $-1 -16.023503678960466 31.733662110636153 3.8083129050079152 #
End-of-ACIS-data 