500 0 9 0           
7 Unknown 11 ACIS 5.0 NT 24 Thu Mar 25 23:02:32 1999 
-1 9.9999999999999995e-007 1e-010 
body $-1 $9 $-1 $10 #
body $-1 $11 $-1 $12 #
body $-1 $13 $-1 $14 #
body $-1 $15 $-1 $16 #
body $-1 $17 $-1 $18 #
body $-1 $19 $-1 $20 #
body $-1 $21 $-1 $22 #
body $-1 $23 $-1 $24 #
body $-1 $25 $-1 $26 #
lump $-1 $-1 $27 $0 #
transform $-1 1 0 0 0 1 0 0 0 1 50.431226538895842 32.224918115892194 7.6974154363010543 1 rotate no_reflect no_shear #
lump $-1 $-1 $28 $1 #
transform $-1 1 0 0 0 1 0 0 0 1 50.431226538895842 32.224918115892194 7.6974154363010543 1 rotate no_reflect no_shear #
lump $-1 $-1 $29 $2 #
transform $-1 1 0 0 0 1 0 0 0 1 50.431226538895842 32.224918115892194 7.6974154363010543 1 rotate no_reflect no_shear #
lump $-1 $-1 $30 $3 #
transform $-1 1 0 0 0 1 0 0 0 1 50.431226538895842 32.224918115892194 7.6974154363010543 1 rotate no_reflect no_shear #
lump $-1 $-1 $31 $4 #
transform $-1 1 0 0 0 1 0 0 0 1 50.431226538895842 32.224918115892194 7.6974154363010543 1 rotate no_reflect no_shear #
lump $-1 $-1 $32 $5 #
transform $-1 1 0 0 0 1 0 0 0 1 50.431226538895842 32.224918115892194 7.6974154363010543 1 rotate no_reflect no_shear #
lump $-1 $-1 $33 $6 #
transform $-1 1 0 0 0 1 0 0 0 1 50.431226538895842 32.224918115892194 7.6974154363010543 1 rotate no_reflect no_shear #
lump $-1 $-1 $34 $7 #
transform $-1 1 0 0 0 1 0 0 0 1 50.431226538895842 32.224918115892194 7.6974154363010543 1 rotate no_reflect no_shear #
lump $-1 $-1 $35 $8 #
transform $-1 1 0 0 0 1 0 0 0 1 50.431226538895842 32.224918115892194 7.6974154363010543 1 rotate no_reflect no_shear #
shell $-1 $-1 $-1 $36 $-1 $9 #
shell $-1 $-1 $-1 $37 $-1 $11 #
shell $-1 $-1 $-1 $38 $-1 $13 #
shell $-1 $-1 $-1 $39 $-1 $15 #
shell $-1 $-1 $-1 $40 $-1 $17 #
shell $-1 $-1 $-1 $41 $-1 $19 #
shell $-1 $-1 $-1 $42 $-1 $21 #
shell $-1 $-1 $-1 $43 $-1 $23 #
shell $-1 $-1 $-1 $44 $-1 $25 #
face $-1 $45 $46 $27 $-1 $47 forward single #
face $-1 $48 $49 $28 $-1 $50 forward single #
face $-1 $51 $52 $29 $-1 $53 forward single #
face $-1 $54 $55 $30 $-1 $56 reversed single #
face $-1 $57 $58 $31 $-1 $59 forward single #
face $-1 $60 $61 $32 $-1 $62 forward single #
face $-1 $63 $64 $33 $-1 $65 reversed single #
face $-1 $66 $67 $34 $-1 $68 forward single #
face $-1 $69 $70 $35 $-1 $71 forward single #
face $-1 $72 $73 $27 $-1 $74 reversed single #
loop $-1 $-1 $75 $36 #
plane-surface $-1 0 0 7.6974154363010543 0 0 1 1 0 0 forward_v I I I I #
face $-1 $76 $77 $28 $-1 $78 forward single #
loop $-1 $-1 $79 $37 #
plane-surface $-1 0 -32.224918115892194 0 0 1 0 0 0 1 forward_v I I I I #
face $-1 $80 $81 $29 $-1 $82 reversed single #
loop $-1 $-1 $83 $38 #
plane-surface $-1 0 32.224918115892194 0 0 -1 0 0 0 -1 forward_v I I I I #
face $-1 $84 $85 $30 $-1 $86 reversed single #
loop $-1 $-1 $87 $39 #
plane-surface $-1 60.381364931379835 23.774144013628433 143.91955029343367 0 -1 0 -0.75470958851134928 0 -0.65605901945558964 forward_v I I I I #
face $-1 $88 $89 $31 $-1 $90 forward single #
loop $-1 $91 $92 $40 #
cone-surface $-1 47.046919240788419 14.775882795567242 4.0137314591744637 -0.75470958851134928 0 -0.65605901945558964 0.98408852918338452 0 -1.132064382767024 1 I I 0 1 1.5 forward I I I I #
face $-1 $93 $94 $32 $-1 $95 forward single #
loop $-1 $96 $97 $41 #
cone-surface $-1 47.046919240788419 20.174839526403957 4.0137314591744637 -0.75470958851134928 0 -0.65605901945558964 0.98408852918338452 0 -1.132064382767024 1 I I 0 1 1.5 forward I I I I #
face $-1 $98 $99 $33 $-1 $100 reversed single #
loop $-1 $-1 $101 $42 #
plane-surface $-1 -126.55308699748127 11.176578308342766 67.797689834848228 0 1 0 -0.75470958851134928 0 0.65605901945558964 forward_v I I I I #
face $-1 $102 $103 $34 $-1 $104 forward single #
loop $-1 $105 $106 $43 #
cone-surface $-1 -47.046919240788434 14.775882795567242 4.0137314591744762 0.75470958851134928 0 -0.65605901945558964 0.98408852918338452 0 1.132064382767024 1 I I 0 1 1.5 forward I I I I #
face $-1 $107 $108 $35 $-1 $109 forward single #
loop $-1 $110 $111 $44 #
cone-surface $-1 -47.046919240788434 20.174839526403957 4.0137314591744762 0.75470958851134928 0 -0.65605901945558964 0.98408852918338452 0 1.132064382767024 1 I I 0 1 1.5 forward I I I I #
face $-1 $112 $113 $27 $-1 $114 reversed single #
loop $-1 $-1 $115 $45 #
plane-surface $-1 0 0 -7.6974154363010543 0 0 1 1 0 0 forward_v I I I I #
coedge $-1 $116 $117 $118 $119 forward $46 $-1 #
face $-1 $120 $121 $28 $-1 $122 reversed single #
loop $-1 $-1 $123 $48 #
plane-surface $-1 0 0 7.6974154363010543 0 0 1 1 0 0 forward_v I I I I #
coedge $-1 $124 $125 $126 $127 forward $49 $-1 #
face $-1 $128 $129 $29 $-1 $130 reversed single #
loop $-1 $-1 $131 $51 #
plane-surface $-1 50.431226538895842 0 0 -1 0 0 0 0 1 forward_v I I I I #
coedge $-1 $132 $133 $134 $135 forward $52 $-1 #
face $-1 $136 $137 $30 $-1 $138 reversed single #
loop $-1 $-1 $139 $54 #
plane-surface $-1 -15.740495527205596 17.475361160985599 77.747828227332235 0.75470958851134928 0 0.65605901945558964 0.65605901945558964 0 -0.75470958851134928 forward_v I I I I #
coedge $-1 $140 $141 $142 $143 reversed $55 $-1 #
face $-1 $-1 $144 $31 $-1 $145 forward single #
loop $-1 $146 $147 $57 #
cone-surface $-1 45.735494152337779 14.775882795567242 2.8737270512333195 -0.75470958851134928 0 -0.65605901945558964 0.49204426459169226 0 -0.56603219138351202 1 I I -0.70710678118654757 0.70710678118654757 0.75 forward I I I I #
loop $-1 $-1 $148 $40 #
coedge $-1 $92 $92 $149 $150 reversed $58 $-1 #
face $-1 $-1 $151 $32 $-1 $152 forward single #
loop $-1 $153 $154 $60 #
cone-surface $-1 45.735494152337779 20.174839526403957 2.8737270512333195 -0.75470958851134928 0 -0.65605901945558964 0.49204426459169226 0 -0.56603219138351202 1 I I -0.70710678118654757 0.70710678118654757 0.75 forward I I I I #
loop $-1 $-1 $155 $41 #
coedge $-1 $97 $97 $156 $157 reversed $61 $-1 #
face $-1 $158 $159 $33 $-1 $160 reversed single #
loop $-1 $-1 $161 $63 #
plane-surface $-1 -50.431226538895842 17.475361160985599 1.6259677687467899 -0.75470958851134928 0 0.65605901945558964 0.65605901945558964 0 0.75470958851134928 forward_v I I I I #
coedge $-1 $162 $163 $164 $165 reversed $64 $-1 #
face $-1 $-1 $166 $34 $-1 $167 forward single #
loop $-1 $168 $169 $66 #
cone-surface $-1 -45.735494152337793 14.775882795567242 2.8737270512333319 0.75470958851134928 0 -0.65605901945558964 0.49204426459169226 0 0.56603219138351202 1 I I -0.70710678118654757 0.70710678118654757 0.75 forward I I I I #
loop $-1 $-1 $170 $43 #
coedge $-1 $106 $106 $171 $172 reversed $67 $-1 #
face $-1 $-1 $173 $35 $-1 $174 forward single #
loop $-1 $175 $176 $69 #
cone-surface $-1 -45.735494152337793 20.174839526403957 2.8737270512333319 0.75470958851134928 0 -0.65605901945558964 0.49204426459169226 0 0.56603219138351202 1 I I -0.70710678118654757 0.70710678118654757 0.75 forward I I I I #
loop $-1 $-1 $177 $44 #
coedge $-1 $111 $111 $178 $179 reversed $70 $-1 #
face $-1 $180 $181 $27 $-1 $182 reversed single #
loop $-1 $-1 $183 $72 #
plane-surface $-1 0 -32.224918115892194 0 0 1 0 0 0 1 forward_v I I I I #
coedge $-1 $184 $185 $186 $187 forward $73 $-1 #
coedge $-1 $188 $75 $189 $190 forward $46 $-1 #
coedge $-1 $75 $188 $191 $192 forward $46 $-1 #
coedge $-1 $193 $194 $75 $119 reversed $195 $-1 #
edge $-1 $196 -32.224918115892194 $197 32.224918115892194 $118 $198 forward 7 unknown #
face $-1 $199 $200 $28 $-1 $201 reversed single #
loop $-1 $-1 $202 $76 #
plane-surface $-1 -50.431226538895842 0 0 1 0 0 0 0 -1 forward_v I I I I #
coedge $-1 $203 $204 $205 $206 forward $77 $-1 #
coedge $-1 $205 $79 $202 $207 reversed $49 $-1 #
coedge $-1 $79 $205 $208 $209 reversed $49 $-1 #
coedge $-1 $210 $211 $79 $127 reversed $200 $-1 #
edge $-1 $212 -50.431226538895842 $213 50.431226538895842 $126 $214 forward 7 unknown #
face $-1 $215 $216 $29 $-1 $217 reversed single #
loop $-1 $-1 $218 $80 #
plane-surface $-1 0 36.450305167024084 3.4666676557689717 0 0 1 1 0 0 forward_v I I I I #
coedge $-1 $219 $220 $132 $221 forward $81 $-1 #
coedge $-1 $222 $83 $131 $221 reversed $52 $-1 #
coedge $-1 $83 $222 $223 $224 reversed $52 $-1 #
coedge $-1 $225 $218 $83 $135 reversed $129 $-1 #
edge $-1 $226 -50.431226538895842 $227 50.431226538895842 $134 $228 forward 7 unknown #
face $-1 $229 $230 $30 $-1 $231 forward single #
loop $-1 $-1 $232 $84 #
plane-surface $-1 60.381364931379835 11.176578308342766 143.91955029343367 0 1 0 0.75470958851134928 0 0.65605901945558964 forward_v I I I I #
coedge $-1 $233 $234 $235 $236 reversed $85 $-1 #
coedge $-1 $141 $87 $237 $238 reversed $55 $-1 #
coedge $-1 $87 $140 $233 $239 reversed $55 $-1 #
coedge $-1 $235 $240 $87 $143 forward $230 $-1 #
edge $-1 $241 -20.240544073205925 $242 -14.962715271125354 $142 $243 forward 7 unknown #
loop $-1 $-1 $149 $88 #
plane-surface $-1 -15.740495527205596 17.475361160985599 77.747828227332235 0.75470958851134928 0 0.65605901945558964 0.65605901945558964 0 -0.75470958851134928 forward_v I I I I #
loop $-1 $-1 $244 $57 #
coedge $-1 $147 $147 $148 $245 reversed $89 $-1 #
coedge $-1 $148 $148 $147 $245 forward $91 $-1 #
coedge $-1 $149 $149 $92 $150 forward $144 $-1 #
edge $-1 $246 0 $246 6.2831853071796004 $149 $247 forward 7 unknown #
loop $-1 $-1 $156 $93 #
plane-surface $-1 -15.740495527205596 17.475361160985599 77.747828227332235 0.75470958851134928 0 0.65605901945558964 0.65605901945558964 0 -0.75470958851134928 forward_v I I I I #
loop $-1 $-1 $248 $60 #
coedge $-1 $154 $154 $155 $249 reversed $94 $-1 #
coedge $-1 $155 $155 $154 $249 forward $96 $-1 #
coedge $-1 $156 $156 $97 $157 forward $151 $-1 #
edge $-1 $250 0 $250 6.2831853071796004 $156 $251 forward 7 unknown #
face $-1 $252 $253 $33 $-1 $254 reversed single #
loop $-1 $-1 $255 $98 #
plane-surface $-1 -126.55308699748127 23.774144013628433 67.797689834848228 0 -1 0 0.75470958851134928 0 -0.65605901945558964 forward_v I I I I #
coedge $-1 $256 $257 $258 $259 reversed $99 $-1 #
coedge $-1 $163 $101 $260 $261 reversed $64 $-1 #
coedge $-1 $101 $162 $256 $262 reversed $64 $-1 #
coedge $-1 $258 $263 $101 $165 forward $264 $-1 #
edge $-1 $265 12.845316959844794 $266 18.123145761925372 $164 $267 forward 7 unknown #
loop $-1 $-1 $171 $102 #
plane-surface $-1 -50.431226538895842 17.475361160985599 1.6259677687467899 -0.75470958851134928 0 0.65605901945558964 0.65605901945558964 0 0.75470958851134928 forward_v I I I I #
loop $-1 $-1 $268 $66 #
coedge $-1 $169 $169 $170 $269 reversed $103 $-1 #
coedge $-1 $170 $170 $169 $269 forward $105 $-1 #
coedge $-1 $171 $171 $106 $172 forward $166 $-1 #
edge $-1 $270 0 $270 6.2831853071796004 $171 $271 forward 7 unknown #
loop $-1 $-1 $178 $107 #
plane-surface $-1 -50.431226538895842 17.475361160985599 1.6259677687467899 -0.75470958851134928 0 0.65605901945558964 0.65605901945558964 0 0.75470958851134928 forward_v I I I I #
loop $-1 $-1 $272 $69 #
coedge $-1 $176 $176 $177 $273 reversed $108 $-1 #
coedge $-1 $177 $177 $176 $273 forward $110 $-1 #
coedge $-1 $178 $178 $111 $179 forward $173 $-1 #
edge $-1 $274 0 $274 6.2831853071796004 $178 $275 forward 7 unknown #
face $-1 $276 $277 $27 $-1 $278 reversed single #
loop $-1 $-1 $279 $112 #
plane-surface $-1 -50.431226538895842 0 0 1 0 0 0 0 -1 forward_v I I I I #
coedge $-1 $280 $191 $281 $282 forward $113 $-1 #
coedge $-1 $283 $115 $280 $284 forward $73 $-1 #
coedge $-1 $115 $283 $285 $286 forward $73 $-1 #
coedge $-1 $194 $193 $115 $187 reversed $195 $-1 #
edge $-1 $287 -32.224918115892194 $288 32.224918115892194 $186 $289 forward 7 unknown #
coedge $-1 $117 $116 $290 $291 forward $46 $-1 #
coedge $-1 $292 $293 $116 $190 reversed $277 $-1 #
edge $-1 $197 -50.431226538895842 $294 50.431226538895842 $189 $295 forward 7 unknown #
coedge $-1 $183 $296 $117 $192 reversed $113 $-1 #
edge $-1 $297 -50.431226538895842 $196 50.431226538895842 $191 $298 forward 7 unknown #
coedge $-1 $186 $118 $296 $299 forward $195 $-1 #
coedge $-1 $118 $186 $292 $300 reversed $195 $-1 #
loop $-1 $-1 $193 $276 #
vertex $-1 $119 $301 #
vertex $-1 $119 $302 #
straight-curve $-1 50.431226538895842 0 7.6974154363010543 0 1 0 I I #
face $-1 $303 $304 $28 $-1 $305 reversed single #
loop $-1 $-1 $210 $120 #
plane-surface $-1 0 -36.450305167024077 3.4666676557689717 0 0 1 1 0 0 forward_v I I I I #
coedge $-1 $306 $307 $124 $207 forward $121 $-1 #
coedge $-1 $308 $123 $307 $309 forward $77 $-1 #
coedge $-1 $123 $308 $310 $311 forward $77 $-1 #
coedge $-1 $125 $124 $123 $206 reversed $49 $-1 #
edge $-1 $312 -50.431226538895842 $313 50.431226538895842 $123 $314 forward 7 unknown #
edge $-1 $313 -7.6974154363010543 $213 -3.4666676557689717 $202 $315 forward 7 unknown #
coedge $-1 $310 $316 $125 $209 forward $317 $-1 #
edge $-1 $212 3.4666676557689717 $312 7.6974154363010543 $208 $318 forward 7 unknown #
coedge $-1 $319 $126 $316 $320 forward $200 $-1 #
coedge $-1 $126 $319 $306 $321 forward $200 $-1 #
vertex $-1 $209 $322 #
vertex $-1 $207 $323 #
straight-curve $-1 0 -32.224918115892194 3.4666676557689717 -1 0 0 I I #
face $-1 $324 $325 $29 $-1 $326 forward single #
loop $-1 $-1 $327 $128 #
plane-surface $-1 0 40.675692218155966 5.5820415460350121 0 -1 0 0 0 -1 forward_v I I I I #
coedge $-1 $134 $328 $219 $329 forward $129 $-1 #
coedge $-1 $330 $131 $218 $329 reversed $81 $-1 #
coedge $-1 $131 $330 $331 $332 reversed $81 $-1 #
edge $-1 $333 -7.6974154363010543 $227 -3.4666676557689717 $131 $334 forward 7 unknown #
coedge $-1 $133 $132 $335 $336 reversed $52 $-1 #
coedge $-1 $337 $338 $133 $224 forward $339 $-1 #
edge $-1 $226 3.4666676557689717 $340 7.6974154363010543 $223 $341 forward 7 unknown #
coedge $-1 $328 $134 $338 $342 forward $129 $-1 #
vertex $-1 $224 $343 #
vertex $-1 $221 $344 #
straight-curve $-1 0 32.224918115892194 3.4666676557689717 1 0 0 I I #
face $-1 $-1 $345 $30 $-1 $346 reversed single #
loop $-1 $-1 $142 $136 #
plane-surface $-1 0 0 7.6974154363010543 0 0 1 1 0 0 forward_v I I I I #
coedge $-1 $347 $348 $349 $350 reversed $137 $-1 #
coedge $-1 $351 $139 $141 $239 forward $85 $-1 #
coedge $-1 $139 $351 $347 $352 forward $85 $-1 #
coedge $-1 $349 $142 $139 $236 forward $230 $-1 #
edge $-1 $242 -15.036463433135633 $353 -2.4388977278499659 $235 $354 forward 7 unknown #
coedge $-1 $355 $356 $140 $238 forward $345 $-1 #
edge $-1 $357 -70.333807377970032 $241 -64.26235971041578 $237 $358 forward 7 unknown #
edge $-1 $242 92.817706118196199 $357 100.8624530777917 $141 $359 forward 7 unknown #
coedge $-1 $142 $349 $355 $360 forward $230 $-1 #
vertex $-1 $238 $361 #
vertex $-1 $143 $362 #
straight-curve $-1 30.190682465689918 23.774144013628433 7.697415436301057 -1 0 0 I I #
coedge $-1 $244 $244 $-1 $363 reversed $146 $-1 #
edge $-1 $364 0 $364 6.2831853071796004 $147 $365 forward 7 unknown #
vertex $-1 $150 $366 #
ellipse-curve $-1 47.792312137855561 14.775882795567242 4.6616916025239261 0.75470958851134928 0 0.65605901945558964 0.98408852918338452 0 -1.132064382767024 1 I I #
coedge $-1 $248 $248 $-1 $367 reversed $153 $-1 #
edge $-1 $368 0 $368 6.2831853071796004 $154 $369 forward 7 unknown #
vertex $-1 $157 $370 #
ellipse-curve $-1 47.792312137855561 20.174839526403957 4.6616916025239261 0.75470958851134928 0 0.65605901945558964 0.98408852918338452 0 -1.132064382767024 1 I I #
face $-1 $-1 $264 $33 $-1 $371 forward single #
loop $-1 $-1 $372 $158 #
plane-surface $-1 -50.431226538895842 0 0 1 0 0 0 0 -1 forward_v I I I I #
coedge $-1 $373 $374 $375 $376 reversed $159 $-1 #
coedge $-1 $377 $161 $163 $262 forward $99 $-1 #
coedge $-1 $161 $377 $373 $378 forward $99 $-1 #
coedge $-1 $375 $164 $161 $259 forward $264 $-1 #
edge $-1 $266 2.4388977278499659 $379 15.036463433135633 $258 $380 forward 7 unknown #
coedge $-1 $381 $382 $162 $261 forward $253 $-1 #
edge $-1 $383 -32.272877148677324 $265 -26.201429481123061 $260 $384 forward 7 unknown #
edge $-1 $266 -8.0447469595955265 $383 0 $163 $385 forward 7 unknown #
coedge $-1 $164 $375 $381 $386 forward $264 $-1 #
loop $-1 $-1 $375 $252 #
vertex $-1 $261 $387 #
vertex $-1 $165 $388 #
straight-curve $-1 -63.276543498740637 11.176578308342766 7.6974154363010534 1 0 0 I I #
coedge $-1 $268 $268 $-1 $389 reversed $168 $-1 #
edge $-1 $390 0 $390 6.2831853071796004 $169 $391 forward 7 unknown #
vertex $-1 $172 $392 #
ellipse-curve $-1 -47.792312137855554 14.775882795567242 4.6616916025239235 -0.75470958851134928 0 0.65605901945558964 0.98408852918338452 0 1.132064382767024 1 I I #
coedge $-1 $272 $272 $-1 $393 reversed $175 $-1 #
edge $-1 $394 0 $394 6.2831853071796004 $176 $395 forward 7 unknown #
vertex $-1 $179 $396 #
ellipse-curve $-1 -47.792312137855554 20.174839526403957 4.6616916025239235 -0.75470958851134928 0 0.65605901945558964 0.98408852918338452 0 1.132064382767024 1 I I #
face $-1 $-1 $195 $27 $-1 $397 reversed single #
loop $-1 $-1 $292 $180 #
plane-surface $-1 0 32.224918115892194 0 0 -1 0 0 0 -1 forward_v I I I I #
coedge $-1 $398 $290 $293 $399 forward $181 $-1 #
coedge $-1 $296 $183 $184 $284 reversed $113 $-1 #
coedge $-1 $290 $398 $183 $282 reversed $181 $-1 #
edge $-1 $297 -7.6974154363010543 $400 7.6974154363010543 $281 $401 forward 7 unknown #
coedge $-1 $185 $184 $398 $402 forward $73 $-1 #
edge $-1 $288 -50.431226538895842 $400 50.431226538895842 $280 $403 forward 7 unknown #
coedge $-1 $293 $292 $185 $286 reversed $277 $-1 #
edge $-1 $404 -50.431226538895842 $287 50.431226538895842 $285 $405 forward 7 unknown #
vertex $-1 $187 $406 #
vertex $-1 $299 $407 #
straight-curve $-1 50.431226538895842 0 -7.6974154363010543 0 -1 0 I I #
coedge $-1 $279 $281 $188 $291 reversed $181 $-1 #
edge $-1 $294 -32.224918115892194 $297 32.224918115892194 $290 $408 forward 7 unknown #
coedge $-1 $285 $189 $194 $300 forward $277 $-1 #
coedge $-1 $189 $285 $279 $399 reversed $277 $-1 #
vertex $-1 $190 $409 #
straight-curve $-1 0 32.224918115892194 7.6974154363010543 -1 0 0 I I #
coedge $-1 $191 $280 $193 $299 reversed $113 $-1 #
vertex $-1 $291 $410 #
straight-curve $-1 0 -32.224918115892194 7.6974154363010543 1 0 0 I I #
edge $-1 $196 -7.6974154363010543 $288 7.6974154363010543 $193 $411 forward 7 unknown #
edge $-1 $197 -7.6974154363010543 $287 7.6974154363010543 $194 $412 forward 7 unknown #
point $-1 50.431226538895842 -32.224918115892194 7.6974154363010543 #
point $-1 50.431226538895842 32.224918115892194 7.6974154363010543 #
face $-1 $-1 $317 $28 $-1 $413 reversed single #
loop $-1 $-1 $414 $199 #
plane-surface $-1 0 -40.675692218155959 5.5820415460350121 0 1 0 0 0 1 forward_v I I I I #
coedge $-1 $415 $202 $211 $321 reversed $121 $-1 #
coedge $-1 $202 $415 $203 $309 reversed $121 $-1 #
coedge $-1 $204 $203 $416 $417 forward $77 $-1 #
edge $-1 $313 32.224918115892194 $418 40.675692218155959 $307 $419 forward 7 unknown #
coedge $-1 $420 $208 $204 $311 reversed $317 $-1 #
edge $-1 $421 -40.675692218155959 $312 -32.224918115892194 $310 $422 forward 7 unknown #
vertex $-1 $209 $423 #
vertex $-1 $309 $424 #
straight-curve $-1 0 -32.224918115892194 7.6974154363010543 -1 0 0 I I #
straight-curve $-1 -50.431226538895842 -32.224918115892194 0 0 0 -1 I I #
coedge $-1 $208 $420 $210 $320 reversed $317 $-1 #
loop $-1 $-1 $208 $303 #
straight-curve $-1 50.431226538895842 -32.224918115892194 0 0 0 1 I I #
coedge $-1 $211 $210 $425 $426 forward $200 $-1 #
edge $-1 $212 -4.2253870511318823 $427 4.2253870511318823 $316 $428 forward 7 unknown #
edge $-1 $429 -4.2253870511318823 $213 4.2253870511318823 $306 $430 forward 7 unknown #
point $-1 50.431226538895842 -32.224918115892194 3.4666676557689717 #
point $-1 -50.431226538895842 -32.224918115892194 3.4666676557689717 #
face $-1 $-1 $339 $29 $-1 $431 reversed single #
loop $-1 $-1 $335 $215 #
plane-surface $-1 0 0 7.6974154363010543 0 0 1 1 0 0 forward_v I I I I #
coedge $-1 $432 $433 $330 $434 forward $216 $-1 #
coedge $-1 $218 $225 $432 $435 forward $129 $-1 #
edge $-1 $436 -4.2253870511318823 $227 4.2253870511318823 $219 $437 forward 7 unknown #
coedge $-1 $220 $219 $327 $434 reversed $81 $-1 #
coedge $-1 $438 $335 $220 $332 forward $325 $-1 #
edge $-1 $333 32.224918115892194 $439 40.675692218155966 $220 $440 forward 7 unknown #
vertex $-1 $332 $441 #
straight-curve $-1 50.431226538895842 32.224918115892194 0 0 0 -1 I I #
coedge $-1 $331 $442 $222 $336 forward $325 $-1 #
edge $-1 $340 -50.431226538895842 $333 50.431226538895842 $335 $443 forward 7 unknown #
coedge $-1 $444 $223 $442 $445 reversed $339 $-1 #
coedge $-1 $223 $444 $225 $342 reversed $339 $-1 #
loop $-1 $-1 $223 $324 #
vertex $-1 $224 $446 #
straight-curve $-1 -50.431226538895842 32.224918115892194 0 0 0 1 I I #
edge $-1 $226 -4.2253870511318823 $447 4.2253870511318823 $338 $448 forward 7 unknown #
point $-1 -50.431226538895842 32.224918115892201 3.4666676557689717 #
point $-1 50.431226538895842 32.224918115892201 3.4666676557689717 #
loop $-1 $-1 $237 $229 #
plane-surface $-1 50.431226538895842 0 0 -1 0 0 0 0 1 forward_v I I I I #
coedge $-1 $348 $232 $234 $352 reversed $137 $-1 #
coedge $-1 $232 $347 $449 $450 reversed $137 $-1 #
coedge $-1 $240 $235 $232 $350 forward $230 $-1 #
edge $-1 $353 14.962715271125354 $451 20.240544073205925 $349 $452 forward 7 unknown #
coedge $-1 $234 $233 $356 $453 reversed $85 $-1 #
edge $-1 $454 -100.8624530777917 $353 -92.817706118196199 $347 $455 forward 7 unknown #
vertex $-1 $236 $456 #
straight-curve $-1 45.153397736815265 8.7376805804927997 7.6974154363010499 0 -1 0 I I #
coedge $-1 $449 $237 $240 $360 reversed $345 $-1 #
coedge $-1 $237 $449 $351 $453 forward $345 $-1 #
vertex $-1 $238 $457 #
straight-curve $-1 50.431226538895842 23.774144013628433 71.959775146716837 0 0 1 I I #
straight-curve $-1 -15.740495527205596 23.774144013628433 77.747828227332235 0.65605901945558964 0 -0.75470958851134928 I I #
edge $-1 $451 11.176578308342766 $241 23.774144013628433 $355 $458 forward 7 unknown #
point $-1 50.431226538895842 23.774144013628433 7.6974154363010543 #
point $-1 45.153397736815272 23.774144013628433 7.697415436301057 #
edge $-1 $459 1 $459 0 $244 $-1 forward 7 unknown #
vertex $-1 $245 $460 #
ellipse-curve $-1 46.301526343721292 14.775882795567242 3.365771315825012 0.75470958851134928 0 0.65605901945558964 0.98408852918338452 0 -1.132064382767024 1 I I #
point $-1 48.776400667038928 14.775882795567242 3.5296272197568932 #
edge $-1 $461 1 $461 0 $248 $-1 forward 7 unknown #
vertex $-1 $249 $462 #
ellipse-curve $-1 46.301526343721292 20.174839526403957 3.365771315825012 0.75470958851134928 0 0.65605901945558964 0.98408852918338452 0 -1.132064382767024 1 I I #
point $-1 48.776400667038928 20.174839526403957 3.5296272197568932 #
plane-surface $-1 0 0 7.6974154363010543 0 0 1 1 0 0 forward_v I I I I #
coedge $-1 $382 $381 $374 $463 forward $253 $-1 #
coedge $-1 $374 $255 $257 $378 reversed $159 $-1 #
coedge $-1 $255 $373 $372 $463 reversed $159 $-1 #
coedge $-1 $263 $258 $255 $376 forward $264 $-1 #
edge $-1 $379 -18.123145761925372 $464 -12.845316959844794 $375 $465 forward 7 unknown #
coedge $-1 $257 $256 $382 $466 reversed $99 $-1 #
edge $-1 $467 0 $379 8.0447469595955265 $373 $468 forward 7 unknown #
vertex $-1 $259 $469 #
straight-curve $-1 -45.153397736815258 8.7376805804927997 7.6974154363010534 0 1 0 I I #
coedge $-1 $372 $260 $263 $386 reversed $253 $-1 #
coedge $-1 $260 $372 $377 $466 forward $253 $-1 #
vertex $-1 $261 $470 #
straight-curve $-1 -50.431226538895842 11.176578308342766 33.898844917424114 0 0 1 I I #
straight-curve $-1 -50.431226538895842 11.176578308342766 1.6259677687467899 -0.65605901945558964 0 -0.75470958851134928 I I #
edge $-1 $464 -23.774144013628433 $265 -11.176578308342766 $381 $471 forward 7 unknown #
point $-1 -50.431226538895842 11.176578308342766 7.6974154363010543 #
point $-1 -45.153397736815265 11.176578308342766 7.6974154363010552 #
edge $-1 $472 1 $472 0 $268 $-1 forward 7 unknown #
vertex $-1 $269 $473 #
ellipse-curve $-1 -46.301526343721306 14.775882795567242 3.3657713158250244 -0.75470958851134928 0 0.65605901945558964 0.98408852918338452 0 1.132064382767024 1 I I #
point $-1 -46.808223608672172 14.775882795567242 5.7937559852909537 #
edge $-1 $474 1 $474 0 $272 $-1 forward 7 unknown #
vertex $-1 $273 $475 #
ellipse-curve $-1 -46.301526343721306 20.174839526403957 3.3657713158250244 -0.75470958851134928 0 0.65605901945558964 0.98408852918338452 0 1.132064382767024 1 I I #
point $-1 -46.808223608672172 20.174839526403957 5.7937559852909537 #
plane-surface $-1 50.431226538895842 0 0 -1 0 0 0 0 1 forward_v I I I I #
coedge $-1 $281 $279 $283 $402 reversed $181 $-1 #
edge $-1 $294 -7.6974154363010543 $404 7.6974154363010543 $293 $476 forward 7 unknown #
vertex $-1 $402 $477 #
straight-curve $-1 -50.431226538895842 -32.224918115892194 0 0 0 -1 I I #
edge $-1 $400 -32.224918115892194 $404 32.224918115892194 $398 $478 forward 7 unknown #
straight-curve $-1 0 -32.224918115892194 -7.6974154363010543 -1 0 0 I I #
vertex $-1 $286 $479 #
straight-curve $-1 0 32.224918115892194 -7.6974154363010543 1 0 0 I I #
point $-1 50.431226538895842 32.224918115892194 -7.6974154363010543 #
point $-1 50.431226538895842 -32.224918115892194 -7.6974154363010543 #
straight-curve $-1 -50.431226538895842 0 7.6974154363010543 0 -1 0 I I #
point $-1 -50.431226538895842 32.224918115892194 7.6974154363010543 #
point $-1 -50.431226538895842 -32.224918115892194 7.6974154363010543 #
straight-curve $-1 50.431226538895842 -32.224918115892194 0 0 0 -1 I I #
straight-curve $-1 50.431226538895842 32.224918115892194 0 0 0 -1 I I #
plane-surface $-1 50.431226538895842 0 0 -1 0 0 0 0 1 forward_v I I I I #
coedge $-1 $425 $416 $415 $480 forward $304 $-1 #
coedge $-1 $307 $306 $414 $480 reversed $121 $-1 #
coedge $-1 $414 $481 $308 $417 reversed $304 $-1 #
edge $-1 $418 -50.431226538895842 $421 50.431226538895842 $416 $482 forward 7 unknown #
vertex $-1 $309 $483 #
straight-curve $-1 -50.431226538895842 0 7.6974154363010543 0 -1 0 I I #
coedge $-1 $316 $310 $481 $484 forward $317 $-1 #
vertex $-1 $311 $485 #
straight-curve $-1 50.431226538895842 0 7.6974154363010543 0 1 0 I I #
point $-1 50.431226538895842 -32.224918115892194 7.6974154363010543 #
point $-1 -50.431226538895842 -32.224918115892194 7.6974154363010543 #
coedge $-1 $481 $414 $319 $426 reversed $304 $-1 #
edge $-1 $427 -50.431226538895842 $429 50.431226538895842 $425 $486 forward 7 unknown #
vertex $-1 $484 $487 #
straight-curve $-1 50.431226538895842 -36.450305167024077 3.4666676557689717 0 -1 0 I I #
vertex $-1 $321 $488 #
straight-curve $-1 -50.431226538895842 -36.450305167024077 3.4666676557689717 0 1 0 I I #
plane-surface $-1 -50.431226538895842 0 0 1 0 0 0 0 -1 forward_v I I I I #
coedge $-1 $489 $327 $328 $435 reversed $216 $-1 #
coedge $-1 $327 $489 $438 $490 reversed $216 $-1 #
edge $-1 $439 -2.1153738902660404 $436 2.1153738902660404 $330 $491 forward 7 unknown #
edge $-1 $447 -50.431226538895842 $436 50.431226538895842 $432 $492 forward 7 unknown #
vertex $-1 $329 $493 #
straight-curve $-1 50.431226538895842 36.450305167024084 3.4666676557689717 0 -1 0 I I #
coedge $-1 $442 $331 $433 $490 forward $325 $-1 #
vertex $-1 $332 $494 #
straight-curve $-1 50.431226538895842 0 7.6974154363010543 0 1 0 I I #
point $-1 50.431226538895842 32.224918115892194 7.6974154363010543 #
coedge $-1 $335 $438 $337 $445 forward $325 $-1 #
straight-curve $-1 0 32.224918115892194 7.6974154363010543 1 0 0 I I #
coedge $-1 $338 $337 $489 $495 forward $339 $-1 #
edge $-1 $496 -40.675692218155966 $340 -32.224918115892194 $337 $497 forward 7 unknown #
point $-1 -50.431226538895842 32.224918115892194 7.6974154363010543 #
vertex $-1 $435 $498 #
straight-curve $-1 -50.431226538895842 36.450305167024084 3.4666676557689717 0 1 0 I I #
coedge $-1 $356 $355 $348 $450 forward $345 $-1 #
edge $-1 $451 64.26235971041578 $454 70.333807377970032 $449 $499 forward 7 unknown #
vertex $-1 $360 $500 #
straight-curve $-1 30.190682465689918 11.176578308342766 7.697415436301057 1 0 0 I I #
edge $-1 $454 2.4388977278499659 $357 15.036463433135633 $356 $501 forward 7 unknown #
vertex $-1 $453 $502 #
straight-curve $-1 -15.740495527205596 11.176578308342766 77.747828227332235 -0.65605901945558964 0 0.75470958851134928 I I #
point $-1 45.153397736815272 11.176578308342766 7.697415436301057 #
point $-1 50.431226538895842 23.774144013628433 1.6259677687468042 #
straight-curve $-1 50.431226538895842 0 7.6974154363010543 0 1 0 I I #
vertex $-1 $363 $503 #
point $-1 47.285614872904674 14.775882795567242 2.233706933057988 #
vertex $-1 $367 $504 #
point $-1 47.285614872904674 20.174839526403957 2.233706933057988 #
edge $-1 $464 26.201429481123061 $467 32.272877148677324 $372 $505 forward 7 unknown #
vertex $-1 $386 $506 #
straight-curve $-1 -63.276543498740637 23.774144013628433 7.6974154363010534 -1 0 0 I I #
edge $-1 $467 -15.036463433135633 $383 -2.4388977278499659 $382 $507 forward 7 unknown #
vertex $-1 $466 $508 #
straight-curve $-1 -50.431226538895842 23.774144013628433 1.6259677687467899 0.65605901945558964 0 0.75470958851134928 I I #
point $-1 -45.153397736815265 23.774144013628433 7.6974154363010552 #
point $-1 -50.431226538895842 11.176578308342766 1.6259677687467899 #
straight-curve $-1 -50.431226538895842 0 7.6974154363010543 0 -1 0 I I #
vertex $-1 $389 $509 #
point $-1 -45.317437814537918 14.775882795567242 4.4978356985920485 #
vertex $-1 $393 $510 #
point $-1 -45.317437814537918 20.174839526403957 4.4978356985920485 #
straight-curve $-1 -50.431226538895842 32.224918115892194 0 0 0 -1 I I #
point $-1 -50.431226538895842 -32.224918115892194 -7.6974154363010543 #
straight-curve $-1 -50.431226538895842 0 -7.6974154363010543 0 1 0 I I #
point $-1 -50.431226538895842 32.224918115892194 -7.6974154363010543 #
edge $-1 $418 -2.1153738902660404 $429 2.1153738902660404 $415 $511 forward 7 unknown #
coedge $-1 $416 $425 $420 $484 reversed $304 $-1 #
straight-curve $-1 0 -40.675692218155959 7.6974154363010525 1 0 0 I I #
point $-1 -50.431226538895842 -40.675692218155959 7.6974154363010525 #
edge $-1 $421 -2.1153738902660404 $427 2.1153738902660404 $420 $512 forward 7 unknown #
point $-1 50.431226538895842 -40.675692218155959 7.6974154363010525 #
straight-curve $-1 0 -40.675692218155959 3.4666676557689717 -1 0 0 I I #
point $-1 50.431226538895842 -40.675692218155959 3.4666676557689717 #
point $-1 -50.431226538895842 -40.675692218155959 3.4666676557689717 #
coedge $-1 $433 $432 $444 $495 reversed $216 $-1 #
edge $-1 $439 -50.431226538895842 $496 50.431226538895842 $433 $513 forward 7 unknown #
straight-curve $-1 50.431226538895842 40.675692218155966 5.5820415460350121 0 0 -1 I I #
straight-curve $-1 0 40.675692218155966 3.4666676557689717 1 0 0 I I #
point $-1 50.431226538895842 40.675692218155966 3.4666676557689717 #
point $-1 50.431226538895842 40.675692218155966 7.6974154363010525 #
edge $-1 $496 -2.1153738902660404 $447 2.1153738902660404 $489 $514 forward 7 unknown #
vertex $-1 $490 $515 #
straight-curve $-1 -50.431226538895842 0 7.6974154363010543 0 -1 0 I I #
point $-1 -50.431226538895842 40.675692218155966 3.4666676557689717 #
straight-curve $-1 50.431226538895842 11.176578308342766 71.959775146716837 0 0 -1 I I #
point $-1 50.431226538895842 11.176578308342766 7.6974154363010543 #
straight-curve $-1 50.431226538895842 8.7376805804927997 1.6259677687467828 0 1 0 I I #
point $-1 50.431226538895842 11.176578308342766 1.6259677687468042 #
point $-1 45.169461960954266 14.775882795567242 2.381682786641627 #
point $-1 45.169461960954266 20.174839526403957 2.381682786641627 #
straight-curve $-1 -50.431226538895842 23.774144013628433 33.898844917424114 0 0 -1 I I #
point $-1 -50.431226538895842 23.774144013628433 7.6974154363010543 #
straight-curve $-1 -50.431226538895842 8.7376805804927997 1.6259677687467868 0 -1 0 I I #
point $-1 -50.431226538895842 23.774144013628433 1.6259677687467899 #
point $-1 -45.16946196095428 14.775882795567242 2.3816827866416395 #
point $-1 -45.16946196095428 20.174839526403957 2.3816827866416395 #
straight-curve $-1 -50.431226538895842 -40.675692218155959 5.5820415460350121 0 0 -1 I I #
straight-curve $-1 50.431226538895842 -40.675692218155959 5.5820415460350121 0 0 -1 I I #
straight-curve $-1 0 40.675692218155966 7.6974154363010525 -1 0 0 I I #
straight-curve $-1 -50.431226538895842 40.675692218155966 5.5820415460350121 0 0 -1 I I #
point $-1 -50.431226538895842 40.675692218155966 7.6974154363010525 #
End-of-ACIS-data 