500 0 7 0           
7 Unknown 11 ACIS 5.0 NT 24 Fri Mar 26 20:25:40 1999 
-1 9.9999999999999995e-007 1e-010 
body $-1 $7 $-1 $8 #
body $-1 $9 $-1 $10 #
body $-1 $11 $-1 $12 #
body $-1 $13 $-1 $14 #
body $-1 $15 $-1 $16 #
body $-1 $17 $-1 $18 #
body $-1 $19 $-1 $20 #
lump $-1 $-1 $21 $0 #
transform $-1 1 0 0 0 1 0 0 0 1 60.064088869899592 34.520857595282145 11.034095340561771 1 rotate no_reflect no_shear #
lump $-1 $-1 $22 $1 #
transform $-1 1 0 0 0 1 0 0 0 1 60.064088869899592 34.520857595282145 11.034095340561771 1 rotate no_reflect no_shear #
lump $-1 $-1 $23 $2 #
transform $-1 1 0 0 0 1 0 0 0 1 60.064088869899592 34.520857595282145 11.034095340561771 1 rotate no_reflect no_shear #
lump $-1 $-1 $24 $3 #
transform $-1 1 0 0 0 1 0 0 0 1 60.064088869899592 34.520857595282145 11.034095340561771 1 rotate no_reflect no_shear #
lump $-1 $-1 $25 $4 #
transform $-1 1 0 0 0 1 0 0 0 1 60.064088869899592 34.520857595282145 11.034095340561771 1 rotate no_reflect no_shear #
lump $-1 $-1 $26 $5 #
transform $-1 1 0 0 0 1 0 0 0 1 60.064088869899592 34.520857595282145 11.034095340561771 1 rotate no_reflect no_shear #
lump $-1 $-1 $27 $6 #
transform $-1 1 0 0 0 1 0 0 0 1 60.064088869899592 34.520857595282145 11.034095340561771 1 rotate no_reflect no_shear #
shell $-1 $-1 $-1 $28 $-1 $7 #
shell $-1 $-1 $-1 $29 $-1 $9 #
shell $-1 $-1 $-1 $30 $-1 $11 #
shell $-1 $-1 $-1 $31 $-1 $13 #
shell $-1 $-1 $-1 $32 $-1 $15 #
shell $-1 $-1 $-1 $33 $-1 $17 #
shell $-1 $-1 $-1 $34 $-1 $19 #
face $-1 $35 $36 $21 $-1 $37 forward single #
face $-1 $38 $39 $22 $-1 $40 reversed single #
face $-1 $41 $42 $23 $-1 $43 forward single #
face $-1 $44 $45 $24 $-1 $46 forward single #
face $-1 $47 $48 $25 $-1 $49 reversed single #
face $-1 $50 $51 $26 $-1 $52 forward single #
face $-1 $53 $54 $27 $-1 $55 forward single #
face $-1 $56 $57 $21 $-1 $58 reversed single #
loop $-1 $-1 $59 $28 #
plane-surface $-1 0 0 11.034095340561771 0 0 1 1 0 0 forward_v I I I I #
face $-1 $60 $61 $22 $-1 $62 reversed single #
loop $-1 $-1 $63 $29 #
plane-surface $-1 -123.72232527198572 -21.531946395226193 104.75862557743289 0 -1 0 0.52991927123019833 0 -0.84804809178421925 forward_v I I I I #
face $-1 $64 $65 $23 $-1 $66 forward single #
loop $-1 $67 $68 $30 #
cone-surface $-1 -53.240527481626891 -30.809740109551871 6.4754314392606185 0.52991927123019833 0 -0.84804809178421925 0.84804809178421925 0 0.52991927123019833 1 I I 0 1 1 forward I I I I #
face $-1 $69 $70 $24 $-1 $71 forward single #
loop $-1 $72 $73 $31 #
cone-surface $-1 -53.240527481626891 -25.243063880956463 6.4754314392606185 0.52991927123019833 0 -0.84804809178421925 0.84804809178421925 0 0.52991927123019833 1 I I 0 1 1 forward I I I I #
face $-1 $74 $75 $25 $-1 $76 reversed single #
loop $-1 $-1 $77 $32 #
plane-surface $-1 -41.810383031852609 -28.026401995254169 66.542390077766797 0.52991927123019833 0 0.84804809178421925 0.84804809178421925 0 -0.52991927123019833 forward_v I I I I #
face $-1 $78 $79 $26 $-1 $80 forward single #
loop $-1 $81 $82 $33 #
cone-surface $-1 53.240527481626899 -30.809740109551871 6.4754314392606185 -0.52991927123019833 0 -0.84804809178421925 0.84804809178421925 0 -0.52991927123019833 1 I I 0 1 1 forward I I I I #
face $-1 $83 $84 $27 $-1 $85 forward single #
loop $-1 $86 $87 $34 #
cone-surface $-1 53.240527481626899 -25.243063880956463 6.4754314392606185 -0.52991927123019833 0 -0.84804809178421925 0.84804809178421925 0 -0.52991927123019833 1 I I 0 1 1 forward I I I I #
face $-1 $88 $89 $21 $-1 $90 reversed single #
loop $-1 $-1 $91 $35 #
plane-surface $-1 0 0 -11.034095340561771 0 0 1 1 0 0 forward_v I I I I #
coedge $-1 $92 $93 $94 $95 forward $36 $-1 #
face $-1 $96 $97 $22 $-1 $98 forward single #
loop $-1 $-1 $99 $38 #
plane-surface $-1 -60.064088869899606 -28.026401995254169 2.8841536756806789 -0.52991927123019833 0 0.84804809178421925 0.84804809178421925 0 0.52991927123019833 forward_v I I I I #
coedge $-1 $100 $101 $102 $103 reversed $39 $-1 #
face $-1 $-1 $104 $23 $-1 $105 forward single #
loop $-1 $106 $107 $41 #
cone-surface $-1 -52.673322866000767 -30.809740109551871 5.567714324507909 0.52991927123019833 0 -0.84804809178421925 0.42402404589210962 0 0.26495963561509916 1 I I -0.70710678118654746 0.70710678118654746 0.5 forward I I I I #
loop $-1 $-1 $108 $30 #
coedge $-1 $68 $68 $109 $110 reversed $42 $-1 #
face $-1 $-1 $111 $24 $-1 $112 forward single #
loop $-1 $113 $114 $44 #
cone-surface $-1 -52.673322866000767 -25.243063880956463 5.567714324507909 0.52991927123019833 0 -0.84804809178421925 0.42402404589210962 0 0.26495963561509916 1 I I -0.70710678118654746 0.70710678118654746 0.5 forward I I I I #
loop $-1 $-1 $115 $31 #
coedge $-1 $73 $73 $116 $117 reversed $45 $-1 #
face $-1 $118 $119 $25 $-1 $120 forward single #
loop $-1 $-1 $121 $47 #
plane-surface $-1 21.847853370233508 -21.531946395226193 168.41686197951901 0 -1 0 -0.52991927123019833 0 -0.84804809178421925 forward_v I I I I #
coedge $-1 $122 $123 $124 $125 reversed $48 $-1 #
face $-1 $-1 $126 $26 $-1 $127 forward single #
loop $-1 $128 $129 $50 #
cone-surface $-1 52.673322866000774 -30.809740109551871 5.567714324507909 -0.52991927123019833 0 -0.84804809178421925 0.42402404589210962 0 -0.26495963561509916 1 I I -0.70710678118654746 0.70710678118654746 0.5 forward I I I I #
loop $-1 $-1 $130 $33 #
coedge $-1 $82 $82 $131 $132 reversed $51 $-1 #
face $-1 $-1 $133 $27 $-1 $134 forward single #
loop $-1 $135 $136 $53 #
cone-surface $-1 52.673322866000774 -25.243063880956463 5.567714324507909 -0.52991927123019833 0 -0.84804809178421925 0.42402404589210962 0 -0.26495963561509916 1 I I -0.70710678118654746 0.70710678118654746 0.5 forward I I I I #
loop $-1 $-1 $137 $34 #
coedge $-1 $87 $87 $138 $139 reversed $54 $-1 #
face $-1 $140 $141 $21 $-1 $142 reversed single #
loop $-1 $-1 $143 $56 #
plane-surface $-1 0 -34.520857595282145 0 0 1 0 0 0 1 forward_v I I I I #
coedge $-1 $144 $145 $146 $147 forward $57 $-1 #
coedge $-1 $148 $59 $149 $150 forward $36 $-1 #
coedge $-1 $59 $148 $151 $152 forward $36 $-1 #
coedge $-1 $153 $154 $59 $95 reversed $155 $-1 #
edge $-1 $156 -34.520857595282145 $157 34.520857595282145 $94 $158 forward 7 unknown #
face $-1 $159 $160 $22 $-1 $161 reversed single #
loop $-1 $-1 $162 $60 #
plane-surface $-1 0 0 11.034095340561771 0 0 1 1 0 0 forward_v I I I I #
coedge $-1 $163 $164 $165 $166 reversed $61 $-1 #
coedge $-1 $101 $63 $167 $168 reversed $39 $-1 #
coedge $-1 $63 $100 $163 $169 reversed $39 $-1 #
coedge $-1 $165 $170 $63 $103 forward $160 $-1 #
edge $-1 $171 41.345217448154678 $172 49.495159113035761 $102 $173 forward 7 unknown #
loop $-1 $-1 $109 $64 #
plane-surface $-1 -60.064088869899606 -28.026401995254169 2.8841536756806789 -0.52991927123019833 0 0.84804809178421925 0.84804809178421925 0 0.52991927123019833 forward_v I I I I #
loop $-1 $-1 $174 $41 #
coedge $-1 $107 $107 $108 $175 reversed $65 $-1 #
coedge $-1 $108 $108 $107 $175 forward $67 $-1 #
coedge $-1 $109 $109 $68 $110 forward $104 $-1 #
edge $-1 $176 0 $176 6.2831853071796004 $109 $177 forward 7 unknown #
loop $-1 $-1 $116 $69 #
plane-surface $-1 -60.064088869899606 -28.026401995254169 2.8841536756806789 -0.52991927123019833 0 0.84804809178421925 0.84804809178421925 0 0.52991927123019833 forward_v I I I I #
loop $-1 $-1 $178 $44 #
coedge $-1 $114 $114 $115 $179 reversed $70 $-1 #
coedge $-1 $115 $115 $114 $179 forward $72 $-1 #
coedge $-1 $116 $116 $73 $117 forward $111 $-1 #
edge $-1 $180 0 $180 6.2831853071796004 $116 $181 forward 7 unknown #
face $-1 $182 $183 $25 $-1 $184 reversed single #
loop $-1 $-1 $185 $74 #
plane-surface $-1 0 0 11.034095340561771 0 0 1 1 0 0 forward_v I I I I #
coedge $-1 $186 $187 $188 $189 reversed $75 $-1 #
coedge $-1 $190 $77 $191 $192 reversed $48 $-1 #
coedge $-1 $77 $190 $186 $193 forward $48 $-1 #
coedge $-1 $188 $194 $77 $125 forward $195 $-1 #
edge $-1 $196 -20.50765659765506 $197 -7.5187453975991083 $124 $198 forward 7 unknown #
loop $-1 $-1 $131 $78 #
plane-surface $-1 -41.810383031852609 -28.026401995254169 66.542390077766797 0.52991927123019833 0 0.84804809178421925 0.84804809178421925 0 -0.52991927123019833 forward_v I I I I #
loop $-1 $-1 $199 $50 #
coedge $-1 $129 $129 $130 $200 reversed $79 $-1 #
coedge $-1 $130 $130 $129 $200 forward $81 $-1 #
coedge $-1 $131 $131 $82 $132 forward $126 $-1 #
edge $-1 $201 0 $201 6.2831853071796004 $131 $202 forward 7 unknown #
loop $-1 $-1 $138 $83 #
plane-surface $-1 -41.810383031852609 -28.026401995254169 66.542390077766797 0.52991927123019833 0 0.84804809178421925 0.84804809178421925 0 -0.52991927123019833 forward_v I I I I #
loop $-1 $-1 $203 $53 #
coedge $-1 $136 $136 $137 $204 reversed $84 $-1 #
coedge $-1 $137 $137 $136 $204 forward $86 $-1 #
coedge $-1 $138 $138 $87 $139 forward $133 $-1 #
edge $-1 $205 0 $205 6.2831853071796004 $138 $206 forward 7 unknown #
face $-1 $207 $208 $21 $-1 $209 reversed single #
loop $-1 $-1 $210 $88 #
plane-surface $-1 -60.064088869899592 0 0 1 0 0 0 0 -1 forward_v I I I I #
coedge $-1 $211 $151 $212 $213 forward $89 $-1 #
coedge $-1 $214 $91 $211 $215 forward $57 $-1 #
coedge $-1 $91 $214 $216 $217 forward $57 $-1 #
coedge $-1 $154 $153 $91 $147 reversed $155 $-1 #
edge $-1 $218 -34.520857595282145 $219 34.520857595282145 $146 $220 forward 7 unknown #
coedge $-1 $93 $92 $221 $222 forward $36 $-1 #
coedge $-1 $223 $224 $92 $150 reversed $208 $-1 #
edge $-1 $157 -60.064088869899592 $225 60.064088869899592 $149 $226 forward 7 unknown #
coedge $-1 $143 $227 $93 $152 reversed $89 $-1 #
edge $-1 $228 -60.064088869899592 $156 60.064088869899592 $151 $229 forward 7 unknown #
coedge $-1 $146 $94 $227 $230 forward $155 $-1 #
coedge $-1 $94 $146 $223 $231 reversed $155 $-1 #
loop $-1 $-1 $153 $207 #
vertex $-1 $95 $232 #
vertex $-1 $95 $233 #
straight-curve $-1 60.064088869899592 0 11.034095340561771 0 1 0 I I #
face $-1 $-1 $234 $22 $-1 $235 reversed single #
loop $-1 $-1 $102 $96 #
plane-surface $-1 -60.064088869899592 0 0 1 0 0 0 0 -1 forward_v I I I I #
coedge $-1 $167 $236 $237 $238 forward $97 $-1 #
coedge $-1 $237 $99 $101 $169 forward $61 $-1 #
coedge $-1 $99 $237 $239 $240 reversed $61 $-1 #
coedge $-1 $241 $102 $99 $166 forward $160 $-1 #
edge $-1 $172 7.5187453975991083 $242 20.50765659765506 $165 $243 forward 7 unknown #
coedge $-1 $244 $162 $100 $168 forward $97 $-1 #
edge $-1 $245 -14.839706582616586 $171 -1.7970737660932699 $167 $246 forward 7 unknown #
edge $-1 $172 1.675811683274863e-014 $245 15.379591019517264 $101 $247 forward 7 unknown #
coedge $-1 $102 $241 $244 $248 reversed $160 $-1 #
vertex $-1 $248 $249 #
vertex $-1 $103 $250 #
straight-curve $-1 -60.064088869899592 -21.531946395226193 52.379312788716447 0 0 -1 I I #
coedge $-1 $174 $174 $-1 $251 reversed $106 $-1 #
edge $-1 $252 0 $252 6.2831853071796004 $107 $253 forward 7 unknown #
vertex $-1 $110 $254 #
ellipse-curve $-1 -53.542772461637924 -30.809740109551871 6.959124508121235 -0.52991927123019833 0 0.84804809178421925 0.84804809178421925 0 0.52991927123019833 1 I I #
coedge $-1 $178 $178 $-1 $255 reversed $113 $-1 #
edge $-1 $256 0 $256 6.2831853071796004 $114 $257 forward 7 unknown #
vertex $-1 $117 $258 #
ellipse-curve $-1 -53.542772461637924 -25.243063880956463 6.959124508121235 -0.52991927123019833 0 0.84804809178421925 0.84804809178421925 0 0.52991927123019833 1 I I #
face $-1 $-1 $195 $25 $-1 $259 reversed single #
loop $-1 $-1 $191 $118 #
plane-surface $-1 0 -34.520857595282145 0 0 1 0 0 0 1 forward_v I I I I #
coedge $-1 $260 $261 $187 $262 forward $119 $-1 #
coedge $-1 $187 $121 $123 $193 reversed $75 $-1 #
coedge $-1 $121 $186 $185 $262 reversed $75 $-1 #
coedge $-1 $263 $124 $121 $189 forward $195 $-1 #
edge $-1 $197 -81.324277314078813 $264 -73.174335649197729 $188 $265 forward 7 unknown #
coedge $-1 $123 $122 $260 $266 reversed $48 $-1 #
coedge $-1 $267 $268 $122 $192 forward $183 $-1 #
edge $-1 $269 69.388931518854093 $196 84.768522538371329 $191 $270 forward 7 unknown #
edge $-1 $271 104.74858672028193 $197 120.12817773979917 $186 $272 forward 7 unknown #
coedge $-1 $124 $263 $267 $273 forward $195 $-1 #
loop $-1 $-1 $188 $182 #
vertex $-1 $192 $274 #
vertex $-1 $125 $275 #
straight-curve $-1 60.064088869899592 -14.013200997627084 2.884153675680686 0 1 0 I I #
coedge $-1 $199 $199 $-1 $276 reversed $128 $-1 #
edge $-1 $277 0 $277 6.2831853071796004 $129 $278 forward 7 unknown #
vertex $-1 $132 $279 #
ellipse-curve $-1 53.542772461637931 -30.809740109551871 6.959124508121235 0.52991927123019833 0 0.84804809178421925 0.84804809178421925 0 -0.52991927123019833 1 I I #
coedge $-1 $203 $203 $-1 $280 reversed $135 $-1 #
edge $-1 $281 0 $281 6.2831853071796004 $136 $282 forward 7 unknown #
vertex $-1 $139 $283 #
ellipse-curve $-1 53.542772461637931 -25.243063880956463 6.959124508121235 0.52991927123019833 0 0.84804809178421925 0.84804809178421925 0 -0.52991927123019833 1 I I #
face $-1 $-1 $155 $21 $-1 $284 reversed single #
loop $-1 $-1 $223 $140 #
plane-surface $-1 0 34.520857595282145 0 0 -1 0 0 0 -1 forward_v I I I I #
coedge $-1 $285 $221 $224 $286 forward $141 $-1 #
coedge $-1 $227 $143 $144 $215 reversed $89 $-1 #
coedge $-1 $221 $285 $143 $213 reversed $141 $-1 #
edge $-1 $228 -11.034095340561771 $287 11.034095340561771 $212 $288 forward 7 unknown #
coedge $-1 $145 $144 $285 $289 forward $57 $-1 #
edge $-1 $219 -60.064088869899592 $287 60.064088869899592 $211 $290 forward 7 unknown #
coedge $-1 $224 $223 $145 $217 reversed $208 $-1 #
edge $-1 $291 -60.064088869899592 $218 60.064088869899592 $216 $292 forward 7 unknown #
vertex $-1 $147 $293 #
vertex $-1 $230 $294 #
straight-curve $-1 60.064088869899592 0 -11.034095340561771 0 -1 0 I I #
coedge $-1 $210 $212 $148 $222 reversed $141 $-1 #
edge $-1 $225 -34.520857595282145 $228 34.520857595282145 $221 $295 forward 7 unknown #
coedge $-1 $216 $149 $154 $231 forward $208 $-1 #
coedge $-1 $149 $216 $210 $286 reversed $208 $-1 #
vertex $-1 $150 $296 #
straight-curve $-1 0 34.520857595282145 11.034095340561771 -1 0 0 I I #
coedge $-1 $151 $211 $153 $230 reversed $89 $-1 #
vertex $-1 $222 $297 #
straight-curve $-1 0 -34.520857595282145 11.034095340561771 1 0 0 I I #
edge $-1 $156 -11.034095340561771 $219 11.034095340561771 $153 $298 forward 7 unknown #
edge $-1 $157 -11.034095340561771 $218 11.034095340561771 $154 $299 forward 7 unknown #
point $-1 60.064088869899592 -34.520857595282145 11.034095340561771 #
point $-1 60.064088869899592 34.520857595282145 11.034095340561771 #
loop $-1 $-1 $239 $159 #
plane-surface $-1 0 -34.520857595282145 0 0 1 0 0 0 1 forward_v I I I I #
coedge $-1 $162 $244 $300 $301 forward $97 $-1 #
coedge $-1 $164 $163 $162 $238 reversed $61 $-1 #
edge $-1 $302 -20.50765659765506 $245 -7.5187453975991083 $162 $303 forward 7 unknown #
coedge $-1 $300 $304 $164 $240 forward $234 $-1 #
edge $-1 $242 -24.704433668471744 $302 -9.3248426489544958 $239 $305 forward 7 unknown #
coedge $-1 $170 $165 $304 $306 reversed $160 $-1 #
vertex $-1 $166 $307 #
straight-curve $-1 -60.064088869899592 -14.013200997627084 2.884153675680686 0 -1 0 I I #
coedge $-1 $236 $167 $170 $248 forward $97 $-1 #
vertex $-1 $168 $308 #
straight-curve $-1 -61.861162635992862 -21.531946395226193 11.03409534056177 -1 0 0 I I #
straight-curve $-1 -60.064088869899606 -21.531946395226193 2.8841536756806789 0.84804809178421925 0 0.52991927123019833 I I #
edge $-1 $171 21.531946395226193 $309 34.520857595282145 $170 $310 forward 7 unknown #
point $-1 -60.064088869899592 -21.531946395226193 11.034095340561771 #
point $-1 -60.064088869899592 -21.531946395226193 2.8841536756806878 #
edge $-1 $311 1 $311 0 $174 $-1 forward 7 unknown #
vertex $-1 $175 $312 #
ellipse-curve $-1 -52.938282501615866 -30.809740109551871 5.9917383704000189 -0.52991927123019833 0 0.84804809178421925 0.84804809178421925 0 0.52991927123019833 1 I I #
point $-1 -52.694724369853695 -30.809740109551871 7.489043779351416 #
edge $-1 $313 1 $313 0 $178 $-1 forward 7 unknown #
vertex $-1 $179 $314 #
ellipse-curve $-1 -52.938282501615866 -25.243063880956463 5.9917383704000189 -0.52991927123019833 0 0.84804809178421925 0.84804809178421925 0 0.52991927123019833 1 I I #
point $-1 -52.694724369853695 -25.243063880956463 7.489043779351416 #
plane-surface $-1 60.064088869899592 0 0 -1 0 0 0 0 1 forward_v I I I I #
coedge $-1 $315 $185 $190 $266 forward $119 $-1 #
coedge $-1 $185 $315 $263 $316 forward $119 $-1 #
edge $-1 $264 -49.140162184782838 $271 -36.097529368259529 $185 $317 forward 7 unknown #
coedge $-1 $194 $188 $261 $316 reversed $195 $-1 #
vertex $-1 $262 $318 #
straight-curve $-1 60.064088869899592 -21.531946395226193 84.208430989759506 0 0 1 I I #
edge $-1 $271 7.5187453975991083 $269 20.50765659765506 $260 $319 forward 7 unknown #
coedge $-1 $268 $191 $194 $273 reversed $183 $-1 #
coedge $-1 $191 $267 $315 $320 reversed $183 $-1 #
vertex $-1 $320 $321 #
straight-curve $-1 -11.823694912133794 -34.520857595282145 47.804627362475074 0.84804809178421925 0 -0.52991927123019833 I I #
vertex $-1 $266 $322 #
straight-curve $-1 -41.810383031852609 -21.531946395226193 66.542390077766797 0.84804809178421925 0 -0.52991927123019833 I I #
edge $-1 $323 -11.034095340561771 $196 -2.8841536756806927 $194 $324 forward 7 unknown #
point $-1 60.064088869899592 -34.520857595282145 2.8841536756806927 #
point $-1 60.064088869899592 -21.531946395226193 2.8841536756806931 #
edge $-1 $325 1 $325 0 $199 $-1 forward 7 unknown #
vertex $-1 $200 $326 #
ellipse-curve $-1 52.938282501615873 -30.809740109551871 5.9917383704000189 0.52991927123019833 0 0.84804809178421925 0.84804809178421925 0 -0.52991927123019833 1 I I #
point $-1 54.390820553422138 -30.809740109551871 6.4292052368910193 #
edge $-1 $327 1 $327 0 $203 $-1 forward 7 unknown #
vertex $-1 $204 $328 #
ellipse-curve $-1 52.938282501615873 -25.243063880956463 5.9917383704000189 0.52991927123019833 0 0.84804809178421925 0.84804809178421925 0 -0.52991927123019833 1 I I #
point $-1 54.390820553422138 -25.243063880956463 6.4292052368910193 #
plane-surface $-1 60.064088869899592 0 0 -1 0 0 0 0 1 forward_v I I I I #
coedge $-1 $212 $210 $214 $289 reversed $141 $-1 #
edge $-1 $225 -11.034095340561771 $291 11.034095340561771 $224 $329 forward 7 unknown #
vertex $-1 $289 $330 #
straight-curve $-1 -60.064088869899592 -34.520857595282145 0 0 0 -1 I I #
edge $-1 $287 -34.520857595282145 $291 34.520857595282145 $285 $331 forward 7 unknown #
straight-curve $-1 0 -34.520857595282145 -11.034095340561771 -1 0 0 I I #
vertex $-1 $217 $332 #
straight-curve $-1 0 34.520857595282145 -11.034095340561771 1 0 0 I I #
point $-1 60.064088869899592 34.520857595282145 -11.034095340561771 #
point $-1 60.064088869899592 -34.520857595282145 -11.034095340561771 #
straight-curve $-1 -60.064088869899592 0 11.034095340561771 0 -1 0 I I #
point $-1 -60.064088869899592 34.520857595282145 11.034095340561771 #
point $-1 -60.064088869899592 -34.520857595282145 11.034095340561771 #
straight-curve $-1 60.064088869899592 -34.520857595282145 0 0 0 -1 I I #
straight-curve $-1 60.064088869899592 34.520857595282145 0 0 0 -1 I I #
coedge $-1 $304 $239 $236 $301 reversed $234 $-1 #
edge $-1 $309 -60.064088869899592 $302 -47.021456053376276 $300 $333 forward 7 unknown #
vertex $-1 $240 $334 #
straight-curve $-1 -47.021456053376284 -14.013200997627084 11.03409534056177 0 1 0 I I #
coedge $-1 $239 $300 $241 $306 forward $234 $-1 #
straight-curve $-1 -39.113541038742312 -34.520857595282145 15.975509161432008 0.84804809178421925 0 0.52991927123019833 I I #
edge $-1 $309 -11.034095340561771 $242 -2.8841536756806878 $241 $335 forward 7 unknown #
point $-1 -60.064088869899592 -34.520857595282145 2.8841536756806878 #
point $-1 -47.021456053376276 -21.531946395226193 11.034095340561771 #
vertex $-1 $248 $336 #
straight-curve $-1 -60.064088869899592 0 11.034095340561771 0 -1 0 I I #
vertex $-1 $251 $337 #
point $-1 -52.090234409831645 -30.809740109551871 6.5216576416302168 #
vertex $-1 $255 $338 #
point $-1 -52.090234409831645 -25.243063880956463 6.5216576416302168 #
coedge $-1 $261 $260 $268 $320 forward $119 $-1 #
edge $-1 $323 -34.520857595282145 $264 -21.531946395226193 $263 $339 forward 7 unknown #
straight-curve $-1 10.923926685116754 -21.531946395226193 11.034095340561777 -1 0 0 I I #
point $-1 60.064088869899592 -21.531946395226193 11.034095340561771 #
straight-curve $-1 47.021456053376298 -14.013200997627084 11.034095340561763 0 -1 0 I I #
edge $-1 $269 47.021456053376284 $323 60.064088869899592 $268 $340 forward 7 unknown #
point $-1 47.021456053376284 -34.520857595282145 11.03409534056177 #
point $-1 47.021456053376284 -21.531946395226193 11.03409534056177 #
vertex $-1 $316 $341 #
straight-curve $-1 60.064088869899592 -34.520857595282145 0 0 0 -1 I I #
vertex $-1 $276 $342 #
point $-1 53.786330593400095 -30.809740109551871 5.4618190991698201 #
vertex $-1 $280 $343 #
point $-1 53.786330593400095 -25.243063880956463 5.4618190991698201 #
straight-curve $-1 -60.064088869899592 34.520857595282145 0 0 0 -1 I I #
point $-1 -60.064088869899592 -34.520857595282145 -11.034095340561771 #
straight-curve $-1 -60.064088869899592 0 -11.034095340561771 0 1 0 I I #
point $-1 -60.064088869899592 34.520857595282145 -11.034095340561771 #
straight-curve $-1 0 -34.520857595282145 11.034095340561771 1 0 0 I I #
point $-1 -47.021456053376276 -34.520857595282145 11.034095340561771 #
straight-curve $-1 -60.064088869899592 -34.520857595282145 0 0 0 -1 I I #
point $-1 -60.064088869899592 -34.520857595282145 11.034095340561771 #
point $-1 -52.408363230385667 -30.809740109551871 5.1436902786157992 #
point $-1 -52.408363230385667 -25.243063880956463 5.1436902786157992 #
straight-curve $-1 60.064088869899592 0 11.034095340561771 0 1 0 I I #
straight-curve $-1 0 -34.520857595282145 11.034095340561771 1 0 0 I I #
point $-1 60.064088869899592 -34.520857595282145 11.034095340561771 #
point $-1 52.408363230385675 -30.809740109551871 5.1436902786157992 #
point $-1 52.408363230385675 -25.243063880956463 5.1436902786157992 #
End-of-ACIS-data 