500 0 4 0           
7 Unknown 11 ACIS 5.0 NT 24 Fri Mar 26 15:09:35 1999 
-1 9.9999999999999995e-007 1e-010 
body $-1 $4 $-1 $5 #
body $-1 $6 $-1 $7 #
body $-1 $8 $-1 $9 #
body $-1 $10 $-1 $11 #
lump $-1 $-1 $12 $0 #
transform $-1 1 0 0 0 1 0 0 0 1 61.769463179418317 34.647038014266883 14.800091283477084 1 rotate no_reflect no_shear #
lump $-1 $-1 $13 $1 #
transform $-1 1 0 0 0 1 0 0 0 1 61.769463179418317 34.647038014266883 14.800091283477084 1 rotate no_reflect no_shear #
lump $-1 $-1 $14 $2 #
transform $-1 1 0 0 0 1 0 0 0 1 61.769463179418317 34.647038014266883 14.800091283477084 1 rotate no_reflect no_shear #
lump $-1 $-1 $15 $3 #
transform $-1 1 0 0 0 1 0 0 0 1 61.769463179418317 34.647038014266883 14.800091283477084 1 rotate no_reflect no_shear #
shell $-1 $-1 $-1 $16 $-1 $4 #
shell $-1 $-1 $-1 $17 $-1 $6 #
shell $-1 $-1 $-1 $18 $-1 $8 #
shell $-1 $-1 $-1 $19 $-1 $10 #
face $-1 $20 $21 $12 $-1 $22 forward single #
face $-1 $23 $24 $13 $-1 $25 forward single #
face $-1 $26 $27 $14 $-1 $28 forward single #
face $-1 $29 $30 $15 $-1 $31 reversed single #
face $-1 $32 $33 $12 $-1 $34 reversed single #
loop $-1 $-1 $35 $16 #
plane-surface $-1 0 0 14.800091283477084 0 0 1 1 0 0 forward_v I I I I #
face $-1 $36 $37 $13 $-1 $38 forward single #
loop $-1 $-1 $39 $17 #
plane-surface $-1 -40.050518089351925 -27.5506094677996 0 1 0 0 0 0 -1 forward_v I I I I #
face $-1 $40 $41 $14 $-1 $42 forward single #
loop $-1 $-1 $43 $18 #
plane-surface $-1 -34.943189101198449 84.741974272565372 138.27013715188104 -1 0 0 0 0.7660444514056185 0.64278759981090561 forward_v I I I I #
face $-1 $44 $45 $15 $-1 $46 reversed single #
loop $-1 $47 $48 $19 #
cone-surface $-1 -48.356326140308383 27.848715338636239 7.7608242195366195 0 -0.7660444514056185 -0.64278759981090561 2.5 0 0 1 I I 0 1 2.5 forward I I I I #
face $-1 $49 $50 $12 $-1 $51 reversed single #
loop $-1 $-1 $52 $20 #
plane-surface $-1 0 0 -14.800091283477084 0 0 1 1 0 0 forward_v I I I I #
coedge $-1 $53 $54 $55 $56 forward $21 $-1 #
face $-1 $57 $58 $13 $-1 $59 forward single #
loop $-1 $-1 $60 $23 #
plane-surface $-1 -37.067780493334666 -20.454180921332316 0 0 -1 0 0 0 -1 forward_v I I I I #
coedge $-1 $61 $62 $63 $64 reversed $24 $-1 #
face $-1 $65 $66 $14 $-1 $67 reversed single #
loop $-1 $-1 $68 $26 #
plane-surface $-1 -48.356326140308383 -9.894334797228737 58.860847194468221 0 0.7660444514056185 0.64278759981090561 1 0 0 forward_v I I I I #
coedge $-1 $69 $70 $71 $72 reversed $27 $-1 #
face $-1 $73 $74 $15 $-1 $75 forward single #
loop $-1 $76 $77 $29 #
cone-surface $-1 -48.356326140308383 23.877841971321303 4.4288659288056387 0 -0.7660444514056185 -0.64278759981090561 1.25 0 0 1 I I -0.70710678118654746 0.70710678118654746 1.25 forward I I I I #
loop $-1 $-1 $78 $19 #
coedge $-1 $48 $48 $79 $80 reversed $30 $-1 #
face $-1 $81 $82 $12 $-1 $83 reversed single #
loop $-1 $-1 $84 $32 #
plane-surface $-1 0 -34.647038014266883 0 0 1 0 0 0 1 forward_v I I I I #
coedge $-1 $85 $86 $87 $88 forward $33 $-1 #
coedge $-1 $89 $35 $90 $91 forward $21 $-1 #
coedge $-1 $35 $89 $92 $93 forward $21 $-1 #
coedge $-1 $94 $95 $35 $56 reversed $96 $-1 #
edge $-1 $97 -34.647038014266883 $98 34.647038014266883 $55 $99 forward 7 unknown #
face $-1 $100 $101 $13 $-1 $102 forward single #
loop $-1 $-1 $103 $36 #
plane-surface $-1 -34.085042897317408 -27.5506094677996 0 -1 0 0 0 0 1 forward_v I I I I #
coedge $-1 $104 $105 $106 $107 reversed $37 $-1 #
coedge $-1 $108 $39 $109 $110 reversed $24 $-1 #
coedge $-1 $39 $108 $111 $112 reversed $24 $-1 #
coedge $-1 $105 $104 $39 $64 forward $37 $-1 #
edge $-1 $113 -14.800091283477084 $114 14.800091283477084 $63 $115 forward 7 unknown #
face $-1 $116 $117 $14 $-1 $118 forward single #
loop $-1 $-1 $119 $40 #
plane-surface $-1 0 34.647038014266883 0 0 -1 0 0 0 -1 forward_v I I I I #
coedge $-1 $120 $121 $119 $122 reversed $41 $-1 #
coedge $-1 $70 $43 $121 $123 forward $27 $-1 #
coedge $-1 $43 $69 $124 $125 reversed $27 $-1 #
coedge $-1 $126 $119 $43 $72 forward $66 $-1 #
edge $-1 $127 -63.356563838409656 $128 -54.334977292463435 $71 $129 forward 7 unknown #
face $-1 $130 $131 $15 $-1 $132 forward single #
loop $-1 $-1 $133 $44 #
plane-surface $-1 -34.943189101198449 84.741974272565372 138.27013715188104 -1 0 0 0 0.7660444514056185 0.64278759981090561 forward_v I I I I #
loop $-1 $-1 $134 $29 #
coedge $-1 $77 $77 $78 $135 forward $45 $-1 #
coedge $-1 $78 $78 $77 $135 reversed $47 $-1 #
coedge $-1 $79 $79 $48 $80 forward $131 $-1 #
edge $-1 $136 1.9399027808245752e-016 $136 6.2831853071796004 $79 $137 forward 7 unknown #
face $-1 $138 $139 $12 $-1 $140 reversed single #
loop $-1 $-1 $141 $49 #
plane-surface $-1 -61.769463179418317 0 0 1 0 0 0 0 -1 forward_v I I I I #
coedge $-1 $142 $92 $143 $144 forward $50 $-1 #
coedge $-1 $145 $52 $142 $146 forward $33 $-1 #
coedge $-1 $52 $145 $147 $148 forward $33 $-1 #
coedge $-1 $95 $94 $52 $88 reversed $96 $-1 #
edge $-1 $149 -34.647038014266883 $150 34.647038014266883 $87 $151 forward 7 unknown #
coedge $-1 $54 $53 $152 $153 forward $21 $-1 #
coedge $-1 $154 $155 $53 $91 reversed $139 $-1 #
edge $-1 $98 -61.769463179418317 $156 61.769463179418317 $90 $157 forward 7 unknown #
coedge $-1 $84 $158 $54 $93 reversed $50 $-1 #
edge $-1 $159 -61.769463179418317 $97 61.769463179418317 $92 $160 forward 7 unknown #
coedge $-1 $87 $55 $158 $161 forward $96 $-1 #
coedge $-1 $55 $87 $154 $162 reversed $96 $-1 #
loop $-1 $-1 $94 $138 #
vertex $-1 $56 $163 #
vertex $-1 $56 $164 #
straight-curve $-1 61.769463179418317 0 14.800091283477084 0 1 0 I I #
face $-1 $165 $166 $13 $-1 $167 reversed single #
loop $-1 $-1 $109 $57 #
plane-surface $-1 0 0 14.800091283477084 0 0 1 1 0 0 forward_v I I I I #
coedge $-1 $168 $169 $170 $171 reversed $58 $-1 #
coedge $-1 $63 $60 $172 $173 reversed $37 $-1 #
coedge $-1 $60 $63 $174 $175 reversed $37 $-1 #
coedge $-1 $169 $168 $60 $107 forward $58 $-1 #
edge $-1 $176 -14.800091283477084 $177 14.800091283477084 $106 $178 forward 7 unknown #
coedge $-1 $62 $61 $179 $180 reversed $24 $-1 #
coedge $-1 $172 $181 $61 $110 forward $101 $-1 #
edge $-1 $182 -20.871733280367081 $113 -6.6788761874325164 $109 $183 forward 7 unknown #
coedge $-1 $184 $174 $62 $112 forward $185 $-1 #
edge $-1 $114 6.6788761874325164 $186 20.871733280367081 $111 $187 forward 7 unknown #
vertex $-1 $110 $188 #
vertex $-1 $112 $189 #
straight-curve $-1 -40.050518089351925 -20.454180921332316 0 0 0 -1 I I #
face $-1 $190 $191 $14 $-1 $192 forward single #
loop $-1 $-1 $124 $65 #
plane-surface $-1 0 0 14.800091283477084 0 0 1 1 0 0 forward_v I I I I #
coedge $-1 $71 $193 $68 $122 forward $66 $-1 #
coedge $-1 $194 $68 $195 $196 reversed $41 $-1 #
coedge $-1 $68 $194 $69 $123 reversed $41 $-1 #
edge $-1 $197 -37.591300109264125 $127 -10.765026031044258 $119 $198 forward 7 unknown #
edge $-1 $127 -69.294076028533766 $199 -57.517231317508873 $69 $200 forward 7 unknown #
coedge $-1 $201 $202 $70 $125 forward $117 $-1 #
edge $-1 $128 7.723949122015803 $199 15.293958867161251 $124 $203 forward 7 unknown #
coedge $-1 $204 $71 $202 $205 reversed $66 $-1 #
vertex $-1 $122 $206 #
vertex $-1 $125 $207 #
straight-curve $-1 -34.943189101198449 34.647038014266883 69.135068575940522 0 0 1 I I #
face $-1 $208 $209 $15 $-1 $210 reversed single #
loop $-1 $211 $79 $73 #
plane-surface $-1 -48.356326140308383 -9.894334797228737 58.860847194468221 0 0.7660444514056185 0.64278759981090561 1 0 0 forward_v I I I I #
coedge $-1 $212 $213 $214 $215 reversed $74 $-1 #
coedge $-1 $134 $134 $-1 $216 forward $76 $-1 #
edge $-1 $217 0 $217 6.2831853071796004 $77 $218 forward 7 unknown #
vertex $-1 $80 $219 #
ellipse-curve $-1 -48.356326140308383 30.862033141694162 10.289298010503975 0 -0.7660444514056185 -0.64278759981090561 2.5 0 0 1 I I #
face $-1 $-1 $96 $12 $-1 $220 reversed single #
loop $-1 $-1 $154 $81 #
plane-surface $-1 0 34.647038014266883 0 0 -1 0 0 0 -1 forward_v I I I I #
coedge $-1 $221 $152 $155 $222 forward $82 $-1 #
coedge $-1 $158 $84 $85 $146 reversed $50 $-1 #
coedge $-1 $152 $221 $84 $144 reversed $82 $-1 #
edge $-1 $159 -14.800091283477084 $223 14.800091283477084 $143 $224 forward 7 unknown #
coedge $-1 $86 $85 $221 $225 forward $33 $-1 #
edge $-1 $150 -61.769463179418317 $223 61.769463179418317 $142 $226 forward 7 unknown #
coedge $-1 $155 $154 $86 $148 reversed $139 $-1 #
edge $-1 $227 -61.769463179418317 $149 61.769463179418317 $147 $228 forward 7 unknown #
vertex $-1 $88 $229 #
vertex $-1 $161 $230 #
straight-curve $-1 61.769463179418317 0 -14.800091283477084 0 -1 0 I I #
coedge $-1 $141 $143 $89 $153 reversed $82 $-1 #
edge $-1 $156 -34.647038014266883 $159 34.647038014266883 $152 $231 forward 7 unknown #
coedge $-1 $147 $90 $95 $162 forward $139 $-1 #
coedge $-1 $90 $147 $141 $222 reversed $139 $-1 #
vertex $-1 $91 $232 #
straight-curve $-1 0 34.647038014266883 14.800091283477084 -1 0 0 I I #
coedge $-1 $92 $142 $94 $161 reversed $50 $-1 #
vertex $-1 $153 $233 #
straight-curve $-1 0 -34.647038014266883 14.800091283477084 1 0 0 I I #
edge $-1 $97 -14.800091283477084 $150 14.800091283477084 $94 $234 forward 7 unknown #
edge $-1 $98 -14.800091283477084 $149 14.800091283477084 $95 $235 forward 7 unknown #
point $-1 61.769463179418317 -34.647038014266883 14.800091283477084 #
point $-1 61.769463179418317 34.647038014266883 14.800091283477084 #
face $-1 $236 $185 $13 $-1 $237 reversed single #
loop $-1 $-1 $170 $100 #
plane-surface $-1 0 -34.647038014266883 0 0 1 0 0 0 1 forward_v I I I I #
coedge $-1 $106 $103 $238 $239 reversed $58 $-1 #
coedge $-1 $103 $106 $240 $241 reversed $58 $-1 #
coedge $-1 $242 $243 $103 $171 forward $166 $-1 #
edge $-1 $244 -14.800091283477084 $245 14.800091283477084 $170 $246 forward 7 unknown #
coedge $-1 $238 $109 $104 $173 forward $101 $-1 #
edge $-1 $113 -21.516627842684592 $176 -15.551152650650074 $172 $247 forward 7 unknown #
coedge $-1 $111 $240 $105 $175 forward $185 $-1 #
edge $-1 $177 15.551152650650074 $114 21.516627842684592 $174 $248 forward 7 unknown #
vertex $-1 $173 $249 #
vertex $-1 $175 $250 #
straight-curve $-1 -34.085042897317408 -20.454180921332316 0 0 0 -1 I I #
coedge $-1 $251 $252 $108 $180 forward $253 $-1 #
edge $-1 $186 -14.800091283477084 $182 14.800091283477084 $179 $254 forward 7 unknown #
coedge $-1 $109 $255 $251 $256 forward $101 $-1 #
vertex $-1 $180 $257 #
straight-curve $-1 -40.050518089351925 -13.7753047338998 14.800091283477084 0 1 0 I I #
coedge $-1 $258 $111 $252 $259 forward $185 $-1 #
loop $-1 $-1 $111 $165 #
vertex $-1 $259 $260 #
straight-curve $-1 -40.050518089351925 -13.7753047338998 -14.800091283477084 0 -1 0 I I #
point $-1 -40.050518089351925 -20.454180921332316 14.800091283477084 #
point $-1 -40.050518089351925 -20.454180921332316 -14.800091283477084 #
face $-1 $261 $262 $14 $-1 $263 forward single #
loop $-1 $-1 $264 $116 #
plane-surface $-1 -40.050518089351925 -27.5506094677996 0 1 0 0 0 0 -1 forward_v I I I I #
coedge $-1 $119 $265 $266 $267 reversed $66 $-1 #
coedge $-1 $121 $120 $201 $268 reversed $41 $-1 #
coedge $-1 $266 $269 $120 $196 forward $270 $-1 #
edge $-1 $271 31.792240760312595 $197 43.569085471337488 $195 $272 forward 7 unknown #
vertex $-1 $267 $273 #
straight-curve $-1 -24.178163070154191 34.647038014266883 5.7785047375308629 1 0 0 I I #
vertex $-1 $268 $274 #
straight-curve $-1 -34.943189101198449 -9.894334797228737 58.860847194468221 0 -0.64278759981090561 0.7660444514056185 I I #
coedge $-1 $275 $124 $194 $268 forward $117 $-1 #
coedge $-1 $124 $276 $126 $205 forward $117 $-1 #
straight-curve $-1 -34.943189101198449 42.370987136282686 14.800091283477087 0 -1 0 I I #
coedge $-1 $265 $126 $277 $278 forward $66 $-1 #
edge $-1 $279 -61.769463179418317 $128 34.943189101198449 $126 $280 forward 7 unknown #
point $-1 -34.943189101198449 34.647038014266883 5.7785047375308665 #
point $-1 -34.943189101198449 34.647038014266883 14.800091283477084 #
face $-1 $281 $282 $15 $-1 $283 forward single #
loop $-1 $-1 $284 $130 #
plane-surface $-1 0 34.647038014266883 0 0 -1 0 0 0 -1 forward_v I I I I #
loop $-1 $-1 $285 $73 #
coedge $-1 $213 $133 $286 $287 forward $74 $-1 #
coedge $-1 $133 $212 $288 $289 reversed $74 $-1 #
coedge $-1 $290 $284 $133 $215 forward $209 $-1 #
edge $-1 $291 -63.356563838409656 $292 -54.334977292463435 $214 $293 forward 7 unknown #
edge $-1 $294 1 $294 0 $134 $-1 forward 7 unknown #
vertex $-1 $135 $295 #
ellipse-curve $-1 -48.356326140308383 24.835397535578327 5.232350428569271 0 0.7660444514056185 0.64278759981090561 2.5 0 0 1 I I #
point $-1 -45.856326140308383 30.862033141694155 10.28929801050397 #
plane-surface $-1 61.769463179418317 0 0 -1 0 0 0 0 1 forward_v I I I I #
coedge $-1 $143 $141 $145 $225 reversed $82 $-1 #
edge $-1 $156 -14.800091283477084 $227 14.800091283477084 $155 $296 forward 7 unknown #
vertex $-1 $225 $297 #
straight-curve $-1 -61.769463179418317 -34.647038014266883 0 0 0 -1 I I #
edge $-1 $223 -34.647038014266883 $227 34.647038014266883 $221 $298 forward 7 unknown #
straight-curve $-1 0 -34.647038014266883 -14.800091283477084 -1 0 0 I I #
vertex $-1 $148 $299 #
straight-curve $-1 0 34.647038014266883 -14.800091283477084 1 0 0 I I #
point $-1 61.769463179418317 34.647038014266883 -14.800091283477084 #
point $-1 61.769463179418317 -34.647038014266883 -14.800091283477084 #
straight-curve $-1 -61.769463179418317 0 14.800091283477084 0 -1 0 I I #
point $-1 -61.769463179418317 34.647038014266883 14.800091283477084 #
point $-1 -61.769463179418317 -34.647038014266883 14.800091283477084 #
straight-curve $-1 61.769463179418317 -34.647038014266883 0 0 0 -1 I I #
straight-curve $-1 61.769463179418317 34.647038014266883 0 0 0 -1 I I #
face $-1 $300 $253 $13 $-1 $167 reversed single #
plane-surface $-1 0 0 -14.800091283477084 0 0 1 1 0 0 forward_v I I I I #
coedge $-1 $301 $172 $168 $239 forward $101 $-1 #
edge $-1 $176 6.6788761874325164 $244 20.871733280367081 $238 $302 forward 7 unknown #
coedge $-1 $174 $303 $169 $241 forward $185 $-1 #
edge $-1 $245 -20.871733280367081 $177 -6.6788761874325164 $240 $304 forward 7 unknown #
coedge $-1 $305 $170 $303 $306 reversed $166 $-1 #
coedge $-1 $170 $305 $301 $307 reversed $166 $-1 #
vertex $-1 $307 $308 #
vertex $-1 $171 $309 #
straight-curve $-1 -34.085042897317408 -34.647038014266883 0 0 0 -1 I I #
straight-curve $-1 -18.533890246667333 -20.454180921332316 14.800091283477084 1 0 0 I I #
straight-curve $-1 -18.533890246667333 -20.454180921332316 -14.800091283477084 -1 0 0 I I #
point $-1 -34.085042897317408 -20.454180921332316 14.800091283477084 #
point $-1 -34.085042897317408 -20.454180921332316 -14.800091283477084 #
coedge $-1 $310 $179 $181 $256 reversed $253 $-1 #
coedge $-1 $179 $310 $184 $259 reversed $253 $-1 #
loop $-1 $-1 $179 $236 #
straight-curve $-1 -40.050518089351925 -34.647038014266883 0 0 0 1 I I #
coedge $-1 $181 $311 $312 $313 forward $101 $-1 #
edge $-1 $314 -61.769463179418317 $182 -40.050518089351925 $251 $315 forward 7 unknown #
point $-1 -40.050518089351925 -34.647038014266883 14.800091283477084 #
coedge $-1 $316 $184 $317 $318 forward $185 $-1 #
edge $-1 $186 40.050518089351925 $319 61.769463179418317 $252 $320 forward 7 unknown #
point $-1 -40.050518089351925 -34.647038014266883 -14.800091283477084 #
face $-1 $321 $322 $14 $-1 $323 forward single #
loop $-1 $-1 $324 $190 #
plane-surface $-1 -37.067780493334666 -20.454180921332316 0 0 -1 0 0 0 -1 forward_v I I I I #
coedge $-1 $325 $326 $327 $328 reversed $191 $-1 #
coedge $-1 $193 $204 $329 $330 reversed $66 $-1 #
coedge $-1 $331 $195 $193 $267 forward $270 $-1 #
edge $-1 $197 -5.778504737530862 $332 14.800091283477084 $193 $333 forward 7 unknown #
edge $-1 $199 10.765026031044258 $271 37.591300109264125 $201 $334 forward 7 unknown #
coedge $-1 $195 $335 $275 $336 reversed $270 $-1 #
loop $-1 $-1 $195 $337 #
vertex $-1 $336 $338 #
straight-curve $-1 -61.769463179418317 6.6413701381896626 39.154360915666089 0 0.64278759981090572 -0.76604445140561861 I I #
point $-1 -61.769463179418317 34.647038014266883 5.778504737530862 #
point $-1 -34.943189101198449 27.077028269121435 14.800091283477087 #
coedge $-1 $339 $201 $269 $336 forward $117 $-1 #
coedge $-1 $202 $340 $341 $342 forward $117 $-1 #
coedge $-1 $341 $343 $204 $278 reversed $344 $-1 #
edge $-1 $279 -14.800091283477084 $345 14.800091283477084 $277 $346 forward 7 unknown #
vertex $-1 $342 $347 #
straight-curve $-1 0 34.647038014266883 14.800091283477084 -1 0 0 I I #
face $-1 $348 $349 $15 $-1 $350 forward single #
loop $-1 $-1 $288 $208 #
plane-surface $-1 0 0 14.800091283477084 0 0 1 1 0 0 forward_v I I I I #
coedge $-1 $214 $351 $285 $352 forward $209 $-1 #
coedge $-1 $353 $286 $284 $352 reversed $211 $-1 #
coedge $-1 $285 $354 $212 $287 reversed $211 $-1 #
edge $-1 $291 -69.294076028533766 $355 -57.517231317508873 $212 $356 forward 7 unknown #
coedge $-1 $357 $358 $213 $289 forward $282 $-1 #
edge $-1 $292 7.723949122015803 $355 15.293958867161251 $288 $359 forward 7 unknown #
coedge $-1 $360 $214 $358 $361 reversed $209 $-1 #
vertex $-1 $352 $362 #
vertex $-1 $289 $363 #
straight-curve $-1 -34.943189101198449 34.647038014266883 69.135068575940522 0 0 1 I I #
vertex $-1 $216 $364 #
point $-1 -45.856326140308383 24.835397535578327 5.232350428569271 #
straight-curve $-1 -61.769463179418317 34.647038014266883 0 0 0 -1 I I #
point $-1 -61.769463179418317 -34.647038014266883 -14.800091283477084 #
straight-curve $-1 -61.769463179418317 0 -14.800091283477084 0 1 0 I I #
point $-1 -61.769463179418317 34.647038014266883 -14.800091283477084 #
face $-1 $365 $366 $13 $-1 $367 reversed single #
coedge $-1 $368 $238 $243 $307 forward $101 $-1 #
straight-curve $-1 -34.085042897317408 -13.7753047338998 14.800091283477084 0 -1 0 I I #
coedge $-1 $240 $369 $242 $306 forward $185 $-1 #
straight-curve $-1 -34.085042897317408 -13.7753047338998 -14.800091283477084 0 1 0 I I #
coedge $-1 $243 $242 $370 $371 reversed $166 $-1 #
edge $-1 $372 -61.769463179418317 $245 34.085042897317408 $242 $320 forward 7 unknown #
edge $-1 $244 -34.085042897317408 $373 61.769463179418317 $243 $315 forward 7 unknown #
point $-1 -34.085042897317408 -34.647038014266883 14.800091283477084 #
point $-1 -34.085042897317408 -34.647038014266883 -14.800091283477084 #
coedge $-1 $252 $251 $374 $375 forward $253 $-1 #
coedge $-1 $255 $368 $376 $377 forward $101 $-1 #
coedge $-1 $378 $374 $255 $313 reversed $366 $-1 #
edge $-1 $379 -34.647038014266883 $314 34.647038014266883 $312 $380 forward 7 unknown #
vertex $-1 $313 $381 #
straight-curve $-1 0 -34.647038014266883 14.800091283477084 1 0 0 I I #
coedge $-1 $369 $258 $382 $383 forward $185 $-1 #
coedge $-1 $374 $378 $258 $318 reversed $366 $-1 #
edge $-1 $319 -34.647038014266883 $384 34.647038014266883 $317 $385 forward 7 unknown #
vertex $-1 $318 $386 #
straight-curve $-1 0 -34.647038014266883 -14.800091283477084 -1 0 0 I I #
face $-1 $387 $388 $14 $-1 $389 reversed single #
loop $-1 $-1 $390 $261 #
plane-surface $-1 -34.085042897317408 -27.5506094677996 0 -1 0 0 0 0 1 forward_v I I I I #
coedge $-1 $391 $392 $393 $394 reversed $262 $-1 #
coedge $-1 $395 $264 $396 $397 reversed $191 $-1 #
coedge $-1 $264 $395 $398 $399 reversed $191 $-1 #
coedge $-1 $392 $391 $264 $328 forward $262 $-1 #
edge $-1 $400 -14.800091283477084 $401 14.800091283477084 $327 $402 forward 7 unknown #
coedge $-1 $403 $404 $265 $330 forward $405 $-1 #
edge $-1 $332 -61.769463179418317 $345 61.769463179418317 $265 $406 forward 7 unknown #
coedge $-1 $335 $266 $404 $407 reversed $270 $-1 #
vertex $-1 $330 $408 #
straight-curve $-1 -61.769463179418317 34.647038014266883 0 0 0 -1 I I #
straight-curve $-1 -24.178163070154191 27.077028269121438 14.800091283477084 -1 0 0 I I #
coedge $-1 $269 $331 $409 $410 reversed $270 $-1 #
edge $-1 $271 -27.077028269121435 $411 34.647038014266883 $269 $412 forward 7 unknown #
face $-1 $413 $270 $14 $-1 $414 reversed single #
point $-1 -61.769463179418317 27.077028269121435 14.800091283477087 #
coedge $-1 $396 $275 $415 $416 forward $117 $-1 #
coedge $-1 $276 $417 $418 $419 forward $117 $-1 #
coedge $-1 $420 $277 $276 $342 reversed $344 $-1 #
edge $-1 $421 -34.647038014266883 $279 34.647038014266883 $341 $422 forward 7 unknown #
coedge $-1 $277 $420 $403 $423 reversed $344 $-1 #
loop $-1 $-1 $420 $413 #
vertex $-1 $423 $424 #
straight-curve $-1 61.769463179418317 34.647038014266883 0 0 0 -1 I I #
point $-1 61.769463179418317 34.647038014266883 14.800091283477084 #
face $-1 $425 $426 $15 $-1 $427 forward single #
loop $-1 $-1 $428 $281 #
plane-surface $-1 -40.050518089351925 -27.5506094677996 0 1 0 0 0 0 -1 forward_v I I I I #
coedge $-1 $284 $429 $430 $431 reversed $209 $-1 #
edge $-1 $432 -37.591300109264125 $291 -10.765026031044258 $284 $433 forward 7 unknown #
coedge $-1 $354 $285 $434 $435 reversed $211 $-1 #
coedge $-1 $286 $353 $357 $436 reversed $211 $-1 #
vertex $-1 $436 $437 #
straight-curve $-1 -34.943189101198449 -9.894334797228737 58.860847194468221 0 -0.64278759981090561 0.7660444514056185 I I #
coedge $-1 $438 $288 $354 $436 forward $282 $-1 #
coedge $-1 $288 $439 $290 $361 forward $282 $-1 #
straight-curve $-1 -34.943189101198449 42.370987136282686 14.800091283477087 0 -1 0 I I #
coedge $-1 $429 $290 $440 $441 forward $209 $-1 #
edge $-1 $442 -61.769463179418317 $292 34.943189101198449 $290 $443 forward 7 unknown #
point $-1 -34.943189101198449 34.647038014266883 5.7785047375308665 #
point $-1 -34.943189101198449 34.647038014266883 14.800091283477084 #
point $-1 -48.356326140308383 22.920286407064278 3.6253814290420068 #
face $-1 $444 $445 $13 $-1 $446 reversed single #
loop $-1 $-1 $378 $300 #
plane-surface $-1 -61.769463179418317 0 0 1 0 0 0 0 -1 forward_v I I I I #
coedge $-1 $311 $301 $447 $448 forward $101 $-1 #
coedge $-1 $303 $316 $449 $450 forward $185 $-1 #
coedge $-1 $449 $447 $305 $371 forward $451 $-1 #
edge $-1 $373 -14.800091283477084 $372 14.800091283477084 $370 $452 forward 7 unknown #
vertex $-1 $371 $453 #
vertex $-1 $448 $454 #
coedge $-1 $312 $317 $310 $375 reversed $366 $-1 #
edge $-1 $314 -14.800091283477084 $319 14.800091283477084 $374 $455 forward 7 unknown #
coedge $-1 $456 $457 $311 $377 reversed $445 $-1 #
edge $-1 $458 -61.769463179418317 $379 61.769463179418317 $376 $459 forward 7 unknown #
coedge $-1 $317 $312 $457 $460 forward $366 $-1 #
vertex $-1 $377 $461 #
straight-curve $-1 -61.769463179418317 0 14.800091283477084 0 -1 0 I I #
point $-1 -61.769463179418317 -34.647038014266883 14.800091283477084 #
coedge $-1 $457 $456 $316 $383 reversed $445 $-1 #
edge $-1 $384 -61.769463179418317 $462 61.769463179418317 $382 $463 forward 7 unknown #
vertex $-1 $383 $464 #
straight-curve $-1 -61.769463179418317 0 -14.800091283477084 0 1 0 I I #
point $-1 -61.769463179418317 -34.647038014266883 -14.800091283477084 #
face $-1 $465 $405 $14 $-1 $466 reversed single #
loop $-1 $-1 $467 $321 #
plane-surface $-1 0 -34.647038014266883 0 0 1 0 0 0 1 forward_v I I I I #
coedge $-1 $468 $469 $467 $470 reversed $322 $-1 #
coedge $-1 $327 $324 $471 $472 reversed $262 $-1 #
coedge $-1 $324 $327 $473 $474 reversed $262 $-1 #
coedge $-1 $469 $468 $324 $394 forward $322 $-1 #
edge $-1 $475 -14.800091283477084 $476 14.800091283477084 $393 $477 forward 7 unknown #
coedge $-1 $326 $325 $478 $479 reversed $191 $-1 #
coedge $-1 $471 $339 $325 $397 forward $117 $-1 #
edge $-1 $480 -20.871733280367081 $400 -6.6788761874325164 $396 $481 forward 7 unknown #
coedge $-1 $482 $473 $326 $399 forward $405 $-1 #
edge $-1 $401 6.6788761874325164 $483 20.871733280367081 $398 $484 forward 7 unknown #
vertex $-1 $397 $485 #
vertex $-1 $399 $486 #
straight-curve $-1 -40.050518089351925 -20.454180921332316 0 0 0 -1 I I #
coedge $-1 $487 $329 $343 $423 forward $405 $-1 #
coedge $-1 $329 $482 $331 $407 forward $405 $-1 #
loop $-1 $-1 $398 $387 #
straight-curve $-1 0 34.647038014266883 -14.800091283477084 1 0 0 I I #
edge $-1 $488 -34.647038014266883 $332 34.647038014266883 $331 $489 forward 7 unknown #
point $-1 -61.769463179418317 34.647038014266883 -14.800091283477084 #
coedge $-1 $490 $415 $335 $410 forward $491 $-1 #
edge $-1 $411 -14.800091283477084 $488 14.800091283477084 $335 $492 forward 7 unknown #
vertex $-1 $336 $493 #
straight-curve $-1 -61.769463179418317 0 14.800091283477084 0 -1 0 I I #
face $-1 $-1 $344 $14 $-1 $494 reversed single #
plane-surface $-1 -61.769463179418317 0 0 1 0 0 0 0 -1 forward_v I I I I #
coedge $-1 $409 $478 $339 $416 reversed $491 $-1 #
edge $-1 $411 -61.769463179418317 $480 -40.050518089351925 $415 $495 forward 7 unknown #
coedge $-1 $340 $471 $468 $496 forward $117 $-1 #
coedge $-1 $467 $497 $340 $419 reversed $388 $-1 #
edge $-1 $498 -34.085042897317408 $421 61.769463179418317 $418 $495 forward 7 unknown #
coedge $-1 $343 $341 $497 $499 forward $344 $-1 #
vertex $-1 $342 $500 #
straight-curve $-1 61.769463179418317 0 14.800091283477084 0 1 0 I I #
edge $-1 $345 -34.647038014266883 $501 34.647038014266883 $343 $502 forward 7 unknown #
point $-1 61.769463179418317 34.647038014266883 -14.800091283477084 #
face $-1 $503 $504 $15 $-1 $505 forward single #
loop $-1 $-1 $506 $348 #
plane-surface $-1 -37.067780493334666 -20.454180921332316 0 0 -1 0 0 0 -1 forward_v I I I I #
coedge $-1 $507 $508 $509 $510 reversed $349 $-1 #
coedge $-1 $351 $360 $511 $512 reversed $209 $-1 #
coedge $-1 $513 $434 $351 $431 forward $514 $-1 #
edge $-1 $432 -5.778504737530862 $515 14.800091283477084 $351 $516 forward 7 unknown #
vertex $-1 $431 $517 #
straight-curve $-1 -24.178163070154191 34.647038014266883 5.7785047375308629 1 0 0 I I #
coedge $-1 $430 $518 $353 $435 forward $514 $-1 #
edge $-1 $519 31.792240760312595 $432 43.569085471337488 $434 $520 forward 7 unknown #
edge $-1 $355 10.765026031044258 $519 37.591300109264125 $357 $521 forward 7 unknown #
point $-1 -34.943189101198449 27.077028269121435 14.800091283477087 #
coedge $-1 $522 $357 $518 $523 forward $282 $-1 #
coedge $-1 $358 $524 $525 $526 forward $282 $-1 #
coedge $-1 $525 $527 $360 $441 reversed $528 $-1 #
edge $-1 $442 -14.800091283477084 $529 14.800091283477084 $440 $530 forward 7 unknown #
vertex $-1 $526 $531 #
straight-curve $-1 0 34.647038014266883 14.800091283477084 -1 0 0 I I #
face $-1 $-1 $451 $13 $-1 $532 reversed single #
loop $-1 $-1 $456 $365 #
plane-surface $-1 0 34.647038014266883 0 0 -1 0 0 0 -1 forward_v I I I I #
coedge $-1 $370 $533 $368 $448 reversed $451 $-1 #
edge $-1 $373 -34.647038014266883 $458 34.647038014266883 $447 $534 forward 7 unknown #
coedge $-1 $533 $370 $369 $450 reversed $451 $-1 #
edge $-1 $462 -34.647038014266883 $372 34.647038014266883 $449 $535 forward 7 unknown #
loop $-1 $-1 $370 $444 #
straight-curve $-1 61.769463179418317 -34.647038014266883 0 0 0 -1 I I #
point $-1 61.769463179418317 -34.647038014266883 -14.800091283477084 #
point $-1 61.769463179418317 -34.647038014266883 14.800091283477084 #
straight-curve $-1 -61.769463179418317 -34.647038014266883 0 0 0 -1 I I #
coedge $-1 $382 $376 $533 $536 forward $445 $-1 #
coedge $-1 $376 $382 $378 $460 reversed $445 $-1 #
vertex $-1 $448 $537 #
straight-curve $-1 0 34.647038014266883 14.800091283477084 -1 0 0 I I #
edge $-1 $379 -14.800091283477084 $384 14.800091283477084 $457 $538 forward 7 unknown #
point $-1 -61.769463179418317 34.647038014266883 14.800091283477084 #
vertex $-1 $450 $539 #
straight-curve $-1 0 34.647038014266883 -14.800091283477084 1 0 0 I I #
point $-1 -61.769463179418317 34.647038014266883 -14.800091283477084 #
face $-1 $337 $491 $14 $-1 $389 reversed single #
plane-surface $-1 0 0 -14.800091283477084 0 0 1 1 0 0 forward_v I I I I #
coedge $-1 $540 $418 $390 $470 forward $388 $-1 #
coedge $-1 $393 $390 $417 $496 reversed $322 $-1 #
coedge $-1 $390 $393 $541 $542 reversed $322 $-1 #
edge $-1 $498 -14.800091283477084 $543 14.800091283477084 $467 $544 forward 7 unknown #
coedge $-1 $417 $396 $391 $472 forward $117 $-1 #
edge $-1 $400 -21.516627842684592 $475 -15.551152650650074 $471 $545 forward 7 unknown #
coedge $-1 $398 $541 $392 $474 forward $405 $-1 #
edge $-1 $476 15.551152650650074 $401 21.516627842684592 $473 $546 forward 7 unknown #
vertex $-1 $472 $547 #
vertex $-1 $474 $548 #
straight-curve $-1 -34.085042897317408 -20.454180921332316 0 0 0 -1 I I #
coedge $-1 $415 $490 $395 $479 forward $491 $-1 #
edge $-1 $483 -14.800091283477084 $480 14.800091283477084 $478 $549 forward 7 unknown #
vertex $-1 $479 $550 #
straight-curve $-1 -40.050518089351925 -13.7753047338998 14.800091283477084 0 1 0 I I #
coedge $-1 $404 $398 $490 $551 forward $405 $-1 #
vertex $-1 $551 $552 #
straight-curve $-1 -40.050518089351925 -13.7753047338998 -14.800091283477084 0 -1 0 I I #
point $-1 -40.050518089351925 -20.454180921332316 14.800091283477084 #
point $-1 -40.050518089351925 -20.454180921332316 -14.800091283477084 #
coedge $-1 $541 $403 $540 $553 forward $405 $-1 #
vertex $-1 $407 $554 #
straight-curve $-1 -61.769463179418317 0 -14.800091283477084 0 1 0 I I #
coedge $-1 $478 $409 $482 $551 reversed $491 $-1 #
loop $-1 $-1 $478 $465 #
straight-curve $-1 -61.769463179418317 -34.647038014266883 0 0 0 -1 I I #
point $-1 -61.769463179418317 -34.647038014266883 14.800091283477084 #
plane-surface $-1 61.769463179418317 0 0 -1 0 0 0 0 1 forward_v I I I I #
straight-curve $-1 0 -34.647038014266883 14.800091283477084 1 0 0 I I #
edge $-1 $475 6.6788761874325164 $498 20.871733280367081 $417 $555 forward 7 unknown #
coedge $-1 $418 $540 $420 $499 reversed $388 $-1 #
vertex $-1 $419 $556 #
edge $-1 $421 -14.800091283477084 $501 14.800091283477084 $420 $557 forward 7 unknown #
point $-1 61.769463179418317 -34.647038014266883 14.800091283477084 #
vertex $-1 $499 $558 #
straight-curve $-1 61.769463179418317 0 -14.800091283477084 0 -1 0 I I #
face $-1 $559 $560 $15 $-1 $561 reversed single #
loop $-1 $-1 $562 $425 #
plane-surface $-1 -34.085042897317408 -27.5506094677996 0 -1 0 0 0 0 1 forward_v I I I I #
coedge $-1 $563 $564 $565 $566 reversed $426 $-1 #
coedge $-1 $567 $428 $568 $569 reversed $349 $-1 #
coedge $-1 $428 $567 $570 $571 reversed $349 $-1 #
coedge $-1 $564 $563 $428 $510 forward $426 $-1 #
edge $-1 $572 -14.800091283477084 $573 14.800091283477084 $509 $574 forward 7 unknown #
coedge $-1 $575 $576 $429 $512 forward $577 $-1 #
edge $-1 $515 -61.769463179418317 $529 61.769463179418317 $429 $578 forward 7 unknown #
coedge $-1 $579 $430 $576 $580 reversed $514 $-1 #
loop $-1 $-1 $434 $581 #
vertex $-1 $512 $582 #
straight-curve $-1 -61.769463179418317 34.647038014266883 0 0 0 -1 I I #
point $-1 -61.769463179418317 34.647038014266883 5.778504737530862 #
coedge $-1 $434 $579 $438 $523 reversed $514 $-1 #
vertex $-1 $523 $583 #
straight-curve $-1 -61.769463179418317 6.6413701381896626 39.154360915666089 0 0.64278759981090572 -0.76604445140561861 I I #
straight-curve $-1 -24.178163070154191 27.077028269121438 14.800091283477084 -1 0 0 I I #
coedge $-1 $568 $438 $584 $585 forward $282 $-1 #
edge $-1 $519 -27.077028269121435 $586 34.647038014266883 $518 $587 forward 7 unknown #
coedge $-1 $439 $588 $589 $590 forward $282 $-1 #
coedge $-1 $591 $440 $439 $526 reversed $528 $-1 #
edge $-1 $592 -34.647038014266883 $442 34.647038014266883 $525 $593 forward 7 unknown #
coedge $-1 $440 $591 $575 $594 reversed $528 $-1 #
loop $-1 $-1 $591 $595 #
vertex $-1 $594 $596 #
straight-curve $-1 61.769463179418317 34.647038014266883 0 0 0 -1 I I #
point $-1 61.769463179418317 34.647038014266883 14.800091283477084 #
plane-surface $-1 61.769463179418317 0 0 -1 0 0 0 0 1 forward_v I I I I #
coedge $-1 $447 $449 $456 $536 reversed $451 $-1 #
straight-curve $-1 61.769463179418317 0 14.800091283477084 0 1 0 I I #
straight-curve $-1 61.769463179418317 0 -14.800091283477084 0 -1 0 I I #
edge $-1 $458 -14.800091283477084 $462 14.800091283477084 $533 $597 forward 7 unknown #
point $-1 61.769463179418317 34.647038014266883 14.800091283477084 #
straight-curve $-1 -61.769463179418317 34.647038014266883 0 0 0 -1 I I #
point $-1 61.769463179418317 34.647038014266883 -14.800091283477084 #
coedge $-1 $497 $467 $487 $553 reversed $388 $-1 #
coedge $-1 $473 $487 $469 $542 forward $405 $-1 #
edge $-1 $543 -20.871733280367081 $476 -6.6788761874325164 $541 $598 forward 7 unknown #
vertex $-1 $470 $599 #
straight-curve $-1 -34.085042897317408 -34.647038014266883 0 0 0 -1 I I #
straight-curve $-1 -18.533890246667333 -20.454180921332316 14.800091283477084 1 0 0 I I #
straight-curve $-1 -18.533890246667333 -20.454180921332316 -14.800091283477084 -1 0 0 I I #
point $-1 -34.085042897317408 -20.454180921332316 14.800091283477084 #
point $-1 -34.085042897317408 -20.454180921332316 -14.800091283477084 #
straight-curve $-1 -40.050518089351925 -34.647038014266883 0 0 0 1 I I #
point $-1 -40.050518089351925 -34.647038014266883 14.800091283477084 #
edge $-1 $483 40.050518089351925 $488 61.769463179418317 $490 $600 forward 7 unknown #
point $-1 -40.050518089351925 -34.647038014266883 -14.800091283477084 #
edge $-1 $501 -61.769463179418317 $543 34.085042897317408 $540 $600 forward 7 unknown #
point $-1 -61.769463179418317 -34.647038014266883 -14.800091283477084 #
straight-curve $-1 -34.085042897317408 -13.7753047338998 14.800091283477084 0 -1 0 I I #
point $-1 -34.085042897317408 -34.647038014266883 14.800091283477084 #
straight-curve $-1 61.769463179418317 -34.647038014266883 0 0 0 -1 I I #
point $-1 61.769463179418317 -34.647038014266883 -14.800091283477084 #
face $-1 $601 $577 $15 $-1 $602 reversed single #
loop $-1 $-1 $603 $503 #
plane-surface $-1 0 -34.647038014266883 0 0 1 0 0 0 1 forward_v I I I I #
coedge $-1 $604 $605 $603 $606 reversed $504 $-1 #
coedge $-1 $509 $506 $607 $608 reversed $426 $-1 #
coedge $-1 $506 $509 $609 $610 reversed $426 $-1 #
coedge $-1 $605 $604 $506 $566 forward $504 $-1 #
edge $-1 $611 -14.800091283477084 $612 14.800091283477084 $565 $613 forward 7 unknown #
coedge $-1 $508 $507 $614 $615 reversed $349 $-1 #
coedge $-1 $607 $522 $507 $569 forward $282 $-1 #
edge $-1 $616 -20.871733280367081 $572 -6.6788761874325164 $568 $617 forward 7 unknown #
coedge $-1 $618 $609 $508 $571 forward $577 $-1 #
edge $-1 $573 6.6788761874325164 $619 20.871733280367081 $570 $620 forward 7 unknown #
vertex $-1 $569 $621 #
vertex $-1 $571 $622 #
straight-curve $-1 -40.050518089351925 -20.454180921332316 0 0 0 -1 I I #
coedge $-1 $623 $511 $527 $594 forward $577 $-1 #
coedge $-1 $511 $618 $513 $580 forward $577 $-1 #
loop $-1 $-1 $570 $559 #
straight-curve $-1 0 34.647038014266883 -14.800091283477084 1 0 0 I I #
coedge $-1 $518 $513 $624 $625 reversed $514 $-1 #
edge $-1 $626 -34.647038014266883 $515 34.647038014266883 $513 $627 forward 7 unknown #
face $-1 $595 $514 $15 $-1 $628 reversed single #
point $-1 -61.769463179418317 34.647038014266883 -14.800091283477084 #
point $-1 -61.769463179418317 27.077028269121435 14.800091283477087 #
coedge $-1 $624 $614 $522 $585 reversed $629 $-1 #
edge $-1 $586 -61.769463179418317 $616 -40.050518089351925 $584 $630 forward 7 unknown #
vertex $-1 $523 $631 #
straight-curve $-1 -61.769463179418317 0 14.800091283477084 0 -1 0 I I #
coedge $-1 $524 $607 $604 $632 forward $282 $-1 #
coedge $-1 $603 $633 $524 $590 reversed $560 $-1 #
edge $-1 $634 -34.085042897317408 $592 61.769463179418317 $589 $630 forward 7 unknown #
coedge $-1 $527 $525 $633 $635 forward $528 $-1 #
vertex $-1 $526 $636 #
straight-curve $-1 61.769463179418317 0 14.800091283477084 0 1 0 I I #
edge $-1 $529 -34.647038014266883 $637 34.647038014266883 $527 $638 forward 7 unknown #
face $-1 $-1 $528 $15 $-1 $639 reversed single #
point $-1 61.769463179418317 34.647038014266883 -14.800091283477084 #
straight-curve $-1 61.769463179418317 34.647038014266883 0 0 0 -1 I I #
straight-curve $-1 -34.085042897317408 -13.7753047338998 -14.800091283477084 0 1 0 I I #
point $-1 -34.085042897317408 -34.647038014266883 -14.800091283477084 #
straight-curve $-1 0 -34.647038014266883 -14.800091283477084 -1 0 0 I I #
face $-1 $581 $629 $15 $-1 $561 reversed single #
plane-surface $-1 0 0 -14.800091283477084 0 0 1 1 0 0 forward_v I I I I #
coedge $-1 $640 $589 $562 $606 forward $560 $-1 #
coedge $-1 $565 $562 $588 $632 reversed $504 $-1 #
coedge $-1 $562 $565 $641 $642 reversed $504 $-1 #
edge $-1 $634 -14.800091283477084 $643 14.800091283477084 $603 $644 forward 7 unknown #
coedge $-1 $588 $568 $563 $608 forward $282 $-1 #
edge $-1 $572 -21.516627842684592 $611 -15.551152650650074 $607 $645 forward 7 unknown #
coedge $-1 $570 $641 $564 $610 forward $577 $-1 #
edge $-1 $612 15.551152650650074 $573 21.516627842684592 $609 $646 forward 7 unknown #
vertex $-1 $608 $647 #
vertex $-1 $610 $648 #
straight-curve $-1 -34.085042897317408 -20.454180921332316 0 0 0 -1 I I #
coedge $-1 $584 $649 $567 $615 forward $629 $-1 #
edge $-1 $619 -14.800091283477084 $616 14.800091283477084 $614 $650 forward 7 unknown #
vertex $-1 $615 $651 #
straight-curve $-1 -40.050518089351925 -13.7753047338998 14.800091283477084 0 1 0 I I #
coedge $-1 $576 $570 $649 $652 forward $577 $-1 #
vertex $-1 $652 $653 #
straight-curve $-1 -40.050518089351925 -13.7753047338998 -14.800091283477084 0 -1 0 I I #
point $-1 -40.050518089351925 -20.454180921332316 14.800091283477084 #
point $-1 -40.050518089351925 -20.454180921332316 -14.800091283477084 #
coedge $-1 $641 $575 $640 $654 forward $577 $-1 #
coedge $-1 $649 $584 $579 $625 forward $629 $-1 #
edge $-1 $586 -14.800091283477084 $626 14.800091283477084 $579 $655 forward 7 unknown #
vertex $-1 $580 $656 #
straight-curve $-1 -61.769463179418317 0 -14.800091283477084 0 1 0 I I #
plane-surface $-1 -61.769463179418317 0 0 1 0 0 0 0 -1 forward_v I I I I #
loop $-1 $-1 $614 $601 #
straight-curve $-1 0 -34.647038014266883 14.800091283477084 1 0 0 I I #
point $-1 -61.769463179418317 -34.647038014266883 14.800091283477084 #
edge $-1 $611 6.6788761874325164 $634 20.871733280367081 $588 $657 forward 7 unknown #
coedge $-1 $589 $640 $591 $635 reversed $560 $-1 #
vertex $-1 $590 $658 #
edge $-1 $592 -14.800091283477084 $637 14.800091283477084 $591 $659 forward 7 unknown #
point $-1 61.769463179418317 -34.647038014266883 14.800091283477084 #
vertex $-1 $635 $660 #
straight-curve $-1 61.769463179418317 0 -14.800091283477084 0 -1 0 I I #
plane-surface $-1 61.769463179418317 0 0 -1 0 0 0 0 1 forward_v I I I I #
coedge $-1 $633 $603 $623 $654 reversed $560 $-1 #
coedge $-1 $609 $623 $605 $642 forward $577 $-1 #
edge $-1 $643 -20.871733280367081 $612 -6.6788761874325164 $641 $661 forward 7 unknown #
vertex $-1 $606 $662 #
straight-curve $-1 -34.085042897317408 -34.647038014266883 0 0 0 -1 I I #
straight-curve $-1 -18.533890246667333 -20.454180921332316 14.800091283477084 1 0 0 I I #
straight-curve $-1 -18.533890246667333 -20.454180921332316 -14.800091283477084 -1 0 0 I I #
point $-1 -34.085042897317408 -20.454180921332316 14.800091283477084 #
point $-1 -34.085042897317408 -20.454180921332316 -14.800091283477084 #
coedge $-1 $614 $624 $618 $652 reversed $629 $-1 #
straight-curve $-1 -40.050518089351925 -34.647038014266883 0 0 0 1 I I #
point $-1 -40.050518089351925 -34.647038014266883 14.800091283477084 #
edge $-1 $619 40.050518089351925 $626 61.769463179418317 $649 $663 forward 7 unknown #
point $-1 -40.050518089351925 -34.647038014266883 -14.800091283477084 #
edge $-1 $637 -61.769463179418317 $643 34.085042897317408 $640 $663 forward 7 unknown #
straight-curve $-1 -61.769463179418317 -34.647038014266883 0 0 0 -1 I I #
point $-1 -61.769463179418317 -34.647038014266883 -14.800091283477084 #
straight-curve $-1 -34.085042897317408 -13.7753047338998 14.800091283477084 0 -1 0 I I #
point $-1 -34.085042897317408 -34.647038014266883 14.800091283477084 #
straight-curve $-1 61.769463179418317 -34.647038014266883 0 0 0 -1 I I #
point $-1 61.769463179418317 -34.647038014266883 -14.800091283477084 #
straight-curve $-1 -34.085042897317408 -13.7753047338998 -14.800091283477084 0 1 0 I I #
point $-1 -34.085042897317408 -34.647038014266883 -14.800091283477084 #
straight-curve $-1 0 -34.647038014266883 -14.800091283477084 -1 0 0 I I #
End-of-ACIS-data 