500 0 9 0           
7 Unknown 11 ACIS 5.0 NT 24 Fri Mar 26 17:43:28 1999 
-1 9.9999999999999995e-007 1e-010 
body $-1 $9 $-1 $10 #
body $-1 $11 $-1 $12 #
body $-1 $13 $-1 $14 #
body $-1 $15 $-1 $16 #
body $-1 $17 $-1 $18 #
body $-1 $19 $-1 $20 #
body $-1 $21 $-1 $22 #
body $-1 $23 $-1 $24 #
body $-1 $25 $-1 $26 #
lump $-1 $-1 $27 $0 #
transform $-1 1 0 0 0 1 0 0 0 1 64.838404492324599 44.670369998270495 13.451279449932407 1 rotate no_reflect no_shear #
lump $-1 $-1 $28 $1 #
transform $-1 1 0 0 0 1 0 0 0 1 64.838404492324599 44.670369998270495 13.451279449932407 1 rotate no_reflect no_shear #
lump $-1 $-1 $29 $2 #
transform $-1 1 0 0 0 1 0 0 0 1 64.838404492324599 44.670369998270495 13.451279449932407 1 rotate no_reflect no_shear #
lump $-1 $-1 $30 $3 #
transform $-1 1 0 0 0 1 0 0 0 1 64.838404492324599 44.670369998270495 13.451279449932407 1 rotate no_reflect no_shear #
lump $-1 $-1 $31 $4 #
transform $-1 1 0 0 0 1 0 0 0 1 64.838404492324599 44.670369998270495 13.451279449932407 1 rotate no_reflect no_shear #
lump $-1 $-1 $32 $5 #
transform $-1 1 0 0 0 1 0 0 0 1 64.838404492324599 44.670369998270495 13.451279449932407 1 rotate no_reflect no_shear #
lump $-1 $-1 $33 $6 #
transform $-1 1 0 0 0 1 0 0 0 1 64.838404492324599 44.670369998270495 13.451279449932407 1 rotate no_reflect no_shear #
lump $-1 $-1 $34 $7 #
transform $-1 1 0 0 0 1 0 0 0 1 64.838404492324599 44.670369998270495 13.451279449932407 1 rotate no_reflect no_shear #
lump $-1 $-1 $35 $8 #
transform $-1 1 0 0 0 1 0 0 0 1 64.838404492324599 44.670369998270495 13.451279449932407 1 rotate no_reflect no_shear #
shell $-1 $-1 $-1 $36 $-1 $9 #
shell $-1 $-1 $-1 $37 $-1 $11 #
shell $-1 $-1 $-1 $38 $-1 $13 #
shell $-1 $-1 $-1 $39 $-1 $15 #
shell $-1 $-1 $-1 $40 $-1 $17 #
shell $-1 $-1 $-1 $41 $-1 $19 #
shell $-1 $-1 $-1 $42 $-1 $21 #
shell $-1 $-1 $-1 $43 $-1 $23 #
shell $-1 $-1 $-1 $44 $-1 $25 #
face $-1 $45 $46 $27 $-1 $47 forward single #
face $-1 $48 $49 $28 $-1 $50 reversed single #
face $-1 $51 $52 $29 $-1 $53 forward single #
face $-1 $54 $55 $30 $-1 $56 reversed single #
face $-1 $57 $58 $31 $-1 $59 forward single #
face $-1 $60 $61 $32 $-1 $62 forward single #
face $-1 $63 $64 $33 $-1 $65 reversed single #
face $-1 $66 $67 $34 $-1 $68 forward single #
face $-1 $69 $70 $35 $-1 $71 forward single #
face $-1 $72 $73 $27 $-1 $74 reversed single #
loop $-1 $-1 $75 $36 #
plane-surface $-1 0 0 13.451279449932407 0 0 1 1 0 0 forward_v I I I I #
face $-1 $76 $77 $28 $-1 $78 reversed single #
loop $-1 $-1 $79 $37 #
plane-surface $-1 -142.87985728169753 -1.1689438199277546 110.70628047182745 0 1 0 -0.6018150307709319 0 0.79863550430605224 forward_v I I I I #
face $-1 $80 $81 $29 $-1 $82 forward single #
loop $-1 $83 $84 $38 #
cone-surface $-1 -57.786229397810622 11.028669677967251 6.4936440565682947 0.6018150307709319 0 -0.79863550430605224 1.9965887607651305 0 1.5045375769273297 1 I I 0 1 2.5 forward I I I I #
face $-1 $85 $86 $30 $-1 $87 reversed single #
loop $-1 $-1 $88 $39 #
plane-surface $-1 77.631095491995296 -2.6041248464411417 192.32642426171734 0 -1 0 -0.75470958851134928 0 -0.65605901945558964 forward_v I I I I #
face $-1 $89 $90 $31 $-1 $91 forward single #
loop $-1 $92 $93 $40 #
cone-surface $-1 62.248642250063348 -11.851108975520852 10.702943771503191 -0.75470958851134928 0 -0.65605901945558964 0.65605901945558964 0 -0.75470958851134928 1 I I 0 1 1 forward I I I I #
face $-1 $94 $95 $32 $-1 $96 forward single #
loop $-1 $97 $98 $41 #
cone-surface $-1 62.248642250063348 -6.3029184980730335 10.702943771503191 -0.75470958851134928 0 -0.65605901945558964 0.65605901945558964 0 -0.75470958851134928 1 I I 0 1 1 forward I I I I #
face $-1 $99 $100 $33 $-1 $101 reversed single #
loop $-1 $-1 $102 $42 #
plane-surface $-1 77.631095491995296 15.549902627152743 192.32642426171734 0 -1 0 -0.75470958851134928 0 -0.65605901945558964 forward_v I I I I #
face $-1 $103 $104 $34 $-1 $105 forward single #
loop $-1 $106 $107 $43 #
cone-surface $-1 62.248642250063348 6.3029184980730335 10.702943771503191 -0.75470958851134928 0 -0.65605901945558964 0.65605901945558964 0 -0.75470958851134928 1 I I 0 1 1 forward I I I I #
face $-1 $108 $109 $35 $-1 $110 forward single #
loop $-1 $111 $112 $44 #
cone-surface $-1 62.248642250063348 11.851108975520852 10.702943771503191 -0.75470958851134928 0 -0.65605901945558964 0.65605901945558964 0 -0.75470958851134928 1 I I 0 1 1 forward I I I I #
face $-1 $113 $114 $27 $-1 $115 reversed single #
loop $-1 $-1 $116 $45 #
plane-surface $-1 0 0 -13.451279449932407 0 0 1 1 0 0 forward_v I I I I #
coedge $-1 $117 $118 $119 $120 forward $46 $-1 #
face $-1 $121 $122 $28 $-1 $123 reversed single #
loop $-1 $-1 $124 $48 #
plane-surface $-1 -64.838404492324614 11.028669677967251 7.1417767315725342 -0.6018150307709319 0 0.79863550430605224 0.79863550430605224 0 0.6018150307709319 forward_v I I I I #
coedge $-1 $125 $126 $127 $128 reversed $49 $-1 #
face $-1 $-1 $129 $29 $-1 $130 forward single #
loop $-1 $131 $132 $51 #
cone-surface $-1 -54.168281886436361 11.028669677967251 1.6924656420015634 0.6018150307709319 0 -0.79863550430605224 0.99829438038256524 0 0.75226878846366485 1 I I -0.70710678118654746 0.70710678118654746 1.25 forward I I I I #
loop $-1 $-1 $133 $38 #
coedge $-1 $84 $84 $134 $135 reversed $52 $-1 #
face $-1 $136 $137 $30 $-1 $138 reversed single #
loop $-1 $-1 $139 $54 #
plane-surface $-1 -20.237235656274137 -9.0770137367969355 107.25078411311858 0.75470958851134928 0 0.65605901945558964 0.65605901945558964 0 -0.75470958851134928 forward_v I I I I #
coedge $-1 $140 $141 $142 $143 reversed $55 $-1 #
face $-1 $-1 $144 $31 $-1 $145 forward single #
loop $-1 $146 $147 $57 #
cone-surface $-1 61.050013619400644 -11.851108975520852 9.6609918258878267 -0.75470958851134928 0 -0.65605901945558964 0.32802950972779482 0 -0.37735479425567464 1 I I -0.70710678118654746 0.70710678118654746 0.5 forward I I I I #
loop $-1 $-1 $148 $40 #
coedge $-1 $93 $93 $149 $150 reversed $58 $-1 #
face $-1 $-1 $151 $32 $-1 $152 forward single #
loop $-1 $153 $154 $60 #
cone-surface $-1 61.050013619400644 -6.3029184980730335 9.6609918258878267 -0.75470958851134928 0 -0.65605901945558964 0.32802950972779482 0 -0.37735479425567464 1 I I -0.70710678118654746 0.70710678118654746 0.5 forward I I I I #
loop $-1 $-1 $155 $41 #
coedge $-1 $98 $98 $156 $157 reversed $61 $-1 #
face $-1 $158 $159 $33 $-1 $160 reversed single #
loop $-1 $-1 $161 $63 #
plane-surface $-1 -20.237235656274137 9.0770137367969497 107.25078411311858 0.75470958851134928 0 0.65605901945558964 0.65605901945558964 0 -0.75470958851134928 forward_v I I I I #
coedge $-1 $162 $163 $164 $165 reversed $64 $-1 #
face $-1 $-1 $166 $34 $-1 $167 forward single #
loop $-1 $168 $169 $66 #
cone-surface $-1 61.050013619400644 6.3029184980730335 9.6609918258878267 -0.75470958851134928 0 -0.65605901945558964 0.32802950972779482 0 -0.37735479425567464 1 I I -0.70710678118654746 0.70710678118654746 0.5 forward I I I I #
loop $-1 $-1 $170 $43 #
coedge $-1 $107 $107 $171 $172 reversed $67 $-1 #
face $-1 $-1 $173 $35 $-1 $174 forward single #
loop $-1 $175 $176 $69 #
cone-surface $-1 61.050013619400644 11.851108975520852 9.6609918258878267 -0.75470958851134928 0 -0.65605901945558964 0.32802950972779482 0 -0.37735479425567464 1 I I -0.70710678118654746 0.70710678118654746 0.5 forward I I I I #
loop $-1 $-1 $177 $44 #
coedge $-1 $112 $112 $178 $179 reversed $70 $-1 #
face $-1 $180 $181 $27 $-1 $182 reversed single #
loop $-1 $-1 $183 $72 #
plane-surface $-1 0 -44.670369998270495 0 0 1 0 0 0 1 forward_v I I I I #
coedge $-1 $184 $185 $186 $187 forward $73 $-1 #
coedge $-1 $188 $75 $189 $190 forward $46 $-1 #
coedge $-1 $75 $188 $191 $192 forward $46 $-1 #
coedge $-1 $193 $194 $75 $120 reversed $195 $-1 #
edge $-1 $196 -44.670369998270495 $197 44.670369998270495 $119 $198 forward 7 unknown #
face $-1 $199 $200 $28 $-1 $201 reversed single #
loop $-1 $-1 $202 $76 #
plane-surface $-1 -142.87985728169753 23.226283175862257 110.70628047182745 0 -1 0 0.6018150307709319 0 -0.79863550430605224 forward_v I I I I #
coedge $-1 $203 $204 $205 $206 reversed $77 $-1 #
coedge $-1 $126 $79 $207 $208 reversed $49 $-1 #
coedge $-1 $79 $125 $203 $209 reversed $49 $-1 #
coedge $-1 $205 $210 $79 $128 forward $211 $-1 #
edge $-1 $212 6.6015241485241631 $213 14.974516891730872 $127 $214 forward 7 unknown #
loop $-1 $-1 $134 $80 #
plane-surface $-1 -64.838404492324614 11.028669677967251 7.1417767315725342 -0.6018150307709319 0 0.79863550430605224 0.79863550430605224 0 0.6018150307709319 forward_v I I I I #
loop $-1 $-1 $215 $51 #
coedge $-1 $132 $132 $133 $216 reversed $81 $-1 #
coedge $-1 $133 $133 $132 $216 forward $83 $-1 #
coedge $-1 $134 $134 $84 $135 forward $129 $-1 #
edge $-1 $217 0 $217 6.2831853071796004 $134 $218 forward 7 unknown #
face $-1 $219 $220 $30 $-1 $221 forward single #
loop $-1 $-1 $222 $85 #
plane-surface $-1 77.631095491995296 -15.549902627152729 192.32642426171734 0 1 0 0.75470958851134928 0 0.65605901945558964 forward_v I I I I #
coedge $-1 $223 $224 $225 $226 reversed $86 $-1 #
coedge $-1 $141 $88 $227 $228 reversed $55 $-1 #
coedge $-1 $88 $140 $223 $229 reversed $55 $-1 #
coedge $-1 $225 $230 $88 $143 forward $220 $-1 #
edge $-1 $231 -26.022856746326951 $232 -22.485879934618538 $142 $233 forward 7 unknown #
loop $-1 $-1 $149 $89 #
plane-surface $-1 -20.237235656274137 -9.0770137367969355 107.25078411311858 0.75470958851134928 0 0.65605901945558964 0.65605901945558964 0 -0.75470958851134928 forward_v I I I I #
loop $-1 $-1 $234 $57 #
coedge $-1 $147 $147 $148 $235 reversed $90 $-1 #
coedge $-1 $148 $148 $147 $235 forward $92 $-1 #
coedge $-1 $149 $149 $93 $150 forward $144 $-1 #
edge $-1 $236 0 $236 6.2831853071796004 $149 $237 forward 7 unknown #
loop $-1 $-1 $156 $94 #
plane-surface $-1 -20.237235656274137 -9.0770137367969355 107.25078411311858 0.75470958851134928 0 0.65605901945558964 0.65605901945558964 0 -0.75470958851134928 forward_v I I I I #
loop $-1 $-1 $238 $60 #
coedge $-1 $154 $154 $155 $239 reversed $95 $-1 #
coedge $-1 $155 $155 $154 $239 forward $97 $-1 #
coedge $-1 $156 $156 $98 $157 forward $151 $-1 #
edge $-1 $240 0 $240 6.2831853071796004 $156 $241 forward 7 unknown #
face $-1 $242 $243 $33 $-1 $244 reversed single #
loop $-1 $-1 $245 $99 #
plane-surface $-1 77.631095491995296 2.6041248464411559 192.32642426171734 0 1 0 0.75470958851134928 0 0.65605901945558964 forward_v I I I I #
coedge $-1 $246 $247 $248 $249 reversed $100 $-1 #
coedge $-1 $163 $102 $250 $251 reversed $64 $-1 #
coedge $-1 $102 $162 $246 $252 reversed $64 $-1 #
coedge $-1 $248 $253 $102 $165 forward $254 $-1 #
edge $-1 $255 -26.022856746326951 $256 -22.485879934618538 $164 $257 forward 7 unknown #
loop $-1 $-1 $171 $103 #
plane-surface $-1 -20.237235656274137 9.0770137367969497 107.25078411311858 0.75470958851134928 0 0.65605901945558964 0.65605901945558964 0 -0.75470958851134928 forward_v I I I I #
loop $-1 $-1 $258 $66 #
coedge $-1 $169 $169 $170 $259 reversed $104 $-1 #
coedge $-1 $170 $170 $169 $259 forward $106 $-1 #
coedge $-1 $171 $171 $107 $172 forward $166 $-1 #
edge $-1 $260 0 $260 6.2831853071796004 $171 $261 forward 7 unknown #
loop $-1 $-1 $178 $108 #
plane-surface $-1 -20.237235656274137 9.0770137367969497 107.25078411311858 0.75470958851134928 0 0.65605901945558964 0.65605901945558964 0 -0.75470958851134928 forward_v I I I I #
loop $-1 $-1 $262 $69 #
coedge $-1 $176 $176 $177 $263 reversed $109 $-1 #
coedge $-1 $177 $177 $176 $263 forward $111 $-1 #
coedge $-1 $178 $178 $112 $179 forward $173 $-1 #
edge $-1 $264 0 $264 6.2831853071796004 $178 $265 forward 7 unknown #
face $-1 $266 $267 $27 $-1 $268 reversed single #
loop $-1 $-1 $269 $113 #
plane-surface $-1 -64.838404492324599 0 0 1 0 0 0 0 -1 forward_v I I I I #
coedge $-1 $270 $191 $271 $272 forward $114 $-1 #
coedge $-1 $273 $116 $270 $274 forward $73 $-1 #
coedge $-1 $116 $273 $275 $276 forward $73 $-1 #
coedge $-1 $194 $193 $116 $187 reversed $195 $-1 #
edge $-1 $277 -44.670369998270495 $278 44.670369998270495 $186 $279 forward 7 unknown #
coedge $-1 $118 $117 $280 $281 forward $46 $-1 #
coedge $-1 $282 $283 $117 $190 reversed $267 $-1 #
edge $-1 $197 -64.838404492324599 $284 64.838404492324599 $189 $285 forward 7 unknown #
coedge $-1 $183 $286 $118 $192 reversed $114 $-1 #
edge $-1 $287 -64.838404492324599 $196 64.838404492324599 $191 $288 forward 7 unknown #
coedge $-1 $186 $119 $286 $289 forward $195 $-1 #
coedge $-1 $119 $186 $282 $290 reversed $195 $-1 #
loop $-1 $-1 $193 $266 #
vertex $-1 $120 $291 #
vertex $-1 $120 $292 #
straight-curve $-1 64.838404492324599 0 13.451279449932407 0 1 0 I I #
face $-1 $-1 $211 $28 $-1 $293 forward single #
loop $-1 $-1 $294 $121 #
plane-surface $-1 -64.838404492324599 0 0 1 0 0 0 0 -1 forward_v I I I I #
coedge $-1 $295 $296 $297 $298 reversed $122 $-1 #
coedge $-1 $299 $124 $126 $209 forward $77 $-1 #
coedge $-1 $124 $299 $295 $300 forward $77 $-1 #
coedge $-1 $297 $127 $124 $206 forward $211 $-1 #
edge $-1 $213 -6.6832786589113802 $301 17.711948336878631 $205 $302 forward 7 unknown #
coedge $-1 $303 $304 $125 $208 forward $200 $-1 #
edge $-1 $305 -48.211363504341179 $212 -41.90186078598132 $207 $306 forward 7 unknown #
edge $-1 $213 -10.484122854620843 $305 -1.7763522597878294e-014 $126 $307 forward 7 unknown #
coedge $-1 $127 $297 $303 $308 forward $211 $-1 #
loop $-1 $-1 $297 $199 #
vertex $-1 $208 $309 #
vertex $-1 $128 $310 #
straight-curve $-1 -71.439928640848763 -1.1689438199277546 13.451279449932407 1 0 0 I I #
coedge $-1 $215 $215 $-1 $311 reversed $131 $-1 #
edge $-1 $312 0 $312 6.2831853071796004 $132 $313 forward 7 unknown #
vertex $-1 $135 $314 #
ellipse-curve $-1 -60.651908120721238 11.028669677967251 10.296528090752481 -0.6018150307709319 0 0.79863550430605224 1.9965887607651305 0 1.5045375769273297 1 I I #
face $-1 $-1 $315 $30 $-1 $316 reversed single #
loop $-1 $-1 $142 $136 #
plane-surface $-1 0 0 13.451279449932407 0 0 1 1 0 0 forward_v I I I I #
coedge $-1 $317 $318 $319 $320 reversed $137 $-1 #
coedge $-1 $321 $139 $141 $229 forward $86 $-1 #
coedge $-1 $139 $321 $317 $322 forward $86 $-1 #
coedge $-1 $319 $142 $139 $226 forward $220 $-1 #
edge $-1 $232 -1.934382021957326 $323 11.011395758754261 $225 $324 forward 7 unknown #
coedge $-1 $325 $326 $140 $228 forward $315 $-1 #
edge $-1 $327 -86.780759166009489 $231 -82.711932680926253 $227 $328 forward 7 unknown #
edge $-1 $232 124.28556108344138 $327 129.6768089846492 $141 $329 forward 7 unknown #
coedge $-1 $142 $319 $325 $330 forward $220 $-1 #
vertex $-1 $228 $331 #
vertex $-1 $143 $332 #
straight-curve $-1 38.815547745997648 -2.6041248464411417 13.4512794499324 -1 0 0 I I #
coedge $-1 $234 $234 $-1 $333 reversed $146 $-1 #
edge $-1 $334 0 $334 6.2831853071796004 $147 $335 forward 7 unknown #
vertex $-1 $150 $336 #
ellipse-curve $-1 63.0699160864704 -11.851108975520852 11.416866207390777 0.75470958851134928 0 0.65605901945558964 0.65605901945558964 0 -0.75470958851134928 1 I I #
coedge $-1 $238 $238 $-1 $337 reversed $153 $-1 #
edge $-1 $338 0 $338 6.2831853071796004 $154 $339 forward 7 unknown #
vertex $-1 $157 $340 #
ellipse-curve $-1 63.0699160864704 -6.3029184980730335 11.416866207390777 0.75470958851134928 0 0.65605901945558964 0.65605901945558964 0 -0.75470958851134928 1 I I #
face $-1 $-1 $254 $33 $-1 $341 forward single #
loop $-1 $-1 $342 $158 #
plane-surface $-1 64.838404492324599 0 0 -1 0 0 0 0 1 forward_v I I I I #
coedge $-1 $343 $344 $345 $346 reversed $159 $-1 #
coedge $-1 $347 $161 $163 $252 forward $100 $-1 #
coedge $-1 $161 $347 $343 $348 forward $100 $-1 #
coedge $-1 $345 $164 $161 $249 forward $254 $-1 #
edge $-1 $256 -11.011395758754269 $349 1.9343820219573189 $248 $350 forward 7 unknown #
coedge $-1 $351 $352 $162 $251 forward $243 $-1 #
edge $-1 $353 -86.780759166009489 $255 -82.711932680926253 $250 $354 forward 7 unknown #
edge $-1 $256 124.28556108344138 $353 129.6768089846492 $163 $355 forward 7 unknown #
coedge $-1 $164 $345 $351 $356 forward $254 $-1 #
loop $-1 $-1 $345 $242 #
vertex $-1 $251 $357 #
vertex $-1 $165 $358 #
straight-curve $-1 38.815547745997648 15.549902627152743 13.4512794499324 -1 0 0 I I #
coedge $-1 $258 $258 $-1 $359 reversed $168 $-1 #
edge $-1 $360 0 $360 6.2831853071796004 $169 $361 forward 7 unknown #
vertex $-1 $172 $362 #
ellipse-curve $-1 63.0699160864704 6.3029184980730335 11.416866207390777 0.75470958851134928 0 0.65605901945558964 0.65605901945558964 0 -0.75470958851134928 1 I I #
coedge $-1 $262 $262 $-1 $363 reversed $175 $-1 #
edge $-1 $364 0 $364 6.2831853071796004 $176 $365 forward 7 unknown #
vertex $-1 $179 $366 #
ellipse-curve $-1 63.0699160864704 11.851108975520852 11.416866207390777 0.75470958851134928 0 0.65605901945558964 0.65605901945558964 0 -0.75470958851134928 1 I I #
face $-1 $-1 $195 $27 $-1 $367 reversed single #
loop $-1 $-1 $282 $180 #
plane-surface $-1 0 44.670369998270495 0 0 -1 0 0 0 -1 forward_v I I I I #
coedge $-1 $368 $280 $283 $369 forward $181 $-1 #
coedge $-1 $286 $183 $184 $274 reversed $114 $-1 #
coedge $-1 $280 $368 $183 $272 reversed $181 $-1 #
edge $-1 $287 -13.451279449932407 $370 13.451279449932407 $271 $371 forward 7 unknown #
coedge $-1 $185 $184 $368 $372 forward $73 $-1 #
edge $-1 $278 -64.838404492324599 $370 64.838404492324599 $270 $373 forward 7 unknown #
coedge $-1 $283 $282 $185 $276 reversed $267 $-1 #
edge $-1 $374 -64.838404492324599 $277 64.838404492324599 $275 $375 forward 7 unknown #
vertex $-1 $187 $376 #
vertex $-1 $289 $377 #
straight-curve $-1 64.838404492324599 0 -13.451279449932407 0 -1 0 I I #
coedge $-1 $269 $271 $188 $281 reversed $181 $-1 #
edge $-1 $284 -44.670369998270495 $287 44.670369998270495 $280 $378 forward 7 unknown #
coedge $-1 $275 $189 $194 $290 forward $267 $-1 #
coedge $-1 $189 $275 $269 $369 reversed $267 $-1 #
vertex $-1 $190 $379 #
straight-curve $-1 0 44.670369998270495 13.451279449932407 -1 0 0 I I #
coedge $-1 $191 $270 $193 $289 reversed $114 $-1 #
vertex $-1 $281 $380 #
straight-curve $-1 0 -44.670369998270495 13.451279449932407 1 0 0 I I #
edge $-1 $196 -13.451279449932407 $278 13.451279449932407 $193 $381 forward 7 unknown #
edge $-1 $197 -13.451279449932407 $277 13.451279449932407 $194 $382 forward 7 unknown #
point $-1 64.838404492324599 -44.670369998270495 13.451279449932407 #
point $-1 64.838404492324599 44.670369998270495 13.451279449932407 #
plane-surface $-1 0 0 13.451279449932407 0 0 1 1 0 0 forward_v I I I I #
coedge $-1 $304 $303 $296 $383 forward $200 $-1 #
coedge $-1 $296 $202 $204 $300 reversed $122 $-1 #
coedge $-1 $202 $295 $294 $383 reversed $122 $-1 #
coedge $-1 $210 $205 $202 $298 forward $211 $-1 #
edge $-1 $301 -14.974516891730872 $384 -6.6015241485241631 $297 $385 forward 7 unknown #
coedge $-1 $204 $203 $304 $386 reversed $77 $-1 #
edge $-1 $387 1.7763522597878294e-014 $301 10.484122854620843 $295 $388 forward 7 unknown #
vertex $-1 $206 $389 #
straight-curve $-1 -56.465411749117891 5.5143348389836255 13.451279449932407 0 1 0 I I #
coedge $-1 $294 $207 $210 $308 reversed $200 $-1 #
coedge $-1 $207 $294 $299 $386 forward $200 $-1 #
vertex $-1 $208 $390 #
straight-curve $-1 -64.838404492324599 -1.1689438199277546 55.353140235913727 0 0 1 I I #
straight-curve $-1 -64.838404492324614 -1.1689438199277546 7.1417767315725342 -0.79863550430605224 0 -0.6018150307709319 I I #
edge $-1 $384 -23.226283175862257 $212 1.1689438199277546 $303 $391 forward 7 unknown #
point $-1 -64.838404492324599 -1.1689438199277546 13.451279449932407 #
point $-1 -56.465411749117891 -1.1689438199277546 13.451279449932407 #
edge $-1 $392 1 $392 0 $215 $-1 forward 7 unknown #
vertex $-1 $216 $393 #
ellipse-curve $-1 -54.920550674900028 11.028669677967251 2.6907600223841284 -0.6018150307709319 0 0.79863550430605224 1.9965887607651305 0 1.5045375769273297 1 I I #
point $-1 -58.655319359956096 11.028669677967251 11.80106566767979 #
loop $-1 $-1 $227 $219 #
plane-surface $-1 64.838404492324599 0 0 -1 0 0 0 0 1 forward_v I I I I #
coedge $-1 $318 $222 $224 $322 reversed $137 $-1 #
coedge $-1 $222 $317 $394 $395 reversed $137 $-1 #
coedge $-1 $230 $225 $222 $320 forward $220 $-1 #
edge $-1 $323 22.485879934618538 $396 26.022856746326951 $319 $397 forward 7 unknown #
coedge $-1 $224 $223 $326 $398 reversed $86 $-1 #
edge $-1 $399 -129.6768089846492 $323 -124.28556108344138 $317 $400 forward 7 unknown #
vertex $-1 $226 $401 #
straight-curve $-1 61.301427680616179 -4.5385068683984677 13.4512794499324 0 -1 0 I I #
coedge $-1 $394 $227 $230 $330 reversed $315 $-1 #
coedge $-1 $227 $394 $321 $398 forward $315 $-1 #
vertex $-1 $228 $402 #
straight-curve $-1 64.838404492324599 -2.6041248464411417 96.163212130858668 0 0 1 I I #
straight-curve $-1 -20.237235656274137 -2.6041248464411417 107.25078411311858 0.65605901945558964 0 -0.75470958851134928 I I #
edge $-1 $396 -15.549902627152729 $231 -2.6041248464411417 $325 $403 forward 7 unknown #
point $-1 64.838404492324599 -2.6041248464411417 13.451279449932407 #
point $-1 61.301427680616186 -2.6041248464411417 13.4512794499324 #
edge $-1 $404 1 $404 0 $234 $-1 forward 7 unknown #
vertex $-1 $235 $405 #
ellipse-curve $-1 61.427368413656318 -11.851108975520852 9.9890213356156217 0.75470958851134928 0 0.65605901945558964 0.65605901945558964 0 -0.75470958851134928 1 I I #
point $-1 63.725975105925968 -11.851108975520852 10.662156618879411 #
edge $-1 $406 1 $406 0 $238 $-1 forward 7 unknown #
vertex $-1 $239 $407 #
ellipse-curve $-1 61.427368413656318 -6.3029184980730335 9.9890213356156217 0.75470958851134928 0 0.65605901945558964 0.65605901945558964 0 -0.75470958851134928 1 I I #
point $-1 63.725975105925968 -6.3029184980730335 10.662156618879411 #
plane-surface $-1 0 0 13.451279449932407 0 0 1 1 0 0 forward_v I I I I #
coedge $-1 $352 $351 $344 $408 forward $243 $-1 #
coedge $-1 $344 $245 $247 $348 reversed $159 $-1 #
coedge $-1 $245 $343 $342 $408 reversed $159 $-1 #
coedge $-1 $253 $248 $245 $346 forward $254 $-1 #
edge $-1 $349 22.485879934618538 $409 26.022856746326951 $345 $410 forward 7 unknown #
coedge $-1 $247 $246 $352 $411 reversed $100 $-1 #
edge $-1 $412 -129.6768089846492 $349 -124.28556108344138 $343 $413 forward 7 unknown #
vertex $-1 $249 $414 #
straight-curve $-1 61.301427680616179 4.5385068683984748 13.4512794499324 0 -1 0 I I #
coedge $-1 $342 $250 $253 $356 reversed $243 $-1 #
coedge $-1 $250 $342 $347 $411 forward $243 $-1 #
vertex $-1 $251 $415 #
straight-curve $-1 64.838404492324599 15.549902627152743 96.163212130858668 0 0 1 I I #
straight-curve $-1 -20.237235656274137 15.549902627152743 107.25078411311858 0.65605901945558964 0 -0.75470958851134928 I I #
edge $-1 $409 2.6041248464411559 $255 15.549902627152743 $351 $416 forward 7 unknown #
point $-1 64.838404492324599 15.549902627152743 13.451279449932407 #
point $-1 61.301427680616186 15.549902627152743 13.4512794499324 #
edge $-1 $417 1 $417 0 $258 $-1 forward 7 unknown #
vertex $-1 $259 $418 #
ellipse-curve $-1 61.427368413656318 6.3029184980730335 9.9890213356156217 0.75470958851134928 0 0.65605901945558964 0.65605901945558964 0 -0.75470958851134928 1 I I #
point $-1 63.725975105925968 6.3029184980730335 10.662156618879411 #
edge $-1 $419 1 $419 0 $262 $-1 forward 7 unknown #
vertex $-1 $263 $420 #
ellipse-curve $-1 61.427368413656318 11.851108975520852 9.9890213356156217 0.75470958851134928 0 0.65605901945558964 0.65605901945558964 0 -0.75470958851134928 1 I I #
point $-1 63.725975105925968 11.851108975520852 10.662156618879411 #
plane-surface $-1 64.838404492324599 0 0 -1 0 0 0 0 1 forward_v I I I I #
coedge $-1 $271 $269 $273 $372 reversed $181 $-1 #
edge $-1 $284 -13.451279449932407 $374 13.451279449932407 $283 $421 forward 7 unknown #
vertex $-1 $372 $422 #
straight-curve $-1 -64.838404492324599 -44.670369998270495 0 0 0 -1 I I #
edge $-1 $370 -44.670369998270495 $374 44.670369998270495 $368 $423 forward 7 unknown #
straight-curve $-1 0 -44.670369998270495 -13.451279449932407 -1 0 0 I I #
vertex $-1 $276 $424 #
straight-curve $-1 0 44.670369998270495 -13.451279449932407 1 0 0 I I #
point $-1 64.838404492324599 44.670369998270495 -13.451279449932407 #
point $-1 64.838404492324599 -44.670369998270495 -13.451279449932407 #
straight-curve $-1 -64.838404492324599 0 13.451279449932407 0 -1 0 I I #
point $-1 -64.838404492324599 44.670369998270495 13.451279449932407 #
point $-1 -64.838404492324599 -44.670369998270495 13.451279449932407 #
straight-curve $-1 64.838404492324599 -44.670369998270495 0 0 0 -1 I I #
straight-curve $-1 64.838404492324599 44.670369998270495 0 0 0 -1 I I #
edge $-1 $384 41.90186078598132 $387 48.211363504341179 $294 $425 forward 7 unknown #
vertex $-1 $308 $426 #
straight-curve $-1 -71.439928640848763 23.226283175862257 13.451279449932407 -1 0 0 I I #
edge $-1 $387 -17.711948336878631 $305 6.6832786589113802 $304 $427 forward 7 unknown #
vertex $-1 $386 $428 #
straight-curve $-1 -64.838404492324614 23.226283175862257 7.1417767315725342 0.79863550430605224 0 0.6018150307709319 I I #
point $-1 -56.465411749117891 23.226283175862257 13.451279449932407 #
point $-1 -64.838404492324599 -1.1689438199277546 7.1417767315725449 #
straight-curve $-1 -64.838404492324599 0 13.451279449932407 0 -1 0 I I #
vertex $-1 $311 $429 #
point $-1 -52.923961914134892 11.028669677967251 4.1952975993114583 #
coedge $-1 $326 $325 $318 $395 forward $315 $-1 #
edge $-1 $396 82.711932680926253 $399 86.780759166009489 $394 $430 forward 7 unknown #
vertex $-1 $330 $431 #
straight-curve $-1 38.815547745997648 -15.549902627152729 13.4512794499324 1 0 0 I I #
edge $-1 $399 -11.011395758754261 $327 1.934382021957326 $326 $432 forward 7 unknown #
vertex $-1 $398 $433 #
straight-curve $-1 -20.237235656274137 -15.549902627152729 107.25078411311858 -0.65605901945558964 0 0.75470958851134928 I I #
point $-1 61.301427680616186 -15.549902627152729 13.4512794499324 #
point $-1 64.838404492324585 -2.6041248464411417 9.382452964849179 #
straight-curve $-1 64.838404492324599 0 13.451279449932407 0 1 0 I I #
vertex $-1 $333 $434 #
point $-1 62.083427433111908 -11.851108975520852 9.2343117471042717 #
vertex $-1 $337 $435 #
point $-1 62.083427433111908 -6.3029184980730335 9.2343117471042717 #
edge $-1 $409 82.711932680926253 $412 86.780759166009489 $342 $436 forward 7 unknown #
vertex $-1 $356 $437 #
straight-curve $-1 38.815547745997648 2.6041248464411559 13.4512794499324 1 0 0 I I #
edge $-1 $412 -1.9343820219573189 $353 11.011395758754269 $352 $438 forward 7 unknown #
vertex $-1 $411 $439 #
straight-curve $-1 -20.237235656274137 2.6041248464411559 107.25078411311858 -0.65605901945558964 0 0.75470958851134928 I I #
point $-1 61.301427680616186 2.6041248464411559 13.4512794499324 #
point $-1 64.838404492324585 15.549902627152743 9.382452964849179 #
straight-curve $-1 64.838404492324599 0 13.451279449932407 0 1 0 I I #
vertex $-1 $359 $440 #
point $-1 62.083427433111908 6.3029184980730335 9.2343117471042717 #
vertex $-1 $363 $441 #
point $-1 62.083427433111908 11.851108975520852 9.2343117471042717 #
straight-curve $-1 -64.838404492324599 44.670369998270495 0 0 0 -1 I I #
point $-1 -64.838404492324599 -44.670369998270495 -13.451279449932407 #
straight-curve $-1 -64.838404492324599 0 -13.451279449932407 0 1 0 I I #
point $-1 -64.838404492324599 44.670369998270495 -13.451279449932407 #
straight-curve $-1 -64.838404492324599 23.226283175862257 55.353140235913727 0 0 -1 I I #
point $-1 -64.838404492324599 23.226283175862257 13.451279449932407 #
straight-curve $-1 -64.838404492324599 5.5143348389836255 7.1417767315725387 0 -1 0 I I #
point $-1 -64.838404492324599 23.226283175862257 7.1417767315725449 #
point $-1 -53.416013097972694 11.028669677967251 0.69417126161899811 #
straight-curve $-1 64.838404492324599 -15.549902627152729 96.163212130858668 0 0 -1 I I #
point $-1 64.838404492324599 -15.549902627152729 13.451279449932407 #
straight-curve $-1 64.838404492324599 -4.5385068683984677 9.3824529648491719 0 1 0 I I #
point $-1 64.838404492324585 -15.549902627152729 9.382452964849179 #
point $-1 60.672658825144971 -11.851108975520852 9.3329623161600317 #
point $-1 60.672658825144971 -6.3029184980730335 9.3329623161600317 #
straight-curve $-1 64.838404492324599 2.6041248464411559 96.163212130858668 0 0 -1 I I #
point $-1 64.838404492324599 2.6041248464411559 13.451279449932407 #
straight-curve $-1 64.838404492324599 4.5385068683984748 9.3824529648491719 0 1 0 I I #
point $-1 64.838404492324585 2.6041248464411559 9.382452964849179 #
point $-1 60.672658825144971 6.3029184980730335 9.3329623161600317 #
point $-1 60.672658825144971 11.851108975520852 9.3329623161600317 #
End-of-ACIS-data 