500 0 8 0           
7 Unknown 11 ACIS 5.0 NT 24 Fri Mar 26 14:59:59 1999 
-1 9.9999999999999995e-007 1e-010 
body $-1 $8 $-1 $9 #
body $-1 $10 $-1 $11 #
body $-1 $12 $-1 $13 #
body $-1 $14 $-1 $15 #
body $-1 $16 $-1 $17 #
body $-1 $18 $-1 $19 #
body $-1 $20 $-1 $21 #
body $-1 $22 $-1 $23 #
lump $-1 $-1 $24 $0 #
transform $-1 1 0 0 0 1 0 0 0 1 53.414716025269328 34.868315464867273 8.7167064210612448 1 rotate no_reflect no_shear #
lump $-1 $-1 $25 $1 #
transform $-1 1 0 0 0 1 0 0 0 1 53.414716025269328 34.868315464867273 8.7167064210612448 1 rotate no_reflect no_shear #
lump $-1 $-1 $26 $2 #
transform $-1 1 0 0 0 1 0 0 0 1 53.414716025269328 34.868315464867273 8.7167064210612448 1 rotate no_reflect no_shear #
lump $-1 $-1 $27 $3 #
transform $-1 1 0 0 0 1 0 0 0 1 53.414716025269328 34.868315464867273 8.7167064210612448 1 rotate no_reflect no_shear #
lump $-1 $-1 $28 $4 #
transform $-1 1 0 0 0 1 0 0 0 1 53.414716025269328 34.868315464867273 8.7167064210612448 1 rotate no_reflect no_shear #
lump $-1 $-1 $29 $5 #
transform $-1 1 0 0 0 1 0 0 0 1 53.414716025269328 34.868315464867273 8.7167064210612448 1 rotate no_reflect no_shear #
lump $-1 $-1 $30 $6 #
transform $-1 1 0 0 0 1 0 0 0 1 53.414716025269328 34.868315464867273 8.7167064210612448 1 rotate no_reflect no_shear #
lump $-1 $-1 $31 $7 #
transform $-1 1 0 0 0 1 0 0 0 1 53.414716025269328 34.868315464867273 8.7167064210612448 1 rotate no_reflect no_shear #
shell $-1 $-1 $-1 $32 $-1 $8 #
shell $-1 $-1 $-1 $33 $-1 $10 #
shell $-1 $-1 $-1 $34 $-1 $12 #
shell $-1 $-1 $-1 $35 $-1 $14 #
shell $-1 $-1 $-1 $36 $-1 $16 #
shell $-1 $-1 $-1 $37 $-1 $18 #
shell $-1 $-1 $-1 $38 $-1 $20 #
shell $-1 $-1 $-1 $39 $-1 $22 #
face $-1 $40 $41 $24 $-1 $42 forward single #
face $-1 $43 $44 $25 $-1 $45 reversed single #
face $-1 $46 $47 $26 $-1 $48 reversed single #
face $-1 $49 $50 $27 $-1 $51 forward single #
face $-1 $52 $53 $28 $-1 $54 forward single #
face $-1 $55 $56 $29 $-1 $57 reversed single #
face $-1 $58 $59 $30 $-1 $60 forward single #
face $-1 $61 $62 $31 $-1 $63 forward single #
face $-1 $64 $65 $24 $-1 $66 reversed single #
loop $-1 $-1 $67 $32 #
plane-surface $-1 0 0 8.7167064210612448 0 0 1 1 0 0 forward_v I I I I #
face $-1 $68 $69 $25 $-1 $70 reversed single #
loop $-1 $-1 $71 $33 #
plane-surface $-1 -51.737732843243869 -29.496372128952473 0 1 0 0 0 0 -1 forward_v I I I I #
face $-1 $72 $73 $26 $-1 $74 reversed single #
loop $-1 $-1 $75 $34 #
plane-surface $-1 -53.414716025269328 -15.809232349507738 3.2375536684967585 -0.5877852598018023 0 0.80901698891910034 0.80901698891910034 0 0.5877852598018023 forward_v I I I I #
face $-1 $76 $77 $27 $-1 $78 forward single #
loop $-1 $79 $80 $35 #
cone-surface $-1 -48.102240146986894 -19.372887968163425 3.8550622121390523 0.5877852598018023 0 -0.80901698891910034 1.2135254833786506 0 0.88167788970270344 1 I I 0 1 1.5 forward I I I I #
face $-1 $81 $82 $28 $-1 $83 forward single #
loop $-1 $84 $85 $36 #
cone-surface $-1 -48.102240146986894 -12.245576730852051 3.8550622121390523 0.5877852598018023 0 -0.80901698891910034 1.2135254833786506 0 0.88167788970270344 1 I I 0 1 1.5 forward I I I I #
face $-1 $86 $87 $29 $-1 $88 reversed single #
loop $-1 $-1 $89 $37 #
plane-surface $-1 35.002741981384048 29.74813639284616 152.33251681880608 0 -1 0 -0.61566148304635926 0 -0.78801074757464917 forward_v I I I I #
face $-1 $90 $91 $30 $-1 $92 forward single #
loop $-1 $93 $94 $38 #
cone-surface $-1 48.860197735431868 23.966591560173462 4.9097080854513884 -0.61566148304635926 0 -0.78801074757464917 0.78801074757464917 0 -0.61566148304635926 1 I I 0 1 1 forward I I I I #
face $-1 $95 $96 $31 $-1 $97 forward single #
loop $-1 $98 $99 $39 #
cone-surface $-1 48.860197735431868 27.435518459777086 4.9097080854513884 -0.61566148304635926 0 -0.78801074757464917 0.78801074757464917 0 -0.61566148304635926 1 I I 0 1 1 forward I I I I #
face $-1 $100 $101 $24 $-1 $102 reversed single #
loop $-1 $-1 $103 $40 #
plane-surface $-1 0 0 -8.7167064210612448 0 0 1 1 0 0 forward_v I I I I #
coedge $-1 $104 $105 $106 $107 forward $41 $-1 #
face $-1 $108 $109 $25 $-1 $110 reversed single #
loop $-1 $-1 $111 $43 #
plane-surface $-1 -49.886307272436042 -24.124428793037673 0 0 -1 0 0 0 -1 forward_v I I I I #
coedge $-1 $112 $113 $114 $115 forward $44 $-1 #
face $-1 $116 $117 $26 $-1 $118 forward single #
loop $-1 $-1 $119 $46 #
plane-surface $-1 -116.20748149757418 -7.4940359059778032 89.664379113961175 0 -1 0 0.5877852598018023 0 -0.80901698891910034 forward_v I I I I #
coedge $-1 $120 $121 $122 $123 reversed $47 $-1 #
face $-1 $-1 $124 $27 $-1 $125 forward single #
loop $-1 $126 $127 $49 #
cone-surface $-1 -46.119628644315931 -19.372887968163425 1.1262316378097754 0.5877852598018023 0 -0.80901698891910034 0.60676274168932531 0 0.44083894485135172 1 I I -0.70710678118654757 0.70710678118654757 0.75 forward I I I I #
loop $-1 $-1 $128 $35 #
coedge $-1 $80 $80 $129 $130 reversed $50 $-1 #
face $-1 $-1 $131 $28 $-1 $132 forward single #
loop $-1 $133 $134 $52 #
cone-surface $-1 -46.119628644315931 -12.245576730852051 1.1262316378097754 0.5877852598018023 0 -0.80901698891910034 0.60676274168932531 0 0.44083894485135172 1 I I -0.70710678118654757 0.70710678118654757 0.75 forward I I I I #
loop $-1 $-1 $135 $36 #
coedge $-1 $85 $85 $136 $137 reversed $53 $-1 #
face $-1 $138 $139 $29 $-1 $140 reversed single #
loop $-1 $-1 $141 $55 #
plane-surface $-1 -30.768024587850846 25.701055009975271 68.149776205685924 0.61566148304635926 0 0.78801074757464917 0.78801074757464917 0 -0.61566148304635926 forward_v I I I I #
coedge $-1 $142 $143 $144 $145 reversed $56 $-1 #
face $-1 $-1 $146 $30 $-1 $147 forward single #
loop $-1 $148 $149 $58 #
cone-surface $-1 48.053789605579681 23.966591560173462 3.877552768359303 -0.61566148304635926 0 -0.78801074757464917 0.39400537378732459 0 -0.30783074152317963 1 I I -0.70710678118654746 0.70710678118654746 0.5 forward I I I I #
loop $-1 $-1 $150 $38 #
coedge $-1 $94 $94 $151 $152 reversed $59 $-1 #
face $-1 $-1 $153 $31 $-1 $154 forward single #
loop $-1 $155 $156 $61 #
cone-surface $-1 48.053789605579681 27.435518459777086 3.877552768359303 -0.61566148304635926 0 -0.78801074757464917 0.39400537378732459 0 -0.30783074152317963 1 I I -0.70710678118654746 0.70710678118654746 0.5 forward I I I I #
loop $-1 $-1 $157 $39 #
coedge $-1 $99 $99 $158 $159 reversed $62 $-1 #
face $-1 $160 $161 $24 $-1 $162 reversed single #
loop $-1 $-1 $163 $64 #
plane-surface $-1 0 -34.868315464867273 0 0 1 0 0 0 1 forward_v I I I I #
coedge $-1 $164 $165 $166 $167 forward $65 $-1 #
coedge $-1 $168 $67 $169 $170 forward $41 $-1 #
coedge $-1 $67 $168 $171 $172 forward $41 $-1 #
coedge $-1 $173 $174 $67 $107 reversed $175 $-1 #
edge $-1 $176 -34.868315464867273 $177 34.868315464867273 $106 $178 forward 7 unknown #
face $-1 $179 $180 $25 $-1 $181 forward single #
loop $-1 $-1 $182 $68 #
plane-surface $-1 -48.034881701628215 -29.496372128952473 0 -1 0 0 0 0 1 forward_v I I I I #
coedge $-1 $183 $184 $185 $186 forward $69 $-1 #
coedge $-1 $187 $71 $188 $189 reversed $44 $-1 #
coedge $-1 $71 $187 $190 $191 reversed $44 $-1 #
coedge $-1 $184 $183 $71 $115 reversed $69 $-1 #
edge $-1 $192 -8.7167064210612448 $193 8.7167064210612448 $114 $194 forward 7 unknown #
face $-1 $195 $196 $26 $-1 $197 forward single #
loop $-1 $-1 $198 $72 #
plane-surface $-1 -49.886307272436042 -24.124428793037673 0 0 -1 0 0 0 -1 forward_v I I I I #
coedge $-1 $199 $200 $201 $202 reversed $73 $-1 #
coedge $-1 $203 $75 $198 $204 reversed $47 $-1 #
coedge $-1 $75 $203 $199 $205 forward $47 $-1 #
coedge $-1 $201 $206 $75 $123 forward $196 $-1 #
edge $-1 $207 -16.219812618283804 $208 0.41058026877606579 $122 $209 forward 7 unknown #
loop $-1 $-1 $129 $76 #
plane-surface $-1 -53.414716025269328 -15.809232349507738 3.2375536684967585 -0.5877852598018023 0 0.80901698891910034 0.80901698891910034 0 0.5877852598018023 forward_v I I I I #
loop $-1 $-1 $210 $49 #
coedge $-1 $127 $127 $128 $211 reversed $77 $-1 #
coedge $-1 $128 $128 $127 $211 forward $79 $-1 #
coedge $-1 $129 $129 $80 $130 forward $124 $-1 #
edge $-1 $212 0 $212 6.2831853071796004 $129 $213 forward 7 unknown #
loop $-1 $-1 $136 $81 #
plane-surface $-1 -53.414716025269328 -15.809232349507738 3.2375536684967585 -0.5877852598018023 0 0.80901698891910034 0.80901698891910034 0 0.5877852598018023 forward_v I I I I #
loop $-1 $-1 $214 $52 #
coedge $-1 $134 $134 $135 $215 reversed $82 $-1 #
coedge $-1 $135 $135 $134 $215 forward $84 $-1 #
coedge $-1 $136 $136 $85 $137 forward $131 $-1 #
edge $-1 $216 0 $216 6.2831853071796004 $136 $217 forward 7 unknown #
face $-1 $218 $219 $29 $-1 $220 forward single #
loop $-1 $-1 $221 $86 #
plane-surface $-1 35.002741981384048 21.653973627104381 152.33251681880608 0 1 0 0.61566148304635926 0 0.78801074757464917 forward_v I I I I #
coedge $-1 $222 $223 $224 $225 reversed $87 $-1 #
coedge $-1 $143 $89 $226 $227 reversed $56 $-1 #
coedge $-1 $89 $142 $222 $228 reversed $56 $-1 #
coedge $-1 $224 $229 $89 $145 forward $219 $-1 #
edge $-1 $230 -35.913345034577304 $231 -27.801463231560405 $144 $232 forward 7 unknown #
loop $-1 $-1 $151 $90 #
plane-surface $-1 -30.768024587850846 25.701055009975271 68.149776205685924 0.61566148304635926 0 0.78801074757464917 0.78801074757464917 0 -0.61566148304635926 forward_v I I I I #
loop $-1 $-1 $233 $58 #
coedge $-1 $149 $149 $150 $234 reversed $91 $-1 #
coedge $-1 $150 $150 $149 $234 forward $93 $-1 #
coedge $-1 $151 $151 $94 $152 forward $146 $-1 #
edge $-1 $235 0 $235 6.2831853071796004 $151 $236 forward 7 unknown #
loop $-1 $-1 $158 $95 #
plane-surface $-1 -30.768024587850846 25.701055009975271 68.149776205685924 0.61566148304635926 0 0.78801074757464917 0.78801074757464917 0 -0.61566148304635926 forward_v I I I I #
loop $-1 $-1 $237 $61 #
coedge $-1 $156 $156 $157 $238 reversed $96 $-1 #
coedge $-1 $157 $157 $156 $238 forward $98 $-1 #
coedge $-1 $158 $158 $99 $159 forward $153 $-1 #
edge $-1 $239 0 $239 6.2831853071796004 $158 $240 forward 7 unknown #
face $-1 $241 $242 $24 $-1 $243 reversed single #
loop $-1 $-1 $244 $100 #
plane-surface $-1 -53.414716025269328 0 0 1 0 0 0 0 -1 forward_v I I I I #
coedge $-1 $245 $171 $246 $247 forward $101 $-1 #
coedge $-1 $248 $103 $245 $249 forward $65 $-1 #
coedge $-1 $103 $248 $250 $251 forward $65 $-1 #
coedge $-1 $174 $173 $103 $167 reversed $175 $-1 #
edge $-1 $252 -34.868315464867273 $253 34.868315464867273 $166 $254 forward 7 unknown #
coedge $-1 $105 $104 $255 $256 forward $41 $-1 #
coedge $-1 $257 $258 $104 $170 reversed $242 $-1 #
edge $-1 $177 -53.414716025269328 $259 53.414716025269328 $169 $260 forward 7 unknown #
coedge $-1 $163 $261 $105 $172 reversed $101 $-1 #
edge $-1 $262 -53.414716025269328 $176 53.414716025269328 $171 $263 forward 7 unknown #
coedge $-1 $166 $106 $261 $264 forward $175 $-1 #
coedge $-1 $106 $166 $257 $265 reversed $175 $-1 #
loop $-1 $-1 $173 $241 #
vertex $-1 $107 $266 #
vertex $-1 $107 $267 #
straight-curve $-1 53.414716025269328 0 8.7167064210612448 0 1 0 I I #
face $-1 $268 $269 $25 $-1 $270 reversed single #
loop $-1 $-1 $271 $108 #
plane-surface $-1 0 0 8.7167064210612448 0 0 1 1 0 0 forward_v I I I I #
coedge $-1 $272 $273 $274 $275 reversed $109 $-1 #
coedge $-1 $114 $111 $276 $277 reversed $69 $-1 #
coedge $-1 $111 $114 $278 $279 reversed $69 $-1 #
coedge $-1 $273 $272 $111 $186 reversed $109 $-1 #
edge $-1 $280 -8.7167064210612448 $281 8.7167064210612448 $185 $282 forward 7 unknown #
coedge $-1 $113 $112 $283 $284 reversed $44 $-1 #
coedge $-1 $276 $285 $112 $189 forward $269 $-1 #
edge $-1 $286 -20.120129400391036 $193 -9.3762427285614365 $188 $287 forward 7 unknown #
coedge $-1 $288 $278 $113 $191 forward $180 $-1 #
edge $-1 $192 9.3762427285614365 $289 20.120129400391036 $190 $290 forward 7 unknown #
vertex $-1 $191 $291 #
vertex $-1 $189 $292 #
straight-curve $-1 -51.737732843243869 -24.124428793037673 0 0 0 -1 I I #
face $-1 $-1 $293 $26 $-1 $294 reversed single #
loop $-1 $-1 $206 $116 #
plane-surface $-1 0 0 8.7167064210612448 0 0 1 1 0 0 forward_v I I I I #
coedge $-1 $295 $296 $120 $204 forward $117 $-1 #
coedge $-1 $200 $119 $121 $205 reversed $73 $-1 #
coedge $-1 $119 $199 $297 $298 reversed $73 $-1 #
coedge $-1 $299 $122 $119 $202 forward $196 $-1 #
edge $-1 $208 -12.230431364443412 $300 -4.6890247235177611 $201 $301 forward 7 unknown #
coedge $-1 $121 $120 $302 $303 reversed $47 $-1 #
edge $-1 $304 -0.47577815036667109 $207 8.8459131666493818 $198 $305 forward 7 unknown #
edge $-1 $306 0 $208 9.321691317016052 $199 $307 forward 7 unknown #
coedge $-1 $122 $299 $295 $308 forward $196 $-1 #
vertex $-1 $123 $309 #
vertex $-1 $123 $310 #
straight-curve $-1 -45.873309384343671 -7.904616174753869 8.7167064210612448 0 1 0 I I #
coedge $-1 $210 $210 $-1 $311 reversed $126 $-1 #
edge $-1 $312 0 $312 6.2831853071796004 $127 $313 forward 7 unknown #
vertex $-1 $130 $314 #
ellipse-curve $-1 -49.644012704806507 -19.372887968163425 5.9771300447790008 -0.5877852598018023 0 0.80901698891910034 1.2135254833786506 0 0.88167788970270344 1 I I #
coedge $-1 $214 $214 $-1 $315 reversed $133 $-1 #
edge $-1 $316 0 $316 6.2831853071796004 $134 $317 forward 7 unknown #
vertex $-1 $137 $318 #
ellipse-curve $-1 -49.644012704806507 -12.245576730852051 5.9771300447790008 -0.5877852598018023 0 0.80901698891910034 1.2135254833786506 0 0.88167788970270344 1 I I #
face $-1 $-1 $319 $29 $-1 $320 reversed single #
loop $-1 $-1 $144 $138 #
plane-surface $-1 0 0 8.7167064210612448 0 0 1 1 0 0 forward_v I I I I #
coedge $-1 $321 $322 $323 $324 reversed $139 $-1 #
coedge $-1 $325 $141 $143 $228 forward $87 $-1 #
coedge $-1 $141 $325 $321 $326 forward $87 $-1 #
coedge $-1 $323 $144 $141 $225 forward $219 $-1 #
edge $-1 $231 -16.897608887858524 $327 -8.8034461221167462 $224 $328 forward 7 unknown #
coedge $-1 $329 $330 $142 $227 forward $319 $-1 #
edge $-1 $331 -73.787248772952026 $230 -67.449551988341796 $226 $332 forward 7 unknown #
edge $-1 $231 96.535306205194871 $331 106.82943205053868 $143 $333 forward 7 unknown #
coedge $-1 $144 $323 $329 $334 forward $219 $-1 #
vertex $-1 $227 $335 #
vertex $-1 $145 $336 #
straight-curve $-1 17.501370990692024 29.74813639284616 8.7167064210612466 -1 0 0 I I #
coedge $-1 $233 $233 $-1 $337 reversed $148 $-1 #
edge $-1 $338 0 $338 6.2831853071796004 $149 $339 forward 7 unknown #
vertex $-1 $152 $340 #
ellipse-curve $-1 49.358775123760864 23.966591560173462 5.5478580287561368 0.61566148304635926 0 0.78801074757464917 0.78801074757464917 0 -0.61566148304635926 1 I I #
coedge $-1 $237 $237 $-1 $341 reversed $155 $-1 #
edge $-1 $342 0 $342 6.2831853071796004 $156 $343 forward 7 unknown #
vertex $-1 $159 $344 #
ellipse-curve $-1 49.358775123760864 27.435518459777086 5.5478580287561368 0.61566148304635926 0 0.78801074757464917 0.78801074757464917 0 -0.61566148304635926 1 I I #
face $-1 $-1 $175 $24 $-1 $345 reversed single #
loop $-1 $-1 $257 $160 #
plane-surface $-1 0 34.868315464867273 0 0 -1 0 0 0 -1 forward_v I I I I #
coedge $-1 $346 $255 $258 $347 forward $161 $-1 #
coedge $-1 $261 $163 $164 $249 reversed $101 $-1 #
coedge $-1 $255 $346 $163 $247 reversed $161 $-1 #
edge $-1 $262 -8.7167064210612448 $348 8.7167064210612448 $246 $349 forward 7 unknown #
coedge $-1 $165 $164 $346 $350 forward $65 $-1 #
edge $-1 $253 -53.414716025269328 $348 53.414716025269328 $245 $351 forward 7 unknown #
coedge $-1 $258 $257 $165 $251 reversed $242 $-1 #
edge $-1 $352 -53.414716025269328 $252 53.414716025269328 $250 $353 forward 7 unknown #
vertex $-1 $167 $354 #
vertex $-1 $264 $355 #
straight-curve $-1 53.414716025269328 0 -8.7167064210612448 0 -1 0 I I #
coedge $-1 $244 $246 $168 $256 reversed $161 $-1 #
edge $-1 $259 -34.868315464867273 $262 34.868315464867273 $255 $356 forward 7 unknown #
coedge $-1 $250 $169 $174 $265 forward $242 $-1 #
coedge $-1 $169 $250 $244 $347 reversed $242 $-1 #
vertex $-1 $170 $357 #
straight-curve $-1 0 34.868315464867273 8.7167064210612448 -1 0 0 I I #
coedge $-1 $171 $245 $173 $264 reversed $101 $-1 #
vertex $-1 $256 $358 #
straight-curve $-1 0 -34.868315464867273 8.7167064210612448 1 0 0 I I #
edge $-1 $176 -8.7167064210612448 $253 8.7167064210612448 $173 $359 forward 7 unknown #
edge $-1 $177 -8.7167064210612448 $252 8.7167064210612448 $174 $360 forward 7 unknown #
point $-1 53.414716025269328 -34.868315464867273 8.7167064210612448 #
point $-1 53.414716025269328 34.868315464867273 8.7167064210612448 #
face $-1 $-1 $361 $25 $-1 $362 reversed single #
loop $-1 $-1 $363 $179 #
plane-surface $-1 0 0 -8.7167064210612448 0 0 1 1 0 0 forward_v I I I I #
coedge $-1 $278 $288 $273 $364 forward $180 $-1 #
coedge $-1 $185 $182 $363 $365 reversed $109 $-1 #
coedge $-1 $182 $185 $271 $364 reversed $109 $-1 #
coedge $-1 $366 $367 $182 $275 forward $361 $-1 #
edge $-1 $368 -8.7167064210612448 $369 8.7167064210612448 $274 $370 forward 7 unknown #
coedge $-1 $363 $188 $183 $277 forward $269 $-1 #
edge $-1 $193 -26.794579207025848 $281 -23.091728065410194 $276 $371 forward 7 unknown #
coedge $-1 $190 $271 $184 $279 forward $180 $-1 #
edge $-1 $280 23.091728065410194 $192 26.794579207025848 $278 $372 forward 7 unknown #
vertex $-1 $279 $373 #
vertex $-1 $277 $374 #
straight-curve $-1 -48.034881701628215 -24.124428793037673 0 0 0 -1 I I #
coedge $-1 $367 $366 $187 $284 forward $361 $-1 #
edge $-1 $289 -8.7167064210612448 $286 8.7167064210612448 $283 $375 forward 7 unknown #
coedge $-1 $188 $363 $367 $376 forward $269 $-1 #
vertex $-1 $189 $377 #
straight-curve $-1 -51.737732843243869 -14.748186064476236 -8.7167064210612448 0 1 0 I I #
coedge $-1 $271 $190 $366 $378 forward $180 $-1 #
vertex $-1 $378 $379 #
straight-curve $-1 -51.737732843243869 -14.748186064476236 8.7167064210612448 0 -1 0 I I #
point $-1 -51.737732843243869 -24.124428793037673 8.7167064210612448 #
point $-1 -51.737732843243869 -24.124428793037673 -8.7167064210612448 #
loop $-1 $-1 $380 $195 #
plane-surface $-1 -53.414716025269328 0 0 1 0 0 0 0 -1 forward_v I I I I #
coedge $-1 $296 $198 $206 $308 reversed $117 $-1 #
coedge $-1 $198 $295 $380 $381 reversed $117 $-1 #
coedge $-1 $302 $382 $200 $298 forward $293 $-1 #
edge $-1 $300 36.115483135919341 $306 41.594635888483829 $297 $383 forward 7 unknown #
coedge $-1 $206 $201 $382 $384 forward $196 $-1 #
vertex $-1 $384 $385 #
straight-curve $-1 -58.103740748787089 -7.4940359059778032 8.7167064210612466 -1 0 0 I I #
coedge $-1 $380 $297 $203 $303 forward $293 $-1 #
edge $-1 $306 -0.41058026877606579 $304 16.219812618283804 $302 $386 forward 7 unknown #
vertex $-1 $381 $387 #
straight-curve $-1 -53.029803418666184 -24.124428793037673 3.5172090522180515 0.80901698891910034 0 0.5877852598018023 I I #
vertex $-1 $303 $388 #
straight-curve $-1 -53.414716025269328 -7.4940359059778032 3.2375536684967585 0.80901698891910034 0 0.5877852598018023 I I #
edge $-1 $389 4.6890247235177611 $207 12.230431364443412 $206 $390 forward 7 unknown #
point $-1 -45.873309384343678 -24.124428793037673 8.716706421061243 #
point $-1 -45.873309384343678 -7.4940359059778032 8.716706421061243 #
edge $-1 $391 1 $391 0 $210 $-1 forward 7 unknown #
vertex $-1 $211 $392 #
ellipse-curve $-1 -46.560467589167281 -19.372887968163425 1.7329943794991007 -0.5877852598018023 0 0.80901698891910034 1.2135254833786506 0 0.88167788970270344 1 I I #
point $-1 -48.430487221427853 -19.372887968163425 6.8588079344817077 #
edge $-1 $393 1 $393 0 $214 $-1 forward 7 unknown #
vertex $-1 $215 $394 #
ellipse-curve $-1 -46.560467589167281 -12.245576730852051 1.7329943794991007 -0.5877852598018023 0 0.80901698891910034 1.2135254833786506 0 0.88167788970270344 1 I I #
point $-1 -48.430487221427853 -12.245576730852051 6.8588079344817077 #
loop $-1 $-1 $226 $218 #
plane-surface $-1 53.414716025269328 0 0 -1 0 0 0 0 1 forward_v I I I I #
coedge $-1 $322 $221 $223 $326 reversed $139 $-1 #
coedge $-1 $221 $321 $395 $396 reversed $139 $-1 #
coedge $-1 $229 $224 $221 $324 forward $219 $-1 #
edge $-1 $327 27.801463231560405 $397 35.913345034577304 $323 $398 forward 7 unknown #
coedge $-1 $223 $222 $330 $399 reversed $87 $-1 #
edge $-1 $400 -106.82943205053868 $327 -96.535306205194871 $321 $401 forward 7 unknown #
vertex $-1 $225 $402 #
straight-curve $-1 45.302834222252429 12.850527504987635 8.7167064210612395 0 -1 0 I I #
coedge $-1 $395 $226 $229 $334 reversed $319 $-1 #
coedge $-1 $226 $395 $325 $399 forward $319 $-1 #
vertex $-1 $227 $403 #
straight-curve $-1 53.414716025269328 29.74813639284616 76.166258409403042 0 0 1 I I #
straight-curve $-1 -30.768024587850846 29.74813639284616 68.149776205685924 0.78801074757464917 0 -0.61566148304635926 I I #
edge $-1 $397 21.653973627104381 $230 29.74813639284616 $329 $404 forward 7 unknown #
point $-1 53.414716025269328 29.74813639284616 8.7167064210612448 #
point $-1 45.302834222252429 29.74813639284616 8.7167064210612395 #
edge $-1 $405 1 $405 0 $233 $-1 forward 7 unknown #
vertex $-1 $234 $406 #
ellipse-curve $-1 48.361620347102857 23.966591560173462 4.2715581421466275 0.61566148304635926 0 0.78801074757464917 0.78801074757464917 0 -0.61566148304635926 1 I I #
point $-1 50.146785871335531 23.966591560173462 4.9321965457097905 #
edge $-1 $407 1 $407 0 $237 $-1 forward 7 unknown #
vertex $-1 $238 $408 #
ellipse-curve $-1 48.361620347102857 27.435518459777086 4.2715581421466275 0.61566148304635926 0 0.78801074757464917 0.78801074757464917 0 -0.61566148304635926 1 I I #
point $-1 50.146785871335531 27.435518459777086 4.9321965457097905 #
plane-surface $-1 53.414716025269328 0 0 -1 0 0 0 0 1 forward_v I I I I #
coedge $-1 $246 $244 $248 $350 reversed $161 $-1 #
edge $-1 $259 -8.7167064210612448 $352 8.7167064210612448 $258 $409 forward 7 unknown #
vertex $-1 $350 $410 #
straight-curve $-1 -53.414716025269328 -34.868315464867273 0 0 0 -1 I I #
edge $-1 $348 -34.868315464867273 $352 34.868315464867273 $346 $411 forward 7 unknown #
straight-curve $-1 0 -34.868315464867273 -8.7167064210612448 -1 0 0 I I #
vertex $-1 $251 $412 #
straight-curve $-1 0 34.868315464867273 -8.7167064210612448 1 0 0 I I #
point $-1 53.414716025269328 34.868315464867273 -8.7167064210612448 #
point $-1 53.414716025269328 -34.868315464867273 -8.7167064210612448 #
straight-curve $-1 -53.414716025269328 0 8.7167064210612448 0 -1 0 I I #
point $-1 -53.414716025269328 34.868315464867273 8.7167064210612448 #
point $-1 -53.414716025269328 -34.868315464867273 8.7167064210612448 #
straight-curve $-1 53.414716025269328 -34.868315464867273 0 0 0 -1 I I #
straight-curve $-1 53.414716025269328 34.868315464867273 0 0 0 -1 I I #
loop $-1 $-1 $274 $268 #
plane-surface $-1 0 -34.868315464867273 0 0 1 0 0 0 1 forward_v I I I I #
coedge $-1 $285 $276 $272 $365 forward $269 $-1 #
edge $-1 $369 -20.120129400391036 $280 -9.3762427285614365 $271 $413 forward 7 unknown #
edge $-1 $281 9.3762427285614365 $368 20.120129400391036 $363 $414 forward 7 unknown #
coedge $-1 $283 $274 $288 $378 reversed $361 $-1 #
coedge $-1 $274 $283 $285 $376 reversed $361 $-1 #
vertex $-1 $376 $415 #
vertex $-1 $275 $416 #
straight-curve $-1 -48.034881701628215 -34.868315464867273 0 0 0 1 I I #
straight-curve $-1 -24.943153636218021 -24.124428793037673 -8.7167064210612448 1 0 0 I I #
straight-curve $-1 -24.943153636218021 -24.124428793037673 8.7167064210612448 -1 0 0 I I #
point $-1 -48.034881701628215 -24.124428793037673 8.7167064210612448 #
point $-1 -48.034881701628215 -24.124428793037673 -8.7167064210612448 #
straight-curve $-1 -51.737732843243869 -34.868315464867273 0 0 0 -1 I I #
edge $-1 $368 48.034881701628215 $286 51.737732843243869 $367 $417 forward 7 unknown #
point $-1 -51.737732843243869 -34.868315464867273 -8.7167064210612448 #
edge $-1 $289 -51.737732843243869 $369 -48.034881701628215 $366 $418 forward 7 unknown #
point $-1 -51.737732843243869 -34.868315464867273 8.7167064210612448 #
coedge $-1 $382 $302 $296 $381 forward $293 $-1 #
edge $-1 $304 -41.594635888483829 $389 -36.115483135919341 $380 $419 forward 7 unknown #
coedge $-1 $297 $380 $299 $384 reversed $293 $-1 #
straight-curve $-1 -53.414716025269328 -7.4940359059778032 44.832189556980587 0 0 -1 I I #
edge $-1 $300 7.4940359059778032 $389 24.124428793037673 $382 $420 forward 7 unknown #
point $-1 -53.414716025269328 -7.4940359059778032 8.7167064210612448 #
straight-curve $-1 -53.414716025269328 -7.904616174753869 3.2375536684967567 0 -1 0 I I #
point $-1 -53.414716025269328 -24.124428793037673 3.2375536684967585 #
point $-1 -53.414716025269328 -7.4940359059778032 3.2375536684967585 #
vertex $-1 $381 $421 #
straight-curve $-1 -58.103740748787089 -24.124428793037673 8.7167064210612466 1 0 0 I I #
vertex $-1 $311 $422 #
point $-1 -45.346942105788635 -19.372887968163425 2.6146722692018041 #
vertex $-1 $315 $423 #
point $-1 -45.346942105788635 -12.245576730852051 2.6146722692018041 #
coedge $-1 $330 $329 $322 $396 forward $319 $-1 #
edge $-1 $397 67.449551988341796 $400 73.787248772952026 $395 $424 forward 7 unknown #
vertex $-1 $334 $425 #
straight-curve $-1 17.501370990692024 21.653973627104381 8.7167064210612466 1 0 0 I I #
edge $-1 $400 8.8034461221167462 $331 16.897608887858524 $330 $426 forward 7 unknown #
vertex $-1 $399 $427 #
straight-curve $-1 -30.768024587850846 21.653973627104381 68.149776205685924 -0.78801074757464917 0 0.61566148304635926 I I #
point $-1 45.302834222252429 21.653973627104381 8.7167064210612395 #
point $-1 53.414716025269328 29.74813639284616 2.3790096364510163 #
straight-curve $-1 53.414716025269328 0 8.7167064210612448 0 1 0 I I #
vertex $-1 $337 $428 #
point $-1 49.14963109467751 23.966591560173462 3.6558966591002684 #
vertex $-1 $341 $429 #
point $-1 49.14963109467751 27.435518459777086 3.6558966591002684 #
straight-curve $-1 -53.414716025269328 34.868315464867273 0 0 0 -1 I I #
point $-1 -53.414716025269328 -34.868315464867273 -8.7167064210612448 #
straight-curve $-1 -53.414716025269328 0 -8.7167064210612448 0 1 0 I I #
point $-1 -53.414716025269328 34.868315464867273 -8.7167064210612448 #
straight-curve $-1 -48.034881701628215 -14.748186064476236 8.7167064210612448 0 1 0 I I #
straight-curve $-1 -48.034881701628215 -14.748186064476236 -8.7167064210612448 0 -1 0 I I #
point $-1 -48.034881701628215 -34.868315464867273 -8.7167064210612448 #
point $-1 -48.034881701628215 -34.868315464867273 8.7167064210612448 #
straight-curve $-1 0 -34.868315464867273 -8.7167064210612448 -1 0 0 I I #
straight-curve $-1 0 -34.868315464867273 8.7167064210612448 1 0 0 I I #
straight-curve $-1 -53.414716025269328 -24.124428793037673 44.832189556980587 0 0 1 I I #
straight-curve $-1 -53.414716025269328 0 8.7167064210612448 0 -1 0 I I #
point $-1 -53.414716025269328 -24.124428793037673 8.7167064210612448 #
point $-1 -45.678789699464581 -19.372887968163425 0.51946889612045011 #
point $-1 -45.678789699464581 -12.245576730852051 0.51946889612045011 #
straight-curve $-1 53.414716025269328 21.653973627104381 76.166258409403042 0 0 -1 I I #
point $-1 53.414716025269328 21.653973627104381 8.7167064210612448 #
straight-curve $-1 53.414716025269328 12.850527504987635 2.3790096364510092 0 1 0 I I #
point $-1 53.414716025269328 21.653973627104381 2.3790096364510163 #
point $-1 47.745958864056504 23.966591560173462 3.4835473945719784 #
point $-1 47.745958864056504 27.435518459777086 3.4835473945719784 #
End-of-ACIS-data 