500 0 8 0           
7 Unknown 11 ACIS 5.0 NT 24 Fri Mar 26 17:43:57 1999 
-1 9.9999999999999995e-007 1e-010 
body $-1 $8 $-1 $9 #
body $-1 $10 $-1 $11 #
body $-1 $12 $-1 $13 #
body $-1 $14 $-1 $15 #
body $-1 $16 $-1 $17 #
body $-1 $18 $-1 $19 #
body $-1 $20 $-1 $21 #
body $-1 $22 $-1 $23 #
lump $-1 $-1 $24 $0 #
transform $-1 1 0 0 0 1 0 0 0 1 61.43620105594043 25.131337983752385 9.1340874492599937 1 rotate no_reflect no_shear #
lump $-1 $-1 $25 $1 #
transform $-1 1 0 0 0 1 0 0 0 1 61.43620105594043 25.131337983752385 9.1340874492599937 1 rotate no_reflect no_shear #
lump $-1 $-1 $26 $2 #
transform $-1 1 0 0 0 1 0 0 0 1 61.43620105594043 25.131337983752385 9.1340874492599937 1 rotate no_reflect no_shear #
lump $-1 $-1 $27 $3 #
transform $-1 1 0 0 0 1 0 0 0 1 61.43620105594043 25.131337983752385 9.1340874492599937 1 rotate no_reflect no_shear #
lump $-1 $-1 $28 $4 #
transform $-1 1 0 0 0 1 0 0 0 1 61.43620105594043 25.131337983752385 9.1340874492599937 1 rotate no_reflect no_shear #
lump $-1 $-1 $29 $5 #
transform $-1 1 0 0 0 1 0 0 0 1 61.43620105594043 25.131337983752385 9.1340874492599937 1 rotate no_reflect no_shear #
lump $-1 $-1 $30 $6 #
transform $-1 1 0 0 0 1 0 0 0 1 61.43620105594043 25.131337983752385 9.1340874492599937 1 rotate no_reflect no_shear #
lump $-1 $-1 $31 $7 #
transform $-1 1 0 0 0 1 0 0 0 1 61.43620105594043 25.131337983752385 9.1340874492599937 1 rotate no_reflect no_shear #
shell $-1 $-1 $-1 $32 $-1 $8 #
shell $-1 $-1 $-1 $33 $-1 $10 #
shell $-1 $-1 $-1 $34 $-1 $12 #
shell $-1 $-1 $-1 $35 $-1 $14 #
shell $-1 $-1 $-1 $36 $-1 $16 #
shell $-1 $-1 $-1 $37 $-1 $18 #
shell $-1 $-1 $-1 $38 $-1 $20 #
shell $-1 $-1 $-1 $39 $-1 $22 #
face $-1 $40 $41 $24 $-1 $42 forward single #
face $-1 $43 $44 $25 $-1 $45 forward single #
face $-1 $46 $47 $26 $-1 $48 reversed single #
face $-1 $49 $50 $27 $-1 $51 forward single #
face $-1 $52 $53 $28 $-1 $54 reversed single #
face $-1 $55 $56 $29 $-1 $57 forward single #
face $-1 $58 $59 $30 $-1 $60 forward single #
face $-1 $61 $62 $31 $-1 $63 forward single #
face $-1 $64 $65 $24 $-1 $66 reversed single #
loop $-1 $-1 $67 $32 #
plane-surface $-1 0 0 9.1340874492599937 0 0 1 1 0 0 forward_v I I I I #
face $-1 $68 $69 $25 $-1 $70 reversed single #
loop $-1 $-1 $71 $33 #
plane-surface $-1 0 -25.131337983752385 0 0 1 0 0 0 1 forward_v I I I I #
face $-1 $72 $73 $26 $-1 $74 reversed single #
loop $-1 $-1 $75 $34 #
plane-surface $-1 34.252927075933087 21.787216634319734 172.37332913207663 0 -1 0 -0.5877852598018023 0 -0.80901698891910034 forward_v I I I I #
face $-1 $76 $77 $27 $-1 $78 forward single #
loop $-1 $79 $80 $35 #
cone-surface $-1 53.827173775682063 16.082047123407722 2.4129266932562103 -0.5877852598018023 0 -0.80901698891910034 2.0225424722977507 0 -1.4694631495045059 1 I I 0 1 2.5 forward I I I I #
face $-1 $81 $82 $28 $-1 $83 reversed single #
loop $-1 $-1 $84 $36 #
plane-surface $-1 -149.82321127056673 17.036346270410345 89.595804614255215 0 1 0 -0.71933980857756763 0 0.69465836192734942 forward_v I I I I #
face $-1 $85 $86 $29 $-1 $87 forward single #
loop $-1 $88 $89 $37 #
cone-surface $-1 -58.509666598759338 18.65534461307875 6.1429739416026328 0.71933980857756763 0 -0.69465836192734942 0.34732918096367471 0 0.35966990428878381 1 I I 0 1 0.5 forward I I I I #
face $-1 $90 $91 $30 $-1 $92 forward single #
loop $-1 $93 $94 $38 #
cone-surface $-1 -58.509666598759338 21.083842127081365 6.1429739416026328 0.71933980857756763 0 -0.69465836192734942 0.34732918096367471 0 0.35966990428878381 1 I I 0 1 0.5 forward I I I I #
face $-1 $95 $96 $31 $-1 $97 forward single #
loop $-1 $98 $99 $39 #
cone-surface $-1 -58.509666598759338 23.51233964108398 6.1429739416026328 0.71933980857756763 0 -0.69465836192734942 0.34732918096367471 0 0.35966990428878381 1 I I 0 1 0.5 forward I I I I #
face $-1 $100 $101 $24 $-1 $102 reversed single #
loop $-1 $-1 $103 $40 #
plane-surface $-1 0 0 -9.1340874492599937 0 0 1 1 0 0 forward_v I I I I #
coedge $-1 $104 $105 $106 $107 forward $41 $-1 #
face $-1 $108 $109 $25 $-1 $110 forward single #
loop $-1 $-1 $111 $43 #
plane-surface $-1 -61.43620105594043 0 0 1 0 0 0 0 -1 forward_v I I I I #
coedge $-1 $112 $113 $114 $115 forward $44 $-1 #
face $-1 $116 $117 $26 $-1 $118 reversed single #
loop $-1 $-1 $119 $46 #
plane-surface $-1 -37.969659721870329 16.082047123407722 72.967468354265876 0.5877852598018023 0 0.80901698891910034 0.80901698891910034 0 -0.5877852598018023 forward_v I I I I #
coedge $-1 $120 $121 $122 $123 reversed $47 $-1 #
face $-1 $-1 $124 $27 $-1 $125 forward single #
loop $-1 $126 $127 $49 #
cone-surface $-1 51.256790466956815 16.082047123407722 -1.1249023524976849 -0.5877852598018023 0 -0.80901698891910034 1.0112712361488754 0 -0.73473157475225293 1 I I -0.70710678118654746 0.70710678118654746 1.25 forward I I I I #
loop $-1 $-1 $128 $35 #
coedge $-1 $80 $80 $129 $130 reversed $50 $-1 #
face $-1 $131 $132 $28 $-1 $133 forward single #
loop $-1 $-1 $134 $52 #
plane-surface $-1 -61.43620105594043 21.083842127081365 4.2414630371374642 -0.71933980857756763 0 0.69465836192734942 0.69465836192734942 0 0.71933980857756763 forward_v I I I I #
coedge $-1 $135 $136 $137 $138 reversed $53 $-1 #
face $-1 $-1 $139 $29 $-1 $140 forward single #
loop $-1 $141 $142 $55 #
cone-surface $-1 -57.765673370429198 18.65534461307875 5.4245080495246931 0.71933980857756763 0 -0.69465836192734942 0.17366459048183736 0 0.17983495214439191 1 I I -0.70710678118654746 0.70710678118654746 0.25 forward I I I I #
loop $-1 $-1 $143 $37 #
coedge $-1 $89 $89 $144 $145 reversed $56 $-1 #
face $-1 $-1 $146 $30 $-1 $147 forward single #
loop $-1 $148 $149 $58 #
cone-surface $-1 -57.765673370429198 21.083842127081365 5.4245080495246931 0.71933980857756763 0 -0.69465836192734942 0.17366459048183736 0 0.17983495214439191 1 I I -0.70710678118654746 0.70710678118654746 0.25 forward I I I I #
loop $-1 $-1 $150 $38 #
coedge $-1 $94 $94 $151 $152 reversed $59 $-1 #
face $-1 $-1 $153 $31 $-1 $154 forward single #
loop $-1 $155 $156 $61 #
cone-surface $-1 -57.765673370429198 23.51233964108398 5.4245080495246931 0.71933980857756763 0 -0.69465836192734942 0.17366459048183736 0 0.17983495214439191 1 I I -0.70710678118654746 0.70710678118654746 0.25 forward I I I I #
loop $-1 $-1 $157 $39 #
coedge $-1 $99 $99 $158 $159 reversed $62 $-1 #
face $-1 $160 $161 $24 $-1 $162 reversed single #
loop $-1 $-1 $163 $64 #
plane-surface $-1 0 -25.131337983752385 0 0 1 0 0 0 1 forward_v I I I I #
coedge $-1 $164 $165 $166 $167 forward $65 $-1 #
coedge $-1 $168 $67 $169 $170 forward $41 $-1 #
coedge $-1 $67 $168 $171 $172 forward $41 $-1 #
coedge $-1 $173 $174 $67 $107 reversed $175 $-1 #
edge $-1 $176 -25.131337983752385 $177 25.131337983752385 $106 $178 forward 7 unknown #
face $-1 $179 $180 $25 $-1 $181 reversed single #
loop $-1 $-1 $182 $68 #
plane-surface $-1 0 -30.444518487159421 -4.278705231640803 0 0 1 1 0 0 forward_v I I I I #
coedge $-1 $183 $184 $113 $185 forward $69 $-1 #
coedge $-1 $186 $71 $187 $188 reversed $44 $-1 #
coedge $-1 $71 $186 $111 $185 reversed $44 $-1 #
coedge $-1 $189 $182 $71 $115 reversed $109 $-1 #
edge $-1 $190 -61.43620105594043 $191 61.43620105594043 $114 $192 forward 7 unknown #
face $-1 $193 $194 $26 $-1 $195 reversed single #
loop $-1 $-1 $196 $72 #
plane-surface $-1 34.252927075933087 10.376877612495711 172.37332913207663 0 1 0 0.5877852598018023 0 0.80901698891910034 forward_v I I I I #
coedge $-1 $197 $198 $199 $200 reversed $73 $-1 #
coedge $-1 $121 $75 $201 $202 reversed $47 $-1 #
coedge $-1 $75 $120 $197 $203 reversed $47 $-1 #
coedge $-1 $199 $204 $75 $123 forward $205 $-1 #
edge $-1 $206 -44.309737517973886 $207 -32.762986425403156 $122 $208 forward 7 unknown #
loop $-1 $-1 $129 $76 #
plane-surface $-1 -37.969659721870329 16.082047123407722 72.967468354265876 0.5877852598018023 0 0.80901698891910034 0.80901698891910034 0 -0.5877852598018023 forward_v I I I I #
loop $-1 $-1 $209 $49 #
coedge $-1 $127 $127 $128 $210 reversed $77 $-1 #
coedge $-1 $128 $128 $127 $210 forward $79 $-1 #
coedge $-1 $129 $129 $80 $130 forward $124 $-1 #
edge $-1 $211 0 $211 6.2831853071796004 $129 $212 forward 7 unknown #
face $-1 $213 $214 $28 $-1 $215 reversed single #
loop $-1 $-1 $137 $81 #
plane-surface $-1 0 0 9.1340874492599937 0 0 1 1 0 0 forward_v I I I I #
coedge $-1 $216 $217 $218 $219 reversed $82 $-1 #
coedge $-1 $136 $84 $220 $221 reversed $53 $-1 #
coedge $-1 $84 $135 $216 $222 reversed $53 $-1 #
coedge $-1 $218 $223 $84 $138 forward $132 $-1 #
edge $-1 $224 13.475404579342936 $225 18.200156941333631 $137 $226 forward 7 unknown #
loop $-1 $-1 $144 $85 #
plane-surface $-1 -61.43620105594043 21.083842127081365 4.2414630371374642 -0.71933980857756763 0 0.69465836192734942 0.69465836192734942 0 0.71933980857756763 forward_v I I I I #
loop $-1 $-1 $227 $55 #
coedge $-1 $142 $142 $143 $228 reversed $86 $-1 #
coedge $-1 $143 $143 $142 $228 forward $88 $-1 #
coedge $-1 $144 $144 $89 $145 forward $139 $-1 #
edge $-1 $229 0 $229 6.2831853071796004 $144 $230 forward 7 unknown #
loop $-1 $-1 $151 $90 #
plane-surface $-1 -61.43620105594043 21.083842127081365 4.2414630371374642 -0.71933980857756763 0 0.69465836192734942 0.69465836192734942 0 0.71933980857756763 forward_v I I I I #
loop $-1 $-1 $231 $58 #
coedge $-1 $149 $149 $150 $232 reversed $91 $-1 #
coedge $-1 $150 $150 $149 $232 forward $93 $-1 #
coedge $-1 $151 $151 $94 $152 forward $146 $-1 #
edge $-1 $233 0 $233 6.2831853071796004 $151 $234 forward 7 unknown #
loop $-1 $-1 $158 $95 #
plane-surface $-1 -61.43620105594043 21.083842127081365 4.2414630371374642 -0.71933980857756763 0 0.69465836192734942 0.69465836192734942 0 0.71933980857756763 forward_v I I I I #
loop $-1 $-1 $235 $61 #
coedge $-1 $156 $156 $157 $236 reversed $96 $-1 #
coedge $-1 $157 $157 $156 $236 forward $98 $-1 #
coedge $-1 $158 $158 $99 $159 forward $153 $-1 #
edge $-1 $237 0 $237 6.2831853071796004 $158 $238 forward 7 unknown #
face $-1 $239 $240 $24 $-1 $241 reversed single #
loop $-1 $-1 $242 $100 #
plane-surface $-1 -61.43620105594043 0 0 1 0 0 0 0 -1 forward_v I I I I #
coedge $-1 $243 $171 $244 $245 forward $101 $-1 #
coedge $-1 $246 $103 $243 $247 forward $65 $-1 #
coedge $-1 $103 $246 $248 $249 forward $65 $-1 #
coedge $-1 $174 $173 $103 $167 reversed $175 $-1 #
edge $-1 $250 -25.131337983752385 $251 25.131337983752385 $166 $252 forward 7 unknown #
coedge $-1 $105 $104 $253 $254 forward $41 $-1 #
coedge $-1 $255 $256 $104 $170 reversed $240 $-1 #
edge $-1 $177 -61.43620105594043 $257 61.43620105594043 $169 $258 forward 7 unknown #
coedge $-1 $163 $259 $105 $172 reversed $101 $-1 #
edge $-1 $260 -61.43620105594043 $176 61.43620105594043 $171 $261 forward 7 unknown #
coedge $-1 $166 $106 $259 $262 forward $175 $-1 #
coedge $-1 $106 $166 $255 $263 reversed $175 $-1 #
loop $-1 $-1 $173 $239 #
vertex $-1 $107 $264 #
vertex $-1 $107 $265 #
straight-curve $-1 61.43620105594043 0 9.1340874492599937 0 1 0 I I #
face $-1 $266 $267 $25 $-1 $268 reversed single #
loop $-1 $-1 $269 $108 #
plane-surface $-1 0 -30.444518487159421 -8.6340874492599937 0 0 1 1 0 0 forward_v I I I I #
coedge $-1 $114 $270 $271 $272 forward $109 $-1 #
coedge $-1 $273 $111 $274 $275 reversed $69 $-1 #
coedge $-1 $111 $273 $189 $276 reversed $69 $-1 #
edge $-1 $190 4.278705231640803 $277 8.6340874492599937 $111 $278 forward 7 unknown #
coedge $-1 $113 $112 $279 $280 forward $44 $-1 #
coedge $-1 $271 $281 $112 $188 forward $282 $-1 #
edge $-1 $283 -8.6340874492599937 $191 -4.278705231640803 $187 $284 forward 7 unknown #
coedge $-1 $270 $114 $184 $276 forward $109 $-1 #
vertex $-1 $185 $285 #
vertex $-1 $272 $286 #
straight-curve $-1 0 -25.131337983752385 -4.278705231640803 1 0 0 I I #
face $-1 $-1 $205 $26 $-1 $287 forward single #
loop $-1 $-1 $288 $116 #
plane-surface $-1 61.43620105594043 0 0 -1 0 0 0 0 1 forward_v I I I I #
coedge $-1 $289 $290 $291 $292 reversed $117 $-1 #
coedge $-1 $293 $119 $121 $203 forward $73 $-1 #
coedge $-1 $119 $293 $289 $294 forward $73 $-1 #
coedge $-1 $291 $122 $119 $200 forward $205 $-1 #
edge $-1 $207 -13.746193072615872 $295 -2.3358540507918502 $199 $296 forward 7 unknown #
coedge $-1 $297 $298 $120 $202 forward $194 $-1 #
edge $-1 $299 -85.441783009575857 $206 -77.052577116778323 $201 $300 forward 7 unknown #
edge $-1 $207 108.59983274594214 $299 122.87240211188086 $121 $301 forward 7 unknown #
coedge $-1 $122 $291 $297 $302 forward $205 $-1 #
loop $-1 $-1 $291 $193 #
vertex $-1 $202 $303 #
vertex $-1 $123 $304 #
straight-curve $-1 17.126463537966544 21.787216634319734 9.1340874492599937 -1 0 0 I I #
coedge $-1 $209 $209 $-1 $305 reversed $126 $-1 #
edge $-1 $306 0 $306 6.2831853071796004 $127 $307 forward 7 unknown #
vertex $-1 $130 $308 #
ellipse-curve $-1 55.662825509655057 16.082047123407722 4.9394845028612275 0.5877852598018023 0 0.80901698891910034 2.0225424722977507 0 -1.4694631495045059 1 I I #
face $-1 $-1 $309 $28 $-1 $310 reversed single #
loop $-1 $-1 $311 $131 #
plane-surface $-1 0 25.131337983752385 0 0 -1 0 0 0 -1 forward_v I I I I #
coedge $-1 $312 $134 $136 $222 forward $82 $-1 #
coedge $-1 $134 $312 $311 $313 reversed $82 $-1 #
coedge $-1 $314 $137 $134 $219 forward $132 $-1 #
edge $-1 $225 6.4944252068696624 $315 14.589416920211702 $218 $316 forward 7 unknown #
coedge $-1 $317 $318 $135 $221 forward $309 $-1 #
edge $-1 $319 -40.556439269990143 $224 -35.663814857867614 $220 $320 forward 7 unknown #
edge $-1 $225 -6.801548244350986 $319 0 $136 $321 forward 7 unknown #
coedge $-1 $137 $314 $317 $322 forward $132 $-1 #
vertex $-1 $221 $323 #
vertex $-1 $138 $324 #
straight-curve $-1 -74.911605635283365 17.036346270410345 9.1340874492599937 1 0 0 I I #
coedge $-1 $227 $227 $-1 $325 reversed $141 $-1 #
edge $-1 $326 0 $326 6.2831853071796004 $142 $327 forward 7 unknown #
vertex $-1 $145 $328 #
ellipse-curve $-1 -59.073824874945082 18.65534461307875 6.687775243198729 -0.71933980857756763 0 0.69465836192734942 0.34732918096367471 0 0.35966990428878381 1 I I #
coedge $-1 $231 $231 $-1 $329 reversed $148 $-1 #
edge $-1 $330 0 $330 6.2831853071796004 $149 $331 forward 7 unknown #
vertex $-1 $152 $332 #
ellipse-curve $-1 -59.073824874945082 21.083842127081365 6.687775243198729 -0.71933980857756763 0 0.69465836192734942 0.34732918096367471 0 0.35966990428878381 1 I I #
coedge $-1 $235 $235 $-1 $333 reversed $155 $-1 #
edge $-1 $334 0 $334 6.2831853071796004 $156 $335 forward 7 unknown #
vertex $-1 $159 $336 #
ellipse-curve $-1 -59.073824874945082 23.51233964108398 6.687775243198729 -0.71933980857756763 0 0.69465836192734942 0.34732918096367471 0 0.35966990428878381 1 I I #
face $-1 $-1 $175 $24 $-1 $337 reversed single #
loop $-1 $-1 $255 $160 #
plane-surface $-1 0 25.131337983752385 0 0 -1 0 0 0 -1 forward_v I I I I #
coedge $-1 $338 $253 $256 $339 forward $161 $-1 #
coedge $-1 $259 $163 $164 $247 reversed $101 $-1 #
coedge $-1 $253 $338 $163 $245 reversed $161 $-1 #
edge $-1 $260 -9.1340874492599937 $340 9.1340874492599937 $244 $341 forward 7 unknown #
coedge $-1 $165 $164 $338 $342 forward $65 $-1 #
edge $-1 $251 -61.43620105594043 $340 61.43620105594043 $243 $343 forward 7 unknown #
coedge $-1 $256 $255 $165 $249 reversed $240 $-1 #
edge $-1 $344 -61.43620105594043 $250 61.43620105594043 $248 $345 forward 7 unknown #
vertex $-1 $167 $346 #
vertex $-1 $262 $347 #
straight-curve $-1 61.43620105594043 0 -9.1340874492599937 0 -1 0 I I #
coedge $-1 $242 $244 $168 $254 reversed $161 $-1 #
edge $-1 $257 -25.131337983752385 $260 25.131337983752385 $253 $348 forward 7 unknown #
coedge $-1 $248 $169 $174 $263 forward $240 $-1 #
coedge $-1 $169 $248 $242 $339 reversed $240 $-1 #
vertex $-1 $170 $349 #
straight-curve $-1 0 25.131337983752385 9.1340874492599937 -1 0 0 I I #
coedge $-1 $171 $243 $173 $262 reversed $101 $-1 #
vertex $-1 $254 $350 #
straight-curve $-1 0 -25.131337983752385 9.1340874492599937 1 0 0 I I #
edge $-1 $176 -9.1340874492599937 $251 9.1340874492599937 $173 $351 forward 7 unknown #
edge $-1 $177 -9.1340874492599937 $250 9.1340874492599937 $174 $352 forward 7 unknown #
point $-1 61.43620105594043 -25.131337983752385 9.1340874492599937 #
point $-1 61.43620105594043 25.131337983752385 9.1340874492599937 #
face $-1 $-1 $282 $25 $-1 $353 reversed single #
loop $-1 $-1 $354 $179 #
plane-surface $-1 0 -35.75769899056646 -6.4563963404503983 0 1 0 0 0 1 forward_v I I I I #
coedge $-1 $355 $279 $281 $356 forward $180 $-1 #
coedge $-1 $182 $189 $357 $358 forward $109 $-1 #
coedge $-1 $359 $187 $182 $272 reversed $282 $-1 #
edge $-1 $360 -5.3131805034070396 $191 5.3131805034070361 $271 $361 forward 7 unknown #
coedge $-1 $184 $183 $354 $362 reversed $69 $-1 #
coedge $-1 $279 $355 $183 $275 forward $180 $-1 #
edge $-1 $363 -5.3131805034070396 $277 5.3131805034070361 $183 $364 forward 7 unknown #
edge $-1 $190 -5.3131805034070361 $365 5.3131805034070396 $184 $366 forward 7 unknown #
vertex $-1 $185 $367 #
straight-curve $-1 -61.43620105594043 -25.131337983752385 0 0 0 -1 I I #
coedge $-1 $269 $274 $186 $280 reversed $180 $-1 #
edge $-1 $283 -61.43620105594043 $277 61.43620105594043 $279 $368 forward 7 unknown #
coedge $-1 $187 $359 $269 $356 reversed $282 $-1 #
loop $-1 $-1 $187 $266 #
vertex $-1 $188 $369 #
straight-curve $-1 61.43620105594043 -25.131337983752385 0 0 0 1 I I #
point $-1 -61.43620105594043 -25.131337983752385 -4.278705231640803 #
point $-1 61.43620105594043 -25.131337983752385 -4.278705231640803 #
plane-surface $-1 0 0 9.1340874492599937 0 0 1 1 0 0 forward_v I I I I #
coedge $-1 $298 $297 $290 $370 forward $194 $-1 #
coedge $-1 $290 $196 $198 $294 reversed $117 $-1 #
coedge $-1 $196 $289 $288 $370 reversed $117 $-1 #
coedge $-1 $204 $199 $196 $292 forward $205 $-1 #
edge $-1 $295 32.762986425403156 $371 44.309737517973886 $291 $372 forward 7 unknown #
coedge $-1 $198 $197 $298 $373 reversed $73 $-1 #
edge $-1 $374 -122.87240211188086 $295 -108.59983274594214 $289 $375 forward 7 unknown #
vertex $-1 $200 $376 #
straight-curve $-1 49.889449963369707 8.0410235617038612 9.1340874492599937 0 -1 0 I I #
coedge $-1 $288 $201 $204 $302 reversed $194 $-1 #
coedge $-1 $201 $288 $293 $373 forward $194 $-1 #
vertex $-1 $202 $377 #
straight-curve $-1 61.43620105594043 21.787216634319734 86.186664566038317 0 0 1 I I #
straight-curve $-1 -37.969659721870329 21.787216634319734 72.967468354265876 0.80901698891910034 0 -0.5877852598018023 I I #
edge $-1 $371 10.376877612495711 $206 21.787216634319734 $297 $378 forward 7 unknown #
point $-1 61.43620105594043 21.787216634319734 9.1340874492599937 #
point $-1 49.8894499633697 21.787216634319734 9.1340874492599937 #
edge $-1 $379 1 $379 0 $209 $-1 forward 7 unknown #
vertex $-1 $210 $380 #
ellipse-curve $-1 51.991522041709068 16.082047123407722 -0.11363111634880951 0.5877852598018023 0 0.80901698891910034 2.0225424722977507 0 -1.4694631495045059 1 I I #
point $-1 57.685367981952808 16.082047123407722 3.4700213533567243 #
loop $-1 $-1 $220 $213 #
plane-surface $-1 -61.43620105594043 0 0 1 0 0 0 0 -1 forward_v I I I I #
coedge $-1 $381 $382 $217 $313 forward $214 $-1 #
coedge $-1 $217 $216 $318 $383 reversed $82 $-1 #
edge $-1 $315 13.011510545316803 $384 19.813058789667789 $311 $385 forward 7 unknown #
coedge $-1 $223 $218 $382 $386 forward $132 $-1 #
vertex $-1 $386 $387 #
straight-curve $-1 -56.711448693949734 10.541921063540682 9.1340874492599937 0 1 0 I I #
coedge $-1 $388 $220 $223 $322 reversed $309 $-1 #
coedge $-1 $220 $388 $312 $383 forward $309 $-1 #
vertex $-1 $221 $389 #
straight-curve $-1 -61.43620105594043 17.036346270410345 44.797902307127607 0 0 1 I I #
straight-curve $-1 -61.43620105594043 17.036346270410345 4.2414630371374642 -0.69465836192734942 0 -0.71933980857756763 I I #
edge $-1 $390 -25.131337983752385 $224 -17.036346270410345 $317 $391 forward 7 unknown #
point $-1 -61.43620105594043 17.036346270410345 9.1340874492599937 #
point $-1 -56.711448693949734 17.036346270410345 9.1340874492599937 #
edge $-1 $392 1 $392 0 $227 $-1 forward 7 unknown #
vertex $-1 $228 $393 #
ellipse-curve $-1 -57.945508322573588 18.65534461307875 5.5981726400065304 -0.71933980857756763 0 0.69465836192734942 0.34732918096367471 0 0.35966990428878381 1 I I #
point $-1 -58.726495693981413 18.65534461307875 7.0474451474875197 #
edge $-1 $394 1 $394 0 $231 $-1 forward 7 unknown #
vertex $-1 $232 $395 #
ellipse-curve $-1 -57.945508322573588 21.083842127081365 5.5981726400065304 -0.71933980857756763 0 0.69465836192734942 0.34732918096367471 0 0.35966990428878381 1 I I #
point $-1 -58.726495693981413 21.083842127081365 7.0474451474875197 #
edge $-1 $396 1 $396 0 $235 $-1 forward 7 unknown #
vertex $-1 $236 $397 #
ellipse-curve $-1 -57.945508322573588 23.51233964108398 5.5981726400065304 -0.71933980857756763 0 0.69465836192734942 0.34732918096367471 0 0.35966990428878381 1 I I #
point $-1 -58.726495693981413 23.51233964108398 7.0474451474875197 #
plane-surface $-1 61.43620105594043 0 0 -1 0 0 0 0 1 forward_v I I I I #
coedge $-1 $244 $242 $246 $342 reversed $161 $-1 #
edge $-1 $257 -9.1340874492599937 $344 9.1340874492599937 $256 $398 forward 7 unknown #
vertex $-1 $342 $399 #
straight-curve $-1 -61.43620105594043 -25.131337983752385 0 0 0 -1 I I #
edge $-1 $340 -25.131337983752385 $344 25.131337983752385 $338 $400 forward 7 unknown #
straight-curve $-1 0 -25.131337983752385 -9.1340874492599937 -1 0 0 I I #
vertex $-1 $249 $401 #
straight-curve $-1 0 25.131337983752385 -9.1340874492599937 1 0 0 I I #
point $-1 61.43620105594043 25.131337983752385 -9.1340874492599937 #
point $-1 61.43620105594043 -25.131337983752385 -9.1340874492599937 #
straight-curve $-1 -61.43620105594043 0 9.1340874492599937 0 -1 0 I I #
point $-1 -61.43620105594043 25.131337983752385 9.1340874492599937 #
point $-1 -61.43620105594043 -25.131337983752385 9.1340874492599937 #
straight-curve $-1 61.43620105594043 -25.131337983752385 0 0 0 -1 I I #
straight-curve $-1 61.43620105594043 25.131337983752385 0 0 0 -1 I I #
plane-surface $-1 61.43620105594043 0 0 -1 0 0 0 0 1 forward_v I I I I #
coedge $-1 $402 $357 $273 $362 forward $267 $-1 #
coedge $-1 $274 $269 $402 $403 forward $180 $-1 #
edge $-1 $283 -5.3131805034070361 $404 5.3131805034070396 $281 $405 forward 7 unknown #
coedge $-1 $354 $406 $270 $358 reversed $267 $-1 #
edge $-1 $365 -61.43620105594043 $360 61.43620105594043 $357 $407 forward 7 unknown #
coedge $-1 $281 $271 $406 $408 forward $282 $-1 #
vertex $-1 $272 $409 #
straight-curve $-1 61.43620105594043 -30.444518487159421 -4.278705231640803 0 1 0 I I #
edge $-1 $365 -2.1776911088095954 $363 2.1776911088095954 $273 $410 forward 7 unknown #
vertex $-1 $275 $411 #
straight-curve $-1 -61.43620105594043 -30.444518487159421 -8.6340874492599937 0 1 0 I I #
vertex $-1 $276 $412 #
straight-curve $-1 -61.43620105594043 -30.444518487159421 -4.278705231640803 0 -1 0 I I #
point $-1 -61.43620105594043 -25.131337983752385 -8.6340874492599937 #
straight-curve $-1 0 -25.131337983752385 -8.6340874492599937 -1 0 0 I I #
point $-1 61.43620105594043 -25.131337983752385 -8.6340874492599937 #
edge $-1 $371 77.052577116778323 $374 85.441783009575857 $288 $413 forward 7 unknown #
vertex $-1 $302 $414 #
straight-curve $-1 17.126463537966544 10.376877612495711 9.1340874492599937 1 0 0 I I #
edge $-1 $374 2.3358540507918502 $299 13.746193072615872 $298 $415 forward 7 unknown #
vertex $-1 $373 $416 #
straight-curve $-1 -37.969659721870329 10.376877612495711 72.967468354265876 -0.80901698891910034 0 0.5877852598018023 I I #
point $-1 49.8894499633697 10.376877612495711 9.1340874492599937 #
point $-1 61.43620105594043 21.787216634319734 0.74488155646245957 #
straight-curve $-1 61.43620105594043 0 9.1340874492599937 0 1 0 I I #
vertex $-1 $305 $417 #
point $-1 54.014064514006819 16.082047123407722 -1.5830942658533154 #
coedge $-1 $382 $311 $388 $418 reversed $214 $-1 #
coedge $-1 $311 $381 $314 $386 reversed $214 $-1 #
edge $-1 $384 -14.589416920211702 $319 -6.4944252068696624 $318 $419 forward 7 unknown #
vertex $-1 $313 $420 #
straight-curve $-1 -47.672894092339533 25.131337983752385 18.493784954233188 -0.69465836192734942 0 -0.71933980857756763 I I #
edge $-1 $315 56.711448693949734 $390 61.43620105594043 $382 $421 forward 7 unknown #
point $-1 -56.711448693949734 25.131337983752385 9.1340874492599937 #
coedge $-1 $318 $317 $381 $418 forward $309 $-1 #
point $-1 -61.43620105594043 17.036346270410345 4.2414630371374642 #
vertex $-1 $386 $422 #
straight-curve $-1 -61.43620105594043 0 9.1340874492599937 0 -1 0 I I #
vertex $-1 $325 $423 #
point $-1 -57.598179141609918 18.65534461307875 5.957842544295314 #
vertex $-1 $329 $424 #
point $-1 -57.598179141609918 21.083842127081365 5.957842544295314 #
vertex $-1 $333 $425 #
point $-1 -57.598179141609918 23.51233964108398 5.957842544295314 #
straight-curve $-1 -61.43620105594043 25.131337983752385 0 0 0 -1 I I #
point $-1 -61.43620105594043 -25.131337983752385 -9.1340874492599937 #
straight-curve $-1 -61.43620105594043 0 -9.1340874492599937 0 1 0 I I #
point $-1 -61.43620105594043 25.131337983752385 -9.1340874492599937 #
coedge $-1 $406 $354 $355 $403 reversed $267 $-1 #
edge $-1 $404 -61.43620105594043 $363 61.43620105594043 $402 $426 forward 7 unknown #
vertex $-1 $408 $427 #
straight-curve $-1 61.43620105594043 -30.444518487159421 -8.6340874492599937 0 -1 0 I I #
coedge $-1 $357 $402 $359 $408 reversed $267 $-1 #
straight-curve $-1 0 -35.75769899056646 -4.278705231640803 1 0 0 I I #
edge $-1 $360 -2.1776911088095954 $404 2.1776911088095954 $359 $428 forward 7 unknown #
point $-1 61.43620105594043 -35.75769899056646 -4.278705231640803 #
straight-curve $-1 -61.43620105594043 -35.75769899056646 -6.4563963404503983 0 0 -1 I I #
point $-1 -61.43620105594043 -35.75769899056646 -8.6340874492599937 #
point $-1 -61.43620105594043 -35.75769899056646 -4.278705231640803 #
straight-curve $-1 61.43620105594043 10.376877612495711 86.186664566038317 0 0 -1 I I #
point $-1 61.43620105594043 10.376877612495711 9.1340874492599937 #
straight-curve $-1 61.43620105594043 8.0410235617038612 0.74488155646246668 0 1 0 I I #
point $-1 61.43620105594043 10.376877612495711 0.74488155646245957 #
point $-1 50.522058892204562 16.082047123407722 -2.1361735886465603 #
edge $-1 $390 -9.1340874492599937 $384 -4.2414630371374642 $381 $429 forward 7 unknown #
straight-curve $-1 -61.43620105594043 10.541921063540682 4.2414630371374642 0 -1 0 I I #
point $-1 -61.43620105594043 25.131337983752385 4.2414630371374642 #
straight-curve $-1 0 25.131337983752385 9.1340874492599937 -1 0 0 I I #
point $-1 -61.43620105594043 25.131337983752385 9.1340874492599937 #
point $-1 -57.585838418284808 18.65534461307875 5.2508434590428559 #
point $-1 -57.585838418284808 21.083842127081365 5.2508434590428559 #
point $-1 -57.585838418284808 23.51233964108398 5.2508434590428559 #
straight-curve $-1 0 -35.75769899056646 -8.6340874492599937 -1 0 0 I I #
point $-1 61.43620105594043 -35.75769899056646 -8.6340874492599937 #
straight-curve $-1 61.43620105594043 -35.75769899056646 -6.4563963404503983 0 0 -1 I I #
straight-curve $-1 -61.43620105594043 25.131337983752385 0 0 0 -1 I I #
End-of-ACIS-data 