500 0 9 0           
7 Unknown 11 ACIS 5.0 NT 24 Fri Mar 26 03:15:02 1999 
-1 9.9999999999999995e-007 1e-010 
body $-1 $9 $-1 $10 #
body $-1 $11 $-1 $12 #
body $-1 $13 $-1 $14 #
body $-1 $15 $-1 $16 #
body $-1 $17 $-1 $18 #
body $-1 $19 $-1 $20 #
body $-1 $21 $-1 $22 #
body $-1 $23 $-1 $24 #
body $-1 $25 $-1 $26 #
lump $-1 $-1 $27 $0 #
transform $-1 1 0 0 0 1 0 0 0 1 43.186132389294109 21.652638727500111 9.2338423573288839 1 rotate no_reflect no_shear #
lump $-1 $-1 $28 $1 #
transform $-1 1 0 0 0 1 0 0 0 1 43.186132389294109 21.652638727500111 9.2338423573288839 1 rotate no_reflect no_shear #
lump $-1 $-1 $29 $2 #
transform $-1 1 0 0 0 1 0 0 0 1 43.186132389294109 21.652638727500111 9.2338423573288839 1 rotate no_reflect no_shear #
lump $-1 $-1 $30 $3 #
transform $-1 1 0 0 0 1 0 0 0 1 43.186132389294109 21.652638727500111 9.2338423573288839 1 rotate no_reflect no_shear #
lump $-1 $-1 $31 $4 #
transform $-1 1 0 0 0 1 0 0 0 1 43.186132389294109 21.652638727500111 9.2338423573288839 1 rotate no_reflect no_shear #
lump $-1 $-1 $32 $5 #
transform $-1 1 0 0 0 1 0 0 0 1 43.186132389294109 21.652638727500111 9.2338423573288839 1 rotate no_reflect no_shear #
lump $-1 $-1 $33 $6 #
transform $-1 1 0 0 0 1 0 0 0 1 43.186132389294109 21.652638727500111 9.2338423573288839 1 rotate no_reflect no_shear #
lump $-1 $-1 $34 $7 #
transform $-1 1 0 0 0 1 0 0 0 1 43.186132389294109 21.652638727500111 9.2338423573288839 1 rotate no_reflect no_shear #
lump $-1 $-1 $35 $8 #
transform $-1 1 0 0 0 1 0 0 0 1 43.186132389294109 21.652638727500111 9.2338423573288839 1 rotate no_reflect no_shear #
shell $-1 $-1 $-1 $36 $-1 $9 #
shell $-1 $-1 $-1 $37 $-1 $11 #
shell $-1 $-1 $-1 $38 $-1 $13 #
shell $-1 $-1 $-1 $39 $-1 $15 #
shell $-1 $-1 $-1 $40 $-1 $17 #
shell $-1 $-1 $-1 $41 $-1 $19 #
shell $-1 $-1 $-1 $42 $-1 $21 #
shell $-1 $-1 $-1 $43 $-1 $23 #
shell $-1 $-1 $-1 $44 $-1 $25 #
face $-1 $45 $46 $27 $-1 $47 forward single #
face $-1 $48 $49 $28 $-1 $50 reversed single #
face $-1 $51 $52 $29 $-1 $53 reversed single #
face $-1 $54 $55 $30 $-1 $56 forward single #
face $-1 $57 $58 $31 $-1 $59 forward single #
face $-1 $60 $61 $32 $-1 $62 reversed single #
face $-1 $63 $64 $33 $-1 $65 forward single #
face $-1 $66 $67 $34 $-1 $68 forward single #
face $-1 $69 $70 $35 $-1 $71 forward single #
face $-1 $72 $73 $27 $-1 $74 reversed single #
loop $-1 $-1 $75 $36 #
plane-surface $-1 0 0 9.2338423573288839 0 0 1 1 0 0 forward_v I I I I #
face $-1 $76 $77 $28 $-1 $78 reversed single #
loop $-1 $-1 $79 $37 #
plane-surface $-1 0 -17.018510651214939 5.0929711647551938 0 0 1 1 0 0 forward_v I I I I #
face $-1 $80 $81 $29 $-1 $82 reversed single #
loop $-1 $-1 $83 $38 #
plane-surface $-1 -106.35480866617849 -7.3093967407926153 61.663000302632952 0 1 0 -0.73135370988377701 0 0.68199835119979291 forward_v I I I I #
face $-1 $84 $85 $30 $-1 $86 forward single #
loop $-1 $87 $88 $39 #
cone-surface $-1 -39.800699360385096 -5.3897413554236522 5.654551070186459 0.73135370988377701 0 -0.68199835119979291 0.34099917559989645 0 0.36567685494188851 1 I I 0 1 0.5 forward I I I I #
face $-1 $89 $90 $31 $-1 $91 forward single #
loop $-1 $92 $93 $40 #
cone-surface $-1 -39.800699360385096 -2.5102582773702053 5.654551070186459 0.73135370988377701 0 -0.68199835119979291 0.34099917559989645 0 0.36567685494188851 1 I I 0 1 0.5 forward I I I I #
face $-1 $94 $95 $32 $-1 $96 reversed single #
loop $-1 $-1 $97 $41 #
plane-surface $-1 -18.944874630658489 18.641136483719166 60.352126664241055 0.69465837861970381 0 0.71933979245794832 0.71933979245794832 0 -0.69465837861970381 forward_v I I I I #
face $-1 $98 $99 $33 $-1 $100 forward single #
loop $-1 $101 $102 $42 #
cone-surface $-1 38.240565583500754 16.834235137450598 4.4337059101530718 -0.69465837861970381 0 -0.71933979245794832 0.17983494811448708 0 -0.17366459465492595 1 I I 0 1 0.25 forward I I I I #
face $-1 $103 $104 $34 $-1 $105 forward single #
loop $-1 $106 $107 $43 #
cone-surface $-1 38.240565583500754 18.641136483719166 4.4337059101530718 -0.69465837861970381 0 -0.71933979245794832 0.17983494811448708 0 -0.17366459465492595 1 I I 0 1 0.25 forward I I I I #
face $-1 $108 $109 $35 $-1 $110 forward single #
loop $-1 $111 $112 $44 #
cone-surface $-1 38.240565583500754 20.448037829987733 4.4337059101530718 -0.69465837861970381 0 -0.71933979245794832 0.17983494811448708 0 -0.17366459465492595 1 I I 0 1 0.25 forward I I I I #
face $-1 $113 $114 $27 $-1 $115 reversed single #
loop $-1 $-1 $116 $45 #
plane-surface $-1 0 0 -9.2338423573288839 0 0 1 1 0 0 forward_v I I I I #
coedge $-1 $117 $118 $119 $120 forward $46 $-1 #
face $-1 $121 $122 $28 $-1 $123 reversed single #
loop $-1 $-1 $124 $48 #
plane-surface $-1 0 -12.384382574929766 7.1634067610420384 0 -1 0 0 0 -1 forward_v I I I I #
coedge $-1 $125 $126 $127 $128 reversed $49 $-1 #
face $-1 $129 $130 $29 $-1 $131 reversed single #
loop $-1 $-1 $132 $51 #
plane-surface $-1 -43.186132389294109 -3.9499998163969252 2.7572581342438411 -0.73135370988377701 0 0.68199835119979291 0.68199835119979291 0 0.73135370988377701 forward_v I I I I #
coedge $-1 $133 $134 $135 $136 reversed $52 $-1 #
face $-1 $-1 $137 $30 $-1 $138 forward single #
loop $-1 $139 $140 $54 #
cone-surface $-1 -39.25218407797226 -5.3897413554236522 5.1430523067866147 0.73135370988377701 0 -0.68199835119979291 0.17049958779994823 0 0.18283842747094425 1 I I -0.70710678118654746 0.70710678118654746 0.25 forward I I I I #
loop $-1 $-1 $141 $39 #
coedge $-1 $88 $88 $142 $143 reversed $55 $-1 #
face $-1 $-1 $144 $31 $-1 $145 forward single #
loop $-1 $146 $147 $57 #
cone-surface $-1 -39.25218407797226 -2.5102582773702053 5.1430523067866147 0.73135370988377701 0 -0.68199835119979291 0.17049958779994823 0 0.18283842747094425 1 I I -0.70710678118654746 0.70710678118654746 0.25 forward I I I I #
loop $-1 $-1 $148 $40 #
coedge $-1 $93 $93 $149 $150 reversed $58 $-1 #
face $-1 $151 $152 $32 $-1 $153 reversed single #
loop $-1 $-1 $154 $60 #
plane-surface $-1 41.054342778147351 15.62963423993822 122.48313368419366 0 1 0 0.69465837861970381 0 0.71933979245794832 forward_v I I I I #
coedge $-1 $155 $156 $157 $158 reversed $61 $-1 #
face $-1 $-1 $159 $33 $-1 $160 forward single #
loop $-1 $161 $162 $63 #
cone-surface $-1 37.806404096863439 16.834235137450598 3.9841185398668539 -0.69465837861970381 0 -0.71933979245794832 0.08991747405724354 0 -0.086832297327462976 1 I I -0.70710678118654746 0.70710678118654746 0.125 forward I I I I #
loop $-1 $-1 $163 $42 #
coedge $-1 $102 $102 $164 $165 reversed $64 $-1 #
face $-1 $-1 $166 $34 $-1 $167 forward single #
loop $-1 $168 $169 $66 #
cone-surface $-1 37.806404096863439 18.641136483719166 3.9841185398668539 -0.69465837861970381 0 -0.71933979245794832 0.08991747405724354 0 -0.086832297327462976 1 I I -0.70710678118654746 0.70710678118654746 0.125 forward I I I I #
loop $-1 $-1 $170 $43 #
coedge $-1 $107 $107 $171 $172 reversed $67 $-1 #
face $-1 $-1 $173 $35 $-1 $174 forward single #
loop $-1 $175 $176 $69 #
cone-surface $-1 37.806404096863439 20.448037829987733 3.9841185398668539 -0.69465837861970381 0 -0.71933979245794832 0.08991747405724354 0 -0.086832297327462976 1 I I -0.70710678118654746 0.70710678118654746 0.125 forward I I I I #
loop $-1 $-1 $177 $44 #
coedge $-1 $112 $112 $178 $179 reversed $70 $-1 #
face $-1 $180 $181 $27 $-1 $182 reversed single #
loop $-1 $-1 $183 $72 #
plane-surface $-1 0 -21.652638727500111 0 0 1 0 0 0 1 forward_v I I I I #
coedge $-1 $184 $185 $186 $187 forward $73 $-1 #
coedge $-1 $188 $75 $189 $190 forward $46 $-1 #
coedge $-1 $75 $188 $191 $192 forward $46 $-1 #
coedge $-1 $193 $194 $75 $120 reversed $195 $-1 #
edge $-1 $196 -21.652638727500111 $197 21.652638727500111 $119 $198 forward 7 unknown #
face $-1 $199 $200 $28 $-1 $201 reversed single #
loop $-1 $-1 $202 $76 #
plane-surface $-1 -43.186132389294109 0 0 1 0 0 0 0 -1 forward_v I I I I #
coedge $-1 $203 $204 $205 $206 reversed $77 $-1 #
coedge $-1 $207 $79 $208 $209 reversed $49 $-1 #
coedge $-1 $79 $207 $203 $210 forward $49 $-1 #
coedge $-1 $205 $211 $79 $128 forward $212 $-1 #
edge $-1 $213 -13.143383401892642 $214 -3.875127249322297 $127 $215 forward 7 unknown #
face $-1 $216 $217 $29 $-1 $218 forward single #
loop $-1 $-1 $219 $80 #
plane-surface $-1 -106.35480866617849 -0.59060289200123517 61.663000302632952 0 -1 0 0.73135370988377701 0 -0.68199835119979291 forward_v I I I I #
coedge $-1 $220 $221 $222 $223 reversed $81 $-1 #
coedge $-1 $134 $83 $224 $225 reversed $52 $-1 #
coedge $-1 $83 $133 $220 $226 reversed $52 $-1 #
coedge $-1 $222 $227 $83 $136 forward $217 $-1 #
edge $-1 $228 9.9912719437951338 $229 16.030784291729375 $135 $230 forward 7 unknown #
loop $-1 $-1 $142 $84 #
plane-surface $-1 -43.186132389294109 -3.9499998163969252 2.7572581342438411 -0.73135370988377701 0 0.68199835119979291 0.68199835119979291 0 0.73135370988377701 forward_v I I I I #
loop $-1 $-1 $231 $54 #
coedge $-1 $140 $140 $141 $232 reversed $85 $-1 #
coedge $-1 $141 $141 $140 $232 forward $87 $-1 #
coedge $-1 $142 $142 $88 $143 forward $137 $-1 #
edge $-1 $233 0 $233 6.2831853071796004 $142 $234 forward 7 unknown #
loop $-1 $-1 $149 $89 #
plane-surface $-1 -43.186132389294109 -3.9499998163969252 2.7572581342438411 -0.73135370988377701 0 0.68199835119979291 0.68199835119979291 0 0.73135370988377701 forward_v I I I I #
loop $-1 $-1 $235 $57 #
coedge $-1 $147 $147 $148 $236 reversed $90 $-1 #
coedge $-1 $148 $148 $147 $236 forward $92 $-1 #
coedge $-1 $149 $149 $93 $150 forward $144 $-1 #
edge $-1 $237 0 $237 6.2831853071796004 $149 $238 forward 7 unknown #
face $-1 $239 $240 $32 $-1 $241 forward single #
loop $-1 $-1 $242 $94 #
plane-surface $-1 0 21.652638727500111 0 0 -1 0 0 0 -1 forward_v I I I I #
coedge $-1 $243 $244 $245 $246 reversed $95 $-1 #
coedge $-1 $247 $97 $242 $248 reversed $61 $-1 #
coedge $-1 $97 $247 $243 $249 forward $61 $-1 #
coedge $-1 $245 $250 $97 $158 forward $240 $-1 #
edge $-1 $251 -12.332070485640529 $252 -6.309065998078637 $157 $253 forward 7 unknown #
loop $-1 $-1 $164 $98 #
plane-surface $-1 -18.944874630658489 18.641136483719166 60.352126664241055 0.69465837861970381 0 0.71933979245794832 0.71933979245794832 0 -0.69465837861970381 forward_v I I I I #
loop $-1 $-1 $254 $63 #
coedge $-1 $162 $162 $163 $255 reversed $99 $-1 #
coedge $-1 $163 $163 $162 $255 forward $101 $-1 #
coedge $-1 $164 $164 $102 $165 forward $159 $-1 #
edge $-1 $256 0 $256 6.2831853071796004 $164 $257 forward 7 unknown #
loop $-1 $-1 $171 $103 #
plane-surface $-1 -18.944874630658489 18.641136483719166 60.352126664241055 0.69465837861970381 0 0.71933979245794832 0.71933979245794832 0 -0.69465837861970381 forward_v I I I I #
loop $-1 $-1 $258 $66 #
coedge $-1 $169 $169 $170 $259 reversed $104 $-1 #
coedge $-1 $170 $170 $169 $259 forward $106 $-1 #
coedge $-1 $171 $171 $107 $172 forward $166 $-1 #
edge $-1 $260 0 $260 6.2831853071796004 $171 $261 forward 7 unknown #
loop $-1 $-1 $178 $108 #
plane-surface $-1 -18.944874630658489 18.641136483719166 60.352126664241055 0.69465837861970381 0 0.71933979245794832 0.71933979245794832 0 -0.69465837861970381 forward_v I I I I #
loop $-1 $-1 $262 $69 #
coedge $-1 $176 $176 $177 $263 reversed $109 $-1 #
coedge $-1 $177 $177 $176 $263 forward $111 $-1 #
coedge $-1 $178 $178 $112 $179 forward $173 $-1 #
edge $-1 $264 0 $264 6.2831853071796004 $178 $265 forward 7 unknown #
face $-1 $266 $267 $27 $-1 $268 reversed single #
loop $-1 $-1 $269 $113 #
plane-surface $-1 -43.186132389294109 0 0 1 0 0 0 0 -1 forward_v I I I I #
coedge $-1 $270 $191 $271 $272 forward $114 $-1 #
coedge $-1 $273 $116 $270 $274 forward $73 $-1 #
coedge $-1 $116 $273 $275 $276 forward $73 $-1 #
coedge $-1 $194 $193 $116 $187 reversed $195 $-1 #
edge $-1 $277 -21.652638727500111 $278 21.652638727500111 $186 $279 forward 7 unknown #
coedge $-1 $118 $117 $280 $281 forward $46 $-1 #
coedge $-1 $282 $283 $117 $190 reversed $267 $-1 #
edge $-1 $197 -43.186132389294109 $284 43.186132389294109 $189 $285 forward 7 unknown #
coedge $-1 $183 $286 $118 $192 reversed $114 $-1 #
edge $-1 $287 -43.186132389294109 $196 43.186132389294109 $191 $288 forward 7 unknown #
coedge $-1 $186 $119 $286 $289 forward $195 $-1 #
coedge $-1 $119 $186 $282 $290 reversed $195 $-1 #
loop $-1 $-1 $193 $266 #
vertex $-1 $120 $291 #
vertex $-1 $120 $292 #
straight-curve $-1 43.186132389294109 0 9.2338423573288839 0 1 0 I I #
face $-1 $293 $294 $28 $-1 $295 forward single #
loop $-1 $-1 $208 $121 #
plane-surface $-1 0 -21.652638727500111 0 0 1 0 0 0 1 forward_v I I I I #
coedge $-1 $296 $297 $298 $299 forward $122 $-1 #
coedge $-1 $298 $124 $126 $210 reversed $77 $-1 #
coedge $-1 $124 $298 $300 $301 reversed $77 $-1 #
coedge $-1 $302 $127 $124 $206 forward $212 $-1 #
edge $-1 $214 1.5112677842341746 $303 5.6521389768078629 $205 $304 forward 7 unknown #
coedge $-1 $126 $125 $296 $305 reversed $49 $-1 #
coedge $-1 $306 $307 $125 $209 forward $200 $-1 #
edge $-1 $308 -43.186132389294109 $213 43.186132389294109 $208 $309 forward 7 unknown #
edge $-1 $310 -43.186132389294109 $214 43.186132389294109 $203 $311 forward 7 unknown #
coedge $-1 $127 $302 $306 $312 forward $212 $-1 #
loop $-1 $-1 $205 $293 #
vertex $-1 $209 $313 #
vertex $-1 $128 $314 #
straight-curve $-1 43.186132389294109 -8.5092553256074694 5.0929711647551938 0 1 0 I I #
face $-1 $-1 $315 $29 $-1 $316 reversed single #
loop $-1 $-1 $135 $129 #
plane-surface $-1 0 0 9.2338423573288839 0 0 1 1 0 0 forward_v I I I I #
coedge $-1 $317 $318 $319 $320 reversed $130 $-1 #
coedge $-1 $321 $132 $134 $226 forward $81 $-1 #
coedge $-1 $132 $321 $317 $322 forward $81 $-1 #
coedge $-1 $319 $135 $132 $223 forward $217 $-1 #
edge $-1 $229 -5.3343968325941526 $323 1.3843970161972274 $222 $324 forward 7 unknown #
coedge $-1 $325 $326 $133 $225 forward $315 $-1 #
edge $-1 $327 -28.074242017072635 $228 -21.597657793987594 $224 $328 forward 7 unknown #
edge $-1 $229 -8.8556113622699293 $327 0 $134 $329 forward 7 unknown #
coedge $-1 $135 $319 $325 $330 forward $217 $-1 #
vertex $-1 $225 $331 #
vertex $-1 $136 $332 #
straight-curve $-1 -53.177404333089243 -7.3093967407926153 9.2338423573288821 1 0 0 I I #
coedge $-1 $231 $231 $-1 $333 reversed $139 $-1 #
edge $-1 $334 0 $334 6.2831853071796004 $140 $335 forward 7 unknown #
vertex $-1 $143 $336 #
ellipse-curve $-1 -40.166376215326991 -5.3897413554236522 5.9955502457863599 -0.73135370988377701 0 0.68199835119979291 0.34099917559989645 0 0.36567685494188851 1 I I #
coedge $-1 $235 $235 $-1 $337 reversed $146 $-1 #
edge $-1 $338 0 $338 6.2831853071796004 $147 $339 forward 7 unknown #
vertex $-1 $150 $340 #
ellipse-curve $-1 -40.166376215326991 -2.5102582773702053 5.9955502457863599 -0.73135370988377701 0 0.68199835119979291 0.34099917559989645 0 0.36567685494188851 1 I I #
face $-1 $-1 $341 $32 $-1 $342 reversed single #
loop $-1 $-1 $157 $151 #
plane-surface $-1 0 0 9.2338423573288839 0 0 1 1 0 0 forward_v I I I I #
coedge $-1 $343 $344 $155 $248 forward $152 $-1 #
coedge $-1 $244 $154 $156 $249 reversed $95 $-1 #
coedge $-1 $154 $243 $345 $346 reversed $95 $-1 #
coedge $-1 $347 $157 $154 $246 forward $240 $-1 #
edge $-1 $252 13.462485767253451 $348 22.658961000220433 $245 $349 forward 7 unknown #
coedge $-1 $156 $155 $350 $351 reversed $61 $-1 #
edge $-1 $352 -58.596308458691993 $251 -45.81170328407336 $242 $353 forward 7 unknown #
edge $-1 $354 -86.372264778588203 $252 -73.58765960396957 $243 $355 forward 7 unknown #
coedge $-1 $157 $347 $343 $356 forward $240 $-1 #
vertex $-1 $158 $357 #
vertex $-1 $158 $358 #
straight-curve $-1 33.989657156327119 9.3205682418595828 9.2338423573288821 0 -1 0 I I #
coedge $-1 $254 $254 $-1 $359 reversed $161 $-1 #
edge $-1 $360 0 $360 6.2831853071796004 $162 $361 forward 7 unknown #
vertex $-1 $165 $362 #
ellipse-curve $-1 38.587894772810614 16.834235137450598 4.7933758063820564 0.69465837861970381 0 0.71933979245794832 0.17983494811448708 0 -0.17366459465492595 1 I I #
coedge $-1 $258 $258 $-1 $363 reversed $168 $-1 #
edge $-1 $364 0 $364 6.2831853071796004 $169 $365 forward 7 unknown #
vertex $-1 $172 $366 #
ellipse-curve $-1 38.587894772810614 18.641136483719166 4.7933758063820564 0.69465837861970381 0 0.71933979245794832 0.17983494811448708 0 -0.17366459465492595 1 I I #
coedge $-1 $262 $262 $-1 $367 reversed $175 $-1 #
edge $-1 $368 0 $368 6.2831853071796004 $176 $369 forward 7 unknown #
vertex $-1 $179 $370 #
ellipse-curve $-1 38.587894772810614 20.448037829987733 4.7933758063820564 0.69465837861970381 0 0.71933979245794832 0.17983494811448708 0 -0.17366459465492595 1 I I #
face $-1 $-1 $195 $27 $-1 $371 reversed single #
loop $-1 $-1 $282 $180 #
plane-surface $-1 0 21.652638727500111 0 0 -1 0 0 0 -1 forward_v I I I I #
coedge $-1 $372 $280 $283 $373 forward $181 $-1 #
coedge $-1 $286 $183 $184 $274 reversed $114 $-1 #
coedge $-1 $280 $372 $183 $272 reversed $181 $-1 #
edge $-1 $287 -9.2338423573288839 $374 9.2338423573288839 $271 $375 forward 7 unknown #
coedge $-1 $185 $184 $372 $376 forward $73 $-1 #
edge $-1 $278 -43.186132389294109 $374 43.186132389294109 $270 $377 forward 7 unknown #
coedge $-1 $283 $282 $185 $276 reversed $267 $-1 #
edge $-1 $378 -43.186132389294109 $277 43.186132389294109 $275 $379 forward 7 unknown #
vertex $-1 $187 $380 #
vertex $-1 $289 $381 #
straight-curve $-1 43.186132389294109 0 -9.2338423573288839 0 -1 0 I I #
coedge $-1 $269 $271 $188 $281 reversed $181 $-1 #
edge $-1 $284 -21.652638727500111 $287 21.652638727500111 $280 $382 forward 7 unknown #
coedge $-1 $275 $189 $194 $290 forward $267 $-1 #
coedge $-1 $189 $275 $269 $373 reversed $267 $-1 #
vertex $-1 $190 $383 #
straight-curve $-1 0 21.652638727500111 9.2338423573288839 -1 0 0 I I #
coedge $-1 $191 $270 $193 $289 reversed $114 $-1 #
vertex $-1 $281 $384 #
straight-curve $-1 0 -21.652638727500111 9.2338423573288839 1 0 0 I I #
edge $-1 $196 -9.2338423573288839 $278 9.2338423573288839 $193 $385 forward 7 unknown #
edge $-1 $197 -9.2338423573288839 $277 9.2338423573288839 $194 $386 forward 7 unknown #
point $-1 43.186132389294109 -21.652638727500111 9.2338423573288839 #
point $-1 43.186132389294109 21.652638727500111 9.2338423573288839 #
face $-1 $-1 $212 $28 $-1 $387 reversed single #
loop $-1 $-1 $300 $199 #
plane-surface $-1 0 0 9.2338423573288839 0 0 1 1 0 0 forward_v I I I I #
coedge $-1 $388 $202 $207 $305 forward $122 $-1 #
coedge $-1 $202 $388 $389 $390 reversed $122 $-1 #
coedge $-1 $204 $203 $202 $299 reversed $77 $-1 #
edge $-1 $391 -5.6521389768078629 $310 -1.5112677842341746 $202 $392 forward 7 unknown #
coedge $-1 $389 $393 $204 $301 forward $294 $-1 #
edge $-1 $303 -43.186132389294109 $391 43.186132389294109 $300 $394 forward 7 unknown #
coedge $-1 $211 $205 $393 $395 reversed $212 $-1 #
vertex $-1 $206 $396 #
straight-curve $-1 43.186132389294109 -12.384382574929766 3.5817033805210192 0 0 1 I I #
edge $-1 $310 3.875127249322297 $308 13.143383401892642 $296 $397 forward 7 unknown #
coedge $-1 $398 $208 $211 $312 reversed $200 $-1 #
coedge $-1 $208 $398 $388 $399 forward $200 $-1 #
vertex $-1 $209 $400 #
straight-curve $-1 0 -21.652638727500111 5.0929711647551938 1 0 0 I I #
vertex $-1 $305 $401 #
straight-curve $-1 0 -12.384382574929766 5.0929711647551938 1 0 0 I I #
edge $-1 $402 -9.2338423573288839 $213 -5.0929711647551938 $211 $403 forward 7 unknown #
point $-1 43.186132389294109 -21.652638727500111 5.0929711647551938 #
point $-1 43.186132389294109 -12.384382574929766 5.0929711647551938 #
loop $-1 $-1 $224 $216 #
plane-surface $-1 -43.186132389294109 0 0 1 0 0 0 0 -1 forward_v I I I I #
coedge $-1 $318 $219 $221 $322 reversed $130 $-1 #
coedge $-1 $219 $317 $404 $405 reversed $130 $-1 #
coedge $-1 $227 $222 $219 $320 forward $217 $-1 #
edge $-1 $323 -16.030784291729375 $406 -9.9912719437951338 $319 $407 forward 7 unknown #
coedge $-1 $221 $220 $326 $408 reversed $81 $-1 #
edge $-1 $409 0 $323 8.8556113622699293 $317 $410 forward 7 unknown #
vertex $-1 $223 $411 #
straight-curve $-1 -37.14662004135986 -1.9749999081984626 9.2338423573288821 0 1 0 I I #
coedge $-1 $404 $224 $227 $330 reversed $315 $-1 #
coedge $-1 $224 $404 $321 $408 forward $315 $-1 #
vertex $-1 $225 $412 #
straight-curve $-1 -43.186132389294109 -7.3093967407926153 30.831500151316476 0 0 1 I I #
straight-curve $-1 -43.186132389294109 -7.3093967407926153 2.7572581342438411 -0.68199835119979291 0 -0.73135370988377701 I I #
edge $-1 $406 0.59060289200123517 $228 7.3093967407926153 $325 $413 forward 7 unknown #
point $-1 -43.186132389294109 -7.3093967407926153 9.2338423573288839 #
point $-1 -37.146620041359867 -7.3093967407926153 9.2338423573288839 #
edge $-1 $414 1 $414 0 $231 $-1 forward 7 unknown #
vertex $-1 $232 $415 #
ellipse-curve $-1 -39.4350225054432 -5.3897413554236522 5.3135518945865634 -0.73135370988377701 0 0.68199835119979291 0.34099917559989645 0 0.36567685494188851 1 I I #
point $-1 -39.825377039727087 -5.3897413554236522 6.3612271007282448 #
edge $-1 $416 1 $416 0 $235 $-1 forward 7 unknown #
vertex $-1 $236 $417 #
ellipse-curve $-1 -39.4350225054432 -2.5102582773702053 5.3135518945865634 -0.73135370988377701 0 0.68199835119979291 0.34099917559989645 0 0.36567685494188851 1 I I #
point $-1 -39.825377039727087 -2.5102582773702053 6.3612271007282448 #
loop $-1 $-1 $350 $239 #
plane-surface $-1 43.186132389294109 0 0 -1 0 0 0 0 1 forward_v I I I I #
coedge $-1 $344 $242 $250 $356 reversed $152 $-1 #
coedge $-1 $242 $343 $418 $419 forward $152 $-1 #
coedge $-1 $350 $420 $244 $346 forward $341 $-1 #
edge $-1 $348 52.007724484767948 $354 60.888657586661608 $345 $421 forward 7 unknown #
coedge $-1 $250 $245 $420 $422 forward $240 $-1 #
vertex $-1 $422 $423 #
straight-curve $-1 20.527171389073676 15.62963423993822 9.2338423573288821 1 0 0 I I #
coedge $-1 $418 $345 $247 $351 forward $341 $-1 #
edge $-1 $354 6.309065998078637 $352 12.332070485640529 $350 $424 forward 7 unknown #
vertex $-1 $351 $425 #
straight-curve $-1 1.0354760238166865 21.652638727500111 41.057325882450243 -0.71933979245794832 0 0.69465837861970381 I I #
vertex $-1 $351 $426 #
straight-curve $-1 -18.944874630658489 15.62963423993822 60.352126664241055 -0.71933979245794832 0 0.69465837861970381 I I #
edge $-1 $427 -43.186132389294109 $251 -33.989657156327127 $343 $428 forward 7 unknown #
point $-1 33.989657156327127 21.652638727500111 9.233842357328875 #
point $-1 33.989657156327127 15.62963423993822 9.233842357328875 #
edge $-1 $429 1 $429 0 $254 $-1 forward 7 unknown #
vertex $-1 $255 $430 #
ellipse-curve $-1 37.8932363941909 16.834235137450598 4.0740360139240979 0.69465837861970381 0 0.71933979245794832 0.17983494811448708 0 -0.17366459465492595 1 I I #
point $-1 38.76772972092509 16.834235137450598 4.61971121172712 #
edge $-1 $431 1 $431 0 $258 $-1 forward 7 unknown #
vertex $-1 $259 $432 #
ellipse-curve $-1 37.8932363941909 18.641136483719166 4.0740360139240979 0.69465837861970381 0 0.71933979245794832 0.17983494811448708 0 -0.17366459465492595 1 I I #
point $-1 38.76772972092509 18.641136483719166 4.61971121172712 #
edge $-1 $433 1 $433 0 $262 $-1 forward 7 unknown #
vertex $-1 $263 $434 #
ellipse-curve $-1 37.8932363941909 20.448037829987733 4.0740360139240979 0.69465837861970381 0 0.71933979245794832 0.17983494811448708 0 -0.17366459465492595 1 I I #
point $-1 38.76772972092509 20.448037829987733 4.61971121172712 #
plane-surface $-1 43.186132389294109 0 0 -1 0 0 0 0 1 forward_v I I I I #
coedge $-1 $271 $269 $273 $376 reversed $181 $-1 #
edge $-1 $284 -9.2338423573288839 $378 9.2338423573288839 $283 $435 forward 7 unknown #
vertex $-1 $376 $436 #
straight-curve $-1 -43.186132389294109 -21.652638727500111 0 0 0 -1 I I #
edge $-1 $374 -21.652638727500111 $378 21.652638727500111 $372 $437 forward 7 unknown #
straight-curve $-1 0 -21.652638727500111 -9.2338423573288839 -1 0 0 I I #
vertex $-1 $276 $438 #
straight-curve $-1 0 21.652638727500111 -9.2338423573288839 1 0 0 I I #
point $-1 43.186132389294109 21.652638727500111 -9.2338423573288839 #
point $-1 43.186132389294109 -21.652638727500111 -9.2338423573288839 #
straight-curve $-1 -43.186132389294109 0 9.2338423573288839 0 -1 0 I I #
point $-1 -43.186132389294109 21.652638727500111 9.2338423573288839 #
point $-1 -43.186132389294109 -21.652638727500111 9.2338423573288839 #
straight-curve $-1 43.186132389294109 -21.652638727500111 0 0 0 -1 I I #
straight-curve $-1 43.186132389294109 21.652638727500111 0 0 0 -1 I I #
plane-surface $-1 43.186132389294109 0 0 -1 0 0 0 0 1 forward_v I I I I #
coedge $-1 $297 $296 $307 $399 reversed $122 $-1 #
coedge $-1 $439 $300 $297 $390 forward $294 $-1 #
edge $-1 $391 12.384382574929766 $440 21.652638727500111 $297 $441 forward 7 unknown #
vertex $-1 $390 $442 #
straight-curve $-1 -43.186132389294109 -12.384382574929766 3.5817033805210192 0 0 -1 I I #
coedge $-1 $300 $439 $302 $395 forward $294 $-1 #
straight-curve $-1 0 -12.384382574929766 9.2338423573288839 -1 0 0 I I #
edge $-1 $402 -21.652638727500111 $303 -12.384382574929766 $302 $443 forward 7 unknown #
point $-1 43.186132389294109 -12.384382574929766 9.2338423573288821 #
straight-curve $-1 -43.186132389294109 -8.5092553256074694 5.0929711647551938 0 -1 0 I I #
coedge $-1 $307 $306 $439 $444 reversed $200 $-1 #
edge $-1 $440 -9.2338423573288839 $308 -5.0929711647551938 $388 $445 forward 7 unknown #
point $-1 -43.186132389294109 -21.652638727500111 5.0929711647551938 #
point $-1 -43.186132389294109 -12.384382574929766 5.0929711647551938 #
vertex $-1 $395 $446 #
straight-curve $-1 43.186132389294109 -21.652638727500111 0 0 0 -1 I I #
coedge $-1 $326 $325 $318 $405 forward $315 $-1 #
edge $-1 $406 21.597657793987594 $409 28.074242017072635 $404 $447 forward 7 unknown #
vertex $-1 $330 $448 #
straight-curve $-1 -53.177404333089243 -0.59060289200123517 9.2338423573288821 -1 0 0 I I #
edge $-1 $409 -1.3843970161972274 $327 5.3343968325941526 $326 $449 forward 7 unknown #
vertex $-1 $408 $450 #
straight-curve $-1 -43.186132389294109 -0.59060289200123517 2.7572581342438411 0.68199835119979291 0 0.73135370988377701 I I #
point $-1 -37.146620041359867 -0.59060289200123517 9.2338423573288839 #
point $-1 -43.186132389294109 -7.3093967407926153 2.7572581342438411 #
straight-curve $-1 -43.186132389294109 0 9.2338423573288839 0 -1 0 I I #
vertex $-1 $333 $451 #
point $-1 -39.09402332984331 -5.3897413554236522 5.6792287495284519 #
vertex $-1 $337 $452 #
point $-1 -39.09402332984331 -2.5102582773702053 5.6792287495284519 #
coedge $-1 $420 $350 $344 $419 reversed $341 $-1 #
edge $-1 $427 -9.2338423573288839 $352 -0.35290925543522178 $418 $453 forward 7 unknown #
coedge $-1 $345 $418 $347 $422 reversed $341 $-1 #
straight-curve $-1 43.186132389294109 15.62963423993822 61.24156684209683 0 0 -1 I I #
edge $-1 $348 15.62963423993822 $427 21.652638727500111 $420 $454 forward 7 unknown #
point $-1 43.186132389294109 15.62963423993822 9.2338423573288839 #
straight-curve $-1 43.186132389294116 9.3205682418595828 0.35290925543522533 0 1 0 I I #
point $-1 43.186132389294109 21.652638727500111 0.35290925543522178 #
point $-1 43.186132389294109 15.62963423993822 0.35290925543522178 #
vertex $-1 $422 $455 #
straight-curve $-1 0 21.652638727500111 9.2338423573288839 -1 0 0 I I #
vertex $-1 $359 $456 #
point $-1 38.07307134230539 16.834235137450598 3.9003714192691716 #
vertex $-1 $363 $457 #
point $-1 38.07307134230539 18.641136483719166 3.9003714192691716 #
vertex $-1 $367 $458 #
point $-1 38.07307134230539 20.448037829987733 3.9003714192691716 #
straight-curve $-1 -43.186132389294109 21.652638727500111 0 0 0 -1 I I #
point $-1 -43.186132389294109 -21.652638727500111 -9.2338423573288839 #
straight-curve $-1 -43.186132389294109 0 -9.2338423573288839 0 1 0 I I #
point $-1 -43.186132389294109 21.652638727500111 -9.2338423573288839 #
coedge $-1 $393 $389 $398 $444 forward $294 $-1 #
vertex $-1 $390 $459 #
straight-curve $-1 -43.186132389294109 0 9.2338423573288839 0 -1 0 I I #
point $-1 -43.186132389294109 -12.384382574929766 9.2338423573288821 #
straight-curve $-1 43.186132389294109 0 9.2338423573288839 0 1 0 I I #
edge $-1 $440 -43.186132389294109 $402 43.186132389294109 $398 $460 forward 7 unknown #
straight-curve $-1 -43.186132389294109 -21.652638727500111 0 0 0 -1 I I #
point $-1 43.186132389294109 -21.652638727500111 9.2338423573288839 #
straight-curve $-1 -43.186132389294109 -0.59060289200123517 30.831500151316476 0 0 -1 I I #
point $-1 -43.186132389294109 -0.59060289200123517 9.2338423573288839 #
straight-curve $-1 -43.186132389294109 -1.9749999081984626 2.7572581342438447 0 -1 0 I I #
point $-1 -43.186132389294109 -0.59060289200123517 2.7572581342438411 #
point $-1 -39.069345650501319 -5.3897413554236522 4.9725527189866661 #
point $-1 -39.069345650501319 -2.5102582773702053 4.9725527189866661 #
straight-curve $-1 43.186132389294109 21.652638727500111 0 0 0 -1 I I #
straight-curve $-1 43.186132389294109 0 9.2338423573288839 0 1 0 I I #
point $-1 43.186132389294109 21.652638727500111 9.2338423573288839 #
point $-1 37.719571799535977 16.834235137450598 3.8942010658096105 #
point $-1 37.719571799535977 18.641136483719166 3.8942010658096105 #
point $-1 37.719571799535977 20.448037829987733 3.8942010658096105 #
point $-1 -43.186132389294109 -21.652638727500111 9.2338423573288839 #
straight-curve $-1 0 -21.652638727500111 9.2338423573288839 1 0 0 I I #
End-of-ACIS-data 