500 0 8 0           
7 Unknown 11 ACIS 5.0 NT 24 Fri Mar 26 02:41:28 1999 
-1 9.9999999999999995e-007 1e-010 
body $-1 $8 $-1 $9 #
body $-1 $10 $-1 $11 #
body $-1 $12 $-1 $13 #
body $-1 $14 $-1 $15 #
body $-1 $16 $-1 $17 #
body $-1 $18 $-1 $19 #
body $-1 $20 $-1 $21 #
body $-1 $22 $-1 $23 #
lump $-1 $-1 $24 $0 #
transform $-1 1 0 0 0 1 0 0 0 1 71.265602587969596 36.325513303758903 11.525454466725641 1 rotate no_reflect no_shear #
lump $-1 $-1 $25 $1 #
transform $-1 1 0 0 0 1 0 0 0 1 71.265602587969596 36.325513303758903 11.525454466725641 1 rotate no_reflect no_shear #
lump $-1 $-1 $26 $2 #
transform $-1 1 0 0 0 1 0 0 0 1 71.265602587969596 36.325513303758903 11.525454466725641 1 rotate no_reflect no_shear #
lump $-1 $-1 $27 $3 #
transform $-1 1 0 0 0 1 0 0 0 1 71.265602587969596 36.325513303758903 11.525454466725641 1 rotate no_reflect no_shear #
lump $-1 $-1 $28 $4 #
transform $-1 1 0 0 0 1 0 0 0 1 71.265602587969596 36.325513303758903 11.525454466725641 1 rotate no_reflect no_shear #
lump $-1 $-1 $29 $5 #
transform $-1 1 0 0 0 1 0 0 0 1 71.265602587969596 36.325513303758903 11.525454466725641 1 rotate no_reflect no_shear #
lump $-1 $-1 $30 $6 #
transform $-1 1 0 0 0 1 0 0 0 1 71.265602587969596 36.325513303758903 11.525454466725641 1 rotate no_reflect no_shear #
lump $-1 $-1 $31 $7 #
transform $-1 1 0 0 0 1 0 0 0 1 71.265602587969596 36.325513303758903 11.525454466725641 1 rotate no_reflect no_shear #
shell $-1 $-1 $-1 $32 $-1 $8 #
shell $-1 $-1 $-1 $33 $-1 $10 #
shell $-1 $-1 $-1 $34 $-1 $12 #
shell $-1 $-1 $-1 $35 $-1 $14 #
shell $-1 $-1 $-1 $36 $-1 $16 #
shell $-1 $-1 $-1 $37 $-1 $18 #
shell $-1 $-1 $-1 $38 $-1 $20 #
shell $-1 $-1 $-1 $39 $-1 $22 #
face $-1 $40 $41 $24 $-1 $42 forward single #
face $-1 $43 $44 $25 $-1 $45 forward single #
face $-1 $46 $47 $26 $-1 $48 forward single #
face $-1 $49 $50 $27 $-1 $51 reversed single #
face $-1 $52 $53 $28 $-1 $54 forward single #
face $-1 $55 $56 $29 $-1 $57 reversed single #
face $-1 $58 $59 $30 $-1 $60 forward single #
face $-1 $61 $62 $31 $-1 $63 forward single #
face $-1 $64 $65 $24 $-1 $66 reversed single #
loop $-1 $-1 $67 $32 #
plane-surface $-1 0 0 11.525454466725641 0 0 1 1 0 0 forward_v I I I I #
face $-1 $68 $69 $25 $-1 $70 reversed single #
loop $-1 $-1 $71 $33 #
plane-surface $-1 0 -30.068655117182619 -5.0584719945912653 0 0 1 1 0 0 forward_v I I I I #
face $-1 $72 $73 $26 $-1 $74 reversed single #
loop $-1 $-1 $75 $34 #
plane-surface $-1 0 30.068655117182622 -5.0584719945912653 0 0 1 1 0 0 forward_v I I I I #
face $-1 $76 $77 $27 $-1 $78 reversed single #
loop $-1 $-1 $79 $35 #
plane-surface $-1 85.326387086779249 -23.811796930606334 206.93633616211474 0 1 0 0.75470958851134928 0 0.65605901945558964 forward_v I I I I #
face $-1 $80 $81 $28 $-1 $82 forward single #
loop $-1 $83 $84 $36 #
cone-surface $-1 67.598492435493455 -20.719485045850249 7.6452635823014239 -0.75470958851134928 0 -0.65605901945558964 0.65605901945558964 0 -0.75470958851134928 1 I I 0 1 1 forward I I I I #
face $-1 $85 $86 $29 $-1 $87 reversed single #
loop $-1 $-1 $88 $37 #
plane-surface $-1 -150.96804208135498 -6.7186753110923902 119.9077380978234 0 -1 0 0.55919291073839883 0 -0.82903756765294845 forward_v I I I I #
face $-1 $89 $90 $30 $-1 $91 forward single #
loop $-1 $92 $93 $38 #
cone-surface $-1 -63.735215673028328 -12.335956920754104 6.2202156715960708 0.55919291073839883 0 -0.82903756765294845 0.41451878382647422 0 0.27959645536919941 1 I I 0 1 0.5 forward I I I I #
face $-1 $94 $95 $31 $-1 $96 forward single #
loop $-1 $97 $98 $39 #
cone-surface $-1 -63.735215673028328 -8.9655879549570727 6.2202156715960708 0.55919291073839883 0 -0.82903756765294845 0.41451878382647422 0 0.27959645536919941 1 I I 0 1 0.5 forward I I I I #
face $-1 $99 $100 $24 $-1 $101 reversed single #
loop $-1 $-1 $102 $40 #
plane-surface $-1 0 0 -11.525454466725641 0 0 1 1 0 0 forward_v I I I I #
coedge $-1 $103 $104 $105 $106 forward $41 $-1 #
face $-1 $107 $108 $25 $-1 $109 reversed single #
loop $-1 $-1 $110 $43 #
plane-surface $-1 0 -30.068655117182619 -11.025454466725641 0 0 1 1 0 0 forward_v I I I I #
coedge $-1 $111 $112 $113 $114 reversed $44 $-1 #
face $-1 $115 $116 $26 $-1 $117 reversed single #
loop $-1 $-1 $118 $46 #
plane-surface $-1 0 30.068655117182622 -11.025454466725641 0 0 1 1 0 0 forward_v I I I I #
coedge $-1 $119 $120 $121 $122 reversed $47 $-1 #
face $-1 $123 $124 $27 $-1 $125 reversed single #
loop $-1 $-1 $126 $49 #
plane-surface $-1 -22.243280121580511 -20.719485045850245 113.42745345256461 0.75470958851134928 0 0.65605901945558964 0.65605901945558964 0 -0.75470958851134928 forward_v I I I I #
coedge $-1 $127 $128 $129 $130 reversed $50 $-1 #
face $-1 $-1 $131 $28 $-1 $132 forward single #
loop $-1 $133 $134 $52 #
cone-surface $-1 66.017441835994788 -20.719485045850249 6.2708772994098112 -0.75470958851134928 0 -0.65605901945558964 0.32802950972779482 0 -0.37735479425567464 1 I I -0.70710678118654746 0.70710678118654746 0.5 forward I I I I #
loop $-1 $-1 $135 $36 #
coedge $-1 $84 $84 $136 $137 reversed $53 $-1 #
face $-1 $138 $139 $29 $-1 $140 reversed single #
loop $-1 $-1 $141 $55 #
plane-surface $-1 -71.26560258796961 -10.65077243785559 1.7440144441194292 -0.55919291073839883 0 0.82903756765294845 0.82903756765294845 0 0.55919291073839883 forward_v I I I I #
coedge $-1 $142 $143 $144 $145 reversed $56 $-1 #
face $-1 $-1 $146 $30 $-1 $147 forward single #
loop $-1 $148 $149 $58 #
cone-surface $-1 -63.315820989974526 -12.335956920754104 5.5984374958563592 0.55919291073839883 0 -0.82903756765294845 0.20725939191323711 0 0.13979822768459971 1 I I -0.70710678118654746 0.70710678118654746 0.25 forward I I I I #
loop $-1 $-1 $150 $38 #
coedge $-1 $93 $93 $151 $152 reversed $59 $-1 #
face $-1 $-1 $153 $31 $-1 $154 forward single #
loop $-1 $155 $156 $61 #
cone-surface $-1 -63.315820989974526 -8.9655879549570727 5.5984374958563592 0.55919291073839883 0 -0.82903756765294845 0.20725939191323711 0 0.13979822768459971 1 I I -0.70710678118654746 0.70710678118654746 0.25 forward I I I I #
loop $-1 $-1 $157 $39 #
coedge $-1 $98 $98 $158 $159 reversed $62 $-1 #
face $-1 $160 $161 $24 $-1 $162 reversed single #
loop $-1 $-1 $163 $64 #
plane-surface $-1 0 -36.325513303758903 0 0 1 0 0 0 1 forward_v I I I I #
coedge $-1 $164 $165 $166 $167 forward $65 $-1 #
coedge $-1 $168 $67 $169 $170 forward $41 $-1 #
coedge $-1 $67 $168 $171 $172 forward $41 $-1 #
coedge $-1 $173 $174 $67 $106 reversed $175 $-1 #
edge $-1 $176 -36.325513303758903 $177 36.325513303758903 $105 $178 forward 7 unknown #
face $-1 $179 $180 $25 $-1 $181 reversed single #
loop $-1 $-1 $182 $68 #
plane-surface $-1 0 -23.811796930606334 -8.0419632306584532 0 -1 0 0 0 -1 forward_v I I I I #
coedge $-1 $183 $184 $185 $186 reversed $69 $-1 #
coedge $-1 $187 $71 $188 $189 forward $44 $-1 #
coedge $-1 $71 $187 $190 $191 reversed $44 $-1 #
coedge $-1 $192 $193 $71 $114 forward $194 $-1 #
edge $-1 $195 8.777469372015025 $196 21.291185745167596 $113 $197 forward 7 unknown #
face $-1 $198 $199 $26 $-1 $200 reversed single #
loop $-1 $-1 $201 $72 #
plane-surface $-1 0 23.811796930606338 -8.0419632306584532 0 1 0 0 0 1 forward_v I I I I #
coedge $-1 $202 $203 $204 $205 reversed $73 $-1 #
coedge $-1 $206 $75 $207 $208 reversed $47 $-1 #
coedge $-1 $75 $206 $209 $210 forward $47 $-1 #
coedge $-1 $211 $212 $75 $122 forward $199 $-1 #
edge $-1 $213 -21.291185745167599 $214 -8.7774693720150267 $121 $215 forward 7 unknown #
face $-1 $216 $217 $27 $-1 $218 forward single #
loop $-1 $-1 $219 $76 #
plane-surface $-1 85.326387086779249 -17.627173161094156 206.93633616211474 0 -1 0 -0.75470958851134928 0 -0.65605901945558964 forward_v I I I I #
coedge $-1 $220 $221 $222 $223 reversed $77 $-1 #
coedge $-1 $128 $79 $224 $225 reversed $50 $-1 #
coedge $-1 $79 $127 $220 $226 reversed $50 $-1 #
coedge $-1 $222 $227 $79 $130 forward $228 $-1 #
edge $-1 $229 91.942713614331723 $230 97.610381836852497 $129 $231 forward 7 unknown #
loop $-1 $-1 $136 $80 #
plane-surface $-1 -22.243280121580511 -20.719485045850245 113.42745345256461 0.75470958851134928 0 0.65605901945558964 0.65605901945558964 0 -0.75470958851134928 forward_v I I I I #
loop $-1 $-1 $232 $52 #
coedge $-1 $134 $134 $135 $233 reversed $81 $-1 #
coedge $-1 $135 $135 $134 $233 forward $83 $-1 #
coedge $-1 $136 $136 $84 $137 forward $131 $-1 #
edge $-1 $234 0 $234 6.2831853071796004 $136 $235 forward 7 unknown #
face $-1 $236 $237 $29 $-1 $238 reversed single #
loop $-1 $-1 $239 $85 #
plane-surface $-1 -150.96804208135498 -14.58286956461879 119.9077380978234 0 1 0 -0.55919291073839883 0 0.82903756765294845 forward_v I I I I #
coedge $-1 $240 $241 $242 $243 reversed $86 $-1 #
coedge $-1 $143 $88 $244 $245 reversed $56 $-1 #
coedge $-1 $88 $142 $240 $246 reversed $56 $-1 #
coedge $-1 $242 $247 $88 $145 forward $237 $-1 #
edge $-1 $248 48.428414582186058 $249 58.209854604792262 $144 $250 forward 7 unknown #
loop $-1 $-1 $151 $89 #
plane-surface $-1 -71.26560258796961 -10.65077243785559 1.7440144441194292 -0.55919291073839883 0 0.82903756765294845 0.82903756765294845 0 0.55919291073839883 forward_v I I I I #
loop $-1 $-1 $251 $58 #
coedge $-1 $149 $149 $150 $252 reversed $90 $-1 #
coedge $-1 $150 $150 $149 $252 forward $92 $-1 #
coedge $-1 $151 $151 $93 $152 forward $146 $-1 #
edge $-1 $253 0 $253 6.2831853071796004 $151 $254 forward 7 unknown #
loop $-1 $-1 $158 $94 #
plane-surface $-1 -71.26560258796961 -10.65077243785559 1.7440144441194292 -0.55919291073839883 0 0.82903756765294845 0.82903756765294845 0 0.55919291073839883 forward_v I I I I #
loop $-1 $-1 $255 $61 #
coedge $-1 $156 $156 $157 $256 reversed $95 $-1 #
coedge $-1 $157 $157 $156 $256 forward $97 $-1 #
coedge $-1 $158 $158 $98 $159 forward $153 $-1 #
edge $-1 $257 0 $257 6.2831853071796004 $158 $258 forward 7 unknown #
face $-1 $259 $260 $24 $-1 $261 reversed single #
loop $-1 $-1 $262 $99 #
plane-surface $-1 -71.265602587969596 0 0 1 0 0 0 0 -1 forward_v I I I I #
coedge $-1 $263 $171 $264 $265 forward $100 $-1 #
coedge $-1 $266 $102 $263 $267 forward $65 $-1 #
coedge $-1 $102 $266 $268 $269 forward $65 $-1 #
coedge $-1 $174 $173 $102 $167 reversed $175 $-1 #
edge $-1 $270 -36.325513303758903 $271 36.325513303758903 $166 $272 forward 7 unknown #
coedge $-1 $104 $103 $273 $274 forward $41 $-1 #
coedge $-1 $275 $276 $103 $170 reversed $260 $-1 #
edge $-1 $177 -71.265602587969596 $277 71.265602587969596 $169 $278 forward 7 unknown #
coedge $-1 $163 $279 $104 $172 reversed $100 $-1 #
edge $-1 $280 -71.265602587969596 $176 71.265602587969596 $171 $281 forward 7 unknown #
coedge $-1 $166 $105 $279 $282 forward $175 $-1 #
coedge $-1 $105 $166 $275 $283 reversed $175 $-1 #
loop $-1 $-1 $173 $259 #
vertex $-1 $106 $284 #
vertex $-1 $106 $285 #
straight-curve $-1 71.265602587969596 0 11.525454466725641 0 1 0 I I #
face $-1 $286 $287 $25 $-1 $288 reversed single #
loop $-1 $-1 $289 $107 #
plane-surface $-1 -71.265602587969596 0 0 1 0 0 0 0 -1 forward_v I I I I #
coedge $-1 $290 $188 $193 $291 reversed $108 $-1 #
coedge $-1 $292 $110 $293 $294 reversed $69 $-1 #
coedge $-1 $110 $292 $290 $295 forward $69 $-1 #
coedge $-1 $193 $192 $110 $186 forward $194 $-1 #
edge $-1 $296 -21.291185745167596 $297 -8.777469372015025 $185 $298 forward 7 unknown #
coedge $-1 $112 $111 $289 $299 reversed $44 $-1 #
coedge $-1 $182 $300 $111 $189 reversed $108 $-1 #
edge $-1 $195 -71.265602587969596 $301 71.265602587969596 $188 $302 forward 7 unknown #
coedge $-1 $303 $304 $112 $191 forward $287 $-1 #
edge $-1 $196 -71.265602587969596 $305 71.265602587969596 $190 $306 forward 7 unknown #
coedge $-1 $185 $113 $304 $307 forward $194 $-1 #
coedge $-1 $113 $185 $182 $291 forward $194 $-1 #
loop $-1 $-1 $113 $286 #
vertex $-1 $114 $308 #
vertex $-1 $307 $309 #
straight-curve $-1 71.265602587969596 -15.034327558591309 -5.0584719945912653 0 -1 0 I I #
face $-1 $310 $311 $26 $-1 $312 reversed single #
loop $-1 $-1 $121 $115 #
plane-surface $-1 71.265602587969596 0 0 -1 0 0 0 0 1 forward_v I I I I #
coedge $-1 $313 $209 $314 $315 reversed $116 $-1 #
coedge $-1 $316 $118 $313 $317 forward $73 $-1 #
coedge $-1 $118 $316 $318 $319 reversed $73 $-1 #
coedge $-1 $212 $211 $118 $205 forward $199 $-1 #
edge $-1 $320 8.7774693720150267 $321 21.291185745167599 $204 $322 forward 7 unknown #
coedge $-1 $120 $119 $323 $324 reversed $47 $-1 #
coedge $-1 $325 $326 $119 $208 forward $327 $-1 #
edge $-1 $328 -71.265602587969596 $213 71.265602587969596 $207 $329 forward 7 unknown #
coedge $-1 $201 $330 $120 $210 reversed $116 $-1 #
edge $-1 $331 -71.265602587969596 $214 71.265602587969596 $209 $332 forward 7 unknown #
coedge $-1 $204 $121 $330 $333 forward $199 $-1 #
coedge $-1 $121 $204 $325 $334 reversed $199 $-1 #
vertex $-1 $334 $335 #
vertex $-1 $122 $336 #
straight-curve $-1 71.265602587969596 15.034327558591311 -5.0584719945912653 0 -1 0 I I #
face $-1 $-1 $228 $27 $-1 $337 reversed single #
loop $-1 $-1 $338 $123 #
plane-surface $-1 0 0 11.525454466725641 0 0 1 1 0 0 forward_v I I I I #
coedge $-1 $339 $340 $341 $342 reversed $124 $-1 #
coedge $-1 $343 $126 $128 $226 forward $77 $-1 #
coedge $-1 $126 $343 $339 $344 forward $77 $-1 #
coedge $-1 $341 $129 $126 $223 forward $228 $-1 #
edge $-1 $230 -13.452054407681212 $345 -7.2674306381690332 $222 $346 forward 7 unknown #
coedge $-1 $347 $348 $127 $225 forward $217 $-1 #
edge $-1 $349 23.675580350113648 $229 28.602409044579971 $224 $350 forward 7 unknown #
edge $-1 $230 -142.53120517593919 $349 -135.02147122158445 $128 $351 forward 7 unknown #
coedge $-1 $129 $341 $347 $352 reversed $228 $-1 #
loop $-1 $-1 $341 $216 #
vertex $-1 $352 $353 #
vertex $-1 $130 $354 #
straight-curve $-1 71.265602587969596 -23.811796930606334 103.46816808105737 0 0 -1 I I #
coedge $-1 $232 $232 $-1 $355 reversed $133 $-1 #
edge $-1 $356 0 $356 6.2831853071796004 $134 $357 forward 7 unknown #
vertex $-1 $137 $358 #
ellipse-curve $-1 68.802188240736456 -20.719485045850249 8.6916203554652398 0.75470958851134928 0 0.65605901945558964 0.65605901945558964 0 -0.75470958851134928 1 I I #
face $-1 $-1 $359 $29 $-1 $360 forward single #
loop $-1 $-1 $144 $138 #
plane-surface $-1 -71.265602587969596 0 0 1 0 0 0 0 -1 forward_v I I I I #
coedge $-1 $361 $362 $363 $364 reversed $139 $-1 #
coedge $-1 $365 $141 $143 $246 forward $86 $-1 #
coedge $-1 $141 $365 $361 $366 forward $86 $-1 #
coedge $-1 $363 $144 $141 $243 forward $237 $-1 #
edge $-1 $249 1.3932890921645953 $367 9.2574833456909946 $242 $368 forward 7 unknown #
coedge $-1 $369 $370 $142 $245 forward $359 $-1 #
edge $-1 $371 -18.719999371852055 $248 -4.2184184527078941 $244 $372 forward 7 unknown #
edge $-1 $249 1.7120460491857305e-014 $371 17.492067289783932 $143 $373 forward 7 unknown #
coedge $-1 $144 $363 $369 $374 reversed $237 $-1 #
vertex $-1 $374 $375 #
vertex $-1 $145 $376 #
straight-curve $-1 -71.265602587969596 -6.7186753110923902 59.953869048911699 0 0 -1 I I #
coedge $-1 $251 $251 $-1 $377 reversed $148 $-1 #
edge $-1 $378 0 $378 6.2831853071796004 $149 $379 forward 7 unknown #
vertex $-1 $152 $380 #
ellipse-curve $-1 -64.014812128397523 -12.335956920754104 6.634734455422536 -0.55919291073839883 0 0.82903756765294845 0.41451878382647422 0 0.27959645536919941 1 I I #
coedge $-1 $255 $255 $-1 $381 reversed $155 $-1 #
edge $-1 $382 0 $382 6.2831853071796004 $156 $383 forward 7 unknown #
vertex $-1 $159 $384 #
ellipse-curve $-1 -64.014812128397523 -8.9655879549570727 6.634734455422536 -0.55919291073839883 0 0.82903756765294845 0.41451878382647422 0 0.27959645536919941 1 I I #
face $-1 $-1 $175 $24 $-1 $385 reversed single #
loop $-1 $-1 $275 $160 #
plane-surface $-1 0 36.325513303758903 0 0 -1 0 0 0 -1 forward_v I I I I #
coedge $-1 $386 $273 $276 $387 forward $161 $-1 #
coedge $-1 $279 $163 $164 $267 reversed $100 $-1 #
coedge $-1 $273 $386 $163 $265 reversed $161 $-1 #
edge $-1 $280 -11.525454466725641 $388 11.525454466725641 $264 $389 forward 7 unknown #
coedge $-1 $165 $164 $386 $390 forward $65 $-1 #
edge $-1 $271 -71.265602587969596 $388 71.265602587969596 $263 $391 forward 7 unknown #
coedge $-1 $276 $275 $165 $269 reversed $260 $-1 #
edge $-1 $392 -71.265602587969596 $270 71.265602587969596 $268 $393 forward 7 unknown #
vertex $-1 $167 $394 #
vertex $-1 $282 $395 #
straight-curve $-1 71.265602587969596 0 -11.525454466725641 0 -1 0 I I #
coedge $-1 $262 $264 $168 $274 reversed $161 $-1 #
edge $-1 $277 -36.325513303758903 $280 36.325513303758903 $273 $396 forward 7 unknown #
coedge $-1 $268 $169 $174 $283 forward $260 $-1 #
coedge $-1 $169 $268 $262 $387 reversed $260 $-1 #
vertex $-1 $170 $397 #
straight-curve $-1 0 36.325513303758903 11.525454466725641 -1 0 0 I I #
coedge $-1 $171 $263 $173 $282 reversed $100 $-1 #
vertex $-1 $274 $398 #
straight-curve $-1 0 -36.325513303758903 11.525454466725641 1 0 0 I I #
edge $-1 $176 -11.525454466725641 $271 11.525454466725641 $173 $399 forward 7 unknown #
edge $-1 $177 -11.525454466725641 $270 11.525454466725641 $174 $400 forward 7 unknown #
point $-1 71.265602587969596 -36.325513303758903 11.525454466725641 #
point $-1 71.265602587969596 36.325513303758903 11.525454466725641 #
face $-1 $-1 $194 $25 $-1 $401 reversed single #
loop $-1 $-1 $190 $179 #
plane-surface $-1 0 -36.325513303758903 0 0 1 0 0 0 1 forward_v I I I I #
coedge $-1 $402 $403 $187 $299 forward $180 $-1 #
coedge $-1 $300 $182 $184 $295 reversed $108 $-1 #
edge $-1 $297 -7.0044728513964145 $195 -1.0374903792620387 $193 $404 forward 7 unknown #
coedge $-1 $184 $183 $405 $406 reversed $69 $-1 #
coedge $-1 $304 $303 $183 $294 forward $287 $-1 #
edge $-1 $407 -71.265602587969596 $296 71.265602587969596 $293 $408 forward 7 unknown #
edge $-1 $409 -71.265602587969596 $297 71.265602587969596 $290 $410 forward 7 unknown #
vertex $-1 $294 $411 #
vertex $-1 $186 $412 #
straight-curve $-1 71.265602587969596 -15.034327558591309 -11.025454466725641 0 1 0 I I #
edge $-1 $305 -21.291185745167596 $301 -8.777469372015025 $289 $413 forward 7 unknown #
coedge $-1 $188 $290 $402 $414 reversed $108 $-1 #
vertex $-1 $299 $415 #
straight-curve $-1 0 -23.811796930606334 -5.0584719945912653 -1 0 0 I I #
coedge $-1 $293 $190 $403 $416 forward $287 $-1 #
coedge $-1 $190 $293 $192 $307 reversed $287 $-1 #
vertex $-1 $416 $417 #
straight-curve $-1 0 -36.325513303758903 -5.0584719945912653 -1 0 0 I I #
edge $-1 $196 5.0584719945912653 $296 11.025454466725641 $192 $418 forward 7 unknown #
point $-1 71.265602587969596 -23.811796930606334 -5.0584719945912653 #
point $-1 71.265602587969596 -36.325513303758903 -5.0584719945912653 #
face $-1 $-1 $327 $26 $-1 $419 reversed single #
loop $-1 $-1 $323 $198 #
plane-surface $-1 -71.265602587969596 0 0 1 0 0 0 0 -1 forward_v I I I I #
coedge $-1 $330 $201 $202 $317 reversed $116 $-1 #
coedge $-1 $323 $420 $201 $315 forward $311 $-1 #
edge $-1 $421 -7.0044728513964145 $331 -1.0374903792620387 $314 $422 forward 7 unknown #
coedge $-1 $203 $202 $420 $423 reversed $73 $-1 #
edge $-1 $320 -71.265602587969596 $421 71.265602587969596 $313 $424 forward 7 unknown #
coedge $-1 $326 $325 $203 $319 forward $327 $-1 #
edge $-1 $321 -71.265602587969596 $425 71.265602587969596 $318 $426 forward 7 unknown #
vertex $-1 $205 $427 #
vertex $-1 $319 $428 #
straight-curve $-1 71.265602587969596 15.034327558591311 -11.025454466725641 0 1 0 I I #
coedge $-1 $429 $314 $206 $324 forward $311 $-1 #
edge $-1 $331 8.7774693720150267 $328 21.291185745167599 $323 $430 forward 7 unknown #
coedge $-1 $318 $207 $212 $334 forward $327 $-1 #
coedge $-1 $207 $318 $429 $431 reversed $327 $-1 #
loop $-1 $-1 $207 $310 #
vertex $-1 $431 $432 #
straight-curve $-1 0 36.325513303758903 -5.0584719945912653 1 0 0 I I #
coedge $-1 $209 $313 $211 $333 reversed $116 $-1 #
vertex $-1 $324 $433 #
straight-curve $-1 0 23.811796930606338 -5.0584719945912653 1 0 0 I I #
edge $-1 $214 1.0374903792620387 $320 7.0044728513964145 $211 $434 forward 7 unknown #
edge $-1 $213 5.0584719945912653 $321 11.025454466725641 $212 $435 forward 7 unknown #
point $-1 71.265602587969596 36.32551330375891 -5.0584719945912653 #
point $-1 71.265602587969596 23.811796930606338 -5.0584719945912653 #
plane-surface $-1 71.265602587969596 0 0 -1 0 0 0 0 1 forward_v I I I I #
coedge $-1 $348 $347 $340 $436 forward $217 $-1 #
coedge $-1 $340 $219 $221 $344 reversed $124 $-1 #
coedge $-1 $219 $339 $338 $436 reversed $124 $-1 #
coedge $-1 $227 $222 $219 $342 forward $228 $-1 #
edge $-1 $345 -97.610381836852497 $437 -91.942713614331723 $341 $438 forward 7 unknown #
coedge $-1 $221 $220 $348 $439 reversed $77 $-1 #
edge $-1 $440 135.02147122158445 $345 142.53120517593919 $339 $441 forward 7 unknown #
vertex $-1 $223 $442 #
straight-curve $-1 71.265602587969596 -10.359742522925123 5.857786244204874 0 1 0 I I #
coedge $-1 $338 $224 $227 $352 forward $217 $-1 #
coedge $-1 $224 $338 $343 $439 forward $217 $-1 #
vertex $-1 $225 $443 #
straight-curve $-1 42.663193543389625 -23.811796930606334 11.525454466725648 1 0 0 I I #
straight-curve $-1 -22.243280121580511 -23.811796930606334 113.42745345256461 -0.65605901945558964 0 0.75470958851134928 I I #
edge $-1 $229 -23.811796930606334 $437 -17.627173161094156 $227 $444 forward 7 unknown #
point $-1 71.265602587969596 -23.811796930606334 11.525454466725641 #
point $-1 71.265602587969596 -23.811796930606334 5.857786244204874 #
edge $-1 $445 1 $445 0 $232 $-1 forward 7 unknown #
vertex $-1 $233 $446 #
ellipse-curve $-1 66.394796630250468 -20.719485045850249 6.5989068091376062 0.75470958851134928 0 0.65605901945558964 0.65605901945558964 0 -0.75470958851134928 1 I I #
point $-1 69.458247260192053 -20.719485045850249 7.9369107669538934 #
loop $-1 $-1 $244 $236 #
plane-surface $-1 0 0 11.525454466725641 0 0 1 1 0 0 forward_v I I I I #
coedge $-1 $362 $239 $241 $366 reversed $139 $-1 #
coedge $-1 $239 $361 $447 $448 reversed $139 $-1 #
coedge $-1 $247 $242 $239 $364 forward $237 $-1 #
edge $-1 $367 -58.209854604792262 $449 -48.428414582186058 $363 $450 forward 7 unknown #
coedge $-1 $241 $240 $370 $451 reversed $86 $-1 #
edge $-1 $452 -17.492067289783932 $367 -1.7120460491857305e-014 $361 $453 forward 7 unknown #
vertex $-1 $243 $454 #
straight-curve $-1 -71.265602587969596 -5.325386218927795 1.7440144441194354 0 -1 0 I I #
coedge $-1 $447 $244 $247 $374 forward $359 $-1 #
coedge $-1 $244 $447 $365 $451 forward $359 $-1 #
vertex $-1 $245 $455 #
straight-curve $-1 -75.48402104067749 -6.7186753110923902 11.525454466725641 -1 0 0 I I #
straight-curve $-1 -71.26560258796961 -6.7186753110923902 1.7440144441194292 0.82903756765294845 0 0.55919291073839883 I I #
edge $-1 $248 6.7186753110923902 $449 14.58286956461879 $247 $456 forward 7 unknown #
point $-1 -71.265602587969596 -6.7186753110923902 11.525454466725641 #
point $-1 -71.265602587969596 -6.7186753110923902 1.7440144441194387 #
edge $-1 $457 1 $457 0 $251 $-1 forward 7 unknown #
vertex $-1 $252 $458 #
ellipse-curve $-1 -63.455619217659127 -12.335956920754104 5.8056968877695967 -0.55919291073839883 0 0.82903756765294845 0.41451878382647422 0 0.27959645536919941 1 I I #
point $-1 -63.60029334457105 -12.335956920754104 6.9143309107917439 #
edge $-1 $459 1 $459 0 $255 $-1 forward 7 unknown #
vertex $-1 $256 $460 #
ellipse-curve $-1 -63.455619217659127 -8.9655879549570727 5.8056968877695967 -0.55919291073839883 0 0.82903756765294845 0.41451878382647422 0 0.27959645536919941 1 I I #
point $-1 -63.60029334457105 -8.9655879549570727 6.9143309107917439 #
plane-surface $-1 71.265602587969596 0 0 -1 0 0 0 0 1 forward_v I I I I #
coedge $-1 $264 $262 $266 $390 reversed $161 $-1 #
edge $-1 $277 -11.525454466725641 $392 11.525454466725641 $276 $461 forward 7 unknown #
vertex $-1 $390 $462 #
straight-curve $-1 -71.265602587969596 -36.325513303758903 0 0 0 -1 I I #
edge $-1 $388 -36.325513303758903 $392 36.325513303758903 $386 $463 forward 7 unknown #
straight-curve $-1 0 -36.325513303758903 -11.525454466725641 -1 0 0 I I #
vertex $-1 $269 $464 #
straight-curve $-1 0 36.325513303758903 -11.525454466725641 1 0 0 I I #
point $-1 71.265602587969596 36.325513303758903 -11.525454466725641 #
point $-1 71.265602587969596 -36.325513303758903 -11.525454466725641 #
straight-curve $-1 -71.265602587969596 0 11.525454466725641 0 -1 0 I I #
point $-1 -71.265602587969596 36.325513303758903 11.525454466725641 #
point $-1 -71.265602587969596 -36.325513303758903 11.525454466725641 #
straight-curve $-1 71.265602587969596 -36.325513303758903 0 0 0 -1 I I #
straight-curve $-1 71.265602587969596 36.325513303758903 0 0 0 -1 I I #
plane-surface $-1 71.265602587969596 0 0 -1 0 0 0 0 1 forward_v I I I I #
coedge $-1 $405 $289 $300 $414 forward $180 $-1 #
coedge $-1 $289 $405 $303 $416 reversed $180 $-1 #
straight-curve $-1 71.265602587969596 -23.811796930606334 -4.0209816153292266 0 0 1 I I #
coedge $-1 $403 $402 $292 $406 forward $180 $-1 #
edge $-1 $409 8.777469372015025 $407 21.291185745167596 $405 $465 forward 7 unknown #
vertex $-1 $294 $466 #
straight-curve $-1 0 -36.325513303758903 -11.025454466725641 1 0 0 I I #
vertex $-1 $406 $467 #
straight-curve $-1 0 -23.811796930606334 -11.025454466725641 1 0 0 I I #
point $-1 71.265602587969596 -36.325513303758903 -11.025454466725641 #
point $-1 71.265602587969596 -23.811796930606334 -11.025454466725641 #
straight-curve $-1 -71.265602587969596 -15.034327558591309 -5.0584719945912653 0 1 0 I I #
edge $-1 $301 1.0374903792620387 $409 7.0044728513964145 $402 $468 forward 7 unknown #
point $-1 -71.265602587969596 -23.811796930606334 -5.0584719945912653 #
edge $-1 $305 5.0584719945912653 $407 11.025454466725641 $403 $469 forward 7 unknown #
point $-1 -71.265602587969596 -36.325513303758903 -5.0584719945912653 #
straight-curve $-1 71.265602587969596 -36.325513303758903 0 0 0 -1 I I #
plane-surface $-1 0 36.325513303758903 0 0 -1 0 0 0 -1 forward_v I I I I #
coedge $-1 $314 $429 $316 $423 forward $311 $-1 #
vertex $-1 $423 $470 #
straight-curve $-1 -71.265602587969596 23.811796930606338 -4.0209816153292266 0 0 1 I I #
edge $-1 $425 -21.291185745167599 $421 -8.7774693720150267 $420 $471 forward 7 unknown #
straight-curve $-1 0 23.811796930606338 -11.025454466725641 -1 0 0 I I #
vertex $-1 $319 $472 #
straight-curve $-1 0 36.325513303758903 -11.025454466725641 -1 0 0 I I #
point $-1 71.265602587969596 23.811796930606338 -11.025454466725641 #
point $-1 71.265602587969596 36.32551330375891 -11.025454466725641 #
coedge $-1 $420 $323 $326 $431 forward $311 $-1 #
straight-curve $-1 -71.265602587969596 15.034327558591311 -5.0584719945912653 0 1 0 I I #
edge $-1 $328 5.0584719945912653 $425 11.025454466725641 $326 $473 forward 7 unknown #
point $-1 -71.265602587969596 36.32551330375891 -5.0584719945912653 #
point $-1 -71.265602587969596 23.811796930606338 -5.0584719945912653 #
straight-curve $-1 71.265602587969596 23.811796930606338 -4.0209816153292266 0 0 -1 I I #
straight-curve $-1 71.265602587969596 36.325513303758903 0 0 0 -1 I I #
edge $-1 $437 -28.602409044579971 $440 -23.675580350113648 $338 $474 forward 7 unknown #
vertex $-1 $436 $475 #
straight-curve $-1 71.265602587969596 -17.627173161094156 103.46816808105737 0 0 1 I I #
edge $-1 $440 7.2674306381690332 $349 13.452054407681212 $348 $476 forward 7 unknown #
vertex $-1 $439 $477 #
straight-curve $-1 -22.243280121580511 -17.627173161094156 113.42745345256461 0.65605901945558964 0 -0.75470958851134928 I I #
point $-1 71.265602587969596 -17.627173161094156 5.857786244204874 #
point $-1 66.338773893503273 -23.811796930606334 11.525454466725648 #
straight-curve $-1 71.265602587969596 0 11.525454466725641 0 1 0 I I #
vertex $-1 $355 $478 #
point $-1 67.050855649706051 -20.719485045850249 5.8441972206262571 #
coedge $-1 $370 $369 $362 $448 forward $359 $-1 #
edge $-1 $449 4.2184184527078941 $452 18.719999371852055 $447 $479 forward 7 unknown #
vertex $-1 $448 $480 #
straight-curve $-1 -71.265602587969596 -14.58286956461879 59.953869048911699 0 0 1 I I #
edge $-1 $452 -9.2574833456909946 $371 -1.3932890921645953 $370 $481 forward 7 unknown #
vertex $-1 $451 $482 #
straight-curve $-1 -71.26560258796961 -14.58286956461879 1.7440144441194292 -0.82903756765294845 0 -0.55919291073839883 I I #
point $-1 -71.265602587969596 -14.58286956461879 1.7440144441194387 #
point $-1 -56.764021668825436 -6.7186753110923902 11.525454466725641 #
straight-curve $-1 -71.265602587969596 0 11.525454466725641 0 -1 0 I I #
vertex $-1 $377 $483 #
point $-1 -63.041100433832653 -12.335956920754104 6.0852933431387957 #
vertex $-1 $381 $484 #
point $-1 -63.041100433832653 -8.9655879549570727 6.0852933431387957 #
straight-curve $-1 -71.265602587969596 36.325513303758903 0 0 0 -1 I I #
point $-1 -71.265602587969596 -36.325513303758903 -11.525454466725641 #
straight-curve $-1 -71.265602587969596 0 -11.525454466725641 0 1 0 I I #
point $-1 -71.265602587969596 36.325513303758903 -11.525454466725641 #
straight-curve $-1 -71.265602587969596 -15.034327558591309 -11.025454466725641 0 -1 0 I I #
point $-1 -71.265602587969596 -36.325513303758903 -11.025454466725641 #
point $-1 -71.265602587969596 -23.811796930606334 -11.025454466725641 #
straight-curve $-1 -71.265602587969596 -23.811796930606334 -4.0209816153292266 0 0 -1 I I #
straight-curve $-1 -71.265602587969596 -36.325513303758903 0 0 0 -1 I I #
point $-1 -71.265602587969596 23.811796930606338 -11.025454466725641 #
straight-curve $-1 -71.265602587969596 15.034327558591311 -11.025454466725641 0 -1 0 I I #
point $-1 -71.265602587969596 36.32551330375891 -11.025454466725641 #
straight-curve $-1 -71.265602587969596 36.325513303758903 0 0 0 -1 I I #
straight-curve $-1 42.663193543389625 -17.627173161094156 11.525454466725648 -1 0 0 I I #
point $-1 71.265602587969596 -17.627173161094156 11.525454466725641 #
straight-curve $-1 66.338773893503273 -10.359742522925123 11.525454466725648 0 -1 0 I I #
point $-1 66.338773893503273 -17.627173161094156 11.525454466725648 #
point $-1 65.640087041739108 -20.719485045850249 5.9428477896820162 #
straight-curve $-1 -75.48402104067749 -14.58286956461879 11.525454466725641 1 0 0 I I #
point $-1 -71.265602587969596 -14.58286956461879 11.525454466725641 #
straight-curve $-1 -56.764021668825443 -5.325386218927795 11.525454466725639 0 1 0 I I #
point $-1 -56.764021668825436 -14.58286956461879 11.525454466725641 #
point $-1 -63.176022762289925 -12.335956920754104 5.3911781039431217 #
point $-1 -63.176022762289925 -8.9655879549570727 5.3911781039431217 #
End-of-ACIS-data 