500 0 7 0           
7 Unknown 11 ACIS 5.0 NT 24 Fri Mar 26 15:21:47 1999 
-1 9.9999999999999995e-007 1e-010 
body $-1 $7 $-1 $8 #
body $-1 $9 $-1 $10 #
body $-1 $11 $-1 $12 #
body $-1 $13 $-1 $14 #
body $-1 $15 $-1 $16 #
body $-1 $17 $-1 $18 #
body $-1 $19 $-1 $20 #
lump $-1 $-1 $21 $0 #
transform $-1 1 0 0 0 1 0 0 0 1 67.549668874172184 34.27310266325533 9.7973356738847031 1 rotate no_reflect no_shear #
lump $-1 $-1 $22 $1 #
transform $-1 1 0 0 0 1 0 0 0 1 67.549668874172184 34.27310266325533 9.7973356738847031 1 rotate no_reflect no_shear #
lump $-1 $-1 $23 $2 #
transform $-1 1 0 0 0 1 0 0 0 1 67.549668874172184 34.27310266325533 9.7973356738847031 1 rotate no_reflect no_shear #
lump $-1 $-1 $24 $3 #
transform $-1 1 0 0 0 1 0 0 0 1 67.549668874172184 34.27310266325533 9.7973356738847031 1 rotate no_reflect no_shear #
lump $-1 $-1 $25 $4 #
transform $-1 1 0 0 0 1 0 0 0 1 67.549668874172184 34.27310266325533 9.7973356738847031 1 rotate no_reflect no_shear #
lump $-1 $-1 $26 $5 #
transform $-1 1 0 0 0 1 0 0 0 1 67.549668874172184 34.27310266325533 9.7973356738847031 1 rotate no_reflect no_shear #
lump $-1 $-1 $27 $6 #
transform $-1 1 0 0 0 1 0 0 0 1 67.549668874172184 34.27310266325533 9.7973356738847031 1 rotate no_reflect no_shear #
shell $-1 $-1 $-1 $28 $-1 $7 #
shell $-1 $-1 $-1 $29 $-1 $9 #
shell $-1 $-1 $-1 $30 $-1 $11 #
shell $-1 $-1 $-1 $31 $-1 $13 #
shell $-1 $-1 $-1 $32 $-1 $15 #
shell $-1 $-1 $-1 $33 $-1 $17 #
shell $-1 $-1 $-1 $34 $-1 $19 #
face $-1 $35 $36 $21 $-1 $37 forward single #
face $-1 $38 $39 $22 $-1 $40 reversed single #
face $-1 $41 $42 $23 $-1 $43 forward single #
face $-1 $44 $45 $24 $-1 $46 reversed single #
face $-1 $47 $48 $25 $-1 $49 forward single #
face $-1 $50 $51 $26 $-1 $52 forward single #
face $-1 $53 $54 $27 $-1 $55 forward single #
face $-1 $56 $57 $21 $-1 $58 reversed single #
loop $-1 $-1 $59 $28 #
plane-surface $-1 0 0 9.7973356738847031 0 0 1 1 0 0 forward_v I I I I #
face $-1 $60 $61 $22 $-1 $62 reversed single #
loop $-1 $-1 $63 $29 #
plane-surface $-1 110.52866616960183 -0.53350850428087604 189.65003501272605 0 -1 0 -0.84804810408105047 0 -0.52991925155115449 forward_v I I I I #
face $-1 $64 $65 $23 $-1 $66 forward single #
loop $-1 $67 $68 $30 #
cone-surface $-1 64.941657138888573 -4.8226931135283202 6.2446434344896478 -0.84804810408105047 0 -0.52991925155115449 0.79487887732673168 0 -1.2720721561215758 1 I I 0 1 1.5 forward I I I I #
face $-1 $69 $70 $24 $-1 $71 reversed single #
loop $-1 $-1 $72 $31 #
plane-surface $-1 -179.55209698565022 12.305296808205945 77.189135287338374 0 1 0 -0.82903758062907751 0 0.55919289150049634 forward_v I I I I #
face $-1 $73 $74 $25 $-1 $75 forward single #
loop $-1 $76 $77 $32 #
cone-surface $-1 -63.025616860573749 15.75802399993561 4.5234878417992812 0.82903758062907751 0 -0.55919289150049634 0.83878933725074445 0 1.2435563709436162 1 I I 0 1 1.5 forward I I I I #
face $-1 $78 $79 $26 $-1 $80 forward single #
loop $-1 $81 $82 $33 #
cone-surface $-1 -63.025616860573749 20.937114787530106 4.5234878417992812 0.82903758062907751 0 -0.55919289150049634 0.83878933725074445 0 1.2435563709436162 1 I I 0 1 1.5 forward I I I I #
face $-1 $83 $84 $27 $-1 $85 forward single #
loop $-1 $86 $87 $34 #
cone-surface $-1 -63.025616860573749 26.116205575124596 4.5234878417992812 0.82903758062907751 0 -0.55919289150049634 0.83878933725074445 0 1.2435563709436162 1 I I 0 1 1.5 forward I I I I #
face $-1 $88 $89 $21 $-1 $90 reversed single #
loop $-1 $-1 $91 $35 #
plane-surface $-1 0 0 -9.7973356738847031 0 0 1 1 0 0 forward_v I I I I #
coedge $-1 $92 $93 $94 $95 forward $36 $-1 #
face $-1 $96 $97 $22 $-1 $98 reversed single #
loop $-1 $-1 $99 $38 #
plane-surface $-1 -4.042071070487097 -4.8226931135283237 118.05829506806677 0.84804810408105047 0 0.52991925155115449 0.52991925155115449 0 -0.84804810408105047 forward_v I I I I #
coedge $-1 $100 $101 $102 $103 reversed $39 $-1 #
face $-1 $-1 $104 $23 $-1 $105 forward single #
loop $-1 $106 $107 $41 #
cone-surface $-1 63.669002656574733 -4.8226931135283202 5.4494006793846665 -0.84804810408105047 0 -0.52991925155115449 0.39743943866336584 0 -0.63603607806078788 1 I I -0.70710678118654757 0.70710678118654757 0.75 forward I I I I #
loop $-1 $-1 $108 $30 #
coedge $-1 $68 $68 $109 $110 reversed $42 $-1 #
face $-1 $111 $112 $24 $-1 $113 reversed single #
loop $-1 $-1 $114 $44 #
plane-surface $-1 -67.549668874172198 20.937114787530099 1.6425459720395281 -0.82903758062907751 0 0.55919289150049634 0.55919289150049634 0 0.82903758062907751 forward_v I I I I #
coedge $-1 $115 $116 $117 $118 reversed $45 $-1 #
face $-1 $-1 $119 $25 $-1 $120 forward single #
loop $-1 $121 $122 $47 #
cone-surface $-1 -60.630024129323147 15.75802399993561 2.9076401920110762 0.82903758062907751 0 -0.55919289150049634 0.41939466862537222 0 0.62177818547180808 1 I I -0.70710678118654757 0.70710678118654757 0.75 forward I I I I #
loop $-1 $-1 $123 $32 #
coedge $-1 $77 $77 $124 $125 reversed $48 $-1 #
face $-1 $-1 $126 $26 $-1 $127 forward single #
loop $-1 $128 $129 $50 #
cone-surface $-1 -60.630024129323147 20.937114787530106 2.9076401920110762 0.82903758062907751 0 -0.55919289150049634 0.41939466862537222 0 0.62177818547180808 1 I I -0.70710678118654757 0.70710678118654757 0.75 forward I I I I #
loop $-1 $-1 $130 $33 #
coedge $-1 $82 $82 $131 $132 reversed $51 $-1 #
face $-1 $-1 $133 $27 $-1 $134 forward single #
loop $-1 $135 $136 $53 #
cone-surface $-1 -60.630024129323147 26.116205575124596 2.9076401920110762 0.82903758062907751 0 -0.55919289150049634 0.41939466862537222 0 0.62177818547180808 1 I I -0.70710678118654757 0.70710678118654757 0.75 forward I I I I #
loop $-1 $-1 $137 $34 #
coedge $-1 $87 $87 $138 $139 reversed $54 $-1 #
face $-1 $140 $141 $21 $-1 $142 reversed single #
loop $-1 $-1 $143 $56 #
plane-surface $-1 0 -34.27310266325533 0 0 1 0 0 0 1 forward_v I I I I #
coedge $-1 $144 $145 $146 $147 forward $57 $-1 #
coedge $-1 $148 $59 $149 $150 forward $36 $-1 #
coedge $-1 $59 $148 $151 $152 forward $36 $-1 #
coedge $-1 $153 $154 $59 $95 reversed $155 $-1 #
edge $-1 $156 -34.27310266325533 $157 34.27310266325533 $94 $158 forward 7 unknown #
face $-1 $159 $160 $22 $-1 $161 forward single #
loop $-1 $-1 $162 $60 #
plane-surface $-1 110.52866616960183 -9.1118777227757715 189.65003501272605 0 1 0 0.84804810408105047 0 0.52991925155115449 forward_v I I I I #
coedge $-1 $163 $164 $165 $166 reversed $61 $-1 #
coedge $-1 $101 $63 $167 $168 reversed $39 $-1 #
coedge $-1 $63 $100 $163 $169 reversed $39 $-1 #
coedge $-1 $165 $170 $63 $103 forward $160 $-1 #
edge $-1 $171 -12.285335789371267 $172 -8.3425491273101002 $102 $173 forward 7 unknown #
loop $-1 $-1 $109 $64 #
plane-surface $-1 -4.042071070487097 -4.8226931135283237 118.05829506806677 0.84804810408105047 0 0.52991925155115449 0.52991925155115449 0 -0.84804810408105047 forward_v I I I I #
loop $-1 $-1 $174 $41 #
coedge $-1 $107 $107 $108 $175 reversed $65 $-1 #
coedge $-1 $108 $108 $107 $175 forward $67 $-1 #
coedge $-1 $109 $109 $68 $110 forward $104 $-1 #
edge $-1 $176 0 $176 6.2831853071796004 $109 $177 forward 7 unknown #
face $-1 $178 $179 $24 $-1 $180 reversed single #
loop $-1 $-1 $181 $69 #
plane-surface $-1 -179.55209698565022 29.568932766854253 77.189135287338374 0 -1 0 0.82903758062907751 0 -0.55919289150049634 forward_v I I I I #
coedge $-1 $182 $183 $184 $185 reversed $70 $-1 #
coedge $-1 $116 $72 $186 $187 reversed $45 $-1 #
coedge $-1 $72 $115 $182 $188 reversed $45 $-1 #
coedge $-1 $184 $189 $72 $118 forward $190 $-1 #
edge $-1 $191 22.226379618652928 $192 27.726854554292196 $117 $193 forward 7 unknown #
loop $-1 $-1 $124 $73 #
plane-surface $-1 -67.549668874172198 20.937114787530099 1.6425459720395281 -0.82903758062907751 0 0.55919289150049634 0.55919289150049634 0 0.82903758062907751 forward_v I I I I #
loop $-1 $-1 $194 $47 #
coedge $-1 $122 $122 $123 $195 reversed $74 $-1 #
coedge $-1 $123 $123 $122 $195 forward $76 $-1 #
coedge $-1 $124 $124 $77 $125 forward $119 $-1 #
edge $-1 $196 0 $196 6.2831853071796004 $124 $197 forward 7 unknown #
loop $-1 $-1 $131 $78 #
plane-surface $-1 -67.549668874172198 20.937114787530099 1.6425459720395281 -0.82903758062907751 0 0.55919289150049634 0.55919289150049634 0 0.82903758062907751 forward_v I I I I #
loop $-1 $-1 $198 $50 #
coedge $-1 $129 $129 $130 $199 reversed $79 $-1 #
coedge $-1 $130 $130 $129 $199 forward $81 $-1 #
coedge $-1 $131 $131 $82 $132 forward $126 $-1 #
edge $-1 $200 0 $200 6.2831853071796004 $131 $201 forward 7 unknown #
loop $-1 $-1 $138 $83 #
plane-surface $-1 -67.549668874172198 20.937114787530099 1.6425459720395281 -0.82903758062907751 0 0.55919289150049634 0.55919289150049634 0 0.82903758062907751 forward_v I I I I #
loop $-1 $-1 $202 $53 #
coedge $-1 $136 $136 $137 $203 reversed $84 $-1 #
coedge $-1 $137 $137 $136 $203 forward $86 $-1 #
coedge $-1 $138 $138 $87 $139 forward $133 $-1 #
edge $-1 $204 0 $204 6.2831853071796004 $138 $205 forward 7 unknown #
face $-1 $206 $207 $21 $-1 $208 reversed single #
loop $-1 $-1 $209 $88 #
plane-surface $-1 -67.549668874172184 0 0 1 0 0 0 0 -1 forward_v I I I I #
coedge $-1 $210 $151 $211 $212 forward $89 $-1 #
coedge $-1 $213 $91 $210 $214 forward $57 $-1 #
coedge $-1 $91 $213 $215 $216 forward $57 $-1 #
coedge $-1 $154 $153 $91 $147 reversed $155 $-1 #
edge $-1 $217 -34.27310266325533 $218 34.27310266325533 $146 $219 forward 7 unknown #
coedge $-1 $93 $92 $220 $221 forward $36 $-1 #
coedge $-1 $222 $223 $92 $150 reversed $207 $-1 #
edge $-1 $157 -67.549668874172184 $224 67.549668874172184 $149 $225 forward 7 unknown #
coedge $-1 $143 $226 $93 $152 reversed $89 $-1 #
edge $-1 $227 -67.549668874172184 $156 67.549668874172184 $151 $228 forward 7 unknown #
coedge $-1 $146 $94 $226 $229 forward $155 $-1 #
coedge $-1 $94 $146 $222 $230 reversed $155 $-1 #
loop $-1 $-1 $153 $206 #
vertex $-1 $95 $231 #
vertex $-1 $95 $232 #
straight-curve $-1 67.549668874172184 0 9.7973356738847031 0 1 0 I I #
face $-1 $-1 $233 $22 $-1 $234 reversed single #
loop $-1 $-1 $102 $96 #
plane-surface $-1 0 0 9.7973356738847031 0 0 1 1 0 0 forward_v I I I I #
coedge $-1 $235 $236 $237 $238 reversed $97 $-1 #
coedge $-1 $239 $99 $101 $169 forward $61 $-1 #
coedge $-1 $99 $239 $235 $240 forward $61 $-1 #
coedge $-1 $237 $102 $99 $166 forward $160 $-1 #
edge $-1 $172 -1.8778380524832858 $241 6.7005311660116096 $165 $242 forward 7 unknown #
coedge $-1 $243 $244 $100 $168 forward $233 $-1 #
edge $-1 $245 -91.337459678385187 $171 -85.027681832478322 $167 $246 forward 7 unknown #
edge $-1 $172 127.65898405196511 $245 135.09933774834437 $101 $247 forward 7 unknown #
coedge $-1 $102 $237 $243 $248 forward $160 $-1 #
vertex $-1 $168 $249 #
vertex $-1 $103 $250 #
straight-curve $-1 55.264333084800917 -0.53350850428087604 9.7973356738847031 -1 0 0 I I #
coedge $-1 $174 $174 $-1 $251 reversed $106 $-1 #
edge $-1 $252 0 $252 6.2831853071796004 $107 $253 forward 7 unknown #
vertex $-1 $110 $254 #
ellipse-curve $-1 65.578275543141615 -4.8226931135283202 6.6424467509312555 0.84804810408105047 0 0.52991925155115449 0.79487887732673168 0 -1.2720721561215758 1 I I #
face $-1 $-1 $190 $24 $-1 $255 forward single #
loop $-1 $-1 $256 $111 #
plane-surface $-1 -67.549668874172184 0 0 1 0 0 0 0 -1 forward_v I I I I #
coedge $-1 $257 $258 $259 $260 reversed $112 $-1 #
coedge $-1 $261 $114 $116 $188 forward $70 $-1 #
coedge $-1 $114 $261 $257 $262 forward $70 $-1 #
coedge $-1 $259 $117 $114 $185 forward $190 $-1 #
edge $-1 $192 1.8367394144408955 $263 19.100375373089204 $184 $264 forward 7 unknown #
coedge $-1 $265 $266 $115 $187 forward $179 $-1 #
edge $-1 $267 -36.952021671629637 $191 -28.797231969784484 $186 $268 forward 7 unknown #
edge $-1 $192 -9.8364536088427776 $267 -2.5434524534472062e-014 $116 $269 forward 7 unknown #
coedge $-1 $117 $259 $265 $270 forward $190 $-1 #
loop $-1 $-1 $259 $178 #
vertex $-1 $187 $271 #
vertex $-1 $118 $272 #
straight-curve $-1 -89.776048492825112 12.305296808205945 9.7973356738847031 1 0 0 I I #
coedge $-1 $194 $194 $-1 $273 reversed $121 $-1 #
edge $-1 $274 0 $274 6.2831853071796004 $122 $275 forward 7 unknown #
vertex $-1 $125 $276 #
ellipse-curve $-1 -64.799431406352554 15.75802399993561 5.7199408229621209 -0.82903758062907751 0 0.55919289150049634 0.83878933725074445 0 1.2435563709436162 1 I I #
coedge $-1 $198 $198 $-1 $277 reversed $128 $-1 #
edge $-1 $278 0 $278 6.2831853071796004 $129 $279 forward 7 unknown #
vertex $-1 $132 $280 #
ellipse-curve $-1 -64.799431406352554 20.937114787530106 5.7199408229621209 -0.82903758062907751 0 0.55919289150049634 0.83878933725074445 0 1.2435563709436162 1 I I #
coedge $-1 $202 $202 $-1 $281 reversed $135 $-1 #
edge $-1 $282 0 $282 6.2831853071796004 $136 $283 forward 7 unknown #
vertex $-1 $139 $284 #
ellipse-curve $-1 -64.799431406352554 26.116205575124596 5.7199408229621209 -0.82903758062907751 0 0.55919289150049634 0.83878933725074445 0 1.2435563709436162 1 I I #
face $-1 $-1 $155 $21 $-1 $285 reversed single #
loop $-1 $-1 $222 $140 #
plane-surface $-1 0 34.27310266325533 0 0 -1 0 0 0 -1 forward_v I I I I #
coedge $-1 $286 $220 $223 $287 forward $141 $-1 #
coedge $-1 $226 $143 $144 $214 reversed $89 $-1 #
coedge $-1 $220 $286 $143 $212 reversed $141 $-1 #
edge $-1 $227 -9.7973356738847031 $288 9.7973356738847031 $211 $289 forward 7 unknown #
coedge $-1 $145 $144 $286 $290 forward $57 $-1 #
edge $-1 $218 -67.549668874172184 $288 67.549668874172184 $210 $291 forward 7 unknown #
coedge $-1 $223 $222 $145 $216 reversed $207 $-1 #
edge $-1 $292 -67.549668874172184 $217 67.549668874172184 $215 $293 forward 7 unknown #
vertex $-1 $147 $294 #
vertex $-1 $229 $295 #
straight-curve $-1 67.549668874172184 0 -9.7973356738847031 0 -1 0 I I #
coedge $-1 $209 $211 $148 $221 reversed $141 $-1 #
edge $-1 $224 -34.27310266325533 $227 34.27310266325533 $220 $296 forward 7 unknown #
coedge $-1 $215 $149 $154 $230 forward $207 $-1 #
coedge $-1 $149 $215 $209 $287 reversed $207 $-1 #
vertex $-1 $150 $297 #
straight-curve $-1 0 34.27310266325533 9.7973356738847031 -1 0 0 I I #
coedge $-1 $151 $210 $153 $229 reversed $89 $-1 #
vertex $-1 $221 $298 #
straight-curve $-1 0 -34.27310266325533 9.7973356738847031 1 0 0 I I #
edge $-1 $156 -9.7973356738847031 $218 9.7973356738847031 $153 $299 forward 7 unknown #
edge $-1 $157 -9.7973356738847031 $217 9.7973356738847031 $154 $300 forward 7 unknown #
point $-1 67.549668874172184 -34.27310266325533 9.7973356738847031 #
point $-1 67.549668874172184 34.27310266325533 9.7973356738847031 #
loop $-1 $-1 $167 $159 #
plane-surface $-1 67.549668874172184 0 0 -1 0 0 0 0 1 forward_v I I I I #
coedge $-1 $236 $162 $164 $240 reversed $97 $-1 #
coedge $-1 $162 $235 $301 $302 reversed $97 $-1 #
coedge $-1 $170 $165 $162 $238 forward $160 $-1 #
edge $-1 $241 8.3425491273101002 $303 12.285335789371267 $237 $304 forward 7 unknown #
coedge $-1 $164 $163 $244 $305 reversed $61 $-1 #
edge $-1 $306 -135.09933774834437 $241 -127.65898405196511 $235 $307 forward 7 unknown #
vertex $-1 $166 $308 #
straight-curve $-1 63.606882212111017 -2.4113465567641619 9.7973356738847031 0 -1 0 I I #
coedge $-1 $301 $167 $170 $248 reversed $233 $-1 #
coedge $-1 $167 $301 $239 $305 forward $233 $-1 #
vertex $-1 $168 $309 #
straight-curve $-1 67.549668874172184 -0.53350850428087604 94.825017506363025 0 0 1 I I #
straight-curve $-1 -4.042071070487097 -0.53350850428087604 118.05829506806677 0.52991925155115449 0 -0.84804810408105047 I I #
edge $-1 $303 -9.1118777227757715 $171 -0.53350850428087604 $243 $310 forward 7 unknown #
point $-1 67.549668874172184 -0.53350850428087604 9.7973356738847031 #
point $-1 63.606882212111017 -0.53350850428087604 9.7973356738847031 #
edge $-1 $311 1 $311 0 $174 $-1 forward 7 unknown #
vertex $-1 $175 $312 #
ellipse-curve $-1 64.305038734635517 -4.8226931135283202 5.8468401180480321 0.84804810408105047 0 0.52991925155115449 0.79487887732673168 0 -1.2720721561215758 1 I I #
point $-1 66.373154420468353 -4.8226931135283202 5.3703745948096877 #
plane-surface $-1 0 0 9.7973356738847031 0 0 1 1 0 0 forward_v I I I I #
coedge $-1 $266 $265 $258 $313 forward $179 $-1 #
coedge $-1 $258 $181 $183 $262 reversed $112 $-1 #
coedge $-1 $181 $257 $256 $313 reversed $112 $-1 #
coedge $-1 $189 $184 $181 $260 forward $190 $-1 #
edge $-1 $263 -27.726854554292196 $314 -22.226379618652928 $259 $315 forward 7 unknown #
coedge $-1 $183 $182 $266 $316 reversed $70 $-1 #
edge $-1 $317 2.5434524534472062e-014 $263 9.8364536088427776 $257 $318 forward 7 unknown #
vertex $-1 $185 $319 #
straight-curve $-1 -62.049193938532916 10.46855739376505 9.7973356738847031 0 1 0 I I #
coedge $-1 $256 $186 $189 $270 reversed $179 $-1 #
coedge $-1 $186 $256 $261 $316 forward $179 $-1 #
vertex $-1 $187 $320 #
straight-curve $-1 -67.549668874172184 12.305296808205945 38.594567643669187 0 0 1 I I #
straight-curve $-1 -67.549668874172198 12.305296808205945 1.6425459720395281 -0.55919289150049634 0 -0.82903758062907751 I I #
edge $-1 $314 -29.568932766854253 $191 -12.305296808205945 $265 $321 forward 7 unknown #
point $-1 -67.549668874172184 12.305296808205945 9.7973356738847031 #
point $-1 -62.049193938532916 12.305296808205945 9.7973356738847031 #
edge $-1 $322 1 $322 0 $194 $-1 forward 7 unknown #
vertex $-1 $195 $323 #
ellipse-curve $-1 -61.251802314794958 15.75802399993561 3.3270348606364486 -0.82903758062907751 0 0.55919289150049634 0.83878933725074445 0 1.2435563709436162 1 I I #
point $-1 -63.960642069101795 15.75802399993561 6.96349719390573 #
edge $-1 $324 1 $324 0 $198 $-1 forward 7 unknown #
vertex $-1 $199 $325 #
ellipse-curve $-1 -61.251802314794958 20.937114787530106 3.3270348606364486 -0.82903758062907751 0 0.55919289150049634 0.83878933725074445 0 1.2435563709436162 1 I I #
point $-1 -63.960642069101795 20.937114787530106 6.96349719390573 #
edge $-1 $326 1 $326 0 $202 $-1 forward 7 unknown #
vertex $-1 $203 $327 #
ellipse-curve $-1 -61.251802314794958 26.116205575124596 3.3270348606364486 -0.82903758062907751 0 0.55919289150049634 0.83878933725074445 0 1.2435563709436162 1 I I #
point $-1 -63.960642069101795 26.116205575124596 6.96349719390573 #
plane-surface $-1 67.549668874172184 0 0 -1 0 0 0 0 1 forward_v I I I I #
coedge $-1 $211 $209 $213 $290 reversed $141 $-1 #
edge $-1 $224 -9.7973356738847031 $292 9.7973356738847031 $223 $328 forward 7 unknown #
vertex $-1 $290 $329 #
straight-curve $-1 -67.549668874172184 -34.27310266325533 0 0 0 -1 I I #
edge $-1 $288 -34.27310266325533 $292 34.27310266325533 $286 $330 forward 7 unknown #
straight-curve $-1 0 -34.27310266325533 -9.7973356738847031 -1 0 0 I I #
vertex $-1 $216 $331 #
straight-curve $-1 0 34.27310266325533 -9.7973356738847031 1 0 0 I I #
point $-1 67.549668874172184 34.27310266325533 -9.7973356738847031 #
point $-1 67.549668874172184 -34.27310266325533 -9.7973356738847031 #
straight-curve $-1 -67.549668874172184 0 9.7973356738847031 0 -1 0 I I #
point $-1 -67.549668874172184 34.27310266325533 9.7973356738847031 #
point $-1 -67.549668874172184 -34.27310266325533 9.7973356738847031 #
straight-curve $-1 67.549668874172184 -34.27310266325533 0 0 0 -1 I I #
straight-curve $-1 67.549668874172184 34.27310266325533 0 0 0 -1 I I #
coedge $-1 $244 $243 $236 $302 forward $233 $-1 #
edge $-1 $303 85.027681832478322 $306 91.337459678385187 $301 $332 forward 7 unknown #
vertex $-1 $248 $333 #
straight-curve $-1 55.264333084800917 -9.1118777227757715 9.7973356738847031 1 0 0 I I #
edge $-1 $306 -6.7005311660116096 $245 1.8778380524832858 $244 $334 forward 7 unknown #
vertex $-1 $305 $335 #
straight-curve $-1 -4.042071070487097 -9.1118777227757715 118.05829506806677 -0.52991925155115449 0 0.84804810408105047 I I #
point $-1 63.606882212111017 -9.1118777227757715 9.7973356738847031 #
point $-1 67.549668874172184 -0.53350850428087604 3.4875578279778381 #
straight-curve $-1 67.549668874172184 0 9.7973356738847031 0 1 0 I I #
vertex $-1 $251 $336 #
point $-1 65.099917611962255 -4.8226931135283202 4.5747679619264563 #
edge $-1 $314 28.797231969784484 $317 36.952021671629637 $256 $337 forward 7 unknown #
vertex $-1 $270 $338 #
straight-curve $-1 -89.776048492825112 29.568932766854253 9.7973356738847031 -1 0 0 I I #
edge $-1 $317 -19.100375373089204 $267 -1.8367394144408955 $266 $339 forward 7 unknown #
vertex $-1 $316 $340 #
straight-curve $-1 -67.549668874172198 29.568932766854253 1.6425459720395281 0.55919289150049634 0 0.82903758062907751 I I #
point $-1 -62.049193938532916 29.568932766854253 9.7973356738847031 #
point $-1 -67.549668874172184 12.305296808205945 1.6425459720395492 #
straight-curve $-1 -67.549668874172184 0 9.7973356738847031 0 -1 0 I I #
vertex $-1 $273 $341 #
point $-1 -60.413012977544213 15.75802399993561 4.5705912315800648 #
vertex $-1 $277 $342 #
point $-1 -60.413012977544213 20.937114787530106 4.5705912315800648 #
vertex $-1 $281 $343 #
point $-1 -60.413012977544213 26.116205575124596 4.5705912315800648 #
straight-curve $-1 -67.549668874172184 34.27310266325533 0 0 0 -1 I I #
point $-1 -67.549668874172184 -34.27310266325533 -9.7973356738847031 #
straight-curve $-1 -67.549668874172184 0 -9.7973356738847031 0 1 0 I I #
point $-1 -67.549668874172184 34.27310266325533 -9.7973356738847031 #
straight-curve $-1 67.549668874172184 -9.1118777227757715 94.825017506363025 0 0 -1 I I #
point $-1 67.549668874172184 -9.1118777227757715 9.7973356738847031 #
straight-curve $-1 67.54966887417217 -2.4113465567641619 3.4875578279778381 0 1 0 I I #
point $-1 67.549668874172184 -9.1118777227757715 3.4875578279778381 #
point $-1 63.032966578513943 -4.8226931135283202 5.051961240721301 #
straight-curve $-1 -67.549668874172184 29.568932766854253 38.594567643669187 0 0 -1 I I #
point $-1 -67.549668874172184 29.568932766854253 9.7973356738847031 #
straight-curve $-1 -67.549668874172184 10.46855739376505 1.6425459720395541 0 -1 0 I I #
point $-1 -67.549668874172184 29.568932766854253 1.6425459720395492 #
point $-1 -60.008245943851335 15.75802399993561 2.4882455233857037 #
point $-1 -60.008245943851335 20.937114787530106 2.4882455233857037 #
point $-1 -60.008245943851335 26.116205575124596 2.4882455233857037 #
End-of-ACIS-data 