500 0 2 0           
7 Unknown 11 ACIS 5.0 NT 24 Thu Mar 25 23:15:49 1999 
-1 9.9999999999999995e-007 1e-010 
body $-1 $2 $-1 $3 #
body $-1 $4 $-1 $5 #
lump $-1 $-1 $6 $0 #
transform $-1 1 0 0 0 1 0 0 0 1 49.957579271828365 30.747687870380084 13.681674815751082 1 rotate no_reflect no_shear #
lump $-1 $-1 $7 $1 #
transform $-1 1 0 0 0 1 0 0 0 1 49.957579271828365 30.747687870380084 13.681674815751082 1 rotate no_reflect no_shear #
shell $-1 $-1 $-1 $8 $-1 $2 #
shell $-1 $-1 $-1 $9 $-1 $4 #
face $-1 $10 $11 $6 $-1 $12 forward single #
face $-1 $13 $14 $7 $-1 $15 forward single #
face $-1 $16 $17 $6 $-1 $18 reversed single #
loop $-1 $-1 $19 $8 #
plane-surface $-1 0 0 13.681674815751082 0 0 1 1 0 0 forward_v I I I I #
face $-1 $20 $21 $7 $-1 $22 reversed single #
loop $-1 $-1 $23 $9 #
plane-surface $-1 -49.957579271828365 0 0 1 0 0 0 0 -1 forward_v I I I I #
face $-1 $24 $25 $6 $-1 $26 reversed single #
loop $-1 $-1 $27 $10 #
plane-surface $-1 0 0 -13.681674815751082 0 0 1 1 0 0 forward_v I I I I #
coedge $-1 $28 $29 $30 $31 forward $11 $-1 #
face $-1 $32 $33 $7 $-1 $34 forward single #
loop $-1 $-1 $35 $13 #
plane-surface $-1 0 30.747687870380084 0 0 -1 0 0 0 -1 forward_v I I I I #
coedge $-1 $36 $37 $38 $39 forward $14 $-1 #
face $-1 $40 $41 $6 $-1 $42 reversed single #
loop $-1 $-1 $43 $16 #
plane-surface $-1 0 -30.747687870380084 0 0 1 0 0 0 1 forward_v I I I I #
coedge $-1 $44 $45 $46 $47 forward $17 $-1 #
coedge $-1 $48 $19 $49 $50 forward $11 $-1 #
coedge $-1 $19 $48 $51 $52 forward $11 $-1 #
coedge $-1 $53 $54 $19 $31 reversed $55 $-1 #
edge $-1 $56 -30.747687870380084 $57 30.747687870380084 $30 $58 forward 7 unknown #
face $-1 $59 $60 $7 $-1 $61 reversed single #
loop $-1 $-1 $38 $20 #
plane-surface $-1 -56.263659314976323 0 -6.0103510766072841 0 0 1 1 0 0 forward_v I I I I #
coedge $-1 $62 $63 $37 $64 forward $21 $-1 #
coedge $-1 $65 $23 $66 $67 reversed $14 $-1 #
coedge $-1 $23 $65 $35 $64 reversed $14 $-1 #
coedge $-1 $68 $69 $23 $39 reversed $33 $-1 #
edge $-1 $70 -30.747687870380084 $71 30.747687870380084 $38 $72 forward 7 unknown #
face $-1 $73 $74 $6 $-1 $75 reversed single #
loop $-1 $-1 $76 $24 #
plane-surface $-1 -49.957579271828365 0 0 1 0 0 0 0 -1 forward_v I I I I #
coedge $-1 $77 $51 $78 $79 forward $25 $-1 #
coedge $-1 $80 $27 $77 $81 forward $17 $-1 #
coedge $-1 $27 $80 $82 $83 forward $17 $-1 #
coedge $-1 $54 $53 $27 $47 reversed $55 $-1 #
edge $-1 $84 -30.747687870380084 $85 30.747687870380084 $46 $86 forward 7 unknown #
coedge $-1 $29 $28 $87 $88 forward $11 $-1 #
coedge $-1 $89 $90 $28 $50 reversed $74 $-1 #
edge $-1 $57 -49.957579271828365 $91 49.957579271828365 $49 $92 forward 7 unknown #
coedge $-1 $43 $93 $29 $52 reversed $25 $-1 #
edge $-1 $94 -49.957579271828365 $56 49.957579271828365 $51 $95 forward 7 unknown #
coedge $-1 $46 $30 $93 $96 forward $55 $-1 #
coedge $-1 $30 $46 $89 $97 reversed $55 $-1 #
loop $-1 $-1 $53 $73 #
vertex $-1 $31 $98 #
vertex $-1 $31 $99 #
straight-curve $-1 49.957579271828365 0 13.681674815751082 0 1 0 I I #
face $-1 $100 $101 $7 $-1 $102 reversed single #
loop $-1 $-1 $103 $32 #
plane-surface $-1 -56.263659314976323 0 -13.181674815751082 0 0 1 1 0 0 forward_v I I I I #
coedge $-1 $104 $35 $105 $106 reversed $21 $-1 #
coedge $-1 $35 $104 $68 $107 reversed $21 $-1 #
edge $-1 $70 6.0103510766072841 $108 13.181674815751082 $35 $109 forward 7 unknown #
coedge $-1 $37 $36 $103 $110 forward $14 $-1 #
coedge $-1 $111 $112 $36 $67 forward $113 $-1 #
edge $-1 $114 -13.181674815751082 $71 -6.0103510766072841 $66 $115 forward 7 unknown #
coedge $-1 $116 $38 $63 $107 forward $33 $-1 #
coedge $-1 $38 $116 $111 $117 forward $33 $-1 #
vertex $-1 $64 $118 #
vertex $-1 $117 $119 #
straight-curve $-1 -49.957579271828365 0 -6.0103510766072841 0 -1 0 I I #
face $-1 $-1 $55 $6 $-1 $120 reversed single #
loop $-1 $-1 $89 $40 #
plane-surface $-1 0 30.747687870380084 0 0 -1 0 0 0 -1 forward_v I I I I #
coedge $-1 $121 $87 $90 $122 forward $41 $-1 #
coedge $-1 $93 $43 $44 $81 reversed $25 $-1 #
coedge $-1 $87 $121 $43 $79 reversed $41 $-1 #
edge $-1 $94 -13.681674815751082 $123 13.681674815751082 $78 $124 forward 7 unknown #
coedge $-1 $45 $44 $121 $125 forward $17 $-1 #
edge $-1 $85 -49.957579271828365 $123 49.957579271828365 $77 $126 forward 7 unknown #
coedge $-1 $90 $89 $45 $83 reversed $74 $-1 #
edge $-1 $127 -49.957579271828365 $84 49.957579271828365 $82 $128 forward 7 unknown #
vertex $-1 $47 $129 #
vertex $-1 $96 $130 #
straight-curve $-1 49.957579271828365 0 -13.681674815751082 0 -1 0 I I #
coedge $-1 $76 $78 $48 $88 reversed $41 $-1 #
edge $-1 $91 -30.747687870380084 $94 30.747687870380084 $87 $131 forward 7 unknown #
coedge $-1 $82 $49 $54 $97 forward $74 $-1 #
coedge $-1 $49 $82 $76 $122 reversed $74 $-1 #
vertex $-1 $50 $132 #
straight-curve $-1 0 30.747687870380084 13.681674815751082 -1 0 0 I I #
coedge $-1 $51 $77 $53 $96 reversed $25 $-1 #
vertex $-1 $88 $133 #
straight-curve $-1 0 -30.747687870380084 13.681674815751082 1 0 0 I I #
edge $-1 $56 -13.681674815751082 $85 13.681674815751082 $53 $134 forward 7 unknown #
edge $-1 $57 -13.681674815751082 $84 13.681674815751082 $54 $135 forward 7 unknown #
point $-1 49.957579271828365 -30.747687870380084 13.681674815751082 #
point $-1 49.957579271828365 30.747687870380084 13.681674815751082 #
face $-1 $-1 $113 $7 $-1 $136 reversed single #
loop $-1 $-1 $137 $59 #
plane-surface $-1 -62.569739358124281 0 -9.596012946179183 1 0 0 0 0 -1 forward_v I I I I #
coedge $-1 $138 $105 $65 $110 reversed $60 $-1 #
coedge $-1 $63 $62 $137 $139 reversed $21 $-1 #
coedge $-1 $103 $140 $62 $106 forward $60 $-1 #
edge $-1 $141 -6.3060800431479578 $108 6.3060800431479578 $62 $142 forward 7 unknown #
edge $-1 $70 -6.3060800431479578 $143 6.3060800431479578 $63 $144 forward 7 unknown #
vertex $-1 $64 $145 #
straight-curve $-1 -49.957579271828365 30.747687870380084 0 0 0 -1 I I #
edge $-1 $114 -30.747687870380084 $108 30.747687870380084 $103 $146 forward 7 unknown #
coedge $-1 $147 $66 $69 $117 reversed $113 $-1 #
coedge $-1 $66 $147 $138 $148 reversed $113 $-1 #
loop $-1 $-1 $66 $100 #
vertex $-1 $67 $149 #
straight-curve $-1 -49.957579271828365 -30.747687870380084 0 0 0 1 I I #
coedge $-1 $69 $68 $150 $151 forward $33 $-1 #
edge $-1 $152 -6.3060800431479578 $71 6.3060800431479578 $111 $153 forward 7 unknown #
point $-1 -49.957579271828365 30.747687870380084 -6.0103510766072841 #
point $-1 -49.957579271828365 -30.747687870380084 -6.0103510766072841 #
plane-surface $-1 49.957579271828365 0 0 -1 0 0 0 0 1 forward_v I I I I #
coedge $-1 $78 $76 $80 $125 reversed $41 $-1 #
edge $-1 $91 -13.681674815751082 $127 13.681674815751082 $90 $154 forward 7 unknown #
vertex $-1 $125 $155 #
straight-curve $-1 -49.957579271828365 -30.747687870380084 0 0 0 -1 I I #
edge $-1 $123 -30.747687870380084 $127 30.747687870380084 $121 $156 forward 7 unknown #
straight-curve $-1 0 -30.747687870380084 -13.681674815751082 -1 0 0 I I #
vertex $-1 $83 $157 #
straight-curve $-1 0 30.747687870380084 -13.681674815751082 1 0 0 I I #
point $-1 49.957579271828365 30.747687870380084 -13.681674815751082 #
point $-1 49.957579271828365 -30.747687870380084 -13.681674815751082 #
straight-curve $-1 -49.957579271828365 0 13.681674815751082 0 -1 0 I I #
point $-1 -49.957579271828365 30.747687870380084 13.681674815751082 #
point $-1 -49.957579271828365 -30.747687870380084 13.681674815751082 #
straight-curve $-1 49.957579271828365 -30.747687870380084 0 0 0 -1 I I #
straight-curve $-1 49.957579271828365 30.747687870380084 0 0 0 -1 I I #
plane-surface $-1 0 -30.747687870380084 0 0 1 0 0 0 1 forward_v I I I I #
coedge $-1 $158 $150 $104 $139 forward $101 $-1 #
coedge $-1 $140 $103 $112 $148 forward $60 $-1 #
edge $-1 $143 -3.5856618695718989 $141 3.5856618695718989 $104 $159 forward 7 unknown #
coedge $-1 $105 $138 $158 $160 forward $60 $-1 #
vertex $-1 $106 $161 #
straight-curve $-1 -56.263659314976323 30.747687870380084 -13.181674815751082 1 0 0 I I #
vertex $-1 $107 $162 #
straight-curve $-1 -56.263659314976323 30.747687870380084 -6.0103510766072841 -1 0 0 I I #
point $-1 -49.957579271828365 30.747687870380084 -13.181674815751082 #
straight-curve $-1 -49.957579271828365 0 -13.181674815751082 0 1 0 I I #
coedge $-1 $112 $111 $163 $164 forward $113 $-1 #
edge $-1 $114 -6.3060800431479578 $165 6.3060800431479578 $112 $166 forward 7 unknown #
point $-1 -49.957579271828365 -30.747687870380084 -13.181674815751082 #
coedge $-1 $137 $163 $116 $151 reversed $101 $-1 #
edge $-1 $143 -30.747687870380084 $152 30.747687870380084 $150 $167 forward 7 unknown #
vertex $-1 $151 $168 #
straight-curve $-1 -56.263659314976323 -30.747687870380084 -6.0103510766072841 1 0 0 I I #
straight-curve $-1 -49.957579271828365 30.747687870380084 0 0 0 -1 I I #
point $-1 -49.957579271828365 -30.747687870380084 -13.681674815751082 #
straight-curve $-1 -49.957579271828365 0 -13.681674815751082 0 1 0 I I #
point $-1 -49.957579271828365 30.747687870380084 -13.681674815751082 #
coedge $-1 $163 $137 $140 $160 reversed $101 $-1 #
straight-curve $-1 -62.569739358124281 30.747687870380084 -9.596012946179183 0 0 -1 I I #
edge $-1 $165 -30.747687870380084 $141 30.747687870380084 $158 $169 forward 7 unknown #
point $-1 -62.569739358124281 30.747687870380084 -13.181674815751082 #
point $-1 -62.569739358124281 30.747687870380084 -6.0103510766072841 #
coedge $-1 $150 $158 $147 $164 reversed $101 $-1 #
edge $-1 $152 -3.5856618695718989 $165 3.5856618695718989 $163 $170 forward 7 unknown #
vertex $-1 $160 $171 #
straight-curve $-1 -56.263659314976323 -30.747687870380084 -13.181674815751082 -1 0 0 I I #
straight-curve $-1 -62.569739358124281 0 -6.0103510766072841 0 -1 0 I I #
point $-1 -62.569739358124281 -30.747687870380084 -6.0103510766072841 #
straight-curve $-1 -62.569739358124281 0 -13.181674815751082 0 1 0 I I #
straight-curve $-1 -62.569739358124281 -30.747687870380084 -9.596012946179183 0 0 -1 I I #
point $-1 -62.569739358124281 -30.747687870380084 -13.181674815751082 #
End-of-ACIS-data 