500 0 11 0           
7 Unknown 11 ACIS 5.0 NT 24 Thu Mar 25 15:20:55 1999 
-1 9.9999999999999995e-007 1e-010 
body $-1 $11 $-1 $12 #
body $-1 $13 $-1 $14 #
body $-1 $15 $-1 $16 #
body $-1 $17 $-1 $18 #
body $-1 $19 $-1 $20 #
body $-1 $21 $-1 $22 #
body $-1 $23 $-1 $24 #
body $-1 $25 $-1 $26 #
body $-1 $27 $-1 $28 #
body $-1 $29 $-1 $30 #
body $-1 $31 $-1 $32 #
lump $-1 $-1 $33 $0 #
transform $-1 1 0 0 0 1 0 0 0 1 60.45106357005524 38.276018741436509 11.463414713555933 1 rotate no_reflect no_shear #
lump $-1 $-1 $34 $1 #
transform $-1 1 0 0 0 1 0 0 0 1 60.45106357005524 38.276018741436509 11.463414713555933 1 rotate no_reflect no_shear #
lump $-1 $-1 $35 $2 #
transform $-1 1 0 0 0 1 0 0 0 1 60.45106357005524 38.276018741436509 11.463414713555933 1 rotate no_reflect no_shear #
lump $-1 $-1 $36 $3 #
transform $-1 1 0 0 0 1 0 0 0 1 60.45106357005524 38.276018741436509 11.463414713555933 1 rotate no_reflect no_shear #
lump $-1 $-1 $37 $4 #
transform $-1 1 0 0 0 1 0 0 0 1 60.45106357005524 38.276018741436509 11.463414713555933 1 rotate no_reflect no_shear #
lump $-1 $-1 $38 $5 #
transform $-1 1 0 0 0 1 0 0 0 1 60.45106357005524 38.276018741436509 11.463414713555933 1 rotate no_reflect no_shear #
lump $-1 $-1 $39 $6 #
transform $-1 1 0 0 0 1 0 0 0 1 60.45106357005524 38.276018741436509 11.463414713555933 1 rotate no_reflect no_shear #
lump $-1 $-1 $40 $7 #
transform $-1 1 0 0 0 1 0 0 0 1 60.45106357005524 38.276018741436509 11.463414713555933 1 rotate no_reflect no_shear #
lump $-1 $-1 $41 $8 #
transform $-1 1 0 0 0 1 0 0 0 1 60.45106357005524 38.276018741436509 11.463414713555933 1 rotate no_reflect no_shear #
lump $-1 $-1 $42 $9 #
transform $-1 1 0 0 0 1 0 0 0 1 60.45106357005524 38.276018741436509 11.463414713555933 1 rotate no_reflect no_shear #
lump $-1 $-1 $43 $10 #
transform $-1 1 0 0 0 1 0 0 0 1 60.45106357005524 38.276018741436509 11.463414713555933 1 rotate no_reflect no_shear #
shell $-1 $-1 $-1 $44 $-1 $11 #
shell $-1 $-1 $-1 $45 $-1 $13 #
shell $-1 $-1 $-1 $46 $-1 $15 #
shell $-1 $-1 $-1 $47 $-1 $17 #
shell $-1 $-1 $-1 $48 $-1 $19 #
shell $-1 $-1 $-1 $49 $-1 $21 #
shell $-1 $-1 $-1 $50 $-1 $23 #
shell $-1 $-1 $-1 $51 $-1 $25 #
shell $-1 $-1 $-1 $52 $-1 $27 #
shell $-1 $-1 $-1 $53 $-1 $29 #
shell $-1 $-1 $-1 $54 $-1 $31 #
face $-1 $55 $56 $33 $-1 $57 forward single #
face $-1 $58 $59 $34 $-1 $60 forward single #
face $-1 $61 $62 $35 $-1 $63 forward single #
face $-1 $64 $65 $36 $-1 $66 reversed single #
face $-1 $67 $68 $37 $-1 $69 forward single #
face $-1 $70 $71 $38 $-1 $72 reversed single #
face $-1 $73 $74 $39 $-1 $75 forward single #
face $-1 $76 $77 $40 $-1 $78 forward single #
face $-1 $79 $80 $41 $-1 $81 reversed single #
face $-1 $82 $83 $42 $-1 $84 forward single #
face $-1 $85 $86 $43 $-1 $87 forward single #
face $-1 $88 $89 $33 $-1 $90 reversed single #
loop $-1 $-1 $91 $44 #
plane-surface $-1 0 0 11.463414713555933 0 0 1 1 0 0 forward_v I I I I #
face $-1 $92 $93 $34 $-1 $94 reversed single #
loop $-1 $-1 $95 $45 #
plane-surface $-1 0 -32.358088182899891 -7.9311562523941301 0 0 1 1 0 0 forward_v I I I I #
face $-1 $96 $97 $35 $-1 $98 reversed single #
loop $-1 $-1 $99 $46 #
plane-surface $-1 0 32.358088182899898 -7.9311562523941301 0 0 1 1 0 0 forward_v I I I I #
face $-1 $100 $101 $36 $-1 $102 reversed single #
loop $-1 $-1 $103 $47 #
plane-surface $-1 45.549051980205192 3.491624125891196 175.24529121326734 0 -1 0 -0.64278761758704617 0 -0.76604443648966558 forward_v I I I I #
face $-1 $104 $105 $37 $-1 $106 forward single #
loop $-1 $107 $108 $48 #
cone-surface $-1 54.268887392216854 -4.0889619224924516 5.4719620819489174 -0.64278761758704617 0 -0.76604443648966558 1.915111091224164 0 -1.6069690439676154 1 I I 0 1 2.5 forward I I I I #
face $-1 $109 $110 $38 $-1 $111 reversed single #
loop $-1 $-1 $112 $49 #
plane-surface $-1 -144.43673918087768 -9.1326597025295602 93.417166047584203 0 1 0 -0.69465837861970381 0 0.71933979245794832 forward_v I I I I #
face $-1 $113 $114 $39 $-1 $115 forward single #
loop $-1 $116 $117 $50 #
cone-surface $-1 -57.485498334671071 -6.5233283589496871 8.5738666666684047 0.69465837861970381 0 -0.71933979245794832 0.71933979245794832 0 0.69465837861970381 1 I I 0 1 1 forward I I I I #
face $-1 $118 $119 $40 $-1 $120 forward single #
loop $-1 $121 $122 $51 #
cone-surface $-1 -57.485498334671071 -2.6093313435798748 8.5738666666684047 0.69465837861970381 0 -0.71933979245794832 0.71933979245794832 0 0.69465837861970381 1 I I 0 1 1 forward I I I I #
face $-1 $123 $124 $41 $-1 $125 reversed single #
loop $-1 $-1 $126 $52 #
plane-surface $-1 -144.43673918087768 17.307497921833715 93.417166047584203 0 1 0 -0.69465837861970381 0 0.71933979245794832 forward_v I I I I #
face $-1 $127 $128 $42 $-1 $129 forward single #
loop $-1 $130 $131 $53 #
cone-surface $-1 -57.485498334671071 19.91682926541359 8.5738666666684047 0.69465837861970381 0 -0.71933979245794832 0.71933979245794832 0 0.69465837861970381 1 I I 0 1 1 forward I I I I #
face $-1 $132 $133 $43 $-1 $134 forward single #
loop $-1 $135 $136 $54 #
cone-surface $-1 -57.485498334671071 23.830826280783398 8.5738666666684047 0.69465837861970381 0 -0.71933979245794832 0.71933979245794832 0 0.69465837861970381 1 I I 0 1 1 forward I I I I #
face $-1 $137 $138 $33 $-1 $139 reversed single #
loop $-1 $-1 $140 $55 #
plane-surface $-1 0 0 -11.463414713555933 0 0 1 1 0 0 forward_v I I I I #
coedge $-1 $141 $142 $143 $144 forward $56 $-1 #
face $-1 $145 $146 $34 $-1 $147 reversed single #
loop $-1 $-1 $148 $58 #
plane-surface $-1 0 -26.440157624363273 -9.6972854829750315 0 -1 0 0 0 -1 forward_v I I I I #
coedge $-1 $149 $150 $151 $152 reversed $59 $-1 #
face $-1 $153 $154 $35 $-1 $155 reversed single #
loop $-1 $-1 $156 $61 #
plane-surface $-1 0 26.44015762436328 -9.6972854829750315 0 1 0 0 0 1 forward_v I I I I #
coedge $-1 $157 $158 $159 $160 reversed $62 $-1 #
face $-1 $161 $162 $36 $-1 $163 reversed single #
loop $-1 $-1 $164 $64 #
plane-surface $-1 -32.165338285392593 -4.0889619224924516 82.628889357819489 0.64278761758704617 0 0.76604443648966558 0.76604443648966558 0 -0.64278761758704617 forward_v I I I I #
coedge $-1 $165 $166 $167 $168 reversed $65 $-1 #
face $-1 $-1 $169 $37 $-1 $170 forward single #
loop $-1 $171 $172 $67 #
cone-surface $-1 51.185573470320861 -4.0889619224924516 1.7974117153969349 -0.64278761758704617 0 -0.76604443648966558 0.957555545612082 0 -0.80348452198380771 1 I I -0.70710678118654746 0.70710678118654746 1.25 forward I I I I #
loop $-1 $-1 $173 $48 #
coedge $-1 $108 $108 $174 $175 reversed $68 $-1 #
face $-1 $176 $177 $38 $-1 $178 reversed single #
loop $-1 $-1 $179 $70 #
plane-surface $-1 -60.45106357005524 -4.5663298512647756 6.4474550028926529 -0.69465837861970381 0 0.71933979245794832 0.71933979245794832 0 0.69465837861970381 forward_v I I I I #
coedge $-1 $180 $181 $182 $183 reversed $71 $-1 #
face $-1 $-1 $184 $39 $-1 $185 forward single #
loop $-1 $186 $187 $73 #
cone-surface $-1 -56.769693017586661 -6.5233283589496871 7.8326285788835488 0.69465837861970381 0 -0.71933979245794832 0.35966989622897416 0 0.3473291893098519 1 I I -0.70710678118654691 0.70710678118654813 0.5 forward I I I I #
loop $-1 $-1 $188 $50 #
coedge $-1 $117 $117 $189 $190 reversed $74 $-1 #
face $-1 $-1 $191 $40 $-1 $192 forward single #
loop $-1 $193 $194 $76 #
cone-surface $-1 -56.769693017586661 -2.6093313435798748 7.8326285788835488 0.69465837861970381 0 -0.71933979245794832 0.35966989622897416 0 0.3473291893098519 1 I I -0.70710678118654691 0.70710678118654813 0.5 forward I I I I #
loop $-1 $-1 $195 $51 #
coedge $-1 $122 $122 $196 $197 reversed $77 $-1 #
face $-1 $198 $199 $41 $-1 $200 reversed single #
loop $-1 $-1 $201 $79 #
plane-surface $-1 -60.45106357005524 21.873827773098498 6.4474550028926529 -0.69465837861970381 0 0.71933979245794832 0.71933979245794832 0 0.69465837861970381 forward_v I I I I #
coedge $-1 $202 $203 $204 $205 reversed $80 $-1 #
face $-1 $-1 $206 $42 $-1 $207 forward single #
loop $-1 $208 $209 $82 #
cone-surface $-1 -56.769693017586661 19.91682926541359 7.8326285788835488 0.69465837861970381 0 -0.71933979245794832 0.35966989622897416 0 0.3473291893098519 1 I I -0.70710678118654691 0.70710678118654813 0.5 forward I I I I #
loop $-1 $-1 $210 $53 #
coedge $-1 $131 $131 $211 $212 reversed $83 $-1 #
face $-1 $-1 $213 $43 $-1 $214 forward single #
loop $-1 $215 $216 $85 #
cone-surface $-1 -56.769693017586661 23.830826280783398 7.8326285788835488 0.69465837861970381 0 -0.71933979245794832 0.35966989622897416 0 0.3473291893098519 1 I I -0.70710678118654691 0.70710678118654813 0.5 forward I I I I #
loop $-1 $-1 $217 $54 #
coedge $-1 $136 $136 $218 $219 reversed $86 $-1 #
face $-1 $220 $221 $33 $-1 $222 reversed single #
loop $-1 $-1 $223 $88 #
plane-surface $-1 0 -38.276018741436509 0 0 1 0 0 0 1 forward_v I I I I #
coedge $-1 $224 $225 $226 $227 forward $89 $-1 #
coedge $-1 $228 $91 $229 $230 forward $56 $-1 #
coedge $-1 $91 $228 $231 $232 forward $56 $-1 #
coedge $-1 $233 $234 $91 $144 reversed $235 $-1 #
edge $-1 $236 -38.276018741436509 $237 38.276018741436509 $143 $238 forward 7 unknown #
face $-1 $239 $240 $34 $-1 $241 reversed single #
loop $-1 $-1 $242 $92 #
plane-surface $-1 0 0 -11.463414713555933 0 0 1 1 0 0 forward_v I I I I #
coedge $-1 $243 $244 $245 $246 reversed $93 $-1 #
coedge $-1 $247 $95 $244 $248 forward $59 $-1 #
coedge $-1 $95 $247 $249 $250 reversed $59 $-1 #
coedge $-1 $251 $245 $95 $152 forward $240 $-1 #
edge $-1 $252 10.261113532913328 $253 22.096974649986564 $151 $254 forward 7 unknown #
face $-1 $255 $256 $35 $-1 $257 reversed single #
loop $-1 $-1 $159 $96 #
plane-surface $-1 60.45106357005524 0 0 -1 0 0 0 0 1 forward_v I I I I #
coedge $-1 $258 $259 $260 $261 reversed $97 $-1 #
coedge $-1 $262 $99 $263 $264 reversed $62 $-1 #
coedge $-1 $99 $262 $259 $265 forward $62 $-1 #
coedge $-1 $266 $267 $99 $160 forward $154 $-1 #
edge $-1 $268 -22.096974649986567 $269 -10.261113532913331 $159 $270 forward 7 unknown #
face $-1 $271 $272 $36 $-1 $273 forward single #
loop $-1 $-1 $274 $100 #
plane-surface $-1 45.549051980205192 -11.669547970876099 175.24529121326734 0 1 0 0.64278761758704617 0 0.76604443648966558 forward_v I I I I #
coedge $-1 $275 $276 $277 $278 reversed $101 $-1 #
coedge $-1 $166 $103 $279 $280 reversed $65 $-1 #
coedge $-1 $103 $165 $275 $281 reversed $65 $-1 #
coedge $-1 $277 $282 $103 $168 forward $272 $-1 #
edge $-1 $283 -37.676537579952644 $284 -29.871844024100234 $167 $285 forward 7 unknown #
loop $-1 $-1 $174 $104 #
plane-surface $-1 -32.165338285392593 -4.0889619224924516 82.628889357819489 0.64278761758704617 0 0.76604443648966558 0.76604443648966558 0 -0.64278761758704617 forward_v I I I I #
loop $-1 $-1 $286 $67 #
coedge $-1 $172 $172 $173 $287 reversed $105 $-1 #
coedge $-1 $173 $173 $172 $287 forward $107 $-1 #
coedge $-1 $174 $174 $108 $175 forward $169 $-1 #
edge $-1 $288 0 $288 6.2831853071796004 $174 $289 forward 7 unknown #
face $-1 $290 $291 $38 $-1 $292 reversed single #
loop $-1 $-1 $293 $109 #
plane-surface $-1 -144.43673918087768 8.8817841970012523e-015 93.417166047584203 0 -1 0 0.69465837861970381 0 -0.71933979245794832 forward_v I I I I #
coedge $-1 $294 $295 $296 $297 reversed $110 $-1 #
coedge $-1 $181 $112 $298 $299 reversed $71 $-1 #
coedge $-1 $112 $180 $294 $300 reversed $71 $-1 #
coedge $-1 $296 $301 $112 $183 forward $302 $-1 #
edge $-1 $303 11.7673060203836 $304 16.961484235602796 $182 $305 forward 7 unknown #
loop $-1 $-1 $189 $113 #
plane-surface $-1 -60.45106357005524 -4.5663298512647756 6.4474550028926529 -0.69465837861970381 0 0.71933979245794832 0.71933979245794832 0 0.69465837861970381 forward_v I I I I #
loop $-1 $-1 $306 $73 #
coedge $-1 $187 $187 $188 $307 reversed $114 $-1 #
coedge $-1 $188 $188 $187 $307 forward $116 $-1 #
coedge $-1 $189 $189 $117 $190 forward $184 $-1 #
edge $-1 $308 0 $308 6.2831853071796004 $189 $309 forward 7 unknown #
loop $-1 $-1 $196 $118 #
plane-surface $-1 -60.45106357005524 -4.5663298512647756 6.4474550028926529 -0.69465837861970381 0 0.71933979245794832 0.71933979245794832 0 0.69465837861970381 forward_v I I I I #
loop $-1 $-1 $310 $76 #
coedge $-1 $194 $194 $195 $311 reversed $119 $-1 #
coedge $-1 $195 $195 $194 $311 forward $121 $-1 #
coedge $-1 $196 $196 $122 $197 forward $191 $-1 #
edge $-1 $312 0 $312 6.2831853071796004 $196 $313 forward 7 unknown #
face $-1 $314 $315 $41 $-1 $316 forward single #
loop $-1 $-1 $317 $123 #
plane-surface $-1 -144.43673918087768 26.44015762436328 93.417166047584203 0 -1 0 0.69465837861970381 0 -0.71933979245794832 forward_v I I I I #
coedge $-1 $318 $319 $320 $321 reversed $124 $-1 #
coedge $-1 $203 $126 $322 $323 reversed $80 $-1 #
coedge $-1 $126 $202 $318 $324 reversed $80 $-1 #
coedge $-1 $320 $325 $126 $205 forward $315 $-1 #
edge $-1 $326 11.7673060203836 $327 16.961484235602796 $204 $328 forward 7 unknown #
loop $-1 $-1 $211 $127 #
plane-surface $-1 -60.45106357005524 21.873827773098498 6.4474550028926529 -0.69465837861970381 0 0.71933979245794832 0.71933979245794832 0 0.69465837861970381 forward_v I I I I #
loop $-1 $-1 $329 $82 #
coedge $-1 $209 $209 $210 $330 reversed $128 $-1 #
coedge $-1 $210 $210 $209 $330 forward $130 $-1 #
coedge $-1 $211 $211 $131 $212 forward $206 $-1 #
edge $-1 $331 0 $331 6.2831853071796004 $211 $332 forward 7 unknown #
loop $-1 $-1 $218 $132 #
plane-surface $-1 -60.45106357005524 21.873827773098498 6.4474550028926529 -0.69465837861970381 0 0.71933979245794832 0.71933979245794832 0 0.69465837861970381 forward_v I I I I #
loop $-1 $-1 $333 $85 #
coedge $-1 $216 $216 $217 $334 reversed $133 $-1 #
coedge $-1 $217 $217 $216 $334 forward $135 $-1 #
coedge $-1 $218 $218 $136 $219 forward $213 $-1 #
edge $-1 $335 0 $335 6.2831853071796004 $218 $336 forward 7 unknown #
face $-1 $337 $338 $33 $-1 $339 reversed single #
loop $-1 $-1 $340 $137 #
plane-surface $-1 -60.45106357005524 0 0 1 0 0 0 0 -1 forward_v I I I I #
coedge $-1 $341 $231 $342 $343 forward $138 $-1 #
coedge $-1 $344 $140 $341 $345 forward $89 $-1 #
coedge $-1 $140 $344 $346 $347 forward $89 $-1 #
coedge $-1 $234 $233 $140 $227 reversed $235 $-1 #
edge $-1 $348 -38.276018741436509 $349 38.276018741436509 $226 $350 forward 7 unknown #
coedge $-1 $142 $141 $351 $352 forward $56 $-1 #
coedge $-1 $353 $354 $141 $230 reversed $338 $-1 #
edge $-1 $237 -60.45106357005524 $355 60.45106357005524 $229 $356 forward 7 unknown #
coedge $-1 $223 $357 $142 $232 reversed $138 $-1 #
edge $-1 $358 -60.45106357005524 $236 60.45106357005524 $231 $359 forward 7 unknown #
coedge $-1 $226 $143 $357 $360 forward $235 $-1 #
coedge $-1 $143 $226 $353 $361 reversed $235 $-1 #
loop $-1 $-1 $233 $337 #
vertex $-1 $144 $362 #
vertex $-1 $144 $363 #
straight-curve $-1 60.45106357005524 0 11.463414713555933 0 1 0 I I #
face $-1 $364 $365 $34 $-1 $366 reversed single #
loop $-1 $-1 $245 $145 #
plane-surface $-1 60.45106357005524 0 0 -1 0 0 0 0 1 forward_v I I I I #
coedge $-1 $367 $368 $243 $369 forward $146 $-1 #
coedge $-1 $370 $148 $242 $369 reversed $93 $-1 #
coedge $-1 $148 $370 $149 $248 reversed $93 $-1 #
coedge $-1 $151 $371 $148 $246 forward $240 $-1 #
edge $-1 $372 -6.614771972068417 $252 -3.0825135109066144 $245 $373 forward 7 unknown #
coedge $-1 $150 $149 $374 $375 reversed $59 $-1 #
edge $-1 $252 -60.45106357005524 $376 60.45106357005524 $244 $377 forward 7 unknown #
coedge $-1 $378 $379 $150 $250 forward $365 $-1 #
edge $-1 $253 -60.45106357005524 $380 60.45106357005524 $249 $381 forward 7 unknown #
coedge $-1 $371 $151 $379 $382 forward $240 $-1 #
vertex $-1 $152 $383 #
vertex $-1 $382 $384 #
straight-curve $-1 60.45106357005524 -16.179044091449946 -7.9311562523941301 0 -1 0 I I #
face $-1 $385 $386 $35 $-1 $387 reversed single #
loop $-1 $-1 $388 $153 #
plane-surface $-1 0 0 -11.463414713555933 0 0 1 1 0 0 forward_v I I I I #
coedge $-1 $389 $156 $388 $390 reversed $97 $-1 #
coedge $-1 $156 $389 $158 $265 reversed $97 $-1 #
coedge $-1 $391 $392 $156 $261 forward $386 $-1 #
edge $-1 $393 -6.614771972068417 $394 -3.0825135109066144 $260 $395 forward 7 unknown #
coedge $-1 $158 $157 $391 $396 reversed $62 $-1 #
coedge $-1 $397 $398 $157 $264 forward $399 $-1 #
edge $-1 $400 -60.45106357005524 $268 60.45106357005524 $263 $401 forward 7 unknown #
edge $-1 $394 -60.45106357005524 $269 60.45106357005524 $259 $402 forward 7 unknown #
coedge $-1 $403 $159 $389 $404 forward $154 $-1 #
coedge $-1 $159 $403 $397 $405 reversed $154 $-1 #
vertex $-1 $405 $406 #
vertex $-1 $160 $407 #
straight-curve $-1 60.45106357005524 16.179044091449949 -7.9311562523941301 0 -1 0 I I #
face $-1 $-1 $408 $36 $-1 $409 reversed single #
loop $-1 $-1 $167 $161 #
plane-surface $-1 0 0 11.463414713555933 0 0 1 1 0 0 forward_v I I I I #
coedge $-1 $410 $411 $412 $413 reversed $162 $-1 #
coedge $-1 $414 $164 $166 $281 forward $101 $-1 #
coedge $-1 $164 $414 $410 $415 forward $101 $-1 #
coedge $-1 $412 $167 $164 $278 forward $272 $-1 #
edge $-1 $284 -5.5361050871374218 $416 9.6250670096298734 $277 $417 forward 7 unknown #
coedge $-1 $418 $419 $165 $280 forward $408 $-1 #
edge $-1 $420 -82.708146514411951 $283 -76.159230893077734 $279 $421 forward 7 unknown #
edge $-1 $284 110.71382319312698 $420 120.90212714011048 $166 $422 forward 7 unknown #
coedge $-1 $167 $412 $418 $423 forward $272 $-1 #
vertex $-1 $280 $424 #
vertex $-1 $168 $425 #
straight-curve $-1 22.774525990102596 3.491624125891196 11.463414713555935 -1 0 0 I I #
coedge $-1 $286 $286 $-1 $426 reversed $171 $-1 #
edge $-1 $427 0 $427 6.2831853071796004 $172 $428 forward 7 unknown #
vertex $-1 $175 $429 #
ellipse-curve $-1 56.548716792129049 -4.0889619224924516 8.1889569028888278 0.64278761758704617 0 0.76604443648966558 1.915111091224164 0 -1.6069690439676154 1 I I #
face $-1 $-1 $302 $38 $-1 $430 forward single #
loop $-1 $-1 $431 $176 #
plane-surface $-1 -60.45106357005524 0 0 1 0 0 0 0 -1 forward_v I I I I #
coedge $-1 $432 $433 $434 $435 reversed $177 $-1 #
coedge $-1 $436 $179 $181 $300 forward $110 $-1 #
coedge $-1 $179 $436 $432 $437 forward $110 $-1 #
coedge $-1 $434 $182 $179 $297 forward $302 $-1 #
edge $-1 $304 -6.8494947768971723 $438 2.2831649256323967 $296 $439 forward 7 unknown #
coedge $-1 $440 $441 $180 $299 forward $291 $-1 #
edge $-1 $442 -40.261128020899449 $303 -35.245168310236167 $298 $443 forward 7 unknown #
edge $-1 $304 -7.2207575191564857 $442 0 $181 $444 forward 7 unknown #
coedge $-1 $182 $434 $440 $445 forward $302 $-1 #
loop $-1 $-1 $434 $290 #
vertex $-1 $299 $446 #
vertex $-1 $183 $447 #
straight-curve $-1 -72.21836959043884 -9.1326597025295602 11.463414713555935 1 0 0 I I #
coedge $-1 $306 $306 $-1 $448 reversed $186 $-1 #
edge $-1 $449 0 $449 6.2831853071796004 $187 $450 forward 7 unknown #
vertex $-1 $190 $451 #
ellipse-curve $-1 -57.853974462445642 -6.5233283589496871 8.9554348582242937 -0.69465837861970381 0 0.71933979245794832 0.71933979245794832 0 0.69465837861970381 1 I I #
coedge $-1 $310 $310 $-1 $452 reversed $193 $-1 #
edge $-1 $453 0 $453 6.2831853071796004 $194 $454 forward 7 unknown #
vertex $-1 $197 $455 #
ellipse-curve $-1 -57.853974462445642 -2.6093313435798748 8.9554348582242937 -0.69465837861970381 0 0.71933979245794832 0.71933979245794832 0 0.69465837861970381 1 I I #
face $-1 $-1 $456 $41 $-1 $457 reversed single #
loop $-1 $-1 $204 $198 #
plane-surface $-1 0 0 11.463414713555933 0 0 1 1 0 0 forward_v I I I I #
coedge $-1 $458 $459 $460 $461 reversed $199 $-1 #
coedge $-1 $462 $201 $203 $324 forward $124 $-1 #
coedge $-1 $201 $462 $458 $463 forward $124 $-1 #
coedge $-1 $460 $204 $201 $321 forward $315 $-1 #
edge $-1 $327 6.370584035284466 $464 15.503243737814032 $320 $465 forward 7 unknown #
coedge $-1 $466 $467 $202 $323 forward $456 $-1 #
edge $-1 $468 -40.261128020899449 $326 -35.245168310236167 $322 $469 forward 7 unknown #
edge $-1 $327 -7.2207575191564857 $468 0 $203 $470 forward 7 unknown #
coedge $-1 $204 $460 $466 $471 forward $315 $-1 #
vertex $-1 $323 $472 #
vertex $-1 $205 $473 #
straight-curve $-1 -72.21836959043884 17.307497921833715 11.463414713555935 1 0 0 I I #
coedge $-1 $329 $329 $-1 $474 reversed $208 $-1 #
edge $-1 $475 0 $475 6.2831853071796004 $209 $476 forward 7 unknown #
vertex $-1 $212 $477 #
ellipse-curve $-1 -57.853974462445642 19.91682926541359 8.9554348582242937 -0.69465837861970381 0 0.71933979245794832 0.71933979245794832 0 0.69465837861970381 1 I I #
coedge $-1 $333 $333 $-1 $478 reversed $215 $-1 #
edge $-1 $479 0 $479 6.2831853071796004 $216 $480 forward 7 unknown #
vertex $-1 $219 $481 #
ellipse-curve $-1 -57.853974462445642 23.830826280783398 8.9554348582242937 -0.69465837861970381 0 0.71933979245794832 0.71933979245794832 0 0.69465837861970381 1 I I #
face $-1 $-1 $235 $33 $-1 $482 reversed single #
loop $-1 $-1 $353 $220 #
plane-surface $-1 0 38.276018741436509 0 0 -1 0 0 0 -1 forward_v I I I I #
coedge $-1 $483 $351 $354 $484 forward $221 $-1 #
coedge $-1 $357 $223 $224 $345 reversed $138 $-1 #
coedge $-1 $351 $483 $223 $343 reversed $221 $-1 #
edge $-1 $358 -11.463414713555933 $485 11.463414713555933 $342 $486 forward 7 unknown #
coedge $-1 $225 $224 $483 $487 forward $89 $-1 #
edge $-1 $349 -60.45106357005524 $485 60.45106357005524 $341 $488 forward 7 unknown #
coedge $-1 $354 $353 $225 $347 reversed $338 $-1 #
edge $-1 $489 -60.45106357005524 $348 60.45106357005524 $346 $490 forward 7 unknown #
vertex $-1 $227 $491 #
vertex $-1 $360 $492 #
straight-curve $-1 60.45106357005524 0 -11.463414713555933 0 -1 0 I I #
coedge $-1 $340 $342 $228 $352 reversed $221 $-1 #
edge $-1 $355 -38.276018741436509 $358 38.276018741436509 $351 $493 forward 7 unknown #
coedge $-1 $346 $229 $234 $361 forward $338 $-1 #
coedge $-1 $229 $346 $340 $484 reversed $338 $-1 #
vertex $-1 $230 $494 #
straight-curve $-1 0 38.276018741436509 11.463414713555933 -1 0 0 I I #
coedge $-1 $231 $341 $233 $360 reversed $138 $-1 #
vertex $-1 $352 $495 #
straight-curve $-1 0 -38.276018741436509 11.463414713555933 1 0 0 I I #
edge $-1 $236 -11.463414713555933 $349 11.463414713555933 $233 $496 forward 7 unknown #
edge $-1 $237 -11.463414713555933 $348 11.463414713555933 $234 $497 forward 7 unknown #
point $-1 60.45106357005524 -38.276018741436509 11.463414713555933 #
point $-1 60.45106357005524 38.276018741436509 11.463414713555933 #
face $-1 $-1 $498 $34 $-1 $499 reversed single #
loop $-1 $-1 $249 $239 #
plane-surface $-1 0 -38.276018741436509 0 0 1 0 0 0 1 forward_v I I I I #
coedge $-1 $500 $242 $371 $501 forward $146 $-1 #
coedge $-1 $242 $500 $502 $503 forward $146 $-1 #
edge $-1 $504 -60.45106357005524 $372 60.45106357005524 $242 $505 forward 7 unknown #
coedge $-1 $244 $243 $506 $507 reversed $93 $-1 #
coedge $-1 $245 $251 $367 $501 reversed $240 $-1 #
vertex $-1 $501 $508 #
straight-curve $-1 60.45106357005524 -26.440157624363273 -4.8486427414875157 0 0 1 I I #
coedge $-1 $506 $509 $247 $375 forward $498 $-1 #
edge $-1 $380 -22.096974649986564 $376 -10.261113532913328 $374 $510 forward 7 unknown #
vertex $-1 $375 $511 #
straight-curve $-1 0 -26.440157624363273 -7.9311562523941301 -1 0 0 I I #
coedge $-1 $512 $249 $509 $513 forward $365 $-1 #
coedge $-1 $249 $512 $251 $382 reversed $365 $-1 #
vertex $-1 $513 $514 #
straight-curve $-1 0 -38.276018741436509 -7.9311562523941301 -1 0 0 I I #
edge $-1 $253 7.9311562523941301 $515 11.463414713555933 $251 $516 forward 7 unknown #
point $-1 60.45106357005524 -26.440157624363273 -7.9311562523941301 #
point $-1 60.45106357005524 -38.276018741436509 -7.9311562523941301 #
face $-1 $-1 $399 $35 $-1 $517 reversed single #
loop $-1 $-1 $391 $255 #
plane-surface $-1 -60.45106357005524 0 0 1 0 0 0 0 -1 forward_v I I I I #
coedge $-1 $518 $519 $258 $390 forward $256 $-1 #
coedge $-1 $259 $258 $266 $404 reversed $97 $-1 #
edge $-1 $520 -60.45106357005524 $393 60.45106357005524 $388 $521 forward 7 unknown #
coedge $-1 $522 $260 $262 $396 forward $386 $-1 #
coedge $-1 $260 $522 $518 $523 reversed $386 $-1 #
vertex $-1 $523 $524 #
vertex $-1 $396 $525 #
straight-curve $-1 -60.45106357005524 26.44015762436328 -4.8486427414875157 0 0 1 I I #
edge $-1 $394 10.261113532913331 $400 22.096974649986567 $391 $526 forward 7 unknown #
coedge $-1 $527 $263 $267 $405 forward $399 $-1 #
coedge $-1 $263 $527 $522 $528 reversed $399 $-1 #
loop $-1 $-1 $263 $385 #
vertex $-1 $528 $529 #
straight-curve $-1 0 38.276018741436509 -7.9311562523941301 1 0 0 I I #
straight-curve $-1 0 26.44015762436328 -7.9311562523941301 1 0 0 I I #
coedge $-1 $267 $266 $519 $530 reversed $154 $-1 #
edge $-1 $269 3.0825135109066144 $520 6.614771972068417 $266 $531 forward 7 unknown #
edge $-1 $268 7.9311562523941301 $532 11.463414713555933 $267 $533 forward 7 unknown #
point $-1 60.45106357005524 38.276018741436516 -7.9311562523941301 #
point $-1 60.45106357005524 26.44015762436328 -7.9311562523941301 #
loop $-1 $-1 $279 $271 #
plane-surface $-1 60.45106357005524 0 0 -1 0 0 0 0 1 forward_v I I I I #
coedge $-1 $411 $274 $276 $415 reversed $162 $-1 #
coedge $-1 $274 $410 $534 $535 reversed $162 $-1 #
coedge $-1 $282 $277 $274 $413 forward $272 $-1 #
edge $-1 $416 29.871844024100234 $536 37.676537579952644 $412 $537 forward 7 unknown #
coedge $-1 $276 $275 $419 $538 reversed $101 $-1 #
edge $-1 $539 -120.90212714011048 $416 -110.71382319312698 $410 $540 forward 7 unknown #
vertex $-1 $278 $541 #
straight-curve $-1 52.646370014202844 -2.0444809612462258 11.463414713555935 0 -1 0 I I #
coedge $-1 $534 $279 $282 $423 reversed $408 $-1 #
coedge $-1 $279 $534 $414 $538 forward $408 $-1 #
vertex $-1 $280 $542 #
straight-curve $-1 60.45106357005524 3.491624125891196 87.622645606633668 0 0 1 I I #
straight-curve $-1 -32.165338285392593 3.491624125891196 82.628889357819489 0.76604443648966558 0 -0.64278761758704617 I I #
edge $-1 $536 -11.669547970876099 $283 3.491624125891196 $418 $543 forward 7 unknown #
point $-1 60.45106357005524 3.491624125891196 11.463414713555933 #
point $-1 52.64637001420283 3.491624125891196 11.463414713555935 #
edge $-1 $544 1 $544 0 $286 $-1 forward 7 unknown #
vertex $-1 $287 $545 #
ellipse-curve $-1 51.989057992304666 -4.0889619224924516 2.7549672610090168 0.64278761758704617 0 0.76604443648966558 1.915111091224164 0 -1.6069690439676154 1 I I #
point $-1 58.463827883353204 -4.0889619224924516 6.5819878589212024 #
plane-surface $-1 0 0 11.463414713555933 0 0 1 1 0 0 forward_v I I I I #
coedge $-1 $441 $440 $433 $546 forward $291 $-1 #
coedge $-1 $433 $293 $295 $437 reversed $177 $-1 #
coedge $-1 $293 $432 $431 $546 reversed $177 $-1 #
coedge $-1 $301 $296 $293 $435 forward $302 $-1 #
edge $-1 $438 -16.961484235602796 $547 -11.7673060203836 $434 $548 forward 7 unknown #
coedge $-1 $295 $294 $441 $549 reversed $110 $-1 #
edge $-1 $550 0 $438 7.2207575191564857 $432 $551 forward 7 unknown #
vertex $-1 $297 $552 #
straight-curve $-1 -55.256885354836044 -2.2831649256323878 11.463414713555933 0 1 0 I I #
coedge $-1 $431 $298 $301 $445 reversed $291 $-1 #
coedge $-1 $298 $431 $436 $549 forward $291 $-1 #
vertex $-1 $299 $553 #
straight-curve $-1 -60.45106357005524 -9.1326597025295602 46.708583023792102 0 0 1 I I #
straight-curve $-1 -60.45106357005524 -9.1326597025295602 6.4474550028926529 -0.71933979245794832 0 -0.69465837861970381 I I #
edge $-1 $547 -8.8817841970012523e-015 $303 9.1326597025295602 $440 $554 forward 7 unknown #
point $-1 -60.45106357005524 -9.1326597025295602 11.463414713555933 #
point $-1 -55.256885354836044 -9.1326597025295602 11.463414713555933 #
edge $-1 $555 1 $555 0 $306 $-1 forward 7 unknown #
vertex $-1 $307 $556 #
ellipse-curve $-1 -57.117022206896515 -6.5233283589496871 8.1922984751125227 -0.69465837861970381 0 0.71933979245794832 0.71933979245794832 0 0.69465837861970381 1 I I #
point $-1 -57.13463466998769 -6.5233283589496871 9.6500932368439898 #
edge $-1 $557 1 $557 0 $310 $-1 forward 7 unknown #
vertex $-1 $311 $558 #
ellipse-curve $-1 -57.117022206896515 -2.6093313435798748 8.1922984751125227 -0.69465837861970381 0 0.71933979245794832 0.71933979245794832 0 0.69465837861970381 1 I I #
point $-1 -57.13463466998769 -2.6093313435798748 9.6500932368439898 #
loop $-1 $-1 $322 $314 #
plane-surface $-1 -60.45106357005524 0 0 1 0 0 0 0 -1 forward_v I I I I #
coedge $-1 $459 $317 $319 $463 reversed $199 $-1 #
coedge $-1 $317 $458 $559 $560 reversed $199 $-1 #
coedge $-1 $325 $320 $317 $461 forward $315 $-1 #
edge $-1 $464 -16.961484235602796 $561 -11.7673060203836 $460 $562 forward 7 unknown #
coedge $-1 $319 $318 $467 $563 reversed $124 $-1 #
edge $-1 $564 0 $464 7.2207575191564857 $458 $565 forward 7 unknown #
vertex $-1 $321 $566 #
straight-curve $-1 -55.256885354836044 10.936913886549249 11.463414713555933 0 1 0 I I #
coedge $-1 $559 $322 $325 $471 reversed $456 $-1 #
coedge $-1 $322 $559 $462 $563 forward $456 $-1 #
vertex $-1 $323 $567 #
straight-curve $-1 -60.45106357005524 17.307497921833715 46.708583023792102 0 0 1 I I #
straight-curve $-1 -60.45106357005524 17.307497921833715 6.4474550028926529 -0.71933979245794832 0 -0.69465837861970381 I I #
edge $-1 $561 -26.44015762436328 $326 -17.307497921833715 $466 $568 forward 7 unknown #
point $-1 -60.45106357005524 17.307497921833715 11.463414713555933 #
point $-1 -55.256885354836044 17.307497921833715 11.463414713555933 #
edge $-1 $569 1 $569 0 $329 $-1 forward 7 unknown #
vertex $-1 $330 $570 #
ellipse-curve $-1 -57.117022206896515 19.91682926541359 8.1922984751125227 -0.69465837861970381 0 0.71933979245794832 0.71933979245794832 0 0.69465837861970381 1 I I #
point $-1 -57.13463466998769 19.91682926541359 9.6500932368439898 #
edge $-1 $571 1 $571 0 $333 $-1 forward 7 unknown #
vertex $-1 $334 $572 #
ellipse-curve $-1 -57.117022206896515 23.830826280783398 8.1922984751125227 -0.69465837861970381 0 0.71933979245794832 0.71933979245794832 0 0.69465837861970381 1 I I #
point $-1 -57.13463466998769 23.830826280783398 9.6500932368439898 #
plane-surface $-1 60.45106357005524 0 0 -1 0 0 0 0 1 forward_v I I I I #
coedge $-1 $342 $340 $344 $487 reversed $221 $-1 #
edge $-1 $355 -11.463414713555933 $489 11.463414713555933 $354 $573 forward 7 unknown #
vertex $-1 $487 $574 #
straight-curve $-1 -60.45106357005524 -38.276018741436509 0 0 0 -1 I I #
edge $-1 $485 -38.276018741436509 $489 38.276018741436509 $483 $575 forward 7 unknown #
straight-curve $-1 0 -38.276018741436509 -11.463414713555933 -1 0 0 I I #
vertex $-1 $347 $576 #
straight-curve $-1 0 38.276018741436509 -11.463414713555933 1 0 0 I I #
point $-1 60.45106357005524 38.276018741436509 -11.463414713555933 #
point $-1 60.45106357005524 -38.276018741436509 -11.463414713555933 #
straight-curve $-1 -60.45106357005524 0 11.463414713555933 0 -1 0 I I #
point $-1 -60.45106357005524 38.276018741436509 11.463414713555933 #
point $-1 -60.45106357005524 -38.276018741436509 11.463414713555933 #
straight-curve $-1 60.45106357005524 -38.276018741436509 0 0 0 -1 I I #
straight-curve $-1 60.45106357005524 38.276018741436509 0 0 0 -1 I I #
loop $-1 $-1 $506 $364 #
plane-surface $-1 -60.45106357005524 0 0 1 0 0 0 0 -1 forward_v I I I I #
coedge $-1 $368 $367 $512 $577 forward $146 $-1 #
edge $-1 $372 26.440157624363273 $515 38.276018741436509 $371 $578 forward 7 unknown #
coedge $-1 $509 $506 $368 $503 reversed $498 $-1 #
edge $-1 $579 -38.276018741436509 $504 -26.440157624363273 $502 $580 forward 7 unknown #
vertex $-1 $507 $581 #
straight-curve $-1 0 -26.440157624363273 -11.463414713555933 1 0 0 I I #
coedge $-1 $502 $374 $370 $507 forward $498 $-1 #
edge $-1 $376 3.0825135109066144 $504 6.614771972068417 $506 $582 forward 7 unknown #
point $-1 60.45106357005524 -26.440157624363273 -11.463414713555933 #
coedge $-1 $374 $502 $378 $513 reversed $498 $-1 #
straight-curve $-1 -60.45106357005524 -16.179044091449946 -7.9311562523941301 0 1 0 I I #
point $-1 -60.45106357005524 -26.440157624363273 -7.9311562523941301 #
coedge $-1 $379 $378 $500 $577 reversed $365 $-1 #
edge $-1 $380 7.9311562523941301 $579 11.463414713555933 $509 $583 forward 7 unknown #
point $-1 -60.45106357005524 -38.276018741436509 -7.9311562523941301 #
vertex $-1 $382 $584 #
straight-curve $-1 60.45106357005524 -38.276018741436509 0 0 0 -1 I I #
plane-surface $-1 0 38.276018741436509 0 0 -1 0 0 0 -1 forward_v I I I I #
coedge $-1 $585 $388 $392 $523 forward $256 $-1 #
coedge $-1 $388 $585 $403 $530 forward $256 $-1 #
vertex $-1 $390 $586 #
straight-curve $-1 0 26.44015762436328 -11.463414713555933 -1 0 0 I I #
coedge $-1 $392 $391 $398 $528 forward $386 $-1 #
edge $-1 $393 26.44015762436328 $587 38.276018741436509 $392 $588 forward 7 unknown #
point $-1 -60.45106357005524 26.44015762436328 -11.463414713555933 #
point $-1 -60.45106357005524 26.44015762436328 -7.9311562523941301 #
straight-curve $-1 -60.45106357005524 16.179044091449949 -7.9311562523941301 0 1 0 I I #
coedge $-1 $398 $397 $585 $589 reversed $399 $-1 #
edge $-1 $400 7.9311562523941301 $587 11.463414713555933 $398 $590 forward 7 unknown #
point $-1 -60.45106357005524 38.276018741436516 -7.9311562523941301 #
edge $-1 $532 -38.276018741436509 $520 -26.44015762436328 $403 $591 forward 7 unknown #
straight-curve $-1 60.45106357005524 26.44015762436328 -4.8486427414875157 0 0 -1 I I #
vertex $-1 $530 $592 #
straight-curve $-1 60.45106357005524 38.276018741436509 0 0 0 -1 I I #
coedge $-1 $419 $418 $411 $535 forward $408 $-1 #
edge $-1 $536 76.159230893077734 $539 82.708146514411951 $534 $593 forward 7 unknown #
vertex $-1 $423 $594 #
straight-curve $-1 22.774525990102596 -11.669547970876099 11.463414713555935 1 0 0 I I #
edge $-1 $539 -9.6250670096298734 $420 5.5361050871374218 $419 $595 forward 7 unknown #
vertex $-1 $538 $596 #
straight-curve $-1 -32.165338285392593 -11.669547970876099 82.628889357819489 -0.76604443648966558 0 0.64278761758704617 I I #
point $-1 52.64637001420283 -11.669547970876099 11.463414713555935 #
point $-1 60.45106357005524 3.491624125891196 4.9144990922217175 #
straight-curve $-1 60.45106357005524 0 11.463414713555933 0 1 0 I I #
vertex $-1 $426 $597 #
point $-1 53.904169083528835 -4.0889619224924516 1.1479982170414016 #
edge $-1 $547 35.245168310236167 $550 40.261128020899449 $431 $598 forward 7 unknown #
vertex $-1 $445 $599 #
straight-curve $-1 -72.21836959043884 8.8817841970012523e-015 11.463414713555935 -1 0 0 I I #
edge $-1 $550 -2.2831649256323967 $442 6.8494947768971723 $441 $600 forward 7 unknown #
vertex $-1 $549 $601 #
straight-curve $-1 -60.45106357005524 8.8817841970012523e-015 6.4474550028926529 0.71933979245794832 0 0.69465837861970381 I I #
point $-1 -55.256885354836044 8.8817841970012523e-015 11.463414713555933 #
point $-1 -60.45106357005524 -9.1326597025295602 6.4474550028926529 #
straight-curve $-1 -60.45106357005524 0 11.463414713555933 0 -1 0 I I #
vertex $-1 $448 $602 #
point $-1 -56.397682414438563 -6.5233283589496871 8.8869568537322277 #
vertex $-1 $452 $603 #
point $-1 -56.397682414438563 -2.6093313435798748 8.8869568537322277 #
coedge $-1 $467 $466 $459 $560 forward $456 $-1 #
edge $-1 $561 35.245168310236167 $564 40.261128020899449 $559 $604 forward 7 unknown #
vertex $-1 $471 $605 #
straight-curve $-1 -72.21836959043884 26.44015762436328 11.463414713555935 -1 0 0 I I #
edge $-1 $564 -15.503243737814032 $468 -6.370584035284466 $467 $606 forward 7 unknown #
vertex $-1 $563 $607 #
straight-curve $-1 -60.45106357005524 26.44015762436328 6.4474550028926529 0.71933979245794832 0 0.69465837861970381 I I #
point $-1 -55.256885354836044 26.44015762436328 11.463414713555933 #
point $-1 -60.45106357005524 17.307497921833715 6.4474550028926529 #
straight-curve $-1 -60.45106357005524 0 11.463414713555933 0 -1 0 I I #
vertex $-1 $474 $608 #
point $-1 -56.397682414438563 19.91682926541359 8.8869568537322277 #
vertex $-1 $478 $609 #
point $-1 -56.397682414438563 23.830826280783398 8.8869568537322277 #
straight-curve $-1 -60.45106357005524 38.276018741436509 0 0 0 -1 I I #
point $-1 -60.45106357005524 -38.276018741436509 -11.463414713555933 #
straight-curve $-1 -60.45106357005524 0 -11.463414713555933 0 1 0 I I #
point $-1 -60.45106357005524 38.276018741436509 -11.463414713555933 #
edge $-1 $515 -60.45106357005524 $579 60.45106357005524 $512 $610 forward 7 unknown #
straight-curve $-1 60.45106357005524 0 -11.463414713555933 0 -1 0 I I #
vertex $-1 $503 $611 #
straight-curve $-1 -60.45106357005524 0 -11.463414713555933 0 1 0 I I #
point $-1 -60.45106357005524 -26.440157624363273 -11.463414713555933 #
straight-curve $-1 -60.45106357005524 -26.440157624363273 -4.8486427414875157 0 0 -1 I I #
straight-curve $-1 -60.45106357005524 -38.276018741436509 0 0 0 -1 I I #
point $-1 60.45106357005524 -38.276018741436509 -11.463414713555933 #
coedge $-1 $519 $518 $527 $589 forward $256 $-1 #
point $-1 60.45106357005524 26.44015762436328 -11.463414713555933 #
vertex $-1 $589 $612 #
straight-curve $-1 -60.45106357005524 0 -11.463414713555933 0 1 0 I I #
edge $-1 $587 -60.45106357005524 $532 60.45106357005524 $527 $613 forward 7 unknown #
straight-curve $-1 -60.45106357005524 38.276018741436509 0 0 0 -1 I I #
straight-curve $-1 60.45106357005524 0 -11.463414713555933 0 -1 0 I I #
point $-1 60.45106357005524 38.276018741436509 -11.463414713555933 #
straight-curve $-1 60.45106357005524 -11.669547970876099 87.622645606633668 0 0 -1 I I #
point $-1 60.45106357005524 -11.669547970876099 11.463414713555933 #
straight-curve $-1 60.451063570055233 -2.0444809612462258 4.9144990922217247 0 1 0 I I #
point $-1 60.45106357005524 -11.669547970876099 4.9144990922217175 #
point $-1 50.382088948337056 -4.0889619224924516 0.83985616978485289 #
straight-curve $-1 -60.45106357005524 8.8817841970012523e-015 46.708583023792102 0 0 -1 I I #
point $-1 -60.45106357005524 8.8817841970012523e-015 11.463414713555933 #
straight-curve $-1 -60.45106357005524 -2.2831649256323878 6.4474550028926494 0 -1 0 I I #
point $-1 -60.45106357005524 8.8817841970012523e-015 6.4474550028926529 #
point $-1 -56.422363828276808 -6.5233283589496871 7.472958682654574 #
point $-1 -56.422363828276808 -2.6093313435798748 7.472958682654574 #
straight-curve $-1 -60.45106357005524 26.44015762436328 46.708583023792102 0 0 -1 I I #
point $-1 -60.45106357005524 26.44015762436328 11.463414713555933 #
straight-curve $-1 -60.45106357005524 10.936913886549249 6.4474550028926494 0 -1 0 I I #
point $-1 -60.45106357005524 26.44015762436328 6.4474550028926529 #
point $-1 -56.422363828276808 19.91682926541359 7.472958682654574 #
point $-1 -56.422363828276808 23.830826280783398 7.472958682654574 #
straight-curve $-1 0 -38.276018741436509 -11.463414713555933 -1 0 0 I I #
point $-1 -60.45106357005524 -38.276018741436509 -11.463414713555933 #
point $-1 -60.45106357005524 38.276018741436509 -11.463414713555933 #
straight-curve $-1 0 38.276018741436509 -11.463414713555933 1 0 0 I I #
End-of-ACIS-data 