500 0 11 0           
7 Unknown 11 ACIS 5.0 NT 24 Fri Mar 26 15:48:22 1999 
-1 9.9999999999999995e-007 1e-010 
body $-1 $11 $-1 $12 #
body $-1 $13 $-1 $14 #
body $-1 $15 $-1 $16 #
body $-1 $17 $-1 $18 #
body $-1 $19 $-1 $20 #
body $-1 $21 $-1 $22 #
body $-1 $23 $-1 $24 #
body $-1 $25 $-1 $26 #
body $-1 $27 $-1 $28 #
body $-1 $29 $-1 $30 #
body $-1 $31 $-1 $32 #
lump $-1 $-1 $33 $0 #
transform $-1 1 0 0 0 1 0 0 0 1 62.315134128849152 42.03223975266534 13.655122391158722 1 rotate no_reflect no_shear #
lump $-1 $-1 $34 $1 #
transform $-1 1 0 0 0 1 0 0 0 1 62.315134128849152 42.03223975266534 13.655122391158722 1 rotate no_reflect no_shear #
lump $-1 $-1 $35 $2 #
transform $-1 1 0 0 0 1 0 0 0 1 62.315134128849152 42.03223975266534 13.655122391158722 1 rotate no_reflect no_shear #
lump $-1 $-1 $36 $3 #
transform $-1 1 0 0 0 1 0 0 0 1 62.315134128849152 42.03223975266534 13.655122391158722 1 rotate no_reflect no_shear #
lump $-1 $-1 $37 $4 #
transform $-1 1 0 0 0 1 0 0 0 1 62.315134128849152 42.03223975266534 13.655122391158722 1 rotate no_reflect no_shear #
lump $-1 $-1 $38 $5 #
transform $-1 1 0 0 0 1 0 0 0 1 62.315134128849152 42.03223975266534 13.655122391158722 1 rotate no_reflect no_shear #
lump $-1 $-1 $39 $6 #
transform $-1 1 0 0 0 1 0 0 0 1 62.315134128849152 42.03223975266534 13.655122391158722 1 rotate no_reflect no_shear #
lump $-1 $-1 $40 $7 #
transform $-1 1 0 0 0 1 0 0 0 1 62.315134128849152 42.03223975266534 13.655122391158722 1 rotate no_reflect no_shear #
lump $-1 $-1 $41 $8 #
transform $-1 1 0 0 0 1 0 0 0 1 62.315134128849152 42.03223975266534 13.655122391158722 1 rotate no_reflect no_shear #
lump $-1 $-1 $42 $9 #
transform $-1 1 0 0 0 1 0 0 0 1 62.315134128849152 42.03223975266534 13.655122391158722 1 rotate no_reflect no_shear #
lump $-1 $-1 $43 $10 #
transform $-1 1 0 0 0 1 0 0 0 1 62.315134128849152 42.03223975266534 13.655122391158722 1 rotate no_reflect no_shear #
shell $-1 $-1 $-1 $44 $-1 $11 #
shell $-1 $-1 $-1 $45 $-1 $13 #
shell $-1 $-1 $-1 $46 $-1 $15 #
shell $-1 $-1 $-1 $47 $-1 $17 #
shell $-1 $-1 $-1 $48 $-1 $19 #
shell $-1 $-1 $-1 $49 $-1 $21 #
shell $-1 $-1 $-1 $50 $-1 $23 #
shell $-1 $-1 $-1 $51 $-1 $25 #
shell $-1 $-1 $-1 $52 $-1 $27 #
shell $-1 $-1 $-1 $53 $-1 $29 #
shell $-1 $-1 $-1 $54 $-1 $31 #
face $-1 $55 $56 $33 $-1 $57 forward single #
face $-1 $58 $59 $34 $-1 $60 reversed single #
face $-1 $61 $62 $35 $-1 $63 reversed single #
face $-1 $64 $65 $36 $-1 $66 reversed single #
face $-1 $67 $68 $37 $-1 $69 forward single #
face $-1 $70 $71 $38 $-1 $72 reversed single #
face $-1 $73 $74 $39 $-1 $75 forward single #
face $-1 $76 $77 $40 $-1 $78 reversed single #
face $-1 $79 $80 $41 $-1 $81 forward single #
face $-1 $82 $83 $42 $-1 $84 reversed single #
face $-1 $85 $86 $43 $-1 $87 forward single #
face $-1 $88 $89 $33 $-1 $90 reversed single #
loop $-1 $-1 $91 $44 #
plane-surface $-1 0 0 13.655122391158722 0 0 1 1 0 0 forward_v I I I I #
face $-1 $92 $93 $34 $-1 $94 reversed single #
loop $-1 $-1 $95 $45 #
plane-surface $-1 -55.195471583203116 0 7.4788747361885726 0 0 1 1 0 0 forward_v I I I I #
face $-1 $96 $97 $35 $-1 $98 reversed single #
loop $-1 $-1 $99 $46 #
plane-surface $-1 55.195471583203116 0 7.4788747361885726 0 0 1 1 0 0 forward_v I I I I #
face $-1 $100 $101 $36 $-1 $102 reversed single #
loop $-1 $-1 $103 $47 #
plane-surface $-1 -28.963234360791489 -117.03660847916154 109.94474533578997 -1 0 0 0 -0.6018150307709319 0.79863550430605224 forward_v I I I I #
face $-1 $104 $105 $37 $-1 $106 forward single #
loop $-1 $107 $108 $48 #
cone-surface $-1 -36.523249599677996 -39.044844986575406 10.925338665619526 0 0.6018150307709319 -0.79863550430605224 1 0 0 1 I I 0 1 1 forward I I I I #
face $-1 $109 $110 $38 $-1 $111 reversed single #
loop $-1 $-1 $112 $49 #
plane-surface $-1 -4.6144012943394817 -117.03660847916154 109.94474533578997 -1 0 0 0 -0.6018150307709319 0.79863550430605224 forward_v I I I I #
face $-1 $113 $114 $39 $-1 $115 forward single #
loop $-1 $116 $117 $50 #
cone-surface $-1 -12.174416533225994 -39.044844986575406 10.925338665619526 0 0.6018150307709319 -0.79863550430605224 1 0 0 1 I I 0 1 1 forward I I I I #
face $-1 $118 $119 $40 $-1 $120 reversed single #
loop $-1 $-1 $121 $51 #
plane-surface $-1 19.734431772112522 -117.03660847916154 109.94474533578997 -1 0 0 0 -0.6018150307709319 0.79863550430605224 forward_v I I I I #
face $-1 $122 $123 $41 $-1 $124 forward single #
loop $-1 $125 $126 $52 #
cone-surface $-1 12.174416533226008 -39.044844986575406 10.925338665619526 0 0.6018150307709319 -0.79863550430605224 1 0 0 1 I I 0 1 1 forward I I I I #
face $-1 $127 $128 $42 $-1 $129 reversed single #
loop $-1 $-1 $130 $53 #
plane-surface $-1 44.083264838564524 -117.03660847916154 109.94474533578997 -1 0 0 0 -0.6018150307709319 0.79863550430605224 forward_v I I I I #
face $-1 $131 $132 $43 $-1 $133 forward single #
loop $-1 $134 $135 $54 #
cone-surface $-1 36.52324959967801 -39.044844986575406 10.925338665619526 0 0.6018150307709319 -0.79863550430605224 1 0 0 1 I I 0 1 1 forward I I I I #
face $-1 $136 $137 $33 $-1 $138 reversed single #
loop $-1 $-1 $139 $55 #
plane-surface $-1 0 0 -13.655122391158722 0 0 1 1 0 0 forward_v I I I I #
coedge $-1 $140 $141 $142 $143 forward $56 $-1 #
face $-1 $144 $145 $34 $-1 $146 reversed single #
loop $-1 $-1 $147 $58 #
plane-surface $-1 -48.075809037557079 0 10.566998563673648 -1 0 0 0 0 1 forward_v I I I I #
coedge $-1 $148 $149 $150 $151 forward $59 $-1 #
face $-1 $152 $153 $35 $-1 $154 forward single #
loop $-1 $-1 $155 $61 #
plane-surface $-1 48.075809037557079 0 10.566998563673648 1 0 0 0 0 -1 forward_v I I I I #
coedge $-1 $156 $157 $158 $159 reversed $62 $-1 #
face $-1 $160 $161 $36 $-1 $162 reversed single #
loop $-1 $-1 $163 $64 #
plane-surface $-1 -36.523249599678003 -42.032239752665348 10.410588194004532 0 -0.6018150307709319 0.79863550430605224 1 0 0 forward_v I I I I #
coedge $-1 $164 $165 $166 $167 reversed $65 $-1 #
face $-1 $-1 $168 $37 $-1 $169 forward single #
loop $-1 $170 $171 $67 #
cone-surface $-1 -36.523249599677996 -37.909363814821305 9.4185042865044029 0 0.6018150307709319 -0.79863550430605224 0.5 0 0 1 I I -0.70710678118654746 0.70710678118654746 0.5 forward I I I I #
loop $-1 $-1 $172 $48 #
coedge $-1 $108 $108 $173 $174 reversed $68 $-1 #
face $-1 $175 $176 $38 $-1 $177 reversed single #
loop $-1 $-1 $178 $70 #
plane-surface $-1 -12.174416533225994 -42.032239752665348 10.410588194004532 0 -0.6018150307709319 0.79863550430605224 1 0 0 forward_v I I I I #
coedge $-1 $179 $180 $181 $182 reversed $71 $-1 #
face $-1 $-1 $183 $39 $-1 $184 forward single #
loop $-1 $185 $186 $73 #
cone-surface $-1 -12.174416533225994 -37.909363814821305 9.4185042865044029 0 0.6018150307709319 -0.79863550430605224 0.5 0 0 1 I I -0.70710678118654746 0.70710678118654746 0.5 forward I I I I #
loop $-1 $-1 $187 $50 #
coedge $-1 $117 $117 $188 $189 reversed $74 $-1 #
face $-1 $190 $191 $40 $-1 $192 reversed single #
loop $-1 $-1 $193 $76 #
plane-surface $-1 12.174416533226008 -42.032239752665348 10.410588194004532 0 -0.6018150307709319 0.79863550430605224 1 0 0 forward_v I I I I #
coedge $-1 $194 $195 $196 $197 reversed $77 $-1 #
face $-1 $-1 $198 $41 $-1 $199 forward single #
loop $-1 $200 $201 $79 #
cone-surface $-1 12.174416533226008 -37.909363814821305 9.4185042865044029 0 0.6018150307709319 -0.79863550430605224 0.5 0 0 1 I I -0.70710678118654746 0.70710678118654746 0.5 forward I I I I #
loop $-1 $-1 $202 $52 #
coedge $-1 $126 $126 $203 $204 reversed $80 $-1 #
face $-1 $205 $206 $42 $-1 $207 reversed single #
loop $-1 $-1 $208 $82 #
plane-surface $-1 36.52324959967801 -42.032239752665348 10.410588194004532 0 -0.6018150307709319 0.79863550430605224 1 0 0 forward_v I I I I #
coedge $-1 $209 $210 $211 $212 reversed $83 $-1 #
face $-1 $-1 $213 $43 $-1 $214 forward single #
loop $-1 $215 $216 $85 #
cone-surface $-1 36.52324959967801 -37.909363814821305 9.4185042865044029 0 0.6018150307709319 -0.79863550430605224 0.5 0 0 1 I I -0.70710678118654746 0.70710678118654746 0.5 forward I I I I #
loop $-1 $-1 $217 $54 #
coedge $-1 $135 $135 $218 $219 reversed $86 $-1 #
face $-1 $220 $221 $33 $-1 $222 reversed single #
loop $-1 $-1 $223 $88 #
plane-surface $-1 0 -42.03223975266534 0 0 1 0 0 0 1 forward_v I I I I #
coedge $-1 $224 $225 $226 $227 forward $89 $-1 #
coedge $-1 $228 $91 $229 $230 forward $56 $-1 #
coedge $-1 $91 $228 $231 $232 forward $56 $-1 #
coedge $-1 $233 $234 $91 $143 reversed $235 $-1 #
edge $-1 $236 -42.03223975266534 $237 42.03223975266534 $142 $238 forward 7 unknown #
face $-1 $239 $240 $34 $-1 $241 reversed single #
loop $-1 $-1 $242 $92 #
plane-surface $-1 0 42.03223975266534 0 0 -1 0 0 0 -1 forward_v I I I I #
coedge $-1 $150 $243 $244 $245 reversed $93 $-1 #
coedge $-1 $246 $95 $247 $248 reversed $59 $-1 #
coedge $-1 $95 $246 $249 $250 reversed $59 $-1 #
coedge $-1 $251 $147 $95 $151 reversed $93 $-1 #
edge $-1 $252 -42.03223975266534 $253 42.03223975266534 $150 $254 forward 7 unknown #
face $-1 $255 $256 $35 $-1 $257 reversed single #
loop $-1 $-1 $258 $96 #
plane-surface $-1 0 0 13.655122391158722 0 0 1 1 0 0 forward_v I I I I #
coedge $-1 $259 $260 $261 $262 reversed $97 $-1 #
coedge $-1 $263 $99 $264 $265 reversed $62 $-1 #
coedge $-1 $99 $263 $266 $267 reversed $62 $-1 #
coedge $-1 $268 $269 $99 $159 forward $270 $-1 #
edge $-1 $271 -42.03223975266534 $272 42.03223975266534 $158 $273 forward 7 unknown #
face $-1 $274 $275 $36 $-1 $276 forward single #
loop $-1 $-1 $277 $100 #
plane-surface $-1 -44.083264838564517 -117.03660847916154 109.94474533578997 1 0 0 0 0.6018150307709319 -0.79863550430605224 forward_v I I I I #
coedge $-1 $278 $279 $280 $281 reversed $101 $-1 #
coedge $-1 $165 $103 $282 $283 reversed $65 $-1 #
coedge $-1 $103 $164 $278 $284 reversed $65 $-1 #
coedge $-1 $280 $285 $103 $167 forward $275 $-1 #
edge $-1 $286 16.486064486915431 $287 20.791706706358021 $166 $288 forward 7 unknown #
loop $-1 $-1 $173 $104 #
plane-surface $-1 -36.523249599678003 -42.032239752665348 10.410588194004532 0 -0.6018150307709319 0.79863550430605224 1 0 0 forward_v I I I I #
loop $-1 $-1 $289 $67 #
coedge $-1 $171 $171 $172 $290 reversed $105 $-1 #
coedge $-1 $172 $172 $171 $290 forward $107 $-1 #
coedge $-1 $173 $173 $108 $174 forward $168 $-1 #
edge $-1 $291 -5.3451912298190852e-015 $291 6.2831853071795951 $173 $292 forward 7 unknown #
face $-1 $293 $294 $38 $-1 $295 reversed single #
loop $-1 $-1 $296 $109 #
plane-surface $-1 -19.734431772112508 -117.03660847916154 109.94474533578997 1 0 0 0 0.6018150307709319 -0.79863550430605224 forward_v I I I I #
coedge $-1 $297 $298 $299 $300 reversed $110 $-1 #
coedge $-1 $180 $112 $301 $302 reversed $71 $-1 #
coedge $-1 $112 $179 $297 $303 reversed $71 $-1 #
coedge $-1 $299 $304 $112 $182 forward $305 $-1 #
edge $-1 $306 16.486064486915431 $307 20.791706706358021 $181 $308 forward 7 unknown #
loop $-1 $-1 $188 $113 #
plane-surface $-1 -12.174416533225994 -42.032239752665348 10.410588194004532 0 -0.6018150307709319 0.79863550430605224 1 0 0 forward_v I I I I #
loop $-1 $-1 $309 $73 #
coedge $-1 $186 $186 $187 $310 reversed $114 $-1 #
coedge $-1 $187 $187 $186 $310 forward $116 $-1 #
coedge $-1 $188 $188 $117 $189 forward $183 $-1 #
edge $-1 $311 -5.3451912298190852e-015 $311 6.2831853071795951 $188 $312 forward 7 unknown #
face $-1 $313 $314 $40 $-1 $315 reversed single #
loop $-1 $-1 $316 $118 #
plane-surface $-1 4.6144012943394959 -117.03660847916154 109.94474533578997 1 0 0 0 0.6018150307709319 -0.79863550430605224 forward_v I I I I #
coedge $-1 $317 $318 $319 $320 reversed $119 $-1 #
coedge $-1 $195 $121 $321 $322 reversed $77 $-1 #
coedge $-1 $121 $194 $317 $323 reversed $77 $-1 #
coedge $-1 $319 $324 $121 $197 forward $325 $-1 #
edge $-1 $326 16.486064486915431 $327 20.791706706358021 $196 $328 forward 7 unknown #
loop $-1 $-1 $203 $122 #
plane-surface $-1 12.174416533226008 -42.032239752665348 10.410588194004532 0 -0.6018150307709319 0.79863550430605224 1 0 0 forward_v I I I I #
loop $-1 $-1 $329 $79 #
coedge $-1 $201 $201 $202 $330 reversed $123 $-1 #
coedge $-1 $202 $202 $201 $330 forward $125 $-1 #
coedge $-1 $203 $203 $126 $204 forward $198 $-1 #
edge $-1 $331 -5.3451912298190852e-015 $331 6.2831853071795951 $203 $332 forward 7 unknown #
face $-1 $333 $334 $42 $-1 $335 reversed single #
loop $-1 $-1 $336 $127 #
plane-surface $-1 28.963234360791496 -117.03660847916154 109.94474533578997 1 0 0 0 0.6018150307709319 -0.79863550430605224 forward_v I I I I #
coedge $-1 $337 $338 $339 $340 reversed $128 $-1 #
coedge $-1 $210 $130 $341 $342 reversed $83 $-1 #
coedge $-1 $130 $209 $337 $343 reversed $83 $-1 #
coedge $-1 $339 $344 $130 $212 forward $345 $-1 #
edge $-1 $346 16.486064486915431 $347 20.791706706358021 $211 $348 forward 7 unknown #
loop $-1 $-1 $218 $131 #
plane-surface $-1 36.52324959967801 -42.032239752665348 10.410588194004532 0 -0.6018150307709319 0.79863550430605224 1 0 0 forward_v I I I I #
loop $-1 $-1 $349 $85 #
coedge $-1 $216 $216 $217 $350 reversed $132 $-1 #
coedge $-1 $217 $217 $216 $350 forward $134 $-1 #
coedge $-1 $218 $218 $135 $219 forward $213 $-1 #
edge $-1 $351 -5.3451912298190852e-015 $351 6.2831853071795951 $218 $352 forward 7 unknown #
face $-1 $353 $354 $33 $-1 $355 reversed single #
loop $-1 $-1 $356 $136 #
plane-surface $-1 -62.315134128849152 0 0 1 0 0 0 0 -1 forward_v I I I I #
coedge $-1 $357 $231 $358 $359 forward $137 $-1 #
coedge $-1 $360 $139 $357 $361 forward $89 $-1 #
coedge $-1 $139 $360 $362 $363 forward $89 $-1 #
coedge $-1 $234 $233 $139 $227 reversed $235 $-1 #
edge $-1 $364 -42.03223975266534 $365 42.03223975266534 $226 $366 forward 7 unknown #
coedge $-1 $141 $140 $367 $368 forward $56 $-1 #
coedge $-1 $369 $370 $140 $230 reversed $354 $-1 #
edge $-1 $237 -62.315134128849152 $371 62.315134128849152 $229 $372 forward 7 unknown #
coedge $-1 $223 $373 $141 $232 reversed $137 $-1 #
edge $-1 $374 -62.315134128849152 $236 62.315134128849152 $231 $375 forward 7 unknown #
coedge $-1 $226 $142 $373 $376 forward $235 $-1 #
coedge $-1 $142 $226 $369 $377 reversed $235 $-1 #
loop $-1 $-1 $233 $353 #
vertex $-1 $143 $378 #
vertex $-1 $143 $379 #
straight-curve $-1 62.315134128849152 0 13.655122391158722 0 1 0 I I #
face $-1 $380 $381 $34 $-1 $382 forward single #
loop $-1 $-1 $383 $144 #
plane-surface $-1 -62.315134128849152 0 0 1 0 0 0 0 -1 forward_v I I I I #
coedge $-1 $249 $384 $251 $385 forward $145 $-1 #
coedge $-1 $147 $251 $386 $387 reversed $93 $-1 #
coedge $-1 $388 $247 $147 $245 forward $389 $-1 #
edge $-1 $253 2.1953754543517485 $390 8.3716231093218987 $244 $391 forward 7 unknown #
coedge $-1 $149 $148 $383 $392 reversed $59 $-1 #
coedge $-1 $244 $393 $148 $248 forward $389 $-1 #
edge $-1 $394 -34.717398337247594 $253 -20.478073245955521 $247 $395 forward 7 unknown #
coedge $-1 $396 $242 $149 $250 forward $145 $-1 #
edge $-1 $252 20.478073245955521 $397 34.717398337247594 $249 $398 forward 7 unknown #
coedge $-1 $243 $150 $242 $385 reversed $93 $-1 #
vertex $-1 $250 $399 #
vertex $-1 $248 $400 #
straight-curve $-1 -48.075809037557079 0 7.4788747361885726 0 -1 0 I I #
face $-1 $401 $402 $35 $-1 $403 reversed single #
loop $-1 $-1 $404 $152 #
plane-surface $-1 0 -42.03223975266534 0 0 1 0 0 0 1 forward_v I I I I #
coedge $-1 $405 $406 $260 $407 forward $153 $-1 #
coedge $-1 $408 $155 $263 $409 reversed $97 $-1 #
coedge $-1 $155 $408 $258 $407 reversed $97 $-1 #
coedge $-1 $410 $266 $155 $262 forward $402 $-1 #
edge $-1 $411 2.1953754543517485 $412 8.3716231093218987 $261 $413 forward 7 unknown #
coedge $-1 $157 $156 $259 $409 forward $62 $-1 #
coedge $-1 $414 $404 $156 $265 forward $256 $-1 #
edge $-1 $415 20.478073245955521 $271 34.717398337247594 $264 $416 forward 7 unknown #
coedge $-1 $261 $417 $157 $267 forward $402 $-1 #
edge $-1 $272 -34.717398337247594 $411 -20.478073245955521 $266 $418 forward 7 unknown #
coedge $-1 $419 $158 $417 $420 reversed $270 $-1 #
coedge $-1 $158 $419 $414 $421 forward $270 $-1 #
loop $-1 $-1 $158 $401 #
vertex $-1 $265 $422 #
vertex $-1 $159 $423 #
straight-curve $-1 62.315134128849152 0 7.4788747361885726 0 1 0 I I #
face $-1 $-1 $424 $36 $-1 $425 reversed single #
loop $-1 $-1 $166 $160 #
plane-surface $-1 0 0 13.655122391158722 0 0 1 1 0 0 forward_v I I I I #
coedge $-1 $426 $427 $428 $429 reversed $161 $-1 #
coedge $-1 $430 $163 $165 $284 forward $101 $-1 #
coedge $-1 $163 $430 $426 $431 forward $101 $-1 #
coedge $-1 $428 $166 $163 $281 forward $275 $-1 #
edge $-1 $287 10.701609560952487 $432 25.821640038725516 $280 $433 forward 7 unknown #
coedge $-1 $434 $435 $164 $283 forward $424 $-1 #
edge $-1 $436 -44.561784473890448 $286 -41.317250276736267 $282 $437 forward 7 unknown #
edge $-1 $287 -5.3912481929836567 $436 -8.8817612989391469e-015 $165 $438 forward 7 unknown #
coedge $-1 $166 $428 $434 $439 forward $275 $-1 #
vertex $-1 $283 $440 #
vertex $-1 $167 $441 #
straight-curve $-1 -28.963234360791489 -58.518304239580772 13.65512239115872 0 1 0 I I #
coedge $-1 $289 $289 $-1 $442 reversed $170 $-1 #
edge $-1 $443 0 $443 6.2831853071796004 $171 $444 forward 7 unknown #
vertex $-1 $174 $445 #
ellipse-curve $-1 -36.523249599677996 -39.879418642944046 12.03285529258163 0 -0.6018150307709319 0.79863550430605224 1 0 0 1 I I #
face $-1 $-1 $305 $38 $-1 $446 forward single #
loop $-1 $-1 $447 $175 #
plane-surface $-1 0 -42.03223975266534 0 0 1 0 0 0 1 forward_v I I I I #
coedge $-1 $448 $449 $450 $451 reversed $176 $-1 #
coedge $-1 $452 $178 $180 $303 forward $110 $-1 #
coedge $-1 $178 $452 $448 $453 forward $110 $-1 #
coedge $-1 $450 $181 $178 $300 forward $305 $-1 #
edge $-1 $307 -1.4728069722735153 $454 13.647223505499511 $299 $455 forward 7 unknown #
coedge $-1 $456 $457 $179 $302 forward $294 $-1 #
edge $-1 $458 -44.561784473890448 $306 -41.317250276736267 $301 $459 forward 7 unknown #
edge $-1 $307 -5.3912481929836567 $458 -8.8817612989391469e-015 $180 $460 forward 7 unknown #
coedge $-1 $181 $450 $456 $461 forward $305 $-1 #
loop $-1 $-1 $450 $293 #
vertex $-1 $302 $462 #
vertex $-1 $182 $463 #
straight-curve $-1 -4.6144012943394817 -58.518304239580772 13.65512239115872 0 1 0 I I #
coedge $-1 $309 $309 $-1 $464 reversed $185 $-1 #
edge $-1 $465 0 $465 6.2831853071796004 $186 $466 forward 7 unknown #
vertex $-1 $189 $467 #
ellipse-curve $-1 -12.174416533225994 -39.879418642944046 12.03285529258163 0 -0.6018150307709319 0.79863550430605224 1 0 0 1 I I #
face $-1 $-1 $325 $40 $-1 $468 forward single #
loop $-1 $-1 $469 $190 #
plane-surface $-1 0 -42.03223975266534 0 0 1 0 0 0 1 forward_v I I I I #
coedge $-1 $470 $471 $472 $473 reversed $191 $-1 #
coedge $-1 $474 $193 $195 $323 forward $119 $-1 #
coedge $-1 $193 $474 $470 $475 forward $119 $-1 #
coedge $-1 $472 $196 $193 $320 forward $325 $-1 #
edge $-1 $327 -13.647223505499518 $476 1.4728069722735082 $319 $477 forward 7 unknown #
coedge $-1 $478 $479 $194 $322 forward $314 $-1 #
edge $-1 $480 -44.561784473890448 $326 -41.317250276736267 $321 $481 forward 7 unknown #
edge $-1 $327 -5.3912481929836567 $480 -8.8817612989391469e-015 $195 $482 forward 7 unknown #
coedge $-1 $196 $472 $478 $483 forward $325 $-1 #
loop $-1 $-1 $472 $313 #
vertex $-1 $322 $484 #
vertex $-1 $197 $485 #
straight-curve $-1 19.734431772112522 -58.518304239580772 13.65512239115872 0 1 0 I I #
coedge $-1 $329 $329 $-1 $486 reversed $200 $-1 #
edge $-1 $487 0 $487 6.2831853071796004 $201 $488 forward 7 unknown #
vertex $-1 $204 $489 #
ellipse-curve $-1 12.174416533226008 -39.879418642944046 12.03285529258163 0 -0.6018150307709319 0.79863550430605224 1 0 0 1 I I #
face $-1 $-1 $345 $42 $-1 $490 forward single #
loop $-1 $-1 $491 $205 #
plane-surface $-1 0 -42.03223975266534 0 0 1 0 0 0 1 forward_v I I I I #
coedge $-1 $492 $493 $494 $495 reversed $206 $-1 #
coedge $-1 $496 $208 $210 $343 forward $128 $-1 #
coedge $-1 $208 $496 $492 $497 forward $128 $-1 #
coedge $-1 $494 $211 $208 $340 forward $345 $-1 #
edge $-1 $347 -25.821640038725519 $498 -10.701609560952491 $339 $499 forward 7 unknown #
coedge $-1 $500 $501 $209 $342 forward $334 $-1 #
edge $-1 $502 -44.561784473890448 $346 -41.317250276736267 $341 $503 forward 7 unknown #
edge $-1 $347 -5.3912481929836567 $502 -8.8817612989391469e-015 $210 $504 forward 7 unknown #
coedge $-1 $211 $494 $500 $505 forward $345 $-1 #
loop $-1 $-1 $494 $333 #
vertex $-1 $342 $506 #
vertex $-1 $212 $507 #
straight-curve $-1 44.083264838564524 -58.518304239580772 13.65512239115872 0 1 0 I I #
coedge $-1 $349 $349 $-1 $508 reversed $215 $-1 #
edge $-1 $509 0 $509 6.2831853071796004 $216 $510 forward 7 unknown #
vertex $-1 $219 $511 #
ellipse-curve $-1 36.52324959967801 -39.879418642944046 12.03285529258163 0 -0.6018150307709319 0.79863550430605224 1 0 0 1 I I #
face $-1 $-1 $235 $33 $-1 $512 reversed single #
loop $-1 $-1 $369 $220 #
plane-surface $-1 0 42.03223975266534 0 0 -1 0 0 0 -1 forward_v I I I I #
coedge $-1 $513 $367 $370 $514 forward $221 $-1 #
coedge $-1 $373 $223 $224 $361 reversed $137 $-1 #
coedge $-1 $367 $513 $223 $359 reversed $221 $-1 #
edge $-1 $374 -13.655122391158722 $515 13.655122391158722 $358 $516 forward 7 unknown #
coedge $-1 $225 $224 $513 $517 forward $89 $-1 #
edge $-1 $365 -62.315134128849152 $515 62.315134128849152 $357 $518 forward 7 unknown #
coedge $-1 $370 $369 $225 $363 reversed $354 $-1 #
edge $-1 $519 -62.315134128849152 $364 62.315134128849152 $362 $520 forward 7 unknown #
vertex $-1 $227 $521 #
vertex $-1 $376 $522 #
straight-curve $-1 62.315134128849152 0 -13.655122391158722 0 -1 0 I I #
coedge $-1 $356 $358 $228 $368 reversed $221 $-1 #
edge $-1 $371 -42.03223975266534 $374 42.03223975266534 $367 $523 forward 7 unknown #
coedge $-1 $362 $229 $234 $377 forward $354 $-1 #
coedge $-1 $229 $362 $356 $514 reversed $354 $-1 #
vertex $-1 $230 $524 #
straight-curve $-1 0 42.03223975266534 13.655122391158722 -1 0 0 I I #
coedge $-1 $231 $357 $233 $376 reversed $137 $-1 #
vertex $-1 $368 $525 #
straight-curve $-1 0 -42.03223975266534 13.655122391158722 1 0 0 I I #
edge $-1 $236 -13.655122391158722 $365 13.655122391158722 $233 $526 forward 7 unknown #
edge $-1 $237 -13.655122391158722 $364 13.655122391158722 $234 $527 forward 7 unknown #
point $-1 62.315134128849152 -42.03223975266534 13.655122391158722 #
point $-1 62.315134128849152 42.03223975266534 13.655122391158722 #
face $-1 $-1 $389 $34 $-1 $528 reversed single #
loop $-1 $-1 $386 $239 #
plane-surface $-1 0 0 13.655122391158722 0 0 1 1 0 0 forward_v I I I I #
coedge $-1 $529 $530 $246 $392 forward $240 $-1 #
coedge $-1 $242 $396 $531 $532 reversed $145 $-1 #
edge $-1 $533 -8.3716231093218987 $252 -2.1953754543517485 $242 $534 forward 7 unknown #
coedge $-1 $531 $535 $243 $387 forward $381 $-1 #
edge $-1 $390 -42.03223975266534 $533 42.03223975266534 $386 $536 forward 7 unknown #
coedge $-1 $393 $244 $535 $537 reversed $389 $-1 #
loop $-1 $-1 $244 $380 #
vertex $-1 $245 $538 #
straight-curve $-1 -48.075809037557079 -42.03223975266534 5.283499281836824 0 0 1 I I #
edge $-1 $397 -42.03223975266534 $394 42.03223975266534 $383 $539 forward 7 unknown #
coedge $-1 $247 $388 $529 $540 forward $389 $-1 #
vertex $-1 $392 $541 #
straight-curve $-1 -27.597735791601558 -42.03223975266534 7.4788747361885726 1 0 0 I I #
coedge $-1 $384 $249 $530 $542 reversed $145 $-1 #
vertex $-1 $392 $543 #
straight-curve $-1 -27.597735791601558 42.03223975266534 7.4788747361885726 -1 0 0 I I #
point $-1 -48.075809037557079 42.03223975266534 7.4788747361885726 #
point $-1 -48.075809037557079 -42.03223975266534 7.4788747361885726 #
face $-1 $-1 $270 $35 $-1 $544 reversed single #
loop $-1 $-1 $261 $255 #
plane-surface $-1 0 42.03223975266534 0 0 -1 0 0 0 -1 forward_v I I I I #
coedge $-1 $264 $545 $408 $546 forward $256 $-1 #
coedge $-1 $547 $258 $545 $548 forward $153 $-1 #
coedge $-1 $258 $547 $410 $549 forward $153 $-1 #
edge $-1 $412 -42.03223975266534 $550 42.03223975266534 $258 $551 forward 7 unknown #
coedge $-1 $260 $259 $404 $546 reversed $97 $-1 #
edge $-1 $415 -42.03223975266534 $411 42.03223975266534 $259 $552 forward 7 unknown #
coedge $-1 $417 $261 $406 $549 reversed $402 $-1 #
vertex $-1 $267 $553 #
vertex $-1 $262 $554 #
straight-curve $-1 48.075809037557079 42.03223975266534 5.283499281836824 0 0 1 I I #
coedge $-1 $545 $264 $269 $421 reversed $256 $-1 #
vertex $-1 $265 $555 #
straight-curve $-1 27.597735791601558 -42.03223975266534 7.4788747361885726 1 0 0 I I #
coedge $-1 $266 $410 $268 $420 forward $402 $-1 #
straight-curve $-1 27.597735791601558 42.03223975266534 7.4788747361885726 -1 0 0 I I #
coedge $-1 $269 $268 $547 $556 reversed $270 $-1 #
edge $-1 $557 -13.655122391158722 $272 -7.4788747361885726 $268 $558 forward 7 unknown #
edge $-1 $559 -13.655122391158722 $271 -7.4788747361885726 $269 $560 forward 7 unknown #
point $-1 62.315134128849152 -42.03223975266534 7.4788747361885726 #
point $-1 62.315134128849152 42.03223975266534 7.4788747361885726 #
loop $-1 $-1 $282 $274 #
plane-surface $-1 0 -42.03223975266534 0 0 1 0 0 0 1 forward_v I I I I #
coedge $-1 $427 $277 $279 $431 reversed $161 $-1 #
coedge $-1 $277 $426 $561 $562 reversed $161 $-1 #
coedge $-1 $285 $280 $277 $429 forward $275 $-1 #
edge $-1 $432 -20.791706706358021 $563 -16.486064486915431 $428 $564 forward 7 unknown #
coedge $-1 $279 $278 $435 $565 reversed $101 $-1 #
edge $-1 $566 8.8817612989391469e-015 $432 5.3912481929836567 $426 $567 forward 7 unknown #
vertex $-1 $281 $568 #
straight-curve $-1 -18.261624799839002 -37.726597533222751 13.655122391158724 -1 0 0 I I #
coedge $-1 $561 $282 $285 $439 reversed $424 $-1 #
coedge $-1 $282 $561 $430 $565 forward $424 $-1 #
vertex $-1 $283 $569 #
straight-curve $-1 -28.963234360791489 -42.03223975266534 54.972372667894987 0 0 1 I I #
straight-curve $-1 -28.963234360791489 -42.032239752665348 10.410588194004532 0 -0.79863550430605224 -0.6018150307709319 I I #
edge $-1 $563 -44.083264838564517 $286 -28.963234360791489 $434 $570 forward 7 unknown #
point $-1 -28.963234360791489 -42.03223975266534 13.655122391158722 #
point $-1 -28.963234360791489 -37.726597533222751 13.655122391158722 #
edge $-1 $571 1 $571 0 $289 $-1 forward 7 unknown #
vertex $-1 $290 $572 #
ellipse-curve $-1 -36.523249599677996 -38.210271330206773 9.8178220386574289 0 -0.6018150307709319 0.79863550430605224 1 0 0 1 I I #
point $-1 -35.523249599677996 -39.879418642944046 12.032855292581621 #
plane-surface $-1 0 0 13.655122391158722 0 0 1 1 0 0 forward_v I I I I #
coedge $-1 $457 $456 $449 $573 forward $294 $-1 #
coedge $-1 $449 $296 $298 $453 reversed $176 $-1 #
coedge $-1 $296 $448 $447 $573 reversed $176 $-1 #
coedge $-1 $304 $299 $296 $451 forward $305 $-1 #
edge $-1 $454 -20.791706706358021 $574 -16.486064486915431 $450 $575 forward 7 unknown #
coedge $-1 $298 $297 $457 $576 reversed $110 $-1 #
edge $-1 $577 8.8817612989391469e-015 $454 5.3912481929836567 $448 $578 forward 7 unknown #
vertex $-1 $300 $579 #
straight-curve $-1 -6.087208266612997 -37.726597533222751 13.655122391158724 -1 0 0 I I #
coedge $-1 $447 $301 $304 $461 reversed $294 $-1 #
coedge $-1 $301 $447 $452 $576 forward $294 $-1 #
vertex $-1 $302 $580 #
straight-curve $-1 -4.6144012943394817 -42.03223975266534 54.972372667894987 0 0 1 I I #
straight-curve $-1 -4.6144012943394817 -42.032239752665348 10.410588194004532 0 -0.79863550430605224 -0.6018150307709319 I I #
edge $-1 $574 -19.734431772112508 $306 -4.6144012943394817 $456 $581 forward 7 unknown #
point $-1 -4.6144012943394817 -42.03223975266534 13.655122391158722 #
point $-1 -4.6144012943394817 -37.726597533222751 13.655122391158722 #
edge $-1 $582 1 $582 0 $309 $-1 forward 7 unknown #
vertex $-1 $310 $583 #
ellipse-curve $-1 -12.174416533225994 -38.210271330206773 9.8178220386574289 0 -0.6018150307709319 0.79863550430605224 1 0 0 1 I I #
point $-1 -11.174416533225994 -39.879418642944046 12.032855292581621 #
plane-surface $-1 0 0 13.655122391158722 0 0 1 1 0 0 forward_v I I I I #
coedge $-1 $479 $478 $471 $584 forward $314 $-1 #
coedge $-1 $471 $316 $318 $475 reversed $191 $-1 #
coedge $-1 $316 $470 $469 $584 reversed $191 $-1 #
coedge $-1 $324 $319 $316 $473 forward $325 $-1 #
edge $-1 $476 -20.791706706358021 $585 -16.486064486915431 $472 $586 forward 7 unknown #
coedge $-1 $318 $317 $479 $587 reversed $119 $-1 #
edge $-1 $588 8.8817612989391469e-015 $476 5.3912481929836567 $470 $589 forward 7 unknown #
vertex $-1 $320 $590 #
straight-curve $-1 6.0872082666130041 -37.726597533222751 13.655122391158724 -1 0 0 I I #
coedge $-1 $469 $321 $324 $483 reversed $314 $-1 #
coedge $-1 $321 $469 $474 $587 forward $314 $-1 #
vertex $-1 $322 $591 #
straight-curve $-1 19.734431772112522 -42.03223975266534 54.972372667894987 0 0 1 I I #
straight-curve $-1 19.734431772112522 -42.032239752665348 10.410588194004532 0 -0.79863550430605224 -0.6018150307709319 I I #
edge $-1 $585 4.6144012943394959 $326 19.734431772112522 $478 $592 forward 7 unknown #
point $-1 19.734431772112522 -42.03223975266534 13.655122391158722 #
point $-1 19.734431772112522 -37.726597533222751 13.655122391158722 #
edge $-1 $593 1 $593 0 $329 $-1 forward 7 unknown #
vertex $-1 $330 $594 #
ellipse-curve $-1 12.174416533226008 -38.210271330206773 9.8178220386574289 0 -0.6018150307709319 0.79863550430605224 1 0 0 1 I I #
point $-1 13.174416533226008 -39.879418642944046 12.032855292581621 #
plane-surface $-1 0 0 13.655122391158722 0 0 1 1 0 0 forward_v I I I I #
coedge $-1 $501 $500 $493 $595 forward $334 $-1 #
coedge $-1 $493 $336 $338 $497 reversed $206 $-1 #
coedge $-1 $336 $492 $491 $595 reversed $206 $-1 #
coedge $-1 $344 $339 $336 $495 forward $345 $-1 #
edge $-1 $498 -20.791706706358021 $596 -16.486064486915431 $494 $597 forward 7 unknown #
coedge $-1 $338 $337 $501 $598 reversed $128 $-1 #
edge $-1 $599 8.8817612989391469e-015 $498 5.3912481929836567 $492 $600 forward 7 unknown #
vertex $-1 $340 $601 #
straight-curve $-1 18.261624799839005 -37.726597533222751 13.655122391158724 -1 0 0 I I #
coedge $-1 $491 $341 $344 $505 reversed $334 $-1 #
coedge $-1 $341 $491 $496 $598 forward $334 $-1 #
vertex $-1 $342 $602 #
straight-curve $-1 44.083264838564524 -42.03223975266534 54.972372667894987 0 0 1 I I #
straight-curve $-1 44.083264838564524 -42.032239752665348 10.410588194004532 0 -0.79863550430605224 -0.6018150307709319 I I #
edge $-1 $596 28.963234360791496 $346 44.083264838564524 $500 $603 forward 7 unknown #
point $-1 44.083264838564524 -42.03223975266534 13.655122391158722 #
point $-1 44.083264838564524 -37.726597533222751 13.655122391158722 #
edge $-1 $604 1 $604 0 $349 $-1 forward 7 unknown #
vertex $-1 $350 $605 #
ellipse-curve $-1 36.52324959967801 -38.210271330206773 9.8178220386574289 0 -0.6018150307709319 0.79863550430605224 1 0 0 1 I I #
point $-1 37.52324959967801 -39.879418642944046 12.032855292581621 #
plane-surface $-1 62.315134128849152 0 0 -1 0 0 0 0 1 forward_v I I I I #
coedge $-1 $358 $356 $360 $517 reversed $221 $-1 #
edge $-1 $371 -13.655122391158722 $519 13.655122391158722 $370 $606 forward 7 unknown #
vertex $-1 $517 $607 #
straight-curve $-1 -62.315134128849152 -42.03223975266534 0 0 0 -1 I I #
edge $-1 $515 -42.03223975266534 $519 42.03223975266534 $513 $608 forward 7 unknown #
straight-curve $-1 0 -42.03223975266534 -13.655122391158722 -1 0 0 I I #
vertex $-1 $363 $609 #
straight-curve $-1 0 42.03223975266534 -13.655122391158722 1 0 0 I I #
point $-1 62.315134128849152 42.03223975266534 -13.655122391158722 #
point $-1 62.315134128849152 -42.03223975266534 -13.655122391158722 #
straight-curve $-1 -62.315134128849152 0 13.655122391158722 0 -1 0 I I #
point $-1 -62.315134128849152 42.03223975266534 13.655122391158722 #
point $-1 -62.315134128849152 -42.03223975266534 13.655122391158722 #
straight-curve $-1 62.315134128849152 -42.03223975266534 0 0 0 -1 I I #
straight-curve $-1 62.315134128849152 42.03223975266534 0 0 0 -1 I I #
plane-surface $-1 0 -42.03223975266534 0 0 1 0 0 0 1 forward_v I I I I #
coedge $-1 $610 $383 $393 $540 reversed $240 $-1 #
coedge $-1 $383 $610 $396 $542 forward $240 $-1 #
coedge $-1 $611 $386 $384 $532 forward $381 $-1 #
edge $-1 $533 48.075809037557079 $612 62.315134128849152 $384 $613 forward 7 unknown #
vertex $-1 $532 $614 #
straight-curve $-1 -48.075809037557079 42.03223975266534 5.283499281836824 0 0 -1 I I #
coedge $-1 $386 $611 $388 $537 forward $381 $-1 #
straight-curve $-1 -48.075809037557079 0 13.655122391158722 0 1 0 I I #
edge $-1 $615 -62.315134128849152 $390 -48.075809037557079 $388 $616 forward 7 unknown #
point $-1 -48.075809037557079 -42.03223975266534 13.655122391158724 #
straight-curve $-1 -62.315134128849152 0 7.4788747361885726 0 -1 0 I I #
edge $-1 $615 -13.655122391158722 $394 -7.4788747361885726 $529 $617 forward 7 unknown #
point $-1 -62.315134128849152 -42.03223975266534 7.4788747361885726 #
edge $-1 $612 -13.655122391158722 $397 -7.4788747361885726 $396 $618 forward 7 unknown #
point $-1 -62.315134128849152 42.03223975266534 7.4788747361885726 #
plane-surface $-1 62.315134128849152 0 0 -1 0 0 0 0 1 forward_v I I I I #
coedge $-1 $404 $414 $405 $548 reversed $256 $-1 #
edge $-1 $550 -8.3716231093218987 $415 -2.1953754543517485 $404 $619 forward 7 unknown #
coedge $-1 $406 $405 $419 $556 forward $153 $-1 #
edge $-1 $550 48.075809037557079 $559 62.315134128849152 $545 $620 forward 7 unknown #
edge $-1 $557 -62.315134128849152 $412 -48.075809037557079 $410 $621 forward 7 unknown #
vertex $-1 $548 $622 #
straight-curve $-1 48.075809037557079 0 13.655122391158722 0 -1 0 I I #
straight-curve $-1 48.075809037557079 0 7.4788747361885726 0 1 0 I I #
point $-1 48.075809037557079 42.03223975266534 7.4788747361885726 #
point $-1 48.075809037557079 42.03223975266534 13.655122391158724 #
point $-1 48.075809037557079 -42.03223975266534 7.4788747361885726 #
edge $-1 $559 -42.03223975266534 $557 42.03223975266534 $419 $623 forward 7 unknown #
vertex $-1 $556 $624 #
straight-curve $-1 62.315134128849152 42.03223975266534 0 0 0 -1 I I #
vertex $-1 $556 $625 #
straight-curve $-1 62.315134128849152 -42.03223975266534 0 0 0 -1 I I #
coedge $-1 $435 $434 $427 $562 forward $424 $-1 #
edge $-1 $563 41.317250276736267 $566 44.561784473890448 $561 $626 forward 7 unknown #
vertex $-1 $439 $627 #
straight-curve $-1 -44.083264838564517 -58.518304239580772 13.65512239115872 0 -1 0 I I #
edge $-1 $566 -25.821640038725516 $436 -10.701609560952487 $435 $628 forward 7 unknown #
vertex $-1 $565 $629 #
straight-curve $-1 -44.083264838564517 -42.032239752665348 10.410588194004532 0 0.79863550430605224 0.6018150307709319 I I #
point $-1 -44.083264838564517 -37.726597533222751 13.655122391158722 #
point $-1 -28.963234360791489 -42.03223975266534 10.410588194004537 #
straight-curve $-1 0 -42.03223975266534 13.655122391158722 1 0 0 I I #
vertex $-1 $442 $630 #
point $-1 -35.523249599677996 -38.210271330206773 9.8178220386574289 #
edge $-1 $574 41.317250276736267 $577 44.561784473890448 $447 $631 forward 7 unknown #
vertex $-1 $461 $632 #
straight-curve $-1 -19.734431772112508 -58.518304239580772 13.65512239115872 0 -1 0 I I #
edge $-1 $577 -13.647223505499511 $458 1.4728069722735153 $457 $633 forward 7 unknown #
vertex $-1 $576 $634 #
straight-curve $-1 -19.734431772112508 -42.032239752665348 10.410588194004532 0 0.79863550430605224 0.6018150307709319 I I #
point $-1 -19.734431772112508 -37.726597533222751 13.655122391158722 #
point $-1 -4.6144012943394817 -42.03223975266534 10.410588194004537 #
straight-curve $-1 0 -42.03223975266534 13.655122391158722 1 0 0 I I #
vertex $-1 $464 $635 #
point $-1 -11.174416533225994 -38.210271330206773 9.8178220386574289 #
edge $-1 $585 41.317250276736267 $588 44.561784473890448 $469 $636 forward 7 unknown #
vertex $-1 $483 $637 #
straight-curve $-1 4.6144012943394959 -58.518304239580772 13.65512239115872 0 -1 0 I I #
edge $-1 $588 -1.4728069722735082 $480 13.647223505499518 $479 $638 forward 7 unknown #
vertex $-1 $587 $639 #
straight-curve $-1 4.6144012943394959 -42.032239752665348 10.410588194004532 0 0.79863550430605224 0.6018150307709319 I I #
point $-1 4.6144012943394959 -37.726597533222751 13.655122391158722 #
point $-1 19.734431772112522 -42.03223975266534 10.410588194004537 #
straight-curve $-1 0 -42.03223975266534 13.655122391158722 1 0 0 I I #
vertex $-1 $486 $640 #
point $-1 13.174416533226008 -38.210271330206773 9.8178220386574289 #
edge $-1 $596 41.317250276736267 $599 44.561784473890448 $491 $641 forward 7 unknown #
vertex $-1 $505 $642 #
straight-curve $-1 28.963234360791496 -58.518304239580772 13.65512239115872 0 -1 0 I I #
edge $-1 $599 10.701609560952491 $502 25.821640038725519 $501 $643 forward 7 unknown #
vertex $-1 $598 $644 #
straight-curve $-1 28.963234360791496 -42.032239752665348 10.410588194004532 0 0.79863550430605224 0.6018150307709319 I I #
point $-1 28.963234360791496 -37.726597533222751 13.655122391158722 #
point $-1 44.083264838564524 -42.03223975266534 10.410588194004537 #
straight-curve $-1 0 -42.03223975266534 13.655122391158722 1 0 0 I I #
vertex $-1 $508 $645 #
point $-1 37.52324959967801 -38.210271330206773 9.8178220386574289 #
straight-curve $-1 -62.315134128849152 42.03223975266534 0 0 0 -1 I I #
point $-1 -62.315134128849152 -42.03223975266534 -13.655122391158722 #
straight-curve $-1 -62.315134128849152 0 -13.655122391158722 0 1 0 I I #
point $-1 -62.315134128849152 42.03223975266534 -13.655122391158722 #
coedge $-1 $530 $529 $611 $646 reversed $240 $-1 #
coedge $-1 $535 $531 $610 $646 forward $381 $-1 #
vertex $-1 $532 $647 #
straight-curve $-1 0 42.03223975266534 13.655122391158722 -1 0 0 I I #
point $-1 -48.075809037557079 42.03223975266534 13.655122391158724 #
vertex $-1 $646 $648 #
straight-curve $-1 0 -42.03223975266534 13.655122391158722 1 0 0 I I #
straight-curve $-1 -62.315134128849152 -42.03223975266534 0 0 0 -1 I I #
straight-curve $-1 -62.315134128849152 42.03223975266534 0 0 0 -1 I I #
straight-curve $-1 48.075809037557079 -42.03223975266534 5.283499281836824 0 0 -1 I I #
straight-curve $-1 0 -42.03223975266534 13.655122391158722 1 0 0 I I #
straight-curve $-1 0 42.03223975266534 13.655122391158722 -1 0 0 I I #
point $-1 48.075809037557079 -42.03223975266534 13.655122391158724 #
straight-curve $-1 62.315134128849152 0 13.655122391158722 0 1 0 I I #
point $-1 62.315134128849152 42.03223975266534 13.655122391158722 #
point $-1 62.315134128849152 -42.03223975266534 13.655122391158722 #
straight-curve $-1 -44.083264838564517 -42.03223975266534 54.972372667894987 0 0 -1 I I #
point $-1 -44.083264838564517 -42.03223975266534 13.655122391158722 #
straight-curve $-1 -18.261624799839002 -42.03223975266534 10.410588194004539 1 0 0 I I #
point $-1 -44.083264838564517 -42.03223975266534 10.410588194004537 #
point $-1 -36.523249599677996 -37.608456299435836 9.0191865343513768 #
straight-curve $-1 -19.734431772112508 -42.03223975266534 54.972372667894987 0 0 -1 I I #
point $-1 -19.734431772112508 -42.03223975266534 13.655122391158722 #
straight-curve $-1 -6.087208266612997 -42.03223975266534 10.410588194004539 1 0 0 I I #
point $-1 -19.734431772112508 -42.03223975266534 10.410588194004537 #
point $-1 -12.174416533225994 -37.608456299435836 9.0191865343513768 #
straight-curve $-1 4.6144012943394959 -42.03223975266534 54.972372667894987 0 0 -1 I I #
point $-1 4.6144012943394959 -42.03223975266534 13.655122391158722 #
straight-curve $-1 6.0872082666130041 -42.03223975266534 10.410588194004539 1 0 0 I I #
point $-1 4.6144012943394959 -42.03223975266534 10.410588194004537 #
point $-1 12.174416533226008 -37.608456299435836 9.0191865343513768 #
straight-curve $-1 28.963234360791496 -42.03223975266534 54.972372667894987 0 0 -1 I I #
point $-1 28.963234360791496 -42.03223975266534 13.655122391158722 #
straight-curve $-1 18.261624799839005 -42.03223975266534 10.410588194004539 1 0 0 I I #
point $-1 28.963234360791496 -42.03223975266534 10.410588194004537 #
point $-1 36.52324959967801 -37.608456299435836 9.0191865343513768 #
edge $-1 $612 -42.03223975266534 $615 42.03223975266534 $610 $649 forward 7 unknown #
point $-1 -62.315134128849152 42.03223975266534 13.655122391158722 #
point $-1 -62.315134128849152 -42.03223975266534 13.655122391158722 #
straight-curve $-1 -62.315134128849152 0 13.655122391158722 0 -1 0 I I #
End-of-ACIS-data 