500 0 5 0           
7 Unknown 11 ACIS 5.0 NT 24 Fri Mar 26 20:34:35 1999 
-1 9.9999999999999995e-007 1e-010 
body $-1 $5 $-1 $6 #
body $-1 $7 $-1 $8 #
body $-1 $9 $-1 $10 #
body $-1 $11 $-1 $12 #
body $-1 $13 $-1 $14 #
lump $-1 $-1 $15 $0 #
transform $-1 1 0 0 0 1 0 0 0 1 71.320535905026389 34.736085099481969 14.732543994309541 1 rotate no_reflect no_shear #
lump $-1 $-1 $16 $1 #
transform $-1 1 0 0 0 1 0 0 0 1 71.320535905026389 34.736085099481969 14.732543994309541 1 rotate no_reflect no_shear #
lump $-1 $-1 $17 $2 #
transform $-1 1 0 0 0 1 0 0 0 1 71.320535905026389 34.736085099481969 14.732543994309541 1 rotate no_reflect no_shear #
lump $-1 $-1 $18 $3 #
transform $-1 1 0 0 0 1 0 0 0 1 71.320535905026389 34.736085099481969 14.732543994309541 1 rotate no_reflect no_shear #
lump $-1 $-1 $19 $4 #
transform $-1 1 0 0 0 1 0 0 0 1 71.320535905026389 34.736085099481969 14.732543994309541 1 rotate no_reflect no_shear #
shell $-1 $-1 $-1 $20 $-1 $5 #
shell $-1 $-1 $-1 $21 $-1 $7 #
shell $-1 $-1 $-1 $22 $-1 $9 #
shell $-1 $-1 $-1 $23 $-1 $11 #
shell $-1 $-1 $-1 $24 $-1 $13 #
face $-1 $25 $26 $15 $-1 $27 forward single #
face $-1 $28 $29 $16 $-1 $30 forward single #
face $-1 $31 $32 $17 $-1 $33 forward single #
face $-1 $34 $35 $18 $-1 $36 reversed single #
face $-1 $37 $38 $19 $-1 $39 forward single #
face $-1 $40 $41 $15 $-1 $42 reversed single #
loop $-1 $-1 $43 $20 #
plane-surface $-1 0 0 14.732543994309541 0 0 1 1 0 0 forward_v I I I I #
face $-1 $44 $45 $16 $-1 $46 reversed single #
loop $-1 $-1 $47 $21 #
plane-surface $-1 0 -27.0249896529557 -7.8197090105603664 0 0 1 1 0 0 forward_v I I I I #
face $-1 $48 $49 $17 $-1 $50 reversed single #
loop $-1 $-1 $51 $22 #
plane-surface $-1 0 27.024989652955696 -7.8197090105603664 0 0 1 1 0 0 forward_v I I I I #
face $-1 $52 $53 $18 $-1 $54 reversed single #
loop $-1 $-1 $55 $23 #
plane-surface $-1 -172.183006227894 19.313894206429435 107.06621129864985 0 -1 0 0.70710678939079041 0 -0.70710677298230451 forward_v I I I I #
face $-1 $56 $57 $19 $-1 $58 forward single #
loop $-1 $59 $60 $24 #
cone-surface $-1 -66.43880642680179 16.177285497801549 9.8508144314542783 0.70710678939079041 0 -0.70710677298230451 0.35355338649115226 0 0.35355339469539521 1 I I 0 1 0.5 forward I I I I #
face $-1 $61 $62 $15 $-1 $63 reversed single #
loop $-1 $-1 $64 $25 #
plane-surface $-1 0 0 -14.732543994309541 0 0 1 1 0 0 forward_v I I I I #
coedge $-1 $65 $66 $67 $68 forward $26 $-1 #
face $-1 $69 $70 $16 $-1 $71 reversed single #
loop $-1 $-1 $72 $28 #
plane-surface $-1 0 -19.313894206429431 -11.276126502434954 0 -1 0 0 0 -1 forward_v I I I I #
coedge $-1 $73 $74 $75 $76 reversed $29 $-1 #
face $-1 $77 $78 $17 $-1 $79 reversed single #
loop $-1 $-1 $80 $31 #
plane-surface $-1 0 19.313894206429428 -11.276126502434954 0 1 0 0 0 1 forward_v I I I I #
coedge $-1 $81 $82 $83 $84 reversed $32 $-1 #
face $-1 $85 $86 $18 $-1 $87 reversed single #
loop $-1 $-1 $88 $34 #
plane-surface $-1 -71.320535905026389 16.177285497801549 6.2037433163062587 -0.70710678939079041 0 0.70710677298230451 0.70710677298230451 0 0.70710678939079041 forward_v I I I I #
coedge $-1 $89 $90 $91 $92 reversed $35 $-1 #
face $-1 $-1 $93 $19 $-1 $94 forward single #
loop $-1 $95 $96 $37 #
cone-surface $-1 -65.644700491275287 16.177285497801549 9.0567085143550834 0.70710678939079041 0 -0.70710677298230451 0.17677669324557613 0 0.1767766973476976 1 I I -0.70710678118654746 0.70710678118654746 0.25 forward I I I I #
loop $-1 $-1 $97 $24 #
coedge $-1 $60 $60 $98 $99 reversed $38 $-1 #
face $-1 $100 $101 $15 $-1 $102 reversed single #
loop $-1 $-1 $103 $40 #
plane-surface $-1 0 -34.736085099481969 0 0 1 0 0 0 1 forward_v I I I I #
coedge $-1 $104 $105 $106 $107 forward $41 $-1 #
coedge $-1 $108 $43 $109 $110 forward $26 $-1 #
coedge $-1 $43 $108 $111 $112 forward $26 $-1 #
coedge $-1 $113 $114 $43 $68 reversed $115 $-1 #
edge $-1 $116 -34.736085099481969 $117 34.736085099481969 $67 $118 forward 7 unknown #
face $-1 $119 $120 $16 $-1 $121 reversed single #
loop $-1 $-1 $122 $44 #
plane-surface $-1 0 0 -14.732543994309541 0 0 1 1 0 0 forward_v I I I I #
coedge $-1 $123 $124 $125 $126 reversed $45 $-1 #
coedge $-1 $127 $47 $124 $128 forward $29 $-1 #
coedge $-1 $47 $127 $129 $130 reversed $29 $-1 #
coedge $-1 $131 $125 $47 $76 forward $120 $-1 #
edge $-1 $132 5.8013993799515813 $133 21.22359027300412 $75 $134 forward 7 unknown #
face $-1 $135 $136 $17 $-1 $137 reversed single #
loop $-1 $-1 $83 $48 #
plane-surface $-1 71.320535905026389 0 0 -1 0 0 0 0 1 forward_v I I I I #
coedge $-1 $138 $139 $140 $141 reversed $49 $-1 #
coedge $-1 $142 $51 $143 $144 reversed $32 $-1 #
coedge $-1 $51 $142 $139 $145 forward $32 $-1 #
coedge $-1 $146 $147 $51 $84 forward $78 $-1 #
edge $-1 $148 -21.22359027300412 $149 -5.8013993799515795 $83 $150 forward 7 unknown #
face $-1 $151 $152 $18 $-1 $153 reversed single #
loop $-1 $-1 $154 $52 #
plane-surface $-1 -172.183006227894 13.040676789173663 107.06621129864985 0 1 0 -0.70710678939079041 0 0.70710677298230451 forward_v I I I I #
coedge $-1 $155 $156 $157 $158 reversed $53 $-1 #
coedge $-1 $90 $55 $159 $160 reversed $35 $-1 #
coedge $-1 $55 $89 $155 $161 reversed $35 $-1 #
coedge $-1 $157 $162 $55 $92 forward $152 $-1 #
edge $-1 $163 38.800561655015386 $164 47.329362333018665 $91 $165 forward 7 unknown #
loop $-1 $-1 $98 $56 #
plane-surface $-1 -71.320535905026389 16.177285497801549 6.2037433163062587 -0.70710678939079041 0 0.70710677298230451 0.70710677298230451 0 0.70710678939079041 forward_v I I I I #
loop $-1 $-1 $166 $37 #
coedge $-1 $96 $96 $97 $167 reversed $57 $-1 #
coedge $-1 $97 $97 $96 $167 forward $59 $-1 #
coedge $-1 $98 $98 $60 $99 forward $93 $-1 #
edge $-1 $168 0 $168 6.2831853071796004 $98 $169 forward 7 unknown #
face $-1 $170 $171 $15 $-1 $172 reversed single #
loop $-1 $-1 $173 $61 #
plane-surface $-1 -71.320535905026389 0 0 1 0 0 0 0 -1 forward_v I I I I #
coedge $-1 $174 $111 $175 $176 forward $62 $-1 #
coedge $-1 $177 $64 $174 $178 forward $41 $-1 #
coedge $-1 $64 $177 $179 $180 forward $41 $-1 #
coedge $-1 $114 $113 $64 $107 reversed $115 $-1 #
edge $-1 $181 -34.736085099481969 $182 34.736085099481969 $106 $183 forward 7 unknown #
coedge $-1 $66 $65 $184 $185 forward $26 $-1 #
coedge $-1 $186 $187 $65 $110 reversed $171 $-1 #
edge $-1 $117 -71.320535905026389 $188 71.320535905026389 $109 $189 forward 7 unknown #
coedge $-1 $103 $190 $66 $112 reversed $62 $-1 #
edge $-1 $191 -71.320535905026389 $116 71.320535905026389 $111 $192 forward 7 unknown #
coedge $-1 $106 $67 $190 $193 forward $115 $-1 #
coedge $-1 $67 $106 $186 $194 reversed $115 $-1 #
loop $-1 $-1 $113 $170 #
vertex $-1 $68 $195 #
vertex $-1 $68 $196 #
straight-curve $-1 71.320535905026389 0 14.732543994309541 0 1 0 I I #
face $-1 $197 $198 $16 $-1 $199 reversed single #
loop $-1 $-1 $125 $69 #
plane-surface $-1 71.320535905026389 0 0 -1 0 0 0 0 1 forward_v I I I I #
coedge $-1 $200 $201 $123 $202 forward $70 $-1 #
coedge $-1 $203 $72 $122 $202 reversed $45 $-1 #
coedge $-1 $72 $203 $73 $128 reversed $45 $-1 #
coedge $-1 $75 $204 $72 $126 forward $120 $-1 #
edge $-1 $205 -9.0944807430920633 $132 -2.1816457593428895 $125 $206 forward 7 unknown #
coedge $-1 $74 $73 $207 $208 reversed $29 $-1 #
edge $-1 $132 -71.320535905026389 $209 71.320535905026389 $124 $210 forward 7 unknown #
coedge $-1 $211 $212 $74 $130 forward $198 $-1 #
edge $-1 $133 -71.320535905026389 $213 71.320535905026389 $129 $214 forward 7 unknown #
coedge $-1 $204 $75 $212 $215 forward $120 $-1 #
vertex $-1 $76 $216 #
vertex $-1 $215 $217 #
straight-curve $-1 71.320535905026389 -13.51249482647785 -7.8197090105603664 0 -1 0 I I #
face $-1 $218 $219 $17 $-1 $220 reversed single #
loop $-1 $-1 $221 $77 #
plane-surface $-1 0 0 -14.732543994309541 0 0 1 1 0 0 forward_v I I I I #
coedge $-1 $222 $80 $221 $223 reversed $49 $-1 #
coedge $-1 $80 $222 $82 $145 reversed $49 $-1 #
coedge $-1 $224 $225 $80 $141 forward $219 $-1 #
edge $-1 $226 -9.0944807430920633 $227 -2.1816457593428895 $140 $228 forward 7 unknown #
coedge $-1 $82 $81 $224 $229 reversed $32 $-1 #
coedge $-1 $230 $231 $81 $144 forward $232 $-1 #
edge $-1 $233 -71.320535905026389 $148 71.320535905026389 $143 $234 forward 7 unknown #
edge $-1 $227 -71.320535905026389 $149 71.320535905026389 $139 $235 forward 7 unknown #
coedge $-1 $236 $83 $222 $237 forward $78 $-1 #
coedge $-1 $83 $236 $230 $238 reversed $78 $-1 #
vertex $-1 $238 $239 #
vertex $-1 $84 $240 #
straight-curve $-1 71.320535905026389 13.512494826477848 -7.8197090105603664 0 -1 0 I I #
face $-1 $-1 $241 $18 $-1 $242 forward single #
loop $-1 $-1 $91 $85 #
plane-surface $-1 -71.320535905026389 0 0 1 0 0 0 0 -1 forward_v I I I I #
coedge $-1 $243 $244 $245 $246 reversed $86 $-1 #
coedge $-1 $247 $88 $90 $161 forward $53 $-1 #
coedge $-1 $88 $247 $243 $248 forward $53 $-1 #
coedge $-1 $245 $91 $88 $158 forward $152 $-1 #
edge $-1 $164 -11.22525145752866 $249 -4.9520340402728884 $157 $250 forward 7 unknown #
coedge $-1 $251 $252 $89 $160 forward $241 $-1 #
edge $-1 $253 -23.299767689012192 $163 -14.770967208920609 $159 $254 forward 7 unknown #
edge $-1 $164 0 $253 12.06154544966439 $90 $255 forward 7 unknown #
coedge $-1 $91 $245 $251 $256 reversed $152 $-1 #
vertex $-1 $256 $257 #
vertex $-1 $92 $258 #
straight-curve $-1 -71.320535905026389 19.313894206429435 53.533105649324924 0 0 -1 I I #
coedge $-1 $166 $166 $-1 $259 reversed $95 $-1 #
edge $-1 $260 0 $260 6.2831853071796004 $96 $261 forward 7 unknown #
vertex $-1 $99 $262 #
ellipse-curve $-1 -67.056135664980602 16.177285497801549 10.468143655307898 -0.70710678939079041 0 0.70710677298230451 0.35355338649115226 0 0.35355339469539521 1 I I #
face $-1 $-1 $115 $15 $-1 $263 reversed single #
loop $-1 $-1 $186 $100 #
plane-surface $-1 0 34.736085099481969 0 0 -1 0 0 0 -1 forward_v I I I I #
coedge $-1 $264 $184 $187 $265 forward $101 $-1 #
coedge $-1 $190 $103 $104 $178 reversed $62 $-1 #
coedge $-1 $184 $264 $103 $176 reversed $101 $-1 #
edge $-1 $191 -14.732543994309541 $266 14.732543994309541 $175 $267 forward 7 unknown #
coedge $-1 $105 $104 $264 $268 forward $41 $-1 #
edge $-1 $182 -71.320535905026389 $266 71.320535905026389 $174 $269 forward 7 unknown #
coedge $-1 $187 $186 $105 $180 reversed $171 $-1 #
edge $-1 $270 -71.320535905026389 $181 71.320535905026389 $179 $271 forward 7 unknown #
vertex $-1 $107 $272 #
vertex $-1 $193 $273 #
straight-curve $-1 71.320535905026389 0 -14.732543994309541 0 -1 0 I I #
coedge $-1 $173 $175 $108 $185 reversed $101 $-1 #
edge $-1 $188 -34.736085099481969 $191 34.736085099481969 $184 $274 forward 7 unknown #
coedge $-1 $179 $109 $114 $194 forward $171 $-1 #
coedge $-1 $109 $179 $173 $265 reversed $171 $-1 #
vertex $-1 $110 $275 #
straight-curve $-1 0 34.736085099481969 14.732543994309541 -1 0 0 I I #
coedge $-1 $111 $174 $113 $193 reversed $62 $-1 #
vertex $-1 $185 $276 #
straight-curve $-1 0 -34.736085099481969 14.732543994309541 1 0 0 I I #
edge $-1 $116 -14.732543994309541 $182 14.732543994309541 $113 $277 forward 7 unknown #
edge $-1 $117 -14.732543994309541 $181 14.732543994309541 $114 $278 forward 7 unknown #
point $-1 71.320535905026389 -34.736085099481969 14.732543994309541 #
point $-1 71.320535905026389 34.736085099481969 14.732543994309541 #
face $-1 $-1 $279 $16 $-1 $280 reversed single #
loop $-1 $-1 $129 $119 #
plane-surface $-1 0 -34.736085099481969 0 0 1 0 0 0 1 forward_v I I I I #
coedge $-1 $281 $122 $204 $282 forward $70 $-1 #
coedge $-1 $122 $281 $283 $284 forward $70 $-1 #
edge $-1 $285 -71.320535905026389 $205 71.320535905026389 $122 $286 forward 7 unknown #
coedge $-1 $124 $123 $287 $288 reversed $45 $-1 #
coedge $-1 $125 $131 $200 $282 reversed $120 $-1 #
vertex $-1 $282 $289 #
straight-curve $-1 71.320535905026389 -19.313894206429431 -5.6380632512174769 0 0 1 I I #
coedge $-1 $287 $290 $127 $208 forward $279 $-1 #
edge $-1 $213 -21.22359027300412 $209 -5.8013993799515813 $207 $291 forward 7 unknown #
vertex $-1 $208 $292 #
straight-curve $-1 0 -19.313894206429431 -7.8197090105603664 -1 0 0 I I #
coedge $-1 $293 $129 $290 $294 forward $198 $-1 #
coedge $-1 $129 $293 $131 $215 reversed $198 $-1 #
vertex $-1 $294 $295 #
straight-curve $-1 0 -34.736085099481969 -7.8197090105603664 -1 0 0 I I #
edge $-1 $133 7.8197090105603664 $296 14.732543994309541 $131 $297 forward 7 unknown #
point $-1 71.320535905026389 -19.313894206429431 -7.8197090105603664 #
point $-1 71.320535905026389 -34.736085099481969 -7.8197090105603664 #
face $-1 $-1 $232 $17 $-1 $298 reversed single #
loop $-1 $-1 $224 $135 #
plane-surface $-1 -71.320535905026389 0 0 1 0 0 0 0 -1 forward_v I I I I #
coedge $-1 $299 $300 $138 $223 forward $136 $-1 #
coedge $-1 $139 $138 $146 $237 reversed $49 $-1 #
edge $-1 $301 -71.320535905026389 $226 71.320535905026389 $221 $302 forward 7 unknown #
coedge $-1 $303 $140 $142 $229 forward $219 $-1 #
coedge $-1 $140 $303 $299 $304 reversed $219 $-1 #
vertex $-1 $304 $305 #
vertex $-1 $229 $306 #
straight-curve $-1 -71.320535905026389 19.313894206429428 -5.6380632512174769 0 0 1 I I #
edge $-1 $227 5.8013993799515795 $233 21.22359027300412 $224 $307 forward 7 unknown #
coedge $-1 $308 $143 $147 $238 forward $232 $-1 #
coedge $-1 $143 $308 $303 $309 reversed $232 $-1 #
loop $-1 $-1 $143 $218 #
vertex $-1 $309 $310 #
straight-curve $-1 0 34.736085099481969 -7.8197090105603664 1 0 0 I I #
straight-curve $-1 0 19.313894206429428 -7.8197090105603664 1 0 0 I I #
coedge $-1 $147 $146 $300 $311 reversed $78 $-1 #
edge $-1 $149 2.1816457593428895 $301 9.0944807430920633 $146 $312 forward 7 unknown #
edge $-1 $148 7.8197090105603664 $313 14.732543994309541 $147 $314 forward 7 unknown #
point $-1 71.320535905026389 34.736085099481969 -7.8197090105603664 #
point $-1 71.320535905026389 19.313894206429428 -7.8197090105603664 #
loop $-1 $-1 $159 $151 #
plane-surface $-1 0 0 14.732543994309541 0 0 1 1 0 0 forward_v I I I I #
coedge $-1 $244 $154 $156 $248 reversed $86 $-1 #
coedge $-1 $154 $243 $315 $316 reversed $86 $-1 #
coedge $-1 $162 $157 $154 $246 forward $152 $-1 #
edge $-1 $249 -47.329362333018665 $317 -38.800561655015386 $245 $318 forward 7 unknown #
coedge $-1 $156 $155 $252 $319 reversed $53 $-1 #
edge $-1 $320 -12.06154544966439 $249 0 $243 $321 forward 7 unknown #
vertex $-1 $158 $322 #
straight-curve $-1 -71.320535905026389 8.0886427489007744 6.2037433163062587 0 -1 0 I I #
coedge $-1 $315 $159 $162 $256 forward $241 $-1 #
coedge $-1 $159 $315 $247 $319 forward $241 $-1 #
vertex $-1 $160 $323 #
straight-curve $-1 -86.091503113946999 19.313894206429435 14.732543994309538 -1 0 0 I I #
straight-curve $-1 -71.320535905026389 19.313894206429435 6.2037433163062587 0.70710677298230451 0 0.70710678939079041 I I #
edge $-1 $163 -19.313894206429435 $317 -13.040676789173663 $162 $324 forward 7 unknown #
point $-1 -71.320535905026389 19.313894206429435 14.732543994309541 #
point $-1 -71.320535905026389 19.313894206429435 6.2037433163062587 #
edge $-1 $325 1 $325 0 $166 $-1 forward 7 unknown #
vertex $-1 $167 $326 #
ellipse-curve $-1 -65.821477188622978 16.177285497801549 9.2334852076006602 -0.70710678939079041 0 0.70710677298230451 0.35355338649115226 0 0.35355339469539521 1 I I #
point $-1 -66.702582278489444 16.177285497801549 10.821697050003293 #
plane-surface $-1 71.320535905026389 0 0 -1 0 0 0 0 1 forward_v I I I I #
coedge $-1 $175 $173 $177 $268 reversed $101 $-1 #
edge $-1 $188 -14.732543994309541 $270 14.732543994309541 $187 $327 forward 7 unknown #
vertex $-1 $268 $328 #
straight-curve $-1 -71.320535905026389 -34.736085099481969 0 0 0 -1 I I #
edge $-1 $266 -34.736085099481969 $270 34.736085099481969 $264 $329 forward 7 unknown #
straight-curve $-1 0 -34.736085099481969 -14.732543994309541 -1 0 0 I I #
vertex $-1 $180 $330 #
straight-curve $-1 0 34.736085099481969 -14.732543994309541 1 0 0 I I #
point $-1 71.320535905026389 34.736085099481969 -14.732543994309541 #
point $-1 71.320535905026389 -34.736085099481969 -14.732543994309541 #
straight-curve $-1 -71.320535905026389 0 14.732543994309541 0 -1 0 I I #
point $-1 -71.320535905026389 34.736085099481969 14.732543994309541 #
point $-1 -71.320535905026389 -34.736085099481969 14.732543994309541 #
straight-curve $-1 71.320535905026389 -34.736085099481969 0 0 0 -1 I I #
straight-curve $-1 71.320535905026389 34.736085099481969 0 0 0 -1 I I #
loop $-1 $-1 $287 $197 #
plane-surface $-1 -71.320535905026389 0 0 1 0 0 0 0 -1 forward_v I I I I #
coedge $-1 $201 $200 $293 $331 forward $70 $-1 #
edge $-1 $205 19.313894206429431 $296 34.736085099481969 $204 $332 forward 7 unknown #
coedge $-1 $290 $287 $201 $284 reversed $279 $-1 #
edge $-1 $333 -34.736085099481969 $285 -19.313894206429431 $283 $334 forward 7 unknown #
vertex $-1 $288 $335 #
straight-curve $-1 0 -19.313894206429431 -14.732543994309541 1 0 0 I I #
coedge $-1 $283 $207 $203 $288 forward $279 $-1 #
edge $-1 $209 2.1816457593428895 $285 9.0944807430920633 $287 $336 forward 7 unknown #
point $-1 71.320535905026389 -19.313894206429431 -14.732543994309541 #
coedge $-1 $207 $283 $211 $294 reversed $279 $-1 #
straight-curve $-1 -71.320535905026389 -13.51249482647785 -7.8197090105603664 0 1 0 I I #
point $-1 -71.320535905026389 -19.313894206429431 -7.8197090105603664 #
coedge $-1 $212 $211 $281 $331 reversed $198 $-1 #
edge $-1 $213 7.8197090105603664 $333 14.732543994309541 $290 $337 forward 7 unknown #
point $-1 -71.320535905026389 -34.736085099481969 -7.8197090105603664 #
vertex $-1 $215 $338 #
straight-curve $-1 71.320535905026389 -34.736085099481969 0 0 0 -1 I I #
plane-surface $-1 0 34.736085099481969 0 0 -1 0 0 0 -1 forward_v I I I I #
coedge $-1 $339 $221 $225 $304 forward $136 $-1 #
coedge $-1 $221 $339 $236 $311 forward $136 $-1 #
vertex $-1 $223 $340 #
straight-curve $-1 0 19.313894206429428 -14.732543994309541 -1 0 0 I I #
coedge $-1 $225 $224 $231 $309 forward $219 $-1 #
edge $-1 $226 19.313894206429428 $341 34.736085099481969 $225 $342 forward 7 unknown #
point $-1 -71.320535905026389 19.313894206429428 -14.732543994309541 #
point $-1 -71.320535905026389 19.313894206429428 -7.8197090105603664 #
straight-curve $-1 -71.320535905026389 13.512494826477848 -7.8197090105603664 0 1 0 I I #
coedge $-1 $231 $230 $339 $343 reversed $232 $-1 #
edge $-1 $233 7.8197090105603664 $341 14.732543994309541 $231 $344 forward 7 unknown #
point $-1 -71.320535905026389 34.736085099481969 -7.8197090105603664 #
edge $-1 $313 -34.736085099481969 $301 -19.313894206429428 $236 $345 forward 7 unknown #
straight-curve $-1 71.320535905026389 19.313894206429428 -5.6380632512174769 0 0 -1 I I #
vertex $-1 $311 $346 #
straight-curve $-1 71.320535905026389 34.736085099481969 0 0 0 -1 I I #
coedge $-1 $252 $251 $244 $316 forward $241 $-1 #
edge $-1 $317 14.770967208920609 $320 23.299767689012192 $315 $347 forward 7 unknown #
vertex $-1 $316 $348 #
straight-curve $-1 -71.320535905026389 13.040676789173663 53.533105649324924 0 0 1 I I #
edge $-1 $320 4.9520340402728884 $253 11.22525145752866 $252 $349 forward 7 unknown #
vertex $-1 $319 $350 #
straight-curve $-1 -71.320535905026389 13.040676789173663 6.2037433163062587 -0.70710677298230451 0 -0.70710678939079041 I I #
point $-1 -71.320535905026389 13.040676789173663 6.2037433163062587 #
point $-1 -62.791735424934807 19.313894206429435 14.732543994309541 #
straight-curve $-1 -71.320535905026389 0 14.732543994309541 0 -1 0 I I #
vertex $-1 $259 $351 #
point $-1 -65.467923802131835 16.177285497801549 9.5870386022960545 #
straight-curve $-1 -71.320535905026389 34.736085099481969 0 0 0 -1 I I #
point $-1 -71.320535905026389 -34.736085099481969 -14.732543994309541 #
straight-curve $-1 -71.320535905026389 0 -14.732543994309541 0 1 0 I I #
point $-1 -71.320535905026389 34.736085099481969 -14.732543994309541 #
edge $-1 $296 -71.320535905026389 $333 71.320535905026389 $293 $352 forward 7 unknown #
straight-curve $-1 71.320535905026389 0 -14.732543994309541 0 -1 0 I I #
vertex $-1 $284 $353 #
straight-curve $-1 -71.320535905026389 0 -14.732543994309541 0 1 0 I I #
point $-1 -71.320535905026389 -19.313894206429431 -14.732543994309541 #
straight-curve $-1 -71.320535905026389 -19.313894206429431 -5.6380632512174769 0 0 -1 I I #
straight-curve $-1 -71.320535905026389 -34.736085099481969 0 0 0 -1 I I #
point $-1 71.320535905026389 -34.736085099481969 -14.732543994309541 #
coedge $-1 $300 $299 $308 $343 forward $136 $-1 #
point $-1 71.320535905026389 19.313894206429428 -14.732543994309541 #
vertex $-1 $343 $354 #
straight-curve $-1 -71.320535905026389 0 -14.732543994309541 0 1 0 I I #
edge $-1 $341 -71.320535905026389 $313 71.320535905026389 $308 $355 forward 7 unknown #
straight-curve $-1 -71.320535905026389 34.736085099481969 0 0 0 -1 I I #
straight-curve $-1 71.320535905026389 0 -14.732543994309541 0 -1 0 I I #
point $-1 71.320535905026389 34.736085099481969 -14.732543994309541 #
straight-curve $-1 -86.091503113946999 13.040676789173663 14.732543994309538 1 0 0 I I #
point $-1 -71.320535905026389 13.040676789173663 14.732543994309541 #
straight-curve $-1 -62.791735424934814 8.0886427489007744 14.732543994309539 0 1 0 I I #
point $-1 -62.791735424934807 13.040676789173663 14.732543994309541 #
point $-1 -65.467923793927596 16.177285497801549 8.8799318211095066 #
straight-curve $-1 0 -34.736085099481969 -14.732543994309541 -1 0 0 I I #
point $-1 -71.320535905026389 -34.736085099481969 -14.732543994309541 #
point $-1 -71.320535905026389 34.736085099481969 -14.732543994309541 #
straight-curve $-1 0 34.736085099481969 -14.732543994309541 1 0 0 I I #
End-of-ACIS-data 