500 0 5 0           
7 Unknown 11 ACIS 5.0 NT 24 Fri Mar 26 16:27:47 1999 
-1 9.9999999999999995e-007 1e-010 
body $-1 $5 $-1 $6 #
body $-1 $7 $-1 $8 #
body $-1 $9 $-1 $10 #
body $-1 $11 $-1 $12 #
body $-1 $13 $-1 $14 #
lump $-1 $-1 $15 $0 #
transform $-1 1 0 0 0 1 0 0 0 1 64.207281716360967 34.163870235193386 12.963127995275213 1 rotate no_reflect no_shear #
lump $-1 $-1 $16 $1 #
transform $-1 1 0 0 0 1 0 0 0 1 64.207281716360967 34.163870235193386 12.963127995275213 1 rotate no_reflect no_shear #
lump $-1 $-1 $17 $2 #
transform $-1 1 0 0 0 1 0 0 0 1 64.207281716360967 34.163870235193386 12.963127995275213 1 rotate no_reflect no_shear #
lump $-1 $-1 $18 $3 #
transform $-1 1 0 0 0 1 0 0 0 1 64.207281716360967 34.163870235193386 12.963127995275213 1 rotate no_reflect no_shear #
lump $-1 $-1 $19 $4 #
transform $-1 1 0 0 0 1 0 0 0 1 64.207281716360967 34.163870235193386 12.963127995275213 1 rotate no_reflect no_shear #
shell $-1 $-1 $-1 $20 $-1 $5 #
shell $-1 $-1 $-1 $21 $-1 $7 #
shell $-1 $-1 $-1 $22 $-1 $9 #
shell $-1 $-1 $-1 $23 $-1 $11 #
shell $-1 $-1 $-1 $24 $-1 $13 #
face $-1 $25 $26 $15 $-1 $27 forward single #
face $-1 $28 $29 $16 $-1 $30 reversed single #
face $-1 $31 $32 $17 $-1 $33 forward single #
face $-1 $34 $35 $18 $-1 $36 reversed single #
face $-1 $37 $38 $19 $-1 $39 reversed single #
face $-1 $40 $41 $15 $-1 $42 reversed single #
loop $-1 $-1 $43 $20 #
plane-surface $-1 0 0 12.963127995275213 0 0 1 1 0 0 forward_v I I I I #
face $-1 $44 $45 $16 $-1 $46 forward single #
loop $-1 $-1 $47 $21 #
plane-surface $-1 0 -26.866737292433562 -4.3622907240088722 0 0 1 1 0 0 forward_v I I I I #
face $-1 $48 $49 $17 $-1 $50 forward single #
loop $-1 $-1 $51 $22 #
plane-surface $-1 51.539116162587632 22.226873421830248 187.31801398882158 0 1 0 0.6560590369687036 0 0.75470957328743171 forward_v I I I I #
face $-1 $52 $53 $18 $-1 $54 reversed single #
loop $-1 $55 $56 $23 #
cone-surface $-1 59.634547171912345 25.637443939934002 8.8035298124970485 -0.6560590369687036 0 -0.75470957328743171 0.75470957328743171 0 -0.6560590369687036 1 I I 0 1 1 forward I I I I #
face $-1 $57 $58 $19 $-1 $59 reversed single #
loop $-1 $60 $61 $24 #
cone-surface $-1 59.634547171912345 30.753299717089632 8.8035298124970485 -0.6560590369687036 0 -0.75470957328743171 0.75470957328743171 0 -0.6560590369687036 1 I I 0 1 1 forward I I I I #
face $-1 $62 $63 $15 $-1 $64 reversed single #
loop $-1 $-1 $65 $25 #
plane-surface $-1 0 0 -12.963127995275213 0 0 1 1 0 0 forward_v I I I I #
coedge $-1 $66 $67 $68 $69 forward $26 $-1 #
face $-1 $70 $71 $16 $-1 $72 forward single #
loop $-1 $-1 $73 $28 #
plane-surface $-1 0 -26.866737292433562 -7.9749709274835325 0 0 1 1 0 0 forward_v I I I I #
coedge $-1 $74 $75 $76 $77 reversed $29 $-1 #
face $-1 $78 $79 $17 $-1 $80 reversed single #
loop $-1 $-1 $81 $31 #
plane-surface $-1 -32.708418655840418 28.195371828511824 90.402313616620177 0.6560590369687036 0 0.75470957328743171 0.75470957328743171 0 -0.6560590369687036 forward_v I I I I #
coedge $-1 $82 $83 $84 $85 reversed $32 $-1 #
face $-1 $86 $87 $18 $-1 $88 forward single #
loop $-1 $89 $90 $34 #
cone-surface $-1 58.649837936197258 25.637443939934002 7.6707514416167175 -0.6560590369687036 0 -0.75470957328743171 0.37735478664371586 0 -0.3280295184843518 1 I I -0.70710678118654746 0.70710678118654746 0.5 forward I I I I #
loop $-1 $-1 $91 $23 #
coedge $-1 $56 $56 $92 $93 reversed $35 $-1 #
face $-1 $94 $95 $19 $-1 $96 reversed single #
loop $-1 $97 $98 $37 #
cone-surface $-1 58.649837936197258 30.753299717089632 7.6707514416167175 -0.6560590369687036 0 -0.75470957328743171 0.37735478664371586 0 -0.3280295184843518 1 I I -0.70710678118654746 0.70710678118654746 0.5 forward I I I I #
loop $-1 $-1 $99 $24 #
coedge $-1 $61 $61 $100 $101 reversed $38 $-1 #
face $-1 $102 $103 $15 $-1 $104 reversed single #
loop $-1 $-1 $105 $40 #
plane-surface $-1 0 -34.163870235193386 0 0 1 0 0 0 1 forward_v I I I I #
coedge $-1 $106 $107 $108 $109 forward $41 $-1 #
coedge $-1 $110 $43 $111 $112 forward $26 $-1 #
coedge $-1 $43 $110 $113 $114 forward $26 $-1 #
coedge $-1 $115 $116 $43 $69 reversed $117 $-1 #
edge $-1 $118 -34.163870235193386 $119 34.163870235193386 $68 $120 forward 7 unknown #
face $-1 $121 $122 $16 $-1 $123 reversed single #
loop $-1 $-1 $124 $44 #
plane-surface $-1 0 -19.569604349673739 -6.1686308257462024 0 -1 0 0 0 -1 forward_v I I I I #
coedge $-1 $125 $126 $127 $128 reversed $45 $-1 #
coedge $-1 $129 $47 $130 $131 reversed $29 $-1 #
coedge $-1 $47 $129 $132 $133 reversed $29 $-1 #
coedge $-1 $134 $135 $47 $77 forward $122 $-1 #
edge $-1 $136 -20.730501588976605 $137 -6.1362357034569577 $76 $138 forward 7 unknown #
face $-1 $139 $140 $17 $-1 $141 forward single #
loop $-1 $-1 $142 $48 #
plane-surface $-1 64.207281716360967 0 0 -1 0 0 0 0 1 forward_v I I I I #
coedge $-1 $143 $144 $142 $145 reversed $49 $-1 #
coedge $-1 $83 $51 $144 $146 forward $32 $-1 #
coedge $-1 $51 $82 $147 $148 reversed $32 $-1 #
coedge $-1 $149 $142 $51 $85 forward $79 $-1 #
edge $-1 $150 -87.504228196218648 $151 -80.695878999135573 $84 $152 forward 7 unknown #
face $-1 $153 $154 $18 $-1 $155 forward single #
loop $-1 $-1 $156 $52 #
plane-surface $-1 51.539116162587632 22.226873421830248 187.31801398882158 0 1 0 0.6560590369687036 0 0.75470957328743171 forward_v I I I I #
loop $-1 $-1 $157 $34 #
coedge $-1 $90 $90 $91 $158 forward $53 $-1 #
coedge $-1 $91 $91 $90 $158 reversed $55 $-1 #
coedge $-1 $92 $92 $56 $93 forward $154 $-1 #
edge $-1 $159 0 $159 6.2831853071796004 $92 $160 forward 7 unknown #
face $-1 $161 $162 $19 $-1 $163 reversed single #
loop $-1 $164 $165 $57 #
cone-surface $-1 59.634547171912345 25.637443939934002 8.8035298124970485 -0.6560590369687036 0 -0.75470957328743171 0.75470957328743171 0 -0.6560590369687036 1 I I 0 1 1 forward I I I I #
loop $-1 $-1 $166 $37 #
coedge $-1 $98 $98 $99 $167 forward $58 $-1 #
coedge $-1 $99 $99 $98 $167 reversed $60 $-1 #
coedge $-1 $100 $100 $61 $101 forward $168 $-1 #
edge $-1 $169 0 $169 6.2831853071796004 $100 $170 forward 7 unknown #
face $-1 $171 $172 $15 $-1 $173 reversed single #
loop $-1 $-1 $174 $62 #
plane-surface $-1 -64.207281716360967 0 0 1 0 0 0 0 -1 forward_v I I I I #
coedge $-1 $175 $113 $176 $177 forward $63 $-1 #
coedge $-1 $178 $65 $175 $179 forward $41 $-1 #
coedge $-1 $65 $178 $180 $181 forward $41 $-1 #
coedge $-1 $116 $115 $65 $109 reversed $117 $-1 #
edge $-1 $182 -34.163870235193386 $183 34.163870235193386 $108 $184 forward 7 unknown #
coedge $-1 $67 $66 $185 $186 forward $26 $-1 #
coedge $-1 $187 $188 $66 $112 reversed $172 $-1 #
edge $-1 $119 -64.207281716360967 $189 64.207281716360967 $111 $190 forward 7 unknown #
coedge $-1 $105 $191 $67 $114 reversed $63 $-1 #
edge $-1 $192 -64.207281716360967 $118 64.207281716360967 $113 $193 forward 7 unknown #
coedge $-1 $108 $68 $191 $194 forward $117 $-1 #
coedge $-1 $68 $108 $187 $195 reversed $117 $-1 #
loop $-1 $-1 $115 $171 #
vertex $-1 $69 $196 #
vertex $-1 $69 $197 #
straight-curve $-1 64.207281716360967 0 12.963127995275213 0 1 0 I I #
face $-1 $198 $199 $16 $-1 $200 reversed single #
loop $-1 $-1 $76 $70 #
plane-surface $-1 64.207281716360967 0 0 -1 0 0 0 0 1 forward_v I I I I #
coedge $-1 $132 $201 $134 $202 reversed $71 $-1 #
coedge $-1 $203 $73 $201 $204 reversed $45 $-1 #
coedge $-1 $73 $203 $205 $206 reversed $45 $-1 #
coedge $-1 $207 $134 $73 $128 forward $122 $-1 #
edge $-1 $208 6.1362357034569577 $209 20.730501588976605 $127 $210 forward 7 unknown #
coedge $-1 $75 $74 $211 $212 reversed $29 $-1 #
coedge $-1 $213 $214 $74 $131 forward $215 $-1 #
edge $-1 $216 -64.207281716360967 $136 64.207281716360967 $130 $217 forward 7 unknown #
coedge $-1 $218 $124 $75 $133 forward $71 $-1 #
edge $-1 $137 -64.207281716360967 $219 64.207281716360967 $132 $220 forward 7 unknown #
coedge $-1 $127 $76 $124 $202 forward $122 $-1 #
coedge $-1 $76 $221 $213 $222 forward $122 $-1 #
vertex $-1 $131 $223 #
vertex $-1 $77 $224 #
straight-curve $-1 64.207281716360967 -13.433368646216781 -4.3622907240088722 0 1 0 I I #
face $-1 $225 $226 $17 $-1 $227 reversed single #
loop $-1 $-1 $147 $78 #
plane-surface $-1 0 0 12.963127995275213 0 0 1 1 0 0 forward_v I I I I #
coedge $-1 $84 $228 $81 $145 forward $79 $-1 #
coedge $-1 $229 $81 $230 $231 reversed $49 $-1 #
coedge $-1 $81 $229 $82 $146 reversed $49 $-1 #
edge $-1 $232 -20.066184320937488 $150 -8.1291875075743363 $142 $233 forward 7 unknown #
edge $-1 $150 -128.41456343272191 $234 -118.03691627989738 $82 $235 forward 7 unknown #
coedge $-1 $236 $237 $83 $148 forward $140 $-1 #
edge $-1 $151 -38.437723635067151 $234 -30.605613980631411 $147 $238 forward 7 unknown #
coedge $-1 $239 $84 $237 $240 reversed $79 $-1 #
vertex $-1 $145 $241 #
vertex $-1 $148 $242 #
straight-curve $-1 64.207281716360967 22.226873421830248 93.659006994410788 0 0 1 I I #
face $-1 $243 $244 $18 $-1 $245 reversed single #
loop $-1 $246 $92 $86 #
plane-surface $-1 -32.708418655840418 28.195371828511824 90.402313616620177 0.6560590369687036 0 0.75470957328743171 0.75470957328743171 0 -0.6560590369687036 forward_v I I I I #
coedge $-1 $247 $248 $249 $250 reversed $87 $-1 #
coedge $-1 $157 $157 $-1 $251 forward $89 $-1 #
edge $-1 $252 0 $252 6.2831853071796004 $90 $253 forward 7 unknown #
vertex $-1 $93 $254 #
ellipse-curve $-1 60.291226889143097 25.637443939934002 9.5589533967336795 -0.6560590369687036 0 -0.75470957328743171 0.75470957328743171 0 -0.6560590369687036 1 I I #
face $-1 $255 $256 $19 $-1 $257 forward single #
loop $-1 $258 $259 $94 #
cone-surface $-1 58.649837936197258 25.637443939934002 7.6707514416167175 -0.6560590369687036 0 -0.75470957328743171 0.37735478664371586 0 -0.3280295184843518 1 I I -0.70710678118654746 0.70710678118654746 0.5 forward I I I I #
loop $-1 $-1 $260 $57 #
coedge $-1 $165 $165 $261 $262 reversed $95 $-1 #
coedge $-1 $166 $166 $-1 $263 forward $97 $-1 #
edge $-1 $264 0 $264 6.2831853071796004 $98 $265 forward 7 unknown #
loop $-1 $266 $100 $255 #
vertex $-1 $101 $267 #
ellipse-curve $-1 60.291226889143097 30.753299717089632 9.5589533967336795 -0.6560590369687036 0 -0.75470957328743171 0.75470957328743171 0 -0.6560590369687036 1 I I #
face $-1 $-1 $117 $15 $-1 $268 reversed single #
loop $-1 $-1 $187 $102 #
plane-surface $-1 0 34.163870235193386 0 0 -1 0 0 0 -1 forward_v I I I I #
coedge $-1 $269 $185 $188 $270 forward $103 $-1 #
coedge $-1 $191 $105 $106 $179 reversed $63 $-1 #
coedge $-1 $185 $269 $105 $177 reversed $103 $-1 #
edge $-1 $192 -12.963127995275213 $271 12.963127995275213 $176 $272 forward 7 unknown #
coedge $-1 $107 $106 $269 $273 forward $41 $-1 #
edge $-1 $183 -64.207281716360967 $271 64.207281716360967 $175 $274 forward 7 unknown #
coedge $-1 $188 $187 $107 $181 reversed $172 $-1 #
edge $-1 $275 -64.207281716360967 $182 64.207281716360967 $180 $276 forward 7 unknown #
vertex $-1 $109 $277 #
vertex $-1 $194 $278 #
straight-curve $-1 64.207281716360967 0 -12.963127995275213 0 -1 0 I I #
coedge $-1 $174 $176 $110 $186 reversed $103 $-1 #
edge $-1 $189 -34.163870235193386 $192 34.163870235193386 $185 $279 forward 7 unknown #
coedge $-1 $180 $111 $116 $195 forward $172 $-1 #
coedge $-1 $111 $180 $174 $270 reversed $172 $-1 #
vertex $-1 $112 $280 #
straight-curve $-1 0 34.163870235193386 12.963127995275213 -1 0 0 I I #
coedge $-1 $113 $175 $115 $194 reversed $63 $-1 #
vertex $-1 $186 $281 #
straight-curve $-1 0 -34.163870235193386 12.963127995275213 1 0 0 I I #
edge $-1 $118 -12.963127995275213 $183 12.963127995275213 $115 $282 forward 7 unknown #
edge $-1 $119 -12.963127995275213 $182 12.963127995275213 $116 $283 forward 7 unknown #
point $-1 64.207281716360967 -34.163870235193386 12.963127995275213 #
point $-1 64.207281716360967 34.163870235193386 12.963127995275213 #
face $-1 $284 $285 $16 $-1 $286 forward single #
loop $-1 $-1 $205 $121 #
plane-surface $-1 0 -34.163870235193386 0 0 1 0 0 0 1 forward_v I I I I #
coedge $-1 $124 $218 $125 $204 forward $71 $-1 #
edge $-1 $137 1.277975311135771 $208 4.8906555146104314 $134 $287 forward 7 unknown #
coedge $-1 $126 $125 $288 $289 reversed $45 $-1 #
edge $-1 $290 -64.207281716360967 $208 64.207281716360967 $201 $291 forward 7 unknown #
coedge $-1 $292 $293 $126 $206 forward $199 $-1 #
edge $-1 $209 -64.207281716360967 $294 64.207281716360967 $205 $295 forward 7 unknown #
coedge $-1 $296 $127 $293 $297 forward $122 $-1 #
vertex $-1 $128 $298 #
vertex $-1 $297 $299 #
straight-curve $-1 64.207281716360967 -13.433368646216781 -7.9749709274835325 0 -1 0 I I #
coedge $-1 $300 $301 $129 $212 forward $302 $-1 #
edge $-1 $219 6.1362357034569577 $216 20.730501588976605 $211 $303 forward 7 unknown #
coedge $-1 $304 $130 $135 $222 reversed $215 $-1 #
coedge $-1 $130 $304 $300 $305 forward $215 $-1 #
loop $-1 $-1 $130 $306 #
vertex $-1 $212 $307 #
straight-curve $-1 0 -34.163870235193386 -4.3622907240088722 1 0 0 I I #
coedge $-1 $201 $132 $301 $308 reversed $71 $-1 #
vertex $-1 $212 $309 #
straight-curve $-1 0 -19.569604349673739 -4.3622907240088722 -1 0 0 I I #
coedge $-1 $135 $310 $311 $312 reversed $122 $-1 #
edge $-1 $313 -12.963127995275213 $136 4.3622907240088722 $135 $314 forward 7 unknown #
point $-1 64.207281716360967 -34.163870235193386 -4.3622907240088722 #
point $-1 64.207281716360967 -19.569604349673739 -4.3622907240088722 #
face $-1 $315 $316 $17 $-1 $317 forward single #
loop $-1 $-1 $318 $139 #
plane-surface $-1 0 -26.866737292433562 -4.3622907240088722 0 0 1 1 0 0 forward_v I I I I #
coedge $-1 $142 $319 $320 $321 reversed $79 $-1 #
coedge $-1 $144 $143 $236 $322 reversed $49 $-1 #
coedge $-1 $320 $323 $143 $231 forward $324 $-1 #
edge $-1 $325 76.039610531038107 $232 86.41725768386263 $230 $326 forward 7 unknown #
vertex $-1 $321 $327 #
straight-curve $-1 64.207281716360967 14.097685914255912 6.1547787981921402 0 -1 0 I I #
vertex $-1 $322 $328 #
straight-curve $-1 -32.708418655840418 22.226873421830248 90.402313616620177 -0.75470957328743171 0 0.6560590369687036 I I #
coedge $-1 $329 $147 $229 $322 forward $140 $-1 #
coedge $-1 $147 $330 $149 $240 forward $140 $-1 #
straight-curve $-1 25.769558081293816 22.226873421830248 12.963127995275215 -1 0 0 I I #
coedge $-1 $331 $149 $332 $333 forward $79 $-1 #
edge $-1 $334 -34.163870235193386 $151 22.226873421830248 $149 $335 forward 7 unknown #
point $-1 64.207281716360967 22.226873421830248 6.1547787981921402 #
point $-1 64.207281716360967 22.226873421830248 12.963127995275213 #
face $-1 $336 $337 $18 $-1 $338 forward single #
loop $-1 $-1 $339 $153 #
plane-surface $-1 64.207281716360967 0 0 -1 0 0 0 0 1 forward_v I I I I #
loop $-1 $-1 $340 $86 #
coedge $-1 $248 $156 $341 $342 forward $87 $-1 #
coedge $-1 $156 $247 $343 $344 reversed $87 $-1 #
coedge $-1 $345 $339 $156 $250 forward $244 $-1 #
edge $-1 $346 -87.504228196218648 $347 -80.695878999135573 $249 $348 forward 7 unknown #
edge $-1 $349 1 $349 0 $157 $-1 forward 7 unknown #
vertex $-1 $158 $350 #
ellipse-curve $-1 58.977867454681608 25.637443939934002 8.0481062282604334 0.6560590369687036 0 0.75470957328743171 0.75470957328743171 0 -0.6560590369687036 1 I I #
point $-1 61.045936462430518 25.637443939934002 8.9028943597649608 #
face $-1 $351 $168 $19 $-1 $352 forward single #
loop $-1 $-1 $353 $161 #
plane-surface $-1 51.539116162587632 22.226873421830248 187.31801398882158 0 1 0 0.6560590369687036 0 0.75470957328743171 forward_v I I I I #
loop $-1 $-1 $354 $94 #
coedge $-1 $259 $259 $260 $355 forward $162 $-1 #
coedge $-1 $260 $260 $259 $355 reversed $164 $-1 #
coedge $-1 $261 $261 $165 $262 forward $266 $-1 #
edge $-1 $356 0 $356 6.2831853071796004 $261 $357 forward 7 unknown #
edge $-1 $358 1 $358 0 $166 $-1 forward 7 unknown #
vertex $-1 $167 $359 #
ellipse-curve $-1 58.977867454681608 30.753299717089632 8.0481062282604334 0.6560590369687036 0 0.75470957328743171 0.75470957328743171 0 -0.6560590369687036 1 I I #
loop $-1 $360 $261 $255 #
point $-1 61.045936462430518 30.753299717089632 8.9028943597649608 #
plane-surface $-1 64.207281716360967 0 0 -1 0 0 0 0 1 forward_v I I I I #
coedge $-1 $176 $174 $178 $273 reversed $103 $-1 #
edge $-1 $189 -12.963127995275213 $275 12.963127995275213 $188 $361 forward 7 unknown #
vertex $-1 $273 $362 #
straight-curve $-1 -64.207281716360967 -34.163870235193386 0 0 0 -1 I I #
edge $-1 $271 -34.163870235193386 $275 34.163870235193386 $269 $363 forward 7 unknown #
straight-curve $-1 0 -34.163870235193386 -12.963127995275213 -1 0 0 I I #
vertex $-1 $181 $364 #
straight-curve $-1 0 34.163870235193386 -12.963127995275213 1 0 0 I I #
point $-1 64.207281716360967 34.163870235193386 -12.963127995275213 #
point $-1 64.207281716360967 -34.163870235193386 -12.963127995275213 #
straight-curve $-1 -64.207281716360967 0 12.963127995275213 0 -1 0 I I #
point $-1 -64.207281716360967 34.163870235193386 12.963127995275213 #
point $-1 -64.207281716360967 -34.163870235193386 12.963127995275213 #
straight-curve $-1 64.207281716360967 -34.163870235193386 0 0 0 -1 I I #
straight-curve $-1 64.207281716360967 34.163870235193386 0 0 0 -1 I I #
face $-1 $306 $365 $16 $-1 $366 reversed single #
loop $-1 $-1 $311 $198 #
plane-surface $-1 0 0 12.963127995275213 0 0 1 1 0 0 forward_v I I I I #
straight-curve $-1 64.207281716360967 -19.569604349673739 -3.0843154128731012 0 0 -1 I I #
coedge $-1 $301 $367 $203 $289 forward $302 $-1 #
edge $-1 $294 -20.730501588976605 $290 -6.1362357034569577 $288 $368 forward 7 unknown #
vertex $-1 $289 $369 #
straight-curve $-1 0 -19.569604349673739 -7.9749709274835325 1 0 0 I I #
coedge $-1 $370 $205 $367 $371 forward $199 $-1 #
coedge $-1 $205 $370 $207 $297 reversed $199 $-1 #
vertex $-1 $371 $372 #
straight-curve $-1 0 -34.163870235193386 -7.9749709274835325 -1 0 0 I I #
coedge $-1 $310 $207 $373 $374 reversed $122 $-1 #
edge $-1 $209 7.9749709274835325 $375 12.963127995275213 $207 $314 forward 7 unknown #
point $-1 64.207281716360967 -19.569604349673739 -7.9749709274835325 #
point $-1 64.207281716360967 -34.163870235193386 -7.9749709274835325 #
coedge $-1 $376 $211 $214 $305 reversed $302 $-1 #
coedge $-1 $211 $288 $218 $308 forward $302 $-1 #
loop $-1 $-1 $211 $377 #
straight-curve $-1 -64.207281716360967 -13.433368646216781 -4.3622907240088722 0 -1 0 I I #
coedge $-1 $214 $213 $378 $379 reversed $215 $-1 #
edge $-1 $380 -12.963127995275213 $216 4.3622907240088722 $300 $381 forward 7 unknown #
face $-1 $377 $215 $16 $-1 $200 reversed single #
point $-1 -64.207281716360967 -34.163870235193386 -4.3622907240088722 #
edge $-1 $290 -4.8906555146104314 $219 -1.277975311135771 $301 $382 forward 7 unknown #
point $-1 -64.207281716360967 -19.569604349673739 -4.3622907240088722 #
coedge $-1 $221 $296 $383 $384 reversed $122 $-1 #
coedge $-1 $385 $378 $221 $312 forward $285 $-1 #
edge $-1 $313 -34.163870235193386 $386 34.163870235193386 $221 $387 forward 7 unknown #
vertex $-1 $312 $388 #
straight-curve $-1 64.207281716360967 -34.163870235193386 0 0 0 -1 I I #
face $-1 $389 $390 $17 $-1 $391 forward single #
loop $-1 $-1 $392 $225 #
plane-surface $-1 0 -26.866737292433562 -7.9749709274835325 0 0 1 1 0 0 forward_v I I I I #
coedge $-1 $393 $394 $331 $395 reversed $226 $-1 #
coedge $-1 $228 $396 $397 $398 reversed $79 $-1 #
coedge $-1 $399 $230 $228 $321 forward $324 $-1 #
edge $-1 $232 -6.1547787981921402 $400 12.963127995275213 $228 $401 forward 7 unknown #
edge $-1 $234 8.1291875075743363 $325 20.066184320937488 $236 $402 forward 7 unknown #
coedge $-1 $230 $403 $329 $404 reversed $324 $-1 #
loop $-1 $-1 $230 $405 #
vertex $-1 $404 $406 #
straight-curve $-1 -1.0126499548970358 34.163870235193386 62.849601651743363 0.75470957328743171 0 -0.6560590369687036 I I #
point $-1 64.207281716360967 34.1638702351934 6.1547787981921402 #
point $-1 56.375172061925227 22.226873421830248 12.963127995275215 #
coedge $-1 $407 $236 $323 $404 forward $140 $-1 #
coedge $-1 $237 $407 $408 $409 forward $140 $-1 #
coedge $-1 $410 $239 $318 $395 forward $79 $-1 #
coedge $-1 $408 $411 $239 $333 reversed $412 $-1 #
edge $-1 $334 -12.963127995275213 $413 4.3622907240088722 $239 $414 forward 7 unknown #
vertex $-1 $240 $415 #
straight-curve $-1 64.207281716360967 0 12.963127995275213 0 1 0 I I #
face $-1 $416 $417 $18 $-1 $418 reversed single #
loop $-1 $-1 $343 $243 #
plane-surface $-1 0 0 12.963127995275213 0 0 1 1 0 0 forward_v I I I I #
coedge $-1 $249 $419 $340 $420 forward $244 $-1 #
coedge $-1 $421 $341 $339 $420 reversed $246 $-1 #
coedge $-1 $340 $422 $247 $342 reversed $246 $-1 #
edge $-1 $346 -128.41456343272191 $423 -118.03691627989738 $247 $424 forward 7 unknown #
coedge $-1 $425 $426 $248 $344 forward $337 $-1 #
edge $-1 $347 -38.437723635067151 $423 -30.605613980631411 $343 $427 forward 7 unknown #
coedge $-1 $428 $249 $426 $429 reversed $244 $-1 #
vertex $-1 $420 $430 #
vertex $-1 $344 $431 #
straight-curve $-1 64.207281716360967 22.226873421830248 93.659006994410788 0 0 1 I I #
vertex $-1 $251 $432 #
point $-1 59.732577027969043 25.637443939934002 7.3920471912917298 #
face $-1 $433 $434 $19 $-1 $435 reversed single #
plane-surface $-1 -32.708418655840418 28.195371828511824 90.402313616620177 0.6560590369687036 0 0.75470957328743171 0.75470957328743171 0 -0.6560590369687036 forward_v I I I I #
coedge $-1 $436 $437 $438 $439 reversed $256 $-1 #
coedge $-1 $354 $354 $-1 $440 forward $258 $-1 #
edge $-1 $441 0 $441 6.2831853071796004 $259 $442 forward 7 unknown #
vertex $-1 $262 $443 #
ellipse-curve $-1 60.291226889143097 25.637443939934002 9.5589533967336795 -0.6560590369687036 0 -0.75470957328743171 0.75470957328743171 0 -0.6560590369687036 1 I I #
vertex $-1 $263 $444 #
point $-1 59.732577027969043 30.753299717089632 7.3920471912917298 #
loop $-1 $-1 $445 $255 #
straight-curve $-1 -64.207281716360967 34.163870235193386 0 0 0 -1 I I #
point $-1 -64.207281716360967 -34.163870235193386 -12.963127995275213 #
straight-curve $-1 -64.207281716360967 0 -12.963127995275213 0 1 0 I I #
point $-1 -64.207281716360967 34.163870235193386 -12.963127995275213 #
loop $-1 $-1 $373 $284 #
plane-surface $-1 0 0 -12.963127995275213 0 0 1 1 0 0 forward_v I I I I #
coedge $-1 $288 $446 $292 $371 reversed $302 $-1 #
straight-curve $-1 -64.207281716360967 -13.433368646216781 -7.9749709274835325 0 1 0 I I #
point $-1 -64.207281716360967 -19.569604349673739 -7.9749709274835325 #
coedge $-1 $293 $292 $447 $448 reversed $199 $-1 #
edge $-1 $294 7.9749709274835325 $449 12.963127995275213 $367 $381 forward 7 unknown #
point $-1 -64.207281716360967 -34.163870235193386 -7.9749709274835325 #
coedge $-1 $447 $450 $296 $374 forward $365 $-1 #
edge $-1 $451 -34.163870235193386 $375 34.163870235193386 $296 $452 forward 7 unknown #
vertex $-1 $297 $453 #
coedge $-1 $454 $300 $455 $456 reversed $302 $-1 #
face $-1 $457 $302 $16 $-1 $458 reversed single #
coedge $-1 $311 $455 $304 $379 forward $285 $-1 #
edge $-1 $380 -64.207281716360967 $313 64.207281716360967 $304 $459 forward 7 unknown #
vertex $-1 $456 $460 #
straight-curve $-1 -64.207281716360967 -34.163870235193386 0 0 0 -1 I I #
straight-curve $-1 -64.207281716360967 -19.569604349673739 -3.0843154128731012 0 0 1 I I #
coedge $-1 $461 $462 $310 $384 forward $463 $-1 #
edge $-1 $386 -12.963127995275213 $451 12.963127995275213 $310 $464 forward 7 unknown #
coedge $-1 $455 $311 $462 $465 forward $285 $-1 #
vertex $-1 $312 $466 #
straight-curve $-1 64.207281716360967 0 12.963127995275213 0 1 0 I I #
point $-1 64.207281716360967 -34.163870235193386 12.963127995275213 #
face $-1 $467 $468 $17 $-1 $469 reversed single #
loop $-1 $-1 $470 $315 #
plane-surface $-1 0 -19.569604349673739 -6.1686308257462024 0 -1 0 0 0 -1 forward_v I I I I #
coedge $-1 $471 $472 $473 $474 reversed $316 $-1 #
coedge $-1 $475 $318 $411 $476 reversed $226 $-1 #
coedge $-1 $318 $475 $477 $478 reversed $226 $-1 #
edge $-1 $413 -20.730501588976605 $479 -6.1362357034569577 $331 $480 forward 7 unknown #
coedge $-1 $319 $473 $481 $482 forward $79 $-1 #
coedge $-1 $483 $484 $319 $398 forward $485 $-1 #
edge $-1 $400 -34.163870235193386 $486 34.163870235193386 $319 $487 forward 7 unknown #
coedge $-1 $403 $320 $484 $488 reversed $324 $-1 #
vertex $-1 $398 $489 #
straight-curve $-1 64.207281716360967 34.163870235193386 0 0 0 -1 I I #
straight-curve $-1 56.37517206192522 14.097685914255912 12.963127995275229 0 1 0 I I #
coedge $-1 $323 $399 $490 $491 reversed $324 $-1 #
edge $-1 $325 -56.375172061925227 $492 64.207281716360967 $323 $493 forward 7 unknown #
face $-1 $-1 $324 $17 $-1 $494 reversed single #
point $-1 56.375172061925227 34.1638702351934 12.963127995275215 #
coedge $-1 $330 $329 $495 $496 forward $140 $-1 #
coedge $-1 $497 $332 $330 $409 reversed $412 $-1 #
edge $-1 $498 -64.207281716360967 $334 64.207281716360967 $408 $499 forward 7 unknown #
coedge $-1 $473 $331 $470 $500 forward $79 $-1 #
coedge $-1 $332 $497 $393 $476 forward $412 $-1 #
loop $-1 $-1 $411 $501 #
vertex $-1 $476 $502 #
straight-curve $-1 64.207281716360967 -34.163870235193386 0 0 0 -1 I I #
point $-1 64.207281716360967 -34.163870235193386 12.963127995275213 #
face $-1 $503 $504 $18 $-1 $505 forward single #
loop $-1 $-1 $506 $336 #
plane-surface $-1 0 -26.866737292433562 -4.3622907240088722 0 0 1 1 0 0 forward_v I I I I #
coedge $-1 $339 $507 $508 $509 reversed $244 $-1 #
edge $-1 $510 -20.066184320937488 $346 -8.1291875075743363 $339 $511 forward 7 unknown #
coedge $-1 $422 $340 $512 $513 reversed $246 $-1 #
coedge $-1 $341 $421 $425 $514 reversed $246 $-1 #
vertex $-1 $514 $515 #
straight-curve $-1 -32.708418655840418 22.226873421830248 90.402313616620177 -0.75470957328743171 0 0.6560590369687036 I I #
coedge $-1 $516 $343 $422 $514 forward $337 $-1 #
coedge $-1 $343 $517 $345 $429 forward $337 $-1 #
straight-curve $-1 25.769558081293816 22.226873421830248 12.963127995275215 -1 0 0 I I #
coedge $-1 $518 $345 $519 $520 forward $244 $-1 #
edge $-1 $521 -34.163870235193386 $347 22.226873421830248 $345 $522 forward 7 unknown #
point $-1 64.207281716360967 22.226873421830248 6.1547787981921402 #
point $-1 64.207281716360967 22.226873421830248 12.963127995275213 #
point $-1 58.321808417712909 25.637443939934002 7.2933966549730016 #
face $-1 $523 $524 $19 $-1 $525 forward single #
loop $-1 $-1 $526 $351 #
plane-surface $-1 64.207281716360967 0 0 -1 0 0 0 0 1 forward_v I I I I #
coedge $-1 $437 $353 $527 $528 forward $256 $-1 #
coedge $-1 $353 $436 $529 $530 reversed $256 $-1 #
coedge $-1 $531 $526 $353 $439 forward $434 $-1 #
edge $-1 $532 -87.504228196218648 $533 -80.695878999135573 $438 $534 forward 7 unknown #
edge $-1 $535 1 $535 0 $354 $-1 forward 7 unknown #
vertex $-1 $355 $536 #
ellipse-curve $-1 58.977867454681608 25.637443939934002 8.0481062282604334 0.6560590369687036 0 0.75470957328743171 0.75470957328743171 0 -0.6560590369687036 1 I I #
point $-1 61.045936462430518 25.637443939934002 8.9028943597649608 #
point $-1 58.321808417712909 30.753299717089632 7.2933966549730016 #
coedge $-1 $537 $527 $526 $538 reversed $360 $-1 #
coedge $-1 $367 $454 $539 $540 reversed $302 $-1 #
coedge $-1 $539 $373 $370 $448 forward $365 $-1 #
edge $-1 $375 -64.207281716360967 $449 64.207281716360967 $370 $541 forward 7 unknown #
vertex $-1 $540 $542 #
coedge $-1 $373 $539 $461 $543 forward $365 $-1 #
vertex $-1 $374 $544 #
straight-curve $-1 64.207281716360967 0 -12.963127995275213 0 -1 0 I I #
point $-1 64.207281716360967 -34.163870235193386 -12.963127995275213 #
coedge $-1 $446 $376 $545 $546 forward $302 $-1 #
coedge $-1 $378 $385 $376 $456 forward $285 $-1 #
edge $-1 $547 -34.163870235193386 $380 34.163870235193386 $376 $548 forward 7 unknown #
face $-1 $-1 $463 $16 $-1 $549 reversed single #
plane-surface $-1 -64.207281716360967 0 0 1 0 0 0 0 -1 forward_v I I I I #
straight-curve $-1 0 -34.163870235193386 12.963127995275213 1 0 0 I I #
point $-1 -64.207281716360967 -34.163870235193386 12.963127995275213 #
coedge $-1 $545 $383 $450 $543 reversed $463 $-1 #
coedge $-1 $383 $545 $385 $465 reversed $463 $-1 #
loop $-1 $-1 $383 $457 #
straight-curve $-1 64.207281716360967 34.163870235193386 0 0 0 -1 I I #
edge $-1 $386 -64.207281716360967 $547 64.207281716360967 $462 $550 forward 7 unknown #
point $-1 64.207281716360967 34.163870235193386 12.963127995275213 #
face $-1 $501 $485 $17 $-1 $551 reversed single #
loop $-1 $-1 $552 $389 #
plane-surface $-1 0 -34.163870235193386 0 0 1 0 0 0 1 forward_v I I I I #
coedge $-1 $477 $553 $410 $500 reversed $390 $-1 #
coedge $-1 $554 $392 $553 $555 reversed $316 $-1 #
coedge $-1 $392 $554 $552 $556 reversed $316 $-1 #
coedge $-1 $396 $410 $392 $474 forward $79 $-1 #
edge $-1 $557 6.1362357034569577 $558 20.730501588976605 $473 $559 forward 7 unknown #
coedge $-1 $394 $393 $560 $561 reversed $226 $-1 #
edge $-1 $562 -64.207281716360967 $413 64.207281716360967 $411 $563 forward 7 unknown #
coedge $-1 $564 $470 $394 $478 forward $390 $-1 #
edge $-1 $479 -64.207281716360967 $565 64.207281716360967 $477 $566 forward 7 unknown #
vertex $-1 $395 $567 #
straight-curve $-1 64.207281716360967 -13.433368646216781 -4.3622907240088722 0 1 0 I I #
coedge $-1 $552 $568 $396 $482 reversed $468 $-1 #
edge $-1 $558 7.9749709274835325 $486 12.963127995275213 $396 $414 forward 7 unknown #
coedge $-1 $569 $397 $568 $570 forward $485 $-1 #
coedge $-1 $397 $569 $399 $488 forward $485 $-1 #
loop $-1 $-1 $397 $467 #
vertex $-1 $482 $571 #
straight-curve $-1 64.207281716360967 0 -12.963127995275213 0 -1 0 I I #
edge $-1 $572 -64.207281716360967 $400 64.207281716360967 $399 $573 forward 7 unknown #
point $-1 64.207281716360967 34.163870235193386 -12.963127995275213 #
coedge $-1 $574 $495 $403 $491 forward $575 $-1 #
edge $-1 $492 -12.963127995275213 $572 12.963127995275213 $403 $576 forward 7 unknown #
vertex $-1 $404 $577 #
straight-curve $-1 0 34.163870235193386 12.963127995275213 -1 0 0 I I #
plane-surface $-1 0 34.163870235193386 0 0 -1 0 0 0 -1 forward_v I I I I #
coedge $-1 $490 $578 $407 $496 reversed $575 $-1 #
edge $-1 $492 -34.163870235193386 $498 34.163870235193386 $495 $579 forward 7 unknown #
coedge $-1 $411 $408 $578 $580 forward $412 $-1 #
vertex $-1 $496 $581 #
straight-curve $-1 0 -34.163870235193386 12.963127995275213 1 0 0 I I #
edge $-1 $479 1.277975311135771 $557 4.8906555146104314 $410 $582 forward 7 unknown #
face $-1 $583 $412 $17 $-1 $469 reversed single #
point $-1 64.207281716360967 -34.163870235193386 -4.3622907240088722 #
face $-1 $584 $585 $18 $-1 $586 forward single #
loop $-1 $-1 $587 $416 #
plane-surface $-1 0 -26.866737292433562 -7.9749709274835325 0 0 1 1 0 0 forward_v I I I I #
coedge $-1 $588 $589 $518 $590 reversed $417 $-1 #
coedge $-1 $419 $591 $592 $593 reversed $244 $-1 #
coedge $-1 $594 $512 $419 $509 forward $595 $-1 #
edge $-1 $510 -6.1547787981921402 $596 12.963127995275213 $419 $597 forward 7 unknown #
vertex $-1 $509 $598 #
straight-curve $-1 64.207281716360967 14.097685914255912 6.1547787981921402 0 -1 0 I I #
coedge $-1 $508 $599 $421 $513 forward $595 $-1 #
edge $-1 $600 76.039610531038107 $510 86.41725768386263 $512 $601 forward 7 unknown #
edge $-1 $423 8.1291875075743363 $600 20.066184320937488 $425 $602 forward 7 unknown #
point $-1 56.375172061925227 22.226873421830248 12.963127995275215 #
coedge $-1 $603 $425 $599 $604 forward $337 $-1 #
coedge $-1 $426 $603 $605 $606 forward $337 $-1 #
coedge $-1 $607 $428 $506 $590 forward $244 $-1 #
coedge $-1 $605 $608 $428 $520 reversed $609 $-1 #
edge $-1 $521 -12.963127995275213 $610 4.3622907240088722 $428 $611 forward 7 unknown #
vertex $-1 $429 $612 #
straight-curve $-1 64.207281716360967 0 12.963127995275213 0 1 0 I I #
face $-1 $613 $614 $19 $-1 $615 reversed single #
loop $-1 $-1 $529 $433 #
plane-surface $-1 0 0 12.963127995275213 0 0 1 1 0 0 forward_v I I I I #
coedge $-1 $438 $616 $445 $538 forward $434 $-1 #
coedge $-1 $445 $617 $436 $528 reversed $360 $-1 #
edge $-1 $532 -128.41456343272191 $618 -118.03691627989738 $436 $619 forward 7 unknown #
coedge $-1 $620 $621 $437 $530 forward $524 $-1 #
edge $-1 $533 -38.437723635067151 $618 -30.605613980631411 $529 $622 forward 7 unknown #
coedge $-1 $623 $438 $621 $624 reversed $434 $-1 #
vertex $-1 $538 $625 #
vertex $-1 $530 $626 #
straight-curve $-1 64.207281716360967 22.226873421830248 93.659006994410788 0 0 1 I I #
vertex $-1 $440 $627 #
point $-1 59.732577027969043 25.637443939934002 7.3920471912917298 #
coedge $-1 $617 $445 $628 $629 reversed $360 $-1 #
edge $-1 $630 -20.066184320937488 $532 -8.1291875075743363 $526 $631 forward 7 unknown #
coedge $-1 $450 $447 $446 $540 forward $365 $-1 #
edge $-1 $449 -34.163870235193386 $632 34.163870235193386 $446 $633 forward 7 unknown #
straight-curve $-1 0 -34.163870235193386 -12.963127995275213 -1 0 0 I I #
point $-1 -64.207281716360967 -34.163870235193386 -12.963127995275213 #
edge $-1 $632 -64.207281716360967 $451 64.207281716360967 $461 $634 forward 7 unknown #
point $-1 64.207281716360967 34.163870235193386 -12.963127995275213 #
coedge $-1 $462 $461 $454 $546 reversed $463 $-1 #
edge $-1 $547 -12.963127995275213 $632 12.963127995275213 $545 $635 forward 7 unknown #
vertex $-1 $465 $636 #
straight-curve $-1 -64.207281716360967 0 12.963127995275213 0 -1 0 I I #
plane-surface $-1 0 34.163870235193386 0 0 -1 0 0 0 -1 forward_v I I I I #
straight-curve $-1 0 34.163870235193386 12.963127995275213 -1 0 0 I I #
plane-surface $-1 0 0 -12.963127995275213 0 0 1 1 0 0 forward_v I I I I #
coedge $-1 $637 $481 $472 $556 forward $468 $-1 #
coedge $-1 $470 $564 $471 $555 forward $390 $-1 #
coedge $-1 $472 $471 $638 $639 reversed $316 $-1 #
edge $-1 $640 -64.207281716360967 $557 64.207281716360967 $553 $641 forward 7 unknown #
edge $-1 $558 -64.207281716360967 $642 64.207281716360967 $552 $643 forward 7 unknown #
vertex $-1 $474 $644 #
vertex $-1 $482 $645 #
straight-curve $-1 64.207281716360967 -13.433368646216781 -7.9749709274835325 0 -1 0 I I #
coedge $-1 $578 $646 $475 $561 forward $575 $-1 #
edge $-1 $565 6.1362357034569577 $562 20.730501588976605 $560 $647 forward 7 unknown #
vertex $-1 $561 $648 #
straight-curve $-1 0 -34.163870235193386 -4.3622907240088722 1 0 0 I I #
coedge $-1 $553 $477 $646 $649 reversed $390 $-1 #
vertex $-1 $561 $650 #
straight-curve $-1 0 -19.569604349673739 -4.3622907240088722 -1 0 0 I I #
point $-1 64.207281716360967 -19.569604349673739 -4.3622907240088722 #
coedge $-1 $481 $637 $483 $570 reversed $468 $-1 #
coedge $-1 $484 $483 $574 $651 forward $485 $-1 #
edge $-1 $486 -64.207281716360967 $652 64.207281716360967 $568 $653 forward 7 unknown #
point $-1 64.207281716360967 -34.163870235193386 -12.963127995275213 #
vertex $-1 $488 $654 #
straight-curve $-1 0 34.163870235193386 -12.963127995275213 1 0 0 I I #
coedge $-1 $655 $490 $569 $651 reversed $575 $-1 #
loop $-1 $-1 $560 $583 #
straight-curve $-1 -64.207281716360967 34.163870235193386 0 0 0 -1 I I #
point $-1 -64.207281716360967 34.163870235193386 12.963127995275213 #
coedge $-1 $495 $560 $497 $580 reversed $575 $-1 #
straight-curve $-1 -64.207281716360967 0 12.963127995275213 0 -1 0 I I #
edge $-1 $498 -12.963127995275213 $562 4.3622907240088722 $578 $656 forward 7 unknown #
point $-1 -64.207281716360967 -34.163870235193386 12.963127995275213 #
straight-curve $-1 64.207281716360967 -19.569604349673739 -3.0843154128731012 0 0 -1 I I #
face $-1 $405 $575 $17 $-1 $657 reversed single #
face $-1 $658 $659 $18 $-1 $660 reversed single #
loop $-1 $-1 $661 $503 #
plane-surface $-1 0 -19.569604349673739 -6.1686308257462024 0 -1 0 0 0 -1 forward_v I I I I #
coedge $-1 $662 $663 $664 $665 reversed $504 $-1 #
coedge $-1 $666 $506 $608 $667 reversed $417 $-1 #
coedge $-1 $506 $666 $668 $669 reversed $417 $-1 #
edge $-1 $610 -20.730501588976605 $670 -6.1362357034569577 $518 $671 forward 7 unknown #
coedge $-1 $507 $664 $672 $673 forward $244 $-1 #
coedge $-1 $674 $675 $507 $593 forward $676 $-1 #
edge $-1 $596 -34.163870235193386 $677 34.163870235193386 $507 $678 forward 7 unknown #
coedge $-1 $679 $508 $675 $680 reversed $595 $-1 #
loop $-1 $-1 $512 $681 #
vertex $-1 $593 $682 #
straight-curve $-1 64.207281716360967 34.163870235193386 0 0 0 -1 I I #
point $-1 64.207281716360967 34.1638702351934 6.1547787981921402 #
coedge $-1 $512 $679 $516 $604 reversed $595 $-1 #
vertex $-1 $604 $683 #
straight-curve $-1 -1.0126499548970358 34.163870235193386 62.849601651743363 0.75470957328743171 0 -0.6560590369687036 I I #
straight-curve $-1 56.37517206192522 14.097685914255912 12.963127995275229 0 1 0 I I #
coedge $-1 $517 $516 $684 $685 forward $337 $-1 #
edge $-1 $600 -56.375172061925227 $686 64.207281716360967 $599 $687 forward 7 unknown #
coedge $-1 $688 $519 $517 $606 reversed $609 $-1 #
edge $-1 $689 -64.207281716360967 $521 64.207281716360967 $605 $690 forward 7 unknown #
coedge $-1 $664 $518 $661 $691 forward $244 $-1 #
coedge $-1 $519 $688 $588 $667 forward $609 $-1 #
loop $-1 $-1 $608 $692 #
vertex $-1 $667 $693 #
straight-curve $-1 64.207281716360967 -34.163870235193386 0 0 0 -1 I I #
point $-1 64.207281716360967 -34.163870235193386 12.963127995275213 #
face $-1 $694 $695 $19 $-1 $696 forward single #
loop $-1 $-1 $697 $523 #
plane-surface $-1 0 -26.866737292433562 -4.3622907240088722 0 0 1 1 0 0 forward_v I I I I #
coedge $-1 $526 $698 $699 $700 reversed $434 $-1 #
coedge $-1 $527 $537 $620 $701 reversed $360 $-1 #
vertex $-1 $701 $702 #
straight-curve $-1 -32.708418655840418 22.226873421830248 90.402313616620177 -0.75470957328743171 0 0.6560590369687036 I I #
coedge $-1 $703 $529 $617 $701 forward $524 $-1 #
coedge $-1 $529 $704 $531 $624 forward $524 $-1 #
straight-curve $-1 25.769558081293816 22.226873421830248 12.963127995275215 -1 0 0 I I #
coedge $-1 $705 $531 $706 $707 forward $434 $-1 #
edge $-1 $708 -34.163870235193386 $533 22.226873421830248 $531 $709 forward 7 unknown #
point $-1 64.207281716360967 22.226873421830248 6.1547787981921402 #
point $-1 64.207281716360967 22.226873421830248 12.963127995275213 #
point $-1 58.321808417712909 25.637443939934002 7.2933966549730016 #
coedge $-1 $699 $710 $537 $629 forward $711 $-1 #
edge $-1 $712 76.039610531038107 $630 86.41725768386263 $628 $713 forward 7 unknown #
vertex $-1 $700 $714 #
straight-curve $-1 64.207281716360967 14.097685914255912 6.1547787981921402 0 -1 0 I I #
vertex $-1 $543 $715 #
straight-curve $-1 -64.207281716360967 0 -12.963127995275213 0 1 0 I I #
straight-curve $-1 0 34.163870235193386 -12.963127995275213 1 0 0 I I #
straight-curve $-1 -64.207281716360967 34.163870235193386 0 0 0 -1 I I #
point $-1 -64.207281716360967 34.163870235193386 12.963127995275213 #
coedge $-1 $568 $552 $655 $716 forward $468 $-1 #
coedge $-1 $646 $655 $554 $639 forward $575 $-1 #
edge $-1 $642 -20.730501588976605 $640 -6.1362357034569577 $638 $717 forward 7 unknown #
vertex $-1 $639 $718 #
straight-curve $-1 0 -19.569604349673739 -7.9749709274835325 1 0 0 I I #
vertex $-1 $716 $719 #
straight-curve $-1 0 -34.163870235193386 -7.9749709274835325 -1 0 0 I I #
point $-1 64.207281716360967 -19.569604349673739 -7.9749709274835325 #
point $-1 64.207281716360967 -34.163870235193386 -7.9749709274835325 #
coedge $-1 $560 $638 $564 $649 forward $575 $-1 #
straight-curve $-1 -64.207281716360967 -13.433368646216781 -4.3622907240088722 0 -1 0 I I #
point $-1 -64.207281716360967 -34.163870235193386 -4.3622907240088722 #
edge $-1 $640 -4.8906555146104314 $565 -1.277975311135771 $646 $720 forward 7 unknown #
point $-1 -64.207281716360967 -19.569604349673739 -4.3622907240088722 #
edge $-1 $652 -34.163870235193386 $572 34.163870235193386 $574 $721 forward 7 unknown #
vertex $-1 $651 $722 #
straight-curve $-1 0 -34.163870235193386 -12.963127995275213 -1 0 0 I I #
point $-1 -64.207281716360967 34.163870235193386 -12.963127995275213 #
coedge $-1 $638 $574 $637 $716 reversed $575 $-1 #
straight-curve $-1 -64.207281716360967 -34.163870235193386 0 0 0 -1 I I #
plane-surface $-1 -64.207281716360967 0 0 1 0 0 0 0 -1 forward_v I I I I #
face $-1 $692 $676 $18 $-1 $723 reversed single #
loop $-1 $-1 $724 $584 #
plane-surface $-1 0 -34.163870235193386 0 0 1 0 0 0 1 forward_v I I I I #
coedge $-1 $668 $725 $607 $691 reversed $585 $-1 #
coedge $-1 $726 $587 $725 $727 reversed $504 $-1 #
coedge $-1 $587 $726 $724 $728 reversed $504 $-1 #
coedge $-1 $591 $607 $587 $665 forward $244 $-1 #
edge $-1 $729 6.1362357034569577 $730 20.730501588976605 $664 $731 forward 7 unknown #
coedge $-1 $589 $588 $732 $733 reversed $417 $-1 #
edge $-1 $734 -64.207281716360967 $610 64.207281716360967 $608 $735 forward 7 unknown #
coedge $-1 $736 $661 $589 $669 forward $585 $-1 #
edge $-1 $670 -64.207281716360967 $737 64.207281716360967 $668 $738 forward 7 unknown #
vertex $-1 $590 $739 #
straight-curve $-1 64.207281716360967 -13.433368646216781 -4.3622907240088722 0 1 0 I I #
coedge $-1 $724 $740 $591 $673 reversed $659 $-1 #
edge $-1 $730 7.9749709274835325 $677 12.963127995275213 $591 $611 forward 7 unknown #
coedge $-1 $741 $592 $740 $742 forward $676 $-1 #
coedge $-1 $592 $741 $594 $680 forward $676 $-1 #
loop $-1 $-1 $592 $658 #
vertex $-1 $673 $743 #
straight-curve $-1 64.207281716360967 0 -12.963127995275213 0 -1 0 I I #
coedge $-1 $599 $594 $744 $745 reversed $595 $-1 #
edge $-1 $746 -64.207281716360967 $596 64.207281716360967 $594 $747 forward 7 unknown #
face $-1 $-1 $595 $18 $-1 $748 reversed single #
point $-1 64.207281716360967 34.163870235193386 -12.963127995275213 #
point $-1 56.375172061925227 34.1638702351934 12.963127995275215 #
coedge $-1 $744 $749 $603 $685 reversed $750 $-1 #
edge $-1 $686 -34.163870235193386 $689 34.163870235193386 $684 $751 forward 7 unknown #
vertex $-1 $604 $752 #
straight-curve $-1 0 34.163870235193386 12.963127995275213 -1 0 0 I I #
coedge $-1 $608 $605 $749 $753 forward $609 $-1 #
vertex $-1 $685 $754 #
straight-curve $-1 0 -34.163870235193386 12.963127995275213 1 0 0 I I #
edge $-1 $670 1.277975311135771 $729 4.8906555146104314 $607 $755 forward 7 unknown #
face $-1 $756 $609 $18 $-1 $660 reversed single #
point $-1 64.207281716360967 -34.163870235193386 -4.3622907240088722 #
face $-1 $757 $758 $19 $-1 $759 forward single #
loop $-1 $-1 $760 $613 #
plane-surface $-1 0 -26.866737292433562 -7.9749709274835325 0 0 1 1 0 0 forward_v I I I I #
coedge $-1 $761 $762 $705 $763 reversed $614 $-1 #
coedge $-1 $616 $764 $765 $766 reversed $434 $-1 #
coedge $-1 $767 $628 $616 $700 forward $711 $-1 #
edge $-1 $630 -6.1547787981921402 $768 12.963127995275213 $616 $769 forward 7 unknown #
edge $-1 $618 8.1291875075743363 $712 20.066184320937488 $620 $770 forward 7 unknown #
point $-1 56.375172061925227 22.226873421830248 12.963127995275215 #
coedge $-1 $771 $620 $710 $772 forward $524 $-1 #
coedge $-1 $621 $771 $773 $774 forward $524 $-1 #
coedge $-1 $775 $623 $697 $763 forward $434 $-1 #
coedge $-1 $773 $776 $623 $707 reversed $777 $-1 #
edge $-1 $708 -12.963127995275213 $778 4.3622907240088722 $623 $779 forward 7 unknown #
vertex $-1 $624 $780 #
straight-curve $-1 64.207281716360967 0 12.963127995275213 0 1 0 I I #
coedge $-1 $628 $781 $703 $772 reversed $711 $-1 #
loop $-1 $-1 $628 $782 #
vertex $-1 $772 $783 #
straight-curve $-1 -1.0126499548970358 34.163870235193386 62.849601651743363 0.75470957328743171 0 -0.6560590369687036 I I #
point $-1 64.207281716360967 34.1638702351934 6.1547787981921402 #
point $-1 -64.207281716360967 34.163870235193386 -12.963127995275213 #
edge $-1 $642 7.9749709274835325 $652 12.963127995275213 $655 $656 forward 7 unknown #
straight-curve $-1 -64.207281716360967 -13.433368646216781 -7.9749709274835325 0 1 0 I I #
point $-1 -64.207281716360967 -19.569604349673739 -7.9749709274835325 #
point $-1 -64.207281716360967 -34.163870235193386 -7.9749709274835325 #
straight-curve $-1 -64.207281716360967 -19.569604349673739 -3.0843154128731012 0 0 1 I I #
straight-curve $-1 -64.207281716360967 0 -12.963127995275213 0 1 0 I I #
point $-1 -64.207281716360967 -34.163870235193386 -12.963127995275213 #
plane-surface $-1 0 0 -12.963127995275213 0 0 1 1 0 0 forward_v I I I I #
coedge $-1 $784 $672 $663 $728 forward $659 $-1 #
coedge $-1 $661 $736 $662 $727 forward $585 $-1 #
coedge $-1 $663 $662 $785 $786 reversed $504 $-1 #
edge $-1 $787 -64.207281716360967 $729 64.207281716360967 $725 $788 forward 7 unknown #
edge $-1 $730 -64.207281716360967 $789 64.207281716360967 $724 $790 forward 7 unknown #
vertex $-1 $665 $791 #
vertex $-1 $673 $792 #
straight-curve $-1 64.207281716360967 -13.433368646216781 -7.9749709274835325 0 -1 0 I I #
coedge $-1 $749 $793 $666 $733 forward $750 $-1 #
edge $-1 $737 6.1362357034569577 $734 20.730501588976605 $732 $794 forward 7 unknown #
vertex $-1 $733 $795 #
straight-curve $-1 0 -34.163870235193386 -4.3622907240088722 1 0 0 I I #
coedge $-1 $725 $668 $793 $796 reversed $585 $-1 #
vertex $-1 $733 $797 #
straight-curve $-1 0 -19.569604349673739 -4.3622907240088722 -1 0 0 I I #
point $-1 64.207281716360967 -19.569604349673739 -4.3622907240088722 #
coedge $-1 $672 $784 $674 $742 reversed $659 $-1 #
coedge $-1 $675 $674 $798 $799 forward $676 $-1 #
edge $-1 $677 -64.207281716360967 $800 64.207281716360967 $740 $801 forward 7 unknown #
point $-1 64.207281716360967 -34.163870235193386 -12.963127995275213 #
coedge $-1 $798 $684 $679 $745 forward $750 $-1 #
edge $-1 $686 -12.963127995275213 $746 12.963127995275213 $679 $802 forward 7 unknown #
vertex $-1 $680 $803 #
straight-curve $-1 0 34.163870235193386 -12.963127995275213 1 0 0 I I #
plane-surface $-1 0 34.163870235193386 0 0 -1 0 0 0 -1 forward_v I I I I #
coedge $-1 $684 $732 $688 $753 reversed $750 $-1 #
loop $-1 $-1 $732 $756 #
straight-curve $-1 -64.207281716360967 0 12.963127995275213 0 -1 0 I I #
point $-1 -64.207281716360967 34.163870235193386 12.963127995275213 #
edge $-1 $689 -12.963127995275213 $734 4.3622907240088722 $749 $804 forward 7 unknown #
point $-1 -64.207281716360967 -34.163870235193386 12.963127995275213 #
straight-curve $-1 64.207281716360967 -19.569604349673739 -3.0843154128731012 0 0 -1 I I #
face $-1 $681 $750 $18 $-1 $805 reversed single #
face $-1 $806 $807 $19 $-1 $808 reversed single #
loop $-1 $-1 $809 $694 #
plane-surface $-1 0 -19.569604349673739 -6.1686308257462024 0 -1 0 0 0 -1 forward_v I I I I #
coedge $-1 $810 $811 $812 $813 reversed $695 $-1 #
coedge $-1 $814 $697 $776 $815 reversed $614 $-1 #
coedge $-1 $697 $814 $816 $817 reversed $614 $-1 #
edge $-1 $778 -20.730501588976605 $818 -6.1362357034569577 $705 $819 forward 7 unknown #
coedge $-1 $698 $812 $820 $821 forward $434 $-1 #
coedge $-1 $822 $823 $698 $766 forward $824 $-1 #
edge $-1 $768 -34.163870235193386 $825 34.163870235193386 $698 $826 forward 7 unknown #
coedge $-1 $781 $699 $823 $827 reversed $711 $-1 #
vertex $-1 $766 $828 #
straight-curve $-1 64.207281716360967 34.163870235193386 0 0 0 -1 I I #
straight-curve $-1 56.37517206192522 14.097685914255912 12.963127995275229 0 1 0 I I #
coedge $-1 $704 $703 $829 $830 forward $524 $-1 #
edge $-1 $712 -56.375172061925227 $831 64.207281716360967 $710 $832 forward 7 unknown #
coedge $-1 $833 $706 $704 $774 reversed $777 $-1 #
edge $-1 $834 -64.207281716360967 $708 64.207281716360967 $773 $835 forward 7 unknown #
coedge $-1 $812 $705 $809 $836 forward $434 $-1 #
coedge $-1 $706 $833 $761 $815 forward $777 $-1 #
loop $-1 $-1 $776 $837 #
vertex $-1 $815 $838 #
straight-curve $-1 64.207281716360967 -34.163870235193386 0 0 0 -1 I I #
point $-1 64.207281716360967 -34.163870235193386 12.963127995275213 #
coedge $-1 $710 $767 $839 $840 reversed $711 $-1 #
face $-1 $-1 $711 $19 $-1 $841 reversed single #
point $-1 56.375172061925227 34.1638702351934 12.963127995275215 #
coedge $-1 $740 $724 $842 $843 forward $659 $-1 #
coedge $-1 $793 $842 $726 $786 forward $750 $-1 #
edge $-1 $789 -20.730501588976605 $787 -6.1362357034569577 $785 $844 forward 7 unknown #
vertex $-1 $786 $845 #
straight-curve $-1 0 -19.569604349673739 -7.9749709274835325 1 0 0 I I #
vertex $-1 $843 $846 #
straight-curve $-1 0 -34.163870235193386 -7.9749709274835325 -1 0 0 I I #
point $-1 64.207281716360967 -19.569604349673739 -7.9749709274835325 #
point $-1 64.207281716360967 -34.163870235193386 -7.9749709274835325 #
coedge $-1 $732 $785 $736 $796 forward $750 $-1 #
straight-curve $-1 -64.207281716360967 -13.433368646216781 -4.3622907240088722 0 -1 0 I I #
point $-1 -64.207281716360967 -34.163870235193386 -4.3622907240088722 #
edge $-1 $787 -4.8906555146104314 $737 -1.277975311135771 $793 $847 forward 7 unknown #
point $-1 -64.207281716360967 -19.569604349673739 -4.3622907240088722 #
coedge $-1 $842 $744 $741 $799 reversed $750 $-1 #
edge $-1 $800 -34.163870235193386 $746 34.163870235193386 $798 $848 forward 7 unknown #
vertex $-1 $799 $849 #
straight-curve $-1 0 -34.163870235193386 -12.963127995275213 -1 0 0 I I #
straight-curve $-1 -64.207281716360967 34.163870235193386 0 0 0 -1 I I #
point $-1 -64.207281716360967 34.163870235193386 -12.963127995275213 #
straight-curve $-1 -64.207281716360967 -34.163870235193386 0 0 0 -1 I I #
plane-surface $-1 -64.207281716360967 0 0 1 0 0 0 0 -1 forward_v I I I I #
face $-1 $837 $824 $19 $-1 $850 reversed single #
loop $-1 $-1 $851 $757 #
plane-surface $-1 0 -34.163870235193386 0 0 1 0 0 0 1 forward_v I I I I #
coedge $-1 $816 $852 $775 $836 reversed $758 $-1 #
coedge $-1 $853 $760 $852 $854 reversed $695 $-1 #
coedge $-1 $760 $853 $851 $855 reversed $695 $-1 #
coedge $-1 $764 $775 $760 $813 forward $434 $-1 #
edge $-1 $856 6.1362357034569577 $857 20.730501588976605 $812 $858 forward 7 unknown #
coedge $-1 $762 $761 $859 $860 reversed $614 $-1 #
edge $-1 $861 -64.207281716360967 $778 64.207281716360967 $776 $862 forward 7 unknown #
coedge $-1 $863 $809 $762 $817 forward $758 $-1 #
edge $-1 $818 -64.207281716360967 $864 64.207281716360967 $816 $865 forward 7 unknown #
vertex $-1 $763 $866 #
straight-curve $-1 64.207281716360967 -13.433368646216781 -4.3622907240088722 0 1 0 I I #
coedge $-1 $851 $867 $764 $821 reversed $807 $-1 #
edge $-1 $857 7.9749709274835325 $825 12.963127995275213 $764 $779 forward 7 unknown #
coedge $-1 $868 $765 $867 $869 forward $824 $-1 #
coedge $-1 $765 $868 $767 $827 forward $824 $-1 #
loop $-1 $-1 $765 $806 #
vertex $-1 $821 $870 #
straight-curve $-1 64.207281716360967 0 -12.963127995275213 0 -1 0 I I #
edge $-1 $871 -64.207281716360967 $768 64.207281716360967 $767 $872 forward 7 unknown #
point $-1 64.207281716360967 34.163870235193386 -12.963127995275213 #
coedge $-1 $839 $873 $771 $830 reversed $874 $-1 #
edge $-1 $831 -34.163870235193386 $834 34.163870235193386 $829 $875 forward 7 unknown #
vertex $-1 $772 $876 #
straight-curve $-1 0 34.163870235193386 12.963127995275213 -1 0 0 I I #
coedge $-1 $776 $773 $873 $877 forward $777 $-1 #
vertex $-1 $830 $878 #
straight-curve $-1 0 -34.163870235193386 12.963127995275213 1 0 0 I I #
edge $-1 $818 1.277975311135771 $856 4.8906555146104314 $775 $879 forward 7 unknown #
face $-1 $880 $777 $19 $-1 $808 reversed single #
point $-1 64.207281716360967 -34.163870235193386 -4.3622907240088722 #
coedge $-1 $881 $829 $781 $840 forward $874 $-1 #
edge $-1 $831 -12.963127995275213 $871 12.963127995275213 $781 $882 forward 7 unknown #
plane-surface $-1 0 34.163870235193386 0 0 -1 0 0 0 -1 forward_v I I I I #
coedge $-1 $785 $798 $784 $843 reversed $750 $-1 #
edge $-1 $789 7.9749709274835325 $800 12.963127995275213 $842 $804 forward 7 unknown #
straight-curve $-1 -64.207281716360967 -13.433368646216781 -7.9749709274835325 0 1 0 I I #
point $-1 -64.207281716360967 -19.569604349673739 -7.9749709274835325 #
point $-1 -64.207281716360967 -34.163870235193386 -7.9749709274835325 #
straight-curve $-1 -64.207281716360967 -19.569604349673739 -3.0843154128731012 0 0 1 I I #
straight-curve $-1 -64.207281716360967 0 -12.963127995275213 0 1 0 I I #
point $-1 -64.207281716360967 -34.163870235193386 -12.963127995275213 #
plane-surface $-1 0 0 -12.963127995275213 0 0 1 1 0 0 forward_v I I I I #
coedge $-1 $883 $820 $811 $855 forward $807 $-1 #
coedge $-1 $809 $863 $810 $854 forward $758 $-1 #
coedge $-1 $811 $810 $884 $885 reversed $695 $-1 #
edge $-1 $886 -64.207281716360967 $856 64.207281716360967 $852 $887 forward 7 unknown #
edge $-1 $857 -64.207281716360967 $888 64.207281716360967 $851 $889 forward 7 unknown #
vertex $-1 $813 $890 #
vertex $-1 $821 $891 #
straight-curve $-1 64.207281716360967 -13.433368646216781 -7.9749709274835325 0 -1 0 I I #
coedge $-1 $873 $892 $814 $860 forward $874 $-1 #
edge $-1 $864 6.1362357034569577 $861 20.730501588976605 $859 $893 forward 7 unknown #
vertex $-1 $860 $894 #
straight-curve $-1 0 -34.163870235193386 -4.3622907240088722 1 0 0 I I #
coedge $-1 $852 $816 $892 $895 reversed $758 $-1 #
vertex $-1 $860 $896 #
straight-curve $-1 0 -19.569604349673739 -4.3622907240088722 -1 0 0 I I #
point $-1 64.207281716360967 -19.569604349673739 -4.3622907240088722 #
coedge $-1 $820 $883 $822 $869 reversed $807 $-1 #
coedge $-1 $823 $822 $881 $897 forward $824 $-1 #
edge $-1 $825 -64.207281716360967 $898 64.207281716360967 $867 $899 forward 7 unknown #
point $-1 64.207281716360967 -34.163870235193386 -12.963127995275213 #
vertex $-1 $827 $900 #
straight-curve $-1 0 34.163870235193386 -12.963127995275213 1 0 0 I I #
coedge $-1 $829 $859 $833 $877 reversed $874 $-1 #
loop $-1 $-1 $859 $880 #
straight-curve $-1 -64.207281716360967 0 12.963127995275213 0 -1 0 I I #
point $-1 -64.207281716360967 34.163870235193386 12.963127995275213 #
edge $-1 $834 -12.963127995275213 $861 4.3622907240088722 $873 $901 forward 7 unknown #
point $-1 -64.207281716360967 -34.163870235193386 12.963127995275213 #
straight-curve $-1 64.207281716360967 -19.569604349673739 -3.0843154128731012 0 0 -1 I I #
face $-1 $782 $874 $19 $-1 $902 reversed single #
coedge $-1 $903 $839 $868 $897 reversed $874 $-1 #
straight-curve $-1 -64.207281716360967 34.163870235193386 0 0 0 -1 I I #
coedge $-1 $867 $851 $903 $904 forward $807 $-1 #
coedge $-1 $892 $903 $853 $885 forward $874 $-1 #
edge $-1 $888 -20.730501588976605 $886 -6.1362357034569577 $884 $905 forward 7 unknown #
vertex $-1 $885 $906 #
straight-curve $-1 0 -19.569604349673739 -7.9749709274835325 1 0 0 I I #
vertex $-1 $904 $907 #
straight-curve $-1 0 -34.163870235193386 -7.9749709274835325 -1 0 0 I I #
point $-1 64.207281716360967 -19.569604349673739 -7.9749709274835325 #
point $-1 64.207281716360967 -34.163870235193386 -7.9749709274835325 #
coedge $-1 $859 $884 $863 $895 forward $874 $-1 #
straight-curve $-1 -64.207281716360967 -13.433368646216781 -4.3622907240088722 0 -1 0 I I #
point $-1 -64.207281716360967 -34.163870235193386 -4.3622907240088722 #
edge $-1 $886 -4.8906555146104314 $864 -1.277975311135771 $892 $908 forward 7 unknown #
point $-1 -64.207281716360967 -19.569604349673739 -4.3622907240088722 #
edge $-1 $898 -34.163870235193386 $871 34.163870235193386 $881 $909 forward 7 unknown #
vertex $-1 $897 $910 #
straight-curve $-1 0 -34.163870235193386 -12.963127995275213 -1 0 0 I I #
point $-1 -64.207281716360967 34.163870235193386 -12.963127995275213 #
straight-curve $-1 -64.207281716360967 -34.163870235193386 0 0 0 -1 I I #
plane-surface $-1 -64.207281716360967 0 0 1 0 0 0 0 -1 forward_v I I I I #
coedge $-1 $884 $881 $883 $904 reversed $874 $-1 #
edge $-1 $888 7.9749709274835325 $898 12.963127995275213 $903 $901 forward 7 unknown #
straight-curve $-1 -64.207281716360967 -13.433368646216781 -7.9749709274835325 0 1 0 I I #
point $-1 -64.207281716360967 -19.569604349673739 -7.9749709274835325 #
point $-1 -64.207281716360967 -34.163870235193386 -7.9749709274835325 #
straight-curve $-1 -64.207281716360967 -19.569604349673739 -3.0843154128731012 0 0 1 I I #
straight-curve $-1 -64.207281716360967 0 -12.963127995275213 0 1 0 I I #
point $-1 -64.207281716360967 -34.163870235193386 -12.963127995275213 #
End-of-ACIS-data 