500 0 14 0           
7 Unknown 11 ACIS 5.0 NT 24 Fri Mar 26 19:03:06 1999 
-1 9.9999999999999995e-007 1e-010 
body $-1 $14 $-1 $15 #
body $-1 $16 $-1 $17 #
body $-1 $18 $-1 $19 #
body $-1 $20 $-1 $21 #
body $-1 $22 $-1 $23 #
body $-1 $24 $-1 $25 #
body $-1 $26 $-1 $27 #
body $-1 $28 $-1 $29 #
body $-1 $30 $-1 $31 #
body $-1 $32 $-1 $33 #
body $-1 $34 $-1 $35 #
body $-1 $36 $-1 $37 #
body $-1 $38 $-1 $39 #
body $-1 $40 $-1 $41 #
lump $-1 $-1 $42 $0 #
transform $-1 1 0 0 0 1 0 0 0 1 68.273567918942831 28.643977790218294 11.85053120876297 1 rotate no_reflect no_shear #
lump $-1 $-1 $43 $1 #
transform $-1 1 0 0 0 1 0 0 0 1 68.273567918942831 28.643977790218294 11.85053120876297 1 rotate no_reflect no_shear #
lump $-1 $-1 $44 $2 #
transform $-1 1 0 0 0 1 0 0 0 1 68.273567918942831 28.643977790218294 11.85053120876297 1 rotate no_reflect no_shear #
lump $-1 $-1 $45 $3 #
transform $-1 1 0 0 0 1 0 0 0 1 68.273567918942831 28.643977790218294 11.85053120876297 1 rotate no_reflect no_shear #
lump $-1 $-1 $46 $4 #
transform $-1 1 0 0 0 1 0 0 0 1 68.273567918942831 28.643977790218294 11.85053120876297 1 rotate no_reflect no_shear #
lump $-1 $-1 $47 $5 #
transform $-1 1 0 0 0 1 0 0 0 1 68.273567918942831 28.643977790218294 11.85053120876297 1 rotate no_reflect no_shear #
lump $-1 $-1 $48 $6 #
transform $-1 1 0 0 0 1 0 0 0 1 68.273567918942831 28.643977790218294 11.85053120876297 1 rotate no_reflect no_shear #
lump $-1 $-1 $49 $7 #
transform $-1 1 0 0 0 1 0 0 0 1 68.273567918942831 28.643977790218294 11.85053120876297 1 rotate no_reflect no_shear #
lump $-1 $-1 $50 $8 #
transform $-1 1 0 0 0 1 0 0 0 1 68.273567918942831 28.643977790218294 11.85053120876297 1 rotate no_reflect no_shear #
lump $-1 $-1 $51 $9 #
transform $-1 1 0 0 0 1 0 0 0 1 68.273567918942831 28.643977790218294 11.85053120876297 1 rotate no_reflect no_shear #
lump $-1 $-1 $52 $10 #
transform $-1 1 0 0 0 1 0 0 0 1 68.273567918942831 28.643977790218294 11.85053120876297 1 rotate no_reflect no_shear #
lump $-1 $-1 $53 $11 #
transform $-1 1 0 0 0 1 0 0 0 1 68.273567918942831 28.643977790218294 11.85053120876297 1 rotate no_reflect no_shear #
lump $-1 $-1 $54 $12 #
transform $-1 1 0 0 0 1 0 0 0 1 68.273567918942831 28.643977790218294 11.85053120876297 1 rotate no_reflect no_shear #
lump $-1 $-1 $55 $13 #
transform $-1 1 0 0 0 1 0 0 0 1 68.273567918942831 28.643977790218294 11.85053120876297 1 rotate no_reflect no_shear #
shell $-1 $-1 $-1 $56 $-1 $14 #
shell $-1 $-1 $-1 $57 $-1 $16 #
shell $-1 $-1 $-1 $58 $-1 $18 #
shell $-1 $-1 $-1 $59 $-1 $20 #
shell $-1 $-1 $-1 $60 $-1 $22 #
shell $-1 $-1 $-1 $61 $-1 $24 #
shell $-1 $-1 $-1 $62 $-1 $26 #
shell $-1 $-1 $-1 $63 $-1 $28 #
shell $-1 $-1 $-1 $64 $-1 $30 #
shell $-1 $-1 $-1 $65 $-1 $32 #
shell $-1 $-1 $-1 $66 $-1 $34 #
shell $-1 $-1 $-1 $67 $-1 $36 #
shell $-1 $-1 $-1 $68 $-1 $38 #
shell $-1 $-1 $-1 $69 $-1 $40 #
face $-1 $70 $71 $42 $-1 $72 forward single #
face $-1 $73 $74 $43 $-1 $75 forward single #
face $-1 $76 $77 $44 $-1 $78 reversed single #
face $-1 $79 $80 $45 $-1 $81 forward single #
face $-1 $82 $83 $46 $-1 $84 reversed single #
face $-1 $85 $86 $47 $-1 $87 forward single #
face $-1 $88 $89 $48 $-1 $90 reversed single #
face $-1 $91 $92 $49 $-1 $93 forward single #
face $-1 $94 $95 $50 $-1 $96 reversed single #
face $-1 $97 $98 $51 $-1 $99 forward single #
face $-1 $100 $101 $52 $-1 $102 reversed single #
face $-1 $103 $104 $53 $-1 $105 forward single #
face $-1 $106 $107 $54 $-1 $108 forward single #
face $-1 $109 $110 $55 $-1 $111 forward single #
face $-1 $112 $113 $42 $-1 $114 reversed single #
loop $-1 $-1 $115 $56 #
plane-surface $-1 0 0 11.85053120876297 0 0 1 1 0 0 forward_v I I I I #
face $-1 $116 $117 $43 $-1 $118 forward single #
loop $-1 $-1 $119 $57 #
plane-surface $-1 0 -28.643977790218294 0 0 1 0 0 0 1 forward_v I I I I #
face $-1 $120 $121 $44 $-1 $122 reversed single #
loop $-1 $-1 $123 $58 #
plane-surface $-1 -159.6414368175827 -14.772570724021188 104.77849115879441 0 1 0 -0.66913061440640931 0 0.74314481823134659 forward_v I I I I #
face $-1 $124 $125 $45 $-1 $126 forward single #
loop $-1 $127 $128 $59 #
cone-surface $-1 -62.943217146471795 -11.1955270967625 6.9281913660854455 0.66913061440640931 0 -0.74314481823134659 0.74314481823134659 0 0.66913061440640931 1 I I 0 1 1 forward I I I I #
face $-1 $129 $130 $46 $-1 $131 reversed single #
loop $-1 $-1 $132 $60 #
plane-surface $-1 -159.6414368175827 -3.3994914215713496 104.77849115879441 0 1 0 -0.66913061440640931 0 0.74314481823134659 forward_v I I I I #
face $-1 $133 $134 $47 $-1 $135 forward single #
loop $-1 $136 $137 $61 #
cone-surface $-1 -62.943217146471795 0.17755220568733776 6.9281913660854455 0.66913061440640931 0 -0.74314481823134659 0.74314481823134659 0 0.66913061440640931 1 I I 0 1 1 forward I I I I #
face $-1 $138 $139 $48 $-1 $140 reversed single #
loop $-1 $-1 $141 $62 #
plane-surface $-1 -159.6414368175827 7.9735878808784886 104.77849115879441 0 1 0 -0.66913061440640931 0 0.74314481823134659 forward_v I I I I #
face $-1 $142 $143 $49 $-1 $144 forward single #
loop $-1 $145 $146 $63 #
cone-surface $-1 -62.943217146471795 11.55063150813718 6.9281913660854455 0.66913061440640931 0 -0.74314481823134659 0.74314481823134659 0 0.66913061440640931 1 I I 0 1 1 forward I I I I #
face $-1 $147 $148 $50 $-1 $149 reversed single #
loop $-1 $-1 $150 $64 #
plane-surface $-1 -159.6414368175827 19.346667183328329 104.77849115879441 0 1 0 -0.66913061440640931 0 0.74314481823134659 forward_v I I I I #
face $-1 $151 $152 $51 $-1 $153 forward single #
loop $-1 $154 $155 $65 #
cone-surface $-1 -62.943217146471795 22.923710810587018 6.9281913660854455 0.66913061440640931 0 -0.74314481823134659 0.74314481823134659 0 0.66913061440640931 1 I I 0 1 1 forward I I I I #
face $-1 $156 $157 $52 $-1 $158 reversed single #
loop $-1 $-1 $159 $66 #
plane-surface $-1 71.643748767365679 11.307005787663108 193.16329365899549 0 -1 0 -0.71933980857756763 0 -0.69465836192734942 forward_v I I I I #
face $-1 $160 $161 $53 $-1 $162 forward single #
loop $-1 $163 $164 $67 #
cone-surface $-1 61.812698094170294 0.45476076037270374 5.2146075136676693 -0.71933980857756763 0 -0.69465836192734942 0.69465836192734942 0 -0.71933980857756763 1 I I 0 1 1 forward I I I I #
face $-1 $165 $166 $54 $-1 $167 forward single #
loop $-1 $168 $169 $68 #
cone-surface $-1 61.812698094170294 4.524352645606605 5.2146075136676693 -0.71933980857756763 0 -0.69465836192734942 0.69465836192734942 0 -0.71933980857756763 1 I I 0 1 1 forward I I I I #
face $-1 $170 $171 $55 $-1 $172 forward single #
loop $-1 $173 $174 $69 #
cone-surface $-1 61.812698094170294 8.5939445308405098 5.2146075136676693 -0.71933980857756763 0 -0.69465836192734942 0.69465836192734942 0 -0.71933980857756763 1 I I 0 1 1 forward I I I I #
face $-1 $175 $176 $42 $-1 $177 reversed single #
loop $-1 $-1 $178 $70 #
plane-surface $-1 0 0 -11.85053120876297 0 0 1 1 0 0 forward_v I I I I #
coedge $-1 $179 $180 $181 $182 forward $71 $-1 #
face $-1 $183 $184 $43 $-1 $185 reversed single #
loop $-1 $-1 $186 $73 #
plane-surface $-1 0 0 11.85053120876297 0 0 1 1 0 0 forward_v I I I I #
coedge $-1 $187 $188 $189 $190 forward $74 $-1 #
face $-1 $191 $192 $44 $-1 $193 reversed single #
loop $-1 $-1 $194 $76 #
plane-surface $-1 -68.273567918942831 -11.195527096762497 3.3041947165378787 -0.66913061440640931 0 0.74314481823134659 0.74314481823134659 0 0.66913061440640931 forward_v I I I I #
coedge $-1 $195 $196 $197 $198 reversed $77 $-1 #
face $-1 $-1 $199 $45 $-1 $200 forward single #
loop $-1 $201 $202 $79 #
cone-surface $-1 -62.024135095548935 -11.1955270967625 5.9074473604047846 0.66913061440640931 0 -0.74314481823134659 0.3715724091156733 0 0.33456530720320465 1 I I -0.70710678118654746 0.70710678118654746 0.5 forward I I I I #
loop $-1 $-1 $203 $59 #
coedge $-1 $128 $128 $204 $205 reversed $80 $-1 #
face $-1 $206 $207 $46 $-1 $208 reversed single #
loop $-1 $-1 $209 $82 #
plane-surface $-1 -68.273567918942831 0.17755220568734131 3.3041947165378787 -0.66913061440640931 0 0.74314481823134659 0.74314481823134659 0 0.66913061440640931 forward_v I I I I #
coedge $-1 $210 $211 $212 $213 reversed $83 $-1 #
face $-1 $-1 $214 $47 $-1 $215 forward single #
loop $-1 $216 $217 $85 #
cone-surface $-1 -62.024135095548935 0.17755220568733776 5.9074473604047846 0.66913061440640931 0 -0.74314481823134659 0.3715724091156733 0 0.33456530720320465 1 I I -0.70710678118654746 0.70710678118654746 0.5 forward I I I I #
loop $-1 $-1 $218 $61 #
coedge $-1 $137 $137 $219 $220 reversed $86 $-1 #
face $-1 $221 $222 $48 $-1 $223 reversed single #
loop $-1 $-1 $224 $88 #
plane-surface $-1 -68.273567918942831 11.55063150813718 3.3041947165378787 -0.66913061440640931 0 0.74314481823134659 0.74314481823134659 0 0.66913061440640931 forward_v I I I I #
coedge $-1 $225 $226 $227 $228 reversed $89 $-1 #
face $-1 $-1 $229 $49 $-1 $230 forward single #
loop $-1 $231 $232 $91 #
cone-surface $-1 -62.024135095548935 11.55063150813718 5.9074473604047846 0.66913061440640931 0 -0.74314481823134659 0.3715724091156733 0 0.33456530720320465 1 I I -0.70710678118654746 0.70710678118654746 0.5 forward I I I I #
loop $-1 $-1 $233 $63 #
coedge $-1 $146 $146 $234 $235 reversed $92 $-1 #
face $-1 $236 $237 $50 $-1 $238 reversed single #
loop $-1 $-1 $239 $94 #
plane-surface $-1 -68.273567918942831 22.923710810587018 3.3041947165378787 -0.66913061440640931 0 0.74314481823134659 0.74314481823134659 0 0.66913061440640931 forward_v I I I I #
coedge $-1 $240 $241 $242 $243 reversed $95 $-1 #
face $-1 $-1 $244 $51 $-1 $245 forward single #
loop $-1 $246 $247 $97 #
cone-surface $-1 -62.024135095548935 22.923710810587018 5.9074473604047846 0.66913061440640931 0 -0.74314481823134659 0.3715724091156733 0 0.33456530720320465 1 I I -0.70710678118654746 0.70710678118654746 0.5 forward I I I I #
loop $-1 $-1 $248 $65 #
coedge $-1 $155 $155 $249 $250 reversed $98 $-1 #
face $-1 $251 $252 $52 $-1 $253 reversed single #
loop $-1 $-1 $254 $100 #
plane-surface $-1 -26.580041788074112 4.524352645606605 98.309683951978556 0.71933980857756763 0 0.69465836192734942 0.69465836192734942 0 -0.71933980857756763 forward_v I I I I #
coedge $-1 $255 $256 $257 $258 reversed $101 $-1 #
face $-1 $-1 $259 $53 $-1 $260 forward single #
loop $-1 $261 $262 $103 #
cone-surface $-1 60.672647567749152 0.45476076037270374 4.1136735437207967 -0.71933980857756763 0 -0.69465836192734942 0.34732918096367471 0 -0.35966990428878381 1 I I -0.70710678118654746 0.70710678118654746 0.5 forward I I I I #
loop $-1 $-1 $263 $67 #
coedge $-1 $164 $164 $264 $265 reversed $104 $-1 #
face $-1 $-1 $266 $54 $-1 $267 forward single #
loop $-1 $268 $269 $106 #
cone-surface $-1 60.672647567749152 4.524352645606605 4.1136735437207967 -0.71933980857756763 0 -0.69465836192734942 0.34732918096367471 0 -0.35966990428878381 1 I I -0.70710678118654746 0.70710678118654746 0.5 forward I I I I #
loop $-1 $-1 $270 $68 #
coedge $-1 $169 $169 $271 $272 reversed $107 $-1 #
face $-1 $-1 $273 $55 $-1 $274 forward single #
loop $-1 $275 $276 $109 #
cone-surface $-1 60.672647567749152 8.5939445308405098 4.1136735437207967 -0.71933980857756763 0 -0.69465836192734942 0.34732918096367471 0 -0.35966990428878381 1 I I -0.70710678118654746 0.70710678118654746 0.5 forward I I I I #
loop $-1 $-1 $277 $69 #
coedge $-1 $174 $174 $278 $279 reversed $110 $-1 #
face $-1 $280 $281 $42 $-1 $282 reversed single #
loop $-1 $-1 $283 $112 #
plane-surface $-1 0 -28.643977790218294 0 0 1 0 0 0 1 forward_v I I I I #
coedge $-1 $284 $285 $286 $287 forward $113 $-1 #
coedge $-1 $288 $115 $289 $290 forward $71 $-1 #
coedge $-1 $115 $288 $291 $292 forward $71 $-1 #
coedge $-1 $293 $294 $115 $182 reversed $295 $-1 #
edge $-1 $296 -28.643977790218294 $297 28.643977790218294 $181 $298 forward 7 unknown #
face $-1 $299 $300 $43 $-1 $301 reversed single #
loop $-1 $-1 $302 $116 #
plane-surface $-1 -68.273567918942831 0 0 1 0 0 0 0 -1 forward_v I I I I #
coedge $-1 $303 $304 $305 $306 forward $117 $-1 #
coedge $-1 $305 $119 $302 $307 reversed $74 $-1 #
coedge $-1 $119 $305 $308 $309 reversed $74 $-1 #
coedge $-1 $310 $311 $119 $190 reversed $300 $-1 #
edge $-1 $312 -68.273567918942831 $313 68.273567918942831 $189 $314 forward 7 unknown #
face $-1 $315 $316 $44 $-1 $317 forward single #
loop $-1 $-1 $318 $120 #
plane-surface $-1 -159.6414368175827 -7.6184834695038059 104.77849115879441 0 -1 0 0.66913061440640931 0 -0.74314481823134659 forward_v I I I I #
coedge $-1 $319 $320 $321 $322 reversed $121 $-1 #
coedge $-1 $196 $123 $323 $324 reversed $77 $-1 #
coedge $-1 $123 $195 $319 $325 reversed $77 $-1 #
coedge $-1 $321 $326 $123 $198 forward $316 $-1 #
edge $-1 $327 11.547150489848519 $328 21.038818547351319 $197 $329 forward 7 unknown #
loop $-1 $-1 $204 $124 #
plane-surface $-1 -68.273567918942831 -11.195527096762497 3.3041947165378787 -0.66913061440640931 0 0.74314481823134659 0.74314481823134659 0 0.66913061440640931 forward_v I I I I #
loop $-1 $-1 $330 $79 #
coedge $-1 $202 $202 $203 $331 reversed $125 $-1 #
coedge $-1 $203 $203 $202 $331 forward $127 $-1 #
coedge $-1 $204 $204 $128 $205 forward $199 $-1 #
edge $-1 $332 0 $332 6.2831853071796004 $204 $333 forward 7 unknown #
face $-1 $334 $335 $46 $-1 $336 forward single #
loop $-1 $-1 $337 $129 #
plane-surface $-1 -159.6414368175827 3.7545958329460323 104.77849115879441 0 -1 0 0.66913061440640931 0 -0.74314481823134659 forward_v I I I I #
coedge $-1 $338 $339 $340 $341 reversed $130 $-1 #
coedge $-1 $211 $132 $342 $343 reversed $83 $-1 #
coedge $-1 $132 $210 $338 $344 reversed $83 $-1 #
coedge $-1 $340 $345 $132 $213 forward $335 $-1 #
edge $-1 $346 11.547150489848519 $347 21.038818547351319 $212 $348 forward 7 unknown #
loop $-1 $-1 $219 $133 #
plane-surface $-1 -68.273567918942831 0.17755220568734131 3.3041947165378787 -0.66913061440640931 0 0.74314481823134659 0.74314481823134659 0 0.66913061440640931 forward_v I I I I #
loop $-1 $-1 $349 $85 #
coedge $-1 $217 $217 $218 $350 reversed $134 $-1 #
coedge $-1 $218 $218 $217 $350 forward $136 $-1 #
coedge $-1 $219 $219 $137 $220 forward $214 $-1 #
edge $-1 $351 0 $351 6.2831853071796004 $219 $352 forward 7 unknown #
face $-1 $353 $354 $48 $-1 $355 forward single #
loop $-1 $-1 $356 $138 #
plane-surface $-1 -159.6414368175827 15.12767513539587 104.77849115879441 0 -1 0 0.66913061440640931 0 -0.74314481823134659 forward_v I I I I #
coedge $-1 $357 $358 $359 $360 reversed $139 $-1 #
coedge $-1 $226 $141 $361 $362 reversed $89 $-1 #
coedge $-1 $141 $225 $357 $363 reversed $89 $-1 #
coedge $-1 $359 $364 $141 $228 forward $354 $-1 #
edge $-1 $365 11.547150489848519 $366 21.038818547351319 $227 $367 forward 7 unknown #
loop $-1 $-1 $234 $142 #
plane-surface $-1 -68.273567918942831 11.55063150813718 3.3041947165378787 -0.66913061440640931 0 0.74314481823134659 0.74314481823134659 0 0.66913061440640931 forward_v I I I I #
loop $-1 $-1 $368 $91 #
coedge $-1 $232 $232 $233 $369 reversed $143 $-1 #
coedge $-1 $233 $233 $232 $369 forward $145 $-1 #
coedge $-1 $234 $234 $146 $235 forward $229 $-1 #
edge $-1 $370 0 $370 6.2831853071796004 $234 $371 forward 7 unknown #
face $-1 $372 $373 $50 $-1 $374 forward single #
loop $-1 $-1 $375 $147 #
plane-surface $-1 -159.6414368175827 26.500754437845707 104.77849115879441 0 -1 0 0.66913061440640931 0 -0.74314481823134659 forward_v I I I I #
coedge $-1 $376 $377 $378 $379 reversed $148 $-1 #
coedge $-1 $241 $150 $380 $381 reversed $95 $-1 #
coedge $-1 $150 $240 $376 $382 reversed $95 $-1 #
coedge $-1 $378 $383 $150 $243 forward $373 $-1 #
edge $-1 $384 11.547150489848519 $385 21.038818547351319 $242 $386 forward 7 unknown #
loop $-1 $-1 $249 $151 #
plane-surface $-1 -68.273567918942831 22.923710810587018 3.3041947165378787 -0.66913061440640931 0 0.74314481823134659 0.74314481823134659 0 0.66913061440640931 forward_v I I I I #
loop $-1 $-1 $387 $97 #
coedge $-1 $247 $247 $248 $388 reversed $152 $-1 #
coedge $-1 $248 $248 $247 $388 forward $154 $-1 #
coedge $-1 $249 $249 $155 $250 forward $244 $-1 #
edge $-1 $389 0 $389 6.2831853071796004 $249 $390 forward 7 unknown #
face $-1 $391 $392 $52 $-1 $393 reversed single #
loop $-1 $-1 $394 $156 #
plane-surface $-1 71.643748767365679 -2.2583004964498983 193.16329365899549 0 1 0 0.71933980857756763 0 0.69465836192734942 forward_v I I I I #
coedge $-1 $395 $396 $397 $398 reversed $157 $-1 #
coedge $-1 $256 $159 $399 $400 reversed $101 $-1 #
coedge $-1 $159 $255 $395 $401 reversed $101 $-1 #
coedge $-1 $397 $402 $159 $258 forward $403 $-1 #
edge $-1 $404 -32.451693535259992 $405 -21.090715129979642 $257 $406 forward 7 unknown #
loop $-1 $-1 $264 $160 #
plane-surface $-1 -26.580041788074112 4.524352645606605 98.309683951978556 0.71933980857756763 0 0.69465836192734942 0.69465836192734942 0 -0.71933980857756763 forward_v I I I I #
loop $-1 $-1 $407 $103 #
coedge $-1 $262 $262 $263 $408 reversed $161 $-1 #
coedge $-1 $263 $263 $262 $408 forward $163 $-1 #
coedge $-1 $264 $264 $164 $265 forward $259 $-1 #
edge $-1 $409 0 $409 6.2831853071796004 $264 $410 forward 7 unknown #
loop $-1 $-1 $271 $165 #
plane-surface $-1 -26.580041788074112 4.524352645606605 98.309683951978556 0.71933980857756763 0 0.69465836192734942 0.69465836192734942 0 -0.71933980857756763 forward_v I I I I #
loop $-1 $-1 $411 $106 #
coedge $-1 $269 $269 $270 $412 reversed $166 $-1 #
coedge $-1 $270 $270 $269 $412 forward $168 $-1 #
coedge $-1 $271 $271 $169 $272 forward $266 $-1 #
edge $-1 $413 0 $413 6.2831853071796004 $271 $414 forward 7 unknown #
loop $-1 $-1 $278 $170 #
plane-surface $-1 -26.580041788074112 4.524352645606605 98.309683951978556 0.71933980857756763 0 0.69465836192734942 0.69465836192734942 0 -0.71933980857756763 forward_v I I I I #
loop $-1 $-1 $415 $109 #
coedge $-1 $276 $276 $277 $416 reversed $171 $-1 #
coedge $-1 $277 $277 $276 $416 forward $173 $-1 #
coedge $-1 $278 $278 $174 $279 forward $273 $-1 #
edge $-1 $417 0 $417 6.2831853071796004 $278 $418 forward 7 unknown #
face $-1 $419 $420 $42 $-1 $421 reversed single #
loop $-1 $-1 $422 $175 #
plane-surface $-1 -68.273567918942831 0 0 1 0 0 0 0 -1 forward_v I I I I #
coedge $-1 $423 $291 $424 $425 forward $176 $-1 #
coedge $-1 $426 $178 $423 $427 forward $113 $-1 #
coedge $-1 $178 $426 $428 $429 forward $113 $-1 #
coedge $-1 $294 $293 $178 $287 reversed $295 $-1 #
edge $-1 $430 -28.643977790218294 $431 28.643977790218294 $286 $432 forward 7 unknown #
coedge $-1 $180 $179 $433 $434 forward $71 $-1 #
coedge $-1 $435 $436 $179 $290 reversed $420 $-1 #
edge $-1 $297 -68.273567918942831 $437 68.273567918942831 $289 $438 forward 7 unknown #
coedge $-1 $283 $439 $180 $292 reversed $176 $-1 #
edge $-1 $440 -68.273567918942831 $296 68.273567918942831 $291 $441 forward 7 unknown #
coedge $-1 $286 $181 $439 $442 forward $295 $-1 #
coedge $-1 $181 $286 $435 $443 reversed $295 $-1 #
loop $-1 $-1 $293 $419 #
vertex $-1 $182 $444 #
vertex $-1 $182 $445 #
straight-curve $-1 68.273567918942831 0 11.85053120876297 0 1 0 I I #
face $-1 $446 $447 $43 $-1 $448 reversed single #
loop $-1 $-1 $310 $183 #
plane-surface $-1 0 -34.541796975536911 8.8505312087629697 0 0 1 1 0 0 forward_v I I I I #
coedge $-1 $449 $450 $187 $307 forward $184 $-1 #
coedge $-1 $451 $186 $450 $452 forward $117 $-1 #
coedge $-1 $186 $451 $453 $454 forward $117 $-1 #
coedge $-1 $188 $187 $186 $306 reversed $74 $-1 #
edge $-1 $455 -68.273567918942831 $456 68.273567918942831 $186 $457 forward 7 unknown #
edge $-1 $456 -11.85053120876297 $313 -8.8505312087629697 $302 $458 forward 7 unknown #
coedge $-1 $453 $459 $188 $309 forward $460 $-1 #
edge $-1 $312 8.8505312087629697 $455 11.85053120876297 $308 $461 forward 7 unknown #
coedge $-1 $462 $189 $459 $463 forward $300 $-1 #
coedge $-1 $189 $462 $449 $464 forward $300 $-1 #
vertex $-1 $309 $465 #
vertex $-1 $307 $466 #
straight-curve $-1 0 -28.643977790218294 8.8505312087629697 -1 0 0 I I #
face $-1 $-1 $467 $44 $-1 $468 reversed single #
loop $-1 $-1 $197 $191 #
plane-surface $-1 0 0 11.85053120876297 0 0 1 1 0 0 forward_v I I I I #
coedge $-1 $469 $470 $471 $472 reversed $192 $-1 #
coedge $-1 $473 $194 $196 $325 forward $121 $-1 #
coedge $-1 $194 $473 $469 $474 forward $121 $-1 #
coedge $-1 $471 $197 $194 $322 forward $316 $-1 #
edge $-1 $328 -9.1748071756399394 $475 -2.0207199211225575 $321 $476 forward 7 unknown #
coedge $-1 $477 $478 $195 $324 forward $467 $-1 #
edge $-1 $479 -49.085050862859326 $327 -40.538714370634239 $323 $480 forward 7 unknown #
edge $-1 $328 -12.772299321271689 $479 0 $196 $481 forward 7 unknown #
coedge $-1 $197 $471 $477 $482 forward $316 $-1 #
vertex $-1 $324 $483 #
vertex $-1 $198 $484 #
straight-curve $-1 -79.82071840879135 -14.772570724021188 11.850531208762973 1 0 0 I I #
coedge $-1 $330 $330 $-1 $485 reversed $201 $-1 #
edge $-1 $486 0 $486 6.2831853071796004 $202 $487 forward 7 unknown #
vertex $-1 $205 $488 #
ellipse-curve $-1 -63.527733890191435 -11.1955270967625 7.5773629626504189 -0.66913061440640931 0 0.74314481823134659 0.74314481823134659 0 0.66913061440640931 1 I I #
face $-1 $-1 $489 $46 $-1 $490 reversed single #
loop $-1 $-1 $212 $206 #
plane-surface $-1 0 0 11.85053120876297 0 0 1 1 0 0 forward_v I I I I #
coedge $-1 $491 $492 $493 $494 reversed $207 $-1 #
coedge $-1 $495 $209 $211 $344 forward $130 $-1 #
coedge $-1 $209 $495 $491 $496 forward $130 $-1 #
coedge $-1 $493 $212 $209 $341 forward $335 $-1 #
edge $-1 $347 -3.4882675244150203 $497 3.6658197301023616 $340 $498 forward 7 unknown #
coedge $-1 $499 $500 $210 $343 forward $489 $-1 #
edge $-1 $501 -49.085050862859326 $346 -40.538714370634239 $342 $502 forward 7 unknown #
edge $-1 $347 -12.772299321271689 $501 0 $211 $503 forward 7 unknown #
coedge $-1 $212 $493 $499 $504 forward $335 $-1 #
vertex $-1 $213 $505 #
vertex $-1 $213 $506 #
straight-curve $-1 -79.82071840879135 -3.3994914215713496 11.850531208762973 1 0 0 I I #
coedge $-1 $349 $349 $-1 $507 reversed $216 $-1 #
edge $-1 $508 0 $508 6.2831853071796004 $217 $509 forward 7 unknown #
vertex $-1 $220 $510 #
ellipse-curve $-1 -63.527733890191435 0.17755220568733776 7.5773629626504189 -0.66913061440640931 0 0.74314481823134659 0.74314481823134659 0 0.66913061440640931 1 I I #
face $-1 $-1 $511 $48 $-1 $512 reversed single #
loop $-1 $-1 $227 $221 #
plane-surface $-1 0 0 11.85053120876297 0 0 1 1 0 0 forward_v I I I I #
coedge $-1 $513 $514 $515 $516 reversed $222 $-1 #
coedge $-1 $517 $224 $226 $363 forward $139 $-1 #
coedge $-1 $224 $517 $513 $518 forward $139 $-1 #
coedge $-1 $515 $227 $224 $360 forward $354 $-1 #
edge $-1 $366 2.1982721268098988 $519 9.3523593813272807 $359 $520 forward 7 unknown #
coedge $-1 $521 $522 $225 $362 forward $511 $-1 #
edge $-1 $523 -49.085050862859326 $365 -40.538714370634239 $361 $524 forward 7 unknown #
edge $-1 $366 -12.772299321271689 $523 0 $226 $525 forward 7 unknown #
coedge $-1 $227 $515 $521 $526 forward $354 $-1 #
vertex $-1 $228 $527 #
vertex $-1 $228 $528 #
straight-curve $-1 -79.82071840879135 7.9735878808784886 11.850531208762973 1 0 0 I I #
coedge $-1 $368 $368 $-1 $529 reversed $231 $-1 #
edge $-1 $530 0 $530 6.2831853071796004 $232 $531 forward 7 unknown #
vertex $-1 $235 $532 #
ellipse-curve $-1 -63.527733890191435 11.55063150813718 7.5773629626504189 -0.66913061440640931 0 0.74314481823134659 0.74314481823134659 0 0.66913061440640931 1 I I #
face $-1 $-1 $533 $50 $-1 $534 reversed single #
loop $-1 $-1 $242 $236 #
plane-surface $-1 0 0 11.85053120876297 0 0 1 1 0 0 forward_v I I I I #
coedge $-1 $535 $536 $537 $538 reversed $237 $-1 #
coedge $-1 $539 $239 $241 $382 forward $148 $-1 #
coedge $-1 $239 $539 $535 $540 forward $148 $-1 #
coedge $-1 $537 $242 $239 $379 forward $373 $-1 #
edge $-1 $385 7.8848117780348197 $541 15.038899032552198 $378 $542 forward 7 unknown #
coedge $-1 $543 $544 $240 $381 forward $533 $-1 #
edge $-1 $545 -49.085050862859326 $384 -40.538714370634239 $380 $546 forward 7 unknown #
edge $-1 $385 -12.772299321271689 $545 0 $241 $547 forward 7 unknown #
coedge $-1 $242 $537 $543 $548 forward $373 $-1 #
vertex $-1 $243 $549 #
vertex $-1 $243 $550 #
straight-curve $-1 -79.82071840879135 19.346667183328329 11.850531208762973 1 0 0 I I #
coedge $-1 $387 $387 $-1 $551 reversed $246 $-1 #
edge $-1 $552 0 $552 6.2831853071796004 $247 $553 forward 7 unknown #
vertex $-1 $250 $554 #
ellipse-curve $-1 -63.527733890191435 22.923710810587018 7.5773629626504189 -0.66913061440640931 0 0.74314481823134659 0.74314481823134659 0 0.66913061440640931 1 I I #
face $-1 $-1 $403 $52 $-1 $555 forward single #
loop $-1 $-1 $556 $251 #
plane-surface $-1 68.273567918942831 0 0 -1 0 0 0 0 1 forward_v I I I I #
coedge $-1 $557 $558 $559 $560 reversed $252 $-1 #
coedge $-1 $561 $254 $256 $401 forward $157 $-1 #
coedge $-1 $254 $561 $557 $562 forward $157 $-1 #
coedge $-1 $559 $257 $254 $398 forward $403 $-1 #
edge $-1 $405 -9.0448294648598058 $563 4.5204768192532008 $397 $564 forward 7 unknown #
coedge $-1 $565 $566 $255 $400 forward $392 $-1 #
edge $-1 $567 -96.495753432959006 $404 -84.731115620734769 $399 $568 forward 7 unknown #
edge $-1 $405 120.19236487715187 $567 136.54713583788569 $256 $569 forward 7 unknown #
coedge $-1 $257 $559 $565 $570 forward $403 $-1 #
loop $-1 $-1 $559 $391 #
vertex $-1 $400 $571 #
vertex $-1 $258 $572 #
straight-curve $-1 35.821874383682839 11.307005787663108 11.850531208762973 -1 0 0 I I #
coedge $-1 $407 $407 $-1 $573 reversed $261 $-1 #
edge $-1 $574 0 $574 6.2831853071796004 $262 $575 forward 7 unknown #
vertex $-1 $265 $576 #
ellipse-curve $-1 62.593078716302657 0.45476076037270374 5.9682123026508656 0.71933980857756763 0 0.69465836192734942 0.69465836192734942 0 -0.71933980857756763 1 I I #
coedge $-1 $411 $411 $-1 $577 reversed $268 $-1 #
edge $-1 $578 0 $578 6.2831853071796004 $269 $579 forward 7 unknown #
vertex $-1 $272 $580 #
ellipse-curve $-1 62.593078716302657 4.524352645606605 5.9682123026508656 0.71933980857756763 0 0.69465836192734942 0.69465836192734942 0 -0.71933980857756763 1 I I #
coedge $-1 $415 $415 $-1 $581 reversed $275 $-1 #
edge $-1 $582 0 $582 6.2831853071796004 $276 $583 forward 7 unknown #
vertex $-1 $279 $584 #
ellipse-curve $-1 62.593078716302657 8.5939445308405098 5.9682123026508656 0.71933980857756763 0 0.69465836192734942 0.69465836192734942 0 -0.71933980857756763 1 I I #
face $-1 $-1 $295 $42 $-1 $585 reversed single #
loop $-1 $-1 $435 $280 #
plane-surface $-1 0 28.643977790218294 0 0 -1 0 0 0 -1 forward_v I I I I #
coedge $-1 $586 $433 $436 $587 forward $281 $-1 #
coedge $-1 $439 $283 $284 $427 reversed $176 $-1 #
coedge $-1 $433 $586 $283 $425 reversed $281 $-1 #
edge $-1 $440 -11.85053120876297 $588 11.85053120876297 $424 $589 forward 7 unknown #
coedge $-1 $285 $284 $586 $590 forward $113 $-1 #
edge $-1 $431 -68.273567918942831 $588 68.273567918942831 $423 $591 forward 7 unknown #
coedge $-1 $436 $435 $285 $429 reversed $420 $-1 #
edge $-1 $592 -68.273567918942831 $430 68.273567918942831 $428 $593 forward 7 unknown #
vertex $-1 $287 $594 #
vertex $-1 $442 $595 #
straight-curve $-1 68.273567918942831 0 -11.85053120876297 0 -1 0 I I #
coedge $-1 $422 $424 $288 $434 reversed $281 $-1 #
edge $-1 $437 -28.643977790218294 $440 28.643977790218294 $433 $596 forward 7 unknown #
coedge $-1 $428 $289 $294 $443 forward $420 $-1 #
coedge $-1 $289 $428 $422 $587 reversed $420 $-1 #
vertex $-1 $290 $597 #
straight-curve $-1 0 28.643977790218294 11.85053120876297 -1 0 0 I I #
coedge $-1 $291 $423 $293 $442 reversed $176 $-1 #
vertex $-1 $434 $598 #
straight-curve $-1 0 -28.643977790218294 11.85053120876297 1 0 0 I I #
edge $-1 $296 -11.85053120876297 $431 11.85053120876297 $293 $599 forward 7 unknown #
edge $-1 $297 -11.85053120876297 $430 11.85053120876297 $294 $600 forward 7 unknown #
point $-1 68.273567918942831 -28.643977790218294 11.85053120876297 #
point $-1 68.273567918942831 28.643977790218294 11.85053120876297 #
face $-1 $-1 $460 $43 $-1 $601 reversed single #
loop $-1 $-1 $602 $299 #
plane-surface $-1 0 -40.439616160855529 10.35053120876297 0 1 0 0 0 1 forward_v I I I I #
coedge $-1 $603 $302 $311 $464 reversed $184 $-1 #
coedge $-1 $302 $603 $303 $452 reversed $184 $-1 #
coedge $-1 $304 $303 $604 $605 forward $117 $-1 #
edge $-1 $456 28.643977790218294 $606 40.439616160855529 $450 $607 forward 7 unknown #
coedge $-1 $608 $308 $304 $454 reversed $460 $-1 #
edge $-1 $609 -40.439616160855529 $455 -28.643977790218294 $453 $610 forward 7 unknown #
vertex $-1 $309 $611 #
vertex $-1 $452 $612 #
straight-curve $-1 0 -28.643977790218294 11.85053120876297 -1 0 0 I I #
straight-curve $-1 -68.273567918942831 -28.643977790218294 0 0 0 -1 I I #
coedge $-1 $308 $608 $310 $463 reversed $460 $-1 #
loop $-1 $-1 $308 $446 #
straight-curve $-1 68.273567918942831 -28.643977790218294 0 0 0 1 I I #
coedge $-1 $311 $310 $613 $614 forward $300 $-1 #
edge $-1 $312 -5.8978191853186175 $615 5.8978191853186175 $459 $616 forward 7 unknown #
edge $-1 $617 -5.8978191853186175 $313 5.8978191853186175 $449 $618 forward 7 unknown #
point $-1 68.273567918942831 -28.643977790218294 8.8505312087629697 #
point $-1 -68.273567918942831 -28.643977790218294 8.8505312087629697 #
loop $-1 $-1 $323 $315 #
plane-surface $-1 -68.273567918942831 0 0 1 0 0 0 0 -1 forward_v I I I I #
coedge $-1 $470 $318 $320 $474 reversed $192 $-1 #
coedge $-1 $318 $469 $619 $620 reversed $192 $-1 #
coedge $-1 $326 $321 $318 $472 forward $316 $-1 #
edge $-1 $475 -21.038818547351319 $621 -11.547150489848519 $471 $622 forward 7 unknown #
coedge $-1 $320 $319 $478 $623 reversed $121 $-1 #
edge $-1 $624 0 $475 12.772299321271689 $469 $625 forward 7 unknown #
vertex $-1 $322 $626 #
straight-curve $-1 -58.781899861440031 -5.5977635483812485 11.850531208762966 0 1 0 I I #
coedge $-1 $619 $323 $326 $482 reversed $467 $-1 #
coedge $-1 $323 $619 $473 $623 forward $467 $-1 #
vertex $-1 $324 $627 #
straight-curve $-1 -68.273567918942831 -14.772570724021188 52.389245579397205 0 0 1 I I #
straight-curve $-1 -68.273567918942831 -14.772570724021188 3.3041947165378787 -0.74314481823134659 0 -0.66913061440640931 I I #
edge $-1 $621 7.6184834695038059 $327 14.772570724021188 $477 $628 forward 7 unknown #
point $-1 -68.273567918942831 -14.772570724021188 11.85053120876297 #
point $-1 -58.781899861440031 -14.772570724021188 11.85053120876297 #
edge $-1 $629 1 $629 0 $330 $-1 forward 7 unknown #
vertex $-1 $331 $630 #
ellipse-curve $-1 -62.358700402752142 -11.1955270967625 6.2790197695204579 -0.66913061440640931 0 0.74314481823134659 0.74314481823134659 0 0.66913061440640931 1 I I #
point $-1 -62.784589071960099 -11.1955270967625 8.2464935770568424 #
loop $-1 $-1 $342 $334 #
plane-surface $-1 -68.273567918942831 0 0 1 0 0 0 0 -1 forward_v I I I I #
coedge $-1 $492 $337 $339 $496 reversed $207 $-1 #
coedge $-1 $337 $491 $631 $632 reversed $207 $-1 #
coedge $-1 $345 $340 $337 $494 forward $335 $-1 #
edge $-1 $497 -21.038818547351319 $633 -11.547150489848519 $493 $634 forward 7 unknown #
coedge $-1 $339 $338 $500 $635 reversed $130 $-1 #
edge $-1 $636 0 $497 12.772299321271689 $491 $637 forward 7 unknown #
vertex $-1 $341 $638 #
straight-curve $-1 -58.781899861440031 0.088776102843670657 11.850531208762966 0 1 0 I I #
coedge $-1 $631 $342 $345 $504 reversed $489 $-1 #
coedge $-1 $342 $631 $495 $635 forward $489 $-1 #
vertex $-1 $343 $639 #
straight-curve $-1 -68.273567918942831 -3.3994914215713496 52.389245579397205 0 0 1 I I #
straight-curve $-1 -68.273567918942831 -3.3994914215713496 3.3041947165378787 -0.74314481823134659 0 -0.66913061440640931 I I #
edge $-1 $633 -3.7545958329460323 $346 3.3994914215713496 $499 $640 forward 7 unknown #
point $-1 -68.273567918942831 -3.3994914215713496 11.85053120876297 #
point $-1 -58.781899861440031 -3.3994914215713496 11.85053120876297 #
edge $-1 $641 1 $641 0 $349 $-1 forward 7 unknown #
vertex $-1 $350 $642 #
ellipse-curve $-1 -62.358700402752142 0.17755220568733776 6.2790197695204579 -0.66913061440640931 0 0.74314481823134659 0.74314481823134659 0 0.66913061440640931 1 I I #
point $-1 -62.784589071960099 0.17755220568733776 8.2464935770568424 #
loop $-1 $-1 $361 $353 #
plane-surface $-1 -68.273567918942831 0 0 1 0 0 0 0 -1 forward_v I I I I #
coedge $-1 $514 $356 $358 $518 reversed $222 $-1 #
coedge $-1 $356 $513 $643 $644 reversed $222 $-1 #
coedge $-1 $364 $359 $356 $516 forward $354 $-1 #
edge $-1 $519 -21.038818547351319 $645 -11.547150489848519 $515 $646 forward 7 unknown #
coedge $-1 $358 $357 $522 $647 reversed $139 $-1 #
edge $-1 $648 0 $519 12.772299321271689 $513 $649 forward 7 unknown #
vertex $-1 $360 $650 #
straight-curve $-1 -58.781899861440031 5.7753157540685898 11.850531208762966 0 1 0 I I #
coedge $-1 $643 $361 $364 $526 reversed $511 $-1 #
coedge $-1 $361 $643 $517 $647 forward $511 $-1 #
vertex $-1 $362 $651 #
straight-curve $-1 -68.273567918942831 7.9735878808784886 52.389245579397205 0 0 1 I I #
straight-curve $-1 -68.273567918942831 7.9735878808784886 3.3041947165378787 -0.74314481823134659 0 -0.66913061440640931 I I #
edge $-1 $645 -15.12767513539587 $365 -7.9735878808784886 $521 $652 forward 7 unknown #
point $-1 -68.273567918942831 7.9735878808784886 11.85053120876297 #
point $-1 -58.781899861440031 7.9735878808784886 11.85053120876297 #
edge $-1 $653 1 $653 0 $368 $-1 forward 7 unknown #
vertex $-1 $369 $654 #
ellipse-curve $-1 -62.358700402752142 11.55063150813718 6.2790197695204579 -0.66913061440640931 0 0.74314481823134659 0.74314481823134659 0 0.66913061440640931 1 I I #
point $-1 -62.784589071960099 11.55063150813718 8.2464935770568424 #
loop $-1 $-1 $380 $372 #
plane-surface $-1 -68.273567918942831 0 0 1 0 0 0 0 -1 forward_v I I I I #
coedge $-1 $536 $375 $377 $540 reversed $237 $-1 #
coedge $-1 $375 $535 $655 $656 reversed $237 $-1 #
coedge $-1 $383 $378 $375 $538 forward $373 $-1 #
edge $-1 $541 -21.038818547351319 $657 -11.547150489848519 $537 $658 forward 7 unknown #
coedge $-1 $377 $376 $544 $659 reversed $148 $-1 #
edge $-1 $660 0 $541 12.772299321271689 $535 $661 forward 7 unknown #
vertex $-1 $379 $662 #
straight-curve $-1 -58.781899861440031 11.461855405293509 11.850531208762966 0 1 0 I I #
coedge $-1 $655 $380 $383 $548 reversed $533 $-1 #
coedge $-1 $380 $655 $539 $659 forward $533 $-1 #
vertex $-1 $381 $663 #
straight-curve $-1 -68.273567918942831 19.346667183328329 52.389245579397205 0 0 1 I I #
straight-curve $-1 -68.273567918942831 19.346667183328329 3.3041947165378787 -0.74314481823134659 0 -0.66913061440640931 I I #
edge $-1 $657 -26.500754437845707 $384 -19.346667183328329 $543 $664 forward 7 unknown #
point $-1 -68.273567918942831 19.346667183328329 11.85053120876297 #
point $-1 -58.781899861440031 19.346667183328329 11.85053120876297 #
edge $-1 $665 1 $665 0 $387 $-1 forward 7 unknown #
vertex $-1 $388 $666 #
ellipse-curve $-1 -62.358700402752142 22.923710810587018 6.2790197695204579 -0.66913061440640931 0 0.74314481823134659 0.74314481823134659 0 0.66913061440640931 1 I I #
point $-1 -62.784589071960099 22.923710810587018 8.2464935770568424 #
plane-surface $-1 0 0 11.85053120876297 0 0 1 1 0 0 forward_v I I I I #
coedge $-1 $566 $565 $558 $667 forward $392 $-1 #
coedge $-1 $558 $394 $396 $562 reversed $252 $-1 #
coedge $-1 $394 $557 $556 $667 reversed $252 $-1 #
coedge $-1 $402 $397 $394 $560 forward $403 $-1 #
edge $-1 $563 21.090715129979642 $668 32.451693535259992 $559 $669 forward 7 unknown #
coedge $-1 $396 $395 $566 $670 reversed $157 $-1 #
edge $-1 $671 -136.54713583788569 $563 -120.19236487715187 $557 $672 forward 7 unknown #
vertex $-1 $398 $673 #
straight-curve $-1 56.912589513662468 2.2621763228033025 11.85053120876298 0 -1 0 I I #
coedge $-1 $556 $399 $402 $570 reversed $392 $-1 #
coedge $-1 $399 $556 $561 $670 forward $392 $-1 #
vertex $-1 $400 $674 #
straight-curve $-1 68.273567918942831 11.307005787663108 96.581646829497743 0 0 1 I I #
straight-curve $-1 -26.580041788074112 11.307005787663108 98.309683951978556 0.69465836192734942 0 -0.71933980857756763 I I #
edge $-1 $668 -2.2583004964498983 $404 11.307005787663108 $565 $675 forward 7 unknown #
point $-1 68.273567918942831 11.307005787663108 11.85053120876297 #
point $-1 56.912589513662482 11.307005787663108 11.850531208762973 #
edge $-1 $676 1 $676 0 $407 $-1 forward 7 unknown #
vertex $-1 $408 $677 #
ellipse-curve $-1 61.032317472037938 0.45476076037270374 4.4610027246844712 0.71933980857756763 0 0.69465836192734942 0.69465836192734942 0 -0.71933980857756763 1 I I #
point $-1 63.287737078230009 0.45476076037270374 5.2488724940733 #
edge $-1 $678 1 $678 0 $411 $-1 forward 7 unknown #
vertex $-1 $412 $679 #
ellipse-curve $-1 61.032317472037938 4.524352645606605 4.4610027246844712 0.71933980857756763 0 0.69465836192734942 0.69465836192734942 0 -0.71933980857756763 1 I I #
point $-1 63.287737078230009 4.524352645606605 5.2488724940733 #
edge $-1 $680 1 $680 0 $415 $-1 forward 7 unknown #
vertex $-1 $416 $681 #
ellipse-curve $-1 61.032317472037938 8.5939445308405098 4.4610027246844712 0.71933980857756763 0 0.69465836192734942 0.69465836192734942 0 -0.71933980857756763 1 I I #
point $-1 63.287737078230009 8.5939445308405098 5.2488724940733 #
plane-surface $-1 68.273567918942831 0 0 -1 0 0 0 0 1 forward_v I I I I #
coedge $-1 $424 $422 $426 $590 reversed $281 $-1 #
edge $-1 $437 -11.85053120876297 $592 11.85053120876297 $436 $682 forward 7 unknown #
vertex $-1 $590 $683 #
straight-curve $-1 -68.273567918942831 -28.643977790218294 0 0 0 -1 I I #
edge $-1 $588 -28.643977790218294 $592 28.643977790218294 $586 $684 forward 7 unknown #
straight-curve $-1 0 -28.643977790218294 -11.85053120876297 -1 0 0 I I #
vertex $-1 $429 $685 #
straight-curve $-1 0 28.643977790218294 -11.85053120876297 1 0 0 I I #
point $-1 68.273567918942831 28.643977790218294 -11.85053120876297 #
point $-1 68.273567918942831 -28.643977790218294 -11.85053120876297 #
straight-curve $-1 -68.273567918942831 0 11.85053120876297 0 -1 0 I I #
point $-1 -68.273567918942831 28.643977790218294 11.85053120876297 #
point $-1 -68.273567918942831 -28.643977790218294 11.85053120876297 #
straight-curve $-1 68.273567918942831 -28.643977790218294 0 0 0 -1 I I #
straight-curve $-1 68.273567918942831 28.643977790218294 0 0 0 -1 I I #
plane-surface $-1 68.273567918942831 0 0 -1 0 0 0 0 1 forward_v I I I I #
coedge $-1 $613 $604 $603 $686 forward $447 $-1 #
coedge $-1 $450 $449 $602 $686 reversed $184 $-1 #
coedge $-1 $602 $687 $451 $605 reversed $447 $-1 #
edge $-1 $606 -68.273567918942831 $609 68.273567918942831 $604 $688 forward 7 unknown #
vertex $-1 $452 $689 #
straight-curve $-1 -68.273567918942831 0 11.85053120876297 0 -1 0 I I #
coedge $-1 $459 $453 $687 $690 forward $460 $-1 #
vertex $-1 $454 $691 #
straight-curve $-1 68.273567918942831 0 11.85053120876297 0 1 0 I I #
point $-1 68.273567918942831 -28.643977790218294 11.85053120876297 #
point $-1 -68.273567918942831 -28.643977790218294 11.85053120876297 #
coedge $-1 $687 $602 $462 $614 reversed $447 $-1 #
edge $-1 $615 -68.273567918942831 $617 68.273567918942831 $613 $692 forward 7 unknown #
vertex $-1 $690 $693 #
straight-curve $-1 68.273567918942831 -34.541796975536911 8.8505312087629697 0 -1 0 I I #
vertex $-1 $464 $694 #
straight-curve $-1 -68.273567918942831 -34.541796975536911 8.8505312087629697 0 1 0 I I #
coedge $-1 $478 $477 $470 $620 forward $467 $-1 #
edge $-1 $621 40.538714370634239 $624 49.085050862859326 $619 $695 forward 7 unknown #
vertex $-1 $482 $696 #
straight-curve $-1 -79.82071840879135 -7.6184834695038059 11.850531208762973 -1 0 0 I I #
edge $-1 $624 2.0207199211225575 $479 9.1748071756399394 $478 $697 forward 7 unknown #
vertex $-1 $623 $698 #
straight-curve $-1 -68.273567918942831 -7.6184834695038059 3.3041947165378787 0.74314481823134659 0 0.66913061440640931 I I #
point $-1 -58.781899861440031 -7.6184834695038059 11.85053120876297 #
point $-1 -68.273567918942831 -14.772570724021188 3.3041947165378787 #
straight-curve $-1 -68.273567918942831 0 11.85053120876297 0 -1 0 I I #
vertex $-1 $485 $699 #
point $-1 -61.615555584520791 -11.1955270967625 6.9481503839268672 #
coedge $-1 $500 $499 $492 $632 forward $489 $-1 #
edge $-1 $633 40.538714370634239 $636 49.085050862859326 $631 $700 forward 7 unknown #
vertex $-1 $504 $701 #
straight-curve $-1 -79.82071840879135 3.7545958329460323 11.850531208762973 -1 0 0 I I #
edge $-1 $636 -3.6658197301023616 $501 3.4882675244150203 $500 $702 forward 7 unknown #
vertex $-1 $635 $703 #
straight-curve $-1 -68.273567918942831 3.7545958329460323 3.3041947165378787 0.74314481823134659 0 0.66913061440640931 I I #
point $-1 -58.781899861440031 3.7545958329460323 11.85053120876297 #
point $-1 -68.273567918942831 -3.3994914215713496 3.3041947165378787 #
straight-curve $-1 -68.273567918942831 0 11.85053120876297 0 -1 0 I I #
vertex $-1 $507 $704 #
point $-1 -61.615555584520791 0.17755220568733776 6.9481503839268672 #
coedge $-1 $522 $521 $514 $644 forward $511 $-1 #
edge $-1 $645 40.538714370634239 $648 49.085050862859326 $643 $705 forward 7 unknown #
vertex $-1 $526 $706 #
straight-curve $-1 -79.82071840879135 15.12767513539587 11.850531208762973 -1 0 0 I I #
edge $-1 $648 -9.3523593813272807 $523 -2.1982721268098988 $522 $707 forward 7 unknown #
vertex $-1 $647 $708 #
straight-curve $-1 -68.273567918942831 15.12767513539587 3.3041947165378787 0.74314481823134659 0 0.66913061440640931 I I #
point $-1 -58.781899861440031 15.12767513539587 11.85053120876297 #
point $-1 -68.273567918942831 7.9735878808784886 3.3041947165378787 #
straight-curve $-1 -68.273567918942831 0 11.85053120876297 0 -1 0 I I #
vertex $-1 $529 $709 #
point $-1 -61.615555584520791 11.55063150813718 6.9481503839268672 #
coedge $-1 $544 $543 $536 $656 forward $533 $-1 #
edge $-1 $657 40.538714370634239 $660 49.085050862859326 $655 $710 forward 7 unknown #
vertex $-1 $548 $711 #
straight-curve $-1 -79.82071840879135 26.500754437845707 11.850531208762973 -1 0 0 I I #
edge $-1 $660 -15.038899032552198 $545 -7.8848117780348197 $544 $712 forward 7 unknown #
vertex $-1 $659 $713 #
straight-curve $-1 -68.273567918942831 26.500754437845707 3.3041947165378787 0.74314481823134659 0 0.66913061440640931 I I #
point $-1 -58.781899861440031 26.500754437845707 11.85053120876297 #
point $-1 -68.273567918942831 19.346667183328329 3.3041947165378787 #
straight-curve $-1 -68.273567918942831 0 11.85053120876297 0 -1 0 I I #
vertex $-1 $551 $714 #
point $-1 -61.615555584520791 22.923710810587018 6.9481503839268672 #
edge $-1 $668 84.731115620734769 $671 96.495753432959006 $556 $715 forward 7 unknown #
vertex $-1 $570 $716 #
straight-curve $-1 35.821874383682839 -2.2583004964498983 11.850531208762973 1 0 0 I I #
edge $-1 $671 -4.5204768192532008 $567 9.0448294648598058 $566 $717 forward 7 unknown #
vertex $-1 $670 $718 #
straight-curve $-1 -26.580041788074112 -2.2583004964498983 98.309683951978556 -0.69465836192734942 0 0.71933980857756763 I I #
point $-1 56.912589513662482 -2.2583004964498983 11.850531208762973 #
point $-1 68.273567918942831 11.307005787663108 0.085893396538736511 #
straight-curve $-1 68.273567918942831 0 11.85053120876297 0 1 0 I I #
vertex $-1 $573 $719 #
point $-1 61.726975833965284 0.45476076037270374 3.7416629161069039 #
vertex $-1 $577 $720 #
point $-1 61.726975833965284 4.524352645606605 3.7416629161069039 #
vertex $-1 $581 $721 #
point $-1 61.726975833965284 8.5939445308405098 3.7416629161069039 #
straight-curve $-1 -68.273567918942831 28.643977790218294 0 0 0 -1 I I #
point $-1 -68.273567918942831 -28.643977790218294 -11.85053120876297 #
straight-curve $-1 -68.273567918942831 0 -11.85053120876297 0 1 0 I I #
point $-1 -68.273567918942831 28.643977790218294 -11.85053120876297 #
edge $-1 $606 -1.5 $617 1.5 $603 $722 forward 7 unknown #
coedge $-1 $604 $613 $608 $690 reversed $447 $-1 #
straight-curve $-1 0 -40.439616160855529 11.85053120876297 1 0 0 I I #
point $-1 -68.273567918942831 -40.439616160855529 11.85053120876297 #
edge $-1 $609 -1.5 $615 1.5 $608 $723 forward 7 unknown #
point $-1 68.273567918942831 -40.439616160855529 11.85053120876297 #
straight-curve $-1 0 -40.439616160855529 8.8505312087629697 -1 0 0 I I #
point $-1 68.273567918942831 -40.439616160855529 8.8505312087629697 #
point $-1 -68.273567918942831 -40.439616160855529 8.8505312087629697 #
straight-curve $-1 -68.273567918942831 -7.6184834695038059 52.389245579397205 0 0 -1 I I #
point $-1 -68.273567918942831 -7.6184834695038059 11.85053120876297 #
straight-curve $-1 -68.273567918942831 -5.5977635483812485 3.3041947165378733 0 -1 0 I I #
point $-1 -68.273567918942831 -7.6184834695038059 3.3041947165378787 #
point $-1 -61.689569788345729 -11.1955270967625 5.5358749512891112 #
straight-curve $-1 -68.273567918942831 3.7545958329460323 52.389245579397205 0 0 -1 I I #
point $-1 -68.273567918942831 3.7545958329460323 11.85053120876297 #
straight-curve $-1 -68.273567918942831 0.088776102843670657 3.3041947165378733 0 -1 0 I I #
point $-1 -68.273567918942831 3.7545958329460323 3.3041947165378787 #
point $-1 -61.689569788345729 0.17755220568733776 5.5358749512891112 #
straight-curve $-1 -68.273567918942831 15.12767513539587 52.389245579397205 0 0 -1 I I #
point $-1 -68.273567918942831 15.12767513539587 11.85053120876297 #
straight-curve $-1 -68.273567918942831 5.7753157540685898 3.3041947165378733 0 -1 0 I I #
point $-1 -68.273567918942831 15.12767513539587 3.3041947165378787 #
point $-1 -61.689569788345729 11.55063150813718 5.5358749512891112 #
straight-curve $-1 -68.273567918942831 26.500754437845707 52.389245579397205 0 0 -1 I I #
point $-1 -68.273567918942831 26.500754437845707 11.85053120876297 #
straight-curve $-1 -68.273567918942831 11.461855405293509 3.3041947165378733 0 -1 0 I I #
point $-1 -68.273567918942831 26.500754437845707 3.3041947165378787 #
point $-1 -61.689569788345729 22.923710810587018 5.5358749512891112 #
straight-curve $-1 68.273567918942831 -2.2583004964498983 96.581646829497743 0 0 -1 I I #
point $-1 68.273567918942831 -2.2583004964498983 11.85053120876297 #
straight-curve $-1 68.273567918942831 2.2621763228033025 0.085893396538729405 0 1 0 I I #
point $-1 68.273567918942831 -2.2583004964498983 0.085893396538736511 #
point $-1 60.312977663460366 0.45476076037270374 3.7663443627571223 #
point $-1 60.312977663460366 4.524352645606605 3.7663443627571223 #
point $-1 60.312977663460366 8.5939445308405098 3.7663443627571223 #
straight-curve $-1 -68.273567918942831 -40.439616160855529 10.35053120876297 0 0 -1 I I #
straight-curve $-1 68.273567918942831 -40.439616160855529 10.35053120876297 0 0 -1 I I #
End-of-ACIS-data 