500 0 12 0           
7 Unknown 11 ACIS 5.0 NT 24 Thu Mar 25 21:57:04 1999 
-1 9.9999999999999995e-007 1e-010 
body $-1 $12 $-1 $13 #
body $-1 $14 $-1 $15 #
body $-1 $16 $-1 $17 #
body $-1 $18 $-1 $19 #
body $-1 $20 $-1 $21 #
body $-1 $22 $-1 $23 #
body $-1 $24 $-1 $25 #
body $-1 $26 $-1 $27 #
body $-1 $28 $-1 $29 #
body $-1 $30 $-1 $31 #
body $-1 $32 $-1 $33 #
body $-1 $34 $-1 $35 #
lump $-1 $-1 $36 $0 #
transform $-1 1 0 0 0 1 0 0 0 1 53.384197515793332 26.414319111409569 11.06109185532347 1 rotate no_reflect no_shear #
lump $-1 $-1 $37 $1 #
transform $-1 1 0 0 0 1 0 0 0 1 53.384197515793332 26.414319111409569 11.06109185532347 1 rotate no_reflect no_shear #
lump $-1 $-1 $38 $2 #
transform $-1 1 0 0 0 1 0 0 0 1 53.384197515793332 26.414319111409569 11.06109185532347 1 rotate no_reflect no_shear #
lump $-1 $-1 $39 $3 #
transform $-1 1 0 0 0 1 0 0 0 1 53.384197515793332 26.414319111409569 11.06109185532347 1 rotate no_reflect no_shear #
lump $-1 $-1 $40 $4 #
transform $-1 1 0 0 0 1 0 0 0 1 53.384197515793332 26.414319111409569 11.06109185532347 1 rotate no_reflect no_shear #
lump $-1 $-1 $41 $5 #
transform $-1 1 0 0 0 1 0 0 0 1 53.384197515793332 26.414319111409569 11.06109185532347 1 rotate no_reflect no_shear #
lump $-1 $-1 $42 $6 #
transform $-1 1 0 0 0 1 0 0 0 1 53.384197515793332 26.414319111409569 11.06109185532347 1 rotate no_reflect no_shear #
lump $-1 $-1 $43 $7 #
transform $-1 1 0 0 0 1 0 0 0 1 53.384197515793332 26.414319111409569 11.06109185532347 1 rotate no_reflect no_shear #
lump $-1 $-1 $44 $8 #
transform $-1 1 0 0 0 1 0 0 0 1 53.384197515793332 26.414319111409569 11.06109185532347 1 rotate no_reflect no_shear #
lump $-1 $-1 $45 $9 #
transform $-1 1 0 0 0 1 0 0 0 1 53.384197515793332 26.414319111409569 11.06109185532347 1 rotate no_reflect no_shear #
lump $-1 $-1 $46 $10 #
transform $-1 1 0 0 0 1 0 0 0 1 53.384197515793332 26.414319111409569 11.06109185532347 1 rotate no_reflect no_shear #
lump $-1 $-1 $47 $11 #
transform $-1 1 0 0 0 1 0 0 0 1 53.384197515793332 26.414319111409569 11.06109185532347 1 rotate no_reflect no_shear #
shell $-1 $-1 $-1 $48 $-1 $12 #
shell $-1 $-1 $-1 $49 $-1 $14 #
shell $-1 $-1 $-1 $50 $-1 $16 #
shell $-1 $-1 $-1 $51 $-1 $18 #
shell $-1 $-1 $-1 $52 $-1 $20 #
shell $-1 $-1 $-1 $53 $-1 $22 #
shell $-1 $-1 $-1 $54 $-1 $24 #
shell $-1 $-1 $-1 $55 $-1 $26 #
shell $-1 $-1 $-1 $56 $-1 $28 #
shell $-1 $-1 $-1 $57 $-1 $30 #
shell $-1 $-1 $-1 $58 $-1 $32 #
shell $-1 $-1 $-1 $59 $-1 $34 #
face $-1 $60 $61 $36 $-1 $62 forward single #
face $-1 $63 $64 $37 $-1 $65 forward single #
face $-1 $66 $67 $38 $-1 $68 reversed single #
face $-1 $69 $70 $39 $-1 $71 forward single #
face $-1 $72 $73 $40 $-1 $74 forward single #
face $-1 $75 $76 $41 $-1 $77 forward single #
face $-1 $78 $79 $42 $-1 $80 reversed single #
face $-1 $81 $82 $43 $-1 $83 forward single #
face $-1 $84 $85 $44 $-1 $86 forward single #
face $-1 $87 $88 $45 $-1 $89 forward single #
face $-1 $90 $91 $46 $-1 $92 reversed single #
face $-1 $93 $94 $47 $-1 $95 forward single #
face $-1 $96 $97 $36 $-1 $98 reversed single #
loop $-1 $-1 $99 $48 #
plane-surface $-1 0 0 11.06109185532347 0 0 1 1 0 0 forward_v I I I I #
face $-1 $100 $101 $37 $-1 $102 reversed single #
loop $-1 $-1 $103 $49 #
plane-surface $-1 0 -21.73874525277008 6.5051283349670053 0 0 1 1 0 0 forward_v I I I I #
face $-1 $104 $105 $38 $-1 $106 reversed single #
loop $-1 $-1 $107 $50 #
plane-surface $-1 42.851438084037468 -8.4824890631907728 150.82969065977363 0 1 0 0.6560590369687036 0 0.75470957328743171 forward_v I I I I #
face $-1 $108 $109 $39 $-1 $110 forward single #
loop $-1 $111 $112 $51 #
cone-surface $-1 46.263649516795702 -6.3992641946444664 4.6251140877270558 -0.6560590369687036 0 -0.75470957328743171 0.75470957328743171 0 -0.6560590369687036 1 I I 0 1 1 forward I I I I #
face $-1 $113 $114 $40 $-1 $115 forward single #
loop $-1 $116 $117 $52 #
cone-surface $-1 46.263649516795702 -3.274426891825005 4.6251140877270558 -0.6560590369687036 0 -0.75470957328743171 0.75470957328743171 0 -0.6560590369687036 1 I I 0 1 1 forward I I I I #
face $-1 $118 $119 $41 $-1 $120 forward single #
loop $-1 $121 $122 $53 #
cone-surface $-1 46.263649516795702 -0.14958958900554364 4.6251140877270558 -0.6560590369687036 0 -0.75470957328743171 0.75470957328743171 0 -0.6560590369687036 1 I I 0 1 1 forward I I I I #
face $-1 $123 $124 $42 $-1 $125 reversed single #
loop $-1 $-1 $126 $54 #
plane-surface $-1 42.851438084037468 7.4175124377382105 150.82969065977363 0 1 0 0.6560590369687036 0 0.75470957328743171 forward_v I I I I #
face $-1 $127 $128 $43 $-1 $129 forward single #
loop $-1 $130 $131 $55 #
cone-surface $-1 46.263649516795702 9.5007373062845204 4.6251140877270558 -0.6560590369687036 0 -0.75470957328743171 0.75470957328743171 0 -0.6560590369687036 1 I I 0 1 1 forward I I I I #
face $-1 $132 $133 $44 $-1 $134 forward single #
loop $-1 $135 $136 $56 #
cone-surface $-1 46.263649516795702 12.625574609103978 4.6251140877270558 -0.6560590369687036 0 -0.75470957328743171 0.75470957328743171 0 -0.6560590369687036 1 I I 0 1 1 forward I I I I #
face $-1 $137 $138 $45 $-1 $139 forward single #
loop $-1 $140 $141 $57 #
cone-surface $-1 46.263649516795702 15.750411911923443 4.6251140877270558 -0.6560590369687036 0 -0.75470957328743171 0.75470957328743171 0 -0.6560590369687036 1 I I 0 1 1 forward I I I I #
face $-1 $142 $143 $46 $-1 $144 reversed single #
loop $-1 $-1 $145 $58 #
plane-surface $-1 -53.38419751579336 -11.29139881743202 0.19902411911242268 -0.71933980857756763 0 0.69465836192734942 0.69465836192734942 0 0.71933980857756763 forward_v I I I I #
face $-1 $146 $147 $47 $-1 $148 forward single #
loop $-1 $149 $150 $59 #
cone-surface $-1 -46.543255152218386 -11.29139881743202 4.0885734098116853 0.71933980857756763 0 -0.69465836192734942 1.0419875428910241 0 1.0790097128663514 1 I I 0 1 1.5 forward I I I I #
face $-1 $151 $152 $36 $-1 $153 reversed single #
loop $-1 $-1 $154 $60 #
plane-surface $-1 0 0 -11.06109185532347 0 0 1 1 0 0 forward_v I I I I #
coedge $-1 $155 $156 $157 $158 forward $61 $-1 #
face $-1 $159 $160 $37 $-1 $161 reversed single #
loop $-1 $-1 $162 $63 #
plane-surface $-1 0 -21.73874525277008 2.9669427161313662 0 0 1 1 0 0 forward_v I I I I #
coedge $-1 $163 $164 $165 $166 reversed $64 $-1 #
face $-1 $167 $168 $38 $-1 $169 reversed single #
loop $-1 $-1 $170 $66 #
plane-surface $-1 -27.194932339079401 -3.274426891825005 70.250560804900914 0.6560590369687036 0 0.75470957328743171 0.75470957328743171 0 -0.6560590369687036 forward_v I I I I #
coedge $-1 $171 $172 $173 $174 reversed $67 $-1 #
face $-1 $-1 $175 $39 $-1 $176 forward single #
loop $-1 $177 $178 $69 #
cone-surface $-1 45.05979009372318 -6.3992641946444664 3.240232270256632 -0.6560590369687036 0 -0.75470957328743171 0.37735478664371586 0 -0.3280295184843518 1 I I -0.70710678118654746 0.70710678118654746 0.5 forward I I I I #
loop $-1 $-1 $179 $51 #
coedge $-1 $112 $112 $180 $181 reversed $70 $-1 #
face $-1 $-1 $182 $40 $-1 $183 forward single #
loop $-1 $184 $185 $72 #
cone-surface $-1 45.05979009372318 -3.274426891825005 3.240232270256632 -0.6560590369687036 0 -0.75470957328743171 0.37735478664371586 0 -0.3280295184843518 1 I I -0.70710678118654746 0.70710678118654746 0.5 forward I I I I #
loop $-1 $-1 $186 $52 #
coedge $-1 $117 $117 $187 $188 reversed $73 $-1 #
face $-1 $-1 $189 $41 $-1 $190 forward single #
loop $-1 $191 $192 $75 #
cone-surface $-1 45.05979009372318 -0.14958958900554364 3.240232270256632 -0.6560590369687036 0 -0.75470957328743171 0.37735478664371586 0 -0.3280295184843518 1 I I -0.70710678118654746 0.70710678118654746 0.5 forward I I I I #
loop $-1 $-1 $193 $53 #
coedge $-1 $122 $122 $194 $195 reversed $76 $-1 #
face $-1 $196 $197 $42 $-1 $198 reversed single #
loop $-1 $-1 $199 $78 #
plane-surface $-1 -27.194932339079401 12.625574609103978 70.250560804900914 0.6560590369687036 0 0.75470957328743171 0.75470957328743171 0 -0.6560590369687036 forward_v I I I I #
coedge $-1 $200 $201 $202 $203 reversed $79 $-1 #
face $-1 $-1 $204 $43 $-1 $205 forward single #
loop $-1 $206 $207 $81 #
cone-surface $-1 45.05979009372318 9.5007373062845204 3.240232270256632 -0.6560590369687036 0 -0.75470957328743171 0.37735478664371586 0 -0.3280295184843518 1 I I -0.70710678118654746 0.70710678118654746 0.5 forward I I I I #
loop $-1 $-1 $208 $55 #
coedge $-1 $131 $131 $209 $210 reversed $82 $-1 #
face $-1 $-1 $211 $44 $-1 $212 forward single #
loop $-1 $213 $214 $84 #
cone-surface $-1 45.05979009372318 12.625574609103978 3.240232270256632 -0.6560590369687036 0 -0.75470957328743171 0.37735478664371586 0 -0.3280295184843518 1 I I -0.70710678118654746 0.70710678118654746 0.5 forward I I I I #
loop $-1 $-1 $215 $56 #
coedge $-1 $136 $136 $216 $217 reversed $85 $-1 #
face $-1 $-1 $218 $45 $-1 $219 forward single #
loop $-1 $220 $221 $87 #
cone-surface $-1 45.05979009372318 15.750411911923443 3.240232270256632 -0.6560590369687036 0 -0.75470957328743171 0.37735478664371586 0 -0.3280295184843518 1 I I -0.70710678118654746 0.70710678118654746 0.5 forward I I I I #
loop $-1 $-1 $222 $57 #
coedge $-1 $141 $141 $223 $224 reversed $88 $-1 #
face $-1 $225 $226 $46 $-1 $227 forward single #
loop $-1 $-1 $228 $90 #
plane-surface $-1 -130.18695435994903 -5.519626240733448 74.366582517366567 0 -1 0 0.71933980857756763 0 -0.69465836192734942 forward_v I I I I #
coedge $-1 $229 $230 $231 $232 reversed $91 $-1 #
face $-1 $-1 $233 $47 $-1 $234 forward single #
loop $-1 $235 $236 $93 #
cone-surface $-1 -44.407496249752924 -11.29139881743202 2.0260950609599124 0.71933980857756763 0 -0.69465836192734942 0.52099377144551207 0 0.53950485643317569 1 I I -0.70710678118654757 0.70710678118654757 0.75 forward I I I I #
loop $-1 $-1 $237 $59 #
coedge $-1 $150 $150 $238 $239 reversed $94 $-1 #
face $-1 $240 $241 $36 $-1 $242 reversed single #
loop $-1 $-1 $243 $96 #
plane-surface $-1 0 -26.414319111409569 0 0 1 0 0 0 1 forward_v I I I I #
coedge $-1 $244 $245 $246 $247 forward $97 $-1 #
coedge $-1 $248 $99 $249 $250 forward $61 $-1 #
coedge $-1 $99 $248 $251 $252 forward $61 $-1 #
coedge $-1 $253 $254 $99 $158 reversed $255 $-1 #
edge $-1 $256 -26.414319111409569 $257 26.414319111409569 $157 $258 forward 7 unknown #
face $-1 $259 $260 $37 $-1 $261 reversed single #
loop $-1 $-1 $262 $100 #
plane-surface $-1 0 -17.063171394130592 4.7360355255491857 0 -1 0 0 0 -1 forward_v I I I I #
coedge $-1 $263 $264 $265 $266 reversed $101 $-1 #
coedge $-1 $267 $103 $268 $269 forward $64 $-1 #
coedge $-1 $103 $267 $270 $271 reversed $64 $-1 #
coedge $-1 $272 $273 $103 $166 forward $274 $-1 #
edge $-1 $275 6.1937987677455517 $276 15.544946485024528 $165 $277 forward 7 unknown #
face $-1 $278 $279 $38 $-1 $280 forward single #
loop $-1 $-1 $281 $104 #
plane-surface $-1 42.851438084037468 1.9336352795407628 150.82969065977363 0 -1 0 -0.6560590369687036 0 -0.75470957328743171 forward_v I I I I #
coedge $-1 $282 $283 $284 $285 reversed $105 $-1 #
coedge $-1 $172 $107 $286 $287 reversed $67 $-1 #
coedge $-1 $107 $171 $282 $288 reversed $67 $-1 #
coedge $-1 $284 $289 $107 $174 forward $290 $-1 #
edge $-1 $291 64.353753474563348 $292 75.210654948102786 $173 $293 forward 7 unknown #
loop $-1 $-1 $180 $108 #
plane-surface $-1 -27.194932339079401 -3.274426891825005 70.250560804900914 0.6560590369687036 0 0.75470957328743171 0.75470957328743171 0 -0.6560590369687036 forward_v I I I I #
loop $-1 $-1 $294 $69 #
coedge $-1 $178 $178 $179 $295 reversed $109 $-1 #
coedge $-1 $179 $179 $178 $295 forward $111 $-1 #
coedge $-1 $180 $180 $112 $181 forward $175 $-1 #
edge $-1 $296 0 $296 6.2831853071796004 $180 $297 forward 7 unknown #
loop $-1 $-1 $187 $113 #
plane-surface $-1 -27.194932339079401 -3.274426891825005 70.250560804900914 0.6560590369687036 0 0.75470957328743171 0.75470957328743171 0 -0.6560590369687036 forward_v I I I I #
loop $-1 $-1 $298 $72 #
coedge $-1 $185 $185 $186 $299 reversed $114 $-1 #
coedge $-1 $186 $186 $185 $299 forward $116 $-1 #
coedge $-1 $187 $187 $117 $188 forward $182 $-1 #
edge $-1 $300 0 $300 6.2831853071796004 $187 $301 forward 7 unknown #
loop $-1 $-1 $194 $118 #
plane-surface $-1 -27.194932339079401 -3.274426891825005 70.250560804900914 0.6560590369687036 0 0.75470957328743171 0.75470957328743171 0 -0.6560590369687036 forward_v I I I I #
loop $-1 $-1 $302 $75 #
coedge $-1 $192 $192 $193 $303 reversed $119 $-1 #
coedge $-1 $193 $193 $192 $303 forward $121 $-1 #
coedge $-1 $194 $194 $122 $195 forward $189 $-1 #
edge $-1 $304 0 $304 6.2831853071796004 $194 $305 forward 7 unknown #
face $-1 $306 $307 $42 $-1 $308 reversed single #
loop $-1 $-1 $309 $123 #
plane-surface $-1 42.851438084037468 17.833636780469746 150.82969065977363 0 -1 0 -0.6560590369687036 0 -0.75470957328743171 forward_v I I I I #
coedge $-1 $310 $311 $312 $313 reversed $124 $-1 #
coedge $-1 $201 $126 $314 $315 reversed $79 $-1 #
coedge $-1 $126 $200 $310 $316 reversed $79 $-1 #
coedge $-1 $312 $317 $126 $203 forward $307 $-1 #
edge $-1 $318 64.353753474563348 $319 75.210654948102786 $202 $320 forward 7 unknown #
loop $-1 $-1 $209 $127 #
plane-surface $-1 -27.194932339079401 12.625574609103978 70.250560804900914 0.6560590369687036 0 0.75470957328743171 0.75470957328743171 0 -0.6560590369687036 forward_v I I I I #
loop $-1 $-1 $321 $81 #
coedge $-1 $207 $207 $208 $322 reversed $128 $-1 #
coedge $-1 $208 $208 $207 $322 forward $130 $-1 #
coedge $-1 $209 $209 $131 $210 forward $204 $-1 #
edge $-1 $323 0 $323 6.2831853071796004 $209 $324 forward 7 unknown #
loop $-1 $-1 $216 $132 #
plane-surface $-1 -27.194932339079401 12.625574609103978 70.250560804900914 0.6560590369687036 0 0.75470957328743171 0.75470957328743171 0 -0.6560590369687036 forward_v I I I I #
loop $-1 $-1 $325 $84 #
coedge $-1 $214 $214 $215 $326 reversed $133 $-1 #
coedge $-1 $215 $215 $214 $326 forward $135 $-1 #
coedge $-1 $216 $216 $136 $217 forward $211 $-1 #
edge $-1 $327 0 $327 6.2831853071796004 $216 $328 forward 7 unknown #
loop $-1 $-1 $223 $137 #
plane-surface $-1 -27.194932339079401 12.625574609103978 70.250560804900914 0.6560590369687036 0 0.75470957328743171 0.75470957328743171 0 -0.6560590369687036 forward_v I I I I #
loop $-1 $-1 $329 $87 #
coedge $-1 $221 $221 $222 $330 reversed $138 $-1 #
coedge $-1 $222 $222 $221 $330 forward $140 $-1 #
coedge $-1 $223 $223 $141 $224 forward $218 $-1 #
edge $-1 $331 0 $331 6.2831853071796004 $223 $332 forward 7 unknown #
face $-1 $333 $334 $46 $-1 $335 forward single #
loop $-1 $-1 $336 $142 #
plane-surface $-1 0 -17.063171394130592 4.7360355255491857 0 -1 0 0 0 -1 forward_v I I I I #
coedge $-1 $337 $338 $339 $340 reversed $143 $-1 #
coedge $-1 $341 $145 $336 $342 forward $91 $-1 #
coedge $-1 $145 $341 $337 $343 forward $91 $-1 #
coedge $-1 $339 $344 $145 $232 forward $334 $-1 #
edge $-1 $345 -11.417471985414583 $346 0.12607316798256196 $231 $347 forward 7 unknown #
loop $-1 $-1 $238 $146 #
plane-surface $-1 -53.38419751579336 -11.29139881743202 0.19902411911242268 -0.71933980857756763 0 0.69465836192734942 0.69465836192734942 0 0.71933980857756763 forward_v I I I I #
loop $-1 $-1 $348 $93 #
coedge $-1 $236 $236 $237 $349 reversed $147 $-1 #
coedge $-1 $237 $237 $236 $349 forward $149 $-1 #
coedge $-1 $238 $238 $150 $239 forward $233 $-1 #
edge $-1 $350 0 $350 6.2831853071796004 $238 $351 forward 7 unknown #
face $-1 $352 $353 $36 $-1 $354 reversed single #
loop $-1 $-1 $355 $151 #
plane-surface $-1 -53.384197515793332 0 0 1 0 0 0 0 -1 forward_v I I I I #
coedge $-1 $356 $251 $357 $358 forward $152 $-1 #
coedge $-1 $359 $154 $356 $360 forward $97 $-1 #
coedge $-1 $154 $359 $361 $362 forward $97 $-1 #
coedge $-1 $254 $253 $154 $247 reversed $255 $-1 #
edge $-1 $363 -26.414319111409569 $364 26.414319111409569 $246 $365 forward 7 unknown #
coedge $-1 $156 $155 $366 $367 forward $61 $-1 #
coedge $-1 $368 $369 $155 $250 reversed $353 $-1 #
edge $-1 $257 -53.384197515793332 $370 53.384197515793332 $249 $371 forward 7 unknown #
coedge $-1 $243 $372 $156 $252 reversed $152 $-1 #
edge $-1 $373 -53.384197515793332 $256 53.384197515793332 $251 $374 forward 7 unknown #
coedge $-1 $246 $157 $372 $375 forward $255 $-1 #
coedge $-1 $157 $246 $368 $376 reversed $255 $-1 #
loop $-1 $-1 $253 $352 #
vertex $-1 $158 $377 #
vertex $-1 $158 $378 #
straight-curve $-1 53.384197515793332 0 11.06109185532347 0 1 0 I I #
face $-1 $379 $380 $37 $-1 $381 reversed single #
loop $-1 $-1 $382 $159 #
plane-surface $-1 -53.384197515793332 0 0 1 0 0 0 0 -1 forward_v I I I I #
coedge $-1 $383 $268 $273 $384 reversed $160 $-1 #
coedge $-1 $385 $162 $386 $387 reversed $101 $-1 #
coedge $-1 $162 $385 $383 $388 forward $101 $-1 #
coedge $-1 $273 $272 $162 $266 forward $274 $-1 #
edge $-1 $389 -15.544946485024528 $390 -6.1937987677455517 $265 $391 forward 7 unknown #
coedge $-1 $164 $163 $382 $392 reversed $64 $-1 #
coedge $-1 $262 $393 $163 $269 reversed $160 $-1 #
edge $-1 $275 -53.384197515793332 $394 53.384197515793332 $268 $395 forward 7 unknown #
coedge $-1 $396 $397 $164 $271 forward $380 $-1 #
edge $-1 $276 -53.384197515793332 $398 53.384197515793332 $270 $399 forward 7 unknown #
coedge $-1 $265 $165 $397 $400 forward $274 $-1 #
coedge $-1 $165 $265 $262 $384 forward $274 $-1 #
loop $-1 $-1 $165 $379 #
vertex $-1 $166 $401 #
vertex $-1 $400 $402 #
straight-curve $-1 53.384197515793332 -10.86937262638504 6.5051283349670053 0 -1 0 I I #
face $-1 $-1 $290 $38 $-1 $403 reversed single #
loop $-1 $-1 $404 $167 #
plane-surface $-1 0 0 11.06109185532347 0 0 1 1 0 0 forward_v I I I I #
coedge $-1 $405 $406 $407 $408 reversed $168 $-1 #
coedge $-1 $409 $170 $172 $288 forward $105 $-1 #
coedge $-1 $170 $409 $405 $410 forward $105 $-1 #
coedge $-1 $407 $173 $170 $285 forward $290 $-1 #
edge $-1 $292 -6.8452756172782703 $411 3.5708487254532653 $284 $412 forward 7 unknown #
coedge $-1 $413 $414 $171 $287 forward $279 $-1 #
edge $-1 $415 19.469042284955655 $291 31.958478473774598 $286 $416 forward 7 unknown #
edge $-1 $292 -106.76839503158669 $415 -90.219729649728151 $172 $417 forward 7 unknown #
coedge $-1 $173 $407 $413 $418 reversed $290 $-1 #
loop $-1 $-1 $407 $278 #
vertex $-1 $418 $419 #
vertex $-1 $174 $420 #
straight-curve $-1 53.384197515793332 -8.4824890631907728 75.414845329886816 0 0 -1 I I #
coedge $-1 $294 $294 $-1 $421 reversed $177 $-1 #
edge $-1 $422 0 $422 6.2831853071796004 $178 $423 forward 7 unknown #
vertex $-1 $181 $424 #
ellipse-curve $-1 47.139479421383854 -6.3992641946444664 5.6326411185537468 0.6560590369687036 0 0.75470957328743171 0.75470957328743171 0 -0.6560590369687036 1 I I #
coedge $-1 $298 $298 $-1 $425 reversed $184 $-1 #
edge $-1 $426 0 $426 6.2831853071796004 $185 $427 forward 7 unknown #
vertex $-1 $188 $428 #
ellipse-curve $-1 47.139479421383854 -3.274426891825005 5.6326411185537468 0.6560590369687036 0 0.75470957328743171 0.75470957328743171 0 -0.6560590369687036 1 I I #
coedge $-1 $302 $302 $-1 $429 reversed $191 $-1 #
edge $-1 $430 0 $430 6.2831853071796004 $192 $431 forward 7 unknown #
vertex $-1 $195 $432 #
ellipse-curve $-1 47.139479421383854 -0.14958958900554364 5.6326411185537468 0.6560590369687036 0 0.75470957328743171 0.75470957328743171 0 -0.6560590369687036 1 I I #
face $-1 $-1 $433 $42 $-1 $434 forward single #
loop $-1 $-1 $202 $196 #
plane-surface $-1 53.384197515793332 0 0 -1 0 0 0 0 1 forward_v I I I I #
coedge $-1 $435 $436 $437 $438 reversed $197 $-1 #
coedge $-1 $439 $199 $201 $316 forward $124 $-1 #
coedge $-1 $199 $439 $435 $440 forward $124 $-1 #
coedge $-1 $437 $202 $199 $313 forward $307 $-1 #
edge $-1 $319 1.1047251331862213 $441 11.520849475917757 $312 $442 forward 7 unknown #
coedge $-1 $443 $444 $200 $315 forward $433 $-1 #
edge $-1 $445 19.469042284955655 $318 31.958478473774598 $314 $446 forward 7 unknown #
edge $-1 $319 -106.76839503158669 $445 -90.219729649728151 $201 $447 forward 7 unknown #
coedge $-1 $202 $437 $443 $448 reversed $307 $-1 #
vertex $-1 $448 $449 #
vertex $-1 $203 $450 #
straight-curve $-1 53.384197515793332 7.4175124377382105 75.414845329886816 0 0 -1 I I #
coedge $-1 $321 $321 $-1 $451 reversed $206 $-1 #
edge $-1 $452 0 $452 6.2831853071796004 $207 $453 forward 7 unknown #
vertex $-1 $210 $454 #
ellipse-curve $-1 47.139479421383854 9.5007373062845204 5.6326411185537468 0.6560590369687036 0 0.75470957328743171 0.75470957328743171 0 -0.6560590369687036 1 I I #
coedge $-1 $325 $325 $-1 $455 reversed $213 $-1 #
edge $-1 $456 0 $456 6.2831853071796004 $214 $457 forward 7 unknown #
vertex $-1 $217 $458 #
ellipse-curve $-1 47.139479421383854 12.625574609103978 5.6326411185537468 0.6560590369687036 0 0.75470957328743171 0.75470957328743171 0 -0.6560590369687036 1 I I #
coedge $-1 $329 $329 $-1 $459 reversed $220 $-1 #
edge $-1 $460 0 $460 6.2831853071796004 $221 $461 forward 7 unknown #
vertex $-1 $224 $462 #
ellipse-curve $-1 47.139479421383854 15.750411911923443 5.6326411185537468 0.6560590369687036 0 0.75470957328743171 0.75470957328743171 0 -0.6560590369687036 1 I I #
face $-1 $-1 $463 $46 $-1 $464 reversed single #
loop $-1 $-1 $339 $225 #
plane-surface $-1 0 0 11.06109185532347 0 0 1 1 0 0 forward_v I I I I #
coedge $-1 $465 $466 $229 $342 reversed $226 $-1 #
coedge $-1 $338 $228 $230 $343 reversed $143 $-1 #
coedge $-1 $228 $337 $467 $468 reversed $143 $-1 #
coedge $-1 $469 $231 $228 $340 forward $334 $-1 #
edge $-1 $346 -22.198656299266467 $470 -11.709279664181182 $339 $471 forward 7 unknown #
coedge $-1 $230 $229 $472 $473 reversed $91 $-1 #
edge $-1 $345 -15.100050917090005 $474 -4.0907009993424656e-014 $336 $475 forward 7 unknown #
edge $-1 $476 4.0907009993424656e-014 $346 15.100050917090005 $337 $477 forward 7 unknown #
coedge $-1 $231 $469 $465 $478 forward $334 $-1 #
vertex $-1 $478 $479 #
vertex $-1 $232 $480 #
straight-curve $-1 -42.894820880708046 -5.6456994087160099 11.06109185532347 0 1 0 I I #
coedge $-1 $348 $348 $-1 $481 reversed $235 $-1 #
edge $-1 $482 0 $482 6.2831853071796004 $236 $483 forward 7 unknown #
vertex $-1 $239 $484 #
ellipse-curve $-1 -48.139509198250693 -11.29139881743202 5.6300579872179615 -0.71933980857756763 0 0.69465836192734942 1.0419875428910241 0 1.0790097128663514 1 I I #
face $-1 $-1 $255 $36 $-1 $485 reversed single #
loop $-1 $-1 $368 $240 #
plane-surface $-1 0 26.414319111409569 0 0 -1 0 0 0 -1 forward_v I I I I #
coedge $-1 $486 $366 $369 $487 forward $241 $-1 #
coedge $-1 $372 $243 $244 $360 reversed $152 $-1 #
coedge $-1 $366 $486 $243 $358 reversed $241 $-1 #
edge $-1 $373 -11.06109185532347 $488 11.06109185532347 $357 $489 forward 7 unknown #
coedge $-1 $245 $244 $486 $490 forward $97 $-1 #
edge $-1 $364 -53.384197515793332 $488 53.384197515793332 $356 $491 forward 7 unknown #
coedge $-1 $369 $368 $245 $362 reversed $353 $-1 #
edge $-1 $492 -53.384197515793332 $363 53.384197515793332 $361 $493 forward 7 unknown #
vertex $-1 $247 $494 #
vertex $-1 $375 $495 #
straight-curve $-1 53.384197515793332 0 -11.06109185532347 0 -1 0 I I #
coedge $-1 $355 $357 $248 $367 reversed $241 $-1 #
edge $-1 $370 -26.414319111409569 $373 26.414319111409569 $366 $496 forward 7 unknown #
coedge $-1 $361 $249 $254 $376 forward $353 $-1 #
coedge $-1 $249 $361 $355 $487 reversed $353 $-1 #
vertex $-1 $250 $497 #
straight-curve $-1 0 26.414319111409569 11.06109185532347 -1 0 0 I I #
coedge $-1 $251 $356 $253 $375 reversed $152 $-1 #
vertex $-1 $367 $498 #
straight-curve $-1 0 -26.414319111409569 11.06109185532347 1 0 0 I I #
edge $-1 $256 -11.06109185532347 $364 11.06109185532347 $253 $499 forward 7 unknown #
edge $-1 $257 -11.06109185532347 $363 11.06109185532347 $254 $500 forward 7 unknown #
point $-1 53.384197515793332 -26.414319111409569 11.06109185532347 #
point $-1 53.384197515793332 26.414319111409569 11.06109185532347 #
face $-1 $-1 $274 $37 $-1 $501 reversed single #
loop $-1 $-1 $270 $259 #
plane-surface $-1 0 -26.414319111409569 0 0 1 0 0 0 1 forward_v I I I I #
coedge $-1 $502 $503 $267 $392 forward $260 $-1 #
coedge $-1 $393 $262 $264 $388 reversed $160 $-1 #
edge $-1 $390 0.59892495335677332 $275 4.1371105721924124 $273 $504 forward 7 unknown #
coedge $-1 $264 $263 $505 $506 reversed $101 $-1 #
coedge $-1 $397 $396 $263 $387 forward $380 $-1 #
edge $-1 $507 -53.384197515793332 $389 53.384197515793332 $386 $508 forward 7 unknown #
edge $-1 $509 -53.384197515793332 $390 53.384197515793332 $383 $510 forward 7 unknown #
vertex $-1 $387 $511 #
vertex $-1 $266 $512 #
straight-curve $-1 53.384197515793332 -10.86937262638504 2.9669427161313662 0 1 0 I I #
edge $-1 $398 -15.544946485024528 $394 -6.1937987677455517 $382 $513 forward 7 unknown #
coedge $-1 $268 $383 $502 $514 reversed $160 $-1 #
vertex $-1 $392 $515 #
straight-curve $-1 0 -17.063171394130592 6.5051283349670053 -1 0 0 I I #
coedge $-1 $386 $270 $503 $516 forward $380 $-1 #
coedge $-1 $270 $386 $272 $400 reversed $380 $-1 #
vertex $-1 $516 $517 #
straight-curve $-1 0 -26.414319111409569 6.5051283349670053 -1 0 0 I I #
edge $-1 $276 -6.5051283349670053 $389 -2.9669427161313662 $272 $518 forward 7 unknown #
point $-1 53.384197515793332 -17.063171394130592 6.5051283349670053 #
point $-1 53.384197515793332 -26.414319111409569 6.5051283349670053 #
plane-surface $-1 53.384197515793332 0 0 -1 0 0 0 0 1 forward_v I I I I #
coedge $-1 $414 $413 $406 $519 forward $279 $-1 #
coedge $-1 $406 $281 $283 $410 reversed $168 $-1 #
coedge $-1 $281 $405 $404 $519 reversed $168 $-1 #
coedge $-1 $289 $284 $281 $408 forward $290 $-1 #
edge $-1 $411 -75.210654948102786 $520 -64.353753474563348 $407 $521 forward 7 unknown #
coedge $-1 $283 $282 $414 $522 reversed $105 $-1 #
edge $-1 $523 90.219729649728151 $411 106.76839503158669 $405 $524 forward 7 unknown #
vertex $-1 $285 $525 #
straight-curve $-1 53.384197515793332 -1.6372134459125025 0.20419038178403781 0 1 0 I I #
coedge $-1 $404 $286 $289 $418 forward $279 $-1 #
coedge $-1 $286 $404 $409 $522 forward $279 $-1 #
vertex $-1 $287 $526 #
straight-curve $-1 21.425719042018734 -8.4824890631907728 11.061091855323468 1 0 0 I I #
straight-curve $-1 -27.194932339079401 -8.4824890631907728 70.250560804900914 -0.75470957328743171 0 0.6560590369687036 I I #
edge $-1 $291 -8.4824890631907728 $520 1.9336352795407628 $289 $527 forward 7 unknown #
point $-1 53.384197515793332 -8.4824890631907728 11.06109185532347 #
point $-1 53.384197515793332 -8.4824890631907728 0.20419038178403071 #
edge $-1 $528 1 $528 0 $294 $-1 forward 7 unknown #
vertex $-1 $295 $529 #
ellipse-curve $-1 45.387819612207529 -6.3992641946444664 3.6175870569003479 0.6560590369687036 0 0.75470957328743171 0.75470957328743171 0 -0.6560590369687036 1 I I #
point $-1 47.894188994671296 -6.3992641946444664 4.976582081585061 #
edge $-1 $530 1 $530 0 $298 $-1 forward 7 unknown #
vertex $-1 $299 $531 #
ellipse-curve $-1 45.387819612207529 -3.274426891825005 3.6175870569003479 0.6560590369687036 0 0.75470957328743171 0.75470957328743171 0 -0.6560590369687036 1 I I #
point $-1 47.894188994671296 -3.274426891825005 4.976582081585061 #
edge $-1 $532 1 $532 0 $302 $-1 forward 7 unknown #
vertex $-1 $303 $533 #
ellipse-curve $-1 45.387819612207529 -0.14958958900554364 3.6175870569003479 0.6560590369687036 0 0.75470957328743171 0.75470957328743171 0 -0.6560590369687036 1 I I #
point $-1 47.894188994671296 -0.14958958900554364 4.976582081585061 #
loop $-1 $-1 $314 $306 #
plane-surface $-1 0 0 11.06109185532347 0 0 1 1 0 0 forward_v I I I I #
coedge $-1 $436 $309 $311 $440 reversed $197 $-1 #
coedge $-1 $309 $435 $534 $535 reversed $197 $-1 #
coedge $-1 $317 $312 $309 $438 forward $307 $-1 #
edge $-1 $441 -75.210654948102786 $536 -64.353753474563348 $437 $537 forward 7 unknown #
coedge $-1 $311 $310 $444 $538 reversed $124 $-1 #
edge $-1 $539 90.219729649728151 $441 106.76839503158669 $435 $540 forward 7 unknown #
vertex $-1 $313 $541 #
straight-curve $-1 53.384197515793332 6.3127873045519891 0.20419038178403781 0 1 0 I I #
coedge $-1 $534 $314 $317 $448 forward $433 $-1 #
coedge $-1 $314 $534 $439 $538 forward $433 $-1 #
vertex $-1 $315 $542 #
straight-curve $-1 21.425719042018734 7.4175124377382105 11.061091855323468 1 0 0 I I #
straight-curve $-1 -27.194932339079401 7.4175124377382105 70.250560804900914 -0.75470957328743171 0 0.6560590369687036 I I #
edge $-1 $318 7.4175124377382105 $536 17.833636780469746 $317 $543 forward 7 unknown #
point $-1 53.384197515793332 7.4175124377382105 11.06109185532347 #
point $-1 53.384197515793332 7.4175124377382105 0.20419038178403071 #
edge $-1 $544 1 $544 0 $321 $-1 forward 7 unknown #
vertex $-1 $322 $545 #
ellipse-curve $-1 45.387819612207529 9.5007373062845204 3.6175870569003479 0.6560590369687036 0 0.75470957328743171 0.75470957328743171 0 -0.6560590369687036 1 I I #
point $-1 47.894188994671296 9.5007373062845204 4.976582081585061 #
edge $-1 $546 1 $546 0 $325 $-1 forward 7 unknown #
vertex $-1 $326 $547 #
ellipse-curve $-1 45.387819612207529 12.625574609103978 3.6175870569003479 0.6560590369687036 0 0.75470957328743171 0.75470957328743171 0 -0.6560590369687036 1 I I #
point $-1 47.894188994671296 12.625574609103978 4.976582081585061 #
edge $-1 $548 1 $548 0 $329 $-1 forward 7 unknown #
vertex $-1 $330 $549 #
ellipse-curve $-1 45.387819612207529 15.750411911923443 3.6175870569003479 0.6560590369687036 0 0.75470957328743171 0.75470957328743171 0 -0.6560590369687036 1 I I #
point $-1 47.894188994671296 15.750411911923443 4.976582081585061 #
loop $-1 $-1 $550 $333 #
plane-surface $-1 -53.384197515793332 0 0 1 0 0 0 0 -1 forward_v I I I I #
coedge $-1 $466 $336 $344 $478 reversed $226 $-1 #
coedge $-1 $336 $465 $550 $551 reversed $226 $-1 #
coedge $-1 $472 $552 $338 $468 forward $463 $-1 #
edge $-1 $470 26.122199403359815 $476 36.984267139570832 $467 $553 forward 7 unknown #
coedge $-1 $344 $339 $552 $554 forward $334 $-1 #
vertex $-1 $554 $555 #
straight-curve $-1 -65.093477179974514 -5.519626240733448 11.061091855323468 -1 0 0 I I #
coedge $-1 $550 $467 $341 $473 forward $463 $-1 #
edge $-1 $476 -0.12607316798256196 $474 11.417471985414583 $472 $556 forward 7 unknown #
vertex $-1 $551 $557 #
straight-curve $-1 -53.38419751579336 -17.063171394130592 0.19902411911242268 -0.69465836192734942 0 -0.71933980857756763 I I #
vertex $-1 $473 $558 #
straight-curve $-1 -53.38419751579336 -5.519626240733448 0.19902411911242268 0.69465836192734942 0 0.71933980857756763 I I #
edge $-1 $559 11.709279664181182 $345 22.198656299266467 $344 $560 forward 7 unknown #
point $-1 -42.894820880708046 -17.063171394130592 11.06109185532347 #
point $-1 -42.894820880708046 -5.519626240733448 11.06109185532347 #
edge $-1 $561 1 $561 0 $348 $-1 forward 7 unknown #
vertex $-1 $349 $562 #
ellipse-curve $-1 -44.9470011061861 -11.29139881743202 2.5470888324054246 -0.71933980857756763 0 0.69465836192734942 1.0419875428910241 0 1.0790097128663514 1 I I #
point $-1 -47.09752165535965 -11.29139881743202 6.7090677000842973 #
plane-surface $-1 53.384197515793332 0 0 -1 0 0 0 0 1 forward_v I I I I #
coedge $-1 $357 $355 $359 $490 reversed $241 $-1 #
edge $-1 $370 -11.06109185532347 $492 11.06109185532347 $369 $563 forward 7 unknown #
vertex $-1 $490 $564 #
straight-curve $-1 -53.384197515793332 -26.414319111409569 0 0 0 -1 I I #
edge $-1 $488 -26.414319111409569 $492 26.414319111409569 $486 $565 forward 7 unknown #
straight-curve $-1 0 -26.414319111409569 -11.06109185532347 -1 0 0 I I #
vertex $-1 $362 $566 #
straight-curve $-1 0 26.414319111409569 -11.06109185532347 1 0 0 I I #
point $-1 53.384197515793332 26.414319111409569 -11.06109185532347 #
point $-1 53.384197515793332 -26.414319111409569 -11.06109185532347 #
straight-curve $-1 -53.384197515793332 0 11.06109185532347 0 -1 0 I I #
point $-1 -53.384197515793332 26.414319111409569 11.06109185532347 #
point $-1 -53.384197515793332 -26.414319111409569 11.06109185532347 #
straight-curve $-1 53.384197515793332 -26.414319111409569 0 0 0 -1 I I #
straight-curve $-1 53.384197515793332 26.414319111409569 0 0 0 -1 I I #
plane-surface $-1 53.384197515793332 0 0 -1 0 0 0 0 1 forward_v I I I I #
coedge $-1 $505 $382 $393 $514 forward $260 $-1 #
coedge $-1 $382 $505 $396 $516 reversed $260 $-1 #
straight-curve $-1 53.384197515793332 -17.063171394130592 2.3680177627745929 0 0 1 I I #
coedge $-1 $503 $502 $385 $506 forward $260 $-1 #
edge $-1 $509 6.1937987677455517 $507 15.544946485024528 $505 $567 forward 7 unknown #
vertex $-1 $387 $568 #
straight-curve $-1 0 -26.414319111409569 2.9669427161313662 1 0 0 I I #
vertex $-1 $506 $569 #
straight-curve $-1 0 -17.063171394130592 2.9669427161313662 1 0 0 I I #
point $-1 53.384197515793332 -26.414319111409569 2.9669427161313662 #
point $-1 53.384197515793332 -17.063171394130592 2.9669427161313662 #
straight-curve $-1 -53.384197515793332 -10.86937262638504 6.5051283349670053 0 1 0 I I #
edge $-1 $394 -4.1371105721924124 $509 -0.59892495335677332 $502 $570 forward 7 unknown #
point $-1 -53.384197515793332 -17.063171394130592 6.5051283349670053 #
edge $-1 $398 -6.5051283349670053 $507 -2.9669427161313662 $503 $571 forward 7 unknown #
point $-1 -53.384197515793332 -26.414319111409569 6.5051283349670053 #
straight-curve $-1 53.384197515793332 -26.414319111409569 0 0 0 -1 I I #
edge $-1 $520 -31.958478473774598 $523 -19.469042284955655 $404 $572 forward 7 unknown #
vertex $-1 $519 $573 #
straight-curve $-1 53.384197515793332 1.9336352795407628 75.414845329886816 0 0 1 I I #
edge $-1 $523 -3.5708487254532653 $415 6.8452756172782703 $414 $574 forward 7 unknown #
vertex $-1 $522 $575 #
straight-curve $-1 -27.194932339079401 1.9336352795407628 70.250560804900914 0.75470957328743171 0 -0.6560590369687036 I I #
point $-1 53.384197515793332 1.9336352795407628 0.20419038178403071 #
point $-1 40.89476132697439 -8.4824890631907728 11.061091855323468 #
straight-curve $-1 53.384197515793332 0 11.06109185532347 0 1 0 I I #
vertex $-1 $421 $576 #
point $-1 46.142529185494965 -6.3992641946444664 2.9615280199316443 #
vertex $-1 $425 $577 #
point $-1 46.142529185494965 -3.274426891825005 2.9615280199316443 #
vertex $-1 $429 $578 #
point $-1 46.142529185494965 -0.14958958900554364 2.9615280199316443 #
coedge $-1 $444 $443 $436 $535 forward $433 $-1 #
edge $-1 $536 -31.958478473774598 $539 -19.469042284955655 $534 $579 forward 7 unknown #
vertex $-1 $535 $580 #
straight-curve $-1 53.384197515793332 17.833636780469746 75.414845329886816 0 0 1 I I #
edge $-1 $539 -11.520849475917757 $445 -1.1047251331862213 $444 $581 forward 7 unknown #
vertex $-1 $538 $582 #
straight-curve $-1 -27.194932339079401 17.833636780469746 70.250560804900914 0.75470957328743171 0 -0.6560590369687036 I I #
point $-1 53.384197515793332 17.833636780469746 0.20419038178403071 #
point $-1 40.89476132697439 7.4175124377382105 11.061091855323468 #
straight-curve $-1 53.384197515793332 0 11.06109185532347 0 1 0 I I #
vertex $-1 $451 $583 #
point $-1 46.142529185494965 9.5007373062845204 2.9615280199316443 #
vertex $-1 $455 $584 #
point $-1 46.142529185494965 12.625574609103978 2.9615280199316443 #
vertex $-1 $459 $585 #
point $-1 46.142529185494965 15.750411911923443 2.9615280199316443 #
coedge $-1 $552 $472 $466 $551 forward $463 $-1 #
edge $-1 $474 -36.984267139570832 $559 -26.122199403359815 $550 $586 forward 7 unknown #
coedge $-1 $467 $550 $469 $554 reversed $463 $-1 #
straight-curve $-1 -53.384197515793332 -5.519626240733448 37.183291258683283 0 0 -1 I I #
edge $-1 $470 5.519626240733448 $559 17.063171394130592 $552 $587 forward 7 unknown #
point $-1 -53.384197515793332 -5.519626240733448 11.06109185532347 #
straight-curve $-1 -53.384197515793332 -5.6456994087160099 0.1990241191124506 0 -1 0 I I #
point $-1 -53.384197515793332 -17.063171394130592 0.1990241191124521 #
point $-1 -53.384197515793332 -5.519626240733448 0.1990241191124521 #
vertex $-1 $551 $588 #
straight-curve $-1 -65.093477179974514 -17.063171394130592 11.061091855323468 1 0 0 I I #
vertex $-1 $481 $589 #
point $-1 -43.905013563295078 -11.29139881743202 3.626098545271776 #
straight-curve $-1 -53.384197515793332 26.414319111409569 0 0 0 -1 I I #
point $-1 -53.384197515793332 -26.414319111409569 -11.06109185532347 #
straight-curve $-1 -53.384197515793332 0 -11.06109185532347 0 1 0 I I #
point $-1 -53.384197515793332 26.414319111409569 -11.06109185532347 #
straight-curve $-1 -53.384197515793332 -10.86937262638504 2.9669427161313662 0 -1 0 I I #
point $-1 -53.384197515793332 -26.414319111409569 2.9669427161313662 #
point $-1 -53.384197515793332 -17.063171394130592 2.9669427161313662 #
straight-curve $-1 -53.384197515793332 -17.063171394130592 2.3680177627745929 0 0 -1 I I #
straight-curve $-1 -53.384197515793332 -26.414319111409569 0 0 0 -1 I I #
straight-curve $-1 21.425719042018734 1.9336352795407628 11.061091855323468 -1 0 0 I I #
point $-1 53.384197515793332 1.9336352795407628 11.06109185532347 #
straight-curve $-1 40.894761326974383 -1.6372134459125025 11.061091855323475 0 -1 0 I I #
point $-1 40.89476132697439 1.9336352795407628 11.061091855323468 #
point $-1 44.73176057523883 -6.3992641946444664 2.8628774836129161 #
point $-1 44.73176057523883 -3.274426891825005 2.8628774836129161 #
point $-1 44.73176057523883 -0.14958958900554364 2.8628774836129161 #
straight-curve $-1 21.425719042018734 17.833636780469746 11.061091855323468 -1 0 0 I I #
point $-1 53.384197515793332 17.833636780469746 11.06109185532347 #
straight-curve $-1 40.894761326974383 6.3127873045519891 11.061091855323475 0 -1 0 I I #
point $-1 40.89476132697439 17.833636780469746 11.061091855323468 #
point $-1 44.73176057523883 9.5007373062845204 2.8628774836129161 #
point $-1 44.73176057523883 12.625574609103978 2.8628774836129161 #
point $-1 44.73176057523883 15.750411911923443 2.8628774836129161 #
straight-curve $-1 -53.384197515793332 -17.063171394130592 37.183291258683283 0 0 1 I I #
straight-curve $-1 -53.384197515793332 0 11.06109185532347 0 -1 0 I I #
point $-1 -53.384197515793332 -17.063171394130592 11.06109185532347 #
point $-1 -43.867991393319748 -11.29139881743202 1.5051012895144003 #
End-of-ACIS-data 