500 0 10 0           
7 Unknown 11 ACIS 5.0 NT 24 Thu Mar 25 23:27:23 1999 
-1 9.9999999999999995e-007 1e-010 
body $-1 $10 $-1 $11 #
body $-1 $12 $-1 $13 #
body $-1 $14 $-1 $15 #
body $-1 $16 $-1 $17 #
body $-1 $18 $-1 $19 #
body $-1 $20 $-1 $21 #
body $-1 $22 $-1 $23 #
body $-1 $24 $-1 $25 #
body $-1 $26 $-1 $27 #
body $-1 $28 $-1 $29 #
lump $-1 $-1 $30 $0 #
transform $-1 1 0 0 0 1 0 0 0 1 75.593127231666003 43.854256828055931 10.688061452167481 1 rotate no_reflect no_shear #
lump $-1 $-1 $31 $1 #
transform $-1 1 0 0 0 1 0 0 0 1 75.593127231666003 43.854256828055931 10.688061452167481 1 rotate no_reflect no_shear #
lump $-1 $-1 $32 $2 #
transform $-1 1 0 0 0 1 0 0 0 1 75.593127231666003 43.854256828055931 10.688061452167481 1 rotate no_reflect no_shear #
lump $-1 $-1 $33 $3 #
transform $-1 1 0 0 0 1 0 0 0 1 75.593127231666003 43.854256828055931 10.688061452167481 1 rotate no_reflect no_shear #
lump $-1 $-1 $34 $4 #
transform $-1 1 0 0 0 1 0 0 0 1 75.593127231666003 43.854256828055931 10.688061452167481 1 rotate no_reflect no_shear #
lump $-1 $-1 $35 $5 #
transform $-1 1 0 0 0 1 0 0 0 1 75.593127231666003 43.854256828055931 10.688061452167481 1 rotate no_reflect no_shear #
lump $-1 $-1 $36 $6 #
transform $-1 1 0 0 0 1 0 0 0 1 75.593127231666003 43.854256828055931 10.688061452167481 1 rotate no_reflect no_shear #
lump $-1 $-1 $37 $7 #
transform $-1 1 0 0 0 1 0 0 0 1 75.593127231666003 43.854256828055931 10.688061452167481 1 rotate no_reflect no_shear #
lump $-1 $-1 $38 $8 #
transform $-1 1 0 0 0 1 0 0 0 1 75.593127231666003 43.854256828055931 10.688061452167481 1 rotate no_reflect no_shear #
lump $-1 $-1 $39 $9 #
transform $-1 1 0 0 0 1 0 0 0 1 75.593127231666003 43.854256828055931 10.688061452167481 1 rotate no_reflect no_shear #
shell $-1 $-1 $-1 $40 $-1 $10 #
shell $-1 $-1 $-1 $41 $-1 $12 #
shell $-1 $-1 $-1 $42 $-1 $14 #
shell $-1 $-1 $-1 $43 $-1 $16 #
shell $-1 $-1 $-1 $44 $-1 $18 #
shell $-1 $-1 $-1 $45 $-1 $20 #
shell $-1 $-1 $-1 $46 $-1 $22 #
shell $-1 $-1 $-1 $47 $-1 $24 #
shell $-1 $-1 $-1 $48 $-1 $26 #
shell $-1 $-1 $-1 $49 $-1 $28 #
face $-1 $50 $51 $30 $-1 $52 forward single #
face $-1 $53 $54 $31 $-1 $55 forward single #
face $-1 $56 $57 $32 $-1 $58 reversed single #
face $-1 $59 $60 $33 $-1 $61 forward single #
face $-1 $62 $63 $34 $-1 $64 forward single #
face $-1 $65 $66 $35 $-1 $67 forward single #
face $-1 $68 $69 $36 $-1 $70 reversed single #
face $-1 $71 $72 $37 $-1 $73 forward single #
face $-1 $74 $75 $38 $-1 $76 forward single #
face $-1 $77 $78 $39 $-1 $79 forward single #
face $-1 $80 $81 $30 $-1 $82 reversed single #
loop $-1 $-1 $83 $40 #
plane-surface $-1 0 0 10.688061452167481 0 0 1 1 0 0 forward_v I I I I #
face $-1 $84 $85 $31 $-1 $86 forward single #
loop $-1 $-1 $87 $41 #
plane-surface $-1 -75.593127231666003 0 0 1 0 0 0 0 -1 forward_v I I I I #
face $-1 $88 $89 $32 $-1 $90 reversed single #
loop $-1 $-1 $91 $42 #
plane-surface $-1 -66.109557822199704 133.56280559160086 152.70073668043648 1 0 0 0 -0.87461971476443456 -0.48480960649040278 forward_v I I I I #
face $-1 $92 $93 $33 $-1 $94 forward single #
loop $-1 $95 $96 $43 #
cone-surface $-1 -59.151089777741163 39.835399445356629 5.6909760966258238 0 -0.87461971476443456 -0.48480960649040278 1.5 0 0 1 I I 0 1 1.5 forward I I I I #
face $-1 $97 $98 $34 $-1 $99 forward single #
loop $-1 $100 $101 $44 #
cone-surface $-1 -48.713387711053343 39.835399445356629 5.6909760966258238 0 -0.87461971476443456 -0.48480960649040278 1.5 0 0 1 I I 0 1 1.5 forward I I I I #
face $-1 $102 $103 $35 $-1 $104 forward single #
loop $-1 $105 $106 $45 #
cone-surface $-1 -38.275685644365524 39.835399445356629 5.6909760966258238 0 -0.87461971476443456 -0.48480960649040278 1.5 0 0 1 I I 0 1 1.5 forward I I I I #
face $-1 $107 $108 $36 $-1 $109 reversed single #
loop $-1 $-1 $110 $46 #
plane-surface $-1 -31.317217599906982 -176.08473558307855 75.989141484115407 -1 0 0 0 -0.87461971476443456 0.48480960649040278 forward_v I I I I #
face $-1 $111 $112 $37 $-1 $113 forward single #
loop $-1 $114 $115 $47 #
cone-surface $-1 -59.151089777741163 -39.835399445356636 5.6909760966258256 0 0.87461971476443456 -0.48480960649040278 1.5 0 0 1 I I 0 1 1.5 forward I I I I #
face $-1 $116 $117 $38 $-1 $118 forward single #
loop $-1 $119 $120 $48 #
cone-surface $-1 -48.713387711053343 -39.835399445356636 5.6909760966258256 0 0.87461971476443456 -0.48480960649040278 1.5 0 0 1 I I 0 1 1.5 forward I I I I #
face $-1 $121 $122 $39 $-1 $123 forward single #
loop $-1 $124 $125 $49 #
cone-surface $-1 -38.275685644365524 -39.835399445356636 5.6909760966258256 0 0.87461971476443456 -0.48480960649040278 1.5 0 0 1 I I 0 1 1.5 forward I I I I #
face $-1 $126 $127 $30 $-1 $128 reversed single #
loop $-1 $-1 $129 $50 #
plane-surface $-1 0 0 -10.688061452167481 0 0 1 1 0 0 forward_v I I I I #
coedge $-1 $130 $131 $132 $133 forward $51 $-1 #
face $-1 $134 $135 $31 $-1 $136 reversed single #
loop $-1 $-1 $137 $53 #
plane-surface $-1 0 0 10.688061452167481 0 0 1 1 0 0 forward_v I I I I #
coedge $-1 $138 $139 $140 $141 forward $54 $-1 #
face $-1 $142 $143 $32 $-1 $144 reversed single #
loop $-1 $-1 $145 $56 #
plane-surface $-1 -48.713387711053343 1.3323268365782042 79.404188147310592 0 0.87461971476443456 0.48480960649040278 1 0 0 forward_v I I I I #
coedge $-1 $146 $147 $148 $149 reversed $57 $-1 #
face $-1 $-1 $150 $33 $-1 $151 forward single #
loop $-1 $152 $153 $59 #
cone-surface $-1 -59.151089777741163 37.376557474793067 4.32801778680534 0 -0.87461971476443456 -0.48480960649040278 0.75 0 0 1 I I -0.70710678118654757 0.70710678118654757 0.75 forward I I I I #
loop $-1 $-1 $154 $43 #
coedge $-1 $96 $96 $155 $156 reversed $60 $-1 #
face $-1 $-1 $157 $34 $-1 $158 forward single #
loop $-1 $159 $160 $62 #
cone-surface $-1 -48.713387711053343 37.376557474793067 4.32801778680534 0 -0.87461971476443456 -0.48480960649040278 0.75 0 0 1 I I -0.70710678118654757 0.70710678118654757 0.75 forward I I I I #
loop $-1 $-1 $161 $44 #
coedge $-1 $101 $101 $162 $163 reversed $63 $-1 #
face $-1 $-1 $164 $35 $-1 $165 forward single #
loop $-1 $166 $167 $65 #
cone-surface $-1 -38.275685644365524 37.376557474793067 4.32801778680534 0 -0.87461971476443456 -0.48480960649040278 0.75 0 0 1 I I -0.70710678118654757 0.70710678118654757 0.75 forward I I I I #
loop $-1 $-1 $168 $45 #
coedge $-1 $106 $106 $169 $170 reversed $66 $-1 #
face $-1 $171 $172 $36 $-1 $173 reversed single #
loop $-1 $-1 $174 $68 #
plane-surface $-1 -48.713387711053343 -43.854256828055895 2.6925929509895212 0 -0.87461971476443456 0.48480960649040278 1 0 0 forward_v I I I I #
coedge $-1 $175 $176 $177 $178 reversed $69 $-1 #
face $-1 $-1 $179 $37 $-1 $180 forward single #
loop $-1 $181 $182 $71 #
cone-surface $-1 -59.151089777741163 -37.376557474793074 4.3280177868053418 0 0.87461971476443456 -0.48480960649040278 0.75 0 0 1 I I -0.70710678118654757 0.70710678118654757 0.75 forward I I I I #
loop $-1 $-1 $183 $47 #
coedge $-1 $115 $115 $184 $185 reversed $72 $-1 #
face $-1 $-1 $186 $38 $-1 $187 forward single #
loop $-1 $188 $189 $74 #
cone-surface $-1 -48.713387711053343 -37.376557474793074 4.3280177868053418 0 0.87461971476443456 -0.48480960649040278 0.75 0 0 1 I I -0.70710678118654757 0.70710678118654757 0.75 forward I I I I #
loop $-1 $-1 $190 $48 #
coedge $-1 $120 $120 $191 $192 reversed $75 $-1 #
face $-1 $-1 $193 $39 $-1 $194 forward single #
loop $-1 $195 $196 $77 #
cone-surface $-1 -38.275685644365524 -37.376557474793074 4.3280177868053418 0 0.87461971476443456 -0.48480960649040278 0.75 0 0 1 I I -0.70710678118654757 0.70710678118654757 0.75 forward I I I I #
loop $-1 $-1 $197 $49 #
coedge $-1 $125 $125 $198 $199 reversed $78 $-1 #
face $-1 $200 $201 $30 $-1 $202 reversed single #
loop $-1 $-1 $203 $80 #
plane-surface $-1 0 -43.854256828055931 0 0 1 0 0 0 1 forward_v I I I I #
coedge $-1 $204 $205 $206 $207 forward $81 $-1 #
coedge $-1 $208 $83 $209 $210 forward $51 $-1 #
coedge $-1 $83 $208 $211 $212 forward $51 $-1 #
coedge $-1 $213 $214 $83 $133 reversed $215 $-1 #
edge $-1 $216 -43.854256828055931 $217 43.854256828055931 $132 $218 forward 7 unknown #
face $-1 $219 $220 $31 $-1 $221 reversed single #
loop $-1 $-1 $222 $84 #
plane-surface $-1 -85.076696641132301 -42.285084879817092 0 1 0 0 0 0 -1 forward_v I I I I #
coedge $-1 $223 $224 $138 $225 forward $85 $-1 #
coedge $-1 $226 $87 $137 $225 reversed $54 $-1 #
coedge $-1 $87 $226 $227 $228 reversed $54 $-1 #
coedge $-1 $229 $230 $87 $141 reversed $220 $-1 #
edge $-1 $231 -10.688061452167481 $232 10.688061452167481 $140 $233 forward 7 unknown #
face $-1 $234 $235 $32 $-1 $236 forward single #
loop $-1 $-1 $237 $88 #
plane-surface $-1 -31.317217599906982 133.56280559160086 152.70073668043648 -1 0 0 0 0.87461971476443456 0.48480960649040278 forward_v I I I I #
coedge $-1 $238 $239 $240 $241 reversed $89 $-1 #
coedge $-1 $147 $91 $242 $243 reversed $57 $-1 #
coedge $-1 $91 $146 $238 $244 reversed $57 $-1 #
coedge $-1 $240 $245 $91 $149 forward $235 $-1 #
edge $-1 $246 22.927145967744501 $247 27.359106364162642 $148 $248 forward 7 unknown #
loop $-1 $-1 $155 $92 #
plane-surface $-1 -48.713387711053343 1.3323268365782042 79.404188147310592 0 0.87461971476443456 0.48480960649040278 1 0 0 forward_v I I I I #
loop $-1 $-1 $249 $59 #
coedge $-1 $153 $153 $154 $250 reversed $93 $-1 #
coedge $-1 $154 $154 $153 $250 forward $95 $-1 #
coedge $-1 $155 $155 $96 $156 forward $150 $-1 #
edge $-1 $251 4.5000802238998038e-016 $251 6.2831853071796013 $155 $252 forward 7 unknown #
loop $-1 $-1 $162 $97 #
plane-surface $-1 -48.713387711053343 1.3323268365782042 79.404188147310592 0 0.87461971476443456 0.48480960649040278 1 0 0 forward_v I I I I #
loop $-1 $-1 $253 $62 #
coedge $-1 $160 $160 $161 $254 reversed $98 $-1 #
coedge $-1 $161 $161 $160 $254 forward $100 $-1 #
coedge $-1 $162 $162 $101 $163 forward $157 $-1 #
edge $-1 $255 4.5000802238998038e-016 $255 6.2831853071796013 $162 $256 forward 7 unknown #
loop $-1 $-1 $169 $102 #
plane-surface $-1 -48.713387711053343 1.3323268365782042 79.404188147310592 0 0.87461971476443456 0.48480960649040278 1 0 0 forward_v I I I I #
loop $-1 $-1 $257 $65 #
coedge $-1 $167 $167 $168 $258 reversed $103 $-1 #
coedge $-1 $168 $168 $167 $258 forward $105 $-1 #
coedge $-1 $169 $169 $106 $170 forward $164 $-1 #
edge $-1 $259 4.5000802238998038e-016 $259 6.2831853071796013 $169 $260 forward 7 unknown #
face $-1 $261 $262 $36 $-1 $263 forward single #
loop $-1 $-1 $264 $107 #
plane-surface $-1 -66.109557822199704 -176.08473558307855 75.989141484115407 1 0 0 0 0.87461971476443456 -0.48480960649040278 forward_v I I I I #
coedge $-1 $265 $266 $267 $268 reversed $108 $-1 #
coedge $-1 $176 $110 $269 $270 reversed $69 $-1 #
coedge $-1 $110 $175 $265 $271 reversed $69 $-1 #
coedge $-1 $267 $272 $110 $178 forward $262 $-1 #
edge $-1 $273 44.188110963483346 $274 48.620071359901516 $177 $275 forward 7 unknown #
loop $-1 $-1 $184 $111 #
plane-surface $-1 -48.713387711053343 -43.854256828055895 2.6925929509895212 0 -0.87461971476443456 0.48480960649040278 1 0 0 forward_v I I I I #
loop $-1 $-1 $276 $71 #
coedge $-1 $182 $182 $183 $277 reversed $112 $-1 #
coedge $-1 $183 $183 $182 $277 forward $114 $-1 #
coedge $-1 $184 $184 $115 $185 forward $179 $-1 #
edge $-1 $278 -8.926224784421811e-017 $278 6.2831853071796004 $184 $279 forward 7 unknown #
loop $-1 $-1 $191 $116 #
plane-surface $-1 -48.713387711053343 -43.854256828055895 2.6925929509895212 0 -0.87461971476443456 0.48480960649040278 1 0 0 forward_v I I I I #
loop $-1 $-1 $280 $74 #
coedge $-1 $189 $189 $190 $281 reversed $117 $-1 #
coedge $-1 $190 $190 $189 $281 forward $119 $-1 #
coedge $-1 $191 $191 $120 $192 forward $186 $-1 #
edge $-1 $282 -8.926224784421811e-017 $282 6.2831853071796004 $191 $283 forward 7 unknown #
loop $-1 $-1 $198 $121 #
plane-surface $-1 -48.713387711053343 -43.854256828055895 2.6925929509895212 0 -0.87461971476443456 0.48480960649040278 1 0 0 forward_v I I I I #
loop $-1 $-1 $284 $77 #
coedge $-1 $196 $196 $197 $285 reversed $122 $-1 #
coedge $-1 $197 $197 $196 $285 forward $124 $-1 #
coedge $-1 $198 $198 $125 $199 forward $193 $-1 #
edge $-1 $286 -8.926224784421811e-017 $286 6.2831853071796004 $198 $287 forward 7 unknown #
face $-1 $288 $289 $30 $-1 $290 reversed single #
loop $-1 $-1 $291 $126 #
plane-surface $-1 -75.593127231666003 0 0 1 0 0 0 0 -1 forward_v I I I I #
coedge $-1 $292 $211 $293 $294 forward $127 $-1 #
coedge $-1 $295 $129 $292 $296 forward $81 $-1 #
coedge $-1 $129 $295 $297 $298 forward $81 $-1 #
coedge $-1 $214 $213 $129 $207 reversed $215 $-1 #
edge $-1 $299 -43.854256828055931 $300 43.854256828055931 $206 $301 forward 7 unknown #
coedge $-1 $131 $130 $302 $303 forward $51 $-1 #
coedge $-1 $304 $305 $130 $210 reversed $289 $-1 #
edge $-1 $217 -75.593127231666003 $306 75.593127231666003 $209 $307 forward 7 unknown #
coedge $-1 $203 $308 $131 $212 reversed $127 $-1 #
edge $-1 $309 -75.593127231666003 $216 75.593127231666003 $211 $310 forward 7 unknown #
coedge $-1 $206 $132 $308 $311 forward $215 $-1 #
coedge $-1 $132 $206 $304 $312 reversed $215 $-1 #
loop $-1 $-1 $213 $288 #
vertex $-1 $133 $313 #
vertex $-1 $133 $314 #
straight-curve $-1 75.593127231666003 0 10.688061452167481 0 1 0 I I #
face $-1 $315 $316 $31 $-1 $317 reversed single #
loop $-1 $-1 $140 $134 #
plane-surface $-1 -80.334911936399152 -40.715912931578252 0 0 -1 0 0 0 -1 forward_v I I I I #
coedge $-1 $318 $319 $320 $321 forward $135 $-1 #
coedge $-1 $322 $137 $230 $323 forward $85 $-1 #
coedge $-1 $137 $322 $324 $325 forward $85 $-1 #
edge $-1 $326 -43.854256828055931 $232 -40.715912931578252 $137 $327 forward 7 unknown #
coedge $-1 $139 $138 $328 $329 reversed $54 $-1 #
coedge $-1 $330 $331 $139 $228 forward $316 $-1 #
edge $-1 $231 40.715912931578252 $332 43.854256828055931 $227 $333 forward 7 unknown #
coedge $-1 $320 $140 $331 $334 reversed $220 $-1 #
coedge $-1 $140 $320 $223 $323 reversed $220 $-1 #
vertex $-1 $228 $335 #
vertex $-1 $323 $336 #
straight-curve $-1 -75.593127231666003 -40.715912931578252 0 0 0 1 I I #
face $-1 $-1 $337 $32 $-1 $338 reversed single #
loop $-1 $-1 $148 $142 #
plane-surface $-1 0 0 10.688061452167481 0 0 1 1 0 0 forward_v I I I I #
coedge $-1 $339 $340 $341 $342 reversed $143 $-1 #
coedge $-1 $343 $145 $147 $244 forward $89 $-1 #
coedge $-1 $145 $343 $339 $344 forward $89 $-1 #
coedge $-1 $341 $148 $145 $241 forward $235 $-1 #
edge $-1 $247 -41.752863966673033 $345 -6.9605237443803105 $240 $346 forward 7 unknown #
coedge $-1 $347 $348 $146 $243 forward $337 $-1 #
edge $-1 $349 -73.657775389228746 $246 -65.66230688805075 $242 $350 forward 7 unknown #
edge $-1 $247 78.566862300435062 $349 87.708513656111904 $147 $351 forward 7 unknown #
coedge $-1 $148 $341 $347 $352 forward $235 $-1 #
vertex $-1 $243 $353 #
vertex $-1 $149 $354 #
straight-curve $-1 -66.109557822199704 66.781402795800432 10.688061452167474 0 -1 0 I I #
coedge $-1 $249 $249 $-1 $355 reversed $152 $-1 #
edge $-1 $356 0 $356 6.2831853071796004 $153 $357 forward 7 unknown #
vertex $-1 $156 $358 #
ellipse-curve $-1 -59.151089777741163 41.63827662984685 6.6903272015784978 0 0.87461971476443456 0.48480960649040278 1.5 0 0 1 I I #
coedge $-1 $253 $253 $-1 $359 reversed $159 $-1 #
edge $-1 $360 0 $360 6.2831853071796004 $160 $361 forward 7 unknown #
vertex $-1 $163 $362 #
ellipse-curve $-1 -48.713387711053343 41.63827662984685 6.6903272015784978 0 0.87461971476443456 0.48480960649040278 1.5 0 0 1 I I #
coedge $-1 $257 $257 $-1 $363 reversed $166 $-1 #
edge $-1 $364 0 $364 6.2831853071796004 $167 $365 forward 7 unknown #
vertex $-1 $170 $366 #
ellipse-curve $-1 -38.275685644365524 41.63827662984685 6.6903272015784978 0 0.87461971476443456 0.48480960649040278 1.5 0 0 1 I I #
face $-1 $-1 $367 $36 $-1 $368 reversed single #
loop $-1 $-1 $177 $171 #
plane-surface $-1 0 0 10.688061452167481 0 0 1 1 0 0 forward_v I I I I #
coedge $-1 $369 $370 $371 $372 reversed $172 $-1 #
coedge $-1 $373 $174 $176 $271 forward $108 $-1 #
coedge $-1 $174 $373 $369 $374 forward $108 $-1 #
coedge $-1 $371 $177 $174 $268 forward $262 $-1 #
edge $-1 $274 6.9605237443803105 $375 41.752863966673033 $267 $376 forward 7 unknown #
coedge $-1 $377 $378 $175 $270 forward $367 $-1 #
edge $-1 $379 -35.301977791068246 $273 -27.306509289890222 $269 $380 forward 7 unknown #
edge $-1 $274 -9.1416513556768138 $379 7.3154818844983007e-014 $176 $381 forward 7 unknown #
coedge $-1 $177 $371 $377 $382 forward $262 $-1 #
vertex $-1 $178 $383 #
vertex $-1 $178 $384 #
straight-curve $-1 -31.317217599906982 -88.042367791539277 10.688061452167481 0 1 0 I I #
coedge $-1 $276 $276 $-1 $385 reversed $181 $-1 #
edge $-1 $386 0 $386 6.2831853071796004 $182 $387 forward 7 unknown #
vertex $-1 $185 $388 #
ellipse-curve $-1 -59.151089777741163 -41.638276629846835 6.6903272015784871 0 -0.87461971476443456 0.48480960649040278 1.5 0 0 1 I I #
coedge $-1 $280 $280 $-1 $389 reversed $188 $-1 #
edge $-1 $390 0 $390 6.2831853071796004 $189 $391 forward 7 unknown #
vertex $-1 $192 $392 #
ellipse-curve $-1 -48.713387711053343 -41.638276629846835 6.6903272015784871 0 -0.87461971476443456 0.48480960649040278 1.5 0 0 1 I I #
coedge $-1 $284 $284 $-1 $393 reversed $195 $-1 #
edge $-1 $394 0 $394 6.2831853071796004 $196 $395 forward 7 unknown #
vertex $-1 $199 $396 #
ellipse-curve $-1 -38.275685644365524 -41.638276629846835 6.6903272015784871 0 -0.87461971476443456 0.48480960649040278 1.5 0 0 1 I I #
face $-1 $-1 $215 $30 $-1 $397 reversed single #
loop $-1 $-1 $304 $200 #
plane-surface $-1 0 43.854256828055931 0 0 -1 0 0 0 -1 forward_v I I I I #
coedge $-1 $398 $302 $305 $399 forward $201 $-1 #
coedge $-1 $308 $203 $204 $296 reversed $127 $-1 #
coedge $-1 $302 $398 $203 $294 reversed $201 $-1 #
edge $-1 $309 -10.688061452167481 $400 10.688061452167481 $293 $401 forward 7 unknown #
coedge $-1 $205 $204 $398 $402 forward $81 $-1 #
edge $-1 $300 -75.593127231666003 $400 75.593127231666003 $292 $403 forward 7 unknown #
coedge $-1 $305 $304 $205 $298 reversed $289 $-1 #
edge $-1 $404 -75.593127231666003 $299 75.593127231666003 $297 $405 forward 7 unknown #
vertex $-1 $207 $406 #
vertex $-1 $311 $407 #
straight-curve $-1 75.593127231666003 0 -10.688061452167481 0 -1 0 I I #
coedge $-1 $291 $293 $208 $303 reversed $201 $-1 #
edge $-1 $306 -43.854256828055931 $309 43.854256828055931 $302 $408 forward 7 unknown #
coedge $-1 $297 $209 $214 $312 forward $289 $-1 #
coedge $-1 $209 $297 $291 $399 reversed $289 $-1 #
vertex $-1 $210 $409 #
straight-curve $-1 0 43.854256828055931 10.688061452167481 -1 0 0 I I #
coedge $-1 $211 $292 $213 $311 reversed $127 $-1 #
vertex $-1 $303 $410 #
straight-curve $-1 0 -43.854256828055931 10.688061452167481 1 0 0 I I #
edge $-1 $216 -10.688061452167481 $300 10.688061452167481 $213 $411 forward 7 unknown #
edge $-1 $217 -10.688061452167481 $299 10.688061452167481 $214 $412 forward 7 unknown #
point $-1 75.593127231666003 -43.854256828055931 10.688061452167481 #
point $-1 75.593127231666003 43.854256828055931 10.688061452167481 #
face $-1 $-1 $413 $31 $-1 $414 reversed single #
loop $-1 $-1 $227 $219 #
plane-surface $-1 0 0 -10.688061452167481 0 0 1 1 0 0 forward_v I I I I #
coedge $-1 $415 $222 $416 $417 reversed $135 $-1 #
coedge $-1 $222 $415 $322 $418 reversed $135 $-1 #
coedge $-1 $230 $229 $222 $321 reversed $220 $-1 #
edge $-1 $419 -10.688061452167481 $420 10.688061452167481 $320 $421 forward 7 unknown #
coedge $-1 $224 $223 $319 $418 forward $85 $-1 #
edge $-1 $232 -4.7417847047331492 $419 4.7417847047331492 $230 $422 forward 7 unknown #
coedge $-1 $423 $328 $224 $325 reversed $413 $-1 #
edge $-1 $424 -85.076696641132301 $326 -75.593127231666003 $324 $425 forward 7 unknown #
vertex $-1 $329 $426 #
straight-curve $-1 -75.593127231666003 0 10.688061452167481 0 1 0 I I #
coedge $-1 $324 $427 $226 $329 forward $413 $-1 #
edge $-1 $332 -10.688061452167481 $326 10.688061452167481 $328 $428 forward 7 unknown #
coedge $-1 $416 $227 $427 $429 forward $316 $-1 #
coedge $-1 $227 $416 $229 $334 forward $316 $-1 #
vertex $-1 $429 $430 #
straight-curve $-1 -75.593127231666003 0 -10.688061452167481 0 -1 0 I I #
edge $-1 $420 -4.7417847047331492 $231 4.7417847047331492 $229 $431 forward 7 unknown #
point $-1 -75.593127231666003 -40.715912931578252 -10.688061452167481 #
point $-1 -75.593127231666003 -40.715912931578252 10.688061452167481 #
loop $-1 $-1 $242 $234 #
plane-surface $-1 0 43.854256828055931 0 0 -1 0 0 0 -1 forward_v I I I I #
coedge $-1 $340 $237 $239 $344 reversed $143 $-1 #
coedge $-1 $237 $339 $432 $433 reversed $143 $-1 #
coedge $-1 $245 $240 $237 $342 forward $235 $-1 #
edge $-1 $345 -27.359106364162642 $434 -22.927145967744501 $341 $435 forward 7 unknown #
coedge $-1 $239 $238 $348 $436 reversed $89 $-1 #
edge $-1 $437 -87.708513656111904 $345 -78.566862300435062 $339 $438 forward 7 unknown #
vertex $-1 $241 $439 #
straight-curve $-1 -24.356693855526672 39.422296431637776 10.688061452167489 1 0 0 I I #
coedge $-1 $432 $242 $245 $352 reversed $337 $-1 #
coedge $-1 $242 $432 $343 $436 forward $337 $-1 #
vertex $-1 $243 $440 #
straight-curve $-1 -66.109557822199704 43.854256828055931 76.350368340218239 0 0 1 I I #
straight-curve $-1 -66.109557822199704 1.3323268365782042 79.404188147310592 0 0.48480960649040278 -0.87461971476443456 I I #
edge $-1 $434 31.317217599906982 $246 66.109557822199704 $347 $441 forward 7 unknown #
point $-1 -66.109557822199704 43.854256828055931 10.688061452167481 #
point $-1 -66.109557822199704 39.42229643163779 10.688061452167474 #
edge $-1 $442 1 $442 0 $249 $-1 forward 7 unknown #
vertex $-1 $250 $443 #
ellipse-curve $-1 -59.151089777741163 38.032522260866394 4.6916249916731418 0 0.87461971476443456 0.48480960649040278 1.5 0 0 1 I I #
point $-1 -57.651089777741163 41.638276629846864 6.6903272015785049 #
edge $-1 $444 1 $444 0 $253 $-1 forward 7 unknown #
vertex $-1 $254 $445 #
ellipse-curve $-1 -48.713387711053343 38.032522260866394 4.6916249916731418 0 0.87461971476443456 0.48480960649040278 1.5 0 0 1 I I #
point $-1 -47.213387711053343 41.638276629846864 6.6903272015785049 #
edge $-1 $446 1 $446 0 $257 $-1 forward 7 unknown #
vertex $-1 $258 $447 #
ellipse-curve $-1 -38.275685644365524 38.032522260866394 4.6916249916731418 0 0.87461971476443456 0.48480960649040278 1.5 0 0 1 I I #
point $-1 -36.775685644365524 41.638276629846864 6.6903272015785049 #
loop $-1 $-1 $269 $261 #
plane-surface $-1 0 -43.854256828055931 0 0 1 0 0 0 1 forward_v I I I I #
coedge $-1 $370 $264 $266 $374 reversed $172 $-1 #
coedge $-1 $264 $369 $448 $449 reversed $172 $-1 #
coedge $-1 $272 $267 $264 $372 forward $262 $-1 #
edge $-1 $375 -48.620071359901516 $450 -44.188110963483346 $371 $451 forward 7 unknown #
coedge $-1 $266 $265 $378 $452 reversed $108 $-1 #
edge $-1 $453 -7.3154818844983007e-014 $375 9.1416513556768138 $369 $454 forward 7 unknown #
vertex $-1 $268 $455 #
straight-curve $-1 -24.356693855526672 -39.422296431637768 10.688061452167481 -1 0 0 I I #
coedge $-1 $448 $269 $272 $382 reversed $367 $-1 #
coedge $-1 $269 $448 $373 $452 forward $367 $-1 #
vertex $-1 $270 $456 #
straight-curve $-1 -31.317217599906982 -43.854256828055938 37.994570742057704 0 0 1 I I #
straight-curve $-1 -31.317217599906982 -43.854256828055895 2.6925929509895212 0 -0.48480960649040278 -0.87461971476443456 I I #
edge $-1 $450 -66.109557822199704 $273 -31.317217599906982 $377 $457 forward 7 unknown #
point $-1 -31.317217599906982 -43.854256828055931 10.688061452167481 #
point $-1 -31.317217599906982 -39.422296431637761 10.688061452167481 #
edge $-1 $458 1 $458 0 $276 $-1 forward 7 unknown #
vertex $-1 $277 $459 #
ellipse-curve $-1 -59.151089777741163 -38.032522260866401 4.6916249916731436 0 -0.87461971476443456 0.48480960649040278 1.5 0 0 1 I I #
point $-1 -57.651089777741163 -41.638276629846871 6.6903272015785067 #
edge $-1 $460 1 $460 0 $280 $-1 forward 7 unknown #
vertex $-1 $281 $461 #
ellipse-curve $-1 -48.713387711053343 -38.032522260866401 4.6916249916731436 0 -0.87461971476443456 0.48480960649040278 1.5 0 0 1 I I #
point $-1 -47.213387711053343 -41.638276629846871 6.6903272015785067 #
edge $-1 $462 1 $462 0 $284 $-1 forward 7 unknown #
vertex $-1 $285 $463 #
ellipse-curve $-1 -38.275685644365524 -38.032522260866401 4.6916249916731436 0 -0.87461971476443456 0.48480960649040278 1.5 0 0 1 I I #
point $-1 -36.775685644365524 -41.638276629846871 6.6903272015785067 #
plane-surface $-1 75.593127231666003 0 0 -1 0 0 0 0 1 forward_v I I I I #
coedge $-1 $293 $291 $295 $402 reversed $201 $-1 #
edge $-1 $306 -10.688061452167481 $404 10.688061452167481 $305 $464 forward 7 unknown #
vertex $-1 $402 $465 #
straight-curve $-1 -75.593127231666003 -43.854256828055931 0 0 0 -1 I I #
edge $-1 $400 -43.854256828055931 $404 43.854256828055931 $398 $466 forward 7 unknown #
straight-curve $-1 0 -43.854256828055931 -10.688061452167481 -1 0 0 I I #
vertex $-1 $298 $467 #
straight-curve $-1 0 43.854256828055931 -10.688061452167481 1 0 0 I I #
point $-1 75.593127231666003 43.854256828055931 -10.688061452167481 #
point $-1 75.593127231666003 -43.854256828055931 -10.688061452167481 #
straight-curve $-1 -75.593127231666003 0 10.688061452167481 0 -1 0 I I #
point $-1 -75.593127231666003 43.854256828055931 10.688061452167481 #
point $-1 -75.593127231666003 -43.854256828055931 10.688061452167481 #
straight-curve $-1 75.593127231666003 -43.854256828055931 0 0 0 -1 I I #
straight-curve $-1 75.593127231666003 43.854256828055931 0 0 0 -1 I I #
loop $-1 $-1 $328 $315 #
plane-surface $-1 0 -43.854256828055931 0 0 1 0 0 0 1 forward_v I I I I #
coedge $-1 $319 $318 $423 $468 reversed $135 $-1 #
coedge $-1 $331 $330 $318 $417 forward $316 $-1 #
edge $-1 $469 -1.5691719482388393 $420 1.5691719482388393 $318 $470 forward 7 unknown #
edge $-1 $419 -1.5691719482388393 $424 1.5691719482388393 $319 $471 forward 7 unknown #
vertex $-1 $323 $472 #
vertex $-1 $334 $473 #
straight-curve $-1 -85.076696641132301 -40.715912931578252 0 0 0 -1 I I #
straight-curve $-1 -80.334911936399152 -40.715912931578252 10.688061452167481 -1 0 0 I I #
coedge $-1 $427 $324 $415 $468 forward $413 $-1 #
vertex $-1 $418 $474 #
straight-curve $-1 0 -43.854256828055931 10.688061452167481 1 0 0 I I #
point $-1 -75.593127231666003 -43.854256828055931 10.688061452167481 #
coedge $-1 $328 $423 $330 $429 reversed $413 $-1 #
straight-curve $-1 -75.593127231666003 -43.854256828055931 0 0 0 1 I I #
edge $-1 $332 -4.7417847047331492 $469 4.7417847047331492 $427 $475 forward 7 unknown #
point $-1 -75.593127231666003 -43.854256828055931 -10.688061452167481 #
straight-curve $-1 -80.334911936399152 -40.715912931578252 -10.688061452167481 1 0 0 I I #
coedge $-1 $348 $347 $340 $433 forward $337 $-1 #
edge $-1 $434 65.66230688805075 $437 73.657775389228746 $432 $476 forward 7 unknown #
vertex $-1 $352 $477 #
straight-curve $-1 -31.317217599906982 66.781402795800432 10.688061452167474 0 1 0 I I #
edge $-1 $437 6.9605237443803105 $349 41.752863966673033 $348 $478 forward 7 unknown #
vertex $-1 $436 $479 #
straight-curve $-1 -31.317217599906982 1.3323268365782042 79.404188147310592 0 -0.48480960649040278 0.87461971476443456 I I #
point $-1 -31.317217599906982 39.42229643163779 10.688061452167474 #
point $-1 -66.109557822199704 43.854256828055931 2.6925929509894928 #
straight-curve $-1 0 43.854256828055931 10.688061452167481 -1 0 0 I I #
vertex $-1 $355 $480 #
point $-1 -57.651089777741163 38.032522260866394 4.6916249916731418 #
vertex $-1 $359 $481 #
point $-1 -47.213387711053343 38.032522260866394 4.6916249916731418 #
vertex $-1 $363 $482 #
point $-1 -36.775685644365524 38.032522260866394 4.6916249916731418 #
coedge $-1 $378 $377 $370 $449 forward $367 $-1 #
edge $-1 $450 27.306509289890222 $453 35.301977791068246 $448 $483 forward 7 unknown #
vertex $-1 $382 $484 #
straight-curve $-1 -66.109557822199704 -88.042367791539277 10.688061452167481 0 -1 0 I I #
edge $-1 $453 -41.752863966673033 $379 -6.9605237443803105 $378 $485 forward 7 unknown #
vertex $-1 $452 $486 #
straight-curve $-1 -66.109557822199704 -43.854256828055895 2.6925929509895212 0 0.48480960649040278 0.87461971476443456 I I #
point $-1 -66.109557822199704 -39.422296431637761 10.688061452167481 #
point $-1 -31.317217599906982 -43.854256828055931 2.6925929509894573 #
straight-curve $-1 0 -43.854256828055931 10.688061452167481 1 0 0 I I #
vertex $-1 $385 $487 #
point $-1 -57.651089777741163 -38.032522260866401 4.6916249916731436 #
vertex $-1 $389 $488 #
point $-1 -47.213387711053343 -38.032522260866401 4.6916249916731436 #
vertex $-1 $393 $489 #
point $-1 -36.775685644365524 -38.032522260866401 4.6916249916731436 #
straight-curve $-1 -75.593127231666003 43.854256828055931 0 0 0 -1 I I #
point $-1 -75.593127231666003 -43.854256828055931 -10.688061452167481 #
straight-curve $-1 -75.593127231666003 0 -10.688061452167481 0 1 0 I I #
point $-1 -75.593127231666003 43.854256828055931 -10.688061452167481 #
edge $-1 $424 -10.688061452167481 $469 10.688061452167481 $415 $490 forward 7 unknown #
vertex $-1 $417 $491 #
straight-curve $-1 -85.076696641132301 -42.285084879817092 -10.688061452167481 0 1 0 I I #
straight-curve $-1 -85.076696641132301 -42.285084879817092 10.688061452167481 0 -1 0 I I #
point $-1 -85.076696641132301 -40.715912931578252 10.688061452167481 #
point $-1 -85.076696641132301 -40.715912931578252 -10.688061452167481 #
point $-1 -85.076696641132301 -43.854256828055931 10.688061452167481 #
straight-curve $-1 -80.334911936399152 -43.854256828055931 -10.688061452167481 -1 0 0 I I #
straight-curve $-1 -31.317217599906982 43.854256828055931 76.350368340218239 0 0 -1 I I #
point $-1 -31.317217599906982 43.854256828055931 10.688061452167481 #
straight-curve $-1 -24.356693855526672 43.854256828055931 2.6925929509894999 -1 0 0 I I #
point $-1 -31.317217599906982 43.854256828055931 2.6925929509894928 #
point $-1 -59.151089777741163 36.720592688719741 3.9644105819375381 #
point $-1 -48.713387711053343 36.720592688719741 3.9644105819375381 #
point $-1 -38.275685644365524 36.720592688719741 3.9644105819375381 #
straight-curve $-1 -66.109557822199704 -43.854256828055938 37.994570742057704 0 0 -1 I I #
point $-1 -66.109557822199704 -43.854256828055931 10.688061452167481 #
straight-curve $-1 -24.356693855526672 -43.854256828055931 2.6925929509894564 1 0 0 I I #
point $-1 -66.109557822199704 -43.854256828055931 2.6925929509894573 #
point $-1 -59.151089777741163 -36.720592688719748 3.9644105819375399 #
point $-1 -48.713387711053343 -36.720592688719748 3.9644105819375399 #
point $-1 -38.275685644365524 -36.720592688719748 3.9644105819375399 #
straight-curve $-1 -85.076696641132301 -43.854256828055931 0 0 0 -1 I I #
point $-1 -85.076696641132301 -43.854256828055931 -10.688061452167481 #
End-of-ACIS-data 