600 0 5 0           
109 GICL ACIS Healer - Source: /gicl/data5/repository/Drexel/CICIRELLO-THESISDATA/Part10007.smdg.deltas.sat - 6 0 18 ACIS 6.0.3 Solaris 24 Fri Apr 12 10:19:26 2002 
1 9.999999999999999547e-07 1.000000000000000036e-10 
body $-1 $5 $-1 $-1 #
body $-1 $6 $-1 $-1 #
body $-1 $7 $-1 $-1 #
body $-1 $8 $-1 $-1 #
body $-1 $9 $-1 $-1 #
lump $-1 $-1 $10 $0 #
lump $-1 $-1 $11 $1 #
lump $-1 $-1 $12 $2 #
lump $-1 $-1 $13 $3 #
lump $-1 $-1 $14 $4 #
shell $-1 $-1 $-1 $15 $-1 $5 #
shell $-1 $-1 $-1 $16 $-1 $6 #
shell $-1 $-1 $-1 $17 $-1 $7 #
shell $-1 $-1 $-1 $18 $-1 $8 #
shell $-1 $-1 $-1 $19 $-1 $9 #
face $-1 $20 $21 $10 $-1 $22 forward single #
face $-1 $23 $24 $11 $-1 $25 forward single #
face $-1 $26 $27 $12 $-1 $28 forward single #
face $-1 $29 $30 $13 $-1 $31 reversed single #
face $-1 $32 $33 $14 $-1 $34 forward single #
face $-1 $35 $36 $10 $-1 $37 reversed single #
loop $-1 $-1 $38 $15 #
plane-surface $-1 55.38499099703970785 30.55631550786720041 24.50734562434623953 0 0 1 1 0 0 forward_v I I I I #
face $-1 $39 $40 $11 $-1 $41 reversed single #
loop $-1 $-1 $42 $16 #
plane-surface $-1 0 30.55631550786720041 12.25367281217311977 1 0 0 0 0 -1 forward_v I I I I #
face $-1 $43 $44 $12 $-1 $45 reversed single #
loop $-1 $-1 $46 $17 #
plane-surface $-1 110.7699819940794157 30.55631550786720041 12.25367281217311977 -1 0 0 0 0 1 forward_v I I I I #
face $-1 $47 $48 $13 $-1 $49 reversed single #
loop $-1 $-1 $50 $18 #
plane-surface $-1 63.3477562958932765 76.78043693109185597 142.5009914987589923 1 0 0 0 -0.5877852598018022956 -0.8090169889191003438 forward_v I I I I #
face $-1 $51 $52 $14 $-1 $53 forward single #
loop $-1 $54 $55 $19 #
cone-surface $-1 70.51658743206245106 54.08114439039592014 18.2023334995168149 0 -0.5877852598018022956 -0.8090169889191003438 2 0 0 1 I I 0 1 2 forward I I I I #
face $-1 $56 $57 $10 $-1 $58 reversed single #
loop $-1 $-1 $59 $20 #
plane-surface $-1 55.38499099703970785 30.55631550786720041 0 0 0 1 1 0 0 forward_v I I I I #
coedge $-1 $60 $61 $62 $63 forward $21 $-1 #
face $-1 $64 $65 $11 $-1 $66 forward single #
loop $-1 $-1 $67 $23 #
plane-surface $-1 55.38499099703970785 61.11263101573440082 12.25367281217311977 0 -1 0 0 0 -1 forward_v I I I I #
coedge $-1 $68 $69 $70 $71 forward $24 $-1 #
face $-1 $72 $73 $12 $-1 $74 forward single #
loop $-1 $-1 $75 $26 #
plane-surface $-1 55.38499099703970785 61.11263101573440082 12.25367281217311977 0 -1 0 0 0 -1 forward_v I I I I #
coedge $-1 $76 $77 $78 $79 forward $27 $-1 #
face $-1 $80 $81 $13 $-1 $82 reversed single #
loop $-1 $-1 $83 $29 #
plane-surface $-1 70.51658743206245106 11.67147428646092422 52.88619420328591048 0 0.5877852598018022956 0.8090169889191003438 1 0 0 forward_v I I I I #
coedge $-1 $84 $85 $86 $87 reversed $30 $-1 #
face $-1 $-1 $88 $14 $-1 $89 forward single #
loop $-1 $90 $91 $32 #
cone-surface $-1 70.51658743206245106 51.6523841971873594 14.85943194567601111 0 -0.5877852598018022956 -0.8090169889191003438 1 0 0 1 I I -0.7071067811865474617 0.7071067811865474617 1 forward I I I I #
loop $-1 $-1 $92 $19 #
coedge $-1 $55 $55 $93 $94 reversed $33 $-1 #
face $-1 $95 $96 $10 $-1 $97 reversed single #
loop $-1 $-1 $98 $35 #
plane-surface $-1 55.38499099703970785 0 12.25367281217311977 0 1 0 0 0 1 forward_v I I I I #
coedge $-1 $99 $100 $101 $102 forward $36 $-1 #
coedge $-1 $103 $38 $104 $105 forward $21 $-1 #
coedge $-1 $38 $103 $106 $107 forward $21 $-1 #
coedge $-1 $108 $109 $38 $63 reversed $110 $-1 #
edge $-1 $111 -30.55631550786720041 $112 30.55631550786720041 $62 $113 forward 7 unknown #
face $-1 $114 $115 $11 $-1 $116 reversed single #
loop $-1 $-1 $70 $39 #
plane-surface $-1 -7.131505193488997918 30.55631550786720041 6.141607977365005411 0 0 1 1 0 0 forward_v I I I I #
coedge $-1 $117 $118 $69 $119 forward $40 $-1 #
coedge $-1 $120 $42 $121 $122 reversed $24 $-1 #
coedge $-1 $42 $120 $67 $119 reversed $24 $-1 #
coedge $-1 $123 $124 $42 $71 reversed $65 $-1 #
edge $-1 $125 -30.55631550786720041 $126 30.55631550786720041 $70 $127 forward 7 unknown #
face $-1 $128 $129 $12 $-1 $130 reversed single #
loop $-1 $-1 $131 $43 #
plane-surface $-1 117.9014871875684207 30.55631550786720041 6.141607977365005411 0 0 1 1 0 0 forward_v I I I I #
coedge $-1 $132 $133 $76 $134 forward $44 $-1 #
coedge $-1 $135 $46 $75 $134 reversed $27 $-1 #
coedge $-1 $46 $135 $136 $137 reversed $27 $-1 #
coedge $-1 $138 $139 $46 $79 reversed $73 $-1 #
edge $-1 $140 -30.55631550786720041 $141 30.55631550786720041 $78 $142 forward 7 unknown #
face $-1 $143 $144 $13 $-1 $145 reversed single #
loop $-1 $-1 $146 $47 #
plane-surface $-1 77.68541856823162561 76.78043693109185597 142.5009914987589923 -1 0 0 0 0.5877852598018022956 0.8090169889191003438 forward_v I I I I #
coedge $-1 $147 $148 $149 $150 reversed $48 $-1 #
coedge $-1 $85 $50 $151 $152 reversed $30 $-1 #
coedge $-1 $50 $84 $147 $153 reversed $30 $-1 #
coedge $-1 $149 $154 $50 $87 forward $155 $-1 #
edge $-1 $156 -7.444254796254874407 $157 2.936768587608597159 $86 $158 forward 7 unknown #
loop $-1 $-1 $93 $51 #
plane-surface $-1 70.51658743206245106 11.67147428646092422 52.88619420328591048 0 0.5877852598018022956 0.8090169889191003438 1 0 0 forward_v I I I I #
loop $-1 $-1 $159 $32 #
coedge $-1 $91 $91 $92 $160 reversed $52 $-1 #
coedge $-1 $92 $92 $91 $160 forward $54 $-1 #
coedge $-1 $93 $93 $55 $94 forward $88 $-1 #
edge $-1 $161 -5.162867522557458329e-16 $161 6.283185307179585344 $93 $162 forward 7 unknown #
face $-1 $163 $164 $10 $-1 $165 reversed single #
loop $-1 $-1 $166 $56 #
plane-surface $-1 0 30.55631550786720041 12.25367281217311977 1 0 0 0 0 -1 forward_v I I I I #
coedge $-1 $167 $106 $166 $168 forward $57 $-1 #
coedge $-1 $169 $59 $167 $170 forward $36 $-1 #
coedge $-1 $59 $169 $171 $172 forward $36 $-1 #
coedge $-1 $109 $108 $59 $102 reversed $110 $-1 #
edge $-1 $173 -30.55631550786720041 $174 30.55631550786720041 $101 $175 forward 7 unknown #
coedge $-1 $61 $60 $176 $177 forward $21 $-1 #
coedge $-1 $178 $179 $60 $105 reversed $164 $-1 #
edge $-1 $112 -55.38499099703970785 $180 55.38499099703970785 $104 $181 forward 7 unknown #
coedge $-1 $98 $182 $61 $107 reversed $57 $-1 #
edge $-1 $183 -55.38499099703970785 $111 55.38499099703970785 $106 $184 forward 7 unknown #
coedge $-1 $101 $62 $182 $185 forward $110 $-1 #
coedge $-1 $62 $101 $178 $186 reversed $110 $-1 #
loop $-1 $-1 $109 $163 #
vertex $-1 $63 $187 #
vertex $-1 $63 $188 #
straight-curve $-1 110.7699819940794157 30.55631550786720041 24.50734562434623953 0 1 0 I I #
face $-1 $189 $190 $11 $-1 $191 reversed single #
loop $-1 $-1 $192 $64 #
plane-surface $-1 -14.26301038697799584 30.55631550786720041 3.070803988682502705 1 0 0 0 0 -1 forward_v I I I I #
coedge $-1 $193 $67 $194 $195 reversed $40 $-1 #
coedge $-1 $67 $193 $123 $196 reversed $40 $-1 #
edge $-1 $125 6.112064834808114355 $197 12.25367281217311977 $67 $198 forward 7 unknown #
coedge $-1 $69 $68 $199 $200 reversed $24 $-1 #
coedge $-1 $201 $202 $68 $122 forward $203 $-1 #
edge $-1 $204 -12.25367281217311977 $126 -6.112064834808114355 $121 $205 forward 7 unknown #
coedge $-1 $206 $70 $118 $196 forward $65 $-1 #
coedge $-1 $70 $206 $201 $207 forward $65 $-1 #
vertex $-1 $119 $208 #
vertex $-1 $207 $209 #
straight-curve $-1 0 30.55631550786720041 6.141607977365005411 0 -1 0 I I #
face $-1 $210 $211 $12 $-1 $212 reversed single #
loop $-1 $-1 $213 $72 #
plane-surface $-1 125.0329923810574115 30.55631550786720041 3.070803988682502705 -1 0 0 0 0 1 forward_v I I I I #
coedge $-1 $139 $138 $214 $215 forward $73 $-1 #
coedge $-1 $216 $75 $139 $217 reversed $44 $-1 #
coedge $-1 $75 $216 $218 $219 reversed $44 $-1 #
edge $-1 $220 -12.25367281217311977 $141 -6.112064834808114355 $75 $221 forward 7 unknown #
coedge $-1 $77 $76 $222 $223 reversed $27 $-1 #
coedge $-1 $224 $225 $77 $137 forward $226 $-1 #
edge $-1 $140 6.112064834808114355 $227 12.25367281217311977 $136 $228 forward 7 unknown #
coedge $-1 $131 $78 $225 $229 forward $73 $-1 #
coedge $-1 $78 $131 $132 $217 forward $73 $-1 #
vertex $-1 $137 $230 #
vertex $-1 $217 $231 #
straight-curve $-1 110.7699819940794157 30.55631550786720041 6.141607977365005411 0 1 0 I I #
face $-1 $-1 $155 $13 $-1 $232 forward single #
loop $-1 $-1 $233 $80 #
plane-surface $-1 55.38499099703970785 61.11263101573440082 12.25367281217311977 0 -1 0 0 0 -1 forward_v I I I I #
coedge $-1 $234 $235 $236 $237 reversed $81 $-1 #
coedge $-1 $238 $83 $85 $153 forward $48 $-1 #
coedge $-1 $83 $238 $234 $239 forward $48 $-1 #
coedge $-1 $236 $86 $83 $150 forward $155 $-1 #
edge $-1 $157 0.3969670813421970479 $240 14.73462935368054616 $149 $241 forward 7 unknown #
coedge $-1 $242 $243 $84 $152 forward $144 $-1 #
edge $-1 $244 -60.41224165093528597 $156 -52.86998653111982094 $151 $245 forward 7 unknown #
edge $-1 $157 48.28098035073021066 $244 61.11263101573440792 $85 $246 forward 7 unknown #
coedge $-1 $86 $236 $242 $247 forward $155 $-1 #
loop $-1 $-1 $236 $143 #
vertex $-1 $152 $248 #
vertex $-1 $87 $249 #
straight-curve $-1 63.3477562958932765 53.66837621947952641 24.50734562434624308 0 -1 0 I I #
coedge $-1 $159 $159 $-1 $250 reversed $90 $-1 #
edge $-1 $251 0 $251 6.283185307179586232 $91 $252 forward 7 unknown #
vertex $-1 $94 $253 #
ellipse-curve $-1 70.51658743206245106 55.92211932380267569 20.73621806443849636 0 0.5877852598018022956 0.8090169889191003438 2 0 0 1 I I #
face $-1 $-1 $110 $10 $-1 $254 reversed single #
loop $-1 $-1 $178 $95 #
plane-surface $-1 55.38499099703970785 61.11263101573440082 12.25367281217311977 0 -1 0 0 0 -1 forward_v I I I I #
coedge $-1 $176 $255 $98 $168 reversed $96 $-1 #
coedge $-1 $182 $98 $99 $170 reversed $57 $-1 #
edge $-1 $183 -12.25367281217311977 $256 12.25367281217311977 $166 $257 forward 7 unknown #
coedge $-1 $100 $99 $255 $258 forward $36 $-1 #
edge $-1 $174 -55.38499099703970785 $256 55.38499099703970785 $167 $259 forward 7 unknown #
coedge $-1 $179 $178 $100 $172 reversed $164 $-1 #
edge $-1 $260 -55.38499099703970785 $173 55.38499099703970785 $171 $261 forward 7 unknown #
vertex $-1 $102 $262 #
vertex $-1 $185 $263 #
straight-curve $-1 110.7699819940794157 30.55631550786720041 0 0 -1 0 I I #
coedge $-1 $264 $166 $103 $177 reversed $96 $-1 #
edge $-1 $180 -30.55631550786720041 $183 30.55631550786720041 $176 $265 forward 7 unknown #
coedge $-1 $171 $104 $109 $186 forward $164 $-1 #
coedge $-1 $104 $171 $264 $266 reversed $164 $-1 #
vertex $-1 $105 $267 #
straight-curve $-1 55.38499099703970785 61.11263101573440082 24.50734562434623953 -1 0 0 I I #
coedge $-1 $106 $167 $108 $185 reversed $57 $-1 #
vertex $-1 $177 $268 #
straight-curve $-1 55.38499099703970785 0 24.50734562434623953 1 0 0 I I #
edge $-1 $111 -12.25367281217311977 $174 12.25367281217311977 $108 $269 forward 7 unknown #
edge $-1 $112 -12.25367281217311977 $173 12.25367281217311977 $109 $270 forward 7 unknown #
point $-1 110.7699819940794157 0 24.50734562434623953 #
point $-1 110.7699819940794157 61.11263101573440082 24.50734562434623953 #
face $-1 $-1 $203 $11 $-1 $271 reversed single #
loop $-1 $-1 $199 $114 #
plane-surface $-1 55.38499099703970785 30.55631550786720041 0 0 0 1 1 0 0 forward_v I I I I #
coedge $-1 $272 $273 $193 $274 forward $115 $-1 #
coedge $-1 $118 $117 $192 $274 reversed $40 $-1 #
coedge $-1 $199 $275 $117 $195 forward $190 $-1 #
edge $-1 $276 -69.64800138401770369 $197 -55.38499099703970785 $117 $277 forward 7 unknown #
edge $-1 $125 -7.131505193488997918 $278 7.131505193488997918 $118 $279 forward 7 unknown #
vertex $-1 $119 $280 #
straight-curve $-1 0 61.11263101573440082 12.25367281217311977 0 0 -1 I I #
coedge $-1 $281 $194 $120 $200 forward $190 $-1 #
edge $-1 $197 -30.55631550786720041 $204 30.55631550786720041 $199 $282 forward 7 unknown #
coedge $-1 $283 $121 $124 $207 reversed $203 $-1 #
coedge $-1 $121 $283 $281 $284 reversed $203 $-1 #
loop $-1 $-1 $121 $189 #
vertex $-1 $284 $285 #
straight-curve $-1 0 0 12.25367281217311977 0 0 1 I I #
coedge $-1 $124 $123 $273 $286 forward $65 $-1 #
edge $-1 $287 -7.131505193488997918 $126 7.131505193488997918 $201 $288 forward 7 unknown #
point $-1 0 61.11263101573440082 6.141607977365005411 #
point $-1 0 0 6.141607977365005411 #
face $-1 $-1 $226 $12 $-1 $289 reversed single #
loop $-1 $-1 $222 $128 #
plane-surface $-1 55.38499099703970785 30.55631550786720041 0 0 0 1 1 0 0 forward_v I I I I #
coedge $-1 $290 $214 $291 $292 forward $129 $-1 #
coedge $-1 $213 $293 $131 $215 reversed $129 $-1 #
edge $-1 $294 -30.55631550786720041 $295 30.55631550786720041 $214 $296 forward 7 unknown #
coedge $-1 $133 $132 $293 $297 forward $44 $-1 #
edge $-1 $295 -7.131505193488990813 $141 7.131505193489005023 $132 $298 forward 7 unknown #
coedge $-1 $299 $222 $133 $219 forward $211 $-1 #
edge $-1 $220 -7.131505193489005023 $300 7.131505193488990813 $133 $301 forward 7 unknown #
vertex $-1 $219 $302 #
straight-curve $-1 110.7699819940794157 61.11263101573440082 12.25367281217311977 0 0 1 I I #
coedge $-1 $218 $303 $135 $223 forward $211 $-1 #
edge $-1 $227 -30.55631550786720041 $220 30.55631550786720041 $222 $304 forward 7 unknown #
coedge $-1 $291 $136 $303 $305 reversed $226 $-1 #
coedge $-1 $136 $291 $138 $229 reversed $226 $-1 #
loop $-1 $-1 $136 $210 #
vertex $-1 $137 $306 #
straight-curve $-1 110.7699819940794157 0 12.25367281217311977 0 0 -1 I I #
edge $-1 $140 -7.131505193489005023 $294 7.131505193488990813 $225 $307 forward 7 unknown #
point $-1 110.7699819940794157 0 6.141607977365005411 #
point $-1 110.7699819940794157 61.11263101573440082 6.141607977365005411 #
plane-surface $-1 55.38499099703970785 30.55631550786720041 24.50734562434623953 0 0 1 1 0 0 forward_v I I I I #
coedge $-1 $243 $242 $235 $308 forward $144 $-1 #
coedge $-1 $235 $146 $148 $239 reversed $81 $-1 #
coedge $-1 $146 $234 $233 $308 reversed $81 $-1 #
coedge $-1 $154 $149 $146 $237 forward $155 $-1 #
edge $-1 $240 -2.936768587608597159 $309 7.444254796254874407 $236 $310 forward 7 unknown #
coedge $-1 $148 $147 $243 $311 reversed $48 $-1 #
edge $-1 $312 -61.11263101573440792 $240 -48.28098035073021066 $234 $313 forward 7 unknown #
vertex $-1 $150 $314 #
straight-curve $-1 62.95078921455107945 50.73160763187092925 24.50734562434624308 1 0 0 I I #
coedge $-1 $233 $151 $154 $247 reversed $144 $-1 #
coedge $-1 $151 $233 $238 $311 forward $144 $-1 #
vertex $-1 $152 $315 #
straight-curve $-1 63.3477562958932765 61.11263101573440082 77.37733215546606402 0 0 1 I I #
straight-curve $-1 63.3477562958932765 11.67147428646092422 52.88619420328591048 0 0.8090169889191003438 -0.5877852598018022956 I I #
edge $-1 $309 -22.30042757119191776 $156 -7.962765298853568652 $242 $316 forward 7 unknown #
point $-1 63.3477562958932765 61.11263101573440082 24.50734562434623953 #
point $-1 63.3477562958932765 50.73160763187092925 24.50734562434624308 #
edge $-1 $317 1 $317 0 $159 $-1 forward 7 unknown #
vertex $-1 $160 $318 #
ellipse-curve $-1 70.51658743206245106 52.24016945698916459 15.66844893459511212 0 0.5877852598018022956 0.8090169889191003438 2 0 0 1 I I #
point $-1 72.51658743206245106 55.92211932380268991 20.73621806443851767 #
plane-surface $-1 110.7699819940794157 30.55631550786720041 12.25367281217311977 -1 0 0 0 0 1 forward_v I I I I #
coedge $-1 $166 $264 $169 $258 reversed $96 $-1 #
vertex $-1 $258 $319 #
straight-curve $-1 0 0 12.25367281217311977 0 0 -1 I I #
edge $-1 $256 -30.55631550786720041 $260 30.55631550786720041 $255 $320 forward 7 unknown #
straight-curve $-1 55.38499099703970785 0 0 -1 0 0 I I #
vertex $-1 $172 $321 #
straight-curve $-1 55.38499099703970785 61.11263101573440082 0 1 0 0 I I #
point $-1 110.7699819940794157 61.11263101573440082 0 #
point $-1 110.7699819940794157 0 0 #
coedge $-1 $255 $176 $179 $266 forward $96 $-1 #
straight-curve $-1 0 30.55631550786720041 24.50734562434623953 0 -1 0 I I #
edge $-1 $180 -12.25367281217311977 $260 12.25367281217311977 $179 $322 forward 7 unknown #
point $-1 0 61.11263101573440082 24.50734562434623953 #
point $-1 0 0 24.50734562434623953 #
straight-curve $-1 110.7699819940794157 0 12.25367281217311977 0 0 -1 I I #
straight-curve $-1 110.7699819940794157 61.11263101573440082 12.25367281217311977 0 0 -1 I I #
plane-surface $-1 55.38499099703970785 0 12.25367281217311977 0 1 0 0 0 1 forward_v I I I I #
coedge $-1 $323 $192 $275 $324 reversed $115 $-1 #
coedge $-1 $192 $323 $206 $286 reversed $115 $-1 #
edge $-1 $278 -3.070803988682502705 $276 3.070803988682502705 $193 $325 forward 7 unknown #
coedge $-1 $194 $281 $272 $324 forward $190 $-1 #
vertex $-1 $195 $326 #
straight-curve $-1 55.38499099703970785 61.11263101573440082 0 1 0 0 I I #
vertex $-1 $196 $327 #
straight-curve $-1 -7.131505193488997918 61.11263101573440082 6.141607977365005411 -1 0 0 I I #
point $-1 0 61.11263101573440082 0 #
coedge $-1 $275 $199 $202 $284 forward $190 $-1 #
straight-curve $-1 0 30.55631550786720041 0 0 -1 0 I I #
coedge $-1 $202 $201 $323 $328 forward $203 $-1 #
edge $-1 $204 -7.131505193488997918 $329 7.131505193488997918 $202 $330 forward 7 unknown #
point $-1 0 0 0 #
edge $-1 $278 -30.55631550786720041 $287 30.55631550786720041 $273 $331 forward 7 unknown #
vertex $-1 $286 $332 #
straight-curve $-1 -7.131505193488997918 0 6.141607977365005411 1 0 0 I I #
plane-surface $-1 55.38499099703970785 0 12.25367281217311977 0 1 0 0 0 1 forward_v I I I I #
coedge $-1 $293 $213 $299 $333 reversed $129 $-1 #
coedge $-1 $225 $224 $213 $292 reversed $226 $-1 #
edge $-1 $294 -3.070803988682502705 $334 3.070803988682502705 $213 $335 forward 7 unknown #
coedge $-1 $214 $290 $216 $297 reversed $129 $-1 #
vertex $-1 $215 $336 #
vertex $-1 $215 $337 #
straight-curve $-1 125.0329923810574115 30.55631550786720041 6.141607977365005411 0 1 0 I I #
edge $-1 $295 -3.070803988682502705 $300 3.070803988682502705 $293 $338 forward 7 unknown #
straight-curve $-1 117.9014871875684207 61.11263101573440082 6.141607977365005411 -1 0 0 I I #
coedge $-1 $303 $218 $290 $333 forward $211 $-1 #
vertex $-1 $333 $339 #
straight-curve $-1 117.9014871875684207 61.11263101573440082 0 1 0 0 I I #
point $-1 110.7699819940794157 61.11263101573440082 0 #
coedge $-1 $222 $299 $224 $305 forward $211 $-1 #
straight-curve $-1 110.7699819940794157 30.55631550786720041 0 0 1 0 I I #
edge $-1 $334 -7.131505193488990813 $227 7.131505193489005023 $224 $340 forward 7 unknown #
point $-1 110.7699819940794157 0 0 #
straight-curve $-1 117.9014871875684207 0 6.141607977365005411 1 0 0 I I #
edge $-1 $309 52.86998653111982094 $312 60.41224165093528597 $233 $341 forward 7 unknown #
vertex $-1 $247 $342 #
straight-curve $-1 77.68541856823162561 53.66837621947952641 24.50734562434624308 0 1 0 I I #
edge $-1 $312 -14.73462935368054616 $244 -0.3969670813421970479 $243 $343 forward 7 unknown #
vertex $-1 $311 $344 #
straight-curve $-1 77.68541856823162561 11.67147428646092422 52.88619420328591048 0 -0.8090169889191003438 0.5877852598018022956 I I #
point $-1 77.68541856823162561 50.73160763187092925 24.50734562434624308 #
point $-1 63.3477562958932765 61.11263101573439371 16.96509050453077805 #
straight-curve $-1 55.38499099703970785 61.11263101573440082 24.50734562434623953 -1 0 0 I I #
vertex $-1 $250 $345 #
point $-1 72.51658743206245106 52.24016945698916459 15.66844893459511212 #
point $-1 0 0 0 #
straight-curve $-1 0 30.55631550786720041 0 0 1 0 I I #
point $-1 0 61.11263101573440082 0 #
straight-curve $-1 0 61.11263101573440082 12.25367281217311977 0 0 -1 I I #
coedge $-1 $273 $272 $283 $328 reversed $115 $-1 #
edge $-1 $329 -30.55631550786720041 $276 30.55631550786720041 $272 $346 forward 7 unknown #
straight-curve $-1 -14.26301038697799584 61.11263101573440082 3.070803988682502705 0 0 -1 I I #
point $-1 -14.26301038697799584 61.11263101573440082 0 #
point $-1 -14.26301038697799584 61.11263101573440082 6.141607977365005411 #
edge $-1 $287 -3.070803988682502705 $329 3.070803988682502705 $323 $347 forward 7 unknown #
vertex $-1 $324 $348 #
straight-curve $-1 -7.131505193488997918 0 0 -1 0 0 I I #
straight-curve $-1 -14.26301038697799584 30.55631550786720041 6.141607977365005411 0 -1 0 I I #
point $-1 -14.26301038697799584 0 6.141607977365005411 #
edge $-1 $300 -30.55631550786720041 $334 30.55631550786720041 $290 $349 forward 7 unknown #
vertex $-1 $292 $350 #
straight-curve $-1 125.0329923810574115 0 3.070803988682502705 0 0 -1 I I #
point $-1 125.0329923810574115 0 6.141607977365005411 #
point $-1 125.0329923810574115 61.11263101573440082 6.141607977365005411 #
straight-curve $-1 125.0329923810574115 61.11263101573440082 3.070803988682502705 0 0 -1 I I #
point $-1 125.0329923810574115 61.11263101573440082 0 #
straight-curve $-1 117.9014871875684207 0 0 -1 0 0 I I #
straight-curve $-1 77.68541856823162561 61.11263101573440082 77.37733215546606402 0 0 -1 I I #
point $-1 77.68541856823162561 61.11263101573440082 24.50734562434623953 #
straight-curve $-1 62.95078921455107945 61.11263101573440082 16.96509050453077805 -1 0 0 I I #
point $-1 77.68541856823162561 61.11263101573439371 16.96509050453077805 #
point $-1 70.51658743206245106 51.06459893738555422 14.0504149567569101 #
straight-curve $-1 -14.26301038697799584 30.55631550786720041 0 0 1 0 I I #
straight-curve $-1 -14.26301038697799584 0 3.070803988682502705 0 0 -1 I I #
point $-1 -14.26301038697799584 0 0 #
straight-curve $-1 125.0329923810574115 30.55631550786720041 0 0 -1 0 I I #
point $-1 125.0329923810574115 0 0 #
End-of-ACIS-data 