500 0 9 0           
7 Unknown 11 ACIS 5.0 NT 24 Fri Mar 26 01:07:37 1999 
-1 9.9999999999999995e-007 1e-010 
body $-1 $9 $-1 $10 #
body $-1 $11 $-1 $12 #
body $-1 $13 $-1 $14 #
body $-1 $15 $-1 $16 #
body $-1 $17 $-1 $18 #
body $-1 $19 $-1 $20 #
body $-1 $21 $-1 $22 #
body $-1 $23 $-1 $24 #
body $-1 $25 $-1 $26 #
lump $-1 $-1 $27 $0 #
transform $-1 1 0 0 0 1 0 0 0 1 55.333719901120027 22.598050060878265 4.7519560635538651 1 rotate no_reflect no_shear #
lump $-1 $-1 $28 $1 #
transform $-1 1 0 0 0 1 0 0 0 1 55.333719901120027 22.598050060878265 4.7519560635538651 1 rotate no_reflect no_shear #
lump $-1 $-1 $29 $2 #
transform $-1 1 0 0 0 1 0 0 0 1 55.333719901120027 22.598050060878265 4.7519560635538651 1 rotate no_reflect no_shear #
lump $-1 $-1 $30 $3 #
transform $-1 1 0 0 0 1 0 0 0 1 55.333719901120027 22.598050060878265 4.7519560635538651 1 rotate no_reflect no_shear #
lump $-1 $-1 $31 $4 #
transform $-1 1 0 0 0 1 0 0 0 1 55.333719901120027 22.598050060878265 4.7519560635538651 1 rotate no_reflect no_shear #
lump $-1 $-1 $32 $5 #
transform $-1 1 0 0 0 1 0 0 0 1 55.333719901120027 22.598050060878265 4.7519560635538651 1 rotate no_reflect no_shear #
lump $-1 $-1 $33 $6 #
transform $-1 1 0 0 0 1 0 0 0 1 55.333719901120027 22.598050060878265 4.7519560635538651 1 rotate no_reflect no_shear #
lump $-1 $-1 $34 $7 #
transform $-1 1 0 0 0 1 0 0 0 1 55.333719901120027 22.598050060878265 4.7519560635538651 1 rotate no_reflect no_shear #
lump $-1 $-1 $35 $8 #
transform $-1 1 0 0 0 1 0 0 0 1 55.333719901120027 22.598050060878265 4.7519560635538651 1 rotate no_reflect no_shear #
shell $-1 $-1 $-1 $36 $-1 $9 #
shell $-1 $-1 $-1 $37 $-1 $11 #
shell $-1 $-1 $-1 $38 $-1 $13 #
shell $-1 $-1 $-1 $39 $-1 $15 #
shell $-1 $-1 $-1 $40 $-1 $17 #
shell $-1 $-1 $-1 $41 $-1 $19 #
shell $-1 $-1 $-1 $42 $-1 $21 #
shell $-1 $-1 $-1 $43 $-1 $23 #
shell $-1 $-1 $-1 $44 $-1 $25 #
face $-1 $45 $46 $27 $-1 $47 forward single #
face $-1 $48 $49 $28 $-1 $50 forward single #
face $-1 $51 $52 $29 $-1 $53 reversed single #
face $-1 $54 $55 $30 $-1 $56 forward single #
face $-1 $57 $58 $31 $-1 $59 forward single #
face $-1 $60 $61 $32 $-1 $62 forward single #
face $-1 $63 $64 $33 $-1 $65 reversed single #
face $-1 $66 $67 $34 $-1 $68 forward single #
face $-1 $69 $70 $35 $-1 $71 forward single #
face $-1 $72 $73 $27 $-1 $74 reversed single #
loop $-1 $-1 $75 $36 #
plane-surface $-1 0 0 4.7519560635538651 0 0 1 1 0 0 forward_v I I I I #
face $-1 $76 $77 $28 $-1 $78 reversed single #
loop $-1 $-1 $79 $37 #
plane-surface $-1 0 -22.598050060878265 0 0 1 0 0 0 1 forward_v I I I I #
face $-1 $80 $81 $29 $-1 $82 reversed single #
loop $-1 $-1 $83 $38 #
plane-surface $-1 87.873439121513087 18.036898450981322 154.50773838782234 0 -1 0 -0.83867057594974714 0 -0.54463902268945019 forward_v I I I I #
face $-1 $84 $85 $30 $-1 $86 forward single #
loop $-1 $87 $88 $39 #
cone-surface $-1 53.51162491389541 12.566842304986395 2.6054065672134832 -0.83867057594974714 0 -0.54463902268945019 0.2723195113447251 0 -0.41933528797487357 1 I I 0 1 0.5 forward I I I I #
face $-1 $89 $90 $31 $-1 $91 forward single #
loop $-1 $92 $93 $40 #
cone-surface $-1 53.51162491389541 14.618113359734494 2.6054065672134832 -0.83867057594974714 0 -0.54463902268945019 0.2723195113447251 0 -0.41933528797487357 1 I I 0 1 0.5 forward I I I I #
face $-1 $94 $95 $32 $-1 $96 forward single #
loop $-1 $97 $98 $41 #
cone-surface $-1 53.51162491389541 16.669384414482593 2.6054065672134832 -0.83867057594974714 0 -0.54463902268945019 0.2723195113447251 0 -0.41933528797487357 1 I I 0 1 0.5 forward I I I I #
face $-1 $99 $100 $33 $-1 $101 reversed single #
loop $-1 $-1 $102 $42 #
plane-surface $-1 -120.38240975688001 -13.849686439473921 89.611986084696966 0 1 0 -0.5877852598018023 0 0.80901698891910034 forward_v I I I I #
face $-1 $103 $104 $34 $-1 $105 forward single #
loop $-1 $106 $107 $43 #
cone-surface $-1 -51.824730681700956 -11.62533981173285 2.0115431195688429 0.5877852598018023 0 -0.80901698891910034 0.40450849445955017 0 0.29389262990090115 1 I I 0 1 0.5 forward I I I I #
face $-1 $108 $109 $35 $-1 $110 forward single #
loop $-1 $111 $112 $44 #
cone-surface $-1 -51.824730681700956 -8.2888198701212481 2.0115431195688429 0.5877852598018023 0 -0.80901698891910034 0.40450849445955017 0 0.29389262990090115 1 I I 0 1 0.5 forward I I I I #
face $-1 $113 $114 $27 $-1 $115 reversed single #
loop $-1 $-1 $116 $45 #
plane-surface $-1 0 0 -4.7519560635538651 0 0 1 1 0 0 forward_v I I I I #
coedge $-1 $117 $118 $119 $120 forward $46 $-1 #
face $-1 $121 $122 $28 $-1 $123 reversed single #
loop $-1 $-1 $124 $48 #
plane-surface $-1 0 0 -4.7519560635538651 0 0 1 1 0 0 forward_v I I I I #
coedge $-1 $125 $126 $127 $128 forward $49 $-1 #
face $-1 $129 $130 $29 $-1 $131 reversed single #
loop $-1 $-1 $132 $51 #
plane-surface $-1 -4.9400863563155468 14.618113359734494 94.233932130386762 0.83867057594974714 0 0.54463902268945019 0.54463902268945019 0 -0.83867057594974714 forward_v I I I I #
coedge $-1 $133 $134 $135 $136 reversed $52 $-1 #
face $-1 $-1 $137 $30 $-1 $138 forward single #
loop $-1 $139 $140 $54 #
cone-surface $-1 52.561628990184396 12.566842304986395 1.9884720206986062 -0.83867057594974714 0 -0.54463902268945019 0.13615975567236255 0 -0.20966764398743679 1 I I -0.70710678118654724 0.70710678118654791 0.25 forward I I I I #
loop $-1 $-1 $141 $39 #
coedge $-1 $88 $88 $142 $143 reversed $55 $-1 #
face $-1 $-1 $144 $31 $-1 $145 forward single #
loop $-1 $146 $147 $57 #
cone-surface $-1 52.561628990184396 14.618113359734494 1.9884720206986062 -0.83867057594974714 0 -0.54463902268945019 0.13615975567236255 0 -0.20966764398743679 1 I I -0.70710678118654724 0.70710678118654791 0.25 forward I I I I #
loop $-1 $-1 $148 $40 #
coedge $-1 $93 $93 $149 $150 reversed $58 $-1 #
face $-1 $-1 $151 $32 $-1 $152 forward single #
loop $-1 $153 $154 $60 #
cone-surface $-1 52.561628990184396 16.669384414482593 1.9884720206986062 -0.83867057594974714 0 -0.54463902268945019 0.13615975567236255 0 -0.20966764398743679 1 I I -0.70710678118654724 0.70710678118654791 0.25 forward I I I I #
loop $-1 $-1 $155 $41 #
coedge $-1 $98 $98 $156 $157 reversed $61 $-1 #
face $-1 $158 $159 $33 $-1 $160 reversed single #
loop $-1 $-1 $161 $63 #
plane-surface $-1 -55.33371990112002 -9.9570798409270509 0.080147164502918145 -0.5877852598018023 0 0.80901698891910034 0.80901698891910034 0 0.5877852598018023 forward_v I I I I #
coedge $-1 $162 $163 $164 $165 reversed $64 $-1 #
face $-1 $-1 $166 $34 $-1 $167 forward single #
loop $-1 $168 $169 $66 #
cone-surface $-1 -51.383891736849606 -11.62533981173285 1.4047803778795176 0.5877852598018023 0 -0.80901698891910034 0.20225424722977509 0 0.14694631495045057 1 I I -0.70710678118654746 0.70710678118654746 0.25 forward I I I I #
loop $-1 $-1 $170 $43 #
coedge $-1 $107 $107 $171 $172 reversed $67 $-1 #
face $-1 $-1 $173 $35 $-1 $174 forward single #
loop $-1 $175 $176 $69 #
cone-surface $-1 -51.383891736849606 -8.2888198701212481 1.4047803778795176 0.5877852598018023 0 -0.80901698891910034 0.20225424722977509 0 0.14694631495045057 1 I I -0.70710678118654746 0.70710678118654746 0.25 forward I I I I #
loop $-1 $-1 $177 $44 #
coedge $-1 $112 $112 $178 $179 reversed $70 $-1 #
face $-1 $180 $181 $27 $-1 $182 reversed single #
loop $-1 $-1 $183 $72 #
plane-surface $-1 0 -22.598050060878265 0 0 1 0 0 0 1 forward_v I I I I #
coedge $-1 $184 $185 $186 $187 forward $73 $-1 #
coedge $-1 $188 $75 $189 $190 forward $46 $-1 #
coedge $-1 $75 $188 $191 $192 forward $46 $-1 #
coedge $-1 $193 $194 $75 $120 reversed $195 $-1 #
edge $-1 $196 -22.598050060878265 $197 22.598050060878265 $119 $198 forward 7 unknown #
face $-1 $199 $200 $28 $-1 $201 reversed single #
loop $-1 $-1 $202 $76 #
plane-surface $-1 -50.015174977834448 -26.439760072325406 0 0 1 0 0 0 1 forward_v I I I I #
coedge $-1 $203 $204 $126 $205 forward $77 $-1 #
coedge $-1 $206 $79 $207 $208 reversed $49 $-1 #
coedge $-1 $79 $206 $124 $205 reversed $49 $-1 #
coedge $-1 $209 $210 $79 $128 reversed $200 $-1 #
edge $-1 $211 -4.7519560635538651 $212 4.7519560635538651 $127 $213 forward 7 unknown #
face $-1 $214 $215 $29 $-1 $216 forward single #
loop $-1 $-1 $217 $80 #
plane-surface $-1 87.873439121513087 11.199328268487665 154.50773838782234 0 1 0 0.83867057594974714 0 0.54463902268945019 forward_v I I I I #
coedge $-1 $218 $219 $220 $221 reversed $81 $-1 #
coedge $-1 $134 $83 $222 $223 reversed $52 $-1 #
coedge $-1 $83 $133 $218 $224 reversed $52 $-1 #
coedge $-1 $220 $225 $83 $136 forward $215 $-1 #
edge $-1 $226 -11.397000340363483 $227 -9.2334669253613981 $135 $228 forward 7 unknown #
loop $-1 $-1 $142 $84 #
plane-surface $-1 -4.9400863563155468 14.618113359734494 94.233932130386762 0.83867057594974714 0 0.54463902268945019 0.54463902268945019 0 -0.83867057594974714 forward_v I I I I #
loop $-1 $-1 $229 $54 #
coedge $-1 $140 $140 $141 $230 reversed $85 $-1 #
coedge $-1 $141 $141 $140 $230 forward $87 $-1 #
coedge $-1 $142 $142 $88 $143 forward $137 $-1 #
edge $-1 $231 0 $231 6.2831853071796004 $142 $232 forward 7 unknown #
loop $-1 $-1 $149 $89 #
plane-surface $-1 -4.9400863563155468 14.618113359734494 94.233932130386762 0.83867057594974714 0 0.54463902268945019 0.54463902268945019 0 -0.83867057594974714 forward_v I I I I #
loop $-1 $-1 $233 $57 #
coedge $-1 $147 $147 $148 $234 reversed $90 $-1 #
coedge $-1 $148 $148 $147 $234 forward $92 $-1 #
coedge $-1 $149 $149 $93 $150 forward $144 $-1 #
edge $-1 $235 0 $235 6.2831853071796004 $149 $236 forward 7 unknown #
loop $-1 $-1 $156 $94 #
plane-surface $-1 -4.9400863563155468 14.618113359734494 94.233932130386762 0.83867057594974714 0 0.54463902268945019 0.54463902268945019 0 -0.83867057594974714 forward_v I I I I #
loop $-1 $-1 $237 $60 #
coedge $-1 $154 $154 $155 $238 reversed $95 $-1 #
coedge $-1 $155 $155 $154 $238 forward $97 $-1 #
coedge $-1 $156 $156 $98 $157 forward $151 $-1 #
edge $-1 $239 0 $239 6.2831853071796004 $156 $240 forward 7 unknown #
face $-1 $241 $242 $33 $-1 $243 reversed single #
loop $-1 $-1 $244 $99 #
plane-surface $-1 -120.38240975688001 -6.0644732423801821 89.611986084696966 0 -1 0 0.5877852598018023 0 -0.80901698891910034 forward_v I I I I #
coedge $-1 $245 $246 $247 $248 reversed $100 $-1 #
coedge $-1 $163 $102 $249 $250 reversed $64 $-1 #
coedge $-1 $102 $162 $245 $251 reversed $64 $-1 #
coedge $-1 $247 $252 $102 $165 forward $253 $-1 #
edge $-1 $254 4.8574849773199773 $255 11.287678156356328 $164 $256 forward 7 unknown #
loop $-1 $-1 $171 $103 #
plane-surface $-1 -55.33371990112002 -9.9570798409270509 0.080147164502918145 -0.5877852598018023 0 0.80901698891910034 0.80901698891910034 0 0.5877852598018023 forward_v I I I I #
loop $-1 $-1 $257 $66 #
coedge $-1 $169 $169 $170 $258 reversed $104 $-1 #
coedge $-1 $170 $170 $169 $258 forward $106 $-1 #
coedge $-1 $171 $171 $107 $172 forward $166 $-1 #
edge $-1 $259 0 $259 6.2831853071796004 $171 $260 forward 7 unknown #
loop $-1 $-1 $178 $108 #
plane-surface $-1 -55.33371990112002 -9.9570798409270509 0.080147164502918145 -0.5877852598018023 0 0.80901698891910034 0.80901698891910034 0 0.5877852598018023 forward_v I I I I #
loop $-1 $-1 $261 $69 #
coedge $-1 $176 $176 $177 $262 reversed $109 $-1 #
coedge $-1 $177 $177 $176 $262 forward $111 $-1 #
coedge $-1 $178 $178 $112 $179 forward $173 $-1 #
edge $-1 $263 0 $263 6.2831853071796004 $178 $264 forward 7 unknown #
face $-1 $265 $266 $27 $-1 $267 reversed single #
loop $-1 $-1 $268 $113 #
plane-surface $-1 -55.333719901120027 0 0 1 0 0 0 0 -1 forward_v I I I I #
coedge $-1 $269 $191 $270 $271 forward $114 $-1 #
coedge $-1 $272 $116 $269 $273 forward $73 $-1 #
coedge $-1 $116 $272 $274 $275 forward $73 $-1 #
coedge $-1 $194 $193 $116 $187 reversed $195 $-1 #
edge $-1 $276 -22.598050060878265 $277 22.598050060878265 $186 $278 forward 7 unknown #
coedge $-1 $118 $117 $279 $280 forward $46 $-1 #
coedge $-1 $281 $282 $117 $190 reversed $266 $-1 #
edge $-1 $197 -55.333719901120027 $283 55.333719901120027 $189 $284 forward 7 unknown #
coedge $-1 $183 $285 $118 $192 reversed $114 $-1 #
edge $-1 $286 -55.333719901120027 $196 55.333719901120027 $191 $287 forward 7 unknown #
coedge $-1 $186 $119 $285 $288 forward $195 $-1 #
coedge $-1 $119 $186 $281 $289 reversed $195 $-1 #
loop $-1 $-1 $193 $265 #
vertex $-1 $120 $290 #
vertex $-1 $120 $291 #
straight-curve $-1 55.333719901120027 0 4.7519560635538651 0 1 0 I I #
face $-1 $292 $293 $28 $-1 $294 reversed single #
loop $-1 $-1 $127 $121 #
plane-surface $-1 -51.515174977834448 -24.518905066601835 0 1 0 0 0 0 -1 forward_v I I I I #
coedge $-1 $295 $296 $297 $298 forward $122 $-1 #
coedge $-1 $299 $124 $300 $301 forward $77 $-1 #
coedge $-1 $124 $299 $209 $302 forward $77 $-1 #
edge $-1 $211 -51.515174977834448 $303 -48.515174977834448 $124 $304 forward 7 unknown #
coedge $-1 $126 $125 $305 $306 forward $49 $-1 #
coedge $-1 $307 $308 $125 $208 forward $309 $-1 #
edge $-1 $310 48.515174977834448 $212 51.515174977834448 $207 $311 forward 7 unknown #
coedge $-1 $297 $127 $204 $302 reversed $200 $-1 #
coedge $-1 $127 $297 $307 $312 reversed $200 $-1 #
vertex $-1 $205 $313 #
vertex $-1 $312 $314 #
straight-curve $-1 -51.515174977834448 -22.598050060878265 0 0 0 1 I I #
face $-1 $-1 $315 $29 $-1 $316 reversed single #
loop $-1 $-1 $135 $129 #
plane-surface $-1 0 0 4.7519560635538651 0 0 1 1 0 0 forward_v I I I I #
coedge $-1 $317 $318 $319 $320 reversed $130 $-1 #
coedge $-1 $321 $132 $134 $224 forward $81 $-1 #
coedge $-1 $132 $321 $317 $322 forward $81 $-1 #
coedge $-1 $319 $135 $132 $221 forward $215 $-1 #
edge $-1 $227 -10.727841771114075 $323 -3.8902715886204184 $220 $324 forward 7 unknown #
coedge $-1 $325 $326 $133 $223 forward $315 $-1 #
edge $-1 $327 -75.833462541353029 $226 -72.501913130357309 $222 $328 forward 7 unknown #
edge $-1 $227 106.69502261421252 $327 110.66743980224004 $134 $329 forward 7 unknown #
coedge $-1 $135 $319 $325 $330 forward $215 $-1 #
vertex $-1 $136 $331 #
vertex $-1 $136 $332 #
straight-curve $-1 43.936719560756544 18.036898450981322 4.7519560635538625 -1 0 0 I I #
coedge $-1 $229 $229 $-1 $333 reversed $139 $-1 #
edge $-1 $334 0 $334 6.2831853071796004 $140 $335 forward 7 unknown #
vertex $-1 $143 $336 #
ellipse-curve $-1 54.251953193618988 12.566842304986395 3.0861813580559998 0.83867057594974714 0 0.54463902268945019 0.2723195113447251 0 -0.41933528797487357 1 I I #
coedge $-1 $233 $233 $-1 $337 reversed $146 $-1 #
edge $-1 $338 0 $338 6.2831853071796004 $147 $339 forward 7 unknown #
vertex $-1 $150 $340 #
ellipse-curve $-1 54.251953193618988 14.618113359734494 3.0861813580559998 0.83867057594974714 0 0.54463902268945019 0.2723195113447251 0 -0.41933528797487357 1 I I #
coedge $-1 $237 $237 $-1 $341 reversed $153 $-1 #
edge $-1 $342 0 $342 6.2831853071796004 $154 $343 forward 7 unknown #
vertex $-1 $157 $344 #
ellipse-curve $-1 54.251953193618988 16.669384414482593 3.0861813580559998 0.83867057594974714 0 0.54463902268945019 0.2723195113447251 0 -0.41933528797487357 1 I I #
face $-1 $-1 $253 $33 $-1 $345 forward single #
loop $-1 $-1 $346 $158 #
plane-surface $-1 -55.333719901120027 0 0 1 0 0 0 0 -1 forward_v I I I I #
coedge $-1 $347 $348 $349 $350 reversed $159 $-1 #
coedge $-1 $351 $161 $163 $251 forward $100 $-1 #
coedge $-1 $161 $351 $347 $352 forward $100 $-1 #
coedge $-1 $349 $164 $161 $248 forward $253 $-1 #
edge $-1 $255 -8.8711465190103951 $353 -1.0859333219166567 $247 $354 forward 7 unknown #
coedge $-1 $355 $356 $162 $250 forward $242 $-1 #
edge $-1 $357 -44.725845877845572 $254 -40.05403697879462 $249 $358 forward 7 unknown #
edge $-1 $255 -7.9481559313451537 $357 8.7828746355274299e-015 $163 $359 forward 7 unknown #
coedge $-1 $164 $349 $355 $360 forward $253 $-1 #
loop $-1 $-1 $349 $241 #
vertex $-1 $250 $361 #
vertex $-1 $165 $362 #
straight-curve $-1 -60.191204878440004 -13.849686439473921 4.7519560635538625 1 0 0 I I #
coedge $-1 $257 $257 $-1 $363 reversed $168 $-1 #
edge $-1 $364 0 $364 6.2831853071796004 $169 $365 forward 7 unknown #
vertex $-1 $172 $366 #
ellipse-curve $-1 -52.118623311601851 -11.62533981173285 2.4160516140283876 -0.5877852598018023 0 0.80901698891910034 0.40450849445955017 0 0.29389262990090115 1 I I #
coedge $-1 $261 $261 $-1 $367 reversed $175 $-1 #
edge $-1 $368 0 $368 6.2831853071796004 $176 $369 forward 7 unknown #
vertex $-1 $179 $370 #
ellipse-curve $-1 -52.118623311601851 -8.2888198701212481 2.4160516140283876 -0.5877852598018023 0 0.80901698891910034 0.40450849445955017 0 0.29389262990090115 1 I I #
face $-1 $-1 $195 $27 $-1 $371 reversed single #
loop $-1 $-1 $281 $180 #
plane-surface $-1 0 22.598050060878265 0 0 -1 0 0 0 -1 forward_v I I I I #
coedge $-1 $372 $279 $282 $373 forward $181 $-1 #
coedge $-1 $285 $183 $184 $273 reversed $114 $-1 #
coedge $-1 $279 $372 $183 $271 reversed $181 $-1 #
edge $-1 $286 -4.7519560635538651 $374 4.7519560635538651 $270 $375 forward 7 unknown #
coedge $-1 $185 $184 $372 $376 forward $73 $-1 #
edge $-1 $277 -55.333719901120027 $374 55.333719901120027 $269 $377 forward 7 unknown #
coedge $-1 $282 $281 $185 $275 reversed $266 $-1 #
edge $-1 $378 -55.333719901120027 $276 55.333719901120027 $274 $379 forward 7 unknown #
vertex $-1 $187 $380 #
vertex $-1 $288 $381 #
straight-curve $-1 55.333719901120027 0 -4.7519560635538651 0 -1 0 I I #
coedge $-1 $268 $270 $188 $280 reversed $181 $-1 #
edge $-1 $283 -22.598050060878265 $286 22.598050060878265 $279 $382 forward 7 unknown #
coedge $-1 $274 $189 $194 $289 forward $266 $-1 #
coedge $-1 $189 $274 $268 $373 reversed $266 $-1 #
vertex $-1 $190 $383 #
straight-curve $-1 0 22.598050060878265 4.7519560635538651 -1 0 0 I I #
coedge $-1 $191 $269 $193 $288 reversed $114 $-1 #
vertex $-1 $280 $384 #
straight-curve $-1 0 -22.598050060878265 4.7519560635538651 1 0 0 I I #
edge $-1 $196 -4.7519560635538651 $277 4.7519560635538651 $193 $385 forward 7 unknown #
edge $-1 $197 -4.7519560635538651 $276 4.7519560635538651 $194 $386 forward 7 unknown #
point $-1 55.333719901120027 -22.598050060878265 4.7519560635538651 #
point $-1 55.333719901120027 22.598050060878265 4.7519560635538651 #
face $-1 $-1 $309 $28 $-1 $387 forward single #
loop $-1 $-1 $388 $199 #
plane-surface $-1 -48.515174977834448 -24.518905066601835 0 -1 0 0 0 0 1 forward_v I I I I #
coedge $-1 $389 $202 $299 $390 reversed $122 $-1 #
coedge $-1 $202 $389 $391 $392 reversed $122 $-1 #
coedge $-1 $210 $209 $202 $298 reversed $200 $-1 #
edge $-1 $393 -4.7519560635538651 $394 4.7519560635538651 $297 $395 forward 7 unknown #
coedge $-1 $204 $203 $295 $390 forward $77 $-1 #
coedge $-1 $305 $388 $203 $301 reversed $293 $-1 #
edge $-1 $303 -1.9208550057235705 $396 1.9208550057235705 $300 $397 forward 7 unknown #
edge $-1 $394 -1.9208550057235705 $211 1.9208550057235705 $209 $398 forward 7 unknown #
vertex $-1 $301 $399 #
straight-curve $-1 0 -22.598050060878265 -4.7519560635538651 1 0 0 I I #
coedge $-1 $400 $300 $206 $306 reversed $293 $-1 #
edge $-1 $310 -4.7519560635538651 $303 4.7519560635538651 $305 $401 forward 7 unknown #
coedge $-1 $391 $207 $210 $312 forward $309 $-1 #
coedge $-1 $207 $391 $400 $402 forward $309 $-1 #
loop $-1 $-1 $207 $292 #
vertex $-1 $208 $403 #
straight-curve $-1 0 -22.598050060878265 4.7519560635538651 -1 0 0 I I #
edge $-1 $212 -1.9208550057235705 $393 1.9208550057235705 $210 $404 forward 7 unknown #
point $-1 -51.515174977834448 -22.598050060878265 -4.7519560635538651 #
point $-1 -51.515174977834448 -22.598050060878265 4.7519560635538651 #
loop $-1 $-1 $222 $214 #
plane-surface $-1 55.333719901120027 0 0 -1 0 0 0 0 1 forward_v I I I I #
coedge $-1 $318 $217 $219 $322 reversed $130 $-1 #
coedge $-1 $217 $317 $405 $406 reversed $130 $-1 #
coedge $-1 $225 $220 $217 $320 forward $215 $-1 #
edge $-1 $323 9.2334669253613981 $407 11.397000340363483 $319 $408 forward 7 unknown #
coedge $-1 $219 $218 $326 $409 reversed $81 $-1 #
edge $-1 $410 -110.66743980224004 $323 -106.69502261421252 $317 $411 forward 7 unknown #
vertex $-1 $221 $412 #
straight-curve $-1 53.170186486117942 7.3090566798672469 4.7519560635538625 0 -1 0 I I #
coedge $-1 $405 $222 $225 $330 reversed $315 $-1 #
coedge $-1 $222 $405 $321 $409 forward $315 $-1 #
vertex $-1 $223 $413 #
straight-curve $-1 55.333719901120027 18.036898450981322 77.253869193911171 0 0 1 I I #
straight-curve $-1 -4.9400863563155468 18.036898450981322 94.233932130386762 0.54463902268945019 0 -0.83867057594974714 I I #
edge $-1 $407 11.199328268487665 $226 18.036898450981322 $325 $414 forward 7 unknown #
point $-1 55.333719901120027 18.036898450981322 4.7519560635538651 #
point $-1 53.170186486117942 18.036898450981322 4.7519560635538625 #
edge $-1 $415 1 $415 0 $229 $-1 forward 7 unknown #
vertex $-1 $230 $416 #
ellipse-curve $-1 52.771296634171833 12.566842304986395 2.1246317763709688 0.83867057594974714 0 0.54463902268945019 0.2723195113447251 0 -0.41933528797487357 1 I I #
point $-1 54.524272704963714 12.566842304986395 2.6668460700811241 #
edge $-1 $417 1 $417 0 $233 $-1 forward 7 unknown #
vertex $-1 $234 $418 #
ellipse-curve $-1 52.771296634171833 14.618113359734494 2.1246317763709688 0.83867057594974714 0 0.54463902268945019 0.2723195113447251 0 -0.41933528797487357 1 I I #
point $-1 54.524272704963714 14.618113359734494 2.6668460700811241 #
edge $-1 $419 1 $419 0 $237 $-1 forward 7 unknown #
vertex $-1 $238 $420 #
ellipse-curve $-1 52.771296634171833 16.669384414482593 2.1246317763709688 0.83867057594974714 0 0.54463902268945019 0.2723195113447251 0 -0.41933528797487357 1 I I #
point $-1 54.524272704963714 16.669384414482593 2.6668460700811241 #
plane-surface $-1 0 0 4.7519560635538651 0 0 1 1 0 0 forward_v I I I I #
coedge $-1 $356 $355 $348 $421 forward $242 $-1 #
coedge $-1 $348 $244 $246 $352 reversed $159 $-1 #
coedge $-1 $244 $347 $346 $421 reversed $159 $-1 #
coedge $-1 $252 $247 $244 $350 forward $253 $-1 #
edge $-1 $353 -11.287678156356328 $422 -4.8574849773199773 $349 $423 forward 7 unknown #
coedge $-1 $246 $245 $356 $424 reversed $100 $-1 #
edge $-1 $425 -8.7828746355274299e-015 $353 7.9481559313451537 $347 $426 forward 7 unknown #
vertex $-1 $248 $427 #
straight-curve $-1 -48.903526722083676 -4.9785399204635254 4.7519560635538642 0 1 0 I I #
coedge $-1 $346 $249 $252 $360 reversed $242 $-1 #
coedge $-1 $249 $346 $351 $424 forward $242 $-1 #
vertex $-1 $250 $428 #
straight-curve $-1 -55.333719901120027 -13.849686439473921 44.805993042348483 0 0 1 I I #
straight-curve $-1 -55.33371990112002 -13.849686439473921 0.080147164502918145 -0.80901698891910034 0 -0.5877852598018023 I I #
edge $-1 $422 6.0644732423801821 $254 13.849686439473921 $355 $429 forward 7 unknown #
point $-1 -55.333719901120027 -13.849686439473921 4.7519560635538651 #
point $-1 -48.903526722083676 -13.849686439473921 4.7519560635538651 #
edge $-1 $430 1 $430 0 $257 $-1 forward 7 unknown #
vertex $-1 $258 $431 #
ellipse-curve $-1 -51.530838051800053 -11.62533981173285 1.6070346251092926 -0.5877852598018023 0 0.80901698891910034 0.40450849445955017 0 0.29389262990090115 1 I I #
point $-1 -51.71411481714231 -11.62533981173285 2.7099442439292942 #
edge $-1 $432 1 $432 0 $261 $-1 forward 7 unknown #
vertex $-1 $262 $433 #
ellipse-curve $-1 -51.530838051800053 -8.2888198701212481 1.6070346251092926 -0.5877852598018023 0 0.80901698891910034 0.40450849445955017 0 0.29389262990090115 1 I I #
point $-1 -51.71411481714231 -8.2888198701212481 2.7099442439292942 #
plane-surface $-1 55.333719901120027 0 0 -1 0 0 0 0 1 forward_v I I I I #
coedge $-1 $270 $268 $272 $376 reversed $181 $-1 #
edge $-1 $283 -4.7519560635538651 $378 4.7519560635538651 $282 $434 forward 7 unknown #
vertex $-1 $376 $435 #
straight-curve $-1 -55.333719901120027 -22.598050060878265 0 0 0 -1 I I #
edge $-1 $374 -22.598050060878265 $378 22.598050060878265 $372 $436 forward 7 unknown #
straight-curve $-1 0 -22.598050060878265 -4.7519560635538651 -1 0 0 I I #
vertex $-1 $275 $437 #
straight-curve $-1 0 22.598050060878265 -4.7519560635538651 1 0 0 I I #
point $-1 55.333719901120027 22.598050060878265 -4.7519560635538651 #
point $-1 55.333719901120027 -22.598050060878265 -4.7519560635538651 #
straight-curve $-1 -55.333719901120027 0 4.7519560635538651 0 -1 0 I I #
point $-1 -55.333719901120027 22.598050060878265 4.7519560635538651 #
point $-1 -55.333719901120027 -22.598050060878265 4.7519560635538651 #
straight-curve $-1 55.333719901120027 -22.598050060878265 0 0 0 -1 I I #
straight-curve $-1 55.333719901120027 22.598050060878265 0 0 0 -1 I I #
plane-surface $-1 0 0 4.7519560635538651 0 0 1 1 0 0 forward_v I I I I #
coedge $-1 $300 $400 $389 $438 forward $293 $-1 #
coedge $-1 $296 $295 $388 $438 reversed $122 $-1 #
edge $-1 $396 -1.5 $394 1.5 $295 $439 forward 7 unknown #
coedge $-1 $308 $307 $296 $392 forward $309 $-1 #
edge $-1 $393 -1.5 $440 1.5 $296 $441 forward 7 unknown #
vertex $-1 $312 $442 #
vertex $-1 $302 $443 #
straight-curve $-1 -51.515174977834448 -26.439760072325406 0 0 0 -1 I I #
vertex $-1 $438 $444 #
straight-curve $-1 -48.515174977834448 -24.518905066601835 -4.7519560635538651 0 -1 0 I I #
straight-curve $-1 -51.515174977834448 -24.518905066601835 -4.7519560635538651 0 1 0 I I #
point $-1 -48.515174977834448 -22.598050060878265 -4.7519560635538651 #
coedge $-1 $388 $305 $308 $402 reversed $293 $-1 #
straight-curve $-1 -48.515174977834448 -22.598050060878265 0 0 0 -1 I I #
edge $-1 $440 -1.9208550057235705 $310 1.9208550057235705 $400 $445 forward 7 unknown #
point $-1 -48.515174977834448 -22.598050060878265 4.7519560635538651 #
straight-curve $-1 -51.515174977834448 -24.518905066601835 4.7519560635538651 0 -1 0 I I #
coedge $-1 $326 $325 $318 $406 forward $315 $-1 #
edge $-1 $407 72.501913130357309 $410 75.833462541353029 $405 $446 forward 7 unknown #
vertex $-1 $330 $447 #
straight-curve $-1 43.936719560756544 11.199328268487665 4.7519560635538625 1 0 0 I I #
edge $-1 $410 3.8902715886204184 $327 10.727841771114075 $326 $448 forward 7 unknown #
vertex $-1 $409 $449 #
straight-curve $-1 -4.9400863563155468 11.199328268487665 94.233932130386762 -0.54463902268945019 0 0.83867057594974714 I I #
point $-1 53.170186486117942 11.199328268487665 4.7519560635538625 #
point $-1 55.333719901120027 18.036898450981322 1.4204066525581425 #
straight-curve $-1 55.333719901120027 0 4.7519560635538651 0 1 0 I I #
vertex $-1 $333 $450 #
point $-1 53.043616145516559 12.566842304986395 1.7052964883960953 #
vertex $-1 $337 $451 #
point $-1 53.043616145516559 14.618113359734494 1.7052964883960953 #
vertex $-1 $341 $452 #
point $-1 53.043616145516559 16.669384414482593 1.7052964883960953 #
edge $-1 $422 40.05403697879462 $425 44.725845877845572 $346 $453 forward 7 unknown #
vertex $-1 $360 $454 #
straight-curve $-1 -60.191204878440004 -6.0644732423801821 4.7519560635538625 -1 0 0 I I #
edge $-1 $425 1.0859333219166567 $357 8.8711465190103951 $356 $455 forward 7 unknown #
vertex $-1 $424 $456 #
straight-curve $-1 -55.33371990112002 -6.0644732423801821 0.080147164502918145 0.80901698891910034 0 0.5877852598018023 I I #
point $-1 -48.903526722083676 -6.0644732423801821 4.7519560635538651 #
point $-1 -55.333719901120027 -13.849686439473921 0.080147164502912982 #
straight-curve $-1 -55.333719901120027 0 4.7519560635538651 0 -1 0 I I #
vertex $-1 $363 $457 #
point $-1 -51.126329557340505 -11.62533981173285 1.9009272550101939 #
vertex $-1 $367 $458 #
point $-1 -51.126329557340505 -8.2888198701212481 1.9009272550101939 #
straight-curve $-1 -55.333719901120027 22.598050060878265 0 0 0 -1 I I #
point $-1 -55.333719901120027 -22.598050060878265 -4.7519560635538651 #
straight-curve $-1 -55.333719901120027 0 -4.7519560635538651 0 1 0 I I #
point $-1 -55.333719901120027 22.598050060878265 -4.7519560635538651 #
edge $-1 $440 -4.7519560635538651 $396 4.7519560635538651 $388 $459 forward 7 unknown #
straight-curve $-1 -50.015174977834448 -26.439760072325406 -4.7519560635538651 -1 0 0 I I #
vertex $-1 $402 $460 #
straight-curve $-1 -50.015174977834448 -26.439760072325406 4.7519560635538651 1 0 0 I I #
point $-1 -51.515174977834448 -26.439760072325406 4.7519560635538651 #
point $-1 -51.515174977834448 -26.439760072325406 -4.7519560635538651 #
point $-1 -48.515174977834448 -26.439760072325406 -4.7519560635538651 #
straight-curve $-1 -48.515174977834448 -24.518905066601835 4.7519560635538651 0 1 0 I I #
straight-curve $-1 55.333719901120027 11.199328268487665 77.253869193911171 0 0 -1 I I #
point $-1 55.333719901120027 11.199328268487665 4.7519560635538651 #
straight-curve $-1 55.33371990112002 7.3090566798672469 1.4204066525581354 0 1 0 I I #
point $-1 55.333719901120027 11.199328268487665 1.4204066525581425 #
point $-1 52.351961346196958 12.566842304986395 1.8523122650262436 #
point $-1 52.351961346196958 14.618113359734494 1.8523122650262436 #
point $-1 52.351961346196958 16.669384414482593 1.8523122650262436 #
straight-curve $-1 -55.333719901120027 -6.0644732423801821 44.805993042348483 0 0 -1 I I #
point $-1 -55.333719901120027 -6.0644732423801821 4.7519560635538651 #
straight-curve $-1 -55.333719901120027 -4.9785399204635254 0.080147164502910664 0 -1 0 I I #
point $-1 -55.333719901120027 -6.0644732423801821 0.080147164502912982 #
point $-1 -51.236945421899158 -11.62533981173285 1.2025261306497426 #
point $-1 -51.236945421899158 -8.2888198701212481 1.2025261306497426 #
straight-curve $-1 -48.515174977834448 -26.439760072325406 0 0 0 -1 I I #
point $-1 -48.515174977834448 -26.439760072325406 4.7519560635538651 #
End-of-ACIS-data 