500 0 13 0           
7 Unknown 11 ACIS 5.0 NT 24 Thu Mar 25 19:46:54 1999 
-1 9.9999999999999995e-007 1e-010 
body $-1 $13 $-1 $14 #
body $-1 $15 $-1 $16 #
body $-1 $17 $-1 $18 #
body $-1 $19 $-1 $20 #
body $-1 $21 $-1 $22 #
body $-1 $23 $-1 $24 #
body $-1 $25 $-1 $26 #
body $-1 $27 $-1 $28 #
body $-1 $29 $-1 $30 #
body $-1 $31 $-1 $32 #
body $-1 $33 $-1 $34 #
body $-1 $35 $-1 $36 #
body $-1 $37 $-1 $38 #
lump $-1 $-1 $39 $0 #
transform $-1 1 0 0 0 1 0 0 0 1 74.921720023194069 33.852535588592104 16.469108243591013 1 rotate no_reflect no_shear #
lump $-1 $-1 $40 $1 #
transform $-1 1 0 0 0 1 0 0 0 1 74.921720023194069 33.852535588592104 16.469108243591013 1 rotate no_reflect no_shear #
lump $-1 $-1 $41 $2 #
transform $-1 1 0 0 0 1 0 0 0 1 74.921720023194069 33.852535588592104 16.469108243591013 1 rotate no_reflect no_shear #
lump $-1 $-1 $42 $3 #
transform $-1 1 0 0 0 1 0 0 0 1 74.921720023194069 33.852535588592104 16.469108243591013 1 rotate no_reflect no_shear #
lump $-1 $-1 $43 $4 #
transform $-1 1 0 0 0 1 0 0 0 1 74.921720023194069 33.852535588592104 16.469108243591013 1 rotate no_reflect no_shear #
lump $-1 $-1 $44 $5 #
transform $-1 1 0 0 0 1 0 0 0 1 74.921720023194069 33.852535588592104 16.469108243591013 1 rotate no_reflect no_shear #
lump $-1 $-1 $45 $6 #
transform $-1 1 0 0 0 1 0 0 0 1 74.921720023194069 33.852535588592104 16.469108243591013 1 rotate no_reflect no_shear #
lump $-1 $-1 $46 $7 #
transform $-1 1 0 0 0 1 0 0 0 1 74.921720023194069 33.852535588592104 16.469108243591013 1 rotate no_reflect no_shear #
lump $-1 $-1 $47 $8 #
transform $-1 1 0 0 0 1 0 0 0 1 74.921720023194069 33.852535588592104 16.469108243591013 1 rotate no_reflect no_shear #
lump $-1 $-1 $48 $9 #
transform $-1 1 0 0 0 1 0 0 0 1 74.921720023194069 33.852535588592104 16.469108243591013 1 rotate no_reflect no_shear #
lump $-1 $-1 $49 $10 #
transform $-1 1 0 0 0 1 0 0 0 1 74.921720023194069 33.852535588592104 16.469108243591013 1 rotate no_reflect no_shear #
lump $-1 $-1 $50 $11 #
transform $-1 1 0 0 0 1 0 0 0 1 74.921720023194069 33.852535588592104 16.469108243591013 1 rotate no_reflect no_shear #
lump $-1 $-1 $51 $12 #
transform $-1 1 0 0 0 1 0 0 0 1 74.921720023194069 33.852535588592104 16.469108243591013 1 rotate no_reflect no_shear #
shell $-1 $-1 $-1 $52 $-1 $13 #
shell $-1 $-1 $-1 $53 $-1 $15 #
shell $-1 $-1 $-1 $54 $-1 $17 #
shell $-1 $-1 $-1 $55 $-1 $19 #
shell $-1 $-1 $-1 $56 $-1 $21 #
shell $-1 $-1 $-1 $57 $-1 $23 #
shell $-1 $-1 $-1 $58 $-1 $25 #
shell $-1 $-1 $-1 $59 $-1 $27 #
shell $-1 $-1 $-1 $60 $-1 $29 #
shell $-1 $-1 $-1 $61 $-1 $31 #
shell $-1 $-1 $-1 $62 $-1 $33 #
shell $-1 $-1 $-1 $63 $-1 $35 #
shell $-1 $-1 $-1 $64 $-1 $37 #
face $-1 $65 $66 $39 $-1 $67 forward single #
face $-1 $68 $69 $40 $-1 $70 reversed single #
face $-1 $71 $72 $41 $-1 $73 forward single #
face $-1 $74 $75 $42 $-1 $76 forward single #
face $-1 $77 $78 $43 $-1 $79 reversed single #
face $-1 $80 $81 $44 $-1 $82 forward single #
face $-1 $83 $84 $45 $-1 $85 forward single #
face $-1 $86 $87 $46 $-1 $88 reversed single #
face $-1 $89 $90 $47 $-1 $91 forward single #
face $-1 $92 $93 $48 $-1 $94 forward single #
face $-1 $95 $96 $49 $-1 $97 reversed single #
face $-1 $98 $99 $50 $-1 $100 forward single #
face $-1 $101 $102 $51 $-1 $103 forward single #
face $-1 $104 $105 $39 $-1 $106 reversed single #
loop $-1 $-1 $107 $52 #
plane-surface $-1 0 0 16.469108243591013 0 0 1 1 0 0 forward_v I I I I #
face $-1 $108 $109 $40 $-1 $110 reversed single #
loop $-1 $-1 $111 $53 #
plane-surface $-1 -152.0967979491972 -9.9551270387314901 129.9149472033601 0 1 0 -0.51503808176128008 0 0.85716729658548041 forward_v I I I I #
face $-1 $112 $113 $41 $-1 $114 forward single #
loop $-1 $115 $116 $54 #
cone-surface $-1 -62.142509608422984 -7.1108050276653501 8.4702529259939539 0.51503808176128008 0 -0.85716729658548041 0.4285836482927402 0 0.25751904088064004 1 I I 0 1 0.5 forward I I I I #
face $-1 $117 $118 $42 $-1 $119 forward single #
loop $-1 $120 $121 $55 #
cone-surface $-1 -62.142509608422984 -2.84432201106614 8.4702529259939539 0.51503808176128008 0 -0.85716729658548041 0.4285836482927402 0 0.25751904088064004 1 I I 0 1 0.5 forward I I I I #
face $-1 $122 $123 $43 $-1 $124 reversed single #
loop $-1 $-1 $125 $56 #
plane-surface $-1 -74.921720023194069 -4.977563519365745 1.4740507877290554 -0.51503808176128008 0 0.85716729658548041 0.85716729658548041 0 0.51503808176128008 forward_v I I I I #
face $-1 $126 $127 $44 $-1 $128 forward single #
loop $-1 $129 $130 $57 #
cone-surface $-1 -62.142509608422984 2.84432201106614 8.4702529259939539 0.51503808176128008 0 -0.85716729658548041 0.4285836482927402 0 0.25751904088064004 1 I I 0 1 0.5 forward I I I I #
face $-1 $131 $132 $45 $-1 $133 forward single #
loop $-1 $134 $135 $58 #
cone-surface $-1 -62.142509608422984 7.1108050276653501 8.4702529259939539 0.51503808176128008 0 -0.85716729658548041 0.4285836482927402 0 0.25751904088064004 1 I I 0 1 0.5 forward I I I I #
face $-1 $136 $137 $46 $-1 $138 reversed single #
loop $-1 $-1 $139 $59 #
plane-surface $-1 23.655901533566151 0 207.09002512936323 0 -1 0 -0.51503808176128008 0 -0.85716729658548041 forward_v I I I I #
face $-1 $140 $141 $47 $-1 $142 forward single #
loop $-1 $143 $144 $60 #
cone-surface $-1 62.142509608422998 -7.1108050276653501 8.4702529259939539 -0.51503808176128008 0 -0.85716729658548041 0.4285836482927402 0 -0.25751904088064004 1 I I 0 1 0.5 forward I I I I #
face $-1 $145 $146 $48 $-1 $147 forward single #
loop $-1 $148 $149 $61 #
cone-surface $-1 62.142509608422998 -2.84432201106614 8.4702529259939539 -0.51503808176128008 0 -0.85716729658548041 0.4285836482927402 0 -0.25751904088064004 1 I I 0 1 0.5 forward I I I I #
face $-1 $150 $151 $49 $-1 $152 reversed single #
loop $-1 $-1 $153 $62 #
plane-surface $-1 23.655901533566151 9.9551270387314901 207.09002512936323 0 -1 0 -0.51503808176128008 0 -0.85716729658548041 forward_v I I I I #
face $-1 $154 $155 $50 $-1 $156 forward single #
loop $-1 $157 $158 $63 #
cone-surface $-1 62.142509608422998 2.84432201106614 8.4702529259939539 -0.51503808176128008 0 -0.85716729658548041 0.4285836482927402 0 -0.25751904088064004 1 I I 0 1 0.5 forward I I I I #
face $-1 $159 $160 $51 $-1 $161 forward single #
loop $-1 $162 $163 $64 #
cone-surface $-1 62.142509608422998 7.1108050276653501 8.4702529259939539 -0.51503808176128008 0 -0.85716729658548041 0.4285836482927402 0 -0.25751904088064004 1 I I 0 1 0.5 forward I I I I #
face $-1 $164 $165 $39 $-1 $166 reversed single #
loop $-1 $-1 $167 $65 #
plane-surface $-1 0 0 -16.469108243591013 0 0 1 1 0 0 forward_v I I I I #
coedge $-1 $168 $169 $170 $171 forward $66 $-1 #
face $-1 $172 $173 $40 $-1 $174 reversed single #
loop $-1 $-1 $175 $68 #
plane-surface $-1 -74.921720023194069 -4.977563519365745 1.4740507877290554 -0.51503808176128008 0 0.85716729658548041 0.85716729658548041 0 0.51503808176128008 forward_v I I I I #
coedge $-1 $176 $177 $178 $179 reversed $69 $-1 #
face $-1 $-1 $180 $41 $-1 $181 forward single #
loop $-1 $182 $183 $71 #
cone-surface $-1 -61.712522677527218 -7.1108050276653501 7.7546345121815072 0.51503808176128008 0 -0.85716729658548041 0.2142918241463701 0 0.12875952044032002 1 I I -0.70710678118654746 0.70710678118654746 0.25 forward I I I I #
loop $-1 $-1 $184 $54 #
coedge $-1 $116 $116 $185 $186 reversed $72 $-1 #
face $-1 $-1 $187 $42 $-1 $188 forward single #
loop $-1 $189 $190 $74 #
cone-surface $-1 -61.712522677527218 -2.84432201106614 7.7546345121815072 0.51503808176128008 0 -0.85716729658548041 0.2142918241463701 0 0.12875952044032002 1 I I -0.70710678118654746 0.70710678118654746 0.25 forward I I I I #
loop $-1 $-1 $191 $55 #
coedge $-1 $121 $121 $192 $193 reversed $75 $-1 #
face $-1 $194 $195 $43 $-1 $196 forward single #
loop $-1 $-1 $197 $77 #
plane-surface $-1 -152.0967979491972 9.9551270387314901 129.9149472033601 0 -1 0 0.51503808176128008 0 -0.85716729658548041 forward_v I I I I #
coedge $-1 $198 $199 $200 $201 reversed $78 $-1 #
face $-1 $-1 $202 $44 $-1 $203 forward single #
loop $-1 $204 $205 $80 #
cone-surface $-1 -61.712522677527218 2.84432201106614 7.7546345121815072 0.51503808176128008 0 -0.85716729658548041 0.2142918241463701 0 0.12875952044032002 1 I I -0.70710678118654746 0.70710678118654746 0.25 forward I I I I #
loop $-1 $-1 $206 $57 #
coedge $-1 $130 $130 $207 $208 reversed $81 $-1 #
face $-1 $-1 $209 $45 $-1 $210 forward single #
loop $-1 $211 $212 $83 #
cone-surface $-1 -61.712522677527218 7.1108050276653501 7.7546345121815072 0.51503808176128008 0 -0.85716729658548041 0.2142918241463701 0 0.12875952044032002 1 I I -0.70710678118654746 0.70710678118654746 0.25 forward I I I I #
loop $-1 $-1 $213 $58 #
coedge $-1 $135 $135 $214 $215 reversed $84 $-1 #
face $-1 $216 $217 $46 $-1 $218 reversed single #
loop $-1 $-1 $219 $86 #
plane-surface $-1 -53.519176392436975 -4.977563519365745 78.649128713732182 0.51503808176128008 0 0.85716729658548041 0.85716729658548041 0 -0.51503808176128008 forward_v I I I I #
coedge $-1 $220 $221 $222 $223 reversed $87 $-1 #
face $-1 $-1 $224 $47 $-1 $225 forward single #
loop $-1 $226 $227 $89 #
cone-surface $-1 61.712522677527232 -7.1108050276653501 7.7546345121815072 -0.51503808176128008 0 -0.85716729658548041 0.2142918241463701 0 -0.12875952044032002 1 I I -0.70710678118654746 0.70710678118654746 0.25 forward I I I I #
loop $-1 $-1 $228 $60 #
coedge $-1 $144 $144 $229 $230 reversed $90 $-1 #
face $-1 $-1 $231 $48 $-1 $232 forward single #
loop $-1 $233 $234 $92 #
cone-surface $-1 61.712522677527232 -2.84432201106614 7.7546345121815072 -0.51503808176128008 0 -0.85716729658548041 0.2142918241463701 0 -0.12875952044032002 1 I I -0.70710678118654746 0.70710678118654746 0.25 forward I I I I #
loop $-1 $-1 $235 $61 #
coedge $-1 $149 $149 $236 $237 reversed $93 $-1 #
face $-1 $238 $239 $49 $-1 $240 reversed single #
loop $-1 $-1 $241 $95 #
plane-surface $-1 -53.519176392436975 -4.977563519365745 78.649128713732182 0.51503808176128008 0 0.85716729658548041 0.85716729658548041 0 -0.51503808176128008 forward_v I I I I #
coedge $-1 $242 $243 $244 $245 reversed $96 $-1 #
face $-1 $-1 $246 $50 $-1 $247 forward single #
loop $-1 $248 $249 $98 #
cone-surface $-1 61.712522677527232 2.84432201106614 7.7546345121815072 -0.51503808176128008 0 -0.85716729658548041 0.2142918241463701 0 -0.12875952044032002 1 I I -0.70710678118654746 0.70710678118654746 0.25 forward I I I I #
loop $-1 $-1 $250 $63 #
coedge $-1 $158 $158 $251 $252 reversed $99 $-1 #
face $-1 $-1 $253 $51 $-1 $254 forward single #
loop $-1 $255 $256 $101 #
cone-surface $-1 61.712522677527232 7.1108050276653501 7.7546345121815072 -0.51503808176128008 0 -0.85716729658548041 0.2142918241463701 0 -0.12875952044032002 1 I I -0.70710678118654746 0.70710678118654746 0.25 forward I I I I #
loop $-1 $-1 $257 $64 #
coedge $-1 $163 $163 $258 $259 reversed $102 $-1 #
face $-1 $260 $261 $39 $-1 $262 reversed single #
loop $-1 $-1 $263 $104 #
plane-surface $-1 0 -33.852535588592104 0 0 1 0 0 0 1 forward_v I I I I #
coedge $-1 $264 $265 $266 $267 forward $105 $-1 #
coedge $-1 $268 $107 $269 $270 forward $66 $-1 #
coedge $-1 $107 $268 $271 $272 forward $66 $-1 #
coedge $-1 $273 $274 $107 $171 reversed $275 $-1 #
edge $-1 $276 -33.852535588592104 $277 33.852535588592104 $170 $278 forward 7 unknown #
face $-1 $279 $280 $40 $-1 $281 reversed single #
loop $-1 $-1 $282 $108 #
plane-surface $-1 -152.0967979491972 0 129.9149472033601 0 -1 0 0.51503808176128008 0 -0.85716729658548041 forward_v I I I I #
coedge $-1 $283 $284 $285 $286 reversed $109 $-1 #
coedge $-1 $177 $111 $287 $288 reversed $69 $-1 #
coedge $-1 $111 $176 $283 $289 reversed $69 $-1 #
coedge $-1 $285 $290 $111 $179 forward $291 $-1 #
edge $-1 $292 1.1266789514045286 $293 26.082644960035779 $178 $294 forward 7 unknown #
loop $-1 $-1 $185 $112 #
plane-surface $-1 -74.921720023194069 -4.977563519365745 1.4740507877290554 -0.51503808176128008 0 0.85716729658548041 0.85716729658548041 0 0.51503808176128008 forward_v I I I I #
loop $-1 $-1 $295 $71 #
coedge $-1 $183 $183 $184 $296 reversed $113 $-1 #
coedge $-1 $184 $184 $183 $296 forward $115 $-1 #
coedge $-1 $185 $185 $116 $186 forward $180 $-1 #
edge $-1 $297 0 $297 6.2831853071796004 $185 $298 forward 7 unknown #
loop $-1 $-1 $192 $117 #
plane-surface $-1 -74.921720023194069 -4.977563519365745 1.4740507877290554 -0.51503808176128008 0 0.85716729658548041 0.85716729658548041 0 0.51503808176128008 forward_v I I I I #
loop $-1 $-1 $299 $74 #
coedge $-1 $190 $190 $191 $300 reversed $118 $-1 #
coedge $-1 $191 $191 $190 $300 forward $120 $-1 #
coedge $-1 $192 $192 $121 $193 forward $187 $-1 #
edge $-1 $301 0 $301 6.2831853071796004 $192 $302 forward 7 unknown #
face $-1 $303 $304 $43 $-1 $305 forward single #
loop $-1 $-1 $306 $122 #
plane-surface $-1 0 0 16.469108243591013 0 0 1 1 0 0 forward_v I I I I #
coedge $-1 $307 $308 $309 $310 reversed $123 $-1 #
coedge $-1 $311 $125 $312 $313 reversed $78 $-1 #
coedge $-1 $125 $311 $306 $314 reversed $78 $-1 #
coedge $-1 $315 $316 $125 $201 forward $304 $-1 #
edge $-1 $317 0 $318 29.114463545264915 $200 $319 forward 7 unknown #
loop $-1 $-1 $207 $126 #
plane-surface $-1 -74.921720023194069 -4.977563519365745 1.4740507877290554 -0.51503808176128008 0 0.85716729658548041 0.85716729658548041 0 0.51503808176128008 forward_v I I I I #
loop $-1 $-1 $320 $80 #
coedge $-1 $205 $205 $206 $321 reversed $127 $-1 #
coedge $-1 $206 $206 $205 $321 forward $129 $-1 #
coedge $-1 $207 $207 $130 $208 forward $202 $-1 #
edge $-1 $322 0 $322 6.2831853071796004 $207 $323 forward 7 unknown #
loop $-1 $-1 $214 $131 #
plane-surface $-1 -74.921720023194069 -4.977563519365745 1.4740507877290554 -0.51503808176128008 0 0.85716729658548041 0.85716729658548041 0 0.51503808176128008 forward_v I I I I #
loop $-1 $-1 $324 $83 #
coedge $-1 $212 $212 $213 $325 reversed $132 $-1 #
coedge $-1 $213 $213 $212 $325 forward $134 $-1 #
coedge $-1 $214 $214 $135 $215 forward $209 $-1 #
edge $-1 $326 0 $326 6.2831853071796004 $214 $327 forward 7 unknown #
face $-1 $328 $329 $46 $-1 $330 forward single #
loop $-1 $-1 $331 $136 #
plane-surface $-1 23.655901533566151 -9.9551270387314901 207.09002512936323 0 1 0 0.51503808176128008 0 0.85716729658548041 forward_v I I I I #
coedge $-1 $332 $333 $334 $335 reversed $137 $-1 #
coedge $-1 $221 $139 $336 $337 reversed $87 $-1 #
coedge $-1 $139 $220 $332 $338 reversed $87 $-1 #
coedge $-1 $334 $339 $139 $223 forward $329 $-1 #
edge $-1 $340 -63.093769256410994 $341 -38.137803247779743 $222 $342 forward 7 unknown #
loop $-1 $-1 $229 $140 #
plane-surface $-1 -53.519176392436975 -4.977563519365745 78.649128713732182 0.51503808176128008 0 0.85716729658548041 0.85716729658548041 0 -0.51503808176128008 forward_v I I I I #
loop $-1 $-1 $343 $89 #
coedge $-1 $227 $227 $228 $344 reversed $141 $-1 #
coedge $-1 $228 $228 $227 $344 forward $143 $-1 #
coedge $-1 $229 $229 $144 $230 forward $224 $-1 #
edge $-1 $345 0 $345 6.2831853071796004 $229 $346 forward 7 unknown #
loop $-1 $-1 $236 $145 #
plane-surface $-1 -53.519176392436975 -4.977563519365745 78.649128713732182 0.51503808176128008 0 0.85716729658548041 0.85716729658548041 0 -0.51503808176128008 forward_v I I I I #
loop $-1 $-1 $347 $92 #
coedge $-1 $234 $234 $235 $348 reversed $146 $-1 #
coedge $-1 $235 $235 $234 $348 forward $148 $-1 #
coedge $-1 $236 $236 $149 $237 forward $231 $-1 #
edge $-1 $349 0 $349 6.2831853071796004 $236 $350 forward 7 unknown #
face $-1 $351 $352 $49 $-1 $353 forward single #
loop $-1 $-1 $354 $150 #
plane-surface $-1 74.921720023194069 0 0 -1 0 0 0 0 1 forward_v I I I I #
coedge $-1 $355 $356 $357 $358 reversed $151 $-1 #
coedge $-1 $243 $153 $359 $360 reversed $96 $-1 #
coedge $-1 $153 $242 $361 $362 reversed $96 $-1 #
coedge $-1 $363 $354 $153 $245 forward $239 $-1 #
edge $-1 $364 -102.07096177695256 $365 -87.075904321090604 $244 $366 forward 7 unknown #
loop $-1 $-1 $251 $154 #
plane-surface $-1 -53.519176392436975 -4.977563519365745 78.649128713732182 0.51503808176128008 0 0.85716729658548041 0.85716729658548041 0 -0.51503808176128008 forward_v I I I I #
loop $-1 $-1 $367 $98 #
coedge $-1 $249 $249 $250 $368 reversed $155 $-1 #
coedge $-1 $250 $250 $249 $368 forward $157 $-1 #
coedge $-1 $251 $251 $158 $252 forward $246 $-1 #
edge $-1 $369 0 $369 6.2831853071796004 $251 $370 forward 7 unknown #
loop $-1 $-1 $258 $159 #
plane-surface $-1 -53.519176392436975 -4.977563519365745 78.649128713732182 0.51503808176128008 0 0.85716729658548041 0.85716729658548041 0 -0.51503808176128008 forward_v I I I I #
loop $-1 $-1 $371 $101 #
coedge $-1 $256 $256 $257 $372 reversed $160 $-1 #
coedge $-1 $257 $257 $256 $372 forward $162 $-1 #
coedge $-1 $258 $258 $163 $259 forward $253 $-1 #
edge $-1 $373 0 $373 6.2831853071796004 $258 $374 forward 7 unknown #
face $-1 $375 $376 $39 $-1 $377 reversed single #
loop $-1 $-1 $378 $164 #
plane-surface $-1 -74.921720023194069 0 0 1 0 0 0 0 -1 forward_v I I I I #
coedge $-1 $379 $271 $380 $381 forward $165 $-1 #
coedge $-1 $382 $167 $379 $383 forward $105 $-1 #
coedge $-1 $167 $382 $384 $385 forward $105 $-1 #
coedge $-1 $274 $273 $167 $267 reversed $275 $-1 #
edge $-1 $386 -33.852535588592104 $387 33.852535588592104 $266 $388 forward 7 unknown #
coedge $-1 $169 $168 $389 $390 forward $66 $-1 #
coedge $-1 $391 $392 $168 $270 reversed $376 $-1 #
edge $-1 $277 -74.921720023194069 $393 74.921720023194069 $269 $394 forward 7 unknown #
coedge $-1 $263 $395 $169 $272 reversed $165 $-1 #
edge $-1 $396 -74.921720023194069 $276 74.921720023194069 $271 $397 forward 7 unknown #
coedge $-1 $266 $170 $395 $398 forward $275 $-1 #
coedge $-1 $170 $266 $391 $399 reversed $275 $-1 #
loop $-1 $-1 $273 $375 #
vertex $-1 $171 $400 #
vertex $-1 $171 $401 #
straight-curve $-1 74.921720023194069 0 16.469108243591013 0 1 0 I I #
face $-1 $-1 $291 $40 $-1 $402 forward single #
loop $-1 $-1 $403 $172 #
plane-surface $-1 -74.921720023194069 0 0 1 0 0 0 0 -1 forward_v I I I I #
coedge $-1 $404 $405 $406 $407 reversed $173 $-1 #
coedge $-1 $408 $175 $177 $289 forward $109 $-1 #
coedge $-1 $175 $408 $404 $409 forward $109 $-1 #
coedge $-1 $406 $178 $175 $286 forward $291 $-1 #
edge $-1 $293 -7.4663452790486176 $410 2.4887817596828725 $285 $411 forward 7 unknown #
coedge $-1 $412 $413 $176 $288 forward $280 $-1 #
edge $-1 $414 -63.483422813950995 $292 -48.488365358089041 $287 $415 forward 7 unknown #
edge $-1 $293 -29.114463545264915 $414 0 $177 $416 forward 7 unknown #
coedge $-1 $178 $406 $412 $417 forward $291 $-1 #
loop $-1 $-1 $406 $279 #
vertex $-1 $288 $418 #
vertex $-1 $179 $419 #
straight-curve $-1 -76.048398974598598 -9.9551270387314901 16.469108243591009 1 0 0 I I #
coedge $-1 $295 $295 $-1 $420 reversed $182 $-1 #
edge $-1 $421 0 $421 6.2831853071796004 $183 $422 forward 7 unknown #
vertex $-1 $186 $423 #
ellipse-curve $-1 -62.443737018878437 -7.1108050276653501 8.9715795156600393 -0.51503808176128008 0 0.85716729658548041 0.4285836482927402 0 0.25751904088064004 1 I I #
coedge $-1 $299 $299 $-1 $424 reversed $189 $-1 #
edge $-1 $425 0 $425 6.2831853071796004 $190 $426 forward 7 unknown #
vertex $-1 $193 $427 #
ellipse-curve $-1 -62.443737018878437 -2.84432201106614 8.9715795156600393 -0.51503808176128008 0 0.85716729658548041 0.4285836482927402 0 0.25751904088064004 1 I I #
face $-1 $-1 $428 $43 $-1 $429 reversed single #
loop $-1 $-1 $315 $194 #
plane-surface $-1 -152.0967979491972 0 129.9149472033601 0 -1 0 0.51503808176128008 0 -0.85716729658548041 forward_v I I I I #
coedge $-1 $309 $430 $199 $314 forward $195 $-1 #
coedge $-1 $308 $197 $311 $431 reversed $123 $-1 #
coedge $-1 $197 $307 $432 $433 reversed $123 $-1 #
coedge $-1 $434 $306 $197 $310 forward $195 $-1 #
edge $-1 $435 -26.082644960035779 $436 -1.1266789514045286 $309 $437 forward 7 unknown #
coedge $-1 $199 $198 $307 $431 forward $78 $-1 #
coedge $-1 $438 $432 $198 $313 forward $428 $-1 #
edge $-1 $439 -12.443908798414363 $317 -2.4887817596828725 $312 $440 forward 7 unknown #
edge $-1 $318 2.4887817596828725 $435 12.443908798414363 $306 $441 forward 7 unknown #
coedge $-1 $316 $200 $430 $442 reversed $304 $-1 #
coedge $-1 $200 $315 $438 $443 reversed $304 $-1 #
vertex $-1 $313 $444 #
vertex $-1 $314 $445 #
straight-curve $-1 -74.921720023194069 0 1.4740507877290554 0.85716729658548041 0 0.51503808176128008 I I #
coedge $-1 $320 $320 $-1 $446 reversed $204 $-1 #
edge $-1 $447 0 $447 6.2831853071796004 $205 $448 forward 7 unknown #
vertex $-1 $208 $449 #
ellipse-curve $-1 -62.443737018878437 2.84432201106614 8.9715795156600393 -0.51503808176128008 0 0.85716729658548041 0.4285836482927402 0 0.25751904088064004 1 I I #
coedge $-1 $324 $324 $-1 $450 reversed $211 $-1 #
edge $-1 $451 0 $451 6.2831853071796004 $212 $452 forward 7 unknown #
vertex $-1 $215 $453 #
ellipse-curve $-1 -62.443737018878437 7.1108050276653501 8.9715795156600393 -0.51503808176128008 0 0.85716729658548041 0.4285836482927402 0 0.25751904088064004 1 I I #
face $-1 $-1 $454 $46 $-1 $455 reversed single #
loop $-1 $-1 $222 $216 #
plane-surface $-1 0 0 16.469108243591013 0 0 1 1 0 0 forward_v I I I I #
coedge $-1 $456 $457 $458 $459 reversed $217 $-1 #
coedge $-1 $460 $219 $221 $338 forward $137 $-1 #
coedge $-1 $219 $460 $456 $461 forward $137 $-1 #
coedge $-1 $458 $222 $219 $335 forward $329 $-1 #
edge $-1 $341 -2.4887817596828725 $462 7.4663452790486176 $334 $463 forward 7 unknown #
coedge $-1 $464 $465 $220 $337 forward $454 $-1 #
edge $-1 $466 -102.07096177695256 $340 -87.075904321090604 $336 $467 forward 7 unknown #
edge $-1 $341 120.72897650112323 $466 149.84344004638814 $221 $468 forward 7 unknown #
coedge $-1 $222 $458 $464 $469 forward $329 $-1 #
vertex $-1 $337 $470 #
vertex $-1 $223 $471 #
straight-curve $-1 11.827950766783076 0 16.469108243591009 -1 0 0 I I #
coedge $-1 $343 $343 $-1 $472 reversed $226 $-1 #
edge $-1 $473 0 $473 6.2831853071796004 $227 $474 forward 7 unknown #
vertex $-1 $230 $475 #
ellipse-curve $-1 62.443737018878451 -7.1108050276653501 8.9715795156600393 0.51503808176128008 0 0.85716729658548041 0.4285836482927402 0 -0.25751904088064004 1 I I #
coedge $-1 $347 $347 $-1 $476 reversed $233 $-1 #
edge $-1 $477 0 $477 6.2831853071796004 $234 $478 forward 7 unknown #
vertex $-1 $237 $479 #
ellipse-curve $-1 62.443737018878451 -2.84432201106614 8.9715795156600393 0.51503808176128008 0 0.85716729658548041 0.4285836482927402 0 -0.25751904088064004 1 I I #
face $-1 $-1 $480 $49 $-1 $481 forward single #
loop $-1 $-1 $482 $238 #
plane-surface $-1 23.655901533566151 0 207.09002512936323 0 -1 0 -0.51503808176128008 0 -0.85716729658548041 forward_v I I I I #
coedge $-1 $244 $483 $356 $484 forward $239 $-1 #
coedge $-1 $359 $241 $485 $486 reversed $151 $-1 #
coedge $-1 $241 $359 $354 $484 reversed $151 $-1 #
coedge $-1 $487 $482 $241 $358 forward $352 $-1 #
edge $-1 $488 120.72897650112323 $489 149.84344004638814 $357 $490 forward 7 unknown #
coedge $-1 $356 $355 $242 $360 forward $151 $-1 #
edge $-1 $491 120.72897650112323 $364 149.84344004638814 $242 $492 forward 7 unknown #
coedge $-1 $485 $493 $243 $362 forward $480 $-1 #
edge $-1 $365 -63.093769256410994 $491 -38.137803247779743 $361 $494 forward 7 unknown #
coedge $-1 $483 $244 $493 $495 reversed $239 $-1 #
vertex $-1 $245 $496 #
vertex $-1 $245 $497 #
straight-curve $-1 74.921720023194069 9.9551270387314901 103.54501256468161 0 0 1 I I #
coedge $-1 $367 $367 $-1 $498 reversed $248 $-1 #
edge $-1 $499 0 $499 6.2831853071796004 $249 $500 forward 7 unknown #
vertex $-1 $252 $501 #
ellipse-curve $-1 62.443737018878451 2.84432201106614 8.9715795156600393 0.51503808176128008 0 0.85716729658548041 0.4285836482927402 0 -0.25751904088064004 1 I I #
coedge $-1 $371 $371 $-1 $502 reversed $255 $-1 #
edge $-1 $503 0 $503 6.2831853071796004 $256 $504 forward 7 unknown #
vertex $-1 $259 $505 #
ellipse-curve $-1 62.443737018878451 7.1108050276653501 8.9715795156600393 0.51503808176128008 0 0.85716729658548041 0.4285836482927402 0 -0.25751904088064004 1 I I #
face $-1 $-1 $275 $39 $-1 $506 reversed single #
loop $-1 $-1 $391 $260 #
plane-surface $-1 0 33.852535588592104 0 0 -1 0 0 0 -1 forward_v I I I I #
coedge $-1 $507 $389 $392 $508 forward $261 $-1 #
coedge $-1 $395 $263 $264 $383 reversed $165 $-1 #
coedge $-1 $389 $507 $263 $381 reversed $261 $-1 #
edge $-1 $396 -16.469108243591013 $509 16.469108243591013 $380 $510 forward 7 unknown #
coedge $-1 $265 $264 $507 $511 forward $105 $-1 #
edge $-1 $387 -74.921720023194069 $509 74.921720023194069 $379 $512 forward 7 unknown #
coedge $-1 $392 $391 $265 $385 reversed $376 $-1 #
edge $-1 $513 -74.921720023194069 $386 74.921720023194069 $384 $514 forward 7 unknown #
vertex $-1 $267 $515 #
vertex $-1 $398 $516 #
straight-curve $-1 74.921720023194069 0 -16.469108243591013 0 -1 0 I I #
coedge $-1 $378 $380 $268 $390 reversed $261 $-1 #
edge $-1 $393 -33.852535588592104 $396 33.852535588592104 $389 $517 forward 7 unknown #
coedge $-1 $384 $269 $274 $399 forward $376 $-1 #
coedge $-1 $269 $384 $378 $508 reversed $376 $-1 #
vertex $-1 $270 $518 #
straight-curve $-1 0 33.852535588592104 16.469108243591013 -1 0 0 I I #
coedge $-1 $271 $379 $273 $398 reversed $165 $-1 #
vertex $-1 $390 $519 #
straight-curve $-1 0 -33.852535588592104 16.469108243591013 1 0 0 I I #
edge $-1 $276 -16.469108243591013 $387 16.469108243591013 $273 $520 forward 7 unknown #
edge $-1 $277 -16.469108243591013 $386 16.469108243591013 $274 $521 forward 7 unknown #
point $-1 74.921720023194069 -33.852535588592104 16.469108243591013 #
point $-1 74.921720023194069 33.852535588592104 16.469108243591013 #
plane-surface $-1 0 0 16.469108243591013 0 0 1 1 0 0 forward_v I I I I #
coedge $-1 $413 $412 $405 $522 forward $280 $-1 #
coedge $-1 $405 $282 $284 $409 reversed $173 $-1 #
coedge $-1 $282 $404 $403 $522 reversed $173 $-1 #
coedge $-1 $290 $285 $282 $407 forward $291 $-1 #
edge $-1 $410 -26.082644960035779 $523 -1.1266789514045286 $406 $524 forward 7 unknown #
coedge $-1 $284 $283 $413 $525 reversed $109 $-1 #
edge $-1 $526 0 $410 29.114463545264915 $404 $527 forward 7 unknown #
vertex $-1 $286 $528 #
straight-curve $-1 -49.965754014562826 -2.4887817596828725 16.469108243591013 0 1 0 I I #
coedge $-1 $403 $287 $290 $417 reversed $280 $-1 #
coedge $-1 $287 $403 $408 $525 forward $280 $-1 #
vertex $-1 $288 $529 #
straight-curve $-1 -74.921720023194069 -9.9551270387314901 64.95747360168005 0 0 1 I I #
straight-curve $-1 -74.921720023194069 -9.9551270387314901 1.4740507877290554 -0.85716729658548041 0 -0.51503808176128008 I I #
edge $-1 $523 0 $292 9.9551270387314901 $412 $530 forward 7 unknown #
point $-1 -74.921720023194069 -9.9551270387314901 16.469108243591013 #
point $-1 -49.965754014562819 -9.9551270387314901 16.469108243591013 #
edge $-1 $531 1 $531 0 $295 $-1 forward 7 unknown #
vertex $-1 $296 $532 #
ellipse-curve $-1 -61.841282197967537 -7.1108050276653501 7.9689263363278773 -0.51503808176128008 0 0.85716729658548041 0.4285836482927402 0 0.25751904088064004 1 I I #
point $-1 -62.015153370585693 -7.1108050276653501 9.2290985565406682 #
edge $-1 $533 1 $533 0 $299 $-1 forward 7 unknown #
vertex $-1 $300 $534 #
ellipse-curve $-1 -61.841282197967537 -2.84432201106614 7.9689263363278773 -0.51503808176128008 0 0.85716729658548041 0.4285836482927402 0 0.25751904088064004 1 I I #
point $-1 -62.015153370585693 -2.84432201106614 9.2290985565406682 #
loop $-1 $-1 $312 $303 #
plane-surface $-1 -74.921720023194069 0 0 1 0 0 0 0 -1 forward_v I I I I #
coedge $-1 $306 $434 $315 $442 forward $195 $-1 #
edge $-1 $439 0 $435 29.114463545264915 $307 $535 forward 7 unknown #
coedge $-1 $312 $536 $308 $433 forward $428 $-1 #
edge $-1 $436 48.488365358089041 $439 63.483422813950995 $432 $537 forward 7 unknown #
coedge $-1 $430 $309 $536 $538 forward $195 $-1 #
vertex $-1 $310 $539 #
vertex $-1 $538 $540 #
straight-curve $-1 -76.048398974598598 9.9551270387314901 16.469108243591009 -1 0 0 I I #
coedge $-1 $536 $312 $316 $443 forward $428 $-1 #
vertex $-1 $433 $541 #
straight-curve $-1 -74.921720023194069 -2.4887817596828725 1.474050787729059 0 -1 0 I I #
straight-curve $-1 -49.965754014562826 -2.4887817596828725 16.469108243591013 0 1 0 I I #
edge $-1 $542 1.1266789514045286 $318 26.082644960035779 $430 $543 forward 7 unknown #
edge $-1 $317 -63.483422813950995 $542 -48.488365358089041 $438 $544 forward 7 unknown #
point $-1 -74.921720023194069 0 1.4740507877290554 #
point $-1 -49.965754014562819 0 16.469108243591013 #
edge $-1 $545 1 $545 0 $320 $-1 forward 7 unknown #
vertex $-1 $321 $546 #
ellipse-curve $-1 -61.841282197967537 2.84432201106614 7.9689263363278773 -0.51503808176128008 0 0.85716729658548041 0.4285836482927402 0 0.25751904088064004 1 I I #
point $-1 -62.015153370585693 2.84432201106614 9.2290985565406682 #
edge $-1 $547 1 $547 0 $324 $-1 forward 7 unknown #
vertex $-1 $325 $548 #
ellipse-curve $-1 -61.841282197967537 7.1108050276653501 7.9689263363278773 -0.51503808176128008 0 0.85716729658548041 0.4285836482927402 0 0.25751904088064004 1 I I #
point $-1 -62.015153370585693 7.1108050276653501 9.2290985565406682 #
loop $-1 $-1 $336 $328 #
plane-surface $-1 74.921720023194069 0 0 -1 0 0 0 0 1 forward_v I I I I #
coedge $-1 $457 $331 $333 $461 reversed $217 $-1 #
coedge $-1 $331 $456 $549 $550 reversed $217 $-1 #
coedge $-1 $339 $334 $331 $459 forward $329 $-1 #
edge $-1 $462 38.137803247779743 $551 63.093769256410994 $458 $552 forward 7 unknown #
coedge $-1 $333 $332 $465 $553 reversed $137 $-1 #
edge $-1 $554 -149.84344004638814 $462 -120.72897650112323 $456 $555 forward 7 unknown #
vertex $-1 $335 $556 #
straight-curve $-1 49.965754014562805 -2.4887817596828725 16.469108243591016 0 -1 0 I I #
coedge $-1 $549 $336 $339 $469 reversed $454 $-1 #
coedge $-1 $336 $549 $460 $553 forward $454 $-1 #
vertex $-1 $337 $557 #
straight-curve $-1 74.921720023194069 0 103.54501256468161 0 0 1 I I #
straight-curve $-1 -53.519176392436975 0 78.649128713732182 0.85716729658548041 0 -0.51503808176128008 I I #
edge $-1 $551 -9.9551270387314901 $340 0 $464 $558 forward 7 unknown #
point $-1 74.921720023194069 0 16.469108243591013 #
point $-1 49.965754014562819 0 16.469108243591009 #
edge $-1 $559 1 $559 0 $343 $-1 forward 7 unknown #
vertex $-1 $344 $560 #
ellipse-curve $-1 61.841282197967551 -7.1108050276653501 7.9689263363278773 0.51503808176128008 0 0.85716729658548041 0.4285836482927402 0 -0.25751904088064004 1 I I #
point $-1 62.872320667171188 -7.1108050276653501 8.7140604747793891 #
edge $-1 $561 1 $561 0 $347 $-1 forward 7 unknown #
vertex $-1 $348 $562 #
ellipse-curve $-1 61.841282197967551 -2.84432201106614 7.9689263363278773 0.51503808176128008 0 0.85716729658548041 0.4285836482927402 0 -0.25751904088064004 1 I I #
point $-1 62.872320667171188 -2.84432201106614 8.7140604747793891 #
loop $-1 $-1 $485 $351 #
plane-surface $-1 0 0 16.469108243591013 0 0 1 1 0 0 forward_v I I I I #
coedge $-1 $357 $487 $563 $564 reversed $352 $-1 #
coedge $-1 $354 $363 $487 $565 forward $239 $-1 #
edge $-1 $489 2.4887817596828725 $364 12.443908798414363 $354 $566 forward 7 unknown #
coedge $-1 $563 $361 $355 $486 forward $480 $-1 #
edge $-1 $491 -12.443908798414363 $488 -2.4887817596828725 $485 $567 forward 7 unknown #
coedge $-1 $482 $357 $483 $565 reversed $352 $-1 #
vertex $-1 $486 $568 #
vertex $-1 $484 $569 #
straight-curve $-1 -53.519176392436975 0 78.649128713732182 0.85716729658548041 0 -0.51503808176128008 I I #
vertex $-1 $362 $570 #
straight-curve $-1 -53.519176392436975 9.9551270387314901 78.649128713732182 0.85716729658548041 0 -0.51503808176128008 I I #
coedge $-1 $361 $563 $363 $495 forward $480 $-1 #
straight-curve $-1 11.827950766783076 9.9551270387314901 16.469108243591009 -1 0 0 I I #
edge $-1 $571 0 $365 9.9551270387314901 $363 $572 forward 7 unknown #
point $-1 74.921720023194069 9.9551270387314901 1.4740507877290554 #
point $-1 74.921720023194069 9.9551270387314901 16.469108243591013 #
edge $-1 $573 1 $573 0 $367 $-1 forward 7 unknown #
vertex $-1 $368 $574 #
ellipse-curve $-1 61.841282197967551 2.84432201106614 7.9689263363278773 0.51503808176128008 0 0.85716729658548041 0.4285836482927402 0 -0.25751904088064004 1 I I #
point $-1 62.872320667171188 2.84432201106614 8.7140604747793891 #
edge $-1 $575 1 $575 0 $371 $-1 forward 7 unknown #
vertex $-1 $372 $576 #
ellipse-curve $-1 61.841282197967551 7.1108050276653501 7.9689263363278773 0.51503808176128008 0 0.85716729658548041 0.4285836482927402 0 -0.25751904088064004 1 I I #
point $-1 62.872320667171188 7.1108050276653501 8.7140604747793891 #
plane-surface $-1 74.921720023194069 0 0 -1 0 0 0 0 1 forward_v I I I I #
coedge $-1 $380 $378 $382 $511 reversed $261 $-1 #
edge $-1 $393 -16.469108243591013 $513 16.469108243591013 $392 $577 forward 7 unknown #
vertex $-1 $511 $578 #
straight-curve $-1 -74.921720023194069 -33.852535588592104 0 0 0 -1 I I #
edge $-1 $509 -33.852535588592104 $513 33.852535588592104 $507 $579 forward 7 unknown #
straight-curve $-1 0 -33.852535588592104 -16.469108243591013 -1 0 0 I I #
vertex $-1 $385 $580 #
straight-curve $-1 0 33.852535588592104 -16.469108243591013 1 0 0 I I #
point $-1 74.921720023194069 33.852535588592104 -16.469108243591013 #
point $-1 74.921720023194069 -33.852535588592104 -16.469108243591013 #
straight-curve $-1 -74.921720023194069 0 16.469108243591013 0 -1 0 I I #
point $-1 -74.921720023194069 33.852535588592104 16.469108243591013 #
point $-1 -74.921720023194069 -33.852535588592104 16.469108243591013 #
straight-curve $-1 74.921720023194069 -33.852535588592104 0 0 0 -1 I I #
straight-curve $-1 74.921720023194069 33.852535588592104 0 0 0 -1 I I #
edge $-1 $523 48.488365358089041 $526 63.483422813950995 $403 $581 forward 7 unknown #
vertex $-1 $417 $582 #
straight-curve $-1 -76.048398974598598 0 16.469108243591009 -1 0 0 I I #
edge $-1 $526 -2.4887817596828725 $414 7.4663452790486176 $413 $583 forward 7 unknown #
vertex $-1 $525 $584 #
straight-curve $-1 -74.921720023194069 0 1.4740507877290554 0.85716729658548041 0 0.51503808176128008 I I #
point $-1 -49.965754014562819 0 16.469108243591013 #
point $-1 -74.921720023194069 -9.9551270387314901 1.4740507877290554 #
straight-curve $-1 -74.921720023194069 0 16.469108243591013 0 -1 0 I I #
vertex $-1 $420 $585 #
point $-1 -61.412698549674801 -7.1108050276653501 8.2264453772085169 #
vertex $-1 $424 $586 #
point $-1 -61.412698549674801 -2.84432201106614 8.2264453772085169 #
straight-curve $-1 -74.921720023194069 9.9551270387314901 1.4740507877290554 0.85716729658548041 0 0.51503808176128008 I I #
coedge $-1 $432 $438 $434 $538 reversed $428 $-1 #
straight-curve $-1 -74.921720023194069 9.9551270387314901 64.95747360168005 0 0 -1 I I #
edge $-1 $436 -9.9551270387314901 $542 0 $536 $587 forward 7 unknown #
point $-1 -49.965754014562819 9.9551270387314901 16.469108243591013 #
point $-1 -74.921720023194069 9.9551270387314901 16.469108243591013 #
point $-1 -74.921720023194069 9.9551270387314901 1.4740507877290554 #
vertex $-1 $443 $588 #
straight-curve $-1 -76.048398974598598 0 16.469108243591009 1 0 0 I I #
straight-curve $-1 -74.921720023194069 0 64.95747360168005 0 0 1 I I #
vertex $-1 $446 $589 #
point $-1 -61.412698549674801 2.84432201106614 8.2264453772085169 #
vertex $-1 $450 $590 #
point $-1 -61.412698549674801 7.1108050276653501 8.2264453772085169 #
coedge $-1 $465 $464 $457 $550 forward $454 $-1 #
edge $-1 $551 87.075904321090604 $554 102.07096177695256 $549 $591 forward 7 unknown #
vertex $-1 $469 $592 #
straight-curve $-1 11.827950766783076 -9.9551270387314901 16.469108243591009 1 0 0 I I #
edge $-1 $554 -7.4663452790486176 $466 2.4887817596828725 $465 $593 forward 7 unknown #
vertex $-1 $553 $594 #
straight-curve $-1 -53.519176392436975 -9.9551270387314901 78.649128713732182 -0.85716729658548041 0 0.51503808176128008 I I #
point $-1 49.965754014562819 -9.9551270387314901 16.469108243591009 #
point $-1 74.921720023194069 0 1.4740507877290554 #
straight-curve $-1 74.921720023194069 0 16.469108243591013 0 1 0 I I #
vertex $-1 $472 $595 #
point $-1 62.269865846260295 -7.1108050276653501 7.7114072954472377 #
vertex $-1 $476 $596 #
point $-1 62.269865846260295 -2.84432201106614 7.7114072954472377 #
coedge $-1 $493 $485 $482 $564 forward $480 $-1 #
edge $-1 $488 38.137803247779743 $571 63.093769256410994 $563 $597 forward 7 unknown #
edge $-1 $571 87.075904321090604 $489 102.07096177695256 $483 $598 forward 7 unknown #
straight-curve $-1 74.921720023194055 -2.4887817596828725 1.4740507877290625 0 1 0 I I #
straight-curve $-1 49.965754014562805 -2.4887817596828725 16.469108243591016 0 -1 0 I I #
point $-1 49.965754014562819 0 16.469108243591009 #
point $-1 74.921720023194069 0 1.4740507877290554 #
point $-1 49.965754014562819 9.9551270387314901 16.469108243591009 #
vertex $-1 $495 $599 #
straight-curve $-1 74.921720023194069 0 16.469108243591013 0 1 0 I I #
vertex $-1 $498 $600 #
point $-1 62.269865846260295 2.84432201106614 7.7114072954472377 #
vertex $-1 $502 $601 #
point $-1 62.269865846260295 7.1108050276653501 7.7114072954472377 #
straight-curve $-1 -74.921720023194069 33.852535588592104 0 0 0 -1 I I #
point $-1 -74.921720023194069 -33.852535588592104 -16.469108243591013 #
straight-curve $-1 -74.921720023194069 0 -16.469108243591013 0 1 0 I I #
point $-1 -74.921720023194069 33.852535588592104 -16.469108243591013 #
straight-curve $-1 -74.921720023194069 0 64.95747360168005 0 0 -1 I I #
point $-1 -74.921720023194069 0 16.469108243591013 #
straight-curve $-1 -74.921720023194069 -2.4887817596828725 1.474050787729059 0 -1 0 I I #
point $-1 -74.921720023194069 0 1.4740507877290554 #
point $-1 -61.583763157086899 -7.1108050276653501 7.5403426880351372 #
point $-1 -61.583763157086899 -2.84432201106614 7.5403426880351372 #
straight-curve $-1 -74.921720023194069 0 16.469108243591013 0 -1 0 I I #
point $-1 -74.921720023194069 0 16.469108243591013 #
point $-1 -61.583763157086899 2.84432201106614 7.5403426880351372 #
point $-1 -61.583763157086899 7.1108050276653501 7.5403426880351372 #
straight-curve $-1 74.921720023194069 -9.9551270387314901 103.54501256468161 0 0 -1 I I #
point $-1 74.921720023194069 -9.9551270387314901 16.469108243591013 #
straight-curve $-1 74.921720023194055 -2.4887817596828725 1.4740507877290625 0 1 0 I I #
point $-1 74.921720023194069 -9.9551270387314901 1.4740507877290554 #
point $-1 61.583763157086914 -7.1108050276653501 7.5403426880351372 #
point $-1 61.583763157086914 -2.84432201106614 7.5403426880351372 #
straight-curve $-1 11.827950766783076 0 16.469108243591009 1 0 0 I I #
straight-curve $-1 74.921720023194069 0 103.54501256468161 0 0 -1 I I #
point $-1 74.921720023194069 0 16.469108243591013 #
point $-1 61.583763157086914 2.84432201106614 7.5403426880351372 #
point $-1 61.583763157086914 7.1108050276653501 7.5403426880351372 #
End-of-ACIS-data 