500 0 10 0           
7 Unknown 11 ACIS 5.0 NT 24 Fri Mar 26 02:28:43 1999 
-1 9.9999999999999995e-007 1e-010 
body $-1 $10 $-1 $11 #
body $-1 $12 $-1 $13 #
body $-1 $14 $-1 $15 #
body $-1 $16 $-1 $17 #
body $-1 $18 $-1 $19 #
body $-1 $20 $-1 $21 #
body $-1 $22 $-1 $23 #
body $-1 $24 $-1 $25 #
body $-1 $26 $-1 $27 #
body $-1 $28 $-1 $29 #
lump $-1 $-1 $30 $0 #
transform $-1 1 0 0 0 1 0 0 0 1 67.237159337137967 31.018723689072729 15.40400023234746 1 rotate no_reflect no_shear #
lump $-1 $-1 $31 $1 #
transform $-1 1 0 0 0 1 0 0 0 1 67.237159337137967 31.018723689072729 15.40400023234746 1 rotate no_reflect no_shear #
lump $-1 $-1 $32 $2 #
transform $-1 1 0 0 0 1 0 0 0 1 67.237159337137967 31.018723689072729 15.40400023234746 1 rotate no_reflect no_shear #
lump $-1 $-1 $33 $3 #
transform $-1 1 0 0 0 1 0 0 0 1 67.237159337137967 31.018723689072729 15.40400023234746 1 rotate no_reflect no_shear #
lump $-1 $-1 $34 $4 #
transform $-1 1 0 0 0 1 0 0 0 1 67.237159337137967 31.018723689072729 15.40400023234746 1 rotate no_reflect no_shear #
lump $-1 $-1 $35 $5 #
transform $-1 1 0 0 0 1 0 0 0 1 67.237159337137967 31.018723689072729 15.40400023234746 1 rotate no_reflect no_shear #
lump $-1 $-1 $36 $6 #
transform $-1 1 0 0 0 1 0 0 0 1 67.237159337137967 31.018723689072729 15.40400023234746 1 rotate no_reflect no_shear #
lump $-1 $-1 $37 $7 #
transform $-1 1 0 0 0 1 0 0 0 1 67.237159337137967 31.018723689072729 15.40400023234746 1 rotate no_reflect no_shear #
lump $-1 $-1 $38 $8 #
transform $-1 1 0 0 0 1 0 0 0 1 67.237159337137967 31.018723689072729 15.40400023234746 1 rotate no_reflect no_shear #
lump $-1 $-1 $39 $9 #
transform $-1 1 0 0 0 1 0 0 0 1 67.237159337137967 31.018723689072729 15.40400023234746 1 rotate no_reflect no_shear #
shell $-1 $-1 $-1 $40 $-1 $10 #
shell $-1 $-1 $-1 $41 $-1 $12 #
shell $-1 $-1 $-1 $42 $-1 $14 #
shell $-1 $-1 $-1 $43 $-1 $16 #
shell $-1 $-1 $-1 $44 $-1 $18 #
shell $-1 $-1 $-1 $45 $-1 $20 #
shell $-1 $-1 $-1 $46 $-1 $22 #
shell $-1 $-1 $-1 $47 $-1 $24 #
shell $-1 $-1 $-1 $48 $-1 $26 #
shell $-1 $-1 $-1 $49 $-1 $28 #
face $-1 $50 $51 $30 $-1 $52 reversed single #
face $-1 $53 $54 $31 $-1 $55 forward single #
face $-1 $56 $57 $32 $-1 $58 reversed single #
face $-1 $59 $60 $33 $-1 $61 forward single #
face $-1 $62 $63 $34 $-1 $64 forward single #
face $-1 $65 $66 $35 $-1 $67 forward single #
face $-1 $68 $69 $36 $-1 $70 reversed single #
face $-1 $71 $72 $37 $-1 $73 forward single #
face $-1 $74 $75 $38 $-1 $76 forward single #
face $-1 $77 $78 $39 $-1 $79 forward single #
face $-1 $80 $81 $30 $-1 $82 forward single #
loop $-1 $-1 $83 $40 #
plane-surface $-1 0 -31.018723689072729 0 0 1 0 0 0 1 forward_v I I I I #
face $-1 $84 $85 $31 $-1 $86 reversed single #
loop $-1 $-1 $87 $41 #
plane-surface $-1 0 -31.018723689072729 0 0 1 0 0 0 1 forward_v I I I I #
face $-1 $88 $89 $32 $-1 $90 reversed single #
loop $-1 $-1 $91 $42 #
plane-surface $-1 -176.02916955212652 -11.205051195424673 87.106304519739581 0 1 0 -0.80901700255871778 0 0.5877852410284794 forward_v I I I I #
face $-1 $92 $93 $33 $-1 $94 forward single #
loop $-1 $95 $96 $43 #
cone-surface $-1 -64.16634317711862 -9.5502704209324669 11.440249848479368 0.80901700255871778 0 -0.5877852410284794 0.2938926205142397 0 0.40450850127935889 1 I I 0 1 0.5 forward I I I I #
face $-1 $97 $98 $34 $-1 $99 forward single #
loop $-1 $100 $101 $44 #
cone-surface $-1 -64.16634317711862 -7.068099259194156 11.440249848479368 0.80901700255871778 0 -0.5877852410284794 0.2938926205142397 0 0.40450850127935889 1 I I 0 1 0.5 forward I I I I #
face $-1 $102 $103 $35 $-1 $104 forward single #
loop $-1 $105 $106 $45 #
cone-surface $-1 -64.16634317711862 -4.5859280974558452 11.440249848479368 0.80901700255871778 0 -0.5877852410284794 0.2938926205142397 0 0.40450850127935889 1 I I 0 1 0.5 forward I I I I #
face $-1 $107 $108 $36 $-1 $109 reversed single #
loop $-1 $-1 $110 $46 #
plane-surface $-1 -176.02916955212652 12.813500008532216 87.106304519739581 0 1 0 -0.80901700255871778 0 0.5877852410284794 forward_v I I I I #
face $-1 $111 $112 $37 $-1 $113 forward single #
loop $-1 $114 $115 $47 #
cone-surface $-1 -64.16634317711862 14.468280783024426 11.440249848479368 0.80901700255871778 0 -0.5877852410284794 0.2938926205142397 0 0.40450850127935889 1 I I 0 1 0.5 forward I I I I #
face $-1 $116 $117 $38 $-1 $118 forward single #
loop $-1 $119 $120 $48 #
cone-surface $-1 -64.16634317711862 16.950451944762733 11.440249848479368 0.80901700255871778 0 -0.5877852410284794 0.2938926205142397 0 0.40450850127935889 1 I I 0 1 0.5 forward I I I I #
face $-1 $121 $122 $39 $-1 $123 forward single #
loop $-1 $124 $125 $49 #
cone-surface $-1 -64.16634317711862 19.43262310650104 11.440249848479368 0.80901700255871778 0 -0.5877852410284794 0.2938926205142397 0 0.40450850127935889 1 I I 0 1 0.5 forward I I I I #
face $-1 $126 $127 $30 $-1 $128 reversed single #
loop $-1 $-1 $129 $50 #
plane-surface $-1 0 0 15.40400023234746 0 0 1 1 0 0 forward_v I I I I #
coedge $-1 $130 $131 $132 $133 reversed $51 $-1 #
face $-1 $134 $135 $31 $-1 $136 reversed single #
loop $-1 $-1 $137 $53 #
plane-surface $-1 0 0 -15.40400023234746 0 0 1 1 0 0 forward_v I I I I #
coedge $-1 $138 $139 $140 $141 forward $54 $-1 #
face $-1 $142 $143 $32 $-1 $144 reversed single #
loop $-1 $-1 $145 $56 #
plane-surface $-1 -67.237159337137996 -7.068099259194156 8.06428470563975 -0.80901700255871778 0 0.5877852410284794 0.5877852410284794 0 0.80901700255871778 forward_v I I I I #
coedge $-1 $146 $147 $148 $149 reversed $57 $-1 #
face $-1 $-1 $150 $33 $-1 $151 forward single #
loop $-1 $152 $153 $59 #
cone-surface $-1 -63.559580425199584 -9.5502704209324669 10.999410917708008 0.80901700255871778 0 -0.5877852410284794 0.14694631025711985 0 0.20225425063967944 1 I I -0.70710678118654746 0.70710678118654746 0.25 forward I I I I #
loop $-1 $-1 $154 $43 #
coedge $-1 $96 $96 $155 $156 reversed $60 $-1 #
face $-1 $-1 $157 $34 $-1 $158 forward single #
loop $-1 $159 $160 $62 #
cone-surface $-1 -63.559580425199584 -7.068099259194156 10.999410917708008 0.80901700255871778 0 -0.5877852410284794 0.14694631025711985 0 0.20225425063967944 1 I I -0.70710678118654746 0.70710678118654746 0.25 forward I I I I #
loop $-1 $-1 $161 $44 #
coedge $-1 $101 $101 $162 $163 reversed $63 $-1 #
face $-1 $-1 $164 $35 $-1 $165 forward single #
loop $-1 $166 $167 $65 #
cone-surface $-1 -63.559580425199584 -4.5859280974558452 10.999410917708008 0.80901700255871778 0 -0.5877852410284794 0.14694631025711985 0 0.20225425063967944 1 I I -0.70710678118654746 0.70710678118654746 0.25 forward I I I I #
loop $-1 $-1 $168 $45 #
coedge $-1 $106 $106 $169 $170 reversed $66 $-1 #
face $-1 $171 $172 $36 $-1 $173 reversed single #
loop $-1 $-1 $174 $68 #
plane-surface $-1 -67.237159337137996 16.950451944762733 8.06428470563975 -0.80901700255871778 0 0.5877852410284794 0.5877852410284794 0 0.80901700255871778 forward_v I I I I #
coedge $-1 $175 $176 $177 $178 reversed $69 $-1 #
face $-1 $-1 $179 $37 $-1 $180 forward single #
loop $-1 $181 $182 $71 #
cone-surface $-1 -63.559580425199584 14.468280783024426 10.999410917708008 0.80901700255871778 0 -0.5877852410284794 0.14694631025711985 0 0.20225425063967944 1 I I -0.70710678118654746 0.70710678118654746 0.25 forward I I I I #
loop $-1 $-1 $183 $47 #
coedge $-1 $115 $115 $184 $185 reversed $72 $-1 #
face $-1 $-1 $186 $38 $-1 $187 forward single #
loop $-1 $188 $189 $74 #
cone-surface $-1 -63.559580425199584 16.950451944762733 10.999410917708008 0.80901700255871778 0 -0.5877852410284794 0.14694631025711985 0 0.20225425063967944 1 I I -0.70710678118654746 0.70710678118654746 0.25 forward I I I I #
loop $-1 $-1 $190 $48 #
coedge $-1 $120 $120 $191 $192 reversed $75 $-1 #
face $-1 $-1 $193 $39 $-1 $194 forward single #
loop $-1 $195 $196 $77 #
cone-surface $-1 -63.559580425199584 19.43262310650104 10.999410917708008 0.80901700255871778 0 -0.5877852410284794 0.14694631025711985 0 0.20225425063967944 1 I I -0.70710678118654746 0.70710678118654746 0.25 forward I I I I #
loop $-1 $-1 $197 $49 #
coedge $-1 $125 $125 $198 $199 reversed $78 $-1 #
face $-1 $200 $201 $30 $-1 $202 reversed single #
loop $-1 $-1 $203 $80 #
plane-surface $-1 0 0 -15.40400023234746 0 0 1 1 0 0 forward_v I I I I #
coedge $-1 $204 $205 $206 $207 forward $81 $-1 #
coedge $-1 $208 $83 $209 $210 reversed $51 $-1 #
coedge $-1 $83 $208 $211 $212 forward $51 $-1 #
coedge $-1 $213 $203 $83 $133 forward $127 $-1 #
edge $-1 $214 -67.237159337137967 $215 67.237159337137967 $83 $216 forward 7 unknown #
face $-1 $217 $218 $31 $-1 $219 reversed single #
loop $-1 $-1 $220 $84 #
plane-surface $-1 -44.112270524129606 -45.019068659304409 0 0 1 0 0 0 1 forward_v I I I I #
coedge $-1 $221 $222 $139 $223 forward $85 $-1 #
coedge $-1 $224 $87 $225 $226 reversed $54 $-1 #
coedge $-1 $87 $224 $137 $223 reversed $54 $-1 #
coedge $-1 $227 $228 $87 $141 reversed $218 $-1 #
edge $-1 $229 -15.40400023234746 $230 15.40400023234746 $140 $231 forward 7 unknown #
face $-1 $232 $233 $32 $-1 $234 reversed single #
loop $-1 $-1 $235 $88 #
plane-surface $-1 -176.02916955212652 -2.9311473229636391 87.106304519739581 0 -1 0 0.80901700255871778 0 -0.5877852410284794 forward_v I I I I #
coedge $-1 $236 $237 $238 $239 reversed $89 $-1 #
coedge $-1 $147 $91 $240 $241 reversed $57 $-1 #
coedge $-1 $91 $146 $236 $242 reversed $57 $-1 #
coedge $-1 $238 $243 $91 $149 forward $244 $-1 #
edge $-1 $245 20.777425438925292 $246 26.110040756405247 $148 $247 forward 7 unknown #
loop $-1 $-1 $155 $92 #
plane-surface $-1 -67.237159337137996 -7.068099259194156 8.06428470563975 -0.80901700255871778 0 0.5877852410284794 0.5877852410284794 0 0.80901700255871778 forward_v I I I I #
loop $-1 $-1 $248 $59 #
coedge $-1 $153 $153 $154 $249 reversed $93 $-1 #
coedge $-1 $154 $154 $153 $249 forward $95 $-1 #
coedge $-1 $155 $155 $96 $156 forward $150 $-1 #
edge $-1 $250 0 $250 6.2831853071796004 $155 $251 forward 7 unknown #
loop $-1 $-1 $162 $97 #
plane-surface $-1 -67.237159337137996 -7.068099259194156 8.06428470563975 -0.80901700255871778 0 0.5877852410284794 0.5877852410284794 0 0.80901700255871778 forward_v I I I I #
loop $-1 $-1 $252 $62 #
coedge $-1 $160 $160 $161 $253 reversed $98 $-1 #
coedge $-1 $161 $161 $160 $253 forward $100 $-1 #
coedge $-1 $162 $162 $101 $163 forward $157 $-1 #
edge $-1 $254 0 $254 6.2831853071796004 $162 $255 forward 7 unknown #
loop $-1 $-1 $169 $102 #
plane-surface $-1 -67.237159337137996 -7.068099259194156 8.06428470563975 -0.80901700255871778 0 0.5877852410284794 0.5877852410284794 0 0.80901700255871778 forward_v I I I I #
loop $-1 $-1 $256 $65 #
coedge $-1 $167 $167 $168 $257 reversed $103 $-1 #
coedge $-1 $168 $168 $167 $257 forward $105 $-1 #
coedge $-1 $169 $169 $106 $170 forward $164 $-1 #
edge $-1 $258 0 $258 6.2831853071796004 $169 $259 forward 7 unknown #
face $-1 $260 $261 $36 $-1 $262 forward single #
loop $-1 $-1 $263 $107 #
plane-surface $-1 -176.02916955212652 21.08740388099325 87.106304519739581 0 -1 0 0.80901700255871778 0 -0.5877852410284794 forward_v I I I I #
coedge $-1 $264 $265 $266 $267 reversed $108 $-1 #
coedge $-1 $176 $110 $268 $269 reversed $69 $-1 #
coedge $-1 $110 $175 $264 $270 reversed $69 $-1 #
coedge $-1 $266 $271 $110 $178 forward $261 $-1 #
edge $-1 $272 20.777425438925292 $273 26.110040756405247 $177 $274 forward 7 unknown #
loop $-1 $-1 $184 $111 #
plane-surface $-1 -67.237159337137996 16.950451944762733 8.06428470563975 -0.80901700255871778 0 0.5877852410284794 0.5877852410284794 0 0.80901700255871778 forward_v I I I I #
loop $-1 $-1 $275 $71 #
coedge $-1 $182 $182 $183 $276 reversed $112 $-1 #
coedge $-1 $183 $183 $182 $276 forward $114 $-1 #
coedge $-1 $184 $184 $115 $185 forward $179 $-1 #
edge $-1 $277 0 $277 6.2831853071796004 $184 $278 forward 7 unknown #
loop $-1 $-1 $191 $116 #
plane-surface $-1 -67.237159337137996 16.950451944762733 8.06428470563975 -0.80901700255871778 0 0.5877852410284794 0.5877852410284794 0 0.80901700255871778 forward_v I I I I #
loop $-1 $-1 $279 $74 #
coedge $-1 $189 $189 $190 $280 reversed $117 $-1 #
coedge $-1 $190 $190 $189 $280 forward $119 $-1 #
coedge $-1 $191 $191 $120 $192 forward $186 $-1 #
edge $-1 $281 0 $281 6.2831853071796004 $191 $282 forward 7 unknown #
loop $-1 $-1 $198 $121 #
plane-surface $-1 -67.237159337137996 16.950451944762733 8.06428470563975 -0.80901700255871778 0 0.5877852410284794 0.5877852410284794 0 0.80901700255871778 forward_v I I I I #
loop $-1 $-1 $283 $77 #
coedge $-1 $196 $196 $197 $284 reversed $122 $-1 #
coedge $-1 $197 $197 $196 $284 forward $124 $-1 #
coedge $-1 $198 $198 $125 $199 forward $193 $-1 #
edge $-1 $285 0 $285 6.2831853071796004 $198 $286 forward 7 unknown #
face $-1 $287 $288 $30 $-1 $289 reversed single #
loop $-1 $-1 $290 $126 #
plane-surface $-1 -67.237159337137967 0 0 1 0 0 0 0 -1 forward_v I I I I #
coedge $-1 $132 $291 $292 $293 forward $127 $-1 #
coedge $-1 $294 $129 $295 $296 forward $81 $-1 #
coedge $-1 $129 $294 $208 $297 forward $81 $-1 #
coedge $-1 $209 $298 $129 $207 reversed $299 $-1 #
edge $-1 $300 -31.018723689072729 $301 31.018723689072729 $206 $302 forward 7 unknown #
coedge $-1 $131 $130 $205 $297 reversed $51 $-1 #
coedge $-1 $292 $206 $130 $210 forward $299 $-1 #
edge $-1 $300 -15.40400023234746 $214 15.40400023234746 $209 $303 forward 7 unknown #
coedge $-1 $304 $305 $131 $212 reversed $201 $-1 #
edge $-1 $306 -15.40400023234746 $215 15.40400023234746 $211 $307 forward 7 unknown #
coedge $-1 $291 $132 $305 $308 forward $127 $-1 #
vertex $-1 $210 $309 #
vertex $-1 $308 $310 #
straight-curve $-1 0 -31.018723689072729 -15.40400023234746 -1 0 0 I I #
face $-1 $311 $312 $31 $-1 $313 reversed single #
loop $-1 $-1 $140 $134 #
plane-surface $-1 -48.104373236403276 -38.018896174188569 0 1 0 0 0 0 -1 forward_v I I I I #
coedge $-1 $314 $315 $316 $317 forward $135 $-1 #
coedge $-1 $318 $137 $319 $320 forward $85 $-1 #
coedge $-1 $137 $318 $227 $321 forward $85 $-1 #
edge $-1 $229 -48.104373236403276 $322 -40.120167811855936 $137 $323 forward 7 unknown #
coedge $-1 $139 $138 $324 $325 forward $54 $-1 #
coedge $-1 $326 $327 $138 $226 forward $328 $-1 #
edge $-1 $329 40.120167811855936 $230 48.104373236403276 $225 $330 forward 7 unknown #
coedge $-1 $316 $140 $222 $321 reversed $218 $-1 #
coedge $-1 $140 $316 $326 $331 reversed $218 $-1 #
vertex $-1 $223 $332 #
vertex $-1 $331 $333 #
straight-curve $-1 -48.104373236403276 -31.018723689072729 0 0 0 1 I I #
face $-1 $-1 $244 $32 $-1 $334 forward single #
loop $-1 $-1 $335 $142 #
plane-surface $-1 -67.237159337137967 0 0 1 0 0 0 0 -1 forward_v I I I I #
coedge $-1 $336 $337 $338 $339 reversed $143 $-1 #
coedge $-1 $340 $145 $147 $242 forward $89 $-1 #
coedge $-1 $145 $340 $336 $341 forward $89 $-1 #
coedge $-1 $338 $148 $145 $239 forward $244 $-1 #
edge $-1 $246 -7.671001565827595 $342 0.60290230663343891 $238 $343 forward 7 unknown #
coedge $-1 $344 $345 $146 $241 forward $233 $-1 #
edge $-1 $346 -35.488867554229998 $245 -28.14915202752233 $240 $347 forward 7 unknown #
edge $-1 $246 -9.072387234747886 $346 -4.8322124813089328e-014 $147 $348 forward 7 unknown #
coedge $-1 $148 $338 $344 $349 forward $244 $-1 #
loop $-1 $-1 $338 $232 #
vertex $-1 $241 $350 #
vertex $-1 $149 $351 #
straight-curve $-1 -88.014584776063259 -11.205051195424673 15.404000232347464 1 0 0 I I #
coedge $-1 $248 $248 $-1 $352 reversed $152 $-1 #
edge $-1 $353 0 $353 6.2831853071796004 $153 $354 forward 7 unknown #
vertex $-1 $156 $355 #
ellipse-curve $-1 -64.570851678397986 -9.5502704209324669 11.734142468993618 -0.80901700255871778 0 0.5877852410284794 0.2938926205142397 0 0.40450850127935889 1 I I #
coedge $-1 $252 $252 $-1 $356 reversed $159 $-1 #
edge $-1 $357 0 $357 6.2831853071796004 $160 $358 forward 7 unknown #
vertex $-1 $163 $359 #
ellipse-curve $-1 -64.570851678397986 -7.068099259194156 11.734142468993618 -0.80901700255871778 0 0.5877852410284794 0.2938926205142397 0 0.40450850127935889 1 I I #
coedge $-1 $256 $256 $-1 $360 reversed $166 $-1 #
edge $-1 $361 0 $361 6.2831853071796004 $167 $362 forward 7 unknown #
vertex $-1 $170 $363 #
ellipse-curve $-1 -64.570851678397986 -4.5859280974558452 11.734142468993618 -0.80901700255871778 0 0.5877852410284794 0.2938926205142397 0 0.40450850127935889 1 I I #
face $-1 $-1 $364 $36 $-1 $365 reversed single #
loop $-1 $-1 $177 $171 #
plane-surface $-1 0 0 15.40400023234746 0 0 1 1 0 0 forward_v I I I I #
coedge $-1 $366 $367 $368 $369 reversed $172 $-1 #
coedge $-1 $370 $174 $176 $270 forward $108 $-1 #
coedge $-1 $174 $370 $366 $371 forward $108 $-1 #
coedge $-1 $368 $177 $174 $267 forward $261 $-1 #
edge $-1 $273 4.3382740361508496 $372 12.612177908611883 $266 $373 forward 7 unknown #
coedge $-1 $374 $375 $175 $269 forward $364 $-1 #
edge $-1 $376 -35.488867554229998 $272 -28.14915202752233 $268 $377 forward 7 unknown #
edge $-1 $273 -9.072387234747886 $376 -4.8322124813089328e-014 $176 $378 forward 7 unknown #
coedge $-1 $177 $368 $374 $379 forward $261 $-1 #
vertex $-1 $178 $380 #
vertex $-1 $178 $381 #
straight-curve $-1 -88.014584776063259 12.813500008532216 15.404000232347464 1 0 0 I I #
coedge $-1 $275 $275 $-1 $382 reversed $181 $-1 #
edge $-1 $383 0 $383 6.2831853071796004 $182 $384 forward 7 unknown #
vertex $-1 $185 $385 #
ellipse-curve $-1 -64.570851678397986 14.468280783024426 11.734142468993618 -0.80901700255871778 0 0.5877852410284794 0.2938926205142397 0 0.40450850127935889 1 I I #
coedge $-1 $279 $279 $-1 $386 reversed $188 $-1 #
edge $-1 $387 0 $387 6.2831853071796004 $189 $388 forward 7 unknown #
vertex $-1 $192 $389 #
ellipse-curve $-1 -64.570851678397986 16.950451944762733 11.734142468993618 -0.80901700255871778 0 0.5877852410284794 0.2938926205142397 0 0.40450850127935889 1 I I #
coedge $-1 $283 $283 $-1 $390 reversed $195 $-1 #
edge $-1 $391 0 $391 6.2831853071796004 $196 $392 forward 7 unknown #
vertex $-1 $199 $393 #
ellipse-curve $-1 -64.570851678397986 19.43262310650104 11.734142468993618 -0.80901700255871778 0 0.5877852410284794 0.2938926205142397 0 0.40450850127935889 1 I I #
face $-1 $-1 $299 $30 $-1 $394 reversed single #
loop $-1 $-1 $395 $200 #
plane-surface $-1 0 31.018723689072729 0 0 -1 0 0 0 -1 forward_v I I I I #
coedge $-1 $305 $304 $396 $397 forward $201 $-1 #
coedge $-1 $203 $213 $398 $399 forward $127 $-1 #
coedge $-1 $298 $209 $203 $293 reversed $299 $-1 #
edge $-1 $400 -31.018723689072729 $214 31.018723689072729 $292 $401 forward 7 unknown #
coedge $-1 $205 $204 $304 $402 forward $81 $-1 #
coedge $-1 $395 $396 $204 $296 reversed $288 $-1 #
edge $-1 $301 -67.237159337137967 $403 67.237159337137967 $295 $404 forward 7 unknown #
edge $-1 $306 -67.237159337137967 $300 67.237159337137967 $208 $405 forward 7 unknown #
coedge $-1 $206 $292 $395 $406 reversed $299 $-1 #
loop $-1 $-1 $209 $287 #
vertex $-1 $207 $407 #
vertex $-1 $207 $408 #
straight-curve $-1 67.237159337137967 0 15.40400023234746 0 1 0 I I #
straight-curve $-1 67.237159337137967 -31.018723689072729 0 0 0 -1 I I #
coedge $-1 $290 $211 $294 $402 reversed $201 $-1 #
coedge $-1 $211 $290 $213 $308 reversed $201 $-1 #
vertex $-1 $402 $409 #
straight-curve $-1 -67.237159337137967 -31.018723689072729 0 0 0 -1 I I #
edge $-1 $215 -31.018723689072729 $410 31.018723689072729 $305 $411 forward 7 unknown #
point $-1 67.237159337137967 -31.018723689072729 -15.40400023234746 #
point $-1 -67.237159337137967 -31.018723689072729 -15.40400023234746 #
face $-1 $-1 $328 $31 $-1 $412 forward single #
loop $-1 $-1 $413 $217 #
plane-surface $-1 -40.120167811855936 -38.018896174188569 0 -1 0 0 0 0 1 forward_v I I I I #
coedge $-1 $414 $220 $318 $415 reversed $135 $-1 #
coedge $-1 $220 $414 $416 $417 reversed $135 $-1 #
coedge $-1 $228 $227 $220 $317 reversed $218 $-1 #
edge $-1 $418 -15.40400023234746 $419 15.40400023234746 $316 $420 forward 7 unknown #
coedge $-1 $222 $221 $314 $415 forward $85 $-1 #
coedge $-1 $324 $413 $221 $320 reversed $312 $-1 #
edge $-1 $322 -7.00017248511584 $421 7.00017248511584 $319 $422 forward 7 unknown #
edge $-1 $419 -7.00017248511584 $229 7.00017248511584 $227 $423 forward 7 unknown #
vertex $-1 $320 $424 #
straight-curve $-1 0 -31.018723689072729 -15.40400023234746 1 0 0 I I #
coedge $-1 $425 $319 $224 $325 reversed $312 $-1 #
edge $-1 $329 -15.40400023234746 $322 15.40400023234746 $324 $426 forward 7 unknown #
coedge $-1 $416 $225 $228 $331 forward $328 $-1 #
coedge $-1 $225 $416 $425 $427 forward $328 $-1 #
loop $-1 $-1 $225 $311 #
vertex $-1 $226 $428 #
straight-curve $-1 0 -31.018723689072729 15.40400023234746 -1 0 0 I I #
edge $-1 $230 -7.00017248511584 $418 7.00017248511584 $228 $429 forward 7 unknown #
point $-1 -48.104373236403276 -31.018723689072729 -15.40400023234746 #
point $-1 -48.104373236403276 -31.018723689072729 15.40400023234746 #
plane-surface $-1 0 0 15.40400023234746 0 0 1 1 0 0 forward_v I I I I #
coedge $-1 $345 $344 $337 $430 forward $233 $-1 #
coedge $-1 $337 $235 $237 $341 reversed $143 $-1 #
coedge $-1 $235 $336 $335 $430 reversed $143 $-1 #
coedge $-1 $243 $238 $235 $339 forward $244 $-1 #
edge $-1 $342 -26.110040756405247 $431 -20.777425438925292 $338 $432 forward 7 unknown #
coedge $-1 $237 $236 $345 $433 reversed $89 $-1 #
edge $-1 $434 4.8322124813089328e-014 $342 9.072387234747886 $336 $435 forward 7 unknown #
vertex $-1 $239 $436 #
straight-curve $-1 -61.904544019658005 -3.534049629597078 15.404000232347462 0 1 0 I I #
coedge $-1 $335 $240 $243 $349 reversed $233 $-1 #
coedge $-1 $240 $335 $340 $433 forward $233 $-1 #
vertex $-1 $241 $437 #
straight-curve $-1 -67.237159337137967 -11.205051195424673 43.55315225986979 0 0 1 I I #
straight-curve $-1 -67.237159337137996 -11.205051195424673 8.06428470563975 -0.5877852410284794 0 -0.80901700255871778 I I #
edge $-1 $431 2.9311473229636391 $245 11.205051195424673 $344 $438 forward 7 unknown #
point $-1 -67.237159337137967 -11.205051195424673 15.40400023234746 #
point $-1 -61.904544019658012 -11.205051195424673 15.40400023234746 #
edge $-1 $439 1 $439 0 $248 $-1 forward 7 unknown #
vertex $-1 $249 $440 #
ellipse-curve $-1 -63.76183467583926 -9.5502704209324669 11.146357227965128 -0.80901700255871778 0 0.5877852410284794 0.2938926205142397 0 0.40450850127935889 1 I I #
point $-1 -64.276959057883744 -9.5502704209324669 12.138650970272966 #
edge $-1 $441 1 $441 0 $252 $-1 forward 7 unknown #
vertex $-1 $253 $442 #
ellipse-curve $-1 -63.76183467583926 -7.068099259194156 11.146357227965128 -0.80901700255871778 0 0.5877852410284794 0.2938926205142397 0 0.40450850127935889 1 I I #
point $-1 -64.276959057883744 -7.068099259194156 12.138650970272966 #
edge $-1 $443 1 $443 0 $256 $-1 forward 7 unknown #
vertex $-1 $257 $444 #
ellipse-curve $-1 -63.76183467583926 -4.5859280974558452 11.146357227965128 -0.80901700255871778 0 0.5877852410284794 0.2938926205142397 0 0.40450850127935889 1 I I #
point $-1 -64.276959057883744 -4.5859280974558452 12.138650970272966 #
loop $-1 $-1 $268 $260 #
plane-surface $-1 -67.237159337137967 0 0 1 0 0 0 0 -1 forward_v I I I I #
coedge $-1 $367 $263 $265 $371 reversed $172 $-1 #
coedge $-1 $263 $366 $445 $446 reversed $172 $-1 #
coedge $-1 $271 $266 $263 $369 forward $261 $-1 #
edge $-1 $372 -26.110040756405247 $447 -20.777425438925292 $368 $448 forward 7 unknown #
coedge $-1 $265 $264 $375 $449 reversed $108 $-1 #
edge $-1 $450 4.8322124813089328e-014 $372 9.072387234747886 $366 $451 forward 7 unknown #
vertex $-1 $267 $452 #
straight-curve $-1 -61.904544019658005 8.4752259723813665 15.404000232347462 0 1 0 I I #
coedge $-1 $445 $268 $271 $379 reversed $364 $-1 #
coedge $-1 $268 $445 $370 $449 forward $364 $-1 #
vertex $-1 $269 $453 #
straight-curve $-1 -67.237159337137967 12.813500008532216 43.55315225986979 0 0 1 I I #
straight-curve $-1 -67.237159337137996 12.813500008532216 8.06428470563975 -0.5877852410284794 0 -0.80901700255871778 I I #
edge $-1 $447 -21.08740388099325 $272 -12.813500008532216 $374 $454 forward 7 unknown #
point $-1 -67.237159337137967 12.813500008532216 15.40400023234746 #
point $-1 -61.904544019658012 12.813500008532216 15.40400023234746 #
edge $-1 $455 1 $455 0 $275 $-1 forward 7 unknown #
vertex $-1 $276 $456 #
ellipse-curve $-1 -63.76183467583926 14.468280783024426 11.146357227965128 -0.80901700255871778 0 0.5877852410284794 0.2938926205142397 0 0.40450850127935889 1 I I #
point $-1 -64.276959057883744 14.468280783024426 12.138650970272966 #
edge $-1 $457 1 $457 0 $279 $-1 forward 7 unknown #
vertex $-1 $280 $458 #
ellipse-curve $-1 -63.76183467583926 16.950451944762733 11.146357227965128 -0.80901700255871778 0 0.5877852410284794 0.2938926205142397 0 0.40450850127935889 1 I I #
point $-1 -64.276959057883744 16.950451944762733 12.138650970272966 #
edge $-1 $459 1 $459 0 $283 $-1 forward 7 unknown #
vertex $-1 $284 $460 #
ellipse-curve $-1 -63.76183467583926 19.43262310650104 11.146357227965128 -0.80901700255871778 0 0.5877852410284794 0.2938926205142397 0 0.40450850127935889 1 I I #
point $-1 -64.276959057883744 19.43262310650104 12.138650970272966 #
plane-surface $-1 67.237159337137967 0 0 -1 0 0 0 0 1 forward_v I I I I #
coedge $-1 $398 $295 $298 $406 forward $288 $-1 #
coedge $-1 $295 $398 $290 $397 reversed $288 $-1 #
edge $-1 $403 -15.40400023234746 $410 15.40400023234746 $396 $461 forward 7 unknown #
coedge $-1 $396 $395 $291 $399 reversed $288 $-1 #
edge $-1 $410 -67.237159337137967 $400 67.237159337137967 $398 $462 forward 7 unknown #
vertex $-1 $293 $463 #
straight-curve $-1 67.237159337137967 0 -15.40400023234746 0 -1 0 I I #
edge $-1 $403 -31.018723689072729 $306 31.018723689072729 $304 $464 forward 7 unknown #
vertex $-1 $296 $465 #
straight-curve $-1 0 31.018723689072729 15.40400023234746 -1 0 0 I I #
straight-curve $-1 0 -31.018723689072729 15.40400023234746 1 0 0 I I #
edge $-1 $301 -15.40400023234746 $400 15.40400023234746 $298 $466 forward 7 unknown #
point $-1 67.237159337137967 -31.018723689072729 15.40400023234746 #
point $-1 67.237159337137967 31.018723689072729 15.40400023234746 #
point $-1 -67.237159337137967 -31.018723689072729 15.40400023234746 #
vertex $-1 $399 $467 #
straight-curve $-1 -67.237159337137967 0 -15.40400023234746 0 1 0 I I #
plane-surface $-1 0 0 15.40400023234746 0 0 1 1 0 0 forward_v I I I I #
coedge $-1 $319 $425 $414 $468 forward $312 $-1 #
coedge $-1 $315 $314 $413 $468 reversed $135 $-1 #
edge $-1 $421 -3.9921027122736703 $419 3.9921027122736703 $314 $469 forward 7 unknown #
coedge $-1 $327 $326 $315 $417 forward $328 $-1 #
edge $-1 $418 -3.9921027122736703 $470 3.9921027122736703 $315 $471 forward 7 unknown #
vertex $-1 $331 $472 #
vertex $-1 $321 $473 #
straight-curve $-1 -48.104373236403276 -45.019068659304409 0 0 0 -1 I I #
vertex $-1 $468 $474 #
straight-curve $-1 -40.120167811855936 -38.018896174188569 -15.40400023234746 0 -1 0 I I #
straight-curve $-1 -48.104373236403276 -38.018896174188569 -15.40400023234746 0 1 0 I I #
point $-1 -40.120167811855936 -31.018723689072729 -15.40400023234746 #
coedge $-1 $413 $324 $327 $427 reversed $312 $-1 #
straight-curve $-1 -40.120167811855936 -31.018723689072729 0 0 0 -1 I I #
edge $-1 $470 -7.00017248511584 $329 7.00017248511584 $425 $475 forward 7 unknown #
point $-1 -40.120167811855936 -31.018723689072729 15.40400023234746 #
straight-curve $-1 -48.104373236403276 -38.018896174188569 15.40400023234746 0 -1 0 I I #
edge $-1 $431 28.14915202752233 $434 35.488867554229998 $335 $476 forward 7 unknown #
vertex $-1 $349 $477 #
straight-curve $-1 -88.014584776063259 -2.9311473229636391 15.404000232347464 -1 0 0 I I #
edge $-1 $434 -0.60290230663343891 $346 7.671001565827595 $345 $478 forward 7 unknown #
vertex $-1 $433 $479 #
straight-curve $-1 -67.237159337137996 -2.9311473229636391 8.06428470563975 0.5877852410284794 0 0.80901700255871778 I I #
point $-1 -61.904544019658012 -2.9311473229636391 15.40400023234746 #
point $-1 -67.237159337137967 -11.205051195424673 8.0642847056397891 #
straight-curve $-1 -67.237159337137967 0 15.40400023234746 0 -1 0 I I #
vertex $-1 $352 $480 #
point $-1 -63.467942055325025 -9.5502704209324669 11.550865729244487 #
vertex $-1 $356 $481 #
point $-1 -63.467942055325025 -7.068099259194156 11.550865729244487 #
vertex $-1 $360 $482 #
point $-1 -63.467942055325025 -4.5859280974558452 11.550865729244487 #
coedge $-1 $375 $374 $367 $446 forward $364 $-1 #
edge $-1 $447 28.14915202752233 $450 35.488867554229998 $445 $483 forward 7 unknown #
vertex $-1 $379 $484 #
straight-curve $-1 -88.014584776063259 21.08740388099325 15.404000232347464 -1 0 0 I I #
edge $-1 $450 -12.612177908611883 $376 -4.3382740361508496 $375 $485 forward 7 unknown #
vertex $-1 $449 $486 #
straight-curve $-1 -67.237159337137996 21.08740388099325 8.06428470563975 0.5877852410284794 0 0.80901700255871778 I I #
point $-1 -61.904544019658012 21.08740388099325 15.40400023234746 #
point $-1 -67.237159337137967 12.813500008532216 8.0642847056397891 #
straight-curve $-1 -67.237159337137967 0 15.40400023234746 0 -1 0 I I #
vertex $-1 $382 $487 #
point $-1 -63.467942055325025 14.468280783024426 11.550865729244487 #
vertex $-1 $386 $488 #
point $-1 -63.467942055325025 16.950451944762733 11.550865729244487 #
vertex $-1 $390 $489 #
point $-1 -63.467942055325025 19.43262310650104 11.550865729244487 #
straight-curve $-1 -67.237159337137967 31.018723689072729 0 0 0 -1 I I #
straight-curve $-1 0 31.018723689072729 -15.40400023234746 1 0 0 I I #
point $-1 67.237159337137967 31.018723689072729 -15.40400023234746 #
straight-curve $-1 -67.237159337137967 0 15.40400023234746 0 -1 0 I I #
point $-1 -67.237159337137967 31.018723689072729 15.40400023234746 #
straight-curve $-1 67.237159337137967 31.018723689072729 0 0 0 -1 I I #
point $-1 -67.237159337137967 31.018723689072729 -15.40400023234746 #
edge $-1 $470 -15.40400023234746 $421 15.40400023234746 $413 $490 forward 7 unknown #
straight-curve $-1 -44.112270524129606 -45.019068659304409 -15.40400023234746 -1 0 0 I I #
vertex $-1 $427 $491 #
straight-curve $-1 -44.112270524129606 -45.019068659304409 15.40400023234746 1 0 0 I I #
point $-1 -48.104373236403276 -45.019068659304409 15.40400023234746 #
point $-1 -48.104373236403276 -45.019068659304409 -15.40400023234746 #
point $-1 -40.120167811855936 -45.019068659304409 -15.40400023234746 #
straight-curve $-1 -40.120167811855936 -38.018896174188569 15.40400023234746 0 1 0 I I #
straight-curve $-1 -67.237159337137967 -2.9311473229636391 43.55315225986979 0 0 -1 I I #
point $-1 -67.237159337137967 -2.9311473229636391 15.40400023234746 #
straight-curve $-1 -67.237159337137967 -3.534049629597078 8.0642847056397802 0 -1 0 I I #
point $-1 -67.237159337137967 -2.9311473229636391 8.0642847056397891 #
point $-1 -63.357326174559908 -9.5502704209324669 10.852464607450889 #
point $-1 -63.357326174559908 -7.068099259194156 10.852464607450889 #
point $-1 -63.357326174559908 -4.5859280974558452 10.852464607450889 #
straight-curve $-1 -67.237159337137967 21.08740388099325 43.55315225986979 0 0 -1 I I #
point $-1 -67.237159337137967 21.08740388099325 15.40400023234746 #
straight-curve $-1 -67.237159337137967 8.4752259723813665 8.0642847056397802 0 -1 0 I I #
point $-1 -67.237159337137967 21.08740388099325 8.0642847056397891 #
point $-1 -63.357326174559908 14.468280783024426 10.852464607450889 #
point $-1 -63.357326174559908 16.950451944762733 10.852464607450889 #
point $-1 -63.357326174559908 19.43262310650104 10.852464607450889 #
straight-curve $-1 -40.120167811855936 -45.019068659304409 0 0 0 -1 I I #
point $-1 -40.120167811855936 -45.019068659304409 15.40400023234746 #
End-of-ACIS-data 