500 0 6 0           
7 Unknown 11 ACIS 5.0 NT 24 Fri Mar 26 17:33:35 1999 
-1 9.9999999999999995e-007 1e-010 
body $-1 $6 $-1 $7 #
body $-1 $8 $-1 $9 #
body $-1 $10 $-1 $11 #
body $-1 $12 $-1 $13 #
body $-1 $14 $-1 $15 #
body $-1 $16 $-1 $17 #
lump $-1 $-1 $18 $0 #
transform $-1 1 0 0 0 1 0 0 0 1 42.509842219306009 27.480841481076983 8.7815910818830183 1 rotate no_reflect no_shear #
lump $-1 $-1 $19 $1 #
transform $-1 1 0 0 0 1 0 0 0 1 42.509842219306009 27.480841481076983 8.7815910818830183 1 rotate no_reflect no_shear #
lump $-1 $-1 $20 $2 #
transform $-1 1 0 0 0 1 0 0 0 1 42.509842219306009 27.480841481076983 8.7815910818830183 1 rotate no_reflect no_shear #
lump $-1 $-1 $21 $3 #
transform $-1 1 0 0 0 1 0 0 0 1 42.509842219306009 27.480841481076983 8.7815910818830183 1 rotate no_reflect no_shear #
lump $-1 $-1 $22 $4 #
transform $-1 1 0 0 0 1 0 0 0 1 42.509842219306009 27.480841481076983 8.7815910818830183 1 rotate no_reflect no_shear #
lump $-1 $-1 $23 $5 #
transform $-1 1 0 0 0 1 0 0 0 1 42.509842219306009 27.480841481076983 8.7815910818830183 1 rotate no_reflect no_shear #
shell $-1 $-1 $-1 $24 $-1 $6 #
shell $-1 $-1 $-1 $25 $-1 $8 #
shell $-1 $-1 $-1 $26 $-1 $10 #
shell $-1 $-1 $-1 $27 $-1 $12 #
shell $-1 $-1 $-1 $28 $-1 $14 #
shell $-1 $-1 $-1 $29 $-1 $16 #
face $-1 $30 $31 $18 $-1 $32 forward single #
face $-1 $33 $34 $19 $-1 $35 forward single #
face $-1 $36 $37 $20 $-1 $38 reversed single #
face $-1 $39 $40 $21 $-1 $41 forward single #
face $-1 $42 $43 $22 $-1 $44 reversed single #
face $-1 $45 $46 $23 $-1 $47 forward single #
face $-1 $48 $49 $18 $-1 $50 reversed single #
loop $-1 $-1 $51 $24 #
plane-surface $-1 0 0 8.7815910818830183 0 0 1 1 0 0 forward_v I I I I #
face $-1 $52 $53 $19 $-1 $54 reversed single #
loop $-1 $-1 $55 $25 #
plane-surface $-1 0 -27.480841481076983 0 0 1 0 0 0 1 forward_v I I I I #
face $-1 $56 $57 $20 $-1 $58 reversed single #
loop $-1 $-1 $59 $26 #
plane-surface $-1 -90.052247030593605 8.1381500756823719 75.910565703920298 0 1 0 -0.55919291073839883 0 0.82903756765294845 forward_v I I I I #
face $-1 $60 $61 $21 $-1 $62 forward single #
loop $-1 $63 $64 $27 #
cone-surface $-1 -39.371210657205403 14.096794255518542 6.1383237362176386 0.55919291073839883 0 -0.82903756765294845 0.82903756765294845 0 0.55919291073839883 1 I I 0 1 1 forward I I I I #
face $-1 $65 $66 $22 $-1 $67 reversed single #
loop $-1 $-1 $68 $28 #
plane-surface $-1 19.567734640985471 20.055438435354713 123.45297051520791 0 -1 0 -0.55919291073839883 0 -0.82903756765294845 forward_v I I I I #
face $-1 $69 $70 $23 $-1 $71 forward single #
loop $-1 $72 $73 $29 #
cone-surface $-1 39.371210657205403 14.096794255518542 6.1383237362176297 -0.55919291073839883 0 -0.82903756765294845 0.82903756765294845 0 -0.55919291073839883 1 I I 0 1 1 forward I I I I #
face $-1 $74 $75 $18 $-1 $76 reversed single #
loop $-1 $-1 $77 $30 #
plane-surface $-1 0 0 -8.7815910818830183 0 0 1 1 0 0 forward_v I I I I #
coedge $-1 $78 $79 $80 $81 forward $31 $-1 #
face $-1 $82 $83 $19 $-1 $84 forward single #
loop $-1 $-1 $85 $33 #
plane-surface $-1 -42.509842219306009 0 0 1 0 0 0 0 -1 forward_v I I I I #
coedge $-1 $86 $87 $88 $89 forward $34 $-1 #
face $-1 $90 $91 $20 $-1 $92 reversed single #
loop $-1 $-1 $93 $36 #
plane-surface $-1 -42.509842219306002 14.096794255518542 5.4260533143121563 -0.55919291073839883 0 0.82903756765294845 0.82903756765294845 0 0.55919291073839883 forward_v I I I I #
coedge $-1 $94 $95 $96 $97 reversed $37 $-1 #
face $-1 $-1 $98 $21 $-1 $99 forward single #
loop $-1 $100 $101 $39 #
cone-surface $-1 -38.440377253985233 14.096794255518542 4.7583064905112149 0.55919291073839883 0 -0.82903756765294845 0.41451878382647422 0 0.27959645536919941 1 I I -0.70710678118654746 0.70710678118654746 0.5 forward I I I I #
loop $-1 $-1 $102 $27 #
coedge $-1 $64 $64 $103 $104 reversed $40 $-1 #
face $-1 $105 $106 $22 $-1 $107 reversed single #
loop $-1 $-1 $108 $42 #
plane-surface $-1 -27.974670170302133 14.096794255518542 52.968458125599767 0.55919291073839883 0 0.82903756765294845 0.82903756765294845 0 -0.55919291073839883 forward_v I I I I #
coedge $-1 $109 $110 $111 $112 reversed $43 $-1 #
face $-1 $-1 $113 $23 $-1 $114 forward single #
loop $-1 $115 $116 $45 #
cone-surface $-1 38.440377253985233 14.096794255518542 4.758306490511206 -0.55919291073839883 0 -0.82903756765294845 0.41451878382647422 0 -0.27959645536919941 1 I I -0.70710678118654746 0.70710678118654746 0.5 forward I I I I #
loop $-1 $-1 $117 $29 #
coedge $-1 $73 $73 $118 $119 reversed $46 $-1 #
face $-1 $120 $121 $18 $-1 $122 reversed single #
loop $-1 $-1 $123 $48 #
plane-surface $-1 0 -27.480841481076983 0 0 1 0 0 0 1 forward_v I I I I #
coedge $-1 $124 $125 $126 $127 forward $49 $-1 #
coedge $-1 $128 $51 $129 $130 forward $31 $-1 #
coedge $-1 $51 $128 $131 $132 forward $31 $-1 #
coedge $-1 $133 $134 $51 $81 reversed $135 $-1 #
edge $-1 $136 -27.480841481076983 $137 27.480841481076983 $80 $138 forward 7 unknown #
face $-1 $139 $140 $19 $-1 $141 reversed single #
loop $-1 $-1 $142 $52 #
plane-surface $-1 0 -30.735269602304843 -3.067246221452788 0 0 1 1 0 0 forward_v I I I I #
coedge $-1 $143 $144 $87 $145 forward $53 $-1 #
coedge $-1 $146 $55 $147 $148 reversed $34 $-1 #
coedge $-1 $55 $146 $85 $145 reversed $34 $-1 #
coedge $-1 $149 $142 $55 $89 reversed $83 $-1 #
edge $-1 $150 -42.509842219306009 $151 42.509842219306009 $88 $152 forward 7 unknown #
face $-1 $153 $154 $20 $-1 $155 forward single #
loop $-1 $-1 $156 $56 #
plane-surface $-1 -90.052247030593605 20.055438435354713 75.910565703920298 0 -1 0 0.55919291073839883 0 -0.82903756765294845 forward_v I I I I #
coedge $-1 $157 $158 $159 $160 reversed $57 $-1 #
coedge $-1 $95 $59 $161 $162 reversed $37 $-1 #
coedge $-1 $59 $94 $157 $163 reversed $37 $-1 #
coedge $-1 $159 $164 $59 $97 forward $154 $-1 #
edge $-1 $165 2.5162812959907939 $166 7.491070524490091 $96 $167 forward 7 unknown #
loop $-1 $-1 $103 $60 #
plane-surface $-1 -42.509842219306002 14.096794255518542 5.4260533143121563 -0.55919291073839883 0 0.82903756765294845 0.82903756765294845 0 0.55919291073839883 forward_v I I I I #
loop $-1 $-1 $168 $39 #
coedge $-1 $101 $101 $102 $169 reversed $61 $-1 #
coedge $-1 $102 $102 $101 $169 forward $63 $-1 #
coedge $-1 $103 $103 $64 $104 forward $98 $-1 #
edge $-1 $170 0 $170 6.2831853071796004 $103 $171 forward 7 unknown #
face $-1 $172 $173 $22 $-1 $174 reversed single #
loop $-1 $-1 $175 $65 #
plane-surface $-1 19.567734640985471 8.1381500756823719 123.45297051520791 0 1 0 0.55919291073839883 0 0.82903756765294845 forward_v I I I I #
coedge $-1 $176 $177 $178 $179 reversed $66 $-1 #
coedge $-1 $110 $68 $180 $181 reversed $43 $-1 #
coedge $-1 $68 $109 $176 $182 reversed $43 $-1 #
coedge $-1 $178 $183 $68 $112 forward $184 $-1 #
edge $-1 $185 -32.725974898813277 $186 -27.751185670313983 $111 $187 forward 7 unknown #
loop $-1 $-1 $118 $69 #
plane-surface $-1 -27.974670170302133 14.096794255518542 52.968458125599767 0.55919291073839883 0 0.82903756765294845 0.82903756765294845 0 -0.55919291073839883 forward_v I I I I #
loop $-1 $-1 $188 $45 #
coedge $-1 $116 $116 $117 $189 reversed $70 $-1 #
coedge $-1 $117 $117 $116 $189 forward $72 $-1 #
coedge $-1 $118 $118 $73 $119 forward $113 $-1 #
edge $-1 $190 0 $190 6.2831853071796004 $118 $191 forward 7 unknown #
face $-1 $192 $193 $18 $-1 $194 reversed single #
loop $-1 $-1 $195 $74 #
plane-surface $-1 -42.509842219306009 0 0 1 0 0 0 0 -1 forward_v I I I I #
coedge $-1 $196 $131 $197 $198 forward $75 $-1 #
coedge $-1 $199 $77 $196 $200 forward $49 $-1 #
coedge $-1 $77 $199 $201 $202 forward $49 $-1 #
coedge $-1 $134 $133 $77 $127 reversed $135 $-1 #
edge $-1 $203 -27.480841481076983 $204 27.480841481076983 $126 $205 forward 7 unknown #
coedge $-1 $79 $78 $206 $207 forward $31 $-1 #
coedge $-1 $208 $209 $78 $130 reversed $193 $-1 #
edge $-1 $137 -42.509842219306009 $210 42.509842219306009 $129 $211 forward 7 unknown #
coedge $-1 $123 $212 $79 $132 reversed $75 $-1 #
edge $-1 $213 -42.509842219306009 $136 42.509842219306009 $131 $214 forward 7 unknown #
coedge $-1 $126 $80 $212 $215 forward $135 $-1 #
coedge $-1 $80 $126 $208 $216 reversed $135 $-1 #
loop $-1 $-1 $133 $192 #
vertex $-1 $81 $217 #
vertex $-1 $81 $218 #
straight-curve $-1 42.509842219306009 0 8.7815910818830183 0 1 0 I I #
face $-1 $219 $220 $19 $-1 $221 reversed single #
loop $-1 $-1 $222 $82 #
plane-surface $-1 0 -30.735269602304843 -6.3785066497220058 0 0 1 1 0 0 forward_v I I I I #
coedge $-1 $88 $223 $224 $225 forward $83 $-1 #
coedge $-1 $226 $85 $227 $228 reversed $53 $-1 #
coedge $-1 $85 $226 $149 $229 reversed $53 $-1 #
edge $-1 $150 3.067246221452788 $230 6.3785066497220058 $85 $231 forward 7 unknown #
coedge $-1 $87 $86 $232 $233 forward $34 $-1 #
coedge $-1 $224 $234 $86 $148 forward $235 $-1 #
edge $-1 $236 -6.3785066497220058 $151 -3.067246221452788 $147 $237 forward 7 unknown #
coedge $-1 $223 $88 $144 $229 forward $83 $-1 #
vertex $-1 $145 $238 #
vertex $-1 $225 $239 #
straight-curve $-1 0 -27.480841481076983 -3.067246221452788 1 0 0 I I #
face $-1 $-1 $240 $20 $-1 $241 reversed single #
loop $-1 $-1 $96 $90 #
plane-surface $-1 0 0 8.7815910818830183 0 0 1 1 0 0 forward_v I I I I #
coedge $-1 $242 $243 $244 $245 reversed $91 $-1 #
coedge $-1 $246 $93 $95 $163 forward $57 $-1 #
coedge $-1 $93 $246 $242 $247 forward $57 $-1 #
coedge $-1 $244 $96 $93 $160 forward $154 $-1 #
edge $-1 $166 1.0897529479231007 $248 13.007041307595442 $159 $249 forward 7 unknown #
coedge $-1 $250 $251 $94 $162 forward $240 $-1 #
edge $-1 $252 -32.529229537648 $165 -29.173691770077131 $161 $253 forward 7 unknown #
edge $-1 $166 -6.0006800929217183 $252 8.3739815925159718e-015 $95 $254 forward 7 unknown #
coedge $-1 $96 $244 $250 $255 forward $154 $-1 #
vertex $-1 $162 $256 #
vertex $-1 $97 $257 #
straight-curve $-1 -45.026123515296803 8.1381500756823719 8.7815910818830218 1 0 0 I I #
coedge $-1 $168 $168 $-1 $258 reversed $100 $-1 #
edge $-1 $259 0 $259 6.2831853071796004 $101 $260 forward 7 unknown #
vertex $-1 $104 $261 #
ellipse-curve $-1 -40.022447605056364 14.096794255518542 7.1038221980975811 -0.55919291073839883 0 0.82903756765294845 0.82903756765294845 0 0.55919291073839883 1 I I #
face $-1 $-1 $184 $22 $-1 $262 forward single #
loop $-1 $-1 $263 $105 #
plane-surface $-1 42.509842219306009 0 0 -1 0 0 0 0 1 forward_v I I I I #
coedge $-1 $264 $265 $266 $267 reversed $106 $-1 #
coedge $-1 $268 $108 $110 $182 forward $66 $-1 #
coedge $-1 $108 $268 $264 $269 forward $66 $-1 #
coedge $-1 $266 $111 $108 $179 forward $184 $-1 #
edge $-1 $186 -13.007041307595442 $270 -1.0897529479231007 $178 $271 forward 7 unknown #
coedge $-1 $272 $273 $109 $181 forward $173 $-1 #
edge $-1 $274 -56.300431943291791 $185 -52.944894175720933 $180 $275 forward 7 unknown #
edge $-1 $186 79.019004345690291 $274 85.019684438612018 $110 $276 forward 7 unknown #
coedge $-1 $111 $266 $272 $277 forward $184 $-1 #
loop $-1 $-1 $266 $172 #
vertex $-1 $181 $278 #
vertex $-1 $112 $279 #
straight-curve $-1 9.7838673204927353 20.055438435354713 8.7815910818830218 -1 0 0 I I #
coedge $-1 $188 $188 $-1 $280 reversed $115 $-1 #
edge $-1 $281 0 $281 6.2831853071796004 $116 $282 forward 7 unknown #
vertex $-1 $119 $283 #
ellipse-curve $-1 40.022447605056378 14.096794255518542 7.1038221980975882 0.55919291073839883 0 0.82903756765294845 0.82903756765294845 0 -0.55919291073839883 1 I I #
face $-1 $-1 $135 $18 $-1 $284 reversed single #
loop $-1 $-1 $208 $120 #
plane-surface $-1 0 27.480841481076983 0 0 -1 0 0 0 -1 forward_v I I I I #
coedge $-1 $285 $206 $209 $286 forward $121 $-1 #
coedge $-1 $212 $123 $124 $200 reversed $75 $-1 #
coedge $-1 $206 $285 $123 $198 reversed $121 $-1 #
edge $-1 $213 -8.7815910818830183 $287 8.7815910818830183 $197 $288 forward 7 unknown #
coedge $-1 $125 $124 $285 $289 forward $49 $-1 #
edge $-1 $204 -42.509842219306009 $287 42.509842219306009 $196 $290 forward 7 unknown #
coedge $-1 $209 $208 $125 $202 reversed $193 $-1 #
edge $-1 $291 -42.509842219306009 $203 42.509842219306009 $201 $292 forward 7 unknown #
vertex $-1 $127 $293 #
vertex $-1 $215 $294 #
straight-curve $-1 42.509842219306009 0 -8.7815910818830183 0 -1 0 I I #
coedge $-1 $195 $197 $128 $207 reversed $121 $-1 #
edge $-1 $210 -27.480841481076983 $213 27.480841481076983 $206 $295 forward 7 unknown #
coedge $-1 $201 $129 $134 $216 forward $193 $-1 #
coedge $-1 $129 $201 $195 $286 reversed $193 $-1 #
vertex $-1 $130 $296 #
straight-curve $-1 0 27.480841481076983 8.7815910818830183 -1 0 0 I I #
coedge $-1 $131 $196 $133 $215 reversed $75 $-1 #
vertex $-1 $207 $297 #
straight-curve $-1 0 -27.480841481076983 8.7815910818830183 1 0 0 I I #
edge $-1 $136 -8.7815910818830183 $204 8.7815910818830183 $133 $298 forward 7 unknown #
edge $-1 $137 -8.7815910818830183 $203 8.7815910818830183 $134 $299 forward 7 unknown #
point $-1 42.509842219306009 -27.480841481076983 8.7815910818830183 #
point $-1 42.509842219306009 27.480841481076983 8.7815910818830183 #
face $-1 $-1 $235 $19 $-1 $300 reversed single #
loop $-1 $-1 $301 $139 #
plane-surface $-1 0 -33.989697723532707 -4.7228764355873967 0 1 0 0 0 1 forward_v I I I I #
coedge $-1 $302 $232 $234 $303 forward $140 $-1 #
coedge $-1 $142 $149 $304 $305 forward $83 $-1 #
coedge $-1 $306 $147 $142 $225 reversed $235 $-1 #
edge $-1 $307 -3.2544281212278641 $151 3.2544281212278605 $224 $308 forward 7 unknown #
coedge $-1 $144 $143 $301 $309 reversed $53 $-1 #
coedge $-1 $232 $302 $143 $228 forward $140 $-1 #
edge $-1 $310 -3.2544281212278641 $230 3.2544281212278605 $143 $311 forward 7 unknown #
edge $-1 $150 -3.2544281212278605 $312 3.2544281212278641 $144 $313 forward 7 unknown #
vertex $-1 $145 $314 #
straight-curve $-1 -42.509842219306009 -27.480841481076983 0 0 0 -1 I I #
coedge $-1 $222 $227 $146 $233 reversed $140 $-1 #
edge $-1 $236 -42.509842219306009 $230 42.509842219306009 $232 $315 forward 7 unknown #
coedge $-1 $147 $306 $222 $303 reversed $235 $-1 #
loop $-1 $-1 $147 $219 #
vertex $-1 $148 $316 #
straight-curve $-1 42.509842219306009 -27.480841481076983 0 0 0 1 I I #
point $-1 -42.509842219306009 -27.480841481076983 -3.067246221452788 #
point $-1 42.509842219306009 -27.480841481076983 -3.067246221452788 #
loop $-1 $-1 $161 $153 #
plane-surface $-1 -42.509842219306009 0 0 1 0 0 0 0 -1 forward_v I I I I #
coedge $-1 $243 $156 $158 $247 reversed $91 $-1 #
coedge $-1 $156 $242 $317 $318 reversed $91 $-1 #
coedge $-1 $164 $159 $156 $245 forward $154 $-1 #
edge $-1 $248 -7.491070524490091 $319 -2.5162812959907939 $244 $320 forward 7 unknown #
coedge $-1 $158 $157 $251 $321 reversed $57 $-1 #
edge $-1 $322 -8.3739815925159718e-015 $248 6.0006800929217183 $242 $323 forward 7 unknown #
vertex $-1 $160 $324 #
straight-curve $-1 -37.535052990806712 7.0483971277592712 8.7815910818830183 0 1 0 I I #
coedge $-1 $317 $161 $164 $255 reversed $240 $-1 #
coedge $-1 $161 $317 $246 $321 forward $240 $-1 #
vertex $-1 $162 $325 #
straight-curve $-1 -42.509842219306009 8.1381500756823719 37.955282851960149 0 0 1 I I #
straight-curve $-1 -42.509842219306002 8.1381500756823719 5.4260533143121563 -0.82903756765294845 0 -0.55919291073839883 I I #
edge $-1 $319 -20.055438435354713 $165 -8.1381500756823719 $250 $326 forward 7 unknown #
point $-1 -42.509842219306009 8.1381500756823719 8.7815910818830183 #
point $-1 -37.535052990806712 8.1381500756823719 8.7815910818830183 #
edge $-1 $327 1 $327 0 $168 $-1 forward 7 unknown #
vertex $-1 $169 $328 #
ellipse-curve $-1 -38.719973709354434 14.096794255518542 5.172825274337689 -0.55919291073839883 0 0.82903756765294845 0.82903756765294845 0 0.55919291073839883 1 I I #
point $-1 -39.193410037403417 14.096794255518542 7.6630151088359879 #
plane-surface $-1 0 0 8.7815910818830183 0 0 1 1 0 0 forward_v I I I I #
coedge $-1 $273 $272 $265 $329 forward $173 $-1 #
coedge $-1 $265 $175 $177 $269 reversed $106 $-1 #
coedge $-1 $175 $264 $263 $329 reversed $106 $-1 #
coedge $-1 $183 $178 $175 $267 forward $184 $-1 #
edge $-1 $270 27.751185670313983 $330 32.725974898813277 $266 $331 forward 7 unknown #
coedge $-1 $177 $176 $273 $332 reversed $66 $-1 #
edge $-1 $333 -85.019684438612018 $270 -79.019004345690291 $264 $334 forward 7 unknown #
vertex $-1 $179 $335 #
straight-curve $-1 37.535052990806719 7.0483971277592712 8.7815910818830218 0 -1 0 I I #
coedge $-1 $263 $180 $183 $277 reversed $173 $-1 #
coedge $-1 $180 $263 $268 $332 forward $173 $-1 #
vertex $-1 $181 $336 #
straight-curve $-1 42.509842219306009 20.055438435354713 61.726485257603954 0 0 1 I I #
straight-curve $-1 -27.974670170302133 20.055438435354713 52.968458125599767 0.82903756765294845 0 -0.55919291073839883 I I #
edge $-1 $330 8.1381500756823719 $185 20.055438435354713 $272 $337 forward 7 unknown #
point $-1 42.509842219306009 20.055438435354713 8.7815910818830183 #
point $-1 37.535052990806719 20.055438435354713 8.7815910818830218 #
edge $-1 $338 1 $338 0 $188 $-1 forward 7 unknown #
vertex $-1 $189 $339 #
ellipse-curve $-1 38.719973709354434 14.096794255518542 5.1728252743376801 0.55919291073839883 0 0.82903756765294845 0.82903756765294845 0 -0.55919291073839883 1 I I #
point $-1 40.851485172709317 14.096794255518542 6.5446292873591814 #
plane-surface $-1 42.509842219306009 0 0 -1 0 0 0 0 1 forward_v I I I I #
coedge $-1 $197 $195 $199 $289 reversed $121 $-1 #
edge $-1 $210 -8.7815910818830183 $291 8.7815910818830183 $209 $340 forward 7 unknown #
vertex $-1 $289 $341 #
straight-curve $-1 -42.509842219306009 -27.480841481076983 0 0 0 -1 I I #
edge $-1 $287 -27.480841481076983 $291 27.480841481076983 $285 $342 forward 7 unknown #
straight-curve $-1 0 -27.480841481076983 -8.7815910818830183 -1 0 0 I I #
vertex $-1 $202 $343 #
straight-curve $-1 0 27.480841481076983 -8.7815910818830183 1 0 0 I I #
point $-1 42.509842219306009 27.480841481076983 -8.7815910818830183 #
point $-1 42.509842219306009 -27.480841481076983 -8.7815910818830183 #
straight-curve $-1 -42.509842219306009 0 8.7815910818830183 0 -1 0 I I #
point $-1 -42.509842219306009 27.480841481076983 8.7815910818830183 #
point $-1 -42.509842219306009 -27.480841481076983 8.7815910818830183 #
straight-curve $-1 42.509842219306009 -27.480841481076983 0 0 0 -1 I I #
straight-curve $-1 42.509842219306009 27.480841481076983 0 0 0 -1 I I #
plane-surface $-1 42.509842219306009 0 0 -1 0 0 0 0 1 forward_v I I I I #
coedge $-1 $344 $304 $226 $309 forward $220 $-1 #
coedge $-1 $227 $222 $344 $345 forward $140 $-1 #
edge $-1 $236 -3.2544281212278605 $346 3.2544281212278641 $234 $347 forward 7 unknown #
coedge $-1 $301 $348 $223 $305 reversed $220 $-1 #
edge $-1 $312 -42.509842219306009 $307 42.509842219306009 $304 $349 forward 7 unknown #
coedge $-1 $234 $224 $348 $350 forward $235 $-1 #
vertex $-1 $225 $351 #
straight-curve $-1 42.509842219306009 -30.735269602304843 -3.067246221452788 0 1 0 I I #
edge $-1 $312 -1.6556302141346086 $310 1.6556302141346091 $226 $352 forward 7 unknown #
vertex $-1 $228 $353 #
straight-curve $-1 -42.509842219306009 -30.735269602304843 -6.3785066497220058 0 1 0 I I #
vertex $-1 $229 $354 #
straight-curve $-1 -42.509842219306009 -30.735269602304843 -3.067246221452788 0 -1 0 I I #
point $-1 -42.509842219306009 -27.480841481076983 -6.3785066497220058 #
straight-curve $-1 0 -27.480841481076983 -6.3785066497220058 -1 0 0 I I #
point $-1 42.509842219306009 -27.480841481076983 -6.3785066497220058 #
coedge $-1 $251 $250 $243 $318 forward $240 $-1 #
edge $-1 $319 29.173691770077131 $322 32.529229537648 $317 $355 forward 7 unknown #
vertex $-1 $255 $356 #
straight-curve $-1 -45.026123515296803 20.055438435354713 8.7815910818830218 -1 0 0 I I #
edge $-1 $322 -13.007041307595442 $252 -1.0897529479231007 $251 $357 forward 7 unknown #
vertex $-1 $321 $358 #
straight-curve $-1 -42.509842219306002 20.055438435354713 5.4260533143121563 0.82903756765294845 0 0.55919291073839883 I I #
point $-1 -37.535052990806712 20.055438435354713 8.7815910818830183 #
point $-1 -42.509842219306009 8.1381500756823719 5.4260533143121519 #
straight-curve $-1 -42.509842219306009 0 8.7815910818830183 0 -1 0 I I #
vertex $-1 $258 $359 #
point $-1 -37.890936141701481 14.096794255518542 5.7320181850760878 #
edge $-1 $330 52.944894175720933 $333 56.300431943291791 $263 $360 forward 7 unknown #
vertex $-1 $277 $361 #
straight-curve $-1 9.7838673204927353 8.1381500756823719 8.7815910818830218 1 0 0 I I #
edge $-1 $333 1.0897529479231007 $274 13.007041307595442 $273 $362 forward 7 unknown #
vertex $-1 $332 $363 #
straight-curve $-1 -27.974670170302133 8.1381500756823719 52.968458125599767 -0.82903756765294845 0 0.55919291073839883 I I #
point $-1 37.535052990806719 8.1381500756823719 8.7815910818830218 #
point $-1 42.509842219306009 20.055438435354713 5.4260533143121634 #
straight-curve $-1 42.509842219306009 0 8.7815910818830183 0 1 0 I I #
vertex $-1 $280 $364 #
point $-1 39.549011277007381 14.096794255518542 4.6136323635992813 #
straight-curve $-1 -42.509842219306009 27.480841481076983 0 0 0 -1 I I #
point $-1 -42.509842219306009 -27.480841481076983 -8.7815910818830183 #
straight-curve $-1 -42.509842219306009 0 -8.7815910818830183 0 1 0 I I #
point $-1 -42.509842219306009 27.480841481076983 -8.7815910818830183 #
coedge $-1 $348 $301 $302 $345 reversed $220 $-1 #
edge $-1 $346 -42.509842219306009 $310 42.509842219306009 $344 $365 forward 7 unknown #
vertex $-1 $350 $366 #
straight-curve $-1 42.509842219306009 -30.735269602304843 -6.3785066497220058 0 -1 0 I I #
coedge $-1 $304 $344 $306 $350 reversed $220 $-1 #
straight-curve $-1 0 -33.989697723532707 -3.067246221452788 1 0 0 I I #
edge $-1 $307 -1.6556302141346086 $346 1.6556302141346091 $306 $367 forward 7 unknown #
point $-1 42.509842219306009 -33.989697723532707 -3.067246221452788 #
straight-curve $-1 -42.509842219306009 -33.989697723532707 -4.7228764355873967 0 0 -1 I I #
point $-1 -42.509842219306009 -33.989697723532707 -6.3785066497220058 #
point $-1 -42.509842219306009 -33.989697723532707 -3.067246221452788 #
straight-curve $-1 -42.509842219306009 20.055438435354713 37.955282851960149 0 0 -1 I I #
point $-1 -42.509842219306009 20.055438435354713 8.7815910818830183 #
straight-curve $-1 -42.509842219306009 7.0483971277592712 5.4260533143121563 0 -1 0 I I #
point $-1 -42.509842219306009 20.055438435354713 5.4260533143121519 #
point $-1 -38.160780798616031 14.096794255518542 4.3437877066847408 #
straight-curve $-1 42.509842219306009 8.1381500756823719 61.726485257603954 0 0 -1 I I #
point $-1 42.509842219306009 8.1381500756823719 8.7815910818830183 #
straight-curve $-1 42.509842219306016 7.0483971277592712 5.4260533143121599 0 1 0 I I #
point $-1 42.509842219306009 8.1381500756823719 5.4260533143121634 #
point $-1 38.160780798616031 14.096794255518542 4.3437877066847319 #
straight-curve $-1 0 -33.989697723532707 -6.3785066497220058 -1 0 0 I I #
point $-1 42.509842219306009 -33.989697723532707 -6.3785066497220058 #
straight-curve $-1 42.509842219306009 -33.989697723532707 -4.7228764355873967 0 0 -1 I I #
End-of-ACIS-data 