500 0 7 0           
7 Unknown 11 ACIS 5.0 NT 24 Thu Mar 25 19:33:15 1999 
-1 9.9999999999999995e-007 1e-010 
body $-1 $7 $-1 $8 #
body $-1 $9 $-1 $10 #
body $-1 $11 $-1 $12 #
body $-1 $13 $-1 $14 #
body $-1 $15 $-1 $16 #
body $-1 $17 $-1 $18 #
body $-1 $19 $-1 $20 #
lump $-1 $-1 $21 $0 #
transform $-1 1 0 0 0 1 0 0 0 1 61.361735892818999 33.507661376696383 16.16879900788895 1 rotate no_reflect no_shear #
lump $-1 $-1 $22 $1 #
transform $-1 1 0 0 0 1 0 0 0 1 61.361735892818999 33.507661376696383 16.16879900788895 1 rotate no_reflect no_shear #
lump $-1 $-1 $23 $2 #
transform $-1 1 0 0 0 1 0 0 0 1 61.361735892818999 33.507661376696383 16.16879900788895 1 rotate no_reflect no_shear #
lump $-1 $-1 $24 $3 #
transform $-1 1 0 0 0 1 0 0 0 1 61.361735892818999 33.507661376696383 16.16879900788895 1 rotate no_reflect no_shear #
lump $-1 $-1 $25 $4 #
transform $-1 1 0 0 0 1 0 0 0 1 61.361735892818999 33.507661376696383 16.16879900788895 1 rotate no_reflect no_shear #
lump $-1 $-1 $26 $5 #
transform $-1 1 0 0 0 1 0 0 0 1 61.361735892818999 33.507661376696383 16.16879900788895 1 rotate no_reflect no_shear #
lump $-1 $-1 $27 $6 #
transform $-1 1 0 0 0 1 0 0 0 1 61.361735892818999 33.507661376696383 16.16879900788895 1 rotate no_reflect no_shear #
shell $-1 $-1 $-1 $28 $-1 $7 #
shell $-1 $-1 $-1 $29 $-1 $9 #
shell $-1 $-1 $-1 $30 $-1 $11 #
shell $-1 $-1 $-1 $31 $-1 $13 #
shell $-1 $-1 $-1 $32 $-1 $15 #
shell $-1 $-1 $-1 $33 $-1 $17 #
shell $-1 $-1 $-1 $34 $-1 $19 #
face $-1 $35 $36 $21 $-1 $37 forward single #
face $-1 $38 $39 $22 $-1 $40 forward single #
face $-1 $41 $42 $23 $-1 $43 reversed single #
face $-1 $44 $45 $24 $-1 $46 forward single #
face $-1 $47 $48 $25 $-1 $49 forward single #
face $-1 $50 $51 $26 $-1 $52 reversed single #
face $-1 $53 $54 $27 $-1 $55 forward single #
face $-1 $56 $57 $21 $-1 $58 reversed single #
loop $-1 $-1 $59 $28 #
plane-surface $-1 0 0 16.16879900788895 0 0 1 1 0 0 forward_v I I I I #
face $-1 $60 $61 $22 $-1 $62 reversed single #
loop $-1 $-1 $63 $29 #
plane-surface $-1 -52.56687046854131 0 -9.543672226684734 0 0 1 1 0 0 forward_v I I I I #
face $-1 $64 $65 $23 $-1 $66 reversed single #
loop $-1 $-1 $67 $30 #
plane-surface $-1 11.615095846820466 75.234785751047298 138.47851354338889 1 0 0 0 -0.71933980857756763 -0.69465836192734942 forward_v I I I I #
face $-1 $68 $69 $24 $-1 $70 forward single #
loop $-1 $71 $72 $31 #
cone-surface $-1 20.225952082807979 25.709697363051266 8.2624544576917263 0 -0.71933980857756763 -0.69465836192734942 3 0 0 1 I I 0 1 3 forward I I I I #
face $-1 $73 $74 $25 $-1 $75 forward single #
loop $-1 $76 $77 $32 #
cone-surface $-1 33.142236436789261 25.709697363051266 8.2624544576917263 0 -0.71933980857756763 -0.69465836192734942 3 0 0 1 I I 0 1 3 forward I I I I #
face $-1 $78 $79 $26 $-1 $80 reversed single #
loop $-1 $-1 $81 $33 #
plane-surface $-1 -21.913928011460023 -118.75854930588864 93.221140306323235 -1 0 0 0 -0.69465837861970381 0.71933979245794832 forward_v I I I I #
face $-1 $82 $83 $27 $-1 $84 forward single #
loop $-1 $85 $86 $34 #
cone-surface $-1 -32.842966527861819 -23.819266343829096 6.5421769088921424 0 0.69465837861970381 -0.71933979245794832 3 0 0 1 I I 0 1 3 forward I I I I #
face $-1 $87 $88 $21 $-1 $89 reversed single #
loop $-1 $-1 $90 $35 #
plane-surface $-1 0 0 -16.16879900788895 0 0 1 1 0 0 forward_v I I I I #
coedge $-1 $91 $92 $93 $94 forward $36 $-1 #
face $-1 $95 $96 $22 $-1 $97 reversed single #
loop $-1 $-1 $98 $38 #
plane-surface $-1 -43.772005044263622 0 -12.856235617286842 -1 0 0 0 0 1 forward_v I I I I #
coedge $-1 $99 $100 $101 $102 forward $39 $-1 #
face $-1 $103 $104 $23 $-1 $105 reversed single #
loop $-1 $-1 $106 $41 #
plane-surface $-1 26.684094259798627 -13.045092951208076 53.227627662740304 0 0.71933980857756763 0.69465836192734942 1 0 0 forward_v I I I I #
coedge $-1 $107 $108 $109 $110 reversed $42 $-1 #
face $-1 $-1 $111 $24 $-1 $112 forward single #
loop $-1 $113 $114 $44 #
cone-surface $-1 20.225952082807979 22.215453805457521 4.8881027577725291 0 -0.71933980857756763 -0.69465836192734942 1.5 0 0 1 I I -0.70710678118654757 0.70710678118654757 1.5 forward I I I I #
loop $-1 $-1 $115 $31 #
coedge $-1 $72 $72 $116 $117 reversed $45 $-1 #
face $-1 $-1 $118 $25 $-1 $119 forward single #
loop $-1 $120 $121 $47 #
cone-surface $-1 33.142236436789261 22.215453805457521 4.8881027577725291 0 -0.71933980857756763 -0.69465836192734942 1.5 0 0 1 I I -0.70710678118654757 0.70710678118654757 1.5 forward I I I I #
loop $-1 $-1 $122 $32 #
coedge $-1 $77 $77 $123 $124 reversed $48 $-1 #
face $-1 $125 $126 $26 $-1 $127 reversed single #
loop $-1 $-1 $128 $50 #
plane-surface $-1 -32.842966527861819 -33.507661376696376 4.9412635823235149 0 -0.69465837861970381 0.71933979245794832 1 0 0 forward_v I I I I #
coedge $-1 $129 $130 $131 $132 reversed $51 $-1 #
face $-1 $-1 $133 $27 $-1 $134 forward single #
loop $-1 $135 $136 $53 #
cone-surface $-1 -32.842966527861819 -18.902110252218289 1.4503128339911306 0 0.69465837861970381 -0.71933979245794832 1.5 0 0 1 I I -0.70710678118654757 0.70710678118654757 1.5 forward I I I I #
loop $-1 $-1 $137 $34 #
coedge $-1 $86 $86 $138 $139 reversed $54 $-1 #
face $-1 $140 $141 $21 $-1 $142 reversed single #
loop $-1 $-1 $143 $56 #
plane-surface $-1 0 -33.507661376696383 0 0 1 0 0 0 1 forward_v I I I I #
coedge $-1 $144 $145 $146 $147 forward $57 $-1 #
coedge $-1 $148 $59 $149 $150 forward $36 $-1 #
coedge $-1 $59 $148 $151 $152 forward $36 $-1 #
coedge $-1 $153 $154 $59 $94 reversed $155 $-1 #
edge $-1 $156 -33.507661376696383 $157 33.507661376696383 $93 $158 forward 7 unknown #
face $-1 $159 $160 $22 $-1 $161 reversed single #
loop $-1 $-1 $162 $60 #
plane-surface $-1 0 0 -16.16879900788895 0 0 1 1 0 0 forward_v I I I I #
coedge $-1 $163 $101 $164 $165 reversed $61 $-1 #
coedge $-1 $166 $63 $167 $168 reversed $39 $-1 #
coedge $-1 $63 $166 $169 $170 reversed $39 $-1 #
coedge $-1 $98 $171 $63 $102 reversed $61 $-1 #
edge $-1 $172 -33.507661376696383 $173 33.507661376696383 $101 $174 forward 7 unknown #
face $-1 $175 $176 $23 $-1 $177 reversed single #
loop $-1 $-1 $178 $64 #
plane-surface $-1 41.753092672776788 75.234785751047298 138.47851354338889 -1 0 0 0 0.71933980857756763 0.69465836192734942 forward_v I I I I #
coedge $-1 $179 $180 $181 $182 reversed $65 $-1 #
coedge $-1 $108 $67 $183 $184 reversed $42 $-1 #
coedge $-1 $67 $107 $179 $185 reversed $42 $-1 #
coedge $-1 $181 $186 $67 $110 forward $187 $-1 #
edge $-1 $188 4.1097314988272657 $189 14.875191836662736 $109 $190 forward 7 unknown #
loop $-1 $-1 $116 $68 #
plane-surface $-1 26.684094259798627 -13.045092951208076 53.227627662740304 0 0.71933980857756763 0.69465836192734942 1 0 0 forward_v I I I I #
loop $-1 $-1 $191 $44 #
coedge $-1 $114 $114 $115 $192 reversed $69 $-1 #
coedge $-1 $115 $115 $114 $192 forward $71 $-1 #
coedge $-1 $116 $116 $72 $117 forward $111 $-1 #
edge $-1 $193 -5.8457408751209844e-017 $193 6.2831853071796004 $116 $194 forward 7 unknown #
loop $-1 $-1 $123 $73 #
plane-surface $-1 26.684094259798627 -13.045092951208076 53.227627662740304 0 0.71933980857756763 0.69465836192734942 1 0 0 forward_v I I I I #
loop $-1 $-1 $195 $47 #
coedge $-1 $121 $121 $122 $196 reversed $74 $-1 #
coedge $-1 $122 $122 $121 $196 forward $76 $-1 #
coedge $-1 $123 $123 $77 $124 forward $118 $-1 #
edge $-1 $197 -5.8457408751209844e-017 $197 6.2831853071796004 $123 $198 forward 7 unknown #
face $-1 $199 $200 $26 $-1 $201 forward single #
loop $-1 $-1 $202 $78 #
plane-surface $-1 -43.772005044263615 -118.75854930588864 93.221140306323235 1 0 0 0 0.69465837861970381 -0.71933979245794832 forward_v I I I I #
coedge $-1 $203 $204 $205 $206 reversed $79 $-1 #
coedge $-1 $130 $81 $207 $208 reversed $51 $-1 #
coedge $-1 $81 $129 $203 $209 reversed $51 $-1 #
coedge $-1 $205 $210 $81 $132 forward $200 $-1 #
edge $-1 $211 25.871613276247935 $212 37.49806629462001 $131 $213 forward 7 unknown #
loop $-1 $-1 $138 $82 #
plane-surface $-1 -32.842966527861819 -33.507661376696376 4.9412635823235149 0 -0.69465837861970381 0.71933979245794832 1 0 0 forward_v I I I I #
loop $-1 $-1 $214 $53 #
coedge $-1 $136 $136 $137 $215 reversed $83 $-1 #
coedge $-1 $137 $137 $136 $215 forward $85 $-1 #
coedge $-1 $138 $138 $86 $139 forward $133 $-1 #
edge $-1 $216 -4.4054905282102231e-016 $216 6.2831853071796004 $138 $217 forward 7 unknown #
face $-1 $218 $219 $21 $-1 $220 reversed single #
loop $-1 $-1 $221 $87 #
plane-surface $-1 -61.361735892818999 0 0 1 0 0 0 0 -1 forward_v I I I I #
coedge $-1 $222 $151 $223 $224 forward $88 $-1 #
coedge $-1 $225 $90 $222 $226 forward $57 $-1 #
coedge $-1 $90 $225 $227 $228 forward $57 $-1 #
coedge $-1 $154 $153 $90 $147 reversed $155 $-1 #
edge $-1 $229 -33.507661376696383 $230 33.507661376696383 $146 $231 forward 7 unknown #
coedge $-1 $92 $91 $232 $233 forward $36 $-1 #
coedge $-1 $234 $235 $91 $150 reversed $219 $-1 #
edge $-1 $157 -61.361735892818999 $236 61.361735892818999 $149 $237 forward 7 unknown #
coedge $-1 $143 $238 $92 $152 reversed $88 $-1 #
edge $-1 $239 -61.361735892818999 $156 61.361735892818999 $151 $240 forward 7 unknown #
coedge $-1 $146 $93 $238 $241 forward $155 $-1 #
coedge $-1 $93 $146 $234 $242 reversed $155 $-1 #
loop $-1 $-1 $153 $218 #
vertex $-1 $94 $243 #
vertex $-1 $94 $244 #
straight-curve $-1 61.361735892818999 0 16.16879900788895 0 1 0 I I #
face $-1 $245 $246 $22 $-1 $247 reversed single #
loop $-1 $-1 $164 $95 #
plane-surface $-1 0 -33.507661376696383 0 0 1 0 0 0 1 forward_v I I I I #
coedge $-1 $248 $249 $163 $250 forward $96 $-1 #
coedge $-1 $171 $98 $162 $250 reversed $61 $-1 #
coedge $-1 $169 $251 $98 $165 forward $160 $-1 #
edge $-1 $252 -9.7406811992455289 $172 -3.1155544180413131 $164 $253 forward 7 unknown #
coedge $-1 $100 $99 $254 $255 reversed $39 $-1 #
coedge $-1 $256 $257 $99 $168 forward $258 $-1 #
edge $-1 $259 -35.078300658548343 $173 -17.488569809992967 $167 $260 forward 7 unknown #
coedge $-1 $261 $164 $100 $170 forward $160 $-1 #
edge $-1 $172 17.488569809992967 $262 35.078300658548343 $169 $263 forward 7 unknown #
coedge $-1 $101 $163 $256 $264 reversed $61 $-1 #
vertex $-1 $170 $265 #
vertex $-1 $168 $266 #
straight-curve $-1 -43.772005044263622 0 -9.543672226684734 0 1 0 I I #
face $-1 $-1 $187 $23 $-1 $267 forward single #
loop $-1 $-1 $268 $103 #
plane-surface $-1 0 33.507661376696383 0 0 -1 0 0 0 -1 forward_v I I I I #
coedge $-1 $269 $270 $271 $272 reversed $104 $-1 #
coedge $-1 $273 $106 $108 $185 forward $65 $-1 #
coedge $-1 $106 $273 $269 $274 forward $65 $-1 #
coedge $-1 $271 $109 $106 $182 forward $187 $-1 #
edge $-1 $189 -1.7269512830788472 $275 28.411045542877474 $181 $276 forward 7 unknown #
coedge $-1 $277 $278 $107 $184 forward $176 $-1 #
edge $-1 $279 -64.21841855014361 $188 -53.070457763805493 $183 $280 forward 7 unknown #
edge $-1 $189 51.517833731643449 $279 67.01532275339278 $108 $281 forward 7 unknown #
coedge $-1 $109 $271 $277 $282 forward $187 $-1 #
loop $-1 $-1 $271 $175 #
vertex $-1 $184 $283 #
vertex $-1 $110 $284 #
straight-curve $-1 11.615095846820466 37.617392875523649 16.16879900788895 0 -1 0 I I #
coedge $-1 $191 $191 $-1 $285 reversed $113 $-1 #
edge $-1 $286 0 $286 6.2831853071796004 $114 $287 forward 7 unknown #
vertex $-1 $117 $288 #
ellipse-curve $-1 20.225952082807979 28.124931207778651 10.594818614719891 0 0.71933980857756763 0.69465836192734942 3 0 0 1 I I #
coedge $-1 $195 $195 $-1 $289 reversed $120 $-1 #
edge $-1 $290 0 $290 6.2831853071796004 $121 $291 forward 7 unknown #
vertex $-1 $124 $292 #
ellipse-curve $-1 33.142236436789261 28.124931207778651 10.594818614719891 0 0.71933980857756763 0.69465836192734942 3 0 0 1 I I #
face $-1 $-1 $293 $26 $-1 $294 reversed single #
loop $-1 $-1 $131 $125 #
plane-surface $-1 0 0 16.16879900788895 0 0 1 1 0 0 forward_v I I I I #
coedge $-1 $295 $296 $297 $298 reversed $126 $-1 #
coedge $-1 $299 $128 $130 $209 forward $79 $-1 #
coedge $-1 $128 $299 $295 $300 forward $79 $-1 #
coedge $-1 $297 $131 $128 $206 forward $200 $-1 #
edge $-1 $212 5.4924447475291132 $301 27.350521780332706 $205 $302 forward 7 unknown #
coedge $-1 $303 $304 $129 $208 forward $293 $-1 #
edge $-1 $305 -41.66930657083811 $211 -30.441771145272668 $207 $306 forward 7 unknown #
edge $-1 $212 -16.162671855876422 $305 1.0047061288372931e-014 $130 $307 forward 7 unknown #
coedge $-1 $131 $297 $303 $308 forward $200 $-1 #
vertex $-1 $132 $309 #
vertex $-1 $132 $310 #
straight-curve $-1 -21.913928011460023 -59.379274652944318 16.16879900788895 0 1 0 I I #
coedge $-1 $214 $214 $-1 $311 reversed $135 $-1 #
edge $-1 $312 0 $312 6.2831853071796004 $136 $313 forward 7 unknown #
vertex $-1 $139 $314 #
ellipse-curve $-1 -32.842966527861819 -27.694434867510346 10.555031295106229 0 -0.69465837861970381 0.71933979245794832 3 0 0 1 I I #
face $-1 $-1 $155 $21 $-1 $315 reversed single #
loop $-1 $-1 $234 $140 #
plane-surface $-1 0 33.507661376696383 0 0 -1 0 0 0 -1 forward_v I I I I #
coedge $-1 $316 $232 $235 $317 forward $141 $-1 #
coedge $-1 $238 $143 $144 $226 reversed $88 $-1 #
coedge $-1 $232 $316 $143 $224 reversed $141 $-1 #
edge $-1 $239 -16.16879900788895 $318 16.16879900788895 $223 $319 forward 7 unknown #
coedge $-1 $145 $144 $316 $320 forward $57 $-1 #
edge $-1 $230 -61.361735892818999 $318 61.361735892818999 $222 $321 forward 7 unknown #
coedge $-1 $235 $234 $145 $228 reversed $219 $-1 #
edge $-1 $322 -61.361735892818999 $229 61.361735892818999 $227 $323 forward 7 unknown #
vertex $-1 $147 $324 #
vertex $-1 $241 $325 #
straight-curve $-1 61.361735892818999 0 -16.16879900788895 0 -1 0 I I #
coedge $-1 $221 $223 $148 $233 reversed $141 $-1 #
edge $-1 $236 -33.507661376696383 $239 33.507661376696383 $232 $326 forward 7 unknown #
coedge $-1 $227 $149 $154 $242 forward $219 $-1 #
coedge $-1 $149 $227 $221 $317 reversed $219 $-1 #
vertex $-1 $150 $327 #
straight-curve $-1 0 33.507661376696383 16.16879900788895 -1 0 0 I I #
coedge $-1 $151 $222 $153 $241 reversed $88 $-1 #
vertex $-1 $233 $328 #
straight-curve $-1 0 -33.507661376696383 16.16879900788895 1 0 0 I I #
edge $-1 $156 -16.16879900788895 $230 16.16879900788895 $153 $329 forward 7 unknown #
edge $-1 $157 -16.16879900788895 $229 16.16879900788895 $154 $330 forward 7 unknown #
point $-1 61.361735892818999 -33.507661376696383 16.16879900788895 #
point $-1 61.361735892818999 33.507661376696383 16.16879900788895 #
face $-1 $-1 $258 $22 $-1 $331 reversed single #
loop $-1 $-1 $254 $159 #
plane-surface $-1 -61.361735892818999 0 0 1 0 0 0 0 -1 forward_v I I I I #
coedge $-1 $332 $162 $251 $333 forward $96 $-1 #
coedge $-1 $162 $332 $334 $335 forward $96 $-1 #
edge $-1 $336 -33.507661376696383 $252 33.507661376696383 $162 $337 forward 7 unknown #
coedge $-1 $164 $261 $248 $333 reversed $160 $-1 #
vertex $-1 $333 $338 #
straight-curve $-1 -43.772005044263622 -33.507661376696383 -6.428117808643421 0 0 1 I I #
coedge $-1 $339 $340 $166 $255 forward $246 $-1 #
edge $-1 $262 -33.507661376696383 $259 33.507661376696383 $254 $341 forward 7 unknown #
coedge $-1 $334 $167 $171 $264 forward $258 $-1 #
coedge $-1 $167 $334 $339 $342 reversed $258 $-1 #
loop $-1 $-1 $256 $245 #
vertex $-1 $342 $343 #
straight-curve $-1 -26.283435234270655 33.507661376696383 -9.543672226684734 1 0 0 I I #
coedge $-1 $251 $169 $340 $344 forward $160 $-1 #
vertex $-1 $344 $345 #
straight-curve $-1 -26.283435234270655 -33.507661376696383 -9.543672226684734 -1 0 0 I I #
edge $-1 $173 3.1155544180413131 $336 9.7406811992455289 $256 $346 forward 7 unknown #
point $-1 -43.772005044263622 -33.507661376696383 -9.543672226684734 #
point $-1 -43.772005044263622 33.507661376696383 -9.543672226684734 #
plane-surface $-1 0 0 16.16879900788895 0 0 1 1 0 0 forward_v I I I I #
coedge $-1 $278 $277 $270 $347 forward $176 $-1 #
coedge $-1 $270 $178 $180 $274 reversed $104 $-1 #
coedge $-1 $178 $269 $268 $347 reversed $104 $-1 #
coedge $-1 $186 $181 $178 $272 forward $187 $-1 #
edge $-1 $275 -14.875191836662736 $348 -4.1097314988272657 $271 $349 forward 7 unknown #
coedge $-1 $180 $179 $278 $350 reversed $65 $-1 #
edge $-1 $351 -67.01532275339278 $275 -51.517833731643449 $269 $352 forward 7 unknown #
vertex $-1 $182 $353 #
straight-curve $-1 13.342047129899314 22.742201038860909 16.16879900788895 1 0 0 I I #
coedge $-1 $268 $183 $186 $282 reversed $176 $-1 #
coedge $-1 $183 $268 $273 $350 forward $176 $-1 #
vertex $-1 $184 $354 #
straight-curve $-1 11.615095846820466 33.507661376696383 69.239256771694443 0 0 1 I I #
straight-curve $-1 11.615095846820466 -13.045092951208076 53.227627662740304 0 0.69465836192734942 -0.71933980857756763 I I #
edge $-1 $348 -41.753092672776788 $188 -11.615095846820466 $277 $355 forward 7 unknown #
point $-1 11.615095846820466 33.507661376696383 16.16879900788895 #
point $-1 11.615095846820466 22.742201038860912 16.16879900788895 #
edge $-1 $356 1 $356 0 $191 $-1 forward 7 unknown #
vertex $-1 $192 $357 #
ellipse-curve $-1 20.225952082807979 23.294463518323873 5.9300903006635535 0 0.71933980857756763 0.69465836192734942 3 0 0 1 I I #
point $-1 23.225952082807979 28.124931207778658 10.594818614719898 #
edge $-1 $358 1 $358 0 $195 $-1 forward 7 unknown #
vertex $-1 $196 $359 #
ellipse-curve $-1 33.142236436789261 23.294463518323873 5.9300903006635535 0 0.71933980857756763 0.69465836192734942 3 0 0 1 I I #
point $-1 36.142236436789261 28.124931207778658 10.594818614719898 #
loop $-1 $-1 $207 $199 #
plane-surface $-1 0 -33.507661376696383 0 0 1 0 0 0 1 forward_v I I I I #
coedge $-1 $296 $202 $204 $300 reversed $126 $-1 #
coedge $-1 $202 $295 $360 $361 reversed $126 $-1 #
coedge $-1 $210 $205 $202 $298 forward $200 $-1 #
edge $-1 $301 -37.49806629462001 $362 -25.871613276247935 $297 $363 forward 7 unknown #
coedge $-1 $204 $203 $304 $364 reversed $79 $-1 #
edge $-1 $365 -1.0047061288372931e-014 $301 16.162671855876422 $295 $366 forward 7 unknown #
vertex $-1 $206 $367 #
straight-curve $-1 -16.421483263930909 -21.881208358324308 16.16879900788895 -1 0 0 I I #
coedge $-1 $360 $207 $210 $308 reversed $293 $-1 #
coedge $-1 $207 $360 $299 $364 forward $293 $-1 #
vertex $-1 $208 $368 #
straight-curve $-1 -21.913928011460023 -33.507661376696383 46.610570153161618 0 0 1 I I #
straight-curve $-1 -21.913928011460023 -33.507661376696376 4.9412635823235149 0 -0.71933979245794832 -0.69465837861970381 I I #
edge $-1 $362 -43.772005044263615 $211 -21.913928011460023 $303 $369 forward 7 unknown #
point $-1 -21.913928011460023 -33.507661376696383 16.16879900788895 #
point $-1 -21.913928011460023 -21.881208358324308 16.16879900788895 #
edge $-1 $370 1 $370 0 $214 $-1 forward 7 unknown #
vertex $-1 $215 $371 #
ellipse-curve $-1 -32.842966527861819 -19.944097820147846 2.5293225226780534 0 -0.69465837861970381 0.71933979245794832 3 0 0 1 I I #
point $-1 -29.842966527861819 -27.694434867510349 10.555031295106231 #
plane-surface $-1 61.361735892818999 0 0 -1 0 0 0 0 1 forward_v I I I I #
coedge $-1 $223 $221 $225 $320 reversed $141 $-1 #
edge $-1 $236 -16.16879900788895 $322 16.16879900788895 $235 $372 forward 7 unknown #
vertex $-1 $320 $373 #
straight-curve $-1 -61.361735892818999 -33.507661376696383 0 0 0 -1 I I #
edge $-1 $318 -33.507661376696383 $322 33.507661376696383 $316 $374 forward 7 unknown #
straight-curve $-1 0 -33.507661376696383 -16.16879900788895 -1 0 0 I I #
vertex $-1 $228 $375 #
straight-curve $-1 0 33.507661376696383 -16.16879900788895 1 0 0 I I #
point $-1 61.361735892818999 33.507661376696383 -16.16879900788895 #
point $-1 61.361735892818999 -33.507661376696383 -16.16879900788895 #
straight-curve $-1 -61.361735892818999 0 16.16879900788895 0 -1 0 I I #
point $-1 -61.361735892818999 33.507661376696383 16.16879900788895 #
point $-1 -61.361735892818999 -33.507661376696383 16.16879900788895 #
straight-curve $-1 61.361735892818999 -33.507661376696383 0 0 0 -1 I I #
straight-curve $-1 61.361735892818999 33.507661376696383 0 0 0 -1 I I #
plane-surface $-1 0 33.507661376696383 0 0 -1 0 0 0 -1 forward_v I I I I #
coedge $-1 $249 $248 $376 $377 forward $96 $-1 #
edge $-1 $252 43.772005044263622 $378 61.361735892818999 $251 $379 forward 7 unknown #
coedge $-1 $257 $256 $249 $335 reversed $258 $-1 #
edge $-1 $380 -61.361735892818999 $336 -43.772005044263622 $334 $381 forward 7 unknown #
vertex $-1 $264 $382 #
straight-curve $-1 -43.772005044263622 0 -16.16879900788895 0 -1 0 I I #
point $-1 -43.772005044263622 -33.507661376696383 -16.16879900788895 #
coedge $-1 $376 $254 $257 $342 forward $246 $-1 #
coedge $-1 $254 $376 $261 $344 reversed $246 $-1 #
straight-curve $-1 -61.361735892818999 0 -9.543672226684734 0 1 0 I I #
edge $-1 $259 9.543672226684734 $380 16.16879900788895 $257 $383 forward 7 unknown #
point $-1 -61.361735892818999 33.507661376696383 -9.543672226684734 #
edge $-1 $262 9.543672226684734 $378 16.16879900788895 $340 $384 forward 7 unknown #
point $-1 -61.361735892818999 -33.507661376696383 -9.543672226684734 #
straight-curve $-1 -43.772005044263622 33.507661376696383 -6.428117808643421 0 0 -1 I I #
edge $-1 $348 53.070457763805493 $351 64.21841855014361 $268 $385 forward 7 unknown #
vertex $-1 $282 $386 #
straight-curve $-1 41.753092672776788 37.617392875523649 16.16879900788895 0 1 0 I I #
edge $-1 $351 -28.411045542877474 $279 1.7269512830788472 $278 $387 forward 7 unknown #
vertex $-1 $350 $388 #
straight-curve $-1 41.753092672776788 -13.045092951208076 53.227627662740304 0 -0.69465836192734942 0.71933980857756763 I I #
point $-1 41.753092672776788 22.742201038860912 16.16879900788895 #
point $-1 11.615095846820466 33.507661376696383 5.0208382215508252 #
straight-curve $-1 0 33.507661376696383 16.16879900788895 -1 0 0 I I #
vertex $-1 $285 $389 #
point $-1 23.225952082807979 23.294463518323873 5.9300903006635535 #
vertex $-1 $289 $390 #
point $-1 36.142236436789261 23.294463518323873 5.9300903006635535 #
coedge $-1 $304 $303 $296 $361 forward $293 $-1 #
edge $-1 $362 30.441771145272668 $365 41.66930657083811 $360 $391 forward 7 unknown #
vertex $-1 $308 $392 #
straight-curve $-1 -43.772005044263615 -59.379274652944318 16.16879900788895 0 -1 0 I I #
edge $-1 $365 -27.350521780332706 $305 -5.4924447475291132 $304 $393 forward 7 unknown #
vertex $-1 $364 $394 #
straight-curve $-1 -43.772005044263615 -33.507661376696376 4.9412635823235149 0 0.71933979245794832 0.69465837861970381 I I #
point $-1 -43.772005044263615 -21.881208358324308 16.16879900788895 #
point $-1 -21.913928011460023 -33.507661376696383 4.9412635823235078 #
straight-curve $-1 0 -33.507661376696383 16.16879900788895 1 0 0 I I #
vertex $-1 $311 $395 #
point $-1 -29.842966527861819 -19.944097820147846 2.5293225226780534 #
straight-curve $-1 -61.361735892818999 33.507661376696383 0 0 0 -1 I I #
point $-1 -61.361735892818999 -33.507661376696383 -16.16879900788895 #
straight-curve $-1 -61.361735892818999 0 -16.16879900788895 0 1 0 I I #
point $-1 -61.361735892818999 33.507661376696383 -16.16879900788895 #
coedge $-1 $340 $339 $332 $377 reversed $246 $-1 #
edge $-1 $378 -33.507661376696383 $380 33.507661376696383 $376 $396 forward 7 unknown #
vertex $-1 $377 $397 #
straight-curve $-1 0 -33.507661376696383 -16.16879900788895 -1 0 0 I I #
vertex $-1 $335 $398 #
straight-curve $-1 0 33.507661376696383 -16.16879900788895 1 0 0 I I #
point $-1 -43.772005044263622 33.507661376696383 -16.16879900788895 #
straight-curve $-1 -61.361735892818999 33.507661376696383 0 0 0 -1 I I #
straight-curve $-1 -61.361735892818999 -33.507661376696383 0 0 0 -1 I I #
straight-curve $-1 41.753092672776788 33.507661376696383 69.239256771694443 0 0 -1 I I #
point $-1 41.753092672776788 33.507661376696383 16.16879900788895 #
straight-curve $-1 13.342047129899314 33.507661376696383 5.0208382215508287 -1 0 0 I I #
point $-1 41.753092672776788 33.507661376696383 5.0208382215508252 #
point $-1 20.225952082807979 21.136444092591169 3.8461152148815048 #
point $-1 33.142236436789261 21.136444092591169 3.8461152148815048 #
straight-curve $-1 -43.772005044263615 -33.507661376696383 46.610570153161618 0 0 -1 I I #
point $-1 -43.772005044263615 -33.507661376696383 16.16879900788895 #
straight-curve $-1 -16.421483263930909 -33.507661376696383 4.9412635823235034 1 0 0 I I #
point $-1 -43.772005044263615 -33.507661376696383 4.9412635823235078 #
point $-1 -32.842966527861819 -17.860122684288733 0.37130314530420816 #
straight-curve $-1 -61.361735892818999 0 -16.16879900788895 0 1 0 I I #
point $-1 -61.361735892818999 -33.507661376696383 -16.16879900788895 #
point $-1 -61.361735892818999 33.507661376696383 -16.16879900788895 #
End-of-ACIS-data 