500 0 8 0           
7 Unknown 11 ACIS 5.0 NT 24 Thu Mar 25 16:39:55 1999 
-1 9.9999999999999995e-007 1e-010 
body $-1 $8 $-1 $9 #
body $-1 $10 $-1 $11 #
body $-1 $12 $-1 $13 #
body $-1 $14 $-1 $15 #
body $-1 $16 $-1 $17 #
body $-1 $18 $-1 $19 #
body $-1 $20 $-1 $21 #
body $-1 $22 $-1 $23 #
lump $-1 $-1 $24 $0 #
transform $-1 1 0 0 0 1 0 0 0 1 57.609179967650377 39.093789603097022 9.6985813679487194 1 rotate no_reflect no_shear #
lump $-1 $-1 $25 $1 #
transform $-1 1 0 0 0 1 0 0 0 1 57.609179967650377 39.093789603097022 9.6985813679487194 1 rotate no_reflect no_shear #
lump $-1 $-1 $26 $2 #
transform $-1 1 0 0 0 1 0 0 0 1 57.609179967650377 39.093789603097022 9.6985813679487194 1 rotate no_reflect no_shear #
lump $-1 $-1 $27 $3 #
transform $-1 1 0 0 0 1 0 0 0 1 57.609179967650377 39.093789603097022 9.6985813679487194 1 rotate no_reflect no_shear #
lump $-1 $-1 $28 $4 #
transform $-1 1 0 0 0 1 0 0 0 1 57.609179967650377 39.093789603097022 9.6985813679487194 1 rotate no_reflect no_shear #
lump $-1 $-1 $29 $5 #
transform $-1 1 0 0 0 1 0 0 0 1 57.609179967650377 39.093789603097022 9.6985813679487194 1 rotate no_reflect no_shear #
lump $-1 $-1 $30 $6 #
transform $-1 1 0 0 0 1 0 0 0 1 57.609179967650377 39.093789603097022 9.6985813679487194 1 rotate no_reflect no_shear #
lump $-1 $-1 $31 $7 #
transform $-1 1 0 0 0 1 0 0 0 1 57.609179967650377 39.093789603097022 9.6985813679487194 1 rotate no_reflect no_shear #
shell $-1 $-1 $-1 $32 $-1 $8 #
shell $-1 $-1 $-1 $33 $-1 $10 #
shell $-1 $-1 $-1 $34 $-1 $12 #
shell $-1 $-1 $-1 $35 $-1 $14 #
shell $-1 $-1 $-1 $36 $-1 $16 #
shell $-1 $-1 $-1 $37 $-1 $18 #
shell $-1 $-1 $-1 $38 $-1 $20 #
shell $-1 $-1 $-1 $39 $-1 $22 #
face $-1 $40 $41 $24 $-1 $42 forward single #
face $-1 $43 $44 $25 $-1 $45 reversed single #
face $-1 $46 $47 $26 $-1 $48 reversed single #
face $-1 $49 $50 $27 $-1 $51 forward single #
face $-1 $52 $53 $28 $-1 $54 forward single #
face $-1 $55 $56 $29 $-1 $57 reversed single #
face $-1 $58 $59 $30 $-1 $60 forward single #
face $-1 $61 $62 $31 $-1 $63 forward single #
face $-1 $64 $65 $24 $-1 $66 reversed single #
loop $-1 $-1 $67 $32 #
plane-surface $-1 0 0 9.6985813679487194 0 0 1 1 0 0 forward_v I I I I #
face $-1 $68 $69 $25 $-1 $70 reversed single #
loop $-1 $-1 $71 $33 #
plane-surface $-1 0 -34.042698455520451 5.5116191097398826 0 0 1 1 0 0 forward_v I I I I #
face $-1 $72 $73 $26 $-1 $74 reversed single #
loop $-1 $-1 $75 $34 #
plane-surface $-1 88.700242486296602 34.702628550465661 162.14931274691719 0 -1 0 -0.82903758062907751 0 -0.55919289150049634 forward_v I I I I #
face $-1 $76 $77 $27 $-1 $78 forward single #
loop $-1 $79 $80 $35 #
cone-surface $-1 53.642716567342781 24.236571816609143 4.9795724313038647 -0.82903758062907751 0 -0.55919289150049634 0.55919289150049634 0 -0.82903758062907751 1 I I 0 1 1 forward I I I I #
face $-1 $81 $82 $28 $-1 $83 forward single #
loop $-1 $84 $85 $36 #
cone-surface $-1 53.642716567342781 30.516205856923051 4.9795724313038647 -0.82903758062907751 0 -0.55919289150049634 0.55919289150049634 0 -0.82903758062907751 1 I I 0 1 1 forward I I I I #
face $-1 $86 $87 $29 $-1 $88 reversed single #
loop $-1 $-1 $89 $37 #
plane-surface $-1 -57.609179967650377 -24.277243686568248 2.3020943261351619 -0.7660444514056185 0 0.64278759981090561 0.64278759981090561 0 0.7660444514056185 forward_v I I I I #
face $-1 $90 $91 $30 $-1 $92 forward single #
loop $-1 $93 $94 $38 #
cone-surface $-1 -53.186337117863054 -26.297685238586372 4.8930215945157265 0.7660444514056185 0 -0.64278759981090561 0.64278759981090561 0 0.7660444514056185 1 I I 0 1 1 forward I I I I #
face $-1 $95 $96 $31 $-1 $97 forward single #
loop $-1 $98 $99 $39 #
cone-surface $-1 -53.186337117863054 -22.256802134550121 4.8930215945157265 0.7660444514056185 0 -0.64278759981090561 0.64278759981090561 0 0.7660444514056185 1 I I 0 1 1 forward I I I I #
face $-1 $100 $101 $24 $-1 $102 reversed single #
loop $-1 $-1 $103 $40 #
plane-surface $-1 0 0 -9.6985813679487194 0 0 1 1 0 0 forward_v I I I I #
coedge $-1 $104 $105 $106 $107 forward $41 $-1 #
face $-1 $108 $109 $25 $-1 $110 reversed single #
loop $-1 $-1 $111 $43 #
plane-surface $-1 0 -28.991607307943877 7.605100238844301 0 -1 0 0 0 -1 forward_v I I I I #
coedge $-1 $112 $113 $114 $115 reversed $44 $-1 #
face $-1 $116 $117 $26 $-1 $118 reversed single #
loop $-1 $-1 $119 $46 #
plane-surface $-1 -6.8201078785153726 27.376388836766097 97.720024900751426 0.82903758062907751 0 0.55919289150049634 0.55919289150049634 0 -0.82903758062907751 forward_v I I I I #
coedge $-1 $120 $121 $122 $123 reversed $47 $-1 #
face $-1 $-1 $124 $27 $-1 $125 forward single #
loop $-1 $126 $127 $49 #
cone-surface $-1 51.790772560551915 24.236571816609143 3.7304204649134078 -0.82903758062907751 0 -0.55919289150049634 0.27959644575024817 0 -0.41451879031453875 1 I I -0.70710678118654779 0.70710678118654713 0.5 forward I I I I #
loop $-1 $-1 $128 $35 #
coedge $-1 $80 $80 $129 $130 reversed $50 $-1 #
face $-1 $-1 $131 $28 $-1 $132 forward single #
loop $-1 $133 $134 $52 #
cone-surface $-1 51.790772560551915 30.516205856923051 3.7304204649134078 -0.82903758062907751 0 -0.55919289150049634 0.27959644575024817 0 -0.41451879031453875 1 I I -0.70710678118654779 0.70710678118654713 0.5 forward I I I I #
loop $-1 $-1 $135 $36 #
coedge $-1 $85 $85 $136 $137 reversed $53 $-1 #
face $-1 $138 $139 $29 $-1 $140 forward single #
loop $-1 $-1 $141 $55 #
plane-surface $-1 -145.87156529614293 -19.562880065192623 76.363027363096137 0 -1 0 0.7660444514056185 0 -0.64278759981090561 forward_v I I I I #
coedge $-1 $142 $143 $144 $145 reversed $56 $-1 #
face $-1 $-1 $146 $30 $-1 $147 forward single #
loop $-1 $148 $149 $58 #
cone-surface $-1 -51.48366673552421 -26.297685238586372 3.4643115420840687 0.7660444514056185 0 -0.64278759981090561 0.3213937999054528 0 0.38302222570280925 1 I I -0.70710678118654746 0.70710678118654746 0.5 forward I I I I #
loop $-1 $-1 $150 $38 #
coedge $-1 $94 $94 $151 $152 reversed $59 $-1 #
face $-1 $-1 $153 $31 $-1 $154 forward single #
loop $-1 $155 $156 $61 #
cone-surface $-1 -51.48366673552421 -22.256802134550121 3.4643115420840687 0.7660444514056185 0 -0.64278759981090561 0.3213937999054528 0 0.38302222570280925 1 I I -0.70710678118654746 0.70710678118654746 0.5 forward I I I I #
loop $-1 $-1 $157 $39 #
coedge $-1 $99 $99 $158 $159 reversed $62 $-1 #
face $-1 $160 $161 $24 $-1 $162 reversed single #
loop $-1 $-1 $163 $64 #
plane-surface $-1 0 -39.093789603097022 0 0 1 0 0 0 1 forward_v I I I I #
coedge $-1 $164 $165 $166 $167 forward $65 $-1 #
coedge $-1 $168 $67 $169 $170 forward $41 $-1 #
coedge $-1 $67 $168 $171 $172 forward $41 $-1 #
coedge $-1 $173 $174 $67 $107 reversed $175 $-1 #
edge $-1 $176 -39.093789603097022 $177 39.093789603097022 $106 $178 forward 7 unknown #
face $-1 $179 $180 $25 $-1 $181 reversed single #
loop $-1 $-1 $182 $68 #
plane-surface $-1 -57.609179967650377 0 0 1 0 0 0 0 -1 forward_v I I I I #
coedge $-1 $183 $184 $185 $186 reversed $69 $-1 #
coedge $-1 $187 $71 $188 $189 reversed $44 $-1 #
coedge $-1 $71 $187 $183 $190 forward $44 $-1 #
coedge $-1 $185 $191 $71 $115 forward $192 $-1 #
edge $-1 $193 -22.072440375336797 $194 -11.970258080183651 $114 $195 forward 7 unknown #
face $-1 $196 $197 $26 $-1 $198 reversed single #
loop $-1 $-1 $199 $72 #
plane-surface $-1 88.700242486296602 20.050149123066532 162.14931274691719 0 1 0 0.82903758062907751 0 0.55919289150049634 forward_v I I I I #
coedge $-1 $200 $201 $202 $203 reversed $73 $-1 #
coedge $-1 $121 $75 $204 $205 reversed $47 $-1 #
coedge $-1 $75 $120 $200 $206 reversed $47 $-1 #
coedge $-1 $202 $207 $75 $123 forward $208 $-1 #
edge $-1 $209 -13.259058724502076 $210 -8.2009823568395248 $122 $211 forward 7 unknown #
loop $-1 $-1 $129 $76 #
plane-surface $-1 -6.8201078785153726 27.376388836766097 97.720024900751426 0.82903758062907751 0 0.55919289150049634 0.55919289150049634 0 -0.82903758062907751 forward_v I I I I #
loop $-1 $-1 $212 $49 #
coedge $-1 $127 $127 $128 $213 reversed $77 $-1 #
coedge $-1 $128 $128 $127 $213 forward $79 $-1 #
coedge $-1 $129 $129 $80 $130 forward $124 $-1 #
edge $-1 $214 0 $214 6.2831853071796004 $129 $215 forward 7 unknown #
loop $-1 $-1 $136 $81 #
plane-surface $-1 -6.8201078785153726 27.376388836766097 97.720024900751426 0.82903758062907751 0 0.55919289150049634 0.55919289150049634 0 -0.82903758062907751 forward_v I I I I #
loop $-1 $-1 $216 $52 #
coedge $-1 $134 $134 $135 $217 reversed $82 $-1 #
coedge $-1 $135 $135 $134 $217 forward $84 $-1 #
coedge $-1 $136 $136 $85 $137 forward $131 $-1 #
edge $-1 $218 0 $218 6.2831853071796004 $136 $219 forward 7 unknown #
face $-1 $220 $221 $29 $-1 $222 reversed single #
loop $-1 $-1 $144 $86 #
plane-surface $-1 0 0 9.6985813679487194 0 0 1 1 0 0 forward_v I I I I #
coedge $-1 $223 $224 $225 $226 reversed $87 $-1 #
coedge $-1 $227 $89 $228 $229 reversed $56 $-1 #
coedge $-1 $89 $227 $223 $230 forward $56 $-1 #
coedge $-1 $225 $231 $89 $145 forward $139 $-1 #
edge $-1 $232 -16.852985464659749 $233 -7.4242582219084987 $144 $234 forward 7 unknown #
loop $-1 $-1 $151 $90 #
plane-surface $-1 -57.609179967650377 -24.277243686568248 2.3020943261351619 -0.7660444514056185 0 0.64278759981090561 0.64278759981090561 0 0.7660444514056185 forward_v I I I I #
loop $-1 $-1 $235 $58 #
coedge $-1 $149 $149 $150 $236 reversed $91 $-1 #
coedge $-1 $150 $150 $149 $236 forward $93 $-1 #
coedge $-1 $151 $151 $94 $152 forward $146 $-1 #
edge $-1 $237 0 $237 6.2831853071796004 $151 $238 forward 7 unknown #
loop $-1 $-1 $158 $95 #
plane-surface $-1 -57.609179967650377 -24.277243686568248 2.3020943261351619 -0.7660444514056185 0 0.64278759981090561 0.64278759981090561 0 0.7660444514056185 forward_v I I I I #
loop $-1 $-1 $239 $61 #
coedge $-1 $156 $156 $157 $240 reversed $96 $-1 #
coedge $-1 $157 $157 $156 $240 forward $98 $-1 #
coedge $-1 $158 $158 $99 $159 forward $153 $-1 #
edge $-1 $241 0 $241 6.2831853071796004 $158 $242 forward 7 unknown #
face $-1 $243 $244 $24 $-1 $245 reversed single #
loop $-1 $-1 $246 $100 #
plane-surface $-1 -57.609179967650377 0 0 1 0 0 0 0 -1 forward_v I I I I #
coedge $-1 $247 $171 $248 $249 forward $101 $-1 #
coedge $-1 $250 $103 $247 $251 forward $65 $-1 #
coedge $-1 $103 $250 $252 $253 forward $65 $-1 #
coedge $-1 $174 $173 $103 $167 reversed $175 $-1 #
edge $-1 $254 -39.093789603097022 $255 39.093789603097022 $166 $256 forward 7 unknown #
coedge $-1 $105 $104 $257 $258 forward $41 $-1 #
coedge $-1 $259 $260 $104 $170 reversed $244 $-1 #
edge $-1 $177 -57.609179967650377 $261 57.609179967650377 $169 $262 forward 7 unknown #
coedge $-1 $163 $263 $105 $172 reversed $101 $-1 #
edge $-1 $264 -57.609179967650377 $176 57.609179967650377 $171 $265 forward 7 unknown #
coedge $-1 $166 $106 $263 $266 forward $175 $-1 #
coedge $-1 $106 $166 $259 $267 reversed $175 $-1 #
loop $-1 $-1 $173 $243 #
vertex $-1 $107 $268 #
vertex $-1 $107 $269 #
straight-curve $-1 57.609179967650377 0 9.6985813679487194 0 1 0 I I #
face $-1 $270 $271 $25 $-1 $272 forward single #
loop $-1 $-1 $188 $108 #
plane-surface $-1 0 -39.093789603097022 0 0 1 0 0 0 1 forward_v I I I I #
coedge $-1 $273 $274 $275 $276 forward $109 $-1 #
coedge $-1 $275 $111 $113 $190 reversed $69 $-1 #
coedge $-1 $111 $275 $277 $278 reversed $69 $-1 #
coedge $-1 $279 $114 $111 $186 forward $192 $-1 #
edge $-1 $194 1.7090689903177321 $280 5.8960312485265689 $185 $281 forward 7 unknown #
coedge $-1 $113 $112 $273 $282 reversed $44 $-1 #
coedge $-1 $283 $284 $112 $189 forward $180 $-1 #
edge $-1 $285 -57.609179967650377 $193 57.609179967650377 $188 $286 forward 7 unknown #
edge $-1 $287 -57.609179967650377 $194 57.609179967650377 $183 $288 forward 7 unknown #
coedge $-1 $114 $279 $283 $289 forward $192 $-1 #
loop $-1 $-1 $185 $270 #
vertex $-1 $189 $290 #
vertex $-1 $115 $291 #
straight-curve $-1 57.609179967650377 -17.021349227760226 5.5116191097398826 0 1 0 I I #
face $-1 $-1 $208 $26 $-1 $292 forward single #
loop $-1 $-1 $293 $116 #
plane-surface $-1 57.609179967650377 0 0 -1 0 0 0 0 1 forward_v I I I I #
coedge $-1 $294 $295 $296 $297 reversed $117 $-1 #
coedge $-1 $298 $119 $121 $206 forward $73 $-1 #
coedge $-1 $119 $298 $294 $299 forward $73 $-1 #
coedge $-1 $296 $122 $119 $203 forward $208 $-1 #
edge $-1 $210 -21.014434132082613 $300 -6.3619547046834839 $202 $301 forward 7 unknown #
coedge $-1 $302 $303 $120 $205 forward $197 $-1 #
edge $-1 $304 -78.874981837519115 $209 -71.376075005509875 $204 $305 forward 7 unknown #
edge $-1 $210 106.17304400846538 $304 115.21835993530073 $121 $306 forward 7 unknown #
coedge $-1 $122 $296 $302 $307 forward $208 $-1 #
loop $-1 $-1 $296 $196 #
vertex $-1 $205 $308 #
vertex $-1 $123 $309 #
straight-curve $-1 44.350121243148301 34.702628550465661 9.6985813679487194 -1 0 0 I I #
coedge $-1 $212 $212 $-1 $310 reversed $126 $-1 #
edge $-1 $311 0 $311 6.2831853071796004 $127 $312 forward 7 unknown #
vertex $-1 $130 $313 #
ellipse-curve $-1 55.080141783819116 24.236571816609143 5.9491279519440807 0.82903758062907751 0 0.55919289150049634 0.55919289150049634 0 -0.82903758062907751 1 I I #
coedge $-1 $216 $216 $-1 $314 reversed $133 $-1 #
edge $-1 $315 0 $315 6.2831853071796004 $134 $316 forward 7 unknown #
vertex $-1 $137 $317 #
ellipse-curve $-1 55.080141783819116 30.516205856923051 5.9491279519440807 0.82903758062907751 0 0.55919289150049634 0.55919289150049634 0 -0.82903758062907751 1 I I #
face $-1 $-1 $318 $29 $-1 $319 forward single #
loop $-1 $-1 $320 $138 #
plane-surface $-1 -57.609179967650377 0 0 1 0 0 0 0 -1 forward_v I I I I #
coedge $-1 $224 $141 $143 $230 reversed $87 $-1 #
coedge $-1 $141 $223 $320 $321 reversed $87 $-1 #
coedge $-1 $322 $144 $141 $226 forward $139 $-1 #
edge $-1 $233 -21.532992066723658 $323 -15.32660268042109 $225 $324 forward 7 unknown #
coedge $-1 $143 $142 $325 $326 reversed $56 $-1 #
coedge $-1 $327 $328 $142 $229 forward $318 $-1 #
edge $-1 $329 -20.546402386841262 $232 -10.890974391453121 $228 $330 forward 7 unknown #
edge $-1 $331 0 $233 9.655427995388143 $223 $332 forward 7 unknown #
coedge $-1 $144 $322 $327 $333 forward $139 $-1 #
vertex $-1 $229 $334 #
vertex $-1 $145 $335 #
straight-curve $-1 -51.402790581347816 -12.138621843284124 9.6985813679487194 0 1 0 I I #
coedge $-1 $235 $235 $-1 $336 reversed $148 $-1 #
edge $-1 $337 0 $337 6.2831853071796004 $149 $338 forward 7 unknown #
vertex $-1 $152 $339 #
ellipse-curve $-1 -54.505985274499096 -26.297685238586372 6.0003378470419388 -0.7660444514056185 0 0.64278759981090561 0.64278759981090561 0 0.7660444514056185 1 I I #
coedge $-1 $239 $239 $-1 $340 reversed $155 $-1 #
edge $-1 $341 0 $341 6.2831853071796004 $156 $342 forward 7 unknown #
vertex $-1 $159 $343 #
ellipse-curve $-1 -54.505985274499096 -22.256802134550121 6.0003378470419388 -0.7660444514056185 0 0.64278759981090561 0.64278759981090561 0 0.7660444514056185 1 I I #
face $-1 $-1 $175 $24 $-1 $344 reversed single #
loop $-1 $-1 $259 $160 #
plane-surface $-1 0 39.093789603097022 0 0 -1 0 0 0 -1 forward_v I I I I #
coedge $-1 $345 $257 $260 $346 forward $161 $-1 #
coedge $-1 $263 $163 $164 $251 reversed $101 $-1 #
coedge $-1 $257 $345 $163 $249 reversed $161 $-1 #
edge $-1 $264 -9.6985813679487194 $347 9.6985813679487194 $248 $348 forward 7 unknown #
coedge $-1 $165 $164 $345 $349 forward $65 $-1 #
edge $-1 $255 -57.609179967650377 $347 57.609179967650377 $247 $350 forward 7 unknown #
coedge $-1 $260 $259 $165 $253 reversed $244 $-1 #
edge $-1 $351 -57.609179967650377 $254 57.609179967650377 $252 $352 forward 7 unknown #
vertex $-1 $167 $353 #
vertex $-1 $266 $354 #
straight-curve $-1 57.609179967650377 0 -9.6985813679487194 0 -1 0 I I #
coedge $-1 $246 $248 $168 $258 reversed $161 $-1 #
edge $-1 $261 -39.093789603097022 $264 39.093789603097022 $257 $355 forward 7 unknown #
coedge $-1 $252 $169 $174 $267 forward $244 $-1 #
coedge $-1 $169 $252 $246 $346 reversed $244 $-1 #
vertex $-1 $170 $356 #
straight-curve $-1 0 39.093789603097022 9.6985813679487194 -1 0 0 I I #
coedge $-1 $171 $247 $173 $266 reversed $101 $-1 #
vertex $-1 $258 $357 #
straight-curve $-1 0 -39.093789603097022 9.6985813679487194 1 0 0 I I #
edge $-1 $176 -9.6985813679487194 $255 9.6985813679487194 $173 $358 forward 7 unknown #
edge $-1 $177 -9.6985813679487194 $254 9.6985813679487194 $174 $359 forward 7 unknown #
point $-1 57.609179967650377 -39.093789603097022 9.6985813679487194 #
point $-1 57.609179967650377 39.093789603097022 9.6985813679487194 #
face $-1 $-1 $192 $25 $-1 $360 reversed single #
loop $-1 $-1 $277 $179 #
plane-surface $-1 0 0 9.6985813679487194 0 0 1 1 0 0 forward_v I I I I #
coedge $-1 $361 $182 $187 $282 forward $109 $-1 #
coedge $-1 $182 $361 $362 $363 reversed $109 $-1 #
coedge $-1 $184 $183 $182 $276 reversed $69 $-1 #
edge $-1 $364 -5.8960312485265689 $287 -1.7090689903177321 $182 $365 forward 7 unknown #
coedge $-1 $362 $366 $184 $278 forward $271 $-1 #
edge $-1 $280 -57.609179967650377 $364 57.609179967650377 $277 $367 forward 7 unknown #
coedge $-1 $191 $185 $366 $368 reversed $192 $-1 #
vertex $-1 $186 $369 #
straight-curve $-1 57.609179967650377 -28.991607307943877 3.8025501194221505 0 0 1 I I #
edge $-1 $287 11.970258080183651 $285 22.072440375336797 $273 $370 forward 7 unknown #
coedge $-1 $371 $188 $191 $289 reversed $180 $-1 #
coedge $-1 $188 $371 $361 $372 forward $180 $-1 #
vertex $-1 $189 $373 #
straight-curve $-1 0 -39.093789603097022 5.5116191097398826 1 0 0 I I #
vertex $-1 $282 $374 #
straight-curve $-1 0 -28.991607307943877 5.5116191097398826 1 0 0 I I #
edge $-1 $375 -9.6985813679487194 $193 -5.5116191097398826 $191 $376 forward 7 unknown #
point $-1 57.609179967650377 -39.093789603097022 5.5116191097398826 #
point $-1 57.609179967650377 -28.991607307943877 5.5116191097398826 #
plane-surface $-1 0 0 9.6985813679487194 0 0 1 1 0 0 forward_v I I I I #
coedge $-1 $303 $302 $295 $377 forward $197 $-1 #
coedge $-1 $295 $199 $201 $299 reversed $117 $-1 #
coedge $-1 $199 $294 $293 $377 reversed $117 $-1 #
coedge $-1 $207 $202 $199 $297 forward $208 $-1 #
edge $-1 $300 8.2009823568395248 $378 13.259058724502076 $296 $379 forward 7 unknown #
coedge $-1 $201 $200 $303 $380 reversed $73 $-1 #
edge $-1 $381 -115.21835993530073 $300 -106.17304400846538 $294 $382 forward 7 unknown #
vertex $-1 $203 $383 #
straight-curve $-1 52.551103599987826 13.688194418383048 9.6985813679487194 0 -1 0 I I #
coedge $-1 $293 $204 $207 $307 reversed $197 $-1 #
coedge $-1 $204 $293 $298 $380 forward $197 $-1 #
vertex $-1 $205 $384 #
straight-curve $-1 57.609179967650377 34.702628550465661 81.074656373458595 0 0 1 I I #
straight-curve $-1 -6.8201078785153726 34.702628550465661 97.720024900751426 0.55919289150049634 0 -0.82903758062907751 I I #
edge $-1 $378 20.050149123066532 $209 34.702628550465661 $302 $385 forward 7 unknown #
point $-1 57.609179967650377 34.702628550465661 9.6985813679487194 #
point $-1 52.551103599987826 34.702628550465661 9.6985813679487194 #
edge $-1 $386 1 $386 0 $212 $-1 forward 7 unknown #
vertex $-1 $213 $387 #
ellipse-curve $-1 52.205291350866453 24.236571816609143 4.0100169106636558 0.82903758062907751 0 0.55919289150049634 0.55919289150049634 0 -0.82903758062907751 1 I I #
point $-1 55.639334675319603 24.236571816609143 5.120090371314995 #
edge $-1 $388 1 $388 0 $216 $-1 forward 7 unknown #
vertex $-1 $217 $389 #
ellipse-curve $-1 52.205291350866453 30.516205856923051 4.0100169106636558 0.82903758062907751 0 0.55919289150049634 0.55919289150049634 0 -0.82903758062907751 1 I I #
point $-1 55.639334675319603 30.516205856923051 5.120090371314995 #
loop $-1 $-1 $228 $220 #
plane-surface $-1 0 -28.991607307943877 7.605100238844301 0 -1 0 0 0 -1 forward_v I I I I #
coedge $-1 $325 $390 $224 $321 forward $221 $-1 #
edge $-1 $323 28.482932313599349 $331 35.879419355412907 $320 $391 forward 7 unknown #
coedge $-1 $231 $225 $390 $392 forward $139 $-1 #
vertex $-1 $392 $393 #
straight-curve $-1 -72.935782648071466 -19.562880065192623 9.6985813679487194 -1 0 0 I I #
coedge $-1 $394 $320 $227 $326 forward $221 $-1 #
edge $-1 $331 7.4242582219084987 $329 16.852985464659749 $325 $395 forward 7 unknown #
coedge $-1 $328 $228 $231 $333 reversed $318 $-1 #
coedge $-1 $228 $327 $394 $396 reversed $318 $-1 #
vertex $-1 $396 $397 #
straight-curve $-1 -44.402207292663618 -28.991607307943877 18.041551870922063 0.64278759981090572 0 0.76604445140561861 I I #
vertex $-1 $326 $398 #
straight-curve $-1 -57.609179967650377 -19.562880065192623 2.3020943261351619 0.64278759981090561 0 0.7660444514056185 I I #
edge $-1 $399 -57.609179967650377 $232 -51.402790581347809 $231 $400 forward 7 unknown #
point $-1 -51.402790581347809 -28.991607307943873 9.6985813679487194 #
point $-1 -51.402790581347809 -19.562880065192623 9.6985813679487194 #
edge $-1 $401 1 $401 0 $235 $-1 forward 7 unknown #
vertex $-1 $236 $402 #
ellipse-curve $-1 -51.86668896122702 -26.297685238586372 3.7857053419895212 -0.7660444514056185 0 0.64278759981090561 0.64278759981090561 0 0.7660444514056185 1 I I #
point $-1 -53.86319767468818 -26.297685238586372 6.7663822984475512 #
edge $-1 $403 1 $403 0 $239 $-1 forward 7 unknown #
vertex $-1 $240 $404 #
ellipse-curve $-1 -51.86668896122702 -22.256802134550121 3.7857053419895212 -0.7660444514056185 0 0.64278759981090561 0.64278759981090561 0 0.7660444514056185 1 I I #
point $-1 -53.86319767468818 -22.256802134550121 6.7663822984475512 #
plane-surface $-1 57.609179967650377 0 0 -1 0 0 0 0 1 forward_v I I I I #
coedge $-1 $248 $246 $250 $349 reversed $161 $-1 #
edge $-1 $261 -9.6985813679487194 $351 9.6985813679487194 $260 $405 forward 7 unknown #
vertex $-1 $349 $406 #
straight-curve $-1 -57.609179967650377 -39.093789603097022 0 0 0 -1 I I #
edge $-1 $347 -39.093789603097022 $351 39.093789603097022 $345 $407 forward 7 unknown #
straight-curve $-1 0 -39.093789603097022 -9.6985813679487194 -1 0 0 I I #
vertex $-1 $253 $408 #
straight-curve $-1 0 39.093789603097022 -9.6985813679487194 1 0 0 I I #
point $-1 57.609179967650377 39.093789603097022 -9.6985813679487194 #
point $-1 57.609179967650377 -39.093789603097022 -9.6985813679487194 #
straight-curve $-1 -57.609179967650377 0 9.6985813679487194 0 -1 0 I I #
point $-1 -57.609179967650377 39.093789603097022 9.6985813679487194 #
point $-1 -57.609179967650377 -39.093789603097022 9.6985813679487194 #
straight-curve $-1 57.609179967650377 -39.093789603097022 0 0 0 -1 I I #
straight-curve $-1 57.609179967650377 39.093789603097022 0 0 0 -1 I I #
plane-surface $-1 57.609179967650377 0 0 -1 0 0 0 0 1 forward_v I I I I #
coedge $-1 $274 $273 $284 $372 reversed $109 $-1 #
coedge $-1 $409 $277 $274 $363 forward $271 $-1 #
edge $-1 $364 28.991607307943877 $410 39.093789603097022 $274 $411 forward 7 unknown #
vertex $-1 $363 $412 #
straight-curve $-1 -57.609179967650377 -28.991607307943877 3.8025501194221505 0 0 -1 I I #
coedge $-1 $277 $409 $279 $368 forward $271 $-1 #
straight-curve $-1 0 -28.991607307943877 9.6985813679487194 -1 0 0 I I #
edge $-1 $375 -39.093789603097022 $280 -28.991607307943877 $279 $413 forward 7 unknown #
point $-1 57.609179967650377 -28.991607307943877 9.6985813679487194 #
straight-curve $-1 -57.609179967650377 -17.021349227760226 5.5116191097398826 0 -1 0 I I #
coedge $-1 $284 $283 $409 $414 reversed $180 $-1 #
edge $-1 $410 -9.6985813679487194 $285 -5.5116191097398826 $361 $415 forward 7 unknown #
point $-1 -57.609179967650377 -39.093789603097022 5.5116191097398826 #
point $-1 -57.609179967650377 -28.991607307943877 5.5116191097398826 #
vertex $-1 $368 $416 #
straight-curve $-1 57.609179967650377 -39.093789603097022 0 0 0 -1 I I #
edge $-1 $378 71.376075005509875 $381 78.874981837519115 $293 $417 forward 7 unknown #
vertex $-1 $307 $418 #
straight-curve $-1 44.350121243148301 20.050149123066532 9.6985813679487194 1 0 0 I I #
edge $-1 $381 6.3619547046834839 $304 21.014434132082613 $303 $419 forward 7 unknown #
vertex $-1 $380 $420 #
straight-curve $-1 -6.8201078785153726 20.050149123066532 97.720024900751426 -0.55919289150049634 0 0.82903758062907751 I I #
point $-1 52.551103599987826 20.050149123066532 9.6985813679487194 #
point $-1 57.609179967650377 34.702628550465661 2.1996745359394794 #
straight-curve $-1 57.609179967650377 0 9.6985813679487194 0 1 0 I I #
vertex $-1 $310 $421 #
point $-1 52.764484242366947 24.236571816609143 3.1809793300345781 #
vertex $-1 $314 $422 #
point $-1 52.764484242366947 30.516205856923051 3.1809793300345781 #
coedge $-1 $320 $394 $322 $392 reversed $221 $-1 #
straight-curve $-1 -57.609179967650377 -19.562880065192623 38.181513681548068 0 0 -1 I I #
edge $-1 $323 19.562880065192623 $399 28.991607307943877 $390 $423 forward 7 unknown #
point $-1 -57.609179967650377 -19.562880065192623 9.6985813679487194 #
coedge $-1 $390 $325 $328 $396 forward $221 $-1 #
straight-curve $-1 -57.609179967650377 -12.138621843284124 2.3020943261351645 0 -1 0 I I #
edge $-1 $329 -35.879419355412907 $399 -28.482932313599349 $394 $424 forward 7 unknown #
point $-1 -57.609179967650377 -28.991607307943873 2.3020943261351619 #
point $-1 -57.609179967650377 -19.562880065192623 2.3020943261351619 #
vertex $-1 $396 $425 #
straight-curve $-1 0 -28.991607307943877 9.6985813679487194 1 0 0 I I #
vertex $-1 $336 $426 #
point $-1 -51.223901361416111 -26.297685238586372 4.5517497933951399 #
vertex $-1 $340 $427 #
point $-1 -51.223901361416111 -22.256802134550121 4.5517497933951399 #
straight-curve $-1 -57.609179967650377 39.093789603097022 0 0 0 -1 I I #
point $-1 -57.609179967650377 -39.093789603097022 -9.6985813679487194 #
straight-curve $-1 -57.609179967650377 0 -9.6985813679487194 0 1 0 I I #
point $-1 -57.609179967650377 39.093789603097022 -9.6985813679487194 #
coedge $-1 $366 $362 $371 $414 forward $271 $-1 #
vertex $-1 $363 $428 #
straight-curve $-1 -57.609179967650377 0 9.6985813679487194 0 -1 0 I I #
point $-1 -57.609179967650377 -28.991607307943877 9.6985813679487194 #
straight-curve $-1 57.609179967650377 0 9.6985813679487194 0 1 0 I I #
edge $-1 $410 -57.609179967650377 $375 57.609179967650377 $371 $429 forward 7 unknown #
straight-curve $-1 -57.609179967650377 -39.093789603097022 0 0 0 -1 I I #
point $-1 57.609179967650377 -39.093789603097022 9.6985813679487194 #
straight-curve $-1 57.609179967650377 20.050149123066532 81.074656373458595 0 0 -1 I I #
point $-1 57.609179967650377 20.050149123066532 9.6985813679487194 #
straight-curve $-1 57.609179967650377 13.688194418383048 2.1996745359394723 0 1 0 I I #
point $-1 57.609179967650377 20.050149123066532 2.1996745359394794 #
point $-1 51.376253770237376 24.236571816609143 3.4508240191631598 #
point $-1 51.376253770237376 30.516205856923051 3.4508240191631598 #
straight-curve $-1 -57.609179967650377 0 9.6985813679487194 0 -1 0 I I #
straight-curve $-1 -57.609179967650377 -28.991607307943873 38.181513681548068 0 0 1 I I #
point $-1 -57.609179967650377 -28.991607307943877 9.6985813679487194 #
point $-1 -51.1006445098214 -26.297685238586372 3.1429177421786161 #
point $-1 -51.1006445098214 -22.256802134550121 3.1429177421786161 #
point $-1 -57.609179967650377 -39.093789603097022 9.6985813679487194 #
straight-curve $-1 0 -39.093789603097022 9.6985813679487194 1 0 0 I I #
End-of-ACIS-data 