500 0 9 0           
7 Unknown 11 ACIS 5.0 NT 24 Thu Mar 25 18:02:01 1999 
-1 9.9999999999999995e-007 1e-010 
body $-1 $9 $-1 $10 #
body $-1 $11 $-1 $12 #
body $-1 $13 $-1 $14 #
body $-1 $15 $-1 $16 #
body $-1 $17 $-1 $18 #
body $-1 $19 $-1 $20 #
body $-1 $21 $-1 $22 #
body $-1 $23 $-1 $24 #
body $-1 $25 $-1 $26 #
lump $-1 $-1 $27 $0 #
transform $-1 1 0 0 0 1 0 0 0 1 45.548265022736288 21.683070369080305 7.7509680941213563 1 rotate no_reflect no_shear #
lump $-1 $-1 $28 $1 #
transform $-1 1 0 0 0 1 0 0 0 1 45.548265022736288 21.683070369080305 7.7509680941213563 1 rotate no_reflect no_shear #
lump $-1 $-1 $29 $2 #
transform $-1 1 0 0 0 1 0 0 0 1 45.548265022736288 21.683070369080305 7.7509680941213563 1 rotate no_reflect no_shear #
lump $-1 $-1 $30 $3 #
transform $-1 1 0 0 0 1 0 0 0 1 45.548265022736288 21.683070369080305 7.7509680941213563 1 rotate no_reflect no_shear #
lump $-1 $-1 $31 $4 #
transform $-1 1 0 0 0 1 0 0 0 1 45.548265022736288 21.683070369080305 7.7509680941213563 1 rotate no_reflect no_shear #
lump $-1 $-1 $32 $5 #
transform $-1 1 0 0 0 1 0 0 0 1 45.548265022736288 21.683070369080305 7.7509680941213563 1 rotate no_reflect no_shear #
lump $-1 $-1 $33 $6 #
transform $-1 1 0 0 0 1 0 0 0 1 45.548265022736288 21.683070369080305 7.7509680941213563 1 rotate no_reflect no_shear #
lump $-1 $-1 $34 $7 #
transform $-1 1 0 0 0 1 0 0 0 1 45.548265022736288 21.683070369080305 7.7509680941213563 1 rotate no_reflect no_shear #
lump $-1 $-1 $35 $8 #
transform $-1 1 0 0 0 1 0 0 0 1 45.548265022736288 21.683070369080305 7.7509680941213563 1 rotate no_reflect no_shear #
shell $-1 $-1 $-1 $36 $-1 $9 #
shell $-1 $-1 $-1 $37 $-1 $11 #
shell $-1 $-1 $-1 $38 $-1 $13 #
shell $-1 $-1 $-1 $39 $-1 $15 #
shell $-1 $-1 $-1 $40 $-1 $17 #
shell $-1 $-1 $-1 $41 $-1 $19 #
shell $-1 $-1 $-1 $42 $-1 $21 #
shell $-1 $-1 $-1 $43 $-1 $23 #
shell $-1 $-1 $-1 $44 $-1 $25 #
face $-1 $45 $46 $27 $-1 $47 forward single #
face $-1 $48 $49 $28 $-1 $50 reversed single #
face $-1 $51 $52 $29 $-1 $53 reversed single #
face $-1 $54 $55 $30 $-1 $56 forward single #
face $-1 $57 $58 $31 $-1 $59 reversed single #
face $-1 $60 $61 $32 $-1 $62 forward single #
face $-1 $63 $64 $33 $-1 $65 reversed single #
face $-1 $66 $67 $34 $-1 $68 forward single #
face $-1 $69 $70 $35 $-1 $71 forward single #
face $-1 $72 $73 $27 $-1 $74 reversed single #
loop $-1 $-1 $75 $36 #
plane-surface $-1 0 0 7.7509680941213563 0 0 1 1 0 0 forward_v I I I I #
face $-1 $76 $77 $28 $-1 $78 reversed single #
loop $-1 $-1 $79 $37 #
plane-surface $-1 -42.818945891105578 -19.243474609109541 0 0 1 0 0 0 1 forward_v I I I I #
face $-1 $80 $81 $29 $-1 $82 reversed single #
loop $-1 $-1 $83 $38 #
plane-surface $-1 -17.584702429609507 -87.212430854071187 63.635617907555805 -1 0 0 0 -0.71933980857756763 0.69465836192734942 forward_v I I I I #
face $-1 $84 $85 $30 $-1 $86 forward single #
loop $-1 $87 $88 $39 #
cone-surface $-1 -27.730010491607302 -17.086894428382003 3.0630695353315058 0 0.71933980857756763 -0.69465836192734942 1.5 0 0 1 I I 0 1 1.5 forward I I I I #
face $-1 $89 $90 $31 $-1 $91 reversed single #
loop $-1 $-1 $92 $40 #
plane-surface $-1 25.234243461496071 -87.212430854071187 63.635617907555805 -1 0 0 0 -0.71933980857756763 0.69465836192734942 forward_v I I I I #
face $-1 $93 $94 $32 $-1 $95 forward single #
loop $-1 $96 $97 $41 #
cone-surface $-1 15.088935399498276 -17.086894428382003 3.0630695353315058 0 0.71933980857756763 -0.69465836192734942 1.5 0 0 1 I I 0 1 1.5 forward I I I I #
face $-1 $98 $99 $33 $-1 $100 reversed single #
loop $-1 $-1 $101 $42 #
plane-surface $-1 0.82652458676678009 75.956757119877665 87.478712255393688 1 0 0 0 -0.84804810408105047 -0.52991925155115449 forward_v I I I I #
face $-1 $102 $103 $34 $-1 $104 forward single #
loop $-1 $105 $106 $43 #
cone-surface $-1 7.7660728230116334 19.547038986230667 4.7940528125967523 0 -0.84804810408105047 -0.52991925155115449 1 0 0 1 I I 0 1 1 forward I I I I #
face $-1 $107 $108 $35 $-1 $109 forward single #
loop $-1 $110 $111 $44 #
cone-surface $-1 18.175395177378917 19.547038986230667 4.7940528125967523 0 -0.84804810408105047 -0.52991925155115449 1 0 0 1 I I 0 1 1 forward I I I I #
face $-1 $112 $113 $27 $-1 $114 reversed single #
loop $-1 $-1 $115 $45 #
plane-surface $-1 0 0 -7.7509680941213563 0 0 1 1 0 0 forward_v I I I I #
coedge $-1 $116 $117 $118 $119 forward $46 $-1 #
face $-1 $120 $121 $28 $-1 $122 reversed single #
loop $-1 $-1 $123 $48 #
plane-surface $-1 -42.818945891105578 -15.593018668007225 0 0 -1 0 0 0 -1 forward_v I I I I #
coedge $-1 $124 $125 $126 $127 reversed $49 $-1 #
face $-1 $128 $129 $29 $-1 $130 reversed single #
loop $-1 $-1 $131 $51 #
plane-surface $-1 -27.730010491607302 -21.683070369080312 0.35465156890225558 0 -0.71933980857756763 0.69465836192734942 1 0 0 forward_v I I I I #
coedge $-1 $132 $133 $134 $135 reversed $52 $-1 #
face $-1 $-1 $136 $30 $-1 $137 forward single #
loop $-1 $138 $139 $54 #
cone-surface $-1 -27.730010491607302 -15.522483468147676 1.5523354677056833 0 0.71933980857756763 -0.69465836192734942 0.75 0 0 1 I I -0.70710678118654757 0.70710678118654757 0.75 forward I I I I #
loop $-1 $-1 $140 $39 #
coedge $-1 $88 $88 $141 $142 reversed $55 $-1 #
face $-1 $143 $144 $31 $-1 $145 reversed single #
loop $-1 $-1 $146 $57 #
plane-surface $-1 15.088935399498276 -21.683070369080312 0.35465156890225558 0 -0.71933980857756763 0.69465836192734942 1 0 0 forward_v I I I I #
coedge $-1 $147 $148 $149 $150 reversed $58 $-1 #
face $-1 $-1 $151 $32 $-1 $152 forward single #
loop $-1 $153 $154 $60 #
cone-surface $-1 15.088935399498276 -15.522483468147676 1.5523354677056833 0 0.71933980857756763 -0.69465836192734942 0.75 0 0 1 I I -0.70710678118654757 0.70710678118654757 0.75 forward I I I I #
loop $-1 $-1 $155 $41 #
coedge $-1 $97 $97 $156 $157 reversed $61 $-1 #
face $-1 $158 $159 $33 $-1 $160 reversed single #
loop $-1 $-1 $161 $63 #
plane-surface $-1 12.970734000195272 -1.2974824735478023 39.204907234789601 0 0.84804810408105047 0.52991925155115449 1 0 0 forward_v I I I I #
coedge $-1 $162 $163 $164 $165 reversed $64 $-1 #
face $-1 $-1 $166 $34 $-1 $167 forward single #
loop $-1 $168 $169 $66 #
cone-surface $-1 7.7660728230116334 18.649959016761223 4.2334950521169912 0 -0.84804810408105047 -0.52991925155115449 0.5 0 0 1 I I -0.70710678118654746 0.70710678118654746 0.5 forward I I I I #
loop $-1 $-1 $170 $43 #
coedge $-1 $106 $106 $171 $172 reversed $67 $-1 #
face $-1 $-1 $173 $35 $-1 $174 forward single #
loop $-1 $175 $176 $69 #
cone-surface $-1 18.175395177378917 18.649959016761223 4.2334950521169912 0 -0.84804810408105047 -0.52991925155115449 0.5 0 0 1 I I -0.70710678118654746 0.70710678118654746 0.5 forward I I I I #
loop $-1 $-1 $177 $44 #
coedge $-1 $111 $111 $178 $179 reversed $70 $-1 #
face $-1 $180 $181 $27 $-1 $182 reversed single #
loop $-1 $-1 $183 $72 #
plane-surface $-1 0 -21.683070369080305 0 0 1 0 0 0 1 forward_v I I I I #
coedge $-1 $184 $185 $186 $187 forward $73 $-1 #
coedge $-1 $188 $75 $189 $190 forward $46 $-1 #
coedge $-1 $75 $188 $191 $192 forward $46 $-1 #
coedge $-1 $193 $194 $75 $119 reversed $195 $-1 #
edge $-1 $196 -21.683070369080305 $197 21.683070369080305 $118 $198 forward 7 unknown #
face $-1 $199 $200 $28 $-1 $201 reversed single #
loop $-1 $-1 $202 $76 #
plane-surface $-1 -40.089626759474868 -17.418246638558383 0 -1 0 0 0 0 1 forward_v I I I I #
coedge $-1 $203 $204 $205 $206 forward $77 $-1 #
coedge $-1 $207 $79 $208 $209 reversed $49 $-1 #
coedge $-1 $79 $207 $210 $211 reversed $49 $-1 #
coedge $-1 $212 $213 $79 $127 forward $214 $-1 #
edge $-1 $215 -7.7509680941213563 $216 7.7509680941213563 $126 $217 forward 7 unknown #
face $-1 $218 $219 $29 $-1 $220 reversed single #
loop $-1 $-1 $221 $80 #
plane-surface $-1 -37.875318553605098 -87.212430854071187 63.635617907555805 1 0 0 0 0.71933980857756763 -0.69465836192734942 forward_v I I I I #
coedge $-1 $222 $223 $224 $225 reversed $81 $-1 #
coedge $-1 $133 $83 $226 $227 reversed $52 $-1 #
coedge $-1 $83 $132 $222 $228 reversed $52 $-1 #
coedge $-1 $224 $229 $83 $135 forward $230 $-1 #
edge $-1 $231 21.923145057955288 $232 29.065684731749599 $134 $233 forward 7 unknown #
loop $-1 $-1 $141 $84 #
plane-surface $-1 -27.730010491607302 -21.683070369080312 0.35465156890225558 0 -0.71933980857756763 0.69465836192734942 1 0 0 forward_v I I I I #
loop $-1 $-1 $234 $54 #
coedge $-1 $139 $139 $140 $235 reversed $85 $-1 #
coedge $-1 $140 $140 $139 $235 forward $87 $-1 #
coedge $-1 $141 $141 $88 $142 forward $136 $-1 #
edge $-1 $236 1.3362615975708392e-015 $236 6.2831853071796022 $141 $237 forward 7 unknown #
face $-1 $238 $239 $31 $-1 $240 reversed single #
loop $-1 $-1 $241 $89 #
plane-surface $-1 4.9436273375004802 -87.212430854071187 63.635617907555805 1 0 0 0 0.71933980857756763 -0.69465836192734942 forward_v I I I I #
coedge $-1 $242 $243 $244 $245 reversed $90 $-1 #
coedge $-1 $148 $92 $246 $247 reversed $58 $-1 #
coedge $-1 $92 $147 $242 $248 reversed $58 $-1 #
coedge $-1 $244 $249 $92 $150 forward $250 $-1 #
edge $-1 $251 21.923145057955288 $252 29.065684731749599 $149 $253 forward 7 unknown #
loop $-1 $-1 $156 $93 #
plane-surface $-1 15.088935399498276 -21.683070369080312 0.35465156890225558 0 -0.71933980857756763 0.69465836192734942 1 0 0 forward_v I I I I #
loop $-1 $-1 $254 $60 #
coedge $-1 $154 $154 $155 $255 reversed $94 $-1 #
coedge $-1 $155 $155 $154 $255 forward $96 $-1 #
coedge $-1 $156 $156 $97 $157 forward $151 $-1 #
edge $-1 $256 1.3362615975708392e-015 $256 6.2831853071796022 $156 $257 forward 7 unknown #
face $-1 $258 $259 $33 $-1 $260 reversed single #
loop $-1 $-1 $261 $98 #
plane-surface $-1 25.114943413623763 75.956757119877665 87.478712255393688 -1 0 0 0 0.84804810408105047 0.52991925155115449 forward_v I I I I #
coedge $-1 $262 $263 $264 $265 reversed $99 $-1 #
coedge $-1 $163 $101 $266 $267 reversed $64 $-1 #
coedge $-1 $101 $162 $262 $268 reversed $64 $-1 #
coedge $-1 $264 $269 $101 $165 forward $270 $-1 #
edge $-1 $271 16.295308190858528 $272 19.621259121699957 $164 $273 forward 7 unknown #
loop $-1 $-1 $171 $102 #
plane-surface $-1 12.970734000195272 -1.2974824735478023 39.204907234789601 0 0.84804810408105047 0.52991925155115449 1 0 0 forward_v I I I I #
loop $-1 $-1 $274 $66 #
coedge $-1 $169 $169 $170 $275 reversed $103 $-1 #
coedge $-1 $170 $170 $169 $275 forward $105 $-1 #
coedge $-1 $171 $171 $106 $172 forward $166 $-1 #
edge $-1 $276 1.1286459714621616e-015 $276 6.2831853071796013 $171 $277 forward 7 unknown #
loop $-1 $-1 $178 $107 #
plane-surface $-1 12.970734000195272 -1.2974824735478023 39.204907234789601 0 0.84804810408105047 0.52991925155115449 1 0 0 forward_v I I I I #
loop $-1 $-1 $278 $69 #
coedge $-1 $176 $176 $177 $279 reversed $108 $-1 #
coedge $-1 $177 $177 $176 $279 forward $110 $-1 #
coedge $-1 $178 $178 $111 $179 forward $173 $-1 #
edge $-1 $280 1.1286459714621616e-015 $280 6.2831853071796013 $178 $281 forward 7 unknown #
face $-1 $282 $283 $27 $-1 $284 reversed single #
loop $-1 $-1 $285 $112 #
plane-surface $-1 -45.548265022736288 0 0 1 0 0 0 0 -1 forward_v I I I I #
coedge $-1 $286 $191 $287 $288 forward $113 $-1 #
coedge $-1 $289 $115 $286 $290 forward $73 $-1 #
coedge $-1 $115 $289 $291 $292 forward $73 $-1 #
coedge $-1 $194 $193 $115 $187 reversed $195 $-1 #
edge $-1 $293 -21.683070369080305 $294 21.683070369080305 $186 $295 forward 7 unknown #
coedge $-1 $117 $116 $296 $297 forward $46 $-1 #
coedge $-1 $298 $299 $116 $190 reversed $283 $-1 #
edge $-1 $197 -45.548265022736288 $300 45.548265022736288 $189 $301 forward 7 unknown #
coedge $-1 $183 $302 $117 $192 reversed $113 $-1 #
edge $-1 $303 -45.548265022736288 $196 45.548265022736288 $191 $304 forward 7 unknown #
coedge $-1 $186 $118 $302 $305 forward $195 $-1 #
coedge $-1 $118 $186 $298 $306 reversed $195 $-1 #
loop $-1 $-1 $193 $282 #
vertex $-1 $119 $307 #
vertex $-1 $119 $308 #
straight-curve $-1 45.548265022736288 0 7.7509680941213563 0 1 0 I I #
face $-1 $309 $310 $28 $-1 $311 forward single #
loop $-1 $-1 $312 $120 #
plane-surface $-1 0 0 -7.7509680941213563 0 0 1 1 0 0 forward_v I I I I #
coedge $-1 $313 $314 $207 $315 forward $121 $-1 #
coedge $-1 $316 $123 $312 $317 reversed $77 $-1 #
coedge $-1 $123 $316 $318 $319 reversed $77 $-1 #
coedge $-1 $314 $313 $123 $206 reversed $121 $-1 #
edge $-1 $320 -7.7509680941213563 $321 7.7509680941213563 $205 $322 forward 7 unknown #
coedge $-1 $125 $124 $202 $315 reversed $49 $-1 #
coedge $-1 $323 $324 $124 $209 forward $200 $-1 #
edge $-1 $325 18.680153813922079 $215 24.138792077183499 $208 $326 forward 7 unknown #
coedge $-1 $327 $328 $125 $211 forward $310 $-1 #
edge $-1 $216 -24.138792077183499 $329 -18.680153813922079 $210 $330 forward 7 unknown #
coedge $-1 $331 $126 $328 $332 reversed $214 $-1 #
coedge $-1 $126 $331 $323 $333 reversed $214 $-1 #
loop $-1 $-1 $331 $309 #
vertex $-1 $333 $334 #
vertex $-1 $127 $335 #
straight-curve $-1 -45.548265022736288 -19.243474609109541 0 0 0 1 I I #
face $-1 $-1 $230 $29 $-1 $336 forward single #
loop $-1 $-1 $337 $128 #
plane-surface $-1 0 -21.683070369080305 0 0 1 0 0 0 1 forward_v I I I I #
coedge $-1 $338 $339 $340 $341 reversed $129 $-1 #
coedge $-1 $342 $131 $133 $228 forward $81 $-1 #
coedge $-1 $131 $342 $338 $343 forward $81 $-1 #
coedge $-1 $340 $134 $131 $225 forward $230 $-1 #
edge $-1 $232 3.7196971838058559 $344 24.010313307801447 $224 $345 forward 7 unknown #
coedge $-1 $346 $347 $132 $227 forward $219 $-1 #
edge $-1 $348 -31.46315738487564 $231 -24.066840859656544 $226 $349 forward 7 unknown #
edge $-1 $232 -10.282089823229274 $348 -1.0246718188806471e-014 $133 $350 forward 7 unknown #
coedge $-1 $134 $340 $346 $351 forward $230 $-1 #
loop $-1 $-1 $340 $218 #
vertex $-1 $227 $352 #
vertex $-1 $135 $353 #
straight-curve $-1 -17.584702429609507 -43.606215427035593 7.7509680941213546 0 1 0 I I #
coedge $-1 $234 $234 $-1 $354 reversed $138 $-1 #
edge $-1 $355 0 $355 6.2831853071796004 $139 $356 forward 7 unknown #
vertex $-1 $142 $357 #
ellipse-curve $-1 -27.730010491607302 -18.11180053218315 4.0528098315118113 0 -0.71933980857756763 0.69465836192734942 1.5 0 0 1 I I #
face $-1 $-1 $250 $31 $-1 $358 forward single #
loop $-1 $-1 $359 $143 #
plane-surface $-1 0 -21.683070369080305 0 0 1 0 0 0 1 forward_v I I I I #
coedge $-1 $360 $361 $362 $363 reversed $144 $-1 #
coedge $-1 $364 $146 $148 $248 forward $90 $-1 #
coedge $-1 $146 $364 $360 $365 forward $90 $-1 #
coedge $-1 $362 $149 $146 $245 forward $250 $-1 #
edge $-1 $252 -17.689775761746933 $366 2.6008403622486576 $244 $367 forward 7 unknown #
coedge $-1 $368 $369 $147 $247 forward $239 $-1 #
edge $-1 $370 -31.46315738487564 $251 -24.066840859656544 $246 $371 forward 7 unknown #
edge $-1 $252 -10.282089823229274 $370 -1.0246718188806471e-014 $148 $372 forward 7 unknown #
coedge $-1 $149 $362 $368 $373 forward $250 $-1 #
loop $-1 $-1 $362 $238 #
vertex $-1 $247 $374 #
vertex $-1 $150 $375 #
straight-curve $-1 25.234243461496071 -43.606215427035593 7.7509680941213546 0 1 0 I I #
coedge $-1 $254 $254 $-1 $376 reversed $153 $-1 #
edge $-1 $377 0 $377 6.2831853071796004 $154 $378 forward 7 unknown #
vertex $-1 $157 $379 #
ellipse-curve $-1 15.088935399498276 -18.11180053218315 4.0528098315118113 0 -0.71933980857756763 0.69465836192734942 1.5 0 0 1 I I #
face $-1 $-1 $270 $33 $-1 $380 forward single #
loop $-1 $-1 $381 $158 #
plane-surface $-1 0 21.683070369080305 0 0 -1 0 0 0 -1 forward_v I I I I #
coedge $-1 $382 $383 $384 $385 reversed $159 $-1 #
coedge $-1 $386 $161 $163 $268 forward $99 $-1 #
coedge $-1 $161 $386 $382 $387 forward $99 $-1 #
coedge $-1 $384 $164 $161 $265 forward $270 $-1 #
edge $-1 $272 -5.6588424133308557 $388 18.629576413526127 $264 $389 forward 7 unknown #
coedge $-1 $390 $391 $162 $267 forward $259 $-1 #
edge $-1 $392 -41.311022327216364 $271 -35.98838803357549 $266 $393 forward 7 unknown #
edge $-1 $272 37.089805388754343 $392 43.366140738160624 $163 $394 forward 7 unknown #
coedge $-1 $164 $384 $390 $395 forward $270 $-1 #
loop $-1 $-1 $384 $258 #
vertex $-1 $267 $396 #
vertex $-1 $165 $397 #
straight-curve $-1 0.82652458676678009 37.978378559938832 7.7509680941213546 0 -1 0 I I #
coedge $-1 $274 $274 $-1 $398 reversed $168 $-1 #
edge $-1 $399 0 $399 6.2831853071796004 $169 $400 forward 7 unknown #
vertex $-1 $172 $401 #
ellipse-curve $-1 7.7660728230116334 20.020094903659579 5.0896509473009317 0 0.84804810408105047 0.52991925155115449 1 0 0 1 I I #
coedge $-1 $278 $278 $-1 $402 reversed $175 $-1 #
edge $-1 $403 0 $403 6.2831853071796004 $176 $404 forward 7 unknown #
vertex $-1 $179 $405 #
ellipse-curve $-1 18.175395177378917 20.020094903659579 5.0896509473009317 0 0.84804810408105047 0.52991925155115449 1 0 0 1 I I #
face $-1 $-1 $195 $27 $-1 $406 reversed single #
loop $-1 $-1 $298 $180 #
plane-surface $-1 0 21.683070369080305 0 0 -1 0 0 0 -1 forward_v I I I I #
coedge $-1 $407 $296 $299 $408 forward $181 $-1 #
coedge $-1 $302 $183 $184 $290 reversed $113 $-1 #
coedge $-1 $296 $407 $183 $288 reversed $181 $-1 #
edge $-1 $303 -7.7509680941213563 $409 7.7509680941213563 $287 $410 forward 7 unknown #
coedge $-1 $185 $184 $407 $411 forward $73 $-1 #
edge $-1 $294 -45.548265022736288 $409 45.548265022736288 $286 $412 forward 7 unknown #
coedge $-1 $299 $298 $185 $292 reversed $283 $-1 #
edge $-1 $413 -45.548265022736288 $293 45.548265022736288 $291 $414 forward 7 unknown #
vertex $-1 $187 $415 #
vertex $-1 $305 $416 #
straight-curve $-1 45.548265022736288 0 -7.7509680941213563 0 -1 0 I I #
coedge $-1 $285 $287 $188 $297 reversed $181 $-1 #
edge $-1 $300 -21.683070369080305 $303 21.683070369080305 $296 $417 forward 7 unknown #
coedge $-1 $291 $189 $194 $306 forward $283 $-1 #
coedge $-1 $189 $291 $285 $408 reversed $283 $-1 #
vertex $-1 $190 $418 #
straight-curve $-1 0 21.683070369080305 7.7509680941213563 -1 0 0 I I #
coedge $-1 $191 $286 $193 $305 reversed $113 $-1 #
vertex $-1 $297 $419 #
straight-curve $-1 0 -21.683070369080305 7.7509680941213563 1 0 0 I I #
edge $-1 $196 -7.7509680941213563 $294 7.7509680941213563 $193 $420 forward 7 unknown #
edge $-1 $197 -7.7509680941213563 $293 7.7509680941213563 $194 $421 forward 7 unknown #
point $-1 45.548265022736288 -21.683070369080305 7.7509680941213563 #
point $-1 45.548265022736288 21.683070369080305 7.7509680941213563 #
face $-1 $-1 $214 $28 $-1 $422 reversed single #
loop $-1 $-1 $318 $199 #
plane-surface $-1 0 0 7.7509680941213563 0 0 1 1 0 0 forward_v I I I I #
coedge $-1 $324 $323 $203 $317 forward $200 $-1 #
coedge $-1 $205 $202 $324 $423 reversed $121 $-1 #
coedge $-1 $202 $205 $327 $424 reversed $121 $-1 #
edge $-1 $329 -7.7509680941213563 $325 7.7509680941213563 $202 $425 forward 7 unknown #
coedge $-1 $204 $203 $331 $426 reversed $77 $-1 #
edge $-1 $427 -24.138792077183499 $321 -18.680153813922079 $312 $428 forward 7 unknown #
coedge $-1 $328 $327 $204 $319 forward $310 $-1 #
edge $-1 $320 18.680153813922079 $429 24.138792077183499 $318 $430 forward 7 unknown #
vertex $-1 $319 $431 #
vertex $-1 $317 $432 #
straight-curve $-1 -40.089626759474868 -15.593018668007225 0 0 0 -1 I I #
coedge $-1 $312 $208 $213 $333 forward $200 $-1 #
coedge $-1 $208 $312 $313 $423 forward $200 $-1 #
vertex $-1 $209 $433 #
straight-curve $-1 -21.409472945552789 -19.243474609109541 -7.7509680941213563 -1 0 0 I I #
coedge $-1 $318 $210 $314 $424 forward $310 $-1 #
coedge $-1 $210 $318 $212 $332 forward $310 $-1 #
vertex $-1 $211 $434 #
straight-curve $-1 -21.409472945552789 -19.243474609109541 7.7509680941213563 1 0 0 I I #
coedge $-1 $213 $212 $316 $426 forward $214 $-1 #
edge $-1 $429 15.593018668007225 $216 19.243474609109541 $212 $435 forward 7 unknown #
edge $-1 $215 -19.243474609109541 $427 -15.593018668007225 $213 $436 forward 7 unknown #
point $-1 -45.548265022736288 -19.243474609109541 -7.7509680941213563 #
point $-1 -45.548265022736288 -19.243474609109541 7.7509680941213563 #
plane-surface $-1 0 0 7.7509680941213563 0 0 1 1 0 0 forward_v I I I I #
coedge $-1 $347 $346 $339 $437 forward $219 $-1 #
coedge $-1 $339 $221 $223 $343 reversed $129 $-1 #
coedge $-1 $221 $338 $337 $437 reversed $129 $-1 #
coedge $-1 $229 $224 $221 $341 forward $230 $-1 #
edge $-1 $344 -29.065684731749599 $438 -21.923145057955288 $340 $439 forward 7 unknown #
coedge $-1 $223 $222 $347 $440 reversed $81 $-1 #
edge $-1 $441 1.0246718188806471e-014 $344 10.282089823229274 $338 $442 forward 7 unknown #
vertex $-1 $225 $443 #
straight-curve $-1 -13.865005245803651 -14.540530695285996 7.7509680941213563 -1 0 0 I I #
coedge $-1 $337 $226 $229 $351 reversed $219 $-1 #
coedge $-1 $226 $337 $342 $440 forward $219 $-1 #
vertex $-1 $227 $444 #
straight-curve $-1 -17.584702429609507 -21.683070369080305 31.817808953777902 0 0 1 I I #
straight-curve $-1 -17.584702429609507 -21.683070369080312 0.35465156890225558 0 -0.69465836192734942 -0.71933980857756763 I I #
edge $-1 $438 -37.875318553605098 $231 -17.584702429609507 $346 $445 forward 7 unknown #
point $-1 -17.584702429609507 -21.683070369080305 7.7509680941213563 #
point $-1 -17.584702429609507 -14.540530695285995 7.7509680941213563 #
edge $-1 $446 1 $446 0 $234 $-1 forward 7 unknown #
vertex $-1 $235 $447 #
ellipse-curve $-1 -27.730010491607302 -16.061988324580852 2.0733292391511955 0 -0.71933980857756763 0.69465836192734942 1.5 0 0 1 I I #
point $-1 -26.230010491607302 -18.111800532183153 4.0528098315118175 #
plane-surface $-1 0 0 7.7509680941213563 0 0 1 1 0 0 forward_v I I I I #
coedge $-1 $369 $368 $361 $448 forward $239 $-1 #
coedge $-1 $361 $241 $243 $365 reversed $144 $-1 #
coedge $-1 $241 $360 $359 $448 reversed $144 $-1 #
coedge $-1 $249 $244 $241 $363 forward $250 $-1 #
edge $-1 $366 -29.065684731749599 $449 -21.923145057955288 $362 $450 forward 7 unknown #
coedge $-1 $243 $242 $369 $451 reversed $90 $-1 #
edge $-1 $452 1.0246718188806471e-014 $366 10.282089823229274 $360 $453 forward 7 unknown #
vertex $-1 $245 $454 #
straight-curve $-1 7.5444676997491378 -14.540530695285996 7.7509680941213563 -1 0 0 I I #
coedge $-1 $359 $246 $249 $373 reversed $239 $-1 #
coedge $-1 $246 $359 $364 $451 forward $239 $-1 #
vertex $-1 $247 $455 #
straight-curve $-1 25.234243461496071 -21.683070369080305 31.817808953777902 0 0 1 I I #
straight-curve $-1 25.234243461496071 -21.683070369080312 0.35465156890225558 0 -0.69465836192734942 -0.71933980857756763 I I #
edge $-1 $449 4.9436273375004802 $251 25.234243461496071 $368 $456 forward 7 unknown #
point $-1 25.234243461496071 -21.683070369080305 7.7509680941213563 #
point $-1 25.234243461496071 -14.540530695285995 7.7509680941213563 #
edge $-1 $457 1 $457 0 $254 $-1 forward 7 unknown #
vertex $-1 $255 $458 #
ellipse-curve $-1 15.088935399498276 -16.061988324580852 2.0733292391511955 0 -0.71933980857756763 0.69465836192734942 1.5 0 0 1 I I #
point $-1 16.588935399498276 -18.111800532183153 4.0528098315118175 #
plane-surface $-1 0 0 7.7509680941213563 0 0 1 1 0 0 forward_v I I I I #
coedge $-1 $391 $390 $383 $459 forward $259 $-1 #
coedge $-1 $383 $261 $263 $387 reversed $159 $-1 #
coedge $-1 $261 $382 $381 $459 reversed $159 $-1 #
coedge $-1 $269 $264 $261 $385 forward $270 $-1 #
edge $-1 $388 -19.621259121699957 $460 -16.295308190858528 $384 $461 forward 7 unknown #
coedge $-1 $263 $262 $391 $462 reversed $99 $-1 #
edge $-1 $463 -43.366140738160624 $388 -37.089805388754343 $382 $464 forward 7 unknown #
vertex $-1 $265 $465 #
straight-curve $-1 6.4853670000976358 18.357119438238868 7.7509680941213581 1 0 0 I I #
coedge $-1 $381 $266 $269 $395 reversed $259 $-1 #
coedge $-1 $266 $381 $386 $462 forward $259 $-1 #
vertex $-1 $267 $466 #
straight-curve $-1 0.82652458676678009 21.683070369080305 43.739356127696844 0 0 1 I I #
straight-curve $-1 0.82652458676678009 -1.2974824735478023 39.204907234789601 0 0.52991925155115449 -0.84804810408105047 I I #
edge $-1 $460 -25.114943413623763 $271 -0.82652458676678009 $390 $467 forward 7 unknown #
point $-1 0.82652458676678009 21.683070369080305 7.7509680941213563 #
point $-1 0.82652458676678009 18.357119438238875 7.750968094121351 #
edge $-1 $468 1 $468 0 $274 $-1 forward 7 unknown #
vertex $-1 $275 $469 #
ellipse-curve $-1 7.7660728230116334 19.073983068801748 4.4984546778925685 0 0.84804810408105047 0.52991925155115449 1 0 0 1 I I #
point $-1 8.7660728230116334 20.02009490365959 5.089650947300937 #
edge $-1 $470 1 $470 0 $278 $-1 forward 7 unknown #
vertex $-1 $279 $471 #
ellipse-curve $-1 18.175395177378917 19.073983068801748 4.4984546778925685 0 0.84804810408105047 0.52991925155115449 1 0 0 1 I I #
point $-1 19.175395177378917 20.02009490365959 5.089650947300937 #
plane-surface $-1 45.548265022736288 0 0 -1 0 0 0 0 1 forward_v I I I I #
coedge $-1 $287 $285 $289 $411 reversed $181 $-1 #
edge $-1 $300 -7.7509680941213563 $413 7.7509680941213563 $299 $472 forward 7 unknown #
vertex $-1 $411 $473 #
straight-curve $-1 -45.548265022736288 -21.683070369080305 0 0 0 -1 I I #
edge $-1 $409 -21.683070369080305 $413 21.683070369080305 $407 $474 forward 7 unknown #
straight-curve $-1 0 -21.683070369080305 -7.7509680941213563 -1 0 0 I I #
vertex $-1 $292 $475 #
straight-curve $-1 0 21.683070369080305 -7.7509680941213563 1 0 0 I I #
point $-1 45.548265022736288 21.683070369080305 -7.7509680941213563 #
point $-1 45.548265022736288 -21.683070369080305 -7.7509680941213563 #
straight-curve $-1 -45.548265022736288 0 7.7509680941213563 0 -1 0 I I #
point $-1 -45.548265022736288 21.683070369080305 7.7509680941213563 #
point $-1 -45.548265022736288 -21.683070369080305 7.7509680941213563 #
straight-curve $-1 45.548265022736288 -21.683070369080305 0 0 0 -1 I I #
straight-curve $-1 45.548265022736288 21.683070369080305 0 0 0 -1 I I #
plane-surface $-1 -45.548265022736288 0 0 1 0 0 0 0 -1 forward_v I I I I #
edge $-1 $321 6.8838953487280339 $325 10.534351289830349 $324 $476 forward 7 unknown #
edge $-1 $329 -10.534351289830349 $320 -6.8838953487280339 $327 $477 forward 7 unknown #
straight-curve $-1 -40.089626759474868 -19.243474609109541 0 0 0 -1 I I #
edge $-1 $429 -7.7509680941213563 $427 7.7509680941213563 $331 $478 forward 7 unknown #
vertex $-1 $426 $479 #
straight-curve $-1 -21.409472945552789 -15.593018668007225 -7.7509680941213563 1 0 0 I I #
vertex $-1 $332 $480 #
straight-curve $-1 -21.409472945552789 -15.593018668007225 7.7509680941213563 -1 0 0 I I #
point $-1 -40.089626759474868 -15.593018668007225 7.7509680941213563 #
point $-1 -40.089626759474868 -15.593018668007225 -7.7509680941213563 #
point $-1 -40.089626759474868 -19.243474609109541 -7.7509680941213563 #
point $-1 -40.089626759474868 -19.243474609109541 7.7509680941213563 #
straight-curve $-1 -45.548265022736288 0 7.7509680941213563 0 -1 0 I I #
straight-curve $-1 -45.548265022736288 0 -7.7509680941213563 0 1 0 I I #
edge $-1 $438 24.066840859656544 $441 31.46315738487564 $337 $481 forward 7 unknown #
vertex $-1 $351 $482 #
straight-curve $-1 -37.875318553605098 -43.606215427035593 7.7509680941213546 0 -1 0 I I #
edge $-1 $441 -24.010313307801447 $348 -3.7196971838058559 $347 $483 forward 7 unknown #
vertex $-1 $440 $484 #
straight-curve $-1 -37.875318553605098 -21.683070369080312 0.35465156890225558 0 0.69465836192734942 0.71933980857756763 I I #
point $-1 -37.875318553605098 -14.540530695285995 7.7509680941213563 #
point $-1 -17.584702429609507 -21.683070369080305 0.35465156890226296 #
straight-curve $-1 0 -21.683070369080305 7.7509680941213563 1 0 0 I I #
vertex $-1 $354 $485 #
point $-1 -26.230010491607302 -16.061988324580852 2.0733292391511955 #
edge $-1 $449 24.066840859656544 $452 31.46315738487564 $359 $486 forward 7 unknown #
vertex $-1 $373 $487 #
straight-curve $-1 4.9436273375004802 -43.606215427035593 7.7509680941213546 0 -1 0 I I #
edge $-1 $452 -2.6008403622486576 $370 17.689775761746933 $369 $488 forward 7 unknown #
vertex $-1 $451 $489 #
straight-curve $-1 4.9436273375004802 -21.683070369080312 0.35465156890225558 0 0.69465836192734942 0.71933980857756763 I I #
point $-1 4.9436273375004802 -14.540530695285995 7.7509680941213563 #
point $-1 25.234243461496071 -21.683070369080305 0.35465156890226296 #
straight-curve $-1 0 -21.683070369080305 7.7509680941213563 1 0 0 I I #
vertex $-1 $376 $490 #
point $-1 16.588935399498276 -16.061988324580852 2.0733292391511955 #
edge $-1 $460 35.98838803357549 $463 41.311022327216364 $381 $491 forward 7 unknown #
vertex $-1 $395 $492 #
straight-curve $-1 25.114943413623763 37.978378559938832 7.7509680941213546 0 1 0 I I #
edge $-1 $463 -18.629576413526127 $392 5.6588424133308557 $391 $493 forward 7 unknown #
vertex $-1 $462 $494 #
straight-curve $-1 25.114943413623763 -1.2974824735478023 39.204907234789601 0 -0.52991925155115449 0.84804810408105047 I I #
point $-1 25.114943413623763 18.357119438238875 7.750968094121351 #
point $-1 0.82652458676678009 21.683070369080305 2.4283338004804804 #
straight-curve $-1 0 21.683070369080305 7.7509680941213563 -1 0 0 I I #
vertex $-1 $398 $495 #
point $-1 8.7660728230116334 19.073983068801748 4.4984546778925685 #
vertex $-1 $402 $496 #
point $-1 19.175395177378917 19.073983068801748 4.4984546778925685 #
straight-curve $-1 -45.548265022736288 21.683070369080305 0 0 0 -1 I I #
point $-1 -45.548265022736288 -21.683070369080305 -7.7509680941213563 #
straight-curve $-1 -45.548265022736288 0 -7.7509680941213563 0 1 0 I I #
point $-1 -45.548265022736288 21.683070369080305 -7.7509680941213563 #
straight-curve $-1 -40.089626759474868 -8.7091233192791915 -7.7509680941213563 0 -1 0 I I #
straight-curve $-1 -40.089626759474868 -8.7091233192791915 7.7509680941213563 0 1 0 I I #
straight-curve $-1 -45.548265022736288 -15.593018668007225 0 0 0 -1 I I #
point $-1 -45.548265022736288 -15.593018668007225 -7.7509680941213563 #
point $-1 -45.548265022736288 -15.593018668007225 7.7509680941213563 #
straight-curve $-1 -37.875318553605098 -21.683070369080305 31.817808953777902 0 0 -1 I I #
point $-1 -37.875318553605098 -21.683070369080305 7.7509680941213563 #
straight-curve $-1 -13.865005245803651 -21.683070369080305 0.35465156890226252 1 0 0 I I #
point $-1 -37.875318553605098 -21.683070369080305 0.35465156890226296 #
point $-1 -27.730010491607302 -14.982978611714501 1.0313416962601711 #
straight-curve $-1 4.9436273375004802 -21.683070369080305 31.817808953777902 0 0 -1 I I #
point $-1 4.9436273375004802 -21.683070369080305 7.7509680941213563 #
straight-curve $-1 7.5444676997491378 -21.683070369080305 0.35465156890226252 1 0 0 I I #
point $-1 4.9436273375004802 -21.683070369080305 0.35465156890226296 #
point $-1 15.088935399498276 -14.982978611714501 1.0313416962601711 #
straight-curve $-1 25.114943413623763 21.683070369080305 43.739356127696844 0 0 -1 I I #
point $-1 25.114943413623763 21.683070369080305 7.7509680941213563 #
straight-curve $-1 6.4853670000976358 21.683070369080305 2.428333800480484 -1 0 0 I I #
point $-1 25.114943413623763 21.683070369080305 2.4283338004804804 #
point $-1 7.7660728230116334 18.225934964720697 3.9685354263414139 #
point $-1 18.175395177378917 18.225934964720697 3.9685354263414139 #
End-of-ACIS-data 