500 0 3 0           
7 Unknown 11 ACIS 5.0 NT 24 Fri Mar 26 02:09:15 1999 
-1 9.9999999999999995e-007 1e-010 
body $-1 $3 $-1 $4 #
body $-1 $5 $-1 $6 #
body $-1 $7 $-1 $8 #
lump $-1 $-1 $9 $0 #
transform $-1 1 0 0 0 1 0 0 0 1 72.770775475325792 37.092730246555718 8.8245084799951314 1 rotate no_reflect no_shear #
lump $-1 $-1 $10 $1 #
transform $-1 1 0 0 0 1 0 0 0 1 72.770775475325792 37.092730246555718 8.8245084799951314 1 rotate no_reflect no_shear #
lump $-1 $-1 $11 $2 #
transform $-1 1 0 0 0 1 0 0 0 1 72.770775475325792 37.092730246555718 8.8245084799951314 1 rotate no_reflect no_shear #
shell $-1 $-1 $-1 $12 $-1 $3 #
shell $-1 $-1 $-1 $13 $-1 $5 #
shell $-1 $-1 $-1 $14 $-1 $7 #
face $-1 $15 $16 $9 $-1 $17 forward single #
face $-1 $18 $19 $10 $-1 $20 forward single #
face $-1 $21 $22 $11 $-1 $23 forward single #
face $-1 $24 $25 $9 $-1 $26 reversed single #
loop $-1 $-1 $27 $12 #
plane-surface $-1 0 0 8.8245084799951314 0 0 1 1 0 0 forward_v I I I I #
face $-1 $28 $29 $10 $-1 $30 reversed single #
loop $-1 $-1 $31 $13 #
plane-surface $-1 0 -31.686344643968681 7.2964788978984325 0 0 1 1 0 0 forward_v I I I I #
face $-1 $32 $33 $11 $-1 $34 reversed single #
loop $-1 $-1 $35 $14 #
plane-surface $-1 0 37.092730246555718 0 0 -1 0 0 0 -1 forward_v I I I I #
face $-1 $36 $37 $9 $-1 $38 reversed single #
loop $-1 $-1 $39 $15 #
plane-surface $-1 0 0 -8.8245084799951314 0 0 1 1 0 0 forward_v I I I I #
coedge $-1 $40 $41 $42 $43 forward $16 $-1 #
face $-1 $44 $45 $10 $-1 $46 reversed single #
loop $-1 $-1 $47 $18 #
plane-surface $-1 0 -31.686344643968681 2.2561109725499753 0 0 1 1 0 0 forward_v I I I I #
coedge $-1 $48 $49 $50 $51 reversed $19 $-1 #
face $-1 $52 $53 $11 $-1 $54 reversed single #
loop $-1 $-1 $55 $21 #
plane-surface $-1 0 0 -8.8245084799951314 0 0 1 1 0 0 forward_v I I I I #
coedge $-1 $56 $57 $58 $59 forward $22 $-1 #
face $-1 $60 $61 $9 $-1 $62 reversed single #
loop $-1 $-1 $63 $24 #
plane-surface $-1 0 -37.092730246555718 0 0 1 0 0 0 1 forward_v I I I I #
coedge $-1 $64 $65 $66 $67 forward $25 $-1 #
coedge $-1 $68 $27 $69 $70 forward $16 $-1 #
coedge $-1 $27 $68 $71 $72 forward $16 $-1 #
coedge $-1 $73 $74 $27 $43 reversed $75 $-1 #
edge $-1 $76 -37.092730246555718 $77 37.092730246555718 $42 $78 forward 7 unknown #
face $-1 $79 $80 $10 $-1 $81 reversed single #
loop $-1 $-1 $82 $28 #
plane-surface $-1 0 -26.279959041381645 4.7762949352242039 0 -1 0 0 0 -1 forward_v I I I I #
coedge $-1 $83 $84 $85 $86 reversed $29 $-1 #
coedge $-1 $87 $31 $88 $89 forward $19 $-1 #
coedge $-1 $31 $87 $90 $91 reversed $19 $-1 #
coedge $-1 $92 $93 $31 $51 forward $94 $-1 #
edge $-1 $95 10.436786719397304 $96 21.249557924571377 $50 $97 forward 7 unknown #
face $-1 $98 $99 $11 $-1 $100 reversed single #
loop $-1 $-1 $101 $32 #
plane-surface $-1 -58.650753974796572 41.702995285830497 0 1 0 0 0 0 -1 forward_v I I I I #
coedge $-1 $102 $103 $57 $104 forward $33 $-1 #
coedge $-1 $105 $35 $106 $107 reversed $22 $-1 #
coedge $-1 $35 $105 $55 $104 reversed $22 $-1 #
coedge $-1 $108 $109 $35 $59 reversed $110 $-1 #
edge $-1 $111 -8.8245084799951314 $112 8.8245084799951314 $58 $113 forward 7 unknown #
face $-1 $114 $115 $9 $-1 $116 reversed single #
loop $-1 $-1 $117 $36 #
plane-surface $-1 -72.770775475325792 0 0 1 0 0 0 0 -1 forward_v I I I I #
coedge $-1 $118 $71 $119 $120 forward $37 $-1 #
coedge $-1 $121 $39 $118 $122 forward $25 $-1 #
coedge $-1 $39 $121 $123 $124 forward $25 $-1 #
coedge $-1 $74 $73 $39 $67 reversed $75 $-1 #
edge $-1 $125 -37.092730246555718 $126 37.092730246555718 $66 $127 forward 7 unknown #
coedge $-1 $41 $40 $128 $129 forward $16 $-1 #
coedge $-1 $130 $131 $40 $70 reversed $115 $-1 #
edge $-1 $77 -72.770775475325792 $132 72.770775475325792 $69 $133 forward 7 unknown #
coedge $-1 $63 $134 $41 $72 reversed $37 $-1 #
edge $-1 $135 -72.770775475325792 $76 72.770775475325792 $71 $136 forward 7 unknown #
coedge $-1 $66 $42 $134 $137 forward $75 $-1 #
coedge $-1 $42 $66 $130 $138 reversed $75 $-1 #
loop $-1 $-1 $73 $114 #
vertex $-1 $43 $139 #
vertex $-1 $43 $140 #
straight-curve $-1 72.770775475325792 0 8.8245084799951314 0 1 0 I I #
face $-1 $141 $142 $10 $-1 $143 reversed single #
loop $-1 $-1 $144 $44 #
plane-surface $-1 -72.770775475325792 0 0 1 0 0 0 0 -1 forward_v I I I I #
coedge $-1 $145 $88 $93 $146 reversed $45 $-1 #
coedge $-1 $147 $47 $148 $149 reversed $29 $-1 #
coedge $-1 $47 $147 $145 $150 forward $29 $-1 #
coedge $-1 $93 $92 $47 $86 forward $94 $-1 #
edge $-1 $151 -21.249557924571377 $152 -10.436786719397304 $85 $153 forward 7 unknown #
coedge $-1 $49 $48 $144 $154 reversed $19 $-1 #
coedge $-1 $82 $155 $48 $89 reversed $45 $-1 #
edge $-1 $95 -72.770775475325792 $156 72.770775475325792 $88 $157 forward 7 unknown #
coedge $-1 $158 $159 $49 $91 forward $142 $-1 #
edge $-1 $96 -72.770775475325792 $160 72.770775475325792 $90 $161 forward 7 unknown #
coedge $-1 $85 $50 $159 $162 forward $94 $-1 #
coedge $-1 $50 $85 $82 $146 forward $94 $-1 #
loop $-1 $-1 $50 $141 #
vertex $-1 $51 $163 #
vertex $-1 $162 $164 #
straight-curve $-1 72.770775475325792 -15.843172321984341 7.2964788978984325 0 -1 0 I I #
face $-1 $165 $110 $11 $-1 $166 reversed single #
loop $-1 $-1 $167 $52 #
plane-surface $-1 -56.88625624506605 46.313260325105276 0 0 -1 0 0 0 -1 forward_v I I I I #
coedge $-1 $168 $169 $170 $171 forward $53 $-1 #
coedge $-1 $172 $55 $168 $173 forward $33 $-1 #
coedge $-1 $55 $172 $108 $174 forward $33 $-1 #
edge $-1 $111 55.121758515335529 $175 58.650753974796572 $55 $176 forward 7 unknown #
coedge $-1 $57 $56 $177 $178 forward $22 $-1 #
coedge $-1 $179 $180 $56 $107 forward $181 $-1 #
edge $-1 $182 -58.650753974796572 $112 -55.121758515335529 $106 $183 forward 7 unknown #
coedge $-1 $184 $58 $103 $174 reversed $110 $-1 #
coedge $-1 $58 $184 $179 $185 reversed $110 $-1 #
loop $-1 $-1 $58 $98 #
vertex $-1 $104 $186 #
vertex $-1 $185 $187 #
straight-curve $-1 -55.121758515335529 37.092730246555718 0 0 0 1 I I #
face $-1 $-1 $75 $9 $-1 $188 reversed single #
loop $-1 $-1 $130 $60 #
plane-surface $-1 0 37.092730246555718 0 0 -1 0 0 0 -1 forward_v I I I I #
coedge $-1 $189 $128 $131 $190 forward $61 $-1 #
coedge $-1 $134 $63 $64 $122 reversed $37 $-1 #
coedge $-1 $128 $189 $63 $120 reversed $61 $-1 #
edge $-1 $135 -8.8245084799951314 $191 8.8245084799951314 $119 $192 forward 7 unknown #
coedge $-1 $65 $64 $189 $193 forward $25 $-1 #
edge $-1 $126 -72.770775475325792 $191 72.770775475325792 $118 $194 forward 7 unknown #
coedge $-1 $131 $130 $65 $124 reversed $115 $-1 #
edge $-1 $195 -72.770775475325792 $125 72.770775475325792 $123 $196 forward 7 unknown #
vertex $-1 $67 $197 #
vertex $-1 $137 $198 #
straight-curve $-1 72.770775475325792 0 -8.8245084799951314 0 -1 0 I I #
coedge $-1 $117 $119 $68 $129 reversed $61 $-1 #
edge $-1 $132 -37.092730246555718 $135 37.092730246555718 $128 $199 forward 7 unknown #
coedge $-1 $123 $69 $74 $138 forward $115 $-1 #
coedge $-1 $69 $123 $117 $190 reversed $115 $-1 #
vertex $-1 $70 $200 #
straight-curve $-1 0 37.092730246555718 8.8245084799951314 -1 0 0 I I #
coedge $-1 $71 $118 $73 $137 reversed $37 $-1 #
vertex $-1 $129 $201 #
straight-curve $-1 0 -37.092730246555718 8.8245084799951314 1 0 0 I I #
edge $-1 $76 -8.8245084799951314 $126 8.8245084799951314 $73 $202 forward 7 unknown #
edge $-1 $77 -8.8245084799951314 $125 8.8245084799951314 $74 $203 forward 7 unknown #
point $-1 72.770775475325792 -37.092730246555718 8.8245084799951314 #
point $-1 72.770775475325792 37.092730246555718 8.8245084799951314 #
face $-1 $-1 $94 $10 $-1 $204 reversed single #
loop $-1 $-1 $90 $79 #
plane-surface $-1 0 -37.092730246555718 0 0 1 0 0 0 1 forward_v I I I I #
coedge $-1 $205 $206 $87 $154 forward $80 $-1 #
coedge $-1 $155 $82 $84 $150 reversed $45 $-1 #
edge $-1 $152 -0.13203649506212667 $95 4.9083314302863306 $93 $207 forward 7 unknown #
coedge $-1 $84 $83 $208 $209 reversed $29 $-1 #
coedge $-1 $159 $158 $83 $149 forward $142 $-1 #
edge $-1 $210 -72.770775475325792 $151 72.770775475325792 $148 $211 forward 7 unknown #
edge $-1 $212 -72.770775475325792 $152 72.770775475325792 $145 $213 forward 7 unknown #
vertex $-1 $149 $214 #
vertex $-1 $86 $215 #
straight-curve $-1 72.770775475325792 -15.843172321984341 2.2561109725499753 0 1 0 I I #
edge $-1 $160 -21.249557924571377 $156 -10.436786719397304 $144 $216 forward 7 unknown #
coedge $-1 $88 $145 $205 $217 reversed $45 $-1 #
vertex $-1 $154 $218 #
straight-curve $-1 0 -26.279959041381645 7.2964788978984325 -1 0 0 I I #
coedge $-1 $148 $90 $206 $219 forward $142 $-1 #
coedge $-1 $90 $148 $92 $162 reversed $142 $-1 #
vertex $-1 $219 $220 #
straight-curve $-1 0 -37.092730246555718 7.2964788978984325 -1 0 0 I I #
edge $-1 $96 -7.2964788978984325 $151 -2.2561109725499753 $92 $221 forward 7 unknown #
point $-1 72.770775475325792 -26.279959041381645 7.2964788978984325 #
point $-1 72.770775475325792 -37.092730246555718 7.2964788978984325 #
face $-1 $-1 $181 $11 $-1 $222 forward single #
plane-surface $-1 -55.121758515335529 41.702995285830497 0 -1 0 0 0 0 1 forward_v I I I I #
coedge $-1 $223 $224 $184 $225 forward $99 $-1 #
coedge $-1 $177 $101 $102 $173 reversed $53 $-1 #
coedge $-1 $101 $177 $180 $226 reversed $53 $-1 #
coedge $-1 $224 $223 $101 $171 reversed $99 $-1 #
edge $-1 $227 -8.8245084799951314 $228 8.8245084799951314 $170 $229 forward 7 unknown #
coedge $-1 $103 $102 $223 $230 forward $33 $-1 #
edge $-1 $175 -4.610265039274779 $228 4.610265039274779 $168 $231 forward 7 unknown #
edge $-1 $232 -4.610265039274779 $111 4.610265039274779 $108 $233 forward 7 unknown #
vertex $-1 $173 $234 #
straight-curve $-1 0 37.092730246555718 -8.8245084799951314 -1 0 0 I I #
coedge $-1 $169 $168 $105 $178 reversed $53 $-1 #
edge $-1 $182 -8.8245084799951314 $175 8.8245084799951314 $177 $235 forward 7 unknown #
coedge $-1 $236 $106 $109 $185 forward $181 $-1 #
coedge $-1 $106 $236 $169 $226 forward $181 $-1 #
loop $-1 $-1 $106 $165 #
vertex $-1 $107 $237 #
straight-curve $-1 0 37.092730246555718 8.8245084799951314 1 0 0 I I #
coedge $-1 $109 $108 $167 $225 reversed $110 $-1 #
edge $-1 $112 -4.610265039274779 $238 4.610265039274779 $109 $239 forward 7 unknown #
point $-1 -55.121758515335529 37.092730246555718 -8.8245084799951314 #
point $-1 -55.121758515335529 37.092730246555718 8.8245084799951314 #
plane-surface $-1 72.770775475325792 0 0 -1 0 0 0 0 1 forward_v I I I I #
coedge $-1 $119 $117 $121 $193 reversed $61 $-1 #
edge $-1 $132 -8.8245084799951314 $195 8.8245084799951314 $131 $240 forward 7 unknown #
vertex $-1 $193 $241 #
straight-curve $-1 -72.770775475325792 -37.092730246555718 0 0 0 -1 I I #
edge $-1 $191 -37.092730246555718 $195 37.092730246555718 $189 $242 forward 7 unknown #
straight-curve $-1 0 -37.092730246555718 -8.8245084799951314 -1 0 0 I I #
vertex $-1 $124 $243 #
straight-curve $-1 0 37.092730246555718 -8.8245084799951314 1 0 0 I I #
point $-1 72.770775475325792 37.092730246555718 -8.8245084799951314 #
point $-1 72.770775475325792 -37.092730246555718 -8.8245084799951314 #
straight-curve $-1 -72.770775475325792 0 8.8245084799951314 0 -1 0 I I #
point $-1 -72.770775475325792 37.092730246555718 8.8245084799951314 #
point $-1 -72.770775475325792 -37.092730246555718 8.8245084799951314 #
straight-curve $-1 72.770775475325792 -37.092730246555718 0 0 0 -1 I I #
straight-curve $-1 72.770775475325792 37.092730246555718 0 0 0 -1 I I #
plane-surface $-1 72.770775475325792 0 0 -1 0 0 0 0 1 forward_v I I I I #
coedge $-1 $208 $144 $155 $217 forward $80 $-1 #
coedge $-1 $144 $208 $158 $219 reversed $80 $-1 #
straight-curve $-1 72.770775475325792 -26.279959041381645 2.3881474676121019 0 0 1 I I #
coedge $-1 $206 $205 $147 $209 forward $80 $-1 #
edge $-1 $212 10.436786719397304 $210 21.249557924571377 $208 $244 forward 7 unknown #
vertex $-1 $149 $245 #
straight-curve $-1 0 -37.092730246555718 2.2561109725499753 1 0 0 I I #
vertex $-1 $209 $246 #
straight-curve $-1 0 -26.279959041381645 2.2561109725499753 1 0 0 I I #
point $-1 72.770775475325792 -37.092730246555718 2.2561109725499753 #
point $-1 72.770775475325792 -26.279959041381645 2.2561109725499753 #
straight-curve $-1 -72.770775475325792 -15.843172321984341 7.2964788978984325 0 1 0 I I #
edge $-1 $156 -4.9083314302863306 $212 0.13203649506212667 $205 $247 forward 7 unknown #
point $-1 -72.770775475325792 -26.279959041381645 7.2964788978984325 #
edge $-1 $160 -7.2964788978984325 $210 -2.2561109725499753 $206 $248 forward 7 unknown #
point $-1 -72.770775475325792 -37.092730246555718 7.2964788978984325 #
straight-curve $-1 72.770775475325792 -37.092730246555718 0 0 0 -1 I I #
plane-surface $-1 0 0 8.8245084799951314 0 0 1 1 0 0 forward_v I I I I #
coedge $-1 $170 $167 $172 $230 reversed $99 $-1 #
coedge $-1 $167 $170 $236 $249 reversed $99 $-1 #
edge $-1 $238 -8.8245084799951314 $232 8.8245084799951314 $184 $250 forward 7 unknown #
edge $-1 $227 -4.610265039274779 $182 4.610265039274779 $169 $251 forward 7 unknown #
vertex $-1 $249 $252 #
vertex $-1 $230 $253 #
straight-curve $-1 -58.650753974796572 46.313260325105276 0 0 0 -1 I I #
edge $-1 $228 -1.7644977297305218 $232 1.7644977297305218 $223 $254 forward 7 unknown #
straight-curve $-1 -58.650753974796572 41.702995285830497 -8.8245084799951314 0 1 0 I I #
vertex $-1 $174 $255 #
straight-curve $-1 -55.121758515335529 41.702995285830497 -8.8245084799951314 0 -1 0 I I #
point $-1 -58.650753974796572 37.092730246555718 -8.8245084799951314 #
straight-curve $-1 -58.650753974796572 37.092730246555718 0 0 0 -1 I I #
coedge $-1 $180 $179 $224 $249 forward $181 $-1 #
point $-1 -58.650753974796572 37.092730246555718 8.8245084799951314 #
vertex $-1 $185 $256 #
straight-curve $-1 -55.121758515335529 41.702995285830497 8.8245084799951314 0 1 0 I I #
straight-curve $-1 -72.770775475325792 37.092730246555718 0 0 0 -1 I I #
point $-1 -72.770775475325792 -37.092730246555718 -8.8245084799951314 #
straight-curve $-1 -72.770775475325792 0 -8.8245084799951314 0 1 0 I I #
point $-1 -72.770775475325792 37.092730246555718 -8.8245084799951314 #
straight-curve $-1 -72.770775475325792 -15.843172321984341 2.2561109725499753 0 -1 0 I I #
point $-1 -72.770775475325792 -37.092730246555718 2.2561109725499753 #
point $-1 -72.770775475325792 -26.279959041381645 2.2561109725499753 #
straight-curve $-1 -72.770775475325792 -26.279959041381645 2.3881474676121019 0 0 -1 I I #
straight-curve $-1 -72.770775475325792 -37.092730246555718 0 0 0 -1 I I #
edge $-1 $238 -1.7644977297305218 $227 1.7644977297305218 $224 $257 forward 7 unknown #
straight-curve $-1 -55.121758515335529 46.313260325105276 0 0 0 -1 I I #
straight-curve $-1 -58.650753974796572 41.702995285830497 8.8245084799951314 0 -1 0 I I #
point $-1 -58.650753974796572 46.313260325105276 8.8245084799951314 #
point $-1 -58.650753974796572 46.313260325105276 -8.8245084799951314 #
straight-curve $-1 -56.88625624506605 46.313260325105276 -8.8245084799951314 1 0 0 I I #
point $-1 -55.121758515335529 46.313260325105276 -8.8245084799951314 #
point $-1 -55.121758515335529 46.313260325105276 8.8245084799951314 #
straight-curve $-1 -56.88625624506605 46.313260325105276 8.8245084799951314 -1 0 0 I I #
End-of-ACIS-data 