500 0 9 0           
7 Unknown 11 ACIS 5.0 NT 24 Fri Mar 26 02:34:25 1999 
-1 9.9999999999999995e-007 1e-010 
body $-1 $9 $-1 $10 #
body $-1 $11 $-1 $12 #
body $-1 $13 $-1 $14 #
body $-1 $15 $-1 $16 #
body $-1 $17 $-1 $18 #
body $-1 $19 $-1 $20 #
body $-1 $21 $-1 $22 #
body $-1 $23 $-1 $24 #
body $-1 $25 $-1 $26 #
lump $-1 $-1 $27 $0 #
transform $-1 1 0 0 0 1 0 0 0 1 59.429303872798855 24.372416926867611 6.3989960271566542 1 rotate no_reflect no_shear #
lump $-1 $-1 $28 $1 #
transform $-1 1 0 0 0 1 0 0 0 1 59.429303872798855 24.372416926867611 6.3989960271566542 1 rotate no_reflect no_shear #
lump $-1 $-1 $29 $2 #
transform $-1 1 0 0 0 1 0 0 0 1 59.429303872798855 24.372416926867611 6.3989960271566542 1 rotate no_reflect no_shear #
lump $-1 $-1 $30 $3 #
transform $-1 1 0 0 0 1 0 0 0 1 59.429303872798855 24.372416926867611 6.3989960271566542 1 rotate no_reflect no_shear #
lump $-1 $-1 $31 $4 #
transform $-1 1 0 0 0 1 0 0 0 1 59.429303872798855 24.372416926867611 6.3989960271566542 1 rotate no_reflect no_shear #
lump $-1 $-1 $32 $5 #
transform $-1 1 0 0 0 1 0 0 0 1 59.429303872798855 24.372416926867611 6.3989960271566542 1 rotate no_reflect no_shear #
lump $-1 $-1 $33 $6 #
transform $-1 1 0 0 0 1 0 0 0 1 59.429303872798855 24.372416926867611 6.3989960271566542 1 rotate no_reflect no_shear #
lump $-1 $-1 $34 $7 #
transform $-1 1 0 0 0 1 0 0 0 1 59.429303872798855 24.372416926867611 6.3989960271566542 1 rotate no_reflect no_shear #
lump $-1 $-1 $35 $8 #
transform $-1 1 0 0 0 1 0 0 0 1 59.429303872798855 24.372416926867611 6.3989960271566542 1 rotate no_reflect no_shear #
shell $-1 $-1 $-1 $36 $-1 $9 #
shell $-1 $-1 $-1 $37 $-1 $11 #
shell $-1 $-1 $-1 $38 $-1 $13 #
shell $-1 $-1 $-1 $39 $-1 $15 #
shell $-1 $-1 $-1 $40 $-1 $17 #
shell $-1 $-1 $-1 $41 $-1 $19 #
shell $-1 $-1 $-1 $42 $-1 $21 #
shell $-1 $-1 $-1 $43 $-1 $23 #
shell $-1 $-1 $-1 $44 $-1 $25 #
face $-1 $45 $46 $27 $-1 $47 forward single #
face $-1 $48 $49 $28 $-1 $50 reversed single #
face $-1 $51 $52 $29 $-1 $53 reversed single #
face $-1 $54 $55 $30 $-1 $56 reversed single #
face $-1 $57 $58 $31 $-1 $59 forward single #
face $-1 $60 $61 $32 $-1 $62 forward single #
face $-1 $63 $64 $33 $-1 $65 reversed single #
face $-1 $66 $67 $34 $-1 $68 forward single #
face $-1 $69 $70 $35 $-1 $71 forward single #
face $-1 $72 $73 $27 $-1 $74 reversed single #
loop $-1 $-1 $75 $36 #
plane-surface $-1 0 0 6.3989960271566542 0 0 1 1 0 0 forward_v I I I I #
face $-1 $76 $77 $28 $-1 $78 reversed single #
loop $-1 $-1 $79 $37 #
plane-surface $-1 -57.282190444345325 0 3.3989960271566542 0 0 1 1 0 0 forward_v I I I I #
face $-1 $80 $81 $29 $-1 $82 reversed single #
loop $-1 $-1 $83 $38 #
plane-surface $-1 57.282190444345318 0 3.3989960271566542 0 0 1 1 0 0 forward_v I I I I #
face $-1 $84 $85 $30 $-1 $86 reversed single #
loop $-1 $-1 $87 $39 #
plane-surface $-1 -42.407416990381151 -92.546914465860681 100.31258744025568 -1 0 0 0 -0.57357644374324357 0.81915203911291934 forward_v I I I I #
face $-1 $88 $89 $31 $-1 $90 forward single #
loop $-1 $91 $92 $40 #
cone-surface $-1 -51.498602722888755 -20.36157894110946 2.4640807318089193 0 0.57357644374324357 -0.81915203911291934 1.5 0 0 1 I I 0 1 1.5 forward I I I I #
face $-1 $93 $94 $32 $-1 $95 forward single #
loop $-1 $96 $97 $41 #
cone-surface $-1 -46.043891283384191 -20.36157894110946 2.4640807318089193 0 0.57357644374324357 -0.81915203911291934 1.5 0 0 1 I I 0 1 1.5 forward I I I I #
face $-1 $98 $99 $33 $-1 $100 reversed single #
loop $-1 $-1 $101 $42 #
plane-surface $-1 48.77124700313648 -24.372416926867601 2.9493165393266878 0 -0.57357644374324357 0.81915203911291934 1 0 0 forward_v I I I I #
face $-1 $102 $103 $34 $-1 $104 forward single #
loop $-1 $105 $106 $43 #
cone-surface $-1 46.043891283384198 -20.36157894110946 2.4640807318089193 0 0.57357644374324357 -0.81915203911291934 1.5 0 0 1 I I 0 1 1.5 forward I I I I #
face $-1 $107 $108 $35 $-1 $109 forward single #
loop $-1 $110 $111 $44 #
cone-surface $-1 51.498602722888748 -20.36157894110946 2.4640807318089193 0 0.57357644374324357 -0.81915203911291934 1.5 0 0 1 I I 0 1 1.5 forward I I I I #
face $-1 $112 $113 $27 $-1 $114 reversed single #
loop $-1 $-1 $115 $45 #
plane-surface $-1 0 0 -6.3989960271566542 0 0 1 1 0 0 forward_v I I I I #
coedge $-1 $116 $117 $118 $119 forward $46 $-1 #
face $-1 $120 $121 $28 $-1 $122 reversed single #
loop $-1 $-1 $123 $48 #
plane-surface $-1 -55.135077015891795 0 4.8989960271566542 -1 0 0 0 0 1 forward_v I I I I #
coedge $-1 $124 $125 $126 $127 forward $49 $-1 #
face $-1 $128 $129 $29 $-1 $130 forward single #
loop $-1 $-1 $131 $51 #
plane-surface $-1 55.135077015891788 0 4.8989960271566542 1 0 0 0 0 -1 forward_v I I I I #
coedge $-1 $132 $133 $134 $135 reversed $52 $-1 #
face $-1 $136 $137 $30 $-1 $138 forward single #
loop $-1 $-1 $139 $54 #
plane-surface $-1 -48.771247003136473 -24.372416926867601 2.9493165393266878 0 -0.57357644374324357 0.81915203911291934 1 0 0 forward_v I I I I #
coedge $-1 $140 $141 $142 $143 reversed $55 $-1 #
face $-1 $-1 $144 $31 $-1 $145 forward single #
loop $-1 $146 $147 $57 #
cone-surface $-1 -51.498602722888755 -18.383885017453206 -0.3603588489585281 0 0.57357644374324357 -0.81915203911291934 0.75 0 0 1 I I -0.70710678118654757 0.70710678118654757 0.75 forward I I I I #
loop $-1 $-1 $148 $40 #
coedge $-1 $92 $92 $149 $150 reversed $58 $-1 #
face $-1 $-1 $151 $32 $-1 $152 forward single #
loop $-1 $153 $154 $60 #
cone-surface $-1 -46.043891283384191 -18.383885017453206 -0.3603588489585281 0 0.57357644374324357 -0.81915203911291934 0.75 0 0 1 I I -0.70710678118654757 0.70710678118654757 0.75 forward I I I I #
loop $-1 $-1 $155 $41 #
coedge $-1 $97 $97 $156 $157 reversed $61 $-1 #
face $-1 $158 $159 $33 $-1 $160 reversed single #
loop $-1 $-1 $161 $63 #
plane-surface $-1 42.407416990381158 -92.546914465860681 100.31258744025568 1 0 0 0 0.57357644374324357 -0.81915203911291934 forward_v I I I I #
coedge $-1 $162 $163 $164 $165 reversed $64 $-1 #
face $-1 $-1 $166 $34 $-1 $167 forward single #
loop $-1 $168 $169 $66 #
cone-surface $-1 46.043891283384198 -18.383885017453206 -0.3603588489585281 0 0.57357644374324357 -0.81915203911291934 0.75 0 0 1 I I -0.70710678118654757 0.70710678118654757 0.75 forward I I I I #
loop $-1 $-1 $170 $43 #
coedge $-1 $106 $106 $171 $172 reversed $67 $-1 #
face $-1 $-1 $173 $35 $-1 $174 forward single #
loop $-1 $175 $176 $69 #
cone-surface $-1 51.498602722888748 -18.383885017453206 -0.3603588489585281 0 0.57357644374324357 -0.81915203911291934 0.75 0 0 1 I I -0.70710678118654757 0.70710678118654757 0.75 forward I I I I #
loop $-1 $-1 $177 $44 #
coedge $-1 $111 $111 $178 $179 reversed $70 $-1 #
face $-1 $180 $181 $27 $-1 $182 reversed single #
loop $-1 $-1 $183 $72 #
plane-surface $-1 0 -24.372416926867611 0 0 1 0 0 0 1 forward_v I I I I #
coedge $-1 $184 $185 $186 $187 forward $73 $-1 #
coedge $-1 $188 $75 $189 $190 forward $46 $-1 #
coedge $-1 $75 $188 $191 $192 forward $46 $-1 #
coedge $-1 $193 $194 $75 $119 reversed $195 $-1 #
edge $-1 $196 -24.372416926867611 $197 24.372416926867611 $118 $198 forward 7 unknown #
face $-1 $199 $200 $28 $-1 $201 reversed single #
loop $-1 $-1 $202 $76 #
plane-surface $-1 0 24.372416926867611 0 0 -1 0 0 0 -1 forward_v I I I I #
coedge $-1 $126 $203 $204 $205 reversed $77 $-1 #
coedge $-1 $206 $79 $207 $208 reversed $49 $-1 #
coedge $-1 $79 $206 $209 $210 reversed $49 $-1 #
coedge $-1 $211 $123 $79 $127 reversed $77 $-1 #
edge $-1 $212 -24.372416926867611 $213 24.372416926867611 $126 $214 forward 7 unknown #
face $-1 $215 $216 $29 $-1 $217 reversed single #
loop $-1 $-1 $218 $80 #
plane-surface $-1 0 0 6.3989960271566542 0 0 1 1 0 0 forward_v I I I I #
coedge $-1 $219 $220 $221 $222 reversed $81 $-1 #
coedge $-1 $223 $83 $224 $225 reversed $52 $-1 #
coedge $-1 $83 $223 $226 $227 reversed $52 $-1 #
coedge $-1 $228 $229 $83 $135 forward $230 $-1 #
edge $-1 $231 -24.372416926867611 $232 24.372416926867611 $134 $233 forward 7 unknown #
face $-1 $234 $235 $30 $-1 $236 forward single #
loop $-1 $-1 $142 $84 #
plane-surface $-1 0 0 6.3989960271566542 0 0 1 1 0 0 forward_v I I I I #
coedge $-1 $237 $238 $239 $240 reversed $85 $-1 #
coedge $-1 $141 $87 $241 $242 reversed $55 $-1 #
coedge $-1 $87 $140 $237 $243 reversed $55 $-1 #
coedge $-1 $239 $244 $87 $143 forward $137 $-1 #
edge $-1 $245 21.901040306062729 $246 26.827693095881422 $142 $247 forward 7 unknown #
loop $-1 $-1 $149 $88 #
plane-surface $-1 -48.771247003136473 -24.372416926867601 2.9493165393266878 0 -0.57357644374324357 0.81915203911291934 1 0 0 forward_v I I I I #
loop $-1 $-1 $248 $57 #
coedge $-1 $147 $147 $148 $249 reversed $89 $-1 #
coedge $-1 $148 $148 $147 $249 forward $91 $-1 #
coedge $-1 $149 $149 $92 $150 forward $144 $-1 #
edge $-1 $250 -3.8641763534927039e-016 $250 6.2831853071796004 $149 $251 forward 7 unknown #
loop $-1 $-1 $156 $93 #
plane-surface $-1 -48.771247003136473 -24.372416926867601 2.9493165393266878 0 -0.57357644374324357 0.81915203911291934 1 0 0 forward_v I I I I #
loop $-1 $-1 $252 $60 #
coedge $-1 $154 $154 $155 $253 reversed $94 $-1 #
coedge $-1 $155 $155 $154 $253 forward $96 $-1 #
coedge $-1 $156 $156 $97 $157 forward $151 $-1 #
edge $-1 $254 -3.8641763534927039e-016 $254 6.2831853071796004 $156 $255 forward 7 unknown #
face $-1 $256 $257 $33 $-1 $258 forward single #
loop $-1 $-1 $259 $98 #
plane-surface $-1 0 -24.372416926867611 0 0 1 0 0 0 1 forward_v I I I I #
coedge $-1 $260 $261 $262 $263 reversed $99 $-1 #
coedge $-1 $264 $101 $265 $266 reversed $64 $-1 #
coedge $-1 $101 $264 $260 $267 forward $64 $-1 #
coedge $-1 $262 $268 $101 $165 forward $257 $-1 #
edge $-1 $269 -30.749453514323562 $270 -18.021793488812918 $164 $271 forward 7 unknown #
loop $-1 $-1 $171 $102 #
plane-surface $-1 48.77124700313648 -24.372416926867601 2.9493165393266878 0 -0.57357644374324357 0.81915203911291934 1 0 0 forward_v I I I I #
loop $-1 $-1 $272 $66 #
coedge $-1 $169 $169 $170 $273 reversed $103 $-1 #
coedge $-1 $170 $170 $169 $273 forward $105 $-1 #
coedge $-1 $171 $171 $106 $172 forward $166 $-1 #
edge $-1 $274 -3.8641763534927039e-016 $274 6.2831853071796004 $171 $275 forward 7 unknown #
loop $-1 $-1 $178 $107 #
plane-surface $-1 48.77124700313648 -24.372416926867601 2.9493165393266878 0 -0.57357644374324357 0.81915203911291934 1 0 0 forward_v I I I I #
loop $-1 $-1 $276 $69 #
coedge $-1 $176 $176 $177 $277 reversed $108 $-1 #
coedge $-1 $177 $177 $176 $277 forward $110 $-1 #
coedge $-1 $178 $178 $111 $179 forward $173 $-1 #
edge $-1 $278 -3.8641763534927039e-016 $278 6.2831853071796004 $178 $279 forward 7 unknown #
face $-1 $280 $281 $27 $-1 $282 reversed single #
loop $-1 $-1 $283 $112 #
plane-surface $-1 -59.429303872798855 0 0 1 0 0 0 0 -1 forward_v I I I I #
coedge $-1 $284 $191 $285 $286 forward $113 $-1 #
coedge $-1 $287 $115 $284 $288 forward $73 $-1 #
coedge $-1 $115 $287 $289 $290 forward $73 $-1 #
coedge $-1 $194 $193 $115 $187 reversed $195 $-1 #
edge $-1 $291 -24.372416926867611 $292 24.372416926867611 $186 $293 forward 7 unknown #
coedge $-1 $117 $116 $294 $295 forward $46 $-1 #
coedge $-1 $296 $297 $116 $190 reversed $281 $-1 #
edge $-1 $197 -59.429303872798855 $298 59.429303872798855 $189 $299 forward 7 unknown #
coedge $-1 $183 $300 $117 $192 reversed $113 $-1 #
edge $-1 $301 -59.429303872798855 $196 59.429303872798855 $191 $302 forward 7 unknown #
coedge $-1 $186 $118 $300 $303 forward $195 $-1 #
coedge $-1 $118 $186 $296 $304 reversed $195 $-1 #
loop $-1 $-1 $193 $280 #
vertex $-1 $119 $305 #
vertex $-1 $119 $306 #
straight-curve $-1 59.429303872798855 0 6.3989960271566542 0 1 0 I I #
face $-1 $307 $308 $28 $-1 $309 forward single #
loop $-1 $-1 $310 $120 #
plane-surface $-1 -59.429303872798855 0 0 1 0 0 0 0 -1 forward_v I I I I #
coedge $-1 $209 $311 $211 $312 forward $121 $-1 #
coedge $-1 $123 $211 $313 $314 reversed $77 $-1 #
coedge $-1 $315 $207 $123 $205 forward $316 $-1 #
edge $-1 $213 0.94949801357832708 $317 3.9494980135783271 $204 $318 forward 7 unknown #
coedge $-1 $125 $124 $310 $319 reversed $49 $-1 #
coedge $-1 $204 $320 $124 $208 forward $316 $-1 #
edge $-1 $321 -30.788208650626192 $213 -26.493981793719133 $207 $322 forward 7 unknown #
coedge $-1 $323 $202 $125 $210 forward $121 $-1 #
edge $-1 $212 26.493981793719133 $324 30.788208650626192 $209 $325 forward 7 unknown #
coedge $-1 $203 $126 $202 $312 reversed $77 $-1 #
vertex $-1 $210 $326 #
vertex $-1 $208 $327 #
straight-curve $-1 -55.135077015891795 0 3.3989960271566542 0 -1 0 I I #
face $-1 $328 $329 $29 $-1 $330 reversed single #
loop $-1 $-1 $331 $128 #
plane-surface $-1 0 -24.372416926867611 0 0 1 0 0 0 1 forward_v I I I I #
coedge $-1 $332 $333 $220 $334 forward $129 $-1 #
coedge $-1 $335 $131 $223 $336 reversed $81 $-1 #
coedge $-1 $131 $335 $218 $334 reversed $81 $-1 #
coedge $-1 $337 $226 $131 $222 forward $329 $-1 #
edge $-1 $338 0.94949801357832708 $339 3.9494980135783271 $221 $340 forward 7 unknown #
coedge $-1 $133 $132 $219 $336 forward $52 $-1 #
coedge $-1 $341 $331 $132 $225 forward $216 $-1 #
edge $-1 $342 26.493981793719129 $231 30.788208650626189 $224 $343 forward 7 unknown #
coedge $-1 $221 $344 $133 $227 forward $329 $-1 #
edge $-1 $232 -30.788208650626189 $338 -26.493981793719129 $226 $345 forward 7 unknown #
coedge $-1 $346 $134 $344 $347 reversed $230 $-1 #
coedge $-1 $134 $346 $341 $348 forward $230 $-1 #
loop $-1 $-1 $134 $328 #
vertex $-1 $225 $349 #
vertex $-1 $135 $350 #
straight-curve $-1 59.429303872798855 0 3.3989960271566542 0 1 0 I I #
face $-1 $-1 $351 $30 $-1 $352 reversed single #
loop $-1 $-1 $353 $136 #
plane-surface $-1 -55.135077015891795 0 4.8989960271566542 -1 0 0 0 0 1 forward_v I I I I #
coedge $-1 $354 $139 $141 $243 forward $85 $-1 #
coedge $-1 $139 $354 $353 $355 forward $85 $-1 #
coedge $-1 $356 $142 $139 $240 forward $137 $-1 #
edge $-1 $246 18.021793488812914 $357 30.749453514323559 $239 $358 forward 7 unknown #
coedge $-1 $359 $360 $140 $242 forward $351 $-1 #
edge $-1 $361 -47.206977180801161 $245 -43.757297692971186 $241 $362 forward 7 unknown #
edge $-1 $246 -6.0143325714648519 $361 1.3060862827860654e-014 $141 $363 forward 7 unknown #
coedge $-1 $142 $356 $359 $364 forward $137 $-1 #
vertex $-1 $242 $365 #
vertex $-1 $143 $366 #
straight-curve $-1 -42.407416990381151 -46.27345723293034 6.3989960271566559 0 1 0 I I #
coedge $-1 $248 $248 $-1 $367 reversed $146 $-1 #
edge $-1 $368 0 $368 6.2831853071796004 $147 $369 forward 7 unknown #
vertex $-1 $150 $370 #
ellipse-curve $-1 -51.498602722888755 -21.90909053195827 4.674156283241663 0 -0.57357644374324357 0.81915203911291934 1.5 0 0 1 I I #
coedge $-1 $252 $252 $-1 $371 reversed $153 $-1 #
edge $-1 $372 0 $372 6.2831853071796004 $154 $373 forward 7 unknown #
vertex $-1 $157 $374 #
ellipse-curve $-1 -46.043891283384191 -21.90909053195827 4.674156283241663 0 -0.57357644374324357 0.81915203911291934 1.5 0 0 1 I I #
face $-1 $-1 $375 $33 $-1 $376 forward single #
loop $-1 $-1 $262 $158 #
plane-surface $-1 0 0 6.3989960271566542 0 0 1 1 0 0 forward_v I I I I #
coedge $-1 $377 $378 $261 $379 forward $159 $-1 #
coedge $-1 $261 $161 $163 $267 reversed $99 $-1 #
coedge $-1 $161 $260 $259 $379 reversed $99 $-1 #
coedge $-1 $380 $164 $161 $263 forward $257 $-1 #
edge $-1 $270 -26.827693095881422 $381 -21.901040306062729 $262 $382 forward 7 unknown #
coedge $-1 $163 $162 $377 $383 reversed $64 $-1 #
coedge $-1 $384 $385 $162 $266 forward $375 $-1 #
edge $-1 $386 -10.541502625411256 $269 -4.5271700539463913 $265 $387 forward 7 unknown #
edge $-1 $388 -1.3060862827860654e-014 $270 6.0143325714648519 $260 $389 forward 7 unknown #
coedge $-1 $164 $380 $384 $390 forward $257 $-1 #
vertex $-1 $266 $391 #
vertex $-1 $165 $392 #
straight-curve $-1 24.38562350156824 -19.445764137048918 6.3989960271566542 -1 0 0 I I #
coedge $-1 $272 $272 $-1 $393 reversed $168 $-1 #
edge $-1 $394 0 $394 6.2831853071796004 $169 $395 forward 7 unknown #
vertex $-1 $172 $396 #
ellipse-curve $-1 46.043891283384198 -21.90909053195827 4.674156283241663 0 -0.57357644374324357 0.81915203911291934 1.5 0 0 1 I I #
coedge $-1 $276 $276 $-1 $397 reversed $175 $-1 #
edge $-1 $398 0 $398 6.2831853071796004 $176 $399 forward 7 unknown #
vertex $-1 $179 $400 #
ellipse-curve $-1 51.498602722888748 -21.90909053195827 4.674156283241663 0 -0.57357644374324357 0.81915203911291934 1.5 0 0 1 I I #
face $-1 $-1 $195 $27 $-1 $401 reversed single #
loop $-1 $-1 $296 $180 #
plane-surface $-1 0 24.372416926867611 0 0 -1 0 0 0 -1 forward_v I I I I #
coedge $-1 $402 $294 $297 $403 forward $181 $-1 #
coedge $-1 $300 $183 $184 $288 reversed $113 $-1 #
coedge $-1 $294 $402 $183 $286 reversed $181 $-1 #
edge $-1 $301 -6.3989960271566542 $404 6.3989960271566542 $285 $405 forward 7 unknown #
coedge $-1 $185 $184 $402 $406 forward $73 $-1 #
edge $-1 $292 -59.429303872798855 $404 59.429303872798855 $284 $407 forward 7 unknown #
coedge $-1 $297 $296 $185 $290 reversed $281 $-1 #
edge $-1 $408 -59.429303872798855 $291 59.429303872798855 $289 $409 forward 7 unknown #
vertex $-1 $187 $410 #
vertex $-1 $303 $411 #
straight-curve $-1 59.429303872798855 0 -6.3989960271566542 0 -1 0 I I #
coedge $-1 $283 $285 $188 $295 reversed $181 $-1 #
edge $-1 $298 -24.372416926867611 $301 24.372416926867611 $294 $412 forward 7 unknown #
coedge $-1 $289 $189 $194 $304 forward $281 $-1 #
coedge $-1 $189 $289 $283 $403 reversed $281 $-1 #
vertex $-1 $190 $413 #
straight-curve $-1 0 24.372416926867611 6.3989960271566542 -1 0 0 I I #
coedge $-1 $191 $284 $193 $303 reversed $113 $-1 #
vertex $-1 $295 $414 #
straight-curve $-1 0 -24.372416926867611 6.3989960271566542 1 0 0 I I #
edge $-1 $196 -6.3989960271566542 $292 6.3989960271566542 $193 $415 forward 7 unknown #
edge $-1 $197 -6.3989960271566542 $291 6.3989960271566542 $194 $416 forward 7 unknown #
point $-1 59.429303872798855 -24.372416926867611 6.3989960271566542 #
point $-1 59.429303872798855 24.372416926867611 6.3989960271566542 #
face $-1 $-1 $316 $28 $-1 $417 reversed single #
loop $-1 $-1 $313 $199 #
plane-surface $-1 0 0 6.3989960271566542 0 0 1 1 0 0 forward_v I I I I #
coedge $-1 $418 $419 $206 $319 forward $200 $-1 #
coedge $-1 $202 $323 $420 $421 reversed $121 $-1 #
edge $-1 $422 -3.9494980135783271 $212 -0.94949801357832708 $202 $423 forward 7 unknown #
coedge $-1 $420 $424 $203 $314 forward $308 $-1 #
edge $-1 $317 -24.372416926867611 $422 24.372416926867611 $313 $425 forward 7 unknown #
coedge $-1 $320 $204 $424 $426 reversed $316 $-1 #
loop $-1 $-1 $204 $307 #
vertex $-1 $205 $427 #
straight-curve $-1 -55.135077015891795 -24.372416926867611 2.4494980135783271 0 0 1 I I #
edge $-1 $324 -24.372416926867611 $321 24.372416926867611 $310 $428 forward 7 unknown #
coedge $-1 $207 $315 $418 $429 forward $316 $-1 #
vertex $-1 $319 $430 #
straight-curve $-1 -28.641095222172662 -24.372416926867611 3.3989960271566542 1 0 0 I I #
coedge $-1 $311 $209 $419 $431 reversed $121 $-1 #
vertex $-1 $319 $432 #
straight-curve $-1 -28.641095222172662 24.372416926867611 3.3989960271566542 -1 0 0 I I #
point $-1 -55.135077015891795 24.372416926867611 3.3989960271566542 #
point $-1 -55.135077015891795 -24.372416926867611 3.3989960271566542 #
face $-1 $-1 $230 $29 $-1 $433 reversed single #
loop $-1 $-1 $221 $215 #
plane-surface $-1 0 24.372416926867611 0 0 -1 0 0 0 -1 forward_v I I I I #
coedge $-1 $224 $434 $335 $435 forward $216 $-1 #
coedge $-1 $436 $218 $434 $437 forward $129 $-1 #
coedge $-1 $218 $436 $337 $438 forward $129 $-1 #
edge $-1 $339 -24.372416926867611 $439 24.372416926867611 $218 $440 forward 7 unknown #
coedge $-1 $220 $219 $331 $435 reversed $81 $-1 #
edge $-1 $342 -24.372416926867611 $338 24.372416926867611 $219 $441 forward 7 unknown #
coedge $-1 $344 $221 $333 $438 reversed $329 $-1 #
vertex $-1 $227 $442 #
vertex $-1 $222 $443 #
straight-curve $-1 55.135077015891788 24.372416926867611 2.4494980135783271 0 0 1 I I #
coedge $-1 $434 $224 $229 $348 reversed $216 $-1 #
vertex $-1 $225 $444 #
straight-curve $-1 28.641095222172659 -24.372416926867611 3.3989960271566542 1 0 0 I I #
coedge $-1 $226 $337 $228 $347 forward $329 $-1 #
straight-curve $-1 28.641095222172659 24.372416926867611 3.3989960271566542 -1 0 0 I I #
coedge $-1 $229 $228 $436 $445 reversed $230 $-1 #
edge $-1 $446 -6.3989960271566542 $232 -3.3989960271566542 $228 $447 forward 7 unknown #
edge $-1 $448 -6.3989960271566542 $231 -3.3989960271566542 $229 $449 forward 7 unknown #
point $-1 59.429303872798847 -24.372416926867611 3.3989960271566542 #
point $-1 59.429303872798847 24.372416926867611 3.3989960271566542 #
loop $-1 $-1 $241 $234 #
plane-surface $-1 0 -24.372416926867611 0 0 1 0 0 0 1 forward_v I I I I #
coedge $-1 $450 $451 $238 $355 reversed $235 $-1 #
coedge $-1 $238 $237 $360 $452 reversed $85 $-1 #
edge $-1 $453 -1.3060862827860654e-014 $357 6.0143325714648519 $353 $454 forward 7 unknown #
coedge $-1 $244 $239 $451 $455 forward $137 $-1 #
vertex $-1 $455 $456 #
straight-curve $-1 -24.385623501568237 -19.445764137048918 6.3989960271566542 -1 0 0 I I #
coedge $-1 $457 $241 $244 $364 reversed $351 $-1 #
coedge $-1 $241 $457 $354 $452 forward $351 $-1 #
vertex $-1 $242 $458 #
straight-curve $-1 -42.407416990381151 -24.372416926867608 50.156293720127842 0 0 1 I I #
straight-curve $-1 -42.407416990381151 -24.372416926867601 2.9493165393266878 0 -0.81915203911291934 -0.57357644374324357 I I #
edge $-1 $459 -55.135077015891795 $245 -42.407416990381151 $359 $460 forward 7 unknown #
point $-1 -42.407416990381151 -24.372416926867611 6.3989960271566542 #
point $-1 -42.407416990381151 -19.445764137048918 6.3989960271566542 #
edge $-1 $461 1 $461 0 $248 $-1 forward 7 unknown #
vertex $-1 $249 $462 #
ellipse-curve $-1 -51.498602722888755 -18.81406735026064 0.25400518037616138 0 -0.57357644374324357 0.81915203911291934 1.5 0 0 1 I I #
point $-1 -49.998602722888755 -21.909090531958281 4.6741562832416772 #
edge $-1 $463 1 $463 0 $252 $-1 forward 7 unknown #
vertex $-1 $253 $464 #
ellipse-curve $-1 -46.043891283384191 -18.81406735026064 0.25400518037616138 0 -0.57357644374324357 0.81915203911291934 1.5 0 0 1 I I #
point $-1 -44.543891283384191 -21.909090531958281 4.6741562832416772 #
loop $-1 $-1 $265 $256 #
plane-surface $-1 55.135077015891788 0 4.8989960271566542 1 0 0 0 0 -1 forward_v I I I I #
coedge $-1 $465 $259 $264 $383 forward $159 $-1 #
coedge $-1 $259 $465 $380 $466 reversed $159 $-1 #
edge $-1 $381 43.757297692971186 $388 47.206977180801161 $259 $467 forward 7 unknown #
coedge $-1 $268 $262 $378 $466 forward $257 $-1 #
vertex $-1 $466 $468 #
straight-curve $-1 42.407416990381158 -46.27345723293034 6.3989960271566559 0 -1 0 I I #
edge $-1 $388 18.021793488812918 $386 30.749453514323562 $377 $469 forward 7 unknown #
coedge $-1 $385 $265 $268 $390 reversed $375 $-1 #
coedge $-1 $265 $384 $465 $470 reversed $375 $-1 #
vertex $-1 $470 $471 #
straight-curve $-1 55.135077015891788 -15.737323555947787 8.9956741269201341 0 0.81915203911291934 0.57357644374324357 I I #
vertex $-1 $383 $472 #
straight-curve $-1 42.407416990381158 -24.372416926867601 2.9493165393266878 0 0.81915203911291934 0.57357644374324357 I I #
edge $-1 $473 -24.372416926867611 $269 -19.445764137048918 $268 $474 forward 7 unknown #
point $-1 55.135077015891802 -19.445764137048918 6.3989960271566542 #
point $-1 42.407416990381158 -19.445764137048918 6.3989960271566542 #
edge $-1 $475 1 $475 0 $272 $-1 forward 7 unknown #
vertex $-1 $273 $476 #
ellipse-curve $-1 46.043891283384198 -18.81406735026064 0.25400518037616138 0 -0.57357644374324357 0.81915203911291934 1.5 0 0 1 I I #
point $-1 47.543891283384198 -21.909090531958281 4.6741562832416772 #
edge $-1 $477 1 $477 0 $276 $-1 forward 7 unknown #
vertex $-1 $277 $478 #
ellipse-curve $-1 51.498602722888748 -18.81406735026064 0.25400518037616138 0 -0.57357644374324357 0.81915203911291934 1.5 0 0 1 I I #
point $-1 52.998602722888748 -21.909090531958281 4.6741562832416772 #
plane-surface $-1 59.429303872798855 0 0 -1 0 0 0 0 1 forward_v I I I I #
coedge $-1 $285 $283 $287 $406 reversed $181 $-1 #
edge $-1 $298 -6.3989960271566542 $408 6.3989960271566542 $297 $479 forward 7 unknown #
vertex $-1 $406 $480 #
straight-curve $-1 -59.429303872798855 -24.372416926867611 0 0 0 -1 I I #
edge $-1 $404 -24.372416926867611 $408 24.372416926867611 $402 $481 forward 7 unknown #
straight-curve $-1 0 -24.372416926867611 -6.3989960271566542 -1 0 0 I I #
vertex $-1 $290 $482 #
straight-curve $-1 0 24.372416926867611 -6.3989960271566542 1 0 0 I I #
point $-1 59.429303872798855 24.372416926867611 -6.3989960271566542 #
point $-1 59.429303872798855 -24.372416926867611 -6.3989960271566542 #
straight-curve $-1 -59.429303872798855 0 6.3989960271566542 0 -1 0 I I #
point $-1 -59.429303872798855 24.372416926867611 6.3989960271566542 #
point $-1 -59.429303872798855 -24.372416926867611 6.3989960271566542 #
straight-curve $-1 59.429303872798855 -24.372416926867611 0 0 0 -1 I I #
straight-curve $-1 59.429303872798855 24.372416926867611 0 0 0 -1 I I #
plane-surface $-1 0 -24.372416926867611 0 0 1 0 0 0 1 forward_v I I I I #
coedge $-1 $483 $310 $320 $429 reversed $200 $-1 #
coedge $-1 $310 $483 $323 $431 forward $200 $-1 #
coedge $-1 $484 $313 $311 $421 forward $308 $-1 #
edge $-1 $422 55.135077015891795 $485 59.429303872798855 $311 $486 forward 7 unknown #
vertex $-1 $421 $487 #
straight-curve $-1 -55.135077015891795 24.372416926867611 2.4494980135783271 0 0 -1 I I #
coedge $-1 $313 $484 $315 $426 forward $308 $-1 #
straight-curve $-1 -55.135077015891795 0 6.3989960271566542 0 1 0 I I #
edge $-1 $488 -59.429303872798855 $317 -55.135077015891795 $315 $489 forward 7 unknown #
point $-1 -55.135077015891795 -24.372416926867611 6.3989960271566542 #
straight-curve $-1 -59.429303872798855 0 3.3989960271566542 0 -1 0 I I #
edge $-1 $488 -6.3989960271566542 $321 -3.3989960271566542 $418 $490 forward 7 unknown #
point $-1 -59.429303872798855 -24.372416926867611 3.3989960271566542 #
edge $-1 $485 -6.3989960271566542 $324 -3.3989960271566542 $323 $491 forward 7 unknown #
point $-1 -59.429303872798855 24.372416926867611 3.3989960271566542 #
plane-surface $-1 59.429303872798855 0 0 -1 0 0 0 0 1 forward_v I I I I #
coedge $-1 $331 $341 $332 $437 reversed $216 $-1 #
edge $-1 $439 -3.9494980135783271 $342 -0.94949801357832708 $331 $492 forward 7 unknown #
coedge $-1 $333 $332 $346 $445 forward $129 $-1 #
edge $-1 $439 55.135077015891788 $448 59.429303872798855 $434 $493 forward 7 unknown #
edge $-1 $446 -59.429303872798855 $339 -55.135077015891788 $337 $494 forward 7 unknown #
vertex $-1 $437 $495 #
straight-curve $-1 55.135077015891788 0 6.3989960271566542 0 -1 0 I I #
straight-curve $-1 55.135077015891788 0 3.3989960271566542 0 1 0 I I #
point $-1 55.135077015891788 24.372416926867611 3.3989960271566542 #
point $-1 55.135077015891788 24.372416926867611 6.3989960271566542 #
point $-1 55.135077015891788 -24.372416926867611 3.3989960271566542 #
edge $-1 $448 -24.372416926867611 $446 24.372416926867611 $346 $496 forward 7 unknown #
vertex $-1 $445 $497 #
straight-curve $-1 59.429303872798855 24.372416926867611 0 0 0 -1 I I #
vertex $-1 $445 $498 #
straight-curve $-1 59.429303872798855 -24.372416926867611 0 0 0 -1 I I #
coedge $-1 $451 $353 $457 $499 reversed $235 $-1 #
coedge $-1 $353 $450 $356 $455 reversed $235 $-1 #
edge $-1 $453 -30.749453514323559 $361 -18.021793488812914 $360 $500 forward 7 unknown #
vertex $-1 $499 $501 #
straight-curve $-1 -55.135077015891795 -24.372416926867601 2.9493165393266878 0 0.81915203911291934 0.57357644374324357 I I #
edge $-1 $357 19.445764137048918 $459 24.372416926867611 $356 $502 forward 7 unknown #
point $-1 -55.135077015891795 -19.445764137048918 6.3989960271566542 #
coedge $-1 $360 $359 $450 $499 forward $351 $-1 #
point $-1 -42.407416990381151 -24.372416926867611 2.9493165393266803 #
vertex $-1 $364 $503 #
straight-curve $-1 0 -24.372416926867611 6.3989960271566542 1 0 0 I I #
vertex $-1 $367 $504 #
point $-1 -49.998602722888755 -18.81406735026064 0.25400518037616138 #
vertex $-1 $371 $505 #
point $-1 -44.543891283384191 -18.81406735026064 0.25400518037616138 #
coedge $-1 $378 $377 $385 $470 forward $159 $-1 #
edge $-1 $381 42.407416990381158 $473 55.135077015891788 $378 $506 forward 7 unknown #
straight-curve $-1 42.407416990381158 -24.372416926867608 50.156293720127842 0 0 -1 I I #
point $-1 42.407416990381158 -24.372416926867611 6.3989960271566542 #
straight-curve $-1 24.38562350156824 -24.372416926867611 2.9493165393266825 1 0 0 I I #
edge $-1 $386 -47.206977180801161 $473 -43.757297692971186 $465 $507 forward 7 unknown #
point $-1 55.135077015891802 -24.372416926867611 2.9493165393266803 #
point $-1 42.407416990381158 -24.372416926867611 2.9493165393266803 #
vertex $-1 $390 $508 #
straight-curve $-1 55.135077015891788 0 6.3989960271566542 0 1 0 I I #
vertex $-1 $393 $509 #
point $-1 47.543891283384198 -18.81406735026064 0.25400518037616138 #
vertex $-1 $397 $510 #
point $-1 52.998602722888748 -18.81406735026064 0.25400518037616138 #
straight-curve $-1 -59.429303872798855 24.372416926867611 0 0 0 -1 I I #
point $-1 -59.429303872798855 -24.372416926867611 -6.3989960271566542 #
straight-curve $-1 -59.429303872798855 0 -6.3989960271566542 0 1 0 I I #
point $-1 -59.429303872798855 24.372416926867611 -6.3989960271566542 #
coedge $-1 $419 $418 $484 $511 reversed $200 $-1 #
coedge $-1 $424 $420 $483 $511 forward $308 $-1 #
vertex $-1 $421 $512 #
straight-curve $-1 0 24.372416926867611 6.3989960271566542 -1 0 0 I I #
point $-1 -55.135077015891795 24.372416926867611 6.3989960271566542 #
vertex $-1 $511 $513 #
straight-curve $-1 0 -24.372416926867611 6.3989960271566542 1 0 0 I I #
straight-curve $-1 -59.429303872798855 -24.372416926867611 0 0 0 -1 I I #
straight-curve $-1 -59.429303872798855 24.372416926867611 0 0 0 -1 I I #
straight-curve $-1 55.135077015891788 -24.372416926867611 2.4494980135783271 0 0 -1 I I #
straight-curve $-1 0 -24.372416926867611 6.3989960271566542 1 0 0 I I #
straight-curve $-1 0 24.372416926867611 6.3989960271566542 -1 0 0 I I #
point $-1 55.135077015891788 -24.372416926867611 6.3989960271566542 #
straight-curve $-1 59.429303872798855 0 6.3989960271566542 0 1 0 I I #
point $-1 59.429303872798855 24.372416926867611 6.3989960271566542 #
point $-1 59.429303872798855 -24.372416926867611 6.3989960271566542 #
edge $-1 $459 43.757297692971186 $453 47.206977180801161 $457 $514 forward 7 unknown #
straight-curve $-1 -24.385623501568237 -24.372416926867611 2.9493165393266825 1 0 0 I I #
point $-1 -55.135077015891795 -24.372416926867611 2.9493165393266803 #
straight-curve $-1 -55.135077015891795 0 6.3989960271566542 0 -1 0 I I #
point $-1 -55.135077015891795 -24.372416926867611 6.3989960271566542 #
point $-1 -51.498602722888755 -17.953702684645773 -0.97472287829321758 #
point $-1 -46.043891283384191 -17.953702684645773 -0.97472287829321758 #
straight-curve $-1 0 -24.372416926867611 6.3989960271566542 1 0 0 I I #
straight-curve $-1 55.135077015891802 -24.372416926867608 50.156293720127842 0 0 1 I I #
point $-1 55.135077015891788 -24.372416926867611 6.3989960271566542 #
point $-1 46.043891283384198 -17.953702684645773 -0.97472287829321758 #
point $-1 51.498602722888748 -17.953702684645773 -0.97472287829321758 #
edge $-1 $485 -24.372416926867611 $488 24.372416926867611 $483 $515 forward 7 unknown #
point $-1 -59.429303872798855 24.372416926867611 6.3989960271566542 #
point $-1 -59.429303872798855 -24.372416926867611 6.3989960271566542 #
straight-curve $-1 -55.135077015891795 -24.372416926867608 50.156293720127842 0 0 -1 I I #
straight-curve $-1 -59.429303872798855 0 6.3989960271566542 0 -1 0 I I #
End-of-ACIS-data 