500 0 4 0           
7 Unknown 11 ACIS 5.0 NT 24 Thu Mar 25 22:28:50 1999 
-1 9.9999999999999995e-007 1e-010 
body $-1 $4 $-1 $5 #
body $-1 $6 $-1 $7 #
body $-1 $8 $-1 $9 #
body $-1 $10 $-1 $11 #
lump $-1 $-1 $12 $0 #
transform $-1 1 0 0 0 1 0 0 0 1 46.51509140293588 28.890830323626528 7.7752280686626225 1 rotate no_reflect no_shear #
lump $-1 $-1 $13 $1 #
transform $-1 1 0 0 0 1 0 0 0 1 46.51509140293588 28.890830323626528 7.7752280686626225 1 rotate no_reflect no_shear #
lump $-1 $-1 $14 $2 #
transform $-1 1 0 0 0 1 0 0 0 1 46.51509140293588 28.890830323626528 7.7752280686626225 1 rotate no_reflect no_shear #
lump $-1 $-1 $15 $3 #
transform $-1 1 0 0 0 1 0 0 0 1 46.51509140293588 28.890830323626528 7.7752280686626225 1 rotate no_reflect no_shear #
shell $-1 $-1 $-1 $16 $-1 $4 #
shell $-1 $-1 $-1 $17 $-1 $6 #
shell $-1 $-1 $-1 $18 $-1 $8 #
shell $-1 $-1 $-1 $19 $-1 $10 #
face $-1 $20 $21 $12 $-1 $22 forward single #
face $-1 $23 $24 $13 $-1 $25 forward single #
face $-1 $26 $27 $14 $-1 $28 reversed single #
face $-1 $29 $30 $15 $-1 $31 forward single #
face $-1 $32 $33 $12 $-1 $34 reversed single #
loop $-1 $-1 $35 $16 #
plane-surface $-1 0 0 7.7752280686626225 0 0 1 1 0 0 forward_v I I I I #
face $-1 $36 $37 $13 $-1 $38 reversed single #
loop $-1 $-1 $39 $17 #
plane-surface $-1 0 -28.890830323626528 0 0 1 0 0 0 1 forward_v I I I I #
face $-1 $40 $41 $14 $-1 $42 reversed single #
loop $-1 $-1 $43 $18 #
plane-surface $-1 -35.420006366555796 34.918786595674234 112.16945121381772 -1 0 0 0 0.57357644374324357 0.81915203911291934 forward_v I I I I #
face $-1 $44 $45 $15 $-1 $46 forward single #
loop $-1 $47 $48 $19 #
cone-surface $-1 -40.967548884745838 25.040507884811827 4.8514204814723891 0 -0.57357644374324357 -0.81915203911291934 1 0 0 1 I I 0 1 1 forward I I I I #
face $-1 $49 $50 $12 $-1 $51 reversed single #
loop $-1 $-1 $52 $20 #
plane-surface $-1 0 0 -7.7752280686626225 0 0 1 1 0 0 forward_v I I I I #
coedge $-1 $53 $54 $55 $56 forward $21 $-1 #
face $-1 $57 $58 $13 $-1 $59 reversed single #
loop $-1 $-1 $60 $23 #
plane-surface $-1 0 0 -7.7752280686626225 0 0 1 1 0 0 forward_v I I I I #
coedge $-1 $61 $62 $63 $64 forward $24 $-1 #
face $-1 $65 $66 $14 $-1 $67 forward single #
loop $-1 $-1 $68 $26 #
plane-surface $-1 -40.967548884745838 -18.441134818901531 35.963587269340223 0 0.57357644374324357 0.81915203911291934 1 0 0 forward_v I I I I #
coedge $-1 $69 $70 $71 $72 reversed $27 $-1 #
face $-1 $-1 $73 $15 $-1 $74 forward single #
loop $-1 $75 $76 $29 #
cone-surface $-1 -40.967548884745838 24.440805679104205 3.9949569882020537 0 -0.57357644374324357 -0.81915203911291934 0.5 0 0 1 I I -0.70710678118654746 0.70710678118654746 0.5 forward I I I I #
loop $-1 $-1 $77 $19 #
coedge $-1 $48 $48 $78 $79 reversed $30 $-1 #
face $-1 $80 $81 $12 $-1 $82 reversed single #
loop $-1 $-1 $83 $32 #
plane-surface $-1 0 -28.890830323626528 0 0 1 0 0 0 1 forward_v I I I I #
coedge $-1 $84 $85 $86 $87 forward $33 $-1 #
coedge $-1 $88 $35 $89 $90 forward $21 $-1 #
coedge $-1 $35 $88 $91 $92 forward $21 $-1 #
coedge $-1 $93 $94 $35 $56 reversed $95 $-1 #
edge $-1 $96 -28.890830323626528 $97 28.890830323626528 $55 $98 forward 7 unknown #
face $-1 $99 $100 $13 $-1 $101 forward single #
loop $-1 $-1 $102 $36 #
plane-surface $-1 46.51509140293588 0 0 -1 0 0 0 0 1 forward_v I I I I #
coedge $-1 $103 $104 $105 $106 forward $37 $-1 #
coedge $-1 $105 $39 $102 $107 reversed $24 $-1 #
coedge $-1 $39 $105 $108 $109 reversed $24 $-1 #
coedge $-1 $110 $111 $39 $64 reversed $100 $-1 #
edge $-1 $112 -46.51509140293588 $113 46.51509140293588 $63 $114 forward 7 unknown #
face $-1 $115 $116 $14 $-1 $117 reversed single #
loop $-1 $-1 $118 $40 #
plane-surface $-1 0 0 7.7752280686626225 0 0 1 1 0 0 forward_v I I I I #
coedge $-1 $119 $120 $121 $122 reversed $41 $-1 #
coedge $-1 $70 $43 $123 $124 reversed $27 $-1 #
coedge $-1 $43 $69 $119 $125 reversed $27 $-1 #
coedge $-1 $121 $126 $43 $72 forward $116 $-1 #
edge $-1 $127 48.309497538246241 $128 53.263337765198969 $71 $129 forward 7 unknown #
loop $-1 $-1 $78 $44 #
plane-surface $-1 -40.967548884745838 -18.441134818901531 35.963587269340223 0 0.57357644374324357 0.81915203911291934 1 0 0 forward_v I I I I #
loop $-1 $-1 $130 $29 #
coedge $-1 $76 $76 $77 $131 reversed $45 $-1 #
coedge $-1 $77 $77 $76 $131 forward $47 $-1 #
coedge $-1 $78 $78 $48 $79 forward $73 $-1 #
edge $-1 $132 3.6302155746833221e-016 $132 6.2831853071796004 $78 $133 forward 7 unknown #
face $-1 $134 $135 $12 $-1 $136 reversed single #
loop $-1 $-1 $137 $49 #
plane-surface $-1 -46.51509140293588 0 0 1 0 0 0 0 -1 forward_v I I I I #
coedge $-1 $138 $91 $139 $140 forward $50 $-1 #
coedge $-1 $141 $52 $138 $142 forward $33 $-1 #
coedge $-1 $52 $141 $143 $144 forward $33 $-1 #
coedge $-1 $94 $93 $52 $87 reversed $95 $-1 #
edge $-1 $145 -28.890830323626528 $146 28.890830323626528 $86 $147 forward 7 unknown #
coedge $-1 $54 $53 $148 $149 forward $21 $-1 #
coedge $-1 $150 $151 $53 $90 reversed $135 $-1 #
edge $-1 $97 -46.51509140293588 $152 46.51509140293588 $89 $153 forward 7 unknown #
coedge $-1 $83 $154 $54 $92 reversed $50 $-1 #
edge $-1 $155 -46.51509140293588 $96 46.51509140293588 $91 $156 forward 7 unknown #
coedge $-1 $86 $55 $154 $157 forward $95 $-1 #
coedge $-1 $55 $86 $150 $158 reversed $95 $-1 #
loop $-1 $-1 $93 $134 #
vertex $-1 $56 $159 #
vertex $-1 $56 $160 #
straight-curve $-1 46.51509140293588 0 7.7752280686626225 0 1 0 I I #
face $-1 $161 $162 $13 $-1 $163 reversed single #
loop $-1 $-1 $111 $57 #
plane-surface $-1 0 -33.23175531708781 -3.9554073220664385 0 0 1 1 0 0 forward_v I I I I #
coedge $-1 $164 $165 $61 $107 forward $58 $-1 #
coedge $-1 $166 $60 $165 $167 forward $37 $-1 #
coedge $-1 $60 $166 $168 $169 forward $37 $-1 #
coedge $-1 $62 $61 $60 $106 reversed $24 $-1 #
edge $-1 $170 -46.51509140293588 $171 46.51509140293588 $60 $172 forward 7 unknown #
edge $-1 $171 -7.7752280686626225 $113 -3.9554073220664385 $102 $173 forward 7 unknown #
coedge $-1 $168 $174 $62 $109 forward $175 $-1 #
edge $-1 $112 3.9554073220664385 $170 7.7752280686626225 $108 $176 forward 7 unknown #
coedge $-1 $177 $63 $174 $178 forward $100 $-1 #
coedge $-1 $63 $177 $164 $179 forward $100 $-1 #
vertex $-1 $109 $180 #
vertex $-1 $179 $181 #
straight-curve $-1 0 -28.890830323626528 -3.9554073220664385 1 0 0 I I #
face $-1 $-1 $182 $14 $-1 $183 reversed single #
loop $-1 $-1 $71 $65 #
plane-surface $-1 0 28.890830323626528 0 0 -1 0 0 0 -1 forward_v I I I I #
coedge $-1 $123 $184 $185 $186 forward $66 $-1 #
coedge $-1 $185 $68 $70 $125 forward $41 $-1 #
coedge $-1 $68 $185 $187 $188 reversed $41 $-1 #
coedge $-1 $189 $71 $68 $122 forward $116 $-1 #
edge $-1 $128 14.936231924182877 $190 26.031316960562961 $121 $191 forward 7 unknown #
coedge $-1 $192 $118 $69 $124 forward $66 $-1 #
edge $-1 $193 4.3566201158320013 $127 11.43143702578941 $123 $194 forward 7 unknown #
edge $-1 $128 -57.781660647253048 $193 -49.144903888863098 $70 $195 forward 7 unknown #
coedge $-1 $71 $189 $192 $196 reversed $116 $-1 #
vertex $-1 $196 $197 #
vertex $-1 $72 $198 #
straight-curve $-1 -35.420006366555796 28.890830323626528 56.084725606908862 0 0 -1 I I #
coedge $-1 $130 $130 $-1 $199 reversed $75 $-1 #
edge $-1 $200 0 $200 6.2831853071796004 $76 $201 forward 7 unknown #
vertex $-1 $79 $202 #
ellipse-curve $-1 -40.967548884745838 25.353421868647825 5.2983079551862602 0 0.57357644374324357 0.81915203911291934 1 0 0 1 I I #
face $-1 $-1 $95 $12 $-1 $203 reversed single #
loop $-1 $-1 $150 $80 #
plane-surface $-1 0 28.890830323626528 0 0 -1 0 0 0 -1 forward_v I I I I #
coedge $-1 $204 $148 $151 $205 forward $81 $-1 #
coedge $-1 $154 $83 $84 $142 reversed $50 $-1 #
coedge $-1 $148 $204 $83 $140 reversed $81 $-1 #
edge $-1 $155 -7.7752280686626225 $206 7.7752280686626225 $139 $207 forward 7 unknown #
coedge $-1 $85 $84 $204 $208 forward $33 $-1 #
edge $-1 $146 -46.51509140293588 $206 46.51509140293588 $138 $209 forward 7 unknown #
coedge $-1 $151 $150 $85 $144 reversed $135 $-1 #
edge $-1 $210 -46.51509140293588 $145 46.51509140293588 $143 $211 forward 7 unknown #
vertex $-1 $87 $212 #
vertex $-1 $157 $213 #
straight-curve $-1 46.51509140293588 0 -7.7752280686626225 0 -1 0 I I #
coedge $-1 $137 $139 $88 $149 reversed $81 $-1 #
edge $-1 $152 -28.890830323626528 $155 28.890830323626528 $148 $214 forward 7 unknown #
coedge $-1 $143 $89 $94 $158 forward $135 $-1 #
coedge $-1 $89 $143 $137 $205 reversed $135 $-1 #
vertex $-1 $90 $215 #
straight-curve $-1 0 28.890830323626528 7.7752280686626225 -1 0 0 I I #
coedge $-1 $91 $138 $93 $157 reversed $50 $-1 #
vertex $-1 $149 $216 #
straight-curve $-1 0 -28.890830323626528 7.7752280686626225 1 0 0 I I #
edge $-1 $96 -7.7752280686626225 $146 7.7752280686626225 $93 $217 forward 7 unknown #
edge $-1 $97 -7.7752280686626225 $145 7.7752280686626225 $94 $218 forward 7 unknown #
point $-1 46.51509140293588 -28.890830323626528 7.7752280686626225 #
point $-1 46.51509140293588 28.890830323626528 7.7752280686626225 #
face $-1 $-1 $175 $13 $-1 $219 reversed single #
loop $-1 $-1 $220 $99 #
plane-surface $-1 0 -37.572680310549089 -5.8653176953645305 0 1 0 0 0 1 forward_v I I I I #
coedge $-1 $221 $102 $111 $179 reversed $58 $-1 #
coedge $-1 $102 $221 $103 $167 reversed $58 $-1 #
coedge $-1 $104 $103 $222 $223 forward $37 $-1 #
edge $-1 $171 28.890830323626528 $224 37.572680310549089 $165 $225 forward 7 unknown #
coedge $-1 $226 $108 $104 $169 reversed $175 $-1 #
edge $-1 $227 -37.572680310549089 $170 -28.890830323626528 $168 $228 forward 7 unknown #
vertex $-1 $109 $229 #
vertex $-1 $167 $230 #
straight-curve $-1 0 -28.890830323626528 -7.7752280686626225 1 0 0 I I #
straight-curve $-1 46.51509140293588 -28.890830323626528 0 0 0 1 I I #
coedge $-1 $108 $226 $110 $178 reversed $175 $-1 #
loop $-1 $-1 $108 $161 #
straight-curve $-1 -46.51509140293588 -28.890830323626528 0 0 0 -1 I I #
coedge $-1 $111 $110 $231 $232 forward $100 $-1 #
edge $-1 $112 -4.3409249934612788 $233 4.3409249934612788 $174 $234 forward 7 unknown #
edge $-1 $235 -4.3409249934612788 $113 4.3409249934612788 $164 $236 forward 7 unknown #
point $-1 -46.51509140293588 -28.890830323626531 -3.9554073220664385 #
point $-1 46.51509140293588 -28.890830323626531 -3.9554073220664385 #
loop $-1 $-1 $187 $115 #
plane-surface $-1 -46.51509140293588 0 0 1 0 0 0 0 -1 forward_v I I I I #
coedge $-1 $118 $192 $237 $238 forward $66 $-1 #
coedge $-1 $120 $119 $118 $186 reversed $41 $-1 #
edge $-1 $239 -26.031316960562961 $193 -14.936231924182877 $118 $240 forward 7 unknown #
coedge $-1 $237 $241 $120 $188 forward $182 $-1 #
edge $-1 $190 -39.914680806924352 $239 -31.277924048534402 $187 $242 forward 7 unknown #
coedge $-1 $126 $121 $241 $243 reversed $116 $-1 #
vertex $-1 $122 $244 #
straight-curve $-1 -20.483774442372919 28.890830323626531 2.8213878417098925 -1 0 0 I I #
coedge $-1 $184 $123 $126 $196 forward $66 $-1 #
vertex $-1 $124 $245 #
straight-curve $-1 -35.420006366555796 17.459393297837117 7.7752280686626207 0 1 0 I I #
straight-curve $-1 -35.420006366555796 -18.441134818901531 35.963587269340223 0 -0.81915203911291934 0.57357644374324357 I I #
edge $-1 $127 35.420006366555796 $246 46.51509140293588 $126 $247 forward 7 unknown #
point $-1 -35.420006366555796 28.890830323626528 7.7752280686626225 #
point $-1 -35.420006366555796 28.890830323626531 2.8213878417098925 #
edge $-1 $248 1 $248 0 $130 $-1 forward 7 unknown #
vertex $-1 $131 $249 #
ellipse-curve $-1 -40.967548884745838 24.727593900975826 4.4045330077585136 0 0.57357644374324357 0.81915203911291934 1 0 0 1 I I #
point $-1 -39.967548884745838 25.353421868647828 5.2983079551862646 #
plane-surface $-1 46.51509140293588 0 0 -1 0 0 0 0 1 forward_v I I I I #
coedge $-1 $139 $137 $141 $208 reversed $81 $-1 #
edge $-1 $152 -7.7752280686626225 $210 7.7752280686626225 $151 $250 forward 7 unknown #
vertex $-1 $208 $251 #
straight-curve $-1 -46.51509140293588 -28.890830323626528 0 0 0 -1 I I #
edge $-1 $206 -28.890830323626528 $210 28.890830323626528 $204 $252 forward 7 unknown #
straight-curve $-1 0 -28.890830323626528 -7.7752280686626225 -1 0 0 I I #
vertex $-1 $144 $253 #
straight-curve $-1 0 28.890830323626528 -7.7752280686626225 1 0 0 I I #
point $-1 46.51509140293588 28.890830323626528 -7.7752280686626225 #
point $-1 46.51509140293588 -28.890830323626528 -7.7752280686626225 #
straight-curve $-1 -46.51509140293588 0 7.7752280686626225 0 -1 0 I I #
point $-1 -46.51509140293588 28.890830323626528 7.7752280686626225 #
point $-1 -46.51509140293588 -28.890830323626528 7.7752280686626225 #
straight-curve $-1 46.51509140293588 -28.890830323626528 0 0 0 -1 I I #
straight-curve $-1 46.51509140293588 28.890830323626528 0 0 0 -1 I I #
plane-surface $-1 -46.51509140293588 0 0 1 0 0 0 0 -1 forward_v I I I I #
coedge $-1 $222 $231 $226 $254 forward $162 $-1 #
coedge $-1 $165 $164 $255 $256 forward $58 $-1 #
coedge $-1 $255 $220 $166 $223 reversed $162 $-1 #
edge $-1 $224 -46.51509140293588 $227 46.51509140293588 $222 $257 forward 7 unknown #
vertex $-1 $256 $258 #
straight-curve $-1 46.51509140293588 0 -7.7752280686626225 0 -1 0 I I #
coedge $-1 $174 $168 $220 $254 reversed $175 $-1 #
vertex $-1 $169 $259 #
straight-curve $-1 -46.51509140293588 0 -7.7752280686626225 0 1 0 I I #
point $-1 -46.51509140293588 -28.890830323626528 -7.7752280686626225 #
point $-1 46.51509140293588 -28.890830323626528 -7.7752280686626225 #
coedge $-1 $220 $255 $177 $232 reversed $162 $-1 #
edge $-1 $233 -46.51509140293588 $235 46.51509140293588 $231 $260 forward 7 unknown #
vertex $-1 $178 $261 #
straight-curve $-1 -46.51509140293588 -33.23175531708781 -3.9554073220664385 0 -1 0 I I #
vertex $-1 $179 $262 #
straight-curve $-1 46.51509140293588 -33.23175531708781 -3.9554073220664385 0 1 0 I I #
coedge $-1 $241 $187 $184 $238 reversed $182 $-1 #
edge $-1 $246 -28.890830323626528 $239 -21.816013413669118 $237 $263 forward 7 unknown #
vertex $-1 $188 $264 #
straight-curve $-1 -20.483774442372919 21.816013413669125 7.7752280686626243 1 0 0 I I #
coedge $-1 $187 $237 $189 $243 forward $182 $-1 #
straight-curve $-1 -46.51509140293588 -3.8053618499068547 25.715508512092264 0 -0.81915203911291934 0.57357644374324357 I I #
edge $-1 $246 -7.7752280686626225 $190 -2.821387841709893 $189 $265 forward 7 unknown #
point $-1 -46.51509140293588 28.890830323626528 2.821387841709893 #
point $-1 -35.420006366555796 21.816013413669118 7.7752280686626243 #
vertex $-1 $196 $266 #
straight-curve $-1 0 28.890830323626528 7.7752280686626225 -1 0 0 I I #
vertex $-1 $199 $267 #
point $-1 -39.967548884745838 24.727593900975826 4.4045330077585136 #
straight-curve $-1 -46.51509140293588 28.890830323626528 0 0 0 -1 I I #
point $-1 -46.51509140293588 -28.890830323626528 -7.7752280686626225 #
straight-curve $-1 -46.51509140293588 0 -7.7752280686626225 0 1 0 I I #
point $-1 -46.51509140293588 28.890830323626528 -7.7752280686626225 #
edge $-1 $233 -1.909910373298092 $227 1.909910373298092 $226 $268 forward 7 unknown #
coedge $-1 $231 $222 $221 $256 reversed $162 $-1 #
edge $-1 $235 -1.909910373298092 $224 1.909910373298092 $221 $269 forward 7 unknown #
straight-curve $-1 0 -37.572680310549089 -7.7752280686626225 -1 0 0 I I #
point $-1 46.51509140293588 -37.572680310549089 -7.7752280686626225 #
point $-1 -46.51509140293588 -37.572680310549089 -7.7752280686626225 #
straight-curve $-1 0 -37.572680310549089 -3.9554073220664385 1 0 0 I I #
point $-1 -46.51509140293588 -37.572680310549089 -3.9554073220664385 #
point $-1 46.51509140293588 -37.572680310549089 -3.9554073220664385 #
straight-curve $-1 -46.51509140293588 0 7.7752280686626225 0 -1 0 I I #
point $-1 -46.51509140293588 21.816013413669118 7.7752280686626243 #
straight-curve $-1 -46.51509140293588 28.890830323626528 0 0 0 -1 I I #
point $-1 -46.51509140293588 28.890830323626528 7.7752280686626225 #
point $-1 -40.967548884745838 24.154017457232584 3.5853809686455942 #
straight-curve $-1 -46.51509140293588 -37.572680310549089 -5.8653176953645305 0 0 -1 I I #
straight-curve $-1 46.51509140293588 -37.572680310549089 -5.8653176953645305 0 0 -1 I I #
End-of-ACIS-data 