500 0 9 0           
7 Unknown 11 ACIS 5.0 NT 24 Fri Mar 26 16:56:21 1999 
-1 9.9999999999999995e-007 1e-010 
body $-1 $9 $-1 $10 #
body $-1 $11 $-1 $12 #
body $-1 $13 $-1 $14 #
body $-1 $15 $-1 $16 #
body $-1 $17 $-1 $18 #
body $-1 $19 $-1 $20 #
body $-1 $21 $-1 $22 #
body $-1 $23 $-1 $24 #
body $-1 $25 $-1 $26 #
lump $-1 $-1 $27 $0 #
transform $-1 1 0 0 0 1 0 0 0 1 50.744956816309092 33.365734431339391 15.667140414459299 1 rotate no_reflect no_shear #
lump $-1 $-1 $28 $1 #
transform $-1 1 0 0 0 1 0 0 0 1 50.744956816309092 33.365734431339391 15.667140414459299 1 rotate no_reflect no_shear #
lump $-1 $-1 $29 $2 #
transform $-1 1 0 0 0 1 0 0 0 1 50.744956816309092 33.365734431339391 15.667140414459299 1 rotate no_reflect no_shear #
lump $-1 $-1 $30 $3 #
transform $-1 1 0 0 0 1 0 0 0 1 50.744956816309092 33.365734431339391 15.667140414459299 1 rotate no_reflect no_shear #
lump $-1 $-1 $31 $4 #
transform $-1 1 0 0 0 1 0 0 0 1 50.744956816309092 33.365734431339391 15.667140414459299 1 rotate no_reflect no_shear #
lump $-1 $-1 $32 $5 #
transform $-1 1 0 0 0 1 0 0 0 1 50.744956816309092 33.365734431339391 15.667140414459299 1 rotate no_reflect no_shear #
lump $-1 $-1 $33 $6 #
transform $-1 1 0 0 0 1 0 0 0 1 50.744956816309092 33.365734431339391 15.667140414459299 1 rotate no_reflect no_shear #
lump $-1 $-1 $34 $7 #
transform $-1 1 0 0 0 1 0 0 0 1 50.744956816309092 33.365734431339391 15.667140414459299 1 rotate no_reflect no_shear #
lump $-1 $-1 $35 $8 #
transform $-1 1 0 0 0 1 0 0 0 1 50.744956816309092 33.365734431339391 15.667140414459299 1 rotate no_reflect no_shear #
shell $-1 $-1 $-1 $36 $-1 $9 #
shell $-1 $-1 $-1 $37 $-1 $11 #
shell $-1 $-1 $-1 $38 $-1 $13 #
shell $-1 $-1 $-1 $39 $-1 $15 #
shell $-1 $-1 $-1 $40 $-1 $17 #
shell $-1 $-1 $-1 $41 $-1 $19 #
shell $-1 $-1 $-1 $42 $-1 $21 #
shell $-1 $-1 $-1 $43 $-1 $23 #
shell $-1 $-1 $-1 $44 $-1 $25 #
face $-1 $45 $46 $27 $-1 $47 forward single #
face $-1 $48 $49 $28 $-1 $50 forward single #
face $-1 $51 $52 $29 $-1 $53 reversed single #
face $-1 $54 $55 $30 $-1 $56 forward single #
face $-1 $57 $58 $31 $-1 $59 forward single #
face $-1 $60 $61 $32 $-1 $62 forward single #
face $-1 $63 $64 $33 $-1 $65 reversed single #
face $-1 $66 $67 $34 $-1 $68 forward single #
face $-1 $69 $70 $35 $-1 $71 forward single #
face $-1 $72 $73 $27 $-1 $74 reversed single #
loop $-1 $-1 $75 $36 #
plane-surface $-1 0 0 15.667140414459299 0 0 1 1 0 0 forward_v I I I I #
face $-1 $76 $77 $28 $-1 $78 reversed single #
loop $-1 $-1 $79 $37 #
plane-surface $-1 0 -33.365734431339391 0 0 1 0 0 0 1 forward_v I I I I #
face $-1 $80 $81 $29 $-1 $82 reversed single #
loop $-1 $-1 $83 $38 #
plane-surface $-1 85.467624511671488 27.243606756855559 140.41044772014462 0 1 0 0.85716730853699208 0 0.51503806187062418 forward_v I I I I #
face $-1 $84 $85 $30 $-1 $86 forward single #
loop $-1 $87 $88 $39 #
cone-surface $-1 45.799823804876283 28.46803229175233 8.0563655095651256 -0.85716730853699208 0 -0.51503806187062418 0.25751903093531209 0 -0.42858365426849604 1 I I 0 1 0.5 forward I I I I #
face $-1 $89 $90 $31 $-1 $91 forward single #
loop $-1 $92 $93 $40 #
cone-surface $-1 45.799823804876283 30.30467059409748 8.0563655095651256 -0.85716730853699208 0 -0.51503806187062418 0.25751903093531209 0 -0.42858365426849604 1 I I 0 1 0.5 forward I I I I #
face $-1 $94 $95 $32 $-1 $96 forward single #
loop $-1 $97 $98 $41 #
cone-surface $-1 45.799823804876283 32.141308896442624 8.0563655095651256 -0.85716730853699208 0 -0.51503806187062418 0.25751903093531209 0 -0.42858365426849604 1 I I 0 1 0.5 forward I I I I #
face $-1 $99 $100 $33 $-1 $101 reversed single #
loop $-1 $-1 $102 $42 #
plane-surface $-1 -126.16666181099492 -16.678884823376514 72.262149426527159 0 1 0 -0.74314483375859142 0 0.66913059716165679 forward_v I I I I #
face $-1 $103 $104 $34 $-1 $105 forward single #
loop $-1 $106 $107 $43 #
cone-surface $-1 -44.525885685022146 -14.291743009837134 8.9966542721574392 0.74314483375859142 0 -0.66913059716165679 0.66913059716165679 0 0.74314483375859142 1 I I 0 1 1 forward I I I I #
face $-1 $108 $109 $35 $-1 $110 forward single #
loop $-1 $111 $112 $44 #
cone-surface $-1 -44.525885685022146 -10.711030289528058 8.9966542721574392 0.74314483375859142 0 -0.66913059716165679 0.66913059716165679 0 0.74314483375859142 1 I I 0 1 1 forward I I I I #
face $-1 $113 $114 $27 $-1 $115 reversed single #
loop $-1 $-1 $116 $45 #
plane-surface $-1 0 0 -15.667140414459299 0 0 1 1 0 0 forward_v I I I I #
coedge $-1 $117 $118 $119 $120 forward $46 $-1 #
face $-1 $121 $122 $28 $-1 $123 reversed single #
loop $-1 $-1 $124 $48 #
plane-surface $-1 0 0 -15.667140414459299 0 0 1 1 0 0 forward_v I I I I #
coedge $-1 $125 $126 $127 $128 forward $49 $-1 #
face $-1 $129 $130 $29 $-1 $131 forward single #
loop $-1 $-1 $132 $51 #
plane-surface $-1 -1.5262116004516173 30.304670594097473 88.139279303383915 0.85716730853699208 0 0.51503806187062418 0.51503806187062418 0 -0.85716730853699208 forward_v I I I I #
coedge $-1 $133 $134 $135 $136 reversed $52 $-1 #
face $-1 $-1 $137 $30 $-1 $138 forward single #
loop $-1 $139 $140 $54 #
cone-surface $-1 45.003156807408935 28.46803229175233 7.5776797008025465 -0.85716730853699208 0 -0.51503806187062418 0.12875951546765604 0 -0.21429182713424802 1 I I -0.70710678118654746 0.70710678118654746 0.25 forward I I I I #
loop $-1 $-1 $141 $39 #
coedge $-1 $88 $88 $142 $143 reversed $55 $-1 #
face $-1 $-1 $144 $31 $-1 $145 forward single #
loop $-1 $146 $147 $57 #
cone-surface $-1 45.003156807408935 30.30467059409748 7.5776797008025465 -0.85716730853699208 0 -0.51503806187062418 0.12875951546765604 0 -0.21429182713424802 1 I I -0.70710678118654746 0.70710678118654746 0.25 forward I I I I #
loop $-1 $-1 $148 $40 #
coedge $-1 $93 $93 $149 $150 reversed $58 $-1 #
face $-1 $-1 $151 $32 $-1 $152 forward single #
loop $-1 $153 $154 $60 #
cone-surface $-1 45.003156807408935 32.141308896442624 7.5776797008025465 -0.85716730853699208 0 -0.51503806187062418 0.12875951546765604 0 -0.21429182713424802 1 I I -0.70710678118654746 0.70710678118654746 0.25 forward I I I I #
loop $-1 $-1 $155 $41 #
coedge $-1 $98 $98 $156 $157 reversed $61 $-1 #
face $-1 $158 $159 $33 $-1 $160 reversed single #
loop $-1 $-1 $161 $63 #
plane-surface $-1 -50.744956816309085 -12.501386649682594 4.3521429116483858 -0.74314483375859142 0 0.66913059716165679 0.66913059716165679 0 0.74314483375859142 forward_v I I I I #
coedge $-1 $162 $163 $164 $165 reversed $64 $-1 #
face $-1 $-1 $166 $34 $-1 $167 forward single #
loop $-1 $168 $169 $66 #
cone-surface $-1 -43.02927676644871 -14.291743009837134 7.6491015826802045 0.74314483375859142 0 -0.66913059716165679 0.3345652985808284 0 0.37157241687929571 1 I I -0.70710678118654746 0.70710678118654746 0.5 forward I I I I #
loop $-1 $-1 $170 $43 #
coedge $-1 $107 $107 $171 $172 reversed $67 $-1 #
face $-1 $-1 $173 $35 $-1 $174 forward single #
loop $-1 $175 $176 $69 #
cone-surface $-1 -43.02927676644871 -10.711030289528058 7.6491015826802045 0.74314483375859142 0 -0.66913059716165679 0.3345652985808284 0 0.37157241687929571 1 I I -0.70710678118654746 0.70710678118654746 0.5 forward I I I I #
loop $-1 $-1 $177 $44 #
coedge $-1 $112 $112 $178 $179 reversed $70 $-1 #
face $-1 $180 $181 $27 $-1 $182 reversed single #
loop $-1 $-1 $183 $72 #
plane-surface $-1 0 -33.365734431339391 0 0 1 0 0 0 1 forward_v I I I I #
coedge $-1 $184 $185 $186 $187 forward $73 $-1 #
coedge $-1 $188 $75 $189 $190 forward $46 $-1 #
coedge $-1 $75 $188 $191 $192 forward $46 $-1 #
coedge $-1 $193 $194 $75 $120 reversed $195 $-1 #
edge $-1 $196 -33.365734431339391 $197 33.365734431339391 $119 $198 forward 7 unknown #
face $-1 $199 $200 $28 $-1 $201 forward single #
loop $-1 $-1 $202 $76 #
plane-surface $-1 50.744956816309092 0 0 -1 0 0 0 0 1 forward_v I I I I #
coedge $-1 $203 $204 $205 $206 forward $77 $-1 #
coedge $-1 $205 $79 $202 $207 reversed $49 $-1 #
coedge $-1 $79 $205 $208 $209 reversed $49 $-1 #
coedge $-1 $210 $211 $79 $128 reversed $200 $-1 #
edge $-1 $212 -50.744956816309092 $213 50.744956816309092 $127 $214 forward 7 unknown #
face $-1 $215 $216 $29 $-1 $217 reversed single #
loop $-1 $-1 $218 $80 #
plane-surface $-1 0 0 15.667140414459299 0 0 1 1 0 0 forward_v I I I I #
coedge $-1 $219 $220 $221 $222 reversed $81 $-1 #
coedge $-1 $134 $83 $223 $224 reversed $52 $-1 #
coedge $-1 $83 $133 $219 $225 reversed $52 $-1 #
coedge $-1 $221 $226 $83 $136 forward $227 $-1 #
edge $-1 $228 54.538083445613012 $229 69.059780668811499 $135 $230 forward 7 unknown #
loop $-1 $-1 $142 $84 #
plane-surface $-1 -1.5262116004516173 30.304670594097473 88.139279303383915 0.85716730853699208 0 0.51503806187062418 0.51503806187062418 0 -0.85716730853699208 forward_v I I I I #
loop $-1 $-1 $231 $54 #
coedge $-1 $140 $140 $141 $232 reversed $85 $-1 #
coedge $-1 $141 $141 $140 $232 forward $87 $-1 #
coedge $-1 $142 $142 $88 $143 forward $137 $-1 #
edge $-1 $233 0 $233 6.2831853071796004 $142 $234 forward 7 unknown #
loop $-1 $-1 $149 $89 #
plane-surface $-1 -1.5262116004516173 30.304670594097473 88.139279303383915 0.85716730853699208 0 0.51503806187062418 0.51503806187062418 0 -0.85716730853699208 forward_v I I I I #
loop $-1 $-1 $235 $57 #
coedge $-1 $147 $147 $148 $236 reversed $90 $-1 #
coedge $-1 $148 $148 $147 $236 forward $92 $-1 #
coedge $-1 $149 $149 $93 $150 forward $144 $-1 #
edge $-1 $237 0 $237 6.2831853071796004 $149 $238 forward 7 unknown #
loop $-1 $-1 $156 $94 #
plane-surface $-1 -1.5262116004516173 30.304670594097473 88.139279303383915 0.85716730853699208 0 0.51503806187062418 0.51503806187062418 0 -0.85716730853699208 forward_v I I I I #
loop $-1 $-1 $239 $60 #
coedge $-1 $154 $154 $155 $240 reversed $95 $-1 #
coedge $-1 $155 $155 $154 $240 forward $97 $-1 #
coedge $-1 $156 $156 $98 $157 forward $151 $-1 #
edge $-1 $241 0 $241 6.2831853071796004 $156 $242 forward 7 unknown #
face $-1 $243 $244 $33 $-1 $245 reversed single #
loop $-1 $-1 $246 $99 #
plane-surface $-1 -126.16666181099492 -8.3238884759886727 72.262149426527159 0 -1 0 0.74314483375859142 0 -0.66913059716165679 forward_v I I I I #
coedge $-1 $247 $248 $249 $250 reversed $100 $-1 #
coedge $-1 $163 $102 $251 $252 reversed $64 $-1 #
coedge $-1 $102 $162 $247 $253 reversed $64 $-1 #
coedge $-1 $249 $254 $102 $165 forward $255 $-1 #
edge $-1 $256 12.33837408918837 $257 22.526443348374009 $164 $258 forward 7 unknown #
loop $-1 $-1 $171 $103 #
plane-surface $-1 -50.744956816309085 -12.501386649682594 4.3521429116483858 -0.74314483375859142 0 0.66913059716165679 0.66913059716165679 0 0.74314483375859142 forward_v I I I I #
loop $-1 $-1 $259 $66 #
coedge $-1 $169 $169 $170 $260 reversed $104 $-1 #
coedge $-1 $170 $170 $169 $260 forward $106 $-1 #
coedge $-1 $171 $171 $107 $172 forward $166 $-1 #
edge $-1 $261 0 $261 6.2831853071796004 $171 $262 forward 7 unknown #
loop $-1 $-1 $178 $108 #
plane-surface $-1 -50.744956816309085 -12.501386649682594 4.3521429116483858 -0.74314483375859142 0 0.66913059716165679 0.66913059716165679 0 0.74314483375859142 forward_v I I I I #
loop $-1 $-1 $263 $69 #
coedge $-1 $176 $176 $177 $264 reversed $109 $-1 #
coedge $-1 $177 $177 $176 $264 forward $111 $-1 #
coedge $-1 $178 $178 $112 $179 forward $173 $-1 #
edge $-1 $265 0 $265 6.2831853071796004 $178 $266 forward 7 unknown #
face $-1 $267 $268 $27 $-1 $269 reversed single #
loop $-1 $-1 $270 $113 #
plane-surface $-1 -50.744956816309092 0 0 1 0 0 0 0 -1 forward_v I I I I #
coedge $-1 $271 $191 $272 $273 forward $114 $-1 #
coedge $-1 $274 $116 $271 $275 forward $73 $-1 #
coedge $-1 $116 $274 $276 $277 forward $73 $-1 #
coedge $-1 $194 $193 $116 $187 reversed $195 $-1 #
edge $-1 $278 -33.365734431339391 $279 33.365734431339391 $186 $280 forward 7 unknown #
coedge $-1 $118 $117 $281 $282 forward $46 $-1 #
coedge $-1 $283 $284 $117 $190 reversed $268 $-1 #
edge $-1 $197 -50.744956816309092 $285 50.744956816309092 $189 $286 forward 7 unknown #
coedge $-1 $183 $287 $118 $192 reversed $114 $-1 #
edge $-1 $288 -50.744956816309092 $196 50.744956816309092 $191 $289 forward 7 unknown #
coedge $-1 $186 $119 $287 $290 forward $195 $-1 #
coedge $-1 $119 $186 $283 $291 reversed $195 $-1 #
loop $-1 $-1 $193 $267 #
vertex $-1 $120 $292 #
vertex $-1 $120 $293 #
straight-curve $-1 50.744956816309092 0 15.667140414459299 0 1 0 I I #
face $-1 $294 $295 $28 $-1 $296 reversed single #
loop $-1 $-1 $211 $121 #
plane-surface $-1 0 -39.087035397901388 -9.0848089459179189 0 0 1 1 0 0 forward_v I I I I #
coedge $-1 $297 $298 $125 $207 forward $122 $-1 #
coedge $-1 $299 $124 $298 $300 forward $77 $-1 #
coedge $-1 $124 $299 $301 $302 forward $77 $-1 #
coedge $-1 $126 $125 $124 $206 reversed $49 $-1 #
edge $-1 $303 -50.744956816309092 $304 50.744956816309092 $124 $305 forward 7 unknown #
edge $-1 $304 -15.667140414459299 $213 -9.0848089459179189 $202 $306 forward 7 unknown #
coedge $-1 $301 $307 $126 $209 forward $308 $-1 #
edge $-1 $212 9.0848089459179189 $303 15.667140414459299 $208 $309 forward 7 unknown #
coedge $-1 $310 $127 $307 $311 forward $200 $-1 #
coedge $-1 $127 $310 $297 $312 forward $200 $-1 #
vertex $-1 $209 $313 #
vertex $-1 $312 $314 #
straight-curve $-1 0 -33.365734431339391 -9.0848089459179189 1 0 0 I I #
face $-1 $-1 $227 $29 $-1 $315 reversed single #
loop $-1 $-1 $316 $129 #
plane-surface $-1 0 33.365734431339391 0 0 -1 0 0 0 -1 forward_v I I I I #
coedge $-1 $223 $317 $318 $319 forward $130 $-1 #
coedge $-1 $318 $132 $134 $225 forward $81 $-1 #
coedge $-1 $132 $318 $316 $320 reversed $81 $-1 #
coedge $-1 $321 $135 $132 $222 forward $227 $-1 #
edge $-1 $229 12.091271459806823 $322 18.213399134290654 $221 $323 forward 7 unknown #
coedge $-1 $324 $218 $133 $224 forward $130 $-1 #
edge $-1 $325 -0.7143711217260531 $228 8.0111445604733476 $223 $326 forward 7 unknown #
edge $-1 $229 -101.4899136326182 $325 -84.548416822638316 $134 $327 forward 7 unknown #
coedge $-1 $135 $321 $324 $328 reversed $227 $-1 #
loop $-1 $-1 $221 $215 #
vertex $-1 $328 $329 #
vertex $-1 $136 $330 #
straight-curve $-1 50.744956816309092 27.243606756855559 70.205223860072309 0 0 -1 I I #
coedge $-1 $231 $231 $-1 $331 reversed $139 $-1 #
edge $-1 $332 0 $332 6.2831853071796004 $140 $333 forward 7 unknown #
vertex $-1 $143 $334 #
ellipse-curve $-1 46.382198975209384 28.46803229175233 8.40629180286005 0.85716730853699208 0 0.51503806187062418 0.25751903093531209 0 -0.42858365426849604 1 I I #
coedge $-1 $235 $235 $-1 $335 reversed $146 $-1 #
edge $-1 $336 0 $336 6.2831853071796004 $147 $337 forward 7 unknown #
vertex $-1 $150 $338 #
ellipse-curve $-1 46.382198975209384 30.30467059409748 8.40629180286005 0.85716730853699208 0 0.51503806187062418 0.25751903093531209 0 -0.42858365426849604 1 I I #
coedge $-1 $239 $239 $-1 $339 reversed $153 $-1 #
edge $-1 $340 0 $340 6.2831853071796004 $154 $341 forward 7 unknown #
vertex $-1 $157 $342 #
ellipse-curve $-1 46.382198975209384 32.141308896442624 8.40629180286005 0.85716730853699208 0 0.51503806187062418 0.25751903093531209 0 -0.42858365426849604 1 I I #
face $-1 $-1 $255 $33 $-1 $343 forward single #
loop $-1 $-1 $344 $158 #
plane-surface $-1 -50.744956816309092 0 0 1 0 0 0 0 -1 forward_v I I I I #
coedge $-1 $345 $346 $347 $348 reversed $159 $-1 #
coedge $-1 $349 $161 $163 $253 forward $100 $-1 #
coedge $-1 $161 $349 $345 $350 forward $100 $-1 #
coedge $-1 $347 $164 $161 $250 forward $255 $-1 #
edge $-1 $257 -10.428191498535217 $351 -2.0731951511473756 $249 $352 forward 7 unknown #
coedge $-1 $353 $354 $162 $252 forward $244 $-1 #
edge $-1 $355 -31.778931801615201 $256 -20.463934298804283 $251 $356 forward 7 unknown #
edge $-1 $257 -15.225830805528492 $355 1.0694865687384493e-014 $163 $357 forward 7 unknown #
coedge $-1 $164 $347 $353 $358 forward $255 $-1 #
loop $-1 $-1 $347 $243 #
vertex $-1 $252 $359 #
vertex $-1 $165 $360 #
straight-curve $-1 -63.083330905497462 -16.678884823376514 15.667140414459297 1 0 0 I I #
coedge $-1 $259 $259 $-1 $361 reversed $168 $-1 #
edge $-1 $362 0 $362 6.2831853071796004 $169 $363 forward 7 unknown #
vertex $-1 $172 $364 #
ellipse-curve $-1 -45.650922186716272 -14.291743009837134 10.009641663053836 -0.74314483375859142 0 0.66913059716165679 0.66913059716165679 0 0.74314483375859142 1 I I #
coedge $-1 $263 $263 $-1 $365 reversed $175 $-1 #
edge $-1 $366 0 $366 6.2831853071796004 $176 $367 forward 7 unknown #
vertex $-1 $179 $368 #
ellipse-curve $-1 -45.650922186716272 -10.711030289528058 10.009641663053836 -0.74314483375859142 0 0.66913059716165679 0.66913059716165679 0 0.74314483375859142 1 I I #
face $-1 $-1 $195 $27 $-1 $369 reversed single #
loop $-1 $-1 $283 $180 #
plane-surface $-1 0 33.365734431339391 0 0 -1 0 0 0 -1 forward_v I I I I #
coedge $-1 $370 $281 $284 $371 forward $181 $-1 #
coedge $-1 $287 $183 $184 $275 reversed $114 $-1 #
coedge $-1 $281 $370 $183 $273 reversed $181 $-1 #
edge $-1 $288 -15.667140414459299 $372 15.667140414459299 $272 $373 forward 7 unknown #
coedge $-1 $185 $184 $370 $374 forward $73 $-1 #
edge $-1 $279 -50.744956816309092 $372 50.744956816309092 $271 $375 forward 7 unknown #
coedge $-1 $284 $283 $185 $277 reversed $268 $-1 #
edge $-1 $376 -50.744956816309092 $278 50.744956816309092 $276 $377 forward 7 unknown #
vertex $-1 $187 $378 #
vertex $-1 $290 $379 #
straight-curve $-1 50.744956816309092 0 -15.667140414459299 0 -1 0 I I #
coedge $-1 $270 $272 $188 $282 reversed $181 $-1 #
edge $-1 $285 -33.365734431339391 $288 33.365734431339391 $281 $380 forward 7 unknown #
coedge $-1 $276 $189 $194 $291 forward $268 $-1 #
coedge $-1 $189 $276 $270 $371 reversed $268 $-1 #
vertex $-1 $190 $381 #
straight-curve $-1 0 33.365734431339391 15.667140414459299 -1 0 0 I I #
coedge $-1 $191 $271 $193 $290 reversed $114 $-1 #
vertex $-1 $282 $382 #
straight-curve $-1 0 -33.365734431339391 15.667140414459299 1 0 0 I I #
edge $-1 $196 -15.667140414459299 $279 15.667140414459299 $193 $383 forward 7 unknown #
edge $-1 $197 -15.667140414459299 $278 15.667140414459299 $194 $384 forward 7 unknown #
point $-1 50.744956816309092 -33.365734431339391 15.667140414459299 #
point $-1 50.744956816309092 33.365734431339391 15.667140414459299 #
face $-1 $-1 $308 $28 $-1 $385 reversed single #
loop $-1 $-1 $386 $199 #
plane-surface $-1 0 -44.808336364463386 -12.375974680188609 0 1 0 0 0 1 forward_v I I I I #
coedge $-1 $387 $202 $211 $312 reversed $122 $-1 #
coedge $-1 $202 $387 $203 $300 reversed $122 $-1 #
coedge $-1 $204 $203 $388 $389 forward $77 $-1 #
edge $-1 $304 33.365734431339391 $390 44.808336364463386 $298 $391 forward 7 unknown #
coedge $-1 $392 $208 $204 $302 reversed $308 $-1 #
edge $-1 $393 -44.808336364463386 $303 -33.365734431339391 $301 $394 forward 7 unknown #
vertex $-1 $209 $395 #
vertex $-1 $300 $396 #
straight-curve $-1 0 -33.365734431339391 -15.667140414459299 1 0 0 I I #
straight-curve $-1 50.744956816309092 -33.365734431339391 0 0 0 1 I I #
coedge $-1 $208 $392 $210 $311 reversed $308 $-1 #
loop $-1 $-1 $208 $294 #
straight-curve $-1 -50.744956816309092 -33.365734431339391 0 0 0 -1 I I #
coedge $-1 $211 $210 $397 $398 forward $200 $-1 #
edge $-1 $212 -5.7213009665619978 $399 5.7213009665619978 $307 $400 forward 7 unknown #
edge $-1 $401 -5.7213009665619978 $213 5.7213009665619978 $297 $402 forward 7 unknown #
point $-1 -50.744956816309092 -33.365734431339391 -9.0848089459179189 #
point $-1 50.744956816309092 -33.365734431339391 -9.0848089459179189 #
plane-surface $-1 50.744956816309092 0 0 -1 0 0 0 0 1 forward_v I I I I #
coedge $-1 $403 $404 $220 $320 forward $216 $-1 #
coedge $-1 $218 $324 $403 $405 forward $130 $-1 #
coedge $-1 $220 $219 $218 $319 reversed $81 $-1 #
edge $-1 $406 -18.213399134290654 $325 -12.091271459806823 $218 $407 forward 7 unknown #
edge $-1 $322 -63.321830691831735 $406 -46.380333881851868 $316 $408 forward 7 unknown #
coedge $-1 $226 $221 $404 $409 reversed $227 $-1 #
vertex $-1 $222 $410 #
straight-curve $-1 50.744956816309092 15.152335297048737 1.1454431912608101 0 1 0 I I #
coedge $-1 $317 $223 $226 $328 forward $130 $-1 #
vertex $-1 $224 $411 #
straight-curve $-1 42.733812255835744 27.243606756855559 15.667140414459297 1 0 0 I I #
straight-curve $-1 -1.5262116004516173 27.243606756855559 88.139279303383915 -0.51503806187062418 0 0.85716730853699208 I I #
edge $-1 $228 27.243606756855559 $412 33.365734431339391 $226 $413 forward 7 unknown #
point $-1 50.744956816309092 27.243606756855559 15.667140414459299 #
point $-1 50.744956816309092 27.243606756855559 1.1454431912608101 #
edge $-1 $414 1 $414 0 $231 $-1 forward 7 unknown #
vertex $-1 $232 $415 #
ellipse-curve $-1 45.217448634543182 28.46803229175233 7.7064392162702022 0.85716730853699208 0 0.51503806187062418 0.25751903093531209 0 -0.42858365426849604 1 I I #
point $-1 46.639718006144697 28.46803229175233 7.977708148591554 #
edge $-1 $416 1 $416 0 $235 $-1 forward 7 unknown #
vertex $-1 $236 $417 #
ellipse-curve $-1 45.217448634543182 30.30467059409748 7.7064392162702022 0.85716730853699208 0 0.51503806187062418 0.25751903093531209 0 -0.42858365426849604 1 I I #
point $-1 46.639718006144697 30.30467059409748 7.977708148591554 #
edge $-1 $418 1 $418 0 $239 $-1 forward 7 unknown #
vertex $-1 $240 $419 #
ellipse-curve $-1 45.217448634543182 32.141308896442624 7.7064392162702022 0.85716730853699208 0 0.51503806187062418 0.25751903093531209 0 -0.42858365426849604 1 I I #
point $-1 46.639718006144697 32.141308896442624 7.977708148591554 #
plane-surface $-1 0 0 15.667140414459299 0 0 1 1 0 0 forward_v I I I I #
coedge $-1 $354 $353 $346 $420 forward $244 $-1 #
coedge $-1 $346 $246 $248 $350 reversed $159 $-1 #
coedge $-1 $246 $345 $344 $420 reversed $159 $-1 #
coedge $-1 $254 $249 $246 $348 forward $255 $-1 #
edge $-1 $351 -22.526443348374009 $421 -12.33837408918837 $347 $422 forward 7 unknown #
coedge $-1 $248 $247 $354 $423 reversed $100 $-1 #
edge $-1 $424 -1.0694865687384493e-014 $351 15.225830805528492 $345 $425 forward 7 unknown #
vertex $-1 $250 $426 #
straight-curve $-1 -40.556887557123453 -6.250693324841297 15.667140414459299 0 1 0 I I #
coedge $-1 $344 $251 $254 $358 reversed $244 $-1 #
coedge $-1 $251 $344 $349 $423 forward $244 $-1 #
vertex $-1 $252 $427 #
straight-curve $-1 -50.744956816309092 -16.678884823376514 36.13107471326358 0 0 1 I I #
straight-curve $-1 -50.744956816309085 -16.678884823376514 4.3521429116483858 -0.66913059716165679 0 -0.74314483375859142 I I #
edge $-1 $421 8.3238884759886727 $256 16.678884823376514 $353 $428 forward 7 unknown #
point $-1 -50.744956816309092 -16.678884823376514 15.667140414459299 #
point $-1 -40.556887557123453 -16.678884823376514 15.667140414459299 #
edge $-1 $429 1 $429 0 $259 $-1 forward 7 unknown #
vertex $-1 $260 $430 #
ellipse-curve $-1 -43.400849183328006 -14.291743009837134 7.9836668812610325 -0.74314483375859142 0 0.66913059716165679 0.66913059716165679 0 0.74314483375859142 1 I I #
point $-1 -44.981791589554625 -14.291743009837134 10.752786496812437 #
edge $-1 $431 1 $431 0 $263 $-1 forward 7 unknown #
vertex $-1 $264 $432 #
ellipse-curve $-1 -43.400849183328006 -10.711030289528058 7.9836668812610325 -0.74314483375859142 0 0.66913059716165679 0.66913059716165679 0 0.74314483375859142 1 I I #
point $-1 -44.981791589554625 -10.711030289528058 10.752786496812437 #
plane-surface $-1 50.744956816309092 0 0 -1 0 0 0 0 1 forward_v I I I I #
coedge $-1 $272 $270 $274 $374 reversed $181 $-1 #
edge $-1 $285 -15.667140414459299 $376 15.667140414459299 $284 $433 forward 7 unknown #
vertex $-1 $374 $434 #
straight-curve $-1 -50.744956816309092 -33.365734431339391 0 0 0 -1 I I #
edge $-1 $372 -33.365734431339391 $376 33.365734431339391 $370 $435 forward 7 unknown #
straight-curve $-1 0 -33.365734431339391 -15.667140414459299 -1 0 0 I I #
vertex $-1 $277 $436 #
straight-curve $-1 0 33.365734431339391 -15.667140414459299 1 0 0 I I #
point $-1 50.744956816309092 33.365734431339391 -15.667140414459299 #
point $-1 50.744956816309092 -33.365734431339391 -15.667140414459299 #
straight-curve $-1 -50.744956816309092 0 15.667140414459299 0 -1 0 I I #
point $-1 -50.744956816309092 33.365734431339391 15.667140414459299 #
point $-1 -50.744956816309092 -33.365734431339391 15.667140414459299 #
straight-curve $-1 50.744956816309092 -33.365734431339391 0 0 0 -1 I I #
straight-curve $-1 50.744956816309092 33.365734431339391 0 0 0 -1 I I #
plane-surface $-1 -50.744956816309092 0 0 1 0 0 0 0 -1 forward_v I I I I #
coedge $-1 $388 $397 $392 $437 forward $295 $-1 #
coedge $-1 $298 $297 $438 $439 forward $122 $-1 #
coedge $-1 $438 $386 $299 $389 reversed $295 $-1 #
edge $-1 $390 -50.744956816309092 $393 50.744956816309092 $388 $440 forward 7 unknown #
vertex $-1 $439 $441 #
straight-curve $-1 50.744956816309092 0 -15.667140414459299 0 -1 0 I I #
coedge $-1 $307 $301 $386 $437 reversed $308 $-1 #
vertex $-1 $302 $442 #
straight-curve $-1 -50.744956816309092 0 -15.667140414459299 0 1 0 I I #
point $-1 -50.744956816309092 -33.365734431339391 -15.667140414459299 #
point $-1 50.744956816309092 -33.365734431339391 -15.667140414459299 #
coedge $-1 $386 $438 $310 $398 reversed $295 $-1 #
edge $-1 $399 -50.744956816309092 $401 50.744956816309092 $397 $443 forward 7 unknown #
vertex $-1 $311 $444 #
straight-curve $-1 -50.744956816309092 -39.087035397901388 -9.0848089459179189 0 -1 0 I I #
vertex $-1 $312 $445 #
straight-curve $-1 50.744956816309092 -39.087035397901388 -9.0848089459179189 0 1 0 I I #
coedge $-1 $404 $316 $317 $405 reversed $216 $-1 #
coedge $-1 $316 $403 $321 $409 forward $216 $-1 #
edge $-1 $412 -50.744956816309092 $406 -42.019441134109691 $403 $446 forward 7 unknown #
vertex $-1 $319 $447 #
straight-curve $-1 42.019441134109691 15.152335297048737 15.667140414459297 0 -1 0 I I #
straight-curve $-1 18.131803862688262 33.365734431339391 55.422846377013322 -0.51503806187062429 0 0.85716730853699219 I I #
edge $-1 $412 -15.667140414459299 $322 -1.1454431912608147 $321 $448 forward 7 unknown #
point $-1 50.744956816309092 33.365734431339391 1.1454431912608147 #
point $-1 42.019441134109691 27.243606756855559 15.667140414459297 #
vertex $-1 $328 $449 #
straight-curve $-1 50.744956816309092 0 15.667140414459299 0 1 0 I I #
vertex $-1 $331 $450 #
point $-1 45.474967665478495 28.46803229175233 7.2778555620017062 #
vertex $-1 $335 $451 #
point $-1 45.474967665478495 30.30467059409748 7.2778555620017062 #
vertex $-1 $339 $452 #
point $-1 45.474967665478495 32.141308896442624 7.2778555620017062 #
edge $-1 $421 20.463934298804283 $424 31.778931801615201 $344 $453 forward 7 unknown #
vertex $-1 $358 $454 #
straight-curve $-1 -63.083330905497462 -8.3238884759886727 15.667140414459297 -1 0 0 I I #
edge $-1 $424 2.0731951511473756 $355 10.428191498535217 $354 $455 forward 7 unknown #
vertex $-1 $423 $456 #
straight-curve $-1 -50.744956816309085 -8.3238884759886727 4.3521429116483858 0.66913059716165679 0 0.74314483375859142 I I #
point $-1 -40.556887557123453 -8.3238884759886727 15.667140414459299 #
point $-1 -50.744956816309092 -16.678884823376514 4.3521429116483779 #
straight-curve $-1 -50.744956816309092 0 15.667140414459299 0 -1 0 I I #
vertex $-1 $361 $457 #
point $-1 -42.731718586166352 -14.291743009837134 8.7268117150196236 #
vertex $-1 $365 $458 #
point $-1 -42.731718586166352 -10.711030289528058 8.7268117150196236 #
straight-curve $-1 -50.744956816309092 33.365734431339391 0 0 0 -1 I I #
point $-1 -50.744956816309092 -33.365734431339391 -15.667140414459299 #
straight-curve $-1 -50.744956816309092 0 -15.667140414459299 0 1 0 I I #
point $-1 -50.744956816309092 33.365734431339391 -15.667140414459299 #
edge $-1 $399 -3.2911657342706899 $393 3.2911657342706899 $392 $459 forward 7 unknown #
coedge $-1 $397 $388 $387 $439 reversed $295 $-1 #
edge $-1 $401 -3.2911657342706899 $390 3.2911657342706899 $387 $460 forward 7 unknown #
straight-curve $-1 0 -44.808336364463386 -15.667140414459299 -1 0 0 I I #
point $-1 50.744956816309092 -44.808336364463386 -15.667140414459299 #
point $-1 -50.744956816309092 -44.808336364463386 -15.667140414459299 #
straight-curve $-1 0 -44.808336364463386 -9.0848089459179189 1 0 0 I I #
point $-1 -50.744956816309092 -44.808336364463386 -9.0848089459179189 #
point $-1 50.744956816309092 -44.808336364463386 -9.0848089459179189 #
straight-curve $-1 0 33.365734431339391 15.667140414459299 -1 0 0 I I #
point $-1 42.019441134109691 33.365734431339391 15.667140414459297 #
straight-curve $-1 50.744956816309092 33.365734431339391 0 0 0 -1 I I #
point $-1 50.744956816309092 33.365734431339391 15.667140414459299 #
point $-1 44.788864980274688 28.46803229175233 7.4489201853348908 #
point $-1 44.788864980274688 30.30467059409748 7.4489201853348908 #
point $-1 44.788864980274688 32.141308896442624 7.4489201853348908 #
straight-curve $-1 -50.744956816309092 -8.3238884759886727 36.13107471326358 0 0 -1 I I #
point $-1 -50.744956816309092 -8.3238884759886727 15.667140414459299 #
straight-curve $-1 -50.744956816309092 -6.250693324841297 4.3521429116483743 0 -1 0 I I #
point $-1 -50.744956816309092 -8.3238884759886727 4.3521429116483779 #
point $-1 -42.657704349569414 -14.291743009837134 7.3145362840993764 #
point $-1 -42.657704349569414 -10.711030289528058 7.3145362840993764 #
straight-curve $-1 -50.744956816309092 -44.808336364463386 -12.375974680188609 0 0 -1 I I #
straight-curve $-1 50.744956816309092 -44.808336364463386 -12.375974680188609 0 0 -1 I I #
End-of-ACIS-data 