500 0 5 0           
7 Unknown 11 ACIS 5.0 NT 24 Fri Mar 26 03:35:45 1999 
-1 9.9999999999999995e-007 1e-010 
body $-1 $5 $-1 $6 #
body $-1 $7 $-1 $8 #
body $-1 $9 $-1 $10 #
body $-1 $11 $-1 $12 #
body $-1 $13 $-1 $14 #
lump $-1 $-1 $15 $0 #
transform $-1 1 0 0 0 1 0 0 0 1 50.995208594012269 20.698760164200664 6.9639985863276275 1 rotate no_reflect no_shear #
lump $-1 $-1 $16 $1 #
transform $-1 1 0 0 0 1 0 0 0 1 50.995208594012269 20.698760164200664 6.9639985863276275 1 rotate no_reflect no_shear #
lump $-1 $-1 $17 $2 #
transform $-1 1 0 0 0 1 0 0 0 1 50.995208594012269 20.698760164200664 6.9639985863276275 1 rotate no_reflect no_shear #
lump $-1 $-1 $18 $3 #
transform $-1 1 0 0 0 1 0 0 0 1 50.995208594012269 20.698760164200664 6.9639985863276275 1 rotate no_reflect no_shear #
lump $-1 $-1 $19 $4 #
transform $-1 1 0 0 0 1 0 0 0 1 50.995208594012269 20.698760164200664 6.9639985863276275 1 rotate no_reflect no_shear #
shell $-1 $-1 $-1 $20 $-1 $5 #
shell $-1 $-1 $-1 $21 $-1 $7 #
shell $-1 $-1 $-1 $22 $-1 $9 #
shell $-1 $-1 $-1 $23 $-1 $11 #
shell $-1 $-1 $-1 $24 $-1 $13 #
face $-1 $25 $26 $15 $-1 $27 forward single #
face $-1 $28 $29 $16 $-1 $30 forward single #
face $-1 $31 $32 $17 $-1 $33 reversed single #
face $-1 $34 $35 $18 $-1 $36 forward single #
face $-1 $37 $38 $19 $-1 $39 forward single #
face $-1 $40 $41 $15 $-1 $42 reversed single #
loop $-1 $-1 $43 $20 #
plane-surface $-1 0 0 6.9639985863276275 0 0 1 1 0 0 forward_v I I I I #
face $-1 $44 $45 $16 $-1 $46 reversed single #
loop $-1 $-1 $47 $21 #
plane-surface $-1 -47.71554717780171 0 5.86754836999296 0 0 1 1 0 0 forward_v I I I I #
face $-1 $48 $49 $17 $-1 $50 reversed single #
loop $-1 $-1 $51 $22 #
plane-surface $-1 39.152456466011841 -99.960201833185366 66.495518909323422 1 0 0 0 0.77714596973225614 -0.62932038083071107 forward_v I I I I #
face $-1 $52 $53 $18 $-1 $54 forward single #
loop $-1 $55 $56 $23 #
cone-surface $-1 42.536099931154823 -18.345314576166963 4.2572966817049718 0 0.77714596973225614 -0.62932038083071107 0.5 0 0 1 I I 0 1 0.5 forward I I I I #
face $-1 $57 $58 $19 $-1 $59 forward single #
loop $-1 $60 $61 $24 #
cone-surface $-1 47.611565128869302 -18.345314576166963 4.2572966817049718 0 0.77714596973225614 -0.62932038083071107 0.5 0 0 1 I I 0 1 0.5 forward I I I I #
face $-1 $62 $63 $15 $-1 $64 reversed single #
loop $-1 $-1 $65 $25 #
plane-surface $-1 0 0 -6.9639985863276275 0 0 1 1 0 0 forward_v I I I I #
coedge $-1 $66 $67 $68 $69 forward $26 $-1 #
face $-1 $70 $71 $16 $-1 $72 reversed single #
loop $-1 $-1 $73 $28 #
plane-surface $-1 -47.71554717780171 0 2.2843206297126013 0 0 1 1 0 0 forward_v I I I I #
coedge $-1 $74 $75 $76 $77 forward $29 $-1 #
face $-1 $78 $79 $17 $-1 $80 forward single #
loop $-1 $-1 $81 $31 #
plane-surface $-1 45.073832530012055 -20.698760164200678 2.3108707234727177 0 -0.77714596973225614 0.62932038083071107 1 0 0 forward_v I I I I #
coedge $-1 $82 $83 $84 $85 reversed $32 $-1 #
face $-1 $-1 $86 $18 $-1 $87 forward single #
loop $-1 $88 $89 $34 #
cone-surface $-1 42.536099931154823 -17.681596768922713 3.7198286133020959 0 0.77714596973225614 -0.62932038083071107 0.25 0 0 1 I I -0.70710678118654691 0.70710678118654813 0.25 forward I I I I #
loop $-1 $-1 $90 $23 #
coedge $-1 $56 $56 $91 $92 reversed $35 $-1 #
face $-1 $-1 $93 $19 $-1 $94 forward single #
loop $-1 $95 $96 $37 #
cone-surface $-1 47.611565128869302 -17.681596768922713 3.7198286133020959 0 0.77714596973225614 -0.62932038083071107 0.25 0 0 1 I I -0.70710678118654691 0.70710678118654813 0.25 forward I I I I #
loop $-1 $-1 $97 $24 #
coedge $-1 $61 $61 $98 $99 reversed $38 $-1 #
face $-1 $100 $101 $15 $-1 $102 reversed single #
loop $-1 $-1 $103 $40 #
plane-surface $-1 0 -20.698760164200664 0 0 1 0 0 0 1 forward_v I I I I #
coedge $-1 $104 $105 $106 $107 forward $41 $-1 #
coedge $-1 $108 $43 $109 $110 forward $26 $-1 #
coedge $-1 $43 $108 $111 $112 forward $26 $-1 #
coedge $-1 $113 $114 $43 $69 reversed $115 $-1 #
edge $-1 $116 -20.698760164200664 $117 20.698760164200664 $68 $118 forward 7 unknown #
face $-1 $119 $120 $16 $-1 $121 reversed single #
loop $-1 $-1 $122 $44 #
plane-surface $-1 -44.435885761591152 0 4.0759344998527807 -1 0 0 0 0 1 forward_v I I I I #
coedge $-1 $123 $124 $125 $126 forward $45 $-1 #
coedge $-1 $127 $47 $128 $129 reversed $29 $-1 #
coedge $-1 $47 $127 $130 $131 reversed $29 $-1 #
coedge $-1 $122 $132 $47 $77 reversed $71 $-1 #
edge $-1 $133 -20.698760164200664 $134 20.698760164200664 $76 $135 forward 7 unknown #
face $-1 $136 $137 $17 $-1 $138 reversed single #
loop $-1 $-1 $139 $48 #
plane-surface $-1 0 0 6.9639985863276275 0 0 1 1 0 0 forward_v I I I I #
coedge $-1 $140 $141 $142 $143 reversed $49 $-1 #
coedge $-1 $83 $51 $144 $145 reversed $32 $-1 #
coedge $-1 $51 $82 $140 $146 reversed $32 $-1 #
coedge $-1 $142 $147 $51 $85 forward $137 $-1 #
edge $-1 $148 26.283760868334085 $149 30.936888731188976 $84 $150 forward 7 unknown #
loop $-1 $-1 $91 $52 #
plane-surface $-1 45.073832530012055 -20.698760164200678 2.3108707234727177 0 -0.77714596973225614 0.62932038083071107 1 0 0 forward_v I I I I #
loop $-1 $-1 $151 $34 #
coedge $-1 $89 $89 $90 $152 reversed $53 $-1 #
coedge $-1 $90 $90 $89 $152 forward $55 $-1 #
coedge $-1 $91 $91 $56 $92 forward $86 $-1 #
edge $-1 $153 9.9037372503514738e-016 $153 6.2831853071796013 $91 $154 forward 7 unknown #
loop $-1 $-1 $98 $57 #
plane-surface $-1 45.073832530012055 -20.698760164200678 2.3108707234727177 0 -0.77714596973225614 0.62932038083071107 1 0 0 forward_v I I I I #
loop $-1 $-1 $155 $37 #
coedge $-1 $96 $96 $97 $156 reversed $58 $-1 #
coedge $-1 $97 $97 $96 $156 forward $60 $-1 #
coedge $-1 $98 $98 $61 $99 forward $93 $-1 #
edge $-1 $157 9.9037372503514738e-016 $157 6.2831853071796013 $98 $158 forward 7 unknown #
face $-1 $159 $160 $15 $-1 $161 reversed single #
loop $-1 $-1 $162 $62 #
plane-surface $-1 -50.995208594012269 0 0 1 0 0 0 0 -1 forward_v I I I I #
coedge $-1 $163 $111 $164 $165 forward $63 $-1 #
coedge $-1 $166 $65 $163 $167 forward $41 $-1 #
coedge $-1 $65 $166 $168 $169 forward $41 $-1 #
coedge $-1 $114 $113 $65 $107 reversed $115 $-1 #
edge $-1 $170 -20.698760164200664 $171 20.698760164200664 $106 $172 forward 7 unknown #
coedge $-1 $67 $66 $173 $174 forward $26 $-1 #
coedge $-1 $175 $176 $66 $110 reversed $160 $-1 #
edge $-1 $117 -50.995208594012269 $177 50.995208594012269 $109 $178 forward 7 unknown #
coedge $-1 $103 $179 $67 $112 reversed $63 $-1 #
edge $-1 $180 -50.995208594012269 $116 50.995208594012269 $111 $181 forward 7 unknown #
coedge $-1 $106 $68 $179 $182 forward $115 $-1 #
coedge $-1 $68 $106 $175 $183 reversed $115 $-1 #
loop $-1 $-1 $113 $159 #
vertex $-1 $69 $184 #
vertex $-1 $69 $185 #
straight-curve $-1 50.995208594012269 0 6.9639985863276275 0 1 0 I I #
face $-1 $186 $187 $16 $-1 $188 reversed single #
loop $-1 $-1 $189 $70 #
plane-surface $-1 0 -20.698760164200664 0 0 1 0 0 0 1 forward_v I I I I #
coedge $-1 $125 $76 $190 $191 reversed $71 $-1 #
coedge $-1 $192 $73 $189 $193 reversed $45 $-1 #
coedge $-1 $73 $192 $194 $195 reversed $45 $-1 #
coedge $-1 $132 $122 $73 $126 reversed $71 $-1 #
edge $-1 $196 -20.698760164200664 $197 20.698760164200664 $125 $198 forward 7 unknown #
coedge $-1 $75 $74 $199 $200 reversed $29 $-1 #
coedge $-1 $201 $202 $74 $129 forward $203 $-1 #
edge $-1 $204 -27.137435005111413 $134 -20.578112172690297 $128 $205 forward 7 unknown #
coedge $-1 $206 $190 $75 $131 forward $120 $-1 #
edge $-1 $133 20.578112172690297 $207 27.137435005111413 $130 $208 forward 7 unknown #
coedge $-1 $76 $125 $201 $209 reversed $71 $-1 #
vertex $-1 $131 $210 #
vertex $-1 $129 $211 #
straight-curve $-1 -44.435885761591152 0 5.86754836999296 0 1 0 I I #
face $-1 $-1 $212 $17 $-1 $213 reversed single #
loop $-1 $-1 $84 $78 #
plane-surface $-1 0 -20.698760164200664 0 0 1 0 0 0 1 forward_v I I I I #
coedge $-1 $144 $214 $215 $216 forward $79 $-1 #
coedge $-1 $215 $81 $83 $146 forward $49 $-1 #
coedge $-1 $81 $215 $217 $218 reversed $49 $-1 #
coedge $-1 $219 $84 $81 $143 forward $137 $-1 #
edge $-1 $149 16.615540201005814 $220 28.458292329006241 $142 $221 forward 7 unknown #
coedge $-1 $222 $139 $82 $145 forward $79 $-1 #
edge $-1 $223 -33.049369298837036 $148 -29.281340752392019 $144 $224 forward 7 unknown #
edge $-1 $149 2.2748066086763162e-014 $223 5.9874567250963349 $83 $225 forward 7 unknown #
coedge $-1 $84 $219 $222 $226 reversed $137 $-1 #
vertex $-1 $226 $227 #
vertex $-1 $85 $228 #
straight-curve $-1 39.152456466011841 -20.698760164200664 33.247759454661711 0 0 -1 I I #
coedge $-1 $151 $151 $-1 $229 reversed $88 $-1 #
edge $-1 $230 0 $230 6.2831853071796004 $89 $231 forward 7 unknown #
vertex $-1 $92 $232 #
ellipse-curve $-1 42.536099931154823 -18.814745890978159 4.6374346549001784 0 -0.77714596973225614 0.62932038083071107 0.5 0 0 1 I I #
coedge $-1 $155 $155 $-1 $233 reversed $95 $-1 #
edge $-1 $234 0 $234 6.2831853071796004 $96 $235 forward 7 unknown #
vertex $-1 $99 $236 #
ellipse-curve $-1 47.611565128869302 -18.814745890978159 4.6374346549001784 0 -0.77714596973225614 0.62932038083071107 0.5 0 0 1 I I #
face $-1 $-1 $115 $15 $-1 $237 reversed single #
loop $-1 $-1 $175 $100 #
plane-surface $-1 0 20.698760164200664 0 0 -1 0 0 0 -1 forward_v I I I I #
coedge $-1 $238 $173 $176 $239 forward $101 $-1 #
coedge $-1 $179 $103 $104 $167 reversed $63 $-1 #
coedge $-1 $173 $238 $103 $165 reversed $101 $-1 #
edge $-1 $180 -6.9639985863276275 $240 6.9639985863276275 $164 $241 forward 7 unknown #
coedge $-1 $105 $104 $238 $242 forward $41 $-1 #
edge $-1 $171 -50.995208594012269 $240 50.995208594012269 $163 $243 forward 7 unknown #
coedge $-1 $176 $175 $105 $169 reversed $160 $-1 #
edge $-1 $244 -50.995208594012269 $170 50.995208594012269 $168 $245 forward 7 unknown #
vertex $-1 $107 $246 #
vertex $-1 $182 $247 #
straight-curve $-1 50.995208594012269 0 -6.9639985863276275 0 -1 0 I I #
coedge $-1 $162 $164 $108 $174 reversed $101 $-1 #
edge $-1 $177 -20.698760164200664 $180 20.698760164200664 $173 $248 forward 7 unknown #
coedge $-1 $168 $109 $114 $183 forward $160 $-1 #
coedge $-1 $109 $168 $162 $239 reversed $160 $-1 #
vertex $-1 $110 $249 #
straight-curve $-1 0 20.698760164200664 6.9639985863276275 -1 0 0 I I #
coedge $-1 $111 $163 $113 $182 reversed $63 $-1 #
vertex $-1 $174 $250 #
straight-curve $-1 0 -20.698760164200664 6.9639985863276275 1 0 0 I I #
edge $-1 $116 -6.9639985863276275 $171 6.9639985863276275 $113 $251 forward 7 unknown #
edge $-1 $117 -6.9639985863276275 $170 6.9639985863276275 $114 $252 forward 7 unknown #
point $-1 50.995208594012269 -20.698760164200664 6.9639985863276275 #
point $-1 50.995208594012269 20.698760164200664 6.9639985863276275 #
face $-1 $-1 $203 $16 $-1 $253 reversed single #
loop $-1 $-1 $254 $119 #
plane-surface $-1 -50.995208594012269 0 0 1 0 0 0 0 -1 forward_v I I I I #
coedge $-1 $190 $206 $123 $193 forward $120 $-1 #
coedge $-1 $130 $189 $122 $191 forward $120 $-1 #
edge $-1 $197 0.24635337978621097 $133 3.8295811200665697 $190 $255 forward 7 unknown #
coedge $-1 $124 $123 $254 $256 reversed $45 $-1 #
edge $-1 $257 -27.137435005111413 $197 -20.578112172690297 $189 $258 forward 7 unknown #
coedge $-1 $202 $201 $124 $195 forward $203 $-1 #
edge $-1 $196 20.578112172690297 $259 27.137435005111413 $194 $260 forward 7 unknown #
vertex $-1 $195 $261 #
vertex $-1 $193 $262 #
straight-curve $-1 -44.435885761591152 0 2.2843206297126013 0 -1 0 I I #
coedge $-1 $263 $264 $127 $200 forward $187 $-1 #
edge $-1 $207 -20.698760164200664 $204 20.698760164200664 $199 $265 forward 7 unknown #
coedge $-1 $194 $128 $132 $209 forward $203 $-1 #
coedge $-1 $128 $194 $263 $266 reversed $203 $-1 #
loop $-1 $-1 $194 $186 #
vertex $-1 $266 $267 #
straight-curve $-1 -23.857773588900855 20.698760164200664 5.86754836999296 1 0 0 I I #
coedge $-1 $189 $130 $264 $268 forward $120 $-1 #
vertex $-1 $268 $269 #
straight-curve $-1 -23.857773588900855 -20.698760164200664 5.86754836999296 -1 0 0 I I #
edge $-1 $134 -3.8295811200665697 $196 -0.24635337978621097 $201 $270 forward 7 unknown #
point $-1 -44.435885761591152 -20.698760164200664 5.86754836999296 #
point $-1 -44.435885761591152 20.698760164200664 5.86754836999296 #
loop $-1 $-1 $217 $136 #
plane-surface $-1 50.995208594012269 0 0 -1 0 0 0 0 1 forward_v I I I I #
coedge $-1 $139 $222 $271 $272 forward $79 $-1 #
coedge $-1 $141 $140 $139 $216 reversed $49 $-1 #
edge $-1 $273 -28.458292329006241 $223 -16.615540201005814 $139 $274 forward 7 unknown #
coedge $-1 $271 $275 $141 $218 forward $212 $-1 #
edge $-1 $220 -5.615133879969596 $273 0.37232284512671532 $217 $276 forward 7 unknown #
coedge $-1 $147 $142 $275 $277 reversed $137 $-1 #
vertex $-1 $143 $278 #
straight-curve $-1 22.536916265006028 -20.698760164200664 2.3108707234727337 1 0 0 I I #
coedge $-1 $214 $144 $147 $226 forward $79 $-1 #
vertex $-1 $145 $279 #
straight-curve $-1 39.152456466011841 -49.980100916592683 6.9639985863276266 0 -1 0 I I #
straight-curve $-1 39.152456466011841 -20.698760164200678 2.3108707234727177 0 0.62932038083071107 0.77714596973225614 I I #
edge $-1 $148 39.152456466011841 $280 50.995208594012269 $147 $281 forward 7 unknown #
point $-1 39.152456466011841 -20.698760164200664 6.9639985863276275 #
point $-1 39.152456466011841 -20.698760164200664 2.3108707234727355 #
edge $-1 $282 1 $282 0 $151 $-1 forward 7 unknown #
vertex $-1 $152 $283 #
ellipse-curve $-1 42.536099931154823 -17.875883261355778 3.8771587085097741 0 -0.77714596973225614 0.62932038083071107 0.5 0 0 1 I I #
point $-1 43.036099931154823 -18.814745890978148 4.6374346549001704 #
edge $-1 $284 1 $284 0 $155 $-1 forward 7 unknown #
vertex $-1 $156 $285 #
ellipse-curve $-1 47.611565128869302 -17.875883261355778 3.8771587085097741 0 -0.77714596973225614 0.62932038083071107 0.5 0 0 1 I I #
point $-1 48.111565128869302 -18.814745890978148 4.6374346549001704 #
plane-surface $-1 50.995208594012269 0 0 -1 0 0 0 0 1 forward_v I I I I #
coedge $-1 $164 $162 $166 $242 reversed $101 $-1 #
edge $-1 $177 -6.9639985863276275 $244 6.9639985863276275 $176 $286 forward 7 unknown #
vertex $-1 $242 $287 #
straight-curve $-1 -50.995208594012269 -20.698760164200664 0 0 0 -1 I I #
edge $-1 $240 -20.698760164200664 $244 20.698760164200664 $238 $288 forward 7 unknown #
straight-curve $-1 0 -20.698760164200664 -6.9639985863276275 -1 0 0 I I #
vertex $-1 $169 $289 #
straight-curve $-1 0 20.698760164200664 -6.9639985863276275 1 0 0 I I #
point $-1 50.995208594012269 20.698760164200664 -6.9639985863276275 #
point $-1 50.995208594012269 -20.698760164200664 -6.9639985863276275 #
straight-curve $-1 -50.995208594012269 0 6.9639985863276275 0 -1 0 I I #
point $-1 -50.995208594012269 20.698760164200664 6.9639985863276275 #
point $-1 -50.995208594012269 -20.698760164200664 6.9639985863276275 #
straight-curve $-1 50.995208594012269 -20.698760164200664 0 0 0 -1 I I #
straight-curve $-1 50.995208594012269 20.698760164200664 0 0 0 -1 I I #
plane-surface $-1 0 20.698760164200664 0 0 -1 0 0 0 -1 forward_v I I I I #
coedge $-1 $264 $263 $192 $256 forward $187 $-1 #
straight-curve $-1 -44.435885761591152 -20.698760164200664 2.0379672499263903 0 0 1 I I #
edge $-1 $259 -20.698760164200664 $257 20.698760164200664 $254 $290 forward 7 unknown #
vertex $-1 $193 $291 #
straight-curve $-1 -23.857773588900855 -20.698760164200664 2.2843206297126013 1 0 0 I I #
vertex $-1 $195 $292 #
straight-curve $-1 -23.857773588900855 20.698760164200664 2.2843206297126013 -1 0 0 I I #
point $-1 -44.435885761591152 20.698760164200664 2.2843206297126013 #
point $-1 -44.435885761591152 -20.698760164200664 2.2843206297126013 #
coedge $-1 $254 $199 $202 $266 forward $187 $-1 #
coedge $-1 $199 $254 $206 $268 reversed $187 $-1 #
straight-curve $-1 -50.995208594012269 0 5.86754836999296 0 1 0 I I #
edge $-1 $204 -5.86754836999296 $259 -2.2843206297126013 $202 $293 forward 7 unknown #
point $-1 -50.995208594012269 20.698760164200664 5.86754836999296 #
edge $-1 $207 -5.86754836999296 $257 -2.2843206297126013 $264 $294 forward 7 unknown #
point $-1 -50.995208594012269 -20.698760164200664 5.86754836999296 #
straight-curve $-1 -44.435885761591152 20.698760164200664 2.0379672499263903 0 0 -1 I I #
coedge $-1 $275 $217 $214 $272 reversed $212 $-1 #
edge $-1 $280 -20.698760164200664 $273 -16.930731617755651 $271 $295 forward 7 unknown #
vertex $-1 $218 $296 #
straight-curve $-1 22.536916265006028 -16.930731617755651 6.9639985863276275 -1 0 0 I I #
coedge $-1 $217 $271 $219 $277 forward $212 $-1 #
straight-curve $-1 50.995208594012269 -17.165041972442769 6.6746493877981532 0 0.62932038083071107 0.77714596973225614 I I #
edge $-1 $280 -6.9639985863276275 $220 -2.3108707234727355 $275 $297 forward 7 unknown #
point $-1 50.995208594012269 -20.698760164200664 2.3108707234727355 #
point $-1 39.152456466011841 -16.930731617755651 6.9639985863276275 #
vertex $-1 $272 $298 #
straight-curve $-1 0 -20.698760164200664 6.9639985863276275 1 0 0 I I #
vertex $-1 $229 $299 #
point $-1 43.036099931154823 -17.875883261355778 3.8771587085097741 #
vertex $-1 $233 $300 #
point $-1 48.111565128869302 -17.875883261355778 3.8771587085097741 #
straight-curve $-1 -50.995208594012269 20.698760164200664 0 0 0 -1 I I #
point $-1 -50.995208594012269 -20.698760164200664 -6.9639985863276275 #
straight-curve $-1 -50.995208594012269 0 -6.9639985863276275 0 1 0 I I #
point $-1 -50.995208594012269 20.698760164200664 -6.9639985863276275 #
straight-curve $-1 -50.995208594012269 0 2.2843206297126013 0 -1 0 I I #
point $-1 -50.995208594012269 -20.698760164200664 2.2843206297126013 #
point $-1 -50.995208594012269 20.698760164200664 2.2843206297126013 #
straight-curve $-1 -50.995208594012269 20.698760164200664 0 0 0 -1 I I #
straight-curve $-1 -50.995208594012269 -20.698760164200664 0 0 0 -1 I I #
straight-curve $-1 50.995208594012269 0 6.9639985863276275 0 1 0 I I #
point $-1 50.995208594012269 -16.930731617755651 6.9639985863276275 #
straight-curve $-1 50.995208594012269 -20.698760164200664 0 0 0 -1 I I #
point $-1 50.995208594012269 -20.698760164200664 6.9639985863276275 #
point $-1 42.536099931154823 -17.487310276489648 3.5624985180944178 #
point $-1 47.611565128869302 -17.487310276489648 3.5624985180944178 #
End-of-ACIS-data 