500 0 10 0           
7 Unknown 11 ACIS 5.0 NT 24 Thu Mar 25 16:48:44 1999 
-1 9.9999999999999995e-007 1e-010 
body $-1 $10 $-1 $11 #
body $-1 $12 $-1 $13 #
body $-1 $14 $-1 $15 #
body $-1 $16 $-1 $17 #
body $-1 $18 $-1 $19 #
body $-1 $20 $-1 $21 #
body $-1 $22 $-1 $23 #
body $-1 $24 $-1 $25 #
body $-1 $26 $-1 $27 #
body $-1 $28 $-1 $29 #
lump $-1 $-1 $30 $0 #
transform $-1 1 0 0 0 1 0 0 0 1 43.386333811456652 25.378098910406322 8.7170172196607307 1 rotate no_reflect no_shear #
lump $-1 $-1 $31 $1 #
transform $-1 1 0 0 0 1 0 0 0 1 43.386333811456652 25.378098910406322 8.7170172196607307 1 rotate no_reflect no_shear #
lump $-1 $-1 $32 $2 #
transform $-1 1 0 0 0 1 0 0 0 1 43.386333811456652 25.378098910406322 8.7170172196607307 1 rotate no_reflect no_shear #
lump $-1 $-1 $33 $3 #
transform $-1 1 0 0 0 1 0 0 0 1 43.386333811456652 25.378098910406322 8.7170172196607307 1 rotate no_reflect no_shear #
lump $-1 $-1 $34 $4 #
transform $-1 1 0 0 0 1 0 0 0 1 43.386333811456652 25.378098910406322 8.7170172196607307 1 rotate no_reflect no_shear #
lump $-1 $-1 $35 $5 #
transform $-1 1 0 0 0 1 0 0 0 1 43.386333811456652 25.378098910406322 8.7170172196607307 1 rotate no_reflect no_shear #
lump $-1 $-1 $36 $6 #
transform $-1 1 0 0 0 1 0 0 0 1 43.386333811456652 25.378098910406322 8.7170172196607307 1 rotate no_reflect no_shear #
lump $-1 $-1 $37 $7 #
transform $-1 1 0 0 0 1 0 0 0 1 43.386333811456652 25.378098910406322 8.7170172196607307 1 rotate no_reflect no_shear #
lump $-1 $-1 $38 $8 #
transform $-1 1 0 0 0 1 0 0 0 1 43.386333811456652 25.378098910406322 8.7170172196607307 1 rotate no_reflect no_shear #
lump $-1 $-1 $39 $9 #
transform $-1 1 0 0 0 1 0 0 0 1 43.386333811456652 25.378098910406322 8.7170172196607307 1 rotate no_reflect no_shear #
shell $-1 $-1 $-1 $40 $-1 $10 #
shell $-1 $-1 $-1 $41 $-1 $12 #
shell $-1 $-1 $-1 $42 $-1 $14 #
shell $-1 $-1 $-1 $43 $-1 $16 #
shell $-1 $-1 $-1 $44 $-1 $18 #
shell $-1 $-1 $-1 $45 $-1 $20 #
shell $-1 $-1 $-1 $46 $-1 $22 #
shell $-1 $-1 $-1 $47 $-1 $24 #
shell $-1 $-1 $-1 $48 $-1 $26 #
shell $-1 $-1 $-1 $49 $-1 $28 #
face $-1 $50 $51 $30 $-1 $52 forward single #
face $-1 $53 $54 $31 $-1 $55 reversed single #
face $-1 $56 $57 $32 $-1 $58 reversed single #
face $-1 $59 $60 $33 $-1 $61 forward single #
face $-1 $62 $63 $34 $-1 $64 forward single #
face $-1 $65 $66 $35 $-1 $67 forward single #
face $-1 $68 $69 $36 $-1 $70 reversed single #
face $-1 $71 $72 $37 $-1 $73 forward single #
face $-1 $74 $75 $38 $-1 $76 forward single #
face $-1 $77 $78 $39 $-1 $79 forward single #
face $-1 $80 $81 $30 $-1 $82 reversed single #
loop $-1 $-1 $83 $40 #
plane-surface $-1 0 0 8.7170172196607307 0 0 1 1 0 0 forward_v I I I I #
face $-1 $84 $85 $31 $-1 $86 reversed single #
loop $-1 $-1 $87 $41 #
plane-surface $-1 -38.348064393506007 0 4.891979316046549 0 0 1 1 0 0 forward_v I I I I #
face $-1 $88 $89 $32 $-1 $90 reversed single #
loop $-1 $-1 $91 $42 #
plane-surface $-1 37.049007662581914 -98.965495174073112 47.35632200500428 -1 0 0 0 -0.84804810408105047 0.52991925155115449 forward_v I I I I #
face $-1 $92 $93 $33 $-1 $94 forward single #
loop $-1 $95 $96 $43 #
cone-surface $-1 22.254779208160187 -21.818730774382647 4.25489564125626 0 0.84804810408105047 -0.52991925155115449 1 0 0 1 I I 0 1 1 forward I I I I #
face $-1 $97 $98 $34 $-1 $99 forward single #
loop $-1 $100 $101 $44 #
cone-surface $-1 27.802614878568335 -21.818730774382647 4.25489564125626 0 0.84804810408105047 -0.52991925155115449 1 0 0 1 I I 0 1 1 forward I I I I #
face $-1 $102 $103 $35 $-1 $104 forward single #
loop $-1 $105 $106 $45 #
cone-surface $-1 33.350450548976482 -21.818730774382647 4.25489564125626 0 0.84804810408105047 -0.52991925155115449 1 0 0 1 I I 0 1 1 forward I I I I #
face $-1 $107 $108 $36 $-1 $109 reversed single #
loop $-1 $-1 $110 $46 #
plane-surface $-1 18.556222094554755 72.068808813285727 90.400019337307185 1 0 0 0 -0.84804810408105047 -0.52991925155115449 forward_v I I I I #
face $-1 $111 $112 $37 $-1 $113 forward single #
loop $-1 $114 $115 $47 #
cone-surface $-1 22.254779208160187 21.818730774382651 4.2548956412562635 0 -0.84804810408105047 -0.52991925155115449 1 0 0 1 I I 0 1 1 forward I I I I #
face $-1 $116 $117 $38 $-1 $118 forward single #
loop $-1 $119 $120 $48 #
cone-surface $-1 27.802614878568335 21.818730774382651 4.2548956412562635 0 -0.84804810408105047 -0.52991925155115449 1 0 0 1 I I 0 1 1 forward I I I I #
face $-1 $121 $122 $39 $-1 $123 forward single #
loop $-1 $124 $125 $49 #
cone-surface $-1 33.350450548976482 21.818730774382651 4.2548956412562635 0 -0.84804810408105047 -0.52991925155115449 1 0 0 1 I I 0 1 1 forward I I I I #
face $-1 $126 $127 $30 $-1 $128 reversed single #
loop $-1 $-1 $129 $50 #
plane-surface $-1 0 0 -8.7170172196607307 0 0 1 1 0 0 forward_v I I I I #
coedge $-1 $130 $131 $132 $133 forward $51 $-1 #
face $-1 $134 $135 $31 $-1 $136 reversed single #
loop $-1 $-1 $137 $53 #
plane-surface $-1 -33.309794975555363 0 6.8044982678536403 -1 0 0 0 0 1 forward_v I I I I #
coedge $-1 $138 $139 $140 $141 forward $54 $-1 #
face $-1 $142 $143 $32 $-1 $144 reversed single #
loop $-1 $-1 $145 $56 #
plane-surface $-1 27.802614878568335 -25.378098910406337 1.3738149231729651 0 -0.84804810408105047 0.52991925155115449 1 0 0 forward_v I I I I #
coedge $-1 $146 $147 $148 $149 reversed $57 $-1 #
face $-1 $-1 $150 $33 $-1 $151 forward single #
loop $-1 $152 $153 $59 #
cone-surface $-1 22.254779208160187 -20.12960953994563 3.1994155853200947 0 0.84804810408105047 -0.52991925155115449 0.5 0 0 1 I I -0.70710678118654746 0.70710678118654746 0.5 forward I I I I #
loop $-1 $-1 $154 $43 #
coedge $-1 $96 $96 $155 $156 reversed $60 $-1 #
face $-1 $-1 $157 $34 $-1 $158 forward single #
loop $-1 $159 $160 $62 #
cone-surface $-1 27.802614878568335 -20.12960953994563 3.1994155853200947 0 0.84804810408105047 -0.52991925155115449 0.5 0 0 1 I I -0.70710678118654746 0.70710678118654746 0.5 forward I I I I #
loop $-1 $-1 $161 $44 #
coedge $-1 $101 $101 $162 $163 reversed $63 $-1 #
face $-1 $-1 $164 $35 $-1 $165 forward single #
loop $-1 $166 $167 $65 #
cone-surface $-1 33.350450548976482 -20.12960953994563 3.1994155853200947 0 0.84804810408105047 -0.52991925155115449 0.5 0 0 1 I I -0.70710678118654746 0.70710678118654746 0.5 forward I I I I #
loop $-1 $-1 $168 $45 #
coedge $-1 $106 $106 $169 $170 reversed $66 $-1 #
face $-1 $171 $172 $36 $-1 $173 reversed single #
loop $-1 $-1 $174 $68 #
plane-surface $-1 27.802614878568335 -1.5185874503810481 44.41751225547587 0 0.84804810408105047 0.52991925155115449 1 0 0 forward_v I I I I #
coedge $-1 $175 $176 $177 $178 reversed $69 $-1 #
face $-1 $-1 $179 $37 $-1 $180 forward single #
loop $-1 $181 $182 $71 #
cone-surface $-1 22.254779208160187 20.129609539945633 3.1994155853200983 0 -0.84804810408105047 -0.52991925155115449 0.5 0 0 1 I I -0.70710678118654746 0.70710678118654746 0.5 forward I I I I #
loop $-1 $-1 $183 $47 #
coedge $-1 $115 $115 $184 $185 reversed $72 $-1 #
face $-1 $-1 $186 $38 $-1 $187 forward single #
loop $-1 $188 $189 $74 #
cone-surface $-1 27.802614878568335 20.129609539945633 3.1994155853200983 0 -0.84804810408105047 -0.52991925155115449 0.5 0 0 1 I I -0.70710678118654746 0.70710678118654746 0.5 forward I I I I #
loop $-1 $-1 $190 $48 #
coedge $-1 $120 $120 $191 $192 reversed $75 $-1 #
face $-1 $-1 $193 $39 $-1 $194 forward single #
loop $-1 $195 $196 $77 #
cone-surface $-1 33.350450548976482 20.129609539945633 3.1994155853200983 0 -0.84804810408105047 -0.52991925155115449 0.5 0 0 1 I I -0.70710678118654746 0.70710678118654746 0.5 forward I I I I #
loop $-1 $-1 $197 $49 #
coedge $-1 $125 $125 $198 $199 reversed $78 $-1 #
face $-1 $200 $201 $30 $-1 $202 reversed single #
loop $-1 $-1 $203 $80 #
plane-surface $-1 0 -25.378098910406322 0 0 1 0 0 0 1 forward_v I I I I #
coedge $-1 $204 $205 $206 $207 forward $81 $-1 #
coedge $-1 $208 $83 $209 $210 forward $51 $-1 #
coedge $-1 $83 $208 $211 $212 forward $51 $-1 #
coedge $-1 $213 $214 $83 $133 reversed $215 $-1 #
edge $-1 $216 -25.378098910406322 $217 25.378098910406322 $132 $218 forward 7 unknown #
face $-1 $219 $220 $31 $-1 $221 reversed single #
loop $-1 $-1 $222 $84 #
plane-surface $-1 0 25.378098910406322 0 0 -1 0 0 0 -1 forward_v I I I I #
coedge $-1 $140 $223 $224 $225 reversed $85 $-1 #
coedge $-1 $226 $87 $227 $228 reversed $54 $-1 #
coedge $-1 $87 $226 $229 $230 reversed $54 $-1 #
coedge $-1 $231 $137 $87 $141 reversed $85 $-1 #
edge $-1 $232 -25.378098910406322 $233 25.378098910406322 $140 $234 forward 7 unknown #
face $-1 $235 $236 $32 $-1 $237 reversed single #
loop $-1 $-1 $238 $88 #
plane-surface $-1 18.556222094554755 -98.965495174073112 47.35632200500428 1 0 0 0 0.84804810408105047 -0.52991925155115449 forward_v I I I I #
coedge $-1 $239 $240 $241 $242 reversed $89 $-1 #
coedge $-1 $147 $91 $243 $244 reversed $57 $-1 #
coedge $-1 $91 $146 $239 $245 reversed $57 $-1 #
coedge $-1 $241 $246 $91 $149 forward $247 $-1 #
edge $-1 $248 24.104648676630234 $249 28.69319058388459 $148 $250 forward 7 unknown #
loop $-1 $-1 $155 $92 #
plane-surface $-1 27.802614878568335 -25.378098910406337 1.3738149231729651 0 -0.84804810408105047 0.52991925155115449 1 0 0 forward_v I I I I #
loop $-1 $-1 $251 $59 #
coedge $-1 $153 $153 $154 $252 reversed $93 $-1 #
coedge $-1 $154 $154 $153 $252 forward $95 $-1 #
coedge $-1 $155 $155 $96 $156 forward $150 $-1 #
edge $-1 $253 3.7542794654976729e-016 $253 6.2831853071796004 $155 $254 forward 7 unknown #
loop $-1 $-1 $162 $97 #
plane-surface $-1 27.802614878568335 -25.378098910406337 1.3738149231729651 0 -0.84804810408105047 0.52991925155115449 1 0 0 forward_v I I I I #
loop $-1 $-1 $255 $62 #
coedge $-1 $160 $160 $161 $256 reversed $98 $-1 #
coedge $-1 $161 $161 $160 $256 forward $100 $-1 #
coedge $-1 $162 $162 $101 $163 forward $157 $-1 #
edge $-1 $257 3.7542794654976729e-016 $257 6.2831853071796004 $162 $258 forward 7 unknown #
loop $-1 $-1 $169 $102 #
plane-surface $-1 27.802614878568335 -25.378098910406337 1.3738149231729651 0 -0.84804810408105047 0.52991925155115449 1 0 0 forward_v I I I I #
loop $-1 $-1 $259 $65 #
coedge $-1 $167 $167 $168 $260 reversed $103 $-1 #
coedge $-1 $168 $168 $167 $260 forward $105 $-1 #
coedge $-1 $169 $169 $106 $170 forward $164 $-1 #
edge $-1 $261 3.7542794654976729e-016 $261 6.2831853071796004 $169 $262 forward 7 unknown #
face $-1 $263 $264 $36 $-1 $265 forward single #
loop $-1 $-1 $266 $107 #
plane-surface $-1 37.049007662581914 72.068808813285727 90.400019337307185 -1 0 0 0 0.84804810408105047 0.52991925155115449 forward_v I I I I #
coedge $-1 $267 $268 $269 $270 reversed $108 $-1 #
coedge $-1 $176 $110 $271 $272 reversed $69 $-1 #
coedge $-1 $110 $175 $267 $273 reversed $69 $-1 #
coedge $-1 $269 $274 $110 $178 forward $264 $-1 #
edge $-1 $275 10.656305496236541 $276 15.244847403490912 $177 $277 forward 7 unknown #
loop $-1 $-1 $184 $111 #
plane-surface $-1 27.802614878568335 -1.5185874503810481 44.41751225547587 0 0.84804810408105047 0.52991925155115449 1 0 0 forward_v I I I I #
loop $-1 $-1 $278 $71 #
coedge $-1 $182 $182 $183 $279 reversed $112 $-1 #
coedge $-1 $183 $183 $182 $279 forward $114 $-1 #
coedge $-1 $184 $184 $115 $185 forward $179 $-1 #
edge $-1 $280 3.7621532382072072e-016 $280 6.2831853071796004 $184 $281 forward 7 unknown #
loop $-1 $-1 $191 $116 #
plane-surface $-1 27.802614878568335 -1.5185874503810481 44.41751225547587 0 0.84804810408105047 0.52991925155115449 1 0 0 forward_v I I I I #
loop $-1 $-1 $282 $74 #
coedge $-1 $189 $189 $190 $283 reversed $117 $-1 #
coedge $-1 $190 $190 $189 $283 forward $119 $-1 #
coedge $-1 $191 $191 $120 $192 forward $186 $-1 #
edge $-1 $284 3.7621532382072072e-016 $284 6.2831853071796004 $191 $285 forward 7 unknown #
loop $-1 $-1 $198 $121 #
plane-surface $-1 27.802614878568335 -1.5185874503810481 44.41751225547587 0 0.84804810408105047 0.52991925155115449 1 0 0 forward_v I I I I #
loop $-1 $-1 $286 $77 #
coedge $-1 $196 $196 $197 $287 reversed $122 $-1 #
coedge $-1 $197 $197 $196 $287 forward $124 $-1 #
coedge $-1 $198 $198 $125 $199 forward $193 $-1 #
edge $-1 $288 3.7621532382072072e-016 $288 6.2831853071796004 $198 $289 forward 7 unknown #
face $-1 $290 $291 $30 $-1 $292 reversed single #
loop $-1 $-1 $293 $126 #
plane-surface $-1 -43.386333811456652 0 0 1 0 0 0 0 -1 forward_v I I I I #
coedge $-1 $294 $211 $295 $296 forward $127 $-1 #
coedge $-1 $297 $129 $294 $298 forward $81 $-1 #
coedge $-1 $129 $297 $299 $300 forward $81 $-1 #
coedge $-1 $214 $213 $129 $207 reversed $215 $-1 #
edge $-1 $301 -25.378098910406322 $302 25.378098910406322 $206 $303 forward 7 unknown #
coedge $-1 $131 $130 $304 $305 forward $51 $-1 #
coedge $-1 $306 $307 $130 $210 reversed $291 $-1 #
edge $-1 $217 -43.386333811456652 $308 43.386333811456652 $209 $309 forward 7 unknown #
coedge $-1 $203 $310 $131 $212 reversed $127 $-1 #
edge $-1 $311 -43.386333811456652 $216 43.386333811456652 $211 $312 forward 7 unknown #
coedge $-1 $206 $132 $310 $313 forward $215 $-1 #
coedge $-1 $132 $206 $306 $314 reversed $215 $-1 #
loop $-1 $-1 $213 $290 #
vertex $-1 $133 $315 #
vertex $-1 $133 $316 #
straight-curve $-1 43.386333811456652 0 8.7170172196607307 0 1 0 I I #
face $-1 $317 $318 $31 $-1 $319 forward single #
loop $-1 $-1 $320 $134 #
plane-surface $-1 -43.386333811456652 0 0 1 0 0 0 0 -1 forward_v I I I I #
coedge $-1 $229 $321 $231 $322 forward $135 $-1 #
coedge $-1 $137 $231 $323 $324 reversed $85 $-1 #
coedge $-1 $325 $227 $137 $225 forward $326 $-1 #
edge $-1 $233 1.4897301821197289 $327 5.3147680857339124 $224 $328 forward 7 unknown #
coedge $-1 $139 $138 $320 $329 reversed $54 $-1 #
coedge $-1 $224 $330 $138 $228 forward $326 $-1 #
edge $-1 $331 -24.212301614703648 $233 -14.135762778802359 $227 $332 forward 7 unknown #
coedge $-1 $333 $222 $139 $230 forward $135 $-1 #
edge $-1 $232 14.135762778802359 $334 24.212301614703648 $229 $335 forward 7 unknown #
coedge $-1 $223 $140 $222 $322 reversed $85 $-1 #
vertex $-1 $230 $336 #
vertex $-1 $228 $337 #
straight-curve $-1 -33.309794975555363 0 4.891979316046549 0 -1 0 I I #
face $-1 $-1 $247 $32 $-1 $338 forward single #
loop $-1 $-1 $339 $142 #
plane-surface $-1 0 -25.378098910406322 0 0 1 0 0 0 1 forward_v I I I I #
coedge $-1 $340 $341 $342 $343 reversed $143 $-1 #
coedge $-1 $344 $145 $147 $245 forward $89 $-1 #
coedge $-1 $145 $344 $340 $345 forward $89 $-1 #
coedge $-1 $342 $148 $145 $242 forward $247 $-1 #
edge $-1 $249 -23.147700223297747 $346 -4.6549146552705878 $241 $347 forward 7 unknown #
coedge $-1 $348 $349 $146 $244 forward $236 $-1 #
edge $-1 $350 -22.304346079329154 $248 -14.961143782841409 $243 $351 forward 7 unknown #
edge $-1 $249 -8.6589454786234086 $350 -2.6737665129848107e-014 $147 $352 forward 7 unknown #
coedge $-1 $148 $342 $348 $353 forward $247 $-1 #
loop $-1 $-1 $342 $235 #
vertex $-1 $244 $354 #
vertex $-1 $149 $355 #
straight-curve $-1 37.049007662581914 -49.482747587036556 8.717017219660729 0 1 0 I I #
coedge $-1 $251 $251 $-1 $356 reversed $152 $-1 #
edge $-1 $357 0 $357 6.2831853071796004 $153 $358 forward 7 unknown #
vertex $-1 $156 $359 #
ellipse-curve $-1 22.254779208160187 -23.08382795677915 5.0454160714168541 0 -0.84804810408105047 0.52991925155115449 1 0 0 1 I I #
coedge $-1 $255 $255 $-1 $360 reversed $159 $-1 #
edge $-1 $361 0 $361 6.2831853071796004 $160 $362 forward 7 unknown #
vertex $-1 $163 $363 #
ellipse-curve $-1 27.802614878568335 -23.08382795677915 5.0454160714168541 0 -0.84804810408105047 0.52991925155115449 1 0 0 1 I I #
coedge $-1 $259 $259 $-1 $364 reversed $166 $-1 #
edge $-1 $365 0 $365 6.2831853071796004 $167 $366 forward 7 unknown #
vertex $-1 $170 $367 #
ellipse-curve $-1 33.350450548976482 -23.08382795677915 5.0454160714168541 0 -0.84804810408105047 0.52991925155115449 1 0 0 1 I I #
face $-1 $-1 $368 $36 $-1 $369 reversed single #
loop $-1 $-1 $177 $171 #
plane-surface $-1 0 0 8.7170172196607307 0 0 1 1 0 0 forward_v I I I I #
coedge $-1 $370 $371 $372 $373 reversed $172 $-1 #
coedge $-1 $374 $174 $176 $273 forward $108 $-1 #
coedge $-1 $174 $374 $370 $375 forward $108 $-1 #
coedge $-1 $372 $177 $174 $270 forward $264 $-1 #
edge $-1 $276 4.6549146552705878 $376 23.147700223297747 $269 $377 forward 7 unknown #
coedge $-1 $378 $379 $175 $272 forward $368 $-1 #
edge $-1 $380 -43.826194745480628 $275 -36.48299244899286 $271 $381 forward 7 unknown #
edge $-1 $276 42.097252342189229 $380 50.756197820812638 $176 $382 forward 7 unknown #
coedge $-1 $177 $372 $378 $383 forward $264 $-1 #
vertex $-1 $272 $384 #
vertex $-1 $178 $385 #
straight-curve $-1 18.556222094554755 36.034404406642864 8.7170172196607325 0 -1 0 I I #
coedge $-1 $278 $278 $-1 $386 reversed $181 $-1 #
edge $-1 $387 0 $387 6.2831853071796004 $182 $388 forward 7 unknown #
vertex $-1 $185 $389 #
ellipse-curve $-1 22.254779208160187 23.083827956779139 5.0454160714168497 0 0.84804810408105047 0.52991925155115449 1 0 0 1 I I #
coedge $-1 $282 $282 $-1 $390 reversed $188 $-1 #
edge $-1 $391 0 $391 6.2831853071796004 $189 $392 forward 7 unknown #
vertex $-1 $192 $393 #
ellipse-curve $-1 27.802614878568335 23.083827956779139 5.0454160714168497 0 0.84804810408105047 0.52991925155115449 1 0 0 1 I I #
coedge $-1 $286 $286 $-1 $394 reversed $195 $-1 #
edge $-1 $395 0 $395 6.2831853071796004 $196 $396 forward 7 unknown #
vertex $-1 $199 $397 #
ellipse-curve $-1 33.350450548976482 23.083827956779139 5.0454160714168497 0 0.84804810408105047 0.52991925155115449 1 0 0 1 I I #
face $-1 $-1 $215 $30 $-1 $398 reversed single #
loop $-1 $-1 $306 $200 #
plane-surface $-1 0 25.378098910406322 0 0 -1 0 0 0 -1 forward_v I I I I #
coedge $-1 $399 $304 $307 $400 forward $201 $-1 #
coedge $-1 $310 $203 $204 $298 reversed $127 $-1 #
coedge $-1 $304 $399 $203 $296 reversed $201 $-1 #
edge $-1 $311 -8.7170172196607307 $401 8.7170172196607307 $295 $402 forward 7 unknown #
coedge $-1 $205 $204 $399 $403 forward $81 $-1 #
edge $-1 $302 -43.386333811456652 $401 43.386333811456652 $294 $404 forward 7 unknown #
coedge $-1 $307 $306 $205 $300 reversed $291 $-1 #
edge $-1 $405 -43.386333811456652 $301 43.386333811456652 $299 $406 forward 7 unknown #
vertex $-1 $207 $407 #
vertex $-1 $313 $408 #
straight-curve $-1 43.386333811456652 0 -8.7170172196607307 0 -1 0 I I #
coedge $-1 $293 $295 $208 $305 reversed $201 $-1 #
edge $-1 $308 -25.378098910406322 $311 25.378098910406322 $304 $409 forward 7 unknown #
coedge $-1 $299 $209 $214 $314 forward $291 $-1 #
coedge $-1 $209 $299 $293 $400 reversed $291 $-1 #
vertex $-1 $210 $410 #
straight-curve $-1 0 25.378098910406322 8.7170172196607307 -1 0 0 I I #
coedge $-1 $211 $294 $213 $313 reversed $127 $-1 #
vertex $-1 $305 $411 #
straight-curve $-1 0 -25.378098910406322 8.7170172196607307 1 0 0 I I #
edge $-1 $216 -8.7170172196607307 $302 8.7170172196607307 $213 $412 forward 7 unknown #
edge $-1 $217 -8.7170172196607307 $301 8.7170172196607307 $214 $413 forward 7 unknown #
point $-1 43.386333811456652 -25.378098910406322 8.7170172196607307 #
point $-1 43.386333811456652 25.378098910406322 8.7170172196607307 #
face $-1 $-1 $326 $31 $-1 $414 reversed single #
loop $-1 $-1 $323 $219 #
plane-surface $-1 0 0 8.7170172196607307 0 0 1 1 0 0 forward_v I I I I #
coedge $-1 $415 $416 $226 $329 forward $220 $-1 #
coedge $-1 $222 $333 $417 $418 reversed $135 $-1 #
edge $-1 $419 -5.3147680857339124 $232 -1.4897301821197289 $222 $420 forward 7 unknown #
coedge $-1 $417 $421 $223 $324 forward $318 $-1 #
edge $-1 $327 -25.378098910406322 $419 25.378098910406322 $323 $422 forward 7 unknown #
coedge $-1 $330 $224 $421 $423 reversed $326 $-1 #
loop $-1 $-1 $224 $317 #
vertex $-1 $225 $424 #
straight-curve $-1 -33.309794975555363 -25.378098910406322 3.4022491339268202 0 0 1 I I #
edge $-1 $334 -25.378098910406322 $331 25.378098910406322 $320 $425 forward 7 unknown #
coedge $-1 $227 $325 $415 $426 forward $326 $-1 #
vertex $-1 $329 $427 #
straight-curve $-1 -19.174032196753004 -25.378098910406322 4.891979316046549 1 0 0 I I #
coedge $-1 $321 $229 $416 $428 reversed $135 $-1 #
vertex $-1 $329 $429 #
straight-curve $-1 -19.174032196753004 25.378098910406322 4.891979316046549 -1 0 0 I I #
point $-1 -33.309794975555363 25.378098910406322 4.891979316046549 #
point $-1 -33.309794975555363 -25.378098910406322 4.891979316046549 #
plane-surface $-1 0 0 8.7170172196607307 0 0 1 1 0 0 forward_v I I I I #
coedge $-1 $349 $348 $341 $430 forward $236 $-1 #
coedge $-1 $341 $238 $240 $345 reversed $143 $-1 #
coedge $-1 $238 $340 $339 $430 reversed $143 $-1 #
coedge $-1 $246 $241 $238 $343 forward $247 $-1 #
edge $-1 $346 -28.69319058388459 $431 -24.104648676630234 $342 $432 forward 7 unknown #
coedge $-1 $240 $239 $349 $433 reversed $89 $-1 #
edge $-1 $434 2.6737665129848107e-014 $346 8.6589454786234086 $340 $435 forward 7 unknown #
vertex $-1 $242 $436 #
straight-curve $-1 13.901307439284167 -20.78955700315197 8.7170172196607307 -1 0 0 I I #
coedge $-1 $339 $243 $246 $353 reversed $236 $-1 #
coedge $-1 $243 $339 $344 $433 forward $236 $-1 #
vertex $-1 $244 $437 #
straight-curve $-1 37.049007662581914 -25.378098910406322 23.67816100250214 0 0 1 I I #
straight-curve $-1 37.049007662581914 -25.378098910406337 1.3738149231729651 0 -0.52991925155115449 -0.84804810408105047 I I #
edge $-1 $431 18.556222094554755 $248 37.049007662581914 $348 $438 forward 7 unknown #
point $-1 37.049007662581914 -25.378098910406322 8.7170172196607307 #
point $-1 37.049007662581914 -20.789557003151966 8.7170172196607307 #
edge $-1 $439 1 $439 0 $251 $-1 forward 7 unknown #
vertex $-1 $252 $440 #
ellipse-curve $-1 22.254779208160187 -20.553633591986156 3.464375211095672 0 -0.84804810408105047 0.52991925155115449 1 0 0 1 I I #
point $-1 23.254779208160187 -23.083827956779139 5.0454160714168479 #
edge $-1 $441 1 $441 0 $255 $-1 forward 7 unknown #
vertex $-1 $256 $442 #
ellipse-curve $-1 27.802614878568335 -20.553633591986156 3.464375211095672 0 -0.84804810408105047 0.52991925155115449 1 0 0 1 I I #
point $-1 28.802614878568335 -23.083827956779139 5.0454160714168479 #
edge $-1 $443 1 $443 0 $259 $-1 forward 7 unknown #
vertex $-1 $260 $444 #
ellipse-curve $-1 33.350450548976482 -20.553633591986156 3.464375211095672 0 -0.84804810408105047 0.52991925155115449 1 0 0 1 I I #
point $-1 34.350450548976482 -23.083827956779139 5.0454160714168479 #
loop $-1 $-1 $271 $263 #
plane-surface $-1 0 25.378098910406322 0 0 -1 0 0 0 -1 forward_v I I I I #
coedge $-1 $371 $266 $268 $375 reversed $172 $-1 #
coedge $-1 $266 $370 $445 $446 reversed $172 $-1 #
coedge $-1 $274 $269 $266 $373 forward $264 $-1 #
edge $-1 $376 -15.244847403490912 $447 -10.656305496236541 $372 $448 forward 7 unknown #
coedge $-1 $268 $267 $379 $449 reversed $108 $-1 #
edge $-1 $450 -50.756197820812638 $376 -42.097252342189229 $370 $451 forward 7 unknown #
vertex $-1 $270 $452 #
straight-curve $-1 13.901307439284167 20.789557003151955 8.7170172196607325 1 0 0 I I #
coedge $-1 $445 $271 $274 $383 reversed $368 $-1 #
coedge $-1 $271 $445 $374 $449 forward $368 $-1 #
vertex $-1 $272 $453 #
straight-curve $-1 18.556222094554755 25.378098910406322 45.200009668653593 0 0 1 I I #
straight-curve $-1 18.556222094554755 -1.5185874503810481 44.41751225547587 0 0.52991925155115449 -0.84804810408105047 I I #
edge $-1 $447 -37.049007662581914 $275 -18.556222094554755 $378 $454 forward 7 unknown #
point $-1 18.556222094554755 25.378098910406322 8.7170172196607307 #
point $-1 18.556222094554755 20.789557003151952 8.7170172196607325 #
edge $-1 $455 1 $455 0 $278 $-1 forward 7 unknown #
vertex $-1 $279 $456 #
ellipse-curve $-1 22.254779208160187 20.553633591986159 3.4643752110956756 0 0.84804810408105047 0.52991925155115449 1 0 0 1 I I #
point $-1 23.254779208160187 23.083827956779142 5.0454160714168514 #
edge $-1 $457 1 $457 0 $282 $-1 forward 7 unknown #
vertex $-1 $283 $458 #
ellipse-curve $-1 27.802614878568335 20.553633591986159 3.4643752110956756 0 0.84804810408105047 0.52991925155115449 1 0 0 1 I I #
point $-1 28.802614878568335 23.083827956779142 5.0454160714168514 #
edge $-1 $459 1 $459 0 $286 $-1 forward 7 unknown #
vertex $-1 $287 $460 #
ellipse-curve $-1 33.350450548976482 20.553633591986159 3.4643752110956756 0 0.84804810408105047 0.52991925155115449 1 0 0 1 I I #
point $-1 34.350450548976482 23.083827956779142 5.0454160714168514 #
plane-surface $-1 43.386333811456652 0 0 -1 0 0 0 0 1 forward_v I I I I #
coedge $-1 $295 $293 $297 $403 reversed $201 $-1 #
edge $-1 $308 -8.7170172196607307 $405 8.7170172196607307 $307 $461 forward 7 unknown #
vertex $-1 $403 $462 #
straight-curve $-1 -43.386333811456652 -25.378098910406322 0 0 0 -1 I I #
edge $-1 $401 -25.378098910406322 $405 25.378098910406322 $399 $463 forward 7 unknown #
straight-curve $-1 0 -25.378098910406322 -8.7170172196607307 -1 0 0 I I #
vertex $-1 $300 $464 #
straight-curve $-1 0 25.378098910406322 -8.7170172196607307 1 0 0 I I #
point $-1 43.386333811456652 25.378098910406322 -8.7170172196607307 #
point $-1 43.386333811456652 -25.378098910406322 -8.7170172196607307 #
straight-curve $-1 -43.386333811456652 0 8.7170172196607307 0 -1 0 I I #
point $-1 -43.386333811456652 25.378098910406322 8.7170172196607307 #
point $-1 -43.386333811456652 -25.378098910406322 8.7170172196607307 #
straight-curve $-1 43.386333811456652 -25.378098910406322 0 0 0 -1 I I #
straight-curve $-1 43.386333811456652 25.378098910406322 0 0 0 -1 I I #
plane-surface $-1 0 -25.378098910406322 0 0 1 0 0 0 1 forward_v I I I I #
coedge $-1 $465 $320 $330 $426 reversed $220 $-1 #
coedge $-1 $320 $465 $333 $428 forward $220 $-1 #
coedge $-1 $466 $323 $321 $418 forward $318 $-1 #
edge $-1 $419 33.309794975555363 $467 43.386333811456652 $321 $468 forward 7 unknown #
vertex $-1 $418 $469 #
straight-curve $-1 -33.309794975555363 25.378098910406322 3.4022491339268202 0 0 -1 I I #
coedge $-1 $323 $466 $325 $423 forward $318 $-1 #
straight-curve $-1 -33.309794975555363 0 8.7170172196607307 0 1 0 I I #
edge $-1 $470 -43.386333811456652 $327 -33.309794975555363 $325 $471 forward 7 unknown #
point $-1 -33.309794975555363 -25.378098910406322 8.7170172196607325 #
straight-curve $-1 -43.386333811456652 0 4.891979316046549 0 -1 0 I I #
edge $-1 $470 -8.7170172196607307 $331 -4.891979316046549 $415 $472 forward 7 unknown #
point $-1 -43.386333811456652 -25.378098910406322 4.891979316046549 #
edge $-1 $467 -8.7170172196607307 $334 -4.891979316046549 $333 $473 forward 7 unknown #
point $-1 -43.386333811456652 25.378098910406322 4.891979316046549 #
edge $-1 $431 14.961143782841409 $434 22.304346079329154 $339 $474 forward 7 unknown #
vertex $-1 $353 $475 #
straight-curve $-1 18.556222094554755 -49.482747587036556 8.717017219660729 0 -1 0 I I #
edge $-1 $434 4.6549146552705878 $350 23.147700223297747 $349 $476 forward 7 unknown #
vertex $-1 $433 $477 #
straight-curve $-1 18.556222094554755 -25.378098910406337 1.3738149231729651 0 0.52991925155115449 0.84804810408105047 I I #
point $-1 18.556222094554755 -20.789557003151966 8.7170172196607307 #
point $-1 37.049007662581914 -25.378098910406322 1.3738149231729877 #
straight-curve $-1 0 -25.378098910406322 8.7170172196607307 1 0 0 I I #
vertex $-1 $356 $478 #
point $-1 23.254779208160187 -20.553633591986156 3.464375211095672 #
vertex $-1 $360 $479 #
point $-1 28.802614878568335 -20.553633591986156 3.464375211095672 #
vertex $-1 $364 $480 #
point $-1 34.350450548976482 -20.553633591986156 3.464375211095672 #
coedge $-1 $379 $378 $371 $446 forward $368 $-1 #
edge $-1 $447 36.48299244899286 $450 43.826194745480628 $445 $481 forward 7 unknown #
vertex $-1 $383 $482 #
straight-curve $-1 37.049007662581914 36.034404406642864 8.7170172196607325 0 1 0 I I #
edge $-1 $450 -23.147700223297747 $380 -4.6549146552705878 $379 $483 forward 7 unknown #
vertex $-1 $449 $484 #
straight-curve $-1 37.049007662581914 -1.5185874503810481 44.41751225547587 0 -0.52991925155115449 0.84804810408105047 I I #
point $-1 37.049007662581914 20.789557003151952 8.7170172196607325 #
point $-1 18.556222094554755 25.378098910406322 1.3738149231729651 #
straight-curve $-1 0 25.378098910406322 8.7170172196607307 -1 0 0 I I #
vertex $-1 $386 $485 #
point $-1 23.254779208160187 20.553633591986159 3.4643752110956756 #
vertex $-1 $390 $486 #
point $-1 28.802614878568335 20.553633591986159 3.4643752110956756 #
vertex $-1 $394 $487 #
point $-1 34.350450548976482 20.553633591986159 3.4643752110956756 #
straight-curve $-1 -43.386333811456652 25.378098910406322 0 0 0 -1 I I #
point $-1 -43.386333811456652 -25.378098910406322 -8.7170172196607307 #
straight-curve $-1 -43.386333811456652 0 -8.7170172196607307 0 1 0 I I #
point $-1 -43.386333811456652 25.378098910406322 -8.7170172196607307 #
coedge $-1 $416 $415 $466 $488 reversed $220 $-1 #
coedge $-1 $421 $417 $465 $488 forward $318 $-1 #
vertex $-1 $418 $489 #
straight-curve $-1 0 25.378098910406322 8.7170172196607307 -1 0 0 I I #
point $-1 -33.309794975555363 25.378098910406322 8.7170172196607325 #
vertex $-1 $488 $490 #
straight-curve $-1 0 -25.378098910406322 8.7170172196607307 1 0 0 I I #
straight-curve $-1 -43.386333811456652 -25.378098910406322 0 0 0 -1 I I #
straight-curve $-1 -43.386333811456652 25.378098910406322 0 0 0 -1 I I #
straight-curve $-1 18.556222094554755 -25.378098910406322 23.67816100250214 0 0 -1 I I #
point $-1 18.556222094554755 -25.378098910406322 8.7170172196607307 #
straight-curve $-1 13.901307439284167 -25.378098910406322 1.3738149231729861 1 0 0 I I #
point $-1 18.556222094554755 -25.378098910406322 1.3738149231729877 #
point $-1 22.254779208160187 -19.705585487905104 2.9344559595445174 #
point $-1 27.802614878568335 -19.705585487905104 2.9344559595445174 #
point $-1 33.350450548976482 -19.705585487905104 2.9344559595445174 #
straight-curve $-1 37.049007662581914 25.378098910406322 45.200009668653593 0 0 -1 I I #
point $-1 37.049007662581914 25.378098910406322 8.7170172196607307 #
straight-curve $-1 13.901307439284167 25.378098910406322 1.3738149231729686 -1 0 0 I I #
point $-1 37.049007662581914 25.378098910406322 1.3738149231729651 #
point $-1 22.254779208160187 19.705585487905108 2.934455959544521 #
point $-1 27.802614878568335 19.705585487905108 2.934455959544521 #
point $-1 33.350450548976482 19.705585487905108 2.934455959544521 #
edge $-1 $467 -25.378098910406322 $470 25.378098910406322 $465 $491 forward 7 unknown #
point $-1 -43.386333811456652 25.378098910406322 8.7170172196607307 #
point $-1 -43.386333811456652 -25.378098910406322 8.7170172196607307 #
straight-curve $-1 -43.386333811456652 0 8.7170172196607307 0 -1 0 I I #
End-of-ACIS-data 