500 0 12 0           
7 Unknown 11 ACIS 5.0 NT 24 Fri Mar 26 18:43:20 1999 
-1 9.9999999999999995e-007 1e-010 
body $-1 $12 $-1 $13 #
body $-1 $14 $-1 $15 #
body $-1 $16 $-1 $17 #
body $-1 $18 $-1 $19 #
body $-1 $20 $-1 $21 #
body $-1 $22 $-1 $23 #
body $-1 $24 $-1 $25 #
body $-1 $26 $-1 $27 #
body $-1 $28 $-1 $29 #
body $-1 $30 $-1 $31 #
body $-1 $32 $-1 $33 #
body $-1 $34 $-1 $35 #
lump $-1 $-1 $36 $0 #
transform $-1 1 0 0 0 1 0 0 0 1 45.029450361644336 25.819340167993595 9.9694471187314004 1 rotate no_reflect no_shear #
lump $-1 $-1 $37 $1 #
transform $-1 1 0 0 0 1 0 0 0 1 45.029450361644336 25.819340167993595 9.9694471187314004 1 rotate no_reflect no_shear #
lump $-1 $-1 $38 $2 #
transform $-1 1 0 0 0 1 0 0 0 1 45.029450361644336 25.819340167993595 9.9694471187314004 1 rotate no_reflect no_shear #
lump $-1 $-1 $39 $3 #
transform $-1 1 0 0 0 1 0 0 0 1 45.029450361644336 25.819340167993595 9.9694471187314004 1 rotate no_reflect no_shear #
lump $-1 $-1 $40 $4 #
transform $-1 1 0 0 0 1 0 0 0 1 45.029450361644336 25.819340167993595 9.9694471187314004 1 rotate no_reflect no_shear #
lump $-1 $-1 $41 $5 #
transform $-1 1 0 0 0 1 0 0 0 1 45.029450361644336 25.819340167993595 9.9694471187314004 1 rotate no_reflect no_shear #
lump $-1 $-1 $42 $6 #
transform $-1 1 0 0 0 1 0 0 0 1 45.029450361644336 25.819340167993595 9.9694471187314004 1 rotate no_reflect no_shear #
lump $-1 $-1 $43 $7 #
transform $-1 1 0 0 0 1 0 0 0 1 45.029450361644336 25.819340167993595 9.9694471187314004 1 rotate no_reflect no_shear #
lump $-1 $-1 $44 $8 #
transform $-1 1 0 0 0 1 0 0 0 1 45.029450361644336 25.819340167993595 9.9694471187314004 1 rotate no_reflect no_shear #
lump $-1 $-1 $45 $9 #
transform $-1 1 0 0 0 1 0 0 0 1 45.029450361644336 25.819340167993595 9.9694471187314004 1 rotate no_reflect no_shear #
lump $-1 $-1 $46 $10 #
transform $-1 1 0 0 0 1 0 0 0 1 45.029450361644336 25.819340167993595 9.9694471187314004 1 rotate no_reflect no_shear #
lump $-1 $-1 $47 $11 #
transform $-1 1 0 0 0 1 0 0 0 1 45.029450361644336 25.819340167993595 9.9694471187314004 1 rotate no_reflect no_shear #
shell $-1 $-1 $-1 $48 $-1 $12 #
shell $-1 $-1 $-1 $49 $-1 $14 #
shell $-1 $-1 $-1 $50 $-1 $16 #
shell $-1 $-1 $-1 $51 $-1 $18 #
shell $-1 $-1 $-1 $52 $-1 $20 #
shell $-1 $-1 $-1 $53 $-1 $22 #
shell $-1 $-1 $-1 $54 $-1 $24 #
shell $-1 $-1 $-1 $55 $-1 $26 #
shell $-1 $-1 $-1 $56 $-1 $28 #
shell $-1 $-1 $-1 $57 $-1 $30 #
shell $-1 $-1 $-1 $58 $-1 $32 #
shell $-1 $-1 $-1 $59 $-1 $34 #
face $-1 $60 $61 $36 $-1 $62 forward single #
face $-1 $63 $64 $37 $-1 $65 forward single #
face $-1 $66 $67 $38 $-1 $68 reversed single #
face $-1 $69 $70 $39 $-1 $71 forward single #
face $-1 $72 $73 $40 $-1 $74 reversed single #
face $-1 $75 $76 $41 $-1 $77 forward single #
face $-1 $78 $79 $42 $-1 $80 reversed single #
face $-1 $81 $82 $43 $-1 $83 forward single #
face $-1 $84 $85 $44 $-1 $86 forward single #
face $-1 $87 $88 $45 $-1 $89 reversed single #
face $-1 $90 $91 $46 $-1 $92 forward single #
face $-1 $93 $94 $47 $-1 $95 forward single #
face $-1 $96 $97 $36 $-1 $98 reversed single #
loop $-1 $-1 $99 $48 #
plane-surface $-1 0 0 9.9694471187314004 0 0 1 1 0 0 forward_v I I I I #
face $-1 $100 $101 $37 $-1 $102 reversed single #
loop $-1 $-1 $103 $49 #
plane-surface $-1 -45.029450361644336 0 0 1 0 0 0 0 -1 forward_v I I I I #
face $-1 $104 $105 $38 $-1 $106 reversed single #
loop $-1 $-1 $107 $50 #
plane-surface $-1 -14.746682556640369 -102.19362018200209 53.104970159434203 -1 0 0 0 -0.84804810408105047 0.52991925155115449 forward_v I I I I #
face $-1 $108 $109 $39 $-1 $110 forward single #
loop $-1 $111 $112 $51 #
cone-surface $-1 -23.481108484547139 -23.083586054372493 6.8615486903045655 0 0.84804810408105047 -0.52991925155115449 1 0 0 1 I I 0 1 1 forward I I I I #
face $-1 $113 $114 $40 $-1 $115 reversed single #
loop $-1 $-1 $116 $52 #
plane-surface $-1 26.87497668782008 -102.19362018200209 53.104970159434203 -1 0 0 0 -0.84804810408105047 0.52991925155115449 forward_v I I I I #
face $-1 $117 $118 $41 $-1 $119 forward single #
loop $-1 $120 $121 $53 #
cone-surface $-1 18.14055075991331 -23.083586054372493 6.8615486903045655 0 0.84804810408105047 -0.52991925155115449 1 0 0 1 I I 0 1 1 forward I I I I #
face $-1 $122 $123 $42 $-1 $124 reversed single #
loop $-1 $-1 $125 $54 #
plane-surface $-1 -28.11210678725341 45.931089445475472 102.7539161147415 1 0 0 0 -0.6560590369687036 -0.75470957328743171 forward_v I I I I #
face $-1 $126 $127 $43 $-1 $128 forward single #
loop $-1 $129 $130 $55 #
cone-surface $-1 -23.529621424226111 19.595808336184842 4.2751587408177221 0 -0.6560590369687036 -0.75470957328743171 2 0 0 1 I I 0 1 2 forward I I I I #
face $-1 $131 $132 $44 $-1 $133 forward single #
loop $-1 $134 $135 $56 #
cone-surface $-1 -16.655893379685164 19.595808336184842 4.2751587408177221 0 -0.6560590369687036 -0.75470957328743171 2 0 0 1 I I 0 1 2 forward I I I I #
face $-1 $136 $137 $45 $-1 $138 reversed single #
loop $-1 $-1 $139 $57 #
plane-surface $-1 13.509552457207036 45.931089445475472 102.7539161147415 1 0 0 0 -0.6560590369687036 -0.75470957328743171 forward_v I I I I #
face $-1 $140 $141 $46 $-1 $142 forward single #
loop $-1 $143 $144 $58 #
cone-surface $-1 18.092037820234339 19.595808336184842 4.2751587408177221 0 -0.6560590369687036 -0.75470957328743171 2 0 0 1 I I 0 1 2 forward I I I I #
face $-1 $145 $146 $47 $-1 $147 forward single #
loop $-1 $148 $149 $59 #
cone-surface $-1 24.965765864775278 19.595808336184842 4.2751587408177221 0 -0.6560590369687036 -0.75470957328743171 2 0 0 1 I I 0 1 2 forward I I I I #
face $-1 $150 $151 $36 $-1 $152 reversed single #
loop $-1 $-1 $153 $60 #
plane-surface $-1 0 0 -9.9694471187314004 0 0 1 1 0 0 forward_v I I I I #
coedge $-1 $154 $155 $156 $157 forward $61 $-1 #
face $-1 $158 $159 $37 $-1 $160 forward single #
loop $-1 $-1 $161 $63 #
plane-surface $-1 0 25.819340167993595 0 0 -1 0 0 0 -1 forward_v I I I I #
coedge $-1 $162 $163 $164 $165 forward $64 $-1 #
face $-1 $166 $167 $38 $-1 $168 reversed single #
loop $-1 $-1 $169 $66 #
plane-surface $-1 -23.481108484547139 -25.819340167993587 5.3810248926293411 0 -0.84804810408105047 0.52991925155115449 1 0 0 forward_v I I I I #
coedge $-1 $170 $171 $172 $173 reversed $67 $-1 #
face $-1 $-1 $174 $39 $-1 $175 forward single #
loop $-1 $176 $177 $69 #
cone-surface $-1 -23.481108484547139 -21.357390052361509 5.7829017491531829 0 0.84804810408105047 -0.52991925155115449 0.5 0 0 1 I I -0.70710678118654746 0.70710678118654746 0.5 forward I I I I #
loop $-1 $-1 $178 $51 #
coedge $-1 $112 $112 $179 $180 reversed $70 $-1 #
face $-1 $181 $182 $40 $-1 $183 reversed single #
loop $-1 $-1 $184 $72 #
plane-surface $-1 18.14055075991331 -25.819340167993587 5.3810248926293411 0 -0.84804810408105047 0.52991925155115449 1 0 0 forward_v I I I I #
coedge $-1 $185 $186 $187 $188 reversed $73 $-1 #
face $-1 $-1 $189 $41 $-1 $190 forward single #
loop $-1 $191 $192 $75 #
cone-surface $-1 18.14055075991331 -21.357390052361509 5.7829017491531829 0 0.84804810408105047 -0.52991925155115449 0.5 0 0 1 I I -0.70710678118654746 0.70710678118654746 0.5 forward I I I I #
loop $-1 $-1 $193 $53 #
coedge $-1 $121 $121 $194 $195 reversed $76 $-1 #
face $-1 $196 $197 $42 $-1 $198 reversed single #
loop $-1 $-1 $199 $78 #
plane-surface $-1 -20.092757401955637 -13.152866233505378 34.785601579133129 0 0.6560590369687036 0.75470957328743171 1 0 0 forward_v I I I I #
coedge $-1 $200 $201 $202 $203 reversed $79 $-1 #
face $-1 $-1 $204 $43 $-1 $205 forward single #
loop $-1 $206 $207 $81 #
cone-surface $-1 -23.529621424226111 17.92846093292529 2.3570950051970012 0 -0.6560590369687036 -0.75470957328743171 1 0 0 1 I I -0.70710678118654746 0.70710678118654746 1 forward I I I I #
loop $-1 $-1 $208 $55 #
coedge $-1 $130 $130 $209 $210 reversed $82 $-1 #
face $-1 $-1 $211 $44 $-1 $212 forward single #
loop $-1 $213 $214 $84 #
cone-surface $-1 -16.655893379685164 17.92846093292529 2.3570950051970012 0 -0.6560590369687036 -0.75470957328743171 1 0 0 1 I I -0.70710678118654746 0.70710678118654746 1 forward I I I I #
loop $-1 $-1 $215 $56 #
coedge $-1 $135 $135 $216 $217 reversed $85 $-1 #
face $-1 $218 $219 $45 $-1 $220 reversed single #
loop $-1 $-1 $221 $87 #
plane-surface $-1 21.528901842504808 -13.152866233505378 34.785601579133129 0 0.6560590369687036 0.75470957328743171 1 0 0 forward_v I I I I #
coedge $-1 $222 $223 $224 $225 reversed $88 $-1 #
face $-1 $-1 $226 $46 $-1 $227 forward single #
loop $-1 $228 $229 $90 #
cone-surface $-1 18.092037820234339 17.92846093292529 2.3570950051970012 0 -0.6560590369687036 -0.75470957328743171 1 0 0 1 I I -0.70710678118654746 0.70710678118654746 1 forward I I I I #
loop $-1 $-1 $230 $58 #
coedge $-1 $144 $144 $231 $232 reversed $91 $-1 #
face $-1 $-1 $233 $47 $-1 $234 forward single #
loop $-1 $235 $236 $93 #
cone-surface $-1 24.965765864775278 17.92846093292529 2.3570950051970012 0 -0.6560590369687036 -0.75470957328743171 1 0 0 1 I I -0.70710678118654746 0.70710678118654746 1 forward I I I I #
loop $-1 $-1 $237 $59 #
coedge $-1 $149 $149 $238 $239 reversed $94 $-1 #
face $-1 $240 $241 $36 $-1 $242 reversed single #
loop $-1 $-1 $243 $96 #
plane-surface $-1 0 -25.819340167993595 0 0 1 0 0 0 1 forward_v I I I I #
coedge $-1 $244 $245 $246 $247 forward $97 $-1 #
coedge $-1 $248 $99 $249 $250 forward $61 $-1 #
coedge $-1 $99 $248 $251 $252 forward $61 $-1 #
coedge $-1 $253 $254 $99 $157 reversed $255 $-1 #
edge $-1 $256 -25.819340167993595 $257 25.819340167993595 $156 $258 forward 7 unknown #
face $-1 $259 $260 $37 $-1 $261 reversed single #
loop $-1 $-1 $164 $100 #
plane-surface $-1 -48.437241478828227 0 -3.4251454275195896 0 0 1 1 0 0 forward_v I I I I #
coedge $-1 $262 $263 $163 $264 forward $101 $-1 #
coedge $-1 $265 $103 $266 $267 reversed $64 $-1 #
coedge $-1 $103 $265 $161 $264 reversed $64 $-1 #
coedge $-1 $268 $269 $103 $165 reversed $159 $-1 #
edge $-1 $270 -25.819340167993595 $271 25.819340167993595 $164 $272 forward 7 unknown #
face $-1 $273 $274 $38 $-1 $275 reversed single #
loop $-1 $-1 $276 $104 #
plane-surface $-1 -32.215534412453906 -102.19362018200209 53.104970159434203 1 0 0 0 0.84804810408105047 -0.52991925155115449 forward_v I I I I #
coedge $-1 $277 $278 $279 $280 reversed $105 $-1 #
coedge $-1 $171 $107 $281 $282 reversed $67 $-1 #
coedge $-1 $107 $170 $277 $283 reversed $67 $-1 #
coedge $-1 $279 $284 $107 $173 forward $285 $-1 #
edge $-1 $286 25.277469923007452 $287 28.144634250308755 $172 $288 forward 7 unknown #
loop $-1 $-1 $179 $108 #
plane-surface $-1 -23.481108484547139 -25.819340167993587 5.3810248926293411 0 -0.84804810408105047 0.52991925155115449 1 0 0 forward_v I I I I #
loop $-1 $-1 $289 $69 #
coedge $-1 $177 $177 $178 $290 reversed $109 $-1 #
coedge $-1 $178 $178 $177 $290 forward $111 $-1 #
coedge $-1 $179 $179 $112 $180 forward $174 $-1 #
edge $-1 $291 1.8834387509164638e-015 $291 6.2831853071796022 $179 $292 forward 7 unknown #
face $-1 $293 $294 $40 $-1 $295 reversed single #
loop $-1 $-1 $296 $113 #
plane-surface $-1 9.4061248320065403 -102.19362018200209 53.104970159434203 1 0 0 0 0.84804810408105047 -0.52991925155115449 forward_v I I I I #
coedge $-1 $297 $298 $299 $300 reversed $114 $-1 #
coedge $-1 $186 $116 $301 $302 reversed $73 $-1 #
coedge $-1 $116 $185 $297 $303 reversed $73 $-1 #
coedge $-1 $299 $304 $116 $188 forward $305 $-1 #
edge $-1 $306 25.277469923007452 $307 28.144634250308755 $187 $308 forward 7 unknown #
loop $-1 $-1 $194 $117 #
plane-surface $-1 18.14055075991331 -25.819340167993587 5.3810248926293411 0 -0.84804810408105047 0.52991925155115449 1 0 0 forward_v I I I I #
loop $-1 $-1 $309 $75 #
coedge $-1 $192 $192 $193 $310 reversed $118 $-1 #
coedge $-1 $193 $193 $192 $310 forward $120 $-1 #
coedge $-1 $194 $194 $121 $195 forward $189 $-1 #
edge $-1 $311 1.8834387509164638e-015 $311 6.2831853071796022 $194 $312 forward 7 unknown #
face $-1 $313 $314 $42 $-1 $315 forward single #
loop $-1 $-1 $316 $122 #
plane-surface $-1 -12.073408016657865 45.931089445475472 102.7539161147415 -1 0 0 0 0.6560590369687036 0.75470957328743171 forward_v I I I I #
coedge $-1 $317 $318 $319 $320 reversed $123 $-1 #
coedge $-1 $201 $125 $321 $322 reversed $79 $-1 #
coedge $-1 $125 $200 $317 $323 reversed $79 $-1 #
coedge $-1 $319 $324 $125 $203 forward $314 $-1 #
edge $-1 $325 -2.8537954452558587 $326 7.5706914857799319 $202 $327 forward 7 unknown #
loop $-1 $-1 $209 $126 #
plane-surface $-1 -20.092757401955637 -13.152866233505378 34.785601579133129 0 0.6560590369687036 0.75470957328743171 1 0 0 forward_v I I I I #
loop $-1 $-1 $328 $81 #
coedge $-1 $207 $207 $208 $329 reversed $127 $-1 #
coedge $-1 $208 $208 $207 $329 forward $129 $-1 #
coedge $-1 $209 $209 $130 $210 forward $204 $-1 #
edge $-1 $330 -8.1706440404325106e-016 $330 6.2831853071795996 $209 $331 forward 7 unknown #
loop $-1 $-1 $216 $131 #
plane-surface $-1 -20.092757401955637 -13.152866233505378 34.785601579133129 0 0.6560590369687036 0.75470957328743171 1 0 0 forward_v I I I I #
loop $-1 $-1 $332 $84 #
coedge $-1 $214 $214 $215 $333 reversed $132 $-1 #
coedge $-1 $215 $215 $214 $333 forward $134 $-1 #
coedge $-1 $216 $216 $135 $217 forward $211 $-1 #
edge $-1 $334 -8.1706440404325106e-016 $334 6.2831853071795996 $216 $335 forward 7 unknown #
face $-1 $336 $337 $45 $-1 $338 forward single #
loop $-1 $-1 $339 $136 #
plane-surface $-1 29.548251227802581 45.931089445475472 102.7539161147415 -1 0 0 0 0.6560590369687036 0.75470957328743171 forward_v I I I I #
coedge $-1 $340 $341 $342 $343 reversed $137 $-1 #
coedge $-1 $223 $139 $344 $345 reversed $88 $-1 #
coedge $-1 $139 $222 $340 $346 reversed $88 $-1 #
coedge $-1 $342 $347 $139 $225 forward $337 $-1 #
edge $-1 $348 -2.8537954452558587 $349 7.5706914857799319 $224 $350 forward 7 unknown #
loop $-1 $-1 $231 $140 #
plane-surface $-1 21.528901842504808 -13.152866233505378 34.785601579133129 0 0.6560590369687036 0.75470957328743171 1 0 0 forward_v I I I I #
loop $-1 $-1 $351 $90 #
coedge $-1 $229 $229 $230 $352 reversed $141 $-1 #
coedge $-1 $230 $230 $229 $352 forward $143 $-1 #
coedge $-1 $231 $231 $144 $232 forward $226 $-1 #
edge $-1 $353 -8.1706440404325106e-016 $353 6.2831853071795996 $231 $354 forward 7 unknown #
loop $-1 $-1 $238 $145 #
plane-surface $-1 21.528901842504808 -13.152866233505378 34.785601579133129 0 0.6560590369687036 0.75470957328743171 1 0 0 forward_v I I I I #
loop $-1 $-1 $355 $93 #
coedge $-1 $236 $236 $237 $356 reversed $146 $-1 #
coedge $-1 $237 $237 $236 $356 forward $148 $-1 #
coedge $-1 $238 $238 $149 $239 forward $233 $-1 #
edge $-1 $357 -8.1706440404325106e-016 $357 6.2831853071795996 $238 $358 forward 7 unknown #
face $-1 $359 $360 $36 $-1 $361 reversed single #
loop $-1 $-1 $362 $150 #
plane-surface $-1 -45.029450361644336 0 0 1 0 0 0 0 -1 forward_v I I I I #
coedge $-1 $363 $251 $362 $364 forward $151 $-1 #
coedge $-1 $365 $153 $363 $366 forward $97 $-1 #
coedge $-1 $153 $365 $367 $368 forward $97 $-1 #
coedge $-1 $254 $253 $153 $247 reversed $255 $-1 #
edge $-1 $369 -25.819340167993595 $370 25.819340167993595 $246 $371 forward 7 unknown #
coedge $-1 $155 $154 $372 $373 forward $61 $-1 #
coedge $-1 $374 $375 $154 $250 reversed $360 $-1 #
edge $-1 $257 -45.029450361644336 $376 45.029450361644336 $249 $377 forward 7 unknown #
coedge $-1 $243 $378 $155 $252 reversed $151 $-1 #
edge $-1 $379 -45.029450361644336 $256 45.029450361644336 $251 $380 forward 7 unknown #
coedge $-1 $246 $156 $378 $381 forward $255 $-1 #
coedge $-1 $156 $246 $374 $382 reversed $255 $-1 #
loop $-1 $-1 $253 $359 #
vertex $-1 $157 $383 #
vertex $-1 $157 $384 #
straight-curve $-1 45.029450361644336 0 9.9694471187314004 0 1 0 I I #
face $-1 $385 $386 $37 $-1 $387 reversed single #
loop $-1 $-1 $388 $158 #
plane-surface $-1 -48.437241478828227 0 -8.1291959021649998 0 0 1 1 0 0 forward_v I I I I #
coedge $-1 $389 $161 $390 $391 reversed $101 $-1 #
coedge $-1 $161 $389 $268 $392 reversed $101 $-1 #
edge $-1 $270 3.4251454275195896 $393 8.1291959021649998 $161 $394 forward 7 unknown #
coedge $-1 $163 $162 $388 $395 forward $64 $-1 #
coedge $-1 $396 $397 $162 $267 forward $398 $-1 #
edge $-1 $399 -8.1291959021649998 $271 -3.4251454275195896 $266 $400 forward 7 unknown #
coedge $-1 $401 $164 $263 $392 forward $159 $-1 #
coedge $-1 $164 $401 $396 $402 forward $159 $-1 #
vertex $-1 $264 $403 #
vertex $-1 $402 $404 #
straight-curve $-1 -45.029450361644336 0 -3.4251454275195896 0 -1 0 I I #
face $-1 $-1 $285 $38 $-1 $405 forward single #
loop $-1 $-1 $406 $166 #
plane-surface $-1 0 -25.819340167993595 0 0 1 0 0 0 1 forward_v I I I I #
coedge $-1 $407 $408 $409 $410 reversed $167 $-1 #
coedge $-1 $411 $169 $171 $283 forward $105 $-1 #
coedge $-1 $169 $411 $407 $412 forward $105 $-1 #
coedge $-1 $409 $172 $169 $280 forward $285 $-1 #
edge $-1 $287 3.0061283143667996 $413 20.474980170180338 $279 $414 forward 7 unknown #
coedge $-1 $415 $416 $170 $282 forward $274 $-1 #
edge $-1 $417 -21.171460187087771 $286 -16.583037960985699 $281 $418 forward 7 unknown #
edge $-1 $287 -5.4105683439668768 $417 1.3557137071152151e-014 $171 $419 forward 7 unknown #
coedge $-1 $172 $409 $415 $420 forward $285 $-1 #
loop $-1 $-1 $409 $273 #
vertex $-1 $282 $421 #
vertex $-1 $173 $422 #
straight-curve $-1 -14.746682556640369 -51.096810091001046 9.9694471187313987 0 1 0 I I #
coedge $-1 $289 $289 $-1 $423 reversed $176 $-1 #
edge $-1 $424 0 $424 6.2831853071796004 $177 $425 forward 7 unknown #
vertex $-1 $180 $426 #
ellipse-curve $-1 -23.481108484547139 -24.385758004342943 7.6752360056803663 0 -0.84804810408105047 0.52991925155115449 1 0 0 1 I I #
face $-1 $-1 $305 $40 $-1 $427 forward single #
loop $-1 $-1 $428 $181 #
plane-surface $-1 0 -25.819340167993595 0 0 1 0 0 0 1 forward_v I I I I #
coedge $-1 $429 $430 $431 $432 reversed $182 $-1 #
coedge $-1 $433 $184 $186 $303 forward $114 $-1 #
coedge $-1 $184 $433 $429 $434 forward $114 $-1 #
coedge $-1 $431 $187 $184 $300 forward $305 $-1 #
edge $-1 $307 -17.804701307863425 $435 -0.33584945204988514 $299 $436 forward 7 unknown #
coedge $-1 $437 $438 $185 $302 forward $294 $-1 #
edge $-1 $439 -21.171460187087771 $306 -16.583037960985699 $301 $440 forward 7 unknown #
edge $-1 $307 -5.4105683439668768 $439 1.3557137071152151e-014 $186 $441 forward 7 unknown #
coedge $-1 $187 $431 $437 $442 forward $305 $-1 #
loop $-1 $-1 $431 $293 #
vertex $-1 $302 $443 #
vertex $-1 $188 $444 #
straight-curve $-1 26.87497668782008 -51.096810091001046 9.9694471187313987 0 1 0 I I #
coedge $-1 $309 $309 $-1 $445 reversed $191 $-1 #
edge $-1 $446 0 $446 6.2831853071796004 $192 $447 forward 7 unknown #
vertex $-1 $195 $448 #
ellipse-curve $-1 18.14055075991331 -24.385758004342943 7.6752360056803663 0 -0.84804810408105047 0.52991925155115449 1 0 0 1 I I #
face $-1 $-1 $449 $42 $-1 $450 reversed single #
loop $-1 $-1 $202 $196 #
plane-surface $-1 0 0 9.9694471187314004 0 0 1 1 0 0 forward_v I I I I #
coedge $-1 $451 $452 $453 $454 reversed $197 $-1 #
coedge $-1 $455 $199 $201 $323 forward $123 $-1 #
coedge $-1 $199 $455 $451 $456 forward $123 $-1 #
coedge $-1 $453 $202 $199 $320 forward $314 $-1 #
edge $-1 $326 -18.065728086275591 $457 -2.0270293156800463 $319 $458 forward 7 unknown #
coedge $-1 $459 $460 $200 $322 forward $449 $-1 #
edge $-1 $461 -50.469379369800102 $325 -41.407510938639348 $321 $462 forward 7 unknown #
edge $-1 $326 37.826099576440328 $461 51.638680335987182 $201 $463 forward 7 unknown #
coedge $-1 $202 $453 $459 $464 forward $314 $-1 #
vertex $-1 $203 $465 #
vertex $-1 $203 $466 #
straight-curve $-1 -28.11210678725341 22.965544722737736 9.9694471187314022 0 -1 0 I I #
coedge $-1 $328 $328 $-1 $467 reversed $206 $-1 #
edge $-1 $468 0 $468 6.2831853071796004 $207 $469 forward 7 unknown #
vertex $-1 $210 $470 #
ellipse-curve $-1 -23.529621424226111 20.607096702475701 5.4385129031510209 0 0.6560590369687036 0.75470957328743171 2 0 0 1 I I #
coedge $-1 $332 $332 $-1 $471 reversed $213 $-1 #
edge $-1 $472 0 $472 6.2831853071796004 $214 $473 forward 7 unknown #
vertex $-1 $217 $474 #
ellipse-curve $-1 -16.655893379685164 20.607096702475701 5.4385129031510209 0 0.6560590369687036 0.75470957328743171 2 0 0 1 I I #
face $-1 $-1 $475 $45 $-1 $476 reversed single #
loop $-1 $-1 $224 $218 #
plane-surface $-1 0 0 9.9694471187314004 0 0 1 1 0 0 forward_v I I I I #
coedge $-1 $477 $478 $479 $480 reversed $219 $-1 #
coedge $-1 $481 $221 $223 $346 forward $137 $-1 #
coedge $-1 $221 $481 $477 $482 forward $137 $-1 #
coedge $-1 $479 $224 $221 $343 forward $337 $-1 #
edge $-1 $349 2.7451015359546318 $483 18.783800306550177 $342 $484 forward 7 unknown #
coedge $-1 $485 $486 $222 $345 forward $475 $-1 #
edge $-1 $487 -50.469379369800102 $348 -41.407510938639348 $344 $488 forward 7 unknown #
edge $-1 $349 37.826099576440328 $487 51.638680335987182 $223 $489 forward 7 unknown #
coedge $-1 $224 $479 $485 $490 forward $337 $-1 #
vertex $-1 $225 $491 #
vertex $-1 $225 $492 #
straight-curve $-1 13.509552457207036 22.965544722737736 9.9694471187314022 0 -1 0 I I #
coedge $-1 $351 $351 $-1 $493 reversed $228 $-1 #
edge $-1 $494 0 $494 6.2831853071796004 $229 $495 forward 7 unknown #
vertex $-1 $232 $496 #
ellipse-curve $-1 18.092037820234339 20.607096702475701 5.4385129031510209 0 0.6560590369687036 0.75470957328743171 2 0 0 1 I I #
coedge $-1 $355 $355 $-1 $497 reversed $235 $-1 #
edge $-1 $498 0 $498 6.2831853071796004 $236 $499 forward 7 unknown #
vertex $-1 $239 $500 #
ellipse-curve $-1 24.965765864775278 20.607096702475701 5.4385129031510209 0 0.6560590369687036 0.75470957328743171 2 0 0 1 I I #
face $-1 $-1 $255 $36 $-1 $501 reversed single #
loop $-1 $-1 $374 $240 #
plane-surface $-1 0 25.819340167993595 0 0 -1 0 0 0 -1 forward_v I I I I #
coedge $-1 $372 $502 $243 $364 reversed $241 $-1 #
coedge $-1 $378 $243 $244 $366 reversed $151 $-1 #
edge $-1 $379 -9.9694471187314004 $503 9.9694471187314004 $362 $504 forward 7 unknown #
coedge $-1 $245 $244 $502 $505 forward $97 $-1 #
edge $-1 $370 -45.029450361644336 $503 45.029450361644336 $363 $506 forward 7 unknown #
coedge $-1 $375 $374 $245 $368 reversed $360 $-1 #
edge $-1 $507 -45.029450361644336 $369 45.029450361644336 $367 $508 forward 7 unknown #
vertex $-1 $247 $509 #
vertex $-1 $381 $510 #
straight-curve $-1 45.029450361644336 0 -9.9694471187314004 0 -1 0 I I #
coedge $-1 $511 $362 $248 $373 reversed $241 $-1 #
edge $-1 $376 -25.819340167993595 $379 25.819340167993595 $372 $512 forward 7 unknown #
coedge $-1 $367 $249 $254 $382 forward $360 $-1 #
coedge $-1 $249 $367 $511 $513 reversed $360 $-1 #
vertex $-1 $250 $514 #
straight-curve $-1 0 25.819340167993595 9.9694471187314004 -1 0 0 I I #
coedge $-1 $251 $363 $253 $381 reversed $151 $-1 #
vertex $-1 $373 $515 #
straight-curve $-1 0 -25.819340167993595 9.9694471187314004 1 0 0 I I #
edge $-1 $256 -9.9694471187314004 $370 9.9694471187314004 $253 $516 forward 7 unknown #
edge $-1 $257 -9.9694471187314004 $369 9.9694471187314004 $254 $517 forward 7 unknown #
point $-1 45.029450361644336 -25.819340167993595 9.9694471187314004 #
point $-1 45.029450361644336 25.819340167993595 9.9694471187314004 #
face $-1 $-1 $398 $37 $-1 $518 reversed single #
loop $-1 $-1 $519 $259 #
plane-surface $-1 -51.845032596012118 0 -5.7771706648422949 1 0 0 0 0 -1 forward_v I I I I #
coedge $-1 $520 $390 $265 $395 reversed $260 $-1 #
coedge $-1 $263 $262 $519 $521 reversed $101 $-1 #
coedge $-1 $388 $522 $262 $391 forward $260 $-1 #
edge $-1 $523 -3.4077911171838906 $393 3.4077911171838906 $262 $524 forward 7 unknown #
edge $-1 $270 -3.4077911171838906 $525 3.4077911171838906 $263 $526 forward 7 unknown #
vertex $-1 $264 $527 #
straight-curve $-1 -45.029450361644336 25.819340167993595 0 0 0 -1 I I #
edge $-1 $399 -25.819340167993595 $393 25.819340167993595 $388 $528 forward 7 unknown #
coedge $-1 $529 $266 $269 $402 reversed $398 $-1 #
coedge $-1 $266 $529 $520 $530 reversed $398 $-1 #
loop $-1 $-1 $266 $385 #
vertex $-1 $267 $531 #
straight-curve $-1 -45.029450361644336 -25.819340167993595 0 0 0 1 I I #
coedge $-1 $269 $268 $532 $533 forward $159 $-1 #
edge $-1 $534 -3.4077911171838906 $271 3.4077911171838906 $396 $535 forward 7 unknown #
point $-1 -45.029450361644336 25.819340167993595 -3.4251454275195896 #
point $-1 -45.029450361644336 -25.819340167993595 -3.4251454275195896 #
plane-surface $-1 0 0 9.9694471187314004 0 0 1 1 0 0 forward_v I I I I #
coedge $-1 $416 $415 $408 $536 forward $274 $-1 #
coedge $-1 $408 $276 $278 $412 reversed $167 $-1 #
coedge $-1 $276 $407 $406 $536 reversed $167 $-1 #
coedge $-1 $284 $279 $276 $410 forward $285 $-1 #
edge $-1 $413 -28.144634250308755 $537 -25.277469923007452 $409 $538 forward 7 unknown #
coedge $-1 $278 $277 $416 $539 reversed $105 $-1 #
edge $-1 $540 -1.3557137071152151e-014 $413 5.4105683439668768 $407 $541 forward 7 unknown #
vertex $-1 $280 $542 #
straight-curve $-1 -11.74055424227357 -22.952175840692291 9.9694471187314004 -1 0 0 I I #
coedge $-1 $406 $281 $284 $420 reversed $274 $-1 #
coedge $-1 $281 $406 $411 $539 forward $274 $-1 #
vertex $-1 $282 $543 #
straight-curve $-1 -14.746682556640369 -25.819340167993595 26.552485079717101 0 0 1 I I #
straight-curve $-1 -14.746682556640369 -25.819340167993587 5.3810248926293411 0 -0.52991925155115449 -0.84804810408105047 I I #
edge $-1 $537 -32.215534412453906 $286 -14.746682556640369 $415 $544 forward 7 unknown #
point $-1 -14.746682556640369 -25.819340167993595 9.9694471187314004 #
point $-1 -14.746682556640369 -22.952175840692291 9.9694471187314004 #
edge $-1 $545 1 $545 0 $289 $-1 forward 7 unknown #
vertex $-1 $290 $546 #
ellipse-curve $-1 -23.481108484547139 -21.781414104402035 6.0478613749287602 0 -0.84804810408105047 0.52991925155115449 1 0 0 1 I I #
point $-1 -22.481108484547139 -24.385758004342946 7.6752360056803708 #
plane-surface $-1 0 0 9.9694471187314004 0 0 1 1 0 0 forward_v I I I I #
coedge $-1 $438 $437 $430 $547 forward $294 $-1 #
coedge $-1 $430 $296 $298 $434 reversed $182 $-1 #
coedge $-1 $296 $429 $428 $547 reversed $182 $-1 #
coedge $-1 $304 $299 $296 $432 forward $305 $-1 #
edge $-1 $435 -28.144634250308755 $548 -25.277469923007452 $431 $549 forward 7 unknown #
coedge $-1 $298 $297 $438 $550 reversed $114 $-1 #
edge $-1 $551 -1.3557137071152151e-014 $435 5.4105683439668768 $429 $552 forward 7 unknown #
vertex $-1 $300 $553 #
straight-curve $-1 9.0702753799566551 -22.952175840692291 9.9694471187314004 -1 0 0 I I #
coedge $-1 $428 $301 $304 $442 reversed $294 $-1 #
coedge $-1 $301 $428 $433 $550 forward $294 $-1 #
vertex $-1 $302 $554 #
straight-curve $-1 26.87497668782008 -25.819340167993595 26.552485079717101 0 0 1 I I #
straight-curve $-1 26.87497668782008 -25.819340167993587 5.3810248926293411 0 -0.52991925155115449 -0.84804810408105047 I I #
edge $-1 $548 9.4061248320065403 $306 26.87497668782008 $437 $555 forward 7 unknown #
point $-1 26.87497668782008 -25.819340167993595 9.9694471187314004 #
point $-1 26.87497668782008 -22.952175840692291 9.9694471187314004 #
edge $-1 $556 1 $556 0 $309 $-1 forward 7 unknown #
vertex $-1 $310 $557 #
ellipse-curve $-1 18.14055075991331 -21.781414104402035 6.0478613749287602 0 -0.84804810408105047 0.52991925155115449 1 0 0 1 I I #
point $-1 19.14055075991331 -24.385758004342946 7.6752360056803708 #
loop $-1 $-1 $321 $313 #
plane-surface $-1 0 25.819340167993595 0 0 -1 0 0 0 -1 forward_v I I I I #
coedge $-1 $452 $316 $318 $456 reversed $197 $-1 #
coedge $-1 $316 $451 $558 $559 reversed $197 $-1 #
coedge $-1 $324 $319 $316 $454 forward $314 $-1 #
edge $-1 $457 -7.5706914857799319 $560 2.8537954452558587 $453 $561 forward 7 unknown #
coedge $-1 $318 $317 $460 $562 reversed $123 $-1 #
edge $-1 $563 -51.638680335987182 $457 -37.826099576440328 $451 $564 forward 7 unknown #
vertex $-1 $320 $565 #
straight-curve $-1 -10.046378700977819 15.394853236957802 9.9694471187313987 1 0 0 I I #
coedge $-1 $558 $321 $324 $464 reversed $449 $-1 #
coedge $-1 $321 $558 $455 $562 forward $449 $-1 #
vertex $-1 $322 $566 #
straight-curve $-1 -28.11210678725341 25.819340167993595 51.37695805737075 0 0 1 I I #
straight-curve $-1 -28.11210678725341 -13.152866233505378 34.785601579133129 0 0.75470957328743171 -0.6560590369687036 I I #
edge $-1 $560 12.073408016657865 $325 28.11210678725341 $459 $567 forward 7 unknown #
point $-1 -28.11210678725341 25.819340167993595 9.9694471187314004 #
point $-1 -28.11210678725341 15.394853236957804 9.9694471187313987 #
edge $-1 $568 1 $568 0 $328 $-1 forward 7 unknown #
vertex $-1 $329 $569 #
ellipse-curve $-1 -23.529621424226111 18.584519969893993 3.111804578484433 0 0.6560590369687036 0.75470957328743171 2 0 0 1 I I #
point $-1 -21.529621424226111 20.60709670247569 5.4385129031510111 #
edge $-1 $570 1 $570 0 $332 $-1 forward 7 unknown #
vertex $-1 $333 $571 #
ellipse-curve $-1 -16.655893379685164 18.584519969893993 3.111804578484433 0 0.6560590369687036 0.75470957328743171 2 0 0 1 I I #
point $-1 -14.655893379685164 20.60709670247569 5.4385129031510111 #
loop $-1 $-1 $344 $336 #
plane-surface $-1 0 25.819340167993595 0 0 -1 0 0 0 -1 forward_v I I I I #
coedge $-1 $478 $339 $341 $482 reversed $219 $-1 #
coedge $-1 $339 $477 $572 $573 reversed $219 $-1 #
coedge $-1 $347 $342 $339 $480 forward $337 $-1 #
edge $-1 $483 -7.5706914857799319 $574 2.8537954452558587 $479 $575 forward 7 unknown #
coedge $-1 $341 $340 $486 $576 reversed $137 $-1 #
edge $-1 $577 -51.638680335987182 $483 -37.826099576440328 $477 $578 forward 7 unknown #
vertex $-1 $343 $579 #
straight-curve $-1 10.764450921252404 15.394853236957802 9.9694471187313987 1 0 0 I I #
coedge $-1 $572 $344 $347 $490 reversed $475 $-1 #
coedge $-1 $344 $572 $481 $576 forward $475 $-1 #
vertex $-1 $345 $580 #
straight-curve $-1 13.509552457207036 25.819340167993595 51.37695805737075 0 0 1 I I #
straight-curve $-1 13.509552457207036 -13.152866233505378 34.785601579133129 0 0.75470957328743171 -0.6560590369687036 I I #
edge $-1 $574 -29.548251227802581 $348 -13.509552457207036 $485 $581 forward 7 unknown #
point $-1 13.509552457207036 25.819340167993595 9.9694471187314004 #
point $-1 13.509552457207036 15.394853236957804 9.9694471187313987 #
edge $-1 $582 1 $582 0 $351 $-1 forward 7 unknown #
vertex $-1 $352 $583 #
ellipse-curve $-1 18.092037820234339 18.584519969893993 3.111804578484433 0 0.6560590369687036 0.75470957328743171 2 0 0 1 I I #
point $-1 20.092037820234339 20.60709670247569 5.4385129031510111 #
edge $-1 $584 1 $584 0 $355 $-1 forward 7 unknown #
vertex $-1 $356 $585 #
ellipse-curve $-1 24.965765864775278 18.584519969893993 3.111804578484433 0 0.6560590369687036 0.75470957328743171 2 0 0 1 I I #
point $-1 26.965765864775278 20.60709670247569 5.4385129031510111 #
plane-surface $-1 45.029450361644336 0 0 -1 0 0 0 0 1 forward_v I I I I #
coedge $-1 $362 $511 $365 $505 reversed $241 $-1 #
vertex $-1 $505 $586 #
straight-curve $-1 -45.029450361644336 -25.819340167993595 0 0 0 -1 I I #
edge $-1 $503 -25.819340167993595 $507 25.819340167993595 $502 $587 forward 7 unknown #
straight-curve $-1 0 -25.819340167993595 -9.9694471187314004 -1 0 0 I I #
vertex $-1 $368 $588 #
straight-curve $-1 0 25.819340167993595 -9.9694471187314004 1 0 0 I I #
point $-1 45.029450361644336 25.819340167993595 -9.9694471187314004 #
point $-1 45.029450361644336 -25.819340167993595 -9.9694471187314004 #
coedge $-1 $502 $372 $375 $513 forward $241 $-1 #
straight-curve $-1 -45.029450361644336 0 9.9694471187314004 0 -1 0 I I #
edge $-1 $376 -9.9694471187314004 $507 9.9694471187314004 $375 $589 forward 7 unknown #
point $-1 -45.029450361644336 25.819340167993595 9.9694471187314004 #
point $-1 -45.029450361644336 -25.819340167993595 9.9694471187314004 #
straight-curve $-1 45.029450361644336 -25.819340167993595 0 0 0 -1 I I #
straight-curve $-1 45.029450361644336 25.819340167993595 0 0 0 -1 I I #
plane-surface $-1 0 -25.819340167993595 0 0 1 0 0 0 1 forward_v I I I I #
coedge $-1 $590 $532 $389 $521 forward $386 $-1 #
coedge $-1 $522 $388 $397 $530 forward $260 $-1 #
edge $-1 $525 -2.3520252373227053 $523 2.3520252373227049 $389 $591 forward 7 unknown #
coedge $-1 $390 $520 $590 $592 forward $260 $-1 #
vertex $-1 $391 $593 #
straight-curve $-1 -48.437241478828227 25.819340167993595 -8.1291959021649998 1 0 0 I I #
vertex $-1 $392 $594 #
straight-curve $-1 -48.437241478828227 25.819340167993595 -3.4251454275195896 -1 0 0 I I #
point $-1 -45.029450361644336 25.819340167993595 -8.1291959021649998 #
straight-curve $-1 -45.029450361644336 0 -8.1291959021649998 0 1 0 I I #
coedge $-1 $397 $396 $595 $596 forward $398 $-1 #
edge $-1 $399 -3.4077911171838906 $597 3.4077911171838906 $397 $598 forward 7 unknown #
point $-1 -45.029450361644336 -25.819340167993595 -8.1291959021649998 #
coedge $-1 $519 $595 $401 $533 reversed $386 $-1 #
edge $-1 $525 -25.819340167993595 $534 25.819340167993595 $532 $599 forward 7 unknown #
vertex $-1 $533 $600 #
straight-curve $-1 -48.437241478828227 -25.819340167993595 -3.4251454275195896 1 0 0 I I #
edge $-1 $537 16.583037960985699 $540 21.171460187087771 $406 $601 forward 7 unknown #
vertex $-1 $420 $602 #
straight-curve $-1 -32.215534412453906 -51.096810091001046 9.9694471187313987 0 -1 0 I I #
edge $-1 $540 -20.474980170180338 $417 -3.0061283143667996 $416 $603 forward 7 unknown #
vertex $-1 $539 $604 #
straight-curve $-1 -32.215534412453906 -25.819340167993587 5.3810248926293411 0 0.52991925155115449 0.84804810408105047 I I #
point $-1 -32.215534412453906 -22.952175840692291 9.9694471187314004 #
point $-1 -14.746682556640369 -25.819340167993595 5.3810248926293296 #
straight-curve $-1 0 -25.819340167993595 9.9694471187314004 1 0 0 I I #
vertex $-1 $423 $605 #
point $-1 -22.481108484547139 -21.781414104402035 6.0478613749287602 #
edge $-1 $548 16.583037960985699 $551 21.171460187087771 $428 $606 forward 7 unknown #
vertex $-1 $442 $607 #
straight-curve $-1 9.4061248320065403 -51.096810091001046 9.9694471187313987 0 -1 0 I I #
edge $-1 $551 0.33584945204988514 $439 17.804701307863425 $438 $608 forward 7 unknown #
vertex $-1 $550 $609 #
straight-curve $-1 9.4061248320065403 -25.819340167993587 5.3810248926293411 0 0.52991925155115449 0.84804810408105047 I I #
point $-1 9.4061248320065403 -22.952175840692291 9.9694471187314004 #
point $-1 26.87497668782008 -25.819340167993595 5.3810248926293296 #
straight-curve $-1 0 -25.819340167993595 9.9694471187314004 1 0 0 I I #
vertex $-1 $445 $610 #
point $-1 19.14055075991331 -21.781414104402035 6.0478613749287602 #
coedge $-1 $460 $459 $452 $559 forward $449 $-1 #
edge $-1 $560 41.407510938639348 $563 50.469379369800102 $558 $611 forward 7 unknown #
vertex $-1 $464 $612 #
straight-curve $-1 -12.073408016657865 22.965544722737736 9.9694471187314022 0 1 0 I I #
edge $-1 $563 2.0270293156800463 $461 18.065728086275591 $460 $613 forward 7 unknown #
vertex $-1 $562 $614 #
straight-curve $-1 -12.073408016657865 -13.152866233505378 34.785601579133129 0 -0.75470957328743171 0.6560590369687036 I I #
point $-1 -12.073408016657865 15.394853236957804 9.9694471187313987 #
point $-1 -28.11210678725341 25.819340167993595 0.90757868757064841 #
straight-curve $-1 0 25.819340167993595 9.9694471187314004 -1 0 0 I I #
vertex $-1 $467 $615 #
point $-1 -21.529621424226111 18.584519969893993 3.111804578484433 #
vertex $-1 $471 $616 #
point $-1 -14.655893379685164 18.584519969893993 3.111804578484433 #
coedge $-1 $486 $485 $478 $573 forward $475 $-1 #
edge $-1 $574 41.407510938639348 $577 50.469379369800102 $572 $617 forward 7 unknown #
vertex $-1 $490 $618 #
straight-curve $-1 29.548251227802581 22.965544722737736 9.9694471187314022 0 1 0 I I #
edge $-1 $577 -18.783800306550177 $487 -2.7451015359546318 $486 $619 forward 7 unknown #
vertex $-1 $576 $620 #
straight-curve $-1 29.548251227802581 -13.152866233505378 34.785601579133129 0 -0.75470957328743171 0.6560590369687036 I I #
point $-1 29.548251227802581 15.394853236957804 9.9694471187313987 #
point $-1 13.509552457207036 25.819340167993595 0.90757868757064841 #
straight-curve $-1 0 25.819340167993595 9.9694471187314004 -1 0 0 I I #
vertex $-1 $493 $621 #
point $-1 20.092037820234339 18.584519969893993 3.111804578484433 #
vertex $-1 $497 $622 #
point $-1 26.965765864775278 18.584519969893993 3.111804578484433 #
point $-1 -45.029450361644336 -25.819340167993595 -9.9694471187314004 #
straight-curve $-1 -45.029450361644336 0 -9.9694471187314004 0 1 0 I I #
point $-1 -45.029450361644336 25.819340167993595 -9.9694471187314004 #
straight-curve $-1 -45.029450361644336 25.819340167993595 0 0 0 -1 I I #
coedge $-1 $595 $519 $522 $592 reversed $386 $-1 #
straight-curve $-1 -51.845032596012118 25.819340167993595 -5.7771706648422949 0 0 -1 I I #
edge $-1 $597 -25.819340167993595 $523 25.819340167993595 $590 $623 forward 7 unknown #
point $-1 -51.845032596012118 25.819340167993595 -8.1291959021649998 #
point $-1 -51.845032596012118 25.819340167993595 -3.4251454275195896 #
coedge $-1 $532 $590 $529 $596 reversed $386 $-1 #
edge $-1 $534 -2.3520252373227053 $597 2.3520252373227049 $595 $624 forward 7 unknown #
vertex $-1 $592 $625 #
straight-curve $-1 -48.437241478828227 -25.819340167993595 -8.1291959021649998 -1 0 0 I I #
straight-curve $-1 -51.845032596012118 0 -3.4251454275195896 0 -1 0 I I #
point $-1 -51.845032596012118 -25.819340167993595 -3.4251454275195896 #
straight-curve $-1 -32.215534412453906 -25.819340167993595 26.552485079717101 0 0 -1 I I #
point $-1 -32.215534412453906 -25.819340167993595 9.9694471187314004 #
straight-curve $-1 -11.74055424227357 -25.819340167993595 5.3810248926293287 1 0 0 I I #
point $-1 -32.215534412453906 -25.819340167993595 5.3810248926293296 #
point $-1 -23.481108484547139 -20.933366000320984 5.5179421233776056 #
straight-curve $-1 9.4061248320065403 -25.819340167993595 26.552485079717101 0 0 -1 I I #
point $-1 9.4061248320065403 -25.819340167993595 9.9694471187314004 #
straight-curve $-1 9.0702753799566551 -25.819340167993595 5.3810248926293287 1 0 0 I I #
point $-1 9.4061248320065403 -25.819340167993595 5.3810248926293296 #
point $-1 18.14055075991331 -20.933366000320984 5.5179421233776056 #
straight-curve $-1 -12.073408016657865 25.819340167993595 51.37695805737075 0 0 -1 I I #
point $-1 -12.073408016657865 25.819340167993595 9.9694471187314004 #
straight-curve $-1 -10.046378700977819 25.819340167993595 0.90757868757065552 -1 0 0 I I #
point $-1 -12.073408016657865 25.819340167993595 0.90757868757064841 #
point $-1 -23.529621424226111 17.272401895956587 1.6023854319095694 #
point $-1 -16.655893379685164 17.272401895956587 1.6023854319095694 #
straight-curve $-1 29.548251227802581 25.819340167993595 51.37695805737075 0 0 -1 I I #
point $-1 29.548251227802581 25.819340167993595 9.9694471187314004 #
straight-curve $-1 10.764450921252404 25.819340167993595 0.90757868757065552 -1 0 0 I I #
point $-1 29.548251227802581 25.819340167993595 0.90757868757064841 #
point $-1 18.092037820234339 17.272401895956587 1.6023854319095694 #
point $-1 24.965765864775278 17.272401895956587 1.6023854319095694 #
straight-curve $-1 -51.845032596012118 0 -8.1291959021649998 0 1 0 I I #
straight-curve $-1 -51.845032596012118 -25.819340167993595 -5.7771706648422949 0 0 -1 I I #
point $-1 -51.845032596012118 -25.819340167993595 -8.1291959021649998 #
End-of-ACIS-data 