500 0 18 0           
7 Unknown 11 ACIS 5.0 NT 24 Fri Mar 26 20:12:05 1999 
-1 9.9999999999999995e-007 1e-010 
body $-1 $18 $-1 $19 #
body $-1 $20 $-1 $21 #
body $-1 $22 $-1 $23 #
body $-1 $24 $-1 $25 #
body $-1 $26 $-1 $27 #
body $-1 $28 $-1 $29 #
body $-1 $30 $-1 $31 #
body $-1 $32 $-1 $33 #
body $-1 $34 $-1 $35 #
body $-1 $36 $-1 $37 #
body $-1 $38 $-1 $39 #
body $-1 $40 $-1 $41 #
body $-1 $42 $-1 $43 #
body $-1 $44 $-1 $45 #
body $-1 $46 $-1 $47 #
body $-1 $48 $-1 $49 #
body $-1 $50 $-1 $51 #
body $-1 $52 $-1 $53 #
lump $-1 $-1 $54 $0 #
transform $-1 1 0 0 0 1 0 0 0 1 76.035035248878444 41.763926035624685 17.589359174682691 1 rotate no_reflect no_shear #
lump $-1 $-1 $55 $1 #
transform $-1 1 0 0 0 1 0 0 0 1 76.035035248878444 41.763926035624685 17.589359174682691 1 rotate no_reflect no_shear #
lump $-1 $-1 $56 $2 #
transform $-1 1 0 0 0 1 0 0 0 1 76.035035248878444 41.763926035624685 17.589359174682691 1 rotate no_reflect no_shear #
lump $-1 $-1 $57 $3 #
transform $-1 1 0 0 0 1 0 0 0 1 76.035035248878444 41.763926035624685 17.589359174682691 1 rotate no_reflect no_shear #
lump $-1 $-1 $58 $4 #
transform $-1 1 0 0 0 1 0 0 0 1 76.035035248878444 41.763926035624685 17.589359174682691 1 rotate no_reflect no_shear #
lump $-1 $-1 $59 $5 #
transform $-1 1 0 0 0 1 0 0 0 1 76.035035248878444 41.763926035624685 17.589359174682691 1 rotate no_reflect no_shear #
lump $-1 $-1 $60 $6 #
transform $-1 1 0 0 0 1 0 0 0 1 76.035035248878444 41.763926035624685 17.589359174682691 1 rotate no_reflect no_shear #
lump $-1 $-1 $61 $7 #
transform $-1 1 0 0 0 1 0 0 0 1 76.035035248878444 41.763926035624685 17.589359174682691 1 rotate no_reflect no_shear #
lump $-1 $-1 $62 $8 #
transform $-1 1 0 0 0 1 0 0 0 1 76.035035248878444 41.763926035624685 17.589359174682691 1 rotate no_reflect no_shear #
lump $-1 $-1 $63 $9 #
transform $-1 1 0 0 0 1 0 0 0 1 76.035035248878444 41.763926035624685 17.589359174682691 1 rotate no_reflect no_shear #
lump $-1 $-1 $64 $10 #
transform $-1 1 0 0 0 1 0 0 0 1 76.035035248878444 41.763926035624685 17.589359174682691 1 rotate no_reflect no_shear #
lump $-1 $-1 $65 $11 #
transform $-1 1 0 0 0 1 0 0 0 1 76.035035248878444 41.763926035624685 17.589359174682691 1 rotate no_reflect no_shear #
lump $-1 $-1 $66 $12 #
transform $-1 1 0 0 0 1 0 0 0 1 76.035035248878444 41.763926035624685 17.589359174682691 1 rotate no_reflect no_shear #
lump $-1 $-1 $67 $13 #
transform $-1 1 0 0 0 1 0 0 0 1 76.035035248878444 41.763926035624685 17.589359174682691 1 rotate no_reflect no_shear #
lump $-1 $-1 $68 $14 #
transform $-1 1 0 0 0 1 0 0 0 1 76.035035248878444 41.763926035624685 17.589359174682691 1 rotate no_reflect no_shear #
lump $-1 $-1 $69 $15 #
transform $-1 1 0 0 0 1 0 0 0 1 76.035035248878444 41.763926035624685 17.589359174682691 1 rotate no_reflect no_shear #
lump $-1 $-1 $70 $16 #
transform $-1 1 0 0 0 1 0 0 0 1 76.035035248878444 41.763926035624685 17.589359174682691 1 rotate no_reflect no_shear #
lump $-1 $-1 $71 $17 #
transform $-1 1 0 0 0 1 0 0 0 1 76.035035248878444 41.763926035624685 17.589359174682691 1 rotate no_reflect no_shear #
shell $-1 $-1 $-1 $72 $-1 $18 #
shell $-1 $-1 $-1 $73 $-1 $20 #
shell $-1 $-1 $-1 $74 $-1 $22 #
shell $-1 $-1 $-1 $75 $-1 $24 #
shell $-1 $-1 $-1 $76 $-1 $26 #
shell $-1 $-1 $-1 $77 $-1 $28 #
shell $-1 $-1 $-1 $78 $-1 $30 #
shell $-1 $-1 $-1 $79 $-1 $32 #
shell $-1 $-1 $-1 $80 $-1 $34 #
shell $-1 $-1 $-1 $81 $-1 $36 #
shell $-1 $-1 $-1 $82 $-1 $38 #
shell $-1 $-1 $-1 $83 $-1 $40 #
shell $-1 $-1 $-1 $84 $-1 $42 #
shell $-1 $-1 $-1 $85 $-1 $44 #
shell $-1 $-1 $-1 $86 $-1 $46 #
shell $-1 $-1 $-1 $87 $-1 $48 #
shell $-1 $-1 $-1 $88 $-1 $50 #
shell $-1 $-1 $-1 $89 $-1 $52 #
face $-1 $90 $91 $54 $-1 $92 forward single #
face $-1 $93 $94 $55 $-1 $95 forward single #
face $-1 $96 $97 $56 $-1 $98 reversed single #
face $-1 $99 $100 $57 $-1 $101 forward single #
face $-1 $102 $103 $58 $-1 $104 forward single #
face $-1 $105 $106 $59 $-1 $107 forward single #
face $-1 $108 $109 $60 $-1 $110 reversed single #
face $-1 $111 $112 $61 $-1 $113 forward single #
face $-1 $114 $115 $62 $-1 $116 forward single #
face $-1 $117 $118 $63 $-1 $119 forward single #
face $-1 $120 $121 $64 $-1 $122 reversed single #
face $-1 $123 $124 $65 $-1 $125 forward single #
face $-1 $126 $127 $66 $-1 $128 forward single #
face $-1 $129 $130 $67 $-1 $131 forward single #
face $-1 $132 $133 $68 $-1 $134 reversed single #
face $-1 $135 $136 $69 $-1 $137 forward single #
face $-1 $138 $139 $70 $-1 $140 forward single #
face $-1 $141 $142 $71 $-1 $143 forward single #
face $-1 $144 $145 $54 $-1 $146 reversed single #
loop $-1 $-1 $147 $72 #
plane-surface $-1 0 0 17.589359174682691 0 0 1 1 0 0 forward_v I I I I #
face $-1 $148 $149 $55 $-1 $150 reversed single #
loop $-1 $-1 $151 $73 #
plane-surface $-1 0 -41.763926035624685 0 0 1 0 0 0 1 forward_v I I I I #
face $-1 $152 $153 $56 $-1 $154 reversed single #
loop $-1 $-1 $155 $74 #
plane-surface $-1 128.06265390877746 -9.3171222788249768 220.5683270743194 0 -1 0 -0.85716730853699208 0 -0.51503806187062418 forward_v I I I I #
face $-1 $156 $157 $57 $-1 $158 forward single #
loop $-1 $159 $160 $75 #
cone-surface $-1 73.645000989401481 -17.109453331889807 14.334655344178712 -0.85716730853699208 0 -0.51503806187062418 0.25751903093531209 0 -0.42858365426849604 1 I I 0 1 0.5 forward I I I I #
face $-1 $161 $162 $58 $-1 $163 forward single #
loop $-1 $164 $165 $76 #
cone-surface $-1 73.645000989401481 -14.187329186990496 14.334655344178712 -0.85716730853699208 0 -0.51503806187062418 0.25751903093531209 0 -0.42858365426849604 1 I I 0 1 0.5 forward I I I I #
face $-1 $166 $167 $59 $-1 $168 forward single #
loop $-1 $169 $170 $77 #
cone-surface $-1 73.645000989401481 -11.265205042091186 14.334655344178712 -0.85716730853699208 0 -0.51503806187062418 0.25751903093531209 0 -0.42858365426849604 1 I I 0 1 0.5 forward I I I I #
face $-1 $171 $172 $60 $-1 $173 reversed single #
loop $-1 $-1 $174 $78 #
plane-surface $-1 128.06265390877746 22.695007942508717 220.5683270743194 0 -1 0 -0.85716730853699208 0 -0.51503806187062418 forward_v I I I I #
face $-1 $175 $176 $61 $-1 $177 forward single #
loop $-1 $178 $179 $79 #
cone-surface $-1 73.645000989401481 14.902676889443889 14.334655344178712 -0.85716730853699208 0 -0.51503806187062418 0.25751903093531209 0 -0.42858365426849604 1 I I 0 1 0.5 forward I I I I #
face $-1 $180 $181 $62 $-1 $182 forward single #
loop $-1 $183 $184 $80 #
cone-surface $-1 73.645000989401481 17.824801034343196 14.334655344178712 -0.85716730853699208 0 -0.51503806187062418 0.25751903093531209 0 -0.42858365426849604 1 I I 0 1 0.5 forward I I I I #
face $-1 $185 $186 $63 $-1 $187 forward single #
loop $-1 $188 $189 $81 #
cone-surface $-1 73.645000989401481 20.746925179242503 14.334655344178712 -0.85716730853699208 0 -0.51503806187062418 0.25751903093531209 0 -0.42858365426849604 1 I I 0 1 0.5 forward I I I I #
face $-1 $190 $191 $64 $-1 $192 reversed single #
loop $-1 $-1 $193 $82 #
plane-surface $-1 -206.38452828647135 -19.057536095156017 90.218834036726491 0 1 0 -0.85716730853699208 0 0.51503806187062418 forward_v I I I I #
face $-1 $194 $195 $65 $-1 $196 forward single #
loop $-1 $197 $198 $83 #
cone-surface $-1 -73.645000989401467 -17.109453331889807 14.334655344178701 0.85716730853699208 0 -0.51503806187062418 0.25751903093531209 0 0.42858365426849604 1 I I 0 1 0.5 forward I I I I #
face $-1 $199 $200 $66 $-1 $201 forward single #
loop $-1 $202 $203 $84 #
cone-surface $-1 -73.645000989401467 -14.187329186990496 14.334655344178701 0.85716730853699208 0 -0.51503806187062418 0.25751903093531209 0 0.42858365426849604 1 I I 0 1 0.5 forward I I I I #
face $-1 $204 $205 $67 $-1 $206 forward single #
loop $-1 $207 $208 $85 #
cone-surface $-1 -73.645000989401467 -11.265205042091186 14.334655344178701 0.85716730853699208 0 -0.51503806187062418 0.25751903093531209 0 0.42858365426849604 1 I I 0 1 0.5 forward I I I I #
face $-1 $209 $210 $68 $-1 $211 reversed single #
loop $-1 $-1 $212 $86 #
plane-surface $-1 -206.38452828647135 12.954594126177676 90.218834036726491 0 1 0 -0.85716730853699208 0 0.51503806187062418 forward_v I I I I #
face $-1 $213 $214 $69 $-1 $215 forward single #
loop $-1 $216 $217 $87 #
cone-surface $-1 -73.645000989401467 14.902676889443889 14.334655344178701 0.85716730853699208 0 -0.51503806187062418 0.25751903093531209 0 0.42858365426849604 1 I I 0 1 0.5 forward I I I I #
face $-1 $218 $219 $70 $-1 $220 forward single #
loop $-1 $221 $222 $88 #
cone-surface $-1 -73.645000989401467 17.824801034343196 14.334655344178701 0.85716730853699208 0 -0.51503806187062418 0.25751903093531209 0 0.42858365426849604 1 I I 0 1 0.5 forward I I I I #
face $-1 $223 $224 $71 $-1 $225 forward single #
loop $-1 $226 $227 $89 #
cone-surface $-1 -73.645000989401467 20.746925179242503 14.334655344178701 0.85716730853699208 0 -0.51503806187062418 0.25751903093531209 0 0.42858365426849604 1 I I 0 1 0.5 forward I I I I #
face $-1 $228 $229 $54 $-1 $230 reversed single #
loop $-1 $-1 $231 $90 #
plane-surface $-1 0 0 -17.589359174682691 0 0 1 1 0 0 forward_v I I I I #
coedge $-1 $232 $233 $234 $235 forward $91 $-1 #
face $-1 $236 $237 $55 $-1 $238 reversed single #
loop $-1 $-1 $239 $93 #
plane-surface $-1 0 0 -17.589359174682691 0 0 1 1 0 0 forward_v I I I I #
coedge $-1 $240 $241 $242 $243 forward $94 $-1 #
face $-1 $244 $245 $56 $-1 $246 reversed single #
loop $-1 $-1 $247 $96 #
plane-surface $-1 -2.2868391288154442 -14.187329186990496 142.24645269662551 0.85716730853699208 0 0.51503806187062418 0.51503806187062418 0 -0.85716730853699208 forward_v I I I I #
coedge $-1 $248 $249 $250 $251 reversed $97 $-1 #
face $-1 $-1 $252 $57 $-1 $253 forward single #
loop $-1 $254 $255 $99 #
cone-surface $-1 72.750844192224349 -17.109453331889807 13.797391756032106 -0.85716730853699208 0 -0.51503806187062418 0.12875951546765604 0 -0.21429182713424802 1 I I -0.70710678118654746 0.70710678118654746 0.25 forward I I I I #
loop $-1 $-1 $256 $75 #
coedge $-1 $160 $160 $257 $258 reversed $100 $-1 #
face $-1 $-1 $259 $58 $-1 $260 forward single #
loop $-1 $261 $262 $102 #
cone-surface $-1 72.750844192224349 -14.187329186990496 13.797391756032106 -0.85716730853699208 0 -0.51503806187062418 0.12875951546765604 0 -0.21429182713424802 1 I I -0.70710678118654746 0.70710678118654746 0.25 forward I I I I #
loop $-1 $-1 $263 $76 #
coedge $-1 $165 $165 $264 $265 reversed $103 $-1 #
face $-1 $-1 $266 $59 $-1 $267 forward single #
loop $-1 $268 $269 $105 #
cone-surface $-1 72.750844192224349 -11.265205042091186 13.797391756032106 -0.85716730853699208 0 -0.51503806187062418 0.12875951546765604 0 -0.21429182713424802 1 I I -0.70710678118654746 0.70710678118654746 0.25 forward I I I I #
loop $-1 $-1 $270 $77 #
coedge $-1 $170 $170 $271 $272 reversed $106 $-1 #
face $-1 $273 $274 $60 $-1 $275 reversed single #
loop $-1 $-1 $276 $108 #
plane-surface $-1 -2.2868391288154442 17.824801034343196 142.24645269662551 0.85716730853699208 0 0.51503806187062418 0.51503806187062418 0 -0.85716730853699208 forward_v I I I I #
coedge $-1 $277 $278 $279 $280 reversed $109 $-1 #
face $-1 $-1 $281 $61 $-1 $282 forward single #
loop $-1 $283 $284 $111 #
cone-surface $-1 72.750844192224349 14.902676889443889 13.797391756032106 -0.85716730853699208 0 -0.51503806187062418 0.12875951546765604 0 -0.21429182713424802 1 I I -0.70710678118654746 0.70710678118654746 0.25 forward I I I I #
loop $-1 $-1 $285 $79 #
coedge $-1 $179 $179 $286 $287 reversed $112 $-1 #
face $-1 $-1 $288 $62 $-1 $289 forward single #
loop $-1 $290 $291 $114 #
cone-surface $-1 72.750844192224349 17.824801034343196 13.797391756032106 -0.85716730853699208 0 -0.51503806187062418 0.12875951546765604 0 -0.21429182713424802 1 I I -0.70710678118654746 0.70710678118654746 0.25 forward I I I I #
loop $-1 $-1 $292 $80 #
coedge $-1 $184 $184 $293 $294 reversed $115 $-1 #
face $-1 $-1 $295 $63 $-1 $296 forward single #
loop $-1 $297 $298 $117 #
cone-surface $-1 72.750844192224349 20.746925179242503 13.797391756032106 -0.85716730853699208 0 -0.51503806187062418 0.12875951546765604 0 -0.21429182713424802 1 I I -0.70710678118654746 0.70710678118654746 0.25 forward I I I I #
loop $-1 $-1 $299 $81 #
coedge $-1 $189 $189 $300 $301 reversed $118 $-1 #
face $-1 $302 $303 $64 $-1 $304 reversed single #
loop $-1 $-1 $305 $120 #
plane-surface $-1 -76.035035248878444 -14.187329186990496 11.896959659032603 -0.85716730853699208 0 0.51503806187062418 0.51503806187062418 0 0.85716730853699208 forward_v I I I I #
coedge $-1 $306 $307 $308 $309 reversed $121 $-1 #
face $-1 $-1 $310 $65 $-1 $311 forward single #
loop $-1 $312 $313 $123 #
cone-surface $-1 -72.750844192224335 -17.109453331889807 13.797391756032095 0.85716730853699208 0 -0.51503806187062418 0.12875951546765604 0 0.21429182713424802 1 I I -0.70710678118654746 0.70710678118654746 0.25 forward I I I I #
loop $-1 $-1 $314 $83 #
coedge $-1 $198 $198 $315 $316 reversed $124 $-1 #
face $-1 $-1 $317 $66 $-1 $318 forward single #
loop $-1 $319 $320 $126 #
cone-surface $-1 -72.750844192224335 -14.187329186990496 13.797391756032095 0.85716730853699208 0 -0.51503806187062418 0.12875951546765604 0 0.21429182713424802 1 I I -0.70710678118654746 0.70710678118654746 0.25 forward I I I I #
loop $-1 $-1 $321 $84 #
coedge $-1 $203 $203 $322 $323 reversed $127 $-1 #
face $-1 $-1 $324 $67 $-1 $325 forward single #
loop $-1 $326 $327 $129 #
cone-surface $-1 -72.750844192224335 -11.265205042091186 13.797391756032095 0.85716730853699208 0 -0.51503806187062418 0.12875951546765604 0 0.21429182713424802 1 I I -0.70710678118654746 0.70710678118654746 0.25 forward I I I I #
loop $-1 $-1 $328 $85 #
coedge $-1 $208 $208 $329 $330 reversed $130 $-1 #
face $-1 $331 $332 $68 $-1 $333 reversed single #
loop $-1 $-1 $334 $132 #
plane-surface $-1 -76.035035248878444 17.824801034343196 11.896959659032603 -0.85716730853699208 0 0.51503806187062418 0.51503806187062418 0 0.85716730853699208 forward_v I I I I #
coedge $-1 $335 $336 $337 $338 reversed $133 $-1 #
face $-1 $-1 $339 $69 $-1 $340 forward single #
loop $-1 $341 $342 $135 #
cone-surface $-1 -72.750844192224335 14.902676889443889 13.797391756032095 0.85716730853699208 0 -0.51503806187062418 0.12875951546765604 0 0.21429182713424802 1 I I -0.70710678118654746 0.70710678118654746 0.25 forward I I I I #
loop $-1 $-1 $343 $87 #
coedge $-1 $217 $217 $344 $345 reversed $136 $-1 #
face $-1 $-1 $346 $70 $-1 $347 forward single #
loop $-1 $348 $349 $138 #
cone-surface $-1 -72.750844192224335 17.824801034343196 13.797391756032095 0.85716730853699208 0 -0.51503806187062418 0.12875951546765604 0 0.21429182713424802 1 I I -0.70710678118654746 0.70710678118654746 0.25 forward I I I I #
loop $-1 $-1 $350 $88 #
coedge $-1 $222 $222 $351 $352 reversed $139 $-1 #
face $-1 $-1 $353 $71 $-1 $354 forward single #
loop $-1 $355 $356 $141 #
cone-surface $-1 -72.750844192224335 20.746925179242503 13.797391756032095 0.85716730853699208 0 -0.51503806187062418 0.12875951546765604 0 0.21429182713424802 1 I I -0.70710678118654746 0.70710678118654746 0.25 forward I I I I #
loop $-1 $-1 $357 $89 #
coedge $-1 $227 $227 $358 $359 reversed $142 $-1 #
face $-1 $360 $361 $54 $-1 $362 reversed single #
loop $-1 $-1 $363 $144 #
plane-surface $-1 0 -41.763926035624685 0 0 1 0 0 0 1 forward_v I I I I #
coedge $-1 $364 $365 $366 $367 forward $145 $-1 #
coedge $-1 $368 $147 $369 $370 forward $91 $-1 #
coedge $-1 $147 $368 $371 $372 forward $91 $-1 #
coedge $-1 $373 $374 $147 $235 reversed $375 $-1 #
edge $-1 $376 -41.763926035624685 $377 41.763926035624685 $234 $378 forward 7 unknown #
face $-1 $379 $380 $55 $-1 $381 forward single #
loop $-1 $-1 $382 $148 #
plane-surface $-1 76.035035248878444 0 0 -1 0 0 0 0 1 forward_v I I I I #
coedge $-1 $383 $384 $385 $386 forward $149 $-1 #
coedge $-1 $385 $151 $382 $387 reversed $94 $-1 #
coedge $-1 $151 $385 $388 $389 reversed $94 $-1 #
coedge $-1 $390 $391 $151 $243 reversed $380 $-1 #
edge $-1 $392 -76.035035248878444 $393 76.035035248878444 $242 $394 forward 7 unknown #
face $-1 $395 $396 $56 $-1 $397 reversed single #
loop $-1 $-1 $398 $152 #
plane-surface $-1 128.06265390877746 -19.057536095156017 220.5683270743194 0 1 0 0.85716730853699208 0 0.51503806187062418 forward_v I I I I #
coedge $-1 $399 $400 $401 $402 reversed $153 $-1 #
coedge $-1 $249 $155 $403 $404 reversed $97 $-1 #
coedge $-1 $155 $248 $399 $405 reversed $97 $-1 #
coedge $-1 $401 $406 $155 $251 forward $407 $-1 #
edge $-1 $408 -12.003708294489712 $409 -8.583369715621501 $250 $410 forward 7 unknown #
loop $-1 $-1 $257 $156 #
plane-surface $-1 -2.2868391288154442 -14.187329186990496 142.24645269662551 0.85716730853699208 0 0.51503806187062418 0.51503806187062418 0 -0.85716730853699208 forward_v I I I I #
loop $-1 $-1 $411 $99 #
coedge $-1 $255 $255 $256 $412 reversed $157 $-1 #
coedge $-1 $256 $256 $255 $412 forward $159 $-1 #
coedge $-1 $257 $257 $160 $258 forward $252 $-1 #
edge $-1 $413 0 $413 6.2831853071796004 $257 $414 forward 7 unknown #
loop $-1 $-1 $264 $161 #
plane-surface $-1 -2.2868391288154442 -14.187329186990496 142.24645269662551 0.85716730853699208 0 0.51503806187062418 0.51503806187062418 0 -0.85716730853699208 forward_v I I I I #
loop $-1 $-1 $415 $102 #
coedge $-1 $262 $262 $263 $416 reversed $162 $-1 #
coedge $-1 $263 $263 $262 $416 forward $164 $-1 #
coedge $-1 $264 $264 $165 $265 forward $259 $-1 #
edge $-1 $417 0 $417 6.2831853071796004 $264 $418 forward 7 unknown #
loop $-1 $-1 $271 $166 #
plane-surface $-1 -2.2868391288154442 -14.187329186990496 142.24645269662551 0.85716730853699208 0 0.51503806187062418 0.51503806187062418 0 -0.85716730853699208 forward_v I I I I #
loop $-1 $-1 $419 $105 #
coedge $-1 $269 $269 $270 $420 reversed $167 $-1 #
coedge $-1 $270 $270 $269 $420 forward $169 $-1 #
coedge $-1 $271 $271 $170 $272 forward $266 $-1 #
edge $-1 $421 0 $421 6.2831853071796004 $271 $422 forward 7 unknown #
face $-1 $423 $424 $60 $-1 $425 reversed single #
loop $-1 $-1 $426 $171 #
plane-surface $-1 128.06265390877746 12.954594126177676 220.5683270743194 0 1 0 0.85716730853699208 0 0.51503806187062418 forward_v I I I I #
coedge $-1 $427 $428 $429 $430 reversed $172 $-1 #
coedge $-1 $278 $174 $431 $432 reversed $109 $-1 #
coedge $-1 $174 $277 $427 $433 reversed $109 $-1 #
coedge $-1 $429 $434 $174 $280 forward $435 $-1 #
edge $-1 $436 -12.003708294489712 $437 -8.583369715621501 $279 $438 forward 7 unknown #
loop $-1 $-1 $286 $175 #
plane-surface $-1 -2.2868391288154442 17.824801034343196 142.24645269662551 0.85716730853699208 0 0.51503806187062418 0.51503806187062418 0 -0.85716730853699208 forward_v I I I I #
loop $-1 $-1 $439 $111 #
coedge $-1 $284 $284 $285 $440 reversed $176 $-1 #
coedge $-1 $285 $285 $284 $440 forward $178 $-1 #
coedge $-1 $286 $286 $179 $287 forward $281 $-1 #
edge $-1 $441 0 $441 6.2831853071796004 $286 $442 forward 7 unknown #
loop $-1 $-1 $293 $180 #
plane-surface $-1 -2.2868391288154442 17.824801034343196 142.24645269662551 0.85716730853699208 0 0.51503806187062418 0.51503806187062418 0 -0.85716730853699208 forward_v I I I I #
loop $-1 $-1 $443 $114 #
coedge $-1 $291 $291 $292 $444 reversed $181 $-1 #
coedge $-1 $292 $292 $291 $444 forward $183 $-1 #
coedge $-1 $293 $293 $184 $294 forward $288 $-1 #
edge $-1 $445 0 $445 6.2831853071796004 $293 $446 forward 7 unknown #
loop $-1 $-1 $300 $185 #
plane-surface $-1 -2.2868391288154442 17.824801034343196 142.24645269662551 0.85716730853699208 0 0.51503806187062418 0.51503806187062418 0 -0.85716730853699208 forward_v I I I I #
loop $-1 $-1 $447 $117 #
coedge $-1 $298 $298 $299 $448 reversed $186 $-1 #
coedge $-1 $299 $299 $298 $448 forward $188 $-1 #
coedge $-1 $300 $300 $189 $301 forward $295 $-1 #
edge $-1 $449 0 $449 6.2831853071796004 $300 $450 forward 7 unknown #
face $-1 $451 $452 $64 $-1 $453 forward single #
loop $-1 $-1 $454 $190 #
plane-surface $-1 -206.38452828647135 -9.3171222788249768 90.218834036726491 0 -1 0 0.85716730853699208 0 -0.51503806187062418 forward_v I I I I #
coedge $-1 $455 $456 $457 $458 reversed $191 $-1 #
coedge $-1 $307 $193 $459 $460 reversed $121 $-1 #
coedge $-1 $193 $306 $455 $461 reversed $121 $-1 #
coedge $-1 $457 $462 $193 $309 forward $452 $-1 #
edge $-1 $463 27.157228894357232 $464 30.577567473225443 $308 $465 forward 7 unknown #
loop $-1 $-1 $315 $194 #
plane-surface $-1 -76.035035248878444 -14.187329186990496 11.896959659032603 -0.85716730853699208 0 0.51503806187062418 0.51503806187062418 0 0.85716730853699208 forward_v I I I I #
loop $-1 $-1 $466 $123 #
coedge $-1 $313 $313 $314 $467 reversed $195 $-1 #
coedge $-1 $314 $314 $313 $467 forward $197 $-1 #
coedge $-1 $315 $315 $198 $316 forward $310 $-1 #
edge $-1 $468 0 $468 6.2831853071796004 $315 $469 forward 7 unknown #
loop $-1 $-1 $322 $199 #
plane-surface $-1 -76.035035248878444 -14.187329186990496 11.896959659032603 -0.85716730853699208 0 0.51503806187062418 0.51503806187062418 0 0.85716730853699208 forward_v I I I I #
loop $-1 $-1 $470 $126 #
coedge $-1 $320 $320 $321 $471 reversed $200 $-1 #
coedge $-1 $321 $321 $320 $471 forward $202 $-1 #
coedge $-1 $322 $322 $203 $323 forward $317 $-1 #
edge $-1 $472 0 $472 6.2831853071796004 $322 $473 forward 7 unknown #
loop $-1 $-1 $329 $204 #
plane-surface $-1 -76.035035248878444 -14.187329186990496 11.896959659032603 -0.85716730853699208 0 0.51503806187062418 0.51503806187062418 0 0.85716730853699208 forward_v I I I I #
loop $-1 $-1 $474 $129 #
coedge $-1 $327 $327 $328 $475 reversed $205 $-1 #
coedge $-1 $328 $328 $327 $475 forward $207 $-1 #
coedge $-1 $329 $329 $208 $330 forward $324 $-1 #
edge $-1 $476 0 $476 6.2831853071796004 $329 $477 forward 7 unknown #
face $-1 $478 $479 $68 $-1 $480 forward single #
loop $-1 $-1 $481 $209 #
plane-surface $-1 -206.38452828647135 22.695007942508717 90.218834036726491 0 -1 0 0.85716730853699208 0 -0.51503806187062418 forward_v I I I I #
coedge $-1 $482 $483 $484 $485 reversed $210 $-1 #
coedge $-1 $336 $212 $486 $487 reversed $133 $-1 #
coedge $-1 $212 $335 $482 $488 reversed $133 $-1 #
coedge $-1 $484 $489 $212 $338 forward $479 $-1 #
edge $-1 $490 27.157228894357232 $491 30.577567473225443 $337 $492 forward 7 unknown #
loop $-1 $-1 $344 $213 #
plane-surface $-1 -76.035035248878444 17.824801034343196 11.896959659032603 -0.85716730853699208 0 0.51503806187062418 0.51503806187062418 0 0.85716730853699208 forward_v I I I I #
loop $-1 $-1 $493 $135 #
coedge $-1 $342 $342 $343 $494 reversed $214 $-1 #
coedge $-1 $343 $343 $342 $494 forward $216 $-1 #
coedge $-1 $344 $344 $217 $345 forward $339 $-1 #
edge $-1 $495 0 $495 6.2831853071796004 $344 $496 forward 7 unknown #
loop $-1 $-1 $351 $218 #
plane-surface $-1 -76.035035248878444 17.824801034343196 11.896959659032603 -0.85716730853699208 0 0.51503806187062418 0.51503806187062418 0 0.85716730853699208 forward_v I I I I #
loop $-1 $-1 $497 $138 #
coedge $-1 $349 $349 $350 $498 reversed $219 $-1 #
coedge $-1 $350 $350 $349 $498 forward $221 $-1 #
coedge $-1 $351 $351 $222 $352 forward $346 $-1 #
edge $-1 $499 0 $499 6.2831853071796004 $351 $500 forward 7 unknown #
loop $-1 $-1 $358 $223 #
plane-surface $-1 -76.035035248878444 17.824801034343196 11.896959659032603 -0.85716730853699208 0 0.51503806187062418 0.51503806187062418 0 0.85716730853699208 forward_v I I I I #
loop $-1 $-1 $501 $141 #
coedge $-1 $356 $356 $357 $502 reversed $224 $-1 #
coedge $-1 $357 $357 $356 $502 forward $226 $-1 #
coedge $-1 $358 $358 $227 $359 forward $353 $-1 #
edge $-1 $503 0 $503 6.2831853071796004 $358 $504 forward 7 unknown #
face $-1 $505 $506 $54 $-1 $507 reversed single #
loop $-1 $-1 $508 $228 #
plane-surface $-1 -76.035035248878444 0 0 1 0 0 0 0 -1 forward_v I I I I #
coedge $-1 $371 $509 $373 $510 reversed $229 $-1 #
coedge $-1 $511 $231 $509 $512 forward $145 $-1 #
coedge $-1 $231 $511 $513 $514 forward $145 $-1 #
coedge $-1 $374 $373 $231 $367 reversed $375 $-1 #
edge $-1 $515 -41.763926035624685 $516 41.763926035624685 $366 $517 forward 7 unknown #
coedge $-1 $233 $232 $518 $519 forward $91 $-1 #
coedge $-1 $520 $521 $232 $370 reversed $506 $-1 #
edge $-1 $377 -76.035035248878444 $522 76.035035248878444 $369 $523 forward 7 unknown #
coedge $-1 $524 $363 $233 $372 reversed $229 $-1 #
edge $-1 $525 -76.035035248878444 $376 76.035035248878444 $371 $526 forward 7 unknown #
coedge $-1 $366 $234 $363 $510 forward $375 $-1 #
coedge $-1 $234 $366 $520 $527 reversed $375 $-1 #
loop $-1 $-1 $373 $505 #
vertex $-1 $235 $528 #
vertex $-1 $235 $529 #
straight-curve $-1 76.035035248878444 0 17.589359174682691 0 1 0 I I #
face $-1 $530 $531 $55 $-1 $532 reversed single #
loop $-1 $-1 $391 $236 #
plane-surface $-1 0 -51.515721849915678 -10.986599211291718 0 0 1 1 0 0 forward_v I I I I #
coedge $-1 $533 $534 $240 $387 forward $237 $-1 #
coedge $-1 $535 $239 $534 $536 forward $149 $-1 #
coedge $-1 $239 $535 $537 $538 forward $149 $-1 #
coedge $-1 $241 $240 $239 $386 reversed $94 $-1 #
edge $-1 $539 -76.035035248878444 $540 76.035035248878444 $239 $541 forward 7 unknown #
edge $-1 $540 -17.589359174682691 $393 -10.986599211291718 $382 $542 forward 7 unknown #
coedge $-1 $537 $543 $241 $389 forward $544 $-1 #
edge $-1 $392 10.986599211291718 $539 17.589359174682691 $388 $545 forward 7 unknown #
coedge $-1 $546 $242 $543 $547 forward $380 $-1 #
coedge $-1 $242 $546 $533 $548 forward $380 $-1 #
vertex $-1 $389 $549 #
vertex $-1 $548 $550 #
straight-curve $-1 0 -41.763926035624685 -10.986599211291718 1 0 0 I I #
face $-1 $-1 $407 $56 $-1 $551 forward single #
loop $-1 $-1 $552 $244 #
plane-surface $-1 76.035035248878444 0 0 -1 0 0 0 0 1 forward_v I I I I #
coedge $-1 $553 $554 $555 $556 reversed $245 $-1 #
coedge $-1 $557 $247 $249 $405 forward $153 $-1 #
coedge $-1 $247 $557 $553 $558 forward $153 $-1 #
coedge $-1 $555 $250 $247 $402 forward $407 $-1 #
edge $-1 $409 2.2234576853297288 $559 11.963871501660769 $401 $560 forward 7 unknown #
coedge $-1 $561 $562 $248 $404 forward $396 $-1 #
edge $-1 $563 -98.387203878127096 $408 -92.694804362477015 $403 $564 forward 7 unknown #
edge $-1 $409 145.42912717320823 $563 152.07007049775692 $249 $565 forward 7 unknown #
coedge $-1 $250 $555 $561 $566 forward $407 $-1 #
loop $-1 $-1 $555 $395 #
vertex $-1 $404 $567 #
vertex $-1 $251 $568 #
straight-curve $-1 64.031326954388732 -9.3171222788249768 17.589359174682698 -1 0 0 I I #
coedge $-1 $411 $411 $-1 $569 reversed $254 $-1 #
edge $-1 $570 0 $570 6.2831853071796004 $255 $571 forward 7 unknown #
vertex $-1 $258 $572 #
ellipse-curve $-1 74.324865959444338 -17.109453331889807 14.743159416857646 0.85716730853699208 0 0.51503806187062418 0.25751903093531209 0 -0.42858365426849604 1 I I #
coedge $-1 $415 $415 $-1 $573 reversed $261 $-1 #
edge $-1 $574 0 $574 6.2831853071796004 $262 $575 forward 7 unknown #
vertex $-1 $265 $576 #
ellipse-curve $-1 74.324865959444338 -14.187329186990496 14.743159416857646 0.85716730853699208 0 0.51503806187062418 0.25751903093531209 0 -0.42858365426849604 1 I I #
coedge $-1 $419 $419 $-1 $577 reversed $268 $-1 #
edge $-1 $578 0 $578 6.2831853071796004 $269 $579 forward 7 unknown #
vertex $-1 $272 $580 #
ellipse-curve $-1 74.324865959444338 -11.265205042091186 14.743159416857646 0.85716730853699208 0 0.51503806187062418 0.25751903093531209 0 -0.42858365426849604 1 I I #
face $-1 $-1 $435 $60 $-1 $581 forward single #
loop $-1 $-1 $582 $273 #
plane-surface $-1 76.035035248878444 0 0 -1 0 0 0 0 1 forward_v I I I I #
coedge $-1 $583 $584 $585 $586 reversed $274 $-1 #
coedge $-1 $587 $276 $278 $433 forward $172 $-1 #
coedge $-1 $276 $587 $583 $588 forward $172 $-1 #
coedge $-1 $585 $279 $276 $430 forward $435 $-1 #
edge $-1 $437 -13.782607425337119 $589 -4.0421936090060786 $429 $590 forward 7 unknown #
coedge $-1 $591 $592 $277 $432 forward $424 $-1 #
edge $-1 $593 -98.387203878127096 $436 -92.694804362477015 $431 $594 forward 7 unknown #
edge $-1 $437 145.42912717320823 $593 152.07007049775692 $278 $595 forward 7 unknown #
coedge $-1 $279 $585 $591 $596 forward $435 $-1 #
loop $-1 $-1 $585 $423 #
vertex $-1 $432 $597 #
vertex $-1 $280 $598 #
straight-curve $-1 64.031326954388732 22.695007942508717 17.589359174682698 -1 0 0 I I #
coedge $-1 $439 $439 $-1 $599 reversed $283 $-1 #
edge $-1 $600 0 $600 6.2831853071796004 $284 $601 forward 7 unknown #
vertex $-1 $287 $602 #
ellipse-curve $-1 74.324865959444338 14.902676889443889 14.743159416857646 0.85716730853699208 0 0.51503806187062418 0.25751903093531209 0 -0.42858365426849604 1 I I #
coedge $-1 $443 $443 $-1 $603 reversed $290 $-1 #
edge $-1 $604 0 $604 6.2831853071796004 $291 $605 forward 7 unknown #
vertex $-1 $294 $606 #
ellipse-curve $-1 74.324865959444338 17.824801034343196 14.743159416857646 0.85716730853699208 0 0.51503806187062418 0.25751903093531209 0 -0.42858365426849604 1 I I #
coedge $-1 $447 $447 $-1 $607 reversed $297 $-1 #
edge $-1 $608 0 $608 6.2831853071796004 $298 $609 forward 7 unknown #
vertex $-1 $301 $610 #
ellipse-curve $-1 74.324865959444338 20.746925179242503 14.743159416857646 0.85716730853699208 0 0.51503806187062418 0.25751903093531209 0 -0.42858365426849604 1 I I #
face $-1 $-1 $611 $64 $-1 $612 reversed single #
loop $-1 $-1 $308 $302 #
plane-surface $-1 0 0 17.589359174682691 0 0 1 1 0 0 forward_v I I I I #
coedge $-1 $613 $614 $615 $616 reversed $303 $-1 #
coedge $-1 $617 $305 $307 $461 forward $191 $-1 #
coedge $-1 $305 $617 $613 $618 forward $191 $-1 #
coedge $-1 $615 $308 $305 $458 forward $452 $-1 #
edge $-1 $464 -11.963871501660769 $619 -2.2234576853297288 $457 $620 forward 7 unknown #
coedge $-1 $621 $622 $306 $460 forward $611 $-1 #
edge $-1 $623 -33.212457359330642 $463 -27.520057843680554 $459 $624 forward 7 unknown #
edge $-1 $464 -6.6409433245486742 $623 0 $307 $625 forward 7 unknown #
coedge $-1 $308 $615 $621 $626 forward $452 $-1 #
vertex $-1 $460 $627 #
vertex $-1 $309 $628 #
straight-curve $-1 -103.19226414323568 -19.057536095156017 17.589359174682691 1 0 0 I I #
coedge $-1 $466 $466 $-1 $629 reversed $312 $-1 #
edge $-1 $630 0 $630 6.2831853071796004 $313 $631 forward 7 unknown #
vertex $-1 $316 $632 #
ellipse-curve $-1 -74.324865959444338 -17.109453331889807 14.743159416857647 -0.85716730853699208 0 0.51503806187062418 0.25751903093531209 0 0.42858365426849604 1 I I #
coedge $-1 $470 $470 $-1 $633 reversed $319 $-1 #
edge $-1 $634 0 $634 6.2831853071796004 $320 $635 forward 7 unknown #
vertex $-1 $323 $636 #
ellipse-curve $-1 -74.324865959444338 -14.187329186990496 14.743159416857647 -0.85716730853699208 0 0.51503806187062418 0.25751903093531209 0 0.42858365426849604 1 I I #
coedge $-1 $474 $474 $-1 $637 reversed $326 $-1 #
edge $-1 $638 0 $638 6.2831853071796004 $327 $639 forward 7 unknown #
vertex $-1 $330 $640 #
ellipse-curve $-1 -74.324865959444338 -11.265205042091186 14.743159416857647 -0.85716730853699208 0 0.51503806187062418 0.25751903093531209 0 0.42858365426849604 1 I I #
face $-1 $-1 $641 $68 $-1 $642 reversed single #
loop $-1 $-1 $337 $331 #
plane-surface $-1 0 0 17.589359174682691 0 0 1 1 0 0 forward_v I I I I #
coedge $-1 $643 $644 $645 $646 reversed $332 $-1 #
coedge $-1 $647 $334 $336 $488 forward $210 $-1 #
coedge $-1 $334 $647 $643 $648 forward $210 $-1 #
coedge $-1 $645 $337 $334 $485 forward $479 $-1 #
edge $-1 $491 4.0421936090060786 $649 13.782607425337119 $484 $650 forward 7 unknown #
coedge $-1 $651 $652 $335 $487 forward $641 $-1 #
edge $-1 $653 -33.212457359330642 $490 -27.520057843680554 $486 $654 forward 7 unknown #
edge $-1 $491 -6.6409433245486742 $653 0 $336 $655 forward 7 unknown #
coedge $-1 $337 $645 $651 $656 forward $479 $-1 #
vertex $-1 $338 $657 #
vertex $-1 $338 $658 #
straight-curve $-1 -103.19226414323568 12.954594126177676 17.589359174682691 1 0 0 I I #
coedge $-1 $493 $493 $-1 $659 reversed $341 $-1 #
edge $-1 $660 0 $660 6.2831853071796004 $342 $661 forward 7 unknown #
vertex $-1 $345 $662 #
ellipse-curve $-1 -74.324865959444338 14.902676889443889 14.743159416857647 -0.85716730853699208 0 0.51503806187062418 0.25751903093531209 0 0.42858365426849604 1 I I #
coedge $-1 $497 $497 $-1 $663 reversed $348 $-1 #
edge $-1 $664 0 $664 6.2831853071796004 $349 $665 forward 7 unknown #
vertex $-1 $352 $666 #
ellipse-curve $-1 -74.324865959444338 17.824801034343196 14.743159416857647 -0.85716730853699208 0 0.51503806187062418 0.25751903093531209 0 0.42858365426849604 1 I I #
coedge $-1 $501 $501 $-1 $667 reversed $355 $-1 #
edge $-1 $668 0 $668 6.2831853071796004 $356 $669 forward 7 unknown #
vertex $-1 $359 $670 #
ellipse-curve $-1 -74.324865959444338 20.746925179242503 14.743159416857647 -0.85716730853699208 0 0.51503806187062418 0.25751903093531209 0 0.42858365426849604 1 I I #
face $-1 $-1 $375 $54 $-1 $671 reversed single #
loop $-1 $-1 $520 $360 #
plane-surface $-1 0 41.763926035624685 0 0 -1 0 0 0 -1 forward_v I I I I #
coedge $-1 $672 $518 $521 $673 forward $361 $-1 #
coedge $-1 $363 $524 $364 $512 reversed $229 $-1 #
edge $-1 $376 -17.589359174682691 $516 17.589359174682691 $373 $674 forward 7 unknown #
coedge $-1 $365 $364 $672 $675 forward $145 $-1 #
edge $-1 $516 -76.035035248878444 $676 76.035035248878444 $509 $677 forward 7 unknown #
coedge $-1 $521 $520 $365 $514 reversed $506 $-1 #
edge $-1 $678 -76.035035248878444 $515 76.035035248878444 $513 $679 forward 7 unknown #
vertex $-1 $367 $680 #
vertex $-1 $510 $681 #
straight-curve $-1 76.035035248878444 0 -17.589359174682691 0 -1 0 I I #
coedge $-1 $508 $682 $368 $519 reversed $361 $-1 #
edge $-1 $522 -41.763926035624685 $525 41.763926035624685 $518 $683 forward 7 unknown #
coedge $-1 $513 $369 $374 $527 forward $506 $-1 #
coedge $-1 $369 $513 $508 $673 reversed $506 $-1 #
vertex $-1 $370 $684 #
straight-curve $-1 0 41.763926035624685 17.589359174682691 -1 0 0 I I #
coedge $-1 $509 $371 $682 $685 forward $229 $-1 #
vertex $-1 $519 $686 #
straight-curve $-1 0 -41.763926035624685 17.589359174682691 1 0 0 I I #
edge $-1 $377 -17.589359174682691 $515 17.589359174682691 $374 $687 forward 7 unknown #
point $-1 76.035035248878444 -41.763926035624685 17.589359174682691 #
point $-1 76.035035248878444 41.763926035624685 17.589359174682691 #
face $-1 $-1 $544 $55 $-1 $688 reversed single #
loop $-1 $-1 $689 $379 #
plane-surface $-1 0 -61.267517664206679 -14.287979192987205 0 1 0 0 0 1 forward_v I I I I #
coedge $-1 $690 $382 $391 $548 reversed $237 $-1 #
coedge $-1 $382 $690 $383 $536 reversed $237 $-1 #
coedge $-1 $384 $383 $691 $692 forward $149 $-1 #
edge $-1 $540 41.763926035624685 $693 61.267517664206679 $534 $694 forward 7 unknown #
coedge $-1 $695 $388 $384 $538 reversed $544 $-1 #
edge $-1 $696 -61.267517664206679 $539 -41.763926035624685 $537 $697 forward 7 unknown #
vertex $-1 $389 $698 #
vertex $-1 $536 $699 #
straight-curve $-1 0 -41.763926035624685 -17.589359174682691 1 0 0 I I #
straight-curve $-1 76.035035248878444 -41.763926035624685 0 0 0 1 I I #
coedge $-1 $388 $695 $390 $547 reversed $544 $-1 #
loop $-1 $-1 $388 $530 #
straight-curve $-1 -76.035035248878444 -41.763926035624685 0 0 0 -1 I I #
coedge $-1 $391 $390 $700 $701 forward $380 $-1 #
edge $-1 $392 -9.7517958142910004 $702 9.7517958142910004 $543 $703 forward 7 unknown #
edge $-1 $704 -9.7517958142910004 $393 9.7517958142910004 $533 $705 forward 7 unknown #
point $-1 -76.035035248878444 -41.763926035624678 -10.986599211291718 #
point $-1 76.035035248878444 -41.763926035624678 -10.986599211291718 #
plane-surface $-1 0 0 17.589359174682691 0 0 1 1 0 0 forward_v I I I I #
coedge $-1 $562 $561 $554 $706 forward $396 $-1 #
coedge $-1 $554 $398 $400 $558 reversed $245 $-1 #
coedge $-1 $398 $553 $552 $706 reversed $245 $-1 #
coedge $-1 $406 $401 $398 $556 forward $407 $-1 #
edge $-1 $559 8.583369715621501 $707 12.003708294489712 $555 $708 forward 7 unknown #
coedge $-1 $400 $399 $562 $709 reversed $153 $-1 #
edge $-1 $710 -152.07007049775692 $559 -145.42912717320823 $553 $711 forward 7 unknown #
vertex $-1 $402 $712 #
straight-curve $-1 72.614696670010233 -7.093664593495248 17.589359174682698 0 -1 0 I I #
coedge $-1 $552 $403 $406 $566 reversed $396 $-1 #
coedge $-1 $403 $552 $557 $709 forward $396 $-1 #
vertex $-1 $404 $713 #
straight-curve $-1 76.035035248878444 -9.3171222788249768 110.2841635371597 0 0 1 I I #
straight-curve $-1 -2.2868391288154442 -9.3171222788249768 142.24645269662551 0.51503806187062418 0 -0.85716730853699208 I I #
edge $-1 $707 -19.057536095156017 $408 -9.3171222788249768 $561 $714 forward 7 unknown #
point $-1 76.035035248878444 -9.3171222788249768 17.589359174682691 #
point $-1 72.614696670010233 -9.3171222788249768 17.589359174682713 #
edge $-1 $715 1 $715 0 $411 $-1 forward 7 unknown #
vertex $-1 $412 $716 #
ellipse-curve $-1 72.965136019358596 -17.109453331889807 13.926151271499762 0.85716730853699208 0 0.51503806187062418 0.25751903093531209 0 -0.42858365426849604 1 I I #
point $-1 74.582384990379666 -17.109453331889807 14.314575762589165 #
edge $-1 $717 1 $717 0 $415 $-1 forward 7 unknown #
vertex $-1 $416 $718 #
ellipse-curve $-1 72.965136019358596 -14.187329186990496 13.926151271499762 0.85716730853699208 0 0.51503806187062418 0.25751903093531209 0 -0.42858365426849604 1 I I #
point $-1 74.582384990379666 -14.187329186990496 14.314575762589165 #
edge $-1 $719 1 $719 0 $419 $-1 forward 7 unknown #
vertex $-1 $420 $720 #
ellipse-curve $-1 72.965136019358596 -11.265205042091186 13.926151271499762 0.85716730853699208 0 0.51503806187062418 0.25751903093531209 0 -0.42858365426849604 1 I I #
point $-1 74.582384990379666 -11.265205042091186 14.314575762589165 #
plane-surface $-1 0 0 17.589359174682691 0 0 1 1 0 0 forward_v I I I I #
coedge $-1 $592 $591 $584 $721 forward $424 $-1 #
coedge $-1 $584 $426 $428 $588 reversed $274 $-1 #
coedge $-1 $426 $583 $582 $721 reversed $274 $-1 #
coedge $-1 $434 $429 $426 $586 forward $435 $-1 #
edge $-1 $589 8.583369715621501 $722 12.003708294489712 $585 $723 forward 7 unknown #
coedge $-1 $428 $427 $592 $724 reversed $172 $-1 #
edge $-1 $725 -152.07007049775692 $589 -145.42912717320823 $583 $726 forward 7 unknown #
vertex $-1 $430 $727 #
straight-curve $-1 72.614696670010233 8.9124005171715979 17.589359174682698 0 -1 0 I I #
coedge $-1 $582 $431 $434 $596 reversed $424 $-1 #
coedge $-1 $431 $582 $587 $724 forward $424 $-1 #
vertex $-1 $432 $728 #
straight-curve $-1 76.035035248878444 22.695007942508717 110.2841635371597 0 0 1 I I #
straight-curve $-1 -2.2868391288154442 22.695007942508717 142.24645269662551 0.51503806187062418 0 -0.85716730853699208 I I #
edge $-1 $722 12.954594126177676 $436 22.695007942508717 $591 $729 forward 7 unknown #
point $-1 76.035035248878444 22.695007942508717 17.589359174682691 #
point $-1 72.614696670010233 22.695007942508717 17.589359174682713 #
edge $-1 $730 1 $730 0 $439 $-1 forward 7 unknown #
vertex $-1 $440 $731 #
ellipse-curve $-1 72.965136019358596 14.902676889443889 13.926151271499762 0.85716730853699208 0 0.51503806187062418 0.25751903093531209 0 -0.42858365426849604 1 I I #
point $-1 74.582384990379666 14.902676889443889 14.314575762589165 #
edge $-1 $732 1 $732 0 $443 $-1 forward 7 unknown #
vertex $-1 $444 $733 #
ellipse-curve $-1 72.965136019358596 17.824801034343196 13.926151271499762 0.85716730853699208 0 0.51503806187062418 0.25751903093531209 0 -0.42858365426849604 1 I I #
point $-1 74.582384990379666 17.824801034343196 14.314575762589165 #
edge $-1 $734 1 $734 0 $447 $-1 forward 7 unknown #
vertex $-1 $448 $735 #
ellipse-curve $-1 72.965136019358596 20.746925179242503 13.926151271499762 0.85716730853699208 0 0.51503806187062418 0.25751903093531209 0 -0.42858365426849604 1 I I #
point $-1 74.582384990379666 20.746925179242503 14.314575762589165 #
loop $-1 $-1 $459 $451 #
plane-surface $-1 -76.035035248878444 0 0 1 0 0 0 0 -1 forward_v I I I I #
coedge $-1 $614 $454 $456 $618 reversed $303 $-1 #
coedge $-1 $454 $613 $736 $737 reversed $303 $-1 #
coedge $-1 $462 $457 $454 $616 forward $452 $-1 #
edge $-1 $619 -30.577567473225443 $738 -27.157228894357232 $615 $739 forward 7 unknown #
coedge $-1 $456 $455 $622 $740 reversed $191 $-1 #
edge $-1 $741 0 $619 6.6409433245486742 $613 $742 forward 7 unknown #
vertex $-1 $458 $743 #
straight-curve $-1 -72.614696670010233 -7.093664593495248 17.589359174682691 0 1 0 I I #
coedge $-1 $736 $459 $462 $626 reversed $611 $-1 #
coedge $-1 $459 $736 $617 $740 forward $611 $-1 #
vertex $-1 $460 $744 #
straight-curve $-1 -76.035035248878444 -19.057536095156017 45.109417018363246 0 0 1 I I #
straight-curve $-1 -76.035035248878444 -19.057536095156017 11.896959659032603 -0.51503806187062418 0 -0.85716730853699208 I I #
edge $-1 $738 9.3171222788249768 $463 19.057536095156017 $621 $745 forward 7 unknown #
point $-1 -76.035035248878444 -19.057536095156017 17.589359174682691 #
point $-1 -72.614696670010233 -19.057536095156017 17.589359174682691 #
edge $-1 $746 1 $746 0 $466 $-1 forward 7 unknown #
vertex $-1 $467 $747 #
ellipse-curve $-1 -72.965136019358582 -17.109453331889807 13.926151271499752 -0.85716730853699208 0 0.51503806187062418 0.25751903093531209 0 0.42858365426849604 1 I I #
point $-1 -74.067346928509025 -17.109453331889807 15.171743071126146 #
edge $-1 $748 1 $748 0 $470 $-1 forward 7 unknown #
vertex $-1 $471 $749 #
ellipse-curve $-1 -72.965136019358582 -14.187329186990496 13.926151271499752 -0.85716730853699208 0 0.51503806187062418 0.25751903093531209 0 0.42858365426849604 1 I I #
point $-1 -74.067346928509025 -14.187329186990496 15.171743071126146 #
edge $-1 $750 1 $750 0 $474 $-1 forward 7 unknown #
vertex $-1 $475 $751 #
ellipse-curve $-1 -72.965136019358582 -11.265205042091186 13.926151271499752 -0.85716730853699208 0 0.51503806187062418 0.25751903093531209 0 0.42858365426849604 1 I I #
point $-1 -74.067346928509025 -11.265205042091186 15.171743071126146 #
loop $-1 $-1 $486 $478 #
plane-surface $-1 -76.035035248878444 0 0 1 0 0 0 0 -1 forward_v I I I I #
coedge $-1 $644 $481 $483 $648 reversed $332 $-1 #
coedge $-1 $481 $643 $752 $753 reversed $332 $-1 #
coedge $-1 $489 $484 $481 $646 forward $479 $-1 #
edge $-1 $649 -30.577567473225443 $754 -27.157228894357232 $645 $755 forward 7 unknown #
coedge $-1 $483 $482 $652 $756 reversed $210 $-1 #
edge $-1 $757 0 $649 6.6409433245486742 $643 $758 forward 7 unknown #
vertex $-1 $485 $759 #
straight-curve $-1 -72.614696670010233 8.9124005171715979 17.589359174682691 0 1 0 I I #
coedge $-1 $752 $486 $489 $656 reversed $641 $-1 #
coedge $-1 $486 $752 $647 $756 forward $641 $-1 #
vertex $-1 $487 $760 #
straight-curve $-1 -76.035035248878444 12.954594126177676 45.109417018363246 0 0 1 I I #
straight-curve $-1 -76.035035248878444 12.954594126177676 11.896959659032603 -0.51503806187062418 0 -0.85716730853699208 I I #
edge $-1 $754 -22.695007942508717 $490 -12.954594126177676 $651 $761 forward 7 unknown #
point $-1 -76.035035248878444 12.954594126177676 17.589359174682691 #
point $-1 -72.614696670010233 12.954594126177676 17.589359174682691 #
edge $-1 $762 1 $762 0 $493 $-1 forward 7 unknown #
vertex $-1 $494 $763 #
ellipse-curve $-1 -72.965136019358582 14.902676889443889 13.926151271499752 -0.85716730853699208 0 0.51503806187062418 0.25751903093531209 0 0.42858365426849604 1 I I #
point $-1 -74.067346928509025 14.902676889443889 15.171743071126146 #
edge $-1 $764 1 $764 0 $497 $-1 forward 7 unknown #
vertex $-1 $498 $765 #
ellipse-curve $-1 -72.965136019358582 17.824801034343196 13.926151271499752 -0.85716730853699208 0 0.51503806187062418 0.25751903093531209 0 0.42858365426849604 1 I I #
point $-1 -74.067346928509025 17.824801034343196 15.171743071126146 #
edge $-1 $766 1 $766 0 $501 $-1 forward 7 unknown #
vertex $-1 $502 $767 #
ellipse-curve $-1 -72.965136019358582 20.746925179242503 13.926151271499752 -0.85716730853699208 0 0.51503806187062418 0.25751903093531209 0 0.42858365426849604 1 I I #
point $-1 -74.067346928509025 20.746925179242503 15.171743071126146 #
plane-surface $-1 76.035035248878444 0 0 -1 0 0 0 0 1 forward_v I I I I #
coedge $-1 $682 $508 $511 $675 reversed $361 $-1 #
edge $-1 $522 -17.589359174682691 $678 17.589359174682691 $521 $768 forward 7 unknown #
straight-curve $-1 76.035035248878444 -41.763926035624685 0 0 0 -1 I I #
edge $-1 $676 -41.763926035624685 $678 41.763926035624685 $672 $769 forward 7 unknown #
vertex $-1 $675 $770 #
straight-curve $-1 0 -41.763926035624685 -17.589359174682691 -1 0 0 I I #
vertex $-1 $514 $771 #
straight-curve $-1 0 41.763926035624685 -17.589359174682691 1 0 0 I I #
point $-1 76.035035248878444 41.763926035624685 -17.589359174682691 #
point $-1 76.035035248878444 -41.763926035624685 -17.589359174682691 #
coedge $-1 $518 $672 $524 $685 reversed $361 $-1 #
straight-curve $-1 -76.035035248878444 0 17.589359174682691 0 -1 0 I I #
point $-1 -76.035035248878444 41.763926035624685 17.589359174682691 #
edge $-1 $525 -17.589359174682691 $676 17.589359174682691 $682 $772 forward 7 unknown #
point $-1 -76.035035248878444 -41.763926035624685 17.589359174682691 #
straight-curve $-1 76.035035248878444 41.763926035624685 0 0 0 -1 I I #
plane-surface $-1 -76.035035248878444 0 0 1 0 0 0 0 -1 forward_v I I I I #
coedge $-1 $691 $700 $695 $773 forward $531 $-1 #
coedge $-1 $534 $533 $774 $775 forward $237 $-1 #
coedge $-1 $774 $689 $535 $692 reversed $531 $-1 #
edge $-1 $693 -76.035035248878444 $696 76.035035248878444 $691 $776 forward 7 unknown #
vertex $-1 $775 $777 #
straight-curve $-1 76.035035248878444 0 -17.589359174682691 0 -1 0 I I #
coedge $-1 $543 $537 $689 $773 reversed $544 $-1 #
vertex $-1 $538 $778 #
straight-curve $-1 -76.035035248878444 0 -17.589359174682691 0 1 0 I I #
point $-1 -76.035035248878444 -41.763926035624685 -17.589359174682691 #
point $-1 76.035035248878444 -41.763926035624685 -17.589359174682691 #
coedge $-1 $689 $774 $546 $701 reversed $531 $-1 #
edge $-1 $702 -76.035035248878444 $704 76.035035248878444 $700 $779 forward 7 unknown #
vertex $-1 $547 $780 #
straight-curve $-1 -76.035035248878444 -51.515721849915678 -10.986599211291718 0 -1 0 I I #
vertex $-1 $548 $781 #
straight-curve $-1 76.035035248878444 -51.515721849915678 -10.986599211291718 0 1 0 I I #
edge $-1 $707 92.694804362477015 $710 98.387203878127096 $552 $782 forward 7 unknown #
vertex $-1 $566 $783 #
straight-curve $-1 64.031326954388732 -19.057536095156017 17.589359174682698 1 0 0 I I #
edge $-1 $710 -11.963871501660769 $563 -2.2234576853297288 $562 $784 forward 7 unknown #
vertex $-1 $709 $785 #
straight-curve $-1 -2.2868391288154442 -19.057536095156017 142.24645269662551 -0.51503806187062418 0 0.85716730853699208 I I #
point $-1 72.614696670010233 -19.057536095156017 17.589359174682713 #
point $-1 76.035035248878444 -9.3171222788249768 11.896959659032603 #
straight-curve $-1 76.035035248878444 0 17.589359174682691 0 1 0 I I #
vertex $-1 $569 $786 #
point $-1 73.222655050293909 -17.109453331889807 13.497567617231265 #
vertex $-1 $573 $787 #
point $-1 73.222655050293909 -14.187329186990496 13.497567617231265 #
vertex $-1 $577 $788 #
point $-1 73.222655050293909 -11.265205042091186 13.497567617231265 #
edge $-1 $722 92.694804362477015 $725 98.387203878127096 $582 $789 forward 7 unknown #
vertex $-1 $596 $790 #
straight-curve $-1 64.031326954388732 12.954594126177676 17.589359174682698 1 0 0 I I #
edge $-1 $725 4.0421936090060786 $593 13.782607425337119 $592 $791 forward 7 unknown #
vertex $-1 $724 $792 #
straight-curve $-1 -2.2868391288154442 12.954594126177676 142.24645269662551 -0.51503806187062418 0 0.85716730853699208 I I #
point $-1 72.614696670010233 12.954594126177676 17.589359174682713 #
point $-1 76.035035248878444 22.695007942508717 11.896959659032603 #
straight-curve $-1 76.035035248878444 0 17.589359174682691 0 1 0 I I #
vertex $-1 $599 $793 #
point $-1 73.222655050293909 14.902676889443889 13.497567617231265 #
vertex $-1 $603 $794 #
point $-1 73.222655050293909 17.824801034343196 13.497567617231265 #
vertex $-1 $607 $795 #
point $-1 73.222655050293909 20.746925179242503 13.497567617231265 #
coedge $-1 $622 $621 $614 $737 forward $611 $-1 #
edge $-1 $738 27.520057843680554 $741 33.212457359330642 $736 $796 forward 7 unknown #
vertex $-1 $626 $797 #
straight-curve $-1 -103.19226414323568 -9.3171222788249768 17.589359174682691 -1 0 0 I I #
edge $-1 $741 2.2234576853297288 $623 11.963871501660769 $622 $798 forward 7 unknown #
vertex $-1 $740 $799 #
straight-curve $-1 -76.035035248878444 -9.3171222788249768 11.896959659032603 0.51503806187062418 0 0.85716730853699208 I I #
point $-1 -72.614696670010233 -9.3171222788249768 17.589359174682691 #
point $-1 -76.035035248878444 -19.057536095156017 11.896959659032603 #
straight-curve $-1 -76.035035248878444 0 17.589359174682691 0 -1 0 I I #
vertex $-1 $629 $800 #
point $-1 -72.707616988423268 -17.109453331889807 14.354734925768247 #
vertex $-1 $633 $801 #
point $-1 -72.707616988423268 -14.187329186990496 14.354734925768247 #
vertex $-1 $637 $802 #
point $-1 -72.707616988423268 -11.265205042091186 14.354734925768247 #
coedge $-1 $652 $651 $644 $753 forward $641 $-1 #
edge $-1 $754 27.520057843680554 $757 33.212457359330642 $752 $803 forward 7 unknown #
vertex $-1 $656 $804 #
straight-curve $-1 -103.19226414323568 22.695007942508717 17.589359174682691 -1 0 0 I I #
edge $-1 $757 -13.782607425337119 $653 -4.0421936090060786 $652 $805 forward 7 unknown #
vertex $-1 $756 $806 #
straight-curve $-1 -76.035035248878444 22.695007942508717 11.896959659032603 0.51503806187062418 0 0.85716730853699208 I I #
point $-1 -72.614696670010233 22.695007942508717 17.589359174682691 #
point $-1 -76.035035248878444 12.954594126177676 11.896959659032603 #
straight-curve $-1 -76.035035248878444 0 17.589359174682691 0 -1 0 I I #
vertex $-1 $659 $807 #
point $-1 -72.707616988423268 14.902676889443889 14.354734925768247 #
vertex $-1 $663 $808 #
point $-1 -72.707616988423268 17.824801034343196 14.354734925768247 #
vertex $-1 $667 $809 #
point $-1 -72.707616988423268 20.746925179242503 14.354734925768247 #
straight-curve $-1 -76.035035248878444 41.763926035624685 0 0 0 -1 I I #
straight-curve $-1 -76.035035248878444 0 -17.589359174682691 0 1 0 I I #
point $-1 -76.035035248878444 -41.763926035624685 -17.589359174682691 #
point $-1 -76.035035248878444 41.763926035624685 -17.589359174682691 #
straight-curve $-1 -76.035035248878444 -41.763926035624685 0 0 0 -1 I I #
edge $-1 $702 -3.3013799816954865 $696 3.3013799816954865 $695 $810 forward 7 unknown #
coedge $-1 $700 $691 $690 $775 reversed $531 $-1 #
edge $-1 $704 -3.3013799816954865 $693 3.3013799816954865 $690 $811 forward 7 unknown #
straight-curve $-1 0 -61.267517664206679 -17.589359174682691 -1 0 0 I I #
point $-1 76.035035248878444 -61.267517664206679 -17.589359174682691 #
point $-1 -76.035035248878444 -61.267517664206679 -17.589359174682691 #
straight-curve $-1 0 -61.267517664206679 -10.986599211291718 1 0 0 I I #
point $-1 -76.035035248878444 -61.267517664206679 -10.986599211291718 #
point $-1 76.035035248878444 -61.267517664206679 -10.986599211291718 #
straight-curve $-1 76.035035248878444 -19.057536095156017 110.2841635371597 0 0 -1 I I #
point $-1 76.035035248878444 -19.057536095156017 17.589359174682691 #
straight-curve $-1 76.035035248878444 -7.093664593495248 11.896959659032618 0 1 0 I I #
point $-1 76.035035248878444 -19.057536095156017 11.896959659032603 #
point $-1 72.536552365090103 -17.109453331889807 13.668632240564449 #
point $-1 72.536552365090103 -14.187329186990496 13.668632240564449 #
point $-1 72.536552365090103 -11.265205042091186 13.668632240564449 #
straight-curve $-1 76.035035248878444 12.954594126177676 110.2841635371597 0 0 -1 I I #
point $-1 76.035035248878444 12.954594126177676 17.589359174682691 #
straight-curve $-1 76.035035248878444 8.9124005171715979 11.896959659032618 0 1 0 I I #
point $-1 76.035035248878444 12.954594126177676 11.896959659032603 #
point $-1 72.536552365090103 14.902676889443889 13.668632240564449 #
point $-1 72.536552365090103 17.824801034343196 13.668632240564449 #
point $-1 72.536552365090103 20.746925179242503 13.668632240564449 #
straight-curve $-1 -76.035035248878444 -9.3171222788249768 45.109417018363246 0 0 -1 I I #
point $-1 -76.035035248878444 -9.3171222788249768 17.589359174682691 #
straight-curve $-1 -76.035035248878444 -7.093664593495248 11.896959659032612 0 -1 0 I I #
point $-1 -76.035035248878444 -9.3171222788249768 11.896959659032603 #
point $-1 -72.536552365090088 -17.109453331889807 13.668632240564438 #
point $-1 -72.536552365090088 -14.187329186990496 13.668632240564438 #
point $-1 -72.536552365090088 -11.265205042091186 13.668632240564438 #
straight-curve $-1 -76.035035248878444 22.695007942508717 45.109417018363246 0 0 -1 I I #
point $-1 -76.035035248878444 22.695007942508717 17.589359174682691 #
straight-curve $-1 -76.035035248878444 8.9124005171715979 11.896959659032612 0 -1 0 I I #
point $-1 -76.035035248878444 22.695007942508717 11.896959659032603 #
point $-1 -72.536552365090088 14.902676889443889 13.668632240564438 #
point $-1 -72.536552365090088 17.824801034343196 13.668632240564438 #
point $-1 -72.536552365090088 20.746925179242503 13.668632240564438 #
straight-curve $-1 -76.035035248878444 -61.267517664206679 -14.287979192987205 0 0 -1 I I #
straight-curve $-1 76.035035248878444 -61.267517664206679 -14.287979192987205 0 0 -1 I I #
End-of-ACIS-data 