500 0 8 0           
7 Unknown 11 ACIS 5.0 NT 24 Thu Mar 25 23:29:16 1999 
-1 9.9999999999999995e-007 1e-010 
body $-1 $8 $-1 $9 #
body $-1 $10 $-1 $11 #
body $-1 $12 $-1 $13 #
body $-1 $14 $-1 $15 #
body $-1 $16 $-1 $17 #
body $-1 $18 $-1 $19 #
body $-1 $20 $-1 $21 #
body $-1 $22 $-1 $23 #
lump $-1 $-1 $24 $0 #
transform $-1 1 0 0 0 1 0 0 0 1 49.192175054170356 32.128568960136548 13.351294659340047 1 rotate no_reflect no_shear #
lump $-1 $-1 $25 $1 #
transform $-1 1 0 0 0 1 0 0 0 1 49.192175054170356 32.128568960136548 13.351294659340047 1 rotate no_reflect no_shear #
lump $-1 $-1 $26 $2 #
transform $-1 1 0 0 0 1 0 0 0 1 49.192175054170356 32.128568960136548 13.351294659340047 1 rotate no_reflect no_shear #
lump $-1 $-1 $27 $3 #
transform $-1 1 0 0 0 1 0 0 0 1 49.192175054170356 32.128568960136548 13.351294659340047 1 rotate no_reflect no_shear #
lump $-1 $-1 $28 $4 #
transform $-1 1 0 0 0 1 0 0 0 1 49.192175054170356 32.128568960136548 13.351294659340047 1 rotate no_reflect no_shear #
lump $-1 $-1 $29 $5 #
transform $-1 1 0 0 0 1 0 0 0 1 49.192175054170356 32.128568960136548 13.351294659340047 1 rotate no_reflect no_shear #
lump $-1 $-1 $30 $6 #
transform $-1 1 0 0 0 1 0 0 0 1 49.192175054170356 32.128568960136548 13.351294659340047 1 rotate no_reflect no_shear #
lump $-1 $-1 $31 $7 #
transform $-1 1 0 0 0 1 0 0 0 1 49.192175054170356 32.128568960136548 13.351294659340047 1 rotate no_reflect no_shear #
shell $-1 $-1 $-1 $32 $-1 $8 #
shell $-1 $-1 $-1 $33 $-1 $10 #
shell $-1 $-1 $-1 $34 $-1 $12 #
shell $-1 $-1 $-1 $35 $-1 $14 #
shell $-1 $-1 $-1 $36 $-1 $16 #
shell $-1 $-1 $-1 $37 $-1 $18 #
shell $-1 $-1 $-1 $38 $-1 $20 #
shell $-1 $-1 $-1 $39 $-1 $22 #
face $-1 $40 $41 $24 $-1 $42 reversed single #
face $-1 $43 $44 $25 $-1 $45 forward single #
face $-1 $46 $47 $26 $-1 $48 forward single #
face $-1 $49 $50 $27 $-1 $51 reversed single #
face $-1 $52 $53 $28 $-1 $54 forward single #
face $-1 $55 $56 $29 $-1 $57 reversed single #
face $-1 $58 $59 $30 $-1 $60 forward single #
face $-1 $61 $62 $31 $-1 $63 forward single #
face $-1 $64 $65 $24 $-1 $66 forward single #
loop $-1 $-1 $67 $32 #
plane-surface $-1 49.192175054170356 0 0 -1 0 0 0 0 1 forward_v I I I I #
face $-1 $68 $69 $25 $-1 $70 reversed single #
loop $-1 $-1 $71 $33 #
plane-surface $-1 -49.192175054170356 0 0 1 0 0 0 0 -1 forward_v I I I I #
face $-1 $72 $73 $26 $-1 $74 reversed single #
loop $-1 $-1 $75 $34 #
plane-surface $-1 49.192175054170356 0 0 -1 0 0 0 0 1 forward_v I I I I #
face $-1 $76 $77 $27 $-1 $78 reversed single #
loop $-1 $-1 $79 $35 #
plane-surface $-1 33.358342096598662 -87.144400068325297 85.868226799393227 -1 0 0 0 -0.55919291073839883 0.82903756765294845 forward_v I I I I #
face $-1 $80 $81 $28 $-1 $82 forward single #
loop $-1 $83 $84 $36 #
cone-surface $-1 23.005749100951498 -23.549718956904265 6.0519543721230296 0 0.55919291073839883 -0.82903756765294845 2 0 0 1 I I 0 1 2 forward I I I I #
face $-1 $85 $86 $29 $-1 $87 reversed single #
loop $-1 $-1 $88 $37 #
plane-surface $-1 -20.209764763884635 64.223706449361927 119.13335130732661 1 0 0 0 -0.75470958851134928 -0.65605901945558964 forward_v I I I I #
face $-1 $89 $90 $30 $-1 $91 forward single #
loop $-1 $92 $93 $38 #
cone-surface $-1 -15.649018386161657 26.884162554225313 7.9055234167587916 0 -0.75470958851134928 -0.65605901945558964 1.5 0 0 1 I I 0 1 1.5 forward I I I I #
face $-1 $94 $95 $31 $-1 $96 forward single #
loop $-1 $97 $98 $39 #
cone-surface $-1 -8.8078988195771899 26.884162554225313 7.9055234167587916 0 -0.75470958851134928 -0.65605901945558964 1.5 0 0 1 I I 0 1 1.5 forward I I I I #
face $-1 $99 $100 $24 $-1 $101 reversed single #
loop $-1 $-1 $102 $40 #
plane-surface $-1 0 0 13.351294659340047 0 0 1 1 0 0 forward_v I I I I #
coedge $-1 $103 $104 $105 $106 reversed $41 $-1 #
face $-1 $107 $108 $25 $-1 $109 forward single #
loop $-1 $-1 $110 $43 #
plane-surface $-1 0 32.128568960136548 0 0 -1 0 0 0 -1 forward_v I I I I #
coedge $-1 $111 $112 $113 $114 forward $44 $-1 #
face $-1 $115 $116 $26 $-1 $117 forward single #
loop $-1 $-1 $118 $46 #
plane-surface $-1 0 -32.128568960136548 0 0 1 0 0 0 1 forward_v I I I I #
coedge $-1 $119 $120 $121 $122 forward $47 $-1 #
face $-1 $123 $124 $27 $-1 $125 reversed single #
loop $-1 $-1 $126 $49 #
plane-surface $-1 23.005749100951498 -32.128568960136548 4.3039044904583506 0 -0.55919291073839883 0.82903756765294845 1 0 0 forward_v I I I I #
coedge $-1 $127 $128 $129 $130 reversed $50 $-1 #
face $-1 $-1 $131 $28 $-1 $132 forward single #
loop $-1 $133 $134 $52 #
cone-surface $-1 23.005749100951498 -21.118329681757892 2.4472716016939131 0 0.55919291073839883 -0.82903756765294845 1 0 0 1 I I -0.70710678118654746 0.70710678118654746 1 forward I I I I #
loop $-1 $-1 $135 $36 #
coedge $-1 $84 $84 $136 $137 reversed $53 $-1 #
face $-1 $138 $139 $29 $-1 $140 reversed single #
loop $-1 $-1 $141 $55 #
plane-surface $-1 -12.228458602869424 -10.027905936860407 54.587411045473175 0 0.75470958851134928 0.65605901945558964 1 0 0 forward_v I I I I #
coedge $-1 $142 $143 $144 $145 reversed $56 $-1 #
face $-1 $-1 $146 $30 $-1 $147 forward single #
loop $-1 $148 $149 $58 #
cone-surface $-1 -15.649018386161657 24.228957315998272 5.597388775882445 0 -0.75470958851134928 -0.65605901945558964 0.75 0 0 1 I I -0.70710678118654757 0.70710678118654757 0.75 forward I I I I #
loop $-1 $-1 $150 $38 #
coedge $-1 $93 $93 $151 $152 reversed $59 $-1 #
face $-1 $-1 $153 $31 $-1 $154 forward single #
loop $-1 $155 $156 $61 #
cone-surface $-1 -8.8078988195771899 24.228957315998272 5.597388775882445 0 -0.75470958851134928 -0.65605901945558964 0.75 0 0 1 I I -0.70710678118654757 0.70710678118654757 0.75 forward I I I I #
loop $-1 $-1 $157 $39 #
coedge $-1 $98 $98 $158 $159 reversed $62 $-1 #
face $-1 $160 $161 $24 $-1 $162 reversed single #
loop $-1 $-1 $163 $64 #
plane-surface $-1 0 0 -13.351294659340047 0 0 1 1 0 0 forward_v I I I I #
coedge $-1 $164 $165 $103 $166 forward $65 $-1 #
coedge $-1 $167 $67 $102 $166 reversed $41 $-1 #
coedge $-1 $67 $167 $163 $168 reversed $41 $-1 #
coedge $-1 $169 $170 $67 $106 forward $171 $-1 #
edge $-1 $172 -13.351294659340047 $173 13.351294659340047 $67 $174 forward 7 unknown #
face $-1 $175 $176 $25 $-1 $177 reversed single #
loop $-1 $-1 $113 $68 #
plane-surface $-1 -55.940973967146491 0 7.2314449959887863 0 0 1 1 0 0 forward_v I I I I #
coedge $-1 $178 $179 $112 $180 forward $69 $-1 #
coedge $-1 $181 $71 $182 $183 reversed $44 $-1 #
coedge $-1 $71 $181 $110 $180 reversed $44 $-1 #
coedge $-1 $184 $185 $71 $114 reversed $108 $-1 #
edge $-1 $186 -32.128568960136548 $187 32.128568960136548 $113 $188 forward 7 unknown #
face $-1 $189 $190 $26 $-1 $191 reversed single #
loop $-1 $-1 $192 $72 #
plane-surface $-1 55.940973967146498 0 7.2314449959887863 0 0 1 1 0 0 forward_v I I I I #
coedge $-1 $193 $194 $120 $195 forward $73 $-1 #
coedge $-1 $196 $75 $197 $198 reversed $47 $-1 #
coedge $-1 $75 $196 $118 $195 reversed $47 $-1 #
coedge $-1 $199 $200 $75 $122 reversed $116 $-1 #
edge $-1 $201 -32.128568960136548 $202 32.128568960136548 $121 $203 forward 7 unknown #
face $-1 $204 $205 $27 $-1 $206 forward single #
loop $-1 $-1 $207 $76 #
plane-surface $-1 12.653156105304333 -87.144400068325297 85.868226799393227 1 0 0 0 0.55919291073839883 -0.82903756765294845 forward_v I I I I #
coedge $-1 $208 $209 $210 $211 reversed $77 $-1 #
coedge $-1 $128 $79 $212 $213 reversed $50 $-1 #
coedge $-1 $79 $127 $208 $214 reversed $50 $-1 #
coedge $-1 $210 $215 $79 $130 forward $205 $-1 #
edge $-1 $216 11.443631074026101 $217 24.856938351674721 $129 $218 forward 7 unknown #
loop $-1 $-1 $136 $80 #
plane-surface $-1 23.005749100951498 -32.128568960136548 4.3039044904583506 0 -0.55919291073839883 0.82903756765294845 1 0 0 forward_v I I I I #
loop $-1 $-1 $219 $52 #
coedge $-1 $134 $134 $135 $220 reversed $81 $-1 #
coedge $-1 $135 $135 $134 $220 forward $83 $-1 #
coedge $-1 $136 $136 $84 $137 forward $131 $-1 #
edge $-1 $221 1.4726665534200628e-015 $221 6.2831853071796022 $136 $222 forward 7 unknown #
face $-1 $223 $224 $29 $-1 $225 reversed single #
loop $-1 $-1 $226 $85 #
plane-surface $-1 -4.2471524418542117 64.223706449361927 119.13335130732661 -1 0 0 0 0.75470958851134928 0.65605901945558964 forward_v I I I I #
coedge $-1 $227 $228 $229 $230 reversed $86 $-1 #
coedge $-1 $143 $88 $231 $232 reversed $56 $-1 #
coedge $-1 $88 $142 $227 $233 reversed $56 $-1 #
coedge $-1 $229 $234 $88 $145 forward $235 $-1 #
edge $-1 $236 -0.016715735455584024 $237 6.2937509826798035 $144 $238 forward 7 unknown #
loop $-1 $-1 $151 $89 #
plane-surface $-1 -12.228458602869424 -10.027905936860407 54.587411045473175 0 0.75470958851134928 0.65605901945558964 1 0 0 forward_v I I I I #
loop $-1 $-1 $239 $58 #
coedge $-1 $149 $149 $150 $240 reversed $90 $-1 #
coedge $-1 $150 $150 $149 $240 forward $92 $-1 #
coedge $-1 $151 $151 $93 $152 forward $146 $-1 #
edge $-1 $241 4.6730296814113435e-016 $241 6.2831853071796013 $151 $242 forward 7 unknown #
loop $-1 $-1 $158 $94 #
plane-surface $-1 -12.228458602869424 -10.027905936860407 54.587411045473175 0 0.75470958851134928 0.65605901945558964 1 0 0 forward_v I I I I #
loop $-1 $-1 $243 $61 #
coedge $-1 $156 $156 $157 $244 reversed $95 $-1 #
coedge $-1 $157 $157 $156 $244 forward $97 $-1 #
coedge $-1 $158 $158 $98 $159 forward $153 $-1 #
edge $-1 $245 4.6730296814113435e-016 $245 6.2831853071796013 $158 $246 forward 7 unknown #
face $-1 $247 $248 $24 $-1 $249 reversed single #
loop $-1 $-1 $250 $99 #
plane-surface $-1 0 -32.128568960136548 0 0 1 0 0 0 1 forward_v I I I I #
coedge $-1 $251 $252 $104 $168 forward $100 $-1 #
coedge $-1 $253 $102 $170 $254 forward $65 $-1 #
coedge $-1 $102 $253 $255 $256 forward $65 $-1 #
edge $-1 $257 -32.128568960136548 $172 32.128568960136548 $103 $258 forward 7 unknown #
coedge $-1 $104 $103 $259 $260 forward $41 $-1 #
edge $-1 $173 -32.128568960136548 $261 32.128568960136548 $104 $262 forward 7 unknown #
coedge $-1 $263 $105 $252 $264 reversed $171 $-1 #
coedge $-1 $105 $263 $164 $254 reversed $171 $-1 #
loop $-1 $-1 $105 $247 #
vertex $-1 $166 $265 #
vertex $-1 $168 $266 #
straight-curve $-1 49.192175054170356 32.128568960136548 0 0 0 -1 I I #
face $-1 $267 $268 $25 $-1 $269 reversed single #
loop $-1 $-1 $270 $107 #
plane-surface $-1 -55.940973967146491 0 2.0310124346570486 0 0 1 1 0 0 forward_v I I I I #
coedge $-1 $271 $110 $272 $273 reversed $69 $-1 #
coedge $-1 $110 $271 $184 $274 reversed $69 $-1 #
edge $-1 $186 -7.2314449959887863 $275 -2.0310124346570486 $110 $276 forward 7 unknown #
coedge $-1 $112 $111 $270 $277 forward $44 $-1 #
coedge $-1 $278 $279 $111 $183 forward $280 $-1 #
edge $-1 $281 2.0310124346570486 $187 7.2314449959887863 $182 $282 forward 7 unknown #
coedge $-1 $283 $113 $179 $274 forward $108 $-1 #
coedge $-1 $113 $283 $278 $284 forward $108 $-1 #
vertex $-1 $180 $285 #
vertex $-1 $284 $286 #
straight-curve $-1 -49.192175054170356 0 7.2314449959887863 0 -1 0 I I #
face $-1 $287 $288 $26 $-1 $289 reversed single #
loop $-1 $-1 $290 $115 #
plane-surface $-1 55.940973967146498 0 2.0310124346570486 0 0 1 1 0 0 forward_v I I I I #
coedge $-1 $200 $199 $291 $292 forward $116 $-1 #
coedge $-1 $293 $118 $294 $295 reversed $73 $-1 #
coedge $-1 $118 $293 $199 $296 reversed $73 $-1 #
edge $-1 $201 -7.2314449959887863 $297 -2.0310124346570486 $118 $298 forward 7 unknown #
coedge $-1 $120 $119 $299 $300 forward $47 $-1 #
coedge $-1 $301 $302 $119 $198 forward $303 $-1 #
edge $-1 $304 2.0310124346570486 $202 7.2314449959887863 $197 $305 forward 7 unknown #
coedge $-1 $192 $121 $194 $296 forward $116 $-1 #
coedge $-1 $121 $192 $301 $306 forward $116 $-1 #
vertex $-1 $195 $307 #
vertex $-1 $306 $308 #
straight-curve $-1 49.192175054170356 0 7.2314449959887863 0 1 0 I I #
face $-1 $-1 $309 $27 $-1 $310 reversed single #
loop $-1 $-1 $129 $123 #
plane-surface $-1 0 0 13.351294659340047 0 0 1 1 0 0 forward_v I I I I #
coedge $-1 $311 $312 $313 $314 reversed $124 $-1 #
coedge $-1 $315 $126 $128 $214 forward $77 $-1 #
coedge $-1 $126 $315 $311 $316 forward $77 $-1 #
coedge $-1 $313 $129 $126 $211 forward $205 $-1 #
edge $-1 $217 -21.855467546122913 $317 -1.1502815548285845 $210 $318 forward 7 unknown #
coedge $-1 $319 $320 $127 $213 forward $309 $-1 #
edge $-1 $321 -38.630208909238263 $216 -29.582818740356565 $212 $322 forward 7 unknown #
edge $-1 $217 -16.179372082766335 $321 0 $128 $323 forward 7 unknown #
coedge $-1 $129 $313 $319 $324 forward $205 $-1 #
vertex $-1 $213 $325 #
vertex $-1 $130 $326 #
straight-curve $-1 33.358342096598662 -43.572200034162648 13.351294659340049 0 1 0 I I #
coedge $-1 $219 $219 $-1 $327 reversed $133 $-1 #
edge $-1 $328 0 $328 6.2831853071796004 $134 $329 forward 7 unknown #
vertex $-1 $137 $330 #
ellipse-curve $-1 23.005749100951498 -25.421915321312238 8.8275995748991978 0 -0.55919291073839883 0.82903756765294845 2 0 0 1 I I #
face $-1 $-1 $235 $29 $-1 $331 forward single #
loop $-1 $-1 $332 $138 #
plane-surface $-1 0 32.128568960136548 0 0 -1 0 0 0 -1 forward_v I I I I #
coedge $-1 $333 $334 $335 $336 reversed $139 $-1 #
coedge $-1 $337 $141 $143 $233 forward $86 $-1 #
coedge $-1 $141 $337 $333 $338 forward $86 $-1 #
coedge $-1 $335 $144 $141 $230 forward $235 $-1 #
edge $-1 $237 -14.095535462449924 $339 1.8670768595805001 $229 $340 forward 7 unknown #
coedge $-1 $341 $342 $142 $232 forward $224 $-1 #
edge $-1 $343 -53.474742726916453 $236 -46.215380994323255 $231 $344 forward 7 unknown #
edge $-1 $237 54.638389406805622 $343 64.257137920273109 $143 $345 forward 7 unknown #
coedge $-1 $144 $335 $341 $346 forward $235 $-1 #
loop $-1 $-1 $335 $223 #
vertex $-1 $232 $347 #
vertex $-1 $145 $348 #
straight-curve $-1 -20.209764763884635 32.111853224680964 13.351294659340049 0 -1 0 I I #
coedge $-1 $239 $239 $-1 $349 reversed $148 $-1 #
edge $-1 $350 0 $350 6.2831853071796004 $149 $351 forward 7 unknown #
vertex $-1 $152 $352 #
ellipse-curve $-1 -15.649018386161657 28.97333560106885 9.7216137930434527 0 0.75470958851134928 0.65605901945558964 1.5 0 0 1 I I #
coedge $-1 $243 $243 $-1 $353 reversed $155 $-1 #
edge $-1 $354 0 $354 6.2831853071796004 $156 $355 forward 7 unknown #
vertex $-1 $159 $356 #
ellipse-curve $-1 -8.8078988195771899 28.97333560106885 9.7216137930434527 0 0.75470958851134928 0.65605901945558964 1.5 0 0 1 I I #
face $-1 $-1 $171 $24 $-1 $357 reversed single #
loop $-1 $-1 $358 $160 #
plane-surface $-1 -49.192175054170356 0 0 1 0 0 0 0 -1 forward_v I I I I #
coedge $-1 $359 $255 $358 $360 forward $161 $-1 #
coedge $-1 $361 $163 $359 $362 forward $100 $-1 #
coedge $-1 $163 $361 $169 $264 forward $100 $-1 #
coedge $-1 $165 $164 $363 $364 forward $65 $-1 #
edge $-1 $172 -49.192175054170356 $365 49.192175054170356 $170 $366 forward 7 unknown #
coedge $-1 $250 $259 $165 $256 reversed $161 $-1 #
edge $-1 $367 -49.192175054170356 $257 49.192175054170356 $255 $368 forward 7 unknown #
vertex $-1 $166 $369 #
straight-curve $-1 49.192175054170356 0 13.351294659340047 0 1 0 I I #
coedge $-1 $255 $359 $167 $260 reversed $161 $-1 #
edge $-1 $257 -13.351294659340047 $261 13.351294659340047 $167 $370 forward 7 unknown #
vertex $-1 $260 $371 #
straight-curve $-1 49.192175054170356 0 -13.351294659340047 0 -1 0 I I #
coedge $-1 $170 $169 $372 $373 reversed $171 $-1 #
edge $-1 $374 -49.192175054170356 $173 49.192175054170356 $169 $375 forward 7 unknown #
point $-1 49.192175054170356 32.128568960136548 13.351294659340047 #
point $-1 49.192175054170356 32.128568960136548 -13.351294659340047 #
face $-1 $-1 $280 $25 $-1 $376 reversed single #
loop $-1 $-1 $377 $175 #
plane-surface $-1 -62.689772880122625 0 4.6312287153229175 1 0 0 0 0 -1 forward_v I I I I #
coedge $-1 $378 $272 $181 $277 reversed $176 $-1 #
coedge $-1 $179 $178 $377 $379 reversed $69 $-1 #
coedge $-1 $270 $380 $178 $273 forward $176 $-1 #
edge $-1 $381 -6.7487989129761345 $275 6.7487989129761345 $178 $382 forward 7 unknown #
edge $-1 $186 -6.7487989129761345 $383 6.7487989129761345 $179 $384 forward 7 unknown #
vertex $-1 $180 $385 #
straight-curve $-1 -49.192175054170356 32.128568960136548 0 0 0 -1 I I #
edge $-1 $281 -32.128568960136548 $275 32.128568960136548 $270 $386 forward 7 unknown #
coedge $-1 $387 $182 $185 $284 reversed $280 $-1 #
coedge $-1 $182 $387 $378 $388 reversed $280 $-1 #
loop $-1 $-1 $182 $267 #
vertex $-1 $183 $389 #
straight-curve $-1 -49.192175054170356 -32.128568960136548 0 0 0 1 I I #
coedge $-1 $185 $184 $390 $391 forward $108 $-1 #
edge $-1 $392 -6.7487989129761345 $187 6.7487989129761345 $278 $393 forward 7 unknown #
point $-1 -49.192175054170356 32.128568960136548 7.2314449959887863 #
point $-1 -49.192175054170356 -32.128568960136548 7.2314449959887863 #
face $-1 $-1 $303 $26 $-1 $394 reversed single #
loop $-1 $-1 $395 $189 #
plane-surface $-1 62.689772880122632 0 4.6312287153229175 -1 0 0 0 0 1 forward_v I I I I #
coedge $-1 $294 $396 $397 $398 forward $190 $-1 #
coedge $-1 $395 $399 $192 $292 reversed $288 $-1 #
edge $-1 $400 -32.128568960136548 $401 32.128568960136548 $291 $402 forward 7 unknown #
coedge $-1 $194 $193 $395 $403 reversed $73 $-1 #
coedge $-1 $299 $290 $193 $295 forward $190 $-1 #
edge $-1 $404 -6.7487989129761345 $297 6.7487989129761345 $193 $405 forward 7 unknown #
edge $-1 $201 -6.7487989129761345 $400 6.7487989129761345 $194 $406 forward 7 unknown #
vertex $-1 $195 $407 #
straight-curve $-1 49.192175054170356 -32.128568960136548 0 0 0 -1 I I #
coedge $-1 $396 $294 $196 $300 reversed $190 $-1 #
edge $-1 $304 -32.128568960136548 $297 32.128568960136548 $299 $408 forward 7 unknown #
coedge $-1 $409 $197 $200 $306 reversed $303 $-1 #
coedge $-1 $197 $409 $396 $410 reversed $303 $-1 #
loop $-1 $-1 $197 $287 #
vertex $-1 $198 $411 #
straight-curve $-1 49.192175054170356 32.128568960136548 0 0 0 1 I I #
edge $-1 $401 -6.7487989129761345 $202 6.7487989129761345 $301 $412 forward 7 unknown #
point $-1 49.192175054170363 -32.128568960136548 7.2314449959887863 #
point $-1 49.192175054170363 32.128568960136548 7.2314449959887863 #
loop $-1 $-1 $212 $204 #
plane-surface $-1 0 -32.128568960136548 0 0 1 0 0 0 1 forward_v I I I I #
coedge $-1 $312 $207 $209 $316 reversed $124 $-1 #
coedge $-1 $207 $311 $413 $414 reversed $124 $-1 #
coedge $-1 $215 $210 $207 $314 forward $205 $-1 #
edge $-1 $317 -24.856938351674721 $415 -11.443631074026101 $313 $416 forward 7 unknown #
coedge $-1 $209 $208 $320 $417 reversed $77 $-1 #
edge $-1 $418 0 $317 16.179372082766335 $311 $419 forward 7 unknown #
vertex $-1 $211 $420 #
straight-curve $-1 11.502874550475749 -18.715261682487931 13.351294659340047 -1 0 0 I I #
coedge $-1 $413 $212 $215 $324 reversed $309 $-1 #
coedge $-1 $212 $413 $315 $417 forward $309 $-1 #
vertex $-1 $213 $421 #
straight-curve $-1 33.358342096598662 -32.128568960136548 42.934113399696614 0 0 1 I I #
straight-curve $-1 33.358342096598662 -32.128568960136548 4.3039044904583506 0 -0.82903756765294845 -0.55919291073839883 I I #
edge $-1 $415 12.653156105304333 $216 33.358342096598662 $319 $422 forward 7 unknown #
point $-1 33.358342096598662 -32.128568960136548 13.351294659340047 #
point $-1 33.358342096598662 -18.715261682487927 13.351294659340049 #
edge $-1 $423 1 $423 0 $219 $-1 forward 7 unknown #
vertex $-1 $220 $424 #
ellipse-curve $-1 23.005749100951498 -21.677522592496292 3.2763091693468613 0 -0.55919291073839883 0.82903756765294845 2 0 0 1 I I #
point $-1 25.005749100951498 -25.421915321312234 8.8275995748991978 #
plane-surface $-1 0 0 13.351294659340047 0 0 1 1 0 0 forward_v I I I I #
coedge $-1 $342 $341 $334 $425 forward $224 $-1 #
coedge $-1 $334 $226 $228 $338 reversed $139 $-1 #
coedge $-1 $226 $333 $332 $425 reversed $139 $-1 #
coedge $-1 $234 $229 $226 $336 forward $235 $-1 #
edge $-1 $339 -6.2937509826798035 $426 0.016715735455584024 $335 $427 forward 7 unknown #
coedge $-1 $228 $227 $342 $428 reversed $86 $-1 #
edge $-1 $429 -64.257137920273109 $339 -54.638389406805622 $333 $430 forward 7 unknown #
vertex $-1 $230 $431 #
straight-curve $-1 -6.1142293014347118 25.818102242001157 13.351294659340045 1 0 0 I I #
coedge $-1 $332 $231 $234 $346 reversed $224 $-1 #
coedge $-1 $231 $332 $337 $428 forward $224 $-1 #
vertex $-1 $232 $432 #
straight-curve $-1 -20.209764763884635 32.128568960136548 59.566675653663303 0 0 1 I I #
straight-curve $-1 -20.209764763884635 -10.027905936860407 54.587411045473175 0 0.65605901945558964 -0.75470958851134928 I I #
edge $-1 $426 4.2471524418542117 $236 20.209764763884635 $341 $433 forward 7 unknown #
point $-1 -20.209764763884635 32.128568960136548 13.351294659340047 #
point $-1 -20.209764763884635 25.81810224200116 13.351294659340049 #
edge $-1 $434 1 $434 0 $239 $-1 forward 7 unknown #
vertex $-1 $240 $435 #
ellipse-curve $-1 -15.649018386161657 24.794989507381786 6.0894330404741375 0 0.75470958851134928 0.65605901945558964 1.5 0 0 1 I I #
point $-1 -14.149018386161657 28.973335601068843 9.7216137930434456 #
edge $-1 $436 1 $436 0 $243 $-1 forward 7 unknown #
vertex $-1 $244 $437 #
ellipse-curve $-1 -8.8078988195771899 24.794989507381786 6.0894330404741375 0 0.75470958851134928 0.65605901945558964 1.5 0 0 1 I I #
point $-1 -7.3078988195771899 28.973335601068843 9.7216137930434456 #
plane-surface $-1 0 32.128568960136548 0 0 -1 0 0 0 -1 forward_v I I I I #
coedge $-1 $363 $438 $250 $360 reversed $248 $-1 #
coedge $-1 $259 $250 $251 $362 reversed $161 $-1 #
edge $-1 $367 -13.351294659340047 $439 13.351294659340047 $358 $440 forward 7 unknown #
coedge $-1 $252 $251 $438 $441 forward $100 $-1 #
edge $-1 $261 -49.192175054170356 $439 49.192175054170356 $359 $442 forward 7 unknown #
coedge $-1 $372 $358 $253 $364 reversed $248 $-1 #
edge $-1 $365 -32.128568960136548 $367 32.128568960136548 $363 $443 forward 7 unknown #
vertex $-1 $254 $444 #
straight-curve $-1 0 32.128568960136548 13.351294659340047 -1 0 0 I I #
vertex $-1 $364 $445 #
straight-curve $-1 0 -32.128568960136548 13.351294659340047 1 0 0 I I #
point $-1 49.192175054170356 -32.128568960136548 13.351294659340047 #
straight-curve $-1 49.192175054170356 -32.128568960136548 0 0 0 -1 I I #
point $-1 49.192175054170356 -32.128568960136548 -13.351294659340047 #
coedge $-1 $438 $363 $263 $373 forward $248 $-1 #
edge $-1 $365 -13.351294659340047 $374 13.351294659340047 $263 $446 forward 7 unknown #
vertex $-1 $264 $447 #
straight-curve $-1 0 32.128568960136548 -13.351294659340047 1 0 0 I I #
plane-surface $-1 0 -32.128568960136548 0 0 1 0 0 0 1 forward_v I I I I #
coedge $-1 $448 $390 $271 $379 forward $268 $-1 #
coedge $-1 $380 $270 $279 $388 forward $176 $-1 #
edge $-1 $383 -2.6002162806658689 $381 2.6002162806658689 $271 $449 forward 7 unknown #
coedge $-1 $272 $378 $448 $450 forward $176 $-1 #
vertex $-1 $273 $451 #
straight-curve $-1 -55.940973967146491 32.128568960136548 2.0310124346570486 1 0 0 I I #
vertex $-1 $274 $452 #
straight-curve $-1 -55.940973967146491 32.128568960136548 7.2314449959887863 -1 0 0 I I #
point $-1 -49.192175054170356 32.128568960136548 2.0310124346570486 #
straight-curve $-1 -49.192175054170356 0 2.0310124346570486 0 1 0 I I #
coedge $-1 $279 $278 $453 $454 forward $280 $-1 #
edge $-1 $281 -6.7487989129761345 $455 6.7487989129761345 $279 $456 forward 7 unknown #
point $-1 -49.192175054170356 -32.128568960136548 2.0310124346570486 #
coedge $-1 $377 $453 $283 $391 reversed $268 $-1 #
edge $-1 $383 -32.128568960136548 $392 32.128568960136548 $390 $457 forward 7 unknown #
vertex $-1 $391 $458 #
straight-curve $-1 -55.940973967146491 -32.128568960136548 7.2314449959887863 1 0 0 I I #
plane-surface $-1 0 32.128568960136548 0 0 -1 0 0 0 -1 forward_v I I I I #
coedge $-1 $397 $291 $293 $403 forward $288 $-1 #
coedge $-1 $290 $299 $302 $410 forward $190 $-1 #
coedge $-1 $399 $395 $290 $398 reversed $288 $-1 #
edge $-1 $459 -32.128568960136548 $404 32.128568960136548 $397 $460 forward 7 unknown #
coedge $-1 $291 $397 $409 $461 reversed $288 $-1 #
vertex $-1 $292 $462 #
vertex $-1 $292 $463 #
straight-curve $-1 62.689772880122632 0 7.2314449959887863 0 1 0 I I #
edge $-1 $400 -2.6002162806658689 $404 2.6002162806658689 $395 $464 forward 7 unknown #
vertex $-1 $403 $465 #
straight-curve $-1 55.940973967146498 -32.128568960136548 2.0310124346570486 -1 0 0 I I #
straight-curve $-1 55.940973967146498 -32.128568960136548 7.2314449959887863 1 0 0 I I #
point $-1 49.192175054170363 -32.128568960136548 2.0310124346570486 #
straight-curve $-1 49.192175054170356 0 2.0310124346570486 0 -1 0 I I #
coedge $-1 $302 $301 $399 $461 forward $303 $-1 #
edge $-1 $304 -6.7487989129761345 $459 6.7487989129761345 $302 $466 forward 7 unknown #
point $-1 49.192175054170363 32.128568960136548 2.0310124346570486 #
straight-curve $-1 55.940973967146498 32.128568960136548 7.2314449959887863 -1 0 0 I I #
coedge $-1 $320 $319 $312 $414 forward $309 $-1 #
edge $-1 $415 29.582818740356565 $418 38.630208909238263 $413 $467 forward 7 unknown #
vertex $-1 $324 $468 #
straight-curve $-1 12.653156105304333 -43.572200034162648 13.351294659340049 0 -1 0 I I #
edge $-1 $418 1.1502815548285845 $321 21.855467546122913 $320 $469 forward 7 unknown #
vertex $-1 $417 $470 #
straight-curve $-1 12.653156105304333 -32.128568960136548 4.3039044904583506 0 0.82903756765294845 0.55919291073839883 I I #
point $-1 12.653156105304333 -18.715261682487927 13.351294659340049 #
point $-1 33.358342096598662 -32.128568960136548 4.3039044904583506 #
straight-curve $-1 0 -32.128568960136548 13.351294659340047 1 0 0 I I #
vertex $-1 $327 $471 #
point $-1 25.005749100951498 -21.677522592496292 3.2763091693468613 #
edge $-1 $426 46.215380994323255 $429 53.474742726916453 $332 $472 forward 7 unknown #
vertex $-1 $346 $473 #
straight-curve $-1 -4.2471524418542117 32.111853224680964 13.351294659340049 0 1 0 I I #
edge $-1 $429 -1.8670768595805001 $343 14.095535462449924 $342 $474 forward 7 unknown #
vertex $-1 $428 $475 #
straight-curve $-1 -4.2471524418542117 -10.027905936860407 54.587411045473175 0 -0.65605901945558964 0.75470958851134928 I I #
point $-1 -4.2471524418542117 25.81810224200116 13.351294659340049 #
point $-1 -20.209764763884635 32.128568960136548 6.0919329267468498 #
straight-curve $-1 0 32.128568960136548 13.351294659340047 -1 0 0 I I #
vertex $-1 $349 $476 #
point $-1 -14.149018386161657 24.794989507381786 6.0894330404741375 #
vertex $-1 $353 $477 #
point $-1 -7.3078988195771899 24.794989507381786 6.0894330404741375 #
coedge $-1 $358 $372 $361 $441 reversed $248 $-1 #
vertex $-1 $441 $478 #
straight-curve $-1 -49.192175054170356 -32.128568960136548 0 0 0 -1 I I #
edge $-1 $439 -32.128568960136548 $374 32.128568960136548 $438 $479 forward 7 unknown #
straight-curve $-1 0 -32.128568960136548 -13.351294659340047 -1 0 0 I I #
straight-curve $-1 -49.192175054170356 0 13.351294659340047 0 -1 0 I I #
point $-1 -49.192175054170356 32.128568960136548 13.351294659340047 #
point $-1 -49.192175054170356 -32.128568960136548 13.351294659340047 #
straight-curve $-1 -49.192175054170356 32.128568960136548 0 0 0 -1 I I #
point $-1 -49.192175054170356 32.128568960136548 -13.351294659340047 #
coedge $-1 $453 $377 $380 $450 reversed $268 $-1 #
straight-curve $-1 -62.689772880122625 32.128568960136548 4.6312287153229175 0 0 -1 I I #
edge $-1 $455 -32.128568960136548 $381 32.128568960136548 $448 $480 forward 7 unknown #
point $-1 -62.689772880122625 32.128568960136548 2.0310124346570486 #
point $-1 -62.689772880122625 32.128568960136548 7.2314449959887863 #
coedge $-1 $390 $448 $387 $454 reversed $268 $-1 #
edge $-1 $392 -2.6002162806658689 $455 2.6002162806658689 $453 $481 forward 7 unknown #
vertex $-1 $450 $482 #
straight-curve $-1 -55.940973967146491 -32.128568960136548 2.0310124346570486 -1 0 0 I I #
straight-curve $-1 -62.689772880122625 0 7.2314449959887863 0 -1 0 I I #
point $-1 -62.689772880122625 -32.128568960136548 7.2314449959887863 #
vertex $-1 $398 $483 #
straight-curve $-1 62.689772880122632 0 2.0310124346570486 0 -1 0 I I #
edge $-1 $401 -2.6002162806658689 $459 2.6002162806658689 $399 $484 forward 7 unknown #
point $-1 62.689772880122632 -32.128568960136548 7.2314449959887863 #
point $-1 62.689772880122632 32.128568960136548 7.2314449959887863 #
straight-curve $-1 62.689772880122632 -32.128568960136548 4.6312287153229175 0 0 -1 I I #
point $-1 62.689772880122632 -32.128568960136548 2.0310124346570486 #
straight-curve $-1 55.940973967146498 32.128568960136548 2.0310124346570486 1 0 0 I I #
straight-curve $-1 12.653156105304333 -32.128568960136548 42.934113399696614 0 0 -1 I I #
point $-1 12.653156105304333 -32.128568960136548 13.351294659340047 #
straight-curve $-1 11.502874550475749 -32.128568960136548 4.3039044904583514 1 0 0 I I #
point $-1 12.653156105304333 -32.128568960136548 4.3039044904583506 #
point $-1 23.005749100951498 -20.559136771019492 1.6182340340409647 #
straight-curve $-1 -4.2471524418542117 32.128568960136548 59.566675653663303 0 0 -1 I I #
point $-1 -4.2471524418542117 32.128568960136548 13.351294659340047 #
straight-curve $-1 -6.1142293014347118 32.128568960136548 6.0919329267468463 -1 0 0 I I #
point $-1 -4.2471524418542117 32.128568960136548 6.0919329267468498 #
point $-1 -15.649018386161657 23.662925124614759 5.1053445112907525 #
point $-1 -8.8078988195771899 23.662925124614759 5.1053445112907525 #
point $-1 -49.192175054170356 -32.128568960136548 -13.351294659340047 #
straight-curve $-1 -49.192175054170356 0 -13.351294659340047 0 1 0 I I #
straight-curve $-1 -62.689772880122625 0 2.0310124346570486 0 1 0 I I #
straight-curve $-1 -62.689772880122625 -32.128568960136548 4.6312287153229175 0 0 -1 I I #
point $-1 -62.689772880122625 -32.128568960136548 2.0310124346570486 #
point $-1 62.689772880122632 32.128568960136548 2.0310124346570486 #
straight-curve $-1 62.689772880122632 32.128568960136548 4.6312287153229175 0 0 -1 I I #
End-of-ACIS-data 