500 0 11 0           
7 Unknown 11 ACIS 5.0 NT 24 Fri Mar 26 18:52:21 1999 
-1 9.9999999999999995e-007 1e-010 
body $-1 $11 $-1 $12 #
body $-1 $13 $-1 $14 #
body $-1 $15 $-1 $16 #
body $-1 $17 $-1 $18 #
body $-1 $19 $-1 $20 #
body $-1 $21 $-1 $22 #
body $-1 $23 $-1 $24 #
body $-1 $25 $-1 $26 #
body $-1 $27 $-1 $28 #
body $-1 $29 $-1 $30 #
body $-1 $31 $-1 $32 #
lump $-1 $-1 $33 $0 #
transform $-1 1 0 0 0 1 0 0 0 1 78.181096835230562 37.667316987755513 11.702882591086954 1 rotate no_reflect no_shear #
lump $-1 $-1 $34 $1 #
transform $-1 1 0 0 0 1 0 0 0 1 78.181096835230562 37.667316987755513 11.702882591086954 1 rotate no_reflect no_shear #
lump $-1 $-1 $35 $2 #
transform $-1 1 0 0 0 1 0 0 0 1 78.181096835230562 37.667316987755513 11.702882591086954 1 rotate no_reflect no_shear #
lump $-1 $-1 $36 $3 #
transform $-1 1 0 0 0 1 0 0 0 1 78.181096835230562 37.667316987755513 11.702882591086954 1 rotate no_reflect no_shear #
lump $-1 $-1 $37 $4 #
transform $-1 1 0 0 0 1 0 0 0 1 78.181096835230562 37.667316987755513 11.702882591086954 1 rotate no_reflect no_shear #
lump $-1 $-1 $38 $5 #
transform $-1 1 0 0 0 1 0 0 0 1 78.181096835230562 37.667316987755513 11.702882591086954 1 rotate no_reflect no_shear #
lump $-1 $-1 $39 $6 #
transform $-1 1 0 0 0 1 0 0 0 1 78.181096835230562 37.667316987755513 11.702882591086954 1 rotate no_reflect no_shear #
lump $-1 $-1 $40 $7 #
transform $-1 1 0 0 0 1 0 0 0 1 78.181096835230562 37.667316987755513 11.702882591086954 1 rotate no_reflect no_shear #
lump $-1 $-1 $41 $8 #
transform $-1 1 0 0 0 1 0 0 0 1 78.181096835230562 37.667316987755513 11.702882591086954 1 rotate no_reflect no_shear #
lump $-1 $-1 $42 $9 #
transform $-1 1 0 0 0 1 0 0 0 1 78.181096835230562 37.667316987755513 11.702882591086954 1 rotate no_reflect no_shear #
lump $-1 $-1 $43 $10 #
transform $-1 1 0 0 0 1 0 0 0 1 78.181096835230562 37.667316987755513 11.702882591086954 1 rotate no_reflect no_shear #
shell $-1 $-1 $-1 $44 $-1 $11 #
shell $-1 $-1 $-1 $45 $-1 $13 #
shell $-1 $-1 $-1 $46 $-1 $15 #
shell $-1 $-1 $-1 $47 $-1 $17 #
shell $-1 $-1 $-1 $48 $-1 $19 #
shell $-1 $-1 $-1 $49 $-1 $21 #
shell $-1 $-1 $-1 $50 $-1 $23 #
shell $-1 $-1 $-1 $51 $-1 $25 #
shell $-1 $-1 $-1 $52 $-1 $27 #
shell $-1 $-1 $-1 $53 $-1 $29 #
shell $-1 $-1 $-1 $54 $-1 $31 #
face $-1 $55 $56 $33 $-1 $57 forward single #
face $-1 $58 $59 $34 $-1 $60 forward single #
face $-1 $61 $62 $35 $-1 $63 reversed single #
face $-1 $64 $65 $36 $-1 $66 forward single #
face $-1 $67 $68 $37 $-1 $69 forward single #
face $-1 $70 $71 $38 $-1 $72 reversed single #
face $-1 $73 $74 $39 $-1 $75 forward single #
face $-1 $76 $77 $40 $-1 $78 forward single #
face $-1 $79 $80 $41 $-1 $81 reversed single #
face $-1 $82 $83 $42 $-1 $84 forward single #
face $-1 $85 $86 $43 $-1 $87 forward single #
face $-1 $88 $89 $33 $-1 $90 reversed single #
loop $-1 $-1 $91 $44 #
plane-surface $-1 0 0 11.702882591086954 0 0 1 1 0 0 forward_v I I I I #
face $-1 $92 $93 $34 $-1 $94 reversed single #
loop $-1 $-1 $95 $45 #
plane-surface $-1 -70.799698379411723 0 8.8289768754174105 0 0 1 1 0 0 forward_v I I I I #
face $-1 $96 $97 $35 $-1 $98 reversed single #
loop $-1 $-1 $99 $46 #
plane-surface $-1 -44.275625159171398 -153.86707340911903 106.61261178329565 1 0 0 0 0.74314483375859142 -0.66913059716165679 forward_v I I I I #
face $-1 $100 $101 $36 $-1 $102 forward single #
loop $-1 $103 $104 $47 #
cone-surface $-1 -38.06212739601299 -30.045769238146917 3.9208295405500375 0 0.74314483375859142 -0.66913059716165679 2.5 0 0 1 I I 0 1 2.5 forward I I I I #
face $-1 $105 $106 $37 $-1 $107 forward single #
loop $-1 $108 $109 $48 #
cone-surface $-1 -28.741880751275367 -30.045769238146917 3.9208295405500375 0 0.74314483375859142 -0.66913059716165679 2.5 0 0 1 I I 0 1 2.5 forward I I I I #
face $-1 $110 $111 $38 $-1 $112 reversed single #
loop $-1 $-1 $113 $49 #
plane-surface $-1 26.524073220240322 -153.86707340911903 106.61261178329565 1 0 0 0 0.74314483375859142 -0.66913059716165679 forward_v I I I I #
face $-1 $114 $115 $39 $-1 $116 forward single #
loop $-1 $117 $118 $50 #
cone-surface $-1 32.73757098339874 -30.045769238146917 3.9208295405500375 0 0.74314483375859142 -0.66913059716165679 2.5 0 0 1 I I 0 1 2.5 forward I I I I #
face $-1 $119 $120 $40 $-1 $121 forward single #
loop $-1 $122 $123 $51 #
cone-surface $-1 42.057817628136348 -30.045769238146917 3.9208295405500375 0 0.74314483375859142 -0.66913059716165679 2.5 0 0 1 I I 0 1 2.5 forward I I I I #
face $-1 $124 $125 $41 $-1 $126 reversed single #
loop $-1 $-1 $127 $52 #
plane-surface $-1 60.645277501521988 111.77394507403805 163.81312552024878 1 0 0 0 -0.77714596973225614 -0.62932038083071107 forward_v I I I I #
face $-1 $128 $129 $42 $-1 $130 forward single #
loop $-1 $131 $132 $53 #
cone-surface $-1 65.655511596867285 35.320006241323043 8.9693826434809445 0 -0.77714596973225614 -0.62932038083071107 0.5 0 0 1 I I 0 1 0.5 forward I I I I #
face $-1 $133 $134 $43 $-1 $135 forward single #
loop $-1 $136 $137 $54 #
cone-surface $-1 73.170862739885251 35.320006241323043 8.9693826434809445 0 -0.77714596973225614 -0.62932038083071107 0.5 0 0 1 I I 0 1 0.5 forward I I I I #
face $-1 $138 $139 $33 $-1 $140 reversed single #
loop $-1 $-1 $141 $55 #
plane-surface $-1 0 0 -11.702882591086954 0 0 1 1 0 0 forward_v I I I I #
coedge $-1 $142 $143 $144 $145 forward $56 $-1 #
face $-1 $146 $147 $34 $-1 $148 reversed single #
loop $-1 $-1 $149 $58 #
plane-surface $-1 -70.799698379411723 0 3.4633014605507535 0 0 1 1 0 0 forward_v I I I I #
coedge $-1 $150 $151 $152 $153 forward $59 $-1 #
face $-1 $154 $155 $35 $-1 $156 reversed single #
loop $-1 $-1 $157 $61 #
plane-surface $-1 -33.402004073644179 -37.667316987755527 1.98588375907336 0 -0.74314483375859142 0.66913059716165679 1 0 0 forward_v I I I I #
coedge $-1 $158 $159 $160 $161 reversed $62 $-1 #
face $-1 $-1 $162 $36 $-1 $163 forward single #
loop $-1 $164 $165 $64 #
cone-surface $-1 -38.06212739601299 -25.869902860853955 0.16086265956784196 0 0.74314483375859142 -0.66913059716165679 1.25 0 0 1 I I -0.70710678118654746 0.70710678118654746 1.25 forward I I I I #
loop $-1 $-1 $166 $47 #
coedge $-1 $104 $104 $167 $168 reversed $65 $-1 #
face $-1 $-1 $169 $37 $-1 $170 forward single #
loop $-1 $171 $172 $67 #
cone-surface $-1 -28.741880751275367 -25.869902860853955 0.16086265956784196 0 0.74314483375859142 -0.66913059716165679 1.25 0 0 1 I I -0.70710678118654746 0.70710678118654746 1.25 forward I I I I #
loop $-1 $-1 $173 $48 #
coedge $-1 $109 $109 $174 $175 reversed $68 $-1 #
face $-1 $176 $177 $38 $-1 $178 reversed single #
loop $-1 $-1 $179 $70 #
plane-surface $-1 37.397694305767544 -37.667316987755527 1.98588375907336 0 -0.74314483375859142 0.66913059716165679 1 0 0 forward_v I I I I #
coedge $-1 $180 $181 $182 $183 reversed $71 $-1 #
face $-1 $-1 $184 $39 $-1 $185 forward single #
loop $-1 $186 $187 $73 #
cone-surface $-1 32.73757098339874 -25.869902860853955 0.16086265956784196 0 0.74314483375859142 -0.66913059716165679 1.25 0 0 1 I I -0.70710678118654746 0.70710678118654746 1.25 forward I I I I #
loop $-1 $-1 $188 $50 #
coedge $-1 $118 $118 $189 $190 reversed $74 $-1 #
face $-1 $-1 $191 $40 $-1 $192 forward single #
loop $-1 $193 $194 $76 #
cone-surface $-1 42.057817628136348 -25.869902860853955 0.16086265956784196 0 0.74314483375859142 -0.66913059716165679 1.25 0 0 1 I I -0.70710678118654746 0.70710678118654746 1.25 forward I I I I #
loop $-1 $-1 $195 $51 #
coedge $-1 $123 $123 $196 $197 reversed $77 $-1 #
face $-1 $198 $199 $41 $-1 $200 forward single #
loop $-1 $-1 $201 $79 #
plane-surface $-1 69.413187168376282 -9.7423035554552939 65.411210252028781 0 0.77714596973225614 0.62932038083071107 1 0 0 forward_v I I I I #
coedge $-1 $202 $203 $204 $205 reversed $80 $-1 #
face $-1 $-1 $206 $42 $-1 $207 forward single #
loop $-1 $208 $209 $82 #
cone-surface $-1 65.655511596867285 34.737146764023848 8.4973923578579118 0 -0.77714596973225614 -0.62932038083071107 0.25 0 0 1 I I -0.70710678118654746 0.70710678118654746 0.25 forward I I I I #
loop $-1 $-1 $210 $53 #
coedge $-1 $132 $132 $211 $212 reversed $83 $-1 #
face $-1 $-1 $213 $43 $-1 $214 forward single #
loop $-1 $215 $216 $85 #
cone-surface $-1 73.170862739885251 34.737146764023848 8.4973923578579118 0 -0.77714596973225614 -0.62932038083071107 0.25 0 0 1 I I -0.70710678118654746 0.70710678118654746 0.25 forward I I I I #
loop $-1 $-1 $217 $54 #
coedge $-1 $137 $137 $218 $219 reversed $86 $-1 #
face $-1 $220 $221 $33 $-1 $222 reversed single #
loop $-1 $-1 $223 $88 #
plane-surface $-1 0 -37.667316987755513 0 0 1 0 0 0 1 forward_v I I I I #
coedge $-1 $224 $225 $226 $227 forward $89 $-1 #
coedge $-1 $228 $91 $229 $230 forward $56 $-1 #
coedge $-1 $91 $228 $231 $232 forward $56 $-1 #
coedge $-1 $233 $234 $91 $145 reversed $235 $-1 #
edge $-1 $236 -37.667316987755513 $237 37.667316987755513 $144 $238 forward 7 unknown #
face $-1 $239 $240 $34 $-1 $241 reversed single #
loop $-1 $-1 $242 $92 #
plane-surface $-1 -63.418299923592883 0 6.1461391679840816 -1 0 0 0 0 1 forward_v I I I I #
coedge $-1 $243 $244 $245 $246 forward $93 $-1 #
coedge $-1 $247 $95 $248 $249 reversed $59 $-1 #
coedge $-1 $95 $247 $250 $251 reversed $59 $-1 #
coedge $-1 $242 $252 $95 $153 reversed $147 $-1 #
edge $-1 $253 -37.667316987755513 $254 37.667316987755513 $152 $255 forward 7 unknown #
face $-1 $256 $257 $35 $-1 $258 forward single #
loop $-1 $-1 $259 $96 #
plane-surface $-1 -22.528382988116956 -153.86707340911903 106.61261178329565 -1 0 0 0 -0.74314483375859142 0.66913059716165679 forward_v I I I I #
coedge $-1 $260 $261 $262 $263 reversed $97 $-1 #
coedge $-1 $159 $99 $264 $265 reversed $62 $-1 #
coedge $-1 $99 $158 $260 $266 reversed $62 $-1 #
coedge $-1 $262 $267 $99 $161 forward $268 $-1 #
edge $-1 $269 41.60342330056087 $270 51.32042213257445 $160 $271 forward 7 unknown #
loop $-1 $-1 $167 $100 #
plane-surface $-1 -33.402004073644179 -37.667316987755527 1.98588375907336 0 -0.74314483375859142 0.66913059716165679 1 0 0 forward_v I I I I #
loop $-1 $-1 $272 $64 #
coedge $-1 $165 $165 $166 $273 reversed $101 $-1 #
coedge $-1 $166 $166 $165 $273 forward $103 $-1 #
coedge $-1 $167 $167 $104 $168 forward $162 $-1 #
edge $-1 $274 0 $274 6.2831853071796004 $167 $275 forward 7 unknown #
loop $-1 $-1 $174 $105 #
plane-surface $-1 -33.402004073644179 -37.667316987755527 1.98588375907336 0 -0.74314483375859142 0.66913059716165679 1 0 0 forward_v I I I I #
loop $-1 $-1 $276 $67 #
coedge $-1 $172 $172 $173 $277 reversed $106 $-1 #
coedge $-1 $173 $173 $172 $277 forward $108 $-1 #
coedge $-1 $174 $174 $109 $175 forward $169 $-1 #
edge $-1 $278 0 $278 6.2831853071796004 $174 $279 forward 7 unknown #
face $-1 $280 $281 $38 $-1 $282 reversed single #
loop $-1 $-1 $283 $110 #
plane-surface $-1 48.271315391294763 -153.86707340911903 106.61261178329565 -1 0 0 0 -0.74314483375859142 0.66913059716165679 forward_v I I I I #
coedge $-1 $284 $285 $286 $287 reversed $111 $-1 #
coedge $-1 $181 $113 $288 $289 reversed $71 $-1 #
coedge $-1 $113 $180 $284 $290 reversed $71 $-1 #
coedge $-1 $286 $291 $113 $183 forward $281 $-1 #
edge $-1 $292 41.60342330056087 $293 51.32042213257445 $182 $294 forward 7 unknown #
loop $-1 $-1 $189 $114 #
plane-surface $-1 37.397694305767544 -37.667316987755527 1.98588375907336 0 -0.74314483375859142 0.66913059716165679 1 0 0 forward_v I I I I #
loop $-1 $-1 $295 $73 #
coedge $-1 $187 $187 $188 $296 reversed $115 $-1 #
coedge $-1 $188 $188 $187 $296 forward $117 $-1 #
coedge $-1 $189 $189 $118 $190 forward $184 $-1 #
edge $-1 $297 0 $297 6.2831853071796004 $189 $298 forward 7 unknown #
loop $-1 $-1 $196 $119 #
plane-surface $-1 37.397694305767544 -37.667316987755527 1.98588375907336 0 -0.74314483375859142 0.66913059716165679 1 0 0 forward_v I I I I #
loop $-1 $-1 $299 $76 #
coedge $-1 $194 $194 $195 $300 reversed $120 $-1 #
coedge $-1 $195 $195 $194 $300 forward $122 $-1 #
coedge $-1 $196 $196 $123 $197 forward $191 $-1 #
edge $-1 $301 0 $301 6.2831853071796004 $196 $302 forward 7 unknown #
face $-1 $303 $304 $41 $-1 $305 reversed single #
loop $-1 $-1 $204 $124 #
plane-surface $-1 0 0 11.702882591086954 0 0 1 1 0 0 forward_v I I I I #
coedge $-1 $306 $307 $308 $309 reversed $125 $-1 #
coedge $-1 $203 $127 $310 $311 reversed $80 $-1 #
coedge $-1 $127 $202 $306 $312 reversed $80 $-1 #
coedge $-1 $308 $313 $127 $205 forward $199 $-1 #
edge $-1 $314 18.219655549263514 $315 22.137131072396201 $204 $316 forward 7 unknown #
loop $-1 $-1 $211 $128 #
plane-surface $-1 69.413187168376282 -9.7423035554552939 65.411210252028781 0 0.77714596973225614 0.62932038083071107 1 0 0 forward_v I I I I #
loop $-1 $-1 $317 $82 #
coedge $-1 $209 $209 $210 $318 reversed $129 $-1 #
coedge $-1 $210 $210 $209 $318 forward $131 $-1 #
coedge $-1 $211 $211 $132 $212 forward $206 $-1 #
edge $-1 $319 -7.5027016842552284e-015 $319 6.2831853071795933 $211 $320 forward 7 unknown #
loop $-1 $-1 $218 $133 #
plane-surface $-1 69.413187168376282 -9.7423035554552939 65.411210252028781 0 0.77714596973225614 0.62932038083071107 1 0 0 forward_v I I I I #
loop $-1 $-1 $321 $85 #
coedge $-1 $216 $216 $217 $322 reversed $134 $-1 #
coedge $-1 $217 $217 $216 $322 forward $136 $-1 #
coedge $-1 $218 $218 $137 $219 forward $213 $-1 #
edge $-1 $323 -7.5027016842552284e-015 $323 6.2831853071795933 $218 $324 forward 7 unknown #
face $-1 $325 $326 $33 $-1 $327 reversed single #
loop $-1 $-1 $328 $138 #
plane-surface $-1 -78.181096835230562 0 0 1 0 0 0 0 -1 forward_v I I I I #
coedge $-1 $329 $231 $330 $331 forward $139 $-1 #
coedge $-1 $332 $141 $329 $333 forward $89 $-1 #
coedge $-1 $141 $332 $334 $335 forward $89 $-1 #
coedge $-1 $234 $233 $141 $227 reversed $235 $-1 #
edge $-1 $336 -37.667316987755513 $337 37.667316987755513 $226 $338 forward 7 unknown #
coedge $-1 $143 $142 $339 $340 forward $56 $-1 #
coedge $-1 $341 $342 $142 $230 reversed $326 $-1 #
edge $-1 $237 -78.181096835230562 $343 78.181096835230562 $229 $344 forward 7 unknown #
coedge $-1 $223 $345 $143 $232 reversed $139 $-1 #
edge $-1 $346 -78.181096835230562 $236 78.181096835230562 $231 $347 forward 7 unknown #
coedge $-1 $226 $144 $345 $348 forward $235 $-1 #
coedge $-1 $144 $226 $341 $349 reversed $235 $-1 #
loop $-1 $-1 $233 $325 #
vertex $-1 $145 $350 #
vertex $-1 $145 $351 #
straight-curve $-1 78.181096835230562 0 11.702882591086954 0 1 0 I I #
face $-1 $352 $353 $34 $-1 $354 reversed single #
loop $-1 $-1 $355 $146 #
plane-surface $-1 0 -37.667316987755513 0 0 1 0 0 0 1 forward_v I I I I #
coedge $-1 $245 $152 $356 $357 reversed $147 $-1 #
coedge $-1 $358 $149 $355 $359 reversed $93 $-1 #
coedge $-1 $149 $358 $360 $361 reversed $93 $-1 #
coedge $-1 $252 $242 $149 $246 reversed $147 $-1 #
edge $-1 $362 -37.667316987755513 $363 37.667316987755513 $245 $364 forward 7 unknown #
coedge $-1 $151 $150 $365 $366 reversed $59 $-1 #
coedge $-1 $367 $368 $150 $249 forward $369 $-1 #
edge $-1 $370 -42.781247645524701 $254 -28.018450733887022 $248 $371 forward 7 unknown #
coedge $-1 $372 $356 $151 $251 forward $240 $-1 #
edge $-1 $253 28.018450733887022 $373 42.781247645524701 $250 $374 forward 7 unknown #
coedge $-1 $152 $245 $367 $375 reversed $147 $-1 #
vertex $-1 $251 $376 #
vertex $-1 $249 $377 #
straight-curve $-1 -63.418299923592883 0 8.8289768754174105 0 1 0 I I #
face $-1 $-1 $268 $35 $-1 $378 reversed single #
loop $-1 $-1 $379 $154 #
plane-surface $-1 0 0 11.702882591086954 0 0 1 1 0 0 forward_v I I I I #
coedge $-1 $380 $381 $382 $383 reversed $155 $-1 #
coedge $-1 $384 $157 $159 $266 forward $97 $-1 #
coedge $-1 $157 $384 $380 $385 forward $97 $-1 #
coedge $-1 $382 $160 $157 $263 forward $268 $-1 #
edge $-1 $270 -27.574623122349308 $386 -5.8273809512948667 $262 $387 forward 7 unknown #
coedge $-1 $388 $389 $158 $265 forward $257 $-1 #
edge $-1 $390 -48.015444545831755 $269 -39.266219716804002 $264 $391 forward 7 unknown #
edge $-1 $270 2.1224720073754982e-014 $390 13.075511516198112 $159 $392 forward 7 unknown #
coedge $-1 $160 $382 $388 $393 reversed $268 $-1 #
loop $-1 $-1 $382 $256 #
vertex $-1 $393 $394 #
vertex $-1 $161 $395 #
straight-curve $-1 -44.275625159171398 -37.667316987755513 53.306305891647824 0 0 -1 I I #
coedge $-1 $272 $272 $-1 $396 reversed $164 $-1 #
edge $-1 $397 0 $397 6.2831853071796004 $165 $398 forward 7 unknown #
vertex $-1 $168 $399 #
ellipse-curve $-1 -38.06212739601299 -33.292704573241636 6.8443831750801625 0 -0.74314483375859142 0.66913059716165679 2.5 0 0 1 I I #
coedge $-1 $276 $276 $-1 $400 reversed $171 $-1 #
edge $-1 $401 0 $401 6.2831853071796004 $172 $402 forward 7 unknown #
vertex $-1 $175 $403 #
ellipse-curve $-1 -28.741880751275367 -33.292704573241636 6.8443831750801625 0 -0.74314483375859142 0.66913059716165679 2.5 0 0 1 I I #
face $-1 $-1 $404 $38 $-1 $405 forward single #
loop $-1 $-1 $182 $176 #
plane-surface $-1 0 -37.667316987755513 0 0 1 0 0 0 1 forward_v I I I I #
coedge $-1 $406 $407 $408 $409 reversed $177 $-1 #
coedge $-1 $410 $179 $181 $290 forward $111 $-1 #
coedge $-1 $179 $410 $406 $411 forward $111 $-1 #
coedge $-1 $408 $182 $179 $287 forward $281 $-1 #
edge $-1 $293 7.8252260673565495 $412 29.572468238410991 $286 $413 forward 7 unknown #
coedge $-1 $414 $415 $180 $289 forward $404 $-1 #
edge $-1 $416 -48.015444545831755 $292 -39.266219716804002 $288 $417 forward 7 unknown #
edge $-1 $293 2.1224720073754982e-014 $416 13.075511516198112 $181 $418 forward 7 unknown #
coedge $-1 $182 $408 $414 $419 reversed $281 $-1 #
vertex $-1 $419 $420 #
vertex $-1 $183 $421 #
straight-curve $-1 26.524073220240322 -37.667316987755513 53.306305891647824 0 0 -1 I I #
coedge $-1 $295 $295 $-1 $422 reversed $186 $-1 #
edge $-1 $423 0 $423 6.2831853071796004 $187 $424 forward 7 unknown #
vertex $-1 $190 $425 #
ellipse-curve $-1 32.73757098339874 -33.292704573241636 6.8443831750801625 0 -0.74314483375859142 0.66913059716165679 2.5 0 0 1 I I #
coedge $-1 $299 $299 $-1 $426 reversed $193 $-1 #
edge $-1 $427 0 $427 6.2831853071796004 $194 $428 forward 7 unknown #
vertex $-1 $197 $429 #
ellipse-curve $-1 42.057817628136348 -33.292704573241636 6.8443831750801625 0 -0.74314483375859142 0.66913059716165679 2.5 0 0 1 I I #
face $-1 $-1 $430 $41 $-1 $431 reversed single #
loop $-1 $-1 $432 $198 #
plane-surface $-1 78.181096835230562 0 0 -1 0 0 0 0 1 forward_v I I I I #
coedge $-1 $433 $201 $203 $312 forward $125 $-1 #
coedge $-1 $201 $433 $432 $434 reversed $125 $-1 #
coedge $-1 $435 $204 $201 $309 forward $199 $-1 #
edge $-1 $315 25.938683917333847 $436 43.474503251042435 $308 $437 forward 7 unknown #
coedge $-1 $438 $439 $202 $311 forward $430 $-1 #
edge $-1 $440 -75.041359683418676 $314 -70.203680169037426 $310 $441 forward 7 unknown #
edge $-1 $315 69.109703649940471 $440 75.334633975510997 $203 $442 forward 7 unknown #
coedge $-1 $204 $435 $438 $443 forward $199 $-1 #
vertex $-1 $311 $444 #
vertex $-1 $205 $445 #
straight-curve $-1 60.645277501521988 55.886972537019027 11.702882591086961 0 -1 0 I I #
coedge $-1 $317 $317 $-1 $446 reversed $208 $-1 #
edge $-1 $447 0 $447 6.2831853071796004 $209 $448 forward 7 unknown #
vertex $-1 $212 $449 #
ellipse-curve $-1 65.655511596867285 35.708579226189187 9.2840428338963132 0 0.77714596973225614 0.62932038083071107 0.5 0 0 1 I I #
coedge $-1 $321 $321 $-1 $450 reversed $215 $-1 #
edge $-1 $451 0 $451 6.2831853071796004 $216 $452 forward 7 unknown #
vertex $-1 $219 $453 #
ellipse-curve $-1 73.170862739885251 35.708579226189187 9.2840428338963132 0 0.77714596973225614 0.62932038083071107 0.5 0 0 1 I I #
face $-1 $-1 $235 $33 $-1 $454 reversed single #
loop $-1 $-1 $341 $220 #
plane-surface $-1 0 37.667316987755513 0 0 -1 0 0 0 -1 forward_v I I I I #
coedge $-1 $455 $339 $342 $456 forward $221 $-1 #
coedge $-1 $345 $223 $224 $333 reversed $139 $-1 #
coedge $-1 $339 $455 $223 $331 reversed $221 $-1 #
edge $-1 $346 -11.702882591086954 $457 11.702882591086954 $330 $458 forward 7 unknown #
coedge $-1 $225 $224 $455 $459 forward $89 $-1 #
edge $-1 $337 -78.181096835230562 $457 78.181096835230562 $329 $460 forward 7 unknown #
coedge $-1 $342 $341 $225 $335 reversed $326 $-1 #
edge $-1 $461 -78.181096835230562 $336 78.181096835230562 $334 $462 forward 7 unknown #
vertex $-1 $227 $463 #
vertex $-1 $348 $464 #
straight-curve $-1 78.181096835230562 0 -11.702882591086954 0 -1 0 I I #
coedge $-1 $328 $330 $228 $340 reversed $221 $-1 #
edge $-1 $343 -37.667316987755513 $346 37.667316987755513 $339 $465 forward 7 unknown #
coedge $-1 $334 $229 $234 $349 forward $326 $-1 #
coedge $-1 $229 $334 $328 $456 reversed $326 $-1 #
vertex $-1 $230 $466 #
straight-curve $-1 0 37.667316987755513 11.702882591086954 -1 0 0 I I #
coedge $-1 $231 $329 $233 $348 reversed $139 $-1 #
vertex $-1 $340 $467 #
straight-curve $-1 0 -37.667316987755513 11.702882591086954 1 0 0 I I #
edge $-1 $236 -11.702882591086954 $337 11.702882591086954 $233 $468 forward 7 unknown #
edge $-1 $237 -11.702882591086954 $336 11.702882591086954 $234 $469 forward 7 unknown #
point $-1 78.181096835230562 -37.667316987755513 11.702882591086954 #
point $-1 78.181096835230562 37.667316987755513 11.702882591086954 #
face $-1 $-1 $369 $34 $-1 $470 reversed single #
loop $-1 $-1 $471 $239 #
plane-surface $-1 -78.181096835230562 0 0 1 0 0 0 0 -1 forward_v I I I I #
coedge $-1 $356 $372 $243 $359 forward $240 $-1 #
coedge $-1 $250 $355 $242 $357 forward $240 $-1 #
edge $-1 $363 0.39023187655871272 $253 5.7559072914253697 $356 $472 forward 7 unknown #
coedge $-1 $244 $243 $471 $473 reversed $93 $-1 #
edge $-1 $474 -42.781247645524701 $363 -28.018450733887022 $355 $475 forward 7 unknown #
coedge $-1 $368 $367 $244 $361 forward $369 $-1 #
edge $-1 $362 28.018450733887022 $476 42.781247645524701 $360 $477 forward 7 unknown #
vertex $-1 $361 $478 #
vertex $-1 $359 $479 #
straight-curve $-1 -63.418299923592883 0 3.4633014605507535 0 -1 0 I I #
coedge $-1 $480 $481 $247 $366 forward $353 $-1 #
edge $-1 $373 -37.667316987755513 $370 37.667316987755513 $365 $482 forward 7 unknown #
coedge $-1 $360 $248 $252 $375 forward $369 $-1 #
coedge $-1 $248 $360 $480 $483 reversed $369 $-1 #
loop $-1 $-1 $360 $352 #
vertex $-1 $483 $484 #
straight-curve $-1 -35.399849189705861 37.667316987755513 8.8289768754174105 1 0 0 I I #
coedge $-1 $355 $250 $481 $485 forward $240 $-1 #
vertex $-1 $485 $486 #
straight-curve $-1 -35.399849189705861 -37.667316987755513 8.8289768754174105 -1 0 0 I I #
edge $-1 $254 -5.7559072914253697 $362 -0.39023187655871272 $367 $487 forward 7 unknown #
point $-1 -63.418299923592883 -37.667316987755513 8.8289768754174105 #
point $-1 -63.418299923592883 37.667316987755513 8.8289768754174105 #
plane-surface $-1 0 -37.667316987755513 0 0 1 0 0 0 1 forward_v I I I I #
coedge $-1 $389 $388 $381 $488 forward $257 $-1 #
coedge $-1 $381 $259 $261 $385 reversed $155 $-1 #
coedge $-1 $259 $380 $379 $488 reversed $155 $-1 #
coedge $-1 $267 $262 $259 $383 forward $268 $-1 #
edge $-1 $386 -51.32042213257445 $489 -41.60342330056087 $382 $490 forward 7 unknown #
coedge $-1 $261 $260 $389 $491 reversed $97 $-1 #
edge $-1 $492 -13.075511516198112 $386 -2.1224720073754982e-014 $380 $493 forward 7 unknown #
vertex $-1 $263 $494 #
straight-curve $-1 -16.701002036822089 -37.667316987755513 1.9858837590733724 1 0 0 I I #
coedge $-1 $379 $264 $267 $393 forward $257 $-1 #
coedge $-1 $264 $379 $384 $491 forward $257 $-1 #
vertex $-1 $265 $495 #
straight-curve $-1 -44.275625159171398 -76.933536704559515 11.702882591086954 0 -1 0 I I #
straight-curve $-1 -44.275625159171398 -37.667316987755527 1.98588375907336 0 0.66913059716165679 0.74314483375859142 I I #
edge $-1 $269 -44.275625159171398 $489 -22.528382988116956 $267 $496 forward 7 unknown #
point $-1 -44.275625159171398 -37.667316987755513 11.702882591086954 #
point $-1 -44.275625159171398 -37.667316987755513 1.9858837590733758 #
edge $-1 $497 1 $497 0 $272 $-1 forward 7 unknown #
vertex $-1 $273 $498 #
ellipse-curve $-1 -38.06212739601299 -26.798833903052195 0.99727590601991301 0 -0.74314483375859142 0.66913059716165679 2.5 0 0 1 I I #
point $-1 -35.56212739601299 -33.292704573241636 6.8443831750801625 #
edge $-1 $499 1 $499 0 $276 $-1 forward 7 unknown #
vertex $-1 $277 $500 #
ellipse-curve $-1 -28.741880751275367 -26.798833903052195 0.99727590601991301 0 -0.74314483375859142 0.66913059716165679 2.5 0 0 1 I I #
point $-1 -26.241880751275367 -33.292704573241636 6.8443831750801625 #
loop $-1 $-1 $288 $280 #
plane-surface $-1 0 0 11.702882591086954 0 0 1 1 0 0 forward_v I I I I #
coedge $-1 $407 $283 $285 $411 reversed $177 $-1 #
coedge $-1 $283 $406 $501 $502 reversed $177 $-1 #
coedge $-1 $291 $286 $283 $409 forward $281 $-1 #
edge $-1 $412 -51.32042213257445 $503 -41.60342330056087 $408 $504 forward 7 unknown #
coedge $-1 $285 $284 $415 $505 reversed $111 $-1 #
edge $-1 $506 -13.075511516198112 $412 -2.1224720073754982e-014 $406 $507 forward 7 unknown #
vertex $-1 $287 $508 #
straight-curve $-1 18.698847152883772 -37.667316987755513 1.9858837590733724 1 0 0 I I #
coedge $-1 $501 $288 $291 $419 forward $404 $-1 #
coedge $-1 $288 $501 $410 $505 forward $404 $-1 #
vertex $-1 $289 $509 #
straight-curve $-1 26.524073220240322 -76.933536704559515 11.702882591086954 0 -1 0 I I #
straight-curve $-1 26.524073220240322 -37.667316987755527 1.98588375907336 0 0.66913059716165679 0.74314483375859142 I I #
edge $-1 $292 26.524073220240322 $503 48.271315391294763 $291 $510 forward 7 unknown #
point $-1 26.524073220240322 -37.667316987755513 11.702882591086954 #
point $-1 26.524073220240322 -37.667316987755513 1.9858837590733758 #
edge $-1 $511 1 $511 0 $295 $-1 forward 7 unknown #
vertex $-1 $296 $512 #
ellipse-curve $-1 32.73757098339874 -26.798833903052195 0.99727590601991301 0 -0.74314483375859142 0.66913059716165679 2.5 0 0 1 I I #
point $-1 35.23757098339874 -33.292704573241636 6.8443831750801625 #
edge $-1 $513 1 $513 0 $299 $-1 forward 7 unknown #
vertex $-1 $300 $514 #
ellipse-curve $-1 42.057817628136348 -26.798833903052195 0.99727590601991301 0 -0.74314483375859142 0.66913059716165679 2.5 0 0 1 I I #
point $-1 44.557817628136348 -33.292704573241636 6.8443831750801625 #
loop $-1 $-1 $310 $303 #
plane-surface $-1 0 37.667316987755513 0 0 -1 0 0 0 -1 forward_v I I I I #
coedge $-1 $515 $516 $307 $434 forward $304 $-1 #
coedge $-1 $307 $306 $439 $517 reversed $125 $-1 #
edge $-1 $436 40.62715934676001 $518 46.852089672330536 $432 $519 forward 7 unknown #
coedge $-1 $313 $308 $516 $520 forward $199 $-1 #
vertex $-1 $520 $521 #
straight-curve $-1 34.706593584188141 33.749841464622826 11.702882591086954 1 0 0 I I #
coedge $-1 $522 $310 $313 $443 reversed $430 $-1 #
coedge $-1 $310 $522 $433 $517 forward $430 $-1 #
vertex $-1 $311 $523 #
straight-curve $-1 60.645277501521988 37.667316987755513 81.906562760124388 0 0 1 I I #
straight-curve $-1 60.645277501521988 -9.7423035554552939 65.411210252028781 0 0.62932038083071107 -0.77714596973225614 I I #
edge $-1 $524 -78.181096835230562 $314 -60.645277501521988 $438 $525 forward 7 unknown #
point $-1 60.645277501521988 37.667316987755513 11.702882591086954 #
point $-1 60.645277501521988 33.749841464622826 11.702882591086954 #
edge $-1 $526 1 $526 0 $317 $-1 forward 7 unknown #
vertex $-1 $318 $527 #
ellipse-curve $-1 65.655511596867285 34.931433256456913 8.65472245306559 0 0.77714596973225614 0.62932038083071107 0.5 0 0 1 I I #
point $-1 66.155511596867285 35.708579226189165 9.2840428338963008 #
edge $-1 $528 1 $528 0 $321 $-1 forward 7 unknown #
vertex $-1 $322 $529 #
ellipse-curve $-1 73.170862739885251 34.931433256456913 8.65472245306559 0 0.77714596973225614 0.62932038083071107 0.5 0 0 1 I I #
point $-1 73.670862739885251 35.708579226189165 9.2840428338963008 #
plane-surface $-1 78.181096835230562 0 0 -1 0 0 0 0 1 forward_v I I I I #
coedge $-1 $330 $328 $332 $459 reversed $221 $-1 #
edge $-1 $343 -11.702882591086954 $461 11.702882591086954 $342 $530 forward 7 unknown #
vertex $-1 $459 $531 #
straight-curve $-1 -78.181096835230562 -37.667316987755513 0 0 0 -1 I I #
edge $-1 $457 -37.667316987755513 $461 37.667316987755513 $455 $532 forward 7 unknown #
straight-curve $-1 0 -37.667316987755513 -11.702882591086954 -1 0 0 I I #
vertex $-1 $335 $533 #
straight-curve $-1 0 37.667316987755513 -11.702882591086954 1 0 0 I I #
point $-1 78.181096835230562 37.667316987755513 -11.702882591086954 #
point $-1 78.181096835230562 -37.667316987755513 -11.702882591086954 #
straight-curve $-1 -78.181096835230562 0 11.702882591086954 0 -1 0 I I #
point $-1 -78.181096835230562 37.667316987755513 11.702882591086954 #
point $-1 -78.181096835230562 -37.667316987755513 11.702882591086954 #
straight-curve $-1 78.181096835230562 -37.667316987755513 0 0 0 -1 I I #
straight-curve $-1 78.181096835230562 37.667316987755513 0 0 0 -1 I I #
plane-surface $-1 0 37.667316987755513 0 0 -1 0 0 0 -1 forward_v I I I I #
coedge $-1 $481 $480 $358 $473 forward $353 $-1 #
straight-curve $-1 -63.418299923592883 -37.667316987755513 3.0730695839920408 0 0 1 I I #
edge $-1 $476 -37.667316987755513 $474 37.667316987755513 $471 $534 forward 7 unknown #
vertex $-1 $359 $535 #
straight-curve $-1 -35.399849189705861 -37.667316987755513 3.4633014605507535 1 0 0 I I #
vertex $-1 $361 $536 #
straight-curve $-1 -35.399849189705861 37.667316987755513 3.4633014605507535 -1 0 0 I I #
point $-1 -63.418299923592883 37.667316987755513 3.4633014605507535 #
point $-1 -63.418299923592883 -37.667316987755513 3.4633014605507535 #
coedge $-1 $471 $365 $368 $483 forward $353 $-1 #
coedge $-1 $365 $471 $372 $485 reversed $353 $-1 #
straight-curve $-1 -78.181096835230562 0 8.8289768754174105 0 1 0 I I #
edge $-1 $370 -8.8289768754174105 $476 -3.4633014605507535 $368 $537 forward 7 unknown #
point $-1 -78.181096835230562 37.667316987755513 8.8289768754174105 #
edge $-1 $373 -8.8289768754174105 $474 -3.4633014605507535 $481 $538 forward 7 unknown #
point $-1 -78.181096835230562 -37.667316987755513 8.8289768754174105 #
straight-curve $-1 -63.418299923592883 37.667316987755513 3.0730695839920408 0 0 -1 I I #
edge $-1 $489 39.266219716804002 $492 48.015444545831755 $379 $539 forward 7 unknown #
vertex $-1 $488 $540 #
straight-curve $-1 -22.528382988116956 -37.667316987755513 53.306305891647824 0 0 1 I I #
edge $-1 $492 5.8273809512948667 $390 27.574623122349308 $389 $541 forward 7 unknown #
vertex $-1 $491 $542 #
straight-curve $-1 -22.528382988116956 -37.667316987755527 1.98588375907336 0 -0.66913059716165679 -0.74314483375859142 I I #
point $-1 -22.528382988116956 -37.667316987755513 1.9858837590733758 #
point $-1 -44.275625159171398 -28.918092158727763 11.702882591086954 #
straight-curve $-1 0 -37.667316987755513 11.702882591086954 1 0 0 I I #
vertex $-1 $396 $543 #
point $-1 -35.56212739601299 -26.798833903052195 0.99727590601991301 #
vertex $-1 $400 $544 #
point $-1 -26.241880751275367 -26.798833903052195 0.99727590601991301 #
coedge $-1 $415 $414 $407 $502 forward $404 $-1 #
edge $-1 $503 39.266219716804002 $506 48.015444545831755 $501 $545 forward 7 unknown #
vertex $-1 $502 $546 #
straight-curve $-1 48.271315391294763 -37.667316987755513 53.306305891647824 0 0 1 I I #
edge $-1 $506 -29.572468238410991 $416 -7.8252260673565495 $415 $547 forward 7 unknown #
vertex $-1 $505 $548 #
straight-curve $-1 48.271315391294763 -37.667316987755527 1.98588375907336 0 -0.66913059716165679 -0.74314483375859142 I I #
point $-1 48.271315391294763 -37.667316987755513 1.9858837590733758 #
point $-1 26.524073220240322 -28.918092158727763 11.702882591086954 #
straight-curve $-1 0 -37.667316987755513 11.702882591086954 1 0 0 I I #
vertex $-1 $422 $549 #
point $-1 35.23757098339874 -26.798833903052195 0.99727590601991301 #
vertex $-1 $426 $550 #
point $-1 44.557817628136348 -26.798833903052195 0.99727590601991301 #
coedge $-1 $516 $432 $522 $551 reversed $304 $-1 #
coedge $-1 $432 $515 $435 $520 reversed $304 $-1 #
edge $-1 $518 -43.474503251042435 $440 -25.938683917333847 $439 $552 forward 7 unknown #
vertex $-1 $434 $553 #
straight-curve $-1 78.181096835230562 8.182342072449833 43.276115739091651 0 0.62932038083071107 -0.77714596973225614 I I #
edge $-1 $436 33.749841464622826 $524 37.667316987755513 $516 $554 forward 7 unknown #
point $-1 78.181096835230576 33.749841464622826 11.702882591086954 #
coedge $-1 $439 $438 $515 $551 forward $430 $-1 #
point $-1 60.645277501521988 37.667316987755513 6.8652030767057184 #
vertex $-1 $520 $555 #
straight-curve $-1 0 37.667316987755513 11.702882591086954 -1 0 0 I I #
vertex $-1 $446 $556 #
point $-1 66.155511596867285 34.931433256456913 8.65472245306559 #
vertex $-1 $450 $557 #
point $-1 73.670862739885251 34.931433256456913 8.65472245306559 #
straight-curve $-1 -78.181096835230562 37.667316987755513 0 0 0 -1 I I #
point $-1 -78.181096835230562 -37.667316987755513 -11.702882591086954 #
straight-curve $-1 -78.181096835230562 0 -11.702882591086954 0 1 0 I I #
point $-1 -78.181096835230562 37.667316987755513 -11.702882591086954 #
straight-curve $-1 -78.181096835230562 0 3.4633014605507535 0 -1 0 I I #
point $-1 -78.181096835230562 -37.667316987755513 3.4633014605507535 #
point $-1 -78.181096835230562 37.667316987755513 3.4633014605507535 #
straight-curve $-1 -78.181096835230562 37.667316987755513 0 0 0 -1 I I #
straight-curve $-1 -78.181096835230562 -37.667316987755513 0 0 0 -1 I I #
straight-curve $-1 -22.528382988116956 -76.933536704559515 11.702882591086954 0 1 0 I I #
point $-1 -22.528382988116956 -37.667316987755513 11.702882591086954 #
straight-curve $-1 -16.701002036822089 -28.91809215872776 11.702882591086954 -1 0 0 I I #
point $-1 -22.528382988116956 -28.918092158727763 11.702882591086954 #
point $-1 -38.06212739601299 -24.940971818655715 -0.67555058688422909 #
point $-1 -28.741880751275367 -24.940971818655715 -0.67555058688422909 #
straight-curve $-1 48.271315391294763 -76.933536704559515 11.702882591086954 0 1 0 I I #
point $-1 48.271315391294763 -37.667316987755513 11.702882591086954 #
straight-curve $-1 18.698847152883772 -28.91809215872776 11.702882591086954 -1 0 0 I I #
point $-1 48.271315391294763 -28.918092158727763 11.702882591086954 #
point $-1 32.73757098339874 -24.940971818655715 -0.67555058688422909 #
point $-1 42.057817628136348 -24.940971818655715 -0.67555058688422909 #
edge $-1 $524 -11.702882591086954 $518 -6.8652030767057184 $515 $558 forward 7 unknown #
straight-curve $-1 34.706593584188141 37.667316987755513 6.8652030767057184 -1 0 0 I I #
point $-1 78.181096835230576 37.667316987755513 6.8652030767057184 #
straight-curve $-1 78.181096835230562 0 11.702882591086954 0 1 0 I I #
point $-1 78.181096835230562 37.667316987755513 11.702882591086954 #
point $-1 65.655511596867285 34.542860271590783 8.3400622626502336 #
point $-1 73.170862739885251 34.542860271590783 8.3400622626502336 #
straight-curve $-1 78.181096835230562 37.667316987755513 0 0 0 -1 I I #
End-of-ACIS-data 