500 0 6 0           
7 Unknown 11 ACIS 5.0 NT 24 Thu Mar 25 22:18:41 1999 
-1 9.9999999999999995e-007 1e-010 
body $-1 $6 $-1 $7 #
body $-1 $8 $-1 $9 #
body $-1 $10 $-1 $11 #
body $-1 $12 $-1 $13 #
body $-1 $14 $-1 $15 #
body $-1 $16 $-1 $17 #
lump $-1 $-1 $18 $0 #
transform $-1 1 0 0 0 1 0 0 0 1 79.637440107425164 43.851266232070067 12.625289029613606 1 rotate no_reflect no_shear #
lump $-1 $-1 $19 $1 #
transform $-1 1 0 0 0 1 0 0 0 1 79.637440107425164 43.851266232070067 12.625289029613606 1 rotate no_reflect no_shear #
lump $-1 $-1 $20 $2 #
transform $-1 1 0 0 0 1 0 0 0 1 79.637440107425164 43.851266232070067 12.625289029613606 1 rotate no_reflect no_shear #
lump $-1 $-1 $21 $3 #
transform $-1 1 0 0 0 1 0 0 0 1 79.637440107425164 43.851266232070067 12.625289029613606 1 rotate no_reflect no_shear #
lump $-1 $-1 $22 $4 #
transform $-1 1 0 0 0 1 0 0 0 1 79.637440107425164 43.851266232070067 12.625289029613606 1 rotate no_reflect no_shear #
lump $-1 $-1 $23 $5 #
transform $-1 1 0 0 0 1 0 0 0 1 79.637440107425164 43.851266232070067 12.625289029613606 1 rotate no_reflect no_shear #
shell $-1 $-1 $-1 $24 $-1 $6 #
shell $-1 $-1 $-1 $25 $-1 $8 #
shell $-1 $-1 $-1 $26 $-1 $10 #
shell $-1 $-1 $-1 $27 $-1 $12 #
shell $-1 $-1 $-1 $28 $-1 $14 #
shell $-1 $-1 $-1 $29 $-1 $16 #
face $-1 $30 $31 $18 $-1 $32 forward single #
face $-1 $33 $34 $19 $-1 $35 reversed single #
face $-1 $36 $37 $20 $-1 $38 reversed single #
face $-1 $39 $40 $21 $-1 $41 forward single #
face $-1 $42 $43 $22 $-1 $44 reversed single #
face $-1 $45 $46 $23 $-1 $47 forward single #
face $-1 $48 $49 $18 $-1 $50 reversed single #
loop $-1 $-1 $51 $24 #
plane-surface $-1 0 0 12.625289029613606 0 0 1 1 0 0 forward_v I I I I #
face $-1 $52 $53 $19 $-1 $54 reversed single #
loop $-1 $-1 $55 $25 #
plane-surface $-1 0 -38.93129894409995 7.6003723649570052 0 0 1 1 0 0 forward_v I I I I #
face $-1 $56 $57 $20 $-1 $58 reversed single #
loop $-1 $-1 $59 $26 #
plane-surface $-1 103.18234307240846 32.083448139834573 228.01004611425759 0 -1 0 -0.77714596973225614 0 -0.62932038083071107 forward_v I I I I #
face $-1 $60 $61 $21 $-1 $62 forward single #
loop $-1 $63 $64 $27 #
cone-surface $-1 73.846268213545116 22.748467132299588 6.4502520810647823 -0.77714596973225614 0 -0.62932038083071107 1.2586407616614221 0 -1.5542919394645123 1 I I 0 1 2 forward I I I I #
face $-1 $65 $66 $22 $-1 $67 reversed single #
loop $-1 $-1 $68 $28 #
plane-surface $-1 -203.41727134598395 13.413486124764603 104.23021487569881 0 1 0 -0.77714596973225614 0 0.62932038083071107 forward_v I I I I #
face $-1 $69 $70 $23 $-1 $71 forward single #
loop $-1 $72 $73 $29 #
cone-surface $-1 -73.846268213545116 22.748467132299588 6.4502520810647894 0.77714596973225614 0 -0.62932038083071107 1.2586407616614221 0 1.5542919394645123 1 I I 0 1 2 forward I I I I #
face $-1 $74 $75 $18 $-1 $76 reversed single #
loop $-1 $-1 $77 $30 #
plane-surface $-1 0 0 -12.625289029613606 0 0 1 1 0 0 forward_v I I I I #
coedge $-1 $78 $79 $80 $81 forward $31 $-1 #
face $-1 $82 $83 $19 $-1 $84 reversed single #
loop $-1 $-1 $85 $33 #
plane-surface $-1 0 -34.011331656129833 10.112830697285306 0 -1 0 0 0 -1 forward_v I I I I #
coedge $-1 $86 $87 $88 $89 reversed $34 $-1 #
face $-1 $90 $91 $20 $-1 $92 reversed single #
loop $-1 $-1 $93 $36 #
plane-surface $-1 -20.597488166150342 22.748467132299588 127.7751178406821 0.77714596973225614 0 0.62932038083071107 0.62932038083071107 0 -0.77714596973225614 forward_v I I I I #
coedge $-1 $94 $95 $96 $97 reversed $37 $-1 #
face $-1 $-1 $98 $21 $-1 $99 forward single #
loop $-1 $100 $101 $39 #
cone-surface $-1 70.772169342092837 22.748467132299588 3.9608959654304012 -0.77714596973225614 0 -0.62932038083071107 0.62932038083071107 0 -0.77714596973225614 1 I I -0.70710678118654746 0.70710678118654746 1 forward I I I I #
loop $-1 $-1 $102 $27 #
coedge $-1 $64 $64 $103 $104 reversed $40 $-1 #
face $-1 $105 $106 $22 $-1 $107 reversed single #
loop $-1 $-1 $108 $42 #
plane-surface $-1 -79.637440107425149 22.748467132299588 3.9952866021233149 -0.77714596973225614 0 0.62932038083071107 0.62932038083071107 0 0.77714596973225614 forward_v I I I I #
coedge $-1 $109 $110 $111 $112 reversed $43 $-1 #
face $-1 $-1 $113 $23 $-1 $114 forward single #
loop $-1 $115 $116 $45 #
cone-surface $-1 -70.772169342092837 22.748467132299588 3.9608959654304083 0.77714596973225614 0 -0.62932038083071107 0.62932038083071107 0 0.77714596973225614 1 I I -0.70710678118654746 0.70710678118654746 1 forward I I I I #
loop $-1 $-1 $117 $29 #
coedge $-1 $73 $73 $118 $119 reversed $46 $-1 #
face $-1 $120 $121 $18 $-1 $122 reversed single #
loop $-1 $-1 $123 $48 #
plane-surface $-1 0 -43.851266232070067 0 0 1 0 0 0 1 forward_v I I I I #
coedge $-1 $124 $125 $126 $127 forward $49 $-1 #
coedge $-1 $128 $51 $129 $130 forward $31 $-1 #
coedge $-1 $51 $128 $131 $132 forward $31 $-1 #
coedge $-1 $133 $134 $51 $81 reversed $135 $-1 #
edge $-1 $136 -43.851266232070067 $137 43.851266232070067 $80 $138 forward 7 unknown #
face $-1 $139 $140 $19 $-1 $141 reversed single #
loop $-1 $-1 $142 $52 #
plane-surface $-1 -79.637440107425164 0 0 1 0 0 0 0 -1 forward_v I I I I #
coedge $-1 $143 $144 $145 $146 reversed $53 $-1 #
coedge $-1 $147 $55 $148 $149 reversed $34 $-1 #
coedge $-1 $55 $147 $143 $150 forward $34 $-1 #
coedge $-1 $145 $151 $55 $89 forward $152 $-1 #
edge $-1 $153 -24.385616760020092 $154 -14.545682184079858 $88 $155 forward 7 unknown #
face $-1 $156 $157 $20 $-1 $158 reversed single #
loop $-1 $-1 $159 $56 #
plane-surface $-1 103.18234307240846 13.413486124764603 228.01004611425759 0 1 0 0.77714596973225614 0 0.62932038083071107 forward_v I I I I #
coedge $-1 $160 $161 $162 $163 reversed $57 $-1 #
coedge $-1 $95 $59 $164 $165 reversed $37 $-1 #
coedge $-1 $59 $94 $160 $166 reversed $37 $-1 #
coedge $-1 $162 $167 $59 $97 forward $168 $-1 #
edge $-1 $169 -28.046268571220935 $170 -21.057830586900849 $96 $171 forward 7 unknown #
loop $-1 $-1 $103 $60 #
plane-surface $-1 -20.597488166150342 22.748467132299588 127.7751178406821 0.77714596973225614 0 0.62932038083071107 0.62932038083071107 0 -0.77714596973225614 forward_v I I I I #
loop $-1 $-1 $172 $39 #
coedge $-1 $101 $101 $102 $173 reversed $61 $-1 #
coedge $-1 $102 $102 $101 $173 forward $63 $-1 #
coedge $-1 $103 $103 $64 $104 forward $98 $-1 #
edge $-1 $174 0 $174 6.2831853071796004 $103 $175 forward 7 unknown #
face $-1 $176 $177 $22 $-1 $178 forward single #
loop $-1 $-1 $179 $65 #
plane-surface $-1 -203.41727134598395 32.083448139834573 104.23021487569881 0 -1 0 0.77714596973225614 0 -0.62932038083071107 forward_v I I I I #
coedge $-1 $180 $181 $182 $183 reversed $66 $-1 #
coedge $-1 $110 $68 $184 $185 reversed $43 $-1 #
coedge $-1 $68 $109 $180 $186 reversed $43 $-1 #
coedge $-1 $182 $187 $68 $112 forward $177 $-1 #
edge $-1 $188 22.071195565566811 $189 29.059633549886897 $111 $190 forward 7 unknown #
loop $-1 $-1 $118 $69 #
plane-surface $-1 -79.637440107425149 22.748467132299588 3.9952866021233149 -0.77714596973225614 0 0.62932038083071107 0.62932038083071107 0 0.77714596973225614 forward_v I I I I #
loop $-1 $-1 $191 $45 #
coedge $-1 $116 $116 $117 $192 reversed $70 $-1 #
coedge $-1 $117 $117 $116 $192 forward $72 $-1 #
coedge $-1 $118 $118 $73 $119 forward $113 $-1 #
edge $-1 $193 0 $193 6.2831853071796004 $118 $194 forward 7 unknown #
face $-1 $195 $196 $18 $-1 $197 reversed single #
loop $-1 $-1 $198 $74 #
plane-surface $-1 -79.637440107425164 0 0 1 0 0 0 0 -1 forward_v I I I I #
coedge $-1 $199 $131 $200 $201 forward $75 $-1 #
coedge $-1 $202 $77 $199 $203 forward $49 $-1 #
coedge $-1 $77 $202 $204 $205 forward $49 $-1 #
coedge $-1 $134 $133 $77 $127 reversed $135 $-1 #
edge $-1 $206 -43.851266232070067 $207 43.851266232070067 $126 $208 forward 7 unknown #
coedge $-1 $79 $78 $209 $210 forward $31 $-1 #
coedge $-1 $211 $212 $78 $130 reversed $196 $-1 #
edge $-1 $137 -79.637440107425164 $213 79.637440107425164 $129 $214 forward 7 unknown #
coedge $-1 $123 $215 $79 $132 reversed $75 $-1 #
edge $-1 $216 -79.637440107425164 $136 79.637440107425164 $131 $217 forward 7 unknown #
coedge $-1 $126 $80 $215 $218 forward $135 $-1 #
coedge $-1 $80 $126 $211 $219 reversed $135 $-1 #
loop $-1 $-1 $133 $195 #
vertex $-1 $81 $220 #
vertex $-1 $81 $221 #
straight-curve $-1 79.637440107425164 0 12.625289029613606 0 1 0 I I #
face $-1 $222 $223 $19 $-1 $224 forward single #
loop $-1 $-1 $148 $82 #
plane-surface $-1 0 -43.851266232070067 0 0 1 0 0 0 1 forward_v I I I I #
coedge $-1 $225 $226 $227 $228 forward $83 $-1 #
coedge $-1 $227 $85 $87 $150 reversed $53 $-1 #
coedge $-1 $85 $227 $229 $230 reversed $53 $-1 #
coedge $-1 $231 $88 $85 $146 forward $152 $-1 #
edge $-1 $154 2.5439570163143523 $232 7.5688736809709534 $145 $233 forward 7 unknown #
coedge $-1 $87 $86 $225 $234 reversed $34 $-1 #
coedge $-1 $235 $236 $86 $149 forward $140 $-1 #
edge $-1 $237 -79.637440107425164 $153 79.637440107425164 $148 $238 forward 7 unknown #
edge $-1 $239 -79.637440107425164 $154 79.637440107425164 $143 $240 forward 7 unknown #
coedge $-1 $88 $231 $235 $241 forward $152 $-1 #
loop $-1 $-1 $145 $222 #
vertex $-1 $149 $242 #
vertex $-1 $89 $243 #
straight-curve $-1 79.637440107425164 -19.465649472049975 7.6003723649570052 0 1 0 I I #
face $-1 $-1 $168 $20 $-1 $244 forward single #
loop $-1 $-1 $245 $90 #
plane-surface $-1 79.637440107425164 0 0 -1 0 0 0 0 1 forward_v I I I I #
coedge $-1 $246 $247 $248 $249 reversed $91 $-1 #
coedge $-1 $250 $93 $95 $166 forward $57 $-1 #
coedge $-1 $93 $250 $246 $251 forward $57 $-1 #
coedge $-1 $248 $96 $93 $163 forward $168 $-1 #
edge $-1 $170 -20.709214573684779 $252 -2.0392525586148089 $162 $253 forward 7 unknown #
coedge $-1 $254 $255 $94 $165 forward $157 $-1 #
edge $-1 $256 -110.00973645500551 $169 -101.37973402751518 $164 $257 forward 7 unknown #
edge $-1 $170 148.17014215584254 $256 159.27488021485036 $95 $258 forward 7 unknown #
coedge $-1 $96 $248 $254 $259 forward $168 $-1 #
loop $-1 $-1 $248 $156 #
vertex $-1 $165 $260 #
vertex $-1 $97 $261 #
straight-curve $-1 51.591171536204229 32.083448139834573 12.625289029613612 -1 0 0 I I #
coedge $-1 $172 $172 $-1 $262 reversed $100 $-1 #
edge $-1 $263 0 $263 6.2831853071796004 $101 $264 forward 7 unknown #
vertex $-1 $104 $265 #
ellipse-curve $-1 76.143221115265121 22.748467132299588 8.3102878158684454 0.77714596973225614 0 0.62932038083071107 1.2586407616614221 0 -1.5542919394645123 1 I I #
face $-1 $-1 $266 $22 $-1 $267 reversed single #
loop $-1 $-1 $111 $105 #
plane-surface $-1 0 0 12.625289029613606 0 0 1 1 0 0 forward_v I I I I #
coedge $-1 $268 $269 $270 $271 reversed $106 $-1 #
coedge $-1 $272 $108 $110 $186 forward $66 $-1 #
coedge $-1 $108 $272 $268 $273 forward $66 $-1 #
coedge $-1 $270 $111 $108 $183 forward $177 $-1 #
edge $-1 $189 2.0392525586148089 $274 20.709214573684779 $182 $275 forward 7 unknown #
coedge $-1 $276 $277 $109 $185 forward $266 $-1 #
edge $-1 $278 -48.119820835726102 $188 -39.489818408235799 $184 $279 forward 7 unknown #
edge $-1 $189 -11.104738059007781 $278 2.2748066086763162e-014 $110 $280 forward 7 unknown #
coedge $-1 $111 $270 $276 $281 forward $177 $-1 #
vertex $-1 $185 $282 #
vertex $-1 $112 $283 #
straight-curve $-1 -101.70863567299197 13.413486124764603 12.625289029613604 1 0 0 I I #
coedge $-1 $191 $191 $-1 $284 reversed $115 $-1 #
edge $-1 $285 0 $285 6.2831853071796004 $116 $286 forward 7 unknown #
vertex $-1 $119 $287 #
ellipse-curve $-1 -76.143221115265121 22.748467132299588 8.3102878158684526 -0.77714596973225614 0 0.62932038083071107 1.2586407616614221 0 1.5542919394645123 1 I I #
face $-1 $-1 $135 $18 $-1 $288 reversed single #
loop $-1 $-1 $211 $120 #
plane-surface $-1 0 43.851266232070067 0 0 -1 0 0 0 -1 forward_v I I I I #
coedge $-1 $289 $209 $212 $290 forward $121 $-1 #
coedge $-1 $215 $123 $124 $203 reversed $75 $-1 #
coedge $-1 $209 $289 $123 $201 reversed $121 $-1 #
edge $-1 $216 -12.625289029613606 $291 12.625289029613606 $200 $292 forward 7 unknown #
coedge $-1 $125 $124 $289 $293 forward $49 $-1 #
edge $-1 $207 -79.637440107425164 $291 79.637440107425164 $199 $294 forward 7 unknown #
coedge $-1 $212 $211 $125 $205 reversed $196 $-1 #
edge $-1 $295 -79.637440107425164 $206 79.637440107425164 $204 $296 forward 7 unknown #
vertex $-1 $127 $297 #
vertex $-1 $218 $298 #
straight-curve $-1 79.637440107425164 0 -12.625289029613606 0 -1 0 I I #
coedge $-1 $198 $200 $128 $210 reversed $121 $-1 #
edge $-1 $213 -43.851266232070067 $216 43.851266232070067 $209 $299 forward 7 unknown #
coedge $-1 $204 $129 $134 $219 forward $196 $-1 #
coedge $-1 $129 $204 $198 $290 reversed $196 $-1 #
vertex $-1 $130 $300 #
straight-curve $-1 0 43.851266232070067 12.625289029613606 -1 0 0 I I #
coedge $-1 $131 $199 $133 $218 reversed $75 $-1 #
vertex $-1 $210 $301 #
straight-curve $-1 0 -43.851266232070067 12.625289029613606 1 0 0 I I #
edge $-1 $136 -12.625289029613606 $207 12.625289029613606 $133 $302 forward 7 unknown #
edge $-1 $137 -12.625289029613606 $206 12.625289029613606 $134 $303 forward 7 unknown #
point $-1 79.637440107425164 -43.851266232070067 12.625289029613606 #
point $-1 79.637440107425164 43.851266232070067 12.625289029613606 #
face $-1 $-1 $152 $19 $-1 $304 reversed single #
loop $-1 $-1 $229 $139 #
plane-surface $-1 0 0 12.625289029613606 0 0 1 1 0 0 forward_v I I I I #
coedge $-1 $305 $142 $147 $234 forward $83 $-1 #
coedge $-1 $142 $305 $306 $307 reversed $83 $-1 #
coedge $-1 $144 $143 $142 $228 reversed $53 $-1 #
edge $-1 $308 -7.5688736809709534 $239 -2.5439570163143523 $142 $309 forward 7 unknown #
coedge $-1 $306 $310 $144 $230 forward $223 $-1 #
edge $-1 $232 -79.637440107425164 $308 79.637440107425164 $229 $311 forward 7 unknown #
coedge $-1 $151 $145 $310 $312 reversed $152 $-1 #
vertex $-1 $146 $313 #
straight-curve $-1 79.637440107425164 -34.011331656129833 5.0564153486426529 0 0 1 I I #
edge $-1 $239 14.545682184079858 $237 24.385616760020092 $225 $314 forward 7 unknown #
coedge $-1 $315 $148 $151 $241 reversed $140 $-1 #
coedge $-1 $148 $315 $305 $316 forward $140 $-1 #
vertex $-1 $149 $317 #
straight-curve $-1 0 -43.851266232070067 7.6003723649570052 1 0 0 I I #
vertex $-1 $234 $318 #
straight-curve $-1 0 -34.011331656129833 7.6003723649570052 1 0 0 I I #
edge $-1 $319 -12.625289029613606 $153 -7.6003723649570052 $151 $320 forward 7 unknown #
point $-1 79.637440107425164 -43.851266232070067 7.6003723649570052 #
point $-1 79.637440107425164 -34.011331656129833 7.6003723649570052 #
plane-surface $-1 0 0 12.625289029613606 0 0 1 1 0 0 forward_v I I I I #
coedge $-1 $255 $254 $247 $321 forward $157 $-1 #
coedge $-1 $247 $159 $161 $251 reversed $91 $-1 #
coedge $-1 $159 $246 $245 $321 reversed $91 $-1 #
coedge $-1 $167 $162 $159 $249 forward $168 $-1 #
edge $-1 $252 21.057830586900849 $322 28.046268571220935 $248 $323 forward 7 unknown #
coedge $-1 $161 $160 $255 $324 reversed $57 $-1 #
edge $-1 $325 -159.27488021485036 $252 -148.17014215584254 $246 $326 forward 7 unknown #
vertex $-1 $163 $327 #
straight-curve $-1 72.649002123105078 11.374233566149794 12.625289029613612 0 -1 0 I I #
coedge $-1 $245 $164 $167 $259 reversed $157 $-1 #
coedge $-1 $164 $245 $250 $324 forward $157 $-1 #
vertex $-1 $165 $328 #
straight-curve $-1 79.637440107425164 32.083448139834573 114.0050230571288 0 0 1 I I #
straight-curve $-1 -20.597488166150342 32.083448139834573 127.7751178406821 0.62932038083071107 0 -0.77714596973225614 I I #
edge $-1 $322 13.413486124764603 $169 32.083448139834573 $254 $329 forward 7 unknown #
point $-1 79.637440107425164 32.083448139834573 12.625289029613606 #
point $-1 72.649002123105078 32.083448139834573 12.625289029613597 #
edge $-1 $330 1 $330 0 $172 $-1 forward 7 unknown #
vertex $-1 $173 $331 #
ellipse-curve $-1 71.549315311825097 22.748467132299588 4.5902163462611121 0.77714596973225614 0 0.62932038083071107 1.2586407616614221 0 -1.5542919394645123 1 I I #
point $-1 77.401861876926546 22.748467132299588 6.7559958764039401 #
loop $-1 $-1 $184 $176 #
plane-surface $-1 -79.637440107425164 0 0 1 0 0 0 0 -1 forward_v I I I I #
coedge $-1 $269 $179 $181 $273 reversed $106 $-1 #
coedge $-1 $179 $268 $332 $333 reversed $106 $-1 #
coedge $-1 $187 $182 $179 $271 forward $177 $-1 #
edge $-1 $274 -29.059633549886897 $334 -22.071195565566811 $270 $335 forward 7 unknown #
coedge $-1 $181 $180 $277 $336 reversed $66 $-1 #
edge $-1 $337 -2.2748066086763162e-014 $274 11.104738059007781 $268 $338 forward 7 unknown #
vertex $-1 $183 $339 #
straight-curve $-1 -72.649002123105078 11.374233566149794 12.625289029613606 0 1 0 I I #
coedge $-1 $332 $184 $187 $281 reversed $266 $-1 #
coedge $-1 $184 $332 $272 $336 forward $266 $-1 #
vertex $-1 $185 $340 #
straight-curve $-1 -79.637440107425164 13.413486124764603 52.115107437849403 0 0 1 I I #
straight-curve $-1 -79.637440107425149 13.413486124764603 3.9952866021233149 -0.62932038083071107 0 -0.77714596973225614 I I #
edge $-1 $334 -32.083448139834573 $188 -13.413486124764603 $276 $341 forward 7 unknown #
point $-1 -79.637440107425164 13.413486124764603 12.625289029613606 #
point $-1 -72.649002123105078 13.413486124764603 12.625289029613606 #
edge $-1 $342 1 $342 0 $191 $-1 forward 7 unknown #
vertex $-1 $192 $343 #
ellipse-curve $-1 -71.549315311825097 22.748467132299588 4.5902163462611192 -0.77714596973225614 0 0.62932038083071107 1.2586407616614221 0 1.5542919394645123 1 I I #
point $-1 -74.88458035360371 22.748467132299588 9.8645797553329722 #
plane-surface $-1 79.637440107425164 0 0 -1 0 0 0 0 1 forward_v I I I I #
coedge $-1 $200 $198 $202 $293 reversed $121 $-1 #
edge $-1 $213 -12.625289029613606 $295 12.625289029613606 $212 $344 forward 7 unknown #
vertex $-1 $293 $345 #
straight-curve $-1 -79.637440107425164 -43.851266232070067 0 0 0 -1 I I #
edge $-1 $291 -43.851266232070067 $295 43.851266232070067 $289 $346 forward 7 unknown #
straight-curve $-1 0 -43.851266232070067 -12.625289029613606 -1 0 0 I I #
vertex $-1 $205 $347 #
straight-curve $-1 0 43.851266232070067 -12.625289029613606 1 0 0 I I #
point $-1 79.637440107425164 43.851266232070067 -12.625289029613606 #
point $-1 79.637440107425164 -43.851266232070067 -12.625289029613606 #
straight-curve $-1 -79.637440107425164 0 12.625289029613606 0 -1 0 I I #
point $-1 -79.637440107425164 43.851266232070067 12.625289029613606 #
point $-1 -79.637440107425164 -43.851266232070067 12.625289029613606 #
straight-curve $-1 79.637440107425164 -43.851266232070067 0 0 0 -1 I I #
straight-curve $-1 79.637440107425164 43.851266232070067 0 0 0 -1 I I #
plane-surface $-1 79.637440107425164 0 0 -1 0 0 0 0 1 forward_v I I I I #
coedge $-1 $226 $225 $236 $316 reversed $83 $-1 #
coedge $-1 $348 $229 $226 $307 forward $223 $-1 #
edge $-1 $308 34.011331656129833 $349 43.851266232070067 $226 $350 forward 7 unknown #
vertex $-1 $307 $351 #
straight-curve $-1 -79.637440107425164 -34.011331656129833 5.0564153486426529 0 0 -1 I I #
coedge $-1 $229 $348 $231 $312 forward $223 $-1 #
straight-curve $-1 0 -34.011331656129833 12.625289029613606 -1 0 0 I I #
edge $-1 $319 -43.851266232070067 $232 -34.011331656129833 $231 $352 forward 7 unknown #
point $-1 79.637440107425164 -34.011331656129833 12.625289029613606 #
straight-curve $-1 -79.637440107425164 -19.465649472049975 7.6003723649570052 0 -1 0 I I #
coedge $-1 $236 $235 $348 $353 reversed $140 $-1 #
edge $-1 $349 -12.625289029613606 $237 -7.6003723649570052 $305 $354 forward 7 unknown #
point $-1 -79.637440107425164 -43.851266232070067 7.6003723649570052 #
point $-1 -79.637440107425164 -34.011331656129833 7.6003723649570052 #
vertex $-1 $312 $355 #
straight-curve $-1 79.637440107425164 -43.851266232070067 0 0 0 -1 I I #
edge $-1 $322 101.37973402751518 $325 110.00973645500551 $245 $356 forward 7 unknown #
vertex $-1 $259 $357 #
straight-curve $-1 51.591171536204229 13.413486124764603 12.625289029613612 1 0 0 I I #
edge $-1 $325 2.0392525586148089 $256 20.709214573684779 $255 $358 forward 7 unknown #
vertex $-1 $324 $359 #
straight-curve $-1 -20.597488166150342 13.413486124764603 127.7751178406821 -0.62932038083071107 0 0.77714596973225614 I I #
point $-1 72.649002123105078 13.413486124764603 12.625289029613597 #
point $-1 79.637440107425178 32.083448139834573 3.9952866021232865 #
straight-curve $-1 79.637440107425164 0 12.625289029613606 0 1 0 I I #
vertex $-1 $262 $360 #
point $-1 72.807956073486523 22.748467132299588 3.0359244067966 #
coedge $-1 $277 $276 $269 $333 forward $266 $-1 #
edge $-1 $334 39.489818408235799 $337 48.119820835726102 $332 $361 forward 7 unknown #
vertex $-1 $281 $362 #
straight-curve $-1 -101.70863567299197 32.083448139834573 12.625289029613604 -1 0 0 I I #
edge $-1 $337 -20.709214573684779 $278 -2.0392525586148089 $277 $363 forward 7 unknown #
vertex $-1 $336 $364 #
straight-curve $-1 -79.637440107425149 32.083448139834573 3.9952866021233149 0.62932038083071107 0 0.77714596973225614 I I #
point $-1 -72.649002123105078 32.083448139834573 12.625289029613606 #
point $-1 -79.637440107425164 13.413486124764603 3.9952866021232971 #
straight-curve $-1 -79.637440107425164 0 12.625289029613606 0 -1 0 I I #
vertex $-1 $284 $365 #
point $-1 -70.290674550163672 22.748467132299588 6.1445082857256317 #
straight-curve $-1 -79.637440107425164 43.851266232070067 0 0 0 -1 I I #
point $-1 -79.637440107425164 -43.851266232070067 -12.625289029613606 #
straight-curve $-1 -79.637440107425164 0 -12.625289029613606 0 1 0 I I #
point $-1 -79.637440107425164 43.851266232070067 -12.625289029613606 #
coedge $-1 $310 $306 $315 $353 forward $223 $-1 #
vertex $-1 $307 $366 #
straight-curve $-1 -79.637440107425164 0 12.625289029613606 0 -1 0 I I #
point $-1 -79.637440107425164 -34.011331656129833 12.625289029613606 #
straight-curve $-1 79.637440107425164 0 12.625289029613606 0 1 0 I I #
edge $-1 $349 -79.637440107425164 $319 79.637440107425164 $315 $367 forward 7 unknown #
straight-curve $-1 -79.637440107425164 -43.851266232070067 0 0 0 -1 I I #
point $-1 79.637440107425164 -43.851266232070067 12.625289029613606 #
straight-curve $-1 79.637440107425164 13.413486124764603 114.0050230571288 0 0 -1 I I #
point $-1 79.637440107425164 13.413486124764603 12.625289029613606 #
straight-curve $-1 79.637440107425164 11.374233566149794 3.9952866021232936 0 1 0 I I #
point $-1 79.637440107425178 13.413486124764603 3.9952866021232865 #
point $-1 69.995023372360578 22.748467132299588 3.3315755845996904 #
straight-curve $-1 -79.637440107425164 32.083448139834573 52.115107437849403 0 0 -1 I I #
point $-1 -79.637440107425164 32.083448139834573 12.625289029613606 #
straight-curve $-1 -79.637440107425164 11.374233566149794 3.9952866021233113 0 -1 0 I I #
point $-1 -79.637440107425164 32.083448139834573 3.9952866021232971 #
point $-1 -69.995023372360578 22.748467132299588 3.3315755845996975 #
point $-1 -79.637440107425164 -43.851266232070067 12.625289029613606 #
straight-curve $-1 0 -43.851266232070067 12.625289029613606 1 0 0 I I #
End-of-ACIS-data 