500 0 10 0           
7 Unknown 11 ACIS 5.0 NT 24 Fri Mar 26 19:31:03 1999 
-1 9.9999999999999995e-007 1e-010 
body $-1 $10 $-1 $11 #
body $-1 $12 $-1 $13 #
body $-1 $14 $-1 $15 #
body $-1 $16 $-1 $17 #
body $-1 $18 $-1 $19 #
body $-1 $20 $-1 $21 #
body $-1 $22 $-1 $23 #
body $-1 $24 $-1 $25 #
body $-1 $26 $-1 $27 #
body $-1 $28 $-1 $29 #
lump $-1 $-1 $30 $0 #
transform $-1 1 0 0 0 1 0 0 0 1 65.338908047730939 35.983359211539778 16.682784502640697 1 rotate no_reflect no_shear #
lump $-1 $-1 $31 $1 #
transform $-1 1 0 0 0 1 0 0 0 1 65.338908047730939 35.983359211539778 16.682784502640697 1 rotate no_reflect no_shear #
lump $-1 $-1 $32 $2 #
transform $-1 1 0 0 0 1 0 0 0 1 65.338908047730939 35.983359211539778 16.682784502640697 1 rotate no_reflect no_shear #
lump $-1 $-1 $33 $3 #
transform $-1 1 0 0 0 1 0 0 0 1 65.338908047730939 35.983359211539778 16.682784502640697 1 rotate no_reflect no_shear #
lump $-1 $-1 $34 $4 #
transform $-1 1 0 0 0 1 0 0 0 1 65.338908047730939 35.983359211539778 16.682784502640697 1 rotate no_reflect no_shear #
lump $-1 $-1 $35 $5 #
transform $-1 1 0 0 0 1 0 0 0 1 65.338908047730939 35.983359211539778 16.682784502640697 1 rotate no_reflect no_shear #
lump $-1 $-1 $36 $6 #
transform $-1 1 0 0 0 1 0 0 0 1 65.338908047730939 35.983359211539778 16.682784502640697 1 rotate no_reflect no_shear #
lump $-1 $-1 $37 $7 #
transform $-1 1 0 0 0 1 0 0 0 1 65.338908047730939 35.983359211539778 16.682784502640697 1 rotate no_reflect no_shear #
lump $-1 $-1 $38 $8 #
transform $-1 1 0 0 0 1 0 0 0 1 65.338908047730939 35.983359211539778 16.682784502640697 1 rotate no_reflect no_shear #
lump $-1 $-1 $39 $9 #
transform $-1 1 0 0 0 1 0 0 0 1 65.338908047730939 35.983359211539778 16.682784502640697 1 rotate no_reflect no_shear #
shell $-1 $-1 $-1 $40 $-1 $10 #
shell $-1 $-1 $-1 $41 $-1 $12 #
shell $-1 $-1 $-1 $42 $-1 $14 #
shell $-1 $-1 $-1 $43 $-1 $16 #
shell $-1 $-1 $-1 $44 $-1 $18 #
shell $-1 $-1 $-1 $45 $-1 $20 #
shell $-1 $-1 $-1 $46 $-1 $22 #
shell $-1 $-1 $-1 $47 $-1 $24 #
shell $-1 $-1 $-1 $48 $-1 $26 #
shell $-1 $-1 $-1 $49 $-1 $28 #
face $-1 $50 $51 $30 $-1 $52 forward single #
face $-1 $53 $54 $31 $-1 $55 forward single #
face $-1 $56 $57 $32 $-1 $58 reversed single #
face $-1 $59 $60 $33 $-1 $61 forward single #
face $-1 $62 $63 $34 $-1 $64 forward single #
face $-1 $65 $66 $35 $-1 $67 forward single #
face $-1 $68 $69 $36 $-1 $70 reversed single #
face $-1 $71 $72 $37 $-1 $73 forward single #
face $-1 $74 $75 $38 $-1 $76 forward single #
face $-1 $77 $78 $39 $-1 $79 forward single #
face $-1 $80 $81 $30 $-1 $82 reversed single #
loop $-1 $-1 $83 $40 #
plane-surface $-1 0 0 16.682784502640697 0 0 1 1 0 0 forward_v I I I I #
face $-1 $84 $85 $31 $-1 $86 forward single #
loop $-1 $-1 $87 $41 #
plane-surface $-1 -65.338908047730939 0 0 1 0 0 0 0 -1 forward_v I I I I #
face $-1 $88 $89 $32 $-1 $90 reversed single #
loop $-1 $-1 $91 $42 #
plane-surface $-1 -25.851861199102771 92.24897467839196 148.09937296037953 1 0 0 0 -0.77714596973225614 -0.62932038083071107 forward_v I I I I #
face $-1 $92 $93 $33 $-1 $94 forward single #
loop $-1 $95 $96 $43 #
cone-surface $-1 -20.623706204003241 30.602781266578678 11.163788826523392 0 -0.77714596973225614 -0.62932038083071107 2 0 0 1 I I 0 1 2 forward I I I I #
face $-1 $97 $98 $34 $-1 $99 forward single #
loop $-1 $100 $101 $44 #
cone-surface $-1 -12.781473711353946 30.602781266578678 11.163788826523392 0 -0.77714596973225614 -0.62932038083071107 2 0 0 1 I I 0 1 2 forward I I I I #
face $-1 $102 $103 $35 $-1 $104 forward single #
loop $-1 $105 $106 $45 #
cone-surface $-1 -4.9392412187046517 30.602781266578678 11.163788826523392 0 -0.77714596973225614 -0.62932038083071107 2 0 0 1 I I 0 1 2 forward I I I I #
face $-1 $107 $108 $36 $-1 $109 reversed single #
loop $-1 $-1 $110 $46 #
plane-surface $-1 12.510066358738449 92.24897467839196 148.09937296037953 1 0 0 0 -0.77714596973225614 -0.62932038083071107 forward_v I I I I #
face $-1 $111 $112 $37 $-1 $113 forward single #
loop $-1 $114 $115 $47 #
cone-surface $-1 17.738221353837972 30.602781266578678 11.163788826523392 0 -0.77714596973225614 -0.62932038083071107 2 0 0 1 I I 0 1 2 forward I I I I #
face $-1 $116 $117 $38 $-1 $118 forward single #
loop $-1 $119 $120 $48 #
cone-surface $-1 25.580453846487273 30.602781266578678 11.163788826523392 0 -0.77714596973225614 -0.62932038083071107 2 0 0 1 I I 0 1 2 forward I I I I #
face $-1 $121 $122 $39 $-1 $123 forward single #
loop $-1 $124 $125 $49 #
cone-surface $-1 33.422686339136561 30.602781266578678 11.163788826523392 0 -0.77714596973225614 -0.62932038083071107 2 0 0 1 I I 0 1 2 forward I I I I #
face $-1 $126 $127 $30 $-1 $128 reversed single #
loop $-1 $-1 $129 $50 #
plane-surface $-1 0 0 -16.682784502640697 0 0 1 1 0 0 forward_v I I I I #
coedge $-1 $130 $131 $132 $133 forward $51 $-1 #
face $-1 $134 $135 $31 $-1 $136 reversed single #
loop $-1 $-1 $137 $53 #
plane-surface $-1 0 0 16.682784502640697 0 0 1 1 0 0 forward_v I I I I #
coedge $-1 $138 $139 $140 $141 forward $54 $-1 #
face $-1 $142 $143 $32 $-1 $144 reversed single #
loop $-1 $-1 $145 $56 #
plane-surface $-1 -12.781473711353946 -9.3067634336091913 65.861159969057837 0 0.77714596973225614 0.62932038083071107 1 0 0 forward_v I I I I #
coedge $-1 $146 $147 $148 $149 reversed $57 $-1 #
face $-1 $-1 $150 $33 $-1 $151 forward single #
loop $-1 $152 $153 $59 #
cone-surface $-1 -20.623706204003241 27.178187594238217 8.3906076250429997 0 -0.77714596973225614 -0.62932038083071107 1 0 0 1 I I -0.70710678118654746 0.70710678118654746 1 forward I I I I #
loop $-1 $-1 $154 $43 #
coedge $-1 $96 $96 $155 $156 reversed $60 $-1 #
face $-1 $-1 $157 $34 $-1 $158 forward single #
loop $-1 $159 $160 $62 #
cone-surface $-1 -12.781473711353946 27.178187594238217 8.3906076250429997 0 -0.77714596973225614 -0.62932038083071107 1 0 0 1 I I -0.70710678118654746 0.70710678118654746 1 forward I I I I #
loop $-1 $-1 $161 $44 #
coedge $-1 $101 $101 $162 $163 reversed $63 $-1 #
face $-1 $-1 $164 $35 $-1 $165 forward single #
loop $-1 $166 $167 $65 #
cone-surface $-1 -4.9392412187046517 27.178187594238217 8.3906076250429997 0 -0.77714596973225614 -0.62932038083071107 1 0 0 1 I I -0.70710678118654746 0.70710678118654746 1 forward I I I I #
loop $-1 $-1 $168 $45 #
coedge $-1 $106 $106 $169 $170 reversed $66 $-1 #
face $-1 $171 $172 $36 $-1 $173 reversed single #
loop $-1 $-1 $174 $68 #
plane-surface $-1 25.580453846487273 -9.3067634336091913 65.861159969057837 0 0.77714596973225614 0.62932038083071107 1 0 0 forward_v I I I I #
coedge $-1 $175 $176 $177 $178 reversed $69 $-1 #
face $-1 $-1 $179 $37 $-1 $180 forward single #
loop $-1 $181 $182 $71 #
cone-surface $-1 17.738221353837972 27.178187594238217 8.3906076250429997 0 -0.77714596973225614 -0.62932038083071107 1 0 0 1 I I -0.70710678118654746 0.70710678118654746 1 forward I I I I #
loop $-1 $-1 $183 $47 #
coedge $-1 $115 $115 $184 $185 reversed $72 $-1 #
face $-1 $-1 $186 $38 $-1 $187 forward single #
loop $-1 $188 $189 $74 #
cone-surface $-1 25.580453846487273 27.178187594238217 8.3906076250429997 0 -0.77714596973225614 -0.62932038083071107 1 0 0 1 I I -0.70710678118654746 0.70710678118654746 1 forward I I I I #
loop $-1 $-1 $190 $48 #
coedge $-1 $120 $120 $191 $192 reversed $75 $-1 #
face $-1 $-1 $193 $39 $-1 $194 forward single #
loop $-1 $195 $196 $77 #
cone-surface $-1 33.422686339136561 27.178187594238217 8.3906076250429997 0 -0.77714596973225614 -0.62932038083071107 1 0 0 1 I I -0.70710678118654746 0.70710678118654746 1 forward I I I I #
loop $-1 $-1 $197 $49 #
coedge $-1 $125 $125 $198 $199 reversed $78 $-1 #
face $-1 $200 $201 $30 $-1 $202 reversed single #
loop $-1 $-1 $203 $80 #
plane-surface $-1 0 -35.983359211539778 0 0 1 0 0 0 1 forward_v I I I I #
coedge $-1 $204 $205 $206 $207 forward $81 $-1 #
coedge $-1 $208 $83 $209 $210 forward $51 $-1 #
coedge $-1 $83 $208 $211 $212 forward $51 $-1 #
coedge $-1 $213 $214 $83 $133 reversed $215 $-1 #
edge $-1 $216 -35.983359211539778 $217 35.983359211539778 $132 $218 forward 7 unknown #
face $-1 $219 $220 $31 $-1 $221 reversed single #
loop $-1 $-1 $222 $84 #
plane-surface $-1 -78.137888182864259 -34.270378820929267 0 1 0 0 0 0 -1 forward_v I I I I #
coedge $-1 $223 $224 $138 $225 forward $85 $-1 #
coedge $-1 $226 $87 $137 $225 reversed $54 $-1 #
coedge $-1 $87 $226 $227 $228 reversed $54 $-1 #
coedge $-1 $229 $230 $87 $141 reversed $220 $-1 #
edge $-1 $231 -16.682784502640697 $232 16.682784502640697 $140 $233 forward 7 unknown #
face $-1 $234 $235 $32 $-1 $236 forward single #
loop $-1 $-1 $237 $88 #
plane-surface $-1 0.28891377639487814 92.24897467839196 148.09937296037953 -1 0 0 0 0.77714596973225614 0.62932038083071107 forward_v I I I I #
coedge $-1 $238 $239 $240 $241 reversed $89 $-1 #
coedge $-1 $147 $91 $242 $243 reversed $57 $-1 #
coedge $-1 $91 $146 $238 $244 reversed $57 $-1 #
coedge $-1 $240 $245 $91 $149 forward $235 $-1 #
edge $-1 $246 10.141128127656202 $247 15.607388612361973 $148 $248 forward 7 unknown #
loop $-1 $-1 $155 $92 #
plane-surface $-1 -12.781473711353946 -9.3067634336091913 65.861159969057837 0 0.77714596973225614 0.62932038083071107 1 0 0 forward_v I I I I #
loop $-1 $-1 $249 $59 #
coedge $-1 $153 $153 $154 $250 reversed $93 $-1 #
coedge $-1 $154 $154 $153 $250 forward $95 $-1 #
coedge $-1 $155 $155 $96 $156 forward $150 $-1 #
edge $-1 $251 5.2518199176725898e-016 $251 6.2831853071796013 $155 $252 forward 7 unknown #
loop $-1 $-1 $162 $97 #
plane-surface $-1 -12.781473711353946 -9.3067634336091913 65.861159969057837 0 0.77714596973225614 0.62932038083071107 1 0 0 forward_v I I I I #
loop $-1 $-1 $253 $62 #
coedge $-1 $160 $160 $161 $254 reversed $98 $-1 #
coedge $-1 $161 $161 $160 $254 forward $100 $-1 #
coedge $-1 $162 $162 $101 $163 forward $157 $-1 #
edge $-1 $255 5.2518199176725898e-016 $255 6.2831853071796013 $162 $256 forward 7 unknown #
loop $-1 $-1 $169 $102 #
plane-surface $-1 -12.781473711353946 -9.3067634336091913 65.861159969057837 0 0.77714596973225614 0.62932038083071107 1 0 0 forward_v I I I I #
loop $-1 $-1 $257 $65 #
coedge $-1 $167 $167 $168 $258 reversed $103 $-1 #
coedge $-1 $168 $168 $167 $258 forward $105 $-1 #
coedge $-1 $169 $169 $106 $170 forward $164 $-1 #
edge $-1 $259 5.2518199176725898e-016 $259 6.2831853071796013 $169 $260 forward 7 unknown #
face $-1 $261 $262 $36 $-1 $263 forward single #
loop $-1 $-1 $264 $107 #
plane-surface $-1 38.650841334236098 92.24897467839196 148.09937296037953 -1 0 0 0 0.77714596973225614 0.62932038083071107 forward_v I I I I #
coedge $-1 $265 $266 $267 $268 reversed $108 $-1 #
coedge $-1 $176 $110 $269 $270 reversed $69 $-1 #
coedge $-1 $110 $175 $265 $271 reversed $69 $-1 #
coedge $-1 $267 $272 $110 $178 forward $262 $-1 #
edge $-1 $273 10.141128127656202 $274 15.607388612361973 $177 $275 forward 7 unknown #
loop $-1 $-1 $184 $111 #
plane-surface $-1 25.580453846487273 -9.3067634336091913 65.861159969057837 0 0.77714596973225614 0.62932038083071107 1 0 0 forward_v I I I I #
loop $-1 $-1 $276 $71 #
coedge $-1 $182 $182 $183 $277 reversed $112 $-1 #
coedge $-1 $183 $183 $182 $277 forward $114 $-1 #
coedge $-1 $184 $184 $115 $185 forward $179 $-1 #
edge $-1 $278 5.2518199176725898e-016 $278 6.2831853071796013 $184 $279 forward 7 unknown #
loop $-1 $-1 $191 $116 #
plane-surface $-1 25.580453846487273 -9.3067634336091913 65.861159969057837 0 0.77714596973225614 0.62932038083071107 1 0 0 forward_v I I I I #
loop $-1 $-1 $280 $74 #
coedge $-1 $189 $189 $190 $281 reversed $117 $-1 #
coedge $-1 $190 $190 $189 $281 forward $119 $-1 #
coedge $-1 $191 $191 $120 $192 forward $186 $-1 #
edge $-1 $282 5.2518199176725898e-016 $282 6.2831853071796013 $191 $283 forward 7 unknown #
loop $-1 $-1 $198 $121 #
plane-surface $-1 25.580453846487273 -9.3067634336091913 65.861159969057837 0 0.77714596973225614 0.62932038083071107 1 0 0 forward_v I I I I #
loop $-1 $-1 $284 $77 #
coedge $-1 $196 $196 $197 $285 reversed $122 $-1 #
coedge $-1 $197 $197 $196 $285 forward $124 $-1 #
coedge $-1 $198 $198 $125 $199 forward $193 $-1 #
edge $-1 $286 5.2518199176725898e-016 $286 6.2831853071796013 $198 $287 forward 7 unknown #
face $-1 $288 $289 $30 $-1 $290 reversed single #
loop $-1 $-1 $291 $126 #
plane-surface $-1 -65.338908047730939 0 0 1 0 0 0 0 -1 forward_v I I I I #
coedge $-1 $292 $211 $293 $294 forward $127 $-1 #
coedge $-1 $295 $129 $292 $296 forward $81 $-1 #
coedge $-1 $129 $295 $297 $298 forward $81 $-1 #
coedge $-1 $214 $213 $129 $207 reversed $215 $-1 #
edge $-1 $299 -35.983359211539778 $300 35.983359211539778 $206 $301 forward 7 unknown #
coedge $-1 $131 $130 $291 $302 forward $51 $-1 #
coedge $-1 $303 $304 $130 $210 reversed $289 $-1 #
edge $-1 $217 -65.338908047730939 $305 65.338908047730939 $209 $306 forward 7 unknown #
coedge $-1 $203 $307 $131 $212 reversed $127 $-1 #
edge $-1 $308 -65.338908047730939 $216 65.338908047730939 $211 $309 forward 7 unknown #
coedge $-1 $206 $132 $307 $310 forward $215 $-1 #
coedge $-1 $132 $206 $303 $311 reversed $215 $-1 #
loop $-1 $-1 $213 $288 #
vertex $-1 $133 $312 #
vertex $-1 $133 $313 #
straight-curve $-1 65.338908047730939 0 16.682784502640697 0 1 0 I I #
face $-1 $314 $315 $31 $-1 $316 reversed single #
loop $-1 $-1 $140 $134 #
plane-surface $-1 -71.738398115297599 -32.557398430318756 0 0 -1 0 0 0 -1 forward_v I I I I #
coedge $-1 $317 $318 $319 $320 forward $135 $-1 #
coedge $-1 $321 $137 $230 $322 forward $85 $-1 #
coedge $-1 $137 $321 $323 $324 forward $85 $-1 #
edge $-1 $325 -35.983359211539778 $232 -32.557398430318756 $137 $326 forward 7 unknown #
coedge $-1 $139 $138 $327 $328 reversed $54 $-1 #
coedge $-1 $329 $330 $139 $228 forward $315 $-1 #
edge $-1 $231 32.557398430318756 $331 35.983359211539778 $227 $332 forward 7 unknown #
coedge $-1 $319 $140 $330 $333 reversed $220 $-1 #
coedge $-1 $140 $319 $223 $322 reversed $220 $-1 #
vertex $-1 $228 $334 #
vertex $-1 $322 $335 #
straight-curve $-1 -65.338908047730939 -32.557398430318756 0 0 0 1 I I #
face $-1 $-1 $336 $32 $-1 $337 reversed single #
loop $-1 $-1 $148 $142 #
plane-surface $-1 0 0 16.682784502640697 0 0 1 1 0 0 forward_v I I I I #
coedge $-1 $338 $339 $340 $341 reversed $143 $-1 #
coedge $-1 $342 $145 $147 $244 forward $89 $-1 #
coedge $-1 $145 $342 $338 $343 forward $89 $-1 #
coedge $-1 $340 $148 $145 $241 forward $235 $-1 #
edge $-1 $247 -19.461124343425798 $344 6.6796506320718514 $240 $345 forward 7 unknown #
coedge $-1 $346 $347 $146 $243 forward $336 $-1 #
edge $-1 $348 -64.117171688484291 $246 -57.366901977549063 $242 $349 forward 7 unknown #
edge $-1 $247 63.280744392665596 $348 71.966718423079541 $147 $350 forward 7 unknown #
coedge $-1 $148 $340 $346 $351 forward $235 $-1 #
vertex $-1 $243 $352 #
vertex $-1 $149 $353 #
straight-curve $-1 -25.851861199102771 46.12448733919598 16.6827845026407 0 -1 0 I I #
coedge $-1 $249 $249 $-1 $354 reversed $152 $-1 #
edge $-1 $355 0 $355 6.2831853071796004 $153 $356 forward 7 unknown #
vertex $-1 $156 $357 #
ellipse-curve $-1 -20.623706204003241 33.250228969186892 13.307649647173079 0 0.77714596973225614 0.62932038083071107 2 0 0 1 I I #
coedge $-1 $253 $253 $-1 $358 reversed $159 $-1 #
edge $-1 $359 0 $359 6.2831853071796004 $160 $360 forward 7 unknown #
vertex $-1 $163 $361 #
ellipse-curve $-1 -12.781473711353946 33.250228969186892 13.307649647173079 0 0.77714596973225614 0.62932038083071107 2 0 0 1 I I #
coedge $-1 $257 $257 $-1 $362 reversed $166 $-1 #
edge $-1 $363 0 $363 6.2831853071796004 $167 $364 forward 7 unknown #
vertex $-1 $170 $365 #
ellipse-curve $-1 -4.9392412187046517 33.250228969186892 13.307649647173079 0 0.77714596973225614 0.62932038083071107 2 0 0 1 I I #
face $-1 $-1 $366 $36 $-1 $367 reversed single #
loop $-1 $-1 $177 $171 #
plane-surface $-1 0 0 16.682784502640697 0 0 1 1 0 0 forward_v I I I I #
coedge $-1 $368 $369 $370 $371 reversed $172 $-1 #
coedge $-1 $372 $174 $176 $271 forward $108 $-1 #
coedge $-1 $174 $372 $368 $373 forward $108 $-1 #
coedge $-1 $370 $177 $174 $268 forward $262 $-1 #
edge $-1 $274 -0.28016056450518789 $374 25.860614410992461 $267 $375 forward 7 unknown #
coedge $-1 $376 $377 $175 $270 forward $366 $-1 #
edge $-1 $378 -64.117171688484291 $273 -57.366901977549063 $269 $379 forward 7 unknown #
edge $-1 $274 63.280744392665596 $378 71.966718423079541 $176 $380 forward 7 unknown #
coedge $-1 $177 $370 $376 $381 forward $262 $-1 #
vertex $-1 $178 $382 #
vertex $-1 $178 $383 #
straight-curve $-1 12.510066358738449 46.12448733919598 16.6827845026407 0 -1 0 I I #
coedge $-1 $276 $276 $-1 $384 reversed $181 $-1 #
edge $-1 $385 0 $385 6.2831853071796004 $182 $386 forward 7 unknown #
vertex $-1 $185 $387 #
ellipse-curve $-1 17.738221353837972 33.250228969186892 13.307649647173079 0 0.77714596973225614 0.62932038083071107 2 0 0 1 I I #
coedge $-1 $280 $280 $-1 $388 reversed $188 $-1 #
edge $-1 $389 0 $389 6.2831853071796004 $189 $390 forward 7 unknown #
vertex $-1 $192 $391 #
ellipse-curve $-1 25.580453846487273 33.250228969186892 13.307649647173079 0 0.77714596973225614 0.62932038083071107 2 0 0 1 I I #
coedge $-1 $284 $284 $-1 $392 reversed $195 $-1 #
edge $-1 $393 0 $393 6.2831853071796004 $196 $394 forward 7 unknown #
vertex $-1 $199 $395 #
ellipse-curve $-1 33.422686339136561 33.250228969186892 13.307649647173079 0 0.77714596973225614 0.62932038083071107 2 0 0 1 I I #
face $-1 $-1 $215 $30 $-1 $396 reversed single #
loop $-1 $-1 $303 $200 #
plane-surface $-1 0 35.983359211539778 0 0 -1 0 0 0 -1 forward_v I I I I #
coedge $-1 $397 $293 $208 $302 reversed $201 $-1 #
coedge $-1 $307 $203 $204 $296 reversed $127 $-1 #
coedge $-1 $291 $398 $203 $294 reversed $201 $-1 #
edge $-1 $308 -16.682784502640697 $399 16.682784502640697 $293 $400 forward 7 unknown #
coedge $-1 $205 $204 $398 $401 forward $81 $-1 #
edge $-1 $300 -65.338908047730939 $399 65.338908047730939 $292 $402 forward 7 unknown #
coedge $-1 $304 $303 $205 $298 reversed $289 $-1 #
edge $-1 $403 -65.338908047730939 $299 65.338908047730939 $297 $404 forward 7 unknown #
vertex $-1 $207 $405 #
vertex $-1 $310 $406 #
straight-curve $-1 65.338908047730939 0 -16.682784502640697 0 -1 0 I I #
edge $-1 $305 -35.983359211539778 $308 35.983359211539778 $291 $407 forward 7 unknown #
coedge $-1 $297 $209 $214 $311 forward $289 $-1 #
coedge $-1 $209 $297 $397 $408 reversed $289 $-1 #
vertex $-1 $210 $409 #
straight-curve $-1 0 35.983359211539778 16.682784502640697 -1 0 0 I I #
coedge $-1 $211 $292 $213 $310 reversed $127 $-1 #
vertex $-1 $302 $410 #
straight-curve $-1 0 -35.983359211539778 16.682784502640697 1 0 0 I I #
edge $-1 $216 -16.682784502640697 $300 16.682784502640697 $213 $411 forward 7 unknown #
edge $-1 $217 -16.682784502640697 $299 16.682784502640697 $214 $412 forward 7 unknown #
point $-1 65.338908047730939 -35.983359211539778 16.682784502640697 #
point $-1 65.338908047730939 35.983359211539778 16.682784502640697 #
face $-1 $-1 $413 $31 $-1 $414 reversed single #
loop $-1 $-1 $227 $219 #
plane-surface $-1 0 0 -16.682784502640697 0 0 1 1 0 0 forward_v I I I I #
coedge $-1 $415 $222 $416 $417 reversed $135 $-1 #
coedge $-1 $222 $415 $321 $418 reversed $135 $-1 #
coedge $-1 $230 $229 $222 $320 reversed $220 $-1 #
edge $-1 $419 -16.682784502640697 $420 16.682784502640697 $319 $421 forward 7 unknown #
coedge $-1 $224 $223 $318 $418 forward $85 $-1 #
edge $-1 $232 -6.3994900675666599 $419 6.3994900675666599 $230 $422 forward 7 unknown #
coedge $-1 $423 $327 $224 $324 reversed $413 $-1 #
edge $-1 $424 -78.137888182864259 $325 -65.338908047730939 $323 $425 forward 7 unknown #
vertex $-1 $328 $426 #
straight-curve $-1 -65.338908047730939 0 16.682784502640697 0 1 0 I I #
coedge $-1 $323 $427 $226 $328 forward $413 $-1 #
edge $-1 $331 -16.682784502640697 $325 16.682784502640697 $327 $428 forward 7 unknown #
coedge $-1 $416 $227 $427 $429 forward $315 $-1 #
coedge $-1 $227 $416 $229 $333 forward $315 $-1 #
vertex $-1 $429 $430 #
straight-curve $-1 -65.338908047730939 0 -16.682784502640697 0 -1 0 I I #
edge $-1 $420 -6.3994900675666599 $231 6.3994900675666599 $229 $431 forward 7 unknown #
point $-1 -65.338908047730939 -32.557398430318756 -16.682784502640697 #
point $-1 -65.338908047730939 -32.557398430318756 16.682784502640697 #
loop $-1 $-1 $242 $234 #
plane-surface $-1 0 35.983359211539778 0 0 -1 0 0 0 -1 forward_v I I I I #
coedge $-1 $339 $237 $239 $343 reversed $143 $-1 #
coedge $-1 $237 $338 $432 $433 reversed $143 $-1 #
coedge $-1 $245 $240 $237 $341 forward $235 $-1 #
edge $-1 $344 -15.607388612361973 $434 -10.141128127656202 $340 $435 forward 7 unknown #
coedge $-1 $239 $238 $347 $436 reversed $89 $-1 #
edge $-1 $437 -71.966718423079541 $344 -63.280744392665596 $338 $438 forward 7 unknown #
vertex $-1 $241 $439 #
straight-curve $-1 -6.3907368556769732 30.517098726834007 16.6827845026407 1 0 0 I I #
coedge $-1 $432 $242 $245 $351 reversed $336 $-1 #
coedge $-1 $242 $432 $342 $436 forward $336 $-1 #
vertex $-1 $243 $440 #
straight-curve $-1 -25.851861199102771 35.983359211539778 74.049686480189763 0 0 1 I I #
straight-curve $-1 -25.851861199102771 -9.3067634336091913 65.861159969057837 0 0.62932038083071107 -0.77714596973225614 I I #
edge $-1 $434 -0.28891377639487814 $246 25.851861199102771 $346 $441 forward 7 unknown #
point $-1 -25.851861199102771 35.983359211539778 16.682784502640697 #
point $-1 -25.851861199102771 30.517098726834007 16.6827845026407 #
edge $-1 $442 1 $442 0 $249 $-1 forward 7 unknown #
vertex $-1 $250 $443 #
ellipse-curve $-1 -20.623706204003241 27.955333563970473 9.0199280058737106 0 0.77714596973225614 0.62932038083071107 2 0 0 1 I I #
point $-1 -18.623706204003241 33.250228969186885 13.307649647173072 #
edge $-1 $444 1 $444 0 $253 $-1 forward 7 unknown #
vertex $-1 $254 $445 #
ellipse-curve $-1 -12.781473711353946 27.955333563970473 9.0199280058737106 0 0.77714596973225614 0.62932038083071107 2 0 0 1 I I #
point $-1 -10.781473711353946 33.250228969186885 13.307649647173072 #
edge $-1 $446 1 $446 0 $257 $-1 forward 7 unknown #
vertex $-1 $258 $447 #
ellipse-curve $-1 -4.9392412187046517 27.955333563970473 9.0199280058737106 0 0.77714596973225614 0.62932038083071107 2 0 0 1 I I #
point $-1 -2.9392412187046517 33.250228969186885 13.307649647173072 #
loop $-1 $-1 $269 $261 #
plane-surface $-1 0 35.983359211539778 0 0 -1 0 0 0 -1 forward_v I I I I #
coedge $-1 $369 $264 $266 $373 reversed $172 $-1 #
coedge $-1 $264 $368 $448 $449 reversed $172 $-1 #
coedge $-1 $272 $267 $264 $371 forward $262 $-1 #
edge $-1 $374 -15.607388612361973 $450 -10.141128127656202 $370 $451 forward 7 unknown #
coedge $-1 $266 $265 $377 $452 reversed $108 $-1 #
edge $-1 $453 -71.966718423079541 $374 -63.280744392665596 $368 $454 forward 7 unknown #
vertex $-1 $268 $455 #
straight-curve $-1 12.790226923243637 30.517098726834007 16.6827845026407 1 0 0 I I #
coedge $-1 $448 $269 $272 $381 reversed $366 $-1 #
coedge $-1 $269 $448 $372 $452 forward $366 $-1 #
vertex $-1 $270 $456 #
straight-curve $-1 12.510066358738449 35.983359211539778 74.049686480189763 0 0 1 I I #
straight-curve $-1 12.510066358738449 -9.3067634336091913 65.861159969057837 0 0.62932038083071107 -0.77714596973225614 I I #
edge $-1 $450 -38.650841334236098 $273 -12.510066358738449 $376 $457 forward 7 unknown #
point $-1 12.510066358738449 35.983359211539778 16.682784502640697 #
point $-1 12.510066358738449 30.517098726834007 16.6827845026407 #
edge $-1 $458 1 $458 0 $276 $-1 forward 7 unknown #
vertex $-1 $277 $459 #
ellipse-curve $-1 17.738221353837972 27.955333563970473 9.0199280058737106 0 0.77714596973225614 0.62932038083071107 2 0 0 1 I I #
point $-1 19.738221353837972 33.250228969186885 13.307649647173072 #
edge $-1 $460 1 $460 0 $280 $-1 forward 7 unknown #
vertex $-1 $281 $461 #
ellipse-curve $-1 25.580453846487273 27.955333563970473 9.0199280058737106 0 0.77714596973225614 0.62932038083071107 2 0 0 1 I I #
point $-1 27.580453846487273 33.250228969186885 13.307649647173072 #
edge $-1 $462 1 $462 0 $284 $-1 forward 7 unknown #
vertex $-1 $285 $463 #
ellipse-curve $-1 33.422686339136561 27.955333563970473 9.0199280058737106 0 0.77714596973225614 0.62932038083071107 2 0 0 1 I I #
point $-1 35.422686339136561 33.250228969186885 13.307649647173072 #
plane-surface $-1 65.338908047730939 0 0 -1 0 0 0 0 1 forward_v I I I I #
coedge $-1 $398 $291 $304 $408 forward $201 $-1 #
coedge $-1 $293 $397 $295 $401 reversed $201 $-1 #
vertex $-1 $401 $464 #
straight-curve $-1 -65.338908047730939 -35.983359211539778 0 0 0 -1 I I #
edge $-1 $399 -35.983359211539778 $403 35.983359211539778 $398 $465 forward 7 unknown #
straight-curve $-1 0 -35.983359211539778 -16.682784502640697 -1 0 0 I I #
vertex $-1 $298 $466 #
straight-curve $-1 0 35.983359211539778 -16.682784502640697 1 0 0 I I #
point $-1 65.338908047730939 35.983359211539778 -16.682784502640697 #
point $-1 65.338908047730939 -35.983359211539778 -16.682784502640697 #
straight-curve $-1 -65.338908047730939 0 16.682784502640697 0 -1 0 I I #
edge $-1 $305 -16.682784502640697 $403 16.682784502640697 $304 $467 forward 7 unknown #
point $-1 -65.338908047730939 35.983359211539778 16.682784502640697 #
point $-1 -65.338908047730939 -35.983359211539778 16.682784502640697 #
straight-curve $-1 65.338908047730939 -35.983359211539778 0 0 0 -1 I I #
straight-curve $-1 65.338908047730939 35.983359211539778 0 0 0 -1 I I #
loop $-1 $-1 $327 $314 #
plane-surface $-1 0 -35.983359211539778 0 0 1 0 0 0 1 forward_v I I I I #
coedge $-1 $318 $317 $423 $468 reversed $135 $-1 #
coedge $-1 $330 $329 $317 $417 forward $315 $-1 #
edge $-1 $469 -1.712980390610511 $420 1.712980390610511 $317 $470 forward 7 unknown #
edge $-1 $419 -1.712980390610511 $424 1.712980390610511 $318 $471 forward 7 unknown #
vertex $-1 $322 $472 #
vertex $-1 $333 $473 #
straight-curve $-1 -78.137888182864259 -32.557398430318756 0 0 0 -1 I I #
straight-curve $-1 -71.738398115297599 -32.557398430318756 16.682784502640697 -1 0 0 I I #
coedge $-1 $427 $323 $415 $468 forward $413 $-1 #
vertex $-1 $418 $474 #
straight-curve $-1 0 -35.983359211539778 16.682784502640697 1 0 0 I I #
point $-1 -65.338908047730939 -35.983359211539778 16.682784502640697 #
coedge $-1 $327 $423 $329 $429 reversed $413 $-1 #
straight-curve $-1 -65.338908047730939 -35.983359211539778 0 0 0 1 I I #
edge $-1 $331 -6.3994900675666599 $469 6.3994900675666599 $427 $475 forward 7 unknown #
point $-1 -65.338908047730939 -35.983359211539778 -16.682784502640697 #
straight-curve $-1 -71.738398115297599 -32.557398430318756 -16.682784502640697 1 0 0 I I #
coedge $-1 $347 $346 $339 $433 forward $336 $-1 #
edge $-1 $434 57.366901977549063 $437 64.117171688484291 $432 $476 forward 7 unknown #
vertex $-1 $351 $477 #
straight-curve $-1 0.28891377639487814 46.12448733919598 16.6827845026407 0 1 0 I I #
edge $-1 $437 -6.6796506320718514 $348 19.461124343425798 $347 $478 forward 7 unknown #
vertex $-1 $436 $479 #
straight-curve $-1 0.28891377639487814 -9.3067634336091913 65.861159969057837 0 -0.62932038083071107 0.77714596973225614 I I #
point $-1 0.28891377639487814 30.517098726834007 16.6827845026407 #
point $-1 -25.851861199102771 35.983359211539778 9.932514791705465 #
straight-curve $-1 0 35.983359211539778 16.682784502640697 -1 0 0 I I #
vertex $-1 $354 $480 #
point $-1 -18.623706204003241 27.955333563970473 9.0199280058737106 #
vertex $-1 $358 $481 #
point $-1 -10.781473711353946 27.955333563970473 9.0199280058737106 #
vertex $-1 $362 $482 #
point $-1 -2.9392412187046517 27.955333563970473 9.0199280058737106 #
coedge $-1 $377 $376 $369 $449 forward $366 $-1 #
edge $-1 $450 57.366901977549063 $453 64.117171688484291 $448 $483 forward 7 unknown #
vertex $-1 $381 $484 #
straight-curve $-1 38.650841334236098 46.12448733919598 16.6827845026407 0 1 0 I I #
edge $-1 $453 -25.860614410992461 $378 0.28016056450518789 $377 $485 forward 7 unknown #
vertex $-1 $452 $486 #
straight-curve $-1 38.650841334236098 -9.3067634336091913 65.861159969057837 0 -0.62932038083071107 0.77714596973225614 I I #
point $-1 38.650841334236098 30.517098726834007 16.6827845026407 #
point $-1 12.510066358738449 35.983359211539778 9.932514791705465 #
straight-curve $-1 0 35.983359211539778 16.682784502640697 -1 0 0 I I #
vertex $-1 $384 $487 #
point $-1 19.738221353837972 27.955333563970473 9.0199280058737106 #
vertex $-1 $388 $488 #
point $-1 27.580453846487273 27.955333563970473 9.0199280058737106 #
vertex $-1 $392 $489 #
point $-1 35.422686339136561 27.955333563970473 9.0199280058737106 #
point $-1 -65.338908047730939 -35.983359211539778 -16.682784502640697 #
straight-curve $-1 -65.338908047730939 0 -16.682784502640697 0 1 0 I I #
point $-1 -65.338908047730939 35.983359211539778 -16.682784502640697 #
straight-curve $-1 -65.338908047730939 35.983359211539778 0 0 0 -1 I I #
edge $-1 $424 -16.682784502640697 $469 16.682784502640697 $415 $490 forward 7 unknown #
vertex $-1 $417 $491 #
straight-curve $-1 -78.137888182864259 -34.270378820929267 -16.682784502640697 0 1 0 I I #
straight-curve $-1 -78.137888182864259 -34.270378820929267 16.682784502640697 0 -1 0 I I #
point $-1 -78.137888182864259 -32.557398430318756 16.682784502640697 #
point $-1 -78.137888182864259 -32.557398430318756 -16.682784502640697 #
point $-1 -78.137888182864259 -35.983359211539778 16.682784502640697 #
straight-curve $-1 -71.738398115297599 -35.983359211539778 -16.682784502640697 -1 0 0 I I #
straight-curve $-1 0.28891377639487814 35.983359211539778 74.049686480189763 0 0 -1 I I #
point $-1 0.28891377639487814 35.983359211539778 16.682784502640697 #
straight-curve $-1 -6.3907368556769732 35.983359211539778 9.9325147917054579 -1 0 0 I I #
point $-1 0.28891377639487814 35.983359211539778 9.932514791705465 #
point $-1 -20.623706204003241 26.401041624505961 7.7612872442122889 #
point $-1 -12.781473711353946 26.401041624505961 7.7612872442122889 #
point $-1 -4.9392412187046517 26.401041624505961 7.7612872442122889 #
straight-curve $-1 38.650841334236098 35.983359211539778 74.049686480189763 0 0 -1 I I #
point $-1 38.650841334236098 35.983359211539778 16.682784502640697 #
straight-curve $-1 12.790226923243637 35.983359211539778 9.9325147917054579 -1 0 0 I I #
point $-1 38.650841334236098 35.983359211539778 9.932514791705465 #
point $-1 17.738221353837972 26.401041624505961 7.7612872442122889 #
point $-1 25.580453846487273 26.401041624505961 7.7612872442122889 #
point $-1 33.422686339136561 26.401041624505961 7.7612872442122889 #
straight-curve $-1 -78.137888182864259 -35.983359211539778 0 0 0 -1 I I #
point $-1 -78.137888182864259 -35.983359211539778 -16.682784502640697 #
End-of-ACIS-data 