500 0 17 0           
7 Unknown 11 ACIS 5.0 NT 24 Thu Mar 25 22:12:28 1999 
-1 9.9999999999999995e-007 1e-010 
body $-1 $17 $-1 $18 #
body $-1 $19 $-1 $20 #
body $-1 $21 $-1 $22 #
body $-1 $23 $-1 $24 #
body $-1 $25 $-1 $26 #
body $-1 $27 $-1 $28 #
body $-1 $29 $-1 $30 #
body $-1 $31 $-1 $32 #
body $-1 $33 $-1 $34 #
body $-1 $35 $-1 $36 #
body $-1 $37 $-1 $38 #
body $-1 $39 $-1 $40 #
body $-1 $41 $-1 $42 #
body $-1 $43 $-1 $44 #
body $-1 $45 $-1 $46 #
body $-1 $47 $-1 $48 #
body $-1 $49 $-1 $50 #
lump $-1 $-1 $51 $0 #
transform $-1 1 0 0 0 1 0 0 0 1 50.716879787591175 24.477894439186969 6.6534871856460054 1 rotate no_reflect no_shear #
lump $-1 $-1 $52 $1 #
transform $-1 1 0 0 0 1 0 0 0 1 50.716879787591175 24.477894439186969 6.6534871856460054 1 rotate no_reflect no_shear #
lump $-1 $-1 $53 $2 #
transform $-1 1 0 0 0 1 0 0 0 1 50.716879787591175 24.477894439186969 6.6534871856460054 1 rotate no_reflect no_shear #
lump $-1 $-1 $54 $3 #
transform $-1 1 0 0 0 1 0 0 0 1 50.716879787591175 24.477894439186969 6.6534871856460054 1 rotate no_reflect no_shear #
lump $-1 $-1 $55 $4 #
transform $-1 1 0 0 0 1 0 0 0 1 50.716879787591175 24.477894439186969 6.6534871856460054 1 rotate no_reflect no_shear #
lump $-1 $-1 $56 $5 #
transform $-1 1 0 0 0 1 0 0 0 1 50.716879787591175 24.477894439186969 6.6534871856460054 1 rotate no_reflect no_shear #
lump $-1 $-1 $57 $6 #
transform $-1 1 0 0 0 1 0 0 0 1 50.716879787591175 24.477894439186969 6.6534871856460054 1 rotate no_reflect no_shear #
lump $-1 $-1 $58 $7 #
transform $-1 1 0 0 0 1 0 0 0 1 50.716879787591175 24.477894439186969 6.6534871856460054 1 rotate no_reflect no_shear #
lump $-1 $-1 $59 $8 #
transform $-1 1 0 0 0 1 0 0 0 1 50.716879787591175 24.477894439186969 6.6534871856460054 1 rotate no_reflect no_shear #
lump $-1 $-1 $60 $9 #
transform $-1 1 0 0 0 1 0 0 0 1 50.716879787591175 24.477894439186969 6.6534871856460054 1 rotate no_reflect no_shear #
lump $-1 $-1 $61 $10 #
transform $-1 1 0 0 0 1 0 0 0 1 50.716879787591175 24.477894439186969 6.6534871856460054 1 rotate no_reflect no_shear #
lump $-1 $-1 $62 $11 #
transform $-1 1 0 0 0 1 0 0 0 1 50.716879787591175 24.477894439186969 6.6534871856460054 1 rotate no_reflect no_shear #
lump $-1 $-1 $63 $12 #
transform $-1 1 0 0 0 1 0 0 0 1 50.716879787591175 24.477894439186969 6.6534871856460054 1 rotate no_reflect no_shear #
lump $-1 $-1 $64 $13 #
transform $-1 1 0 0 0 1 0 0 0 1 50.716879787591175 24.477894439186969 6.6534871856460054 1 rotate no_reflect no_shear #
lump $-1 $-1 $65 $14 #
transform $-1 1 0 0 0 1 0 0 0 1 50.716879787591175 24.477894439186969 6.6534871856460054 1 rotate no_reflect no_shear #
lump $-1 $-1 $66 $15 #
transform $-1 1 0 0 0 1 0 0 0 1 50.716879787591175 24.477894439186969 6.6534871856460054 1 rotate no_reflect no_shear #
lump $-1 $-1 $67 $16 #
transform $-1 1 0 0 0 1 0 0 0 1 50.716879787591175 24.477894439186969 6.6534871856460054 1 rotate no_reflect no_shear #
shell $-1 $-1 $-1 $68 $-1 $17 #
shell $-1 $-1 $-1 $69 $-1 $19 #
shell $-1 $-1 $-1 $70 $-1 $21 #
shell $-1 $-1 $-1 $71 $-1 $23 #
shell $-1 $-1 $-1 $72 $-1 $25 #
shell $-1 $-1 $-1 $73 $-1 $27 #
shell $-1 $-1 $-1 $74 $-1 $29 #
shell $-1 $-1 $-1 $75 $-1 $31 #
shell $-1 $-1 $-1 $76 $-1 $33 #
shell $-1 $-1 $-1 $77 $-1 $35 #
shell $-1 $-1 $-1 $78 $-1 $37 #
shell $-1 $-1 $-1 $79 $-1 $39 #
shell $-1 $-1 $-1 $80 $-1 $41 #
shell $-1 $-1 $-1 $81 $-1 $43 #
shell $-1 $-1 $-1 $82 $-1 $45 #
shell $-1 $-1 $-1 $83 $-1 $47 #
shell $-1 $-1 $-1 $84 $-1 $49 #
face $-1 $85 $86 $51 $-1 $87 forward single #
face $-1 $88 $89 $52 $-1 $90 reversed single #
face $-1 $91 $92 $53 $-1 $93 reversed single #
face $-1 $94 $95 $54 $-1 $96 reversed single #
face $-1 $97 $98 $55 $-1 $99 forward single #
face $-1 $100 $101 $56 $-1 $102 forward single #
face $-1 $103 $104 $57 $-1 $105 reversed single #
face $-1 $106 $107 $58 $-1 $108 forward single #
face $-1 $109 $110 $59 $-1 $111 forward single #
face $-1 $112 $113 $60 $-1 $114 reversed single #
face $-1 $115 $116 $61 $-1 $117 forward single #
face $-1 $118 $119 $62 $-1 $120 forward single #
face $-1 $121 $122 $63 $-1 $123 forward single #
face $-1 $124 $125 $64 $-1 $126 reversed single #
face $-1 $127 $128 $65 $-1 $129 forward single #
face $-1 $130 $131 $66 $-1 $132 forward single #
face $-1 $133 $134 $67 $-1 $135 forward single #
face $-1 $136 $137 $51 $-1 $138 reversed single #
loop $-1 $-1 $139 $68 #
plane-surface $-1 0 0 6.6534871856460054 0 0 1 1 0 0 forward_v I I I I #
face $-1 $140 $141 $52 $-1 $142 reversed single #
loop $-1 $-1 $143 $69 #
plane-surface $-1 -46.485124266561364 -19.719958273527524 0 0 1 0 0 0 1 forward_v I I I I #
face $-1 $144 $145 $53 $-1 $146 reversed single #
loop $-1 $-1 $147 $70 #
plane-surface $-1 44.730118030099263 0 5.1534871856460054 1 0 0 0 0 -1 forward_v I I I I #
face $-1 $148 $149 $54 $-1 $150 reversed single #
loop $-1 $-1 $151 $71 #
plane-surface $-1 -23.38122839751745 36.712735051310617 112.80023358377659 1 0 0 0 -0.52991927123019833 -0.84804809178421925 forward_v I I I I #
face $-1 $152 $153 $55 $-1 $154 forward single #
loop $-1 $155 $156 $72 #
cone-surface $-1 -18.592280591356442 19.490073977106171 3.2113485129712149 0 -0.52991927123019833 -0.84804809178421925 1 0 0 1 I I 0 1 1 forward I I I I #
face $-1 $157 $158 $56 $-1 $159 forward single #
loop $-1 $160 $161 $73 #
cone-surface $-1 -11.408858882114934 19.490073977106171 3.2113485129712149 0 -0.52991927123019833 -0.84804809178421925 1 0 0 1 I I 0 1 1 forward I I I I #
face $-1 $162 $163 $57 $-1 $164 reversed single #
loop $-1 $-1 $165 $74 #
plane-surface $-1 9.0966603605216214 36.712735051310617 112.80023358377659 1 0 0 0 -0.52991927123019833 -0.84804809178421925 forward_v I I I I #
face $-1 $166 $167 $58 $-1 $168 forward single #
loop $-1 $169 $170 $75 #
cone-surface $-1 13.885608166682623 19.490073977106171 3.2113485129712149 0 -0.52991927123019833 -0.84804809178421925 1 0 0 1 I I 0 1 1 forward I I I I #
face $-1 $171 $172 $59 $-1 $173 forward single #
loop $-1 $174 $175 $76 #
cone-surface $-1 21.069029875924123 19.490073977106171 3.2113485129712149 0 -0.52991927123019833 -0.84804809178421925 1 0 0 1 I I 0 1 1 forward I I I I #
face $-1 $176 $177 $60 $-1 $178 reversed single #
loop $-1 $-1 $179 $77 #
plane-surface $-1 1.2383746422838477 -99.857868836194783 71.103449654832772 -1 0 0 0 -0.74314483375859142 0.66913059716165679 forward_v I I I I #
face $-1 $180 $181 $61 $-1 $182 forward single #
loop $-1 $183 $184 $78 #
cone-surface $-1 -15.288992220295441 -21.55469763429171 3.6975391659310213 0 0.74314483375859142 -0.66913059716165679 1 0 0 1 I I 0 1 1 forward I I I I #
face $-1 $185 $186 $62 $-1 $187 forward single #
loop $-1 $188 $189 $79 #
cone-surface $-1 -9.0912296468282108 -21.55469763429171 3.6975391659310213 0 0.74314483375859142 -0.66913059716165679 1 0 0 1 I I 0 1 1 forward I I I I #
face $-1 $190 $191 $63 $-1 $192 forward single #
loop $-1 $193 $194 $80 #
cone-surface $-1 -2.8934670733609806 -21.55469763429171 3.6975391659310213 0 0.74314483375859142 -0.66913059716165679 1 0 0 1 I I 0 1 1 forward I I I I #
face $-1 $195 $196 $64 $-1 $197 reversed single #
loop $-1 $-1 $198 $81 #
plane-surface $-1 34.400513740987201 -24.477894439186969 3.2310175379390813 0 -0.74314483375859142 0.66913059716165679 1 0 0 forward_v I I I I #
face $-1 $199 $200 $65 $-1 $201 forward single #
loop $-1 $202 $203 $82 #
cone-surface $-1 28.202751167519956 -21.55469763429171 3.6975391659310213 0 0.74314483375859142 -0.66913059716165679 1 0 0 1 I I 0 1 1 forward I I I I #
face $-1 $204 $205 $66 $-1 $206 forward single #
loop $-1 $207 $208 $83 #
cone-surface $-1 34.400513740987186 -21.55469763429171 3.6975391659310213 0 0.74314483375859142 -0.66913059716165679 1 0 0 1 I I 0 1 1 forward I I I I #
face $-1 $209 $210 $67 $-1 $211 forward single #
loop $-1 $212 $213 $84 #
cone-surface $-1 40.598276314454417 -21.55469763429171 3.6975391659310213 0 0.74314483375859142 -0.66913059716165679 1 0 0 1 I I 0 1 1 forward I I I I #
face $-1 $214 $215 $51 $-1 $216 reversed single #
loop $-1 $-1 $217 $85 #
plane-surface $-1 0 0 -6.6534871856460054 0 0 1 1 0 0 forward_v I I I I #
coedge $-1 $218 $219 $220 $221 forward $86 $-1 #
face $-1 $222 $223 $52 $-1 $224 reversed single #
loop $-1 $-1 $225 $88 #
plane-surface $-1 -46.485124266561364 -16.719958273527524 0 0 -1 0 0 0 -1 forward_v I I I I #
coedge $-1 $226 $227 $228 $229 reversed $89 $-1 #
face $-1 $230 $231 $53 $-1 $232 reversed single #
loop $-1 $-1 $233 $91 #
plane-surface $-1 47.723498908845222 0 3.6534871856460054 0 0 1 1 0 0 forward_v I I I I #
coedge $-1 $234 $235 $236 $237 reversed $92 $-1 #
face $-1 $238 $239 $54 $-1 $240 reversed single #
loop $-1 $-1 $241 $94 #
plane-surface $-1 -15.000569736735692 -17.038968900909168 26.779527333543925 0 0.52991927123019833 0.84804809178421925 1 0 0 forward_v I I I I #
coedge $-1 $242 $243 $244 $245 reversed $95 $-1 #
face $-1 $-1 $246 $55 $-1 $247 forward single #
loop $-1 $248 $249 $97 #
cone-surface $-1 -18.592280591356442 18.891527354349577 2.2534737029190328 0 -0.52991927123019833 -0.84804809178421925 0.5 0 0 1 I I -0.70710678118654746 0.70710678118654746 0.5 forward I I I I #
loop $-1 $-1 $250 $72 #
coedge $-1 $156 $156 $251 $252 reversed $98 $-1 #
face $-1 $-1 $253 $56 $-1 $254 forward single #
loop $-1 $255 $256 $100 #
cone-surface $-1 -11.408858882114934 18.891527354349577 2.2534737029190328 0 -0.52991927123019833 -0.84804809178421925 0.5 0 0 1 I I -0.70710678118654746 0.70710678118654746 0.5 forward I I I I #
loop $-1 $-1 $257 $73 #
coedge $-1 $161 $161 $258 $259 reversed $101 $-1 #
face $-1 $260 $261 $57 $-1 $262 reversed single #
loop $-1 $-1 $263 $103 #
plane-surface $-1 17.47731902130338 -17.038968900909168 26.779527333543925 0 0.52991927123019833 0.84804809178421925 1 0 0 forward_v I I I I #
coedge $-1 $264 $265 $266 $267 reversed $104 $-1 #
face $-1 $-1 $268 $58 $-1 $269 forward single #
loop $-1 $270 $271 $106 #
cone-surface $-1 13.885608166682623 18.891527354349577 2.2534737029190328 0 -0.52991927123019833 -0.84804809178421925 0.5 0 0 1 I I -0.70710678118654746 0.70710678118654746 0.5 forward I I I I #
loop $-1 $-1 $272 $75 #
coedge $-1 $170 $170 $273 $274 reversed $107 $-1 #
face $-1 $-1 $275 $59 $-1 $276 forward single #
loop $-1 $277 $278 $109 #
cone-surface $-1 21.069029875924123 18.891527354349577 2.2534737029190328 0 -0.52991927123019833 -0.84804809178421925 0.5 0 0 1 I I -0.70710678118654746 0.70710678118654746 0.5 forward I I I I #
loop $-1 $-1 $279 $76 #
coedge $-1 $175 $175 $280 $281 reversed $110 $-1 #
face $-1 $282 $283 $60 $-1 $284 reversed single #
loop $-1 $-1 $285 $112 #
plane-surface $-1 -9.0912296468282037 -24.477894439186969 3.2310175379390813 0 -0.74314483375859142 0.66913059716165679 1 0 0 forward_v I I I I #
coedge $-1 $286 $287 $288 $289 reversed $113 $-1 #
face $-1 $-1 $290 $61 $-1 $291 forward single #
loop $-1 $292 $293 $115 #
cone-surface $-1 -15.288992220295441 -19.80073113030992 2.118260671488672 0 0.74314483375859142 -0.66913059716165679 0.5 0 0 1 I I -0.70710678118654746 0.70710678118654746 0.5 forward I I I I #
loop $-1 $-1 $294 $78 #
coedge $-1 $184 $184 $295 $296 reversed $116 $-1 #
face $-1 $-1 $297 $62 $-1 $298 forward single #
loop $-1 $299 $300 $118 #
cone-surface $-1 -9.0912296468282108 -19.80073113030992 2.118260671488672 0 0.74314483375859142 -0.66913059716165679 0.5 0 0 1 I I -0.70710678118654746 0.70710678118654746 0.5 forward I I I I #
loop $-1 $-1 $301 $79 #
coedge $-1 $189 $189 $302 $303 reversed $119 $-1 #
face $-1 $-1 $304 $63 $-1 $305 forward single #
loop $-1 $306 $307 $121 #
cone-surface $-1 -2.8934670733609806 -19.80073113030992 2.118260671488672 0 0.74314483375859142 -0.66913059716165679 0.5 0 0 1 I I -0.70710678118654746 0.70710678118654746 0.5 forward I I I I #
loop $-1 $-1 $308 $80 #
coedge $-1 $194 $194 $309 $310 reversed $122 $-1 #
face $-1 $311 $312 $64 $-1 $313 reversed single #
loop $-1 $-1 $314 $124 #
plane-surface $-1 24.070909451875149 -99.857868836194783 71.103449654832772 1 0 0 0 0.74314483375859142 -0.66913059716165679 forward_v I I I I #
coedge $-1 $315 $316 $317 $318 reversed $125 $-1 #
face $-1 $-1 $319 $65 $-1 $320 forward single #
loop $-1 $321 $322 $127 #
cone-surface $-1 28.202751167519956 -19.80073113030992 2.118260671488672 0 0.74314483375859142 -0.66913059716165679 0.5 0 0 1 I I -0.70710678118654746 0.70710678118654746 0.5 forward I I I I #
loop $-1 $-1 $323 $82 #
coedge $-1 $203 $203 $324 $325 reversed $128 $-1 #
face $-1 $-1 $326 $66 $-1 $327 forward single #
loop $-1 $328 $329 $130 #
cone-surface $-1 34.400513740987186 -19.80073113030992 2.118260671488672 0 0.74314483375859142 -0.66913059716165679 0.5 0 0 1 I I -0.70710678118654746 0.70710678118654746 0.5 forward I I I I #
loop $-1 $-1 $330 $83 #
coedge $-1 $208 $208 $331 $332 reversed $131 $-1 #
face $-1 $-1 $333 $67 $-1 $334 forward single #
loop $-1 $335 $336 $133 #
cone-surface $-1 40.598276314454417 -19.80073113030992 2.118260671488672 0 0.74314483375859142 -0.66913059716165679 0.5 0 0 1 I I -0.70710678118654746 0.70710678118654746 0.5 forward I I I I #
loop $-1 $-1 $337 $84 #
coedge $-1 $213 $213 $338 $339 reversed $134 $-1 #
face $-1 $340 $341 $51 $-1 $342 reversed single #
loop $-1 $-1 $343 $136 #
plane-surface $-1 0 -24.477894439186969 0 0 1 0 0 0 1 forward_v I I I I #
coedge $-1 $344 $345 $346 $347 forward $137 $-1 #
coedge $-1 $348 $139 $349 $350 forward $86 $-1 #
coedge $-1 $139 $348 $351 $352 forward $86 $-1 #
coedge $-1 $353 $354 $139 $221 reversed $355 $-1 #
edge $-1 $356 -24.477894439186969 $357 24.477894439186969 $220 $358 forward 7 unknown #
face $-1 $359 $360 $52 $-1 $361 reversed single #
loop $-1 $-1 $362 $140 #
plane-surface $-1 -42.253368745531553 -18.219958273527524 0 -1 0 0 0 0 1 forward_v I I I I #
coedge $-1 $363 $364 $365 $366 forward $141 $-1 #
coedge $-1 $367 $143 $368 $369 reversed $89 $-1 #
coedge $-1 $143 $367 $370 $371 reversed $89 $-1 #
coedge $-1 $372 $373 $143 $229 forward $374 $-1 #
edge $-1 $375 -6.6534871856460054 $376 6.6534871856460054 $228 $377 forward 7 unknown #
face $-1 $378 $379 $53 $-1 $380 reversed single #
loop $-1 $-1 $381 $144 #
plane-surface $-1 0 -24.477894439186969 0 0 1 0 0 0 1 forward_v I I I I #
coedge $-1 $382 $383 $384 $385 reversed $145 $-1 #
coedge $-1 $386 $147 $387 $388 reversed $92 $-1 #
coedge $-1 $147 $386 $381 $389 reversed $92 $-1 #
coedge $-1 $390 $391 $147 $237 forward $392 $-1 #
edge $-1 $393 -24.477894439186969 $394 24.477894439186969 $236 $395 forward 7 unknown #
face $-1 $396 $397 $54 $-1 $398 reversed single #
loop $-1 $-1 $399 $148 #
plane-surface $-1 -6.619911075953933 36.712735051310617 112.80023358377659 -1 0 0 0 0.52991927123019833 0.84804809178421925 forward_v I I I I #
coedge $-1 $400 $401 $402 $403 reversed $149 $-1 #
coedge $-1 $243 $151 $404 $405 reversed $95 $-1 #
coedge $-1 $151 $242 $400 $406 reversed $95 $-1 #
coedge $-1 $402 $407 $151 $245 forward $408 $-1 #
edge $-1 $409 -6.1215269135316603 $410 3.186940036346968 $244 $411 forward 7 unknown #
loop $-1 $-1 $251 $152 #
plane-surface $-1 -15.000569736735692 -17.038968900909168 26.779527333543925 0 0.52991927123019833 0.84804809178421925 1 0 0 forward_v I I I I #
loop $-1 $-1 $412 $97 #
coedge $-1 $249 $249 $250 $413 reversed $153 $-1 #
coedge $-1 $250 $250 $249 $413 forward $155 $-1 #
coedge $-1 $251 $251 $156 $252 forward $246 $-1 #
edge $-1 $414 -1.6937565529363375e-015 $414 6.2831853071795987 $251 $415 forward 7 unknown #
loop $-1 $-1 $258 $157 #
plane-surface $-1 -15.000569736735692 -17.038968900909168 26.779527333543925 0 0.52991927123019833 0.84804809178421925 1 0 0 forward_v I I I I #
loop $-1 $-1 $416 $100 #
coedge $-1 $256 $256 $257 $417 reversed $158 $-1 #
coedge $-1 $257 $257 $256 $417 forward $160 $-1 #
coedge $-1 $258 $258 $161 $259 forward $253 $-1 #
edge $-1 $418 -1.6937565529363375e-015 $418 6.2831853071795987 $258 $419 forward 7 unknown #
face $-1 $420 $421 $57 $-1 $422 forward single #
loop $-1 $-1 $423 $162 #
plane-surface $-1 25.857977682085139 36.712735051310617 112.80023358377659 -1 0 0 0 0.52991927123019833 0.84804809178421925 forward_v I I I I #
coedge $-1 $424 $425 $426 $427 reversed $163 $-1 #
coedge $-1 $265 $165 $428 $429 reversed $104 $-1 #
coedge $-1 $165 $264 $424 $430 reversed $104 $-1 #
coedge $-1 $426 $431 $165 $267 forward $421 $-1 #
edge $-1 $432 -6.1215269135316603 $433 3.186940036346968 $266 $434 forward 7 unknown #
loop $-1 $-1 $273 $166 #
plane-surface $-1 17.47731902130338 -17.038968900909168 26.779527333543925 0 0.52991927123019833 0.84804809178421925 1 0 0 forward_v I I I I #
loop $-1 $-1 $435 $106 #
coedge $-1 $271 $271 $272 $436 reversed $167 $-1 #
coedge $-1 $272 $272 $271 $436 forward $169 $-1 #
coedge $-1 $273 $273 $170 $274 forward $268 $-1 #
edge $-1 $437 -1.6937565529363375e-015 $437 6.2831853071795987 $273 $438 forward 7 unknown #
loop $-1 $-1 $280 $171 #
plane-surface $-1 17.47731902130338 -17.038968900909168 26.779527333543925 0 0.52991927123019833 0.84804809178421925 1 0 0 forward_v I I I I #
loop $-1 $-1 $439 $109 #
coedge $-1 $278 $278 $279 $440 reversed $172 $-1 #
coedge $-1 $279 $279 $278 $440 forward $174 $-1 #
coedge $-1 $280 $280 $175 $281 forward $275 $-1 #
edge $-1 $441 -1.6937565529363375e-015 $441 6.2831853071795987 $280 $442 forward 7 unknown #
face $-1 $443 $444 $60 $-1 $445 forward single #
loop $-1 $-1 $446 $176 #
plane-surface $-1 -19.420833935940255 -99.857868836194783 71.103449654832772 1 0 0 0 0.74314483375859142 -0.66913059716165679 forward_v I I I I #
coedge $-1 $447 $448 $449 $450 reversed $177 $-1 #
coedge $-1 $287 $179 $451 $452 reversed $113 $-1 #
coedge $-1 $179 $286 $447 $453 reversed $113 $-1 #
coedge $-1 $449 $454 $179 $289 forward $444 $-1 #
edge $-1 $455 25.451039978910423 $456 28.532645414495953 $288 $457 forward 7 unknown #
loop $-1 $-1 $295 $180 #
plane-surface $-1 -9.0912296468282037 -24.477894439186969 3.2310175379390813 0 -0.74314483375859142 0.66913059716165679 1 0 0 forward_v I I I I #
loop $-1 $-1 $458 $115 #
coedge $-1 $293 $293 $294 $459 reversed $181 $-1 #
coedge $-1 $294 $294 $293 $459 forward $183 $-1 #
coedge $-1 $295 $295 $184 $296 forward $290 $-1 #
edge $-1 $460 -6.60045204056018e-016 $460 6.2831853071795996 $295 $461 forward 7 unknown #
loop $-1 $-1 $302 $185 #
plane-surface $-1 -9.0912296468282037 -24.477894439186969 3.2310175379390813 0 -0.74314483375859142 0.66913059716165679 1 0 0 forward_v I I I I #
loop $-1 $-1 $462 $118 #
coedge $-1 $300 $300 $301 $463 reversed $186 $-1 #
coedge $-1 $301 $301 $300 $463 forward $188 $-1 #
coedge $-1 $302 $302 $189 $303 forward $297 $-1 #
edge $-1 $464 -6.60045204056018e-016 $464 6.2831853071795996 $302 $465 forward 7 unknown #
loop $-1 $-1 $309 $190 #
plane-surface $-1 -9.0912296468282037 -24.477894439186969 3.2310175379390813 0 -0.74314483375859142 0.66913059716165679 1 0 0 forward_v I I I I #
loop $-1 $-1 $466 $121 #
coedge $-1 $307 $307 $308 $467 reversed $191 $-1 #
coedge $-1 $308 $308 $307 $467 forward $193 $-1 #
coedge $-1 $309 $309 $194 $310 forward $304 $-1 #
edge $-1 $468 -6.60045204056018e-016 $468 6.2831853071795996 $309 $469 forward 7 unknown #
face $-1 $470 $471 $64 $-1 $472 forward single #
loop $-1 $-1 $473 $195 #
plane-surface $-1 0 -24.477894439186969 0 0 1 0 0 0 1 forward_v I I I I #
coedge $-1 $474 $475 $476 $477 reversed $196 $-1 #
coedge $-1 $478 $198 $479 $480 reversed $125 $-1 #
coedge $-1 $198 $478 $474 $481 forward $125 $-1 #
coedge $-1 $476 $482 $198 $318 forward $471 $-1 #
edge $-1 $483 -27.529861159605648 $484 -6.8706525813815489 $317 $485 forward 7 unknown #
loop $-1 $-1 $324 $199 #
plane-surface $-1 34.400513740987201 -24.477894439186969 3.2310175379390813 0 -0.74314483375859142 0.66913059716165679 1 0 0 forward_v I I I I #
loop $-1 $-1 $486 $127 #
coedge $-1 $322 $322 $323 $487 reversed $200 $-1 #
coedge $-1 $323 $323 $322 $487 forward $202 $-1 #
coedge $-1 $324 $324 $203 $325 forward $319 $-1 #
edge $-1 $488 -6.60045204056018e-016 $488 6.2831853071795996 $324 $489 forward 7 unknown #
loop $-1 $-1 $331 $204 #
plane-surface $-1 34.400513740987201 -24.477894439186969 3.2310175379390813 0 -0.74314483375859142 0.66913059716165679 1 0 0 forward_v I I I I #
loop $-1 $-1 $490 $130 #
coedge $-1 $329 $329 $330 $491 reversed $205 $-1 #
coedge $-1 $330 $330 $329 $491 forward $207 $-1 #
coedge $-1 $331 $331 $208 $332 forward $326 $-1 #
edge $-1 $492 -6.60045204056018e-016 $492 6.2831853071795996 $331 $493 forward 7 unknown #
loop $-1 $-1 $338 $209 #
plane-surface $-1 34.400513740987201 -24.477894439186969 3.2310175379390813 0 -0.74314483375859142 0.66913059716165679 1 0 0 forward_v I I I I #
loop $-1 $-1 $494 $133 #
coedge $-1 $336 $336 $337 $495 reversed $210 $-1 #
coedge $-1 $337 $337 $336 $495 forward $212 $-1 #
coedge $-1 $338 $338 $213 $339 forward $333 $-1 #
edge $-1 $496 -6.60045204056018e-016 $496 6.2831853071795996 $338 $497 forward 7 unknown #
face $-1 $498 $499 $51 $-1 $500 reversed single #
loop $-1 $-1 $501 $214 #
plane-surface $-1 -50.716879787591175 0 0 1 0 0 0 0 -1 forward_v I I I I #
coedge $-1 $502 $351 $503 $504 forward $215 $-1 #
coedge $-1 $505 $217 $502 $506 forward $137 $-1 #
coedge $-1 $217 $505 $507 $508 forward $137 $-1 #
coedge $-1 $354 $353 $217 $347 reversed $355 $-1 #
edge $-1 $509 -24.477894439186969 $510 24.477894439186969 $346 $511 forward 7 unknown #
coedge $-1 $219 $218 $512 $513 forward $86 $-1 #
coedge $-1 $514 $515 $218 $350 reversed $499 $-1 #
edge $-1 $357 -50.716879787591175 $516 50.716879787591175 $349 $517 forward 7 unknown #
coedge $-1 $343 $518 $219 $352 reversed $215 $-1 #
edge $-1 $519 -50.716879787591175 $356 50.716879787591175 $351 $520 forward 7 unknown #
coedge $-1 $346 $220 $518 $521 forward $355 $-1 #
coedge $-1 $220 $346 $514 $522 reversed $355 $-1 #
loop $-1 $-1 $353 $498 #
vertex $-1 $221 $523 #
vertex $-1 $221 $524 #
straight-curve $-1 50.716879787591175 0 6.6534871856460054 0 1 0 I I #
face $-1 $525 $526 $52 $-1 $527 forward single #
loop $-1 $-1 $528 $222 #
plane-surface $-1 0 0 -6.6534871856460054 0 0 1 1 0 0 forward_v I I I I #
coedge $-1 $529 $530 $367 $531 forward $223 $-1 #
coedge $-1 $532 $225 $528 $533 reversed $141 $-1 #
coedge $-1 $225 $532 $534 $535 reversed $141 $-1 #
coedge $-1 $530 $529 $225 $366 reversed $223 $-1 #
edge $-1 $536 -6.6534871856460054 $537 6.6534871856460054 $365 $538 forward 7 unknown #
coedge $-1 $227 $226 $362 $531 reversed $89 $-1 #
coedge $-1 $539 $540 $226 $369 forward $360 $-1 #
edge $-1 $541 19.010806612250871 $375 27.474317654310493 $368 $542 forward 7 unknown #
coedge $-1 $543 $544 $227 $371 forward $526 $-1 #
edge $-1 $376 -27.474317654310493 $545 -19.010806612250871 $370 $546 forward 7 unknown #
coedge $-1 $547 $228 $544 $548 reversed $374 $-1 #
coedge $-1 $228 $547 $539 $549 reversed $374 $-1 #
loop $-1 $-1 $547 $525 #
vertex $-1 $549 $550 #
vertex $-1 $229 $551 #
straight-curve $-1 -50.716879787591175 -19.719958273527524 0 0 0 1 I I #
face $-1 $552 $392 $53 $-1 $553 forward single #
loop $-1 $-1 $384 $230 #
plane-surface $-1 50.716879787591175 0 0 -1 0 0 0 0 1 forward_v I I I I #
coedge $-1 $554 $555 $235 $389 forward $231 $-1 #
coedge $-1 $556 $233 $554 $557 reversed $145 $-1 #
coedge $-1 $233 $556 $558 $559 reversed $145 $-1 #
coedge $-1 $560 $561 $233 $385 forward $379 $-1 #
edge $-1 $562 -24.477894439186969 $563 24.477894439186969 $384 $564 forward 7 unknown #
coedge $-1 $235 $234 $556 $565 reversed $92 $-1 #
coedge $-1 $566 $558 $234 $388 forward $567 $-1 #
edge $-1 $568 1.0767435928230027 $393 4.0767435928230027 $387 $569 forward 7 unknown #
edge $-1 $394 -4.0767435928230027 $570 -1.0767435928230027 $381 $571 forward 7 unknown #
coedge $-1 $572 $236 $555 $573 forward $392 $-1 #
coedge $-1 $236 $572 $566 $574 forward $392 $-1 #
loop $-1 $-1 $236 $378 #
vertex $-1 $388 $575 #
vertex $-1 $573 $576 #
straight-curve $-1 44.730118030099263 0 6.6534871856460054 0 -1 0 I I #
face $-1 $-1 $408 $54 $-1 $577 forward single #
loop $-1 $-1 $578 $238 #
plane-surface $-1 0 24.477894439186969 0 0 -1 0 0 0 -1 forward_v I I I I #
coedge $-1 $579 $580 $581 $582 reversed $239 $-1 #
coedge $-1 $583 $241 $243 $406 forward $149 $-1 #
coedge $-1 $241 $583 $579 $584 forward $149 $-1 #
coedge $-1 $581 $244 $241 $403 forward $408 $-1 #
edge $-1 $410 -15.880943529149604 $585 0.88037379241391278 $402 $586 forward 7 unknown #
coedge $-1 $587 $588 $242 $405 forward $397 $-1 #
edge $-1 $589 -55.563205423271746 $409 -49.746629606242287 $404 $590 forward 7 unknown #
edge $-1 $410 37.979445626077471 $589 48.955788878373966 $243 $591 forward 7 unknown #
coedge $-1 $244 $581 $587 $592 forward $408 $-1 #
loop $-1 $-1 $581 $396 #
vertex $-1 $405 $593 #
vertex $-1 $245 $594 #
straight-curve $-1 -23.38122839751745 18.356367525655308 6.6534871856460072 0 -1 0 I I #
coedge $-1 $412 $412 $-1 $595 reversed $248 $-1 #
edge $-1 $596 0 $596 6.2831853071796004 $249 $597 forward 7 unknown #
vertex $-1 $252 $598 #
ellipse-curve $-1 -18.592280591356442 19.823660964247658 3.7451992771312783 0 0.52991927123019833 0.84804809178421925 1 0 0 1 I I #
coedge $-1 $416 $416 $-1 $599 reversed $255 $-1 #
edge $-1 $600 0 $600 6.2831853071796004 $256 $601 forward 7 unknown #
vertex $-1 $259 $602 #
ellipse-curve $-1 -11.408858882114934 19.823660964247658 3.7451992771312783 0 0.52991927123019833 0.84804809178421925 1 0 0 1 I I #
face $-1 $-1 $603 $57 $-1 $604 reversed single #
loop $-1 $-1 $266 $260 #
plane-surface $-1 0 0 6.6534871856460054 0 0 1 1 0 0 forward_v I I I I #
coedge $-1 $605 $606 $607 $608 reversed $261 $-1 #
coedge $-1 $609 $263 $265 $430 forward $163 $-1 #
coedge $-1 $263 $609 $605 $610 forward $163 $-1 #
coedge $-1 $607 $266 $263 $427 forward $421 $-1 #
edge $-1 $433 0.35800084986993141 $611 17.119318171433449 $426 $612 forward 7 unknown #
coedge $-1 $613 $614 $264 $429 forward $603 $-1 #
edge $-1 $615 -55.563205423271746 $432 -49.746629606242287 $428 $616 forward 7 unknown #
edge $-1 $433 37.979445626077471 $615 48.955788878373966 $265 $617 forward 7 unknown #
coedge $-1 $266 $607 $613 $618 forward $421 $-1 #
vertex $-1 $267 $619 #
vertex $-1 $267 $620 #
straight-curve $-1 9.0966603605216214 18.356367525655308 6.6534871856460072 0 -1 0 I I #
coedge $-1 $435 $435 $-1 $621 reversed $270 $-1 #
edge $-1 $622 0 $622 6.2831853071796004 $271 $623 forward 7 unknown #
vertex $-1 $274 $624 #
ellipse-curve $-1 13.885608166682623 19.823660964247658 3.7451992771312783 0 0.52991927123019833 0.84804809178421925 1 0 0 1 I I #
coedge $-1 $439 $439 $-1 $625 reversed $277 $-1 #
edge $-1 $626 0 $626 6.2831853071796004 $278 $627 forward 7 unknown #
vertex $-1 $281 $628 #
ellipse-curve $-1 21.069029875924123 19.823660964247658 3.7451992771312783 0 0.52991927123019833 0.84804809178421925 1 0 0 1 I I #
face $-1 $-1 $629 $60 $-1 $630 reversed single #
loop $-1 $-1 $288 $282 #
plane-surface $-1 0 0 6.6534871856460054 0 0 1 1 0 0 forward_v I I I I #
coedge $-1 $631 $632 $633 $634 reversed $283 $-1 #
coedge $-1 $635 $285 $287 $453 forward $177 $-1 #
coedge $-1 $285 $635 $631 $636 forward $177 $-1 #
coedge $-1 $633 $288 $285 $450 forward $444 $-1 #
edge $-1 $456 -5.7839894656979496 $637 14.875219112526153 $449 $638 forward 7 unknown #
coedge $-1 $639 $640 $286 $452 forward $629 $-1 #
edge $-1 $641 -32.320707289477305 $455 -28.898237641770379 $451 $642 forward 7 unknown #
edge $-1 $456 -4.6053871227189402 $641 0 $287 $643 forward 7 unknown #
coedge $-1 $288 $633 $639 $644 forward $444 $-1 #
vertex $-1 $452 $645 #
vertex $-1 $289 $646 #
straight-curve $-1 1.2383746422838477 -49.928934418097391 6.6534871856460072 0 1 0 I I #
coedge $-1 $458 $458 $-1 $647 reversed $292 $-1 #
edge $-1 $648 0 $648 6.2831853071796004 $293 $649 forward 7 unknown #
vertex $-1 $296 $650 #
ellipse-curve $-1 -15.288992220295441 -22.937091721394204 4.9422523617925433 0 -0.74314483375859142 0.66913059716165679 1 0 0 1 I I #
coedge $-1 $462 $462 $-1 $651 reversed $299 $-1 #
edge $-1 $652 0 $652 6.2831853071796004 $300 $653 forward 7 unknown #
vertex $-1 $303 $654 #
ellipse-curve $-1 -9.0912296468282108 -22.937091721394204 4.9422523617925433 0 -0.74314483375859142 0.66913059716165679 1 0 0 1 I I #
coedge $-1 $466 $466 $-1 $655 reversed $306 $-1 #
edge $-1 $656 0 $656 6.2831853071796004 $307 $657 forward 7 unknown #
vertex $-1 $310 $658 #
ellipse-curve $-1 -2.8934670733609806 -22.937091721394204 4.9422523617925433 0 -0.74314483375859142 0.66913059716165679 1 0 0 1 I I #
face $-1 $-1 $659 $64 $-1 $660 forward single #
loop $-1 $-1 $476 $311 #
plane-surface $-1 0 0 6.6534871856460054 0 0 1 1 0 0 forward_v I I I I #
coedge $-1 $661 $662 $475 $663 forward $312 $-1 #
coedge $-1 $475 $314 $316 $481 reversed $196 $-1 #
coedge $-1 $314 $474 $473 $663 reversed $196 $-1 #
coedge $-1 $664 $317 $314 $477 forward $471 $-1 #
edge $-1 $484 -28.532645414495953 $665 -25.451039978910423 $476 $666 forward 7 unknown #
coedge $-1 $316 $315 $661 $667 reversed $125 $-1 #
coedge $-1 $668 $669 $315 $480 forward $659 $-1 #
edge $-1 $670 -8.9037907550521371 $483 -4.2984036323331969 $479 $671 forward 7 unknown #
edge $-1 $672 0 $484 4.6053871227189402 $474 $673 forward 7 unknown #
coedge $-1 $317 $664 $668 $674 forward $471 $-1 #
vertex $-1 $480 $675 #
vertex $-1 $318 $676 #
straight-curve $-1 17.2002568704936 -21.396289003601439 6.6534871856460054 -1 0 0 I I #
coedge $-1 $486 $486 $-1 $677 reversed $321 $-1 #
edge $-1 $678 0 $678 6.2831853071796004 $322 $679 forward 7 unknown #
vertex $-1 $325 $680 #
ellipse-curve $-1 28.202751167519956 -22.937091721394204 4.9422523617925433 0 -0.74314483375859142 0.66913059716165679 1 0 0 1 I I #
coedge $-1 $490 $490 $-1 $681 reversed $328 $-1 #
edge $-1 $682 0 $682 6.2831853071796004 $329 $683 forward 7 unknown #
vertex $-1 $332 $684 #
ellipse-curve $-1 34.400513740987186 -22.937091721394204 4.9422523617925433 0 -0.74314483375859142 0.66913059716165679 1 0 0 1 I I #
coedge $-1 $494 $494 $-1 $685 reversed $335 $-1 #
edge $-1 $686 0 $686 6.2831853071796004 $336 $687 forward 7 unknown #
vertex $-1 $339 $688 #
ellipse-curve $-1 40.598276314454417 -22.937091721394204 4.9422523617925433 0 -0.74314483375859142 0.66913059716165679 1 0 0 1 I I #
face $-1 $-1 $355 $51 $-1 $689 reversed single #
loop $-1 $-1 $514 $340 #
plane-surface $-1 0 24.477894439186969 0 0 -1 0 0 0 -1 forward_v I I I I #
coedge $-1 $690 $512 $515 $691 forward $341 $-1 #
coedge $-1 $518 $343 $344 $506 reversed $215 $-1 #
coedge $-1 $512 $690 $343 $504 reversed $341 $-1 #
edge $-1 $519 -6.6534871856460054 $692 6.6534871856460054 $503 $693 forward 7 unknown #
coedge $-1 $345 $344 $690 $694 forward $137 $-1 #
edge $-1 $510 -50.716879787591175 $692 50.716879787591175 $502 $695 forward 7 unknown #
coedge $-1 $515 $514 $345 $508 reversed $499 $-1 #
edge $-1 $696 -50.716879787591175 $509 50.716879787591175 $507 $697 forward 7 unknown #
vertex $-1 $347 $698 #
vertex $-1 $521 $699 #
straight-curve $-1 50.716879787591175 0 -6.6534871856460054 0 -1 0 I I #
coedge $-1 $501 $503 $348 $513 reversed $341 $-1 #
edge $-1 $516 -24.477894439186969 $519 24.477894439186969 $512 $700 forward 7 unknown #
coedge $-1 $507 $349 $354 $522 forward $499 $-1 #
coedge $-1 $349 $507 $501 $691 reversed $499 $-1 #
vertex $-1 $350 $701 #
straight-curve $-1 0 24.477894439186969 6.6534871856460054 -1 0 0 I I #
coedge $-1 $351 $502 $353 $521 reversed $215 $-1 #
vertex $-1 $513 $702 #
straight-curve $-1 0 -24.477894439186969 6.6534871856460054 1 0 0 I I #
edge $-1 $356 -6.6534871856460054 $510 6.6534871856460054 $353 $703 forward 7 unknown #
edge $-1 $357 -6.6534871856460054 $509 6.6534871856460054 $354 $704 forward 7 unknown #
point $-1 50.716879787591175 -24.477894439186969 6.6534871856460054 #
point $-1 50.716879787591175 24.477894439186969 6.6534871856460054 #
face $-1 $-1 $374 $52 $-1 $705 reversed single #
loop $-1 $-1 $534 $359 #
plane-surface $-1 0 0 6.6534871856460054 0 0 1 1 0 0 forward_v I I I I #
coedge $-1 $540 $539 $363 $533 forward $360 $-1 #
coedge $-1 $365 $362 $540 $706 reversed $223 $-1 #
coedge $-1 $362 $365 $543 $707 reversed $223 $-1 #
edge $-1 $545 -6.6534871856460054 $541 6.6534871856460054 $362 $708 forward 7 unknown #
coedge $-1 $364 $363 $547 $709 reversed $141 $-1 #
edge $-1 $710 -27.474317654310493 $537 -19.010806612250871 $528 $711 forward 7 unknown #
coedge $-1 $544 $543 $364 $535 forward $526 $-1 #
edge $-1 $536 19.010806612250871 $712 27.474317654310493 $534 $713 forward 7 unknown #
vertex $-1 $535 $714 #
vertex $-1 $533 $715 #
straight-curve $-1 -42.253368745531553 -16.719958273527524 0 0 0 -1 I I #
coedge $-1 $528 $368 $373 $549 forward $360 $-1 #
coedge $-1 $368 $528 $529 $706 forward $360 $-1 #
vertex $-1 $369 $716 #
straight-curve $-1 -23.242562133280682 -19.719958273527524 -6.6534871856460054 -1 0 0 I I #
coedge $-1 $534 $370 $530 $707 forward $526 $-1 #
coedge $-1 $370 $534 $372 $548 forward $526 $-1 #
vertex $-1 $371 $717 #
straight-curve $-1 -23.242562133280682 -19.719958273527524 6.6534871856460054 1 0 0 I I #
coedge $-1 $373 $372 $532 $709 forward $374 $-1 #
edge $-1 $712 16.719958273527524 $376 19.719958273527524 $372 $718 forward 7 unknown #
edge $-1 $375 -19.719958273527524 $710 -16.719958273527524 $373 $719 forward 7 unknown #
point $-1 -50.716879787591175 -19.719958273527524 -6.6534871856460054 #
point $-1 -50.716879787591175 -19.719958273527524 6.6534871856460054 #
face $-1 $-1 $567 $53 $-1 $720 reversed single #
plane-surface $-1 0 0 6.6534871856460054 0 0 1 1 0 0 forward_v I I I I #
coedge $-1 $721 $381 $382 $557 forward $231 $-1 #
coedge $-1 $381 $721 $390 $573 reversed $231 $-1 #
coedge $-1 $383 $382 $386 $565 forward $145 $-1 #
edge $-1 $570 20.868368575676651 $562 26.855130333168571 $554 $722 forward 7 unknown #
coedge $-1 $387 $723 $383 $559 forward $567 $-1 #
edge $-1 $563 -26.855130333168571 $568 -20.868368575676651 $558 $724 forward 7 unknown #
coedge $-1 $725 $384 $723 $726 reversed $379 $-1 #
coedge $-1 $384 $725 $721 $727 forward $379 $-1 #
vertex $-1 $385 $728 #
vertex $-1 $385 $729 #
straight-curve $-1 50.716879787591175 0 3.6534871856460054 0 1 0 I I #
edge $-1 $570 -24.477894439186969 $568 24.477894439186969 $386 $730 forward 7 unknown #
coedge $-1 $723 $387 $391 $574 reversed $567 $-1 #
loop $-1 $-1 $387 $552 #
vertex $-1 $559 $731 #
straight-curve $-1 44.730118030099263 24.477894439186969 2.5767435928230027 0 0 1 I I #
vertex $-1 $557 $732 #
straight-curve $-1 44.730118030099263 -24.477894439186969 2.5767435928230027 0 0 -1 I I #
coedge $-1 $391 $390 $725 $733 forward $392 $-1 #
edge $-1 $394 44.730118030099263 $734 50.716879787591175 $555 $735 forward 7 unknown #
edge $-1 $736 -50.716879787591175 $393 -44.730118030099263 $566 $737 forward 7 unknown #
point $-1 44.730118030099263 24.477894439186969 6.6534871856460054 #
point $-1 44.730118030099263 -24.477894439186969 6.6534871856460054 #
plane-surface $-1 0 0 6.6534871856460054 0 0 1 1 0 0 forward_v I I I I #
coedge $-1 $588 $587 $580 $738 forward $397 $-1 #
coedge $-1 $580 $399 $401 $584 reversed $239 $-1 #
coedge $-1 $399 $579 $578 $738 reversed $239 $-1 #
coedge $-1 $407 $402 $399 $582 forward $408 $-1 #
edge $-1 $585 -3.186940036346968 $739 6.1215269135316603 $581 $740 forward 7 unknown #
coedge $-1 $401 $400 $588 $741 reversed $149 $-1 #
edge $-1 $742 -48.955788878373966 $585 -37.979445626077471 $579 $743 forward 7 unknown #
vertex $-1 $403 $744 #
straight-curve $-1 -7.5002848683678458 15.169427489308353 6.6534871856460036 1 0 0 I I #
coedge $-1 $578 $404 $407 $592 reversed $397 $-1 #
coedge $-1 $404 $578 $583 $741 forward $397 $-1 #
vertex $-1 $405 $745 #
straight-curve $-1 -23.38122839751745 24.477894439186969 56.400116791888294 0 0 1 I I #
straight-curve $-1 -23.38122839751745 -17.038968900909168 26.779527333543925 0 0.84804809178421925 -0.52991927123019833 I I #
edge $-1 $739 6.619911075953933 $409 23.38122839751745 $587 $746 forward 7 unknown #
point $-1 -23.38122839751745 24.477894439186969 6.6534871856460054 #
point $-1 -23.38122839751745 15.16942748930834 6.6534871856460072 #
edge $-1 $747 1 $747 0 $412 $-1 forward 7 unknown #
vertex $-1 $413 $748 #
ellipse-curve $-1 -18.592280591356442 19.156486989964677 2.6774977488111427 0 0.52991927123019833 0.84804809178421925 1 0 0 1 I I #
point $-1 -17.592280591356442 19.823660964247662 3.7451992771312872 #
edge $-1 $749 1 $749 0 $416 $-1 forward 7 unknown #
vertex $-1 $417 $750 #
ellipse-curve $-1 -11.408858882114934 19.156486989964677 2.6774977488111427 0 0.52991927123019833 0.84804809178421925 1 0 0 1 I I #
point $-1 -10.408858882114934 19.823660964247662 3.7451992771312872 #
loop $-1 $-1 $428 $420 #
plane-surface $-1 0 24.477894439186969 0 0 -1 0 0 0 -1 forward_v I I I I #
coedge $-1 $606 $423 $425 $610 reversed $261 $-1 #
coedge $-1 $423 $605 $751 $752 reversed $261 $-1 #
coedge $-1 $431 $426 $423 $608 forward $421 $-1 #
edge $-1 $611 -3.186940036346968 $753 6.1215269135316603 $607 $754 forward 7 unknown #
coedge $-1 $425 $424 $614 $755 reversed $163 $-1 #
edge $-1 $756 -48.955788878373966 $611 -37.979445626077471 $605 $757 forward 7 unknown #
vertex $-1 $427 $758 #
straight-curve $-1 8.73865951065169 15.169427489308353 6.6534871856460036 1 0 0 I I #
coedge $-1 $751 $428 $431 $618 reversed $603 $-1 #
coedge $-1 $428 $751 $609 $755 forward $603 $-1 #
vertex $-1 $429 $759 #
straight-curve $-1 9.0966603605216214 24.477894439186969 56.400116791888294 0 0 1 I I #
straight-curve $-1 9.0966603605216214 -17.038968900909168 26.779527333543925 0 0.84804809178421925 -0.52991927123019833 I I #
edge $-1 $753 -25.857977682085139 $432 -9.0966603605216214 $613 $760 forward 7 unknown #
point $-1 9.0966603605216214 24.477894439186969 6.6534871856460054 #
point $-1 9.0966603605216214 15.16942748930834 6.6534871856460072 #
edge $-1 $761 1 $761 0 $435 $-1 forward 7 unknown #
vertex $-1 $436 $762 #
ellipse-curve $-1 13.885608166682623 19.156486989964677 2.6774977488111427 0 0.52991927123019833 0.84804809178421925 1 0 0 1 I I #
point $-1 14.885608166682623 19.823660964247662 3.7451992771312872 #
edge $-1 $763 1 $763 0 $439 $-1 forward 7 unknown #
vertex $-1 $440 $764 #
ellipse-curve $-1 21.069029875924123 19.156486989964677 2.6774977488111427 0 0.52991927123019833 0.84804809178421925 1 0 0 1 I I #
point $-1 22.069029875924123 19.823660964247662 3.7451992771312872 #
loop $-1 $-1 $451 $443 #
plane-surface $-1 0 -24.477894439186969 0 0 1 0 0 0 1 forward_v I I I I #
coedge $-1 $632 $446 $448 $636 reversed $283 $-1 #
coedge $-1 $446 $631 $765 $766 reversed $283 $-1 #
coedge $-1 $454 $449 $446 $634 forward $444 $-1 #
edge $-1 $637 -28.532645414495953 $767 -25.451039978910423 $633 $768 forward 7 unknown #
coedge $-1 $448 $447 $640 $769 reversed $177 $-1 #
edge $-1 $770 0 $637 4.6053871227189402 $631 $771 forward 7 unknown #
vertex $-1 $450 $772 #
straight-curve $-1 -4.5456148234141018 -21.396289003601439 6.6534871856460054 -1 0 0 I I #
coedge $-1 $765 $451 $454 $644 reversed $629 $-1 #
coedge $-1 $451 $765 $635 $769 forward $629 $-1 #
vertex $-1 $452 $773 #
straight-curve $-1 1.2383746422838477 -24.477894439186969 35.551724827416386 0 0 1 I I #
straight-curve $-1 1.2383746422838477 -24.477894439186969 3.2310175379390813 0 -0.66913059716165679 -0.74314483375859142 I I #
edge $-1 $767 -19.420833935940255 $455 1.2383746422838477 $639 $774 forward 7 unknown #
point $-1 1.2383746422838477 -24.477894439186969 6.6534871856460054 #
point $-1 1.2383746422838477 -21.396289003601439 6.6534871856460054 #
edge $-1 $775 1 $775 0 $458 $-1 forward 7 unknown #
vertex $-1 $459 $776 #
ellipse-curve $-1 -15.288992220295441 -20.172303547189216 2.4528259700695005 0 -0.74314483375859142 0.66913059716165679 1 0 0 1 I I #
point $-1 -14.288992220295441 -22.937091721394204 4.9422523617925425 #
edge $-1 $777 1 $777 0 $462 $-1 forward 7 unknown #
vertex $-1 $463 $778 #
ellipse-curve $-1 -9.0912296468282108 -20.172303547189216 2.4528259700695005 0 -0.74314483375859142 0.66913059716165679 1 0 0 1 I I #
point $-1 -8.0912296468282108 -22.937091721394204 4.9422523617925425 #
edge $-1 $779 1 $779 0 $466 $-1 forward 7 unknown #
vertex $-1 $467 $780 #
ellipse-curve $-1 -2.8934670733609806 -20.172303547189216 2.4528259700695005 0 -0.74314483375859142 0.66913059716165679 1 0 0 1 I I #
point $-1 -1.8934670733609806 -22.937091721394204 4.9422523617925425 #
loop $-1 $-1 $479 $470 #
plane-surface $-1 44.730118030099263 0 5.1534871856460054 1 0 0 0 0 -1 forward_v I I I I #
coedge $-1 $781 $473 $478 $667 forward $312 $-1 #
coedge $-1 $473 $781 $664 $782 reversed $312 $-1 #
edge $-1 $665 28.898237641770379 $672 32.320707289477305 $473 $783 forward 7 unknown #
coedge $-1 $482 $476 $662 $782 forward $471 $-1 #
vertex $-1 $782 $784 #
straight-curve $-1 24.070909451875149 -49.928934418097391 6.6534871856460072 0 -1 0 I I #
edge $-1 $672 6.8706525813815489 $670 27.529861159605648 $661 $785 forward 7 unknown #
coedge $-1 $669 $479 $482 $674 reversed $659 $-1 #
coedge $-1 $479 $668 $781 $786 reversed $659 $-1 #
vertex $-1 $786 $787 #
straight-curve $-1 44.730118030099263 -18.520095614256491 9.8478236384235842 0 0.66913059716165679 0.74314483375859142 I I #
vertex $-1 $667 $788 #
straight-curve $-1 24.070909451875149 -24.477894439186969 3.2310175379390813 0 0.66913059716165679 0.74314483375859142 I I #
edge $-1 $789 -24.477894439186969 $483 -21.396289003601439 $482 $790 forward 7 unknown #
point $-1 44.730118030099248 -21.396289003601439 6.6534871856460054 #
point $-1 24.070909451875149 -21.396289003601439 6.6534871856460054 #
edge $-1 $791 1 $791 0 $486 $-1 forward 7 unknown #
vertex $-1 $487 $792 #
ellipse-curve $-1 28.202751167519956 -20.172303547189216 2.4528259700695005 0 -0.74314483375859142 0.66913059716165679 1 0 0 1 I I #
point $-1 29.202751167519956 -22.937091721394204 4.9422523617925425 #
edge $-1 $793 1 $793 0 $490 $-1 forward 7 unknown #
vertex $-1 $491 $794 #
ellipse-curve $-1 34.400513740987186 -20.172303547189216 2.4528259700695005 0 -0.74314483375859142 0.66913059716165679 1 0 0 1 I I #
point $-1 35.400513740987186 -22.937091721394204 4.9422523617925425 #
edge $-1 $795 1 $795 0 $494 $-1 forward 7 unknown #
vertex $-1 $495 $796 #
ellipse-curve $-1 40.598276314454417 -20.172303547189216 2.4528259700695005 0 -0.74314483375859142 0.66913059716165679 1 0 0 1 I I #
point $-1 41.598276314454417 -22.937091721394204 4.9422523617925425 #
plane-surface $-1 50.716879787591175 0 0 -1 0 0 0 0 1 forward_v I I I I #
coedge $-1 $503 $501 $505 $694 reversed $341 $-1 #
edge $-1 $516 -6.6534871856460054 $696 6.6534871856460054 $515 $797 forward 7 unknown #
vertex $-1 $694 $798 #
straight-curve $-1 -50.716879787591175 -24.477894439186969 0 0 0 -1 I I #
edge $-1 $692 -24.477894439186969 $696 24.477894439186969 $690 $799 forward 7 unknown #
straight-curve $-1 0 -24.477894439186969 -6.6534871856460054 -1 0 0 I I #
vertex $-1 $508 $800 #
straight-curve $-1 0 24.477894439186969 -6.6534871856460054 1 0 0 I I #
point $-1 50.716879787591175 24.477894439186969 -6.6534871856460054 #
point $-1 50.716879787591175 -24.477894439186969 -6.6534871856460054 #
straight-curve $-1 -50.716879787591175 0 6.6534871856460054 0 -1 0 I I #
point $-1 -50.716879787591175 24.477894439186969 6.6534871856460054 #
point $-1 -50.716879787591175 -24.477894439186969 6.6534871856460054 #
straight-curve $-1 50.716879787591175 -24.477894439186969 0 0 0 -1 I I #
straight-curve $-1 50.716879787591175 24.477894439186969 0 0 0 -1 I I #
plane-surface $-1 -50.716879787591175 0 0 1 0 0 0 0 -1 forward_v I I I I #
edge $-1 $537 7.6099791367637621 $541 10.609979136763762 $540 $801 forward 7 unknown #
edge $-1 $545 -10.609979136763762 $536 -7.6099791367637621 $543 $802 forward 7 unknown #
straight-curve $-1 -42.253368745531553 -19.719958273527524 0 0 0 -1 I I #
edge $-1 $712 -6.6534871856460054 $710 6.6534871856460054 $547 $803 forward 7 unknown #
vertex $-1 $709 $804 #
straight-curve $-1 -23.242562133280682 -16.719958273527524 -6.6534871856460054 1 0 0 I I #
vertex $-1 $548 $805 #
straight-curve $-1 -23.242562133280682 -16.719958273527524 6.6534871856460054 -1 0 0 I I #
point $-1 -42.253368745531553 -16.719958273527524 6.6534871856460054 #
point $-1 -42.253368745531553 -16.719958273527524 -6.6534871856460054 #
point $-1 -42.253368745531553 -19.719958273527524 -6.6534871856460054 #
point $-1 -42.253368745531553 -19.719958273527524 6.6534871856460054 #
straight-curve $-1 -50.716879787591175 0 6.6534871856460054 0 -1 0 I I #
straight-curve $-1 -50.716879787591175 0 -6.6534871856460054 0 1 0 I I #
plane-surface $-1 0 24.477894439186969 0 0 -1 0 0 0 -1 forward_v I I I I #
coedge $-1 $555 $554 $561 $727 reversed $231 $-1 #
straight-curve $-1 23.861749454422611 -24.477894439186969 3.6534871856460054 1 0 0 I I #
coedge $-1 $558 $566 $560 $726 forward $567 $-1 #
straight-curve $-1 23.861749454422611 24.477894439186969 3.6534871856460054 -1 0 0 I I #
coedge $-1 $561 $560 $572 $733 reversed $379 $-1 #
edge $-1 $736 -6.6534871856460054 $563 -3.6534871856460054 $560 $806 forward 7 unknown #
edge $-1 $734 -6.6534871856460054 $562 -3.6534871856460054 $561 $807 forward 7 unknown #
point $-1 50.716879787591182 -24.477894439186969 3.6534871856460054 #
point $-1 50.716879787591182 24.477894439186969 3.6534871856460054 #
straight-curve $-1 44.730118030099263 0 3.6534871856460054 0 1 0 I I #
point $-1 44.730118030099263 24.477894439186969 3.6534871856460054 #
point $-1 44.730118030099263 -24.477894439186969 3.6534871856460054 #
edge $-1 $734 -24.477894439186969 $736 24.477894439186969 $725 $808 forward 7 unknown #
vertex $-1 $733 $809 #
straight-curve $-1 0 -24.477894439186969 6.6534871856460054 1 0 0 I I #
vertex $-1 $733 $810 #
straight-curve $-1 0 24.477894439186969 6.6534871856460054 -1 0 0 I I #
edge $-1 $739 49.746629606242287 $742 55.563205423271746 $578 $811 forward 7 unknown #
vertex $-1 $592 $812 #
straight-curve $-1 -6.619911075953933 18.356367525655308 6.6534871856460072 0 1 0 I I #
edge $-1 $742 -0.88037379241391278 $589 15.880943529149604 $588 $813 forward 7 unknown #
vertex $-1 $741 $814 #
straight-curve $-1 -6.619911075953933 -17.038968900909168 26.779527333543925 0 -0.84804809178421925 0.52991927123019833 I I #
point $-1 -6.619911075953933 15.16942748930834 6.6534871856460072 #
point $-1 -23.38122839751745 24.477894439186969 0.83691136861654769 #
straight-curve $-1 0 24.477894439186969 6.6534871856460054 -1 0 0 I I #
vertex $-1 $595 $815 #
point $-1 -17.592280591356442 19.156486989964677 2.6774977488111427 #
vertex $-1 $599 $816 #
point $-1 -10.408858882114934 19.156486989964677 2.6774977488111427 #
coedge $-1 $614 $613 $606 $752 forward $603 $-1 #
edge $-1 $753 49.746629606242287 $756 55.563205423271746 $751 $817 forward 7 unknown #
vertex $-1 $618 $818 #
straight-curve $-1 25.857977682085139 18.356367525655308 6.6534871856460072 0 1 0 I I #
edge $-1 $756 -17.119318171433449 $615 -0.35800084986993141 $614 $819 forward 7 unknown #
vertex $-1 $755 $820 #
straight-curve $-1 25.857977682085139 -17.038968900909168 26.779527333543925 0 -0.84804809178421925 0.52991927123019833 I I #
point $-1 25.857977682085139 15.16942748930834 6.6534871856460072 #
point $-1 9.0966603605216214 24.477894439186969 0.83691136861654769 #
straight-curve $-1 0 24.477894439186969 6.6534871856460054 -1 0 0 I I #
vertex $-1 $621 $821 #
point $-1 14.885608166682623 19.156486989964677 2.6774977488111427 #
vertex $-1 $625 $822 #
point $-1 22.069029875924123 19.156486989964677 2.6774977488111427 #
coedge $-1 $640 $639 $632 $766 forward $629 $-1 #
edge $-1 $767 28.898237641770379 $770 32.320707289477305 $765 $823 forward 7 unknown #
vertex $-1 $644 $824 #
straight-curve $-1 -19.420833935940255 -49.928934418097391 6.6534871856460072 0 -1 0 I I #
edge $-1 $770 -14.875219112526153 $641 5.7839894656979496 $640 $825 forward 7 unknown #
vertex $-1 $769 $826 #
straight-curve $-1 -19.420833935940255 -24.477894439186969 3.2310175379390813 0 0.66913059716165679 0.74314483375859142 I I #
point $-1 -19.420833935940255 -21.396289003601439 6.6534871856460054 #
point $-1 1.2383746422838477 -24.477894439186969 3.2310175379390813 #
straight-curve $-1 0 -24.477894439186969 6.6534871856460054 1 0 0 I I #
vertex $-1 $647 $827 #
point $-1 -14.288992220295441 -20.172303547189216 2.4528259700695005 #
vertex $-1 $651 $828 #
point $-1 -8.0912296468282108 -20.172303547189216 2.4528259700695005 #
vertex $-1 $655 $829 #
point $-1 -1.8934670733609806 -20.172303547189216 2.4528259700695005 #
coedge $-1 $662 $661 $669 $786 forward $312 $-1 #
edge $-1 $665 24.070909451875149 $789 44.730118030099263 $662 $830 forward 7 unknown #
straight-curve $-1 24.070909451875149 -24.477894439186969 35.551724827416386 0 0 -1 I I #
point $-1 24.070909451875149 -24.477894439186969 6.6534871856460054 #
straight-curve $-1 17.2002568704936 -24.477894439186969 3.23101753793908 1 0 0 I I #
edge $-1 $670 -32.320707289477305 $789 -28.898237641770379 $781 $831 forward 7 unknown #
point $-1 44.730118030099248 -24.477894439186969 3.2310175379390813 #
point $-1 24.070909451875149 -24.477894439186969 3.2310175379390813 #
vertex $-1 $674 $832 #
straight-curve $-1 44.730118030099263 0 6.6534871856460054 0 1 0 I I #
vertex $-1 $677 $833 #
point $-1 29.202751167519956 -20.172303547189216 2.4528259700695005 #
vertex $-1 $681 $834 #
point $-1 35.400513740987186 -20.172303547189216 2.4528259700695005 #
vertex $-1 $685 $835 #
point $-1 41.598276314454417 -20.172303547189216 2.4528259700695005 #
straight-curve $-1 -50.716879787591175 24.477894439186969 0 0 0 -1 I I #
point $-1 -50.716879787591175 -24.477894439186969 -6.6534871856460054 #
straight-curve $-1 -50.716879787591175 0 -6.6534871856460054 0 1 0 I I #
point $-1 -50.716879787591175 24.477894439186969 -6.6534871856460054 #
straight-curve $-1 -42.253368745531553 -9.1099791367637621 -6.6534871856460054 0 -1 0 I I #
straight-curve $-1 -42.253368745531553 -9.1099791367637621 6.6534871856460054 0 1 0 I I #
straight-curve $-1 -50.716879787591175 -16.719958273527524 0 0 0 -1 I I #
point $-1 -50.716879787591175 -16.719958273527524 -6.6534871856460054 #
point $-1 -50.716879787591175 -16.719958273527524 6.6534871856460054 #
straight-curve $-1 50.716879787591175 24.477894439186969 0 0 0 -1 I I #
straight-curve $-1 50.716879787591175 -24.477894439186969 0 0 0 -1 I I #
straight-curve $-1 50.716879787591175 0 6.6534871856460054 0 1 0 I I #
point $-1 50.716879787591175 -24.477894439186969 6.6534871856460054 #
point $-1 50.716879787591175 24.477894439186969 6.6534871856460054 #
straight-curve $-1 -6.619911075953933 24.477894439186969 56.400116791888294 0 0 -1 I I #
point $-1 -6.619911075953933 24.477894439186969 6.6534871856460054 #
straight-curve $-1 -7.5002848683678458 24.477894439186969 0.83691136861654591 -1 0 0 I I #
point $-1 -6.619911075953933 24.477894439186969 0.83691136861654769 #
point $-1 -18.592280591356442 18.626567718734478 1.8294496570269232 #
point $-1 -11.408858882114934 18.626567718734478 1.8294496570269232 #
straight-curve $-1 25.857977682085139 24.477894439186969 56.400116791888294 0 0 -1 I I #
point $-1 25.857977682085139 24.477894439186969 6.6534871856460054 #
straight-curve $-1 8.73865951065169 24.477894439186969 0.83691136861654591 -1 0 0 I I #
point $-1 25.857977682085139 24.477894439186969 0.83691136861654769 #
point $-1 13.885608166682623 18.626567718734478 1.8294496570269232 #
point $-1 21.069029875924123 18.626567718734478 1.8294496570269232 #
straight-curve $-1 -19.420833935940255 -24.477894439186969 35.551724827416386 0 0 -1 I I #
point $-1 -19.420833935940255 -24.477894439186969 6.6534871856460054 #
straight-curve $-1 -4.5456148234141018 -24.477894439186969 3.23101753793908 1 0 0 I I #
point $-1 -19.420833935940255 -24.477894439186969 3.2310175379390813 #
point $-1 -15.288992220295441 -19.429158713430624 1.7836953729078435 #
point $-1 -9.0912296468282108 -19.429158713430624 1.7836953729078435 #
point $-1 -2.8934670733609806 -19.429158713430624 1.7836953729078435 #
straight-curve $-1 0 -24.477894439186969 6.6534871856460054 1 0 0 I I #
straight-curve $-1 44.730118030099248 -24.477894439186969 35.551724827416386 0 0 1 I I #
point $-1 44.730118030099263 -24.477894439186969 6.6534871856460054 #
point $-1 28.202751167519956 -19.429158713430624 1.7836953729078435 #
point $-1 34.400513740987186 -19.429158713430624 1.7836953729078435 #
point $-1 40.598276314454417 -19.429158713430624 1.7836953729078435 #
End-of-ACIS-data 