500 0 6 0           
7 Unknown 11 ACIS 5.0 NT 24 Thu Mar 25 16:04:24 1999 
-1 9.9999999999999995e-007 1e-010 
body $-1 $6 $-1 $7 #
body $-1 $8 $-1 $9 #
body $-1 $10 $-1 $11 #
body $-1 $12 $-1 $13 #
body $-1 $14 $-1 $15 #
body $-1 $16 $-1 $17 #
lump $-1 $-1 $18 $0 #
transform $-1 1 0 0 0 1 0 0 0 1 69.931333353679008 40.371808847871463 15.708621908835779 1 rotate no_reflect no_shear #
lump $-1 $-1 $19 $1 #
transform $-1 1 0 0 0 1 0 0 0 1 69.931333353679008 40.371808847871463 15.708621908835779 1 rotate no_reflect no_shear #
lump $-1 $-1 $20 $2 #
transform $-1 1 0 0 0 1 0 0 0 1 69.931333353679008 40.371808847871463 15.708621908835779 1 rotate no_reflect no_shear #
lump $-1 $-1 $21 $3 #
transform $-1 1 0 0 0 1 0 0 0 1 69.931333353679008 40.371808847871463 15.708621908835779 1 rotate no_reflect no_shear #
lump $-1 $-1 $22 $4 #
transform $-1 1 0 0 0 1 0 0 0 1 69.931333353679008 40.371808847871463 15.708621908835779 1 rotate no_reflect no_shear #
lump $-1 $-1 $23 $5 #
transform $-1 1 0 0 0 1 0 0 0 1 69.931333353679008 40.371808847871463 15.708621908835779 1 rotate no_reflect no_shear #
shell $-1 $-1 $-1 $24 $-1 $6 #
shell $-1 $-1 $-1 $25 $-1 $8 #
shell $-1 $-1 $-1 $26 $-1 $10 #
shell $-1 $-1 $-1 $27 $-1 $12 #
shell $-1 $-1 $-1 $28 $-1 $14 #
shell $-1 $-1 $-1 $29 $-1 $16 #
face $-1 $30 $31 $18 $-1 $32 forward single #
face $-1 $33 $34 $19 $-1 $35 forward single #
face $-1 $36 $37 $20 $-1 $38 forward single #
face $-1 $39 $40 $21 $-1 $41 reversed single #
face $-1 $42 $43 $22 $-1 $44 forward single #
face $-1 $45 $46 $23 $-1 $47 forward single #
face $-1 $48 $49 $18 $-1 $50 reversed single #
loop $-1 $-1 $51 $24 #
plane-surface $-1 0 0 15.708621908835779 0 0 1 1 0 0 forward_v I I I I #
face $-1 $52 $53 $19 $-1 $54 reversed single #
loop $-1 $-1 $55 $25 #
plane-surface $-1 -69.931333353679008 0 0 1 0 0 0 0 -1 forward_v I I I I #
face $-1 $56 $57 $20 $-1 $58 reversed single #
loop $-1 $-1 $59 $26 #
plane-surface $-1 69.931333353679008 0 0 -1 0 0 0 0 1 forward_v I I I I #
face $-1 $60 $61 $21 $-1 $62 reversed single #
loop $-1 $-1 $63 $27 #
plane-surface $-1 -52.383114700988159 48.829182339351348 172.97349327614214 1 0 0 0 -0.54463904215088732 -0.83867056331134215 forward_v I I I I #
face $-1 $64 $65 $22 $-1 $66 forward single #
loop $-1 $67 $68 $28 #
cone-surface $-1 -46.775125777674262 36.536708200409485 12.55227917543627 0 -0.54463904215088732 -0.83867056331134215 1 0 0 1 I I 0 1 1 forward I I I I #
face $-1 $69 $70 $23 $-1 $71 forward single #
loop $-1 $72 $73 $29 #
cone-surface $-1 -38.363142392703423 36.536708200409485 12.55227917543627 0 -0.54463904215088732 -0.83867056331134215 1 0 0 1 I I 0 1 1 forward I I I I #
face $-1 $74 $75 $18 $-1 $76 reversed single #
loop $-1 $-1 $77 $30 #
plane-surface $-1 0 0 -15.708621908835779 0 0 1 1 0 0 forward_v I I I I #
coedge $-1 $78 $79 $80 $81 forward $31 $-1 #
face $-1 $82 $83 $19 $-1 $84 forward single #
loop $-1 $-1 $85 $33 #
plane-surface $-1 0 40.371808847871463 0 0 -1 0 0 0 -1 forward_v I I I I #
coedge $-1 $86 $87 $88 $89 forward $34 $-1 #
face $-1 $90 $91 $20 $-1 $92 forward single #
loop $-1 $-1 $93 $36 #
plane-surface $-1 0 40.371808847871463 0 0 -1 0 0 0 -1 forward_v I I I I #
coedge $-1 $94 $95 $96 $97 forward $37 $-1 #
face $-1 $98 $99 $21 $-1 $100 reversed single #
loop $-1 $-1 $101 $39 #
plane-surface $-1 -42.569134085188843 -27.345486488812924 55.674791802455687 0 0.54463904215088732 0.83867056331134215 1 0 0 forward_v I I I I #
coedge $-1 $102 $103 $104 $105 reversed $40 $-1 #
face $-1 $-1 $106 $22 $-1 $107 forward single #
loop $-1 $108 $109 $42 #
cone-surface $-1 -46.775125777674262 35.516683894882746 10.981579514374568 0 -0.54463904215088732 -0.83867056331134215 0.5 0 0 1 I I -0.70710678118654746 0.70710678118654746 0.5 forward I I I I #
loop $-1 $-1 $110 $28 #
coedge $-1 $68 $68 $111 $112 reversed $43 $-1 #
face $-1 $-1 $113 $23 $-1 $114 forward single #
loop $-1 $115 $116 $45 #
cone-surface $-1 -38.363142392703423 35.516683894882746 10.981579514374568 0 -0.54463904215088732 -0.83867056331134215 0.5 0 0 1 I I -0.70710678118654746 0.70710678118654746 0.5 forward I I I I #
loop $-1 $-1 $117 $29 #
coedge $-1 $73 $73 $118 $119 reversed $46 $-1 #
face $-1 $120 $121 $18 $-1 $122 reversed single #
loop $-1 $-1 $123 $48 #
plane-surface $-1 0 -40.371808847871463 0 0 1 0 0 0 1 forward_v I I I I #
coedge $-1 $124 $125 $126 $127 forward $49 $-1 #
coedge $-1 $128 $51 $129 $130 forward $31 $-1 #
coedge $-1 $51 $128 $131 $132 forward $31 $-1 #
coedge $-1 $133 $134 $51 $81 reversed $135 $-1 #
edge $-1 $136 -40.371808847871463 $137 40.371808847871463 $80 $138 forward 7 unknown #
face $-1 $139 $140 $19 $-1 $141 reversed single #
loop $-1 $-1 $88 $52 #
plane-surface $-1 -78.705442680024433 0 -7.6992238488693685 0 0 1 1 0 0 forward_v I I I I #
coedge $-1 $142 $143 $87 $144 forward $53 $-1 #
coedge $-1 $145 $55 $146 $147 reversed $34 $-1 #
coedge $-1 $55 $145 $85 $144 reversed $34 $-1 #
coedge $-1 $148 $149 $55 $89 reversed $83 $-1 #
edge $-1 $150 -40.371808847871463 $151 40.371808847871463 $88 $152 forward 7 unknown #
face $-1 $153 $154 $20 $-1 $155 reversed single #
loop $-1 $-1 $156 $56 #
plane-surface $-1 78.705442680024419 0 -7.6992238488693685 0 0 1 1 0 0 forward_v I I I I #
coedge $-1 $157 $158 $94 $159 forward $57 $-1 #
coedge $-1 $160 $59 $93 $159 reversed $37 $-1 #
coedge $-1 $59 $160 $161 $162 reversed $37 $-1 #
coedge $-1 $163 $164 $59 $97 reversed $91 $-1 #
edge $-1 $165 -40.371808847871463 $166 40.371808847871463 $96 $167 forward 7 unknown #
face $-1 $168 $169 $21 $-1 $170 reversed single #
loop $-1 $-1 $171 $60 #
plane-surface $-1 -32.755153469389526 48.829182339351348 172.97349327614214 -1 0 0 0 0.54463904215088732 0.83867056331134215 forward_v I I I I #
coedge $-1 $172 $173 $174 $175 reversed $61 $-1 #
coedge $-1 $103 $63 $176 $177 reversed $40 $-1 #
coedge $-1 $63 $102 $172 $178 reversed $40 $-1 #
coedge $-1 $174 $179 $63 $105 forward $180 $-1 #
edge $-1 $181 -15.957217678195789 $182 -9.7824259521743784 $104 $183 forward 7 unknown #
loop $-1 $-1 $111 $64 #
plane-surface $-1 -42.569134085188843 -27.345486488812924 55.674791802455687 0 0.54463904215088732 0.83867056331134215 1 0 0 forward_v I I I I #
loop $-1 $-1 $184 $42 #
coedge $-1 $109 $109 $110 $185 reversed $65 $-1 #
coedge $-1 $110 $110 $109 $185 forward $67 $-1 #
coedge $-1 $111 $111 $68 $112 forward $106 $-1 #
edge $-1 $186 1.1217463269214035e-015 $186 6.2831853071796013 $111 $187 forward 7 unknown #
loop $-1 $-1 $118 $69 #
plane-surface $-1 -42.569134085188843 -27.345486488812924 55.674791802455687 0 0.54463904215088732 0.83867056331134215 1 0 0 forward_v I I I I #
loop $-1 $-1 $188 $45 #
coedge $-1 $116 $116 $117 $189 reversed $70 $-1 #
coedge $-1 $117 $117 $116 $189 forward $72 $-1 #
coedge $-1 $118 $118 $73 $119 forward $113 $-1 #
edge $-1 $190 1.1217463269214035e-015 $190 6.2831853071796013 $118 $191 forward 7 unknown #
face $-1 $192 $193 $18 $-1 $194 reversed single #
loop $-1 $-1 $195 $74 #
plane-surface $-1 -69.931333353679008 0 0 1 0 0 0 0 -1 forward_v I I I I #
coedge $-1 $196 $131 $195 $197 forward $75 $-1 #
coedge $-1 $198 $77 $196 $199 forward $49 $-1 #
coedge $-1 $77 $198 $200 $201 forward $49 $-1 #
coedge $-1 $134 $133 $77 $127 reversed $135 $-1 #
edge $-1 $202 -40.371808847871463 $203 40.371808847871463 $126 $204 forward 7 unknown #
coedge $-1 $79 $78 $205 $206 forward $31 $-1 #
coedge $-1 $207 $208 $78 $130 reversed $193 $-1 #
edge $-1 $137 -69.931333353679008 $209 69.931333353679008 $129 $210 forward 7 unknown #
coedge $-1 $123 $211 $79 $132 reversed $75 $-1 #
edge $-1 $212 -69.931333353679008 $136 69.931333353679008 $131 $213 forward 7 unknown #
coedge $-1 $126 $80 $211 $214 forward $135 $-1 #
coedge $-1 $80 $126 $207 $215 reversed $135 $-1 #
loop $-1 $-1 $134 $192 #
vertex $-1 $81 $216 #
vertex $-1 $81 $217 #
straight-curve $-1 69.931333353679008 0 15.708621908835779 0 1 0 I I #
face $-1 $218 $219 $19 $-1 $220 reversed single #
loop $-1 $-1 $221 $82 #
plane-surface $-1 -87.479552006369858 0 -11.703922878852573 1 0 0 0 0 -1 forward_v I I I I #
coedge $-1 $222 $85 $223 $224 reversed $53 $-1 #
coedge $-1 $85 $222 $148 $225 reversed $53 $-1 #
edge $-1 $150 7.6992238488693685 $226 15.708621908835779 $85 $227 forward 7 unknown #
coedge $-1 $87 $86 $228 $229 reversed $34 $-1 #
coedge $-1 $230 $231 $86 $147 forward $232 $-1 #
edge $-1 $233 -15.708621908835779 $151 -7.6992238488693685 $146 $234 forward 7 unknown #
coedge $-1 $235 $88 $143 $225 forward $83 $-1 #
coedge $-1 $88 $235 $230 $236 forward $83 $-1 #
vertex $-1 $144 $237 #
vertex $-1 $236 $238 #
straight-curve $-1 -69.931333353679008 0 -7.6992238488693685 0 -1 0 I I #
face $-1 $239 $240 $20 $-1 $241 reversed single #
loop $-1 $-1 $242 $90 #
plane-surface $-1 87.479552006369843 0 -11.703922878852573 -1 0 0 0 0 1 forward_v I I I I #
coedge $-1 $164 $163 $243 $244 forward $91 $-1 #
coedge $-1 $245 $93 $164 $246 reversed $57 $-1 #
coedge $-1 $93 $245 $247 $248 reversed $57 $-1 #
edge $-1 $249 -15.708621908835779 $166 -7.6992238488693685 $93 $250 forward 7 unknown #
coedge $-1 $95 $94 $251 $252 reversed $37 $-1 #
coedge $-1 $253 $254 $95 $162 forward $255 $-1 #
edge $-1 $165 7.6992238488693685 $256 15.708621908835779 $161 $257 forward 7 unknown #
coedge $-1 $156 $96 $254 $258 forward $91 $-1 #
coedge $-1 $96 $156 $157 $246 forward $91 $-1 #
vertex $-1 $162 $259 #
vertex $-1 $246 $260 #
straight-curve $-1 69.931333353679008 0 -7.6992238488693685 0 1 0 I I #
face $-1 $-1 $180 $21 $-1 $261 forward single #
loop $-1 $-1 $262 $98 #
plane-surface $-1 0 40.371808847871463 0 0 -1 0 0 0 -1 forward_v I I I I #
coedge $-1 $263 $264 $265 $266 reversed $99 $-1 #
coedge $-1 $267 $101 $103 $178 forward $61 $-1 #
coedge $-1 $101 $267 $263 $268 forward $61 $-1 #
coedge $-1 $265 $104 $101 $175 forward $180 $-1 #
edge $-1 $182 -31.098547658393738 $269 -11.470586426795105 $174 $270 forward 7 unknown #
coedge $-1 $271 $272 $102 $177 forward $169 $-1 #
edge $-1 $273 -74.788081437222246 $181 -70.778124729235287 $176 $274 forward 7 unknown #
edge $-1 $182 73.381022660045801 $273 80.743617695742941 $103 $275 forward 7 unknown #
coedge $-1 $104 $265 $271 $276 forward $180 $-1 #
loop $-1 $-1 $265 $168 #
vertex $-1 $177 $277 #
vertex $-1 $105 $278 #
straight-curve $-1 -52.383114700988159 24.414591169675674 15.708621908835781 0 -1 0 I I #
coedge $-1 $184 $184 $-1 $279 reversed $108 $-1 #
edge $-1 $280 0 $280 6.2831853071796004 $109 $281 forward 7 unknown #
vertex $-1 $112 $282 #
ellipse-curve $-1 -46.775125777674262 37.284412984860772 13.703643554842293 0 0.54463904215088732 0.83867056331134215 1 0 0 1 I I #
coedge $-1 $188 $188 $-1 $283 reversed $115 $-1 #
edge $-1 $284 0 $284 6.2831853071796004 $116 $285 forward 7 unknown #
vertex $-1 $119 $286 #
ellipse-curve $-1 -38.363142392703423 37.284412984860772 13.703643554842293 0 0.54463904215088732 0.83867056331134215 1 0 0 1 I I #
face $-1 $-1 $135 $18 $-1 $287 reversed single #
loop $-1 $-1 $207 $120 #
plane-surface $-1 0 40.371808847871463 0 0 -1 0 0 0 -1 forward_v I I I I #
coedge $-1 $205 $288 $123 $197 reversed $121 $-1 #
coedge $-1 $211 $123 $124 $199 reversed $75 $-1 #
edge $-1 $212 -15.708621908835779 $289 15.708621908835779 $195 $290 forward 7 unknown #
coedge $-1 $125 $124 $288 $291 forward $49 $-1 #
edge $-1 $203 -69.931333353679008 $289 69.931333353679008 $196 $292 forward 7 unknown #
coedge $-1 $208 $207 $125 $201 reversed $193 $-1 #
edge $-1 $293 -69.931333353679008 $202 69.931333353679008 $200 $294 forward 7 unknown #
vertex $-1 $127 $295 #
vertex $-1 $214 $296 #
straight-curve $-1 69.931333353679008 0 -15.708621908835779 0 -1 0 I I #
coedge $-1 $297 $195 $128 $206 reversed $121 $-1 #
edge $-1 $209 -40.371808847871463 $212 40.371808847871463 $205 $298 forward 7 unknown #
coedge $-1 $200 $129 $134 $215 forward $193 $-1 #
coedge $-1 $129 $200 $297 $299 reversed $193 $-1 #
vertex $-1 $130 $300 #
straight-curve $-1 0 40.371808847871463 15.708621908835779 -1 0 0 I I #
coedge $-1 $131 $196 $133 $214 reversed $75 $-1 #
vertex $-1 $206 $301 #
straight-curve $-1 0 -40.371808847871463 15.708621908835779 1 0 0 I I #
edge $-1 $136 -15.708621908835779 $203 15.708621908835779 $133 $302 forward 7 unknown #
edge $-1 $137 -15.708621908835779 $202 15.708621908835779 $134 $303 forward 7 unknown #
point $-1 69.931333353679008 -40.371808847871463 15.708621908835779 #
point $-1 69.931333353679008 40.371808847871463 15.708621908835779 #
face $-1 $-1 $232 $19 $-1 $304 reversed single #
loop $-1 $-1 $228 $139 #
plane-surface $-1 0 0 -15.708621908835779 0 0 1 1 0 0 forward_v I I I I #
coedge $-1 $305 $306 $222 $307 forward $140 $-1 #
coedge $-1 $143 $142 $221 $307 reversed $53 $-1 #
coedge $-1 $228 $308 $142 $224 forward $219 $-1 #
edge $-1 $309 -87.479552006369858 $226 -69.931333353679008 $142 $310 forward 7 unknown #
edge $-1 $150 -8.7741093263454246 $311 8.7741093263454246 $143 $312 forward 7 unknown #
vertex $-1 $144 $313 #
straight-curve $-1 -69.931333353679008 40.371808847871463 0 0 0 -1 I I #
coedge $-1 $314 $223 $145 $229 forward $219 $-1 #
edge $-1 $226 -40.371808847871463 $233 40.371808847871463 $228 $315 forward 7 unknown #
coedge $-1 $316 $146 $149 $236 reversed $232 $-1 #
coedge $-1 $146 $316 $314 $317 reversed $232 $-1 #
loop $-1 $-1 $146 $218 #
vertex $-1 $317 $318 #
straight-curve $-1 -69.931333353679008 -40.371808847871463 0 0 0 1 I I #
coedge $-1 $149 $148 $306 $319 forward $83 $-1 #
edge $-1 $320 -8.7741093263454246 $151 8.7741093263454246 $230 $321 forward 7 unknown #
point $-1 -69.931333353679008 40.371808847871463 -7.6992238488693685 #
point $-1 -69.931333353679008 -40.371808847871463 -7.6992238488693685 #
face $-1 $-1 $255 $20 $-1 $322 reversed single #
loop $-1 $-1 $251 $153 #
plane-surface $-1 0 0 -15.708621908835779 0 0 1 1 0 0 forward_v I I I I #
coedge $-1 $323 $243 $324 $325 forward $154 $-1 #
coedge $-1 $242 $326 $156 $244 reversed $154 $-1 #
edge $-1 $327 -40.371808847871463 $328 40.371808847871463 $243 $329 forward 7 unknown #
coedge $-1 $158 $157 $326 $330 forward $57 $-1 #
edge $-1 $328 -8.7741093263454246 $166 8.7741093263454246 $157 $331 forward 7 unknown #
coedge $-1 $332 $251 $158 $248 forward $240 $-1 #
edge $-1 $249 -8.7741093263454104 $333 8.7741093263454246 $158 $334 forward 7 unknown #
vertex $-1 $248 $335 #
straight-curve $-1 69.931333353679008 40.371808847871463 0 0 0 1 I I #
coedge $-1 $247 $336 $160 $252 forward $240 $-1 #
edge $-1 $256 -40.371808847871463 $249 40.371808847871463 $251 $337 forward 7 unknown #
coedge $-1 $324 $161 $336 $338 reversed $255 $-1 #
coedge $-1 $161 $324 $163 $258 reversed $255 $-1 #
loop $-1 $-1 $161 $239 #
vertex $-1 $162 $339 #
straight-curve $-1 69.931333353679008 -40.371808847871463 0 0 0 -1 I I #
edge $-1 $165 -8.7741093263454246 $327 8.7741093263454246 $254 $340 forward 7 unknown #
point $-1 69.931333353678994 -40.371808847871463 -7.6992238488693685 #
point $-1 69.931333353678994 40.371808847871463 -7.6992238488693685 #
plane-surface $-1 0 0 15.708621908835779 0 0 1 1 0 0 forward_v I I I I #
coedge $-1 $272 $271 $264 $341 forward $169 $-1 #
coedge $-1 $264 $171 $173 $268 reversed $99 $-1 #
coedge $-1 $171 $263 $262 $341 reversed $99 $-1 #
coedge $-1 $179 $174 $171 $266 forward $180 $-1 #
edge $-1 $269 9.7824259521743784 $342 15.957217678195789 $265 $343 forward 7 unknown #
coedge $-1 $173 $172 $272 $344 reversed $61 $-1 #
edge $-1 $345 -80.743617695742941 $269 -73.381022660045801 $263 $346 forward 7 unknown #
vertex $-1 $175 $347 #
straight-curve $-1 -21.284567042594421 34.197017121850052 15.708621908835777 1 0 0 I I #
coedge $-1 $262 $176 $179 $276 reversed $169 $-1 #
coedge $-1 $176 $262 $267 $344 forward $169 $-1 #
vertex $-1 $177 $348 #
straight-curve $-1 -52.383114700988159 40.371808847871463 86.486746638071068 0 0 1 I I #
straight-curve $-1 -52.383114700988159 -27.345486488812924 55.674791802455687 0 0.83867056331134215 -0.54463904215088732 I I #
edge $-1 $342 32.755153469389526 $181 52.383114700988159 $271 $349 forward 7 unknown #
point $-1 -52.383114700988159 40.371808847871463 15.708621908835779 #
point $-1 -52.383114700988159 34.197017121850052 15.708621908835781 #
edge $-1 $350 1 $350 0 $184 $-1 forward 7 unknown #
vertex $-1 $185 $351 #
ellipse-curve $-1 -46.775125777674262 35.789003415958192 11.400914796030239 0 0.54463904215088732 0.83867056331134215 1 0 0 1 I I #
point $-1 -45.775125777674262 37.284412984860779 13.703643554842301 #
edge $-1 $352 1 $352 0 $188 $-1 forward 7 unknown #
vertex $-1 $189 $353 #
ellipse-curve $-1 -38.363142392703423 35.789003415958192 11.400914796030239 0 0.54463904215088732 0.83867056331134215 1 0 0 1 I I #
point $-1 -37.363142392703423 37.284412984860779 13.703643554842301 #
plane-surface $-1 69.931333353679008 0 0 -1 0 0 0 0 1 forward_v I I I I #
coedge $-1 $195 $297 $198 $291 reversed $121 $-1 #
vertex $-1 $291 $354 #
straight-curve $-1 -69.931333353679008 -40.371808847871463 0 0 0 -1 I I #
edge $-1 $289 -40.371808847871463 $293 40.371808847871463 $288 $355 forward 7 unknown #
straight-curve $-1 0 -40.371808847871463 -15.708621908835779 -1 0 0 I I #
vertex $-1 $201 $356 #
straight-curve $-1 0 40.371808847871463 -15.708621908835779 1 0 0 I I #
point $-1 69.931333353679008 40.371808847871463 -15.708621908835779 #
point $-1 69.931333353679008 -40.371808847871463 -15.708621908835779 #
coedge $-1 $288 $205 $208 $299 forward $121 $-1 #
straight-curve $-1 -69.931333353679008 0 15.708621908835779 0 -1 0 I I #
edge $-1 $209 -15.708621908835779 $293 15.708621908835779 $208 $357 forward 7 unknown #
point $-1 -69.931333353679008 40.371808847871463 15.708621908835779 #
point $-1 -69.931333353679008 -40.371808847871463 15.708621908835779 #
straight-curve $-1 69.931333353679008 -40.371808847871463 0 0 0 -1 I I #
straight-curve $-1 69.931333353679008 40.371808847871463 0 0 0 -1 I I #
plane-surface $-1 0 -40.371808847871463 0 0 1 0 0 0 1 forward_v I I I I #
coedge $-1 $358 $221 $308 $359 reversed $140 $-1 #
coedge $-1 $221 $358 $235 $319 reversed $140 $-1 #
edge $-1 $311 -4.0046990299832048 $309 4.0046990299832039 $222 $360 forward 7 unknown #
coedge $-1 $223 $314 $305 $359 forward $219 $-1 #
vertex $-1 $224 $361 #
straight-curve $-1 0 40.371808847871463 -15.708621908835779 1 0 0 I I #
vertex $-1 $225 $362 #
straight-curve $-1 -78.705442680024433 40.371808847871463 -7.6992238488693685 -1 0 0 I I #
point $-1 -69.931333353679008 40.371808847871463 -15.708621908835779 #
coedge $-1 $308 $228 $231 $317 forward $219 $-1 #
straight-curve $-1 -69.931333353679008 0 -15.708621908835779 0 -1 0 I I #
coedge $-1 $231 $230 $358 $363 forward $232 $-1 #
edge $-1 $233 -8.7741093263454246 $364 8.7741093263454246 $231 $365 forward 7 unknown #
point $-1 -69.931333353679008 -40.371808847871463 -15.708621908835779 #
edge $-1 $311 -40.371808847871463 $320 40.371808847871463 $306 $366 forward 7 unknown #
vertex $-1 $319 $367 #
straight-curve $-1 -78.705442680024433 -40.371808847871463 -7.6992238488693685 1 0 0 I I #
plane-surface $-1 0 -40.371808847871463 0 0 1 0 0 0 1 forward_v I I I I #
coedge $-1 $326 $242 $332 $368 reversed $154 $-1 #
coedge $-1 $254 $253 $242 $325 reversed $255 $-1 #
edge $-1 $327 -4.0046990299832048 $369 4.0046990299832039 $242 $370 forward 7 unknown #
coedge $-1 $243 $323 $245 $330 reversed $154 $-1 #
vertex $-1 $244 $371 #
vertex $-1 $244 $372 #
straight-curve $-1 87.479552006369843 0 -7.6992238488693685 0 1 0 I I #
edge $-1 $328 -4.0046990299832048 $333 4.0046990299832039 $326 $373 forward 7 unknown #
straight-curve $-1 78.705442680024419 40.371808847871463 -7.6992238488693685 -1 0 0 I I #
coedge $-1 $336 $247 $323 $368 forward $240 $-1 #
vertex $-1 $368 $374 #
straight-curve $-1 78.705442680024419 40.371808847871463 -15.708621908835777 1 0 0 I I #
point $-1 69.931333353679008 40.371808847871463 -15.708621908835779 #
coedge $-1 $251 $332 $253 $338 forward $240 $-1 #
straight-curve $-1 69.931333353679008 0 -15.708621908835779 0 1 0 I I #
edge $-1 $369 -8.7741093263454246 $256 8.7741093263454104 $253 $375 forward 7 unknown #
point $-1 69.931333353679008 -40.371808847871463 -15.708621908835779 #
straight-curve $-1 78.705442680024419 -40.371808847871463 -7.6992238488693685 1 0 0 I I #
edge $-1 $342 70.778124729235287 $345 74.788081437222246 $262 $376 forward 7 unknown #
vertex $-1 $276 $377 #
straight-curve $-1 -32.755153469389526 24.414591169675674 15.708621908835781 0 1 0 I I #
edge $-1 $345 11.470586426795105 $273 31.098547658393738 $272 $378 forward 7 unknown #
vertex $-1 $344 $379 #
straight-curve $-1 -32.755153469389526 -27.345486488812924 55.674791802455687 0 -0.83867056331134215 0.54463904215088732 I I #
point $-1 -32.755153469389526 34.197017121850052 15.708621908835781 #
point $-1 -52.383114700988159 40.371808847871463 11.698665200848815 #
straight-curve $-1 0 40.371808847871463 15.708621908835779 -1 0 0 I I #
vertex $-1 $279 $380 #
point $-1 -45.775125777674262 35.789003415958192 11.400914796030239 #
vertex $-1 $283 $381 #
point $-1 -37.363142392703423 35.789003415958192 11.400914796030239 #
point $-1 -69.931333353679008 -40.371808847871463 -15.708621908835779 #
straight-curve $-1 -69.931333353679008 0 -15.708621908835779 0 1 0 I I #
point $-1 -69.931333353679008 40.371808847871463 -15.708621908835779 #
straight-curve $-1 -69.931333353679008 40.371808847871463 0 0 0 -1 I I #
coedge $-1 $306 $305 $316 $363 reversed $140 $-1 #
edge $-1 $364 -40.371808847871463 $309 40.371808847871463 $305 $382 forward 7 unknown #
straight-curve $-1 -87.479552006369858 40.371808847871463 -11.703922878852573 0 0 -1 I I #
point $-1 -87.479552006369858 40.371808847871463 -15.708621908835777 #
point $-1 -87.479552006369858 40.371808847871463 -7.6992238488693685 #
edge $-1 $320 -4.0046990299832048 $364 4.0046990299832039 $358 $383 forward 7 unknown #
vertex $-1 $359 $384 #
straight-curve $-1 -78.705442680024433 -40.371808847871463 -15.708621908835777 -1 0 0 I I #
straight-curve $-1 -87.479552006369858 0 -7.6992238488693685 0 -1 0 I I #
point $-1 -87.479552006369858 -40.371808847871463 -7.6992238488693685 #
edge $-1 $333 -40.371808847871463 $369 40.371808847871463 $323 $385 forward 7 unknown #
vertex $-1 $325 $386 #
straight-curve $-1 87.479552006369843 -40.371808847871463 -11.703922878852573 0 0 -1 I I #
point $-1 87.479552006369843 -40.371808847871463 -7.6992238488693685 #
point $-1 87.479552006369843 40.371808847871463 -7.6992238488693685 #
straight-curve $-1 87.479552006369843 40.371808847871463 -11.703922878852573 0 0 -1 I I #
point $-1 87.479552006369843 40.371808847871463 -15.708621908835777 #
straight-curve $-1 78.705442680024419 -40.371808847871463 -15.708621908835777 -1 0 0 I I #
straight-curve $-1 -32.755153469389526 40.371808847871463 86.486746638071068 0 0 -1 I I #
point $-1 -32.755153469389526 40.371808847871463 15.708621908835779 #
straight-curve $-1 -21.284567042594421 40.371808847871456 11.698665200848819 -1 0 0 I I #
point $-1 -32.755153469389526 40.371808847871463 11.698665200848815 #
point $-1 -46.775125777674262 35.244364373807301 10.562244232718896 #
point $-1 -38.363142392703423 35.244364373807301 10.562244232718896 #
straight-curve $-1 -87.479552006369858 0 -15.708621908835777 0 1 0 I I #
straight-curve $-1 -87.479552006369858 -40.371808847871463 -11.703922878852573 0 0 -1 I I #
point $-1 -87.479552006369858 -40.371808847871463 -15.708621908835777 #
straight-curve $-1 87.479552006369843 0 -15.708621908835777 0 -1 0 I I #
point $-1 87.479552006369843 -40.371808847871463 -15.708621908835777 #
End-of-ACIS-data 