500 0 9 0           
7 Unknown 11 ACIS 5.0 NT 24 Fri Mar 26 19:26:16 1999 
-1 9.9999999999999995e-007 1e-010 
body $-1 $9 $-1 $10 #
body $-1 $11 $-1 $12 #
body $-1 $13 $-1 $14 #
body $-1 $15 $-1 $16 #
body $-1 $17 $-1 $18 #
body $-1 $19 $-1 $20 #
body $-1 $21 $-1 $22 #
body $-1 $23 $-1 $24 #
body $-1 $25 $-1 $26 #
lump $-1 $-1 $27 $0 #
transform $-1 1 0 0 0 1 0 0 0 1 61.371501815851317 40.080364878021442 8.5510975917622094 1 rotate no_reflect no_shear #
lump $-1 $-1 $28 $1 #
transform $-1 1 0 0 0 1 0 0 0 1 61.371501815851317 40.080364878021442 8.5510975917622094 1 rotate no_reflect no_shear #
lump $-1 $-1 $29 $2 #
transform $-1 1 0 0 0 1 0 0 0 1 61.371501815851317 40.080364878021442 8.5510975917622094 1 rotate no_reflect no_shear #
lump $-1 $-1 $30 $3 #
transform $-1 1 0 0 0 1 0 0 0 1 61.371501815851317 40.080364878021442 8.5510975917622094 1 rotate no_reflect no_shear #
lump $-1 $-1 $31 $4 #
transform $-1 1 0 0 0 1 0 0 0 1 61.371501815851317 40.080364878021442 8.5510975917622094 1 rotate no_reflect no_shear #
lump $-1 $-1 $32 $5 #
transform $-1 1 0 0 0 1 0 0 0 1 61.371501815851317 40.080364878021442 8.5510975917622094 1 rotate no_reflect no_shear #
lump $-1 $-1 $33 $6 #
transform $-1 1 0 0 0 1 0 0 0 1 61.371501815851317 40.080364878021442 8.5510975917622094 1 rotate no_reflect no_shear #
lump $-1 $-1 $34 $7 #
transform $-1 1 0 0 0 1 0 0 0 1 61.371501815851317 40.080364878021442 8.5510975917622094 1 rotate no_reflect no_shear #
lump $-1 $-1 $35 $8 #
transform $-1 1 0 0 0 1 0 0 0 1 61.371501815851317 40.080364878021442 8.5510975917622094 1 rotate no_reflect no_shear #
shell $-1 $-1 $-1 $36 $-1 $9 #
shell $-1 $-1 $-1 $37 $-1 $11 #
shell $-1 $-1 $-1 $38 $-1 $13 #
shell $-1 $-1 $-1 $39 $-1 $15 #
shell $-1 $-1 $-1 $40 $-1 $17 #
shell $-1 $-1 $-1 $41 $-1 $19 #
shell $-1 $-1 $-1 $42 $-1 $21 #
shell $-1 $-1 $-1 $43 $-1 $23 #
shell $-1 $-1 $-1 $44 $-1 $25 #
face $-1 $45 $46 $27 $-1 $47 forward single #
face $-1 $48 $49 $28 $-1 $50 forward single #
face $-1 $51 $52 $29 $-1 $53 reversed single #
face $-1 $54 $55 $30 $-1 $56 forward single #
face $-1 $57 $58 $31 $-1 $59 reversed single #
face $-1 $60 $61 $32 $-1 $62 forward single #
face $-1 $63 $64 $33 $-1 $65 reversed single #
face $-1 $66 $67 $34 $-1 $68 forward single #
face $-1 $69 $70 $35 $-1 $71 forward single #
face $-1 $72 $73 $27 $-1 $74 reversed single #
loop $-1 $-1 $75 $36 #
plane-surface $-1 0 0 8.5510975917622094 0 0 1 1 0 0 forward_v I I I I #
face $-1 $76 $77 $28 $-1 $78 reversed single #
loop $-1 $-1 $79 $37 #
plane-surface $-1 0 -36.53157195357791 -0.95809633272433814 0 0 1 1 0 0 forward_v I I I I #
face $-1 $80 $81 $29 $-1 $82 reversed single #
loop $-1 $-1 $83 $38 #
plane-surface $-1 52.286776126969471 -18.620707235925572 174.59972456207541 0 1 0 0.66913061440640931 0 0.74314481823134659 forward_v I I I I #
face $-1 $84 $85 $30 $-1 $86 forward single #
loop $-1 $87 $88 $39 #
cone-surface $-1 55.976583486131702 -14.29326509786555 3.4113650338863306 -0.66913061440640931 0 -0.74314481823134659 1.1147172273470198 0 -1.003695921609614 1 I I 0 1 1.5 forward I I I I #
face $-1 $89 $90 $31 $-1 $91 reversed single #
loop $-1 $-1 $92 $40 #
plane-surface $-1 52.286776126969471 17.0634088086926 174.59972456207541 0 1 0 0.66913061440640931 0 0.74314481823134659 forward_v I I I I #
face $-1 $93 $94 $32 $-1 $95 forward single #
loop $-1 $96 $97 $41 #
cone-surface $-1 55.976583486131702 21.390850946752622 3.4113650338863306 -0.66913061440640931 0 -0.74314481823134659 1.1147172273470198 0 -1.003695921609614 1 I I 0 1 1.5 forward I I I I #
face $-1 $98 $99 $33 $-1 $100 reversed single #
loop $-1 $-1 $101 $42 #
plane-surface $-1 -149.66543055251597 -24.216936133144806 88.678937069759584 0 1 0 -0.71933980857756763 0 0.69465836192734942 forward_v I I I I #
face $-1 $102 $103 $34 $-1 $104 forward single #
loop $-1 $105 $106 $43 #
cone-surface $-1 -56.853276643873713 -19.01588280384896 4.0146782846254734 0.71933980857756763 0 -0.69465836192734942 1.0419875428910241 0 1.0790097128663514 1 I I 0 1 1.5 forward I I I I #
face $-1 $107 $108 $35 $-1 $109 forward single #
loop $-1 $110 $111 $44 #
cone-surface $-1 -56.853276643873713 -11.214302809905192 4.0146782846254734 0.71933980857756763 0 -0.69465836192734942 1.0419875428910241 0 1.0790097128663514 1 I I 0 1 1.5 forward I I I I #
face $-1 $112 $113 $27 $-1 $114 reversed single #
loop $-1 $-1 $115 $45 #
plane-surface $-1 0 0 -8.5510975917622094 0 0 1 1 0 0 forward_v I I I I #
coedge $-1 $116 $117 $118 $119 forward $46 $-1 #
face $-1 $120 $121 $28 $-1 $122 reversed single #
loop $-1 $-1 $123 $48 #
plane-surface $-1 0 -36.53157195357791 -5.4896796098602998 0 0 1 1 0 0 forward_v I I I I #
coedge $-1 $124 $125 $126 $127 reversed $49 $-1 #
face $-1 $128 $129 $29 $-1 $130 reversed single #
loop $-1 $-1 $131 $51 #
plane-surface $-1 -29.844325307199838 -14.29326509786555 83.383897439024238 0.66913061440640931 0 0.74314481823134659 0.74314481823134659 0 -0.66913061440640931 forward_v I I I I #
coedge $-1 $132 $133 $134 $135 reversed $52 $-1 #
face $-1 $-1 $136 $30 $-1 $137 forward single #
loop $-1 $138 $139 $54 #
cone-surface $-1 54.132609647056498 -14.29326509786555 1.3634246557905865 -0.66913061440640931 0 -0.74314481823134659 0.55735861367350992 0 -0.50184796080480698 1 I I -0.70710678118654757 0.70710678118654757 0.75 forward I I I I #
loop $-1 $-1 $140 $39 #
coedge $-1 $88 $88 $141 $142 reversed $55 $-1 #
face $-1 $143 $144 $31 $-1 $145 reversed single #
loop $-1 $-1 $146 $57 #
plane-surface $-1 -29.844325307199838 21.390850946752622 83.383897439024238 0.66913061440640931 0 0.74314481823134659 0.74314481823134659 0 -0.66913061440640931 forward_v I I I I #
coedge $-1 $147 $148 $149 $150 reversed $58 $-1 #
face $-1 $-1 $151 $32 $-1 $152 forward single #
loop $-1 $153 $154 $60 #
cone-surface $-1 54.132609647056498 21.390850946752622 1.3634246557905865 -0.66913061440640931 0 -0.74314481823134659 0.55735861367350992 0 -0.50184796080480698 1 I I -0.70710678118654757 0.70710678118654757 0.75 forward I I I I #
loop $-1 $-1 $155 $41 #
coedge $-1 $97 $97 $156 $157 reversed $61 $-1 #
face $-1 $158 $159 $33 $-1 $160 reversed single #
loop $-1 $-1 $161 $63 #
plane-surface $-1 -61.371501815851303 -15.115092806877076 3.4144832289183285 -0.71933980857756763 0 0.69465836192734942 0.69465836192734942 0 0.71933980857756763 forward_v I I I I #
coedge $-1 $162 $163 $164 $165 reversed $64 $-1 #
face $-1 $-1 $166 $34 $-1 $167 forward single #
loop $-1 $168 $169 $66 #
cone-surface $-1 -54.275731971950719 -19.01588280384896 1.525572387465159 0.71933980857756763 0 -0.69465836192734942 0.52099377144551207 0 0.53950485643317569 1 I I -0.70710678118654757 0.70710678118654757 0.75 forward I I I I #
loop $-1 $-1 $170 $43 #
coedge $-1 $106 $106 $171 $172 reversed $67 $-1 #
face $-1 $-1 $173 $35 $-1 $174 forward single #
loop $-1 $175 $176 $69 #
cone-surface $-1 -54.275731971950719 -11.214302809905192 1.525572387465159 0.71933980857756763 0 -0.69465836192734942 0.52099377144551207 0 0.53950485643317569 1 I I -0.70710678118654757 0.70710678118654757 0.75 forward I I I I #
loop $-1 $-1 $177 $44 #
coedge $-1 $111 $111 $178 $179 reversed $70 $-1 #
face $-1 $180 $181 $27 $-1 $182 reversed single #
loop $-1 $-1 $183 $72 #
plane-surface $-1 0 -40.080364878021442 0 0 1 0 0 0 1 forward_v I I I I #
coedge $-1 $184 $185 $186 $187 forward $73 $-1 #
coedge $-1 $188 $75 $189 $190 forward $46 $-1 #
coedge $-1 $75 $188 $191 $192 forward $46 $-1 #
coedge $-1 $193 $194 $75 $119 reversed $195 $-1 #
edge $-1 $196 -40.080364878021442 $197 40.080364878021442 $118 $198 forward 7 unknown #
face $-1 $199 $200 $28 $-1 $201 reversed single #
loop $-1 $-1 $202 $76 #
plane-surface $-1 0 -32.982779029134377 -3.223887971292319 0 -1 0 0 0 -1 forward_v I I I I #
coedge $-1 $203 $204 $205 $206 reversed $77 $-1 #
coedge $-1 $207 $79 $208 $209 forward $49 $-1 #
coedge $-1 $79 $207 $210 $211 reversed $49 $-1 #
coedge $-1 $212 $213 $79 $127 forward $214 $-1 #
edge $-1 $215 14.716993052345423 $216 21.814578901232487 $126 $217 forward 7 unknown #
face $-1 $218 $219 $29 $-1 $220 forward single #
loop $-1 $-1 $221 $80 #
plane-surface $-1 52.286776126969471 -9.9658229598055303 174.59972456207541 0 -1 0 -0.66913061440640931 0 -0.74314481823134659 forward_v I I I I #
coedge $-1 $222 $223 $224 $225 reversed $81 $-1 #
coedge $-1 $133 $83 $226 $227 reversed $52 $-1 #
coedge $-1 $83 $132 $222 $228 reversed $52 $-1 #
coedge $-1 $224 $229 $83 $135 forward $230 $-1 #
edge $-1 $231 78.74876468927549 $232 86.047066276182775 $134 $233 forward 7 unknown #
loop $-1 $-1 $141 $84 #
plane-surface $-1 -29.844325307199838 -14.29326509786555 83.383897439024238 0.66913061440640931 0 0.74314481823134659 0.74314481823134659 0 -0.66913061440640931 forward_v I I I I #
loop $-1 $-1 $234 $54 #
coedge $-1 $139 $139 $140 $235 reversed $85 $-1 #
coedge $-1 $140 $140 $139 $235 forward $87 $-1 #
coedge $-1 $141 $141 $88 $142 forward $136 $-1 #
edge $-1 $236 0 $236 6.2831853071796004 $141 $237 forward 7 unknown #
face $-1 $238 $239 $31 $-1 $240 reversed single #
loop $-1 $-1 $241 $89 #
plane-surface $-1 52.286776126969471 25.718293084812643 174.59972456207541 0 -1 0 -0.66913061440640931 0 -0.74314481823134659 forward_v I I I I #
coedge $-1 $242 $243 $244 $245 reversed $90 $-1 #
coedge $-1 $148 $92 $246 $247 reversed $58 $-1 #
coedge $-1 $92 $147 $242 $248 reversed $58 $-1 #
coedge $-1 $244 $249 $92 $150 forward $239 $-1 #
edge $-1 $250 78.74876468927549 $251 86.047066276182775 $149 $252 forward 7 unknown #
loop $-1 $-1 $156 $93 #
plane-surface $-1 -29.844325307199838 21.390850946752622 83.383897439024238 0.66913061440640931 0 0.74314481823134659 0.74314481823134659 0 -0.66913061440640931 forward_v I I I I #
loop $-1 $-1 $253 $60 #
coedge $-1 $154 $154 $155 $254 reversed $94 $-1 #
coedge $-1 $155 $155 $154 $254 forward $96 $-1 #
coedge $-1 $156 $156 $97 $157 forward $151 $-1 #
edge $-1 $255 0 $255 6.2831853071796004 $156 $256 forward 7 unknown #
face $-1 $257 $258 $33 $-1 $259 reversed single #
loop $-1 $-1 $260 $98 #
plane-surface $-1 -149.66543055251597 -6.0132494806093462 88.678937069759584 0 -1 0 0.71933980857756763 0 -0.69465836192734942 forward_v I I I I #
coedge $-1 $261 $262 $263 $264 reversed $99 $-1 #
coedge $-1 $163 $101 $265 $266 reversed $64 $-1 #
coedge $-1 $101 $162 $261 $267 reversed $64 $-1 #
coedge $-1 $263 $268 $101 $165 forward $269 $-1 #
edge $-1 $270 13.461213460406668 $271 18.421584173382264 $164 $272 forward 7 unknown #
loop $-1 $-1 $171 $102 #
plane-surface $-1 -61.371501815851303 -15.115092806877076 3.4144832289183285 -0.71933980857756763 0 0.69465836192734942 0.69465836192734942 0 0.71933980857756763 forward_v I I I I #
loop $-1 $-1 $273 $66 #
coedge $-1 $169 $169 $170 $274 reversed $103 $-1 #
coedge $-1 $170 $170 $169 $274 forward $105 $-1 #
coedge $-1 $171 $171 $106 $172 forward $166 $-1 #
edge $-1 $275 0 $275 6.2831853071796004 $171 $276 forward 7 unknown #
loop $-1 $-1 $178 $107 #
plane-surface $-1 -61.371501815851303 -15.115092806877076 3.4144832289183285 -0.71933980857756763 0 0.69465836192734942 0.69465836192734942 0 0.71933980857756763 forward_v I I I I #
loop $-1 $-1 $277 $69 #
coedge $-1 $176 $176 $177 $278 reversed $108 $-1 #
coedge $-1 $177 $177 $176 $278 forward $110 $-1 #
coedge $-1 $178 $178 $111 $179 forward $173 $-1 #
edge $-1 $279 0 $279 6.2831853071796004 $178 $280 forward 7 unknown #
face $-1 $281 $282 $27 $-1 $283 reversed single #
loop $-1 $-1 $284 $112 #
plane-surface $-1 -61.371501815851317 0 0 1 0 0 0 0 -1 forward_v I I I I #
coedge $-1 $285 $191 $286 $287 forward $113 $-1 #
coedge $-1 $288 $115 $285 $289 forward $73 $-1 #
coedge $-1 $115 $288 $290 $291 forward $73 $-1 #
coedge $-1 $194 $193 $115 $187 reversed $195 $-1 #
edge $-1 $292 -40.080364878021442 $293 40.080364878021442 $186 $294 forward 7 unknown #
coedge $-1 $117 $116 $295 $296 forward $46 $-1 #
coedge $-1 $297 $298 $116 $190 reversed $282 $-1 #
edge $-1 $197 -61.371501815851317 $299 61.371501815851317 $189 $300 forward 7 unknown #
coedge $-1 $183 $301 $117 $192 reversed $113 $-1 #
edge $-1 $302 -61.371501815851317 $196 61.371501815851317 $191 $303 forward 7 unknown #
coedge $-1 $186 $118 $301 $304 forward $195 $-1 #
coedge $-1 $118 $186 $297 $305 reversed $195 $-1 #
loop $-1 $-1 $193 $281 #
vertex $-1 $119 $306 #
vertex $-1 $119 $307 #
straight-curve $-1 61.371501815851317 0 8.5510975917622094 0 1 0 I I #
face $-1 $308 $309 $28 $-1 $310 reversed single #
loop $-1 $-1 $311 $120 #
plane-surface $-1 -61.371501815851317 0 0 1 0 0 0 0 -1 forward_v I I I I #
coedge $-1 $312 $208 $213 $313 reversed $121 $-1 #
coedge $-1 $314 $123 $315 $316 reversed $77 $-1 #
coedge $-1 $123 $314 $312 $317 forward $77 $-1 #
coedge $-1 $213 $212 $123 $206 forward $214 $-1 #
edge $-1 $318 -21.814578901232487 $319 -14.716993052345423 $205 $320 forward 7 unknown #
coedge $-1 $125 $124 $311 $321 reversed $49 $-1 #
coedge $-1 $202 $322 $124 $209 reversed $121 $-1 #
edge $-1 $215 -61.371501815851317 $323 61.371501815851317 $208 $324 forward 7 unknown #
coedge $-1 $325 $326 $125 $211 forward $309 $-1 #
edge $-1 $216 -61.371501815851317 $327 61.371501815851317 $210 $328 forward 7 unknown #
coedge $-1 $205 $126 $326 $329 forward $214 $-1 #
coedge $-1 $126 $205 $202 $313 forward $214 $-1 #
loop $-1 $-1 $126 $308 #
vertex $-1 $127 $330 #
vertex $-1 $329 $331 #
straight-curve $-1 61.371501815851317 -18.265785976788955 -0.95809633272433814 0 -1 0 I I #
face $-1 $-1 $230 $29 $-1 $332 reversed single #
loop $-1 $-1 $333 $128 #
plane-surface $-1 0 0 8.5510975917622094 0 0 1 1 0 0 forward_v I I I I #
coedge $-1 $334 $335 $336 $337 reversed $129 $-1 #
coedge $-1 $338 $131 $133 $228 forward $81 $-1 #
coedge $-1 $131 $338 $334 $339 forward $81 $-1 #
coedge $-1 $336 $134 $131 $225 forward $230 $-1 #
edge $-1 $232 -11.474074686992797 $340 -2.8191904108727552 $224 $341 forward 7 unknown #
coedge $-1 $342 $343 $132 $227 forward $219 $-1 #
edge $-1 $344 27.122528849468125 $231 35.228113752366582 $226 $345 forward 7 unknown #
edge $-1 $232 -122.74300363170263 $344 -111.83586318740886 $133 $346 forward 7 unknown #
coedge $-1 $134 $336 $342 $347 reversed $230 $-1 #
loop $-1 $-1 $336 $218 #
vertex $-1 $347 $348 #
vertex $-1 $135 $349 #
straight-curve $-1 61.371501815851317 -18.620707235925572 87.299862281037704 0 0 -1 I I #
coedge $-1 $234 $234 $-1 $350 reversed $138 $-1 #
edge $-1 $351 0 $351 6.2831853071796004 $139 $352 forward 7 unknown #
vertex $-1 $142 $353 #
ellipse-curve $-1 57.318709364402103 -14.29326509786555 4.9019467983085701 0.66913061440640931 0 0.74314481823134659 1.1147172273470198 0 -1.003695921609614 1 I I #
face $-1 $-1 $354 $31 $-1 $355 forward single #
loop $-1 $-1 $149 $143 #
plane-surface $-1 61.371501815851317 0 0 -1 0 0 0 0 1 forward_v I I I I #
coedge $-1 $356 $357 $358 $359 reversed $144 $-1 #
coedge $-1 $360 $146 $148 $248 forward $90 $-1 #
coedge $-1 $146 $360 $356 $361 forward $90 $-1 #
coedge $-1 $358 $149 $146 $245 forward $239 $-1 #
edge $-1 $251 6.3679833353162891 $362 15.022867611436332 $244 $363 forward 7 unknown #
coedge $-1 $364 $365 $147 $247 forward $354 $-1 #
edge $-1 $366 27.122528849468125 $250 35.228113752366582 $246 $367 forward 7 unknown #
edge $-1 $251 -122.74300363170263 $366 -111.83586318740886 $148 $368 forward 7 unknown #
coedge $-1 $149 $358 $364 $369 reversed $239 $-1 #
vertex $-1 $369 $370 #
vertex $-1 $150 $371 #
straight-curve $-1 61.371501815851317 17.0634088086926 87.299862281037704 0 0 -1 I I #
coedge $-1 $253 $253 $-1 $372 reversed $153 $-1 #
edge $-1 $373 0 $373 6.2831853071796004 $154 $374 forward 7 unknown #
vertex $-1 $157 $375 #
ellipse-curve $-1 57.318709364402103 21.390850946752622 4.9019467983085701 0.66913061440640931 0 0.74314481823134659 1.1147172273470198 0 -1.003695921609614 1 I I #
face $-1 $-1 $269 $33 $-1 $376 forward single #
loop $-1 $-1 $377 $158 #
plane-surface $-1 -61.371501815851317 0 0 1 0 0 0 0 -1 forward_v I I I I #
coedge $-1 $378 $379 $380 $381 reversed $159 $-1 #
coedge $-1 $382 $161 $163 $267 forward $99 $-1 #
coedge $-1 $161 $382 $378 $383 forward $99 $-1 #
coedge $-1 $380 $164 $161 $264 forward $269 $-1 #
edge $-1 $271 -16.65938972970627 $384 1.5442969228291918 $263 $385 forward 7 unknown #
coedge $-1 $386 $387 $162 $266 forward $258 $-1 #
edge $-1 $388 -40.924985305961478 $270 -35.788370943117584 $265 $389 forward 7 unknown #
edge $-1 $271 -7.1407341865329181 $388 2.0413573615811715e-014 $163 $390 forward 7 unknown #
coedge $-1 $164 $380 $386 $391 forward $269 $-1 #
loop $-1 $-1 $380 $257 #
vertex $-1 $266 $392 #
vertex $-1 $165 $393 #
straight-curve $-1 -74.832715276257986 -24.216936133144806 8.5510975917622076 1 0 0 I I #
coedge $-1 $273 $273 $-1 $394 reversed $168 $-1 #
edge $-1 $395 0 $395 6.2831853071796004 $169 $396 forward 7 unknown #
vertex $-1 $172 $397 #
ellipse-curve $-1 -58.891316459363523 -19.01588280384896 5.9827904103402627 -0.71933980857756763 0 0.69465836192734942 1.0419875428910241 0 1.0790097128663514 1 I I #
coedge $-1 $277 $277 $-1 $398 reversed $175 $-1 #
edge $-1 $399 0 $399 6.2831853071796004 $176 $400 forward 7 unknown #
vertex $-1 $179 $401 #
ellipse-curve $-1 -58.891316459363523 -11.214302809905192 5.9827904103402627 -0.71933980857756763 0 0.69465836192734942 1.0419875428910241 0 1.0790097128663514 1 I I #
face $-1 $-1 $195 $27 $-1 $402 reversed single #
loop $-1 $-1 $297 $180 #
plane-surface $-1 0 40.080364878021442 0 0 -1 0 0 0 -1 forward_v I I I I #
coedge $-1 $403 $295 $298 $404 forward $181 $-1 #
coedge $-1 $301 $183 $184 $289 reversed $113 $-1 #
coedge $-1 $295 $403 $183 $287 reversed $181 $-1 #
edge $-1 $302 -8.5510975917622094 $405 8.5510975917622094 $286 $406 forward 7 unknown #
coedge $-1 $185 $184 $403 $407 forward $73 $-1 #
edge $-1 $293 -61.371501815851317 $405 61.371501815851317 $285 $408 forward 7 unknown #
coedge $-1 $298 $297 $185 $291 reversed $282 $-1 #
edge $-1 $409 -61.371501815851317 $292 61.371501815851317 $290 $410 forward 7 unknown #
vertex $-1 $187 $411 #
vertex $-1 $304 $412 #
straight-curve $-1 61.371501815851317 0 -8.5510975917622094 0 -1 0 I I #
coedge $-1 $284 $286 $188 $296 reversed $181 $-1 #
edge $-1 $299 -40.080364878021442 $302 40.080364878021442 $295 $413 forward 7 unknown #
coedge $-1 $290 $189 $194 $305 forward $282 $-1 #
coedge $-1 $189 $290 $284 $404 reversed $282 $-1 #
vertex $-1 $190 $414 #
straight-curve $-1 0 40.080364878021442 8.5510975917622094 -1 0 0 I I #
coedge $-1 $191 $285 $193 $304 reversed $113 $-1 #
vertex $-1 $296 $415 #
straight-curve $-1 0 -40.080364878021442 8.5510975917622094 1 0 0 I I #
edge $-1 $196 -8.5510975917622094 $293 8.5510975917622094 $193 $416 forward 7 unknown #
edge $-1 $197 -8.5510975917622094 $292 8.5510975917622094 $194 $417 forward 7 unknown #
point $-1 61.371501815851317 -40.080364878021442 8.5510975917622094 #
point $-1 61.371501815851317 40.080364878021442 8.5510975917622094 #
face $-1 $-1 $214 $28 $-1 $418 reversed single #
loop $-1 $-1 $210 $199 #
plane-surface $-1 0 -40.080364878021442 0 0 1 0 0 0 1 forward_v I I I I #
coedge $-1 $419 $420 $207 $321 forward $200 $-1 #
coedge $-1 $322 $202 $204 $317 reversed $121 $-1 #
edge $-1 $319 -3.8777356242141403 $215 0.65384765292182134 $213 $421 forward 7 unknown #
coedge $-1 $204 $203 $422 $423 reversed $77 $-1 #
coedge $-1 $326 $325 $203 $316 forward $309 $-1 #
edge $-1 $424 -61.371501815851317 $318 61.371501815851317 $315 $425 forward 7 unknown #
edge $-1 $426 -61.371501815851317 $319 61.371501815851317 $312 $427 forward 7 unknown #
vertex $-1 $316 $428 #
vertex $-1 $206 $429 #
straight-curve $-1 61.371501815851317 -18.265785976788955 -5.4896796098602998 0 1 0 I I #
edge $-1 $327 -21.814578901232487 $323 -14.716993052345423 $311 $430 forward 7 unknown #
coedge $-1 $208 $312 $419 $431 reversed $121 $-1 #
vertex $-1 $321 $432 #
straight-curve $-1 0 -32.982779029134377 -0.95809633272433814 -1 0 0 I I #
coedge $-1 $315 $210 $420 $433 forward $309 $-1 #
coedge $-1 $210 $315 $212 $329 reversed $309 $-1 #
vertex $-1 $433 $434 #
straight-curve $-1 0 -40.080364878021442 -0.95809633272433814 -1 0 0 I I #
edge $-1 $216 0.95809633272433814 $318 5.4896796098602998 $212 $435 forward 7 unknown #
point $-1 61.371501815851317 -32.982779029134377 -0.95809633272433814 #
point $-1 61.371501815851317 -40.080364878021442 -0.95809633272433814 #
plane-surface $-1 61.371501815851317 0 0 -1 0 0 0 0 1 forward_v I I I I #
coedge $-1 $343 $342 $335 $436 forward $219 $-1 #
coedge $-1 $335 $221 $223 $339 reversed $129 $-1 #
coedge $-1 $221 $334 $333 $436 reversed $129 $-1 #
coedge $-1 $229 $224 $221 $337 forward $230 $-1 #
edge $-1 $340 -86.047066276182775 $437 -78.74876468927549 $336 $438 forward 7 unknown #
coedge $-1 $223 $222 $343 $439 reversed $81 $-1 #
edge $-1 $440 111.83586318740886 $340 122.74300363170263 $334 $441 forward 7 unknown #
vertex $-1 $225 $442 #
straight-curve $-1 61.37150181585131 -7.1466325489327751 1.2527960048549431 0 1 0 I I #
coedge $-1 $333 $226 $229 $347 forward $219 $-1 #
coedge $-1 $226 $333 $338 $439 forward $219 $-1 #
vertex $-1 $227 $443 #
straight-curve $-1 26.143388063484736 -18.620707235925572 8.5510975917622147 1 0 0 I I #
straight-curve $-1 -29.844325307199838 -18.620707235925572 83.383897439024238 -0.74314481823134659 0 0.66913061440640931 I I #
edge $-1 $231 -18.620707235925572 $437 -9.9658229598055303 $229 $444 forward 7 unknown #
point $-1 61.371501815851317 -18.620707235925572 8.5510975917622094 #
point $-1 61.371501815851317 -18.620707235925572 1.2527960048549289 #
edge $-1 $445 1 $445 0 $234 $-1 forward 7 unknown #
vertex $-1 $235 $446 #
ellipse-curve $-1 54.634457607861307 -14.29326509786555 1.9207832694640965 0.66913061440640931 0 0.74314481823134659 1.1147172273470198 0 -1.003695921609614 1 I I #
point $-1 58.433426591749111 -14.29326509786555 3.8982508766989508 #
loop $-1 $-1 $246 $238 #
plane-surface $-1 0 0 8.5510975917622094 0 0 1 1 0 0 forward_v I I I I #
coedge $-1 $357 $241 $243 $361 reversed $144 $-1 #
coedge $-1 $241 $356 $447 $448 reversed $144 $-1 #
coedge $-1 $249 $244 $241 $359 forward $239 $-1 #
edge $-1 $362 -86.047066276182775 $449 -78.74876468927549 $358 $450 forward 7 unknown #
coedge $-1 $243 $242 $365 $451 reversed $90 $-1 #
edge $-1 $452 111.83586318740886 $362 122.74300363170263 $356 $453 forward 7 unknown #
vertex $-1 $245 $454 #
straight-curve $-1 61.37150181585131 10.695425473376311 1.2527960048549431 0 1 0 I I #
coedge $-1 $447 $246 $249 $369 forward $354 $-1 #
coedge $-1 $246 $447 $360 $451 forward $354 $-1 #
vertex $-1 $247 $455 #
straight-curve $-1 26.143388063484736 17.0634088086926 8.5510975917622147 1 0 0 I I #
straight-curve $-1 -29.844325307199838 17.0634088086926 83.383897439024238 -0.74314481823134659 0 0.66913061440640931 I I #
edge $-1 $250 17.0634088086926 $449 25.718293084812643 $249 $456 forward 7 unknown #
point $-1 61.371501815851317 17.0634088086926 8.5510975917622094 #
point $-1 61.371501815851317 17.0634088086926 1.2527960048549289 #
edge $-1 $457 1 $457 0 $253 $-1 forward 7 unknown #
vertex $-1 $254 $458 #
ellipse-curve $-1 54.634457607861307 21.390850946752622 1.9207832694640965 0.66913061440640931 0 0.74314481823134659 1.1147172273470198 0 -1.003695921609614 1 I I #
point $-1 58.433426591749111 21.390850946752622 3.8982508766989508 #
plane-surface $-1 0 0 8.5510975917622094 0 0 1 1 0 0 forward_v I I I I #
coedge $-1 $387 $386 $379 $459 forward $258 $-1 #
coedge $-1 $379 $260 $262 $383 reversed $159 $-1 #
coedge $-1 $260 $378 $377 $459 reversed $159 $-1 #
coedge $-1 $268 $263 $260 $381 forward $269 $-1 #
edge $-1 $384 -18.421584173382264 $460 -13.461213460406668 $380 $461 forward 7 unknown #
coedge $-1 $262 $261 $387 $462 reversed $99 $-1 #
edge $-1 $463 -2.0413573615811715e-014 $384 7.1407341865329181 $378 $464 forward 7 unknown #
vertex $-1 $264 $465 #
straight-curve $-1 -56.411131102875714 -7.557546403438538 8.5510975917622112 0 1 0 I I #
coedge $-1 $377 $265 $268 $391 reversed $258 $-1 #
coedge $-1 $265 $377 $382 $462 forward $258 $-1 #
vertex $-1 $266 $466 #
straight-curve $-1 -61.371501815851317 -24.216936133144806 44.339468534879792 0 0 1 I I #
straight-curve $-1 -61.371501815851303 -24.216936133144806 3.4144832289183285 -0.69465836192734942 0 -0.71933980857756763 I I #
edge $-1 $460 6.0132494806093462 $270 24.216936133144806 $386 $467 forward 7 unknown #
point $-1 -61.371501815851317 -24.216936133144806 8.5510975917622094 #
point $-1 -56.411131102875721 -24.216936133144806 8.5510975917622094 #
edge $-1 $468 1 $468 0 $273 $-1 forward 7 unknown #
vertex $-1 $274 $469 #
ellipse-curve $-1 -54.815236828383895 -19.01588280384896 2.0465661589106712 -0.71933980857756763 0 0.69465836192734942 1.0419875428910241 0 1.0790097128663514 1 I I #
point $-1 -57.849328916472508 -19.01588280384896 7.061800123206627 #
edge $-1 $470 1 $470 0 $277 $-1 forward 7 unknown #
vertex $-1 $278 $471 #
ellipse-curve $-1 -54.815236828383895 -11.214302809905192 2.0465661589106712 -0.71933980857756763 0 0.69465836192734942 1.0419875428910241 0 1.0790097128663514 1 I I #
point $-1 -57.849328916472508 -11.214302809905192 7.061800123206627 #
plane-surface $-1 61.371501815851317 0 0 -1 0 0 0 0 1 forward_v I I I I #
coedge $-1 $286 $284 $288 $407 reversed $181 $-1 #
edge $-1 $299 -8.5510975917622094 $409 8.5510975917622094 $298 $472 forward 7 unknown #
vertex $-1 $407 $473 #
straight-curve $-1 -61.371501815851317 -40.080364878021442 0 0 0 -1 I I #
edge $-1 $405 -40.080364878021442 $409 40.080364878021442 $403 $474 forward 7 unknown #
straight-curve $-1 0 -40.080364878021442 -8.5510975917622094 -1 0 0 I I #
vertex $-1 $291 $475 #
straight-curve $-1 0 40.080364878021442 -8.5510975917622094 1 0 0 I I #
point $-1 61.371501815851317 40.080364878021442 -8.5510975917622094 #
point $-1 61.371501815851317 -40.080364878021442 -8.5510975917622094 #
straight-curve $-1 -61.371501815851317 0 8.5510975917622094 0 -1 0 I I #
point $-1 -61.371501815851317 40.080364878021442 8.5510975917622094 #
point $-1 -61.371501815851317 -40.080364878021442 8.5510975917622094 #
straight-curve $-1 61.371501815851317 -40.080364878021442 0 0 0 -1 I I #
straight-curve $-1 61.371501815851317 40.080364878021442 0 0 0 -1 I I #
plane-surface $-1 61.371501815851317 0 0 -1 0 0 0 0 1 forward_v I I I I #
coedge $-1 $422 $311 $322 $431 forward $200 $-1 #
coedge $-1 $311 $422 $325 $433 reversed $200 $-1 #
straight-curve $-1 61.371501815851317 -32.982779029134377 -1.6119439856461595 0 0 1 I I #
coedge $-1 $420 $419 $314 $423 forward $200 $-1 #
edge $-1 $426 14.716993052345423 $424 21.814578901232487 $422 $476 forward 7 unknown #
vertex $-1 $316 $477 #
straight-curve $-1 0 -40.080364878021442 -5.4896796098602998 1 0 0 I I #
vertex $-1 $423 $478 #
straight-curve $-1 0 -32.982779029134377 -5.4896796098602998 1 0 0 I I #
point $-1 61.371501815851317 -40.080364878021442 -5.4896796098602998 #
point $-1 61.371501815851317 -32.982779029134377 -5.4896796098602998 #
straight-curve $-1 -61.371501815851317 -18.265785976788955 -0.95809633272433814 0 1 0 I I #
edge $-1 $323 -0.65384765292182134 $426 3.8777356242141403 $419 $479 forward 7 unknown #
point $-1 -61.371501815851317 -32.982779029134377 -0.95809633272433814 #
edge $-1 $327 0.95809633272433814 $424 5.4896796098602998 $420 $480 forward 7 unknown #
point $-1 -61.371501815851317 -40.080364878021442 -0.95809633272433814 #
straight-curve $-1 61.371501815851317 -40.080364878021442 0 0 0 -1 I I #
edge $-1 $437 -35.228113752366582 $440 -27.122528849468125 $333 $481 forward 7 unknown #
vertex $-1 $436 $482 #
straight-curve $-1 61.371501815851317 -9.9658229598055303 87.299862281037704 0 0 1 I I #
edge $-1 $440 2.8191904108727552 $344 11.474074686992797 $343 $483 forward 7 unknown #
vertex $-1 $439 $484 #
straight-curve $-1 -29.844325307199838 -9.9658229598055303 83.383897439024238 0.74314481823134659 0 -0.66913061440640931 I I #
point $-1 61.371501815851317 -9.9658229598055303 1.2527960048549289 #
point $-1 53.265916912952861 -18.620707235925572 8.5510975917622147 #
straight-curve $-1 61.371501815851317 0 8.5510975917622094 0 1 0 I I #
vertex $-1 $350 $485 #
point $-1 55.749174835208322 -14.29326509786555 0.91708734785448243 #
coedge $-1 $365 $364 $357 $448 forward $354 $-1 #
edge $-1 $449 -35.228113752366582 $452 -27.122528849468125 $447 $486 forward 7 unknown #
vertex $-1 $448 $487 #
straight-curve $-1 61.371501815851317 25.718293084812643 87.299862281037704 0 0 1 I I #
edge $-1 $452 -15.022867611436332 $366 -6.3679833353162891 $365 $488 forward 7 unknown #
vertex $-1 $451 $489 #
straight-curve $-1 -29.844325307199838 25.718293084812643 83.383897439024238 0.74314481823134659 0 -0.66913061440640931 I I #
point $-1 61.371501815851317 25.718293084812643 1.2527960048549289 #
point $-1 53.265916912952861 17.0634088086926 8.5510975917622147 #
straight-curve $-1 61.371501815851317 0 8.5510975917622094 0 1 0 I I #
vertex $-1 $372 $490 #
point $-1 55.749174835208322 21.390850946752622 0.91708734785448243 #
edge $-1 $460 35.788370943117584 $463 40.924985305961478 $377 $491 forward 7 unknown #
vertex $-1 $391 $492 #
straight-curve $-1 -74.832715276257986 -6.0132494806093462 8.5510975917622076 -1 0 0 I I #
edge $-1 $463 -1.5442969228291918 $388 16.65938972970627 $387 $493 forward 7 unknown #
vertex $-1 $462 $494 #
straight-curve $-1 -61.371501815851303 -6.0132494806093462 3.4144832289183285 0.69465836192734942 0 0.71933980857756763 I I #
point $-1 -56.411131102875721 -6.0132494806093462 8.5510975917622094 #
point $-1 -61.371501815851317 -24.216936133144806 3.4144832289183138 #
straight-curve $-1 -61.371501815851317 0 8.5510975917622094 0 -1 0 I I #
vertex $-1 $394 $495 #
point $-1 -53.773249285492874 -19.01588280384896 3.1255758717770226 #
vertex $-1 $398 $496 #
point $-1 -53.773249285492874 -11.214302809905192 3.1255758717770226 #
straight-curve $-1 -61.371501815851317 40.080364878021442 0 0 0 -1 I I #
point $-1 -61.371501815851317 -40.080364878021442 -8.5510975917622094 #
straight-curve $-1 -61.371501815851317 0 -8.5510975917622094 0 1 0 I I #
point $-1 -61.371501815851317 40.080364878021442 -8.5510975917622094 #
straight-curve $-1 -61.371501815851317 -18.265785976788955 -5.4896796098602998 0 -1 0 I I #
point $-1 -61.371501815851317 -40.080364878021442 -5.4896796098602998 #
point $-1 -61.371501815851317 -32.982779029134377 -5.4896796098602998 #
straight-curve $-1 -61.371501815851317 -32.982779029134377 -1.6119439856461595 0 0 -1 I I #
straight-curve $-1 -61.371501815851317 -40.080364878021442 0 0 0 -1 I I #
straight-curve $-1 26.143388063484736 -9.9658229598055303 8.5510975917622147 -1 0 0 I I #
point $-1 61.371501815851317 -9.9658229598055303 8.5510975917622094 #
straight-curve $-1 53.265916912952882 -7.1466325489327751 8.5510975917622005 0 -1 0 I I #
point $-1 53.265916912952861 -9.9658229598055303 8.5510975917622147 #
point $-1 53.630761686251688 -14.29326509786555 0.80606604211707655 #
straight-curve $-1 26.143388063484736 25.718293084812643 8.5510975917622147 -1 0 0 I I #
point $-1 61.371501815851317 25.718293084812643 8.5510975917622094 #
straight-curve $-1 53.265916912952882 10.695425473376311 8.5510975917622005 0 -1 0 I I #
point $-1 53.265916912952861 25.718293084812643 8.5510975917622147 #
point $-1 53.630761686251688 21.390850946752622 0.80606604211707655 #
straight-curve $-1 -61.371501815851317 -6.0132494806093462 44.339468534879792 0 0 -1 I I #
point $-1 -61.371501815851317 -6.0132494806093462 8.5510975917622094 #
straight-curve $-1 -61.371501815851317 -7.557546403438538 3.414483228918316 0 -1 0 I I #
point $-1 -61.371501815851317 -6.0132494806093462 3.4144832289183138 #
point $-1 -53.736227115517543 -19.01588280384896 1.0045786160196468 #
point $-1 -53.736227115517543 -11.214302809905192 1.0045786160196468 #
End-of-ACIS-data 