500 0 5 0           
7 Unknown 11 ACIS 5.0 NT 24 Fri Mar 26 02:32:35 1999 
-1 9.9999999999999995e-007 1e-010 
body $-1 $5 $-1 $6 #
body $-1 $7 $-1 $8 #
body $-1 $9 $-1 $10 #
body $-1 $11 $-1 $12 #
body $-1 $13 $-1 $14 #
lump $-1 $-1 $15 $0 #
transform $-1 1 0 0 0 1 0 0 0 1 59.562364574114198 26.158397393834967 11.431236425727155 1 rotate no_reflect no_shear #
lump $-1 $-1 $16 $1 #
transform $-1 1 0 0 0 1 0 0 0 1 59.562364574114198 26.158397393834967 11.431236425727155 1 rotate no_reflect no_shear #
lump $-1 $-1 $17 $2 #
transform $-1 1 0 0 0 1 0 0 0 1 59.562364574114198 26.158397393834967 11.431236425727155 1 rotate no_reflect no_shear #
lump $-1 $-1 $18 $3 #
transform $-1 1 0 0 0 1 0 0 0 1 59.562364574114198 26.158397393834967 11.431236425727155 1 rotate no_reflect no_shear #
lump $-1 $-1 $19 $4 #
transform $-1 1 0 0 0 1 0 0 0 1 59.562364574114198 26.158397393834967 11.431236425727155 1 rotate no_reflect no_shear #
shell $-1 $-1 $-1 $20 $-1 $5 #
shell $-1 $-1 $-1 $21 $-1 $7 #
shell $-1 $-1 $-1 $22 $-1 $9 #
shell $-1 $-1 $-1 $23 $-1 $11 #
shell $-1 $-1 $-1 $24 $-1 $13 #
face $-1 $25 $26 $15 $-1 $27 forward single #
face $-1 $28 $29 $16 $-1 $30 forward single #
face $-1 $31 $32 $17 $-1 $33 reversed single #
face $-1 $34 $35 $18 $-1 $36 forward single #
face $-1 $37 $38 $19 $-1 $39 reversed single #
face $-1 $40 $41 $15 $-1 $42 reversed single #
loop $-1 $-1 $43 $20 #
plane-surface $-1 0 0 11.431236425727155 0 0 1 1 0 0 forward_v I I I I #
face $-1 $44 $45 $16 $-1 $46 forward single #
loop $-1 $-1 $47 $21 #
plane-surface $-1 -39.99872868676426 -96.178157265045741 102.164406213319 -1 0 0 0 -0.5877852598018023 0.80901698891910034 forward_v I I I I #
face $-1 $48 $49 $17 $-1 $50 reversed single #
loop $-1 $51 $52 $22 #
cone-surface $-1 -46.221902405374713 -21.197289629496112 7.1254818315018387 0 0.5877852598018023 -0.80901698891910034 1 0 0 1 I I 0 1 1 forward I I I I #
face $-1 $53 $54 $18 $-1 $55 forward single #
loop $-1 $-1 $56 $23 #
plane-surface $-1 52.44507612398516 -96.178157265045741 102.164406213319 -1 0 0 0 -0.5877852598018023 0.80901698891910034 forward_v I I I I #
face $-1 $57 $58 $19 $-1 $59 reversed single #
loop $-1 $60 $61 $24 #
cone-surface $-1 46.221902405374706 -21.197289629496112 7.1254818315018387 0 0.5877852598018023 -0.80901698891910034 1 0 0 1 I I 0 1 1 forward I I I I #
face $-1 $62 $63 $15 $-1 $64 reversed single #
loop $-1 $-1 $65 $25 #
plane-surface $-1 0 0 -11.431236425727155 0 0 1 1 0 0 forward_v I I I I #
coedge $-1 $66 $67 $68 $69 forward $26 $-1 #
face $-1 $70 $71 $16 $-1 $72 forward single #
loop $-1 $-1 $73 $28 #
plane-surface $-1 -46.221902405374713 -26.158397393834989 5.7904765320158731 0 -0.5877852598018023 0.80901698891910034 1 0 0 forward_v I I I I #
coedge $-1 $74 $75 $76 $77 reversed $29 $-1 #
face $-1 $78 $79 $17 $-1 $80 forward single #
loop $-1 $81 $82 $31 #
cone-surface $-1 -46.221902405374713 -19.824209127195047 5.235598689672619 0 0.5877852598018023 -0.80901698891910034 0.5 0 0 1 I I -0.70710678118654746 0.70710678118654746 0.5 forward I I I I #
loop $-1 $-1 $83 $22 #
coedge $-1 $52 $52 $84 $85 reversed $32 $-1 #
face $-1 $86 $87 $18 $-1 $88 forward single #
loop $-1 $-1 $89 $34 #
plane-surface $-1 46.221902405374706 -26.158397393834989 5.7904765320158731 0 -0.5877852598018023 0.80901698891910034 1 0 0 forward_v I I I I #
coedge $-1 $90 $91 $92 $93 reversed $35 $-1 #
face $-1 $94 $95 $19 $-1 $96 forward single #
loop $-1 $97 $98 $37 #
cone-surface $-1 46.221902405374706 -19.824209127195047 5.235598689672619 0 0.5877852598018023 -0.80901698891910034 0.5 0 0 1 I I -0.70710678118654746 0.70710678118654746 0.5 forward I I I I #
loop $-1 $-1 $99 $24 #
coedge $-1 $61 $61 $100 $101 reversed $38 $-1 #
face $-1 $102 $103 $15 $-1 $104 reversed single #
loop $-1 $-1 $105 $40 #
plane-surface $-1 0 -26.158397393834967 0 0 1 0 0 0 1 forward_v I I I I #
coedge $-1 $106 $107 $108 $109 forward $41 $-1 #
coedge $-1 $110 $43 $111 $112 forward $26 $-1 #
coedge $-1 $43 $110 $113 $114 forward $26 $-1 #
coedge $-1 $115 $116 $43 $69 reversed $117 $-1 #
edge $-1 $118 -26.158397393834967 $119 26.158397393834967 $68 $120 forward 7 unknown #
face $-1 $121 $122 $16 $-1 $123 forward single #
loop $-1 $-1 $124 $44 #
plane-surface $-1 -52.445076123985167 -96.178157265045741 102.164406213319 1 0 0 0 0.5877852598018023 -0.80901698891910034 forward_v I I I I #
coedge $-1 $125 $126 $127 $128 reversed $45 $-1 #
coedge $-1 $75 $47 $126 $129 forward $29 $-1 #
coedge $-1 $47 $74 $130 $131 reversed $29 $-1 #
coedge $-1 $132 $127 $47 $77 forward $122 $-1 #
edge $-1 $133 -29.694521022565247 $134 -21.930681238687903 $76 $135 forward 7 unknown #
face $-1 $136 $137 $17 $-1 $138 forward single #
loop $-1 $-1 $139 $48 #
plane-surface $-1 -39.99872868676426 -96.178157265045741 102.164406213319 -1 0 0 0 -0.5877852598018023 0.80901698891910034 forward_v I I I I #
loop $-1 $-1 $140 $31 #
coedge $-1 $82 $82 $83 $141 forward $49 $-1 #
coedge $-1 $83 $83 $82 $141 reversed $51 $-1 #
coedge $-1 $84 $84 $52 $85 forward $137 $-1 #
edge $-1 $142 3.648635851298499e-015 $142 6.283185307179604 $84 $143 forward 7 unknown #
face $-1 $144 $145 $18 $-1 $146 forward single #
loop $-1 $-1 $147 $53 #
plane-surface $-1 39.998728686764252 -96.178157265045741 102.164406213319 1 0 0 0 0.5877852598018023 -0.80901698891910034 forward_v I I I I #
coedge $-1 $148 $149 $150 $151 reversed $54 $-1 #
coedge $-1 $91 $56 $149 $152 forward $35 $-1 #
coedge $-1 $56 $90 $153 $154 reversed $35 $-1 #
coedge $-1 $155 $150 $56 $93 forward $145 $-1 #
edge $-1 $156 -29.694521022565247 $157 -21.930681238687903 $92 $158 forward 7 unknown #
face $-1 $159 $160 $19 $-1 $161 forward single #
loop $-1 $-1 $162 $57 #
plane-surface $-1 52.44507612398516 -96.178157265045741 102.164406213319 -1 0 0 0 -0.5877852598018023 0.80901698891910034 forward_v I I I I #
loop $-1 $-1 $163 $37 #
coedge $-1 $98 $98 $99 $164 forward $58 $-1 #
coedge $-1 $99 $99 $98 $164 reversed $60 $-1 #
coedge $-1 $100 $100 $61 $101 forward $160 $-1 #
edge $-1 $165 3.648635851298499e-015 $165 6.283185307179604 $100 $166 forward 7 unknown #
face $-1 $167 $168 $15 $-1 $169 reversed single #
loop $-1 $-1 $170 $62 #
plane-surface $-1 -59.562364574114198 0 0 1 0 0 0 0 -1 forward_v I I I I #
coedge $-1 $171 $113 $172 $173 forward $63 $-1 #
coedge $-1 $174 $65 $171 $175 forward $41 $-1 #
coedge $-1 $65 $174 $176 $177 forward $41 $-1 #
coedge $-1 $116 $115 $65 $109 reversed $117 $-1 #
edge $-1 $178 -26.158397393834967 $179 26.158397393834967 $108 $180 forward 7 unknown #
coedge $-1 $67 $66 $181 $182 forward $26 $-1 #
coedge $-1 $183 $184 $66 $112 reversed $168 $-1 #
edge $-1 $119 -59.562364574114198 $185 59.562364574114198 $111 $186 forward 7 unknown #
coedge $-1 $105 $187 $67 $114 reversed $63 $-1 #
edge $-1 $188 -59.562364574114198 $118 59.562364574114198 $113 $189 forward 7 unknown #
coedge $-1 $108 $68 $187 $190 forward $117 $-1 #
coedge $-1 $68 $108 $183 $191 reversed $117 $-1 #
loop $-1 $-1 $115 $167 #
vertex $-1 $69 $192 #
vertex $-1 $69 $193 #
straight-curve $-1 59.562364574114198 0 11.431236425727155 0 1 0 I I #
face $-1 $194 $195 $16 $-1 $196 reversed single #
loop $-1 $-1 $197 $70 #
plane-surface $-1 0 0 11.431236425727155 0 0 1 1 0 0 forward_v I I I I #
coedge $-1 $198 $199 $197 $200 reversed $71 $-1 #
coedge $-1 $201 $73 $199 $202 reversed $45 $-1 #
coedge $-1 $73 $201 $74 $129 reversed $45 $-1 #
coedge $-1 $76 $197 $73 $128 forward $122 $-1 #
edge $-1 $203 -29.334124921297811 $133 -16.887777484076903 $127 $204 forward 7 unknown #
edge $-1 $133 -9.5966338040074568 $205 -2.6120223451443757e-014 $74 $206 forward 7 unknown #
coedge $-1 $207 $208 $75 $131 forward $209 $-1 #
edge $-1 $134 39.650966680932342 $205 45.291726574643612 $130 $210 forward 7 unknown #
coedge $-1 $211 $76 $208 $212 forward $122 $-1 #
vertex $-1 $128 $213 #
vertex $-1 $212 $214 #
straight-curve $-1 -39.99872868676426 -48.08907863252287 11.431236425727157 0 -1 0 I I #
face $-1 $215 $216 $17 $-1 $217 forward single #
loop $-1 $218 $84 $78 #
plane-surface $-1 -46.221902405374713 -26.158397393834989 5.7904765320158731 0 -0.5877852598018023 0.80901698891910034 1 0 0 forward_v I I I I #
coedge $-1 $219 $220 $221 $222 reversed $79 $-1 #
coedge $-1 $140 $140 $-1 $223 forward $81 $-1 #
edge $-1 $224 0 $224 6.2831853071796004 $82 $225 forward 7 unknown #
vertex $-1 $85 $226 #
ellipse-curve $-1 -46.221902405374713 -22.276477501896288 8.6108564788715256 0 0.5877852598018023 -0.80901698891910034 1 0 0 1 I I #
face $-1 $227 $228 $18 $-1 $229 reversed single #
loop $-1 $-1 $230 $86 #
plane-surface $-1 0 0 11.431236425727155 0 0 1 1 0 0 forward_v I I I I #
coedge $-1 $231 $232 $230 $233 reversed $87 $-1 #
coedge $-1 $234 $89 $232 $235 reversed $54 $-1 #
coedge $-1 $89 $234 $90 $152 reversed $54 $-1 #
coedge $-1 $92 $230 $89 $151 forward $145 $-1 #
edge $-1 $236 16.887777484076899 $156 29.334124921297807 $150 $237 forward 7 unknown #
edge $-1 $156 -9.5966338040074568 $238 -2.6120223451443757e-014 $90 $239 forward 7 unknown #
coedge $-1 $240 $241 $91 $154 forward $242 $-1 #
edge $-1 $157 39.650966680932342 $238 45.291726574643612 $153 $243 forward 7 unknown #
coedge $-1 $244 $92 $241 $245 forward $145 $-1 #
vertex $-1 $151 $246 #
vertex $-1 $245 $247 #
straight-curve $-1 52.44507612398516 -48.08907863252287 11.431236425727157 0 -1 0 I I #
face $-1 $248 $249 $19 $-1 $250 forward single #
loop $-1 $251 $100 $94 #
plane-surface $-1 46.221902405374706 -26.158397393834989 5.7904765320158731 0 -0.5877852598018023 0.80901698891910034 1 0 0 forward_v I I I I #
coedge $-1 $252 $253 $254 $255 reversed $95 $-1 #
coedge $-1 $163 $163 $-1 $256 forward $97 $-1 #
edge $-1 $257 0 $257 6.2831853071796004 $98 $258 forward 7 unknown #
vertex $-1 $101 $259 #
ellipse-curve $-1 46.221902405374706 -22.276477501896288 8.6108564788715256 0 0.5877852598018023 -0.80901698891910034 1 0 0 1 I I #
face $-1 $-1 $117 $15 $-1 $260 reversed single #
loop $-1 $-1 $183 $102 #
plane-surface $-1 0 26.158397393834967 0 0 -1 0 0 0 -1 forward_v I I I I #
coedge $-1 $261 $181 $184 $262 forward $103 $-1 #
coedge $-1 $187 $105 $106 $175 reversed $63 $-1 #
coedge $-1 $181 $261 $105 $173 reversed $103 $-1 #
edge $-1 $188 -11.431236425727155 $263 11.431236425727155 $172 $264 forward 7 unknown #
coedge $-1 $107 $106 $261 $265 forward $41 $-1 #
edge $-1 $179 -59.562364574114198 $263 59.562364574114198 $171 $266 forward 7 unknown #
coedge $-1 $184 $183 $107 $177 reversed $168 $-1 #
edge $-1 $267 -59.562364574114198 $178 59.562364574114198 $176 $268 forward 7 unknown #
vertex $-1 $109 $269 #
vertex $-1 $190 $270 #
straight-curve $-1 59.562364574114198 0 -11.431236425727155 0 -1 0 I I #
coedge $-1 $170 $172 $110 $182 reversed $103 $-1 #
edge $-1 $185 -26.158397393834967 $188 26.158397393834967 $181 $271 forward 7 unknown #
coedge $-1 $176 $111 $116 $191 forward $168 $-1 #
coedge $-1 $111 $176 $170 $262 reversed $168 $-1 #
vertex $-1 $112 $272 #
straight-curve $-1 0 26.158397393834967 11.431236425727155 -1 0 0 I I #
coedge $-1 $113 $171 $115 $190 reversed $63 $-1 #
vertex $-1 $182 $273 #
straight-curve $-1 0 -26.158397393834967 11.431236425727155 1 0 0 I I #
edge $-1 $118 -11.431236425727155 $179 11.431236425727155 $115 $274 forward 7 unknown #
edge $-1 $119 -11.431236425727155 $178 11.431236425727155 $116 $275 forward 7 unknown #
point $-1 59.562364574114198 -26.158397393834967 11.431236425727155 #
point $-1 59.562364574114198 26.158397393834967 11.431236425727155 #
face $-1 $276 $209 $16 $-1 $277 reversed single #
loop $-1 $-1 $278 $121 #
plane-surface $-1 0 0 -11.431236425727155 0 0 1 1 0 0 forward_v I I I I #
coedge $-1 $127 $279 $124 $200 forward $122 $-1 #
coedge $-1 $199 $124 $280 $281 reversed $71 $-1 #
coedge $-1 $124 $198 $125 $202 forward $71 $-1 #
edge $-1 $282 21.930681238687903 $203 29.694521022565247 $197 $283 forward 7 unknown #
coedge $-1 $126 $125 $207 $284 reversed $45 $-1 #
edge $-1 $285 2.6120223451443757e-014 $203 9.5966338040074568 $199 $286 forward 7 unknown #
vertex $-1 $128 $287 #
straight-curve $-1 -23.110951202687357 -18.394557609957626 11.431236425727155 1 0 0 I I #
vertex $-1 $284 $288 #
straight-curve $-1 -39.99872868676426 -26.158397393834989 5.7904765320158731 0 -0.80901698891910034 -0.5877852598018023 I I #
coedge $-1 $280 $130 $201 $284 forward $209 $-1 #
coedge $-1 $130 $289 $132 $212 reversed $209 $-1 #
loop $-1 $-1 $280 $194 #
straight-curve $-1 -39.99872868676426 -26.158397393834967 51.082203106659499 0 0 -1 I I #
coedge $-1 $290 $132 $291 $292 forward $122 $-1 #
edge $-1 $134 -39.99872868676426 $293 59.562364574114198 $208 $294 forward 7 unknown #
point $-1 -39.99872868676426 -18.394557609957623 11.431236425727155 #
point $-1 -39.99872868676426 -26.158397393834967 11.431236425727155 #
face $-1 $295 $296 $17 $-1 $297 forward single #
loop $-1 $-1 $298 $136 #
plane-surface $-1 -52.445076123985167 -96.178157265045741 102.164406213319 1 0 0 0 0.5877852598018023 -0.80901698891910034 forward_v I I I I #
loop $-1 $-1 $299 $78 #
coedge $-1 $220 $139 $300 $301 forward $79 $-1 #
coedge $-1 $139 $219 $302 $303 reversed $79 $-1 #
coedge $-1 $304 $305 $139 $222 forward $296 $-1 #
edge $-1 $306 -29.694521022565247 $307 -21.930681238687903 $221 $308 forward 7 unknown #
edge $-1 $309 1 $309 0 $140 $-1 forward 7 unknown #
vertex $-1 $141 $310 #
ellipse-curve $-1 -46.221902405374713 -20.11810175709595 5.6401071841321695 0 -0.5877852598018023 0.80901698891910034 1 0 0 1 I I #
point $-1 -45.221902405374713 -22.276477501896281 8.6108564788715096 #
face $-1 $311 $312 $18 $-1 $313 reversed single #
loop $-1 $314 $315 $144 #
cone-surface $-1 -46.221902405374713 -21.197289629496112 7.1254818315018387 0 0.5877852598018023 -0.80901698891910034 1 0 0 1 I I 0 1 1 forward I I I I #
coedge $-1 $150 $316 $147 $233 forward $145 $-1 #
coedge $-1 $232 $147 $317 $318 reversed $87 $-1 #
coedge $-1 $147 $231 $148 $235 forward $87 $-1 #
edge $-1 $319 21.930681238687903 $236 29.694521022565247 $230 $320 forward 7 unknown #
coedge $-1 $149 $148 $240 $321 reversed $54 $-1 #
edge $-1 $322 2.6120223451443757e-014 $236 9.5966338040074568 $232 $323 forward 7 unknown #
vertex $-1 $151 $324 #
straight-curve $-1 23.110951202687353 -18.394557609957626 11.431236425727155 1 0 0 I I #
vertex $-1 $321 $325 #
straight-curve $-1 52.44507612398516 -26.158397393834989 5.7904765320158731 0 -0.80901698891910034 -0.5877852598018023 I I #
coedge $-1 $317 $153 $234 $321 forward $242 $-1 #
coedge $-1 $153 $326 $155 $245 reversed $242 $-1 #
loop $-1 $-1 $317 $327 #
straight-curve $-1 52.44507612398516 -26.158397393834967 51.082203106659499 0 0 -1 I I #
coedge $-1 $328 $155 $329 $330 forward $145 $-1 #
edge $-1 $157 52.44507612398516 $331 59.562364574114198 $241 $332 forward 7 unknown #
point $-1 52.44507612398516 -18.394557609957623 11.431236425727155 #
point $-1 52.44507612398516 -26.158397393834967 11.431236425727155 #
face $-1 $333 $334 $19 $-1 $335 forward single #
loop $-1 $-1 $336 $159 #
plane-surface $-1 39.998728686764252 -96.178157265045741 102.164406213319 1 0 0 0 0.5877852598018023 -0.80901698891910034 forward_v I I I I #
loop $-1 $-1 $337 $94 #
coedge $-1 $253 $162 $338 $339 forward $95 $-1 #
coedge $-1 $162 $252 $340 $341 reversed $95 $-1 #
coedge $-1 $342 $343 $162 $255 forward $334 $-1 #
edge $-1 $344 -29.694521022565247 $345 -21.930681238687903 $254 $346 forward 7 unknown #
edge $-1 $347 1 $347 0 $163 $-1 forward 7 unknown #
vertex $-1 $164 $348 #
ellipse-curve $-1 46.221902405374706 -20.11810175709595 5.6401071841321695 0 -0.5877852598018023 0.80901698891910034 1 0 0 1 I I #
point $-1 47.221902405374706 -22.276477501896281 8.6108564788715096 #
plane-surface $-1 59.562364574114198 0 0 -1 0 0 0 0 1 forward_v I I I I #
coedge $-1 $172 $170 $174 $265 reversed $103 $-1 #
edge $-1 $185 -11.431236425727155 $267 11.431236425727155 $184 $349 forward 7 unknown #
vertex $-1 $265 $350 #
straight-curve $-1 -59.562364574114198 -26.158397393834967 0 0 0 -1 I I #
edge $-1 $263 -26.158397393834967 $267 26.158397393834967 $261 $351 forward 7 unknown #
straight-curve $-1 0 -26.158397393834967 -11.431236425727155 -1 0 0 I I #
vertex $-1 $177 $352 #
straight-curve $-1 0 26.158397393834967 -11.431236425727155 1 0 0 I I #
point $-1 59.562364574114198 26.158397393834967 -11.431236425727155 #
point $-1 59.562364574114198 -26.158397393834967 -11.431236425727155 #
straight-curve $-1 -59.562364574114198 0 11.431236425727155 0 -1 0 I I #
point $-1 -59.562364574114198 26.158397393834967 11.431236425727155 #
point $-1 -59.562364574114198 -26.158397393834967 11.431236425727155 #
straight-curve $-1 59.562364574114198 -26.158397393834967 0 0 0 -1 I I #
straight-curve $-1 59.562364574114198 26.158397393834967 0 0 0 -1 I I #
face $-1 $353 $354 $16 $-1 $355 reversed single #
plane-surface $-1 0 -26.158397393834967 0 0 1 0 0 0 1 forward_v I I I I #
coedge $-1 $356 $357 $358 $359 forward $195 $-1 #
coedge $-1 $197 $360 $361 $362 forward $122 $-1 #
coedge $-1 $361 $207 $198 $281 forward $209 $-1 #
edge $-1 $285 -45.291726574643612 $282 -39.650966680932342 $280 $363 forward 7 unknown #
vertex $-1 $281 $364 #
straight-curve $-1 -52.445076123985167 -48.08907863252287 11.431236425727157 0 1 0 I I #
edge $-1 $205 16.887777484076903 $285 29.334124921297811 $207 $365 forward 7 unknown #
vertex $-1 $284 $366 #
straight-curve $-1 -52.445076123985167 -26.158397393834989 5.7904765320158731 0 0.80901698891910034 0.5877852598018023 I I #
point $-1 -52.445076123985167 -18.394557609957623 11.431236425727155 #
point $-1 -39.99872868676426 -26.158397393834967 5.7904765320158882 #
coedge $-1 $208 $367 $368 $369 reversed $209 $-1 #
coedge $-1 $360 $211 $370 $371 forward $122 $-1 #
coedge $-1 $368 $372 $211 $292 reversed $373 $-1 #
edge $-1 $293 -26.158397393834967 $374 26.158397393834967 $291 $375 forward 7 unknown #
vertex $-1 $292 $376 #
straight-curve $-1 0 -26.158397393834967 11.431236425727155 1 0 0 I I #
face $-1 $377 $378 $17 $-1 $379 reversed single #
loop $-1 $-1 $380 $215 #
plane-surface $-1 0 0 11.431236425727155 0 0 1 1 0 0 forward_v I I I I #
coedge $-1 $381 $382 $380 $383 reversed $216 $-1 #
coedge $-1 $384 $300 $305 $385 reversed $218 $-1 #
coedge $-1 $299 $386 $219 $301 reversed $218 $-1 #
edge $-1 $306 -9.5966338040074568 $387 -2.6120223451443757e-014 $219 $388 forward 7 unknown #
coedge $-1 $389 $390 $220 $303 forward $391 $-1 #
edge $-1 $307 39.650966680932342 $387 45.291726574643612 $302 $392 forward 7 unknown #
coedge $-1 $393 $221 $390 $394 forward $296 $-1 #
coedge $-1 $221 $380 $299 $385 forward $296 $-1 #
vertex $-1 $385 $395 #
vertex $-1 $394 $396 #
straight-curve $-1 -39.99872868676426 -48.08907863252287 11.431236425727157 0 -1 0 I I #
vertex $-1 $223 $397 #
point $-1 -45.221902405374713 -20.11810175709595 5.6401071841321695 #
face $-1 $398 $399 $18 $-1 $400 forward single #
loop $-1 $401 $402 $227 #
cone-surface $-1 -46.221902405374713 -19.824209127195047 5.235598689672619 0 0.5877852598018023 -0.80901698891910034 0.5 0 0 1 I I -0.70710678118654746 0.70710678118654746 0.5 forward I I I I #
loop $-1 $-1 $403 $144 #
coedge $-1 $315 $315 $404 $405 reversed $228 $-1 #
coedge $-1 $230 $406 $407 $408 forward $145 $-1 #
coedge $-1 $407 $240 $231 $318 forward $242 $-1 #
edge $-1 $322 -45.291726574643612 $319 -39.650966680932342 $317 $409 forward 7 unknown #
vertex $-1 $318 $410 #
straight-curve $-1 39.998728686764252 -48.08907863252287 11.431236425727157 0 1 0 I I #
edge $-1 $238 -29.334124921297807 $322 -16.887777484076899 $240 $411 forward 7 unknown #
vertex $-1 $321 $412 #
straight-curve $-1 39.998728686764252 -26.158397393834989 5.7904765320158731 0 0.80901698891910034 0.5877852598018023 I I #
point $-1 39.998728686764252 -18.394557609957623 11.431236425727155 #
point $-1 52.44507612398516 -26.158397393834967 5.7904765320158882 #
coedge $-1 $241 $413 $414 $415 reversed $242 $-1 #
face $-1 $416 $242 $18 $-1 $417 reversed single #
coedge $-1 $418 $244 $419 $420 forward $145 $-1 #
coedge $-1 $414 $421 $244 $330 reversed $422 $-1 #
edge $-1 $331 -26.158397393834967 $423 26.158397393834967 $329 $424 forward 7 unknown #
vertex $-1 $330 $425 #
straight-curve $-1 0 -26.158397393834967 11.431236425727155 1 0 0 I I #
face $-1 $426 $427 $19 $-1 $428 reversed single #
loop $-1 $-1 $429 $248 #
plane-surface $-1 0 0 11.431236425727155 0 0 1 1 0 0 forward_v I I I I #
coedge $-1 $430 $431 $429 $432 reversed $249 $-1 #
coedge $-1 $433 $338 $343 $434 reversed $251 $-1 #
coedge $-1 $337 $435 $252 $339 reversed $251 $-1 #
edge $-1 $344 -9.5966338040074568 $436 -2.6120223451443757e-014 $252 $437 forward 7 unknown #
coedge $-1 $438 $439 $253 $341 forward $440 $-1 #
edge $-1 $345 39.650966680932342 $436 45.291726574643612 $340 $441 forward 7 unknown #
coedge $-1 $442 $254 $439 $443 forward $334 $-1 #
coedge $-1 $254 $429 $337 $434 forward $334 $-1 #
vertex $-1 $434 $444 #
vertex $-1 $443 $445 #
straight-curve $-1 52.44507612398516 -48.08907863252287 11.431236425727157 0 -1 0 I I #
vertex $-1 $256 $446 #
point $-1 47.221902405374706 -20.11810175709595 5.6401071841321695 #
straight-curve $-1 -59.562364574114198 26.158397393834967 0 0 0 -1 I I #
point $-1 -59.562364574114198 -26.158397393834967 -11.431236425727155 #
straight-curve $-1 -59.562364574114198 0 -11.431236425727155 0 1 0 I I #
point $-1 -59.562364574114198 26.158397393834967 -11.431236425727155 #
face $-1 $447 $448 $16 $-1 $449 reversed single #
loop $-1 $-1 $450 $276 #
plane-surface $-1 -59.562364574114198 0 0 1 0 0 0 0 -1 forward_v I I I I #
coedge $-1 $451 $278 $367 $452 forward $195 $-1 #
coedge $-1 $278 $451 $453 $454 forward $195 $-1 #
coedge $-1 $372 $368 $278 $359 reversed $373 $-1 #
edge $-1 $455 -26.158397393834967 $456 26.158397393834967 $358 $457 forward 7 unknown #
coedge $-1 $279 $290 $458 $459 forward $122 $-1 #
coedge $-1 $460 $280 $279 $362 reversed $209 $-1 #
edge $-1 $461 -59.562364574114198 $282 -52.445076123985167 $361 $294 forward 7 unknown #
straight-curve $-1 -52.445076123985167 -26.158397393834967 51.082203106659499 0 0 1 I I #
point $-1 -52.445076123985167 -26.158397393834967 11.431236425727155 #
straight-curve $-1 -23.110951202687357 -26.158397393834967 5.7904765320158882 -1 0 0 I I #
point $-1 -52.445076123985167 -26.158397393834967 5.7904765320158882 #
coedge $-1 $289 $460 $356 $452 reversed $209 $-1 #
coedge $-1 $358 $291 $289 $369 forward $373 $-1 #
edge $-1 $293 -11.431236425727155 $456 11.431236425727155 $368 $462 forward 7 unknown #
coedge $-1 $463 $464 $290 $371 reversed $448 $-1 #
edge $-1 $374 -59.562364574114198 $465 59.562364574114198 $370 $466 forward 7 unknown #
coedge $-1 $291 $358 $463 $467 reversed $373 $-1 #
loop $-1 $-1 $368 $447 #
vertex $-1 $292 $468 #
straight-curve $-1 59.562364574114198 0 11.431236425727155 0 1 0 I I #
point $-1 59.562364574114198 -26.158397393834967 11.431236425727155 #
face $-1 $469 $391 $17 $-1 $470 reversed single #
loop $-1 $-1 $471 $295 #
plane-surface $-1 0 0 -11.431236425727155 0 0 1 1 0 0 forward_v I I I I #
coedge $-1 $305 $472 $298 $383 forward $296 $-1 #
coedge $-1 $382 $298 $473 $474 reversed $216 $-1 #
coedge $-1 $298 $381 $384 $475 forward $216 $-1 #
edge $-1 $476 21.930681238687903 $477 29.694521022565247 $380 $478 forward 7 unknown #
coedge $-1 $386 $299 $382 $475 reversed $218 $-1 #
edge $-1 $477 -29.334124921297811 $306 -16.887777484076903 $305 $479 forward 7 unknown #
coedge $-1 $300 $384 $389 $480 reversed $218 $-1 #
vertex $-1 $480 $481 #
straight-curve $-1 -39.99872868676426 -26.158397393834989 5.7904765320158731 0 -0.80901698891910034 -0.5877852598018023 I I #
coedge $-1 $473 $302 $386 $480 forward $391 $-1 #
coedge $-1 $302 $482 $304 $394 reversed $391 $-1 #
loop $-1 $-1 $473 $377 #
straight-curve $-1 -39.99872868676426 -26.158397393834967 51.082203106659499 0 0 -1 I I #
coedge $-1 $483 $304 $484 $485 forward $296 $-1 #
edge $-1 $307 -39.99872868676426 $486 59.562364574114198 $390 $487 forward 7 unknown #
point $-1 -39.99872868676426 -18.394557609957623 11.431236425727155 #
point $-1 -39.99872868676426 -26.158397393834967 11.431236425727155 #
point $-1 -46.221902405374713 -19.530316497294145 4.8310901952130685 #
face $-1 $488 $489 $18 $-1 $490 forward single #
loop $-1 $-1 $491 $311 #
plane-surface $-1 -39.99872868676426 -96.178157265045741 102.164406213319 -1 0 0 0 -0.5877852598018023 0.80901698891910034 forward_v I I I I #
loop $-1 $-1 $492 $227 #
coedge $-1 $402 $402 $403 $493 forward $312 $-1 #
coedge $-1 $403 $403 $402 $493 reversed $314 $-1 #
coedge $-1 $404 $404 $315 $405 forward $489 $-1 #
edge $-1 $494 3.648635851298499e-015 $494 6.283185307179604 $404 $495 forward 7 unknown #
coedge $-1 $316 $496 $491 $497 forward $145 $-1 #
coedge $-1 $498 $317 $316 $408 reversed $242 $-1 #
edge $-1 $499 -39.99872868676426 $319 39.998728686764252 $407 $332 forward 7 unknown #
straight-curve $-1 39.998728686764252 -26.158397393834967 51.082203106659499 0 0 1 I I #
point $-1 39.998728686764252 -26.158397393834967 11.431236425727155 #
straight-curve $-1 23.110951202687353 -26.158397393834967 5.7904765320158882 -1 0 0 I I #
point $-1 39.998728686764252 -26.158397393834967 5.7904765320158882 #
coedge $-1 $326 $500 $501 $502 reversed $242 $-1 #
coedge $-1 $503 $329 $326 $415 forward $422 $-1 #
edge $-1 $331 -11.431236425727155 $504 11.431236425727155 $414 $505 forward 7 unknown #
face $-1 $506 $507 $18 $-1 $508 reversed single #
plane-surface $-1 0 -26.158397393834967 0 0 1 0 0 0 1 forward_v I I I I #
coedge $-1 $509 $328 $510 $511 forward $145 $-1 #
coedge $-1 $512 $513 $328 $420 reversed $514 $-1 #
edge $-1 $423 -59.562364574114198 $515 59.562364574114198 $419 $516 forward 7 unknown #
coedge $-1 $329 $503 $512 $517 reversed $422 $-1 #
loop $-1 $-1 $414 $518 #
vertex $-1 $330 $519 #
straight-curve $-1 59.562364574114198 0 11.431236425727155 0 1 0 I I #
point $-1 59.562364574114198 -26.158397393834967 11.431236425727155 #
face $-1 $520 $521 $19 $-1 $522 reversed single #
loop $-1 $523 $524 $333 #
cone-surface $-1 -46.221902405374713 -21.197289629496112 7.1254818315018387 0 0.5877852598018023 -0.80901698891910034 1 0 0 1 I I 0 1 1 forward I I I I #
coedge $-1 $343 $525 $336 $432 forward $334 $-1 #
coedge $-1 $431 $336 $526 $527 reversed $249 $-1 #
coedge $-1 $336 $430 $433 $528 forward $249 $-1 #
edge $-1 $529 21.930681238687903 $530 29.694521022565247 $429 $531 forward 7 unknown #
coedge $-1 $435 $337 $431 $528 reversed $251 $-1 #
edge $-1 $530 16.887777484076899 $344 29.334124921297807 $343 $532 forward 7 unknown #
coedge $-1 $338 $433 $438 $533 reversed $251 $-1 #
vertex $-1 $533 $534 #
straight-curve $-1 52.44507612398516 -26.158397393834989 5.7904765320158731 0 -0.80901698891910034 -0.5877852598018023 I I #
coedge $-1 $526 $340 $435 $533 forward $440 $-1 #
coedge $-1 $340 $535 $342 $443 reversed $440 $-1 #
loop $-1 $-1 $526 $536 #
straight-curve $-1 52.44507612398516 -26.158397393834967 51.082203106659499 0 0 -1 I I #
coedge $-1 $537 $342 $538 $539 forward $334 $-1 #
edge $-1 $345 52.44507612398516 $540 59.562364574114198 $439 $541 forward 7 unknown #
point $-1 52.44507612398516 -18.394557609957623 11.431236425727155 #
point $-1 52.44507612398516 -26.158397393834967 11.431236425727155 #
point $-1 46.221902405374706 -19.530316497294145 4.8310901952130685 #
face $-1 $-1 $373 $16 $-1 $542 reversed single #
loop $-1 $-1 $463 $353 #
plane-surface $-1 0 26.158397393834967 0 0 -1 0 0 0 -1 forward_v I I I I #
coedge $-1 $543 $458 $464 $544 forward $354 $-1 #
coedge $-1 $357 $356 $543 $545 forward $195 $-1 #
edge $-1 $456 -59.562364574114198 $546 59.562364574114198 $367 $547 forward 7 unknown #
coedge $-1 $464 $463 $357 $454 reversed $448 $-1 #
edge $-1 $548 -59.562364574114198 $455 59.562364574114198 $453 $549 forward 7 unknown #
vertex $-1 $359 $550 #
vertex $-1 $369 $551 #
straight-curve $-1 59.562364574114198 0 -11.431236425727155 0 -1 0 I I #
coedge $-1 $450 $552 $360 $459 reversed $354 $-1 #
edge $-1 $465 -26.158397393834967 $461 26.158397393834967 $458 $553 forward 7 unknown #
coedge $-1 $367 $361 $552 $554 forward $209 $-1 #
vertex $-1 $459 $555 #
straight-curve $-1 59.562364574114198 -26.158397393834967 0 0 0 -1 I I #
coedge $-1 $453 $370 $372 $467 forward $448 $-1 #
coedge $-1 $370 $453 $450 $544 reversed $448 $-1 #
vertex $-1 $371 $556 #
straight-curve $-1 0 26.158397393834967 11.431236425727155 -1 0 0 I I #
edge $-1 $374 -11.431236425727155 $455 11.431236425727155 $372 $557 forward 7 unknown #
point $-1 59.562364574114198 26.158397393834967 11.431236425727155 #
face $-1 $558 $559 $17 $-1 $560 reversed single #
plane-surface $-1 0 -26.158397393834967 0 0 1 0 0 0 1 forward_v I I I I #
coedge $-1 $561 $562 $563 $564 forward $378 $-1 #
coedge $-1 $380 $565 $566 $567 forward $296 $-1 #
coedge $-1 $566 $389 $381 $474 forward $391 $-1 #
edge $-1 $568 -45.291726574643612 $476 -39.650966680932342 $473 $569 forward 7 unknown #
edge $-1 $568 2.6120223451443757e-014 $477 9.5966338040074568 $382 $570 forward 7 unknown #
vertex $-1 $474 $571 #
vertex $-1 $385 $572 #
straight-curve $-1 -52.445076123985167 -48.08907863252287 11.431236425727157 0 1 0 I I #
straight-curve $-1 -23.110951202687357 -18.394557609957626 11.431236425727155 1 0 0 I I #
edge $-1 $387 16.887777484076903 $568 29.334124921297811 $389 $573 forward 7 unknown #
point $-1 -39.99872868676426 -26.158397393834967 5.7904765320158882 #
coedge $-1 $390 $574 $575 $576 reversed $391 $-1 #
coedge $-1 $565 $393 $577 $578 forward $296 $-1 #
coedge $-1 $575 $579 $393 $485 reversed $580 $-1 #
edge $-1 $486 -26.158397393834967 $581 26.158397393834967 $484 $582 forward 7 unknown #
vertex $-1 $485 $583 #
straight-curve $-1 0 -26.158397393834967 11.431236425727155 1 0 0 I I #
face $-1 $584 $585 $18 $-1 $586 forward single #
loop $-1 $587 $404 $398 #
plane-surface $-1 -46.221902405374713 -26.158397393834989 5.7904765320158731 0 -0.5877852598018023 0.80901698891910034 1 0 0 forward_v I I I I #
coedge $-1 $588 $589 $406 $497 reversed $399 $-1 #
coedge $-1 $492 $492 $-1 $590 forward $401 $-1 #
edge $-1 $591 0 $591 6.2831853071796004 $402 $592 forward 7 unknown #
vertex $-1 $405 $593 #
ellipse-curve $-1 -46.221902405374713 -22.276477501896288 8.6108564788715256 0 0.5877852598018023 -0.80901698891910034 1 0 0 1 I I #
coedge $-1 $406 $594 $595 $596 forward $145 $-1 #
edge $-1 $597 -29.694521022565247 $499 -21.930681238687903 $406 $598 forward 7 unknown #
coedge $-1 $599 $407 $589 $600 forward $242 $-1 #
vertex $-1 $408 $601 #
coedge $-1 $413 $602 $603 $604 forward $242 $-1 #
coedge $-1 $605 $606 $413 $502 forward $607 $-1 #
edge $-1 $504 -59.562364574114198 $608 59.562364574114198 $413 $609 forward 7 unknown #
coedge $-1 $421 $414 $606 $610 reversed $422 $-1 #
vertex $-1 $415 $611 #
straight-curve $-1 59.562364574114198 -26.158397393834967 0 0 0 -1 I I #
face $-1 $518 $514 $18 $-1 $612 reversed single #
loop $-1 $-1 $613 $416 #
plane-surface $-1 -59.562364574114198 0 0 1 0 0 0 0 -1 forward_v I I I I #
coedge $-1 $594 $418 $602 $614 forward $145 $-1 #
coedge $-1 $613 $603 $418 $511 reversed $507 $-1 #
edge $-1 $515 -26.158397393834967 $615 26.158397393834967 $510 $616 forward 7 unknown #
coedge $-1 $617 $419 $421 $517 forward $514 $-1 #
coedge $-1 $419 $617 $613 $618 reversed $514 $-1 #
loop $-1 $-1 $512 $506 #
vertex $-1 $420 $619 #
straight-curve $-1 0 26.158397393834967 11.431236425727155 -1 0 0 I I #
edge $-1 $423 -11.431236425727155 $620 11.431236425727155 $421 $621 forward 7 unknown #
face $-1 $-1 $422 $18 $-1 $622 reversed single #
point $-1 59.562364574114198 26.158397393834967 11.431236425727155 #
face $-1 $623 $624 $19 $-1 $625 forward single #
loop $-1 $626 $627 $426 #
cone-surface $-1 -46.221902405374713 -19.824209127195047 5.235598689672619 0 0.5877852598018023 -0.80901698891910034 0.5 0 0 1 I I -0.70710678118654746 0.70710678118654746 0.5 forward I I I I #
loop $-1 $-1 $628 $333 #
coedge $-1 $524 $524 $629 $630 reversed $427 $-1 #
coedge $-1 $429 $631 $632 $633 forward $334 $-1 #
coedge $-1 $632 $438 $430 $527 forward $440 $-1 #
edge $-1 $634 -45.291726574643612 $529 -39.650966680932342 $526 $635 forward 7 unknown #
edge $-1 $634 2.6120223451443757e-014 $530 9.5966338040074568 $431 $636 forward 7 unknown #
vertex $-1 $527 $637 #
vertex $-1 $434 $638 #
straight-curve $-1 39.998728686764252 -48.08907863252287 11.431236425727157 0 1 0 I I #
straight-curve $-1 23.110951202687353 -18.394557609957626 11.431236425727155 1 0 0 I I #
edge $-1 $436 -29.334124921297807 $634 -16.887777484076899 $438 $639 forward 7 unknown #
point $-1 52.44507612398516 -26.158397393834967 5.7904765320158882 #
coedge $-1 $439 $640 $641 $642 reversed $440 $-1 #
face $-1 $643 $440 $19 $-1 $644 reversed single #
coedge $-1 $645 $442 $646 $647 forward $334 $-1 #
coedge $-1 $641 $648 $442 $539 reversed $649 $-1 #
edge $-1 $540 -26.158397393834967 $650 26.158397393834967 $538 $651 forward 7 unknown #
vertex $-1 $539 $652 #
straight-curve $-1 0 -26.158397393834967 11.431236425727155 1 0 0 I I #
plane-surface $-1 59.562364574114198 0 0 -1 0 0 0 0 1 forward_v I I I I #
coedge $-1 $552 $450 $451 $545 reversed $354 $-1 #
edge $-1 $465 -11.431236425727155 $548 11.431236425727155 $464 $653 forward 7 unknown #
edge $-1 $546 -26.158397393834967 $548 26.158397393834967 $543 $654 forward 7 unknown #
vertex $-1 $545 $655 #
straight-curve $-1 0 -26.158397393834967 -11.431236425727155 -1 0 0 I I #
vertex $-1 $454 $656 #
straight-curve $-1 0 26.158397393834967 -11.431236425727155 1 0 0 I I #
point $-1 59.562364574114198 26.158397393834967 -11.431236425727155 #
point $-1 59.562364574114198 -26.158397393834967 -11.431236425727155 #
coedge $-1 $458 $543 $460 $554 reversed $354 $-1 #
straight-curve $-1 -59.562364574114198 0 11.431236425727155 0 -1 0 I I #
edge $-1 $461 -11.431236425727155 $546 11.431236425727155 $552 $657 forward 7 unknown #
point $-1 -59.562364574114198 -26.158397393834967 11.431236425727155 #
point $-1 -59.562364574114198 26.158397393834967 11.431236425727155 #
straight-curve $-1 59.562364574114198 26.158397393834967 0 0 0 -1 I I #
face $-1 $658 $659 $17 $-1 $660 reversed single #
loop $-1 $-1 $661 $469 #
plane-surface $-1 -59.562364574114198 0 0 1 0 0 0 0 -1 forward_v I I I I #
coedge $-1 $662 $471 $574 $663 forward $378 $-1 #
coedge $-1 $471 $662 $664 $665 forward $378 $-1 #
coedge $-1 $579 $575 $471 $564 reversed $580 $-1 #
edge $-1 $666 -26.158397393834967 $667 26.158397393834967 $563 $668 forward 7 unknown #
coedge $-1 $472 $483 $669 $670 forward $296 $-1 #
coedge $-1 $671 $473 $472 $567 reversed $391 $-1 #
edge $-1 $672 -59.562364574114198 $476 -52.445076123985167 $566 $487 forward 7 unknown #
vertex $-1 $480 $673 #
straight-curve $-1 -52.445076123985167 -26.158397393834967 51.082203106659499 0 0 1 I I #
straight-curve $-1 -52.445076123985167 -26.158397393834989 5.7904765320158731 0 0.80901698891910034 0.5877852598018023 I I #
point $-1 -52.445076123985167 -26.158397393834967 11.431236425727155 #
point $-1 -52.445076123985167 -18.394557609957623 11.431236425727155 #
straight-curve $-1 -23.110951202687357 -26.158397393834967 5.7904765320158882 -1 0 0 I I #
coedge $-1 $482 $671 $561 $663 reversed $391 $-1 #
coedge $-1 $563 $484 $482 $576 forward $580 $-1 #
edge $-1 $486 -11.431236425727155 $667 11.431236425727155 $575 $674 forward 7 unknown #
coedge $-1 $675 $676 $483 $578 reversed $659 $-1 #
edge $-1 $581 -59.562364574114198 $677 59.562364574114198 $577 $678 forward 7 unknown #
coedge $-1 $484 $563 $675 $679 reversed $580 $-1 #
loop $-1 $-1 $575 $658 #
vertex $-1 $485 $680 #
straight-curve $-1 59.562364574114198 0 11.431236425727155 0 1 0 I I #
point $-1 59.562364574114198 -26.158397393834967 11.431236425727155 #
face $-1 $327 $607 $18 $-1 $681 reversed single #
loop $-1 $-1 $682 $488 #
plane-surface $-1 -52.445076123985167 -96.178157265045741 102.164406213319 1 0 0 0 0.5877852598018023 -0.80901698891910034 forward_v I I I I #
loop $-1 $-1 $595 $398 #
coedge $-1 $589 $491 $683 $684 forward $399 $-1 #
coedge $-1 $491 $588 $498 $600 reversed $399 $-1 #
edge $-1 $685 1 $685 0 $492 $-1 forward 7 unknown #
vertex $-1 $493 $686 #
ellipse-curve $-1 -46.221902405374713 -20.11810175709595 5.6401071841321695 0 -0.5877852598018023 0.80901698891910034 1 0 0 1 I I #
point $-1 -45.221902405374713 -22.276477501896281 8.6108564788715096 #
coedge $-1 $496 $509 $682 $687 forward $145 $-1 #
coedge $-1 $688 $683 $496 $596 reversed $587 $-1 #
edge $-1 $689 -29.334124921297811 $597 -16.887777484076903 $496 $690 forward 7 unknown #
vertex $-1 $596 $691 #
straight-curve $-1 -39.99872868676426 -48.08907863252287 11.431236425727157 0 -1 0 I I #
coedge $-1 $692 $498 $693 $694 forward $242 $-1 #
edge $-1 $499 39.650966680932342 $695 45.291726574643612 $498 $696 forward 7 unknown #
point $-1 -39.99872868676426 -26.158397393834967 11.431236425727155 #
coedge $-1 $500 $692 $509 $614 reversed $242 $-1 #
coedge $-1 $510 $697 $500 $604 reversed $507 $-1 #
edge $-1 $615 -11.431236425727155 $608 11.431236425727155 $603 $698 forward 7 unknown #
coedge $-1 $699 $501 $697 $700 forward $607 $-1 #
coedge $-1 $501 $699 $503 $610 forward $607 $-1 #
loop $-1 $-1 $606 $584 #
vertex $-1 $700 $701 #
straight-curve $-1 0 -26.158397393834967 -11.431236425727155 -1 0 0 I I #
edge $-1 $620 -26.158397393834967 $504 26.158397393834967 $503 $702 forward 7 unknown #
point $-1 59.562364574114198 -26.158397393834967 -11.431236425727155 #
plane-surface $-1 0 26.158397393834967 0 0 -1 0 0 0 -1 forward_v I I I I #
coedge $-1 $697 $510 $513 $618 forward $507 $-1 #
edge $-1 $615 -59.562364574114198 $703 -52.445076123985167 $602 $332 forward 7 unknown #
vertex $-1 $511 $704 #
straight-curve $-1 -59.562364574114198 0 11.431236425727155 0 -1 0 I I #
coedge $-1 $513 $512 $699 $705 reversed $514 $-1 #
edge $-1 $515 -11.431236425727155 $706 11.431236425727155 $513 $707 forward 7 unknown #
point $-1 -59.562364574114198 26.158397393834967 11.431236425727155 #
vertex $-1 $610 $708 #
straight-curve $-1 59.562364574114198 26.158397393834967 0 0 0 -1 I I #
plane-surface $-1 59.562364574114198 0 0 -1 0 0 0 0 1 forward_v I I I I #
face $-1 $709 $710 $19 $-1 $711 forward single #
loop $-1 $-1 $712 $520 #
plane-surface $-1 -39.99872868676426 -96.178157265045741 102.164406213319 -1 0 0 0 -0.5877852598018023 0.80901698891910034 forward_v I I I I #
loop $-1 $-1 $713 $426 #
coedge $-1 $627 $627 $628 $714 forward $521 $-1 #
coedge $-1 $628 $628 $627 $714 reversed $523 $-1 #
coedge $-1 $629 $629 $524 $630 forward $710 $-1 #
edge $-1 $715 3.648635851298499e-015 $715 6.283185307179604 $629 $716 forward 7 unknown #
coedge $-1 $525 $717 $712 $718 forward $334 $-1 #
coedge $-1 $719 $526 $525 $633 reversed $440 $-1 #
edge $-1 $720 -39.99872868676426 $529 39.998728686764252 $632 $541 forward 7 unknown #
vertex $-1 $533 $721 #
straight-curve $-1 39.998728686764252 -26.158397393834967 51.082203106659499 0 0 1 I I #
straight-curve $-1 39.998728686764252 -26.158397393834989 5.7904765320158731 0 0.80901698891910034 0.5877852598018023 I I #
point $-1 39.998728686764252 -26.158397393834967 11.431236425727155 #
point $-1 39.998728686764252 -18.394557609957623 11.431236425727155 #
straight-curve $-1 23.110951202687353 -26.158397393834967 5.7904765320158882 -1 0 0 I I #
coedge $-1 $535 $722 $723 $724 reversed $440 $-1 #
coedge $-1 $725 $538 $535 $642 forward $649 $-1 #
edge $-1 $540 -11.431236425727155 $726 11.431236425727155 $641 $727 forward 7 unknown #
face $-1 $728 $729 $19 $-1 $730 reversed single #
plane-surface $-1 0 -26.158397393834967 0 0 1 0 0 0 1 forward_v I I I I #
coedge $-1 $731 $537 $732 $733 forward $334 $-1 #
coedge $-1 $734 $735 $537 $647 reversed $736 $-1 #
edge $-1 $650 -59.562364574114198 $737 59.562364574114198 $646 $738 forward 7 unknown #
coedge $-1 $538 $725 $734 $739 reversed $649 $-1 #
loop $-1 $-1 $641 $740 #
vertex $-1 $539 $741 #
straight-curve $-1 59.562364574114198 0 11.431236425727155 0 1 0 I I #
point $-1 59.562364574114198 -26.158397393834967 11.431236425727155 #
straight-curve $-1 -59.562364574114198 26.158397393834967 0 0 0 -1 I I #
straight-curve $-1 -59.562364574114198 0 -11.431236425727155 0 1 0 I I #
point $-1 -59.562364574114198 -26.158397393834967 -11.431236425727155 #
point $-1 -59.562364574114198 26.158397393834967 -11.431236425727155 #
straight-curve $-1 -59.562364574114198 -26.158397393834967 0 0 0 -1 I I #
face $-1 $-1 $580 $17 $-1 $742 reversed single #
loop $-1 $-1 $675 $558 #
plane-surface $-1 0 26.158397393834967 0 0 -1 0 0 0 -1 forward_v I I I I #
coedge $-1 $743 $669 $676 $744 forward $559 $-1 #
coedge $-1 $562 $561 $743 $745 forward $378 $-1 #
edge $-1 $667 -59.562364574114198 $746 59.562364574114198 $574 $747 forward 7 unknown #
coedge $-1 $676 $675 $562 $665 reversed $659 $-1 #
edge $-1 $748 -59.562364574114198 $666 59.562364574114198 $664 $749 forward 7 unknown #
vertex $-1 $564 $750 #
vertex $-1 $576 $751 #
straight-curve $-1 59.562364574114198 0 -11.431236425727155 0 -1 0 I I #
coedge $-1 $661 $752 $565 $670 reversed $559 $-1 #
edge $-1 $677 -26.158397393834967 $672 26.158397393834967 $669 $753 forward 7 unknown #
coedge $-1 $574 $566 $752 $754 forward $391 $-1 #
vertex $-1 $670 $755 #
point $-1 -52.445076123985167 -26.158397393834967 5.7904765320158882 #
straight-curve $-1 59.562364574114198 -26.158397393834967 0 0 0 -1 I I #
coedge $-1 $664 $577 $579 $679 forward $659 $-1 #
coedge $-1 $577 $664 $661 $744 reversed $659 $-1 #
vertex $-1 $578 $756 #
straight-curve $-1 0 26.158397393834967 11.431236425727155 -1 0 0 I I #
edge $-1 $581 -11.431236425727155 $666 11.431236425727155 $579 $757 forward 7 unknown #
point $-1 59.562364574114198 26.158397393834967 11.431236425727155 #
plane-surface $-1 0 0 -11.431236425727155 0 0 1 1 0 0 forward_v I I I I #
coedge $-1 $758 $759 $594 $687 reversed $585 $-1 #
coedge $-1 $595 $693 $588 $684 reversed $587 $-1 #
edge $-1 $597 -9.5966338040074568 $695 -2.6120223451443757e-014 $588 $760 forward 7 unknown #
vertex $-1 $590 $761 #
point $-1 -45.221902405374713 -20.11810175709595 5.6401071841321695 #
edge $-1 $703 21.930681238687903 $689 29.694521022565247 $594 $762 forward 7 unknown #
coedge $-1 $693 $595 $759 $763 reversed $587 $-1 #
vertex $-1 $596 $764 #
straight-curve $-1 -23.110951202687357 -18.394557609957626 11.431236425727155 1 0 0 I I #
point $-1 -39.99872868676426 -18.394557609957623 11.431236425727155 #
coedge $-1 $602 $599 $758 $765 forward $242 $-1 #
coedge $-1 $683 $688 $599 $694 reversed $587 $-1 #
edge $-1 $695 16.887777484076903 $766 29.334124921297811 $599 $767 forward 7 unknown #
vertex $-1 $694 $768 #
straight-curve $-1 -39.99872868676426 -26.158397393834967 51.082203106659499 0 0 -1 I I #
coedge $-1 $603 $613 $605 $700 reversed $507 $-1 #
straight-curve $-1 -59.562364574114198 -26.158397393834967 0 0 0 -1 I I #
coedge $-1 $606 $605 $617 $705 forward $607 $-1 #
edge $-1 $608 -26.158397393834967 $706 26.158397393834967 $697 $769 forward 7 unknown #
point $-1 -59.562364574114198 -26.158397393834967 -11.431236425727155 #
straight-curve $-1 59.562364574114198 0 -11.431236425727155 0 -1 0 I I #
vertex $-1 $765 $770 #
point $-1 -59.562364574114198 -26.158397393834967 11.431236425727155 #
edge $-1 $706 -59.562364574114198 $620 59.562364574114198 $617 $771 forward 7 unknown #
vertex $-1 $705 $772 #
straight-curve $-1 -59.562364574114198 26.158397393834967 0 0 0 -1 I I #
point $-1 59.562364574114198 26.158397393834967 -11.431236425727155 #
face $-1 $773 $774 $19 $-1 $775 forward single #
loop $-1 $776 $629 $623 #
plane-surface $-1 -46.221902405374713 -26.158397393834989 5.7904765320158731 0 -0.5877852598018023 0.80901698891910034 1 0 0 forward_v I I I I #
coedge $-1 $777 $778 $631 $718 reversed $624 $-1 #
coedge $-1 $713 $713 $-1 $779 forward $626 $-1 #
edge $-1 $780 0 $780 6.2831853071796004 $627 $781 forward 7 unknown #
vertex $-1 $630 $782 #
ellipse-curve $-1 -46.221902405374713 -22.276477501896288 8.6108564788715256 0 0.5877852598018023 -0.80901698891910034 1 0 0 1 I I #
coedge $-1 $631 $783 $784 $785 forward $334 $-1 #
edge $-1 $786 -29.694521022565247 $720 -21.930681238687903 $631 $787 forward 7 unknown #
coedge $-1 $788 $632 $778 $789 forward $440 $-1 #
vertex $-1 $633 $790 #
point $-1 39.998728686764252 -26.158397393834967 5.7904765320158882 #
coedge $-1 $640 $791 $792 $793 forward $440 $-1 #
coedge $-1 $794 $795 $640 $724 forward $796 $-1 #
edge $-1 $726 -59.562364574114198 $797 59.562364574114198 $640 $798 forward 7 unknown #
coedge $-1 $648 $641 $795 $799 reversed $649 $-1 #
vertex $-1 $642 $800 #
straight-curve $-1 59.562364574114198 -26.158397393834967 0 0 0 -1 I I #
face $-1 $740 $736 $19 $-1 $801 reversed single #
loop $-1 $-1 $802 $643 #
plane-surface $-1 -59.562364574114198 0 0 1 0 0 0 0 -1 forward_v I I I I #
coedge $-1 $783 $645 $791 $803 forward $334 $-1 #
coedge $-1 $802 $792 $645 $733 reversed $729 $-1 #
edge $-1 $737 -26.158397393834967 $804 26.158397393834967 $732 $805 forward 7 unknown #
coedge $-1 $806 $646 $648 $739 forward $736 $-1 #
coedge $-1 $646 $806 $802 $807 reversed $736 $-1 #
loop $-1 $-1 $734 $728 #
vertex $-1 $647 $808 #
straight-curve $-1 0 26.158397393834967 11.431236425727155 -1 0 0 I I #
edge $-1 $650 -11.431236425727155 $809 11.431236425727155 $648 $810 forward 7 unknown #
face $-1 $-1 $649 $19 $-1 $811 reversed single #
point $-1 59.562364574114198 26.158397393834967 11.431236425727155 #
plane-surface $-1 59.562364574114198 0 0 -1 0 0 0 0 1 forward_v I I I I #
coedge $-1 $752 $661 $662 $745 reversed $559 $-1 #
edge $-1 $677 -11.431236425727155 $748 11.431236425727155 $676 $812 forward 7 unknown #
edge $-1 $746 -26.158397393834967 $748 26.158397393834967 $743 $813 forward 7 unknown #
vertex $-1 $745 $814 #
straight-curve $-1 0 -26.158397393834967 -11.431236425727155 -1 0 0 I I #
vertex $-1 $665 $815 #
straight-curve $-1 0 26.158397393834967 -11.431236425727155 1 0 0 I I #
point $-1 59.562364574114198 26.158397393834967 -11.431236425727155 #
point $-1 59.562364574114198 -26.158397393834967 -11.431236425727155 #
coedge $-1 $669 $743 $671 $754 reversed $559 $-1 #
straight-curve $-1 -59.562364574114198 0 11.431236425727155 0 -1 0 I I #
edge $-1 $672 -11.431236425727155 $746 11.431236425727155 $752 $816 forward 7 unknown #
point $-1 -59.562364574114198 -26.158397393834967 11.431236425727155 #
point $-1 -59.562364574114198 26.158397393834967 11.431236425727155 #
straight-curve $-1 59.562364574114198 26.158397393834967 0 0 0 -1 I I #
coedge $-1 $759 $682 $692 $765 reversed $585 $-1 #
coedge $-1 $682 $758 $688 $763 forward $585 $-1 #
straight-curve $-1 -39.99872868676426 -26.158397393834989 5.7904765320158731 0 -0.80901698891910034 -0.5877852598018023 I I #
point $-1 -46.221902405374713 -19.530316497294145 4.8310901952130685 #
straight-curve $-1 -52.445076123985167 -48.08907863252287 11.431236425727157 0 1 0 I I #
edge $-1 $766 2.6120223451443757e-014 $689 9.5966338040074568 $759 $817 forward 7 unknown #
point $-1 -52.445076123985167 -18.394557609957623 11.431236425727155 #
edge $-1 $766 -45.291726574643612 $703 -39.650966680932342 $692 $818 forward 7 unknown #
vertex $-1 $694 $819 #
straight-curve $-1 -23.110951202687357 -26.158397393834967 5.7904765320158882 -1 0 0 I I #
point $-1 -39.99872868676426 -26.158397393834967 5.7904765320158882 #
straight-curve $-1 -59.562364574114198 0 -11.431236425727155 0 1 0 I I #
point $-1 -52.445076123985167 -26.158397393834967 11.431236425727155 #
straight-curve $-1 0 26.158397393834967 -11.431236425727155 1 0 0 I I #
point $-1 -59.562364574114198 26.158397393834967 -11.431236425727155 #
face $-1 $536 $796 $19 $-1 $820 reversed single #
loop $-1 $-1 $821 $709 #
plane-surface $-1 -52.445076123985167 -96.178157265045741 102.164406213319 1 0 0 0 0.5877852598018023 -0.80901698891910034 forward_v I I I I #
loop $-1 $-1 $784 $623 #
coedge $-1 $778 $712 $822 $823 forward $624 $-1 #
coedge $-1 $712 $777 $719 $789 reversed $624 $-1 #
edge $-1 $824 1 $824 0 $713 $-1 forward 7 unknown #
vertex $-1 $714 $825 #
ellipse-curve $-1 -46.221902405374713 -20.11810175709595 5.6401071841321695 0 -0.5877852598018023 0.80901698891910034 1 0 0 1 I I #
point $-1 -45.221902405374713 -22.276477501896281 8.6108564788715096 #
coedge $-1 $717 $731 $821 $826 forward $334 $-1 #
coedge $-1 $827 $822 $717 $785 reversed $776 $-1 #
edge $-1 $828 -29.334124921297811 $786 -16.887777484076903 $717 $829 forward 7 unknown #
vertex $-1 $785 $830 #
straight-curve $-1 -39.99872868676426 -48.08907863252287 11.431236425727157 0 -1 0 I I #
coedge $-1 $831 $719 $832 $833 forward $440 $-1 #
edge $-1 $720 39.650966680932342 $834 45.291726574643612 $719 $835 forward 7 unknown #
point $-1 -39.99872868676426 -26.158397393834967 11.431236425727155 #
coedge $-1 $722 $831 $731 $803 reversed $440 $-1 #
coedge $-1 $732 $836 $722 $793 reversed $729 $-1 #
edge $-1 $804 -11.431236425727155 $797 11.431236425727155 $792 $837 forward 7 unknown #
coedge $-1 $838 $723 $836 $839 forward $796 $-1 #
coedge $-1 $723 $838 $725 $799 forward $796 $-1 #
loop $-1 $-1 $795 $773 #
vertex $-1 $839 $840 #
straight-curve $-1 0 -26.158397393834967 -11.431236425727155 -1 0 0 I I #
edge $-1 $809 -26.158397393834967 $726 26.158397393834967 $725 $841 forward 7 unknown #
point $-1 59.562364574114198 -26.158397393834967 -11.431236425727155 #
plane-surface $-1 0 26.158397393834967 0 0 -1 0 0 0 -1 forward_v I I I I #
coedge $-1 $836 $732 $735 $807 forward $729 $-1 #
edge $-1 $804 -59.562364574114198 $842 -52.445076123985167 $791 $541 forward 7 unknown #
vertex $-1 $733 $843 #
straight-curve $-1 -59.562364574114198 0 11.431236425727155 0 -1 0 I I #
coedge $-1 $735 $734 $838 $844 reversed $736 $-1 #
edge $-1 $737 -11.431236425727155 $845 11.431236425727155 $735 $846 forward 7 unknown #
point $-1 -59.562364574114198 26.158397393834967 11.431236425727155 #
vertex $-1 $799 $847 #
straight-curve $-1 59.562364574114198 26.158397393834967 0 0 0 -1 I I #
plane-surface $-1 59.562364574114198 0 0 -1 0 0 0 0 1 forward_v I I I I #
straight-curve $-1 -59.562364574114198 26.158397393834967 0 0 0 -1 I I #
straight-curve $-1 -59.562364574114198 0 -11.431236425727155 0 1 0 I I #
point $-1 -59.562364574114198 -26.158397393834967 -11.431236425727155 #
point $-1 -59.562364574114198 26.158397393834967 -11.431236425727155 #
straight-curve $-1 -59.562364574114198 -26.158397393834967 0 0 0 -1 I I #
straight-curve $-1 -52.445076123985167 -26.158397393834989 5.7904765320158731 0 0.80901698891910034 0.5877852598018023 I I #
straight-curve $-1 -52.445076123985167 -26.158397393834967 51.082203106659499 0 0 1 I I #
point $-1 -52.445076123985167 -26.158397393834967 5.7904765320158882 #
plane-surface $-1 0 0 -11.431236425727155 0 0 1 1 0 0 forward_v I I I I #
coedge $-1 $848 $849 $783 $826 reversed $774 $-1 #
coedge $-1 $784 $832 $777 $823 reversed $776 $-1 #
edge $-1 $786 -9.5966338040074568 $834 -2.6120223451443757e-014 $777 $850 forward 7 unknown #
vertex $-1 $779 $851 #
point $-1 -45.221902405374713 -20.11810175709595 5.6401071841321695 #
edge $-1 $842 21.930681238687903 $828 29.694521022565247 $783 $852 forward 7 unknown #
coedge $-1 $832 $784 $849 $853 reversed $776 $-1 #
vertex $-1 $785 $854 #
straight-curve $-1 -23.110951202687357 -18.394557609957626 11.431236425727155 1 0 0 I I #
point $-1 -39.99872868676426 -18.394557609957623 11.431236425727155 #
coedge $-1 $791 $788 $848 $855 forward $440 $-1 #
coedge $-1 $822 $827 $788 $833 reversed $776 $-1 #
edge $-1 $834 16.887777484076903 $856 29.334124921297811 $788 $857 forward 7 unknown #
vertex $-1 $833 $858 #
straight-curve $-1 -39.99872868676426 -26.158397393834967 51.082203106659499 0 0 -1 I I #
coedge $-1 $792 $802 $794 $839 reversed $729 $-1 #
straight-curve $-1 -59.562364574114198 -26.158397393834967 0 0 0 -1 I I #
coedge $-1 $795 $794 $806 $844 forward $796 $-1 #
edge $-1 $797 -26.158397393834967 $845 26.158397393834967 $836 $859 forward 7 unknown #
point $-1 -59.562364574114198 -26.158397393834967 -11.431236425727155 #
straight-curve $-1 59.562364574114198 0 -11.431236425727155 0 -1 0 I I #
vertex $-1 $855 $860 #
point $-1 -59.562364574114198 -26.158397393834967 11.431236425727155 #
edge $-1 $845 -59.562364574114198 $809 59.562364574114198 $806 $861 forward 7 unknown #
vertex $-1 $844 $862 #
straight-curve $-1 -59.562364574114198 26.158397393834967 0 0 0 -1 I I #
point $-1 59.562364574114198 26.158397393834967 -11.431236425727155 #
coedge $-1 $849 $821 $831 $855 reversed $774 $-1 #
coedge $-1 $821 $848 $827 $853 forward $774 $-1 #
straight-curve $-1 -39.99872868676426 -26.158397393834989 5.7904765320158731 0 -0.80901698891910034 -0.5877852598018023 I I #
point $-1 -46.221902405374713 -19.530316497294145 4.8310901952130685 #
straight-curve $-1 -52.445076123985167 -48.08907863252287 11.431236425727157 0 1 0 I I #
edge $-1 $856 2.6120223451443757e-014 $828 9.5966338040074568 $849 $863 forward 7 unknown #
point $-1 -52.445076123985167 -18.394557609957623 11.431236425727155 #
edge $-1 $856 -45.291726574643612 $842 -39.650966680932342 $831 $864 forward 7 unknown #
vertex $-1 $833 $865 #
straight-curve $-1 -23.110951202687357 -26.158397393834967 5.7904765320158882 -1 0 0 I I #
point $-1 -39.99872868676426 -26.158397393834967 5.7904765320158882 #
straight-curve $-1 -59.562364574114198 0 -11.431236425727155 0 1 0 I I #
point $-1 -52.445076123985167 -26.158397393834967 11.431236425727155 #
straight-curve $-1 0 26.158397393834967 -11.431236425727155 1 0 0 I I #
point $-1 -59.562364574114198 26.158397393834967 -11.431236425727155 #
straight-curve $-1 -52.445076123985167 -26.158397393834989 5.7904765320158731 0 0.80901698891910034 0.5877852598018023 I I #
straight-curve $-1 -52.445076123985167 -26.158397393834967 51.082203106659499 0 0 1 I I #
point $-1 -52.445076123985167 -26.158397393834967 5.7904765320158882 #
End-of-ACIS-data 