500 0 5 0           
7 Unknown 11 ACIS 5.0 NT 24 Fri Mar 26 00:19:10 1999 
-1 9.9999999999999995e-007 1e-010 
body $-1 $5 $-1 $6 #
body $-1 $7 $-1 $8 #
body $-1 $9 $-1 $10 #
body $-1 $11 $-1 $12 #
body $-1 $13 $-1 $14 #
lump $-1 $-1 $15 $0 #
transform $-1 1 0 0 0 1 0 0 0 1 63.71044038209174 31.801361760350844 11.333268893103455 1 rotate no_reflect no_shear #
lump $-1 $-1 $16 $1 #
transform $-1 1 0 0 0 1 0 0 0 1 63.71044038209174 31.801361760350844 11.333268893103455 1 rotate no_reflect no_shear #
lump $-1 $-1 $17 $2 #
transform $-1 1 0 0 0 1 0 0 0 1 63.71044038209174 31.801361760350844 11.333268893103455 1 rotate no_reflect no_shear #
lump $-1 $-1 $18 $3 #
transform $-1 1 0 0 0 1 0 0 0 1 63.71044038209174 31.801361760350844 11.333268893103455 1 rotate no_reflect no_shear #
lump $-1 $-1 $19 $4 #
transform $-1 1 0 0 0 1 0 0 0 1 63.71044038209174 31.801361760350844 11.333268893103455 1 rotate no_reflect no_shear #
shell $-1 $-1 $-1 $20 $-1 $5 #
shell $-1 $-1 $-1 $21 $-1 $7 #
shell $-1 $-1 $-1 $22 $-1 $9 #
shell $-1 $-1 $-1 $23 $-1 $11 #
shell $-1 $-1 $-1 $24 $-1 $13 #
face $-1 $25 $26 $15 $-1 $27 forward single #
face $-1 $28 $29 $16 $-1 $30 forward single #
face $-1 $31 $32 $17 $-1 $33 reversed single #
face $-1 $34 $35 $18 $-1 $36 forward single #
face $-1 $37 $38 $19 $-1 $39 forward single #
face $-1 $40 $41 $15 $-1 $42 reversed single #
loop $-1 $-1 $43 $20 #
plane-surface $-1 0 0 11.333268893103455 0 0 1 1 0 0 forward_v I I I I #
face $-1 $44 $45 $16 $-1 $46 reversed single #
loop $-1 $-1 $47 $21 #
plane-surface $-1 -58.590868673747472 0 3.4563304518003299 0 0 1 1 0 0 forward_v I I I I #
face $-1 $48 $49 $17 $-1 $50 reversed single #
loop $-1 $-1 $51 $22 #
plane-surface $-1 25.931106114061471 83.935002642708398 136.22199107682997 1 0 0 0 -0.74314483375859142 -0.66913059716165679 forward_v I I I I #
face $-1 $52 $53 $18 $-1 $54 forward single #
loop $-1 $55 $56 $23 #
cone-surface $-1 29.622267745910811 26.871646290556281 6.1716516895211955 0 -0.74314483375859142 -0.66913059716165679 1.5 0 0 1 I I 0 1 1.5 forward I I I I #
face $-1 $57 $58 $19 $-1 $59 forward single #
loop $-1 $60 $61 $24 #
cone-surface $-1 35.159010193684814 26.871646290556281 6.1716516895211955 0 -0.74314483375859142 -0.66913059716165679 1.5 0 0 1 I I 0 1 1.5 forward I I I I #
face $-1 $62 $63 $15 $-1 $64 reversed single #
loop $-1 $-1 $65 $25 #
plane-surface $-1 0 0 -11.333268893103455 0 0 1 1 0 0 forward_v I I I I #
coedge $-1 $66 $67 $68 $69 forward $26 $-1 #
face $-1 $70 $71 $16 $-1 $72 reversed single #
loop $-1 $-1 $73 $28 #
plane-surface $-1 -58.590868673747472 0 0.45633045180032994 0 0 1 1 0 0 forward_v I I I I #
coedge $-1 $74 $75 $76 $77 forward $29 $-1 #
face $-1 $78 $79 $17 $-1 $80 reversed single #
loop $-1 $-1 $81 $31 #
plane-surface $-1 32.390638969797813 -10.757166610164049 50.960781040227602 0 0.74314483375859142 0.66913059716165679 1 0 0 forward_v I I I I #
coedge $-1 $82 $83 $84 $85 reversed $32 $-1 #
face $-1 $-1 $86 $18 $-1 $87 forward single #
loop $-1 $88 $89 $34 #
cone-surface $-1 29.622267745910811 24.823450723353609 4.3274481631983726 0 -0.74314483375859142 -0.66913059716165679 0.75 0 0 1 I I -0.70710678118654757 0.70710678118654757 0.75 forward I I I I #
loop $-1 $-1 $90 $23 #
coedge $-1 $56 $56 $91 $92 reversed $35 $-1 #
face $-1 $-1 $93 $19 $-1 $94 forward single #
loop $-1 $95 $96 $37 #
cone-surface $-1 35.159010193684814 24.823450723353609 4.3274481631983726 0 -0.74314483375859142 -0.66913059716165679 0.75 0 0 1 I I -0.70710678118654757 0.70710678118654757 0.75 forward I I I I #
loop $-1 $-1 $97 $24 #
coedge $-1 $61 $61 $98 $99 reversed $38 $-1 #
face $-1 $100 $101 $15 $-1 $102 reversed single #
loop $-1 $-1 $103 $40 #
plane-surface $-1 0 -31.801361760350844 0 0 1 0 0 0 1 forward_v I I I I #
coedge $-1 $104 $105 $106 $107 forward $41 $-1 #
coedge $-1 $108 $43 $109 $110 forward $26 $-1 #
coedge $-1 $43 $108 $111 $112 forward $26 $-1 #
coedge $-1 $113 $114 $43 $69 reversed $115 $-1 #
edge $-1 $116 -31.801361760350844 $117 31.801361760350844 $68 $118 forward 7 unknown #
face $-1 $119 $120 $16 $-1 $121 reversed single #
loop $-1 $-1 $122 $44 #
plane-surface $-1 -53.471296965403205 0 1.9563304518003299 -1 0 0 0 0 1 forward_v I I I I #
coedge $-1 $123 $124 $125 $126 forward $45 $-1 #
coedge $-1 $127 $47 $128 $129 reversed $29 $-1 #
coedge $-1 $47 $127 $130 $131 reversed $29 $-1 #
coedge $-1 $122 $132 $47 $77 reversed $71 $-1 #
edge $-1 $133 -31.801361760350844 $134 31.801361760350844 $76 $135 forward 7 unknown #
face $-1 $136 $137 $17 $-1 $138 forward single #
loop $-1 $-1 $139 $48 #
plane-surface $-1 38.850171825534154 83.935002642708398 136.22199107682997 -1 0 0 0 0.74314483375859142 0.66913059716165679 forward_v I I I I #
coedge $-1 $140 $141 $142 $143 reversed $49 $-1 #
coedge $-1 $83 $51 $144 $145 reversed $32 $-1 #
coedge $-1 $51 $82 $140 $146 reversed $32 $-1 #
coedge $-1 $142 $147 $51 $85 forward $137 $-1 #
edge $-1 $148 10.166139561003355 $149 17.043896616825052 $84 $150 forward 7 unknown #
loop $-1 $-1 $91 $52 #
plane-surface $-1 32.390638969797813 -10.757166610164049 50.960781040227602 0 0.74314483375859142 0.66913059716165679 1 0 0 forward_v I I I I #
loop $-1 $-1 $151 $34 #
coedge $-1 $89 $89 $90 $152 reversed $53 $-1 #
coedge $-1 $90 $90 $89 $152 forward $55 $-1 #
coedge $-1 $91 $91 $56 $92 forward $86 $-1 #
edge $-1 $153 -4.3647449990900859e-016 $153 6.2831853071796004 $91 $154 forward 7 unknown #
loop $-1 $-1 $98 $57 #
plane-surface $-1 32.390638969797813 -10.757166610164049 50.960781040227602 0 0.74314483375859142 0.66913059716165679 1 0 0 forward_v I I I I #
loop $-1 $-1 $155 $37 #
coedge $-1 $96 $96 $97 $156 reversed $58 $-1 #
coedge $-1 $97 $97 $96 $156 forward $60 $-1 #
coedge $-1 $98 $98 $61 $99 forward $93 $-1 #
edge $-1 $157 -4.3647449990900859e-016 $157 6.2831853071796004 $98 $158 forward 7 unknown #
face $-1 $159 $160 $15 $-1 $161 reversed single #
loop $-1 $-1 $162 $62 #
plane-surface $-1 -63.71044038209174 0 0 1 0 0 0 0 -1 forward_v I I I I #
coedge $-1 $163 $111 $164 $165 forward $63 $-1 #
coedge $-1 $166 $65 $163 $167 forward $41 $-1 #
coedge $-1 $65 $166 $168 $169 forward $41 $-1 #
coedge $-1 $114 $113 $65 $107 reversed $115 $-1 #
edge $-1 $170 -31.801361760350844 $171 31.801361760350844 $106 $172 forward 7 unknown #
coedge $-1 $67 $66 $173 $174 forward $26 $-1 #
coedge $-1 $175 $176 $66 $110 reversed $160 $-1 #
edge $-1 $117 -63.71044038209174 $177 63.71044038209174 $109 $178 forward 7 unknown #
coedge $-1 $103 $179 $67 $112 reversed $63 $-1 #
edge $-1 $180 -63.71044038209174 $116 63.71044038209174 $111 $181 forward 7 unknown #
coedge $-1 $106 $68 $179 $182 forward $115 $-1 #
coedge $-1 $68 $106 $175 $183 reversed $115 $-1 #
loop $-1 $-1 $113 $159 #
vertex $-1 $69 $184 #
vertex $-1 $69 $185 #
straight-curve $-1 63.71044038209174 0 11.333268893103455 0 1 0 I I #
face $-1 $186 $187 $16 $-1 $188 reversed single #
loop $-1 $-1 $189 $70 #
plane-surface $-1 0 -31.801361760350844 0 0 1 0 0 0 1 forward_v I I I I #
coedge $-1 $125 $76 $190 $191 reversed $71 $-1 #
coedge $-1 $192 $73 $189 $193 reversed $45 $-1 #
coedge $-1 $73 $192 $194 $195 reversed $45 $-1 #
coedge $-1 $132 $122 $73 $126 reversed $71 $-1 #
edge $-1 $196 -31.801361760350844 $197 31.801361760350844 $125 $198 forward 7 unknown #
coedge $-1 $75 $74 $199 $200 reversed $29 $-1 #
coedge $-1 $201 $202 $74 $129 forward $203 $-1 #
edge $-1 $204 -34.415006045218007 $134 -24.175862628529469 $128 $205 forward 7 unknown #
coedge $-1 $206 $190 $75 $131 forward $120 $-1 #
edge $-1 $133 24.175862628529469 $207 34.415006045218007 $130 $208 forward 7 unknown #
coedge $-1 $76 $125 $201 $209 reversed $71 $-1 #
vertex $-1 $131 $210 #
vertex $-1 $129 $211 #
straight-curve $-1 -53.471296965403205 0 3.4563304518003299 0 1 0 I I #
face $-1 $-1 $212 $17 $-1 $213 reversed single #
loop $-1 $-1 $84 $78 #
plane-surface $-1 0 0 11.333268893103455 0 0 1 1 0 0 forward_v I I I I #
coedge $-1 $214 $215 $216 $217 reversed $79 $-1 #
coedge $-1 $218 $81 $83 $146 forward $49 $-1 #
coedge $-1 $81 $218 $214 $219 forward $49 $-1 #
coedge $-1 $216 $84 $81 $143 forward $137 $-1 #
edge $-1 $149 9.7357866291625648 $220 22.654852340635248 $142 $221 forward 7 unknown #
coedge $-1 $222 $223 $82 $145 forward $212 $-1 #
edge $-1 $224 -64.416249895572918 $148 -56.777726645311532 $144 $225 forward 7 unknown #
edge $-1 $149 53.324076743830311 $224 63.602723520701709 $83 $226 forward 7 unknown #
coedge $-1 $84 $216 $222 $227 forward $137 $-1 #
vertex $-1 $145 $228 #
vertex $-1 $85 $229 #
straight-curve $-1 25.931106114061471 41.967501321354199 11.333268893103451 0 -1 0 I I #
coedge $-1 $151 $151 $-1 $230 reversed $88 $-1 #
edge $-1 $231 0 $231 6.2831853071796004 $89 $232 forward 7 unknown #
vertex $-1 $92 $233 #
ellipse-curve $-1 29.622267745910811 28.362483232439992 7.514007267972759 0 0.74314483375859142 0.66913059716165679 1.5 0 0 1 I I #
coedge $-1 $155 $155 $-1 $234 reversed $95 $-1 #
edge $-1 $235 0 $235 6.2831853071796004 $96 $236 forward 7 unknown #
vertex $-1 $99 $237 #
ellipse-curve $-1 35.159010193684814 28.362483232439992 7.514007267972759 0 0.74314483375859142 0.66913059716165679 1.5 0 0 1 I I #
face $-1 $-1 $115 $15 $-1 $238 reversed single #
loop $-1 $-1 $175 $100 #
plane-surface $-1 0 31.801361760350844 0 0 -1 0 0 0 -1 forward_v I I I I #
coedge $-1 $239 $173 $176 $240 forward $101 $-1 #
coedge $-1 $179 $103 $104 $167 reversed $63 $-1 #
coedge $-1 $173 $239 $103 $165 reversed $101 $-1 #
edge $-1 $180 -11.333268893103455 $241 11.333268893103455 $164 $242 forward 7 unknown #
coedge $-1 $105 $104 $239 $243 forward $41 $-1 #
edge $-1 $171 -63.71044038209174 $241 63.71044038209174 $163 $244 forward 7 unknown #
coedge $-1 $176 $175 $105 $169 reversed $160 $-1 #
edge $-1 $245 -63.71044038209174 $170 63.71044038209174 $168 $246 forward 7 unknown #
vertex $-1 $107 $247 #
vertex $-1 $182 $248 #
straight-curve $-1 63.71044038209174 0 -11.333268893103455 0 -1 0 I I #
coedge $-1 $162 $164 $108 $174 reversed $101 $-1 #
edge $-1 $177 -31.801361760350844 $180 31.801361760350844 $173 $249 forward 7 unknown #
coedge $-1 $168 $109 $114 $183 forward $160 $-1 #
coedge $-1 $109 $168 $162 $240 reversed $160 $-1 #
vertex $-1 $110 $250 #
straight-curve $-1 0 31.801361760350844 11.333268893103455 -1 0 0 I I #
coedge $-1 $111 $163 $113 $182 reversed $63 $-1 #
vertex $-1 $174 $251 #
straight-curve $-1 0 -31.801361760350844 11.333268893103455 1 0 0 I I #
edge $-1 $116 -11.333268893103455 $171 11.333268893103455 $113 $252 forward 7 unknown #
edge $-1 $117 -11.333268893103455 $170 11.333268893103455 $114 $253 forward 7 unknown #
point $-1 63.71044038209174 -31.801361760350844 11.333268893103455 #
point $-1 63.71044038209174 31.801361760350844 11.333268893103455 #
face $-1 $-1 $203 $16 $-1 $254 reversed single #
loop $-1 $-1 $255 $119 #
plane-surface $-1 -63.71044038209174 0 0 1 0 0 0 0 -1 forward_v I I I I #
coedge $-1 $190 $206 $123 $193 forward $120 $-1 #
coedge $-1 $130 $189 $122 $191 forward $120 $-1 #
edge $-1 $197 -0.52183477409983503 $133 2.478165225900165 $190 $256 forward 7 unknown #
coedge $-1 $124 $123 $255 $257 reversed $45 $-1 #
edge $-1 $258 -34.415006045218007 $197 -24.175862628529469 $189 $259 forward 7 unknown #
coedge $-1 $202 $201 $124 $195 forward $203 $-1 #
edge $-1 $196 24.175862628529469 $260 34.415006045218007 $194 $261 forward 7 unknown #
vertex $-1 $195 $262 #
vertex $-1 $193 $263 #
straight-curve $-1 -53.471296965403205 0 0.45633045180032994 0 -1 0 I I #
coedge $-1 $264 $265 $127 $200 forward $187 $-1 #
edge $-1 $207 -31.801361760350844 $204 31.801361760350844 $199 $266 forward 7 unknown #
coedge $-1 $194 $128 $132 $209 forward $203 $-1 #
coedge $-1 $128 $194 $264 $267 reversed $203 $-1 #
loop $-1 $-1 $194 $186 #
vertex $-1 $267 $268 #
straight-curve $-1 -29.295434336873736 31.801361760350844 3.4563304518003299 1 0 0 I I #
coedge $-1 $189 $130 $265 $269 forward $120 $-1 #
vertex $-1 $269 $270 #
straight-curve $-1 -29.295434336873736 -31.801361760350844 3.4563304518003299 -1 0 0 I I #
edge $-1 $134 -2.478165225900165 $196 0.52183477409983503 $201 $271 forward 7 unknown #
point $-1 -53.471296965403205 -31.801361760350844 3.4563304518003299 #
point $-1 -53.471296965403205 31.801361760350844 3.4563304518003299 #
loop $-1 $-1 $144 $136 #
plane-surface $-1 0 31.801361760350844 0 0 -1 0 0 0 -1 forward_v I I I I #
coedge $-1 $215 $139 $141 $219 reversed $79 $-1 #
coedge $-1 $139 $214 $272 $273 reversed $79 $-1 #
coedge $-1 $147 $142 $139 $217 forward $137 $-1 #
edge $-1 $220 -17.043896616825052 $274 -10.166139561003355 $216 $275 forward 7 unknown #
coedge $-1 $141 $140 $223 $276 reversed $49 $-1 #
edge $-1 $277 -63.602723520701709 $220 -53.324076743830311 $214 $278 forward 7 unknown #
vertex $-1 $143 $279 #
straight-curve $-1 16.195319484898906 24.923604704529136 11.333268893103455 1 0 0 I I #
coedge $-1 $272 $144 $147 $227 reversed $212 $-1 #
coedge $-1 $144 $272 $218 $276 forward $212 $-1 #
vertex $-1 $145 $280 #
straight-curve $-1 25.931106114061471 31.801361760350844 68.110995538414983 0 0 1 I I #
straight-curve $-1 25.931106114061471 -10.757166610164049 50.960781040227602 0 0.66913059716165679 -0.74314483375859142 I I #
edge $-1 $274 -38.850171825534154 $148 -25.931106114061471 $222 $281 forward 7 unknown #
point $-1 25.931106114061471 31.801361760350844 11.333268893103455 #
point $-1 25.931106114061471 24.923604704529147 11.333268893103451 #
edge $-1 $282 1 $282 0 $151 $-1 forward 7 unknown #
vertex $-1 $152 $283 #
ellipse-curve $-1 29.622267745910811 25.380809348672553 4.8292961110696151 0 0.74314483375859142 0.66913059716165679 1.5 0 0 1 I I #
point $-1 31.122267745910811 28.36248323244001 7.5140072679727758 #
edge $-1 $284 1 $284 0 $155 $-1 forward 7 unknown #
vertex $-1 $156 $285 #
ellipse-curve $-1 35.159010193684814 25.380809348672553 4.8292961110696151 0 0.74314483375859142 0.66913059716165679 1.5 0 0 1 I I #
point $-1 36.659010193684814 28.36248323244001 7.5140072679727758 #
plane-surface $-1 63.71044038209174 0 0 -1 0 0 0 0 1 forward_v I I I I #
coedge $-1 $164 $162 $166 $243 reversed $101 $-1 #
edge $-1 $177 -11.333268893103455 $245 11.333268893103455 $176 $286 forward 7 unknown #
vertex $-1 $243 $287 #
straight-curve $-1 -63.71044038209174 -31.801361760350844 0 0 0 -1 I I #
edge $-1 $241 -31.801361760350844 $245 31.801361760350844 $239 $288 forward 7 unknown #
straight-curve $-1 0 -31.801361760350844 -11.333268893103455 -1 0 0 I I #
vertex $-1 $169 $289 #
straight-curve $-1 0 31.801361760350844 -11.333268893103455 1 0 0 I I #
point $-1 63.71044038209174 31.801361760350844 -11.333268893103455 #
point $-1 63.71044038209174 -31.801361760350844 -11.333268893103455 #
straight-curve $-1 -63.71044038209174 0 11.333268893103455 0 -1 0 I I #
point $-1 -63.71044038209174 31.801361760350844 11.333268893103455 #
point $-1 -63.71044038209174 -31.801361760350844 11.333268893103455 #
straight-curve $-1 63.71044038209174 -31.801361760350844 0 0 0 -1 I I #
straight-curve $-1 63.71044038209174 31.801361760350844 0 0 0 -1 I I #
plane-surface $-1 0 31.801361760350844 0 0 -1 0 0 0 -1 forward_v I I I I #
coedge $-1 $265 $264 $192 $257 forward $187 $-1 #
straight-curve $-1 -53.471296965403205 -31.801361760350844 0.97816522590016497 0 0 1 I I #
edge $-1 $260 -31.801361760350844 $258 31.801361760350844 $255 $290 forward 7 unknown #
vertex $-1 $193 $291 #
straight-curve $-1 -29.295434336873736 -31.801361760350844 0.45633045180032994 1 0 0 I I #
vertex $-1 $195 $292 #
straight-curve $-1 -29.295434336873736 31.801361760350844 0.45633045180032994 -1 0 0 I I #
point $-1 -53.471296965403205 31.801361760350844 0.45633045180032994 #
point $-1 -53.471296965403205 -31.801361760350844 0.45633045180032994 #
coedge $-1 $255 $199 $202 $267 forward $187 $-1 #
coedge $-1 $199 $255 $206 $269 reversed $187 $-1 #
straight-curve $-1 -63.71044038209174 0 3.4563304518003299 0 1 0 I I #
edge $-1 $204 -3.4563304518003299 $260 -0.45633045180032994 $202 $293 forward 7 unknown #
point $-1 -63.71044038209174 31.801361760350844 3.4563304518003299 #
edge $-1 $207 -3.4563304518003299 $258 -0.45633045180032994 $265 $294 forward 7 unknown #
point $-1 -63.71044038209174 -31.801361760350844 3.4563304518003299 #
straight-curve $-1 -53.471296965403205 31.801361760350844 0.97816522590016497 0 0 -1 I I #
coedge $-1 $223 $222 $215 $273 forward $212 $-1 #
edge $-1 $274 56.777726645311532 $277 64.416249895572918 $272 $295 forward 7 unknown #
vertex $-1 $227 $296 #
straight-curve $-1 38.850171825534154 41.967501321354199 11.333268893103451 0 1 0 I I #
edge $-1 $277 -22.654852340635248 $224 -9.7357866291625648 $223 $297 forward 7 unknown #
vertex $-1 $276 $298 #
straight-curve $-1 38.850171825534154 -10.757166610164049 50.960781040227602 0 -0.66913059716165679 0.74314483375859142 I I #
point $-1 38.850171825534154 24.923604704529147 11.333268893103451 #
point $-1 25.931106114061471 31.801361760350844 3.6947456428420722 #
straight-curve $-1 0 31.801361760350844 11.333268893103455 -1 0 0 I I #
vertex $-1 $230 $299 #
point $-1 31.122267745910811 25.380809348672553 4.8292961110696151 #
vertex $-1 $234 $300 #
point $-1 36.659010193684814 25.380809348672553 4.8292961110696151 #
straight-curve $-1 -63.71044038209174 31.801361760350844 0 0 0 -1 I I #
point $-1 -63.71044038209174 -31.801361760350844 -11.333268893103455 #
straight-curve $-1 -63.71044038209174 0 -11.333268893103455 0 1 0 I I #
point $-1 -63.71044038209174 31.801361760350844 -11.333268893103455 #
straight-curve $-1 -63.71044038209174 0 0.45633045180032994 0 -1 0 I I #
point $-1 -63.71044038209174 -31.801361760350844 0.45633045180032994 #
point $-1 -63.71044038209174 31.801361760350844 0.45633045180032994 #
straight-curve $-1 -63.71044038209174 31.801361760350844 0 0 0 -1 I I #
straight-curve $-1 -63.71044038209174 -31.801361760350844 0 0 0 -1 I I #
straight-curve $-1 38.850171825534154 31.801361760350844 68.110995538414983 0 0 -1 I I #
point $-1 38.850171825534154 31.801361760350844 11.333268893103455 #
straight-curve $-1 16.195319484898906 31.801361760350844 3.6947456428420722 -1 0 0 I I #
point $-1 38.850171825534154 31.801361760350844 3.6947456428420722 #
point $-1 29.622267745910811 24.266092098034665 3.82560021532713 #
point $-1 35.159010193684814 24.266092098034665 3.82560021532713 #
End-of-ACIS-data 