500 0 10 0           
7 Unknown 11 ACIS 5.0 NT 24 Thu Mar 25 18:29:03 1999 
-1 9.9999999999999995e-007 1e-010 
body $-1 $10 $-1 $11 #
body $-1 $12 $-1 $13 #
body $-1 $14 $-1 $15 #
body $-1 $16 $-1 $17 #
body $-1 $18 $-1 $19 #
body $-1 $20 $-1 $21 #
body $-1 $22 $-1 $23 #
body $-1 $24 $-1 $25 #
body $-1 $26 $-1 $27 #
body $-1 $28 $-1 $29 #
lump $-1 $-1 $30 $0 #
transform $-1 1 0 0 0 1 0 0 0 1 66.60359508041627 31.039873024522013 10.62310690852366 1 rotate no_reflect no_shear #
lump $-1 $-1 $31 $1 #
transform $-1 1 0 0 0 1 0 0 0 1 66.60359508041627 31.039873024522013 10.62310690852366 1 rotate no_reflect no_shear #
lump $-1 $-1 $32 $2 #
transform $-1 1 0 0 0 1 0 0 0 1 66.60359508041627 31.039873024522013 10.62310690852366 1 rotate no_reflect no_shear #
lump $-1 $-1 $33 $3 #
transform $-1 1 0 0 0 1 0 0 0 1 66.60359508041627 31.039873024522013 10.62310690852366 1 rotate no_reflect no_shear #
lump $-1 $-1 $34 $4 #
transform $-1 1 0 0 0 1 0 0 0 1 66.60359508041627 31.039873024522013 10.62310690852366 1 rotate no_reflect no_shear #
lump $-1 $-1 $35 $5 #
transform $-1 1 0 0 0 1 0 0 0 1 66.60359508041627 31.039873024522013 10.62310690852366 1 rotate no_reflect no_shear #
lump $-1 $-1 $36 $6 #
transform $-1 1 0 0 0 1 0 0 0 1 66.60359508041627 31.039873024522013 10.62310690852366 1 rotate no_reflect no_shear #
lump $-1 $-1 $37 $7 #
transform $-1 1 0 0 0 1 0 0 0 1 66.60359508041627 31.039873024522013 10.62310690852366 1 rotate no_reflect no_shear #
lump $-1 $-1 $38 $8 #
transform $-1 1 0 0 0 1 0 0 0 1 66.60359508041627 31.039873024522013 10.62310690852366 1 rotate no_reflect no_shear #
lump $-1 $-1 $39 $9 #
transform $-1 1 0 0 0 1 0 0 0 1 66.60359508041627 31.039873024522013 10.62310690852366 1 rotate no_reflect no_shear #
shell $-1 $-1 $-1 $40 $-1 $10 #
shell $-1 $-1 $-1 $41 $-1 $12 #
shell $-1 $-1 $-1 $42 $-1 $14 #
shell $-1 $-1 $-1 $43 $-1 $16 #
shell $-1 $-1 $-1 $44 $-1 $18 #
shell $-1 $-1 $-1 $45 $-1 $20 #
shell $-1 $-1 $-1 $46 $-1 $22 #
shell $-1 $-1 $-1 $47 $-1 $24 #
shell $-1 $-1 $-1 $48 $-1 $26 #
shell $-1 $-1 $-1 $49 $-1 $28 #
face $-1 $50 $51 $30 $-1 $52 forward single #
face $-1 $53 $54 $31 $-1 $55 forward single #
face $-1 $56 $57 $32 $-1 $58 forward single #
face $-1 $59 $60 $33 $-1 $61 reversed single #
face $-1 $62 $63 $34 $-1 $64 forward single #
face $-1 $65 $66 $35 $-1 $67 forward single #
face $-1 $68 $69 $36 $-1 $70 reversed single #
face $-1 $71 $72 $37 $-1 $73 forward single #
face $-1 $74 $75 $38 $-1 $76 forward single #
face $-1 $77 $78 $39 $-1 $79 forward single #
face $-1 $80 $81 $30 $-1 $82 reversed single #
loop $-1 $-1 $83 $40 #
plane-surface $-1 0 0 10.62310690852366 0 0 1 1 0 0 forward_v I I I I #
face $-1 $84 $85 $31 $-1 $86 reversed single #
loop $-1 $-1 $87 $41 #
plane-surface $-1 -66.60359508041627 0 0 1 0 0 0 0 -1 forward_v I I I I #
face $-1 $88 $89 $32 $-1 $90 forward single #
loop $-1 $-1 $91 $42 #
plane-surface $-1 66.60359508041627 0 0 -1 0 0 0 0 1 forward_v I I I I #
face $-1 $92 $93 $33 $-1 $94 reversed single #
loop $-1 $-1 $95 $43 #
plane-surface $-1 -40.573889890096041 93.178410974825326 138.3687083174805 1 0 0 0 -0.7660444514056185 -0.64278759981090561 forward_v I I I I #
face $-1 $96 $97 $34 $-1 $98 forward single #
loop $-1 $99 $100 $44 #
cone-surface $-1 -31.136097281460565 27.871243223645632 7.1602927050581844 0 -0.7660444514056185 -0.64278759981090561 1.5 0 0 1 I I 0 1 1.5 forward I I I I #
face $-1 $101 $102 $35 $-1 $103 forward single #
loop $-1 $104 $105 $45 #
cone-surface $-1 -16.979408368507343 27.871243223645632 7.1602927050581844 0 -0.7660444514056185 -0.64278759981090561 1.5 0 0 1 I I 0 1 1.5 forward I I I I #
face $-1 $106 $107 $36 $-1 $108 reversed single #
loop $-1 $-1 $109 $46 #
plane-surface $-1 -39.647710333497983 -141.47363967785611 76.241267747129257 -1 0 0 0 -0.82903758062907751 0.55919289150049634 forward_v I I I I #
face $-1 $110 $111 $37 $-1 $112 forward single #
loop $-1 $113 $114 $47 #
cone-surface $-1 -55.396120721688838 -27.221864567040775 5.6304867566694545 0 0.82903758062907751 -0.55919289150049634 1 0 0 1 I I 0 1 1 forward I I I I #
face $-1 $115 $116 $38 $-1 $117 forward single #
loop $-1 $118 $119 $48 #
cone-surface $-1 -49.490466826117263 -27.221864567040775 5.6304867566694545 0 0.82903758062907751 -0.55919289150049634 1 0 0 1 I I 0 1 1 forward I I I I #
face $-1 $120 $121 $39 $-1 $122 forward single #
loop $-1 $123 $124 $49 #
cone-surface $-1 -43.584812930545688 -27.221864567040775 5.6304867566694545 0 0.82903758062907751 -0.55919289150049634 1 0 0 1 I I 0 1 1 forward I I I I #
face $-1 $125 $126 $30 $-1 $127 reversed single #
loop $-1 $-1 $128 $50 #
plane-surface $-1 0 0 -10.62310690852366 0 0 1 1 0 0 forward_v I I I I #
coedge $-1 $129 $130 $131 $132 forward $51 $-1 #
face $-1 $133 $134 $31 $-1 $135 reversed single #
loop $-1 $-1 $136 $53 #
plane-surface $-1 0 31.039873024522013 0 0 -1 0 0 0 -1 forward_v I I I I #
coedge $-1 $137 $138 $139 $140 forward $54 $-1 #
face $-1 $141 $142 $32 $-1 $143 reversed single #
loop $-1 $-1 $144 $56 #
plane-surface $-1 0 0 10.62310690852366 0 0 1 1 0 0 forward_v I I I I #
coedge $-1 $145 $146 $147 $148 forward $57 $-1 #
face $-1 $149 $150 $33 $-1 $151 reversed single #
loop $-1 $-1 $152 $59 #
plane-surface $-1 -24.05775282498395 -8.8642179352135599 52.744778276444052 0 0.7660444514056185 0.64278759981090561 1 0 0 forward_v I I I I #
coedge $-1 $153 $154 $155 $156 reversed $60 $-1 #
face $-1 $-1 $157 $34 $-1 $158 forward single #
loop $-1 $159 $160 $62 #
cone-surface $-1 -31.136097281460565 26.407986572064321 5.9324746205443546 0 -0.7660444514056185 -0.64278759981090561 0.75 0 0 1 I I -0.70710678118654757 0.70710678118654757 0.75 forward I I I I #
loop $-1 $-1 $161 $44 #
coedge $-1 $100 $100 $162 $163 reversed $63 $-1 #
face $-1 $-1 $164 $35 $-1 $165 forward single #
loop $-1 $166 $167 $65 #
cone-surface $-1 -16.979408368507343 26.407986572064321 5.9324746205443546 0 -0.7660444514056185 -0.64278759981090561 0.75 0 0 1 I I -0.70710678118654757 0.70710678118654757 0.75 forward I I I I #
loop $-1 $-1 $168 $45 #
coedge $-1 $105 $105 $169 $170 reversed $66 $-1 #
face $-1 $171 $172 $36 $-1 $173 reversed single #
loop $-1 $-1 $174 $68 #
plane-surface $-1 -49.49046682611727 -31.039873024522052 1.7527539124368445 0 -0.82903758062907751 0.55919289150049634 1 0 0 forward_v I I I I #
coedge $-1 $175 $176 $177 $178 reversed $69 $-1 #
face $-1 $-1 $179 $37 $-1 $180 forward single #
loop $-1 $181 $182 $71 #
cone-surface $-1 -55.396120721688838 -25.980901547701347 4.7934466571084222 0 0.82903758062907751 -0.55919289150049634 0.5 0 0 1 I I -0.70710678118654746 0.70710678118654746 0.5 forward I I I I #
loop $-1 $-1 $183 $47 #
coedge $-1 $114 $114 $184 $185 reversed $72 $-1 #
face $-1 $-1 $186 $38 $-1 $187 forward single #
loop $-1 $188 $189 $74 #
cone-surface $-1 -49.490466826117263 -25.980901547701347 4.7934466571084222 0 0.82903758062907751 -0.55919289150049634 0.5 0 0 1 I I -0.70710678118654746 0.70710678118654746 0.5 forward I I I I #
loop $-1 $-1 $190 $48 #
coedge $-1 $119 $119 $191 $192 reversed $75 $-1 #
face $-1 $-1 $193 $39 $-1 $194 forward single #
loop $-1 $195 $196 $77 #
cone-surface $-1 -43.584812930545688 -25.980901547701347 4.7934466571084222 0 0.82903758062907751 -0.55919289150049634 0.5 0 0 1 I I -0.70710678118654746 0.70710678118654746 0.5 forward I I I I #
loop $-1 $-1 $197 $49 #
coedge $-1 $124 $124 $198 $199 reversed $78 $-1 #
face $-1 $200 $201 $30 $-1 $202 reversed single #
loop $-1 $-1 $203 $80 #
plane-surface $-1 0 -31.039873024522013 0 0 1 0 0 0 1 forward_v I I I I #
coedge $-1 $204 $205 $206 $207 forward $81 $-1 #
coedge $-1 $208 $83 $209 $210 forward $51 $-1 #
coedge $-1 $83 $208 $211 $212 forward $51 $-1 #
coedge $-1 $213 $214 $83 $132 reversed $215 $-1 #
edge $-1 $216 -31.039873024522013 $217 31.039873024522013 $131 $218 forward 7 unknown #
face $-1 $219 $220 $31 $-1 $221 reversed single #
loop $-1 $-1 $139 $84 #
plane-surface $-1 -70.238780961256126 0 4.3208264300680534 0 0 1 1 0 0 forward_v I I I I #
coedge $-1 $222 $223 $137 $224 forward $85 $-1 #
coedge $-1 $225 $87 $136 $224 reversed $54 $-1 #
coedge $-1 $87 $225 $226 $227 reversed $54 $-1 #
coedge $-1 $228 $229 $87 $140 reversed $134 $-1 #
edge $-1 $230 -31.039873024522013 $231 31.039873024522013 $139 $232 forward 7 unknown #
face $-1 $233 $234 $32 $-1 $235 reversed single #
loop $-1 $-1 $236 $88 #
plane-surface $-1 0 -31.039873024522013 0 0 1 0 0 0 1 forward_v I I I I #
coedge $-1 $237 $238 $239 $240 forward $89 $-1 #
coedge $-1 $239 $91 $236 $241 reversed $57 $-1 #
coedge $-1 $91 $239 $242 $243 reversed $57 $-1 #
coedge $-1 $244 $245 $91 $148 reversed $234 $-1 #
edge $-1 $246 -31.039873024522013 $247 31.039873024522013 $147 $248 forward 7 unknown #
face $-1 $249 $250 $33 $-1 $251 reversed single #
loop $-1 $-1 $252 $92 #
plane-surface $-1 -7.5416157598718563 93.178410974825326 138.3687083174805 -1 0 0 0 0.7660444514056185 0.64278759981090561 forward_v I I I I #
coedge $-1 $253 $254 $255 $256 reversed $93 $-1 #
coedge $-1 $154 $95 $257 $258 reversed $60 $-1 #
coedge $-1 $95 $153 $253 $259 reversed $60 $-1 #
coedge $-1 $255 $260 $95 $156 forward $261 $-1 #
edge $-1 $262 15.54933246289065 $263 20.109145438589231 $155 $264 forward 7 unknown #
loop $-1 $-1 $162 $96 #
plane-surface $-1 -24.05775282498395 -8.8642179352135599 52.744778276444052 0 0.7660444514056185 0.64278759981090561 1 0 0 forward_v I I I I #
loop $-1 $-1 $265 $62 #
coedge $-1 $160 $160 $161 $266 reversed $97 $-1 #
coedge $-1 $161 $161 $160 $266 forward $99 $-1 #
coedge $-1 $162 $162 $100 $163 forward $157 $-1 #
edge $-1 $267 -4.2220317181984483e-016 $267 6.2831853071796004 $162 $268 forward 7 unknown #
loop $-1 $-1 $169 $101 #
plane-surface $-1 -24.05775282498395 -8.8642179352135599 52.744778276444052 0 0.7660444514056185 0.64278759981090561 1 0 0 forward_v I I I I #
loop $-1 $-1 $269 $65 #
coedge $-1 $167 $167 $168 $270 reversed $102 $-1 #
coedge $-1 $168 $168 $167 $270 forward $104 $-1 #
coedge $-1 $169 $169 $105 $170 forward $164 $-1 #
edge $-1 $271 -4.2220317181984483e-016 $271 6.2831853071796004 $169 $272 forward 7 unknown #
face $-1 $273 $274 $36 $-1 $275 reversed single #
loop $-1 $-1 $276 $106 #
plane-surface $-1 -59.333223318736557 -141.47363967785611 76.241267747129257 1 0 0 0 0.82903758062907751 -0.55919289150049634 forward_v I I I I #
coedge $-1 $277 $278 $279 $280 reversed $107 $-1 #
coedge $-1 $176 $109 $281 $282 reversed $69 $-1 #
coedge $-1 $109 $175 $277 $283 reversed $69 $-1 #
coedge $-1 $279 $284 $109 $178 forward $285 $-1 #
edge $-1 $286 39.696946814406047 $287 45.680075271318685 $177 $288 forward 7 unknown #
loop $-1 $-1 $184 $110 #
plane-surface $-1 -49.49046682611727 -31.039873024522052 1.7527539124368445 0 -0.82903758062907751 0.55919289150049634 1 0 0 forward_v I I I I #
loop $-1 $-1 $289 $71 #
coedge $-1 $182 $182 $183 $290 reversed $111 $-1 #
coedge $-1 $183 $183 $182 $290 forward $113 $-1 #
coedge $-1 $184 $184 $114 $185 forward $179 $-1 #
edge $-1 $291 4.9950922312066831e-016 $291 6.2831853071796013 $184 $292 forward 7 unknown #
loop $-1 $-1 $191 $115 #
plane-surface $-1 -49.49046682611727 -31.039873024522052 1.7527539124368445 0 -0.82903758062907751 0.55919289150049634 1 0 0 forward_v I I I I #
loop $-1 $-1 $293 $74 #
coedge $-1 $189 $189 $190 $294 reversed $116 $-1 #
coedge $-1 $190 $190 $189 $294 forward $118 $-1 #
coedge $-1 $191 $191 $119 $192 forward $186 $-1 #
edge $-1 $295 4.9950922312066831e-016 $295 6.2831853071796013 $191 $296 forward 7 unknown #
loop $-1 $-1 $198 $120 #
plane-surface $-1 -49.49046682611727 -31.039873024522052 1.7527539124368445 0 -0.82903758062907751 0.55919289150049634 1 0 0 forward_v I I I I #
loop $-1 $-1 $297 $77 #
coedge $-1 $196 $196 $197 $298 reversed $121 $-1 #
coedge $-1 $197 $197 $196 $298 forward $123 $-1 #
coedge $-1 $198 $198 $124 $199 forward $193 $-1 #
edge $-1 $299 4.9950922312066831e-016 $299 6.2831853071796013 $198 $300 forward 7 unknown #
face $-1 $301 $302 $30 $-1 $303 reversed single #
loop $-1 $-1 $304 $125 #
plane-surface $-1 -66.60359508041627 0 0 1 0 0 0 0 -1 forward_v I I I I #
coedge $-1 $305 $211 $306 $307 forward $126 $-1 #
coedge $-1 $308 $128 $305 $309 forward $81 $-1 #
coedge $-1 $128 $308 $310 $311 forward $81 $-1 #
coedge $-1 $214 $213 $128 $207 reversed $215 $-1 #
edge $-1 $312 -31.039873024522013 $313 31.039873024522013 $206 $314 forward 7 unknown #
coedge $-1 $130 $129 $315 $316 forward $51 $-1 #
coedge $-1 $317 $318 $129 $210 reversed $302 $-1 #
edge $-1 $217 -66.60359508041627 $319 66.60359508041627 $209 $320 forward 7 unknown #
coedge $-1 $203 $321 $130 $212 reversed $126 $-1 #
edge $-1 $322 -66.60359508041627 $216 66.60359508041627 $211 $323 forward 7 unknown #
coedge $-1 $206 $131 $321 $324 forward $215 $-1 #
coedge $-1 $131 $206 $317 $325 reversed $215 $-1 #
loop $-1 $-1 $213 $301 #
vertex $-1 $132 $326 #
vertex $-1 $132 $327 #
straight-curve $-1 66.60359508041627 0 10.62310690852366 0 1 0 I I #
face $-1 $328 $329 $31 $-1 $330 forward single #
loop $-1 $-1 $331 $133 #
plane-surface $-1 -73.873966842095982 0 7.4719666692958562 1 0 0 0 0 -1 forward_v I I I I #
coedge $-1 $332 $136 $229 $333 reversed $85 $-1 #
coedge $-1 $136 $332 $334 $335 reversed $85 $-1 #
edge $-1 $336 -10.62310690852366 $231 -4.3208264300680534 $136 $337 forward 7 unknown #
coedge $-1 $138 $137 $338 $339 reversed $54 $-1 #
coedge $-1 $340 $341 $138 $227 forward $342 $-1 #
edge $-1 $230 4.3208264300680534 $343 10.62310690852366 $226 $344 forward 7 unknown #
coedge $-1 $345 $139 $341 $346 forward $134 $-1 #
coedge $-1 $139 $345 $222 $333 forward $134 $-1 #
vertex $-1 $227 $347 #
vertex $-1 $224 $348 #
straight-curve $-1 -66.60359508041627 0 4.3208264300680534 0 1 0 I I #
face $-1 $349 $350 $32 $-1 $351 reversed single #
loop $-1 $-1 $352 $141 #
plane-surface $-1 70.238780961256126 0 4.3208264300680534 0 0 1 1 0 0 forward_v I I I I #
coedge $-1 $353 $354 $145 $241 forward $142 $-1 #
coedge $-1 $355 $144 $354 $356 forward $89 $-1 #
coedge $-1 $144 $355 $357 $358 forward $89 $-1 #
coedge $-1 $146 $145 $144 $240 reversed $57 $-1 #
edge $-1 $359 -31.039873024522013 $360 31.039873024522013 $144 $361 forward 7 unknown #
edge $-1 $360 -10.62310690852366 $247 -4.3208264300680534 $236 $362 forward 7 unknown #
coedge $-1 $357 $363 $146 $243 forward $364 $-1 #
edge $-1 $246 4.3208264300680534 $359 10.62310690852366 $242 $365 forward 7 unknown #
coedge $-1 $352 $147 $363 $366 forward $234 $-1 #
coedge $-1 $147 $352 $353 $367 forward $234 $-1 #
vertex $-1 $243 $368 #
vertex $-1 $241 $369 #
straight-curve $-1 66.60359508041627 0 4.3208264300680534 0 -1 0 I I #
face $-1 $-1 $261 $33 $-1 $370 forward single #
loop $-1 $-1 $371 $149 #
plane-surface $-1 0 31.039873024522013 0 0 -1 0 0 0 -1 forward_v I I I I #
coedge $-1 $372 $373 $374 $375 reversed $150 $-1 #
coedge $-1 $376 $152 $154 $259 forward $93 $-1 #
coedge $-1 $152 $376 $372 $377 forward $93 $-1 #
coedge $-1 $374 $155 $152 $256 forward $261 $-1 #
edge $-1 $263 -28.545013477604066 $378 4.4872606526201189 $255 $379 forward 7 unknown #
coedge $-1 $380 $381 $153 $258 forward $250 $-1 #
edge $-1 $382 -63.995420887836254 $262 -58.561247250216589 $257 $383 forward 7 unknown #
edge $-1 $263 54.985936247734912 $382 62.079746049044054 $154 $384 forward 7 unknown #
coedge $-1 $155 $374 $380 $385 forward $261 $-1 #
loop $-1 $-1 $374 $249 #
vertex $-1 $258 $386 #
vertex $-1 $156 $387 #
straight-curve $-1 -40.573889890096041 46.589205487412663 10.62310690852366 0 -1 0 I I #
coedge $-1 $265 $265 $-1 $388 reversed $159 $-1 #
edge $-1 $389 0 $389 6.2831853071796004 $160 $390 forward 7 unknown #
vertex $-1 $163 $391 #
ellipse-curve $-1 -31.136097281460565 28.759966536672717 7.9060200897138238 0 0.7660444514056185 0.64278759981090561 1.5 0 0 1 I I #
coedge $-1 $269 $269 $-1 $392 reversed $166 $-1 #
edge $-1 $393 0 $393 6.2831853071796004 $167 $394 forward 7 unknown #
vertex $-1 $170 $395 #
ellipse-curve $-1 -16.979408368507343 28.759966536672717 7.9060200897138238 0 0.7660444514056185 0.64278759981090561 1.5 0 0 1 I I #
face $-1 $-1 $285 $36 $-1 $396 forward single #
loop $-1 $-1 $397 $171 #
plane-surface $-1 0 -31.039873024522013 0 0 1 0 0 0 1 forward_v I I I I #
coedge $-1 $398 $399 $400 $401 reversed $172 $-1 #
coedge $-1 $402 $174 $176 $283 forward $107 $-1 #
coedge $-1 $174 $402 $398 $403 forward $107 $-1 #
coedge $-1 $400 $177 $174 $280 forward $285 $-1 #
edge $-1 $287 14.902476920439348 $404 34.587989905677922 $279 $405 forward 7 unknown #
coedge $-1 $406 $407 $175 $282 forward $274 $-1 #
edge $-1 $408 -36.367879961127727 $286 -27.497526965040969 $281 $409 forward 7 unknown #
edge $-1 $287 -10.699578889241609 $408 -6.9898921639283483e-014 $176 $410 forward 7 unknown #
coedge $-1 $177 $400 $406 $411 forward $285 $-1 #
loop $-1 $-1 $400 $273 #
vertex $-1 $282 $412 #
vertex $-1 $178 $413 #
straight-curve $-1 -39.647710333497983 -70.736819838928056 10.62310690852366 0 1 0 I I #
coedge $-1 $289 $289 $-1 $414 reversed $181 $-1 #
edge $-1 $415 0 $415 6.2831853071796004 $182 $416 forward 7 unknown #
vertex $-1 $185 $417 #
ellipse-curve $-1 -55.396120721688838 -28.048308796065701 6.1879304104802646 0 -0.82903758062907751 0.55919289150049634 1 0 0 1 I I #
coedge $-1 $293 $293 $-1 $418 reversed $188 $-1 #
edge $-1 $419 0 $419 6.2831853071796004 $189 $420 forward 7 unknown #
vertex $-1 $192 $421 #
ellipse-curve $-1 -49.490466826117263 -28.048308796065701 6.1879304104802646 0 -0.82903758062907751 0.55919289150049634 1 0 0 1 I I #
coedge $-1 $297 $297 $-1 $422 reversed $195 $-1 #
edge $-1 $423 0 $423 6.2831853071796004 $196 $424 forward 7 unknown #
vertex $-1 $199 $425 #
ellipse-curve $-1 -43.584812930545688 -28.048308796065701 6.1879304104802646 0 -0.82903758062907751 0.55919289150049634 1 0 0 1 I I #
face $-1 $-1 $215 $30 $-1 $426 reversed single #
loop $-1 $-1 $317 $200 #
plane-surface $-1 0 31.039873024522013 0 0 -1 0 0 0 -1 forward_v I I I I #
coedge $-1 $427 $315 $318 $428 forward $201 $-1 #
coedge $-1 $321 $203 $204 $309 reversed $126 $-1 #
coedge $-1 $315 $427 $203 $307 reversed $201 $-1 #
edge $-1 $322 -10.62310690852366 $429 10.62310690852366 $306 $430 forward 7 unknown #
coedge $-1 $205 $204 $427 $431 forward $81 $-1 #
edge $-1 $313 -66.60359508041627 $429 66.60359508041627 $305 $432 forward 7 unknown #
coedge $-1 $318 $317 $205 $311 reversed $302 $-1 #
edge $-1 $433 -66.60359508041627 $312 66.60359508041627 $310 $434 forward 7 unknown #
vertex $-1 $207 $435 #
vertex $-1 $324 $436 #
straight-curve $-1 66.60359508041627 0 -10.62310690852366 0 -1 0 I I #
coedge $-1 $304 $306 $208 $316 reversed $201 $-1 #
edge $-1 $319 -31.039873024522013 $322 31.039873024522013 $315 $437 forward 7 unknown #
coedge $-1 $310 $209 $214 $325 forward $302 $-1 #
coedge $-1 $209 $310 $304 $428 reversed $302 $-1 #
vertex $-1 $210 $438 #
straight-curve $-1 0 31.039873024522013 10.62310690852366 -1 0 0 I I #
coedge $-1 $211 $305 $213 $324 reversed $126 $-1 #
vertex $-1 $316 $439 #
straight-curve $-1 0 -31.039873024522013 10.62310690852366 1 0 0 I I #
edge $-1 $216 -10.62310690852366 $313 10.62310690852366 $213 $440 forward 7 unknown #
edge $-1 $217 -10.62310690852366 $312 10.62310690852366 $214 $441 forward 7 unknown #
point $-1 66.60359508041627 -31.039873024522013 10.62310690852366 #
point $-1 66.60359508041627 31.039873024522013 10.62310690852366 #
face $-1 $-1 $342 $31 $-1 $442 reversed single #
loop $-1 $-1 $338 $219 #
plane-surface $-1 0 0 10.62310690852366 0 0 1 1 0 0 forward_v I I I I #
coedge $-1 $443 $444 $332 $445 forward $220 $-1 #
coedge $-1 $223 $222 $331 $445 reversed $85 $-1 #
edge $-1 $446 -3.6351858808398561 $231 3.6351858808398561 $222 $447 forward 7 unknown #
coedge $-1 $448 $338 $223 $335 forward $329 $-1 #
edge $-1 $336 66.60359508041627 $449 73.873966842095982 $223 $450 forward 7 unknown #
vertex $-1 $335 $451 #
straight-curve $-1 -66.60359508041627 31.039873024522013 0 0 0 -1 I I #
coedge $-1 $334 $452 $225 $339 forward $329 $-1 #
edge $-1 $343 -31.039873024522013 $336 31.039873024522013 $338 $453 forward 7 unknown #
coedge $-1 $454 $226 $452 $455 reversed $342 $-1 #
coedge $-1 $226 $454 $228 $346 reversed $342 $-1 #
loop $-1 $-1 $226 $328 #
vertex $-1 $227 $456 #
straight-curve $-1 -66.60359508041627 -31.039873024522013 0 0 0 1 I I #
coedge $-1 $229 $228 $443 $457 forward $134 $-1 #
edge $-1 $230 -3.6351858808398561 $458 3.6351858808398561 $341 $459 forward 7 unknown #
point $-1 -66.60359508041627 -31.039873024522013 4.3208264300680534 #
point $-1 -66.60359508041627 31.039873024522013 4.3208264300680534 #
face $-1 $-1 $364 $32 $-1 $460 reversed single #
loop $-1 $-1 $461 $233 #
plane-surface $-1 73.873966842095982 0 7.4719666692958562 -1 0 0 0 0 1 forward_v I I I I #
coedge $-1 $245 $244 $462 $463 forward $234 $-1 #
coedge $-1 $464 $236 $245 $367 reversed $142 $-1 #
coedge $-1 $236 $464 $237 $356 reversed $142 $-1 #
coedge $-1 $238 $237 $465 $466 forward $89 $-1 #
edge $-1 $360 -3.6351858808398561 $467 3.6351858808398561 $354 $468 forward 7 unknown #
coedge $-1 $469 $242 $238 $358 reversed $364 $-1 #
edge $-1 $470 -73.873966842095982 $359 -66.60359508041627 $357 $471 forward 7 unknown #
vertex $-1 $243 $472 #
vertex $-1 $356 $473 #
straight-curve $-1 66.60359508041627 0 10.62310690852366 0 -1 0 I I #
straight-curve $-1 66.60359508041627 -31.039873024522013 0 0 0 -1 I I #
coedge $-1 $242 $469 $244 $366 reversed $364 $-1 #
loop $-1 $-1 $242 $349 #
straight-curve $-1 66.60359508041627 31.039873024522013 0 0 0 1 I I #
edge $-1 $246 -3.6351858808398561 $474 3.6351858808398561 $363 $475 forward 7 unknown #
edge $-1 $476 -3.6351858808398561 $247 3.6351858808398561 $353 $477 forward 7 unknown #
point $-1 66.60359508041627 31.039873024522013 4.3208264300680534 #
point $-1 66.60359508041627 -31.039873024522013 4.3208264300680534 #
plane-surface $-1 0 0 10.62310690852366 0 0 1 1 0 0 forward_v I I I I #
coedge $-1 $381 $380 $373 $478 forward $250 $-1 #
coedge $-1 $373 $252 $254 $377 reversed $150 $-1 #
coedge $-1 $252 $372 $371 $478 reversed $150 $-1 #
coedge $-1 $260 $255 $252 $375 forward $261 $-1 #
edge $-1 $378 -20.109145438589231 $479 -15.54933246289065 $374 $480 forward 7 unknown #
coedge $-1 $254 $253 $381 $481 reversed $93 $-1 #
edge $-1 $482 -62.079746049044054 $378 -54.985936247734912 $372 $483 forward 7 unknown #
vertex $-1 $256 $484 #
straight-curve $-1 -12.028876412491975 26.480060048823425 10.62310690852366 1 0 0 I I #
coedge $-1 $371 $257 $260 $385 reversed $250 $-1 #
coedge $-1 $257 $371 $376 $481 forward $250 $-1 #
vertex $-1 $258 $485 #
straight-curve $-1 -40.573889890096041 31.039873024522013 69.184354158740248 0 0 1 I I #
straight-curve $-1 -40.573889890096041 -8.8642179352135599 52.744778276444052 0 0.64278759981090561 -0.7660444514056185 I I #
edge $-1 $479 7.5416157598718563 $262 40.573889890096041 $380 $486 forward 7 unknown #
point $-1 -40.573889890096041 31.039873024522013 10.62310690852366 #
point $-1 -40.573889890096041 26.480060048823432 10.62310690852366 #
edge $-1 $487 1 $487 0 $265 $-1 forward 7 unknown #
vertex $-1 $266 $488 #
ellipse-curve $-1 -31.136097281460565 26.982519910618535 6.4145653204025335 0 0.7660444514056185 0.64278759981090561 1.5 0 0 1 I I #
point $-1 -29.636097281460565 28.759966536672728 7.9060200897138335 #
edge $-1 $489 1 $489 0 $269 $-1 forward 7 unknown #
vertex $-1 $270 $490 #
ellipse-curve $-1 -16.979408368507343 26.982519910618535 6.4145653204025335 0 0.7660444514056185 0.64278759981090561 1.5 0 0 1 I I #
point $-1 -15.479408368507343 28.759966536672728 7.9060200897138335 #
plane-surface $-1 0 0 10.62310690852366 0 0 1 1 0 0 forward_v I I I I #
coedge $-1 $407 $406 $399 $491 forward $274 $-1 #
coedge $-1 $399 $276 $278 $403 reversed $172 $-1 #
coedge $-1 $276 $398 $397 $491 reversed $172 $-1 #
coedge $-1 $284 $279 $276 $401 forward $285 $-1 #
edge $-1 $404 -45.680075271318685 $492 -39.696946814406047 $400 $493 forward 7 unknown #
coedge $-1 $278 $277 $407 $494 reversed $107 $-1 #
edge $-1 $495 6.9898921639283483e-014 $404 10.699578889241609 $398 $496 forward 7 unknown #
vertex $-1 $280 $497 #
straight-curve $-1 -24.745233413058635 -25.056744567609368 10.62310690852366 -1 0 0 I I #
coedge $-1 $397 $281 $284 $411 reversed $274 $-1 #
coedge $-1 $281 $397 $402 $494 forward $274 $-1 #
vertex $-1 $282 $498 #
straight-curve $-1 -39.647710333497983 -31.039873024522009 38.120633873564628 0 0 1 I I #
straight-curve $-1 -39.647710333497983 -31.039873024522052 1.7527539124368445 0 -0.55919289150049634 -0.82903758062907751 I I #
edge $-1 $492 -129.57200427999268 $286 -109.88649129475411 $406 $499 forward 7 unknown #
point $-1 -39.647710333497983 -31.039873024522013 10.62310690852366 #
point $-1 -39.647710333497983 -25.056744567609368 10.62310690852366 #
edge $-1 $500 1 $500 0 $289 $-1 forward 7 unknown #
vertex $-1 $290 $501 #
ellipse-curve $-1 -55.396120721688838 -26.395420338015885 5.0730431028586702 0 -0.82903758062907751 0.55919289150049634 1 0 0 1 I I #
point $-1 -54.396120721688838 -28.048308796065662 6.1879304104802388 #
edge $-1 $502 1 $502 0 $293 $-1 forward 7 unknown #
vertex $-1 $294 $503 #
ellipse-curve $-1 -49.490466826117263 -26.395420338015885 5.0730431028586702 0 -0.82903758062907751 0.55919289150049634 1 0 0 1 I I #
point $-1 -48.490466826117263 -28.048308796065662 6.1879304104802388 #
edge $-1 $504 1 $504 0 $297 $-1 forward 7 unknown #
vertex $-1 $298 $505 #
ellipse-curve $-1 -43.584812930545688 -26.395420338015885 5.0730431028586702 0 -0.82903758062907751 0.55919289150049634 1 0 0 1 I I #
point $-1 -42.584812930545688 -28.048308796065662 6.1879304104802388 #
plane-surface $-1 66.60359508041627 0 0 -1 0 0 0 0 1 forward_v I I I I #
coedge $-1 $306 $304 $308 $431 reversed $201 $-1 #
edge $-1 $319 -10.62310690852366 $433 10.62310690852366 $318 $506 forward 7 unknown #
vertex $-1 $431 $507 #
straight-curve $-1 -66.60359508041627 -31.039873024522013 0 0 0 -1 I I #
edge $-1 $429 -31.039873024522013 $433 31.039873024522013 $427 $508 forward 7 unknown #
straight-curve $-1 0 -31.039873024522013 -10.62310690852366 -1 0 0 I I #
vertex $-1 $311 $509 #
straight-curve $-1 0 31.039873024522013 -10.62310690852366 1 0 0 I I #
point $-1 66.60359508041627 31.039873024522013 -10.62310690852366 #
point $-1 66.60359508041627 -31.039873024522013 -10.62310690852366 #
straight-curve $-1 -66.60359508041627 0 10.62310690852366 0 -1 0 I I #
point $-1 -66.60359508041627 31.039873024522013 10.62310690852366 #
point $-1 -66.60359508041627 -31.039873024522013 10.62310690852366 #
straight-curve $-1 66.60359508041627 -31.039873024522013 0 0 0 -1 I I #
straight-curve $-1 66.60359508041627 31.039873024522013 0 0 0 -1 I I #
plane-surface $-1 0 -31.039873024522013 0 0 1 0 0 0 1 forward_v I I I I #
coedge $-1 $510 $331 $345 $457 reversed $220 $-1 #
coedge $-1 $331 $510 $448 $511 reversed $220 $-1 #
edge $-1 $449 -3.1511402392278036 $446 3.1511402392278027 $332 $512 forward 7 unknown #
vertex $-1 $333 $513 #
straight-curve $-1 -70.238780961256126 31.039873024522013 4.3208264300680534 1 0 0 I I #
coedge $-1 $452 $334 $444 $511 forward $329 $-1 #
vertex $-1 $335 $514 #
straight-curve $-1 0 31.039873024522013 10.62310690852366 -1 0 0 I I #
point $-1 -66.60359508041627 31.039873024522013 10.62310690852366 #
coedge $-1 $338 $448 $340 $455 forward $329 $-1 #
straight-curve $-1 -66.60359508041627 0 10.62310690852366 0 1 0 I I #
coedge $-1 $341 $340 $510 $515 forward $342 $-1 #
edge $-1 $516 -73.873966842095982 $343 -66.60359508041627 $340 $517 forward 7 unknown #
point $-1 -66.60359508041627 -31.039873024522013 10.62310690852366 #
edge $-1 $458 -31.039873024522013 $446 31.039873024522013 $443 $518 forward 7 unknown #
vertex $-1 $457 $519 #
straight-curve $-1 -70.238780961256126 -31.039873024522013 4.3208264300680534 -1 0 0 I I #
plane-surface $-1 0 31.039873024522013 0 0 -1 0 0 0 -1 forward_v I I I I #
coedge $-1 $462 $465 $464 $520 forward $350 $-1 #
coedge $-1 $521 $461 $352 $463 reversed $350 $-1 #
edge $-1 $474 -31.039873024522013 $476 31.039873024522013 $462 $522 forward 7 unknown #
coedge $-1 $354 $353 $461 $520 reversed $142 $-1 #
coedge $-1 $461 $521 $355 $466 reversed $350 $-1 #
edge $-1 $467 -31.039873024522013 $470 31.039873024522013 $465 $523 forward 7 unknown #
vertex $-1 $466 $524 #
straight-curve $-1 70.238780961256126 -31.039873024522013 10.62310690852366 1 0 0 I I #
coedge $-1 $363 $357 $521 $525 forward $364 $-1 #
vertex $-1 $466 $526 #
straight-curve $-1 0 31.039873024522013 10.62310690852366 -1 0 0 I I #
point $-1 66.60359508041627 31.039873024522013 10.62310690852366 #
point $-1 66.60359508041627 -31.039873024522013 10.62310690852366 #
vertex $-1 $463 $527 #
straight-curve $-1 70.238780961256126 31.039873024522013 4.3208264300680534 1 0 0 I I #
vertex $-1 $520 $528 #
straight-curve $-1 70.238780961256126 -31.039873024522013 4.3208264300680534 -1 0 0 I I #
edge $-1 $479 58.561247250216589 $482 63.995420887836254 $371 $529 forward 7 unknown #
vertex $-1 $385 $530 #
straight-curve $-1 -7.5416157598718563 46.589205487412663 10.62310690852366 0 1 0 I I #
edge $-1 $482 -4.4872606526201189 $382 28.545013477604066 $381 $531 forward 7 unknown #
vertex $-1 $481 $532 #
straight-curve $-1 -7.5416157598718563 -8.8642179352135599 52.744778276444052 0 -0.64278759981090561 0.7660444514056185 I I #
point $-1 -7.5416157598718563 26.480060048823432 10.62310690852366 #
point $-1 -40.573889890096041 31.039873024522009 5.1889332709039948 #
straight-curve $-1 0 31.039873024522013 10.62310690852366 -1 0 0 I I #
vertex $-1 $388 $533 #
point $-1 -29.636097281460565 26.982519910618535 6.4145653204025335 #
vertex $-1 $392 $534 #
point $-1 -15.479408368507343 26.982519910618535 6.4145653204025335 #
edge $-1 $492 27.497526965040969 $495 36.367879961127727 $397 $535 forward 7 unknown #
vertex $-1 $411 $536 #
straight-curve $-1 -59.333223318736557 -70.736819838928056 10.62310690852366 0 -1 0 I I #
edge $-1 $495 -34.587989905677922 $408 -14.902476920439348 $407 $537 forward 7 unknown #
vertex $-1 $494 $538 #
straight-curve $-1 -59.333223318736557 -31.039873024522052 1.7527539124368445 0 0.55919289150049634 0.82903758062907751 I I #
point $-1 -59.333223318736557 -25.056744567609368 10.62310690852366 #
point $-1 -39.647710333497983 -31.039873024522013 1.7527539124369025 #
straight-curve $-1 70.238780961256126 -31.039873024522013 10.62310690852366 1 0 0 I I #
vertex $-1 $414 $539 #
point $-1 -54.396120721688838 -26.395420338015885 5.0730431028586702 #
vertex $-1 $418 $540 #
point $-1 -48.490466826117263 -26.395420338015885 5.0730431028586702 #
vertex $-1 $422 $541 #
point $-1 -42.584812930545688 -26.395420338015885 5.0730431028586702 #
straight-curve $-1 -66.60359508041627 31.039873024522013 0 0 0 -1 I I #
point $-1 -66.60359508041627 -31.039873024522013 -10.62310690852366 #
straight-curve $-1 -66.60359508041627 0 -10.62310690852366 0 1 0 I I #
point $-1 -66.60359508041627 31.039873024522013 -10.62310690852366 #
coedge $-1 $444 $443 $454 $515 reversed $220 $-1 #
edge $-1 $449 -31.039873024522013 $516 31.039873024522013 $444 $542 forward 7 unknown #
straight-curve $-1 -73.873966842095982 31.039873024522013 7.4719666692958562 0 0 -1 I I #
point $-1 -73.873966842095982 31.039873024522013 4.3208264300680534 #
point $-1 -73.873966842095982 31.039873024522013 10.62310690852366 #
edge $-1 $516 -3.1511402392278036 $458 3.1511402392278027 $510 $543 forward 7 unknown #
vertex $-1 $511 $544 #
straight-curve $-1 0 -31.039873024522013 10.62310690852366 1 0 0 I I #
straight-curve $-1 -73.873966842095982 0 4.3208264300680534 0 1 0 I I #
point $-1 -73.873966842095982 -31.039873024522013 4.3208264300680534 #
edge $-1 $467 -3.1511402392278036 $476 3.1511402392278027 $461 $545 forward 7 unknown #
coedge $-1 $465 $462 $469 $525 reversed $350 $-1 #
straight-curve $-1 73.873966842095982 0 4.3208264300680534 0 -1 0 I I #
straight-curve $-1 73.873966842095982 0 10.62310690852366 0 1 0 I I #
point $-1 73.873966842095982 -31.039873024522013 10.62310690852366 #
edge $-1 $470 -3.1511402392278036 $474 3.1511402392278027 $521 $546 forward 7 unknown #
point $-1 73.873966842095982 31.039873024522013 10.62310690852366 #
point $-1 73.873966842095982 31.039873024522013 4.3208264300680534 #
point $-1 73.873966842095982 -31.039873024522013 4.3208264300680534 #
straight-curve $-1 -7.5416157598718563 31.039873024522013 69.184354158740248 0 0 -1 I I #
point $-1 -7.5416157598718563 31.039873024522013 10.62310690852366 #
straight-curve $-1 -12.028876412491975 31.039873024522009 5.1889332709040019 -1 0 0 I I #
point $-1 -7.5416157598718563 31.039873024522009 5.1889332709039948 #
point $-1 -31.136097281460565 25.833453233510106 5.4503839206861757 #
point $-1 -16.979408368507343 25.833453233510106 5.4503839206861757 #
straight-curve $-1 -59.333223318736557 -31.039873024522009 38.120633873564628 0 0 -1 I I #
point $-1 -59.333223318736557 -31.039873024522013 10.62310690852366 #
straight-curve $-1 -24.745233413058635 -31.039873024522013 1.7527539124368987 1 0 0 I I #
point $-1 -59.333223318736557 -31.039873024522013 1.7527539124369025 #
point $-1 -55.396120721688838 -25.566382757386808 4.5138502113581742 #
point $-1 -49.490466826117263 -25.566382757386808 4.5138502113581742 #
point $-1 -43.584812930545688 -25.566382757386808 4.5138502113581742 #
straight-curve $-1 -73.873966842095982 0 10.62310690852366 0 -1 0 I I #
straight-curve $-1 -73.873966842095982 -31.039873024522013 7.4719666692958562 0 0 -1 I I #
point $-1 -73.873966842095982 -31.039873024522013 10.62310690852366 #
straight-curve $-1 73.873966842095982 -31.039873024522013 7.4719666692958562 0 0 -1 I I #
straight-curve $-1 73.873966842095982 31.039873024522013 7.4719666692958562 0 0 -1 I I #
End-of-ACIS-data 