500 0 6 0           
7 Unknown 11 ACIS 5.0 NT 24 Fri Mar 26 02:05:59 1999 
-1 9.9999999999999995e-007 1e-010 
body $-1 $6 $-1 $7 #
body $-1 $8 $-1 $9 #
body $-1 $10 $-1 $11 #
body $-1 $12 $-1 $13 #
body $-1 $14 $-1 $15 #
body $-1 $16 $-1 $17 #
lump $-1 $-1 $18 $0 #
transform $-1 1 0 0 0 1 0 0 0 1 40.775170140690328 26.85110969047394 10.750850965427805 1 rotate no_reflect no_shear #
lump $-1 $-1 $19 $1 #
transform $-1 1 0 0 0 1 0 0 0 1 40.775170140690328 26.85110969047394 10.750850965427805 1 rotate no_reflect no_shear #
lump $-1 $-1 $20 $2 #
transform $-1 1 0 0 0 1 0 0 0 1 40.775170140690328 26.85110969047394 10.750850965427805 1 rotate no_reflect no_shear #
lump $-1 $-1 $21 $3 #
transform $-1 1 0 0 0 1 0 0 0 1 40.775170140690328 26.85110969047394 10.750850965427805 1 rotate no_reflect no_shear #
lump $-1 $-1 $22 $4 #
transform $-1 1 0 0 0 1 0 0 0 1 40.775170140690328 26.85110969047394 10.750850965427805 1 rotate no_reflect no_shear #
lump $-1 $-1 $23 $5 #
transform $-1 1 0 0 0 1 0 0 0 1 40.775170140690328 26.85110969047394 10.750850965427805 1 rotate no_reflect no_shear #
shell $-1 $-1 $-1 $24 $-1 $6 #
shell $-1 $-1 $-1 $25 $-1 $8 #
shell $-1 $-1 $-1 $26 $-1 $10 #
shell $-1 $-1 $-1 $27 $-1 $12 #
shell $-1 $-1 $-1 $28 $-1 $14 #
shell $-1 $-1 $-1 $29 $-1 $16 #
face $-1 $30 $31 $18 $-1 $32 forward single #
face $-1 $33 $34 $19 $-1 $35 forward single #
face $-1 $36 $37 $20 $-1 $38 forward single #
face $-1 $39 $40 $21 $-1 $41 reversed single #
face $-1 $42 $43 $22 $-1 $44 forward single #
face $-1 $45 $46 $23 $-1 $47 forward single #
face $-1 $48 $49 $18 $-1 $50 reversed single #
loop $-1 $-1 $51 $24 #
plane-surface $-1 0 0 10.750850965427805 0 0 1 1 0 0 forward_v I I I I #
face $-1 $52 $53 $19 $-1 $54 reversed single #
loop $-1 $-1 $55 $25 #
plane-surface $-1 0 -19.770381451898327 2.3304396869185595 0 0 1 1 0 0 forward_v I I I I #
face $-1 $56 $57 $20 $-1 $58 reversed single #
loop $-1 $-1 $59 $26 #
plane-surface $-1 0 19.848013180373009 8.2303427238407938 0 0 1 1 0 0 forward_v I I I I #
face $-1 $60 $61 $21 $-1 $62 reversed single #
loop $-1 $-1 $63 $27 #
plane-surface $-1 64.753543362530451 -12.689653213322714 115.96155940626265 0 1 0 0.83867057594974714 0 0.54463902268945019 forward_v I I I I #
face $-1 $64 $65 $22 $-1 $66 forward single #
loop $-1 $67 $68 $28 #
cone-surface $-1 37.888521167175469 -10.892554896459941 6.6792014327371856 -0.83867057594974714 0 -0.54463902268945019 0.2723195113447251 0 -0.41933528797487357 1 I I 0 1 0.5 forward I I I I #
face $-1 $69 $70 $23 $-1 $71 forward single #
loop $-1 $72 $73 $29 #
cone-surface $-1 37.888521167175469 -8.1969074211657826 6.6792014327371856 -0.83867057594974714 0 -0.54463902268945019 0.2723195113447251 0 -0.41933528797487357 1 I I 0 1 0.5 forward I I I I #
face $-1 $74 $75 $18 $-1 $76 reversed single #
loop $-1 $-1 $77 $30 #
plane-surface $-1 0 0 -10.750850965427805 0 0 1 1 0 0 forward_v I I I I #
coedge $-1 $78 $79 $80 $81 forward $31 $-1 #
face $-1 $82 $83 $19 $-1 $84 reversed single #
loop $-1 $-1 $85 $33 #
plane-surface $-1 0 -19.770381451898327 -2.0328302690993318 0 0 1 1 0 0 forward_v I I I I #
coedge $-1 $86 $87 $88 $89 reversed $34 $-1 #
face $-1 $90 $91 $20 $-1 $92 reversed single #
loop $-1 $-1 $93 $36 #
plane-surface $-1 0 19.848013180373009 4.7024152330464286 0 0 1 1 0 0 forward_v I I I I #
coedge $-1 $94 $95 $96 $97 reversed $37 $-1 #
face $-1 $98 $99 $21 $-1 $100 reversed single #
loop $-1 $-1 $101 $39 #
plane-surface $-1 -3.6403274901529272 -9.544731158812862 71.546061775419389 0.83867057594974714 0 0.54463902268945019 0.54463902268945019 0 -0.83867057594974714 forward_v I I I I #
coedge $-1 $102 $103 $104 $105 reversed $40 $-1 #
face $-1 $-1 $106 $22 $-1 $107 forward single #
loop $-1 $108 $109 $42 #
cone-surface $-1 37.259518235213157 -10.892554896459941 6.2707221657200982 -0.83867057594974714 0 -0.54463902268945019 0.13615975567236255 0 -0.20966764398743679 1 I I -0.70710678118654746 0.70710678118654746 0.25 forward I I I I #
loop $-1 $-1 $110 $28 #
coedge $-1 $68 $68 $111 $112 reversed $43 $-1 #
face $-1 $-1 $113 $23 $-1 $114 forward single #
loop $-1 $115 $116 $45 #
cone-surface $-1 37.259518235213157 -8.1969074211657826 6.2707221657200982 -0.83867057594974714 0 -0.54463902268945019 0.13615975567236255 0 -0.20966764398743679 1 I I -0.70710678118654746 0.70710678118654746 0.25 forward I I I I #
loop $-1 $-1 $117 $29 #
coedge $-1 $73 $73 $118 $119 reversed $46 $-1 #
face $-1 $120 $121 $18 $-1 $122 reversed single #
loop $-1 $-1 $123 $48 #
plane-surface $-1 0 -26.85110969047394 0 0 1 0 0 0 1 forward_v I I I I #
coedge $-1 $124 $125 $126 $127 forward $49 $-1 #
coedge $-1 $128 $51 $129 $130 forward $31 $-1 #
coedge $-1 $51 $128 $131 $132 forward $31 $-1 #
coedge $-1 $133 $134 $51 $81 reversed $135 $-1 #
edge $-1 $136 -26.85110969047394 $137 26.85110969047394 $80 $138 forward 7 unknown #
face $-1 $139 $140 $19 $-1 $141 reversed single #
loop $-1 $-1 $142 $52 #
plane-surface $-1 0 -12.689653213322714 0.14880470890961384 0 -1 0 0 0 -1 forward_v I I I I #
coedge $-1 $143 $144 $145 $146 reversed $53 $-1 #
coedge $-1 $147 $55 $148 $149 forward $34 $-1 #
coedge $-1 $55 $147 $150 $151 reversed $34 $-1 #
coedge $-1 $152 $153 $55 $89 forward $154 $-1 #
edge $-1 $155 2.8044624873735504 $156 16.965918964524775 $88 $157 forward 7 unknown #
face $-1 $158 $159 $20 $-1 $160 reversed single #
loop $-1 $-1 $161 $56 #
plane-surface $-1 0 12.844916670272077 6.4663789784436112 0 1 0 0 0 1 forward_v I I I I #
coedge $-1 $162 $163 $164 $165 reversed $57 $-1 #
coedge $-1 $166 $59 $167 $168 reversed $37 $-1 #
coedge $-1 $59 $166 $169 $170 forward $37 $-1 #
coedge $-1 $171 $172 $59 $97 forward $159 $-1 #
edge $-1 $173 -16.927103100287436 $174 -2.920910080085573 $96 $175 forward 7 unknown #
face $-1 $176 $177 $21 $-1 $178 forward single #
loop $-1 $-1 $179 $60 #
plane-surface $-1 64.753543362530451 -6.3998091043030101 115.96155940626265 0 -1 0 -0.83867057594974714 0 -0.54463902268945019 forward_v I I I I #
coedge $-1 $180 $181 $182 $183 reversed $61 $-1 #
coedge $-1 $103 $63 $184 $185 reversed $40 $-1 #
coedge $-1 $63 $102 $180 $186 reversed $40 $-1 #
coedge $-1 $182 $187 $63 $105 forward $188 $-1 #
edge $-1 $189 47.229928737703517 $190 54.8285887803953 $104 $191 forward 7 unknown #
loop $-1 $-1 $111 $64 #
plane-surface $-1 -3.6403274901529272 -9.544731158812862 71.546061775419389 0.83867057594974714 0 0.54463902268945019 0.54463902268945019 0 -0.83867057594974714 forward_v I I I I #
loop $-1 $-1 $192 $42 #
coedge $-1 $109 $109 $110 $193 reversed $65 $-1 #
coedge $-1 $110 $110 $109 $193 forward $67 $-1 #
coedge $-1 $111 $111 $68 $112 forward $106 $-1 #
edge $-1 $194 0 $194 6.2831853071796004 $111 $195 forward 7 unknown #
loop $-1 $-1 $118 $69 #
plane-surface $-1 -3.6403274901529272 -9.544731158812862 71.546061775419389 0.83867057594974714 0 0.54463902268945019 0.54463902268945019 0 -0.83867057594974714 forward_v I I I I #
loop $-1 $-1 $196 $45 #
coedge $-1 $116 $116 $117 $197 reversed $70 $-1 #
coedge $-1 $117 $117 $116 $197 forward $72 $-1 #
coedge $-1 $118 $118 $73 $119 forward $113 $-1 #
edge $-1 $198 0 $198 6.2831853071796004 $118 $199 forward 7 unknown #
face $-1 $200 $201 $18 $-1 $202 reversed single #
loop $-1 $-1 $203 $74 #
plane-surface $-1 -40.775170140690328 0 0 1 0 0 0 0 -1 forward_v I I I I #
coedge $-1 $204 $131 $205 $206 forward $75 $-1 #
coedge $-1 $207 $77 $204 $208 forward $49 $-1 #
coedge $-1 $77 $207 $209 $210 forward $49 $-1 #
coedge $-1 $134 $133 $77 $127 reversed $135 $-1 #
edge $-1 $211 -26.85110969047394 $212 26.85110969047394 $126 $213 forward 7 unknown #
coedge $-1 $79 $78 $214 $215 forward $31 $-1 #
coedge $-1 $216 $217 $78 $130 reversed $201 $-1 #
edge $-1 $137 -40.775170140690328 $218 40.775170140690328 $129 $219 forward 7 unknown #
coedge $-1 $123 $220 $79 $132 reversed $75 $-1 #
edge $-1 $221 -40.775170140690328 $136 40.775170140690328 $131 $222 forward 7 unknown #
coedge $-1 $126 $80 $220 $223 forward $135 $-1 #
coedge $-1 $80 $126 $216 $224 reversed $135 $-1 #
loop $-1 $-1 $133 $200 #
vertex $-1 $81 $225 #
vertex $-1 $81 $226 #
straight-curve $-1 40.775170140690328 0 10.750850965427805 0 1 0 I I #
face $-1 $227 $228 $19 $-1 $229 reversed single #
loop $-1 $-1 $230 $82 #
plane-surface $-1 -40.775170140690328 0 0 1 0 0 0 0 -1 forward_v I I I I #
coedge $-1 $231 $148 $153 $232 reversed $83 $-1 #
coedge $-1 $233 $85 $234 $235 reversed $53 $-1 #
coedge $-1 $85 $233 $231 $236 forward $53 $-1 #
coedge $-1 $153 $152 $85 $146 forward $154 $-1 #
edge $-1 $237 -16.965918964524775 $238 -2.8044624873735504 $145 $239 forward 7 unknown #
coedge $-1 $87 $86 $230 $240 reversed $34 $-1 #
coedge $-1 $142 $241 $86 $149 reversed $83 $-1 #
edge $-1 $155 -40.775170140690328 $242 40.775170140690328 $148 $243 forward 7 unknown #
coedge $-1 $244 $245 $87 $151 forward $228 $-1 #
edge $-1 $156 -40.775170140690328 $246 40.775170140690328 $150 $247 forward 7 unknown #
coedge $-1 $145 $88 $245 $248 forward $154 $-1 #
coedge $-1 $88 $145 $142 $232 forward $154 $-1 #
loop $-1 $-1 $88 $227 #
vertex $-1 $89 $249 #
vertex $-1 $248 $250 #
straight-curve $-1 40.775170140690328 -9.8851907259491636 2.3304396869185595 0 -1 0 I I #
face $-1 $251 $252 $20 $-1 $253 reversed single #
loop $-1 $-1 $96 $90 #
plane-surface $-1 40.775170140690328 0 0 -1 0 0 0 0 1 forward_v I I I I #
coedge $-1 $254 $169 $255 $256 reversed $91 $-1 #
coedge $-1 $257 $93 $254 $258 forward $57 $-1 #
coedge $-1 $93 $257 $259 $260 reversed $57 $-1 #
coedge $-1 $172 $171 $93 $165 forward $159 $-1 #
edge $-1 $261 2.920910080085573 $262 16.927103100287436 $164 $263 forward 7 unknown #
coedge $-1 $95 $94 $264 $265 reversed $37 $-1 #
coedge $-1 $266 $267 $94 $168 forward $268 $-1 #
edge $-1 $269 -40.775170140690328 $173 40.775170140690328 $167 $270 forward 7 unknown #
coedge $-1 $161 $271 $95 $170 reversed $91 $-1 #
edge $-1 $272 -40.775170140690328 $174 40.775170140690328 $169 $273 forward 7 unknown #
coedge $-1 $164 $96 $271 $274 forward $159 $-1 #
coedge $-1 $96 $164 $266 $275 reversed $159 $-1 #
vertex $-1 $275 $276 #
vertex $-1 $97 $277 #
straight-curve $-1 40.775170140690328 9.9240065901865044 8.2303427238407938 0 -1 0 I I #
face $-1 $-1 $188 $21 $-1 $278 reversed single #
loop $-1 $-1 $279 $98 #
plane-surface $-1 0 0 10.750850965427805 0 0 1 1 0 0 forward_v I I I I #
coedge $-1 $280 $281 $282 $283 reversed $99 $-1 #
coedge $-1 $284 $101 $103 $186 forward $61 $-1 #
coedge $-1 $101 $284 $280 $285 forward $61 $-1 #
coedge $-1 $282 $104 $101 $183 forward $188 $-1 #
edge $-1 $190 -7.917287633916283 $286 -1.6274435248965791 $182 $287 forward 7 unknown #
coedge $-1 $288 $289 $102 $185 forward $177 $-1 #
edge $-1 $290 3.4637710883451334 $189 8.3983984594251027 $184 $291 forward 7 unknown #
edge $-1 $190 -81.550340281380642 $290 -72.489977058208396 $103 $292 forward 7 unknown #
coedge $-1 $104 $282 $288 $293 reversed $188 $-1 #
loop $-1 $-1 $282 $176 #
vertex $-1 $293 $294 #
vertex $-1 $105 $295 #
straight-curve $-1 40.775170140690328 -12.689653213322714 57.980779703131326 0 0 -1 I I #
coedge $-1 $192 $192 $-1 $296 reversed $108 $-1 #
edge $-1 $297 0 $297 6.2831853071796004 $109 $298 forward 7 unknown #
vertex $-1 $112 $299 #
ellipse-curve $-1 38.307856455150343 -10.892554896459941 6.9515209440819108 0.83867057594974714 0 0.54463902268945019 0.2723195113447251 0 -0.41933528797487357 1 I I #
coedge $-1 $196 $196 $-1 $300 reversed $115 $-1 #
edge $-1 $301 0 $301 6.2831853071796004 $116 $302 forward 7 unknown #
vertex $-1 $119 $303 #
ellipse-curve $-1 38.307856455150343 -8.1969074211657826 6.9515209440819108 0.83867057594974714 0 0.54463902268945019 0.2723195113447251 0 -0.41933528797487357 1 I I #
face $-1 $-1 $135 $18 $-1 $304 reversed single #
loop $-1 $-1 $216 $120 #
plane-surface $-1 0 26.85110969047394 0 0 -1 0 0 0 -1 forward_v I I I I #
coedge $-1 $305 $214 $217 $306 forward $121 $-1 #
coedge $-1 $220 $123 $124 $208 reversed $75 $-1 #
coedge $-1 $214 $305 $123 $206 reversed $121 $-1 #
edge $-1 $221 -10.750850965427805 $307 10.750850965427805 $205 $308 forward 7 unknown #
coedge $-1 $125 $124 $305 $309 forward $49 $-1 #
edge $-1 $212 -40.775170140690328 $307 40.775170140690328 $204 $310 forward 7 unknown #
coedge $-1 $217 $216 $125 $210 reversed $201 $-1 #
edge $-1 $311 -40.775170140690328 $211 40.775170140690328 $209 $312 forward 7 unknown #
vertex $-1 $127 $313 #
vertex $-1 $223 $314 #
straight-curve $-1 40.775170140690328 0 -10.750850965427805 0 -1 0 I I #
coedge $-1 $203 $205 $128 $215 reversed $121 $-1 #
edge $-1 $218 -26.85110969047394 $221 26.85110969047394 $214 $315 forward 7 unknown #
coedge $-1 $209 $129 $134 $224 forward $201 $-1 #
coedge $-1 $129 $209 $203 $306 reversed $201 $-1 #
vertex $-1 $130 $316 #
straight-curve $-1 0 26.85110969047394 10.750850965427805 -1 0 0 I I #
coedge $-1 $131 $204 $133 $223 reversed $75 $-1 #
vertex $-1 $215 $317 #
straight-curve $-1 0 -26.85110969047394 10.750850965427805 1 0 0 I I #
edge $-1 $136 -10.750850965427805 $212 10.750850965427805 $133 $318 forward 7 unknown #
edge $-1 $137 -10.750850965427805 $211 10.750850965427805 $134 $319 forward 7 unknown #
point $-1 40.775170140690328 -26.85110969047394 10.750850965427805 #
point $-1 40.775170140690328 26.85110969047394 10.750850965427805 #
face $-1 $-1 $154 $19 $-1 $320 reversed single #
loop $-1 $-1 $150 $139 #
plane-surface $-1 0 -26.85110969047394 0 0 1 0 0 0 1 forward_v I I I I #
coedge $-1 $321 $322 $147 $240 forward $140 $-1 #
coedge $-1 $241 $142 $144 $236 reversed $83 $-1 #
edge $-1 $238 -2.1072326235541388 $155 2.2560373324637526 $153 $323 forward 7 unknown #
coedge $-1 $144 $143 $324 $325 reversed $53 $-1 #
coedge $-1 $245 $244 $143 $235 forward $228 $-1 #
edge $-1 $326 -40.775170140690328 $237 40.775170140690328 $234 $327 forward 7 unknown #
edge $-1 $328 -40.775170140690328 $238 40.775170140690328 $231 $329 forward 7 unknown #
vertex $-1 $235 $330 #
vertex $-1 $146 $331 #
straight-curve $-1 40.775170140690328 -9.8851907259491636 -2.0328302690993318 0 1 0 I I #
edge $-1 $246 -16.965918964524775 $242 -2.8044624873735504 $230 $332 forward 7 unknown #
coedge $-1 $148 $231 $321 $333 reversed $83 $-1 #
vertex $-1 $240 $334 #
straight-curve $-1 0 -12.689653213322714 2.3304396869185595 -1 0 0 I I #
coedge $-1 $234 $150 $322 $335 forward $228 $-1 #
coedge $-1 $150 $234 $152 $248 reversed $228 $-1 #
vertex $-1 $335 $336 #
straight-curve $-1 0 -26.85110969047394 2.3304396869185595 -1 0 0 I I #
edge $-1 $156 -2.3304396869185595 $237 2.0328302690993318 $152 $337 forward 7 unknown #
point $-1 40.775170140690328 -12.689653213322714 2.3304396869185595 #
point $-1 40.775170140690328 -26.85110969047394 2.3304396869185595 #
face $-1 $-1 $268 $20 $-1 $338 reversed single #
loop $-1 $-1 $264 $158 #
plane-surface $-1 -40.775170140690328 0 0 1 0 0 0 0 -1 forward_v I I I I #
coedge $-1 $271 $161 $162 $258 reversed $91 $-1 #
coedge $-1 $264 $339 $161 $256 forward $252 $-1 #
edge $-1 $340 1.469225743824623 $272 4.9971532346189882 $255 $341 forward 7 unknown #
coedge $-1 $163 $162 $339 $342 reversed $57 $-1 #
edge $-1 $261 -40.775170140690328 $340 40.775170140690328 $254 $343 forward 7 unknown #
coedge $-1 $267 $266 $163 $260 forward $268 $-1 #
edge $-1 $262 -40.775170140690328 $344 40.775170140690328 $259 $345 forward 7 unknown #
vertex $-1 $165 $346 #
vertex $-1 $260 $347 #
straight-curve $-1 40.775170140690328 9.9240065901865044 4.7024152330464286 0 1 0 I I #
coedge $-1 $348 $255 $166 $265 forward $252 $-1 #
edge $-1 $272 2.920910080085573 $269 16.927103100287436 $264 $349 forward 7 unknown #
coedge $-1 $259 $167 $172 $275 forward $268 $-1 #
coedge $-1 $167 $259 $348 $350 reversed $268 $-1 #
loop $-1 $-1 $167 $251 #
vertex $-1 $350 $351 #
straight-curve $-1 0 26.85110969047394 8.2303427238407938 1 0 0 I I #
coedge $-1 $169 $254 $171 $274 reversed $91 $-1 #
vertex $-1 $265 $352 #
straight-curve $-1 0 12.844916670272077 8.2303427238407938 1 0 0 I I #
edge $-1 $174 -4.9971532346189882 $261 -1.469225743824623 $171 $353 forward 7 unknown #
edge $-1 $173 -8.2303427238407938 $262 -4.7024152330464286 $172 $354 forward 7 unknown #
point $-1 40.775170140690328 26.85110969047394 8.2303427238407938 #
point $-1 40.775170140690328 12.844916670272077 8.2303427238407938 #
plane-surface $-1 40.775170140690328 0 0 -1 0 0 0 0 1 forward_v I I I I #
coedge $-1 $289 $288 $281 $355 forward $177 $-1 #
coedge $-1 $281 $179 $181 $285 reversed $99 $-1 #
coedge $-1 $179 $280 $279 $355 reversed $99 $-1 #
coedge $-1 $187 $182 $179 $283 forward $188 $-1 #
edge $-1 $286 -54.8285887803953 $356 -47.229928737703517 $282 $357 forward 7 unknown #
coedge $-1 $181 $180 $289 $358 reversed $61 $-1 #
edge $-1 $359 72.489977058208396 $286 81.550340281380642 $280 $360 forward 7 unknown #
vertex $-1 $183 $361 #
straight-curve $-1 40.775170140690321 -4.772365579406431 3.1521909227360254 0 1 0 I I #
coedge $-1 $279 $184 $187 $293 forward $177 $-1 #
coedge $-1 $184 $279 $284 $358 forward $177 $-1 #
vertex $-1 $185 $362 #
straight-curve $-1 32.376771681265225 -12.689653213322714 10.750850965427801 1 0 0 I I #
straight-curve $-1 -3.6403274901529272 -12.689653213322714 71.546061775419389 -0.54463902268945019 0 0.83867057594974714 I I #
edge $-1 $189 -12.689653213322714 $356 -6.3998091043030101 $187 $363 forward 7 unknown #
point $-1 40.775170140690328 -12.689653213322714 10.750850965427805 #
point $-1 40.775170140690328 -12.689653213322714 3.1521909227360254 #
edge $-1 $364 1 $364 0 $192 $-1 forward 7 unknown #
vertex $-1 $193 $365 #
ellipse-curve $-1 37.469185879200595 -10.892554896459941 6.4068819213924604 0.83867057594974714 0 0.54463902268945019 0.2723195113447251 0 -0.41933528797487357 1 I I #
point $-1 38.580175966495069 -10.892554896459941 6.5321856561070373 #
edge $-1 $366 1 $366 0 $196 $-1 forward 7 unknown #
vertex $-1 $197 $367 #
ellipse-curve $-1 37.469185879200595 -8.1969074211657826 6.4068819213924604 0.83867057594974714 0 0.54463902268945019 0.2723195113447251 0 -0.41933528797487357 1 I I #
point $-1 38.580175966495069 -8.1969074211657826 6.5321856561070373 #
plane-surface $-1 40.775170140690328 0 0 -1 0 0 0 0 1 forward_v I I I I #
coedge $-1 $205 $203 $207 $309 reversed $121 $-1 #
edge $-1 $218 -10.750850965427805 $311 10.750850965427805 $217 $368 forward 7 unknown #
vertex $-1 $309 $369 #
straight-curve $-1 -40.775170140690328 -26.85110969047394 0 0 0 -1 I I #
edge $-1 $307 -26.85110969047394 $311 26.85110969047394 $305 $370 forward 7 unknown #
straight-curve $-1 0 -26.85110969047394 -10.750850965427805 -1 0 0 I I #
vertex $-1 $210 $371 #
straight-curve $-1 0 26.85110969047394 -10.750850965427805 1 0 0 I I #
point $-1 40.775170140690328 26.85110969047394 -10.750850965427805 #
point $-1 40.775170140690328 -26.85110969047394 -10.750850965427805 #
straight-curve $-1 -40.775170140690328 0 10.750850965427805 0 -1 0 I I #
point $-1 -40.775170140690328 26.85110969047394 10.750850965427805 #
point $-1 -40.775170140690328 -26.85110969047394 10.750850965427805 #
straight-curve $-1 40.775170140690328 -26.85110969047394 0 0 0 -1 I I #
straight-curve $-1 40.775170140690328 26.85110969047394 0 0 0 -1 I I #
plane-surface $-1 40.775170140690328 0 0 -1 0 0 0 0 1 forward_v I I I I #
coedge $-1 $324 $230 $241 $333 forward $140 $-1 #
coedge $-1 $230 $324 $244 $335 reversed $140 $-1 #
straight-curve $-1 40.775170140690328 -12.689653213322714 0.074402354454806918 0 0 1 I I #
coedge $-1 $322 $321 $233 $325 forward $140 $-1 #
edge $-1 $328 2.8044624873735504 $326 16.965918964524775 $324 $372 forward 7 unknown #
vertex $-1 $235 $373 #
straight-curve $-1 0 -26.85110969047394 -2.0328302690993318 1 0 0 I I #
vertex $-1 $325 $374 #
straight-curve $-1 0 -12.689653213322714 -2.0328302690993318 1 0 0 I I #
point $-1 40.775170140690328 -26.85110969047394 -2.0328302690993318 #
point $-1 40.775170140690328 -12.689653213322714 -2.0328302690993318 #
straight-curve $-1 -40.775170140690328 -9.8851907259491636 2.3304396869185595 0 1 0 I I #
edge $-1 $242 -2.2560373324637526 $328 2.1072326235541388 $321 $375 forward 7 unknown #
point $-1 -40.775170140690328 -12.689653213322714 2.3304396869185595 #
edge $-1 $246 -2.3304396869185595 $326 2.0328302690993318 $322 $376 forward 7 unknown #
point $-1 -40.775170140690328 -26.85110969047394 2.3304396869185595 #
straight-curve $-1 40.775170140690328 -26.85110969047394 0 0 0 -1 I I #
plane-surface $-1 0 26.85110969047394 0 0 -1 0 0 0 -1 forward_v I I I I #
coedge $-1 $255 $348 $257 $342 forward $252 $-1 #
vertex $-1 $342 $377 #
straight-curve $-1 -40.775170140690328 12.844916670272077 3.2331894892218056 0 0 1 I I #
edge $-1 $344 -16.927103100287436 $340 -2.920910080085573 $339 $378 forward 7 unknown #
straight-curve $-1 0 12.844916670272077 4.7024152330464286 -1 0 0 I I #
vertex $-1 $260 $379 #
straight-curve $-1 0 26.85110969047394 4.7024152330464286 -1 0 0 I I #
point $-1 40.775170140690328 12.844916670272077 4.7024152330464286 #
point $-1 40.775170140690328 26.85110969047394 4.7024152330464286 #
coedge $-1 $339 $264 $267 $350 forward $252 $-1 #
straight-curve $-1 -40.775170140690328 9.9240065901865044 8.2303427238407938 0 1 0 I I #
edge $-1 $269 -8.2303427238407938 $344 -4.7024152330464286 $267 $380 forward 7 unknown #
point $-1 -40.775170140690328 26.85110969047394 8.2303427238407938 #
point $-1 -40.775170140690328 12.844916670272077 8.2303427238407938 #
straight-curve $-1 40.775170140690328 12.844916670272077 3.2331894892218056 0 0 -1 I I #
straight-curve $-1 40.775170140690328 26.85110969047394 0 0 0 -1 I I #
edge $-1 $356 -8.3983984594251027 $359 -3.4637710883451334 $279 $381 forward 7 unknown #
vertex $-1 $355 $382 #
straight-curve $-1 40.775170140690328 -6.3998091043030101 57.980779703131326 0 0 1 I I #
edge $-1 $359 1.6274435248965791 $290 7.917287633916283 $289 $383 forward 7 unknown #
vertex $-1 $358 $384 #
straight-curve $-1 -3.6403274901529272 -6.3998091043030101 71.546061775419389 0.54463902268945019 0 -0.83867057594974714 I I #
point $-1 40.775170140690328 -6.3998091043030101 3.1521909227360254 #
point $-1 35.840542769610359 -12.689653213322714 10.750850965427794 #
straight-curve $-1 40.775170140690328 0 10.750850965427805 0 1 0 I I #
vertex $-1 $296 $385 #
point $-1 37.741505390545321 -10.892554896459941 5.9875466334175869 #
vertex $-1 $300 $386 #
point $-1 37.741505390545321 -8.1969074211657826 5.9875466334175869 #
straight-curve $-1 -40.775170140690328 26.85110969047394 0 0 0 -1 I I #
point $-1 -40.775170140690328 -26.85110969047394 -10.750850965427805 #
straight-curve $-1 -40.775170140690328 0 -10.750850965427805 0 1 0 I I #
point $-1 -40.775170140690328 26.85110969047394 -10.750850965427805 #
straight-curve $-1 -40.775170140690328 -9.8851907259491636 -2.0328302690993318 0 -1 0 I I #
point $-1 -40.775170140690328 -26.85110969047394 -2.0328302690993318 #
point $-1 -40.775170140690328 -12.689653213322714 -2.0328302690993318 #
straight-curve $-1 -40.775170140690328 -12.689653213322714 0.074402354454806918 0 0 -1 I I #
straight-curve $-1 -40.775170140690328 -26.85110969047394 0 0 0 -1 I I #
point $-1 -40.775170140690328 12.844916670272077 4.7024152330464286 #
straight-curve $-1 -40.775170140690328 9.9240065901865044 4.7024152330464286 0 -1 0 I I #
point $-1 -40.775170140690328 26.85110969047394 4.7024152330464286 #
straight-curve $-1 -40.775170140690328 26.85110969047394 0 0 0 -1 I I #
straight-curve $-1 32.376771681265225 -6.3998091043030101 10.750850965427801 -1 0 0 I I #
point $-1 40.775170140690328 -6.3998091043030101 10.750850965427805 #
straight-curve $-1 35.840542769610352 -4.772365579406431 10.750850965427801 0 -1 0 I I #
point $-1 35.840542769610359 -6.3998091043030101 10.750850965427794 #
point $-1 37.04985059122572 -10.892554896459941 6.1345624100477361 #
point $-1 37.04985059122572 -8.1969074211657826 6.1345624100477361 #
End-of-ACIS-data 