500 0 10 0           
7 Unknown 11 ACIS 5.0 NT 24 Thu Mar 25 21:09:48 1999 
-1 9.9999999999999995e-007 1e-010 
body $-1 $10 $-1 $11 #
body $-1 $12 $-1 $13 #
body $-1 $14 $-1 $15 #
body $-1 $16 $-1 $17 #
body $-1 $18 $-1 $19 #
body $-1 $20 $-1 $21 #
body $-1 $22 $-1 $23 #
body $-1 $24 $-1 $25 #
body $-1 $26 $-1 $27 #
body $-1 $28 $-1 $29 #
lump $-1 $-1 $30 $0 #
transform $-1 1 0 0 0 1 0 0 0 1 65.888241218298901 40.990581562521591 15.724586052514425 1 rotate no_reflect no_shear #
lump $-1 $-1 $31 $1 #
transform $-1 1 0 0 0 1 0 0 0 1 65.888241218298901 40.990581562521591 15.724586052514425 1 rotate no_reflect no_shear #
lump $-1 $-1 $32 $2 #
transform $-1 1 0 0 0 1 0 0 0 1 65.888241218298901 40.990581562521591 15.724586052514425 1 rotate no_reflect no_shear #
lump $-1 $-1 $33 $3 #
transform $-1 1 0 0 0 1 0 0 0 1 65.888241218298901 40.990581562521591 15.724586052514425 1 rotate no_reflect no_shear #
lump $-1 $-1 $34 $4 #
transform $-1 1 0 0 0 1 0 0 0 1 65.888241218298901 40.990581562521591 15.724586052514425 1 rotate no_reflect no_shear #
lump $-1 $-1 $35 $5 #
transform $-1 1 0 0 0 1 0 0 0 1 65.888241218298901 40.990581562521591 15.724586052514425 1 rotate no_reflect no_shear #
lump $-1 $-1 $36 $6 #
transform $-1 1 0 0 0 1 0 0 0 1 65.888241218298901 40.990581562521591 15.724586052514425 1 rotate no_reflect no_shear #
lump $-1 $-1 $37 $7 #
transform $-1 1 0 0 0 1 0 0 0 1 65.888241218298901 40.990581562521591 15.724586052514425 1 rotate no_reflect no_shear #
lump $-1 $-1 $38 $8 #
transform $-1 1 0 0 0 1 0 0 0 1 65.888241218298901 40.990581562521591 15.724586052514425 1 rotate no_reflect no_shear #
lump $-1 $-1 $39 $9 #
transform $-1 1 0 0 0 1 0 0 0 1 65.888241218298901 40.990581562521591 15.724586052514425 1 rotate no_reflect no_shear #
shell $-1 $-1 $-1 $40 $-1 $10 #
shell $-1 $-1 $-1 $41 $-1 $12 #
shell $-1 $-1 $-1 $42 $-1 $14 #
shell $-1 $-1 $-1 $43 $-1 $16 #
shell $-1 $-1 $-1 $44 $-1 $18 #
shell $-1 $-1 $-1 $45 $-1 $20 #
shell $-1 $-1 $-1 $46 $-1 $22 #
shell $-1 $-1 $-1 $47 $-1 $24 #
shell $-1 $-1 $-1 $48 $-1 $26 #
shell $-1 $-1 $-1 $49 $-1 $28 #
face $-1 $50 $51 $30 $-1 $52 forward single #
face $-1 $53 $54 $31 $-1 $55 forward single #
face $-1 $56 $57 $32 $-1 $58 reversed single #
face $-1 $59 $60 $33 $-1 $61 forward single #
face $-1 $62 $63 $34 $-1 $64 reversed single #
face $-1 $65 $66 $35 $-1 $67 forward single #
face $-1 $68 $69 $36 $-1 $70 reversed single #
face $-1 $71 $72 $37 $-1 $73 forward single #
face $-1 $74 $75 $38 $-1 $76 forward single #
face $-1 $77 $78 $39 $-1 $79 forward single #
face $-1 $80 $81 $30 $-1 $82 reversed single #
loop $-1 $-1 $83 $40 #
plane-surface $-1 0 0 15.724586052514425 0 0 1 1 0 0 forward_v I I I I #
face $-1 $84 $85 $31 $-1 $86 reversed single #
loop $-1 $-1 $87 $41 #
plane-surface $-1 0 -35.548244118976726 -7.9078346753670985 0 0 1 1 0 0 forward_v I I I I #
face $-1 $88 $89 $32 $-1 $90 reversed single #
loop $-1 $-1 $91 $42 #
plane-surface $-1 39.951931544335224 5.442337443544865 188.35989896711027 0 -1 0 -0.6018150307709319 0 -0.79863550430605224 forward_v I I I I #
face $-1 $92 $93 $33 $-1 $94 forward single #
loop $-1 $95 $96 $43 #
cone-surface $-1 56.434465885793976 -0.065595397180402415 7.7114737934188486 -0.6018150307709319 0 -0.79863550430605224 1.1979532564590785 0 -0.90272254615639791 1 I I 0 1 1.5 forward I I I I #
face $-1 $97 $98 $34 $-1 $99 reversed single #
loop $-1 $-1 $100 $44 #
plane-surface $-1 39.951931544335224 29.974715881071049 188.35989896711027 0 1 0 0.6018150307709319 0 0.79863550430605224 forward_v I I I I #
face $-1 $101 $102 $35 $-1 $103 forward single #
loop $-1 $104 $105 $45 #
cone-surface $-1 56.434465885793976 35.482648721796316 7.7114737934188486 -0.6018150307709319 0 -0.79863550430605224 1.1979532564590785 0 -0.90272254615639791 1 I I 0 1 1.5 forward I I I I #
face $-1 $106 $107 $36 $-1 $108 reversed single #
loop $-1 $-1 $109 $46 #
plane-surface $-1 -137.65885839058075 28.95210853506601 116.51140199102524 0 1 0 -0.54463904215088732 0 0.83867056331134215 forward_v I I I I #
face $-1 $110 $111 $37 $-1 $112 forward single #
loop $-1 $113 $114 $47 #
cone-surface $-1 -58.124293374386482 31.359803140557126 10.440130361969819 0.54463904215088732 0 -0.83867056331134215 0.41933528165567108 0 0.27231952107544366 1 I I 0 1 0.5 forward I I I I #
face $-1 $115 $116 $38 $-1 $117 forward single #
loop $-1 $118 $119 $48 #
cone-surface $-1 -58.124293374386482 34.9713450487938 10.440130361969819 0.54463904215088732 0 -0.83867056331134215 0.41933528165567108 0 0.27231952107544366 1 I I 0 1 0.5 forward I I I I #
face $-1 $120 $121 $39 $-1 $122 forward single #
loop $-1 $123 $124 $49 #
cone-surface $-1 -58.124293374386482 38.582886957030475 10.440130361969819 0.54463904215088732 0 -0.83867056331134215 0.41933528165567108 0 0.27231952107544366 1 I I 0 1 0.5 forward I I I I #
face $-1 $125 $126 $30 $-1 $127 reversed single #
loop $-1 $-1 $128 $50 #
plane-surface $-1 0 0 -15.724586052514425 0 0 1 1 0 0 forward_v I I I I #
coedge $-1 $129 $130 $131 $132 forward $51 $-1 #
face $-1 $133 $134 $31 $-1 $135 reversed single #
loop $-1 $-1 $136 $53 #
plane-surface $-1 0 -30.105906675431861 -11.816210363940762 0 -1 0 0 0 -1 forward_v I I I I #
coedge $-1 $137 $138 $139 $140 reversed $54 $-1 #
face $-1 $141 $142 $32 $-1 $143 reversed single #
loop $-1 $-1 $144 $56 #
plane-surface $-1 -39.353136288131054 -0.065595397180402415 83.118521460680341 0.6018150307709319 0 0.79863550430605224 0.79863550430605224 0 -0.6018150307709319 forward_v I I I I #
coedge $-1 $145 $146 $147 $148 reversed $57 $-1 #
face $-1 $-1 $149 $33 $-1 $150 forward single #
loop $-1 $151 $152 $59 #
cone-surface $-1 54.432632424992278 -0.065595397180402415 5.054951118243892 -0.6018150307709319 0 -0.79863550430605224 0.59897662822953923 0 -0.45136127307819895 1 I I -0.70710678118654757 0.70710678118654757 0.75 forward I I I I #
loop $-1 $-1 $153 $43 #
coedge $-1 $96 $96 $154 $155 reversed $60 $-1 #
face $-1 $156 $157 $34 $-1 $158 reversed single #
loop $-1 $-1 $159 $62 #
plane-surface $-1 -39.353136288131054 35.482648721796316 83.118521460680341 0.6018150307709319 0 0.79863550430605224 0.79863550430605224 0 -0.6018150307709319 forward_v I I I I #
coedge $-1 $160 $161 $162 $163 reversed $63 $-1 #
face $-1 $-1 $164 $35 $-1 $165 forward single #
loop $-1 $166 $167 $65 #
cone-surface $-1 54.432632424992278 35.482648721796316 5.054951118243892 -0.6018150307709319 0 -0.79863550430605224 0.59897662822953923 0 -0.45136127307819895 1 I I -0.70710678118654757 0.70710678118654757 0.75 forward I I I I #
loop $-1 $-1 $168 $45 #
coedge $-1 $105 $105 $169 $170 reversed $66 $-1 #
face $-1 $171 $172 $36 $-1 $173 reversed single #
loop $-1 $-1 $174 $68 #
plane-surface $-1 -65.888241218298887 34.9713450487938 5.9943452347365707 -0.54463904215088732 0 0.83867056331134215 0.83867056331134215 0 0.54463904215088732 forward_v I I I I #
coedge $-1 $175 $176 $177 $178 reversed $69 $-1 #
face $-1 $-1 $179 $37 $-1 $180 forward single #
loop $-1 $181 $182 $71 #
cone-surface $-1 -57.715814092773314 31.359803140557126 9.8111274394863131 0.54463904215088732 0 -0.83867056331134215 0.20966764082783554 0 0.13615976053772183 1 I I -0.70710678118654746 0.70710678118654746 0.25 forward I I I I #
loop $-1 $-1 $183 $47 #
coedge $-1 $114 $114 $184 $185 reversed $72 $-1 #
face $-1 $-1 $186 $38 $-1 $187 forward single #
loop $-1 $188 $189 $74 #
cone-surface $-1 -57.715814092773314 34.9713450487938 9.8111274394863131 0.54463904215088732 0 -0.83867056331134215 0.20966764082783554 0 0.13615976053772183 1 I I -0.70710678118654746 0.70710678118654746 0.25 forward I I I I #
loop $-1 $-1 $190 $48 #
coedge $-1 $119 $119 $191 $192 reversed $75 $-1 #
face $-1 $-1 $193 $39 $-1 $194 forward single #
loop $-1 $195 $196 $77 #
cone-surface $-1 -57.715814092773314 38.582886957030475 9.8111274394863131 0.54463904215088732 0 -0.83867056331134215 0.20966764082783554 0 0.13615976053772183 1 I I -0.70710678118654746 0.70710678118654746 0.25 forward I I I I #
loop $-1 $-1 $197 $49 #
coedge $-1 $124 $124 $198 $199 reversed $78 $-1 #
face $-1 $200 $201 $30 $-1 $202 reversed single #
loop $-1 $-1 $203 $80 #
plane-surface $-1 0 -40.990581562521591 0 0 1 0 0 0 1 forward_v I I I I #
coedge $-1 $204 $205 $206 $207 forward $81 $-1 #
coedge $-1 $208 $83 $209 $210 forward $51 $-1 #
coedge $-1 $83 $208 $211 $212 forward $51 $-1 #
coedge $-1 $213 $214 $83 $132 reversed $215 $-1 #
edge $-1 $216 -40.990581562521591 $217 40.990581562521591 $131 $218 forward 7 unknown #
face $-1 $219 $220 $31 $-1 $221 reversed single #
loop $-1 $-1 $222 $84 #
plane-surface $-1 0 0 -15.724586052514425 0 0 1 1 0 0 forward_v I I I I #
coedge $-1 $223 $224 $225 $226 reversed $85 $-1 #
coedge $-1 $227 $87 $224 $228 forward $54 $-1 #
coedge $-1 $87 $227 $229 $230 reversed $54 $-1 #
coedge $-1 $231 $225 $87 $140 forward $220 $-1 #
edge $-1 $232 12.331784615943498 $233 23.216459503033228 $139 $234 forward 7 unknown #
face $-1 $235 $236 $32 $-1 $237 reversed single #
loop $-1 $-1 $238 $88 #
plane-surface $-1 39.951931544335224 -5.5735282379056699 188.35989896711027 0 1 0 0.6018150307709319 0 0.79863550430605224 forward_v I I I I #
coedge $-1 $239 $240 $241 $242 reversed $89 $-1 #
coedge $-1 $146 $91 $243 $244 reversed $57 $-1 #
coedge $-1 $91 $145 $239 $245 reversed $57 $-1 #
coedge $-1 $241 $246 $91 $148 forward $247 $-1 #
edge $-1 $248 -45.912275446131289 $249 -30.105669156568382 $147 $250 forward 7 unknown #
loop $-1 $-1 $154 $92 #
plane-surface $-1 -39.353136288131054 -0.065595397180402415 83.118521460680341 0.6018150307709319 0 0.79863550430605224 0.79863550430605224 0 -0.6018150307709319 forward_v I I I I #
loop $-1 $-1 $251 $59 #
coedge $-1 $152 $152 $153 $252 reversed $93 $-1 #
coedge $-1 $153 $153 $152 $252 forward $95 $-1 #
coedge $-1 $154 $154 $96 $155 forward $149 $-1 #
edge $-1 $253 0 $253 6.2831853071796004 $154 $254 forward 7 unknown #
face $-1 $255 $256 $34 $-1 $257 forward single #
loop $-1 $-1 $162 $97 #
plane-surface $-1 65.888241218298901 0 0 -1 0 0 0 0 1 forward_v I I I I #
coedge $-1 $258 $259 $260 $261 reversed $98 $-1 #
coedge $-1 $161 $100 $262 $263 reversed $63 $-1 #
coedge $-1 $100 $160 $258 $264 reversed $63 $-1 #
coedge $-1 $260 $265 $100 $163 forward $157 $-1 #
edge $-1 $266 78.455363431040709 $267 90.3664958553411 $162 $268 forward 7 unknown #
loop $-1 $-1 $169 $101 #
plane-surface $-1 -39.353136288131054 35.482648721796316 83.118521460680341 0.6018150307709319 0 0.79863550430605224 0.79863550430605224 0 -0.6018150307709319 forward_v I I I I #
loop $-1 $-1 $269 $65 #
coedge $-1 $167 $167 $168 $270 reversed $102 $-1 #
coedge $-1 $168 $168 $167 $270 forward $104 $-1 #
coedge $-1 $169 $169 $105 $170 forward $164 $-1 #
edge $-1 $271 0 $271 6.2831853071796004 $169 $272 forward 7 unknown #
face $-1 $273 $274 $36 $-1 $275 reversed single #
loop $-1 $-1 $276 $106 #
plane-surface $-1 0 40.990581562521591 0 0 -1 0 0 0 -1 forward_v I I I I #
coedge $-1 $277 $278 $279 $280 reversed $107 $-1 #
coedge $-1 $176 $109 $281 $282 reversed $69 $-1 #
coedge $-1 $109 $175 $277 $283 reversed $69 $-1 #
coedge $-1 $279 $284 $109 $178 forward $285 $-1 #
edge $-1 $286 2.9411879769914719 $287 17.924444622665419 $177 $288 forward 7 unknown #
loop $-1 $-1 $184 $110 #
plane-surface $-1 -65.888241218298887 34.9713450487938 5.9943452347365707 -0.54463904215088732 0 0.83867056331134215 0.83867056331134215 0 0.54463904215088732 forward_v I I I I #
loop $-1 $-1 $289 $71 #
coedge $-1 $182 $182 $183 $290 reversed $111 $-1 #
coedge $-1 $183 $183 $182 $290 forward $113 $-1 #
coedge $-1 $184 $184 $114 $185 forward $179 $-1 #
edge $-1 $291 0 $291 6.2831853071796004 $184 $292 forward 7 unknown #
loop $-1 $-1 $191 $115 #
plane-surface $-1 -65.888241218298887 34.9713450487938 5.9943452347365707 -0.54463904215088732 0 0.83867056331134215 0.83867056331134215 0 0.54463904215088732 forward_v I I I I #
loop $-1 $-1 $293 $74 #
coedge $-1 $189 $189 $190 $294 reversed $116 $-1 #
coedge $-1 $190 $190 $189 $294 forward $118 $-1 #
coedge $-1 $191 $191 $119 $192 forward $186 $-1 #
edge $-1 $295 0 $295 6.2831853071796004 $191 $296 forward 7 unknown #
loop $-1 $-1 $198 $120 #
plane-surface $-1 -65.888241218298887 34.9713450487938 5.9943452347365707 -0.54463904215088732 0 0.83867056331134215 0.83867056331134215 0 0.54463904215088732 forward_v I I I I #
loop $-1 $-1 $297 $77 #
coedge $-1 $196 $196 $197 $298 reversed $121 $-1 #
coedge $-1 $197 $197 $196 $298 forward $123 $-1 #
coedge $-1 $198 $198 $124 $199 forward $193 $-1 #
edge $-1 $299 0 $299 6.2831853071796004 $198 $300 forward 7 unknown #
face $-1 $301 $302 $30 $-1 $303 reversed single #
loop $-1 $-1 $304 $125 #
plane-surface $-1 -65.888241218298901 0 0 1 0 0 0 0 -1 forward_v I I I I #
coedge $-1 $305 $211 $306 $307 forward $126 $-1 #
coedge $-1 $308 $128 $305 $309 forward $81 $-1 #
coedge $-1 $128 $308 $310 $311 forward $81 $-1 #
coedge $-1 $214 $213 $128 $207 reversed $215 $-1 #
edge $-1 $312 -40.990581562521591 $313 40.990581562521591 $206 $314 forward 7 unknown #
coedge $-1 $130 $129 $315 $316 forward $51 $-1 #
coedge $-1 $317 $318 $129 $210 reversed $302 $-1 #
edge $-1 $217 -65.888241218298901 $319 65.888241218298901 $209 $320 forward 7 unknown #
coedge $-1 $203 $321 $130 $212 reversed $126 $-1 #
edge $-1 $322 -65.888241218298901 $216 65.888241218298901 $211 $323 forward 7 unknown #
coedge $-1 $206 $131 $321 $324 forward $215 $-1 #
coedge $-1 $131 $206 $317 $325 reversed $215 $-1 #
loop $-1 $-1 $213 $301 #
vertex $-1 $132 $326 #
vertex $-1 $132 $327 #
straight-curve $-1 65.888241218298901 0 15.724586052514425 0 1 0 I I #
face $-1 $328 $329 $31 $-1 $330 reversed single #
loop $-1 $-1 $225 $133 #
plane-surface $-1 65.888241218298901 0 0 -1 0 0 0 0 1 forward_v I I I I #
coedge $-1 $331 $332 $223 $333 forward $134 $-1 #
coedge $-1 $334 $136 $222 $333 reversed $85 $-1 #
coedge $-1 $136 $334 $137 $228 reversed $85 $-1 #
coedge $-1 $139 $335 $136 $226 forward $220 $-1 #
edge $-1 $336 -9.8164808705440443 $232 -1.9997294933967176 $225 $337 forward 7 unknown #
coedge $-1 $138 $137 $338 $339 reversed $54 $-1 #
edge $-1 $232 -65.888241218298901 $340 65.888241218298901 $224 $341 forward 7 unknown #
coedge $-1 $342 $343 $138 $230 forward $329 $-1 #
edge $-1 $233 -65.888241218298901 $344 65.888241218298901 $229 $345 forward 7 unknown #
coedge $-1 $335 $139 $343 $346 forward $220 $-1 #
vertex $-1 $140 $347 #
vertex $-1 $346 $348 #
straight-curve $-1 65.888241218298901 -17.774122059488363 -7.9078346753670985 0 -1 0 I I #
face $-1 $-1 $247 $32 $-1 $349 forward single #
loop $-1 $-1 $350 $141 #
plane-surface $-1 65.888241218298901 0 0 -1 0 0 0 0 1 forward_v I I I I #
coedge $-1 $351 $352 $353 $354 reversed $142 $-1 #
coedge $-1 $355 $144 $146 $245 forward $89 $-1 #
coedge $-1 $144 $355 $351 $356 forward $89 $-1 #
coedge $-1 $353 $147 $144 $242 forward $247 $-1 #
edge $-1 $249 -5.4751351421350662 $357 5.5407305393154687 $241 $358 forward 7 unknown #
coedge $-1 $359 $360 $145 $244 forward $236 $-1 #
edge $-1 $361 -90.3664958553411 $248 -78.455363431040709 $243 $362 forward 7 unknown #
edge $-1 $249 111.98446692471859 $361 131.77648243659786 $146 $363 forward 7 unknown #
coedge $-1 $147 $353 $359 $364 forward $247 $-1 #
loop $-1 $-1 $353 $235 #
vertex $-1 $244 $365 #
vertex $-1 $148 $366 #
straight-curve $-1 19.975965772167612 5.442337443544865 15.724586052514425 -1 0 0 I I #
coedge $-1 $251 $251 $-1 $367 reversed $151 $-1 #
edge $-1 $368 0 $368 6.2831853071796004 $152 $369 forward 7 unknown #
vertex $-1 $155 $370 #
ellipse-curve $-1 57.984938073517455 -0.065595397180402415 9.7690198403642352 0.6018150307709319 0 0.79863550430605224 1.1979532564590785 0 -0.90272254615639791 1 I I #
face $-1 $-1 $371 $34 $-1 $372 reversed single #
loop $-1 $-1 $262 $156 #
plane-surface $-1 0 0 15.724586052514425 0 0 1 1 0 0 forward_v I I I I #
coedge $-1 $373 $159 $161 $264 forward $98 $-1 #
coedge $-1 $159 $373 $374 $375 reversed $98 $-1 #
coedge $-1 $376 $162 $159 $261 forward $157 $-1 #
edge $-1 $267 12.233391520172891 $377 23.249257201623433 $260 $378 forward 7 unknown #
coedge $-1 $379 $380 $160 $263 forward $256 $-1 #
edge $-1 $381 30.105669156568382 $266 45.912275446131289 $262 $382 forward 7 unknown #
edge $-1 $267 -131.77648243659786 $381 -111.98446692471859 $161 $383 forward 7 unknown #
coedge $-1 $162 $376 $379 $384 reversed $157 $-1 #
vertex $-1 $384 $385 #
vertex $-1 $163 $386 #
straight-curve $-1 65.888241218298901 29.974715881071049 94.179949483555134 0 0 -1 I I #
coedge $-1 $269 $269 $-1 $387 reversed $166 $-1 #
edge $-1 $388 0 $388 6.2831853071796004 $167 $389 forward 7 unknown #
vertex $-1 $170 $390 #
ellipse-curve $-1 57.984938073517455 35.482648721796316 9.7690198403642352 0.6018150307709319 0 0.79863550430605224 1.1979532564590785 0 -0.90272254615639791 1 I I #
face $-1 $-1 $285 $36 $-1 $391 forward single #
loop $-1 $-1 $392 $171 #
plane-surface $-1 -65.888241218298901 0 0 1 0 0 0 0 -1 forward_v I I I I #
coedge $-1 $393 $394 $278 $395 forward $172 $-1 #
coedge $-1 $396 $174 $176 $283 forward $107 $-1 #
coedge $-1 $174 $396 $276 $395 reversed $107 $-1 #
coedge $-1 $397 $177 $174 $280 forward $285 $-1 #
edge $-1 $287 11.46643601066911 $398 23.504909038124691 $279 $399 forward 7 unknown #
coedge $-1 $400 $392 $175 $282 forward $274 $-1 #
edge $-1 $401 -52.261355760776055 $286 -42.531114942998194 $281 $402 forward 7 unknown #
edge $-1 $287 -17.865485330157767 $401 1.6755591966779756e-014 $176 $403 forward 7 unknown #
coedge $-1 $177 $397 $400 $404 forward $285 $-1 #
loop $-1 $-1 $279 $273 #
vertex $-1 $282 $405 #
vertex $-1 $178 $406 #
straight-curve $-1 -68.829429195290373 28.95210853506601 15.724586052514425 1 0 0 I I #
coedge $-1 $289 $289 $-1 $407 reversed $181 $-1 #
edge $-1 $408 0 $408 6.2831853071796004 $182 $409 forward 7 unknown #
vertex $-1 $185 $410 #
ellipse-curve $-1 -58.396612895461928 31.359803140557126 10.859465643625493 -0.54463904215088732 0 0.83867056331134215 0.41933528165567108 0 0.27231952107544366 1 I I #
coedge $-1 $293 $293 $-1 $411 reversed $188 $-1 #
edge $-1 $412 0 $412 6.2831853071796004 $189 $413 forward 7 unknown #
vertex $-1 $192 $414 #
ellipse-curve $-1 -58.396612895461928 34.9713450487938 10.859465643625493 -0.54463904215088732 0 0.83867056331134215 0.41933528165567108 0 0.27231952107544366 1 I I #
coedge $-1 $297 $297 $-1 $415 reversed $195 $-1 #
edge $-1 $416 0 $416 6.2831853071796004 $196 $417 forward 7 unknown #
vertex $-1 $199 $418 #
ellipse-curve $-1 -58.396612895461928 38.582886957030475 10.859465643625493 -0.54463904215088732 0 0.83867056331134215 0.41933528165567108 0 0.27231952107544366 1 I I #
face $-1 $-1 $215 $30 $-1 $419 reversed single #
loop $-1 $-1 $317 $200 #
plane-surface $-1 0 40.990581562521591 0 0 -1 0 0 0 -1 forward_v I I I I #
coedge $-1 $420 $315 $318 $421 forward $201 $-1 #
coedge $-1 $321 $203 $204 $309 reversed $126 $-1 #
coedge $-1 $315 $420 $203 $307 reversed $201 $-1 #
edge $-1 $322 -15.724586052514425 $422 15.724586052514425 $306 $423 forward 7 unknown #
coedge $-1 $205 $204 $420 $424 forward $81 $-1 #
edge $-1 $313 -65.888241218298901 $422 65.888241218298901 $305 $425 forward 7 unknown #
coedge $-1 $318 $317 $205 $311 reversed $302 $-1 #
edge $-1 $426 -65.888241218298901 $312 65.888241218298901 $310 $427 forward 7 unknown #
vertex $-1 $207 $428 #
vertex $-1 $324 $429 #
straight-curve $-1 65.888241218298901 0 -15.724586052514425 0 -1 0 I I #
coedge $-1 $304 $306 $208 $316 reversed $201 $-1 #
edge $-1 $319 -40.990581562521591 $322 40.990581562521591 $315 $430 forward 7 unknown #
coedge $-1 $310 $209 $214 $325 forward $302 $-1 #
coedge $-1 $209 $310 $304 $421 reversed $302 $-1 #
vertex $-1 $210 $431 #
straight-curve $-1 0 40.990581562521591 15.724586052514425 -1 0 0 I I #
coedge $-1 $211 $305 $213 $324 reversed $126 $-1 #
vertex $-1 $316 $432 #
straight-curve $-1 0 -40.990581562521591 15.724586052514425 1 0 0 I I #
edge $-1 $216 -15.724586052514425 $313 15.724586052514425 $213 $433 forward 7 unknown #
edge $-1 $217 -15.724586052514425 $312 15.724586052514425 $214 $434 forward 7 unknown #
point $-1 65.888241218298901 -40.990581562521591 15.724586052514425 #
point $-1 65.888241218298901 40.990581562521591 15.724586052514425 #
face $-1 $-1 $435 $31 $-1 $436 reversed single #
loop $-1 $-1 $229 $219 #
plane-surface $-1 0 -40.990581562521591 0 0 1 0 0 0 1 forward_v I I I I #
coedge $-1 $437 $222 $335 $438 forward $134 $-1 #
coedge $-1 $222 $437 $439 $440 forward $134 $-1 #
edge $-1 $441 -65.888241218298901 $336 65.888241218298901 $222 $442 forward 7 unknown #
coedge $-1 $224 $223 $443 $444 reversed $85 $-1 #
coedge $-1 $225 $231 $331 $438 reversed $220 $-1 #
vertex $-1 $438 $445 #
straight-curve $-1 65.888241218298901 -30.105906675431861 -5.9081051819703809 0 0 1 I I #
coedge $-1 $443 $446 $227 $339 forward $435 $-1 #
edge $-1 $344 -23.216459503033228 $340 -12.331784615943498 $338 $447 forward 7 unknown #
vertex $-1 $339 $448 #
straight-curve $-1 0 -30.105906675431861 -7.9078346753670985 -1 0 0 I I #
coedge $-1 $449 $229 $446 $450 forward $329 $-1 #
coedge $-1 $229 $449 $231 $346 reversed $329 $-1 #
vertex $-1 $450 $451 #
straight-curve $-1 0 -40.990581562521591 -7.9078346753670985 -1 0 0 I I #
edge $-1 $233 7.9078346753670985 $452 15.724586052514425 $231 $453 forward 7 unknown #
point $-1 65.888241218298901 -30.105906675431861 -7.9078346753670985 #
point $-1 65.888241218298901 -40.990581562521591 -7.9078346753670985 #
plane-surface $-1 0 0 15.724586052514425 0 0 1 1 0 0 forward_v I I I I #
coedge $-1 $360 $359 $352 $454 forward $236 $-1 #
coedge $-1 $352 $238 $240 $356 reversed $142 $-1 #
coedge $-1 $238 $351 $350 $454 reversed $142 $-1 #
coedge $-1 $246 $241 $238 $354 forward $247 $-1 #
edge $-1 $357 30.105669156568382 $455 45.912275446131289 $353 $456 forward 7 unknown #
coedge $-1 $240 $239 $360 $457 reversed $89 $-1 #
edge $-1 $458 -131.77648243659786 $357 -111.98446692471859 $351 $459 forward 7 unknown #
vertex $-1 $242 $460 #
straight-curve $-1 50.081634928735987 -0.032797698590201207 15.724586052514425 0 -1 0 I I #
coedge $-1 $350 $243 $246 $364 reversed $236 $-1 #
coedge $-1 $243 $350 $355 $457 forward $236 $-1 #
vertex $-1 $244 $461 #
straight-curve $-1 65.888241218298901 5.442337443544865 94.179949483555134 0 0 1 I I #
straight-curve $-1 -39.353136288131054 5.442337443544865 83.118521460680341 0.79863550430605224 0 -0.6018150307709319 I I #
edge $-1 $455 -5.5735282379056699 $248 5.442337443544865 $359 $462 forward 7 unknown #
point $-1 65.888241218298901 5.442337443544865 15.724586052514425 #
point $-1 50.081634928735994 5.442337443544865 15.724586052514425 #
edge $-1 $463 1 $463 0 $251 $-1 forward 7 unknown #
vertex $-1 $252 $464 #
ellipse-curve $-1 54.883993698070476 -0.065595397180402415 5.653927746473431 0.6018150307709319 0 0.79863550430605224 1.1979532564590785 0 -0.90272254615639791 1 I I #
point $-1 59.182891329976556 -0.065595397180402415 8.8662972942078682 #
loop $-1 $-1 $374 $255 #
plane-surface $-1 0 40.990581562521591 0 0 -1 0 0 0 -1 forward_v I I I I #
coedge $-1 $259 $258 $380 $465 reversed $98 $-1 #
coedge $-1 $466 $467 $259 $375 forward $371 $-1 #
edge $-1 $377 -91.051088738602829 $468 -71.259073226723558 $374 $469 forward 7 unknown #
coedge $-1 $265 $260 $467 $470 reversed $157 $-1 #
vertex $-1 $261 $471 #
straight-curve $-1 65.888241218298901 17.741324360898158 3.8134536282140417 0 1 0 I I #
coedge $-1 $472 $262 $265 $384 forward $256 $-1 #
coedge $-1 $262 $472 $373 $465 forward $256 $-1 #
vertex $-1 $263 $473 #
straight-curve $-1 19.975965772167612 29.974715881071049 15.724586052514425 1 0 0 I I #
straight-curve $-1 -39.353136288131054 29.974715881071049 83.118521460680341 -0.79863550430605224 0 0.6018150307709319 I I #
edge $-1 $266 29.974715881071049 $474 40.990581562521591 $265 $475 forward 7 unknown #
point $-1 65.888241218298901 29.974715881071049 15.724586052514425 #
point $-1 65.888241218298916 29.974715881071049 3.8134536282140346 #
edge $-1 $476 1 $476 0 $269 $-1 forward 7 unknown #
vertex $-1 $270 $477 #
ellipse-curve $-1 54.883993698070476 35.482648721796316 5.653927746473431 0.6018150307709319 0 0.79863550430605224 1.1979532564590785 0 -0.90272254615639791 1 I I #
point $-1 59.182891329976556 35.482648721796316 8.8662972942078682 #
plane-surface $-1 0 0 15.724586052514425 0 0 1 1 0 0 forward_v I I I I #
coedge $-1 $281 $478 $396 $479 forward $274 $-1 #
coedge $-1 $394 $276 $478 $480 reversed $172 $-1 #
coedge $-1 $276 $393 $397 $481 reversed $172 $-1 #
edge $-1 $398 8.1314016354300662 $482 25.996886965587848 $276 $483 forward 7 unknown #
coedge $-1 $278 $277 $392 $479 reversed $107 $-1 #
coedge $-1 $284 $279 $394 $481 forward $285 $-1 #
vertex $-1 $481 $484 #
straight-curve $-1 -50.904984572624954 17.4856725243969 15.724586052514425 0 1 0 I I #
coedge $-1 $478 $281 $284 $404 reversed $274 $-1 #
vertex $-1 $282 $485 #
straight-curve $-1 -65.888241218298901 28.95210853506601 58.255700995512619 0 0 1 I I #
straight-curve $-1 -65.888241218298887 28.95210853506601 5.9943452347365707 -0.83867056331134215 0 -0.54463904215088732 I I #
edge $-1 $486 -40.990581562521591 $286 -28.95210853506601 $400 $487 forward 7 unknown #
point $-1 -65.888241218298901 28.95210853506601 15.724586052514425 #
point $-1 -50.904984572624954 28.95210853506601 15.724586052514425 #
edge $-1 $488 1 $488 0 $289 $-1 forward 7 unknown #
vertex $-1 $290 $489 #
ellipse-curve $-1 -57.851973853311037 31.359803140557126 10.020795080314148 -0.54463904215088732 0 0.83867056331134215 0.41933528165567108 0 0.27231952107544366 1 I I #
point $-1 -57.977277613806251 31.359803140557126 11.131785164700934 #
edge $-1 $490 1 $490 0 $293 $-1 forward 7 unknown #
vertex $-1 $294 $491 #
ellipse-curve $-1 -57.851973853311037 34.9713450487938 10.020795080314148 -0.54463904215088732 0 0.83867056331134215 0.41933528165567108 0 0.27231952107544366 1 I I #
point $-1 -57.977277613806251 34.9713450487938 11.131785164700934 #
edge $-1 $492 1 $492 0 $297 $-1 forward 7 unknown #
vertex $-1 $298 $493 #
ellipse-curve $-1 -57.851973853311037 38.582886957030475 10.020795080314148 -0.54463904215088732 0 0.83867056331134215 0.41933528165567108 0 0.27231952107544366 1 I I #
point $-1 -57.977277613806251 38.582886957030475 11.131785164700934 #
plane-surface $-1 65.888241218298901 0 0 -1 0 0 0 0 1 forward_v I I I I #
coedge $-1 $306 $304 $308 $424 reversed $201 $-1 #
edge $-1 $319 -15.724586052514425 $426 15.724586052514425 $318 $494 forward 7 unknown #
vertex $-1 $424 $495 #
straight-curve $-1 -65.888241218298901 -40.990581562521591 0 0 0 -1 I I #
edge $-1 $422 -40.990581562521591 $426 40.990581562521591 $420 $496 forward 7 unknown #
straight-curve $-1 0 -40.990581562521591 -15.724586052514425 -1 0 0 I I #
vertex $-1 $311 $497 #
straight-curve $-1 0 40.990581562521591 -15.724586052514425 1 0 0 I I #
point $-1 65.888241218298901 40.990581562521591 -15.724586052514425 #
point $-1 65.888241218298901 -40.990581562521591 -15.724586052514425 #
straight-curve $-1 -65.888241218298901 0 15.724586052514425 0 -1 0 I I #
point $-1 -65.888241218298901 40.990581562521591 15.724586052514425 #
point $-1 -65.888241218298901 -40.990581562521591 15.724586052514425 #
straight-curve $-1 65.888241218298901 -40.990581562521591 0 0 0 -1 I I #
straight-curve $-1 65.888241218298901 40.990581562521591 0 0 0 -1 I I #
loop $-1 $-1 $443 $328 #
plane-surface $-1 -65.888241218298901 0 0 1 0 0 0 0 -1 forward_v I I I I #
coedge $-1 $332 $331 $449 $498 forward $134 $-1 #
edge $-1 $336 30.105906675431861 $452 40.990581562521591 $335 $499 forward 7 unknown #
coedge $-1 $446 $443 $332 $440 reversed $435 $-1 #
edge $-1 $500 -40.990581562521591 $441 -30.105906675431861 $439 $501 forward 7 unknown #
vertex $-1 $444 $502 #
straight-curve $-1 0 -30.105906675431861 -15.724586052514425 1 0 0 I I #
coedge $-1 $439 $338 $334 $444 forward $435 $-1 #
edge $-1 $340 1.9997294933967176 $441 9.8164808705440443 $443 $503 forward 7 unknown #
point $-1 65.888241218298901 -30.105906675431861 -15.724586052514425 #
coedge $-1 $338 $439 $342 $450 reversed $435 $-1 #
straight-curve $-1 -65.888241218298901 -17.774122059488363 -7.9078346753670985 0 1 0 I I #
point $-1 -65.888241218298901 -30.105906675431861 -7.9078346753670985 #
coedge $-1 $343 $342 $437 $498 reversed $329 $-1 #
edge $-1 $344 7.9078346753670985 $500 15.724586052514425 $446 $504 forward 7 unknown #
point $-1 -65.888241218298901 -40.990581562521591 -7.9078346753670985 #
vertex $-1 $346 $505 #
straight-curve $-1 65.888241218298901 -40.990581562521591 0 0 0 -1 I I #
edge $-1 $455 78.455363431040709 $458 90.3664958553411 $350 $506 forward 7 unknown #
vertex $-1 $364 $507 #
straight-curve $-1 19.975965772167612 -5.5735282379056699 15.724586052514425 1 0 0 I I #
edge $-1 $458 -5.5407305393154687 $361 5.4751351421350662 $360 $508 forward 7 unknown #
vertex $-1 $457 $509 #
straight-curve $-1 -39.353136288131054 -5.5735282379056699 83.118521460680341 -0.79863550430605224 0 0.6018150307709319 I I #
point $-1 50.081634928735994 -5.5735282379056699 15.724586052514425 #
point $-1 65.888241218298916 5.442337443544865 3.8134536282140346 #
straight-curve $-1 65.888241218298901 0 15.724586052514425 0 1 0 I I #
vertex $-1 $367 $510 #
point $-1 56.081946954529556 -0.065595397180402415 4.7512052003170329 #
edge $-1 $468 -23.249257201623426 $381 -12.233391520172891 $380 $511 forward 7 unknown #
coedge $-1 $467 $374 $472 $512 reversed $371 $-1 #
coedge $-1 $374 $466 $376 $470 forward $371 $-1 #
vertex $-1 $375 $513 #
straight-curve $-1 -6.8283909540702776 40.990581562521591 58.609367399163148 -0.79863550430605224 0 0.6018150307709319 I I #
edge $-1 $474 -15.724586052514425 $377 -3.8134536282140363 $376 $514 forward 7 unknown #
point $-1 65.888241218298901 40.990581562521591 3.8134536282140363 #
coedge $-1 $380 $379 $466 $512 forward $256 $-1 #
point $-1 50.081634928735994 29.974715881071049 15.724586052514425 #
vertex $-1 $384 $515 #
straight-curve $-1 65.888241218298901 0 15.724586052514425 0 1 0 I I #
vertex $-1 $387 $516 #
point $-1 56.081946954529556 35.482648721796316 4.7512052003170329 #
coedge $-1 $392 $400 $393 $480 forward $274 $-1 #
edge $-1 $482 -23.504909038124691 $401 -11.46643601066911 $392 $517 forward 7 unknown #
edge $-1 $486 -15.724586052514425 $482 -5.9943452347365618 $393 $518 forward 7 unknown #
edge $-1 $398 50.904984572624954 $486 65.888241218298901 $394 $519 forward 7 unknown #
vertex $-1 $479 $520 #
straight-curve $-1 -44.08541738252805 40.990581562521591 20.153264850579212 -0.83867056331134215 0 -0.54463904215088732 I I #
point $-1 -50.904984572624954 40.990581562521591 15.724586052514425 #
point $-1 -65.888241218298901 28.95210853506601 5.9943452347365618 #
vertex $-1 $481 $521 #
straight-curve $-1 -65.888241218298901 0 15.724586052514425 0 -1 0 I I #
vertex $-1 $407 $522 #
point $-1 -57.432638571655367 31.359803140557126 10.293114601389592 #
vertex $-1 $411 $523 #
point $-1 -57.432638571655367 34.9713450487938 10.293114601389592 #
vertex $-1 $415 $524 #
point $-1 -57.432638571655367 38.582886957030475 10.293114601389592 #
straight-curve $-1 -65.888241218298901 40.990581562521591 0 0 0 -1 I I #
point $-1 -65.888241218298901 -40.990581562521591 -15.724586052514425 #
straight-curve $-1 -65.888241218298901 0 -15.724586052514425 0 1 0 I I #
point $-1 -65.888241218298901 40.990581562521591 -15.724586052514425 #
edge $-1 $452 -65.888241218298901 $500 65.888241218298901 $449 $525 forward 7 unknown #
straight-curve $-1 65.888241218298901 0 -15.724586052514425 0 -1 0 I I #
vertex $-1 $440 $526 #
straight-curve $-1 -65.888241218298901 0 -15.724586052514425 0 1 0 I I #
point $-1 -65.888241218298901 -30.105906675431861 -15.724586052514425 #
straight-curve $-1 -65.888241218298901 -30.105906675431861 -5.9081051819703809 0 0 -1 I I #
straight-curve $-1 -65.888241218298901 -40.990581562521591 0 0 0 -1 I I #
point $-1 65.888241218298901 -40.990581562521591 -15.724586052514425 #
straight-curve $-1 65.888241218298901 -5.5735282379056699 94.179949483555134 0 0 -1 I I #
point $-1 65.888241218298901 -5.5735282379056699 15.724586052514425 #
straight-curve $-1 65.888241218298901 -0.032797698590201207 3.8134536282140417 0 1 0 I I #
point $-1 65.888241218298916 -5.5735282379056699 3.8134536282140346 #
point $-1 53.981271151914079 -0.065595397180402415 4.455974490014353 #
straight-curve $-1 50.081634928735987 17.741324360898158 15.724586052514425 0 -1 0 I I #
edge $-1 $474 -65.888241218298901 $468 -50.081634928735994 $466 $527 forward 7 unknown #
point $-1 50.081634928735994 40.990581562521584 15.724586052514425 #
straight-curve $-1 65.888241218298901 40.990581562521591 0 0 0 -1 I I #
point $-1 65.888241218298901 40.990581562521591 15.724586052514425 #
point $-1 53.981271151914079 35.482648721796316 4.455974490014353 #
straight-curve $-1 -65.888241218298901 17.4856725243969 5.9943452347365689 0 -1 0 I I #
straight-curve $-1 -65.888241218298901 40.990581562521591 0 0 0 -1 I I #
straight-curve $-1 0 40.990581562521591 15.724586052514425 -1 0 0 I I #
point $-1 -65.888241218298901 40.990581562521591 5.9943452347365618 #
point $-1 -65.888241218298901 40.990581562521591 15.724586052514425 #
point $-1 -57.579654332235592 31.359803140557126 9.6014597986584782 #
point $-1 -57.579654332235592 34.9713450487938 9.6014597986584782 #
point $-1 -57.579654332235592 38.582886957030475 9.6014597986584782 #
straight-curve $-1 0 -40.990581562521591 -15.724586052514425 -1 0 0 I I #
point $-1 -65.888241218298901 -40.990581562521591 -15.724586052514425 #
straight-curve $-1 0 40.990581562521591 15.724586052514425 -1 0 0 I I #
End-of-ACIS-data 