500 0 5 0           
7 Unknown 11 ACIS 5.0 NT 24 Thu Mar 25 16:49:48 1999 
-1 9.9999999999999995e-007 1e-010 
body $-1 $5 $-1 $6 #
body $-1 $7 $-1 $8 #
body $-1 $9 $-1 $10 #
body $-1 $11 $-1 $12 #
body $-1 $13 $-1 $14 #
lump $-1 $-1 $15 $0 #
transform $-1 1 0 0 0 1 0 0 0 1 74.006164738914151 39.018619385754171 14.983830976069926 1 rotate no_reflect no_shear #
lump $-1 $-1 $16 $1 #
transform $-1 1 0 0 0 1 0 0 0 1 74.006164738914151 39.018619385754171 14.983830976069926 1 rotate no_reflect no_shear #
lump $-1 $-1 $17 $2 #
transform $-1 1 0 0 0 1 0 0 0 1 74.006164738914151 39.018619385754171 14.983830976069926 1 rotate no_reflect no_shear #
lump $-1 $-1 $18 $3 #
transform $-1 1 0 0 0 1 0 0 0 1 74.006164738914151 39.018619385754171 14.983830976069926 1 rotate no_reflect no_shear #
lump $-1 $-1 $19 $4 #
transform $-1 1 0 0 0 1 0 0 0 1 74.006164738914151 39.018619385754171 14.983830976069926 1 rotate no_reflect no_shear #
shell $-1 $-1 $-1 $20 $-1 $5 #
shell $-1 $-1 $-1 $21 $-1 $7 #
shell $-1 $-1 $-1 $22 $-1 $9 #
shell $-1 $-1 $-1 $23 $-1 $11 #
shell $-1 $-1 $-1 $24 $-1 $13 #
face $-1 $25 $26 $15 $-1 $27 forward single #
face $-1 $28 $29 $16 $-1 $30 reversed single #
face $-1 $31 $32 $17 $-1 $33 reversed single #
face $-1 $34 $35 $18 $-1 $36 forward single #
face $-1 $37 $38 $19 $-1 $39 reversed single #
face $-1 $40 $41 $15 $-1 $42 reversed single #
loop $-1 $-1 $43 $20 #
plane-surface $-1 0 0 14.983830976069926 0 0 1 1 0 0 forward_v I I I I #
face $-1 $44 $45 $16 $-1 $46 forward single #
loop $-1 $-1 $47 $21 #
plane-surface $-1 0 -29.413291859117464 -9.4348702728557736 0 0 1 1 0 0 forward_v I I I I #
face $-1 $48 $49 $17 $-1 $50 forward single #
loop $-1 $-1 $51 $22 #
plane-surface $-1 0 29.413291859117457 -9.4348702728557736 0 0 1 1 0 0 forward_v I I I I #
face $-1 $52 $53 $18 $-1 $54 forward single #
loop $-1 $-1 $55 $23 #
plane-surface $-1 48.496348612291527 8.1990783290369649 215.72929270424672 0 -1 0 -0.61566148304635926 0 -0.78801074757464917 forward_v I I I I #
face $-1 $56 $57 $19 $-1 $58 reversed single #
loop $-1 $59 $60 $24 #
cone-surface $-1 68.352741362146475 4.7000745344058217 9.9865497523186697 -0.61566148304635926 0 -0.78801074757464917 1.1820161213619738 0 -0.92349222456953894 1 I I 0 1 1.5 forward I I I I #
face $-1 $61 $62 $15 $-1 $63 reversed single #
loop $-1 $-1 $64 $25 #
plane-surface $-1 0 0 -14.983830976069926 0 0 1 1 0 0 forward_v I I I I #
coedge $-1 $65 $66 $67 $68 forward $26 $-1 #
face $-1 $69 $70 $16 $-1 $71 reversed single #
loop $-1 $-1 $72 $28 #
plane-surface $-1 0 -19.807964332480758 -12.20935062446285 0 -1 0 0 0 -1 forward_v I I I I #
coedge $-1 $73 $74 $75 $76 reversed $29 $-1 #
face $-1 $77 $78 $17 $-1 $79 reversed single #
loop $-1 $-1 $80 $31 #
plane-surface $-1 0 19.807964332480751 -12.20935062446285 0 1 0 0 0 1 forward_v I I I I #
coedge $-1 $81 $82 $83 $84 reversed $32 $-1 #
face $-1 $85 $86 $18 $-1 $87 forward single #
loop $-1 $-1 $88 $34 #
plane-surface $-1 -42.629141663174607 4.7000745344058217 99.093986302157958 0.61566148304635926 0 0.78801074757464917 0.78801074757464917 0 -0.61566148304635926 forward_v I I I I #
coedge $-1 $89 $90 $91 $92 reversed $35 $-1 #
face $-1 $93 $94 $19 $-1 $95 forward single #
loop $-1 $96 $97 $37 #
cone-surface $-1 66.727181415169042 4.7000745344058217 7.905927942575472 -0.61566148304635926 0 -0.78801074757464917 0.59100806068098688 0 -0.46174611228476947 1 I I -0.70710678118654668 0.70710678118654835 0.75 forward I I I I #
loop $-1 $-1 $98 $24 #
coedge $-1 $60 $60 $99 $100 reversed $38 $-1 #
face $-1 $101 $102 $15 $-1 $103 reversed single #
loop $-1 $-1 $104 $40 #
plane-surface $-1 0 -39.018619385754171 0 0 1 0 0 0 1 forward_v I I I I #
coedge $-1 $105 $106 $107 $108 forward $41 $-1 #
coedge $-1 $109 $43 $110 $111 forward $26 $-1 #
coedge $-1 $43 $109 $112 $113 forward $26 $-1 #
coedge $-1 $114 $115 $43 $68 reversed $116 $-1 #
edge $-1 $117 -39.018619385754171 $118 39.018619385754171 $67 $119 forward 7 unknown #
face $-1 $120 $121 $16 $-1 $122 reversed single #
loop $-1 $-1 $123 $44 #
plane-surface $-1 0 -39.018619385754171 0 0 1 0 0 0 1 forward_v I I I I #
coedge $-1 $124 $125 $126 $127 reversed $45 $-1 #
coedge $-1 $128 $47 $123 $129 reversed $29 $-1 #
coedge $-1 $47 $128 $124 $130 reversed $29 $-1 #
coedge $-1 $126 $131 $47 $76 forward $132 $-1 #
edge $-1 $133 -24.311973456195439 $134 -5.1013184029220255 $75 $135 forward 7 unknown #
face $-1 $136 $137 $17 $-1 $138 reversed single #
loop $-1 $-1 $139 $48 #
plane-surface $-1 0 39.018619385754171 0 0 -1 0 0 0 -1 forward_v I I I I #
coedge $-1 $140 $141 $142 $143 reversed $49 $-1 #
coedge $-1 $144 $51 $140 $145 reversed $32 $-1 #
coedge $-1 $51 $144 $139 $146 reversed $32 $-1 #
coedge $-1 $147 $148 $51 $84 forward $149 $-1 #
edge $-1 $150 5.101318402922022 $151 24.311973456195435 $83 $152 forward 7 unknown #
face $-1 $153 $154 $18 $-1 $155 forward single #
loop $-1 $-1 $156 $52 #
plane-surface $-1 48.496348612291527 1.2010707397746785 215.72929270424672 0 1 0 0.61566148304635926 0 0.78801074757464917 forward_v I I I I #
coedge $-1 $157 $158 $159 $160 reversed $53 $-1 #
coedge $-1 $90 $55 $158 $161 forward $35 $-1 #
coedge $-1 $55 $89 $162 $163 reversed $35 $-1 #
coedge $-1 $164 $159 $55 $92 forward $154 $-1 #
edge $-1 $165 40.778771348618342 $166 49.757990432768388 $91 $167 forward 7 unknown #
face $-1 $168 $169 $19 $-1 $170 forward single #
loop $-1 $-1 $171 $56 #
plane-surface $-1 48.496348612291527 8.1990783290369649 215.72929270424672 0 -1 0 -0.61566148304635926 0 -0.78801074757464917 forward_v I I I I #
loop $-1 $-1 $172 $37 #
coedge $-1 $97 $97 $98 $173 forward $57 $-1 #
coedge $-1 $98 $98 $97 $173 reversed $59 $-1 #
coedge $-1 $99 $99 $60 $100 forward $169 $-1 #
edge $-1 $174 0 $174 6.2831853071796004 $99 $175 forward 7 unknown #
face $-1 $176 $177 $15 $-1 $178 reversed single #
loop $-1 $-1 $179 $61 #
plane-surface $-1 -74.006164738914151 0 0 1 0 0 0 0 -1 forward_v I I I I #
coedge $-1 $180 $112 $181 $182 forward $62 $-1 #
coedge $-1 $183 $64 $180 $184 forward $41 $-1 #
coedge $-1 $64 $183 $185 $186 forward $41 $-1 #
coedge $-1 $115 $114 $64 $108 reversed $116 $-1 #
edge $-1 $187 -39.018619385754171 $188 39.018619385754171 $107 $189 forward 7 unknown #
coedge $-1 $66 $65 $190 $191 forward $26 $-1 #
coedge $-1 $192 $193 $65 $111 reversed $177 $-1 #
edge $-1 $118 -74.006164738914151 $194 74.006164738914151 $110 $195 forward 7 unknown #
coedge $-1 $104 $196 $66 $113 reversed $62 $-1 #
edge $-1 $197 -74.006164738914151 $117 74.006164738914151 $112 $198 forward 7 unknown #
coedge $-1 $107 $67 $196 $199 forward $116 $-1 #
coedge $-1 $67 $107 $192 $200 reversed $116 $-1 #
loop $-1 $-1 $114 $176 #
vertex $-1 $68 $201 #
vertex $-1 $68 $202 #
straight-curve $-1 74.006164738914151 0 14.983830976069926 0 1 0 I I #
face $-1 $203 $204 $16 $-1 $205 forward single #
loop $-1 $-1 $206 $69 #
plane-surface $-1 0 0 -14.983830976069926 0 0 1 1 0 0 forward_v I I I I #
coedge $-1 $207 $208 $73 $129 forward $70 $-1 #
coedge $-1 $209 $72 $74 $130 forward $45 $-1 #
coedge $-1 $72 $209 $206 $210 reversed $45 $-1 #
coedge $-1 $211 $75 $72 $127 forward $132 $-1 #
edge $-1 $134 3.3301949606243486 $212 8.8791556638385014 $126 $213 forward 7 unknown #
coedge $-1 $74 $73 $214 $215 reversed $29 $-1 #
edge $-1 $216 -74.006164738914151 $133 74.006164738914151 $123 $217 forward 7 unknown #
edge $-1 $134 -74.006164738914151 $218 74.006164738914151 $124 $219 forward 7 unknown #
coedge $-1 $75 $220 $207 $221 forward $132 $-1 #
loop $-1 $-1 $126 $222 #
vertex $-1 $129 $223 #
vertex $-1 $76 $224 #
straight-curve $-1 74.006164738914151 -14.706645929558732 -9.4348702728557736 0 1 0 I I #
face $-1 $225 $226 $17 $-1 $227 reversed single #
loop $-1 $-1 $228 $77 #
plane-surface $-1 -74.006164738914151 0 0 1 0 0 0 0 -1 forward_v I I I I #
coedge $-1 $229 $230 $82 $146 forward $78 $-1 #
coedge $-1 $231 $80 $81 $145 forward $49 $-1 #
coedge $-1 $80 $231 $232 $233 reversed $49 $-1 #
coedge $-1 $234 $228 $80 $143 forward $137 $-1 #
edge $-1 $235 3.3301949606243486 $236 8.8791556638385014 $142 $237 forward 7 unknown #
coedge $-1 $82 $81 $228 $238 reversed $32 $-1 #
edge $-1 $235 -74.006164738914151 $150 74.006164738914151 $140 $239 forward 7 unknown #
edge $-1 $151 -74.006164738914151 $240 74.006164738914151 $139 $241 forward 7 unknown #
coedge $-1 $242 $83 $230 $243 reversed $149 $-1 #
coedge $-1 $83 $244 $231 $245 forward $149 $-1 #
loop $-1 $-1 $83 $246 #
vertex $-1 $84 $247 #
vertex $-1 $146 $248 #
straight-curve $-1 74.006164738914151 14.706645929558729 -9.4348702728557736 0 1 0 I I #
face $-1 $249 $250 $18 $-1 $251 reversed single #
loop $-1 $-1 $252 $85 #
plane-surface $-1 0 0 14.983830976069926 0 0 1 1 0 0 forward_v I I I I #
coedge $-1 $253 $254 $252 $255 reversed $86 $-1 #
coedge $-1 $256 $88 $254 $257 reversed $53 $-1 #
coedge $-1 $88 $256 $89 $161 reversed $53 $-1 #
coedge $-1 $91 $252 $88 $160 forward $154 $-1 #
edge $-1 $258 -1.1489665274282324 $165 5.849041061834054 $159 $259 forward 7 unknown #
edge $-1 $165 136.61753681568959 $260 148.0123294778283 $89 $261 forward 7 unknown #
coedge $-1 $262 $263 $90 $163 forward $264 $-1 #
edge $-1 $166 92.880815376053434 $260 99.896150325431535 $162 $265 forward 7 unknown #
coedge $-1 $266 $91 $263 $267 forward $154 $-1 #
vertex $-1 $160 $268 #
vertex $-1 $267 $269 #
straight-curve $-1 24.248174306145764 8.1990783290369649 14.983830976069925 1 0 0 I I #
face $-1 $270 $271 $19 $-1 $272 forward single #
loop $-1 $273 $99 $93 #
plane-surface $-1 -42.629141663174607 4.7000745344058217 99.093986302157958 0.61566148304635926 0 0.78801074757464917 0.78801074757464917 0 -0.61566148304635926 forward_v I I I I #
coedge $-1 $274 $275 $276 $277 reversed $94 $-1 #
coedge $-1 $172 $172 $-1 $278 forward $96 $-1 #
edge $-1 $279 0 $279 6.2831853071796004 $97 $280 forward 7 unknown #
vertex $-1 $100 $281 #
ellipse-curve $-1 69.516555196839136 4.7000745344058217 11.476163501380869 -0.61566148304635926 0 -0.78801074757464917 1.1820161213619738 0 -0.92349222456953894 1 I I #
face $-1 $-1 $116 $15 $-1 $282 reversed single #
loop $-1 $-1 $192 $101 #
plane-surface $-1 0 39.018619385754171 0 0 -1 0 0 0 -1 forward_v I I I I #
coedge $-1 $283 $190 $193 $284 forward $102 $-1 #
coedge $-1 $196 $104 $105 $184 reversed $62 $-1 #
coedge $-1 $190 $283 $104 $182 reversed $102 $-1 #
edge $-1 $197 -14.983830976069926 $285 14.983830976069926 $181 $286 forward 7 unknown #
coedge $-1 $106 $105 $283 $287 forward $41 $-1 #
edge $-1 $188 -74.006164738914151 $285 74.006164738914151 $180 $288 forward 7 unknown #
coedge $-1 $193 $192 $106 $186 reversed $177 $-1 #
edge $-1 $289 -74.006164738914151 $187 74.006164738914151 $185 $290 forward 7 unknown #
vertex $-1 $108 $291 #
vertex $-1 $199 $292 #
straight-curve $-1 74.006164738914151 0 -14.983830976069926 0 -1 0 I I #
coedge $-1 $179 $181 $109 $191 reversed $102 $-1 #
edge $-1 $194 -39.018619385754171 $197 39.018619385754171 $190 $293 forward 7 unknown #
coedge $-1 $185 $110 $115 $200 forward $177 $-1 #
coedge $-1 $110 $185 $179 $284 reversed $177 $-1 #
vertex $-1 $111 $294 #
straight-curve $-1 0 39.018619385754171 14.983830976069926 -1 0 0 I I #
coedge $-1 $112 $180 $114 $199 reversed $62 $-1 #
vertex $-1 $191 $295 #
straight-curve $-1 0 -39.018619385754171 14.983830976069926 1 0 0 I I #
edge $-1 $117 -14.983830976069926 $188 14.983830976069926 $114 $296 forward 7 unknown #
edge $-1 $118 -14.983830976069926 $187 14.983830976069926 $115 $297 forward 7 unknown #
point $-1 74.006164738914151 -39.018619385754171 14.983830976069926 #
point $-1 74.006164738914151 39.018619385754171 14.983830976069926 #
face $-1 $298 $299 $16 $-1 $300 reversed single #
loop $-1 $-1 $301 $120 #
plane-surface $-1 0 0 14.983830976069926 0 0 1 1 0 0 forward_v I I I I #
coedge $-1 $302 $303 $125 $210 forward $121 $-1 #
coedge $-1 $304 $123 $131 $221 reversed $70 $-1 #
coedge $-1 $123 $304 $305 $306 forward $70 $-1 #
coedge $-1 $125 $124 $307 $308 reversed $45 $-1 #
edge $-1 $212 -74.006164738914151 $309 74.006164738914151 $206 $310 forward 7 unknown #
coedge $-1 $311 $126 $303 $312 reversed $132 $-1 #
vertex $-1 $210 $313 #
straight-curve $-1 74.006164738914151 -19.807964332480758 -6.104675312231425 0 0 -1 I I #
coedge $-1 $305 $307 $128 $215 forward $299 $-1 #
edge $-1 $218 5.1013184029220255 $216 24.311973456195439 $214 $314 forward 7 unknown #
vertex $-1 $129 $315 #
straight-curve $-1 0 -39.018619385754171 -9.4348702728557736 1 0 0 I I #
vertex $-1 $215 $316 #
straight-curve $-1 0 -19.807964332480758 -9.4348702728557736 -1 0 0 I I #
coedge $-1 $131 $311 $301 $317 reversed $132 $-1 #
edge $-1 $318 -14.983830976069926 $133 9.4348702728557736 $131 $319 forward 7 unknown #
face $-1 $-1 $132 $16 $-1 $320 reversed single #
point $-1 74.006164738914151 -39.018619385754171 -9.4348702728557736 #
point $-1 74.006164738914151 -19.807964332480758 -9.4348702728557736 #
face $-1 $321 $322 $17 $-1 $323 forward single #
loop $-1 $-1 $324 $136 #
plane-surface $-1 0 -29.413291859117464 -9.4348702728557736 0 0 1 1 0 0 forward_v I I I I #
coedge $-1 $142 $325 $144 $238 forward $137 $-1 #
coedge $-1 $326 $139 $325 $327 reversed $78 $-1 #
coedge $-1 $139 $326 $147 $243 forward $78 $-1 #
coedge $-1 $141 $140 $148 $245 reversed $49 $-1 #
coedge $-1 $328 $329 $141 $233 forward $330 $-1 #
edge $-1 $236 -74.006164738914151 $331 74.006164738914151 $232 $332 forward 7 unknown #
coedge $-1 $333 $142 $329 $334 reversed $137 $-1 #
vertex $-1 $238 $335 #
vertex $-1 $143 $336 #
straight-curve $-1 -74.006164738914151 19.807964332480751 -6.104675312231425 0 0 -1 I I #
edge $-1 $240 -24.311973456195435 $235 -5.101318402922022 $228 $337 forward 7 unknown #
straight-curve $-1 0 19.807964332480751 -9.4348702728557736 1 0 0 I I #
vertex $-1 $238 $338 #
straight-curve $-1 0 39.018619385754171 -9.4348702728557736 -1 0 0 I I #
coedge $-1 $339 $147 $340 $341 reversed $149 $-1 #
edge $-1 $342 -14.983830976069926 $151 9.4348702728557736 $147 $343 forward 7 unknown #
coedge $-1 $148 $344 $328 $345 reversed $149 $-1 #
edge $-1 $331 -8.8791556638385014 $150 -3.3301949606243486 $148 $346 forward 7 unknown #
face $-1 $-1 $149 $17 $-1 $347 reversed single #
point $-1 74.006164738914151 19.807964332480751 -9.4348702728557736 #
point $-1 74.006164738914151 39.018619385754164 -9.4348702728557736 #
face $-1 $348 $349 $18 $-1 $350 forward single #
loop $-1 $-1 $351 $153 #
plane-surface $-1 0 29.413291859117457 -9.4348702728557736 0 0 1 1 0 0 forward_v I I I I #
coedge $-1 $159 $352 $156 $255 forward $154 $-1 #
coedge $-1 $254 $156 $353 $354 reversed $86 $-1 #
coedge $-1 $156 $253 $157 $257 forward $86 $-1 #
edge $-1 $355 -49.757990432768388 $258 -40.778771348618342 $252 $356 forward 7 unknown #
coedge $-1 $158 $157 $262 $357 reversed $53 $-1 #
edge $-1 $358 -148.0123294778283 $258 -136.61753681568959 $254 $359 forward 7 unknown #
vertex $-1 $160 $360 #
straight-curve $-1 65.026945654764106 2.3500372672029108 14.98383097606991 0 1 0 I I #
vertex $-1 $357 $361 #
straight-curve $-1 -42.629141663174607 8.1990783290369649 99.093986302157958 0.78801074757464917 0 -0.61566148304635926 I I #
coedge $-1 $353 $162 $256 $357 forward $264 $-1 #
coedge $-1 $162 $362 $164 $267 reversed $264 $-1 #
loop $-1 $-1 $353 $363 #
straight-curve $-1 74.006164738914151 8.1990783290369649 107.86464635212336 0 0 -1 I I #
coedge $-1 $364 $164 $365 $366 forward $154 $-1 #
edge $-1 $166 8.1990783290369649 $367 39.018619385754171 $263 $368 forward 7 unknown #
point $-1 65.026945654764106 8.1990783290369649 14.983830976069925 #
point $-1 74.006164738914151 8.1990783290369649 14.983830976069926 #
face $-1 $369 $370 $19 $-1 $371 forward single #
loop $-1 $-1 $372 $168 #
plane-surface $-1 48.496348612291527 1.2010707397746785 215.72929270424672 0 1 0 0.61566148304635926 0 0.78801074757464917 forward_v I I I I #
loop $-1 $-1 $373 $93 #
coedge $-1 $275 $171 $374 $375 forward $94 $-1 #
coedge $-1 $171 $274 $376 $377 reversed $94 $-1 #
coedge $-1 $378 $379 $171 $277 forward $370 $-1 #
edge $-1 $380 40.778771348618342 $381 49.757990432768388 $276 $382 forward 7 unknown #
edge $-1 $383 1 $383 0 $172 $-1 forward 7 unknown #
vertex $-1 $173 $384 #
ellipse-curve $-1 67.188927527453814 4.7000745344058217 8.4969360032564598 0.61566148304635926 0 0.78801074757464917 1.1820161213619738 0 -0.92349222456953894 1 I I #
point $-1 70.698571318201118 4.7000745344058217 10.552671276811337 #
plane-surface $-1 74.006164738914151 0 0 -1 0 0 0 0 1 forward_v I I I I #
coedge $-1 $181 $179 $183 $287 reversed $102 $-1 #
edge $-1 $194 -14.983830976069926 $289 14.983830976069926 $193 $385 forward 7 unknown #
vertex $-1 $287 $386 #
straight-curve $-1 -74.006164738914151 -39.018619385754171 0 0 0 -1 I I #
edge $-1 $285 -39.018619385754171 $289 39.018619385754171 $283 $387 forward 7 unknown #
straight-curve $-1 0 -39.018619385754171 -14.983830976069926 -1 0 0 I I #
vertex $-1 $186 $388 #
straight-curve $-1 0 39.018619385754171 -14.983830976069926 1 0 0 I I #
point $-1 74.006164738914151 39.018619385754171 -14.983830976069926 #
point $-1 74.006164738914151 -39.018619385754171 -14.983830976069926 #
straight-curve $-1 -74.006164738914151 0 14.983830976069926 0 -1 0 I I #
point $-1 -74.006164738914151 39.018619385754171 14.983830976069926 #
point $-1 -74.006164738914151 -39.018619385754171 14.983830976069926 #
straight-curve $-1 74.006164738914151 -39.018619385754171 0 0 0 -1 I I #
straight-curve $-1 74.006164738914151 39.018619385754171 0 0 0 -1 I I #
face $-1 $222 $389 $16 $-1 $390 reversed single #
loop $-1 $-1 $214 $203 #
plane-surface $-1 -74.006164738914151 0 0 1 0 0 0 0 -1 forward_v I I I I #
coedge $-1 $391 $392 $220 $317 forward $204 $-1 #
coedge $-1 $393 $206 $394 $395 forward $121 $-1 #
coedge $-1 $206 $393 $211 $312 forward $121 $-1 #
coedge $-1 $208 $207 $392 $396 reversed $70 $-1 #
coedge $-1 $397 $214 $208 $306 reversed $299 $-1 #
edge $-1 $398 -14.983830976069926 $216 9.4348702728557736 $305 $399 forward 7 unknown #
coedge $-1 $214 $394 $209 $308 forward $299 $-1 #
edge $-1 $309 -8.8791556638385014 $218 -3.3301949606243486 $307 $400 forward 7 unknown #
vertex $-1 $395 $401 #
straight-curve $-1 0 -19.807964332480758 -14.983830976069926 -1 0 0 I I #
coedge $-1 $220 $211 $402 $403 reversed $132 $-1 #
edge $-1 $404 -39.018619385754171 $212 19.807964332480758 $211 $405 forward 7 unknown #
point $-1 74.006164738914151 -19.807964332480758 -14.983830976069926 #
straight-curve $-1 -74.006164738914151 -14.706645929558732 -9.4348702728557736 0 -1 0 I I #
point $-1 -74.006164738914151 -39.018619385754171 -9.4348702728557736 #
point $-1 -74.006164738914151 -19.807964332480758 -9.4348702728557736 #
edge $-1 $318 -39.018619385754171 $406 39.018619385754171 $220 $407 forward 7 unknown #
vertex $-1 $317 $408 #
straight-curve $-1 74.006164738914151 -39.018619385754171 0 0 0 -1 I I #
plane-surface $-1 74.006164738914151 0 0 -1 0 0 0 0 1 forward_v I I I I #
face $-1 $409 $410 $17 $-1 $411 reversed single #
loop $-1 $-1 $412 $225 #
plane-surface $-1 0 -19.807964332480758 -12.20935062446285 0 -1 0 0 0 -1 forward_v I I I I #
coedge $-1 $413 $414 $415 $416 reversed $226 $-1 #
coedge $-1 $228 $417 $229 $327 forward $137 $-1 #
coedge $-1 $230 $229 $418 $419 reversed $78 $-1 #
edge $-1 $420 -14.983830976069926 $240 9.4348702728557736 $229 $421 forward 7 unknown #
coedge $-1 $422 $232 $244 $345 forward $330 $-1 #
coedge $-1 $232 $422 $234 $334 forward $330 $-1 #
loop $-1 $-1 $232 $409 #
vertex $-1 $345 $423 #
straight-curve $-1 0 19.807964332480751 -14.983830976069926 1 0 0 I I #
coedge $-1 $424 $234 $425 $426 forward $137 $-1 #
edge $-1 $427 -19.807964332480758 $236 19.807964332480751 $234 $428 forward 7 unknown #
point $-1 -74.006164738914151 19.807964332480751 -9.4348702728557736 #
point $-1 -74.006164738914151 19.807964332480751 -14.983830976069926 #
straight-curve $-1 -74.006164738914151 14.706645929558729 -9.4348702728557736 0 -1 0 I I #
point $-1 -74.006164738914151 39.018619385754164 -9.4348702728557736 #
coedge $-1 $415 $242 $429 $430 forward $149 $-1 #
coedge $-1 $418 $431 $242 $341 forward $432 $-1 #
edge $-1 $433 -39.018619385754171 $342 39.018619385754171 $242 $434 forward 7 unknown #
vertex $-1 $341 $435 #
straight-curve $-1 74.006164738914151 39.018619385754171 0 0 0 -1 I I #
coedge $-1 $244 $415 $412 $436 forward $149 $-1 #
edge $-1 $331 -19.807964332480751 $437 19.807964332480758 $244 $438 forward 7 unknown #
straight-curve $-1 74.006164738914151 19.807964332480751 -6.104675312231425 0 0 1 I I #
plane-surface $-1 74.006164738914151 0 0 -1 0 0 0 0 1 forward_v I I I I #
face $-1 $439 $440 $18 $-1 $441 reversed single #
loop $-1 $-1 $442 $249 #
plane-surface $-1 0 19.807964332480751 -12.20935062446285 0 1 0 0 0 1 forward_v I I I I #
coedge $-1 $443 $444 $445 $446 reversed $250 $-1 #
coedge $-1 $252 $447 $448 $449 forward $154 $-1 #
coedge $-1 $448 $262 $253 $354 forward $264 $-1 #
edge $-1 $358 -99.896150325431535 $355 -92.880815376053434 $353 $450 forward 7 unknown #
vertex $-1 $354 $451 #
straight-curve $-1 24.248174306145764 1.2010707397746785 14.983830976069925 -1 0 0 I I #
edge $-1 $260 -5.849041061834054 $358 1.1489665274282324 $262 $452 forward 7 unknown #
vertex $-1 $357 $453 #
straight-curve $-1 -42.629141663174607 1.2010707397746785 99.093986302157958 -0.78801074757464917 0 0.61566148304635926 I I #
point $-1 65.026945654764106 1.2010707397746785 14.983830976069925 #
point $-1 74.006164738914151 8.1990783290369649 7.9684960266918239 #
coedge $-1 $263 $445 $454 $455 reversed $264 $-1 #
face $-1 $-1 $264 $18 $-1 $456 reversed single #
coedge $-1 $447 $266 $457 $458 forward $154 $-1 #
coedge $-1 $454 $459 $266 $366 reversed $440 $-1 #
edge $-1 $367 -74.006164738914151 $460 74.006164738914151 $365 $461 forward 7 unknown #
vertex $-1 $267 $462 #
straight-curve $-1 74.006164738914151 0 14.983830976069926 0 1 0 I I #
face $-1 $463 $464 $19 $-1 $465 reversed single #
loop $-1 $-1 $466 $270 #
plane-surface $-1 0 0 14.983830976069926 0 0 1 1 0 0 forward_v I I I I #
coedge $-1 $467 $468 $466 $469 reversed $271 $-1 #
coedge $-1 $470 $374 $379 $471 reversed $273 $-1 #
coedge $-1 $373 $472 $274 $375 reversed $273 $-1 #
edge $-1 $380 136.61753681568959 $473 148.0123294778283 $274 $474 forward 7 unknown #
coedge $-1 $475 $476 $275 $377 forward $477 $-1 #
edge $-1 $381 92.880815376053434 $473 99.896150325431535 $376 $478 forward 7 unknown #
coedge $-1 $479 $276 $476 $480 forward $370 $-1 #
coedge $-1 $276 $466 $373 $471 forward $370 $-1 #
vertex $-1 $471 $481 #
vertex $-1 $480 $482 #
straight-curve $-1 24.248174306145764 8.1990783290369649 14.983830976069925 1 0 0 I I #
vertex $-1 $278 $483 #
point $-1 68.370943648815782 4.7000745344058217 7.5734437786869213 #
straight-curve $-1 -74.006164738914151 39.018619385754171 0 0 0 -1 I I #
point $-1 -74.006164738914151 -39.018619385754171 -14.983830976069926 #
straight-curve $-1 -74.006164738914151 0 -14.983830976069926 0 1 0 I I #
point $-1 -74.006164738914151 39.018619385754171 -14.983830976069926 #
loop $-1 $-1 $402 $298 #
plane-surface $-1 0 39.018619385754171 0 0 -1 0 0 0 -1 forward_v I I I I #
coedge $-1 $484 $301 $485 $486 forward $204 $-1 #
coedge $-1 $301 $484 $304 $396 forward $204 $-1 #
coedge $-1 $303 $302 $487 $488 forward $121 $-1 #
coedge $-1 $307 $489 $302 $395 reversed $299 $-1 #
edge $-1 $309 -19.807964332480758 $490 39.018619385754171 $394 $491 forward 7 unknown #
edge $-1 $398 -74.006164738914151 $318 74.006164738914151 $304 $492 forward 7 unknown #
coedge $-1 $489 $305 $484 $493 reversed $299 $-1 #
vertex $-1 $493 $494 #
straight-curve $-1 -74.006164738914151 -39.018619385754171 0 0 0 -1 I I #
straight-curve $-1 -74.006164738914151 -19.807964332480758 -6.104675312231425 0 0 1 I I #
point $-1 -74.006164738914151 -19.807964332480758 -14.983830976069926 #
coedge $-1 $487 $485 $311 $403 forward $389 $-1 #
edge $-1 $406 -14.983830976069926 $404 14.983830976069926 $311 $495 forward 7 unknown #
vertex $-1 $312 $496 #
straight-curve $-1 74.006164738914151 0 -14.983830976069926 0 -1 0 I I #
vertex $-1 $317 $497 #
straight-curve $-1 74.006164738914151 0 14.983830976069926 0 1 0 I I #
point $-1 74.006164738914151 -39.018619385754171 14.983830976069926 #
face $-1 $498 $330 $17 $-1 $499 reversed single #
loop $-1 $-1 $500 $321 #
plane-surface $-1 0 -39.018619385754171 0 0 1 0 0 0 1 forward_v I I I I #
coedge $-1 $501 $502 $344 $436 reversed $322 $-1 #
coedge $-1 $503 $324 $500 $504 reversed $226 $-1 #
coedge $-1 $324 $503 $501 $505 reversed $226 $-1 #
coedge $-1 $344 $339 $324 $416 forward $149 $-1 #
edge $-1 $506 -24.311973456195439 $507 -5.1013184029220255 $415 $508 forward 7 unknown #
coedge $-1 $325 $509 $510 $511 reversed $137 $-1 #
coedge $-1 $510 $340 $326 $419 forward $432 $-1 #
edge $-1 $342 -74.006164738914151 $420 74.006164738914151 $326 $512 forward 7 unknown #
vertex $-1 $419 $513 #
straight-curve $-1 -74.006164738914151 39.018619385754171 0 0 0 -1 I I #
coedge $-1 $329 $328 $502 $514 forward $330 $-1 #
point $-1 74.006164738914151 19.807964332480751 -14.983830976069926 #
coedge $-1 $509 $333 $503 $515 forward $137 $-1 #
coedge $-1 $502 $501 $333 $426 reversed $322 $-1 #
edge $-1 $427 -8.8791556638385014 $516 -3.3301949606243486 $333 $517 forward 7 unknown #
vertex $-1 $334 $518 #
straight-curve $-1 -74.006164738914151 0 -14.983830976069926 0 1 0 I I #
coedge $-1 $519 $500 $339 $430 reversed $410 $-1 #
edge $-1 $433 -14.983830976069926 $506 9.4348702728557736 $339 $520 forward 7 unknown #
coedge $-1 $340 $510 $519 $521 forward $432 $-1 #
loop $-1 $-1 $340 $498 #
vertex $-1 $341 $522 #
straight-curve $-1 74.006164738914151 0 14.983830976069926 0 1 0 I I #
point $-1 74.006164738914151 39.018619385754171 14.983830976069926 #
edge $-1 $507 3.3301949606243486 $437 8.8791556638385014 $344 $523 forward 7 unknown #
vertex $-1 $514 $524 #
straight-curve $-1 74.006164738914151 0 -14.983830976069926 0 -1 0 I I #
face $-1 $525 $526 $18 $-1 $527 reversed single #
loop $-1 $-1 $528 $348 #
plane-surface $-1 0 39.018619385754171 0 0 -1 0 0 0 -1 forward_v I I I I #
coedge $-1 $529 $530 $531 $532 reversed $349 $-1 #
coedge $-1 $533 $351 $529 $534 reversed $250 $-1 #
coedge $-1 $351 $533 $528 $535 reversed $250 $-1 #
coedge $-1 $362 $536 $351 $446 forward $264 $-1 #
edge $-1 $537 5.101318402922022 $538 24.311973456195435 $445 $539 forward 7 unknown #
coedge $-1 $352 $364 $540 $541 forward $154 $-1 #
coedge $-1 $542 $353 $352 $449 reversed $264 $-1 #
edge $-1 $543 -39.018619385754171 $355 1.2010707397746785 $448 $368 forward 7 unknown #
straight-curve $-1 74.006164738914151 1.2010707397746785 107.86464635212336 0 0 1 I I #
point $-1 74.006164738914151 1.2010707397746785 14.983830976069926 #
straight-curve $-1 74.006164738914151 2.3500372672029108 7.968496026691831 0 -1 0 I I #
point $-1 74.006164738914151 1.2010707397746785 7.9684960266918239 #
coedge $-1 $528 $365 $362 $455 forward $440 $-1 #
edge $-1 $367 -14.983830976069926 $538 9.4348702728557736 $362 $544 forward 7 unknown #
plane-surface $-1 74.006164738914151 0 0 -1 0 0 0 0 1 forward_v I I I I #
coedge $-1 $545 $546 $364 $458 reversed $526 $-1 #
edge $-1 $460 -39.018619385754171 $547 39.018619385754171 $457 $548 forward 7 unknown #
coedge $-1 $365 $528 $545 $549 reversed $440 $-1 #
vertex $-1 $366 $550 #
straight-curve $-1 0 39.018619385754171 14.983830976069926 -1 0 0 I I #
point $-1 74.006164738914151 39.018619385754171 14.983830976069926 #
face $-1 $551 $552 $19 $-1 $553 forward single #
loop $-1 $-1 $554 $369 #
plane-surface $-1 0 29.413291859117457 -9.4348702728557736 0 0 1 1 0 0 forward_v I I I I #
coedge $-1 $379 $555 $372 $469 forward $370 $-1 #
coedge $-1 $468 $372 $556 $557 reversed $271 $-1 #
coedge $-1 $372 $467 $470 $558 forward $271 $-1 #
edge $-1 $559 -49.757990432768388 $560 -40.778771348618342 $466 $561 forward 7 unknown #
coedge $-1 $472 $373 $468 $558 reversed $273 $-1 #
edge $-1 $560 -1.1489665274282324 $380 5.849041061834054 $379 $562 forward 7 unknown #
coedge $-1 $374 $470 $475 $563 reversed $273 $-1 #
vertex $-1 $563 $564 #
straight-curve $-1 -42.629141663174607 8.1990783290369649 99.093986302157958 0.78801074757464917 0 -0.61566148304635926 I I #
coedge $-1 $556 $376 $472 $563 forward $477 $-1 #
coedge $-1 $376 $565 $378 $480 reversed $477 $-1 #
loop $-1 $-1 $556 $566 #
straight-curve $-1 74.006164738914151 8.1990783290369649 107.86464635212336 0 0 -1 I I #
coedge $-1 $567 $378 $568 $569 forward $370 $-1 #
edge $-1 $381 8.1990783290369649 $570 39.018619385754171 $476 $571 forward 7 unknown #
point $-1 65.026945654764106 8.1990783290369649 14.983830976069925 #
point $-1 74.006164738914151 8.1990783290369649 14.983830976069926 #
point $-1 66.265435302884271 4.7000745344058217 7.3149198818944834 #
coedge $-1 $392 $391 $397 $493 forward $204 $-1 #
coedge $-1 $402 $572 $391 $486 reversed $389 $-1 #
edge $-1 $406 -74.006164738914151 $573 74.006164738914151 $485 $574 forward 7 unknown #
coedge $-1 $572 $402 $393 $488 reversed $389 $-1 #
edge $-1 $490 -74.006164738914151 $404 74.006164738914151 $487 $575 forward 7 unknown #
coedge $-1 $394 $397 $572 $576 forward $299 $-1 #
vertex $-1 $488 $577 #
straight-curve $-1 -74.006164738914151 0 -14.983830976069926 0 1 0 I I #
straight-curve $-1 0 -39.018619385754171 14.983830976069926 1 0 0 I I #
edge $-1 $573 -39.018619385754171 $398 39.018619385754171 $397 $578 forward 7 unknown #
point $-1 -74.006164738914151 -39.018619385754171 14.983830976069926 #
straight-curve $-1 74.006164738914151 39.018619385754171 0 0 0 -1 I I #
point $-1 74.006164738914151 39.018619385754171 -14.983830976069926 #
point $-1 74.006164738914151 39.018619385754171 14.983830976069926 #
face $-1 $246 $432 $17 $-1 $579 forward single #
plane-surface $-1 0 0 -14.983830976069926 0 0 1 1 0 0 forward_v I I I I #
coedge $-1 $429 $580 $413 $504 forward $410 $-1 #
coedge $-1 $425 $412 $414 $505 forward $322 $-1 #
coedge $-1 $412 $425 $422 $514 reversed $322 $-1 #
coedge $-1 $414 $413 $424 $515 reversed $226 $-1 #
edge $-1 $581 -74.006164738914151 $506 74.006164738914151 $500 $582 forward 7 unknown #
edge $-1 $507 -74.006164738914151 $516 74.006164738914151 $501 $583 forward 7 unknown #
vertex $-1 $504 $584 #
vertex $-1 $416 $585 #
straight-curve $-1 74.006164738914151 -14.706645929558732 -9.4348702728557736 0 1 0 I I #
coedge $-1 $417 $424 $580 $586 reversed $137 $-1 #
coedge $-1 $431 $418 $417 $511 forward $432 $-1 #
edge $-1 $420 -39.018619385754171 $587 39.018619385754171 $417 $588 forward 7 unknown #
straight-curve $-1 0 39.018619385754171 14.983830976069926 -1 0 0 I I #
point $-1 -74.006164738914151 39.018619385754171 14.983830976069926 #
edge $-1 $437 -74.006164738914151 $427 74.006164738914151 $422 $589 forward 7 unknown #
edge $-1 $516 5.1013184029220255 $581 24.311973456195439 $424 $590 forward 7 unknown #
vertex $-1 $515 $591 #
straight-curve $-1 -74.006164738914151 -19.807964332480758 -6.104675312231425 0 0 1 I I #
point $-1 -74.006164738914151 -19.807964332480758 -14.983830976069926 #
coedge $-1 $580 $429 $431 $521 reversed $410 $-1 #
straight-curve $-1 74.006164738914151 -39.018619385754171 0 0 0 -1 I I #
edge $-1 $587 -74.006164738914151 $433 74.006164738914151 $519 $592 forward 7 unknown #
point $-1 74.006164738914151 -39.018619385754171 14.983830976069926 #
straight-curve $-1 74.006164738914151 -19.807964332480758 -6.104675312231425 0 0 -1 I I #
point $-1 74.006164738914151 -19.807964332480758 -14.983830976069926 #
face $-1 $593 $594 $18 $-1 $595 reversed single #
loop $-1 $-1 $596 $439 #
plane-surface $-1 -74.006164738914151 0 0 1 0 0 0 0 -1 forward_v I I I I #
coedge $-1 $459 $454 $444 $535 forward $440 $-1 #
coedge $-1 $597 $442 $443 $534 forward $349 $-1 #
coedge $-1 $442 $597 $598 $599 reversed $349 $-1 #
coedge $-1 $600 $596 $442 $532 forward $526 $-1 #
edge $-1 $601 3.3301949606243486 $602 8.8791556638385014 $531 $603 forward 7 unknown #
coedge $-1 $444 $443 $596 $604 reversed $250 $-1 #
edge $-1 $601 -74.006164738914151 $537 74.006164738914151 $529 $605 forward 7 unknown #
edge $-1 $538 -74.006164738914151 $606 74.006164738914151 $528 $607 forward 7 unknown #
coedge $-1 $445 $608 $597 $609 forward $264 $-1 #
vertex $-1 $446 $610 #
vertex $-1 $535 $611 #
straight-curve $-1 74.006164738914151 14.706645929558729 -9.4348702728557736 0 1 0 I I #
coedge $-1 $612 $613 $447 $541 reversed $614 $-1 #
edge $-1 $547 -74.006164738914151 $543 74.006164738914151 $540 $615 forward 7 unknown #
coedge $-1 $616 $448 $613 $617 forward $264 $-1 #
vertex $-1 $449 $618 #
straight-curve $-1 74.006164738914151 39.018619385754171 0 0 0 -1 I I #
coedge $-1 $596 $457 $459 $549 forward $526 $-1 #
coedge $-1 $457 $619 $612 $620 reversed $526 $-1 #
vertex $-1 $458 $621 #
straight-curve $-1 -74.006164738914151 0 14.983830976069926 0 -1 0 I I #
edge $-1 $460 -14.983830976069926 $606 9.4348702728557736 $459 $622 forward 7 unknown #
point $-1 -74.006164738914151 39.018619385754171 14.983830976069926 #
face $-1 $623 $624 $19 $-1 $625 reversed single #
loop $-1 $-1 $626 $463 #
plane-surface $-1 0 19.807964332480751 -12.20935062446285 0 1 0 0 0 1 forward_v I I I I #
coedge $-1 $627 $628 $629 $630 reversed $464 $-1 #
coedge $-1 $466 $631 $632 $633 forward $370 $-1 #
coedge $-1 $632 $475 $467 $557 forward $477 $-1 #
edge $-1 $634 -99.896150325431535 $559 -92.880815376053434 $556 $635 forward 7 unknown #
edge $-1 $634 -148.0123294778283 $560 -136.61753681568959 $468 $636 forward 7 unknown #
vertex $-1 $557 $637 #
vertex $-1 $471 $638 #
straight-curve $-1 24.248174306145764 1.2010707397746785 14.983830976069925 -1 0 0 I I #
straight-curve $-1 65.026945654764106 2.3500372672029108 14.98383097606991 0 1 0 I I #
edge $-1 $473 -5.849041061834054 $634 1.1489665274282324 $475 $639 forward 7 unknown #
point $-1 74.006164738914151 8.1990783290369649 7.9684960266918239 #
coedge $-1 $476 $629 $640 $641 reversed $477 $-1 #
face $-1 $-1 $477 $19 $-1 $642 reversed single #
coedge $-1 $631 $479 $643 $644 forward $370 $-1 #
coedge $-1 $640 $645 $479 $569 reversed $624 $-1 #
edge $-1 $570 -74.006164738914151 $646 74.006164738914151 $568 $647 forward 7 unknown #
vertex $-1 $480 $648 #
straight-curve $-1 74.006164738914151 0 14.983830976069926 0 1 0 I I #
coedge $-1 $485 $487 $489 $576 reversed $389 $-1 #
vertex $-1 $486 $649 #
straight-curve $-1 0 39.018619385754171 14.983830976069926 -1 0 0 I I #
straight-curve $-1 0 39.018619385754171 -14.983830976069926 1 0 0 I I #
edge $-1 $573 -14.983830976069926 $490 14.983830976069926 $572 $650 forward 7 unknown #
point $-1 -74.006164738914151 39.018619385754171 -14.983830976069926 #
straight-curve $-1 -74.006164738914151 0 14.983830976069926 0 -1 0 I I #
plane-surface $-1 0 0 14.983830976069926 0 0 1 1 0 0 forward_v I I I I #
coedge $-1 $500 $519 $509 $586 forward $410 $-1 #
vertex $-1 $504 $651 #
straight-curve $-1 0 -39.018619385754171 -9.4348702728557736 1 0 0 I I #
straight-curve $-1 0 -19.807964332480758 -9.4348702728557736 -1 0 0 I I #
point $-1 74.006164738914151 -39.018619385754171 -9.4348702728557736 #
point $-1 74.006164738914151 -19.807964332480758 -9.4348702728557736 #
edge $-1 $587 -14.983830976069926 $581 9.4348702728557736 $509 $652 forward 7 unknown #
vertex $-1 $511 $653 #
straight-curve $-1 -74.006164738914151 0 14.983830976069926 0 -1 0 I I #
straight-curve $-1 0 -19.807964332480758 -14.983830976069926 -1 0 0 I I #
straight-curve $-1 -74.006164738914151 -14.706645929558732 -9.4348702728557736 0 -1 0 I I #
point $-1 -74.006164738914151 -19.807964332480758 -9.4348702728557736 #
straight-curve $-1 0 -39.018619385754171 14.983830976069926 1 0 0 I I #
face $-1 $654 $655 $18 $-1 $656 forward single #
loop $-1 $-1 $657 $525 #
plane-surface $-1 0 -29.413291859117464 -9.4348702728557736 0 0 1 1 0 0 forward_v I I I I #
coedge $-1 $531 $545 $533 $604 forward $526 $-1 #
coedge $-1 $530 $529 $536 $609 reversed $349 $-1 #
coedge $-1 $658 $659 $530 $599 forward $660 $-1 #
edge $-1 $602 -74.006164738914151 $661 74.006164738914151 $598 $662 forward 7 unknown #
coedge $-1 $663 $531 $659 $664 reversed $526 $-1 #
vertex $-1 $604 $665 #
vertex $-1 $532 $666 #
straight-curve $-1 -74.006164738914151 19.807964332480751 -6.104675312231425 0 0 -1 I I #
edge $-1 $606 -24.311973456195435 $601 -5.101318402922022 $596 $667 forward 7 unknown #
straight-curve $-1 0 19.807964332480751 -9.4348702728557736 1 0 0 I I #
vertex $-1 $604 $668 #
straight-curve $-1 0 39.018619385754171 -9.4348702728557736 -1 0 0 I I #
coedge $-1 $536 $669 $658 $670 reversed $264 $-1 #
edge $-1 $661 -8.8791556638385014 $537 -3.3301949606243486 $536 $671 forward 7 unknown #
point $-1 74.006164738914151 19.807964332480751 -9.4348702728557736 #
point $-1 74.006164738914151 39.018619385754164 -9.4348702728557736 #
coedge $-1 $672 $540 $546 $620 forward $614 $-1 #
coedge $-1 $540 $672 $542 $617 reversed $614 $-1 #
loop $-1 $-1 $672 $654 #
straight-curve $-1 0 -39.018619385754171 14.983830976069926 1 0 0 I I #
coedge $-1 $669 $542 $657 $673 forward $264 $-1 #
edge $-1 $543 -14.983830976069926 $674 9.4348702728557736 $542 $675 forward 7 unknown #
point $-1 74.006164738914151 -39.018619385754171 14.983830976069926 #
coedge $-1 $546 $663 $676 $677 forward $526 $-1 #
edge $-1 $547 -14.983830976069926 $678 9.4348702728557736 $546 $679 forward 7 unknown #
point $-1 -74.006164738914151 -39.018619385754171 14.983830976069926 #
straight-curve $-1 -74.006164738914151 39.018619385754171 0 0 0 -1 I I #
face $-1 $680 $681 $19 $-1 $682 reversed single #
loop $-1 $-1 $683 $551 #
plane-surface $-1 0 39.018619385754171 0 0 -1 0 0 0 -1 forward_v I I I I #
coedge $-1 $684 $685 $686 $687 reversed $552 $-1 #
coedge $-1 $688 $554 $684 $689 reversed $464 $-1 #
coedge $-1 $554 $688 $683 $690 reversed $464 $-1 #
coedge $-1 $565 $691 $554 $630 forward $477 $-1 #
edge $-1 $692 5.101318402922022 $693 24.311973456195435 $629 $694 forward 7 unknown #
coedge $-1 $555 $567 $695 $696 forward $370 $-1 #
coedge $-1 $697 $556 $555 $633 reversed $477 $-1 #
edge $-1 $698 -39.018619385754171 $559 1.2010707397746785 $632 $571 forward 7 unknown #
vertex $-1 $563 $699 #
straight-curve $-1 74.006164738914151 1.2010707397746785 107.86464635212336 0 0 1 I I #
straight-curve $-1 -42.629141663174607 1.2010707397746785 99.093986302157958 -0.78801074757464917 0 0.61566148304635926 I I #
point $-1 74.006164738914151 1.2010707397746785 14.983830976069926 #
point $-1 65.026945654764106 1.2010707397746785 14.983830976069925 #
straight-curve $-1 74.006164738914151 2.3500372672029108 7.968496026691831 0 -1 0 I I #
coedge $-1 $683 $568 $565 $641 forward $624 $-1 #
edge $-1 $570 -14.983830976069926 $693 9.4348702728557736 $565 $700 forward 7 unknown #
plane-surface $-1 74.006164738914151 0 0 -1 0 0 0 0 1 forward_v I I I I #
coedge $-1 $701 $702 $567 $644 reversed $681 $-1 #
edge $-1 $646 -39.018619385754171 $703 39.018619385754171 $643 $704 forward 7 unknown #
coedge $-1 $568 $683 $701 $705 reversed $624 $-1 #
vertex $-1 $569 $706 #
straight-curve $-1 0 39.018619385754171 14.983830976069926 -1 0 0 I I #
point $-1 74.006164738914151 39.018619385754171 14.983830976069926 #
point $-1 -74.006164738914151 39.018619385754171 14.983830976069926 #
straight-curve $-1 -74.006164738914151 39.018619385754171 0 0 0 -1 I I #
point $-1 -74.006164738914151 -39.018619385754171 -9.4348702728557736 #
straight-curve $-1 -74.006164738914151 -39.018619385754171 0 0 0 -1 I I #
point $-1 -74.006164738914151 -39.018619385754171 14.983830976069926 #
face $-1 $707 $614 $18 $-1 $708 reversed single #
loop $-1 $-1 $709 $593 #
plane-surface $-1 0 -19.807964332480758 -12.20935062446285 0 -1 0 0 0 -1 forward_v I I I I #
coedge $-1 $710 $711 $616 $673 reversed $594 $-1 #
coedge $-1 $712 $598 $608 $670 forward $660 $-1 #
coedge $-1 $598 $712 $600 $664 forward $660 $-1 #
loop $-1 $-1 $598 $707 #
vertex $-1 $670 $713 #
straight-curve $-1 0 19.807964332480751 -14.983830976069926 1 0 0 I I #
coedge $-1 $619 $600 $714 $715 forward $526 $-1 #
edge $-1 $716 -19.807964332480758 $602 19.807964332480751 $600 $717 forward 7 unknown #
point $-1 -74.006164738914151 19.807964332480751 -9.4348702728557736 #
point $-1 -74.006164738914151 19.807964332480751 -14.983830976069926 #
straight-curve $-1 -74.006164738914151 14.706645929558729 -9.4348702728557736 0 -1 0 I I #
point $-1 -74.006164738914151 39.018619385754164 -9.4348702728557736 #
coedge $-1 $608 $616 $709 $718 forward $264 $-1 #
edge $-1 $661 -19.807964332480751 $719 19.807964332480758 $608 $720 forward 7 unknown #
straight-curve $-1 74.006164738914151 19.807964332480751 -6.104675312231425 0 0 1 I I #
coedge $-1 $613 $612 $710 $721 forward $614 $-1 #
edge $-1 $674 -24.311973456195439 $722 -5.1013184029220255 $616 $723 forward 7 unknown #
vertex $-1 $721 $724 #
straight-curve $-1 74.006164738914151 -39.018619385754171 0 0 0 -1 I I #
coedge $-1 $711 $710 $619 $677 reversed $594 $-1 #
edge $-1 $725 5.1013184029220255 $678 24.311973456195439 $619 $726 forward 7 unknown #
vertex $-1 $721 $727 #
straight-curve $-1 -74.006164738914151 -39.018619385754171 0 0 0 -1 I I #
face $-1 $728 $729 $19 $-1 $730 reversed single #
loop $-1 $-1 $731 $623 #
plane-surface $-1 -74.006164738914151 0 0 1 0 0 0 0 -1 forward_v I I I I #
coedge $-1 $645 $640 $628 $690 forward $624 $-1 #
coedge $-1 $732 $626 $627 $689 forward $552 $-1 #
coedge $-1 $626 $732 $733 $734 reversed $552 $-1 #
coedge $-1 $735 $731 $626 $687 forward $681 $-1 #
edge $-1 $736 3.3301949606243486 $737 8.8791556638385014 $686 $738 forward 7 unknown #
coedge $-1 $628 $627 $731 $739 reversed $464 $-1 #
edge $-1 $736 -74.006164738914151 $692 74.006164738914151 $684 $740 forward 7 unknown #
edge $-1 $693 -74.006164738914151 $741 74.006164738914151 $683 $742 forward 7 unknown #
coedge $-1 $629 $743 $732 $744 forward $477 $-1 #
vertex $-1 $630 $745 #
vertex $-1 $690 $746 #
straight-curve $-1 74.006164738914151 14.706645929558729 -9.4348702728557736 0 1 0 I I #
coedge $-1 $747 $748 $631 $696 reversed $749 $-1 #
edge $-1 $703 -74.006164738914151 $698 74.006164738914151 $695 $750 forward 7 unknown #
coedge $-1 $751 $632 $748 $752 forward $477 $-1 #
vertex $-1 $633 $753 #
point $-1 74.006164738914151 1.2010707397746785 7.9684960266918239 #
straight-curve $-1 74.006164738914151 39.018619385754171 0 0 0 -1 I I #
coedge $-1 $731 $643 $645 $705 forward $681 $-1 #
coedge $-1 $643 $754 $747 $755 reversed $681 $-1 #
vertex $-1 $644 $756 #
straight-curve $-1 -74.006164738914151 0 14.983830976069926 0 -1 0 I I #
edge $-1 $646 -14.983830976069926 $741 9.4348702728557736 $645 $757 forward 7 unknown #
point $-1 -74.006164738914151 39.018619385754171 14.983830976069926 #
face $-1 $363 $660 $18 $-1 $758 reversed single #
plane-surface $-1 0 -39.018619385754171 0 0 1 0 0 0 1 forward_v I I I I #
coedge $-1 $759 $760 $669 $718 reversed $655 $-1 #
coedge $-1 $676 $657 $672 $721 reversed $594 $-1 #
coedge $-1 $657 $676 $759 $761 reversed $594 $-1 #
coedge $-1 $659 $658 $760 $762 forward $660 $-1 #
point $-1 74.006164738914151 19.807964332480751 -14.983830976069926 #
coedge $-1 $760 $759 $663 $715 reversed $655 $-1 #
edge $-1 $716 -8.8791556638385014 $725 -3.3301949606243486 $663 $763 forward 7 unknown #
vertex $-1 $664 $764 #
straight-curve $-1 -74.006164738914151 0 -14.983830976069926 0 1 0 I I #
edge $-1 $722 3.3301949606243486 $719 8.8791556638385014 $669 $765 forward 7 unknown #
vertex $-1 $762 $766 #
straight-curve $-1 74.006164738914151 0 -14.983830976069926 0 -1 0 I I #
edge $-1 $678 -74.006164738914151 $674 74.006164738914151 $672 $767 forward 7 unknown #
vertex $-1 $673 $768 #
straight-curve $-1 74.006164738914151 -14.706645929558732 -9.4348702728557736 0 1 0 I I #
point $-1 74.006164738914151 -39.018619385754171 -9.4348702728557736 #
vertex $-1 $677 $769 #
straight-curve $-1 -74.006164738914151 -14.706645929558732 -9.4348702728557736 0 -1 0 I I #
point $-1 -74.006164738914151 -39.018619385754171 -9.4348702728557736 #
face $-1 $770 $771 $19 $-1 $772 forward single #
loop $-1 $-1 $773 $680 #
plane-surface $-1 0 -29.413291859117464 -9.4348702728557736 0 0 1 1 0 0 forward_v I I I I #
coedge $-1 $686 $701 $688 $739 forward $681 $-1 #
coedge $-1 $685 $684 $691 $744 reversed $552 $-1 #
coedge $-1 $774 $775 $685 $734 forward $776 $-1 #
edge $-1 $737 -74.006164738914151 $777 74.006164738914151 $733 $778 forward 7 unknown #
coedge $-1 $779 $686 $775 $780 reversed $681 $-1 #
vertex $-1 $739 $781 #
vertex $-1 $687 $782 #
straight-curve $-1 -74.006164738914151 19.807964332480751 -6.104675312231425 0 0 -1 I I #
edge $-1 $741 -24.311973456195435 $736 -5.101318402922022 $731 $783 forward 7 unknown #
straight-curve $-1 0 19.807964332480751 -9.4348702728557736 1 0 0 I I #
vertex $-1 $739 $784 #
straight-curve $-1 0 39.018619385754171 -9.4348702728557736 -1 0 0 I I #
coedge $-1 $691 $785 $774 $786 reversed $477 $-1 #
edge $-1 $777 -8.8791556638385014 $692 -3.3301949606243486 $691 $787 forward 7 unknown #
point $-1 74.006164738914151 19.807964332480751 -9.4348702728557736 #
point $-1 74.006164738914151 39.018619385754164 -9.4348702728557736 #
coedge $-1 $788 $695 $702 $755 forward $749 $-1 #
coedge $-1 $695 $788 $697 $752 reversed $749 $-1 #
loop $-1 $-1 $788 $770 #
straight-curve $-1 0 -39.018619385754171 14.983830976069926 1 0 0 I I #
coedge $-1 $785 $697 $773 $789 forward $477 $-1 #
edge $-1 $698 -14.983830976069926 $790 9.4348702728557736 $697 $791 forward 7 unknown #
point $-1 74.006164738914151 -39.018619385754171 14.983830976069926 #
coedge $-1 $702 $779 $792 $793 forward $681 $-1 #
edge $-1 $703 -14.983830976069926 $794 9.4348702728557736 $702 $795 forward 7 unknown #
point $-1 -74.006164738914151 -39.018619385754171 14.983830976069926 #
straight-curve $-1 -74.006164738914151 39.018619385754171 0 0 0 -1 I I #
plane-surface $-1 0 0 -14.983830976069926 0 0 1 1 0 0 forward_v I I I I #
coedge $-1 $714 $709 $711 $761 forward $655 $-1 #
coedge $-1 $709 $714 $712 $762 reversed $655 $-1 #
edge $-1 $722 -74.006164738914151 $725 74.006164738914151 $759 $796 forward 7 unknown #
edge $-1 $719 -74.006164738914151 $716 74.006164738914151 $712 $797 forward 7 unknown #
straight-curve $-1 -74.006164738914151 -19.807964332480758 -6.104675312231425 0 0 1 I I #
point $-1 -74.006164738914151 -19.807964332480758 -14.983830976069926 #
straight-curve $-1 74.006164738914151 -19.807964332480758 -6.104675312231425 0 0 -1 I I #
point $-1 74.006164738914151 -19.807964332480758 -14.983830976069926 #
straight-curve $-1 0 -39.018619385754171 -9.4348702728557736 1 0 0 I I #
point $-1 74.006164738914151 -19.807964332480758 -9.4348702728557736 #
point $-1 -74.006164738914151 -19.807964332480758 -9.4348702728557736 #
face $-1 $798 $749 $19 $-1 $799 reversed single #
loop $-1 $-1 $800 $728 #
plane-surface $-1 0 -19.807964332480758 -12.20935062446285 0 -1 0 0 0 -1 forward_v I I I I #
coedge $-1 $801 $802 $751 $789 reversed $729 $-1 #
coedge $-1 $803 $733 $743 $786 forward $776 $-1 #
coedge $-1 $733 $803 $735 $780 forward $776 $-1 #
loop $-1 $-1 $733 $798 #
vertex $-1 $786 $804 #
straight-curve $-1 0 19.807964332480751 -14.983830976069926 1 0 0 I I #
coedge $-1 $754 $735 $805 $806 forward $681 $-1 #
edge $-1 $807 -19.807964332480758 $737 19.807964332480751 $735 $808 forward 7 unknown #
point $-1 -74.006164738914151 19.807964332480751 -9.4348702728557736 #
point $-1 -74.006164738914151 19.807964332480751 -14.983830976069926 #
straight-curve $-1 -74.006164738914151 14.706645929558729 -9.4348702728557736 0 -1 0 I I #
point $-1 -74.006164738914151 39.018619385754164 -9.4348702728557736 #
coedge $-1 $743 $751 $800 $809 forward $477 $-1 #
edge $-1 $777 -19.807964332480751 $810 19.807964332480758 $743 $811 forward 7 unknown #
straight-curve $-1 74.006164738914151 19.807964332480751 -6.104675312231425 0 0 1 I I #
coedge $-1 $748 $747 $801 $812 forward $749 $-1 #
edge $-1 $790 -24.311973456195439 $813 -5.1013184029220255 $751 $814 forward 7 unknown #
vertex $-1 $812 $815 #
straight-curve $-1 74.006164738914151 -39.018619385754171 0 0 0 -1 I I #
coedge $-1 $802 $801 $754 $793 reversed $729 $-1 #
edge $-1 $816 5.1013184029220255 $794 24.311973456195439 $754 $817 forward 7 unknown #
vertex $-1 $812 $818 #
straight-curve $-1 -74.006164738914151 -39.018619385754171 0 0 0 -1 I I #
straight-curve $-1 0 -19.807964332480758 -9.4348702728557736 -1 0 0 I I #
straight-curve $-1 0 -19.807964332480758 -14.983830976069926 -1 0 0 I I #
face $-1 $566 $776 $19 $-1 $819 reversed single #
plane-surface $-1 0 -39.018619385754171 0 0 1 0 0 0 1 forward_v I I I I #
coedge $-1 $820 $821 $785 $809 reversed $771 $-1 #
coedge $-1 $792 $773 $788 $812 reversed $729 $-1 #
coedge $-1 $773 $792 $820 $822 reversed $729 $-1 #
coedge $-1 $775 $774 $821 $823 forward $776 $-1 #
point $-1 74.006164738914151 19.807964332480751 -14.983830976069926 #
coedge $-1 $821 $820 $779 $806 reversed $771 $-1 #
edge $-1 $807 -8.8791556638385014 $816 -3.3301949606243486 $779 $824 forward 7 unknown #
vertex $-1 $780 $825 #
straight-curve $-1 -74.006164738914151 0 -14.983830976069926 0 1 0 I I #
edge $-1 $813 3.3301949606243486 $810 8.8791556638385014 $785 $826 forward 7 unknown #
vertex $-1 $823 $827 #
straight-curve $-1 74.006164738914151 0 -14.983830976069926 0 -1 0 I I #
edge $-1 $794 -74.006164738914151 $790 74.006164738914151 $788 $828 forward 7 unknown #
vertex $-1 $789 $829 #
straight-curve $-1 74.006164738914151 -14.706645929558732 -9.4348702728557736 0 1 0 I I #
point $-1 74.006164738914151 -39.018619385754171 -9.4348702728557736 #
vertex $-1 $793 $830 #
straight-curve $-1 -74.006164738914151 -14.706645929558732 -9.4348702728557736 0 -1 0 I I #
point $-1 -74.006164738914151 -39.018619385754171 -9.4348702728557736 #
plane-surface $-1 0 0 -14.983830976069926 0 0 1 1 0 0 forward_v I I I I #
coedge $-1 $805 $800 $802 $822 forward $771 $-1 #
coedge $-1 $800 $805 $803 $823 reversed $771 $-1 #
edge $-1 $813 -74.006164738914151 $816 74.006164738914151 $820 $831 forward 7 unknown #
edge $-1 $810 -74.006164738914151 $807 74.006164738914151 $803 $832 forward 7 unknown #
straight-curve $-1 -74.006164738914151 -19.807964332480758 -6.104675312231425 0 0 1 I I #
point $-1 -74.006164738914151 -19.807964332480758 -14.983830976069926 #
straight-curve $-1 74.006164738914151 -19.807964332480758 -6.104675312231425 0 0 -1 I I #
point $-1 74.006164738914151 -19.807964332480758 -14.983830976069926 #
straight-curve $-1 0 -39.018619385754171 -9.4348702728557736 1 0 0 I I #
point $-1 74.006164738914151 -19.807964332480758 -9.4348702728557736 #
point $-1 -74.006164738914151 -19.807964332480758 -9.4348702728557736 #
straight-curve $-1 0 -19.807964332480758 -9.4348702728557736 -1 0 0 I I #
straight-curve $-1 0 -19.807964332480758 -14.983830976069926 -1 0 0 I I #
End-of-ACIS-data 