500 0 7 0           
7 Unknown 11 ACIS 5.0 NT 24 Fri Mar 26 01:17:08 1999 
-1 9.9999999999999995e-007 1e-010 
body $-1 $7 $-1 $8 #
body $-1 $9 $-1 $10 #
body $-1 $11 $-1 $12 #
body $-1 $13 $-1 $14 #
body $-1 $15 $-1 $16 #
body $-1 $17 $-1 $18 #
body $-1 $19 $-1 $20 #
lump $-1 $-1 $21 $0 #
transform $-1 1 0 0 0 1 0 0 0 1 65.833307901242108 28.478475992497216 12.16821042452945 1 rotate no_reflect no_shear #
lump $-1 $-1 $22 $1 #
transform $-1 1 0 0 0 1 0 0 0 1 65.833307901242108 28.478475992497216 12.16821042452945 1 rotate no_reflect no_shear #
lump $-1 $-1 $23 $2 #
transform $-1 1 0 0 0 1 0 0 0 1 65.833307901242108 28.478475992497216 12.16821042452945 1 rotate no_reflect no_shear #
lump $-1 $-1 $24 $3 #
transform $-1 1 0 0 0 1 0 0 0 1 65.833307901242108 28.478475992497216 12.16821042452945 1 rotate no_reflect no_shear #
lump $-1 $-1 $25 $4 #
transform $-1 1 0 0 0 1 0 0 0 1 65.833307901242108 28.478475992497216 12.16821042452945 1 rotate no_reflect no_shear #
lump $-1 $-1 $26 $5 #
transform $-1 1 0 0 0 1 0 0 0 1 65.833307901242108 28.478475992497216 12.16821042452945 1 rotate no_reflect no_shear #
lump $-1 $-1 $27 $6 #
transform $-1 1 0 0 0 1 0 0 0 1 65.833307901242108 28.478475992497216 12.16821042452945 1 rotate no_reflect no_shear #
shell $-1 $-1 $-1 $28 $-1 $7 #
shell $-1 $-1 $-1 $29 $-1 $9 #
shell $-1 $-1 $-1 $30 $-1 $11 #
shell $-1 $-1 $-1 $31 $-1 $13 #
shell $-1 $-1 $-1 $32 $-1 $15 #
shell $-1 $-1 $-1 $33 $-1 $17 #
shell $-1 $-1 $-1 $34 $-1 $19 #
face $-1 $35 $36 $21 $-1 $37 forward single #
face $-1 $38 $39 $22 $-1 $40 forward single #
face $-1 $41 $42 $23 $-1 $43 reversed single #
face $-1 $44 $45 $24 $-1 $46 reversed single #
face $-1 $47 $48 $25 $-1 $49 forward single #
face $-1 $50 $51 $26 $-1 $52 reversed single #
face $-1 $53 $54 $27 $-1 $55 forward single #
face $-1 $56 $57 $21 $-1 $58 reversed single #
loop $-1 $-1 $59 $28 #
plane-surface $-1 0 0 12.16821042452945 0 0 1 1 0 0 forward_v I I I I #
face $-1 $60 $61 $22 $-1 $62 reversed single #
loop $-1 $-1 $63 $29 #
plane-surface $-1 0 -28.478475992497216 0 0 1 0 0 0 1 forward_v I I I I #
face $-1 $64 $65 $23 $-1 $66 reversed single #
loop $-1 $-1 $67 $30 #
plane-surface $-1 0 22.760416039653819 7.3590805487476789 0 0 1 1 0 0 forward_v I I I I #
face $-1 $68 $69 $24 $-1 $70 reversed single #
loop $-1 $-1 $71 $31 #
plane-surface $-1 -177.4929318033069 -15.703893789233152 71.280797129440899 0 1 0 -0.84804810408105047 0 0.52991925155115449 forward_v I I I I #
face $-1 $72 $73 $25 $-1 $74 forward single #
loop $-1 $75 $76 $32 #
cone-surface $-1 -61.827487364681907 -12.525622918052921 6.4162300275098563 0.84804810408105047 0 -0.52991925155115449 0.52991925155115449 0 0.84804810408105047 1 I I 0 1 1 forward I I I I #
face $-1 $77 $78 $26 $-1 $79 reversed single #
loop $-1 $-1 $80 $33 #
plane-surface $-1 -177.4929318033069 10.685814344449959 71.280797129440899 0 1 0 -0.84804810408105047 0 0.52991925155115449 forward_v I I I I #
face $-1 $81 $82 $27 $-1 $83 forward single #
loop $-1 $84 $85 $34 #
cone-surface $-1 -61.827487364681907 13.86408521563019 6.4162300275098563 0.84804810408105047 0 -0.52991925155115449 0.52991925155115449 0 0.84804810408105047 1 I I 0 1 1 forward I I I I #
face $-1 $86 $87 $21 $-1 $88 reversed single #
loop $-1 $-1 $89 $35 #
plane-surface $-1 0 0 -12.16821042452945 0 0 1 1 0 0 forward_v I I I I #
coedge $-1 $90 $91 $92 $93 forward $36 $-1 #
face $-1 $94 $95 $22 $-1 $96 forward single #
loop $-1 $-1 $97 $38 #
plane-surface $-1 -65.833307901242108 0 0 1 0 0 0 0 -1 forward_v I I I I #
coedge $-1 $98 $99 $100 $101 forward $39 $-1 #
face $-1 $102 $103 $23 $-1 $104 reversed single #
loop $-1 $-1 $105 $41 #
plane-surface $-1 0 17.042356086810422 9.7636454866385645 0 1 0 0 0 1 forward_v I I I I #
coedge $-1 $106 $107 $108 $109 reversed $42 $-1 #
face $-1 $110 $111 $24 $-1 $112 reversed single #
loop $-1 $-1 $113 $44 #
plane-surface $-1 -65.83330790124208 -12.525622918052921 1.50812262911505 -0.84804810408105047 0 0.52991925155115449 0.52991925155115449 0 0.84804810408105047 forward_v I I I I #
coedge $-1 $114 $115 $116 $117 reversed $45 $-1 #
face $-1 $-1 $118 $25 $-1 $119 forward single #
loop $-1 $120 $121 $47 #
cone-surface $-1 -60.728223741259363 -12.525622918052921 5.7293339024218728 0.84804810408105047 0 -0.52991925155115449 0.26495962577557725 0 0.42402405204052523 1 I I -0.70710678118654746 0.70710678118654746 0.5 forward I I I I #
loop $-1 $-1 $122 $32 #
coedge $-1 $76 $76 $123 $124 reversed $48 $-1 #
face $-1 $125 $126 $26 $-1 $127 forward single #
loop $-1 $-1 $128 $50 #
plane-surface $-1 -65.83330790124208 13.86408521563019 1.50812262911505 -0.84804810408105047 0 0.52991925155115449 0.52991925155115449 0 0.84804810408105047 forward_v I I I I #
coedge $-1 $129 $130 $131 $132 reversed $51 $-1 #
face $-1 $-1 $133 $27 $-1 $134 forward single #
loop $-1 $135 $136 $53 #
cone-surface $-1 -60.728223741259363 13.86408521563019 5.7293339024218728 0.84804810408105047 0 -0.52991925155115449 0.26495962577557725 0 0.42402405204052523 1 I I -0.70710678118654746 0.70710678118654746 0.5 forward I I I I #
loop $-1 $-1 $137 $34 #
coedge $-1 $85 $85 $138 $139 reversed $54 $-1 #
face $-1 $140 $141 $21 $-1 $142 reversed single #
loop $-1 $-1 $143 $56 #
plane-surface $-1 0 -28.478475992497216 0 0 1 0 0 0 1 forward_v I I I I #
coedge $-1 $144 $145 $146 $147 forward $57 $-1 #
coedge $-1 $148 $59 $149 $150 forward $36 $-1 #
coedge $-1 $59 $148 $151 $152 forward $36 $-1 #
coedge $-1 $153 $154 $59 $93 reversed $155 $-1 #
edge $-1 $156 -28.478475992497216 $157 28.478475992497216 $92 $158 forward 7 unknown #
face $-1 $159 $160 $22 $-1 $161 reversed single #
loop $-1 $-1 $162 $60 #
plane-surface $-1 0 -34.865767094129247 -2.2054203103321219 0 0 1 1 0 0 forward_v I I I I #
coedge $-1 $163 $164 $99 $165 forward $61 $-1 #
coedge $-1 $166 $63 $167 $168 reversed $39 $-1 #
coedge $-1 $63 $166 $97 $165 reversed $39 $-1 #
coedge $-1 $169 $162 $63 $101 reversed $95 $-1 #
edge $-1 $170 -65.833307901242108 $171 65.833307901242108 $100 $172 forward 7 unknown #
face $-1 $173 $174 $23 $-1 $175 reversed single #
loop $-1 $-1 $176 $64 #
plane-surface $-1 65.833307901242108 0 0 -1 0 0 0 0 1 forward_v I I I I #
coedge $-1 $177 $178 $106 $179 reversed $65 $-1 #
coedge $-1 $180 $67 $105 $179 forward $42 $-1 #
coedge $-1 $67 $180 $181 $182 reversed $42 $-1 #
coedge $-1 $183 $176 $67 $109 forward $103 $-1 #
edge $-1 $184 5.6621480669835123 $185 17.098267972670307 $108 $186 forward 7 unknown #
face $-1 $187 $188 $24 $-1 $189 reversed single #
loop $-1 $-1 $190 $68 #
plane-surface $-1 -177.4929318033069 -9.3473520468726896 71.280797129440899 0 -1 0 0.84804810408105047 0 -0.52991925155115449 forward_v I I I I #
coedge $-1 $191 $192 $193 $194 reversed $69 $-1 #
coedge $-1 $115 $71 $195 $196 reversed $45 $-1 #
coedge $-1 $71 $114 $191 $197 reversed $45 $-1 #
coedge $-1 $193 $198 $71 $117 forward $199 $-1 #
edge $-1 $200 22.913158000411343 $201 29.57431993076775 $116 $202 forward 7 unknown #
loop $-1 $-1 $123 $72 #
plane-surface $-1 -65.83330790124208 -12.525622918052921 1.50812262911505 -0.84804810408105047 0 0.52991925155115449 0.52991925155115449 0 0.84804810408105047 forward_v I I I I #
loop $-1 $-1 $203 $47 #
coedge $-1 $121 $121 $122 $204 reversed $73 $-1 #
coedge $-1 $122 $122 $121 $204 forward $75 $-1 #
coedge $-1 $123 $123 $76 $124 forward $118 $-1 #
edge $-1 $205 0 $205 6.2831853071796004 $123 $206 forward 7 unknown #
face $-1 $207 $208 $26 $-1 $209 forward single #
loop $-1 $-1 $131 $77 #
plane-surface $-1 0 0 12.16821042452945 0 0 1 1 0 0 forward_v I I I I #
coedge $-1 $210 $211 $212 $213 reversed $78 $-1 #
coedge $-1 $130 $80 $214 $215 reversed $51 $-1 #
coedge $-1 $80 $129 $210 $216 reversed $51 $-1 #
coedge $-1 $212 $217 $80 $132 forward $126 $-1 #
edge $-1 $218 22.913158000411343 $219 29.57431993076775 $131 $220 forward 7 unknown #
loop $-1 $-1 $138 $81 #
plane-surface $-1 -65.83330790124208 13.86408521563019 1.50812262911505 -0.84804810408105047 0 0.52991925155115449 0.52991925155115449 0 0.84804810408105047 forward_v I I I I #
loop $-1 $-1 $221 $53 #
coedge $-1 $136 $136 $137 $222 reversed $82 $-1 #
coedge $-1 $137 $137 $136 $222 forward $84 $-1 #
coedge $-1 $138 $138 $85 $139 forward $133 $-1 #
edge $-1 $223 0 $223 6.2831853071796004 $138 $224 forward 7 unknown #
face $-1 $225 $226 $21 $-1 $227 reversed single #
loop $-1 $-1 $228 $86 #
plane-surface $-1 -65.833307901242108 0 0 1 0 0 0 0 -1 forward_v I I I I #
coedge $-1 $229 $151 $230 $231 forward $87 $-1 #
coedge $-1 $232 $89 $229 $233 forward $57 $-1 #
coedge $-1 $89 $232 $234 $235 forward $57 $-1 #
coedge $-1 $154 $153 $89 $147 reversed $155 $-1 #
edge $-1 $236 -28.478475992497216 $237 28.478475992497216 $146 $238 forward 7 unknown #
coedge $-1 $91 $90 $239 $240 forward $36 $-1 #
coedge $-1 $241 $242 $90 $150 reversed $226 $-1 #
edge $-1 $157 -65.833307901242108 $243 65.833307901242108 $149 $244 forward 7 unknown #
coedge $-1 $143 $245 $91 $152 reversed $87 $-1 #
edge $-1 $246 -65.833307901242108 $156 65.833307901242108 $151 $247 forward 7 unknown #
coedge $-1 $146 $92 $245 $248 forward $155 $-1 #
coedge $-1 $92 $146 $241 $249 reversed $155 $-1 #
loop $-1 $-1 $153 $225 #
vertex $-1 $93 $250 #
vertex $-1 $93 $251 #
straight-curve $-1 65.833307901242108 0 12.16821042452945 0 1 0 I I #
face $-1 $252 $253 $22 $-1 $254 reversed single #
loop $-1 $-1 $255 $94 #
plane-surface $-1 0 -34.865767094129247 -5.3865270377897518 0 0 1 1 0 0 forward_v I I I I #
coedge $-1 $100 $256 $257 $258 forward $95 $-1 #
coedge $-1 $259 $97 $260 $261 reversed $61 $-1 #
coedge $-1 $97 $259 $169 $262 reversed $61 $-1 #
edge $-1 $170 2.2054203103321219 $263 5.3865270377897518 $97 $264 forward 7 unknown #
coedge $-1 $99 $98 $265 $266 forward $39 $-1 #
coedge $-1 $257 $267 $98 $168 forward $268 $-1 #
edge $-1 $269 -5.3865270377897518 $171 -2.2054203103321219 $167 $270 forward 7 unknown #
coedge $-1 $256 $100 $164 $262 forward $95 $-1 #
vertex $-1 $165 $271 #
vertex $-1 $258 $272 #
straight-curve $-1 0 -28.478475992497216 -2.2054203103321219 1 0 0 I I #
face $-1 $273 $274 $23 $-1 $275 forward single #
loop $-1 $-1 $181 $102 #
plane-surface $-1 0 28.478475992497216 0 0 -1 0 0 0 -1 forward_v I I I I #
coedge $-1 $108 $276 $177 $277 forward $103 $-1 #
coedge $-1 $278 $105 $176 $277 reversed $65 $-1 #
coedge $-1 $105 $278 $279 $280 reversed $65 $-1 #
edge $-1 $184 -65.833307901242108 $281 65.833307901242108 $105 $282 forward 7 unknown #
coedge $-1 $107 $106 $283 $284 reversed $42 $-1 #
coedge $-1 $285 $286 $107 $182 forward $174 $-1 #
edge $-1 $185 -65.833307901242108 $287 65.833307901242108 $181 $288 forward 7 unknown #
coedge $-1 $276 $108 $286 $289 reversed $103 $-1 #
vertex $-1 $109 $290 #
vertex $-1 $182 $291 #
straight-curve $-1 65.833307901242108 11.38020801982691 7.3590805487476789 0 1 0 I I #
face $-1 $-1 $199 $24 $-1 $292 forward single #
loop $-1 $-1 $293 $110 #
plane-surface $-1 -65.833307901242108 0 0 1 0 0 0 0 -1 forward_v I I I I #
coedge $-1 $294 $295 $296 $297 reversed $111 $-1 #
coedge $-1 $298 $113 $115 $197 forward $69 $-1 #
coedge $-1 $113 $298 $294 $299 forward $69 $-1 #
coedge $-1 $296 $116 $113 $194 forward $199 $-1 #
edge $-1 $201 -9.441082330206692 $300 -3.0845405878462291 $193 $301 forward 7 unknown #
coedge $-1 $302 $303 $114 $196 forward $188 $-1 #
edge $-1 $304 -34.132275935605442 $200 -23.472188140191001 $195 $305 forward 7 unknown #
edge $-1 $201 -12.570145188834223 $304 5.3663634765924311e-014 $115 $306 forward 7 unknown #
coedge $-1 $116 $296 $302 $307 forward $199 $-1 #
loop $-1 $-1 $296 $187 #
vertex $-1 $196 $308 #
vertex $-1 $117 $309 #
straight-curve $-1 -88.746465901653451 -15.703893789233152 12.168210424529448 1 0 0 I I #
coedge $-1 $203 $203 $-1 $310 reversed $120 $-1 #
edge $-1 $311 0 $311 6.2831853071796004 $121 $312 forward 7 unknown #
vertex $-1 $124 $313 #
ellipse-curve $-1 -62.502726936063894 -12.525622918052921 6.8381665268222438 -0.84804810408105047 0 0.52991925155115449 0.52991925155115449 0 0.84804810408105047 1 I I #
face $-1 $-1 $314 $26 $-1 $315 reversed single #
loop $-1 $-1 $316 $125 #
plane-surface $-1 0 17.042356086810422 9.7636454866385645 0 1 0 0 0 1 forward_v I I I I #
coedge $-1 $317 $128 $130 $216 forward $78 $-1 #
coedge $-1 $128 $317 $316 $318 forward $78 $-1 #
coedge $-1 $319 $131 $128 $213 forward $126 $-1 #
edge $-1 $219 3.7537717366348637 $320 10.110313478995327 $212 $321 forward 7 unknown #
coedge $-1 $322 $323 $129 $215 forward $314 $-1 #
edge $-1 $324 -34.132275935605442 $218 -23.472188140191001 $214 $325 forward 7 unknown #
edge $-1 $219 -12.570145188834223 $324 5.3663634765924311e-014 $130 $326 forward 7 unknown #
coedge $-1 $131 $319 $322 $327 forward $126 $-1 #
vertex $-1 $215 $328 #
vertex $-1 $132 $329 #
straight-curve $-1 -88.746465901653451 10.685814344449959 12.168210424529448 1 0 0 I I #
coedge $-1 $221 $221 $-1 $330 reversed $135 $-1 #
edge $-1 $331 0 $331 6.2831853071796004 $136 $332 forward 7 unknown #
vertex $-1 $139 $333 #
ellipse-curve $-1 -62.502726936063894 13.86408521563019 6.8381665268222438 -0.84804810408105047 0 0.52991925155115449 0.52991925155115449 0 0.84804810408105047 1 I I #
face $-1 $-1 $155 $21 $-1 $334 reversed single #
loop $-1 $-1 $241 $140 #
plane-surface $-1 0 28.478475992497216 0 0 -1 0 0 0 -1 forward_v I I I I #
coedge $-1 $335 $239 $242 $336 forward $141 $-1 #
coedge $-1 $245 $143 $144 $233 reversed $87 $-1 #
coedge $-1 $239 $335 $143 $231 reversed $141 $-1 #
edge $-1 $246 -12.16821042452945 $337 12.16821042452945 $230 $338 forward 7 unknown #
coedge $-1 $145 $144 $335 $339 forward $57 $-1 #
edge $-1 $237 -65.833307901242108 $337 65.833307901242108 $229 $340 forward 7 unknown #
coedge $-1 $242 $241 $145 $235 reversed $226 $-1 #
edge $-1 $341 -65.833307901242108 $236 65.833307901242108 $234 $342 forward 7 unknown #
vertex $-1 $147 $343 #
vertex $-1 $248 $344 #
straight-curve $-1 65.833307901242108 0 -12.16821042452945 0 -1 0 I I #
coedge $-1 $228 $230 $148 $240 reversed $141 $-1 #
edge $-1 $243 -28.478475992497216 $246 28.478475992497216 $239 $345 forward 7 unknown #
coedge $-1 $234 $149 $154 $249 forward $226 $-1 #
coedge $-1 $149 $234 $228 $336 reversed $226 $-1 #
vertex $-1 $150 $346 #
straight-curve $-1 0 28.478475992497216 12.16821042452945 -1 0 0 I I #
coedge $-1 $151 $229 $153 $248 reversed $87 $-1 #
vertex $-1 $240 $347 #
straight-curve $-1 0 -28.478475992497216 12.16821042452945 1 0 0 I I #
edge $-1 $156 -12.16821042452945 $237 12.16821042452945 $153 $348 forward 7 unknown #
edge $-1 $157 -12.16821042452945 $236 12.16821042452945 $154 $349 forward 7 unknown #
point $-1 65.833307901242108 -28.478475992497216 12.16821042452945 #
point $-1 65.833307901242108 28.478475992497216 12.16821042452945 #
face $-1 $-1 $268 $22 $-1 $350 reversed single #
loop $-1 $-1 $351 $159 #
plane-surface $-1 0 -41.253058195761277 -3.7959736740609369 0 1 0 0 0 1 forward_v I I I I #
coedge $-1 $352 $265 $267 $353 forward $160 $-1 #
coedge $-1 $162 $169 $354 $355 forward $95 $-1 #
coedge $-1 $356 $167 $162 $258 reversed $268 $-1 #
edge $-1 $357 -6.3872911016320302 $171 6.3872911016320337 $257 $358 forward 7 unknown #
coedge $-1 $164 $163 $351 $359 reversed $61 $-1 #
coedge $-1 $265 $352 $163 $261 forward $160 $-1 #
edge $-1 $360 -6.3872911016320302 $263 6.3872911016320337 $163 $361 forward 7 unknown #
edge $-1 $170 -6.3872911016320337 $362 6.3872911016320302 $164 $363 forward 7 unknown #
vertex $-1 $165 $364 #
straight-curve $-1 -65.833307901242108 -28.478475992497216 0 0 0 -1 I I #
coedge $-1 $255 $260 $166 $266 reversed $160 $-1 #
edge $-1 $269 -65.833307901242108 $263 65.833307901242108 $265 $365 forward 7 unknown #
coedge $-1 $167 $356 $255 $353 reversed $268 $-1 #
loop $-1 $-1 $167 $252 #
vertex $-1 $168 $366 #
straight-curve $-1 65.833307901242108 -28.478475992497216 0 0 0 1 I I #
point $-1 -65.833307901242108 -28.478475992497213 -2.2054203103321219 #
point $-1 65.833307901242108 -28.478475992497213 -2.2054203103321219 #
face $-1 $-1 $367 $23 $-1 $368 reversed single #
loop $-1 $-1 $369 $173 #
plane-surface $-1 0 0 12.16821042452945 0 0 1 1 0 0 forward_v I I I I #
coedge $-1 $176 $183 $370 $371 reversed $103 $-1 #
edge $-1 $372 -7.2863876812101678 $184 -2.4772578054283967 $176 $373 forward 7 unknown #
coedge $-1 $178 $177 $369 $374 reversed $65 $-1 #
coedge $-1 $375 $283 $178 $280 forward $367 $-1 #
edge $-1 $281 2.4772578054283967 $376 7.2863876812101678 $279 $377 forward 7 unknown #
vertex $-1 $284 $378 #
straight-curve $-1 0 17.042356086810422 7.3590805487476789 -1 0 0 I I #
coedge $-1 $279 $379 $180 $284 forward $367 $-1 #
edge $-1 $287 -17.098267972670307 $281 -5.6621480669835123 $283 $380 forward 7 unknown #
coedge $-1 $381 $181 $379 $382 reversed $174 $-1 #
coedge $-1 $181 $381 $183 $289 forward $174 $-1 #
vertex $-1 $182 $383 #
straight-curve $-1 0 28.478475992497216 7.3590805487476789 -1 0 0 I I #
edge $-1 $384 -12.16821042452945 $185 -7.3590805487476789 $183 $385 forward 7 unknown #
point $-1 65.833307901242108 17.042356086810422 7.3590805487476789 #
point $-1 65.833307901242108 28.478475992497216 7.3590805487476789 #
plane-surface $-1 0 0 12.16821042452945 0 0 1 1 0 0 forward_v I I I I #
coedge $-1 $303 $302 $295 $386 forward $188 $-1 #
coedge $-1 $295 $190 $192 $299 reversed $111 $-1 #
coedge $-1 $190 $294 $293 $386 reversed $111 $-1 #
coedge $-1 $198 $193 $190 $297 forward $199 $-1 #
edge $-1 $300 -29.57431993076775 $387 -22.913158000411343 $296 $388 forward 7 unknown #
coedge $-1 $192 $191 $303 $389 reversed $69 $-1 #
edge $-1 $390 -5.3663634765924311e-014 $300 12.570145188834223 $294 $391 forward 7 unknown #
vertex $-1 $194 $392 #
straight-curve $-1 -59.172145970885701 -6.2628114590264605 12.16821042452945 0 1 0 I I #
coedge $-1 $293 $195 $198 $307 reversed $188 $-1 #
coedge $-1 $195 $293 $298 $389 forward $188 $-1 #
vertex $-1 $196 $393 #
straight-curve $-1 -65.833307901242108 -15.703893789233152 35.640398564720449 0 0 1 I I #
straight-curve $-1 -65.83330790124208 -15.703893789233152 1.50812262911505 -0.52991925155115449 0 -0.84804810408105047 I I #
edge $-1 $387 9.3473520468726896 $200 15.703893789233152 $302 $394 forward 7 unknown #
point $-1 -65.833307901242108 -15.703893789233152 12.16821042452945 #
point $-1 -59.172145970885701 -15.703893789233152 12.16821042452945 #
edge $-1 $395 1 $395 0 $203 $-1 forward 7 unknown #
vertex $-1 $204 $396 #
ellipse-curve $-1 -61.152247793299885 -12.525622918052921 5.9942935281974501 -0.84804810408105047 0 0.52991925155115449 0.52991925155115449 0 0.84804810408105047 1 I I #
point $-1 -61.972807684512773 -12.525622918052921 7.6862146309033132 #
loop $-1 $-1 $214 $207 #
plane-surface $-1 -65.833307901242108 0 0 1 0 0 0 0 -1 forward_v I I I I #
coedge $-1 $397 $398 $211 $318 reversed $208 $-1 #
coedge $-1 $211 $210 $323 $399 reversed $78 $-1 #
edge $-1 $400 -5.3663634765924311e-014 $320 12.570145188834223 $316 $401 forward 7 unknown #
coedge $-1 $217 $212 $398 $402 forward $126 $-1 #
vertex $-1 $402 $403 #
straight-curve $-1 -59.172145970885701 6.9320426078150952 12.16821042452945 0 1 0 I I #
coedge $-1 $404 $214 $217 $327 reversed $314 $-1 #
coedge $-1 $214 $404 $317 $399 forward $314 $-1 #
vertex $-1 $215 $405 #
straight-curve $-1 -65.833307901242108 10.685814344449959 35.640398564720449 0 0 1 I I #
straight-curve $-1 -65.83330790124208 10.685814344449959 1.50812262911505 -0.52991925155115449 0 -0.84804810408105047 I I #
edge $-1 $406 -17.042356086810422 $218 -10.685814344449959 $322 $407 forward 7 unknown #
point $-1 -65.833307901242108 10.685814344449959 12.16821042452945 #
point $-1 -59.172145970885701 10.685814344449959 12.16821042452945 #
edge $-1 $408 1 $408 0 $221 $-1 forward 7 unknown #
vertex $-1 $222 $409 #
ellipse-curve $-1 -61.152247793299885 13.86408521563019 5.9942935281974501 -0.84804810408105047 0 0.52991925155115449 0.52991925155115449 0 0.84804810408105047 1 I I #
point $-1 -61.972807684512773 13.86408521563019 7.6862146309033132 #
plane-surface $-1 65.833307901242108 0 0 -1 0 0 0 0 1 forward_v I I I I #
coedge $-1 $230 $228 $232 $339 reversed $141 $-1 #
edge $-1 $243 -12.16821042452945 $341 12.16821042452945 $242 $410 forward 7 unknown #
vertex $-1 $339 $411 #
straight-curve $-1 -65.833307901242108 -28.478475992497216 0 0 0 -1 I I #
edge $-1 $337 -28.478475992497216 $341 28.478475992497216 $335 $412 forward 7 unknown #
straight-curve $-1 0 -28.478475992497216 -12.16821042452945 -1 0 0 I I #
vertex $-1 $235 $413 #
straight-curve $-1 0 28.478475992497216 -12.16821042452945 1 0 0 I I #
point $-1 65.833307901242108 28.478475992497216 -12.16821042452945 #
point $-1 65.833307901242108 -28.478475992497216 -12.16821042452945 #
straight-curve $-1 -65.833307901242108 0 12.16821042452945 0 -1 0 I I #
point $-1 -65.833307901242108 28.478475992497216 12.16821042452945 #
point $-1 -65.833307901242108 -28.478475992497216 12.16821042452945 #
straight-curve $-1 65.833307901242108 -28.478475992497216 0 0 0 -1 I I #
straight-curve $-1 65.833307901242108 28.478475992497216 0 0 0 -1 I I #
plane-surface $-1 65.833307901242108 0 0 -1 0 0 0 0 1 forward_v I I I I #
coedge $-1 $414 $354 $259 $359 forward $253 $-1 #
coedge $-1 $260 $255 $414 $415 forward $160 $-1 #
edge $-1 $269 -6.3872911016320337 $416 6.3872911016320302 $267 $417 forward 7 unknown #
coedge $-1 $351 $418 $256 $355 reversed $253 $-1 #
edge $-1 $362 -65.833307901242108 $357 65.833307901242108 $354 $419 forward 7 unknown #
coedge $-1 $267 $257 $418 $420 forward $268 $-1 #
vertex $-1 $258 $421 #
straight-curve $-1 65.833307901242108 -34.865767094129247 -2.2054203103321219 0 1 0 I I #
edge $-1 $362 -1.590553363728815 $360 1.590553363728815 $259 $422 forward 7 unknown #
vertex $-1 $261 $423 #
straight-curve $-1 -65.833307901242108 -34.865767094129247 -5.3865270377897518 0 1 0 I I #
vertex $-1 $262 $424 #
straight-curve $-1 -65.833307901242108 -34.865767094129247 -2.2054203103321219 0 -1 0 I I #
point $-1 -65.833307901242108 -28.478475992497213 -5.3865270377897518 #
straight-curve $-1 0 -28.478475992497216 -5.3865270377897518 -1 0 0 I I #
point $-1 65.833307901242108 -28.478475992497213 -5.3865270377897518 #
loop $-1 $-1 $279 $273 #
plane-surface $-1 -65.833307901242108 0 0 1 0 0 0 0 -1 forward_v I I I I #
coedge $-1 $370 $425 $278 $374 forward $274 $-1 #
coedge $-1 $426 $369 $276 $371 forward $274 $-1 #
edge $-1 $372 17.042356086810422 $384 28.478475992497216 $276 $427 forward 7 unknown #
vertex $-1 $371 $428 #
straight-curve $-1 65.833307901242108 17.042356086810422 4.8818227433192822 0 0 -1 I I #
edge $-1 $376 -65.833307901242108 $372 65.833307901242108 $369 $429 forward 7 unknown #
coedge $-1 $379 $279 $425 $430 reversed $367 $-1 #
vertex $-1 $280 $431 #
straight-curve $-1 -65.833307901242108 17.042356086810422 4.8818227433192822 0 0 1 I I #
point $-1 -65.833307901242108 17.042356086810422 7.3590805487476789 #
coedge $-1 $283 $375 $285 $382 forward $367 $-1 #
straight-curve $-1 -65.833307901242108 11.38020801982691 7.3590805487476789 0 -1 0 I I #
coedge $-1 $286 $285 $426 $432 reversed $174 $-1 #
edge $-1 $433 -12.16821042452945 $287 -7.3590805487476789 $285 $434 forward 7 unknown #
point $-1 -65.833307901242108 28.478475992497216 7.3590805487476789 #
vertex $-1 $371 $435 #
straight-curve $-1 65.833307901242108 28.478475992497216 0 0 0 -1 I I #
edge $-1 $387 23.472188140191001 $390 34.132275935605442 $293 $436 forward 7 unknown #
vertex $-1 $307 $437 #
straight-curve $-1 -88.746465901653451 -9.3473520468726896 12.168210424529448 -1 0 0 I I #
edge $-1 $390 3.0845405878462291 $304 9.441082330206692 $303 $438 forward 7 unknown #
vertex $-1 $389 $439 #
straight-curve $-1 -65.83330790124208 -9.3473520468726896 1.50812262911505 0.52991925155115449 0 0.84804810408105047 I I #
point $-1 -59.172145970885701 -9.3473520468726896 12.16821042452945 #
point $-1 -65.833307901242108 -15.703893789233152 1.5081226291150045 #
straight-curve $-1 -65.833307901242108 0 12.16821042452945 0 -1 0 I I #
vertex $-1 $310 $440 #
point $-1 -60.622328541748736 -12.525622918052921 6.8423416322785009 #
coedge $-1 $398 $316 $404 $441 reversed $208 $-1 #
coedge $-1 $316 $397 $319 $402 reversed $208 $-1 #
edge $-1 $400 -10.110313478995327 $324 -3.7537717366348637 $323 $442 forward 7 unknown #
vertex $-1 $441 $443 #
straight-curve $-1 -65.83330790124208 17.042356086810422 1.50812262911505 0.52991925155115449 0 0.84804810408105047 I I #
edge $-1 $320 59.172145970885701 $406 65.833307901242108 $319 $444 forward 7 unknown #
point $-1 -59.172145970885701 17.042356086810422 12.16821042452945 #
coedge $-1 $323 $322 $397 $441 forward $314 $-1 #
point $-1 -65.833307901242108 10.685814344449959 1.5081226291150045 #
vertex $-1 $327 $445 #
straight-curve $-1 -65.833307901242108 0 12.16821042452945 0 -1 0 I I #
vertex $-1 $330 $446 #
point $-1 -60.622328541748736 13.86408521563019 6.8423416322785009 #
straight-curve $-1 -65.833307901242108 28.478475992497216 0 0 0 -1 I I #
point $-1 -65.833307901242108 -28.478475992497216 -12.16821042452945 #
straight-curve $-1 -65.833307901242108 0 -12.16821042452945 0 1 0 I I #
point $-1 -65.833307901242108 28.478475992497216 -12.16821042452945 #
coedge $-1 $418 $351 $352 $415 reversed $253 $-1 #
edge $-1 $416 -65.833307901242108 $360 65.833307901242108 $414 $447 forward 7 unknown #
vertex $-1 $420 $448 #
straight-curve $-1 65.833307901242108 -34.865767094129247 -5.3865270377897518 0 -1 0 I I #
coedge $-1 $354 $414 $356 $420 reversed $253 $-1 #
straight-curve $-1 0 -41.253058195761277 -2.2054203103321219 1 0 0 I I #
edge $-1 $357 -1.590553363728815 $416 1.590553363728815 $356 $449 forward 7 unknown #
point $-1 65.833307901242108 -41.253058195761277 -2.2054203103321219 #
straight-curve $-1 -65.833307901242108 -41.253058195761277 -3.7959736740609369 0 0 -1 I I #
point $-1 -65.833307901242108 -41.253058195761277 -5.3865270377897518 #
point $-1 -65.833307901242108 -41.253058195761277 -2.2054203103321219 #
coedge $-1 $369 $426 $375 $430 forward $274 $-1 #
coedge $-1 $425 $370 $381 $432 forward $274 $-1 #
straight-curve $-1 65.833307901242108 0 12.16821042452945 0 1 0 I I #
point $-1 65.833307901242108 17.042356086810422 12.16821042452945 #
straight-curve $-1 0 17.042356086810422 12.16821042452945 1 0 0 I I #
edge $-1 $433 -28.478475992497216 $376 -17.042356086810422 $375 $450 forward 7 unknown #
point $-1 -65.833307901242108 17.042356086810422 12.16821042452945 #
edge $-1 $384 -65.833307901242108 $433 65.833307901242108 $381 $451 forward 7 unknown #
vertex $-1 $432 $452 #
straight-curve $-1 -65.833307901242108 28.478475992497216 0 0 0 -1 I I #
point $-1 65.833307901242108 28.478475992497216 12.16821042452945 #
straight-curve $-1 -65.833307901242108 -9.3473520468726896 35.640398564720449 0 0 -1 I I #
point $-1 -65.833307901242108 -9.3473520468726896 12.16821042452945 #
straight-curve $-1 -65.833307901242108 -6.2628114590264605 1.5081226291150016 0 -1 0 I I #
point $-1 -65.833307901242108 -9.3473520468726896 1.5081226291150045 #
point $-1 -60.304199689218841 -12.525622918052921 5.4643742766462955 #
edge $-1 $406 23.472188140191001 $400 34.132275935605442 $404 $453 forward 7 unknown #
straight-curve $-1 -65.833307901242108 6.9320426078150952 1.5081226291150016 0 -1 0 I I #
point $-1 -65.833307901242108 17.042356086810422 1.5081226291150045 #
straight-curve $-1 0 17.042356086810422 12.16821042452945 -1 0 0 I I #
point $-1 -65.833307901242108 17.042356086810422 12.16821042452945 #
point $-1 -60.304199689218841 13.86408521563019 5.4643742766462955 #
straight-curve $-1 0 -41.253058195761277 -5.3865270377897518 -1 0 0 I I #
point $-1 65.833307901242108 -41.253058195761277 -5.3865270377897518 #
straight-curve $-1 65.833307901242108 -41.253058195761277 -3.7959736740609369 0 0 -1 I I #
straight-curve $-1 -65.833307901242108 0 12.16821042452945 0 -1 0 I I #
straight-curve $-1 0 28.478475992497216 12.16821042452945 -1 0 0 I I #
point $-1 -65.833307901242108 28.478475992497216 12.16821042452945 #
straight-curve $-1 -65.833307901242108 17.042356086810422 35.640398564720449 0 0 -1 I I #
End-of-ACIS-data 