500 0 6 0           
7 Unknown 11 ACIS 5.0 NT 24 Thu Mar 25 19:43:16 1999 
-1 9.9999999999999995e-007 1e-010 
body $-1 $6 $-1 $7 #
body $-1 $8 $-1 $9 #
body $-1 $10 $-1 $11 #
body $-1 $12 $-1 $13 #
body $-1 $14 $-1 $15 #
body $-1 $16 $-1 $17 #
lump $-1 $-1 $18 $0 #
transform $-1 1 0 0 0 1 0 0 0 1 51.957152012695701 21.381286940201768 7.1834520565996041 1 rotate no_reflect no_shear #
lump $-1 $-1 $19 $1 #
transform $-1 1 0 0 0 1 0 0 0 1 51.957152012695701 21.381286940201768 7.1834520565996041 1 rotate no_reflect no_shear #
lump $-1 $-1 $20 $2 #
transform $-1 1 0 0 0 1 0 0 0 1 51.957152012695701 21.381286940201768 7.1834520565996041 1 rotate no_reflect no_shear #
lump $-1 $-1 $21 $3 #
transform $-1 1 0 0 0 1 0 0 0 1 51.957152012695701 21.381286940201768 7.1834520565996041 1 rotate no_reflect no_shear #
lump $-1 $-1 $22 $4 #
transform $-1 1 0 0 0 1 0 0 0 1 51.957152012695701 21.381286940201768 7.1834520565996041 1 rotate no_reflect no_shear #
lump $-1 $-1 $23 $5 #
transform $-1 1 0 0 0 1 0 0 0 1 51.957152012695701 21.381286940201768 7.1834520565996041 1 rotate no_reflect no_shear #
shell $-1 $-1 $-1 $24 $-1 $6 #
shell $-1 $-1 $-1 $25 $-1 $8 #
shell $-1 $-1 $-1 $26 $-1 $10 #
shell $-1 $-1 $-1 $27 $-1 $12 #
shell $-1 $-1 $-1 $28 $-1 $14 #
shell $-1 $-1 $-1 $29 $-1 $16 #
face $-1 $30 $31 $18 $-1 $32 forward single #
face $-1 $33 $34 $19 $-1 $35 forward single #
face $-1 $36 $37 $20 $-1 $38 reversed single #
face $-1 $39 $40 $21 $-1 $41 forward single #
face $-1 $42 $43 $22 $-1 $44 forward single #
face $-1 $45 $46 $23 $-1 $47 forward single #
face $-1 $48 $49 $18 $-1 $50 reversed single #
loop $-1 $-1 $51 $24 #
plane-surface $-1 0 0 7.1834520565996041 0 0 1 1 0 0 forward_v I I I I #
face $-1 $52 $53 $19 $-1 $54 reversed single #
loop $-1 $-1 $55 $25 #
plane-surface $-1 0 -18.966761805512174 -3.557986800677174 0 0 1 1 0 0 forward_v I I I I #
face $-1 $56 $57 $20 $-1 $58 reversed single #
loop $-1 $-1 $59 $26 #
plane-surface $-1 -111.55994896963392 -16.552236670822584 89.095172138293862 0 1 0 -0.57357644374324357 0 0.81915203911291934 forward_v I I I I #
face $-1 $60 $61 $21 $-1 $62 forward single #
loop $-1 $63 $64 $27 #
cone-surface $-1 -49.378262008929198 -14.867970782535387 5.1689290601906741 0.57357644374324357 0 -0.81915203911291934 0.20478800977822983 0 0.14339411093581089 1 I I 0 1 0.25 forward I I I I #
face $-1 $65 $66 $22 $-1 $67 forward single #
loop $-1 $68 $69 $28 #
cone-surface $-1 -49.378262008929198 -12.341571950104591 5.1689290601906741 0.57357644374324357 0 -0.81915203911291934 0.20478800977822983 0 0.14339411093581089 1 I I 0 1 0.25 forward I I I I #
face $-1 $70 $71 $23 $-1 $72 forward single #
loop $-1 $73 $74 $29 #
cone-surface $-1 -49.378262008929198 -9.8151731176737957 5.1689290601906741 0.57357644374324357 0 -0.81915203911291934 0.20478800977822983 0 0.14339411093581089 1 I I 0 1 0.25 forward I I I I #
face $-1 $75 $76 $18 $-1 $77 reversed single #
loop $-1 $-1 $78 $30 #
plane-surface $-1 0 0 -7.1834520565996041 0 0 1 1 0 0 forward_v I I I I #
coedge $-1 $79 $80 $81 $82 forward $31 $-1 #
face $-1 $83 $84 $19 $-1 $85 reversed single #
loop $-1 $-1 $86 $33 #
plane-surface $-1 0 -16.55223667082258 -5.370719428638389 0 -1 0 0 0 -1 forward_v I I I I #
coedge $-1 $87 $88 $89 $90 reversed $34 $-1 #
face $-1 $91 $92 $20 $-1 $93 reversed single #
loop $-1 $-1 $94 $36 #
plane-surface $-1 -51.957152012695701 -12.341571950104592 3.9735581028946569 -0.57357644374324357 0 0.81915203911291934 0.81915203911291934 0 0.57357644374324357 forward_v I I I I #
coedge $-1 $95 $96 $97 $98 reversed $37 $-1 #
face $-1 $-1 $99 $21 $-1 $100 forward single #
loop $-1 $101 $102 $39 #
cone-surface $-1 -49.019776731589673 -14.867970782535387 4.6569590357450998 0.57357644374324357 0 -0.81915203911291934 0.10239400488911492 0 0.071697055467905446 1 I I -0.70710678118654746 0.70710678118654746 0.125 forward I I I I #
loop $-1 $-1 $103 $27 #
coedge $-1 $64 $64 $104 $105 reversed $40 $-1 #
face $-1 $-1 $106 $22 $-1 $107 forward single #
loop $-1 $108 $109 $42 #
cone-surface $-1 -49.019776731589673 -12.341571950104591 4.6569590357450998 0.57357644374324357 0 -0.81915203911291934 0.10239400488911492 0 0.071697055467905446 1 I I -0.70710678118654746 0.70710678118654746 0.125 forward I I I I #
loop $-1 $-1 $110 $28 #
coedge $-1 $69 $69 $111 $112 reversed $43 $-1 #
face $-1 $-1 $113 $23 $-1 $114 forward single #
loop $-1 $115 $116 $45 #
cone-surface $-1 -49.019776731589673 -9.8151731176737957 4.6569590357450998 0.57357644374324357 0 -0.81915203911291934 0.10239400488911492 0 0.071697055467905446 1 I I -0.70710678118654746 0.70710678118654746 0.125 forward I I I I #
loop $-1 $-1 $117 $29 #
coedge $-1 $74 $74 $118 $119 reversed $46 $-1 #
face $-1 $120 $121 $18 $-1 $122 reversed single #
loop $-1 $-1 $123 $48 #
plane-surface $-1 0 -21.381286940201768 0 0 1 0 0 0 1 forward_v I I I I #
coedge $-1 $124 $125 $126 $127 forward $49 $-1 #
coedge $-1 $128 $51 $129 $130 forward $31 $-1 #
coedge $-1 $51 $128 $131 $132 forward $31 $-1 #
coedge $-1 $133 $134 $51 $82 reversed $135 $-1 #
edge $-1 $136 -21.381286940201768 $137 21.381286940201768 $81 $138 forward 7 unknown #
face $-1 $139 $140 $19 $-1 $141 reversed single #
loop $-1 $-1 $142 $52 #
plane-surface $-1 0 0 -7.1834520565996041 0 0 1 1 0 0 forward_v I I I I #
coedge $-1 $143 $144 $145 $146 reversed $53 $-1 #
coedge $-1 $147 $55 $144 $148 forward $34 $-1 #
coedge $-1 $55 $147 $149 $150 reversed $34 $-1 #
coedge $-1 $151 $145 $55 $90 forward $140 $-1 #
edge $-1 $152 7.0688557680664932 $153 11.897906037445681 $89 $154 forward 7 unknown #
face $-1 $155 $156 $20 $-1 $157 forward single #
loop $-1 $-1 $158 $56 #
plane-surface $-1 -111.55994896963392 -8.1309072293866009 89.095172138293862 0 -1 0 0.57357644374324357 0 -0.81915203911291934 forward_v I I I I #
coedge $-1 $159 $160 $161 $162 reversed $57 $-1 #
coedge $-1 $96 $59 $163 $164 reversed $37 $-1 #
coedge $-1 $59 $95 $159 $165 reversed $37 $-1 #
coedge $-1 $161 $166 $59 $98 forward $156 $-1 #
edge $-1 $167 3.8228224721212598 $168 8.4070260359110307 $97 $169 forward 7 unknown #
loop $-1 $-1 $104 $60 #
plane-surface $-1 -51.957152012695701 -12.341571950104592 3.9735581028946569 -0.57357644374324357 0 0.81915203911291934 0.81915203911291934 0 0.57357644374324357 forward_v I I I I #
loop $-1 $-1 $170 $39 #
coedge $-1 $102 $102 $103 $171 reversed $61 $-1 #
coedge $-1 $103 $103 $102 $171 forward $63 $-1 #
coedge $-1 $104 $104 $64 $105 forward $99 $-1 #
edge $-1 $172 0 $172 6.2831853071796004 $104 $173 forward 7 unknown #
loop $-1 $-1 $111 $65 #
plane-surface $-1 -51.957152012695701 -12.341571950104592 3.9735581028946569 -0.57357644374324357 0 0.81915203911291934 0.81915203911291934 0 0.57357644374324357 forward_v I I I I #
loop $-1 $-1 $174 $42 #
coedge $-1 $109 $109 $110 $175 reversed $66 $-1 #
coedge $-1 $110 $110 $109 $175 forward $68 $-1 #
coedge $-1 $111 $111 $69 $112 forward $106 $-1 #
edge $-1 $176 0 $176 6.2831853071796004 $111 $177 forward 7 unknown #
loop $-1 $-1 $118 $70 #
plane-surface $-1 -51.957152012695701 -12.341571950104592 3.9735581028946569 -0.57357644374324357 0 0.81915203911291934 0.81915203911291934 0 0.57357644374324357 forward_v I I I I #
loop $-1 $-1 $178 $45 #
coedge $-1 $116 $116 $117 $179 reversed $71 $-1 #
coedge $-1 $117 $117 $116 $179 forward $73 $-1 #
coedge $-1 $118 $118 $74 $119 forward $113 $-1 #
edge $-1 $180 0 $180 6.2831853071796004 $118 $181 forward 7 unknown #
face $-1 $182 $183 $18 $-1 $184 reversed single #
loop $-1 $-1 $185 $75 #
plane-surface $-1 -51.957152012695701 0 0 1 0 0 0 0 -1 forward_v I I I I #
coedge $-1 $186 $131 $187 $188 forward $76 $-1 #
coedge $-1 $189 $78 $186 $190 forward $49 $-1 #
coedge $-1 $78 $189 $191 $192 forward $49 $-1 #
coedge $-1 $134 $133 $78 $127 reversed $135 $-1 #
edge $-1 $193 -21.381286940201768 $194 21.381286940201768 $126 $195 forward 7 unknown #
coedge $-1 $80 $79 $196 $197 forward $31 $-1 #
coedge $-1 $198 $199 $79 $130 reversed $183 $-1 #
edge $-1 $137 -51.957152012695701 $200 51.957152012695701 $129 $201 forward 7 unknown #
coedge $-1 $123 $202 $80 $132 reversed $76 $-1 #
edge $-1 $203 -51.957152012695701 $136 51.957152012695701 $131 $204 forward 7 unknown #
coedge $-1 $126 $81 $202 $205 forward $135 $-1 #
coedge $-1 $81 $126 $198 $206 reversed $135 $-1 #
loop $-1 $-1 $133 $182 #
vertex $-1 $82 $207 #
vertex $-1 $82 $208 #
straight-curve $-1 51.957152012695701 0 7.1834520565996041 0 1 0 I I #
face $-1 $209 $210 $19 $-1 $211 reversed single #
loop $-1 $-1 $145 $83 #
plane-surface $-1 51.957152012695701 0 0 -1 0 0 0 0 1 forward_v I I I I #
coedge $-1 $212 $213 $143 $214 forward $84 $-1 #
coedge $-1 $215 $86 $142 $214 reversed $53 $-1 #
coedge $-1 $86 $215 $87 $148 reversed $53 $-1 #
coedge $-1 $89 $216 $86 $146 forward $140 $-1 #
edge $-1 $217 -4.49809234228041 $152 -0.87262708635797948 $145 $218 forward 7 unknown #
coedge $-1 $88 $87 $219 $220 reversed $34 $-1 #
edge $-1 $152 -51.957152012695701 $221 51.957152012695701 $144 $222 forward 7 unknown #
coedge $-1 $223 $224 $88 $150 forward $210 $-1 #
edge $-1 $153 -51.957152012695701 $225 51.957152012695701 $149 $226 forward 7 unknown #
coedge $-1 $216 $89 $224 $227 forward $140 $-1 #
vertex $-1 $90 $228 #
vertex $-1 $227 $229 #
straight-curve $-1 51.957152012695701 -9.4833809027560871 -3.557986800677174 0 -1 0 I I #
face $-1 $-1 $230 $20 $-1 $231 reversed single #
loop $-1 $-1 $97 $91 #
plane-surface $-1 0 0 7.1834520565996041 0 0 1 1 0 0 forward_v I I I I #
coedge $-1 $232 $233 $234 $235 reversed $92 $-1 #
coedge $-1 $236 $94 $96 $165 forward $57 $-1 #
coedge $-1 $94 $236 $232 $237 forward $57 $-1 #
coedge $-1 $234 $97 $94 $162 forward $156 $-1 #
edge $-1 $168 -10.381450695770287 $238 -1.9601212543343047 $161 $239 forward 7 unknown #
coedge $-1 $240 $241 $95 $164 forward $230 $-1 #
edge $-1 $242 -40.574027966252274 $167 -37.364134012547325 $163 $243 forward 7 unknown #
edge $-1 $168 -5.5962792557461256 $242 0 $96 $244 forward 7 unknown #
coedge $-1 $97 $234 $240 $245 forward $156 $-1 #
vertex $-1 $164 $246 #
vertex $-1 $98 $247 #
straight-curve $-1 -55.779974484816961 -16.552236670822584 7.1834520565996058 1 0 0 I I #
coedge $-1 $170 $170 $-1 $248 reversed $101 $-1 #
edge $-1 $249 0 $249 6.2831853071796004 $102 $250 forward 7 unknown #
vertex $-1 $105 $251 #
ellipse-curve $-1 -49.665050230800816 -14.867970782535387 5.5785050797471305 -0.57357644374324357 0 0.81915203911291934 0.20478800977822983 0 0.14339411093581089 1 I I #
coedge $-1 $174 $174 $-1 $252 reversed $108 $-1 #
edge $-1 $253 0 $253 6.2831853071796004 $109 $254 forward 7 unknown #
vertex $-1 $112 $255 #
ellipse-curve $-1 -49.665050230800816 -12.341571950104591 5.5785050797471305 -0.57357644374324357 0 0.81915203911291934 0.20478800977822983 0 0.14339411093581089 1 I I #
coedge $-1 $178 $178 $-1 $256 reversed $115 $-1 #
edge $-1 $257 0 $257 6.2831853071796004 $116 $258 forward 7 unknown #
vertex $-1 $119 $259 #
ellipse-curve $-1 -49.665050230800816 -9.8151731176737957 5.5785050797471305 -0.57357644374324357 0 0.81915203911291934 0.20478800977822983 0 0.14339411093581089 1 I I #
face $-1 $-1 $135 $18 $-1 $260 reversed single #
loop $-1 $-1 $198 $120 #
plane-surface $-1 0 21.381286940201768 0 0 -1 0 0 0 -1 forward_v I I I I #
coedge $-1 $261 $196 $199 $262 forward $121 $-1 #
coedge $-1 $202 $123 $124 $190 reversed $76 $-1 #
coedge $-1 $196 $261 $123 $188 reversed $121 $-1 #
edge $-1 $203 -7.1834520565996041 $263 7.1834520565996041 $187 $264 forward 7 unknown #
coedge $-1 $125 $124 $261 $265 forward $49 $-1 #
edge $-1 $194 -51.957152012695701 $263 51.957152012695701 $186 $266 forward 7 unknown #
coedge $-1 $199 $198 $125 $192 reversed $183 $-1 #
edge $-1 $267 -51.957152012695701 $193 51.957152012695701 $191 $268 forward 7 unknown #
vertex $-1 $127 $269 #
vertex $-1 $205 $270 #
straight-curve $-1 51.957152012695701 0 -7.1834520565996041 0 -1 0 I I #
coedge $-1 $185 $187 $128 $197 reversed $121 $-1 #
edge $-1 $200 -21.381286940201768 $203 21.381286940201768 $196 $271 forward 7 unknown #
coedge $-1 $191 $129 $134 $206 forward $183 $-1 #
coedge $-1 $129 $191 $185 $262 reversed $183 $-1 #
vertex $-1 $130 $272 #
straight-curve $-1 0 21.381286940201768 7.1834520565996041 -1 0 0 I I #
coedge $-1 $131 $186 $133 $205 reversed $76 $-1 #
vertex $-1 $197 $273 #
straight-curve $-1 0 -21.381286940201768 7.1834520565996041 1 0 0 I I #
edge $-1 $136 -7.1834520565996041 $194 7.1834520565996041 $133 $274 forward 7 unknown #
edge $-1 $137 -7.1834520565996041 $193 7.1834520565996041 $134 $275 forward 7 unknown #
point $-1 51.957152012695701 -21.381286940201768 7.1834520565996041 #
point $-1 51.957152012695701 21.381286940201768 7.1834520565996041 #
face $-1 $-1 $276 $19 $-1 $277 reversed single #
loop $-1 $-1 $149 $139 #
plane-surface $-1 0 -21.381286940201768 0 0 1 0 0 0 1 forward_v I I I I #
coedge $-1 $278 $142 $216 $279 forward $84 $-1 #
coedge $-1 $142 $278 $280 $281 forward $84 $-1 #
edge $-1 $282 -51.957152012695701 $217 51.957152012695701 $142 $283 forward 7 unknown #
coedge $-1 $144 $143 $284 $285 reversed $53 $-1 #
coedge $-1 $145 $151 $212 $279 reversed $140 $-1 #
vertex $-1 $279 $286 #
straight-curve $-1 51.957152012695701 -16.55223667082258 -2.6853597143191945 0 0 1 I I #
coedge $-1 $284 $287 $147 $220 forward $276 $-1 #
edge $-1 $225 -11.897906037445681 $221 -7.0688557680664932 $219 $288 forward 7 unknown #
vertex $-1 $220 $289 #
straight-curve $-1 0 -16.55223667082258 -3.557986800677174 -1 0 0 I I #
coedge $-1 $290 $149 $287 $291 forward $210 $-1 #
coedge $-1 $149 $290 $151 $227 reversed $210 $-1 #
vertex $-1 $291 $292 #
straight-curve $-1 0 -21.381286940201768 -3.557986800677174 -1 0 0 I I #
edge $-1 $153 3.557986800677174 $293 7.1834520565996041 $151 $294 forward 7 unknown #
point $-1 51.957152012695701 -16.55223667082258 -3.557986800677174 #
point $-1 51.957152012695701 -21.381286940201768 -3.557986800677174 #
loop $-1 $-1 $163 $155 #
plane-surface $-1 -51.957152012695701 0 0 1 0 0 0 0 -1 forward_v I I I I #
coedge $-1 $233 $158 $160 $237 reversed $92 $-1 #
coedge $-1 $158 $232 $295 $296 reversed $92 $-1 #
coedge $-1 $166 $161 $158 $235 forward $156 $-1 #
edge $-1 $238 -8.4070260359110307 $297 -3.8228224721212598 $234 $298 forward 7 unknown #
coedge $-1 $160 $159 $241 $299 reversed $57 $-1 #
edge $-1 $300 0 $238 5.5962792557461256 $232 $301 forward 7 unknown #
vertex $-1 $162 $302 #
straight-curve $-1 -47.37294844890593 -6.1707859750522962 7.1834520565996058 0 1 0 I I #
coedge $-1 $295 $163 $166 $245 reversed $230 $-1 #
coedge $-1 $163 $295 $236 $299 forward $230 $-1 #
vertex $-1 $164 $303 #
straight-curve $-1 -51.957152012695701 -16.552236670822584 44.547586069146931 0 0 1 I I #
straight-curve $-1 -51.957152012695701 -16.552236670822584 3.9735581028946569 -0.81915203911291934 0 -0.57357644374324357 I I #
edge $-1 $297 8.1309072293866009 $167 16.552236670822584 $240 $304 forward 7 unknown #
point $-1 -51.957152012695701 -16.552236670822584 7.1834520565996041 #
point $-1 -47.37294844890593 -16.552236670822584 7.1834520565996041 #
edge $-1 $305 1 $305 0 $170 $-1 forward 7 unknown #
vertex $-1 $171 $306 #
ellipse-curve $-1 -49.091473787057581 -14.867970782535387 4.759353040634215 -0.57357644374324357 0 0.81915203911291934 0.20478800977822983 0 0.14339411093581089 1 I I #
point $-1 -49.460262221022589 -14.867970782535387 5.7218991906829455 #
edge $-1 $307 1 $307 0 $174 $-1 forward 7 unknown #
vertex $-1 $175 $308 #
ellipse-curve $-1 -49.091473787057581 -12.341571950104591 4.759353040634215 -0.57357644374324357 0 0.81915203911291934 0.20478800977822983 0 0.14339411093581089 1 I I #
point $-1 -49.460262221022589 -12.341571950104591 5.7218991906829455 #
edge $-1 $309 1 $309 0 $178 $-1 forward 7 unknown #
vertex $-1 $179 $310 #
ellipse-curve $-1 -49.091473787057581 -9.8151731176737957 4.759353040634215 -0.57357644374324357 0 0.81915203911291934 0.20478800977822983 0 0.14339411093581089 1 I I #
point $-1 -49.460262221022589 -9.8151731176737957 5.7218991906829455 #
plane-surface $-1 51.957152012695701 0 0 -1 0 0 0 0 1 forward_v I I I I #
coedge $-1 $187 $185 $189 $265 reversed $121 $-1 #
edge $-1 $200 -7.1834520565996041 $267 7.1834520565996041 $199 $311 forward 7 unknown #
vertex $-1 $265 $312 #
straight-curve $-1 -51.957152012695701 -21.381286940201768 0 0 0 -1 I I #
edge $-1 $263 -21.381286940201768 $267 21.381286940201768 $261 $313 forward 7 unknown #
straight-curve $-1 0 -21.381286940201768 -7.1834520565996041 -1 0 0 I I #
vertex $-1 $192 $314 #
straight-curve $-1 0 21.381286940201768 -7.1834520565996041 1 0 0 I I #
point $-1 51.957152012695701 21.381286940201768 -7.1834520565996041 #
point $-1 51.957152012695701 -21.381286940201768 -7.1834520565996041 #
straight-curve $-1 -51.957152012695701 0 7.1834520565996041 0 -1 0 I I #
point $-1 -51.957152012695701 21.381286940201768 7.1834520565996041 #
point $-1 -51.957152012695701 -21.381286940201768 7.1834520565996041 #
straight-curve $-1 51.957152012695701 -21.381286940201768 0 0 0 -1 I I #
straight-curve $-1 51.957152012695701 21.381286940201768 0 0 0 -1 I I #
loop $-1 $-1 $284 $209 #
plane-surface $-1 -51.957152012695701 0 0 1 0 0 0 0 -1 forward_v I I I I #
coedge $-1 $213 $212 $290 $315 forward $84 $-1 #
edge $-1 $217 16.55223667082258 $293 21.381286940201768 $216 $316 forward 7 unknown #
coedge $-1 $287 $284 $213 $281 reversed $276 $-1 #
edge $-1 $317 -21.381286940201768 $282 -16.55223667082258 $280 $318 forward 7 unknown #
vertex $-1 $285 $319 #
straight-curve $-1 0 -16.55223667082258 -7.1834520565996041 1 0 0 I I #
coedge $-1 $280 $219 $215 $285 forward $276 $-1 #
edge $-1 $221 0.87262708635797948 $282 4.49809234228041 $284 $320 forward 7 unknown #
point $-1 51.957152012695701 -16.55223667082258 -7.1834520565996041 #
coedge $-1 $219 $280 $223 $291 reversed $276 $-1 #
straight-curve $-1 -51.957152012695701 -9.4833809027560871 -3.557986800677174 0 1 0 I I #
point $-1 -51.957152012695701 -16.55223667082258 -3.557986800677174 #
coedge $-1 $224 $223 $278 $315 reversed $210 $-1 #
edge $-1 $225 3.557986800677174 $317 7.1834520565996041 $287 $321 forward 7 unknown #
point $-1 -51.957152012695701 -21.381286940201768 -3.557986800677174 #
vertex $-1 $227 $322 #
straight-curve $-1 51.957152012695701 -21.381286940201768 0 0 0 -1 I I #
coedge $-1 $241 $240 $233 $296 forward $230 $-1 #
edge $-1 $297 37.364134012547325 $300 40.574027966252274 $295 $323 forward 7 unknown #
vertex $-1 $245 $324 #
straight-curve $-1 -55.779974484816961 -8.1309072293866009 7.1834520565996058 -1 0 0 I I #
edge $-1 $300 1.9601212543343047 $242 10.381450695770287 $241 $325 forward 7 unknown #
vertex $-1 $299 $326 #
straight-curve $-1 -51.957152012695701 -8.1309072293866009 3.9735581028946569 0.81915203911291934 0 0.57357644374324357 I I #
point $-1 -47.37294844890593 -8.1309072293866009 7.1834520565996041 #
point $-1 -51.957152012695701 -16.552236670822584 3.9735581028946569 #
straight-curve $-1 -51.957152012695701 0 7.1834520565996041 0 -1 0 I I #
vertex $-1 $248 $327 #
point $-1 -48.886685777279347 -14.867970782535387 4.9027471515700256 #
vertex $-1 $252 $328 #
point $-1 -48.886685777279347 -12.341571950104591 4.9027471515700256 #
vertex $-1 $256 $329 #
point $-1 -48.886685777279347 -9.8151731176737957 4.9027471515700256 #
straight-curve $-1 -51.957152012695701 21.381286940201768 0 0 0 -1 I I #
point $-1 -51.957152012695701 -21.381286940201768 -7.1834520565996041 #
straight-curve $-1 -51.957152012695701 0 -7.1834520565996041 0 1 0 I I #
point $-1 -51.957152012695701 21.381286940201768 -7.1834520565996041 #
edge $-1 $293 -51.957152012695701 $317 51.957152012695701 $290 $330 forward 7 unknown #
straight-curve $-1 51.957152012695701 0 -7.1834520565996041 0 -1 0 I I #
vertex $-1 $281 $331 #
straight-curve $-1 -51.957152012695701 0 -7.1834520565996041 0 1 0 I I #
point $-1 -51.957152012695701 -16.55223667082258 -7.1834520565996041 #
straight-curve $-1 -51.957152012695701 -16.55223667082258 -2.6853597143191945 0 0 -1 I I #
straight-curve $-1 -51.957152012695701 -21.381286940201768 0 0 0 -1 I I #
point $-1 51.957152012695701 -21.381286940201768 -7.1834520565996041 #
straight-curve $-1 -51.957152012695701 -8.1309072293866009 44.547586069146931 0 0 -1 I I #
point $-1 -51.957152012695701 -8.1309072293866009 7.1834520565996041 #
straight-curve $-1 -51.957152012695701 -6.1707859750522962 3.9735581028946587 0 -1 0 I I #
point $-1 -51.957152012695701 -8.1309072293866009 3.9735581028946569 #
point $-1 -48.948079676121765 -14.867970782535387 4.5545650308559846 #
point $-1 -48.948079676121765 -12.341571950104591 4.5545650308559846 #
point $-1 -48.948079676121765 -9.8151731176737957 4.5545650308559846 #
straight-curve $-1 0 -21.381286940201768 -7.1834520565996041 -1 0 0 I I #
point $-1 -51.957152012695701 -21.381286940201768 -7.1834520565996041 #
End-of-ACIS-data 