500 0 8 0           
7 Unknown 11 ACIS 5.0 NT 24 Fri Mar 26 20:29:44 1999 
-1 9.9999999999999995e-007 1e-010 
body $-1 $8 $-1 $9 #
body $-1 $10 $-1 $11 #
body $-1 $12 $-1 $13 #
body $-1 $14 $-1 $15 #
body $-1 $16 $-1 $17 #
body $-1 $18 $-1 $19 #
body $-1 $20 $-1 $21 #
body $-1 $22 $-1 $23 #
lump $-1 $-1 $24 $0 #
transform $-1 1 0 0 0 1 0 0 0 1 51.723990600299082 31.899275931574564 8.9613338077253655 1 rotate no_reflect no_shear #
lump $-1 $-1 $25 $1 #
transform $-1 1 0 0 0 1 0 0 0 1 51.723990600299082 31.899275931574564 8.9613338077253655 1 rotate no_reflect no_shear #
lump $-1 $-1 $26 $2 #
transform $-1 1 0 0 0 1 0 0 0 1 51.723990600299082 31.899275931574564 8.9613338077253655 1 rotate no_reflect no_shear #
lump $-1 $-1 $27 $3 #
transform $-1 1 0 0 0 1 0 0 0 1 51.723990600299082 31.899275931574564 8.9613338077253655 1 rotate no_reflect no_shear #
lump $-1 $-1 $28 $4 #
transform $-1 1 0 0 0 1 0 0 0 1 51.723990600299082 31.899275931574564 8.9613338077253655 1 rotate no_reflect no_shear #
lump $-1 $-1 $29 $5 #
transform $-1 1 0 0 0 1 0 0 0 1 51.723990600299082 31.899275931574564 8.9613338077253655 1 rotate no_reflect no_shear #
lump $-1 $-1 $30 $6 #
transform $-1 1 0 0 0 1 0 0 0 1 51.723990600299082 31.899275931574564 8.9613338077253655 1 rotate no_reflect no_shear #
lump $-1 $-1 $31 $7 #
transform $-1 1 0 0 0 1 0 0 0 1 51.723990600299082 31.899275931574564 8.9613338077253655 1 rotate no_reflect no_shear #
shell $-1 $-1 $-1 $32 $-1 $8 #
shell $-1 $-1 $-1 $33 $-1 $10 #
shell $-1 $-1 $-1 $34 $-1 $12 #
shell $-1 $-1 $-1 $35 $-1 $14 #
shell $-1 $-1 $-1 $36 $-1 $16 #
shell $-1 $-1 $-1 $37 $-1 $18 #
shell $-1 $-1 $-1 $38 $-1 $20 #
shell $-1 $-1 $-1 $39 $-1 $22 #
face $-1 $40 $41 $24 $-1 $42 forward single #
face $-1 $43 $44 $25 $-1 $45 reversed single #
face $-1 $46 $47 $26 $-1 $48 reversed single #
face $-1 $49 $50 $27 $-1 $51 forward single #
face $-1 $52 $53 $28 $-1 $54 forward single #
face $-1 $55 $56 $29 $-1 $57 reversed single #
face $-1 $58 $59 $30 $-1 $60 forward single #
face $-1 $61 $62 $31 $-1 $63 forward single #
face $-1 $64 $65 $24 $-1 $66 reversed single #
loop $-1 $-1 $67 $32 #
plane-surface $-1 0 0 8.9613338077253655 0 0 1 1 0 0 forward_v I I I I #
face $-1 $68 $69 $25 $-1 $70 reversed single #
loop $-1 $-1 $71 $33 #
plane-surface $-1 -46.187299138645869 -28.218719556991601 0 0 1 0 0 0 1 forward_v I I I I #
face $-1 $72 $73 $26 $-1 $74 reversed single #
loop $-1 $-1 $75 $34 #
plane-surface $-1 -34.882647548336749 76.121581741506489 114.50168524200285 1 0 0 0 -0.79863551827123203 -0.60181501223851219 forward_v I I I I #
face $-1 $76 $77 $27 $-1 $78 forward single #
loop $-1 $79 $80 $35 #
cone-surface $-1 -29.339825300821325 25.987224382509769 2.8493991801361842 0 -0.79863551827123203 -0.60181501223851219 2 0 0 1 I I 0 1 2 forward I I I I #
face $-1 $81 $82 $28 $-1 $83 forward single #
loop $-1 $84 $85 $36 #
cone-surface $-1 -21.025591929548181 25.987224382509769 2.8493991801361842 0 -0.79863551827123203 -0.60181501223851219 2 0 0 1 I I 0 1 2 forward I I I I #
face $-1 $86 $87 $29 $-1 $88 reversed single #
loop $-1 $-1 $89 $37 #
plane-surface $-1 -15.482769682032751 -114.51650801182694 63.549895709822678 -1 0 0 0 -0.79863551827123203 0.60181501223851219 forward_v I I I I #
face $-1 $90 $91 $30 $-1 $92 forward single #
loop $-1 $93 $94 $38 #
cone-surface $-1 -29.339825300821325 -25.987224382509769 2.849399180136186 0 0.79863551827123203 -0.60181501223851219 2 0 0 1 I I 0 1 2 forward I I I I #
face $-1 $95 $96 $31 $-1 $97 forward single #
loop $-1 $98 $99 $39 #
cone-surface $-1 -21.025591929548181 -25.987224382509769 2.849399180136186 0 0.79863551827123203 -0.60181501223851219 2 0 0 1 I I 0 1 2 forward I I I I #
face $-1 $100 $101 $24 $-1 $102 reversed single #
loop $-1 $-1 $103 $40 #
plane-surface $-1 0 0 -8.9613338077253655 0 0 1 1 0 0 forward_v I I I I #
coedge $-1 $104 $105 $106 $107 forward $41 $-1 #
face $-1 $108 $109 $25 $-1 $110 reversed single #
loop $-1 $-1 $111 $43 #
plane-surface $-1 -46.187299138645869 -23.87263538474248 0 0 -1 0 0 0 -1 forward_v I I I I #
coedge $-1 $112 $113 $114 $115 reversed $44 $-1 #
face $-1 $116 $117 $26 $-1 $118 reversed single #
loop $-1 $-1 $119 $46 #
plane-surface $-1 -25.182708615184751 -6.4956503387458895 52.245137169715484 0 0.79863551827123203 0.60181501223851219 1 0 0 forward_v I I I I #
coedge $-1 $120 $121 $122 $123 reversed $47 $-1 #
face $-1 $-1 $124 $27 $-1 $125 forward single #
loop $-1 $126 $127 $49 #
cone-surface $-1 -29.339825300821325 22.165658250370129 -0.030357374596482245 0 -0.79863551827123203 -0.60181501223851219 1 0 0 1 I I -0.70710678118654746 0.70710678118654746 1 forward I I I I #
loop $-1 $-1 $128 $35 #
coedge $-1 $80 $80 $129 $130 reversed $50 $-1 #
face $-1 $-1 $131 $28 $-1 $132 forward single #
loop $-1 $133 $134 $52 #
cone-surface $-1 -21.025591929548181 22.165658250370129 -0.030357374596482245 0 -0.79863551827123203 -0.60181501223851219 1 0 0 1 I I -0.70710678118654746 0.70710678118654746 1 forward I I I I #
loop $-1 $-1 $135 $36 #
coedge $-1 $85 $85 $136 $137 reversed $53 $-1 #
face $-1 $138 $139 $29 $-1 $140 reversed single #
loop $-1 $-1 $141 $55 #
plane-surface $-1 -25.182708615184751 -31.899275931574564 1.2933476375353123 0 -0.79863551827123203 0.60181501223851219 1 0 0 forward_v I I I I #
coedge $-1 $142 $143 $144 $145 reversed $56 $-1 #
face $-1 $-1 $146 $30 $-1 $147 forward single #
loop $-1 $148 $149 $58 #
cone-surface $-1 -29.339825300821325 -22.165658250370129 -0.030357374596480469 0 0.79863551827123203 -0.60181501223851219 1 0 0 1 I I -0.70710678118654746 0.70710678118654746 1 forward I I I I #
loop $-1 $-1 $150 $38 #
coedge $-1 $94 $94 $151 $152 reversed $59 $-1 #
face $-1 $-1 $153 $31 $-1 $154 forward single #
loop $-1 $155 $156 $61 #
cone-surface $-1 -21.025591929548181 -22.165658250370129 -0.030357374596480469 0 0.79863551827123203 -0.60181501223851219 1 0 0 1 I I -0.70710678118654746 0.70710678118654746 1 forward I I I I #
loop $-1 $-1 $157 $39 #
coedge $-1 $99 $99 $158 $159 reversed $62 $-1 #
face $-1 $160 $161 $24 $-1 $162 reversed single #
loop $-1 $-1 $163 $64 #
plane-surface $-1 0 -31.899275931574564 0 0 1 0 0 0 1 forward_v I I I I #
coedge $-1 $164 $165 $166 $167 forward $65 $-1 #
coedge $-1 $168 $67 $169 $170 forward $41 $-1 #
coedge $-1 $67 $168 $171 $172 forward $41 $-1 #
coedge $-1 $173 $174 $67 $107 reversed $175 $-1 #
edge $-1 $176 -31.899275931574564 $177 31.899275931574564 $106 $178 forward 7 unknown #
face $-1 $179 $180 $25 $-1 $181 reversed single #
loop $-1 $-1 $182 $68 #
plane-surface $-1 -40.650607676992657 -26.045677470867041 0 -1 0 0 0 0 1 forward_v I I I I #
coedge $-1 $183 $184 $185 $186 forward $69 $-1 #
coedge $-1 $187 $71 $188 $189 reversed $44 $-1 #
coedge $-1 $71 $187 $190 $191 reversed $44 $-1 #
coedge $-1 $192 $193 $71 $115 forward $194 $-1 #
edge $-1 $195 -8.9613338077253655 $196 8.9613338077253655 $114 $197 forward 7 unknown #
face $-1 $198 $199 $26 $-1 $200 reversed single #
loop $-1 $-1 $201 $72 #
plane-surface $-1 -15.482769682032751 76.121581741506489 114.50168524200285 -1 0 0 0 0.79863551827123203 0.60181501223851219 forward_v I I I I #
coedge $-1 $202 $203 $204 $205 reversed $73 $-1 #
coedge $-1 $121 $75 $206 $207 reversed $47 $-1 #
coedge $-1 $75 $120 $202 $208 reversed $47 $-1 #
coedge $-1 $204 $209 $75 $123 forward $210 $-1 #
edge $-1 $211 6.1615149391786801 $212 11.93975680957147 $122 $213 forward 7 unknown #
loop $-1 $-1 $129 $76 #
plane-surface $-1 -25.182708615184751 -6.4956503387458895 52.245137169715484 0 0.79863551827123203 0.60181501223851219 1 0 0 forward_v I I I I #
loop $-1 $-1 $214 $49 #
coedge $-1 $127 $127 $128 $215 reversed $77 $-1 #
coedge $-1 $128 $128 $127 $215 forward $79 $-1 #
coedge $-1 $129 $129 $80 $130 forward $124 $-1 #
edge $-1 $216 3.5970738050909322e-016 $216 6.2831853071796004 $129 $217 forward 7 unknown #
loop $-1 $-1 $136 $81 #
plane-surface $-1 -25.182708615184751 -6.4956503387458895 52.245137169715484 0 0.79863551827123203 0.60181501223851219 1 0 0 forward_v I I I I #
loop $-1 $-1 $218 $52 #
coedge $-1 $134 $134 $135 $219 reversed $82 $-1 #
coedge $-1 $135 $135 $134 $219 forward $84 $-1 #
coedge $-1 $136 $136 $85 $137 forward $131 $-1 #
edge $-1 $220 3.5970738050909322e-016 $220 6.2831853071796004 $136 $221 forward 7 unknown #
face $-1 $222 $223 $29 $-1 $224 forward single #
loop $-1 $-1 $225 $86 #
plane-surface $-1 -34.882647548336749 -114.51650801182694 63.549895709822678 1 0 0 0 0.79863551827123203 -0.60181501223851219 forward_v I I I I #
coedge $-1 $226 $227 $228 $229 reversed $87 $-1 #
coedge $-1 $143 $89 $230 $231 reversed $56 $-1 #
coedge $-1 $89 $142 $226 $232 reversed $56 $-1 #
coedge $-1 $228 $233 $89 $145 forward $223 $-1 #
edge $-1 $234 25.358978074338907 $235 31.137219944731683 $144 $236 forward 7 unknown #
loop $-1 $-1 $151 $90 #
plane-surface $-1 -25.182708615184751 -31.899275931574564 1.2933476375353123 0 -0.79863551827123203 0.60181501223851219 1 0 0 forward_v I I I I #
loop $-1 $-1 $237 $58 #
coedge $-1 $149 $149 $150 $238 reversed $91 $-1 #
coedge $-1 $150 $150 $149 $238 forward $93 $-1 #
coedge $-1 $151 $151 $94 $152 forward $146 $-1 #
edge $-1 $239 0 $239 6.2831853071796004 $151 $240 forward 7 unknown #
loop $-1 $-1 $158 $95 #
plane-surface $-1 -25.182708615184751 -31.899275931574564 1.2933476375353123 0 -0.79863551827123203 0.60181501223851219 1 0 0 forward_v I I I I #
loop $-1 $-1 $241 $61 #
coedge $-1 $156 $156 $157 $242 reversed $96 $-1 #
coedge $-1 $157 $157 $156 $242 forward $98 $-1 #
coedge $-1 $158 $158 $99 $159 forward $153 $-1 #
edge $-1 $243 0 $243 6.2831853071796004 $158 $244 forward 7 unknown #
face $-1 $245 $246 $24 $-1 $247 reversed single #
loop $-1 $-1 $248 $100 #
plane-surface $-1 -51.723990600299082 0 0 1 0 0 0 0 -1 forward_v I I I I #
coedge $-1 $249 $171 $250 $251 forward $101 $-1 #
coedge $-1 $252 $103 $249 $253 forward $65 $-1 #
coedge $-1 $103 $252 $254 $255 forward $65 $-1 #
coedge $-1 $174 $173 $103 $167 reversed $175 $-1 #
edge $-1 $256 -31.899275931574564 $257 31.899275931574564 $166 $258 forward 7 unknown #
coedge $-1 $105 $104 $259 $260 forward $41 $-1 #
coedge $-1 $261 $262 $104 $170 reversed $246 $-1 #
edge $-1 $177 -51.723990600299082 $263 51.723990600299082 $169 $264 forward 7 unknown #
coedge $-1 $163 $265 $105 $172 reversed $101 $-1 #
edge $-1 $266 -51.723990600299082 $176 51.723990600299082 $171 $267 forward 7 unknown #
coedge $-1 $166 $106 $265 $268 forward $175 $-1 #
coedge $-1 $106 $166 $261 $269 reversed $175 $-1 #
loop $-1 $-1 $173 $245 #
vertex $-1 $107 $270 #
vertex $-1 $107 $271 #
straight-curve $-1 51.723990600299082 0 8.9613338077253655 0 1 0 I I #
face $-1 $272 $273 $25 $-1 $274 forward single #
loop $-1 $-1 $275 $108 #
plane-surface $-1 0 0 -8.9613338077253655 0 0 1 1 0 0 forward_v I I I I #
coedge $-1 $276 $277 $187 $278 forward $109 $-1 #
coedge $-1 $279 $111 $275 $280 reversed $69 $-1 #
coedge $-1 $111 $279 $281 $282 reversed $69 $-1 #
coedge $-1 $277 $276 $111 $186 reversed $109 $-1 #
edge $-1 $283 -8.9613338077253655 $284 8.9613338077253655 $185 $285 forward 7 unknown #
coedge $-1 $113 $112 $182 $278 reversed $44 $-1 #
coedge $-1 $286 $287 $112 $189 forward $180 $-1 #
edge $-1 $288 17.556958107669722 $195 28.630341030976147 $188 $289 forward 7 unknown #
coedge $-1 $290 $291 $113 $191 forward $273 $-1 #
edge $-1 $196 -28.630341030976147 $292 -17.556958107669722 $190 $293 forward 7 unknown #
coedge $-1 $294 $114 $291 $295 reversed $194 $-1 #
coedge $-1 $114 $294 $286 $296 reversed $194 $-1 #
loop $-1 $-1 $294 $272 #
vertex $-1 $296 $297 #
vertex $-1 $115 $298 #
straight-curve $-1 -51.723990600299082 -28.218719556991601 0 0 0 1 I I #
face $-1 $-1 $210 $26 $-1 $299 forward single #
loop $-1 $-1 $300 $116 #
plane-surface $-1 0 31.899275931574564 0 0 -1 0 0 0 -1 forward_v I I I I #
coedge $-1 $301 $302 $303 $304 reversed $117 $-1 #
coedge $-1 $305 $119 $121 $208 forward $73 $-1 #
coedge $-1 $119 $305 $301 $306 forward $73 $-1 #
coedge $-1 $303 $122 $119 $205 forward $210 $-1 #
edge $-1 $212 -22.291293240744373 $307 -2.8914153744403759 $204 $308 forward 7 unknown #
coedge $-1 $309 $310 $120 $207 forward $199 $-1 #
edge $-1 $311 -55.957494983466127 $211 -48.289508813276058 $206 $312 forward 7 unknown #
edge $-1 $212 54.197193052075228 $311 63.798551863149136 $121 $313 forward 7 unknown #
coedge $-1 $122 $303 $309 $314 forward $210 $-1 #
loop $-1 $-1 $303 $198 #
vertex $-1 $207 $315 #
vertex $-1 $123 $316 #
straight-curve $-1 -34.882647548336749 38.060790870753245 8.9613338077253673 0 -1 0 I I #
coedge $-1 $214 $214 $-1 $317 reversed $126 $-1 #
edge $-1 $318 0 $318 6.2831853071796004 $127 $319 forward 7 unknown #
vertex $-1 $130 $320 #
ellipse-curve $-1 -29.339825300821325 29.010154996378173 5.1273407226303362 0 0.79863551827123203 0.60181501223851219 2 0 0 1 I I #
coedge $-1 $218 $218 $-1 $321 reversed $133 $-1 #
edge $-1 $322 0 $322 6.2831853071796004 $134 $323 forward 7 unknown #
vertex $-1 $137 $324 #
ellipse-curve $-1 -21.025591929548181 29.010154996378173 5.1273407226303362 0 0.79863551827123203 0.60181501223851219 2 0 0 1 I I #
face $-1 $-1 $325 $29 $-1 $326 reversed single #
loop $-1 $-1 $144 $138 #
plane-surface $-1 0 0 8.9613338077253655 0 0 1 1 0 0 forward_v I I I I #
coedge $-1 $327 $328 $329 $330 reversed $139 $-1 #
coedge $-1 $331 $141 $143 $232 forward $87 $-1 #
coedge $-1 $141 $331 $327 $332 forward $87 $-1 #
coedge $-1 $329 $144 $141 $229 forward $223 $-1 #
edge $-1 $235 2.8914153744403759 $333 22.291293240744373 $228 $334 forward 7 unknown #
coedge $-1 $335 $336 $142 $231 forward $325 $-1 #
edge $-1 $337 -30.481600217376027 $234 -22.813614047185972 $230 $338 forward 7 unknown #
edge $-1 $235 -9.6013588110738848 $337 0 $143 $339 forward 7 unknown #
coedge $-1 $144 $329 $335 $340 forward $223 $-1 #
vertex $-1 $231 $341 #
vertex $-1 $145 $342 #
straight-curve $-1 -15.482769682032751 -57.258254005913471 8.9613338077253673 0 1 0 I I #
coedge $-1 $237 $237 $-1 $343 reversed $148 $-1 #
edge $-1 $344 0 $344 6.2831853071796004 $149 $345 forward 7 unknown #
vertex $-1 $152 $346 #
ellipse-curve $-1 -29.339825300821325 -29.010154996378176 5.1273407226303398 0 -0.79863551827123203 0.60181501223851219 2 0 0 1 I I #
coedge $-1 $241 $241 $-1 $347 reversed $155 $-1 #
edge $-1 $348 0 $348 6.2831853071796004 $156 $349 forward 7 unknown #
vertex $-1 $159 $350 #
ellipse-curve $-1 -21.025591929548181 -29.010154996378176 5.1273407226303398 0 -0.79863551827123203 0.60181501223851219 2 0 0 1 I I #
face $-1 $-1 $175 $24 $-1 $351 reversed single #
loop $-1 $-1 $261 $160 #
plane-surface $-1 0 31.899275931574564 0 0 -1 0 0 0 -1 forward_v I I I I #
coedge $-1 $352 $259 $262 $353 forward $161 $-1 #
coedge $-1 $265 $163 $164 $253 reversed $101 $-1 #
coedge $-1 $259 $352 $163 $251 reversed $161 $-1 #
edge $-1 $266 -8.9613338077253655 $354 8.9613338077253655 $250 $355 forward 7 unknown #
coedge $-1 $165 $164 $352 $356 forward $65 $-1 #
edge $-1 $257 -51.723990600299082 $354 51.723990600299082 $249 $357 forward 7 unknown #
coedge $-1 $262 $261 $165 $255 reversed $246 $-1 #
edge $-1 $358 -51.723990600299082 $256 51.723990600299082 $254 $359 forward 7 unknown #
vertex $-1 $167 $360 #
vertex $-1 $268 $361 #
straight-curve $-1 51.723990600299082 0 -8.9613338077253655 0 -1 0 I I #
coedge $-1 $248 $250 $168 $260 reversed $161 $-1 #
edge $-1 $263 -31.899275931574564 $266 31.899275931574564 $259 $362 forward 7 unknown #
coedge $-1 $254 $169 $174 $269 forward $246 $-1 #
coedge $-1 $169 $254 $248 $353 reversed $246 $-1 #
vertex $-1 $170 $363 #
straight-curve $-1 0 31.899275931574564 8.9613338077253655 -1 0 0 I I #
coedge $-1 $171 $249 $173 $268 reversed $101 $-1 #
vertex $-1 $260 $364 #
straight-curve $-1 0 -31.899275931574564 8.9613338077253655 1 0 0 I I #
edge $-1 $176 -8.9613338077253655 $257 8.9613338077253655 $173 $365 forward 7 unknown #
edge $-1 $177 -8.9613338077253655 $256 8.9613338077253655 $174 $366 forward 7 unknown #
point $-1 51.723990600299082 -31.899275931574564 8.9613338077253655 #
point $-1 51.723990600299082 31.899275931574564 8.9613338077253655 #
face $-1 $-1 $194 $25 $-1 $367 reversed single #
loop $-1 $-1 $281 $179 #
plane-surface $-1 0 0 8.9613338077253655 0 0 1 1 0 0 forward_v I I I I #
coedge $-1 $287 $286 $183 $280 forward $180 $-1 #
coedge $-1 $185 $182 $287 $368 reversed $109 $-1 #
coedge $-1 $182 $185 $290 $369 reversed $109 $-1 #
edge $-1 $292 -8.9613338077253655 $288 8.9613338077253655 $182 $370 forward 7 unknown #
coedge $-1 $184 $183 $294 $371 reversed $69 $-1 #
edge $-1 $372 -28.630341030976147 $284 -17.556958107669722 $275 $373 forward 7 unknown #
coedge $-1 $291 $290 $184 $282 forward $273 $-1 #
edge $-1 $283 17.556958107669722 $374 28.630341030976147 $281 $375 forward 7 unknown #
vertex $-1 $282 $376 #
vertex $-1 $280 $377 #
straight-curve $-1 -40.650607676992657 -23.87263538474248 0 0 0 -1 I I #
coedge $-1 $275 $188 $193 $296 forward $180 $-1 #
coedge $-1 $188 $275 $276 $368 forward $180 $-1 #
vertex $-1 $189 $378 #
straight-curve $-1 -23.093649569322935 -28.218719556991601 -8.9613338077253655 -1 0 0 I I #
coedge $-1 $281 $190 $277 $369 forward $273 $-1 #
coedge $-1 $190 $281 $192 $295 forward $273 $-1 #
vertex $-1 $191 $379 #
straight-curve $-1 -23.093649569322935 -28.218719556991601 8.9613338077253655 1 0 0 I I #
coedge $-1 $193 $192 $279 $371 forward $194 $-1 #
edge $-1 $374 23.87263538474248 $196 28.218719556991601 $192 $380 forward 7 unknown #
edge $-1 $195 -28.218719556991601 $372 -23.87263538474248 $193 $381 forward 7 unknown #
point $-1 -51.723990600299082 -28.218719556991601 -8.9613338077253655 #
point $-1 -51.723990600299082 -28.218719556991601 8.9613338077253655 #
plane-surface $-1 0 0 8.9613338077253655 0 0 1 1 0 0 forward_v I I I I #
coedge $-1 $310 $309 $302 $382 forward $199 $-1 #
coedge $-1 $302 $201 $203 $306 reversed $117 $-1 #
coedge $-1 $201 $301 $300 $382 reversed $117 $-1 #
coedge $-1 $209 $204 $201 $304 forward $210 $-1 #
edge $-1 $307 -11.93975680957147 $383 -6.1615149391786801 $303 $384 forward 7 unknown #
coedge $-1 $203 $202 $310 $385 reversed $73 $-1 #
edge $-1 $386 -63.798551863149136 $307 -54.197193052075228 $301 $387 forward 7 unknown #
vertex $-1 $205 $388 #
straight-curve $-1 -12.591354307592376 26.121034061181771 8.9613338077253708 1 0 0 I I #
coedge $-1 $300 $206 $209 $314 reversed $199 $-1 #
coedge $-1 $206 $300 $305 $385 forward $199 $-1 #
vertex $-1 $207 $389 #
straight-curve $-1 -34.882647548336749 31.899275931574564 57.250842621001425 0 0 1 I I #
straight-curve $-1 -34.882647548336749 -6.4956503387458895 52.245137169715484 0 0.60181501223851219 -0.79863551827123203 I I #
edge $-1 $383 15.482769682032751 $211 34.882647548336749 $309 $390 forward 7 unknown #
point $-1 -34.882647548336749 31.899275931574564 8.9613338077253655 #
point $-1 -34.882647548336749 26.121034061181774 8.9613338077253673 #
edge $-1 $391 1 $391 0 $214 $-1 forward 7 unknown #
vertex $-1 $215 $392 #
ellipse-curve $-1 -29.339825300821325 22.964293768641362 0.57145763764202995 0 0.79863551827123203 0.60181501223851219 2 0 0 1 I I #
point $-1 -27.339825300821325 29.010154996378176 5.127340722630338 #
edge $-1 $393 1 $393 0 $218 $-1 forward 7 unknown #
vertex $-1 $219 $394 #
ellipse-curve $-1 -21.025591929548181 22.964293768641362 0.57145763764202995 0 0.79863551827123203 0.60181501223851219 2 0 0 1 I I #
point $-1 -19.025591929548181 29.010154996378176 5.127340722630338 #
loop $-1 $-1 $230 $222 #
plane-surface $-1 0 -31.899275931574564 0 0 1 0 0 0 1 forward_v I I I I #
coedge $-1 $328 $225 $227 $332 reversed $139 $-1 #
coedge $-1 $225 $327 $395 $396 reversed $139 $-1 #
coedge $-1 $233 $228 $225 $330 forward $223 $-1 #
edge $-1 $333 -31.137219944731683 $397 -25.358978074338907 $329 $398 forward 7 unknown #
coedge $-1 $227 $226 $336 $399 reversed $87 $-1 #
edge $-1 $400 0 $333 9.6013588110738848 $327 $401 forward 7 unknown #
vertex $-1 $229 $402 #
straight-curve $-1 -12.591354307592376 -26.121034061181785 8.9613338077253655 -1 0 0 I I #
coedge $-1 $395 $230 $233 $340 reversed $325 $-1 #
coedge $-1 $230 $395 $331 $399 forward $325 $-1 #
vertex $-1 $231 $403 #
straight-curve $-1 -15.482769682032751 -31.899275931574564 31.774947854911339 0 0 1 I I #
straight-curve $-1 -15.482769682032751 -31.899275931574564 1.2933476375353123 0 -0.60181501223851219 -0.79863551827123203 I I #
edge $-1 $397 -34.882647548336749 $234 -15.482769682032751 $335 $404 forward 7 unknown #
point $-1 -15.482769682032751 -31.899275931574564 8.9613338077253655 #
point $-1 -15.482769682032751 -26.121034061181788 8.9613338077253655 #
edge $-1 $405 1 $405 0 $237 $-1 forward 7 unknown #
vertex $-1 $238 $406 #
ellipse-curve $-1 -29.339825300821325 -22.964293768641362 0.57145763764203172 0 -0.79863551827123203 0.60181501223851219 2 0 0 1 I I #
point $-1 -27.339825300821325 -29.010154996378176 5.1273407226303398 #
edge $-1 $407 1 $407 0 $241 $-1 forward 7 unknown #
vertex $-1 $242 $408 #
ellipse-curve $-1 -21.025591929548181 -22.964293768641362 0.57145763764203172 0 -0.79863551827123203 0.60181501223851219 2 0 0 1 I I #
point $-1 -19.025591929548181 -29.010154996378176 5.1273407226303398 #
plane-surface $-1 51.723990600299082 0 0 -1 0 0 0 0 1 forward_v I I I I #
coedge $-1 $250 $248 $252 $356 reversed $161 $-1 #
edge $-1 $263 -8.9613338077253655 $358 8.9613338077253655 $262 $409 forward 7 unknown #
vertex $-1 $356 $410 #
straight-curve $-1 -51.723990600299082 -31.899275931574564 0 0 0 -1 I I #
edge $-1 $354 -31.899275931574564 $358 31.899275931574564 $352 $411 forward 7 unknown #
straight-curve $-1 0 -31.899275931574564 -8.9613338077253655 -1 0 0 I I #
vertex $-1 $255 $412 #
straight-curve $-1 0 31.899275931574564 -8.9613338077253655 1 0 0 I I #
point $-1 51.723990600299082 31.899275931574564 -8.9613338077253655 #
point $-1 51.723990600299082 -31.899275931574564 -8.9613338077253655 #
straight-curve $-1 -51.723990600299082 0 8.9613338077253655 0 -1 0 I I #
point $-1 -51.723990600299082 31.899275931574564 8.9613338077253655 #
point $-1 -51.723990600299082 -31.899275931574564 8.9613338077253655 #
straight-curve $-1 51.723990600299082 -31.899275931574564 0 0 0 -1 I I #
straight-curve $-1 51.723990600299082 31.899275931574564 0 0 0 -1 I I #
plane-surface $-1 -51.723990600299082 0 0 1 0 0 0 0 -1 forward_v I I I I #
edge $-1 $284 10.84979664930896 $288 15.195880821558081 $287 $413 forward 7 unknown #
edge $-1 $292 -15.195880821558081 $283 -10.84979664930896 $290 $414 forward 7 unknown #
straight-curve $-1 -40.650607676992657 -28.218719556991601 0 0 0 -1 I I #
edge $-1 $374 -8.9613338077253655 $372 8.9613338077253655 $294 $415 forward 7 unknown #
vertex $-1 $371 $416 #
straight-curve $-1 -23.093649569322935 -23.87263538474248 -8.9613338077253655 1 0 0 I I #
vertex $-1 $295 $417 #
straight-curve $-1 -23.093649569322935 -23.87263538474248 8.9613338077253655 -1 0 0 I I #
point $-1 -40.650607676992657 -23.87263538474248 8.9613338077253655 #
point $-1 -40.650607676992657 -23.87263538474248 -8.9613338077253655 #
point $-1 -40.650607676992657 -28.218719556991601 -8.9613338077253655 #
point $-1 -40.650607676992657 -28.218719556991601 8.9613338077253655 #
straight-curve $-1 -51.723990600299082 0 8.9613338077253655 0 -1 0 I I #
straight-curve $-1 -51.723990600299082 0 -8.9613338077253655 0 1 0 I I #
edge $-1 $383 48.289508813276058 $386 55.957494983466127 $300 $418 forward 7 unknown #
vertex $-1 $314 $419 #
straight-curve $-1 -15.482769682032751 38.060790870753245 8.9613338077253673 0 1 0 I I #
edge $-1 $386 2.8914153744403759 $311 22.291293240744373 $310 $420 forward 7 unknown #
vertex $-1 $385 $421 #
straight-curve $-1 -15.482769682032751 -6.4956503387458895 52.245137169715484 0 -0.60181501223851219 0.79863551827123203 I I #
point $-1 -15.482769682032751 26.121034061181774 8.9613338077253673 #
point $-1 -34.882647548336749 31.899275931574564 1.2933476375352981 #
straight-curve $-1 0 31.899275931574564 8.9613338077253655 -1 0 0 I I #
vertex $-1 $317 $422 #
point $-1 -27.339825300821325 22.964293768641362 0.57145763764202995 #
vertex $-1 $321 $423 #
point $-1 -19.025591929548181 22.964293768641362 0.57145763764202995 #
coedge $-1 $336 $335 $328 $396 forward $325 $-1 #
edge $-1 $397 22.813614047185972 $400 30.481600217376027 $395 $424 forward 7 unknown #
vertex $-1 $340 $425 #
straight-curve $-1 -34.882647548336749 -57.258254005913471 8.9613338077253673 0 -1 0 I I #
edge $-1 $400 -22.291293240744373 $337 -2.8914153744403759 $336 $426 forward 7 unknown #
vertex $-1 $399 $427 #
straight-curve $-1 -34.882647548336749 -31.899275931574564 1.2933476375353123 0 0.60181501223851219 0.79863551827123203 I I #
point $-1 -34.882647548336749 -26.121034061181788 8.9613338077253655 #
point $-1 -15.482769682032751 -31.899275931574564 1.2933476375353123 #
straight-curve $-1 0 -31.899275931574564 8.9613338077253655 1 0 0 I I #
vertex $-1 $343 $428 #
point $-1 -27.339825300821325 -22.964293768641362 0.57145763764203172 #
vertex $-1 $347 $429 #
point $-1 -19.025591929548181 -22.964293768641362 0.57145763764203172 #
straight-curve $-1 -51.723990600299082 31.899275931574564 0 0 0 -1 I I #
point $-1 -51.723990600299082 -31.899275931574564 -8.9613338077253655 #
straight-curve $-1 -51.723990600299082 0 -8.9613338077253655 0 1 0 I I #
point $-1 -51.723990600299082 31.899275931574564 -8.9613338077253655 #
straight-curve $-1 -40.650607676992657 -13.02283873543352 -8.9613338077253655 0 -1 0 I I #
straight-curve $-1 -40.650607676992657 -13.02283873543352 8.9613338077253655 0 1 0 I I #
straight-curve $-1 -51.723990600299082 -23.87263538474248 0 0 0 -1 I I #
point $-1 -51.723990600299082 -23.87263538474248 -8.9613338077253655 #
point $-1 -51.723990600299082 -23.87263538474248 8.9613338077253655 #
straight-curve $-1 -15.482769682032751 31.899275931574564 57.250842621001425 0 0 -1 I I #
point $-1 -15.482769682032751 31.899275931574564 8.9613338077253655 #
straight-curve $-1 -12.591354307592376 31.899275931574561 1.2933476375352981 -1 0 0 I I #
point $-1 -15.482769682032751 31.899275931574564 1.2933476375352981 #
point $-1 -29.339825300821325 21.367022732098896 -0.63217238683499444 #
point $-1 -21.025591929548181 21.367022732098896 -0.63217238683499444 #
straight-curve $-1 -34.882647548336749 -31.899275931574564 31.774947854911339 0 0 -1 I I #
point $-1 -34.882647548336749 -31.899275931574564 8.9613338077253655 #
straight-curve $-1 -12.591354307592376 -31.899275931574564 1.2933476375353086 1 0 0 I I #
point $-1 -34.882647548336749 -31.899275931574564 1.2933476375353123 #
point $-1 -29.339825300821325 -21.367022732098896 -0.63217238683499266 #
point $-1 -21.025591929548181 -21.367022732098896 -0.63217238683499266 #
End-of-ACIS-data 