500 0 7 0           
7 Unknown 11 ACIS 5.0 NT 24 Thu Mar 25 20:33:04 1999 
-1 9.9999999999999995e-007 1e-010 
body $-1 $7 $-1 $8 #
body $-1 $9 $-1 $10 #
body $-1 $11 $-1 $12 #
body $-1 $13 $-1 $14 #
body $-1 $15 $-1 $16 #
body $-1 $17 $-1 $18 #
body $-1 $19 $-1 $20 #
lump $-1 $-1 $21 $0 #
transform $-1 1 0 0 0 1 0 0 0 1 52.1927549058504 28.866335056040345 10.74821031784191 1 rotate no_reflect no_shear #
lump $-1 $-1 $22 $1 #
transform $-1 1 0 0 0 1 0 0 0 1 52.1927549058504 28.866335056040345 10.74821031784191 1 rotate no_reflect no_shear #
lump $-1 $-1 $23 $2 #
transform $-1 1 0 0 0 1 0 0 0 1 52.1927549058504 28.866335056040345 10.74821031784191 1 rotate no_reflect no_shear #
lump $-1 $-1 $24 $3 #
transform $-1 1 0 0 0 1 0 0 0 1 52.1927549058504 28.866335056040345 10.74821031784191 1 rotate no_reflect no_shear #
lump $-1 $-1 $25 $4 #
transform $-1 1 0 0 0 1 0 0 0 1 52.1927549058504 28.866335056040345 10.74821031784191 1 rotate no_reflect no_shear #
lump $-1 $-1 $26 $5 #
transform $-1 1 0 0 0 1 0 0 0 1 52.1927549058504 28.866335056040345 10.74821031784191 1 rotate no_reflect no_shear #
lump $-1 $-1 $27 $6 #
transform $-1 1 0 0 0 1 0 0 0 1 52.1927549058504 28.866335056040345 10.74821031784191 1 rotate no_reflect no_shear #
shell $-1 $-1 $-1 $28 $-1 $7 #
shell $-1 $-1 $-1 $29 $-1 $9 #
shell $-1 $-1 $-1 $30 $-1 $11 #
shell $-1 $-1 $-1 $31 $-1 $13 #
shell $-1 $-1 $-1 $32 $-1 $15 #
shell $-1 $-1 $-1 $33 $-1 $17 #
shell $-1 $-1 $-1 $34 $-1 $19 #
face $-1 $35 $36 $21 $-1 $37 forward single #
face $-1 $38 $39 $22 $-1 $40 forward single #
face $-1 $41 $42 $23 $-1 $43 reversed single #
face $-1 $44 $45 $24 $-1 $46 forward single #
face $-1 $47 $48 $25 $-1 $49 forward single #
face $-1 $50 $51 $26 $-1 $52 reversed single #
face $-1 $53 $54 $27 $-1 $55 forward single #
face $-1 $56 $57 $21 $-1 $58 reversed single #
loop $-1 $-1 $59 $28 #
plane-surface $-1 0 0 10.74821031784191 0 0 1 1 0 0 forward_v I I I I #
face $-1 $60 $61 $22 $-1 $62 reversed single #
loop $-1 $-1 $63 $29 #
plane-surface $-1 0 -24.4912325343949 2.4292669652782024 0 0 1 1 0 0 forward_v I I I I #
face $-1 $64 $65 $23 $-1 $66 reversed single #
loop $-1 $-1 $67 $30 #
plane-surface $-1 -135.55873063432486 -0.25317770101467829 67.13765054546127 0 1 0 -0.79863551827123203 0 0.60181501223851219 forward_v I I I I #
face $-1 $68 $69 $24 $-1 $70 forward single #
loop $-1 $71 $72 $31 #
cone-surface $-1 -49.370261098099839 3.5661713612387693 7.2316394931063028 0.79863551827123203 0 -0.60181501223851219 0.3009075061192561 0 0.39931775913561601 1 I I 0 1 0.5 forward I I I I #
face $-1 $73 $74 $25 $-1 $75 forward single #
loop $-1 $76 $77 $32 #
cone-surface $-1 -49.370261098099839 9.295194954618939 7.2316394931063028 0.79863551827123203 0 -0.60181501223851219 0.3009075061192561 0 0.39931775913561601 1 I I 0 1 0.5 forward I I I I #
face $-1 $78 $79 $26 $-1 $80 reversed single #
loop $-1 $-1 $81 $33 #
plane-surface $-1 -35.352299409470334 22.26048724128967 60.975643882110191 0.54463904215088732 0 0.83867056331134215 0.83867056331134215 0 -0.54463904215088732 forward_v I I I I #
face $-1 $82 $83 $27 $-1 $84 forward single #
loop $-1 $85 $86 $34 #
cone-surface $-1 45.328286185336268 22.26048724128967 4.7198961944001336 -0.54463904215088732 0 -0.83867056331134215 2.0966764082783556 0 -1.3615976053772183 1 I I 0 1 2.5 forward I I I I #
face $-1 $87 $88 $21 $-1 $89 reversed single #
loop $-1 $-1 $90 $35 #
plane-surface $-1 0 0 -10.74821031784191 0 0 1 1 0 0 forward_v I I I I #
coedge $-1 $91 $92 $93 $94 forward $36 $-1 #
face $-1 $95 $96 $22 $-1 $97 reversed single #
loop $-1 $-1 $98 $38 #
plane-surface $-1 0 -24.4912325343949 -1.6838989778825031 0 0 1 1 0 0 forward_v I I I I #
coedge $-1 $99 $100 $101 $102 reversed $39 $-1 #
face $-1 $103 $104 $23 $-1 $105 reversed single #
loop $-1 $-1 $106 $41 #
plane-surface $-1 -52.192754905850421 6.4306831579288506 4.3168836806092159 -0.79863551827123203 0 0.60181501223851219 0.60181501223851219 0 0.79863551827123203 forward_v I I I I #
coedge $-1 $107 $108 $109 $110 reversed $42 $-1 #
face $-1 $-1 $111 $24 $-1 $112 forward single #
loop $-1 $113 $114 $44 #
cone-surface $-1 -48.771284459396412 3.5661713612387693 6.7802782339274188 0.79863551827123203 0 -0.60181501223851219 0.15045375305962805 0 0.19965887956780801 1 I I -0.70710678118654746 0.70710678118654746 0.25 forward I I I I #
loop $-1 $-1 $115 $31 #
coedge $-1 $72 $72 $116 $117 reversed $45 $-1 #
face $-1 $-1 $118 $25 $-1 $119 forward single #
loop $-1 $120 $121 $47 #
cone-surface $-1 -48.771284459396412 9.295194954618939 6.7802782339274188 0.79863551827123203 0 -0.60181501223851219 0.15045375305962805 0 0.19965887956780801 1 I I -0.70710678118654746 0.70710678118654746 0.25 forward I I I I #
loop $-1 $-1 $122 $32 #
coedge $-1 $77 $77 $123 $124 reversed $48 $-1 #
face $-1 $125 $126 $26 $-1 $127 forward single #
loop $-1 $-1 $128 $50 #
plane-surface $-1 21.500124668806443 15.654639426538996 148.52069819743093 0 1 0 0.54463904215088732 0 0.83867056331134215 forward_v I I I I #
coedge $-1 $129 $130 $131 $132 reversed $51 $-1 #
face $-1 $-1 $133 $27 $-1 $134 forward single #
loop $-1 $135 $136 $53 #
cone-surface $-1 42.883813956181235 22.26048724128967 0.95573912382343451 -0.54463904215088732 0 -0.83867056331134215 1.0483382041391778 0 -0.68079880268860915 1 I I -0.70710678118654746 0.70710678118654746 1.25 forward I I I I #
loop $-1 $-1 $137 $34 #
coedge $-1 $86 $86 $138 $139 reversed $54 $-1 #
face $-1 $140 $141 $21 $-1 $142 reversed single #
loop $-1 $-1 $143 $56 #
plane-surface $-1 0 -28.866335056040345 0 0 1 0 0 0 1 forward_v I I I I #
coedge $-1 $144 $145 $146 $147 forward $57 $-1 #
coedge $-1 $148 $59 $149 $150 forward $36 $-1 #
coedge $-1 $59 $148 $151 $152 forward $36 $-1 #
coedge $-1 $153 $154 $59 $94 reversed $155 $-1 #
edge $-1 $156 -28.866335056040345 $157 28.866335056040345 $93 $158 forward 7 unknown #
face $-1 $159 $160 $22 $-1 $161 reversed single #
loop $-1 $-1 $162 $60 #
plane-surface $-1 0 -20.116130012749455 0.37268399369784966 0 -1 0 0 0 -1 forward_v I I I I #
coedge $-1 $163 $164 $165 $166 reversed $61 $-1 #
coedge $-1 $167 $63 $168 $169 forward $39 $-1 #
coedge $-1 $63 $167 $170 $171 reversed $39 $-1 #
coedge $-1 $172 $173 $63 $102 forward $174 $-1 #
edge $-1 $175 7.8705137455520049 $176 16.620718788842893 $101 $177 forward 7 unknown #
face $-1 $178 $179 $23 $-1 $180 reversed single #
loop $-1 $-1 $181 $64 #
plane-surface $-1 -135.55873063432486 13.114544016872379 67.13765054546127 0 -1 0 0.79863551827123203 0 -0.60181501223851219 forward_v I I I I #
coedge $-1 $182 $183 $184 $185 reversed $65 $-1 #
coedge $-1 $108 $67 $186 $187 reversed $42 $-1 #
coedge $-1 $67 $107 $182 $188 reversed $42 $-1 #
coedge $-1 $184 $189 $67 $110 forward $190 $-1 #
edge $-1 $191 15.58661041131203 $192 20.432962508541898 $109 $193 forward 7 unknown #
loop $-1 $-1 $116 $68 #
plane-surface $-1 -52.192754905850421 6.4306831579288506 4.3168836806092159 -0.79863551827123203 0 0.60181501223851219 0.60181501223851219 0 0.79863551827123203 forward_v I I I I #
loop $-1 $-1 $194 $44 #
coedge $-1 $114 $114 $115 $195 reversed $69 $-1 #
coedge $-1 $115 $115 $114 $195 forward $71 $-1 #
coedge $-1 $116 $116 $72 $117 forward $111 $-1 #
edge $-1 $196 0 $196 6.2831853071796004 $116 $197 forward 7 unknown #
loop $-1 $-1 $123 $73 #
plane-surface $-1 -52.192754905850421 6.4306831579288506 4.3168836806092159 -0.79863551827123203 0 0.60181501223851219 0.60181501223851219 0 0.79863551827123203 forward_v I I I I #
loop $-1 $-1 $198 $47 #
coedge $-1 $121 $121 $122 $199 reversed $74 $-1 #
coedge $-1 $122 $122 $121 $199 forward $76 $-1 #
coedge $-1 $123 $123 $77 $124 forward $118 $-1 #
edge $-1 $200 0 $200 6.2831853071796004 $123 $201 forward 7 unknown #
face $-1 $202 $203 $26 $-1 $204 reversed single #
loop $-1 $-1 $131 $78 #
plane-surface $-1 0 0 10.74821031784191 0 0 1 1 0 0 forward_v I I I I #
coedge $-1 $205 $206 $207 $208 reversed $79 $-1 #
coedge $-1 $209 $81 $210 $211 reversed $51 $-1 #
coedge $-1 $81 $209 $205 $212 forward $51 $-1 #
coedge $-1 $207 $213 $81 $132 forward $126 $-1 #
edge $-1 $214 -17.736091435395508 $215 -4.5243958058941605 $131 $216 forward 7 unknown #
loop $-1 $-1 $138 $82 #
plane-surface $-1 -35.352299409470334 22.26048724128967 60.975643882110191 0.54463904215088732 0 0.83867056331134215 0.83867056331134215 0 -0.54463904215088732 forward_v I I I I #
loop $-1 $-1 $217 $53 #
coedge $-1 $136 $136 $137 $218 reversed $83 $-1 #
coedge $-1 $137 $137 $136 $218 forward $85 $-1 #
coedge $-1 $138 $138 $86 $139 forward $133 $-1 #
edge $-1 $219 0 $219 6.2831853071796004 $138 $220 forward 7 unknown #
face $-1 $221 $222 $21 $-1 $223 reversed single #
loop $-1 $-1 $224 $87 #
plane-surface $-1 -52.1927549058504 0 0 1 0 0 0 0 -1 forward_v I I I I #
coedge $-1 $225 $151 $226 $227 forward $88 $-1 #
coedge $-1 $228 $90 $225 $229 forward $57 $-1 #
coedge $-1 $90 $228 $230 $231 forward $57 $-1 #
coedge $-1 $154 $153 $90 $147 reversed $155 $-1 #
edge $-1 $232 -28.866335056040345 $233 28.866335056040345 $146 $234 forward 7 unknown #
coedge $-1 $92 $91 $235 $236 forward $36 $-1 #
coedge $-1 $237 $238 $91 $150 reversed $222 $-1 #
edge $-1 $157 -52.1927549058504 $239 52.1927549058504 $149 $240 forward 7 unknown #
coedge $-1 $143 $241 $92 $152 reversed $88 $-1 #
edge $-1 $242 -52.1927549058504 $156 52.1927549058504 $151 $243 forward 7 unknown #
coedge $-1 $146 $93 $241 $244 forward $155 $-1 #
coedge $-1 $93 $146 $237 $245 reversed $155 $-1 #
loop $-1 $-1 $153 $221 #
vertex $-1 $94 $246 #
vertex $-1 $94 $247 #
straight-curve $-1 52.1927549058504 0 10.74821031784191 0 1 0 I I #
face $-1 $248 $249 $22 $-1 $250 reversed single #
loop $-1 $-1 $251 $95 #
plane-surface $-1 -52.1927549058504 0 0 1 0 0 0 0 -1 forward_v I I I I #
coedge $-1 $252 $168 $173 $253 reversed $96 $-1 #
coedge $-1 $254 $98 $255 $256 reversed $61 $-1 #
coedge $-1 $98 $254 $252 $257 forward $61 $-1 #
coedge $-1 $173 $172 $98 $166 forward $174 $-1 #
edge $-1 $258 -16.620718788842893 $259 -7.8705137455520049 $165 $260 forward 7 unknown #
coedge $-1 $100 $99 $251 $261 reversed $39 $-1 #
coedge $-1 $162 $262 $99 $169 reversed $96 $-1 #
edge $-1 $175 -52.1927549058504 $263 52.1927549058504 $168 $264 forward 7 unknown #
coedge $-1 $265 $266 $100 $171 forward $249 $-1 #
edge $-1 $176 -52.1927549058504 $267 52.1927549058504 $170 $268 forward 7 unknown #
coedge $-1 $165 $101 $266 $269 forward $174 $-1 #
coedge $-1 $101 $165 $162 $253 forward $174 $-1 #
loop $-1 $-1 $101 $248 #
vertex $-1 $102 $270 #
vertex $-1 $269 $271 #
straight-curve $-1 52.1927549058504 -12.24561626719745 2.4292669652782024 0 -1 0 I I #
face $-1 $-1 $190 $23 $-1 $272 forward single #
loop $-1 $-1 $273 $103 #
plane-surface $-1 -52.1927549058504 0 0 1 0 0 0 0 -1 forward_v I I I I #
coedge $-1 $274 $275 $276 $277 reversed $104 $-1 #
coedge $-1 $278 $106 $108 $188 forward $65 $-1 #
coedge $-1 $106 $278 $274 $279 forward $65 $-1 #
coedge $-1 $276 $109 $106 $185 forward $190 $-1 #
edge $-1 $192 -3.4685192799791036 $280 9.8992024379079542 $184 $281 forward 7 unknown #
coedge $-1 $282 $283 $107 $187 forward $179 $-1 #
edge $-1 $284 -29.251941592121391 $191 -22.820614954888725 $186 $285 forward 7 unknown #
edge $-1 $192 -8.0528933288044566 $284 -3.5527045197628586e-014 $108 $286 forward 7 unknown #
coedge $-1 $109 $276 $282 $287 forward $190 $-1 #
loop $-1 $-1 $276 $178 #
vertex $-1 $187 $288 #
vertex $-1 $110 $289 #
straight-curve $-1 -67.77936531716243 -0.25317770101467829 10.74821031784191 1 0 0 I I #
coedge $-1 $194 $194 $-1 $290 reversed $113 $-1 #
edge $-1 $291 0 $291 6.2831853071796004 $114 $292 forward 7 unknown #
vertex $-1 $117 $293 #
ellipse-curve $-1 -49.769578857235473 3.5661713612387693 7.5325469992255716 -0.79863551827123203 0 0.60181501223851219 0.3009075061192561 0 0.39931775913561601 1 I I #
coedge $-1 $198 $198 $-1 $294 reversed $120 $-1 #
edge $-1 $295 0 $295 6.2831853071796004 $121 $296 forward 7 unknown #
vertex $-1 $124 $297 #
ellipse-curve $-1 -49.769578857235473 9.295194954618939 7.5325469992255716 -0.79863551827123203 0 0.60181501223851219 0.3009075061192561 0 0.39931775913561601 1 I I #
face $-1 $-1 $298 $26 $-1 $299 reversed single #
loop $-1 $-1 $300 $125 #
plane-surface $-1 52.1927549058504 0 0 -1 0 0 0 0 1 forward_v I I I I #
coedge $-1 $206 $128 $130 $212 reversed $79 $-1 #
coedge $-1 $128 $205 $301 $302 reversed $79 $-1 #
coedge $-1 $303 $131 $128 $208 forward $126 $-1 #
edge $-1 $215 31.241101983351772 $304 41.442692571447182 $207 $305 forward 7 unknown #
coedge $-1 $130 $129 $300 $306 reversed $51 $-1 #
coedge $-1 $307 $308 $129 $211 forward $298 $-1 #
edge $-1 $309 -72.956185242411863 $214 -60.79218302941392 $210 $310 forward 7 unknown #
edge $-1 $311 -104.38550981170079 $215 -92.221507598702843 $205 $312 forward 7 unknown #
coedge $-1 $131 $303 $307 $313 forward $126 $-1 #
vertex $-1 $211 $314 #
vertex $-1 $132 $315 #
straight-curve $-1 41.991164317754993 11.130243620644835 10.748210317841902 0 -1 0 I I #
coedge $-1 $217 $217 $-1 $316 reversed $135 $-1 #
edge $-1 $317 0 $317 6.2831853071796004 $136 $318 forward 7 unknown #
vertex $-1 $139 $319 #
ellipse-curve $-1 47.0919596118027 22.26048724128967 7.4357150608376665 0.54463904215088732 0 0.83867056331134215 2.0966764082783556 0 -1.3615976053772183 1 I I #
face $-1 $-1 $155 $21 $-1 $320 reversed single #
loop $-1 $-1 $237 $140 #
plane-surface $-1 0 28.866335056040345 0 0 -1 0 0 0 -1 forward_v I I I I #
coedge $-1 $321 $235 $238 $322 forward $141 $-1 #
coedge $-1 $241 $143 $144 $229 reversed $88 $-1 #
coedge $-1 $235 $321 $143 $227 reversed $141 $-1 #
edge $-1 $242 -10.74821031784191 $323 10.74821031784191 $226 $324 forward 7 unknown #
coedge $-1 $145 $144 $321 $325 forward $57 $-1 #
edge $-1 $233 -52.1927549058504 $323 52.1927549058504 $225 $326 forward 7 unknown #
coedge $-1 $238 $237 $145 $231 reversed $222 $-1 #
edge $-1 $327 -52.1927549058504 $232 52.1927549058504 $230 $328 forward 7 unknown #
vertex $-1 $147 $329 #
vertex $-1 $244 $330 #
straight-curve $-1 52.1927549058504 0 -10.74821031784191 0 -1 0 I I #
coedge $-1 $224 $226 $148 $236 reversed $141 $-1 #
edge $-1 $239 -28.866335056040345 $242 28.866335056040345 $235 $331 forward 7 unknown #
coedge $-1 $230 $149 $154 $245 forward $222 $-1 #
coedge $-1 $149 $230 $224 $322 reversed $222 $-1 #
vertex $-1 $150 $332 #
straight-curve $-1 0 28.866335056040345 10.74821031784191 -1 0 0 I I #
coedge $-1 $151 $225 $153 $244 reversed $88 $-1 #
vertex $-1 $236 $333 #
straight-curve $-1 0 -28.866335056040345 10.74821031784191 1 0 0 I I #
edge $-1 $156 -10.74821031784191 $233 10.74821031784191 $153 $334 forward 7 unknown #
edge $-1 $157 -10.74821031784191 $232 10.74821031784191 $154 $335 forward 7 unknown #
point $-1 52.1927549058504 -28.866335056040345 10.74821031784191 #
point $-1 52.1927549058504 28.866335056040345 10.74821031784191 #
face $-1 $-1 $174 $22 $-1 $336 reversed single #
loop $-1 $-1 $170 $159 #
plane-surface $-1 0 -28.866335056040345 0 0 1 0 0 0 1 forward_v I I I I #
coedge $-1 $337 $338 $167 $261 forward $160 $-1 #
coedge $-1 $262 $162 $164 $257 reversed $96 $-1 #
edge $-1 $259 -1.8702409747314279 $175 2.2429249684292776 $173 $339 forward 7 unknown #
coedge $-1 $164 $163 $340 $341 reversed $61 $-1 #
coedge $-1 $266 $265 $163 $256 forward $249 $-1 #
edge $-1 $342 -52.1927549058504 $258 52.1927549058504 $255 $343 forward 7 unknown #
edge $-1 $344 -52.1927549058504 $259 52.1927549058504 $252 $345 forward 7 unknown #
vertex $-1 $256 $346 #
vertex $-1 $166 $347 #
straight-curve $-1 52.1927549058504 -12.24561626719745 -1.6838989778825031 0 1 0 I I #
edge $-1 $267 -16.620718788842893 $263 -7.8705137455520049 $251 $348 forward 7 unknown #
coedge $-1 $168 $252 $337 $349 reversed $96 $-1 #
vertex $-1 $261 $350 #
straight-curve $-1 0 -20.116130012749455 2.4292669652782024 -1 0 0 I I #
coedge $-1 $255 $170 $338 $351 forward $249 $-1 #
coedge $-1 $170 $255 $172 $269 reversed $249 $-1 #
vertex $-1 $351 $352 #
straight-curve $-1 0 -28.866335056040345 2.4292669652782024 -1 0 0 I I #
edge $-1 $176 -2.4292669652782024 $258 1.6838989778825031 $172 $353 forward 7 unknown #
point $-1 52.1927549058504 -20.116130012749455 2.4292669652782024 #
point $-1 52.1927549058504 -28.866335056040345 2.4292669652782024 #
plane-surface $-1 0 0 10.74821031784191 0 0 1 1 0 0 forward_v I I I I #
coedge $-1 $283 $282 $275 $354 forward $179 $-1 #
coedge $-1 $275 $181 $183 $279 reversed $104 $-1 #
coedge $-1 $181 $274 $273 $354 reversed $104 $-1 #
coedge $-1 $189 $184 $181 $277 forward $190 $-1 #
edge $-1 $280 -20.432962508541898 $355 -15.58661041131203 $276 $356 forward 7 unknown #
coedge $-1 $183 $182 $283 $357 reversed $65 $-1 #
edge $-1 $358 3.5527045197628586e-014 $280 8.0528933288044566 $274 $359 forward 7 unknown #
vertex $-1 $185 $360 #
straight-curve $-1 -47.346402808620539 3.2153415789644253 10.74821031784191 0 1 0 I I #
coedge $-1 $273 $186 $189 $287 reversed $179 $-1 #
coedge $-1 $186 $273 $278 $357 forward $179 $-1 #
vertex $-1 $187 $361 #
straight-curve $-1 -52.1927549058504 -0.25317770101467829 33.568825272730635 0 0 1 I I #
straight-curve $-1 -52.192754905850421 -0.25317770101467829 4.3168836806092159 -0.60181501223851219 0 -0.79863551827123203 I I #
edge $-1 $355 -13.114544016872379 $191 0.25317770101467829 $282 $362 forward 7 unknown #
point $-1 -52.1927549058504 -0.25317770101467829 10.74821031784191 #
point $-1 -47.346402808620532 -0.25317770101467829 10.74821031784191 #
edge $-1 $363 1 $363 0 $194 $-1 forward 7 unknown #
vertex $-1 $195 $364 #
ellipse-curve $-1 -48.970943338964219 3.5661713612387693 6.9307319869870465 -0.79863551827123203 0 0.60181501223851219 0.3009075061192561 0 0.39931775913561601 1 I I #
point $-1 -49.468671351116193 3.5661713612387693 7.9318647583611748 #
edge $-1 $365 1 $365 0 $198 $-1 forward 7 unknown #
vertex $-1 $199 $366 #
ellipse-curve $-1 -48.970943338964219 9.295194954618939 6.9307319869870465 -0.79863551827123203 0 0.60181501223851219 0.3009075061192561 0 0.39931775913561601 1 I I #
point $-1 -49.468671351116193 9.295194954618939 7.9318647583611748 #
loop $-1 $-1 $210 $202 #
plane-surface $-1 0 28.866335056040345 0 0 -1 0 0 0 -1 forward_v I I I I #
coedge $-1 $367 $301 $209 $306 forward $203 $-1 #
coedge $-1 $300 $368 $206 $302 forward $203 $-1 #
edge $-1 $304 63.512138780873556 $311 70.137129294882044 $301 $369 forward 7 unknown #
coedge $-1 $213 $207 $368 $370 forward $126 $-1 #
vertex $-1 $370 $371 #
straight-curve $-1 10.750062334403221 15.654639426538996 10.74821031784191 1 0 0 I I #
edge $-1 $311 4.5243958058941605 $309 17.736091435395508 $300 $372 forward 7 unknown #
coedge $-1 $308 $210 $213 $313 reversed $298 $-1 #
coedge $-1 $210 $307 $367 $373 forward $298 $-1 #
vertex $-1 $211 $374 #
straight-curve $-1 -8.993450068449798 28.866335056040345 43.858006653243329 -0.83867056331134215 0 0.54463904215088732 I I #
vertex $-1 $306 $375 #
straight-curve $-1 -35.352299409470334 15.654639426538996 60.975643882110191 -0.83867056331134215 0 0.54463904215088732 I I #
edge $-1 $376 -52.1927549058504 $214 -41.991164317754993 $307 $377 forward 7 unknown #
point $-1 41.991164317754993 28.866335056040345 10.748210317841902 #
point $-1 41.991164317754993 15.654639426538996 10.748210317841902 #
edge $-1 $378 1 $378 0 $217 $-1 forward 7 unknown #
vertex $-1 $218 $379 #
ellipse-curve $-1 43.564612758869842 22.26048724128967 2.0040773279626123 0.54463904215088732 0 0.83867056331134215 2.0966764082783556 0 -1.3615976053772183 1 I I #
point $-1 49.188636020081049 22.26048724128967 6.0741174554604358 #
plane-surface $-1 52.1927549058504 0 0 -1 0 0 0 0 1 forward_v I I I I #
coedge $-1 $226 $224 $228 $325 reversed $141 $-1 #
edge $-1 $239 -10.74821031784191 $327 10.74821031784191 $238 $380 forward 7 unknown #
vertex $-1 $325 $381 #
straight-curve $-1 -52.1927549058504 -28.866335056040345 0 0 0 -1 I I #
edge $-1 $323 -28.866335056040345 $327 28.866335056040345 $321 $382 forward 7 unknown #
straight-curve $-1 0 -28.866335056040345 -10.74821031784191 -1 0 0 I I #
vertex $-1 $231 $383 #
straight-curve $-1 0 28.866335056040345 -10.74821031784191 1 0 0 I I #
point $-1 52.1927549058504 28.866335056040345 -10.74821031784191 #
point $-1 52.1927549058504 -28.866335056040345 -10.74821031784191 #
straight-curve $-1 -52.1927549058504 0 10.74821031784191 0 -1 0 I I #
point $-1 -52.1927549058504 28.866335056040345 10.74821031784191 #
point $-1 -52.1927549058504 -28.866335056040345 10.74821031784191 #
straight-curve $-1 52.1927549058504 -28.866335056040345 0 0 0 -1 I I #
straight-curve $-1 52.1927549058504 28.866335056040345 0 0 0 -1 I I #
plane-surface $-1 52.1927549058504 0 0 -1 0 0 0 0 1 forward_v I I I I #
coedge $-1 $340 $251 $262 $349 forward $160 $-1 #
coedge $-1 $251 $340 $265 $351 reversed $160 $-1 #
straight-curve $-1 52.1927549058504 -20.116130012749455 0.18634199684892483 0 0 1 I I #
coedge $-1 $338 $337 $254 $341 forward $160 $-1 #
edge $-1 $344 7.8705137455520049 $342 16.620718788842893 $340 $384 forward 7 unknown #
vertex $-1 $256 $385 #
straight-curve $-1 0 -28.866335056040345 -1.6838989778825031 1 0 0 I I #
vertex $-1 $341 $386 #
straight-curve $-1 0 -20.116130012749455 -1.6838989778825031 1 0 0 I I #
point $-1 52.1927549058504 -28.866335056040345 -1.6838989778825031 #
point $-1 52.1927549058504 -20.116130012749455 -1.6838989778825031 #
straight-curve $-1 -52.1927549058504 -12.24561626719745 2.4292669652782024 0 1 0 I I #
edge $-1 $263 -2.2429249684292776 $344 1.8702409747314279 $337 $387 forward 7 unknown #
point $-1 -52.1927549058504 -20.116130012749455 2.4292669652782024 #
edge $-1 $267 -2.4292669652782024 $342 1.6838989778825031 $338 $388 forward 7 unknown #
point $-1 -52.1927549058504 -28.866335056040345 2.4292669652782024 #
straight-curve $-1 52.1927549058504 -28.866335056040345 0 0 0 -1 I I #
edge $-1 $355 22.820614954888725 $358 29.251941592121391 $273 $389 forward 7 unknown #
vertex $-1 $287 $390 #
straight-curve $-1 -67.77936531716243 13.114544016872379 10.74821031784191 -1 0 0 I I #
edge $-1 $358 -9.8992024379079542 $284 3.4685192799791036 $283 $391 forward 7 unknown #
vertex $-1 $357 $392 #
straight-curve $-1 -52.192754905850421 13.114544016872379 4.3168836806092159 0.60181501223851219 0 0.79863551827123203 I I #
point $-1 -47.346402808620532 13.114544016872379 10.74821031784191 #
point $-1 -52.1927549058504 -0.25317770101467829 4.3168836806092443 #
straight-curve $-1 -52.1927549058504 0 10.74821031784191 0 -1 0 I I #
vertex $-1 $290 $393 #
point $-1 -48.670035832844967 3.5661713612387693 7.330049746122663 #
vertex $-1 $294 $394 #
point $-1 -48.670035832844967 9.295194954618939 7.330049746122663 #
coedge $-1 $368 $300 $308 $373 reversed $203 $-1 #
coedge $-1 $301 $367 $303 $370 reversed $203 $-1 #
straight-curve $-1 52.1927549058504 15.654639426538996 74.260349098715466 0 0 -1 I I #
edge $-1 $304 15.654639426538996 $376 28.866335056040345 $368 $395 forward 7 unknown #
point $-1 52.1927549058504 15.654639426538996 10.74821031784191 #
straight-curve $-1 52.192754905850393 11.130243620644835 4.1232198038334289 0 1 0 I I #
edge $-1 $376 -10.74821031784191 $309 -4.1232198038334218 $367 $396 forward 7 unknown #
point $-1 52.192754905850393 28.866335056040345 4.1232198038334218 #
point $-1 52.192754905850393 15.654639426538996 4.1232198038334218 #
vertex $-1 $370 $397 #
straight-curve $-1 0 28.866335056040345 10.74821031784191 -1 0 0 I I #
vertex $-1 $316 $398 #
point $-1 45.661289167148198 22.26048724128967 0.64247972258539399 #
straight-curve $-1 -52.1927549058504 28.866335056040345 0 0 0 -1 I I #
point $-1 -52.1927549058504 -28.866335056040345 -10.74821031784191 #
straight-curve $-1 -52.1927549058504 0 -10.74821031784191 0 1 0 I I #
point $-1 -52.1927549058504 28.866335056040345 -10.74821031784191 #
straight-curve $-1 -52.1927549058504 -12.24561626719745 -1.6838989778825031 0 -1 0 I I #
point $-1 -52.1927549058504 -28.866335056040345 -1.6838989778825031 #
point $-1 -52.1927549058504 -20.116130012749455 -1.6838989778825031 #
straight-curve $-1 -52.1927549058504 -20.116130012749455 0.18634199684892483 0 0 -1 I I #
straight-curve $-1 -52.1927549058504 -28.866335056040345 0 0 0 -1 I I #
straight-curve $-1 -52.1927549058504 13.114544016872379 33.568825272730635 0 0 -1 I I #
point $-1 -52.1927549058504 13.114544016872379 10.74821031784191 #
straight-curve $-1 -52.1927549058504 3.2153415789644253 4.3168836806092425 0 -1 0 I I #
point $-1 -52.1927549058504 13.114544016872379 4.3168836806092443 #
point $-1 -48.571625579828606 3.5661713612387693 6.6298244808677911 #
point $-1 -48.571625579828606 9.295194954618939 6.6298244808677911 #
straight-curve $-1 52.1927549058504 0 10.74821031784191 0 1 0 I I #
straight-curve $-1 52.1927549058504 28.866335056040345 0 0 0 -1 I I #
point $-1 52.1927549058504 28.866335056040345 10.74821031784191 #
point $-1 42.203015153492629 22.26048724128967 -0.092599080315743265 #
End-of-ACIS-data 