500 0 8 0           
7 Unknown 11 ACIS 5.0 NT 24 Fri Mar 26 20:04:22 1999 
-1 9.9999999999999995e-007 1e-010 
body $-1 $8 $-1 $9 #
body $-1 $10 $-1 $11 #
body $-1 $12 $-1 $13 #
body $-1 $14 $-1 $15 #
body $-1 $16 $-1 $17 #
body $-1 $18 $-1 $19 #
body $-1 $20 $-1 $21 #
body $-1 $22 $-1 $23 #
lump $-1 $-1 $24 $0 #
transform $-1 1 0 0 0 1 0 0 0 1 41.773735770744956 25.365748726150734 9.669128937318435 1 rotate no_reflect no_shear #
lump $-1 $-1 $25 $1 #
transform $-1 1 0 0 0 1 0 0 0 1 41.773735770744956 25.365748726150734 9.669128937318435 1 rotate no_reflect no_shear #
lump $-1 $-1 $26 $2 #
transform $-1 1 0 0 0 1 0 0 0 1 41.773735770744956 25.365748726150734 9.669128937318435 1 rotate no_reflect no_shear #
lump $-1 $-1 $27 $3 #
transform $-1 1 0 0 0 1 0 0 0 1 41.773735770744956 25.365748726150734 9.669128937318435 1 rotate no_reflect no_shear #
lump $-1 $-1 $28 $4 #
transform $-1 1 0 0 0 1 0 0 0 1 41.773735770744956 25.365748726150734 9.669128937318435 1 rotate no_reflect no_shear #
lump $-1 $-1 $29 $5 #
transform $-1 1 0 0 0 1 0 0 0 1 41.773735770744956 25.365748726150734 9.669128937318435 1 rotate no_reflect no_shear #
lump $-1 $-1 $30 $6 #
transform $-1 1 0 0 0 1 0 0 0 1 41.773735770744956 25.365748726150734 9.669128937318435 1 rotate no_reflect no_shear #
lump $-1 $-1 $31 $7 #
transform $-1 1 0 0 0 1 0 0 0 1 41.773735770744956 25.365748726150734 9.669128937318435 1 rotate no_reflect no_shear #
shell $-1 $-1 $-1 $32 $-1 $8 #
shell $-1 $-1 $-1 $33 $-1 $10 #
shell $-1 $-1 $-1 $34 $-1 $12 #
shell $-1 $-1 $-1 $35 $-1 $14 #
shell $-1 $-1 $-1 $36 $-1 $16 #
shell $-1 $-1 $-1 $37 $-1 $18 #
shell $-1 $-1 $-1 $38 $-1 $20 #
shell $-1 $-1 $-1 $39 $-1 $22 #
face $-1 $40 $41 $24 $-1 $42 forward single #
face $-1 $43 $44 $25 $-1 $45 forward single #
face $-1 $46 $47 $26 $-1 $48 forward single #
face $-1 $49 $50 $27 $-1 $51 reversed single #
face $-1 $52 $53 $28 $-1 $54 forward single #
face $-1 $55 $56 $29 $-1 $57 forward single #
face $-1 $58 $59 $30 $-1 $60 reversed single #
face $-1 $61 $62 $31 $-1 $63 forward single #
face $-1 $64 $65 $24 $-1 $66 reversed single #
loop $-1 $-1 $67 $32 #
plane-surface $-1 0 0 9.669128937318435 0 0 1 1 0 0 forward_v I I I I #
face $-1 $68 $69 $25 $-1 $70 reversed single #
loop $-1 $-1 $71 $33 #
plane-surface $-1 -37.532205505218144 0 -6.2942143080844204 0 0 1 1 0 0 forward_v I I I I #
face $-1 $72 $73 $26 $-1 $74 reversed single #
loop $-1 $-1 $75 $34 #
plane-surface $-1 37.532205505218151 0 -6.2942143080844204 0 0 1 1 0 0 forward_v I I I I #
face $-1 $76 $77 $27 $-1 $78 reversed single #
loop $-1 $-1 $79 $35 #
plane-surface $-1 -11.857217280016366 -79.069028913726584 67.28078838557262 1 0 0 0 0.64278761758704617 -0.76604443648966558 forward_v I I I I #
face $-1 $80 $81 $28 $-1 $82 forward single #
loop $-1 $83 $84 $36 #
cone-surface $-1 -7.3801048498984798 -20.373052260806656 5.0617260850480719 0 0.64278761758704617 -0.76604443648966558 2 0 0 1 I I 0 1 2 forward I I I I #
face $-1 $85 $86 $29 $-1 $87 forward single #
loop $-1 $88 $89 $37 #
cone-surface $-1 -0.66443620472164611 -20.373052260806656 5.0617260850480719 0 0.64278761758704617 -0.76604443648966558 2 0 0 1 I I 0 1 2 forward I I I I #
face $-1 $90 $91 $30 $-1 $92 reversed single #
loop $-1 $-1 $93 $38 #
plane-surface $-1 33.290675239691339 67.804201611003379 91.416034047067612 -1 0 0 0 0.83867057594974714 0.54463902268945019 forward_v I I I I #
face $-1 $94 $95 $31 $-1 $96 forward single #
loop $-1 $97 $98 $39 #
cone-surface $-1 25.235260439040054 22.833972915462919 6.2024640682477763 0 -0.83867057594974714 -0.54463902268945019 1 0 0 1 I I 0 1 1 forward I I I I #
face $-1 $99 $100 $24 $-1 $101 reversed single #
loop $-1 $-1 $102 $40 #
plane-surface $-1 0 0 -9.669128937318435 0 0 1 1 0 0 forward_v I I I I #
coedge $-1 $103 $104 $105 $106 forward $41 $-1 #
face $-1 $107 $108 $25 $-1 $109 reversed single #
loop $-1 $-1 $110 $43 #
plane-surface $-1 -33.290675239691332 0 -7.9816716227014277 -1 0 0 0 0 1 forward_v I I I I #
coedge $-1 $111 $112 $113 $114 forward $44 $-1 #
face $-1 $115 $116 $26 $-1 $117 reversed single #
loop $-1 $-1 $118 $46 #
plane-surface $-1 33.290675239691339 0 -7.9816716227014277 1 0 0 0 0 -1 forward_v I I I I #
coedge $-1 $119 $120 $121 $122 reversed $47 $-1 #
face $-1 $123 $124 $27 $-1 $125 reversed single #
loop $-1 $-1 $126 $49 #
plane-surface $-1 -4.0222705273100559 -25.365748726150741 3.279712628435604 0 -0.64278761758704617 0.76604443648966558 1 0 0 forward_v I I I I #
coedge $-1 $127 $128 $129 $130 reversed $50 $-1 #
face $-1 $-1 $131 $28 $-1 $132 forward single #
loop $-1 $133 $134 $52 #
cone-surface $-1 -7.3801048498984798 -18.544873018477265 2.8829869507294621 0 0.64278761758704617 -0.76604443648966558 1 0 0 1 I I -0.70710678118654746 0.70710678118654746 1 forward I I I I #
loop $-1 $-1 $135 $36 #
coedge $-1 $84 $84 $136 $137 reversed $53 $-1 #
face $-1 $-1 $138 $29 $-1 $139 forward single #
loop $-1 $140 $141 $55 #
cone-surface $-1 -0.66443620472164611 -18.544873018477265 2.8829869507294621 0 0.64278761758704617 -0.76604443648966558 1 0 0 1 I I -0.70710678118654746 0.70710678118654746 1 forward I I I I #
loop $-1 $-1 $142 $37 #
coedge $-1 $89 $89 $143 $144 reversed $56 $-1 #
face $-1 $145 $146 $30 $-1 $147 reversed single #
loop $-1 $-1 $148 $58 #
plane-surface $-1 25.235260439040054 -2.2646044658430782 45.91282079853589 0 0.83867057594974714 0.54463902268945019 1 0 0 forward_v I I I I #
coedge $-1 $149 $150 $151 $152 reversed $59 $-1 #
face $-1 $-1 $153 $31 $-1 $154 forward single #
loop $-1 $155 $156 $61 #
cone-surface $-1 25.235260439040054 21.929574441352251 5.6151408507810654 0 -0.83867057594974714 -0.54463902268945019 0.5 0 0 1 I I -0.70710678118654746 0.70710678118654746 0.5 forward I I I I #
loop $-1 $-1 $157 $39 #
coedge $-1 $98 $98 $158 $159 reversed $62 $-1 #
face $-1 $160 $161 $24 $-1 $162 reversed single #
loop $-1 $-1 $163 $64 #
plane-surface $-1 0 -25.365748726150734 0 0 1 0 0 0 1 forward_v I I I I #
coedge $-1 $164 $165 $166 $167 forward $65 $-1 #
coedge $-1 $168 $67 $169 $170 forward $41 $-1 #
coedge $-1 $67 $168 $171 $172 forward $41 $-1 #
coedge $-1 $173 $174 $67 $106 reversed $175 $-1 #
edge $-1 $176 -25.365748726150734 $177 25.365748726150734 $105 $178 forward 7 unknown #
face $-1 $179 $180 $25 $-1 $181 reversed single #
loop $-1 $-1 $182 $68 #
plane-surface $-1 0 0 -9.669128937318435 0 0 1 1 0 0 forward_v I I I I #
coedge $-1 $183 $113 $184 $185 reversed $69 $-1 #
coedge $-1 $186 $71 $187 $188 reversed $44 $-1 #
coedge $-1 $71 $186 $189 $190 reversed $44 $-1 #
coedge $-1 $110 $191 $71 $114 reversed $69 $-1 #
edge $-1 $192 -25.365748726150734 $193 25.365748726150734 $113 $194 forward 7 unknown #
face $-1 $195 $196 $26 $-1 $197 reversed single #
loop $-1 $-1 $198 $72 #
plane-surface $-1 0 -25.365748726150734 0 0 1 0 0 0 1 forward_v I I I I #
coedge $-1 $199 $200 $201 $202 reversed $73 $-1 #
coedge $-1 $203 $75 $204 $205 reversed $47 $-1 #
coedge $-1 $75 $203 $198 $206 reversed $47 $-1 #
coedge $-1 $207 $208 $75 $122 forward $209 $-1 #
edge $-1 $210 -25.365748726150734 $211 25.365748726150734 $121 $212 forward 7 unknown #
face $-1 $213 $214 $27 $-1 $215 forward single #
loop $-1 $-1 $216 $76 #
plane-surface $-1 3.8126762253962543 -79.069028913726584 67.28078838557262 -1 0 0 0 -0.64278761758704617 0.76604443648966558 forward_v I I I I #
coedge $-1 $217 $218 $219 $220 reversed $77 $-1 #
coedge $-1 $128 $79 $221 $222 reversed $50 $-1 #
coedge $-1 $79 $127 $217 $223 reversed $50 $-1 #
coedge $-1 $219 $224 $79 $130 forward $225 $-1 #
edge $-1 $226 23.971265255467877 $227 30.360681564350699 $129 $228 forward 7 unknown #
loop $-1 $-1 $136 $80 #
plane-surface $-1 -4.0222705273100559 -25.365748726150741 3.279712628435604 0 -0.64278761758704617 0.76604443648966558 1 0 0 forward_v I I I I #
loop $-1 $-1 $229 $52 #
coedge $-1 $134 $134 $135 $230 reversed $81 $-1 #
coedge $-1 $135 $135 $134 $230 forward $83 $-1 #
coedge $-1 $136 $136 $84 $137 forward $131 $-1 #
edge $-1 $231 -1.2083271327177917e-015 $231 6.2831853071795996 $136 $232 forward 7 unknown #
loop $-1 $-1 $143 $85 #
plane-surface $-1 -4.0222705273100559 -25.365748726150741 3.279712628435604 0 -0.64278761758704617 0.76604443648966558 1 0 0 forward_v I I I I #
loop $-1 $-1 $233 $55 #
coedge $-1 $141 $141 $142 $234 reversed $86 $-1 #
coedge $-1 $142 $142 $141 $234 forward $88 $-1 #
coedge $-1 $143 $143 $89 $144 forward $138 $-1 #
edge $-1 $235 -1.2083271327177917e-015 $235 6.2831853071795996 $143 $236 forward 7 unknown #
face $-1 $237 $238 $30 $-1 $239 reversed single #
loop $-1 $-1 $240 $90 #
plane-surface $-1 17.17984563838877 67.804201611003379 91.416034047067612 1 0 0 0 -0.83867057594974714 -0.54463902268945019 forward_v I I I I #
coedge $-1 $241 $242 $243 $244 reversed $91 $-1 #
coedge $-1 $150 $93 $245 $246 reversed $59 $-1 #
coedge $-1 $93 $149 $241 $247 reversed $59 $-1 #
coedge $-1 $243 $248 $93 $152 forward $238 $-1 #
edge $-1 $249 36.038888086215373 $250 42.342210412112728 $151 $251 forward 7 unknown #
loop $-1 $-1 $158 $94 #
plane-surface $-1 25.235260439040054 -2.2646044658430782 45.91282079853589 0 0.83867057594974714 0.54463902268945019 1 0 0 forward_v I I I I #
loop $-1 $-1 $252 $61 #
coedge $-1 $156 $156 $157 $253 reversed $95 $-1 #
coedge $-1 $157 $157 $156 $253 forward $97 $-1 #
coedge $-1 $158 $158 $98 $159 forward $153 $-1 #
edge $-1 $254 1.4544747785449059e-016 $254 6.2831853071796004 $158 $255 forward 7 unknown #
face $-1 $256 $257 $24 $-1 $258 reversed single #
loop $-1 $-1 $259 $99 #
plane-surface $-1 -41.773735770744956 0 0 1 0 0 0 0 -1 forward_v I I I I #
coedge $-1 $260 $171 $261 $262 forward $100 $-1 #
coedge $-1 $263 $102 $260 $264 forward $65 $-1 #
coedge $-1 $102 $263 $265 $266 forward $65 $-1 #
coedge $-1 $174 $173 $102 $167 reversed $175 $-1 #
edge $-1 $267 -25.365748726150734 $268 25.365748726150734 $166 $269 forward 7 unknown #
coedge $-1 $104 $103 $270 $271 forward $41 $-1 #
coedge $-1 $272 $273 $103 $170 reversed $257 $-1 #
edge $-1 $177 -41.773735770744956 $274 41.773735770744956 $169 $275 forward 7 unknown #
coedge $-1 $163 $276 $104 $172 reversed $100 $-1 #
edge $-1 $277 -41.773735770744956 $176 41.773735770744956 $171 $278 forward 7 unknown #
coedge $-1 $166 $105 $276 $279 forward $175 $-1 #
coedge $-1 $105 $166 $272 $280 reversed $175 $-1 #
loop $-1 $-1 $173 $256 #
vertex $-1 $106 $281 #
vertex $-1 $106 $282 #
straight-curve $-1 41.773735770744956 0 9.669128937318435 0 1 0 I I #
face $-1 $283 $284 $25 $-1 $285 reversed single #
loop $-1 $-1 $184 $107 #
plane-surface $-1 0 -25.365748726150734 0 0 1 0 0 0 1 forward_v I I I I #
coedge $-1 $286 $287 $183 $288 forward $108 $-1 #
coedge $-1 $191 $110 $182 $288 reversed $69 $-1 #
coedge $-1 $189 $289 $110 $185 forward $180 $-1 #
edge $-1 $290 -5.6782931259677216 $192 -2.3033784967337065 $184 $291 forward 7 unknown #
coedge $-1 $112 $111 $292 $293 reversed $44 $-1 #
coedge $-1 $294 $295 $111 $188 forward $296 $-1 #
edge $-1 $297 -23.007633018135884 $193 -14.52457248708226 $187 $298 forward 7 unknown #
coedge $-1 $299 $184 $112 $190 forward $180 $-1 #
edge $-1 $192 14.52457248708226 $300 23.007633018135884 $189 $301 forward 7 unknown #
coedge $-1 $113 $183 $294 $302 reversed $69 $-1 #
vertex $-1 $190 $303 #
vertex $-1 $188 $304 #
straight-curve $-1 -33.290675239691332 0 -6.2942143080844204 0 1 0 I I #
face $-1 $305 $306 $26 $-1 $307 reversed single #
loop $-1 $-1 $308 $115 #
plane-surface $-1 0 0 -9.669128937318435 0 0 1 1 0 0 forward_v I I I I #
coedge $-1 $309 $310 $120 $206 forward $116 $-1 #
coedge $-1 $311 $118 $308 $312 reversed $73 $-1 #
coedge $-1 $118 $311 $203 $313 reversed $73 $-1 #
coedge $-1 $204 $314 $118 $202 forward $306 $-1 #
edge $-1 $315 -5.6782931259677216 $316 -2.3033784967337065 $201 $317 forward 7 unknown #
coedge $-1 $120 $119 $200 $313 forward $47 $-1 #
coedge $-1 $318 $201 $119 $205 forward $306 $-1 #
edge $-1 $316 14.524572487082263 $210 23.007633018135888 $204 $319 forward 7 unknown #
edge $-1 $211 -23.007633018135888 $320 -14.524572487082263 $198 $321 forward 7 unknown #
coedge $-1 $322 $121 $310 $323 forward $209 $-1 #
coedge $-1 $121 $322 $318 $324 reversed $209 $-1 #
loop $-1 $-1 $121 $305 #
vertex $-1 $324 $325 #
vertex $-1 $323 $326 #
straight-curve $-1 41.773735770744956 0 -6.2942143080844204 0 -1 0 I I #
face $-1 $-1 $225 $27 $-1 $327 reversed single #
loop $-1 $-1 $328 $123 #
plane-surface $-1 0 0 9.669128937318435 0 0 1 1 0 0 forward_v I I I I #
coedge $-1 $329 $330 $331 $332 reversed $124 $-1 #
coedge $-1 $333 $126 $128 $223 forward $77 $-1 #
coedge $-1 $126 $333 $329 $334 forward $77 $-1 #
coedge $-1 $331 $129 $126 $220 forward $225 $-1 #
edge $-1 $227 -9.8460820163613381 $335 5.8238114890512822 $219 $336 forward 7 unknown #
coedge $-1 $337 $338 $127 $222 forward $214 $-1 #
edge $-1 $339 -21.783375411916008 $226 -14.168765730712558 $221 $340 forward 7 unknown #
edge $-1 $227 9.1539886837149753e-015 $339 9.9401670692848683 $128 $341 forward 7 unknown #
coedge $-1 $129 $331 $337 $342 reversed $225 $-1 #
loop $-1 $-1 $331 $213 #
vertex $-1 $342 $343 #
vertex $-1 $130 $344 #
straight-curve $-1 -11.857217280016366 -25.365748726150734 33.64039419278631 0 0 -1 I I #
coedge $-1 $229 $229 $-1 $345 reversed $133 $-1 #
edge $-1 $346 0 $346 6.2831853071796004 $134 $347 forward 7 unknown #
vertex $-1 $137 $348 #
ellipse-curve $-1 -7.3801048498984798 -21.558443885549007 6.4744207828770239 0 -0.64278761758704617 0.76604443648966558 2 0 0 1 I I #
coedge $-1 $233 $233 $-1 $349 reversed $140 $-1 #
edge $-1 $350 0 $350 6.2831853071796004 $141 $351 forward 7 unknown #
vertex $-1 $144 $352 #
ellipse-curve $-1 -0.66443620472164611 -21.558443885549007 6.4744207828770239 0 -0.64278761758704617 0.76604443648966558 2 0 0 1 I I #
face $-1 $-1 $353 $30 $-1 $354 forward single #
loop $-1 $-1 $151 $145 #
plane-surface $-1 0 25.365748726150734 0 0 -1 0 0 0 -1 forward_v I I I I #
coedge $-1 $355 $356 $357 $358 reversed $146 $-1 #
coedge $-1 $359 $148 $150 $247 forward $91 $-1 #
coedge $-1 $148 $359 $355 $360 forward $91 $-1 #
coedge $-1 $357 $151 $148 $244 forward $238 $-1 #
edge $-1 $250 -20.673045020171312 $361 -4.5622154188687425 $243 $362 forward 7 unknown #
coedge $-1 $363 $364 $149 $246 forward $353 $-1 #
edge $-1 $365 -12.629777328455006 $249 -8.5363520793509551 $245 $366 forward 7 unknown #
edge $-1 $250 -50.731497452301483 $365 -43.215647359719895 $150 $367 forward 7 unknown #
coedge $-1 $151 $357 $363 $368 reversed $238 $-1 #
vertex $-1 $368 $369 #
vertex $-1 $152 $370 #
straight-curve $-1 33.290675239691339 25.365748726150734 45.708017023533806 0 0 -1 I I #
coedge $-1 $252 $252 $-1 $371 reversed $155 $-1 #
edge $-1 $372 0 $372 6.2831853071796004 $156 $373 forward 7 unknown #
vertex $-1 $159 $374 #
ellipse-curve $-1 25.235260439040054 23.319036101598709 6.5174677743697575 0 0.83867057594974714 0.54463902268945019 1 0 0 1 I I #
face $-1 $-1 $175 $24 $-1 $375 reversed single #
loop $-1 $-1 $272 $160 #
plane-surface $-1 0 25.365748726150734 0 0 -1 0 0 0 -1 forward_v I I I I #
coedge $-1 $376 $270 $273 $377 forward $161 $-1 #
coedge $-1 $276 $163 $164 $264 reversed $100 $-1 #
coedge $-1 $270 $376 $163 $262 reversed $161 $-1 #
edge $-1 $277 -9.669128937318435 $378 9.669128937318435 $261 $379 forward 7 unknown #
coedge $-1 $165 $164 $376 $380 forward $65 $-1 #
edge $-1 $268 -41.773735770744956 $378 41.773735770744956 $260 $381 forward 7 unknown #
coedge $-1 $273 $272 $165 $266 reversed $257 $-1 #
edge $-1 $382 -41.773735770744956 $267 41.773735770744956 $265 $383 forward 7 unknown #
vertex $-1 $167 $384 #
vertex $-1 $279 $385 #
straight-curve $-1 41.773735770744956 0 -9.669128937318435 0 -1 0 I I #
coedge $-1 $259 $261 $168 $271 reversed $161 $-1 #
edge $-1 $274 -25.365748726150734 $277 25.365748726150734 $270 $386 forward 7 unknown #
coedge $-1 $265 $169 $174 $280 forward $257 $-1 #
coedge $-1 $169 $265 $259 $377 reversed $257 $-1 #
vertex $-1 $170 $387 #
straight-curve $-1 0 25.365748726150734 9.669128937318435 -1 0 0 I I #
coedge $-1 $171 $260 $173 $279 reversed $100 $-1 #
vertex $-1 $271 $388 #
straight-curve $-1 0 -25.365748726150734 9.669128937318435 1 0 0 I I #
edge $-1 $176 -9.669128937318435 $268 9.669128937318435 $173 $389 forward 7 unknown #
edge $-1 $177 -9.669128937318435 $267 9.669128937318435 $174 $390 forward 7 unknown #
point $-1 41.773735770744956 -25.365748726150734 9.669128937318435 #
point $-1 41.773735770744956 25.365748726150734 9.669128937318435 #
face $-1 $-1 $296 $25 $-1 $391 reversed single #
loop $-1 $-1 $292 $179 #
plane-surface $-1 -41.773735770744956 0 0 1 0 0 0 0 -1 forward_v I I I I #
coedge $-1 $392 $182 $289 $393 forward $108 $-1 #
coedge $-1 $182 $392 $394 $395 forward $108 $-1 #
edge $-1 $396 -25.365748726150734 $290 25.365748726150734 $182 $397 forward 7 unknown #
coedge $-1 $184 $299 $286 $393 reversed $180 $-1 #
vertex $-1 $393 $398 #
straight-curve $-1 -33.290675239691332 -25.365748726150734 -3.9908358113507139 0 0 1 I I #
coedge $-1 $399 $400 $186 $293 forward $284 $-1 #
edge $-1 $300 -25.365748726150734 $297 25.365748726150734 $292 $401 forward 7 unknown #
coedge $-1 $394 $187 $191 $302 forward $296 $-1 #
coedge $-1 $187 $394 $399 $402 reversed $296 $-1 #
loop $-1 $-1 $294 $283 #
vertex $-1 $402 $403 #
straight-curve $-1 -18.766102752609072 25.365748726150734 -6.2942143080844204 1 0 0 I I #
coedge $-1 $289 $189 $400 $404 forward $180 $-1 #
vertex $-1 $404 $405 #
straight-curve $-1 -18.766102752609072 -25.365748726150734 -6.2942143080844204 -1 0 0 I I #
edge $-1 $193 2.3033784967337065 $396 5.6782931259677216 $294 $406 forward 7 unknown #
point $-1 -33.290675239691332 -25.365748726150734 -6.2942143080844204 #
point $-1 -33.290675239691332 25.365748726150734 -6.2942143080844204 #
face $-1 $-1 $209 $26 $-1 $407 reversed single #
loop $-1 $-1 $204 $195 #
plane-surface $-1 0 25.365748726150734 0 0 -1 0 0 0 -1 forward_v I I I I #
coedge $-1 $408 $409 $199 $312 forward $196 $-1 #
coedge $-1 $410 $198 $311 $411 forward $116 $-1 #
coedge $-1 $198 $410 $207 $323 reversed $116 $-1 #
coedge $-1 $200 $199 $309 $411 reversed $73 $-1 #
edge $-1 $412 -25.365748726150734 $315 25.365748726150734 $308 $413 forward 7 unknown #
edge $-1 $316 -25.365748726150734 $320 25.365748726150734 $200 $414 forward 7 unknown #
coedge $-1 $201 $318 $408 $415 reversed $306 $-1 #
vertex $-1 $415 $416 #
vertex $-1 $205 $417 #
straight-curve $-1 33.290675239691339 25.365748726150734 -3.9908358113507139 0 0 1 I I #
coedge $-1 $314 $204 $208 $324 forward $306 $-1 #
straight-curve $-1 18.766102752609076 25.365748726150734 -6.2942143080844204 1 0 0 I I #
vertex $-1 $206 $418 #
straight-curve $-1 18.766102752609076 -25.365748726150734 -6.2942143080844204 -1 0 0 I I #
coedge $-1 $208 $207 $419 $420 reversed $209 $-1 #
edge $-1 $211 6.2942143080844204 $421 9.669128937318435 $207 $422 forward 7 unknown #
edge $-1 $210 6.2942143080844204 $423 9.669128937318435 $208 $424 forward 7 unknown #
point $-1 41.773735770744963 25.365748726150734 -6.2942143080844204 #
point $-1 41.773735770744963 -25.365748726150734 -6.2942143080844204 #
plane-surface $-1 0 -25.365748726150734 0 0 1 0 0 0 1 forward_v I I I I #
coedge $-1 $338 $337 $330 $425 forward $214 $-1 #
coedge $-1 $330 $216 $218 $334 reversed $124 $-1 #
coedge $-1 $216 $329 $328 $425 reversed $124 $-1 #
coedge $-1 $224 $219 $216 $332 forward $225 $-1 #
edge $-1 $335 -30.360681564350699 $426 -23.971265255467877 $331 $427 forward 7 unknown #
coedge $-1 $218 $217 $338 $428 reversed $77 $-1 #
edge $-1 $429 -9.9401670692848683 $335 -9.1539886837149753e-015 $329 $430 forward 7 unknown #
vertex $-1 $220 $431 #
straight-curve $-1 -2.0111352636550279 -25.365748726150734 3.2797126284356093 1 0 0 I I #
coedge $-1 $328 $221 $224 $342 forward $214 $-1 #
coedge $-1 $221 $328 $333 $428 forward $214 $-1 #
vertex $-1 $222 $432 #
straight-curve $-1 -11.857217280016366 -39.534514456863292 9.6691289373184333 0 -1 0 I I #
straight-curve $-1 -11.857217280016366 -25.365748726150741 3.279712628435604 0 0.76604443648966558 0.64278761758704617 I I #
edge $-1 $226 -11.857217280016366 $426 3.8126762253962543 $224 $433 forward 7 unknown #
point $-1 -11.857217280016366 -25.365748726150734 9.669128937318435 #
point $-1 -11.857217280016366 -25.365748726150734 3.2797126284356097 #
edge $-1 $434 1 $434 0 $229 $-1 forward 7 unknown #
vertex $-1 $230 $435 #
ellipse-curve $-1 -7.3801048498984798 -19.187660636064312 3.6490313872191278 0 -0.64278761758704617 0.76604443648966558 2 0 0 1 I I #
point $-1 -5.3801048498984798 -21.558443885549003 6.4744207828770159 #
edge $-1 $436 1 $436 0 $233 $-1 forward 7 unknown #
vertex $-1 $234 $437 #
ellipse-curve $-1 -0.66443620472164611 -19.187660636064312 3.6490313872191278 0 -0.64278761758704617 0.76604443648966558 2 0 0 1 I I #
point $-1 1.3355637952783539 -21.558443885549003 6.4744207828770159 #
loop $-1 $-1 $245 $237 #
plane-surface $-1 0 0 9.669128937318435 0 0 1 1 0 0 forward_v I I I I #
coedge $-1 $356 $240 $242 $360 reversed $146 $-1 #
coedge $-1 $240 $355 $438 $439 reversed $146 $-1 #
coedge $-1 $248 $243 $240 $358 forward $238 $-1 #
edge $-1 $361 -42.342210412112728 $440 -36.038888086215373 $357 $441 forward 7 unknown #
coedge $-1 $242 $241 $364 $442 reversed $91 $-1 #
edge $-1 $443 43.215647359719895 $361 50.731497452301483 $355 $444 forward 7 unknown #
vertex $-1 $244 $445 #
straight-curve $-1 12.617630219520027 25.365748726150734 3.3658066114210747 -1 0 0 I I #
coedge $-1 $438 $245 $248 $368 forward $353 $-1 #
coedge $-1 $245 $438 $359 $442 forward $353 $-1 #
vertex $-1 $246 $446 #
straight-curve $-1 33.290675239691339 33.902100805501689 9.6691289373184333 0 1 0 I I #
straight-curve $-1 33.290675239691339 -2.2646044658430782 45.91282079853589 0 -0.54463902268945019 0.83867057594974714 I I #
edge $-1 $249 -33.290675239691339 $440 -17.17984563838877 $248 $447 forward 7 unknown #
point $-1 33.290675239691339 25.365748726150734 9.669128937318435 #
point $-1 33.290675239691339 25.365748726150734 3.3658066114210783 #
edge $-1 $448 1 $448 0 $252 $-1 forward 7 unknown #
vertex $-1 $253 $449 #
ellipse-curve $-1 25.235260439040054 22.348909729327126 5.8874603621257906 0 0.83867057594974714 0.54463902268945019 1 0 0 1 I I #
point $-1 26.235260439040054 23.319036101598716 6.517467774369762 #
plane-surface $-1 41.773735770744956 0 0 -1 0 0 0 0 1 forward_v I I I I #
coedge $-1 $261 $259 $263 $380 reversed $161 $-1 #
edge $-1 $274 -9.669128937318435 $382 9.669128937318435 $273 $450 forward 7 unknown #
vertex $-1 $380 $451 #
straight-curve $-1 -41.773735770744956 -25.365748726150734 0 0 0 -1 I I #
edge $-1 $378 -25.365748726150734 $382 25.365748726150734 $376 $452 forward 7 unknown #
straight-curve $-1 0 -25.365748726150734 -9.669128937318435 -1 0 0 I I #
vertex $-1 $266 $453 #
straight-curve $-1 0 25.365748726150734 -9.669128937318435 1 0 0 I I #
point $-1 41.773735770744956 25.365748726150734 -9.669128937318435 #
point $-1 41.773735770744956 -25.365748726150734 -9.669128937318435 #
straight-curve $-1 -41.773735770744956 0 9.669128937318435 0 -1 0 I I #
point $-1 -41.773735770744956 25.365748726150734 9.669128937318435 #
point $-1 -41.773735770744956 -25.365748726150734 9.669128937318435 #
straight-curve $-1 41.773735770744956 -25.365748726150734 0 0 0 -1 I I #
straight-curve $-1 41.773735770744956 25.365748726150734 0 0 0 -1 I I #
plane-surface $-1 0 25.365748726150734 0 0 -1 0 0 0 -1 forward_v I I I I #
coedge $-1 $287 $286 $454 $455 forward $108 $-1 #
edge $-1 $290 33.290675239691332 $456 41.773735770744956 $289 $457 forward 7 unknown #
coedge $-1 $295 $294 $287 $395 reversed $296 $-1 #
edge $-1 $458 -41.773735770744956 $396 -33.290675239691332 $394 $459 forward 7 unknown #
vertex $-1 $302 $460 #
straight-curve $-1 -33.290675239691332 0 -9.669128937318435 0 -1 0 I I #
point $-1 -33.290675239691332 -25.365748726150734 -9.669128937318435 #
coedge $-1 $454 $292 $295 $402 forward $284 $-1 #
coedge $-1 $292 $454 $299 $404 reversed $284 $-1 #
straight-curve $-1 -41.773735770744956 0 -6.2942143080844204 0 1 0 I I #
edge $-1 $297 6.2942143080844204 $458 9.669128937318435 $295 $461 forward 7 unknown #
point $-1 -41.773735770744956 25.365748726150734 -6.2942143080844204 #
edge $-1 $300 6.2942143080844204 $456 9.669128937318435 $400 $462 forward 7 unknown #
point $-1 -41.773735770744956 -25.365748726150734 -6.2942143080844204 #
straight-curve $-1 -33.290675239691332 25.365748726150734 -3.9908358113507139 0 0 -1 I I #
plane-surface $-1 41.773735770744956 0 0 -1 0 0 0 0 1 forward_v I I I I #
coedge $-1 $419 $308 $314 $415 forward $196 $-1 #
coedge $-1 $308 $419 $410 $463 forward $196 $-1 #
coedge $-1 $310 $309 $409 $463 reversed $116 $-1 #
edge $-1 $320 2.3033784967337065 $412 5.6782931259677216 $309 $464 forward 7 unknown #
vertex $-1 $312 $465 #
straight-curve $-1 33.290675239691339 0 -9.669128937318435 0 1 0 I I #
straight-curve $-1 33.290675239691339 0 -6.2942143080844204 0 -1 0 I I #
edge $-1 $315 33.290675239691339 $423 41.773735770744956 $314 $466 forward 7 unknown #
point $-1 33.290675239691339 25.365748726150734 -9.669128937318435 #
point $-1 33.290675239691339 25.365748726150734 -6.2942143080844204 #
point $-1 33.290675239691339 -25.365748726150734 -6.2942143080844204 #
coedge $-1 $409 $408 $322 $420 forward $196 $-1 #
edge $-1 $423 -25.365748726150734 $421 25.365748726150734 $322 $467 forward 7 unknown #
vertex $-1 $323 $468 #
straight-curve $-1 41.773735770744956 -25.365748726150734 0 0 0 -1 I I #
vertex $-1 $420 $469 #
straight-curve $-1 41.773735770744956 25.365748726150734 0 0 0 -1 I I #
edge $-1 $426 14.168765730712558 $429 21.783375411916008 $328 $470 forward 7 unknown #
vertex $-1 $425 $471 #
straight-curve $-1 3.8126762253962543 -25.365748726150734 33.64039419278631 0 0 1 I I #
edge $-1 $429 -5.8238114890512822 $339 9.8460820163613381 $338 $472 forward 7 unknown #
vertex $-1 $428 $473 #
straight-curve $-1 3.8126762253962543 -25.365748726150741 3.279712628435604 0 -0.76604443648966558 -0.64278761758704617 I I #
point $-1 3.8126762253962543 -25.365748726150734 3.2797126284356097 #
point $-1 -11.857217280016366 -17.751139044947283 9.669128937318435 #
straight-curve $-1 0 -25.365748726150734 9.669128937318435 1 0 0 I I #
vertex $-1 $345 $474 #
point $-1 -5.3801048498984798 -19.187660636064312 3.6490313872191278 #
vertex $-1 $349 $475 #
point $-1 1.3355637952783539 -19.187660636064312 3.6490313872191278 #
coedge $-1 $364 $363 $356 $439 forward $353 $-1 #
edge $-1 $440 8.5363520793509551 $443 12.629777328455006 $438 $476 forward 7 unknown #
vertex $-1 $439 $477 #
straight-curve $-1 17.17984563838877 25.365748726150734 45.708017023533806 0 0 1 I I #
edge $-1 $443 4.5622154188687425 $365 20.673045020171312 $364 $478 forward 7 unknown #
vertex $-1 $442 $479 #
straight-curve $-1 17.17984563838877 -2.2646044658430782 45.91282079853589 0 0.54463902268945019 -0.83867057594974714 I I #
point $-1 17.17984563838877 25.365748726150734 3.3658066114210783 #
point $-1 33.290675239691339 21.272323477046683 9.6691289373184333 #
straight-curve $-1 0 25.365748726150734 9.669128937318435 -1 0 0 I I #
vertex $-1 $371 $480 #
point $-1 26.235260439040054 22.348909729327126 5.8874603621257906 #
straight-curve $-1 -41.773735770744956 25.365748726150734 0 0 0 -1 I I #
point $-1 -41.773735770744956 -25.365748726150734 -9.669128937318435 #
straight-curve $-1 -41.773735770744956 0 -9.669128937318435 0 1 0 I I #
point $-1 -41.773735770744956 25.365748726150734 -9.669128937318435 #
coedge $-1 $400 $399 $392 $455 reversed $284 $-1 #
edge $-1 $456 -25.365748726150734 $458 25.365748726150734 $454 $481 forward 7 unknown #
vertex $-1 $455 $482 #
straight-curve $-1 0 -25.365748726150734 -9.669128937318435 -1 0 0 I I #
vertex $-1 $395 $483 #
straight-curve $-1 0 25.365748726150734 -9.669128937318435 1 0 0 I I #
point $-1 -33.290675239691332 25.365748726150734 -9.669128937318435 #
straight-curve $-1 -41.773735770744956 25.365748726150734 0 0 0 -1 I I #
straight-curve $-1 -41.773735770744956 -25.365748726150734 0 0 0 -1 I I #
edge $-1 $421 -41.773735770744956 $412 -33.290675239691339 $410 $484 forward 7 unknown #
straight-curve $-1 33.290675239691339 -25.365748726150734 -3.9908358113507139 0 0 -1 I I #
point $-1 33.290675239691339 -25.365748726150734 -9.669128937318435 #
straight-curve $-1 0 25.365748726150734 -9.669128937318435 1 0 0 I I #
straight-curve $-1 41.773735770744956 0 -9.669128937318435 0 -1 0 I I #
point $-1 41.773735770744956 -25.365748726150734 -9.669128937318435 #
point $-1 41.773735770744956 25.365748726150734 -9.669128937318435 #
straight-curve $-1 3.8126762253962543 -39.534514456863292 9.6691289373184333 0 1 0 I I #
point $-1 3.8126762253962543 -25.365748726150734 9.669128937318435 #
straight-curve $-1 -2.0111352636550279 -17.751139044947283 9.669128937318435 -1 0 0 I I #
point $-1 3.8126762253962543 -17.751139044947283 9.669128937318435 #
point $-1 -7.3801048498984798 -17.902085400890218 2.1169425142397964 #
point $-1 -0.66443620472164611 -17.902085400890218 2.1169425142397964 #
straight-curve $-1 17.17984563838877 33.902100805501689 9.6691289373184333 0 -1 0 I I #
point $-1 17.17984563838877 25.365748726150734 9.669128937318435 #
straight-curve $-1 12.617630219520027 21.272323477046683 9.6691289373184297 1 0 0 I I #
point $-1 17.17984563838877 21.272323477046683 9.6691289373184333 #
point $-1 25.235260439040054 21.510239153377377 5.3428213394363402 #
straight-curve $-1 -41.773735770744956 0 -9.669128937318435 0 1 0 I I #
point $-1 -41.773735770744956 -25.365748726150734 -9.669128937318435 #
point $-1 -41.773735770744956 25.365748726150734 -9.669128937318435 #
straight-curve $-1 0 -25.365748726150734 -9.669128937318435 -1 0 0 I I #
End-of-ACIS-data 