500 0 14 0           
7 Unknown 11 ACIS 5.0 NT 24 Thu Mar 25 15:37:04 1999 
-1 9.9999999999999995e-007 1e-010 
body $-1 $14 $-1 $15 #
body $-1 $16 $-1 $17 #
body $-1 $18 $-1 $19 #
body $-1 $20 $-1 $21 #
body $-1 $22 $-1 $23 #
body $-1 $24 $-1 $25 #
body $-1 $26 $-1 $27 #
body $-1 $28 $-1 $29 #
body $-1 $30 $-1 $31 #
body $-1 $32 $-1 $33 #
body $-1 $34 $-1 $35 #
body $-1 $36 $-1 $37 #
body $-1 $38 $-1 $39 #
body $-1 $40 $-1 $41 #
lump $-1 $-1 $42 $0 #
transform $-1 1 0 0 0 1 0 0 0 1 47.36106448561052 26.873107676498201 7.7228097093573709 1 rotate no_reflect no_shear #
lump $-1 $-1 $43 $1 #
transform $-1 1 0 0 0 1 0 0 0 1 47.36106448561052 26.873107676498201 7.7228097093573709 1 rotate no_reflect no_shear #
lump $-1 $-1 $44 $2 #
transform $-1 1 0 0 0 1 0 0 0 1 47.36106448561052 26.873107676498201 7.7228097093573709 1 rotate no_reflect no_shear #
lump $-1 $-1 $45 $3 #
transform $-1 1 0 0 0 1 0 0 0 1 47.36106448561052 26.873107676498201 7.7228097093573709 1 rotate no_reflect no_shear #
lump $-1 $-1 $46 $4 #
transform $-1 1 0 0 0 1 0 0 0 1 47.36106448561052 26.873107676498201 7.7228097093573709 1 rotate no_reflect no_shear #
lump $-1 $-1 $47 $5 #
transform $-1 1 0 0 0 1 0 0 0 1 47.36106448561052 26.873107676498201 7.7228097093573709 1 rotate no_reflect no_shear #
lump $-1 $-1 $48 $6 #
transform $-1 1 0 0 0 1 0 0 0 1 47.36106448561052 26.873107676498201 7.7228097093573709 1 rotate no_reflect no_shear #
lump $-1 $-1 $49 $7 #
transform $-1 1 0 0 0 1 0 0 0 1 47.36106448561052 26.873107676498201 7.7228097093573709 1 rotate no_reflect no_shear #
lump $-1 $-1 $50 $8 #
transform $-1 1 0 0 0 1 0 0 0 1 47.36106448561052 26.873107676498201 7.7228097093573709 1 rotate no_reflect no_shear #
lump $-1 $-1 $51 $9 #
transform $-1 1 0 0 0 1 0 0 0 1 47.36106448561052 26.873107676498201 7.7228097093573709 1 rotate no_reflect no_shear #
lump $-1 $-1 $52 $10 #
transform $-1 1 0 0 0 1 0 0 0 1 47.36106448561052 26.873107676498201 7.7228097093573709 1 rotate no_reflect no_shear #
lump $-1 $-1 $53 $11 #
transform $-1 1 0 0 0 1 0 0 0 1 47.36106448561052 26.873107676498201 7.7228097093573709 1 rotate no_reflect no_shear #
lump $-1 $-1 $54 $12 #
transform $-1 1 0 0 0 1 0 0 0 1 47.36106448561052 26.873107676498201 7.7228097093573709 1 rotate no_reflect no_shear #
lump $-1 $-1 $55 $13 #
transform $-1 1 0 0 0 1 0 0 0 1 47.36106448561052 26.873107676498201 7.7228097093573709 1 rotate no_reflect no_shear #
shell $-1 $-1 $-1 $56 $-1 $14 #
shell $-1 $-1 $-1 $57 $-1 $16 #
shell $-1 $-1 $-1 $58 $-1 $18 #
shell $-1 $-1 $-1 $59 $-1 $20 #
shell $-1 $-1 $-1 $60 $-1 $22 #
shell $-1 $-1 $-1 $61 $-1 $24 #
shell $-1 $-1 $-1 $62 $-1 $26 #
shell $-1 $-1 $-1 $63 $-1 $28 #
shell $-1 $-1 $-1 $64 $-1 $30 #
shell $-1 $-1 $-1 $65 $-1 $32 #
shell $-1 $-1 $-1 $66 $-1 $34 #
shell $-1 $-1 $-1 $67 $-1 $36 #
shell $-1 $-1 $-1 $68 $-1 $38 #
shell $-1 $-1 $-1 $69 $-1 $40 #
face $-1 $70 $71 $42 $-1 $72 forward single #
face $-1 $73 $74 $43 $-1 $75 forward single #
face $-1 $76 $77 $44 $-1 $78 reversed single #
face $-1 $79 $80 $45 $-1 $81 forward single #
face $-1 $82 $83 $46 $-1 $84 forward single #
face $-1 $85 $86 $47 $-1 $87 reversed single #
face $-1 $88 $89 $48 $-1 $90 forward single #
face $-1 $91 $92 $49 $-1 $93 forward single #
face $-1 $94 $95 $50 $-1 $96 reversed single #
face $-1 $97 $98 $51 $-1 $99 forward single #
face $-1 $100 $101 $52 $-1 $102 forward single #
face $-1 $103 $104 $53 $-1 $105 reversed single #
face $-1 $106 $107 $54 $-1 $108 forward single #
face $-1 $109 $110 $55 $-1 $111 forward single #
face $-1 $112 $113 $42 $-1 $114 reversed single #
loop $-1 $-1 $115 $56 #
plane-surface $-1 0 0 7.7228097093573709 0 0 1 1 0 0 forward_v I I I I #
face $-1 $116 $117 $43 $-1 $118 reversed single #
loop $-1 $-1 $119 $57 #
plane-surface $-1 0 -22.196828199628705 -3.1632243925665193 0 0 1 1 0 0 forward_v I I I I #
face $-1 $120 $121 $44 $-1 $122 reversed single #
loop $-1 $-1 $123 $58 #
plane-surface $-1 28.717810207240056 -8.9842043486729644 135.22225240580457 0 -1 0 -0.6018150307709319 0 -0.79863550430605224 forward_v I I I I #
face $-1 $124 $125 $45 $-1 $126 forward single #
loop $-1 $127 $128 $59 #
cone-surface $-1 43.488261056978509 -13.280980881554788 4.5447277291157242 -0.6018150307709319 0 -0.79863550430605224 0.39931775215302612 0 -0.30090751538546595 1 I I 0 1 0.5 forward I I I I #
face $-1 $129 $130 $46 $-1 $131 forward single #
loop $-1 $132 $133 $60 #
cone-surface $-1 43.488261056978509 -10.702914961825694 4.5447277291157242 -0.6018150307709319 0 -0.79863550430605224 0.39931775215302612 0 -0.30090751538546595 1 I I 0 1 0.5 forward I I I I #
face $-1 $134 $135 $47 $-1 $136 reversed single #
loop $-1 $-1 $137 $61 #
plane-surface $-1 28.717810207240056 2.1142097511413889 135.22225240580457 0 -1 0 -0.6018150307709319 0 -0.79863550430605224 forward_v I I I I #
face $-1 $138 $139 $48 $-1 $140 forward single #
loop $-1 $141 $142 $62 #
cone-surface $-1 43.488261056978509 -2.1825667817404337 4.5447277291157242 -0.6018150307709319 0 -0.79863550430605224 0.39931775215302612 0 -0.30090751538546595 1 I I 0 1 0.5 forward I I I I #
face $-1 $143 $144 $49 $-1 $145 forward single #
loop $-1 $146 $147 $63 #
cone-surface $-1 43.488261056978509 0.39549913798865788 4.5447277291157242 -0.6018150307709319 0 -0.79863550430605224 0.39931775215302612 0 -0.30090751538546595 1 I I 0 1 0.5 forward I I I I #
face $-1 $148 $149 $50 $-1 $150 reversed single #
loop $-1 $-1 $151 $64 #
plane-surface $-1 28.717810207240056 13.21262385095574 135.22225240580457 0 -1 0 -0.6018150307709319 0 -0.79863550430605224 forward_v I I I I #
face $-1 $152 $153 $51 $-1 $154 forward single #
loop $-1 $155 $156 $65 #
cone-surface $-1 43.488261056978509 8.9158473180739222 4.5447277291157242 -0.6018150307709319 0 -0.79863550430605224 0.39931775215302612 0 -0.30090751538546595 1 I I 0 1 0.5 forward I I I I #
face $-1 $157 $158 $52 $-1 $159 forward single #
loop $-1 $160 $161 $66 #
cone-surface $-1 43.488261056978509 11.493913237803007 4.5447277291157242 -0.6018150307709319 0 -0.79863550430605224 0.39931775215302612 0 -0.30090751538546595 1 I I 0 1 0.5 forward I I I I #
face $-1 $162 $163 $53 $-1 $164 reversed single #
loop $-1 $-1 $165 $67 #
plane-surface $-1 28.717810207240056 24.311037950770089 135.22225240580457 0 -1 0 -0.6018150307709319 0 -0.79863550430605224 forward_v I I I I #
face $-1 $166 $167 $54 $-1 $168 forward single #
loop $-1 $169 $170 $68 #
cone-surface $-1 43.488261056978509 20.014261417888271 4.5447277291157242 -0.6018150307709319 0 -0.79863550430605224 0.39931775215302612 0 -0.30090751538546595 1 I I 0 1 0.5 forward I I I I #
face $-1 $171 $172 $55 $-1 $173 forward single #
loop $-1 $174 $175 $69 #
cone-surface $-1 43.488261056978509 22.592327337617355 4.5447277291157242 -0.6018150307709319 0 -0.79863550430605224 0.39931775215302612 0 -0.30090751538546595 1 I I 0 1 0.5 forward I I I I #
face $-1 $176 $177 $42 $-1 $178 reversed single #
loop $-1 $-1 $179 $70 #
plane-surface $-1 0 0 -7.7228097093573709 0 0 1 1 0 0 forward_v I I I I #
coedge $-1 $180 $181 $182 $183 forward $71 $-1 #
face $-1 $184 $185 $43 $-1 $186 reversed single #
loop $-1 $-1 $187 $73 #
plane-surface $-1 0 -17.520548722759209 -5.4430170509619451 0 -1 0 0 0 -1 forward_v I I I I #
coedge $-1 $188 $189 $190 $191 reversed $74 $-1 #
face $-1 $192 $193 $44 $-1 $194 reversed single #
loop $-1 $-1 $195 $76 #
plane-surface $-1 -28.287390754263505 -11.99194792169024 59.573797165930543 0.6018150307709319 0 0.79863550430605224 0.79863550430605224 0 -0.6018150307709319 forward_v I I I I #
coedge $-1 $196 $197 $198 $199 reversed $77 $-1 #
face $-1 $-1 $200 $45 $-1 $201 forward single #
loop $-1 $202 $203 $79 #
cone-surface $-1 42.884939973394587 -13.280980881554788 3.7440936252627779 -0.6018150307709319 0 -0.79863550430605224 0.19965887607651306 0 -0.15045375769273298 1 I I -0.70710678118654746 0.70710678118654746 0.25 forward I I I I #
loop $-1 $-1 $204 $59 #
coedge $-1 $128 $128 $205 $206 reversed $80 $-1 #
face $-1 $-1 $207 $46 $-1 $208 forward single #
loop $-1 $209 $210 $82 #
cone-surface $-1 42.884939973394587 -10.702914961825694 3.7440936252627779 -0.6018150307709319 0 -0.79863550430605224 0.19965887607651306 0 -0.15045375769273298 1 I I -0.70710678118654746 0.70710678118654746 0.25 forward I I I I #
loop $-1 $-1 $211 $60 #
coedge $-1 $133 $133 $212 $213 reversed $83 $-1 #
face $-1 $214 $215 $47 $-1 $216 reversed single #
loop $-1 $-1 $217 $85 #
plane-surface $-1 -28.287390754263505 -0.89353382187588792 59.573797165930543 0.6018150307709319 0 0.79863550430605224 0.79863550430605224 0 -0.6018150307709319 forward_v I I I I #
coedge $-1 $218 $219 $220 $221 reversed $86 $-1 #
face $-1 $-1 $222 $48 $-1 $223 forward single #
loop $-1 $224 $225 $88 #
cone-surface $-1 42.884939973394587 -2.1825667817404337 3.7440936252627779 -0.6018150307709319 0 -0.79863550430605224 0.19965887607651306 0 -0.15045375769273298 1 I I -0.70710678118654746 0.70710678118654746 0.25 forward I I I I #
loop $-1 $-1 $226 $62 #
coedge $-1 $142 $142 $227 $228 reversed $89 $-1 #
face $-1 $-1 $229 $49 $-1 $230 forward single #
loop $-1 $231 $232 $91 #
cone-surface $-1 42.884939973394587 0.39549913798865788 3.7440936252627779 -0.6018150307709319 0 -0.79863550430605224 0.19965887607651306 0 -0.15045375769273298 1 I I -0.70710678118654746 0.70710678118654746 0.25 forward I I I I #
loop $-1 $-1 $233 $63 #
coedge $-1 $147 $147 $234 $235 reversed $92 $-1 #
face $-1 $236 $237 $50 $-1 $238 reversed single #
loop $-1 $-1 $239 $94 #
plane-surface $-1 -28.287390754263505 10.204880277938464 59.573797165930543 0.6018150307709319 0 0.79863550430605224 0.79863550430605224 0 -0.6018150307709319 forward_v I I I I #
coedge $-1 $240 $241 $242 $243 reversed $95 $-1 #
face $-1 $-1 $244 $51 $-1 $245 forward single #
loop $-1 $246 $247 $97 #
cone-surface $-1 42.884939973394587 8.9158473180739222 3.7440936252627779 -0.6018150307709319 0 -0.79863550430605224 0.19965887607651306 0 -0.15045375769273298 1 I I -0.70710678118654746 0.70710678118654746 0.25 forward I I I I #
loop $-1 $-1 $248 $65 #
coedge $-1 $156 $156 $249 $250 reversed $98 $-1 #
face $-1 $-1 $251 $52 $-1 $252 forward single #
loop $-1 $253 $254 $100 #
cone-surface $-1 42.884939973394587 11.493913237803007 3.7440936252627779 -0.6018150307709319 0 -0.79863550430605224 0.19965887607651306 0 -0.15045375769273298 1 I I -0.70710678118654746 0.70710678118654746 0.25 forward I I I I #
loop $-1 $-1 $255 $66 #
coedge $-1 $161 $161 $256 $257 reversed $101 $-1 #
face $-1 $258 $259 $53 $-1 $260 reversed single #
loop $-1 $-1 $261 $103 #
plane-surface $-1 -28.287390754263505 21.303294377752813 59.573797165930543 0.6018150307709319 0 0.79863550430605224 0.79863550430605224 0 -0.6018150307709319 forward_v I I I I #
coedge $-1 $262 $263 $264 $265 reversed $104 $-1 #
face $-1 $-1 $266 $54 $-1 $267 forward single #
loop $-1 $268 $269 $106 #
cone-surface $-1 42.884939973394587 20.014261417888271 3.7440936252627779 -0.6018150307709319 0 -0.79863550430605224 0.19965887607651306 0 -0.15045375769273298 1 I I -0.70710678118654746 0.70710678118654746 0.25 forward I I I I #
loop $-1 $-1 $270 $68 #
coedge $-1 $170 $170 $271 $272 reversed $107 $-1 #
face $-1 $-1 $273 $55 $-1 $274 forward single #
loop $-1 $275 $276 $109 #
cone-surface $-1 42.884939973394587 22.592327337617355 3.7440936252627779 -0.6018150307709319 0 -0.79863550430605224 0.19965887607651306 0 -0.15045375769273298 1 I I -0.70710678118654746 0.70710678118654746 0.25 forward I I I I #
loop $-1 $-1 $277 $69 #
coedge $-1 $175 $175 $278 $279 reversed $110 $-1 #
face $-1 $280 $281 $42 $-1 $282 reversed single #
loop $-1 $-1 $283 $112 #
plane-surface $-1 0 -26.873107676498201 0 0 1 0 0 0 1 forward_v I I I I #
coedge $-1 $284 $285 $286 $287 forward $113 $-1 #
coedge $-1 $288 $115 $289 $290 forward $71 $-1 #
coedge $-1 $115 $288 $291 $292 forward $71 $-1 #
coedge $-1 $293 $294 $115 $183 reversed $295 $-1 #
edge $-1 $296 -26.873107676498201 $297 26.873107676498201 $182 $298 forward 7 unknown #
face $-1 $299 $300 $43 $-1 $301 reversed single #
loop $-1 $-1 $302 $116 #
plane-surface $-1 0 0 -7.7228097093573709 0 0 1 1 0 0 forward_v I I I I #
coedge $-1 $303 $304 $305 $306 reversed $117 $-1 #
coedge $-1 $307 $119 $304 $308 forward $74 $-1 #
coedge $-1 $119 $307 $309 $310 reversed $74 $-1 #
coedge $-1 $311 $305 $119 $191 forward $300 $-1 #
edge $-1 $312 6.4221346229448564 $313 15.774693576683848 $190 $314 forward 7 unknown #
face $-1 $315 $316 $44 $-1 $317 reversed single #
loop $-1 $-1 $318 $120 #
plane-surface $-1 28.717810207240056 -14.999691494707516 135.22225240580457 0 1 0 0.6018150307709319 0 0.79863550430605224 forward_v I I I I #
coedge $-1 $319 $320 $321 $322 reversed $121 $-1 #
coedge $-1 $197 $123 $323 $324 reversed $77 $-1 #
coedge $-1 $123 $196 $319 $325 reversed $77 $-1 #
coedge $-1 $321 $326 $123 $199 forward $327 $-1 #
edge $-1 $328 -33.002159381990495 $329 -26.162287176508908 $198 $330 forward 7 unknown #
loop $-1 $-1 $205 $124 #
plane-surface $-1 -28.287390754263505 -11.99194792169024 59.573797165930543 0.6018150307709319 0 0.79863550430605224 0.79863550430605224 0 -0.6018150307709319 forward_v I I I I #
loop $-1 $-1 $331 $79 #
coedge $-1 $203 $203 $204 $332 reversed $125 $-1 #
coedge $-1 $204 $204 $203 $332 forward $127 $-1 #
coedge $-1 $205 $205 $128 $206 forward $200 $-1 #
edge $-1 $333 0 $333 6.2831853071796004 $205 $334 forward 7 unknown #
loop $-1 $-1 $212 $129 #
plane-surface $-1 -28.287390754263505 -11.99194792169024 59.573797165930543 0.6018150307709319 0 0.79863550430605224 0.79863550430605224 0 -0.6018150307709319 forward_v I I I I #
loop $-1 $-1 $335 $82 #
coedge $-1 $210 $210 $211 $336 reversed $130 $-1 #
coedge $-1 $211 $211 $210 $336 forward $132 $-1 #
coedge $-1 $212 $212 $133 $213 forward $207 $-1 #
edge $-1 $337 0 $337 6.2831853071796004 $212 $338 forward 7 unknown #
face $-1 $339 $340 $47 $-1 $341 reversed single #
loop $-1 $-1 $342 $134 #
plane-surface $-1 28.717810207240056 -3.9012773948931647 135.22225240580457 0 1 0 0.6018150307709319 0 0.79863550430605224 forward_v I I I I #
coedge $-1 $343 $344 $345 $346 reversed $135 $-1 #
coedge $-1 $219 $137 $347 $348 reversed $86 $-1 #
coedge $-1 $137 $218 $343 $349 reversed $86 $-1 #
coedge $-1 $345 $350 $137 $221 forward $351 $-1 #
edge $-1 $352 -33.002159381990495 $353 -26.162287176508908 $220 $354 forward 7 unknown #
loop $-1 $-1 $227 $138 #
plane-surface $-1 -28.287390754263505 -0.89353382187588792 59.573797165930543 0.6018150307709319 0 0.79863550430605224 0.79863550430605224 0 -0.6018150307709319 forward_v I I I I #
loop $-1 $-1 $355 $88 #
coedge $-1 $225 $225 $226 $356 reversed $139 $-1 #
coedge $-1 $226 $226 $225 $356 forward $141 $-1 #
coedge $-1 $227 $227 $142 $228 forward $222 $-1 #
edge $-1 $357 0 $357 6.2831853071796004 $227 $358 forward 7 unknown #
loop $-1 $-1 $234 $143 #
plane-surface $-1 -28.287390754263505 -0.89353382187588792 59.573797165930543 0.6018150307709319 0 0.79863550430605224 0.79863550430605224 0 -0.6018150307709319 forward_v I I I I #
loop $-1 $-1 $359 $91 #
coedge $-1 $232 $232 $233 $360 reversed $144 $-1 #
coedge $-1 $233 $233 $232 $360 forward $146 $-1 #
coedge $-1 $234 $234 $147 $235 forward $229 $-1 #
edge $-1 $361 0 $361 6.2831853071796004 $234 $362 forward 7 unknown #
face $-1 $363 $364 $50 $-1 $365 reversed single #
loop $-1 $-1 $366 $148 #
plane-surface $-1 28.717810207240056 7.1971367049211876 135.22225240580457 0 1 0 0.6018150307709319 0 0.79863550430605224 forward_v I I I I #
coedge $-1 $367 $368 $369 $370 reversed $149 $-1 #
coedge $-1 $241 $151 $371 $372 reversed $95 $-1 #
coedge $-1 $151 $240 $367 $373 reversed $95 $-1 #
coedge $-1 $369 $374 $151 $243 forward $375 $-1 #
edge $-1 $376 -33.002159381990495 $377 -26.162287176508908 $242 $378 forward 7 unknown #
loop $-1 $-1 $249 $152 #
plane-surface $-1 -28.287390754263505 10.204880277938464 59.573797165930543 0.6018150307709319 0 0.79863550430605224 0.79863550430605224 0 -0.6018150307709319 forward_v I I I I #
loop $-1 $-1 $379 $97 #
coedge $-1 $247 $247 $248 $380 reversed $153 $-1 #
coedge $-1 $248 $248 $247 $380 forward $155 $-1 #
coedge $-1 $249 $249 $156 $250 forward $244 $-1 #
edge $-1 $381 0 $381 6.2831853071796004 $249 $382 forward 7 unknown #
loop $-1 $-1 $256 $157 #
plane-surface $-1 -28.287390754263505 10.204880277938464 59.573797165930543 0.6018150307709319 0 0.79863550430605224 0.79863550430605224 0 -0.6018150307709319 forward_v I I I I #
loop $-1 $-1 $383 $100 #
coedge $-1 $254 $254 $255 $384 reversed $158 $-1 #
coedge $-1 $255 $255 $254 $384 forward $160 $-1 #
coedge $-1 $256 $256 $161 $257 forward $251 $-1 #
edge $-1 $385 0 $385 6.2831853071796004 $256 $386 forward 7 unknown #
face $-1 $387 $388 $53 $-1 $389 reversed single #
loop $-1 $-1 $390 $162 #
plane-surface $-1 28.717810207240056 18.295550804735537 135.22225240580457 0 1 0 0.6018150307709319 0 0.79863550430605224 forward_v I I I I #
coedge $-1 $391 $392 $393 $394 reversed $163 $-1 #
coedge $-1 $263 $165 $395 $396 reversed $104 $-1 #
coedge $-1 $165 $262 $391 $397 reversed $104 $-1 #
coedge $-1 $393 $398 $165 $265 forward $399 $-1 #
edge $-1 $400 -33.002159381990495 $401 -26.162287176508908 $264 $402 forward 7 unknown #
loop $-1 $-1 $271 $166 #
plane-surface $-1 -28.287390754263505 21.303294377752813 59.573797165930543 0.6018150307709319 0 0.79863550430605224 0.79863550430605224 0 -0.6018150307709319 forward_v I I I I #
loop $-1 $-1 $403 $106 #
coedge $-1 $269 $269 $270 $404 reversed $167 $-1 #
coedge $-1 $270 $270 $269 $404 forward $169 $-1 #
coedge $-1 $271 $271 $170 $272 forward $266 $-1 #
edge $-1 $405 0 $405 6.2831853071796004 $271 $406 forward 7 unknown #
loop $-1 $-1 $278 $171 #
plane-surface $-1 -28.287390754263505 21.303294377752813 59.573797165930543 0.6018150307709319 0 0.79863550430605224 0.79863550430605224 0 -0.6018150307709319 forward_v I I I I #
loop $-1 $-1 $407 $109 #
coedge $-1 $276 $276 $277 $408 reversed $172 $-1 #
coedge $-1 $277 $277 $276 $408 forward $174 $-1 #
coedge $-1 $278 $278 $175 $279 forward $273 $-1 #
edge $-1 $409 0 $409 6.2831853071796004 $278 $410 forward 7 unknown #
face $-1 $411 $412 $42 $-1 $413 reversed single #
loop $-1 $-1 $414 $176 #
plane-surface $-1 -47.36106448561052 0 0 1 0 0 0 0 -1 forward_v I I I I #
coedge $-1 $415 $291 $416 $417 forward $177 $-1 #
coedge $-1 $418 $179 $415 $419 forward $113 $-1 #
coedge $-1 $179 $418 $420 $421 forward $113 $-1 #
coedge $-1 $294 $293 $179 $287 reversed $295 $-1 #
edge $-1 $422 -26.873107676498201 $423 26.873107676498201 $286 $424 forward 7 unknown #
coedge $-1 $181 $180 $425 $426 forward $71 $-1 #
coedge $-1 $427 $428 $180 $290 reversed $412 $-1 #
edge $-1 $297 -47.36106448561052 $429 47.36106448561052 $289 $430 forward 7 unknown #
coedge $-1 $283 $431 $181 $292 reversed $177 $-1 #
edge $-1 $432 -47.36106448561052 $296 47.36106448561052 $291 $433 forward 7 unknown #
coedge $-1 $286 $182 $431 $434 forward $295 $-1 #
coedge $-1 $182 $286 $427 $435 reversed $295 $-1 #
loop $-1 $-1 $293 $411 #
vertex $-1 $183 $436 #
vertex $-1 $183 $437 #
straight-curve $-1 47.36106448561052 0 7.7228097093573709 0 1 0 I I #
face $-1 $438 $439 $43 $-1 $440 reversed single #
loop $-1 $-1 $305 $184 #
plane-surface $-1 47.36106448561052 0 0 -1 0 0 0 0 1 forward_v I I I I #
coedge $-1 $441 $442 $303 $443 forward $185 $-1 #
coedge $-1 $444 $187 $302 $443 reversed $117 $-1 #
coedge $-1 $187 $444 $188 $308 reversed $117 $-1 #
coedge $-1 $190 $445 $187 $306 forward $300 $-1 #
edge $-1 $446 -5.0013011838763983 $312 -0.44171586708554678 $305 $447 forward 7 unknown #
coedge $-1 $189 $188 $448 $449 reversed $74 $-1 #
edge $-1 $312 -47.36106448561052 $450 47.36106448561052 $304 $451 forward 7 unknown #
coedge $-1 $452 $453 $189 $310 forward $439 $-1 #
edge $-1 $313 -47.36106448561052 $454 47.36106448561052 $309 $455 forward 7 unknown #
coedge $-1 $445 $190 $453 $456 forward $300 $-1 #
vertex $-1 $191 $457 #
vertex $-1 $456 $458 #
straight-curve $-1 47.36106448561052 -11.098414099814352 -3.1632243925665193 0 -1 0 I I #
face $-1 $-1 $327 $44 $-1 $459 forward single #
loop $-1 $-1 $460 $192 #
plane-surface $-1 47.36106448561052 0 0 -1 0 0 0 0 1 forward_v I I I I #
coedge $-1 $461 $462 $463 $464 reversed $193 $-1 #
coedge $-1 $465 $195 $197 $325 forward $121 $-1 #
coedge $-1 $195 $465 $461 $466 forward $121 $-1 #
coedge $-1 $463 $198 $195 $322 forward $327 $-1 #
edge $-1 $329 2.9882303878278442 $467 9.003717533862396 $321 $468 forward 7 unknown #
coedge $-1 $469 $470 $196 $324 forward $316 $-1 #
edge $-1 $471 -65.042529998475302 $328 -59.888316493544913 $323 $472 forward 7 unknown #
edge $-1 $329 86.15768102393767 $471 94.722128971221025 $197 $473 forward 7 unknown #
coedge $-1 $198 $463 $469 $474 forward $327 $-1 #
loop $-1 $-1 $463 $315 #
vertex $-1 $324 $475 #
vertex $-1 $199 $476 #
straight-curve $-1 14.358905103620028 -8.9842043486729644 7.7228097093573709 -1 0 0 I I #
coedge $-1 $331 $331 $-1 $477 reversed $202 $-1 #
edge $-1 $478 0 $478 6.2831853071796004 $203 $479 forward 7 unknown #
vertex $-1 $206 $480 #
ellipse-curve $-1 43.941128382869714 -13.280980881554788 5.1457029568921806 0.6018150307709319 0 0.79863550430605224 0.39931775215302612 0 -0.30090751538546595 1 I I #
coedge $-1 $335 $335 $-1 $481 reversed $209 $-1 #
edge $-1 $482 0 $482 6.2831853071796004 $210 $483 forward 7 unknown #
vertex $-1 $213 $484 #
ellipse-curve $-1 43.941128382869714 -10.702914961825694 5.1457029568921806 0.6018150307709319 0 0.79863550430605224 0.39931775215302612 0 -0.30090751538546595 1 I I #
face $-1 $-1 $351 $47 $-1 $485 forward single #
loop $-1 $-1 $486 $214 #
plane-surface $-1 47.36106448561052 0 0 -1 0 0 0 0 1 forward_v I I I I #
coedge $-1 $487 $488 $489 $490 reversed $215 $-1 #
coedge $-1 $491 $217 $219 $349 forward $135 $-1 #
coedge $-1 $217 $491 $487 $492 forward $135 $-1 #
coedge $-1 $489 $220 $217 $346 forward $351 $-1 #
edge $-1 $353 -2.5609766620793328 $493 3.4545104839552208 $345 $494 forward 7 unknown #
coedge $-1 $495 $496 $218 $348 forward $340 $-1 #
edge $-1 $497 -65.042529998475302 $352 -59.888316493544913 $347 $498 forward 7 unknown #
edge $-1 $353 86.15768102393767 $497 94.722128971221025 $219 $499 forward 7 unknown #
coedge $-1 $220 $489 $495 $500 forward $351 $-1 #
loop $-1 $-1 $489 $339 #
vertex $-1 $348 $501 #
vertex $-1 $221 $502 #
straight-curve $-1 14.358905103620028 2.1142097511413889 7.7228097093573709 -1 0 0 I I #
coedge $-1 $355 $355 $-1 $503 reversed $224 $-1 #
edge $-1 $504 0 $504 6.2831853071796004 $225 $505 forward 7 unknown #
vertex $-1 $228 $506 #
ellipse-curve $-1 43.941128382869714 -2.1825667817404337 5.1457029568921806 0.6018150307709319 0 0.79863550430605224 0.39931775215302612 0 -0.30090751538546595 1 I I #
coedge $-1 $359 $359 $-1 $507 reversed $231 $-1 #
edge $-1 $508 0 $508 6.2831853071796004 $232 $509 forward 7 unknown #
vertex $-1 $235 $510 #
ellipse-curve $-1 43.941128382869714 0.39549913798865788 5.1457029568921806 0.6018150307709319 0 0.79863550430605224 0.39931775215302612 0 -0.30090751538546595 1 I I #
face $-1 $-1 $375 $50 $-1 $511 forward single #
loop $-1 $-1 $512 $236 #
plane-surface $-1 47.36106448561052 0 0 -1 0 0 0 0 1 forward_v I I I I #
coedge $-1 $513 $514 $515 $516 reversed $237 $-1 #
coedge $-1 $517 $239 $241 $373 forward $149 $-1 #
coedge $-1 $239 $517 $513 $518 forward $149 $-1 #
coedge $-1 $515 $242 $239 $370 forward $375 $-1 #
edge $-1 $377 -8.1101837119865081 $519 -2.0946965659519554 $369 $520 forward 7 unknown #
coedge $-1 $521 $522 $240 $372 forward $364 $-1 #
edge $-1 $523 -65.042529998475302 $376 -59.888316493544913 $371 $524 forward 7 unknown #
edge $-1 $377 86.15768102393767 $523 94.722128971221025 $241 $525 forward 7 unknown #
coedge $-1 $242 $515 $521 $526 forward $375 $-1 #
loop $-1 $-1 $515 $363 #
vertex $-1 $372 $527 #
vertex $-1 $243 $528 #
straight-curve $-1 14.358905103620028 13.21262385095574 7.7228097093573709 -1 0 0 I I #
coedge $-1 $379 $379 $-1 $529 reversed $246 $-1 #
edge $-1 $530 0 $530 6.2831853071796004 $247 $531 forward 7 unknown #
vertex $-1 $250 $532 #
ellipse-curve $-1 43.941128382869714 8.9158473180739222 5.1457029568921806 0.6018150307709319 0 0.79863550430605224 0.39931775215302612 0 -0.30090751538546595 1 I I #
coedge $-1 $383 $383 $-1 $533 reversed $253 $-1 #
edge $-1 $534 0 $534 6.2831853071796004 $254 $535 forward 7 unknown #
vertex $-1 $257 $536 #
ellipse-curve $-1 43.941128382869714 11.493913237803007 5.1457029568921806 0.6018150307709319 0 0.79863550430605224 0.39931775215302612 0 -0.30090751538546595 1 I I #
face $-1 $-1 $399 $53 $-1 $537 forward single #
loop $-1 $-1 $538 $258 #
plane-surface $-1 47.36106448561052 0 0 -1 0 0 0 0 1 forward_v I I I I #
coedge $-1 $539 $540 $541 $542 reversed $259 $-1 #
coedge $-1 $543 $261 $263 $397 forward $163 $-1 #
coedge $-1 $261 $543 $539 $544 forward $163 $-1 #
coedge $-1 $541 $264 $261 $394 forward $399 $-1 #
edge $-1 $401 -13.659390761893683 $545 -7.6439036158591307 $393 $546 forward 7 unknown #
coedge $-1 $547 $548 $262 $396 forward $388 $-1 #
edge $-1 $549 -65.042529998475302 $400 -59.888316493544913 $395 $550 forward 7 unknown #
edge $-1 $401 86.15768102393767 $549 94.722128971221025 $263 $551 forward 7 unknown #
coedge $-1 $264 $541 $547 $552 forward $399 $-1 #
loop $-1 $-1 $541 $387 #
vertex $-1 $396 $553 #
vertex $-1 $265 $554 #
straight-curve $-1 14.358905103620028 24.311037950770089 7.7228097093573709 -1 0 0 I I #
coedge $-1 $403 $403 $-1 $555 reversed $268 $-1 #
edge $-1 $556 0 $556 6.2831853071796004 $269 $557 forward 7 unknown #
vertex $-1 $272 $558 #
ellipse-curve $-1 43.941128382869714 20.014261417888271 5.1457029568921806 0.6018150307709319 0 0.79863550430605224 0.39931775215302612 0 -0.30090751538546595 1 I I #
coedge $-1 $407 $407 $-1 $559 reversed $275 $-1 #
edge $-1 $560 0 $560 6.2831853071796004 $276 $561 forward 7 unknown #
vertex $-1 $279 $562 #
ellipse-curve $-1 43.941128382869714 22.592327337617355 5.1457029568921806 0.6018150307709319 0 0.79863550430605224 0.39931775215302612 0 -0.30090751538546595 1 I I #
face $-1 $-1 $295 $42 $-1 $563 reversed single #
loop $-1 $-1 $427 $280 #
plane-surface $-1 0 26.873107676498201 0 0 -1 0 0 0 -1 forward_v I I I I #
coedge $-1 $564 $425 $428 $565 forward $281 $-1 #
coedge $-1 $431 $283 $284 $419 reversed $177 $-1 #
coedge $-1 $425 $564 $283 $417 reversed $281 $-1 #
edge $-1 $432 -7.7228097093573709 $566 7.7228097093573709 $416 $567 forward 7 unknown #
coedge $-1 $285 $284 $564 $568 forward $113 $-1 #
edge $-1 $423 -47.36106448561052 $566 47.36106448561052 $415 $569 forward 7 unknown #
coedge $-1 $428 $427 $285 $421 reversed $412 $-1 #
edge $-1 $570 -47.36106448561052 $422 47.36106448561052 $420 $571 forward 7 unknown #
vertex $-1 $287 $572 #
vertex $-1 $434 $573 #
straight-curve $-1 47.36106448561052 0 -7.7228097093573709 0 -1 0 I I #
coedge $-1 $414 $416 $288 $426 reversed $281 $-1 #
edge $-1 $429 -26.873107676498201 $432 26.873107676498201 $425 $574 forward 7 unknown #
coedge $-1 $420 $289 $294 $435 forward $412 $-1 #
coedge $-1 $289 $420 $414 $565 reversed $412 $-1 #
vertex $-1 $290 $575 #
straight-curve $-1 0 26.873107676498201 7.7228097093573709 -1 0 0 I I #
coedge $-1 $291 $415 $293 $434 reversed $177 $-1 #
vertex $-1 $426 $576 #
straight-curve $-1 0 -26.873107676498201 7.7228097093573709 1 0 0 I I #
edge $-1 $296 -7.7228097093573709 $423 7.7228097093573709 $293 $577 forward 7 unknown #
edge $-1 $297 -7.7228097093573709 $422 7.7228097093573709 $294 $578 forward 7 unknown #
point $-1 47.36106448561052 -26.873107676498201 7.7228097093573709 #
point $-1 47.36106448561052 26.873107676498201 7.7228097093573709 #
face $-1 $-1 $579 $43 $-1 $580 reversed single #
loop $-1 $-1 $309 $299 #
plane-surface $-1 0 -26.873107676498201 0 0 1 0 0 0 1 forward_v I I I I #
coedge $-1 $581 $302 $445 $582 forward $185 $-1 #
coedge $-1 $302 $581 $583 $584 forward $185 $-1 #
edge $-1 $585 -47.36106448561052 $446 47.36106448561052 $302 $586 forward 7 unknown #
coedge $-1 $304 $303 $587 $588 reversed $117 $-1 #
coedge $-1 $305 $311 $441 $582 reversed $300 $-1 #
vertex $-1 $582 $589 #
straight-curve $-1 47.36106448561052 -17.520548722759209 -2.7215085254809726 0 0 1 I I #
coedge $-1 $587 $590 $307 $449 forward $579 $-1 #
edge $-1 $454 -15.774693576683848 $450 -6.4221346229448564 $448 $591 forward 7 unknown #
vertex $-1 $449 $592 #
straight-curve $-1 0 -17.520548722759209 -3.1632243925665193 -1 0 0 I I #
coedge $-1 $593 $309 $590 $594 forward $439 $-1 #
coedge $-1 $309 $593 $311 $456 reversed $439 $-1 #
vertex $-1 $594 $595 #
straight-curve $-1 0 -26.873107676498201 -3.1632243925665193 -1 0 0 I I #
edge $-1 $313 3.1632243925665193 $596 7.7228097093573709 $311 $597 forward 7 unknown #
point $-1 47.36106448561052 -17.520548722759209 -3.1632243925665193 #
point $-1 47.36106448561052 -26.873107676498201 -3.1632243925665193 #
plane-surface $-1 0 0 7.7228097093573709 0 0 1 1 0 0 forward_v I I I I #
coedge $-1 $470 $469 $462 $598 forward $316 $-1 #
coedge $-1 $462 $318 $320 $466 reversed $193 $-1 #
coedge $-1 $318 $461 $460 $598 reversed $193 $-1 #
coedge $-1 $326 $321 $318 $464 forward $327 $-1 #
edge $-1 $467 26.162287176508908 $599 33.002159381990495 $463 $600 forward 7 unknown #
coedge $-1 $320 $319 $470 $601 reversed $121 $-1 #
edge $-1 $602 -94.722128971221025 $467 -86.15768102393767 $461 $603 forward 7 unknown #
vertex $-1 $322 $604 #
straight-curve $-1 40.521192280128929 -5.9959739608451201 7.7228097093573709 0 -1 0 I I #
coedge $-1 $460 $323 $326 $474 reversed $316 $-1 #
coedge $-1 $323 $460 $465 $601 forward $316 $-1 #
vertex $-1 $324 $605 #
straight-curve $-1 47.36106448561052 -8.9842043486729644 67.611126202902284 0 0 1 I I #
straight-curve $-1 -28.287390754263505 -8.9842043486729644 59.573797165930543 0.79863550430605224 0 -0.6018150307709319 I I #
edge $-1 $599 -14.999691494707516 $328 -8.9842043486729644 $469 $606 forward 7 unknown #
point $-1 47.36106448561052 -8.9842043486729644 7.7228097093573709 #
point $-1 40.521192280128936 -8.9842043486729644 7.7228097093573638 #
edge $-1 $607 1 $607 0 $331 $-1 forward 7 unknown #
vertex $-1 $332 $608 #
ellipse-curve $-1 43.035393731087318 -13.280980881554788 3.9437525013392909 0.6018150307709319 0 0.79863550430605224 0.39931775215302612 0 -0.30090751538546595 1 I I #
point $-1 44.340446135022724 -13.280980881554788 4.8447954415066921 #
edge $-1 $609 1 $609 0 $335 $-1 forward 7 unknown #
vertex $-1 $336 $610 #
ellipse-curve $-1 43.035393731087318 -10.702914961825694 3.9437525013392909 0.6018150307709319 0 0.79863550430605224 0.39931775215302612 0 -0.30090751538546595 1 I I #
point $-1 44.340446135022724 -10.702914961825694 4.8447954415066921 #
plane-surface $-1 0 0 7.7228097093573709 0 0 1 1 0 0 forward_v I I I I #
coedge $-1 $496 $495 $488 $611 forward $340 $-1 #
coedge $-1 $488 $342 $344 $492 reversed $215 $-1 #
coedge $-1 $342 $487 $486 $611 reversed $215 $-1 #
coedge $-1 $350 $345 $342 $490 forward $351 $-1 #
edge $-1 $493 26.162287176508908 $612 33.002159381990495 $489 $613 forward 7 unknown #
coedge $-1 $344 $343 $496 $614 reversed $135 $-1 #
edge $-1 $615 -94.722128971221025 $493 -86.15768102393767 $487 $616 forward 7 unknown #
vertex $-1 $346 $617 #
straight-curve $-1 40.521192280128929 -0.44676691093794396 7.7228097093573709 0 -1 0 I I #
coedge $-1 $486 $347 $350 $500 reversed $340 $-1 #
coedge $-1 $347 $486 $491 $614 forward $340 $-1 #
vertex $-1 $348 $618 #
straight-curve $-1 47.36106448561052 2.1142097511413889 67.611126202902284 0 0 1 I I #
straight-curve $-1 -28.287390754263505 2.1142097511413889 59.573797165930543 0.79863550430605224 0 -0.6018150307709319 I I #
edge $-1 $612 -3.9012773948931647 $352 2.1142097511413889 $495 $619 forward 7 unknown #
point $-1 47.36106448561052 2.1142097511413889 7.7228097093573709 #
point $-1 40.521192280128936 2.1142097511413889 7.7228097093573638 #
edge $-1 $620 1 $620 0 $355 $-1 forward 7 unknown #
vertex $-1 $356 $621 #
ellipse-curve $-1 43.035393731087318 -2.1825667817404337 3.9437525013392909 0.6018150307709319 0 0.79863550430605224 0.39931775215302612 0 -0.30090751538546595 1 I I #
point $-1 44.340446135022724 -2.1825667817404337 4.8447954415066921 #
edge $-1 $622 1 $622 0 $359 $-1 forward 7 unknown #
vertex $-1 $360 $623 #
ellipse-curve $-1 43.035393731087318 0.39549913798865788 3.9437525013392909 0.6018150307709319 0 0.79863550430605224 0.39931775215302612 0 -0.30090751538546595 1 I I #
point $-1 44.340446135022724 0.39549913798865788 4.8447954415066921 #
plane-surface $-1 0 0 7.7228097093573709 0 0 1 1 0 0 forward_v I I I I #
coedge $-1 $522 $521 $514 $624 forward $364 $-1 #
coedge $-1 $514 $366 $368 $518 reversed $237 $-1 #
coedge $-1 $366 $513 $512 $624 reversed $237 $-1 #
coedge $-1 $374 $369 $366 $516 forward $375 $-1 #
edge $-1 $519 26.162287176508908 $625 33.002159381990495 $515 $626 forward 7 unknown #
coedge $-1 $368 $367 $522 $627 reversed $149 $-1 #
edge $-1 $628 -94.722128971221025 $519 -86.15768102393767 $513 $629 forward 7 unknown #
vertex $-1 $370 $630 #
straight-curve $-1 40.521192280128929 5.1024401389692322 7.7228097093573709 0 -1 0 I I #
coedge $-1 $512 $371 $374 $526 reversed $364 $-1 #
coedge $-1 $371 $512 $517 $627 forward $364 $-1 #
vertex $-1 $372 $631 #
straight-curve $-1 47.36106448561052 13.21262385095574 67.611126202902284 0 0 1 I I #
straight-curve $-1 -28.287390754263505 13.21262385095574 59.573797165930543 0.79863550430605224 0 -0.6018150307709319 I I #
edge $-1 $625 7.1971367049211876 $376 13.21262385095574 $521 $632 forward 7 unknown #
point $-1 47.36106448561052 13.21262385095574 7.7228097093573709 #
point $-1 40.521192280128936 13.21262385095574 7.7228097093573638 #
edge $-1 $633 1 $633 0 $379 $-1 forward 7 unknown #
vertex $-1 $380 $634 #
ellipse-curve $-1 43.035393731087318 8.9158473180739222 3.9437525013392909 0.6018150307709319 0 0.79863550430605224 0.39931775215302612 0 -0.30090751538546595 1 I I #
point $-1 44.340446135022724 8.9158473180739222 4.8447954415066921 #
edge $-1 $635 1 $635 0 $383 $-1 forward 7 unknown #
vertex $-1 $384 $636 #
ellipse-curve $-1 43.035393731087318 11.493913237803007 3.9437525013392909 0.6018150307709319 0 0.79863550430605224 0.39931775215302612 0 -0.30090751538546595 1 I I #
point $-1 44.340446135022724 11.493913237803007 4.8447954415066921 #
plane-surface $-1 0 0 7.7228097093573709 0 0 1 1 0 0 forward_v I I I I #
coedge $-1 $548 $547 $540 $637 forward $388 $-1 #
coedge $-1 $540 $390 $392 $544 reversed $259 $-1 #
coedge $-1 $390 $539 $538 $637 reversed $259 $-1 #
coedge $-1 $398 $393 $390 $542 forward $399 $-1 #
edge $-1 $545 26.162287176508908 $638 33.002159381990495 $541 $639 forward 7 unknown #
coedge $-1 $392 $391 $548 $640 reversed $163 $-1 #
edge $-1 $641 -94.722128971221025 $545 -86.15768102393767 $539 $642 forward 7 unknown #
vertex $-1 $394 $643 #
straight-curve $-1 40.521192280128929 10.651647188876407 7.7228097093573709 0 -1 0 I I #
coedge $-1 $538 $395 $398 $552 reversed $388 $-1 #
coedge $-1 $395 $538 $543 $640 forward $388 $-1 #
vertex $-1 $396 $644 #
straight-curve $-1 47.36106448561052 24.311037950770089 67.611126202902284 0 0 1 I I #
straight-curve $-1 -28.287390754263505 24.311037950770089 59.573797165930543 0.79863550430605224 0 -0.6018150307709319 I I #
edge $-1 $638 18.295550804735537 $400 24.311037950770089 $547 $645 forward 7 unknown #
point $-1 47.36106448561052 24.311037950770089 7.7228097093573709 #
point $-1 40.521192280128936 24.311037950770089 7.7228097093573638 #
edge $-1 $646 1 $646 0 $403 $-1 forward 7 unknown #
vertex $-1 $404 $647 #
ellipse-curve $-1 43.035393731087318 20.014261417888271 3.9437525013392909 0.6018150307709319 0 0.79863550430605224 0.39931775215302612 0 -0.30090751538546595 1 I I #
point $-1 44.340446135022724 20.014261417888271 4.8447954415066921 #
edge $-1 $648 1 $648 0 $407 $-1 forward 7 unknown #
vertex $-1 $408 $649 #
ellipse-curve $-1 43.035393731087318 22.592327337617355 3.9437525013392909 0.6018150307709319 0 0.79863550430605224 0.39931775215302612 0 -0.30090751538546595 1 I I #
point $-1 44.340446135022724 22.592327337617355 4.8447954415066921 #
plane-surface $-1 47.36106448561052 0 0 -1 0 0 0 0 1 forward_v I I I I #
coedge $-1 $416 $414 $418 $568 reversed $281 $-1 #
edge $-1 $429 -7.7228097093573709 $570 7.7228097093573709 $428 $650 forward 7 unknown #
vertex $-1 $568 $651 #
straight-curve $-1 -47.36106448561052 -26.873107676498201 0 0 0 -1 I I #
edge $-1 $566 -26.873107676498201 $570 26.873107676498201 $564 $652 forward 7 unknown #
straight-curve $-1 0 -26.873107676498201 -7.7228097093573709 -1 0 0 I I #
vertex $-1 $421 $653 #
straight-curve $-1 0 26.873107676498201 -7.7228097093573709 1 0 0 I I #
point $-1 47.36106448561052 26.873107676498201 -7.7228097093573709 #
point $-1 47.36106448561052 -26.873107676498201 -7.7228097093573709 #
straight-curve $-1 -47.36106448561052 0 7.7228097093573709 0 -1 0 I I #
point $-1 -47.36106448561052 26.873107676498201 7.7228097093573709 #
point $-1 -47.36106448561052 -26.873107676498201 7.7228097093573709 #
straight-curve $-1 47.36106448561052 -26.873107676498201 0 0 0 -1 I I #
straight-curve $-1 47.36106448561052 26.873107676498201 0 0 0 -1 I I #
loop $-1 $-1 $587 $438 #
plane-surface $-1 -47.36106448561052 0 0 1 0 0 0 0 -1 forward_v I I I I #
coedge $-1 $442 $441 $593 $654 forward $185 $-1 #
edge $-1 $446 17.520548722759209 $596 26.873107676498201 $445 $655 forward 7 unknown #
coedge $-1 $590 $587 $442 $584 reversed $579 $-1 #
edge $-1 $656 -26.873107676498201 $585 -17.520548722759209 $583 $657 forward 7 unknown #
vertex $-1 $588 $658 #
straight-curve $-1 0 -17.520548722759209 -7.7228097093573709 1 0 0 I I #
coedge $-1 $583 $448 $444 $588 forward $579 $-1 #
edge $-1 $450 0.44171586708554678 $585 5.0013011838763983 $587 $659 forward 7 unknown #
point $-1 47.36106448561052 -17.520548722759209 -7.7228097093573709 #
coedge $-1 $448 $583 $452 $594 reversed $579 $-1 #
straight-curve $-1 -47.36106448561052 -11.098414099814352 -3.1632243925665193 0 1 0 I I #
point $-1 -47.36106448561052 -17.520548722759209 -3.1632243925665193 #
coedge $-1 $453 $452 $581 $654 reversed $439 $-1 #
edge $-1 $454 3.1632243925665193 $656 7.7228097093573709 $590 $660 forward 7 unknown #
point $-1 -47.36106448561052 -26.873107676498201 -3.1632243925665193 #
vertex $-1 $456 $661 #
straight-curve $-1 47.36106448561052 -26.873107676498201 0 0 0 -1 I I #
edge $-1 $599 59.888316493544913 $602 65.042529998475302 $460 $662 forward 7 unknown #
vertex $-1 $474 $663 #
straight-curve $-1 14.358905103620028 -14.999691494707516 7.7228097093573709 1 0 0 I I #
edge $-1 $602 -9.003717533862396 $471 -2.9882303878278442 $470 $664 forward 7 unknown #
vertex $-1 $601 $665 #
straight-curve $-1 -28.287390754263505 -14.999691494707516 59.573797165930543 -0.79863550430605224 0 0.6018150307709319 I I #
point $-1 40.521192280128936 -14.999691494707516 7.7228097093573638 #
point $-1 47.36106448561052 -8.9842043486729644 2.5685962044269814 #
straight-curve $-1 47.36106448561052 0 7.7228097093573709 0 1 0 I I #
vertex $-1 $477 $666 #
point $-1 43.434711483240349 -13.280980881554788 3.642844985953825 #
vertex $-1 $481 $667 #
point $-1 43.434711483240349 -10.702914961825694 3.642844985953825 #
edge $-1 $612 59.888316493544913 $615 65.042529998475302 $486 $668 forward 7 unknown #
vertex $-1 $500 $669 #
straight-curve $-1 14.358905103620028 -3.9012773948931647 7.7228097093573709 1 0 0 I I #
edge $-1 $615 -3.4545104839552208 $497 2.5609766620793328 $496 $670 forward 7 unknown #
vertex $-1 $614 $671 #
straight-curve $-1 -28.287390754263505 -3.9012773948931647 59.573797165930543 -0.79863550430605224 0 0.6018150307709319 I I #
point $-1 40.521192280128936 -3.9012773948931647 7.7228097093573638 #
point $-1 47.36106448561052 2.1142097511413889 2.5685962044269814 #
straight-curve $-1 47.36106448561052 0 7.7228097093573709 0 1 0 I I #
vertex $-1 $503 $672 #
point $-1 43.434711483240349 -2.1825667817404337 3.642844985953825 #
vertex $-1 $507 $673 #
point $-1 43.434711483240349 0.39549913798865788 3.642844985953825 #
edge $-1 $625 59.888316493544913 $628 65.042529998475302 $512 $674 forward 7 unknown #
vertex $-1 $526 $675 #
straight-curve $-1 14.358905103620028 7.1971367049211876 7.7228097093573709 1 0 0 I I #
edge $-1 $628 2.0946965659519554 $523 8.1101837119865081 $522 $676 forward 7 unknown #
vertex $-1 $627 $677 #
straight-curve $-1 -28.287390754263505 7.1971367049211876 59.573797165930543 -0.79863550430605224 0 0.6018150307709319 I I #
point $-1 40.521192280128936 7.1971367049211876 7.7228097093573638 #
point $-1 47.36106448561052 13.21262385095574 2.5685962044269814 #
straight-curve $-1 47.36106448561052 0 7.7228097093573709 0 1 0 I I #
vertex $-1 $529 $678 #
point $-1 43.434711483240349 8.9158473180739222 3.642844985953825 #
vertex $-1 $533 $679 #
point $-1 43.434711483240349 11.493913237803007 3.642844985953825 #
edge $-1 $638 59.888316493544913 $641 65.042529998475302 $538 $680 forward 7 unknown #
vertex $-1 $552 $681 #
straight-curve $-1 14.358905103620028 18.295550804735537 7.7228097093573709 1 0 0 I I #
edge $-1 $641 7.6439036158591307 $549 13.659390761893683 $548 $682 forward 7 unknown #
vertex $-1 $640 $683 #
straight-curve $-1 -28.287390754263505 18.295550804735537 59.573797165930543 -0.79863550430605224 0 0.6018150307709319 I I #
point $-1 40.521192280128936 18.295550804735537 7.7228097093573638 #
point $-1 47.36106448561052 24.311037950770089 2.5685962044269814 #
straight-curve $-1 47.36106448561052 0 7.7228097093573709 0 1 0 I I #
vertex $-1 $555 $684 #
point $-1 43.434711483240349 20.014261417888271 3.642844985953825 #
vertex $-1 $559 $685 #
point $-1 43.434711483240349 22.592327337617355 3.642844985953825 #
straight-curve $-1 -47.36106448561052 26.873107676498201 0 0 0 -1 I I #
point $-1 -47.36106448561052 -26.873107676498201 -7.7228097093573709 #
straight-curve $-1 -47.36106448561052 0 -7.7228097093573709 0 1 0 I I #
point $-1 -47.36106448561052 26.873107676498201 -7.7228097093573709 #
edge $-1 $596 -47.36106448561052 $656 47.36106448561052 $593 $686 forward 7 unknown #
straight-curve $-1 47.36106448561052 0 -7.7228097093573709 0 -1 0 I I #
vertex $-1 $584 $687 #
straight-curve $-1 -47.36106448561052 0 -7.7228097093573709 0 1 0 I I #
point $-1 -47.36106448561052 -17.520548722759209 -7.7228097093573709 #
straight-curve $-1 -47.36106448561052 -17.520548722759209 -2.7215085254809726 0 0 -1 I I #
straight-curve $-1 -47.36106448561052 -26.873107676498201 0 0 0 -1 I I #
point $-1 47.36106448561052 -26.873107676498201 -7.7228097093573709 #
straight-curve $-1 47.36106448561052 -14.999691494707516 67.611126202902284 0 0 -1 I I #
point $-1 47.36106448561052 -14.999691494707516 7.7228097093573709 #
straight-curve $-1 47.36106448561052 -5.9959739608451201 2.568596204426985 0 1 0 I I #
point $-1 47.36106448561052 -14.999691494707516 2.5685962044269814 #
point $-1 42.734486215701857 -13.280980881554788 3.5444347491862649 #
point $-1 42.734486215701857 -10.702914961825694 3.5444347491862649 #
straight-curve $-1 47.36106448561052 -3.9012773948931647 67.611126202902284 0 0 -1 I I #
point $-1 47.36106448561052 -3.9012773948931647 7.7228097093573709 #
straight-curve $-1 47.36106448561052 -0.44676691093794396 2.568596204426985 0 1 0 I I #
point $-1 47.36106448561052 -3.9012773948931647 2.5685962044269814 #
point $-1 42.734486215701857 -2.1825667817404337 3.5444347491862649 #
point $-1 42.734486215701857 0.39549913798865788 3.5444347491862649 #
straight-curve $-1 47.36106448561052 7.1971367049211876 67.611126202902284 0 0 -1 I I #
point $-1 47.36106448561052 7.1971367049211876 7.7228097093573709 #
straight-curve $-1 47.36106448561052 5.1024401389692322 2.568596204426985 0 1 0 I I #
point $-1 47.36106448561052 7.1971367049211876 2.5685962044269814 #
point $-1 42.734486215701857 8.9158473180739222 3.5444347491862649 #
point $-1 42.734486215701857 11.493913237803007 3.5444347491862649 #
straight-curve $-1 47.36106448561052 18.295550804735537 67.611126202902284 0 0 -1 I I #
point $-1 47.36106448561052 18.295550804735537 7.7228097093573709 #
straight-curve $-1 47.36106448561052 10.651647188876407 2.568596204426985 0 1 0 I I #
point $-1 47.36106448561052 18.295550804735537 2.5685962044269814 #
point $-1 42.734486215701857 20.014261417888271 3.5444347491862649 #
point $-1 42.734486215701857 22.592327337617355 3.5444347491862649 #
straight-curve $-1 0 -26.873107676498201 -7.7228097093573709 -1 0 0 I I #
point $-1 -47.36106448561052 -26.873107676498201 -7.7228097093573709 #
End-of-ACIS-data 