500 0 17 0           
7 Unknown 11 ACIS 5.0 NT 24 Fri Mar 26 19:25:10 1999 
-1 9.9999999999999995e-007 1e-010 
body $-1 $17 $-1 $18 #
body $-1 $19 $-1 $20 #
body $-1 $21 $-1 $22 #
body $-1 $23 $-1 $24 #
body $-1 $25 $-1 $26 #
body $-1 $27 $-1 $28 #
body $-1 $29 $-1 $30 #
body $-1 $31 $-1 $32 #
body $-1 $33 $-1 $34 #
body $-1 $35 $-1 $36 #
body $-1 $37 $-1 $38 #
body $-1 $39 $-1 $40 #
body $-1 $41 $-1 $42 #
body $-1 $43 $-1 $44 #
body $-1 $45 $-1 $46 #
body $-1 $47 $-1 $48 #
body $-1 $49 $-1 $50 #
lump $-1 $-1 $51 $0 #
transform $-1 1 0 0 0 1 0 0 0 1 44.730368968779565 27.285566024081209 7.0951464982507995 1 rotate no_reflect no_shear #
lump $-1 $-1 $52 $1 #
transform $-1 1 0 0 0 1 0 0 0 1 44.730368968779565 27.285566024081209 7.0951464982507995 1 rotate no_reflect no_shear #
lump $-1 $-1 $53 $2 #
transform $-1 1 0 0 0 1 0 0 0 1 44.730368968779565 27.285566024081209 7.0951464982507995 1 rotate no_reflect no_shear #
lump $-1 $-1 $54 $3 #
transform $-1 1 0 0 0 1 0 0 0 1 44.730368968779565 27.285566024081209 7.0951464982507995 1 rotate no_reflect no_shear #
lump $-1 $-1 $55 $4 #
transform $-1 1 0 0 0 1 0 0 0 1 44.730368968779565 27.285566024081209 7.0951464982507995 1 rotate no_reflect no_shear #
lump $-1 $-1 $56 $5 #
transform $-1 1 0 0 0 1 0 0 0 1 44.730368968779565 27.285566024081209 7.0951464982507995 1 rotate no_reflect no_shear #
lump $-1 $-1 $57 $6 #
transform $-1 1 0 0 0 1 0 0 0 1 44.730368968779565 27.285566024081209 7.0951464982507995 1 rotate no_reflect no_shear #
lump $-1 $-1 $58 $7 #
transform $-1 1 0 0 0 1 0 0 0 1 44.730368968779565 27.285566024081209 7.0951464982507995 1 rotate no_reflect no_shear #
lump $-1 $-1 $59 $8 #
transform $-1 1 0 0 0 1 0 0 0 1 44.730368968779565 27.285566024081209 7.0951464982507995 1 rotate no_reflect no_shear #
lump $-1 $-1 $60 $9 #
transform $-1 1 0 0 0 1 0 0 0 1 44.730368968779565 27.285566024081209 7.0951464982507995 1 rotate no_reflect no_shear #
lump $-1 $-1 $61 $10 #
transform $-1 1 0 0 0 1 0 0 0 1 44.730368968779565 27.285566024081209 7.0951464982507995 1 rotate no_reflect no_shear #
lump $-1 $-1 $62 $11 #
transform $-1 1 0 0 0 1 0 0 0 1 44.730368968779565 27.285566024081209 7.0951464982507995 1 rotate no_reflect no_shear #
lump $-1 $-1 $63 $12 #
transform $-1 1 0 0 0 1 0 0 0 1 44.730368968779565 27.285566024081209 7.0951464982507995 1 rotate no_reflect no_shear #
lump $-1 $-1 $64 $13 #
transform $-1 1 0 0 0 1 0 0 0 1 44.730368968779565 27.285566024081209 7.0951464982507995 1 rotate no_reflect no_shear #
lump $-1 $-1 $65 $14 #
transform $-1 1 0 0 0 1 0 0 0 1 44.730368968779565 27.285566024081209 7.0951464982507995 1 rotate no_reflect no_shear #
lump $-1 $-1 $66 $15 #
transform $-1 1 0 0 0 1 0 0 0 1 44.730368968779565 27.285566024081209 7.0951464982507995 1 rotate no_reflect no_shear #
lump $-1 $-1 $67 $16 #
transform $-1 1 0 0 0 1 0 0 0 1 44.730368968779565 27.285566024081209 7.0951464982507995 1 rotate no_reflect no_shear #
shell $-1 $-1 $-1 $68 $-1 $17 #
shell $-1 $-1 $-1 $69 $-1 $19 #
shell $-1 $-1 $-1 $70 $-1 $21 #
shell $-1 $-1 $-1 $71 $-1 $23 #
shell $-1 $-1 $-1 $72 $-1 $25 #
shell $-1 $-1 $-1 $73 $-1 $27 #
shell $-1 $-1 $-1 $74 $-1 $29 #
shell $-1 $-1 $-1 $75 $-1 $31 #
shell $-1 $-1 $-1 $76 $-1 $33 #
shell $-1 $-1 $-1 $77 $-1 $35 #
shell $-1 $-1 $-1 $78 $-1 $37 #
shell $-1 $-1 $-1 $79 $-1 $39 #
shell $-1 $-1 $-1 $80 $-1 $41 #
shell $-1 $-1 $-1 $81 $-1 $43 #
shell $-1 $-1 $-1 $82 $-1 $45 #
shell $-1 $-1 $-1 $83 $-1 $47 #
shell $-1 $-1 $-1 $84 $-1 $49 #
face $-1 $85 $86 $51 $-1 $87 forward single #
face $-1 $88 $89 $52 $-1 $90 reversed single #
face $-1 $91 $92 $53 $-1 $93 forward single #
face $-1 $94 $95 $54 $-1 $96 forward single #
face $-1 $97 $98 $55 $-1 $99 forward single #
face $-1 $100 $101 $56 $-1 $102 reversed single #
face $-1 $103 $104 $57 $-1 $105 forward single #
face $-1 $106 $107 $58 $-1 $108 forward single #
face $-1 $109 $110 $59 $-1 $111 forward single #
face $-1 $112 $113 $60 $-1 $114 reversed single #
face $-1 $115 $116 $61 $-1 $117 forward single #
face $-1 $118 $119 $62 $-1 $120 forward single #
face $-1 $121 $122 $63 $-1 $123 forward single #
face $-1 $124 $125 $64 $-1 $126 reversed single #
face $-1 $127 $128 $65 $-1 $129 forward single #
face $-1 $130 $131 $66 $-1 $132 forward single #
face $-1 $133 $134 $67 $-1 $135 forward single #
face $-1 $136 $137 $51 $-1 $138 reversed single #
loop $-1 $-1 $139 $68 #
plane-surface $-1 0 0 7.0951464982507995 0 0 1 1 0 0 forward_v I I I I #
face $-1 $140 $141 $52 $-1 $142 reversed single #
loop $-1 $-1 $143 $69 #
plane-surface $-1 -32.389076290758993 48.386844300516927 106.72713795809777 -1 0 0 0 0.68199836817093118 0.7313536940579346 forward_v I I I I #
face $-1 $144 $145 $53 $-1 $146 forward single #
loop $-1 $147 $148 $70 #
cone-surface $-1 -42.262110433175451 25.028209830719721 4.9003555913550274 0 -0.68199836817093118 -0.7313536940579346 1 0 0 1 I I 0 1 1 forward I I I I #
face $-1 $149 $150 $54 $-1 $151 forward single #
loop $-1 $152 $153 $71 #
cone-surface $-1 -38.559722629769283 25.028209830719721 4.9003555913550274 0 -0.68199836817093118 -0.7313536940579346 1 0 0 1 I I 0 1 1 forward I I I I #
face $-1 $154 $155 $55 $-1 $156 forward single #
loop $-1 $157 $158 $72 #
cone-surface $-1 -34.857334826363108 25.028209830719721 4.9003555913550274 0 -0.68199836817093118 -0.7313536940579346 1 0 0 1 I I 0 1 1 forward I I I I #
face $-1 $159 $160 $56 $-1 $161 reversed single #
loop $-1 $-1 $162 $73 #
plane-surface $-1 -10.02389180636921 48.386844300516927 106.72713795809777 -1 0 0 0 0.68199836817093118 0.7313536940579346 forward_v I I I I #
face $-1 $163 $164 $57 $-1 $165 forward single #
loop $-1 $166 $167 $74 #
cone-surface $-1 -19.896925948785668 25.028209830719721 4.9003555913550274 0 -0.68199836817093118 -0.7313536940579346 1 0 0 1 I I 0 1 1 forward I I I I #
face $-1 $168 $169 $58 $-1 $170 forward single #
loop $-1 $171 $172 $75 #
cone-surface $-1 -16.194538145379497 25.028209830719721 4.9003555913550274 0 -0.68199836817093118 -0.7313536940579346 1 0 0 1 I I 0 1 1 forward I I I I #
face $-1 $173 $174 $59 $-1 $175 forward single #
loop $-1 $176 $177 $76 #
cone-surface $-1 -12.492150341973321 25.028209830719721 4.9003555913550274 0 -0.68199836817093118 -0.7313536940579346 1 0 0 1 I I 0 1 1 forward I I I I #
face $-1 $178 $179 $60 $-1 $180 reversed single #
loop $-1 $-1 $181 $77 #
plane-surface $-1 12.341292678020569 48.386844300516927 106.72713795809777 -1 0 0 0 0.68199836817093118 0.7313536940579346 forward_v I I I I #
face $-1 $182 $183 $61 $-1 $184 forward single #
loop $-1 $185 $186 $78 #
cone-surface $-1 2.4682585356041145 25.028209830719721 4.9003555913550274 0 -0.68199836817093118 -0.7313536940579346 1 0 0 1 I I 0 1 1 forward I I I I #
face $-1 $187 $188 $62 $-1 $189 forward single #
loop $-1 $190 $191 $79 #
cone-surface $-1 6.1706463390102826 25.028209830719721 4.9003555913550274 0 -0.68199836817093118 -0.7313536940579346 1 0 0 1 I I 0 1 1 forward I I I I #
face $-1 $192 $193 $63 $-1 $194 forward single #
loop $-1 $195 $196 $80 #
cone-surface $-1 9.8730341424164649 25.028209830719721 4.9003555913550274 0 -0.68199836817093118 -0.7313536940579346 1 0 0 1 I I 0 1 1 forward I I I I #
face $-1 $197 $198 $64 $-1 $199 reversed single #
loop $-1 $-1 $200 $81 #
plane-surface $-1 34.706477162410351 48.386844300516927 106.72713795809777 -1 0 0 0 0.68199836817093118 0.7313536940579346 forward_v I I I I #
face $-1 $201 $202 $65 $-1 $203 forward single #
loop $-1 $204 $205 $82 #
cone-surface $-1 24.833443019993901 25.028209830719721 4.9003555913550274 0 -0.68199836817093118 -0.7313536940579346 1 0 0 1 I I 0 1 1 forward I I I I #
face $-1 $206 $207 $66 $-1 $208 forward single #
loop $-1 $209 $210 $83 #
cone-surface $-1 28.535830823400069 25.028209830719721 4.9003555913550274 0 -0.68199836817093118 -0.7313536940579346 1 0 0 1 I I 0 1 1 forward I I I I #
face $-1 $211 $212 $67 $-1 $213 forward single #
loop $-1 $214 $215 $84 #
cone-surface $-1 32.238218626806251 25.028209830719721 4.9003555913550274 0 -0.68199836817093118 -0.7313536940579346 1 0 0 1 I I 0 1 1 forward I I I I #
face $-1 $216 $217 $51 $-1 $218 reversed single #
loop $-1 $-1 $219 $85 #
plane-surface $-1 0 0 -7.0951464982507995 0 0 1 1 0 0 forward_v I I I I #
coedge $-1 $220 $221 $222 $223 forward $86 $-1 #
face $-1 $224 $225 $52 $-1 $226 reversed single #
loop $-1 $-1 $227 $88 #
plane-surface $-1 -38.559722629769283 -12.625232988265715 41.299696794315082 0 0.68199836817093118 0.7313536940579346 1 0 0 forward_v I I I I #
coedge $-1 $228 $229 $230 $231 reversed $89 $-1 #
face $-1 $-1 $232 $53 $-1 $233 forward single #
loop $-1 $234 $235 $91 #
cone-surface $-1 -42.262110433175451 24.045309628122471 3.8463241924417337 0 -0.68199836817093118 -0.7313536940579346 0.5 0 0 1 I I -0.70710678118654746 0.70710678118654746 0.5 forward I I I I #
loop $-1 $-1 $236 $70 #
coedge $-1 $148 $148 $237 $238 reversed $92 $-1 #
face $-1 $-1 $239 $54 $-1 $240 forward single #
loop $-1 $241 $242 $94 #
cone-surface $-1 -38.559722629769283 24.045309628122471 3.8463241924417337 0 -0.68199836817093118 -0.7313536940579346 0.5 0 0 1 I I -0.70710678118654746 0.70710678118654746 0.5 forward I I I I #
loop $-1 $-1 $243 $71 #
coedge $-1 $153 $153 $244 $245 reversed $95 $-1 #
face $-1 $-1 $246 $55 $-1 $247 forward single #
loop $-1 $248 $249 $97 #
cone-surface $-1 -34.857334826363108 24.045309628122471 3.8463241924417337 0 -0.68199836817093118 -0.7313536940579346 0.5 0 0 1 I I -0.70710678118654746 0.70710678118654746 0.5 forward I I I I #
loop $-1 $-1 $250 $72 #
coedge $-1 $158 $158 $251 $252 reversed $98 $-1 #
face $-1 $253 $254 $56 $-1 $255 reversed single #
loop $-1 $-1 $256 $100 #
plane-surface $-1 -16.194538145379497 -12.625232988265715 41.299696794315082 0 0.68199836817093118 0.7313536940579346 1 0 0 forward_v I I I I #
coedge $-1 $257 $258 $259 $260 reversed $101 $-1 #
face $-1 $-1 $261 $57 $-1 $262 forward single #
loop $-1 $263 $264 $103 #
cone-surface $-1 -19.896925948785668 24.045309628122471 3.8463241924417337 0 -0.68199836817093118 -0.7313536940579346 0.5 0 0 1 I I -0.70710678118654746 0.70710678118654746 0.5 forward I I I I #
loop $-1 $-1 $265 $74 #
coedge $-1 $167 $167 $266 $267 reversed $104 $-1 #
face $-1 $-1 $268 $58 $-1 $269 forward single #
loop $-1 $270 $271 $106 #
cone-surface $-1 -16.194538145379497 24.045309628122471 3.8463241924417337 0 -0.68199836817093118 -0.7313536940579346 0.5 0 0 1 I I -0.70710678118654746 0.70710678118654746 0.5 forward I I I I #
loop $-1 $-1 $272 $75 #
coedge $-1 $172 $172 $273 $274 reversed $107 $-1 #
face $-1 $-1 $275 $59 $-1 $276 forward single #
loop $-1 $277 $278 $109 #
cone-surface $-1 -12.492150341973321 24.045309628122471 3.8463241924417337 0 -0.68199836817093118 -0.7313536940579346 0.5 0 0 1 I I -0.70710678118654746 0.70710678118654746 0.5 forward I I I I #
loop $-1 $-1 $279 $76 #
coedge $-1 $177 $177 $280 $281 reversed $110 $-1 #
face $-1 $282 $283 $60 $-1 $284 reversed single #
loop $-1 $-1 $285 $112 #
plane-surface $-1 6.1706463390102826 -12.625232988265715 41.299696794315082 0 0.68199836817093118 0.7313536940579346 1 0 0 forward_v I I I I #
coedge $-1 $286 $287 $288 $289 reversed $113 $-1 #
face $-1 $-1 $290 $61 $-1 $291 forward single #
loop $-1 $292 $293 $115 #
cone-surface $-1 2.4682585356041145 24.045309628122471 3.8463241924417337 0 -0.68199836817093118 -0.7313536940579346 0.5 0 0 1 I I -0.70710678118654746 0.70710678118654746 0.5 forward I I I I #
loop $-1 $-1 $294 $78 #
coedge $-1 $186 $186 $295 $296 reversed $116 $-1 #
face $-1 $-1 $297 $62 $-1 $298 forward single #
loop $-1 $299 $300 $118 #
cone-surface $-1 6.1706463390102826 24.045309628122471 3.8463241924417337 0 -0.68199836817093118 -0.7313536940579346 0.5 0 0 1 I I -0.70710678118654746 0.70710678118654746 0.5 forward I I I I #
loop $-1 $-1 $301 $79 #
coedge $-1 $191 $191 $302 $303 reversed $119 $-1 #
face $-1 $-1 $304 $63 $-1 $305 forward single #
loop $-1 $306 $307 $121 #
cone-surface $-1 9.8730341424164649 24.045309628122471 3.8463241924417337 0 -0.68199836817093118 -0.7313536940579346 0.5 0 0 1 I I -0.70710678118654746 0.70710678118654746 0.5 forward I I I I #
loop $-1 $-1 $308 $80 #
coedge $-1 $196 $196 $309 $310 reversed $122 $-1 #
face $-1 $311 $312 $64 $-1 $313 reversed single #
loop $-1 $-1 $314 $124 #
plane-surface $-1 28.535830823400069 -12.625232988265715 41.299696794315082 0 0.68199836817093118 0.7313536940579346 1 0 0 forward_v I I I I #
coedge $-1 $315 $316 $317 $318 reversed $125 $-1 #
face $-1 $-1 $319 $65 $-1 $320 forward single #
loop $-1 $321 $322 $127 #
cone-surface $-1 24.833443019993901 24.045309628122471 3.8463241924417337 0 -0.68199836817093118 -0.7313536940579346 0.5 0 0 1 I I -0.70710678118654746 0.70710678118654746 0.5 forward I I I I #
loop $-1 $-1 $323 $82 #
coedge $-1 $205 $205 $324 $325 reversed $128 $-1 #
face $-1 $-1 $326 $66 $-1 $327 forward single #
loop $-1 $328 $329 $130 #
cone-surface $-1 28.535830823400069 24.045309628122471 3.8463241924417337 0 -0.68199836817093118 -0.7313536940579346 0.5 0 0 1 I I -0.70710678118654746 0.70710678118654746 0.5 forward I I I I #
loop $-1 $-1 $330 $83 #
coedge $-1 $210 $210 $331 $332 reversed $131 $-1 #
face $-1 $-1 $333 $67 $-1 $334 forward single #
loop $-1 $335 $336 $133 #
cone-surface $-1 32.238218626806251 24.045309628122471 3.8463241924417337 0 -0.68199836817093118 -0.7313536940579346 0.5 0 0 1 I I -0.70710678118654746 0.70710678118654746 0.5 forward I I I I #
loop $-1 $-1 $337 $84 #
coedge $-1 $215 $215 $338 $339 reversed $134 $-1 #
face $-1 $340 $341 $51 $-1 $342 reversed single #
loop $-1 $-1 $343 $136 #
plane-surface $-1 0 -27.285566024081209 0 0 1 0 0 0 1 forward_v I I I I #
coedge $-1 $344 $345 $346 $347 forward $137 $-1 #
coedge $-1 $348 $139 $349 $350 forward $86 $-1 #
coedge $-1 $139 $348 $351 $352 forward $86 $-1 #
coedge $-1 $353 $354 $139 $223 reversed $355 $-1 #
edge $-1 $356 -27.285566024081209 $357 27.285566024081209 $222 $358 forward 7 unknown #
face $-1 $359 $360 $52 $-1 $361 forward single #
loop $-1 $-1 $230 $140 #
plane-surface $-1 0 27.285566024081209 0 0 -1 0 0 0 -1 forward_v I I I I #
coedge $-1 $362 $363 $364 $365 reversed $141 $-1 #
coedge $-1 $229 $143 $366 $367 reversed $89 $-1 #
coedge $-1 $143 $228 $362 $368 reversed $89 $-1 #
coedge $-1 $364 $369 $143 $231 forward $225 $-1 #
edge $-1 $370 46.268422480798087 $371 49.281295190820977 $230 $372 forward 7 unknown #
loop $-1 $-1 $237 $144 #
plane-surface $-1 -38.559722629769283 -12.625232988265715 41.299696794315082 0 0.68199836817093118 0.7313536940579346 1 0 0 forward_v I I I I #
loop $-1 $-1 $373 $91 #
coedge $-1 $235 $235 $236 $374 reversed $145 $-1 #
coedge $-1 $236 $236 $235 $374 forward $147 $-1 #
coedge $-1 $237 $237 $148 $238 forward $232 $-1 #
edge $-1 $375 -2.2475995901200739e-015 $375 6.2831853071795978 $237 $376 forward 7 unknown #
loop $-1 $-1 $244 $149 #
plane-surface $-1 -38.559722629769283 -12.625232988265715 41.299696794315082 0 0.68199836817093118 0.7313536940579346 1 0 0 forward_v I I I I #
loop $-1 $-1 $377 $94 #
coedge $-1 $242 $242 $243 $378 reversed $150 $-1 #
coedge $-1 $243 $243 $242 $378 forward $152 $-1 #
coedge $-1 $244 $244 $153 $245 forward $239 $-1 #
edge $-1 $379 -2.2475995901200739e-015 $379 6.2831853071795978 $244 $380 forward 7 unknown #
loop $-1 $-1 $251 $154 #
plane-surface $-1 -38.559722629769283 -12.625232988265715 41.299696794315082 0 0.68199836817093118 0.7313536940579346 1 0 0 forward_v I I I I #
loop $-1 $-1 $381 $97 #
coedge $-1 $249 $249 $250 $382 reversed $155 $-1 #
coedge $-1 $250 $250 $249 $382 forward $157 $-1 #
coedge $-1 $251 $251 $158 $252 forward $246 $-1 #
edge $-1 $383 -2.2475995901200739e-015 $383 6.2831853071795978 $251 $384 forward 7 unknown #
face $-1 $385 $386 $56 $-1 $387 forward single #
loop $-1 $-1 $388 $159 #
plane-surface $-1 -22.365184484389783 48.386844300516927 106.72713795809777 1 0 0 0 -0.68199836817093118 -0.7313536940579346 forward_v I I I I #
coedge $-1 $389 $390 $391 $392 reversed $160 $-1 #
coedge $-1 $258 $162 $393 $394 reversed $101 $-1 #
coedge $-1 $162 $257 $389 $395 reversed $101 $-1 #
coedge $-1 $391 $396 $162 $260 forward $397 $-1 #
edge $-1 $398 46.268422480798087 $399 49.281295190820977 $259 $400 forward 7 unknown #
loop $-1 $-1 $266 $163 #
plane-surface $-1 -16.194538145379497 -12.625232988265715 41.299696794315082 0 0.68199836817093118 0.7313536940579346 1 0 0 forward_v I I I I #
loop $-1 $-1 $401 $103 #
coedge $-1 $264 $264 $265 $402 reversed $164 $-1 #
coedge $-1 $265 $265 $264 $402 forward $166 $-1 #
coedge $-1 $266 $266 $167 $267 forward $261 $-1 #
edge $-1 $403 -2.2475995901200739e-015 $403 6.2831853071795978 $266 $404 forward 7 unknown #
loop $-1 $-1 $273 $168 #
plane-surface $-1 -16.194538145379497 -12.625232988265715 41.299696794315082 0 0.68199836817093118 0.7313536940579346 1 0 0 forward_v I I I I #
loop $-1 $-1 $405 $106 #
coedge $-1 $271 $271 $272 $406 reversed $169 $-1 #
coedge $-1 $272 $272 $271 $406 forward $171 $-1 #
coedge $-1 $273 $273 $172 $274 forward $268 $-1 #
edge $-1 $407 -2.2475995901200739e-015 $407 6.2831853071795978 $273 $408 forward 7 unknown #
loop $-1 $-1 $280 $173 #
plane-surface $-1 -16.194538145379497 -12.625232988265715 41.299696794315082 0 0.68199836817093118 0.7313536940579346 1 0 0 forward_v I I I I #
loop $-1 $-1 $409 $109 #
coedge $-1 $278 $278 $279 $410 reversed $174 $-1 #
coedge $-1 $279 $279 $278 $410 forward $176 $-1 #
coedge $-1 $280 $280 $177 $281 forward $275 $-1 #
edge $-1 $411 -2.2475995901200739e-015 $411 6.2831853071795978 $280 $412 forward 7 unknown #
face $-1 $413 $414 $60 $-1 $415 forward single #
loop $-1 $-1 $416 $178 #
plane-surface $-1 -3.5527136788005009e-015 48.386844300516927 106.72713795809777 1 0 0 0 -0.68199836817093118 -0.7313536940579346 forward_v I I I I #
coedge $-1 $417 $418 $419 $420 reversed $179 $-1 #
coedge $-1 $287 $181 $421 $422 reversed $113 $-1 #
coedge $-1 $181 $286 $417 $423 reversed $113 $-1 #
coedge $-1 $419 $424 $181 $289 forward $425 $-1 #
edge $-1 $426 46.268422480798087 $427 49.281295190820977 $288 $428 forward 7 unknown #
loop $-1 $-1 $295 $182 #
plane-surface $-1 6.1706463390102826 -12.625232988265715 41.299696794315082 0 0.68199836817093118 0.7313536940579346 1 0 0 forward_v I I I I #
loop $-1 $-1 $429 $115 #
coedge $-1 $293 $293 $294 $430 reversed $183 $-1 #
coedge $-1 $294 $294 $293 $430 forward $185 $-1 #
coedge $-1 $295 $295 $186 $296 forward $290 $-1 #
edge $-1 $431 -2.2475995901200739e-015 $431 6.2831853071795978 $295 $432 forward 7 unknown #
loop $-1 $-1 $302 $187 #
plane-surface $-1 6.1706463390102826 -12.625232988265715 41.299696794315082 0 0.68199836817093118 0.7313536940579346 1 0 0 forward_v I I I I #
loop $-1 $-1 $433 $118 #
coedge $-1 $300 $300 $301 $434 reversed $188 $-1 #
coedge $-1 $301 $301 $300 $434 forward $190 $-1 #
coedge $-1 $302 $302 $191 $303 forward $297 $-1 #
edge $-1 $435 -2.2475995901200739e-015 $435 6.2831853071795978 $302 $436 forward 7 unknown #
loop $-1 $-1 $309 $192 #
plane-surface $-1 6.1706463390102826 -12.625232988265715 41.299696794315082 0 0.68199836817093118 0.7313536940579346 1 0 0 forward_v I I I I #
loop $-1 $-1 $437 $121 #
coedge $-1 $307 $307 $308 $438 reversed $193 $-1 #
coedge $-1 $308 $308 $307 $438 forward $195 $-1 #
coedge $-1 $309 $309 $196 $310 forward $304 $-1 #
edge $-1 $439 -2.2475995901200739e-015 $439 6.2831853071795978 $309 $440 forward 7 unknown #
face $-1 $441 $442 $64 $-1 $443 forward single #
loop $-1 $-1 $444 $197 #
plane-surface $-1 22.365184484389783 48.386844300516927 106.72713795809777 1 0 0 0 -0.68199836817093118 -0.7313536940579346 forward_v I I I I #
coedge $-1 $445 $446 $447 $448 reversed $198 $-1 #
coedge $-1 $316 $200 $449 $450 reversed $125 $-1 #
coedge $-1 $200 $315 $445 $451 reversed $125 $-1 #
coedge $-1 $447 $452 $200 $318 forward $453 $-1 #
edge $-1 $454 46.268422480798087 $455 49.281295190820977 $317 $456 forward 7 unknown #
loop $-1 $-1 $324 $201 #
plane-surface $-1 28.535830823400069 -12.625232988265715 41.299696794315082 0 0.68199836817093118 0.7313536940579346 1 0 0 forward_v I I I I #
loop $-1 $-1 $457 $127 #
coedge $-1 $322 $322 $323 $458 reversed $202 $-1 #
coedge $-1 $323 $323 $322 $458 forward $204 $-1 #
coedge $-1 $324 $324 $205 $325 forward $319 $-1 #
edge $-1 $459 -2.2475995901200739e-015 $459 6.2831853071795978 $324 $460 forward 7 unknown #
loop $-1 $-1 $331 $206 #
plane-surface $-1 28.535830823400069 -12.625232988265715 41.299696794315082 0 0.68199836817093118 0.7313536940579346 1 0 0 forward_v I I I I #
loop $-1 $-1 $461 $130 #
coedge $-1 $329 $329 $330 $462 reversed $207 $-1 #
coedge $-1 $330 $330 $329 $462 forward $209 $-1 #
coedge $-1 $331 $331 $210 $332 forward $326 $-1 #
edge $-1 $463 -2.2475995901200739e-015 $463 6.2831853071795978 $331 $464 forward 7 unknown #
loop $-1 $-1 $338 $211 #
plane-surface $-1 28.535830823400069 -12.625232988265715 41.299696794315082 0 0.68199836817093118 0.7313536940579346 1 0 0 forward_v I I I I #
loop $-1 $-1 $465 $133 #
coedge $-1 $336 $336 $337 $466 reversed $212 $-1 #
coedge $-1 $337 $337 $336 $466 forward $214 $-1 #
coedge $-1 $338 $338 $215 $339 forward $333 $-1 #
edge $-1 $467 -2.2475995901200739e-015 $467 6.2831853071795978 $338 $468 forward 7 unknown #
face $-1 $469 $470 $51 $-1 $471 reversed single #
loop $-1 $-1 $472 $216 #
plane-surface $-1 -44.730368968779565 0 0 1 0 0 0 0 -1 forward_v I I I I #
coedge $-1 $473 $351 $474 $475 forward $217 $-1 #
coedge $-1 $476 $219 $473 $477 forward $137 $-1 #
coedge $-1 $219 $476 $478 $479 forward $137 $-1 #
coedge $-1 $354 $353 $219 $347 reversed $355 $-1 #
edge $-1 $480 -27.285566024081209 $481 27.285566024081209 $346 $482 forward 7 unknown #
coedge $-1 $221 $220 $483 $484 forward $86 $-1 #
coedge $-1 $485 $486 $220 $350 reversed $470 $-1 #
edge $-1 $357 -44.730368968779565 $487 44.730368968779565 $349 $488 forward 7 unknown #
coedge $-1 $343 $489 $221 $352 reversed $217 $-1 #
edge $-1 $490 -44.730368968779565 $356 44.730368968779565 $351 $491 forward 7 unknown #
coedge $-1 $346 $222 $489 $492 forward $355 $-1 #
coedge $-1 $222 $346 $485 $493 reversed $355 $-1 #
loop $-1 $-1 $353 $469 #
vertex $-1 $223 $494 #
vertex $-1 $223 $495 #
straight-curve $-1 44.730368968779565 0 7.0951464982507995 0 1 0 I I #
face $-1 $-1 $496 $52 $-1 $497 reversed single #
loop $-1 $-1 $366 $224 #
plane-surface $-1 0 0 7.0951464982507995 0 0 1 1 0 0 forward_v I I I I #
coedge $-1 $498 $227 $229 $368 forward $141 $-1 #
coedge $-1 $227 $498 $499 $500 reversed $141 $-1 #
coedge $-1 $501 $230 $227 $365 forward $225 $-1 #
edge $-1 $371 13.109214975874352 $502 25.450507653894924 $364 $503 forward 7 unknown #
coedge $-1 $504 $505 $228 $367 forward $360 $-1 #
edge $-1 $506 -0.1387664758766789 $370 3.0921438738227458 $366 $507 forward 7 unknown #
edge $-1 $371 -54.571132048162418 $506 -50.153419556997385 $229 $508 forward 7 unknown #
coedge $-1 $230 $501 $504 $509 reversed $225 $-1 #
vertex $-1 $509 $510 #
vertex $-1 $231 $511 #
straight-curve $-1 -32.389076290758993 27.285566024081209 53.363568979048885 0 0 -1 I I #
coedge $-1 $373 $373 $-1 $512 reversed $234 $-1 #
edge $-1 $513 0 $513 6.2831853071796004 $235 $514 forward 7 unknown #
vertex $-1 $238 $515 #
ellipse-curve $-1 -42.262110433175451 25.670110849231499 5.5887101432393473 0 0.68199836817093118 0.7313536940579346 1 0 0 1 I I #
coedge $-1 $377 $377 $-1 $516 reversed $241 $-1 #
edge $-1 $517 0 $517 6.2831853071796004 $242 $518 forward 7 unknown #
vertex $-1 $245 $519 #
ellipse-curve $-1 -38.559722629769283 25.670110849231499 5.5887101432393473 0 0.68199836817093118 0.7313536940579346 1 0 0 1 I I #
coedge $-1 $381 $381 $-1 $520 reversed $248 $-1 #
edge $-1 $521 0 $521 6.2831853071796004 $249 $522 forward 7 unknown #
vertex $-1 $252 $523 #
ellipse-curve $-1 -34.857334826363108 25.670110849231499 5.5887101432393473 0 0.68199836817093118 0.7313536940579346 1 0 0 1 I I #
face $-1 $-1 $397 $56 $-1 $524 reversed single #
loop $-1 $-1 $525 $253 #
plane-surface $-1 0 0 7.0951464982507995 0 0 1 1 0 0 forward_v I I I I #
coedge $-1 $526 $527 $528 $529 reversed $254 $-1 #
coedge $-1 $530 $256 $258 $395 forward $160 $-1 #
coedge $-1 $256 $530 $526 $531 forward $160 $-1 #
coedge $-1 $528 $259 $256 $392 forward $397 $-1 #
edge $-1 $399 1.9266227336794621 $532 14.267915411700034 $391 $533 forward 7 unknown #
coedge $-1 $534 $535 $257 $394 forward $386 $-1 #
edge $-1 $536 -0.1387664758766789 $398 3.0921438738227458 $393 $537 forward 7 unknown #
edge $-1 $399 -54.571132048162418 $536 -50.153419556997385 $258 $538 forward 7 unknown #
coedge $-1 $259 $528 $534 $539 reversed $397 $-1 #
loop $-1 $-1 $528 $385 #
vertex $-1 $539 $540 #
vertex $-1 $260 $541 #
straight-curve $-1 -10.02389180636921 27.285566024081209 53.363568979048885 0 0 -1 I I #
coedge $-1 $401 $401 $-1 $542 reversed $263 $-1 #
edge $-1 $543 0 $543 6.2831853071796004 $264 $544 forward 7 unknown #
vertex $-1 $267 $545 #
ellipse-curve $-1 -19.896925948785668 25.670110849231499 5.5887101432393473 0 0.68199836817093118 0.7313536940579346 1 0 0 1 I I #
coedge $-1 $405 $405 $-1 $546 reversed $270 $-1 #
edge $-1 $547 0 $547 6.2831853071796004 $271 $548 forward 7 unknown #
vertex $-1 $274 $549 #
ellipse-curve $-1 -16.194538145379497 25.670110849231499 5.5887101432393473 0 0.68199836817093118 0.7313536940579346 1 0 0 1 I I #
coedge $-1 $409 $409 $-1 $550 reversed $277 $-1 #
edge $-1 $551 0 $551 6.2831853071796004 $278 $552 forward 7 unknown #
vertex $-1 $281 $553 #
ellipse-curve $-1 -12.492150341973321 25.670110849231499 5.5887101432393473 0 0.68199836817093118 0.7313536940579346 1 0 0 1 I I #
face $-1 $-1 $425 $60 $-1 $554 reversed single #
loop $-1 $-1 $555 $282 #
plane-surface $-1 0 0 7.0951464982507995 0 0 1 1 0 0 forward_v I I I I #
coedge $-1 $556 $557 $558 $559 reversed $283 $-1 #
coedge $-1 $560 $285 $287 $423 forward $179 $-1 #
coedge $-1 $285 $560 $556 $561 forward $179 $-1 #
coedge $-1 $558 $288 $285 $420 forward $425 $-1 #
edge $-1 $427 -9.2559695085154274 $562 3.0853231695051448 $419 $563 forward 7 unknown #
coedge $-1 $564 $565 $286 $422 forward $414 $-1 #
edge $-1 $566 -0.1387664758766789 $426 3.0921438738227458 $421 $567 forward 7 unknown #
edge $-1 $427 -54.571132048162418 $566 -50.153419556997385 $287 $568 forward 7 unknown #
coedge $-1 $288 $558 $564 $569 reversed $425 $-1 #
loop $-1 $-1 $558 $413 #
vertex $-1 $569 $570 #
vertex $-1 $289 $571 #
straight-curve $-1 12.341292678020569 27.285566024081209 53.363568979048885 0 0 -1 I I #
coedge $-1 $429 $429 $-1 $572 reversed $292 $-1 #
edge $-1 $573 0 $573 6.2831853071796004 $293 $574 forward 7 unknown #
vertex $-1 $296 $575 #
ellipse-curve $-1 2.4682585356041145 25.670110849231499 5.5887101432393473 0 0.68199836817093118 0.7313536940579346 1 0 0 1 I I #
coedge $-1 $433 $433 $-1 $576 reversed $299 $-1 #
edge $-1 $577 0 $577 6.2831853071796004 $300 $578 forward 7 unknown #
vertex $-1 $303 $579 #
ellipse-curve $-1 6.1706463390102826 25.670110849231499 5.5887101432393473 0 0.68199836817093118 0.7313536940579346 1 0 0 1 I I #
coedge $-1 $437 $437 $-1 $580 reversed $306 $-1 #
edge $-1 $581 0 $581 6.2831853071796004 $307 $582 forward 7 unknown #
vertex $-1 $310 $583 #
ellipse-curve $-1 9.8730341424164649 25.670110849231499 5.5887101432393473 0 0.68199836817093118 0.7313536940579346 1 0 0 1 I I #
face $-1 $-1 $453 $64 $-1 $584 reversed single #
loop $-1 $-1 $585 $311 #
plane-surface $-1 0 0 7.0951464982507995 0 0 1 1 0 0 forward_v I I I I #
coedge $-1 $586 $587 $588 $589 reversed $312 $-1 #
coedge $-1 $590 $314 $316 $451 forward $198 $-1 #
coedge $-1 $314 $590 $586 $591 forward $198 $-1 #
coedge $-1 $588 $317 $314 $448 forward $453 $-1 #
edge $-1 $455 -20.438561750710317 $592 -8.0972690726897483 $447 $593 forward 7 unknown #
coedge $-1 $594 $595 $315 $450 forward $442 $-1 #
edge $-1 $596 -0.1387664758766789 $454 3.0921438738227458 $449 $597 forward 7 unknown #
edge $-1 $455 -54.571132048162418 $596 -50.153419556997385 $316 $598 forward 7 unknown #
coedge $-1 $317 $588 $594 $599 reversed $453 $-1 #
loop $-1 $-1 $588 $441 #
vertex $-1 $599 $600 #
vertex $-1 $318 $601 #
straight-curve $-1 34.706477162410351 27.285566024081209 53.363568979048885 0 0 -1 I I #
coedge $-1 $457 $457 $-1 $602 reversed $321 $-1 #
edge $-1 $603 0 $603 6.2831853071796004 $322 $604 forward 7 unknown #
vertex $-1 $325 $605 #
ellipse-curve $-1 24.833443019993901 25.670110849231499 5.5887101432393473 0 0.68199836817093118 0.7313536940579346 1 0 0 1 I I #
coedge $-1 $461 $461 $-1 $606 reversed $328 $-1 #
edge $-1 $607 0 $607 6.2831853071796004 $329 $608 forward 7 unknown #
vertex $-1 $332 $609 #
ellipse-curve $-1 28.535830823400069 25.670110849231499 5.5887101432393473 0 0.68199836817093118 0.7313536940579346 1 0 0 1 I I #
coedge $-1 $465 $465 $-1 $610 reversed $335 $-1 #
edge $-1 $611 0 $611 6.2831853071796004 $336 $612 forward 7 unknown #
vertex $-1 $339 $613 #
ellipse-curve $-1 32.238218626806251 25.670110849231499 5.5887101432393473 0 0.68199836817093118 0.7313536940579346 1 0 0 1 I I #
face $-1 $-1 $355 $51 $-1 $614 reversed single #
loop $-1 $-1 $485 $340 #
plane-surface $-1 0 27.285566024081209 0 0 -1 0 0 0 -1 forward_v I I I I #
coedge $-1 $615 $483 $486 $616 forward $341 $-1 #
coedge $-1 $489 $343 $344 $477 reversed $217 $-1 #
coedge $-1 $483 $615 $343 $475 reversed $341 $-1 #
edge $-1 $490 -7.0951464982507995 $617 7.0951464982507995 $474 $618 forward 7 unknown #
coedge $-1 $345 $344 $615 $619 forward $137 $-1 #
edge $-1 $481 -44.730368968779565 $617 44.730368968779565 $473 $620 forward 7 unknown #
coedge $-1 $486 $485 $345 $479 reversed $470 $-1 #
edge $-1 $621 -44.730368968779565 $480 44.730368968779565 $478 $622 forward 7 unknown #
vertex $-1 $347 $623 #
vertex $-1 $492 $624 #
straight-curve $-1 44.730368968779565 0 -7.0951464982507995 0 -1 0 I I #
coedge $-1 $472 $474 $348 $484 reversed $341 $-1 #
edge $-1 $487 -27.285566024081209 $490 27.285566024081209 $483 $625 forward 7 unknown #
coedge $-1 $478 $349 $354 $493 forward $470 $-1 #
coedge $-1 $349 $478 $472 $616 reversed $470 $-1 #
vertex $-1 $350 $626 #
straight-curve $-1 0 27.285566024081209 7.0951464982507995 -1 0 0 I I #
coedge $-1 $351 $473 $353 $492 reversed $217 $-1 #
vertex $-1 $484 $627 #
straight-curve $-1 0 -27.285566024081209 7.0951464982507995 1 0 0 I I #
edge $-1 $356 -7.0951464982507995 $481 7.0951464982507995 $353 $628 forward 7 unknown #
edge $-1 $357 -7.0951464982507995 $480 7.0951464982507995 $354 $629 forward 7 unknown #
point $-1 44.730368968779565 -27.285566024081209 7.0951464982507995 #
point $-1 44.730368968779565 27.285566024081209 7.0951464982507995 #
loop $-1 $-1 $499 $359 #
plane-surface $-1 -44.730368968779565 0 0 1 0 0 0 0 -1 forward_v I I I I #
coedge $-1 $363 $362 $505 $630 reversed $141 $-1 #
coedge $-1 $631 $632 $363 $500 forward $496 $-1 #
edge $-1 $502 -35.871213746168749 $633 -31.453501255003712 $499 $634 forward 7 unknown #
coedge $-1 $369 $364 $632 $635 reversed $225 $-1 #
vertex $-1 $365 $636 #
straight-curve $-1 -19.279861314884641 27.285566024081206 4.0822737882279121 -1 0 0 I I #
coedge $-1 $637 $366 $369 $509 forward $360 $-1 #
coedge $-1 $366 $637 $498 $630 forward $360 $-1 #
vertex $-1 $367 $638 #
straight-curve $-1 -32.389076290758993 24.193422150258463 7.0951464982507986 0 1 0 I I #
straight-curve $-1 -32.389076290758993 -12.625232988265715 41.299696794315082 0 -0.7313536940579346 0.68199836817093118 I I #
edge $-1 $370 32.389076290758993 $639 44.730368968779565 $369 $640 forward 7 unknown #
point $-1 -32.389076290758993 27.285566024081209 7.0951464982507995 #
point $-1 -32.389076290758993 27.285566024081213 4.0822737882279085 #
edge $-1 $641 1 $641 0 $373 $-1 forward 7 unknown #
vertex $-1 $374 $642 #
ellipse-curve $-1 -42.262110433175451 24.386308812207936 4.2120010394707013 0 0.68199836817093118 0.7313536940579346 1 0 0 1 I I #
point $-1 -41.262110433175451 25.670110849231502 5.5887101432393544 #
edge $-1 $643 1 $643 0 $377 $-1 forward 7 unknown #
vertex $-1 $378 $644 #
ellipse-curve $-1 -38.559722629769283 24.386308812207936 4.2120010394707013 0 0.68199836817093118 0.7313536940579346 1 0 0 1 I I #
point $-1 -37.559722629769283 25.670110849231502 5.5887101432393544 #
edge $-1 $645 1 $645 0 $381 $-1 forward 7 unknown #
vertex $-1 $382 $646 #
ellipse-curve $-1 -34.857334826363108 24.386308812207936 4.2120010394707013 0 0.68199836817093118 0.7313536940579346 1 0 0 1 I I #
point $-1 -33.857334826363108 25.670110849231502 5.5887101432393544 #
plane-surface $-1 0 27.285566024081209 0 0 -1 0 0 0 -1 forward_v I I I I #
coedge $-1 $535 $534 $527 $647 forward $386 $-1 #
coedge $-1 $527 $388 $390 $531 reversed $254 $-1 #
coedge $-1 $388 $526 $525 $647 reversed $254 $-1 #
coedge $-1 $396 $391 $388 $529 forward $397 $-1 #
edge $-1 $532 -49.281295190820977 $648 -46.268422480798087 $528 $649 forward 7 unknown #
coedge $-1 $390 $389 $535 $650 reversed $160 $-1 #
edge $-1 $651 50.153419556997385 $532 54.571132048162418 $526 $652 forward 7 unknown #
vertex $-1 $392 $653 #
straight-curve $-1 -8.0972690726897483 27.285566024081206 4.0822737882279121 -1 0 0 I I #
coedge $-1 $525 $393 $396 $539 forward $386 $-1 #
coedge $-1 $393 $525 $530 $650 forward $386 $-1 #
vertex $-1 $394 $654 #
straight-curve $-1 -10.02389180636921 24.193422150258463 7.0951464982507986 0 1 0 I I #
straight-curve $-1 -10.02389180636921 -12.625232988265715 41.299696794315082 0 -0.7313536940579346 0.68199836817093118 I I #
edge $-1 $398 10.02389180636921 $648 22.365184484389783 $396 $655 forward 7 unknown #
point $-1 -10.02389180636921 27.285566024081209 7.0951464982507995 #
point $-1 -10.02389180636921 27.285566024081213 4.0822737882279085 #
edge $-1 $656 1 $656 0 $401 $-1 forward 7 unknown #
vertex $-1 $402 $657 #
ellipse-curve $-1 -19.896925948785668 24.386308812207936 4.2120010394707013 0 0.68199836817093118 0.7313536940579346 1 0 0 1 I I #
point $-1 -18.896925948785668 25.670110849231502 5.5887101432393544 #
edge $-1 $658 1 $658 0 $405 $-1 forward 7 unknown #
vertex $-1 $406 $659 #
ellipse-curve $-1 -16.194538145379497 24.386308812207936 4.2120010394707013 0 0.68199836817093118 0.7313536940579346 1 0 0 1 I I #
point $-1 -15.194538145379497 25.670110849231502 5.5887101432393544 #
edge $-1 $660 1 $660 0 $409 $-1 forward 7 unknown #
vertex $-1 $410 $661 #
ellipse-curve $-1 -12.492150341973321 24.386308812207936 4.2120010394707013 0 0.68199836817093118 0.7313536940579346 1 0 0 1 I I #
point $-1 -11.492150341973321 25.670110849231502 5.5887101432393544 #
plane-surface $-1 0 27.285566024081209 0 0 -1 0 0 0 -1 forward_v I I I I #
coedge $-1 $565 $564 $557 $662 forward $414 $-1 #
coedge $-1 $557 $416 $418 $561 reversed $283 $-1 #
coedge $-1 $416 $556 $555 $662 reversed $283 $-1 #
coedge $-1 $424 $419 $416 $559 forward $425 $-1 #
edge $-1 $562 -49.281295190820977 $663 -46.268422480798087 $558 $664 forward 7 unknown #
coedge $-1 $418 $417 $565 $665 reversed $179 $-1 #
edge $-1 $666 50.153419556997385 $562 54.571132048162418 $556 $667 forward 7 unknown #
vertex $-1 $420 $668 #
straight-curve $-1 3.0853231695051413 27.285566024081206 4.0822737882279121 -1 0 0 I I #
coedge $-1 $555 $421 $424 $569 forward $414 $-1 #
coedge $-1 $421 $555 $560 $665 forward $414 $-1 #
vertex $-1 $422 $669 #
straight-curve $-1 12.341292678020569 24.193422150258463 7.0951464982507986 0 1 0 I I #
straight-curve $-1 12.341292678020569 -12.625232988265715 41.299696794315082 0 -0.7313536940579346 0.68199836817093118 I I #
edge $-1 $426 -12.341292678020569 $663 3.5527136788005009e-015 $424 $670 forward 7 unknown #
point $-1 12.341292678020569 27.285566024081209 7.0951464982507995 #
point $-1 12.341292678020569 27.285566024081213 4.0822737882279085 #
edge $-1 $671 1 $671 0 $429 $-1 forward 7 unknown #
vertex $-1 $430 $672 #
ellipse-curve $-1 2.4682585356041145 24.386308812207936 4.2120010394707013 0 0.68199836817093118 0.7313536940579346 1 0 0 1 I I #
point $-1 3.4682585356041145 25.670110849231502 5.5887101432393544 #
edge $-1 $673 1 $673 0 $433 $-1 forward 7 unknown #
vertex $-1 $434 $674 #
ellipse-curve $-1 6.1706463390102826 24.386308812207936 4.2120010394707013 0 0.68199836817093118 0.7313536940579346 1 0 0 1 I I #
point $-1 7.1706463390102826 25.670110849231502 5.5887101432393544 #
edge $-1 $675 1 $675 0 $437 $-1 forward 7 unknown #
vertex $-1 $438 $676 #
ellipse-curve $-1 9.8730341424164649 24.386308812207936 4.2120010394707013 0 0.68199836817093118 0.7313536940579346 1 0 0 1 I I #
point $-1 10.873034142416465 25.670110849231502 5.5887101432393544 #
plane-surface $-1 0 27.285566024081209 0 0 -1 0 0 0 -1 forward_v I I I I #
coedge $-1 $595 $594 $587 $677 forward $442 $-1 #
coedge $-1 $587 $444 $446 $591 reversed $312 $-1 #
coedge $-1 $444 $586 $585 $677 reversed $312 $-1 #
coedge $-1 $452 $447 $444 $589 forward $453 $-1 #
edge $-1 $592 -49.281295190820977 $678 -46.268422480798087 $588 $679 forward 7 unknown #
coedge $-1 $446 $445 $595 $680 reversed $198 $-1 #
edge $-1 $681 50.153419556997385 $592 54.571132048162418 $586 $682 forward 7 unknown #
vertex $-1 $448 $683 #
straight-curve $-1 14.267915411700034 27.285566024081206 4.0822737882279121 -1 0 0 I I #
coedge $-1 $585 $449 $452 $599 forward $442 $-1 #
coedge $-1 $449 $585 $590 $680 forward $442 $-1 #
vertex $-1 $450 $684 #
straight-curve $-1 34.706477162410351 24.193422150258463 7.0951464982507986 0 1 0 I I #
straight-curve $-1 34.706477162410351 -12.625232988265715 41.299696794315082 0 -0.7313536940579346 0.68199836817093118 I I #
edge $-1 $454 -34.706477162410351 $678 -22.365184484389783 $452 $685 forward 7 unknown #
point $-1 34.706477162410351 27.285566024081209 7.0951464982507995 #
point $-1 34.706477162410351 27.285566024081213 4.0822737882279085 #
edge $-1 $686 1 $686 0 $457 $-1 forward 7 unknown #
vertex $-1 $458 $687 #
ellipse-curve $-1 24.833443019993901 24.386308812207936 4.2120010394707013 0 0.68199836817093118 0.7313536940579346 1 0 0 1 I I #
point $-1 25.833443019993901 25.670110849231502 5.5887101432393544 #
edge $-1 $688 1 $688 0 $461 $-1 forward 7 unknown #
vertex $-1 $462 $689 #
ellipse-curve $-1 28.535830823400069 24.386308812207936 4.2120010394707013 0 0.68199836817093118 0.7313536940579346 1 0 0 1 I I #
point $-1 29.535830823400069 25.670110849231502 5.5887101432393544 #
edge $-1 $690 1 $690 0 $465 $-1 forward 7 unknown #
vertex $-1 $466 $691 #
ellipse-curve $-1 32.238218626806251 24.386308812207936 4.2120010394707013 0 0.68199836817093118 0.7313536940579346 1 0 0 1 I I #
point $-1 33.238218626806251 25.670110849231502 5.5887101432393544 #
plane-surface $-1 44.730368968779565 0 0 -1 0 0 0 0 1 forward_v I I I I #
coedge $-1 $474 $472 $476 $619 reversed $341 $-1 #
edge $-1 $487 -7.0951464982507995 $621 7.0951464982507995 $486 $692 forward 7 unknown #
vertex $-1 $619 $693 #
straight-curve $-1 -44.730368968779565 -27.285566024081209 0 0 0 -1 I I #
edge $-1 $617 -27.285566024081209 $621 27.285566024081209 $615 $694 forward 7 unknown #
straight-curve $-1 0 -27.285566024081209 -7.0951464982507995 -1 0 0 I I #
vertex $-1 $479 $695 #
straight-curve $-1 0 27.285566024081209 -7.0951464982507995 1 0 0 I I #
point $-1 44.730368968779565 27.285566024081209 -7.0951464982507995 #
point $-1 44.730368968779565 -27.285566024081209 -7.0951464982507995 #
straight-curve $-1 -44.730368968779565 0 7.0951464982507995 0 -1 0 I I #
point $-1 -44.730368968779565 27.285566024081209 7.0951464982507995 #
point $-1 -44.730368968779565 -27.285566024081209 7.0951464982507995 #
straight-curve $-1 44.730368968779565 -27.285566024081209 0 0 0 -1 I I #
straight-curve $-1 44.730368968779565 27.285566024081209 0 0 0 -1 I I #
edge $-1 $633 -25.450507653894931 $506 -13.109214975874352 $505 $696 forward 7 unknown #
coedge $-1 $632 $499 $637 $697 reversed $496 $-1 #
coedge $-1 $499 $631 $501 $635 forward $496 $-1 #
vertex $-1 $500 $698 #
straight-curve $-1 -44.730368968779565 1.0510213404789388 28.546383027425666 0 -0.7313536940579346 0.68199836817093118 I I #
edge $-1 $639 -7.0951464982507995 $502 -4.0822737882279032 $501 $699 forward 7 unknown #
point $-1 -44.730368968779565 27.285566024081209 4.0822737882279032 #
coedge $-1 $505 $504 $631 $697 forward $360 $-1 #
point $-1 -32.389076290758993 24.054655674381785 7.0951464982507986 #
vertex $-1 $509 $700 #
straight-curve $-1 0 27.285566024081209 7.0951464982507995 -1 0 0 I I #
vertex $-1 $512 $701 #
point $-1 -41.262110433175451 24.386308812207936 4.2120010394707013 #
vertex $-1 $516 $702 #
point $-1 -37.559722629769283 24.386308812207936 4.2120010394707013 #
vertex $-1 $520 $703 #
point $-1 -33.857334826363108 24.386308812207936 4.2120010394707013 #
edge $-1 $648 -3.0921438738227458 $651 0.1387664758766789 $525 $704 forward 7 unknown #
vertex $-1 $647 $705 #
straight-curve $-1 -22.365184484389783 27.285566024081209 53.363568979048885 0 0 1 I I #
edge $-1 $651 -14.267915411700034 $536 -1.9266227336794621 $535 $706 forward 7 unknown #
vertex $-1 $650 $707 #
straight-curve $-1 -22.365184484389783 -12.625232988265715 41.299696794315082 0 0.7313536940579346 -0.68199836817093118 I I #
point $-1 -22.365184484389783 27.285566024081213 4.0822737882279085 #
point $-1 -10.02389180636921 24.054655674381785 7.0951464982507986 #
straight-curve $-1 0 27.285566024081209 7.0951464982507995 -1 0 0 I I #
vertex $-1 $542 $708 #
point $-1 -18.896925948785668 24.386308812207936 4.2120010394707013 #
vertex $-1 $546 $709 #
point $-1 -15.194538145379497 24.386308812207936 4.2120010394707013 #
vertex $-1 $550 $710 #
point $-1 -11.492150341973321 24.386308812207936 4.2120010394707013 #
edge $-1 $663 -3.0921438738227458 $666 0.1387664758766789 $555 $711 forward 7 unknown #
vertex $-1 $559 $712 #
straight-curve $-1 -3.5527136788005009e-015 27.285566024081209 53.363568979048885 0 0 1 I I #
edge $-1 $666 -3.0853231695051448 $566 9.2559695085154274 $565 $713 forward 7 unknown #
vertex $-1 $665 $714 #
straight-curve $-1 -3.5527136788005009e-015 -12.625232988265715 41.299696794315082 0 0.7313536940579346 -0.68199836817093118 I I #
point $-1 -3.5527136788005009e-015 27.285566024081213 4.0822737882279085 #
point $-1 12.341292678020569 24.054655674381785 7.0951464982507986 #
straight-curve $-1 0 27.285566024081209 7.0951464982507995 -1 0 0 I I #
vertex $-1 $572 $715 #
point $-1 3.4682585356041145 24.386308812207936 4.2120010394707013 #
vertex $-1 $576 $716 #
point $-1 7.1706463390102826 24.386308812207936 4.2120010394707013 #
vertex $-1 $580 $717 #
point $-1 10.873034142416465 24.386308812207936 4.2120010394707013 #
edge $-1 $678 -3.0921438738227458 $681 0.1387664758766789 $585 $718 forward 7 unknown #
vertex $-1 $589 $719 #
straight-curve $-1 22.365184484389783 27.285566024081209 53.363568979048885 0 0 1 I I #
edge $-1 $681 8.0972690726897483 $596 20.438561750710317 $595 $720 forward 7 unknown #
vertex $-1 $680 $721 #
straight-curve $-1 22.365184484389783 -12.625232988265715 41.299696794315082 0 0.7313536940579346 -0.68199836817093118 I I #
point $-1 22.365184484389783 27.285566024081213 4.0822737882279085 #
point $-1 34.706477162410351 24.054655674381785 7.0951464982507986 #
straight-curve $-1 0 27.285566024081209 7.0951464982507995 -1 0 0 I I #
vertex $-1 $602 $722 #
point $-1 25.833443019993901 24.386308812207936 4.2120010394707013 #
vertex $-1 $606 $723 #
point $-1 29.535830823400069 24.386308812207936 4.2120010394707013 #
vertex $-1 $610 $724 #
point $-1 33.238218626806251 24.386308812207936 4.2120010394707013 #
straight-curve $-1 -44.730368968779565 27.285566024081209 0 0 0 -1 I I #
point $-1 -44.730368968779565 -27.285566024081209 -7.0951464982507995 #
straight-curve $-1 -44.730368968779565 0 -7.0951464982507995 0 1 0 I I #
point $-1 -44.730368968779565 27.285566024081209 -7.0951464982507995 #
straight-curve $-1 -19.279861314884641 24.054655674381788 7.0951464982507986 1 0 0 I I #
edge $-1 $639 -27.285566024081209 $633 -24.054655674381785 $631 $725 forward 7 unknown #
point $-1 -44.730368968779572 24.054655674381785 7.0951464982507986 #
straight-curve $-1 -44.730368968779565 27.285566024081209 0 0 0 -1 I I #
point $-1 -44.730368968779565 27.285566024081209 7.0951464982507995 #
point $-1 -42.262110433175451 23.704310444037006 3.4806473454127662 #
point $-1 -38.559722629769283 23.704310444037006 3.4806473454127662 #
point $-1 -34.857334826363108 23.704310444037006 3.4806473454127662 #
straight-curve $-1 -22.365184484389783 24.193422150258463 7.0951464982507986 0 -1 0 I I #
point $-1 -22.365184484389783 27.285566024081209 7.0951464982507995 #
straight-curve $-1 -8.0972690726897483 24.054655674381788 7.0951464982507986 1 0 0 I I #
point $-1 -22.365184484389783 24.054655674381785 7.0951464982507986 #
point $-1 -19.896925948785668 23.704310444037006 3.4806473454127662 #
point $-1 -16.194538145379497 23.704310444037006 3.4806473454127662 #
point $-1 -12.492150341973321 23.704310444037006 3.4806473454127662 #
straight-curve $-1 -3.5527136788005009e-015 24.193422150258463 7.0951464982507986 0 -1 0 I I #
point $-1 -3.5527136788005009e-015 27.285566024081209 7.0951464982507995 #
straight-curve $-1 3.0853231695051413 24.054655674381788 7.0951464982507986 1 0 0 I I #
point $-1 -3.5527136788005009e-015 24.054655674381785 7.0951464982507986 #
point $-1 2.4682585356041145 23.704310444037006 3.4806473454127662 #
point $-1 6.1706463390102826 23.704310444037006 3.4806473454127662 #
point $-1 9.8730341424164649 23.704310444037006 3.4806473454127662 #
straight-curve $-1 22.365184484389783 24.193422150258463 7.0951464982507986 0 -1 0 I I #
point $-1 22.365184484389783 27.285566024081209 7.0951464982507995 #
straight-curve $-1 14.267915411700034 24.054655674381788 7.0951464982507986 1 0 0 I I #
point $-1 22.365184484389783 24.054655674381785 7.0951464982507986 #
point $-1 24.833443019993901 23.704310444037006 3.4806473454127662 #
point $-1 28.535830823400069 23.704310444037006 3.4806473454127662 #
point $-1 32.238218626806251 23.704310444037006 3.4806473454127662 #
straight-curve $-1 -44.730368968779565 0 7.0951464982507995 0 -1 0 I I #
End-of-ACIS-data 