500 0 6 0           
7 Unknown 11 ACIS 5.0 NT 24 Fri Mar 26 18:41:58 1999 
-1 9.9999999999999995e-007 1e-010 
body $-1 $6 $-1 $7 #
body $-1 $8 $-1 $9 #
body $-1 $10 $-1 $11 #
body $-1 $12 $-1 $13 #
body $-1 $14 $-1 $15 #
body $-1 $16 $-1 $17 #
lump $-1 $-1 $18 $0 #
transform $-1 1 0 0 0 1 0 0 0 1 46.778771324808496 23.214502411350168 9.4461281808152382 1 rotate no_reflect no_shear #
lump $-1 $-1 $19 $1 #
transform $-1 1 0 0 0 1 0 0 0 1 46.778771324808496 23.214502411350168 9.4461281808152382 1 rotate no_reflect no_shear #
lump $-1 $-1 $20 $2 #
transform $-1 1 0 0 0 1 0 0 0 1 46.778771324808496 23.214502411350168 9.4461281808152382 1 rotate no_reflect no_shear #
lump $-1 $-1 $21 $3 #
transform $-1 1 0 0 0 1 0 0 0 1 46.778771324808496 23.214502411350168 9.4461281808152382 1 rotate no_reflect no_shear #
lump $-1 $-1 $22 $4 #
transform $-1 1 0 0 0 1 0 0 0 1 46.778771324808496 23.214502411350168 9.4461281808152382 1 rotate no_reflect no_shear #
lump $-1 $-1 $23 $5 #
transform $-1 1 0 0 0 1 0 0 0 1 46.778771324808496 23.214502411350168 9.4461281808152382 1 rotate no_reflect no_shear #
shell $-1 $-1 $-1 $24 $-1 $6 #
shell $-1 $-1 $-1 $25 $-1 $8 #
shell $-1 $-1 $-1 $26 $-1 $10 #
shell $-1 $-1 $-1 $27 $-1 $12 #
shell $-1 $-1 $-1 $28 $-1 $14 #
shell $-1 $-1 $-1 $29 $-1 $16 #
face $-1 $30 $31 $18 $-1 $32 forward single #
face $-1 $33 $34 $19 $-1 $35 forward single #
face $-1 $36 $37 $20 $-1 $38 reversed single #
face $-1 $39 $40 $21 $-1 $41 forward single #
face $-1 $42 $43 $22 $-1 $44 reversed single #
face $-1 $45 $46 $23 $-1 $47 forward single #
face $-1 $48 $49 $18 $-1 $50 reversed single #
loop $-1 $-1 $51 $24 #
plane-surface $-1 0 0 9.4461281808152382 0 0 1 1 0 0 forward_v I I I I #
face $-1 $52 $53 $19 $-1 $54 forward single #
loop $-1 $-1 $55 $25 #
plane-surface $-1 -46.778771324808496 0 0 1 0 0 0 0 -1 forward_v I I I I #
face $-1 $56 $57 $20 $-1 $58 reversed single #
loop $-1 $-1 $59 $26 #
plane-surface $-1 -20.993457612304375 -87.020593828471263 73.084295395846382 -1 0 0 0 -0.68199836817093118 0.7313536940579346 forward_v I I I I #
face $-1 $60 $61 $21 $-1 $62 forward single #
loop $-1 $63 $64 $27 #
cone-surface $-1 -26.020510973794245 -19.545854336200971 5.8708356272364224 0 0.68199836817093118 -0.7313536940579346 1 0 0 1 I I 0 1 1 forward I I I I #
face $-1 $65 $66 $22 $-1 $67 reversed single #
loop $-1 $-1 $68 $28 #
plane-surface $-1 20.560895943684145 -87.020593828471263 73.084295395846382 -1 0 0 0 -0.68199836817093118 0.7313536940579346 forward_v I I I I #
face $-1 $69 $70 $23 $-1 $71 forward single #
loop $-1 $72 $73 $29 #
cone-surface $-1 15.533842582194275 -19.545854336200971 5.8708356272364224 0 0.68199836817093118 -0.7313536940579346 1 0 0 1 I I 0 1 1 forward I I I I #
face $-1 $74 $75 $18 $-1 $76 reversed single #
loop $-1 $-1 $77 $30 #
plane-surface $-1 0 0 -9.4461281808152382 0 0 1 1 0 0 forward_v I I I I #
coedge $-1 $78 $79 $80 $81 forward $31 $-1 #
face $-1 $82 $83 $19 $-1 $84 reversed single #
loop $-1 $-1 $85 $33 #
plane-surface $-1 0 0 9.4461281808152382 0 0 1 1 0 0 forward_v I I I I #
coedge $-1 $86 $87 $88 $89 forward $34 $-1 #
face $-1 $90 $91 $20 $-1 $92 reversed single #
loop $-1 $-1 $93 $36 #
plane-surface $-1 -26.020510973794245 -23.214502411350175 4.6606409720662327 0 -0.68199836817093118 0.7313536940579346 1 0 0 forward_v I I I I #
coedge $-1 $94 $95 $96 $97 reversed $37 $-1 #
face $-1 $-1 $98 $21 $-1 $99 forward single #
loop $-1 $100 $101 $39 #
cone-surface $-1 -26.020510973794245 -18.102110392374538 4.3226098310031489 0 0.68199836817093118 -0.7313536940579346 0.5 0 0 1 I I -0.70710678118654746 0.70710678118654746 0.5 forward I I I I #
loop $-1 $-1 $102 $27 #
coedge $-1 $64 $64 $103 $104 reversed $40 $-1 #
face $-1 $105 $106 $22 $-1 $107 reversed single #
loop $-1 $-1 $108 $42 #
plane-surface $-1 15.533842582194275 -23.214502411350175 4.6606409720662327 0 -0.68199836817093118 0.7313536940579346 1 0 0 forward_v I I I I #
coedge $-1 $109 $110 $111 $112 reversed $43 $-1 #
face $-1 $-1 $113 $23 $-1 $114 forward single #
loop $-1 $115 $116 $45 #
cone-surface $-1 15.533842582194275 -18.102110392374538 4.3226098310031489 0 0.68199836817093118 -0.7313536940579346 0.5 0 0 1 I I -0.70710678118654746 0.70710678118654746 0.5 forward I I I I #
loop $-1 $-1 $117 $29 #
coedge $-1 $73 $73 $118 $119 reversed $46 $-1 #
face $-1 $120 $121 $18 $-1 $122 reversed single #
loop $-1 $-1 $123 $48 #
plane-surface $-1 0 -23.214502411350168 0 0 1 0 0 0 1 forward_v I I I I #
coedge $-1 $124 $125 $126 $127 forward $49 $-1 #
coedge $-1 $128 $51 $129 $130 forward $31 $-1 #
coedge $-1 $51 $128 $131 $132 forward $31 $-1 #
coedge $-1 $133 $134 $51 $81 reversed $135 $-1 #
edge $-1 $136 -23.214502411350168 $137 23.214502411350168 $80 $138 forward 7 unknown #
face $-1 $139 $140 $19 $-1 $141 reversed single #
loop $-1 $-1 $142 $52 #
plane-surface $-1 -57.227606862448447 -21.496833246038989 0 1 0 0 0 0 -1 forward_v I I I I #
coedge $-1 $143 $144 $86 $145 forward $53 $-1 #
coedge $-1 $146 $55 $85 $145 reversed $34 $-1 #
coedge $-1 $55 $146 $147 $148 reversed $34 $-1 #
coedge $-1 $149 $150 $55 $89 reversed $140 $-1 #
edge $-1 $151 -9.4461281808152382 $152 9.4461281808152382 $88 $153 forward 7 unknown #
face $-1 $154 $155 $20 $-1 $156 forward single #
loop $-1 $-1 $157 $56 #
plane-surface $-1 -31.047564335284115 -87.020593828471263 73.084295395846382 1 0 0 0 0.68199836817093118 -0.7313536940579346 forward_v I I I I #
coedge $-1 $158 $159 $160 $161 reversed $57 $-1 #
coedge $-1 $95 $59 $162 $163 reversed $37 $-1 #
coedge $-1 $59 $94 $158 $164 reversed $37 $-1 #
coedge $-1 $160 $165 $59 $97 forward $155 $-1 #
edge $-1 $166 20.295794502885464 $167 25.427601133701902 $96 $168 forward 7 unknown #
loop $-1 $-1 $103 $60 #
plane-surface $-1 -26.020510973794245 -23.214502411350175 4.6606409720662327 0 -0.68199836817093118 0.7313536940579346 1 0 0 forward_v I I I I #
loop $-1 $-1 $169 $39 #
coedge $-1 $101 $101 $102 $170 reversed $61 $-1 #
coedge $-1 $102 $102 $101 $170 forward $63 $-1 #
coedge $-1 $103 $103 $64 $104 forward $98 $-1 #
edge $-1 $171 5.2603602420124135e-016 $171 6.2831853071796013 $103 $172 forward 7 unknown #
face $-1 $173 $174 $22 $-1 $175 reversed single #
loop $-1 $-1 $176 $65 #
plane-surface $-1 10.506789220704405 -87.020593828471263 73.084295395846382 1 0 0 0 0.68199836817093118 -0.7313536940579346 forward_v I I I I #
coedge $-1 $177 $178 $179 $180 reversed $66 $-1 #
coedge $-1 $110 $68 $181 $182 reversed $43 $-1 #
coedge $-1 $68 $109 $177 $183 reversed $43 $-1 #
coedge $-1 $179 $184 $68 $112 forward $185 $-1 #
edge $-1 $186 20.295794502885464 $187 25.427601133701902 $111 $188 forward 7 unknown #
loop $-1 $-1 $118 $69 #
plane-surface $-1 15.533842582194275 -23.214502411350175 4.6606409720662327 0 -0.68199836817093118 0.7313536940579346 1 0 0 forward_v I I I I #
loop $-1 $-1 $189 $45 #
coedge $-1 $116 $116 $117 $190 reversed $70 $-1 #
coedge $-1 $117 $117 $116 $190 forward $72 $-1 #
coedge $-1 $118 $118 $73 $119 forward $113 $-1 #
edge $-1 $191 5.2603602420124135e-016 $191 6.2831853071796013 $118 $192 forward 7 unknown #
face $-1 $193 $194 $18 $-1 $195 reversed single #
loop $-1 $-1 $196 $74 #
plane-surface $-1 -46.778771324808496 0 0 1 0 0 0 0 -1 forward_v I I I I #
coedge $-1 $197 $131 $198 $199 forward $75 $-1 #
coedge $-1 $200 $77 $197 $201 forward $49 $-1 #
coedge $-1 $77 $200 $202 $203 forward $49 $-1 #
coedge $-1 $134 $133 $77 $127 reversed $135 $-1 #
edge $-1 $204 -23.214502411350168 $205 23.214502411350168 $126 $206 forward 7 unknown #
coedge $-1 $79 $78 $207 $208 forward $31 $-1 #
coedge $-1 $209 $210 $78 $130 reversed $194 $-1 #
edge $-1 $137 -46.778771324808496 $211 46.778771324808496 $129 $212 forward 7 unknown #
coedge $-1 $123 $213 $79 $132 reversed $75 $-1 #
edge $-1 $214 -46.778771324808496 $136 46.778771324808496 $131 $215 forward 7 unknown #
coedge $-1 $126 $80 $213 $216 forward $135 $-1 #
coedge $-1 $80 $126 $209 $217 reversed $135 $-1 #
loop $-1 $-1 $133 $193 #
vertex $-1 $81 $218 #
vertex $-1 $81 $219 #
straight-curve $-1 46.778771324808496 0 9.4461281808152382 0 1 0 I I #
face $-1 $220 $221 $19 $-1 $222 reversed single #
loop $-1 $-1 $88 $82 #
plane-surface $-1 -52.003189093628471 -19.77916408072781 0 0 -1 0 0 0 -1 forward_v I I I I #
coedge $-1 $223 $224 $225 $226 forward $83 $-1 #
coedge $-1 $227 $85 $150 $228 forward $53 $-1 #
coedge $-1 $85 $227 $229 $230 forward $53 $-1 #
edge $-1 $231 -23.214502411350168 $152 -19.77916408072781 $85 $232 forward 7 unknown #
coedge $-1 $87 $86 $233 $234 reversed $34 $-1 #
coedge $-1 $235 $236 $87 $148 forward $221 $-1 #
edge $-1 $151 19.77916408072781 $237 23.214502411350168 $147 $238 forward 7 unknown #
coedge $-1 $225 $88 $236 $239 reversed $140 $-1 #
coedge $-1 $88 $225 $143 $228 reversed $140 $-1 #
vertex $-1 $148 $240 #
vertex $-1 $228 $241 #
straight-curve $-1 -46.778771324808496 -19.77916408072781 0 0 0 1 I I #
face $-1 $-1 $242 $20 $-1 $243 reversed single #
loop $-1 $-1 $96 $90 #
plane-surface $-1 0 0 9.4461281808152382 0 0 1 1 0 0 forward_v I I I I #
coedge $-1 $244 $245 $246 $247 reversed $91 $-1 #
coedge $-1 $248 $93 $95 $164 forward $57 $-1 #
coedge $-1 $93 $248 $244 $249 forward $57 $-1 #
coedge $-1 $246 $96 $93 $161 forward $155 $-1 #
edge $-1 $167 7.9832021254072529 $250 18.037308848386992 $160 $251 forward 7 unknown #
coedge $-1 $252 $253 $94 $163 forward $242 $-1 #
edge $-1 $254 -31.881506725856951 $166 -27.096019517107955 $162 $255 forward 7 unknown #
edge $-1 $167 -7.0168602039082968 $254 -9.4367341760026555e-015 $95 $256 forward 7 unknown #
coedge $-1 $96 $246 $252 $257 forward $155 $-1 #
vertex $-1 $97 $258 #
vertex $-1 $97 $259 #
straight-curve $-1 -20.993457612304375 -43.510296914235632 9.4461281808152364 0 1 0 I I #
coedge $-1 $169 $169 $-1 $260 reversed $100 $-1 #
edge $-1 $261 0 $261 6.2831853071796004 $101 $262 forward 7 unknown #
vertex $-1 $104 $263 #
ellipse-curve $-1 -26.020510973794245 -20.64859909594195 7.053384576440739 0 -0.68199836817093118 0.7313536940579346 1 0 0 1 I I #
face $-1 $-1 $185 $22 $-1 $264 forward single #
loop $-1 $-1 $265 $105 #
plane-surface $-1 0 -23.214502411350168 0 0 1 0 0 0 1 forward_v I I I I #
coedge $-1 $266 $267 $268 $269 reversed $106 $-1 #
coedge $-1 $270 $108 $110 $183 forward $66 $-1 #
coedge $-1 $108 $270 $266 $271 forward $66 $-1 #
coedge $-1 $268 $111 $108 $180 forward $185 $-1 #
edge $-1 $187 -12.793974652587007 $272 -2.7398679296072679 $179 $273 forward 7 unknown #
coedge $-1 $274 $275 $109 $182 forward $174 $-1 #
edge $-1 $276 -31.881506725856951 $186 -27.096019517107955 $181 $277 forward 7 unknown #
edge $-1 $187 -7.0168602039082968 $276 -9.4367341760026555e-015 $110 $278 forward 7 unknown #
coedge $-1 $111 $268 $274 $279 forward $185 $-1 #
loop $-1 $-1 $268 $173 #
vertex $-1 $182 $280 #
vertex $-1 $112 $281 #
straight-curve $-1 20.560895943684145 -43.510296914235632 9.4461281808152364 0 1 0 I I #
coedge $-1 $189 $189 $-1 $282 reversed $115 $-1 #
edge $-1 $283 0 $283 6.2831853071796004 $116 $284 forward 7 unknown #
vertex $-1 $119 $285 #
ellipse-curve $-1 15.533842582194275 -20.64859909594195 7.053384576440739 0 -0.68199836817093118 0.7313536940579346 1 0 0 1 I I #
face $-1 $-1 $135 $18 $-1 $286 reversed single #
loop $-1 $-1 $209 $120 #
plane-surface $-1 0 23.214502411350168 0 0 -1 0 0 0 -1 forward_v I I I I #
coedge $-1 $287 $207 $210 $288 forward $121 $-1 #
coedge $-1 $213 $123 $124 $201 reversed $75 $-1 #
coedge $-1 $207 $287 $123 $199 reversed $121 $-1 #
edge $-1 $214 -9.4461281808152382 $289 9.4461281808152382 $198 $290 forward 7 unknown #
coedge $-1 $125 $124 $287 $291 forward $49 $-1 #
edge $-1 $205 -46.778771324808496 $289 46.778771324808496 $197 $292 forward 7 unknown #
coedge $-1 $210 $209 $125 $203 reversed $194 $-1 #
edge $-1 $293 -46.778771324808496 $204 46.778771324808496 $202 $294 forward 7 unknown #
vertex $-1 $127 $295 #
vertex $-1 $216 $296 #
straight-curve $-1 46.778771324808496 0 -9.4461281808152382 0 -1 0 I I #
coedge $-1 $196 $198 $128 $208 reversed $121 $-1 #
edge $-1 $211 -23.214502411350168 $214 23.214502411350168 $207 $297 forward 7 unknown #
coedge $-1 $202 $129 $134 $217 forward $194 $-1 #
coedge $-1 $129 $202 $196 $288 reversed $194 $-1 #
vertex $-1 $130 $298 #
straight-curve $-1 0 23.214502411350168 9.4461281808152382 -1 0 0 I I #
coedge $-1 $131 $197 $133 $216 reversed $75 $-1 #
vertex $-1 $208 $299 #
straight-curve $-1 0 -23.214502411350168 9.4461281808152382 1 0 0 I I #
edge $-1 $136 -9.4461281808152382 $205 9.4461281808152382 $133 $300 forward 7 unknown #
edge $-1 $137 -9.4461281808152382 $204 9.4461281808152382 $134 $301 forward 7 unknown #
point $-1 46.778771324808496 -23.214502411350168 9.4461281808152382 #
point $-1 46.778771324808496 23.214502411350168 9.4461281808152382 #
face $-1 $-1 $302 $19 $-1 $303 reversed single #
loop $-1 $-1 $147 $139 #
plane-surface $-1 0 0 -9.4461281808152382 0 0 1 1 0 0 forward_v I I I I #
coedge $-1 $304 $142 $305 $306 reversed $83 $-1 #
coedge $-1 $142 $304 $227 $307 reversed $83 $-1 #
coedge $-1 $150 $149 $142 $226 reversed $140 $-1 #
edge $-1 $308 -9.4461281808152382 $309 9.4461281808152382 $225 $310 forward 7 unknown #
coedge $-1 $144 $143 $224 $307 forward $53 $-1 #
edge $-1 $152 -5.2244177688199755 $308 5.2244177688199755 $150 $311 forward 7 unknown #
coedge $-1 $312 $233 $144 $230 reversed $302 $-1 #
edge $-1 $313 -57.227606862448447 $231 -46.778771324808496 $229 $314 forward 7 unknown #
vertex $-1 $234 $315 #
straight-curve $-1 -46.778771324808496 0 9.4461281808152382 0 1 0 I I #
coedge $-1 $229 $316 $146 $234 forward $302 $-1 #
edge $-1 $237 -9.4461281808152382 $231 9.4461281808152382 $233 $317 forward 7 unknown #
coedge $-1 $305 $147 $316 $318 forward $221 $-1 #
coedge $-1 $147 $305 $149 $239 forward $221 $-1 #
vertex $-1 $318 $319 #
straight-curve $-1 -46.778771324808496 0 -9.4461281808152382 0 -1 0 I I #
edge $-1 $309 -5.2244177688199755 $151 5.2244177688199755 $149 $320 forward 7 unknown #
point $-1 -46.778771324808496 -19.77916408072781 -9.4461281808152382 #
point $-1 -46.778771324808496 -19.77916408072781 9.4461281808152382 #
loop $-1 $-1 $162 $154 #
plane-surface $-1 0 -23.214502411350168 0 0 1 0 0 0 1 forward_v I I I I #
coedge $-1 $245 $157 $159 $249 reversed $91 $-1 #
coedge $-1 $157 $244 $321 $322 reversed $91 $-1 #
coedge $-1 $165 $160 $157 $247 forward $155 $-1 #
edge $-1 $250 -25.427601133701902 $323 -20.295794502885464 $246 $324 forward 7 unknown #
coedge $-1 $159 $158 $253 $325 reversed $57 $-1 #
edge $-1 $326 9.4367341760026555e-015 $250 7.0168602039082968 $244 $327 forward 7 unknown #
vertex $-1 $161 $328 #
straight-curve $-1 -13.010255486897123 -18.082695780533729 9.4461281808152382 -1 0 0 I I #
coedge $-1 $321 $162 $165 $257 reversed $242 $-1 #
coedge $-1 $162 $321 $248 $325 forward $242 $-1 #
vertex $-1 $163 $329 #
straight-curve $-1 -20.993457612304375 -23.214502411350168 36.542147697923191 0 0 1 I I #
straight-curve $-1 -20.993457612304375 -23.214502411350175 4.6606409720662327 0 -0.7313536940579346 -0.68199836817093118 I I #
edge $-1 $323 -31.047564335284115 $166 -20.993457612304375 $252 $330 forward 7 unknown #
point $-1 -20.993457612304375 -23.214502411350168 9.4461281808152382 #
point $-1 -20.993457612304375 -18.082695780533729 9.4461281808152382 #
edge $-1 $331 1 $331 0 $169 $-1 forward 7 unknown #
vertex $-1 $170 $332 #
ellipse-curve $-1 -26.020510973794245 -18.443109576460003 4.6882866780321164 0 -0.68199836817093118 0.7313536940579346 1 0 0 1 I I #
point $-1 -25.020510973794245 -20.64859909594194 7.0533845764407284 #
plane-surface $-1 0 0 9.4461281808152382 0 0 1 1 0 0 forward_v I I I I #
coedge $-1 $275 $274 $267 $333 forward $174 $-1 #
coedge $-1 $267 $176 $178 $271 reversed $106 $-1 #
coedge $-1 $176 $266 $265 $333 reversed $106 $-1 #
coedge $-1 $184 $179 $176 $269 forward $185 $-1 #
edge $-1 $272 -25.427601133701902 $334 -20.295794502885464 $268 $335 forward 7 unknown #
coedge $-1 $178 $177 $275 $336 reversed $66 $-1 #
edge $-1 $337 9.4367341760026555e-015 $272 7.0168602039082968 $266 $338 forward 7 unknown #
vertex $-1 $180 $339 #
straight-curve $-1 7.7669212910971375 -18.082695780533729 9.4461281808152382 -1 0 0 I I #
coedge $-1 $265 $181 $184 $279 reversed $174 $-1 #
coedge $-1 $181 $265 $270 $336 forward $174 $-1 #
vertex $-1 $182 $340 #
straight-curve $-1 20.560895943684145 -23.214502411350168 36.542147697923191 0 0 1 I I #
straight-curve $-1 20.560895943684145 -23.214502411350175 4.6606409720662327 0 -0.7313536940579346 -0.68199836817093118 I I #
edge $-1 $334 10.506789220704405 $186 20.560895943684145 $274 $341 forward 7 unknown #
point $-1 20.560895943684145 -23.214502411350168 9.4461281808152382 #
point $-1 20.560895943684145 -18.082695780533729 9.4461281808152382 #
edge $-1 $342 1 $342 0 $189 $-1 forward 7 unknown #
vertex $-1 $190 $343 #
ellipse-curve $-1 15.533842582194275 -18.443109576460003 4.6882866780321164 0 -0.68199836817093118 0.7313536940579346 1 0 0 1 I I #
point $-1 16.533842582194275 -20.64859909594194 7.0533845764407284 #
plane-surface $-1 46.778771324808496 0 0 -1 0 0 0 0 1 forward_v I I I I #
coedge $-1 $198 $196 $200 $291 reversed $121 $-1 #
edge $-1 $211 -9.4461281808152382 $293 9.4461281808152382 $210 $344 forward 7 unknown #
vertex $-1 $291 $345 #
straight-curve $-1 -46.778771324808496 -23.214502411350168 0 0 0 -1 I I #
edge $-1 $289 -23.214502411350168 $293 23.214502411350168 $287 $346 forward 7 unknown #
straight-curve $-1 0 -23.214502411350168 -9.4461281808152382 -1 0 0 I I #
vertex $-1 $203 $347 #
straight-curve $-1 0 23.214502411350168 -9.4461281808152382 1 0 0 I I #
point $-1 46.778771324808496 23.214502411350168 -9.4461281808152382 #
point $-1 46.778771324808496 -23.214502411350168 -9.4461281808152382 #
straight-curve $-1 -46.778771324808496 0 9.4461281808152382 0 -1 0 I I #
point $-1 -46.778771324808496 23.214502411350168 9.4461281808152382 #
point $-1 -46.778771324808496 -23.214502411350168 9.4461281808152382 #
straight-curve $-1 46.778771324808496 -23.214502411350168 0 0 0 -1 I I #
straight-curve $-1 46.778771324808496 23.214502411350168 0 0 0 -1 I I #
loop $-1 $-1 $233 $220 #
plane-surface $-1 0 -23.214502411350168 0 0 1 0 0 0 1 forward_v I I I I #
coedge $-1 $224 $223 $312 $348 reversed $83 $-1 #
coedge $-1 $236 $235 $223 $306 forward $221 $-1 #
edge $-1 $349 -1.7176691653111789 $309 1.7176691653111789 $223 $350 forward 7 unknown #
edge $-1 $308 -1.7176691653111789 $313 1.7176691653111789 $224 $351 forward 7 unknown #
vertex $-1 $228 $352 #
vertex $-1 $239 $353 #
straight-curve $-1 -57.227606862448447 -19.77916408072781 0 0 0 -1 I I #
straight-curve $-1 -52.003189093628471 -19.77916408072781 9.4461281808152382 -1 0 0 I I #
coedge $-1 $316 $229 $304 $348 forward $302 $-1 #
vertex $-1 $307 $354 #
straight-curve $-1 0 -23.214502411350168 9.4461281808152382 1 0 0 I I #
point $-1 -46.778771324808496 -23.214502411350168 9.4461281808152382 #
coedge $-1 $233 $312 $235 $318 reversed $302 $-1 #
straight-curve $-1 -46.778771324808496 -23.214502411350168 0 0 0 1 I I #
edge $-1 $237 -5.2244177688199755 $349 5.2244177688199755 $316 $355 forward 7 unknown #
point $-1 -46.778771324808496 -23.214502411350168 -9.4461281808152382 #
straight-curve $-1 -52.003189093628471 -19.77916408072781 -9.4461281808152382 1 0 0 I I #
coedge $-1 $253 $252 $245 $322 forward $242 $-1 #
edge $-1 $323 27.096019517107955 $326 31.881506725856951 $321 $356 forward 7 unknown #
vertex $-1 $257 $357 #
straight-curve $-1 -31.047564335284115 -43.510296914235632 9.4461281808152364 0 -1 0 I I #
edge $-1 $326 -18.037308848386992 $254 -7.9832021254072529 $253 $358 forward 7 unknown #
vertex $-1 $325 $359 #
straight-curve $-1 -31.047564335284115 -23.214502411350175 4.6606409720662327 0 0.7313536940579346 0.68199836817093118 I I #
point $-1 -31.047564335284115 -18.082695780533729 9.4461281808152382 #
point $-1 -20.993457612304375 -23.214502411350168 4.660640972066239 #
straight-curve $-1 0 -23.214502411350168 9.4461281808152382 1 0 0 I I #
vertex $-1 $260 $360 #
point $-1 -25.020510973794245 -18.443109576460003 4.6882866780321164 #
edge $-1 $334 27.096019517107955 $337 31.881506725856951 $265 $361 forward 7 unknown #
vertex $-1 $279 $362 #
straight-curve $-1 10.506789220704405 -43.510296914235632 9.4461281808152364 0 -1 0 I I #
edge $-1 $337 2.7398679296072679 $276 12.793974652587007 $275 $363 forward 7 unknown #
vertex $-1 $336 $364 #
straight-curve $-1 10.506789220704405 -23.214502411350175 4.6606409720662327 0 0.7313536940579346 0.68199836817093118 I I #
point $-1 10.506789220704405 -18.082695780533729 9.4461281808152382 #
point $-1 20.560895943684145 -23.214502411350168 4.660640972066239 #
straight-curve $-1 0 -23.214502411350168 9.4461281808152382 1 0 0 I I #
vertex $-1 $282 $365 #
point $-1 16.533842582194275 -18.443109576460003 4.6882866780321164 #
straight-curve $-1 -46.778771324808496 23.214502411350168 0 0 0 -1 I I #
point $-1 -46.778771324808496 -23.214502411350168 -9.4461281808152382 #
straight-curve $-1 -46.778771324808496 0 -9.4461281808152382 0 1 0 I I #
point $-1 -46.778771324808496 23.214502411350168 -9.4461281808152382 #
edge $-1 $313 -9.4461281808152382 $349 9.4461281808152382 $304 $366 forward 7 unknown #
vertex $-1 $306 $367 #
straight-curve $-1 -57.227606862448447 -21.496833246038989 -9.4461281808152382 0 1 0 I I #
straight-curve $-1 -57.227606862448447 -21.496833246038989 9.4461281808152382 0 -1 0 I I #
point $-1 -57.227606862448447 -19.77916408072781 9.4461281808152382 #
point $-1 -57.227606862448447 -19.77916408072781 -9.4461281808152382 #
point $-1 -57.227606862448447 -23.214502411350168 9.4461281808152382 #
straight-curve $-1 -52.003189093628471 -23.214502411350168 -9.4461281808152382 -1 0 0 I I #
straight-curve $-1 -31.047564335284115 -23.214502411350168 36.542147697923191 0 0 -1 I I #
point $-1 -31.047564335284115 -23.214502411350168 9.4461281808152382 #
straight-curve $-1 -13.010255486897123 -23.214502411350168 4.6606409720662398 1 0 0 I I #
point $-1 -31.047564335284115 -23.214502411350168 4.660640972066239 #
point $-1 -26.020510973794245 -17.761111208289073 3.9569329839741814 #
straight-curve $-1 10.506789220704405 -23.214502411350168 36.542147697923191 0 0 -1 I I #
point $-1 10.506789220704405 -23.214502411350168 9.4461281808152382 #
straight-curve $-1 7.7669212910971375 -23.214502411350168 4.6606409720662398 1 0 0 I I #
point $-1 10.506789220704405 -23.214502411350168 4.660640972066239 #
point $-1 15.533842582194275 -17.761111208289073 3.9569329839741814 #
straight-curve $-1 -57.227606862448447 -23.214502411350168 0 0 0 -1 I I #
point $-1 -57.227606862448447 -23.214502411350168 -9.4461281808152382 #
End-of-ACIS-data 