500 0 3 0           
7 Unknown 11 ACIS 5.0 NT 24 Fri Mar 26 17:25:09 1999 
-1 9.9999999999999995e-007 1e-010 
body $-1 $3 $-1 $4 #
body $-1 $5 $-1 $6 #
body $-1 $7 $-1 $8 #
lump $-1 $-1 $9 $0 #
transform $-1 1 0 0 0 1 0 0 0 1 78.4850611896115 47.212715265615778 22.29661434912477 1 rotate no_reflect no_shear #
lump $-1 $-1 $10 $1 #
transform $-1 1 0 0 0 1 0 0 0 1 78.4850611896115 47.212715265615778 22.29661434912477 1 rotate no_reflect no_shear #
lump $-1 $-1 $11 $2 #
transform $-1 1 0 0 0 1 0 0 0 1 78.4850611896115 47.212715265615778 22.29661434912477 1 rotate no_reflect no_shear #
shell $-1 $-1 $-1 $12 $-1 $3 #
shell $-1 $-1 $-1 $13 $-1 $5 #
shell $-1 $-1 $-1 $14 $-1 $7 #
face $-1 $15 $16 $9 $-1 $17 reversed single #
face $-1 $18 $19 $10 $-1 $20 forward single #
face $-1 $21 $22 $11 $-1 $23 reversed single #
face $-1 $24 $25 $9 $-1 $26 forward single #
loop $-1 $-1 $27 $12 #
plane-surface $-1 0 -47.212715265615778 0 0 1 0 0 0 1 forward_v I I I I #
face $-1 $28 $29 $10 $-1 $30 reversed single #
loop $-1 $-1 $31 $13 #
plane-surface $-1 0 -47.212715265615778 0 0 1 0 0 0 1 forward_v I I I I #
face $-1 $32 $33 $11 $-1 $34 reversed single #
loop $-1 $-1 $35 $14 #
plane-surface $-1 -72.864126016084924 25.600071523478711 0 0 1 0 0 0 1 forward_v I I I I #
face $-1 $36 $37 $9 $-1 $38 reversed single #
loop $-1 $-1 $39 $15 #
plane-surface $-1 0 0 22.29661434912477 0 0 1 1 0 0 forward_v I I I I #
coedge $-1 $40 $41 $42 $43 reversed $16 $-1 #
face $-1 $44 $45 $10 $-1 $46 reversed single #
loop $-1 $-1 $47 $18 #
plane-surface $-1 0 0 -22.29661434912477 0 0 1 1 0 0 forward_v I I I I #
coedge $-1 $48 $49 $50 $51 forward $19 $-1 #
face $-1 $52 $53 $11 $-1 $54 reversed single #
loop $-1 $-1 $55 $21 #
plane-surface $-1 -67.243190842558349 36.406393394547244 0 -1 0 0 0 0 1 forward_v I I I I #
coedge $-1 $56 $57 $58 $59 reversed $22 $-1 #
face $-1 $60 $61 $9 $-1 $62 reversed single #
loop $-1 $-1 $63 $24 #
plane-surface $-1 0 0 -22.29661434912477 0 0 1 1 0 0 forward_v I I I I #
coedge $-1 $64 $65 $66 $67 forward $25 $-1 #
coedge $-1 $68 $27 $69 $70 reversed $16 $-1 #
coedge $-1 $27 $68 $71 $72 forward $16 $-1 #
coedge $-1 $73 $63 $27 $43 forward $37 $-1 #
edge $-1 $74 -78.4850611896115 $75 78.4850611896115 $27 $76 forward 7 unknown #
face $-1 $77 $78 $10 $-1 $79 reversed single #
loop $-1 $-1 $80 $28 #
plane-surface $-1 -38.858573962833148 -71.190336606167222 0 0 1 0 0 0 1 forward_v I I I I #
coedge $-1 $81 $82 $49 $83 forward $29 $-1 #
coedge $-1 $84 $31 $85 $86 reversed $19 $-1 #
coedge $-1 $31 $84 $47 $83 reversed $19 $-1 #
coedge $-1 $87 $88 $31 $51 reversed $78 $-1 #
edge $-1 $89 -22.29661434912477 $90 22.29661434912477 $50 $91 forward 7 unknown #
face $-1 $92 $93 $11 $-1 $94 reversed single #
loop $-1 $-1 $95 $32 #
plane-surface $-1 0 0 -22.29661434912477 0 0 1 1 0 0 forward_v I I I I #
coedge $-1 $96 $97 $98 $99 forward $33 $-1 #
coedge $-1 $98 $35 $100 $101 reversed $22 $-1 #
coedge $-1 $35 $98 $102 $103 reversed $22 $-1 #
coedge $-1 $104 $105 $35 $59 forward $93 $-1 #
edge $-1 $106 -22.29661434912477 $107 22.29661434912477 $58 $108 forward 7 unknown #
face $-1 $109 $110 $9 $-1 $111 reversed single #
loop $-1 $-1 $112 $36 #
plane-surface $-1 -78.4850611896115 0 0 1 0 0 0 0 -1 forward_v I I I I #
coedge $-1 $42 $113 $114 $115 forward $37 $-1 #
coedge $-1 $116 $39 $117 $118 forward $25 $-1 #
coedge $-1 $39 $116 $68 $119 forward $25 $-1 #
coedge $-1 $69 $120 $39 $67 reversed $121 $-1 #
edge $-1 $122 -47.212715265615778 $123 47.212715265615778 $66 $124 forward 7 unknown #
coedge $-1 $41 $40 $65 $119 reversed $16 $-1 #
coedge $-1 $114 $66 $40 $70 forward $121 $-1 #
edge $-1 $122 -22.29661434912477 $74 22.29661434912477 $69 $125 forward 7 unknown #
coedge $-1 $126 $127 $41 $72 reversed $61 $-1 #
edge $-1 $128 -22.29661434912477 $75 22.29661434912477 $71 $129 forward 7 unknown #
coedge $-1 $113 $42 $127 $130 forward $37 $-1 #
vertex $-1 $70 $131 #
vertex $-1 $130 $132 #
straight-curve $-1 0 -47.212715265615778 -22.29661434912477 -1 0 0 I I #
face $-1 $133 $134 $10 $-1 $135 reversed single #
loop $-1 $-1 $50 $44 #
plane-surface $-1 -43.825315434304343 -59.201525935891503 0 1 0 0 0 0 -1 forward_v I I I I #
coedge $-1 $136 $137 $138 $139 forward $45 $-1 #
coedge $-1 $140 $47 $141 $142 forward $29 $-1 #
coedge $-1 $47 $140 $87 $143 forward $29 $-1 #
edge $-1 $89 -43.825315434304343 $144 -33.891832491361953 $47 $145 forward 7 unknown #
coedge $-1 $49 $48 $146 $147 forward $19 $-1 #
coedge $-1 $148 $149 $48 $86 forward $150 $-1 #
edge $-1 $151 33.891832491361953 $90 43.825315434304343 $85 $152 forward 7 unknown #
coedge $-1 $138 $50 $82 $143 reversed $78 $-1 #
coedge $-1 $50 $138 $148 $153 reversed $78 $-1 #
vertex $-1 $83 $154 #
vertex $-1 $153 $155 #
straight-curve $-1 -43.825315434304343 -47.212715265615778 0 0 0 1 I I #
face $-1 $156 $157 $11 $-1 $158 forward single #
loop $-1 $-1 $58 $52 #
plane-surface $-1 -78.4850611896115 0 0 1 0 0 0 0 -1 forward_v I I I I #
coedge $-1 $100 $159 $96 $160 forward $53 $-1 #
coedge $-1 $161 $55 $95 $160 reversed $33 $-1 #
coedge $-1 $55 $161 $162 $163 reversed $33 $-1 #
coedge $-1 $57 $56 $55 $99 reversed $22 $-1 #
edge $-1 $164 -22.29661434912477 $165 22.29661434912477 $55 $166 forward 7 unknown #
coedge $-1 $167 $95 $56 $101 forward $53 $-1 #
edge $-1 $165 30.811127834515887 $106 42.052998181569038 $100 $168 forward 7 unknown #
coedge $-1 $162 $169 $57 $103 forward $157 $-1 #
edge $-1 $107 -42.052998181569038 $164 -30.811127834515887 $102 $170 forward 7 unknown #
coedge $-1 $171 $58 $169 $172 reversed $93 $-1 #
coedge $-1 $58 $171 $167 $173 reversed $93 $-1 #
vertex $-1 $173 $174 #
vertex $-1 $59 $175 #
straight-curve $-1 -78.4850611896115 25.600071523478711 0 0 0 1 I I #
face $-1 $-1 $121 $9 $-1 $176 reversed single #
loop $-1 $-1 $177 $60 #
plane-surface $-1 0 47.212715265615778 0 0 -1 0 0 0 -1 forward_v I I I I #
coedge $-1 $127 $126 $178 $179 forward $61 $-1 #
coedge $-1 $63 $73 $180 $181 forward $37 $-1 #
coedge $-1 $120 $69 $63 $115 reversed $121 $-1 #
edge $-1 $182 -47.212715265615778 $74 47.212715265615778 $114 $183 forward 7 unknown #
coedge $-1 $65 $64 $126 $184 forward $25 $-1 #
coedge $-1 $177 $178 $64 $118 reversed $110 $-1 #
edge $-1 $123 -78.4850611896115 $185 78.4850611896115 $117 $186 forward 7 unknown #
edge $-1 $128 -78.4850611896115 $122 78.4850611896115 $68 $187 forward 7 unknown #
coedge $-1 $66 $114 $177 $188 reversed $121 $-1 #
loop $-1 $-1 $69 $109 #
vertex $-1 $67 $189 #
vertex $-1 $67 $190 #
straight-curve $-1 78.4850611896115 0 22.29661434912477 0 1 0 I I #
straight-curve $-1 78.4850611896115 -47.212715265615778 0 0 0 -1 I I #
coedge $-1 $112 $71 $116 $184 reversed $61 $-1 #
coedge $-1 $71 $112 $73 $130 reversed $61 $-1 #
vertex $-1 $184 $191 #
straight-curve $-1 -78.4850611896115 -47.212715265615778 0 0 0 -1 I I #
edge $-1 $75 -47.212715265615778 $192 47.212715265615778 $127 $193 forward 7 unknown #
point $-1 78.4850611896115 -47.212715265615778 -22.29661434912477 #
point $-1 -78.4850611896115 -47.212715265615778 -22.29661434912477 #
face $-1 $-1 $150 $10 $-1 $194 forward single #
loop $-1 $-1 $195 $77 #
plane-surface $-1 -33.891832491361953 -59.201525935891503 0 -1 0 0 0 0 1 forward_v I I I I #
coedge $-1 $196 $80 $140 $197 reversed $45 $-1 #
coedge $-1 $80 $196 $198 $199 reversed $45 $-1 #
coedge $-1 $88 $87 $80 $139 reversed $78 $-1 #
edge $-1 $200 -22.29661434912477 $201 22.29661434912477 $138 $202 forward 7 unknown #
coedge $-1 $82 $81 $136 $197 forward $29 $-1 #
coedge $-1 $146 $195 $81 $142 reversed $134 $-1 #
edge $-1 $144 -11.988810670275726 $203 11.988810670275718 $141 $204 forward 7 unknown #
edge $-1 $201 -11.988810670275718 $89 11.988810670275726 $87 $205 forward 7 unknown #
vertex $-1 $142 $206 #
straight-curve $-1 0 -47.212715265615778 -22.29661434912477 1 0 0 I I #
coedge $-1 $207 $141 $84 $147 reversed $134 $-1 #
edge $-1 $151 -22.29661434912477 $144 22.29661434912477 $146 $208 forward 7 unknown #
coedge $-1 $198 $85 $88 $153 forward $150 $-1 #
coedge $-1 $85 $198 $207 $209 forward $150 $-1 #
loop $-1 $-1 $85 $133 #
vertex $-1 $86 $210 #
straight-curve $-1 0 -47.212715265615778 22.29661434912477 -1 0 0 I I #
edge $-1 $90 -11.988810670275726 $200 11.988810670275718 $88 $211 forward 7 unknown #
point $-1 -43.825315434304343 -47.212715265615778 -22.29661434912477 #
point $-1 -43.825315434304343 -47.212715265615778 22.29661434912477 #
face $-1 $-1 $212 $11 $-1 $213 reversed single #
loop $-1 $-1 $162 $92 #
plane-surface $-1 0 0 22.29661434912477 0 0 1 1 0 0 forward_v I I I I #
coedge $-1 $95 $167 $214 $215 forward $53 $-1 #
edge $-1 $216 -29.009518568342155 $165 -7.3968748262050887 $95 $217 forward 7 unknown #
coedge $-1 $97 $96 $218 $219 reversed $33 $-1 #
coedge $-1 $220 $102 $97 $163 forward $157 $-1 #
edge $-1 $164 7.3968748262050887 $221 29.009518568342155 $162 $222 forward 7 unknown #
vertex $-1 $103 $223 #
vertex $-1 $101 $224 #
straight-curve $-1 -67.243190842558349 25.600071523478711 0 0 0 -1 I I #
coedge $-1 $159 $100 $105 $173 forward $53 $-1 #
straight-curve $-1 -36.432063008042462 25.600071523478711 -22.29661434912477 -1 0 0 I I #
coedge $-1 $102 $220 $104 $172 forward $157 $-1 #
straight-curve $-1 -36.432063008042462 25.600071523478711 22.29661434912477 1 0 0 I I #
coedge $-1 $105 $104 $225 $226 forward $93 $-1 #
edge $-1 $227 -47.212715265615778 $107 -25.600071523478711 $104 $228 forward 7 unknown #
edge $-1 $106 25.600071523478711 $229 47.212715265615778 $105 $230 forward 7 unknown #
point $-1 -78.4850611896115 25.600071523478711 -22.29661434912477 #
point $-1 -78.4850611896115 25.600071523478711 22.29661434912477 #
plane-surface $-1 78.4850611896115 0 0 -1 0 0 0 0 1 forward_v I I I I #
coedge $-1 $180 $117 $120 $188 forward $110 $-1 #
coedge $-1 $117 $180 $112 $179 reversed $110 $-1 #
edge $-1 $185 -22.29661434912477 $192 22.29661434912477 $178 $231 forward 7 unknown #
coedge $-1 $178 $177 $113 $181 reversed $110 $-1 #
edge $-1 $192 -78.4850611896115 $182 78.4850611896115 $180 $232 forward 7 unknown #
vertex $-1 $115 $233 #
straight-curve $-1 78.4850611896115 0 -22.29661434912477 0 -1 0 I I #
edge $-1 $185 -47.212715265615778 $128 47.212715265615778 $126 $234 forward 7 unknown #
vertex $-1 $118 $235 #
straight-curve $-1 0 47.212715265615778 22.29661434912477 -1 0 0 I I #
straight-curve $-1 0 -47.212715265615778 22.29661434912477 1 0 0 I I #
edge $-1 $123 -22.29661434912477 $182 22.29661434912477 $120 $236 forward 7 unknown #
point $-1 78.4850611896115 -47.212715265615778 22.29661434912477 #
point $-1 78.4850611896115 47.212715265615778 22.29661434912477 #
point $-1 -78.4850611896115 -47.212715265615778 22.29661434912477 #
vertex $-1 $181 $237 #
straight-curve $-1 -78.4850611896115 0 -22.29661434912477 0 1 0 I I #
plane-surface $-1 0 0 22.29661434912477 0 0 1 1 0 0 forward_v I I I I #
coedge $-1 $141 $207 $196 $238 forward $134 $-1 #
coedge $-1 $137 $136 $195 $238 reversed $45 $-1 #
edge $-1 $203 -4.9667414714711953 $201 4.9667414714711953 $136 $239 forward 7 unknown #
coedge $-1 $149 $148 $137 $199 forward $150 $-1 #
edge $-1 $200 -4.9667414714711953 $240 4.9667414714711953 $137 $241 forward 7 unknown #
vertex $-1 $153 $242 #
vertex $-1 $143 $243 #
straight-curve $-1 -43.825315434304343 -71.190336606167222 0 0 0 -1 I I #
vertex $-1 $238 $244 #
straight-curve $-1 -33.891832491361953 -59.201525935891503 -22.29661434912477 0 -1 0 I I #
straight-curve $-1 -43.825315434304343 -59.201525935891503 -22.29661434912477 0 1 0 I I #
point $-1 -33.891832491361953 -47.212715265615778 -22.29661434912477 #
coedge $-1 $195 $146 $149 $209 reversed $134 $-1 #
straight-curve $-1 -33.891832491361953 -47.212715265615778 0 0 0 -1 I I #
edge $-1 $240 -11.988810670275718 $151 11.988810670275726 $207 $245 forward 7 unknown #
point $-1 -33.891832491361953 -47.212715265615778 22.29661434912477 #
straight-curve $-1 -43.825315434304343 -59.201525935891503 22.29661434912477 0 -1 0 I I #
loop $-1 $-1 $218 $156 #
plane-surface $-1 0 47.212715265615778 0 0 -1 0 0 0 -1 forward_v I I I I #
coedge $-1 $225 $218 $159 $215 reversed $212 $-1 #
edge $-1 $229 -78.4850611896115 $216 -67.243190842558349 $214 $246 forward 7 unknown #
vertex $-1 $219 $247 #
straight-curve $-1 -67.243190842558349 18.203196697273622 -22.29661434912477 0 -1 0 I I #
coedge $-1 $214 $248 $161 $219 forward $212 $-1 #
edge $-1 $221 -22.29661434912477 $216 22.29661434912477 $218 $249 forward 7 unknown #
coedge $-1 $169 $162 $248 $250 forward $157 $-1 #
vertex $-1 $250 $251 #
straight-curve $-1 -67.243190842558349 18.203196697273622 22.29661434912477 0 1 0 I I #
point $-1 -67.243190842558349 25.600071523478711 22.29661434912477 #
point $-1 -67.243190842558349 25.600071523478711 -22.29661434912477 #
coedge $-1 $248 $214 $171 $226 reversed $212 $-1 #
edge $-1 $227 -22.29661434912477 $229 22.29661434912477 $225 $252 forward 7 unknown #
vertex $-1 $250 $253 #
straight-curve $-1 -78.4850611896115 0 22.29661434912477 0 -1 0 I I #
vertex $-1 $215 $254 #
straight-curve $-1 -78.4850611896115 0 -22.29661434912477 0 1 0 I I #
straight-curve $-1 -78.4850611896115 47.212715265615778 0 0 0 -1 I I #
straight-curve $-1 0 47.212715265615778 -22.29661434912477 1 0 0 I I #
point $-1 78.4850611896115 47.212715265615778 -22.29661434912477 #
straight-curve $-1 -78.4850611896115 0 22.29661434912477 0 -1 0 I I #
point $-1 -78.4850611896115 47.212715265615778 22.29661434912477 #
straight-curve $-1 78.4850611896115 47.212715265615778 0 0 0 -1 I I #
point $-1 -78.4850611896115 47.212715265615778 -22.29661434912477 #
edge $-1 $240 -22.29661434912477 $203 22.29661434912477 $195 $255 forward 7 unknown #
straight-curve $-1 -38.858573962833148 -71.190336606167222 -22.29661434912477 -1 0 0 I I #
vertex $-1 $209 $256 #
straight-curve $-1 -38.858573962833148 -71.190336606167222 22.29661434912477 1 0 0 I I #
point $-1 -43.825315434304343 -71.190336606167222 22.29661434912477 #
point $-1 -43.825315434304343 -71.190336606167222 -22.29661434912477 #
point $-1 -33.891832491361953 -71.190336606167222 -22.29661434912477 #
straight-curve $-1 -33.891832491361953 -59.201525935891503 22.29661434912477 0 1 0 I I #
straight-curve $-1 0 47.212715265615778 -22.29661434912477 1 0 0 I I #
point $-1 -67.243190842558349 47.212715265615778 -22.29661434912477 #
coedge $-1 $218 $225 $220 $250 reversed $212 $-1 #
straight-curve $-1 -67.243190842558349 47.212715265615778 0 0 0 -1 I I #
edge $-1 $221 67.243190842558349 $227 78.4850611896115 $248 $257 forward 7 unknown #
point $-1 -67.243190842558349 47.212715265615778 22.29661434912477 #
straight-curve $-1 -78.4850611896115 47.212715265615778 0 0 0 -1 I I #
point $-1 -78.4850611896115 47.212715265615778 22.29661434912477 #
point $-1 -78.4850611896115 47.212715265615778 -22.29661434912477 #
straight-curve $-1 -33.891832491361953 -71.190336606167222 0 0 0 -1 I I #
point $-1 -33.891832491361953 -71.190336606167222 22.29661434912477 #
straight-curve $-1 0 47.212715265615778 22.29661434912477 -1 0 0 I I #
End-of-ACIS-data 