500 0 5 0           
7 Unknown 11 ACIS 5.0 NT 24 Fri Mar 26 20:18:53 1999 
-1 9.9999999999999995e-007 1e-010 
body $-1 $5 $-1 $6 #
body $-1 $7 $-1 $8 #
body $-1 $9 $-1 $10 #
body $-1 $11 $-1 $12 #
body $-1 $13 $-1 $14 #
lump $-1 $-1 $15 $0 #
transform $-1 1 0 0 0 1 0 0 0 1 70.392773216956087 33.298164176930989 13.076086536657597 1 rotate no_reflect no_shear #
lump $-1 $-1 $16 $1 #
transform $-1 1 0 0 0 1 0 0 0 1 70.392773216956087 33.298164176930989 13.076086536657597 1 rotate no_reflect no_shear #
lump $-1 $-1 $17 $2 #
transform $-1 1 0 0 0 1 0 0 0 1 70.392773216956087 33.298164176930989 13.076086536657597 1 rotate no_reflect no_shear #
lump $-1 $-1 $18 $3 #
transform $-1 1 0 0 0 1 0 0 0 1 70.392773216956087 33.298164176930989 13.076086536657597 1 rotate no_reflect no_shear #
lump $-1 $-1 $19 $4 #
transform $-1 1 0 0 0 1 0 0 0 1 70.392773216956087 33.298164176930989 13.076086536657597 1 rotate no_reflect no_shear #
shell $-1 $-1 $-1 $20 $-1 $5 #
shell $-1 $-1 $-1 $21 $-1 $7 #
shell $-1 $-1 $-1 $22 $-1 $9 #
shell $-1 $-1 $-1 $23 $-1 $11 #
shell $-1 $-1 $-1 $24 $-1 $13 #
face $-1 $25 $26 $15 $-1 $27 forward single #
face $-1 $28 $29 $16 $-1 $30 forward single #
face $-1 $31 $32 $17 $-1 $33 forward single #
face $-1 $34 $35 $18 $-1 $36 reversed single #
face $-1 $37 $38 $19 $-1 $39 forward single #
face $-1 $40 $41 $15 $-1 $42 reversed single #
loop $-1 $-1 $43 $20 #
plane-surface $-1 0 0 13.076086536657597 0 0 1 1 0 0 forward_v I I I I #
face $-1 $44 $45 $16 $-1 $46 forward single #
loop $-1 $-1 $47 $21 #
plane-surface $-1 0 -33.298164176930989 0 0 1 0 0 0 1 forward_v I I I I #
face $-1 $48 $49 $17 $-1 $50 reversed single #
loop $-1 $-1 $51 $22 #
plane-surface $-1 0 33.298164176930989 0 0 -1 0 0 0 -1 forward_v I I I I #
face $-1 $52 $53 $18 $-1 $54 reversed single #
loop $-1 $-1 $55 $23 #
plane-surface $-1 42.683295300932826 15.00455049028195 197.87876295495894 0 -1 0 -0.6018150307709319 0 -0.79863550430605224 forward_v I I I I #
face $-1 $56 $57 $19 $-1 $58 forward single #
loop $-1 $59 $60 $24 #
cone-surface $-1 60.766672711175595 9.690789843162527 5.0052928029069248 -0.6018150307709319 0 -0.79863550430605224 1.9965887607651305 0 -1.5045375769273297 1 I I 0 1 2.5 forward I I I I #
face $-1 $61 $62 $15 $-1 $63 reversed single #
loop $-1 $-1 $64 $25 #
plane-surface $-1 0 0 -13.076086536657597 0 0 1 1 0 0 forward_v I I I I #
coedge $-1 $65 $66 $67 $68 forward $26 $-1 #
face $-1 $69 $70 $16 $-1 $71 reversed single #
loop $-1 $-1 $72 $28 #
plane-surface $-1 0 0 13.076086536657597 0 0 1 1 0 0 forward_v I I I I #
coedge $-1 $73 $74 $75 $76 forward $29 $-1 #
face $-1 $77 $78 $17 $-1 $79 reversed single #
loop $-1 $-1 $80 $31 #
plane-surface $-1 70.392773216956087 0 0 -1 0 0 0 0 1 forward_v I I I I #
coedge $-1 $81 $82 $83 $84 forward $32 $-1 #
face $-1 $85 $86 $18 $-1 $87 reversed single #
loop $-1 $-1 $88 $34 #
plane-surface $-1 -42.043562658294491 9.690789843162527 85.442427079708366 0.6018150307709319 0 0.79863550430605224 0.79863550430605224 0 -0.6018150307709319 forward_v I I I I #
coedge $-1 $89 $90 $91 $92 reversed $35 $-1 #
face $-1 $-1 $93 $19 $-1 $94 forward single #
loop $-1 $95 $96 $37 #
cone-surface $-1 58.58978356898605 9.690789843162527 2.1164633968619757 -0.6018150307709319 0 -0.79863550430605224 0.99829438038256524 0 -0.75226878846366485 1 I I -0.70710678118654746 0.70710678118654746 1.25 forward I I I I #
loop $-1 $-1 $97 $24 #
coedge $-1 $60 $60 $98 $99 reversed $38 $-1 #
face $-1 $100 $101 $15 $-1 $102 reversed single #
loop $-1 $-1 $103 $40 #
plane-surface $-1 0 -33.298164176930989 0 0 1 0 0 0 1 forward_v I I I I #
coedge $-1 $104 $105 $106 $107 forward $41 $-1 #
coedge $-1 $108 $43 $109 $110 forward $26 $-1 #
coedge $-1 $43 $108 $111 $112 forward $26 $-1 #
coedge $-1 $113 $114 $43 $68 reversed $115 $-1 #
edge $-1 $116 -33.298164176930989 $117 33.298164176930989 $67 $118 forward 7 unknown #
face $-1 $119 $120 $16 $-1 $121 reversed single #
loop $-1 $-1 $122 $44 #
plane-surface $-1 -70.392773216956087 0 0 1 0 0 0 0 -1 forward_v I I I I #
coedge $-1 $123 $124 $125 $126 forward $45 $-1 #
coedge $-1 $125 $47 $122 $127 reversed $29 $-1 #
coedge $-1 $47 $125 $128 $129 reversed $29 $-1 #
coedge $-1 $130 $131 $47 $76 reversed $120 $-1 #
edge $-1 $132 -70.392773216956087 $133 70.392773216956087 $75 $134 forward 7 unknown #
face $-1 $135 $136 $17 $-1 $137 reversed single #
loop $-1 $-1 $138 $48 #
plane-surface $-1 0 40.844303601924814 7.153916688294732 0 0 1 1 0 0 forward_v I I I I #
coedge $-1 $139 $140 $81 $141 forward $49 $-1 #
coedge $-1 $142 $51 $80 $141 reversed $32 $-1 #
coedge $-1 $51 $142 $143 $144 reversed $32 $-1 #
coedge $-1 $145 $138 $51 $84 reversed $78 $-1 #
edge $-1 $146 -70.392773216956087 $147 70.392773216956087 $83 $148 forward 7 unknown #
face $-1 $149 $150 $18 $-1 $151 forward single #
loop $-1 $-1 $152 $52 #
plane-surface $-1 42.683295300932826 4.3770291960431038 197.87876295495894 0 1 0 0.6018150307709319 0 0.79863550430605224 forward_v I I I I #
coedge $-1 $153 $154 $155 $156 reversed $53 $-1 #
coedge $-1 $90 $55 $157 $158 reversed $35 $-1 #
coedge $-1 $55 $89 $153 $159 reversed $35 $-1 #
coedge $-1 $155 $160 $55 $92 forward $150 $-1 #
edge $-1 $161 -49.051125566489674 $162 -32.648165262380402 $91 $163 forward 7 unknown #
loop $-1 $-1 $98 $56 #
plane-surface $-1 -42.043562658294491 9.690789843162527 85.442427079708366 0.6018150307709319 0 0.79863550430605224 0.79863550430605224 0 -0.6018150307709319 forward_v I I I I #
loop $-1 $-1 $164 $37 #
coedge $-1 $96 $96 $97 $165 reversed $57 $-1 #
coedge $-1 $97 $97 $96 $165 forward $59 $-1 #
coedge $-1 $98 $98 $60 $99 forward $93 $-1 #
edge $-1 $166 0 $166 6.2831853071796004 $98 $167 forward 7 unknown #
face $-1 $168 $169 $15 $-1 $170 reversed single #
loop $-1 $-1 $171 $61 #
plane-surface $-1 -70.392773216956087 0 0 1 0 0 0 0 -1 forward_v I I I I #
coedge $-1 $172 $111 $173 $174 forward $62 $-1 #
coedge $-1 $175 $64 $172 $176 forward $41 $-1 #
coedge $-1 $64 $175 $177 $178 forward $41 $-1 #
coedge $-1 $114 $113 $64 $107 reversed $115 $-1 #
edge $-1 $179 -33.298164176930989 $180 33.298164176930989 $106 $181 forward 7 unknown #
coedge $-1 $66 $65 $182 $183 forward $26 $-1 #
coedge $-1 $184 $185 $65 $110 reversed $169 $-1 #
edge $-1 $117 -70.392773216956087 $186 70.392773216956087 $109 $187 forward 7 unknown #
coedge $-1 $103 $188 $66 $112 reversed $62 $-1 #
edge $-1 $189 -70.392773216956087 $116 70.392773216956087 $111 $190 forward 7 unknown #
coedge $-1 $106 $67 $188 $191 forward $115 $-1 #
coedge $-1 $67 $106 $184 $192 reversed $115 $-1 #
loop $-1 $-1 $113 $168 #
vertex $-1 $68 $193 #
vertex $-1 $68 $194 #
straight-curve $-1 70.392773216956087 0 13.076086536657597 0 1 0 I I #
face $-1 $195 $196 $16 $-1 $197 reversed single #
loop $-1 $-1 $130 $69 #
plane-surface $-1 0 -40.844303601924814 7.153916688294732 0 0 1 1 0 0 forward_v I I I I #
coedge $-1 $198 $199 $73 $127 forward $70 $-1 #
coedge $-1 $200 $72 $199 $201 forward $45 $-1 #
coedge $-1 $72 $200 $202 $203 forward $45 $-1 #
coedge $-1 $74 $73 $72 $126 reversed $29 $-1 #
edge $-1 $204 -70.392773216956087 $205 70.392773216956087 $72 $206 forward 7 unknown #
edge $-1 $205 -13.076086536657597 $133 -7.153916688294732 $122 $207 forward 7 unknown #
coedge $-1 $202 $208 $74 $129 forward $209 $-1 #
edge $-1 $132 7.153916688294732 $204 13.076086536657597 $128 $210 forward 7 unknown #
coedge $-1 $211 $75 $208 $212 forward $120 $-1 #
coedge $-1 $75 $211 $198 $213 forward $120 $-1 #
vertex $-1 $129 $214 #
vertex $-1 $127 $215 #
straight-curve $-1 0 -33.298164176930989 7.153916688294732 -1 0 0 I I #
face $-1 $216 $217 $17 $-1 $218 forward single #
loop $-1 $-1 $219 $77 #
plane-surface $-1 0 48.390443026918639 10.115001612476165 0 -1 0 0 0 -1 forward_v I I I I #
coedge $-1 $83 $220 $139 $221 forward $78 $-1 #
coedge $-1 $222 $80 $138 $221 reversed $49 $-1 #
coedge $-1 $80 $222 $223 $224 reversed $49 $-1 #
edge $-1 $225 -13.076086536657597 $147 -7.153916688294732 $80 $226 forward 7 unknown #
coedge $-1 $82 $81 $227 $228 reversed $32 $-1 #
coedge $-1 $229 $230 $82 $144 forward $231 $-1 #
edge $-1 $146 7.153916688294732 $232 13.076086536657597 $143 $233 forward 7 unknown #
coedge $-1 $220 $83 $230 $234 forward $78 $-1 #
vertex $-1 $144 $235 #
vertex $-1 $141 $236 #
straight-curve $-1 0 33.298164176930989 7.153916688294732 1 0 0 I I #
face $-1 $-1 $237 $18 $-1 $238 reversed single #
loop $-1 $-1 $91 $85 #
plane-surface $-1 0 0 13.076086536657597 0 0 1 1 0 0 forward_v I I I I #
coedge $-1 $239 $240 $241 $242 reversed $86 $-1 #
coedge $-1 $243 $88 $90 $159 forward $53 $-1 #
coedge $-1 $88 $243 $239 $244 forward $53 $-1 #
coedge $-1 $241 $91 $88 $156 forward $150 $-1 #
edge $-1 $162 -10.159155568700687 $245 0.46836572553815969 $155 $246 forward 7 unknown #
coedge $-1 $247 $248 $89 $158 forward $237 $-1 #
edge $-1 $249 -98.223812356998423 $161 -85.863294940821874 $157 $250 forward 7 unknown #
edge $-1 $162 120.24681479016679 $249 140.78554643391217 $90 $251 forward 7 unknown #
coedge $-1 $91 $241 $247 $252 forward $150 $-1 #
vertex $-1 $158 $253 #
vertex $-1 $92 $254 #
straight-curve $-1 21.341647650466413 15.00455049028195 13.076086536657598 -1 0 0 I I #
coedge $-1 $164 $164 $-1 $255 reversed $95 $-1 #
edge $-1 $256 0 $256 6.2831853071796004 $96 $257 forward 7 unknown #
vertex $-1 $99 $258 #
ellipse-curve $-1 62.191293064901473 9.690789843162527 6.8958278285693115 0.6018150307709319 0 0.79863550430605224 1.9965887607651305 0 -1.5045375769273297 1 I I #
face $-1 $-1 $115 $15 $-1 $259 reversed single #
loop $-1 $-1 $184 $100 #
plane-surface $-1 0 33.298164176930989 0 0 -1 0 0 0 -1 forward_v I I I I #
coedge $-1 $260 $182 $185 $261 forward $101 $-1 #
coedge $-1 $188 $103 $104 $176 reversed $62 $-1 #
coedge $-1 $182 $260 $103 $174 reversed $101 $-1 #
edge $-1 $189 -13.076086536657597 $262 13.076086536657597 $173 $263 forward 7 unknown #
coedge $-1 $105 $104 $260 $264 forward $41 $-1 #
edge $-1 $180 -70.392773216956087 $262 70.392773216956087 $172 $265 forward 7 unknown #
coedge $-1 $185 $184 $105 $178 reversed $169 $-1 #
edge $-1 $266 -70.392773216956087 $179 70.392773216956087 $177 $267 forward 7 unknown #
vertex $-1 $107 $268 #
vertex $-1 $191 $269 #
straight-curve $-1 70.392773216956087 0 -13.076086536657597 0 -1 0 I I #
coedge $-1 $171 $173 $108 $183 reversed $101 $-1 #
edge $-1 $186 -33.298164176930989 $189 33.298164176930989 $182 $270 forward 7 unknown #
coedge $-1 $177 $109 $114 $192 forward $169 $-1 #
coedge $-1 $109 $177 $171 $261 reversed $169 $-1 #
vertex $-1 $110 $271 #
straight-curve $-1 0 33.298164176930989 13.076086536657597 -1 0 0 I I #
coedge $-1 $111 $172 $113 $191 reversed $62 $-1 #
vertex $-1 $183 $272 #
straight-curve $-1 0 -33.298164176930989 13.076086536657597 1 0 0 I I #
edge $-1 $116 -13.076086536657597 $180 13.076086536657597 $113 $273 forward 7 unknown #
edge $-1 $117 -13.076086536657597 $179 13.076086536657597 $114 $274 forward 7 unknown #
point $-1 70.392773216956087 -33.298164176930989 13.076086536657597 #
point $-1 70.392773216956087 33.298164176930989 13.076086536657597 #
face $-1 $-1 $209 $16 $-1 $275 reversed single #
loop $-1 $-1 $276 $119 #
plane-surface $-1 0 -48.390443026918639 10.115001612476165 0 1 0 0 0 1 forward_v I I I I #
coedge $-1 $277 $122 $131 $213 reversed $70 $-1 #
coedge $-1 $122 $277 $123 $201 reversed $70 $-1 #
coedge $-1 $124 $123 $278 $279 forward $45 $-1 #
edge $-1 $205 33.298164176930989 $280 48.390443026918639 $199 $281 forward 7 unknown #
coedge $-1 $282 $128 $124 $203 reversed $209 $-1 #
edge $-1 $283 -48.390443026918639 $204 -33.298164176930989 $202 $284 forward 7 unknown #
vertex $-1 $129 $285 #
vertex $-1 $201 $286 #
straight-curve $-1 0 -33.298164176930989 13.076086536657597 -1 0 0 I I #
straight-curve $-1 -70.392773216956087 -33.298164176930989 0 0 0 -1 I I #
coedge $-1 $128 $282 $130 $212 reversed $209 $-1 #
loop $-1 $-1 $128 $195 #
straight-curve $-1 70.392773216956087 -33.298164176930989 0 0 0 1 I I #
coedge $-1 $131 $130 $287 $288 forward $120 $-1 #
edge $-1 $132 -7.5461394249938252 $289 7.5461394249938252 $208 $290 forward 7 unknown #
edge $-1 $291 -7.5461394249938252 $133 7.5461394249938252 $198 $292 forward 7 unknown #
point $-1 70.392773216956087 -33.298164176930989 7.153916688294732 #
point $-1 -70.392773216956087 -33.298164176930989 7.153916688294732 #
face $-1 $-1 $231 $17 $-1 $293 reversed single #
loop $-1 $-1 $227 $135 #
plane-surface $-1 0 0 13.076086536657597 0 0 1 1 0 0 forward_v I I I I #
coedge $-1 $294 $295 $222 $296 forward $136 $-1 #
coedge $-1 $138 $145 $294 $297 forward $78 $-1 #
edge $-1 $298 -7.5461394249938252 $147 7.5461394249938252 $139 $299 forward 7 unknown #
coedge $-1 $140 $139 $219 $296 reversed $49 $-1 #
coedge $-1 $300 $227 $140 $224 forward $217 $-1 #
edge $-1 $225 33.298164176930989 $301 48.390443026918639 $140 $302 forward 7 unknown #
vertex $-1 $224 $303 #
straight-curve $-1 70.392773216956087 33.298164176930989 0 0 0 -1 I I #
coedge $-1 $223 $304 $142 $228 forward $217 $-1 #
edge $-1 $232 -70.392773216956087 $225 70.392773216956087 $227 $305 forward 7 unknown #
coedge $-1 $306 $143 $304 $307 reversed $231 $-1 #
coedge $-1 $143 $306 $145 $234 reversed $231 $-1 #
loop $-1 $-1 $143 $216 #
vertex $-1 $144 $308 #
straight-curve $-1 -70.392773216956087 33.298164176930989 0 0 0 1 I I #
edge $-1 $146 -7.5461394249938252 $309 7.5461394249938252 $230 $310 forward 7 unknown #
point $-1 -70.392773216956087 33.298164176930989 7.153916688294732 #
point $-1 70.392773216956087 33.298164176930989 7.153916688294732 #
loop $-1 $-1 $157 $149 #
plane-surface $-1 70.392773216956087 0 0 -1 0 0 0 0 1 forward_v I I I I #
coedge $-1 $240 $152 $154 $244 reversed $86 $-1 #
coedge $-1 $152 $239 $311 $312 reversed $86 $-1 #
coedge $-1 $160 $155 $152 $242 forward $150 $-1 #
edge $-1 $245 32.648165262380402 $313 49.051125566489674 $241 $314 forward 7 unknown #
coedge $-1 $154 $153 $248 $315 reversed $53 $-1 #
edge $-1 $316 -140.78554643391217 $245 -120.24681479016679 $239 $317 forward 7 unknown #
vertex $-1 $156 $318 #
straight-curve $-1 53.98981291284683 4.8453949215812635 13.076086536657598 0 -1 0 I I #
coedge $-1 $311 $157 $160 $252 reversed $237 $-1 #
coedge $-1 $157 $311 $243 $315 forward $237 $-1 #
vertex $-1 $158 $319 #
straight-curve $-1 70.392773216956087 15.00455049028195 98.939381477479472 0 0 1 I I #
straight-curve $-1 -42.043562658294491 15.00455049028195 85.442427079708366 0.79863550430605224 0 -0.6018150307709319 I I #
edge $-1 $313 4.3770291960431038 $161 15.00455049028195 $247 $320 forward 7 unknown #
point $-1 70.392773216956087 15.00455049028195 13.076086536657597 #
point $-1 53.989812912846816 15.00455049028195 13.076086536657598 #
edge $-1 $321 1 $321 0 $164 $-1 forward 7 unknown #
vertex $-1 $165 $322 #
ellipse-curve $-1 59.342052357449717 9.690789843162527 3.1147577772445407 0.6018150307709319 0 0.79863550430605224 1.9965887607651305 0 -1.5045375769273297 1 I I #
point $-1 64.187881825666594 9.690789843162527 5.3912902516419789 #
plane-surface $-1 70.392773216956087 0 0 -1 0 0 0 0 1 forward_v I I I I #
coedge $-1 $173 $171 $175 $264 reversed $101 $-1 #
edge $-1 $186 -13.076086536657597 $266 13.076086536657597 $185 $323 forward 7 unknown #
vertex $-1 $264 $324 #
straight-curve $-1 -70.392773216956087 -33.298164176930989 0 0 0 -1 I I #
edge $-1 $262 -33.298164176930989 $266 33.298164176930989 $260 $325 forward 7 unknown #
straight-curve $-1 0 -33.298164176930989 -13.076086536657597 -1 0 0 I I #
vertex $-1 $178 $326 #
straight-curve $-1 0 33.298164176930989 -13.076086536657597 1 0 0 I I #
point $-1 70.392773216956087 33.298164176930989 -13.076086536657597 #
point $-1 70.392773216956087 -33.298164176930989 -13.076086536657597 #
straight-curve $-1 -70.392773216956087 0 13.076086536657597 0 -1 0 I I #
point $-1 -70.392773216956087 33.298164176930989 13.076086536657597 #
point $-1 -70.392773216956087 -33.298164176930989 13.076086536657597 #
straight-curve $-1 70.392773216956087 -33.298164176930989 0 0 0 -1 I I #
straight-curve $-1 70.392773216956087 33.298164176930989 0 0 0 -1 I I #
plane-surface $-1 70.392773216956087 0 0 -1 0 0 0 0 1 forward_v I I I I #
coedge $-1 $287 $278 $277 $327 forward $196 $-1 #
coedge $-1 $199 $198 $276 $327 reversed $70 $-1 #
coedge $-1 $276 $328 $200 $279 reversed $196 $-1 #
edge $-1 $280 -70.392773216956087 $283 70.392773216956087 $278 $329 forward 7 unknown #
vertex $-1 $201 $330 #
straight-curve $-1 -70.392773216956087 0 13.076086536657597 0 -1 0 I I #
coedge $-1 $208 $202 $328 $331 forward $209 $-1 #
vertex $-1 $203 $332 #
straight-curve $-1 70.392773216956087 0 13.076086536657597 0 1 0 I I #
point $-1 70.392773216956087 -33.298164176930989 13.076086536657597 #
point $-1 -70.392773216956087 -33.298164176930989 13.076086536657597 #
coedge $-1 $328 $276 $211 $288 reversed $196 $-1 #
edge $-1 $289 -70.392773216956087 $291 70.392773216956087 $287 $333 forward 7 unknown #
vertex $-1 $331 $334 #
straight-curve $-1 70.392773216956087 -40.844303601924814 7.153916688294732 0 -1 0 I I #
vertex $-1 $213 $335 #
straight-curve $-1 -70.392773216956087 -40.844303601924814 7.153916688294732 0 1 0 I I #
plane-surface $-1 -70.392773216956087 0 0 1 0 0 0 0 -1 forward_v I I I I #
coedge $-1 $336 $219 $220 $297 reversed $136 $-1 #
coedge $-1 $219 $336 $300 $337 reversed $136 $-1 #
edge $-1 $301 -2.9610849241814332 $298 2.9610849241814332 $222 $338 forward 7 unknown #
edge $-1 $309 -70.392773216956087 $298 70.392773216956087 $294 $339 forward 7 unknown #
vertex $-1 $221 $340 #
straight-curve $-1 70.392773216956087 40.844303601924814 7.153916688294732 0 -1 0 I I #
coedge $-1 $304 $223 $295 $337 forward $217 $-1 #
vertex $-1 $224 $341 #
straight-curve $-1 70.392773216956087 0 13.076086536657597 0 1 0 I I #
point $-1 70.392773216956087 33.298164176930989 13.076086536657597 #
coedge $-1 $227 $300 $229 $307 forward $217 $-1 #
straight-curve $-1 0 33.298164176930989 13.076086536657597 1 0 0 I I #
coedge $-1 $230 $229 $336 $342 forward $231 $-1 #
edge $-1 $343 -48.390443026918639 $232 -33.298164176930989 $229 $344 forward 7 unknown #
point $-1 -70.392773216956087 33.298164176930989 13.076086536657597 #
vertex $-1 $297 $345 #
straight-curve $-1 -70.392773216956087 40.844303601924814 7.153916688294732 0 1 0 I I #
coedge $-1 $248 $247 $240 $312 forward $237 $-1 #
edge $-1 $313 85.863294940821874 $316 98.223812356998423 $311 $346 forward 7 unknown #
vertex $-1 $252 $347 #
straight-curve $-1 21.341647650466413 4.3770291960431038 13.076086536657598 1 0 0 I I #
edge $-1 $316 -0.46836572553815969 $249 10.159155568700687 $248 $348 forward 7 unknown #
vertex $-1 $315 $349 #
straight-curve $-1 -42.043562658294491 4.3770291960431038 85.442427079708366 -0.79863550430605224 0 0.6018150307709319 I I #
point $-1 53.989812912846816 4.3770291960431038 13.076086536657598 #
point $-1 70.392773216956087 15.00455049028195 0.71556912048104948 #
straight-curve $-1 70.392773216956087 0 13.076086536657597 0 1 0 I I #
vertex $-1 $255 $350 #
point $-1 61.338641118214845 9.690789843162527 1.6102202003172112 #
straight-curve $-1 -70.392773216956087 33.298164176930989 0 0 0 -1 I I #
point $-1 -70.392773216956087 -33.298164176930989 -13.076086536657597 #
straight-curve $-1 -70.392773216956087 0 -13.076086536657597 0 1 0 I I #
point $-1 -70.392773216956087 33.298164176930989 -13.076086536657597 #
edge $-1 $280 -2.9610849241814332 $291 2.9610849241814332 $277 $351 forward 7 unknown #
coedge $-1 $278 $287 $282 $331 reversed $196 $-1 #
straight-curve $-1 0 -48.390443026918639 13.076086536657598 1 0 0 I I #
point $-1 -70.392773216956087 -48.390443026918639 13.076086536657598 #
edge $-1 $283 -2.9610849241814332 $289 2.9610849241814332 $282 $352 forward 7 unknown #
point $-1 70.392773216956087 -48.390443026918639 13.076086536657598 #
straight-curve $-1 0 -48.390443026918639 7.153916688294732 -1 0 0 I I #
point $-1 70.392773216956087 -48.390443026918639 7.153916688294732 #
point $-1 -70.392773216956087 -48.390443026918639 7.153916688294732 #
coedge $-1 $295 $294 $306 $342 reversed $136 $-1 #
edge $-1 $301 -70.392773216956087 $343 70.392773216956087 $295 $353 forward 7 unknown #
straight-curve $-1 70.392773216956087 48.390443026918639 10.115001612476165 0 0 -1 I I #
straight-curve $-1 0 48.390443026918639 7.153916688294732 1 0 0 I I #
point $-1 70.392773216956087 48.390443026918639 7.153916688294732 #
point $-1 70.392773216956087 48.390443026918639 13.076086536657598 #
edge $-1 $343 -2.9610849241814332 $309 2.9610849241814332 $336 $354 forward 7 unknown #
vertex $-1 $337 $355 #
straight-curve $-1 -70.392773216956087 0 13.076086536657597 0 -1 0 I I #
point $-1 -70.392773216956087 48.390443026918639 7.153916688294732 #
straight-curve $-1 70.392773216956087 4.3770291960431038 98.939381477479472 0 0 -1 I I #
point $-1 70.392773216956087 4.3770291960431038 13.076086536657597 #
straight-curve $-1 70.392773216956087 4.8453949215812635 0.71556912048105659 0 1 0 I I #
point $-1 70.392773216956087 4.3770291960431038 0.71556912048104948 #
point $-1 57.837514780522383 9.690789843162527 1.1181690164794105 #
straight-curve $-1 -70.392773216956087 -48.390443026918639 10.115001612476165 0 0 -1 I I #
straight-curve $-1 70.392773216956087 -48.390443026918639 10.115001612476165 0 0 -1 I I #
straight-curve $-1 0 48.390443026918639 13.076086536657598 -1 0 0 I I #
straight-curve $-1 -70.392773216956087 48.390443026918639 10.115001612476165 0 0 -1 I I #
point $-1 -70.392773216956087 48.390443026918639 13.076086536657598 #
End-of-ACIS-data 