500 0 5 0           
7 Unknown 11 ACIS 5.0 NT 24 Fri Mar 26 14:50:23 1999 
-1 9.9999999999999995e-007 1e-010 
body $-1 $5 $-1 $6 #
body $-1 $7 $-1 $8 #
body $-1 $9 $-1 $10 #
body $-1 $11 $-1 $12 #
body $-1 $13 $-1 $14 #
lump $-1 $-1 $15 $0 #
transform $-1 1 0 0 0 1 0 0 0 1 65.441450239570301 32.666601663213221 8.8093252033087364 1 rotate no_reflect no_shear #
lump $-1 $-1 $16 $1 #
transform $-1 1 0 0 0 1 0 0 0 1 65.441450239570301 32.666601663213221 8.8093252033087364 1 rotate no_reflect no_shear #
lump $-1 $-1 $17 $2 #
transform $-1 1 0 0 0 1 0 0 0 1 65.441450239570301 32.666601663213221 8.8093252033087364 1 rotate no_reflect no_shear #
lump $-1 $-1 $18 $3 #
transform $-1 1 0 0 0 1 0 0 0 1 65.441450239570301 32.666601663213221 8.8093252033087364 1 rotate no_reflect no_shear #
lump $-1 $-1 $19 $4 #
transform $-1 1 0 0 0 1 0 0 0 1 65.441450239570301 32.666601663213221 8.8093252033087364 1 rotate no_reflect no_shear #
shell $-1 $-1 $-1 $20 $-1 $5 #
shell $-1 $-1 $-1 $21 $-1 $7 #
shell $-1 $-1 $-1 $22 $-1 $9 #
shell $-1 $-1 $-1 $23 $-1 $11 #
shell $-1 $-1 $-1 $24 $-1 $13 #
face $-1 $25 $26 $15 $-1 $27 forward single #
face $-1 $28 $29 $16 $-1 $30 reversed single #
face $-1 $31 $32 $17 $-1 $33 reversed single #
face $-1 $34 $35 $18 $-1 $36 reversed single #
face $-1 $37 $38 $19 $-1 $39 forward single #
face $-1 $40 $41 $15 $-1 $42 reversed single #
loop $-1 $-1 $43 $20 #
plane-surface $-1 0 0 8.8093252033087364 0 0 1 1 0 0 forward_v I I I I #
face $-1 $44 $45 $16 $-1 $46 reversed single #
loop $-1 $-1 $47 $21 #
plane-surface $-1 -52.414445853257092 -27.090127015982461 0 1 0 0 0 0 -1 forward_v I I I I #
face $-1 $48 $49 $17 $-1 $50 reversed single #
loop $-1 $-1 $51 $22 #
plane-surface $-1 -50.118622843104959 21.5136523687517 0 0 1 0 0 0 1 forward_v I I I I #
face $-1 $52 $53 $18 $-1 $54 reversed single #
loop $-1 $-1 $55 $23 #
plane-surface $-1 62.211075208494847 21.513652368751703 190.77042277060701 0 -1 0 -0.69465837861970381 0 -0.71933979245794832 forward_v I I I I #
face $-1 $56 $57 $19 $-1 $58 forward single #
loop $-1 $59 $60 $24 #
cone-surface $-1 63.34797367814442 17.87347404145202 6.7538236143335251 -0.69465837861970381 0 -0.71933979245794832 0.71933979245794832 0 -0.69465837861970381 1 I I 0 1 1 forward I I I I #
face $-1 $61 $62 $15 $-1 $63 reversed single #
loop $-1 $-1 $64 $25 #
plane-surface $-1 0 0 -8.8093252033087364 0 0 1 1 0 0 forward_v I I I I #
coedge $-1 $65 $66 $67 $68 forward $26 $-1 #
face $-1 $69 $70 $16 $-1 $71 reversed single #
loop $-1 $-1 $72 $28 #
plane-surface $-1 -50.118622843104959 -21.5136523687517 0 0 -1 0 0 0 -1 forward_v I I I I #
coedge $-1 $73 $74 $75 $76 forward $29 $-1 #
face $-1 $77 $78 $17 $-1 $79 reversed single #
loop $-1 $-1 $80 $31 #
plane-surface $-1 -52.414445853257092 27.090127015982461 0 1 0 0 0 0 -1 forward_v I I I I #
coedge $-1 $81 $82 $83 $84 forward $32 $-1 #
face $-1 $85 $86 $18 $-1 $87 reversed single #
loop $-1 $-1 $88 $34 #
plane-surface $-1 -28.707828227389015 17.87347404145202 96.621144303647711 0.69465837861970381 0 0.71933979245794832 0.71933979245794832 0 -0.69465837861970381 forward_v I I I I #
coedge $-1 $89 $90 $91 $92 reversed $35 $-1 #
face $-1 $-1 $93 $19 $-1 $94 forward single #
loop $-1 $95 $96 $37 #
cone-surface $-1 62.515907899365303 17.87347404145202 5.8921942969017866 -0.69465837861970381 0 -0.71933979245794832 0.35966989622897416 0 -0.3473291893098519 1 I I -0.70710678118654746 0.70710678118654746 0.5 forward I I I I #
loop $-1 $-1 $97 $24 #
coedge $-1 $60 $60 $98 $99 reversed $38 $-1 #
face $-1 $100 $101 $15 $-1 $102 reversed single #
loop $-1 $-1 $103 $40 #
plane-surface $-1 0 -32.666601663213221 0 0 1 0 0 0 1 forward_v I I I I #
coedge $-1 $104 $105 $106 $107 forward $41 $-1 #
coedge $-1 $108 $43 $109 $110 forward $26 $-1 #
coedge $-1 $43 $108 $111 $112 forward $26 $-1 #
coedge $-1 $113 $114 $43 $68 reversed $115 $-1 #
edge $-1 $116 -32.666601663213221 $117 32.666601663213221 $67 $118 forward 7 unknown #
face $-1 $119 $120 $16 $-1 $121 forward single #
loop $-1 $-1 $122 $44 #
plane-surface $-1 -47.822799832952825 -27.090127015982461 0 -1 0 0 0 0 1 forward_v I I I I #
coedge $-1 $123 $124 $125 $126 forward $45 $-1 #
coedge $-1 $127 $47 $128 $129 reversed $29 $-1 #
coedge $-1 $47 $127 $130 $131 reversed $29 $-1 #
coedge $-1 $124 $123 $47 $76 reversed $45 $-1 #
edge $-1 $132 -8.8093252033087364 $133 8.8093252033087364 $75 $134 forward 7 unknown #
face $-1 $135 $136 $17 $-1 $137 reversed single #
loop $-1 $-1 $138 $48 #
plane-surface $-1 -47.822799832952825 27.090127015982461 0 -1 0 0 0 0 1 forward_v I I I I #
coedge $-1 $139 $140 $141 $142 reversed $49 $-1 #
coedge $-1 $143 $51 $144 $145 reversed $32 $-1 #
coedge $-1 $51 $143 $146 $147 reversed $32 $-1 #
coedge $-1 $140 $139 $51 $84 reversed $49 $-1 #
edge $-1 $148 -8.8093252033087364 $149 8.8093252033087364 $83 $150 forward 7 unknown #
face $-1 $151 $152 $18 $-1 $153 forward single #
loop $-1 $-1 $154 $52 #
plane-surface $-1 62.211075208494847 14.233295714152337 190.77042277060701 0 1 0 0.69465837861970381 0 0.71933979245794832 forward_v I I I I #
coedge $-1 $155 $156 $157 $158 reversed $53 $-1 #
coedge $-1 $90 $55 $159 $160 reversed $35 $-1 #
coedge $-1 $55 $89 $155 $161 reversed $35 $-1 #
coedge $-1 $157 $162 $55 $92 forward $152 $-1 #
edge $-1 $163 -34.335912635322877 $164 -31.118432691409602 $91 $165 forward 7 unknown #
loop $-1 $-1 $98 $56 #
plane-surface $-1 -28.707828227389015 17.87347404145202 96.621144303647711 0.69465837861970381 0 0.71933979245794832 0.71933979245794832 0 -0.69465837861970381 forward_v I I I I #
loop $-1 $-1 $166 $37 #
coedge $-1 $96 $96 $97 $167 reversed $57 $-1 #
coedge $-1 $97 $97 $96 $167 forward $59 $-1 #
coedge $-1 $98 $98 $60 $99 forward $93 $-1 #
edge $-1 $168 0 $168 6.2831853071796004 $98 $169 forward 7 unknown #
face $-1 $170 $171 $15 $-1 $172 reversed single #
loop $-1 $-1 $173 $61 #
plane-surface $-1 -65.441450239570301 0 0 1 0 0 0 0 -1 forward_v I I I I #
coedge $-1 $174 $111 $175 $176 forward $62 $-1 #
coedge $-1 $177 $64 $174 $178 forward $41 $-1 #
coedge $-1 $64 $177 $179 $180 forward $41 $-1 #
coedge $-1 $114 $113 $64 $107 reversed $115 $-1 #
edge $-1 $181 -32.666601663213221 $182 32.666601663213221 $106 $183 forward 7 unknown #
coedge $-1 $66 $65 $184 $185 forward $26 $-1 #
coedge $-1 $186 $187 $65 $110 reversed $171 $-1 #
edge $-1 $117 -65.441450239570301 $188 65.441450239570301 $109 $189 forward 7 unknown #
coedge $-1 $103 $190 $66 $112 reversed $62 $-1 #
edge $-1 $191 -65.441450239570301 $116 65.441450239570301 $111 $192 forward 7 unknown #
coedge $-1 $106 $67 $190 $193 forward $115 $-1 #
coedge $-1 $67 $106 $186 $194 reversed $115 $-1 #
loop $-1 $-1 $113 $170 #
vertex $-1 $68 $195 #
vertex $-1 $68 $196 #
straight-curve $-1 65.441450239570301 0 8.8093252033087364 0 1 0 I I #
face $-1 $197 $198 $16 $-1 $199 reversed single #
loop $-1 $-1 $200 $69 #
plane-surface $-1 0 0 8.8093252033087364 0 0 1 1 0 0 forward_v I I I I #
coedge $-1 $201 $202 $203 $204 reversed $70 $-1 #
coedge $-1 $75 $72 $205 $206 reversed $45 $-1 #
coedge $-1 $72 $75 $207 $208 reversed $45 $-1 #
coedge $-1 $202 $201 $72 $126 reversed $70 $-1 #
edge $-1 $209 -8.8093252033087364 $210 8.8093252033087364 $125 $211 forward 7 unknown #
coedge $-1 $74 $73 $212 $213 reversed $29 $-1 #
coedge $-1 $205 $214 $73 $129 forward $198 $-1 #
edge $-1 $215 -19.121538155221991 $133 -7.9685888607604696 $128 $216 forward 7 unknown #
coedge $-1 $217 $207 $74 $131 forward $120 $-1 #
edge $-1 $132 7.9685888607604696 $218 19.121538155221991 $130 $219 forward 7 unknown #
vertex $-1 $131 $220 #
vertex $-1 $129 $221 #
straight-curve $-1 -52.414445853257092 -21.5136523687517 0 0 0 -1 I I #
face $-1 $222 $223 $17 $-1 $224 forward single #
loop $-1 $-1 $225 $77 #
plane-surface $-1 0 0 -8.8093252033087364 0 0 1 1 0 0 forward_v I I I I #
coedge $-1 $226 $227 $143 $228 forward $78 $-1 #
coedge $-1 $83 $80 $229 $230 reversed $49 $-1 #
coedge $-1 $80 $83 $231 $232 reversed $49 $-1 #
coedge $-1 $233 $234 $80 $142 forward $235 $-1 #
edge $-1 $236 -8.8093252033087364 $237 8.8093252033087364 $141 $238 forward 7 unknown #
coedge $-1 $82 $81 $138 $228 reversed $32 $-1 #
coedge $-1 $229 $225 $81 $145 forward $136 $-1 #
edge $-1 $239 22.763488411400346 $149 27.355134431704613 $144 $240 forward 7 unknown #
coedge $-1 $241 $231 $82 $147 forward $223 $-1 #
edge $-1 $148 -27.355134431704613 $242 -22.763488411400346 $146 $243 forward 7 unknown #
vertex $-1 $147 $244 #
vertex $-1 $145 $245 #
straight-curve $-1 -52.414445853257092 21.5136523687517 0 0 0 -1 I I #
face $-1 $-1 $246 $18 $-1 $247 reversed single #
loop $-1 $-1 $91 $85 #
plane-surface $-1 0 0 8.8093252033087364 0 0 1 1 0 0 forward_v I I I I #
coedge $-1 $248 $249 $250 $251 reversed $86 $-1 #
coedge $-1 $252 $88 $90 $161 forward $53 $-1 #
coedge $-1 $88 $252 $248 $253 forward $53 $-1 #
coedge $-1 $250 $91 $88 $158 forward $152 $-1 #
edge $-1 $164 -12.576915348025693 $254 -5.2965586934263271 $157 $255 forward 7 unknown #
coedge $-1 $256 $257 $89 $160 forward $246 $-1 #
edge $-1 $258 -89.682970517539687 $163 -86.575886181994775 $159 $259 forward 7 unknown #
edge $-1 $164 126.41007695728412 $258 130.88290047914063 $90 $260 forward 7 unknown #
coedge $-1 $91 $250 $256 $261 forward $152 $-1 #
vertex $-1 $92 $262 #
vertex $-1 $92 $263 #
straight-curve $-1 31.105537604247424 21.513652368751703 8.809325203308731 -1 0 0 I I #
coedge $-1 $166 $166 $-1 $264 reversed $95 $-1 #
edge $-1 $265 0 $265 6.2831853071796004 $96 $266 forward 7 unknown #
vertex $-1 $99 $267 #
ellipse-curve $-1 63.832710267613678 17.87347404145202 7.2557830355362753 0.69465837861970381 0 0.71933979245794832 0.71933979245794832 0 -0.69465837861970381 1 I I #
face $-1 $-1 $115 $15 $-1 $268 reversed single #
loop $-1 $-1 $186 $100 #
plane-surface $-1 0 32.666601663213221 0 0 -1 0 0 0 -1 forward_v I I I I #
coedge $-1 $269 $184 $187 $270 forward $101 $-1 #
coedge $-1 $190 $103 $104 $178 reversed $62 $-1 #
coedge $-1 $184 $269 $103 $176 reversed $101 $-1 #
edge $-1 $191 -8.8093252033087364 $271 8.8093252033087364 $175 $272 forward 7 unknown #
coedge $-1 $105 $104 $269 $273 forward $41 $-1 #
edge $-1 $182 -65.441450239570301 $271 65.441450239570301 $174 $274 forward 7 unknown #
coedge $-1 $187 $186 $105 $180 reversed $171 $-1 #
edge $-1 $275 -65.441450239570301 $181 65.441450239570301 $179 $276 forward 7 unknown #
vertex $-1 $107 $277 #
vertex $-1 $193 $278 #
straight-curve $-1 65.441450239570301 0 -8.8093252033087364 0 -1 0 I I #
coedge $-1 $173 $175 $108 $185 reversed $101 $-1 #
edge $-1 $188 -32.666601663213221 $191 32.666601663213221 $184 $279 forward 7 unknown #
coedge $-1 $179 $109 $114 $194 forward $171 $-1 #
coedge $-1 $109 $179 $173 $270 reversed $171 $-1 #
vertex $-1 $110 $280 #
straight-curve $-1 0 32.666601663213221 8.8093252033087364 -1 0 0 I I #
coedge $-1 $111 $174 $113 $193 reversed $62 $-1 #
vertex $-1 $185 $281 #
straight-curve $-1 0 -32.666601663213221 8.8093252033087364 1 0 0 I I #
edge $-1 $116 -8.8093252033087364 $182 8.8093252033087364 $113 $282 forward 7 unknown #
edge $-1 $117 -8.8093252033087364 $181 8.8093252033087364 $114 $283 forward 7 unknown #
point $-1 65.441450239570301 -32.666601663213221 8.8093252033087364 #
point $-1 65.441450239570301 32.666601663213221 8.8093252033087364 #
face $-1 $-1 $284 $16 $-1 $285 reversed single #
loop $-1 $-1 $286 $119 #
plane-surface $-1 0 0 -8.8093252033087364 0 0 1 1 0 0 forward_v I I I I #
coedge $-1 $207 $217 $202 $287 forward $120 $-1 #
coedge $-1 $125 $122 $286 $288 reversed $70 $-1 #
coedge $-1 $122 $125 $200 $287 reversed $70 $-1 #
coedge $-1 $289 $290 $122 $204 forward $284 $-1 #
edge $-1 $291 -8.8093252033087364 $292 8.8093252033087364 $203 $293 forward 7 unknown #
coedge $-1 $286 $128 $123 $206 forward $198 $-1 #
edge $-1 $133 -27.355134431704613 $210 -22.763488411400346 $205 $294 forward 7 unknown #
coedge $-1 $130 $200 $124 $208 forward $120 $-1 #
edge $-1 $209 22.763488411400346 $132 27.355134431704613 $207 $295 forward 7 unknown #
vertex $-1 $208 $296 #
vertex $-1 $206 $297 #
straight-curve $-1 -47.822799832952825 -21.5136523687517 0 0 0 -1 I I #
coedge $-1 $290 $289 $127 $213 forward $284 $-1 #
edge $-1 $218 -8.8093252033087364 $215 8.8093252033087364 $212 $298 forward 7 unknown #
coedge $-1 $128 $286 $290 $299 forward $198 $-1 #
vertex $-1 $129 $300 #
straight-curve $-1 -52.414445853257092 -13.54506350799123 -8.8093252033087364 0 1 0 I I #
coedge $-1 $200 $130 $289 $301 forward $120 $-1 #
vertex $-1 $301 $302 #
straight-curve $-1 -52.414445853257092 -13.54506350799123 8.8093252033087364 0 -1 0 I I #
point $-1 -52.414445853257092 -21.5136523687517 8.8093252033087364 #
point $-1 -52.414445853257092 -21.5136523687517 -8.8093252033087364 #
face $-1 $-1 $235 $17 $-1 $303 reversed single #
loop $-1 $-1 $241 $135 #
plane-surface $-1 0 0 8.8093252033087364 0 0 1 1 0 0 forward_v I I I I #
coedge $-1 $144 $304 $226 $305 forward $136 $-1 #
coedge $-1 $306 $138 $225 $305 reversed $78 $-1 #
coedge $-1 $138 $306 $241 $307 reversed $78 $-1 #
edge $-1 $242 -8.8093252033087364 $239 8.8093252033087364 $138 $308 forward 7 unknown #
coedge $-1 $304 $144 $139 $230 forward $136 $-1 #
edge $-1 $149 7.9685888607604696 $236 19.121538155221991 $229 $309 forward 7 unknown #
coedge $-1 $146 $310 $140 $232 forward $223 $-1 #
edge $-1 $237 -19.121538155221991 $148 -7.9685888607604696 $231 $311 forward 7 unknown #
coedge $-1 $312 $141 $310 $313 reversed $235 $-1 #
coedge $-1 $141 $312 $304 $314 reversed $235 $-1 #
loop $-1 $-1 $312 $222 #
vertex $-1 $314 $315 #
vertex $-1 $142 $316 #
straight-curve $-1 -52.414445853257092 32.666601663213221 0 0 0 1 I I #
vertex $-1 $145 $317 #
straight-curve $-1 -25.059311421552479 21.5136523687517 -8.8093252033087364 -1 0 0 I I #
coedge $-1 $310 $146 $227 $307 forward $223 $-1 #
vertex $-1 $147 $318 #
straight-curve $-1 -25.059311421552479 21.5136523687517 8.8093252033087364 1 0 0 I I #
point $-1 -52.414445853257092 21.5136523687517 8.8093252033087364 #
point $-1 -52.414445853257092 21.5136523687517 -8.8093252033087364 #
loop $-1 $-1 $159 $151 #
plane-surface $-1 65.441450239570301 0 0 -1 0 0 0 0 1 forward_v I I I I #
coedge $-1 $249 $154 $156 $253 reversed $86 $-1 #
coedge $-1 $154 $248 $319 $320 reversed $86 $-1 #
coedge $-1 $162 $157 $154 $251 forward $152 $-1 #
edge $-1 $254 31.118432691409602 $321 34.335912635322877 $250 $322 forward 7 unknown #
coedge $-1 $156 $155 $257 $323 reversed $53 $-1 #
edge $-1 $324 -130.88290047914063 $254 -126.41007695728412 $248 $325 forward 7 unknown #
vertex $-1 $158 $326 #
straight-curve $-1 62.223970295657018 8.9367370207260102 8.8093252033087381 0 -1 0 I I #
coedge $-1 $319 $159 $162 $261 reversed $246 $-1 #
coedge $-1 $159 $319 $252 $323 forward $246 $-1 #
vertex $-1 $160 $327 #
straight-curve $-1 65.441450239570301 21.513652368751703 95.385211385303506 0 0 1 I I #
straight-curve $-1 -28.707828227389015 21.513652368751703 96.621144303647711 0.71933979245794832 0 -0.69465837861970381 I I #
edge $-1 $321 14.233295714152337 $163 21.513652368751703 $256 $328 forward 7 unknown #
point $-1 65.441450239570301 21.513652368751703 8.8093252033087364 #
point $-1 62.223970295657026 21.513652368751703 8.809325203308731 #
edge $-1 $329 1 $329 0 $166 $-1 forward 7 unknown #
vertex $-1 $167 $330 #
ellipse-curve $-1 62.863237088675156 17.87347404145202 6.2518641931307606 0.69465837861970381 0 0.71933979245794832 0.71933979245794832 0 -0.69465837861970381 1 I I #
point $-1 64.552050060071636 17.87347404145202 6.5611246569165855 #
plane-surface $-1 65.441450239570301 0 0 -1 0 0 0 0 1 forward_v I I I I #
coedge $-1 $175 $173 $177 $273 reversed $101 $-1 #
edge $-1 $188 -8.8093252033087364 $275 8.8093252033087364 $187 $331 forward 7 unknown #
vertex $-1 $273 $332 #
straight-curve $-1 -65.441450239570301 -32.666601663213221 0 0 0 -1 I I #
edge $-1 $271 -32.666601663213221 $275 32.666601663213221 $269 $333 forward 7 unknown #
straight-curve $-1 0 -32.666601663213221 -8.8093252033087364 -1 0 0 I I #
vertex $-1 $180 $334 #
straight-curve $-1 0 32.666601663213221 -8.8093252033087364 1 0 0 I I #
point $-1 65.441450239570301 32.666601663213221 -8.8093252033087364 #
point $-1 65.441450239570301 -32.666601663213221 -8.8093252033087364 #
straight-curve $-1 -65.441450239570301 0 8.8093252033087364 0 -1 0 I I #
point $-1 -65.441450239570301 32.666601663213221 8.8093252033087364 #
point $-1 -65.441450239570301 -32.666601663213221 8.8093252033087364 #
straight-curve $-1 65.441450239570301 -32.666601663213221 0 0 0 -1 I I #
straight-curve $-1 65.441450239570301 32.666601663213221 0 0 0 -1 I I #
loop $-1 $-1 $203 $197 #
plane-surface $-1 0 -32.666601663213221 0 0 1 0 0 0 1 forward_v I I I I #
coedge $-1 $214 $205 $201 $288 forward $198 $-1 #
edge $-1 $292 -19.121538155221991 $209 -7.9685888607604696 $200 $335 forward 7 unknown #
edge $-1 $210 7.9685888607604696 $291 19.121538155221991 $286 $336 forward 7 unknown #
coedge $-1 $212 $203 $217 $301 reversed $284 $-1 #
coedge $-1 $203 $212 $214 $299 reversed $284 $-1 #
vertex $-1 $299 $337 #
vertex $-1 $204 $338 #
straight-curve $-1 -47.822799832952825 -32.666601663213221 0 0 0 1 I I #
straight-curve $-1 -25.059311421552479 -21.5136523687517 -8.8093252033087364 1 0 0 I I #
straight-curve $-1 -25.059311421552479 -21.5136523687517 8.8093252033087364 -1 0 0 I I #
point $-1 -47.822799832952825 -21.5136523687517 8.8093252033087364 #
point $-1 -47.822799832952825 -21.5136523687517 -8.8093252033087364 #
straight-curve $-1 -52.414445853257092 -32.666601663213221 0 0 0 -1 I I #
edge $-1 $291 47.822799832952825 $215 52.414445853257092 $290 $339 forward 7 unknown #
point $-1 -52.414445853257092 -32.666601663213221 -8.8093252033087364 #
edge $-1 $218 -52.414445853257092 $292 -47.822799832952825 $289 $340 forward 7 unknown #
point $-1 -52.414445853257092 -32.666601663213221 8.8093252033087364 #
plane-surface $-1 0 32.666601663213221 0 0 -1 0 0 0 -1 forward_v I I I I #
coedge $-1 $225 $229 $234 $314 forward $136 $-1 #
edge $-1 $341 -19.121538155221991 $239 -7.9685888607604696 $225 $342 forward 7 unknown #
coedge $-1 $227 $226 $312 $343 reversed $78 $-1 #
edge $-1 $242 7.9685888607604696 $344 19.121538155221991 $241 $345 forward 7 unknown #
straight-curve $-1 -47.822799832952825 21.5136523687517 0 0 0 -1 I I #
straight-curve $-1 -52.414445853257092 13.54506350799123 -8.8093252033087364 0 1 0 I I #
coedge $-1 $231 $241 $233 $313 forward $223 $-1 #
straight-curve $-1 -52.414445853257092 13.54506350799123 8.8093252033087364 0 -1 0 I I #
coedge $-1 $234 $233 $306 $343 forward $235 $-1 #
edge $-1 $344 47.822799832952825 $237 52.414445853257092 $233 $346 forward 7 unknown #
edge $-1 $236 -52.414445853257092 $341 -47.822799832952825 $234 $347 forward 7 unknown #
point $-1 -52.414445853257092 32.666601663213221 -8.8093252033087364 #
point $-1 -52.414445853257092 32.666601663213221 8.8093252033087364 #
point $-1 -47.822799832952825 21.5136523687517 -8.8093252033087364 #
point $-1 -47.822799832952825 21.5136523687517 8.8093252033087364 #
coedge $-1 $257 $256 $249 $320 forward $246 $-1 #
edge $-1 $321 86.575886181994775 $324 89.682970517539687 $319 $348 forward 7 unknown #
vertex $-1 $261 $349 #
straight-curve $-1 31.105537604247424 14.233295714152337 8.809325203308731 1 0 0 I I #
edge $-1 $324 5.2965586934263271 $258 12.576915348025693 $257 $350 forward 7 unknown #
vertex $-1 $323 $351 #
straight-curve $-1 -28.707828227389015 14.233295714152337 96.621144303647711 -0.71933979245794832 0 0.69465837861970381 I I #
point $-1 62.223970295657026 14.233295714152337 8.809325203308731 #
point $-1 65.441450239570315 21.513652368751703 5.7022408677638197 #
straight-curve $-1 65.441450239570301 0 8.8093252033087364 0 1 0 I I #
vertex $-1 $264 $352 #
point $-1 63.5825768811331 17.87347404145202 5.5572058145110574 #
straight-curve $-1 -65.441450239570301 32.666601663213221 0 0 0 -1 I I #
point $-1 -65.441450239570301 -32.666601663213221 -8.8093252033087364 #
straight-curve $-1 -65.441450239570301 0 -8.8093252033087364 0 1 0 I I #
point $-1 -65.441450239570301 32.666601663213221 -8.8093252033087364 #
straight-curve $-1 -47.822799832952825 -13.54506350799123 8.8093252033087364 0 1 0 I I #
straight-curve $-1 -47.822799832952825 -13.54506350799123 -8.8093252033087364 0 -1 0 I I #
point $-1 -47.822799832952825 -32.666601663213221 -8.8093252033087364 #
point $-1 -47.822799832952825 -32.666601663213221 8.8093252033087364 #
straight-curve $-1 0 -32.666601663213221 -8.8093252033087364 -1 0 0 I I #
straight-curve $-1 0 -32.666601663213221 8.8093252033087364 1 0 0 I I #
vertex $-1 $343 $353 #
straight-curve $-1 -47.822799832952825 13.54506350799123 -8.8093252033087364 0 -1 0 I I #
edge $-1 $344 -8.8093252033087364 $341 8.8093252033087364 $312 $354 forward 7 unknown #
vertex $-1 $313 $355 #
straight-curve $-1 -47.822799832952825 13.54506350799123 8.8093252033087364 0 1 0 I I #
straight-curve $-1 0 32.666601663213221 8.8093252033087364 -1 0 0 I I #
straight-curve $-1 0 32.666601663213221 -8.8093252033087364 1 0 0 I I #
straight-curve $-1 65.441450239570301 14.233295714152337 95.385211385303506 0 0 -1 I I #
point $-1 65.441450239570301 14.233295714152337 8.8093252033087364 #
straight-curve $-1 65.441450239570301 8.9367370207260102 5.7022408677638339 0 1 0 I I #
point $-1 65.441450239570315 14.233295714152337 5.7022408677638197 #
point $-1 62.168578710055449 17.87347404145202 5.5325244006728127 #
point $-1 -47.822799832952825 32.666601663213221 -8.8093252033087364 #
straight-curve $-1 -47.822799832952825 32.666601663213221 0 0 0 -1 I I #
point $-1 -47.822799832952825 32.666601663213221 8.8093252033087364 #
End-of-ACIS-data 