500 0 4 0           
7 Unknown 11 ACIS 5.0 NT 24 Thu Mar 25 16:49:04 1999 
-1 9.9999999999999995e-007 1e-010 
body $-1 $4 $-1 $5 #
body $-1 $6 $-1 $7 #
body $-1 $8 $-1 $9 #
body $-1 $10 $-1 $11 #
lump $-1 $-1 $12 $0 #
transform $-1 1 0 0 0 1 0 0 0 1 76.60267952513199 43.143857856024603 20.617989750892338 1 rotate no_reflect no_shear #
lump $-1 $-1 $13 $1 #
transform $-1 1 0 0 0 1 0 0 0 1 76.60267952513199 43.143857856024603 20.617989750892338 1 rotate no_reflect no_shear #
lump $-1 $-1 $14 $2 #
transform $-1 1 0 0 0 1 0 0 0 1 76.60267952513199 43.143857856024603 20.617989750892338 1 rotate no_reflect no_shear #
lump $-1 $-1 $15 $3 #
transform $-1 1 0 0 0 1 0 0 0 1 76.60267952513199 43.143857856024603 20.617989750892338 1 rotate no_reflect no_shear #
shell $-1 $-1 $-1 $16 $-1 $4 #
shell $-1 $-1 $-1 $17 $-1 $6 #
shell $-1 $-1 $-1 $18 $-1 $8 #
shell $-1 $-1 $-1 $19 $-1 $10 #
face $-1 $20 $21 $12 $-1 $22 forward single #
face $-1 $23 $24 $13 $-1 $25 forward single #
face $-1 $26 $27 $14 $-1 $28 forward single #
face $-1 $29 $30 $15 $-1 $31 reversed single #
face $-1 $32 $33 $12 $-1 $34 reversed single #
loop $-1 $-1 $35 $16 #
plane-surface $-1 0 0 20.617989750892338 0 0 1 1 0 0 forward_v I I I I #
face $-1 $36 $37 $13 $-1 $38 reversed single #
loop $-1 $-1 $39 $17 #
plane-surface $-1 -84.799920830734351 0 -8.4107957824099771 0 0 1 1 0 0 forward_v I I I I #
face $-1 $40 $41 $14 $-1 $42 forward single #
loop $-1 $-1 $43 $18 #
plane-surface $-1 24.186650326405498 -2.6571597891610068 226.96864682899061 0 -1 0 -0.51503808176128008 0 -0.85716729658548041 forward_v I I I I #
face $-1 $44 $45 $15 $-1 $46 reversed single #
loop $-1 $47 $48 $19 #
cone-surface $-1 72.865190485697354 -12.418939865420079 17.829952422243274 -0.51503808176128008 0 -0.85716729658548041 0.85716729658548041 0 -0.51503808176128008 1 I I 0 1 1 forward I I I I #
face $-1 $49 $50 $12 $-1 $51 reversed single #
loop $-1 $-1 $52 $20 #
plane-surface $-1 0 0 -20.617989750892338 0 0 1 1 0 0 forward_v I I I I #
coedge $-1 $53 $54 $55 $56 forward $21 $-1 #
face $-1 $57 $58 $13 $-1 $59 forward single #
loop $-1 $-1 $60 $23 #
plane-surface $-1 -92.997162136336698 0 -14.514392766651158 1 0 0 0 0 -1 forward_v I I I I #
coedge $-1 $61 $62 $63 $64 reversed $24 $-1 #
face $-1 $65 $66 $14 $-1 $67 forward single #
loop $-1 $-1 $68 $26 #
plane-surface $-1 -54.719943914390626 -12.418939865420075 95.646023389467985 0.51503808176128008 0 0.85716729658548041 0.85716729658548041 0 -0.51503808176128008 forward_v I I I I #
coedge $-1 $69 $70 $71 $72 reversed $27 $-1 #
face $-1 $73 $74 $15 $-1 $75 forward single #
loop $-1 $76 $77 $29 #
cone-surface $-1 72.097686762612497 -12.418939865420079 16.552611746411724 -0.51503808176128008 0 -0.85716729658548041 0.4285836482927402 0 -0.25751904088064004 1 I I -0.70710678118654746 0.70710678118654746 0.5 forward I I I I #
loop $-1 $-1 $78 $19 #
coedge $-1 $48 $48 $79 $80 reversed $30 $-1 #
face $-1 $81 $82 $12 $-1 $83 reversed single #
loop $-1 $-1 $84 $32 #
plane-surface $-1 0 -43.143857856024603 0 0 1 0 0 0 1 forward_v I I I I #
coedge $-1 $85 $86 $87 $88 forward $33 $-1 #
coedge $-1 $89 $35 $90 $91 forward $21 $-1 #
coedge $-1 $35 $89 $92 $93 forward $21 $-1 #
coedge $-1 $94 $95 $35 $56 reversed $96 $-1 #
edge $-1 $97 -43.143857856024603 $98 43.143857856024603 $55 $99 forward 7 unknown #
face $-1 $100 $101 $13 $-1 $102 reversed single #
loop $-1 $-1 $103 $36 #
plane-surface $-1 0 0 20.617989750892338 0 0 1 1 0 0 forward_v I I I I #
coedge $-1 $104 $105 $106 $107 forward $37 $-1 #
coedge $-1 $108 $39 $109 $110 forward $24 $-1 #
coedge $-1 $39 $108 $111 $112 forward $24 $-1 #
coedge $-1 $113 $114 $39 $64 forward $115 $-1 #
edge $-1 $116 -43.143857856024603 $117 43.143857856024603 $63 $118 forward 7 unknown #
face $-1 $119 $120 $14 $-1 $121 forward single #
loop $-1 $-1 $122 $40 #
plane-surface $-1 24.186650326405498 -22.180719941679143 226.96864682899061 0 1 0 0.51503808176128008 0 0.85716729658548041 forward_v I I I I #
coedge $-1 $123 $124 $125 $126 reversed $41 $-1 #
coedge $-1 $70 $43 $124 $127 forward $27 $-1 #
coedge $-1 $43 $69 $128 $129 reversed $27 $-1 #
coedge $-1 $130 $125 $43 $72 forward $120 $-1 #
edge $-1 $131 58.054345647468381 $132 64.50935436192924 $71 $133 forward 7 unknown #
face $-1 $134 $135 $15 $-1 $136 forward single #
loop $-1 $-1 $137 $44 #
plane-surface $-1 24.186650326405498 -2.6571597891610068 226.96864682899061 0 -1 0 -0.51503808176128008 0 -0.85716729658548041 forward_v I I I I #
loop $-1 $-1 $138 $29 #
coedge $-1 $77 $77 $78 $139 forward $45 $-1 #
coedge $-1 $78 $78 $77 $139 reversed $47 $-1 #
coedge $-1 $79 $79 $48 $80 forward $135 $-1 #
edge $-1 $140 0 $140 6.2831853071796004 $79 $141 forward 7 unknown #
face $-1 $142 $143 $12 $-1 $144 reversed single #
loop $-1 $-1 $145 $49 #
plane-surface $-1 -76.60267952513199 0 0 1 0 0 0 0 -1 forward_v I I I I #
coedge $-1 $146 $92 $147 $148 forward $50 $-1 #
coedge $-1 $149 $52 $146 $150 forward $33 $-1 #
coedge $-1 $52 $149 $151 $152 forward $33 $-1 #
coedge $-1 $95 $94 $52 $88 reversed $96 $-1 #
edge $-1 $153 -43.143857856024603 $154 43.143857856024603 $87 $155 forward 7 unknown #
coedge $-1 $54 $53 $156 $157 forward $21 $-1 #
coedge $-1 $158 $159 $53 $91 reversed $143 $-1 #
edge $-1 $98 -76.60267952513199 $160 76.60267952513199 $90 $161 forward 7 unknown #
coedge $-1 $84 $162 $54 $93 reversed $50 $-1 #
edge $-1 $163 -76.60267952513199 $97 76.60267952513199 $92 $164 forward 7 unknown #
coedge $-1 $87 $55 $162 $165 forward $96 $-1 #
coedge $-1 $55 $87 $158 $166 reversed $96 $-1 #
loop $-1 $-1 $94 $142 #
vertex $-1 $56 $167 #
vertex $-1 $56 $168 #
straight-curve $-1 76.60267952513199 0 20.617989750892338 0 1 0 I I #
face $-1 $169 $170 $13 $-1 $171 reversed single #
loop $-1 $-1 $172 $57 #
plane-surface $-1 0 0 -20.617989750892338 0 0 1 1 0 0 forward_v I I I I #
coedge $-1 $173 $174 $175 $176 forward $58 $-1 #
coedge $-1 $177 $60 $178 $179 reversed $37 $-1 #
coedge $-1 $60 $177 $108 $180 reversed $37 $-1 #
coedge $-1 $109 $181 $60 $107 reversed $182 $-1 #
edge $-1 $183 -6.1035969842411806 $184 6.1035969842411806 $106 $185 forward 7 unknown #
coedge $-1 $62 $61 $105 $180 forward $24 $-1 #
coedge $-1 $186 $106 $61 $110 reversed $182 $-1 #
edge $-1 $116 -8.197241305602347 $183 8.197241305602347 $109 $187 forward 7 unknown #
coedge $-1 $188 $189 $62 $112 reversed $170 $-1 #
edge $-1 $190 -8.197241305602347 $117 8.197241305602347 $111 $191 forward 7 unknown #
coedge $-1 $192 $63 $189 $193 reversed $115 $-1 #
coedge $-1 $63 $192 $186 $194 forward $115 $-1 #
loop $-1 $-1 $63 $169 #
vertex $-1 $194 $195 #
vertex $-1 $112 $196 #
straight-curve $-1 -76.60267952513199 0 -8.4107957824099771 0 -1 0 I I #
face $-1 $197 $198 $14 $-1 $199 forward single #
loop $-1 $-1 $200 $65 #
plane-surface $-1 0 0 20.617989750892338 0 0 1 1 0 0 forward_v I I I I #
coedge $-1 $201 $202 $200 $203 reversed $66 $-1 #
coedge $-1 $204 $68 $202 $205 reversed $41 $-1 #
coedge $-1 $68 $204 $69 $127 reversed $41 $-1 #
coedge $-1 $71 $200 $68 $126 forward $120 $-1 #
edge $-1 $206 -15.971250008969106 $131 3.5523101435490307 $125 $207 forward 7 unknown #
edge $-1 $131 145.67473026849132 $208 153.20535905026392 $69 $209 forward 7 unknown #
coedge $-1 $210 $211 $70 $129 forward $212 $-1 #
edge $-1 $132 92.866333663602973 $208 96.744894265823419 $128 $213 forward 7 unknown #
coedge $-1 $214 $71 $211 $215 forward $120 $-1 #
vertex $-1 $126 $216 #
vertex $-1 $215 $217 #
straight-curve $-1 12.093325163202749 -2.6571597891610068 20.617989750892335 1 0 0 I I #
face $-1 $218 $219 $15 $-1 $220 forward single #
loop $-1 $221 $79 $73 #
plane-surface $-1 -54.719943914390626 -12.418939865420075 95.646023389467985 0.51503808176128008 0 0.85716729658548041 0.85716729658548041 0 -0.51503808176128008 forward_v I I I I #
coedge $-1 $222 $223 $224 $225 reversed $74 $-1 #
coedge $-1 $138 $138 $-1 $226 forward $76 $-1 #
edge $-1 $227 0 $227 6.2831853071796004 $77 $228 forward 7 unknown #
vertex $-1 $80 $229 #
ellipse-curve $-1 73.375175167901574 -12.418939865420079 18.678709449782083 -0.51503808176128008 0 -0.85716729658548041 0.85716729658548041 0 -0.51503808176128008 1 I I #
face $-1 $-1 $96 $12 $-1 $230 reversed single #
loop $-1 $-1 $158 $81 #
plane-surface $-1 0 43.143857856024603 0 0 -1 0 0 0 -1 forward_v I I I I #
coedge $-1 $231 $156 $159 $232 forward $82 $-1 #
coedge $-1 $162 $84 $85 $150 reversed $50 $-1 #
coedge $-1 $156 $231 $84 $148 reversed $82 $-1 #
edge $-1 $163 -20.617989750892338 $233 20.617989750892338 $147 $234 forward 7 unknown #
coedge $-1 $86 $85 $231 $235 forward $33 $-1 #
edge $-1 $154 -76.60267952513199 $233 76.60267952513199 $146 $236 forward 7 unknown #
coedge $-1 $159 $158 $86 $152 reversed $143 $-1 #
edge $-1 $237 -76.60267952513199 $153 76.60267952513199 $151 $238 forward 7 unknown #
vertex $-1 $88 $239 #
vertex $-1 $165 $240 #
straight-curve $-1 76.60267952513199 0 -20.617989750892338 0 -1 0 I I #
coedge $-1 $145 $147 $89 $157 reversed $82 $-1 #
edge $-1 $160 -43.143857856024603 $163 43.143857856024603 $156 $241 forward 7 unknown #
coedge $-1 $151 $90 $95 $166 forward $143 $-1 #
coedge $-1 $90 $151 $145 $232 reversed $143 $-1 #
vertex $-1 $91 $242 #
straight-curve $-1 0 43.143857856024603 20.617989750892338 -1 0 0 I I #
coedge $-1 $92 $146 $94 $165 reversed $50 $-1 #
vertex $-1 $157 $243 #
straight-curve $-1 0 -43.143857856024603 20.617989750892338 1 0 0 I I #
edge $-1 $97 -20.617989750892338 $154 20.617989750892338 $94 $244 forward 7 unknown #
edge $-1 $98 -20.617989750892338 $153 20.617989750892338 $95 $245 forward 7 unknown #
point $-1 76.60267952513199 -43.143857856024603 20.617989750892338 #
point $-1 76.60267952513199 43.143857856024603 20.617989750892338 #
face $-1 $246 $115 $13 $-1 $247 reversed single #
loop $-1 $-1 $189 $100 #
plane-surface $-1 0 -43.143857856024603 0 0 1 0 0 0 1 forward_v I I I I #
coedge $-1 $248 $249 $250 $251 forward $101 $-1 #
coedge $-1 $252 $103 $253 $254 forward $58 $-1 #
coedge $-1 $103 $252 $255 $256 forward $58 $-1 #
coedge $-1 $257 $258 $103 $176 reversed $259 $-1 #
edge $-1 $260 -43.143857856024603 $261 43.143857856024603 $175 $262 forward 7 unknown #
coedge $-1 $105 $104 $188 $263 reversed $37 $-1 #
coedge $-1 $249 $248 $104 $179 forward $101 $-1 #
edge $-1 $264 -43.143857856024603 $184 43.143857856024603 $104 $265 forward 7 unknown #
edge $-1 $183 -43.143857856024603 $190 43.143857856024603 $105 $266 forward 7 unknown #
coedge $-1 $106 $267 $249 $268 reversed $182 $-1 #
loop $-1 $-1 $267 $246 #
vertex $-1 $110 $269 #
vertex $-1 $268 $270 #
straight-curve $-1 -92.997162136336698 43.143857856024603 -14.514392766651158 0 0 -1 I I #
coedge $-1 $253 $109 $114 $194 reversed $182 $-1 #
straight-curve $-1 -84.799920830734351 43.143857856024603 -8.4107957824099771 -1 0 0 I I #
coedge $-1 $271 $111 $177 $263 forward $170 $-1 #
coedge $-1 $111 $255 $113 $193 forward $170 $-1 #
vertex $-1 $180 $272 #
straight-curve $-1 -84.799920830734351 -43.143857856024603 -8.4107957824099771 1 0 0 I I #
coedge $-1 $114 $113 $252 $273 reversed $115 $-1 #
edge $-1 $274 -20.617989750892338 $117 8.4107957824099771 $113 $275 forward 7 unknown #
edge $-1 $276 -20.617989750892338 $116 8.4107957824099771 $186 $277 forward 7 unknown #
point $-1 -76.602679525132004 43.143857856024603 -8.4107957824099771 #
point $-1 -76.602679525132004 -43.143857856024603 -8.4107957824099771 #
face $-1 $278 $279 $14 $-1 $280 reversed single #
loop $-1 $-1 $281 $119 #
plane-surface $-1 -84.799920830734351 0 -8.4107957824099771 0 0 1 1 0 0 forward_v I I I I #
coedge $-1 $125 $282 $122 $203 forward $120 $-1 #
coedge $-1 $202 $122 $283 $284 reversed $66 $-1 #
coedge $-1 $122 $201 $123 $205 forward $66 $-1 #
edge $-1 $285 -64.50935436192924 $206 -58.054345647468381 $200 $286 forward 7 unknown #
coedge $-1 $124 $123 $210 $287 reversed $41 $-1 #
edge $-1 $288 -153.20535905026392 $206 -145.67473026849132 $202 $289 forward 7 unknown #
vertex $-1 $126 $290 #
straight-curve $-1 70.14767081067113 -6.2094699327100376 20.617989750892328 0 1 0 I I #
vertex $-1 $287 $291 #
straight-curve $-1 -54.719943914390626 -2.6571597891610068 95.646023389467985 0.85716729658548041 0 -0.51503808176128008 I I #
coedge $-1 $283 $128 $204 $287 forward $212 $-1 #
coedge $-1 $128 $292 $130 $215 reversed $212 $-1 #
loop $-1 $-1 $283 $293 #
straight-curve $-1 76.60267952513199 -2.6571597891610068 113.48432341449531 0 0 -1 I I #
coedge $-1 $294 $130 $295 $296 forward $120 $-1 #
edge $-1 $132 -2.6571597891610068 $297 43.143857856024603 $211 $298 forward 7 unknown #
point $-1 70.14767081067113 -2.6571597891610068 20.617989750892335 #
point $-1 76.60267952513199 -2.6571597891610068 20.617989750892338 #
face $-1 $299 $300 $15 $-1 $301 forward single #
loop $-1 $-1 $302 $134 #
plane-surface $-1 24.186650326405498 -22.180719941679143 226.96864682899061 0 1 0 0.51503808176128008 0 0.85716729658548041 forward_v I I I I #
loop $-1 $-1 $303 $73 #
coedge $-1 $223 $137 $304 $305 forward $74 $-1 #
coedge $-1 $137 $222 $306 $307 reversed $74 $-1 #
coedge $-1 $308 $309 $137 $225 forward $300 $-1 #
edge $-1 $310 58.054345647468381 $311 64.50935436192924 $224 $312 forward 7 unknown #
edge $-1 $313 1 $313 0 $138 $-1 forward 7 unknown #
vertex $-1 $139 $314 #
ellipse-curve $-1 72.355205803493135 -12.418939865420079 16.981195394704464 0.51503808176128008 0 0.85716729658548041 0.85716729658548041 0 -0.51503808176128008 1 I I #
point $-1 74.232342464487061 -12.418939865420079 18.163671368020808 #
plane-surface $-1 76.60267952513199 0 0 -1 0 0 0 0 1 forward_v I I I I #
coedge $-1 $147 $145 $149 $235 reversed $82 $-1 #
edge $-1 $160 -20.617989750892338 $237 20.617989750892338 $159 $315 forward 7 unknown #
vertex $-1 $235 $316 #
straight-curve $-1 -76.60267952513199 -43.143857856024603 0 0 0 -1 I I #
edge $-1 $233 -43.143857856024603 $237 43.143857856024603 $231 $317 forward 7 unknown #
straight-curve $-1 0 -43.143857856024603 -20.617989750892338 -1 0 0 I I #
vertex $-1 $152 $318 #
straight-curve $-1 0 43.143857856024603 -20.617989750892338 1 0 0 I I #
point $-1 76.60267952513199 43.143857856024603 -20.617989750892338 #
point $-1 76.60267952513199 -43.143857856024603 -20.617989750892338 #
straight-curve $-1 -76.60267952513199 0 20.617989750892338 0 -1 0 I I #
point $-1 -76.60267952513199 43.143857856024603 20.617989750892338 #
point $-1 -76.60267952513199 -43.143857856024603 20.617989750892338 #
straight-curve $-1 76.60267952513199 -43.143857856024603 0 0 0 -1 I I #
straight-curve $-1 76.60267952513199 43.143857856024603 0 0 0 -1 I I #
face $-1 $319 $182 $13 $-1 $320 reversed single #
plane-surface $-1 -76.60267952513199 0 0 1 0 0 0 0 -1 forward_v I I I I #
coedge $-1 $178 $172 $271 $321 forward $101 $-1 #
coedge $-1 $172 $178 $181 $268 forward $101 $-1 #
coedge $-1 $258 $257 $172 $251 reversed $259 $-1 #
edge $-1 $322 -43.143857856024603 $323 43.143857856024603 $250 $324 forward 7 unknown #
coedge $-1 $174 $173 $192 $273 forward $58 $-1 #
coedge $-1 $267 $186 $173 $254 reversed $182 $-1 #
edge $-1 $261 -76.60267952513199 $276 76.60267952513199 $253 $325 forward 7 unknown #
coedge $-1 $189 $326 $174 $256 reversed $170 $-1 #
edge $-1 $274 -76.60267952513199 $260 76.60267952513199 $255 $327 forward 7 unknown #
coedge $-1 $250 $175 $326 $328 forward $259 $-1 #
coedge $-1 $175 $250 $267 $329 reversed $259 $-1 #
loop $-1 $-1 $257 $319 #
vertex $-1 $176 $330 #
vertex $-1 $176 $331 #
straight-curve $-1 76.60267952513199 0 20.617989750892338 0 1 0 I I #
edge $-1 $190 -6.1035969842411806 $264 6.1035969842411806 $177 $332 forward 7 unknown #
vertex $-1 $179 $333 #
straight-curve $-1 -92.997162136336698 0 -20.617989750892338 0 1 0 I I #
straight-curve $-1 -92.997162136336698 0 -8.4107957824099771 0 -1 0 I I #
coedge $-1 $181 $253 $258 $329 forward $182 $-1 #
edge $-1 $184 -92.997162136336698 $322 76.60267952513199 $181 $334 forward 7 unknown #
point $-1 -92.997162136336698 43.143857856024603 -8.4107957824099771 #
point $-1 -92.997162136336698 43.143857856024603 -20.617989750892338 #
coedge $-1 $326 $188 $248 $321 reversed $170 $-1 #
point $-1 -92.997162136336698 -43.143857856024603 -8.4107957824099771 #
edge $-1 $276 -43.143857856024603 $274 43.143857856024603 $192 $335 forward 7 unknown #
vertex $-1 $273 $336 #
straight-curve $-1 -76.60267952513199 -43.143857856024603 0 0 0 -1 I I #
vertex $-1 $254 $337 #
straight-curve $-1 -76.60267952513199 43.143857856024603 0 0 0 -1 I I #
face $-1 $338 $339 $14 $-1 $340 reversed single #
loop $-1 $-1 $341 $197 #
plane-surface $-1 -92.997162136336698 0 -14.514392766651158 1 0 0 0 0 -1 forward_v I I I I #
coedge $-1 $342 $343 $344 $345 reversed $198 $-1 #
coedge $-1 $200 $346 $347 $348 forward $120 $-1 #
coedge $-1 $347 $210 $201 $284 forward $212 $-1 #
edge $-1 $288 -96.744894265823419 $285 -92.866333663602973 $283 $349 forward 7 unknown #
vertex $-1 $284 $350 #
straight-curve $-1 12.093325163202749 -22.180719941679143 20.617989750892335 -1 0 0 I I #
edge $-1 $208 -3.5523101435490307 $288 15.971250008969106 $210 $351 forward 7 unknown #
vertex $-1 $287 $352 #
straight-curve $-1 -54.719943914390626 -22.180719941679143 95.646023389467985 -0.85716729658548041 0 0.51503808176128008 I I #
point $-1 70.14767081067113 -22.180719941679143 20.617989750892335 #
point $-1 76.602679525131975 -2.6571597891610068 16.739429148671888 #
coedge $-1 $211 $353 $354 $355 reversed $212 $-1 #
face $-1 $-1 $212 $14 $-1 $356 reversed single #
coedge $-1 $346 $214 $357 $358 forward $120 $-1 #
coedge $-1 $354 $359 $214 $296 reversed $360 $-1 #
edge $-1 $297 -76.60267952513199 $361 76.60267952513199 $295 $362 forward 7 unknown #
vertex $-1 $215 $363 #
straight-curve $-1 76.60267952513199 0 20.617989750892338 0 1 0 I I #
face $-1 $364 $365 $15 $-1 $366 forward single #
loop $-1 $-1 $367 $218 #
plane-surface $-1 0 0 20.617989750892338 0 0 1 1 0 0 forward_v I I I I #
coedge $-1 $368 $369 $367 $370 reversed $219 $-1 #
coedge $-1 $371 $304 $309 $372 reversed $221 $-1 #
coedge $-1 $303 $373 $222 $305 reversed $221 $-1 #
edge $-1 $310 145.67473026849132 $374 153.20535905026392 $222 $375 forward 7 unknown #
coedge $-1 $376 $377 $223 $307 forward $378 $-1 #
edge $-1 $311 92.866333663602973 $374 96.744894265823419 $306 $379 forward 7 unknown #
coedge $-1 $380 $224 $377 $381 forward $300 $-1 #
coedge $-1 $224 $367 $303 $372 forward $300 $-1 #
vertex $-1 $372 $382 #
vertex $-1 $381 $383 #
straight-curve $-1 12.093325163202749 -2.6571597891610068 20.617989750892335 1 0 0 I I #
vertex $-1 $226 $384 #
point $-1 73.212373100078622 -12.418939865420079 16.466157312943185 #
straight-curve $-1 -76.60267952513199 43.143857856024603 0 0 0 -1 I I #
point $-1 -76.60267952513199 -43.143857856024603 -20.617989750892338 #
straight-curve $-1 -76.60267952513199 0 -20.617989750892338 0 1 0 I I #
point $-1 -76.60267952513199 43.143857856024603 -20.617989750892338 #
face $-1 $-1 $259 $13 $-1 $385 reversed single #
plane-surface $-1 0 43.143857856024603 0 0 -1 0 0 0 -1 forward_v I I I I #
edge $-1 $323 -161.40260035586635 $264 8.197241305602347 $271 $386 forward 7 unknown #
vertex $-1 $251 $387 #
vertex $-1 $328 $388 #
straight-curve $-1 76.60267952513199 0 -20.617989750892338 0 -1 0 I I #
straight-curve $-1 0 43.143857856024603 20.617989750892338 -1 0 0 I I #
coedge $-1 $255 $271 $257 $328 reversed $170 $-1 #
straight-curve $-1 0 -43.143857856024603 20.617989750892338 1 0 0 I I #
edge $-1 $260 -20.617989750892338 $323 20.617989750892338 $257 $389 forward 7 unknown #
edge $-1 $261 -20.617989750892338 $322 20.617989750892338 $258 $390 forward 7 unknown #
point $-1 76.60267952513199 -43.143857856024603 20.617989750892338 #
point $-1 76.60267952513199 43.143857856024603 20.617989750892338 #
straight-curve $-1 -92.997162136336698 -43.143857856024603 -14.514392766651158 0 0 -1 I I #
point $-1 -92.997162136336698 -43.143857856024603 -20.617989750892338 #
straight-curve $-1 0 43.143857856024603 -20.617989750892338 1 0 0 I I #
straight-curve $-1 -76.60267952513199 0 20.617989750892338 0 -1 0 I I #
point $-1 -76.60267952513199 -43.143857856024603 20.617989750892338 #
point $-1 -76.60267952513199 43.143857856024603 20.617989750892338 #
face $-1 $391 $392 $14 $-1 $393 reversed single #
loop $-1 $-1 $394 $278 #
plane-surface $-1 0 0 -20.617989750892338 0 0 1 1 0 0 forward_v I I I I #
coedge $-1 $395 $396 $397 $398 forward $279 $-1 #
coedge $-1 $399 $281 $400 $401 forward $198 $-1 #
coedge $-1 $281 $399 $402 $403 forward $198 $-1 #
coedge $-1 $404 $405 $281 $345 forward $406 $-1 #
edge $-1 $407 -43.143857856024603 $408 43.143857856024603 $344 $409 forward 7 unknown #
coedge $-1 $282 $294 $410 $411 forward $120 $-1 #
coedge $-1 $412 $283 $282 $348 reversed $212 $-1 #
edge $-1 $413 -43.143857856024603 $285 -22.180719941679143 $347 $298 forward 7 unknown #
straight-curve $-1 76.60267952513199 -22.180719941679143 113.48432341449531 0 0 1 I I #
point $-1 76.60267952513199 -22.180719941679143 20.617989750892338 #
straight-curve $-1 76.60267952513199 -6.2094699327100376 16.739429148671874 0 -1 0 I I #
point $-1 76.602679525131975 -22.180719941679143 16.739429148671888 #
coedge $-1 $292 $412 $394 $414 reversed $212 $-1 #
coedge $-1 $415 $295 $292 $355 forward $360 $-1 #
edge $-1 $297 -20.617989750892338 $416 20.617989750892338 $292 $417 forward 7 unknown #
plane-surface $-1 76.60267952513199 0 0 -1 0 0 0 0 1 forward_v I I I I #
coedge $-1 $405 $404 $294 $358 reversed $406 $-1 #
edge $-1 $361 -43.143857856024603 $418 43.143857856024603 $357 $419 forward 7 unknown #
coedge $-1 $295 $400 $405 $420 reversed $360 $-1 #
loop $-1 $-1 $354 $421 #
vertex $-1 $296 $422 #
straight-curve $-1 0 43.143857856024603 20.617989750892338 -1 0 0 I I #
point $-1 76.60267952513199 43.143857856024603 20.617989750892338 #
face $-1 $423 $424 $15 $-1 $425 reversed single #
loop $-1 $-1 $426 $299 #
plane-surface $-1 -84.799920830734351 0 -8.4107957824099771 0 0 1 1 0 0 forward_v I I I I #
coedge $-1 $309 $427 $302 $370 forward $300 $-1 #
coedge $-1 $369 $302 $428 $429 reversed $219 $-1 #
coedge $-1 $302 $368 $371 $430 forward $219 $-1 #
edge $-1 $431 -64.50935436192924 $432 -58.054345647468381 $367 $433 forward 7 unknown #
coedge $-1 $373 $303 $369 $430 reversed $221 $-1 #
edge $-1 $432 -15.971250008969106 $310 3.5523101435490307 $309 $434 forward 7 unknown #
coedge $-1 $304 $371 $376 $435 reversed $221 $-1 #
vertex $-1 $435 $436 #
straight-curve $-1 -54.719943914390626 -2.6571597891610068 95.646023389467985 0.85716729658548041 0 -0.51503808176128008 I I #
coedge $-1 $428 $306 $373 $435 forward $378 $-1 #
coedge $-1 $306 $437 $308 $381 reversed $378 $-1 #
loop $-1 $-1 $428 $438 #
straight-curve $-1 76.60267952513199 -2.6571597891610068 113.48432341449531 0 0 -1 I I #
coedge $-1 $439 $308 $440 $441 forward $300 $-1 #
edge $-1 $311 -2.6571597891610068 $442 43.143857856024603 $377 $443 forward 7 unknown #
point $-1 70.14767081067113 -2.6571597891610068 20.617989750892335 #
point $-1 76.60267952513199 -2.6571597891610068 20.617989750892338 #
point $-1 71.840167721731859 -12.418939865420079 16.124028098118984 #
plane-surface $-1 76.60267952513199 0 0 -1 0 0 0 0 1 forward_v I I I I #
straight-curve $-1 -84.799920830734351 -43.143857856024603 -20.617989750892338 -1 0 0 I I #
point $-1 76.60267952513199 43.143857856024603 -20.617989750892338 #
point $-1 76.60267952513199 -43.143857856024603 -20.617989750892338 #
straight-curve $-1 76.60267952513199 -43.143857856024603 0 0 0 -1 I I #
straight-curve $-1 76.60267952513199 43.143857856024603 0 0 0 -1 I I #
face $-1 $421 $406 $14 $-1 $444 reversed single #
loop $-1 $-1 $445 $338 #
plane-surface $-1 0 -43.143857856024603 0 0 1 0 0 0 1 forward_v I I I I #
coedge $-1 $446 $447 $353 $414 forward $339 $-1 #
coedge $-1 $448 $341 $449 $450 reversed $279 $-1 #
coedge $-1 $341 $448 $399 $451 reversed $279 $-1 #
coedge $-1 $400 $415 $341 $398 reversed $360 $-1 #
edge $-1 $452 -6.1035969842411806 $453 6.1035969842411806 $397 $454 forward 7 unknown #
coedge $-1 $343 $342 $396 $451 forward $198 $-1 #
coedge $-1 $359 $397 $342 $401 reversed $360 $-1 #
edge $-1 $407 -8.197241305602347 $452 8.197241305602347 $400 $455 forward 7 unknown #
coedge $-1 $456 $445 $343 $403 reversed $392 $-1 #
edge $-1 $457 -8.197241305602347 $408 8.197241305602347 $402 $458 forward 7 unknown #
coedge $-1 $357 $344 $445 $459 reversed $406 $-1 #
coedge $-1 $344 $357 $359 $420 forward $406 $-1 #
loop $-1 $-1 $344 $391 #
vertex $-1 $420 $460 #
vertex $-1 $403 $461 #
straight-curve $-1 -76.60267952513199 0 -8.4107957824099771 0 -1 0 I I #
coedge $-1 $445 $462 $346 $411 reversed $392 $-1 #
edge $-1 $418 -76.60267952513199 $413 76.60267952513199 $410 $463 forward 7 unknown #
coedge $-1 $353 $347 $462 $464 forward $212 $-1 #
vertex $-1 $348 $465 #
edge $-1 $416 -43.143857856024603 $466 43.143857856024603 $353 $467 forward 7 unknown #
coedge $-1 $397 $354 $447 $468 reversed $360 $-1 #
vertex $-1 $414 $469 #
straight-curve $-1 76.60267952513199 43.143857856024603 0 0 0 -1 I I #
vertex $-1 $358 $470 #
straight-curve $-1 -76.60267952513199 0 20.617989750892338 0 -1 0 I I #
edge $-1 $361 -20.617989750892338 $407 8.4107957824099771 $359 $471 forward 7 unknown #
face $-1 $293 $360 $14 $-1 $472 reversed single #
point $-1 -76.60267952513199 43.143857856024603 20.617989750892338 #
face $-1 $473 $474 $15 $-1 $475 reversed single #
loop $-1 $-1 $476 $364 #
plane-surface $-1 -92.997162136336698 0 -14.514392766651158 1 0 0 0 0 -1 forward_v I I I I #
coedge $-1 $477 $478 $479 $480 reversed $365 $-1 #
coedge $-1 $367 $481 $482 $483 forward $300 $-1 #
coedge $-1 $482 $376 $368 $429 forward $378 $-1 #
edge $-1 $484 -96.744894265823419 $431 -92.866333663602973 $428 $485 forward 7 unknown #
edge $-1 $484 -153.20535905026392 $432 -145.67473026849132 $369 $486 forward 7 unknown #
vertex $-1 $429 $487 #
vertex $-1 $372 $488 #
straight-curve $-1 12.093325163202749 -22.180719941679143 20.617989750892335 -1 0 0 I I #
straight-curve $-1 70.14767081067113 -6.2094699327100376 20.617989750892328 0 1 0 I I #
edge $-1 $374 -3.5523101435490307 $484 15.971250008969106 $376 $489 forward 7 unknown #
point $-1 76.602679525131975 -2.6571597891610068 16.739429148671888 #
coedge $-1 $377 $490 $491 $492 reversed $378 $-1 #
face $-1 $-1 $378 $15 $-1 $493 reversed single #
coedge $-1 $481 $380 $494 $495 forward $300 $-1 #
coedge $-1 $491 $496 $380 $441 reversed $497 $-1 #
edge $-1 $442 -76.60267952513199 $498 76.60267952513199 $440 $499 forward 7 unknown #
vertex $-1 $381 $500 #
straight-curve $-1 76.60267952513199 0 20.617989750892338 0 1 0 I I #
plane-surface $-1 -76.60267952513199 0 0 1 0 0 0 0 -1 forward_v I I I I #
coedge $-1 $402 $410 $404 $459 forward $392 $-1 #
coedge $-1 $449 $394 $501 $502 forward $339 $-1 #
coedge $-1 $394 $449 $415 $468 forward $339 $-1 #
coedge $-1 $396 $395 $456 $503 reversed $279 $-1 #
coedge $-1 $447 $446 $395 $450 forward $339 $-1 #
edge $-1 $504 -43.143857856024603 $453 43.143857856024603 $395 $505 forward 7 unknown #
edge $-1 $452 -43.143857856024603 $457 43.143857856024603 $396 $506 forward 7 unknown #
vertex $-1 $401 $507 #
vertex $-1 $468 $508 #
straight-curve $-1 -92.997162136336698 43.143857856024603 -14.514392766651158 0 0 -1 I I #
straight-curve $-1 -84.799920830734351 43.143857856024603 -8.4107957824099771 -1 0 0 I I #
coedge $-1 $501 $402 $448 $503 forward $392 $-1 #
vertex $-1 $451 $509 #
straight-curve $-1 -84.799920830734351 -43.143857856024603 -8.4107957824099771 1 0 0 I I #
edge $-1 $418 -20.617989750892338 $408 8.4107957824099771 $404 $510 forward 7 unknown #
point $-1 -76.602679525132004 43.143857856024603 -8.4107957824099771 #
point $-1 -76.602679525132004 -43.143857856024603 -8.4107957824099771 #
coedge $-1 $410 $501 $412 $464 reversed $392 $-1 #
straight-curve $-1 0 -43.143857856024603 20.617989750892338 1 0 0 I I #
edge $-1 $413 -20.617989750892338 $466 20.617989750892338 $412 $511 forward 7 unknown #
point $-1 76.60267952513199 -43.143857856024603 20.617989750892338 #
vertex $-1 $464 $512 #
straight-curve $-1 76.60267952513199 0 -20.617989750892338 0 -1 0 I I #
edge $-1 $453 -92.997162136336698 $416 76.60267952513199 $415 $513 forward 7 unknown #
point $-1 76.60267952513199 43.143857856024603 -20.617989750892338 #
point $-1 -76.60267952513199 -43.143857856024603 20.617989750892338 #
straight-curve $-1 -76.60267952513199 43.143857856024603 0 0 0 -1 I I #
plane-surface $-1 0 43.143857856024603 0 0 -1 0 0 0 -1 forward_v I I I I #
face $-1 $514 $515 $15 $-1 $516 reversed single #
loop $-1 $-1 $517 $423 #
plane-surface $-1 0 0 -20.617989750892338 0 0 1 1 0 0 forward_v I I I I #
coedge $-1 $518 $519 $520 $521 forward $424 $-1 #
coedge $-1 $522 $426 $523 $524 forward $365 $-1 #
coedge $-1 $426 $522 $525 $526 forward $365 $-1 #
coedge $-1 $527 $528 $426 $480 forward $529 $-1 #
edge $-1 $530 -43.143857856024603 $531 43.143857856024603 $479 $532 forward 7 unknown #
coedge $-1 $427 $439 $533 $534 forward $300 $-1 #
coedge $-1 $535 $428 $427 $483 reversed $378 $-1 #
edge $-1 $536 -43.143857856024603 $431 -22.180719941679143 $482 $443 forward 7 unknown #
vertex $-1 $435 $537 #
straight-curve $-1 76.60267952513199 -22.180719941679143 113.48432341449531 0 0 1 I I #
straight-curve $-1 -54.719943914390626 -22.180719941679143 95.646023389467985 -0.85716729658548041 0 0.51503808176128008 I I #
point $-1 76.60267952513199 -22.180719941679143 20.617989750892338 #
point $-1 70.14767081067113 -22.180719941679143 20.617989750892335 #
straight-curve $-1 76.60267952513199 -6.2094699327100376 16.739429148671874 0 -1 0 I I #
coedge $-1 $437 $535 $517 $538 reversed $378 $-1 #
coedge $-1 $539 $440 $437 $492 forward $497 $-1 #
edge $-1 $442 -20.617989750892338 $540 20.617989750892338 $437 $541 forward 7 unknown #
plane-surface $-1 76.60267952513199 0 0 -1 0 0 0 0 1 forward_v I I I I #
coedge $-1 $528 $527 $439 $495 reversed $529 $-1 #
edge $-1 $498 -43.143857856024603 $542 43.143857856024603 $494 $543 forward 7 unknown #
coedge $-1 $440 $523 $528 $544 reversed $497 $-1 #
loop $-1 $-1 $491 $545 #
vertex $-1 $441 $546 #
straight-curve $-1 0 43.143857856024603 20.617989750892338 -1 0 0 I I #
point $-1 76.60267952513199 43.143857856024603 20.617989750892338 #
coedge $-1 $462 $456 $446 $502 reversed $392 $-1 #
edge $-1 $466 -161.40260035586635 $504 8.197241305602347 $501 $547 forward 7 unknown #
edge $-1 $457 -6.1035969842411806 $504 6.1035969842411806 $448 $548 forward 7 unknown #
vertex $-1 $450 $549 #
straight-curve $-1 -92.997162136336698 0 -20.617989750892338 0 1 0 I I #
straight-curve $-1 -92.997162136336698 0 -8.4107957824099771 0 -1 0 I I #
point $-1 -92.997162136336698 43.143857856024603 -8.4107957824099771 #
point $-1 -92.997162136336698 43.143857856024603 -20.617989750892338 #
point $-1 -92.997162136336698 -43.143857856024603 -8.4107957824099771 #
straight-curve $-1 -76.60267952513199 -43.143857856024603 0 0 0 -1 I I #
straight-curve $-1 76.60267952513199 -43.143857856024603 0 0 0 -1 I I #
point $-1 76.60267952513199 -43.143857856024603 -20.617989750892338 #
straight-curve $-1 0 43.143857856024603 -20.617989750892338 1 0 0 I I #
face $-1 $545 $529 $15 $-1 $550 reversed single #
loop $-1 $-1 $551 $473 #
plane-surface $-1 0 -43.143857856024603 0 0 1 0 0 0 1 forward_v I I I I #
coedge $-1 $552 $553 $490 $538 forward $474 $-1 #
coedge $-1 $554 $476 $555 $556 reversed $424 $-1 #
coedge $-1 $476 $554 $522 $557 reversed $424 $-1 #
coedge $-1 $523 $539 $476 $521 reversed $497 $-1 #
edge $-1 $558 -6.1035969842411806 $559 6.1035969842411806 $520 $560 forward 7 unknown #
coedge $-1 $478 $477 $519 $557 forward $365 $-1 #
coedge $-1 $496 $520 $477 $524 reversed $497 $-1 #
edge $-1 $530 -8.197241305602347 $558 8.197241305602347 $523 $561 forward 7 unknown #
coedge $-1 $562 $551 $478 $526 reversed $515 $-1 #
edge $-1 $563 -8.197241305602347 $531 8.197241305602347 $525 $564 forward 7 unknown #
coedge $-1 $494 $479 $551 $565 reversed $529 $-1 #
coedge $-1 $479 $494 $496 $544 forward $529 $-1 #
loop $-1 $-1 $479 $514 #
vertex $-1 $544 $566 #
vertex $-1 $526 $567 #
straight-curve $-1 -76.60267952513199 0 -8.4107957824099771 0 -1 0 I I #
coedge $-1 $551 $568 $481 $534 reversed $515 $-1 #
edge $-1 $542 -76.60267952513199 $536 76.60267952513199 $533 $569 forward 7 unknown #
coedge $-1 $490 $482 $568 $570 forward $378 $-1 #
vertex $-1 $483 $571 #
point $-1 76.602679525131975 -22.180719941679143 16.739429148671888 #
edge $-1 $540 -43.143857856024603 $572 43.143857856024603 $490 $573 forward 7 unknown #
coedge $-1 $520 $491 $553 $574 reversed $497 $-1 #
vertex $-1 $538 $575 #
straight-curve $-1 76.60267952513199 43.143857856024603 0 0 0 -1 I I #
vertex $-1 $495 $576 #
straight-curve $-1 -76.60267952513199 0 20.617989750892338 0 -1 0 I I #
edge $-1 $498 -20.617989750892338 $530 8.4107957824099771 $496 $577 forward 7 unknown #
face $-1 $438 $497 $15 $-1 $578 reversed single #
point $-1 -76.60267952513199 43.143857856024603 20.617989750892338 #
straight-curve $-1 -84.799920830734351 -43.143857856024603 -20.617989750892338 -1 0 0 I I #
straight-curve $-1 -92.997162136336698 -43.143857856024603 -14.514392766651158 0 0 -1 I I #
point $-1 -92.997162136336698 -43.143857856024603 -20.617989750892338 #
plane-surface $-1 -76.60267952513199 0 0 1 0 0 0 0 -1 forward_v I I I I #
coedge $-1 $525 $533 $527 $565 forward $515 $-1 #
coedge $-1 $555 $517 $579 $580 forward $474 $-1 #
coedge $-1 $517 $555 $539 $574 forward $474 $-1 #
coedge $-1 $519 $518 $562 $581 reversed $424 $-1 #
coedge $-1 $553 $552 $518 $556 forward $474 $-1 #
edge $-1 $582 -43.143857856024603 $559 43.143857856024603 $518 $583 forward 7 unknown #
edge $-1 $558 -43.143857856024603 $563 43.143857856024603 $519 $584 forward 7 unknown #
vertex $-1 $524 $585 #
vertex $-1 $574 $586 #
straight-curve $-1 -92.997162136336698 43.143857856024603 -14.514392766651158 0 0 -1 I I #
straight-curve $-1 -84.799920830734351 43.143857856024603 -8.4107957824099771 -1 0 0 I I #
coedge $-1 $579 $525 $554 $581 forward $515 $-1 #
vertex $-1 $557 $587 #
straight-curve $-1 -84.799920830734351 -43.143857856024603 -8.4107957824099771 1 0 0 I I #
edge $-1 $542 -20.617989750892338 $531 8.4107957824099771 $527 $588 forward 7 unknown #
point $-1 -76.602679525132004 43.143857856024603 -8.4107957824099771 #
point $-1 -76.602679525132004 -43.143857856024603 -8.4107957824099771 #
coedge $-1 $533 $579 $535 $570 reversed $515 $-1 #
straight-curve $-1 0 -43.143857856024603 20.617989750892338 1 0 0 I I #
edge $-1 $536 -20.617989750892338 $572 20.617989750892338 $535 $589 forward 7 unknown #
point $-1 76.60267952513199 -43.143857856024603 20.617989750892338 #
vertex $-1 $570 $590 #
straight-curve $-1 76.60267952513199 0 -20.617989750892338 0 -1 0 I I #
edge $-1 $559 -92.997162136336698 $540 76.60267952513199 $539 $591 forward 7 unknown #
point $-1 76.60267952513199 43.143857856024603 -20.617989750892338 #
point $-1 -76.60267952513199 -43.143857856024603 20.617989750892338 #
straight-curve $-1 -76.60267952513199 43.143857856024603 0 0 0 -1 I I #
plane-surface $-1 0 43.143857856024603 0 0 -1 0 0 0 -1 forward_v I I I I #
coedge $-1 $568 $562 $552 $580 reversed $515 $-1 #
edge $-1 $572 -161.40260035586635 $582 8.197241305602347 $579 $592 forward 7 unknown #
edge $-1 $563 -6.1035969842411806 $582 6.1035969842411806 $554 $593 forward 7 unknown #
vertex $-1 $556 $594 #
straight-curve $-1 -92.997162136336698 0 -20.617989750892338 0 1 0 I I #
straight-curve $-1 -92.997162136336698 0 -8.4107957824099771 0 -1 0 I I #
point $-1 -92.997162136336698 43.143857856024603 -8.4107957824099771 #
point $-1 -92.997162136336698 43.143857856024603 -20.617989750892338 #
point $-1 -92.997162136336698 -43.143857856024603 -8.4107957824099771 #
straight-curve $-1 -76.60267952513199 -43.143857856024603 0 0 0 -1 I I #
straight-curve $-1 76.60267952513199 -43.143857856024603 0 0 0 -1 I I #
point $-1 76.60267952513199 -43.143857856024603 -20.617989750892338 #
straight-curve $-1 0 43.143857856024603 -20.617989750892338 1 0 0 I I #
straight-curve $-1 -84.799920830734351 -43.143857856024603 -20.617989750892338 -1 0 0 I I #
straight-curve $-1 -92.997162136336698 -43.143857856024603 -14.514392766651158 0 0 -1 I I #
point $-1 -92.997162136336698 -43.143857856024603 -20.617989750892338 #
End-of-ACIS-data 