500 0 6 0           
7 Unknown 11 ACIS 5.0 NT 24 Thu Mar 25 23:54:04 1999 
-1 9.9999999999999995e-007 1e-010 
body $-1 $6 $-1 $7 #
body $-1 $8 $-1 $9 #
body $-1 $10 $-1 $11 #
body $-1 $12 $-1 $13 #
body $-1 $14 $-1 $15 #
body $-1 $16 $-1 $17 #
lump $-1 $-1 $18 $0 #
transform $-1 1 0 0 0 1 0 0 0 1 55.835444196905428 34.467101955345505 16.808484419850704 1 rotate no_reflect no_shear #
lump $-1 $-1 $19 $1 #
transform $-1 1 0 0 0 1 0 0 0 1 55.835444196905428 34.467101955345505 16.808484419850704 1 rotate no_reflect no_shear #
lump $-1 $-1 $20 $2 #
transform $-1 1 0 0 0 1 0 0 0 1 55.835444196905428 34.467101955345505 16.808484419850704 1 rotate no_reflect no_shear #
lump $-1 $-1 $21 $3 #
transform $-1 1 0 0 0 1 0 0 0 1 55.835444196905428 34.467101955345505 16.808484419850704 1 rotate no_reflect no_shear #
lump $-1 $-1 $22 $4 #
transform $-1 1 0 0 0 1 0 0 0 1 55.835444196905428 34.467101955345505 16.808484419850704 1 rotate no_reflect no_shear #
lump $-1 $-1 $23 $5 #
transform $-1 1 0 0 0 1 0 0 0 1 55.835444196905428 34.467101955345505 16.808484419850704 1 rotate no_reflect no_shear #
shell $-1 $-1 $-1 $24 $-1 $6 #
shell $-1 $-1 $-1 $25 $-1 $8 #
shell $-1 $-1 $-1 $26 $-1 $10 #
shell $-1 $-1 $-1 $27 $-1 $12 #
shell $-1 $-1 $-1 $28 $-1 $14 #
shell $-1 $-1 $-1 $29 $-1 $16 #
face $-1 $30 $31 $18 $-1 $32 forward single #
face $-1 $33 $34 $19 $-1 $35 reversed single #
face $-1 $36 $37 $20 $-1 $38 forward single #
face $-1 $39 $40 $21 $-1 $41 forward single #
face $-1 $42 $43 $22 $-1 $44 reversed single #
face $-1 $45 $46 $23 $-1 $47 forward single #
face $-1 $48 $49 $18 $-1 $50 reversed single #
loop $-1 $-1 $51 $24 #
plane-surface $-1 0 0 16.808484419850704 0 0 1 1 0 0 forward_v I I I I #
face $-1 $52 $53 $19 $-1 $54 reversed single #
loop $-1 $-1 $55 $25 #
plane-surface $-1 -10.133804914470417 -123.65143978354553 80.203321665946234 -1 0 0 0 -0.79863551827123203 0.60181501223851219 forward_v I I I I #
face $-1 $56 $57 $20 $-1 $58 forward single #
loop $-1 $59 $60 $26 #
cone-surface $-1 -33.777493418639821 -32.632120664392488 14.602387004075805 0 0.79863551827123203 -0.60181501223851219 0.25 0 0 1 I I 0 1 0.25 forward I I I I #
face $-1 $61 $62 $21 $-1 $63 forward single #
loop $-1 $64 $65 $27 #
cone-surface $-1 -19.591280316138182 -32.632120664392488 14.602387004075805 0 0.79863551827123203 -0.60181501223851219 0.25 0 0 1 I I 0 1 0.25 forward I I I I #
face $-1 $66 $67 $22 $-1 $68 reversed single #
loop $-1 $-1 $69 $28 #
plane-surface $-1 -39.945508678361065 55.704493834082207 141.27999890912551 -1 0 0 0 0.6560590369687036 0.75470957328743171 forward_v I I I I #
face $-1 $70 $71 $23 $-1 $72 forward single #
loop $-1 $73 $74 $29 #
cone-surface $-1 -47.890476437633247 29.938272067619838 12.412281645964073 0 -0.6560590369687036 -0.75470957328743171 1.5 0 0 1 I I 0 1 1.5 forward I I I I #
face $-1 $75 $76 $18 $-1 $77 reversed single #
loop $-1 $-1 $78 $30 #
plane-surface $-1 0 0 -16.808484419850704 0 0 1 1 0 0 forward_v I I I I #
coedge $-1 $79 $80 $81 $82 forward $31 $-1 #
face $-1 $83 $84 $19 $-1 $85 reversed single #
loop $-1 $-1 $86 $33 #
plane-surface $-1 -26.684386867389001 -34.467101955345484 12.998104600539421 0 -0.79863551827123203 0.60181501223851219 1 0 0 forward_v I I I I #
coedge $-1 $87 $88 $89 $90 reversed $34 $-1 #
face $-1 $-1 $91 $20 $-1 $92 forward single #
loop $-1 $93 $94 $36 #
cone-surface $-1 -33.777493418639821 -32.132973465472965 14.226252621426735 0 0.79863551827123203 -0.60181501223851219 0.125 0 0 1 I I -0.70710678118654746 0.70710678118654746 0.125 forward I I I I #
loop $-1 $-1 $95 $26 #
coedge $-1 $60 $60 $96 $97 reversed $37 $-1 #
face $-1 $-1 $98 $21 $-1 $99 forward single #
loop $-1 $100 $101 $39 #
cone-surface $-1 -19.591280316138182 -32.132973465472965 14.226252621426735 0 0.79863551827123203 -0.60181501223851219 0.125 0 0 1 I I -0.70710678118654746 0.70710678118654746 0.125 forward I I I I #
loop $-1 $-1 $102 $27 #
coedge $-1 $65 $65 $103 $104 reversed $40 $-1 #
face $-1 $105 $106 $22 $-1 $107 reversed single #
loop $-1 $-1 $108 $42 #
plane-surface $-1 -47.890476437633247 -17.558201663000922 57.000910380804115 0 0.6560590369687036 0.75470957328743171 1 0 0 forward_v I I I I #
coedge $-1 $109 $110 $111 $112 reversed $43 $-1 #
face $-1 $-1 $113 $23 $-1 $114 forward single #
loop $-1 $115 $116 $45 #
cone-surface $-1 -47.890476437633247 27.812001687390783 9.9662874275612481 0 -0.6560590369687036 -0.75470957328743171 0.75 0 0 1 I I -0.70710678118654757 0.70710678118654757 0.75 forward I I I I #
loop $-1 $-1 $117 $29 #
coedge $-1 $74 $74 $118 $119 reversed $46 $-1 #
face $-1 $120 $121 $18 $-1 $122 reversed single #
loop $-1 $-1 $123 $48 #
plane-surface $-1 0 -34.467101955345505 0 0 1 0 0 0 1 forward_v I I I I #
coedge $-1 $124 $125 $126 $127 forward $49 $-1 #
coedge $-1 $128 $51 $129 $130 forward $31 $-1 #
coedge $-1 $51 $128 $131 $132 forward $31 $-1 #
coedge $-1 $133 $134 $51 $82 reversed $135 $-1 #
edge $-1 $136 -34.467101955345505 $137 34.467101955345505 $81 $138 forward 7 unknown #
face $-1 $139 $140 $19 $-1 $141 reversed single #
loop $-1 $-1 $142 $52 #
plane-surface $-1 -43.234968820307586 -123.65143978354553 80.203321665946234 1 0 0 0 0.79863551827123203 -0.60181501223851219 forward_v I I I I #
coedge $-1 $143 $144 $145 $146 reversed $53 $-1 #
coedge $-1 $88 $55 $147 $148 reversed $34 $-1 #
coedge $-1 $55 $87 $143 $149 reversed $34 $-1 #
coedge $-1 $145 $150 $55 $90 forward $151 $-1 #
edge $-1 $152 27.358617936427258 $153 30.229945000062088 $89 $154 forward 7 unknown #
loop $-1 $-1 $96 $56 #
plane-surface $-1 -26.684386867389001 -34.467101955345484 12.998104600539421 0 -0.79863551827123203 0.60181501223851219 1 0 0 forward_v I I I I #
loop $-1 $-1 $155 $36 #
coedge $-1 $94 $94 $95 $156 reversed $57 $-1 #
coedge $-1 $95 $95 $94 $156 forward $59 $-1 #
coedge $-1 $96 $96 $60 $97 forward $91 $-1 #
edge $-1 $157 -1.6134285573844791e-016 $157 6.2831853071796004 $96 $158 forward 7 unknown #
loop $-1 $-1 $103 $61 #
plane-surface $-1 -26.684386867389001 -34.467101955345484 12.998104600539421 0 -0.79863551827123203 0.60181501223851219 1 0 0 forward_v I I I I #
loop $-1 $-1 $159 $39 #
coedge $-1 $101 $101 $102 $160 reversed $62 $-1 #
coedge $-1 $102 $102 $101 $160 forward $64 $-1 #
coedge $-1 $103 $103 $65 $104 forward $98 $-1 #
edge $-1 $161 -1.6134285573844791e-016 $161 6.2831853071796004 $103 $162 forward 7 unknown #
face $-1 $163 $164 $22 $-1 $165 forward single #
loop $-1 $-1 $111 $66 #
plane-surface $-1 0 34.467101955345505 0 0 -1 0 0 0 -1 forward_v I I I I #
coedge $-1 $166 $167 $168 $169 reversed $67 $-1 #
coedge $-1 $110 $69 $170 $171 reversed $43 $-1 #
coedge $-1 $69 $109 $166 $172 reversed $43 $-1 #
coedge $-1 $168 $173 $69 $112 forward $106 $-1 #
edge $-1 $174 53.831515034712055 $175 58.863996505610835 $111 $176 forward 7 unknown #
loop $-1 $-1 $118 $70 #
plane-surface $-1 -47.890476437633247 -17.558201663000922 57.000910380804115 0 0.6560590369687036 0.75470957328743171 1 0 0 forward_v I I I I #
loop $-1 $-1 $177 $45 #
coedge $-1 $116 $116 $117 $178 reversed $71 $-1 #
coedge $-1 $117 $117 $116 $178 forward $73 $-1 #
coedge $-1 $118 $118 $74 $119 forward $113 $-1 #
edge $-1 $179 9.3460562613480246e-016 $179 6.2831853071796013 $118 $180 forward 7 unknown #
face $-1 $181 $182 $18 $-1 $183 reversed single #
loop $-1 $-1 $184 $75 #
plane-surface $-1 -55.835444196905428 0 0 1 0 0 0 0 -1 forward_v I I I I #
coedge $-1 $185 $131 $186 $187 forward $76 $-1 #
coedge $-1 $188 $78 $185 $189 forward $49 $-1 #
coedge $-1 $78 $188 $190 $191 forward $49 $-1 #
coedge $-1 $134 $133 $78 $127 reversed $135 $-1 #
edge $-1 $192 -34.467101955345505 $193 34.467101955345505 $126 $194 forward 7 unknown #
coedge $-1 $80 $79 $195 $196 forward $31 $-1 #
coedge $-1 $197 $198 $79 $130 reversed $182 $-1 #
edge $-1 $137 -55.835444196905428 $199 55.835444196905428 $129 $200 forward 7 unknown #
coedge $-1 $123 $201 $80 $132 reversed $76 $-1 #
edge $-1 $202 -55.835444196905428 $136 55.835444196905428 $131 $203 forward 7 unknown #
coedge $-1 $126 $81 $201 $204 forward $135 $-1 #
coedge $-1 $81 $126 $197 $205 reversed $135 $-1 #
loop $-1 $-1 $133 $181 #
vertex $-1 $82 $206 #
vertex $-1 $82 $207 #
straight-curve $-1 55.835444196905428 0 16.808484419850704 0 1 0 I I #
face $-1 $-1 $151 $19 $-1 $208 forward single #
loop $-1 $-1 $209 $83 #
plane-surface $-1 0 -34.467101955345505 0 0 1 0 0 0 1 forward_v I I I I #
coedge $-1 $210 $211 $212 $213 reversed $84 $-1 #
coedge $-1 $214 $86 $88 $149 forward $53 $-1 #
coedge $-1 $86 $214 $210 $215 forward $53 $-1 #
coedge $-1 $212 $89 $86 $146 forward $151 $-1 #
edge $-1 $153 -3.2083885192240835 $216 29.892775386613085 $145 $217 forward 7 unknown #
coedge $-1 $218 $219 $87 $148 forward $140 $-1 #
edge $-1 $220 -27.103556232433725 $152 -23.293176413122413 $147 $221 forward 7 unknown #
edge $-1 $153 -4.771112393748064 $220 3.5527045197628586e-014 $88 $222 forward 7 unknown #
coedge $-1 $89 $212 $218 $223 forward $151 $-1 #
loop $-1 $-1 $212 $139 #
vertex $-1 $148 $224 #
vertex $-1 $90 $225 #
straight-curve $-1 -10.133804914470417 -61.825719891772764 16.808484419850704 0 1 0 I I #
coedge $-1 $155 $155 $-1 $226 reversed $93 $-1 #
edge $-1 $227 0 $227 6.2831853071796004 $94 $228 forward 7 unknown #
vertex $-1 $97 $229 #
ellipse-curve $-1 -33.777493418639821 -33.031438423528087 14.90329451019505 0 -0.79863551827123203 0.60181501223851219 0.25 0 0 1 I I #
coedge $-1 $159 $159 $-1 $230 reversed $100 $-1 #
edge $-1 $231 0 $231 6.2831853071796004 $101 $232 forward 7 unknown #
vertex $-1 $104 $233 #
ellipse-curve $-1 -19.591280316138182 -33.031438423528087 14.90329451019505 0 -0.79863551827123203 0.60181501223851219 0.25 0 0 1 I I #
face $-1 $-1 $234 $22 $-1 $235 reversed single #
loop $-1 $-1 $170 $105 #
plane-surface $-1 0 0 16.808484419850704 0 0 1 1 0 0 forward_v I I I I #
coedge $-1 $236 $108 $110 $172 forward $67 $-1 #
coedge $-1 $108 $236 $237 $238 reversed $67 $-1 #
coedge $-1 $239 $111 $108 $169 forward $106 $-1 #
edge $-1 $175 16.000270459544442 $240 31.890205978088805 $168 $241 forward 7 unknown #
coedge $-1 $242 $243 $109 $171 forward $164 $-1 #
edge $-1 $244 0.82564746785810783 $174 6.6148550383044018 $170 $245 forward 7 unknown #
edge $-1 $175 -68.934203910691025 $244 -61.263428588166434 $110 $246 forward 7 unknown #
coedge $-1 $111 $239 $242 $247 reversed $106 $-1 #
vertex $-1 $247 $248 #
vertex $-1 $112 $249 #
straight-curve $-1 -39.945508678361065 34.467101955345505 70.639999454562755 0 0 -1 I I #
coedge $-1 $177 $177 $-1 $250 reversed $115 $-1 #
edge $-1 $251 0 $251 6.2831853071796004 $116 $252 forward 7 unknown #
vertex $-1 $119 $253 #
ellipse-curve $-1 -47.890476437633247 31.572498170122351 14.292243684401312 0 0.6560590369687036 0.75470957328743171 1.5 0 0 1 I I #
face $-1 $-1 $135 $18 $-1 $254 reversed single #
loop $-1 $-1 $197 $120 #
plane-surface $-1 0 34.467101955345505 0 0 -1 0 0 0 -1 forward_v I I I I #
coedge $-1 $255 $195 $198 $256 forward $121 $-1 #
coedge $-1 $201 $123 $124 $189 reversed $76 $-1 #
coedge $-1 $195 $255 $123 $187 reversed $121 $-1 #
edge $-1 $202 -16.808484419850704 $257 16.808484419850704 $186 $258 forward 7 unknown #
coedge $-1 $125 $124 $255 $259 forward $49 $-1 #
edge $-1 $193 -55.835444196905428 $257 55.835444196905428 $185 $260 forward 7 unknown #
coedge $-1 $198 $197 $125 $191 reversed $182 $-1 #
edge $-1 $261 -55.835444196905428 $192 55.835444196905428 $190 $262 forward 7 unknown #
vertex $-1 $127 $263 #
vertex $-1 $204 $264 #
straight-curve $-1 55.835444196905428 0 -16.808484419850704 0 -1 0 I I #
coedge $-1 $184 $186 $128 $196 reversed $121 $-1 #
edge $-1 $199 -34.467101955345505 $202 34.467101955345505 $195 $265 forward 7 unknown #
coedge $-1 $190 $129 $134 $205 forward $182 $-1 #
coedge $-1 $129 $190 $184 $256 reversed $182 $-1 #
vertex $-1 $130 $266 #
straight-curve $-1 0 34.467101955345505 16.808484419850704 -1 0 0 I I #
coedge $-1 $131 $185 $133 $204 reversed $76 $-1 #
vertex $-1 $196 $267 #
straight-curve $-1 0 -34.467101955345505 16.808484419850704 1 0 0 I I #
edge $-1 $136 -16.808484419850704 $193 16.808484419850704 $133 $268 forward 7 unknown #
edge $-1 $137 -16.808484419850704 $192 16.808484419850704 $134 $269 forward 7 unknown #
point $-1 55.835444196905428 -34.467101955345505 16.808484419850704 #
point $-1 55.835444196905428 34.467101955345505 16.808484419850704 #
plane-surface $-1 0 0 16.808484419850704 0 0 1 1 0 0 forward_v I I I I #
coedge $-1 $219 $218 $211 $270 forward $140 $-1 #
coedge $-1 $211 $142 $144 $215 reversed $84 $-1 #
coedge $-1 $142 $210 $209 $270 reversed $84 $-1 #
coedge $-1 $150 $145 $142 $213 forward $151 $-1 #
edge $-1 $216 -30.229945000062088 $271 -27.358617936427258 $212 $272 forward 7 unknown #
coedge $-1 $144 $143 $219 $273 reversed $53 $-1 #
edge $-1 $274 -3.5527045197628586e-014 $216 4.771112393748064 $210 $275 forward 7 unknown #
vertex $-1 $146 $276 #
straight-curve $-1 -13.342193433694501 -31.595774891710676 16.808484419850704 -1 0 0 I I #
coedge $-1 $209 $147 $150 $223 reversed $140 $-1 #
coedge $-1 $147 $209 $214 $273 forward $140 $-1 #
vertex $-1 $148 $277 #
straight-curve $-1 -10.133804914470417 -34.467101955345505 40.101660832973117 0 0 1 I I #
straight-curve $-1 -10.133804914470417 -34.467101955345484 12.998104600539421 0 -0.60181501223851219 -0.79863551827123203 I I #
edge $-1 $271 -43.234968820307586 $152 -10.133804914470417 $218 $278 forward 7 unknown #
point $-1 -10.133804914470417 -34.467101955345505 16.808484419850704 #
point $-1 -10.133804914470417 -31.595774891710676 16.808484419850704 #
edge $-1 $279 1 $279 0 $155 $-1 forward 7 unknown #
vertex $-1 $156 $280 #
ellipse-curve $-1 -33.777493418639821 -32.232802905256868 14.301479497956549 0 -0.79863551827123203 0.60181501223851219 0.25 0 0 1 I I #
point $-1 -33.527493418639821 -33.031438423528101 14.90329451019506 #
edge $-1 $281 1 $281 0 $159 $-1 forward 7 unknown #
vertex $-1 $160 $282 #
ellipse-curve $-1 -19.591280316138182 -32.232802905256868 14.301479497956549 0 -0.79863551827123203 0.60181501223851219 0.25 0 0 1 I I #
point $-1 -19.341280316138182 -33.031438423528101 14.90329451019506 #
loop $-1 $-1 $237 $163 #
plane-surface $-1 -55.835444196905428 0 0 1 0 0 0 0 -1 forward_v I I I I #
coedge $-1 $167 $166 $243 $283 reversed $67 $-1 #
coedge $-1 $284 $285 $167 $238 forward $234 $-1 #
edge $-1 $240 -43.6105512829171 $286 -35.939775960392517 $237 $287 forward 7 unknown #
coedge $-1 $173 $168 $285 $288 reversed $106 $-1 #
vertex $-1 $169 $289 #
straight-curve $-1 -23.945238218816623 34.467101955345505 11.776002948951923 -1 0 0 I I #
coedge $-1 $290 $170 $173 $247 forward $164 $-1 #
coedge $-1 $170 $290 $236 $283 forward $164 $-1 #
vertex $-1 $171 $291 #
straight-curve $-1 -39.945508678361065 27.852246917041104 16.8084844198507 0 1 0 I I #
straight-curve $-1 -39.945508678361065 -17.558201663000922 57.000910380804115 0 -0.75470957328743171 0.6560590369687036 I I #
edge $-1 $174 39.945508678361065 $292 55.835444196905428 $173 $293 forward 7 unknown #
point $-1 -39.945508678361065 34.467101955345505 16.808484419850704 #
point $-1 -39.945508678361065 34.467101955345505 11.77600294895192 #
edge $-1 $294 1 $294 0 $177 $-1 forward 7 unknown #
vertex $-1 $178 $295 #
ellipse-curve $-1 -47.890476437633247 28.304045965117311 10.532319607526821 0 0.6560590369687036 0.75470957328743171 1.5 0 0 1 I I #
point $-1 -46.390476437633247 31.572498170122365 14.292243684401326 #
plane-surface $-1 55.835444196905428 0 0 -1 0 0 0 0 1 forward_v I I I I #
coedge $-1 $186 $184 $188 $259 reversed $121 $-1 #
edge $-1 $199 -16.808484419850704 $261 16.808484419850704 $198 $296 forward 7 unknown #
vertex $-1 $259 $297 #
straight-curve $-1 -55.835444196905428 -34.467101955345505 0 0 0 -1 I I #
edge $-1 $257 -34.467101955345505 $261 34.467101955345505 $255 $298 forward 7 unknown #
straight-curve $-1 0 -34.467101955345505 -16.808484419850704 -1 0 0 I I #
vertex $-1 $191 $299 #
straight-curve $-1 0 34.467101955345505 -16.808484419850704 1 0 0 I I #
point $-1 55.835444196905428 34.467101955345505 -16.808484419850704 #
point $-1 55.835444196905428 -34.467101955345505 -16.808484419850704 #
straight-curve $-1 -55.835444196905428 0 16.808484419850704 0 -1 0 I I #
point $-1 -55.835444196905428 34.467101955345505 16.808484419850704 #
point $-1 -55.835444196905428 -34.467101955345505 16.808484419850704 #
straight-curve $-1 55.835444196905428 -34.467101955345505 0 0 0 -1 I I #
straight-curve $-1 55.835444196905428 34.467101955345505 0 0 0 -1 I I #
edge $-1 $271 23.293176413122413 $274 27.103556232433725 $209 $300 forward 7 unknown #
vertex $-1 $223 $301 #
straight-curve $-1 -43.234968820307586 -61.825719891772764 16.808484419850704 0 -1 0 I I #
edge $-1 $274 -29.892775386613085 $220 3.2083885192240835 $219 $302 forward 7 unknown #
vertex $-1 $273 $303 #
straight-curve $-1 -43.234968820307586 -34.467101955345484 12.998104600539421 0 0.60181501223851219 0.79863551827123203 I I #
point $-1 -43.234968820307586 -31.595774891710676 16.808484419850704 #
point $-1 -10.133804914470417 -34.467101955345505 12.998104600539392 #
straight-curve $-1 0 -34.467101955345505 16.808484419850704 1 0 0 I I #
vertex $-1 $226 $304 #
point $-1 -33.527493418639821 -32.232802905256868 14.301479497956549 #
vertex $-1 $230 $305 #
point $-1 -19.341280316138182 -32.232802905256868 14.301479497956549 #
edge $-1 $286 -31.890205978088805 $244 -16.000270459544442 $243 $306 forward 7 unknown #
coedge $-1 $285 $237 $290 $307 reversed $234 $-1 #
coedge $-1 $237 $284 $239 $288 forward $234 $-1 #
vertex $-1 $238 $308 #
straight-curve $-1 -55.835444196905428 1.5538014057854781 40.38709922529678 0 -0.75470957328743171 0.6560590369687036 I I #
edge $-1 $292 -16.808484419850704 $240 -11.776002948951927 $239 $309 forward 7 unknown #
point $-1 -55.835444196905428 34.467101955345505 11.776002948951927 #
coedge $-1 $243 $242 $284 $307 forward $164 $-1 #
point $-1 -39.945508678361065 28.677894384899211 16.8084844198507 #
vertex $-1 $247 $310 #
straight-curve $-1 0 34.467101955345505 16.808484419850704 -1 0 0 I I #
vertex $-1 $250 $311 #
point $-1 -46.390476437633247 28.304045965117311 10.532319607526821 #
straight-curve $-1 -55.835444196905428 34.467101955345505 0 0 0 -1 I I #
point $-1 -55.835444196905428 -34.467101955345505 -16.808484419850704 #
straight-curve $-1 -55.835444196905428 0 -16.808484419850704 0 1 0 I I #
point $-1 -55.835444196905428 34.467101955345505 -16.808484419850704 #
straight-curve $-1 -43.234968820307586 -34.467101955345505 40.101660832973117 0 0 -1 I I #
point $-1 -43.234968820307586 -34.467101955345505 16.808484419850704 #
straight-curve $-1 -13.342193433694501 -34.467101955345505 12.998104600539396 1 0 0 I I #
point $-1 -43.234968820307586 -34.467101955345505 12.998104600539392 #
point $-1 -33.777493418639821 -32.033144025689062 14.15102574489692 #
point $-1 -19.591280316138182 -32.033144025689062 14.15102574489692 #
straight-curve $-1 -23.945238218816623 28.677894384899201 16.808484419850707 1 0 0 I I #
edge $-1 $292 -34.467101955345505 $286 -28.677894384899211 $284 $312 forward 7 unknown #
point $-1 -55.835444196905428 28.677894384899211 16.8084844198507 #
straight-curve $-1 -55.835444196905428 34.467101955345505 0 0 0 -1 I I #
point $-1 -55.835444196905428 34.467101955345505 16.808484419850704 #
point $-1 -47.890476437633247 27.319957409664255 9.4002552475956751 #
straight-curve $-1 -55.835444196905428 0 16.808484419850704 0 -1 0 I I #
End-of-ACIS-data 