500 0 9 0           
7 Unknown 11 ACIS 5.0 NT 24 Thu Mar 25 19:23:45 1999 
-1 9.9999999999999995e-007 1e-010 
body $-1 $9 $-1 $10 #
body $-1 $11 $-1 $12 #
body $-1 $13 $-1 $14 #
body $-1 $15 $-1 $16 #
body $-1 $17 $-1 $18 #
body $-1 $19 $-1 $20 #
body $-1 $21 $-1 $22 #
body $-1 $23 $-1 $24 #
body $-1 $25 $-1 $26 #
lump $-1 $-1 $27 $0 #
transform $-1 1 0 0 0 1 0 0 0 1 43.827021088290046 29.332284162978286 11.738642801781269 1 rotate no_reflect no_shear #
lump $-1 $-1 $28 $1 #
transform $-1 1 0 0 0 1 0 0 0 1 43.827021088290046 29.332284162978286 11.738642801781269 1 rotate no_reflect no_shear #
lump $-1 $-1 $29 $2 #
transform $-1 1 0 0 0 1 0 0 0 1 43.827021088290046 29.332284162978286 11.738642801781269 1 rotate no_reflect no_shear #
lump $-1 $-1 $30 $3 #
transform $-1 1 0 0 0 1 0 0 0 1 43.827021088290046 29.332284162978286 11.738642801781269 1 rotate no_reflect no_shear #
lump $-1 $-1 $31 $4 #
transform $-1 1 0 0 0 1 0 0 0 1 43.827021088290046 29.332284162978286 11.738642801781269 1 rotate no_reflect no_shear #
lump $-1 $-1 $32 $5 #
transform $-1 1 0 0 0 1 0 0 0 1 43.827021088290046 29.332284162978286 11.738642801781269 1 rotate no_reflect no_shear #
lump $-1 $-1 $33 $6 #
transform $-1 1 0 0 0 1 0 0 0 1 43.827021088290046 29.332284162978286 11.738642801781269 1 rotate no_reflect no_shear #
lump $-1 $-1 $34 $7 #
transform $-1 1 0 0 0 1 0 0 0 1 43.827021088290046 29.332284162978286 11.738642801781269 1 rotate no_reflect no_shear #
lump $-1 $-1 $35 $8 #
transform $-1 1 0 0 0 1 0 0 0 1 43.827021088290046 29.332284162978286 11.738642801781269 1 rotate no_reflect no_shear #
shell $-1 $-1 $-1 $36 $-1 $9 #
shell $-1 $-1 $-1 $37 $-1 $11 #
shell $-1 $-1 $-1 $38 $-1 $13 #
shell $-1 $-1 $-1 $39 $-1 $15 #
shell $-1 $-1 $-1 $40 $-1 $17 #
shell $-1 $-1 $-1 $41 $-1 $19 #
shell $-1 $-1 $-1 $42 $-1 $21 #
shell $-1 $-1 $-1 $43 $-1 $23 #
shell $-1 $-1 $-1 $44 $-1 $25 #
face $-1 $45 $46 $27 $-1 $47 forward single #
face $-1 $48 $49 $28 $-1 $50 forward single #
face $-1 $51 $52 $29 $-1 $53 reversed single #
face $-1 $54 $55 $30 $-1 $56 forward single #
face $-1 $57 $58 $31 $-1 $59 forward single #
face $-1 $60 $61 $32 $-1 $62 reversed single #
face $-1 $63 $64 $33 $-1 $65 forward single #
face $-1 $66 $67 $34 $-1 $68 forward single #
face $-1 $69 $70 $35 $-1 $71 forward single #
face $-1 $72 $73 $27 $-1 $74 reversed single #
loop $-1 $-1 $75 $36 #
plane-surface $-1 0 0 11.738642801781269 0 0 1 1 0 0 forward_v I I I I #
face $-1 $76 $77 $28 $-1 $78 reversed single #
loop $-1 $-1 $79 $37 #
plane-surface $-1 0 -29.332284162978286 0 0 1 0 0 0 1 forward_v I I I I #
face $-1 $80 $81 $29 $-1 $82 reversed single #
loop $-1 $-1 $83 $38 #
plane-surface $-1 -118.96120050317717 13.171347866284151 53.864875784459116 0 1 0 -0.85716730853699208 0 0.51503806187062418 forward_v I I I I #
face $-1 $84 $85 $30 $-1 $86 forward single #
loop $-1 $87 $88 $39 #
cone-surface $-1 -42.101760280140645 15.219203505746716 9.7375023277126243 0.85716730853699208 0 -0.51503806187062418 0.25751903093531209 0 0.42858365426849604 1 I I 0 1 0.5 forward I I I I #
face $-1 $89 $90 $31 $-1 $91 forward single #
loop $-1 $92 $93 $40 #
cone-surface $-1 -42.101760280140645 18.290986964940554 9.7375023277126243 0.85716730853699208 0 -0.51503806187062418 0.25751903093531209 0 0.42858365426849604 1 I I 0 1 0.5 forward I I I I #
face $-1 $94 $95 $32 $-1 $96 reversed single #
loop $-1 $-1 $97 $41 #
plane-surface $-1 63.218879244260656 3.7521744664418399 124.12617961072716 0 -1 0 -0.80901700255871778 0 -0.5877852410284794 forward_v I I I I #
face $-1 $98 $99 $33 $-1 $100 forward single #
loop $-1 $101 $102 $42 #
cone-surface $-1 39.126054582617492 -6.0810148387960581 5.9512207040844434 -0.80901700255871778 0 -0.5877852410284794 0.5877852410284794 0 -0.80901700255871778 1 I I 0 1 1 forward I I I I #
face $-1 $103 $104 $34 $-1 $105 forward single #
loop $-1 $106 $107 $43 #
cone-surface $-1 39.126054582617492 -2.3935688493318459 5.9512207040844434 -0.80901700255871778 0 -0.5877852410284794 0.5877852410284794 0 -0.80901700255871778 1 I I 0 1 1 forward I I I I #
face $-1 $108 $109 $35 $-1 $110 forward single #
loop $-1 $111 $112 $44 #
cone-surface $-1 39.126054582617492 1.2938771401323663 5.9512207040844434 -0.80901700255871778 0 -0.5877852410284794 0.5877852410284794 0 -0.80901700255871778 1 I I 0 1 1 forward I I I I #
face $-1 $113 $114 $27 $-1 $115 reversed single #
loop $-1 $-1 $116 $45 #
plane-surface $-1 0 0 -11.738642801781269 0 0 1 1 0 0 forward_v I I I I #
coedge $-1 $117 $118 $119 $120 forward $46 $-1 #
face $-1 $121 $122 $28 $-1 $123 reversed single #
loop $-1 $-1 $124 $48 #
plane-surface $-1 0 0 -11.738642801781269 0 0 1 1 0 0 forward_v I I I I #
coedge $-1 $125 $126 $127 $128 forward $49 $-1 #
face $-1 $129 $130 $29 $-1 $131 reversed single #
loop $-1 $-1 $132 $51 #
plane-surface $-1 -43.827021088290024 16.755095235343628 8.7197077867073602 -0.85716730853699208 0 0.51503806187062418 0.51503806187062418 0 0.85716730853699208 forward_v I I I I #
coedge $-1 $133 $134 $135 $136 reversed $52 $-1 #
face $-1 $-1 $137 $30 $-1 $138 forward single #
loop $-1 $139 $140 $54 #
cone-surface $-1 -41.069187194585076 15.219203505746716 9.1170698457132726 0.85716730853699208 0 -0.51503806187062418 0.12875951546765604 0 0.21429182713424802 1 I I -0.70710678118654746 0.70710678118654746 0.25 forward I I I I #
loop $-1 $-1 $141 $39 #
coedge $-1 $88 $88 $142 $143 reversed $55 $-1 #
face $-1 $-1 $144 $31 $-1 $145 forward single #
loop $-1 $146 $147 $57 #
cone-surface $-1 -41.069187194585076 18.290986964940554 9.1170698457132726 0.85716730853699208 0 -0.51503806187062418 0.12875951546765604 0 0.21429182713424802 1 I I -0.70710678118654746 0.70710678118654746 0.25 forward I I I I #
loop $-1 $-1 $148 $40 #
coedge $-1 $93 $93 $149 $150 reversed $58 $-1 #
face $-1 $151 $152 $32 $-1 $153 reversed single #
loop $-1 $-1 $154 $60 #
plane-surface $-1 -7.6947312195915956 -2.3935688493318459 72.604427302845536 0.80901700255871778 0 0.5877852410284794 0.5877852410284794 0 -0.80901700255871778 forward_v I I I I #
coedge $-1 $155 $156 $157 $158 reversed $61 $-1 #
face $-1 $-1 $159 $33 $-1 $160 forward single #
loop $-1 $161 $162 $63 #
cone-surface $-1 37.670665906775106 -6.0810148387960581 4.8938189672673627 -0.80901700255871778 0 -0.5877852410284794 0.2938926205142397 0 -0.40450850127935889 1 I I -0.70710678118654746 0.70710678118654746 0.5 forward I I I I #
loop $-1 $-1 $163 $42 #
coedge $-1 $102 $102 $164 $165 reversed $64 $-1 #
face $-1 $-1 $166 $34 $-1 $167 forward single #
loop $-1 $168 $169 $66 #
cone-surface $-1 37.670665906775106 -2.3935688493318459 4.8938189672673627 -0.80901700255871778 0 -0.5877852410284794 0.2938926205142397 0 -0.40450850127935889 1 I I -0.70710678118654746 0.70710678118654746 0.5 forward I I I I #
loop $-1 $-1 $170 $43 #
coedge $-1 $107 $107 $171 $172 reversed $67 $-1 #
face $-1 $-1 $173 $35 $-1 $174 forward single #
loop $-1 $175 $176 $69 #
cone-surface $-1 37.670665906775106 1.2938771401323663 4.8938189672673627 -0.80901700255871778 0 -0.5877852410284794 0.2938926205142397 0 -0.40450850127935889 1 I I -0.70710678118654746 0.70710678118654746 0.5 forward I I I I #
loop $-1 $-1 $177 $44 #
coedge $-1 $112 $112 $178 $179 reversed $70 $-1 #
face $-1 $180 $181 $27 $-1 $182 reversed single #
loop $-1 $-1 $183 $72 #
plane-surface $-1 0 -29.332284162978286 0 0 1 0 0 0 1 forward_v I I I I #
coedge $-1 $184 $185 $186 $187 forward $73 $-1 #
coedge $-1 $188 $75 $189 $190 forward $46 $-1 #
coedge $-1 $75 $188 $191 $192 forward $46 $-1 #
coedge $-1 $193 $194 $75 $120 reversed $195 $-1 #
edge $-1 $196 -29.332284162978286 $197 29.332284162978286 $119 $198 forward 7 unknown #
face $-1 $199 $200 $28 $-1 $201 forward single #
loop $-1 $-1 $202 $76 #
plane-surface $-1 43.827021088290046 0 0 -1 0 0 0 0 1 forward_v I I I I #
coedge $-1 $203 $204 $205 $206 forward $77 $-1 #
coedge $-1 $205 $79 $202 $207 reversed $49 $-1 #
coedge $-1 $79 $205 $208 $209 reversed $49 $-1 #
coedge $-1 $210 $211 $79 $128 reversed $200 $-1 #
edge $-1 $212 -43.827021088290046 $213 43.827021088290046 $127 $214 forward 7 unknown #
face $-1 $215 $216 $29 $-1 $217 forward single #
loop $-1 $-1 $218 $80 #
plane-surface $-1 -118.96120050317717 20.338842604403105 53.864875784459116 0 -1 0 0.85716730853699208 0 -0.51503806187062418 forward_v I I I I #
coedge $-1 $219 $220 $221 $222 reversed $81 $-1 #
coedge $-1 $134 $83 $223 $224 reversed $52 $-1 #
coedge $-1 $83 $133 $219 $225 reversed $52 $-1 #
coedge $-1 $221 $226 $83 $136 forward $216 $-1 #
edge $-1 $227 15.653579163298538 $228 17.467538262754729 $135 $229 forward 7 unknown #
loop $-1 $-1 $142 $84 #
plane-surface $-1 -43.827021088290024 16.755095235343628 8.7197077867073602 -0.85716730853699208 0 0.51503806187062418 0.51503806187062418 0 0.85716730853699208 forward_v I I I I #
loop $-1 $-1 $230 $54 #
coedge $-1 $140 $140 $141 $231 reversed $85 $-1 #
coedge $-1 $141 $141 $140 $231 forward $87 $-1 #
coedge $-1 $142 $142 $88 $143 forward $137 $-1 #
edge $-1 $232 0 $232 6.2831853071796004 $142 $233 forward 7 unknown #
loop $-1 $-1 $149 $89 #
plane-surface $-1 -43.827021088290024 16.755095235343628 8.7197077867073602 -0.85716730853699208 0 0.51503806187062418 0.51503806187062418 0 0.85716730853699208 forward_v I I I I #
loop $-1 $-1 $234 $57 #
coedge $-1 $147 $147 $148 $235 reversed $90 $-1 #
coedge $-1 $148 $148 $147 $235 forward $92 $-1 #
coedge $-1 $149 $149 $93 $150 forward $144 $-1 #
edge $-1 $236 0 $236 6.2831853071796004 $149 $237 forward 7 unknown #
face $-1 $238 $239 $32 $-1 $240 reversed single #
loop $-1 $-1 $241 $94 #
plane-surface $-1 63.218879244260656 -8.5393121651055317 124.12617961072716 0 1 0 0.80901700255871778 0 0.5877852410284794 forward_v I I I I #
coedge $-1 $242 $243 $244 $245 reversed $95 $-1 #
coedge $-1 $156 $97 $246 $247 reversed $61 $-1 #
coedge $-1 $97 $155 $242 $248 reversed $61 $-1 #
coedge $-1 $244 $249 $97 $158 forward $250 $-1 #
edge $-1 $251 -12.217581466159718 $252 -4.9174088039406563 $157 $253 forward 7 unknown #
loop $-1 $-1 $164 $98 #
plane-surface $-1 -7.6947312195915956 -2.3935688493318459 72.604427302845536 0.80901700255871778 0 0.5877852410284794 0.5877852410284794 0 -0.80901700255871778 forward_v I I I I #
loop $-1 $-1 $254 $63 #
coedge $-1 $162 $162 $163 $255 reversed $99 $-1 #
coedge $-1 $163 $163 $162 $255 forward $101 $-1 #
coedge $-1 $164 $164 $102 $165 forward $159 $-1 #
edge $-1 $256 0 $256 6.2831853071796004 $164 $257 forward 7 unknown #
loop $-1 $-1 $171 $103 #
plane-surface $-1 -7.6947312195915956 -2.3935688493318459 72.604427302845536 0.80901700255871778 0 0.5877852410284794 0.5877852410284794 0 -0.80901700255871778 forward_v I I I I #
loop $-1 $-1 $258 $66 #
coedge $-1 $169 $169 $170 $259 reversed $104 $-1 #
coedge $-1 $170 $170 $169 $259 forward $106 $-1 #
coedge $-1 $171 $171 $107 $172 forward $166 $-1 #
edge $-1 $260 0 $260 6.2831853071796004 $171 $261 forward 7 unknown #
loop $-1 $-1 $178 $108 #
plane-surface $-1 -7.6947312195915956 -2.3935688493318459 72.604427302845536 0.80901700255871778 0 0.5877852410284794 0.5877852410284794 0 -0.80901700255871778 forward_v I I I I #
loop $-1 $-1 $262 $69 #
coedge $-1 $176 $176 $177 $263 reversed $109 $-1 #
coedge $-1 $177 $177 $176 $263 forward $111 $-1 #
coedge $-1 $178 $178 $112 $179 forward $173 $-1 #
edge $-1 $264 0 $264 6.2831853071796004 $178 $265 forward 7 unknown #
face $-1 $266 $267 $27 $-1 $268 reversed single #
loop $-1 $-1 $269 $113 #
plane-surface $-1 -43.827021088290046 0 0 1 0 0 0 0 -1 forward_v I I I I #
coedge $-1 $191 $270 $193 $271 reversed $114 $-1 #
coedge $-1 $272 $116 $270 $273 forward $73 $-1 #
coedge $-1 $116 $272 $274 $275 forward $73 $-1 #
coedge $-1 $194 $193 $116 $187 reversed $195 $-1 #
edge $-1 $276 -29.332284162978286 $277 29.332284162978286 $186 $278 forward 7 unknown #
coedge $-1 $118 $117 $279 $280 forward $46 $-1 #
coedge $-1 $281 $282 $117 $190 reversed $267 $-1 #
edge $-1 $197 -43.827021088290046 $283 43.827021088290046 $189 $284 forward 7 unknown #
coedge $-1 $285 $183 $118 $192 reversed $114 $-1 #
edge $-1 $286 -43.827021088290046 $196 43.827021088290046 $191 $287 forward 7 unknown #
coedge $-1 $186 $119 $183 $271 forward $195 $-1 #
coedge $-1 $119 $186 $281 $288 reversed $195 $-1 #
loop $-1 $-1 $193 $266 #
vertex $-1 $120 $289 #
vertex $-1 $120 $290 #
straight-curve $-1 43.827021088290046 0 11.738642801781269 0 1 0 I I #
face $-1 $291 $292 $28 $-1 $293 reversed single #
loop $-1 $-1 $211 $121 #
plane-surface $-1 0 -36.091341452905937 -5.6273263078823259 0 0 1 1 0 0 forward_v I I I I #
coedge $-1 $294 $295 $125 $207 forward $122 $-1 #
coedge $-1 $296 $124 $295 $297 forward $77 $-1 #
coedge $-1 $124 $296 $298 $299 forward $77 $-1 #
coedge $-1 $126 $125 $124 $206 reversed $49 $-1 #
edge $-1 $300 -43.827021088290046 $301 43.827021088290046 $124 $302 forward 7 unknown #
edge $-1 $301 -11.738642801781269 $213 -5.6273263078823259 $202 $303 forward 7 unknown #
coedge $-1 $298 $304 $126 $209 forward $305 $-1 #
edge $-1 $212 5.6273263078823259 $300 11.738642801781269 $208 $306 forward 7 unknown #
coedge $-1 $307 $127 $304 $308 forward $200 $-1 #
coedge $-1 $127 $307 $294 $309 forward $200 $-1 #
vertex $-1 $209 $310 #
vertex $-1 $309 $311 #
straight-curve $-1 0 -29.332284162978286 -5.6273263078823259 1 0 0 I I #
face $-1 $-1 $312 $29 $-1 $313 reversed single #
loop $-1 $-1 $135 $129 #
plane-surface $-1 0 0 11.738642801781269 0 0 1 1 0 0 forward_v I I I I #
coedge $-1 $314 $315 $316 $317 reversed $130 $-1 #
coedge $-1 $318 $132 $134 $225 forward $81 $-1 #
coedge $-1 $132 $318 $314 $319 forward $81 $-1 #
coedge $-1 $316 $135 $132 $222 forward $216 $-1 #
edge $-1 $228 4.793800248612337 $320 11.961294986731291 $221 $321 forward 7 unknown #
coedge $-1 $322 $323 $133 $224 forward $312 $-1 #
edge $-1 $324 -18.212730105522233 $227 -15.193795090448289 $223 $325 forward 7 unknown #
edge $-1 $228 -3.5219903804154762 $324 4.1431396825663817e-014 $134 $326 forward 7 unknown #
coedge $-1 $135 $316 $322 $327 forward $216 $-1 #
vertex $-1 $224 $328 #
vertex $-1 $136 $329 #
straight-curve $-1 -59.480600251588584 13.171347866284151 11.738642801781268 1 0 0 I I #
coedge $-1 $230 $230 $-1 $330 reversed $139 $-1 #
edge $-1 $331 0 $331 6.2831853071796004 $140 $332 forward 7 unknown #
vertex $-1 $143 $333 #
ellipse-curve $-1 -42.920041538561946 15.219203505746716 10.229175294244307 -0.85716730853699208 0 0.51503806187062418 0.25751903093531209 0 0.42858365426849604 1 I I #
coedge $-1 $234 $234 $-1 $334 reversed $146 $-1 #
edge $-1 $335 0 $335 6.2831853071796004 $147 $336 forward 7 unknown #
vertex $-1 $150 $337 #
ellipse-curve $-1 -42.920041538561946 18.290986964940554 10.229175294244307 -0.85716730853699208 0 0.51503806187062418 0.25751903093531209 0 0.42858365426849604 1 I I #
face $-1 $-1 $250 $32 $-1 $338 forward single #
loop $-1 $-1 $339 $151 #
plane-surface $-1 43.827021088290046 0 0 -1 0 0 0 0 1 forward_v I I I I #
coedge $-1 $340 $341 $342 $343 reversed $152 $-1 #
coedge $-1 $344 $154 $156 $248 forward $95 $-1 #
coedge $-1 $154 $344 $340 $345 forward $95 $-1 #
coedge $-1 $342 $157 $154 $245 forward $250 $-1 #
edge $-1 $252 -4.9489588911077629 $346 7.3425277404396088 $244 $347 forward 7 unknown #
coedge $-1 $348 $349 $155 $247 forward $239 $-1 #
edge $-1 $350 -60.372272966370325 $251 -50.324447003582314 $246 $351 forward 7 unknown #
edge $-1 $252 75.234246386121754 $350 87.65404217658012 $156 $352 forward 7 unknown #
coedge $-1 $157 $342 $348 $353 forward $250 $-1 #
loop $-1 $-1 $342 $238 #
vertex $-1 $247 $354 #
vertex $-1 $158 $355 #
straight-curve $-1 31.609439622130328 3.7521744664418399 11.738642801781268 -1 0 0 I I #
coedge $-1 $254 $254 $-1 $356 reversed $161 $-1 #
edge $-1 $357 0 $357 6.2831853071796004 $162 $358 forward 7 unknown #
vertex $-1 $165 $359 #
ellipse-curve $-1 40.176934757180504 -6.0810148387960581 6.7147298203872747 0.80901700255871778 0 0.5877852410284794 0.5877852410284794 0 -0.80901700255871778 1 I I #
coedge $-1 $258 $258 $-1 $360 reversed $168 $-1 #
edge $-1 $361 0 $361 6.2831853071796004 $169 $362 forward 7 unknown #
vertex $-1 $172 $363 #
ellipse-curve $-1 40.176934757180504 -2.3935688493318459 6.7147298203872747 0.80901700255871778 0 0.5877852410284794 0.5877852410284794 0 -0.80901700255871778 1 I I #
coedge $-1 $262 $262 $-1 $364 reversed $175 $-1 #
edge $-1 $365 0 $365 6.2831853071796004 $176 $366 forward 7 unknown #
vertex $-1 $179 $367 #
ellipse-curve $-1 40.176934757180504 1.2938771401323663 6.7147298203872747 0.80901700255871778 0 0.5877852410284794 0.5877852410284794 0 -0.80901700255871778 1 I I #
face $-1 $-1 $195 $27 $-1 $368 reversed single #
loop $-1 $-1 $281 $180 #
plane-surface $-1 0 29.332284162978286 0 0 -1 0 0 0 -1 forward_v I I I I #
coedge $-1 $369 $279 $282 $370 forward $181 $-1 #
coedge $-1 $183 $285 $184 $273 reversed $114 $-1 #
edge $-1 $196 -11.738642801781269 $277 11.738642801781269 $193 $371 forward 7 unknown #
coedge $-1 $185 $184 $369 $372 forward $73 $-1 #
edge $-1 $277 -43.827021088290046 $373 43.827021088290046 $270 $374 forward 7 unknown #
coedge $-1 $282 $281 $185 $275 reversed $267 $-1 #
edge $-1 $375 -43.827021088290046 $276 43.827021088290046 $274 $376 forward 7 unknown #
vertex $-1 $187 $377 #
vertex $-1 $271 $378 #
straight-curve $-1 43.827021088290046 0 -11.738642801781269 0 -1 0 I I #
coedge $-1 $269 $379 $188 $280 reversed $181 $-1 #
edge $-1 $283 -29.332284162978286 $286 29.332284162978286 $279 $380 forward 7 unknown #
coedge $-1 $274 $189 $194 $288 forward $267 $-1 #
coedge $-1 $189 $274 $269 $370 reversed $267 $-1 #
vertex $-1 $190 $381 #
straight-curve $-1 0 29.332284162978286 11.738642801781269 -1 0 0 I I #
coedge $-1 $270 $191 $379 $382 forward $114 $-1 #
vertex $-1 $280 $383 #
straight-curve $-1 0 -29.332284162978286 11.738642801781269 1 0 0 I I #
edge $-1 $197 -11.738642801781269 $276 11.738642801781269 $194 $384 forward 7 unknown #
point $-1 43.827021088290046 -29.332284162978286 11.738642801781269 #
point $-1 43.827021088290046 29.332284162978286 11.738642801781269 #
face $-1 $-1 $305 $28 $-1 $385 reversed single #
loop $-1 $-1 $386 $199 #
plane-surface $-1 0 -42.85039874283359 -8.6829845548317977 0 1 0 0 0 1 forward_v I I I I #
coedge $-1 $387 $202 $211 $309 reversed $122 $-1 #
coedge $-1 $202 $387 $203 $297 reversed $122 $-1 #
coedge $-1 $204 $203 $388 $389 forward $77 $-1 #
edge $-1 $301 29.332284162978286 $390 42.85039874283359 $295 $391 forward 7 unknown #
coedge $-1 $392 $208 $204 $299 reversed $305 $-1 #
edge $-1 $393 -42.85039874283359 $300 -29.332284162978286 $298 $394 forward 7 unknown #
vertex $-1 $209 $395 #
vertex $-1 $297 $396 #
straight-curve $-1 0 -29.332284162978286 -11.738642801781269 1 0 0 I I #
straight-curve $-1 43.827021088290046 -29.332284162978286 0 0 0 1 I I #
coedge $-1 $208 $392 $210 $308 reversed $305 $-1 #
loop $-1 $-1 $208 $291 #
straight-curve $-1 -43.827021088290046 -29.332284162978286 0 0 0 -1 I I #
coedge $-1 $211 $210 $397 $398 forward $200 $-1 #
edge $-1 $212 -6.7590572899276538 $399 6.7590572899276538 $304 $400 forward 7 unknown #
edge $-1 $401 -6.7590572899276538 $213 6.7590572899276538 $294 $402 forward 7 unknown #
point $-1 -43.827021088290046 -29.332284162978283 -5.6273263078823259 #
point $-1 43.827021088290046 -29.332284162978283 -5.6273263078823259 #
loop $-1 $-1 $223 $215 #
plane-surface $-1 -43.827021088290046 0 0 1 0 0 0 0 -1 forward_v I I I I #
coedge $-1 $315 $218 $220 $319 reversed $130 $-1 #
coedge $-1 $218 $314 $403 $404 reversed $130 $-1 #
coedge $-1 $226 $221 $218 $317 forward $216 $-1 #
edge $-1 $320 -17.467538262754729 $405 -15.653579163298538 $316 $406 forward 7 unknown #
coedge $-1 $220 $219 $323 $407 reversed $81 $-1 #
edge $-1 $408 -4.1431396825663817e-014 $320 3.5219903804154762 $314 $409 forward 7 unknown #
vertex $-1 $222 $410 #
straight-curve $-1 -42.013061988833854 8.377547617671814 11.738642801781269 0 1 0 I I #
coedge $-1 $403 $223 $226 $327 reversed $312 $-1 #
coedge $-1 $223 $403 $318 $407 forward $312 $-1 #
vertex $-1 $224 $411 #
straight-curve $-1 -43.827021088290046 13.171347866284151 26.932437892229558 0 0 1 I I #
straight-curve $-1 -43.827021088290024 13.171347866284151 8.7197077867073602 -0.51503806187062418 0 -0.85716730853699208 I I #
edge $-1 $405 -20.338842604403105 $227 -13.171347866284151 $322 $412 forward 7 unknown #
point $-1 -43.827021088290046 13.171347866284151 11.738642801781269 #
point $-1 -42.013061988833854 13.171347866284151 11.738642801781269 #
edge $-1 $413 1 $413 0 $230 $-1 forward 7 unknown #
vertex $-1 $231 $414 #
ellipse-curve $-1 -41.283479021719323 15.219203505746716 9.2458293611809292 -0.85716730853699208 0 0.51503806187062418 0.25751903093531209 0 0.42858365426849604 1 I I #
point $-1 -42.662522507626655 15.219203505746716 10.657758948512816 #
edge $-1 $415 1 $415 0 $234 $-1 forward 7 unknown #
vertex $-1 $235 $416 #
ellipse-curve $-1 -41.283479021719323 18.290986964940554 9.2458293611809292 -0.85716730853699208 0 0.51503806187062418 0.25751903093531209 0 0.42858365426849604 1 I I #
point $-1 -42.662522507626655 18.290986964940554 10.657758948512816 #
plane-surface $-1 0 0 11.738642801781269 0 0 1 1 0 0 forward_v I I I I #
coedge $-1 $349 $348 $341 $417 forward $239 $-1 #
coedge $-1 $341 $241 $243 $345 reversed $152 $-1 #
coedge $-1 $241 $340 $339 $417 reversed $152 $-1 #
coedge $-1 $249 $244 $241 $343 forward $250 $-1 #
edge $-1 $346 4.9174088039406563 $418 12.217581466159718 $342 $419 forward 7 unknown #
coedge $-1 $243 $242 $349 $420 reversed $95 $-1 #
edge $-1 $421 -87.65404217658012 $346 -75.234246386121754 $340 $422 forward 7 unknown #
vertex $-1 $245 $423 #
straight-curve $-1 36.526848426070984 -1.1967844246659229 11.738642801781268 0 -1 0 I I #
coedge $-1 $339 $246 $249 $353 reversed $239 $-1 #
coedge $-1 $246 $339 $344 $420 forward $239 $-1 #
vertex $-1 $247 $424 #
straight-curve $-1 43.827021088290046 3.7521744664418399 62.063089805363582 0 0 1 I I #
straight-curve $-1 -7.6947312195915956 3.7521744664418399 72.604427302845536 0.5877852410284794 0 -0.80901700255871778 I I #
edge $-1 $418 -8.5393121651055317 $251 3.7521744664418399 $348 $425 forward 7 unknown #
point $-1 43.827021088290046 3.7521744664418399 11.738642801781269 #
point $-1 36.526848426070984 3.7521744664418399 11.738642801781268 #
edge $-1 $426 1 $426 0 $254 $-1 forward 7 unknown #
vertex $-1 $255 $427 #
ellipse-curve $-1 38.075174408054465 -6.0810148387960581 5.1877115877816022 0.80901700255871778 0 0.5877852410284794 0.5877852410284794 0 -0.80901700255871778 1 I I #
point $-1 40.764719998209003 -6.0810148387960581 5.9057128178285652 #
edge $-1 $428 1 $428 0 $258 $-1 forward 7 unknown #
vertex $-1 $259 $429 #
ellipse-curve $-1 38.075174408054465 -2.3935688493318459 5.1877115877816022 0.80901700255871778 0 0.5877852410284794 0.5877852410284794 0 -0.80901700255871778 1 I I #
point $-1 40.764719998209003 -2.3935688493318459 5.9057128178285652 #
edge $-1 $430 1 $430 0 $262 $-1 forward 7 unknown #
vertex $-1 $263 $431 #
ellipse-curve $-1 38.075174408054465 1.2938771401323663 5.1877115877816022 0.80901700255871778 0 0.5877852410284794 0.5877852410284794 0 -0.80901700255871778 1 I I #
point $-1 40.764719998209003 1.2938771401323663 5.9057128178285652 #
plane-surface $-1 43.827021088290046 0 0 -1 0 0 0 0 1 forward_v I I I I #
coedge $-1 $379 $269 $272 $372 reversed $181 $-1 #
edge $-1 $283 -11.738642801781269 $375 11.738642801781269 $282 $432 forward 7 unknown #
straight-curve $-1 43.827021088290046 -29.332284162978286 0 0 0 -1 I I #
edge $-1 $373 -29.332284162978286 $375 29.332284162978286 $369 $433 forward 7 unknown #
vertex $-1 $372 $434 #
straight-curve $-1 0 -29.332284162978286 -11.738642801781269 -1 0 0 I I #
vertex $-1 $275 $435 #
straight-curve $-1 0 29.332284162978286 -11.738642801781269 1 0 0 I I #
point $-1 43.827021088290046 29.332284162978286 -11.738642801781269 #
point $-1 43.827021088290046 -29.332284162978286 -11.738642801781269 #
coedge $-1 $279 $369 $285 $382 reversed $181 $-1 #
straight-curve $-1 -43.827021088290046 0 11.738642801781269 0 -1 0 I I #
point $-1 -43.827021088290046 29.332284162978286 11.738642801781269 #
edge $-1 $286 -11.738642801781269 $373 11.738642801781269 $379 $436 forward 7 unknown #
point $-1 -43.827021088290046 -29.332284162978286 11.738642801781269 #
straight-curve $-1 43.827021088290046 29.332284162978286 0 0 0 -1 I I #
plane-surface $-1 -43.827021088290046 0 0 1 0 0 0 0 -1 forward_v I I I I #
coedge $-1 $388 $397 $392 $437 forward $292 $-1 #
coedge $-1 $295 $294 $438 $439 forward $122 $-1 #
coedge $-1 $438 $386 $296 $389 reversed $292 $-1 #
edge $-1 $390 -43.827021088290046 $393 43.827021088290046 $388 $440 forward 7 unknown #
vertex $-1 $439 $441 #
straight-curve $-1 43.827021088290046 0 -11.738642801781269 0 -1 0 I I #
coedge $-1 $304 $298 $386 $437 reversed $305 $-1 #
vertex $-1 $299 $442 #
straight-curve $-1 -43.827021088290046 0 -11.738642801781269 0 1 0 I I #
point $-1 -43.827021088290046 -29.332284162978286 -11.738642801781269 #
point $-1 43.827021088290046 -29.332284162978286 -11.738642801781269 #
coedge $-1 $386 $438 $307 $398 reversed $292 $-1 #
edge $-1 $399 -43.827021088290046 $401 43.827021088290046 $397 $443 forward 7 unknown #
vertex $-1 $308 $444 #
straight-curve $-1 -43.827021088290046 -36.091341452905937 -5.6273263078823259 0 -1 0 I I #
vertex $-1 $309 $445 #
straight-curve $-1 43.827021088290046 -36.091341452905937 -5.6273263078823259 0 1 0 I I #
coedge $-1 $323 $322 $315 $404 forward $312 $-1 #
edge $-1 $405 15.193795090448289 $408 18.212730105522233 $403 $446 forward 7 unknown #
vertex $-1 $327 $447 #
straight-curve $-1 -59.480600251588584 20.338842604403105 11.738642801781268 -1 0 0 I I #
edge $-1 $408 -11.961294986731291 $324 -4.793800248612337 $323 $448 forward 7 unknown #
vertex $-1 $407 $449 #
straight-curve $-1 -43.827021088290024 20.338842604403105 8.7197077867073602 0.51503806187062418 0 0.85716730853699208 I I #
point $-1 -42.013061988833854 20.338842604403105 11.738642801781269 #
point $-1 -43.827021088290046 13.171347866284151 8.7197077867073247 #
straight-curve $-1 -43.827021088290046 0 11.738642801781269 0 -1 0 I I #
vertex $-1 $330 $450 #
point $-1 -41.02595999078401 15.219203505746716 9.6744130154494243 #
vertex $-1 $334 $451 #
point $-1 -41.02595999078401 18.290986964940554 9.6744130154494243 #
edge $-1 $418 50.324447003582314 $421 60.372272966370325 $339 $452 forward 7 unknown #
vertex $-1 $353 $453 #
straight-curve $-1 31.609439622130328 -8.5393121651055317 11.738642801781268 1 0 0 I I #
edge $-1 $421 -7.3425277404396088 $350 4.9489588911077629 $349 $454 forward 7 unknown #
vertex $-1 $420 $455 #
straight-curve $-1 -7.6947312195915956 -8.5393121651055317 72.604427302845536 -0.5877852410284794 0 0.80901700255871778 I I #
point $-1 36.526848426070984 -8.5393121651055317 11.738642801781268 #
point $-1 43.827021088290046 3.7521744664418399 1.690816838993257 #
straight-curve $-1 43.827021088290046 0 11.738642801781269 0 1 0 I I #
vertex $-1 $356 $456 #
point $-1 38.662959649082943 -6.0810148387960581 4.3786945852228847 #
vertex $-1 $360 $457 #
point $-1 38.662959649082943 -2.3935688493318459 4.3786945852228847 #
vertex $-1 $364 $458 #
point $-1 38.662959649082943 1.2938771401323663 4.3786945852228847 #
straight-curve $-1 -43.827021088290046 29.332284162978286 0 0 0 -1 I I #
straight-curve $-1 -43.827021088290046 0 -11.738642801781269 0 1 0 I I #
point $-1 -43.827021088290046 -29.332284162978286 -11.738642801781269 #
point $-1 -43.827021088290046 29.332284162978286 -11.738642801781269 #
straight-curve $-1 -43.827021088290046 -29.332284162978286 0 0 0 -1 I I #
edge $-1 $399 -3.0556582469494717 $393 3.0556582469494717 $392 $459 forward 7 unknown #
coedge $-1 $397 $388 $387 $439 reversed $292 $-1 #
edge $-1 $401 -3.0556582469494717 $390 3.0556582469494717 $387 $460 forward 7 unknown #
straight-curve $-1 0 -42.85039874283359 -11.738642801781269 -1 0 0 I I #
point $-1 43.827021088290046 -42.85039874283359 -11.738642801781269 #
point $-1 -43.827021088290046 -42.85039874283359 -11.738642801781269 #
straight-curve $-1 0 -42.85039874283359 -5.6273263078823259 1 0 0 I I #
point $-1 -43.827021088290046 -42.85039874283359 -5.6273263078823259 #
point $-1 43.827021088290046 -42.85039874283359 -5.6273263078823259 #
straight-curve $-1 -43.827021088290046 20.338842604403105 26.932437892229558 0 0 -1 I I #
point $-1 -43.827021088290046 20.338842604403105 11.738642801781269 #
straight-curve $-1 -43.827021088290046 8.377547617671814 8.7197077867073354 0 -1 0 I I #
point $-1 -43.827021088290046 20.338842604403105 8.7197077867073247 #
point $-1 -40.85489536745083 15.219203505746716 8.988310330245616 #
point $-1 -40.85489536745083 18.290986964940554 8.988310330245616 #
straight-curve $-1 43.827021088290046 -8.5393121651055317 62.063089805363582 0 0 -1 I I #
point $-1 43.827021088290046 -8.5393121651055317 11.738642801781269 #
straight-curve $-1 43.827021088290046 -1.1967844246659229 1.6908168389932641 0 1 0 I I #
point $-1 43.827021088290046 -8.5393121651055317 1.690816838993257 #
point $-1 37.266157405495747 -6.0810148387960581 4.5999263467531231 #
point $-1 37.266157405495747 -2.3935688493318459 4.5999263467531231 #
point $-1 37.266157405495747 1.2938771401323663 4.5999263467531231 #
straight-curve $-1 -43.827021088290046 -42.85039874283359 -8.6829845548317977 0 0 -1 I I #
straight-curve $-1 43.827021088290046 -42.85039874283359 -8.6829845548317977 0 0 -1 I I #
End-of-ACIS-data 