500 0 6 0           
7 Unknown 11 ACIS 5.0 NT 24 Fri Mar 26 01:45:29 1999 
-1 9.9999999999999995e-007 1e-010 
body $-1 $6 $-1 $7 #
body $-1 $8 $-1 $9 #
body $-1 $10 $-1 $11 #
body $-1 $12 $-1 $13 #
body $-1 $14 $-1 $15 #
body $-1 $16 $-1 $17 #
lump $-1 $-1 $18 $0 #
transform $-1 1 0 0 0 1 0 0 0 1 73.620410779137543 43.656159906126042 17.727995523755723 1 rotate no_reflect no_shear #
lump $-1 $-1 $19 $1 #
transform $-1 1 0 0 0 1 0 0 0 1 73.620410779137543 43.656159906126042 17.727995523755723 1 rotate no_reflect no_shear #
lump $-1 $-1 $20 $2 #
transform $-1 1 0 0 0 1 0 0 0 1 73.620410779137543 43.656159906126042 17.727995523755723 1 rotate no_reflect no_shear #
lump $-1 $-1 $21 $3 #
transform $-1 1 0 0 0 1 0 0 0 1 73.620410779137543 43.656159906126042 17.727995523755723 1 rotate no_reflect no_shear #
lump $-1 $-1 $22 $4 #
transform $-1 1 0 0 0 1 0 0 0 1 73.620410779137543 43.656159906126042 17.727995523755723 1 rotate no_reflect no_shear #
lump $-1 $-1 $23 $5 #
transform $-1 1 0 0 0 1 0 0 0 1 73.620410779137543 43.656159906126042 17.727995523755723 1 rotate no_reflect no_shear #
shell $-1 $-1 $-1 $24 $-1 $6 #
shell $-1 $-1 $-1 $25 $-1 $8 #
shell $-1 $-1 $-1 $26 $-1 $10 #
shell $-1 $-1 $-1 $27 $-1 $12 #
shell $-1 $-1 $-1 $28 $-1 $14 #
shell $-1 $-1 $-1 $29 $-1 $16 #
face $-1 $30 $31 $18 $-1 $32 forward single #
face $-1 $33 $34 $19 $-1 $35 reversed single #
face $-1 $36 $37 $20 $-1 $38 reversed single #
face $-1 $39 $40 $21 $-1 $41 forward single #
face $-1 $42 $43 $22 $-1 $44 forward single #
face $-1 $45 $46 $23 $-1 $47 forward single #
face $-1 $48 $49 $18 $-1 $50 reversed single #
loop $-1 $-1 $51 $24 #
plane-surface $-1 0 0 17.727995523755723 0 0 1 1 0 0 forward_v I I I I #
face $-1 $52 $53 $19 $-1 $54 reversed single #
loop $-1 $-1 $55 $25 #
plane-surface $-1 -45.056626371755627 -32.660203909402746 0 1 0 0 0 0 -1 forward_v I I I I #
face $-1 $56 $57 $20 $-1 $58 reversed single #
loop $-1 $-1 $59 $26 #
plane-surface $-1 38.014706937427761 44.649525066379987 178.13753191920324 1 0 0 0 -0.51503808176128008 -0.85716729658548041 forward_v I I I I #
face $-1 $60 $61 $21 $-1 $62 forward single #
loop $-1 $63 $64 $27 #
cone-surface $-1 45.13584770576972 32.782329167649408 9.1611065062754733 0 -0.51503808176128008 -0.85716729658548041 3 0 0 1 I I 0 1 3 forward I I I I #
face $-1 $65 $66 $22 $-1 $67 forward single #
loop $-1 $68 $69 $28 #
cone-surface $-1 55.817558858282652 32.782329167649408 9.1611065062754733 0 -0.51503808176128008 -0.85716729658548041 3 0 0 1 I I 0 1 3 forward I I I I #
face $-1 $70 $71 $23 $-1 $72 forward single #
loop $-1 $73 $74 $29 #
cone-surface $-1 66.49927001079557 32.782329167649408 9.1611065062754733 0 -0.51503808176128008 -0.85716729658548041 3 0 0 1 I I 0 1 3 forward I I I I #
face $-1 $75 $76 $18 $-1 $77 reversed single #
loop $-1 $-1 $78 $30 #
plane-surface $-1 0 0 -17.727995523755723 0 0 1 1 0 0 forward_v I I I I #
coedge $-1 $79 $80 $81 $82 forward $31 $-1 #
face $-1 $83 $84 $19 $-1 $85 reversed single #
loop $-1 $-1 $86 $33 #
plane-surface $-1 -41.610523051690862 -21.66424791267945 0 0 -1 0 0 0 -1 forward_v I I I I #
coedge $-1 $87 $88 $89 $90 forward $34 $-1 #
face $-1 $91 $92 $20 $-1 $93 forward single #
loop $-1 $-1 $94 $36 #
plane-surface $-1 55.817558858282652 -31.185105225948952 51.927514957071466 0 0.51503808176128008 0.85716729658548041 1 0 0 forward_v I I I I #
coedge $-1 $95 $96 $97 $98 reversed $37 $-1 #
face $-1 $-1 $99 $21 $-1 $100 forward single #
loop $-1 $101 $102 $39 #
cone-surface $-1 45.13584770576972 30.097795138256068 4.6932916823740172 0 -0.51503808176128008 -0.85716729658548041 1.5 0 0 1 I I -0.70710678118654757 0.70710678118654757 1.5 forward I I I I #
loop $-1 $-1 $103 $27 #
coedge $-1 $64 $64 $104 $105 reversed $40 $-1 #
face $-1 $-1 $106 $22 $-1 $107 forward single #
loop $-1 $108 $109 $42 #
cone-surface $-1 55.817558858282652 30.097795138256068 4.6932916823740172 0 -0.51503808176128008 -0.85716729658548041 1.5 0 0 1 I I -0.70710678118654757 0.70710678118654757 1.5 forward I I I I #
loop $-1 $-1 $110 $28 #
coedge $-1 $69 $69 $111 $112 reversed $43 $-1 #
face $-1 $-1 $113 $23 $-1 $114 forward single #
loop $-1 $115 $116 $45 #
cone-surface $-1 66.49927001079557 30.097795138256068 4.6932916823740172 0 -0.51503808176128008 -0.85716729658548041 1.5 0 0 1 I I -0.70710678118654757 0.70710678118654757 1.5 forward I I I I #
loop $-1 $-1 $117 $29 #
coedge $-1 $74 $74 $118 $119 reversed $46 $-1 #
face $-1 $120 $121 $18 $-1 $122 reversed single #
loop $-1 $-1 $123 $48 #
plane-surface $-1 0 -43.656159906126042 0 0 1 0 0 0 1 forward_v I I I I #
coedge $-1 $124 $125 $126 $127 forward $49 $-1 #
coedge $-1 $128 $51 $129 $130 forward $31 $-1 #
coedge $-1 $51 $128 $131 $132 forward $31 $-1 #
coedge $-1 $133 $134 $51 $82 reversed $135 $-1 #
edge $-1 $136 -43.656159906126042 $137 43.656159906126042 $81 $138 forward 7 unknown #
face $-1 $139 $140 $19 $-1 $141 forward single #
loop $-1 $-1 $142 $52 #
plane-surface $-1 -38.164419731626097 -32.660203909402746 0 -1 0 0 0 0 1 forward_v I I I I #
coedge $-1 $143 $144 $145 $146 forward $53 $-1 #
coedge $-1 $147 $55 $148 $149 reversed $34 $-1 #
coedge $-1 $55 $147 $150 $151 reversed $34 $-1 #
coedge $-1 $144 $143 $55 $90 reversed $53 $-1 #
edge $-1 $152 -17.727995523755723 $153 17.727995523755723 $89 $154 forward 7 unknown #
face $-1 $155 $156 $20 $-1 $157 reversed single #
loop $-1 $-1 $97 $56 #
plane-surface $-1 0 0 17.727995523755723 0 0 1 1 0 0 forward_v I I I I #
coedge $-1 $158 $159 $160 $161 reversed $57 $-1 #
coedge $-1 $96 $59 $162 $163 reversed $37 $-1 #
coedge $-1 $59 $95 $158 $164 reversed $37 $-1 #
coedge $-1 $160 $165 $59 $98 forward $92 $-1 #
edge $-1 $166 -21.331397372936049 $167 -3.4076897094856982 $97 $168 forward 7 unknown #
loop $-1 $-1 $104 $60 #
plane-surface $-1 55.817558858282652 -31.185105225948952 51.927514957071466 0 0.51503808176128008 0.85716729658548041 1 0 0 forward_v I I I I #
loop $-1 $-1 $169 $39 #
coedge $-1 $102 $102 $103 $170 reversed $61 $-1 #
coedge $-1 $103 $103 $102 $170 forward $63 $-1 #
coedge $-1 $104 $104 $64 $105 forward $99 $-1 #
edge $-1 $171 -1.4115162056187608e-015 $171 6.2831853071795987 $104 $172 forward 7 unknown #
loop $-1 $-1 $111 $65 #
plane-surface $-1 55.817558858282652 -31.185105225948952 51.927514957071466 0 0.51503808176128008 0.85716729658548041 1 0 0 forward_v I I I I #
loop $-1 $-1 $173 $42 #
coedge $-1 $109 $109 $110 $174 reversed $66 $-1 #
coedge $-1 $110 $110 $109 $174 forward $68 $-1 #
coedge $-1 $111 $111 $69 $112 forward $106 $-1 #
edge $-1 $175 -1.4115162056187608e-015 $175 6.2831853071795987 $111 $176 forward 7 unknown #
loop $-1 $-1 $118 $70 #
plane-surface $-1 55.817558858282652 -31.185105225948952 51.927514957071466 0 0.51503808176128008 0.85716729658548041 1 0 0 forward_v I I I I #
loop $-1 $-1 $177 $45 #
coedge $-1 $116 $116 $117 $178 reversed $71 $-1 #
coedge $-1 $117 $117 $116 $178 forward $73 $-1 #
coedge $-1 $118 $118 $74 $119 forward $113 $-1 #
edge $-1 $179 -1.4115162056187608e-015 $179 6.2831853071795987 $118 $180 forward 7 unknown #
face $-1 $181 $182 $18 $-1 $183 reversed single #
loop $-1 $-1 $184 $75 #
plane-surface $-1 -73.620410779137543 0 0 1 0 0 0 0 -1 forward_v I I I I #
coedge $-1 $185 $131 $186 $187 forward $76 $-1 #
coedge $-1 $188 $78 $185 $189 forward $49 $-1 #
coedge $-1 $78 $188 $190 $191 forward $49 $-1 #
coedge $-1 $134 $133 $78 $127 reversed $135 $-1 #
edge $-1 $192 -43.656159906126042 $193 43.656159906126042 $126 $194 forward 7 unknown #
coedge $-1 $80 $79 $195 $196 forward $31 $-1 #
coedge $-1 $197 $198 $79 $130 reversed $182 $-1 #
edge $-1 $137 -73.620410779137543 $199 73.620410779137543 $129 $200 forward 7 unknown #
coedge $-1 $123 $201 $80 $132 reversed $76 $-1 #
edge $-1 $202 -73.620410779137543 $136 73.620410779137543 $131 $203 forward 7 unknown #
coedge $-1 $126 $81 $201 $204 forward $135 $-1 #
coedge $-1 $81 $126 $197 $205 reversed $135 $-1 #
loop $-1 $-1 $133 $181 #
vertex $-1 $82 $206 #
vertex $-1 $82 $207 #
straight-curve $-1 73.620410779137543 0 17.727995523755723 0 1 0 I I #
face $-1 $208 $209 $19 $-1 $210 reversed single #
loop $-1 $-1 $211 $83 #
plane-surface $-1 0 0 17.727995523755723 0 0 1 1 0 0 forward_v I I I I #
coedge $-1 $212 $213 $214 $215 reversed $84 $-1 #
coedge $-1 $89 $86 $216 $217 reversed $53 $-1 #
coedge $-1 $86 $89 $218 $219 reversed $53 $-1 #
coedge $-1 $213 $212 $86 $146 reversed $84 $-1 #
edge $-1 $220 -17.727995523755723 $221 17.727995523755723 $145 $222 forward 7 unknown #
coedge $-1 $88 $87 $223 $224 reversed $34 $-1 #
coedge $-1 $216 $225 $87 $149 forward $209 $-1 #
edge $-1 $226 -27.326057951424669 $153 -5.3341459579780768 $148 $227 forward 7 unknown #
coedge $-1 $228 $218 $88 $151 forward $140 $-1 #
edge $-1 $152 5.3341459579780768 $229 27.326057951424669 $150 $230 forward 7 unknown #
vertex $-1 $151 $231 #
vertex $-1 $149 $232 #
straight-curve $-1 -45.056626371755627 -21.66424791267945 0 0 0 -1 I I #
face $-1 $-1 $233 $20 $-1 $234 reversed single #
loop $-1 $-1 $235 $91 #
plane-surface $-1 73.620410779137543 0 0 -1 0 0 0 0 1 forward_v I I I I #
coedge $-1 $236 $94 $96 $164 forward $57 $-1 #
coedge $-1 $94 $236 $235 $237 reversed $57 $-1 #
coedge $-1 $238 $97 $94 $161 forward $92 $-1 #
edge $-1 $167 10.105927508286435 $239 45.711631349996217 $160 $240 forward 7 unknown #
coedge $-1 $241 $242 $95 $163 forward $233 $-1 #
edge $-1 $243 -82.110420712759876 $166 -71.340770435845897 $162 $244 forward 7 unknown #
edge $-1 $167 66.401923749722272 $243 87.312319812252071 $96 $245 forward 7 unknown #
coedge $-1 $97 $238 $241 $246 forward $92 $-1 #
vertex $-1 $163 $247 #
vertex $-1 $98 $248 #
straight-curve $-1 38.014706937427761 22.324762533189993 17.727995523755723 0 -1 0 I I #
coedge $-1 $169 $169 $-1 $249 reversed $101 $-1 #
edge $-1 $250 0 $250 6.2831853071796004 $102 $251 forward 7 unknown #
vertex $-1 $105 $252 #
ellipse-curve $-1 45.13584770576972 34.694306074400856 12.343170385298748 0 0.51503808176128008 0.85716729658548041 3 0 0 1 I I #
coedge $-1 $173 $173 $-1 $253 reversed $108 $-1 #
edge $-1 $254 0 $254 6.2831853071796004 $109 $255 forward 7 unknown #
vertex $-1 $112 $256 #
ellipse-curve $-1 55.817558858282652 34.694306074400856 12.343170385298748 0 0.51503808176128008 0.85716729658548041 3 0 0 1 I I #
coedge $-1 $177 $177 $-1 $257 reversed $115 $-1 #
edge $-1 $258 0 $258 6.2831853071796004 $116 $259 forward 7 unknown #
vertex $-1 $119 $260 #
ellipse-curve $-1 66.49927001079557 34.694306074400856 12.343170385298748 0 0.51503808176128008 0.85716729658548041 3 0 0 1 I I #
face $-1 $-1 $135 $18 $-1 $261 reversed single #
loop $-1 $-1 $197 $120 #
plane-surface $-1 0 43.656159906126042 0 0 -1 0 0 0 -1 forward_v I I I I #
coedge $-1 $262 $195 $198 $263 forward $121 $-1 #
coedge $-1 $201 $123 $124 $189 reversed $76 $-1 #
coedge $-1 $195 $262 $123 $187 reversed $121 $-1 #
edge $-1 $202 -17.727995523755723 $264 17.727995523755723 $186 $265 forward 7 unknown #
coedge $-1 $125 $124 $262 $266 forward $49 $-1 #
edge $-1 $193 -73.620410779137543 $264 73.620410779137543 $185 $267 forward 7 unknown #
coedge $-1 $198 $197 $125 $191 reversed $182 $-1 #
edge $-1 $268 -73.620410779137543 $192 73.620410779137543 $190 $269 forward 7 unknown #
vertex $-1 $127 $270 #
vertex $-1 $204 $271 #
straight-curve $-1 73.620410779137543 0 -17.727995523755723 0 -1 0 I I #
coedge $-1 $184 $186 $128 $196 reversed $121 $-1 #
edge $-1 $199 -43.656159906126042 $202 43.656159906126042 $195 $272 forward 7 unknown #
coedge $-1 $190 $129 $134 $205 forward $182 $-1 #
coedge $-1 $129 $190 $184 $263 reversed $182 $-1 #
vertex $-1 $130 $273 #
straight-curve $-1 0 43.656159906126042 17.727995523755723 -1 0 0 I I #
coedge $-1 $131 $185 $133 $204 reversed $76 $-1 #
vertex $-1 $196 $274 #
straight-curve $-1 0 -43.656159906126042 17.727995523755723 1 0 0 I I #
edge $-1 $136 -17.727995523755723 $193 17.727995523755723 $133 $275 forward 7 unknown #
edge $-1 $137 -17.727995523755723 $192 17.727995523755723 $134 $276 forward 7 unknown #
point $-1 73.620410779137543 -43.656159906126042 17.727995523755723 #
point $-1 73.620410779137543 43.656159906126042 17.727995523755723 #
face $-1 $-1 $277 $19 $-1 $278 reversed single #
loop $-1 $-1 $279 $139 #
plane-surface $-1 0 0 -17.727995523755723 0 0 1 1 0 0 forward_v I I I I #
coedge $-1 $218 $228 $213 $280 forward $140 $-1 #
coedge $-1 $145 $142 $279 $281 reversed $84 $-1 #
coedge $-1 $142 $145 $211 $280 reversed $84 $-1 #
coedge $-1 $282 $283 $142 $215 forward $277 $-1 #
edge $-1 $284 -17.727995523755723 $285 17.727995523755723 $214 $286 forward 7 unknown #
coedge $-1 $279 $148 $143 $217 forward $209 $-1 #
edge $-1 $153 -24.251364845910196 $221 -17.359158205780666 $216 $287 forward 7 unknown #
coedge $-1 $150 $211 $144 $219 forward $140 $-1 #
edge $-1 $220 17.359158205780666 $152 24.251364845910196 $218 $288 forward 7 unknown #
vertex $-1 $219 $289 #
vertex $-1 $217 $290 #
straight-curve $-1 -38.164419731626097 -21.66424791267945 0 0 0 -1 I I #
coedge $-1 $283 $282 $147 $224 forward $277 $-1 #
edge $-1 $229 -17.727995523755723 $226 17.727995523755723 $223 $291 forward 7 unknown #
coedge $-1 $148 $279 $283 $292 forward $209 $-1 #
vertex $-1 $149 $293 #
straight-curve $-1 -45.056626371755627 -16.330101954701373 -17.727995523755723 0 1 0 I I #
coedge $-1 $211 $150 $282 $294 forward $140 $-1 #
vertex $-1 $294 $295 #
straight-curve $-1 -45.056626371755627 -16.330101954701373 17.727995523755723 0 -1 0 I I #
point $-1 -45.056626371755627 -21.66424791267945 17.727995523755723 #
point $-1 -45.056626371755627 -21.66424791267945 -17.727995523755723 #
loop $-1 $-1 $162 $155 #
plane-surface $-1 0 43.656159906126042 0 0 -1 0 0 0 -1 forward_v I I I I #
coedge $-1 $296 $297 $159 $237 forward $156 $-1 #
coedge $-1 $159 $158 $242 $298 reversed $57 $-1 #
edge $-1 $239 39.664173732531935 $299 60.574569795061734 $235 $300 forward 7 unknown #
coedge $-1 $165 $160 $297 $301 forward $92 $-1 #
vertex $-1 $301 $302 #
straight-curve $-1 27.908779429141326 25.732452242675702 17.72799552375572 1 0 0 I I #
coedge $-1 $303 $162 $165 $246 reversed $233 $-1 #
coedge $-1 $162 $303 $236 $298 forward $233 $-1 #
vertex $-1 $163 $304 #
straight-curve $-1 38.014706937427761 43.656159906126042 89.06876595960162 0 0 1 I I #
straight-curve $-1 38.014706937427761 -31.185105225948952 51.927514957071466 0 0.85716729658548041 -0.51503808176128008 I I #
edge $-1 $305 -73.620410779137543 $166 -38.014706937427761 $241 $306 forward 7 unknown #
point $-1 38.014706937427761 43.656159906126042 17.727995523755723 #
point $-1 38.014706937427761 25.732452242675691 17.727995523755723 #
edge $-1 $307 1 $307 0 $169 $-1 forward 7 unknown #
vertex $-1 $170 $308 #
ellipse-curve $-1 45.13584770576972 30.870352260897988 5.9790426272522375 0 0.51503808176128008 0.85716729658548041 3 0 0 1 I I #
point $-1 48.13584770576972 34.694306074400828 12.343170385298709 #
edge $-1 $309 1 $309 0 $173 $-1 forward 7 unknown #
vertex $-1 $174 $310 #
ellipse-curve $-1 55.817558858282652 30.870352260897988 5.9790426272522375 0 0.51503808176128008 0.85716729658548041 3 0 0 1 I I #
point $-1 58.817558858282652 34.694306074400828 12.343170385298709 #
edge $-1 $311 1 $311 0 $177 $-1 forward 7 unknown #
vertex $-1 $178 $312 #
ellipse-curve $-1 66.49927001079557 30.870352260897988 5.9790426272522375 0 0.51503808176128008 0.85716729658548041 3 0 0 1 I I #
point $-1 69.49927001079557 34.694306074400828 12.343170385298709 #
plane-surface $-1 73.620410779137543 0 0 -1 0 0 0 0 1 forward_v I I I I #
coedge $-1 $186 $184 $188 $266 reversed $121 $-1 #
edge $-1 $199 -17.727995523755723 $268 17.727995523755723 $198 $313 forward 7 unknown #
vertex $-1 $266 $314 #
straight-curve $-1 -73.620410779137543 -43.656159906126042 0 0 0 -1 I I #
edge $-1 $264 -43.656159906126042 $268 43.656159906126042 $262 $315 forward 7 unknown #
straight-curve $-1 0 -43.656159906126042 -17.727995523755723 -1 0 0 I I #
vertex $-1 $191 $316 #
straight-curve $-1 0 43.656159906126042 -17.727995523755723 1 0 0 I I #
point $-1 73.620410779137543 43.656159906126042 -17.727995523755723 #
point $-1 73.620410779137543 -43.656159906126042 -17.727995523755723 #
straight-curve $-1 -73.620410779137543 0 17.727995523755723 0 -1 0 I I #
point $-1 -73.620410779137543 43.656159906126042 17.727995523755723 #
point $-1 -73.620410779137543 -43.656159906126042 17.727995523755723 #
straight-curve $-1 73.620410779137543 -43.656159906126042 0 0 0 -1 I I #
straight-curve $-1 73.620410779137543 43.656159906126042 0 0 0 -1 I I #
loop $-1 $-1 $214 $208 #
plane-surface $-1 0 -43.656159906126042 0 0 1 0 0 0 1 forward_v I I I I #
coedge $-1 $225 $216 $212 $281 forward $209 $-1 #
edge $-1 $285 -27.326057951424669 $220 -5.3341459579780768 $211 $317 forward 7 unknown #
edge $-1 $221 5.3341459579780768 $284 27.326057951424669 $279 $318 forward 7 unknown #
coedge $-1 $223 $214 $228 $294 reversed $277 $-1 #
coedge $-1 $214 $223 $225 $292 reversed $277 $-1 #
vertex $-1 $292 $319 #
vertex $-1 $215 $320 #
straight-curve $-1 -38.164419731626097 -43.656159906126042 0 0 0 1 I I #
straight-curve $-1 -20.805261525845431 -21.66424791267945 -17.727995523755723 1 0 0 I I #
straight-curve $-1 -20.805261525845431 -21.66424791267945 17.727995523755723 -1 0 0 I I #
point $-1 -38.164419731626097 -21.66424791267945 17.727995523755723 #
point $-1 -38.164419731626097 -21.66424791267945 -17.727995523755723 #
straight-curve $-1 -45.056626371755627 -43.656159906126042 0 0 0 -1 I I #
edge $-1 $284 38.164419731626097 $226 45.056626371755627 $283 $321 forward 7 unknown #
point $-1 -45.056626371755627 -43.656159906126042 -17.727995523755723 #
edge $-1 $229 -45.056626371755627 $285 -38.164419731626097 $282 $322 forward 7 unknown #
point $-1 -45.056626371755627 -43.656159906126042 17.727995523755723 #
coedge $-1 $297 $235 $303 $323 reversed $156 $-1 #
coedge $-1 $235 $296 $238 $301 reversed $156 $-1 #
edge $-1 $299 -45.711631349996217 $243 -10.105927508286435 $242 $324 forward 7 unknown #
vertex $-1 $237 $325 #
straight-curve $-1 73.620410779137543 -8.2663803269355292 38.156555477605124 0 0.85716729658548041 -0.51503808176128008 I I #
edge $-1 $239 25.732452242675691 $305 43.656159906126042 $297 $326 forward 7 unknown #
point $-1 73.620410779137543 25.732452242675691 17.727995523755723 #
coedge $-1 $242 $241 $296 $323 forward $233 $-1 #
point $-1 38.014706937427761 43.656159906126042 6.9583452468417448 #
vertex $-1 $301 $327 #
straight-curve $-1 0 43.656159906126042 17.727995523755723 -1 0 0 I I #
vertex $-1 $249 $328 #
point $-1 48.13584770576972 30.870352260897988 5.9790426272522375 #
vertex $-1 $253 $329 #
point $-1 58.817558858282652 30.870352260897988 5.9790426272522375 #
vertex $-1 $257 $330 #
point $-1 69.49927001079557 30.870352260897988 5.9790426272522375 #
straight-curve $-1 -73.620410779137543 43.656159906126042 0 0 0 -1 I I #
point $-1 -73.620410779137543 -43.656159906126042 -17.727995523755723 #
straight-curve $-1 -73.620410779137543 0 -17.727995523755723 0 1 0 I I #
point $-1 -73.620410779137543 43.656159906126042 -17.727995523755723 #
straight-curve $-1 -38.164419731626097 -16.330101954701373 17.727995523755723 0 1 0 I I #
straight-curve $-1 -38.164419731626097 -16.330101954701373 -17.727995523755723 0 -1 0 I I #
point $-1 -38.164419731626097 -43.656159906126042 -17.727995523755723 #
point $-1 -38.164419731626097 -43.656159906126042 17.727995523755723 #
straight-curve $-1 0 -43.656159906126042 -17.727995523755723 -1 0 0 I I #
straight-curve $-1 0 -43.656159906126042 17.727995523755723 1 0 0 I I #
edge $-1 $305 -17.727995523755723 $299 -6.9583452468417448 $296 $331 forward 7 unknown #
straight-curve $-1 27.908779429141326 43.656159906126042 6.9583452468417484 -1 0 0 I I #
point $-1 73.620410779137543 43.656159906126042 6.9583452468417448 #
straight-curve $-1 73.620410779137543 0 17.727995523755723 0 1 0 I I #
point $-1 73.620410779137543 43.656159906126042 17.727995523755723 #
point $-1 45.13584770576972 29.325238015614147 3.4075407374957964 #
point $-1 55.817558858282652 29.325238015614147 3.4075407374957964 #
point $-1 66.49927001079557 29.325238015614147 3.4075407374957964 #
straight-curve $-1 73.620410779137543 43.656159906126042 0 0 0 -1 I I #
End-of-ACIS-data 