500 0 9 0           
7 Unknown 11 ACIS 5.0 NT 24 Fri Mar 26 20:08:44 1999 
-1 9.9999999999999995e-007 1e-010 
body $-1 $9 $-1 $10 #
body $-1 $11 $-1 $12 #
body $-1 $13 $-1 $14 #
body $-1 $15 $-1 $16 #
body $-1 $17 $-1 $18 #
body $-1 $19 $-1 $20 #
body $-1 $21 $-1 $22 #
body $-1 $23 $-1 $24 #
body $-1 $25 $-1 $26 #
lump $-1 $-1 $27 $0 #
transform $-1 1 0 0 0 1 0 0 0 1 75.394146549882507 37.545672937925893 16.280295121208493 1 rotate no_reflect no_shear #
lump $-1 $-1 $28 $1 #
transform $-1 1 0 0 0 1 0 0 0 1 75.394146549882507 37.545672937925893 16.280295121208493 1 rotate no_reflect no_shear #
lump $-1 $-1 $29 $2 #
transform $-1 1 0 0 0 1 0 0 0 1 75.394146549882507 37.545672937925893 16.280295121208493 1 rotate no_reflect no_shear #
lump $-1 $-1 $30 $3 #
transform $-1 1 0 0 0 1 0 0 0 1 75.394146549882507 37.545672937925893 16.280295121208493 1 rotate no_reflect no_shear #
lump $-1 $-1 $31 $4 #
transform $-1 1 0 0 0 1 0 0 0 1 75.394146549882507 37.545672937925893 16.280295121208493 1 rotate no_reflect no_shear #
lump $-1 $-1 $32 $5 #
transform $-1 1 0 0 0 1 0 0 0 1 75.394146549882507 37.545672937925893 16.280295121208493 1 rotate no_reflect no_shear #
lump $-1 $-1 $33 $6 #
transform $-1 1 0 0 0 1 0 0 0 1 75.394146549882507 37.545672937925893 16.280295121208493 1 rotate no_reflect no_shear #
lump $-1 $-1 $34 $7 #
transform $-1 1 0 0 0 1 0 0 0 1 75.394146549882507 37.545672937925893 16.280295121208493 1 rotate no_reflect no_shear #
lump $-1 $-1 $35 $8 #
transform $-1 1 0 0 0 1 0 0 0 1 75.394146549882507 37.545672937925893 16.280295121208493 1 rotate no_reflect no_shear #
shell $-1 $-1 $-1 $36 $-1 $9 #
shell $-1 $-1 $-1 $37 $-1 $11 #
shell $-1 $-1 $-1 $38 $-1 $13 #
shell $-1 $-1 $-1 $39 $-1 $15 #
shell $-1 $-1 $-1 $40 $-1 $17 #
shell $-1 $-1 $-1 $41 $-1 $19 #
shell $-1 $-1 $-1 $42 $-1 $21 #
shell $-1 $-1 $-1 $43 $-1 $23 #
shell $-1 $-1 $-1 $44 $-1 $25 #
face $-1 $45 $46 $27 $-1 $47 forward single #
face $-1 $48 $49 $28 $-1 $50 forward single #
face $-1 $51 $52 $29 $-1 $53 reversed single #
face $-1 $54 $55 $30 $-1 $56 forward single #
face $-1 $57 $58 $31 $-1 $59 forward single #
face $-1 $60 $61 $32 $-1 $62 forward single #
face $-1 $63 $64 $33 $-1 $65 reversed single #
face $-1 $66 $67 $34 $-1 $68 forward single #
face $-1 $69 $70 $35 $-1 $71 forward single #
face $-1 $72 $73 $27 $-1 $74 reversed single #
loop $-1 $-1 $75 $36 #
plane-surface $-1 0 0 16.280295121208493 0 0 1 1 0 0 forward_v I I I I #
face $-1 $76 $77 $28 $-1 $78 reversed single #
loop $-1 $-1 $79 $37 #
plane-surface $-1 -75.394146549882507 0 0 1 0 0 0 0 -1 forward_v I I I I #
face $-1 $80 $81 $29 $-1 $82 reversed single #
loop $-1 $-1 $83 $38 #
plane-surface $-1 -8.9797964901234337 91.071499488246587 171.6954590659231 1 0 0 0 -0.70710678939079041 -0.70710677298230451 forward_v I I I I #
face $-1 $84 $85 $30 $-1 $86 forward single #
loop $-1 $87 $88 $39 #
cone-surface $-1 -1.6256939478153924 34.10156155891093 12.836183722196578 0 -0.70710678939079041 -0.70710677298230451 1.5 0 0 1 I I 0 1 1.5 forward I I I I #
face $-1 $89 $90 $31 $-1 $91 forward single #
loop $-1 $92 $93 $40 #
cone-surface $-1 9.4054598656466766 34.10156155891093 12.836183722196578 0 -0.70710678939079041 -0.70710677298230451 1.5 0 0 1 I I 0 1 1.5 forward I I I I #
face $-1 $94 $95 $32 $-1 $96 forward single #
loop $-1 $97 $98 $41 #
cone-surface $-1 20.436613679108746 34.10156155891093 12.836183722196578 0 -0.70710678939079041 -0.70710677298230451 1.5 0 0 1 I I 0 1 1.5 forward I I I I #
face $-1 $99 $100 $33 $-1 $101 reversed single #
loop $-1 $-1 $102 $42 #
plane-surface $-1 66.927850228877205 -37.5456729379259 11.96430286501888 0 -0.5877852598018023 0.80901698891910034 1 0 0 forward_v I I I I #
face $-1 $103 $104 $34 $-1 $105 forward single #
loop $-1 $106 $107 $43 #
cone-surface $-1 63.299437519874928 -33.586775081632936 12.76151004861844 0 0.5877852598018023 -0.80901698891910034 1 0 0 1 I I 0 1 1 forward I I I I #
face $-1 $108 $109 $35 $-1 $110 forward single #
loop $-1 $111 $112 $44 #
cone-surface $-1 70.556262937879481 -33.586775081632936 12.76151004861844 0 0.5877852598018023 -0.80901698891910034 1 0 0 1 I I 0 1 1 forward I I I I #
face $-1 $113 $114 $27 $-1 $115 reversed single #
loop $-1 $-1 $116 $45 #
plane-surface $-1 0 0 -16.280295121208493 0 0 1 1 0 0 forward_v I I I I #
coedge $-1 $117 $118 $119 $120 forward $46 $-1 #
face $-1 $121 $122 $28 $-1 $123 reversed single #
loop $-1 $-1 $124 $48 #
plane-surface $-1 0 0 -16.280295121208493 0 0 1 1 0 0 forward_v I I I I #
coedge $-1 $125 $126 $127 $128 forward $49 $-1 #
face $-1 $129 $130 $29 $-1 $131 reversed single #
loop $-1 $-1 $132 $51 #
plane-surface $-1 9.4054598656466766 -15.551926323245723 65.072035728638369 0 0.70710678939079041 0.70710677298230451 1 0 0 forward_v I I I I #
coedge $-1 $133 $134 $135 $136 reversed $52 $-1 #
face $-1 $-1 $137 $30 $-1 $138 forward single #
loop $-1 $139 $140 $54 #
cone-surface $-1 -1.6256939478153924 32.280049980832437 11.014672186386452 0 -0.70710678939079041 -0.70710677298230451 0.75 0 0 1 I I -0.70710678118654757 0.70710678118654757 0.75 forward I I I I #
loop $-1 $-1 $141 $39 #
coedge $-1 $88 $88 $142 $143 reversed $55 $-1 #
face $-1 $-1 $144 $31 $-1 $145 forward single #
loop $-1 $146 $147 $57 #
cone-surface $-1 9.4054598656466766 32.280049980832437 11.014672186386452 0 -0.70710678939079041 -0.70710677298230451 0.75 0 0 1 I I -0.70710678118654757 0.70710678118654757 0.75 forward I I I I #
loop $-1 $-1 $148 $40 #
coedge $-1 $93 $93 $149 $150 reversed $58 $-1 #
face $-1 $-1 $151 $32 $-1 $152 forward single #
loop $-1 $153 $154 $60 #
cone-surface $-1 20.436613679108746 32.280049980832437 11.014672186386452 0 -0.70710678939079041 -0.70710677298230451 0.75 0 0 1 I I -0.70710678118654757 0.70710678118654757 0.75 forward I I I I #
loop $-1 $-1 $155 $41 #
coedge $-1 $98 $98 $156 $157 reversed $61 $-1 #
face $-1 $158 $159 $33 $-1 $160 reversed single #
loop $-1 $-1 $161 $63 #
plane-surface $-1 58.461553907871902 -126.1768089726416 133.95459371284153 1 0 0 0 0.5877852598018023 -0.80901698891910034 forward_v I I I I #
coedge $-1 $162 $163 $164 $165 reversed $64 $-1 #
face $-1 $-1 $166 $34 $-1 $167 forward single #
loop $-1 $168 $169 $66 #
cone-surface $-1 63.299437519874928 -32.304211392618406 10.99621260966363 0 0.5877852598018023 -0.80901698891910034 0.5 0 0 1 I I -0.70710678118654746 0.70710678118654746 0.5 forward I I I I #
loop $-1 $-1 $170 $43 #
coedge $-1 $107 $107 $171 $172 reversed $67 $-1 #
face $-1 $-1 $173 $35 $-1 $174 forward single #
loop $-1 $175 $176 $69 #
cone-surface $-1 70.556262937879481 -32.304211392618406 10.99621260966363 0 0.5877852598018023 -0.80901698891910034 0.5 0 0 1 I I -0.70710678118654746 0.70710678118654746 0.5 forward I I I I #
loop $-1 $-1 $177 $44 #
coedge $-1 $112 $112 $178 $179 reversed $70 $-1 #
face $-1 $180 $181 $27 $-1 $182 reversed single #
loop $-1 $-1 $183 $72 #
plane-surface $-1 0 -37.545672937925893 0 0 1 0 0 0 1 forward_v I I I I #
coedge $-1 $184 $185 $186 $187 forward $73 $-1 #
coedge $-1 $188 $75 $189 $190 forward $46 $-1 #
coedge $-1 $75 $188 $191 $192 forward $46 $-1 #
coedge $-1 $193 $194 $75 $120 reversed $195 $-1 #
edge $-1 $196 -37.545672937925893 $197 37.545672937925893 $119 $198 forward 7 unknown #
face $-1 $199 $200 $28 $-1 $201 reversed single #
loop $-1 $-1 $202 $76 #
plane-surface $-1 -85.179151943654858 -9.7306990418546473 0 0 1 0 0 0 1 forward_v I I I I #
coedge $-1 $203 $204 $126 $205 forward $77 $-1 #
coedge $-1 $206 $79 $207 $208 reversed $49 $-1 #
coedge $-1 $79 $206 $124 $205 reversed $49 $-1 #
coedge $-1 $209 $210 $79 $128 reversed $211 $-1 #
edge $-1 $212 -16.280295121208493 $213 16.280295121208493 $127 $214 forward 7 unknown #
face $-1 $215 $216 $29 $-1 $217 forward single #
loop $-1 $-1 $218 $80 #
plane-surface $-1 27.790716221416787 91.071499488246587 171.6954590659231 -1 0 0 0 0.70710678939079041 0.70710677298230451 forward_v I I I I #
coedge $-1 $219 $220 $221 $222 reversed $81 $-1 #
coedge $-1 $134 $83 $223 $224 reversed $52 $-1 #
coedge $-1 $83 $133 $219 $225 reversed $52 $-1 #
coedge $-1 $221 $226 $83 $136 forward $216 $-1 #
edge $-1 $227 7.9900768061974006 $228 12.295936592156515 $135 $229 forward 7 unknown #
loop $-1 $-1 $142 $84 #
plane-surface $-1 9.4054598656466766 -15.551926323245723 65.072035728638369 0 0.70710678939079041 0.70710677298230451 1 0 0 forward_v I I I I #
loop $-1 $-1 $230 $54 #
coedge $-1 $140 $140 $141 $231 reversed $85 $-1 #
coedge $-1 $141 $141 $140 $231 forward $87 $-1 #
coedge $-1 $142 $142 $88 $143 forward $137 $-1 #
edge $-1 $232 -2.5121478075889599e-015 $232 6.2831853071795978 $142 $233 forward 7 unknown #
loop $-1 $-1 $149 $89 #
plane-surface $-1 9.4054598656466766 -15.551926323245723 65.072035728638369 0 0.70710678939079041 0.70710677298230451 1 0 0 forward_v I I I I #
loop $-1 $-1 $234 $57 #
coedge $-1 $147 $147 $148 $235 reversed $90 $-1 #
coedge $-1 $148 $148 $147 $235 forward $92 $-1 #
coedge $-1 $149 $149 $93 $150 forward $144 $-1 #
edge $-1 $236 -2.5121478075889599e-015 $236 6.2831853071795978 $149 $237 forward 7 unknown #
loop $-1 $-1 $156 $94 #
plane-surface $-1 9.4054598656466766 -15.551926323245723 65.072035728638369 0 0.70710678939079041 0.70710677298230451 1 0 0 forward_v I I I I #
loop $-1 $-1 $238 $60 #
coedge $-1 $154 $154 $155 $239 reversed $95 $-1 #
coedge $-1 $155 $155 $154 $239 forward $97 $-1 #
coedge $-1 $156 $156 $98 $157 forward $151 $-1 #
edge $-1 $240 -2.5121478075889599e-015 $240 6.2831853071795978 $156 $241 forward 7 unknown #
face $-1 $242 $243 $33 $-1 $244 forward single #
loop $-1 $-1 $245 $99 #
plane-surface $-1 0 -37.545672937925893 0 0 1 0 0 0 1 forward_v I I I I #
coedge $-1 $246 $247 $248 $249 reversed $100 $-1 #
coedge $-1 $250 $102 $251 $252 reversed $64 $-1 #
coedge $-1 $102 $250 $246 $253 forward $64 $-1 #
coedge $-1 $248 $254 $102 $165 forward $243 $-1 #
edge $-1 $255 -41.930221435443904 $256 -24.9976287934333 $164 $257 forward 7 unknown #
loop $-1 $-1 $171 $103 #
plane-surface $-1 66.927850228877205 -37.5456729379259 11.96430286501888 0 -0.5877852598018023 0.80901698891910034 1 0 0 forward_v I I I I #
loop $-1 $-1 $258 $66 #
coedge $-1 $169 $169 $170 $259 reversed $104 $-1 #
coedge $-1 $170 $170 $169 $259 forward $106 $-1 #
coedge $-1 $171 $171 $107 $172 forward $166 $-1 #
edge $-1 $260 3.648635851298499e-015 $260 6.283185307179604 $171 $261 forward 7 unknown #
loop $-1 $-1 $178 $108 #
plane-surface $-1 66.927850228877205 -37.5456729379259 11.96430286501888 0 -0.5877852598018023 0.80901698891910034 1 0 0 forward_v I I I I #
loop $-1 $-1 $262 $69 #
coedge $-1 $176 $176 $177 $263 reversed $109 $-1 #
coedge $-1 $177 $177 $176 $263 forward $111 $-1 #
coedge $-1 $178 $178 $112 $179 forward $173 $-1 #
edge $-1 $264 3.648635851298499e-015 $264 6.283185307179604 $178 $265 forward 7 unknown #
face $-1 $266 $267 $27 $-1 $268 reversed single #
loop $-1 $-1 $269 $113 #
plane-surface $-1 -75.394146549882507 0 0 1 0 0 0 0 -1 forward_v I I I I #
coedge $-1 $270 $191 $271 $272 forward $114 $-1 #
coedge $-1 $273 $116 $270 $274 forward $73 $-1 #
coedge $-1 $116 $273 $275 $276 forward $73 $-1 #
coedge $-1 $194 $193 $116 $187 reversed $195 $-1 #
edge $-1 $277 -37.545672937925893 $278 37.545672937925893 $186 $279 forward 7 unknown #
coedge $-1 $118 $117 $280 $281 forward $46 $-1 #
coedge $-1 $282 $283 $117 $190 reversed $267 $-1 #
edge $-1 $197 -75.394146549882507 $284 75.394146549882507 $189 $285 forward 7 unknown #
coedge $-1 $183 $286 $118 $192 reversed $114 $-1 #
edge $-1 $287 -75.394146549882507 $196 75.394146549882507 $191 $288 forward 7 unknown #
coedge $-1 $186 $119 $286 $289 forward $195 $-1 #
coedge $-1 $119 $186 $282 $290 reversed $195 $-1 #
loop $-1 $-1 $193 $266 #
vertex $-1 $120 $291 #
vertex $-1 $120 $292 #
straight-curve $-1 75.394146549882507 0 16.280295121208493 0 1 0 I I #
face $-1 $293 $211 $28 $-1 $294 reversed single #
loop $-1 $-1 $295 $121 #
plane-surface $-1 -94.96415733742721 -7.3578908686817783 0 1 0 0 0 0 -1 forward_v I I I I #
coedge $-1 $296 $297 $298 $299 forward $122 $-1 #
coedge $-1 $300 $124 $296 $301 forward $77 $-1 #
coedge $-1 $124 $300 $209 $302 forward $77 $-1 #
edge $-1 $212 4.9850826955089094 $303 9.7306990418546473 $124 $304 forward 7 unknown #
coedge $-1 $126 $125 $305 $306 forward $49 $-1 #
coedge $-1 $307 $308 $125 $208 forward $309 $-1 #
edge $-1 $310 -9.7306990418546473 $213 -4.9850826955089094 $207 $311 forward 7 unknown #
coedge $-1 $312 $127 $204 $302 reversed $211 $-1 #
coedge $-1 $127 $312 $307 $313 reversed $211 $-1 #
loop $-1 $-1 $127 $199 #
vertex $-1 $205 $314 #
vertex $-1 $313 $315 #
straight-curve $-1 -75.394146549882507 -4.9850826955089094 0 0 0 1 I I #
face $-1 $-1 $316 $29 $-1 $317 reversed single #
loop $-1 $-1 $135 $129 #
plane-surface $-1 0 0 16.280295121208493 0 0 1 1 0 0 forward_v I I I I #
coedge $-1 $318 $319 $320 $321 reversed $130 $-1 #
coedge $-1 $322 $132 $134 $225 forward $81 $-1 #
coedge $-1 $132 $322 $318 $323 forward $81 $-1 #
coedge $-1 $320 $135 $132 $222 forward $216 $-1 #
edge $-1 $228 -13.682526422946772 $324 23.087986288593449 $221 $325 forward 7 unknown #
coedge $-1 $326 $327 $133 $224 forward $316 $-1 #
edge $-1 $328 -73.873294297630082 $227 -69.567434411753055 $223 $329 forward 7 unknown #
edge $-1 $228 69.001940498218843 $328 75.091345875851786 $134 $330 forward 7 unknown #
coedge $-1 $135 $320 $326 $331 forward $216 $-1 #
vertex $-1 $224 $332 #
vertex $-1 $136 $333 #
straight-curve $-1 -8.9797964901234337 45.535749744123294 16.280295121208496 0 -1 0 I I #
coedge $-1 $230 $230 $-1 $334 reversed $139 $-1 #
edge $-1 $335 0 $335 6.2831853071796004 $140 $336 forward 7 unknown #
vertex $-1 $143 $337 #
ellipse-curve $-1 -1.6256939478153924 35.392743044946336 14.127365178269983 0 0.70710678939079041 0.70710677298230451 1.5 0 0 1 I I #
coedge $-1 $234 $234 $-1 $338 reversed $146 $-1 #
edge $-1 $339 0 $339 6.2831853071796004 $147 $340 forward 7 unknown #
vertex $-1 $150 $341 #
ellipse-curve $-1 9.4054598656466766 35.392743044946336 14.127365178269983 0 0.70710678939079041 0.70710677298230451 1.5 0 0 1 I I #
coedge $-1 $238 $238 $-1 $342 reversed $153 $-1 #
edge $-1 $343 0 $343 6.2831853071796004 $154 $344 forward 7 unknown #
vertex $-1 $157 $345 #
ellipse-curve $-1 20.436613679108746 35.392743044946336 14.127365178269983 0 0.70710678939079041 0.70710677298230451 1.5 0 0 1 I I #
face $-1 $-1 $346 $33 $-1 $347 reversed single #
loop $-1 $-1 $248 $158 #
plane-surface $-1 0 0 16.280295121208493 0 0 1 1 0 0 forward_v I I I I #
coedge $-1 $348 $349 $247 $350 forward $159 $-1 #
coedge $-1 $247 $161 $163 $253 reversed $100 $-1 #
coedge $-1 $161 $246 $245 $350 reversed $100 $-1 #
coedge $-1 $351 $164 $161 $249 forward $243 $-1 #
edge $-1 $256 -31.483185142753591 $352 -25.542731548394904 $248 $353 forward 7 unknown #
coedge $-1 $163 $162 $348 $354 reversed $64 $-1 #
coedge $-1 $355 $356 $162 $252 forward $346 $-1 #
edge $-1 $357 -11.671323199659788 $255 -4.3285186903311006 $251 $358 forward 7 unknown #
edge $-1 $359 8.8807605448725156e-015 $256 7.3428045093286958 $246 $360 forward 7 unknown #
coedge $-1 $164 $351 $355 $361 forward $243 $-1 #
vertex $-1 $252 $362 #
vertex $-1 $165 $363 #
straight-curve $-1 33.463925114438602 -31.605219343567203 16.280295121208493 -1 0 0 I I #
coedge $-1 $258 $258 $-1 $364 reversed $168 $-1 #
edge $-1 $365 0 $365 6.2831853071796004 $169 $366 forward 7 unknown #
vertex $-1 $172 $367 #
ellipse-curve $-1 63.299437519874928 -34.575446140746557 14.122298993113684 0 -0.5877852598018023 0.80901698891910034 1 0 0 1 I I #
coedge $-1 $262 $262 $-1 $368 reversed $175 $-1 #
edge $-1 $369 0 $369 6.2831853071796004 $176 $370 forward 7 unknown #
vertex $-1 $179 $371 #
ellipse-curve $-1 70.556262937879481 -34.575446140746557 14.122298993113684 0 -0.5877852598018023 0.80901698891910034 1 0 0 1 I I #
face $-1 $-1 $195 $27 $-1 $372 reversed single #
loop $-1 $-1 $282 $180 #
plane-surface $-1 0 37.545672937925893 0 0 -1 0 0 0 -1 forward_v I I I I #
coedge $-1 $373 $280 $283 $374 forward $181 $-1 #
coedge $-1 $286 $183 $184 $274 reversed $114 $-1 #
coedge $-1 $280 $373 $183 $272 reversed $181 $-1 #
edge $-1 $287 -16.280295121208493 $375 16.280295121208493 $271 $376 forward 7 unknown #
coedge $-1 $185 $184 $373 $377 forward $73 $-1 #
edge $-1 $278 -75.394146549882507 $375 75.394146549882507 $270 $378 forward 7 unknown #
coedge $-1 $283 $282 $185 $276 reversed $267 $-1 #
edge $-1 $379 -75.394146549882507 $277 75.394146549882507 $275 $380 forward 7 unknown #
vertex $-1 $187 $381 #
vertex $-1 $289 $382 #
straight-curve $-1 75.394146549882507 0 -16.280295121208493 0 -1 0 I I #
coedge $-1 $269 $271 $188 $281 reversed $181 $-1 #
edge $-1 $284 -37.545672937925893 $287 37.545672937925893 $280 $383 forward 7 unknown #
coedge $-1 $275 $189 $194 $290 forward $267 $-1 #
coedge $-1 $189 $275 $269 $374 reversed $267 $-1 #
vertex $-1 $190 $384 #
straight-curve $-1 0 37.545672937925893 16.280295121208493 -1 0 0 I I #
coedge $-1 $191 $270 $193 $289 reversed $114 $-1 #
vertex $-1 $281 $385 #
straight-curve $-1 0 -37.545672937925893 16.280295121208493 1 0 0 I I #
edge $-1 $196 -16.280295121208493 $278 16.280295121208493 $193 $386 forward 7 unknown #
edge $-1 $197 -16.280295121208493 $277 16.280295121208493 $194 $387 forward 7 unknown #
point $-1 75.394146549882507 -37.545672937925893 16.280295121208493 #
point $-1 75.394146549882507 37.545672937925893 16.280295121208493 #
face $-1 $-1 $309 $28 $-1 $388 forward single #
plane-surface $-1 -85.179151943654858 -4.9850826955089094 0 0 -1 0 0 0 -1 forward_v I I I I #
coedge $-1 $389 $390 $312 $391 forward $200 $-1 #
coedge $-1 $305 $202 $203 $301 reversed $122 $-1 #
coedge $-1 $202 $305 $308 $392 reversed $122 $-1 #
coedge $-1 $390 $389 $202 $299 reversed $200 $-1 #
edge $-1 $393 -16.280295121208493 $394 16.280295121208493 $298 $395 forward 7 unknown #
coedge $-1 $204 $203 $389 $396 forward $77 $-1 #
edge $-1 $303 -9.7850053937723516 $394 9.7850053937723516 $296 $397 forward 7 unknown #
edge $-1 $398 -9.7850053937723516 $212 9.7850053937723516 $209 $399 forward 7 unknown #
vertex $-1 $301 $400 #
straight-curve $-1 -75.394146549882507 0 -16.280295121208493 0 -1 0 I I #
coedge $-1 $297 $296 $206 $306 reversed $122 $-1 #
edge $-1 $310 -16.280295121208493 $303 16.280295121208493 $305 $401 forward 7 unknown #
coedge $-1 $402 $207 $210 $313 forward $309 $-1 #
coedge $-1 $207 $402 $297 $392 forward $309 $-1 #
loop $-1 $-1 $207 $293 #
vertex $-1 $208 $403 #
straight-curve $-1 -75.394146549882507 0 16.280295121208493 0 1 0 I I #
coedge $-1 $210 $209 $295 $391 reversed $211 $-1 #
edge $-1 $213 -9.7850053937723516 $404 9.7850053937723516 $210 $405 forward 7 unknown #
point $-1 -75.394146549882507 -4.9850826955089094 -16.280295121208493 #
point $-1 -75.394146549882507 -4.9850826955089094 16.280295121208493 #
loop $-1 $-1 $223 $215 #
plane-surface $-1 0 37.545672937925893 0 0 -1 0 0 0 -1 forward_v I I I I #
coedge $-1 $319 $218 $220 $323 reversed $130 $-1 #
coedge $-1 $218 $318 $406 $407 reversed $130 $-1 #
coedge $-1 $226 $221 $218 $321 forward $216 $-1 #
edge $-1 $324 -12.295936592156515 $408 -7.9900768061974006 $320 $409 forward 7 unknown #
coedge $-1 $220 $219 $327 $410 reversed $81 $-1 #
edge $-1 $411 -75.091345875851786 $324 -69.001940498218843 $318 $412 forward 7 unknown #
vertex $-1 $222 $413 #
straight-curve $-1 4.7027299328233383 33.239813151966786 16.280295121208489 1 0 0 I I #
coedge $-1 $406 $223 $226 $331 reversed $316 $-1 #
coedge $-1 $223 $406 $322 $410 forward $316 $-1 #
vertex $-1 $224 $414 #
straight-curve $-1 -8.9797964901234337 37.545672937925893 85.847729532961552 0 0 1 I I #
straight-curve $-1 -8.9797964901234337 -15.551926323245723 65.072035728638369 0 0.70710677298230451 -0.70710678939079041 I I #
edge $-1 $408 -27.790716221416787 $227 8.9797964901234337 $326 $415 forward 7 unknown #
point $-1 -8.9797964901234337 37.545672937925893 16.280295121208493 #
point $-1 -8.9797964901234337 33.239813151966779 16.280295121208496 #
edge $-1 $416 1 $416 0 $230 $-1 forward 7 unknown #
vertex $-1 $231 $417 #
ellipse-curve $-1 -1.6256939478153924 32.810380072875532 11.545002266123181 0 0.70710678939079041 0.70710677298230451 1.5 0 0 1 I I #
point $-1 -0.12569394781539245 35.392743044946322 14.127365178269974 #
edge $-1 $418 1 $418 0 $234 $-1 forward 7 unknown #
vertex $-1 $235 $419 #
ellipse-curve $-1 9.4054598656466766 32.810380072875532 11.545002266123181 0 0.70710678939079041 0.70710677298230451 1.5 0 0 1 I I #
point $-1 10.905459865646677 35.392743044946322 14.127365178269974 #
edge $-1 $420 1 $420 0 $238 $-1 forward 7 unknown #
vertex $-1 $239 $421 #
ellipse-curve $-1 20.436613679108746 32.810380072875532 11.545002266123181 0 0.70710678939079041 0.70710677298230451 1.5 0 0 1 I I #
point $-1 21.936613679108746 35.392743044946322 14.127365178269974 #
loop $-1 $-1 $251 $242 #
plane-surface $-1 75.394146549882507 0 0 -1 0 0 0 0 1 forward_v I I I I #
coedge $-1 $422 $245 $250 $354 forward $159 $-1 #
coedge $-1 $245 $422 $351 $423 reversed $159 $-1 #
edge $-1 $352 50.697001735212268 $359 55.012993991401878 $245 $424 forward 7 unknown #
coedge $-1 $254 $248 $349 $423 forward $243 $-1 #
vertex $-1 $423 $425 #
straight-curve $-1 58.461553907871902 -63.088404486320798 16.280295121208496 0 -1 0 I I #
edge $-1 $359 24.9976287934333 $357 41.930221435443904 $348 $426 forward 7 unknown #
coedge $-1 $356 $251 $254 $361 reversed $346 $-1 #
coedge $-1 $251 $355 $422 $427 forward $346 $-1 #
vertex $-1 $354 $428 #
straight-curve $-1 75.394146549882507 -28.103374186235492 18.824534604161716 0 0.80901698891910034 0.5877852598018023 I I #
vertex $-1 $354 $429 #
straight-curve $-1 58.461553907871902 -37.5456729379259 11.96430286501888 0 0.80901698891910034 0.5877852598018023 I I #
edge $-1 $430 -37.545672937925893 $255 -31.605219343567207 $355 $431 forward 7 unknown #
point $-1 75.394146549882507 -31.605219343567207 16.280295121208493 #
point $-1 58.461553907871902 -31.605219343567207 16.280295121208493 #
edge $-1 $432 1 $432 0 $258 $-1 forward 7 unknown #
vertex $-1 $259 $433 #
ellipse-curve $-1 63.299437519874928 -32.598104022519308 11.40072110412318 0 -0.5877852598018023 0.80901698891910034 1 0 0 1 I I #
point $-1 64.299437519874928 -34.575446140746564 14.1222989931137 #
edge $-1 $434 1 $434 0 $262 $-1 forward 7 unknown #
vertex $-1 $263 $435 #
ellipse-curve $-1 70.556262937879481 -32.598104022519308 11.40072110412318 0 -0.5877852598018023 0.80901698891910034 1 0 0 1 I I #
point $-1 71.556262937879481 -34.575446140746564 14.1222989931137 #
plane-surface $-1 75.394146549882507 0 0 -1 0 0 0 0 1 forward_v I I I I #
coedge $-1 $271 $269 $273 $377 reversed $181 $-1 #
edge $-1 $284 -16.280295121208493 $379 16.280295121208493 $283 $436 forward 7 unknown #
vertex $-1 $377 $437 #
straight-curve $-1 -75.394146549882507 -37.545672937925893 0 0 0 -1 I I #
edge $-1 $375 -37.545672937925893 $379 37.545672937925893 $373 $438 forward 7 unknown #
straight-curve $-1 0 -37.545672937925893 -16.280295121208493 -1 0 0 I I #
vertex $-1 $276 $439 #
straight-curve $-1 0 37.545672937925893 -16.280295121208493 1 0 0 I I #
point $-1 75.394146549882507 37.545672937925893 -16.280295121208493 #
point $-1 75.394146549882507 -37.545672937925893 -16.280295121208493 #
straight-curve $-1 -75.394146549882507 0 16.280295121208493 0 -1 0 I I #
point $-1 -75.394146549882507 37.545672937925893 16.280295121208493 #
point $-1 -75.394146549882507 -37.545672937925893 16.280295121208493 #
straight-curve $-1 75.394146549882507 -37.545672937925893 0 0 0 -1 I I #
straight-curve $-1 75.394146549882507 37.545672937925893 0 0 0 -1 I I #
plane-surface $-1 0 0 16.280295121208493 0 0 1 1 0 0 forward_v I I I I #
coedge $-1 $298 $295 $300 $396 reversed $200 $-1 #
coedge $-1 $295 $298 $402 $440 reversed $200 $-1 #
edge $-1 $404 -16.280295121208493 $398 16.280295121208493 $312 $441 forward 7 unknown #
edge $-1 $393 -9.7850053937723516 $310 9.7850053937723516 $297 $442 forward 7 unknown #
vertex $-1 $440 $443 #
vertex $-1 $396 $444 #
straight-curve $-1 -94.96415733742721 -9.7306990418546473 0 0 0 -1 I I #
edge $-1 $394 -2.372808173172869 $398 2.372808173172869 $389 $445 forward 7 unknown #
straight-curve $-1 -85.179151943654858 -9.7306990418546473 -16.280295121208493 -1 0 0 I I #
vertex $-1 $302 $446 #
straight-curve $-1 -85.179151943654858 -4.9850826955089094 -16.280295121208493 1 0 0 I I #
point $-1 -75.394146549882507 -9.7306990418546473 -16.280295121208493 #
straight-curve $-1 -75.394146549882507 -9.7306990418546473 0 0 0 -1 I I #
coedge $-1 $308 $307 $390 $440 forward $309 $-1 #
point $-1 -75.394146549882507 -9.7306990418546473 16.280295121208493 #
vertex $-1 $313 $447 #
straight-curve $-1 -85.179151943654858 -4.9850826955089094 16.280295121208493 -1 0 0 I I #
coedge $-1 $327 $326 $319 $407 forward $316 $-1 #
edge $-1 $408 69.567434411753055 $411 73.873294297630082 $406 $448 forward 7 unknown #
vertex $-1 $331 $449 #
straight-curve $-1 27.790716221416787 45.535749744123294 16.280295121208496 0 1 0 I I #
edge $-1 $411 -23.087986288593449 $328 13.682526422946772 $327 $450 forward 7 unknown #
vertex $-1 $410 $451 #
straight-curve $-1 27.790716221416787 -15.551926323245723 65.072035728638369 0 -0.70710677298230451 0.70710678939079041 I I #
point $-1 27.790716221416787 33.239813151966779 16.280295121208496 #
point $-1 -8.9797964901234337 37.545672937925893 11.974435235331462 #
straight-curve $-1 0 37.545672937925893 16.280295121208493 -1 0 0 I I #
vertex $-1 $334 $452 #
point $-1 -0.12569394781539245 32.810380072875532 11.545002266123181 #
vertex $-1 $338 $453 #
point $-1 10.905459865646677 32.810380072875532 11.545002266123181 #
vertex $-1 $342 $454 #
point $-1 21.936613679108746 32.810380072875532 11.545002266123181 #
coedge $-1 $349 $348 $356 $427 reversed $159 $-1 #
edge $-1 $352 58.461553907871902 $430 75.394146549882507 $349 $455 forward 7 unknown #
straight-curve $-1 58.461553907871902 -37.545672937925893 66.977296856420764 0 0 -1 I I #
point $-1 58.461553907871902 -37.545672937925893 16.280295121208493 #
straight-curve $-1 33.463925114438602 -37.545672937925893 11.964302865018887 1 0 0 I I #
edge $-1 $430 -16.280295121208493 $357 -11.964302865018885 $356 $456 forward 7 unknown #
point $-1 75.394146549882507 -37.545672937925893 11.964302865018885 #
point $-1 58.461553907871902 -37.545672937925893 11.964302865018885 #
vertex $-1 $361 $457 #
straight-curve $-1 75.394146549882507 0 16.280295121208493 0 1 0 I I #
vertex $-1 $364 $458 #
point $-1 64.299437519874928 -32.598104022519308 11.40072110412318 #
vertex $-1 $368 $459 #
point $-1 71.556262937879481 -32.598104022519308 11.40072110412318 #
straight-curve $-1 -75.394146549882507 37.545672937925893 0 0 0 -1 I I #
point $-1 -75.394146549882507 -37.545672937925893 -16.280295121208493 #
straight-curve $-1 -75.394146549882507 0 -16.280295121208493 0 1 0 I I #
point $-1 -75.394146549882507 37.545672937925893 -16.280295121208493 #
edge $-1 $404 -2.372808173172869 $393 2.372808173172869 $390 $460 forward 7 unknown #
straight-curve $-1 -94.96415733742721 -4.9850826955089094 0 0 0 -1 I I #
straight-curve $-1 -85.179151943654858 -9.7306990418546473 16.280295121208493 1 0 0 I I #
point $-1 -94.96415733742721 -9.7306990418546473 16.280295121208493 #
point $-1 -94.96415733742721 -9.7306990418546473 -16.280295121208493 #
straight-curve $-1 -94.96415733742721 -7.3578908686817783 -16.280295121208493 0 1 0 I I #
point $-1 -94.96415733742721 -4.9850826955089094 -16.280295121208493 #
point $-1 -94.96415733742721 -4.9850826955089094 16.280295121208493 #
straight-curve $-1 27.790716221416787 37.545672937925893 85.847729532961552 0 0 -1 I I #
point $-1 27.790716221416787 37.545672937925893 16.280295121208493 #
straight-curve $-1 4.7027299328233383 37.545672937925893 11.97443523533147 -1 0 0 I I #
point $-1 27.790716221416787 37.545672937925893 11.974435235331462 #
point $-1 -1.6256939478153924 31.749719888789343 10.484342106649724 #
point $-1 9.4054598656466766 31.749719888789343 10.484342106649724 #
point $-1 20.436613679108746 31.749719888789343 10.484342106649724 #
straight-curve $-1 0 -37.545672937925893 16.280295121208493 1 0 0 I I #
straight-curve $-1 75.394146549882507 -37.545672937925893 0 0 0 -1 I I #
point $-1 75.394146549882507 -37.545672937925893 16.280295121208493 #
point $-1 63.299437519874928 -32.010318762717503 10.591704115204079 #
point $-1 70.556262937879481 -32.010318762717503 10.591704115204079 #
straight-curve $-1 -94.96415733742721 -7.3578908686817783 16.280295121208493 0 -1 0 I I #
End-of-ACIS-data 