500 0 8 0           
7 Unknown 11 ACIS 5.0 NT 24 Fri Mar 26 02:46:58 1999 
-1 9.9999999999999995e-007 1e-010 
body $-1 $8 $-1 $9 #
body $-1 $10 $-1 $11 #
body $-1 $12 $-1 $13 #
body $-1 $14 $-1 $15 #
body $-1 $16 $-1 $17 #
body $-1 $18 $-1 $19 #
body $-1 $20 $-1 $21 #
body $-1 $22 $-1 $23 #
lump $-1 $-1 $24 $0 #
transform $-1 1 0 0 0 1 0 0 0 1 64.402600177007358 29.370235136113731 6.6097594512994746 1 rotate no_reflect no_shear #
lump $-1 $-1 $25 $1 #
transform $-1 1 0 0 0 1 0 0 0 1 64.402600177007358 29.370235136113731 6.6097594512994746 1 rotate no_reflect no_shear #
lump $-1 $-1 $26 $2 #
transform $-1 1 0 0 0 1 0 0 0 1 64.402600177007358 29.370235136113731 6.6097594512994746 1 rotate no_reflect no_shear #
lump $-1 $-1 $27 $3 #
transform $-1 1 0 0 0 1 0 0 0 1 64.402600177007358 29.370235136113731 6.6097594512994746 1 rotate no_reflect no_shear #
lump $-1 $-1 $28 $4 #
transform $-1 1 0 0 0 1 0 0 0 1 64.402600177007358 29.370235136113731 6.6097594512994746 1 rotate no_reflect no_shear #
lump $-1 $-1 $29 $5 #
transform $-1 1 0 0 0 1 0 0 0 1 64.402600177007358 29.370235136113731 6.6097594512994746 1 rotate no_reflect no_shear #
lump $-1 $-1 $30 $6 #
transform $-1 1 0 0 0 1 0 0 0 1 64.402600177007358 29.370235136113731 6.6097594512994746 1 rotate no_reflect no_shear #
lump $-1 $-1 $31 $7 #
transform $-1 1 0 0 0 1 0 0 0 1 64.402600177007358 29.370235136113731 6.6097594512994746 1 rotate no_reflect no_shear #
shell $-1 $-1 $-1 $32 $-1 $8 #
shell $-1 $-1 $-1 $33 $-1 $10 #
shell $-1 $-1 $-1 $34 $-1 $12 #
shell $-1 $-1 $-1 $35 $-1 $14 #
shell $-1 $-1 $-1 $36 $-1 $16 #
shell $-1 $-1 $-1 $37 $-1 $18 #
shell $-1 $-1 $-1 $38 $-1 $20 #
shell $-1 $-1 $-1 $39 $-1 $22 #
face $-1 $40 $41 $24 $-1 $42 forward single #
face $-1 $43 $44 $25 $-1 $45 forward single #
face $-1 $46 $47 $26 $-1 $48 reversed single #
face $-1 $49 $50 $27 $-1 $51 forward single #
face $-1 $52 $53 $28 $-1 $54 forward single #
face $-1 $55 $56 $29 $-1 $57 reversed single #
face $-1 $58 $59 $30 $-1 $60 forward single #
face $-1 $61 $62 $31 $-1 $63 forward single #
face $-1 $64 $65 $24 $-1 $66 reversed single #
loop $-1 $-1 $67 $32 #
plane-surface $-1 0 0 6.6097594512994746 0 0 1 1 0 0 forward_v I I I I #
face $-1 $68 $69 $25 $-1 $70 reversed single #
loop $-1 $-1 $71 $33 #
plane-surface $-1 0 -26.588774448796549 5.6584443549204337 0 0 1 1 0 0 forward_v I I I I #
face $-1 $72 $73 $26 $-1 $74 reversed single #
loop $-1 $-1 $75 $34 #
plane-surface $-1 -152.24753663037524 23.189194890046352 96.239871442727235 0 1 0 -0.68199836817093118 0 0.7313536940579346 forward_v I I I I #
face $-1 $76 $77 $27 $-1 $78 forward single #
loop $-1 $79 $80 $35 #
cone-surface $-1 -61.610140921287567 24.95520638892275 3.9580590535938569 0.68199836817093118 0 -0.7313536940579346 0.3656768470289673 0 0.34099918408546559 1 I I 0 1 0.5 forward I I I I #
face $-1 $81 $82 $28 $-1 $83 forward single #
loop $-1 $84 $85 $36 #
cone-surface $-1 -61.610140921287567 27.604223637237343 3.9580590535938569 0.68199836817093118 0 -0.7313536940579346 0.3656768470289673 0 0.34099918408546559 1 I I 0 1 0.5 forward I I I I #
face $-1 $86 $87 $29 $-1 $88 reversed single #
loop $-1 $-1 $89 $37 #
plane-surface $-1 -44.830404195098865 25.099460187417659 71.623645337435391 0.52991927123019833 0 0.84804809178421925 0.84804809178421925 0 -0.52991927123019833 forward_v I I I I #
face $-1 $90 $91 $30 $-1 $92 forward single #
loop $-1 $93 $94 $38 #
cone-surface $-1 61.458798011989572 23.269128066547911 4.4295550096824705 -0.52991927123019833 0 -0.84804809178421925 0.84804809178421925 0 -0.52991927123019833 1 I I 0 1 1 forward I I I I #
face $-1 $95 $96 $31 $-1 $97 forward single #
loop $-1 $98 $99 $39 #
cone-surface $-1 61.458798011989572 26.9297923082874 4.4295550096824705 -0.52991927123019833 0 -0.84804809178421925 0.84804809178421925 0 -0.52991927123019833 1 I I 0 1 1 forward I I I I #
face $-1 $100 $101 $24 $-1 $102 reversed single #
loop $-1 $-1 $103 $40 #
plane-surface $-1 0 0 -6.6097594512994746 0 0 1 1 0 0 forward_v I I I I #
coedge $-1 $104 $105 $106 $107 forward $41 $-1 #
face $-1 $108 $109 $25 $-1 $110 reversed single #
loop $-1 $-1 $111 $43 #
plane-surface $-1 0 -26.588774448796549 2.3915888504862473 0 0 1 1 0 0 forward_v I I I I #
coedge $-1 $112 $113 $114 $115 reversed $44 $-1 #
face $-1 $116 $117 $26 $-1 $118 forward single #
loop $-1 $-1 $119 $46 #
plane-surface $-1 -64.402600177007358 26.27971501308004 2.0377123499461902 -0.68199836817093118 0 0.7313536940579346 0.7313536940579346 0 0.68199836817093118 forward_v I I I I #
coedge $-1 $120 $121 $122 $123 reversed $47 $-1 #
face $-1 $-1 $124 $27 $-1 $125 forward single #
loop $-1 $126 $127 $49 #
cone-surface $-1 -61.098642145159367 24.95520638892275 3.4095437830504061 0.68199836817093118 0 -0.7313536940579346 0.18283842351448365 0 0.17049959204273279 1 I I -0.70710678118654746 0.70710678118654746 0.25 forward I I I I #
loop $-1 $-1 $128 $35 #
coedge $-1 $80 $80 $129 $130 reversed $50 $-1 #
face $-1 $-1 $131 $28 $-1 $132 forward single #
loop $-1 $133 $134 $52 #
cone-surface $-1 -61.098642145159367 27.604223637237343 3.4095437830504061 0.68199836817093118 0 -0.7313536940579346 0.18283842351448365 0 0.17049959204273279 1 I I -0.70710678118654746 0.70710678118654746 0.25 forward I I I I #
loop $-1 $-1 $135 $36 #
coedge $-1 $85 $85 $136 $137 reversed $53 $-1 #
face $-1 $138 $139 $29 $-1 $140 reversed single #
loop $-1 $-1 $141 $55 #
plane-surface $-1 23.425953707160303 20.828685238721587 180.85664970954161 0 1 0 0.52991927123019833 0 0.84804809178421925 forward_v I I I I #
coedge $-1 $142 $143 $144 $145 reversed $56 $-1 #
face $-1 $-1 $146 $30 $-1 $147 forward single #
loop $-1 $148 $149 $58 #
cone-surface $-1 60.844556127148294 23.269128066547911 3.4465625302349636 -0.52991927123019833 0 -0.84804809178421925 0.42402404589210962 0 -0.26495963561509916 1 I I -0.70710678118654746 0.70710678118654746 0.5 forward I I I I #
loop $-1 $-1 $150 $38 #
coedge $-1 $94 $94 $151 $152 reversed $59 $-1 #
face $-1 $-1 $153 $31 $-1 $154 forward single #
loop $-1 $155 $156 $61 #
cone-surface $-1 60.844556127148294 26.9297923082874 3.4465625302349636 -0.52991927123019833 0 -0.84804809178421925 0.42402404589210962 0 -0.26495963561509916 1 I I -0.70710678118654746 0.70710678118654746 0.5 forward I I I I #
loop $-1 $-1 $157 $39 #
coedge $-1 $99 $99 $158 $159 reversed $62 $-1 #
face $-1 $160 $161 $24 $-1 $162 reversed single #
loop $-1 $-1 $163 $64 #
plane-surface $-1 0 -29.370235136113731 0 0 1 0 0 0 1 forward_v I I I I #
coedge $-1 $164 $165 $166 $167 forward $65 $-1 #
coedge $-1 $168 $67 $169 $170 forward $41 $-1 #
coedge $-1 $67 $168 $171 $172 forward $41 $-1 #
coedge $-1 $173 $174 $67 $107 reversed $175 $-1 #
edge $-1 $176 -29.370235136113731 $177 29.370235136113731 $106 $178 forward 7 unknown #
face $-1 $179 $180 $25 $-1 $181 reversed single #
loop $-1 $-1 $182 $68 #
plane-surface $-1 0 -23.807313761479367 4.0250166027033405 0 -1 0 0 0 -1 forward_v I I I I #
coedge $-1 $183 $184 $185 $186 reversed $69 $-1 #
coedge $-1 $187 $71 $188 $189 forward $44 $-1 #
coedge $-1 $71 $187 $190 $191 reversed $44 $-1 #
coedge $-1 $192 $193 $71 $115 forward $194 $-1 #
edge $-1 $195 10.512926537081093 $196 16.075847911715456 $114 $197 forward 7 unknown #
face $-1 $198 $199 $26 $-1 $200 reversed single #
loop $-1 $-1 $122 $72 #
plane-surface $-1 0 0 6.6097594512994746 0 0 1 1 0 0 forward_v I I I I #
coedge $-1 $201 $202 $203 $204 reversed $73 $-1 #
coedge $-1 $121 $75 $205 $206 reversed $47 $-1 #
coedge $-1 $75 $120 $201 $207 reversed $47 $-1 #
coedge $-1 $203 $208 $75 $123 forward $117 $-1 #
edge $-1 $209 11.721168138180261 $210 16.624088281448891 $122 $211 forward 7 unknown #
loop $-1 $-1 $129 $76 #
plane-surface $-1 -64.402600177007358 26.27971501308004 2.0377123499461902 -0.68199836817093118 0 0.7313536940579346 0.7313536940579346 0 0.68199836817093118 forward_v I I I I #
loop $-1 $-1 $212 $49 #
coedge $-1 $127 $127 $128 $213 reversed $77 $-1 #
coedge $-1 $128 $128 $127 $213 forward $79 $-1 #
coedge $-1 $129 $129 $80 $130 forward $124 $-1 #
edge $-1 $214 0 $214 6.2831853071796004 $129 $215 forward 7 unknown #
loop $-1 $-1 $136 $81 #
plane-surface $-1 -64.402600177007358 26.27971501308004 2.0377123499461902 -0.68199836817093118 0 0.7313536940579346 0.7313536940579346 0 0.68199836817093118 forward_v I I I I #
loop $-1 $-1 $216 $52 #
coedge $-1 $134 $134 $135 $217 reversed $82 $-1 #
coedge $-1 $135 $135 $134 $217 forward $84 $-1 #
coedge $-1 $136 $136 $85 $137 forward $131 $-1 #
edge $-1 $218 0 $218 6.2831853071796004 $136 $219 forward 7 unknown #
face $-1 $220 $221 $29 $-1 $222 forward single #
loop $-1 $-1 $223 $86 #
plane-surface $-1 64.402600177007358 0 0 -1 0 0 0 0 1 forward_v I I I I #
coedge $-1 $224 $225 $226 $227 reversed $87 $-1 #
coedge $-1 $228 $89 $229 $230 reversed $56 $-1 #
coedge $-1 $89 $228 $224 $231 forward $56 $-1 #
coedge $-1 $226 $232 $89 $145 forward $221 $-1 #
edge $-1 $233 -16.820505042404903 $234 -8.2789551450127572 $144 $235 forward 7 unknown #
loop $-1 $-1 $151 $90 #
plane-surface $-1 -44.830404195098865 25.099460187417659 71.623645337435391 0.52991927123019833 0 0.84804809178421925 0.84804809178421925 0 -0.52991927123019833 forward_v I I I I #
loop $-1 $-1 $236 $58 #
coedge $-1 $149 $149 $150 $237 reversed $91 $-1 #
coedge $-1 $150 $150 $149 $237 forward $93 $-1 #
coedge $-1 $151 $151 $94 $152 forward $146 $-1 #
edge $-1 $238 0 $238 6.2831853071796004 $151 $239 forward 7 unknown #
loop $-1 $-1 $158 $95 #
plane-surface $-1 -44.830404195098865 25.099460187417659 71.623645337435391 0.52991927123019833 0 0.84804809178421925 0.84804809178421925 0 -0.52991927123019833 forward_v I I I I #
loop $-1 $-1 $240 $61 #
coedge $-1 $156 $156 $157 $241 reversed $96 $-1 #
coedge $-1 $157 $157 $156 $241 forward $98 $-1 #
coedge $-1 $158 $158 $99 $159 forward $153 $-1 #
edge $-1 $242 0 $242 6.2831853071796004 $158 $243 forward 7 unknown #
face $-1 $244 $245 $24 $-1 $246 reversed single #
loop $-1 $-1 $247 $100 #
plane-surface $-1 -64.402600177007358 0 0 1 0 0 0 0 -1 forward_v I I I I #
coedge $-1 $248 $171 $249 $250 forward $101 $-1 #
coedge $-1 $251 $103 $248 $252 forward $65 $-1 #
coedge $-1 $103 $251 $253 $254 forward $65 $-1 #
coedge $-1 $174 $173 $103 $167 reversed $175 $-1 #
edge $-1 $255 -29.370235136113731 $256 29.370235136113731 $166 $257 forward 7 unknown #
coedge $-1 $105 $104 $258 $259 forward $41 $-1 #
coedge $-1 $260 $261 $104 $170 reversed $245 $-1 #
edge $-1 $177 -64.402600177007358 $262 64.402600177007358 $169 $263 forward 7 unknown #
coedge $-1 $163 $264 $105 $172 reversed $101 $-1 #
edge $-1 $265 -64.402600177007358 $176 64.402600177007358 $171 $266 forward 7 unknown #
coedge $-1 $166 $106 $264 $267 forward $175 $-1 #
coedge $-1 $106 $166 $260 $268 reversed $175 $-1 #
loop $-1 $-1 $173 $244 #
vertex $-1 $107 $269 #
vertex $-1 $107 $270 #
straight-curve $-1 64.402600177007358 0 6.6097594512994746 0 1 0 I I #
face $-1 $271 $272 $25 $-1 $273 reversed single #
loop $-1 $-1 $274 $108 #
plane-surface $-1 -64.402600177007358 0 0 1 0 0 0 0 -1 forward_v I I I I #
coedge $-1 $275 $188 $193 $276 reversed $109 $-1 #
coedge $-1 $277 $111 $278 $279 reversed $69 $-1 #
coedge $-1 $111 $277 $275 $280 forward $69 $-1 #
coedge $-1 $193 $192 $111 $186 forward $194 $-1 #
edge $-1 $281 -16.075847911715456 $282 -10.512926537081093 $185 $283 forward 7 unknown #
coedge $-1 $113 $112 $274 $284 reversed $44 $-1 #
coedge $-1 $182 $285 $112 $189 reversed $109 $-1 #
edge $-1 $195 -64.402600177007358 $286 64.402600177007358 $188 $287 forward 7 unknown #
coedge $-1 $288 $289 $113 $191 forward $272 $-1 #
edge $-1 $196 -64.402600177007358 $290 64.402600177007358 $190 $291 forward 7 unknown #
coedge $-1 $185 $114 $289 $292 forward $194 $-1 #
coedge $-1 $114 $185 $182 $276 forward $194 $-1 #
loop $-1 $-1 $114 $271 #
vertex $-1 $115 $293 #
vertex $-1 $292 $294 #
straight-curve $-1 64.402600177007358 -13.294387224398275 5.6584443549204337 0 -1 0 I I #
face $-1 $-1 $295 $26 $-1 $296 reversed single #
loop $-1 $-1 $297 $116 #
plane-surface $-1 0 29.370235136113731 0 0 -1 0 0 0 -1 forward_v I I I I #
coedge $-1 $298 $119 $121 $207 forward $73 $-1 #
coedge $-1 $119 $298 $297 $299 reversed $73 $-1 #
coedge $-1 $300 $122 $119 $204 forward $117 $-1 #
edge $-1 $210 10.049337383506332 $301 16.230377629573709 $203 $302 forward 7 unknown #
coedge $-1 $303 $304 $120 $206 forward $295 $-1 #
edge $-1 $305 -46.082223371417427 $209 -41.510176270064143 $205 $306 forward 7 unknown #
edge $-1 $210 -6.7038974207741475 $305 0 $121 $307 forward 7 unknown #
coedge $-1 $122 $300 $303 $308 forward $117 $-1 #
vertex $-1 $206 $309 #
vertex $-1 $123 $310 #
straight-curve $-1 -76.123768315187618 23.189194890046352 6.6097594512994746 1 0 0 I I #
coedge $-1 $212 $212 $-1 $311 reversed $126 $-1 #
edge $-1 $312 0 $312 6.2831853071796004 $127 $313 forward 7 unknown #
vertex $-1 $130 $314 #
ellipse-curve $-1 -61.951140105373042 24.95520638892275 4.3237359006228324 -0.68199836817093118 0 0.7313536940579346 0.3656768470289673 0 0.34099918408546559 1 I I #
coedge $-1 $216 $216 $-1 $315 reversed $133 $-1 #
edge $-1 $316 0 $316 6.2831853071796004 $134 $317 forward 7 unknown #
vertex $-1 $137 $318 #
ellipse-curve $-1 -61.951140105373042 27.604223637237343 4.3237359006228324 -0.68199836817093118 0 0.7313536940579346 0.3656768470289673 0 0.34099918408546559 1 I I #
face $-1 $-1 $319 $29 $-1 $320 reversed single #
loop $-1 $-1 $226 $138 #
plane-surface $-1 0 0 6.6097594512994746 0 0 1 1 0 0 forward_v I I I I #
coedge $-1 $321 $322 $225 $323 forward $139 $-1 #
coedge $-1 $225 $141 $143 $231 reversed $87 $-1 #
coedge $-1 $141 $224 $223 $323 reversed $87 $-1 #
coedge $-1 $324 $144 $141 $227 forward $221 $-1 #
edge $-1 $234 47.500583491843976 $325 52.689623323427206 $226 $326 forward 7 unknown #
coedge $-1 $143 $142 $321 $327 reversed $56 $-1 #
coedge $-1 $328 $329 $142 $230 forward $319 $-1 #
edge $-1 $330 -90.818656018198325 $233 -84.699852283063507 $229 $331 forward 7 unknown #
edge $-1 $332 -128.80520035401472 $234 -122.68639661887991 $224 $333 forward 7 unknown #
coedge $-1 $144 $324 $328 $334 forward $221 $-1 #
vertex $-1 $230 $335 #
vertex $-1 $145 $336 #
straight-curve $-1 59.213560345424149 12.549730093708829 6.6097594512994746 0 -1 0 I I #
coedge $-1 $236 $236 $-1 $337 reversed $148 $-1 #
edge $-1 $338 0 $338 6.2831853071796004 $149 $339 forward 7 unknown #
vertex $-1 $152 $340 #
ellipse-curve $-1 61.808080261215743 23.269128066547911 4.9885234432378507 0.52991927123019833 0 0.84804809178421925 0.84804809178421925 0 -0.52991927123019833 1 I I #
coedge $-1 $240 $240 $-1 $341 reversed $155 $-1 #
edge $-1 $342 0 $342 6.2831853071796004 $156 $343 forward 7 unknown #
vertex $-1 $159 $344 #
ellipse-curve $-1 61.808080261215743 26.9297923082874 4.9885234432378507 0.52991927123019833 0 0.84804809178421925 0.84804809178421925 0 -0.52991927123019833 1 I I #
face $-1 $-1 $175 $24 $-1 $345 reversed single #
loop $-1 $-1 $260 $160 #
plane-surface $-1 0 29.370235136113731 0 0 -1 0 0 0 -1 forward_v I I I I #
coedge $-1 $346 $258 $261 $347 forward $161 $-1 #
coedge $-1 $264 $163 $164 $252 reversed $101 $-1 #
coedge $-1 $258 $346 $163 $250 reversed $161 $-1 #
edge $-1 $265 -6.6097594512994746 $348 6.6097594512994746 $249 $349 forward 7 unknown #
coedge $-1 $165 $164 $346 $350 forward $65 $-1 #
edge $-1 $256 -64.402600177007358 $348 64.402600177007358 $248 $351 forward 7 unknown #
coedge $-1 $261 $260 $165 $254 reversed $245 $-1 #
edge $-1 $352 -64.402600177007358 $255 64.402600177007358 $253 $353 forward 7 unknown #
vertex $-1 $167 $354 #
vertex $-1 $267 $355 #
straight-curve $-1 64.402600177007358 0 -6.6097594512994746 0 -1 0 I I #
coedge $-1 $247 $249 $168 $259 reversed $161 $-1 #
edge $-1 $262 -29.370235136113731 $265 29.370235136113731 $258 $356 forward 7 unknown #
coedge $-1 $253 $169 $174 $268 forward $245 $-1 #
coedge $-1 $169 $253 $247 $347 reversed $245 $-1 #
vertex $-1 $170 $357 #
straight-curve $-1 0 29.370235136113731 6.6097594512994746 -1 0 0 I I #
coedge $-1 $171 $248 $173 $267 reversed $101 $-1 #
vertex $-1 $259 $358 #
straight-curve $-1 0 -29.370235136113731 6.6097594512994746 1 0 0 I I #
edge $-1 $176 -6.6097594512994746 $256 6.6097594512994746 $173 $359 forward 7 unknown #
edge $-1 $177 -6.6097594512994746 $255 6.6097594512994746 $174 $360 forward 7 unknown #
point $-1 64.402600177007358 -29.370235136113731 6.6097594512994746 #
point $-1 64.402600177007358 29.370235136113731 6.6097594512994746 #
face $-1 $-1 $194 $25 $-1 $361 reversed single #
loop $-1 $-1 $190 $179 #
plane-surface $-1 0 -29.370235136113731 0 0 1 0 0 0 1 forward_v I I I I #
coedge $-1 $362 $363 $187 $284 forward $180 $-1 #
coedge $-1 $285 $182 $184 $280 reversed $109 $-1 #
edge $-1 $282 0.37908054913457701 $195 3.6459360535687635 $193 $364 forward 7 unknown #
coedge $-1 $184 $183 $365 $366 reversed $69 $-1 #
coedge $-1 $289 $288 $183 $279 forward $272 $-1 #
edge $-1 $367 -64.402600177007358 $281 64.402600177007358 $278 $368 forward 7 unknown #
edge $-1 $369 -64.402600177007358 $282 64.402600177007358 $275 $370 forward 7 unknown #
vertex $-1 $279 $371 #
vertex $-1 $186 $372 #
straight-curve $-1 64.402600177007358 -13.294387224398275 2.3915888504862473 0 1 0 I I #
edge $-1 $290 -16.075847911715456 $286 -10.512926537081093 $274 $373 forward 7 unknown #
coedge $-1 $188 $275 $362 $374 reversed $109 $-1 #
vertex $-1 $284 $375 #
straight-curve $-1 0 -23.807313761479367 5.6584443549204337 -1 0 0 I I #
coedge $-1 $278 $190 $363 $376 forward $272 $-1 #
coedge $-1 $190 $278 $192 $292 reversed $272 $-1 #
vertex $-1 $376 $377 #
straight-curve $-1 0 -29.370235136113731 5.6584443549204337 -1 0 0 I I #
edge $-1 $196 -5.6584443549204337 $281 -2.3915888504862473 $192 $378 forward 7 unknown #
point $-1 64.402600177007358 -23.807313761479367 5.6584443549204337 #
point $-1 64.402600177007358 -29.370235136113731 5.6584443549204337 #
loop $-1 $-1 $205 $198 #
plane-surface $-1 -64.402600177007358 0 0 1 0 0 0 0 -1 forward_v I I I I #
coedge $-1 $379 $380 $202 $299 forward $199 $-1 #
coedge $-1 $202 $201 $304 $381 reversed $73 $-1 #
edge $-1 $301 16.151784103688591 $382 22.855681524462739 $297 $383 forward 7 unknown #
coedge $-1 $208 $203 $380 $384 forward $117 $-1 #
vertex $-1 $384 $385 #
straight-curve $-1 -59.49968003373872 13.13985750654002 6.6097594512994728 0 1 0 I I #
coedge $-1 $386 $205 $208 $308 reversed $295 $-1 #
coedge $-1 $205 $386 $298 $381 forward $295 $-1 #
vertex $-1 $206 $387 #
straight-curve $-1 -64.402600177007358 23.189194890046352 48.119935721363618 0 0 1 I I #
straight-curve $-1 -64.402600177007358 23.189194890046352 2.0377123499461902 -0.7313536940579346 0 -0.68199836817093118 I I #
edge $-1 $388 -29.370235136113731 $209 -23.189194890046352 $303 $389 forward 7 unknown #
point $-1 -64.402600177007358 23.189194890046352 6.6097594512994746 #
point $-1 -59.499680033738727 23.189194890046352 6.6097594512994746 #
edge $-1 $390 1 $390 0 $212 $-1 forward 7 unknown #
vertex $-1 $213 $391 #
ellipse-curve $-1 -61.269141737202098 24.95520638892275 3.5923822065648898 -0.68199836817093118 0 0.7313536940579346 0.3656768470289673 0 0.34099918408546559 1 I I #
point $-1 -61.585463258344063 24.95520638892275 4.6647350847082905 #
edge $-1 $392 1 $392 0 $216 $-1 forward 7 unknown #
vertex $-1 $217 $393 #
ellipse-curve $-1 -61.269141737202098 27.604223637237343 3.5923822065648898 -0.68199836817093118 0 0.7313536940579346 0.3656768470289673 0 0.34099918408546559 1 I I #
point $-1 -61.585463258344063 27.604223637237343 4.6647350847082905 #
loop $-1 $-1 $229 $220 #
plane-surface $-1 0 29.370235136113731 0 0 -1 0 0 0 -1 forward_v I I I I #
coedge $-1 $394 $223 $228 $327 forward $139 $-1 #
coedge $-1 $223 $394 $324 $395 reversed $139 $-1 #
edge $-1 $325 83.818565403471325 $332 87.061037419594584 $223 $396 forward 7 unknown #
coedge $-1 $232 $226 $322 $395 forward $221 $-1 #
vertex $-1 $395 $397 #
straight-curve $-1 11.712976853580152 20.828685238721587 6.6097594512994675 1 0 0 I I #
edge $-1 $332 8.2789551450127572 $330 16.820505042404903 $321 $398 forward 7 unknown #
coedge $-1 $329 $229 $232 $334 reversed $319 $-1 #
coedge $-1 $229 $328 $394 $399 forward $319 $-1 #
vertex $-1 $230 $400 #
straight-curve $-1 -12.615987757633123 29.370235136113731 51.49384344644595 -0.84804809178421925 0 0.52991927123019833 I I #
vertex $-1 $327 $401 #
straight-curve $-1 -44.830404195098865 20.828685238721587 71.623645337435391 -0.84804809178421925 0 0.52991927123019833 I I #
edge $-1 $402 -64.402600177007358 $233 -59.213560345424128 $328 $403 forward 7 unknown #
point $-1 59.213560345424128 29.370235136113731 6.6097594512994817 #
point $-1 59.213560345424128 20.828685238721587 6.6097594512994817 #
edge $-1 $404 1 $404 0 $236 $-1 forward 7 unknown #
vertex $-1 $237 $405 #
ellipse-curve $-1 61.109515762763394 23.269128066547911 3.8705865761270735 0.52991927123019833 0 0.84804809178421925 0.84804809178421925 0 -0.52991927123019833 1 I I #
point $-1 62.656128352999971 23.269128066547911 4.4586041720076679 #
edge $-1 $406 1 $406 0 $240 $-1 forward 7 unknown #
vertex $-1 $241 $407 #
ellipse-curve $-1 61.109515762763394 26.9297923082874 3.8705865761270735 0.52991927123019833 0 0.84804809178421925 0.84804809178421925 0 -0.52991927123019833 1 I I #
point $-1 62.656128352999971 26.9297923082874 4.4586041720076679 #
plane-surface $-1 64.402600177007358 0 0 -1 0 0 0 0 1 forward_v I I I I #
coedge $-1 $249 $247 $251 $350 reversed $161 $-1 #
edge $-1 $262 -6.6097594512994746 $352 6.6097594512994746 $261 $408 forward 7 unknown #
vertex $-1 $350 $409 #
straight-curve $-1 -64.402600177007358 -29.370235136113731 0 0 0 -1 I I #
edge $-1 $348 -29.370235136113731 $352 29.370235136113731 $346 $410 forward 7 unknown #
straight-curve $-1 0 -29.370235136113731 -6.6097594512994746 -1 0 0 I I #
vertex $-1 $254 $411 #
straight-curve $-1 0 29.370235136113731 -6.6097594512994746 1 0 0 I I #
point $-1 64.402600177007358 29.370235136113731 -6.6097594512994746 #
point $-1 64.402600177007358 -29.370235136113731 -6.6097594512994746 #
straight-curve $-1 -64.402600177007358 0 6.6097594512994746 0 -1 0 I I #
point $-1 -64.402600177007358 29.370235136113731 6.6097594512994746 #
point $-1 -64.402600177007358 -29.370235136113731 6.6097594512994746 #
straight-curve $-1 64.402600177007358 -29.370235136113731 0 0 0 -1 I I #
straight-curve $-1 64.402600177007358 29.370235136113731 0 0 0 -1 I I #
plane-surface $-1 64.402600177007358 0 0 -1 0 0 0 0 1 forward_v I I I I #
coedge $-1 $365 $274 $285 $374 forward $180 $-1 #
coedge $-1 $274 $365 $288 $376 reversed $180 $-1 #
straight-curve $-1 64.402600177007358 -23.807313761479367 2.0125083013516702 0 0 1 I I #
coedge $-1 $363 $362 $277 $366 forward $180 $-1 #
edge $-1 $369 10.512926537081093 $367 16.075847911715456 $365 $412 forward 7 unknown #
vertex $-1 $279 $413 #
straight-curve $-1 0 -29.370235136113731 2.3915888504862473 1 0 0 I I #
vertex $-1 $366 $414 #
straight-curve $-1 0 -23.807313761479367 2.3915888504862473 1 0 0 I I #
point $-1 64.402600177007358 -29.370235136113731 2.3915888504862473 #
point $-1 64.402600177007358 -23.807313761479367 2.3915888504862473 #
straight-curve $-1 -64.402600177007358 -13.294387224398275 5.6584443549204337 0 1 0 I I #
edge $-1 $286 -3.6459360535687635 $369 -0.37908054913457701 $362 $415 forward 7 unknown #
point $-1 -64.402600177007358 -23.807313761479367 5.6584443549204337 #
edge $-1 $290 -5.6584443549204337 $367 -2.3915888504862473 $363 $416 forward 7 unknown #
point $-1 -64.402600177007358 -29.370235136113731 5.6584443549204337 #
straight-curve $-1 64.402600177007358 -29.370235136113731 0 0 0 -1 I I #
coedge $-1 $380 $297 $386 $417 reversed $199 $-1 #
coedge $-1 $297 $379 $300 $384 reversed $199 $-1 #
edge $-1 $382 -16.230377629573709 $305 -10.049337383506332 $304 $418 forward 7 unknown #
vertex $-1 $299 $419 #
straight-curve $-1 -47.687013063879846 29.370235136113731 17.625249853064275 -0.7313536940579346 0 -0.68199836817093118 I I #
edge $-1 $301 59.499680033738727 $388 64.402600177007358 $380 $420 forward 7 unknown #
point $-1 -59.499680033738727 29.370235136113727 6.6097594512994746 #
coedge $-1 $304 $303 $379 $417 forward $295 $-1 #
point $-1 -64.402600177007358 23.189194890046352 2.0377123499461902 #
vertex $-1 $384 $421 #
straight-curve $-1 -64.402600177007358 0 6.6097594512994746 0 -1 0 I I #
vertex $-1 $311 $422 #
point $-1 -60.903464890173133 24.95520638892275 3.9333813906503554 #
vertex $-1 $315 $423 #
point $-1 -60.903464890173133 27.604223637237343 3.9333813906503554 #
coedge $-1 $322 $321 $329 $399 reversed $139 $-1 #
edge $-1 $325 20.828685238721587 $402 29.370235136113731 $322 $424 forward 7 unknown #
straight-curve $-1 64.402600177007358 20.828685238721587 90.428324854770807 0 0 -1 I I #
point $-1 64.402600177007358 20.828685238721587 6.6097594512994746 #
straight-curve $-1 64.402600177007372 12.549730093708829 3.3672874351762232 0 1 0 I I #
edge $-1 $402 -6.6097594512994746 $330 -3.3672874351762232 $394 $425 forward 7 unknown #
point $-1 64.402600177007358 29.370235136113731 3.3672874351762232 #
point $-1 64.402600177007358 20.828685238721587 3.3672874351762232 #
vertex $-1 $395 $426 #
straight-curve $-1 0 29.370235136113731 6.6097594512994746 -1 0 0 I I #
vertex $-1 $337 $427 #
point $-1 61.957563854547615 23.269128066547911 3.3406673048968747 #
vertex $-1 $341 $428 #
point $-1 61.957563854547615 26.9297923082874 3.3406673048968747 #
straight-curve $-1 -64.402600177007358 29.370235136113731 0 0 0 -1 I I #
point $-1 -64.402600177007358 -29.370235136113731 -6.6097594512994746 #
straight-curve $-1 -64.402600177007358 0 -6.6097594512994746 0 1 0 I I #
point $-1 -64.402600177007358 29.370235136113731 -6.6097594512994746 #
straight-curve $-1 -64.402600177007358 -13.294387224398275 2.3915888504862473 0 -1 0 I I #
point $-1 -64.402600177007358 -29.370235136113731 2.3915888504862473 #
point $-1 -64.402600177007358 -23.807313761479367 2.3915888504862473 #
straight-curve $-1 -64.402600177007358 -23.807313761479367 2.0125083013516702 0 0 -1 I I #
straight-curve $-1 -64.402600177007358 -29.370235136113731 0 0 0 -1 I I #
edge $-1 $388 -6.6097594512994746 $382 -2.0377123499461902 $379 $429 forward 7 unknown #
straight-curve $-1 -64.402600177007358 13.13985750654002 2.0377123499461862 0 -1 0 I I #
point $-1 -64.402600177007358 29.370235136113727 2.0377123499461902 #
straight-curve $-1 0 29.370235136113731 6.6097594512994746 -1 0 0 I I #
point $-1 -64.402600177007358 29.370235136113731 6.6097594512994746 #
point $-1 -60.928142553116636 24.95520638892275 3.2267053595359223 #
point $-1 -60.928142553116636 27.604223637237343 3.2267053595359223 #
straight-curve $-1 64.402600177007358 0 6.6097594512994746 0 1 0 I I #
straight-curve $-1 64.402600177007358 29.370235136113731 0 0 0 -1 I I #
point $-1 64.402600177007358 29.370235136113731 6.6097594512994746 #
point $-1 60.579596491533195 23.269128066547911 3.0225384843428538 #
point $-1 60.579596491533195 26.9297923082874 3.0225384843428538 #
straight-curve $-1 -64.402600177007358 29.370235136113731 0 0 0 -1 I I #
End-of-ACIS-data 