500 0 8 0           
7 Unknown 11 ACIS 5.0 NT 24 Thu Mar 25 20:56:48 1999 
-1 9.9999999999999995e-007 1e-010 
body $-1 $8 $-1 $9 #
body $-1 $10 $-1 $11 #
body $-1 $12 $-1 $13 #
body $-1 $14 $-1 $15 #
body $-1 $16 $-1 $17 #
body $-1 $18 $-1 $19 #
body $-1 $20 $-1 $21 #
body $-1 $22 $-1 $23 #
lump $-1 $-1 $24 $0 #
transform $-1 1 0 0 0 1 0 0 0 1 49.38749351481674 29.550351927348931 11.299963672282544 1 rotate no_reflect no_shear #
lump $-1 $-1 $25 $1 #
transform $-1 1 0 0 0 1 0 0 0 1 49.38749351481674 29.550351927348931 11.299963672282544 1 rotate no_reflect no_shear #
lump $-1 $-1 $26 $2 #
transform $-1 1 0 0 0 1 0 0 0 1 49.38749351481674 29.550351927348931 11.299963672282544 1 rotate no_reflect no_shear #
lump $-1 $-1 $27 $3 #
transform $-1 1 0 0 0 1 0 0 0 1 49.38749351481674 29.550351927348931 11.299963672282544 1 rotate no_reflect no_shear #
lump $-1 $-1 $28 $4 #
transform $-1 1 0 0 0 1 0 0 0 1 49.38749351481674 29.550351927348931 11.299963672282544 1 rotate no_reflect no_shear #
lump $-1 $-1 $29 $5 #
transform $-1 1 0 0 0 1 0 0 0 1 49.38749351481674 29.550351927348931 11.299963672282544 1 rotate no_reflect no_shear #
lump $-1 $-1 $30 $6 #
transform $-1 1 0 0 0 1 0 0 0 1 49.38749351481674 29.550351927348931 11.299963672282544 1 rotate no_reflect no_shear #
lump $-1 $-1 $31 $7 #
transform $-1 1 0 0 0 1 0 0 0 1 49.38749351481674 29.550351927348931 11.299963672282544 1 rotate no_reflect no_shear #
shell $-1 $-1 $-1 $32 $-1 $8 #
shell $-1 $-1 $-1 $33 $-1 $10 #
shell $-1 $-1 $-1 $34 $-1 $12 #
shell $-1 $-1 $-1 $35 $-1 $14 #
shell $-1 $-1 $-1 $36 $-1 $16 #
shell $-1 $-1 $-1 $37 $-1 $18 #
shell $-1 $-1 $-1 $38 $-1 $20 #
shell $-1 $-1 $-1 $39 $-1 $22 #
face $-1 $40 $41 $24 $-1 $42 forward single #
face $-1 $43 $44 $25 $-1 $45 forward single #
face $-1 $46 $47 $26 $-1 $48 reversed single #
face $-1 $49 $50 $27 $-1 $51 forward single #
face $-1 $52 $53 $28 $-1 $54 forward single #
face $-1 $55 $56 $29 $-1 $57 reversed single #
face $-1 $58 $59 $30 $-1 $60 forward single #
face $-1 $61 $62 $31 $-1 $63 forward single #
face $-1 $64 $65 $24 $-1 $66 reversed single #
loop $-1 $-1 $67 $32 #
plane-surface $-1 0 0 11.299963672282544 0 0 1 1 0 0 forward_v I I I I #
face $-1 $68 $69 $25 $-1 $70 reversed single #
loop $-1 $-1 $71 $33 #
plane-surface $-1 -44.928572060535856 0 -6.9413027984161815 0 0 1 1 0 0 forward_v I I I I #
face $-1 $72 $73 $26 $-1 $74 reversed single #
loop $-1 $-1 $75 $34 #
plane-surface $-1 71.239657890509008 -8.5922900883527227 144.27002367786514 0 -1 0 -0.80901700255871778 0 -0.5877852410284794 forward_v I I I I #
face $-1 $76 $77 $27 $-1 $78 forward single #
loop $-1 $79 $80 $35 #
cone-surface $-1 46.023884001059038 -18.23678824299386 7.676039500288379 -0.80901700255871778 0 -0.5877852410284794 0.5877852410284794 0 -0.80901700255871778 1 I I 0 1 1 forward I I I I #
face $-1 $81 $82 $28 $-1 $83 forward single #
loop $-1 $84 $85 $36 #
cone-surface $-1 46.023884001059038 -12.450089350209179 7.676039500288379 -0.80901700255871778 0 -0.5877852410284794 0.5877852410284794 0 -0.80901700255871778 1 I I 0 1 1 forward I I I I #
face $-1 $86 $87 $29 $-1 $88 reversed single #
loop $-1 $-1 $89 $37 #
plane-surface $-1 71.239657890509008 20.958061838996208 144.27002367786514 0 -1 0 -0.80901700255871778 0 -0.5877852410284794 forward_v I I I I #
face $-1 $90 $91 $30 $-1 $92 forward single #
loop $-1 $93 $94 $38 #
cone-surface $-1 46.023884001059038 11.313563684355071 7.676039500288379 -0.80901700255871778 0 -0.5877852410284794 0.5877852410284794 0 -0.80901700255871778 1 I I 0 1 1 forward I I I I #
face $-1 $95 $96 $31 $-1 $97 forward single #
loop $-1 $98 $99 $39 #
cone-surface $-1 46.023884001059038 17.100262577139755 7.676039500288379 -0.80901700255871778 0 -0.5877852410284794 0.5877852410284794 0 -0.80901700255871778 1 I I 0 1 1 forward I I I I #
face $-1 $100 $101 $24 $-1 $102 reversed single #
loop $-1 $-1 $103 $40 #
plane-surface $-1 0 0 -11.299963672282544 0 0 1 1 0 0 forward_v I I I I #
coedge $-1 $104 $105 $106 $107 forward $41 $-1 #
face $-1 $108 $109 $25 $-1 $110 reversed single #
loop $-1 $-1 $111 $43 #
plane-surface $-1 -40.469650606254973 0 -9.1206332353493629 -1 0 0 0 0 1 forward_v I I I I #
coedge $-1 $112 $113 $114 $115 forward $44 $-1 #
face $-1 $116 $117 $26 $-1 $118 reversed single #
loop $-1 $-1 $119 $46 #
plane-surface $-1 -8.6709860439813013 -15.343438796601518 86.211544119067099 0.80901700255871778 0 0.5877852410284794 0.5877852410284794 0 -0.80901700255871778 forward_v I I I I #
coedge $-1 $120 $121 $122 $123 reversed $47 $-1 #
face $-1 $-1 $124 $27 $-1 $125 forward single #
loop $-1 $126 $127 $49 #
cone-surface $-1 44.071782044859091 -18.23678824299386 6.2577544516328345 -0.80901700255871778 0 -0.5877852410284794 0.2938926205142397 0 -0.40450850127935889 1 I I -0.70710678118654746 0.70710678118654746 0.5 forward I I I I #
loop $-1 $-1 $128 $35 #
coedge $-1 $80 $80 $129 $130 reversed $50 $-1 #
face $-1 $-1 $131 $28 $-1 $132 forward single #
loop $-1 $133 $134 $52 #
cone-surface $-1 44.071782044859091 -12.450089350209179 6.2577544516328345 -0.80901700255871778 0 -0.5877852410284794 0.2938926205142397 0 -0.40450850127935889 1 I I -0.70710678118654746 0.70710678118654746 0.5 forward I I I I #
loop $-1 $-1 $135 $36 #
coedge $-1 $85 $85 $136 $137 reversed $53 $-1 #
face $-1 $138 $139 $29 $-1 $140 reversed single #
loop $-1 $-1 $141 $55 #
plane-surface $-1 -8.6709860439813013 14.206913130747413 86.211544119067099 0.80901700255871778 0 0.5877852410284794 0.5877852410284794 0 -0.80901700255871778 forward_v I I I I #
coedge $-1 $142 $143 $144 $145 reversed $56 $-1 #
face $-1 $-1 $146 $30 $-1 $147 forward single #
loop $-1 $148 $149 $58 #
cone-surface $-1 44.071782044859091 11.313563684355071 6.2577544516328345 -0.80901700255871778 0 -0.5877852410284794 0.2938926205142397 0 -0.40450850127935889 1 I I -0.70710678118654746 0.70710678118654746 0.5 forward I I I I #
loop $-1 $-1 $150 $38 #
coedge $-1 $94 $94 $151 $152 reversed $59 $-1 #
face $-1 $-1 $153 $31 $-1 $154 forward single #
loop $-1 $155 $156 $61 #
cone-surface $-1 44.071782044859091 17.100262577139755 6.2577544516328345 -0.80901700255871778 0 -0.5877852410284794 0.2938926205142397 0 -0.40450850127935889 1 I I -0.70710678118654746 0.70710678118654746 0.5 forward I I I I #
loop $-1 $-1 $157 $39 #
coedge $-1 $99 $99 $158 $159 reversed $62 $-1 #
face $-1 $160 $161 $24 $-1 $162 reversed single #
loop $-1 $-1 $163 $64 #
plane-surface $-1 0 -29.550351927348931 0 0 1 0 0 0 1 forward_v I I I I #
coedge $-1 $164 $165 $166 $167 forward $65 $-1 #
coedge $-1 $168 $67 $169 $170 forward $41 $-1 #
coedge $-1 $67 $168 $171 $172 forward $41 $-1 #
coedge $-1 $173 $174 $67 $107 reversed $175 $-1 #
edge $-1 $176 -29.550351927348931 $177 29.550351927348931 $106 $178 forward 7 unknown #
face $-1 $179 $180 $25 $-1 $181 reversed single #
loop $-1 $-1 $182 $68 #
plane-surface $-1 0 0 -11.299963672282544 0 0 1 1 0 0 forward_v I I I I #
coedge $-1 $183 $114 $184 $185 reversed $69 $-1 #
coedge $-1 $186 $71 $187 $188 reversed $44 $-1 #
coedge $-1 $71 $186 $189 $190 reversed $44 $-1 #
coedge $-1 $111 $191 $71 $115 reversed $69 $-1 #
edge $-1 $192 -29.550351927348931 $193 29.550351927348931 $114 $194 forward 7 unknown #
face $-1 $195 $196 $26 $-1 $197 forward single #
loop $-1 $-1 $198 $72 #
plane-surface $-1 71.239657890509008 -22.094587504850313 144.27002367786514 0 1 0 0.80901700255871778 0 0.5877852410284794 forward_v I I I I #
coedge $-1 $199 $200 $201 $202 reversed $73 $-1 #
coedge $-1 $121 $75 $203 $204 reversed $47 $-1 #
coedge $-1 $75 $120 $199 $205 reversed $47 $-1 #
coedge $-1 $201 $206 $75 $123 forward $196 $-1 #
edge $-1 $207 -13.767664569562235 $208 -10.135632451888007 $122 $209 forward 7 unknown #
loop $-1 $-1 $129 $76 #
plane-surface $-1 -8.6709860439813013 -15.343438796601518 86.211544119067099 0.80901700255871778 0 0.5877852410284794 0.5877852410284794 0 -0.80901700255871778 forward_v I I I I #
loop $-1 $-1 $210 $49 #
coedge $-1 $127 $127 $128 $211 reversed $77 $-1 #
coedge $-1 $128 $128 $127 $211 forward $79 $-1 #
coedge $-1 $129 $129 $80 $130 forward $124 $-1 #
edge $-1 $212 0 $212 6.2831853071796004 $129 $213 forward 7 unknown #
loop $-1 $-1 $136 $81 #
plane-surface $-1 -8.6709860439813013 -15.343438796601518 86.211544119067099 0.80901700255871778 0 0.5877852410284794 0.5877852410284794 0 -0.80901700255871778 forward_v I I I I #
loop $-1 $-1 $214 $52 #
coedge $-1 $134 $134 $135 $215 reversed $82 $-1 #
coedge $-1 $135 $135 $134 $215 forward $84 $-1 #
coedge $-1 $136 $136 $85 $137 forward $131 $-1 #
edge $-1 $216 0 $216 6.2831853071796004 $136 $217 forward 7 unknown #
face $-1 $218 $219 $29 $-1 $220 reversed single #
loop $-1 $-1 $221 $86 #
plane-surface $-1 71.239657890509008 7.4557644224986177 144.27002367786514 0 1 0 0.80901700255871778 0 0.5877852410284794 forward_v I I I I #
coedge $-1 $222 $223 $224 $225 reversed $87 $-1 #
coedge $-1 $143 $89 $226 $227 reversed $56 $-1 #
coedge $-1 $89 $142 $222 $228 reversed $56 $-1 #
coedge $-1 $224 $229 $89 $145 forward $230 $-1 #
edge $-1 $231 -13.767664569562235 $232 -10.135632451888007 $144 $233 forward 7 unknown #
loop $-1 $-1 $151 $90 #
plane-surface $-1 -8.6709860439813013 14.206913130747413 86.211544119067099 0.80901700255871778 0 0.5877852410284794 0.5877852410284794 0 -0.80901700255871778 forward_v I I I I #
loop $-1 $-1 $234 $58 #
coedge $-1 $149 $149 $150 $235 reversed $91 $-1 #
coedge $-1 $150 $150 $149 $235 forward $93 $-1 #
coedge $-1 $151 $151 $94 $152 forward $146 $-1 #
edge $-1 $236 0 $236 6.2831853071796004 $151 $237 forward 7 unknown #
loop $-1 $-1 $158 $95 #
plane-surface $-1 -8.6709860439813013 14.206913130747413 86.211544119067099 0.80901700255871778 0 0.5877852410284794 0.5877852410284794 0 -0.80901700255871778 forward_v I I I I #
loop $-1 $-1 $238 $61 #
coedge $-1 $156 $156 $157 $239 reversed $96 $-1 #
coedge $-1 $157 $157 $156 $239 forward $98 $-1 #
coedge $-1 $158 $158 $99 $159 forward $153 $-1 #
edge $-1 $240 0 $240 6.2831853071796004 $158 $241 forward 7 unknown #
face $-1 $242 $243 $24 $-1 $244 reversed single #
loop $-1 $-1 $245 $100 #
plane-surface $-1 -49.38749351481674 0 0 1 0 0 0 0 -1 forward_v I I I I #
coedge $-1 $246 $171 $247 $248 forward $101 $-1 #
coedge $-1 $249 $103 $246 $250 forward $65 $-1 #
coedge $-1 $103 $249 $251 $252 forward $65 $-1 #
coedge $-1 $174 $173 $103 $167 reversed $175 $-1 #
edge $-1 $253 -29.550351927348931 $254 29.550351927348931 $166 $255 forward 7 unknown #
coedge $-1 $105 $104 $256 $257 forward $41 $-1 #
coedge $-1 $258 $259 $104 $170 reversed $243 $-1 #
edge $-1 $177 -49.38749351481674 $260 49.38749351481674 $169 $261 forward 7 unknown #
coedge $-1 $163 $262 $105 $172 reversed $101 $-1 #
edge $-1 $263 -49.38749351481674 $176 49.38749351481674 $171 $264 forward 7 unknown #
coedge $-1 $166 $106 $262 $265 forward $175 $-1 #
coedge $-1 $106 $166 $258 $266 reversed $175 $-1 #
loop $-1 $-1 $173 $242 #
vertex $-1 $107 $267 #
vertex $-1 $107 $268 #
straight-curve $-1 49.38749351481674 0 11.299963672282544 0 1 0 I I #
face $-1 $269 $270 $25 $-1 $271 reversed single #
loop $-1 $-1 $184 $108 #
plane-surface $-1 0 -29.550351927348931 0 0 1 0 0 0 1 forward_v I I I I #
coedge $-1 $272 $273 $183 $274 forward $109 $-1 #
coedge $-1 $191 $111 $182 $274 reversed $69 $-1 #
coedge $-1 $189 $275 $111 $185 forward $180 $-1 #
edge $-1 $276 -6.7396470546078628 $192 -2.3809861807415 $184 $277 forward 7 unknown #
coedge $-1 $113 $112 $278 $279 reversed $44 $-1 #
coedge $-1 $280 $281 $112 $188 forward $282 $-1 #
edge $-1 $283 -26.923207484548811 $193 -18.005364575987045 $187 $284 forward 7 unknown #
coedge $-1 $285 $184 $113 $190 forward $180 $-1 #
edge $-1 $192 18.005364575987045 $286 26.923207484548811 $189 $287 forward 7 unknown #
coedge $-1 $114 $183 $280 $288 reversed $69 $-1 #
vertex $-1 $190 $289 #
vertex $-1 $188 $290 #
straight-curve $-1 -40.469650606254973 0 -6.9413027984161815 0 1 0 I I #
face $-1 $-1 $291 $26 $-1 $292 reversed single #
loop $-1 $-1 $122 $116 #
plane-surface $-1 0 0 11.299963672282544 0 0 1 1 0 0 forward_v I I I I #
coedge $-1 $293 $294 $295 $296 reversed $117 $-1 #
coedge $-1 $297 $119 $121 $205 forward $73 $-1 #
coedge $-1 $119 $297 $293 $298 forward $73 $-1 #
coedge $-1 $295 $122 $119 $202 forward $196 $-1 #
edge $-1 $208 0.92057069005196368 $299 14.422868106549554 $201 $300 forward 7 unknown #
coedge $-1 $301 $302 $120 $204 forward $291 $-1 #
edge $-1 $303 -65.83411165435578 $207 -60.835048166650026 $203 $304 forward 7 unknown #
edge $-1 $208 92.595804797498715 $303 98.774987029633479 $121 $305 forward 7 unknown #
coedge $-1 $122 $295 $301 $306 forward $196 $-1 #
vertex $-1 $204 $307 #
vertex $-1 $123 $308 #
straight-curve $-1 35.619828945254504 -8.5922900883527227 11.299963672282544 -1 0 0 I I #
coedge $-1 $210 $210 $-1 $309 reversed $126 $-1 #
edge $-1 $310 0 $310 6.2831853071796004 $127 $311 forward 7 unknown #
vertex $-1 $130 $312 #
ellipse-curve $-1 47.571477455979625 -18.23678824299386 8.8004319284296812 0.80901700255871778 0 0.5877852410284794 0.5877852410284794 0 -0.80901700255871778 1 I I #
coedge $-1 $214 $214 $-1 $313 reversed $133 $-1 #
edge $-1 $314 0 $314 6.2831853071796004 $134 $315 forward 7 unknown #
vertex $-1 $137 $316 #
ellipse-curve $-1 47.571477455979625 -12.450089350209179 8.8004319284296812 0.80901700255871778 0 0.5877852410284794 0.5877852410284794 0 -0.80901700255871778 1 I I #
face $-1 $-1 $230 $29 $-1 $317 forward single #
loop $-1 $-1 $318 $138 #
plane-surface $-1 49.38749351481674 0 0 -1 0 0 0 0 1 forward_v I I I I #
coedge $-1 $319 $320 $321 $322 reversed $139 $-1 #
coedge $-1 $323 $141 $143 $228 forward $87 $-1 #
coedge $-1 $141 $323 $319 $324 forward $87 $-1 #
coedge $-1 $321 $144 $141 $225 forward $230 $-1 #
edge $-1 $232 -13.854605273622502 $325 -0.35230785712491119 $224 $326 forward 7 unknown #
coedge $-1 $327 $328 $142 $227 forward $219 $-1 #
edge $-1 $329 -65.83411165435578 $231 -60.835048166650026 $226 $330 forward 7 unknown #
edge $-1 $232 92.595804797498715 $329 98.774987029633479 $143 $331 forward 7 unknown #
coedge $-1 $144 $321 $327 $332 forward $230 $-1 #
loop $-1 $-1 $321 $218 #
vertex $-1 $227 $333 #
vertex $-1 $145 $334 #
straight-curve $-1 35.619828945254504 20.958061838996208 11.299963672282544 -1 0 0 I I #
coedge $-1 $234 $234 $-1 $335 reversed $148 $-1 #
edge $-1 $336 0 $336 6.2831853071796004 $149 $337 forward 7 unknown #
vertex $-1 $152 $338 #
ellipse-curve $-1 47.571477455979625 11.313563684355071 8.8004319284296812 0.80901700255871778 0 0.5877852410284794 0.5877852410284794 0 -0.80901700255871778 1 I I #
coedge $-1 $238 $238 $-1 $339 reversed $155 $-1 #
edge $-1 $340 0 $340 6.2831853071796004 $156 $341 forward 7 unknown #
vertex $-1 $159 $342 #
ellipse-curve $-1 47.571477455979625 17.100262577139755 8.8004319284296812 0.80901700255871778 0 0.5877852410284794 0.5877852410284794 0 -0.80901700255871778 1 I I #
face $-1 $-1 $175 $24 $-1 $343 reversed single #
loop $-1 $-1 $258 $160 #
plane-surface $-1 0 29.550351927348931 0 0 -1 0 0 0 -1 forward_v I I I I #
coedge $-1 $344 $256 $259 $345 forward $161 $-1 #
coedge $-1 $262 $163 $164 $250 reversed $101 $-1 #
coedge $-1 $256 $344 $163 $248 reversed $161 $-1 #
edge $-1 $263 -11.299963672282544 $346 11.299963672282544 $247 $347 forward 7 unknown #
coedge $-1 $165 $164 $344 $348 forward $65 $-1 #
edge $-1 $254 -49.38749351481674 $346 49.38749351481674 $246 $349 forward 7 unknown #
coedge $-1 $259 $258 $165 $252 reversed $243 $-1 #
edge $-1 $350 -49.38749351481674 $253 49.38749351481674 $251 $351 forward 7 unknown #
vertex $-1 $167 $352 #
vertex $-1 $265 $353 #
straight-curve $-1 49.38749351481674 0 -11.299963672282544 0 -1 0 I I #
coedge $-1 $245 $247 $168 $257 reversed $161 $-1 #
edge $-1 $260 -29.550351927348931 $263 29.550351927348931 $256 $354 forward 7 unknown #
coedge $-1 $251 $169 $174 $266 forward $243 $-1 #
coedge $-1 $169 $251 $245 $345 reversed $243 $-1 #
vertex $-1 $170 $355 #
straight-curve $-1 0 29.550351927348931 11.299963672282544 -1 0 0 I I #
coedge $-1 $171 $246 $173 $265 reversed $101 $-1 #
vertex $-1 $257 $356 #
straight-curve $-1 0 -29.550351927348931 11.299963672282544 1 0 0 I I #
edge $-1 $176 -11.299963672282544 $254 11.299963672282544 $173 $357 forward 7 unknown #
edge $-1 $177 -11.299963672282544 $253 11.299963672282544 $174 $358 forward 7 unknown #
point $-1 49.38749351481674 -29.550351927348931 11.299963672282544 #
point $-1 49.38749351481674 29.550351927348931 11.299963672282544 #
face $-1 $-1 $282 $25 $-1 $359 reversed single #
loop $-1 $-1 $278 $179 #
plane-surface $-1 -49.38749351481674 0 0 1 0 0 0 0 -1 forward_v I I I I #
coedge $-1 $360 $182 $275 $361 forward $109 $-1 #
coedge $-1 $182 $360 $362 $363 forward $109 $-1 #
edge $-1 $364 -29.550351927348931 $276 29.550351927348931 $182 $365 forward 7 unknown #
coedge $-1 $184 $285 $272 $361 reversed $180 $-1 #
vertex $-1 $361 $366 #
straight-curve $-1 -40.469650606254973 -29.550351927348931 -4.5603166176746814 0 0 1 I I #
coedge $-1 $367 $368 $186 $279 forward $270 $-1 #
edge $-1 $286 -29.550351927348931 $283 29.550351927348931 $278 $369 forward 7 unknown #
coedge $-1 $362 $187 $191 $288 forward $282 $-1 #
coedge $-1 $187 $362 $367 $370 reversed $282 $-1 #
loop $-1 $-1 $280 $269 #
vertex $-1 $370 $371 #
straight-curve $-1 -22.464286030267928 29.550351927348931 -6.9413027984161815 1 0 0 I I #
coedge $-1 $275 $189 $368 $372 forward $180 $-1 #
vertex $-1 $372 $373 #
straight-curve $-1 -22.464286030267928 -29.550351927348931 -6.9413027984161815 -1 0 0 I I #
edge $-1 $193 2.3809861807415 $364 6.7396470546078628 $280 $374 forward 7 unknown #
point $-1 -40.469650606254973 -29.550351927348931 -6.9413027984161815 #
point $-1 -40.469650606254973 29.550351927348931 -6.9413027984161815 #
loop $-1 $-1 $203 $195 #
plane-surface $-1 49.38749351481674 0 0 -1 0 0 0 0 1 forward_v I I I I #
coedge $-1 $294 $198 $200 $298 reversed $117 $-1 #
coedge $-1 $198 $293 $375 $376 reversed $117 $-1 #
coedge $-1 $206 $201 $198 $296 forward $196 $-1 #
edge $-1 $299 10.135632451888007 $377 13.767664569562235 $295 $378 forward 7 unknown #
coedge $-1 $200 $199 $302 $379 reversed $73 $-1 #
edge $-1 $380 -98.774987029633479 $299 -92.595804797498715 $293 $381 forward 7 unknown #
vertex $-1 $202 $382 #
straight-curve $-1 45.755461397142511 -7.671719398300759 11.299963672282544 0 -1 0 I I #
coedge $-1 $375 $203 $206 $306 reversed $291 $-1 #
coedge $-1 $203 $375 $297 $379 forward $291 $-1 #
vertex $-1 $204 $383 #
straight-curve $-1 49.38749351481674 -8.5922900883527227 72.13501183893257 0 0 1 I I #
straight-curve $-1 -8.6709860439813013 -8.5922900883527227 86.211544119067099 0.5877852410284794 0 -0.80901700255871778 I I #
edge $-1 $377 -22.094587504850313 $207 -8.5922900883527227 $301 $384 forward 7 unknown #
point $-1 49.38749351481674 -8.5922900883527227 11.299963672282544 #
point $-1 45.755461397142511 -8.5922900883527227 11.299963672282544 #
edge $-1 $385 1 $385 0 $210 $-1 forward 7 unknown #
vertex $-1 $211 $386 #
ellipse-curve $-1 44.476290546138451 -18.23678824299386 6.5516470721470741 0.80901700255871778 0 0.5877852410284794 0.5877852410284794 0 -0.80901700255871778 1 I I #
point $-1 48.15926269700811 -18.23678824299386 7.9914149258709655 #
edge $-1 $387 1 $387 0 $214 $-1 forward 7 unknown #
vertex $-1 $215 $388 #
ellipse-curve $-1 44.476290546138451 -12.450089350209179 6.5516470721470741 0.80901700255871778 0 0.5877852410284794 0.5877852410284794 0 -0.80901700255871778 1 I I #
point $-1 48.15926269700811 -12.450089350209179 7.9914149258709655 #
plane-surface $-1 0 0 11.299963672282544 0 0 1 1 0 0 forward_v I I I I #
coedge $-1 $328 $327 $320 $389 forward $219 $-1 #
coedge $-1 $320 $221 $223 $324 reversed $139 $-1 #
coedge $-1 $221 $319 $318 $389 reversed $139 $-1 #
coedge $-1 $229 $224 $221 $322 forward $230 $-1 #
edge $-1 $325 10.135632451888007 $390 13.767664569562235 $321 $391 forward 7 unknown #
coedge $-1 $223 $222 $328 $392 reversed $87 $-1 #
edge $-1 $393 -98.774987029633479 $325 -92.595804797498715 $319 $394 forward 7 unknown #
vertex $-1 $225 $395 #
straight-curve $-1 45.755461397142511 7.1034565653737065 11.299963672282544 0 -1 0 I I #
coedge $-1 $318 $226 $229 $332 reversed $219 $-1 #
coedge $-1 $226 $318 $323 $392 forward $219 $-1 #
vertex $-1 $227 $396 #
straight-curve $-1 49.38749351481674 20.958061838996208 72.13501183893257 0 0 1 I I #
straight-curve $-1 -8.6709860439813013 20.958061838996208 86.211544119067099 0.5877852410284794 0 -0.80901700255871778 I I #
edge $-1 $390 7.4557644224986177 $231 20.958061838996208 $327 $397 forward 7 unknown #
point $-1 49.38749351481674 20.958061838996208 11.299963672282544 #
point $-1 45.755461397142511 20.958061838996208 11.299963672282544 #
edge $-1 $398 1 $398 0 $234 $-1 forward 7 unknown #
vertex $-1 $235 $399 #
ellipse-curve $-1 44.476290546138451 11.313563684355071 6.5516470721470741 0.80901700255871778 0 0.5877852410284794 0.5877852410284794 0 -0.80901700255871778 1 I I #
point $-1 48.15926269700811 11.313563684355071 7.9914149258709655 #
edge $-1 $400 1 $400 0 $238 $-1 forward 7 unknown #
vertex $-1 $239 $401 #
ellipse-curve $-1 44.476290546138451 17.100262577139755 6.5516470721470741 0.80901700255871778 0 0.5877852410284794 0.5877852410284794 0 -0.80901700255871778 1 I I #
point $-1 48.15926269700811 17.100262577139755 7.9914149258709655 #
plane-surface $-1 49.38749351481674 0 0 -1 0 0 0 0 1 forward_v I I I I #
coedge $-1 $247 $245 $249 $348 reversed $161 $-1 #
edge $-1 $260 -11.299963672282544 $350 11.299963672282544 $259 $402 forward 7 unknown #
vertex $-1 $348 $403 #
straight-curve $-1 -49.38749351481674 -29.550351927348931 0 0 0 -1 I I #
edge $-1 $346 -29.550351927348931 $350 29.550351927348931 $344 $404 forward 7 unknown #
straight-curve $-1 0 -29.550351927348931 -11.299963672282544 -1 0 0 I I #
vertex $-1 $252 $405 #
straight-curve $-1 0 29.550351927348931 -11.299963672282544 1 0 0 I I #
point $-1 49.38749351481674 29.550351927348931 -11.299963672282544 #
point $-1 49.38749351481674 -29.550351927348931 -11.299963672282544 #
straight-curve $-1 -49.38749351481674 0 11.299963672282544 0 -1 0 I I #
point $-1 -49.38749351481674 29.550351927348931 11.299963672282544 #
point $-1 -49.38749351481674 -29.550351927348931 11.299963672282544 #
straight-curve $-1 49.38749351481674 -29.550351927348931 0 0 0 -1 I I #
straight-curve $-1 49.38749351481674 29.550351927348931 0 0 0 -1 I I #
plane-surface $-1 0 29.550351927348931 0 0 -1 0 0 0 -1 forward_v I I I I #
coedge $-1 $273 $272 $406 $407 forward $109 $-1 #
edge $-1 $276 40.469650606254973 $408 49.38749351481674 $275 $409 forward 7 unknown #
coedge $-1 $281 $280 $273 $363 reversed $282 $-1 #
edge $-1 $410 -49.38749351481674 $364 -40.469650606254973 $362 $411 forward 7 unknown #
vertex $-1 $288 $412 #
straight-curve $-1 -40.469650606254973 0 -11.299963672282544 0 -1 0 I I #
point $-1 -40.469650606254973 -29.550351927348931 -11.299963672282544 #
coedge $-1 $406 $278 $281 $370 forward $270 $-1 #
coedge $-1 $278 $406 $285 $372 reversed $270 $-1 #
straight-curve $-1 -49.38749351481674 0 -6.9413027984161815 0 1 0 I I #
edge $-1 $283 6.9413027984161815 $410 11.299963672282544 $281 $413 forward 7 unknown #
point $-1 -49.38749351481674 29.550351927348931 -6.9413027984161815 #
edge $-1 $286 6.9413027984161815 $408 11.299963672282544 $368 $414 forward 7 unknown #
point $-1 -49.38749351481674 -29.550351927348931 -6.9413027984161815 #
straight-curve $-1 -40.469650606254973 29.550351927348931 -4.5603166176746814 0 0 -1 I I #
coedge $-1 $302 $301 $294 $376 forward $291 $-1 #
edge $-1 $377 60.835048166650026 $380 65.83411165435578 $375 $415 forward 7 unknown #
vertex $-1 $306 $416 #
straight-curve $-1 35.619828945254504 -22.094587504850313 11.299963672282544 1 0 0 I I #
edge $-1 $380 -14.422868106549554 $303 -0.92057069005196368 $302 $417 forward 7 unknown #
vertex $-1 $379 $418 #
straight-curve $-1 -8.6709860439813013 -22.094587504850313 86.211544119067099 -0.5877852410284794 0 0.80901700255871778 I I #
point $-1 45.755461397142511 -22.094587504850313 11.299963672282544 #
point $-1 49.38749351481674 -8.5922900883527227 6.3009001845767898 #
straight-curve $-1 49.38749351481674 0 11.299963672282544 0 1 0 I I #
vertex $-1 $309 $419 #
point $-1 45.064075787166928 -18.23678824299386 5.7426300695883565 #
vertex $-1 $313 $420 #
point $-1 45.064075787166928 -12.450089350209179 5.7426300695883565 #
edge $-1 $390 60.835048166650026 $393 65.83411165435578 $318 $421 forward 7 unknown #
vertex $-1 $332 $422 #
straight-curve $-1 35.619828945254504 7.4557644224986177 11.299963672282544 1 0 0 I I #
edge $-1 $393 0.35230785712491119 $329 13.854605273622502 $328 $423 forward 7 unknown #
vertex $-1 $392 $424 #
straight-curve $-1 -8.6709860439813013 7.4557644224986177 86.211544119067099 -0.5877852410284794 0 0.80901700255871778 I I #
point $-1 45.755461397142511 7.4557644224986177 11.299963672282544 #
point $-1 49.38749351481674 20.958061838996208 6.3009001845767898 #
straight-curve $-1 49.38749351481674 0 11.299963672282544 0 1 0 I I #
vertex $-1 $335 $425 #
point $-1 45.064075787166928 11.313563684355071 5.7426300695883565 #
vertex $-1 $339 $426 #
point $-1 45.064075787166928 17.100262577139755 5.7426300695883565 #
straight-curve $-1 -49.38749351481674 29.550351927348931 0 0 0 -1 I I #
point $-1 -49.38749351481674 -29.550351927348931 -11.299963672282544 #
straight-curve $-1 -49.38749351481674 0 -11.299963672282544 0 1 0 I I #
point $-1 -49.38749351481674 29.550351927348931 -11.299963672282544 #
coedge $-1 $368 $367 $360 $407 reversed $270 $-1 #
edge $-1 $408 -29.550351927348931 $410 29.550351927348931 $406 $427 forward 7 unknown #
vertex $-1 $407 $428 #
straight-curve $-1 0 -29.550351927348931 -11.299963672282544 -1 0 0 I I #
vertex $-1 $363 $429 #
straight-curve $-1 0 29.550351927348931 -11.299963672282544 1 0 0 I I #
point $-1 -40.469650606254973 29.550351927348931 -11.299963672282544 #
straight-curve $-1 -49.38749351481674 29.550351927348931 0 0 0 -1 I I #
straight-curve $-1 -49.38749351481674 -29.550351927348931 0 0 0 -1 I I #
straight-curve $-1 49.38749351481674 -22.094587504850313 72.13501183893257 0 0 -1 I I #
point $-1 49.38749351481674 -22.094587504850313 11.299963672282544 #
straight-curve $-1 49.38749351481674 -7.671719398300759 6.3009001845767898 0 1 0 I I #
point $-1 49.38749351481674 -22.094587504850313 6.3009001845767898 #
point $-1 43.667273543579732 -18.23678824299386 5.9638618311185949 #
point $-1 43.667273543579732 -12.450089350209179 5.9638618311185949 #
straight-curve $-1 49.38749351481674 7.4557644224986177 72.13501183893257 0 0 -1 I I #
point $-1 49.38749351481674 7.4557644224986177 11.299963672282544 #
straight-curve $-1 49.38749351481674 7.1034565653737065 6.3009001845767898 0 1 0 I I #
point $-1 49.38749351481674 7.4557644224986177 6.3009001845767898 #
point $-1 43.667273543579732 11.313563684355071 5.9638618311185949 #
point $-1 43.667273543579732 17.100262577139755 5.9638618311185949 #
straight-curve $-1 -49.38749351481674 0 -11.299963672282544 0 1 0 I I #
point $-1 -49.38749351481674 -29.550351927348931 -11.299963672282544 #
point $-1 -49.38749351481674 29.550351927348931 -11.299963672282544 #
End-of-ACIS-data 