500 0 7 0           
7 Unknown 11 ACIS 5.0 NT 24 Thu Mar 25 17:48:52 1999 
-1 9.9999999999999995e-007 1e-010 
body $-1 $7 $-1 $8 #
body $-1 $9 $-1 $10 #
body $-1 $11 $-1 $12 #
body $-1 $13 $-1 $14 #
body $-1 $15 $-1 $16 #
body $-1 $17 $-1 $18 #
body $-1 $19 $-1 $20 #
lump $-1 $-1 $21 $0 #
transform $-1 1 0 0 0 1 0 0 0 1 64.962920010986664 44.473638433865055 12.187191205339554 1 rotate no_reflect no_shear #
lump $-1 $-1 $22 $1 #
transform $-1 1 0 0 0 1 0 0 0 1 64.962920010986664 44.473638433865055 12.187191205339554 1 rotate no_reflect no_shear #
lump $-1 $-1 $23 $2 #
transform $-1 1 0 0 0 1 0 0 0 1 64.962920010986664 44.473638433865055 12.187191205339554 1 rotate no_reflect no_shear #
lump $-1 $-1 $24 $3 #
transform $-1 1 0 0 0 1 0 0 0 1 64.962920010986664 44.473638433865055 12.187191205339554 1 rotate no_reflect no_shear #
lump $-1 $-1 $25 $4 #
transform $-1 1 0 0 0 1 0 0 0 1 64.962920010986664 44.473638433865055 12.187191205339554 1 rotate no_reflect no_shear #
lump $-1 $-1 $26 $5 #
transform $-1 1 0 0 0 1 0 0 0 1 64.962920010986664 44.473638433865055 12.187191205339554 1 rotate no_reflect no_shear #
lump $-1 $-1 $27 $6 #
transform $-1 1 0 0 0 1 0 0 0 1 64.962920010986664 44.473638433865055 12.187191205339554 1 rotate no_reflect no_shear #
shell $-1 $-1 $-1 $28 $-1 $7 #
shell $-1 $-1 $-1 $29 $-1 $9 #
shell $-1 $-1 $-1 $30 $-1 $11 #
shell $-1 $-1 $-1 $31 $-1 $13 #
shell $-1 $-1 $-1 $32 $-1 $15 #
shell $-1 $-1 $-1 $33 $-1 $17 #
shell $-1 $-1 $-1 $34 $-1 $19 #
face $-1 $35 $36 $21 $-1 $37 forward single #
face $-1 $38 $39 $22 $-1 $40 forward single #
face $-1 $41 $42 $23 $-1 $43 forward single #
face $-1 $44 $45 $24 $-1 $46 reversed single #
face $-1 $47 $48 $25 $-1 $49 forward single #
face $-1 $50 $51 $26 $-1 $52 forward single #
face $-1 $53 $54 $27 $-1 $55 forward single #
face $-1 $56 $57 $21 $-1 $58 reversed single #
loop $-1 $-1 $59 $28 #
plane-surface $-1 0 0 12.187191205339554 0 0 1 1 0 0 forward_v I I I I #
face $-1 $60 $61 $22 $-1 $62 forward single #
loop $-1 $-1 $63 $29 #
plane-surface $-1 -64.962920010986664 0 0 1 0 0 0 0 -1 forward_v I I I I #
face $-1 $64 $65 $23 $-1 $66 reversed single #
loop $-1 $-1 $67 $30 #
plane-surface $-1 64.962920010986664 0 0 -1 0 0 0 0 1 forward_v I I I I #
face $-1 $68 $69 $24 $-1 $70 reversed single #
loop $-1 $-1 $71 $31 #
plane-surface $-1 23.101618564352691 70.744396122599426 162.75763815344402 1 0 0 0 -0.69465837861970381 -0.71933979245794832 forward_v I I I I #
face $-1 $72 $73 $25 $-1 $74 forward single #
loop $-1 $75 $76 $32 #
cone-surface $-1 26.813234442581233 41.18086069282375 8.9465962623878976 0 -0.69465837861970381 -0.71933979245794832 1.5 0 0 1 I I 0 1 1.5 forward I I I I #
face $-1 $77 $78 $26 $-1 $79 forward single #
loop $-1 $80 $81 $33 #
cone-surface $-1 32.380658259924047 41.18086069282375 8.9465962623878976 0 -0.69465837861970381 -0.71933979245794832 1.5 0 0 1 I I 0 1 1.5 forward I I I I #
face $-1 $82 $83 $27 $-1 $84 forward single #
loop $-1 $85 $86 $34 #
cone-surface $-1 37.948082077266861 41.18086069282375 8.9465962623878976 0 -0.69465837861970381 -0.71933979245794832 1.5 0 0 1 I I 0 1 1.5 forward I I I I #
face $-1 $87 $88 $21 $-1 $89 reversed single #
loop $-1 $-1 $90 $35 #
plane-surface $-1 0 0 -12.187191205339554 0 0 1 1 0 0 forward_v I I I I #
coedge $-1 $91 $92 $93 $94 forward $36 $-1 #
face $-1 $95 $96 $22 $-1 $97 reversed single #
loop $-1 $-1 $98 $38 #
plane-surface $-1 0 0 12.187191205339554 0 0 1 1 0 0 forward_v I I I I #
coedge $-1 $99 $100 $101 $102 forward $39 $-1 #
face $-1 $103 $104 $23 $-1 $105 reversed single #
loop $-1 $-1 $106 $41 #
plane-surface $-1 0 -44.473638433865055 0 0 1 0 0 0 1 forward_v I I I I #
coedge $-1 $107 $108 $109 $110 forward $42 $-1 #
face $-1 $111 $112 $24 $-1 $113 reversed single #
loop $-1 $-1 $114 $44 #
plane-surface $-1 32.380658259924033 -19.509677247867586 69.296811357113128 0 0.69465837861970381 0.71933979245794832 1 0 0 forward_v I I I I #
coedge $-1 $115 $116 $117 $118 reversed $45 $-1 #
face $-1 $-1 $119 $25 $-1 $120 forward single #
loop $-1 $121 $122 $47 #
cone-surface $-1 26.813234442581233 39.789376241892093 7.5056719649936294 0 -0.69465837861970381 -0.71933979245794832 0.75 0 0 1 I I -0.70710678118654757 0.70710678118654757 0.75 forward I I I I #
loop $-1 $-1 $123 $32 #
coedge $-1 $76 $76 $124 $125 reversed $48 $-1 #
face $-1 $-1 $126 $26 $-1 $127 forward single #
loop $-1 $128 $129 $50 #
cone-surface $-1 32.380658259924047 39.789376241892093 7.5056719649936294 0 -0.69465837861970381 -0.71933979245794832 0.75 0 0 1 I I -0.70710678118654757 0.70710678118654757 0.75 forward I I I I #
loop $-1 $-1 $130 $33 #
coedge $-1 $81 $81 $131 $132 reversed $51 $-1 #
face $-1 $-1 $133 $27 $-1 $134 forward single #
loop $-1 $135 $136 $53 #
cone-surface $-1 37.948082077266861 39.789376241892093 7.5056719649936294 0 -0.69465837861970381 -0.71933979245794832 0.75 0 0 1 I I -0.70710678118654757 0.70710678118654757 0.75 forward I I I I #
loop $-1 $-1 $137 $34 #
coedge $-1 $86 $86 $138 $139 reversed $54 $-1 #
face $-1 $140 $141 $21 $-1 $142 reversed single #
loop $-1 $-1 $143 $56 #
plane-surface $-1 0 -44.473638433865055 0 0 1 0 0 0 1 forward_v I I I I #
coedge $-1 $144 $145 $146 $147 forward $57 $-1 #
coedge $-1 $148 $59 $149 $150 forward $36 $-1 #
coedge $-1 $59 $148 $151 $152 forward $36 $-1 #
coedge $-1 $153 $154 $59 $94 reversed $155 $-1 #
edge $-1 $156 -44.473638433865055 $157 44.473638433865055 $93 $158 forward 7 unknown #
face $-1 $159 $160 $22 $-1 $161 reversed single #
loop $-1 $-1 $162 $60 #
plane-surface $-1 -76.040807907700184 -41.422247236388138 0 1 0 0 0 0 -1 forward_v I I I I #
coedge $-1 $163 $164 $99 $165 forward $61 $-1 #
coedge $-1 $166 $63 $98 $165 reversed $39 $-1 #
coedge $-1 $63 $166 $167 $168 reversed $39 $-1 #
coedge $-1 $169 $170 $63 $102 reversed $160 $-1 #
edge $-1 $171 -12.187191205339554 $172 12.187191205339554 $101 $173 forward 7 unknown #
face $-1 $174 $175 $23 $-1 $176 reversed single #
loop $-1 $-1 $177 $64 #
plane-surface $-1 0 0 -12.187191205339554 0 0 1 1 0 0 forward_v I I I I #
coedge $-1 $178 $179 $180 $181 forward $65 $-1 #
coedge $-1 $180 $67 $177 $182 reversed $42 $-1 #
coedge $-1 $67 $180 $183 $184 reversed $42 $-1 #
coedge $-1 $185 $186 $67 $110 reversed $175 $-1 #
edge $-1 $187 -12.187191205339554 $188 12.187191205339554 $109 $189 forward 7 unknown #
face $-1 $190 $191 $24 $-1 $192 reversed single #
loop $-1 $-1 $193 $68 #
plane-surface $-1 41.659697955495375 70.744396122599426 162.75763815344402 -1 0 0 0 0.69465837861970381 0.71933979245794832 forward_v I I I I #
coedge $-1 $194 $195 $196 $197 reversed $69 $-1 #
coedge $-1 $116 $71 $198 $199 reversed $45 $-1 #
coedge $-1 $71 $115 $194 $200 reversed $45 $-1 #
coedge $-1 $196 $201 $71 $118 forward $202 $-1 #
edge $-1 $203 -9.1014403725653423 $204 -4.2568662244165125 $117 $205 forward 7 unknown #
loop $-1 $-1 $124 $72 #
plane-surface $-1 32.380658259924033 -19.509677247867586 69.296811357113128 0 0.69465837861970381 0.71933979245794832 1 0 0 forward_v I I I I #
loop $-1 $-1 $206 $47 #
coedge $-1 $122 $122 $123 $207 reversed $73 $-1 #
coedge $-1 $123 $123 $122 $207 forward $75 $-1 #
coedge $-1 $124 $124 $76 $125 forward $119 $-1 #
edge $-1 $208 -9.3955543667888894e-016 $208 6.2831853071795996 $124 $209 forward 7 unknown #
loop $-1 $-1 $131 $77 #
plane-surface $-1 32.380658259924033 -19.509677247867586 69.296811357113128 0 0.69465837861970381 0.71933979245794832 1 0 0 forward_v I I I I #
loop $-1 $-1 $210 $50 #
coedge $-1 $129 $129 $130 $211 reversed $78 $-1 #
coedge $-1 $130 $130 $129 $211 forward $80 $-1 #
coedge $-1 $131 $131 $81 $132 forward $126 $-1 #
edge $-1 $212 -9.3955543667888894e-016 $212 6.2831853071795996 $131 $213 forward 7 unknown #
loop $-1 $-1 $138 $82 #
plane-surface $-1 32.380658259924033 -19.509677247867586 69.296811357113128 0 0.69465837861970381 0.71933979245794832 1 0 0 forward_v I I I I #
loop $-1 $-1 $214 $53 #
coedge $-1 $136 $136 $137 $215 reversed $83 $-1 #
coedge $-1 $137 $137 $136 $215 forward $85 $-1 #
coedge $-1 $138 $138 $86 $139 forward $133 $-1 #
edge $-1 $216 -9.3955543667888894e-016 $216 6.2831853071795996 $138 $217 forward 7 unknown #
face $-1 $218 $219 $21 $-1 $220 reversed single #
loop $-1 $-1 $221 $87 #
plane-surface $-1 -64.962920010986664 0 0 1 0 0 0 0 -1 forward_v I I I I #
coedge $-1 $222 $151 $223 $224 forward $88 $-1 #
coedge $-1 $225 $90 $222 $226 forward $57 $-1 #
coedge $-1 $90 $225 $227 $228 forward $57 $-1 #
coedge $-1 $154 $153 $90 $147 reversed $155 $-1 #
edge $-1 $229 -44.473638433865055 $230 44.473638433865055 $146 $231 forward 7 unknown #
coedge $-1 $92 $91 $232 $233 forward $36 $-1 #
coedge $-1 $234 $235 $91 $150 reversed $219 $-1 #
edge $-1 $157 -64.962920010986664 $236 64.962920010986664 $149 $237 forward 7 unknown #
coedge $-1 $143 $238 $92 $152 reversed $88 $-1 #
edge $-1 $239 -64.962920010986664 $156 64.962920010986664 $151 $240 forward 7 unknown #
coedge $-1 $146 $93 $238 $241 forward $155 $-1 #
coedge $-1 $93 $146 $234 $242 reversed $155 $-1 #
loop $-1 $-1 $153 $218 #
vertex $-1 $94 $243 #
vertex $-1 $94 $244 #
straight-curve $-1 64.962920010986664 0 12.187191205339554 0 1 0 I I #
face $-1 $245 $246 $22 $-1 $247 reversed single #
loop $-1 $-1 $101 $95 #
plane-surface $-1 -70.501863959343424 -38.370856038911221 0 0 -1 0 0 0 -1 forward_v I I I I #
coedge $-1 $248 $249 $250 $251 forward $96 $-1 #
coedge $-1 $252 $98 $170 $253 forward $61 $-1 #
coedge $-1 $98 $252 $254 $255 forward $61 $-1 #
edge $-1 $256 -44.473638433865055 $172 -38.370856038911221 $98 $257 forward 7 unknown #
coedge $-1 $100 $99 $258 $259 reversed $39 $-1 #
coedge $-1 $260 $261 $100 $168 forward $246 $-1 #
edge $-1 $171 38.370856038911221 $262 44.473638433865055 $167 $263 forward 7 unknown #
coedge $-1 $250 $101 $261 $264 reversed $160 $-1 #
coedge $-1 $101 $250 $163 $253 reversed $160 $-1 #
vertex $-1 $168 $265 #
vertex $-1 $253 $266 #
straight-curve $-1 -64.962920010986664 -38.370856038911221 0 0 0 1 I I #
face $-1 $267 $268 $23 $-1 $269 reversed single #
loop $-1 $-1 $270 $103 #
plane-surface $-1 70.50186395934341 -38.370856038911221 0 0 -1 0 0 0 -1 forward_v I I I I #
coedge $-1 $271 $272 $107 $182 forward $104 $-1 #
coedge $-1 $273 $106 $272 $274 reversed $65 $-1 #
coedge $-1 $106 $273 $275 $276 reversed $65 $-1 #
coedge $-1 $108 $107 $106 $181 reversed $42 $-1 #
edge $-1 $277 -12.187191205339554 $278 12.187191205339554 $106 $279 forward 7 unknown #
edge $-1 $278 -44.473638433865055 $188 -38.370856038911221 $177 $280 forward 7 unknown #
coedge $-1 $275 $281 $108 $184 forward $282 $-1 #
edge $-1 $187 38.370856038911221 $277 44.473638433865055 $183 $283 forward 7 unknown #
coedge $-1 $270 $109 $281 $284 reversed $175 $-1 #
coedge $-1 $109 $270 $271 $285 reversed $175 $-1 #
vertex $-1 $184 $286 #
vertex $-1 $285 $287 #
straight-curve $-1 64.962920010986664 -38.370856038911221 0 0 0 -1 I I #
face $-1 $-1 $202 $24 $-1 $288 forward single #
loop $-1 $-1 $289 $111 #
plane-surface $-1 0 44.473638433865055 0 0 -1 0 0 0 -1 forward_v I I I I #
coedge $-1 $290 $291 $292 $293 reversed $112 $-1 #
coedge $-1 $294 $114 $116 $200 forward $69 $-1 #
coedge $-1 $114 $294 $290 $295 forward $69 $-1 #
coedge $-1 $292 $117 $114 $197 forward $202 $-1 #
edge $-1 $204 6.9112894343906746 $296 25.469368825533358 $196 $297 forward 7 unknown #
coedge $-1 $298 $299 $115 $199 forward $191 $-1 #
edge $-1 $300 -73.869978851184158 $203 -69.191627871382451 $198 $301 forward 7 unknown #
edge $-1 $204 82.212526199210629 $300 88.947276867730096 $116 $302 forward 7 unknown #
coedge $-1 $117 $292 $298 $303 forward $202 $-1 #
loop $-1 $-1 $292 $190 #
vertex $-1 $199 $304 #
vertex $-1 $118 $305 #
straight-curve $-1 23.101618564352691 35.372198061299713 12.187191205339559 0 -1 0 I I #
coedge $-1 $206 $206 $-1 $306 reversed $121 $-1 #
edge $-1 $307 0 $307 6.2831853071796004 $122 $308 forward 7 unknown #
vertex $-1 $125 $309 #
ellipse-curve $-1 26.813234442581233 42.05135135979063 9.8480157154387111 0 0.69465837861970381 0.71933979245794832 1.5 0 0 1 I I #
coedge $-1 $210 $210 $-1 $310 reversed $128 $-1 #
edge $-1 $311 0 $311 6.2831853071796004 $129 $312 forward 7 unknown #
vertex $-1 $132 $313 #
ellipse-curve $-1 32.380658259924047 42.05135135979063 9.8480157154387111 0 0.69465837861970381 0.71933979245794832 1.5 0 0 1 I I #
coedge $-1 $214 $214 $-1 $314 reversed $135 $-1 #
edge $-1 $315 0 $315 6.2831853071796004 $136 $316 forward 7 unknown #
vertex $-1 $139 $317 #
ellipse-curve $-1 37.948082077266861 42.05135135979063 9.8480157154387111 0 0.69465837861970381 0.71933979245794832 1.5 0 0 1 I I #
face $-1 $-1 $155 $21 $-1 $318 reversed single #
loop $-1 $-1 $234 $140 #
plane-surface $-1 0 44.473638433865055 0 0 -1 0 0 0 -1 forward_v I I I I #
coedge $-1 $319 $232 $235 $320 forward $141 $-1 #
coedge $-1 $238 $143 $144 $226 reversed $88 $-1 #
coedge $-1 $232 $319 $143 $224 reversed $141 $-1 #
edge $-1 $239 -12.187191205339554 $321 12.187191205339554 $223 $322 forward 7 unknown #
coedge $-1 $145 $144 $319 $323 forward $57 $-1 #
edge $-1 $230 -64.962920010986664 $321 64.962920010986664 $222 $324 forward 7 unknown #
coedge $-1 $235 $234 $145 $228 reversed $219 $-1 #
edge $-1 $325 -64.962920010986664 $229 64.962920010986664 $227 $326 forward 7 unknown #
vertex $-1 $147 $327 #
vertex $-1 $241 $328 #
straight-curve $-1 64.962920010986664 0 -12.187191205339554 0 -1 0 I I #
coedge $-1 $221 $223 $148 $233 reversed $141 $-1 #
edge $-1 $236 -44.473638433865055 $239 44.473638433865055 $232 $329 forward 7 unknown #
coedge $-1 $227 $149 $154 $242 forward $219 $-1 #
coedge $-1 $149 $227 $221 $320 reversed $219 $-1 #
vertex $-1 $150 $330 #
straight-curve $-1 0 44.473638433865055 12.187191205339554 -1 0 0 I I #
coedge $-1 $151 $222 $153 $241 reversed $88 $-1 #
vertex $-1 $233 $331 #
straight-curve $-1 0 -44.473638433865055 12.187191205339554 1 0 0 I I #
edge $-1 $156 -12.187191205339554 $230 12.187191205339554 $153 $332 forward 7 unknown #
edge $-1 $157 -12.187191205339554 $229 12.187191205339554 $154 $333 forward 7 unknown #
point $-1 64.962920010986664 -44.473638433865055 12.187191205339554 #
point $-1 64.962920010986664 44.473638433865055 12.187191205339554 #
face $-1 $-1 $334 $22 $-1 $335 reversed single #
loop $-1 $-1 $167 $159 #
plane-surface $-1 0 0 -12.187191205339554 0 0 1 1 0 0 forward_v I I I I #
coedge $-1 $336 $162 $337 $338 reversed $96 $-1 #
coedge $-1 $162 $336 $252 $339 reversed $96 $-1 #
coedge $-1 $170 $169 $162 $251 reversed $160 $-1 #
edge $-1 $340 -12.187191205339554 $341 12.187191205339554 $250 $342 forward 7 unknown #
coedge $-1 $164 $163 $249 $339 forward $61 $-1 #
edge $-1 $172 -5.53894394835676 $340 5.53894394835676 $170 $343 forward 7 unknown #
coedge $-1 $344 $258 $164 $255 reversed $334 $-1 #
edge $-1 $345 -76.040807907700184 $256 -64.962920010986664 $254 $346 forward 7 unknown #
vertex $-1 $259 $347 #
straight-curve $-1 -64.962920010986664 0 12.187191205339554 0 1 0 I I #
coedge $-1 $254 $348 $166 $259 forward $334 $-1 #
edge $-1 $262 -12.187191205339554 $256 12.187191205339554 $258 $349 forward 7 unknown #
coedge $-1 $337 $167 $348 $350 forward $246 $-1 #
coedge $-1 $167 $337 $169 $264 forward $246 $-1 #
vertex $-1 $350 $351 #
straight-curve $-1 -64.962920010986664 0 -12.187191205339554 0 -1 0 I I #
edge $-1 $341 -5.53894394835676 $171 5.53894394835676 $169 $352 forward 7 unknown #
point $-1 -64.962920010986664 -38.370856038911221 -12.187191205339554 #
point $-1 -64.962920010986664 -38.370856038911221 12.187191205339554 #
face $-1 $-1 $282 $23 $-1 $353 forward single #
loop $-1 $-1 $354 $174 #
plane-surface $-1 76.04080790770017 -41.422247236388138 0 -1 0 0 0 0 1 forward_v I I I I #
coedge $-1 $186 $185 $355 $356 forward $175 $-1 #
coedge $-1 $357 $177 $186 $285 forward $104 $-1 #
coedge $-1 $177 $357 $178 $274 forward $104 $-1 #
coedge $-1 $179 $178 $354 $358 reversed $65 $-1 #
edge $-1 $359 -5.53894394835676 $278 5.5389439483567458 $178 $360 forward 7 unknown #
coedge $-1 $361 $183 $179 $276 forward $282 $-1 #
edge $-1 $277 -5.5389439483567458 $362 5.53894394835676 $179 $363 forward 7 unknown #
vertex $-1 $276 $364 #
vertex $-1 $182 $365 #
straight-curve $-1 64.962920010986664 -44.473638433865055 0 0 0 -1 I I #
straight-curve $-1 64.962920010986664 0 -12.187191205339554 0 1 0 I I #
coedge $-1 $183 $361 $185 $284 forward $282 $-1 #
loop $-1 $-1 $183 $267 #
straight-curve $-1 64.962920010986664 0 12.187191205339554 0 -1 0 I I #
edge $-1 $366 -5.53894394835676 $187 5.53894394835676 $185 $367 forward 7 unknown #
edge $-1 $188 -5.53894394835676 $368 5.53894394835676 $186 $369 forward 7 unknown #
point $-1 64.96292001098665 -38.370856038911221 12.187191205339554 #
point $-1 64.96292001098665 -38.370856038911221 -12.187191205339554 #
plane-surface $-1 0 0 12.187191205339554 0 0 1 1 0 0 forward_v I I I I #
coedge $-1 $299 $298 $291 $370 forward $191 $-1 #
coedge $-1 $291 $193 $195 $295 reversed $112 $-1 #
coedge $-1 $193 $290 $289 $370 reversed $112 $-1 #
coedge $-1 $201 $196 $193 $293 forward $202 $-1 #
edge $-1 $296 4.2568662244165125 $371 9.1014403725653423 $292 $372 forward 7 unknown #
coedge $-1 $195 $194 $299 $373 reversed $69 $-1 #
edge $-1 $374 -88.947276867730096 $296 -82.212526199210629 $290 $375 forward 7 unknown #
vertex $-1 $197 $376 #
straight-curve $-1 16.190329129962016 39.629064285716233 12.187191205339559 1 0 0 I I #
coedge $-1 $289 $198 $201 $303 reversed $191 $-1 #
coedge $-1 $198 $289 $294 $373 forward $191 $-1 #
vertex $-1 $199 $377 #
straight-curve $-1 23.101618564352691 44.473638433865055 81.37881907672201 0 0 1 I I #
straight-curve $-1 23.101618564352691 -19.509677247867586 69.296811357113128 0 0.71933979245794832 -0.69465837861970381 I I #
edge $-1 $371 -41.659697955495375 $203 -23.101618564352691 $298 $378 forward 7 unknown #
point $-1 23.101618564352691 44.473638433865055 12.187191205339554 #
point $-1 23.101618564352691 39.629064285716225 12.187191205339552 #
edge $-1 $379 1 $379 0 $206 $-1 forward 7 unknown #
vertex $-1 $207 $380 #
ellipse-curve $-1 26.813234442581233 40.310370025856869 8.0451768093370912 0 0.69465837861970381 0.71933979245794832 1.5 0 0 1 I I #
point $-1 28.313234442581233 42.051351359790623 9.8480157154387058 #
edge $-1 $381 1 $381 0 $210 $-1 forward 7 unknown #
vertex $-1 $211 $382 #
ellipse-curve $-1 32.380658259924047 40.310370025856869 8.0451768093370912 0 0.69465837861970381 0.71933979245794832 1.5 0 0 1 I I #
point $-1 33.880658259924047 42.051351359790623 9.8480157154387058 #
edge $-1 $383 1 $383 0 $214 $-1 forward 7 unknown #
vertex $-1 $215 $384 #
ellipse-curve $-1 37.948082077266861 40.310370025856869 8.0451768093370912 0 0.69465837861970381 0.71933979245794832 1.5 0 0 1 I I #
point $-1 39.448082077266861 42.051351359790623 9.8480157154387058 #
plane-surface $-1 64.962920010986664 0 0 -1 0 0 0 0 1 forward_v I I I I #
coedge $-1 $223 $221 $225 $323 reversed $141 $-1 #
edge $-1 $236 -12.187191205339554 $325 12.187191205339554 $235 $385 forward 7 unknown #
vertex $-1 $323 $386 #
straight-curve $-1 -64.962920010986664 -44.473638433865055 0 0 0 -1 I I #
edge $-1 $321 -44.473638433865055 $325 44.473638433865055 $319 $387 forward 7 unknown #
straight-curve $-1 0 -44.473638433865055 -12.187191205339554 -1 0 0 I I #
vertex $-1 $228 $388 #
straight-curve $-1 0 44.473638433865055 -12.187191205339554 1 0 0 I I #
point $-1 64.962920010986664 44.473638433865055 -12.187191205339554 #
point $-1 64.962920010986664 -44.473638433865055 -12.187191205339554 #
straight-curve $-1 -64.962920010986664 0 12.187191205339554 0 -1 0 I I #
point $-1 -64.962920010986664 44.473638433865055 12.187191205339554 #
point $-1 -64.962920010986664 -44.473638433865055 12.187191205339554 #
straight-curve $-1 64.962920010986664 -44.473638433865055 0 0 0 -1 I I #
straight-curve $-1 64.962920010986664 44.473638433865055 0 0 0 -1 I I #
loop $-1 $-1 $258 $245 #
plane-surface $-1 0 -44.473638433865055 0 0 1 0 0 0 1 forward_v I I I I #
coedge $-1 $249 $248 $344 $389 reversed $96 $-1 #
coedge $-1 $261 $260 $248 $338 forward $246 $-1 #
edge $-1 $390 -3.0513911974769172 $341 3.0513911974769172 $248 $391 forward 7 unknown #
edge $-1 $340 -3.0513911974769172 $345 3.0513911974769172 $249 $392 forward 7 unknown #
vertex $-1 $253 $393 #
vertex $-1 $264 $394 #
straight-curve $-1 -76.040807907700184 -38.370856038911221 0 0 0 -1 I I #
straight-curve $-1 -70.501863959343424 -38.370856038911221 12.187191205339554 -1 0 0 I I #
coedge $-1 $348 $254 $336 $389 forward $334 $-1 #
vertex $-1 $339 $395 #
straight-curve $-1 0 -44.473638433865055 12.187191205339554 1 0 0 I I #
point $-1 -64.962920010986664 -44.473638433865055 12.187191205339554 #
coedge $-1 $258 $344 $260 $350 reversed $334 $-1 #
straight-curve $-1 -64.962920010986664 -44.473638433865055 0 0 0 1 I I #
edge $-1 $262 -5.53894394835676 $390 5.53894394835676 $348 $396 forward 7 unknown #
point $-1 -64.962920010986664 -44.473638433865055 -12.187191205339554 #
straight-curve $-1 -70.501863959343424 -38.370856038911221 -12.187191205339554 1 0 0 I I #
plane-surface $-1 0 0 12.187191205339554 0 0 1 1 0 0 forward_v I I I I #
coedge $-1 $397 $398 $273 $358 forward $268 $-1 #
coedge $-1 $398 $397 $270 $356 reversed $268 $-1 #
edge $-1 $366 -12.187191205339554 $368 12.187191205339554 $355 $399 forward 7 unknown #
coedge $-1 $272 $271 $397 $400 forward $104 $-1 #
edge $-1 $362 -12.187191205339554 $359 12.187191205339554 $354 $401 forward 7 unknown #
vertex $-1 $358 $402 #
straight-curve $-1 70.50186395934341 -44.473638433865055 -12.187191205339554 -1 0 0 I I #
coedge $-1 $281 $275 $398 $403 forward $282 $-1 #
vertex $-1 $403 $404 #
straight-curve $-1 70.50186395934341 -44.473638433865055 12.187191205339554 1 0 0 I I #
point $-1 64.962920010986664 -44.473638433865055 12.187191205339554 #
point $-1 64.962920010986664 -44.473638433865055 -12.187191205339554 #
vertex $-1 $403 $405 #
straight-curve $-1 70.50186395934341 -38.370856038911221 12.187191205339554 -1 0 0 I I #
vertex $-1 $400 $406 #
straight-curve $-1 70.50186395934341 -38.370856038911221 -12.187191205339554 1 0 0 I I #
edge $-1 $371 69.191627871382451 $374 73.869978851184158 $289 $407 forward 7 unknown #
vertex $-1 $303 $408 #
straight-curve $-1 41.659697955495375 35.372198061299713 12.187191205339559 0 1 0 I I #
edge $-1 $374 -25.469368825533358 $300 -6.9112894343906746 $299 $409 forward 7 unknown #
vertex $-1 $373 $410 #
straight-curve $-1 41.659697955495375 -19.509677247867586 69.296811357113128 0 -0.71933979245794832 0.69465837861970381 I I #
point $-1 41.659697955495375 39.629064285716225 12.187191205339552 #
point $-1 23.101618564352691 44.473638433865062 7.5088402255378455 #
straight-curve $-1 0 44.473638433865055 12.187191205339554 -1 0 0 I I #
vertex $-1 $306 $411 #
point $-1 28.313234442581233 40.310370025856869 8.0451768093370912 #
vertex $-1 $310 $412 #
point $-1 33.880658259924047 40.310370025856869 8.0451768093370912 #
vertex $-1 $314 $413 #
point $-1 39.448082077266861 40.310370025856869 8.0451768093370912 #
straight-curve $-1 -64.962920010986664 44.473638433865055 0 0 0 -1 I I #
point $-1 -64.962920010986664 -44.473638433865055 -12.187191205339554 #
straight-curve $-1 -64.962920010986664 0 -12.187191205339554 0 1 0 I I #
point $-1 -64.962920010986664 44.473638433865055 -12.187191205339554 #
edge $-1 $345 -12.187191205339554 $390 12.187191205339554 $336 $414 forward 7 unknown #
vertex $-1 $338 $415 #
straight-curve $-1 -76.040807907700184 -41.422247236388138 -12.187191205339554 0 1 0 I I #
straight-curve $-1 -76.040807907700184 -41.422247236388138 12.187191205339554 0 -1 0 I I #
point $-1 -76.040807907700184 -38.370856038911221 12.187191205339554 #
point $-1 -76.040807907700184 -38.370856038911221 -12.187191205339554 #
point $-1 -76.040807907700184 -44.473638433865055 12.187191205339554 #
straight-curve $-1 -70.501863959343424 -44.473638433865055 -12.187191205339554 -1 0 0 I I #
coedge $-1 $355 $354 $357 $400 reversed $268 $-1 #
coedge $-1 $354 $355 $361 $403 reversed $268 $-1 #
straight-curve $-1 76.04080790770017 -38.370856038911221 0 0 0 -1 I I #
edge $-1 $368 -3.0513911974769172 $359 3.0513911974769172 $397 $416 forward 7 unknown #
straight-curve $-1 76.04080790770017 -44.473638433865055 0 0 0 -1 I I #
point $-1 76.04080790770017 -44.473638433865055 -12.187191205339554 #
edge $-1 $362 -3.0513911974769172 $366 3.0513911974769172 $398 $417 forward 7 unknown #
point $-1 76.04080790770017 -44.473638433865055 12.187191205339554 #
point $-1 76.04080790770017 -38.370856038911221 12.187191205339554 #
point $-1 76.04080790770017 -38.370856038911221 -12.187191205339554 #
straight-curve $-1 41.659697955495375 44.473638433865055 81.37881907672201 0 0 -1 I I #
point $-1 41.659697955495375 44.473638433865055 12.187191205339554 #
straight-curve $-1 16.190329129962016 44.473638433865055 7.5088402255378526 -1 0 0 I I #
point $-1 41.659697955495375 44.473638433865062 7.5088402255378455 #
point $-1 26.813234442581233 39.268382457927316 6.9661671206501685 #
point $-1 32.380658259924047 39.268382457927316 6.9661671206501685 #
point $-1 37.948082077266861 39.268382457927316 6.9661671206501685 #
straight-curve $-1 -76.040807907700184 -44.473638433865055 0 0 0 -1 I I #
point $-1 -76.040807907700184 -44.473638433865055 -12.187191205339554 #
straight-curve $-1 76.04080790770017 -41.422247236388138 -12.187191205339554 0 -1 0 I I #
straight-curve $-1 76.04080790770017 -41.422247236388138 12.187191205339554 0 1 0 I I #
End-of-ACIS-data 