500 0 4 0           
7 Unknown 11 ACIS 5.0 NT 24 Fri Mar 26 01:27:38 1999 
-1 9.9999999999999995e-007 1e-010 
body $-1 $4 $-1 $5 #
body $-1 $6 $-1 $7 #
body $-1 $8 $-1 $9 #
body $-1 $10 $-1 $11 #
lump $-1 $-1 $12 $0 #
transform $-1 1 0 0 0 1 0 0 0 1 77.38151188695943 37.202023221731032 11.759617783859477 1 rotate no_reflect no_shear #
lump $-1 $-1 $13 $1 #
transform $-1 1 0 0 0 1 0 0 0 1 77.38151188695943 37.202023221731032 11.759617783859477 1 rotate no_reflect no_shear #
lump $-1 $-1 $14 $2 #
transform $-1 1 0 0 0 1 0 0 0 1 77.38151188695943 37.202023221731032 11.759617783859477 1 rotate no_reflect no_shear #
lump $-1 $-1 $15 $3 #
transform $-1 1 0 0 0 1 0 0 0 1 77.38151188695943 37.202023221731032 11.759617783859477 1 rotate no_reflect no_shear #
shell $-1 $-1 $-1 $16 $-1 $4 #
shell $-1 $-1 $-1 $17 $-1 $6 #
shell $-1 $-1 $-1 $18 $-1 $8 #
shell $-1 $-1 $-1 $19 $-1 $10 #
face $-1 $20 $21 $12 $-1 $22 forward single #
face $-1 $23 $24 $13 $-1 $25 forward single #
face $-1 $26 $27 $14 $-1 $28 forward single #
face $-1 $29 $30 $15 $-1 $31 reversed single #
face $-1 $32 $33 $12 $-1 $34 reversed single #
loop $-1 $-1 $35 $16 #
plane-surface $-1 0 0 11.759617783859477 0 0 1 1 0 0 forward_v I I I I #
face $-1 $36 $37 $13 $-1 $38 reversed single #
loop $-1 $-1 $39 $17 #
plane-surface $-1 0 -44.423082431325085 8.3765371365680146 0 0 1 1 0 0 forward_v I I I I #
face $-1 $40 $41 $14 $-1 $42 forward single #
loop $-1 $-1 $43 $18 #
plane-surface $-1 69.743132413339595 -16.282805701523728 226.47412348614645 0 -1 0 -0.68199836817093118 0 -0.7313536940579346 forward_v I I I I #
face $-1 $44 $45 $15 $-1 $46 reversed single #
loop $-1 $47 $48 $19 #
cone-surface $-1 73.869288286726572 -19.521355252033324 8.2946781015149842 -0.68199836817093118 0 -0.7313536940579346 0.7313536940579346 0 -0.68199836817093118 1 I I 0 1 1 forward I I I I #
face $-1 $49 $50 $12 $-1 $51 reversed single #
loop $-1 $-1 $52 $20 #
plane-surface $-1 0 0 -11.759617783859477 0 0 1 1 0 0 forward_v I I I I #
coedge $-1 $53 $54 $55 $56 forward $21 $-1 #
face $-1 $57 $58 $13 $-1 $59 reversed single #
loop $-1 $-1 $60 $23 #
plane-surface $-1 0 -44.423082431325085 3.1318488108205988 0 0 1 1 0 0 forward_v I I I I #
coedge $-1 $61 $62 $63 $64 forward $24 $-1 #
face $-1 $65 $66 $14 $-1 $67 forward single #
loop $-1 $-1 $68 $26 #
plane-surface $-1 -35.804997253672099 -19.521355252033324 113.28761434551494 0.68199836817093118 0 0.7313536940579346 0.7313536940579346 0 -0.68199836817093118 forward_v I I I I #
coedge $-1 $69 $70 $71 $72 reversed $27 $-1 #
face $-1 $73 $74 $15 $-1 $75 forward single #
loop $-1 $76 $77 $29 #
cone-surface $-1 72.171597930654485 -19.521355252033324 6.4741281248196341 -0.68199836817093118 0 -0.7313536940579346 0.3656768470289673 0 -0.34099918408546559 1 I I -0.70710678118654746 0.70710678118654746 0.5 forward I I I I #
loop $-1 $-1 $78 $19 #
coedge $-1 $48 $48 $79 $80 reversed $30 $-1 #
face $-1 $81 $82 $12 $-1 $83 reversed single #
loop $-1 $-1 $84 $32 #
plane-surface $-1 0 -37.202023221731032 0 0 1 0 0 0 1 forward_v I I I I #
coedge $-1 $85 $86 $87 $88 forward $33 $-1 #
coedge $-1 $89 $35 $90 $91 forward $21 $-1 #
coedge $-1 $35 $89 $92 $93 forward $21 $-1 #
coedge $-1 $94 $95 $35 $56 reversed $96 $-1 #
edge $-1 $97 -37.202023221731032 $98 37.202023221731032 $55 $99 forward 7 unknown #
face $-1 $100 $101 $13 $-1 $102 reversed single #
loop $-1 $-1 $103 $36 #
plane-surface $-1 0 -51.644141640919145 5.7541929736943072 0 1 0 0 0 1 forward_v I I I I #
coedge $-1 $104 $105 $106 $107 forward $37 $-1 #
coedge $-1 $108 $39 $109 $110 reversed $24 $-1 #
coedge $-1 $39 $108 $111 $112 forward $24 $-1 #
coedge $-1 $113 $114 $39 $64 reversed $115 $-1 #
edge $-1 $116 -7.2210592095940598 $117 7.2210592095940598 $63 $118 forward 7 unknown #
face $-1 $119 $120 $14 $-1 $121 forward single #
loop $-1 $-1 $122 $40 #
plane-surface $-1 69.743132413339595 -22.75990480254292 226.47412348614645 0 1 0 0.68199836817093118 0 0.7313536940579346 forward_v I I I I #
coedge $-1 $123 $124 $125 $126 reversed $41 $-1 #
coedge $-1 $70 $43 $124 $127 forward $27 $-1 #
coedge $-1 $43 $69 $128 $129 reversed $27 $-1 #
coedge $-1 $130 $125 $43 $72 forward $120 $-1 #
edge $-1 $131 38.198880823797197 $132 42.509945680289633 $71 $133 forward 7 unknown #
face $-1 $134 $135 $15 $-1 $136 forward single #
loop $-1 $-1 $137 $44 #
plane-surface $-1 69.743132413339595 -16.282805701523728 226.47412348614645 0 -1 0 -0.68199836817093118 0 -0.7313536940579346 forward_v I I I I #
loop $-1 $-1 $138 $29 #
coedge $-1 $77 $77 $78 $139 forward $45 $-1 #
coedge $-1 $78 $78 $77 $139 reversed $47 $-1 #
coedge $-1 $79 $79 $48 $80 forward $135 $-1 #
edge $-1 $140 0 $140 6.2831853071796004 $79 $141 forward 7 unknown #
face $-1 $142 $143 $12 $-1 $144 reversed single #
loop $-1 $-1 $145 $49 #
plane-surface $-1 -77.38151188695943 0 0 1 0 0 0 0 -1 forward_v I I I I #
coedge $-1 $146 $92 $147 $148 forward $50 $-1 #
coedge $-1 $149 $52 $146 $150 forward $33 $-1 #
coedge $-1 $52 $149 $151 $152 forward $33 $-1 #
coedge $-1 $95 $94 $52 $88 reversed $96 $-1 #
edge $-1 $153 -37.202023221731032 $154 37.202023221731032 $87 $155 forward 7 unknown #
coedge $-1 $54 $53 $156 $157 forward $21 $-1 #
coedge $-1 $158 $159 $53 $91 reversed $143 $-1 #
edge $-1 $98 -77.38151188695943 $160 77.38151188695943 $90 $161 forward 7 unknown #
coedge $-1 $84 $162 $54 $93 reversed $50 $-1 #
edge $-1 $163 -77.38151188695943 $97 77.38151188695943 $92 $164 forward 7 unknown #
coedge $-1 $87 $55 $162 $165 forward $96 $-1 #
coedge $-1 $55 $87 $158 $166 reversed $96 $-1 #
loop $-1 $-1 $94 $142 #
vertex $-1 $56 $167 #
vertex $-1 $56 $168 #
straight-curve $-1 77.38151188695943 0 11.759617783859477 0 1 0 I I #
face $-1 $169 $170 $13 $-1 $102 reversed single #
loop $-1 $-1 $171 $57 #
plane-surface $-1 0 -37.202023221731032 0 0 1 0 0 0 1 forward_v I I I I #
coedge $-1 $172 $111 $173 $174 forward $58 $-1 #
coedge $-1 $175 $60 $172 $176 forward $37 $-1 #
coedge $-1 $60 $175 $171 $177 reversed $37 $-1 #
coedge $-1 $178 $113 $60 $107 reversed $115 $-1 #
edge $-1 $179 -7.2210592095940598 $180 7.2210592095940598 $106 $181 forward 7 unknown #
coedge $-1 $62 $61 $182 $183 forward $24 $-1 #
coedge $-1 $184 $185 $61 $110 forward $170 $-1 #
edge $-1 $186 -77.38151188695943 $117 77.38151188695943 $109 $187 forward 7 unknown #
coedge $-1 $103 $188 $62 $112 reversed $58 $-1 #
edge $-1 $189 -77.38151188695943 $116 77.38151188695943 $111 $190 forward 7 unknown #
coedge $-1 $106 $63 $188 $191 forward $115 $-1 #
coedge $-1 $63 $192 $184 $193 forward $115 $-1 #
loop $-1 $-1 $114 $194 #
vertex $-1 $64 $195 #
vertex $-1 $64 $196 #
straight-curve $-1 77.38151188695943 -44.423082431325085 8.3765371365680146 0 1 0 I I #
face $-1 $197 $198 $14 $-1 $199 forward single #
loop $-1 $-1 $200 $65 #
plane-surface $-1 0 0 11.759617783859477 0 0 1 1 0 0 forward_v I I I I #
coedge $-1 $201 $202 $200 $203 reversed $66 $-1 #
coedge $-1 $204 $68 $202 $205 reversed $41 $-1 #
coedge $-1 $68 $204 $69 $127 reversed $41 $-1 #
coedge $-1 $71 $200 $68 $126 forward $120 $-1 #
edge $-1 $206 -12.999227176526258 $131 -6.5221280755070659 $125 $207 forward 7 unknown #
edge $-1 $131 148.8683863481169 $208 154.76302377391889 $69 $209 forward 7 unknown #
coedge $-1 $210 $211 $70 $129 forward $212 $-1 #
edge $-1 $132 101.47744395921374 $208 105.49757706457 $128 $213 forward 7 unknown #
coedge $-1 $214 $71 $211 $215 forward $120 $-1 #
vertex $-1 $126 $216 #
vertex $-1 $215 $217 #
straight-curve $-1 34.871566206669797 -16.282805701523728 11.759617783859483 1 0 0 I I #
face $-1 $218 $219 $15 $-1 $220 forward single #
loop $-1 $221 $79 $73 #
plane-surface $-1 -35.804997253672099 -19.521355252033324 113.28761434551494 0.68199836817093118 0 0.7313536940579346 0.7313536940579346 0 -0.68199836817093118 forward_v I I I I #
coedge $-1 $222 $223 $224 $225 reversed $74 $-1 #
coedge $-1 $138 $138 $-1 $226 forward $76 $-1 #
edge $-1 $227 0 $227 6.2831853071796004 $77 $228 forward 7 unknown #
vertex $-1 $80 $229 #
ellipse-curve $-1 75.225979458713198 -19.521355252033324 9.7495512311813677 -0.68199836817093118 0 -0.7313536940579346 0.7313536940579346 0 -0.68199836817093118 1 I I #
face $-1 $-1 $96 $12 $-1 $230 reversed single #
loop $-1 $-1 $158 $81 #
plane-surface $-1 0 37.202023221731032 0 0 -1 0 0 0 -1 forward_v I I I I #
coedge $-1 $231 $156 $159 $232 forward $82 $-1 #
coedge $-1 $162 $84 $85 $150 reversed $50 $-1 #
coedge $-1 $156 $231 $84 $148 reversed $82 $-1 #
edge $-1 $163 -11.759617783859477 $233 11.759617783859477 $147 $234 forward 7 unknown #
coedge $-1 $86 $85 $231 $235 forward $33 $-1 #
edge $-1 $154 -77.38151188695943 $233 77.38151188695943 $146 $236 forward 7 unknown #
coedge $-1 $159 $158 $86 $152 reversed $143 $-1 #
edge $-1 $237 -77.38151188695943 $153 77.38151188695943 $151 $238 forward 7 unknown #
vertex $-1 $88 $239 #
vertex $-1 $165 $240 #
straight-curve $-1 77.38151188695943 0 -11.759617783859477 0 -1 0 I I #
coedge $-1 $145 $147 $89 $157 reversed $82 $-1 #
edge $-1 $160 -37.202023221731032 $163 37.202023221731032 $156 $241 forward 7 unknown #
coedge $-1 $151 $90 $95 $166 forward $143 $-1 #
coedge $-1 $90 $151 $145 $232 reversed $143 $-1 #
vertex $-1 $91 $242 #
straight-curve $-1 0 37.202023221731032 11.759617783859477 -1 0 0 I I #
coedge $-1 $92 $146 $94 $165 reversed $50 $-1 #
vertex $-1 $157 $243 #
straight-curve $-1 0 -37.202023221731032 11.759617783859477 1 0 0 I I #
edge $-1 $97 -11.759617783859477 $154 11.759617783859477 $94 $244 forward 7 unknown #
edge $-1 $98 -11.759617783859477 $153 11.759617783859477 $95 $245 forward 7 unknown #
point $-1 77.38151188695943 -37.202023221731032 11.759617783859477 #
point $-1 77.38151188695943 37.202023221731032 11.759617783859477 #
face $-1 $246 $247 $13 $-1 $248 forward single #
loop $-1 $-1 $109 $100 #
coedge $-1 $249 $250 $105 $177 forward $101 $-1 #
coedge $-1 $188 $103 $104 $176 reversed $58 $-1 #
coedge $-1 $182 $251 $103 $174 reversed $252 $-1 #
edge $-1 $189 -2.6223441628737074 $253 2.6223441628737083 $173 $254 forward 7 unknown #
coedge $-1 $105 $104 $251 $255 forward $37 $-1 #
edge $-1 $180 -77.38151188695943 $253 77.38151188695943 $172 $256 forward 7 unknown #
edge $-1 $179 -77.38151188695943 $257 77.38151188695943 $171 $258 forward 7 unknown #
coedge $-1 $259 $106 $250 $260 forward $115 $-1 #
vertex $-1 $260 $261 #
vertex $-1 $191 $262 #
straight-curve $-1 77.38151188695943 -44.423082431325085 3.1318488108205988 0 -1 0 I I #
coedge $-1 $263 $173 $108 $183 reversed $252 $-1 #
edge $-1 $186 -7.2210592095940598 $189 7.2210592095940598 $182 $264 forward 7 unknown #
coedge $-1 $265 $109 $114 $193 reversed $170 $-1 #
coedge $-1 $109 $265 $263 $266 forward $170 $-1 #
vertex $-1 $266 $267 #
straight-curve $-1 0 -37.202023221731032 8.3765371365680146 1 0 0 I I #
coedge $-1 $111 $172 $113 $191 reversed $58 $-1 #
vertex $-1 $183 $268 #
straight-curve $-1 0 -51.644141640919145 8.3765371365680146 1 0 0 I I #
edge $-1 $116 -2.6223441628737074 $180 2.6223441628737083 $113 $269 forward 7 unknown #
coedge $-1 $114 $270 $271 $272 reversed $115 $-1 #
edge $-1 $273 -11.759617783859477 $117 -8.3765371365680146 $114 $274 forward 7 unknown #
face $-1 $-1 $115 $13 $-1 $275 reversed single #
point $-1 77.38151188695943 -51.644141640919145 8.3765371365680146 #
point $-1 77.38151188695943 -37.202023221731025 8.3765371365680146 #
face $-1 $276 $277 $14 $-1 $278 reversed single #
loop $-1 $-1 $279 $119 #
plane-surface $-1 0 -44.423082431325085 8.3765371365680146 0 0 1 1 0 0 forward_v I I I I #
coedge $-1 $125 $280 $122 $203 forward $120 $-1 #
coedge $-1 $202 $122 $281 $282 reversed $66 $-1 #
coedge $-1 $122 $201 $123 $205 forward $66 $-1 #
edge $-1 $283 -42.509945680289633 $206 -38.198880823797197 $200 $284 forward 7 unknown #
coedge $-1 $124 $123 $210 $285 reversed $41 $-1 #
edge $-1 $286 -154.76302377391889 $206 -148.8683863481169 $202 $287 forward 7 unknown #
vertex $-1 $126 $288 #
straight-curve $-1 73.070447030467008 -9.7606776260166619 11.759617783859483 0 1 0 I I #
vertex $-1 $285 $289 #
straight-curve $-1 -35.804997253672099 -16.282805701523728 113.28761434551494 0.7313536940579346 0 -0.68199836817093118 I I #
coedge $-1 $281 $128 $204 $285 forward $212 $-1 #
coedge $-1 $128 $290 $130 $215 reversed $212 $-1 #
loop $-1 $-1 $281 $291 #
straight-curve $-1 77.38151188695943 -16.282805701523728 113.23706174307323 0 0 -1 I I #
coedge $-1 $292 $130 $293 $294 forward $120 $-1 #
edge $-1 $132 -16.282805701523728 $295 37.202023221731032 $211 $296 forward 7 unknown #
point $-1 73.070447030466994 -16.282805701523728 11.759617783859483 #
point $-1 77.38151188695943 -16.282805701523728 11.759617783859477 #
face $-1 $297 $298 $15 $-1 $299 forward single #
loop $-1 $-1 $300 $134 #
plane-surface $-1 69.743132413339595 -22.75990480254292 226.47412348614645 0 1 0 0.68199836817093118 0 0.7313536940579346 forward_v I I I I #
loop $-1 $-1 $301 $73 #
coedge $-1 $223 $137 $302 $303 forward $74 $-1 #
coedge $-1 $137 $222 $304 $305 reversed $74 $-1 #
coedge $-1 $306 $307 $137 $225 forward $298 $-1 #
edge $-1 $308 38.198880823797197 $309 42.509945680289633 $224 $310 forward 7 unknown #
edge $-1 $311 1 $311 0 $138 $-1 forward 7 unknown #
vertex $-1 $139 $312 #
ellipse-curve $-1 72.512597114739947 -19.521355252033324 6.8398049718486016 0.68199836817093118 0 0.7313536940579346 0.7313536940579346 0 -0.68199836817093118 1 I I #
point $-1 75.957333152771142 -19.521355252033324 9.0675528630104356 #
plane-surface $-1 77.38151188695943 0 0 -1 0 0 0 0 1 forward_v I I I I #
coedge $-1 $147 $145 $149 $235 reversed $82 $-1 #
edge $-1 $160 -11.759617783859477 $237 11.759617783859477 $159 $313 forward 7 unknown #
vertex $-1 $235 $314 #
straight-curve $-1 -77.38151188695943 -37.202023221731032 0 0 0 -1 I I #
edge $-1 $233 -37.202023221731032 $237 37.202023221731032 $231 $315 forward 7 unknown #
straight-curve $-1 0 -37.202023221731032 -11.759617783859477 -1 0 0 I I #
vertex $-1 $152 $316 #
straight-curve $-1 0 37.202023221731032 -11.759617783859477 1 0 0 I I #
point $-1 77.38151188695943 37.202023221731032 -11.759617783859477 #
point $-1 77.38151188695943 -37.202023221731032 -11.759617783859477 #
straight-curve $-1 -77.38151188695943 0 11.759617783859477 0 -1 0 I I #
point $-1 -77.38151188695943 37.202023221731032 11.759617783859477 #
point $-1 -77.38151188695943 -37.202023221731032 11.759617783859477 #
straight-curve $-1 77.38151188695943 -37.202023221731032 0 0 0 -1 I I #
straight-curve $-1 77.38151188695943 37.202023221731032 0 0 0 -1 I I #
face $-1 $317 $318 $13 $-1 $319 reversed single #
loop $-1 $-1 $271 $169 #
plane-surface $-1 0 0 11.759617783859477 0 0 1 1 0 0 forward_v I I I I #
coedge $-1 $320 $171 $321 $322 forward $101 $-1 #
coedge $-1 $171 $320 $178 $260 reversed $101 $-1 #
coedge $-1 $173 $321 $175 $255 reversed $252 $-1 #
loop $-1 $-1 $323 $317 #
vertex $-1 $255 $324 #
straight-curve $-1 -77.38151188695943 -51.644141640919145 5.7541929736943072 0 0 -1 I I #
edge $-1 $253 -7.2210592095940598 $257 7.2210592095940598 $251 $325 forward 7 unknown #
straight-curve $-1 0 -51.644141640919145 3.1318488108205988 -1 0 0 I I #
vertex $-1 $322 $326 #
straight-curve $-1 0 -37.202023221731032 3.1318488108205988 -1 0 0 I I #
coedge $-1 $270 $178 $327 $328 reversed $115 $-1 #
edge $-1 $179 -3.1318488108205988 $329 11.759617783859477 $178 $274 forward 7 unknown #
point $-1 77.38151188695943 -37.202023221731025 3.1318488108205988 #
point $-1 77.38151188695943 -51.644141640919145 3.1318488108205988 #
coedge $-1 $330 $182 $185 $266 reversed $252 $-1 #
straight-curve $-1 -77.38151188695943 -44.423082431325085 8.3765371365680146 0 -1 0 I I #
coedge $-1 $185 $184 $331 $332 reversed $170 $-1 #
edge $-1 $333 -11.759617783859477 $186 -8.3765371365680146 $263 $334 forward 7 unknown #
point $-1 -77.38151188695943 -37.202023221731025 8.3765371365680146 #
point $-1 -77.38151188695943 -51.644141640919145 8.3765371365680146 #
straight-curve $-1 77.38151188695943 -51.644141640919145 5.7541929736943072 0 0 -1 I I #
coedge $-1 $192 $259 $335 $336 reversed $115 $-1 #
coedge $-1 $337 $331 $192 $272 forward $247 $-1 #
edge $-1 $273 -37.202023221731032 $338 37.202023221731032 $192 $339 forward 7 unknown #
vertex $-1 $272 $340 #
straight-curve $-1 77.38151188695943 -37.202023221731032 0 0 0 -1 I I #
plane-surface $-1 77.38151188695943 0 0 -1 0 0 0 0 1 forward_v I I I I #
face $-1 $341 $342 $14 $-1 $343 reversed single #
loop $-1 $-1 $344 $197 #
plane-surface $-1 0 -44.423082431325085 3.1318488108205988 0 0 1 1 0 0 forward_v I I I I #
coedge $-1 $345 $346 $347 $348 forward $198 $-1 #
coedge $-1 $200 $349 $350 $351 forward $120 $-1 #
coedge $-1 $350 $210 $201 $282 forward $212 $-1 #
edge $-1 $286 -105.49757706457 $283 -101.47744395921374 $281 $352 forward 7 unknown #
vertex $-1 $282 $353 #
straight-curve $-1 34.871566206669797 -22.75990480254292 11.759617783859483 -1 0 0 I I #
edge $-1 $208 6.5221280755070659 $286 12.999227176526258 $210 $354 forward 7 unknown #
vertex $-1 $285 $355 #
straight-curve $-1 -35.804997253672099 -22.75990480254292 113.28761434551494 -0.7313536940579346 0 0.68199836817093118 I I #
point $-1 73.070447030466994 -22.75990480254292 11.759617783859483 #
point $-1 77.38151188695943 -16.282805701523728 7.7394846785032314 #
coedge $-1 $211 $356 $357 $358 reversed $212 $-1 #
face $-1 $-1 $212 $14 $-1 $359 reversed single #
coedge $-1 $349 $214 $360 $361 forward $120 $-1 #
coedge $-1 $357 $362 $214 $294 reversed $363 $-1 #
edge $-1 $295 -77.38151188695943 $364 77.38151188695943 $293 $365 forward 7 unknown #
vertex $-1 $215 $366 #
straight-curve $-1 77.38151188695943 0 11.759617783859477 0 1 0 I I #
face $-1 $367 $368 $15 $-1 $369 forward single #
loop $-1 $-1 $370 $218 #
plane-surface $-1 0 0 11.759617783859477 0 0 1 1 0 0 forward_v I I I I #
coedge $-1 $371 $372 $370 $373 reversed $219 $-1 #
coedge $-1 $374 $302 $307 $375 reversed $221 $-1 #
coedge $-1 $301 $376 $222 $303 reversed $221 $-1 #
edge $-1 $308 148.8683863481169 $377 154.76302377391889 $222 $378 forward 7 unknown #
coedge $-1 $379 $380 $223 $305 forward $381 $-1 #
edge $-1 $309 101.47744395921374 $377 105.49757706457 $304 $382 forward 7 unknown #
coedge $-1 $383 $224 $380 $384 forward $298 $-1 #
coedge $-1 $224 $370 $301 $375 forward $298 $-1 #
vertex $-1 $375 $385 #
vertex $-1 $384 $386 #
straight-curve $-1 34.871566206669797 -16.282805701523728 11.759617783859483 1 0 0 I I #
vertex $-1 $226 $387 #
point $-1 73.243950808797891 -19.521355252033324 6.1578066036776704 #
straight-curve $-1 -77.38151188695943 37.202023221731032 0 0 0 -1 I I #
point $-1 -77.38151188695943 -37.202023221731032 -11.759617783859477 #
straight-curve $-1 -77.38151188695943 0 -11.759617783859477 0 1 0 I I #
point $-1 -77.38151188695943 37.202023221731032 -11.759617783859477 #
face $-1 $388 $252 $13 $-1 $389 reversed single #
loop $-1 $-1 $327 $246 #
plane-surface $-1 0 0 -11.759617783859477 0 0 1 1 0 0 forward_v I I I I #
coedge $-1 $250 $249 $390 $391 reversed $101 $-1 #
coedge $-1 $251 $392 $249 $322 reversed $252 $-1 #
edge $-1 $257 -3.1318488108205988 $393 11.759617783859477 $321 $334 forward 7 unknown #
coedge $-1 $392 $330 $394 $395 forward $252 $-1 #
point $-1 -77.38151188695943 -51.644141640919145 3.1318488108205988 #
straight-curve $-1 -77.38151188695943 -44.423082431325085 3.1318488108205988 0 1 0 I I #
point $-1 -77.38151188695943 -37.202023221731025 3.1318488108205988 #
coedge $-1 $390 $396 $259 $328 forward $318 $-1 #
edge $-1 $397 -37.202023221731032 $329 37.202023221731032 $259 $398 forward 7 unknown #
vertex $-1 $260 $399 #
coedge $-1 $323 $263 $400 $401 reversed $252 $-1 #
coedge $-1 $271 $400 $265 $332 forward $247 $-1 #
edge $-1 $333 -77.38151188695943 $273 77.38151188695943 $265 $402 forward 7 unknown #
vertex $-1 $401 $403 #
straight-curve $-1 -77.38151188695943 -37.202023221731032 0 0 0 -1 I I #
coedge $-1 $404 $405 $270 $336 forward $406 $-1 #
edge $-1 $338 -11.759617783859477 $397 11.759617783859477 $270 $407 forward 7 unknown #
coedge $-1 $400 $271 $405 $408 forward $247 $-1 #
vertex $-1 $272 $409 #
straight-curve $-1 77.38151188695943 0 11.759617783859477 0 1 0 I I #
point $-1 77.38151188695943 -37.202023221731032 11.759617783859477 #
face $-1 $410 $411 $14 $-1 $412 reversed single #
loop $-1 $-1 $413 $276 #
plane-surface $-1 0 -51.644141640919145 5.7541929736943072 0 1 0 0 0 1 forward_v I I I I #
coedge $-1 $414 $415 $416 $417 forward $277 $-1 #
coedge $-1 $418 $279 $419 $420 reversed $198 $-1 #
coedge $-1 $279 $418 $421 $422 forward $198 $-1 #
coedge $-1 $423 $424 $279 $348 reversed $212 $-1 #
edge $-1 $425 -7.2210592095940598 $426 7.2210592095940598 $347 $427 forward 7 unknown #
coedge $-1 $280 $292 $428 $429 forward $120 $-1 #
coedge $-1 $424 $281 $280 $351 reversed $212 $-1 #
edge $-1 $430 -37.202023221731032 $283 -22.75990480254292 $350 $296 forward 7 unknown #
straight-curve $-1 77.38151188695943 -22.75990480254292 113.23706174307323 0 0 1 I I #
point $-1 77.38151188695943 -22.75990480254292 11.759617783859477 #
straight-curve $-1 77.38151188695943 -9.7606776260166619 7.7394846785032385 0 -1 0 I I #
point $-1 77.38151188695943 -22.75990480254292 7.7394846785032314 #
coedge $-1 $290 $431 $432 $433 reversed $212 $-1 #
coedge $-1 $434 $293 $290 $358 forward $363 $-1 #
edge $-1 $295 -11.759617783859477 $435 11.759617783859477 $290 $436 forward 7 unknown #
plane-surface $-1 77.38151188695943 0 0 -1 0 0 0 0 1 forward_v I I I I #
coedge $-1 $437 $438 $292 $361 reversed $439 $-1 #
edge $-1 $364 -37.202023221731032 $440 37.202023221731032 $360 $441 forward 7 unknown #
coedge $-1 $293 $434 $437 $442 reversed $363 $-1 #
loop $-1 $-1 $357 $443 #
vertex $-1 $294 $444 #
straight-curve $-1 0 37.202023221731032 11.759617783859477 -1 0 0 I I #
point $-1 77.38151188695943 37.202023221731032 11.759617783859477 #
face $-1 $445 $446 $15 $-1 $447 reversed single #
loop $-1 $-1 $448 $297 #
plane-surface $-1 0 -44.423082431325085 8.3765371365680146 0 0 1 1 0 0 forward_v I I I I #
coedge $-1 $307 $449 $300 $373 forward $298 $-1 #
coedge $-1 $372 $300 $450 $451 reversed $219 $-1 #
coedge $-1 $300 $371 $374 $452 forward $219 $-1 #
edge $-1 $453 -42.509945680289633 $454 -38.198880823797197 $370 $455 forward 7 unknown #
coedge $-1 $376 $301 $372 $452 reversed $221 $-1 #
edge $-1 $454 -12.999227176526258 $308 -6.5221280755070659 $307 $456 forward 7 unknown #
coedge $-1 $302 $374 $379 $457 reversed $221 $-1 #
vertex $-1 $457 $458 #
straight-curve $-1 -35.804997253672099 -16.282805701523728 113.28761434551494 0.7313536940579346 0 -0.68199836817093118 I I #
coedge $-1 $450 $304 $376 $457 forward $381 $-1 #
coedge $-1 $304 $459 $306 $384 reversed $381 $-1 #
loop $-1 $-1 $450 $460 #
straight-curve $-1 77.38151188695943 -16.282805701523728 113.23706174307323 0 0 -1 I I #
coedge $-1 $461 $306 $462 $463 forward $298 $-1 #
edge $-1 $309 -16.282805701523728 $464 37.202023221731032 $380 $465 forward 7 unknown #
point $-1 73.070447030466994 -16.282805701523728 11.759617783859483 #
point $-1 77.38151188695943 -16.282805701523728 11.759617783859477 #
point $-1 71.830598746569024 -19.521355252033324 6.1084512777906665 #
face $-1 $194 $406 $13 $-1 $466 reversed single #
plane-surface $-1 -77.38151188695943 0 0 1 0 0 0 0 -1 forward_v I I I I #
coedge $-1 $467 $327 $320 $391 forward $318 $-1 #
edge $-1 $329 -77.38151188695943 $393 77.38151188695943 $320 $468 forward 7 unknown #
coedge $-1 $321 $323 $467 $469 reversed $252 $-1 #
vertex $-1 $469 $470 #
coedge $-1 $405 $404 $323 $395 reversed $406 $-1 #
edge $-1 $471 -11.759617783859477 $472 11.759617783859477 $394 $473 forward 7 unknown #
coedge $-1 $327 $467 $404 $474 forward $318 $-1 #
vertex $-1 $328 $475 #
straight-curve $-1 77.38151188695943 0 -11.759617783859477 0 -1 0 I I #
point $-1 77.38151188695943 -37.202023221731032 -11.759617783859477 #
coedge $-1 $331 $337 $330 $401 forward $247 $-1 #
edge $-1 $471 -37.202023221731032 $333 37.202023221731032 $330 $476 forward 7 unknown #
straight-curve $-1 0 -37.202023221731032 11.759617783859477 1 0 0 I I #
point $-1 -77.38151188695943 -37.202023221731032 11.759617783859477 #
coedge $-1 $394 $335 $396 $474 reversed $406 $-1 #
coedge $-1 $335 $394 $337 $408 reversed $406 $-1 #
loop $-1 $-1 $335 $388 #
straight-curve $-1 77.38151188695943 37.202023221731032 0 0 0 -1 I I #
edge $-1 $338 -77.38151188695943 $471 77.38151188695943 $405 $477 forward 7 unknown #
point $-1 77.38151188695943 37.202023221731032 11.759617783859477 #
face $-1 $478 $479 $14 $-1 $412 reversed single #
loop $-1 $-1 $480 $341 #
plane-surface $-1 0 -37.202023221731032 0 0 1 0 0 0 1 forward_v I I I I #
coedge $-1 $481 $421 $482 $483 forward $342 $-1 #
coedge $-1 $484 $344 $481 $485 forward $277 $-1 #
coedge $-1 $344 $484 $480 $486 reversed $277 $-1 #
coedge $-1 $431 $423 $344 $417 reversed $212 $-1 #
edge $-1 $487 -7.2210592095940598 $488 7.2210592095940598 $416 $489 forward 7 unknown #
coedge $-1 $346 $345 $490 $491 forward $198 $-1 #
coedge $-1 $492 $493 $345 $420 forward $479 $-1 #
edge $-1 $494 -77.38151188695943 $426 77.38151188695943 $419 $495 forward 7 unknown #
coedge $-1 $413 $496 $346 $422 reversed $342 $-1 #
edge $-1 $497 -77.38151188695943 $425 77.38151188695943 $421 $498 forward 7 unknown #
coedge $-1 $416 $347 $496 $499 forward $212 $-1 #
coedge $-1 $347 $350 $492 $500 forward $212 $-1 #
vertex $-1 $348 $501 #
vertex $-1 $348 $502 #
straight-curve $-1 77.38151188695943 -44.423082431325085 8.3765371365680146 0 1 0 I I #
coedge $-1 $493 $492 $349 $429 reversed $479 $-1 #
edge $-1 $440 -77.38151188695943 $430 77.38151188695943 $428 $503 forward 7 unknown #
vertex $-1 $351 $504 #
coedge $-1 $356 $416 $505 $506 forward $212 $-1 #
coedge $-1 $507 $508 $356 $433 forward $509 $-1 #
edge $-1 $435 -37.202023221731032 $510 37.202023221731032 $356 $511 forward 7 unknown #
coedge $-1 $362 $357 $508 $512 reversed $363 $-1 #
vertex $-1 $433 $513 #
straight-curve $-1 77.38151188695943 37.202023221731032 0 0 0 -1 I I #
coedge $-1 $514 $360 $362 $442 forward $439 $-1 #
coedge $-1 $360 $490 $493 $515 reversed $439 $-1 #
loop $-1 $-1 $437 $516 #
vertex $-1 $361 $517 #
straight-curve $-1 -77.38151188695943 0 11.759617783859477 0 -1 0 I I #
edge $-1 $364 -11.759617783859477 $518 11.759617783859477 $362 $519 forward 7 unknown #
face $-1 $291 $363 $14 $-1 $520 reversed single #
point $-1 -77.38151188695943 37.202023221731032 11.759617783859477 #
face $-1 $521 $522 $15 $-1 $523 reversed single #
loop $-1 $-1 $524 $367 #
plane-surface $-1 0 -44.423082431325085 3.1318488108205988 0 0 1 1 0 0 forward_v I I I I #
coedge $-1 $525 $526 $527 $528 forward $368 $-1 #
coedge $-1 $370 $529 $530 $531 forward $298 $-1 #
coedge $-1 $530 $379 $371 $451 forward $381 $-1 #
edge $-1 $532 -105.49757706457 $453 -101.47744395921374 $450 $533 forward 7 unknown #
edge $-1 $532 -154.76302377391889 $454 -148.8683863481169 $372 $534 forward 7 unknown #
vertex $-1 $451 $535 #
vertex $-1 $375 $536 #
straight-curve $-1 34.871566206669797 -22.75990480254292 11.759617783859483 -1 0 0 I I #
straight-curve $-1 73.070447030467008 -9.7606776260166619 11.759617783859483 0 1 0 I I #
edge $-1 $377 6.5221280755070659 $532 12.999227176526258 $379 $537 forward 7 unknown #
point $-1 77.38151188695943 -16.282805701523728 7.7394846785032314 #
coedge $-1 $380 $538 $539 $540 reversed $381 $-1 #
face $-1 $-1 $381 $15 $-1 $541 reversed single #
coedge $-1 $529 $383 $542 $543 forward $298 $-1 #
coedge $-1 $539 $544 $383 $463 reversed $545 $-1 #
edge $-1 $464 -77.38151188695943 $546 77.38151188695943 $462 $547 forward 7 unknown #
vertex $-1 $384 $548 #
straight-curve $-1 77.38151188695943 0 11.759617783859477 0 1 0 I I #
plane-surface $-1 0 37.202023221731032 0 0 -1 0 0 0 -1 forward_v I I I I #
coedge $-1 $396 $390 $392 $469 forward $318 $-1 #
straight-curve $-1 0 -37.202023221731032 -11.759617783859477 -1 0 0 I I #
edge $-1 $393 -37.202023221731032 $472 37.202023221731032 $392 $549 forward 7 unknown #
point $-1 -77.38151188695943 -37.202023221731032 -11.759617783859477 #
vertex $-1 $408 $550 #
vertex $-1 $474 $551 #
straight-curve $-1 -77.38151188695943 37.202023221731032 0 0 0 -1 I I #
edge $-1 $472 -77.38151188695943 $397 77.38151188695943 $404 $552 forward 7 unknown #
point $-1 77.38151188695943 37.202023221731032 -11.759617783859477 #
straight-curve $-1 -77.38151188695943 0 11.759617783859477 0 -1 0 I I #
straight-curve $-1 0 37.202023221731032 11.759617783859477 -1 0 0 I I #
face $-1 $516 $509 $14 $-1 $553 reversed single #
loop $-1 $-1 $419 $410 #
coedge $-1 $554 $505 $415 $486 forward $411 $-1 #
coedge $-1 $496 $413 $414 $485 reversed $342 $-1 #
coedge $-1 $490 $555 $413 $483 reversed $439 $-1 #
edge $-1 $497 -2.6223441628737074 $556 2.6223441628737083 $482 $557 forward 7 unknown #
coedge $-1 $415 $414 $555 $558 forward $277 $-1 #
edge $-1 $488 -77.38151188695943 $556 77.38151188695943 $481 $559 forward 7 unknown #
edge $-1 $487 -77.38151188695943 $560 77.38151188695943 $480 $561 forward 7 unknown #
vertex $-1 $506 $562 #
vertex $-1 $499 $563 #
straight-curve $-1 77.38151188695943 -44.423082431325085 3.1318488108205988 0 -1 0 I I #
coedge $-1 $438 $482 $418 $491 reversed $439 $-1 #
edge $-1 $494 -7.2210592095940598 $497 7.2210592095940598 $490 $564 forward 7 unknown #
coedge $-1 $428 $419 $424 $500 reversed $479 $-1 #
coedge $-1 $419 $428 $438 $515 forward $479 $-1 #
vertex $-1 $515 $565 #
straight-curve $-1 0 -37.202023221731032 8.3765371365680146 1 0 0 I I #
coedge $-1 $421 $481 $423 $499 reversed $342 $-1 #
vertex $-1 $491 $566 #
straight-curve $-1 0 -51.644141640919145 8.3765371365680146 1 0 0 I I #
edge $-1 $425 -2.6223441628737074 $488 2.6223441628737083 $423 $567 forward 7 unknown #
edge $-1 $430 -11.759617783859477 $426 -8.3765371365680146 $424 $568 forward 7 unknown #
point $-1 77.38151188695943 -51.644141640919145 8.3765371365680146 #
point $-1 77.38151188695943 -37.202023221731025 8.3765371365680146 #
straight-curve $-1 0 -37.202023221731032 11.759617783859477 1 0 0 I I #
point $-1 77.38151188695943 -37.202023221731032 11.759617783859477 #
coedge $-1 $480 $569 $431 $506 reversed $411 $-1 #
edge $-1 $487 -3.1318488108205988 $510 11.759617783859477 $431 $568 forward 7 unknown #
coedge $-1 $570 $432 $569 $571 forward $509 $-1 #
coedge $-1 $432 $570 $434 $512 forward $509 $-1 #
loop $-1 $-1 $432 $478 #
vertex $-1 $506 $572 #
straight-curve $-1 77.38151188695943 0 -11.759617783859477 0 -1 0 I I #
edge $-1 $518 -77.38151188695943 $435 77.38151188695943 $434 $573 forward 7 unknown #
point $-1 77.38151188695943 37.202023221731032 -11.759617783859477 #
coedge $-1 $574 $437 $570 $575 reversed $439 $-1 #
edge $-1 $440 -11.759617783859477 $494 -8.3765371365680146 $438 $576 forward 7 unknown #
face $-1 $443 $439 $14 $-1 $577 reversed single #
point $-1 -77.38151188695943 -37.202023221731032 11.759617783859477 #
vertex $-1 $512 $578 #
straight-curve $-1 -77.38151188695943 37.202023221731032 0 0 0 -1 I I #
plane-surface $-1 0 37.202023221731032 0 0 -1 0 0 0 -1 forward_v I I I I #
face $-1 $579 $580 $15 $-1 $581 reversed single #
loop $-1 $-1 $582 $445 #
plane-surface $-1 0 -51.644141640919145 5.7541929736943072 0 1 0 0 0 1 forward_v I I I I #
coedge $-1 $583 $584 $585 $586 forward $446 $-1 #
coedge $-1 $587 $448 $588 $589 reversed $368 $-1 #
coedge $-1 $448 $587 $590 $591 forward $368 $-1 #
coedge $-1 $592 $593 $448 $528 reversed $381 $-1 #
edge $-1 $594 -7.2210592095940598 $595 7.2210592095940598 $527 $596 forward 7 unknown #
coedge $-1 $449 $461 $597 $598 forward $298 $-1 #
coedge $-1 $593 $450 $449 $531 reversed $381 $-1 #
edge $-1 $599 -37.202023221731032 $453 -22.75990480254292 $530 $465 forward 7 unknown #
vertex $-1 $457 $600 #
straight-curve $-1 77.38151188695943 -22.75990480254292 113.23706174307323 0 0 1 I I #
straight-curve $-1 -35.804997253672099 -22.75990480254292 113.28761434551494 -0.7313536940579346 0 0.68199836817093118 I I #
point $-1 77.38151188695943 -22.75990480254292 11.759617783859477 #
point $-1 73.070447030466994 -22.75990480254292 11.759617783859483 #
straight-curve $-1 77.38151188695943 -9.7606776260166619 7.7394846785032385 0 -1 0 I I #
coedge $-1 $459 $601 $602 $603 reversed $381 $-1 #
coedge $-1 $604 $462 $459 $540 forward $545 $-1 #
edge $-1 $464 -11.759617783859477 $605 11.759617783859477 $459 $606 forward 7 unknown #
plane-surface $-1 77.38151188695943 0 0 -1 0 0 0 0 1 forward_v I I I I #
coedge $-1 $607 $608 $461 $543 reversed $609 $-1 #
edge $-1 $546 -37.202023221731032 $610 37.202023221731032 $542 $611 forward 7 unknown #
coedge $-1 $462 $604 $607 $612 reversed $545 $-1 #
loop $-1 $-1 $539 $613 #
vertex $-1 $463 $614 #
straight-curve $-1 0 37.202023221731032 11.759617783859477 -1 0 0 I I #
point $-1 77.38151188695943 37.202023221731032 11.759617783859477 #
straight-curve $-1 -77.38151188695943 0 -11.759617783859477 0 1 0 I I #
point $-1 -77.38151188695943 37.202023221731032 11.759617783859477 #
point $-1 -77.38151188695943 37.202023221731032 -11.759617783859477 #
straight-curve $-1 0 37.202023221731032 -11.759617783859477 1 0 0 I I #
plane-surface $-1 0 0 -11.759617783859477 0 0 1 1 0 0 forward_v I I I I #
coedge $-1 $569 $480 $574 $615 forward $411 $-1 #
coedge $-1 $482 $574 $484 $558 reversed $439 $-1 #
vertex $-1 $558 $616 #
straight-curve $-1 -77.38151188695943 -51.644141640919145 5.7541929736943072 0 0 -1 I I #
edge $-1 $556 -7.2210592095940598 $560 7.2210592095940598 $555 $617 forward 7 unknown #
straight-curve $-1 0 -51.644141640919145 3.1318488108205988 -1 0 0 I I #
vertex $-1 $615 $618 #
straight-curve $-1 0 -37.202023221731032 3.1318488108205988 -1 0 0 I I #
point $-1 77.38151188695943 -37.202023221731025 3.1318488108205988 #
point $-1 77.38151188695943 -51.644141640919145 3.1318488108205988 #
straight-curve $-1 -77.38151188695943 -44.423082431325085 8.3765371365680146 0 -1 0 I I #
point $-1 -77.38151188695943 -37.202023221731025 8.3765371365680146 #
point $-1 -77.38151188695943 -51.644141640919145 8.3765371365680146 #
straight-curve $-1 77.38151188695943 -51.644141640919145 5.7541929736943072 0 0 -1 I I #
straight-curve $-1 77.38151188695943 -37.202023221731032 0 0 0 -1 I I #
coedge $-1 $505 $554 $507 $571 reversed $411 $-1 #
coedge $-1 $508 $507 $514 $575 forward $509 $-1 #
edge $-1 $510 -77.38151188695943 $619 77.38151188695943 $569 $620 forward 7 unknown #
point $-1 77.38151188695943 -37.202023221731032 -11.759617783859477 #
straight-curve $-1 0 37.202023221731032 -11.759617783859477 1 0 0 I I #
coedge $-1 $555 $514 $554 $615 reversed $439 $-1 #
edge $-1 $619 -37.202023221731032 $518 37.202023221731032 $514 $621 forward 7 unknown #
straight-curve $-1 -77.38151188695943 -37.202023221731032 0 0 0 -1 I I #
plane-surface $-1 -77.38151188695943 0 0 1 0 0 0 0 -1 forward_v I I I I #
point $-1 -77.38151188695943 37.202023221731032 -11.759617783859477 #
face $-1 $622 $623 $15 $-1 $581 reversed single #
loop $-1 $-1 $624 $521 #
plane-surface $-1 0 -37.202023221731032 0 0 1 0 0 0 1 forward_v I I I I #
coedge $-1 $625 $590 $626 $627 forward $522 $-1 #
coedge $-1 $628 $524 $625 $629 forward $446 $-1 #
coedge $-1 $524 $628 $624 $630 reversed $446 $-1 #
coedge $-1 $601 $592 $524 $586 reversed $381 $-1 #
edge $-1 $631 -7.2210592095940598 $632 7.2210592095940598 $585 $633 forward 7 unknown #
coedge $-1 $526 $525 $634 $635 forward $368 $-1 #
coedge $-1 $636 $637 $525 $589 forward $623 $-1 #
edge $-1 $638 -77.38151188695943 $595 77.38151188695943 $588 $639 forward 7 unknown #
coedge $-1 $582 $640 $526 $591 reversed $522 $-1 #
edge $-1 $641 -77.38151188695943 $594 77.38151188695943 $590 $642 forward 7 unknown #
coedge $-1 $585 $527 $640 $643 forward $381 $-1 #
coedge $-1 $527 $530 $636 $644 forward $381 $-1 #
vertex $-1 $528 $645 #
vertex $-1 $528 $646 #
straight-curve $-1 77.38151188695943 -44.423082431325085 8.3765371365680146 0 1 0 I I #
coedge $-1 $637 $636 $529 $598 reversed $623 $-1 #
edge $-1 $610 -77.38151188695943 $599 77.38151188695943 $597 $647 forward 7 unknown #
vertex $-1 $531 $648 #
point $-1 77.38151188695943 -22.75990480254292 7.7394846785032314 #
coedge $-1 $538 $585 $649 $650 forward $381 $-1 #
coedge $-1 $651 $652 $538 $603 forward $653 $-1 #
edge $-1 $605 -37.202023221731032 $654 37.202023221731032 $538 $655 forward 7 unknown #
coedge $-1 $544 $539 $652 $656 reversed $545 $-1 #
vertex $-1 $603 $657 #
straight-curve $-1 77.38151188695943 37.202023221731032 0 0 0 -1 I I #
coedge $-1 $658 $542 $544 $612 forward $609 $-1 #
coedge $-1 $542 $634 $637 $659 reversed $609 $-1 #
loop $-1 $-1 $607 $660 #
vertex $-1 $543 $661 #
straight-curve $-1 -77.38151188695943 0 11.759617783859477 0 -1 0 I I #
edge $-1 $546 -11.759617783859477 $662 11.759617783859477 $544 $663 forward 7 unknown #
face $-1 $460 $545 $15 $-1 $664 reversed single #
point $-1 -77.38151188695943 37.202023221731032 11.759617783859477 #
edge $-1 $560 -3.1318488108205988 $619 11.759617783859477 $574 $576 forward 7 unknown #
point $-1 -77.38151188695943 -51.644141640919145 3.1318488108205988 #
straight-curve $-1 -77.38151188695943 -44.423082431325085 3.1318488108205988 0 1 0 I I #
point $-1 -77.38151188695943 -37.202023221731025 3.1318488108205988 #
vertex $-1 $575 $665 #
straight-curve $-1 0 -37.202023221731032 -11.759617783859477 -1 0 0 I I #
straight-curve $-1 -77.38151188695943 0 -11.759617783859477 0 1 0 I I #
face $-1 $660 $653 $15 $-1 $666 reversed single #
loop $-1 $-1 $588 $579 #
coedge $-1 $667 $649 $584 $630 forward $580 $-1 #
coedge $-1 $640 $582 $583 $629 reversed $522 $-1 #
coedge $-1 $634 $668 $582 $627 reversed $609 $-1 #
edge $-1 $641 -2.6223441628737074 $669 2.6223441628737083 $626 $670 forward 7 unknown #
coedge $-1 $584 $583 $668 $671 forward $446 $-1 #
edge $-1 $632 -77.38151188695943 $669 77.38151188695943 $625 $672 forward 7 unknown #
edge $-1 $631 -77.38151188695943 $673 77.38151188695943 $624 $674 forward 7 unknown #
vertex $-1 $650 $675 #
vertex $-1 $643 $676 #
straight-curve $-1 77.38151188695943 -44.423082431325085 3.1318488108205988 0 -1 0 I I #
coedge $-1 $608 $626 $587 $635 reversed $609 $-1 #
edge $-1 $638 -7.2210592095940598 $641 7.2210592095940598 $634 $677 forward 7 unknown #
coedge $-1 $597 $588 $593 $644 reversed $623 $-1 #
coedge $-1 $588 $597 $608 $659 forward $623 $-1 #
vertex $-1 $659 $678 #
straight-curve $-1 0 -37.202023221731032 8.3765371365680146 1 0 0 I I #
coedge $-1 $590 $625 $592 $643 reversed $522 $-1 #
vertex $-1 $635 $679 #
straight-curve $-1 0 -51.644141640919145 8.3765371365680146 1 0 0 I I #
edge $-1 $594 -2.6223441628737074 $632 2.6223441628737083 $592 $680 forward 7 unknown #
edge $-1 $599 -11.759617783859477 $595 -8.3765371365680146 $593 $681 forward 7 unknown #
point $-1 77.38151188695943 -51.644141640919145 8.3765371365680146 #
point $-1 77.38151188695943 -37.202023221731025 8.3765371365680146 #
straight-curve $-1 0 -37.202023221731032 11.759617783859477 1 0 0 I I #
point $-1 77.38151188695943 -37.202023221731032 11.759617783859477 #
coedge $-1 $624 $682 $601 $650 reversed $580 $-1 #
edge $-1 $631 -3.1318488108205988 $654 11.759617783859477 $601 $681 forward 7 unknown #
coedge $-1 $683 $602 $682 $684 forward $653 $-1 #
coedge $-1 $602 $683 $604 $656 forward $653 $-1 #
loop $-1 $-1 $602 $622 #
vertex $-1 $650 $685 #
straight-curve $-1 77.38151188695943 0 -11.759617783859477 0 -1 0 I I #
edge $-1 $662 -77.38151188695943 $605 77.38151188695943 $604 $686 forward 7 unknown #
point $-1 77.38151188695943 37.202023221731032 -11.759617783859477 #
coedge $-1 $687 $607 $683 $688 reversed $609 $-1 #
edge $-1 $610 -11.759617783859477 $638 -8.3765371365680146 $608 $689 forward 7 unknown #
face $-1 $613 $609 $15 $-1 $690 reversed single #
point $-1 -77.38151188695943 -37.202023221731032 11.759617783859477 #
vertex $-1 $656 $691 #
straight-curve $-1 -77.38151188695943 37.202023221731032 0 0 0 -1 I I #
plane-surface $-1 0 37.202023221731032 0 0 -1 0 0 0 -1 forward_v I I I I #
point $-1 -77.38151188695943 -37.202023221731032 -11.759617783859477 #
plane-surface $-1 0 0 -11.759617783859477 0 0 1 1 0 0 forward_v I I I I #
coedge $-1 $682 $624 $687 $692 forward $580 $-1 #
coedge $-1 $626 $687 $628 $671 reversed $609 $-1 #
vertex $-1 $671 $693 #
straight-curve $-1 -77.38151188695943 -51.644141640919145 5.7541929736943072 0 0 -1 I I #
edge $-1 $669 -7.2210592095940598 $673 7.2210592095940598 $668 $694 forward 7 unknown #
straight-curve $-1 0 -51.644141640919145 3.1318488108205988 -1 0 0 I I #
vertex $-1 $692 $695 #
straight-curve $-1 0 -37.202023221731032 3.1318488108205988 -1 0 0 I I #
point $-1 77.38151188695943 -37.202023221731025 3.1318488108205988 #
point $-1 77.38151188695943 -51.644141640919145 3.1318488108205988 #
straight-curve $-1 -77.38151188695943 -44.423082431325085 8.3765371365680146 0 -1 0 I I #
point $-1 -77.38151188695943 -37.202023221731025 8.3765371365680146 #
point $-1 -77.38151188695943 -51.644141640919145 8.3765371365680146 #
straight-curve $-1 77.38151188695943 -51.644141640919145 5.7541929736943072 0 0 -1 I I #
straight-curve $-1 77.38151188695943 -37.202023221731032 0 0 0 -1 I I #
coedge $-1 $649 $667 $651 $684 reversed $580 $-1 #
coedge $-1 $652 $651 $658 $688 forward $653 $-1 #
edge $-1 $654 -77.38151188695943 $696 77.38151188695943 $682 $697 forward 7 unknown #
point $-1 77.38151188695943 -37.202023221731032 -11.759617783859477 #
straight-curve $-1 0 37.202023221731032 -11.759617783859477 1 0 0 I I #
coedge $-1 $668 $658 $667 $692 reversed $609 $-1 #
edge $-1 $696 -37.202023221731032 $662 37.202023221731032 $658 $698 forward 7 unknown #
straight-curve $-1 -77.38151188695943 -37.202023221731032 0 0 0 -1 I I #
plane-surface $-1 -77.38151188695943 0 0 1 0 0 0 0 -1 forward_v I I I I #
point $-1 -77.38151188695943 37.202023221731032 -11.759617783859477 #
edge $-1 $673 -3.1318488108205988 $696 11.759617783859477 $687 $689 forward 7 unknown #
point $-1 -77.38151188695943 -51.644141640919145 3.1318488108205988 #
straight-curve $-1 -77.38151188695943 -44.423082431325085 3.1318488108205988 0 1 0 I I #
point $-1 -77.38151188695943 -37.202023221731025 3.1318488108205988 #
vertex $-1 $688 $699 #
straight-curve $-1 0 -37.202023221731032 -11.759617783859477 -1 0 0 I I #
straight-curve $-1 -77.38151188695943 0 -11.759617783859477 0 1 0 I I #
point $-1 -77.38151188695943 -37.202023221731032 -11.759617783859477 #
End-of-ACIS-data 