500 0 8 0           
7 Unknown 11 ACIS 5.0 NT 24 Thu Mar 25 18:53:10 1999 
-1 9.9999999999999995e-007 1e-010 
body $-1 $8 $-1 $9 #
body $-1 $10 $-1 $11 #
body $-1 $12 $-1 $13 #
body $-1 $14 $-1 $15 #
body $-1 $16 $-1 $17 #
body $-1 $18 $-1 $19 #
body $-1 $20 $-1 $21 #
body $-1 $22 $-1 $23 #
lump $-1 $-1 $24 $0 #
transform $-1 1 0 0 0 1 0 0 0 1 41.727347636341442 18.496445615369272 9.0946267246760613 1 rotate no_reflect no_shear #
lump $-1 $-1 $25 $1 #
transform $-1 1 0 0 0 1 0 0 0 1 41.727347636341442 18.496445615369272 9.0946267246760613 1 rotate no_reflect no_shear #
lump $-1 $-1 $26 $2 #
transform $-1 1 0 0 0 1 0 0 0 1 41.727347636341442 18.496445615369272 9.0946267246760613 1 rotate no_reflect no_shear #
lump $-1 $-1 $27 $3 #
transform $-1 1 0 0 0 1 0 0 0 1 41.727347636341442 18.496445615369272 9.0946267246760613 1 rotate no_reflect no_shear #
lump $-1 $-1 $28 $4 #
transform $-1 1 0 0 0 1 0 0 0 1 41.727347636341442 18.496445615369272 9.0946267246760613 1 rotate no_reflect no_shear #
lump $-1 $-1 $29 $5 #
transform $-1 1 0 0 0 1 0 0 0 1 41.727347636341442 18.496445615369272 9.0946267246760613 1 rotate no_reflect no_shear #
lump $-1 $-1 $30 $6 #
transform $-1 1 0 0 0 1 0 0 0 1 41.727347636341442 18.496445615369272 9.0946267246760613 1 rotate no_reflect no_shear #
lump $-1 $-1 $31 $7 #
transform $-1 1 0 0 0 1 0 0 0 1 41.727347636341442 18.496445615369272 9.0946267246760613 1 rotate no_reflect no_shear #
shell $-1 $-1 $-1 $32 $-1 $8 #
shell $-1 $-1 $-1 $33 $-1 $10 #
shell $-1 $-1 $-1 $34 $-1 $12 #
shell $-1 $-1 $-1 $35 $-1 $14 #
shell $-1 $-1 $-1 $36 $-1 $16 #
shell $-1 $-1 $-1 $37 $-1 $18 #
shell $-1 $-1 $-1 $38 $-1 $20 #
shell $-1 $-1 $-1 $39 $-1 $22 #
face $-1 $40 $41 $24 $-1 $42 forward single #
face $-1 $43 $44 $25 $-1 $45 reversed single #
face $-1 $46 $47 $26 $-1 $48 reversed single #
face $-1 $49 $50 $27 $-1 $51 forward single #
face $-1 $52 $53 $28 $-1 $54 forward single #
face $-1 $55 $56 $29 $-1 $57 reversed single #
face $-1 $58 $59 $30 $-1 $60 forward single #
face $-1 $61 $62 $31 $-1 $63 forward single #
face $-1 $64 $65 $24 $-1 $66 reversed single #
loop $-1 $-1 $67 $32 #
plane-surface $-1 0 0 9.0946267246760613 0 0 1 1 0 0 forward_v I I I I #
face $-1 $68 $69 $25 $-1 $70 reversed single #
loop $-1 $-1 $71 $33 #
plane-surface $-1 -39.057412586504064 -7.0202129565554081 0 0 -1 0 0 0 -1 forward_v I I I I #
face $-1 $72 $73 $26 $-1 $74 reversed single #
loop $-1 $-1 $75 $34 #
plane-surface $-1 -112.50094373900197 -0.14157476095738275 46.439496835615621 0 -1 0 0.84804810408105047 0 -0.52991925155115449 forward_v I I I I #
face $-1 $76 $77 $27 $-1 $78 forward single #
loop $-1 $79 $80 $35 #
cone-surface $-1 -39.153966936478604 -5.0548877578131144 5.3899773257053702 0.84804810408105047 0 -0.52991925155115449 0.13247981288778862 0 0.21201202602026262 1 I I 0 1 0.25 forward I I I I #
face $-1 $81 $82 $28 $-1 $83 forward single #
loop $-1 $84 $85 $36 #
cone-surface $-1 -39.153966936478604 -2.1068999596996747 5.3899773257053702 0.84804810408105047 0 -0.52991925155115449 0.13247981288778862 0 0.21201202602026262 1 I I 0 1 0.25 forward I I I I #
face $-1 $86 $87 $29 $-1 $88 reversed single #
loop $-1 $-1 $89 $37 #
plane-surface $-1 54.064087111624779 3.1101461648892101 123.13883934383318 0 -1 0 -0.77714596973225614 0 -0.62932038083071107 forward_v I I I I #
face $-1 $90 $91 $30 $-1 $92 forward single #
loop $-1 $93 $94 $38 #
cone-surface $-1 39.989671217582774 -1.5336341824529676 7.1139624950818474 -0.77714596973225614 0 -0.62932038083071107 0.31466019041535553 0 -0.38857298486612807 1 I I 0 1 0.5 forward I I I I #
face $-1 $95 $96 $31 $-1 $97 forward single #
loop $-1 $98 $99 $39 #
cone-surface $-1 39.989671217582774 1.2526340259523394 7.1139624950818474 -0.77714596973225614 0 -0.62932038083071107 0.31466019041535553 0 -0.38857298486612807 1 I I 0 1 0.5 forward I I I I #
face $-1 $100 $101 $24 $-1 $102 reversed single #
loop $-1 $-1 $103 $40 #
plane-surface $-1 0 0 -9.0946267246760613 0 0 1 1 0 0 forward_v I I I I #
coedge $-1 $104 $105 $106 $107 forward $41 $-1 #
face $-1 $108 $109 $25 $-1 $110 forward single #
loop $-1 $-1 $111 $43 #
plane-surface $-1 -36.387477536666687 -12.75832928596234 0 -1 0 0 0 0 1 forward_v I I I I #
coedge $-1 $112 $113 $114 $115 forward $44 $-1 #
face $-1 $116 $117 $26 $-1 $118 reversed single #
loop $-1 $-1 $119 $46 #
plane-surface $-1 -41.727347636341449 -3.5808938587563954 2.2152471782858356 -0.84804810408105047 0 0.52991925155115449 0.52991925155115449 0 0.84804810408105047 forward_v I I I I #
coedge $-1 $120 $121 $122 $123 reversed $47 $-1 #
face $-1 $-1 $124 $27 $-1 $125 forward single #
loop $-1 $126 $127 $49 #
cone-surface $-1 -38.623936871427944 -5.0548877578131144 5.0587777934858984 0.84804810408105047 0 -0.52991925155115449 0.066239906443894311 0 0.10600601301013131 1 I I -0.70710678118654746 0.70710678118654746 0.125 forward I I I I #
loop $-1 $-1 $128 $35 #
coedge $-1 $80 $80 $129 $130 reversed $50 $-1 #
face $-1 $-1 $131 $28 $-1 $132 forward single #
loop $-1 $133 $134 $52 #
cone-surface $-1 -38.623936871427944 -2.1068999596996747 5.0587777934858984 0.84804810408105047 0 -0.52991925155115449 0.066239906443894311 0 0.10600601301013131 1 I I -0.70710678118654746 0.70710678118654746 0.125 forward I I I I #
loop $-1 $-1 $135 $36 #
coedge $-1 $85 $85 $136 $137 reversed $53 $-1 #
face $-1 $138 $139 $29 $-1 $140 reversed single #
loop $-1 $-1 $141 $55 #
plane-surface $-1 -10.792392974774295 -0.14050007825031585 70.619098732717447 0.77714596973225614 0 0.62932038083071107 0.62932038083071107 0 -0.77714596973225614 forward_v I I I I #
coedge $-1 $142 $143 $144 $145 reversed $56 $-1 #
face $-1 $-1 $146 $30 $-1 $147 forward single #
loop $-1 $148 $149 $58 #
cone-surface $-1 39.40681174028358 -1.5336341824529676 6.6419722094588138 -0.77714596973225614 0 -0.62932038083071107 0.15733009520767777 0 -0.19428649243306403 1 I I -0.70710678118654746 0.70710678118654746 0.25 forward I I I I #
loop $-1 $-1 $150 $38 #
coedge $-1 $94 $94 $151 $152 reversed $59 $-1 #
face $-1 $-1 $153 $31 $-1 $154 forward single #
loop $-1 $155 $156 $61 #
cone-surface $-1 39.40681174028358 1.2526340259523394 6.6419722094588138 -0.77714596973225614 0 -0.62932038083071107 0.15733009520767777 0 -0.19428649243306403 1 I I -0.70710678118654746 0.70710678118654746 0.25 forward I I I I #
loop $-1 $-1 $157 $39 #
coedge $-1 $99 $99 $158 $159 reversed $62 $-1 #
face $-1 $160 $161 $24 $-1 $162 reversed single #
loop $-1 $-1 $163 $64 #
plane-surface $-1 0 -18.496445615369272 0 0 1 0 0 0 1 forward_v I I I I #
coedge $-1 $164 $165 $166 $167 forward $65 $-1 #
coedge $-1 $168 $67 $169 $170 forward $41 $-1 #
coedge $-1 $67 $168 $171 $172 forward $41 $-1 #
coedge $-1 $173 $174 $67 $107 reversed $175 $-1 #
edge $-1 $176 -18.496445615369272 $177 18.496445615369272 $106 $178 forward 7 unknown #
face $-1 $179 $180 $25 $-1 $181 reversed single #
loop $-1 $-1 $182 $68 #
plane-surface $-1 0 0 9.0946267246760613 0 0 1 1 0 0 forward_v I I I I #
coedge $-1 $183 $184 $185 $186 reversed $69 $-1 #
coedge $-1 $187 $71 $188 $189 reversed $44 $-1 #
coedge $-1 $71 $187 $190 $191 reversed $44 $-1 #
coedge $-1 $184 $183 $71 $115 reversed $69 $-1 #
edge $-1 $192 -9.0946267246760613 $193 9.0946267246760613 $114 $194 forward 7 unknown #
face $-1 $195 $196 $26 $-1 $197 forward single #
loop $-1 $-1 $122 $72 #
plane-surface $-1 -41.727347636341442 0 0 1 0 0 0 0 -1 forward_v I I I I #
coedge $-1 $198 $199 $200 $201 reversed $73 $-1 #
coedge $-1 $121 $75 $202 $203 reversed $47 $-1 #
coedge $-1 $75 $120 $198 $204 reversed $47 $-1 #
coedge $-1 $200 $205 $75 $123 forward $117 $-1 #
edge $-1 $206 14.125121693131749 $207 21.004501239521964 $122 $208 forward 7 unknown #
loop $-1 $-1 $129 $76 #
plane-surface $-1 -41.727347636341449 -3.5808938587563954 2.2152471782858356 -0.84804810408105047 0 0.52991925155115449 0.52991925155115449 0 0.84804810408105047 forward_v I I I I #
loop $-1 $-1 $209 $49 #
coedge $-1 $127 $127 $128 $210 reversed $77 $-1 #
coedge $-1 $128 $128 $127 $210 forward $79 $-1 #
coedge $-1 $129 $129 $80 $130 forward $124 $-1 #
edge $-1 $211 0 $211 6.2831853071796004 $129 $212 forward 7 unknown #
loop $-1 $-1 $136 $81 #
plane-surface $-1 -41.727347636341449 -3.5808938587563954 2.2152471782858356 -0.84804810408105047 0 0.52991925155115449 0.52991925155115449 0 0.84804810408105047 forward_v I I I I #
loop $-1 $-1 $213 $52 #
coedge $-1 $134 $134 $135 $214 reversed $82 $-1 #
coedge $-1 $135 $135 $134 $214 forward $84 $-1 #
coedge $-1 $136 $136 $85 $137 forward $131 $-1 #
edge $-1 $215 0 $215 6.2831853071796004 $136 $216 forward 7 unknown #
face $-1 $217 $218 $29 $-1 $219 reversed single #
loop $-1 $-1 $220 $86 #
plane-surface $-1 54.064087111624779 -3.3911463213898418 123.13883934383318 0 1 0 0.77714596973225614 0 0.62932038083071107 forward_v I I I I #
coedge $-1 $221 $222 $223 $224 reversed $87 $-1 #
coedge $-1 $143 $89 $225 $226 reversed $56 $-1 #
coedge $-1 $89 $142 $221 $227 reversed $56 $-1 #
coedge $-1 $223 $228 $89 $145 forward $229 $-1 #
edge $-1 $230 -14.695304080529052 $231 -11.997097212743977 $144 $232 forward 7 unknown #
loop $-1 $-1 $151 $90 #
plane-surface $-1 -10.792392974774295 -0.14050007825031585 70.619098732717447 0.77714596973225614 0 0.62932038083071107 0.62932038083071107 0 -0.77714596973225614 forward_v I I I I #
loop $-1 $-1 $233 $58 #
coedge $-1 $149 $149 $150 $234 reversed $91 $-1 #
coedge $-1 $150 $150 $149 $234 forward $93 $-1 #
coedge $-1 $151 $151 $94 $152 forward $146 $-1 #
edge $-1 $235 0 $235 6.2831853071796004 $151 $236 forward 7 unknown #
loop $-1 $-1 $158 $95 #
plane-surface $-1 -10.792392974774295 -0.14050007825031585 70.619098732717447 0.77714596973225614 0 0.62932038083071107 0.62932038083071107 0 -0.77714596973225614 forward_v I I I I #
loop $-1 $-1 $237 $61 #
coedge $-1 $156 $156 $157 $238 reversed $96 $-1 #
coedge $-1 $157 $157 $156 $238 forward $98 $-1 #
coedge $-1 $158 $158 $99 $159 forward $153 $-1 #
edge $-1 $239 0 $239 6.2831853071796004 $158 $240 forward 7 unknown #
face $-1 $241 $242 $24 $-1 $243 reversed single #
loop $-1 $-1 $244 $100 #
plane-surface $-1 -41.727347636341442 0 0 1 0 0 0 0 -1 forward_v I I I I #
coedge $-1 $245 $171 $246 $247 forward $101 $-1 #
coedge $-1 $248 $103 $245 $249 forward $65 $-1 #
coedge $-1 $103 $248 $250 $251 forward $65 $-1 #
coedge $-1 $174 $173 $103 $167 reversed $175 $-1 #
edge $-1 $252 -18.496445615369272 $253 18.496445615369272 $166 $254 forward 7 unknown #
coedge $-1 $105 $104 $255 $256 forward $41 $-1 #
coedge $-1 $257 $258 $104 $170 reversed $242 $-1 #
edge $-1 $177 -41.727347636341442 $259 41.727347636341442 $169 $260 forward 7 unknown #
coedge $-1 $163 $261 $105 $172 reversed $101 $-1 #
edge $-1 $262 -41.727347636341442 $176 41.727347636341442 $171 $263 forward 7 unknown #
coedge $-1 $166 $106 $261 $264 forward $175 $-1 #
coedge $-1 $106 $166 $257 $265 reversed $175 $-1 #
loop $-1 $-1 $173 $241 #
vertex $-1 $107 $266 #
vertex $-1 $107 $267 #
straight-curve $-1 41.727347636341442 0 9.0946267246760613 0 1 0 I I #
face $-1 $268 $269 $25 $-1 $270 reversed single #
loop $-1 $-1 $271 $108 #
plane-surface $-1 -41.727347636341442 0 0 1 0 0 0 0 -1 forward_v I I I I #
coedge $-1 $190 $272 $184 $273 forward $109 $-1 #
coedge $-1 $114 $111 $274 $275 reversed $69 $-1 #
coedge $-1 $111 $114 $182 $273 reversed $69 $-1 #
coedge $-1 $276 $277 $111 $186 forward $278 $-1 #
edge $-1 $279 -9.0946267246760613 $280 9.0946267246760613 $185 $281 forward 7 unknown #
coedge $-1 $113 $112 $271 $282 reversed $44 $-1 #
coedge $-1 $274 $283 $112 $189 forward $269 $-1 #
edge $-1 $284 -22.19864134308941 $193 -16.858771243414655 $188 $285 forward 7 unknown #
coedge $-1 $286 $182 $113 $191 forward $109 $-1 #
edge $-1 $192 16.858771243414655 $287 22.19864134308941 $190 $288 forward 7 unknown #
vertex $-1 $191 $289 #
vertex $-1 $189 $290 #
straight-curve $-1 -36.387477536666687 -7.0202129565554081 0 0 0 -1 I I #
face $-1 $-1 $291 $26 $-1 $292 forward single #
loop $-1 $-1 $293 $116 #
plane-surface $-1 -39.057412586504064 -7.0202129565554081 0 0 -1 0 0 0 -1 forward_v I I I I #
coedge $-1 $294 $119 $121 $204 forward $73 $-1 #
coedge $-1 $119 $294 $293 $295 reversed $73 $-1 #
coedge $-1 $296 $122 $119 $201 forward $117 $-1 #
edge $-1 $207 -1.648872168420815 $297 5.2297660271772104 $200 $298 forward 7 unknown #
coedge $-1 $299 $300 $120 $203 forward $291 $-1 #
edge $-1 $301 -18.82183752880416 $206 -14.523124233159542 $202 $302 forward 7 unknown #
edge $-1 $207 1.3557137071152151e-014 $301 8.1120157138311839 $121 $303 forward 7 unknown #
coedge $-1 $122 $296 $299 $304 reversed $117 $-1 #
vertex $-1 $304 $305 #
vertex $-1 $123 $306 #
straight-curve $-1 -41.727347636341442 -0.14157476095738275 23.219748417807811 0 0 -1 I I #
coedge $-1 $209 $209 $-1 $307 reversed $126 $-1 #
edge $-1 $308 0 $308 6.2831853071796004 $127 $309 forward 7 unknown #
vertex $-1 $130 $310 #
ellipse-curve $-1 -39.577990988519133 -5.0548877578131144 5.6549369514809511 -0.84804810408105047 0 0.52991925155115449 0.13247981288778862 0 0.21201202602026262 1 I I #
coedge $-1 $213 $213 $-1 $311 reversed $133 $-1 #
edge $-1 $312 0 $312 6.2831853071796004 $134 $313 forward 7 unknown #
vertex $-1 $137 $314 #
ellipse-curve $-1 -39.577990988519133 -2.1068999596996747 5.6549369514809511 -0.84804810408105047 0 0.52991925155115449 0.13247981288778862 0 0.21201202602026262 1 I I #
face $-1 $-1 $229 $29 $-1 $315 forward single #
loop $-1 $-1 $316 $138 #
plane-surface $-1 41.727347636341442 0 0 -1 0 0 0 0 1 forward_v I I I I #
coedge $-1 $317 $318 $319 $320 reversed $139 $-1 #
coedge $-1 $321 $141 $143 $227 forward $87 $-1 #
coedge $-1 $141 $321 $317 $322 forward $87 $-1 #
coedge $-1 $319 $144 $141 $224 forward $229 $-1 #
edge $-1 $231 -3.1803962040143681 $323 3.3208962822646839 $223 $324 forward 7 unknown #
coedge $-1 $325 $326 $142 $226 forward $218 $-1 #
edge $-1 $327 -55.806801025598219 $230 -52.47479294724053 $225 $328 forward 7 unknown #
edge $-1 $231 79.167202049877346 $327 83.454695272682883 $143 $329 forward 7 unknown #
coedge $-1 $144 $319 $325 $330 forward $229 $-1 #
loop $-1 $-1 $319 $217 #
vertex $-1 $226 $331 #
vertex $-1 $145 $332 #
straight-curve $-1 27.03204355581239 3.1101461648892101 9.0946267246760613 -1 0 0 I I #
coedge $-1 $233 $233 $-1 $333 reversed $148 $-1 #
edge $-1 $334 0 $334 6.2831853071796004 $149 $335 forward 7 unknown #
vertex $-1 $152 $336 #
ellipse-curve $-1 40.378244202448911 -1.5336341824529676 7.4286226854972073 0.77714596973225614 0 0.62932038083071107 0.31466019041535553 0 -0.38857298486612807 1 I I #
coedge $-1 $237 $237 $-1 $337 reversed $155 $-1 #
edge $-1 $338 0 $338 6.2831853071796004 $156 $339 forward 7 unknown #
vertex $-1 $159 $340 #
ellipse-curve $-1 40.378244202448911 1.2526340259523394 7.4286226854972073 0.77714596973225614 0 0.62932038083071107 0.31466019041535553 0 -0.38857298486612807 1 I I #
face $-1 $-1 $175 $24 $-1 $341 reversed single #
loop $-1 $-1 $257 $160 #
plane-surface $-1 0 18.496445615369272 0 0 -1 0 0 0 -1 forward_v I I I I #
coedge $-1 $342 $255 $258 $343 forward $161 $-1 #
coedge $-1 $261 $163 $164 $249 reversed $101 $-1 #
coedge $-1 $255 $342 $163 $247 reversed $161 $-1 #
edge $-1 $262 -9.0946267246760613 $344 9.0946267246760613 $246 $345 forward 7 unknown #
coedge $-1 $165 $164 $342 $346 forward $65 $-1 #
edge $-1 $253 -41.727347636341442 $344 41.727347636341442 $245 $347 forward 7 unknown #
coedge $-1 $258 $257 $165 $251 reversed $242 $-1 #
edge $-1 $348 -41.727347636341442 $252 41.727347636341442 $250 $349 forward 7 unknown #
vertex $-1 $167 $350 #
vertex $-1 $264 $351 #
straight-curve $-1 41.727347636341442 0 -9.0946267246760613 0 -1 0 I I #
coedge $-1 $244 $246 $168 $256 reversed $161 $-1 #
edge $-1 $259 -18.496445615369272 $262 18.496445615369272 $255 $352 forward 7 unknown #
coedge $-1 $250 $169 $174 $265 forward $242 $-1 #
coedge $-1 $169 $250 $244 $343 reversed $242 $-1 #
vertex $-1 $170 $353 #
straight-curve $-1 0 18.496445615369272 9.0946267246760613 -1 0 0 I I #
coedge $-1 $171 $245 $173 $264 reversed $101 $-1 #
vertex $-1 $256 $354 #
straight-curve $-1 0 -18.496445615369272 9.0946267246760613 1 0 0 I I #
edge $-1 $176 -9.0946267246760613 $253 9.0946267246760613 $173 $355 forward 7 unknown #
edge $-1 $177 -9.0946267246760613 $252 9.0946267246760613 $174 $356 forward 7 unknown #
point $-1 41.727347636341442 -18.496445615369272 9.0946267246760613 #
point $-1 41.727347636341442 18.496445615369272 9.0946267246760613 #
face $-1 $-1 $278 $25 $-1 $357 reversed single #
loop $-1 $-1 $274 $179 #
plane-surface $-1 0 0 -9.0946267246760613 0 0 1 1 0 0 forward_v I I I I #
coedge $-1 $358 $359 $187 $282 forward $180 $-1 #
coedge $-1 $182 $286 $276 $360 forward $109 $-1 #
edge $-1 $280 -12.117280972388102 $192 -0.64104831357423819 $182 $361 forward 7 unknown #
coedge $-1 $362 $188 $183 $275 forward $269 $-1 #
edge $-1 $193 0.64104831357423819 $279 12.117280972388102 $274 $363 forward 7 unknown #
coedge $-1 $364 $185 $272 $360 reversed $278 $-1 #
coedge $-1 $185 $364 $362 $365 reversed $278 $-1 #
loop $-1 $-1 $185 $268 #
vertex $-1 $365 $366 #
vertex $-1 $186 $367 #
straight-curve $-1 -36.387477536666687 -18.496445615369272 0 0 0 1 I I #
edge $-1 $287 -9.0946267246760613 $284 9.0946267246760613 $271 $368 forward 7 unknown #
coedge $-1 $188 $362 $358 $369 forward $269 $-1 #
vertex $-1 $189 $370 #
straight-curve $-1 -19.528706293252032 -7.0202129565554081 -9.0946267246760613 1 0 0 I I #
coedge $-1 $272 $190 $359 $371 forward $109 $-1 #
vertex $-1 $371 $372 #
straight-curve $-1 -19.528706293252032 -7.0202129565554081 9.0946267246760613 -1 0 0 I I #
point $-1 -36.387477536666687 -7.0202129565554081 9.0946267246760613 #
point $-1 -36.387477536666687 -7.0202129565554081 -9.0946267246760613 #
loop $-1 $-1 $202 $195 #
plane-surface $-1 0 0 9.0946267246760613 0 0 1 1 0 0 forward_v I I I I #
coedge $-1 $373 $374 $199 $295 forward $196 $-1 #
coedge $-1 $199 $198 $300 $375 reversed $73 $-1 #
edge $-1 $297 0.23189309315810114 $376 8.3439088069892708 $293 $377 forward 7 unknown #
coedge $-1 $205 $200 $374 $378 forward $117 $-1 #
vertex $-1 $378 $379 #
straight-curve $-1 -41.727347636341442 -1.7904469293781977 2.2152471782858494 0 -1 0 I I #
coedge $-1 $380 $202 $205 $304 forward $291 $-1 #
coedge $-1 $202 $380 $294 $375 forward $291 $-1 #
vertex $-1 $203 $381 #
straight-curve $-1 -56.250471869500984 -0.14157476095738275 9.0946267246760613 -1 0 0 I I #
straight-curve $-1 -41.727347636341449 -0.14157476095738275 2.2152471782858356 0.52991925155115449 0 0.84804810408105047 I I #
edge $-1 $206 0.14157476095738275 $382 7.0202129565554081 $205 $383 forward 7 unknown #
point $-1 -41.727347636341442 -0.14157476095738275 9.0946267246760613 #
point $-1 -41.727347636341442 -0.14157476095738275 2.2152471782858472 #
edge $-1 $384 1 $384 0 $209 $-1 forward 7 unknown #
vertex $-1 $210 $385 #
ellipse-curve $-1 -38.729942884438074 -5.0548877578131144 5.1250176999297929 -0.84804810408105047 0 0.52991925155115449 0.13247981288778862 0 0.21201202602026262 1 I I #
point $-1 -39.445511175631339 -5.0548877578131144 5.8669489775012096 #
edge $-1 $386 1 $386 0 $213 $-1 forward 7 unknown #
vertex $-1 $214 $387 #
ellipse-curve $-1 -38.729942884438074 -2.1068999596996747 5.1250176999297929 -0.84804810408105047 0 0.52991925155115449 0.13247981288778862 0 0.21201202602026262 1 I I #
point $-1 -39.445511175631339 -2.1068999596996747 5.8669489775012096 #
plane-surface $-1 0 0 9.0946267246760613 0 0 1 1 0 0 forward_v I I I I #
coedge $-1 $326 $325 $318 $388 forward $218 $-1 #
coedge $-1 $318 $220 $222 $322 reversed $139 $-1 #
coedge $-1 $220 $317 $316 $388 reversed $139 $-1 #
coedge $-1 $228 $223 $220 $320 forward $229 $-1 #
edge $-1 $323 11.997097212743977 $389 14.695304080529052 $319 $390 forward 7 unknown #
coedge $-1 $222 $221 $326 $391 reversed $87 $-1 #
edge $-1 $392 -83.454695272682883 $323 -79.167202049877346 $317 $393 forward 7 unknown #
vertex $-1 $224 $394 #
straight-curve $-1 39.029140768556374 -0.070250039125157926 9.0946267246760613 0 -1 0 I I #
coedge $-1 $316 $225 $228 $330 reversed $218 $-1 #
coedge $-1 $225 $316 $321 $391 forward $218 $-1 #
vertex $-1 $226 $395 #
straight-curve $-1 41.727347636341442 3.1101461648892101 61.569419671916592 0 0 1 I I #
straight-curve $-1 -10.792392974774295 3.1101461648892101 70.619098732717447 0.62932038083071107 0 -0.77714596973225614 I I #
edge $-1 $389 -3.3911463213898418 $230 3.1101461648892101 $325 $396 forward 7 unknown #
point $-1 41.727347636341442 3.1101461648892101 9.0946267246760613 #
point $-1 39.029140768556367 3.1101461648892101 9.0946267246760613 #
edge $-1 $397 1 $397 0 $233 $-1 forward 7 unknown #
vertex $-1 $234 $398 #
ellipse-curve $-1 39.601098232716645 -1.5336341824529676 6.799302304666492 0.77714596973225614 0 0.62932038083071107 0.31466019041535553 0 -0.38857298486612807 1 I I #
point $-1 40.692904392864257 -1.5336341824529676 7.0400497006310747 #
edge $-1 $399 1 $399 0 $237 $-1 forward 7 unknown #
vertex $-1 $238 $400 #
ellipse-curve $-1 39.601098232716645 1.2526340259523394 6.799302304666492 0.77714596973225614 0 0.62932038083071107 0.31466019041535553 0 -0.38857298486612807 1 I I #
point $-1 40.692904392864257 1.2526340259523394 7.0400497006310747 #
plane-surface $-1 41.727347636341442 0 0 -1 0 0 0 0 1 forward_v I I I I #
coedge $-1 $246 $244 $248 $346 reversed $161 $-1 #
edge $-1 $259 -9.0946267246760613 $348 9.0946267246760613 $258 $401 forward 7 unknown #
vertex $-1 $346 $402 #
straight-curve $-1 -41.727347636341442 -18.496445615369272 0 0 0 -1 I I #
edge $-1 $344 -18.496445615369272 $348 18.496445615369272 $342 $403 forward 7 unknown #
straight-curve $-1 0 -18.496445615369272 -9.0946267246760613 -1 0 0 I I #
vertex $-1 $251 $404 #
straight-curve $-1 0 18.496445615369272 -9.0946267246760613 1 0 0 I I #
point $-1 41.727347636341442 18.496445615369272 -9.0946267246760613 #
point $-1 41.727347636341442 -18.496445615369272 -9.0946267246760613 #
straight-curve $-1 -41.727347636341442 0 9.0946267246760613 0 -1 0 I I #
point $-1 -41.727347636341442 18.496445615369272 9.0946267246760613 #
point $-1 -41.727347636341442 -18.496445615369272 9.0946267246760613 #
straight-curve $-1 41.727347636341442 -18.496445615369272 0 0 0 -1 I I #
straight-curve $-1 41.727347636341442 18.496445615369272 0 0 0 -1 I I #
plane-surface $-1 0 -18.496445615369272 0 0 1 0 0 0 1 forward_v I I I I #
coedge $-1 $405 $271 $283 $369 reversed $180 $-1 #
coedge $-1 $271 $405 $286 $371 reversed $180 $-1 #
edge $-1 $406 -41.727347636341442 $280 -36.387477536666687 $276 $407 forward 7 unknown #
straight-curve $-1 -36.387477536666687 -6.3791646429811699 9.0946267246760613 0 1 0 I I #
coedge $-1 $283 $274 $277 $365 forward $269 $-1 #
straight-curve $-1 -36.387477536666687 -6.3791646429811699 -9.0946267246760613 0 -1 0 I I #
coedge $-1 $277 $276 $405 $408 forward $278 $-1 #
edge $-1 $279 36.387477536666687 $409 41.727347636341442 $277 $410 forward 7 unknown #
point $-1 -36.387477536666687 -18.496445615369272 -9.0946267246760613 #
point $-1 -36.387477536666687 -18.496445615369272 9.0946267246760613 #
straight-curve $-1 -41.727347636341442 -7.0202129565554081 0 0 0 -1 I I #
edge $-1 $409 -18.496445615369272 $284 -7.0202129565554081 $358 $411 forward 7 unknown #
point $-1 -41.727347636341442 -7.0202129565554081 -9.0946267246760613 #
edge $-1 $287 7.0202129565554081 $406 18.496445615369272 $359 $412 forward 7 unknown #
point $-1 -41.727347636341442 -7.0202129565554081 9.0946267246760613 #
coedge $-1 $374 $293 $380 $413 reversed $196 $-1 #
coedge $-1 $293 $373 $296 $378 reversed $196 $-1 #
edge $-1 $376 -5.2297660271772104 $301 1.648872168420815 $300 $414 forward 7 unknown #
vertex $-1 $295 $415 #
straight-curve $-1 -41.850232250707663 -7.0202129565554081 2.0185906802836278 0.52991925155115449 0 0.84804810408105047 I I #
edge $-1 $297 2.2152471782858472 $382 9.0946267246760613 $296 $416 forward 7 unknown #
point $-1 -41.727347636341442 -7.0202129565554081 2.2152471782858472 #
coedge $-1 $300 $299 $373 $413 forward $291 $-1 #
point $-1 -37.428634340696824 -0.14157476095738275 9.0946267246760613 #
vertex $-1 $378 $417 #
straight-curve $-1 -41.727347636341442 0 9.0946267246760613 0 -1 0 I I #
vertex $-1 $307 $418 #
point $-1 -38.597463071550287 -5.0548877578131144 5.337029725950055 #
vertex $-1 $311 $419 #
point $-1 -38.597463071550287 -2.1068999596996747 5.337029725950055 #
edge $-1 $389 52.47479294724053 $392 55.806801025598219 $316 $420 forward 7 unknown #
vertex $-1 $330 $421 #
straight-curve $-1 27.03204355581239 -3.3911463213898418 9.0946267246760613 1 0 0 I I #
edge $-1 $392 -3.3208962822646839 $327 3.1803962040143681 $326 $422 forward 7 unknown #
vertex $-1 $391 $423 #
straight-curve $-1 -10.792392974774295 -3.3911463213898418 70.619098732717447 -0.62932038083071107 0 0.77714596973225614 I I #
point $-1 39.029140768556367 -3.3911463213898418 9.0946267246760613 #
point $-1 41.727347636341442 3.1101461648892101 5.7626186463183728 #
straight-curve $-1 41.727347636341442 0 9.0946267246760613 0 1 0 I I #
vertex $-1 $333 $424 #
point $-1 39.915758423131997 -1.5336341824529676 6.4107293198003639 #
vertex $-1 $337 $425 #
point $-1 39.915758423131997 1.2526340259523394 6.4107293198003639 #
straight-curve $-1 -41.727347636341442 18.496445615369272 0 0 0 -1 I I #
point $-1 -41.727347636341442 -18.496445615369272 -9.0946267246760613 #
straight-curve $-1 -41.727347636341442 0 -9.0946267246760613 0 1 0 I I #
point $-1 -41.727347636341442 18.496445615369272 -9.0946267246760613 #
coedge $-1 $359 $358 $364 $408 reversed $180 $-1 #
vertex $-1 $371 $426 #
straight-curve $-1 0 -18.496445615369272 9.0946267246760613 1 0 0 I I #
edge $-1 $406 -9.0946267246760613 $409 9.0946267246760613 $405 $427 forward 7 unknown #
vertex $-1 $369 $428 #
straight-curve $-1 0 -18.496445615369272 -9.0946267246760613 -1 0 0 I I #
straight-curve $-1 -41.727347636341442 0 -9.0946267246760613 0 1 0 I I #
straight-curve $-1 -41.727347636341442 0 9.0946267246760613 0 -1 0 I I #
edge $-1 $382 -22.19864134308941 $376 -17.899928047444792 $380 $429 forward 7 unknown #
straight-curve $-1 -37.428634340696824 -1.7904469293781977 9.0946267246760613 0 1 0 I I #
point $-1 -37.428634340696824 -7.0202129565554081 9.0946267246760613 #
straight-curve $-1 -41.727347636341442 -7.0202129565554081 0 0 0 1 I I #
point $-1 -41.727347636341442 -7.0202129565554081 9.0946267246760613 #
point $-1 -38.517930858417813 -5.0548877578131144 4.9925378870420039 #
point $-1 -38.517930858417813 -2.1068999596996747 4.9925378870420039 #
straight-curve $-1 41.727347636341442 -3.3911463213898418 61.569419671916592 0 0 -1 I I #
point $-1 41.727347636341442 -3.3911463213898418 9.0946267246760613 #
straight-curve $-1 41.727347636341442 -0.070250039125157926 5.7626186463183835 0 1 0 I I #
point $-1 41.727347636341442 -3.3911463213898418 5.7626186463183728 #
point $-1 39.212525247850515 -1.5336341824529676 6.4846421142511357 #
point $-1 39.212525247850515 1.2526340259523394 6.4846421142511357 #
point $-1 -41.727347636341442 -18.496445615369272 9.0946267246760613 #
straight-curve $-1 -41.727347636341442 -18.496445615369272 0 0 0 -1 I I #
point $-1 -41.727347636341442 -18.496445615369272 -9.0946267246760613 #
straight-curve $-1 -19.528706293252032 -7.0202129565554081 9.0946267246760613 1 0 0 I I #
End-of-ACIS-data 