500 0 5 0           
7 Unknown 11 ACIS 5.0 NT 24 Fri Mar 26 17:04:25 1999 
-1 9.9999999999999995e-007 1e-010 
body $-1 $5 $-1 $6 #
body $-1 $7 $-1 $8 #
body $-1 $9 $-1 $10 #
body $-1 $11 $-1 $12 #
body $-1 $13 $-1 $14 #
lump $-1 $-1 $15 $0 #
transform $-1 1 0 0 0 1 0 0 0 1 75.623645741141999 38.973399484283476 10.543644430932929 1 rotate no_reflect no_shear #
lump $-1 $-1 $16 $1 #
transform $-1 1 0 0 0 1 0 0 0 1 75.623645741141999 38.973399484283476 10.543644430932929 1 rotate no_reflect no_shear #
lump $-1 $-1 $17 $2 #
transform $-1 1 0 0 0 1 0 0 0 1 75.623645741141999 38.973399484283476 10.543644430932929 1 rotate no_reflect no_shear #
lump $-1 $-1 $18 $3 #
transform $-1 1 0 0 0 1 0 0 0 1 75.623645741141999 38.973399484283476 10.543644430932929 1 rotate no_reflect no_shear #
lump $-1 $-1 $19 $4 #
transform $-1 1 0 0 0 1 0 0 0 1 75.623645741141999 38.973399484283476 10.543644430932929 1 rotate no_reflect no_shear #
shell $-1 $-1 $-1 $20 $-1 $5 #
shell $-1 $-1 $-1 $21 $-1 $7 #
shell $-1 $-1 $-1 $22 $-1 $9 #
shell $-1 $-1 $-1 $23 $-1 $11 #
shell $-1 $-1 $-1 $24 $-1 $13 #
face $-1 $25 $26 $15 $-1 $27 forward single #
face $-1 $28 $29 $16 $-1 $30 forward single #
face $-1 $31 $32 $17 $-1 $33 reversed single #
face $-1 $34 $35 $18 $-1 $36 forward single #
face $-1 $37 $38 $19 $-1 $39 forward single #
face $-1 $40 $41 $15 $-1 $42 reversed single #
loop $-1 $-1 $43 $20 #
plane-surface $-1 0 0 10.543644430932929 0 0 1 1 0 0 forward_v I I I I #
face $-1 $44 $45 $16 $-1 $46 forward single #
loop $-1 $-1 $47 $21 #
plane-surface $-1 0 -38.973399484283476 0 0 1 0 0 0 1 forward_v I I I I #
face $-1 $48 $49 $17 $-1 $50 reversed single #
loop $-1 $-1 $51 $22 #
plane-surface $-1 -191.48579417127391 -18.628981995329092 99.770959977844498 0 1 0 -0.7660444514056185 0 0.64278759981090561 forward_v I I I I #
face $-1 $52 $53 $18 $-1 $54 forward single #
loop $-1 $55 $56 $23 #
cone-surface $-1 -71.533813001115035 -15.440312140704936 5.9293196135725266 0.7660444514056185 0 -0.64278759981090561 0.3213937999054528 0 0.38302222570280925 1 I I 0 1 0.5 forward I I I I #
face $-1 $57 $58 $19 $-1 $59 forward single #
loop $-1 $60 $61 $24 #
cone-surface $-1 -71.533813001115035 -10.657307358768705 5.9293196135725266 0.7660444514056185 0 -0.64278759981090561 0.3213937999054528 0 0.38302222570280925 1 I I 0 1 0.5 forward I I I I #
face $-1 $62 $63 $15 $-1 $64 reversed single #
loop $-1 $-1 $65 $25 #
plane-surface $-1 0 0 -10.543644430932929 0 0 1 1 0 0 forward_v I I I I #
coedge $-1 $66 $67 $68 $69 forward $26 $-1 #
face $-1 $70 $71 $16 $-1 $72 reversed single #
loop $-1 $-1 $73 $28 #
plane-surface $-1 0 0 10.543644430932929 0 0 1 1 0 0 forward_v I I I I #
coedge $-1 $74 $75 $76 $77 forward $29 $-1 #
face $-1 $78 $79 $17 $-1 $80 reversed single #
loop $-1 $-1 $81 $31 #
plane-surface $-1 -75.623645741141985 -13.048809749736822 2.5510765080467337 -0.7660444514056185 0 0.64278759981090561 0.64278759981090561 0 0.7660444514056185 forward_v I I I I #
coedge $-1 $82 $83 $84 $85 reversed $32 $-1 #
face $-1 $-1 $86 $18 $-1 $87 forward single #
loop $-1 $88 $89 $34 #
cone-surface $-1 -70.605749458570358 -15.440312140704936 5.1505818577024911 0.7660444514056185 0 -0.64278759981090561 0.1606968999527264 0 0.19151111285140462 1 I I -0.70710678118654746 0.70710678118654746 0.25 forward I I I I #
loop $-1 $-1 $90 $23 #
coedge $-1 $56 $56 $91 $92 reversed $35 $-1 #
face $-1 $-1 $93 $19 $-1 $94 forward single #
loop $-1 $95 $96 $37 #
cone-surface $-1 -70.605749458570358 -10.657307358768705 5.1505818577024911 0.7660444514056185 0 -0.64278759981090561 0.1606968999527264 0 0.19151111285140462 1 I I -0.70710678118654746 0.70710678118654746 0.25 forward I I I I #
loop $-1 $-1 $97 $24 #
coedge $-1 $61 $61 $98 $99 reversed $38 $-1 #
face $-1 $100 $101 $15 $-1 $102 reversed single #
loop $-1 $-1 $103 $40 #
plane-surface $-1 0 -38.973399484283476 0 0 1 0 0 0 1 forward_v I I I I #
coedge $-1 $104 $105 $106 $107 forward $41 $-1 #
coedge $-1 $108 $43 $109 $110 forward $26 $-1 #
coedge $-1 $43 $108 $111 $112 forward $26 $-1 #
coedge $-1 $113 $114 $43 $69 reversed $115 $-1 #
edge $-1 $116 -38.973399484283476 $117 38.973399484283476 $68 $118 forward 7 unknown #
face $-1 $119 $120 $16 $-1 $121 reversed single #
loop $-1 $-1 $122 $44 #
plane-surface $-1 -75.623645741141999 0 0 1 0 0 0 0 -1 forward_v I I I I #
coedge $-1 $123 $124 $75 $125 forward $45 $-1 #
coedge $-1 $126 $47 $127 $128 reversed $29 $-1 #
coedge $-1 $47 $126 $73 $125 reversed $29 $-1 #
coedge $-1 $129 $130 $47 $77 reversed $131 $-1 #
edge $-1 $132 -10.543644430932929 $133 10.543644430932929 $76 $134 forward 7 unknown #
face $-1 $135 $136 $17 $-1 $137 reversed single #
loop $-1 $-1 $138 $48 #
plane-surface $-1 -191.48579417127391 -7.468637504144553 99.770959977844498 0 -1 0 0.7660444514056185 0 -0.64278759981090561 forward_v I I I I #
coedge $-1 $139 $140 $141 $142 reversed $49 $-1 #
coedge $-1 $83 $51 $143 $144 reversed $32 $-1 #
coedge $-1 $51 $82 $139 $145 reversed $32 $-1 #
coedge $-1 $141 $146 $51 $85 forward $147 $-1 #
edge $-1 $148 20.119251344494955 $149 26.82581196516233 $84 $150 forward 7 unknown #
loop $-1 $-1 $91 $52 #
plane-surface $-1 -75.623645741141985 -13.048809749736822 2.5510765080467337 -0.7660444514056185 0 0.64278759981090561 0.64278759981090561 0 0.7660444514056185 forward_v I I I I #
loop $-1 $-1 $151 $34 #
coedge $-1 $89 $89 $90 $152 reversed $53 $-1 #
coedge $-1 $90 $90 $89 $152 forward $55 $-1 #
coedge $-1 $91 $91 $56 $92 forward $86 $-1 #
edge $-1 $153 0 $153 6.2831853071796004 $91 $154 forward 7 unknown #
loop $-1 $-1 $98 $57 #
plane-surface $-1 -75.623645741141985 -13.048809749736822 2.5510765080467337 -0.7660444514056185 0 0.64278759981090561 0.64278759981090561 0 0.7660444514056185 forward_v I I I I #
loop $-1 $-1 $155 $37 #
coedge $-1 $96 $96 $97 $156 reversed $58 $-1 #
coedge $-1 $97 $97 $96 $156 forward $60 $-1 #
coedge $-1 $98 $98 $61 $99 forward $93 $-1 #
edge $-1 $157 0 $157 6.2831853071796004 $98 $158 forward 7 unknown #
face $-1 $159 $160 $15 $-1 $161 reversed single #
loop $-1 $-1 $162 $62 #
plane-surface $-1 -75.623645741141999 0 0 1 0 0 0 0 -1 forward_v I I I I #
coedge $-1 $163 $111 $164 $165 forward $63 $-1 #
coedge $-1 $166 $65 $163 $167 forward $41 $-1 #
coedge $-1 $65 $166 $168 $169 forward $41 $-1 #
coedge $-1 $114 $113 $65 $107 reversed $115 $-1 #
edge $-1 $170 -38.973399484283476 $171 38.973399484283476 $106 $172 forward 7 unknown #
coedge $-1 $67 $66 $173 $174 forward $26 $-1 #
coedge $-1 $175 $176 $66 $110 reversed $160 $-1 #
edge $-1 $117 -75.623645741141999 $177 75.623645741141999 $109 $178 forward 7 unknown #
coedge $-1 $103 $179 $67 $112 reversed $63 $-1 #
edge $-1 $180 -75.623645741141999 $116 75.623645741141999 $111 $181 forward 7 unknown #
coedge $-1 $106 $68 $179 $182 forward $115 $-1 #
coedge $-1 $68 $106 $175 $183 reversed $115 $-1 #
loop $-1 $-1 $113 $159 #
vertex $-1 $69 $184 #
vertex $-1 $69 $185 #
straight-curve $-1 75.623645741141999 0 10.543644430932929 0 1 0 I I #
face $-1 $186 $131 $16 $-1 $187 reversed single #
loop $-1 $-1 $188 $70 #
plane-surface $-1 -73.536314979735138 -46.820133671926911 0 0 1 0 0 0 1 forward_v I I I I #
coedge $-1 $189 $190 $126 $191 forward $71 $-1 #
coedge $-1 $192 $73 $190 $193 forward $45 $-1 #
coedge $-1 $73 $192 $129 $194 forward $45 $-1 #
edge $-1 $132 71.448984218328278 $195 75.623645741141999 $73 $196 forward 7 unknown #
coedge $-1 $75 $74 $122 $191 reversed $29 $-1 #
coedge $-1 $197 $198 $74 $128 forward $199 $-1 #
edge $-1 $200 -75.623645741141999 $133 -71.448984218328278 $127 $201 forward 7 unknown #
coedge $-1 $202 $76 $124 $194 reversed $131 $-1 #
coedge $-1 $76 $202 $197 $203 reversed $131 $-1 #
loop $-1 $-1 $202 $119 #
vertex $-1 $125 $204 #
vertex $-1 $203 $205 #
straight-curve $-1 -71.448984218328278 -38.973399484283476 0 0 0 -1 I I #
face $-1 $-1 $147 $17 $-1 $206 forward single #
loop $-1 $-1 $207 $78 #
plane-surface $-1 -75.623645741141999 0 0 1 0 0 0 0 -1 forward_v I I I I #
coedge $-1 $208 $209 $210 $211 reversed $79 $-1 #
coedge $-1 $212 $81 $83 $145 forward $49 $-1 #
coedge $-1 $81 $212 $208 $213 forward $49 $-1 #
coedge $-1 $210 $84 $81 $142 forward $147 $-1 #
edge $-1 $149 -12.10457712046068 $214 -0.94423262927614182 $141 $215 forward 7 unknown #
coedge $-1 $216 $217 $82 $144 forward $136 $-1 #
edge $-1 $218 -47.33440348087553 $148 -39.34183555798932 $143 $219 forward 7 unknown #
edge $-1 $149 -10.433556314154613 $218 2.2061860048766535e-014 $83 $220 forward 7 unknown #
coedge $-1 $84 $210 $216 $221 forward $147 $-1 #
loop $-1 $-1 $210 $135 #
vertex $-1 $144 $222 #
vertex $-1 $85 $223 #
straight-curve $-1 -95.742897085636955 -18.628981995329092 10.543644430932929 1 0 0 I I #
coedge $-1 $151 $151 $-1 $224 reversed $88 $-1 #
edge $-1 $225 0 $225 6.2831853071796004 $89 $226 forward 7 unknown #
vertex $-1 $92 $227 #
ellipse-curve $-1 -72.270365430808312 -15.440312140704936 6.5473604694898286 -0.7660444514056185 0 0.64278759981090561 0.3213937999054528 0 0.38302222570280925 1 I I #
coedge $-1 $155 $155 $-1 $228 reversed $95 $-1 #
edge $-1 $229 0 $229 6.2831853071796004 $96 $230 forward 7 unknown #
vertex $-1 $99 $231 #
ellipse-curve $-1 -72.270365430808312 -10.657307358768705 6.5473604694898286 -0.7660444514056185 0 0.64278759981090561 0.3213937999054528 0 0.38302222570280925 1 I I #
face $-1 $-1 $115 $15 $-1 $232 reversed single #
loop $-1 $-1 $175 $100 #
plane-surface $-1 0 38.973399484283476 0 0 -1 0 0 0 -1 forward_v I I I I #
coedge $-1 $233 $173 $176 $234 forward $101 $-1 #
coedge $-1 $179 $103 $104 $167 reversed $63 $-1 #
coedge $-1 $173 $233 $103 $165 reversed $101 $-1 #
edge $-1 $180 -10.543644430932929 $235 10.543644430932929 $164 $236 forward 7 unknown #
coedge $-1 $105 $104 $233 $237 forward $41 $-1 #
edge $-1 $171 -75.623645741141999 $235 75.623645741141999 $163 $238 forward 7 unknown #
coedge $-1 $176 $175 $105 $169 reversed $160 $-1 #
edge $-1 $239 -75.623645741141999 $170 75.623645741141999 $168 $240 forward 7 unknown #
vertex $-1 $107 $241 #
vertex $-1 $182 $242 #
straight-curve $-1 75.623645741141999 0 -10.543644430932929 0 -1 0 I I #
coedge $-1 $162 $164 $108 $174 reversed $101 $-1 #
edge $-1 $177 -38.973399484283476 $180 38.973399484283476 $173 $243 forward 7 unknown #
coedge $-1 $168 $109 $114 $183 forward $160 $-1 #
coedge $-1 $109 $168 $162 $234 reversed $160 $-1 #
vertex $-1 $110 $244 #
straight-curve $-1 0 38.973399484283476 10.543644430932929 -1 0 0 I I #
coedge $-1 $111 $163 $113 $182 reversed $63 $-1 #
vertex $-1 $174 $245 #
straight-curve $-1 0 -38.973399484283476 10.543644430932929 1 0 0 I I #
edge $-1 $116 -10.543644430932929 $171 10.543644430932929 $113 $246 forward 7 unknown #
edge $-1 $117 -10.543644430932929 $170 10.543644430932929 $114 $247 forward 7 unknown #
point $-1 75.623645741141999 -38.973399484283476 10.543644430932929 #
point $-1 75.623645741141999 38.973399484283476 10.543644430932929 #
face $-1 $-1 $199 $16 $-1 $248 reversed single #
plane-surface $-1 -71.448984218328278 -42.896766578105193 0 -1 0 0 0 0 1 forward_v I I I I #
coedge $-1 $249 $250 $251 $252 forward $120 $-1 #
coedge $-1 $251 $122 $198 $253 reversed $71 $-1 #
coedge $-1 $122 $251 $123 $193 reversed $71 $-1 #
edge $-1 $195 -10.543644430932929 $200 10.543644430932929 $122 $254 forward 7 unknown #
coedge $-1 $124 $123 $250 $255 forward $45 $-1 #
edge $-1 $195 38.973399484283476 $256 46.820133671926911 $190 $257 forward 7 unknown #
edge $-1 $258 -3.9233670938217173 $132 3.9233670938217173 $129 $259 forward 7 unknown #
vertex $-1 $193 $260 #
straight-curve $-1 0 -38.973399484283476 10.543644430932929 -1 0 0 I I #
coedge $-1 $261 $127 $130 $203 forward $199 $-1 #
coedge $-1 $127 $261 $189 $253 forward $199 $-1 #
loop $-1 $-1 $127 $186 #
vertex $-1 $191 $262 #
straight-curve $-1 0 -38.973399484283476 -10.543644430932929 1 0 0 I I #
coedge $-1 $130 $129 $263 $264 forward $131 $-1 #
edge $-1 $133 -3.9233670938217173 $265 3.9233670938217173 $130 $266 forward 7 unknown #
point $-1 -71.448984218328278 -38.973399484283476 10.543644430932929 #
point $-1 -71.448984218328278 -38.973399484283476 -10.543644430932929 #
plane-surface $-1 0 0 10.543644430932929 0 0 1 1 0 0 forward_v I I I I #
coedge $-1 $217 $216 $209 $267 forward $136 $-1 #
coedge $-1 $209 $138 $140 $213 reversed $79 $-1 #
coedge $-1 $138 $208 $207 $267 reversed $79 $-1 #
coedge $-1 $146 $141 $138 $211 forward $147 $-1 #
edge $-1 $214 -26.82581196516233 $268 -20.119251344494955 $210 $269 forward 7 unknown #
coedge $-1 $140 $139 $217 $270 reversed $49 $-1 #
edge $-1 $271 -2.2061860048766535e-014 $214 10.433556314154613 $208 $272 forward 7 unknown #
vertex $-1 $142 $273 #
straight-curve $-1 -68.917085120474624 -6.5244048748684111 10.543644430932929 0 1 0 I I #
coedge $-1 $207 $143 $146 $221 reversed $136 $-1 #
coedge $-1 $143 $207 $212 $270 forward $136 $-1 #
vertex $-1 $144 $274 #
straight-curve $-1 -75.623645741141999 -18.628981995329092 49.885479988922249 0 0 1 I I #
straight-curve $-1 -75.623645741141985 -18.628981995329092 2.5510765080467337 -0.64278759981090561 0 -0.7660444514056185 I I #
edge $-1 $268 7.468637504144553 $148 18.628981995329092 $216 $275 forward 7 unknown #
point $-1 -75.623645741141999 -18.628981995329092 10.543644430932929 #
point $-1 -68.917085120474624 -18.628981995329092 10.543644430932929 #
edge $-1 $276 1 $276 0 $151 $-1 forward 7 unknown #
vertex $-1 $152 $277 #
ellipse-curve $-1 -70.797260571421759 -15.440312140704936 5.3112787576552174 -0.7660444514056185 0 0.64278759981090561 0.3213937999054528 0 0.38302222570280925 1 I I #
point $-1 -71.948971630902875 -15.440312140704936 6.9303826951926464 #
edge $-1 $278 1 $278 0 $155 $-1 forward 7 unknown #
vertex $-1 $156 $279 #
ellipse-curve $-1 -70.797260571421759 -10.657307358768705 5.3112787576552174 -0.7660444514056185 0 0.64278759981090561 0.3213937999054528 0 0.38302222570280925 1 I I #
point $-1 -71.948971630902875 -10.657307358768705 6.9303826951926464 #
plane-surface $-1 75.623645741141999 0 0 -1 0 0 0 0 1 forward_v I I I I #
coedge $-1 $164 $162 $166 $237 reversed $101 $-1 #
edge $-1 $177 -10.543644430932929 $239 10.543644430932929 $176 $280 forward 7 unknown #
vertex $-1 $237 $281 #
straight-curve $-1 -75.623645741141999 -38.973399484283476 0 0 0 -1 I I #
edge $-1 $235 -38.973399484283476 $239 38.973399484283476 $233 $282 forward 7 unknown #
straight-curve $-1 0 -38.973399484283476 -10.543644430932929 -1 0 0 I I #
vertex $-1 $169 $283 #
straight-curve $-1 0 38.973399484283476 -10.543644430932929 1 0 0 I I #
point $-1 75.623645741141999 38.973399484283476 -10.543644430932929 #
point $-1 75.623645741141999 -38.973399484283476 -10.543644430932929 #
straight-curve $-1 -75.623645741141999 0 10.543644430932929 0 -1 0 I I #
point $-1 -75.623645741141999 38.973399484283476 10.543644430932929 #
point $-1 -75.623645741141999 -38.973399484283476 10.543644430932929 #
straight-curve $-1 75.623645741141999 -38.973399484283476 0 0 0 -1 I I #
straight-curve $-1 75.623645741141999 38.973399484283476 0 0 0 -1 I I #
plane-surface $-1 0 0 -10.543644430932929 0 0 1 1 0 0 forward_v I I I I #
coedge $-1 $263 $188 $261 $284 reversed $120 $-1 #
coedge $-1 $188 $263 $192 $255 reversed $120 $-1 #
coedge $-1 $190 $189 $188 $252 reversed $71 $-1 #
edge $-1 $256 -10.543644430932929 $285 10.543644430932929 $251 $286 forward 7 unknown #
edge $-1 $285 -46.820133671926911 $200 -38.973399484283476 $189 $287 forward 7 unknown #
straight-curve $-1 -75.623645741141999 -38.973399484283476 0 0 0 -1 I I #
edge $-1 $256 -2.0873307614068608 $258 2.0873307614068608 $250 $288 forward 7 unknown #
vertex $-1 $193 $289 #
straight-curve $-1 -75.623645741141999 0 10.543644430932929 0 -1 0 I I #
vertex $-1 $194 $290 #
straight-curve $-1 -71.448984218328278 -42.896766578105193 10.543644430932929 0 1 0 I I #
point $-1 -75.623645741141999 -38.973399484283476 10.543644430932929 #
coedge $-1 $198 $197 $249 $284 forward $199 $-1 #
point $-1 -75.623645741141999 -38.973399484283476 -10.543644430932929 #
coedge $-1 $250 $249 $202 $264 reversed $120 $-1 #
edge $-1 $258 -10.543644430932929 $265 10.543644430932929 $202 $291 forward 7 unknown #
vertex $-1 $264 $292 #
straight-curve $-1 -71.448984218328278 -42.896766578105193 -10.543644430932929 0 -1 0 I I #
edge $-1 $268 39.34183555798932 $271 47.33440348087553 $207 $293 forward 7 unknown #
vertex $-1 $221 $294 #
straight-curve $-1 -95.742897085636955 -7.468637504144553 10.543644430932929 -1 0 0 I I #
edge $-1 $271 0.94423262927614182 $218 12.10457712046068 $217 $295 forward 7 unknown #
vertex $-1 $270 $296 #
straight-curve $-1 -75.623645741141985 -7.468637504144553 2.5510765080467337 0.64278759981090561 0 0.7660444514056185 I I #
point $-1 -68.917085120474624 -7.468637504144553 10.543644430932929 #
point $-1 -75.623645741141999 -18.628981995329092 2.5510765080467168 #
straight-curve $-1 -75.623645741141999 0 10.543644430932929 0 -1 0 I I #
vertex $-1 $224 $297 #
point $-1 -70.475866771516309 -15.440312140704936 5.6943009833580263 #
vertex $-1 $228 $298 #
point $-1 -70.475866771516309 -10.657307358768705 5.6943009833580263 #
straight-curve $-1 -75.623645741141999 38.973399484283476 0 0 0 -1 I I #
point $-1 -75.623645741141999 -38.973399484283476 -10.543644430932929 #
straight-curve $-1 -75.623645741141999 0 -10.543644430932929 0 1 0 I I #
point $-1 -75.623645741141999 38.973399484283476 -10.543644430932929 #
edge $-1 $265 -2.0873307614068608 $285 2.0873307614068608 $249 $299 forward 7 unknown #
vertex $-1 $253 $300 #
straight-curve $-1 -75.623645741141999 -46.820133671926911 0 0 0 -1 I I #
straight-curve $-1 -75.623645741141999 0 -10.543644430932929 0 1 0 I I #
straight-curve $-1 -73.536314979735138 -46.820133671926911 10.543644430932929 1 0 0 I I #
point $-1 -75.623645741141999 -46.820133671926911 10.543644430932929 #
point $-1 -71.448984218328278 -46.820133671926911 10.543644430932929 #
straight-curve $-1 -71.448984218328278 -46.820133671926911 0 0 0 -1 I I #
point $-1 -71.448984218328278 -46.820133671926911 -10.543644430932929 #
straight-curve $-1 -75.623645741141999 -7.468637504144553 49.885479988922249 0 0 -1 I I #
point $-1 -75.623645741141999 -7.468637504144553 10.543644430932929 #
straight-curve $-1 -75.623645741141999 -6.5244048748684111 2.5510765080466999 0 -1 0 I I #
point $-1 -75.623645741141999 -7.468637504144553 2.5510765080467168 #
point $-1 -70.414238345718957 -15.440312140704936 4.9898849577497648 #
point $-1 -70.414238345718957 -10.657307358768705 4.9898849577497648 #
straight-curve $-1 -73.536314979735138 -46.820133671926911 -10.543644430932929 -1 0 0 I I #
point $-1 -75.623645741141999 -46.820133671926911 -10.543644430932929 #
End-of-ACIS-data 