500 0 8 0           
7 Unknown 11 ACIS 5.0 NT 24 Thu Mar 25 19:56:00 1999 
-1 9.9999999999999995e-007 1e-010 
body $-1 $8 $-1 $9 #
body $-1 $10 $-1 $11 #
body $-1 $12 $-1 $13 #
body $-1 $14 $-1 $15 #
body $-1 $16 $-1 $17 #
body $-1 $18 $-1 $19 #
body $-1 $20 $-1 $21 #
body $-1 $22 $-1 $23 #
lump $-1 $-1 $24 $0 #
transform $-1 1 0 0 0 1 0 0 0 1 79.009979552598651 51.101977497428003 18.995706238415863 1 rotate no_reflect no_shear #
lump $-1 $-1 $25 $1 #
transform $-1 1 0 0 0 1 0 0 0 1 79.009979552598651 51.101977497428003 18.995706238415863 1 rotate no_reflect no_shear #
lump $-1 $-1 $26 $2 #
transform $-1 1 0 0 0 1 0 0 0 1 79.009979552598651 51.101977497428003 18.995706238415863 1 rotate no_reflect no_shear #
lump $-1 $-1 $27 $3 #
transform $-1 1 0 0 0 1 0 0 0 1 79.009979552598651 51.101977497428003 18.995706238415863 1 rotate no_reflect no_shear #
lump $-1 $-1 $28 $4 #
transform $-1 1 0 0 0 1 0 0 0 1 79.009979552598651 51.101977497428003 18.995706238415863 1 rotate no_reflect no_shear #
lump $-1 $-1 $29 $5 #
transform $-1 1 0 0 0 1 0 0 0 1 79.009979552598651 51.101977497428003 18.995706238415863 1 rotate no_reflect no_shear #
lump $-1 $-1 $30 $6 #
transform $-1 1 0 0 0 1 0 0 0 1 79.009979552598651 51.101977497428003 18.995706238415863 1 rotate no_reflect no_shear #
lump $-1 $-1 $31 $7 #
transform $-1 1 0 0 0 1 0 0 0 1 79.009979552598651 51.101977497428003 18.995706238415863 1 rotate no_reflect no_shear #
shell $-1 $-1 $-1 $32 $-1 $8 #
shell $-1 $-1 $-1 $33 $-1 $10 #
shell $-1 $-1 $-1 $34 $-1 $12 #
shell $-1 $-1 $-1 $35 $-1 $14 #
shell $-1 $-1 $-1 $36 $-1 $16 #
shell $-1 $-1 $-1 $37 $-1 $18 #
shell $-1 $-1 $-1 $38 $-1 $20 #
shell $-1 $-1 $-1 $39 $-1 $22 #
face $-1 $40 $41 $24 $-1 $42 forward single #
face $-1 $43 $44 $25 $-1 $45 reversed single #
face $-1 $46 $47 $26 $-1 $48 reversed single #
face $-1 $49 $50 $27 $-1 $51 forward single #
face $-1 $52 $53 $28 $-1 $54 forward single #
face $-1 $55 $56 $29 $-1 $57 forward single #
face $-1 $58 $59 $30 $-1 $60 reversed single #
face $-1 $61 $62 $31 $-1 $63 forward single #
face $-1 $64 $65 $24 $-1 $66 reversed single #
loop $-1 $-1 $67 $32 #
plane-surface $-1 0 0 18.995706238415863 0 0 1 1 0 0 forward_v I I I I #
face $-1 $68 $69 $25 $-1 $70 reversed single #
loop $-1 $-1 $71 $33 #
plane-surface $-1 -67.629077847813079 0 10.899675600823993 0 0 1 1 0 0 forward_v I I I I #
face $-1 $72 $73 $26 $-1 $74 reversed single #
loop $-1 $-1 $75 $34 #
plane-surface $-1 62.043991035963217 64.577056909353843 198.97410051479369 1 0 0 0 -0.6018150307709319 -0.79863550430605224 forward_v I I I I #
face $-1 $76 $77 $27 $-1 $78 forward single #
loop $-1 $79 $80 $35 #
cone-surface $-1 65.437188739290292 45.493970892269864 14.495016336934823 0 -0.6018150307709319 -0.79863550430605224 1.5 0 0 1 I I 0 1 1.5 forward I I I I #
face $-1 $81 $82 $28 $-1 $83 forward single #
loop $-1 $84 $85 $36 #
cone-surface $-1 70.526985294280934 45.493970892269864 14.495016336934823 0 -0.6018150307709319 -0.79863550430605224 1.5 0 0 1 I I 0 1 1.5 forward I I I I #
face $-1 $86 $87 $29 $-1 $88 forward single #
loop $-1 $89 $90 $37 #
cone-surface $-1 75.616781849271575 45.493970892269864 14.495016336934823 0 -0.6018150307709319 -0.79863550430605224 1.5 0 0 1 I I 0 1 1.5 forward I I I I #
face $-1 $91 $92 $30 $-1 $93 reversed single #
loop $-1 $-1 $94 $38 #
plane-surface $-1 62.49000817890925 -51.101977497427967 12.308106979252884 0 -0.68199836817093118 0.7313536940579346 1 0 0 forward_v I I I I #
face $-1 $95 $96 $31 $-1 $97 forward single #
loop $-1 $98 $99 $39 #
cone-surface $-1 62.49000817890925 -46.869045442702706 14.957927461140159 0 0.68199836817093118 -0.7313536940579346 1 0 0 1 I I 0 1 1 forward I I I I #
face $-1 $100 $101 $24 $-1 $102 reversed single #
loop $-1 $-1 $103 $40 #
plane-surface $-1 0 0 -18.995706238415863 0 0 1 1 0 0 forward_v I I I I #
coedge $-1 $104 $105 $106 $107 forward $41 $-1 #
face $-1 $108 $109 $25 $-1 $110 reversed single #
loop $-1 $-1 $111 $43 #
plane-surface $-1 -56.248176143027507 0 14.94769091961993 -1 0 0 0 0 1 forward_v I I I I #
coedge $-1 $112 $113 $114 $115 forward $44 $-1 #
face $-1 $116 $117 $26 $-1 $118 forward single #
loop $-1 $-1 $119 $46 #
plane-surface $-1 70.526985294280934 -30.521729641961869 72.773750784392689 0 0.6018150307709319 0.79863550430605224 1 0 0 forward_v I I I I #
coedge $-1 $120 $121 $122 $123 reversed $47 $-1 #
face $-1 $-1 $124 $27 $-1 $125 forward single #
loop $-1 $126 $127 $49 #
cone-surface $-1 65.437188739290292 44.563519526181629 13.260265694305936 0 -0.6018150307709319 -0.79863550430605224 0.75 0 0 1 I I -0.70710678118654757 0.70710678118654757 0.75 forward I I I I #
loop $-1 $-1 $128 $35 #
coedge $-1 $80 $80 $129 $130 reversed $50 $-1 #
face $-1 $-1 $131 $28 $-1 $132 forward single #
loop $-1 $133 $134 $52 #
cone-surface $-1 70.526985294280934 44.563519526181629 13.260265694305936 0 -0.6018150307709319 -0.79863550430605224 0.75 0 0 1 I I -0.70710678118654757 0.70710678118654757 0.75 forward I I I I #
loop $-1 $-1 $135 $36 #
coedge $-1 $85 $85 $136 $137 reversed $53 $-1 #
face $-1 $-1 $138 $29 $-1 $139 forward single #
loop $-1 $140 $141 $55 #
cone-surface $-1 75.616781849271575 44.563519526181629 13.260265694305936 0 -0.6018150307709319 -0.79863550430605224 0.75 0 0 1 I I -0.70710678118654757 0.70710678118654757 0.75 forward I I I I #
loop $-1 $-1 $142 $37 #
coedge $-1 $90 $90 $143 $144 reversed $56 $-1 #
face $-1 $145 $146 $30 $-1 $147 forward single #
loop $-1 $-1 $148 $58 #
plane-surface $-1 45.970036805219848 -158.87133174560981 127.87658780572269 1 0 0 0 0.68199836817093118 -0.7313536940579346 forward_v I I I I #
coedge $-1 $149 $150 $151 $152 reversed $59 $-1 #
face $-1 $-1 $153 $31 $-1 $154 forward single #
loop $-1 $155 $156 $61 #
cone-surface $-1 62.49000817890925 -45.880900219542724 13.898271466416979 0 0.68199836817093118 -0.7313536940579346 0.5 0 0 1 I I -0.70710678118654746 0.70710678118654746 0.5 forward I I I I #
loop $-1 $-1 $157 $39 #
coedge $-1 $99 $99 $158 $159 reversed $62 $-1 #
face $-1 $160 $161 $24 $-1 $162 reversed single #
loop $-1 $-1 $163 $64 #
plane-surface $-1 0 -51.101977497428003 0 0 1 0 0 0 1 forward_v I I I I #
coedge $-1 $164 $165 $166 $167 forward $65 $-1 #
coedge $-1 $168 $67 $169 $170 forward $41 $-1 #
coedge $-1 $67 $168 $171 $172 forward $41 $-1 #
coedge $-1 $173 $174 $67 $107 reversed $175 $-1 #
edge $-1 $176 -51.101977497428003 $177 51.101977497428003 $106 $178 forward 7 unknown #
face $-1 $179 $180 $25 $-1 $181 reversed single #
loop $-1 $-1 $182 $68 #
plane-surface $-1 0 51.101977497428003 0 0 -1 0 0 0 -1 forward_v I I I I #
coedge $-1 $114 $183 $184 $185 reversed $69 $-1 #
coedge $-1 $186 $71 $187 $188 reversed $44 $-1 #
coedge $-1 $71 $186 $189 $190 reversed $44 $-1 #
coedge $-1 $191 $111 $71 $115 reversed $69 $-1 #
edge $-1 $192 -51.101977497428003 $193 51.101977497428003 $114 $194 forward 7 unknown #
face $-1 $195 $196 $26 $-1 $197 reversed single #
loop $-1 $-1 $122 $72 #
plane-surface $-1 0 0 18.995706238415863 0 0 1 1 0 0 forward_v I I I I #
coedge $-1 $198 $199 $200 $201 reversed $73 $-1 #
coedge $-1 $121 $75 $202 $203 reversed $47 $-1 #
coedge $-1 $75 $120 $198 $204 reversed $47 $-1 #
coedge $-1 $200 $205 $75 $123 forward $117 $-1 #
edge $-1 $206 -18.813449042751081 $207 -8.5556160184548702 $122 $208 forward 7 unknown #
loop $-1 $-1 $129 $76 #
plane-surface $-1 70.526985294280934 -30.521729641961869 72.773750784392689 0 0.6018150307709319 0.79863550430605224 1 0 0 forward_v I I I I #
loop $-1 $-1 $209 $49 #
coedge $-1 $127 $127 $128 $210 reversed $77 $-1 #
coedge $-1 $128 $128 $127 $210 forward $79 $-1 #
coedge $-1 $129 $129 $80 $130 forward $124 $-1 #
edge $-1 $211 -2.357713379413375e-015 $211 6.2831853071795978 $129 $212 forward 7 unknown #
loop $-1 $-1 $136 $81 #
plane-surface $-1 70.526985294280934 -30.521729641961869 72.773750784392689 0 0.6018150307709319 0.79863550430605224 1 0 0 forward_v I I I I #
loop $-1 $-1 $213 $52 #
coedge $-1 $134 $134 $135 $214 reversed $82 $-1 #
coedge $-1 $135 $135 $134 $214 forward $84 $-1 #
coedge $-1 $136 $136 $85 $137 forward $131 $-1 #
edge $-1 $215 -2.357713379413375e-015 $215 6.2831853071795978 $136 $216 forward 7 unknown #
loop $-1 $-1 $143 $86 #
plane-surface $-1 70.526985294280934 -30.521729641961869 72.773750784392689 0 0.6018150307709319 0.79863550430605224 1 0 0 forward_v I I I I #
loop $-1 $-1 $217 $55 #
coedge $-1 $141 $141 $142 $218 reversed $87 $-1 #
coedge $-1 $142 $142 $141 $218 forward $89 $-1 #
coedge $-1 $143 $143 $90 $144 forward $138 $-1 #
edge $-1 $219 -2.357713379413375e-015 $219 6.2831853071795978 $143 $220 forward 7 unknown #
face $-1 $221 $222 $30 $-1 $223 reversed single #
loop $-1 $-1 $151 $91 #
plane-surface $-1 0 0 18.995706238415863 0 0 1 1 0 0 forward_v I I I I #
coedge $-1 $224 $225 $226 $227 reversed $92 $-1 #
coedge $-1 $228 $94 $229 $230 reversed $59 $-1 #
coedge $-1 $94 $228 $224 $231 forward $59 $-1 #
coedge $-1 $226 $232 $94 $152 forward $146 $-1 #
edge $-1 $233 -47.764975463144026 $234 -14.725032715765224 $151 $235 forward 7 unknown #
loop $-1 $-1 $158 $95 #
plane-surface $-1 62.49000817890925 -51.101977497427967 12.308106979252884 0 -0.68199836817093118 0.7313536940579346 1 0 0 forward_v I I I I #
loop $-1 $-1 $236 $61 #
coedge $-1 $156 $156 $157 $237 reversed $96 $-1 #
coedge $-1 $157 $157 $156 $237 forward $98 $-1 #
coedge $-1 $158 $158 $99 $159 forward $153 $-1 #
edge $-1 $238 1.7215635659188341e-015 $238 6.2831853071796022 $158 $239 forward 7 unknown #
face $-1 $240 $241 $24 $-1 $242 reversed single #
loop $-1 $-1 $243 $100 #
plane-surface $-1 -79.009979552598651 0 0 1 0 0 0 0 -1 forward_v I I I I #
coedge $-1 $244 $171 $245 $246 forward $101 $-1 #
coedge $-1 $247 $103 $244 $248 forward $65 $-1 #
coedge $-1 $103 $247 $249 $250 forward $65 $-1 #
coedge $-1 $174 $173 $103 $167 reversed $175 $-1 #
edge $-1 $251 -51.101977497428003 $252 51.101977497428003 $166 $253 forward 7 unknown #
coedge $-1 $105 $104 $254 $255 forward $41 $-1 #
coedge $-1 $256 $257 $104 $170 reversed $241 $-1 #
edge $-1 $177 -79.009979552598651 $258 79.009979552598651 $169 $259 forward 7 unknown #
coedge $-1 $163 $260 $105 $172 reversed $101 $-1 #
edge $-1 $261 -79.009979552598651 $176 79.009979552598651 $171 $262 forward 7 unknown #
coedge $-1 $166 $106 $260 $263 forward $175 $-1 #
coedge $-1 $106 $166 $256 $264 reversed $175 $-1 #
loop $-1 $-1 $173 $240 #
vertex $-1 $107 $265 #
vertex $-1 $107 $266 #
straight-curve $-1 79.009979552598651 0 18.995706238415863 0 1 0 I I #
face $-1 $267 $268 $25 $-1 $269 forward single #
loop $-1 $-1 $270 $108 #
plane-surface $-1 -79.009979552598651 0 0 1 0 0 0 0 -1 forward_v I I I I #
coedge $-1 $189 $271 $191 $272 forward $109 $-1 #
coedge $-1 $111 $191 $273 $274 reversed $69 $-1 #
coedge $-1 $275 $187 $111 $185 forward $276 $-1 #
edge $-1 $193 3.4258301410140284 $277 11.521860778605902 $184 $278 forward 7 unknown #
coedge $-1 $113 $112 $270 $279 reversed $44 $-1 #
coedge $-1 $184 $280 $112 $188 forward $276 $-1 #
edge $-1 $281 -45.195440628692111 $193 -22.433637219120968 $187 $282 forward 7 unknown #
coedge $-1 $283 $182 $113 $190 forward $109 $-1 #
edge $-1 $192 22.433637219120968 $284 45.195440628692111 $189 $285 forward 7 unknown #
coedge $-1 $183 $114 $182 $272 reversed $69 $-1 #
vertex $-1 $190 $286 #
vertex $-1 $188 $287 #
straight-curve $-1 -56.248176143027507 0 10.899675600823993 0 -1 0 I I #
face $-1 $-1 $288 $26 $-1 $289 reversed single #
loop $-1 $-1 $290 $116 #
plane-surface $-1 79.009979552598651 0 0 -1 0 0 0 0 1 forward_v I I I I #
coedge $-1 $291 $119 $121 $204 forward $73 $-1 #
coedge $-1 $119 $291 $290 $292 reversed $73 $-1 #
coedge $-1 $293 $122 $119 $201 forward $117 $-1 #
edge $-1 $207 26.78049838882275 $294 43.746486905458184 $200 $295 forward 7 unknown #
coedge $-1 $296 $297 $120 $203 forward $288 $-1 #
edge $-1 $298 -88.22117579314434 $206 -80.491344018980982 $202 $299 forward 7 unknown #
edge $-1 $207 89.359756397387656 $298 102.20395499485599 $121 $300 forward 7 unknown #
coedge $-1 $122 $293 $296 $301 forward $117 $-1 #
vertex $-1 $203 $302 #
vertex $-1 $123 $303 #
straight-curve $-1 62.043991035963217 32.288528454676921 18.995706238415863 0 -1 0 I I #
coedge $-1 $209 $209 $-1 $304 reversed $126 $-1 #
edge $-1 $305 0 $305 6.2831853071796004 $127 $306 forward 7 unknown #
vertex $-1 $130 $307 #
ellipse-curve $-1 65.437188739290292 45.973060985279901 15.130790351334173 0 0.6018150307709319 0.79863550430605224 1.5 0 0 1 I I #
coedge $-1 $213 $213 $-1 $308 reversed $133 $-1 #
edge $-1 $309 0 $309 6.2831853071796004 $134 $310 forward 7 unknown #
vertex $-1 $137 $311 #
ellipse-curve $-1 70.526985294280934 45.973060985279901 15.130790351334173 0 0.6018150307709319 0.79863550430605224 1.5 0 0 1 I I #
coedge $-1 $217 $217 $-1 $312 reversed $140 $-1 #
edge $-1 $313 0 $313 6.2831853071796004 $141 $314 forward 7 unknown #
vertex $-1 $144 $315 #
ellipse-curve $-1 75.616781849271575 45.973060985279901 15.130790351334173 0 0.6018150307709319 0.79863550430605224 1.5 0 0 1 I I #
face $-1 $-1 $316 $30 $-1 $317 reversed single #
loop $-1 $-1 $318 $145 #
plane-surface $-1 0 -51.101977497428003 0 0 1 0 0 0 1 forward_v I I I I #
coedge $-1 $225 $148 $150 $231 reversed $92 $-1 #
coedge $-1 $148 $224 $319 $320 reversed $92 $-1 #
coedge $-1 $321 $151 $148 $227 forward $146 $-1 #
edge $-1 $234 -35.505260406678495 $322 -28.333688375376902 $226 $323 forward 7 unknown #
coedge $-1 $150 $149 $318 $324 reversed $59 $-1 #
coedge $-1 $325 $326 $149 $230 forward $316 $-1 #
edge $-1 $327 -14.489755570642888 $233 -4.6838680916175992 $229 $328 forward 7 unknown #
edge $-1 $329 -4.9000879578653637e-014 $234 9.805887479025241 $224 $330 forward 7 unknown #
coedge $-1 $151 $321 $325 $331 forward $146 $-1 #
vertex $-1 $230 $332 #
vertex $-1 $152 $333 #
straight-curve $-1 31.245004089454625 -43.930405466126416 18.995706238415863 -1 0 0 I I #
coedge $-1 $236 $236 $-1 $334 reversed $155 $-1 #
edge $-1 $335 0 $335 6.2831853071796004 $156 $336 forward 7 unknown #
vertex $-1 $159 $337 #
ellipse-curve $-1 62.49000817890925 -47.516191481777206 15.651906608834356 0 -0.68199836817093118 0.7313536940579346 1 0 0 1 I I #
face $-1 $-1 $175 $24 $-1 $338 reversed single #
loop $-1 $-1 $256 $160 #
plane-surface $-1 0 51.101977497428003 0 0 -1 0 0 0 -1 forward_v I I I I #
coedge $-1 $339 $254 $257 $340 forward $161 $-1 #
coedge $-1 $260 $163 $164 $248 reversed $101 $-1 #
coedge $-1 $254 $339 $163 $246 reversed $161 $-1 #
edge $-1 $261 -18.995706238415863 $341 18.995706238415863 $245 $342 forward 7 unknown #
coedge $-1 $165 $164 $339 $343 forward $65 $-1 #
edge $-1 $252 -79.009979552598651 $341 79.009979552598651 $244 $344 forward 7 unknown #
coedge $-1 $257 $256 $165 $250 reversed $241 $-1 #
edge $-1 $345 -79.009979552598651 $251 79.009979552598651 $249 $346 forward 7 unknown #
vertex $-1 $167 $347 #
vertex $-1 $263 $348 #
straight-curve $-1 79.009979552598651 0 -18.995706238415863 0 -1 0 I I #
coedge $-1 $243 $245 $168 $255 reversed $161 $-1 #
edge $-1 $258 -51.101977497428003 $261 51.101977497428003 $254 $349 forward 7 unknown #
coedge $-1 $249 $169 $174 $264 forward $241 $-1 #
coedge $-1 $169 $249 $243 $340 reversed $241 $-1 #
vertex $-1 $170 $350 #
straight-curve $-1 0 51.101977497428003 18.995706238415863 -1 0 0 I I #
coedge $-1 $171 $244 $173 $263 reversed $101 $-1 #
vertex $-1 $255 $351 #
straight-curve $-1 0 -51.101977497428003 18.995706238415863 1 0 0 I I #
edge $-1 $176 -18.995706238415863 $252 18.995706238415863 $173 $352 forward 7 unknown #
edge $-1 $177 -18.995706238415863 $251 18.995706238415863 $174 $353 forward 7 unknown #
point $-1 79.009979552598651 -51.101977497428003 18.995706238415863 #
point $-1 79.009979552598651 51.101977497428003 18.995706238415863 #
face $-1 $-1 $276 $25 $-1 $354 reversed single #
loop $-1 $-1 $273 $179 #
plane-surface $-1 0 0 18.995706238415863 0 0 1 1 0 0 forward_v I I I I #
coedge $-1 $355 $356 $186 $279 forward $180 $-1 #
coedge $-1 $182 $283 $357 $358 reversed $109 $-1 #
edge $-1 $359 -11.521860778605902 $192 -3.4258301410140284 $182 $360 forward 7 unknown #
coedge $-1 $357 $361 $183 $274 forward $268 $-1 #
edge $-1 $277 -51.101977497428003 $359 51.101977497428003 $273 $362 forward 7 unknown #
coedge $-1 $280 $184 $361 $363 reversed $276 $-1 #
loop $-1 $-1 $184 $267 #
vertex $-1 $185 $364 #
straight-curve $-1 -56.248176143027507 -51.101977497428003 7.4738454598099651 0 0 1 I I #
edge $-1 $284 -51.101977497428003 $281 51.101977497428003 $270 $365 forward 7 unknown #
coedge $-1 $187 $275 $355 $366 forward $276 $-1 #
vertex $-1 $279 $367 #
straight-curve $-1 -33.814538923906539 -51.101977497428003 10.899675600823993 1 0 0 I I #
coedge $-1 $271 $189 $356 $368 reversed $109 $-1 #
vertex $-1 $279 $369 #
straight-curve $-1 -33.814538923906539 51.101977497428003 10.899675600823993 -1 0 0 I I #
point $-1 -56.248176143027507 51.101977497428003 10.899675600823993 #
point $-1 -56.248176143027507 -51.101977497428003 10.899675600823993 #
loop $-1 $-1 $202 $195 #
plane-surface $-1 0 51.101977497428003 0 0 -1 0 0 0 -1 forward_v I I I I #
coedge $-1 $370 $371 $199 $292 forward $196 $-1 #
coedge $-1 $199 $198 $297 $372 reversed $73 $-1 #
edge $-1 $294 55.273719391124345 $373 68.11791798859268 $290 $374 forward 7 unknown #
coedge $-1 $205 $200 $371 $375 forward $117 $-1 #
vertex $-1 $375 $376 #
straight-curve $-1 35.263492647140467 40.844144473131799 18.995706238415863 1 0 0 I I #
coedge $-1 $377 $202 $205 $301 reversed $288 $-1 #
coedge $-1 $202 $377 $291 $372 forward $288 $-1 #
vertex $-1 $203 $378 #
straight-curve $-1 62.043991035963217 51.101977497428003 99.487050257396845 0 0 1 I I #
straight-curve $-1 62.043991035963217 -30.521729641961869 72.773750784392689 0 0.79863550430605224 -0.6018150307709319 I I #
edge $-1 $379 -79.009979552598651 $206 -62.043991035963217 $296 $380 forward 7 unknown #
point $-1 62.043991035963217 51.101977497428003 18.995706238415863 #
point $-1 62.043991035963217 40.844144473131792 18.995706238415863 #
edge $-1 $381 1 $381 0 $209 $-1 forward 7 unknown #
vertex $-1 $210 $382 #
ellipse-curve $-1 65.437188739290292 45.014880799259828 13.859242322535476 0 0.6018150307709319 0.79863550430605224 1.5 0 0 1 I I #
point $-1 66.937188739290292 45.973060985279893 15.13079035133417 #
edge $-1 $383 1 $383 0 $213 $-1 forward 7 unknown #
vertex $-1 $214 $384 #
ellipse-curve $-1 70.526985294280934 45.014880799259828 13.859242322535476 0 0.6018150307709319 0.79863550430605224 1.5 0 0 1 I I #
point $-1 72.026985294280934 45.973060985279893 15.13079035133417 #
edge $-1 $385 1 $385 0 $217 $-1 forward 7 unknown #
vertex $-1 $218 $386 #
ellipse-curve $-1 75.616781849271575 45.014880799259828 13.859242322535476 0 0.6018150307709319 0.79863550430605224 1.5 0 0 1 I I #
point $-1 77.116781849271575 45.973060985279893 15.13079035133417 #
loop $-1 $-1 $229 $221 #
plane-surface $-1 79.009979552598651 0 0 -1 0 0 0 0 1 forward_v I I I I #
coedge $-1 $387 $319 $228 $324 forward $222 $-1 #
coedge $-1 $318 $388 $225 $320 forward $222 $-1 #
edge $-1 $322 44.942587664445483 $329 51.630186923608498 $319 $389 forward 7 unknown #
coedge $-1 $232 $226 $388 $390 forward $146 $-1 #
vertex $-1 $390 $391 #
straight-curve $-1 45.970036805219848 -79.435665872804904 18.995706238415863 0 -1 0 I I #
edge $-1 $329 14.725032715765224 $327 47.764975463144026 $318 $392 forward 7 unknown #
coedge $-1 $326 $229 $232 $331 reversed $316 $-1 #
coedge $-1 $229 $325 $387 $393 forward $316 $-1 #
vertex $-1 $324 $394 #
straight-curve $-1 79.009979552598651 -40.504841234841791 22.190096633626961 0 0.7313536940579346 0.68199836817093118 I I #
vertex $-1 $324 $395 #
straight-curve $-1 45.970036805219848 -51.101977497427967 12.308106979252884 0 0.7313536940579346 0.68199836817093118 I I #
edge $-1 $396 -51.101977497428003 $233 -43.930405466126409 $325 $397 forward 7 unknown #
point $-1 79.009979552598651 -43.930405466126409 18.995706238415863 #
point $-1 45.970036805219848 -43.930405466126409 18.995706238415863 #
edge $-1 $398 1 $398 0 $236 $-1 forward 7 unknown #
vertex $-1 $237 $399 #
ellipse-curve $-1 62.49000817890925 -46.221899403628193 14.263948313445946 0 -0.68199836817093118 0.7313536940579346 1 0 0 1 I I #
point $-1 63.49000817890925 -47.51619148177722 15.651906608834373 #
plane-surface $-1 79.009979552598651 0 0 -1 0 0 0 0 1 forward_v I I I I #
coedge $-1 $245 $243 $247 $343 reversed $161 $-1 #
edge $-1 $258 -18.995706238415863 $345 18.995706238415863 $257 $400 forward 7 unknown #
vertex $-1 $343 $401 #
straight-curve $-1 -79.009979552598651 -51.101977497428003 0 0 0 -1 I I #
edge $-1 $341 -51.101977497428003 $345 51.101977497428003 $339 $402 forward 7 unknown #
straight-curve $-1 0 -51.101977497428003 -18.995706238415863 -1 0 0 I I #
vertex $-1 $250 $403 #
straight-curve $-1 0 51.101977497428003 -18.995706238415863 1 0 0 I I #
point $-1 79.009979552598651 51.101977497428003 -18.995706238415863 #
point $-1 79.009979552598651 -51.101977497428003 -18.995706238415863 #
straight-curve $-1 -79.009979552598651 0 18.995706238415863 0 -1 0 I I #
point $-1 -79.009979552598651 51.101977497428003 18.995706238415863 #
point $-1 -79.009979552598651 -51.101977497428003 18.995706238415863 #
straight-curve $-1 79.009979552598651 -51.101977497428003 0 0 0 -1 I I #
straight-curve $-1 79.009979552598651 51.101977497428003 0 0 0 -1 I I #
plane-surface $-1 0 -51.101977497428003 0 0 1 0 0 0 1 forward_v I I I I #
coedge $-1 $404 $270 $280 $366 reversed $180 $-1 #
coedge $-1 $270 $404 $283 $368 forward $180 $-1 #
coedge $-1 $405 $273 $271 $358 forward $268 $-1 #
edge $-1 $359 56.248176143027507 $406 79.009979552598651 $271 $407 forward 7 unknown #
vertex $-1 $358 $408 #
straight-curve $-1 -56.248176143027507 51.101977497428003 7.4738454598099651 0 0 -1 I I #
coedge $-1 $273 $405 $275 $363 forward $268 $-1 #
straight-curve $-1 -56.248176143027507 0 18.995706238415863 0 1 0 I I #
edge $-1 $409 -79.009979552598651 $277 -56.248176143027507 $275 $410 forward 7 unknown #
point $-1 -56.248176143027507 -51.101977497428003 18.995706238415867 #
straight-curve $-1 -79.009979552598651 0 10.899675600823993 0 -1 0 I I #
edge $-1 $409 -18.995706238415863 $281 -10.899675600823993 $355 $411 forward 7 unknown #
point $-1 -79.009979552598651 -51.101977497428003 10.899675600823993 #
edge $-1 $406 -18.995706238415863 $284 -10.899675600823993 $283 $412 forward 7 unknown #
point $-1 -79.009979552598651 51.101977497428003 10.899675600823993 #
coedge $-1 $371 $290 $377 $413 reversed $196 $-1 #
coedge $-1 $290 $370 $293 $375 reversed $196 $-1 #
edge $-1 $373 -43.746486905458184 $298 -26.78049838882275 $297 $414 forward 7 unknown #
vertex $-1 $292 $415 #
straight-curve $-1 79.009979552598651 -3.2994102876700158 52.260261374609215 0 0.79863550430605224 -0.6018150307709319 I I #
edge $-1 $294 40.844144473131792 $379 51.101977497428003 $371 $416 forward 7 unknown #
point $-1 79.009979552598651 40.844144473131792 18.995706238415863 #
coedge $-1 $297 $296 $370 $413 forward $288 $-1 #
point $-1 62.043991035963217 51.101977497427995 11.265874464252498 #
vertex $-1 $375 $417 #
straight-curve $-1 0 51.101977497428003 18.995706238415863 -1 0 0 I I #
vertex $-1 $304 $418 #
point $-1 66.937188739290292 45.014880799259828 13.859242322535476 #
vertex $-1 $308 $419 #
point $-1 72.026985294280934 45.014880799259828 13.859242322535476 #
vertex $-1 $312 $420 #
point $-1 77.116781849271575 45.014880799259828 13.859242322535476 #
coedge $-1 $388 $318 $326 $393 reversed $222 $-1 #
coedge $-1 $319 $387 $321 $390 reversed $222 $-1 #
straight-curve $-1 45.970036805219848 -51.101977497428003 63.938293902861346 0 0 -1 I I #
edge $-1 $322 45.970036805219848 $396 79.009979552598651 $388 $421 forward 7 unknown #
point $-1 45.970036805219848 -51.101977497428003 18.995706238415863 #
straight-curve $-1 31.245004089454625 -51.101977497428003 12.308106979252845 1 0 0 I I #
edge $-1 $396 -18.995706238415863 $327 -12.30810697925285 $326 $422 forward 7 unknown #
point $-1 79.009979552598651 -51.101977497428003 12.30810697925285 #
point $-1 45.970036805219848 -51.101977497428003 12.30810697925285 #
vertex $-1 $331 $423 #
straight-curve $-1 79.009979552598651 0 18.995706238415863 0 1 0 I I #
vertex $-1 $334 $424 #
point $-1 63.49000817890925 -46.221899403628193 14.263948313445946 #
straight-curve $-1 -79.009979552598651 51.101977497428003 0 0 0 -1 I I #
point $-1 -79.009979552598651 -51.101977497428003 -18.995706238415863 #
straight-curve $-1 -79.009979552598651 0 -18.995706238415863 0 1 0 I I #
point $-1 -79.009979552598651 51.101977497428003 -18.995706238415863 #
coedge $-1 $356 $355 $405 $425 reversed $180 $-1 #
coedge $-1 $361 $357 $404 $425 forward $268 $-1 #
vertex $-1 $358 $426 #
straight-curve $-1 0 51.101977497428003 18.995706238415863 -1 0 0 I I #
point $-1 -56.248176143027507 51.101977497428003 18.995706238415867 #
vertex $-1 $425 $427 #
straight-curve $-1 0 -51.101977497428003 18.995706238415863 1 0 0 I I #
straight-curve $-1 -79.009979552598651 -51.101977497428003 0 0 0 -1 I I #
straight-curve $-1 -79.009979552598651 51.101977497428003 0 0 0 -1 I I #
edge $-1 $379 -18.995706238415863 $373 -11.265874464252498 $370 $428 forward 7 unknown #
straight-curve $-1 35.263492647140467 51.101977497427995 11.265874464252505 -1 0 0 I I #
point $-1 79.009979552598651 51.101977497427995 11.265874464252498 #
straight-curve $-1 79.009979552598651 0 18.995706238415863 0 1 0 I I #
point $-1 79.009979552598651 51.101977497428003 18.995706238415863 #
point $-1 65.437188739290292 44.112158253103431 12.661289066076396 #
point $-1 70.526985294280934 44.112158253103431 12.661289066076396 #
point $-1 75.616781849271575 44.112158253103431 12.661289066076396 #
straight-curve $-1 0 -51.101977497428003 18.995706238415863 1 0 0 I I #
straight-curve $-1 79.009979552598651 -51.101977497428003 0 0 0 -1 I I #
point $-1 79.009979552598651 -51.101977497428003 18.995706238415863 #
point $-1 62.49000817890925 -45.539901035457255 13.532594619388012 #
edge $-1 $406 -51.101977497428003 $409 51.101977497428003 $404 $429 forward 7 unknown #
point $-1 -79.009979552598651 51.101977497428003 18.995706238415863 #
point $-1 -79.009979552598651 -51.101977497428003 18.995706238415863 #
straight-curve $-1 79.009979552598651 51.101977497428003 0 0 0 -1 I I #
straight-curve $-1 -79.009979552598651 0 18.995706238415863 0 -1 0 I I #
End-of-ACIS-data 