500 0 8 0           
7 Unknown 11 ACIS 5.0 NT 24 Thu Mar 25 15:14:11 1999 
-1 9.9999999999999995e-007 1e-010 
body $-1 $8 $-1 $9 #
body $-1 $10 $-1 $11 #
body $-1 $12 $-1 $13 #
body $-1 $14 $-1 $15 #
body $-1 $16 $-1 $17 #
body $-1 $18 $-1 $19 #
body $-1 $20 $-1 $21 #
body $-1 $22 $-1 $23 #
lump $-1 $-1 $24 $0 #
transform $-1 1 0 0 0 1 0 0 0 1 41.774956511123996 28.845080295891677 10.592668437526626 1 rotate no_reflect no_shear #
lump $-1 $-1 $25 $1 #
transform $-1 1 0 0 0 1 0 0 0 1 41.774956511123996 28.845080295891677 10.592668437526626 1 rotate no_reflect no_shear #
lump $-1 $-1 $26 $2 #
transform $-1 1 0 0 0 1 0 0 0 1 41.774956511123996 28.845080295891677 10.592668437526626 1 rotate no_reflect no_shear #
lump $-1 $-1 $27 $3 #
transform $-1 1 0 0 0 1 0 0 0 1 41.774956511123996 28.845080295891677 10.592668437526626 1 rotate no_reflect no_shear #
lump $-1 $-1 $28 $4 #
transform $-1 1 0 0 0 1 0 0 0 1 41.774956511123996 28.845080295891677 10.592668437526626 1 rotate no_reflect no_shear #
lump $-1 $-1 $29 $5 #
transform $-1 1 0 0 0 1 0 0 0 1 41.774956511123996 28.845080295891677 10.592668437526626 1 rotate no_reflect no_shear #
lump $-1 $-1 $30 $6 #
transform $-1 1 0 0 0 1 0 0 0 1 41.774956511123996 28.845080295891677 10.592668437526626 1 rotate no_reflect no_shear #
lump $-1 $-1 $31 $7 #
transform $-1 1 0 0 0 1 0 0 0 1 41.774956511123996 28.845080295891677 10.592668437526626 1 rotate no_reflect no_shear #
shell $-1 $-1 $-1 $32 $-1 $8 #
shell $-1 $-1 $-1 $33 $-1 $10 #
shell $-1 $-1 $-1 $34 $-1 $12 #
shell $-1 $-1 $-1 $35 $-1 $14 #
shell $-1 $-1 $-1 $36 $-1 $16 #
shell $-1 $-1 $-1 $37 $-1 $18 #
shell $-1 $-1 $-1 $38 $-1 $20 #
shell $-1 $-1 $-1 $39 $-1 $22 #
face $-1 $40 $41 $24 $-1 $42 forward single #
face $-1 $43 $44 $25 $-1 $45 reversed single #
face $-1 $46 $47 $26 $-1 $48 forward single #
face $-1 $49 $50 $27 $-1 $51 forward single #
face $-1 $52 $53 $28 $-1 $54 forward single #
face $-1 $55 $56 $29 $-1 $57 reversed single #
face $-1 $58 $59 $30 $-1 $60 forward single #
face $-1 $61 $62 $31 $-1 $63 forward single #
face $-1 $64 $65 $24 $-1 $66 reversed single #
loop $-1 $-1 $67 $32 #
plane-surface $-1 0 0 10.592668437526626 0 0 1 1 0 0 forward_v I I I I #
face $-1 $68 $69 $25 $-1 $70 reversed single #
loop $-1 $-1 $71 $33 #
plane-surface $-1 58.21929267115258 -12.44081453972279 121.97784802853063 0 -1 0 -0.79863551827123203 0 -0.60181501223851219 forward_v I I I I #
face $-1 $72 $73 $26 $-1 $74 forward single #
loop $-1 $75 $76 $34 #
cone-surface $-1 38.994064297379992 -19.181236101413358 7.2822509161203994 -0.79863551827123203 0 -0.60181501223851219 0.3009075061192561 0 -0.39931775913561601 1 I I 0 1 0.5 forward I I I I #
face $-1 $77 $78 $27 $-1 $79 forward single #
loop $-1 $80 $81 $35 #
cone-surface $-1 38.994064297379992 -16.653578015779395 7.2822509161203994 -0.79863551827123203 0 -0.60181501223851219 0.3009075061192561 0 -0.39931775913561601 1 I I 0 1 0.5 forward I I I I #
face $-1 $82 $83 $28 $-1 $84 forward single #
loop $-1 $85 $86 $36 #
cone-surface $-1 38.994064297379992 -14.125919930145432 7.2822509161203994 -0.79863551827123203 0 -0.60181501223851219 0.3009075061192561 0 -0.39931775913561601 1 I I 0 1 0.5 forward I I I I #
face $-1 $87 $88 $29 $-1 $89 reversed single #
loop $-1 $-1 $90 $37 #
plane-surface $-1 -92.056549987516846 12.139841622480361 67.481787526224693 0 1 0 -0.6018150307709319 0 0.79863550430605224 forward_v I I I I #
face $-1 $91 $92 $30 $-1 $93 forward single #
loop $-1 $94 $95 $38 #
cone-surface $-1 -34.89900482003106 16.912766957740736 5.2111134494231299 0.6018150307709319 0 -0.79863550430605224 0.79863550430605224 0 0.6018150307709319 1 I I 0 1 1 forward I I I I #
face $-1 $96 $97 $31 $-1 $98 forward single #
loop $-1 $99 $100 $39 #
cone-surface $-1 -34.89900482003106 24.072154960631295 5.2111134494231299 0.6018150307709319 0 -0.79863550430605224 0.79863550430605224 0 0.6018150307709319 1 I I 0 1 1 forward I I I I #
face $-1 $101 $102 $24 $-1 $103 reversed single #
loop $-1 $-1 $104 $40 #
plane-surface $-1 0 0 -10.592668437526626 0 0 1 1 0 0 forward_v I I I I #
coedge $-1 $105 $106 $107 $108 forward $41 $-1 #
face $-1 $109 $110 $25 $-1 $111 reversed single #
loop $-1 $-1 $112 $43 #
plane-surface $-1 -8.5066354168868017 -16.653578015779395 71.696256100519832 0.79863551827123203 0 0.60181501223851219 0.60181501223851219 0 -0.79863551827123203 forward_v I I I I #
coedge $-1 $113 $114 $115 $116 reversed $44 $-1 #
face $-1 $-1 $117 $26 $-1 $118 forward single #
loop $-1 $119 $120 $46 #
cone-surface $-1 38.131881843014135 -19.181236101413358 6.6325498541776469 -0.79863551827123203 0 -0.60181501223851219 0.15045375305962805 0 -0.19965887956780801 1 I I -0.70710678118654746 0.70710678118654746 0.25 forward I I I I #
loop $-1 $-1 $121 $34 #
coedge $-1 $76 $76 $122 $123 reversed $47 $-1 #
face $-1 $-1 $124 $27 $-1 $125 forward single #
loop $-1 $126 $127 $49 #
cone-surface $-1 38.131881843014135 -16.653578015779395 6.6325498541776469 -0.79863551827123203 0 -0.60181501223851219 0.15045375305962805 0 -0.19965887956780801 1 I I -0.70710678118654746 0.70710678118654746 0.25 forward I I I I #
loop $-1 $-1 $128 $35 #
coedge $-1 $81 $81 $129 $130 reversed $50 $-1 #
face $-1 $-1 $131 $28 $-1 $132 forward single #
loop $-1 $133 $134 $52 #
cone-surface $-1 38.131881843014135 -14.125919930145432 6.6325498541776469 -0.79863551827123203 0 -0.60181501223851219 0.15045375305962805 0 -0.19965887956780801 1 I I -0.70710678118654746 0.70710678118654746 0.25 forward I I I I #
loop $-1 $-1 $135 $36 #
coedge $-1 $86 $86 $136 $137 reversed $53 $-1 #
face $-1 $138 $139 $29 $-1 $140 forward single #
loop $-1 $-1 $141 $55 #
plane-surface $-1 -41.774956511123989 20.492460959186019 0.7558606049748704 -0.6018150307709319 0 0.79863550430605224 0.79863550430605224 0 0.6018150307709319 forward_v I I I I #
coedge $-1 $142 $143 $144 $145 reversed $56 $-1 #
face $-1 $-1 $146 $30 $-1 $147 forward single #
loop $-1 $148 $149 $58 #
cone-surface $-1 -34.249087931733072 16.912766957740736 4.3486446254424784 0.6018150307709319 0 -0.79863550430605224 0.39931775215302612 0 0.30090751538546595 1 I I -0.70710678118654746 0.70710678118654746 0.5 forward I I I I #
loop $-1 $-1 $150 $38 #
coedge $-1 $95 $95 $151 $152 reversed $59 $-1 #
face $-1 $-1 $153 $31 $-1 $154 forward single #
loop $-1 $155 $156 $61 #
cone-surface $-1 -34.249087931733072 24.072154960631295 4.3486446254424784 0.6018150307709319 0 -0.79863550430605224 0.39931775215302612 0 0.30090751538546595 1 I I -0.70710678118654746 0.70710678118654746 0.5 forward I I I I #
loop $-1 $-1 $157 $39 #
coedge $-1 $100 $100 $158 $159 reversed $62 $-1 #
face $-1 $160 $161 $24 $-1 $162 reversed single #
loop $-1 $-1 $163 $64 #
plane-surface $-1 0 -28.845080295891677 0 0 1 0 0 0 1 forward_v I I I I #
coedge $-1 $164 $165 $166 $167 forward $65 $-1 #
coedge $-1 $168 $67 $169 $170 forward $41 $-1 #
coedge $-1 $67 $168 $171 $172 forward $41 $-1 #
coedge $-1 $173 $174 $67 $108 reversed $175 $-1 #
edge $-1 $176 -28.845080295891677 $177 28.845080295891677 $107 $178 forward 7 unknown #
face $-1 $179 $180 $25 $-1 $181 forward single #
loop $-1 $-1 $182 $68 #
plane-surface $-1 58.21929267115258 -20.866341491836 121.97784802853063 0 1 0 0.79863551827123203 0 0.60181501223851219 forward_v I I I I #
coedge $-1 $183 $184 $185 $186 reversed $69 $-1 #
coedge $-1 $114 $71 $187 $188 reversed $44 $-1 #
coedge $-1 $71 $113 $183 $189 reversed $44 $-1 #
coedge $-1 $185 $190 $71 $116 forward $180 $-1 #
edge $-1 $191 -12.665310175547706 $192 -8.4285728976558154 $115 $193 forward 7 unknown #
loop $-1 $-1 $122 $72 #
plane-surface $-1 -8.5066354168868017 -16.653578015779395 71.696256100519832 0.79863551827123203 0 0.60181501223851219 0.60181501223851219 0 -0.79863551827123203 forward_v I I I I #
loop $-1 $-1 $194 $46 #
coedge $-1 $120 $120 $121 $195 reversed $73 $-1 #
coedge $-1 $121 $121 $120 $195 forward $75 $-1 #
coedge $-1 $122 $122 $76 $123 forward $117 $-1 #
edge $-1 $196 0 $196 6.2831853071796004 $122 $197 forward 7 unknown #
loop $-1 $-1 $129 $77 #
plane-surface $-1 -8.5066354168868017 -16.653578015779395 71.696256100519832 0.79863551827123203 0 0.60181501223851219 0.60181501223851219 0 -0.79863551827123203 forward_v I I I I #
loop $-1 $-1 $198 $49 #
coedge $-1 $127 $127 $128 $199 reversed $78 $-1 #
coedge $-1 $128 $128 $127 $199 forward $80 $-1 #
coedge $-1 $129 $129 $81 $130 forward $124 $-1 #
edge $-1 $200 0 $200 6.2831853071796004 $129 $201 forward 7 unknown #
loop $-1 $-1 $136 $82 #
plane-surface $-1 -8.5066354168868017 -16.653578015779395 71.696256100519832 0.79863551827123203 0 0.60181501223851219 0.60181501223851219 0 -0.79863551827123203 forward_v I I I I #
loop $-1 $-1 $202 $52 #
coedge $-1 $134 $134 $135 $203 reversed $83 $-1 #
coedge $-1 $135 $135 $134 $203 forward $85 $-1 #
coedge $-1 $136 $136 $86 $137 forward $131 $-1 #
edge $-1 $204 0 $204 6.2831853071796004 $136 $205 forward 7 unknown #
face $-1 $206 $207 $29 $-1 $208 reversed single #
loop $-1 $-1 $144 $87 #
plane-surface $-1 0 0 10.592668437526626 0 0 1 1 0 0 forward_v I I I I #
coedge $-1 $209 $210 $211 $212 reversed $88 $-1 #
coedge $-1 $143 $90 $213 $214 reversed $56 $-1 #
coedge $-1 $90 $142 $209 $215 reversed $56 $-1 #
coedge $-1 $211 $216 $90 $145 forward $139 $-1 #
edge $-1 $217 4.2533184826344268 $218 17.307203118995275 $144 $219 forward 7 unknown #
loop $-1 $-1 $151 $91 #
plane-surface $-1 -41.774956511123989 20.492460959186019 0.7558606049748704 -0.6018150307709319 0 0.79863550430605224 0.79863550430605224 0 0.6018150307709319 forward_v I I I I #
loop $-1 $-1 $220 $58 #
coedge $-1 $149 $149 $150 $221 reversed $92 $-1 #
coedge $-1 $150 $150 $149 $221 forward $94 $-1 #
coedge $-1 $151 $151 $95 $152 forward $146 $-1 #
edge $-1 $222 0 $222 6.2831853071796004 $151 $223 forward 7 unknown #
loop $-1 $-1 $158 $96 #
plane-surface $-1 -41.774956511123989 20.492460959186019 0.7558606049748704 -0.6018150307709319 0 0.79863550430605224 0.79863550430605224 0 0.6018150307709319 forward_v I I I I #
loop $-1 $-1 $224 $61 #
coedge $-1 $156 $156 $157 $225 reversed $97 $-1 #
coedge $-1 $157 $157 $156 $225 forward $99 $-1 #
coedge $-1 $158 $158 $100 $159 forward $153 $-1 #
edge $-1 $226 0 $226 6.2831853071796004 $158 $227 forward 7 unknown #
face $-1 $228 $229 $24 $-1 $230 reversed single #
loop $-1 $-1 $231 $101 #
plane-surface $-1 -41.774956511123996 0 0 1 0 0 0 0 -1 forward_v I I I I #
coedge $-1 $232 $171 $233 $234 forward $102 $-1 #
coedge $-1 $235 $104 $232 $236 forward $65 $-1 #
coedge $-1 $104 $235 $237 $238 forward $65 $-1 #
coedge $-1 $174 $173 $104 $167 reversed $175 $-1 #
edge $-1 $239 -28.845080295891677 $240 28.845080295891677 $166 $241 forward 7 unknown #
coedge $-1 $106 $105 $242 $243 forward $41 $-1 #
coedge $-1 $244 $245 $105 $170 reversed $229 $-1 #
edge $-1 $177 -41.774956511123996 $246 41.774956511123996 $169 $247 forward 7 unknown #
coedge $-1 $163 $248 $106 $172 reversed $102 $-1 #
edge $-1 $249 -41.774956511123996 $176 41.774956511123996 $171 $250 forward 7 unknown #
coedge $-1 $166 $107 $248 $251 forward $175 $-1 #
coedge $-1 $107 $166 $244 $252 reversed $175 $-1 #
loop $-1 $-1 $173 $228 #
vertex $-1 $108 $253 #
vertex $-1 $108 $254 #
straight-curve $-1 41.774956511123996 0 10.592668437526626 0 1 0 I I #
face $-1 $-1 $255 $25 $-1 $256 reversed single #
loop $-1 $-1 $115 $109 #
plane-surface $-1 0 0 10.592668437526626 0 0 1 1 0 0 forward_v I I I I #
coedge $-1 $257 $258 $259 $260 reversed $110 $-1 #
coedge $-1 $261 $112 $114 $189 forward $69 $-1 #
coedge $-1 $112 $261 $257 $262 forward $69 $-1 #
coedge $-1 $259 $115 $112 $186 forward $180 $-1 #
edge $-1 $192 4.1140255318330929 $263 12.539552483946302 $185 $264 forward 7 unknown #
coedge $-1 $265 $266 $113 $188 forward $255 $-1 #
edge $-1 $267 -56.01859600178485 $191 -50.396255576738689 $187 $268 forward 7 unknown #
edge $-1 $192 76.50998016624807 $267 83.549913022247978 $114 $269 forward 7 unknown #
coedge $-1 $115 $259 $265 $270 forward $180 $-1 #
vertex $-1 $188 $271 #
vertex $-1 $116 $272 #
straight-curve $-1 29.10964633557629 -12.44081453972279 10.592668437526626 -1 0 0 I I #
coedge $-1 $194 $194 $-1 $273 reversed $119 $-1 #
edge $-1 $274 0 $274 6.2831853071796004 $120 $275 forward 7 unknown #
vertex $-1 $123 $276 #
ellipse-curve $-1 39.656587872178051 -19.181236101413358 7.7814982250035314 0.79863551827123203 0 0.60181501223851219 0.3009075061192561 0 -0.39931775913561601 1 I I #
coedge $-1 $198 $198 $-1 $277 reversed $126 $-1 #
edge $-1 $278 0 $278 6.2831853071796004 $127 $279 forward 7 unknown #
vertex $-1 $130 $280 #
ellipse-curve $-1 39.656587872178051 -16.653578015779395 7.7814982250035314 0.79863551827123203 0 0.60181501223851219 0.3009075061192561 0 -0.39931775913561601 1 I I #
coedge $-1 $202 $202 $-1 $281 reversed $133 $-1 #
edge $-1 $282 0 $282 6.2831853071796004 $134 $283 forward 7 unknown #
vertex $-1 $137 $284 #
ellipse-curve $-1 39.656587872178051 -14.125919930145432 7.7814982250035314 0.79863551827123203 0 0.60181501223851219 0.3009075061192561 0 -0.39931775913561601 1 I I #
face $-1 $-1 $285 $29 $-1 $286 reversed single #
loop $-1 $-1 $287 $138 #
plane-surface $-1 0 28.845080295891677 0 0 -1 0 0 0 -1 forward_v I I I I #
coedge $-1 $288 $141 $143 $215 forward $88 $-1 #
coedge $-1 $141 $288 $287 $289 reversed $88 $-1 #
coedge $-1 $290 $144 $141 $212 forward $139 $-1 #
edge $-1 $218 1.8936111428873517 $291 18.598849816298667 $211 $292 forward 7 unknown #
coedge $-1 $293 $294 $142 $214 forward $285 $-1 #
edge $-1 $295 -32.985033158137483 $217 -23.14822532558572 $213 $296 forward 7 unknown #
edge $-1 $218 -16.345234548147946 $295 8.8817612989391469e-015 $143 $297 forward 7 unknown #
coedge $-1 $144 $290 $293 $298 forward $139 $-1 #
vertex $-1 $214 $299 #
vertex $-1 $145 $300 #
straight-curve $-1 -46.028274993758423 12.139841622480361 10.592668437526626 1 0 0 I I #
coedge $-1 $220 $220 $-1 $301 reversed $148 $-1 #
edge $-1 $302 0 $302 6.2831853071796004 $149 $303 forward 7 unknown #
vertex $-1 $152 $304 #
ellipse-curve $-1 -35.248014192943572 16.912766957740736 5.674264521250743 -0.6018150307709319 0 0.79863550430605224 0.79863550430605224 0 0.6018150307709319 1 I I #
coedge $-1 $224 $224 $-1 $305 reversed $155 $-1 #
edge $-1 $306 0 $306 6.2831853071796004 $156 $307 forward 7 unknown #
vertex $-1 $159 $308 #
ellipse-curve $-1 -35.248014192943572 24.072154960631295 5.674264521250743 -0.6018150307709319 0 0.79863550430605224 0.79863550430605224 0 0.6018150307709319 1 I I #
face $-1 $-1 $175 $24 $-1 $309 reversed single #
loop $-1 $-1 $244 $160 #
plane-surface $-1 0 28.845080295891677 0 0 -1 0 0 0 -1 forward_v I I I I #
coedge $-1 $310 $242 $245 $311 forward $161 $-1 #
coedge $-1 $248 $163 $164 $236 reversed $102 $-1 #
coedge $-1 $242 $310 $163 $234 reversed $161 $-1 #
edge $-1 $249 -10.592668437526626 $312 10.592668437526626 $233 $313 forward 7 unknown #
coedge $-1 $165 $164 $310 $314 forward $65 $-1 #
edge $-1 $240 -41.774956511123996 $312 41.774956511123996 $232 $315 forward 7 unknown #
coedge $-1 $245 $244 $165 $238 reversed $229 $-1 #
edge $-1 $316 -41.774956511123996 $239 41.774956511123996 $237 $317 forward 7 unknown #
vertex $-1 $167 $318 #
vertex $-1 $251 $319 #
straight-curve $-1 41.774956511123996 0 -10.592668437526626 0 -1 0 I I #
coedge $-1 $231 $233 $168 $243 reversed $161 $-1 #
edge $-1 $246 -28.845080295891677 $249 28.845080295891677 $242 $320 forward 7 unknown #
coedge $-1 $237 $169 $174 $252 forward $229 $-1 #
coedge $-1 $169 $237 $231 $311 reversed $229 $-1 #
vertex $-1 $170 $321 #
straight-curve $-1 0 28.845080295891677 10.592668437526626 -1 0 0 I I #
coedge $-1 $171 $232 $173 $251 reversed $102 $-1 #
vertex $-1 $243 $322 #
straight-curve $-1 0 -28.845080295891677 10.592668437526626 1 0 0 I I #
edge $-1 $176 -10.592668437526626 $240 10.592668437526626 $173 $323 forward 7 unknown #
edge $-1 $177 -10.592668437526626 $239 10.592668437526626 $174 $324 forward 7 unknown #
point $-1 41.774956511123996 -28.845080295891677 10.592668437526626 #
point $-1 41.774956511123996 28.845080295891677 10.592668437526626 #
loop $-1 $-1 $187 $179 #
plane-surface $-1 41.774956511123996 0 0 -1 0 0 0 0 1 forward_v I I I I #
coedge $-1 $258 $182 $184 $262 reversed $110 $-1 #
coedge $-1 $182 $257 $325 $326 reversed $110 $-1 #
coedge $-1 $190 $185 $182 $260 forward $180 $-1 #
edge $-1 $263 8.4285728976558154 $327 12.665310175547706 $259 $328 forward 7 unknown #
coedge $-1 $184 $183 $266 $329 reversed $69 $-1 #
edge $-1 $330 -83.549913022247978 $263 -76.50998016624807 $257 $331 forward 7 unknown #
vertex $-1 $186 $332 #
straight-curve $-1 37.538219233232098 -8.3267890078896976 10.592668437526626 0 -1 0 I I #
coedge $-1 $325 $187 $190 $270 reversed $255 $-1 #
coedge $-1 $187 $325 $261 $329 forward $255 $-1 #
vertex $-1 $188 $333 #
straight-curve $-1 41.774956511123996 -12.44081453972279 60.988924014265315 0 0 1 I I #
straight-curve $-1 -8.5066354168868017 -12.44081453972279 71.696256100519832 0.60181501223851219 0 -0.79863551827123203 I I #
edge $-1 $327 -20.866341491836 $191 -12.44081453972279 $265 $334 forward 7 unknown #
point $-1 41.774956511123996 -12.44081453972279 10.592668437526626 #
point $-1 37.538219233232105 -12.44081453972279 10.592668437526619 #
edge $-1 $335 1 $335 0 $194 $-1 forward 7 unknown #
vertex $-1 $195 $336 #
ellipse-curve $-1 38.331540722581941 -19.181236101413358 6.7830036072372746 0.79863551827123203 0 0.60181501223851219 0.3009075061192561 0 -0.39931775913561601 1 I I #
point $-1 39.957495378297303 -19.181236101413358 7.3821804658679078 #
edge $-1 $337 1 $337 0 $198 $-1 forward 7 unknown #
vertex $-1 $199 $338 #
ellipse-curve $-1 38.331540722581941 -16.653578015779395 6.7830036072372746 0.79863551827123203 0 0.60181501223851219 0.3009075061192561 0 -0.39931775913561601 1 I I #
point $-1 39.957495378297303 -16.653578015779395 7.3821804658679078 #
edge $-1 $339 1 $339 0 $202 $-1 forward 7 unknown #
vertex $-1 $203 $340 #
ellipse-curve $-1 38.331540722581941 -14.125919930145432 6.7830036072372746 0.79863551827123203 0 0.60181501223851219 0.3009075061192561 0 -0.39931775913561601 1 I I #
point $-1 39.957495378297303 -14.125919930145432 7.3821804658679078 #
loop $-1 $-1 $213 $206 #
plane-surface $-1 -41.774956511123996 0 0 1 0 0 0 0 -1 forward_v I I I I #
coedge $-1 $341 $342 $210 $289 forward $207 $-1 #
coedge $-1 $210 $209 $294 $343 reversed $88 $-1 #
edge $-1 $291 0.10880304554376238 $344 16.454037593691716 $287 $345 forward 7 unknown #
coedge $-1 $216 $211 $342 $346 forward $139 $-1 #
vertex $-1 $346 $347 #
straight-curve $-1 -28.721071874763147 10.246230479593009 10.592668437526626 0 1 0 I I #
coedge $-1 $348 $213 $216 $298 reversed $285 $-1 #
coedge $-1 $213 $348 $288 $343 forward $285 $-1 #
vertex $-1 $214 $349 #
straight-curve $-1 -41.774956511123996 12.139841622480361 33.740893763112346 0 0 1 I I #
straight-curve $-1 -41.774956511123989 12.139841622480361 0.7558606049748704 -0.79863550430605224 0 -0.6018150307709319 I I #
edge $-1 $350 -28.845080295891677 $217 -12.139841622480361 $293 $351 forward 7 unknown #
point $-1 -41.774956511123996 12.139841622480361 10.592668437526626 #
point $-1 -28.721071874763147 12.139841622480361 10.592668437526626 #
edge $-1 $352 1 $352 0 $220 $-1 forward 7 unknown #
vertex $-1 $221 $353 #
ellipse-curve $-1 -34.54999544711854 16.912766957740736 4.7479623775955044 -0.6018150307709319 0 0.79863550430605224 0.79863550430605224 0 0.6018150307709319 1 I I #
point $-1 -34.44937868863753 16.912766957740736 6.2760795520216863 #
edge $-1 $354 1 $354 0 $224 $-1 forward 7 unknown #
vertex $-1 $225 $355 #
ellipse-curve $-1 -34.54999544711854 24.072154960631295 4.7479623775955044 -0.6018150307709319 0 0.79863550430605224 0.79863550430605224 0 0.6018150307709319 1 I I #
point $-1 -34.44937868863753 24.072154960631295 6.2760795520216863 #
plane-surface $-1 41.774956511123996 0 0 -1 0 0 0 0 1 forward_v I I I I #
coedge $-1 $233 $231 $235 $314 reversed $161 $-1 #
edge $-1 $246 -10.592668437526626 $316 10.592668437526626 $245 $356 forward 7 unknown #
vertex $-1 $314 $357 #
straight-curve $-1 -41.774956511123996 -28.845080295891677 0 0 0 -1 I I #
edge $-1 $312 -28.845080295891677 $316 28.845080295891677 $310 $358 forward 7 unknown #
straight-curve $-1 0 -28.845080295891677 -10.592668437526626 -1 0 0 I I #
vertex $-1 $238 $359 #
straight-curve $-1 0 28.845080295891677 -10.592668437526626 1 0 0 I I #
point $-1 41.774956511123996 28.845080295891677 -10.592668437526626 #
point $-1 41.774956511123996 -28.845080295891677 -10.592668437526626 #
straight-curve $-1 -41.774956511123996 0 10.592668437526626 0 -1 0 I I #
point $-1 -41.774956511123996 28.845080295891677 10.592668437526626 #
point $-1 -41.774956511123996 -28.845080295891677 10.592668437526626 #
straight-curve $-1 41.774956511123996 -28.845080295891677 0 0 0 -1 I I #
straight-curve $-1 41.774956511123996 28.845080295891677 0 0 0 -1 I I #
coedge $-1 $266 $265 $258 $326 forward $255 $-1 #
edge $-1 $327 50.396255576738689 $330 56.01859600178485 $325 $360 forward 7 unknown #
vertex $-1 $270 $361 #
straight-curve $-1 29.10964633557629 -20.866341491836 10.592668437526626 1 0 0 I I #
edge $-1 $330 -12.539552483946302 $267 -4.1140255318330929 $266 $362 forward 7 unknown #
vertex $-1 $329 $363 #
straight-curve $-1 -8.5066354168868017 -20.866341491836 71.696256100519832 -0.60181501223851219 0 0.79863551827123203 I I #
point $-1 37.538219233232105 -20.866341491836 10.592668437526619 #
point $-1 41.774956511123996 -12.44081453972279 4.970328012480465 #
straight-curve $-1 41.774956511123996 0 10.592668437526626 0 1 0 I I #
vertex $-1 $273 $364 #
point $-1 38.6324482287012 -19.181236101413358 6.383685848101659 #
vertex $-1 $277 $365 #
point $-1 38.6324482287012 -16.653578015779395 6.383685848101659 #
vertex $-1 $281 $366 #
point $-1 38.6324482287012 -14.125919930145432 6.383685848101659 #
coedge $-1 $342 $287 $348 $367 reversed $207 $-1 #
coedge $-1 $287 $341 $290 $346 reversed $207 $-1 #
edge $-1 $344 -18.598849816298667 $295 -1.8936111428873517 $294 $368 forward 7 unknown #
vertex $-1 $289 $369 #
straight-curve $-1 -28.63417789961527 28.845080295891677 10.658147745728517 -0.79863550430605224 0 -0.6018150307709319 I I #
edge $-1 $291 28.721071874763147 $350 41.774956511123996 $342 $370 forward 7 unknown #
point $-1 -28.721071874763147 28.845080295891677 10.592668437526626 #
coedge $-1 $294 $293 $341 $367 forward $285 $-1 #
point $-1 -41.774956511123996 12.139841622480361 0.75586060497486507 #
vertex $-1 $346 $371 #
straight-curve $-1 -41.774956511123996 0 10.592668437526626 0 -1 0 I I #
vertex $-1 $301 $372 #
point $-1 -33.751359942812485 16.912766957740736 5.3497774083664362 #
vertex $-1 $305 $373 #
point $-1 -33.751359942812485 24.072154960631295 5.3497774083664362 #
straight-curve $-1 -41.774956511123996 28.845080295891677 0 0 0 -1 I I #
point $-1 -41.774956511123996 -28.845080295891677 -10.592668437526626 #
straight-curve $-1 -41.774956511123996 0 -10.592668437526626 0 1 0 I I #
point $-1 -41.774956511123996 28.845080295891677 -10.592668437526626 #
straight-curve $-1 41.774956511123996 -20.866341491836 60.988924014265315 0 0 -1 I I #
point $-1 41.774956511123996 -20.866341491836 10.592668437526626 #
straight-curve $-1 41.774956511123996 -8.3267890078896976 4.9703280124804579 0 1 0 I I #
point $-1 41.774956511123996 -20.866341491836 4.970328012480465 #
point $-1 37.932222963446328 -19.181236101413358 6.4820961011180191 #
point $-1 37.932222963446328 -16.653578015779395 6.4820961011180191 #
point $-1 37.932222963446328 -14.125919930145432 6.4820961011180191 #
edge $-1 $350 -10.592668437526626 $344 -0.75586060497486507 $341 $374 forward 7 unknown #
straight-curve $-1 -41.774956511123996 10.246230479593009 0.75586060497486351 0 -1 0 I I #
point $-1 -41.774956511123996 28.845080295891677 0.75586060497486507 #
straight-curve $-1 0 28.845080295891677 10.592668437526626 -1 0 0 I I #
point $-1 -41.774956511123996 28.845080295891677 10.592668437526626 #
point $-1 -33.948180416347604 16.912766957740736 3.9493268732894524 #
point $-1 -33.948180416347604 24.072154960631295 3.9493268732894524 #
straight-curve $-1 -41.774956511123996 28.845080295891677 0 0 0 -1 I I #
End-of-ACIS-data 