500 0 4 0           
7 Unknown 11 ACIS 5.0 NT 24 Fri Mar 26 17:46:29 1999 
-1 9.9999999999999995e-007 1e-010 
body $-1 $4 $-1 $5 #
body $-1 $6 $-1 $7 #
body $-1 $8 $-1 $9 #
body $-1 $10 $-1 $11 #
lump $-1 $-1 $12 $0 #
transform $-1 1 0 0 0 1 0 0 0 1 77.187414166692093 31.52583033339204 7.6932185408745415 1 rotate no_reflect no_shear #
lump $-1 $-1 $13 $1 #
transform $-1 1 0 0 0 1 0 0 0 1 77.187414166692093 31.52583033339204 7.6932185408745415 1 rotate no_reflect no_shear #
lump $-1 $-1 $14 $2 #
transform $-1 1 0 0 0 1 0 0 0 1 77.187414166692093 31.52583033339204 7.6932185408745415 1 rotate no_reflect no_shear #
lump $-1 $-1 $15 $3 #
transform $-1 1 0 0 0 1 0 0 0 1 77.187414166692093 31.52583033339204 7.6932185408745415 1 rotate no_reflect no_shear #
shell $-1 $-1 $-1 $16 $-1 $4 #
shell $-1 $-1 $-1 $17 $-1 $6 #
shell $-1 $-1 $-1 $18 $-1 $8 #
shell $-1 $-1 $-1 $19 $-1 $10 #
face $-1 $20 $21 $12 $-1 $22 forward single #
face $-1 $23 $24 $13 $-1 $25 forward single #
face $-1 $26 $27 $14 $-1 $28 reversed single #
face $-1 $29 $30 $15 $-1 $31 forward single #
face $-1 $32 $33 $12 $-1 $34 reversed single #
loop $-1 $-1 $35 $16 #
plane-surface $-1 0 0 7.6932185408745415 0 0 1 1 0 0 forward_v I I I I #
face $-1 $36 $37 $13 $-1 $38 reversed single #
loop $-1 $-1 $39 $17 #
plane-surface $-1 0 -31.52583033339204 0 0 1 0 0 0 1 forward_v I I I I #
face $-1 $40 $41 $14 $-1 $42 reversed single #
loop $-1 $-1 $43 $18 #
plane-surface $-1 -52.326409752725759 93.408029784982375 158.63289115430413 -1 0 0 0 0.69465837861970381 0.71933979245794832 forward_v I I I I #
face $-1 $44 $45 $15 $-1 $46 forward single #
loop $-1 $47 $48 $19 #
cone-surface $-1 -64.75691195970893 29.025608610168334 5.2454696185663527 0 -0.69465837861970381 -0.71933979245794832 1 0 0 1 I I 0 1 1 forward I I I I #
face $-1 $49 $50 $12 $-1 $51 reversed single #
loop $-1 $-1 $52 $20 #
plane-surface $-1 0 0 -7.6932185408745415 0 0 1 1 0 0 forward_v I I I I #
coedge $-1 $53 $54 $55 $56 forward $21 $-1 #
face $-1 $57 $58 $13 $-1 $59 reversed single #
loop $-1 $-1 $60 $23 #
plane-surface $-1 0 0 -7.6932185408745415 0 0 1 1 0 0 forward_v I I I I #
coedge $-1 $61 $62 $63 $64 forward $24 $-1 #
face $-1 $65 $66 $14 $-1 $67 reversed single #
loop $-1 $-1 $68 $26 #
plane-surface $-1 -64.75691195970893 -13.829738164781403 47.584934180236147 0 0.69465837861970381 0.71933979245794832 1 0 0 forward_v I I I I #
coedge $-1 $69 $70 $71 $72 reversed $27 $-1 #
face $-1 $-1 $73 $15 $-1 $74 forward single #
loop $-1 $75 $76 $29 #
cone-surface $-1 -64.75691195970893 28.201302008810853 4.3918751643823821 0 -0.69465837861970381 -0.71933979245794832 0.5 0 0 1 I I -0.70710678118654746 0.70710678118654746 0.5 forward I I I I #
loop $-1 $-1 $77 $19 #
coedge $-1 $48 $48 $78 $79 reversed $30 $-1 #
face $-1 $80 $81 $12 $-1 $82 reversed single #
loop $-1 $-1 $83 $32 #
plane-surface $-1 0 -31.52583033339204 0 0 1 0 0 0 1 forward_v I I I I #
coedge $-1 $84 $85 $86 $87 forward $33 $-1 #
coedge $-1 $88 $35 $89 $90 forward $21 $-1 #
coedge $-1 $35 $88 $91 $92 forward $21 $-1 #
coedge $-1 $93 $94 $35 $56 reversed $95 $-1 #
edge $-1 $96 -31.52583033339204 $97 31.52583033339204 $55 $98 forward 7 unknown #
face $-1 $99 $100 $13 $-1 $101 reversed single #
loop $-1 $-1 $102 $36 #
plane-surface $-1 -63.300977084943014 -38.858465206702412 0 0 1 0 0 0 1 forward_v I I I I #
coedge $-1 $103 $104 $62 $105 forward $37 $-1 #
coedge $-1 $106 $39 $107 $108 reversed $24 $-1 #
coedge $-1 $39 $106 $60 $105 reversed $24 $-1 #
coedge $-1 $109 $110 $39 $64 reversed $100 $-1 #
edge $-1 $111 -7.6932185408745415 $112 7.6932185408745415 $63 $113 forward 7 unknown #
face $-1 $114 $115 $14 $-1 $116 forward single #
loop $-1 $-1 $117 $40 #
plane-surface $-1 -77.187414166692093 0 0 1 0 0 0 0 -1 forward_v I I I I #
coedge $-1 $118 $119 $120 $121 reversed $41 $-1 #
coedge $-1 $70 $43 $122 $123 reversed $27 $-1 #
coedge $-1 $43 $69 $118 $124 reversed $27 $-1 #
coedge $-1 $120 $125 $43 $72 forward $126 $-1 #
edge $-1 $127 71.623227036277527 $128 75.530875764983904 $71 $129 forward 7 unknown #
loop $-1 $-1 $78 $44 #
plane-surface $-1 -64.75691195970893 -13.829738164781403 47.584934180236147 0 0.69465837861970381 0.71933979245794832 1 0 0 forward_v I I I I #
loop $-1 $-1 $130 $29 #
coedge $-1 $76 $76 $77 $131 reversed $45 $-1 #
coedge $-1 $77 $77 $76 $131 forward $47 $-1 #
coedge $-1 $78 $78 $48 $79 forward $73 $-1 #
edge $-1 $132 -7.9235257406443392e-016 $132 6.2831853071795996 $78 $133 forward 7 unknown #
face $-1 $134 $135 $12 $-1 $136 reversed single #
loop $-1 $-1 $137 $49 #
plane-surface $-1 -77.187414166692093 0 0 1 0 0 0 0 -1 forward_v I I I I #
coedge $-1 $138 $91 $139 $140 forward $50 $-1 #
coedge $-1 $141 $52 $138 $142 forward $33 $-1 #
coedge $-1 $52 $141 $143 $144 forward $33 $-1 #
coedge $-1 $94 $93 $52 $87 reversed $95 $-1 #
edge $-1 $145 -31.52583033339204 $146 31.52583033339204 $86 $147 forward 7 unknown #
coedge $-1 $54 $53 $148 $149 forward $21 $-1 #
coedge $-1 $150 $151 $53 $90 reversed $135 $-1 #
edge $-1 $97 -77.187414166692093 $152 77.187414166692093 $89 $153 forward 7 unknown #
coedge $-1 $83 $154 $54 $92 reversed $50 $-1 #
edge $-1 $155 -77.187414166692093 $96 77.187414166692093 $91 $156 forward 7 unknown #
coedge $-1 $86 $55 $154 $157 forward $95 $-1 #
coedge $-1 $55 $86 $150 $158 reversed $95 $-1 #
loop $-1 $-1 $93 $134 #
vertex $-1 $56 $159 #
vertex $-1 $56 $160 #
straight-curve $-1 77.187414166692093 0 7.6932185408745415 0 1 0 I I #
face $-1 $161 $162 $13 $-1 $163 reversed single #
loop $-1 $-1 $63 $57 #
plane-surface $-1 -64.800977084943014 -35.192147770047228 0 1 0 0 0 0 -1 forward_v I I I I #
coedge $-1 $164 $165 $166 $167 forward $58 $-1 #
coedge $-1 $168 $60 $169 $170 forward $37 $-1 #
coedge $-1 $60 $168 $109 $171 forward $37 $-1 #
edge $-1 $111 -64.800977084943014 $172 -61.800977084943014 $60 $173 forward 7 unknown #
coedge $-1 $62 $61 $174 $175 forward $24 $-1 #
coedge $-1 $176 $177 $61 $108 forward $178 $-1 #
edge $-1 $179 61.800977084943014 $112 64.800977084943014 $107 $180 forward 7 unknown #
coedge $-1 $166 $63 $104 $171 reversed $100 $-1 #
coedge $-1 $63 $166 $176 $181 reversed $100 $-1 #
vertex $-1 $105 $182 #
vertex $-1 $181 $183 #
straight-curve $-1 -64.800977084943014 -31.52583033339204 0 0 0 1 I I #
face $-1 $-1 $126 $14 $-1 $184 reversed single #
loop $-1 $-1 $122 $65 #
plane-surface $-1 0 0 7.6932185408745415 0 0 1 1 0 0 forward_v I I I I #
coedge $-1 $185 $186 $119 $187 forward $66 $-1 #
coedge $-1 $188 $68 $70 $124 forward $41 $-1 #
coedge $-1 $68 $188 $117 $187 reversed $41 $-1 #
coedge $-1 $189 $71 $68 $121 forward $126 $-1 #
edge $-1 $128 19.947953772871294 $190 44.808958186837629 $120 $191 forward 7 unknown #
coedge $-1 $192 $193 $69 $123 forward $115 $-1 #
edge $-1 $194 -19.22467318145128 $127 -15.178184559099147 $122 $195 forward 7 unknown #
edge $-1 $128 -63.051660666784073 $194 -57.426379450899333 $70 $196 forward 7 unknown #
coedge $-1 $71 $189 $192 $197 reversed $126 $-1 #
loop $-1 $-1 $120 $114 #
vertex $-1 $197 $198 #
vertex $-1 $72 $199 #
straight-curve $-1 -52.326409752725759 31.52583033339204 79.316445577152066 0 0 -1 I I #
coedge $-1 $130 $130 $-1 $200 reversed $75 $-1 #
edge $-1 $201 0 $201 6.2831853071796004 $76 $202 forward 7 unknown #
vertex $-1 $79 $203 #
ellipse-curve $-1 -64.75691195970893 29.502586022215972 5.7393941765213556 0 0.69465837861970381 0.71933979245794832 1 0 0 1 I I #
face $-1 $-1 $95 $12 $-1 $204 reversed single #
loop $-1 $-1 $150 $80 #
plane-surface $-1 0 31.52583033339204 0 0 -1 0 0 0 -1 forward_v I I I I #
coedge $-1 $205 $148 $151 $206 forward $81 $-1 #
coedge $-1 $154 $83 $84 $142 reversed $50 $-1 #
coedge $-1 $148 $205 $83 $140 reversed $81 $-1 #
edge $-1 $155 -7.6932185408745415 $207 7.6932185408745415 $139 $208 forward 7 unknown #
coedge $-1 $85 $84 $205 $209 forward $33 $-1 #
edge $-1 $146 -77.187414166692093 $207 77.187414166692093 $138 $210 forward 7 unknown #
coedge $-1 $151 $150 $85 $144 reversed $135 $-1 #
edge $-1 $211 -77.187414166692093 $145 77.187414166692093 $143 $212 forward 7 unknown #
vertex $-1 $87 $213 #
vertex $-1 $157 $214 #
straight-curve $-1 77.187414166692093 0 -7.6932185408745415 0 -1 0 I I #
coedge $-1 $137 $139 $88 $149 reversed $81 $-1 #
edge $-1 $152 -31.52583033339204 $155 31.52583033339204 $148 $215 forward 7 unknown #
coedge $-1 $143 $89 $94 $158 forward $135 $-1 #
coedge $-1 $89 $143 $137 $206 reversed $135 $-1 #
vertex $-1 $90 $216 #
straight-curve $-1 0 31.52583033339204 7.6932185408745415 -1 0 0 I I #
coedge $-1 $91 $138 $93 $157 reversed $50 $-1 #
vertex $-1 $149 $217 #
straight-curve $-1 0 -31.52583033339204 7.6932185408745415 1 0 0 I I #
edge $-1 $96 -7.6932185408745415 $146 7.6932185408745415 $93 $218 forward 7 unknown #
edge $-1 $97 -7.6932185408745415 $145 7.6932185408745415 $94 $219 forward 7 unknown #
point $-1 77.187414166692093 -31.52583033339204 7.6932185408745415 #
point $-1 77.187414166692093 31.52583033339204 7.6932185408745415 #
face $-1 $-1 $178 $13 $-1 $220 forward single #
loop $-1 $-1 $221 $99 #
plane-surface $-1 -61.800977084943014 -35.192147770047228 0 -1 0 0 0 0 1 forward_v I I I I #
coedge $-1 $222 $102 $168 $223 reversed $58 $-1 #
coedge $-1 $102 $222 $224 $225 reversed $58 $-1 #
coedge $-1 $110 $109 $102 $167 reversed $100 $-1 #
edge $-1 $226 -7.6932185408745415 $227 7.6932185408745415 $166 $228 forward 7 unknown #
coedge $-1 $104 $103 $164 $223 forward $37 $-1 #
coedge $-1 $174 $221 $103 $170 reversed $162 $-1 #
edge $-1 $172 -3.6663174366551878 $229 3.6663174366551843 $169 $230 forward 7 unknown #
edge $-1 $227 -3.6663174366551843 $111 3.6663174366551878 $109 $231 forward 7 unknown #
vertex $-1 $170 $232 #
straight-curve $-1 0 -31.52583033339204 -7.6932185408745415 1 0 0 I I #
coedge $-1 $233 $169 $106 $175 reversed $162 $-1 #
edge $-1 $179 -7.6932185408745415 $172 7.6932185408745415 $174 $234 forward 7 unknown #
coedge $-1 $224 $107 $110 $181 forward $178 $-1 #
coedge $-1 $107 $224 $233 $235 forward $178 $-1 #
loop $-1 $-1 $107 $161 #
vertex $-1 $108 $236 #
straight-curve $-1 0 -31.52583033339204 7.6932185408745415 -1 0 0 I I #
edge $-1 $112 -3.6663174366551878 $226 3.6663174366551843 $110 $237 forward 7 unknown #
point $-1 -64.800977084943014 -31.52583033339204 -7.6932185408745415 #
point $-1 -64.800977084943014 -31.52583033339204 7.6932185408745415 #
plane-surface $-1 0 31.52583033339204 0 0 -1 0 0 0 -1 forward_v I I I I #
coedge $-1 $186 $117 $238 $239 reversed $66 $-1 #
coedge $-1 $117 $185 $189 $240 forward $66 $-1 #
edge $-1 $190 -41.549883563999181 $241 -35.924602348114433 $117 $242 forward 7 unknown #
coedge $-1 $119 $118 $193 $243 reversed $41 $-1 #
coedge $-1 $125 $120 $186 $240 reversed $126 $-1 #
vertex $-1 $187 $244 #
straight-curve $-1 -32.378455979854465 31.52583033339204 3.7855698121681662 -1 0 0 I I #
coedge $-1 $238 $122 $125 $197 forward $115 $-1 #
coedge $-1 $122 $238 $188 $243 forward $115 $-1 #
vertex $-1 $123 $245 #
straight-curve $-1 -52.326409752725759 46.704014892491188 7.6932185408745397 0 1 0 I I #
straight-curve $-1 -52.326409752725759 -13.829738164781403 47.584934180236147 0 -0.71933979245794832 0.69465837861970381 I I #
edge $-1 $127 52.326409752725759 $246 77.187414166692093 $125 $247 forward 7 unknown #
point $-1 -52.326409752725759 31.52583033339204 7.6932185408745415 #
point $-1 -52.326409752725759 31.525830333392037 3.7855698121681698 #
edge $-1 $248 1 $248 0 $130 $-1 forward 7 unknown #
vertex $-1 $131 $249 #
ellipse-curve $-1 -64.75691195970893 28.548631198120706 4.7515450606113561 0 0.69465837861970381 0.71933979245794832 1 0 0 1 I I #
point $-1 -63.75691195970893 29.502586022215965 5.7393941765213494 #
plane-surface $-1 77.187414166692093 0 0 -1 0 0 0 0 1 forward_v I I I I #
coedge $-1 $139 $137 $141 $209 reversed $81 $-1 #
edge $-1 $152 -7.6932185408745415 $211 7.6932185408745415 $151 $250 forward 7 unknown #
vertex $-1 $209 $251 #
straight-curve $-1 -77.187414166692093 -31.52583033339204 0 0 0 -1 I I #
edge $-1 $207 -31.52583033339204 $211 31.52583033339204 $205 $252 forward 7 unknown #
straight-curve $-1 0 -31.52583033339204 -7.6932185408745415 -1 0 0 I I #
vertex $-1 $144 $253 #
straight-curve $-1 0 31.52583033339204 -7.6932185408745415 1 0 0 I I #
point $-1 77.187414166692093 31.52583033339204 -7.6932185408745415 #
point $-1 77.187414166692093 -31.52583033339204 -7.6932185408745415 #
straight-curve $-1 -77.187414166692093 0 7.6932185408745415 0 -1 0 I I #
point $-1 -77.187414166692093 31.52583033339204 7.6932185408745415 #
point $-1 -77.187414166692093 -31.52583033339204 7.6932185408745415 #
straight-curve $-1 77.187414166692093 -31.52583033339204 0 0 0 -1 I I #
straight-curve $-1 77.187414166692093 31.52583033339204 0 0 0 -1 I I #
plane-surface $-1 0 0 7.6932185408745415 0 0 1 1 0 0 forward_v I I I I #
coedge $-1 $169 $233 $222 $254 forward $162 $-1 #
coedge $-1 $165 $164 $221 $254 reversed $58 $-1 #
edge $-1 $229 -1.5 $227 1.5 $164 $255 forward 7 unknown #
coedge $-1 $177 $176 $165 $225 forward $178 $-1 #
edge $-1 $226 -1.5 $256 1.5 $165 $257 forward 7 unknown #
vertex $-1 $181 $258 #
vertex $-1 $171 $259 #
straight-curve $-1 -64.800977084943014 -38.858465206702412 0 0 0 -1 I I #
vertex $-1 $254 $260 #
straight-curve $-1 -61.800977084943014 -35.192147770047228 -7.6932185408745415 0 -1 0 I I #
straight-curve $-1 -64.800977084943014 -35.192147770047228 -7.6932185408745415 0 1 0 I I #
point $-1 -61.800977084943014 -31.52583033339204 -7.6932185408745415 #
coedge $-1 $221 $174 $177 $235 reversed $162 $-1 #
straight-curve $-1 -61.800977084943014 -31.52583033339204 0 0 0 -1 I I #
edge $-1 $256 -3.6663174366551843 $179 3.6663174366551878 $233 $261 forward 7 unknown #
point $-1 -61.800977084943014 -31.52583033339204 7.6932185408745415 #
straight-curve $-1 -64.800977084943014 -35.192147770047228 7.6932185408745415 0 -1 0 I I #
coedge $-1 $193 $192 $185 $239 forward $115 $-1 #
edge $-1 $246 -31.52583033339204 $241 -27.479341711039908 $185 $262 forward 7 unknown #
edge $-1 $246 -7.6932185408745415 $190 -3.7855698121681649 $189 $263 forward 7 unknown #
vertex $-1 $187 $264 #
straight-curve $-1 -77.187414166692093 1.6373457138129464 32.648544560573313 0 -0.71933979245794832 0.69465837861970381 I I #
edge $-1 $241 -44.808958186837629 $194 -19.947953772871294 $193 $265 forward 7 unknown #
point $-1 -77.187414166692093 31.52583033339204 3.7855698121681649 #
point $-1 -52.326409752725759 27.479341711039908 7.6932185408745397 #
vertex $-1 $197 $266 #
straight-curve $-1 0 31.52583033339204 7.6932185408745415 -1 0 0 I I #
vertex $-1 $200 $267 #
point $-1 -63.75691195970893 28.548631198120706 4.7515450606113561 #
straight-curve $-1 -77.187414166692093 31.52583033339204 0 0 0 -1 I I #
point $-1 -77.187414166692093 -31.52583033339204 -7.6932185408745415 #
straight-curve $-1 -77.187414166692093 0 -7.6932185408745415 0 1 0 I I #
point $-1 -77.187414166692093 31.52583033339204 -7.6932185408745415 #
edge $-1 $256 -7.6932185408745415 $229 7.6932185408745415 $221 $268 forward 7 unknown #
straight-curve $-1 -63.300977084943014 -38.858465206702412 -7.6932185408745415 -1 0 0 I I #
vertex $-1 $235 $269 #
straight-curve $-1 -63.300977084943014 -38.858465206702412 7.6932185408745415 1 0 0 I I #
point $-1 -64.800977084943014 -38.858465206702412 7.6932185408745415 #
point $-1 -64.800977084943014 -38.858465206702412 -7.6932185408745415 #
point $-1 -61.800977084943014 -38.858465206702412 -7.6932185408745415 #
straight-curve $-1 -61.800977084943014 -35.192147770047228 7.6932185408745415 0 1 0 I I #
straight-curve $-1 -77.187414166692093 0 7.6932185408745415 0 -1 0 I I #
straight-curve $-1 -77.187414166692093 31.52583033339204 0 0 0 -1 I I #
point $-1 -77.187414166692093 27.479341711039908 7.6932185408745397 #
straight-curve $-1 -32.378455979854465 27.479341711039908 7.6932185408745397 1 0 0 I I #
point $-1 -77.187414166692093 31.52583033339204 7.6932185408745415 #
point $-1 -64.75691195970893 27.853972819500999 4.0322052681534082 #
straight-curve $-1 -61.800977084943014 -38.858465206702412 0 0 0 -1 I I #
point $-1 -61.800977084943014 -38.858465206702412 7.6932185408745415 #
End-of-ACIS-data 