500 0 5 0           
7 Unknown 11 ACIS 5.0 NT 24 Fri Mar 26 19:30:35 1999 
-1 9.9999999999999995e-007 1e-010 
body $-1 $5 $-1 $6 #
body $-1 $7 $-1 $8 #
body $-1 $9 $-1 $10 #
body $-1 $11 $-1 $12 #
body $-1 $13 $-1 $14 #
lump $-1 $-1 $15 $0 #
transform $-1 1 0 0 0 1 0 0 0 1 41.73955504013184 21.556753503010441 4.7755508187613387 1 rotate no_reflect no_shear #
lump $-1 $-1 $16 $1 #
transform $-1 1 0 0 0 1 0 0 0 1 41.73955504013184 21.556753503010441 4.7755508187613387 1 rotate no_reflect no_shear #
lump $-1 $-1 $17 $2 #
transform $-1 1 0 0 0 1 0 0 0 1 41.73955504013184 21.556753503010441 4.7755508187613387 1 rotate no_reflect no_shear #
lump $-1 $-1 $18 $3 #
transform $-1 1 0 0 0 1 0 0 0 1 41.73955504013184 21.556753503010441 4.7755508187613387 1 rotate no_reflect no_shear #
lump $-1 $-1 $19 $4 #
transform $-1 1 0 0 0 1 0 0 0 1 41.73955504013184 21.556753503010441 4.7755508187613387 1 rotate no_reflect no_shear #
shell $-1 $-1 $-1 $20 $-1 $5 #
shell $-1 $-1 $-1 $21 $-1 $7 #
shell $-1 $-1 $-1 $22 $-1 $9 #
shell $-1 $-1 $-1 $23 $-1 $11 #
shell $-1 $-1 $-1 $24 $-1 $13 #
face $-1 $25 $26 $15 $-1 $27 forward single #
face $-1 $28 $29 $16 $-1 $30 forward single #
face $-1 $31 $32 $17 $-1 $33 reversed single #
face $-1 $34 $35 $18 $-1 $36 forward single #
face $-1 $37 $38 $19 $-1 $39 forward single #
face $-1 $40 $41 $15 $-1 $42 reversed single #
loop $-1 $-1 $43 $20 #
plane-surface $-1 0 0 4.7755508187613387 0 0 1 1 0 0 forward_v I I I I #
face $-1 $44 $45 $16 $-1 $46 reversed single #
loop $-1 $-1 $47 $21 #
plane-surface $-1 0 -19.408153512119497 1.0114713934358763 0 0 1 1 0 0 forward_v I I I I #
face $-1 $48 $49 $17 $-1 $50 reversed single #
loop $-1 $-1 $51 $22 #
plane-surface $-1 -6.8420737157396196 34.121887412407702 93.249260915164768 1 0 0 0 -0.57357644374324357 -0.81915203911291934 forward_v I I I I #
face $-1 $52 $53 $18 $-1 $54 forward single #
loop $-1 $55 $56 $23 #
cone-surface $-1 -1.1749904435459655 16.196968273424233 -0.46854976766735268 0 -0.57357644374324357 -0.81915203911291934 2 0 0 1 I I 0 1 2 forward I I I I #
face $-1 $57 $58 $19 $-1 $59 forward single #
loop $-1 $60 $61 $24 #
cone-surface $-1 7.3256344647445104 16.196968273424233 -0.46854976766735268 0 -0.57357644374324357 -0.81915203911291934 2 0 0 1 I I 0 1 2 forward I I I I #
face $-1 $62 $63 $15 $-1 $64 reversed single #
loop $-1 $-1 $65 $25 #
plane-surface $-1 0 0 -4.7755508187613387 0 0 1 1 0 0 forward_v I I I I #
coedge $-1 $66 $67 $68 $69 forward $26 $-1 #
face $-1 $70 $71 $16 $-1 $72 reversed single #
loop $-1 $-1 $73 $28 #
plane-surface $-1 0 -19.408153512119497 -1.9885286065641241 0 0 1 1 0 0 forward_v I I I I #
coedge $-1 $74 $75 $76 $77 reversed $29 $-1 #
face $-1 $78 $79 $17 $-1 $80 reversed single #
loop $-1 $-1 $81 $31 #
plane-surface $-1 3.0753220105992725 -13.759763674280698 24.867177669584919 0 0.57357644374324357 0.81915203911291934 1 0 0 forward_v I I I I #
coedge $-1 $82 $83 $84 $85 reversed $32 $-1 #
face $-1 $86 $87 $18 $-1 $88 forward single #
loop $-1 $89 $90 $34 #
cone-surface $-1 -1.1749904435459655 13.574957044692376 -4.2131698057143225 0 -0.57357644374324357 -0.81915203911291934 1 0 0 1 I I -0.70710678118654746 0.70710678118654746 1 forward I I I I #
loop $-1 $-1 $91 $23 #
coedge $-1 $56 $56 $92 $93 reversed $35 $-1 #
face $-1 $94 $95 $19 $-1 $96 forward single #
loop $-1 $97 $98 $37 #
cone-surface $-1 7.3256344647445104 13.574957044692376 -4.2131698057143225 0 -0.57357644374324357 -0.81915203911291934 1 0 0 1 I I -0.70710678118654746 0.70710678118654746 1 forward I I I I #
loop $-1 $-1 $99 $24 #
coedge $-1 $61 $61 $100 $101 reversed $38 $-1 #
face $-1 $102 $103 $15 $-1 $104 reversed single #
loop $-1 $-1 $105 $40 #
plane-surface $-1 0 -21.556753503010441 0 0 1 0 0 0 1 forward_v I I I I #
coedge $-1 $106 $107 $108 $109 forward $41 $-1 #
coedge $-1 $110 $43 $111 $112 forward $26 $-1 #
coedge $-1 $43 $110 $113 $114 forward $26 $-1 #
coedge $-1 $115 $116 $43 $69 reversed $117 $-1 #
edge $-1 $118 -21.556753503010441 $119 21.556753503010441 $68 $120 forward 7 unknown #
face $-1 $121 $122 $16 $-1 $123 reversed single #
loop $-1 $-1 $124 $44 #
plane-surface $-1 0 -17.259553521228554 -0.48852860656412389 0 -1 0 0 0 -1 forward_v I I I I #
coedge $-1 $125 $126 $127 $128 reversed $45 $-1 #
coedge $-1 $129 $47 $130 $131 forward $29 $-1 #
coedge $-1 $47 $129 $132 $133 reversed $29 $-1 #
coedge $-1 $134 $135 $47 $77 forward $136 $-1 #
edge $-1 $137 7.5554767651688053 $138 11.852676746950692 $76 $139 forward 7 unknown #
face $-1 $140 $141 $17 $-1 $142 reversed single #
loop $-1 $-1 $143 $48 #
plane-surface $-1 12.992717736938165 34.121887412407702 93.249260915164768 -1 0 0 0 0.57357644374324357 0.81915203911291934 forward_v I I I I #
coedge $-1 $144 $145 $146 $147 reversed $49 $-1 #
coedge $-1 $83 $51 $148 $149 reversed $32 $-1 #
coedge $-1 $51 $82 $144 $150 reversed $32 $-1 #
coedge $-1 $146 $151 $51 $85 forward $152 $-1 #
edge $-1 $153 -4.49580979680659 $154 2.1268910923886217 $84 $155 forward 7 unknown #
face $-1 $-1 $156 $18 $-1 $157 reversed single #
loop $-1 $-1 $92 $52 #
plane-surface $-1 3.0753220105992725 -13.759763674280698 24.867177669584919 0 0.57357644374324357 0.81915203911291934 1 0 0 forward_v I I I I #
loop $-1 $-1 $158 $34 #
coedge $-1 $90 $90 $159 $160 reversed $53 $-1 #
coedge $-1 $91 $91 $158 $161 forward $55 $-1 #
coedge $-1 $92 $92 $56 $93 forward $87 $-1 #
edge $-1 $162 -1.9057107067486959e-017 $162 6.2831853071796004 $92 $163 forward 7 unknown #
face $-1 $-1 $164 $19 $-1 $165 reversed single #
loop $-1 $-1 $100 $57 #
plane-surface $-1 3.0753220105992725 -13.759763674280698 24.867177669584919 0 0.57357644374324357 0.81915203911291934 1 0 0 forward_v I I I I #
loop $-1 $-1 $166 $37 #
coedge $-1 $98 $98 $167 $168 reversed $58 $-1 #
coedge $-1 $99 $99 $166 $169 forward $60 $-1 #
coedge $-1 $100 $100 $61 $101 forward $95 $-1 #
edge $-1 $170 -1.9057107067486959e-017 $170 6.2831853071796004 $100 $171 forward 7 unknown #
face $-1 $172 $173 $15 $-1 $174 reversed single #
loop $-1 $-1 $175 $62 #
plane-surface $-1 -41.73955504013184 0 0 1 0 0 0 0 -1 forward_v I I I I #
coedge $-1 $176 $113 $177 $178 forward $63 $-1 #
coedge $-1 $179 $65 $176 $180 forward $41 $-1 #
coedge $-1 $65 $179 $181 $182 forward $41 $-1 #
coedge $-1 $116 $115 $65 $109 reversed $117 $-1 #
edge $-1 $183 -21.556753503010441 $184 21.556753503010441 $108 $185 forward 7 unknown #
coedge $-1 $67 $66 $186 $187 forward $26 $-1 #
coedge $-1 $188 $189 $66 $112 reversed $173 $-1 #
edge $-1 $119 -41.73955504013184 $190 41.73955504013184 $111 $191 forward 7 unknown #
coedge $-1 $105 $192 $67 $114 reversed $63 $-1 #
edge $-1 $193 -41.73955504013184 $118 41.73955504013184 $113 $194 forward 7 unknown #
coedge $-1 $108 $68 $192 $195 forward $117 $-1 #
coedge $-1 $68 $108 $188 $196 reversed $117 $-1 #
loop $-1 $-1 $115 $172 #
vertex $-1 $69 $197 #
vertex $-1 $69 $198 #
straight-curve $-1 41.73955504013184 0 4.7755508187613387 0 1 0 I I #
face $-1 $199 $200 $16 $-1 $201 reversed single #
loop $-1 $-1 $202 $70 #
plane-surface $-1 -41.73955504013184 0 0 1 0 0 0 0 -1 forward_v I I I I #
coedge $-1 $203 $130 $135 $204 reversed $71 $-1 #
coedge $-1 $205 $73 $206 $207 reversed $45 $-1 #
coedge $-1 $73 $205 $203 $208 forward $45 $-1 #
coedge $-1 $135 $134 $73 $128 forward $136 $-1 #
edge $-1 $209 -11.852676746950692 $210 -7.5554767651688053 $127 $211 forward 7 unknown #
coedge $-1 $75 $74 $202 $212 reversed $29 $-1 #
coedge $-1 $124 $213 $74 $131 reversed $71 $-1 #
edge $-1 $137 -41.73955504013184 $214 41.73955504013184 $130 $215 forward 7 unknown #
coedge $-1 $216 $217 $75 $133 forward $200 $-1 #
edge $-1 $138 -41.73955504013184 $218 41.73955504013184 $132 $219 forward 7 unknown #
coedge $-1 $127 $76 $217 $220 forward $136 $-1 #
coedge $-1 $76 $127 $124 $204 forward $136 $-1 #
loop $-1 $-1 $76 $199 #
vertex $-1 $77 $221 #
vertex $-1 $220 $222 #
straight-curve $-1 41.73955504013184 -9.7040767560597487 1.0114713934358763 0 -1 0 I I #
face $-1 $-1 $152 $17 $-1 $223 forward single #
loop $-1 $-1 $224 $78 #
plane-surface $-1 0 21.556753503010441 0 0 -1 0 0 0 -1 forward_v I I I I #
coedge $-1 $225 $226 $227 $228 reversed $79 $-1 #
coedge $-1 $229 $81 $83 $150 forward $49 $-1 #
coedge $-1 $81 $229 $225 $230 forward $49 $-1 #
coedge $-1 $227 $84 $81 $147 forward $152 $-1 #
edge $-1 $154 -8.3797347210392559 $231 11.455056731638528 $146 $232 forward 7 unknown #
coedge $-1 $233 $234 $82 $149 forward $141 $-1 #
edge $-1 $235 -46.486344813810341 $153 -41.849079638821046 $148 $236 forward 7 unknown #
edge $-1 $154 35.02868200043693 $235 43.113507006020882 $83 $237 forward 7 unknown #
coedge $-1 $84 $227 $233 $238 forward $152 $-1 #
loop $-1 $-1 $227 $140 #
vertex $-1 $149 $239 #
vertex $-1 $85 $240 #
straight-curve $-1 -6.8420737157396196 17.060943706203851 4.7755508187613387 0 -1 0 I I #
loop $-1 $-1 $159 $86 #
plane-surface $-1 0 0 -4.7755508187613387 0 0 1 1 0 0 forward_v I I I I #
coedge $-1 $158 $158 $91 $161 reversed $89 $-1 #
coedge $-1 $159 $159 $90 $160 forward $156 $-1 #
edge $-1 $241 -3.1415926535897865 $241 3.141592653589814 $159 $242 forward 7 unknown #
edge $-1 $243 0 $243 6.2831853071796004 $158 $244 forward 7 unknown #
vertex $-1 $93 $245 #
ellipse-curve $-1 -1.1749904435459655 18.245403058412837 2.456918231266688 0 0.57357644374324357 0.81915203911291934 2 0 0 1 I I #
loop $-1 $-1 $167 $94 #
plane-surface $-1 0 0 -4.7755508187613387 0 0 1 1 0 0 forward_v I I I I #
coedge $-1 $166 $166 $99 $169 reversed $97 $-1 #
coedge $-1 $167 $167 $98 $168 forward $164 $-1 #
edge $-1 $246 -3.1415926535897865 $246 3.141592653589814 $167 $247 forward 7 unknown #
edge $-1 $248 0 $248 6.2831853071796004 $166 $249 forward 7 unknown #
vertex $-1 $101 $250 #
ellipse-curve $-1 7.3256344647445104 18.245403058412837 2.456918231266688 0 0.57357644374324357 0.81915203911291934 2 0 0 1 I I #
face $-1 $-1 $117 $15 $-1 $251 reversed single #
loop $-1 $-1 $188 $102 #
plane-surface $-1 0 21.556753503010441 0 0 -1 0 0 0 -1 forward_v I I I I #
coedge $-1 $252 $186 $189 $253 forward $103 $-1 #
coedge $-1 $192 $105 $106 $180 reversed $63 $-1 #
coedge $-1 $186 $252 $105 $178 reversed $103 $-1 #
edge $-1 $193 -4.7755508187613387 $254 4.7755508187613387 $177 $255 forward 7 unknown #
coedge $-1 $107 $106 $252 $256 forward $41 $-1 #
edge $-1 $184 -41.73955504013184 $254 41.73955504013184 $176 $257 forward 7 unknown #
coedge $-1 $189 $188 $107 $182 reversed $173 $-1 #
edge $-1 $258 -41.73955504013184 $183 41.73955504013184 $181 $259 forward 7 unknown #
vertex $-1 $109 $260 #
vertex $-1 $195 $261 #
straight-curve $-1 41.73955504013184 0 -4.7755508187613387 0 -1 0 I I #
coedge $-1 $175 $177 $110 $187 reversed $103 $-1 #
edge $-1 $190 -21.556753503010441 $193 21.556753503010441 $186 $262 forward 7 unknown #
coedge $-1 $181 $111 $116 $196 forward $173 $-1 #
coedge $-1 $111 $181 $175 $253 reversed $173 $-1 #
vertex $-1 $112 $263 #
straight-curve $-1 0 21.556753503010441 4.7755508187613387 -1 0 0 I I #
coedge $-1 $113 $176 $115 $195 reversed $63 $-1 #
vertex $-1 $187 $264 #
straight-curve $-1 0 -21.556753503010441 4.7755508187613387 1 0 0 I I #
edge $-1 $118 -4.7755508187613387 $184 4.7755508187613387 $115 $265 forward 7 unknown #
edge $-1 $119 -4.7755508187613387 $183 4.7755508187613387 $116 $266 forward 7 unknown #
point $-1 41.73955504013184 -21.556753503010441 4.7755508187613387 #
point $-1 41.73955504013184 21.556753503010441 4.7755508187613387 #
face $-1 $-1 $136 $16 $-1 $267 reversed single #
loop $-1 $-1 $132 $121 #
plane-surface $-1 0 -21.556753503010441 0 0 1 0 0 0 1 forward_v I I I I #
coedge $-1 $268 $269 $129 $212 forward $122 $-1 #
coedge $-1 $213 $124 $126 $208 reversed $71 $-1 #
edge $-1 $210 -1.7442643032820622 $137 1.2557356967179383 $135 $270 forward 7 unknown #
coedge $-1 $126 $125 $271 $272 reversed $45 $-1 #
coedge $-1 $217 $216 $125 $207 forward $200 $-1 #
edge $-1 $273 -41.73955504013184 $209 41.73955504013184 $206 $274 forward 7 unknown #
edge $-1 $275 -41.73955504013184 $210 41.73955504013184 $203 $276 forward 7 unknown #
vertex $-1 $207 $277 #
vertex $-1 $128 $278 #
straight-curve $-1 41.73955504013184 -9.7040767560597487 -1.9885286065641241 0 1 0 I I #
edge $-1 $218 -11.852676746950692 $214 -7.5554767651688053 $202 $279 forward 7 unknown #
coedge $-1 $130 $203 $268 $280 reversed $71 $-1 #
vertex $-1 $212 $281 #
straight-curve $-1 0 -17.259553521228554 1.0114713934358763 -1 0 0 I I #
coedge $-1 $206 $132 $269 $282 forward $200 $-1 #
coedge $-1 $132 $206 $134 $220 reversed $200 $-1 #
vertex $-1 $282 $283 #
straight-curve $-1 0 -21.556753503010441 1.0114713934358763 -1 0 0 I I #
edge $-1 $138 -1.0114713934358763 $209 1.9885286065641241 $134 $284 forward 7 unknown #
point $-1 41.73955504013184 -17.259553521228554 1.0114713934358763 #
point $-1 41.73955504013184 -21.556753503010441 1.0114713934358763 #
plane-surface $-1 0 0 4.7755508187613387 0 0 1 1 0 0 forward_v I I I I #
coedge $-1 $234 $233 $226 $285 forward $141 $-1 #
coedge $-1 $226 $143 $145 $230 reversed $79 $-1 #
coedge $-1 $143 $225 $224 $285 reversed $79 $-1 #
coedge $-1 $151 $146 $143 $228 forward $152 $-1 #
edge $-1 $231 -2.1268910923886217 $286 4.49580979680659 $227 $287 forward 7 unknown #
coedge $-1 $145 $144 $234 $288 reversed $49 $-1 #
edge $-1 $289 -43.113507006020882 $231 -35.02868200043693 $225 $290 forward 7 unknown #
vertex $-1 $147 $291 #
straight-curve $-1 1.5376610052996362 14.934052613815222 4.7755508187613405 1 0 0 I I #
coedge $-1 $224 $148 $151 $238 reversed $141 $-1 #
coedge $-1 $148 $224 $229 $288 forward $141 $-1 #
vertex $-1 $149 $292 #
straight-curve $-1 -6.8420737157396196 21.556753503010441 46.624630457582384 0 0 1 I I #
straight-curve $-1 -6.8420737157396196 -13.759763674280698 24.867177669584919 0 0.81915203911291934 -0.57357644374324357 I I #
edge $-1 $286 -12.992717736938165 $153 6.8420737157396196 $233 $293 forward 7 unknown #
point $-1 -6.8420737157396196 21.556753503010441 4.7755508187613387 #
point $-1 -6.8420737157396196 14.934052613815229 4.7755508187613387 #
vertex $-1 $160 $294 #
ellipse-curve $-1 -1.1749904435459662 13.706853236652409 -4.7755508187613387 0 0 -1 -1.0167350864105029e-015 0.75074829307369562 0 0.58482486811498036 I I #
vertex $-1 $161 $295 #
ellipse-curve $-1 -1.1749904435459655 14.14853348843562 -3.3940177666014031 0 0.57357644374324357 0.81915203911291934 2 0 0 1 I I #
point $-1 0.82500955645403451 18.245403058412844 2.4569182312666982 #
vertex $-1 $168 $296 #
ellipse-curve $-1 7.3256344647445077 13.706853236652409 -4.7755508187613387 0 0 -1 -3.9473244531231331e-015 0.75074829307369517 0 0.58482486811498169 I I #
vertex $-1 $169 $297 #
ellipse-curve $-1 7.3256344647445104 14.14853348843562 -3.3940177666014031 0 0.57357644374324357 0.81915203911291934 2 0 0 1 I I #
point $-1 9.3256344647445104 18.245403058412844 2.4569182312666982 #
plane-surface $-1 41.73955504013184 0 0 -1 0 0 0 0 1 forward_v I I I I #
coedge $-1 $177 $175 $179 $256 reversed $103 $-1 #
edge $-1 $190 -4.7755508187613387 $258 4.7755508187613387 $189 $298 forward 7 unknown #
vertex $-1 $256 $299 #
straight-curve $-1 -41.73955504013184 -21.556753503010441 0 0 0 -1 I I #
edge $-1 $254 -21.556753503010441 $258 21.556753503010441 $252 $300 forward 7 unknown #
straight-curve $-1 0 -21.556753503010441 -4.7755508187613387 -1 0 0 I I #
vertex $-1 $182 $301 #
straight-curve $-1 0 21.556753503010441 -4.7755508187613387 1 0 0 I I #
point $-1 41.73955504013184 21.556753503010441 -4.7755508187613387 #
point $-1 41.73955504013184 -21.556753503010441 -4.7755508187613387 #
straight-curve $-1 -41.73955504013184 0 4.7755508187613387 0 -1 0 I I #
point $-1 -41.73955504013184 21.556753503010441 4.7755508187613387 #
point $-1 -41.73955504013184 -21.556753503010441 4.7755508187613387 #
straight-curve $-1 41.73955504013184 -21.556753503010441 0 0 0 -1 I I #
straight-curve $-1 41.73955504013184 21.556753503010441 0 0 0 -1 I I #
plane-surface $-1 41.73955504013184 0 0 -1 0 0 0 0 1 forward_v I I I I #
coedge $-1 $271 $202 $213 $280 forward $122 $-1 #
coedge $-1 $202 $271 $216 $282 reversed $122 $-1 #
straight-curve $-1 41.73955504013184 -17.259553521228554 -0.24426430328206195 0 0 1 I I #
coedge $-1 $269 $268 $205 $272 forward $122 $-1 #
edge $-1 $275 7.5554767651688053 $273 11.852676746950692 $271 $302 forward 7 unknown #
vertex $-1 $207 $303 #
straight-curve $-1 0 -21.556753503010441 -1.9885286065641241 1 0 0 I I #
vertex $-1 $272 $304 #
straight-curve $-1 0 -17.259553521228554 -1.9885286065641241 1 0 0 I I #
point $-1 41.73955504013184 -21.556753503010441 -1.9885286065641241 #
point $-1 41.73955504013184 -17.259553521228554 -1.9885286065641241 #
straight-curve $-1 -41.73955504013184 -9.7040767560597487 1.0114713934358763 0 1 0 I I #
edge $-1 $214 -1.2557356967179383 $275 1.7442643032820622 $268 $305 forward 7 unknown #
point $-1 -41.73955504013184 -17.259553521228554 1.0114713934358763 #
edge $-1 $218 -1.0114713934358763 $273 1.9885286065641241 $269 $306 forward 7 unknown #
point $-1 -41.73955504013184 -21.556753503010441 1.0114713934358763 #
straight-curve $-1 41.73955504013184 -21.556753503010441 0 0 0 -1 I I #
edge $-1 $286 41.849079638821046 $289 46.486344813810341 $224 $307 forward 7 unknown #
vertex $-1 $238 $308 #
straight-curve $-1 12.992717736938165 17.060943706203851 4.7755508187613387 0 1 0 I I #
edge $-1 $289 -11.455056731638528 $235 8.3797347210392559 $234 $309 forward 7 unknown #
vertex $-1 $288 $310 #
straight-curve $-1 12.992717736938165 -13.759763674280698 24.867177669584919 0 -0.81915203911291934 0.57357644374324357 I I #
point $-1 12.992717736938165 14.934052613815229 4.7755508187613387 #
point $-1 -6.8420737157396196 21.556753503010441 0.13828564377204344 #
straight-curve $-1 0 21.556753503010441 4.7755508187613387 -1 0 0 I I #
point $-1 -1.1749904435459682 12.956104943578714 -4.7755508187613387 #
point $-1 0.82500955645403451 14.14853348843562 -3.3940177666014031 #
point $-1 7.3256344647445086 12.956104943578714 -4.7755508187613387 #
point $-1 9.3256344647445104 14.14853348843562 -3.3940177666014031 #
straight-curve $-1 -41.73955504013184 21.556753503010441 0 0 0 -1 I I #
point $-1 -41.73955504013184 -21.556753503010441 -4.7755508187613387 #
straight-curve $-1 -41.73955504013184 0 -4.7755508187613387 0 1 0 I I #
point $-1 -41.73955504013184 21.556753503010441 -4.7755508187613387 #
straight-curve $-1 -41.73955504013184 -9.7040767560597487 -1.9885286065641241 0 -1 0 I I #
point $-1 -41.73955504013184 -21.556753503010441 -1.9885286065641241 #
point $-1 -41.73955504013184 -17.259553521228554 -1.9885286065641241 #
straight-curve $-1 -41.73955504013184 -17.259553521228554 -0.24426430328206195 0 0 -1 I I #
straight-curve $-1 -41.73955504013184 -21.556753503010441 0 0 0 -1 I I #
straight-curve $-1 12.992717736938165 21.556753503010441 46.624630457582384 0 0 -1 I I #
point $-1 12.992717736938165 21.556753503010441 4.7755508187613387 #
straight-curve $-1 1.5376610052996362 21.556753503010441 0.13828564377204344 -1 0 0 I I #
point $-1 12.992717736938165 21.556753503010441 0.13828564377204344 #
End-of-ACIS-data 