500 0 14 0           
7 Unknown 11 ACIS 5.0 NT 24 Fri Mar 26 00:43:21 1999 
-1 9.9999999999999995e-007 1e-010 
body $-1 $14 $-1 $15 #
body $-1 $16 $-1 $17 #
body $-1 $18 $-1 $19 #
body $-1 $20 $-1 $21 #
body $-1 $22 $-1 $23 #
body $-1 $24 $-1 $25 #
body $-1 $26 $-1 $27 #
body $-1 $28 $-1 $29 #
body $-1 $30 $-1 $31 #
body $-1 $32 $-1 $33 #
body $-1 $34 $-1 $35 #
body $-1 $36 $-1 $37 #
body $-1 $38 $-1 $39 #
body $-1 $40 $-1 $41 #
lump $-1 $-1 $42 $0 #
transform $-1 1 0 0 0 1 0 0 0 1 56.938993499557483 39.133198687970648 13.545960248987379 1 rotate no_reflect no_shear #
lump $-1 $-1 $43 $1 #
transform $-1 1 0 0 0 1 0 0 0 1 56.938993499557483 39.133198687970648 13.545960248987379 1 rotate no_reflect no_shear #
lump $-1 $-1 $44 $2 #
transform $-1 1 0 0 0 1 0 0 0 1 56.938993499557483 39.133198687970648 13.545960248987379 1 rotate no_reflect no_shear #
lump $-1 $-1 $45 $3 #
transform $-1 1 0 0 0 1 0 0 0 1 56.938993499557483 39.133198687970648 13.545960248987379 1 rotate no_reflect no_shear #
lump $-1 $-1 $46 $4 #
transform $-1 1 0 0 0 1 0 0 0 1 56.938993499557483 39.133198687970648 13.545960248987379 1 rotate no_reflect no_shear #
lump $-1 $-1 $47 $5 #
transform $-1 1 0 0 0 1 0 0 0 1 56.938993499557483 39.133198687970648 13.545960248987379 1 rotate no_reflect no_shear #
lump $-1 $-1 $48 $6 #
transform $-1 1 0 0 0 1 0 0 0 1 56.938993499557483 39.133198687970648 13.545960248987379 1 rotate no_reflect no_shear #
lump $-1 $-1 $49 $7 #
transform $-1 1 0 0 0 1 0 0 0 1 56.938993499557483 39.133198687970648 13.545960248987379 1 rotate no_reflect no_shear #
lump $-1 $-1 $50 $8 #
transform $-1 1 0 0 0 1 0 0 0 1 56.938993499557483 39.133198687970648 13.545960248987379 1 rotate no_reflect no_shear #
lump $-1 $-1 $51 $9 #
transform $-1 1 0 0 0 1 0 0 0 1 56.938993499557483 39.133198687970648 13.545960248987379 1 rotate no_reflect no_shear #
lump $-1 $-1 $52 $10 #
transform $-1 1 0 0 0 1 0 0 0 1 56.938993499557483 39.133198687970648 13.545960248987379 1 rotate no_reflect no_shear #
lump $-1 $-1 $53 $11 #
transform $-1 1 0 0 0 1 0 0 0 1 56.938993499557483 39.133198687970648 13.545960248987379 1 rotate no_reflect no_shear #
lump $-1 $-1 $54 $12 #
transform $-1 1 0 0 0 1 0 0 0 1 56.938993499557483 39.133198687970648 13.545960248987379 1 rotate no_reflect no_shear #
lump $-1 $-1 $55 $13 #
transform $-1 1 0 0 0 1 0 0 0 1 56.938993499557483 39.133198687970648 13.545960248987379 1 rotate no_reflect no_shear #
shell $-1 $-1 $-1 $56 $-1 $14 #
shell $-1 $-1 $-1 $57 $-1 $16 #
shell $-1 $-1 $-1 $58 $-1 $18 #
shell $-1 $-1 $-1 $59 $-1 $20 #
shell $-1 $-1 $-1 $60 $-1 $22 #
shell $-1 $-1 $-1 $61 $-1 $24 #
shell $-1 $-1 $-1 $62 $-1 $26 #
shell $-1 $-1 $-1 $63 $-1 $28 #
shell $-1 $-1 $-1 $64 $-1 $30 #
shell $-1 $-1 $-1 $65 $-1 $32 #
shell $-1 $-1 $-1 $66 $-1 $34 #
shell $-1 $-1 $-1 $67 $-1 $36 #
shell $-1 $-1 $-1 $68 $-1 $38 #
shell $-1 $-1 $-1 $69 $-1 $40 #
face $-1 $70 $71 $42 $-1 $72 forward single #
face $-1 $73 $74 $43 $-1 $75 reversed single #
face $-1 $76 $77 $44 $-1 $78 reversed single #
face $-1 $79 $80 $45 $-1 $81 forward single #
face $-1 $82 $83 $46 $-1 $84 forward single #
face $-1 $85 $86 $47 $-1 $87 reversed single #
face $-1 $88 $89 $48 $-1 $90 forward single #
face $-1 $91 $92 $49 $-1 $93 forward single #
face $-1 $94 $95 $50 $-1 $96 reversed single #
face $-1 $97 $98 $51 $-1 $99 forward single #
face $-1 $100 $101 $52 $-1 $102 forward single #
face $-1 $103 $104 $53 $-1 $105 reversed single #
face $-1 $106 $107 $54 $-1 $108 forward single #
face $-1 $109 $110 $55 $-1 $111 forward single #
face $-1 $112 $113 $42 $-1 $114 reversed single #
loop $-1 $-1 $115 $56 #
plane-surface $-1 0 0 13.545960248987379 0 0 1 1 0 0 forward_v I I I I #
face $-1 $116 $117 $43 $-1 $118 reversed single #
loop $-1 $-1 $119 $57 #
plane-surface $-1 -54.326992381323379 -28.365344688234654 0 0 -1 0 0 0 -1 forward_v I I I I #
face $-1 $120 $121 $44 $-1 $122 reversed single #
loop $-1 $-1 $123 $58 #
plane-surface $-1 -118.96139126082664 -17.029011932600234 97.246342168301922 0 1 0 -0.54463904215088732 0 0.83867056331134215 forward_v I I I I #
face $-1 $124 $125 $45 $-1 $126 forward single #
loop $-1 $127 $128 $59 #
cone-surface $-1 -47.087160491667568 -12.903275331639669 6.4693846629430185 0.54463904215088732 0 -0.83867056331134215 0.83867056331134215 0 0.54463904215088732 1 I I 0 1 1 forward I I I I #
face $-1 $129 $130 $46 $-1 $131 forward single #
loop $-1 $132 $133 $60 #
cone-surface $-1 -47.087160491667568 -6.7146704301988223 6.4693846629430185 0.54463904215088732 0 -0.83867056331134215 0.83867056331134215 0 0.54463904215088732 1 I I 0 1 1 forward I I I I #
face $-1 $134 $135 $47 $-1 $136 reversed single #
loop $-1 $-1 $137 $61 #
plane-surface $-1 -118.96139126082664 13.356787828974264 97.246342168301922 0 1 0 -0.54463904215088732 0 0.83867056331134215 forward_v I I I I #
face $-1 $138 $139 $48 $-1 $140 forward single #
loop $-1 $141 $142 $62 #
cone-surface $-1 -47.087160491667568 17.482524429934827 6.4693846629430185 0.54463904215088732 0 -0.83867056331134215 0.83867056331134215 0 0.54463904215088732 1 I I 0 1 1 forward I I I I #
face $-1 $143 $144 $49 $-1 $145 forward single #
loop $-1 $146 $147 $63 #
cone-surface $-1 -47.087160491667568 23.671129331375667 6.4693846629430185 0.54463904215088732 0 -0.83867056331134215 0.83867056331134215 0 0.54463904215088732 1 I I 0 1 1 forward I I I I #
face $-1 $148 $149 $50 $-1 $150 reversed single #
loop $-1 $-1 $151 $64 #
plane-surface $-1 48.51040495863144 -5.2170704650393933 171.05602432310388 0 -1 0 -0.66913061440640931 0 -0.74314481823134659 forward_v I I I I #
face $-1 $152 $153 $51 $-1 $154 forward single #
loop $-1 $155 $156 $65 #
cone-surface $-1 54.702082159043862 -11.258697581822126 11.448814407755961 -0.66913061440640931 0 -0.74314481823134659 0.3715724091156733 0 -0.33456530720320465 1 I I 0 1 0.5 forward I I I I #
face $-1 $157 $158 $52 $-1 $159 forward single #
loop $-1 $160 $161 $66 #
cone-surface $-1 54.702082159043862 -7.6337213117524847 11.448814407755961 -0.66913061440640931 0 -0.74314481823134659 0.3715724091156733 0 -0.33456530720320465 1 I I 0 1 0.5 forward I I I I #
face $-1 $162 $163 $53 $-1 $164 reversed single #
loop $-1 $-1 $165 $67 #
plane-surface $-1 48.51040495863144 28.532201223063261 171.05602432310388 0 -1 0 -0.66913061440640931 0 -0.74314481823134659 forward_v I I I I #
face $-1 $166 $167 $54 $-1 $168 forward single #
loop $-1 $169 $170 $68 #
cone-surface $-1 54.702082159043862 22.490574106280526 11.448814407755961 -0.66913061440640931 0 -0.74314481823134659 0.3715724091156733 0 -0.33456530720320465 1 I I 0 1 0.5 forward I I I I #
face $-1 $171 $172 $55 $-1 $173 forward single #
loop $-1 $174 $175 $69 #
cone-surface $-1 54.702082159043862 26.115550376350171 11.448814407755961 -0.66913061440640931 0 -0.74314481823134659 0.3715724091156733 0 -0.33456530720320465 1 I I 0 1 0.5 forward I I I I #
face $-1 $176 $177 $42 $-1 $178 reversed single #
loop $-1 $-1 $179 $70 #
plane-surface $-1 0 0 -13.545960248987379 0 0 1 1 0 0 forward_v I I I I #
coedge $-1 $180 $181 $182 $183 forward $71 $-1 #
face $-1 $184 $185 $43 $-1 $186 forward single #
loop $-1 $-1 $187 $73 #
plane-surface $-1 -51.714991263089274 -33.749271688102652 0 -1 0 0 0 0 1 forward_v I I I I #
coedge $-1 $188 $189 $190 $191 forward $74 $-1 #
face $-1 $192 $193 $44 $-1 $194 reversed single #
loop $-1 $-1 $195 $76 #
plane-surface $-1 -56.938993499557469 -9.8089728809192493 1.7402266629924696 -0.54463904215088732 0 0.83867056331134215 0.83867056331134215 0 0.54463904215088732 forward_v I I I I #
coedge $-1 $196 $197 $198 $199 reversed $77 $-1 #
face $-1 $-1 $200 $45 $-1 $201 forward single #
loop $-1 $202 $203 $79 #
cone-surface $-1 -46.052625553986601 -12.903275331639669 4.8763405882404331 0.54463904215088732 0 -0.83867056331134215 0.41933528165567108 0 0.27231952107544366 1 I I -0.70710678118654746 0.70710678118654746 0.5 forward I I I I #
loop $-1 $-1 $204 $59 #
coedge $-1 $128 $128 $205 $206 reversed $80 $-1 #
face $-1 $-1 $207 $46 $-1 $208 forward single #
loop $-1 $209 $210 $82 #
cone-surface $-1 -46.052625553986601 -6.7146704301988223 4.8763405882404331 0.54463904215088732 0 -0.83867056331134215 0.41933528165567108 0 0.27231952107544366 1 I I -0.70710678118654746 0.70710678118654746 0.5 forward I I I I #
loop $-1 $-1 $211 $60 #
coedge $-1 $133 $133 $212 $213 reversed $83 $-1 #
face $-1 $214 $215 $47 $-1 $216 reversed single #
loop $-1 $-1 $217 $85 #
plane-surface $-1 -56.938993499557469 20.576826880655247 1.7402266629924696 -0.54463904215088732 0 0.83867056331134215 0.83867056331134215 0 0.54463904215088732 forward_v I I I I #
coedge $-1 $218 $219 $220 $221 reversed $86 $-1 #
face $-1 $-1 $222 $48 $-1 $223 forward single #
loop $-1 $224 $225 $88 #
cone-surface $-1 -46.052625553986601 17.482524429934827 4.8763405882404331 0.54463904215088732 0 -0.83867056331134215 0.41933528165567108 0 0.27231952107544366 1 I I -0.70710678118654746 0.70710678118654746 0.5 forward I I I I #
loop $-1 $-1 $226 $62 #
coedge $-1 $142 $142 $227 $228 reversed $89 $-1 #
face $-1 $-1 $229 $49 $-1 $230 forward single #
loop $-1 $231 $232 $91 #
cone-surface $-1 -46.052625553986601 23.671129331375667 4.8763405882404331 0.54463904215088732 0 -0.83867056331134215 0.41933528165567108 0 0.27231952107544366 1 I I -0.70710678118654746 0.70710678118654746 0.5 forward I I I I #
loop $-1 $-1 $233 $63 #
coedge $-1 $147 $147 $234 $235 reversed $92 $-1 #
face $-1 $236 $237 $50 $-1 $238 reversed single #
loop $-1 $-1 $239 $94 #
plane-surface $-1 -27.688842449451442 -9.4462094467873072 86.428188374094944 0.66913061440640931 0 0.74314481823134659 0.74314481823134659 0 -0.66913061440640931 forward_v I I I I #
coedge $-1 $240 $241 $242 $243 reversed $95 $-1 #
face $-1 $-1 $244 $51 $-1 $245 forward single #
loop $-1 $246 $247 $97 #
cone-surface $-1 54.139849688616579 -11.258697581822126 10.824392003454376 -0.66913061440640931 0 -0.74314481823134659 0.18578620455783665 0 -0.16728265360160233 1 I I -0.70710678118654746 0.70710678118654746 0.25 forward I I I I #
loop $-1 $-1 $248 $65 #
coedge $-1 $156 $156 $249 $250 reversed $98 $-1 #
face $-1 $-1 $251 $52 $-1 $252 forward single #
loop $-1 $253 $254 $100 #
cone-surface $-1 54.139849688616579 -7.6337213117524847 10.824392003454376 -0.66913061440640931 0 -0.74314481823134659 0.18578620455783665 0 -0.16728265360160233 1 I I -0.70710678118654746 0.70710678118654746 0.25 forward I I I I #
loop $-1 $-1 $255 $66 #
coedge $-1 $161 $161 $256 $257 reversed $101 $-1 #
face $-1 $258 $259 $53 $-1 $260 reversed single #
loop $-1 $-1 $261 $103 #
plane-surface $-1 -27.688842449451442 24.303062241315345 86.428188374094944 0.66913061440640931 0 0.74314481823134659 0.74314481823134659 0 -0.66913061440640931 forward_v I I I I #
coedge $-1 $262 $263 $264 $265 reversed $104 $-1 #
face $-1 $-1 $266 $54 $-1 $267 forward single #
loop $-1 $268 $269 $106 #
cone-surface $-1 54.139849688616579 22.490574106280526 10.824392003454376 -0.66913061440640931 0 -0.74314481823134659 0.18578620455783665 0 -0.16728265360160233 1 I I -0.70710678118654746 0.70710678118654746 0.25 forward I I I I #
loop $-1 $-1 $270 $68 #
coedge $-1 $170 $170 $271 $272 reversed $107 $-1 #
face $-1 $-1 $273 $55 $-1 $274 forward single #
loop $-1 $275 $276 $109 #
cone-surface $-1 54.139849688616579 26.115550376350171 10.824392003454376 -0.66913061440640931 0 -0.74314481823134659 0.18578620455783665 0 -0.16728265360160233 1 I I -0.70710678118654746 0.70710678118654746 0.25 forward I I I I #
loop $-1 $-1 $277 $69 #
coedge $-1 $175 $175 $278 $279 reversed $110 $-1 #
face $-1 $280 $281 $42 $-1 $282 reversed single #
loop $-1 $-1 $283 $112 #
plane-surface $-1 0 -39.133198687970648 0 0 1 0 0 0 1 forward_v I I I I #
coedge $-1 $284 $285 $286 $287 forward $113 $-1 #
coedge $-1 $288 $115 $289 $290 forward $71 $-1 #
coedge $-1 $115 $288 $291 $292 forward $71 $-1 #
coedge $-1 $293 $294 $115 $183 reversed $295 $-1 #
edge $-1 $296 -39.133198687970648 $297 39.133198687970648 $182 $298 forward 7 unknown #
face $-1 $299 $300 $43 $-1 $301 reversed single #
loop $-1 $-1 $302 $116 #
plane-surface $-1 0 0 13.545960248987379 0 0 1 1 0 0 forward_v I I I I #
coedge $-1 $303 $304 $305 $306 reversed $117 $-1 #
coedge $-1 $307 $119 $308 $309 reversed $74 $-1 #
coedge $-1 $119 $307 $310 $311 reversed $74 $-1 #
coedge $-1 $304 $303 $119 $191 reversed $117 $-1 #
edge $-1 $312 -13.545960248987379 $313 13.545960248987379 $190 $314 forward 7 unknown #
face $-1 $315 $316 $44 $-1 $317 reversed single #
loop $-1 $-1 $318 $120 #
plane-surface $-1 -118.96139126082664 -2.5889338292382664 97.246342168301922 0 -1 0 0.54463904215088732 0 -0.83867056331134215 forward_v I I I I #
coedge $-1 $319 $320 $321 $322 reversed $121 $-1 #
coedge $-1 $197 $123 $323 $324 reversed $77 $-1 #
coedge $-1 $123 $196 $319 $325 reversed $77 $-1 #
coedge $-1 $321 $326 $123 $199 forward $327 $-1 #
edge $-1 $328 2.541702130855839 $329 20.720937313424656 $198 $330 forward 7 unknown #
loop $-1 $-1 $205 $124 #
plane-surface $-1 -56.938993499557469 -9.8089728809192493 1.7402266629924696 -0.54463904215088732 0 0.83867056331134215 0.83867056331134215 0 0.54463904215088732 forward_v I I I I #
loop $-1 $-1 $331 $79 #
coedge $-1 $203 $203 $204 $332 reversed $125 $-1 #
coedge $-1 $204 $204 $203 $332 forward $127 $-1 #
coedge $-1 $205 $205 $128 $206 forward $200 $-1 #
edge $-1 $333 0 $333 6.2831853071796004 $205 $334 forward 7 unknown #
loop $-1 $-1 $212 $129 #
plane-surface $-1 -56.938993499557469 -9.8089728809192493 1.7402266629924696 -0.54463904215088732 0 0.83867056331134215 0.83867056331134215 0 0.54463904215088732 forward_v I I I I #
loop $-1 $-1 $335 $82 #
coedge $-1 $210 $210 $211 $336 reversed $130 $-1 #
coedge $-1 $211 $211 $210 $336 forward $132 $-1 #
coedge $-1 $212 $212 $133 $213 forward $207 $-1 #
edge $-1 $337 0 $337 6.2831853071796004 $212 $338 forward 7 unknown #
face $-1 $339 $340 $47 $-1 $341 forward single #
loop $-1 $-1 $342 $134 #
plane-surface $-1 -118.96139126082664 27.796865932336232 97.246342168301922 0 -1 0 0.54463904215088732 0 -0.83867056331134215 forward_v I I I I #
coedge $-1 $343 $344 $345 $346 reversed $135 $-1 #
coedge $-1 $219 $137 $347 $348 reversed $86 $-1 #
coedge $-1 $137 $218 $343 $349 reversed $86 $-1 #
coedge $-1 $345 $350 $137 $221 forward $340 $-1 #
edge $-1 $351 2.541702130855839 $352 20.720937313424656 $220 $353 forward 7 unknown #
loop $-1 $-1 $227 $138 #
plane-surface $-1 -56.938993499557469 20.576826880655247 1.7402266629924696 -0.54463904215088732 0 0.83867056331134215 0.83867056331134215 0 0.54463904215088732 forward_v I I I I #
loop $-1 $-1 $354 $88 #
coedge $-1 $225 $225 $226 $355 reversed $139 $-1 #
coedge $-1 $226 $226 $225 $355 forward $141 $-1 #
coedge $-1 $227 $227 $142 $228 forward $222 $-1 #
edge $-1 $356 0 $356 6.2831853071796004 $227 $357 forward 7 unknown #
loop $-1 $-1 $234 $143 #
plane-surface $-1 -56.938993499557469 20.576826880655247 1.7402266629924696 -0.54463904215088732 0 0.83867056331134215 0.83867056331134215 0 0.54463904215088732 forward_v I I I I #
loop $-1 $-1 $358 $91 #
coedge $-1 $232 $232 $233 $359 reversed $144 $-1 #
coedge $-1 $233 $233 $232 $359 forward $146 $-1 #
coedge $-1 $234 $234 $147 $235 forward $229 $-1 #
edge $-1 $360 0 $360 6.2831853071796004 $234 $361 forward 7 unknown #
face $-1 $362 $363 $50 $-1 $364 forward single #
loop $-1 $-1 $365 $148 #
plane-surface $-1 48.51040495863144 -13.675348428535221 171.05602432310388 0 1 0 0.66913061440640931 0 0.74314481823134659 forward_v I I I I #
coedge $-1 $366 $367 $368 $369 reversed $149 $-1 #
coedge $-1 $241 $151 $370 $371 reversed $95 $-1 #
coedge $-1 $151 $240 $366 $372 reversed $95 $-1 #
coedge $-1 $368 $373 $151 $243 forward $363 $-1 #
edge $-1 $374 -32.683791020241763 $375 -28.999867972865864 $242 $376 forward 7 unknown #
loop $-1 $-1 $249 $152 #
plane-surface $-1 -27.688842449451442 -9.4462094467873072 86.428188374094944 0.66913061440640931 0 0.74314481823134659 0.74314481823134659 0 -0.66913061440640931 forward_v I I I I #
loop $-1 $-1 $377 $97 #
coedge $-1 $247 $247 $248 $378 reversed $153 $-1 #
coedge $-1 $248 $248 $247 $378 forward $155 $-1 #
coedge $-1 $249 $249 $156 $250 forward $244 $-1 #
edge $-1 $379 0 $379 6.2831853071796004 $249 $380 forward 7 unknown #
loop $-1 $-1 $256 $157 #
plane-surface $-1 -27.688842449451442 -9.4462094467873072 86.428188374094944 0.66913061440640931 0 0.74314481823134659 0.74314481823134659 0 -0.66913061440640931 forward_v I I I I #
loop $-1 $-1 $381 $100 #
coedge $-1 $254 $254 $255 $382 reversed $158 $-1 #
coedge $-1 $255 $255 $254 $382 forward $160 $-1 #
coedge $-1 $256 $256 $161 $257 forward $251 $-1 #
edge $-1 $383 0 $383 6.2831853071796004 $256 $384 forward 7 unknown #
face $-1 $385 $386 $53 $-1 $387 reversed single #
loop $-1 $-1 $388 $162 #
plane-surface $-1 48.51040495863144 20.07392325956743 171.05602432310388 0 1 0 0.66913061440640931 0 0.74314481823134659 forward_v I I I I #
coedge $-1 $389 $390 $391 $392 reversed $163 $-1 #
coedge $-1 $263 $165 $393 $394 reversed $104 $-1 #
coedge $-1 $165 $262 $389 $395 reversed $104 $-1 #
coedge $-1 $391 $396 $165 $265 forward $397 $-1 #
edge $-1 $398 -32.683791020241763 $399 -28.999867972865864 $264 $400 forward 7 unknown #
loop $-1 $-1 $271 $166 #
plane-surface $-1 -27.688842449451442 24.303062241315345 86.428188374094944 0.66913061440640931 0 0.74314481823134659 0.74314481823134659 0 -0.66913061440640931 forward_v I I I I #
loop $-1 $-1 $401 $106 #
coedge $-1 $269 $269 $270 $402 reversed $167 $-1 #
coedge $-1 $270 $270 $269 $402 forward $169 $-1 #
coedge $-1 $271 $271 $170 $272 forward $266 $-1 #
edge $-1 $403 0 $403 6.2831853071796004 $271 $404 forward 7 unknown #
loop $-1 $-1 $278 $171 #
plane-surface $-1 -27.688842449451442 24.303062241315345 86.428188374094944 0.66913061440640931 0 0.74314481823134659 0.74314481823134659 0 -0.66913061440640931 forward_v I I I I #
loop $-1 $-1 $405 $109 #
coedge $-1 $276 $276 $277 $406 reversed $172 $-1 #
coedge $-1 $277 $277 $276 $406 forward $174 $-1 #
coedge $-1 $278 $278 $175 $279 forward $273 $-1 #
edge $-1 $407 0 $407 6.2831853071796004 $278 $408 forward 7 unknown #
face $-1 $409 $410 $42 $-1 $411 reversed single #
loop $-1 $-1 $412 $176 #
plane-surface $-1 -56.938993499557483 0 0 1 0 0 0 0 -1 forward_v I I I I #
coedge $-1 $413 $291 $414 $415 forward $177 $-1 #
coedge $-1 $416 $179 $413 $417 forward $113 $-1 #
coedge $-1 $179 $416 $418 $419 forward $113 $-1 #
coedge $-1 $294 $293 $179 $287 reversed $295 $-1 #
edge $-1 $420 -39.133198687970648 $421 39.133198687970648 $286 $422 forward 7 unknown #
coedge $-1 $181 $180 $423 $424 forward $71 $-1 #
coedge $-1 $425 $426 $180 $290 reversed $410 $-1 #
edge $-1 $297 -56.938993499557483 $427 56.938993499557483 $289 $428 forward 7 unknown #
coedge $-1 $283 $429 $181 $292 reversed $177 $-1 #
edge $-1 $430 -56.938993499557483 $296 56.938993499557483 $291 $431 forward 7 unknown #
coedge $-1 $286 $182 $429 $432 forward $295 $-1 #
coedge $-1 $182 $286 $425 $433 reversed $295 $-1 #
loop $-1 $-1 $293 $409 #
vertex $-1 $183 $434 #
vertex $-1 $183 $435 #
straight-curve $-1 56.938993499557483 0 13.545960248987379 0 1 0 I I #
face $-1 $436 $437 $43 $-1 $438 reversed single #
loop $-1 $-1 $439 $184 #
plane-surface $-1 -56.938993499557483 0 0 1 0 0 0 0 -1 forward_v I I I I #
coedge $-1 $310 $440 $304 $441 forward $185 $-1 #
coedge $-1 $190 $187 $442 $443 reversed $117 $-1 #
coedge $-1 $187 $190 $302 $441 reversed $117 $-1 #
coedge $-1 $444 $445 $187 $306 forward $446 $-1 #
edge $-1 $447 -13.545960248987379 $448 13.545960248987379 $305 $449 forward 7 unknown #
coedge $-1 $189 $188 $439 $450 reversed $74 $-1 #
coedge $-1 $442 $451 $188 $309 forward $437 $-1 #
edge $-1 $452 -29.775497308895794 $313 -24.551495072427585 $308 $453 forward 7 unknown #
coedge $-1 $454 $302 $189 $311 forward $185 $-1 #
edge $-1 $312 24.551495072427585 $455 29.775497308895794 $310 $456 forward 7 unknown #
vertex $-1 $311 $457 #
vertex $-1 $309 $458 #
straight-curve $-1 -51.714991263089274 -28.365344688234654 0 0 0 -1 I I #
face $-1 $-1 $327 $44 $-1 $459 forward single #
loop $-1 $-1 $460 $192 #
plane-surface $-1 -56.938993499557483 0 0 1 0 0 0 0 -1 forward_v I I I I #
coedge $-1 $461 $462 $463 $464 reversed $193 $-1 #
coedge $-1 $465 $195 $197 $325 forward $121 $-1 #
coedge $-1 $195 $465 $461 $466 forward $121 $-1 #
coedge $-1 $463 $198 $195 $322 forward $327 $-1 #
edge $-1 $329 -12.124525492140609 $467 2.3155526112213582 $321 $468 forward 7 unknown #
coedge $-1 $469 $470 $196 $324 forward $316 $-1 #
edge $-1 $471 -46.882944421158498 $328 -35.077210835163584 $323 $472 forward 7 unknown #
edge $-1 $329 -21.676252843299174 $471 1.699746028866204e-014 $197 $473 forward 7 unknown #
coedge $-1 $198 $463 $469 $474 forward $327 $-1 #
loop $-1 $-1 $463 $315 #
vertex $-1 $324 $475 #
vertex $-1 $199 $476 #
straight-curve $-1 -59.480695630413322 -17.029011932600234 13.545960248987377 1 0 0 I I #
coedge $-1 $331 $331 $-1 $477 reversed $202 $-1 #
edge $-1 $478 0 $478 6.2831853071796004 $203 $479 forward 7 unknown #
vertex $-1 $206 $480 #
ellipse-curve $-1 -47.849375908273082 -12.903275331639669 7.6430934559899164 -0.54463904215088732 0 0.83867056331134215 0.83867056331134215 0 0.54463904215088732 1 I I #
coedge $-1 $335 $335 $-1 $481 reversed $209 $-1 #
edge $-1 $482 0 $482 6.2831853071796004 $210 $483 forward 7 unknown #
vertex $-1 $213 $484 #
ellipse-curve $-1 -47.849375908273082 -6.7146704301988223 7.6430934559899164 -0.54463904215088732 0 0.83867056331134215 0.83867056331134215 0 0.54463904215088732 1 I I #
face $-1 $-1 $485 $47 $-1 $486 reversed single #
loop $-1 $-1 $220 $214 #
plane-surface $-1 0 0 13.545960248987379 0 0 1 1 0 0 forward_v I I I I #
coedge $-1 $487 $488 $489 $490 reversed $215 $-1 #
coedge $-1 $491 $217 $219 $349 forward $135 $-1 #
coedge $-1 $217 $491 $487 $492 forward $135 $-1 #
coedge $-1 $489 $220 $217 $346 forward $340 $-1 #
edge $-1 $352 3.0683743886466406 $493 17.508452492008608 $345 $494 forward 7 unknown #
coedge $-1 $495 $496 $218 $348 forward $485 $-1 #
edge $-1 $497 -46.882944421158498 $351 -35.077210835163584 $347 $498 forward 7 unknown #
edge $-1 $352 -21.676252843299174 $497 1.699746028866204e-014 $219 $499 forward 7 unknown #
coedge $-1 $220 $489 $495 $500 forward $340 $-1 #
vertex $-1 $348 $501 #
vertex $-1 $221 $502 #
straight-curve $-1 -59.480695630413322 13.356787828974264 13.545960248987377 1 0 0 I I #
coedge $-1 $354 $354 $-1 $503 reversed $224 $-1 #
edge $-1 $504 0 $504 6.2831853071796004 $225 $505 forward 7 unknown #
vertex $-1 $228 $506 #
ellipse-curve $-1 -47.849375908273082 17.482524429934827 7.6430934559899164 -0.54463904215088732 0 0.83867056331134215 0.83867056331134215 0 0.54463904215088732 1 I I #
coedge $-1 $358 $358 $-1 $507 reversed $231 $-1 #
edge $-1 $508 0 $508 6.2831853071796004 $232 $509 forward 7 unknown #
vertex $-1 $235 $510 #
ellipse-curve $-1 -47.849375908273082 23.671129331375667 7.6430934559899164 -0.54463904215088732 0 0.83867056331134215 0.83867056331134215 0 0.54463904215088732 1 I I #
face $-1 $-1 $511 $50 $-1 $512 reversed single #
loop $-1 $-1 $242 $236 #
plane-surface $-1 0 0 13.545960248987379 0 0 1 1 0 0 forward_v I I I I #
coedge $-1 $513 $514 $515 $516 reversed $237 $-1 #
coedge $-1 $517 $239 $241 $372 forward $149 $-1 #
coedge $-1 $239 $517 $513 $518 forward $149 $-1 #
coedge $-1 $515 $242 $239 $369 forward $363 $-1 #
edge $-1 $375 0.4939657416457397 $519 8.9522437051415675 $368 $520 forward 7 unknown #
coedge $-1 $521 $522 $240 $371 forward $511 $-1 #
edge $-1 $523 -75.299071195539867 $374 -71.982051912564557 $370 $524 forward 7 unknown #
edge $-1 $375 108.92077952487934 $523 113.87798699911494 $241 $525 forward 7 unknown #
coedge $-1 $242 $515 $521 $526 forward $363 $-1 #
vertex $-1 $243 $527 #
vertex $-1 $243 $528 #
straight-curve $-1 24.25520247931572 -5.2170704650393933 13.545960248987384 -1 0 0 I I #
coedge $-1 $377 $377 $-1 $529 reversed $246 $-1 #
edge $-1 $530 0 $530 6.2831853071796004 $247 $531 forward 7 unknown #
vertex $-1 $250 $532 #
ellipse-curve $-1 55.097031975869548 -11.258697581822126 11.887450607499712 0.66913061440640931 0 0.74314481823134659 0.3715724091156733 0 -0.33456530720320465 1 I I #
coedge $-1 $381 $381 $-1 $533 reversed $253 $-1 #
edge $-1 $534 0 $534 6.2831853071796004 $254 $535 forward 7 unknown #
vertex $-1 $257 $536 #
ellipse-curve $-1 55.097031975869548 -7.6337213117524847 11.887450607499712 0.66913061440640931 0 0.74314481823134659 0.3715724091156733 0 -0.33456530720320465 1 I I #
face $-1 $-1 $397 $53 $-1 $537 forward single #
loop $-1 $-1 $538 $258 #
plane-surface $-1 56.938993499557483 0 0 -1 0 0 0 0 1 forward_v I I I I #
coedge $-1 $539 $540 $541 $542 reversed $259 $-1 #
coedge $-1 $543 $261 $263 $395 forward $163 $-1 #
coedge $-1 $261 $543 $539 $544 forward $163 $-1 #
coedge $-1 $541 $264 $261 $392 forward $397 $-1 #
edge $-1 $399 -16.380670102405588 $545 -7.9223921389097569 $391 $546 forward 7 unknown #
coedge $-1 $547 $548 $262 $394 forward $386 $-1 #
edge $-1 $549 -75.299071195539867 $398 -71.982051912564557 $393 $550 forward 7 unknown #
edge $-1 $399 108.92077952487934 $549 113.87798699911494 $263 $551 forward 7 unknown #
coedge $-1 $264 $541 $547 $552 forward $397 $-1 #
loop $-1 $-1 $541 $385 #
vertex $-1 $394 $553 #
vertex $-1 $265 $554 #
straight-curve $-1 24.25520247931572 28.532201223063261 13.545960248987384 -1 0 0 I I #
coedge $-1 $401 $401 $-1 $555 reversed $268 $-1 #
edge $-1 $556 0 $556 6.2831853071796004 $269 $557 forward 7 unknown #
vertex $-1 $272 $558 #
ellipse-curve $-1 55.097031975869548 22.490574106280526 11.887450607499712 0.66913061440640931 0 0.74314481823134659 0.3715724091156733 0 -0.33456530720320465 1 I I #
coedge $-1 $405 $405 $-1 $559 reversed $275 $-1 #
edge $-1 $560 0 $560 6.2831853071796004 $276 $561 forward 7 unknown #
vertex $-1 $279 $562 #
ellipse-curve $-1 55.097031975869548 26.115550376350171 11.887450607499712 0.66913061440640931 0 0.74314481823134659 0.3715724091156733 0 -0.33456530720320465 1 I I #
face $-1 $-1 $295 $42 $-1 $563 reversed single #
loop $-1 $-1 $425 $280 #
plane-surface $-1 0 39.133198687970648 0 0 -1 0 0 0 -1 forward_v I I I I #
coedge $-1 $564 $423 $426 $565 forward $281 $-1 #
coedge $-1 $429 $283 $284 $417 reversed $177 $-1 #
coedge $-1 $423 $564 $283 $415 reversed $281 $-1 #
edge $-1 $430 -13.545960248987379 $566 13.545960248987379 $414 $567 forward 7 unknown #
coedge $-1 $285 $284 $564 $568 forward $113 $-1 #
edge $-1 $421 -56.938993499557483 $566 56.938993499557483 $413 $569 forward 7 unknown #
coedge $-1 $426 $425 $285 $419 reversed $410 $-1 #
edge $-1 $570 -56.938993499557483 $420 56.938993499557483 $418 $571 forward 7 unknown #
vertex $-1 $287 $572 #
vertex $-1 $432 $573 #
straight-curve $-1 56.938993499557483 0 -13.545960248987379 0 -1 0 I I #
coedge $-1 $412 $414 $288 $424 reversed $281 $-1 #
edge $-1 $427 -39.133198687970648 $430 39.133198687970648 $423 $574 forward 7 unknown #
coedge $-1 $418 $289 $294 $433 forward $410 $-1 #
coedge $-1 $289 $418 $412 $565 reversed $410 $-1 #
vertex $-1 $290 $575 #
straight-curve $-1 0 39.133198687970648 13.545960248987379 -1 0 0 I I #
coedge $-1 $291 $413 $293 $432 reversed $177 $-1 #
vertex $-1 $424 $576 #
straight-curve $-1 0 -39.133198687970648 13.545960248987379 1 0 0 I I #
edge $-1 $296 -13.545960248987379 $421 13.545960248987379 $293 $577 forward 7 unknown #
edge $-1 $297 -13.545960248987379 $420 13.545960248987379 $294 $578 forward 7 unknown #
point $-1 56.938993499557483 -39.133198687970648 13.545960248987379 #
point $-1 56.938993499557483 39.133198687970648 13.545960248987379 #
face $-1 $-1 $446 $43 $-1 $579 reversed single #
loop $-1 $-1 $442 $299 #
plane-surface $-1 0 0 -13.545960248987379 0 0 1 1 0 0 forward_v I I I I #
coedge $-1 $580 $581 $307 $450 forward $300 $-1 #
coedge $-1 $302 $454 $444 $582 forward $185 $-1 #
edge $-1 $448 -22.258562843919321 $312 -11.490708844183327 $302 $583 forward 7 unknown #
coedge $-1 $584 $308 $303 $443 forward $437 $-1 #
edge $-1 $313 11.490708844183327 $447 22.258562843919321 $442 $585 forward 7 unknown #
coedge $-1 $586 $305 $440 $582 reversed $446 $-1 #
coedge $-1 $305 $586 $584 $587 reversed $446 $-1 #
loop $-1 $-1 $305 $436 #
vertex $-1 $587 $588 #
vertex $-1 $306 $589 #
straight-curve $-1 -51.714991263089274 -39.133198687970648 0 0 0 1 I I #
edge $-1 $455 -13.545960248987379 $452 13.545960248987379 $439 $590 forward 7 unknown #
coedge $-1 $308 $584 $580 $591 forward $437 $-1 #
vertex $-1 $309 $592 #
straight-curve $-1 -27.163496190661689 -28.365344688234654 -13.545960248987379 1 0 0 I I #
coedge $-1 $440 $310 $581 $593 forward $185 $-1 #
vertex $-1 $593 $594 #
straight-curve $-1 -27.163496190661689 -28.365344688234654 13.545960248987379 -1 0 0 I I #
point $-1 -51.714991263089274 -28.365344688234654 13.545960248987379 #
point $-1 -51.714991263089274 -28.365344688234654 -13.545960248987379 #
plane-surface $-1 0 0 13.545960248987379 0 0 1 1 0 0 forward_v I I I I #
coedge $-1 $470 $469 $462 $595 forward $316 $-1 #
coedge $-1 $462 $318 $320 $466 reversed $193 $-1 #
coedge $-1 $318 $461 $460 $595 reversed $193 $-1 #
coedge $-1 $326 $321 $318 $464 forward $327 $-1 #
edge $-1 $467 -20.720937313424656 $596 -2.541702130855839 $463 $597 forward 7 unknown #
coedge $-1 $320 $319 $470 $598 reversed $121 $-1 #
edge $-1 $599 -1.699746028866204e-014 $467 21.676252843299174 $461 $600 forward 7 unknown #
vertex $-1 $322 $601 #
straight-curve $-1 -38.759758316988666 -4.9044864404596247 13.545960248987379 0 1 0 I I #
coedge $-1 $460 $323 $326 $474 reversed $316 $-1 #
coedge $-1 $323 $460 $465 $598 forward $316 $-1 #
vertex $-1 $324 $602 #
straight-curve $-1 -56.938993499557483 -17.029011932600234 48.623171084150961 0 0 1 I I #
straight-curve $-1 -56.938993499557469 -17.029011932600234 1.7402266629924696 -0.83867056331134215 0 -0.54463904215088732 I I #
edge $-1 $596 2.5889338292382664 $328 17.029011932600234 $469 $603 forward 7 unknown #
point $-1 -56.938993499557483 -17.029011932600234 13.545960248987379 #
point $-1 -38.759758316988666 -17.029011932600234 13.545960248987379 #
edge $-1 $604 1 $604 0 $331 $-1 forward 7 unknown #
vertex $-1 $332 $605 #
ellipse-curve $-1 -46.324945075062047 -12.903275331639669 5.2956758698961046 -0.54463904215088732 0 0.83867056331134215 0.83867056331134215 0 0.54463904215088732 1 I I #
point $-1 -47.010705344961757 -12.903275331639669 8.1877324981408197 #
edge $-1 $606 1 $606 0 $335 $-1 forward 7 unknown #
vertex $-1 $336 $607 #
ellipse-curve $-1 -46.324945075062047 -6.7146704301988223 5.2956758698961046 -0.54463904215088732 0 0.83867056331134215 0.83867056331134215 0 0.54463904215088732 1 I I #
point $-1 -47.010705344961757 -6.7146704301988223 8.1877324981408197 #
loop $-1 $-1 $347 $339 #
plane-surface $-1 -56.938993499557483 0 0 1 0 0 0 0 -1 forward_v I I I I #
coedge $-1 $488 $342 $344 $492 reversed $215 $-1 #
coedge $-1 $342 $487 $608 $609 reversed $215 $-1 #
coedge $-1 $350 $345 $342 $490 forward $340 $-1 #
edge $-1 $493 -20.720937313424656 $610 -2.541702130855839 $489 $611 forward 7 unknown #
coedge $-1 $344 $343 $496 $612 reversed $135 $-1 #
edge $-1 $613 -1.699746028866204e-014 $493 21.676252843299174 $487 $614 forward 7 unknown #
vertex $-1 $346 $615 #
straight-curve $-1 -38.759758316988666 10.288413440327624 13.545960248987379 0 1 0 I I #
coedge $-1 $608 $347 $350 $500 reversed $485 $-1 #
coedge $-1 $347 $608 $491 $612 forward $485 $-1 #
vertex $-1 $348 $616 #
straight-curve $-1 -56.938993499557483 13.356787828974264 48.623171084150961 0 0 1 I I #
straight-curve $-1 -56.938993499557469 13.356787828974264 1.7402266629924696 -0.83867056331134215 0 -0.54463904215088732 I I #
edge $-1 $610 -27.796865932336232 $351 -13.356787828974264 $495 $617 forward 7 unknown #
point $-1 -56.938993499557483 13.356787828974264 13.545960248987379 #
point $-1 -38.759758316988666 13.356787828974264 13.545960248987379 #
edge $-1 $618 1 $618 0 $354 $-1 forward 7 unknown #
vertex $-1 $355 $619 #
ellipse-curve $-1 -46.324945075062047 17.482524429934827 5.2956758698961046 -0.54463904215088732 0 0.83867056331134215 0.83867056331134215 0 0.54463904215088732 1 I I #
point $-1 -47.010705344961757 17.482524429934827 8.1877324981408197 #
edge $-1 $620 1 $620 0 $358 $-1 forward 7 unknown #
vertex $-1 $359 $621 #
ellipse-curve $-1 -46.324945075062047 23.671129331375667 5.2956758698961046 -0.54463904215088732 0 0.83867056331134215 0.83867056331134215 0 0.54463904215088732 1 I I #
point $-1 -47.010705344961757 23.671129331375667 8.1877324981408197 #
loop $-1 $-1 $370 $362 #
plane-surface $-1 56.938993499557483 0 0 -1 0 0 0 0 1 forward_v I I I I #
coedge $-1 $514 $365 $367 $518 reversed $237 $-1 #
coedge $-1 $365 $513 $622 $623 reversed $237 $-1 #
coedge $-1 $373 $368 $365 $516 forward $363 $-1 #
edge $-1 $519 28.999867972865864 $624 32.683791020241763 $515 $625 forward 7 unknown #
coedge $-1 $367 $366 $522 $626 reversed $149 $-1 #
edge $-1 $627 -113.87798699911494 $519 -108.92077952487934 $513 $628 forward 7 unknown #
vertex $-1 $369 $629 #
straight-curve $-1 53.255070452181613 -4.7231047233936536 13.54596024898737 0 -1 0 I I #
coedge $-1 $622 $370 $373 $526 reversed $511 $-1 #
coedge $-1 $370 $622 $517 $626 forward $511 $-1 #
vertex $-1 $371 $630 #
straight-curve $-1 56.938993499557483 -5.2170704650393933 85.528012161551942 0 0 1 I I #
straight-curve $-1 -27.688842449451442 -5.2170704650393933 86.428188374094944 0.74314481823134659 0 -0.66913061440640931 I I #
edge $-1 $624 -13.675348428535221 $374 -5.2170704650393933 $521 $631 forward 7 unknown #
point $-1 56.938993499557483 -5.2170704650393933 13.545960248987379 #
point $-1 53.255070452181585 -5.2170704650393933 13.545960248987384 #
edge $-1 $632 1 $632 0 $377 $-1 forward 7 unknown #
vertex $-1 $378 $633 #
ellipse-curve $-1 54.307132342218182 -11.258697581822126 11.010178208012212 0.66913061440640931 0 0.74314481823134659 0.3715724091156733 0 -0.33456530720320465 1 I I #
point $-1 55.46860438498522 -11.258697581822126 11.552885300296502 #
edge $-1 $634 1 $634 0 $381 $-1 forward 7 unknown #
vertex $-1 $382 $635 #
ellipse-curve $-1 54.307132342218182 -7.6337213117524847 11.010178208012212 0.66913061440640931 0 0.74314481823134659 0.3715724091156733 0 -0.33456530720320465 1 I I #
point $-1 55.46860438498522 -7.6337213117524847 11.552885300296502 #
plane-surface $-1 0 0 13.545960248987379 0 0 1 1 0 0 forward_v I I I I #
coedge $-1 $548 $547 $540 $636 forward $386 $-1 #
coedge $-1 $540 $388 $390 $544 reversed $259 $-1 #
coedge $-1 $388 $539 $538 $636 reversed $259 $-1 #
coedge $-1 $396 $391 $388 $542 forward $397 $-1 #
edge $-1 $545 28.999867972865864 $637 32.683791020241763 $541 $638 forward 7 unknown #
coedge $-1 $390 $389 $548 $639 reversed $163 $-1 #
edge $-1 $640 -113.87798699911494 $545 -108.92077952487934 $539 $641 forward 7 unknown #
vertex $-1 $392 $642 #
straight-curve $-1 53.255070452181613 12.151531120657673 13.54596024898737 0 -1 0 I I #
coedge $-1 $538 $393 $396 $552 reversed $386 $-1 #
coedge $-1 $393 $538 $543 $639 forward $386 $-1 #
vertex $-1 $394 $643 #
straight-curve $-1 56.938993499557483 28.532201223063261 85.528012161551942 0 0 1 I I #
straight-curve $-1 -27.688842449451442 28.532201223063261 86.428188374094944 0.74314481823134659 0 -0.66913061440640931 I I #
edge $-1 $637 20.07392325956743 $398 28.532201223063261 $547 $644 forward 7 unknown #
point $-1 56.938993499557483 28.532201223063261 13.545960248987379 #
point $-1 53.255070452181585 28.532201223063261 13.545960248987384 #
edge $-1 $645 1 $645 0 $401 $-1 forward 7 unknown #
vertex $-1 $402 $646 #
ellipse-curve $-1 54.307132342218182 22.490574106280526 11.010178208012212 0.66913061440640931 0 0.74314481823134659 0.3715724091156733 0 -0.33456530720320465 1 I I #
point $-1 55.46860438498522 22.490574106280526 11.552885300296502 #
edge $-1 $647 1 $647 0 $405 $-1 forward 7 unknown #
vertex $-1 $406 $648 #
ellipse-curve $-1 54.307132342218182 26.115550376350171 11.010178208012212 0.66913061440640931 0 0.74314481823134659 0.3715724091156733 0 -0.33456530720320465 1 I I #
point $-1 55.46860438498522 26.115550376350171 11.552885300296502 #
plane-surface $-1 56.938993499557483 0 0 -1 0 0 0 0 1 forward_v I I I I #
coedge $-1 $414 $412 $416 $568 reversed $281 $-1 #
edge $-1 $427 -13.545960248987379 $570 13.545960248987379 $426 $649 forward 7 unknown #
vertex $-1 $568 $650 #
straight-curve $-1 -56.938993499557483 -39.133198687970648 0 0 0 -1 I I #
edge $-1 $566 -39.133198687970648 $570 39.133198687970648 $564 $651 forward 7 unknown #
straight-curve $-1 0 -39.133198687970648 -13.545960248987379 -1 0 0 I I #
vertex $-1 $419 $652 #
straight-curve $-1 0 39.133198687970648 -13.545960248987379 1 0 0 I I #
point $-1 56.938993499557483 39.133198687970648 -13.545960248987379 #
point $-1 56.938993499557483 -39.133198687970648 -13.545960248987379 #
straight-curve $-1 -56.938993499557483 0 13.545960248987379 0 -1 0 I I #
point $-1 -56.938993499557483 39.133198687970648 13.545960248987379 #
point $-1 -56.938993499557483 -39.133198687970648 13.545960248987379 #
straight-curve $-1 56.938993499557483 -39.133198687970648 0 0 0 -1 I I #
straight-curve $-1 56.938993499557483 39.133198687970648 0 0 0 -1 I I #
plane-surface $-1 0 -39.133198687970648 0 0 1 0 0 0 1 forward_v I I I I #
coedge $-1 $653 $439 $451 $591 reversed $300 $-1 #
coedge $-1 $439 $653 $454 $593 reversed $300 $-1 #
edge $-1 $654 -56.938993499557483 $448 -51.714991263089274 $444 $655 forward 7 unknown #
straight-curve $-1 -51.714991263089274 -16.874635844051326 13.545960248987379 0 1 0 I I #
coedge $-1 $451 $442 $445 $587 forward $437 $-1 #
straight-curve $-1 -51.714991263089274 -16.874635844051326 -13.545960248987379 0 -1 0 I I #
coedge $-1 $445 $444 $653 $656 forward $446 $-1 #
edge $-1 $447 51.714991263089274 $657 56.938993499557483 $445 $658 forward 7 unknown #
point $-1 -51.714991263089274 -39.133198687970648 -13.545960248987379 #
point $-1 -51.714991263089274 -39.133198687970648 13.545960248987379 #
straight-curve $-1 -56.938993499557483 -28.365344688234654 0 0 0 -1 I I #
edge $-1 $657 -39.133198687970648 $452 -28.365344688234654 $580 $659 forward 7 unknown #
point $-1 -56.938993499557483 -28.365344688234654 -13.545960248987379 #
edge $-1 $455 28.365344688234654 $654 39.133198687970648 $581 $660 forward 7 unknown #
point $-1 -56.938993499557483 -28.365344688234654 13.545960248987379 #
edge $-1 $596 35.077210835163584 $599 46.882944421158498 $460 $661 forward 7 unknown #
vertex $-1 $474 $662 #
straight-curve $-1 -59.480695630413322 -2.5889338292382664 13.545960248987377 -1 0 0 I I #
edge $-1 $599 -2.3155526112213582 $471 12.124525492140609 $470 $663 forward 7 unknown #
vertex $-1 $598 $664 #
straight-curve $-1 -56.938993499557469 -2.5889338292382664 1.7402266629924696 0.83867056331134215 0 0.54463904215088732 I I #
point $-1 -38.759758316988666 -2.5889338292382664 13.545960248987379 #
point $-1 -56.938993499557483 -17.029011932600234 1.7402266629924603 #
straight-curve $-1 -56.938993499557483 0 13.545960248987379 0 -1 0 I I #
vertex $-1 $477 $665 #
point $-1 -45.4862745117507 -12.903275331639669 5.8403149120469919 #
vertex $-1 $481 $666 #
point $-1 -45.4862745117507 -6.7146704301988223 5.8403149120469919 #
coedge $-1 $496 $495 $488 $609 forward $485 $-1 #
edge $-1 $610 35.077210835163584 $613 46.882944421158498 $608 $667 forward 7 unknown #
vertex $-1 $500 $668 #
straight-curve $-1 -59.480695630413322 27.796865932336232 13.545960248987377 -1 0 0 I I #
edge $-1 $613 -17.508452492008608 $497 -3.0683743886466406 $496 $669 forward 7 unknown #
vertex $-1 $612 $670 #
straight-curve $-1 -56.938993499557469 27.796865932336232 1.7402266629924696 0.83867056331134215 0 0.54463904215088732 I I #
point $-1 -38.759758316988666 27.796865932336232 13.545960248987379 #
point $-1 -56.938993499557483 13.356787828974264 1.7402266629924603 #
straight-curve $-1 -56.938993499557483 0 13.545960248987379 0 -1 0 I I #
vertex $-1 $503 $671 #
point $-1 -45.4862745117507 17.482524429934827 5.8403149120469919 #
vertex $-1 $507 $672 #
point $-1 -45.4862745117507 23.671129331375667 5.8403149120469919 #
coedge $-1 $522 $521 $514 $623 forward $511 $-1 #
edge $-1 $624 71.982051912564557 $627 75.299071195539867 $622 $673 forward 7 unknown #
vertex $-1 $526 $674 #
straight-curve $-1 24.25520247931572 -13.675348428535221 13.545960248987384 1 0 0 I I #
edge $-1 $627 -8.9522437051415675 $523 -0.4939657416457397 $522 $675 forward 7 unknown #
vertex $-1 $626 $676 #
straight-curve $-1 -27.688842449451442 -13.675348428535221 86.428188374094944 -0.74314481823134659 0 0.66913061440640931 I I #
point $-1 53.255070452181585 -13.675348428535221 13.545960248987384 #
point $-1 56.938993499557483 -5.2170704650393933 10.228940966012075 #
straight-curve $-1 56.938993499557483 0 13.545960248987379 0 1 0 I I #
vertex $-1 $529 $677 #
point $-1 54.678704751333854 -11.258697581822126 10.675612900809007 #
vertex $-1 $533 $678 #
point $-1 54.678704751333854 -7.6337213117524847 10.675612900809007 #
edge $-1 $637 71.982051912564557 $640 75.299071195539867 $538 $679 forward 7 unknown #
vertex $-1 $552 $680 #
straight-curve $-1 24.25520247931572 20.07392325956743 13.545960248987384 1 0 0 I I #
edge $-1 $640 7.9223921389097569 $549 16.380670102405588 $548 $681 forward 7 unknown #
vertex $-1 $639 $682 #
straight-curve $-1 -27.688842449451442 20.07392325956743 86.428188374094944 -0.74314481823134659 0 0.66913061440640931 I I #
point $-1 53.255070452181585 20.07392325956743 13.545960248987384 #
point $-1 56.938993499557483 28.532201223063261 10.228940966012075 #
straight-curve $-1 56.938993499557483 0 13.545960248987379 0 1 0 I I #
vertex $-1 $555 $683 #
point $-1 54.678704751333854 22.490574106280526 10.675612900809007 #
vertex $-1 $559 $684 #
point $-1 54.678704751333854 26.115550376350171 10.675612900809007 #
straight-curve $-1 -56.938993499557483 39.133198687970648 0 0 0 -1 I I #
point $-1 -56.938993499557483 -39.133198687970648 -13.545960248987379 #
straight-curve $-1 -56.938993499557483 0 -13.545960248987379 0 1 0 I I #
point $-1 -56.938993499557483 39.133198687970648 -13.545960248987379 #
coedge $-1 $581 $580 $586 $656 reversed $300 $-1 #
vertex $-1 $593 $685 #
straight-curve $-1 0 -39.133198687970648 13.545960248987379 1 0 0 I I #
edge $-1 $654 -13.545960248987379 $657 13.545960248987379 $653 $686 forward 7 unknown #
vertex $-1 $591 $687 #
straight-curve $-1 0 -39.133198687970648 -13.545960248987379 -1 0 0 I I #
straight-curve $-1 -56.938993499557483 0 -13.545960248987379 0 1 0 I I #
straight-curve $-1 -56.938993499557483 0 13.545960248987379 0 -1 0 I I #
straight-curve $-1 -56.938993499557483 -2.5889338292382664 48.623171084150961 0 0 -1 I I #
point $-1 -56.938993499557483 -2.5889338292382664 13.545960248987379 #
straight-curve $-1 -56.938993499557483 -4.9044864404596247 1.7402266629924625 0 -1 0 I I #
point $-1 -56.938993499557483 -2.5889338292382664 1.7402266629924603 #
point $-1 -45.780306032911156 -12.903275331639669 4.4570053065847617 #
point $-1 -45.780306032911156 -6.7146704301988223 4.4570053065847617 #
straight-curve $-1 -56.938993499557483 27.796865932336232 48.623171084150961 0 0 -1 I I #
point $-1 -56.938993499557483 27.796865932336232 13.545960248987379 #
straight-curve $-1 -56.938993499557483 10.288413440327624 1.7402266629924625 0 -1 0 I I #
point $-1 -56.938993499557483 27.796865932336232 1.7402266629924603 #
point $-1 -45.780306032911156 17.482524429934827 4.4570053065847617 #
point $-1 -45.780306032911156 23.671129331375667 4.4570053065847617 #
straight-curve $-1 56.938993499557483 -13.675348428535221 85.528012161551942 0 0 -1 I I #
point $-1 56.938993499557483 -13.675348428535221 13.545960248987379 #
straight-curve $-1 56.938993499557483 -4.7231047233936536 10.228940966012068 0 1 0 I I #
point $-1 56.938993499557483 -13.675348428535221 10.228940966012075 #
point $-1 53.972567035014976 -11.258697581822126 10.63860579889654 #
point $-1 53.972567035014976 -7.6337213117524847 10.63860579889654 #
straight-curve $-1 56.938993499557483 20.07392325956743 85.528012161551942 0 0 -1 I I #
point $-1 56.938993499557483 20.07392325956743 13.545960248987379 #
straight-curve $-1 56.938993499557483 12.151531120657673 10.228940966012068 0 1 0 I I #
point $-1 56.938993499557483 20.07392325956743 10.228940966012075 #
point $-1 53.972567035014976 22.490574106280526 10.63860579889654 #
point $-1 53.972567035014976 26.115550376350171 10.63860579889654 #
point $-1 -56.938993499557483 -39.133198687970648 13.545960248987379 #
straight-curve $-1 -56.938993499557483 -39.133198687970648 0 0 0 -1 I I #
point $-1 -56.938993499557483 -39.133198687970648 -13.545960248987379 #
End-of-ACIS-data 