500 0 13 0           
7 Unknown 11 ACIS 5.0 NT 24 Fri Mar 26 03:23:25 1999 
-1 9.9999999999999995e-007 1e-010 
body $-1 $13 $-1 $14 #
body $-1 $15 $-1 $16 #
body $-1 $17 $-1 $18 #
body $-1 $19 $-1 $20 #
body $-1 $21 $-1 $22 #
body $-1 $23 $-1 $24 #
body $-1 $25 $-1 $26 #
body $-1 $27 $-1 $28 #
body $-1 $29 $-1 $30 #
body $-1 $31 $-1 $32 #
body $-1 $33 $-1 $34 #
body $-1 $35 $-1 $36 #
body $-1 $37 $-1 $38 #
lump $-1 $-1 $39 $0 #
transform $-1 1 0 0 0 1 0 0 0 1 78.738975188451803 50.747193814578132 20.605680684334256 1 rotate no_reflect no_shear #
lump $-1 $-1 $40 $1 #
transform $-1 1 0 0 0 1 0 0 0 1 78.738975188451803 50.747193814578132 20.605680684334256 1 rotate no_reflect no_shear #
lump $-1 $-1 $41 $2 #
transform $-1 1 0 0 0 1 0 0 0 1 78.738975188451803 50.747193814578132 20.605680684334256 1 rotate no_reflect no_shear #
lump $-1 $-1 $42 $3 #
transform $-1 1 0 0 0 1 0 0 0 1 78.738975188451803 50.747193814578132 20.605680684334256 1 rotate no_reflect no_shear #
lump $-1 $-1 $43 $4 #
transform $-1 1 0 0 0 1 0 0 0 1 78.738975188451803 50.747193814578132 20.605680684334256 1 rotate no_reflect no_shear #
lump $-1 $-1 $44 $5 #
transform $-1 1 0 0 0 1 0 0 0 1 78.738975188451803 50.747193814578132 20.605680684334256 1 rotate no_reflect no_shear #
lump $-1 $-1 $45 $6 #
transform $-1 1 0 0 0 1 0 0 0 1 78.738975188451803 50.747193814578132 20.605680684334256 1 rotate no_reflect no_shear #
lump $-1 $-1 $46 $7 #
transform $-1 1 0 0 0 1 0 0 0 1 78.738975188451803 50.747193814578132 20.605680684334256 1 rotate no_reflect no_shear #
lump $-1 $-1 $47 $8 #
transform $-1 1 0 0 0 1 0 0 0 1 78.738975188451803 50.747193814578132 20.605680684334256 1 rotate no_reflect no_shear #
lump $-1 $-1 $48 $9 #
transform $-1 1 0 0 0 1 0 0 0 1 78.738975188451803 50.747193814578132 20.605680684334256 1 rotate no_reflect no_shear #
lump $-1 $-1 $49 $10 #
transform $-1 1 0 0 0 1 0 0 0 1 78.738975188451803 50.747193814578132 20.605680684334256 1 rotate no_reflect no_shear #
lump $-1 $-1 $50 $11 #
transform $-1 1 0 0 0 1 0 0 0 1 78.738975188451803 50.747193814578132 20.605680684334256 1 rotate no_reflect no_shear #
lump $-1 $-1 $51 $12 #
transform $-1 1 0 0 0 1 0 0 0 1 78.738975188451803 50.747193814578132 20.605680684334256 1 rotate no_reflect no_shear #
shell $-1 $-1 $-1 $52 $-1 $13 #
shell $-1 $-1 $-1 $53 $-1 $15 #
shell $-1 $-1 $-1 $54 $-1 $17 #
shell $-1 $-1 $-1 $55 $-1 $19 #
shell $-1 $-1 $-1 $56 $-1 $21 #
shell $-1 $-1 $-1 $57 $-1 $23 #
shell $-1 $-1 $-1 $58 $-1 $25 #
shell $-1 $-1 $-1 $59 $-1 $27 #
shell $-1 $-1 $-1 $60 $-1 $29 #
shell $-1 $-1 $-1 $61 $-1 $31 #
shell $-1 $-1 $-1 $62 $-1 $33 #
shell $-1 $-1 $-1 $63 $-1 $35 #
shell $-1 $-1 $-1 $64 $-1 $37 #
face $-1 $65 $66 $39 $-1 $67 forward single #
face $-1 $68 $69 $40 $-1 $70 reversed single #
face $-1 $71 $72 $41 $-1 $73 forward single #
face $-1 $74 $75 $42 $-1 $76 forward single #
face $-1 $77 $78 $43 $-1 $79 reversed single #
face $-1 $80 $81 $44 $-1 $82 forward single #
face $-1 $83 $84 $45 $-1 $85 forward single #
face $-1 $86 $87 $46 $-1 $88 reversed single #
face $-1 $89 $90 $47 $-1 $91 forward single #
face $-1 $92 $93 $48 $-1 $94 forward single #
face $-1 $95 $96 $49 $-1 $97 reversed single #
face $-1 $98 $99 $50 $-1 $100 forward single #
face $-1 $101 $102 $51 $-1 $103 forward single #
face $-1 $104 $105 $39 $-1 $106 reversed single #
loop $-1 $-1 $107 $52 #
plane-surface $-1 0 0 20.605680684334256 0 0 1 1 0 0 forward_v I I I I #
face $-1 $108 $109 $40 $-1 $110 reversed single #
loop $-1 $-1 $111 $53 #
plane-surface $-1 -190.09270307930632 -26.844960543317633 117.89480494954114 0 1 0 -0.70710678939079041 0 0.70710677298230451 forward_v I I I I #
face $-1 $112 $113 $41 $-1 $114 forward single #
loop $-1 $115 $116 $54 #
cone-surface $-1 -70.696549249334637 -21.584991082812756 12.563254605471888 0.70710678939079041 0 -0.70710677298230451 1.7677669324557612 0 1.7677669734769761 1 I I 0 1 2.5 forward I I I I #
face $-1 $117 $118 $42 $-1 $119 forward single #
loop $-1 $120 $121 $55 #
cone-surface $-1 -70.696549249334637 -13.695036892055441 12.563254605471888 0.70710678939079041 0 -0.70710677298230451 1.7677669324557612 0 1.7677669734769761 1 I I 0 1 2.5 forward I I I I #
face $-1 $122 $123 $43 $-1 $124 reversed single #
loop $-1 $-1 $125 $56 #
plane-surface $-1 -190.09270307930632 23.902233271260492 117.89480494954114 0 1 0 -0.70710678939079041 0 0.70710677298230451 forward_v I I I I #
face $-1 $126 $127 $44 $-1 $128 forward single #
loop $-1 $129 $130 $57 #
cone-surface $-1 -70.696549249334637 29.162202731765383 12.563254605471888 0.70710678939079041 0 -0.70710677298230451 1.7677669324557612 0 1.7677669734769761 1 I I 0 1 2.5 forward I I I I #
face $-1 $131 $132 $45 $-1 $133 forward single #
loop $-1 $134 $135 $58 #
cone-surface $-1 -70.696549249334637 37.052156922522691 12.563254605471888 0.70710678939079041 0 -0.70710677298230451 1.7677669324557612 0 1.7677669734769761 1 I I 0 1 2.5 forward I I I I #
face $-1 $136 $137 $46 $-1 $138 reversed single #
loop $-1 $-1 $139 $59 #
plane-surface $-1 24.861167673877404 -21.360552280074252 223.14145510049801 0 -1 0 -0.51503808176128008 0 -0.85716729658548041 forward_v I I I I #
face $-1 $140 $141 $47 $-1 $142 forward single #
loop $-1 $143 $144 $60 #
cone-surface $-1 66.530200268306942 -37.757828176903502 12.283028407839344 -0.51503808176128008 0 -0.85716729658548041 2.5715018897564415 0 -1.5451142452838402 1 I I 0 1 3 forward I I I I #
face $-1 $145 $146 $48 $-1 $147 forward single #
loop $-1 $148 $149 $61 #
cone-surface $-1 66.530200268306942 -27.919462638805953 12.283028407839344 -0.51503808176128008 0 -0.85716729658548041 2.5715018897564415 0 -1.5451142452838402 1 I I 0 1 3 forward I I I I #
face $-1 $150 $151 $49 $-1 $152 reversed single #
loop $-1 $-1 $153 $62 #
plane-surface $-1 24.861167673877404 44.31673853563521 223.14145510049801 0 -1 0 -0.51503808176128008 0 -0.85716729658548041 forward_v I I I I #
face $-1 $154 $155 $50 $-1 $156 forward single #
loop $-1 $157 $158 $63 #
cone-surface $-1 66.530200268306942 27.91946263880596 12.283028407839344 -0.51503808176128008 0 -0.85716729658548041 2.5715018897564415 0 -1.5451142452838402 1 I I 0 1 3 forward I I I I #
face $-1 $159 $160 $51 $-1 $161 forward single #
loop $-1 $162 $163 $64 #
cone-surface $-1 66.530200268306942 37.757828176903509 12.283028407839344 -0.51503808176128008 0 -0.85716729658548041 2.5715018897564415 0 -1.5451142452838402 1 I I 0 1 3 forward I I I I #
face $-1 $164 $165 $39 $-1 $166 reversed single #
loop $-1 $-1 $167 $65 #
plane-surface $-1 0 0 -20.605680684334256 0 0 1 1 0 0 forward_v I I I I #
coedge $-1 $168 $169 $170 $171 forward $66 $-1 #
face $-1 $172 $173 $40 $-1 $174 reversed single #
loop $-1 $-1 $175 $68 #
plane-surface $-1 -78.738975188451789 -17.640013987434095 6.5410796426613445 -0.70710678939079041 0 0.70710677298230451 0.70710677298230451 0 0.70710678939079041 forward_v I I I I #
coedge $-1 $176 $177 $178 $179 reversed $69 $-1 #
face $-1 $-1 $180 $41 $-1 $181 forward single #
loop $-1 $182 $183 $71 #
cone-surface $-1 -68.802540181130155 -21.584991082812756 10.669245581218082 0.70710678939079041 0 -0.70710677298230451 0.88388346622788061 0 0.88388348673848804 1 I I -0.70710678118654746 0.70710678118654746 1.25 forward I I I I #
loop $-1 $-1 $184 $54 #
coedge $-1 $116 $116 $185 $186 reversed $72 $-1 #
face $-1 $-1 $187 $42 $-1 $188 forward single #
loop $-1 $189 $190 $74 #
cone-surface $-1 -68.802540181130155 -13.695036892055441 10.669245581218082 0.70710678939079041 0 -0.70710677298230451 0.88388346622788061 0 0.88388348673848804 1 I I -0.70710678118654746 0.70710678118654746 1.25 forward I I I I #
loop $-1 $-1 $191 $55 #
coedge $-1 $121 $121 $192 $193 reversed $75 $-1 #
face $-1 $194 $195 $43 $-1 $196 reversed single #
loop $-1 $-1 $197 $77 #
plane-surface $-1 -78.738975188451789 33.10717982714403 6.5410796426613445 -0.70710678939079041 0 0.70710677298230451 0.70710677298230451 0 0.70710678939079041 forward_v I I I I #
coedge $-1 $198 $199 $200 $201 reversed $78 $-1 #
face $-1 $-1 $202 $44 $-1 $203 forward single #
loop $-1 $204 $205 $80 #
cone-surface $-1 -68.802540181130155 29.162202731765383 10.669245581218082 0.70710678939079041 0 -0.70710677298230451 0.88388346622788061 0 0.88388348673848804 1 I I -0.70710678118654746 0.70710678118654746 1.25 forward I I I I #
loop $-1 $-1 $206 $57 #
coedge $-1 $130 $130 $207 $208 reversed $81 $-1 #
face $-1 $-1 $209 $45 $-1 $210 forward single #
loop $-1 $211 $212 $83 #
cone-surface $-1 -68.802540181130155 37.052156922522691 10.669245581218082 0.70710678939079041 0 -0.70710677298230451 0.88388346622788061 0 0.88388348673848804 1 I I -0.70710678118654746 0.70710678118654746 1.25 forward I I I I #
loop $-1 $-1 $213 $58 #
coedge $-1 $135 $135 $214 $215 reversed $84 $-1 #
face $-1 $216 $217 $46 $-1 $218 reversed single #
loop $-1 $-1 $219 $86 #
plane-surface $-1 -56.245973807941084 -32.838645407854727 88.156506104105119 0.51503808176128008 0 0.85716729658548041 0.85716729658548041 0 -0.51503808176128008 forward_v I I I I #
coedge $-1 $220 $221 $222 $223 reversed $87 $-1 #
face $-1 $-1 $224 $47 $-1 $225 forward single #
loop $-1 $226 $227 $89 #
cone-surface $-1 64.829617360444871 -37.757828176903502 9.452783217490019 -0.51503808176128008 0 -0.85716729658548041 1.2857509448782207 0 -0.77255712264192011 1 I I -0.70710678118654757 0.70710678118654757 1.5 forward I I I I #
loop $-1 $-1 $228 $60 #
coedge $-1 $144 $144 $229 $230 reversed $90 $-1 #
face $-1 $-1 $231 $48 $-1 $232 forward single #
loop $-1 $233 $234 $92 #
cone-surface $-1 64.829617360444871 -27.919462638805953 9.452783217490019 -0.51503808176128008 0 -0.85716729658548041 1.2857509448782207 0 -0.77255712264192011 1 I I -0.70710678118654757 0.70710678118654757 1.5 forward I I I I #
loop $-1 $-1 $235 $61 #
coedge $-1 $149 $149 $236 $237 reversed $93 $-1 #
face $-1 $238 $239 $49 $-1 $240 reversed single #
loop $-1 $-1 $241 $95 #
plane-surface $-1 -56.245973807941084 32.838645407854735 88.156506104105119 0.51503808176128008 0 0.85716729658548041 0.85716729658548041 0 -0.51503808176128008 forward_v I I I I #
coedge $-1 $242 $243 $244 $245 reversed $96 $-1 #
face $-1 $-1 $246 $50 $-1 $247 forward single #
loop $-1 $248 $249 $98 #
cone-surface $-1 64.829617360444871 27.91946263880596 9.452783217490019 -0.51503808176128008 0 -0.85716729658548041 1.2857509448782207 0 -0.77255712264192011 1 I I -0.70710678118654757 0.70710678118654757 1.5 forward I I I I #
loop $-1 $-1 $250 $63 #
coedge $-1 $158 $158 $251 $252 reversed $99 $-1 #
face $-1 $-1 $253 $51 $-1 $254 forward single #
loop $-1 $255 $256 $101 #
cone-surface $-1 64.829617360444871 37.757828176903509 9.452783217490019 -0.51503808176128008 0 -0.85716729658548041 1.2857509448782207 0 -0.77255712264192011 1 I I -0.70710678118654757 0.70710678118654757 1.5 forward I I I I #
loop $-1 $-1 $257 $64 #
coedge $-1 $163 $163 $258 $259 reversed $102 $-1 #
face $-1 $260 $261 $39 $-1 $262 reversed single #
loop $-1 $-1 $263 $104 #
plane-surface $-1 0 -50.747193814578132 0 0 1 0 0 0 1 forward_v I I I I #
coedge $-1 $264 $265 $266 $267 forward $105 $-1 #
coedge $-1 $268 $107 $269 $270 forward $66 $-1 #
coedge $-1 $107 $268 $271 $272 forward $66 $-1 #
coedge $-1 $273 $274 $107 $171 reversed $275 $-1 #
edge $-1 $276 -50.747193814578132 $277 50.747193814578132 $170 $278 forward 7 unknown #
face $-1 $279 $280 $40 $-1 $281 reversed single #
loop $-1 $-1 $282 $108 #
plane-surface $-1 -190.09270307930632 -8.4350674315505572 117.89480494954114 0 -1 0 0.70710678939079041 0 -0.70710677298230451 forward_v I I I I #
coedge $-1 $283 $284 $285 $286 reversed $109 $-1 #
coedge $-1 $177 $111 $287 $288 reversed $69 $-1 #
coedge $-1 $111 $176 $283 $289 reversed $69 $-1 #
coedge $-1 $285 $290 $111 $179 forward $291 $-1 #
edge $-1 $292 16.307376351201356 $293 30.37197706650376 $178 $294 forward 7 unknown #
loop $-1 $-1 $185 $112 #
plane-surface $-1 -78.738975188451789 -17.640013987434095 6.5410796426613445 -0.70710678939079041 0 0.70710677298230451 0.70710677298230451 0 0.70710678939079041 forward_v I I I I #
loop $-1 $-1 $295 $71 #
coedge $-1 $183 $183 $184 $296 reversed $113 $-1 #
coedge $-1 $184 $184 $183 $296 forward $115 $-1 #
coedge $-1 $185 $185 $116 $186 forward $180 $-1 #
edge $-1 $297 0 $297 6.2831853071796004 $185 $298 forward 7 unknown #
loop $-1 $-1 $192 $117 #
plane-surface $-1 -78.738975188451789 -17.640013987434095 6.5410796426613445 -0.70710678939079041 0 0.70710677298230451 0.70710677298230451 0 0.70710678939079041 forward_v I I I I #
loop $-1 $-1 $299 $74 #
coedge $-1 $190 $190 $191 $300 reversed $118 $-1 #
coedge $-1 $191 $191 $190 $300 forward $120 $-1 #
coedge $-1 $192 $192 $121 $193 forward $187 $-1 #
edge $-1 $301 0 $301 6.2831853071796004 $192 $302 forward 7 unknown #
face $-1 $303 $304 $43 $-1 $305 forward single #
loop $-1 $-1 $306 $122 #
plane-surface $-1 -190.09270307930632 42.312126383027568 117.89480494954114 0 -1 0 0.70710678939079041 0 -0.70710677298230451 forward_v I I I I #
coedge $-1 $307 $308 $309 $310 reversed $123 $-1 #
coedge $-1 $199 $125 $311 $312 reversed $78 $-1 #
coedge $-1 $125 $198 $307 $313 reversed $78 $-1 #
coedge $-1 $309 $314 $125 $201 forward $304 $-1 #
edge $-1 $315 16.307376351201356 $316 30.37197706650376 $200 $317 forward 7 unknown #
loop $-1 $-1 $207 $126 #
plane-surface $-1 -78.738975188451789 33.10717982714403 6.5410796426613445 -0.70710678939079041 0 0.70710677298230451 0.70710677298230451 0 0.70710678939079041 forward_v I I I I #
loop $-1 $-1 $318 $80 #
coedge $-1 $205 $205 $206 $319 reversed $127 $-1 #
coedge $-1 $206 $206 $205 $319 forward $129 $-1 #
coedge $-1 $207 $207 $130 $208 forward $202 $-1 #
edge $-1 $320 0 $320 6.2831853071796004 $207 $321 forward 7 unknown #
loop $-1 $-1 $214 $131 #
plane-surface $-1 -78.738975188451789 33.10717982714403 6.5410796426613445 -0.70710678939079041 0 0.70710677298230451 0.70710677298230451 0 0.70710678939079041 forward_v I I I I #
loop $-1 $-1 $322 $83 #
coedge $-1 $212 $212 $213 $323 reversed $132 $-1 #
coedge $-1 $213 $213 $212 $323 forward $134 $-1 #
coedge $-1 $214 $214 $135 $215 forward $209 $-1 #
edge $-1 $324 0 $324 6.2831853071796004 $214 $325 forward 7 unknown #
face $-1 $326 $327 $46 $-1 $328 forward single #
loop $-1 $-1 $329 $136 #
plane-surface $-1 24.861167673877404 -44.316738535635203 223.14145510049801 0 1 0 0.51503808176128008 0 0.85716729658548041 forward_v I I I I #
coedge $-1 $330 $331 $332 $333 reversed $137 $-1 #
coedge $-1 $221 $139 $334 $335 reversed $87 $-1 #
coedge $-1 $139 $220 $330 $336 reversed $87 $-1 #
coedge $-1 $332 $337 $139 $223 forward $327 $-1 #
edge $-1 $338 -66.308391351513109 $339 -43.746893081663679 $222 $340 forward 7 unknown #
loop $-1 $-1 $229 $140 #
plane-surface $-1 -56.245973807941084 -32.838645407854727 88.156506104105119 0.51503808176128008 0 0.85716729658548041 0.85716729658548041 0 -0.51503808176128008 forward_v I I I I #
loop $-1 $-1 $341 $89 #
coedge $-1 $227 $227 $228 $342 reversed $141 $-1 #
coedge $-1 $228 $228 $227 $342 forward $143 $-1 #
coedge $-1 $229 $229 $144 $230 forward $224 $-1 #
edge $-1 $343 0 $343 6.2831853071796004 $229 $344 forward 7 unknown #
loop $-1 $-1 $236 $145 #
plane-surface $-1 -56.245973807941084 -32.838645407854727 88.156506104105119 0.51503808176128008 0 0.85716729658548041 0.85716729658548041 0 -0.51503808176128008 forward_v I I I I #
loop $-1 $-1 $345 $92 #
coedge $-1 $234 $234 $235 $346 reversed $146 $-1 #
coedge $-1 $235 $235 $234 $346 forward $148 $-1 #
coedge $-1 $236 $236 $149 $237 forward $231 $-1 #
edge $-1 $347 0 $347 6.2831853071796004 $236 $348 forward 7 unknown #
face $-1 $349 $350 $49 $-1 $351 reversed single #
loop $-1 $-1 $352 $150 #
plane-surface $-1 24.861167673877404 21.360552280074259 223.14145510049801 0 1 0 0.51503808176128008 0 0.85716729658548041 forward_v I I I I #
coedge $-1 $353 $354 $355 $356 reversed $151 $-1 #
coedge $-1 $243 $153 $357 $358 reversed $96 $-1 #
coedge $-1 $153 $242 $353 $359 reversed $96 $-1 #
coedge $-1 $355 $360 $153 $245 forward $361 $-1 #
edge $-1 $362 -66.308391351513109 $363 -43.746893081663679 $244 $364 forward 7 unknown #
loop $-1 $-1 $251 $154 #
plane-surface $-1 -56.245973807941084 32.838645407854735 88.156506104105119 0.51503808176128008 0 0.85716729658548041 0.85716729658548041 0 -0.51503808176128008 forward_v I I I I #
loop $-1 $-1 $365 $98 #
coedge $-1 $249 $249 $250 $366 reversed $155 $-1 #
coedge $-1 $250 $250 $249 $366 forward $157 $-1 #
coedge $-1 $251 $251 $158 $252 forward $246 $-1 #
edge $-1 $367 0 $367 6.2831853071796004 $251 $368 forward 7 unknown #
loop $-1 $-1 $258 $159 #
plane-surface $-1 -56.245973807941084 32.838645407854735 88.156506104105119 0.51503808176128008 0 0.85716729658548041 0.85716729658548041 0 -0.51503808176128008 forward_v I I I I #
loop $-1 $-1 $369 $101 #
coedge $-1 $256 $256 $257 $370 reversed $160 $-1 #
coedge $-1 $257 $257 $256 $370 forward $162 $-1 #
coedge $-1 $258 $258 $163 $259 forward $253 $-1 #
edge $-1 $371 0 $371 6.2831853071796004 $258 $372 forward 7 unknown #
face $-1 $373 $374 $39 $-1 $375 reversed single #
loop $-1 $-1 $376 $164 #
plane-surface $-1 -78.738975188451803 0 0 1 0 0 0 0 -1 forward_v I I I I #
coedge $-1 $377 $271 $378 $379 forward $165 $-1 #
coedge $-1 $380 $167 $377 $381 forward $105 $-1 #
coedge $-1 $167 $380 $382 $383 forward $105 $-1 #
coedge $-1 $274 $273 $167 $267 reversed $275 $-1 #
edge $-1 $384 -50.747193814578132 $385 50.747193814578132 $266 $386 forward 7 unknown #
coedge $-1 $169 $168 $387 $388 forward $66 $-1 #
coedge $-1 $389 $390 $168 $270 reversed $374 $-1 #
edge $-1 $277 -78.738975188451803 $391 78.738975188451803 $269 $392 forward 7 unknown #
coedge $-1 $263 $393 $169 $272 reversed $165 $-1 #
edge $-1 $394 -78.738975188451803 $276 78.738975188451803 $271 $395 forward 7 unknown #
coedge $-1 $266 $170 $393 $396 forward $275 $-1 #
coedge $-1 $170 $266 $389 $397 reversed $275 $-1 #
loop $-1 $-1 $273 $373 #
vertex $-1 $171 $398 #
vertex $-1 $171 $399 #
straight-curve $-1 78.738975188451803 0 20.605680684334256 0 1 0 I I #
face $-1 $-1 $291 $40 $-1 $400 forward single #
loop $-1 $-1 $401 $172 #
plane-surface $-1 -78.738975188451803 0 0 1 0 0 0 0 -1 forward_v I I I I #
coedge $-1 $402 $403 $404 $405 reversed $173 $-1 #
coedge $-1 $406 $175 $177 $289 forward $109 $-1 #
coedge $-1 $175 $406 $402 $407 forward $109 $-1 #
coedge $-1 $404 $178 $175 $286 forward $291 $-1 #
edge $-1 $293 -18.024953549600585 $408 0.38493956216649039 $285 $409 forward 7 unknown #
coedge $-1 $410 $411 $176 $288 forward $280 $-1 #
edge $-1 $412 -52.40632283210924 $292 -38.34172179043631 $287 $413 forward 7 unknown #
edge $-1 $293 -19.890349311721788 $412 2.0097183471152325e-014 $177 $414 forward 7 unknown #
coedge $-1 $178 $404 $410 $415 forward $291 $-1 #
loop $-1 $-1 $404 $279 #
vertex $-1 $288 $416 #
vertex $-1 $179 $417 #
straight-curve $-1 -95.046351539653159 -26.844960543317633 20.60568068433426 1 0 0 I I #
coedge $-1 $295 $295 $-1 $418 reversed $182 $-1 #
edge $-1 $419 0 $419 6.2831853071796004 $183 $420 forward 7 unknown #
vertex $-1 $186 $421 #
ellipse-curve $-1 -71.706674830800608 -21.584991082812756 13.573380163497788 -0.70710678939079041 0 0.70710677298230451 1.7677669324557612 0 1.7677669734769761 1 I I #
coedge $-1 $299 $299 $-1 $422 reversed $189 $-1 #
edge $-1 $423 0 $423 6.2831853071796004 $190 $424 forward 7 unknown #
vertex $-1 $193 $425 #
ellipse-curve $-1 -71.706674830800608 -13.695036892055441 13.573380163497788 -0.70710678939079041 0 0.70710677298230451 1.7677669324557612 0 1.7677669734769761 1 I I #
face $-1 $-1 $426 $43 $-1 $427 reversed single #
loop $-1 $-1 $200 $194 #
plane-surface $-1 0 0 20.605680684334256 0 0 1 1 0 0 forward_v I I I I #
coedge $-1 $428 $429 $430 $431 reversed $195 $-1 #
coedge $-1 $432 $197 $199 $313 forward $123 $-1 #
coedge $-1 $197 $432 $428 $433 forward $123 $-1 #
coedge $-1 $430 $200 $197 $310 forward $304 $-1 #
edge $-1 $316 7.3486433576884771 $434 25.758536469455553 $309 $435 forward 7 unknown #
coedge $-1 $436 $437 $198 $312 forward $426 $-1 #
edge $-1 $438 -52.40632283210924 $315 -38.34172179043631 $311 $439 forward 7 unknown #
edge $-1 $316 -19.890349311721788 $438 2.0097183471152325e-014 $199 $440 forward 7 unknown #
coedge $-1 $200 $430 $436 $441 forward $304 $-1 #
vertex $-1 $201 $442 #
vertex $-1 $201 $443 #
straight-curve $-1 -95.046351539653159 23.902233271260492 20.60568068433426 1 0 0 I I #
coedge $-1 $318 $318 $-1 $444 reversed $204 $-1 #
edge $-1 $445 0 $445 6.2831853071796004 $205 $446 forward 7 unknown #
vertex $-1 $208 $447 #
ellipse-curve $-1 -71.706674830800608 29.162202731765383 13.573380163497788 -0.70710678939079041 0 0.70710677298230451 1.7677669324557612 0 1.7677669734769761 1 I I #
coedge $-1 $322 $322 $-1 $448 reversed $211 $-1 #
edge $-1 $449 0 $449 6.2831853071796004 $212 $450 forward 7 unknown #
vertex $-1 $215 $451 #
ellipse-curve $-1 -71.706674830800608 37.052156922522691 13.573380163497788 -0.70710678939079041 0 0.70710677298230451 1.7677669324557612 0 1.7677669734769761 1 I I #
face $-1 $-1 $452 $46 $-1 $453 reversed single #
loop $-1 $-1 $222 $216 #
plane-surface $-1 0 0 20.605680684334256 0 0 1 1 0 0 forward_v I I I I #
coedge $-1 $454 $455 $456 $457 reversed $217 $-1 #
coedge $-1 $458 $219 $221 $336 forward $137 $-1 #
coedge $-1 $219 $458 $454 $459 forward $137 $-1 #
coedge $-1 $456 $222 $219 $333 forward $327 $-1 #
edge $-1 $339 4.9412295761468883 $460 27.897415831707839 $332 $461 forward 7 unknown #
coedge $-1 $462 $463 $220 $335 forward $452 $-1 #
edge $-1 $464 -104.52136292796236 $338 -90.965046865914744 $334 $465 forward 7 unknown #
edge $-1 $339 131.15695287767213 $464 157.47795037690358 $221 $466 forward 7 unknown #
coedge $-1 $222 $456 $462 $467 forward $327 $-1 #
vertex $-1 $335 $468 #
vertex $-1 $223 $469 #
straight-curve $-1 12.430583836938702 -21.360552280074252 20.60568068433426 -1 0 0 I I #
coedge $-1 $341 $341 $-1 $470 reversed $226 $-1 #
edge $-1 $471 0 $471 6.2831853071796004 $227 $472 forward 7 unknown #
vertex $-1 $230 $473 #
ellipse-curve $-1 67.458226053527099 -37.757828176903502 13.827522653310453 0.51503808176128008 0 0.85716729658548041 2.5715018897564415 0 -1.5451142452838402 1 I I #
coedge $-1 $345 $345 $-1 $474 reversed $233 $-1 #
edge $-1 $475 0 $475 6.2831853071796004 $234 $476 forward 7 unknown #
vertex $-1 $237 $477 #
ellipse-curve $-1 67.458226053527099 -27.919462638805953 13.827522653310453 0.51503808176128008 0 0.85716729658548041 2.5715018897564415 0 -1.5451142452838402 1 I I #
face $-1 $-1 $361 $49 $-1 $478 forward single #
loop $-1 $-1 $479 $238 #
plane-surface $-1 78.738975188451803 0 0 -1 0 0 0 0 1 forward_v I I I I #
coedge $-1 $480 $481 $482 $483 reversed $239 $-1 #
coedge $-1 $484 $241 $243 $359 forward $151 $-1 #
coedge $-1 $241 $484 $480 $485 forward $151 $-1 #
coedge $-1 $482 $244 $241 $356 forward $361 $-1 #
edge $-1 $363 -27.897415831707843 $486 -4.9412295761468918 $355 $487 forward 7 unknown #
coedge $-1 $488 $489 $242 $358 forward $350 $-1 #
edge $-1 $490 -104.52136292796236 $362 -90.965046865914744 $357 $491 forward 7 unknown #
edge $-1 $363 131.15695287767213 $490 157.47795037690358 $243 $492 forward 7 unknown #
coedge $-1 $244 $482 $488 $493 forward $361 $-1 #
loop $-1 $-1 $482 $349 #
vertex $-1 $358 $494 #
vertex $-1 $245 $495 #
straight-curve $-1 12.430583836938702 44.31673853563521 20.60568068433426 -1 0 0 I I #
coedge $-1 $365 $365 $-1 $496 reversed $248 $-1 #
edge $-1 $497 0 $497 6.2831853071796004 $249 $498 forward 7 unknown #
vertex $-1 $252 $499 #
ellipse-curve $-1 67.458226053527099 27.91946263880596 13.827522653310453 0.51503808176128008 0 0.85716729658548041 2.5715018897564415 0 -1.5451142452838402 1 I I #
coedge $-1 $369 $369 $-1 $500 reversed $255 $-1 #
edge $-1 $501 0 $501 6.2831853071796004 $256 $502 forward 7 unknown #
vertex $-1 $259 $503 #
ellipse-curve $-1 67.458226053527099 37.757828176903509 13.827522653310453 0.51503808176128008 0 0.85716729658548041 2.5715018897564415 0 -1.5451142452838402 1 I I #
face $-1 $-1 $275 $39 $-1 $504 reversed single #
loop $-1 $-1 $389 $260 #
plane-surface $-1 0 50.747193814578132 0 0 -1 0 0 0 -1 forward_v I I I I #
coedge $-1 $505 $387 $390 $506 forward $261 $-1 #
coedge $-1 $393 $263 $264 $381 reversed $165 $-1 #
coedge $-1 $387 $505 $263 $379 reversed $261 $-1 #
edge $-1 $394 -20.605680684334256 $507 20.605680684334256 $378 $508 forward 7 unknown #
coedge $-1 $265 $264 $505 $509 forward $105 $-1 #
edge $-1 $385 -78.738975188451803 $507 78.738975188451803 $377 $510 forward 7 unknown #
coedge $-1 $390 $389 $265 $383 reversed $374 $-1 #
edge $-1 $511 -78.738975188451803 $384 78.738975188451803 $382 $512 forward 7 unknown #
vertex $-1 $267 $513 #
vertex $-1 $396 $514 #
straight-curve $-1 78.738975188451803 0 -20.605680684334256 0 -1 0 I I #
coedge $-1 $376 $378 $268 $388 reversed $261 $-1 #
edge $-1 $391 -50.747193814578132 $394 50.747193814578132 $387 $515 forward 7 unknown #
coedge $-1 $382 $269 $274 $397 forward $374 $-1 #
coedge $-1 $269 $382 $376 $506 reversed $374 $-1 #
vertex $-1 $270 $516 #
straight-curve $-1 0 50.747193814578132 20.605680684334256 -1 0 0 I I #
coedge $-1 $271 $377 $273 $396 reversed $165 $-1 #
vertex $-1 $388 $517 #
straight-curve $-1 0 -50.747193814578132 20.605680684334256 1 0 0 I I #
edge $-1 $276 -20.605680684334256 $385 20.605680684334256 $273 $518 forward 7 unknown #
edge $-1 $277 -20.605680684334256 $384 20.605680684334256 $274 $519 forward 7 unknown #
point $-1 78.738975188451803 -50.747193814578132 20.605680684334256 #
point $-1 78.738975188451803 50.747193814578132 20.605680684334256 #
plane-surface $-1 0 0 20.605680684334256 0 0 1 1 0 0 forward_v I I I I #
coedge $-1 $411 $410 $403 $520 forward $280 $-1 #
coedge $-1 $403 $282 $284 $407 reversed $173 $-1 #
coedge $-1 $282 $402 $401 $520 reversed $173 $-1 #
coedge $-1 $290 $285 $282 $405 forward $291 $-1 #
edge $-1 $408 -30.37197706650376 $521 -16.307376351201356 $404 $522 forward 7 unknown #
coedge $-1 $284 $283 $411 $523 reversed $109 $-1 #
edge $-1 $524 -2.0097183471152325e-014 $408 19.890349311721788 $402 $525 forward 7 unknown #
vertex $-1 $286 $526 #
straight-curve $-1 -64.674374473149385 -8.8200069937170475 20.605680684334256 0 1 0 I I #
coedge $-1 $401 $287 $290 $415 reversed $280 $-1 #
coedge $-1 $287 $401 $406 $523 forward $280 $-1 #
vertex $-1 $288 $527 #
straight-curve $-1 -78.738975188451803 -26.844960543317633 58.94740247477057 0 0 1 I I #
straight-curve $-1 -78.738975188451789 -26.844960543317633 6.5410796426613445 -0.70710677298230451 0 -0.70710678939079041 I I #
edge $-1 $521 8.4350674315505572 $292 26.844960543317633 $410 $528 forward 7 unknown #
point $-1 -78.738975188451803 -26.844960543317633 20.605680684334256 #
point $-1 -64.674374473149399 -26.844960543317633 20.605680684334256 #
edge $-1 $529 1 $529 0 $295 $-1 forward 7 unknown #
vertex $-1 $296 $530 #
ellipse-curve $-1 -69.686423667868638 -21.584991082812756 11.553129047445962 -0.70710678939079041 0 0.70710677298230451 1.7677669324557612 0 1.7677669734769761 1 I I #
point $-1 -69.938907898344866 -21.584991082812756 15.341147136974786 #
edge $-1 $531 1 $531 0 $299 $-1 forward 7 unknown #
vertex $-1 $300 $532 #
ellipse-curve $-1 -69.686423667868638 -13.695036892055441 11.553129047445962 -0.70710678939079041 0 0.70710677298230451 1.7677669324557612 0 1.7677669734769761 1 I I #
point $-1 -69.938907898344866 -13.695036892055441 15.341147136974786 #
loop $-1 $-1 $311 $303 #
plane-surface $-1 -78.738975188451803 0 0 1 0 0 0 0 -1 forward_v I I I I #
coedge $-1 $429 $306 $308 $433 reversed $195 $-1 #
coedge $-1 $306 $428 $533 $534 reversed $195 $-1 #
coedge $-1 $314 $309 $306 $431 forward $304 $-1 #
edge $-1 $434 -30.37197706650376 $535 -16.307376351201356 $430 $536 forward 7 unknown #
coedge $-1 $308 $307 $437 $537 reversed $123 $-1 #
edge $-1 $538 -2.0097183471152325e-014 $434 19.890349311721788 $428 $539 forward 7 unknown #
vertex $-1 $310 $540 #
straight-curve $-1 -64.674374473149385 16.553589913572015 20.605680684334256 0 1 0 I I #
coedge $-1 $533 $311 $314 $441 reversed $426 $-1 #
coedge $-1 $311 $533 $432 $537 forward $426 $-1 #
vertex $-1 $312 $541 #
straight-curve $-1 -78.738975188451803 23.902233271260492 58.94740247477057 0 0 1 I I #
straight-curve $-1 -78.738975188451789 23.902233271260492 6.5410796426613445 -0.70710677298230451 0 -0.70710678939079041 I I #
edge $-1 $535 -42.312126383027568 $315 -23.902233271260492 $436 $542 forward 7 unknown #
point $-1 -78.738975188451803 23.902233271260492 20.605680684334256 #
point $-1 -64.674374473149399 23.902233271260492 20.605680684334256 #
edge $-1 $543 1 $543 0 $318 $-1 forward 7 unknown #
vertex $-1 $319 $544 #
ellipse-curve $-1 -69.686423667868638 29.162202731765383 11.553129047445962 -0.70710678939079041 0 0.70710677298230451 1.7677669324557612 0 1.7677669734769761 1 I I #
point $-1 -69.938907898344866 29.162202731765383 15.341147136974786 #
edge $-1 $545 1 $545 0 $322 $-1 forward 7 unknown #
vertex $-1 $323 $546 #
ellipse-curve $-1 -69.686423667868638 37.052156922522691 11.553129047445962 -0.70710678939079041 0 0.70710677298230451 1.7677669324557612 0 1.7677669734769761 1 I I #
point $-1 -69.938907898344866 37.052156922522691 15.341147136974786 #
loop $-1 $-1 $334 $326 #
plane-surface $-1 78.738975188451803 0 0 -1 0 0 0 0 1 forward_v I I I I #
coedge $-1 $455 $329 $331 $459 reversed $217 $-1 #
coedge $-1 $329 $454 $547 $548 reversed $217 $-1 #
coedge $-1 $337 $332 $329 $457 forward $327 $-1 #
edge $-1 $460 43.746893081663679 $549 66.308391351513109 $456 $550 forward 7 unknown #
coedge $-1 $331 $330 $463 $551 reversed $137 $-1 #
edge $-1 $552 -157.47795037690358 $460 -131.15695287767213 $454 $553 forward 7 unknown #
vertex $-1 $333 $554 #
straight-curve $-1 56.17747691860238 -16.419322703927364 20.60568068433426 0 -1 0 I I #
coedge $-1 $547 $334 $337 $467 reversed $452 $-1 #
coedge $-1 $334 $547 $458 $551 forward $452 $-1 #
vertex $-1 $335 $555 #
straight-curve $-1 78.738975188451803 -21.360552280074252 111.570727550249 0 0 1 I I #
straight-curve $-1 -56.245973807941084 -21.360552280074252 88.156506104105119 0.85716729658548041 0 -0.51503808176128008 I I #
edge $-1 $549 -44.316738535635203 $338 -21.360552280074252 $462 $556 forward 7 unknown #
point $-1 78.738975188451803 -21.360552280074252 20.605680684334256 #
point $-1 56.17747691860238 -21.360552280074252 20.60568068433426 #
edge $-1 $557 1 $557 0 $341 $-1 forward 7 unknown #
vertex $-1 $342 $558 #
ellipse-curve $-1 65.602174483086785 -37.757828176903502 10.738534162368239 0.51503808176128008 0 0.85716729658548041 2.5715018897564415 0 -1.5451142452838402 1 I I #
point $-1 70.029727943283532 -37.757828176903502 12.282408408026608 #
edge $-1 $559 1 $559 0 $345 $-1 forward 7 unknown #
vertex $-1 $346 $560 #
ellipse-curve $-1 65.602174483086785 -27.919462638805953 10.738534162368239 0.51503808176128008 0 0.85716729658548041 2.5715018897564415 0 -1.5451142452838402 1 I I #
point $-1 70.029727943283532 -27.919462638805953 12.282408408026608 #
plane-surface $-1 0 0 20.605680684334256 0 0 1 1 0 0 forward_v I I I I #
coedge $-1 $489 $488 $481 $561 forward $350 $-1 #
coedge $-1 $481 $352 $354 $485 reversed $239 $-1 #
coedge $-1 $352 $480 $479 $561 reversed $239 $-1 #
coedge $-1 $360 $355 $352 $483 forward $361 $-1 #
edge $-1 $486 43.746893081663679 $562 66.308391351513109 $482 $563 forward 7 unknown #
coedge $-1 $354 $353 $489 $564 reversed $151 $-1 #
edge $-1 $565 -157.47795037690358 $486 -131.15695287767213 $480 $566 forward 7 unknown #
vertex $-1 $356 $567 #
straight-curve $-1 56.17747691860238 16.419322703927367 20.60568068433426 0 -1 0 I I #
coedge $-1 $479 $357 $360 $493 reversed $350 $-1 #
coedge $-1 $357 $479 $484 $564 forward $350 $-1 #
vertex $-1 $358 $568 #
straight-curve $-1 78.738975188451803 44.31673853563521 111.570727550249 0 0 1 I I #
straight-curve $-1 -56.245973807941084 44.31673853563521 88.156506104105119 0.85716729658548041 0 -0.51503808176128008 I I #
edge $-1 $562 21.360552280074259 $362 44.31673853563521 $488 $569 forward 7 unknown #
point $-1 78.738975188451803 44.31673853563521 20.605680684334256 #
point $-1 56.17747691860238 44.31673853563521 20.60568068433426 #
edge $-1 $570 1 $570 0 $365 $-1 forward 7 unknown #
vertex $-1 $366 $571 #
ellipse-curve $-1 65.602174483086785 27.91946263880596 10.738534162368239 0.51503808176128008 0 0.85716729658548041 2.5715018897564415 0 -1.5451142452838402 1 I I #
point $-1 70.029727943283532 27.91946263880596 12.282408408026608 #
edge $-1 $572 1 $572 0 $369 $-1 forward 7 unknown #
vertex $-1 $370 $573 #
ellipse-curve $-1 65.602174483086785 37.757828176903509 10.738534162368239 0.51503808176128008 0 0.85716729658548041 2.5715018897564415 0 -1.5451142452838402 1 I I #
point $-1 70.029727943283532 37.757828176903509 12.282408408026608 #
plane-surface $-1 78.738975188451803 0 0 -1 0 0 0 0 1 forward_v I I I I #
coedge $-1 $378 $376 $380 $509 reversed $261 $-1 #
edge $-1 $391 -20.605680684334256 $511 20.605680684334256 $390 $574 forward 7 unknown #
vertex $-1 $509 $575 #
straight-curve $-1 -78.738975188451803 -50.747193814578132 0 0 0 -1 I I #
edge $-1 $507 -50.747193814578132 $511 50.747193814578132 $505 $576 forward 7 unknown #
straight-curve $-1 0 -50.747193814578132 -20.605680684334256 -1 0 0 I I #
vertex $-1 $383 $577 #
straight-curve $-1 0 50.747193814578132 -20.605680684334256 1 0 0 I I #
point $-1 78.738975188451803 50.747193814578132 -20.605680684334256 #
point $-1 78.738975188451803 -50.747193814578132 -20.605680684334256 #
straight-curve $-1 -78.738975188451803 0 20.605680684334256 0 -1 0 I I #
point $-1 -78.738975188451803 50.747193814578132 20.605680684334256 #
point $-1 -78.738975188451803 -50.747193814578132 20.605680684334256 #
straight-curve $-1 78.738975188451803 -50.747193814578132 0 0 0 -1 I I #
straight-curve $-1 78.738975188451803 50.747193814578132 0 0 0 -1 I I #
edge $-1 $521 38.34172179043631 $524 52.40632283210924 $401 $578 forward 7 unknown #
vertex $-1 $415 $579 #
straight-curve $-1 -95.046351539653159 -8.4350674315505572 20.60568068433426 -1 0 0 I I #
edge $-1 $524 -0.38493956216649039 $412 18.024953549600585 $411 $580 forward 7 unknown #
vertex $-1 $523 $581 #
straight-curve $-1 -78.738975188451789 -8.4350674315505572 6.5410796426613445 0.70710677298230451 0 0.70710678939079041 I I #
point $-1 -64.674374473149399 -8.4350674315505572 20.605680684334256 #
point $-1 -78.738975188451803 -26.844960543317633 6.5410796426613302 #
straight-curve $-1 -78.738975188451803 0 20.605680684334256 0 -1 0 I I #
vertex $-1 $418 $582 #
point $-1 -67.918656735412881 -21.584991082812756 13.320896020922937 #
vertex $-1 $422 $583 #
point $-1 -67.918656735412881 -13.695036892055441 13.320896020922937 #
coedge $-1 $437 $436 $429 $534 forward $426 $-1 #
edge $-1 $535 38.34172179043631 $538 52.40632283210924 $533 $584 forward 7 unknown #
vertex $-1 $441 $585 #
straight-curve $-1 -95.046351539653159 42.312126383027568 20.60568068433426 -1 0 0 I I #
edge $-1 $538 -25.758536469455553 $438 -7.3486433576884771 $437 $586 forward 7 unknown #
vertex $-1 $537 $587 #
straight-curve $-1 -78.738975188451789 42.312126383027568 6.5410796426613445 0.70710677298230451 0 0.70710678939079041 I I #
point $-1 -64.674374473149399 42.312126383027568 20.605680684334256 #
point $-1 -78.738975188451803 23.902233271260492 6.5410796426613302 #
straight-curve $-1 -78.738975188451803 0 20.605680684334256 0 -1 0 I I #
vertex $-1 $444 $588 #
point $-1 -67.918656735412881 29.162202731765383 13.320896020922937 #
vertex $-1 $448 $589 #
point $-1 -67.918656735412881 37.052156922522691 13.320896020922937 #
coedge $-1 $463 $462 $455 $548 forward $452 $-1 #
edge $-1 $549 90.965046865914744 $552 104.52136292796236 $547 $590 forward 7 unknown #
vertex $-1 $467 $591 #
straight-curve $-1 12.430583836938702 -44.316738535635203 20.60568068433426 1 0 0 I I #
edge $-1 $552 -27.897415831707839 $464 -4.9412295761468883 $463 $592 forward 7 unknown #
vertex $-1 $551 $593 #
straight-curve $-1 -56.245973807941084 -44.316738535635203 88.156506104105119 -0.85716729658548041 0 0.51503808176128008 I I #
point $-1 56.17747691860238 -44.316738535635203 20.60568068433426 #
point $-1 78.738975188451803 -21.360552280074252 7.049364622286646 #
straight-curve $-1 78.738975188451803 0 20.605680684334256 0 1 0 I I #
vertex $-1 $470 $594 #
point $-1 68.173676372843232 -37.757828176903502 9.1934199170844 #
vertex $-1 $474 $595 #
point $-1 68.173676372843232 -27.919462638805953 9.1934199170844 #
edge $-1 $562 90.965046865914744 $565 104.52136292796236 $479 $596 forward 7 unknown #
vertex $-1 $493 $597 #
straight-curve $-1 12.430583836938702 21.360552280074259 20.60568068433426 1 0 0 I I #
edge $-1 $565 4.9412295761468918 $490 27.897415831707843 $489 $598 forward 7 unknown #
vertex $-1 $564 $599 #
straight-curve $-1 -56.245973807941084 21.360552280074259 88.156506104105119 -0.85716729658548041 0 0.51503808176128008 I I #
point $-1 56.17747691860238 21.360552280074259 20.60568068433426 #
point $-1 78.738975188451803 44.31673853563521 7.049364622286646 #
straight-curve $-1 78.738975188451803 0 20.605680684334256 0 1 0 I I #
vertex $-1 $496 $600 #
point $-1 68.173676372843232 27.91946263880596 9.1934199170844 #
vertex $-1 $500 $601 #
point $-1 68.173676372843232 37.757828176903509 9.1934199170844 #
straight-curve $-1 -78.738975188451803 50.747193814578132 0 0 0 -1 I I #
point $-1 -78.738975188451803 -50.747193814578132 -20.605680684334256 #
straight-curve $-1 -78.738975188451803 0 -20.605680684334256 0 1 0 I I #
point $-1 -78.738975188451803 50.747193814578132 -20.605680684334256 #
straight-curve $-1 -78.738975188451803 -8.4350674315505572 58.94740247477057 0 0 -1 I I #
point $-1 -78.738975188451803 -8.4350674315505572 20.605680684334256 #
straight-curve $-1 -78.738975188451803 -8.8200069937170475 6.5410796426613338 0 -1 0 I I #
point $-1 -78.738975188451803 -8.4350674315505572 6.5410796426613302 #
point $-1 -67.918656694391672 -21.584991082812756 9.7853621149902015 #
point $-1 -67.918656694391672 -13.695036892055441 9.7853621149902015 #
straight-curve $-1 -78.738975188451803 42.312126383027568 58.94740247477057 0 0 -1 I I #
point $-1 -78.738975188451803 42.312126383027568 20.605680684334256 #
straight-curve $-1 -78.738975188451803 16.553589913572015 6.5410796426613338 0 -1 0 I I #
point $-1 -78.738975188451803 42.312126383027568 6.5410796426613302 #
point $-1 -67.918656694391672 29.162202731765383 9.7853621149902015 #
point $-1 -67.918656694391672 37.052156922522691 9.7853621149902015 #
straight-curve $-1 78.738975188451803 -44.316738535635203 111.570727550249 0 0 -1 I I #
point $-1 78.738975188451803 -44.316738535635203 20.605680684334256 #
straight-curve $-1 78.738975188451803 -16.419322703927364 7.049364622286646 0 1 0 I I #
point $-1 78.738975188451803 -44.316738535635203 7.049364622286646 #
point $-1 64.057060237802958 -37.757828176903502 8.1670322726117988 #
point $-1 64.057060237802958 -27.919462638805953 8.1670322726117988 #
straight-curve $-1 78.738975188451803 21.360552280074259 111.570727550249 0 0 -1 I I #
point $-1 78.738975188451803 21.360552280074259 20.605680684334256 #
straight-curve $-1 78.738975188451803 16.419322703927367 7.049364622286646 0 1 0 I I #
point $-1 78.738975188451803 21.360552280074259 7.049364622286646 #
point $-1 64.057060237802958 27.91946263880596 8.1670322726117988 #
point $-1 64.057060237802958 37.757828176903509 8.1670322726117988 #
End-of-ACIS-data 