500 0 11 0           
7 Unknown 11 ACIS 5.0 NT 24 Thu Mar 25 17:43:29 1999 
-1 9.9999999999999995e-007 1e-010 
body $-1 $11 $-1 $12 #
body $-1 $13 $-1 $14 #
body $-1 $15 $-1 $16 #
body $-1 $17 $-1 $18 #
body $-1 $19 $-1 $20 #
body $-1 $21 $-1 $22 #
body $-1 $23 $-1 $24 #
body $-1 $25 $-1 $26 #
body $-1 $27 $-1 $28 #
body $-1 $29 $-1 $30 #
body $-1 $31 $-1 $32 #
lump $-1 $-1 $33 $0 #
transform $-1 1 0 0 0 1 0 0 0 1 44.941557054353467 29.529320023942521 7.3998581676869062 1 rotate no_reflect no_shear #
lump $-1 $-1 $34 $1 #
transform $-1 1 0 0 0 1 0 0 0 1 44.941557054353467 29.529320023942521 7.3998581676869062 1 rotate no_reflect no_shear #
lump $-1 $-1 $35 $2 #
transform $-1 1 0 0 0 1 0 0 0 1 44.941557054353467 29.529320023942521 7.3998581676869062 1 rotate no_reflect no_shear #
lump $-1 $-1 $36 $3 #
transform $-1 1 0 0 0 1 0 0 0 1 44.941557054353467 29.529320023942521 7.3998581676869062 1 rotate no_reflect no_shear #
lump $-1 $-1 $37 $4 #
transform $-1 1 0 0 0 1 0 0 0 1 44.941557054353467 29.529320023942521 7.3998581676869062 1 rotate no_reflect no_shear #
lump $-1 $-1 $38 $5 #
transform $-1 1 0 0 0 1 0 0 0 1 44.941557054353467 29.529320023942521 7.3998581676869062 1 rotate no_reflect no_shear #
lump $-1 $-1 $39 $6 #
transform $-1 1 0 0 0 1 0 0 0 1 44.941557054353467 29.529320023942521 7.3998581676869062 1 rotate no_reflect no_shear #
lump $-1 $-1 $40 $7 #
transform $-1 1 0 0 0 1 0 0 0 1 44.941557054353467 29.529320023942521 7.3998581676869062 1 rotate no_reflect no_shear #
lump $-1 $-1 $41 $8 #
transform $-1 1 0 0 0 1 0 0 0 1 44.941557054353467 29.529320023942521 7.3998581676869062 1 rotate no_reflect no_shear #
lump $-1 $-1 $42 $9 #
transform $-1 1 0 0 0 1 0 0 0 1 44.941557054353467 29.529320023942521 7.3998581676869062 1 rotate no_reflect no_shear #
lump $-1 $-1 $43 $10 #
transform $-1 1 0 0 0 1 0 0 0 1 44.941557054353467 29.529320023942521 7.3998581676869062 1 rotate no_reflect no_shear #
shell $-1 $-1 $-1 $44 $-1 $11 #
shell $-1 $-1 $-1 $45 $-1 $13 #
shell $-1 $-1 $-1 $46 $-1 $15 #
shell $-1 $-1 $-1 $47 $-1 $17 #
shell $-1 $-1 $-1 $48 $-1 $19 #
shell $-1 $-1 $-1 $49 $-1 $21 #
shell $-1 $-1 $-1 $50 $-1 $23 #
shell $-1 $-1 $-1 $51 $-1 $25 #
shell $-1 $-1 $-1 $52 $-1 $27 #
shell $-1 $-1 $-1 $53 $-1 $29 #
shell $-1 $-1 $-1 $54 $-1 $31 #
face $-1 $55 $56 $33 $-1 $57 forward single #
face $-1 $58 $59 $34 $-1 $60 reversed single #
face $-1 $61 $62 $35 $-1 $63 reversed single #
face $-1 $64 $65 $36 $-1 $66 reversed single #
face $-1 $67 $68 $37 $-1 $69 forward single #
face $-1 $70 $71 $38 $-1 $72 forward single #
face $-1 $73 $74 $39 $-1 $75 forward single #
face $-1 $76 $77 $40 $-1 $78 reversed single #
face $-1 $79 $80 $41 $-1 $81 forward single #
face $-1 $82 $83 $42 $-1 $84 forward single #
face $-1 $85 $86 $43 $-1 $87 forward single #
face $-1 $88 $89 $33 $-1 $90 reversed single #
loop $-1 $-1 $91 $44 #
plane-surface $-1 0 0 7.3998581676869062 0 0 1 1 0 0 forward_v I I I I #
face $-1 $92 $93 $34 $-1 $94 reversed single #
loop $-1 $-1 $95 $45 #
plane-surface $-1 0 -26.725698111391299 4.3998581676869062 0 0 1 1 0 0 forward_v I I I I #
face $-1 $96 $97 $35 $-1 $98 reversed single #
loop $-1 $-1 $99 $46 #
plane-surface $-1 0 26.725698111391299 4.3998581676869062 0 0 1 1 0 0 forward_v I I I I #
face $-1 $100 $101 $36 $-1 $102 reversed single #
loop $-1 $-1 $103 $47 #
plane-surface $-1 -116.7254044743929 -6.8970573707767038 58.108967318462057 0 1 0 -0.79863551827123203 0 0.60181501223851219 forward_v I I I I #
face $-1 $104 $105 $37 $-1 $106 forward single #
loop $-1 $107 $108 $48 #
cone-surface $-1 -43.267264209504688 -5.5176458966213637 5.4070015282716986 0.79863551827123203 0 -0.60181501223851219 0.3009075061192561 0 0.39931775913561601 1 I I 0 1 0.5 forward I I I I #
face $-1 $109 $110 $38 $-1 $111 forward single #
loop $-1 $112 $113 $49 #
cone-surface $-1 -43.267264209504688 -3.4485286853883537 5.4070015282716986 0.79863551827123203 0 -0.60181501223851219 0.3009075061192561 0 0.39931775913561601 1 I I 0 1 0.5 forward I I I I #
face $-1 $114 $115 $39 $-1 $116 forward single #
loop $-1 $117 $118 $50 #
cone-surface $-1 -43.267264209504688 -1.3794114741553436 5.4070015282716986 0.79863551827123203 0 -0.60181501223851219 0.3009075061192561 0 0.39931775913561601 1 I I 0 1 0.5 forward I I I I #
face $-1 $119 $120 $40 $-1 $121 reversed single #
loop $-1 $-1 $122 $51 #
plane-surface $-1 -116.7254044743929 17.025018828063374 58.108967318462057 0 1 0 -0.79863551827123203 0 0.60181501223851219 forward_v I I I I #
face $-1 $123 $124 $41 $-1 $125 forward single #
loop $-1 $126 $127 $52 #
cone-surface $-1 -43.267264209504688 18.40443030221871 5.4070015282716986 0.79863551827123203 0 -0.60181501223851219 0.3009075061192561 0 0.39931775913561601 1 I I 0 1 0.5 forward I I I I #
face $-1 $128 $129 $42 $-1 $130 forward single #
loop $-1 $131 $132 $53 #
cone-surface $-1 -43.267264209504688 20.473547513451724 5.4070015282716986 0.79863551827123203 0 -0.60181501223851219 0.3009075061192561 0 0.39931775913561601 1 I I 0 1 0.5 forward I I I I #
face $-1 $133 $134 $43 $-1 $135 forward single #
loop $-1 $136 $137 $54 #
cone-surface $-1 -43.267264209504688 22.542664724684737 5.4070015282716986 0.79863551827123203 0 -0.60181501223851219 0.3009075061192561 0 0.39931775913561601 1 I I 0 1 0.5 forward I I I I #
face $-1 $138 $139 $33 $-1 $140 reversed single #
loop $-1 $-1 $141 $55 #
plane-surface $-1 0 0 -7.3998581676869062 0 0 1 1 0 0 forward_v I I I I #
coedge $-1 $142 $143 $144 $145 forward $56 $-1 #
face $-1 $146 $147 $34 $-1 $148 reversed single #
loop $-1 $-1 $149 $58 #
plane-surface $-1 0 -23.922076198840077 5.8998581676869062 0 -1 0 0 0 -1 forward_v I I I I #
coedge $-1 $150 $151 $152 $153 reversed $59 $-1 #
face $-1 $154 $155 $35 $-1 $156 forward single #
loop $-1 $-1 $157 $61 #
plane-surface $-1 0 23.922076198840077 5.8998581676869062 0 1 0 0 0 1 forward_v I I I I #
coedge $-1 $158 $159 $160 $161 reversed $62 $-1 #
face $-1 $162 $163 $36 $-1 $164 reversed single #
loop $-1 $-1 $165 $64 #
plane-surface $-1 -44.941557054353453 -3.4485286853883537 4.0159599010950018 -0.79863551827123203 0 0.60181501223851219 0.60181501223851219 0 0.79863551827123203 forward_v I I I I #
coedge $-1 $166 $167 $168 $169 reversed $65 $-1 #
face $-1 $-1 $170 $37 $-1 $171 forward single #
loop $-1 $172 $173 $67 #
cone-surface $-1 -42.668287570801262 -5.5176458966213637 4.9556402690928145 0.79863551827123203 0 -0.60181501223851219 0.15045375305962805 0 0.19965887956780801 1 I I -0.70710678118654746 0.70710678118654746 0.25 forward I I I I #
loop $-1 $-1 $174 $48 #
coedge $-1 $108 $108 $175 $176 reversed $68 $-1 #
face $-1 $-1 $177 $38 $-1 $178 forward single #
loop $-1 $179 $180 $70 #
cone-surface $-1 -42.668287570801262 -3.4485286853883537 4.9556402690928145 0.79863551827123203 0 -0.60181501223851219 0.15045375305962805 0 0.19965887956780801 1 I I -0.70710678118654746 0.70710678118654746 0.25 forward I I I I #
loop $-1 $-1 $181 $49 #
coedge $-1 $113 $113 $182 $183 reversed $71 $-1 #
face $-1 $-1 $184 $39 $-1 $185 forward single #
loop $-1 $186 $187 $73 #
cone-surface $-1 -42.668287570801262 -1.3794114741553436 4.9556402690928145 0.79863551827123203 0 -0.60181501223851219 0.15045375305962805 0 0.19965887956780801 1 I I -0.70710678118654746 0.70710678118654746 0.25 forward I I I I #
loop $-1 $-1 $188 $50 #
coedge $-1 $118 $118 $189 $190 reversed $74 $-1 #
face $-1 $191 $192 $40 $-1 $193 forward single #
loop $-1 $-1 $194 $76 #
plane-surface $-1 -44.941557054353453 20.473547513451724 4.0159599010950018 -0.79863551827123203 0 0.60181501223851219 0.60181501223851219 0 0.79863551827123203 forward_v I I I I #
coedge $-1 $195 $196 $197 $198 reversed $77 $-1 #
face $-1 $-1 $199 $41 $-1 $200 forward single #
loop $-1 $201 $202 $79 #
cone-surface $-1 -42.668287570801262 18.40443030221871 4.9556402690928145 0.79863551827123203 0 -0.60181501223851219 0.15045375305962805 0 0.19965887956780801 1 I I -0.70710678118654746 0.70710678118654746 0.25 forward I I I I #
loop $-1 $-1 $203 $52 #
coedge $-1 $127 $127 $204 $205 reversed $80 $-1 #
face $-1 $-1 $206 $42 $-1 $207 forward single #
loop $-1 $208 $209 $82 #
cone-surface $-1 -42.668287570801262 20.473547513451724 4.9556402690928145 0.79863551827123203 0 -0.60181501223851219 0.15045375305962805 0 0.19965887956780801 1 I I -0.70710678118654746 0.70710678118654746 0.25 forward I I I I #
loop $-1 $-1 $210 $53 #
coedge $-1 $132 $132 $211 $212 reversed $83 $-1 #
face $-1 $-1 $213 $43 $-1 $214 forward single #
loop $-1 $215 $216 $85 #
cone-surface $-1 -42.668287570801262 22.542664724684737 4.9556402690928145 0.79863551827123203 0 -0.60181501223851219 0.15045375305962805 0 0.19965887956780801 1 I I -0.70710678118654746 0.70710678118654746 0.25 forward I I I I #
loop $-1 $-1 $217 $54 #
coedge $-1 $137 $137 $218 $219 reversed $86 $-1 #
face $-1 $220 $221 $33 $-1 $222 reversed single #
loop $-1 $-1 $223 $88 #
plane-surface $-1 0 -29.529320023942521 0 0 1 0 0 0 1 forward_v I I I I #
coedge $-1 $224 $225 $226 $227 forward $89 $-1 #
coedge $-1 $228 $91 $229 $230 forward $56 $-1 #
coedge $-1 $91 $228 $231 $232 forward $56 $-1 #
coedge $-1 $233 $234 $91 $145 reversed $235 $-1 #
edge $-1 $236 -29.529320023942521 $237 29.529320023942521 $144 $238 forward 7 unknown #
face $-1 $239 $240 $34 $-1 $241 reversed single #
loop $-1 $-1 $242 $92 #
plane-surface $-1 -44.941557054353467 0 0 1 0 0 0 0 -1 forward_v I I I I #
coedge $-1 $243 $244 $245 $246 reversed $93 $-1 #
coedge $-1 $247 $95 $248 $249 reversed $59 $-1 #
coedge $-1 $95 $247 $243 $250 forward $59 $-1 #
coedge $-1 $245 $251 $95 $153 forward $252 $-1 #
edge $-1 $253 -16.16647096824687 $254 -10.559227143144428 $152 $255 forward 7 unknown #
face $-1 $256 $257 $35 $-1 $258 reversed single #
loop $-1 $-1 $259 $96 #
plane-surface $-1 0 0 7.3998581676869062 0 0 1 1 0 0 forward_v I I I I #
coedge $-1 $260 $261 $262 $263 reversed $97 $-1 #
coedge $-1 $264 $99 $260 $265 forward $62 $-1 #
coedge $-1 $99 $264 $266 $267 reversed $62 $-1 #
coedge $-1 $268 $269 $99 $161 forward $257 $-1 #
edge $-1 $270 10.559227143144428 $271 16.16647096824687 $160 $272 forward 7 unknown #
face $-1 $273 $274 $36 $-1 $275 reversed single #
loop $-1 $-1 $276 $100 #
plane-surface $-1 -116.7254044743929 -3.5527136788005009e-015 58.108967318462057 0 -1 0 0.79863551827123203 0 -0.60181501223851219 forward_v I I I I #
coedge $-1 $277 $278 $279 $280 reversed $101 $-1 #
coedge $-1 $167 $103 $281 $282 reversed $65 $-1 #
coedge $-1 $103 $166 $277 $283 reversed $65 $-1 #
coedge $-1 $279 $284 $103 $169 forward $285 $-1 #
edge $-1 $286 13.421145182842984 $287 15.97109535426933 $168 $288 forward 7 unknown #
loop $-1 $-1 $175 $104 #
plane-surface $-1 -44.941557054353453 -3.4485286853883537 4.0159599010950018 -0.79863551827123203 0 0.60181501223851219 0.60181501223851219 0 0.79863551827123203 forward_v I I I I #
loop $-1 $-1 $289 $67 #
coedge $-1 $173 $173 $174 $290 reversed $105 $-1 #
coedge $-1 $174 $174 $173 $290 forward $107 $-1 #
coedge $-1 $175 $175 $108 $176 forward $170 $-1 #
edge $-1 $291 0 $291 6.2831853071796004 $175 $292 forward 7 unknown #
loop $-1 $-1 $182 $109 #
plane-surface $-1 -44.941557054353453 -3.4485286853883537 4.0159599010950018 -0.79863551827123203 0 0.60181501223851219 0.60181501223851219 0 0.79863551827123203 forward_v I I I I #
loop $-1 $-1 $293 $70 #
coedge $-1 $180 $180 $181 $294 reversed $110 $-1 #
coedge $-1 $181 $181 $180 $294 forward $112 $-1 #
coedge $-1 $182 $182 $113 $183 forward $177 $-1 #
edge $-1 $295 0 $295 6.2831853071796004 $182 $296 forward 7 unknown #
loop $-1 $-1 $189 $114 #
plane-surface $-1 -44.941557054353453 -3.4485286853883537 4.0159599010950018 -0.79863551827123203 0 0.60181501223851219 0.60181501223851219 0 0.79863551827123203 forward_v I I I I #
loop $-1 $-1 $297 $73 #
coedge $-1 $187 $187 $188 $298 reversed $115 $-1 #
coedge $-1 $188 $188 $187 $298 forward $117 $-1 #
coedge $-1 $189 $189 $118 $190 forward $184 $-1 #
edge $-1 $299 0 $299 6.2831853071796004 $189 $300 forward 7 unknown #
face $-1 $301 $302 $40 $-1 $303 forward single #
loop $-1 $-1 $197 $119 #
plane-surface $-1 0 0 7.3998581676869062 0 0 1 1 0 0 forward_v I I I I #
coedge $-1 $304 $305 $306 $307 reversed $120 $-1 #
coedge $-1 $196 $122 $308 $309 reversed $77 $-1 #
coedge $-1 $122 $195 $304 $310 reversed $77 $-1 #
coedge $-1 $306 $311 $122 $198 forward $192 $-1 #
edge $-1 $312 13.421145182842984 $313 15.97109535426933 $197 $314 forward 7 unknown #
loop $-1 $-1 $204 $123 #
plane-surface $-1 -44.941557054353453 20.473547513451724 4.0159599010950018 -0.79863551827123203 0 0.60181501223851219 0.60181501223851219 0 0.79863551827123203 forward_v I I I I #
loop $-1 $-1 $315 $79 #
coedge $-1 $202 $202 $203 $316 reversed $124 $-1 #
coedge $-1 $203 $203 $202 $316 forward $126 $-1 #
coedge $-1 $204 $204 $127 $205 forward $199 $-1 #
edge $-1 $317 0 $317 6.2831853071796004 $204 $318 forward 7 unknown #
loop $-1 $-1 $211 $128 #
plane-surface $-1 -44.941557054353453 20.473547513451724 4.0159599010950018 -0.79863551827123203 0 0.60181501223851219 0.60181501223851219 0 0.79863551827123203 forward_v I I I I #
loop $-1 $-1 $319 $82 #
coedge $-1 $209 $209 $210 $320 reversed $129 $-1 #
coedge $-1 $210 $210 $209 $320 forward $131 $-1 #
coedge $-1 $211 $211 $132 $212 forward $206 $-1 #
edge $-1 $321 0 $321 6.2831853071796004 $211 $322 forward 7 unknown #
loop $-1 $-1 $218 $133 #
plane-surface $-1 -44.941557054353453 20.473547513451724 4.0159599010950018 -0.79863551827123203 0 0.60181501223851219 0.60181501223851219 0 0.79863551827123203 forward_v I I I I #
loop $-1 $-1 $323 $85 #
coedge $-1 $216 $216 $217 $324 reversed $134 $-1 #
coedge $-1 $217 $217 $216 $324 forward $136 $-1 #
coedge $-1 $218 $218 $137 $219 forward $213 $-1 #
edge $-1 $325 0 $325 6.2831853071796004 $218 $326 forward 7 unknown #
face $-1 $327 $328 $33 $-1 $329 reversed single #
loop $-1 $-1 $330 $138 #
plane-surface $-1 -44.941557054353467 0 0 1 0 0 0 0 -1 forward_v I I I I #
coedge $-1 $331 $231 $332 $333 forward $139 $-1 #
coedge $-1 $334 $141 $331 $335 forward $89 $-1 #
coedge $-1 $141 $334 $336 $337 forward $89 $-1 #
coedge $-1 $234 $233 $141 $227 reversed $235 $-1 #
edge $-1 $338 -29.529320023942521 $339 29.529320023942521 $226 $340 forward 7 unknown #
coedge $-1 $143 $142 $341 $342 forward $56 $-1 #
coedge $-1 $343 $344 $142 $230 reversed $328 $-1 #
edge $-1 $237 -44.941557054353467 $345 44.941557054353467 $229 $346 forward 7 unknown #
coedge $-1 $223 $347 $143 $232 reversed $139 $-1 #
edge $-1 $348 -44.941557054353467 $236 44.941557054353467 $231 $349 forward 7 unknown #
coedge $-1 $226 $144 $347 $350 forward $235 $-1 #
coedge $-1 $144 $226 $343 $351 reversed $235 $-1 #
loop $-1 $-1 $233 $327 #
vertex $-1 $145 $352 #
vertex $-1 $145 $353 #
straight-curve $-1 44.941557054353467 0 7.3998581676869062 0 1 0 I I #
face $-1 $354 $355 $34 $-1 $356 forward single #
loop $-1 $-1 $248 $146 #
plane-surface $-1 0 -29.529320023942521 0 0 1 0 0 0 1 forward_v I I I I #
coedge $-1 $357 $358 $359 $360 forward $147 $-1 #
coedge $-1 $359 $149 $151 $250 reversed $93 $-1 #
coedge $-1 $149 $359 $361 $362 reversed $93 $-1 #
coedge $-1 $363 $152 $149 $246 forward $252 $-1 #
edge $-1 $254 1.4499290838434531 $364 4.4499290838434531 $245 $365 forward 7 unknown #
coedge $-1 $151 $150 $357 $366 reversed $59 $-1 #
coedge $-1 $367 $368 $150 $249 forward $240 $-1 #
edge $-1 $369 -44.941557054353467 $253 44.941557054353467 $248 $370 forward 7 unknown #
edge $-1 $371 -44.941557054353467 $254 44.941557054353467 $243 $372 forward 7 unknown #
coedge $-1 $152 $363 $367 $373 forward $252 $-1 #
loop $-1 $-1 $245 $354 #
vertex $-1 $249 $374 #
vertex $-1 $153 $375 #
straight-curve $-1 44.941557054353467 -13.36284905569565 4.3998581676869062 0 1 0 I I #
face $-1 $376 $377 $35 $-1 $378 reversed single #
loop $-1 $-1 $269 $154 #
plane-surface $-1 44.941557054353467 0 0 -1 0 0 0 0 1 forward_v I I I I #
coedge $-1 $379 $380 $261 $381 forward $155 $-1 #
coedge $-1 $382 $157 $158 $265 reversed $97 $-1 #
coedge $-1 $157 $382 $259 $381 reversed $97 $-1 #
coedge $-1 $383 $384 $157 $263 forward $377 $-1 #
edge $-1 $385 1.4499290838434531 $386 4.4499290838434531 $262 $387 forward 7 unknown #
coedge $-1 $159 $158 $384 $388 reversed $62 $-1 #
edge $-1 $270 -44.941557054353467 $385 44.941557054353467 $260 $389 forward 7 unknown #
coedge $-1 $390 $391 $159 $267 forward $392 $-1 #
edge $-1 $271 -44.941557054353467 $393 44.941557054353467 $266 $394 forward 7 unknown #
coedge $-1 $395 $160 $391 $396 reversed $257 $-1 #
coedge $-1 $160 $395 $382 $397 forward $257 $-1 #
vertex $-1 $161 $398 #
vertex $-1 $267 $399 #
straight-curve $-1 44.941557054353467 13.36284905569565 4.3998581676869062 0 1 0 I I #
face $-1 $-1 $285 $36 $-1 $400 forward single #
loop $-1 $-1 $401 $162 #
plane-surface $-1 -44.941557054353467 0 0 1 0 0 0 0 -1 forward_v I I I I #
coedge $-1 $402 $403 $404 $405 reversed $163 $-1 #
coedge $-1 $406 $165 $167 $283 forward $101 $-1 #
coedge $-1 $165 $406 $402 $407 forward $101 $-1 #
coedge $-1 $404 $168 $165 $280 forward $285 $-1 #
edge $-1 $287 -5.1727930280825269 $408 1.7242643426941733 $279 $409 forward 7 unknown #
coedge $-1 $410 $411 $166 $282 forward $274 $-1 #
edge $-1 $412 -25.038523758136044 $286 -21.654625491544124 $281 $413 forward 7 unknown #
edge $-1 $287 -4.2370996395412837 $412 2.3448253187574213e-014 $167 $414 forward 7 unknown #
coedge $-1 $168 $404 $410 $415 forward $285 $-1 #
loop $-1 $-1 $404 $273 #
vertex $-1 $282 $416 #
vertex $-1 $169 $417 #
straight-curve $-1 -58.362702237196451 -6.8970573707767038 7.399858167686908 1 0 0 I I #
coedge $-1 $289 $289 $-1 $418 reversed $172 $-1 #
edge $-1 $419 0 $419 6.2831853071796004 $173 $420 forward 7 unknown #
vertex $-1 $176 $421 #
ellipse-curve $-1 -43.666581968640294 -5.5176458966213637 5.707909034390946 -0.79863551827123203 0 0.60181501223851219 0.3009075061192561 0 0.39931775913561601 1 I I #
coedge $-1 $293 $293 $-1 $422 reversed $179 $-1 #
edge $-1 $423 0 $423 6.2831853071796004 $180 $424 forward 7 unknown #
vertex $-1 $183 $425 #
ellipse-curve $-1 -43.666581968640294 -3.4485286853883537 5.707909034390946 -0.79863551827123203 0 0.60181501223851219 0.3009075061192561 0 0.39931775913561601 1 I I #
coedge $-1 $297 $297 $-1 $426 reversed $186 $-1 #
edge $-1 $427 0 $427 6.2831853071796004 $187 $428 forward 7 unknown #
vertex $-1 $190 $429 #
ellipse-curve $-1 -43.666581968640294 -1.3794114741553436 5.707909034390946 -0.79863551827123203 0 0.60181501223851219 0.3009075061192561 0 0.39931775913561601 1 I I #
face $-1 $-1 $430 $40 $-1 $431 reversed single #
loop $-1 $-1 $432 $191 #
plane-surface $-1 0 23.922076198840077 5.8998581676869062 0 1 0 0 0 1 forward_v I I I I #
coedge $-1 $433 $194 $196 $310 forward $120 $-1 #
coedge $-1 $194 $433 $432 $434 forward $120 $-1 #
coedge $-1 $435 $197 $194 $307 forward $192 $-1 #
edge $-1 $313 6.7882450713375118 $436 13.685302442114212 $306 $437 forward 7 unknown #
coedge $-1 $438 $439 $195 $309 forward $430 $-1 #
edge $-1 $440 -25.038523758136044 $312 -21.654625491544124 $308 $441 forward 7 unknown #
edge $-1 $313 -4.2370996395412837 $440 2.3448253187574213e-014 $196 $442 forward 7 unknown #
coedge $-1 $197 $435 $438 $443 forward $192 $-1 #
vertex $-1 $309 $444 #
vertex $-1 $198 $445 #
straight-curve $-1 -58.362702237196451 17.025018828063374 7.399858167686908 1 0 0 I I #
coedge $-1 $315 $315 $-1 $446 reversed $201 $-1 #
edge $-1 $447 0 $447 6.2831853071796004 $202 $448 forward 7 unknown #
vertex $-1 $205 $449 #
ellipse-curve $-1 -43.666581968640294 18.40443030221871 5.707909034390946 -0.79863551827123203 0 0.60181501223851219 0.3009075061192561 0 0.39931775913561601 1 I I #
coedge $-1 $319 $319 $-1 $450 reversed $208 $-1 #
edge $-1 $451 0 $451 6.2831853071796004 $209 $452 forward 7 unknown #
vertex $-1 $212 $453 #
ellipse-curve $-1 -43.666581968640294 20.473547513451724 5.707909034390946 -0.79863551827123203 0 0.60181501223851219 0.3009075061192561 0 0.39931775913561601 1 I I #
coedge $-1 $323 $323 $-1 $454 reversed $215 $-1 #
edge $-1 $455 0 $455 6.2831853071796004 $216 $456 forward 7 unknown #
vertex $-1 $219 $457 #
ellipse-curve $-1 -43.666581968640294 22.542664724684737 5.707909034390946 -0.79863551827123203 0 0.60181501223851219 0.3009075061192561 0 0.39931775913561601 1 I I #
face $-1 $-1 $235 $33 $-1 $458 reversed single #
loop $-1 $-1 $343 $220 #
plane-surface $-1 0 29.529320023942521 0 0 -1 0 0 0 -1 forward_v I I I I #
coedge $-1 $459 $341 $344 $460 forward $221 $-1 #
coedge $-1 $347 $223 $224 $335 reversed $139 $-1 #
coedge $-1 $341 $459 $223 $333 reversed $221 $-1 #
edge $-1 $348 -7.3998581676869062 $461 7.3998581676869062 $332 $462 forward 7 unknown #
coedge $-1 $225 $224 $459 $463 forward $89 $-1 #
edge $-1 $339 -44.941557054353467 $461 44.941557054353467 $331 $464 forward 7 unknown #
coedge $-1 $344 $343 $225 $337 reversed $328 $-1 #
edge $-1 $465 -44.941557054353467 $338 44.941557054353467 $336 $466 forward 7 unknown #
vertex $-1 $227 $467 #
vertex $-1 $350 $468 #
straight-curve $-1 44.941557054353467 0 -7.3998581676869062 0 -1 0 I I #
coedge $-1 $330 $332 $228 $342 reversed $221 $-1 #
edge $-1 $345 -29.529320023942521 $348 29.529320023942521 $341 $469 forward 7 unknown #
coedge $-1 $336 $229 $234 $351 forward $328 $-1 #
coedge $-1 $229 $336 $330 $460 reversed $328 $-1 #
vertex $-1 $230 $470 #
straight-curve $-1 0 29.529320023942521 7.3998581676869062 -1 0 0 I I #
coedge $-1 $231 $331 $233 $350 reversed $139 $-1 #
vertex $-1 $342 $471 #
straight-curve $-1 0 -29.529320023942521 7.3998581676869062 1 0 0 I I #
edge $-1 $236 -7.3998581676869062 $339 7.3998581676869062 $233 $472 forward 7 unknown #
edge $-1 $237 -7.3998581676869062 $338 7.3998581676869062 $234 $473 forward 7 unknown #
point $-1 44.941557054353467 -29.529320023942521 7.3998581676869062 #
point $-1 44.941557054353467 29.529320023942521 7.3998581676869062 #
face $-1 $-1 $252 $34 $-1 $474 reversed single #
loop $-1 $-1 $361 $239 #
plane-surface $-1 0 0 7.3998581676869062 0 0 1 1 0 0 forward_v I I I I #
coedge $-1 $475 $242 $247 $366 forward $147 $-1 #
coedge $-1 $242 $475 $476 $477 reversed $147 $-1 #
coedge $-1 $244 $243 $242 $360 reversed $93 $-1 #
edge $-1 $478 -4.4499290838434531 $371 -1.4499290838434531 $242 $479 forward 7 unknown #
coedge $-1 $476 $480 $244 $362 forward $355 $-1 #
edge $-1 $364 -44.941557054353467 $478 44.941557054353467 $361 $481 forward 7 unknown #
coedge $-1 $251 $245 $480 $482 reversed $252 $-1 #
vertex $-1 $246 $483 #
straight-curve $-1 44.941557054353467 -23.922076198840077 2.9499290838434531 0 0 1 I I #
edge $-1 $371 10.559227143144428 $369 16.16647096824687 $357 $484 forward 7 unknown #
coedge $-1 $485 $248 $251 $373 reversed $240 $-1 #
coedge $-1 $248 $485 $475 $486 forward $240 $-1 #
vertex $-1 $249 $487 #
straight-curve $-1 0 -29.529320023942521 4.3998581676869062 1 0 0 I I #
vertex $-1 $366 $488 #
straight-curve $-1 0 -23.922076198840077 4.3998581676869062 1 0 0 I I #
edge $-1 $489 -7.3998581676869062 $253 -4.3998581676869062 $251 $490 forward 7 unknown #
point $-1 44.941557054353467 -29.529320023942521 4.3998581676869062 #
point $-1 44.941557054353467 -23.922076198840077 4.3998581676869062 #
face $-1 $-1 $392 $35 $-1 $491 reversed single #
loop $-1 $-1 $262 $256 #
plane-surface $-1 -44.941557054353467 0 0 1 0 0 0 0 -1 forward_v I I I I #
coedge $-1 $492 $259 $395 $493 forward $155 $-1 #
coedge $-1 $259 $492 $383 $494 forward $155 $-1 #
edge $-1 $386 -44.941557054353467 $495 44.941557054353467 $259 $496 forward 7 unknown #
coedge $-1 $261 $260 $269 $397 reversed $97 $-1 #
coedge $-1 $497 $262 $380 $494 reversed $377 $-1 #
coedge $-1 $262 $497 $264 $388 forward $377 $-1 #
vertex $-1 $388 $498 #
vertex $-1 $263 $499 #
straight-curve $-1 -44.941557054353467 23.922076198840077 2.9499290838434531 0 0 1 I I #
edge $-1 $393 -16.16647096824687 $385 -10.559227143144428 $384 $500 forward 7 unknown #
straight-curve $-1 0 23.922076198840077 4.3998581676869062 -1 0 0 I I #
coedge $-1 $501 $266 $497 $502 reversed $392 $-1 #
coedge $-1 $266 $501 $268 $396 forward $392 $-1 #
loop $-1 $-1 $266 $376 #
vertex $-1 $267 $503 #
straight-curve $-1 0 29.529320023942521 4.3998581676869062 -1 0 0 I I #
coedge $-1 $269 $268 $379 $493 reversed $257 $-1 #
edge $-1 $504 -7.3998581676869062 $271 -4.3998581676869062 $268 $505 forward 7 unknown #
edge $-1 $495 -4.4499290838434531 $270 -1.4499290838434531 $269 $506 forward 7 unknown #
point $-1 44.941557054353467 23.922076198840077 4.3998581676869062 #
point $-1 44.941557054353467 29.529320023942521 4.3998581676869062 #
plane-surface $-1 0 0 7.3998581676869062 0 0 1 1 0 0 forward_v I I I I #
coedge $-1 $411 $410 $403 $507 forward $274 $-1 #
coedge $-1 $403 $276 $278 $407 reversed $163 $-1 #
coedge $-1 $276 $402 $401 $507 reversed $163 $-1 #
coedge $-1 $284 $279 $276 $405 forward $285 $-1 #
edge $-1 $408 -15.97109535426933 $508 -13.421145182842984 $404 $509 forward 7 unknown #
coedge $-1 $278 $277 $411 $510 reversed $101 $-1 #
edge $-1 $511 -2.3448253187574213e-014 $408 4.2370996395412837 $402 $512 forward 7 unknown #
vertex $-1 $280 $513 #
straight-curve $-1 -42.391606882927107 -1.7242643426941768 7.399858167686908 0 1 0 I I #
coedge $-1 $401 $281 $284 $415 reversed $274 $-1 #
coedge $-1 $281 $401 $406 $510 forward $274 $-1 #
vertex $-1 $282 $514 #
straight-curve $-1 -44.941557054353467 -6.8970573707767038 29.054483659231028 0 0 1 I I #
straight-curve $-1 -44.941557054353453 -6.8970573707767038 4.0159599010950018 -0.60181501223851219 0 -0.79863551827123203 I I #
edge $-1 $508 3.5527136788005009e-015 $286 6.8970573707767038 $410 $515 forward 7 unknown #
point $-1 -44.941557054353467 -6.8970573707767038 7.3998581676869062 #
point $-1 -42.391606882927121 -6.8970573707767038 7.3998581676869062 #
edge $-1 $516 1 $516 0 $289 $-1 forward 7 unknown #
vertex $-1 $290 $517 #
ellipse-curve $-1 -42.867946450369068 -5.5176458966213637 5.1060940221524422 -0.79863551827123203 0 0.60181501223851219 0.3009075061192561 0 0.39931775913561601 1 I I #
point $-1 -43.365674462521042 -5.5176458966213637 6.1072267935265705 #
edge $-1 $518 1 $518 0 $293 $-1 forward 7 unknown #
vertex $-1 $294 $519 #
ellipse-curve $-1 -42.867946450369068 -3.4485286853883537 5.1060940221524422 -0.79863551827123203 0 0.60181501223851219 0.3009075061192561 0 0.39931775913561601 1 I I #
point $-1 -43.365674462521042 -3.4485286853883537 6.1072267935265705 #
edge $-1 $520 1 $520 0 $297 $-1 forward 7 unknown #
vertex $-1 $298 $521 #
ellipse-curve $-1 -42.867946450369068 -1.3794114741553436 5.1060940221524422 -0.79863551827123203 0 0.60181501223851219 0.3009075061192561 0 0.39931775913561601 1 I I #
point $-1 -43.365674462521042 -1.3794114741553436 6.1072267935265705 #
loop $-1 $-1 $308 $301 #
plane-surface $-1 -44.941557054353467 0 0 1 0 0 0 0 -1 forward_v I I I I #
coedge $-1 $522 $523 $305 $434 reversed $302 $-1 #
coedge $-1 $305 $304 $439 $524 reversed $120 $-1 #
edge $-1 $525 -2.3448253187574213e-014 $436 4.2370996395412837 $432 $526 forward 7 unknown #
coedge $-1 $311 $306 $523 $527 forward $192 $-1 #
vertex $-1 $527 $528 #
straight-curve $-1 -42.391606882927107 10.236773756725862 7.399858167686908 0 1 0 I I #
coedge $-1 $529 $308 $311 $443 reversed $430 $-1 #
coedge $-1 $308 $529 $433 $524 forward $430 $-1 #
vertex $-1 $309 $530 #
straight-curve $-1 -44.941557054353467 17.025018828063374 29.054483659231028 0 0 1 I I #
straight-curve $-1 -44.941557054353453 17.025018828063374 4.0159599010950018 -0.60181501223851219 0 -0.79863551827123203 I I #
edge $-1 $531 -23.922076198840077 $312 -17.025018828063374 $438 $532 forward 7 unknown #
point $-1 -44.941557054353467 17.025018828063374 7.3998581676869062 #
point $-1 -42.391606882927121 17.025018828063374 7.3998581676869062 #
edge $-1 $533 1 $533 0 $315 $-1 forward 7 unknown #
vertex $-1 $316 $534 #
ellipse-curve $-1 -42.867946450369068 18.40443030221871 5.1060940221524422 -0.79863551827123203 0 0.60181501223851219 0.3009075061192561 0 0.39931775913561601 1 I I #
point $-1 -43.365674462521042 18.40443030221871 6.1072267935265705 #
edge $-1 $535 1 $535 0 $319 $-1 forward 7 unknown #
vertex $-1 $320 $536 #
ellipse-curve $-1 -42.867946450369068 20.473547513451724 5.1060940221524422 -0.79863551827123203 0 0.60181501223851219 0.3009075061192561 0 0.39931775913561601 1 I I #
point $-1 -43.365674462521042 20.473547513451724 6.1072267935265705 #
edge $-1 $537 1 $537 0 $323 $-1 forward 7 unknown #
vertex $-1 $324 $538 #
ellipse-curve $-1 -42.867946450369068 22.542664724684737 5.1060940221524422 -0.79863551827123203 0 0.60181501223851219 0.3009075061192561 0 0.39931775913561601 1 I I #
point $-1 -43.365674462521042 22.542664724684737 6.1072267935265705 #
plane-surface $-1 44.941557054353467 0 0 -1 0 0 0 0 1 forward_v I I I I #
coedge $-1 $332 $330 $334 $463 reversed $221 $-1 #
edge $-1 $345 -7.3998581676869062 $465 7.3998581676869062 $344 $539 forward 7 unknown #
vertex $-1 $463 $540 #
straight-curve $-1 -44.941557054353467 -29.529320023942521 0 0 0 -1 I I #
edge $-1 $461 -29.529320023942521 $465 29.529320023942521 $459 $541 forward 7 unknown #
straight-curve $-1 0 -29.529320023942521 -7.3998581676869062 -1 0 0 I I #
vertex $-1 $337 $542 #
straight-curve $-1 0 29.529320023942521 -7.3998581676869062 1 0 0 I I #
point $-1 44.941557054353467 29.529320023942521 -7.3998581676869062 #
point $-1 44.941557054353467 -29.529320023942521 -7.3998581676869062 #
straight-curve $-1 -44.941557054353467 0 7.3998581676869062 0 -1 0 I I #
point $-1 -44.941557054353467 29.529320023942521 7.3998581676869062 #
point $-1 -44.941557054353467 -29.529320023942521 7.3998581676869062 #
straight-curve $-1 44.941557054353467 -29.529320023942521 0 0 0 -1 I I #
straight-curve $-1 44.941557054353467 29.529320023942521 0 0 0 -1 I I #
plane-surface $-1 44.941557054353467 0 0 -1 0 0 0 0 1 forward_v I I I I #
coedge $-1 $358 $357 $368 $486 reversed $147 $-1 #
coedge $-1 $543 $361 $358 $477 forward $355 $-1 #
edge $-1 $478 23.922076198840077 $544 29.529320023942521 $358 $545 forward 7 unknown #
vertex $-1 $477 $546 #
straight-curve $-1 -44.941557054353467 -23.922076198840077 2.9499290838434531 0 0 -1 I I #
coedge $-1 $361 $543 $363 $482 forward $355 $-1 #
straight-curve $-1 0 -23.922076198840077 7.3998581676869062 -1 0 0 I I #
edge $-1 $489 -29.529320023942521 $364 -23.922076198840077 $363 $547 forward 7 unknown #
point $-1 44.941557054353467 -23.922076198840077 7.3998581676869062 #
straight-curve $-1 -44.941557054353467 -13.36284905569565 4.3998581676869062 0 -1 0 I I #
coedge $-1 $368 $367 $543 $548 reversed $240 $-1 #
edge $-1 $544 -7.3998581676869062 $369 -4.3998581676869062 $475 $549 forward 7 unknown #
point $-1 -44.941557054353467 -29.529320023942521 4.3998581676869062 #
point $-1 -44.941557054353467 -23.922076198840077 4.3998581676869062 #
vertex $-1 $482 $550 #
straight-curve $-1 44.941557054353467 -29.529320023942521 0 0 0 -1 I I #
plane-surface $-1 0 29.529320023942521 0 0 -1 0 0 0 -1 forward_v I I I I #
coedge $-1 $380 $379 $501 $551 forward $155 $-1 #
edge $-1 $495 23.922076198840077 $504 29.529320023942521 $395 $552 forward 7 unknown #
edge $-1 $553 -29.529320023942521 $386 -23.922076198840077 $383 $554 forward 7 unknown #
vertex $-1 $493 $555 #
straight-curve $-1 0 23.922076198840077 7.3998581676869062 1 0 0 I I #
coedge $-1 $384 $383 $390 $502 forward $377 $-1 #
point $-1 -44.941557054353467 23.922076198840077 4.3998581676869062 #
point $-1 -44.941557054353467 23.922076198840077 7.3998581676869062 #
straight-curve $-1 -44.941557054353467 13.36284905569565 4.3998581676869062 0 -1 0 I I #
coedge $-1 $391 $390 $492 $551 reversed $392 $-1 #
edge $-1 $553 -7.3998581676869062 $393 -4.3998581676869062 $390 $556 forward 7 unknown #
point $-1 -44.941557054353467 29.529320023942521 4.3998581676869062 #
vertex $-1 $493 $557 #
straight-curve $-1 44.941557054353467 29.529320023942521 0 0 0 -1 I I #
straight-curve $-1 44.941557054353467 23.922076198840077 2.9499290838434531 0 0 -1 I I #
edge $-1 $508 21.654625491544124 $511 25.038523758136044 $401 $558 forward 7 unknown #
vertex $-1 $415 $559 #
straight-curve $-1 -58.362702237196451 -3.5527136788005009e-015 7.399858167686908 -1 0 0 I I #
edge $-1 $511 -1.7242643426941733 $412 5.1727930280825269 $411 $560 forward 7 unknown #
vertex $-1 $510 $561 #
straight-curve $-1 -44.941557054353453 -3.5527136788005009e-015 4.0159599010950018 0.60181501223851219 0 0.79863551827123203 I I #
point $-1 -42.391606882927121 -3.5527136788005009e-015 7.3998581676869062 #
point $-1 -44.941557054353467 -6.8970573707767038 4.0159599010949831 #
straight-curve $-1 -44.941557054353467 0 7.3998581676869062 0 -1 0 I I #
vertex $-1 $418 $562 #
point $-1 -42.567038944249816 -5.5176458966213637 5.5054117812880587 #
vertex $-1 $422 $563 #
point $-1 -42.567038944249816 -3.4485286853883537 5.5054117812880587 #
vertex $-1 $426 $564 #
point $-1 -42.567038944249816 -1.3794114741553436 5.5054117812880587 #
coedge $-1 $523 $432 $529 $565 reversed $302 $-1 #
coedge $-1 $432 $522 $435 $527 reversed $302 $-1 #
edge $-1 $525 -13.685302442114212 $440 -6.7882450713375118 $439 $566 forward 7 unknown #
vertex $-1 $565 $567 #
straight-curve $-1 -44.941557054353453 23.922076198840074 4.0159599010950018 0.60181501223851219 0 0.79863551827123203 I I #
edge $-1 $436 42.391606882927121 $531 44.941557054353467 $435 $568 forward 7 unknown #
point $-1 -42.391606882927121 23.922076198840074 7.3998581676869062 #
coedge $-1 $439 $438 $522 $565 forward $430 $-1 #
point $-1 -44.941557054353467 17.025018828063374 4.0159599010949831 #
vertex $-1 $443 $569 #
straight-curve $-1 -44.941557054353467 0 7.3998581676869062 0 -1 0 I I #
vertex $-1 $446 $570 #
point $-1 -42.567038944249816 18.40443030221871 5.5054117812880587 #
vertex $-1 $450 $571 #
point $-1 -42.567038944249816 20.473547513451724 5.5054117812880587 #
vertex $-1 $454 $572 #
point $-1 -42.567038944249816 22.542664724684737 5.5054117812880587 #
straight-curve $-1 -44.941557054353467 29.529320023942521 0 0 0 -1 I I #
point $-1 -44.941557054353467 -29.529320023942521 -7.3998581676869062 #
straight-curve $-1 -44.941557054353467 0 -7.3998581676869062 0 1 0 I I #
point $-1 -44.941557054353467 29.529320023942521 -7.3998581676869062 #
coedge $-1 $480 $476 $485 $548 forward $355 $-1 #
vertex $-1 $477 $573 #
straight-curve $-1 -44.941557054353467 0 7.3998581676869062 0 -1 0 I I #
point $-1 -44.941557054353467 -23.922076198840077 7.3998581676869062 #
straight-curve $-1 44.941557054353467 0 7.3998581676869062 0 1 0 I I #
edge $-1 $544 -44.941557054353467 $489 44.941557054353467 $485 $574 forward 7 unknown #
straight-curve $-1 -44.941557054353467 -29.529320023942521 0 0 0 -1 I I #
point $-1 44.941557054353467 -29.529320023942521 7.3998581676869062 #
edge $-1 $504 -44.941557054353467 $553 44.941557054353467 $501 $575 forward 7 unknown #
straight-curve $-1 44.941557054353467 0 7.3998581676869062 0 1 0 I I #
vertex $-1 $551 $576 #
straight-curve $-1 -44.941557054353467 0 7.3998581676869062 0 -1 0 I I #
point $-1 44.941557054353467 23.922076198840077 7.3998581676869062 #
straight-curve $-1 -44.941557054353467 29.529320023942521 0 0 0 -1 I I #
point $-1 44.941557054353467 29.529320023942521 7.3998581676869062 #
straight-curve $-1 -44.941557054353467 -3.5527136788005009e-015 29.054483659231028 0 0 -1 I I #
point $-1 -44.941557054353467 -3.5527136788005009e-015 7.3998581676869062 #
straight-curve $-1 -44.941557054353467 -1.7242643426941768 4.0159599010949787 0 -1 0 I I #
point $-1 -44.941557054353467 -3.5527136788005009e-015 4.0159599010949831 #
point $-1 -42.468628691233455 -5.5176458966213637 4.8051865160331868 #
point $-1 -42.468628691233455 -3.4485286853883537 4.8051865160331868 #
point $-1 -42.468628691233455 -1.3794114741553436 4.8051865160331868 #
edge $-1 $531 21.654625491544124 $525 25.038523758136044 $529 $577 forward 7 unknown #
straight-curve $-1 -44.941557054353467 10.236773756725862 4.0159599010949787 0 -1 0 I I #
point $-1 -44.941557054353467 23.922076198840074 4.0159599010949831 #
straight-curve $-1 0 23.922076198840077 7.3998581676869062 -1 0 0 I I #
point $-1 -44.941557054353467 23.922076198840077 7.3998581676869062 #
point $-1 -42.468628691233455 18.40443030221871 4.8051865160331868 #
point $-1 -42.468628691233455 20.473547513451724 4.8051865160331868 #
point $-1 -42.468628691233455 22.542664724684737 4.8051865160331868 #
point $-1 -44.941557054353467 -29.529320023942521 7.3998581676869062 #
straight-curve $-1 0 -29.529320023942521 7.3998581676869062 1 0 0 I I #
straight-curve $-1 0 29.529320023942521 7.3998581676869062 -1 0 0 I I #
point $-1 -44.941557054353467 29.529320023942521 7.3998581676869062 #
straight-curve $-1 -44.941557054353467 23.922076198840074 29.054483659231028 0 0 -1 I I #
End-of-ACIS-data 