500 0 14 0           
7 Unknown 11 ACIS 5.0 NT 24 Fri Mar 26 18:51:41 1999 
-1 9.9999999999999995e-007 1e-010 
body $-1 $14 $-1 $15 #
body $-1 $16 $-1 $17 #
body $-1 $18 $-1 $19 #
body $-1 $20 $-1 $21 #
body $-1 $22 $-1 $23 #
body $-1 $24 $-1 $25 #
body $-1 $26 $-1 $27 #
body $-1 $28 $-1 $29 #
body $-1 $30 $-1 $31 #
body $-1 $32 $-1 $33 #
body $-1 $34 $-1 $35 #
body $-1 $36 $-1 $37 #
body $-1 $38 $-1 $39 #
body $-1 $40 $-1 $41 #
lump $-1 $-1 $42 $0 #
transform $-1 1 0 0 0 1 0 0 0 1 65.834528641621148 36.590231080347536 9.3491742202213715 1 rotate no_reflect no_shear #
lump $-1 $-1 $43 $1 #
transform $-1 1 0 0 0 1 0 0 0 1 65.834528641621148 3.7549629934934945 2.0109840638917889 1 rotate no_reflect no_shear #
lump $-1 $-1 $44 $2 #
transform $-1 0.48480960649040278 0 0.87461971476443456 0 1 0 -0.87461971476443456 0 0.48480960649040278 -115.16035332437139 30.095802175081552 73.233977575409568 1 rotate no_reflect no_shear #
lump $-1 $-1 $45 $3 #
transform $-1 0.48480960649040278 0 0.87461971476443456 0 -1 0 0.87461971476443456 0 -0.48480960649040278 6.0585588263378671 25.537304563690192 12.119204077843525 1 rotate no_reflect no_shear #
lump $-1 $-1 $46 $4 #
transform $-1 0.48480960649040278 0 0.87461971476443456 0 -1 0 0.87461971476443456 0 -0.48480960649040278 6.0585588263378671 30.095802175081552 12.119204077843525 1 rotate no_reflect no_shear #
lump $-1 $-1 $47 $5 #
transform $-1 0.48480960649040278 0 0.87461971476443456 0 -1 0 0.87461971476443456 0 -0.48480960649040278 6.0585588263378671 34.654299786472912 12.119204077843525 1 rotate no_reflect no_shear #
lump $-1 $-1 $48 $6 #
transform $-1 0.48480960649040278 0 0.87461971476443456 0 1 0 -0.87461971476443456 0 0.48480960649040278 -115.16035332437139 62.931070261935595 73.233977575409568 1 rotate no_reflect no_shear #
lump $-1 $-1 $49 $7 #
transform $-1 0.48480960649040278 0 0.87461971476443456 0 -1 0 0.87461971476443456 0 -0.48480960649040278 6.0585588263378671 58.372572650544235 12.119204077843525 1 rotate no_reflect no_shear #
lump $-1 $-1 $50 $8 #
transform $-1 0.48480960649040278 0 0.87461971476443456 0 -1 0 0.87461971476443456 0 -0.48480960649040278 6.0585588263378671 62.931070261935595 12.119204077843525 1 rotate no_reflect no_shear #
lump $-1 $-1 $51 $9 #
transform $-1 0.48480960649040278 0 0.87461971476443456 0 -1 0 0.87461971476443456 0 -0.48480960649040278 6.0585588263378671 67.489567873326962 12.119204077843525 1 rotate no_reflect no_shear #
lump $-1 $-1 $52 $10 #
transform $-1 0.84804809178421925 0 -0.52991927123019833 0 1 0 0.52991927123019833 0 0.84804809178421925 89.781335386264587 28.098001294803296 195.23470469163428 1 rotate no_reflect no_shear #
lump $-1 $-1 $53 $11 #
transform $-1 0.84804809178421925 0 -0.52991927123019833 0 -1 0 -0.52991927123019833 0 -0.84804809178421925 126.12041457506255 28.098001294803296 13.642746244118193 1 rotate no_reflect no_shear #
lump $-1 $-1 $54 $12 #
transform $-1 0.84804809178421925 0 -0.52991927123019833 0 1 0 0.52991927123019833 0 0.84804809178421925 89.781335386264587 52.592386852878768 195.23470469163428 1 rotate no_reflect no_shear #
lump $-1 $-1 $55 $13 #
transform $-1 0.84804809178421925 0 -0.52991927123019833 0 -1 0 -0.52991927123019833 0 -0.84804809178421925 126.12041457506255 52.592386852878768 13.642746244118193 1 rotate no_reflect no_shear #
shell $-1 $-1 $-1 $56 $-1 $14 #
shell $-1 $-1 $-1 $57 $-1 $16 #
shell $-1 $-1 $-1 $58 $-1 $18 #
shell $-1 $-1 $-1 $59 $-1 $20 #
shell $-1 $-1 $-1 $60 $-1 $22 #
shell $-1 $-1 $-1 $61 $-1 $24 #
shell $-1 $-1 $-1 $62 $-1 $26 #
shell $-1 $-1 $-1 $63 $-1 $28 #
shell $-1 $-1 $-1 $64 $-1 $30 #
shell $-1 $-1 $-1 $65 $-1 $32 #
shell $-1 $-1 $-1 $66 $-1 $34 #
shell $-1 $-1 $-1 $67 $-1 $36 #
shell $-1 $-1 $-1 $68 $-1 $38 #
shell $-1 $-1 $-1 $69 $-1 $40 #
face $-1 $70 $71 $42 $-1 $72 forward single #
face $-1 $73 $74 $43 $-1 $75 forward single #
face $-1 $76 $77 $44 $-1 $78 forward single #
face $-1 $79 $80 $45 $-1 $81 forward single #
face $-1 $82 $83 $46 $-1 $84 forward single #
face $-1 $85 $86 $47 $-1 $87 forward single #
face $-1 $88 $89 $48 $-1 $90 forward single #
face $-1 $91 $92 $49 $-1 $93 forward single #
face $-1 $94 $95 $50 $-1 $96 forward single #
face $-1 $97 $98 $51 $-1 $99 forward single #
face $-1 $100 $101 $52 $-1 $102 forward single #
face $-1 $103 $104 $53 $-1 $105 forward single #
face $-1 $106 $107 $54 $-1 $108 forward single #
face $-1 $109 $110 $55 $-1 $111 forward single #
face $-1 $112 $113 $42 $-1 $114 reversed single #
loop $-1 $-1 $115 $56 #
plane-surface $-1 0 0 9.3491742202213715 0 0 1 1 0 0 forward_v I I I I #
face $-1 $116 $117 $43 $-1 $118 reversed single #
loop $-1 $-1 $119 $57 #
plane-surface $-1 0 0 2.0109840638917889 0 0 1 1 0 0 forward_v I I I I #
face $-1 $120 $121 $44 $-1 $122 reversed single #
loop $-1 $-1 $123 $58 #
plane-surface $-1 0 0 131.6690572832423 0 0 1 1 0 0 forward_v I I I I #
face $-1 $124 $125 $45 $-1 $126 forward single #
loop $-1 $127 $128 $59 #
cone-surface $-1 0 0 -2.2402111880855742 0 0 1 1 0 0 1 I I 0 1 1 forward I I I I #
face $-1 $129 $130 $46 $-1 $131 forward single #
loop $-1 $132 $133 $60 #
cone-surface $-1 0 0 -2.2402111880855742 0 0 1 1 0 0 1 I I 0 1 1 forward I I I I #
face $-1 $134 $135 $47 $-1 $136 forward single #
loop $-1 $137 $138 $61 #
cone-surface $-1 0 0 -2.2402111880855742 0 0 1 1 0 0 1 I I 0 1 1 forward I I I I #
face $-1 $139 $140 $48 $-1 $141 reversed single #
loop $-1 $-1 $142 $62 #
plane-surface $-1 0 0 131.6690572832423 0 0 1 1 0 0 forward_v I I I I #
face $-1 $143 $144 $49 $-1 $145 forward single #
loop $-1 $146 $147 $63 #
cone-surface $-1 0 0 -2.2402111880855742 0 0 1 1 0 0 1 I I 0 1 1 forward I I I I #
face $-1 $148 $149 $50 $-1 $150 forward single #
loop $-1 $151 $152 $64 #
cone-surface $-1 0 0 -2.2402111880855742 0 0 1 1 0 0 1 I I 0 1 1 forward I I I I #
face $-1 $153 $154 $51 $-1 $155 forward single #
loop $-1 $156 $157 $65 #
cone-surface $-1 0 0 -2.2402111880855742 0 0 1 1 0 0 1 I I 0 1 1 forward I I I I #
face $-1 $158 $159 $52 $-1 $160 reversed single #
loop $-1 $-1 $161 $66 #
plane-surface $-1 0 0 131.6690572832423 0 0 1 1 0 0 forward_v I I I I #
face $-1 $162 $163 $53 $-1 $164 forward single #
loop $-1 $165 $166 $67 #
cone-surface $-1 0 0 -2.0364391003143414 0 0 1 2 0 0 1 I I 0 1 2 forward I I I I #
face $-1 $167 $168 $54 $-1 $169 reversed single #
loop $-1 $-1 $170 $68 #
plane-surface $-1 0 0 131.6690572832423 0 0 1 1 0 0 forward_v I I I I #
face $-1 $171 $172 $55 $-1 $173 forward single #
loop $-1 $174 $175 $69 #
cone-surface $-1 0 0 -2.0364391003143414 0 0 1 2 0 0 1 I I 0 1 2 forward I I I I #
face $-1 $176 $177 $42 $-1 $178 reversed single #
loop $-1 $-1 $179 $70 #
plane-surface $-1 0 0 -9.3491742202213715 0 0 1 1 0 0 forward_v I I I I #
coedge $-1 $180 $181 $182 $183 forward $71 $-1 #
face $-1 $184 $185 $43 $-1 $186 reversed single #
loop $-1 $-1 $187 $73 #
plane-surface $-1 0 0 -2.0109840638917889 0 0 1 1 0 0 forward_v I I I I #
coedge $-1 $188 $189 $190 $191 forward $74 $-1 #
face $-1 $192 $193 $44 $-1 $194 reversed single #
loop $-1 $-1 $195 $76 #
plane-surface $-1 0 0 -131.6690572832423 0 0 1 1 0 0 forward_v I I I I #
coedge $-1 $196 $197 $198 $199 forward $77 $-1 #
face $-1 $-1 $200 $45 $-1 $201 forward single #
loop $-1 $-1 $202 $79 #
plane-surface $-1 0 0 -3.9804223761711484 0 0 -1 -1 0 0 forward_v I I I I #
loop $-1 $-1 $203 $59 #
coedge $-1 $128 $128 $202 $204 reversed $80 $-1 #
face $-1 $-1 $205 $46 $-1 $206 forward single #
loop $-1 $-1 $207 $82 #
plane-surface $-1 0 0 -3.9804223761711484 0 0 -1 -1 0 0 forward_v I I I I #
loop $-1 $-1 $208 $60 #
coedge $-1 $133 $133 $207 $209 reversed $83 $-1 #
face $-1 $-1 $210 $47 $-1 $211 forward single #
loop $-1 $-1 $212 $85 #
plane-surface $-1 0 0 -3.9804223761711484 0 0 -1 -1 0 0 forward_v I I I I #
loop $-1 $-1 $213 $61 #
coedge $-1 $138 $138 $212 $214 reversed $86 $-1 #
face $-1 $215 $216 $48 $-1 $217 reversed single #
loop $-1 $-1 $218 $88 #
plane-surface $-1 0 0 -131.6690572832423 0 0 1 1 0 0 forward_v I I I I #
coedge $-1 $219 $220 $221 $222 forward $89 $-1 #
face $-1 $-1 $223 $49 $-1 $224 forward single #
loop $-1 $-1 $225 $91 #
plane-surface $-1 0 0 -3.9804223761711484 0 0 -1 -1 0 0 forward_v I I I I #
loop $-1 $-1 $226 $63 #
coedge $-1 $147 $147 $225 $227 reversed $92 $-1 #
face $-1 $-1 $228 $50 $-1 $229 forward single #
loop $-1 $-1 $230 $94 #
plane-surface $-1 0 0 -3.9804223761711484 0 0 -1 -1 0 0 forward_v I I I I #
loop $-1 $-1 $231 $64 #
coedge $-1 $152 $152 $230 $232 reversed $95 $-1 #
face $-1 $-1 $233 $51 $-1 $234 forward single #
loop $-1 $-1 $235 $97 #
plane-surface $-1 0 0 -3.9804223761711484 0 0 -1 -1 0 0 forward_v I I I I #
loop $-1 $-1 $236 $65 #
coedge $-1 $157 $157 $235 $237 reversed $98 $-1 #
face $-1 $238 $239 $52 $-1 $240 reversed single #
loop $-1 $-1 $241 $100 #
plane-surface $-1 0 0 -131.6690572832423 0 0 1 1 0 0 forward_v I I I I #
coedge $-1 $242 $243 $244 $245 forward $101 $-1 #
face $-1 $-1 $246 $53 $-1 $247 forward single #
loop $-1 $-1 $248 $103 #
plane-surface $-1 0 0 -3.0728782006286819 0 0 -1 -1 0 0 forward_v I I I I #
loop $-1 $-1 $249 $67 #
coedge $-1 $166 $166 $248 $250 reversed $104 $-1 #
face $-1 $251 $252 $54 $-1 $253 reversed single #
loop $-1 $-1 $254 $106 #
plane-surface $-1 0 0 -131.6690572832423 0 0 1 1 0 0 forward_v I I I I #
coedge $-1 $255 $256 $257 $258 forward $107 $-1 #
face $-1 $-1 $259 $55 $-1 $260 forward single #
loop $-1 $-1 $261 $109 #
plane-surface $-1 0 0 -3.0728782006286819 0 0 -1 -1 0 0 forward_v I I I I #
loop $-1 $-1 $262 $69 #
coedge $-1 $175 $175 $261 $263 reversed $110 $-1 #
face $-1 $264 $265 $42 $-1 $266 reversed single #
loop $-1 $-1 $267 $112 #
plane-surface $-1 0 -36.590231080347536 0 0 1 0 0 0 1 forward_v I I I I #
coedge $-1 $268 $269 $270 $271 forward $113 $-1 #
coedge $-1 $272 $115 $273 $274 forward $71 $-1 #
coedge $-1 $115 $272 $275 $276 forward $71 $-1 #
coedge $-1 $277 $278 $115 $183 reversed $279 $-1 #
edge $-1 $280 -36.590231080347536 $281 36.590231080347536 $182 $282 forward 7 unknown #
face $-1 $283 $284 $43 $-1 $285 reversed single #
loop $-1 $-1 $286 $116 #
plane-surface $-1 0 -3.7549629934934945 0 0 1 0 0 0 1 forward_v I I I I #
coedge $-1 $287 $288 $289 $290 forward $117 $-1 #
coedge $-1 $291 $119 $292 $293 forward $74 $-1 #
coedge $-1 $119 $291 $294 $295 forward $74 $-1 #
coedge $-1 $296 $297 $119 $191 reversed $298 $-1 #
edge $-1 $299 -3.7549629934934945 $300 3.7549629934934945 $190 $301 forward 7 unknown #
face $-1 $302 $303 $44 $-1 $304 reversed single #
loop $-1 $-1 $305 $120 #
plane-surface $-1 0 -7.597496018985602 0 0 1 0 0 0 1 forward_v I I I I #
coedge $-1 $306 $307 $308 $309 forward $121 $-1 #
coedge $-1 $310 $123 $311 $312 forward $77 $-1 #
coedge $-1 $123 $310 $313 $314 forward $77 $-1 #
coedge $-1 $315 $316 $123 $199 reversed $317 $-1 #
edge $-1 $318 -7.597496018985602 $319 7.597496018985602 $198 $320 forward 7 unknown #
loop $-1 $321 $322 $124 #
cone-surface $-1 0 0 0 0 0 1 0.5 0 0 1 I I -0.70710678118654746 0.70710678118654746 0.5 forward I I I I #
coedge $-1 $202 $202 $128 $204 forward $125 $-1 #
coedge $-1 $203 $203 $322 $323 forward $127 $-1 #
edge $-1 $324 0 $324 6.2831853071796004 $202 $325 forward 7 unknown #
loop $-1 $326 $327 $129 #
cone-surface $-1 0 0 0 0 0 1 0.5 0 0 1 I I -0.70710678118654746 0.70710678118654746 0.5 forward I I I I #
coedge $-1 $207 $207 $133 $209 forward $130 $-1 #
coedge $-1 $208 $208 $327 $328 forward $132 $-1 #
edge $-1 $329 0 $329 6.2831853071796004 $207 $330 forward 7 unknown #
loop $-1 $331 $332 $134 #
cone-surface $-1 0 0 0 0 0 1 0.5 0 0 1 I I -0.70710678118654746 0.70710678118654746 0.5 forward I I I I #
coedge $-1 $212 $212 $138 $214 forward $135 $-1 #
coedge $-1 $213 $213 $332 $333 forward $137 $-1 #
edge $-1 $334 0 $334 6.2831853071796004 $212 $335 forward 7 unknown #
face $-1 $336 $337 $48 $-1 $338 reversed single #
loop $-1 $-1 $339 $139 #
plane-surface $-1 0 -7.597496018985602 0 0 1 0 0 0 1 forward_v I I I I #
coedge $-1 $340 $341 $342 $343 forward $140 $-1 #
coedge $-1 $344 $142 $345 $346 forward $89 $-1 #
coedge $-1 $142 $344 $347 $348 forward $89 $-1 #
coedge $-1 $349 $350 $142 $222 reversed $351 $-1 #
edge $-1 $352 -7.597496018985602 $353 7.597496018985602 $221 $354 forward 7 unknown #
loop $-1 $355 $356 $143 #
cone-surface $-1 0 0 0 0 0 1 0.5 0 0 1 I I -0.70710678118654746 0.70710678118654746 0.5 forward I I I I #
coedge $-1 $225 $225 $147 $227 forward $144 $-1 #
coedge $-1 $226 $226 $356 $357 forward $146 $-1 #
edge $-1 $358 0 $358 6.2831853071796004 $225 $359 forward 7 unknown #
loop $-1 $360 $361 $148 #
cone-surface $-1 0 0 0 0 0 1 0.5 0 0 1 I I -0.70710678118654746 0.70710678118654746 0.5 forward I I I I #
coedge $-1 $230 $230 $152 $232 forward $149 $-1 #
coedge $-1 $231 $231 $361 $362 forward $151 $-1 #
edge $-1 $363 0 $363 6.2831853071796004 $230 $364 forward 7 unknown #
loop $-1 $365 $366 $153 #
cone-surface $-1 0 0 0 0 0 1 0.5 0 0 1 I I -0.70710678118654746 0.70710678118654746 0.5 forward I I I I #
coedge $-1 $235 $235 $157 $237 forward $154 $-1 #
coedge $-1 $236 $236 $366 $367 forward $156 $-1 #
edge $-1 $368 0 $368 6.2831853071796004 $235 $369 forward 7 unknown #
face $-1 $370 $371 $52 $-1 $372 reversed single #
loop $-1 $-1 $373 $158 #
plane-surface $-1 0 -6.9343171982244751 0 0 1 0 0 0 1 forward_v I I I I #
coedge $-1 $374 $375 $376 $377 forward $159 $-1 #
coedge $-1 $378 $161 $379 $380 forward $101 $-1 #
coedge $-1 $161 $378 $381 $382 forward $101 $-1 #
coedge $-1 $383 $384 $161 $245 reversed $385 $-1 #
edge $-1 $386 -6.9343171982244751 $387 6.9343171982244751 $244 $388 forward 7 unknown #
loop $-1 $389 $390 $162 #
cone-surface $-1 0 0 0 0 0 1 1 0 0 1 I I -0.70710678118654746 0.70710678118654746 1 forward I I I I #
coedge $-1 $248 $248 $166 $250 forward $163 $-1 #
coedge $-1 $249 $249 $390 $391 forward $165 $-1 #
edge $-1 $392 0 $392 6.2831853071796004 $248 $393 forward 7 unknown #
face $-1 $394 $395 $54 $-1 $396 reversed single #
loop $-1 $-1 $397 $167 #
plane-surface $-1 0 -6.9343171982244751 0 0 1 0 0 0 1 forward_v I I I I #
coedge $-1 $398 $399 $400 $401 forward $168 $-1 #
coedge $-1 $402 $170 $403 $404 forward $107 $-1 #
coedge $-1 $170 $402 $405 $406 forward $107 $-1 #
coedge $-1 $407 $408 $170 $258 reversed $409 $-1 #
edge $-1 $410 -6.9343171982244751 $411 6.9343171982244751 $257 $412 forward 7 unknown #
loop $-1 $413 $414 $171 #
cone-surface $-1 0 0 0 0 0 1 1 0 0 1 I I -0.70710678118654746 0.70710678118654746 1 forward I I I I #
coedge $-1 $261 $261 $175 $263 forward $172 $-1 #
coedge $-1 $262 $262 $414 $415 forward $174 $-1 #
edge $-1 $416 0 $416 6.2831853071796004 $261 $417 forward 7 unknown #
face $-1 $418 $419 $42 $-1 $420 reversed single #
loop $-1 $-1 $421 $176 #
plane-surface $-1 -65.834528641621148 0 0 1 0 0 0 0 -1 forward_v I I I I #
coedge $-1 $422 $275 $423 $424 forward $177 $-1 #
coedge $-1 $425 $179 $422 $426 forward $113 $-1 #
coedge $-1 $179 $425 $427 $428 forward $113 $-1 #
coedge $-1 $278 $277 $179 $271 reversed $279 $-1 #
edge $-1 $429 -36.590231080347536 $430 36.590231080347536 $270 $431 forward 7 unknown #
coedge $-1 $181 $180 $432 $433 forward $71 $-1 #
coedge $-1 $434 $435 $180 $274 reversed $419 $-1 #
edge $-1 $281 -65.834528641621148 $436 65.834528641621148 $273 $437 forward 7 unknown #
coedge $-1 $267 $438 $181 $276 reversed $177 $-1 #
edge $-1 $439 -65.834528641621148 $280 65.834528641621148 $275 $440 forward 7 unknown #
coedge $-1 $270 $182 $438 $441 forward $279 $-1 #
coedge $-1 $182 $270 $434 $442 reversed $279 $-1 #
loop $-1 $-1 $277 $418 #
vertex $-1 $183 $443 #
vertex $-1 $183 $444 #
straight-curve $-1 65.834528641621148 0 9.3491742202213715 0 1 0 I I #
face $-1 $445 $446 $43 $-1 $447 reversed single #
loop $-1 $-1 $448 $184 #
plane-surface $-1 -65.834528641621148 0 0 1 0 0 0 0 -1 forward_v I I I I #
coedge $-1 $449 $294 $450 $451 forward $185 $-1 #
coedge $-1 $452 $187 $449 $453 forward $117 $-1 #
coedge $-1 $187 $452 $454 $455 forward $117 $-1 #
coedge $-1 $297 $296 $187 $290 reversed $298 $-1 #
edge $-1 $456 -3.7549629934934945 $457 3.7549629934934945 $289 $458 forward 7 unknown #
coedge $-1 $189 $188 $459 $460 forward $74 $-1 #
coedge $-1 $461 $462 $188 $293 reversed $446 $-1 #
edge $-1 $300 -65.834528641621148 $463 65.834528641621148 $292 $464 forward 7 unknown #
coedge $-1 $286 $465 $189 $295 reversed $185 $-1 #
edge $-1 $466 -65.834528641621148 $299 65.834528641621148 $294 $467 forward 7 unknown #
coedge $-1 $289 $190 $465 $468 forward $298 $-1 #
coedge $-1 $190 $289 $461 $469 reversed $298 $-1 #
loop $-1 $-1 $296 $445 #
vertex $-1 $191 $470 #
vertex $-1 $191 $471 #
straight-curve $-1 65.834528641621148 0 2.0109840638917889 0 1 0 I I #
face $-1 $472 $473 $44 $-1 $474 reversed single #
loop $-1 $-1 $475 $192 #
plane-surface $-1 -263.33811456648459 0 0 1 0 0 0 0 -1 forward_v I I I I #
coedge $-1 $476 $313 $477 $478 forward $193 $-1 #
coedge $-1 $479 $195 $476 $480 forward $121 $-1 #
coedge $-1 $195 $479 $481 $482 forward $121 $-1 #
coedge $-1 $316 $315 $195 $309 reversed $317 $-1 #
edge $-1 $483 -7.597496018985602 $484 7.597496018985602 $308 $485 forward 7 unknown #
coedge $-1 $197 $196 $486 $487 forward $77 $-1 #
coedge $-1 $488 $489 $196 $312 reversed $473 $-1 #
edge $-1 $319 -263.33811456648459 $490 263.33811456648459 $311 $491 forward 7 unknown #
coedge $-1 $305 $492 $197 $314 reversed $193 $-1 #
edge $-1 $493 -263.33811456648459 $318 263.33811456648459 $313 $494 forward 7 unknown #
coedge $-1 $308 $198 $492 $495 forward $317 $-1 #
coedge $-1 $198 $308 $488 $496 reversed $317 $-1 #
loop $-1 $-1 $315 $472 #
vertex $-1 $199 $497 #
vertex $-1 $199 $498 #
straight-curve $-1 263.33811456648459 0 131.6690572832423 0 1 0 I I #
loop $-1 $-1 $499 $124 #
coedge $-1 $322 $322 $203 $323 reversed $200 $-1 #
edge $-1 $500 0 $500 6.2831853071796004 $322 $501 forward 7 unknown #
vertex $-1 $204 $502 #
ellipse-curve $-1 0 0 -3.9804223761711484 0 0 -1 1 0 0 1 I I #
loop $-1 $-1 $503 $129 #
coedge $-1 $327 $327 $208 $328 reversed $205 $-1 #
edge $-1 $504 0 $504 6.2831853071796004 $327 $505 forward 7 unknown #
vertex $-1 $209 $506 #
ellipse-curve $-1 0 0 -3.9804223761711484 0 0 -1 1 0 0 1 I I #
loop $-1 $-1 $507 $134 #
coedge $-1 $332 $332 $213 $333 reversed $210 $-1 #
edge $-1 $508 0 $508 6.2831853071796004 $332 $509 forward 7 unknown #
vertex $-1 $214 $510 #
ellipse-curve $-1 0 0 -3.9804223761711484 0 0 -1 1 0 0 1 I I #
face $-1 $511 $512 $48 $-1 $513 reversed single #
loop $-1 $-1 $514 $215 #
plane-surface $-1 -263.33811456648459 0 0 1 0 0 0 0 -1 forward_v I I I I #
coedge $-1 $515 $347 $516 $517 forward $216 $-1 #
coedge $-1 $518 $218 $515 $519 forward $140 $-1 #
coedge $-1 $218 $518 $520 $521 forward $140 $-1 #
coedge $-1 $350 $349 $218 $343 reversed $351 $-1 #
edge $-1 $522 -7.597496018985602 $523 7.597496018985602 $342 $524 forward 7 unknown #
coedge $-1 $220 $219 $525 $526 forward $89 $-1 #
coedge $-1 $527 $528 $219 $346 reversed $512 $-1 #
edge $-1 $353 -263.33811456648459 $529 263.33811456648459 $345 $530 forward 7 unknown #
coedge $-1 $339 $531 $220 $348 reversed $216 $-1 #
edge $-1 $532 -263.33811456648459 $352 263.33811456648459 $347 $533 forward 7 unknown #
coedge $-1 $342 $221 $531 $534 forward $351 $-1 #
coedge $-1 $221 $342 $527 $535 reversed $351 $-1 #
loop $-1 $-1 $349 $511 #
vertex $-1 $222 $536 #
vertex $-1 $222 $537 #
straight-curve $-1 263.33811456648459 0 131.6690572832423 0 1 0 I I #
loop $-1 $-1 $538 $143 #
coedge $-1 $356 $356 $226 $357 reversed $223 $-1 #
edge $-1 $539 0 $539 6.2831853071796004 $356 $540 forward 7 unknown #
vertex $-1 $227 $541 #
ellipse-curve $-1 0 0 -3.9804223761711484 0 0 -1 1 0 0 1 I I #
loop $-1 $-1 $542 $148 #
coedge $-1 $361 $361 $231 $362 reversed $228 $-1 #
edge $-1 $543 0 $543 6.2831853071796004 $361 $544 forward 7 unknown #
vertex $-1 $232 $545 #
ellipse-curve $-1 0 0 -3.9804223761711484 0 0 -1 1 0 0 1 I I #
loop $-1 $-1 $546 $153 #
coedge $-1 $366 $366 $236 $367 reversed $233 $-1 #
edge $-1 $547 0 $547 6.2831853071796004 $366 $548 forward 7 unknown #
vertex $-1 $237 $549 #
ellipse-curve $-1 0 0 -3.9804223761711484 0 0 -1 1 0 0 1 I I #
face $-1 $550 $551 $52 $-1 $552 reversed single #
loop $-1 $-1 $553 $238 #
plane-surface $-1 -263.33811456648459 0 0 1 0 0 0 0 -1 forward_v I I I I #
coedge $-1 $554 $381 $555 $556 forward $239 $-1 #
coedge $-1 $557 $241 $554 $558 forward $159 $-1 #
coedge $-1 $241 $557 $559 $560 forward $159 $-1 #
coedge $-1 $384 $383 $241 $377 reversed $385 $-1 #
edge $-1 $561 -6.9343171982244751 $562 6.9343171982244751 $376 $563 forward 7 unknown #
coedge $-1 $243 $242 $564 $565 forward $101 $-1 #
coedge $-1 $566 $567 $242 $380 reversed $551 $-1 #
edge $-1 $387 -263.33811456648459 $568 263.33811456648459 $379 $569 forward 7 unknown #
coedge $-1 $373 $570 $243 $382 reversed $239 $-1 #
edge $-1 $571 -263.33811456648459 $386 263.33811456648459 $381 $572 forward 7 unknown #
coedge $-1 $376 $244 $570 $573 forward $385 $-1 #
coedge $-1 $244 $376 $566 $574 reversed $385 $-1 #
loop $-1 $-1 $383 $550 #
vertex $-1 $245 $575 #
vertex $-1 $245 $576 #
straight-curve $-1 263.33811456648459 0 131.6690572832423 0 1 0 I I #
loop $-1 $-1 $577 $162 #
coedge $-1 $390 $390 $249 $391 reversed $246 $-1 #
edge $-1 $578 0 $578 6.2831853071796004 $390 $579 forward 7 unknown #
vertex $-1 $250 $580 #
ellipse-curve $-1 0 0 -3.0728782006286819 0 0 -1 2 0 0 1 I I #
face $-1 $581 $582 $54 $-1 $583 reversed single #
loop $-1 $-1 $584 $251 #
plane-surface $-1 -263.33811456648459 0 0 1 0 0 0 0 -1 forward_v I I I I #
coedge $-1 $585 $405 $586 $587 forward $252 $-1 #
coedge $-1 $588 $254 $585 $589 forward $168 $-1 #
coedge $-1 $254 $588 $590 $591 forward $168 $-1 #
coedge $-1 $408 $407 $254 $401 reversed $409 $-1 #
edge $-1 $592 -6.9343171982244751 $593 6.9343171982244751 $400 $594 forward 7 unknown #
coedge $-1 $256 $255 $595 $596 forward $107 $-1 #
coedge $-1 $597 $598 $255 $404 reversed $582 $-1 #
edge $-1 $411 -263.33811456648459 $599 263.33811456648459 $403 $600 forward 7 unknown #
coedge $-1 $397 $601 $256 $406 reversed $252 $-1 #
edge $-1 $602 -263.33811456648459 $410 263.33811456648459 $405 $603 forward 7 unknown #
coedge $-1 $400 $257 $601 $604 forward $409 $-1 #
coedge $-1 $257 $400 $597 $605 reversed $409 $-1 #
loop $-1 $-1 $407 $581 #
vertex $-1 $258 $606 #
vertex $-1 $258 $607 #
straight-curve $-1 263.33811456648459 0 131.6690572832423 0 1 0 I I #
loop $-1 $-1 $608 $171 #
coedge $-1 $414 $414 $262 $415 reversed $259 $-1 #
edge $-1 $609 0 $609 6.2831853071796004 $414 $610 forward 7 unknown #
vertex $-1 $263 $611 #
ellipse-curve $-1 0 0 -3.0728782006286819 0 0 -1 2 0 0 1 I I #
face $-1 $-1 $279 $42 $-1 $612 reversed single #
loop $-1 $-1 $434 $264 #
plane-surface $-1 0 36.590231080347536 0 0 -1 0 0 0 -1 forward_v I I I I #
coedge $-1 $613 $432 $435 $614 forward $265 $-1 #
coedge $-1 $438 $267 $268 $426 reversed $177 $-1 #
coedge $-1 $432 $613 $267 $424 reversed $265 $-1 #
edge $-1 $439 -9.3491742202213715 $615 9.3491742202213715 $423 $616 forward 7 unknown #
coedge $-1 $269 $268 $613 $617 forward $113 $-1 #
edge $-1 $430 -65.834528641621148 $615 65.834528641621148 $422 $618 forward 7 unknown #
coedge $-1 $435 $434 $269 $428 reversed $419 $-1 #
edge $-1 $619 -65.834528641621148 $429 65.834528641621148 $427 $620 forward 7 unknown #
vertex $-1 $271 $621 #
vertex $-1 $441 $622 #
straight-curve $-1 65.834528641621148 0 -9.3491742202213715 0 -1 0 I I #
coedge $-1 $421 $423 $272 $433 reversed $265 $-1 #
edge $-1 $436 -36.590231080347536 $439 36.590231080347536 $432 $623 forward 7 unknown #
coedge $-1 $427 $273 $278 $442 forward $419 $-1 #
coedge $-1 $273 $427 $421 $614 reversed $419 $-1 #
vertex $-1 $274 $624 #
straight-curve $-1 0 36.590231080347536 9.3491742202213715 -1 0 0 I I #
coedge $-1 $275 $422 $277 $441 reversed $177 $-1 #
vertex $-1 $433 $625 #
straight-curve $-1 0 -36.590231080347536 9.3491742202213715 1 0 0 I I #
edge $-1 $280 -9.3491742202213715 $430 9.3491742202213715 $277 $626 forward 7 unknown #
edge $-1 $281 -9.3491742202213715 $429 9.3491742202213715 $278 $627 forward 7 unknown #
point $-1 65.834528641621148 -36.590231080347536 9.3491742202213715 #
point $-1 65.834528641621148 36.590231080347536 9.3491742202213715 #
face $-1 $-1 $298 $43 $-1 $628 reversed single #
loop $-1 $-1 $461 $283 #
plane-surface $-1 0 3.7549629934934945 0 0 -1 0 0 0 -1 forward_v I I I I #
coedge $-1 $629 $459 $462 $630 forward $284 $-1 #
coedge $-1 $465 $286 $287 $453 reversed $185 $-1 #
coedge $-1 $459 $629 $286 $451 reversed $284 $-1 #
edge $-1 $466 -2.0109840638917889 $631 2.0109840638917889 $450 $632 forward 7 unknown #
coedge $-1 $288 $287 $629 $633 forward $117 $-1 #
edge $-1 $457 -65.834528641621148 $631 65.834528641621148 $449 $634 forward 7 unknown #
coedge $-1 $462 $461 $288 $455 reversed $446 $-1 #
edge $-1 $635 -65.834528641621148 $456 65.834528641621148 $454 $636 forward 7 unknown #
vertex $-1 $290 $637 #
vertex $-1 $468 $638 #
straight-curve $-1 65.834528641621148 0 -2.0109840638917889 0 -1 0 I I #
coedge $-1 $448 $450 $291 $460 reversed $284 $-1 #
edge $-1 $463 -3.7549629934934945 $466 3.7549629934934945 $459 $639 forward 7 unknown #
coedge $-1 $454 $292 $297 $469 forward $446 $-1 #
coedge $-1 $292 $454 $448 $630 reversed $446 $-1 #
vertex $-1 $293 $640 #
straight-curve $-1 0 3.7549629934934945 2.0109840638917889 -1 0 0 I I #
coedge $-1 $294 $449 $296 $468 reversed $185 $-1 #
vertex $-1 $460 $641 #
straight-curve $-1 0 -3.7549629934934945 2.0109840638917889 1 0 0 I I #
edge $-1 $299 -2.0109840638917889 $457 2.0109840638917889 $296 $642 forward 7 unknown #
edge $-1 $300 -2.0109840638917889 $456 2.0109840638917889 $297 $643 forward 7 unknown #
point $-1 65.834528641621148 -3.7549629934934945 2.0109840638917889 #
point $-1 65.834528641621148 3.7549629934934945 2.0109840638917889 #
face $-1 $-1 $317 $44 $-1 $644 reversed single #
loop $-1 $-1 $488 $302 #
plane-surface $-1 0 7.597496018985602 0 0 -1 0 0 0 -1 forward_v I I I I #
coedge $-1 $645 $486 $489 $646 forward $303 $-1 #
coedge $-1 $492 $305 $306 $480 reversed $193 $-1 #
coedge $-1 $486 $645 $305 $478 reversed $303 $-1 #
edge $-1 $493 -131.6690572832423 $647 131.6690572832423 $477 $648 forward 7 unknown #
coedge $-1 $307 $306 $645 $649 forward $121 $-1 #
edge $-1 $484 -263.33811456648459 $647 263.33811456648459 $476 $650 forward 7 unknown #
coedge $-1 $489 $488 $307 $482 reversed $473 $-1 #
edge $-1 $651 -263.33811456648459 $483 263.33811456648459 $481 $652 forward 7 unknown #
vertex $-1 $309 $653 #
vertex $-1 $495 $654 #
straight-curve $-1 263.33811456648459 0 -131.6690572832423 0 -1 0 I I #
coedge $-1 $475 $477 $310 $487 reversed $303 $-1 #
edge $-1 $490 -7.597496018985602 $493 7.597496018985602 $486 $655 forward 7 unknown #
coedge $-1 $481 $311 $316 $496 forward $473 $-1 #
coedge $-1 $311 $481 $475 $646 reversed $473 $-1 #
vertex $-1 $312 $656 #
straight-curve $-1 0 7.597496018985602 131.6690572832423 -1 0 0 I I #
coedge $-1 $313 $476 $315 $495 reversed $193 $-1 #
vertex $-1 $487 $657 #
straight-curve $-1 0 -7.597496018985602 131.6690572832423 1 0 0 I I #
edge $-1 $318 -131.6690572832423 $484 131.6690572832423 $315 $658 forward 7 unknown #
edge $-1 $319 -131.6690572832423 $483 131.6690572832423 $316 $659 forward 7 unknown #
point $-1 263.33811456648459 -7.597496018985602 131.6690572832423 #
point $-1 263.33811456648459 7.597496018985602 131.6690572832423 #
coedge $-1 $499 $499 $-1 $660 reversed $321 $-1 #
vertex $-1 $323 $661 #
ellipse-curve $-1 0 0 -0.5 0 0 -1 1 0 0 1 I I #
point $-1 1 0 -3.9804223761711484 #
coedge $-1 $503 $503 $-1 $662 reversed $326 $-1 #
vertex $-1 $328 $663 #
ellipse-curve $-1 0 0 -0.5 0 0 -1 1 0 0 1 I I #
point $-1 1 0 -3.9804223761711484 #
coedge $-1 $507 $507 $-1 $664 reversed $331 $-1 #
vertex $-1 $333 $665 #
ellipse-curve $-1 0 0 -0.5 0 0 -1 1 0 0 1 I I #
point $-1 1 0 -3.9804223761711484 #
face $-1 $-1 $351 $48 $-1 $666 reversed single #
loop $-1 $-1 $527 $336 #
plane-surface $-1 0 7.597496018985602 0 0 -1 0 0 0 -1 forward_v I I I I #
coedge $-1 $667 $525 $528 $668 forward $337 $-1 #
coedge $-1 $531 $339 $340 $519 reversed $216 $-1 #
coedge $-1 $525 $667 $339 $517 reversed $337 $-1 #
edge $-1 $532 -131.6690572832423 $669 131.6690572832423 $516 $670 forward 7 unknown #
coedge $-1 $341 $340 $667 $671 forward $140 $-1 #
edge $-1 $523 -263.33811456648459 $669 263.33811456648459 $515 $672 forward 7 unknown #
coedge $-1 $528 $527 $341 $521 reversed $512 $-1 #
edge $-1 $673 -263.33811456648459 $522 263.33811456648459 $520 $674 forward 7 unknown #
vertex $-1 $343 $675 #
vertex $-1 $534 $676 #
straight-curve $-1 263.33811456648459 0 -131.6690572832423 0 -1 0 I I #
coedge $-1 $514 $516 $344 $526 reversed $337 $-1 #
edge $-1 $529 -7.597496018985602 $532 7.597496018985602 $525 $677 forward 7 unknown #
coedge $-1 $520 $345 $350 $535 forward $512 $-1 #
coedge $-1 $345 $520 $514 $668 reversed $512 $-1 #
vertex $-1 $346 $678 #
straight-curve $-1 0 7.597496018985602 131.6690572832423 -1 0 0 I I #
coedge $-1 $347 $515 $349 $534 reversed $216 $-1 #
vertex $-1 $526 $679 #
straight-curve $-1 0 -7.597496018985602 131.6690572832423 1 0 0 I I #
edge $-1 $352 -131.6690572832423 $523 131.6690572832423 $349 $680 forward 7 unknown #
edge $-1 $353 -131.6690572832423 $522 131.6690572832423 $350 $681 forward 7 unknown #
point $-1 263.33811456648459 -7.597496018985602 131.6690572832423 #
point $-1 263.33811456648459 7.597496018985602 131.6690572832423 #
coedge $-1 $538 $538 $-1 $682 reversed $355 $-1 #
vertex $-1 $357 $683 #
ellipse-curve $-1 0 0 -0.5 0 0 -1 1 0 0 1 I I #
point $-1 1 0 -3.9804223761711484 #
coedge $-1 $542 $542 $-1 $684 reversed $360 $-1 #
vertex $-1 $362 $685 #
ellipse-curve $-1 0 0 -0.5 0 0 -1 1 0 0 1 I I #
point $-1 1 0 -3.9804223761711484 #
coedge $-1 $546 $546 $-1 $686 reversed $365 $-1 #
vertex $-1 $367 $687 #
ellipse-curve $-1 0 0 -0.5 0 0 -1 1 0 0 1 I I #
point $-1 1 0 -3.9804223761711484 #
face $-1 $-1 $385 $52 $-1 $688 reversed single #
loop $-1 $-1 $566 $370 #
plane-surface $-1 0 6.9343171982244751 0 0 -1 0 0 0 -1 forward_v I I I I #
coedge $-1 $689 $564 $567 $690 forward $371 $-1 #
coedge $-1 $570 $373 $374 $558 reversed $239 $-1 #
coedge $-1 $564 $689 $373 $556 reversed $371 $-1 #
edge $-1 $571 -131.6690572832423 $691 131.6690572832423 $555 $692 forward 7 unknown #
coedge $-1 $375 $374 $689 $693 forward $159 $-1 #
edge $-1 $562 -263.33811456648459 $691 263.33811456648459 $554 $694 forward 7 unknown #
coedge $-1 $567 $566 $375 $560 reversed $551 $-1 #
edge $-1 $695 -263.33811456648459 $561 263.33811456648459 $559 $696 forward 7 unknown #
vertex $-1 $377 $697 #
vertex $-1 $573 $698 #
straight-curve $-1 263.33811456648459 0 -131.6690572832423 0 -1 0 I I #
coedge $-1 $553 $555 $378 $565 reversed $371 $-1 #
edge $-1 $568 -6.9343171982244751 $571 6.9343171982244751 $564 $699 forward 7 unknown #
coedge $-1 $559 $379 $384 $574 forward $551 $-1 #
coedge $-1 $379 $559 $553 $690 reversed $551 $-1 #
vertex $-1 $380 $700 #
straight-curve $-1 0 6.9343171982244751 131.6690572832423 -1 0 0 I I #
coedge $-1 $381 $554 $383 $573 reversed $239 $-1 #
vertex $-1 $565 $701 #
straight-curve $-1 0 -6.9343171982244751 131.6690572832423 1 0 0 I I #
edge $-1 $386 -131.6690572832423 $562 131.6690572832423 $383 $702 forward 7 unknown #
edge $-1 $387 -131.6690572832423 $561 131.6690572832423 $384 $703 forward 7 unknown #
point $-1 263.33811456648459 -6.9343171982244751 131.6690572832423 #
point $-1 263.33811456648459 6.9343171982244751 131.6690572832423 #
coedge $-1 $577 $577 $-1 $704 reversed $389 $-1 #
vertex $-1 $391 $705 #
ellipse-curve $-1 0 0 -1 0 0 -1 2 0 0 1 I I #
point $-1 2 0 -3.0728782006286819 #
face $-1 $-1 $409 $54 $-1 $706 reversed single #
loop $-1 $-1 $597 $394 #
plane-surface $-1 0 6.9343171982244751 0 0 -1 0 0 0 -1 forward_v I I I I #
coedge $-1 $707 $595 $598 $708 forward $395 $-1 #
coedge $-1 $601 $397 $398 $589 reversed $252 $-1 #
coedge $-1 $595 $707 $397 $587 reversed $395 $-1 #
edge $-1 $602 -131.6690572832423 $709 131.6690572832423 $586 $710 forward 7 unknown #
coedge $-1 $399 $398 $707 $711 forward $168 $-1 #
edge $-1 $593 -263.33811456648459 $709 263.33811456648459 $585 $712 forward 7 unknown #
coedge $-1 $598 $597 $399 $591 reversed $582 $-1 #
edge $-1 $713 -263.33811456648459 $592 263.33811456648459 $590 $714 forward 7 unknown #
vertex $-1 $401 $715 #
vertex $-1 $604 $716 #
straight-curve $-1 263.33811456648459 0 -131.6690572832423 0 -1 0 I I #
coedge $-1 $584 $586 $402 $596 reversed $395 $-1 #
edge $-1 $599 -6.9343171982244751 $602 6.9343171982244751 $595 $717 forward 7 unknown #
coedge $-1 $590 $403 $408 $605 forward $582 $-1 #
coedge $-1 $403 $590 $584 $708 reversed $582 $-1 #
vertex $-1 $404 $718 #
straight-curve $-1 0 6.9343171982244751 131.6690572832423 -1 0 0 I I #
coedge $-1 $405 $585 $407 $604 reversed $252 $-1 #
vertex $-1 $596 $719 #
straight-curve $-1 0 -6.9343171982244751 131.6690572832423 1 0 0 I I #
edge $-1 $410 -131.6690572832423 $593 131.6690572832423 $407 $720 forward 7 unknown #
edge $-1 $411 -131.6690572832423 $592 131.6690572832423 $408 $721 forward 7 unknown #
point $-1 263.33811456648459 -6.9343171982244751 131.6690572832423 #
point $-1 263.33811456648459 6.9343171982244751 131.6690572832423 #
coedge $-1 $608 $608 $-1 $722 reversed $413 $-1 #
vertex $-1 $415 $723 #
ellipse-curve $-1 0 0 -1 0 0 -1 2 0 0 1 I I #
point $-1 2 0 -3.0728782006286819 #
plane-surface $-1 65.834528641621148 0 0 -1 0 0 0 0 1 forward_v I I I I #
coedge $-1 $423 $421 $425 $617 reversed $265 $-1 #
edge $-1 $436 -9.3491742202213715 $619 9.3491742202213715 $435 $724 forward 7 unknown #
vertex $-1 $617 $725 #
straight-curve $-1 -65.834528641621148 -36.590231080347536 0 0 0 -1 I I #
edge $-1 $615 -36.590231080347536 $619 36.590231080347536 $613 $726 forward 7 unknown #
straight-curve $-1 0 -36.590231080347536 -9.3491742202213715 -1 0 0 I I #
vertex $-1 $428 $727 #
straight-curve $-1 0 36.590231080347536 -9.3491742202213715 1 0 0 I I #
point $-1 65.834528641621148 36.590231080347536 -9.3491742202213715 #
point $-1 65.834528641621148 -36.590231080347536 -9.3491742202213715 #
straight-curve $-1 -65.834528641621148 0 9.3491742202213715 0 -1 0 I I #
point $-1 -65.834528641621148 36.590231080347536 9.3491742202213715 #
point $-1 -65.834528641621148 -36.590231080347536 9.3491742202213715 #
straight-curve $-1 65.834528641621148 -36.590231080347536 0 0 0 -1 I I #
straight-curve $-1 65.834528641621148 36.590231080347536 0 0 0 -1 I I #
plane-surface $-1 65.834528641621148 0 0 -1 0 0 0 0 1 forward_v I I I I #
coedge $-1 $450 $448 $452 $633 reversed $284 $-1 #
edge $-1 $463 -2.0109840638917889 $635 2.0109840638917889 $462 $728 forward 7 unknown #
vertex $-1 $633 $729 #
straight-curve $-1 -65.834528641621148 -3.7549629934934945 0 0 0 -1 I I #
edge $-1 $631 -3.7549629934934945 $635 3.7549629934934945 $629 $730 forward 7 unknown #
straight-curve $-1 0 -3.7549629934934945 -2.0109840638917889 -1 0 0 I I #
vertex $-1 $455 $731 #
straight-curve $-1 0 3.7549629934934945 -2.0109840638917889 1 0 0 I I #
point $-1 65.834528641621148 3.7549629934934945 -2.0109840638917889 #
point $-1 65.834528641621148 -3.7549629934934945 -2.0109840638917889 #
straight-curve $-1 -65.834528641621148 0 2.0109840638917889 0 -1 0 I I #
point $-1 -65.834528641621148 3.7549629934934945 2.0109840638917889 #
point $-1 -65.834528641621148 -3.7549629934934945 2.0109840638917889 #
straight-curve $-1 65.834528641621148 -3.7549629934934945 0 0 0 -1 I I #
straight-curve $-1 65.834528641621148 3.7549629934934945 0 0 0 -1 I I #
plane-surface $-1 263.33811456648459 0 0 -1 0 0 0 0 1 forward_v I I I I #
coedge $-1 $477 $475 $479 $649 reversed $303 $-1 #
edge $-1 $490 -131.6690572832423 $651 131.6690572832423 $489 $732 forward 7 unknown #
vertex $-1 $649 $733 #
straight-curve $-1 -263.33811456648459 -7.597496018985602 0 0 0 -1 I I #
edge $-1 $647 -7.597496018985602 $651 7.597496018985602 $645 $734 forward 7 unknown #
straight-curve $-1 0 -7.597496018985602 -131.6690572832423 -1 0 0 I I #
vertex $-1 $482 $735 #
straight-curve $-1 0 7.597496018985602 -131.6690572832423 1 0 0 I I #
point $-1 263.33811456648459 7.597496018985602 -131.6690572832423 #
point $-1 263.33811456648459 -7.597496018985602 -131.6690572832423 #
straight-curve $-1 -263.33811456648459 0 131.6690572832423 0 -1 0 I I #
point $-1 -263.33811456648459 7.597496018985602 131.6690572832423 #
point $-1 -263.33811456648459 -7.597496018985602 131.6690572832423 #
straight-curve $-1 263.33811456648459 -7.597496018985602 0 0 0 -1 I I #
straight-curve $-1 263.33811456648459 7.597496018985602 0 0 0 -1 I I #
edge $-1 $736 1 $736 0 $499 $-1 forward 7 unknown #
point $-1 1 0 -0.5 #
edge $-1 $737 1 $737 0 $503 $-1 forward 7 unknown #
point $-1 1 0 -0.5 #
edge $-1 $738 1 $738 0 $507 $-1 forward 7 unknown #
point $-1 1 0 -0.5 #
plane-surface $-1 263.33811456648459 0 0 -1 0 0 0 0 1 forward_v I I I I #
coedge $-1 $516 $514 $518 $671 reversed $337 $-1 #
edge $-1 $529 -131.6690572832423 $673 131.6690572832423 $528 $739 forward 7 unknown #
vertex $-1 $671 $740 #
straight-curve $-1 -263.33811456648459 -7.597496018985602 0 0 0 -1 I I #
edge $-1 $669 -7.597496018985602 $673 7.597496018985602 $667 $741 forward 7 unknown #
straight-curve $-1 0 -7.597496018985602 -131.6690572832423 -1 0 0 I I #
vertex $-1 $521 $742 #
straight-curve $-1 0 7.597496018985602 -131.6690572832423 1 0 0 I I #
point $-1 263.33811456648459 7.597496018985602 -131.6690572832423 #
point $-1 263.33811456648459 -7.597496018985602 -131.6690572832423 #
straight-curve $-1 -263.33811456648459 0 131.6690572832423 0 -1 0 I I #
point $-1 -263.33811456648459 7.597496018985602 131.6690572832423 #
point $-1 -263.33811456648459 -7.597496018985602 131.6690572832423 #
straight-curve $-1 263.33811456648459 -7.597496018985602 0 0 0 -1 I I #
straight-curve $-1 263.33811456648459 7.597496018985602 0 0 0 -1 I I #
edge $-1 $743 1 $743 0 $538 $-1 forward 7 unknown #
point $-1 1 0 -0.5 #
edge $-1 $744 1 $744 0 $542 $-1 forward 7 unknown #
point $-1 1 0 -0.5 #
edge $-1 $745 1 $745 0 $546 $-1 forward 7 unknown #
point $-1 1 0 -0.5 #
plane-surface $-1 263.33811456648459 0 0 -1 0 0 0 0 1 forward_v I I I I #
coedge $-1 $555 $553 $557 $693 reversed $371 $-1 #
edge $-1 $568 -131.6690572832423 $695 131.6690572832423 $567 $746 forward 7 unknown #
vertex $-1 $693 $747 #
straight-curve $-1 -263.33811456648459 -6.9343171982244751 0 0 0 -1 I I #
edge $-1 $691 -6.9343171982244751 $695 6.9343171982244751 $689 $748 forward 7 unknown #
straight-curve $-1 0 -6.9343171982244751 -131.6690572832423 -1 0 0 I I #
vertex $-1 $560 $749 #
straight-curve $-1 0 6.9343171982244751 -131.6690572832423 1 0 0 I I #
point $-1 263.33811456648459 6.9343171982244751 -131.6690572832423 #
point $-1 263.33811456648459 -6.9343171982244751 -131.6690572832423 #
straight-curve $-1 -263.33811456648459 0 131.6690572832423 0 -1 0 I I #
point $-1 -263.33811456648459 6.9343171982244751 131.6690572832423 #
point $-1 -263.33811456648459 -6.9343171982244751 131.6690572832423 #
straight-curve $-1 263.33811456648459 -6.9343171982244751 0 0 0 -1 I I #
straight-curve $-1 263.33811456648459 6.9343171982244751 0 0 0 -1 I I #
edge $-1 $750 1 $750 0 $577 $-1 forward 7 unknown #
point $-1 2 0 -1 #
plane-surface $-1 263.33811456648459 0 0 -1 0 0 0 0 1 forward_v I I I I #
coedge $-1 $586 $584 $588 $711 reversed $395 $-1 #
edge $-1 $599 -131.6690572832423 $713 131.6690572832423 $598 $751 forward 7 unknown #
vertex $-1 $711 $752 #
straight-curve $-1 -263.33811456648459 -6.9343171982244751 0 0 0 -1 I I #
edge $-1 $709 -6.9343171982244751 $713 6.9343171982244751 $707 $753 forward 7 unknown #
straight-curve $-1 0 -6.9343171982244751 -131.6690572832423 -1 0 0 I I #
vertex $-1 $591 $754 #
straight-curve $-1 0 6.9343171982244751 -131.6690572832423 1 0 0 I I #
point $-1 263.33811456648459 6.9343171982244751 -131.6690572832423 #
point $-1 263.33811456648459 -6.9343171982244751 -131.6690572832423 #
straight-curve $-1 -263.33811456648459 0 131.6690572832423 0 -1 0 I I #
point $-1 -263.33811456648459 6.9343171982244751 131.6690572832423 #
point $-1 -263.33811456648459 -6.9343171982244751 131.6690572832423 #
straight-curve $-1 263.33811456648459 -6.9343171982244751 0 0 0 -1 I I #
straight-curve $-1 263.33811456648459 6.9343171982244751 0 0 0 -1 I I #
edge $-1 $755 1 $755 0 $608 $-1 forward 7 unknown #
point $-1 2 0 -1 #
straight-curve $-1 -65.834528641621148 36.590231080347536 0 0 0 -1 I I #
point $-1 -65.834528641621148 -36.590231080347536 -9.3491742202213715 #
straight-curve $-1 -65.834528641621148 0 -9.3491742202213715 0 1 0 I I #
point $-1 -65.834528641621148 36.590231080347536 -9.3491742202213715 #
straight-curve $-1 -65.834528641621148 3.7549629934934945 0 0 0 -1 I I #
point $-1 -65.834528641621148 -3.7549629934934945 -2.0109840638917889 #
straight-curve $-1 -65.834528641621148 0 -2.0109840638917889 0 1 0 I I #
point $-1 -65.834528641621148 3.7549629934934945 -2.0109840638917889 #
straight-curve $-1 -263.33811456648459 7.597496018985602 0 0 0 -1 I I #
point $-1 -263.33811456648459 -7.597496018985602 -131.6690572832423 #
straight-curve $-1 -263.33811456648459 0 -131.6690572832423 0 1 0 I I #
point $-1 -263.33811456648459 7.597496018985602 -131.6690572832423 #
vertex $-1 $660 $756 #
vertex $-1 $662 $757 #
vertex $-1 $664 $758 #
straight-curve $-1 -263.33811456648459 7.597496018985602 0 0 0 -1 I I #
point $-1 -263.33811456648459 -7.597496018985602 -131.6690572832423 #
straight-curve $-1 -263.33811456648459 0 -131.6690572832423 0 1 0 I I #
point $-1 -263.33811456648459 7.597496018985602 -131.6690572832423 #
vertex $-1 $682 $759 #
vertex $-1 $684 $760 #
vertex $-1 $686 $761 #
straight-curve $-1 -263.33811456648459 6.9343171982244751 0 0 0 -1 I I #
point $-1 -263.33811456648459 -6.9343171982244751 -131.6690572832423 #
straight-curve $-1 -263.33811456648459 0 -131.6690572832423 0 1 0 I I #
point $-1 -263.33811456648459 6.9343171982244751 -131.6690572832423 #
vertex $-1 $704 $762 #
straight-curve $-1 -263.33811456648459 6.9343171982244751 0 0 0 -1 I I #
point $-1 -263.33811456648459 -6.9343171982244751 -131.6690572832423 #
straight-curve $-1 -263.33811456648459 0 -131.6690572832423 0 1 0 I I #
point $-1 -263.33811456648459 6.9343171982244751 -131.6690572832423 #
vertex $-1 $722 $763 #
point $-1 0 0 0.5 #
point $-1 0 0 0.5 #
point $-1 0 0 0.5 #
point $-1 0 0 0.5 #
point $-1 0 0 0.5 #
point $-1 0 0 0.5 #
point $-1 0 0 1 #
point $-1 0 0 1 #
End-of-ACIS-data 