500 0 5 0           
7 Unknown 11 ACIS 5.0 NT 24 Fri Mar 26 15:08:03 1999 
-1 9.9999999999999995e-007 1e-010 
body $-1 $5 $-1 $6 #
body $-1 $7 $-1 $8 #
body $-1 $9 $-1 $10 #
body $-1 $11 $-1 $12 #
body $-1 $13 $-1 $14 #
lump $-1 $-1 $15 $0 #
transform $-1 1 0 0 0 1 0 0 0 1 63.64574114200262 32.771331382172299 12.687976968097553 1 rotate no_reflect no_shear #
lump $-1 $-1 $16 $1 #
transform $-1 1 0 0 0 1 0 0 0 1 63.64574114200262 32.771331382172299 12.687976968097553 1 rotate no_reflect no_shear #
lump $-1 $-1 $17 $2 #
transform $-1 1 0 0 0 1 0 0 0 1 63.64574114200262 32.771331382172299 12.687976968097553 1 rotate no_reflect no_shear #
lump $-1 $-1 $18 $3 #
transform $-1 1 0 0 0 1 0 0 0 1 63.64574114200262 32.771331382172299 12.687976968097553 1 rotate no_reflect no_shear #
lump $-1 $-1 $19 $4 #
transform $-1 1 0 0 0 1 0 0 0 1 63.64574114200262 32.771331382172299 12.687976968097553 1 rotate no_reflect no_shear #
shell $-1 $-1 $-1 $20 $-1 $5 #
shell $-1 $-1 $-1 $21 $-1 $7 #
shell $-1 $-1 $-1 $22 $-1 $9 #
shell $-1 $-1 $-1 $23 $-1 $11 #
shell $-1 $-1 $-1 $24 $-1 $13 #
face $-1 $25 $26 $15 $-1 $27 forward single #
face $-1 $28 $29 $16 $-1 $30 reversed single #
face $-1 $31 $32 $17 $-1 $33 forward single #
face $-1 $34 $35 $18 $-1 $36 reversed single #
face $-1 $37 $38 $19 $-1 $39 reversed single #
face $-1 $40 $41 $15 $-1 $42 reversed single #
loop $-1 $-1 $43 $20 #
plane-surface $-1 0 0 12.687976968097553 0 0 1 1 0 0 forward_v I I I I #
face $-1 $44 $45 $16 $-1 $46 forward single #
loop $-1 $-1 $47 $21 #
plane-surface $-1 0 -25.831747180062376 -1.7658953586430899 0 0 1 1 0 0 forward_v I I I I #
face $-1 $48 $49 $17 $-1 $50 forward single #
loop $-1 $-1 $51 $22 #
plane-surface $-1 47.832104344813374 61.942242529509109 143.45916355283572 1 0 0 0 -0.62932039886446345 -0.77714595512881146 forward_v I I I I #
face $-1 $52 $53 $18 $-1 $54 reversed single #
loop $-1 $55 $56 $23 #
cone-surface $-1 52.350286286867444 25.898592611611381 6.6682696947699069 0 -0.62932039886446345 -0.77714595512881146 1.5 0 0 1 I I 0 1 1.5 forward I I I I #
face $-1 $57 $58 $19 $-1 $59 reversed single #
loop $-1 $60 $61 $24 #
cone-surface $-1 59.12755919994855 25.898592611611381 6.6682696947699069 0 -0.62932039886446345 -0.77714595512881146 1.5 0 0 1 I I 0 1 1.5 forward I I I I #
face $-1 $62 $63 $15 $-1 $64 reversed single #
loop $-1 $-1 $65 $25 #
plane-surface $-1 0 0 -12.687976968097553 0 0 1 1 0 0 forward_v I I I I #
coedge $-1 $66 $67 $68 $69 forward $26 $-1 #
face $-1 $70 $71 $16 $-1 $72 forward single #
loop $-1 $-1 $73 $28 #
plane-surface $-1 0 -25.831747180062376 -5.599432441060137 0 0 1 1 0 0 forward_v I I I I #
coedge $-1 $74 $75 $76 $77 reversed $29 $-1 #
face $-1 $78 $79 $17 $-1 $80 reversed single #
loop $-1 $-1 $81 $31 #
plane-surface $-1 55.738922743407997 -18.164883873509858 44.535102973470273 0 0.62932039886446345 0.77714595512881146 1 0 0 forward_v I I I I #
coedge $-1 $82 $83 $84 $85 reversed $32 $-1 #
face $-1 $86 $87 $18 $-1 $88 forward single #
loop $-1 $89 $90 $34 #
cone-surface $-1 52.350286286867444 24.358008900117682 4.7658072891574772 0 -0.62932039886446345 -0.77714595512881146 0.75 0 0 1 I I -0.70710678118654757 0.70710678118654757 0.75 forward I I I I #
loop $-1 $-1 $91 $23 #
coedge $-1 $56 $56 $92 $93 reversed $35 $-1 #
face $-1 $94 $95 $19 $-1 $96 reversed single #
loop $-1 $97 $98 $37 #
cone-surface $-1 59.12755919994855 24.358008900117682 4.7658072891574772 0 -0.62932039886446345 -0.77714595512881146 0.75 0 0 1 I I -0.70710678118654757 0.70710678118654757 0.75 forward I I I I #
loop $-1 $-1 $99 $24 #
coedge $-1 $61 $61 $100 $101 reversed $38 $-1 #
face $-1 $102 $103 $15 $-1 $104 reversed single #
loop $-1 $-1 $105 $40 #
plane-surface $-1 0 -32.771331382172299 0 0 1 0 0 0 1 forward_v I I I I #
coedge $-1 $106 $107 $108 $109 forward $41 $-1 #
coedge $-1 $110 $43 $111 $112 forward $26 $-1 #
coedge $-1 $43 $110 $113 $114 forward $26 $-1 #
coedge $-1 $115 $116 $43 $69 reversed $117 $-1 #
edge $-1 $118 -32.771331382172299 $119 32.771331382172299 $68 $120 forward 7 unknown #
face $-1 $121 $122 $16 $-1 $123 reversed single #
loop $-1 $-1 $124 $44 #
plane-surface $-1 0 -18.892162977952452 -3.6826638998516135 0 -1 0 0 0 -1 forward_v I I I I #
coedge $-1 $125 $126 $127 $128 reversed $45 $-1 #
coedge $-1 $129 $47 $130 $131 reversed $29 $-1 #
coedge $-1 $47 $129 $132 $133 reversed $29 $-1 #
coedge $-1 $134 $135 $47 $77 forward $122 $-1 #
edge $-1 $136 -19.85545779214111 $137 -5.9762893879212644 $76 $138 forward 7 unknown #
face $-1 $139 $140 $17 $-1 $141 reversed single #
loop $-1 $-1 $142 $48 #
plane-surface $-1 0 32.771331382172299 0 0 -1 0 0 0 -1 forward_v I I I I #
coedge $-1 $143 $144 $145 $146 reversed $49 $-1 #
coedge $-1 $83 $51 $144 $147 forward $32 $-1 #
coedge $-1 $51 $82 $142 $148 reversed $32 $-1 #
coedge $-1 $149 $145 $51 $85 forward $150 $-1 #
edge $-1 $151 -9.8080805990133548 $152 1.8002101174177447 $84 $153 forward 7 unknown #
face $-1 $154 $155 $18 $-1 $156 forward single #
loop $-1 $-1 $157 $52 #
plane-surface $-1 47.832104344813374 61.942242529509109 143.45916355283572 1 0 0 0 -0.62932039886446345 -0.77714595512881146 forward_v I I I I #
loop $-1 $-1 $158 $34 #
coedge $-1 $90 $90 $91 $159 forward $53 $-1 #
coedge $-1 $91 $91 $90 $159 reversed $55 $-1 #
coedge $-1 $92 $92 $56 $93 forward $155 $-1 #
edge $-1 $160 -1.9081852198707708e-015 $160 6.2831853071795987 $92 $161 forward 7 unknown #
face $-1 $162 $163 $19 $-1 $164 reversed single #
loop $-1 $165 $166 $57 #
cone-surface $-1 52.350286286867444 25.898592611611381 6.6682696947699069 0 -0.62932039886446345 -0.77714595512881146 1.5 0 0 1 I I 0 1 1.5 forward I I I I #
loop $-1 $-1 $167 $37 #
coedge $-1 $98 $98 $99 $168 forward $58 $-1 #
coedge $-1 $99 $99 $98 $168 reversed $60 $-1 #
coedge $-1 $100 $100 $61 $101 forward $169 $-1 #
edge $-1 $170 -1.9081852198707708e-015 $170 6.2831853071795987 $100 $171 forward 7 unknown #
face $-1 $172 $173 $15 $-1 $174 reversed single #
loop $-1 $-1 $175 $62 #
plane-surface $-1 -63.64574114200262 0 0 1 0 0 0 0 -1 forward_v I I I I #
coedge $-1 $176 $113 $177 $178 forward $63 $-1 #
coedge $-1 $179 $65 $176 $180 forward $41 $-1 #
coedge $-1 $65 $179 $181 $182 forward $41 $-1 #
coedge $-1 $116 $115 $65 $109 reversed $117 $-1 #
edge $-1 $183 -32.771331382172299 $184 32.771331382172299 $108 $185 forward 7 unknown #
coedge $-1 $67 $66 $186 $187 forward $26 $-1 #
coedge $-1 $188 $189 $66 $112 reversed $173 $-1 #
edge $-1 $119 -63.64574114200262 $190 63.64574114200262 $111 $191 forward 7 unknown #
coedge $-1 $105 $192 $67 $114 reversed $63 $-1 #
edge $-1 $193 -63.64574114200262 $118 63.64574114200262 $113 $194 forward 7 unknown #
coedge $-1 $108 $68 $192 $195 forward $117 $-1 #
coedge $-1 $68 $108 $188 $196 reversed $117 $-1 #
loop $-1 $-1 $115 $172 #
vertex $-1 $69 $197 #
vertex $-1 $69 $198 #
straight-curve $-1 63.64574114200262 0 12.687976968097553 0 1 0 I I #
face $-1 $199 $200 $16 $-1 $201 reversed single #
loop $-1 $-1 $76 $70 #
plane-surface $-1 63.64574114200262 0 0 -1 0 0 0 0 1 forward_v I I I I #
coedge $-1 $132 $202 $134 $203 reversed $71 $-1 #
coedge $-1 $204 $73 $202 $205 reversed $45 $-1 #
coedge $-1 $73 $204 $206 $207 reversed $45 $-1 #
coedge $-1 $208 $134 $73 $128 forward $122 $-1 #
edge $-1 $209 5.9762893879212644 $210 19.85545779214111 $127 $211 forward 7 unknown #
coedge $-1 $75 $74 $212 $213 reversed $29 $-1 #
coedge $-1 $214 $215 $74 $131 forward $216 $-1 #
edge $-1 $217 -63.64574114200262 $136 63.64574114200262 $130 $218 forward 7 unknown #
coedge $-1 $219 $124 $75 $133 forward $71 $-1 #
edge $-1 $137 -63.64574114200262 $220 63.64574114200262 $132 $221 forward 7 unknown #
coedge $-1 $127 $76 $124 $203 forward $122 $-1 #
coedge $-1 $76 $222 $214 $223 forward $122 $-1 #
vertex $-1 $131 $224 #
vertex $-1 $77 $225 #
straight-curve $-1 63.64574114200262 -12.915873590031188 -1.7658953586430899 0 1 0 I I #
face $-1 $226 $227 $17 $-1 $228 forward single #
loop $-1 $-1 $229 $78 #
plane-surface $-1 0 -25.831747180062376 -1.7658953586430899 0 0 1 1 0 0 forward_v I I I I #
coedge $-1 $230 $231 $83 $148 forward $79 $-1 #
coedge $-1 $232 $81 $233 $234 reversed $49 $-1 #
coedge $-1 $81 $232 $82 $147 reversed $49 $-1 #
coedge $-1 $84 $235 $81 $146 forward $150 $-1 #
edge $-1 $236 -35.776279770298622 $151 -19.962642973109375 $145 $237 forward 7 unknown #
edge $-1 $151 50.605583519678078 $238 65.542662764344584 $82 $239 forward 7 unknown #
edge $-1 $152 59.041604808320308 $238 68.44181347644394 $142 $240 forward 7 unknown #
coedge $-1 $241 $84 $231 $242 forward $150 $-1 #
loop $-1 $-1 $84 $243 #
vertex $-1 $146 $244 #
vertex $-1 $242 $245 #
straight-curve $-1 47.832104344813374 30.971121264754554 12.687976968097558 0 1 0 I I #
face $-1 $246 $247 $18 $-1 $248 reversed single #
loop $-1 $249 $92 $86 #
plane-surface $-1 55.738922743407997 -18.164883873509858 44.535102973470273 0 0.62932039886446345 0.77714595512881146 1 0 0 forward_v I I I I #
coedge $-1 $250 $251 $252 $253 reversed $87 $-1 #
coedge $-1 $158 $158 $-1 $254 forward $89 $-1 #
edge $-1 $255 0 $255 6.2831853071796004 $90 $256 forward 7 unknown #
vertex $-1 $93 $257 #
ellipse-curve $-1 52.350286286867444 26.967186023956742 7.9878726340357407 0 -0.62932039886446345 -0.77714595512881146 1.5 0 0 1 I I #
face $-1 $258 $259 $19 $-1 $260 forward single #
loop $-1 $261 $262 $94 #
cone-surface $-1 52.350286286867444 24.358008900117682 4.7658072891574772 0 -0.62932039886446345 -0.77714595512881146 0.75 0 0 1 I I -0.70710678118654757 0.70710678118654757 0.75 forward I I I I #
loop $-1 $-1 $263 $57 #
coedge $-1 $166 $166 $264 $265 reversed $95 $-1 #
coedge $-1 $167 $167 $-1 $266 forward $97 $-1 #
edge $-1 $267 0 $267 6.2831853071796004 $98 $268 forward 7 unknown #
loop $-1 $269 $100 $258 #
vertex $-1 $101 $270 #
ellipse-curve $-1 59.12755919994855 26.967186023956742 7.9878726340357407 0 -0.62932039886446345 -0.77714595512881146 1.5 0 0 1 I I #
face $-1 $-1 $117 $15 $-1 $271 reversed single #
loop $-1 $-1 $188 $102 #
plane-surface $-1 0 32.771331382172299 0 0 -1 0 0 0 -1 forward_v I I I I #
coedge $-1 $272 $186 $189 $273 forward $103 $-1 #
coedge $-1 $192 $105 $106 $180 reversed $63 $-1 #
coedge $-1 $186 $272 $105 $178 reversed $103 $-1 #
edge $-1 $193 -12.687976968097553 $274 12.687976968097553 $177 $275 forward 7 unknown #
coedge $-1 $107 $106 $272 $276 forward $41 $-1 #
edge $-1 $184 -63.64574114200262 $274 63.64574114200262 $176 $277 forward 7 unknown #
coedge $-1 $189 $188 $107 $182 reversed $173 $-1 #
edge $-1 $278 -63.64574114200262 $183 63.64574114200262 $181 $279 forward 7 unknown #
vertex $-1 $109 $280 #
vertex $-1 $195 $281 #
straight-curve $-1 63.64574114200262 0 -12.687976968097553 0 -1 0 I I #
coedge $-1 $175 $177 $110 $187 reversed $103 $-1 #
edge $-1 $190 -32.771331382172299 $193 32.771331382172299 $186 $282 forward 7 unknown #
coedge $-1 $181 $111 $116 $196 forward $173 $-1 #
coedge $-1 $111 $181 $175 $273 reversed $173 $-1 #
vertex $-1 $112 $283 #
straight-curve $-1 0 32.771331382172299 12.687976968097553 -1 0 0 I I #
coedge $-1 $113 $176 $115 $195 reversed $63 $-1 #
vertex $-1 $187 $284 #
straight-curve $-1 0 -32.771331382172299 12.687976968097553 1 0 0 I I #
edge $-1 $118 -12.687976968097553 $184 12.687976968097553 $115 $285 forward 7 unknown #
edge $-1 $119 -12.687976968097553 $183 12.687976968097553 $116 $286 forward 7 unknown #
point $-1 63.64574114200262 -32.771331382172299 12.687976968097553 #
point $-1 63.64574114200262 32.771331382172299 12.687976968097553 #
face $-1 $287 $288 $16 $-1 $289 forward single #
loop $-1 $-1 $206 $121 #
plane-surface $-1 0 -32.771331382172299 0 0 1 0 0 0 1 forward_v I I I I #
coedge $-1 $124 $219 $125 $205 forward $71 $-1 #
edge $-1 $137 -0.075436591282716847 $209 3.7581004911343303 $134 $290 forward 7 unknown #
coedge $-1 $126 $125 $291 $292 reversed $45 $-1 #
edge $-1 $293 -63.64574114200262 $209 63.64574114200262 $202 $294 forward 7 unknown #
coedge $-1 $295 $296 $126 $207 forward $200 $-1 #
edge $-1 $210 -63.64574114200262 $297 63.64574114200262 $206 $298 forward 7 unknown #
coedge $-1 $299 $127 $296 $300 forward $122 $-1 #
vertex $-1 $128 $301 #
vertex $-1 $300 $302 #
straight-curve $-1 63.64574114200262 -12.915873590031188 -5.599432441060137 0 -1 0 I I #
coedge $-1 $303 $304 $129 $213 forward $305 $-1 #
edge $-1 $220 5.9762893879212644 $217 19.85545779214111 $212 $306 forward 7 unknown #
coedge $-1 $307 $130 $135 $223 reversed $216 $-1 #
coedge $-1 $130 $307 $303 $308 forward $216 $-1 #
loop $-1 $-1 $130 $309 #
vertex $-1 $213 $310 #
straight-curve $-1 0 -32.771331382172299 -1.7658953586430899 1 0 0 I I #
coedge $-1 $202 $132 $304 $311 reversed $71 $-1 #
vertex $-1 $213 $312 #
straight-curve $-1 0 -18.892162977952452 -1.7658953586430899 -1 0 0 I I #
coedge $-1 $135 $313 $314 $315 reversed $122 $-1 #
edge $-1 $316 -12.687976968097553 $136 1.7658953586430899 $135 $317 forward 7 unknown #
point $-1 63.64574114200262 -32.771331382172299 -1.7658953586430899 #
point $-1 63.64574114200262 -18.892162977952452 -1.7658953586430899 #
face $-1 $318 $319 $17 $-1 $320 forward single #
loop $-1 $-1 $321 $139 #
plane-surface $-1 0 -25.831747180062376 -5.599432441060137 0 0 1 1 0 0 forward_v I I I I #
coedge $-1 $322 $323 $324 $325 reversed $140 $-1 #
coedge $-1 $326 $142 $232 $327 forward $79 $-1 #
coedge $-1 $142 $328 $149 $242 reversed $79 $-1 #
coedge $-1 $144 $143 $230 $327 reversed $49 $-1 #
coedge $-1 $329 $330 $143 $234 forward $331 $-1 #
edge $-1 $332 -44.470855367136068 $236 -29.533776122469554 $233 $333 forward 7 unknown #
coedge $-1 $145 $334 $329 $335 forward $150 $-1 #
vertex $-1 $234 $336 #
straight-curve $-1 27.869461371703999 21.1630406657412 12.687976968097551 -1 0 0 I I #
vertex $-1 $327 $337 #
straight-curve $-1 47.832104344813374 -18.164883873509858 44.535102973470273 0 0.77714595512881146 -0.62932039886446345 I I #
straight-curve $-1 47.832104344813374 32.771331382172299 71.729581776417859 0 0 -1 I I #
coedge $-1 $334 $149 $338 $339 forward $150 $-1 #
edge $-1 $152 -47.832104344813374 $340 63.64574114200262 $231 $341 forward 7 unknown #
face $-1 $342 $150 $17 $-1 $343 forward single #
point $-1 47.832104344813374 21.1630406657412 12.687976968097551 #
point $-1 47.832104344813374 32.771331382172299 12.687976968097553 #
face $-1 $344 $345 $18 $-1 $346 reversed single #
loop $-1 $-1 $347 $154 #
plane-surface $-1 0 32.771331382172299 0 0 -1 0 0 0 -1 forward_v I I I I #
loop $-1 $-1 $348 $86 #
coedge $-1 $251 $157 $349 $350 forward $87 $-1 #
coedge $-1 $157 $250 $347 $351 reversed $87 $-1 #
coedge $-1 $352 $353 $157 $253 forward $354 $-1 #
edge $-1 $355 -9.8080805990133548 $356 1.8002101174177447 $252 $357 forward 7 unknown #
edge $-1 $358 1 $358 0 $158 $-1 forward 7 unknown #
vertex $-1 $159 $359 #
ellipse-curve $-1 52.350286286867444 24.82999919926603 5.3486667555040857 0 0.62932039886446345 0.77714595512881146 1.5 0 0 1 I I #
point $-1 53.850286286867444 26.967186023956735 7.9878726340357273 #
face $-1 $360 $169 $19 $-1 $361 forward single #
loop $-1 $-1 $362 $162 #
plane-surface $-1 47.832104344813374 61.942242529509109 143.45916355283572 1 0 0 0 -0.62932039886446345 -0.77714595512881146 forward_v I I I I #
loop $-1 $-1 $363 $94 #
coedge $-1 $262 $262 $263 $364 forward $163 $-1 #
coedge $-1 $263 $263 $262 $364 reversed $165 $-1 #
coedge $-1 $264 $264 $166 $265 forward $269 $-1 #
edge $-1 $365 -1.9081852198707708e-015 $365 6.2831853071795987 $264 $366 forward 7 unknown #
edge $-1 $367 1 $367 0 $167 $-1 forward 7 unknown #
vertex $-1 $168 $368 #
ellipse-curve $-1 59.12755919994855 24.82999919926603 5.3486667555040857 0 0.62932039886446345 0.77714595512881146 1.5 0 0 1 I I #
loop $-1 $369 $264 $258 #
point $-1 60.62755919994855 26.967186023956735 7.9878726340357273 #
plane-surface $-1 63.64574114200262 0 0 -1 0 0 0 0 1 forward_v I I I I #
coedge $-1 $177 $175 $179 $276 reversed $103 $-1 #
edge $-1 $190 -12.687976968097553 $278 12.687976968097553 $189 $370 forward 7 unknown #
vertex $-1 $276 $371 #
straight-curve $-1 -63.64574114200262 -32.771331382172299 0 0 0 -1 I I #
edge $-1 $274 -32.771331382172299 $278 32.771331382172299 $272 $372 forward 7 unknown #
straight-curve $-1 0 -32.771331382172299 -12.687976968097553 -1 0 0 I I #
vertex $-1 $182 $373 #
straight-curve $-1 0 32.771331382172299 -12.687976968097553 1 0 0 I I #
point $-1 63.64574114200262 32.771331382172299 -12.687976968097553 #
point $-1 63.64574114200262 -32.771331382172299 -12.687976968097553 #
straight-curve $-1 -63.64574114200262 0 12.687976968097553 0 -1 0 I I #
point $-1 -63.64574114200262 32.771331382172299 12.687976968097553 #
point $-1 -63.64574114200262 -32.771331382172299 12.687976968097553 #
straight-curve $-1 63.64574114200262 -32.771331382172299 0 0 0 -1 I I #
straight-curve $-1 63.64574114200262 32.771331382172299 0 0 0 -1 I I #
face $-1 $309 $374 $16 $-1 $375 reversed single #
loop $-1 $-1 $314 $199 #
plane-surface $-1 0 0 12.687976968097553 0 0 1 1 0 0 forward_v I I I I #
straight-curve $-1 63.64574114200262 -18.892162977952452 -1.8413319499258067 0 0 -1 I I #
coedge $-1 $304 $376 $204 $292 forward $305 $-1 #
edge $-1 $297 -19.85545779214111 $293 -5.9762893879212644 $291 $377 forward 7 unknown #
vertex $-1 $292 $378 #
straight-curve $-1 0 -18.892162977952452 -5.599432441060137 1 0 0 I I #
coedge $-1 $379 $206 $376 $380 forward $200 $-1 #
coedge $-1 $206 $379 $208 $300 reversed $200 $-1 #
vertex $-1 $380 $381 #
straight-curve $-1 0 -32.771331382172299 -5.599432441060137 -1 0 0 I I #
coedge $-1 $313 $208 $382 $383 reversed $122 $-1 #
edge $-1 $210 5.599432441060137 $384 12.687976968097553 $208 $317 forward 7 unknown #
point $-1 63.64574114200262 -18.892162977952452 -5.599432441060137 #
point $-1 63.64574114200262 -32.771331382172299 -5.599432441060137 #
coedge $-1 $385 $212 $215 $308 reversed $305 $-1 #
coedge $-1 $212 $291 $219 $311 forward $305 $-1 #
loop $-1 $-1 $212 $386 #
straight-curve $-1 -63.64574114200262 -12.915873590031188 -1.7658953586430899 0 -1 0 I I #
coedge $-1 $215 $214 $387 $388 reversed $216 $-1 #
edge $-1 $389 -12.687976968097553 $217 1.7658953586430899 $303 $390 forward 7 unknown #
face $-1 $386 $216 $16 $-1 $201 reversed single #
point $-1 -63.64574114200262 -32.771331382172299 -1.7658953586430899 #
edge $-1 $293 -3.7581004911343303 $220 0.075436591282716847 $304 $391 forward 7 unknown #
point $-1 -63.64574114200262 -18.892162977952452 -1.7658953586430899 #
coedge $-1 $222 $299 $392 $393 reversed $122 $-1 #
coedge $-1 $394 $387 $222 $315 forward $288 $-1 #
edge $-1 $316 -32.771331382172299 $395 32.771331382172299 $222 $396 forward 7 unknown #
vertex $-1 $315 $397 #
straight-curve $-1 63.64574114200262 -32.771331382172299 0 0 0 -1 I I #
face $-1 $398 $331 $17 $-1 $399 reversed single #
loop $-1 $-1 $400 $226 #
plane-surface $-1 0 -18.892162977952452 -3.6826638998516135 0 -1 0 0 0 -1 forward_v I I I I #
coedge $-1 $401 $402 $403 $404 reversed $227 $-1 #
coedge $-1 $405 $229 $406 $407 reversed $140 $-1 #
coedge $-1 $229 $405 $408 $409 reversed $140 $-1 #
coedge $-1 $410 $411 $229 $325 forward $331 $-1 #
edge $-1 $412 -19.85545779214111 $413 -5.9762893879212644 $324 $414 forward 7 unknown #
coedge $-1 $415 $230 $330 $416 forward $79 $-1 #
edge $-1 $238 19.962642973109375 $332 35.776279770298622 $230 $417 forward 7 unknown #
coedge $-1 $231 $415 $418 $419 reversed $79 $-1 #
coedge $-1 $411 $233 $235 $335 reversed $331 $-1 #
coedge $-1 $233 $420 $326 $416 reversed $331 $-1 #
loop $-1 $-1 $233 $318 #
vertex $-1 $416 $421 #
straight-curve $-1 63.64574114200262 -1.7890139875158928 31.274184737463862 0 -0.77714595512881146 0.62932039886446345 I I #
coedge $-1 $235 $241 $422 $423 forward $150 $-1 #
edge $-1 $424 -32.771331382172299 $236 21.163040665741192 $329 $425 forward 7 unknown #
point $-1 63.64574114200262 21.163040665741192 12.687976968097553 #
point $-1 47.832104344813374 32.771331382172299 3.2877682999739264 #
coedge $-1 $418 $426 $241 $339 reversed $427 $-1 #
edge $-1 $340 -32.771331382172299 $428 32.771331382172299 $338 $429 forward 7 unknown #
vertex $-1 $242 $430 #
straight-curve $-1 0 32.771331382172299 12.687976968097553 -1 0 0 I I #
face $-1 $431 $432 $17 $-1 $433 reversed single #
plane-surface $-1 0 0 12.687976968097553 0 0 1 1 0 0 forward_v I I I I #
face $-1 $434 $435 $18 $-1 $436 forward single #
loop $-1 $-1 $437 $246 #
plane-surface $-1 0 -25.831747180062376 -1.7658953586430899 0 0 1 1 0 0 forward_v I I I I #
coedge $-1 $438 $439 $251 $351 forward $247 $-1 #
coedge $-1 $440 $349 $353 $441 reversed $249 $-1 #
coedge $-1 $348 $442 $250 $350 reversed $249 $-1 #
edge $-1 $355 50.605583519678078 $443 65.542662764344584 $250 $444 forward 7 unknown #
edge $-1 $356 59.041604808320308 $443 68.44181347644394 $347 $445 forward 7 unknown #
coedge $-1 $446 $252 $439 $447 forward $354 $-1 #
coedge $-1 $252 $448 $348 $441 forward $354 $-1 #
loop $-1 $-1 $252 $449 #
vertex $-1 $441 $450 #
vertex $-1 $447 $451 #
straight-curve $-1 47.832104344813374 30.971121264754554 12.687976968097558 0 1 0 I I #
vertex $-1 $254 $452 #
point $-1 53.850286286867444 24.82999919926603 5.3486667555040857 #
face $-1 $453 $454 $19 $-1 $455 reversed single #
plane-surface $-1 55.738922743407997 -18.164883873509858 44.535102973470273 0 0.62932039886446345 0.77714595512881146 1 0 0 forward_v I I I I #
coedge $-1 $456 $457 $458 $459 reversed $259 $-1 #
coedge $-1 $363 $363 $-1 $460 forward $261 $-1 #
edge $-1 $461 0 $461 6.2831853071796004 $262 $462 forward 7 unknown #
vertex $-1 $265 $463 #
ellipse-curve $-1 52.350286286867444 26.967186023956742 7.9878726340357407 0 -0.62932039886446345 -0.77714595512881146 1.5 0 0 1 I I #
vertex $-1 $266 $464 #
point $-1 60.62755919994855 24.82999919926603 5.3486667555040857 #
loop $-1 $-1 $465 $258 #
straight-curve $-1 -63.64574114200262 32.771331382172299 0 0 0 -1 I I #
point $-1 -63.64574114200262 -32.771331382172299 -12.687976968097553 #
straight-curve $-1 -63.64574114200262 0 -12.687976968097553 0 1 0 I I #
point $-1 -63.64574114200262 32.771331382172299 -12.687976968097553 #
loop $-1 $-1 $382 $287 #
plane-surface $-1 0 0 -12.687976968097553 0 0 1 1 0 0 forward_v I I I I #
coedge $-1 $291 $466 $295 $380 reversed $305 $-1 #
straight-curve $-1 -63.64574114200262 -12.915873590031188 -5.599432441060137 0 1 0 I I #
point $-1 -63.64574114200262 -18.892162977952452 -5.599432441060137 #
coedge $-1 $296 $295 $467 $468 reversed $200 $-1 #
edge $-1 $297 5.599432441060137 $469 12.687976968097553 $376 $390 forward 7 unknown #
point $-1 -63.64574114200262 -32.771331382172299 -5.599432441060137 #
coedge $-1 $467 $470 $299 $383 forward $374 $-1 #
edge $-1 $471 -32.771331382172299 $384 32.771331382172299 $299 $472 forward 7 unknown #
vertex $-1 $300 $473 #
coedge $-1 $474 $303 $475 $476 reversed $305 $-1 #
face $-1 $477 $305 $16 $-1 $478 reversed single #
coedge $-1 $314 $475 $307 $388 forward $288 $-1 #
edge $-1 $389 -63.64574114200262 $316 63.64574114200262 $307 $479 forward 7 unknown #
vertex $-1 $476 $480 #
straight-curve $-1 -63.64574114200262 -32.771331382172299 0 0 0 -1 I I #
straight-curve $-1 -63.64574114200262 -18.892162977952452 -1.8413319499258067 0 0 1 I I #
coedge $-1 $481 $482 $313 $393 forward $483 $-1 #
edge $-1 $395 -12.687976968097553 $471 12.687976968097553 $313 $484 forward 7 unknown #
coedge $-1 $475 $314 $482 $485 forward $288 $-1 #
vertex $-1 $315 $486 #
straight-curve $-1 63.64574114200262 0 12.687976968097553 0 1 0 I I #
point $-1 63.64574114200262 -32.771331382172299 12.687976968097553 #
face $-1 $243 $487 $17 $-1 $488 reversed single #
plane-surface $-1 63.64574114200262 0 0 -1 0 0 0 0 1 forward_v I I I I #
coedge $-1 $408 $489 $410 $490 reversed $319 $-1 #
coedge $-1 $491 $321 $489 $492 reversed $227 $-1 #
coedge $-1 $321 $491 $493 $494 reversed $227 $-1 #
coedge $-1 $495 $410 $321 $404 forward $331 $-1 #
edge $-1 $496 5.9762893879212644 $497 19.85545779214111 $403 $498 forward 7 unknown #
coedge $-1 $323 $322 $499 $500 reversed $140 $-1 #
coedge $-1 $501 $502 $322 $407 forward $503 $-1 #
edge $-1 $504 -63.64574114200262 $412 63.64574114200262 $406 $505 forward 7 unknown #
coedge $-1 $506 $400 $323 $409 forward $319 $-1 #
edge $-1 $413 -63.64574114200262 $507 63.64574114200262 $408 $508 forward 7 unknown #
coedge $-1 $403 $324 $400 $490 forward $331 $-1 #
coedge $-1 $324 $329 $501 $509 forward $331 $-1 #
vertex $-1 $407 $510 #
vertex $-1 $325 $511 #
straight-curve $-1 63.64574114200262 -12.915873590031188 -1.7658953586430899 0 1 0 I I #
coedge $-1 $328 $326 $512 $513 reversed $79 $-1 #
edge $-1 $332 -3.2877682999739291 $514 12.687976968097553 $330 $515 forward 7 unknown #
straight-curve $-1 27.869461371703999 32.771331382172292 3.2877682999739264 1 0 0 I I #
coedge $-1 $516 $338 $328 $419 forward $427 $-1 #
edge $-1 $340 -12.687976968097553 $517 12.687976968097553 $328 $518 forward 7 unknown #
coedge $-1 $330 $495 $519 $520 reversed $331 $-1 #
point $-1 63.64574114200262 32.771331382172299 3.2877682999739291 #
coedge $-1 $502 $501 $334 $423 reversed $503 $-1 #
edge $-1 $428 -63.64574114200262 $424 63.64574114200262 $422 $521 forward 7 unknown #
vertex $-1 $335 $522 #
straight-curve $-1 63.64574114200262 0 12.687976968097553 0 1 0 I I #
coedge $-1 $338 $499 $502 $523 reversed $427 $-1 #
loop $-1 $-1 $499 $524 #
vertex $-1 $339 $525 #
straight-curve $-1 -63.64574114200262 0 12.687976968097553 0 -1 0 I I #
point $-1 -63.64574114200262 32.771331382172299 12.687976968097553 #
face $-1 $524 $503 $17 $-1 $488 reversed single #
loop $-1 $-1 $519 $342 #
plane-surface $-1 0 0 -12.687976968097553 0 0 1 1 0 0 forward_v I I I I #
face $-1 $526 $527 $18 $-1 $528 forward single #
loop $-1 $-1 $529 $344 #
plane-surface $-1 0 -25.831747180062376 -5.599432441060137 0 0 1 1 0 0 forward_v I I I I #
coedge $-1 $530 $531 $532 $533 reversed $345 $-1 #
coedge $-1 $534 $347 $442 $535 forward $247 $-1 #
coedge $-1 $347 $536 $352 $447 reversed $247 $-1 #
coedge $-1 $442 $348 $537 $538 reversed $249 $-1 #
edge $-1 $539 -35.776279770298622 $355 -19.962642973109375 $353 $540 forward 7 unknown #
coedge $-1 $349 $440 $438 $535 reversed $249 $-1 #
vertex $-1 $535 $541 #
straight-curve $-1 47.832104344813374 -18.164883873509858 44.535102973470273 0 0.77714595512881146 -0.62932039886446345 I I #
straight-curve $-1 47.832104344813374 32.771331382172299 71.729581776417859 0 0 -1 I I #
coedge $-1 $542 $352 $543 $544 forward $354 $-1 #
edge $-1 $356 -47.832104344813374 $545 63.64574114200262 $439 $546 forward 7 unknown #
coedge $-1 $353 $542 $547 $548 forward $354 $-1 #
face $-1 $549 $354 $18 $-1 $550 forward single #
point $-1 47.832104344813374 21.1630406657412 12.687976968097551 #
point $-1 47.832104344813374 32.771331382172299 12.687976968097553 #
point $-1 52.350286286867444 23.886018600969333 4.1829478228108687 #
face $-1 $551 $552 $19 $-1 $553 reversed single #
loop $-1 $-1 $554 $360 #
plane-surface $-1 0 32.771331382172299 0 0 -1 0 0 0 -1 forward_v I I I I #
coedge $-1 $457 $362 $555 $556 forward $259 $-1 #
coedge $-1 $362 $456 $554 $557 reversed $259 $-1 #
coedge $-1 $558 $559 $362 $459 forward $560 $-1 #
edge $-1 $561 -9.8080805990133548 $562 1.8002101174177447 $458 $563 forward 7 unknown #
edge $-1 $564 1 $564 0 $363 $-1 forward 7 unknown #
vertex $-1 $364 $565 #
ellipse-curve $-1 52.350286286867444 24.82999919926603 5.3486667555040857 0 0.62932039886446345 0.77714595512881146 1.5 0 0 1 I I #
point $-1 53.850286286867444 26.967186023956735 7.9878726340357273 #
point $-1 59.12755919994855 23.886018600969333 4.1829478228108687 #
coedge $-1 $566 $555 $559 $567 reversed $369 $-1 #
coedge $-1 $376 $474 $568 $569 reversed $305 $-1 #
coedge $-1 $568 $382 $379 $468 forward $374 $-1 #
edge $-1 $384 -63.64574114200262 $469 63.64574114200262 $379 $570 forward 7 unknown #
vertex $-1 $569 $571 #
coedge $-1 $382 $568 $481 $572 forward $374 $-1 #
vertex $-1 $383 $573 #
straight-curve $-1 63.64574114200262 0 -12.687976968097553 0 -1 0 I I #
point $-1 63.64574114200262 -32.771331382172299 -12.687976968097553 #
coedge $-1 $466 $385 $574 $575 forward $305 $-1 #
coedge $-1 $387 $394 $385 $476 forward $288 $-1 #
edge $-1 $576 -32.771331382172299 $389 32.771331382172299 $385 $577 forward 7 unknown #
face $-1 $-1 $483 $16 $-1 $578 reversed single #
plane-surface $-1 -63.64574114200262 0 0 1 0 0 0 0 -1 forward_v I I I I #
straight-curve $-1 0 -32.771331382172299 12.687976968097553 1 0 0 I I #
point $-1 -63.64574114200262 -32.771331382172299 12.687976968097553 #
coedge $-1 $574 $392 $470 $572 reversed $483 $-1 #
coedge $-1 $392 $574 $394 $485 reversed $483 $-1 #
loop $-1 $-1 $392 $477 #
straight-curve $-1 63.64574114200262 32.771331382172299 0 0 0 -1 I I #
edge $-1 $395 -63.64574114200262 $576 63.64574114200262 $482 $579 forward 7 unknown #
point $-1 63.64574114200262 32.771331382172299 12.687976968097553 #
loop $-1 $-1 $493 $398 #
plane-surface $-1 0 -32.771331382172299 0 0 1 0 0 0 1 forward_v I I I I #
coedge $-1 $400 $506 $401 $492 forward $319 $-1 #
edge $-1 $413 -0.075436591282716847 $496 3.7581004911343303 $410 $580 forward 7 unknown #
coedge $-1 $402 $401 $581 $582 reversed $227 $-1 #
edge $-1 $583 -63.64574114200262 $496 63.64574114200262 $489 $584 forward 7 unknown #
coedge $-1 $585 $586 $402 $494 forward $487 $-1 #
edge $-1 $497 -63.64574114200262 $587 63.64574114200262 $493 $588 forward 7 unknown #
coedge $-1 $420 $403 $586 $589 forward $331 $-1 #
vertex $-1 $404 $590 #
vertex $-1 $589 $591 #
straight-curve $-1 63.64574114200262 -12.915873590031188 -5.599432441060137 0 -1 0 I I #
coedge $-1 $426 $592 $405 $500 forward $427 $-1 #
edge $-1 $507 5.9762893879212644 $504 19.85545779214111 $499 $593 forward 7 unknown #
coedge $-1 $422 $406 $411 $509 reversed $503 $-1 #
coedge $-1 $406 $422 $426 $523 forward $503 $-1 #
loop $-1 $-1 $406 $431 #
vertex $-1 $500 $594 #
straight-curve $-1 0 -32.771331382172299 -1.7658953586430899 1 0 0 I I #
coedge $-1 $489 $408 $592 $595 reversed $319 $-1 #
vertex $-1 $500 $596 #
straight-curve $-1 0 -18.892162977952452 -1.7658953586430899 -1 0 0 I I #
edge $-1 $424 -12.687976968097553 $412 1.7658953586430899 $411 $597 forward 7 unknown #
point $-1 63.64574114200262 -32.771331382172299 -1.7658953586430899 #
point $-1 63.64574114200262 -18.892162977952452 -1.7658953586430899 #
coedge $-1 $519 $598 $415 $513 forward $432 $-1 #
edge $-1 $517 -63.64574114200262 $514 63.64574114200262 $415 $599 forward 7 unknown #
vertex $-1 $520 $600 #
straight-curve $-1 63.64574114200262 32.771331382172299 0 0 0 -1 I I #
coedge $-1 $601 $418 $598 $602 reversed $427 $-1 #
vertex $-1 $513 $603 #
straight-curve $-1 -63.64574114200262 32.771331382172299 0 0 0 -1 I I #
coedge $-1 $604 $512 $420 $520 forward $432 $-1 #
edge $-1 $514 -32.771331382172299 $605 32.771331382172299 $420 $606 forward 7 unknown #
straight-curve $-1 0 -32.771331382172299 12.687976968097553 1 0 0 I I #
point $-1 63.64574114200262 -32.771331382172299 12.687976968097553 #
edge $-1 $428 -12.687976968097553 $504 1.7658953586430899 $426 $607 forward 7 unknown #
face $-1 $-1 $427 $17 $-1 $608 reversed single #
point $-1 -63.64574114200262 -32.771331382172299 12.687976968097553 #
face $-1 $609 $610 $18 $-1 $611 reversed single #
loop $-1 $-1 $612 $434 #
plane-surface $-1 0 -18.892162977952452 -3.6826638998516135 0 -1 0 0 0 -1 forward_v I I I I #
coedge $-1 $613 $614 $615 $616 reversed $435 $-1 #
coedge $-1 $617 $437 $618 $619 reversed $345 $-1 #
coedge $-1 $437 $617 $620 $621 reversed $345 $-1 #
coedge $-1 $622 $623 $437 $533 forward $610 $-1 #
edge $-1 $624 -19.85545779214111 $625 -5.9762893879212644 $532 $626 forward 7 unknown #
coedge $-1 $627 $438 $628 $629 forward $247 $-1 #
edge $-1 $443 19.962642973109375 $630 35.776279770298622 $438 $631 forward 7 unknown #
coedge $-1 $439 $627 $632 $633 reversed $247 $-1 #
coedge $-1 $547 $628 $440 $538 forward $610 $-1 #
edge $-1 $630 -44.470855367136068 $539 -29.533776122469554 $537 $634 forward 7 unknown #
vertex $-1 $538 $635 #
straight-curve $-1 27.869461371703999 21.1630406657412 12.687976968097551 -1 0 0 I I #
point $-1 47.832104344813374 32.771331382172299 3.2877682999739264 #
coedge $-1 $448 $446 $636 $637 forward $354 $-1 #
coedge $-1 $632 $638 $446 $544 reversed $639 $-1 #
edge $-1 $545 -32.771331382172299 $640 32.771331382172299 $543 $641 forward 7 unknown #
vertex $-1 $447 $642 #
straight-curve $-1 0 32.771331382172299 12.687976968097553 -1 0 0 I I #
coedge $-1 $623 $537 $448 $548 reversed $610 $-1 #
edge $-1 $643 -32.771331382172299 $539 21.163040665741192 $547 $644 forward 7 unknown #
face $-1 $645 $646 $18 $-1 $647 reversed single #
plane-surface $-1 0 0 12.687976968097553 0 0 1 1 0 0 forward_v I I I I #
face $-1 $648 $649 $19 $-1 $650 forward single #
loop $-1 $-1 $651 $453 #
plane-surface $-1 0 -25.831747180062376 -1.7658953586430899 0 0 1 1 0 0 forward_v I I I I #
coedge $-1 $652 $653 $457 $557 forward $454 $-1 #
coedge $-1 $465 $654 $456 $556 reversed $369 $-1 #
edge $-1 $561 50.605583519678078 $655 65.542662764344584 $456 $656 forward 7 unknown #
edge $-1 $562 59.041604808320308 $655 68.44181347644394 $554 $657 forward 7 unknown #
coedge $-1 $658 $458 $653 $659 forward $560 $-1 #
coedge $-1 $458 $660 $465 $567 forward $560 $-1 #
loop $-1 $-1 $458 $661 #
vertex $-1 $567 $662 #
vertex $-1 $659 $663 #
straight-curve $-1 47.832104344813374 30.971121264754554 12.687976968097558 0 1 0 I I #
vertex $-1 $460 $664 #
point $-1 53.850286286867444 24.82999919926603 5.3486667555040857 #
coedge $-1 $654 $465 $665 $666 reversed $369 $-1 #
edge $-1 $667 -35.776279770298622 $561 -19.962642973109375 $559 $668 forward 7 unknown #
coedge $-1 $470 $467 $466 $569 forward $374 $-1 #
edge $-1 $469 -32.771331382172299 $669 32.771331382172299 $466 $670 forward 7 unknown #
straight-curve $-1 0 -32.771331382172299 -12.687976968097553 -1 0 0 I I #
point $-1 -63.64574114200262 -32.771331382172299 -12.687976968097553 #
edge $-1 $669 -63.64574114200262 $471 63.64574114200262 $481 $671 forward 7 unknown #
point $-1 63.64574114200262 32.771331382172299 -12.687976968097553 #
coedge $-1 $482 $481 $474 $575 reversed $483 $-1 #
edge $-1 $576 -12.687976968097553 $669 12.687976968097553 $574 $672 forward 7 unknown #
vertex $-1 $485 $673 #
straight-curve $-1 -63.64574114200262 0 12.687976968097553 0 -1 0 I I #
plane-surface $-1 0 32.771331382172299 0 0 -1 0 0 0 -1 forward_v I I I I #
straight-curve $-1 0 32.771331382172299 12.687976968097553 -1 0 0 I I #
straight-curve $-1 63.64574114200262 -18.892162977952452 -1.8413319499258067 0 0 -1 I I #
coedge $-1 $592 $601 $491 $582 forward $427 $-1 #
edge $-1 $587 -19.85545779214111 $583 -5.9762893879212644 $581 $674 forward 7 unknown #
vertex $-1 $582 $675 #
straight-curve $-1 0 -18.892162977952452 -5.599432441060137 1 0 0 I I #
coedge $-1 $676 $493 $601 $677 forward $487 $-1 #
coedge $-1 $493 $676 $495 $589 reversed $487 $-1 #
vertex $-1 $677 $678 #
straight-curve $-1 0 -32.771331382172299 -5.599432441060137 -1 0 0 I I #
edge $-1 $497 5.599432441060137 $605 12.687976968097553 $495 $597 forward 7 unknown #
point $-1 63.64574114200262 -18.892162977952452 -5.599432441060137 #
point $-1 63.64574114200262 -32.771331382172299 -5.599432441060137 #
coedge $-1 $499 $581 $506 $595 forward $427 $-1 #
straight-curve $-1 -63.64574114200262 -12.915873590031188 -1.7658953586430899 0 -1 0 I I #
point $-1 -63.64574114200262 -32.771331382172299 -1.7658953586430899 #
edge $-1 $583 -3.7581004911343303 $507 0.075436591282716847 $592 $679 forward 7 unknown #
point $-1 -63.64574114200262 -18.892162977952452 -1.7658953586430899 #
straight-curve $-1 63.64574114200262 -32.771331382172299 0 0 0 -1 I I #
coedge $-1 $512 $604 $516 $602 forward $432 $-1 #
straight-curve $-1 0 32.771331382172299 -12.687976968097553 1 0 0 I I #
point $-1 63.64574114200262 32.771331382172299 -12.687976968097553 #
coedge $-1 $581 $516 $585 $677 reversed $427 $-1 #
edge $-1 $680 -32.771331382172299 $517 32.771331382172299 $516 $681 forward 7 unknown #
point $-1 -63.64574114200262 32.771331382172299 -12.687976968097553 #
coedge $-1 $598 $519 $676 $682 forward $432 $-1 #
vertex $-1 $589 $683 #
straight-curve $-1 63.64574114200262 0 -12.687976968097553 0 -1 0 I I #
straight-curve $-1 -63.64574114200262 -32.771331382172299 0 0 0 -1 I I #
plane-surface $-1 -63.64574114200262 0 0 1 0 0 0 0 -1 forward_v I I I I #
face $-1 $449 $684 $18 $-1 $685 reversed single #
loop $-1 $-1 $537 $526 #
plane-surface $-1 63.64574114200262 0 0 -1 0 0 0 0 1 forward_v I I I I #
coedge $-1 $620 $686 $622 $687 reversed $527 $-1 #
coedge $-1 $688 $529 $686 $689 reversed $435 $-1 #
coedge $-1 $529 $688 $690 $691 reversed $435 $-1 #
coedge $-1 $692 $622 $529 $616 forward $610 $-1 #
edge $-1 $693 5.9762893879212644 $694 19.85545779214111 $615 $695 forward 7 unknown #
coedge $-1 $531 $530 $696 $697 reversed $345 $-1 #
coedge $-1 $698 $699 $530 $619 forward $700 $-1 #
edge $-1 $701 -63.64574114200262 $624 63.64574114200262 $618 $702 forward 7 unknown #
coedge $-1 $703 $612 $531 $621 forward $527 $-1 #
edge $-1 $625 -63.64574114200262 $704 63.64574114200262 $620 $705 forward 7 unknown #
coedge $-1 $615 $532 $612 $687 forward $610 $-1 #
coedge $-1 $532 $547 $698 $706 forward $610 $-1 #
vertex $-1 $619 $707 #
vertex $-1 $533 $708 #
straight-curve $-1 63.64574114200262 -12.915873590031188 -1.7658953586430899 0 1 0 I I #
coedge $-1 $536 $534 $709 $710 reversed $247 $-1 #
coedge $-1 $537 $711 $534 $629 reversed $610 $-1 #
edge $-1 $630 -3.2877682999739291 $712 12.687976968097553 $628 $713 forward 7 unknown #
vertex $-1 $629 $714 #
straight-curve $-1 27.869461371703999 32.771331382172292 3.2877682999739264 1 0 0 I I #
coedge $-1 $715 $543 $536 $633 forward $639 $-1 #
edge $-1 $545 -12.687976968097553 $716 12.687976968097553 $536 $717 forward 7 unknown #
straight-curve $-1 63.64574114200262 -1.7890139875158928 31.274184737463862 0 -0.77714595512881146 0.62932039886446345 I I #
point $-1 63.64574114200262 21.163040665741192 12.687976968097553 #
coedge $-1 $699 $698 $542 $637 reversed $700 $-1 #
edge $-1 $640 -63.64574114200262 $643 63.64574114200262 $636 $718 forward 7 unknown #
coedge $-1 $543 $696 $699 $719 reversed $639 $-1 #
loop $-1 $-1 $696 $720 #
vertex $-1 $544 $721 #
straight-curve $-1 -63.64574114200262 0 12.687976968097553 0 -1 0 I I #
point $-1 -63.64574114200262 32.771331382172299 12.687976968097553 #
vertex $-1 $548 $722 #
straight-curve $-1 63.64574114200262 0 12.687976968097553 0 1 0 I I #
face $-1 $720 $700 $18 $-1 $685 reversed single #
loop $-1 $-1 $723 $549 #
plane-surface $-1 0 0 -12.687976968097553 0 0 1 1 0 0 forward_v I I I I #
face $-1 $724 $725 $19 $-1 $726 forward single #
loop $-1 $-1 $727 $551 #
plane-surface $-1 0 -25.831747180062376 -5.599432441060137 0 0 1 1 0 0 forward_v I I I I #
coedge $-1 $728 $729 $730 $731 reversed $552 $-1 #
coedge $-1 $732 $554 $654 $733 forward $454 $-1 #
coedge $-1 $554 $734 $558 $659 reversed $454 $-1 #
coedge $-1 $555 $566 $652 $733 reversed $369 $-1 #
vertex $-1 $733 $735 #
straight-curve $-1 47.832104344813374 -18.164883873509858 44.535102973470273 0 0.77714595512881146 -0.62932039886446345 I I #
straight-curve $-1 47.832104344813374 32.771331382172299 71.729581776417859 0 0 -1 I I #
coedge $-1 $736 $558 $737 $738 forward $560 $-1 #
edge $-1 $562 -47.832104344813374 $739 63.64574114200262 $653 $740 forward 7 unknown #
coedge $-1 $559 $736 $741 $742 forward $560 $-1 #
face $-1 $743 $560 $19 $-1 $744 forward single #
point $-1 47.832104344813374 21.1630406657412 12.687976968097551 #
point $-1 47.832104344813374 32.771331382172299 12.687976968097553 #
point $-1 52.350286286867444 23.886018600969333 4.1829478228108687 #
coedge $-1 $741 $745 $566 $666 forward $746 $-1 #
edge $-1 $747 -44.470855367136068 $667 -29.533776122469554 $665 $748 forward 7 unknown #
vertex $-1 $666 $749 #
straight-curve $-1 27.869461371703999 21.1630406657412 12.687976968097551 -1 0 0 I I #
vertex $-1 $572 $750 #
straight-curve $-1 -63.64574114200262 0 -12.687976968097553 0 1 0 I I #
straight-curve $-1 0 32.771331382172299 -12.687976968097553 1 0 0 I I #
straight-curve $-1 -63.64574114200262 32.771331382172299 0 0 0 -1 I I #
point $-1 -63.64574114200262 32.771331382172299 12.687976968097553 #
straight-curve $-1 -63.64574114200262 -12.915873590031188 -5.599432441060137 0 1 0 I I #
point $-1 -63.64574114200262 -18.892162977952452 -5.599432441060137 #
coedge $-1 $586 $585 $604 $682 reversed $487 $-1 #
edge $-1 $587 5.599432441060137 $680 12.687976968097553 $601 $607 forward 7 unknown #
point $-1 -63.64574114200262 -32.771331382172299 -5.599432441060137 #
straight-curve $-1 -63.64574114200262 -18.892162977952452 -1.8413319499258067 0 0 1 I I #
vertex $-1 $602 $751 #
straight-curve $-1 -63.64574114200262 0 -12.687976968097553 0 1 0 I I #
edge $-1 $605 -63.64574114200262 $680 63.64574114200262 $676 $752 forward 7 unknown #
point $-1 63.64574114200262 -32.771331382172299 -12.687976968097553 #
loop $-1 $-1 $690 $609 #
plane-surface $-1 0 -32.771331382172299 0 0 1 0 0 0 1 forward_v I I I I #
coedge $-1 $612 $703 $613 $689 forward $527 $-1 #
edge $-1 $625 -0.075436591282716847 $693 3.7581004911343303 $622 $753 forward 7 unknown #
coedge $-1 $614 $613 $754 $755 reversed $435 $-1 #
edge $-1 $756 -63.64574114200262 $693 63.64574114200262 $686 $757 forward 7 unknown #
coedge $-1 $758 $759 $614 $691 forward $684 $-1 #
edge $-1 $694 -63.64574114200262 $760 63.64574114200262 $690 $761 forward 7 unknown #
coedge $-1 $711 $615 $759 $762 forward $610 $-1 #
vertex $-1 $616 $763 #
vertex $-1 $762 $764 #
straight-curve $-1 63.64574114200262 -12.915873590031188 -5.599432441060137 0 -1 0 I I #
coedge $-1 $638 $765 $617 $697 forward $639 $-1 #
edge $-1 $704 5.9762893879212644 $701 19.85545779214111 $696 $766 forward 7 unknown #
coedge $-1 $636 $618 $623 $706 reversed $700 $-1 #
coedge $-1 $618 $636 $638 $719 forward $700 $-1 #
loop $-1 $-1 $618 $645 #
vertex $-1 $697 $767 #
straight-curve $-1 0 -32.771331382172299 -1.7658953586430899 1 0 0 I I #
coedge $-1 $686 $620 $765 $768 reversed $527 $-1 #
vertex $-1 $697 $769 #
straight-curve $-1 0 -18.892162977952452 -1.7658953586430899 -1 0 0 I I #
edge $-1 $643 -12.687976968097553 $624 1.7658953586430899 $623 $770 forward 7 unknown #
point $-1 63.64574114200262 -32.771331382172299 -1.7658953586430899 #
point $-1 63.64574114200262 -18.892162977952452 -1.7658953586430899 #
coedge $-1 $723 $771 $627 $710 forward $646 $-1 #
edge $-1 $716 -63.64574114200262 $712 63.64574114200262 $627 $772 forward 7 unknown #
coedge $-1 $628 $692 $723 $773 reversed $610 $-1 #
vertex $-1 $773 $774 #
straight-curve $-1 63.64574114200262 32.771331382172299 0 0 0 -1 I I #
point $-1 63.64574114200262 32.771331382172299 3.2877682999739291 #
coedge $-1 $775 $632 $771 $776 reversed $639 $-1 #
vertex $-1 $710 $777 #
straight-curve $-1 -63.64574114200262 32.771331382172299 0 0 0 -1 I I #
straight-curve $-1 0 -32.771331382172299 12.687976968097553 1 0 0 I I #
edge $-1 $640 -12.687976968097553 $701 1.7658953586430899 $638 $778 forward 7 unknown #
face $-1 $-1 $639 $18 $-1 $779 reversed single #
point $-1 -63.64574114200262 -32.771331382172299 12.687976968097553 #
point $-1 63.64574114200262 -32.771331382172299 12.687976968097553 #
coedge $-1 $780 $709 $711 $773 forward $646 $-1 #
face $-1 $781 $746 $19 $-1 $782 reversed single #
loop $-1 $-1 $783 $648 #
plane-surface $-1 0 -18.892162977952452 -3.6826638998516135 0 -1 0 0 0 -1 forward_v I I I I #
coedge $-1 $784 $785 $786 $787 reversed $649 $-1 #
coedge $-1 $788 $651 $789 $790 reversed $552 $-1 #
coedge $-1 $651 $788 $791 $792 reversed $552 $-1 #
coedge $-1 $793 $794 $651 $731 forward $746 $-1 #
edge $-1 $795 -19.85545779214111 $796 -5.9762893879212644 $730 $797 forward 7 unknown #
coedge $-1 $798 $652 $745 $799 forward $454 $-1 #
edge $-1 $655 19.962642973109375 $747 35.776279770298622 $652 $800 forward 7 unknown #
coedge $-1 $653 $798 $801 $802 reversed $454 $-1 #
point $-1 47.832104344813374 32.771331382172299 3.2877682999739264 #
coedge $-1 $660 $658 $803 $804 forward $560 $-1 #
coedge $-1 $801 $805 $658 $738 reversed $806 $-1 #
edge $-1 $739 -32.771331382172299 $807 32.771331382172299 $737 $808 forward 7 unknown #
vertex $-1 $659 $809 #
straight-curve $-1 0 32.771331382172299 12.687976968097553 -1 0 0 I I #
coedge $-1 $794 $665 $660 $742 reversed $746 $-1 #
edge $-1 $810 -32.771331382172299 $667 21.163040665741192 $741 $811 forward 7 unknown #
face $-1 $812 $813 $19 $-1 $814 reversed single #
plane-surface $-1 0 0 12.687976968097553 0 0 1 1 0 0 forward_v I I I I #
coedge $-1 $665 $815 $732 $799 reversed $746 $-1 #
loop $-1 $-1 $665 $724 #
vertex $-1 $799 $816 #
straight-curve $-1 63.64574114200262 -1.7890139875158928 31.274184737463862 0 -0.77714595512881146 0.62932039886446345 I I #
point $-1 63.64574114200262 21.163040665741192 12.687976968097553 #
point $-1 -63.64574114200262 32.771331382172299 -12.687976968097553 #
point $-1 -63.64574114200262 -32.771331382172299 -12.687976968097553 #
straight-curve $-1 0 -32.771331382172299 -12.687976968097553 -1 0 0 I I #
straight-curve $-1 63.64574114200262 -18.892162977952452 -1.8413319499258067 0 0 -1 I I #
coedge $-1 $765 $775 $688 $755 forward $639 $-1 #
edge $-1 $760 -19.85545779214111 $756 -5.9762893879212644 $754 $817 forward 7 unknown #
vertex $-1 $755 $818 #
straight-curve $-1 0 -18.892162977952452 -5.599432441060137 1 0 0 I I #
coedge $-1 $819 $690 $775 $820 forward $684 $-1 #
coedge $-1 $690 $819 $692 $762 reversed $684 $-1 #
vertex $-1 $820 $821 #
straight-curve $-1 0 -32.771331382172299 -5.599432441060137 -1 0 0 I I #
edge $-1 $694 5.599432441060137 $822 12.687976968097553 $692 $770 forward 7 unknown #
point $-1 63.64574114200262 -18.892162977952452 -5.599432441060137 #
point $-1 63.64574114200262 -32.771331382172299 -5.599432441060137 #
coedge $-1 $696 $754 $703 $768 forward $639 $-1 #
straight-curve $-1 -63.64574114200262 -12.915873590031188 -1.7658953586430899 0 -1 0 I I #
point $-1 -63.64574114200262 -32.771331382172299 -1.7658953586430899 #
edge $-1 $756 -3.7581004911343303 $704 0.075436591282716847 $765 $823 forward 7 unknown #
point $-1 -63.64574114200262 -18.892162977952452 -1.7658953586430899 #
straight-curve $-1 63.64574114200262 -32.771331382172299 0 0 0 -1 I I #
coedge $-1 $709 $780 $715 $776 forward $646 $-1 #
straight-curve $-1 0 32.771331382172299 -12.687976968097553 1 0 0 I I #
edge $-1 $712 -32.771331382172299 $822 32.771331382172299 $711 $824 forward 7 unknown #
point $-1 63.64574114200262 32.771331382172299 -12.687976968097553 #
coedge $-1 $754 $715 $758 $820 reversed $639 $-1 #
edge $-1 $825 -32.771331382172299 $716 32.771331382172299 $715 $826 forward 7 unknown #
point $-1 -63.64574114200262 32.771331382172299 -12.687976968097553 #
straight-curve $-1 -63.64574114200262 -32.771331382172299 0 0 0 -1 I I #
plane-surface $-1 -63.64574114200262 0 0 1 0 0 0 0 -1 forward_v I I I I #
coedge $-1 $771 $723 $819 $827 forward $646 $-1 #
face $-1 $661 $828 $19 $-1 $829 reversed single #
plane-surface $-1 63.64574114200262 0 0 -1 0 0 0 0 1 forward_v I I I I #
coedge $-1 $791 $830 $793 $831 reversed $725 $-1 #
coedge $-1 $832 $727 $830 $833 reversed $649 $-1 #
coedge $-1 $727 $832 $834 $835 reversed $649 $-1 #
coedge $-1 $836 $793 $727 $787 forward $746 $-1 #
edge $-1 $837 5.9762893879212644 $838 19.85545779214111 $786 $839 forward 7 unknown #
coedge $-1 $729 $728 $840 $841 reversed $552 $-1 #
coedge $-1 $842 $843 $728 $790 forward $844 $-1 #
edge $-1 $845 -63.64574114200262 $795 63.64574114200262 $789 $846 forward 7 unknown #
coedge $-1 $847 $783 $729 $792 forward $725 $-1 #
edge $-1 $796 -63.64574114200262 $848 63.64574114200262 $791 $849 forward 7 unknown #
coedge $-1 $786 $730 $783 $831 forward $746 $-1 #
coedge $-1 $730 $741 $842 $850 forward $746 $-1 #
vertex $-1 $790 $851 #
vertex $-1 $731 $852 #
straight-curve $-1 63.64574114200262 -12.915873590031188 -1.7658953586430899 0 1 0 I I #
coedge $-1 $734 $732 $853 $854 reversed $454 $-1 #
edge $-1 $747 -3.2877682999739291 $855 12.687976968097553 $745 $856 forward 7 unknown #
straight-curve $-1 27.869461371703999 32.771331382172292 3.2877682999739264 1 0 0 I I #
coedge $-1 $857 $737 $734 $802 forward $806 $-1 #
edge $-1 $739 -12.687976968097553 $858 12.687976968097553 $734 $859 forward 7 unknown #
coedge $-1 $843 $842 $736 $804 reversed $844 $-1 #
edge $-1 $807 -63.64574114200262 $810 63.64574114200262 $803 $860 forward 7 unknown #
coedge $-1 $737 $840 $843 $861 reversed $806 $-1 #
loop $-1 $-1 $840 $862 #
vertex $-1 $738 $863 #
straight-curve $-1 -63.64574114200262 0 12.687976968097553 0 -1 0 I I #
point $-1 -63.64574114200262 32.771331382172299 12.687976968097553 #
vertex $-1 $742 $864 #
straight-curve $-1 63.64574114200262 0 12.687976968097553 0 1 0 I I #
face $-1 $862 $844 $19 $-1 $829 reversed single #
loop $-1 $-1 $865 $743 #
plane-surface $-1 0 0 -12.687976968097553 0 0 1 1 0 0 forward_v I I I I #
coedge $-1 $745 $836 $865 $866 reversed $746 $-1 #
point $-1 63.64574114200262 32.771331382172299 3.2877682999739291 #
straight-curve $-1 -63.64574114200262 -12.915873590031188 -5.599432441060137 0 1 0 I I #
point $-1 -63.64574114200262 -18.892162977952452 -5.599432441060137 #
coedge $-1 $759 $758 $780 $827 reversed $684 $-1 #
edge $-1 $760 5.599432441060137 $825 12.687976968097553 $775 $778 forward 7 unknown #
point $-1 -63.64574114200262 -32.771331382172299 -5.599432441060137 #
vertex $-1 $762 $867 #
straight-curve $-1 -63.64574114200262 -18.892162977952452 -1.8413319499258067 0 0 1 I I #
straight-curve $-1 63.64574114200262 0 -12.687976968097553 0 -1 0 I I #
vertex $-1 $776 $868 #
straight-curve $-1 -63.64574114200262 0 -12.687976968097553 0 1 0 I I #
edge $-1 $822 -63.64574114200262 $825 63.64574114200262 $819 $869 forward 7 unknown #
loop $-1 $-1 $834 $781 #
plane-surface $-1 0 -32.771331382172299 0 0 1 0 0 0 1 forward_v I I I I #
coedge $-1 $783 $847 $784 $833 forward $725 $-1 #
edge $-1 $796 -0.075436591282716847 $837 3.7581004911343303 $793 $870 forward 7 unknown #
coedge $-1 $785 $784 $871 $872 reversed $649 $-1 #
edge $-1 $873 -63.64574114200262 $837 63.64574114200262 $830 $874 forward 7 unknown #
coedge $-1 $875 $876 $785 $835 forward $828 $-1 #
edge $-1 $838 -63.64574114200262 $877 63.64574114200262 $834 $878 forward 7 unknown #
coedge $-1 $815 $786 $876 $879 forward $746 $-1 #
vertex $-1 $787 $880 #
vertex $-1 $879 $881 #
straight-curve $-1 63.64574114200262 -12.915873590031188 -5.599432441060137 0 -1 0 I I #
coedge $-1 $805 $882 $788 $841 forward $806 $-1 #
edge $-1 $848 5.9762893879212644 $845 19.85545779214111 $840 $883 forward 7 unknown #
coedge $-1 $803 $789 $794 $850 reversed $844 $-1 #
coedge $-1 $789 $803 $805 $861 forward $844 $-1 #
loop $-1 $-1 $789 $812 #
vertex $-1 $841 $884 #
straight-curve $-1 0 -32.771331382172299 -1.7658953586430899 1 0 0 I I #
coedge $-1 $830 $791 $882 $885 reversed $725 $-1 #
vertex $-1 $841 $886 #
straight-curve $-1 0 -18.892162977952452 -1.7658953586430899 -1 0 0 I I #
edge $-1 $810 -12.687976968097553 $795 1.7658953586430899 $794 $887 forward 7 unknown #
point $-1 63.64574114200262 -32.771331382172299 -1.7658953586430899 #
point $-1 63.64574114200262 -18.892162977952452 -1.7658953586430899 #
coedge $-1 $865 $888 $798 $854 forward $813 $-1 #
edge $-1 $858 -63.64574114200262 $855 63.64574114200262 $798 $889 forward 7 unknown #
vertex $-1 $866 $890 #
straight-curve $-1 63.64574114200262 32.771331382172299 0 0 0 -1 I I #
coedge $-1 $891 $801 $888 $892 reversed $806 $-1 #
vertex $-1 $854 $893 #
straight-curve $-1 -63.64574114200262 32.771331382172299 0 0 0 -1 I I #
straight-curve $-1 0 -32.771331382172299 12.687976968097553 1 0 0 I I #
edge $-1 $807 -12.687976968097553 $845 1.7658953586430899 $805 $894 forward 7 unknown #
face $-1 $-1 $806 $19 $-1 $895 reversed single #
point $-1 -63.64574114200262 -32.771331382172299 12.687976968097553 #
point $-1 63.64574114200262 -32.771331382172299 12.687976968097553 #
coedge $-1 $896 $853 $815 $866 forward $813 $-1 #
edge $-1 $855 -32.771331382172299 $897 32.771331382172299 $815 $898 forward 7 unknown #
point $-1 63.64574114200262 -32.771331382172299 -12.687976968097553 #
point $-1 -63.64574114200262 -32.771331382172299 -12.687976968097553 #
straight-curve $-1 0 -32.771331382172299 -12.687976968097553 -1 0 0 I I #
straight-curve $-1 63.64574114200262 -18.892162977952452 -1.8413319499258067 0 0 -1 I I #
coedge $-1 $882 $891 $832 $872 forward $806 $-1 #
edge $-1 $877 -19.85545779214111 $873 -5.9762893879212644 $871 $899 forward 7 unknown #
vertex $-1 $872 $900 #
straight-curve $-1 0 -18.892162977952452 -5.599432441060137 1 0 0 I I #
coedge $-1 $901 $834 $891 $902 forward $828 $-1 #
coedge $-1 $834 $901 $836 $879 reversed $828 $-1 #
vertex $-1 $902 $903 #
straight-curve $-1 0 -32.771331382172299 -5.599432441060137 -1 0 0 I I #
edge $-1 $838 5.599432441060137 $897 12.687976968097553 $836 $887 forward 7 unknown #
point $-1 63.64574114200262 -18.892162977952452 -5.599432441060137 #
point $-1 63.64574114200262 -32.771331382172299 -5.599432441060137 #
coedge $-1 $840 $871 $847 $885 forward $806 $-1 #
straight-curve $-1 -63.64574114200262 -12.915873590031188 -1.7658953586430899 0 -1 0 I I #
point $-1 -63.64574114200262 -32.771331382172299 -1.7658953586430899 #
edge $-1 $873 -3.7581004911343303 $848 0.075436591282716847 $882 $904 forward 7 unknown #
point $-1 -63.64574114200262 -18.892162977952452 -1.7658953586430899 #
straight-curve $-1 63.64574114200262 -32.771331382172299 0 0 0 -1 I I #
coedge $-1 $853 $896 $857 $892 forward $813 $-1 #
straight-curve $-1 0 32.771331382172299 -12.687976968097553 1 0 0 I I #
point $-1 63.64574114200262 32.771331382172299 -12.687976968097553 #
coedge $-1 $871 $857 $875 $902 reversed $806 $-1 #
edge $-1 $905 -32.771331382172299 $858 32.771331382172299 $857 $906 forward 7 unknown #
point $-1 -63.64574114200262 32.771331382172299 -12.687976968097553 #
straight-curve $-1 -63.64574114200262 -32.771331382172299 0 0 0 -1 I I #
plane-surface $-1 -63.64574114200262 0 0 1 0 0 0 0 -1 forward_v I I I I #
coedge $-1 $888 $865 $901 $907 forward $813 $-1 #
vertex $-1 $879 $908 #
straight-curve $-1 63.64574114200262 0 -12.687976968097553 0 -1 0 I I #
straight-curve $-1 -63.64574114200262 -12.915873590031188 -5.599432441060137 0 1 0 I I #
point $-1 -63.64574114200262 -18.892162977952452 -5.599432441060137 #
coedge $-1 $876 $875 $896 $907 reversed $828 $-1 #
edge $-1 $877 5.599432441060137 $905 12.687976968097553 $891 $894 forward 7 unknown #
point $-1 -63.64574114200262 -32.771331382172299 -5.599432441060137 #
straight-curve $-1 -63.64574114200262 -18.892162977952452 -1.8413319499258067 0 0 1 I I #
vertex $-1 $892 $909 #
straight-curve $-1 -63.64574114200262 0 -12.687976968097553 0 1 0 I I #
edge $-1 $897 -63.64574114200262 $905 63.64574114200262 $901 $910 forward 7 unknown #
point $-1 63.64574114200262 -32.771331382172299 -12.687976968097553 #
point $-1 -63.64574114200262 -32.771331382172299 -12.687976968097553 #
straight-curve $-1 0 -32.771331382172299 -12.687976968097553 -1 0 0 I I #
End-of-ACIS-data 