500 0 6 0           
7 Unknown 11 ACIS 5.0 NT 24 Thu Mar 25 20:55:26 1999 
-1 9.9999999999999995e-007 1e-010 
body $-1 $6 $-1 $7 #
body $-1 $8 $-1 $9 #
body $-1 $10 $-1 $11 #
body $-1 $12 $-1 $13 #
body $-1 $14 $-1 $15 #
body $-1 $16 $-1 $17 #
lump $-1 $-1 $18 $0 #
transform $-1 1 0 0 0 1 0 0 0 1 63.665272988067258 32.95683849454926 9.7406080019672938 1 rotate no_reflect no_shear #
lump $-1 $-1 $19 $1 #
transform $-1 1 0 0 0 1 0 0 0 1 63.665272988067258 32.95683849454926 9.7406080019672938 1 rotate no_reflect no_shear #
lump $-1 $-1 $20 $2 #
transform $-1 1 0 0 0 1 0 0 0 1 63.665272988067258 32.95683849454926 9.7406080019672938 1 rotate no_reflect no_shear #
lump $-1 $-1 $21 $3 #
transform $-1 1 0 0 0 1 0 0 0 1 63.665272988067258 32.95683849454926 9.7406080019672938 1 rotate no_reflect no_shear #
lump $-1 $-1 $22 $4 #
transform $-1 1 0 0 0 1 0 0 0 1 63.665272988067258 32.95683849454926 9.7406080019672938 1 rotate no_reflect no_shear #
lump $-1 $-1 $23 $5 #
transform $-1 1 0 0 0 1 0 0 0 1 63.665272988067258 32.95683849454926 9.7406080019672938 1 rotate no_reflect no_shear #
shell $-1 $-1 $-1 $24 $-1 $6 #
shell $-1 $-1 $-1 $25 $-1 $8 #
shell $-1 $-1 $-1 $26 $-1 $10 #
shell $-1 $-1 $-1 $27 $-1 $12 #
shell $-1 $-1 $-1 $28 $-1 $14 #
shell $-1 $-1 $-1 $29 $-1 $16 #
face $-1 $30 $31 $18 $-1 $32 forward single #
face $-1 $33 $34 $19 $-1 $35 forward single #
face $-1 $36 $37 $20 $-1 $38 reversed single #
face $-1 $39 $40 $21 $-1 $41 forward single #
face $-1 $42 $43 $22 $-1 $44 reversed single #
face $-1 $45 $46 $23 $-1 $47 forward single #
face $-1 $48 $49 $18 $-1 $50 reversed single #
loop $-1 $-1 $51 $24 #
plane-surface $-1 0 0 9.7406080019672938 0 0 1 1 0 0 forward_v I I I I #
face $-1 $52 $53 $19 $-1 $54 reversed single #
loop $-1 $-1 $55 $25 #
plane-surface $-1 -63.665272988067258 0 0 1 0 0 0 0 -1 forward_v I I I I #
face $-1 $56 $57 $20 $-1 $58 reversed single #
loop $-1 $-1 $59 $26 #
plane-surface $-1 5.7661087270599545 -127.58187591637441 91.821647121954044 -1 0 0 0 -0.74314483375859142 0.66913059716165679 forward_v I I I I #
face $-1 $60 $61 $21 $-1 $62 forward single #
loop $-1 $63 $64 $27 #
cone-surface $-1 -7.5147067231271052 -31.180759543373163 7.8461801304144991 0 0.74314483375859142 -0.66913059716165679 0.5 0 0 1 I I 0 1 0.5 forward I I I I #
face $-1 $65 $66 $22 $-1 $67 reversed single #
loop $-1 $-1 $68 $28 #
plane-surface $-1 33.941955342233641 64.3105312425308 142.99052568336248 1 0 0 0 -0.64278761758704617 -0.76604443648966558 forward_v I I I I #
face $-1 $69 $70 $23 $-1 $71 forward single #
loop $-1 $72 $73 $29 #
cone-surface $-1 48.803614165150449 26.258377942377795 3.1570957796526438 0 -0.64278761758704617 -0.76604443648966558 2.5 0 0 1 I I 0 1 2.5 forward I I I I #
face $-1 $74 $75 $18 $-1 $76 reversed single #
loop $-1 $-1 $77 $30 #
plane-surface $-1 0 0 -9.7406080019672938 0 0 1 1 0 0 forward_v I I I I #
coedge $-1 $78 $79 $80 $81 forward $31 $-1 #
face $-1 $82 $83 $19 $-1 $84 forward single #
loop $-1 $-1 $85 $33 #
plane-surface $-1 0 32.95683849454926 0 0 -1 0 0 0 -1 forward_v I I I I #
coedge $-1 $86 $87 $88 $89 forward $34 $-1 #
face $-1 $90 $91 $20 $-1 $92 reversed single #
loop $-1 $-1 $93 $36 #
plane-surface $-1 -7.5147067231271052 -32.956838494549245 6.620882856023357 0 -0.74314483375859142 0.66913059716165679 1 0 0 forward_v I I I I #
coedge $-1 $94 $95 $96 $97 reversed $37 $-1 #
face $-1 $-1 $98 $21 $-1 $99 forward single #
loop $-1 $100 $101 $39 #
cone-surface $-1 -7.5147067231271052 -30.623400918054219 7.3443321825432566 0 0.74314483375859142 -0.66913059716165679 0.25 0 0 1 I I -0.70710678118654746 0.70710678118654746 0.25 forward I I I I #
loop $-1 $-1 $102 $27 #
coedge $-1 $64 $64 $103 $104 reversed $40 $-1 #
face $-1 $105 $106 $22 $-1 $107 reversed single #
loop $-1 $-1 $108 $42 #
plane-surface $-1 48.803614165150449 -17.535967051526555 45.449669343153062 0 0.64278761758704617 0.76604443648966558 1 0 0 forward_v I I I I #
coedge $-1 $109 $110 $111 $112 reversed $43 $-1 #
face $-1 $-1 $113 $23 $-1 $114 forward single #
loop $-1 $115 $116 $45 #
cone-surface $-1 48.803614165150449 22.724635016168911 -1.0542549597545996 0 -0.64278761758704617 -0.76604443648966558 1.25 0 0 1 I I -0.70710678118654746 0.70710678118654746 1.25 forward I I I I #
loop $-1 $-1 $117 $29 #
coedge $-1 $73 $73 $118 $119 reversed $46 $-1 #
face $-1 $120 $121 $18 $-1 $122 reversed single #
loop $-1 $-1 $123 $48 #
plane-surface $-1 0 -32.95683849454926 0 0 1 0 0 0 1 forward_v I I I I #
coedge $-1 $124 $125 $126 $127 forward $49 $-1 #
coedge $-1 $128 $51 $129 $130 forward $31 $-1 #
coedge $-1 $51 $128 $131 $132 forward $31 $-1 #
coedge $-1 $133 $134 $51 $81 reversed $135 $-1 #
edge $-1 $136 -32.95683849454926 $137 32.95683849454926 $80 $138 forward 7 unknown #
face $-1 $139 $140 $19 $-1 $141 reversed single #
loop $-1 $-1 $88 $52 #
plane-surface $-1 -66.986306933455552 0 -4.3476162038139616 0 0 1 1 0 0 forward_v I I I I #
coedge $-1 $142 $143 $87 $144 forward $53 $-1 #
coedge $-1 $145 $55 $146 $147 reversed $34 $-1 #
coedge $-1 $55 $145 $85 $144 reversed $34 $-1 #
coedge $-1 $148 $149 $55 $89 reversed $83 $-1 #
edge $-1 $150 -32.95683849454926 $151 32.95683849454926 $88 $152 forward 7 unknown #
face $-1 $153 $154 $20 $-1 $155 reversed single #
loop $-1 $-1 $156 $56 #
plane-surface $-1 -20.795522173314165 -127.58187591637441 91.821647121954044 1 0 0 0 0.74314483375859142 -0.66913059716165679 forward_v I I I I #
coedge $-1 $157 $158 $159 $160 reversed $57 $-1 #
coedge $-1 $95 $59 $161 $162 reversed $37 $-1 #
coedge $-1 $59 $94 $157 $163 reversed $37 $-1 #
coedge $-1 $159 $164 $59 $97 forward $165 $-1 #
edge $-1 $166 30.834099463637948 $167 33.643112532231562 $96 $168 forward 7 unknown #
loop $-1 $-1 $103 $60 #
plane-surface $-1 -7.5147067231271052 -32.956838494549245 6.620882856023357 0 -0.74314483375859142 0.66913059716165679 1 0 0 forward_v I I I I #
loop $-1 $-1 $169 $39 #
coedge $-1 $101 $101 $102 $170 reversed $61 $-1 #
coedge $-1 $102 $102 $101 $170 forward $63 $-1 #
coedge $-1 $103 $103 $64 $104 forward $98 $-1 #
edge $-1 $171 -1.062472471520634e-015 $171 6.2831853071795996 $103 $172 forward 7 unknown #
face $-1 $173 $174 $22 $-1 $175 reversed single #
loop $-1 $-1 $176 $65 #
plane-surface $-1 63.665272988067258 0 0 -1 0 0 0 0 1 forward_v I I I I #
coedge $-1 $177 $178 $179 $180 reversed $66 $-1 #
coedge $-1 $110 $68 $181 $182 reversed $43 $-1 #
coedge $-1 $68 $109 $177 $183 reversed $43 $-1 #
coedge $-1 $179 $184 $68 $112 forward $185 $-1 #
edge $-1 $186 -0.80157287328385962 $187 7.1348314226089116 $111 $188 forward 7 unknown #
loop $-1 $-1 $118 $69 #
plane-surface $-1 48.803614165150449 -17.535967051526555 45.449669343153062 0 0.64278761758704617 0.76604443648966558 1 0 0 forward_v I I I I #
loop $-1 $-1 $189 $45 #
coedge $-1 $116 $116 $117 $190 reversed $70 $-1 #
coedge $-1 $117 $117 $116 $190 forward $72 $-1 #
coedge $-1 $118 $118 $73 $119 forward $113 $-1 #
edge $-1 $191 5.0993363386121659e-016 $191 6.2831853071796013 $118 $192 forward 7 unknown #
face $-1 $193 $194 $18 $-1 $195 reversed single #
loop $-1 $-1 $196 $74 #
plane-surface $-1 -63.665272988067258 0 0 1 0 0 0 0 -1 forward_v I I I I #
coedge $-1 $197 $131 $196 $198 forward $75 $-1 #
coedge $-1 $199 $77 $197 $200 forward $49 $-1 #
coedge $-1 $77 $199 $201 $202 forward $49 $-1 #
coedge $-1 $134 $133 $77 $127 reversed $135 $-1 #
edge $-1 $203 -32.95683849454926 $204 32.95683849454926 $126 $205 forward 7 unknown #
coedge $-1 $79 $78 $206 $207 forward $31 $-1 #
coedge $-1 $208 $209 $78 $130 reversed $194 $-1 #
edge $-1 $137 -63.665272988067258 $210 63.665272988067258 $129 $211 forward 7 unknown #
coedge $-1 $123 $212 $79 $132 reversed $75 $-1 #
edge $-1 $213 -63.665272988067258 $136 63.665272988067258 $131 $214 forward 7 unknown #
coedge $-1 $126 $80 $212 $215 forward $135 $-1 #
coedge $-1 $80 $126 $208 $216 reversed $135 $-1 #
loop $-1 $-1 $133 $193 #
vertex $-1 $81 $217 #
vertex $-1 $81 $218 #
straight-curve $-1 63.665272988067258 0 9.7406080019672938 0 1 0 I I #
face $-1 $219 $220 $19 $-1 $221 reversed single #
loop $-1 $-1 $222 $82 #
plane-surface $-1 -70.307340878843846 0 -7.0441121028906277 1 0 0 0 0 -1 forward_v I I I I #
coedge $-1 $223 $85 $224 $225 reversed $53 $-1 #
coedge $-1 $85 $223 $148 $226 reversed $53 $-1 #
edge $-1 $150 4.3476162038139616 $227 9.7406080019672938 $85 $228 forward 7 unknown #
coedge $-1 $87 $86 $229 $230 reversed $34 $-1 #
coedge $-1 $231 $232 $86 $147 forward $233 $-1 #
edge $-1 $234 -9.7406080019672938 $151 -4.3476162038139616 $146 $235 forward 7 unknown #
coedge $-1 $236 $88 $143 $226 forward $83 $-1 #
coedge $-1 $88 $236 $231 $237 forward $83 $-1 #
vertex $-1 $144 $238 #
vertex $-1 $237 $239 #
straight-curve $-1 -63.665272988067258 0 -4.3476162038139616 0 -1 0 I I #
face $-1 $-1 $165 $20 $-1 $240 forward single #
loop $-1 $-1 $241 $90 #
plane-surface $-1 0 -32.95683849454926 0 0 1 0 0 0 1 forward_v I I I I #
coedge $-1 $242 $243 $244 $245 reversed $91 $-1 #
coedge $-1 $246 $93 $95 $163 forward $57 $-1 #
coedge $-1 $93 $246 $242 $247 forward $57 $-1 #
coedge $-1 $244 $96 $93 $160 forward $165 $-1 #
edge $-1 $167 -9.5234620886235071 $248 17.038168811750612 $159 $249 forward 7 unknown #
coedge $-1 $250 $251 $94 $162 forward $154 $-1 #
edge $-1 $252 -39.289940704953679 $166 -36.170215559009726 $161 $253 forward 7 unknown #
edge $-1 $167 -4.1980042169779379 $252 2.1389731374768986e-014 $95 $254 forward 7 unknown #
coedge $-1 $96 $244 $250 $255 forward $165 $-1 #
loop $-1 $-1 $244 $153 #
vertex $-1 $162 $256 #
vertex $-1 $97 $257 #
straight-curve $-1 5.7661087270599545 -63.790937958187207 9.7406080019672956 0 1 0 I I #
coedge $-1 $169 $169 $-1 $258 reversed $100 $-1 #
edge $-1 $259 0 $259 6.2831853071796004 $101 $260 forward 7 unknown #
vertex $-1 $104 $261 #
ellipse-curve $-1 -7.5147067231271052 -31.552331960252449 8.1807454289953192 0 -0.74314483375859142 0.66913059716165679 0.5 0 0 1 I I #
face $-1 $-1 $185 $22 $-1 $262 forward single #
loop $-1 $-1 $263 $105 #
plane-surface $-1 0 32.95683849454926 0 0 -1 0 0 0 -1 forward_v I I I I #
coedge $-1 $264 $265 $178 $266 forward $106 $-1 #
coedge $-1 $267 $108 $110 $183 forward $66 $-1 #
coedge $-1 $108 $267 $176 $266 reversed $66 $-1 #
coedge $-1 $268 $111 $108 $180 forward $185 $-1 #
edge $-1 $187 9.540148259658416 $269 39.263465905492033 $179 $270 forward 7 unknown #
coedge $-1 $271 $263 $109 $182 forward $174 $-1 #
edge $-1 $272 -68.414088896752929 $186 -61.754654839713943 $181 $273 forward 7 unknown #
edge $-1 $187 55.553436880495056 $272 65.913676989098519 $110 $274 forward 7 unknown #
coedge $-1 $111 $268 $271 $275 forward $185 $-1 #
loop $-1 $-1 $179 $173 #
vertex $-1 $182 $276 #
vertex $-1 $112 $277 #
straight-curve $-1 33.941955342233641 32.1552656212654 9.7406080019672885 0 -1 0 I I #
coedge $-1 $189 $189 $-1 $278 reversed $115 $-1 #
edge $-1 $279 0 $279 6.2831853071796004 $116 $280 forward 7 unknown #
vertex $-1 $119 $281 #
ellipse-curve $-1 48.803614165150449 28.988636346602878 6.4108909734478106 0 0.64278761758704617 0.76604443648966558 2.5 0 0 1 I I #
face $-1 $-1 $135 $18 $-1 $282 reversed single #
loop $-1 $-1 $208 $120 #
plane-surface $-1 0 32.95683849454926 0 0 -1 0 0 0 -1 forward_v I I I I #
coedge $-1 $206 $283 $123 $198 reversed $121 $-1 #
coedge $-1 $212 $123 $124 $200 reversed $75 $-1 #
edge $-1 $213 -9.7406080019672938 $284 9.7406080019672938 $196 $285 forward 7 unknown #
coedge $-1 $125 $124 $283 $286 forward $49 $-1 #
edge $-1 $204 -63.665272988067258 $284 63.665272988067258 $197 $287 forward 7 unknown #
coedge $-1 $209 $208 $125 $202 reversed $194 $-1 #
edge $-1 $288 -63.665272988067258 $203 63.665272988067258 $201 $289 forward 7 unknown #
vertex $-1 $127 $290 #
vertex $-1 $215 $291 #
straight-curve $-1 63.665272988067258 0 -9.7406080019672938 0 -1 0 I I #
coedge $-1 $292 $196 $128 $207 reversed $121 $-1 #
edge $-1 $210 -32.95683849454926 $213 32.95683849454926 $206 $293 forward 7 unknown #
coedge $-1 $201 $129 $134 $216 forward $194 $-1 #
coedge $-1 $129 $201 $292 $294 reversed $194 $-1 #
vertex $-1 $130 $295 #
straight-curve $-1 0 32.95683849454926 9.7406080019672938 -1 0 0 I I #
coedge $-1 $131 $197 $133 $215 reversed $75 $-1 #
vertex $-1 $207 $296 #
straight-curve $-1 0 -32.95683849454926 9.7406080019672938 1 0 0 I I #
edge $-1 $136 -9.7406080019672938 $204 9.7406080019672938 $133 $297 forward 7 unknown #
edge $-1 $137 -9.7406080019672938 $203 9.7406080019672938 $134 $298 forward 7 unknown #
point $-1 63.665272988067258 -32.95683849454926 9.7406080019672938 #
point $-1 63.665272988067258 32.95683849454926 9.7406080019672938 #
face $-1 $-1 $233 $19 $-1 $299 reversed single #
loop $-1 $-1 $229 $139 #
plane-surface $-1 0 0 -9.7406080019672938 0 0 1 1 0 0 forward_v I I I I #
coedge $-1 $300 $301 $223 $302 forward $140 $-1 #
coedge $-1 $143 $142 $222 $302 reversed $53 $-1 #
coedge $-1 $229 $303 $142 $225 forward $220 $-1 #
edge $-1 $304 -70.307340878843846 $227 -63.665272988067258 $142 $305 forward 7 unknown #
edge $-1 $150 -3.3210339453882938 $306 3.3210339453882938 $143 $307 forward 7 unknown #
vertex $-1 $144 $308 #
straight-curve $-1 -63.665272988067258 32.95683849454926 0 0 0 -1 I I #
coedge $-1 $309 $224 $145 $230 forward $220 $-1 #
edge $-1 $227 -32.95683849454926 $234 32.95683849454926 $229 $310 forward 7 unknown #
coedge $-1 $311 $146 $149 $237 reversed $233 $-1 #
coedge $-1 $146 $311 $309 $312 reversed $233 $-1 #
loop $-1 $-1 $146 $219 #
vertex $-1 $312 $313 #
straight-curve $-1 -63.665272988067258 -32.95683849454926 0 0 0 1 I I #
coedge $-1 $149 $148 $301 $314 forward $83 $-1 #
edge $-1 $315 -3.3210339453882938 $151 3.3210339453882938 $231 $316 forward 7 unknown #
point $-1 -63.665272988067258 32.95683849454926 -4.3476162038139616 #
point $-1 -63.665272988067258 -32.95683849454926 -4.3476162038139616 #
plane-surface $-1 0 0 9.7406080019672938 0 0 1 1 0 0 forward_v I I I I #
coedge $-1 $251 $250 $243 $317 forward $154 $-1 #
coedge $-1 $243 $156 $158 $247 reversed $91 $-1 #
coedge $-1 $156 $242 $241 $317 reversed $91 $-1 #
coedge $-1 $164 $159 $156 $245 forward $165 $-1 #
edge $-1 $248 -33.643112532231562 $318 -30.834099463637948 $244 $319 forward 7 unknown #
coedge $-1 $158 $157 $251 $320 reversed $57 $-1 #
edge $-1 $321 -2.1389731374768986e-014 $248 4.1980042169779379 $242 $322 forward 7 unknown #
vertex $-1 $160 $323 #
straight-curve $-1 -3.7573533615635526 -30.147825425955645 9.7406080019672938 -1 0 0 I I #
coedge $-1 $241 $161 $164 $255 reversed $154 $-1 #
coedge $-1 $161 $241 $246 $320 forward $154 $-1 #
vertex $-1 $162 $324 #
straight-curve $-1 5.7661087270599545 -32.95683849454926 45.910823560977022 0 0 1 I I #
straight-curve $-1 5.7661087270599545 -32.956838494549245 6.620882856023357 0 -0.66913059716165679 -0.74314483375859142 I I #
edge $-1 $318 -20.795522173314165 $166 5.7661087270599545 $250 $325 forward 7 unknown #
point $-1 5.7661087270599545 -32.95683849454926 9.7406080019672938 #
point $-1 5.7661087270599545 -30.147825425955645 9.7406080019672938 #
edge $-1 $326 1 $326 0 $169 $-1 forward 7 unknown #
vertex $-1 $170 $327 #
ellipse-curve $-1 -7.5147067231271052 -30.809187126493867 7.5116148318336711 0 -0.74314483375859142 0.66913059716165679 0.5 0 0 1 I I #
point $-1 -7.0147067231271052 -31.552331960252459 8.1807454289953281 #
plane-surface $-1 0 0 9.7406080019672938 0 0 1 1 0 0 forward_v I I I I #
coedge $-1 $181 $328 $267 $329 forward $174 $-1 #
coedge $-1 $265 $176 $328 $330 reversed $106 $-1 #
coedge $-1 $176 $264 $268 $331 reversed $106 $-1 #
edge $-1 $269 34.229529542748878 $332 44.589769651352341 $176 $333 forward 7 unknown #
coedge $-1 $178 $177 $263 $329 reversed $66 $-1 #
coedge $-1 $184 $179 $265 $331 forward $185 $-1 #
vertex $-1 $331 $334 #
straight-curve $-1 24.401807082575225 25.020434198656488 9.7406080019672956 1 0 0 I I #
coedge $-1 $328 $181 $184 $275 reversed $174 $-1 #
vertex $-1 $182 $335 #
straight-curve $-1 33.941955342233641 32.95683849454926 71.495262841681239 0 0 1 I I #
straight-curve $-1 33.941955342233641 -17.535967051526555 45.449669343153062 0 0.76604443648966558 -0.64278761758704617 I I #
edge $-1 $336 -63.665272988067258 $186 -33.941955342233641 $271 $337 forward 7 unknown #
point $-1 33.941955342233641 32.95683849454926 9.7406080019672938 #
point $-1 33.941955342233641 25.020434198656488 9.7406080019672956 #
edge $-1 $338 1 $338 0 $189 $-1 forward 7 unknown #
vertex $-1 $190 $339 #
ellipse-curve $-1 48.803614165150449 23.528119538152719 -0.096699414142517592 0 0.64278761758704617 0.76604443648966558 2.5 0 0 1 I I #
point $-1 51.303614165150449 28.988636346602874 6.4108909734478043 #
plane-surface $-1 63.665272988067258 0 0 -1 0 0 0 0 1 forward_v I I I I #
coedge $-1 $196 $292 $199 $286 reversed $121 $-1 #
vertex $-1 $286 $340 #
straight-curve $-1 -63.665272988067258 -32.95683849454926 0 0 0 -1 I I #
edge $-1 $284 -32.95683849454926 $288 32.95683849454926 $283 $341 forward 7 unknown #
straight-curve $-1 0 -32.95683849454926 -9.7406080019672938 -1 0 0 I I #
vertex $-1 $202 $342 #
straight-curve $-1 0 32.95683849454926 -9.7406080019672938 1 0 0 I I #
point $-1 63.665272988067258 32.95683849454926 -9.7406080019672938 #
point $-1 63.665272988067258 -32.95683849454926 -9.7406080019672938 #
coedge $-1 $283 $206 $209 $294 forward $121 $-1 #
straight-curve $-1 -63.665272988067258 0 9.7406080019672938 0 -1 0 I I #
edge $-1 $210 -9.7406080019672938 $288 9.7406080019672938 $209 $343 forward 7 unknown #
point $-1 -63.665272988067258 32.95683849454926 9.7406080019672938 #
point $-1 -63.665272988067258 -32.95683849454926 9.7406080019672938 #
straight-curve $-1 63.665272988067258 -32.95683849454926 0 0 0 -1 I I #
straight-curve $-1 63.665272988067258 32.95683849454926 0 0 0 -1 I I #
plane-surface $-1 0 -32.95683849454926 0 0 1 0 0 0 1 forward_v I I I I #
coedge $-1 $344 $222 $303 $345 reversed $140 $-1 #
coedge $-1 $222 $344 $236 $314 reversed $140 $-1 #
edge $-1 $306 -2.6964958990766661 $304 2.6964958990766661 $223 $346 forward 7 unknown #
coedge $-1 $224 $309 $300 $345 forward $220 $-1 #
vertex $-1 $225 $347 #
straight-curve $-1 0 32.95683849454926 -9.7406080019672938 1 0 0 I I #
vertex $-1 $226 $348 #
straight-curve $-1 -66.986306933455552 32.95683849454926 -4.3476162038139616 -1 0 0 I I #
point $-1 -63.665272988067258 32.95683849454926 -9.7406080019672938 #
coedge $-1 $303 $229 $232 $312 forward $220 $-1 #
straight-curve $-1 -63.665272988067258 0 -9.7406080019672938 0 -1 0 I I #
coedge $-1 $232 $231 $344 $349 forward $233 $-1 #
edge $-1 $234 -3.3210339453882938 $350 3.3210339453882938 $232 $351 forward 7 unknown #
point $-1 -63.665272988067258 -32.95683849454926 -9.7406080019672938 #
edge $-1 $306 -32.95683849454926 $315 32.95683849454926 $301 $352 forward 7 unknown #
vertex $-1 $314 $353 #
straight-curve $-1 -66.986306933455552 -32.95683849454926 -4.3476162038139616 1 0 0 I I #
edge $-1 $318 36.170215559009726 $321 39.289940704953679 $241 $354 forward 7 unknown #
vertex $-1 $255 $355 #
straight-curve $-1 -20.795522173314165 -63.790937958187207 9.7406080019672956 0 -1 0 I I #
edge $-1 $321 -17.038168811750612 $252 9.5234620886235071 $251 $356 forward 7 unknown #
vertex $-1 $320 $357 #
straight-curve $-1 -20.795522173314165 -32.956838494549245 6.620882856023357 0 0.66913059716165679 0.74314483375859142 I I #
point $-1 -20.795522173314165 -30.147825425955645 9.7406080019672938 #
point $-1 5.7661087270599545 -32.95683849454926 6.620882856023341 #
straight-curve $-1 0 -32.95683849454926 9.7406080019672938 1 0 0 I I #
vertex $-1 $258 $358 #
point $-1 -7.0147067231271052 -30.809187126493867 7.5116148318336711 #
coedge $-1 $263 $271 $264 $330 forward $174 $-1 #
edge $-1 $332 -39.263465905492033 $272 -9.540148259658416 $263 $359 forward 7 unknown #
edge $-1 $336 -9.7406080019672938 $332 -3.0811739449283166 $264 $360 forward 7 unknown #
edge $-1 $269 25.020434198656488 $336 32.95683849454926 $265 $361 forward 7 unknown #
vertex $-1 $266 $362 #
straight-curve $-1 63.665272988067258 -1.2009064712249327 31.74292574787626 0 0.76604443648966558 -0.64278761758704617 I I #
point $-1 63.665272988067258 25.020434198656488 9.7406080019672956 #
point $-1 33.941955342233641 32.95683849454926 3.0811739449283166 #
vertex $-1 $331 $363 #
straight-curve $-1 0 32.95683849454926 9.7406080019672938 -1 0 0 I I #
vertex $-1 $278 $364 #
point $-1 51.303614165150449 23.528119538152719 -0.096699414142517592 #
point $-1 -63.665272988067258 -32.95683849454926 -9.7406080019672938 #
straight-curve $-1 -63.665272988067258 0 -9.7406080019672938 0 1 0 I I #
point $-1 -63.665272988067258 32.95683849454926 -9.7406080019672938 #
straight-curve $-1 -63.665272988067258 32.95683849454926 0 0 0 -1 I I #
coedge $-1 $301 $300 $311 $349 reversed $140 $-1 #
edge $-1 $350 -32.95683849454926 $304 32.95683849454926 $300 $365 forward 7 unknown #
straight-curve $-1 -70.307340878843846 32.95683849454926 -7.0441121028906277 0 0 -1 I I #
point $-1 -70.307340878843846 32.95683849454926 -9.7406080019672938 #
point $-1 -70.307340878843846 32.95683849454926 -4.3476162038139616 #
edge $-1 $315 -2.6964958990766661 $350 2.6964958990766661 $344 $366 forward 7 unknown #
vertex $-1 $345 $367 #
straight-curve $-1 -66.986306933455552 -32.95683849454926 -9.7406080019672938 -1 0 0 I I #
straight-curve $-1 -70.307340878843846 0 -4.3476162038139616 0 -1 0 I I #
point $-1 -70.307340878843846 -32.95683849454926 -4.3476162038139616 #
straight-curve $-1 -20.795522173314165 -32.95683849454926 45.910823560977022 0 0 -1 I I #
point $-1 -20.795522173314165 -32.95683849454926 9.7406080019672938 #
straight-curve $-1 -3.7573533615635526 -32.95683849454926 6.6208828560233428 1 0 0 I I #
point $-1 -20.795522173314165 -32.95683849454926 6.620882856023341 #
point $-1 -7.5147067231271052 -30.437614709614571 7.1770495332528421 #
straight-curve $-1 24.401807082575225 32.95683849454926 3.0811739449283166 -1 0 0 I I #
straight-curve $-1 63.665272988067258 32.95683849454926 0 0 0 -1 I I #
straight-curve $-1 63.665272988067258 0 9.7406080019672938 0 1 0 I I #
point $-1 63.665272988067258 32.95683849454926 3.0811739449283166 #
point $-1 63.665272988067258 32.95683849454926 9.7406080019672938 #
point $-1 48.803614165150449 21.921150494185103 -2.0118105053666815 #
straight-curve $-1 -70.307340878843846 0 -9.7406080019672938 0 1 0 I I #
straight-curve $-1 -70.307340878843846 -32.95683849454926 -7.0441121028906277 0 0 -1 I I #
point $-1 -70.307340878843846 -32.95683849454926 -9.7406080019672938 #
End-of-ACIS-data 