500 0 18 0           
7 Unknown 11 ACIS 5.0 NT 24 Fri Mar 26 18:02:26 1999 
-1 9.9999999999999995e-007 1e-010 
body $-1 $18 $-1 $19 #
body $-1 $20 $-1 $21 #
body $-1 $22 $-1 $23 #
body $-1 $24 $-1 $25 #
body $-1 $26 $-1 $27 #
body $-1 $28 $-1 $29 #
body $-1 $30 $-1 $31 #
body $-1 $32 $-1 $33 #
body $-1 $34 $-1 $35 #
body $-1 $36 $-1 $37 #
body $-1 $38 $-1 $39 #
body $-1 $40 $-1 $41 #
body $-1 $42 $-1 $43 #
body $-1 $44 $-1 $45 #
body $-1 $46 $-1 $47 #
body $-1 $48 $-1 $49 #
body $-1 $50 $-1 $51 #
body $-1 $52 $-1 $53 #
lump $-1 $-1 $54 $0 #
transform $-1 1 0 0 0 1 0 0 0 1 58.319650868251593 33.990814793899212 11.076605188338787 1 rotate no_reflect no_shear #
lump $-1 $-1 $55 $1 #
transform $-1 1 0 0 0 1 0 0 0 1 58.319650868251593 33.990814793899212 11.076605188338787 1 rotate no_reflect no_shear #
lump $-1 $-1 $56 $2 #
transform $-1 1 0 0 0 1 0 0 0 1 58.319650868251593 33.990814793899212 11.076605188338787 1 rotate no_reflect no_shear #
lump $-1 $-1 $57 $3 #
transform $-1 1 0 0 0 1 0 0 0 1 58.319650868251593 33.990814793899212 11.076605188338787 1 rotate no_reflect no_shear #
lump $-1 $-1 $58 $4 #
transform $-1 1 0 0 0 1 0 0 0 1 58.319650868251593 33.990814793899212 11.076605188338787 1 rotate no_reflect no_shear #
lump $-1 $-1 $59 $5 #
transform $-1 1 0 0 0 1 0 0 0 1 58.319650868251593 33.990814793899212 11.076605188338787 1 rotate no_reflect no_shear #
lump $-1 $-1 $60 $6 #
transform $-1 1 0 0 0 1 0 0 0 1 58.319650868251593 33.990814793899212 11.076605188338787 1 rotate no_reflect no_shear #
lump $-1 $-1 $61 $7 #
transform $-1 1 0 0 0 1 0 0 0 1 58.319650868251593 33.990814793899212 11.076605188338787 1 rotate no_reflect no_shear #
lump $-1 $-1 $62 $8 #
transform $-1 1 0 0 0 1 0 0 0 1 58.319650868251593 33.990814793899212 11.076605188338787 1 rotate no_reflect no_shear #
lump $-1 $-1 $63 $9 #
transform $-1 1 0 0 0 1 0 0 0 1 58.319650868251593 33.990814793899212 11.076605188338787 1 rotate no_reflect no_shear #
lump $-1 $-1 $64 $10 #
transform $-1 1 0 0 0 1 0 0 0 1 58.319650868251593 33.990814793899212 11.076605188338787 1 rotate no_reflect no_shear #
lump $-1 $-1 $65 $11 #
transform $-1 1 0 0 0 1 0 0 0 1 58.319650868251593 33.990814793899212 11.076605188338787 1 rotate no_reflect no_shear #
lump $-1 $-1 $66 $12 #
transform $-1 1 0 0 0 1 0 0 0 1 58.319650868251593 33.990814793899212 11.076605188338787 1 rotate no_reflect no_shear #
lump $-1 $-1 $67 $13 #
transform $-1 1 0 0 0 1 0 0 0 1 58.319650868251593 33.990814793899212 11.076605188338787 1 rotate no_reflect no_shear #
lump $-1 $-1 $68 $14 #
transform $-1 1 0 0 0 1 0 0 0 1 58.319650868251593 33.990814793899212 11.076605188338787 1 rotate no_reflect no_shear #
lump $-1 $-1 $69 $15 #
transform $-1 1 0 0 0 1 0 0 0 1 58.319650868251593 33.990814793899212 11.076605188338787 1 rotate no_reflect no_shear #
lump $-1 $-1 $70 $16 #
transform $-1 1 0 0 0 1 0 0 0 1 58.319650868251593 33.990814793899212 11.076605188338787 1 rotate no_reflect no_shear #
lump $-1 $-1 $71 $17 #
transform $-1 1 0 0 0 1 0 0 0 1 58.319650868251593 33.990814793899212 11.076605188338787 1 rotate no_reflect no_shear #
shell $-1 $-1 $-1 $72 $-1 $18 #
shell $-1 $-1 $-1 $73 $-1 $20 #
shell $-1 $-1 $-1 $74 $-1 $22 #
shell $-1 $-1 $-1 $75 $-1 $24 #
shell $-1 $-1 $-1 $76 $-1 $26 #
shell $-1 $-1 $-1 $77 $-1 $28 #
shell $-1 $-1 $-1 $78 $-1 $30 #
shell $-1 $-1 $-1 $79 $-1 $32 #
shell $-1 $-1 $-1 $80 $-1 $34 #
shell $-1 $-1 $-1 $81 $-1 $36 #
shell $-1 $-1 $-1 $82 $-1 $38 #
shell $-1 $-1 $-1 $83 $-1 $40 #
shell $-1 $-1 $-1 $84 $-1 $42 #
shell $-1 $-1 $-1 $85 $-1 $44 #
shell $-1 $-1 $-1 $86 $-1 $46 #
shell $-1 $-1 $-1 $87 $-1 $48 #
shell $-1 $-1 $-1 $88 $-1 $50 #
shell $-1 $-1 $-1 $89 $-1 $52 #
face $-1 $90 $91 $54 $-1 $92 forward single #
face $-1 $93 $94 $55 $-1 $95 forward single #
face $-1 $96 $97 $56 $-1 $98 reversed single #
face $-1 $99 $100 $57 $-1 $101 forward single #
face $-1 $102 $103 $58 $-1 $104 forward single #
face $-1 $105 $106 $59 $-1 $107 forward single #
face $-1 $108 $109 $60 $-1 $110 reversed single #
face $-1 $111 $112 $61 $-1 $113 forward single #
face $-1 $114 $115 $62 $-1 $116 forward single #
face $-1 $117 $118 $63 $-1 $119 forward single #
face $-1 $120 $121 $64 $-1 $122 reversed single #
face $-1 $123 $124 $65 $-1 $125 forward single #
face $-1 $126 $127 $66 $-1 $128 forward single #
face $-1 $129 $130 $67 $-1 $131 forward single #
face $-1 $132 $133 $68 $-1 $134 reversed single #
face $-1 $135 $136 $69 $-1 $137 forward single #
face $-1 $138 $139 $70 $-1 $140 forward single #
face $-1 $141 $142 $71 $-1 $143 forward single #
face $-1 $144 $145 $54 $-1 $146 reversed single #
loop $-1 $-1 $147 $72 #
plane-surface $-1 0 0 11.076605188338787 0 0 1 1 0 0 forward_v I I I I #
face $-1 $148 $149 $55 $-1 $150 reversed single #
loop $-1 $-1 $151 $73 #
plane-surface $-1 -53.591782440857642 0 9.3650295041832763 0 0 1 1 0 0 forward_v I I I I #
face $-1 $152 $153 $56 $-1 $154 reversed single #
loop $-1 $-1 $155 $74 #
plane-surface $-1 75.561924336515176 -19.472294934838313 171.30949676095261 0 -1 0 -0.77714596973225614 0 -0.62932038083071107 forward_v I I I I #
face $-1 $156 $157 $57 $-1 $158 forward single #
loop $-1 $159 $160 $75 #
cone-surface $-1 56.189578954042872 -27.660754521914171 8.6948160674859825 -0.77714596973225614 0 -0.62932038083071107 0.31466019041535553 0 -0.38857298486612807 1 I I 0 1 0.5 forward I I I I #
face $-1 $161 $162 $58 $-1 $163 forward single #
loop $-1 $164 $165 $76 #
cone-surface $-1 56.189578954042872 -24.590082176760724 8.6948160674859825 -0.77714596973225614 0 -0.62932038083071107 0.31466019041535553 0 -0.38857298486612807 1 I I 0 1 0.5 forward I I I I #
face $-1 $166 $167 $59 $-1 $168 forward single #
loop $-1 $169 $170 $77 #
cone-surface $-1 56.189578954042872 -21.519409831607277 8.6948160674859825 -0.77714596973225614 0 -0.62932038083071107 0.31466019041535553 0 -0.38857298486612807 1 I I 0 1 0.5 forward I I I I #
face $-1 $171 $172 $60 $-1 $173 reversed single #
loop $-1 $-1 $174 $78 #
plane-surface $-1 75.561924336515176 -3.0789068169978302 171.30949676095261 0 -1 0 -0.77714596973225614 0 -0.62932038083071107 forward_v I I I I #
face $-1 $175 $176 $61 $-1 $177 forward single #
loop $-1 $178 $179 $79 #
cone-surface $-1 56.189578954042872 -11.267366404073684 8.6948160674859825 -0.77714596973225614 0 -0.62932038083071107 0.31466019041535553 0 -0.38857298486612807 1 I I 0 1 0.5 forward I I I I #
face $-1 $180 $181 $62 $-1 $182 forward single #
loop $-1 $183 $184 $80 #
cone-surface $-1 56.189578954042872 -8.1966940589202402 8.6948160674859825 -0.77714596973225614 0 -0.62932038083071107 0.31466019041535553 0 -0.38857298486612807 1 I I 0 1 0.5 forward I I I I #
face $-1 $185 $186 $63 $-1 $187 forward single #
loop $-1 $188 $189 $81 #
cone-surface $-1 56.189578954042872 -5.1260217137667929 8.6948160674859825 -0.77714596973225614 0 -0.62932038083071107 0.31466019041535553 0 -0.38857298486612807 1 I I 0 1 0.5 forward I I I I #
face $-1 $190 $191 $64 $-1 $192 reversed single #
loop $-1 $-1 $193 $82 #
plane-surface $-1 75.561924336515176 13.314481300842655 171.30949676095261 0 -1 0 -0.77714596973225614 0 -0.62932038083071107 forward_v I I I I #
face $-1 $194 $195 $65 $-1 $196 forward single #
loop $-1 $197 $198 $83 #
cone-surface $-1 56.189578954042872 5.1260217137667965 8.6948160674859825 -0.77714596973225614 0 -0.62932038083071107 0.31466019041535553 0 -0.38857298486612807 1 I I 0 1 0.5 forward I I I I #
face $-1 $199 $200 $66 $-1 $201 forward single #
loop $-1 $202 $203 $84 #
cone-surface $-1 56.189578954042872 8.1966940589202437 8.6948160674859825 -0.77714596973225614 0 -0.62932038083071107 0.31466019041535553 0 -0.38857298486612807 1 I I 0 1 0.5 forward I I I I #
face $-1 $204 $205 $67 $-1 $206 forward single #
loop $-1 $207 $208 $85 #
cone-surface $-1 56.189578954042872 11.267366404073691 8.6948160674859825 -0.77714596973225614 0 -0.62932038083071107 0.31466019041535553 0 -0.38857298486612807 1 I I 0 1 0.5 forward I I I I #
face $-1 $209 $210 $68 $-1 $211 reversed single #
loop $-1 $-1 $212 $86 #
plane-surface $-1 75.561924336515176 29.707869418683135 171.30949676095261 0 -1 0 -0.77714596973225614 0 -0.62932038083071107 forward_v I I I I #
face $-1 $213 $214 $69 $-1 $215 forward single #
loop $-1 $216 $217 $87 #
cone-surface $-1 56.189578954042872 21.519409831607284 8.6948160674859825 -0.77714596973225614 0 -0.62932038083071107 0.31466019041535553 0 -0.38857298486612807 1 I I 0 1 0.5 forward I I I I #
face $-1 $218 $219 $70 $-1 $220 forward single #
loop $-1 $221 $222 $88 #
cone-surface $-1 56.189578954042872 24.590082176760724 8.6948160674859825 -0.77714596973225614 0 -0.62932038083071107 0.31466019041535553 0 -0.38857298486612807 1 I I 0 1 0.5 forward I I I I #
face $-1 $223 $224 $71 $-1 $225 forward single #
loop $-1 $226 $227 $89 #
cone-surface $-1 56.189578954042872 27.660754521914178 8.6948160674859825 -0.77714596973225614 0 -0.62932038083071107 0.31466019041535553 0 -0.38857298486612807 1 I I 0 1 0.5 forward I I I I #
face $-1 $228 $229 $54 $-1 $230 reversed single #
loop $-1 $-1 $231 $90 #
plane-surface $-1 0 0 -11.076605188338787 0 0 1 1 0 0 forward_v I I I I #
coedge $-1 $232 $233 $234 $235 forward $91 $-1 #
face $-1 $236 $237 $55 $-1 $238 reversed single #
loop $-1 $-1 $239 $93 #
plane-surface $-1 -53.591782440857642 0 5.1641880272251761 0 0 1 1 0 0 forward_v I I I I #
coedge $-1 $240 $241 $242 $243 forward $94 $-1 #
face $-1 $244 $245 $56 $-1 $246 reversed single #
loop $-1 $-1 $247 $96 #
plane-surface $-1 -15.083838920392822 -24.590082176760724 97.906006972308205 0.77714596973225614 0 0.62932038083071107 0.62932038083071107 0 -0.77714596973225614 forward_v I I I I #
coedge $-1 $248 $249 $250 $251 reversed $97 $-1 #
face $-1 $-1 $252 $57 $-1 $253 forward single #
loop $-1 $254 $255 $99 #
cone-surface $-1 55.410434798698567 -27.660754521914171 8.0638775878947815 -0.77714596973225614 0 -0.62932038083071107 0.15733009520767777 0 -0.19428649243306403 1 I I -0.70710678118654746 0.70710678118654746 0.25 forward I I I I #
loop $-1 $-1 $256 $75 #
coedge $-1 $160 $160 $257 $258 reversed $100 $-1 #
face $-1 $-1 $259 $58 $-1 $260 forward single #
loop $-1 $261 $262 $102 #
cone-surface $-1 55.410434798698567 -24.590082176760724 8.0638775878947815 -0.77714596973225614 0 -0.62932038083071107 0.15733009520767777 0 -0.19428649243306403 1 I I -0.70710678118654746 0.70710678118654746 0.25 forward I I I I #
loop $-1 $-1 $263 $76 #
coedge $-1 $165 $165 $264 $265 reversed $103 $-1 #
face $-1 $-1 $266 $59 $-1 $267 forward single #
loop $-1 $268 $269 $105 #
cone-surface $-1 55.410434798698567 -21.519409831607277 8.0638775878947815 -0.77714596973225614 0 -0.62932038083071107 0.15733009520767777 0 -0.19428649243306403 1 I I -0.70710678118654746 0.70710678118654746 0.25 forward I I I I #
loop $-1 $-1 $270 $77 #
coedge $-1 $170 $170 $271 $272 reversed $106 $-1 #
face $-1 $273 $274 $60 $-1 $275 reversed single #
loop $-1 $-1 $276 $108 #
plane-surface $-1 -15.083838920392822 -8.1966940589202402 97.906006972308205 0.77714596973225614 0 0.62932038083071107 0.62932038083071107 0 -0.77714596973225614 forward_v I I I I #
coedge $-1 $277 $278 $279 $280 reversed $109 $-1 #
face $-1 $-1 $281 $61 $-1 $282 forward single #
loop $-1 $283 $284 $111 #
cone-surface $-1 55.410434798698567 -11.267366404073684 8.0638775878947815 -0.77714596973225614 0 -0.62932038083071107 0.15733009520767777 0 -0.19428649243306403 1 I I -0.70710678118654746 0.70710678118654746 0.25 forward I I I I #
loop $-1 $-1 $285 $79 #
coedge $-1 $179 $179 $286 $287 reversed $112 $-1 #
face $-1 $-1 $288 $62 $-1 $289 forward single #
loop $-1 $290 $291 $114 #
cone-surface $-1 55.410434798698567 -8.1966940589202402 8.0638775878947815 -0.77714596973225614 0 -0.62932038083071107 0.15733009520767777 0 -0.19428649243306403 1 I I -0.70710678118654746 0.70710678118654746 0.25 forward I I I I #
loop $-1 $-1 $292 $80 #
coedge $-1 $184 $184 $293 $294 reversed $115 $-1 #
face $-1 $-1 $295 $63 $-1 $296 forward single #
loop $-1 $297 $298 $117 #
cone-surface $-1 55.410434798698567 -5.1260217137667929 8.0638775878947815 -0.77714596973225614 0 -0.62932038083071107 0.15733009520767777 0 -0.19428649243306403 1 I I -0.70710678118654746 0.70710678118654746 0.25 forward I I I I #
loop $-1 $-1 $299 $81 #
coedge $-1 $189 $189 $300 $301 reversed $118 $-1 #
face $-1 $302 $303 $64 $-1 $304 reversed single #
loop $-1 $-1 $305 $120 #
plane-surface $-1 -15.083838920392822 8.1966940589202437 97.906006972308205 0.77714596973225614 0 0.62932038083071107 0.62932038083071107 0 -0.77714596973225614 forward_v I I I I #
coedge $-1 $306 $307 $308 $309 reversed $121 $-1 #
face $-1 $-1 $310 $65 $-1 $311 forward single #
loop $-1 $312 $313 $123 #
cone-surface $-1 55.410434798698567 5.1260217137667965 8.0638775878947815 -0.77714596973225614 0 -0.62932038083071107 0.15733009520767777 0 -0.19428649243306403 1 I I -0.70710678118654746 0.70710678118654746 0.25 forward I I I I #
loop $-1 $-1 $314 $83 #
coedge $-1 $198 $198 $315 $316 reversed $124 $-1 #
face $-1 $-1 $317 $66 $-1 $318 forward single #
loop $-1 $319 $320 $126 #
cone-surface $-1 55.410434798698567 8.1966940589202437 8.0638775878947815 -0.77714596973225614 0 -0.62932038083071107 0.15733009520767777 0 -0.19428649243306403 1 I I -0.70710678118654746 0.70710678118654746 0.25 forward I I I I #
loop $-1 $-1 $321 $84 #
coedge $-1 $203 $203 $322 $323 reversed $127 $-1 #
face $-1 $-1 $324 $67 $-1 $325 forward single #
loop $-1 $326 $327 $129 #
cone-surface $-1 55.410434798698567 11.267366404073691 8.0638775878947815 -0.77714596973225614 0 -0.62932038083071107 0.15733009520767777 0 -0.19428649243306403 1 I I -0.70710678118654746 0.70710678118654746 0.25 forward I I I I #
loop $-1 $-1 $328 $85 #
coedge $-1 $208 $208 $329 $330 reversed $130 $-1 #
face $-1 $331 $332 $68 $-1 $333 reversed single #
loop $-1 $-1 $334 $132 #
plane-surface $-1 -15.083838920392822 24.590082176760724 97.906006972308205 0.77714596973225614 0 0.62932038083071107 0.62932038083071107 0 -0.77714596973225614 forward_v I I I I #
coedge $-1 $335 $336 $337 $338 reversed $133 $-1 #
face $-1 $-1 $339 $69 $-1 $340 forward single #
loop $-1 $341 $342 $135 #
cone-surface $-1 55.410434798698567 21.519409831607284 8.0638775878947815 -0.77714596973225614 0 -0.62932038083071107 0.15733009520767777 0 -0.19428649243306403 1 I I -0.70710678118654746 0.70710678118654746 0.25 forward I I I I #
loop $-1 $-1 $343 $87 #
coedge $-1 $217 $217 $344 $345 reversed $136 $-1 #
face $-1 $-1 $346 $70 $-1 $347 forward single #
loop $-1 $348 $349 $138 #
cone-surface $-1 55.410434798698567 24.590082176760724 8.0638775878947815 -0.77714596973225614 0 -0.62932038083071107 0.15733009520767777 0 -0.19428649243306403 1 I I -0.70710678118654746 0.70710678118654746 0.25 forward I I I I #
loop $-1 $-1 $350 $88 #
coedge $-1 $222 $222 $351 $352 reversed $139 $-1 #
face $-1 $-1 $353 $71 $-1 $354 forward single #
loop $-1 $355 $356 $141 #
cone-surface $-1 55.410434798698567 27.660754521914178 8.0638775878947815 -0.77714596973225614 0 -0.62932038083071107 0.15733009520767777 0 -0.19428649243306403 1 I I -0.70710678118654746 0.70710678118654746 0.25 forward I I I I #
loop $-1 $-1 $357 $89 #
coedge $-1 $227 $227 $358 $359 reversed $142 $-1 #
face $-1 $360 $361 $54 $-1 $362 reversed single #
loop $-1 $-1 $363 $144 #
plane-surface $-1 0 -33.990814793899212 0 0 1 0 0 0 1 forward_v I I I I #
coedge $-1 $364 $365 $366 $367 forward $145 $-1 #
coedge $-1 $368 $147 $369 $370 forward $91 $-1 #
coedge $-1 $147 $368 $371 $372 forward $91 $-1 #
coedge $-1 $373 $374 $147 $235 reversed $375 $-1 #
edge $-1 $376 -33.990814793899212 $377 33.990814793899212 $234 $378 forward 7 unknown #
face $-1 $379 $380 $55 $-1 $381 reversed single #
loop $-1 $-1 $382 $148 #
plane-surface $-1 -48.863914013463692 0 7.2646087657042262 -1 0 0 0 0 1 forward_v I I I I #
coedge $-1 $383 $384 $385 $386 forward $149 $-1 #
coedge $-1 $387 $151 $388 $389 reversed $94 $-1 #
coedge $-1 $151 $387 $390 $391 reversed $94 $-1 #
coedge $-1 $382 $392 $151 $243 reversed $237 $-1 #
edge $-1 $393 -33.990814793899212 $394 33.990814793899212 $242 $395 forward 7 unknown #
face $-1 $396 $397 $56 $-1 $398 reversed single #
loop $-1 $-1 $399 $152 #
plane-surface $-1 75.561924336515176 -29.707869418683135 171.30949676095261 0 1 0 0.77714596973225614 0 0.62932038083071107 forward_v I I I I #
coedge $-1 $400 $401 $402 $403 reversed $153 $-1 #
coedge $-1 $249 $155 $404 $405 reversed $97 $-1 #
coedge $-1 $155 $248 $400 $406 reversed $97 $-1 #
coedge $-1 $402 $407 $155 $251 forward $408 $-1 #
edge $-1 $409 -20.538688699994005 $410 -17.448260197399037 $250 $411 forward 7 unknown #
loop $-1 $-1 $257 $156 #
plane-surface $-1 -15.083838920392822 -24.590082176760724 97.906006972308205 0.77714596973225614 0 0.62932038083071107 0.62932038083071107 0 -0.77714596973225614 forward_v I I I I #
loop $-1 $-1 $412 $99 #
coedge $-1 $255 $255 $256 $413 reversed $157 $-1 #
coedge $-1 $256 $256 $255 $413 forward $159 $-1 #
coedge $-1 $257 $257 $160 $258 forward $252 $-1 #
edge $-1 $414 0 $414 6.2831853071796004 $257 $415 forward 7 unknown #
loop $-1 $-1 $264 $161 #
plane-surface $-1 -15.083838920392822 -24.590082176760724 97.906006972308205 0.77714596973225614 0 0.62932038083071107 0.62932038083071107 0 -0.77714596973225614 forward_v I I I I #
loop $-1 $-1 $416 $102 #
coedge $-1 $262 $262 $263 $417 reversed $162 $-1 #
coedge $-1 $263 $263 $262 $417 forward $164 $-1 #
coedge $-1 $264 $264 $165 $265 forward $259 $-1 #
edge $-1 $418 0 $418 6.2831853071796004 $264 $419 forward 7 unknown #
loop $-1 $-1 $271 $166 #
plane-surface $-1 -15.083838920392822 -24.590082176760724 97.906006972308205 0.77714596973225614 0 0.62932038083071107 0.62932038083071107 0 -0.77714596973225614 forward_v I I I I #
loop $-1 $-1 $420 $105 #
coedge $-1 $269 $269 $270 $421 reversed $167 $-1 #
coedge $-1 $270 $270 $269 $421 forward $169 $-1 #
coedge $-1 $271 $271 $170 $272 forward $266 $-1 #
edge $-1 $422 0 $422 6.2831853071796004 $271 $423 forward 7 unknown #
face $-1 $424 $425 $60 $-1 $426 reversed single #
loop $-1 $-1 $427 $171 #
plane-surface $-1 75.561924336515176 -13.314481300842651 171.30949676095261 0 1 0 0.77714596973225614 0 0.62932038083071107 forward_v I I I I #
coedge $-1 $428 $429 $430 $431 reversed $172 $-1 #
coedge $-1 $278 $174 $432 $433 reversed $109 $-1 #
coedge $-1 $174 $277 $428 $434 reversed $109 $-1 #
coedge $-1 $430 $435 $174 $280 forward $436 $-1 #
edge $-1 $437 -20.538688699994005 $438 -17.448260197399037 $279 $439 forward 7 unknown #
loop $-1 $-1 $286 $175 #
plane-surface $-1 -15.083838920392822 -8.1966940589202402 97.906006972308205 0.77714596973225614 0 0.62932038083071107 0.62932038083071107 0 -0.77714596973225614 forward_v I I I I #
loop $-1 $-1 $440 $111 #
coedge $-1 $284 $284 $285 $441 reversed $176 $-1 #
coedge $-1 $285 $285 $284 $441 forward $178 $-1 #
coedge $-1 $286 $286 $179 $287 forward $281 $-1 #
edge $-1 $442 0 $442 6.2831853071796004 $286 $443 forward 7 unknown #
loop $-1 $-1 $293 $180 #
plane-surface $-1 -15.083838920392822 -8.1966940589202402 97.906006972308205 0.77714596973225614 0 0.62932038083071107 0.62932038083071107 0 -0.77714596973225614 forward_v I I I I #
loop $-1 $-1 $444 $114 #
coedge $-1 $291 $291 $292 $445 reversed $181 $-1 #
coedge $-1 $292 $292 $291 $445 forward $183 $-1 #
coedge $-1 $293 $293 $184 $294 forward $288 $-1 #
edge $-1 $446 0 $446 6.2831853071796004 $293 $447 forward 7 unknown #
loop $-1 $-1 $300 $185 #
plane-surface $-1 -15.083838920392822 -8.1966940589202402 97.906006972308205 0.77714596973225614 0 0.62932038083071107 0.62932038083071107 0 -0.77714596973225614 forward_v I I I I #
loop $-1 $-1 $448 $117 #
coedge $-1 $298 $298 $299 $449 reversed $186 $-1 #
coedge $-1 $299 $299 $298 $449 forward $188 $-1 #
coedge $-1 $300 $300 $189 $301 forward $295 $-1 #
edge $-1 $450 0 $450 6.2831853071796004 $300 $451 forward 7 unknown #
face $-1 $452 $453 $64 $-1 $454 reversed single #
loop $-1 $-1 $455 $190 #
plane-surface $-1 75.561924336515176 3.0789068169978338 171.30949676095261 0 1 0 0.77714596973225614 0 0.62932038083071107 forward_v I I I I #
coedge $-1 $456 $457 $458 $459 reversed $191 $-1 #
coedge $-1 $307 $193 $460 $461 reversed $121 $-1 #
coedge $-1 $193 $306 $456 $462 reversed $121 $-1 #
coedge $-1 $458 $463 $193 $309 forward $464 $-1 #
edge $-1 $465 -20.538688699994005 $466 -17.448260197399037 $308 $467 forward 7 unknown #
loop $-1 $-1 $315 $194 #
plane-surface $-1 -15.083838920392822 8.1966940589202437 97.906006972308205 0.77714596973225614 0 0.62932038083071107 0.62932038083071107 0 -0.77714596973225614 forward_v I I I I #
loop $-1 $-1 $468 $123 #
coedge $-1 $313 $313 $314 $469 reversed $195 $-1 #
coedge $-1 $314 $314 $313 $469 forward $197 $-1 #
coedge $-1 $315 $315 $198 $316 forward $310 $-1 #
edge $-1 $470 0 $470 6.2831853071796004 $315 $471 forward 7 unknown #
loop $-1 $-1 $322 $199 #
plane-surface $-1 -15.083838920392822 8.1966940589202437 97.906006972308205 0.77714596973225614 0 0.62932038083071107 0.62932038083071107 0 -0.77714596973225614 forward_v I I I I #
loop $-1 $-1 $472 $126 #
coedge $-1 $320 $320 $321 $473 reversed $200 $-1 #
coedge $-1 $321 $321 $320 $473 forward $202 $-1 #
coedge $-1 $322 $322 $203 $323 forward $317 $-1 #
edge $-1 $474 0 $474 6.2831853071796004 $322 $475 forward 7 unknown #
loop $-1 $-1 $329 $204 #
plane-surface $-1 -15.083838920392822 8.1966940589202437 97.906006972308205 0.77714596973225614 0 0.62932038083071107 0.62932038083071107 0 -0.77714596973225614 forward_v I I I I #
loop $-1 $-1 $476 $129 #
coedge $-1 $327 $327 $328 $477 reversed $205 $-1 #
coedge $-1 $328 $328 $327 $477 forward $207 $-1 #
coedge $-1 $329 $329 $208 $330 forward $324 $-1 #
edge $-1 $478 0 $478 6.2831853071796004 $329 $479 forward 7 unknown #
face $-1 $480 $481 $68 $-1 $482 reversed single #
loop $-1 $-1 $483 $209 #
plane-surface $-1 75.561924336515176 19.472294934838313 171.30949676095261 0 1 0 0.77714596973225614 0 0.62932038083071107 forward_v I I I I #
coedge $-1 $484 $485 $486 $487 reversed $210 $-1 #
coedge $-1 $336 $212 $488 $489 reversed $133 $-1 #
coedge $-1 $212 $335 $484 $490 reversed $133 $-1 #
coedge $-1 $486 $491 $212 $338 forward $492 $-1 #
edge $-1 $493 -20.538688699994005 $494 -17.448260197399037 $337 $495 forward 7 unknown #
loop $-1 $-1 $344 $213 #
plane-surface $-1 -15.083838920392822 24.590082176760724 97.906006972308205 0.77714596973225614 0 0.62932038083071107 0.62932038083071107 0 -0.77714596973225614 forward_v I I I I #
loop $-1 $-1 $496 $135 #
coedge $-1 $342 $342 $343 $497 reversed $214 $-1 #
coedge $-1 $343 $343 $342 $497 forward $216 $-1 #
coedge $-1 $344 $344 $217 $345 forward $339 $-1 #
edge $-1 $498 0 $498 6.2831853071796004 $344 $499 forward 7 unknown #
loop $-1 $-1 $351 $218 #
plane-surface $-1 -15.083838920392822 24.590082176760724 97.906006972308205 0.77714596973225614 0 0.62932038083071107 0.62932038083071107 0 -0.77714596973225614 forward_v I I I I #
loop $-1 $-1 $500 $138 #
coedge $-1 $349 $349 $350 $501 reversed $219 $-1 #
coedge $-1 $350 $350 $349 $501 forward $221 $-1 #
coedge $-1 $351 $351 $222 $352 forward $346 $-1 #
edge $-1 $502 0 $502 6.2831853071796004 $351 $503 forward 7 unknown #
loop $-1 $-1 $358 $223 #
plane-surface $-1 -15.083838920392822 24.590082176760724 97.906006972308205 0.77714596973225614 0 0.62932038083071107 0.62932038083071107 0 -0.77714596973225614 forward_v I I I I #
loop $-1 $-1 $504 $141 #
coedge $-1 $356 $356 $357 $505 reversed $224 $-1 #
coedge $-1 $357 $357 $356 $505 forward $226 $-1 #
coedge $-1 $358 $358 $227 $359 forward $353 $-1 #
edge $-1 $506 0 $506 6.2831853071796004 $358 $507 forward 7 unknown #
face $-1 $508 $509 $54 $-1 $510 reversed single #
loop $-1 $-1 $511 $228 #
plane-surface $-1 -58.319650868251593 0 0 1 0 0 0 0 -1 forward_v I I I I #
coedge $-1 $512 $371 $513 $514 forward $229 $-1 #
coedge $-1 $515 $231 $512 $516 forward $145 $-1 #
coedge $-1 $231 $515 $517 $518 forward $145 $-1 #
coedge $-1 $374 $373 $231 $367 reversed $375 $-1 #
edge $-1 $519 -33.990814793899212 $520 33.990814793899212 $366 $521 forward 7 unknown #
coedge $-1 $233 $232 $522 $523 forward $91 $-1 #
coedge $-1 $524 $525 $232 $370 reversed $509 $-1 #
edge $-1 $377 -58.319650868251593 $526 58.319650868251593 $369 $527 forward 7 unknown #
coedge $-1 $363 $528 $233 $372 reversed $229 $-1 #
edge $-1 $529 -58.319650868251593 $376 58.319650868251593 $371 $530 forward 7 unknown #
coedge $-1 $366 $234 $528 $531 forward $375 $-1 #
coedge $-1 $234 $366 $524 $532 reversed $375 $-1 #
loop $-1 $-1 $373 $508 #
vertex $-1 $235 $533 #
vertex $-1 $235 $534 #
straight-curve $-1 58.319650868251593 0 11.076605188338787 0 1 0 I I #
face $-1 $535 $536 $55 $-1 $537 reversed single #
loop $-1 $-1 $538 $236 #
plane-surface $-1 0 -33.990814793899212 0 0 1 0 0 0 1 forward_v I I I I #
coedge $-1 $385 $242 $539 $540 reversed $237 $-1 #
coedge $-1 $541 $239 $538 $542 reversed $149 $-1 #
coedge $-1 $239 $541 $543 $544 reversed $149 $-1 #
coedge $-1 $392 $382 $239 $386 reversed $237 $-1 #
edge $-1 $545 -33.990814793899212 $546 33.990814793899212 $385 $547 forward 7 unknown #
coedge $-1 $241 $240 $548 $549 reversed $94 $-1 #
coedge $-1 $550 $551 $240 $389 forward $552 $-1 #
edge $-1 $553 -31.523759647822772 $394 -22.068022793034871 $388 $554 forward 7 unknown #
coedge $-1 $555 $539 $241 $391 forward $380 $-1 #
edge $-1 $393 22.068022793034871 $556 31.523759647822772 $390 $557 forward 7 unknown #
coedge $-1 $242 $385 $550 $558 reversed $237 $-1 #
vertex $-1 $391 $559 #
vertex $-1 $389 $560 #
straight-curve $-1 -48.863914013463692 0 9.3650295041832763 0 1 0 I I #
face $-1 $-1 $408 $56 $-1 $561 forward single #
loop $-1 $-1 $562 $244 #
plane-surface $-1 58.319650868251593 0 0 -1 0 0 0 0 1 forward_v I I I I #
coedge $-1 $563 $564 $565 $566 reversed $245 $-1 #
coedge $-1 $567 $247 $249 $406 forward $153 $-1 #
coedge $-1 $247 $567 $563 $568 forward $153 $-1 #
coedge $-1 $565 $250 $247 $403 forward $408 $-1 #
edge $-1 $410 7.1772538464579512 $569 17.412828330302773 $402 $570 forward 7 unknown #
coedge $-1 $571 $572 $248 $405 forward $397 $-1 #
edge $-1 $573 -78.394504665076099 $409 -74.578143192137517 $404 $574 forward 7 unknown #
edge $-1 $410 111.72856215658436 $573 116.6393017365032 $249 $575 forward 7 unknown #
coedge $-1 $250 $565 $571 $576 forward $408 $-1 #
loop $-1 $-1 $565 $396 #
vertex $-1 $405 $577 #
vertex $-1 $251 $578 #
straight-curve $-1 37.780962168257588 -19.472294934838313 11.076605188338789 -1 0 0 I I #
coedge $-1 $412 $412 $-1 $579 reversed $254 $-1 #
edge $-1 $580 0 $580 6.2831853071796004 $255 $581 forward 7 unknown #
vertex $-1 $258 $582 #
ellipse-curve $-1 56.774436616954098 -27.660754521914171 9.1684244518694964 0.77714596973225614 0 0.62932038083071107 0.31466019041535553 0 -0.38857298486612807 1 I I #
coedge $-1 $416 $416 $-1 $583 reversed $261 $-1 #
edge $-1 $584 0 $584 6.2831853071796004 $262 $585 forward 7 unknown #
vertex $-1 $265 $586 #
ellipse-curve $-1 56.774436616954098 -24.590082176760724 9.1684244518694964 0.77714596973225614 0 0.62932038083071107 0.31466019041535553 0 -0.38857298486612807 1 I I #
coedge $-1 $420 $420 $-1 $587 reversed $268 $-1 #
edge $-1 $588 0 $588 6.2831853071796004 $269 $589 forward 7 unknown #
vertex $-1 $272 $590 #
ellipse-curve $-1 56.774436616954098 -21.519409831607277 9.1684244518694964 0.77714596973225614 0 0.62932038083071107 0.31466019041535553 0 -0.38857298486612807 1 I I #
face $-1 $-1 $436 $60 $-1 $591 forward single #
loop $-1 $-1 $592 $273 #
plane-surface $-1 58.319650868251593 0 0 -1 0 0 0 0 1 forward_v I I I I #
coedge $-1 $593 $594 $595 $596 reversed $274 $-1 #
coedge $-1 $597 $276 $278 $434 forward $172 $-1 #
coedge $-1 $276 $597 $593 $598 forward $172 $-1 #
coedge $-1 $595 $279 $276 $431 forward $436 $-1 #
edge $-1 $438 -1.0194402124622899 $599 9.2161342713825309 $430 $600 forward 7 unknown #
coedge $-1 $601 $602 $277 $433 forward $425 $-1 #
edge $-1 $603 -78.394504665076099 $437 -74.578143192137517 $432 $604 forward 7 unknown #
edge $-1 $438 111.72856215658436 $603 116.6393017365032 $278 $605 forward 7 unknown #
coedge $-1 $279 $595 $601 $606 forward $436 $-1 #
loop $-1 $-1 $595 $424 #
vertex $-1 $433 $607 #
vertex $-1 $280 $608 #
straight-curve $-1 37.780962168257588 -3.0789068169978302 11.076605188338789 -1 0 0 I I #
coedge $-1 $440 $440 $-1 $609 reversed $283 $-1 #
edge $-1 $610 0 $610 6.2831853071796004 $284 $611 forward 7 unknown #
vertex $-1 $287 $612 #
ellipse-curve $-1 56.774436616954098 -11.267366404073684 9.1684244518694964 0.77714596973225614 0 0.62932038083071107 0.31466019041535553 0 -0.38857298486612807 1 I I #
coedge $-1 $444 $444 $-1 $613 reversed $290 $-1 #
edge $-1 $614 0 $614 6.2831853071796004 $291 $615 forward 7 unknown #
vertex $-1 $294 $616 #
ellipse-curve $-1 56.774436616954098 -8.1966940589202402 9.1684244518694964 0.77714596973225614 0 0.62932038083071107 0.31466019041535553 0 -0.38857298486612807 1 I I #
coedge $-1 $448 $448 $-1 $617 reversed $297 $-1 #
edge $-1 $618 0 $618 6.2831853071796004 $298 $619 forward 7 unknown #
vertex $-1 $301 $620 #
ellipse-curve $-1 56.774436616954098 -5.1260217137667929 9.1684244518694964 0.77714596973225614 0 0.62932038083071107 0.31466019041535553 0 -0.38857298486612807 1 I I #
face $-1 $-1 $464 $64 $-1 $621 forward single #
loop $-1 $-1 $622 $302 #
plane-surface $-1 58.319650868251593 0 0 -1 0 0 0 0 1 forward_v I I I I #
coedge $-1 $623 $624 $625 $626 reversed $303 $-1 #
coedge $-1 $627 $305 $307 $462 forward $191 $-1 #
coedge $-1 $305 $627 $623 $628 forward $191 $-1 #
coedge $-1 $625 $308 $305 $459 forward $464 $-1 #
edge $-1 $466 -9.2161342713825327 $629 1.0194402124622881 $458 $630 forward 7 unknown #
coedge $-1 $631 $632 $306 $461 forward $453 $-1 #
edge $-1 $633 -78.394504665076099 $465 -74.578143192137517 $460 $634 forward 7 unknown #
edge $-1 $466 111.72856215658436 $633 116.6393017365032 $307 $635 forward 7 unknown #
coedge $-1 $308 $625 $631 $636 forward $464 $-1 #
loop $-1 $-1 $625 $452 #
vertex $-1 $461 $637 #
vertex $-1 $309 $638 #
straight-curve $-1 37.780962168257588 13.314481300842655 11.076605188338789 -1 0 0 I I #
coedge $-1 $468 $468 $-1 $639 reversed $312 $-1 #
edge $-1 $640 0 $640 6.2831853071796004 $313 $641 forward 7 unknown #
vertex $-1 $316 $642 #
ellipse-curve $-1 56.774436616954098 5.1260217137667965 9.1684244518694964 0.77714596973225614 0 0.62932038083071107 0.31466019041535553 0 -0.38857298486612807 1 I I #
coedge $-1 $472 $472 $-1 $643 reversed $319 $-1 #
edge $-1 $644 0 $644 6.2831853071796004 $320 $645 forward 7 unknown #
vertex $-1 $323 $646 #
ellipse-curve $-1 56.774436616954098 8.1966940589202437 9.1684244518694964 0.77714596973225614 0 0.62932038083071107 0.31466019041535553 0 -0.38857298486612807 1 I I #
coedge $-1 $476 $476 $-1 $647 reversed $326 $-1 #
edge $-1 $648 0 $648 6.2831853071796004 $327 $649 forward 7 unknown #
vertex $-1 $330 $650 #
ellipse-curve $-1 56.774436616954098 11.267366404073691 9.1684244518694964 0.77714596973225614 0 0.62932038083071107 0.31466019041535553 0 -0.38857298486612807 1 I I #
face $-1 $-1 $492 $68 $-1 $651 forward single #
loop $-1 $-1 $652 $331 #
plane-surface $-1 58.319650868251593 0 0 -1 0 0 0 0 1 forward_v I I I I #
coedge $-1 $653 $654 $655 $656 reversed $332 $-1 #
coedge $-1 $657 $334 $336 $490 forward $210 $-1 #
coedge $-1 $334 $657 $653 $658 forward $210 $-1 #
coedge $-1 $655 $337 $334 $487 forward $492 $-1 #
edge $-1 $494 -17.412828330302773 $659 -7.1772538464579512 $486 $660 forward 7 unknown #
coedge $-1 $661 $662 $335 $489 forward $481 $-1 #
edge $-1 $663 -78.394504665076099 $493 -74.578143192137517 $488 $664 forward 7 unknown #
edge $-1 $494 111.72856215658436 $663 116.6393017365032 $336 $665 forward 7 unknown #
coedge $-1 $337 $655 $661 $666 forward $492 $-1 #
loop $-1 $-1 $655 $480 #
vertex $-1 $489 $667 #
vertex $-1 $338 $668 #
straight-curve $-1 37.780962168257588 29.707869418683135 11.076605188338789 -1 0 0 I I #
coedge $-1 $496 $496 $-1 $669 reversed $341 $-1 #
edge $-1 $670 0 $670 6.2831853071796004 $342 $671 forward 7 unknown #
vertex $-1 $345 $672 #
ellipse-curve $-1 56.774436616954098 21.519409831607284 9.1684244518694964 0.77714596973225614 0 0.62932038083071107 0.31466019041535553 0 -0.38857298486612807 1 I I #
coedge $-1 $500 $500 $-1 $673 reversed $348 $-1 #
edge $-1 $674 0 $674 6.2831853071796004 $349 $675 forward 7 unknown #
vertex $-1 $352 $676 #
ellipse-curve $-1 56.774436616954098 24.590082176760724 9.1684244518694964 0.77714596973225614 0 0.62932038083071107 0.31466019041535553 0 -0.38857298486612807 1 I I #
coedge $-1 $504 $504 $-1 $677 reversed $355 $-1 #
edge $-1 $678 0 $678 6.2831853071796004 $356 $679 forward 7 unknown #
vertex $-1 $359 $680 #
ellipse-curve $-1 56.774436616954098 27.660754521914178 9.1684244518694964 0.77714596973225614 0 0.62932038083071107 0.31466019041535553 0 -0.38857298486612807 1 I I #
face $-1 $-1 $375 $54 $-1 $681 reversed single #
loop $-1 $-1 $524 $360 #
plane-surface $-1 0 33.990814793899212 0 0 -1 0 0 0 -1 forward_v I I I I #
coedge $-1 $682 $522 $525 $683 forward $361 $-1 #
coedge $-1 $528 $363 $364 $516 reversed $229 $-1 #
coedge $-1 $522 $682 $363 $514 reversed $361 $-1 #
edge $-1 $529 -11.076605188338787 $684 11.076605188338787 $513 $685 forward 7 unknown #
coedge $-1 $365 $364 $682 $686 forward $145 $-1 #
edge $-1 $520 -58.319650868251593 $684 58.319650868251593 $512 $687 forward 7 unknown #
coedge $-1 $525 $524 $365 $518 reversed $509 $-1 #
edge $-1 $688 -58.319650868251593 $519 58.319650868251593 $517 $689 forward 7 unknown #
vertex $-1 $367 $690 #
vertex $-1 $531 $691 #
straight-curve $-1 58.319650868251593 0 -11.076605188338787 0 -1 0 I I #
coedge $-1 $511 $513 $368 $523 reversed $361 $-1 #
edge $-1 $526 -33.990814793899212 $529 33.990814793899212 $522 $692 forward 7 unknown #
coedge $-1 $517 $369 $374 $532 forward $509 $-1 #
coedge $-1 $369 $517 $511 $683 reversed $509 $-1 #
vertex $-1 $370 $693 #
straight-curve $-1 0 33.990814793899212 11.076605188338787 -1 0 0 I I #
coedge $-1 $371 $512 $373 $531 reversed $229 $-1 #
vertex $-1 $523 $694 #
straight-curve $-1 0 -33.990814793899212 11.076605188338787 1 0 0 I I #
edge $-1 $376 -11.076605188338787 $520 11.076605188338787 $373 $695 forward 7 unknown #
edge $-1 $377 -11.076605188338787 $519 11.076605188338787 $374 $696 forward 7 unknown #
point $-1 58.319650868251593 -33.990814793899212 11.076605188338787 #
point $-1 58.319650868251593 33.990814793899212 11.076605188338787 #
face $-1 $-1 $552 $55 $-1 $697 reversed single #
loop $-1 $-1 $698 $379 #
plane-surface $-1 -58.319650868251593 0 0 1 0 0 0 0 -1 forward_v I I I I #
coedge $-1 $539 $555 $383 $542 forward $380 $-1 #
coedge $-1 $390 $538 $382 $540 forward $380 $-1 #
edge $-1 $546 1.531883644373063 $393 5.7327251213311632 $539 $699 forward 7 unknown #
coedge $-1 $384 $383 $698 $700 reversed $149 $-1 #
edge $-1 $701 -31.523759647822772 $546 -22.068022793034871 $538 $702 forward 7 unknown #
coedge $-1 $551 $550 $384 $544 forward $552 $-1 #
edge $-1 $545 22.068022793034871 $703 31.523759647822772 $543 $704 forward 7 unknown #
vertex $-1 $544 $705 #
vertex $-1 $542 $706 #
straight-curve $-1 -48.863914013463692 0 5.1641880272251761 0 -1 0 I I #
coedge $-1 $707 $708 $387 $549 forward $536 $-1 #
edge $-1 $556 -33.990814793899212 $553 33.990814793899212 $548 $709 forward 7 unknown #
coedge $-1 $543 $388 $392 $558 forward $552 $-1 #
coedge $-1 $388 $543 $707 $710 reversed $552 $-1 #
loop $-1 $-1 $543 $535 #
vertex $-1 $710 $711 #
straight-curve $-1 -26.795891220428821 33.990814793899212 9.3650295041832763 1 0 0 I I #
coedge $-1 $538 $390 $708 $712 forward $380 $-1 #
vertex $-1 $712 $713 #
straight-curve $-1 -26.795891220428821 -33.990814793899212 9.3650295041832763 -1 0 0 I I #
edge $-1 $394 -5.7327251213311632 $545 -1.531883644373063 $550 $714 forward 7 unknown #
point $-1 -48.863914013463692 -33.990814793899212 9.3650295041832763 #
point $-1 -48.863914013463692 33.990814793899212 9.3650295041832763 #
plane-surface $-1 0 0 11.076605188338787 0 0 1 1 0 0 forward_v I I I I #
coedge $-1 $572 $571 $564 $715 forward $397 $-1 #
coedge $-1 $564 $399 $401 $568 reversed $245 $-1 #
coedge $-1 $399 $563 $562 $715 reversed $245 $-1 #
coedge $-1 $407 $402 $399 $566 forward $408 $-1 #
edge $-1 $569 17.448260197399037 $716 20.538688699994005 $565 $717 forward 7 unknown #
coedge $-1 $401 $400 $572 $718 reversed $153 $-1 #
edge $-1 $719 -116.6393017365032 $569 -111.72856215658436 $563 $720 forward 7 unknown #
vertex $-1 $403 $721 #
straight-curve $-1 55.229222365656625 -12.295041088380362 11.076605188338789 0 -1 0 I I #
coedge $-1 $562 $404 $407 $576 reversed $397 $-1 #
coedge $-1 $404 $562 $567 $718 forward $397 $-1 #
vertex $-1 $405 $722 #
straight-curve $-1 58.319650868251593 -19.472294934838313 85.654748380476306 0 0 1 I I #
straight-curve $-1 -15.083838920392822 -19.472294934838313 97.906006972308205 0.62932038083071107 0 -0.77714596973225614 I I #
edge $-1 $716 -29.707869418683135 $409 -19.472294934838313 $571 $723 forward 7 unknown #
point $-1 58.319650868251593 -19.472294934838313 11.076605188338787 #
point $-1 55.229222365656625 -19.472294934838313 11.076605188338789 #
edge $-1 $724 1 $724 0 $412 $-1 forward 7 unknown #
vertex $-1 $413 $725 #
ellipse-curve $-1 55.604721291131632 -27.660754521914171 8.2212076831024596 0.77714596973225614 0 0.62932038083071107 0.31466019041535553 0 -0.38857298486612807 1 I I #
point $-1 57.089096807369465 -27.660754521914171 8.7798514670033789 #
edge $-1 $726 1 $726 0 $416 $-1 forward 7 unknown #
vertex $-1 $417 $727 #
ellipse-curve $-1 55.604721291131632 -24.590082176760724 8.2212076831024596 0.77714596973225614 0 0.62932038083071107 0.31466019041535553 0 -0.38857298486612807 1 I I #
point $-1 57.089096807369465 -24.590082176760724 8.7798514670033789 #
edge $-1 $728 1 $728 0 $420 $-1 forward 7 unknown #
vertex $-1 $421 $729 #
ellipse-curve $-1 55.604721291131632 -21.519409831607277 8.2212076831024596 0.77714596973225614 0 0.62932038083071107 0.31466019041535553 0 -0.38857298486612807 1 I I #
point $-1 57.089096807369465 -21.519409831607277 8.7798514670033789 #
plane-surface $-1 0 0 11.076605188338787 0 0 1 1 0 0 forward_v I I I I #
coedge $-1 $602 $601 $594 $730 forward $425 $-1 #
coedge $-1 $594 $427 $429 $598 reversed $274 $-1 #
coedge $-1 $427 $593 $592 $730 reversed $274 $-1 #
coedge $-1 $435 $430 $427 $596 forward $436 $-1 #
edge $-1 $599 17.448260197399037 $731 20.538688699994005 $595 $732 forward 7 unknown #
coedge $-1 $429 $428 $602 $733 reversed $172 $-1 #
edge $-1 $734 -116.6393017365032 $599 -111.72856215658436 $593 $735 forward 7 unknown #
vertex $-1 $431 $736 #
straight-curve $-1 55.229222365656625 -4.0983470294601201 11.076605188338789 0 -1 0 I I #
coedge $-1 $592 $432 $435 $606 reversed $425 $-1 #
coedge $-1 $432 $592 $597 $733 forward $425 $-1 #
vertex $-1 $433 $737 #
straight-curve $-1 58.319650868251593 -3.0789068169978302 85.654748380476306 0 0 1 I I #
straight-curve $-1 -15.083838920392822 -3.0789068169978302 97.906006972308205 0.62932038083071107 0 -0.77714596973225614 I I #
edge $-1 $731 -13.314481300842651 $437 -3.0789068169978302 $601 $738 forward 7 unknown #
point $-1 58.319650868251593 -3.0789068169978302 11.076605188338787 #
point $-1 55.229222365656625 -3.0789068169978302 11.076605188338789 #
edge $-1 $739 1 $739 0 $440 $-1 forward 7 unknown #
vertex $-1 $441 $740 #
ellipse-curve $-1 55.604721291131632 -11.267366404073684 8.2212076831024596 0.77714596973225614 0 0.62932038083071107 0.31466019041535553 0 -0.38857298486612807 1 I I #
point $-1 57.089096807369465 -11.267366404073684 8.7798514670033789 #
edge $-1 $741 1 $741 0 $444 $-1 forward 7 unknown #
vertex $-1 $445 $742 #
ellipse-curve $-1 55.604721291131632 -8.1966940589202402 8.2212076831024596 0.77714596973225614 0 0.62932038083071107 0.31466019041535553 0 -0.38857298486612807 1 I I #
point $-1 57.089096807369465 -8.1966940589202402 8.7798514670033789 #
edge $-1 $743 1 $743 0 $448 $-1 forward 7 unknown #
vertex $-1 $449 $744 #
ellipse-curve $-1 55.604721291131632 -5.1260217137667929 8.2212076831024596 0.77714596973225614 0 0.62932038083071107 0.31466019041535553 0 -0.38857298486612807 1 I I #
point $-1 57.089096807369465 -5.1260217137667929 8.7798514670033789 #
plane-surface $-1 0 0 11.076605188338787 0 0 1 1 0 0 forward_v I I I I #
coedge $-1 $632 $631 $624 $745 forward $453 $-1 #
coedge $-1 $624 $455 $457 $628 reversed $303 $-1 #
coedge $-1 $455 $623 $622 $745 reversed $303 $-1 #
coedge $-1 $463 $458 $455 $626 forward $464 $-1 #
edge $-1 $629 17.448260197399037 $746 20.538688699994005 $625 $747 forward 7 unknown #
coedge $-1 $457 $456 $632 $748 reversed $191 $-1 #
edge $-1 $749 -116.6393017365032 $629 -111.72856215658436 $623 $750 forward 7 unknown #
vertex $-1 $459 $751 #
straight-curve $-1 55.229222365656625 4.0983470294601219 11.076605188338789 0 -1 0 I I #
coedge $-1 $622 $460 $463 $636 reversed $453 $-1 #
coedge $-1 $460 $622 $627 $748 forward $453 $-1 #
vertex $-1 $461 $752 #
straight-curve $-1 58.319650868251593 13.314481300842655 85.654748380476306 0 0 1 I I #
straight-curve $-1 -15.083838920392822 13.314481300842655 97.906006972308205 0.62932038083071107 0 -0.77714596973225614 I I #
edge $-1 $746 3.0789068169978338 $465 13.314481300842655 $631 $753 forward 7 unknown #
point $-1 58.319650868251593 13.314481300842655 11.076605188338787 #
point $-1 55.229222365656625 13.314481300842655 11.076605188338789 #
edge $-1 $754 1 $754 0 $468 $-1 forward 7 unknown #
vertex $-1 $469 $755 #
ellipse-curve $-1 55.604721291131632 5.1260217137667965 8.2212076831024596 0.77714596973225614 0 0.62932038083071107 0.31466019041535553 0 -0.38857298486612807 1 I I #
point $-1 57.089096807369465 5.1260217137667965 8.7798514670033789 #
edge $-1 $756 1 $756 0 $472 $-1 forward 7 unknown #
vertex $-1 $473 $757 #
ellipse-curve $-1 55.604721291131632 8.1966940589202437 8.2212076831024596 0.77714596973225614 0 0.62932038083071107 0.31466019041535553 0 -0.38857298486612807 1 I I #
point $-1 57.089096807369465 8.1966940589202437 8.7798514670033789 #
edge $-1 $758 1 $758 0 $476 $-1 forward 7 unknown #
vertex $-1 $477 $759 #
ellipse-curve $-1 55.604721291131632 11.267366404073691 8.2212076831024596 0.77714596973225614 0 0.62932038083071107 0.31466019041535553 0 -0.38857298486612807 1 I I #
point $-1 57.089096807369465 11.267366404073691 8.7798514670033789 #
plane-surface $-1 0 0 11.076605188338787 0 0 1 1 0 0 forward_v I I I I #
coedge $-1 $662 $661 $654 $760 forward $481 $-1 #
coedge $-1 $654 $483 $485 $658 reversed $332 $-1 #
coedge $-1 $483 $653 $652 $760 reversed $332 $-1 #
coedge $-1 $491 $486 $483 $656 forward $492 $-1 #
edge $-1 $659 17.448260197399037 $761 20.538688699994005 $655 $762 forward 7 unknown #
coedge $-1 $485 $484 $662 $763 reversed $210 $-1 #
edge $-1 $764 -116.6393017365032 $659 -111.72856215658436 $653 $765 forward 7 unknown #
vertex $-1 $487 $766 #
straight-curve $-1 55.229222365656625 12.295041088380362 11.076605188338789 0 -1 0 I I #
coedge $-1 $652 $488 $491 $666 reversed $481 $-1 #
coedge $-1 $488 $652 $657 $763 forward $481 $-1 #
vertex $-1 $489 $767 #
straight-curve $-1 58.319650868251593 29.707869418683135 85.654748380476306 0 0 1 I I #
straight-curve $-1 -15.083838920392822 29.707869418683135 97.906006972308205 0.62932038083071107 0 -0.77714596973225614 I I #
edge $-1 $761 19.472294934838313 $493 29.707869418683135 $661 $768 forward 7 unknown #
point $-1 58.319650868251593 29.707869418683135 11.076605188338787 #
point $-1 55.229222365656625 29.707869418683135 11.076605188338789 #
edge $-1 $769 1 $769 0 $496 $-1 forward 7 unknown #
vertex $-1 $497 $770 #
ellipse-curve $-1 55.604721291131632 21.519409831607284 8.2212076831024596 0.77714596973225614 0 0.62932038083071107 0.31466019041535553 0 -0.38857298486612807 1 I I #
point $-1 57.089096807369465 21.519409831607284 8.7798514670033789 #
edge $-1 $771 1 $771 0 $500 $-1 forward 7 unknown #
vertex $-1 $501 $772 #
ellipse-curve $-1 55.604721291131632 24.590082176760724 8.2212076831024596 0.77714596973225614 0 0.62932038083071107 0.31466019041535553 0 -0.38857298486612807 1 I I #
point $-1 57.089096807369465 24.590082176760724 8.7798514670033789 #
edge $-1 $773 1 $773 0 $504 $-1 forward 7 unknown #
vertex $-1 $505 $774 #
ellipse-curve $-1 55.604721291131632 27.660754521914178 8.2212076831024596 0.77714596973225614 0 0.62932038083071107 0.31466019041535553 0 -0.38857298486612807 1 I I #
point $-1 57.089096807369465 27.660754521914178 8.7798514670033789 #
plane-surface $-1 58.319650868251593 0 0 -1 0 0 0 0 1 forward_v I I I I #
coedge $-1 $513 $511 $515 $686 reversed $361 $-1 #
edge $-1 $526 -11.076605188338787 $688 11.076605188338787 $525 $775 forward 7 unknown #
vertex $-1 $686 $776 #
straight-curve $-1 -58.319650868251593 -33.990814793899212 0 0 0 -1 I I #
edge $-1 $684 -33.990814793899212 $688 33.990814793899212 $682 $777 forward 7 unknown #
straight-curve $-1 0 -33.990814793899212 -11.076605188338787 -1 0 0 I I #
vertex $-1 $518 $778 #
straight-curve $-1 0 33.990814793899212 -11.076605188338787 1 0 0 I I #
point $-1 58.319650868251593 33.990814793899212 -11.076605188338787 #
point $-1 58.319650868251593 -33.990814793899212 -11.076605188338787 #
straight-curve $-1 -58.319650868251593 0 11.076605188338787 0 -1 0 I I #
point $-1 -58.319650868251593 33.990814793899212 11.076605188338787 #
point $-1 -58.319650868251593 -33.990814793899212 11.076605188338787 #
straight-curve $-1 58.319650868251593 -33.990814793899212 0 0 0 -1 I I #
straight-curve $-1 58.319650868251593 33.990814793899212 0 0 0 -1 I I #
plane-surface $-1 0 33.990814793899212 0 0 -1 0 0 0 -1 forward_v I I I I #
coedge $-1 $708 $707 $541 $700 forward $536 $-1 #
straight-curve $-1 -48.863914013463692 -33.990814793899212 3.6323043828521131 0 0 1 I I #
edge $-1 $703 -33.990814793899212 $701 33.990814793899212 $698 $779 forward 7 unknown #
vertex $-1 $542 $780 #
straight-curve $-1 -26.795891220428821 -33.990814793899212 5.1641880272251761 1 0 0 I I #
vertex $-1 $544 $781 #
straight-curve $-1 -26.795891220428821 33.990814793899212 5.1641880272251761 -1 0 0 I I #
point $-1 -48.863914013463692 33.990814793899212 5.1641880272251761 #
point $-1 -48.863914013463692 -33.990814793899212 5.1641880272251761 #
coedge $-1 $698 $548 $551 $710 forward $536 $-1 #
coedge $-1 $548 $698 $555 $712 reversed $536 $-1 #
straight-curve $-1 -58.319650868251593 0 9.3650295041832763 0 1 0 I I #
edge $-1 $553 -9.3650295041832763 $703 -5.1641880272251761 $551 $782 forward 7 unknown #
point $-1 -58.319650868251593 33.990814793899212 9.3650295041832763 #
edge $-1 $556 -9.3650295041832763 $701 -5.1641880272251761 $708 $783 forward 7 unknown #
point $-1 -58.319650868251593 -33.990814793899212 9.3650295041832763 #
straight-curve $-1 -48.863914013463692 33.990814793899212 3.6323043828521131 0 0 -1 I I #
edge $-1 $716 74.578143192137517 $719 78.394504665076099 $562 $784 forward 7 unknown #
vertex $-1 $576 $785 #
straight-curve $-1 37.780962168257588 -29.707869418683135 11.076605188338789 1 0 0 I I #
edge $-1 $719 -17.412828330302773 $573 -7.1772538464579512 $572 $786 forward 7 unknown #
vertex $-1 $718 $787 #
straight-curve $-1 -15.083838920392822 -29.707869418683135 97.906006972308205 -0.62932038083071107 0 0.77714596973225614 I I #
point $-1 55.229222365656625 -29.707869418683135 11.076605188338789 #
point $-1 58.319650868251586 -19.472294934838313 7.2602437154002075 #
straight-curve $-1 58.319650868251593 0 11.076605188338787 0 1 0 I I #
vertex $-1 $579 $788 #
point $-1 55.919381481546985 -27.660754521914171 7.8326346982363315 #
vertex $-1 $583 $789 #
point $-1 55.919381481546985 -24.590082176760724 7.8326346982363315 #
vertex $-1 $587 $790 #
point $-1 55.919381481546985 -21.519409831607277 7.8326346982363315 #
edge $-1 $731 74.578143192137517 $734 78.394504665076099 $592 $791 forward 7 unknown #
vertex $-1 $606 $792 #
straight-curve $-1 37.780962168257588 -13.314481300842651 11.076605188338789 1 0 0 I I #
edge $-1 $734 -9.2161342713825309 $603 1.0194402124622899 $602 $793 forward 7 unknown #
vertex $-1 $733 $794 #
straight-curve $-1 -15.083838920392822 -13.314481300842651 97.906006972308205 -0.62932038083071107 0 0.77714596973225614 I I #
point $-1 55.229222365656625 -13.314481300842651 11.076605188338789 #
point $-1 58.319650868251586 -3.0789068169978302 7.2602437154002075 #
straight-curve $-1 58.319650868251593 0 11.076605188338787 0 1 0 I I #
vertex $-1 $609 $795 #
point $-1 55.919381481546985 -11.267366404073684 7.8326346982363315 #
vertex $-1 $613 $796 #
point $-1 55.919381481546985 -8.1966940589202402 7.8326346982363315 #
vertex $-1 $617 $797 #
point $-1 55.919381481546985 -5.1260217137667929 7.8326346982363315 #
edge $-1 $746 74.578143192137517 $749 78.394504665076099 $622 $798 forward 7 unknown #
vertex $-1 $636 $799 #
straight-curve $-1 37.780962168257588 3.0789068169978338 11.076605188338789 1 0 0 I I #
edge $-1 $749 -1.0194402124622881 $633 9.2161342713825327 $632 $800 forward 7 unknown #
vertex $-1 $748 $801 #
straight-curve $-1 -15.083838920392822 3.0789068169978338 97.906006972308205 -0.62932038083071107 0 0.77714596973225614 I I #
point $-1 55.229222365656625 3.0789068169978338 11.076605188338789 #
point $-1 58.319650868251586 13.314481300842655 7.2602437154002075 #
straight-curve $-1 58.319650868251593 0 11.076605188338787 0 1 0 I I #
vertex $-1 $639 $802 #
point $-1 55.919381481546985 5.1260217137667965 7.8326346982363315 #
vertex $-1 $643 $803 #
point $-1 55.919381481546985 8.1966940589202437 7.8326346982363315 #
vertex $-1 $647 $804 #
point $-1 55.919381481546985 11.267366404073691 7.8326346982363315 #
edge $-1 $761 74.578143192137517 $764 78.394504665076099 $652 $805 forward 7 unknown #
vertex $-1 $666 $806 #
straight-curve $-1 37.780962168257588 19.472294934838313 11.076605188338789 1 0 0 I I #
edge $-1 $764 7.1772538464579512 $663 17.412828330302773 $662 $807 forward 7 unknown #
vertex $-1 $763 $808 #
straight-curve $-1 -15.083838920392822 19.472294934838313 97.906006972308205 -0.62932038083071107 0 0.77714596973225614 I I #
point $-1 55.229222365656625 19.472294934838313 11.076605188338789 #
point $-1 58.319650868251586 29.707869418683135 7.2602437154002075 #
straight-curve $-1 58.319650868251593 0 11.076605188338787 0 1 0 I I #
vertex $-1 $669 $809 #
point $-1 55.919381481546985 21.519409831607284 7.8326346982363315 #
vertex $-1 $673 $810 #
point $-1 55.919381481546985 24.590082176760724 7.8326346982363315 #
vertex $-1 $677 $811 #
point $-1 55.919381481546985 27.660754521914178 7.8326346982363315 #
straight-curve $-1 -58.319650868251593 33.990814793899212 0 0 0 -1 I I #
point $-1 -58.319650868251593 -33.990814793899212 -11.076605188338787 #
straight-curve $-1 -58.319650868251593 0 -11.076605188338787 0 1 0 I I #
point $-1 -58.319650868251593 33.990814793899212 -11.076605188338787 #
straight-curve $-1 -58.319650868251593 0 5.1641880272251761 0 -1 0 I I #
point $-1 -58.319650868251593 -33.990814793899212 5.1641880272251761 #
point $-1 -58.319650868251593 33.990814793899212 5.1641880272251761 #
straight-curve $-1 -58.319650868251593 33.990814793899212 0 0 0 -1 I I #
straight-curve $-1 -58.319650868251593 -33.990814793899212 0 0 0 -1 I I #
straight-curve $-1 58.319650868251593 -29.707869418683135 85.654748380476306 0 0 -1 I I #
point $-1 58.319650868251593 -29.707869418683135 11.076605188338787 #
straight-curve $-1 58.319650868251586 -12.295041088380362 7.2602437154002146 0 1 0 I I #
point $-1 58.319650868251586 -29.707869418683135 7.2602437154002075 #
point $-1 55.216148306265502 -27.660754521914171 7.9065474926871033 #
point $-1 55.216148306265502 -24.590082176760724 7.9065474926871033 #
point $-1 55.216148306265502 -21.519409831607277 7.9065474926871033 #
straight-curve $-1 58.319650868251593 -13.314481300842651 85.654748380476306 0 0 -1 I I #
point $-1 58.319650868251593 -13.314481300842651 11.076605188338787 #
straight-curve $-1 58.319650868251586 -4.0983470294601201 7.2602437154002146 0 1 0 I I #
point $-1 58.319650868251586 -13.314481300842651 7.2602437154002075 #
point $-1 55.216148306265502 -11.267366404073684 7.9065474926871033 #
point $-1 55.216148306265502 -8.1966940589202402 7.9065474926871033 #
point $-1 55.216148306265502 -5.1260217137667929 7.9065474926871033 #
straight-curve $-1 58.319650868251593 3.0789068169978338 85.654748380476306 0 0 -1 I I #
point $-1 58.319650868251593 3.0789068169978338 11.076605188338787 #
straight-curve $-1 58.319650868251586 4.0983470294601219 7.2602437154002146 0 1 0 I I #
point $-1 58.319650868251586 3.0789068169978338 7.2602437154002075 #
point $-1 55.216148306265502 5.1260217137667965 7.9065474926871033 #
point $-1 55.216148306265502 8.1966940589202437 7.9065474926871033 #
point $-1 55.216148306265502 11.267366404073691 7.9065474926871033 #
straight-curve $-1 58.319650868251593 19.472294934838313 85.654748380476306 0 0 -1 I I #
point $-1 58.319650868251593 19.472294934838313 11.076605188338787 #
straight-curve $-1 58.319650868251586 12.295041088380362 7.2602437154002146 0 1 0 I I #
point $-1 58.319650868251586 19.472294934838313 7.2602437154002075 #
point $-1 55.216148306265502 21.519409831607284 7.9065474926871033 #
point $-1 55.216148306265502 24.590082176760724 7.9065474926871033 #
point $-1 55.216148306265502 27.660754521914178 7.9065474926871033 #
End-of-ACIS-data 