500 0 8 0           
7 Unknown 11 ACIS 5.0 NT 24 Thu Mar 25 17:33:17 1999 
-1 9.9999999999999995e-007 1e-010 
body $-1 $8 $-1 $9 #
body $-1 $10 $-1 $11 #
body $-1 $12 $-1 $13 #
body $-1 $14 $-1 $15 #
body $-1 $16 $-1 $17 #
body $-1 $18 $-1 $19 #
body $-1 $20 $-1 $21 #
body $-1 $22 $-1 $23 #
lump $-1 $-1 $24 $0 #
transform $-1 1 0 0 0 1 0 0 0 1 42.04840235602893 24.862672235094873 5.5748474210543852 1 rotate no_reflect no_shear #
lump $-1 $-1 $25 $1 #
transform $-1 1 0 0 0 1 0 0 0 1 42.04840235602893 24.862672235094873 5.5748474210543852 1 rotate no_reflect no_shear #
lump $-1 $-1 $26 $2 #
transform $-1 1 0 0 0 1 0 0 0 1 42.04840235602893 24.862672235094873 5.5748474210543852 1 rotate no_reflect no_shear #
lump $-1 $-1 $27 $3 #
transform $-1 1 0 0 0 1 0 0 0 1 42.04840235602893 24.862672235094873 5.5748474210543852 1 rotate no_reflect no_shear #
lump $-1 $-1 $28 $4 #
transform $-1 1 0 0 0 1 0 0 0 1 42.04840235602893 24.862672235094873 5.5748474210543852 1 rotate no_reflect no_shear #
lump $-1 $-1 $29 $5 #
transform $-1 1 0 0 0 1 0 0 0 1 42.04840235602893 24.862672235094873 5.5748474210543852 1 rotate no_reflect no_shear #
lump $-1 $-1 $30 $6 #
transform $-1 1 0 0 0 1 0 0 0 1 42.04840235602893 24.862672235094873 5.5748474210543852 1 rotate no_reflect no_shear #
lump $-1 $-1 $31 $7 #
transform $-1 1 0 0 0 1 0 0 0 1 42.04840235602893 24.862672235094873 5.5748474210543852 1 rotate no_reflect no_shear #
shell $-1 $-1 $-1 $32 $-1 $8 #
shell $-1 $-1 $-1 $33 $-1 $10 #
shell $-1 $-1 $-1 $34 $-1 $12 #
shell $-1 $-1 $-1 $35 $-1 $14 #
shell $-1 $-1 $-1 $36 $-1 $16 #
shell $-1 $-1 $-1 $37 $-1 $18 #
shell $-1 $-1 $-1 $38 $-1 $20 #
shell $-1 $-1 $-1 $39 $-1 $22 #
face $-1 $40 $41 $24 $-1 $42 forward single #
face $-1 $43 $44 $25 $-1 $45 forward single #
face $-1 $46 $47 $26 $-1 $48 reversed single #
face $-1 $49 $50 $27 $-1 $51 forward single #
face $-1 $52 $53 $28 $-1 $54 forward single #
face $-1 $55 $56 $29 $-1 $57 reversed single #
face $-1 $58 $59 $30 $-1 $60 forward single #
face $-1 $61 $62 $31 $-1 $63 forward single #
face $-1 $64 $65 $24 $-1 $66 reversed single #
loop $-1 $-1 $67 $32 #
plane-surface $-1 0 0 5.5748474210543852 0 0 1 1 0 0 forward_v I I I I #
face $-1 $68 $69 $25 $-1 $70 reversed single #
loop $-1 $-1 $71 $33 #
plane-surface $-1 -42.04840235602893 0 0 1 0 0 0 0 -1 forward_v I I I I #
face $-1 $72 $73 $26 $-1 $74 reversed single #
loop $-1 $-1 $75 $34 #
plane-surface $-1 12.731820118748157 -95.392187878489864 48.228260312461288 -1 0 0 0 -0.83867057594974714 0.54463902268945019 forward_v I I I I #
face $-1 $76 $77 $27 $-1 $78 forward single #
loop $-1 $79 $80 $35 #
cone-surface $-1 3.3664090072566495 -23.371789243631049 3.6961741940231603 0 0.83867057594974714 -0.54463902268945019 0.5 0 0 1 I I 0 1 0.5 forward I I I I #
face $-1 $81 $82 $28 $-1 $83 forward single #
loop $-1 $84 $85 $36 #
cone-surface $-1 8.985655674151559 -23.371789243631049 3.6961741940231603 0 0.83867057594974714 -0.54463902268945019 0.5 0 0 1 I I 0 1 0.5 forward I I I I #
face $-1 $86 $87 $29 $-1 $88 reversed single #
loop $-1 $-1 $89 $37 #
plane-surface $-1 -20.071027134108093 69.830390705663589 87.964020564897694 1 0 0 0 -0.84804810408105047 -0.52991925155115449 forward_v I I I I #
face $-1 $90 $91 $30 $-1 $92 forward single #
loop $-1 $93 $94 $38 #
cone-surface $-1 -17.500344772103091 21.837363759421162 2.3602557345886712 0 -0.84804810408105047 -0.52991925155115449 1 0 0 1 I I 0 1 1 forward I I I I #
face $-1 $95 $96 $31 $-1 $97 forward single #
loop $-1 $98 $99 $39 #
cone-surface $-1 -13.644321229095588 21.837363759421162 2.3602557345886712 0 -0.84804810408105047 -0.52991925155115449 1 0 0 1 I I 0 1 1 forward I I I I #
face $-1 $100 $101 $24 $-1 $102 reversed single #
loop $-1 $-1 $103 $40 #
plane-surface $-1 0 0 -5.5748474210543852 0 0 1 1 0 0 forward_v I I I I #
coedge $-1 $104 $105 $106 $107 forward $41 $-1 #
face $-1 $108 $109 $25 $-1 $110 reversed single #
loop $-1 $-1 $111 $43 #
plane-surface $-1 0 24.862672235094873 0 0 -1 0 0 0 -1 forward_v I I I I #
coedge $-1 $112 $113 $114 $115 forward $44 $-1 #
face $-1 $116 $117 $26 $-1 $118 reversed single #
loop $-1 $-1 $119 $46 #
plane-surface $-1 6.1760323407040971 -24.862672235094891 2.4258587827805442 0 -0.83867057594974714 0.54463902268945019 1 0 0 forward_v I I I I #
coedge $-1 $120 $121 $122 $123 reversed $47 $-1 #
face $-1 $-1 $124 $27 $-1 $125 forward single #
loop $-1 $126 $127 $49 #
cone-surface $-1 3.3664090072566495 -22.693727141575302 3.255835530456495 0 0.83867057594974714 -0.54463902268945019 0.25 0 0 1 I I -0.70710678118654746 0.70710678118654746 0.25 forward I I I I #
loop $-1 $-1 $128 $35 #
coedge $-1 $80 $80 $129 $130 reversed $50 $-1 #
face $-1 $-1 $131 $28 $-1 $132 forward single #
loop $-1 $133 $134 $52 #
cone-surface $-1 8.985655674151559 -22.693727141575302 3.255835530456495 0 0.83867057594974714 -0.54463902268945019 0.25 0 0 1 I I -0.70710678118654746 0.70710678118654746 0.25 forward I I I I #
loop $-1 $-1 $135 $36 #
coedge $-1 $85 $85 $136 $137 reversed $53 $-1 #
face $-1 $138 $139 $29 $-1 $140 reversed single #
loop $-1 $-1 $141 $55 #
plane-surface $-1 -15.572333000599343 -1.487745089671435 43.399504754040393 0 0.84804810408105047 0.52991925155115449 1 0 0 forward_v I I I I #
coedge $-1 $142 $143 $144 $145 reversed $56 $-1 #
face $-1 $-1 $146 $30 $-1 $147 forward single #
loop $-1 $148 $149 $58 #
cone-surface $-1 -17.500344772103091 19.74550573041628 1.0531178072151599 0 -0.84804810408105047 -0.52991925155115449 0.5 0 0 1 I I -0.70710678118654746 0.70710678118654746 0.5 forward I I I I #
loop $-1 $-1 $150 $38 #
coedge $-1 $94 $94 $151 $152 reversed $59 $-1 #
face $-1 $-1 $153 $31 $-1 $154 forward single #
loop $-1 $155 $156 $61 #
cone-surface $-1 -13.644321229095588 19.74550573041628 1.0531178072151599 0 -0.84804810408105047 -0.52991925155115449 0.5 0 0 1 I I -0.70710678118654746 0.70710678118654746 0.5 forward I I I I #
loop $-1 $-1 $157 $39 #
coedge $-1 $99 $99 $158 $159 reversed $62 $-1 #
face $-1 $160 $161 $24 $-1 $162 reversed single #
loop $-1 $-1 $163 $64 #
plane-surface $-1 0 -24.862672235094873 0 0 1 0 0 0 1 forward_v I I I I #
coedge $-1 $164 $165 $166 $167 forward $65 $-1 #
coedge $-1 $168 $67 $169 $170 forward $41 $-1 #
coedge $-1 $67 $168 $171 $172 forward $41 $-1 #
coedge $-1 $173 $174 $67 $107 reversed $175 $-1 #
edge $-1 $176 -24.862672235094873 $177 24.862672235094873 $106 $178 forward 7 unknown #
face $-1 $179 $180 $25 $-1 $181 reversed single #
loop $-1 $-1 $114 $68 #
plane-surface $-1 -44.83492944965775 0 2.2303472949029866 0 0 1 1 0 0 forward_v I I I I #
coedge $-1 $182 $183 $112 $184 forward $69 $-1 #
coedge $-1 $185 $71 $111 $184 reversed $44 $-1 #
coedge $-1 $71 $185 $186 $187 reversed $44 $-1 #
coedge $-1 $188 $189 $71 $115 reversed $109 $-1 #
edge $-1 $190 -24.862672235094873 $191 24.862672235094873 $114 $192 forward 7 unknown #
face $-1 $193 $194 $26 $-1 $195 reversed single #
loop $-1 $-1 $196 $72 #
plane-surface $-1 -0.37975543733996275 -95.392187878489864 48.228260312461288 1 0 0 0 0.83867057594974714 -0.54463902268945019 forward_v I I I I #
coedge $-1 $197 $198 $199 $200 reversed $73 $-1 #
coedge $-1 $121 $75 $201 $202 reversed $47 $-1 #
coedge $-1 $75 $120 $197 $203 reversed $47 $-1 #
coedge $-1 $199 $204 $75 $123 forward $205 $-1 #
edge $-1 $206 22.833421704150059 $207 24.878398770941057 $122 $208 forward 7 unknown #
loop $-1 $-1 $129 $76 #
plane-surface $-1 6.1760323407040971 -24.862672235094891 2.4258587827805442 0 -0.83867057594974714 0.54463902268945019 1 0 0 forward_v I I I I #
loop $-1 $-1 $209 $49 #
coedge $-1 $127 $127 $128 $210 reversed $77 $-1 #
coedge $-1 $128 $128 $127 $210 forward $79 $-1 #
coedge $-1 $129 $129 $80 $130 forward $124 $-1 #
edge $-1 $211 1.4721264960684953e-015 $211 6.2831853071796022 $129 $212 forward 7 unknown #
loop $-1 $-1 $136 $81 #
plane-surface $-1 6.1760323407040971 -24.862672235094891 2.4258587827805442 0 -0.83867057594974714 0.54463902268945019 1 0 0 forward_v I I I I #
loop $-1 $-1 $213 $52 #
coedge $-1 $134 $134 $135 $214 reversed $82 $-1 #
coedge $-1 $135 $135 $134 $214 forward $84 $-1 #
coedge $-1 $136 $136 $85 $137 forward $131 $-1 #
edge $-1 $215 1.4721264960684953e-015 $215 6.2831853071796022 $136 $216 forward 7 unknown #
face $-1 $217 $218 $29 $-1 $219 forward single #
loop $-1 $-1 $220 $86 #
plane-surface $-1 -11.073638867090594 69.830390705663589 87.964020564897694 -1 0 0 0 0.84804810408105047 0.52991925155115449 forward_v I I I I #
coedge $-1 $221 $222 $223 $224 reversed $87 $-1 #
coedge $-1 $143 $89 $225 $226 reversed $56 $-1 #
coedge $-1 $89 $142 $221 $227 reversed $56 $-1 #
coedge $-1 $223 $228 $89 $145 forward $218 $-1 #
edge $-1 $229 10.052523117736921 $230 12.767472115155652 $144 $231 forward 7 unknown #
loop $-1 $-1 $151 $90 #
plane-surface $-1 -15.572333000599343 -1.487745089671435 43.399504754040393 0 0.84804810408105047 0.52991925155115449 1 0 0 forward_v I I I I #
loop $-1 $-1 $232 $58 #
coedge $-1 $149 $149 $150 $233 reversed $91 $-1 #
coedge $-1 $150 $150 $149 $233 forward $93 $-1 #
coedge $-1 $151 $151 $94 $152 forward $146 $-1 #
edge $-1 $234 -1.1810659064304615e-018 $234 6.2831853071796004 $151 $235 forward 7 unknown #
loop $-1 $-1 $158 $95 #
plane-surface $-1 -15.572333000599343 -1.487745089671435 43.399504754040393 0 0.84804810408105047 0.52991925155115449 1 0 0 forward_v I I I I #
loop $-1 $-1 $236 $61 #
coedge $-1 $156 $156 $157 $237 reversed $96 $-1 #
coedge $-1 $157 $157 $156 $237 forward $98 $-1 #
coedge $-1 $158 $158 $99 $159 forward $153 $-1 #
edge $-1 $238 -1.1810659064304615e-018 $238 6.2831853071796004 $158 $239 forward 7 unknown #
face $-1 $240 $241 $24 $-1 $242 reversed single #
loop $-1 $-1 $243 $100 #
plane-surface $-1 -42.04840235602893 0 0 1 0 0 0 0 -1 forward_v I I I I #
coedge $-1 $244 $171 $245 $246 forward $101 $-1 #
coedge $-1 $247 $103 $244 $248 forward $65 $-1 #
coedge $-1 $103 $247 $249 $250 forward $65 $-1 #
coedge $-1 $174 $173 $103 $167 reversed $175 $-1 #
edge $-1 $251 -24.862672235094873 $252 24.862672235094873 $166 $253 forward 7 unknown #
coedge $-1 $105 $104 $254 $255 forward $41 $-1 #
coedge $-1 $256 $257 $104 $170 reversed $241 $-1 #
edge $-1 $177 -42.04840235602893 $258 42.04840235602893 $169 $259 forward 7 unknown #
coedge $-1 $163 $260 $105 $172 reversed $101 $-1 #
edge $-1 $261 -42.04840235602893 $176 42.04840235602893 $171 $262 forward 7 unknown #
coedge $-1 $166 $106 $260 $263 forward $175 $-1 #
coedge $-1 $106 $166 $256 $264 reversed $175 $-1 #
loop $-1 $-1 $173 $240 #
vertex $-1 $107 $265 #
vertex $-1 $107 $266 #
straight-curve $-1 42.04840235602893 0 5.5748474210543852 0 1 0 I I #
face $-1 $267 $268 $25 $-1 $269 forward single #
loop $-1 $-1 $270 $108 #
plane-surface $-1 -47.62145654328657 0 3.9025973579786859 1 0 0 0 0 -1 forward_v I I I I #
coedge $-1 $271 $111 $189 $272 reversed $69 $-1 #
coedge $-1 $111 $271 $273 $274 reversed $69 $-1 #
edge $-1 $275 -5.5748474210543852 $191 -2.2303472949029866 $111 $276 forward 7 unknown #
coedge $-1 $113 $112 $277 $278 reversed $44 $-1 #
coedge $-1 $279 $280 $113 $187 forward $281 $-1 #
edge $-1 $190 2.2303472949029866 $282 5.5748474210543852 $186 $283 forward 7 unknown #
coedge $-1 $284 $114 $280 $285 forward $109 $-1 #
coedge $-1 $114 $284 $182 $272 forward $109 $-1 #
vertex $-1 $187 $286 #
vertex $-1 $184 $287 #
straight-curve $-1 -42.04840235602893 0 2.2303472949029866 0 1 0 I I #
face $-1 $-1 $205 $26 $-1 $288 forward single #
loop $-1 $-1 $289 $116 #
plane-surface $-1 0 -24.862672235094873 0 0 1 0 0 0 1 forward_v I I I I #
coedge $-1 $290 $291 $292 $293 reversed $117 $-1 #
coedge $-1 $294 $119 $121 $203 forward $73 $-1 #
coedge $-1 $119 $294 $290 $295 forward $73 $-1 #
coedge $-1 $292 $122 $119 $200 forward $205 $-1 #
edge $-1 $207 -9.6438039483961084 $296 3.4677716076920113 $199 $297 forward 7 unknown #
coedge $-1 $298 $299 $120 $202 forward $194 $-1 #
edge $-1 $300 -21.688271373450071 $206 -18.539282735176258 $201 $301 forward 7 unknown #
edge $-1 $207 -3.7547384259997303 $300 -3.2766294840263978e-014 $121 $302 forward 7 unknown #
coedge $-1 $122 $292 $298 $303 forward $205 $-1 #
loop $-1 $-1 $292 $193 #
vertex $-1 $202 $304 #
vertex $-1 $123 $305 #
straight-curve $-1 12.731820118748157 -47.696093939244932 5.5748474210543861 0 1 0 I I #
coedge $-1 $209 $209 $-1 $306 reversed $126 $-1 #
edge $-1 $307 0 $307 6.2831853071796004 $127 $308 forward 7 unknown #
vertex $-1 $130 $309 #
ellipse-curve $-1 3.3664090072566495 -23.840183701699377 4.0003531019174732 0 -0.83867057594974714 0.54463902268945019 0.5 0 0 1 I I #
coedge $-1 $213 $213 $-1 $310 reversed $133 $-1 #
edge $-1 $311 0 $311 6.2831853071796004 $134 $312 forward 7 unknown #
vertex $-1 $137 $313 #
ellipse-curve $-1 8.985655674151559 -23.840183701699377 4.0003531019174732 0 -0.83867057594974714 0.54463902268945019 0.5 0 0 1 I I #
face $-1 $-1 $314 $29 $-1 $315 reversed single #
loop $-1 $-1 $144 $138 #
plane-surface $-1 0 0 5.5748474210543852 0 0 1 1 0 0 forward_v I I I I #
coedge $-1 $316 $317 $318 $319 reversed $139 $-1 #
coedge $-1 $320 $141 $143 $227 forward $87 $-1 #
coedge $-1 $141 $320 $316 $321 forward $87 $-1 #
coedge $-1 $318 $144 $141 $224 forward $218 $-1 #
edge $-1 $230 -12.284860633808421 $322 -3.2874723667909223 $223 $323 forward 7 unknown #
coedge $-1 $324 $325 $142 $226 forward $314 $-1 #
edge $-1 $326 -42.751989631130044 $229 -38.407162861394461 $225 $327 forward 7 unknown #
edge $-1 $230 44.602018624843232 $326 49.725344470189775 $143 $328 forward 7 unknown #
coedge $-1 $144 $318 $324 $329 forward $218 $-1 #
vertex $-1 $226 $330 #
vertex $-1 $145 $331 #
straight-curve $-1 -20.071027134108093 34.915195352831795 5.5748474210543861 0 -1 0 I I #
coedge $-1 $232 $232 $-1 $332 reversed $148 $-1 #
edge $-1 $333 0 $333 6.2831853071796004 $149 $334 forward 7 unknown #
vertex $-1 $152 $335 #
ellipse-curve $-1 -17.500344772103091 23.505197736385508 3.4024340361865981 0 0.84804810408105047 0.52991925155115449 1 0 0 1 I I #
coedge $-1 $236 $236 $-1 $336 reversed $155 $-1 #
edge $-1 $337 0 $337 6.2831853071796004 $156 $338 forward 7 unknown #
vertex $-1 $159 $339 #
ellipse-curve $-1 -13.644321229095588 23.505197736385508 3.4024340361865981 0 0.84804810408105047 0.52991925155115449 1 0 0 1 I I #
face $-1 $-1 $175 $24 $-1 $340 reversed single #
loop $-1 $-1 $256 $160 #
plane-surface $-1 0 24.862672235094873 0 0 -1 0 0 0 -1 forward_v I I I I #
coedge $-1 $341 $254 $257 $342 forward $161 $-1 #
coedge $-1 $260 $163 $164 $248 reversed $101 $-1 #
coedge $-1 $254 $341 $163 $246 reversed $161 $-1 #
edge $-1 $261 -5.5748474210543852 $343 5.5748474210543852 $245 $344 forward 7 unknown #
coedge $-1 $165 $164 $341 $345 forward $65 $-1 #
edge $-1 $252 -42.04840235602893 $343 42.04840235602893 $244 $346 forward 7 unknown #
coedge $-1 $257 $256 $165 $250 reversed $241 $-1 #
edge $-1 $347 -42.04840235602893 $251 42.04840235602893 $249 $348 forward 7 unknown #
vertex $-1 $167 $349 #
vertex $-1 $263 $350 #
straight-curve $-1 42.04840235602893 0 -5.5748474210543852 0 -1 0 I I #
coedge $-1 $243 $245 $168 $255 reversed $161 $-1 #
edge $-1 $258 -24.862672235094873 $261 24.862672235094873 $254 $351 forward 7 unknown #
coedge $-1 $249 $169 $174 $264 forward $241 $-1 #
coedge $-1 $169 $249 $243 $342 reversed $241 $-1 #
vertex $-1 $170 $352 #
straight-curve $-1 0 24.862672235094873 5.5748474210543852 -1 0 0 I I #
coedge $-1 $171 $244 $173 $263 reversed $101 $-1 #
vertex $-1 $255 $353 #
straight-curve $-1 0 -24.862672235094873 5.5748474210543852 1 0 0 I I #
edge $-1 $176 -5.5748474210543852 $252 5.5748474210543852 $173 $354 forward 7 unknown #
edge $-1 $177 -5.5748474210543852 $251 5.5748474210543852 $174 $355 forward 7 unknown #
point $-1 42.04840235602893 -24.862672235094873 5.5748474210543852 #
point $-1 42.04840235602893 24.862672235094873 5.5748474210543852 #
face $-1 $-1 $281 $25 $-1 $356 reversed single #
loop $-1 $-1 $277 $179 #
plane-surface $-1 0 0 5.5748474210543852 0 0 1 1 0 0 forward_v I I I I #
coedge $-1 $357 $358 $271 $359 forward $180 $-1 #
coedge $-1 $183 $182 $270 $359 reversed $69 $-1 #
edge $-1 $360 -2.7865270936288198 $191 2.7865270936288198 $182 $361 forward 7 unknown #
coedge $-1 $362 $277 $183 $274 forward $268 $-1 #
edge $-1 $275 42.04840235602893 $363 47.62145654328657 $183 $364 forward 7 unknown #
vertex $-1 $274 $365 #
straight-curve $-1 -42.04840235602893 24.862672235094873 0 0 0 -1 I I #
coedge $-1 $273 $366 $185 $278 forward $268 $-1 #
edge $-1 $282 -24.862672235094873 $275 24.862672235094873 $277 $367 forward 7 unknown #
coedge $-1 $368 $186 $366 $369 reversed $281 $-1 #
coedge $-1 $186 $368 $188 $285 reversed $281 $-1 #
loop $-1 $-1 $186 $267 #
vertex $-1 $187 $370 #
straight-curve $-1 -42.04840235602893 -24.862672235094873 0 0 0 1 I I #
coedge $-1 $189 $188 $357 $371 forward $109 $-1 #
edge $-1 $190 -2.7865270936288198 $372 2.7865270936288198 $280 $373 forward 7 unknown #
point $-1 -42.04840235602893 -24.862672235094873 2.2303472949029866 #
point $-1 -42.04840235602893 24.862672235094873 2.2303472949029866 #
plane-surface $-1 0 0 5.5748474210543852 0 0 1 1 0 0 forward_v I I I I #
coedge $-1 $299 $298 $291 $374 forward $194 $-1 #
coedge $-1 $291 $196 $198 $295 reversed $117 $-1 #
coedge $-1 $196 $290 $289 $374 reversed $117 $-1 #
coedge $-1 $204 $199 $196 $293 forward $205 $-1 #
edge $-1 $296 -24.878398770941057 $375 -22.833421704150059 $292 $376 forward 7 unknown #
coedge $-1 $198 $197 $299 $377 reversed $73 $-1 #
edge $-1 $378 3.2766294840263978e-014 $296 3.7547384259997303 $290 $379 forward 7 unknown #
vertex $-1 $200 $380 #
straight-curve $-1 3.0880161703520486 -22.817695168303874 5.5748474210543852 -1 0 0 I I #
coedge $-1 $289 $201 $204 $303 reversed $194 $-1 #
coedge $-1 $201 $289 $294 $377 forward $194 $-1 #
vertex $-1 $202 $381 #
straight-curve $-1 12.731820118748157 -24.86267223509487 24.114130156230644 0 0 1 I I #
straight-curve $-1 12.731820118748157 -24.862672235094891 2.4258587827805442 0 -0.54463902268945019 -0.83867057594974714 I I #
edge $-1 $375 -0.37975543733996275 $206 12.731820118748157 $298 $382 forward 7 unknown #
point $-1 12.731820118748157 -24.862672235094873 5.5748474210543852 #
point $-1 12.731820118748157 -22.817695168303874 5.5748474210543852 #
edge $-1 $383 1 $383 0 $209 $-1 forward 7 unknown #
vertex $-1 $210 $384 #
ellipse-curve $-1 3.3664090072566495 -22.903394785562739 3.3919952861288576 0 -0.83867057594974714 0.54463902268945019 0.5 0 0 1 I I #
point $-1 3.8664090072566495 -23.84018370169936 4.0003531019174625 #
edge $-1 $385 1 $385 0 $213 $-1 forward 7 unknown #
vertex $-1 $214 $386 #
ellipse-curve $-1 8.985655674151559 -22.903394785562739 3.3919952861288576 0 -0.83867057594974714 0.54463902268945019 0.5 0 0 1 I I #
point $-1 9.485655674151559 -23.84018370169936 4.0003531019174625 #
loop $-1 $-1 $225 $217 #
plane-surface $-1 0 24.862672235094873 0 0 -1 0 0 0 -1 forward_v I I I I #
coedge $-1 $317 $220 $222 $321 reversed $139 $-1 #
coedge $-1 $220 $316 $387 $388 reversed $139 $-1 #
coedge $-1 $228 $223 $220 $319 forward $218 $-1 #
edge $-1 $322 -12.767472115155652 $389 -10.052523117736921 $318 $390 forward 7 unknown #
coedge $-1 $222 $221 $325 $391 reversed $87 $-1 #
edge $-1 $392 -49.725344470189775 $322 -44.602018624843232 $316 $393 forward 7 unknown #
vertex $-1 $224 $394 #
straight-curve $-1 -7.7861665002996716 22.147723237676146 5.5748474210543861 1 0 0 I I #
coedge $-1 $387 $225 $228 $329 reversed $314 $-1 #
coedge $-1 $225 $387 $320 $391 forward $314 $-1 #
vertex $-1 $226 $395 #
straight-curve $-1 -20.071027134108093 24.862672235094873 43.982010282448847 0 0 1 I I #
straight-curve $-1 -20.071027134108093 -1.487745089671435 43.399504754040393 0 0.52991925155115449 -0.84804810408105047 I I #
edge $-1 $389 11.073638867090594 $229 20.071027134108093 $324 $396 forward 7 unknown #
point $-1 -20.071027134108093 24.862672235094873 5.5748474210543852 #
point $-1 -20.071027134108093 22.147723237676143 5.5748474210543861 #
edge $-1 $397 1 $397 0 $232 $-1 forward 7 unknown #
vertex $-1 $233 $398 #
ellipse-curve $-1 -17.500344772103091 20.169529782456806 1.3180774329907372 0 0.84804810408105047 0.52991925155115449 1 0 0 1 I I #
point $-1 -16.500344772103091 23.505197736385519 3.4024340361866048 #
edge $-1 $399 1 $399 0 $236 $-1 forward 7 unknown #
vertex $-1 $237 $400 #
ellipse-curve $-1 -13.644321229095588 20.169529782456806 1.3180774329907372 0 0.84804810408105047 0.52991925155115449 1 0 0 1 I I #
point $-1 -12.644321229095588 23.505197736385519 3.4024340361866048 #
plane-surface $-1 42.04840235602893 0 0 -1 0 0 0 0 1 forward_v I I I I #
coedge $-1 $245 $243 $247 $345 reversed $161 $-1 #
edge $-1 $258 -5.5748474210543852 $347 5.5748474210543852 $257 $401 forward 7 unknown #
vertex $-1 $345 $402 #
straight-curve $-1 -42.04840235602893 -24.862672235094873 0 0 0 -1 I I #
edge $-1 $343 -24.862672235094873 $347 24.862672235094873 $341 $403 forward 7 unknown #
straight-curve $-1 0 -24.862672235094873 -5.5748474210543852 -1 0 0 I I #
vertex $-1 $250 $404 #
straight-curve $-1 0 24.862672235094873 -5.5748474210543852 1 0 0 I I #
point $-1 42.04840235602893 24.862672235094873 -5.5748474210543852 #
point $-1 42.04840235602893 -24.862672235094873 -5.5748474210543852 #
straight-curve $-1 -42.04840235602893 0 5.5748474210543852 0 -1 0 I I #
point $-1 -42.04840235602893 24.862672235094873 5.5748474210543852 #
point $-1 -42.04840235602893 -24.862672235094873 5.5748474210543852 #
straight-curve $-1 42.04840235602893 -24.862672235094873 0 0 0 -1 I I #
straight-curve $-1 42.04840235602893 24.862672235094873 0 0 0 -1 I I #
plane-surface $-1 0 -24.862672235094873 0 0 1 0 0 0 1 forward_v I I I I #
coedge $-1 $405 $270 $284 $371 reversed $180 $-1 #
coedge $-1 $270 $405 $362 $406 reversed $180 $-1 #
edge $-1 $363 -1.6722500630756993 $360 1.6722500630756993 $271 $407 forward 7 unknown #
vertex $-1 $272 $408 #
straight-curve $-1 -44.83492944965775 24.862672235094873 2.2303472949029866 1 0 0 I I #
coedge $-1 $366 $273 $358 $406 forward $268 $-1 #
vertex $-1 $274 $409 #
straight-curve $-1 0 24.862672235094873 5.5748474210543852 -1 0 0 I I #
point $-1 -42.04840235602893 24.862672235094873 5.5748474210543852 #
coedge $-1 $277 $362 $279 $369 forward $268 $-1 #
straight-curve $-1 -42.04840235602893 0 5.5748474210543852 0 1 0 I I #
coedge $-1 $280 $279 $405 $410 forward $281 $-1 #
edge $-1 $411 -47.62145654328657 $282 -42.04840235602893 $279 $412 forward 7 unknown #
point $-1 -42.04840235602893 -24.862672235094873 5.5748474210543852 #
edge $-1 $372 -24.862672235094873 $360 24.862672235094873 $357 $413 forward 7 unknown #
vertex $-1 $371 $414 #
straight-curve $-1 -44.83492944965775 -24.862672235094873 2.2303472949029866 -1 0 0 I I #
edge $-1 $375 18.539282735176258 $378 21.688271373450071 $289 $415 forward 7 unknown #
vertex $-1 $303 $416 #
straight-curve $-1 -0.37975543733996275 -47.696093939244932 5.5748474210543861 0 -1 0 I I #
edge $-1 $378 -3.4677716076920113 $300 9.6438039483961084 $299 $417 forward 7 unknown #
vertex $-1 $377 $418 #
straight-curve $-1 -0.37975543733996275 -24.862672235094891 2.4258587827805442 0 0.54463902268945019 0.83867057594974714 I I #
point $-1 -0.37975543733996275 -22.817695168303874 5.5748474210543852 #
point $-1 12.731820118748157 -24.862672235094873 2.4258587827805718 #
straight-curve $-1 0 -24.862672235094873 5.5748474210543852 1 0 0 I I #
vertex $-1 $306 $419 #
point $-1 3.8664090072566495 -22.903394785562739 3.3919952861288576 #
vertex $-1 $310 $420 #
point $-1 9.485655674151559 -22.903394785562739 3.3919952861288576 #
coedge $-1 $325 $324 $317 $388 forward $314 $-1 #
edge $-1 $389 38.407162861394461 $392 42.751989631130044 $387 $421 forward 7 unknown #
vertex $-1 $329 $422 #
straight-curve $-1 -11.073638867090594 34.915195352831795 5.5748474210543861 0 1 0 I I #
edge $-1 $392 3.2874723667909223 $326 12.284860633808421 $325 $423 forward 7 unknown #
vertex $-1 $391 $424 #
straight-curve $-1 -11.073638867090594 -1.487745089671435 43.399504754040393 0 -0.52991925155115449 0.84804810408105047 I I #
point $-1 -11.073638867090594 22.147723237676143 5.5748474210543861 #
point $-1 -20.071027134108093 24.862672235094873 1.230020651318803 #
straight-curve $-1 0 24.862672235094873 5.5748474210543852 -1 0 0 I I #
vertex $-1 $332 $425 #
point $-1 -16.500344772103091 20.169529782456806 1.3180774329907372 #
vertex $-1 $336 $426 #
point $-1 -12.644321229095588 20.169529782456806 1.3180774329907372 #
straight-curve $-1 -42.04840235602893 24.862672235094873 0 0 0 -1 I I #
point $-1 -42.04840235602893 -24.862672235094873 -5.5748474210543852 #
straight-curve $-1 -42.04840235602893 0 -5.5748474210543852 0 1 0 I I #
point $-1 -42.04840235602893 24.862672235094873 -5.5748474210543852 #
coedge $-1 $358 $357 $368 $410 reversed $180 $-1 #
edge $-1 $363 -24.862672235094873 $411 24.862672235094873 $358 $427 forward 7 unknown #
straight-curve $-1 -47.62145654328657 24.862672235094873 3.9025973579786859 0 0 -1 I I #
point $-1 -47.62145654328657 24.862672235094873 2.2303472949029866 #
point $-1 -47.62145654328657 24.862672235094873 5.5748474210543852 #
edge $-1 $411 -1.6722500630756993 $372 1.6722500630756993 $405 $428 forward 7 unknown #
vertex $-1 $406 $429 #
straight-curve $-1 0 -24.862672235094873 5.5748474210543852 1 0 0 I I #
straight-curve $-1 -47.62145654328657 0 2.2303472949029866 0 1 0 I I #
point $-1 -47.62145654328657 -24.862672235094873 2.2303472949029866 #
straight-curve $-1 -0.37975543733996275 -24.86267223509487 24.114130156230644 0 0 -1 I I #
point $-1 -0.37975543733996275 -24.862672235094873 5.5748474210543852 #
straight-curve $-1 3.0880161703520486 -24.862672235094873 2.4258587827805722 1 0 0 I I #
point $-1 -0.37975543733996275 -24.862672235094873 2.4258587827805718 #
point $-1 3.3664090072566495 -22.484059497587864 3.1196757747841324 #
point $-1 8.985655674151559 -22.484059497587864 3.1196757747841324 #
straight-curve $-1 -11.073638867090594 24.862672235094873 43.982010282448847 0 0 -1 I I #
point $-1 -11.073638867090594 24.862672235094873 5.5748474210543852 #
straight-curve $-1 -7.7861665002996716 24.862672235094873 1.230020651318803 -1 0 0 I I #
point $-1 -11.073638867090594 24.862672235094873 1.230020651318803 #
point $-1 -17.500344772103091 19.321481678375754 0.78815818143958261 #
point $-1 -13.644321229095588 19.321481678375754 0.78815818143958261 #
straight-curve $-1 -47.62145654328657 0 5.5748474210543852 0 -1 0 I I #
straight-curve $-1 -47.62145654328657 -24.862672235094873 3.9025973579786859 0 0 -1 I I #
point $-1 -47.62145654328657 -24.862672235094873 5.5748474210543852 #
End-of-ACIS-data 