500 0 3 0           
7 Unknown 11 ACIS 5.0 NT 24 Fri Mar 26 00:55:39 1999 
-1 9.9999999999999995e-007 1e-010 
body $-1 $3 $-1 $4 #
body $-1 $5 $-1 $6 #
body $-1 $7 $-1 $8 #
lump $-1 $-1 $9 $0 #
transform $-1 1 0 0 0 1 0 0 0 1 54.923551133762629 25.405934767737058 7.3381569390635049 1 rotate no_reflect no_shear #
lump $-1 $-1 $10 $1 #
transform $-1 1 0 0 0 1 0 0 0 1 54.923551133762629 25.405934767737058 7.3381569390635049 1 rotate no_reflect no_shear #
lump $-1 $-1 $11 $2 #
transform $-1 1 0 0 0 1 0 0 0 1 54.923551133762629 25.405934767737058 7.3381569390635049 1 rotate no_reflect no_shear #
shell $-1 $-1 $-1 $12 $-1 $3 #
shell $-1 $-1 $-1 $13 $-1 $5 #
shell $-1 $-1 $-1 $14 $-1 $7 #
face $-1 $15 $16 $9 $-1 $17 forward single #
face $-1 $18 $19 $10 $-1 $20 reversed single #
face $-1 $21 $22 $11 $-1 $23 forward single #
face $-1 $24 $25 $9 $-1 $26 reversed single #
loop $-1 $-1 $27 $12 #
plane-surface $-1 0 0 7.3381569390635049 0 0 1 1 0 0 forward_v I I I I #
face $-1 $28 $29 $10 $-1 $30 reversed single #
loop $-1 $-1 $31 $13 #
plane-surface $-1 -26.708753714077574 -20.485964211459979 77.724635935067141 0.66913061440640931 0 0.74314481823134659 0.74314481823134659 0 -0.66913061440640931 forward_v I I I I #
face $-1 $32 $33 $11 $-1 $34 forward single #
loop $-1 $35 $36 $14 #
cone-surface $-1 52.65709085310322 -20.485964211459979 5.1846796618958813 -0.66913061440640931 0 -0.74314481823134659 0.3715724091156733 0 -0.33456530720320465 1 I I 0 1 0.5 forward I I I I #
face $-1 $37 $38 $9 $-1 $39 reversed single #
loop $-1 $-1 $40 $15 #
plane-surface $-1 0 0 -7.3381569390635049 0 0 1 1 0 0 forward_v I I I I #
coedge $-1 $41 $42 $43 $44 forward $16 $-1 #
face $-1 $45 $46 $10 $-1 $47 forward single #
loop $-1 $-1 $48 $18 #
plane-surface $-1 46.793305316955284 -15.565993655182901 159.35694078290734 0 -1 0 -0.66913061440640931 0 -0.74314481823134659 forward_v I I I I #
coedge $-1 $49 $50 $51 $52 reversed $19 $-1 #
face $-1 $-1 $53 $11 $-1 $54 forward single #
loop $-1 $55 $56 $21 #
cone-surface $-1 51.953448970092822 -20.485964211459979 4.4032061976850132 -0.66913061440640931 0 -0.74314481823134659 0.18578620455783665 0 -0.16728265360160233 1 I I -0.70710678118654746 0.70710678118654746 0.25 forward I I I I #
loop $-1 $-1 $57 $14 #
coedge $-1 $36 $36 $58 $59 reversed $22 $-1 #
face $-1 $60 $61 $9 $-1 $62 reversed single #
loop $-1 $-1 $63 $24 #
plane-surface $-1 0 -25.405934767737058 0 0 1 0 0 0 1 forward_v I I I I #
coedge $-1 $64 $65 $66 $67 forward $25 $-1 #
coedge $-1 $68 $27 $69 $70 forward $16 $-1 #
coedge $-1 $27 $68 $71 $72 forward $16 $-1 #
coedge $-1 $73 $74 $27 $44 reversed $75 $-1 #
edge $-1 $76 -25.405934767737058 $77 25.405934767737058 $43 $78 forward 7 unknown #
face $-1 $79 $80 $10 $-1 $81 reversed single #
loop $-1 $-1 $82 $28 #
plane-surface $-1 0 0 7.3381569390635049 0 0 1 1 0 0 forward_v I I I I #
coedge $-1 $83 $84 $85 $86 reversed $29 $-1 #
coedge $-1 $87 $31 $88 $89 reversed $19 $-1 #
coedge $-1 $31 $87 $83 $90 forward $19 $-1 #
coedge $-1 $85 $91 $31 $52 forward $92 $-1 #
edge $-1 $93 -15.162952662007068 $94 -5.3230115494529109 $51 $95 forward 7 unknown #
loop $-1 $-1 $58 $32 #
plane-surface $-1 -26.708753714077574 -20.485964211459979 77.724635935067141 0.66913061440640931 0 0.74314481823134659 0.74314481823134659 0 -0.66913061440640931 forward_v I I I I #
loop $-1 $-1 $96 $21 #
coedge $-1 $56 $56 $57 $97 reversed $33 $-1 #
coedge $-1 $57 $57 $56 $97 forward $35 $-1 #
coedge $-1 $58 $58 $36 $59 forward $53 $-1 #
edge $-1 $98 0 $98 6.2831853071796004 $58 $99 forward 7 unknown #
face $-1 $100 $101 $9 $-1 $102 reversed single #
loop $-1 $-1 $103 $37 #
plane-surface $-1 -54.923551133762629 0 0 1 0 0 0 0 -1 forward_v I I I I #
coedge $-1 $104 $71 $105 $106 forward $38 $-1 #
coedge $-1 $107 $40 $104 $108 forward $25 $-1 #
coedge $-1 $40 $107 $109 $110 forward $25 $-1 #
coedge $-1 $74 $73 $40 $67 reversed $75 $-1 #
edge $-1 $111 -25.405934767737058 $112 25.405934767737058 $66 $113 forward 7 unknown #
coedge $-1 $42 $41 $114 $115 forward $16 $-1 #
coedge $-1 $116 $117 $41 $70 reversed $101 $-1 #
edge $-1 $77 -54.923551133762629 $118 54.923551133762629 $69 $119 forward 7 unknown #
coedge $-1 $63 $120 $42 $72 reversed $38 $-1 #
edge $-1 $121 -54.923551133762629 $76 54.923551133762629 $71 $122 forward 7 unknown #
coedge $-1 $66 $43 $120 $123 forward $75 $-1 #
coedge $-1 $43 $66 $116 $124 reversed $75 $-1 #
loop $-1 $-1 $73 $100 #
vertex $-1 $44 $125 #
vertex $-1 $44 $126 #
straight-curve $-1 54.923551133762629 0 7.3381569390635049 0 1 0 I I #
face $-1 $-1 $92 $10 $-1 $127 reversed single #
loop $-1 $-1 $88 $45 #
plane-surface $-1 0 -25.405934767737058 0 0 1 0 0 0 1 forward_v I I I I #
coedge $-1 $128 $129 $84 $130 forward $46 $-1 #
coedge $-1 $84 $48 $50 $90 reversed $29 $-1 #
coedge $-1 $48 $83 $82 $130 reversed $29 $-1 #
coedge $-1 $131 $51 $48 $86 forward $92 $-1 #
edge $-1 $94 -75.455893487419388 $132 -72.340313452390163 $85 $133 forward 7 unknown #
coedge $-1 $50 $49 $128 $134 reversed $19 $-1 #
coedge $-1 $135 $136 $49 $89 forward $80 $-1 #
edge $-1 $137 69.262738361056847 $93 73.918899606635293 $88 $138 forward 7 unknown #
edge $-1 $139 105.1909410219468 $94 109.84710226752526 $83 $140 forward 7 unknown #
coedge $-1 $51 $131 $135 $141 forward $92 $-1 #
loop $-1 $-1 $85 $79 #
vertex $-1 $89 $142 #
vertex $-1 $52 $143 #
straight-curve $-1 54.923551133762629 -10.24298210572999 4.2225769040342911 0 1 0 I I #
coedge $-1 $96 $96 $-1 $144 reversed $55 $-1 #
edge $-1 $145 0 $145 6.2831853071796004 $56 $146 forward 7 unknown #
vertex $-1 $59 $147 #
ellipse-curve $-1 53.193450082511994 -20.485964211459979 5.7803669215488904 0.66913061440640931 0 0.74314481823134659 0.3715724091156733 0 -0.33456530720320465 1 I I #
face $-1 $-1 $75 $9 $-1 $148 reversed single #
loop $-1 $-1 $116 $60 #
plane-surface $-1 0 25.405934767737058 0 0 -1 0 0 0 -1 forward_v I I I I #
coedge $-1 $149 $114 $117 $150 forward $61 $-1 #
coedge $-1 $120 $63 $64 $108 reversed $38 $-1 #
coedge $-1 $114 $149 $63 $106 reversed $61 $-1 #
edge $-1 $121 -7.3381569390635049 $151 7.3381569390635049 $105 $152 forward 7 unknown #
coedge $-1 $65 $64 $149 $153 forward $25 $-1 #
edge $-1 $112 -54.923551133762629 $151 54.923551133762629 $104 $154 forward 7 unknown #
coedge $-1 $117 $116 $65 $110 reversed $101 $-1 #
edge $-1 $155 -54.923551133762629 $111 54.923551133762629 $109 $156 forward 7 unknown #
vertex $-1 $67 $157 #
vertex $-1 $123 $158 #
straight-curve $-1 54.923551133762629 0 -7.3381569390635049 0 -1 0 I I #
coedge $-1 $103 $105 $68 $115 reversed $61 $-1 #
edge $-1 $118 -25.405934767737058 $121 25.405934767737058 $114 $159 forward 7 unknown #
coedge $-1 $109 $69 $74 $124 forward $101 $-1 #
coedge $-1 $69 $109 $103 $150 reversed $101 $-1 #
vertex $-1 $70 $160 #
straight-curve $-1 0 25.405934767737058 7.3381569390635049 -1 0 0 I I #
coedge $-1 $71 $104 $73 $123 reversed $38 $-1 #
vertex $-1 $115 $161 #
straight-curve $-1 0 -25.405934767737058 7.3381569390635049 1 0 0 I I #
edge $-1 $76 -7.3381569390635049 $112 7.3381569390635049 $73 $162 forward 7 unknown #
edge $-1 $77 -7.3381569390635049 $111 7.3381569390635049 $74 $163 forward 7 unknown #
point $-1 54.923551133762629 -25.405934767737058 7.3381569390635049 #
point $-1 54.923551133762629 25.405934767737058 7.3381569390635049 #
plane-surface $-1 54.923551133762629 0 0 -1 0 0 0 0 1 forward_v I I I I #
coedge $-1 $164 $82 $87 $134 forward $46 $-1 #
coedge $-1 $82 $164 $131 $165 forward $46 $-1 #
edge $-1 $132 -31.526898475284987 $139 -28.066696372783746 $82 $166 forward 7 unknown #
coedge $-1 $91 $85 $129 $165 reversed $92 $-1 #
vertex $-1 $86 $167 #
straight-curve $-1 54.923551133762629 -15.565993655182901 79.678470391453672 0 0 1 I I #
edge $-1 $139 5.3230115494529109 $137 15.162952662007068 $128 $168 forward 7 unknown #
coedge $-1 $136 $88 $91 $141 reversed $80 $-1 #
coedge $-1 $88 $135 $164 $169 reversed $80 $-1 #
vertex $-1 $169 $170 #
straight-curve $-1 -0.0088960782715137299 -25.405934767737058 53.683975614067847 0.74314481823134659 0 -0.66913061440640931 I I #
vertex $-1 $134 $171 #
straight-curve $-1 -26.708753714077574 -15.565993655182901 77.724635935067141 0.74314481823134659 0 -0.66913061440640931 I I #
edge $-1 $172 -7.3381569390635049 $93 -4.2225769040342858 $91 $173 forward 7 unknown #
point $-1 54.923551133762629 -25.405934767737058 4.2225769040342858 #
point $-1 54.923551133762629 -15.565993655182901 4.222576904034284 #
edge $-1 $174 1 $174 0 $96 $-1 forward 7 unknown #
vertex $-1 $97 $175 #
ellipse-curve $-1 52.120731623694425 -20.485964211459979 4.5889924022428499 0.66913061440640931 0 0.74314481823134659 0.3715724091156733 0 -0.33456530720320465 1 I I #
point $-1 53.565022491627687 -20.485964211459979 5.445801614345708 #
plane-surface $-1 54.923551133762629 0 0 -1 0 0 0 0 1 forward_v I I I I #
coedge $-1 $105 $103 $107 $153 reversed $61 $-1 #
edge $-1 $118 -7.3381569390635049 $155 7.3381569390635049 $117 $176 forward 7 unknown #
vertex $-1 $153 $177 #
straight-curve $-1 -54.923551133762629 -25.405934767737058 0 0 0 -1 I I #
edge $-1 $151 -25.405934767737058 $155 25.405934767737058 $149 $178 forward 7 unknown #
straight-curve $-1 0 -25.405934767737058 -7.3381569390635049 -1 0 0 I I #
vertex $-1 $110 $179 #
straight-curve $-1 0 25.405934767737058 -7.3381569390635049 1 0 0 I I #
point $-1 54.923551133762629 25.405934767737058 -7.3381569390635049 #
point $-1 54.923551133762629 -25.405934767737058 -7.3381569390635049 #
straight-curve $-1 -54.923551133762629 0 7.3381569390635049 0 -1 0 I I #
point $-1 -54.923551133762629 25.405934767737058 7.3381569390635049 #
point $-1 -54.923551133762629 -25.405934767737058 7.3381569390635049 #
straight-curve $-1 54.923551133762629 -25.405934767737058 0 0 0 -1 I I #
straight-curve $-1 54.923551133762629 25.405934767737058 0 0 0 -1 I I #
coedge $-1 $129 $128 $136 $169 forward $46 $-1 #
edge $-1 $172 -25.405934767737058 $132 -15.565993655182901 $131 $180 forward 7 unknown #
straight-curve $-1 23.396652658477642 -15.565993655182901 7.3381569390635093 -1 0 0 I I #
point $-1 54.923551133762629 -15.565993655182901 7.3381569390635049 #
straight-curve $-1 51.463349031261401 -10.24298210572999 7.3381569390634951 0 -1 0 I I #
edge $-1 $137 51.463349031261387 $172 54.923551133762629 $136 $181 forward 7 unknown #
point $-1 51.463349031261387 -25.405934767737058 7.3381569390635093 #
point $-1 51.463349031261387 -15.565993655182901 7.3381569390635093 #
vertex $-1 $165 $182 #
straight-curve $-1 54.923551133762629 -25.405934767737058 0 0 0 -1 I I #
vertex $-1 $144 $183 #
point $-1 52.492304032810097 -20.485964211459979 4.2544270950396452 #
straight-curve $-1 -54.923551133762629 25.405934767737058 0 0 0 -1 I I #
point $-1 -54.923551133762629 -25.405934767737058 -7.3381569390635049 #
straight-curve $-1 -54.923551133762629 0 -7.3381569390635049 0 1 0 I I #
point $-1 -54.923551133762629 25.405934767737058 -7.3381569390635049 #
straight-curve $-1 54.923551133762629 0 7.3381569390635049 0 1 0 I I #
straight-curve $-1 0 -25.405934767737058 7.3381569390635049 1 0 0 I I #
point $-1 54.923551133762629 -25.405934767737058 7.3381569390635049 #
point $-1 51.786166316491219 -20.485964211459979 4.2174199931271765 #
End-of-ACIS-data 