500 0 8 0           
7 Unknown 11 ACIS 5.0 NT 24 Fri Mar 26 02:55:54 1999 
-1 9.9999999999999995e-007 1e-010 
body $-1 $8 $-1 $9 #
body $-1 $10 $-1 $11 #
body $-1 $12 $-1 $13 #
body $-1 $14 $-1 $15 #
body $-1 $16 $-1 $17 #
body $-1 $18 $-1 $19 #
body $-1 $20 $-1 $21 #
body $-1 $22 $-1 $23 #
lump $-1 $-1 $24 $0 #
transform $-1 1 0 0 0 1 0 0 0 1 78.598590044862206 45.248819937384312 17.915312374512823 1 rotate no_reflect no_shear #
lump $-1 $-1 $25 $1 #
transform $-1 1 0 0 0 1 0 0 0 1 78.598590044862206 45.248819937384312 17.915312374512823 1 rotate no_reflect no_shear #
lump $-1 $-1 $26 $2 #
transform $-1 1 0 0 0 1 0 0 0 1 78.598590044862206 45.248819937384312 17.915312374512823 1 rotate no_reflect no_shear #
lump $-1 $-1 $27 $3 #
transform $-1 1 0 0 0 1 0 0 0 1 78.598590044862206 45.248819937384312 17.915312374512823 1 rotate no_reflect no_shear #
lump $-1 $-1 $28 $4 #
transform $-1 1 0 0 0 1 0 0 0 1 78.598590044862206 45.248819937384312 17.915312374512823 1 rotate no_reflect no_shear #
lump $-1 $-1 $29 $5 #
transform $-1 1 0 0 0 1 0 0 0 1 78.598590044862206 45.248819937384312 17.915312374512823 1 rotate no_reflect no_shear #
lump $-1 $-1 $30 $6 #
transform $-1 1 0 0 0 1 0 0 0 1 78.598590044862206 45.248819937384312 17.915312374512823 1 rotate no_reflect no_shear #
lump $-1 $-1 $31 $7 #
transform $-1 1 0 0 0 1 0 0 0 1 78.598590044862206 45.248819937384312 17.915312374512823 1 rotate no_reflect no_shear #
shell $-1 $-1 $-1 $32 $-1 $8 #
shell $-1 $-1 $-1 $33 $-1 $10 #
shell $-1 $-1 $-1 $34 $-1 $12 #
shell $-1 $-1 $-1 $35 $-1 $14 #
shell $-1 $-1 $-1 $36 $-1 $16 #
shell $-1 $-1 $-1 $37 $-1 $18 #
shell $-1 $-1 $-1 $38 $-1 $20 #
shell $-1 $-1 $-1 $39 $-1 $22 #
face $-1 $40 $41 $24 $-1 $42 forward single #
face $-1 $43 $44 $25 $-1 $45 reversed single #
face $-1 $46 $47 $26 $-1 $48 reversed single #
face $-1 $49 $50 $27 $-1 $51 forward single #
face $-1 $52 $53 $28 $-1 $54 forward single #
face $-1 $55 $56 $29 $-1 $57 reversed single #
face $-1 $58 $59 $30 $-1 $60 forward single #
face $-1 $61 $62 $31 $-1 $63 forward single #
face $-1 $64 $65 $24 $-1 $66 reversed single #
loop $-1 $-1 $67 $32 #
plane-surface $-1 0 0 17.915312374512823 0 0 1 1 0 0 forward_v I I I I #
face $-1 $68 $69 $25 $-1 $70 reversed single #
loop $-1 $-1 $71 $33 #
plane-surface $-1 -75.777093737337154 -30.213834023034792 0 0 -1 0 0 0 -1 forward_v I I I I #
face $-1 $72 $73 $26 $-1 $74 reversed single #
loop $-1 $-1 $75 $34 #
plane-surface $-1 124.81952107478251 -13.220170358111652 231.45592868825895 0 -1 0 -0.83867057594974714 0 -0.54463902268945019 forward_v I I I I #
face $-1 $76 $77 $27 $-1 $78 forward single #
loop $-1 $79 $80 $35 #
cone-surface $-1 75.678193357911667 -25.358501547342467 14.887760681316138 -0.83867057594974714 0 -0.54463902268945019 0.54463902268945019 0 -0.83867057594974714 1 I I 0 1 1 forward I I I I #
face $-1 $81 $82 $28 $-1 $83 forward single #
loop $-1 $84 $85 $36 #
cone-surface $-1 75.678193357911667 -18.075502833803977 14.887760681316138 -0.83867057594974714 0 -0.54463902268945019 0.54463902268945019 0 -0.83867057594974714 1 I I 0 1 1 forward I I I I #
face $-1 $86 $87 $29 $-1 $88 reversed single #
loop $-1 $-1 $89 $37 #
plane-surface $-1 -210.43523960838752 -13.220170358111652 99.619279124733652 0 -1 0 0.83867057594974714 0 -0.54463902268945019 forward_v I I I I #
face $-1 $90 $91 $30 $-1 $92 forward single #
loop $-1 $93 $94 $38 #
cone-surface $-1 -75.678193357911667 -25.358501547342467 14.887760681316106 0.83867057594974714 0 -0.54463902268945019 0.54463902268945019 0 0.83867057594974714 1 I I 0 1 1 forward I I I I #
face $-1 $95 $96 $31 $-1 $97 forward single #
loop $-1 $98 $99 $39 #
cone-surface $-1 -75.678193357911667 -18.075502833803977 14.887760681316106 0.83867057594974714 0 -0.54463902268945019 0.54463902268945019 0 0.83867057594974714 1 I I 0 1 1 forward I I I I #
face $-1 $100 $101 $24 $-1 $102 reversed single #
loop $-1 $-1 $103 $40 #
plane-surface $-1 0 0 -17.915312374512823 0 0 1 1 0 0 forward_v I I I I #
coedge $-1 $104 $105 $106 $107 forward $41 $-1 #
face $-1 $108 $109 $25 $-1 $110 forward single #
loop $-1 $-1 $111 $43 #
plane-surface $-1 -72.955597429812101 -37.731326980209552 0 -1 0 0 0 0 1 forward_v I I I I #
coedge $-1 $112 $113 $114 $115 forward $44 $-1 #
face $-1 $116 $117 $26 $-1 $118 reversed single #
loop $-1 $-1 $119 $46 #
plane-surface $-1 -7.0171284887427845 -21.717002190573222 145.84021015465396 0.83867057594974714 0 0.54463902268945019 0.54463902268945019 0 -0.83867057594974714 forward_v I I I I #
coedge $-1 $120 $121 $122 $123 reversed $47 $-1 #
face $-1 $-1 $124 $27 $-1 $125 forward single #
loop $-1 $126 $127 $49 #
cone-surface $-1 73.608621997535906 -25.358501547342467 13.543765368466779 -0.83867057594974714 0 -0.54463902268945019 0.2723195113447251 0 -0.41933528797487357 1 I I -0.70710678118654746 0.70710678118654746 0.5 forward I I I I #
loop $-1 $-1 $128 $35 #
coedge $-1 $80 $80 $129 $130 reversed $50 $-1 #
face $-1 $-1 $131 $28 $-1 $132 forward single #
loop $-1 $133 $134 $52 #
cone-surface $-1 73.608621997535906 -18.075502833803977 13.543765368466779 -0.83867057594974714 0 -0.54463902268945019 0.2723195113447251 0 -0.41933528797487357 1 I I -0.70710678118654746 0.70710678118654746 0.5 forward I I I I #
loop $-1 $-1 $135 $36 #
coedge $-1 $85 $85 $136 $137 reversed $53 $-1 #
face $-1 $138 $139 $29 $-1 $140 forward single #
loop $-1 $-1 $141 $55 #
plane-surface $-1 -78.59859004486222 -21.717002190573222 14.003560591128647 -0.83867057594974714 0 0.54463902268945019 0.54463902268945019 0 0.83867057594974714 forward_v I I I I #
coedge $-1 $142 $143 $144 $145 reversed $56 $-1 #
face $-1 $-1 $146 $30 $-1 $147 forward single #
loop $-1 $148 $149 $58 #
cone-surface $-1 -73.608621997535906 -25.358501547342467 13.543765368466747 0.83867057594974714 0 -0.54463902268945019 0.2723195113447251 0 0.41933528797487357 1 I I -0.70710678118654746 0.70710678118654746 0.5 forward I I I I #
loop $-1 $-1 $150 $38 #
coedge $-1 $94 $94 $151 $152 reversed $59 $-1 #
face $-1 $-1 $153 $31 $-1 $154 forward single #
loop $-1 $155 $156 $61 #
cone-surface $-1 -73.608621997535906 -18.075502833803977 13.543765368466747 0.83867057594974714 0 -0.54463902268945019 0.2723195113447251 0 0.41933528797487357 1 I I -0.70710678118654746 0.70710678118654746 0.5 forward I I I I #
loop $-1 $-1 $157 $39 #
coedge $-1 $99 $99 $158 $159 reversed $62 $-1 #
face $-1 $160 $161 $24 $-1 $162 reversed single #
loop $-1 $-1 $163 $64 #
plane-surface $-1 0 -45.248819937384312 0 0 1 0 0 0 1 forward_v I I I I #
coedge $-1 $164 $165 $166 $167 forward $65 $-1 #
coedge $-1 $168 $67 $169 $170 forward $41 $-1 #
coedge $-1 $67 $168 $171 $172 forward $41 $-1 #
coedge $-1 $173 $174 $67 $107 reversed $175 $-1 #
edge $-1 $176 -45.248819937384312 $177 45.248819937384312 $106 $178 forward 7 unknown #
face $-1 $179 $180 $25 $-1 $181 reversed single #
loop $-1 $-1 $182 $68 #
plane-surface $-1 0 0 17.915312374512823 0 0 1 1 0 0 forward_v I I I I #
coedge $-1 $183 $184 $185 $186 reversed $69 $-1 #
coedge $-1 $187 $71 $188 $189 reversed $44 $-1 #
coedge $-1 $71 $187 $190 $191 reversed $44 $-1 #
coedge $-1 $184 $183 $71 $115 reversed $69 $-1 #
edge $-1 $192 -17.915312374512823 $193 17.915312374512823 $114 $194 forward 7 unknown #
face $-1 $195 $196 $26 $-1 $197 reversed single #
loop $-1 $-1 $198 $72 #
plane-surface $-1 124.81952107478251 -30.213834023034792 231.45592868825895 0 1 0 0.83867057594974714 0 0.54463902268945019 forward_v I I I I #
coedge $-1 $199 $200 $201 $202 reversed $73 $-1 #
coedge $-1 $121 $75 $203 $204 reversed $47 $-1 #
coedge $-1 $75 $120 $199 $205 reversed $47 $-1 #
coedge $-1 $201 $206 $75 $123 forward $207 $-1 #
edge $-1 $208 -16.188829507470949 $209 -13.648508278371686 $122 $210 forward 7 unknown #
loop $-1 $-1 $129 $76 #
plane-surface $-1 -7.0171284887427845 -21.717002190573222 145.84021015465396 0.83867057594974714 0 0.54463902268945019 0.54463902268945019 0 -0.83867057594974714 forward_v I I I I #
loop $-1 $-1 $211 $49 #
coedge $-1 $127 $127 $128 $212 reversed $77 $-1 #
coedge $-1 $128 $128 $127 $212 forward $79 $-1 #
coedge $-1 $129 $129 $80 $130 forward $124 $-1 #
edge $-1 $213 0 $213 6.2831853071796004 $129 $214 forward 7 unknown #
loop $-1 $-1 $136 $81 #
plane-surface $-1 -7.0171284887427845 -21.717002190573222 145.84021015465396 0.83867057594974714 0 0.54463902268945019 0.54463902268945019 0 -0.83867057594974714 forward_v I I I I #
loop $-1 $-1 $215 $52 #
coedge $-1 $134 $134 $135 $216 reversed $82 $-1 #
coedge $-1 $135 $135 $134 $216 forward $84 $-1 #
coedge $-1 $136 $136 $85 $137 forward $131 $-1 #
edge $-1 $217 0 $217 6.2831853071796004 $136 $218 forward 7 unknown #
face $-1 $219 $220 $29 $-1 $221 forward single #
loop $-1 $-1 $222 $86 #
plane-surface $-1 0 0 17.915312374512823 0 0 1 1 0 0 forward_v I I I I #
coedge $-1 $223 $224 $225 $226 reversed $87 $-1 #
coedge $-1 $143 $89 $227 $228 reversed $56 $-1 #
coedge $-1 $89 $142 $223 $229 reversed $56 $-1 #
coedge $-1 $225 $230 $89 $145 forward $231 $-1 #
edge $-1 $232 31.894327187854003 $233 35.806078971238158 $144 $234 forward 7 unknown #
loop $-1 $-1 $151 $90 #
plane-surface $-1 -78.59859004486222 -21.717002190573222 14.003560591128647 -0.83867057594974714 0 0.54463902268945019 0.54463902268945019 0 0.83867057594974714 forward_v I I I I #
loop $-1 $-1 $235 $58 #
coedge $-1 $149 $149 $150 $236 reversed $91 $-1 #
coedge $-1 $150 $150 $149 $236 forward $93 $-1 #
coedge $-1 $151 $151 $94 $152 forward $146 $-1 #
edge $-1 $237 0 $237 6.2831853071796004 $151 $238 forward 7 unknown #
loop $-1 $-1 $158 $95 #
plane-surface $-1 -78.59859004486222 -21.717002190573222 14.003560591128647 -0.83867057594974714 0 0.54463902268945019 0.54463902268945019 0 0.83867057594974714 forward_v I I I I #
loop $-1 $-1 $239 $61 #
coedge $-1 $156 $156 $157 $240 reversed $96 $-1 #
coedge $-1 $157 $157 $156 $240 forward $98 $-1 #
coedge $-1 $158 $158 $99 $159 forward $153 $-1 #
edge $-1 $241 0 $241 6.2831853071796004 $158 $242 forward 7 unknown #
face $-1 $243 $244 $24 $-1 $245 reversed single #
loop $-1 $-1 $246 $100 #
plane-surface $-1 -78.598590044862206 0 0 1 0 0 0 0 -1 forward_v I I I I #
coedge $-1 $247 $171 $248 $249 forward $101 $-1 #
coedge $-1 $250 $103 $247 $251 forward $65 $-1 #
coedge $-1 $103 $250 $252 $253 forward $65 $-1 #
coedge $-1 $174 $173 $103 $167 reversed $175 $-1 #
edge $-1 $254 -45.248819937384312 $255 45.248819937384312 $166 $256 forward 7 unknown #
coedge $-1 $105 $104 $257 $258 forward $41 $-1 #
coedge $-1 $259 $260 $104 $170 reversed $244 $-1 #
edge $-1 $177 -78.598590044862206 $261 78.598590044862206 $169 $262 forward 7 unknown #
coedge $-1 $163 $263 $105 $172 reversed $101 $-1 #
edge $-1 $264 -78.598590044862206 $176 78.598590044862206 $171 $265 forward 7 unknown #
coedge $-1 $166 $106 $263 $266 forward $175 $-1 #
coedge $-1 $106 $166 $259 $267 reversed $175 $-1 #
loop $-1 $-1 $173 $243 #
vertex $-1 $107 $268 #
vertex $-1 $107 $269 #
straight-curve $-1 78.598590044862206 0 17.915312374512823 0 1 0 I I #
face $-1 $270 $271 $25 $-1 $272 reversed single #
loop $-1 $-1 $273 $108 #
plane-surface $-1 -78.598590044862206 0 0 1 0 0 0 0 -1 forward_v I I I I #
coedge $-1 $190 $274 $184 $275 forward $109 $-1 #
coedge $-1 $114 $111 $276 $277 reversed $69 $-1 #
coedge $-1 $111 $114 $182 $275 reversed $69 $-1 #
coedge $-1 $278 $279 $111 $186 forward $280 $-1 #
edge $-1 $281 -17.915312374512823 $282 17.915312374512823 $185 $283 forward 7 unknown #
coedge $-1 $113 $112 $273 $284 reversed $44 $-1 #
coedge $-1 $276 $285 $112 $189 forward $271 $-1 #
edge $-1 $286 -40.710043176193629 $193 -35.067050561143525 $188 $287 forward 7 unknown #
coedge $-1 $288 $182 $113 $191 forward $109 $-1 #
edge $-1 $192 35.067050561143525 $289 40.710043176193629 $190 $290 forward 7 unknown #
vertex $-1 $191 $291 #
vertex $-1 $189 $292 #
straight-curve $-1 -72.955597429812101 -30.213834023034792 0 0 0 -1 I I #
face $-1 $-1 $207 $26 $-1 $293 forward single #
loop $-1 $-1 $294 $116 #
plane-surface $-1 78.598590044862206 0 0 -1 0 0 0 0 1 forward_v I I I I #
coedge $-1 $295 $296 $297 $298 reversed $117 $-1 #
coedge $-1 $299 $119 $121 $205 forward $73 $-1 #
coedge $-1 $119 $299 $295 $300 forward $73 $-1 #
coedge $-1 $297 $122 $119 $202 forward $207 $-1 #
edge $-1 $209 2.3616692628250409 $301 19.355332927748179 $201 $302 forward 7 unknown #
coedge $-1 $303 $304 $120 $204 forward $196 $-1 #
edge $-1 $305 -101.72440375300079 $208 -97.812651969616653 $203 $306 forward 7 unknown #
edge $-1 $209 152.53295089704727 $305 157.19718008972438 $121 $307 forward 7 unknown #
coedge $-1 $122 $297 $303 $308 forward $207 $-1 #
loop $-1 $-1 $297 $195 #
vertex $-1 $204 $309 #
vertex $-1 $123 $310 #
straight-curve $-1 62.409760537391257 -13.220170358111652 17.915312374512823 -1 0 0 I I #
coedge $-1 $211 $211 $-1 $311 reversed $126 $-1 #
edge $-1 $312 0 $312 6.2831853071796004 $127 $313 forward 7 unknown #
vertex $-1 $130 $314 #
ellipse-curve $-1 77.328429430312553 -25.358501547342467 15.95943648282077 0.83867057594974714 0 0.54463902268945019 0.54463902268945019 0 -0.83867057594974714 1 I I #
coedge $-1 $215 $215 $-1 $315 reversed $133 $-1 #
edge $-1 $316 0 $316 6.2831853071796004 $134 $317 forward 7 unknown #
vertex $-1 $137 $318 #
ellipse-curve $-1 77.328429430312553 -18.075502833803977 15.95943648282077 0.83867057594974714 0 0.54463902268945019 0.54463902268945019 0 -0.83867057594974714 1 I I #
face $-1 $-1 $231 $29 $-1 $319 reversed single #
loop $-1 $-1 $320 $138 #
plane-surface $-1 -75.777093737337154 -30.213834023034792 0 0 -1 0 0 0 -1 forward_v I I I I #
coedge $-1 $227 $321 $322 $323 forward $139 $-1 #
coedge $-1 $322 $141 $143 $229 forward $87 $-1 #
coedge $-1 $141 $322 $320 $324 reversed $87 $-1 #
coedge $-1 $325 $144 $141 $226 forward $231 $-1 #
edge $-1 $233 2.3616692628250409 $326 19.355332927748179 $225 $327 forward 7 unknown #
coedge $-1 $328 $222 $142 $228 forward $139 $-1 #
edge $-1 $329 -29.15935098843083 $232 -26.619029759331553 $227 $330 forward 7 unknown #
edge $-1 $233 2.5617124586774352e-014 $329 4.6642291926771584 $143 $331 forward 7 unknown #
coedge $-1 $144 $325 $328 $332 reversed $231 $-1 #
loop $-1 $-1 $225 $219 #
vertex $-1 $332 $333 #
vertex $-1 $145 $334 #
straight-curve $-1 -78.598590044862206 -13.220170358111652 49.809639562366826 0 0 -1 I I #
coedge $-1 $235 $235 $-1 $335 reversed $148 $-1 #
edge $-1 $336 0 $336 6.2831853071796004 $149 $337 forward 7 unknown #
vertex $-1 $152 $338 #
ellipse-curve $-1 -77.328429430312568 -25.358501547342467 15.959436482820745 -0.83867057594974714 0 0.54463902268945019 0.54463902268945019 0 0.83867057594974714 1 I I #
coedge $-1 $239 $239 $-1 $339 reversed $155 $-1 #
edge $-1 $340 0 $340 6.2831853071796004 $156 $341 forward 7 unknown #
vertex $-1 $159 $342 #
ellipse-curve $-1 -77.328429430312568 -18.075502833803977 15.959436482820745 -0.83867057594974714 0 0.54463902268945019 0.54463902268945019 0 0.83867057594974714 1 I I #
face $-1 $-1 $175 $24 $-1 $343 reversed single #
loop $-1 $-1 $259 $160 #
plane-surface $-1 0 45.248819937384312 0 0 -1 0 0 0 -1 forward_v I I I I #
coedge $-1 $344 $257 $260 $345 forward $161 $-1 #
coedge $-1 $263 $163 $164 $251 reversed $101 $-1 #
coedge $-1 $257 $344 $163 $249 reversed $161 $-1 #
edge $-1 $264 -17.915312374512823 $346 17.915312374512823 $248 $347 forward 7 unknown #
coedge $-1 $165 $164 $344 $348 forward $65 $-1 #
edge $-1 $255 -78.598590044862206 $346 78.598590044862206 $247 $349 forward 7 unknown #
coedge $-1 $260 $259 $165 $253 reversed $244 $-1 #
edge $-1 $350 -78.598590044862206 $254 78.598590044862206 $252 $351 forward 7 unknown #
vertex $-1 $167 $352 #
vertex $-1 $266 $353 #
straight-curve $-1 78.598590044862206 0 -17.915312374512823 0 -1 0 I I #
coedge $-1 $246 $248 $168 $258 reversed $161 $-1 #
edge $-1 $261 -45.248819937384312 $264 45.248819937384312 $257 $354 forward 7 unknown #
coedge $-1 $252 $169 $174 $267 forward $244 $-1 #
coedge $-1 $169 $252 $246 $345 reversed $244 $-1 #
vertex $-1 $170 $355 #
straight-curve $-1 0 45.248819937384312 17.915312374512823 -1 0 0 I I #
coedge $-1 $171 $247 $173 $266 reversed $101 $-1 #
vertex $-1 $258 $356 #
straight-curve $-1 0 -45.248819937384312 17.915312374512823 1 0 0 I I #
edge $-1 $176 -17.915312374512823 $255 17.915312374512823 $173 $357 forward 7 unknown #
edge $-1 $177 -17.915312374512823 $254 17.915312374512823 $174 $358 forward 7 unknown #
point $-1 78.598590044862206 -45.248819937384312 17.915312374512823 #
point $-1 78.598590044862206 45.248819937384312 17.915312374512823 #
face $-1 $-1 $280 $25 $-1 $359 reversed single #
loop $-1 $-1 $276 $179 #
plane-surface $-1 0 0 -17.915312374512823 0 0 1 1 0 0 forward_v I I I I #
coedge $-1 $360 $361 $187 $284 forward $180 $-1 #
coedge $-1 $182 $288 $278 $362 forward $109 $-1 #
edge $-1 $282 -26.383156447279536 $192 -11.348170532930016 $182 $363 forward 7 unknown #
coedge $-1 $364 $188 $183 $277 forward $271 $-1 #
edge $-1 $193 11.348170532930016 $281 26.383156447279536 $276 $365 forward 7 unknown #
coedge $-1 $366 $185 $274 $362 reversed $280 $-1 #
coedge $-1 $185 $366 $364 $367 reversed $280 $-1 #
loop $-1 $-1 $185 $270 #
vertex $-1 $367 $368 #
vertex $-1 $186 $369 #
straight-curve $-1 -72.955597429812101 -45.248819937384312 0 0 0 1 I I #
edge $-1 $289 -17.915312374512823 $286 17.915312374512823 $273 $370 forward 7 unknown #
coedge $-1 $188 $364 $360 $371 forward $271 $-1 #
vertex $-1 $189 $372 #
straight-curve $-1 -37.888546868668577 -30.213834023034792 -17.915312374512823 1 0 0 I I #
coedge $-1 $274 $190 $361 $373 forward $109 $-1 #
vertex $-1 $373 $374 #
straight-curve $-1 -37.888546868668577 -30.213834023034792 17.915312374512823 -1 0 0 I I #
point $-1 -72.955597429812101 -30.213834023034792 17.915312374512823 #
point $-1 -72.955597429812101 -30.213834023034792 -17.915312374512823 #
plane-surface $-1 0 0 17.915312374512823 0 0 1 1 0 0 forward_v I I I I #
coedge $-1 $304 $303 $296 $375 forward $196 $-1 #
coedge $-1 $296 $198 $200 $300 reversed $117 $-1 #
coedge $-1 $198 $295 $294 $375 reversed $117 $-1 #
coedge $-1 $206 $201 $198 $298 forward $207 $-1 #
edge $-1 $301 13.648508278371686 $376 16.188829507470949 $297 $377 forward 7 unknown #
coedge $-1 $200 $199 $304 $378 reversed $73 $-1 #
edge $-1 $379 -157.19718008972438 $301 -152.53295089704727 $295 $380 forward 7 unknown #
vertex $-1 $202 $381 #
straight-curve $-1 76.058268815762943 -10.858501095286611 17.915312374512823 0 -1 0 I I #
coedge $-1 $294 $203 $206 $308 reversed $196 $-1 #
coedge $-1 $203 $294 $299 $378 forward $196 $-1 #
vertex $-1 $204 $382 #
straight-curve $-1 78.598590044862206 -13.220170358111652 115.72796434412948 0 0 1 I I #
straight-curve $-1 -7.0171284887427845 -13.220170358111652 145.84021015465396 0.54463902268945019 0 -0.83867057594974714 I I #
edge $-1 $376 -30.213834023034792 $208 -13.220170358111652 $303 $383 forward 7 unknown #
point $-1 78.598590044862206 -13.220170358111652 17.915312374512823 #
point $-1 76.058268815762943 -13.220170358111652 17.915312374512823 #
edge $-1 $384 1 $384 0 $211 $-1 forward 7 unknown #
vertex $-1 $212 $385 #
ellipse-curve $-1 74.02795728551078 -25.358501547342467 13.816084879811504 0.83867057594974714 0 0.54463902268945019 0.54463902268945019 0 -0.83867057594974714 1 I I #
point $-1 77.873068453002006 -25.358501547342467 15.120765906871023 #
edge $-1 $386 1 $386 0 $215 $-1 forward 7 unknown #
vertex $-1 $216 $387 #
ellipse-curve $-1 74.02795728551078 -18.075502833803977 13.816084879811504 0.83867057594974714 0 0.54463902268945019 0.54463902268945019 0 -0.83867057594974714 1 I I #
point $-1 77.873068453002006 -18.075502833803977 15.120765906871023 #
plane-surface $-1 -78.598590044862206 0 0 1 0 0 0 0 -1 forward_v I I I I #
coedge $-1 $388 $389 $224 $324 forward $220 $-1 #
coedge $-1 $222 $328 $388 $390 forward $139 $-1 #
coedge $-1 $224 $223 $222 $323 reversed $87 $-1 #
edge $-1 $391 -19.355332927748179 $329 -2.3616692628250409 $222 $392 forward 7 unknown #
edge $-1 $326 5.1038386174283694 $391 9.768067810105503 $320 $393 forward 7 unknown #
coedge $-1 $230 $225 $389 $394 forward $231 $-1 #
vertex $-1 $394 $395 #
straight-curve $-1 -78.598590044862206 -10.858501095286611 14.003560591128686 0 -1 0 I I #
coedge $-1 $321 $227 $230 $332 forward $139 $-1 #
vertex $-1 $228 $396 #
straight-curve $-1 -105.21761980419376 -13.220170358111652 17.915312374512823 -1 0 0 I I #
straight-curve $-1 -78.59859004486222 -13.220170358111652 14.003560591128647 0.54463902268945019 0 0.83867057594974714 I I #
edge $-1 $232 13.220170358111652 $397 30.213834023034792 $230 $398 forward 7 unknown #
point $-1 -78.598590044862206 -13.220170358111652 17.915312374512823 #
point $-1 -78.598590044862206 -13.220170358111652 14.003560591128668 #
edge $-1 $399 1 $399 0 $235 $-1 forward 7 unknown #
vertex $-1 $236 $400 #
ellipse-curve $-1 -74.02795728551078 -25.358501547342467 13.816084879811472 -0.83867057594974714 0 0.54463902268945019 0.54463902268945019 0 0.83867057594974714 1 I I #
point $-1 -76.783790407623115 -25.358501547342467 16.798107058770483 #
edge $-1 $401 1 $401 0 $239 $-1 forward 7 unknown #
vertex $-1 $240 $402 #
ellipse-curve $-1 -74.02795728551078 -18.075502833803977 13.816084879811472 -0.83867057594974714 0 0.54463902268945019 0.54463902268945019 0 0.83867057594974714 1 I I #
point $-1 -76.783790407623115 -18.075502833803977 16.798107058770483 #
plane-surface $-1 78.598590044862206 0 0 -1 0 0 0 0 1 forward_v I I I I #
coedge $-1 $248 $246 $250 $348 reversed $161 $-1 #
edge $-1 $261 -17.915312374512823 $350 17.915312374512823 $260 $403 forward 7 unknown #
vertex $-1 $348 $404 #
straight-curve $-1 -78.598590044862206 -45.248819937384312 0 0 0 -1 I I #
edge $-1 $346 -45.248819937384312 $350 45.248819937384312 $344 $405 forward 7 unknown #
straight-curve $-1 0 -45.248819937384312 -17.915312374512823 -1 0 0 I I #
vertex $-1 $253 $406 #
straight-curve $-1 0 45.248819937384312 -17.915312374512823 1 0 0 I I #
point $-1 78.598590044862206 45.248819937384312 -17.915312374512823 #
point $-1 78.598590044862206 -45.248819937384312 -17.915312374512823 #
straight-curve $-1 -78.598590044862206 0 17.915312374512823 0 -1 0 I I #
point $-1 -78.598590044862206 45.248819937384312 17.915312374512823 #
point $-1 -78.598590044862206 -45.248819937384312 17.915312374512823 #
straight-curve $-1 78.598590044862206 -45.248819937384312 0 0 0 -1 I I #
straight-curve $-1 78.598590044862206 45.248819937384312 0 0 0 -1 I I #
plane-surface $-1 0 -45.248819937384312 0 0 1 0 0 0 1 forward_v I I I I #
coedge $-1 $407 $273 $285 $371 reversed $180 $-1 #
coedge $-1 $273 $407 $288 $373 reversed $180 $-1 #
edge $-1 $408 -78.598590044862206 $282 -72.955597429812101 $278 $409 forward 7 unknown #
straight-curve $-1 -72.955597429812101 -18.865663490104776 17.915312374512823 0 1 0 I I #
coedge $-1 $285 $276 $279 $367 forward $271 $-1 #
straight-curve $-1 -72.955597429812101 -18.865663490104776 -17.915312374512823 0 -1 0 I I #
coedge $-1 $279 $278 $407 $410 forward $280 $-1 #
edge $-1 $281 72.955597429812101 $411 78.598590044862206 $279 $412 forward 7 unknown #
point $-1 -72.955597429812101 -45.248819937384312 -17.915312374512823 #
point $-1 -72.955597429812101 -45.248819937384312 17.915312374512823 #
straight-curve $-1 -78.598590044862206 -30.213834023034792 0 0 0 -1 I I #
edge $-1 $411 -45.248819937384312 $286 -30.213834023034792 $360 $413 forward 7 unknown #
point $-1 -78.598590044862206 -30.213834023034792 -17.915312374512823 #
edge $-1 $289 30.213834023034792 $408 45.248819937384312 $361 $414 forward 7 unknown #
point $-1 -78.598590044862206 -30.213834023034792 17.915312374512823 #
edge $-1 $376 97.812651969616653 $379 101.72440375300079 $294 $415 forward 7 unknown #
vertex $-1 $308 $416 #
straight-curve $-1 62.409760537391257 -30.213834023034792 17.915312374512823 1 0 0 I I #
edge $-1 $379 -19.355332927748179 $305 -2.3616692628250409 $304 $417 forward 7 unknown #
vertex $-1 $378 $418 #
straight-curve $-1 -7.0171284887427845 -30.213834023034792 145.84021015465396 -0.54463902268945019 0 0.83867057594974714 I I #
point $-1 76.058268815762943 -30.213834023034792 17.915312374512823 #
point $-1 78.598590044862206 -13.220170358111652 14.003560591128689 #
straight-curve $-1 78.598590044862206 0 17.915312374512823 0 1 0 I I #
vertex $-1 $311 $419 #
point $-1 74.572596308200232 -25.358501547342467 12.977414303861757 #
vertex $-1 $315 $420 #
point $-1 74.572596308200232 -18.075502833803977 12.977414303861757 #
coedge $-1 $389 $320 $321 $390 reversed $220 $-1 #
coedge $-1 $320 $388 $325 $394 reversed $220 $-1 #
edge $-1 $397 -40.710043176193629 $391 -38.169721947094352 $321 $421 forward 7 unknown #
vertex $-1 $323 $422 #
straight-curve $-1 -76.058268815762943 -10.858501095286611 17.915312374512823 0 1 0 I I #
straight-curve $-1 -81.37833972142306 -30.213834023034792 9.7231213182954512 0.54463902268945019 0 0.83867057594974714 I I #
edge $-1 $326 14.003560591128668 $397 17.915312374512823 $325 $423 forward 7 unknown #
point $-1 -78.598590044862206 -30.213834023034792 14.003560591128668 #
point $-1 -76.058268815762929 -13.220170358111652 17.915312374512823 #
vertex $-1 $394 $424 #
straight-curve $-1 -78.598590044862206 0 17.915312374512823 0 -1 0 I I #
vertex $-1 $335 $425 #
point $-1 -73.483318262821328 -25.358501547342467 14.654755455761219 #
vertex $-1 $339 $426 #
point $-1 -73.483318262821328 -18.075502833803977 14.654755455761219 #
straight-curve $-1 -78.598590044862206 45.248819937384312 0 0 0 -1 I I #
point $-1 -78.598590044862206 -45.248819937384312 -17.915312374512823 #
straight-curve $-1 -78.598590044862206 0 -17.915312374512823 0 1 0 I I #
point $-1 -78.598590044862206 45.248819937384312 -17.915312374512823 #
coedge $-1 $361 $360 $366 $410 reversed $180 $-1 #
vertex $-1 $373 $427 #
straight-curve $-1 0 -45.248819937384312 17.915312374512823 1 0 0 I I #
edge $-1 $408 -17.915312374512823 $411 17.915312374512823 $407 $428 forward 7 unknown #
vertex $-1 $371 $429 #
straight-curve $-1 0 -45.248819937384312 -17.915312374512823 -1 0 0 I I #
straight-curve $-1 -78.598590044862206 0 -17.915312374512823 0 1 0 I I #
straight-curve $-1 -78.598590044862206 0 17.915312374512823 0 -1 0 I I #
straight-curve $-1 78.598590044862206 -30.213834023034792 115.72796434412948 0 0 -1 I I #
point $-1 78.598590044862206 -30.213834023034792 17.915312374512823 #
straight-curve $-1 78.59859004486222 -10.858501095286611 14.003560591128675 0 1 0 I I #
point $-1 78.598590044862206 -30.213834023034792 14.003560591128689 #
point $-1 73.189286709561031 -25.358501547342467 13.271445857122055 #
point $-1 73.189286709561031 -18.075502833803977 13.271445857122055 #
straight-curve $-1 -37.888546868668577 -30.213834023034792 17.915312374512823 1 0 0 I I #
point $-1 -76.058268815762929 -30.213834023034792 17.915312374512823 #
straight-curve $-1 -78.598590044862206 -30.213834023034792 0 0 0 1 I I #
point $-1 -78.598590044862206 -30.213834023034792 17.915312374512823 #
point $-1 -73.189286709561031 -25.358501547342467 13.271445857122023 #
point $-1 -73.189286709561031 -18.075502833803977 13.271445857122023 #
point $-1 -78.598590044862206 -45.248819937384312 17.915312374512823 #
straight-curve $-1 -78.598590044862206 -45.248819937384312 0 0 0 -1 I I #
point $-1 -78.598590044862206 -45.248819937384312 -17.915312374512823 #
End-of-ACIS-data 