500 0 6 0           
7 Unknown 11 ACIS 5.0 NT 24 Thu Mar 25 19:09:51 1999 
-1 9.9999999999999995e-007 1e-010 
body $-1 $6 $-1 $7 #
body $-1 $8 $-1 $9 #
body $-1 $10 $-1 $11 #
body $-1 $12 $-1 $13 #
body $-1 $14 $-1 $15 #
body $-1 $16 $-1 $17 #
lump $-1 $-1 $18 $0 #
transform $-1 1 0 0 0 1 0 0 0 1 50.749839777825251 27.550222784141226 11.152597891108826 1 rotate no_reflect no_shear #
lump $-1 $-1 $19 $1 #
transform $-1 1 0 0 0 1 0 0 0 1 50.749839777825251 27.550222784141226 11.152597891108826 1 rotate no_reflect no_shear #
lump $-1 $-1 $20 $2 #
transform $-1 1 0 0 0 1 0 0 0 1 50.749839777825251 27.550222784141226 11.152597891108826 1 rotate no_reflect no_shear #
lump $-1 $-1 $21 $3 #
transform $-1 1 0 0 0 1 0 0 0 1 50.749839777825251 27.550222784141226 11.152597891108826 1 rotate no_reflect no_shear #
lump $-1 $-1 $22 $4 #
transform $-1 1 0 0 0 1 0 0 0 1 50.749839777825251 27.550222784141226 11.152597891108826 1 rotate no_reflect no_shear #
lump $-1 $-1 $23 $5 #
transform $-1 1 0 0 0 1 0 0 0 1 50.749839777825251 27.550222784141226 11.152597891108826 1 rotate no_reflect no_shear #
shell $-1 $-1 $-1 $24 $-1 $6 #
shell $-1 $-1 $-1 $25 $-1 $8 #
shell $-1 $-1 $-1 $26 $-1 $10 #
shell $-1 $-1 $-1 $27 $-1 $12 #
shell $-1 $-1 $-1 $28 $-1 $14 #
shell $-1 $-1 $-1 $29 $-1 $16 #
face $-1 $30 $31 $18 $-1 $32 forward single #
face $-1 $33 $34 $19 $-1 $35 forward single #
face $-1 $36 $37 $20 $-1 $38 reversed single #
face $-1 $39 $40 $21 $-1 $41 forward single #
face $-1 $42 $43 $22 $-1 $44 reversed single #
face $-1 $45 $46 $23 $-1 $47 forward single #
face $-1 $48 $49 $18 $-1 $50 reversed single #
loop $-1 $-1 $51 $24 #
plane-surface $-1 0 0 11.152597891108826 0 0 1 1 0 0 forward_v I I I I #
face $-1 $52 $53 $19 $-1 $54 reversed single #
loop $-1 $-1 $55 $25 #
plane-surface $-1 0 -22.569098918034623 -7.9933021318128779 0 0 1 1 0 0 forward_v I I I I #
face $-1 $56 $57 $20 $-1 $58 reversed single #
loop $-1 $-1 $59 $26 #
plane-surface $-1 18.459866434175076 -10.297501020736512 147.39308441982448 0 -1 0 -0.52991927123019833 0 -0.84804809178421925 forward_v I I I I #
face $-1 $60 $61 $21 $-1 $62 forward single #
loop $-1 $63 $64 $27 #
cone-surface $-1 46.879537453021712 -13.942738036332265 7.7865108772750116 -0.52991927123019833 0 -0.84804809178421925 0.84804809178421925 0 -0.52991927123019833 1 I I 0 1 1 forward I I I I #
face $-1 $65 $66 $22 $-1 $67 reversed single #
loop $-1 $-1 $68 $28 #
plane-surface $-1 -104.53647599805423 -17.587975051928019 93.606448199595491 0 1 0 -0.52991927123019833 0 0.84804809178421925 forward_v I I I I #
face $-1 $69 $70 $23 $-1 $71 forward single #
loop $-1 $72 $73 $29 #
cone-surface $-1 -46.879537453021712 -13.942738036332265 7.7865108772750116 0.52991927123019833 0 -0.84804809178421925 0.84804809178421925 0 0.52991927123019833 1 I I 0 1 1 forward I I I I #
face $-1 $74 $75 $18 $-1 $76 reversed single #
loop $-1 $-1 $77 $30 #
plane-surface $-1 0 0 -11.152597891108826 0 0 1 1 0 0 forward_v I I I I #
coedge $-1 $78 $79 $80 $81 forward $31 $-1 #
face $-1 $82 $83 $19 $-1 $84 reversed single #
loop $-1 $-1 $85 $33 #
plane-surface $-1 0 -17.587975051928019 -9.5729500114608523 0 -1 0 0 0 -1 forward_v I I I I #
coedge $-1 $86 $87 $88 $89 reversed $34 $-1 #
face $-1 $90 $91 $20 $-1 $92 reversed single #
loop $-1 $-1 $93 $36 #
plane-surface $-1 -35.326769786053902 -13.942738036332265 61.31647485594533 0.52991927123019833 0 0.84804809178421925 0.84804809178421925 0 -0.52991927123019833 forward_v I I I I #
coedge $-1 $94 $95 $96 $97 reversed $37 $-1 #
face $-1 $-1 $98 $21 $-1 $99 forward single #
loop $-1 $100 $101 $39 #
cone-surface $-1 45.643088802786131 -13.942738036332265 5.8077794452453304 -0.52991927123019833 0 -0.84804809178421925 0.42402404589210962 0 -0.26495963561509916 1 I I -0.70710678118654746 0.70710678118654746 0.5 forward I I I I #
loop $-1 $-1 $102 $27 #
coedge $-1 $64 $64 $103 $104 reversed $40 $-1 #
face $-1 $105 $106 $22 $-1 $107 reversed single #
loop $-1 $-1 $108 $42 #
plane-surface $-1 -50.749839777825251 -13.942738036332265 7.5298386357163452 -0.52991927123019833 0 0.84804809178421925 0.84804809178421925 0 0.52991927123019833 forward_v I I I I #
coedge $-1 $109 $110 $111 $112 reversed $43 $-1 #
face $-1 $-1 $113 $23 $-1 $114 forward single #
loop $-1 $115 $116 $45 #
cone-surface $-1 -45.643088802786131 -13.942738036332265 5.8077794452453304 0.52991927123019833 0 -0.84804809178421925 0.42402404589210962 0 0.26495963561509916 1 I I -0.70710678118654746 0.70710678118654746 0.5 forward I I I I #
loop $-1 $-1 $117 $29 #
coedge $-1 $73 $73 $118 $119 reversed $46 $-1 #
face $-1 $120 $121 $18 $-1 $122 reversed single #
loop $-1 $-1 $123 $48 #
plane-surface $-1 0 -27.550222784141226 0 0 1 0 0 0 1 forward_v I I I I #
coedge $-1 $124 $125 $126 $127 forward $49 $-1 #
coedge $-1 $128 $51 $129 $130 forward $31 $-1 #
coedge $-1 $51 $128 $131 $132 forward $31 $-1 #
coedge $-1 $133 $134 $51 $81 reversed $135 $-1 #
edge $-1 $136 -27.550222784141226 $137 27.550222784141226 $80 $138 forward 7 unknown #
face $-1 $139 $140 $19 $-1 $141 reversed single #
loop $-1 $-1 $142 $52 #
plane-surface $-1 0 0 -11.152597891108826 0 0 1 1 0 0 forward_v I I I I #
coedge $-1 $143 $144 $145 $146 reversed $53 $-1 #
coedge $-1 $147 $55 $144 $148 forward $34 $-1 #
coedge $-1 $55 $147 $149 $150 reversed $34 $-1 #
coedge $-1 $151 $145 $55 $89 forward $140 $-1 #
edge $-1 $152 6.3034255929107079 $153 16.265673325123913 $88 $154 forward 7 unknown #
face $-1 $155 $156 $20 $-1 $157 reversed single #
loop $-1 $-1 $158 $56 #
plane-surface $-1 18.459866434175076 -17.587975051928019 147.39308441982448 0 1 0 0.52991927123019833 0 0.84804809178421925 forward_v I I I I #
coedge $-1 $159 $160 $161 $162 reversed $57 $-1 #
coedge $-1 $95 $59 $163 $164 reversed $37 $-1 #
coedge $-1 $59 $94 $159 $165 reversed $37 $-1 #
coedge $-1 $161 $166 $59 $97 forward $167 $-1 #
edge $-1 $168 -41.519906560737709 $169 -35.722279940371607 $96 $170 forward 7 unknown #
loop $-1 $-1 $103 $60 #
plane-surface $-1 -35.326769786053902 -13.942738036332265 61.31647485594533 0.52991927123019833 0 0.84804809178421925 0.84804809178421925 0 -0.52991927123019833 forward_v I I I I #
loop $-1 $-1 $171 $39 #
coedge $-1 $101 $101 $102 $172 reversed $61 $-1 #
coedge $-1 $102 $102 $101 $172 forward $63 $-1 #
coedge $-1 $103 $103 $64 $104 forward $98 $-1 #
edge $-1 $173 0 $173 6.2831853071796004 $103 $174 forward 7 unknown #
face $-1 $175 $176 $22 $-1 $177 forward single #
loop $-1 $-1 $178 $65 #
plane-surface $-1 -104.53647599805423 -10.297501020736512 93.606448199595491 0 -1 0 0.52991927123019833 0 -0.84804809178421925 forward_v I I I I #
coedge $-1 $179 $180 $181 $182 reversed $66 $-1 #
coedge $-1 $110 $68 $183 $184 reversed $43 $-1 #
coedge $-1 $68 $109 $179 $185 reversed $43 $-1 #
coedge $-1 $181 $186 $68 $112 forward $176 $-1 #
edge $-1 $187 1.5183982212018634 $188 7.3160248415679874 $111 $189 forward 7 unknown #
loop $-1 $-1 $118 $69 #
plane-surface $-1 -50.749839777825251 -13.942738036332265 7.5298386357163452 -0.52991927123019833 0 0.84804809178421925 0.84804809178421925 0 0.52991927123019833 forward_v I I I I #
loop $-1 $-1 $190 $45 #
coedge $-1 $116 $116 $117 $191 reversed $70 $-1 #
coedge $-1 $117 $117 $116 $191 forward $72 $-1 #
coedge $-1 $118 $118 $73 $119 forward $113 $-1 #
edge $-1 $192 0 $192 6.2831853071796004 $118 $193 forward 7 unknown #
face $-1 $194 $195 $18 $-1 $196 reversed single #
loop $-1 $-1 $197 $74 #
plane-surface $-1 -50.749839777825251 0 0 1 0 0 0 0 -1 forward_v I I I I #
coedge $-1 $198 $131 $199 $200 forward $75 $-1 #
coedge $-1 $201 $77 $198 $202 forward $49 $-1 #
coedge $-1 $77 $201 $203 $204 forward $49 $-1 #
coedge $-1 $134 $133 $77 $127 reversed $135 $-1 #
edge $-1 $205 -27.550222784141226 $206 27.550222784141226 $126 $207 forward 7 unknown #
coedge $-1 $79 $78 $208 $209 forward $31 $-1 #
coedge $-1 $210 $211 $78 $130 reversed $195 $-1 #
edge $-1 $137 -50.749839777825251 $212 50.749839777825251 $129 $213 forward 7 unknown #
coedge $-1 $123 $214 $79 $132 reversed $75 $-1 #
edge $-1 $215 -50.749839777825251 $136 50.749839777825251 $131 $216 forward 7 unknown #
coedge $-1 $126 $80 $214 $217 forward $135 $-1 #
coedge $-1 $80 $126 $210 $218 reversed $135 $-1 #
loop $-1 $-1 $133 $194 #
vertex $-1 $81 $219 #
vertex $-1 $81 $220 #
straight-curve $-1 50.749839777825251 0 11.152597891108826 0 1 0 I I #
face $-1 $221 $222 $19 $-1 $223 reversed single #
loop $-1 $-1 $145 $82 #
plane-surface $-1 50.749839777825251 0 0 -1 0 0 0 0 1 forward_v I I I I #
coedge $-1 $224 $225 $143 $226 forward $83 $-1 #
coedge $-1 $227 $85 $142 $226 reversed $53 $-1 #
coedge $-1 $85 $227 $86 $148 reversed $53 $-1 #
coedge $-1 $88 $228 $85 $146 forward $140 $-1 #
edge $-1 $229 -6.3661228853783998 $152 -3.2068271260824517 $145 $230 forward 7 unknown #
coedge $-1 $87 $86 $231 $232 reversed $34 $-1 #
edge $-1 $152 -50.749839777825251 $233 50.749839777825251 $144 $234 forward 7 unknown #
coedge $-1 $235 $236 $87 $150 forward $222 $-1 #
edge $-1 $153 -50.749839777825251 $237 50.749839777825251 $149 $238 forward 7 unknown #
coedge $-1 $228 $88 $236 $239 forward $140 $-1 #
vertex $-1 $89 $240 #
vertex $-1 $239 $241 #
straight-curve $-1 50.749839777825251 -11.284549459017311 -7.9933021318128779 0 -1 0 I I #
face $-1 $-1 $167 $20 $-1 $242 forward single #
loop $-1 $-1 $243 $90 #
plane-surface $-1 50.749839777825251 0 0 -1 0 0 0 0 1 forward_v I I I I #
coedge $-1 $244 $245 $246 $247 reversed $91 $-1 #
coedge $-1 $248 $93 $95 $165 forward $57 $-1 #
coedge $-1 $93 $248 $244 $249 forward $57 $-1 #
coedge $-1 $246 $96 $93 $162 forward $167 $-1 #
edge $-1 $169 3.3261320025703789 $250 10.616606033761887 $161 $251 forward 7 unknown #
coedge $-1 $252 $253 $94 $164 forward $156 $-1 #
edge $-1 $254 -66.166703574195893 $168 -62.543944318803412 $163 $255 forward 7 unknown #
edge $-1 $169 94.663243418911605 $254 101.49967955565052 $95 $256 forward 7 unknown #
coedge $-1 $96 $246 $252 $257 forward $167 $-1 #
loop $-1 $-1 $246 $155 #
vertex $-1 $164 $258 #
vertex $-1 $97 $259 #
straight-curve $-1 9.2299332170875381 -10.297501020736512 11.152597891108826 -1 0 0 I I #
coedge $-1 $171 $171 $-1 $260 reversed $100 $-1 #
edge $-1 $261 0 $261 6.2831853071796004 $101 $262 forward 7 unknown #
vertex $-1 $104 $263 #
ellipse-curve $-1 47.851026467642193 -13.942738036332265 9.3412182634125873 0.52991927123019833 0 0.84804809178421925 0.84804809178421925 0 -0.52991927123019833 1 I I #
face $-1 $-1 $264 $22 $-1 $265 reversed single #
loop $-1 $-1 $111 $105 #
plane-surface $-1 0 0 11.152597891108826 0 0 1 1 0 0 forward_v I I I I #
coedge $-1 $266 $267 $268 $269 reversed $106 $-1 #
coedge $-1 $270 $108 $110 $185 forward $66 $-1 #
coedge $-1 $108 $270 $266 $271 forward $66 $-1 #
coedge $-1 $268 $111 $108 $182 forward $176 $-1 #
edge $-1 $188 -10.616606033761887 $272 -3.3261320025703789 $181 $273 forward 7 unknown #
coedge $-1 $274 $275 $109 $184 forward $264 $-1 #
edge $-1 $276 -39.2733854640814 $187 -35.650626208688919 $183 $277 forward 7 unknown #
edge $-1 $188 -6.8364361367389233 $276 0 $110 $278 forward 7 unknown #
coedge $-1 $111 $268 $274 $279 forward $176 $-1 #
vertex $-1 $184 $280 #
vertex $-1 $112 $281 #
straight-curve $-1 -52.268237999027114 -17.587975051928019 11.152597891108826 1 0 0 I I #
coedge $-1 $190 $190 $-1 $282 reversed $115 $-1 #
edge $-1 $283 0 $283 6.2831853071796004 $116 $284 forward 7 unknown #
vertex $-1 $119 $285 #
ellipse-curve $-1 -47.851026467642193 -13.942738036332265 9.3412182634125855 -0.52991927123019833 0 0.84804809178421925 0.84804809178421925 0 0.52991927123019833 1 I I #
face $-1 $-1 $135 $18 $-1 $286 reversed single #
loop $-1 $-1 $210 $120 #
plane-surface $-1 0 27.550222784141226 0 0 -1 0 0 0 -1 forward_v I I I I #
coedge $-1 $287 $208 $211 $288 forward $121 $-1 #
coedge $-1 $214 $123 $124 $202 reversed $75 $-1 #
coedge $-1 $208 $287 $123 $200 reversed $121 $-1 #
edge $-1 $215 -11.152597891108826 $289 11.152597891108826 $199 $290 forward 7 unknown #
coedge $-1 $125 $124 $287 $291 forward $49 $-1 #
edge $-1 $206 -50.749839777825251 $289 50.749839777825251 $198 $292 forward 7 unknown #
coedge $-1 $211 $210 $125 $204 reversed $195 $-1 #
edge $-1 $293 -50.749839777825251 $205 50.749839777825251 $203 $294 forward 7 unknown #
vertex $-1 $127 $295 #
vertex $-1 $217 $296 #
straight-curve $-1 50.749839777825251 0 -11.152597891108826 0 -1 0 I I #
coedge $-1 $197 $199 $128 $209 reversed $121 $-1 #
edge $-1 $212 -27.550222784141226 $215 27.550222784141226 $208 $297 forward 7 unknown #
coedge $-1 $203 $129 $134 $218 forward $195 $-1 #
coedge $-1 $129 $203 $197 $288 reversed $195 $-1 #
vertex $-1 $130 $298 #
straight-curve $-1 0 27.550222784141226 11.152597891108826 -1 0 0 I I #
coedge $-1 $131 $198 $133 $217 reversed $75 $-1 #
vertex $-1 $209 $299 #
straight-curve $-1 0 -27.550222784141226 11.152597891108826 1 0 0 I I #
edge $-1 $136 -11.152597891108826 $206 11.152597891108826 $133 $300 forward 7 unknown #
edge $-1 $137 -11.152597891108826 $205 11.152597891108826 $134 $301 forward 7 unknown #
point $-1 50.749839777825251 -27.550222784141226 11.152597891108826 #
point $-1 50.749839777825251 27.550222784141226 11.152597891108826 #
face $-1 $-1 $302 $19 $-1 $303 reversed single #
loop $-1 $-1 $149 $139 #
plane-surface $-1 0 -27.550222784141226 0 0 1 0 0 0 1 forward_v I I I I #
coedge $-1 $304 $142 $228 $305 forward $83 $-1 #
coedge $-1 $142 $304 $306 $307 forward $83 $-1 #
edge $-1 $308 -50.749839777825251 $229 50.749839777825251 $142 $309 forward 7 unknown #
coedge $-1 $144 $143 $310 $311 reversed $53 $-1 #
coedge $-1 $145 $151 $224 $305 reversed $140 $-1 #
vertex $-1 $305 $312 #
straight-curve $-1 50.749839777825251 -17.587975051928019 -4.7864750057304262 0 0 1 I I #
coedge $-1 $310 $313 $147 $232 forward $302 $-1 #
edge $-1 $237 -16.265673325123913 $233 -6.3034255929107079 $231 $314 forward 7 unknown #
vertex $-1 $232 $315 #
straight-curve $-1 0 -17.587975051928019 -7.9933021318128779 -1 0 0 I I #
coedge $-1 $316 $149 $313 $317 forward $222 $-1 #
coedge $-1 $149 $316 $151 $239 reversed $222 $-1 #
vertex $-1 $317 $318 #
straight-curve $-1 0 -27.550222784141226 -7.9933021318128779 -1 0 0 I I #
edge $-1 $153 7.9933021318128779 $319 11.152597891108826 $151 $320 forward 7 unknown #
point $-1 50.749839777825251 -17.587975051928019 -7.9933021318128779 #
point $-1 50.749839777825251 -27.550222784141226 -7.9933021318128779 #
plane-surface $-1 0 0 11.152597891108826 0 0 1 1 0 0 forward_v I I I I #
coedge $-1 $253 $252 $245 $321 forward $156 $-1 #
coedge $-1 $245 $158 $160 $249 reversed $91 $-1 #
coedge $-1 $158 $244 $243 $321 reversed $91 $-1 #
coedge $-1 $166 $161 $158 $247 forward $167 $-1 #
edge $-1 $250 35.722279940371607 $322 41.519906560737709 $246 $323 forward 7 unknown #
coedge $-1 $160 $159 $253 $324 reversed $57 $-1 #
edge $-1 $325 -101.49967955565052 $250 -94.663243418911605 $244 $326 forward 7 unknown #
vertex $-1 $162 $327 #
straight-curve $-1 44.952213157459141 -6.9713690181661327 11.152597891108819 0 -1 0 I I #
coedge $-1 $243 $163 $166 $257 reversed $156 $-1 #
coedge $-1 $163 $243 $248 $324 forward $156 $-1 #
vertex $-1 $164 $328 #
straight-curve $-1 50.749839777825251 -10.297501020736512 73.696542209912238 0 0 1 I I #
straight-curve $-1 -35.326769786053902 -10.297501020736512 61.31647485594533 0.84804809178421925 0 -0.52991927123019833 I I #
edge $-1 $322 -17.587975051928019 $168 -10.297501020736512 $252 $329 forward 7 unknown #
point $-1 50.749839777825251 -10.297501020736512 11.152597891108826 #
point $-1 44.952213157459141 -10.297501020736512 11.152597891108826 #
edge $-1 $330 1 $330 0 $171 $-1 forward 7 unknown #
vertex $-1 $172 $331 #
ellipse-curve $-1 45.908048438401231 -13.942738036332265 6.2318034911374403 0.52991927123019833 0 0.84804809178421925 0.84804809178421925 0 -0.52991927123019833 1 I I #
point $-1 48.699074559426407 -13.942738036332265 8.8112989921823868 #
loop $-1 $-1 $183 $175 #
plane-surface $-1 -50.749839777825251 0 0 1 0 0 0 0 -1 forward_v I I I I #
coedge $-1 $267 $178 $180 $271 reversed $106 $-1 #
coedge $-1 $178 $266 $332 $333 reversed $106 $-1 #
coedge $-1 $186 $181 $178 $269 forward $176 $-1 #
edge $-1 $272 -7.3160248415679874 $334 -1.5183982212018634 $268 $335 forward 7 unknown #
coedge $-1 $180 $179 $275 $336 reversed $66 $-1 #
edge $-1 $337 0 $272 6.8364361367389233 $266 $338 forward 7 unknown #
vertex $-1 $182 $339 #
straight-curve $-1 -44.952213157459141 -6.9713690181661327 11.152597891108824 0 1 0 I I #
coedge $-1 $332 $183 $186 $279 reversed $264 $-1 #
coedge $-1 $183 $332 $270 $336 forward $264 $-1 #
vertex $-1 $184 $340 #
straight-curve $-1 -50.749839777825251 -17.587975051928019 46.803224099797745 0 0 1 I I #
straight-curve $-1 -50.749839777825251 -17.587975051928019 7.5298386357163452 -0.84804809178421925 0 -0.52991927123019833 I I #
edge $-1 $334 10.297501020736512 $187 17.587975051928019 $274 $341 forward 7 unknown #
point $-1 -50.749839777825251 -17.587975051928019 11.152597891108826 #
point $-1 -44.952213157459127 -17.587975051928019 11.152597891108826 #
edge $-1 $342 1 $342 0 $190 $-1 forward 7 unknown #
vertex $-1 $191 $343 #
ellipse-curve $-1 -45.908048438401231 -13.942738036332265 6.2318034911374403 -0.52991927123019833 0 0.84804809178421925 0.84804809178421925 0 0.52991927123019833 1 I I #
point $-1 -47.002978375857971 -13.942738036332265 9.8711375346427825 #
plane-surface $-1 50.749839777825251 0 0 -1 0 0 0 0 1 forward_v I I I I #
coedge $-1 $199 $197 $201 $291 reversed $121 $-1 #
edge $-1 $212 -11.152597891108826 $293 11.152597891108826 $211 $344 forward 7 unknown #
vertex $-1 $291 $345 #
straight-curve $-1 -50.749839777825251 -27.550222784141226 0 0 0 -1 I I #
edge $-1 $289 -27.550222784141226 $293 27.550222784141226 $287 $346 forward 7 unknown #
straight-curve $-1 0 -27.550222784141226 -11.152597891108826 -1 0 0 I I #
vertex $-1 $204 $347 #
straight-curve $-1 0 27.550222784141226 -11.152597891108826 1 0 0 I I #
point $-1 50.749839777825251 27.550222784141226 -11.152597891108826 #
point $-1 50.749839777825251 -27.550222784141226 -11.152597891108826 #
straight-curve $-1 -50.749839777825251 0 11.152597891108826 0 -1 0 I I #
point $-1 -50.749839777825251 27.550222784141226 11.152597891108826 #
point $-1 -50.749839777825251 -27.550222784141226 11.152597891108826 #
straight-curve $-1 50.749839777825251 -27.550222784141226 0 0 0 -1 I I #
straight-curve $-1 50.749839777825251 27.550222784141226 0 0 0 -1 I I #
loop $-1 $-1 $310 $221 #
plane-surface $-1 -50.749839777825251 0 0 1 0 0 0 0 -1 forward_v I I I I #
coedge $-1 $225 $224 $316 $348 forward $83 $-1 #
edge $-1 $229 17.587975051928019 $319 27.550222784141226 $228 $349 forward 7 unknown #
coedge $-1 $313 $310 $225 $307 reversed $302 $-1 #
edge $-1 $350 -27.550222784141226 $308 -17.587975051928019 $306 $351 forward 7 unknown #
vertex $-1 $311 $352 #
straight-curve $-1 0 -17.587975051928019 -11.152597891108826 1 0 0 I I #
coedge $-1 $306 $231 $227 $311 forward $302 $-1 #
edge $-1 $233 3.2068271260824517 $308 6.3661228853783998 $310 $353 forward 7 unknown #
point $-1 50.749839777825251 -17.587975051928019 -11.152597891108826 #
coedge $-1 $231 $306 $235 $317 reversed $302 $-1 #
straight-curve $-1 -50.749839777825251 -11.284549459017311 -7.9933021318128779 0 1 0 I I #
point $-1 -50.749839777825251 -17.587975051928019 -7.9933021318128779 #
coedge $-1 $236 $235 $304 $348 reversed $222 $-1 #
edge $-1 $237 7.9933021318128779 $350 11.152597891108826 $313 $354 forward 7 unknown #
point $-1 -50.749839777825251 -27.550222784141226 -7.9933021318128779 #
vertex $-1 $239 $355 #
straight-curve $-1 50.749839777825251 -27.550222784141226 0 0 0 -1 I I #
edge $-1 $322 62.543944318803412 $325 66.166703574195893 $243 $356 forward 7 unknown #
vertex $-1 $257 $357 #
straight-curve $-1 9.2299332170875381 -17.587975051928019 11.152597891108826 1 0 0 I I #
edge $-1 $325 -10.616606033761887 $254 -3.3261320025703789 $253 $358 forward 7 unknown #
vertex $-1 $324 $359 #
straight-curve $-1 -35.326769786053902 -17.587975051928019 61.31647485594533 -0.84804809178421925 0 0.52991927123019833 I I #
point $-1 44.952213157459141 -17.587975051928019 11.152597891108826 #
point $-1 50.749839777825244 -10.297501020736512 7.5298386357163452 #
straight-curve $-1 50.749839777825251 0 11.152597891108826 0 1 0 I I #
vertex $-1 $260 $360 #
point $-1 46.756096530185452 -13.942738036332265 5.7018842199072415 #
coedge $-1 $275 $274 $267 $333 forward $264 $-1 #
edge $-1 $334 35.650626208688919 $337 39.2733854640814 $332 $361 forward 7 unknown #
vertex $-1 $279 $362 #
straight-curve $-1 -52.268237999027114 -10.297501020736512 11.152597891108826 -1 0 0 I I #
edge $-1 $337 3.3261320025703789 $276 10.616606033761887 $275 $363 forward 7 unknown #
vertex $-1 $336 $364 #
straight-curve $-1 -50.749839777825251 -10.297501020736512 7.5298386357163452 0.84804809178421925 0 0.52991927123019833 I I #
point $-1 -44.952213157459127 -10.297501020736512 11.152597891108826 #
point $-1 -50.749839777825251 -17.587975051928019 7.5298386357163452 #
straight-curve $-1 -50.749839777825251 0 11.152597891108826 0 -1 0 I I #
vertex $-1 $282 $365 #
point $-1 -45.060000346617009 -13.942738036332265 6.7617227623676381 #
straight-curve $-1 -50.749839777825251 27.550222784141226 0 0 0 -1 I I #
point $-1 -50.749839777825251 -27.550222784141226 -11.152597891108826 #
straight-curve $-1 -50.749839777825251 0 -11.152597891108826 0 1 0 I I #
point $-1 -50.749839777825251 27.550222784141226 -11.152597891108826 #
edge $-1 $319 -50.749839777825251 $350 50.749839777825251 $316 $366 forward 7 unknown #
straight-curve $-1 50.749839777825251 0 -11.152597891108826 0 -1 0 I I #
vertex $-1 $307 $367 #
straight-curve $-1 -50.749839777825251 0 -11.152597891108826 0 1 0 I I #
point $-1 -50.749839777825251 -17.587975051928019 -11.152597891108826 #
straight-curve $-1 -50.749839777825251 -17.587975051928019 -4.7864750057304262 0 0 -1 I I #
straight-curve $-1 -50.749839777825251 -27.550222784141226 0 0 0 -1 I I #
point $-1 50.749839777825251 -27.550222784141226 -11.152597891108826 #
straight-curve $-1 50.749839777825251 -17.587975051928019 73.696542209912238 0 0 -1 I I #
point $-1 50.749839777825251 -17.587975051928019 11.152597891108826 #
straight-curve $-1 50.749839777825251 -6.9713690181661327 7.5298386357163523 0 1 0 I I #
point $-1 50.749839777825244 -17.587975051928019 7.5298386357163452 #
point $-1 45.378129167171032 -13.942738036332265 5.3837553993532206 #
straight-curve $-1 -50.749839777825251 -10.297501020736512 46.803224099797745 0 0 -1 I I #
point $-1 -50.749839777825251 -10.297501020736512 11.152597891108826 #
straight-curve $-1 -50.749839777825251 -6.9713690181661327 7.5298386357163469 0 -1 0 I I #
point $-1 -50.749839777825251 -10.297501020736512 7.5298386357163452 #
point $-1 -45.378129167171032 -13.942738036332265 5.3837553993532206 #
straight-curve $-1 0 -27.550222784141226 -11.152597891108826 -1 0 0 I I #
point $-1 -50.749839777825251 -27.550222784141226 -11.152597891108826 #
End-of-ACIS-data 