500 0 5 0           
7 Unknown 11 ACIS 5.0 NT 24 Thu Mar 25 22:05:23 1999 
-1 9.9999999999999995e-007 1e-010 
body $-1 $5 $-1 $6 #
body $-1 $7 $-1 $8 #
body $-1 $9 $-1 $10 #
body $-1 $11 $-1 $12 #
body $-1 $13 $-1 $14 #
lump $-1 $-1 $15 $0 #
transform $-1 1 0 0 0 1 0 0 0 1 63.689687795648062 27.699873066676247 13.81975722279763 1 rotate no_reflect no_shear #
lump $-1 $-1 $16 $1 #
transform $-1 1 0 0 0 1 0 0 0 1 63.689687795648062 27.699873066676247 13.81975722279763 1 rotate no_reflect no_shear #
lump $-1 $-1 $17 $2 #
transform $-1 1 0 0 0 1 0 0 0 1 63.689687795648062 27.699873066676247 13.81975722279763 1 rotate no_reflect no_shear #
lump $-1 $-1 $18 $3 #
transform $-1 1 0 0 0 1 0 0 0 1 63.689687795648062 27.699873066676247 13.81975722279763 1 rotate no_reflect no_shear #
lump $-1 $-1 $19 $4 #
transform $-1 1 0 0 0 1 0 0 0 1 63.689687795648062 27.699873066676247 13.81975722279763 1 rotate no_reflect no_shear #
shell $-1 $-1 $-1 $20 $-1 $5 #
shell $-1 $-1 $-1 $21 $-1 $7 #
shell $-1 $-1 $-1 $22 $-1 $9 #
shell $-1 $-1 $-1 $23 $-1 $11 #
shell $-1 $-1 $-1 $24 $-1 $13 #
face $-1 $25 $26 $15 $-1 $27 forward single #
face $-1 $28 $29 $16 $-1 $30 forward single #
face $-1 $31 $32 $17 $-1 $33 forward single #
face $-1 $34 $35 $18 $-1 $36 reversed single #
face $-1 $37 $38 $19 $-1 $39 reversed single #
face $-1 $40 $41 $15 $-1 $42 reversed single #
loop $-1 $-1 $43 $20 #
plane-surface $-1 0 0 13.81975722279763 0 0 1 1 0 0 forward_v I I I I #
face $-1 $44 $45 $16 $-1 $46 forward single #
loop $-1 $-1 $47 $21 #
plane-surface $-1 -55.357800155423632 0 9.192983313512844 0 0 1 1 0 0 forward_v I I I I #
face $-1 $48 $49 $17 $-1 $50 forward single #
loop $-1 $-1 $51 $22 #
plane-surface $-1 69.976542566898388 20.338152386083188 183.77145045873075 0 -1 0 -0.73135370988377701 0 -0.68199835119979291 forward_v I I I I #
face $-1 $52 $53 $18 $-1 $54 reversed single #
loop $-1 $55 $56 $23 #
cone-surface $-1 58.608000407644624 14.502756796770804 8.4236985971122831 -0.73135370988377701 0 -0.68199835119979291 0.68199835119979291 0 -0.73135370988377701 1 I I 0 1 1 forward I I I I #
face $-1 $57 $58 $19 $-1 $59 reversed single #
loop $-1 $60 $61 $24 #
cone-surface $-1 58.608000407644624 18.003994150358231 8.4236985971122831 -0.73135370988377701 0 -0.68199835119979291 0.68199835119979291 0 -0.73135370988377701 1 I I 0 1 1 forward I I I I #
face $-1 $62 $63 $15 $-1 $64 reversed single #
loop $-1 $-1 $65 $25 #
plane-surface $-1 0 0 -13.81975722279763 0 0 1 1 0 0 forward_v I I I I #
coedge $-1 $66 $67 $68 $69 forward $26 $-1 #
face $-1 $70 $71 $16 $-1 $72 forward single #
loop $-1 $-1 $73 $28 #
plane-surface $-1 -47.025912515199202 0 11.506370268155237 -1 0 0 0 0 1 forward_v I I I I #
coedge $-1 $74 $75 $76 $77 reversed $29 $-1 #
face $-1 $78 $79 $17 $-1 $80 forward single #
loop $-1 $-1 $81 $31 #
plane-surface $-1 -23.182836334475056 16.253375473564518 96.898926328607658 0.73135370988377701 0 0.68199835119979291 0.68199835119979291 0 -0.73135370988377701 forward_v I I I I #
coedge $-1 $82 $83 $84 $85 reversed $32 $-1 #
face $-1 $86 $87 $18 $-1 $88 forward single #
loop $-1 $89 $90 $34 #
cone-surface $-1 57.860609903408253 14.502756796770804 7.7267456936087378 -0.73135370988377701 0 -0.68199835119979291 0.34099917559989645 0 -0.36567685494188851 1 I I -0.70710678118654691 0.70710678118654813 0.5 forward I I I I #
loop $-1 $-1 $91 $23 #
coedge $-1 $56 $56 $92 $93 reversed $35 $-1 #
face $-1 $94 $95 $19 $-1 $96 reversed single #
loop $-1 $97 $98 $37 #
cone-surface $-1 57.860609903408253 18.003994150358231 7.7267456936087378 -0.73135370988377701 0 -0.68199835119979291 0.34099917559989645 0 -0.36567685494188851 1 I I -0.70710678118654691 0.70710678118654813 0.5 forward I I I I #
loop $-1 $-1 $99 $24 #
coedge $-1 $61 $61 $100 $101 reversed $38 $-1 #
face $-1 $102 $103 $15 $-1 $104 reversed single #
loop $-1 $-1 $105 $40 #
plane-surface $-1 0 -27.699873066676247 0 0 1 0 0 0 1 forward_v I I I I #
coedge $-1 $106 $107 $108 $109 forward $41 $-1 #
coedge $-1 $110 $43 $111 $112 forward $26 $-1 #
coedge $-1 $43 $110 $113 $114 forward $26 $-1 #
coedge $-1 $115 $116 $43 $69 reversed $117 $-1 #
edge $-1 $118 -27.699873066676247 $119 27.699873066676247 $68 $120 forward 7 unknown #
face $-1 $121 $122 $16 $-1 $123 reversed single #
loop $-1 $-1 $124 $44 #
plane-surface $-1 0 0 13.81975722279763 0 0 1 1 0 0 forward_v I I I I #
coedge $-1 $125 $76 $126 $127 reversed $45 $-1 #
coedge $-1 $128 $47 $129 $130 reversed $29 $-1 #
coedge $-1 $47 $128 $131 $132 reversed $29 $-1 #
coedge $-1 $73 $133 $47 $77 forward $45 $-1 #
edge $-1 $134 -27.699873066676247 $135 27.699873066676247 $76 $136 forward 7 unknown #
face $-1 $137 $138 $17 $-1 $139 forward single #
loop $-1 $-1 $140 $48 #
plane-surface $-1 69.976542566898388 12.168598561045847 183.77145045873075 0 1 0 0.73135370988377701 0 0.68199835119979291 forward_v I I I I #
coedge $-1 $141 $142 $143 $144 reversed $49 $-1 #
coedge $-1 $83 $51 $142 $145 forward $32 $-1 #
coedge $-1 $51 $82 $146 $147 reversed $32 $-1 #
coedge $-1 $148 $143 $51 $85 forward $138 $-1 #
edge $-1 $149 19.301469034780922 $150 28.701416512198868 $84 $151 forward 7 unknown #
face $-1 $152 $153 $18 $-1 $154 forward single #
loop $-1 $-1 $155 $52 #
plane-surface $-1 69.976542566898388 20.338152386083188 183.77145045873075 0 -1 0 -0.73135370988377701 0 -0.68199835119979291 forward_v I I I I #
loop $-1 $-1 $156 $34 #
coedge $-1 $90 $90 $91 $157 forward $53 $-1 #
coedge $-1 $91 $91 $90 $157 reversed $55 $-1 #
coedge $-1 $92 $92 $56 $93 forward $153 $-1 #
edge $-1 $158 0 $158 6.2831853071796004 $92 $159 forward 7 unknown #
face $-1 $160 $161 $19 $-1 $162 reversed single #
loop $-1 $163 $164 $57 #
cone-surface $-1 58.608000407644624 14.502756796770804 8.4236985971122831 -0.73135370988377701 0 -0.68199835119979291 0.68199835119979291 0 -0.73135370988377701 1 I I 0 1 1 forward I I I I #
loop $-1 $-1 $165 $37 #
coedge $-1 $98 $98 $99 $166 forward $58 $-1 #
coedge $-1 $99 $99 $98 $166 reversed $60 $-1 #
coedge $-1 $100 $100 $61 $101 forward $167 $-1 #
edge $-1 $168 0 $168 6.2831853071796004 $100 $169 forward 7 unknown #
face $-1 $170 $171 $15 $-1 $172 reversed single #
loop $-1 $-1 $173 $62 #
plane-surface $-1 -63.689687795648062 0 0 1 0 0 0 0 -1 forward_v I I I I #
coedge $-1 $174 $113 $175 $176 forward $63 $-1 #
coedge $-1 $177 $65 $174 $178 forward $41 $-1 #
coedge $-1 $65 $177 $179 $180 forward $41 $-1 #
coedge $-1 $116 $115 $65 $109 reversed $117 $-1 #
edge $-1 $181 -27.699873066676247 $182 27.699873066676247 $108 $183 forward 7 unknown #
coedge $-1 $67 $66 $184 $185 forward $26 $-1 #
coedge $-1 $186 $187 $66 $112 reversed $171 $-1 #
edge $-1 $119 -63.689687795648062 $188 63.689687795648062 $111 $189 forward 7 unknown #
coedge $-1 $105 $190 $67 $114 reversed $63 $-1 #
edge $-1 $191 -63.689687795648062 $118 63.689687795648062 $113 $192 forward 7 unknown #
coedge $-1 $108 $68 $190 $193 forward $117 $-1 #
coedge $-1 $68 $108 $186 $194 reversed $117 $-1 #
loop $-1 $-1 $115 $170 #
vertex $-1 $69 $195 #
vertex $-1 $69 $196 #
straight-curve $-1 63.689687795648062 0 13.81975722279763 0 1 0 I I #
face $-1 $197 $198 $16 $-1 $199 reversed single #
loop $-1 $-1 $126 $70 #
plane-surface $-1 0 -27.699873066676247 0 0 1 0 0 0 1 forward_v I I I I #
coedge $-1 $200 $201 $125 $202 forward $71 $-1 #
coedge $-1 $133 $73 $124 $202 reversed $45 $-1 #
coedge $-1 $131 $203 $73 $127 forward $122 $-1 #
edge $-1 $204 -8.0665720887200116 $135 -3.4397981794352255 $126 $205 forward 7 unknown #
coedge $-1 $75 $74 $206 $207 reversed $29 $-1 #
coedge $-1 $208 $209 $74 $130 forward $210 $-1 #
edge $-1 $211 -36.010787717936246 $134 -19.347012437487386 $129 $212 forward 7 unknown #
coedge $-1 $213 $126 $75 $132 forward $122 $-1 #
edge $-1 $135 19.347012437487386 $214 36.010787717936246 $131 $215 forward 7 unknown #
coedge $-1 $76 $125 $208 $216 reversed $45 $-1 #
vertex $-1 $130 $217 #
vertex $-1 $132 $218 #
straight-curve $-1 -47.025912515199202 0 9.192983313512844 0 -1 0 I I #
face $-1 $219 $220 $17 $-1 $221 forward single #
loop $-1 $-1 $222 $78 #
plane-surface $-1 0 0 13.81975722279763 0 0 1 1 0 0 forward_v I I I I #
coedge $-1 $223 $224 $222 $225 reversed $79 $-1 #
coedge $-1 $226 $81 $224 $227 reversed $49 $-1 #
coedge $-1 $81 $226 $82 $145 reversed $49 $-1 #
coedge $-1 $84 $222 $81 $144 forward $138 $-1 #
edge $-1 $228 4.0419108242635886 $149 12.211464649300929 $143 $229 forward 7 unknown #
edge $-1 $149 113.59642807994032 $230 127.37937559129614 $82 $231 forward 7 unknown #
coedge $-1 $232 $233 $83 $147 forward $234 $-1 #
edge $-1 $150 78.065968006567743 $230 88.146177802131177 $146 $235 forward 7 unknown #
coedge $-1 $236 $84 $233 $237 forward $138 $-1 #
vertex $-1 $144 $238 #
vertex $-1 $237 $239 #
straight-curve $-1 34.988271283449194 20.338152386083188 13.819757222797634 1 0 0 I I #
face $-1 $240 $241 $18 $-1 $242 forward single #
loop $-1 $243 $92 $86 #
plane-surface $-1 -23.182836334475056 16.253375473564518 96.898926328607658 0.73135370988377701 0 0.68199835119979291 0.68199835119979291 0 -0.73135370988377701 forward_v I I I I #
coedge $-1 $244 $245 $246 $247 reversed $87 $-1 #
coedge $-1 $156 $156 $-1 $248 forward $89 $-1 #
edge $-1 $249 0 $249 6.2831853071796004 $90 $250 forward 7 unknown #
vertex $-1 $93 $251 #
ellipse-curve $-1 58.989714056939086 14.502756796770804 8.7796523250159115 -0.73135370988377701 0 -0.68199835119979291 0.68199835119979291 0 -0.73135370988377701 1 I I #
face $-1 $252 $253 $19 $-1 $254 forward single #
loop $-1 $255 $256 $94 #
cone-surface $-1 57.860609903408253 14.502756796770804 7.7267456936087378 -0.73135370988377701 0 -0.68199835119979291 0.34099917559989645 0 -0.36567685494188851 1 I I -0.70710678118654691 0.70710678118654813 0.5 forward I I I I #
loop $-1 $-1 $257 $57 #
coedge $-1 $164 $164 $258 $259 reversed $95 $-1 #
coedge $-1 $165 $165 $-1 $260 forward $97 $-1 #
edge $-1 $261 0 $261 6.2831853071796004 $98 $262 forward 7 unknown #
loop $-1 $263 $100 $252 #
vertex $-1 $101 $264 #
ellipse-curve $-1 58.989714056939086 18.003994150358231 8.7796523250159115 -0.73135370988377701 0 -0.68199835119979291 0.68199835119979291 0 -0.73135370988377701 1 I I #
face $-1 $-1 $117 $15 $-1 $265 reversed single #
loop $-1 $-1 $186 $102 #
plane-surface $-1 0 27.699873066676247 0 0 -1 0 0 0 -1 forward_v I I I I #
coedge $-1 $266 $184 $187 $267 forward $103 $-1 #
coedge $-1 $190 $105 $106 $178 reversed $63 $-1 #
coedge $-1 $184 $266 $105 $176 reversed $103 $-1 #
edge $-1 $191 -13.81975722279763 $268 13.81975722279763 $175 $269 forward 7 unknown #
coedge $-1 $107 $106 $266 $270 forward $41 $-1 #
edge $-1 $182 -63.689687795648062 $268 63.689687795648062 $174 $271 forward 7 unknown #
coedge $-1 $187 $186 $107 $180 reversed $171 $-1 #
edge $-1 $272 -63.689687795648062 $181 63.689687795648062 $179 $273 forward 7 unknown #
vertex $-1 $109 $274 #
vertex $-1 $193 $275 #
straight-curve $-1 63.689687795648062 0 -13.81975722279763 0 -1 0 I I #
coedge $-1 $173 $175 $110 $185 reversed $103 $-1 #
edge $-1 $188 -27.699873066676247 $191 27.699873066676247 $184 $276 forward 7 unknown #
coedge $-1 $179 $111 $116 $194 forward $171 $-1 #
coedge $-1 $111 $179 $173 $267 reversed $171 $-1 #
vertex $-1 $112 $277 #
straight-curve $-1 0 27.699873066676247 13.81975722279763 -1 0 0 I I #
coedge $-1 $113 $174 $115 $193 reversed $63 $-1 #
vertex $-1 $185 $278 #
straight-curve $-1 0 -27.699873066676247 13.81975722279763 1 0 0 I I #
edge $-1 $118 -13.81975722279763 $182 13.81975722279763 $115 $279 forward 7 unknown #
edge $-1 $119 -13.81975722279763 $181 13.81975722279763 $116 $280 forward 7 unknown #
point $-1 63.689687795648062 -27.699873066676247 13.81975722279763 #
point $-1 63.689687795648062 27.699873066676247 13.81975722279763 #
face $-1 $281 $282 $16 $-1 $283 reversed single #
loop $-1 $-1 $284 $121 #
plane-surface $-1 0 0 -13.81975722279763 0 0 1 1 0 0 forward_v I I I I #
coedge $-1 $285 $124 $203 $286 forward $71 $-1 #
coedge $-1 $124 $285 $287 $288 forward $71 $-1 #
edge $-1 $289 -27.699873066676247 $204 27.699873066676247 $124 $290 forward 7 unknown #
coedge $-1 $126 $291 $200 $286 reversed $122 $-1 #
vertex $-1 $286 $292 #
straight-curve $-1 -47.025912515199202 -27.699873066676247 5.7531851340776186 0 0 -1 I I #
coedge $-1 $293 $294 $128 $207 forward $282 $-1 #
edge $-1 $214 -27.699873066676247 $211 27.699873066676247 $206 $295 forward 7 unknown #
coedge $-1 $287 $129 $133 $216 forward $210 $-1 #
coedge $-1 $129 $296 $293 $297 reversed $210 $-1 #
loop $-1 $-1 $208 $281 #
vertex $-1 $297 $298 #
straight-curve $-1 -27.678900077711816 27.699873066676247 9.192983313512844 1 0 0 I I #
coedge $-1 $299 $131 $294 $300 forward $122 $-1 #
vertex $-1 $300 $301 #
straight-curve $-1 -27.678900077711816 -27.699873066676247 9.192983313512844 -1 0 0 I I #
edge $-1 $134 3.4397981794352255 $289 8.0665720887200116 $208 $302 forward 7 unknown #
point $-1 -47.025912515199202 27.699873066676247 9.192983313512844 #
point $-1 -47.025912515199202 -27.699873066676247 9.192983313512844 #
face $-1 $303 $304 $17 $-1 $305 forward single #
loop $-1 $-1 $306 $137 #
plane-surface $-1 -55.357800155423632 0 9.192983313512844 0 0 1 1 0 0 forward_v I I I I #
coedge $-1 $143 $307 $140 $225 forward $138 $-1 #
coedge $-1 $224 $140 $308 $309 reversed $79 $-1 #
coedge $-1 $140 $223 $141 $227 forward $79 $-1 #
edge $-1 $310 -28.701416512198868 $228 -19.301469034780922 $222 $311 forward 7 unknown #
coedge $-1 $142 $141 $232 $312 reversed $49 $-1 #
edge $-1 $313 -127.37937559129614 $228 -113.59642807994032 $224 $314 forward 7 unknown #
vertex $-1 $144 $315 #
straight-curve $-1 54.289740318230109 8.1266877367822588 13.819757222797634 0 1 0 I I #
vertex $-1 $312 $316 #
straight-curve $-1 -23.182836334475056 20.338152386083188 96.898926328607658 0.68199835119979291 0 -0.73135370988377701 I I #
coedge $-1 $308 $146 $226 $312 forward $234 $-1 #
coedge $-1 $146 $317 $148 $237 reversed $234 $-1 #
loop $-1 $-1 $308 $318 #
straight-curve $-1 63.689687795648062 20.338152386083188 91.885725229365377 0 0 -1 I I #
coedge $-1 $319 $148 $320 $321 forward $138 $-1 #
edge $-1 $150 20.338152386083188 $322 27.699873066676247 $233 $323 forward 7 unknown #
point $-1 54.289740318230116 20.338152386083188 13.819757222797634 #
point $-1 63.689687795648062 20.338152386083188 13.81975722279763 #
face $-1 $324 $325 $18 $-1 $326 forward single #
loop $-1 $-1 $327 $152 #
plane-surface $-1 69.976542566898388 12.168598561045847 183.77145045873075 0 1 0 0.73135370988377701 0 0.68199835119979291 forward_v I I I I #
loop $-1 $-1 $328 $86 #
coedge $-1 $245 $155 $329 $330 forward $87 $-1 #
coedge $-1 $155 $244 $331 $332 reversed $87 $-1 #
coedge $-1 $333 $334 $155 $247 forward $325 $-1 #
edge $-1 $335 19.301469034780922 $336 28.701416512198868 $246 $337 forward 7 unknown #
edge $-1 $338 1 $338 0 $156 $-1 forward 7 unknown #
vertex $-1 $157 $339 #
ellipse-curve $-1 58.226286758350142 14.502756796770804 8.0677448692086351 0.73135370988377701 0 0.68199835119979291 0.68199835119979291 0 -0.73135370988377701 1 I I #
point $-1 59.671712408138902 14.502756796770804 8.0482986151321541 #
face $-1 $340 $167 $19 $-1 $341 forward single #
loop $-1 $-1 $342 $160 #
plane-surface $-1 69.976542566898388 20.338152386083188 183.77145045873075 0 -1 0 -0.73135370988377701 0 -0.68199835119979291 forward_v I I I I #
loop $-1 $-1 $343 $94 #
coedge $-1 $256 $256 $257 $344 forward $161 $-1 #
coedge $-1 $257 $257 $256 $344 reversed $163 $-1 #
coedge $-1 $258 $258 $164 $259 forward $263 $-1 #
edge $-1 $345 0 $345 6.2831853071796004 $258 $346 forward 7 unknown #
edge $-1 $347 1 $347 0 $165 $-1 forward 7 unknown #
vertex $-1 $166 $348 #
ellipse-curve $-1 58.226286758350142 18.003994150358231 8.0677448692086351 0.73135370988377701 0 0.68199835119979291 0.68199835119979291 0 -0.73135370988377701 1 I I #
loop $-1 $349 $258 $252 #
point $-1 59.671712408138902 18.003994150358231 8.0482986151321541 #
plane-surface $-1 63.689687795648062 0 0 -1 0 0 0 0 1 forward_v I I I I #
coedge $-1 $175 $173 $177 $270 reversed $103 $-1 #
edge $-1 $188 -13.81975722279763 $272 13.81975722279763 $187 $350 forward 7 unknown #
vertex $-1 $270 $351 #
straight-curve $-1 -63.689687795648062 -27.699873066676247 0 0 0 -1 I I #
edge $-1 $268 -27.699873066676247 $272 27.699873066676247 $266 $352 forward 7 unknown #
straight-curve $-1 0 -27.699873066676247 -13.81975722279763 -1 0 0 I I #
vertex $-1 $180 $353 #
straight-curve $-1 0 27.699873066676247 -13.81975722279763 1 0 0 I I #
point $-1 63.689687795648062 27.699873066676247 -13.81975722279763 #
point $-1 63.689687795648062 -27.699873066676247 -13.81975722279763 #
straight-curve $-1 -63.689687795648062 0 13.81975722279763 0 -1 0 I I #
point $-1 -63.689687795648062 27.699873066676247 13.81975722279763 #
point $-1 -63.689687795648062 -27.699873066676247 13.81975722279763 #
straight-curve $-1 63.689687795648062 -27.699873066676247 0 0 0 -1 I I #
straight-curve $-1 63.689687795648062 27.699873066676247 0 0 0 -1 I I #
face $-1 $354 $210 $16 $-1 $355 reversed single #
loop $-1 $-1 $206 $197 #
plane-surface $-1 -63.689687795648062 0 0 1 0 0 0 0 -1 forward_v I I I I #
coedge $-1 $356 $357 $358 $359 forward $198 $-1 #
coedge $-1 $201 $200 $360 $361 forward $71 $-1 #
edge $-1 $204 -47.025912515199202 $362 63.689687795648062 $203 $363 forward 7 unknown #
coedge $-1 $364 $208 $201 $288 reversed $210 $-1 #
edge $-1 $365 -63.689687795648062 $289 47.025912515199202 $287 $366 forward 7 unknown #
vertex $-1 $202 $367 #
straight-curve $-1 -47.025912515199202 0 13.81975722279763 0 -1 0 I I #
coedge $-1 $203 $299 $368 $369 reversed $122 $-1 #
point $-1 -47.025912515199202 -27.699873066676247 13.81975722279763 #
coedge $-1 $370 $206 $209 $297 forward $282 $-1 #
coedge $-1 $206 $370 $213 $300 reversed $282 $-1 #
straight-curve $-1 -63.689687795648062 0 9.192983313512844 0 1 0 I I #
coedge $-1 $209 $364 $357 $371 reversed $210 $-1 #
edge $-1 $211 -9.192983313512844 $372 13.81975722279763 $209 $373 forward 7 unknown #
point $-1 -63.689687795648062 27.699873066676247 9.192983313512844 #
coedge $-1 $291 $213 $356 $374 reversed $122 $-1 #
edge $-1 $214 -9.192983313512844 $375 13.81975722279763 $294 $376 forward 7 unknown #
point $-1 -63.689687795648062 -27.699873066676247 9.192983313512844 #
straight-curve $-1 -47.025912515199202 27.699873066676247 5.7531851340776186 0 0 1 I I #
face $-1 $377 $378 $17 $-1 $379 reversed single #
loop $-1 $-1 $380 $219 #
plane-surface $-1 -47.025912515199202 0 11.506370268155237 -1 0 0 0 0 1 forward_v I I I I #
coedge $-1 $381 $382 $383 $384 reversed $220 $-1 #
coedge $-1 $222 $385 $386 $387 forward $138 $-1 #
coedge $-1 $386 $232 $223 $309 forward $234 $-1 #
edge $-1 $313 -88.146177802131177 $310 -78.065968006567743 $308 $388 forward 7 unknown #
vertex $-1 $309 $389 #
straight-curve $-1 34.988271283449194 12.168598561045847 13.819757222797634 -1 0 0 I I #
edge $-1 $230 -12.211464649300929 $313 -4.0419108242635886 $232 $390 forward 7 unknown #
vertex $-1 $312 $391 #
straight-curve $-1 -23.182836334475056 12.168598561045847 96.898926328607658 -0.68199835119979291 0 0.73135370988377701 I I #
point $-1 54.289740318230116 12.168598561045847 13.819757222797634 #
point $-1 63.689687795648055 20.338152386083188 3.7395474272342 #
coedge $-1 $233 $392 $393 $394 reversed $234 $-1 #
face $-1 $-1 $234 $17 $-1 $395 reversed single #
coedge $-1 $385 $236 $396 $397 forward $138 $-1 #
coedge $-1 $393 $398 $236 $321 reversed $399 $-1 #
edge $-1 $322 -63.689687795648062 $400 47.025912515199202 $320 $401 forward 7 unknown #
vertex $-1 $237 $402 #
straight-curve $-1 63.689687795648062 0 13.81975722279763 0 1 0 I I #
face $-1 $403 $404 $18 $-1 $405 forward single #
loop $-1 $-1 $406 $240 #
plane-surface $-1 0 0 13.81975722279763 0 0 1 1 0 0 forward_v I I I I #
coedge $-1 $407 $408 $406 $409 reversed $241 $-1 #
coedge $-1 $410 $329 $334 $411 reversed $243 $-1 #
coedge $-1 $328 $412 $244 $330 reversed $243 $-1 #
edge $-1 $335 113.59642807994032 $413 127.37937559129614 $244 $414 forward 7 unknown #
coedge $-1 $415 $416 $245 $332 forward $417 $-1 #
edge $-1 $336 78.065968006567743 $413 88.146177802131177 $331 $418 forward 7 unknown #
coedge $-1 $419 $246 $416 $420 forward $325 $-1 #
coedge $-1 $246 $406 $328 $411 forward $325 $-1 #
vertex $-1 $411 $421 #
vertex $-1 $420 $422 #
straight-curve $-1 34.988271283449194 20.338152386083188 13.819757222797634 1 0 0 I I #
vertex $-1 $248 $423 #
point $-1 58.908285109549936 14.502756796770804 7.3363911593248581 #
face $-1 $424 $425 $19 $-1 $426 forward single #
plane-surface $-1 -23.182836334475056 16.253375473564518 96.898926328607658 0.73135370988377701 0 0.68199835119979291 0.68199835119979291 0 -0.73135370988377701 forward_v I I I I #
coedge $-1 $427 $428 $429 $430 reversed $253 $-1 #
coedge $-1 $343 $343 $-1 $431 forward $255 $-1 #
edge $-1 $432 0 $432 6.2831853071796004 $256 $433 forward 7 unknown #
vertex $-1 $259 $434 #
ellipse-curve $-1 58.989714056939086 14.502756796770804 8.7796523250159115 -0.73135370988377701 0 -0.68199835119979291 0.68199835119979291 0 -0.73135370988377701 1 I I #
vertex $-1 $260 $435 #
point $-1 58.908285109549936 18.003994150358231 7.3363911593248581 #
loop $-1 $-1 $436 $252 #
straight-curve $-1 -63.689687795648062 27.699873066676247 0 0 0 -1 I I #
point $-1 -63.689687795648062 -27.699873066676247 -13.81975722279763 #
straight-curve $-1 -63.689687795648062 0 -13.81975722279763 0 1 0 I I #
point $-1 -63.689687795648062 27.699873066676247 -13.81975722279763 #
face $-1 $-1 $437 $16 $-1 $438 reversed single #
plane-surface $-1 0 27.699873066676247 0 0 -1 0 0 0 -1 forward_v I I I I #
coedge $-1 $439 $284 $299 $374 forward $198 $-1 #
coedge $-1 $284 $439 $296 $371 forward $198 $-1 #
coedge $-1 $440 $368 $284 $359 reversed $437 $-1 #
edge $-1 $441 -27.699873066676247 $442 27.699873066676247 $358 $443 forward 7 unknown #
coedge $-1 $368 $440 $285 $361 reversed $437 $-1 #
edge $-1 $362 -27.699873066676247 $365 27.699873066676247 $360 $444 forward 7 unknown #
vertex $-1 $361 $445 #
straight-curve $-1 0 -27.699873066676247 13.81975722279763 1 0 0 I I #
coedge $-1 $296 $287 $440 $446 forward $210 $-1 #
vertex $-1 $361 $447 #
straight-curve $-1 0 27.699873066676247 13.81975722279763 -1 0 0 I I #
point $-1 -47.025912515199202 27.699873066676247 13.81975722279763 #
coedge $-1 $358 $360 $291 $369 forward $437 $-1 #
edge $-1 $362 -13.81975722279763 $442 13.81975722279763 $368 $448 forward 7 unknown #
coedge $-1 $294 $293 $439 $449 reversed $282 $-1 #
edge $-1 $372 -63.689687795648062 $441 63.689687795648062 $296 $450 forward 7 unknown #
vertex $-1 $371 $451 #
straight-curve $-1 -63.689687795648062 27.699873066676247 0 0 0 -1 I I #
edge $-1 $442 -63.689687795648062 $375 63.689687795648062 $299 $452 forward 7 unknown #
vertex $-1 $449 $453 #
straight-curve $-1 -63.689687795648062 -27.699873066676247 0 0 0 -1 I I #
face $-1 $454 $455 $17 $-1 $456 reversed single #
loop $-1 $-1 $457 $303 #
plane-surface $-1 0 -27.699873066676247 0 0 1 0 0 0 1 forward_v I I I I #
coedge $-1 $396 $383 $457 $458 reversed $304 $-1 #
coedge $-1 $459 $306 $460 $461 reversed $220 $-1 #
coedge $-1 $306 $459 $462 $463 reversed $220 $-1 #
coedge $-1 $380 $464 $306 $384 forward $304 $-1 #
edge $-1 $465 -27.699873066676247 $466 27.699873066676247 $383 $467 forward 7 unknown #
coedge $-1 $307 $319 $468 $469 forward $138 $-1 #
coedge $-1 $470 $308 $307 $387 reversed $234 $-1 #
edge $-1 $471 -27.699873066676247 $310 12.168598561045847 $386 $323 forward 7 unknown #
straight-curve $-1 63.689687795648062 12.168598561045847 91.885725229365377 0 0 1 I I #
point $-1 63.689687795648062 12.168598561045847 13.81975722279763 #
straight-curve $-1 63.689687795648055 8.1266877367822588 3.7395474272342071 0 -1 0 I I #
point $-1 63.689687795648055 12.168598561045847 3.7395474272342 #
coedge $-1 $317 $470 $472 $473 reversed $234 $-1 #
coedge $-1 $474 $320 $317 $394 forward $399 $-1 #
edge $-1 $322 -13.81975722279763 $475 13.81975722279763 $317 $476 forward 7 unknown #
plane-surface $-1 63.689687795648062 0 0 -1 0 0 0 0 1 forward_v I I I I #
coedge $-1 $464 $380 $319 $397 reversed $304 $-1 #
edge $-1 $400 -27.699873066676247 $477 27.699873066676247 $319 $478 forward 7 unknown #
coedge $-1 $320 $460 $464 $479 forward $399 $-1 #
loop $-1 $-1 $398 $480 #
vertex $-1 $397 $481 #
straight-curve $-1 0 27.699873066676247 13.81975722279763 -1 0 0 I I #
point $-1 63.689687795648062 27.699873066676247 13.81975722279763 #
face $-1 $482 $483 $18 $-1 $484 forward single #
loop $-1 $-1 $485 $324 #
plane-surface $-1 -55.357800155423632 0 9.192983313512844 0 0 1 1 0 0 forward_v I I I I #
coedge $-1 $334 $486 $327 $409 forward $325 $-1 #
coedge $-1 $408 $327 $487 $488 reversed $241 $-1 #
coedge $-1 $327 $407 $410 $489 forward $241 $-1 #
edge $-1 $490 -28.701416512198868 $491 -19.301469034780922 $406 $492 forward 7 unknown #
coedge $-1 $412 $328 $408 $489 reversed $243 $-1 #
edge $-1 $491 4.0419108242635886 $335 12.211464649300929 $334 $493 forward 7 unknown #
coedge $-1 $329 $410 $415 $494 reversed $243 $-1 #
vertex $-1 $494 $495 #
straight-curve $-1 -23.182836334475056 20.338152386083188 96.898926328607658 0.68199835119979291 0 -0.73135370988377701 I I #
coedge $-1 $487 $331 $412 $494 forward $417 $-1 #
coedge $-1 $331 $496 $333 $420 reversed $417 $-1 #
loop $-1 $-1 $487 $497 #
straight-curve $-1 63.689687795648062 20.338152386083188 91.885725229365377 0 0 -1 I I #
coedge $-1 $498 $333 $499 $500 forward $325 $-1 #
edge $-1 $336 20.338152386083188 $501 27.699873066676247 $416 $502 forward 7 unknown #
point $-1 54.289740318230116 20.338152386083188 13.819757222797634 #
point $-1 63.689687795648062 20.338152386083188 13.81975722279763 #
point $-1 57.494933048466365 14.502756796770804 7.3857465180088404 #
face $-1 $503 $504 $19 $-1 $505 forward single #
loop $-1 $-1 $506 $340 #
plane-surface $-1 69.976542566898388 12.168598561045847 183.77145045873075 0 1 0 0.73135370988377701 0 0.68199835119979291 forward_v I I I I #
coedge $-1 $428 $342 $507 $508 forward $253 $-1 #
coedge $-1 $342 $427 $509 $510 reversed $253 $-1 #
coedge $-1 $511 $512 $342 $430 forward $504 $-1 #
edge $-1 $513 19.301469034780922 $514 28.701416512198868 $429 $515 forward 7 unknown #
edge $-1 $516 1 $516 0 $343 $-1 forward 7 unknown #
vertex $-1 $344 $517 #
ellipse-curve $-1 58.226286758350142 14.502756796770804 8.0677448692086351 0.73135370988377701 0 0.68199835119979291 0.68199835119979291 0 -0.73135370988377701 1 I I #
point $-1 59.671712408138902 14.502756796770804 8.0482986151321541 #
point $-1 57.494933048466365 18.003994150358231 7.3857465180088404 #
coedge $-1 $518 $507 $512 $519 reversed $349 $-1 #
loop $-1 $-1 $368 $354 #
plane-surface $-1 63.689687795648062 0 0 -1 0 0 0 0 1 forward_v I I I I #
coedge $-1 $357 $356 $370 $449 forward $198 $-1 #
coedge $-1 $360 $358 $364 $446 reversed $437 $-1 #
vertex $-1 $359 $520 #
vertex $-1 $369 $521 #
straight-curve $-1 63.689687795648062 0 -13.81975722279763 0 -1 0 I I #
straight-curve $-1 63.689687795648062 0 13.81975722279763 0 1 0 I I #
point $-1 63.689687795648062 -27.699873066676247 13.81975722279763 #
edge $-1 $365 -13.81975722279763 $441 13.81975722279763 $440 $522 forward 7 unknown #
point $-1 63.689687795648062 27.699873066676247 13.81975722279763 #
straight-curve $-1 63.689687795648062 -27.699873066676247 0 0 0 -1 I I #
edge $-1 $375 -27.699873066676247 $372 27.699873066676247 $370 $523 forward 7 unknown #
straight-curve $-1 0 27.699873066676247 -13.81975722279763 1 0 0 I I #
point $-1 -63.689687795648062 27.699873066676247 -13.81975722279763 #
straight-curve $-1 0 -27.699873066676247 -13.81975722279763 -1 0 0 I I #
point $-1 -63.689687795648062 -27.699873066676247 -13.81975722279763 #
face $-1 $480 $524 $17 $-1 $525 reversed single #
loop $-1 $-1 $472 $377 #
plane-surface $-1 0 0 -13.81975722279763 0 0 1 1 0 0 forward_v I I I I #
coedge $-1 $462 $468 $380 $458 forward $378 $-1 #
edge $-1 $477 -8.0665720887200116 $466 -3.4397981794352255 $457 $526 forward 7 unknown #
coedge $-1 $382 $381 $527 $528 reversed $220 $-1 #
coedge $-1 $398 $529 $381 $461 forward $399 $-1 #
edge $-1 $530 -36.010787717936246 $465 -19.347012437487386 $460 $531 forward 7 unknown #
coedge $-1 $532 $457 $382 $463 forward $378 $-1 #
edge $-1 $466 19.347012437487386 $533 36.010787717936246 $462 $534 forward 7 unknown #
coedge $-1 $383 $396 $398 $479 reversed $304 $-1 #
vertex $-1 $461 $535 #
vertex $-1 $463 $536 #
straight-curve $-1 -47.025912515199202 0 9.192983313512844 0 -1 0 I I #
coedge $-1 $457 $537 $385 $469 reversed $378 $-1 #
edge $-1 $477 -47.025912515199202 $471 63.689687795648062 $468 $538 forward 7 unknown #
coedge $-1 $392 $386 $537 $539 forward $234 $-1 #
vertex $-1 $387 $540 #
coedge $-1 $541 $542 $392 $473 forward $455 $-1 #
edge $-1 $475 -27.699873066676247 $543 27.699873066676247 $392 $544 forward 7 unknown #
coedge $-1 $529 $393 $542 $545 reversed $399 $-1 #
vertex $-1 $473 $546 #
straight-curve $-1 63.689687795648062 27.699873066676247 0 0 0 -1 I I #
vertex $-1 $469 $547 #
straight-curve $-1 -47.025912515199202 0 13.81975722279763 0 -1 0 I I #
edge $-1 $465 3.4397981794352255 $400 8.0665720887200116 $398 $548 forward 7 unknown #
face $-1 $318 $399 $17 $-1 $549 reversed single #
point $-1 -47.025912515199202 27.699873066676247 13.81975722279763 #
face $-1 $550 $551 $18 $-1 $552 reversed single #
loop $-1 $-1 $553 $403 #
plane-surface $-1 -47.025912515199202 0 11.506370268155237 -1 0 0 0 0 1 forward_v I I I I #
coedge $-1 $554 $555 $556 $557 reversed $404 $-1 #
coedge $-1 $406 $558 $559 $560 forward $325 $-1 #
coedge $-1 $559 $415 $407 $488 forward $417 $-1 #
edge $-1 $561 -88.146177802131177 $490 -78.065968006567743 $487 $562 forward 7 unknown #
edge $-1 $561 -127.37937559129614 $491 -113.59642807994032 $408 $563 forward 7 unknown #
vertex $-1 $488 $564 #
vertex $-1 $411 $565 #
straight-curve $-1 34.988271283449194 12.168598561045847 13.819757222797634 -1 0 0 I I #
straight-curve $-1 54.289740318230109 8.1266877367822588 13.819757222797634 0 1 0 I I #
edge $-1 $413 -12.211464649300929 $561 -4.0419108242635886 $415 $566 forward 7 unknown #
point $-1 63.689687795648055 20.338152386083188 3.7395474272342 #
coedge $-1 $416 $567 $568 $569 reversed $417 $-1 #
face $-1 $-1 $417 $18 $-1 $570 reversed single #
coedge $-1 $558 $419 $571 $572 forward $325 $-1 #
coedge $-1 $568 $573 $419 $500 reversed $574 $-1 #
edge $-1 $501 -63.689687795648062 $575 47.025912515199202 $499 $576 forward 7 unknown #
vertex $-1 $420 $577 #
straight-curve $-1 63.689687795648062 0 13.81975722279763 0 1 0 I I #
face $-1 $578 $579 $19 $-1 $580 forward single #
loop $-1 $-1 $581 $424 #
plane-surface $-1 0 0 13.81975722279763 0 0 1 1 0 0 forward_v I I I I #
coedge $-1 $582 $583 $581 $584 reversed $425 $-1 #
coedge $-1 $436 $585 $427 $508 reversed $349 $-1 #
edge $-1 $513 113.59642807994032 $586 127.37937559129614 $427 $587 forward 7 unknown #
coedge $-1 $588 $589 $428 $510 forward $590 $-1 #
edge $-1 $514 78.065968006567743 $586 88.146177802131177 $509 $591 forward 7 unknown #
coedge $-1 $592 $429 $589 $593 forward $504 $-1 #
coedge $-1 $429 $581 $436 $519 forward $504 $-1 #
vertex $-1 $519 $594 #
vertex $-1 $593 $595 #
straight-curve $-1 34.988271283449194 20.338152386083188 13.819757222797634 1 0 0 I I #
vertex $-1 $431 $596 #
point $-1 58.908285109549936 14.502756796770804 7.3363911593248581 #
coedge $-1 $585 $436 $583 $597 reversed $349 $-1 #
edge $-1 $598 4.0419108242635886 $513 12.211464649300929 $512 $599 forward 7 unknown #
point $-1 63.689687795648062 27.699873066676247 -13.81975722279763 #
point $-1 63.689687795648062 -27.699873066676247 -13.81975722279763 #
straight-curve $-1 63.689687795648062 27.699873066676247 0 0 0 -1 I I #
straight-curve $-1 -63.689687795648062 0 -13.81975722279763 0 1 0 I I #
loop $-1 $-1 $527 $454 #
plane-surface $-1 -63.689687795648062 0 0 1 0 0 0 0 -1 forward_v I I I I #
straight-curve $-1 -47.025912515199202 -27.699873066676247 5.7531851340776186 0 0 -1 I I #
coedge $-1 $600 $601 $459 $528 forward $524 $-1 #
edge $-1 $533 -27.699873066676247 $530 27.699873066676247 $527 $602 forward 7 unknown #
coedge $-1 $460 $474 $600 $603 reversed $399 $-1 #
vertex $-1 $603 $604 #
straight-curve $-1 -27.678900077711816 27.699873066676247 9.192983313512844 1 0 0 I I #
coedge $-1 $605 $462 $601 $606 forward $378 $-1 #
vertex $-1 $606 $607 #
straight-curve $-1 -27.678900077711816 -27.699873066676247 9.192983313512844 -1 0 0 I I #
point $-1 -47.025912515199202 27.699873066676247 9.192983313512844 #
point $-1 -47.025912515199202 -27.699873066676247 9.192983313512844 #
coedge $-1 $468 $605 $470 $539 reversed $378 $-1 #
straight-curve $-1 0 -27.699873066676247 13.81975722279763 1 0 0 I I #
edge $-1 $471 -13.81975722279763 $543 13.81975722279763 $470 $608 forward 7 unknown #
point $-1 63.689687795648062 -27.699873066676247 13.81975722279763 #
coedge $-1 $609 $472 $605 $610 forward $455 $-1 #
coedge $-1 $472 $609 $474 $545 forward $455 $-1 #
vertex $-1 $539 $611 #
straight-curve $-1 63.689687795648062 0 -13.81975722279763 0 -1 0 I I #
edge $-1 $612 -63.689687795648062 $475 63.689687795648062 $474 $613 forward 7 unknown #
point $-1 63.689687795648062 27.699873066676247 -13.81975722279763 #
point $-1 -47.025912515199202 -27.699873066676247 13.81975722279763 #
straight-curve $-1 -47.025912515199202 27.699873066676247 5.7531851340776186 0 0 1 I I #
plane-surface $-1 0 27.699873066676247 0 0 -1 0 0 0 -1 forward_v I I I I #
face $-1 $614 $615 $18 $-1 $616 reversed single #
loop $-1 $-1 $617 $482 #
plane-surface $-1 0 -27.699873066676247 0 0 1 0 0 0 1 forward_v I I I I #
coedge $-1 $571 $556 $617 $618 reversed $483 $-1 #
coedge $-1 $619 $485 $620 $621 reversed $404 $-1 #
coedge $-1 $485 $619 $622 $623 reversed $404 $-1 #
coedge $-1 $553 $624 $485 $557 forward $483 $-1 #
edge $-1 $625 -27.699873066676247 $626 27.699873066676247 $556 $627 forward 7 unknown #
coedge $-1 $486 $498 $628 $629 forward $325 $-1 #
coedge $-1 $630 $487 $486 $560 reversed $417 $-1 #
edge $-1 $631 -27.699873066676247 $490 12.168598561045847 $559 $502 forward 7 unknown #
vertex $-1 $494 $632 #
straight-curve $-1 63.689687795648062 12.168598561045847 91.885725229365377 0 0 1 I I #
straight-curve $-1 -23.182836334475056 12.168598561045847 96.898926328607658 -0.68199835119979291 0 0.73135370988377701 I I #
point $-1 63.689687795648062 12.168598561045847 13.81975722279763 #
point $-1 54.289740318230116 12.168598561045847 13.819757222797634 #
straight-curve $-1 63.689687795648055 8.1266877367822588 3.7395474272342071 0 -1 0 I I #
coedge $-1 $496 $630 $633 $634 reversed $417 $-1 #
coedge $-1 $635 $499 $496 $569 forward $574 $-1 #
edge $-1 $501 -13.81975722279763 $636 13.81975722279763 $496 $637 forward 7 unknown #
plane-surface $-1 63.689687795648062 0 0 -1 0 0 0 0 1 forward_v I I I I #
coedge $-1 $624 $553 $498 $572 reversed $483 $-1 #
edge $-1 $575 -27.699873066676247 $638 27.699873066676247 $498 $639 forward 7 unknown #
coedge $-1 $499 $620 $624 $640 forward $574 $-1 #
loop $-1 $-1 $573 $641 #
vertex $-1 $572 $642 #
straight-curve $-1 0 27.699873066676247 13.81975722279763 -1 0 0 I I #
point $-1 63.689687795648062 27.699873066676247 13.81975722279763 #
face $-1 $643 $644 $19 $-1 $645 forward single #
loop $-1 $-1 $646 $503 #
plane-surface $-1 -55.357800155423632 0 9.192983313512844 0 0 1 1 0 0 forward_v I I I I #
coedge $-1 $512 $647 $506 $584 forward $504 $-1 #
coedge $-1 $583 $506 $648 $649 reversed $425 $-1 #
coedge $-1 $506 $582 $518 $597 forward $425 $-1 #
edge $-1 $650 -28.701416512198868 $598 -19.301469034780922 $581 $651 forward 7 unknown #
coedge $-1 $507 $518 $588 $652 reversed $349 $-1 #
vertex $-1 $652 $653 #
straight-curve $-1 -23.182836334475056 20.338152386083188 96.898926328607658 0.68199835119979291 0 -0.73135370988377701 I I #
coedge $-1 $648 $509 $585 $652 forward $590 $-1 #
coedge $-1 $509 $654 $511 $593 reversed $590 $-1 #
loop $-1 $-1 $648 $655 #
straight-curve $-1 63.689687795648062 20.338152386083188 91.885725229365377 0 0 -1 I I #
coedge $-1 $656 $511 $657 $658 forward $504 $-1 #
edge $-1 $514 20.338152386083188 $659 27.699873066676247 $589 $660 forward 7 unknown #
point $-1 54.289740318230116 20.338152386083188 13.819757222797634 #
point $-1 63.689687795648062 20.338152386083188 13.81975722279763 #
point $-1 57.494933048466365 14.502756796770804 7.3857465180088404 #
edge $-1 $661 -127.37937559129614 $598 -113.59642807994032 $583 $662 forward 7 unknown #
vertex $-1 $519 $663 #
straight-curve $-1 54.289740318230109 8.1266877367822588 13.819757222797634 0 1 0 I I #
coedge $-1 $664 $527 $529 $603 forward $524 $-1 #
coedge $-1 $527 $664 $532 $606 reversed $524 $-1 #
straight-curve $-1 -63.689687795648062 0 9.192983313512844 0 1 0 I I #
edge $-1 $530 -9.192983313512844 $612 13.81975722279763 $529 $665 forward 7 unknown #
point $-1 -63.689687795648062 27.699873066676247 9.192983313512844 #
coedge $-1 $537 $532 $541 $610 reversed $378 $-1 #
edge $-1 $533 -9.192983313512844 $666 13.81975722279763 $601 $667 forward 7 unknown #
point $-1 -63.689687795648062 -27.699873066676247 9.192983313512844 #
straight-curve $-1 63.689687795648062 -27.699873066676247 0 0 0 -1 I I #
coedge $-1 $542 $541 $664 $668 forward $455 $-1 #
edge $-1 $543 -63.689687795648062 $666 63.689687795648062 $605 $669 forward 7 unknown #
point $-1 63.689687795648062 -27.699873066676247 -13.81975722279763 #
vertex $-1 $545 $670 #
straight-curve $-1 0 27.699873066676247 -13.81975722279763 1 0 0 I I #
face $-1 $641 $671 $18 $-1 $672 reversed single #
loop $-1 $-1 $633 $550 #
plane-surface $-1 0 0 -13.81975722279763 0 0 1 1 0 0 forward_v I I I I #
coedge $-1 $622 $628 $553 $618 forward $551 $-1 #
edge $-1 $638 -8.0665720887200116 $626 -3.4397981794352255 $617 $673 forward 7 unknown #
coedge $-1 $555 $554 $674 $675 reversed $404 $-1 #
coedge $-1 $573 $676 $554 $621 forward $574 $-1 #
edge $-1 $677 -36.010787717936246 $625 -19.347012437487386 $620 $678 forward 7 unknown #
coedge $-1 $679 $617 $555 $623 forward $551 $-1 #
edge $-1 $626 19.347012437487386 $680 36.010787717936246 $622 $681 forward 7 unknown #
coedge $-1 $556 $571 $573 $640 reversed $483 $-1 #
vertex $-1 $621 $682 #
vertex $-1 $623 $683 #
straight-curve $-1 -47.025912515199202 0 9.192983313512844 0 -1 0 I I #
coedge $-1 $617 $684 $558 $629 reversed $551 $-1 #
edge $-1 $638 -47.025912515199202 $631 63.689687795648062 $628 $685 forward 7 unknown #
coedge $-1 $567 $559 $684 $686 forward $417 $-1 #
vertex $-1 $560 $687 #
point $-1 63.689687795648055 12.168598561045847 3.7395474272342 #
coedge $-1 $688 $689 $567 $634 forward $615 $-1 #
edge $-1 $636 -27.699873066676247 $690 27.699873066676247 $567 $691 forward 7 unknown #
coedge $-1 $676 $568 $689 $692 reversed $574 $-1 #
vertex $-1 $634 $693 #
straight-curve $-1 63.689687795648062 27.699873066676247 0 0 0 -1 I I #
vertex $-1 $629 $694 #
straight-curve $-1 -47.025912515199202 0 13.81975722279763 0 -1 0 I I #
edge $-1 $625 3.4397981794352255 $575 8.0665720887200116 $573 $695 forward 7 unknown #
face $-1 $497 $574 $18 $-1 $696 reversed single #
point $-1 -47.025912515199202 27.699873066676247 13.81975722279763 #
face $-1 $697 $698 $19 $-1 $699 reversed single #
loop $-1 $-1 $700 $578 #
plane-surface $-1 -47.025912515199202 0 11.506370268155237 -1 0 0 0 0 1 forward_v I I I I #
coedge $-1 $701 $702 $703 $704 reversed $579 $-1 #
coedge $-1 $581 $705 $706 $707 forward $504 $-1 #
coedge $-1 $706 $588 $582 $649 forward $590 $-1 #
edge $-1 $661 -88.146177802131177 $650 -78.065968006567743 $648 $708 forward 7 unknown #
vertex $-1 $649 $709 #
straight-curve $-1 34.988271283449194 12.168598561045847 13.819757222797634 -1 0 0 I I #
edge $-1 $586 -12.211464649300929 $661 -4.0419108242635886 $588 $710 forward 7 unknown #
point $-1 63.689687795648055 20.338152386083188 3.7395474272342 #
coedge $-1 $589 $711 $712 $713 reversed $590 $-1 #
face $-1 $-1 $590 $19 $-1 $714 reversed single #
coedge $-1 $705 $592 $715 $716 forward $504 $-1 #
coedge $-1 $712 $717 $592 $658 reversed $718 $-1 #
edge $-1 $659 -63.689687795648062 $719 47.025912515199202 $657 $720 forward 7 unknown #
vertex $-1 $593 $721 #
straight-curve $-1 63.689687795648062 0 13.81975722279763 0 1 0 I I #
vertex $-1 $652 $722 #
straight-curve $-1 -23.182836334475056 12.168598561045847 96.898926328607658 -0.68199835119979291 0 0.73135370988377701 I I #
point $-1 54.289740318230116 12.168598561045847 13.819757222797634 #
coedge $-1 $601 $600 $609 $668 reversed $524 $-1 #
straight-curve $-1 -63.689687795648062 27.699873066676247 0 0 0 -1 I I #
vertex $-1 $668 $723 #
straight-curve $-1 -63.689687795648062 -27.699873066676247 0 0 0 -1 I I #
edge $-1 $666 -27.699873066676247 $612 27.699873066676247 $664 $724 forward 7 unknown #
straight-curve $-1 0 -27.699873066676247 -13.81975722279763 -1 0 0 I I #
point $-1 -63.689687795648062 27.699873066676247 -13.81975722279763 #
loop $-1 $-1 $674 $614 #
plane-surface $-1 -63.689687795648062 0 0 1 0 0 0 0 -1 forward_v I I I I #
straight-curve $-1 -47.025912515199202 -27.699873066676247 5.7531851340776186 0 0 -1 I I #
coedge $-1 $725 $726 $619 $675 forward $671 $-1 #
edge $-1 $680 -27.699873066676247 $677 27.699873066676247 $674 $727 forward 7 unknown #
coedge $-1 $620 $635 $725 $728 reversed $574 $-1 #
vertex $-1 $728 $729 #
straight-curve $-1 -27.678900077711816 27.699873066676247 9.192983313512844 1 0 0 I I #
coedge $-1 $730 $622 $726 $731 forward $551 $-1 #
vertex $-1 $731 $732 #
straight-curve $-1 -27.678900077711816 -27.699873066676247 9.192983313512844 -1 0 0 I I #
point $-1 -47.025912515199202 27.699873066676247 9.192983313512844 #
point $-1 -47.025912515199202 -27.699873066676247 9.192983313512844 #
coedge $-1 $628 $730 $630 $686 reversed $551 $-1 #
straight-curve $-1 0 -27.699873066676247 13.81975722279763 1 0 0 I I #
edge $-1 $631 -13.81975722279763 $690 13.81975722279763 $630 $733 forward 7 unknown #
point $-1 63.689687795648062 -27.699873066676247 13.81975722279763 #
coedge $-1 $734 $633 $730 $735 forward $615 $-1 #
coedge $-1 $633 $734 $635 $692 forward $615 $-1 #
vertex $-1 $686 $736 #
straight-curve $-1 63.689687795648062 0 -13.81975722279763 0 -1 0 I I #
edge $-1 $737 -63.689687795648062 $636 63.689687795648062 $635 $738 forward 7 unknown #
point $-1 63.689687795648062 27.699873066676247 -13.81975722279763 #
point $-1 -47.025912515199202 -27.699873066676247 13.81975722279763 #
straight-curve $-1 -47.025912515199202 27.699873066676247 5.7531851340776186 0 0 1 I I #
plane-surface $-1 0 27.699873066676247 0 0 -1 0 0 0 -1 forward_v I I I I #
face $-1 $739 $740 $19 $-1 $741 reversed single #
loop $-1 $-1 $742 $643 #
plane-surface $-1 0 -27.699873066676247 0 0 1 0 0 0 1 forward_v I I I I #
coedge $-1 $715 $703 $742 $743 reversed $644 $-1 #
coedge $-1 $744 $646 $745 $746 reversed $579 $-1 #
coedge $-1 $646 $744 $747 $748 reversed $579 $-1 #
coedge $-1 $700 $749 $646 $704 forward $644 $-1 #
edge $-1 $750 -27.699873066676247 $751 27.699873066676247 $703 $752 forward 7 unknown #
coedge $-1 $647 $656 $753 $754 forward $504 $-1 #
coedge $-1 $755 $648 $647 $707 reversed $590 $-1 #
edge $-1 $756 -27.699873066676247 $650 12.168598561045847 $706 $660 forward 7 unknown #
straight-curve $-1 63.689687795648062 12.168598561045847 91.885725229365377 0 0 1 I I #
point $-1 63.689687795648062 12.168598561045847 13.81975722279763 #
straight-curve $-1 63.689687795648055 8.1266877367822588 3.7395474272342071 0 -1 0 I I #
coedge $-1 $654 $755 $757 $758 reversed $590 $-1 #
coedge $-1 $759 $657 $654 $713 forward $718 $-1 #
edge $-1 $659 -13.81975722279763 $760 13.81975722279763 $654 $761 forward 7 unknown #
plane-surface $-1 63.689687795648062 0 0 -1 0 0 0 0 1 forward_v I I I I #
coedge $-1 $749 $700 $656 $716 reversed $644 $-1 #
edge $-1 $719 -27.699873066676247 $762 27.699873066676247 $656 $763 forward 7 unknown #
coedge $-1 $657 $745 $749 $764 forward $718 $-1 #
loop $-1 $-1 $717 $765 #
vertex $-1 $716 $766 #
straight-curve $-1 0 27.699873066676247 13.81975722279763 -1 0 0 I I #
point $-1 63.689687795648062 27.699873066676247 13.81975722279763 #
point $-1 63.689687795648055 12.168598561045847 3.7395474272342 #
point $-1 -63.689687795648062 -27.699873066676247 -13.81975722279763 #
straight-curve $-1 -63.689687795648062 0 -13.81975722279763 0 1 0 I I #
coedge $-1 $767 $674 $676 $728 forward $671 $-1 #
coedge $-1 $674 $767 $679 $731 reversed $671 $-1 #
straight-curve $-1 -63.689687795648062 0 9.192983313512844 0 1 0 I I #
edge $-1 $677 -9.192983313512844 $737 13.81975722279763 $676 $768 forward 7 unknown #
point $-1 -63.689687795648062 27.699873066676247 9.192983313512844 #
coedge $-1 $684 $679 $688 $735 reversed $551 $-1 #
edge $-1 $680 -9.192983313512844 $769 13.81975722279763 $726 $770 forward 7 unknown #
point $-1 -63.689687795648062 -27.699873066676247 9.192983313512844 #
straight-curve $-1 63.689687795648062 -27.699873066676247 0 0 0 -1 I I #
coedge $-1 $689 $688 $767 $771 forward $615 $-1 #
edge $-1 $690 -63.689687795648062 $769 63.689687795648062 $730 $772 forward 7 unknown #
point $-1 63.689687795648062 -27.699873066676247 -13.81975722279763 #
vertex $-1 $692 $773 #
straight-curve $-1 0 27.699873066676247 -13.81975722279763 1 0 0 I I #
face $-1 $765 $774 $19 $-1 $775 reversed single #
loop $-1 $-1 $757 $697 #
plane-surface $-1 0 0 -13.81975722279763 0 0 1 1 0 0 forward_v I I I I #
coedge $-1 $747 $753 $700 $743 forward $698 $-1 #
edge $-1 $762 -8.0665720887200116 $751 -3.4397981794352255 $742 $776 forward 7 unknown #
coedge $-1 $702 $701 $777 $778 reversed $579 $-1 #
coedge $-1 $717 $779 $701 $746 forward $718 $-1 #
edge $-1 $780 -36.010787717936246 $750 -19.347012437487386 $745 $781 forward 7 unknown #
coedge $-1 $782 $742 $702 $748 forward $698 $-1 #
edge $-1 $751 19.347012437487386 $783 36.010787717936246 $747 $784 forward 7 unknown #
coedge $-1 $703 $715 $717 $764 reversed $644 $-1 #
vertex $-1 $746 $785 #
vertex $-1 $748 $786 #
straight-curve $-1 -47.025912515199202 0 9.192983313512844 0 -1 0 I I #
coedge $-1 $742 $787 $705 $754 reversed $698 $-1 #
edge $-1 $762 -47.025912515199202 $756 63.689687795648062 $753 $788 forward 7 unknown #
coedge $-1 $711 $706 $787 $789 forward $590 $-1 #
vertex $-1 $707 $790 #
coedge $-1 $791 $792 $711 $758 forward $740 $-1 #
edge $-1 $760 -27.699873066676247 $793 27.699873066676247 $711 $794 forward 7 unknown #
coedge $-1 $779 $712 $792 $795 reversed $718 $-1 #
vertex $-1 $758 $796 #
straight-curve $-1 63.689687795648062 27.699873066676247 0 0 0 -1 I I #
vertex $-1 $754 $797 #
straight-curve $-1 -47.025912515199202 0 13.81975722279763 0 -1 0 I I #
edge $-1 $750 3.4397981794352255 $719 8.0665720887200116 $717 $798 forward 7 unknown #
face $-1 $655 $718 $19 $-1 $799 reversed single #
point $-1 -47.025912515199202 27.699873066676247 13.81975722279763 #
coedge $-1 $726 $725 $734 $771 reversed $671 $-1 #
straight-curve $-1 -63.689687795648062 27.699873066676247 0 0 0 -1 I I #
vertex $-1 $771 $800 #
straight-curve $-1 -63.689687795648062 -27.699873066676247 0 0 0 -1 I I #
edge $-1 $769 -27.699873066676247 $737 27.699873066676247 $767 $801 forward 7 unknown #
straight-curve $-1 0 -27.699873066676247 -13.81975722279763 -1 0 0 I I #
point $-1 -63.689687795648062 27.699873066676247 -13.81975722279763 #
loop $-1 $-1 $777 $739 #
plane-surface $-1 -63.689687795648062 0 0 1 0 0 0 0 -1 forward_v I I I I #
straight-curve $-1 -47.025912515199202 -27.699873066676247 5.7531851340776186 0 0 -1 I I #
coedge $-1 $802 $803 $744 $778 forward $774 $-1 #
edge $-1 $783 -27.699873066676247 $780 27.699873066676247 $777 $804 forward 7 unknown #
coedge $-1 $745 $759 $802 $805 reversed $718 $-1 #
vertex $-1 $805 $806 #
straight-curve $-1 -27.678900077711816 27.699873066676247 9.192983313512844 1 0 0 I I #
coedge $-1 $807 $747 $803 $808 forward $698 $-1 #
vertex $-1 $808 $809 #
straight-curve $-1 -27.678900077711816 -27.699873066676247 9.192983313512844 -1 0 0 I I #
point $-1 -47.025912515199202 27.699873066676247 9.192983313512844 #
point $-1 -47.025912515199202 -27.699873066676247 9.192983313512844 #
coedge $-1 $753 $807 $755 $789 reversed $698 $-1 #
straight-curve $-1 0 -27.699873066676247 13.81975722279763 1 0 0 I I #
edge $-1 $756 -13.81975722279763 $793 13.81975722279763 $755 $810 forward 7 unknown #
point $-1 63.689687795648062 -27.699873066676247 13.81975722279763 #
coedge $-1 $811 $757 $807 $812 forward $740 $-1 #
coedge $-1 $757 $811 $759 $795 forward $740 $-1 #
vertex $-1 $789 $813 #
straight-curve $-1 63.689687795648062 0 -13.81975722279763 0 -1 0 I I #
edge $-1 $814 -63.689687795648062 $760 63.689687795648062 $759 $815 forward 7 unknown #
point $-1 63.689687795648062 27.699873066676247 -13.81975722279763 #
point $-1 -47.025912515199202 -27.699873066676247 13.81975722279763 #
straight-curve $-1 -47.025912515199202 27.699873066676247 5.7531851340776186 0 0 1 I I #
plane-surface $-1 0 27.699873066676247 0 0 -1 0 0 0 -1 forward_v I I I I #
point $-1 -63.689687795648062 -27.699873066676247 -13.81975722279763 #
straight-curve $-1 -63.689687795648062 0 -13.81975722279763 0 1 0 I I #
coedge $-1 $816 $777 $779 $805 forward $774 $-1 #
coedge $-1 $777 $816 $782 $808 reversed $774 $-1 #
straight-curve $-1 -63.689687795648062 0 9.192983313512844 0 1 0 I I #
edge $-1 $780 -9.192983313512844 $814 13.81975722279763 $779 $817 forward 7 unknown #
point $-1 -63.689687795648062 27.699873066676247 9.192983313512844 #
coedge $-1 $787 $782 $791 $812 reversed $698 $-1 #
edge $-1 $783 -9.192983313512844 $818 13.81975722279763 $803 $819 forward 7 unknown #
point $-1 -63.689687795648062 -27.699873066676247 9.192983313512844 #
straight-curve $-1 63.689687795648062 -27.699873066676247 0 0 0 -1 I I #
coedge $-1 $792 $791 $816 $820 forward $740 $-1 #
edge $-1 $793 -63.689687795648062 $818 63.689687795648062 $807 $821 forward 7 unknown #
point $-1 63.689687795648062 -27.699873066676247 -13.81975722279763 #
vertex $-1 $795 $822 #
straight-curve $-1 0 27.699873066676247 -13.81975722279763 1 0 0 I I #
coedge $-1 $803 $802 $811 $820 reversed $774 $-1 #
straight-curve $-1 -63.689687795648062 27.699873066676247 0 0 0 -1 I I #
vertex $-1 $820 $823 #
straight-curve $-1 -63.689687795648062 -27.699873066676247 0 0 0 -1 I I #
edge $-1 $818 -27.699873066676247 $814 27.699873066676247 $816 $824 forward 7 unknown #
straight-curve $-1 0 -27.699873066676247 -13.81975722279763 -1 0 0 I I #
point $-1 -63.689687795648062 27.699873066676247 -13.81975722279763 #
point $-1 -63.689687795648062 -27.699873066676247 -13.81975722279763 #
straight-curve $-1 -63.689687795648062 0 -13.81975722279763 0 1 0 I I #
End-of-ACIS-data 