500 0 8 0           
7 Unknown 11 ACIS 5.0 NT 24 Fri Mar 26 18:31:37 1999 
-1 9.9999999999999995e-007 1e-010 
body $-1 $8 $-1 $9 #
body $-1 $10 $-1 $11 #
body $-1 $12 $-1 $13 #
body $-1 $14 $-1 $15 #
body $-1 $16 $-1 $17 #
body $-1 $18 $-1 $19 #
body $-1 $20 $-1 $21 #
body $-1 $22 $-1 $23 #
lump $-1 $-1 $24 $0 #
transform $-1 1 0 0 0 1 0 0 0 1 42.429273354289379 28.099244989473732 13.477981614888751 1 rotate no_reflect no_shear #
lump $-1 $-1 $25 $1 #
transform $-1 1 0 0 0 1 0 0 0 1 42.429273354289379 28.099244989473732 13.477981614888751 1 rotate no_reflect no_shear #
lump $-1 $-1 $26 $2 #
transform $-1 1 0 0 0 1 0 0 0 1 42.429273354289379 28.099244989473732 13.477981614888751 1 rotate no_reflect no_shear #
lump $-1 $-1 $27 $3 #
transform $-1 1 0 0 0 1 0 0 0 1 42.429273354289379 28.099244989473732 13.477981614888751 1 rotate no_reflect no_shear #
lump $-1 $-1 $28 $4 #
transform $-1 1 0 0 0 1 0 0 0 1 42.429273354289379 28.099244989473732 13.477981614888751 1 rotate no_reflect no_shear #
lump $-1 $-1 $29 $5 #
transform $-1 1 0 0 0 1 0 0 0 1 42.429273354289379 28.099244989473732 13.477981614888751 1 rotate no_reflect no_shear #
lump $-1 $-1 $30 $6 #
transform $-1 1 0 0 0 1 0 0 0 1 42.429273354289379 28.099244989473732 13.477981614888751 1 rotate no_reflect no_shear #
lump $-1 $-1 $31 $7 #
transform $-1 1 0 0 0 1 0 0 0 1 42.429273354289379 28.099244989473732 13.477981614888751 1 rotate no_reflect no_shear #
shell $-1 $-1 $-1 $32 $-1 $8 #
shell $-1 $-1 $-1 $33 $-1 $10 #
shell $-1 $-1 $-1 $34 $-1 $12 #
shell $-1 $-1 $-1 $35 $-1 $14 #
shell $-1 $-1 $-1 $36 $-1 $16 #
shell $-1 $-1 $-1 $37 $-1 $18 #
shell $-1 $-1 $-1 $38 $-1 $20 #
shell $-1 $-1 $-1 $39 $-1 $22 #
face $-1 $40 $41 $24 $-1 $42 forward single #
face $-1 $43 $44 $25 $-1 $45 forward single #
face $-1 $46 $47 $26 $-1 $48 reversed single #
face $-1 $49 $50 $27 $-1 $51 forward single #
face $-1 $52 $53 $28 $-1 $54 reversed single #
face $-1 $55 $56 $29 $-1 $57 forward single #
face $-1 $58 $59 $30 $-1 $60 forward single #
face $-1 $61 $62 $31 $-1 $63 forward single #
face $-1 $64 $65 $24 $-1 $66 reversed single #
loop $-1 $-1 $67 $32 #
plane-surface $-1 0 0 13.477981614888751 0 0 1 1 0 0 forward_v I I I I #
face $-1 $68 $69 $25 $-1 $70 reversed single #
loop $-1 $-1 $71 $33 #
plane-surface $-1 0 -20.989549016753244 6.9139660233942326 0 0 1 1 0 0 forward_v I I I I #
face $-1 $72 $73 $26 $-1 $74 reversed single #
loop $-1 $-1 $75 $34 #
plane-surface $-1 11.368890427358096 17.010520683879886 124.18952363984242 0 1 0 0.50000000669873634 0 0.8660253999169214 forward_v I I I I #
face $-1 $76 $77 $27 $-1 $78 forward single #
loop $-1 $79 $80 $35 #
cone-surface $-1 37.445696848450787 22.554882836676803 10.053562525945349 -0.50000000669873634 0 -0.8660253999169214 1.2990380998753821 0 -0.75000001004810457 1 I I 0 1 1.5 forward I I I I #
face $-1 $81 $82 $28 $-1 $83 reversed single #
loop $-1 $-1 $84 $36 #
plane-surface $-1 -42.429273354289379 -9.7686566024205597 1.0766736075115375 -0.86602541151947299 0 0.49999998660252726 0.49999998660252726 0 0.86602541151947299 forward_v I I I I #
face $-1 $85 $86 $29 $-1 $87 forward single #
loop $-1 $88 $89 $37 #
cone-surface $-1 -38.416311518247689 -12.23537446738788 7.0273276178988802 0.86602541151947299 0 -0.49999998660252726 0.24999999330126363 0 0.43301270575973649 1 I I 0 1 0.5 forward I I I I #
face $-1 $90 $91 $30 $-1 $92 forward single #
loop $-1 $93 $94 $38 #
cone-surface $-1 -38.416311518247689 -9.7686566024205632 7.0273276178988802 0.86602541151947299 0 -0.49999998660252726 0.24999999330126363 0 0.43301270575973649 1 I I 0 1 0.5 forward I I I I #
face $-1 $95 $96 $31 $-1 $97 forward single #
loop $-1 $98 $99 $39 #
cone-surface $-1 -38.416311518247689 -7.301938737453245 7.0273276178988802 0.86602541151947299 0 -0.49999998660252726 0.24999999330126363 0 0.43301270575973649 1 I I 0 1 0.5 forward I I I I #
face $-1 $100 $101 $24 $-1 $102 reversed single #
loop $-1 $-1 $103 $40 #
plane-surface $-1 0 0 -13.477981614888751 0 0 1 1 0 0 forward_v I I I I #
coedge $-1 $104 $105 $106 $107 forward $41 $-1 #
face $-1 $108 $109 $25 $-1 $110 reversed single #
loop $-1 $-1 $111 $43 #
plane-surface $-1 0 -20.989549016753244 -0.67560976837670417 0 0 1 1 0 0 forward_v I I I I #
coedge $-1 $112 $113 $114 $115 reversed $44 $-1 #
face $-1 $116 $117 $26 $-1 $118 forward single #
loop $-1 $-1 $119 $46 #
plane-surface $-1 -31.060383495376314 22.554882836676811 50.699866790176742 0.50000000669873634 0 0.8660253999169214 0.8660253999169214 0 -0.50000000669873634 forward_v I I I I #
coedge $-1 $120 $121 $122 $123 reversed $47 $-1 #
face $-1 $-1 $124 $27 $-1 $125 forward single #
loop $-1 $126 $127 $49 #
cone-surface $-1 36.59685119969933 22.554882836676803 8.5833187607874599 -0.50000000669873634 0 -0.8660253999169214 0.64951904993769105 0 -0.37500000502405229 1 I I -0.70710678118654757 0.70710678118654757 0.75 forward I I I I #
loop $-1 $-1 $128 $35 #
coedge $-1 $80 $80 $129 $130 reversed $50 $-1 #
face $-1 $131 $132 $28 $-1 $133 reversed single #
loop $-1 $-1 $134 $52 #
plane-surface $-1 -115.91893118853072 -5.6574601608083617 43.505945824910853 0 -1 0 0.86602541151947299 0 -0.49999998660252726 forward_v I I I I #
coedge $-1 $135 $136 $137 $138 reversed $53 $-1 #
face $-1 $-1 $139 $29 $-1 $140 forward single #
loop $-1 $141 $142 $55 #
cone-surface $-1 -37.766792459608084 -12.23537446738788 6.6523276279469847 0.86602541151947299 0 -0.49999998660252726 0.12499999665063181 0 0.21650635287986825 1 I I -0.70710678118654746 0.70710678118654746 0.25 forward I I I I #
loop $-1 $-1 $143 $37 #
coedge $-1 $89 $89 $144 $145 reversed $56 $-1 #
face $-1 $-1 $146 $30 $-1 $147 forward single #
loop $-1 $148 $149 $58 #
cone-surface $-1 -37.766792459608084 -9.7686566024205632 6.6523276279469847 0.86602541151947299 0 -0.49999998660252726 0.12499999665063181 0 0.21650635287986825 1 I I -0.70710678118654746 0.70710678118654746 0.25 forward I I I I #
loop $-1 $-1 $150 $38 #
coedge $-1 $94 $94 $151 $152 reversed $59 $-1 #
face $-1 $-1 $153 $31 $-1 $154 forward single #
loop $-1 $155 $156 $61 #
cone-surface $-1 -37.766792459608084 -7.301938737453245 6.6523276279469847 0.86602541151947299 0 -0.49999998660252726 0.12499999665063181 0 0.21650635287986825 1 I I -0.70710678118654746 0.70710678118654746 0.25 forward I I I I #
loop $-1 $-1 $157 $39 #
coedge $-1 $99 $99 $158 $159 reversed $62 $-1 #
face $-1 $160 $161 $24 $-1 $162 reversed single #
loop $-1 $-1 $163 $64 #
plane-surface $-1 0 -28.099244989473732 0 0 1 0 0 0 1 forward_v I I I I #
coedge $-1 $164 $165 $166 $167 forward $65 $-1 #
coedge $-1 $168 $67 $169 $170 forward $41 $-1 #
coedge $-1 $67 $168 $171 $172 forward $41 $-1 #
coedge $-1 $173 $174 $67 $107 reversed $175 $-1 #
edge $-1 $176 -28.099244989473732 $177 28.099244989473732 $106 $178 forward 7 unknown #
face $-1 $179 $180 $25 $-1 $181 reversed single #
loop $-1 $-1 $182 $68 #
plane-surface $-1 0 -13.879853044032757 3.1191781275087642 0 -1 0 0 0 -1 forward_v I I I I #
coedge $-1 $183 $184 $185 $186 reversed $69 $-1 #
coedge $-1 $187 $71 $182 $188 forward $44 $-1 #
coedge $-1 $71 $187 $189 $190 reversed $44 $-1 #
coedge $-1 $191 $192 $71 $115 forward $193 $-1 #
edge $-1 $194 3.3850785356561346 $195 17.60447048109711 $114 $196 forward 7 unknown #
face $-1 $197 $198 $26 $-1 $199 reversed single #
loop $-1 $-1 $200 $72 #
plane-surface $-1 0 0 13.477981614888751 0 0 1 1 0 0 forward_v I I I I #
coedge $-1 $201 $202 $203 $204 reversed $73 $-1 #
coedge $-1 $121 $75 $205 $206 reversed $47 $-1 #
coedge $-1 $75 $120 $201 $207 reversed $47 $-1 #
coedge $-1 $203 $208 $75 $123 forward $198 $-1 #
edge $-1 $209 48.616780205032455 $210 53.824168952478892 $122 $211 forward 7 unknown #
loop $-1 $-1 $129 $76 #
plane-surface $-1 -31.060383495376314 22.554882836676811 50.699866790176742 0.50000000669873634 0 0.8660253999169214 0.8660253999169214 0 -0.50000000669873634 forward_v I I I I #
loop $-1 $-1 $212 $49 #
coedge $-1 $127 $127 $128 $213 reversed $77 $-1 #
coedge $-1 $128 $128 $127 $213 forward $79 $-1 #
coedge $-1 $129 $129 $80 $130 forward $124 $-1 #
edge $-1 $214 0 $214 6.2831853071796004 $129 $215 forward 7 unknown #
face $-1 $216 $217 $28 $-1 $218 forward single #
loop $-1 $-1 $219 $81 #
plane-surface $-1 -42.429273354289379 0 0 1 0 0 0 0 -1 forward_v I I I I #
coedge $-1 $220 $221 $222 $223 reversed $82 $-1 #
coedge $-1 $224 $84 $225 $226 forward $53 $-1 #
coedge $-1 $84 $224 $220 $227 forward $53 $-1 #
coedge $-1 $222 $228 $84 $138 forward $229 $-1 #
edge $-1 $230 -8.9955247428224769 $231 -0.77313185959808184 $137 $232 forward 7 unknown #
loop $-1 $-1 $144 $85 #
plane-surface $-1 -42.429273354289379 -9.7686566024205597 1.0766736075115375 -0.86602541151947299 0 0.49999998660252726 0.49999998660252726 0 0.86602541151947299 forward_v I I I I #
loop $-1 $-1 $233 $55 #
coedge $-1 $142 $142 $143 $234 reversed $86 $-1 #
coedge $-1 $143 $143 $142 $234 forward $88 $-1 #
coedge $-1 $144 $144 $89 $145 forward $139 $-1 #
edge $-1 $235 0 $235 6.2831853071796004 $144 $236 forward 7 unknown #
loop $-1 $-1 $151 $90 #
plane-surface $-1 -42.429273354289379 -9.7686566024205597 1.0766736075115375 -0.86602541151947299 0 0.49999998660252726 0.49999998660252726 0 0.86602541151947299 forward_v I I I I #
loop $-1 $-1 $237 $58 #
coedge $-1 $149 $149 $150 $238 reversed $91 $-1 #
coedge $-1 $150 $150 $149 $238 forward $93 $-1 #
coedge $-1 $151 $151 $94 $152 forward $146 $-1 #
edge $-1 $239 0 $239 6.2831853071796004 $151 $240 forward 7 unknown #
loop $-1 $-1 $158 $95 #
plane-surface $-1 -42.429273354289379 -9.7686566024205597 1.0766736075115375 -0.86602541151947299 0 0.49999998660252726 0.49999998660252726 0 0.86602541151947299 forward_v I I I I #
loop $-1 $-1 $241 $61 #
coedge $-1 $156 $156 $157 $242 reversed $96 $-1 #
coedge $-1 $157 $157 $156 $242 forward $98 $-1 #
coedge $-1 $158 $158 $99 $159 forward $153 $-1 #
edge $-1 $243 0 $243 6.2831853071796004 $158 $244 forward 7 unknown #
face $-1 $245 $246 $24 $-1 $247 reversed single #
loop $-1 $-1 $248 $100 #
plane-surface $-1 -42.429273354289379 0 0 1 0 0 0 0 -1 forward_v I I I I #
coedge $-1 $249 $171 $250 $251 forward $101 $-1 #
coedge $-1 $252 $103 $249 $253 forward $65 $-1 #
coedge $-1 $103 $252 $254 $255 forward $65 $-1 #
coedge $-1 $174 $173 $103 $167 reversed $175 $-1 #
edge $-1 $256 -28.099244989473732 $257 28.099244989473732 $166 $258 forward 7 unknown #
coedge $-1 $105 $104 $259 $260 forward $41 $-1 #
coedge $-1 $261 $262 $104 $170 reversed $246 $-1 #
edge $-1 $177 -42.429273354289379 $263 42.429273354289379 $169 $264 forward 7 unknown #
coedge $-1 $163 $265 $105 $172 reversed $101 $-1 #
edge $-1 $266 -42.429273354289379 $176 42.429273354289379 $171 $267 forward 7 unknown #
coedge $-1 $166 $106 $265 $268 forward $175 $-1 #
coedge $-1 $106 $166 $261 $269 reversed $175 $-1 #
loop $-1 $-1 $173 $245 #
vertex $-1 $107 $270 #
vertex $-1 $107 $271 #
straight-curve $-1 42.429273354289379 0 13.477981614888751 0 1 0 I I #
face $-1 $272 $273 $25 $-1 $274 reversed single #
loop $-1 $-1 $275 $108 #
plane-surface $-1 -42.429273354289379 0 0 1 0 0 0 0 -1 forward_v I I I I #
coedge $-1 $276 $277 $112 $188 reversed $109 $-1 #
coedge $-1 $278 $111 $279 $280 reversed $69 $-1 #
coedge $-1 $111 $278 $281 $282 forward $69 $-1 #
coedge $-1 $192 $191 $111 $186 forward $193 $-1 #
edge $-1 $283 -17.60447048109711 $284 -3.3850785356561346 $185 $285 forward 7 unknown #
coedge $-1 $113 $112 $275 $286 reversed $44 $-1 #
edge $-1 $194 -42.429273354289379 $287 42.429273354289379 $182 $288 forward 7 unknown #
coedge $-1 $289 $290 $113 $190 forward $273 $-1 #
edge $-1 $195 -42.429273354289379 $291 42.429273354289379 $189 $292 forward 7 unknown #
coedge $-1 $185 $114 $290 $293 forward $193 $-1 #
coedge $-1 $114 $185 $276 $294 forward $193 $-1 #
loop $-1 $-1 $114 $272 #
vertex $-1 $115 $295 #
vertex $-1 $293 $296 #
straight-curve $-1 42.429273354289379 -10.494774508376622 6.9139660233942326 0 -1 0 I I #
face $-1 $-1 $297 $26 $-1 $298 reversed single #
loop $-1 $-1 $122 $116 #
plane-surface $-1 42.429273354289379 0 0 -1 0 0 0 0 1 forward_v I I I I #
coedge $-1 $205 $299 $300 $301 forward $117 $-1 #
coedge $-1 $300 $119 $121 $207 forward $73 $-1 #
coedge $-1 $119 $300 $302 $303 reversed $73 $-1 #
coedge $-1 $304 $122 $119 $204 forward $198 $-1 #
edge $-1 $210 5.7330792655414804 $305 16.82180357113533 $203 $306 forward 7 unknown #
coedge $-1 $307 $200 $120 $206 forward $117 $-1 #
edge $-1 $308 27.725366416387978 $209 36.744828140610331 $205 $309 forward 7 unknown #
edge $-1 $210 -84.858546708578785 $308 -74.443769353217618 $121 $310 forward 7 unknown #
coedge $-1 $122 $304 $307 $311 reversed $198 $-1 #
vertex $-1 $311 $312 #
vertex $-1 $123 $313 #
straight-curve $-1 42.429273354289379 17.010520683879886 62.09476181992121 0 0 -1 I I #
coedge $-1 $212 $212 $-1 $314 reversed $126 $-1 #
edge $-1 $315 0 $315 6.2831853071796004 $127 $316 forward 7 unknown #
vertex $-1 $130 $317 #
ellipse-curve $-1 37.919542492178188 22.554882836676803 10.87428724116554 0.50000000669873634 0 0.8660253999169214 1.2990380998753821 0 -0.75000001004810457 1 I I #
face $-1 $-1 $229 $28 $-1 $318 forward single #
loop $-1 $-1 $225 $131 #
plane-surface $-1 0 -13.879853044032757 3.1191781275087642 0 -1 0 0 0 -1 forward_v I I I I #
coedge $-1 $319 $320 $221 $321 forward $132 $-1 #
coedge $-1 $221 $134 $136 $227 reversed $82 $-1 #
coedge $-1 $134 $220 $219 $321 reversed $82 $-1 #
coedge $-1 $322 $137 $134 $223 forward $229 $-1 #
edge $-1 $231 -22.690090500539895 $323 -15.530192239975982 $222 $324 forward 7 unknown #
coedge $-1 $136 $135 $319 $325 reversed $53 $-1 #
coedge $-1 $326 $327 $135 $226 reversed $217 $-1 #
edge $-1 $230 -14.319796904826003 $328 0 $225 $329 forward 7 unknown #
edge $-1 $330 0 $231 14.319796904826003 $220 $331 forward 7 unknown #
coedge $-1 $137 $322 $326 $332 forward $229 $-1 #
loop $-1 $-1 $222 $216 #
vertex $-1 $138 $333 #
vertex $-1 $138 $334 #
straight-curve $-1 -35.269375093725465 -4.8843283012102798 13.477981614888751 0 1 0 I I #
coedge $-1 $233 $233 $-1 $335 reversed $141 $-1 #
edge $-1 $336 0 $336 6.2831853071796004 $142 $337 forward 7 unknown #
vertex $-1 $145 $338 #
ellipse-curve $-1 -38.849324224007425 -12.23537446738788 7.2773276112001426 -0.86602541151947299 0 0.49999998660252726 0.24999999330126363 0 0.43301270575973649 1 I I #
coedge $-1 $237 $237 $-1 $339 reversed $148 $-1 #
edge $-1 $340 0 $340 6.2831853071796004 $149 $341 forward 7 unknown #
vertex $-1 $152 $342 #
ellipse-curve $-1 -38.849324224007425 -9.7686566024205632 7.2773276112001426 -0.86602541151947299 0 0.49999998660252726 0.24999999330126363 0 0.43301270575973649 1 I I #
coedge $-1 $241 $241 $-1 $343 reversed $155 $-1 #
edge $-1 $344 0 $344 6.2831853071796004 $156 $345 forward 7 unknown #
vertex $-1 $159 $346 #
ellipse-curve $-1 -38.849324224007425 -7.301938737453245 7.2773276112001426 -0.86602541151947299 0 0.49999998660252726 0.24999999330126363 0 0.43301270575973649 1 I I #
face $-1 $-1 $175 $24 $-1 $347 reversed single #
loop $-1 $-1 $261 $160 #
plane-surface $-1 0 28.099244989473732 0 0 -1 0 0 0 -1 forward_v I I I I #
coedge $-1 $348 $259 $262 $349 forward $161 $-1 #
coedge $-1 $265 $163 $164 $253 reversed $101 $-1 #
coedge $-1 $259 $348 $163 $251 reversed $161 $-1 #
edge $-1 $266 -13.477981614888751 $350 13.477981614888751 $250 $351 forward 7 unknown #
coedge $-1 $165 $164 $348 $352 forward $65 $-1 #
edge $-1 $257 -42.429273354289379 $350 42.429273354289379 $249 $353 forward 7 unknown #
coedge $-1 $262 $261 $165 $255 reversed $246 $-1 #
edge $-1 $354 -42.429273354289379 $256 42.429273354289379 $254 $355 forward 7 unknown #
vertex $-1 $167 $356 #
vertex $-1 $268 $357 #
straight-curve $-1 42.429273354289379 0 -13.477981614888751 0 -1 0 I I #
coedge $-1 $248 $250 $168 $260 reversed $161 $-1 #
edge $-1 $263 -28.099244989473732 $266 28.099244989473732 $259 $358 forward 7 unknown #
coedge $-1 $254 $169 $174 $269 forward $246 $-1 #
coedge $-1 $169 $254 $248 $349 reversed $246 $-1 #
vertex $-1 $170 $359 #
straight-curve $-1 0 28.099244989473732 13.477981614888751 -1 0 0 I I #
coedge $-1 $171 $249 $173 $268 reversed $101 $-1 #
vertex $-1 $260 $360 #
straight-curve $-1 0 -28.099244989473732 13.477981614888751 1 0 0 I I #
edge $-1 $176 -13.477981614888751 $257 13.477981614888751 $173 $361 forward 7 unknown #
edge $-1 $177 -13.477981614888751 $256 13.477981614888751 $174 $362 forward 7 unknown #
point $-1 42.429273354289379 -28.099244989473732 13.477981614888751 #
point $-1 42.429273354289379 28.099244989473732 13.477981614888751 #
face $-1 $-1 $193 $25 $-1 $363 reversed single #
loop $-1 $-1 $189 $179 #
plane-surface $-1 0 -28.099244989473732 0 0 1 0 0 0 1 forward_v I I I I #
coedge $-1 $364 $365 $187 $286 forward $180 $-1 #
coedge $-1 $281 $182 $192 $294 reversed $109 $-1 #
coedge $-1 $182 $281 $364 $366 reversed $109 $-1 #
coedge $-1 $184 $183 $367 $368 reversed $69 $-1 #
coedge $-1 $290 $289 $183 $280 forward $273 $-1 #
edge $-1 $369 -42.429273354289379 $283 42.429273354289379 $279 $370 forward 7 unknown #
coedge $-1 $277 $276 $184 $282 reversed $109 $-1 #
edge $-1 $371 -42.429273354289379 $284 42.429273354289379 $281 $372 forward 7 unknown #
vertex $-1 $280 $373 #
vertex $-1 $186 $374 #
straight-curve $-1 42.429273354289379 -10.494774508376622 -0.67560976837670417 0 1 0 I I #
edge $-1 $291 -17.60447048109711 $287 -3.3850785356561346 $275 $375 forward 7 unknown #
vertex $-1 $286 $376 #
straight-curve $-1 0 -13.879853044032757 6.9139660233942326 -1 0 0 I I #
coedge $-1 $279 $189 $365 $377 forward $273 $-1 #
coedge $-1 $189 $279 $191 $293 reversed $273 $-1 #
vertex $-1 $377 $378 #
straight-curve $-1 0 -28.099244989473732 6.9139660233942326 -1 0 0 I I #
edge $-1 $195 -6.9139660233942326 $283 0.67560976837670417 $191 $379 forward 7 unknown #
edge $-1 $284 -2.2351988321310863 $194 5.3543769596398505 $192 $380 forward 7 unknown #
point $-1 42.429273354289379 -13.879853044032757 6.9139660233942326 #
point $-1 42.429273354289379 -28.099244989473732 6.9139660233942326 #
loop $-1 $-1 $302 $197 #
plane-surface $-1 0 28.099244989473732 0 0 -1 0 0 0 -1 forward_v I I I I #
coedge $-1 $200 $307 $381 $382 forward $117 $-1 #
coedge $-1 $202 $201 $200 $301 reversed $73 $-1 #
edge $-1 $383 -16.82180357113533 $308 -5.7330792655414804 $200 $384 forward 7 unknown #
coedge $-1 $381 $385 $202 $303 forward $297 $-1 #
edge $-1 $305 -58.734039322143971 $383 -48.319261966782804 $302 $386 forward 7 unknown #
coedge $-1 $208 $203 $385 $387 reversed $198 $-1 #
vertex $-1 $303 $388 #
straight-curve $-1 42.429273354289379 11.277441418338405 8.2705928674423248 0 1 0 I I #
coedge $-1 $299 $205 $208 $311 forward $117 $-1 #
vertex $-1 $206 $389 #
straight-curve $-1 5.684445213679048 17.010520683879886 13.477981614888748 1 0 0 I I #
straight-curve $-1 -31.060383495376314 17.010520683879886 50.699866790176742 -0.8660253999169214 0 0.50000000669873634 I I #
edge $-1 $209 17.010520683879886 $390 28.099244989473732 $208 $391 forward 7 unknown #
point $-1 42.429273354289379 17.010520683879886 13.477981614888751 #
point $-1 42.429273354289379 17.010520683879886 8.2705928674423177 #
edge $-1 $392 1 $392 0 $212 $-1 forward 7 unknown #
vertex $-1 $213 $393 #
ellipse-curve $-1 36.971851204723379 22.554882836676803 9.232837810725151 0.50000000669873634 0 0.8660253999169214 1.2990380998753821 0 -0.75000001004810457 1 I I #
point $-1 39.21858059205357 22.554882836676803 10.124287231117439 #
plane-surface $-1 0 0 13.477981614888751 0 0 1 1 0 0 forward_v I I I I #
coedge $-1 $394 $219 $224 $325 forward $132 $-1 #
coedge $-1 $219 $394 $322 $395 reversed $132 $-1 #
edge $-1 $323 8.2749912975666753 $330 20.676299304943889 $219 $396 forward 7 unknown #
coedge $-1 $228 $222 $320 $395 forward $229 $-1 #
vertex $-1 $395 $397 #
straight-curve $-1 -57.95946559426536 -5.6574601608083617 13.477981614888751 -1 0 0 I I #
edge $-1 $330 0.77313185959808184 $328 8.9955247428224769 $319 $398 forward 7 unknown #
coedge $-1 $327 $225 $228 $332 reversed $217 $-1 #
coedge $-1 $225 $326 $394 $399 reversed $217 $-1 #
vertex $-1 $399 $400 #
straight-curve $-1 -42.429273354289379 -13.879853044032757 1.0766736075115375 -0.49999998660252726 0 -0.86602541151947299 I I #
vertex $-1 $325 $401 #
straight-curve $-1 -42.429273354289379 -5.6574601608083617 1.0766736075115375 0.49999998660252726 0 0.86602541151947299 I I #
edge $-1 $402 15.530192239975982 $230 22.690090500539895 $228 $403 forward 7 unknown #
point $-1 -35.269375093725465 -13.879853044032757 13.477981614888751 #
point $-1 -35.269375093725465 -5.6574601608083617 13.477981614888751 #
edge $-1 $404 1 $404 0 $233 $-1 forward 7 unknown #
vertex $-1 $234 $405 #
ellipse-curve $-1 -37.983298812487952 -12.23537446738788 6.7773276245976168 -0.86602541151947299 0 0.49999998660252726 0.24999999330126363 0 0.43301270575973649 1 I I #
point $-1 -38.599324230706159 -12.23537446738788 7.7103403169598801 #
edge $-1 $406 1 $406 0 $237 $-1 forward 7 unknown #
vertex $-1 $238 $407 #
ellipse-curve $-1 -37.983298812487952 -9.7686566024205632 6.7773276245976168 -0.86602541151947299 0 0.49999998660252726 0.24999999330126363 0 0.43301270575973649 1 I I #
point $-1 -38.599324230706159 -9.7686566024205632 7.7103403169598801 #
edge $-1 $408 1 $408 0 $241 $-1 forward 7 unknown #
vertex $-1 $242 $409 #
ellipse-curve $-1 -37.983298812487952 -7.301938737453245 6.7773276245976168 -0.86602541151947299 0 0.49999998660252726 0.24999999330126363 0 0.43301270575973649 1 I I #
point $-1 -38.599324230706159 -7.301938737453245 7.7103403169598801 #
plane-surface $-1 42.429273354289379 0 0 -1 0 0 0 0 1 forward_v I I I I #
coedge $-1 $250 $248 $252 $352 reversed $161 $-1 #
edge $-1 $263 -13.477981614888751 $354 13.477981614888751 $262 $410 forward 7 unknown #
vertex $-1 $352 $411 #
straight-curve $-1 -42.429273354289379 -28.099244989473732 0 0 0 -1 I I #
edge $-1 $350 -28.099244989473732 $354 28.099244989473732 $348 $412 forward 7 unknown #
straight-curve $-1 0 -28.099244989473732 -13.477981614888751 -1 0 0 I I #
vertex $-1 $255 $413 #
straight-curve $-1 0 28.099244989473732 -13.477981614888751 1 0 0 I I #
point $-1 42.429273354289379 28.099244989473732 -13.477981614888751 #
point $-1 42.429273354289379 -28.099244989473732 -13.477981614888751 #
straight-curve $-1 -42.429273354289379 0 13.477981614888751 0 -1 0 I I #
point $-1 -42.429273354289379 28.099244989473732 13.477981614888751 #
point $-1 -42.429273354289379 -28.099244989473732 13.477981614888751 #
straight-curve $-1 42.429273354289379 -28.099244989473732 0 0 0 -1 I I #
straight-curve $-1 42.429273354289379 28.099244989473732 0 0 0 -1 I I #
plane-surface $-1 42.429273354289379 0 0 -1 0 0 0 0 1 forward_v I I I I #
coedge $-1 $367 $275 $277 $366 forward $180 $-1 #
coedge $-1 $275 $367 $289 $377 reversed $180 $-1 #
edge $-1 $287 -5.3543769596398505 $371 2.2351988321310863 $364 $414 forward 7 unknown #
coedge $-1 $365 $364 $278 $368 forward $180 $-1 #
edge $-1 $371 3.3850785356561346 $369 17.60447048109711 $367 $415 forward 7 unknown #
vertex $-1 $280 $416 #
straight-curve $-1 0 -28.099244989473732 -0.67560976837670417 1 0 0 I I #
vertex $-1 $368 $417 #
straight-curve $-1 0 -13.879853044032757 -0.67560976837670417 1 0 0 I I #
point $-1 42.429273354289379 -28.099244989473732 -0.67560976837670417 #
point $-1 42.429273354289379 -13.879853044032757 -0.67560976837670417 #
straight-curve $-1 -42.429273354289379 -10.494774508376622 6.9139660233942326 0 1 0 I I #
point $-1 -42.429273354289379 -13.879853044032757 6.9139660233942326 #
edge $-1 $291 -6.9139660233942326 $369 0.67560976837670417 $365 $418 forward 7 unknown #
point $-1 -42.429273354289379 -28.099244989473732 6.9139660233942326 #
straight-curve $-1 42.429273354289379 -28.099244989473732 0 0 0 -1 I I #
straight-curve $-1 42.429273354289379 -13.879853044032757 1.5595890637543821 0 0 1 I I #
coedge $-1 $385 $302 $299 $382 reversed $297 $-1 #
edge $-1 $390 -42.429273354289379 $383 -33.409811630067026 $381 $419 forward 7 unknown #
vertex $-1 $303 $420 #
straight-curve $-1 33.409811630067011 11.277441418338405 13.477981614888751 0 -1 0 I I #
coedge $-1 $302 $381 $304 $387 forward $297 $-1 #
straight-curve $-1 -8.4358965384065385 28.099244989473732 37.637612921958151 -0.8660253999169214 0 0.50000000669873634 I I #
edge $-1 $390 -13.477981614888751 $305 -8.2705928674423177 $304 $421 forward 7 unknown #
point $-1 42.429273354289379 28.099244989473736 8.2705928674423177 #
point $-1 33.409811630067026 17.010520683879886 13.477981614888748 #
vertex $-1 $311 $422 #
straight-curve $-1 42.429273354289379 0 13.477981614888751 0 1 0 I I #
vertex $-1 $314 $423 #
point $-1 38.270889304598768 22.554882836676803 8.4828378006770464 #
coedge $-1 $320 $319 $327 $399 forward $132 $-1 #
edge $-1 $323 5.6574601608083617 $402 13.879853044032757 $320 $424 forward 7 unknown #
straight-curve $-1 -42.429273354289379 -5.6574601608083617 21.752972912455427 0 0 -1 I I #
point $-1 -42.429273354289379 -5.6574601608083617 13.477981614888751 #
straight-curve $-1 -42.429273354289379 -4.8843283012102798 1.0766736075115324 0 -1 0 I I #
edge $-1 $328 -20.676299304943889 $402 -8.2749912975666753 $394 $425 forward 7 unknown #
point $-1 -42.429273354289379 -13.879853044032757 1.0766736075115375 #
point $-1 -42.429273354289379 -5.6574601608083617 1.0766736075115375 #
vertex $-1 $399 $426 #
straight-curve $-1 -57.95946559426536 -13.879853044032757 13.477981614888751 1 0 0 I I #
vertex $-1 $335 $427 #
point $-1 -37.733298819186686 -12.23537446738788 7.2103403303573526 #
vertex $-1 $339 $428 #
point $-1 -37.733298819186686 -9.7686566024205632 7.2103403303573526 #
vertex $-1 $343 $429 #
point $-1 -37.733298819186686 -7.301938737453245 7.2103403303573526 #
straight-curve $-1 -42.429273354289379 28.099244989473732 0 0 0 -1 I I #
point $-1 -42.429273354289379 -28.099244989473732 -13.477981614888751 #
straight-curve $-1 -42.429273354289379 0 -13.477981614888751 0 1 0 I I #
point $-1 -42.429273354289379 28.099244989473732 -13.477981614888751 #
straight-curve $-1 -42.429273354289379 -13.879853044032757 1.5595890637543821 0 0 -1 I I #
straight-curve $-1 -42.429273354289379 -10.494774508376622 -0.67560976837670417 0 -1 0 I I #
point $-1 -42.429273354289379 -28.099244989473732 -0.67560976837670417 #
point $-1 -42.429273354289379 -13.879853044032757 -0.67560976837670417 #
straight-curve $-1 -42.429273354289379 -28.099244989473732 0 0 0 -1 I I #
straight-curve $-1 0 28.099244989473732 13.477981614888751 -1 0 0 I I #
point $-1 33.409811630067026 28.099244989473736 13.477981614888748 #
straight-curve $-1 42.429273354289379 28.099244989473732 0 0 0 -1 I I #
point $-1 42.429273354289379 28.099244989473732 13.477981614888751 #
point $-1 36.221851194675281 22.554882836676803 7.9337997108497689 #
straight-curve $-1 -42.429273354289379 0 13.477981614888751 0 -1 0 I I #
straight-curve $-1 -42.429273354289379 -13.879853044032757 21.752972912455427 0 0 1 I I #
point $-1 -42.429273354289379 -13.879853044032757 13.477981614888751 #
point $-1 -37.550286106728215 -12.23537446738788 6.5273276312963526 #
point $-1 -37.550286106728215 -9.7686566024205632 6.5273276312963526 #
point $-1 -37.550286106728215 -7.301938737453245 6.5273276312963526 #
End-of-ACIS-data 