500 0 9 0           
7 Unknown 11 ACIS 5.0 NT 24 Fri Mar 26 16:55:09 1999 
-1 9.9999999999999995e-007 1e-010 
body $-1 $9 $-1 $10 #
body $-1 $11 $-1 $12 #
body $-1 $13 $-1 $14 #
body $-1 $15 $-1 $16 #
body $-1 $17 $-1 $18 #
body $-1 $19 $-1 $20 #
body $-1 $21 $-1 $22 #
body $-1 $23 $-1 $24 #
body $-1 $25 $-1 $26 #
lump $-1 $-1 $27 $0 #
transform $-1 1 0 0 0 1 0 0 0 1 71.299783318582712 29.847033229957077 11.394285063433733 1 rotate no_reflect no_shear #
lump $-1 $-1 $28 $1 #
transform $-1 1 0 0 0 1 0 0 0 1 71.299783318582712 29.847033229957077 11.394285063433733 1 rotate no_reflect no_shear #
lump $-1 $-1 $29 $2 #
transform $-1 1 0 0 0 1 0 0 0 1 71.299783318582712 29.847033229957077 11.394285063433733 1 rotate no_reflect no_shear #
lump $-1 $-1 $30 $3 #
transform $-1 1 0 0 0 1 0 0 0 1 71.299783318582712 29.847033229957077 11.394285063433733 1 rotate no_reflect no_shear #
lump $-1 $-1 $31 $4 #
transform $-1 1 0 0 0 1 0 0 0 1 71.299783318582712 29.847033229957077 11.394285063433733 1 rotate no_reflect no_shear #
lump $-1 $-1 $32 $5 #
transform $-1 1 0 0 0 1 0 0 0 1 71.299783318582712 29.847033229957077 11.394285063433733 1 rotate no_reflect no_shear #
lump $-1 $-1 $33 $6 #
transform $-1 1 0 0 0 1 0 0 0 1 71.299783318582712 29.847033229957077 11.394285063433733 1 rotate no_reflect no_shear #
lump $-1 $-1 $34 $7 #
transform $-1 1 0 0 0 1 0 0 0 1 71.299783318582712 29.847033229957077 11.394285063433733 1 rotate no_reflect no_shear #
lump $-1 $-1 $35 $8 #
transform $-1 1 0 0 0 1 0 0 0 1 71.299783318582712 29.847033229957077 11.394285063433733 1 rotate no_reflect no_shear #
shell $-1 $-1 $-1 $36 $-1 $9 #
shell $-1 $-1 $-1 $37 $-1 $11 #
shell $-1 $-1 $-1 $38 $-1 $13 #
shell $-1 $-1 $-1 $39 $-1 $15 #
shell $-1 $-1 $-1 $40 $-1 $17 #
shell $-1 $-1 $-1 $41 $-1 $19 #
shell $-1 $-1 $-1 $42 $-1 $21 #
shell $-1 $-1 $-1 $43 $-1 $23 #
shell $-1 $-1 $-1 $44 $-1 $25 #
face $-1 $45 $46 $27 $-1 $47 forward single #
face $-1 $48 $49 $28 $-1 $50 forward single #
face $-1 $51 $52 $29 $-1 $53 reversed single #
face $-1 $54 $55 $30 $-1 $56 reversed single #
face $-1 $57 $58 $31 $-1 $59 forward single #
face $-1 $60 $61 $32 $-1 $62 forward single #
face $-1 $63 $64 $33 $-1 $65 reversed single #
face $-1 $66 $67 $34 $-1 $68 forward single #
face $-1 $69 $70 $35 $-1 $71 forward single #
face $-1 $72 $73 $27 $-1 $74 reversed single #
loop $-1 $-1 $75 $36 #
plane-surface $-1 0 0 11.394285063433733 0 0 1 1 0 0 forward_v I I I I #
face $-1 $76 $77 $28 $-1 $78 reversed single #
loop $-1 $-1 $79 $37 #
plane-surface $-1 0 -23.001897439520594 -8.3942850634337329 0 0 1 1 0 0 forward_v I I I I #
face $-1 $80 $81 $29 $-1 $82 forward single #
loop $-1 $-1 $83 $38 #
plane-surface $-1 0 19.247750528586497 7.8386184415655169 0 1 0 0 0 1 forward_v I I I I #
face $-1 $84 $85 $30 $-1 $86 reversed single #
loop $-1 $-1 $87 $39 #
plane-surface $-1 -41.07020779099102 14.369492608183705 88.386888393814985 0.61566148304635926 0 0.78801074757464917 0.78801074757464917 0 -0.61566148304635926 forward_v I I I I #
face $-1 $88 $89 $31 $-1 $90 forward single #
loop $-1 $91 $92 $40 #
cone-surface $-1 63.614466590216793 12.27881064229679 5.0042271604315838 -0.61566148304635926 0 -0.78801074757464917 0.78801074757464917 0 -0.61566148304635926 1 I I 0 1 1 forward I I I I #
face $-1 $93 $94 $32 $-1 $95 forward single #
loop $-1 $96 $97 $41 #
cone-surface $-1 63.614466590216793 16.460174574070621 5.0042271604315838 -0.61566148304635926 0 -0.78801074757464917 0.78801074757464917 0 -0.61566148304635926 1 I I 0 1 1 forward I I I I #
face $-1 $98 $99 $33 $-1 $100 reversed single #
loop $-1 $-1 $101 $42 #
plane-surface $-1 -71.299783318582698 14.369492608183705 0.59382771620957442 -0.61566148304635926 0 0.78801074757464917 0.78801074757464917 0 0.61566148304635926 forward_v I I I I #
face $-1 $102 $103 $34 $-1 $104 forward single #
loop $-1 $105 $106 $43 #
cone-surface $-1 -63.614466590216793 12.27881064229679 5.0042271604315713 0.61566148304635926 0 -0.78801074757464917 0.78801074757464917 0 0.61566148304635926 1 I I 0 1 1 forward I I I I #
face $-1 $107 $108 $35 $-1 $109 forward single #
loop $-1 $110 $111 $44 #
cone-surface $-1 -63.614466590216793 16.460174574070621 5.0042271604315713 0.61566148304635926 0 -0.78801074757464917 0.78801074757464917 0 0.61566148304635926 1 I I 0 1 1 forward I I I I #
face $-1 $112 $113 $27 $-1 $114 reversed single #
loop $-1 $-1 $115 $45 #
plane-surface $-1 0 0 -11.394285063433733 0 0 1 1 0 0 forward_v I I I I #
coedge $-1 $116 $117 $118 $119 forward $46 $-1 #
face $-1 $120 $121 $28 $-1 $122 reversed single #
loop $-1 $-1 $123 $48 #
plane-surface $-1 0 -16.15676164908411 -9.8942850634337329 0 -1 0 0 0 -1 forward_v I I I I #
coedge $-1 $124 $125 $126 $127 reversed $49 $-1 #
face $-1 $128 $129 $29 $-1 $130 reversed single #
loop $-1 $-1 $131 $51 #
plane-surface $-1 0 24.547391879271785 9.5554983403567206 0 0 1 1 0 0 forward_v I I I I #
coedge $-1 $132 $133 $134 $135 reversed $52 $-1 #
face $-1 $136 $137 $30 $-1 $138 reversed single #
loop $-1 $-1 $139 $54 #
plane-surface $-1 46.722852886614376 9.4912346877809064 200.75687950338872 0 1 0 0.61566148304635926 0 0.78801074757464917 forward_v I I I I #
coedge $-1 $140 $141 $142 $143 reversed $55 $-1 #
face $-1 $-1 $144 $31 $-1 $145 forward single #
loop $-1 $146 $147 $57 #
cone-surface $-1 62.533296483457093 12.27881064229679 3.6203925572541724 -0.61566148304635926 0 -0.78801074757464917 0.39400537378732459 0 -0.30783074152317963 1 I I -0.70710678118654746 0.70710678118654746 0.5 forward I I I I #
loop $-1 $-1 $148 $40 #
coedge $-1 $92 $92 $149 $150 reversed $58 $-1 #
face $-1 $-1 $151 $32 $-1 $152 forward single #
loop $-1 $153 $154 $60 #
cone-surface $-1 62.533296483457093 16.460174574070621 3.6203925572541724 -0.61566148304635926 0 -0.78801074757464917 0.39400537378732459 0 -0.30783074152317963 1 I I -0.70710678118654746 0.70710678118654746 0.5 forward I I I I #
loop $-1 $-1 $155 $41 #
coedge $-1 $97 $97 $156 $157 reversed $61 $-1 #
face $-1 $158 $159 $33 $-1 $160 forward single #
loop $-1 $-1 $161 $63 #
plane-surface $-1 -159.09284399618809 9.4912346877809064 112.96381882578331 0 1 0 -0.61566148304635926 0 0.78801074757464917 forward_v I I I I #
coedge $-1 $162 $163 $164 $165 reversed $64 $-1 #
face $-1 $-1 $166 $34 $-1 $167 forward single #
loop $-1 $168 $169 $66 #
cone-surface $-1 -62.533296483457093 12.27881064229679 3.62039255725416 0.61566148304635926 0 -0.78801074757464917 0.39400537378732459 0 0.30783074152317963 1 I I -0.70710678118654746 0.70710678118654746 0.5 forward I I I I #
loop $-1 $-1 $170 $43 #
coedge $-1 $106 $106 $171 $172 reversed $67 $-1 #
face $-1 $-1 $173 $35 $-1 $174 forward single #
loop $-1 $175 $176 $69 #
cone-surface $-1 -62.533296483457093 16.460174574070621 3.62039255725416 0.61566148304635926 0 -0.78801074757464917 0.39400537378732459 0 0.30783074152317963 1 I I -0.70710678118654746 0.70710678118654746 0.5 forward I I I I #
loop $-1 $-1 $177 $44 #
coedge $-1 $111 $111 $178 $179 reversed $70 $-1 #
face $-1 $180 $181 $27 $-1 $182 reversed single #
loop $-1 $-1 $183 $72 #
plane-surface $-1 0 -29.847033229957077 0 0 1 0 0 0 1 forward_v I I I I #
coedge $-1 $184 $185 $186 $187 forward $73 $-1 #
coedge $-1 $188 $75 $189 $190 forward $46 $-1 #
coedge $-1 $75 $188 $191 $192 forward $46 $-1 #
coedge $-1 $193 $194 $75 $119 reversed $195 $-1 #
edge $-1 $196 -29.847033229957077 $197 29.847033229957077 $118 $198 forward 7 unknown #
face $-1 $199 $200 $28 $-1 $201 reversed single #
loop $-1 $-1 $202 $76 #
plane-surface $-1 0 0 -11.394285063433733 0 0 1 1 0 0 forward_v I I I I #
coedge $-1 $203 $204 $205 $206 reversed $77 $-1 #
coedge $-1 $207 $79 $204 $208 forward $49 $-1 #
coedge $-1 $79 $207 $209 $210 reversed $49 $-1 #
coedge $-1 $211 $205 $79 $127 forward $200 $-1 #
edge $-1 $212 4.6558129293238135 $213 18.346084510196782 $126 $214 forward 7 unknown #
face $-1 $215 $216 $29 $-1 $217 reversed single #
loop $-1 $-1 $218 $80 #
plane-surface $-1 0 24.547391879271785 6.1217385427743132 0 0 1 1 0 0 forward_v I I I I #
coedge $-1 $219 $220 $221 $222 reversed $81 $-1 #
coedge $-1 $223 $83 $224 $225 reversed $52 $-1 #
coedge $-1 $83 $223 $226 $227 reversed $52 $-1 #
coedge $-1 $228 $218 $83 $135 forward $129 $-1 #
edge $-1 $229 -71.299783318582712 $230 71.299783318582712 $83 $231 forward 7 unknown #
face $-1 $232 $233 $30 $-1 $234 forward single #
loop $-1 $-1 $235 $84 #
plane-surface $-1 71.299783318582712 0 0 -1 0 0 0 0 1 forward_v I I I I #
coedge $-1 $236 $237 $238 $239 reversed $85 $-1 #
coedge $-1 $240 $87 $241 $242 forward $55 $-1 #
coedge $-1 $87 $240 $236 $243 forward $55 $-1 #
coedge $-1 $238 $244 $87 $143 forward $233 $-1 #
edge $-1 $245 -12.063004224494652 $246 -2.3064883836890537 $142 $247 forward 7 unknown #
loop $-1 $-1 $149 $88 #
plane-surface $-1 -41.07020779099102 14.369492608183705 88.386888393814985 0.61566148304635926 0 0.78801074757464917 0.78801074757464917 0 -0.61566148304635926 forward_v I I I I #
loop $-1 $-1 $248 $57 #
coedge $-1 $147 $147 $148 $249 reversed $89 $-1 #
coedge $-1 $148 $148 $147 $249 forward $91 $-1 #
coedge $-1 $149 $149 $92 $150 forward $144 $-1 #
edge $-1 $250 0 $250 6.2831853071796004 $149 $251 forward 7 unknown #
loop $-1 $-1 $156 $93 #
plane-surface $-1 -41.07020779099102 14.369492608183705 88.386888393814985 0.61566148304635926 0 0.78801074757464917 0.78801074757464917 0 -0.61566148304635926 forward_v I I I I #
loop $-1 $-1 $252 $60 #
coedge $-1 $154 $154 $155 $253 reversed $94 $-1 #
coedge $-1 $155 $155 $154 $253 forward $96 $-1 #
coedge $-1 $156 $156 $97 $157 forward $151 $-1 #
edge $-1 $254 0 $254 6.2831853071796004 $156 $255 forward 7 unknown #
face $-1 $256 $257 $33 $-1 $258 reversed single #
loop $-1 $-1 $259 $98 #
plane-surface $-1 0 19.247750528586497 7.8386184415655169 0 1 0 0 0 1 forward_v I I I I #
coedge $-1 $260 $261 $262 $263 reversed $99 $-1 #
coedge $-1 $264 $101 $259 $265 forward $64 $-1 #
coedge $-1 $101 $264 $260 $266 forward $64 $-1 #
coedge $-1 $262 $267 $101 $165 forward $257 $-1 #
edge $-1 $268 -12.063004224494652 $269 -2.3064883836890537 $164 $270 forward 7 unknown #
loop $-1 $-1 $171 $102 #
plane-surface $-1 -71.299783318582698 14.369492608183705 0.59382771620957442 -0.61566148304635926 0 0.78801074757464917 0.78801074757464917 0 0.61566148304635926 forward_v I I I I #
loop $-1 $-1 $271 $66 #
coedge $-1 $169 $169 $170 $272 reversed $103 $-1 #
coedge $-1 $170 $170 $169 $272 forward $105 $-1 #
coedge $-1 $171 $171 $106 $172 forward $166 $-1 #
edge $-1 $273 0 $273 6.2831853071796004 $171 $274 forward 7 unknown #
loop $-1 $-1 $178 $107 #
plane-surface $-1 -71.299783318582698 14.369492608183705 0.59382771620957442 -0.61566148304635926 0 0.78801074757464917 0.78801074757464917 0 0.61566148304635926 forward_v I I I I #
loop $-1 $-1 $275 $69 #
coedge $-1 $176 $176 $177 $276 reversed $108 $-1 #
coedge $-1 $177 $177 $176 $276 forward $110 $-1 #
coedge $-1 $178 $178 $111 $179 forward $173 $-1 #
edge $-1 $277 0 $277 6.2831853071796004 $178 $278 forward 7 unknown #
face $-1 $279 $280 $27 $-1 $281 reversed single #
loop $-1 $-1 $282 $112 #
plane-surface $-1 -71.299783318582712 0 0 1 0 0 0 0 -1 forward_v I I I I #
coedge $-1 $283 $191 $284 $285 forward $113 $-1 #
coedge $-1 $286 $115 $283 $287 forward $73 $-1 #
coedge $-1 $115 $286 $288 $289 forward $73 $-1 #
coedge $-1 $194 $193 $115 $187 reversed $195 $-1 #
edge $-1 $290 -29.847033229957077 $291 29.847033229957077 $186 $292 forward 7 unknown #
coedge $-1 $117 $116 $293 $294 forward $46 $-1 #
coedge $-1 $295 $296 $116 $190 reversed $280 $-1 #
edge $-1 $197 -71.299783318582712 $297 71.299783318582712 $189 $298 forward 7 unknown #
coedge $-1 $183 $299 $117 $192 reversed $113 $-1 #
edge $-1 $300 -71.299783318582712 $196 71.299783318582712 $191 $301 forward 7 unknown #
coedge $-1 $186 $118 $299 $302 forward $195 $-1 #
coedge $-1 $118 $186 $295 $303 reversed $195 $-1 #
loop $-1 $-1 $193 $279 #
vertex $-1 $119 $304 #
vertex $-1 $119 $305 #
straight-curve $-1 71.299783318582712 0 11.394285063433733 0 1 0 I I #
face $-1 $306 $307 $28 $-1 $308 reversed single #
loop $-1 $-1 $205 $120 #
plane-surface $-1 71.299783318582712 0 0 -1 0 0 0 0 1 forward_v I I I I #
coedge $-1 $309 $310 $203 $311 forward $121 $-1 #
coedge $-1 $312 $123 $202 $311 reversed $77 $-1 #
coedge $-1 $123 $312 $124 $208 reversed $77 $-1 #
coedge $-1 $126 $313 $123 $206 forward $200 $-1 #
edge $-1 $314 -6.4471425317168665 $212 -3.4471425317168665 $205 $315 forward 7 unknown #
coedge $-1 $125 $124 $316 $317 reversed $49 $-1 #
edge $-1 $212 -71.299783318582712 $318 71.299783318582712 $204 $319 forward 7 unknown #
coedge $-1 $320 $321 $125 $210 forward $307 $-1 #
edge $-1 $213 -71.299783318582712 $322 71.299783318582712 $209 $323 forward 7 unknown #
coedge $-1 $313 $126 $321 $324 forward $200 $-1 #
vertex $-1 $127 $325 #
vertex $-1 $324 $326 #
straight-curve $-1 71.299783318582712 -11.500948719760297 -8.3942850634337329 0 -1 0 I I #
face $-1 $327 $328 $29 $-1 $329 reversed single #
loop $-1 $-1 $221 $128 #
plane-surface $-1 71.299783318582712 0 0 -1 0 0 0 0 1 forward_v I I I I #
coedge $-1 $134 $330 $331 $332 reversed $129 $-1 #
coedge $-1 $333 $131 $334 $335 reversed $81 $-1 #
coedge $-1 $131 $333 $223 $336 forward $81 $-1 #
coedge $-1 $224 $337 $131 $222 forward $216 $-1 #
edge $-1 $338 -17.573337290321181 $339 -6.9740545889506045 $221 $340 forward 7 unknown #
coedge $-1 $133 $132 $220 $336 reversed $52 $-1 #
coedge $-1 $331 $221 $132 $225 forward $216 $-1 #
edge $-1 $339 -5.6361891195739622 $229 -2.2024293219915547 $224 $341 forward 7 unknown #
coedge $-1 $342 $343 $133 $227 forward $328 $-1 #
edge $-1 $230 2.2024293219915547 $344 5.6361891195739622 $226 $345 forward 7 unknown #
coedge $-1 $330 $134 $343 $346 reversed $129 $-1 #
vertex $-1 $332 $347 #
vertex $-1 $346 $348 #
straight-curve $-1 0 19.247750528586497 6.1217385427743132 -1 0 0 I I #
face $-1 $-1 $349 $30 $-1 $350 forward single #
loop $-1 $-1 $244 $136 #
plane-surface $-1 0 0 11.394285063433733 0 0 1 1 0 0 forward_v I I I I #
coedge $-1 $351 $352 $353 $354 forward $137 $-1 #
coedge $-1 $237 $139 $141 $243 reversed $85 $-1 #
coedge $-1 $139 $236 $355 $356 reversed $85 $-1 #
coedge $-1 $357 $142 $139 $239 forward $233 $-1 #
edge $-1 $246 34.114402149016748 $358 47.938356875275524 $238 $359 forward 7 unknown #
coedge $-1 $141 $140 $352 $360 reversed $55 $-1 #
coedge $-1 $361 $353 $140 $242 reversed $349 $-1 #
edge $-1 $245 125.05671615091717 $362 142.59956663716542 $241 $363 forward 7 unknown #
edge $-1 $364 -142.59956663716542 $246 -125.05671615091717 $236 $365 forward 7 unknown #
coedge $-1 $142 $357 $361 $366 forward $233 $-1 #
vertex $-1 $366 $367 #
vertex $-1 $143 $368 #
straight-curve $-1 57.475828592323928 7.1847463040918527 11.394285063433728 0 -1 0 I I #
coedge $-1 $248 $248 $-1 $369 reversed $146 $-1 #
edge $-1 $370 0 $370 6.2831853071796004 $147 $371 forward 7 unknown #
vertex $-1 $150 $372 #
ellipse-curve $-1 64.387805955453317 12.27881064229679 5.9940563898216652 0.61566148304635926 0 0.78801074757464917 0.78801074757464917 0 -0.61566148304635926 1 I I #
coedge $-1 $252 $252 $-1 $373 reversed $153 $-1 #
edge $-1 $374 0 $374 6.2831853071796004 $154 $375 forward 7 unknown #
vertex $-1 $157 $376 #
ellipse-curve $-1 64.387805955453317 16.460174574070621 5.9940563898216652 0.61566148304635926 0 0.78801074757464917 0.78801074757464917 0 -0.61566148304635926 1 I I #
face $-1 $-1 $377 $33 $-1 $378 forward single #
loop $-1 $-1 $267 $158 #
plane-surface $-1 -71.299783318582712 0 0 1 0 0 0 0 -1 forward_v I I I I #
coedge $-1 $379 $380 $162 $265 reversed $159 $-1 #
coedge $-1 $261 $161 $163 $266 reversed $99 $-1 #
coedge $-1 $161 $260 $381 $382 reversed $99 $-1 #
coedge $-1 $383 $164 $161 $263 forward $257 $-1 #
edge $-1 $269 -55.888081696682093 $384 -45.087624349457919 $262 $385 forward 7 unknown #
coedge $-1 $163 $162 $386 $387 reversed $64 $-1 #
edge $-1 $268 -1.8033521786330445e-014 $388 17.542850486248277 $259 $389 forward 7 unknown #
edge $-1 $390 -17.542850486248277 $269 1.8033521786330445e-014 $260 $391 forward 7 unknown #
coedge $-1 $164 $383 $379 $392 forward $257 $-1 #
vertex $-1 $165 $393 #
vertex $-1 $165 $394 #
straight-curve $-1 -71.299783318582712 7.1847463040918527 0.59382771620957131 0 -1 0 I I #
coedge $-1 $271 $271 $-1 $395 reversed $168 $-1 #
edge $-1 $396 0 $396 6.2831853071796004 $169 $397 forward 7 unknown #
vertex $-1 $172 $398 #
ellipse-curve $-1 -64.387805955453302 12.27881064229679 5.9940563898216466 -0.61566148304635926 0 0.78801074757464917 0.78801074757464917 0 0.61566148304635926 1 I I #
coedge $-1 $275 $275 $-1 $399 reversed $175 $-1 #
edge $-1 $400 0 $400 6.2831853071796004 $176 $401 forward 7 unknown #
vertex $-1 $179 $402 #
ellipse-curve $-1 -64.387805955453302 16.460174574070621 5.9940563898216466 -0.61566148304635926 0 0.78801074757464917 0.78801074757464917 0 0.61566148304635926 1 I I #
face $-1 $-1 $195 $27 $-1 $403 reversed single #
loop $-1 $-1 $295 $180 #
plane-surface $-1 0 29.847033229957077 0 0 -1 0 0 0 -1 forward_v I I I I #
coedge $-1 $404 $293 $296 $405 forward $181 $-1 #
coedge $-1 $299 $183 $184 $287 reversed $113 $-1 #
coedge $-1 $293 $404 $183 $285 reversed $181 $-1 #
edge $-1 $300 -11.394285063433733 $406 11.394285063433733 $284 $407 forward 7 unknown #
coedge $-1 $185 $184 $404 $408 forward $73 $-1 #
edge $-1 $291 -71.299783318582712 $406 71.299783318582712 $283 $409 forward 7 unknown #
coedge $-1 $296 $295 $185 $289 reversed $280 $-1 #
edge $-1 $410 -71.299783318582712 $290 71.299783318582712 $288 $411 forward 7 unknown #
vertex $-1 $187 $412 #
vertex $-1 $302 $413 #
straight-curve $-1 71.299783318582712 0 -11.394285063433733 0 -1 0 I I #
coedge $-1 $282 $284 $188 $294 reversed $181 $-1 #
edge $-1 $297 -29.847033229957077 $300 29.847033229957077 $293 $414 forward 7 unknown #
coedge $-1 $288 $189 $194 $303 forward $280 $-1 #
coedge $-1 $189 $288 $282 $405 reversed $280 $-1 #
vertex $-1 $190 $415 #
straight-curve $-1 0 29.847033229957077 11.394285063433733 -1 0 0 I I #
coedge $-1 $191 $283 $193 $302 reversed $113 $-1 #
vertex $-1 $294 $416 #
straight-curve $-1 0 -29.847033229957077 11.394285063433733 1 0 0 I I #
edge $-1 $196 -11.394285063433733 $291 11.394285063433733 $193 $417 forward 7 unknown #
edge $-1 $197 -11.394285063433733 $290 11.394285063433733 $194 $418 forward 7 unknown #
point $-1 71.299783318582712 -29.847033229957077 11.394285063433733 #
point $-1 71.299783318582712 29.847033229957077 11.394285063433733 #
face $-1 $-1 $419 $28 $-1 $420 reversed single #
loop $-1 $-1 $209 $199 #
plane-surface $-1 0 -29.847033229957077 0 0 1 0 0 0 1 forward_v I I I I #
coedge $-1 $421 $202 $313 $422 forward $121 $-1 #
coedge $-1 $202 $421 $423 $424 forward $121 $-1 #
edge $-1 $425 -71.299783318582712 $314 71.299783318582712 $202 $426 forward 7 unknown #
coedge $-1 $204 $203 $427 $428 reversed $77 $-1 #
coedge $-1 $205 $211 $309 $422 reversed $200 $-1 #
vertex $-1 $422 $429 #
straight-curve $-1 71.299783318582712 -16.15676164908411 -4.9471425317168665 0 0 1 I I #
coedge $-1 $427 $430 $207 $317 forward $419 $-1 #
edge $-1 $322 -18.346084510196782 $318 -4.6558129293238135 $316 $431 forward 7 unknown #
vertex $-1 $317 $432 #
straight-curve $-1 0 -16.15676164908411 -8.3942850634337329 -1 0 0 I I #
coedge $-1 $433 $209 $430 $434 forward $307 $-1 #
coedge $-1 $209 $433 $211 $324 reversed $307 $-1 #
vertex $-1 $434 $435 #
straight-curve $-1 0 -29.847033229957077 -8.3942850634337329 -1 0 0 I I #
edge $-1 $213 8.3942850634337329 $436 11.394285063433733 $211 $437 forward 7 unknown #
point $-1 71.299783318582712 -16.15676164908411 -8.3942850634337329 #
point $-1 71.299783318582712 -29.847033229957077 -8.3942850634337329 #
face $-1 $-1 $438 $29 $-1 $439 reversed single #
loop $-1 $-1 $342 $215 #
plane-surface $-1 -71.299783318582712 0 0 1 0 0 0 0 -1 forward_v I I I I #
coedge $-1 $218 $228 $440 $441 reversed $129 $-1 #
coedge $-1 $337 $224 $218 $332 forward $216 $-1 #
edge $-1 $229 6.9740545889506045 $442 17.573337290321181 $331 $443 forward 7 unknown #
coedge $-1 $220 $219 $342 $444 reversed $81 $-1 #
coedge $-1 $445 $446 $219 $335 forward $438 $-1 #
edge $-1 $447 -71.299783318582712 $338 71.299783318582712 $334 $448 forward 7 unknown #
edge $-1 $344 -71.299783318582712 $339 71.299783318582712 $223 $449 forward 7 unknown #
coedge $-1 $221 $331 $445 $450 reversed $216 $-1 #
vertex $-1 $450 $451 #
vertex $-1 $222 $452 #
straight-curve $-1 71.299783318582712 12.273695939635893 9.5554983403567206 0 -1 0 I I #
straight-curve $-1 71.299783318582712 19.247750528586497 3.9193092207827585 0 0 -1 I I #
coedge $-1 $453 $226 $333 $444 forward $328 $-1 #
coedge $-1 $226 $453 $228 $346 forward $328 $-1 #
vertex $-1 $444 $454 #
straight-curve $-1 -71.299783318582712 19.247750528586497 3.9193092207827585 0 0 1 I I #
edge $-1 $455 -17.573337290321181 $230 -6.9740545889506045 $343 $456 forward 7 unknown #
point $-1 71.299783318582712 19.247750528586497 6.1217385427743132 #
point $-1 -71.299783318582712 19.247750528586497 6.1217385427743132 #
loop $-1 $-1 $241 $232 #
plane-surface $-1 0 19.247750528586497 7.8386184415655169 0 1 0 0 0 1 forward_v I I I I #
coedge $-1 $355 $235 $357 $457 reversed $137 $-1 #
coedge $-1 $235 $355 $240 $360 forward $137 $-1 #
coedge $-1 $241 $361 $235 $354 reversed $349 $-1 #
edge $-1 $362 -99.78461203548477 $458 -88.984154688260631 $235 $459 forward 7 unknown #
coedge $-1 $352 $351 $237 $356 forward $137 $-1 #
edge $-1 $358 88.984154688260631 $364 99.78461203548477 $355 $460 forward 7 unknown #
coedge $-1 $244 $238 $351 $457 forward $233 $-1 #
vertex $-1 $457 $461 #
straight-curve $-1 23.361426443307188 9.4912346877809064 11.394285063433728 1 0 0 I I #
edge $-1 $364 2.3064883836890537 $362 12.063004224494652 $352 $462 forward 7 unknown #
coedge $-1 $353 $241 $244 $366 reversed $349 $-1 #
vertex $-1 $354 $463 #
straight-curve $-1 -41.07020779099102 19.247750528586504 88.386888393814985 0.78801074757464917 0 -0.61566148304635926 I I #
vertex $-1 $360 $464 #
straight-curve $-1 -41.07020779099102 9.4912346877809064 88.386888393814985 -0.78801074757464917 0 0.61566148304635926 I I #
edge $-1 $458 -47.938356875275524 $245 -34.114402149016748 $244 $465 forward 7 unknown #
point $-1 57.475828592323936 19.247750528586504 11.394285063433728 #
point $-1 57.475828592323936 9.4912346877809064 11.394285063433728 #
edge $-1 $466 1 $466 0 $248 $-1 forward 7 unknown #
vertex $-1 $249 $467 #
ellipse-curve $-1 62.841127224980269 12.27881064229679 4.014397931041497 0.61566148304635926 0 0.78801074757464917 0.78801074757464917 0 -0.61566148304635926 1 I I #
point $-1 65.175816703027962 12.27881064229679 5.3783949067753118 #
edge $-1 $468 1 $468 0 $252 $-1 forward 7 unknown #
vertex $-1 $253 $469 #
ellipse-curve $-1 62.841127224980269 16.460174574070621 4.014397931041497 0.61566148304635926 0 0.78801074757464917 0.78801074757464917 0 -0.61566148304635926 1 I I #
point $-1 65.175816703027962 16.460174574070621 5.3783949067753118 #
loop $-1 $-1 $470 $256 #
plane-surface $-1 0 0 11.394285063433733 0 0 1 1 0 0 forward_v I I I I #
coedge $-1 $380 $259 $267 $392 reversed $159 $-1 #
coedge $-1 $259 $379 $470 $471 reversed $159 $-1 #
coedge $-1 $386 $472 $261 $382 forward $377 $-1 #
edge $-1 $384 8.2466386795113351 $390 22.070593405770154 $381 $473 forward 7 unknown #
coedge $-1 $267 $262 $472 $474 reversed $257 $-1 #
vertex $-1 $382 $475 #
straight-curve $-1 -71.299783318582712 9.4912346877809064 56.481909412891653 0 0 1 I I #
coedge $-1 $470 $381 $264 $387 forward $377 $-1 #
edge $-1 $390 2.3064883836890537 $388 12.063004224494652 $386 $476 forward 7 unknown #
vertex $-1 $471 $477 #
straight-curve $-1 -71.299783318582698 19.247750528586504 0.59382771620957442 0.78801074757464917 0 0.61566148304635926 I I #
vertex $-1 $387 $478 #
straight-curve $-1 -71.299783318582698 9.4912346877809064 0.59382771620957442 -0.78801074757464917 0 -0.61566148304635926 I I #
edge $-1 $479 45.087624349457919 $268 55.888081696682093 $267 $480 forward 7 unknown #
point $-1 -71.299783318582712 19.247750528586504 0.59382771620956332 #
point $-1 -71.299783318582712 9.4912346877809064 0.59382771620956332 #
edge $-1 $481 1 $481 0 $271 $-1 forward 7 unknown #
vertex $-1 $272 $482 #
ellipse-curve $-1 -62.841127224980269 12.27881064229679 4.0143979310414846 -0.61566148304635926 0 0.78801074757464917 0.78801074757464917 0 0.61566148304635926 1 I I #
point $-1 -63.599795207878664 12.27881064229679 6.6097178728680177 #
edge $-1 $483 1 $483 0 $275 $-1 forward 7 unknown #
vertex $-1 $276 $484 #
ellipse-curve $-1 -62.841127224980269 16.460174574070621 4.0143979310414846 -0.61566148304635926 0 0.78801074757464917 0.78801074757464917 0 0.61566148304635926 1 I I #
point $-1 -63.599795207878664 16.460174574070621 6.6097178728680177 #
plane-surface $-1 71.299783318582712 0 0 -1 0 0 0 0 1 forward_v I I I I #
coedge $-1 $284 $282 $286 $408 reversed $181 $-1 #
edge $-1 $297 -11.394285063433733 $410 11.394285063433733 $296 $485 forward 7 unknown #
vertex $-1 $408 $486 #
straight-curve $-1 -71.299783318582712 -29.847033229957077 0 0 0 -1 I I #
edge $-1 $406 -29.847033229957077 $410 29.847033229957077 $404 $487 forward 7 unknown #
straight-curve $-1 0 -29.847033229957077 -11.394285063433733 -1 0 0 I I #
vertex $-1 $289 $488 #
straight-curve $-1 0 29.847033229957077 -11.394285063433733 1 0 0 I I #
point $-1 71.299783318582712 29.847033229957077 -11.394285063433733 #
point $-1 71.299783318582712 -29.847033229957077 -11.394285063433733 #
straight-curve $-1 -71.299783318582712 0 11.394285063433733 0 -1 0 I I #
point $-1 -71.299783318582712 29.847033229957077 11.394285063433733 #
point $-1 -71.299783318582712 -29.847033229957077 11.394285063433733 #
straight-curve $-1 71.299783318582712 -29.847033229957077 0 0 0 -1 I I #
straight-curve $-1 71.299783318582712 29.847033229957077 0 0 0 -1 I I #
loop $-1 $-1 $427 $306 #
plane-surface $-1 -71.299783318582712 0 0 1 0 0 0 0 -1 forward_v I I I I #
coedge $-1 $310 $309 $433 $489 forward $121 $-1 #
edge $-1 $314 16.15676164908411 $436 29.847033229957077 $313 $490 forward 7 unknown #
coedge $-1 $430 $427 $310 $424 reversed $419 $-1 #
edge $-1 $491 -29.847033229957077 $425 -16.15676164908411 $423 $492 forward 7 unknown #
vertex $-1 $428 $493 #
straight-curve $-1 0 -16.15676164908411 -11.394285063433733 1 0 0 I I #
coedge $-1 $423 $316 $312 $428 forward $419 $-1 #
edge $-1 $318 3.4471425317168665 $425 6.4471425317168665 $427 $494 forward 7 unknown #
point $-1 71.299783318582712 -16.15676164908411 -11.394285063433733 #
coedge $-1 $316 $423 $320 $434 reversed $419 $-1 #
straight-curve $-1 -71.299783318582712 -11.500948719760297 -8.3942850634337329 0 1 0 I I #
point $-1 -71.299783318582712 -16.15676164908411 -8.3942850634337329 #
coedge $-1 $321 $320 $421 $489 reversed $307 $-1 #
edge $-1 $322 8.3942850634337329 $491 11.394285063433733 $430 $495 forward 7 unknown #
point $-1 -71.299783318582712 -29.847033229957077 -8.3942850634337329 #
vertex $-1 $324 $496 #
straight-curve $-1 71.299783318582712 -29.847033229957077 0 0 0 -1 I I #
loop $-1 $-1 $334 $327 #
plane-surface $-1 0 29.847033229957077 0 0 -1 0 0 0 -1 forward_v I I I I #
coedge $-1 $446 $445 $330 $441 forward $438 $-1 #
edge $-1 $442 -71.299783318582712 $455 71.299783318582712 $440 $497 forward 7 unknown #
vertex $-1 $441 $498 #
straight-curve $-1 71.299783318582712 12.273695939635893 6.1217385427743132 0 1 0 I I #
edge $-1 $344 6.9740545889506045 $447 17.573337290321181 $342 $499 forward 7 unknown #
coedge $-1 $440 $334 $337 $450 forward $438 $-1 #
coedge $-1 $334 $440 $453 $500 reversed $438 $-1 #
vertex $-1 $500 $501 #
straight-curve $-1 0 29.847033229957077 9.5554983403567206 1 0 0 I I #
straight-curve $-1 0 19.247750528586497 9.5554983403567206 1 0 0 I I #
edge $-1 $338 -9.5554983403567206 $442 -6.1217385427743132 $337 $502 forward 7 unknown #
point $-1 71.299783318582712 29.847033229957074 9.5554983403567206 #
point $-1 71.299783318582712 19.247750528586497 9.5554983403567206 #
coedge $-1 $343 $342 $446 $500 forward $328 $-1 #
point $-1 -71.299783318582712 19.247750528586497 9.5554983403567206 #
vertex $-1 $441 $503 #
straight-curve $-1 -71.299783318582712 12.273695939635893 6.1217385427743132 0 -1 0 I I #
edge $-1 $358 9.4912346877809064 $458 19.247750528586504 $351 $504 forward 7 unknown #
vertex $-1 $354 $505 #
straight-curve $-1 71.299783318582712 19.247750528586504 100.37843975169436 0 0 1 I I #
straight-curve $-1 71.299783318582712 9.4912346877809064 100.37843975169436 0 0 -1 I I #
point $-1 71.299783318582712 9.4912346877809064 11.394285063433733 #
straight-curve $-1 71.299783318582726 7.1847463040918527 0.59382771620958863 0 1 0 I I #
point $-1 71.299783318582712 19.247750528586504 0.59382771620958863 #
point $-1 71.299783318582712 9.4912346877809064 0.59382771620958863 #
straight-curve $-1 23.361426443307188 19.247750528586504 11.394285063433728 -1 0 0 I I #
vertex $-1 $369 $506 #
point $-1 63.629137972554922 12.27881064229679 3.3987364479951379 #
vertex $-1 $373 $507 #
point $-1 63.629137972554922 16.460174574070621 3.3987364479951379 #
coedge $-1 $472 $386 $380 $471 forward $377 $-1 #
edge $-1 $388 -22.070593405770154 $479 -8.2466386795113351 $470 $508 forward 7 unknown #
coedge $-1 $381 $470 $383 $474 forward $377 $-1 #
straight-curve $-1 -79.546421998094047 9.4912346877809064 11.394285063433735 1 0 0 I I #
edge $-1 $479 -19.247750528586504 $384 -9.4912346877809064 $383 $509 forward 7 unknown #
point $-1 -71.299783318582712 9.4912346877809064 11.394285063433733 #
straight-curve $-1 -57.475828592323907 7.1847463040918527 11.394285063433733 0 1 0 I I #
point $-1 -57.475828592323893 19.247750528586504 11.394285063433733 #
point $-1 -57.475828592323893 9.4912346877809064 11.394285063433733 #
vertex $-1 $474 $510 #
straight-curve $-1 -71.299783318582712 19.247750528586504 56.481909412891653 0 0 -1 I I #
vertex $-1 $395 $511 #
point $-1 -62.053116477405624 12.27881064229679 4.6300594140878442 #
vertex $-1 $399 $512 #
point $-1 -62.053116477405624 16.460174574070621 4.6300594140878442 #
straight-curve $-1 -71.299783318582712 29.847033229957077 0 0 0 -1 I I #
point $-1 -71.299783318582712 -29.847033229957077 -11.394285063433733 #
straight-curve $-1 -71.299783318582712 0 -11.394285063433733 0 1 0 I I #
point $-1 -71.299783318582712 29.847033229957077 -11.394285063433733 #
edge $-1 $436 -71.299783318582712 $491 71.299783318582712 $433 $513 forward 7 unknown #
straight-curve $-1 71.299783318582712 0 -11.394285063433733 0 -1 0 I I #
vertex $-1 $424 $514 #
straight-curve $-1 -71.299783318582712 0 -11.394285063433733 0 1 0 I I #
point $-1 -71.299783318582712 -16.15676164908411 -11.394285063433733 #
straight-curve $-1 -71.299783318582712 -16.15676164908411 -4.9471425317168665 0 0 -1 I I #
straight-curve $-1 -71.299783318582712 -29.847033229957077 0 0 0 -1 I I #
point $-1 71.299783318582712 -29.847033229957077 -11.394285063433733 #
straight-curve $-1 0 29.847033229957077 6.1217385427743132 -1 0 0 I I #
point $-1 71.299783318582712 29.847033229957074 6.1217385427743132 #
straight-curve $-1 -71.299783318582712 12.273695939635893 9.5554983403567206 0 1 0 I I #
edge $-1 $447 -9.5554983403567206 $455 -6.1217385427743132 $446 $515 forward 7 unknown #
point $-1 -71.299783318582712 29.847033229957074 9.5554983403567206 #
straight-curve $-1 71.299783318582712 29.847033229957077 0 0 0 -1 I I #
point $-1 -71.299783318582712 29.847033229957074 6.1217385427743132 #
straight-curve $-1 71.299783318582712 0 11.394285063433733 0 1 0 I I #
point $-1 71.299783318582712 19.247750528586504 11.394285063433733 #
point $-1 62.225465741933917 12.27881064229679 3.2263871834668478 #
point $-1 62.225465741933917 16.460174574070621 3.2263871834668478 #
straight-curve $-1 -79.546421998094047 19.247750528586504 11.394285063433735 -1 0 0 I I #
straight-curve $-1 -71.299783318582712 0 11.394285063433733 0 -1 0 I I #
point $-1 -71.299783318582712 19.247750528586504 11.394285063433733 #
point $-1 -62.225465741933917 12.27881064229679 3.2263871834668354 #
point $-1 -62.225465741933917 16.460174574070621 3.2263871834668354 #
straight-curve $-1 0 -29.847033229957077 -11.394285063433733 -1 0 0 I I #
point $-1 -71.299783318582712 -29.847033229957077 -11.394285063433733 #
straight-curve $-1 -71.299783318582712 29.847033229957077 0 0 0 -1 I I #
End-of-ACIS-data 