500 0 8 0           
7 Unknown 11 ACIS 5.0 NT 24 Fri Mar 26 20:44:11 1999 
-1 9.9999999999999995e-007 1e-010 
body $-1 $8 $-1 $9 #
body $-1 $10 $-1 $11 #
body $-1 $12 $-1 $13 #
body $-1 $14 $-1 $15 #
body $-1 $16 $-1 $17 #
body $-1 $18 $-1 $19 #
body $-1 $20 $-1 $21 #
body $-1 $22 $-1 $23 #
lump $-1 $-1 $24 $0 #
transform $-1 1 0 0 0 1 0 0 0 1 59.362163151951663 33.606009902301196 9.0820428933942008 1 rotate no_reflect no_shear #
lump $-1 $-1 $25 $1 #
transform $-1 1 0 0 0 1 0 0 0 1 59.362163151951663 33.606009902301196 9.0820428933942008 1 rotate no_reflect no_shear #
lump $-1 $-1 $26 $2 #
transform $-1 1 0 0 0 1 0 0 0 1 59.362163151951663 33.606009902301196 9.0820428933942008 1 rotate no_reflect no_shear #
lump $-1 $-1 $27 $3 #
transform $-1 1 0 0 0 1 0 0 0 1 59.362163151951663 33.606009902301196 9.0820428933942008 1 rotate no_reflect no_shear #
lump $-1 $-1 $28 $4 #
transform $-1 1 0 0 0 1 0 0 0 1 59.362163151951663 33.606009902301196 9.0820428933942008 1 rotate no_reflect no_shear #
lump $-1 $-1 $29 $5 #
transform $-1 1 0 0 0 1 0 0 0 1 59.362163151951663 33.606009902301196 9.0820428933942008 1 rotate no_reflect no_shear #
lump $-1 $-1 $30 $6 #
transform $-1 1 0 0 0 1 0 0 0 1 59.362163151951663 33.606009902301196 9.0820428933942008 1 rotate no_reflect no_shear #
lump $-1 $-1 $31 $7 #
transform $-1 1 0 0 0 1 0 0 0 1 59.362163151951663 33.606009902301196 9.0820428933942008 1 rotate no_reflect no_shear #
shell $-1 $-1 $-1 $32 $-1 $8 #
shell $-1 $-1 $-1 $33 $-1 $10 #
shell $-1 $-1 $-1 $34 $-1 $12 #
shell $-1 $-1 $-1 $35 $-1 $14 #
shell $-1 $-1 $-1 $36 $-1 $16 #
shell $-1 $-1 $-1 $37 $-1 $18 #
shell $-1 $-1 $-1 $38 $-1 $20 #
shell $-1 $-1 $-1 $39 $-1 $22 #
face $-1 $40 $41 $24 $-1 $42 forward single #
face $-1 $43 $44 $25 $-1 $45 reversed single #
face $-1 $46 $47 $26 $-1 $48 reversed single #
face $-1 $49 $50 $27 $-1 $51 forward single #
face $-1 $52 $53 $28 $-1 $54 forward single #
face $-1 $55 $56 $29 $-1 $57 reversed single #
face $-1 $58 $59 $30 $-1 $60 forward single #
face $-1 $61 $62 $31 $-1 $63 forward single #
face $-1 $64 $65 $24 $-1 $66 reversed single #
loop $-1 $-1 $67 $32 #
plane-surface $-1 0 0 9.0820428933942008 0 0 1 1 0 0 forward_v I I I I #
face $-1 $68 $69 $25 $-1 $70 reversed single #
loop $-1 $-1 $71 $33 #
plane-surface $-1 -55.860103908207911 -19.038764553379444 0 0 1 0 0 0 1 forward_v I I I I #
face $-1 $72 $73 $26 $-1 $74 reversed single #
loop $-1 $-1 $75 $34 #
plane-surface $-1 53.724549598439488 -123.20839735340724 79.969051797629561 -1 0 0 0 -0.75470958851134928 0.65605901945558964 forward_v I I I I #
face $-1 $76 $77 $27 $-1 $78 forward single #
loop $-1 $79 $80 $35 #
cone-surface $-1 42.934104403748961 -27.91345332689545 3.2780013698720363 0 0.75470958851134928 -0.65605901945558964 2 0 0 1 I I 0 1 2 forward I I I I #
face $-1 $81 $82 $28 $-1 $83 forward single #
loop $-1 $84 $85 $36 #
cone-surface $-1 49.408371520563264 -27.91345332689545 3.2780013698720363 0 0.75470958851134928 -0.65605901945558964 2 0 0 1 I I 0 1 2 forward I I I I #
face $-1 $86 $87 $29 $-1 $88 reversed single #
loop $-1 $-1 $89 $37 #
plane-surface $-1 -52.35804466446416 104.85961343692634 121.47144828289501 1 0 0 0 -0.87461971476443456 -0.48480960649040278 forward_v I I I I #
face $-1 $90 $91 $30 $-1 $92 forward single #
loop $-1 $93 $94 $38 #
cone-surface $-1 -46.312745660271517 31.682597925087482 6.64624307449479 0 -0.87461971476443456 -0.48480960649040278 0.5 0 0 1 I I 0 1 0.5 forward I I I I #
face $-1 $95 $96 $31 $-1 $97 forward single #
loop $-1 $98 $99 $39 #
cone-surface $-1 -37.244797153982546 31.682597925087482 6.64624307449479 0 -0.87461971476443456 -0.48480960649040278 0.5 0 0 1 I I 0 1 0.5 forward I I I I #
face $-1 $100 $101 $24 $-1 $102 reversed single #
loop $-1 $-1 $103 $40 #
plane-surface $-1 0 0 -9.0820428933942008 0 0 1 1 0 0 forward_v I I I I #
coedge $-1 $104 $105 $106 $107 forward $41 $-1 #
face $-1 $108 $109 $25 $-1 $110 reversed single #
loop $-1 $-1 $111 $43 #
plane-surface $-1 -55.860103908207911 -15.441924115512796 0 0 -1 0 0 0 -1 forward_v I I I I #
coedge $-1 $112 $113 $114 $115 reversed $44 $-1 #
face $-1 $116 $117 $26 $-1 $118 reversed single #
loop $-1 $-1 $119 $46 #
plane-surface $-1 46.171237962156127 -33.606009902301196 2.0788866971652737 0 -0.75470958851134928 0.65605901945558964 1 0 0 forward_v I I I I #
coedge $-1 $120 $121 $122 $123 reversed $47 $-1 #
face $-1 $-1 $124 $27 $-1 $125 forward single #
loop $-1 $126 $127 $49 #
cone-surface $-1 42.934104403748961 -24.510062487429188 0.31947892500873643 0 0.75470958851134928 -0.65605901945558964 1 0 0 1 I I -0.70710678118654746 0.70710678118654746 1 forward I I I I #
loop $-1 $-1 $128 $35 #
coedge $-1 $80 $80 $129 $130 reversed $50 $-1 #
face $-1 $-1 $131 $28 $-1 $132 forward single #
loop $-1 $133 $134 $52 #
cone-surface $-1 49.408371520563264 -24.510062487429188 0.31947892500873643 0 0.75470958851134928 -0.65605901945558964 1 0 0 1 I I -0.70710678118654746 0.70710678118654746 1 forward I I I I #
loop $-1 $-1 $135 $36 #
coedge $-1 $85 $85 $136 $137 reversed $53 $-1 #
face $-1 $138 $139 $29 $-1 $140 reversed single #
loop $-1 $-1 $141 $55 #
plane-surface $-1 -41.778771407127032 1.0209770294067511 63.912754366661467 0 0.87461971476443456 0.48480960649040278 1 0 0 forward_v I I I I #
coedge $-1 $142 $143 $144 $145 reversed $56 $-1 #
face $-1 $-1 $146 $30 $-1 $147 forward single #
loop $-1 $148 $149 $58 #
cone-surface $-1 -46.312745660271517 30.636468185687932 6.0663639124605755 0 -0.87461971476443456 -0.48480960649040278 0.25 0 0 1 I I -0.70710678118654746 0.70710678118654746 0.25 forward I I I I #
loop $-1 $-1 $150 $38 #
coedge $-1 $94 $94 $151 $152 reversed $59 $-1 #
face $-1 $-1 $153 $31 $-1 $154 forward single #
loop $-1 $155 $156 $61 #
cone-surface $-1 -37.244797153982546 30.636468185687932 6.0663639124605755 0 -0.87461971476443456 -0.48480960649040278 0.25 0 0 1 I I -0.70710678118654746 0.70710678118654746 0.25 forward I I I I #
loop $-1 $-1 $157 $39 #
coedge $-1 $99 $99 $158 $159 reversed $62 $-1 #
face $-1 $160 $161 $24 $-1 $162 reversed single #
loop $-1 $-1 $163 $64 #
plane-surface $-1 0 -33.606009902301196 0 0 1 0 0 0 1 forward_v I I I I #
coedge $-1 $164 $165 $166 $167 forward $65 $-1 #
coedge $-1 $168 $67 $169 $170 forward $41 $-1 #
coedge $-1 $67 $168 $171 $172 forward $41 $-1 #
coedge $-1 $173 $174 $67 $107 reversed $175 $-1 #
edge $-1 $176 -33.606009902301196 $177 33.606009902301196 $106 $178 forward 7 unknown #
face $-1 $179 $180 $25 $-1 $181 reversed single #
loop $-1 $-1 $182 $68 #
plane-surface $-1 -52.35804466446416 -17.240344334446121 0 -1 0 0 0 0 1 forward_v I I I I #
coedge $-1 $183 $184 $185 $186 forward $69 $-1 #
coedge $-1 $187 $71 $188 $189 reversed $44 $-1 #
coedge $-1 $71 $187 $190 $191 reversed $44 $-1 #
coedge $-1 $192 $193 $71 $115 forward $194 $-1 #
edge $-1 $195 -9.0820428933942008 $196 9.0820428933942008 $114 $197 forward 7 unknown #
face $-1 $198 $199 $26 $-1 $200 reversed single #
loop $-1 $-1 $201 $72 #
plane-surface $-1 38.617926325872766 -123.20839735340724 79.969051797629561 1 0 0 0 0.75470958851134928 -0.65605901945558964 forward_v I I I I #
coedge $-1 $202 $203 $204 $205 reversed $73 $-1 #
coedge $-1 $121 $75 $206 $207 reversed $47 $-1 #
coedge $-1 $75 $120 $202 $208 reversed $47 $-1 #
coedge $-1 $204 $209 $75 $123 forward $210 $-1 #
edge $-1 $211 27.998188774402422 $212 34.085939423304104 $122 $213 forward 7 unknown #
loop $-1 $-1 $129 $76 #
plane-surface $-1 46.171237962156127 -33.606009902301196 2.0788866971652737 0 -0.75470958851134928 0.65605901945558964 1 0 0 forward_v I I I I #
loop $-1 $-1 $214 $49 #
coedge $-1 $127 $127 $128 $215 reversed $77 $-1 #
coedge $-1 $128 $128 $127 $215 forward $79 $-1 #
coedge $-1 $129 $129 $80 $130 forward $124 $-1 #
edge $-1 $216 6.8563561093412139e-016 $216 6.2831853071796013 $129 $217 forward 7 unknown #
loop $-1 $-1 $136 $81 #
plane-surface $-1 46.171237962156127 -33.606009902301196 2.0788866971652737 0 -0.75470958851134928 0.65605901945558964 1 0 0 forward_v I I I I #
loop $-1 $-1 $218 $52 #
coedge $-1 $134 $134 $135 $219 reversed $82 $-1 #
coedge $-1 $135 $135 $134 $219 forward $84 $-1 #
coedge $-1 $136 $136 $85 $137 forward $131 $-1 #
edge $-1 $220 6.8563561093412139e-016 $220 6.2831853071796013 $136 $221 forward 7 unknown #
face $-1 $222 $223 $29 $-1 $224 reversed single #
loop $-1 $-1 $225 $86 #
plane-surface $-1 -31.1994981497899 104.85961343692634 121.47144828289501 -1 0 0 0 0.87461971476443456 0.48480960649040278 forward_v I I I I #
coedge $-1 $226 $227 $228 $229 reversed $87 $-1 #
coedge $-1 $143 $89 $230 $231 reversed $56 $-1 #
coedge $-1 $89 $142 $226 $232 reversed $56 $-1 #
coedge $-1 $228 $233 $89 $145 forward $234 $-1 #
edge $-1 $235 18.823796816161973 $236 21.015671149172498 $144 $237 forward 7 unknown #
loop $-1 $-1 $151 $90 #
plane-surface $-1 -41.778771407127032 1.0209770294067511 63.912754366661467 0 0.87461971476443456 0.48480960649040278 1 0 0 forward_v I I I I #
loop $-1 $-1 $238 $58 #
coedge $-1 $149 $149 $150 $239 reversed $91 $-1 #
coedge $-1 $150 $150 $149 $239 forward $93 $-1 #
coedge $-1 $151 $151 $94 $152 forward $146 $-1 #
edge $-1 $240 -3.7822854579771699e-015 $240 6.2831853071795969 $151 $241 forward 7 unknown #
loop $-1 $-1 $158 $95 #
plane-surface $-1 -41.778771407127032 1.0209770294067511 63.912754366661467 0 0.87461971476443456 0.48480960649040278 1 0 0 forward_v I I I I #
loop $-1 $-1 $242 $61 #
coedge $-1 $156 $156 $157 $243 reversed $96 $-1 #
coedge $-1 $157 $157 $156 $243 forward $98 $-1 #
coedge $-1 $158 $158 $99 $159 forward $153 $-1 #
edge $-1 $244 -3.7822854579771699e-015 $244 6.2831853071795969 $158 $245 forward 7 unknown #
face $-1 $246 $247 $24 $-1 $248 reversed single #
loop $-1 $-1 $249 $100 #
plane-surface $-1 -59.362163151951663 0 0 1 0 0 0 0 -1 forward_v I I I I #
coedge $-1 $250 $171 $251 $252 forward $101 $-1 #
coedge $-1 $253 $103 $250 $254 forward $65 $-1 #
coedge $-1 $103 $253 $255 $256 forward $65 $-1 #
coedge $-1 $174 $173 $103 $167 reversed $175 $-1 #
edge $-1 $257 -33.606009902301196 $258 33.606009902301196 $166 $259 forward 7 unknown #
coedge $-1 $105 $104 $260 $261 forward $41 $-1 #
coedge $-1 $262 $263 $104 $170 reversed $247 $-1 #
edge $-1 $177 -59.362163151951663 $264 59.362163151951663 $169 $265 forward 7 unknown #
coedge $-1 $163 $266 $105 $172 reversed $101 $-1 #
edge $-1 $267 -59.362163151951663 $176 59.362163151951663 $171 $268 forward 7 unknown #
coedge $-1 $166 $106 $266 $269 forward $175 $-1 #
coedge $-1 $106 $166 $262 $270 reversed $175 $-1 #
loop $-1 $-1 $173 $246 #
vertex $-1 $107 $271 #
vertex $-1 $107 $272 #
straight-curve $-1 59.362163151951663 0 9.0820428933942008 0 1 0 I I #
face $-1 $273 $274 $25 $-1 $275 forward single #
loop $-1 $-1 $276 $108 #
plane-surface $-1 0 0 -9.0820428933942008 0 0 1 1 0 0 forward_v I I I I #
coedge $-1 $277 $278 $187 $279 forward $109 $-1 #
coedge $-1 $280 $111 $276 $281 reversed $69 $-1 #
coedge $-1 $111 $280 $282 $283 reversed $69 $-1 #
coedge $-1 $278 $277 $111 $186 reversed $109 $-1 #
edge $-1 $284 -9.0820428933942008 $285 9.0820428933942008 $185 $286 forward 7 unknown #
coedge $-1 $113 $112 $182 $279 reversed $44 $-1 #
coedge $-1 $287 $288 $112 $189 forward $180 $-1 #
edge $-1 $289 24.427992710360204 $195 31.432111197847707 $188 $290 forward 7 unknown #
coedge $-1 $291 $292 $113 $191 forward $274 $-1 #
edge $-1 $196 -31.432111197847707 $293 -24.427992710360204 $190 $294 forward 7 unknown #
coedge $-1 $295 $114 $292 $296 reversed $194 $-1 #
coedge $-1 $114 $295 $287 $297 reversed $194 $-1 #
loop $-1 $-1 $295 $273 #
vertex $-1 $297 $298 #
vertex $-1 $115 $299 #
straight-curve $-1 -59.362163151951663 -19.038764553379444 0 0 0 1 I I #
face $-1 $-1 $210 $26 $-1 $300 forward single #
loop $-1 $-1 $301 $116 #
plane-surface $-1 0 -33.606009902301196 0 0 1 0 0 0 1 forward_v I I I I #
coedge $-1 $302 $303 $304 $305 reversed $117 $-1 #
coedge $-1 $306 $119 $121 $208 forward $73 $-1 #
coedge $-1 $119 $306 $302 $307 forward $73 $-1 #
coedge $-1 $304 $122 $119 $205 forward $210 $-1 #
edge $-1 $212 -30.638930617361424 $308 -15.532307344794702 $204 $309 forward 7 unknown #
coedge $-1 $310 $311 $120 $207 forward $199 $-1 #
edge $-1 $312 -37.905639201649507 $211 -30.902483005420578 $206 $313 forward 7 unknown #
edge $-1 $212 -9.2792728525452102 $312 0 $121 $314 forward 7 unknown #
coedge $-1 $122 $304 $310 $315 forward $210 $-1 #
loop $-1 $-1 $304 $198 #
vertex $-1 $207 $316 #
vertex $-1 $123 $317 #
straight-curve $-1 53.724549598439488 -61.604198676703618 9.0820428933942026 0 1 0 I I #
coedge $-1 $214 $214 $-1 $318 reversed $126 $-1 #
edge $-1 $319 0 $319 6.2831853071796004 $127 $320 forward 7 unknown #
vertex $-1 $130 $321 #
ellipse-curve $-1 42.934104403748961 -30.562134577850355 5.5804647952797382 0 -0.75470958851134928 0.65605901945558964 2 0 0 1 I I #
coedge $-1 $218 $218 $-1 $322 reversed $133 $-1 #
edge $-1 $323 0 $323 6.2831853071796004 $134 $324 forward 7 unknown #
vertex $-1 $137 $325 #
ellipse-curve $-1 49.408371520563264 -30.562134577850355 5.5804647952797382 0 -0.75470958851134928 0.65605901945558964 2 0 0 1 I I #
face $-1 $-1 $234 $29 $-1 $326 forward single #
loop $-1 $-1 $327 $138 #
plane-surface $-1 0 33.606009902301196 0 0 -1 0 0 0 -1 forward_v I I I I #
coedge $-1 $328 $329 $330 $331 reversed $139 $-1 #
coedge $-1 $332 $141 $143 $232 forward $87 $-1 #
coedge $-1 $141 $332 $328 $333 forward $87 $-1 #
coedge $-1 $330 $144 $141 $229 forward $234 $-1 #
edge $-1 $236 -31.468658960900644 $334 -10.310112446226384 $228 $335 forward 7 unknown #
coedge $-1 $336 $337 $142 $231 forward $223 $-1 #
edge $-1 $338 -55.607927365028907 $235 -51.653681248053303 $230 $339 forward 7 unknown #
edge $-1 $236 62.690916460801574 $338 67.212019804602392 $143 $340 forward 7 unknown #
coedge $-1 $144 $330 $336 $341 forward $234 $-1 #
loop $-1 $-1 $330 $222 #
vertex $-1 $231 $342 #
vertex $-1 $145 $343 #
straight-curve $-1 -52.35804466446416 52.429806718463169 9.0820428933942026 0 -1 0 I I #
coedge $-1 $238 $238 $-1 $344 reversed $148 $-1 #
edge $-1 $345 0 $345 6.2831853071796004 $149 $346 forward 7 unknown #
vertex $-1 $152 $347 #
ellipse-curve $-1 -46.312745660271517 32.51007273579593 7.104919834906406 0 0.87461971476443456 0.48480960649040278 0.5 0 0 1 I I #
coedge $-1 $242 $242 $-1 $348 reversed $155 $-1 #
edge $-1 $349 0 $349 6.2831853071796004 $156 $350 forward 7 unknown #
vertex $-1 $159 $351 #
ellipse-curve $-1 -37.244797153982546 32.51007273579593 7.104919834906406 0 0.87461971476443456 0.48480960649040278 0.5 0 0 1 I I #
face $-1 $-1 $175 $24 $-1 $352 reversed single #
loop $-1 $-1 $262 $160 #
plane-surface $-1 0 33.606009902301196 0 0 -1 0 0 0 -1 forward_v I I I I #
coedge $-1 $353 $260 $263 $354 forward $161 $-1 #
coedge $-1 $266 $163 $164 $254 reversed $101 $-1 #
coedge $-1 $260 $353 $163 $252 reversed $161 $-1 #
edge $-1 $267 -9.0820428933942008 $355 9.0820428933942008 $251 $356 forward 7 unknown #
coedge $-1 $165 $164 $353 $357 forward $65 $-1 #
edge $-1 $258 -59.362163151951663 $355 59.362163151951663 $250 $358 forward 7 unknown #
coedge $-1 $263 $262 $165 $256 reversed $247 $-1 #
edge $-1 $359 -59.362163151951663 $257 59.362163151951663 $255 $360 forward 7 unknown #
vertex $-1 $167 $361 #
vertex $-1 $269 $362 #
straight-curve $-1 59.362163151951663 0 -9.0820428933942008 0 -1 0 I I #
coedge $-1 $249 $251 $168 $261 reversed $161 $-1 #
edge $-1 $264 -33.606009902301196 $267 33.606009902301196 $260 $363 forward 7 unknown #
coedge $-1 $255 $169 $174 $270 forward $247 $-1 #
coedge $-1 $169 $255 $249 $354 reversed $247 $-1 #
vertex $-1 $170 $364 #
straight-curve $-1 0 33.606009902301196 9.0820428933942008 -1 0 0 I I #
coedge $-1 $171 $250 $173 $269 reversed $101 $-1 #
vertex $-1 $261 $365 #
straight-curve $-1 0 -33.606009902301196 9.0820428933942008 1 0 0 I I #
edge $-1 $176 -9.0820428933942008 $258 9.0820428933942008 $173 $366 forward 7 unknown #
edge $-1 $177 -9.0820428933942008 $257 9.0820428933942008 $174 $367 forward 7 unknown #
point $-1 59.362163151951663 -33.606009902301196 9.0820428933942008 #
point $-1 59.362163151951663 33.606009902301196 9.0820428933942008 #
face $-1 $-1 $194 $25 $-1 $368 reversed single #
loop $-1 $-1 $282 $179 #
plane-surface $-1 0 0 9.0820428933942008 0 0 1 1 0 0 forward_v I I I I #
coedge $-1 $288 $287 $183 $281 forward $180 $-1 #
coedge $-1 $185 $182 $288 $369 reversed $109 $-1 #
coedge $-1 $182 $185 $291 $370 reversed $109 $-1 #
edge $-1 $293 -9.0820428933942008 $289 9.0820428933942008 $182 $371 forward 7 unknown #
coedge $-1 $184 $183 $295 $372 reversed $69 $-1 #
edge $-1 $373 -31.432111197847707 $285 -24.427992710360204 $276 $374 forward 7 unknown #
coedge $-1 $292 $291 $184 $283 forward $274 $-1 #
edge $-1 $284 24.427992710360204 $375 31.432111197847707 $282 $376 forward 7 unknown #
vertex $-1 $283 $377 #
vertex $-1 $281 $378 #
straight-curve $-1 -52.35804466446416 -15.441924115512796 0 0 0 -1 I I #
coedge $-1 $276 $188 $193 $297 forward $180 $-1 #
coedge $-1 $188 $276 $277 $369 forward $180 $-1 #
vertex $-1 $189 $379 #
straight-curve $-1 -27.930051954103956 -19.038764553379444 -9.0820428933942008 -1 0 0 I I #
coedge $-1 $282 $190 $278 $370 forward $274 $-1 #
coedge $-1 $190 $282 $192 $296 forward $274 $-1 #
vertex $-1 $191 $380 #
straight-curve $-1 -27.930051954103956 -19.038764553379444 9.0820428933942008 1 0 0 I I #
coedge $-1 $193 $192 $280 $372 forward $194 $-1 #
edge $-1 $375 15.441924115512796 $196 19.038764553379444 $192 $381 forward 7 unknown #
edge $-1 $195 -19.038764553379444 $373 -15.441924115512796 $193 $382 forward 7 unknown #
point $-1 -59.362163151951663 -19.038764553379444 -9.0820428933942008 #
point $-1 -59.362163151951663 -19.038764553379444 9.0820428933942008 #
plane-surface $-1 0 0 9.0820428933942008 0 0 1 1 0 0 forward_v I I I I #
coedge $-1 $311 $310 $303 $383 forward $199 $-1 #
coedge $-1 $303 $201 $203 $307 reversed $117 $-1 #
coedge $-1 $201 $302 $301 $383 reversed $117 $-1 #
coedge $-1 $209 $204 $201 $305 forward $210 $-1 #
edge $-1 $308 -34.085939423304104 $384 -27.998188774402422 $304 $385 forward 7 unknown #
coedge $-1 $203 $202 $311 $386 reversed $73 $-1 #
edge $-1 $387 0 $308 9.2792728525452102 $302 $388 forward 7 unknown #
vertex $-1 $205 $389 #
straight-curve $-1 23.085618981078063 -27.518259253399513 9.0820428933942008 -1 0 0 I I #
coedge $-1 $301 $206 $209 $315 reversed $199 $-1 #
coedge $-1 $206 $301 $306 $386 forward $199 $-1 #
vertex $-1 $207 $390 #
straight-curve $-1 53.724549598439488 -33.606009902301196 39.98452589881478 0 0 1 I I #
straight-curve $-1 53.724549598439488 -33.606009902301196 2.0788866971652737 0 -0.65605901945558964 -0.75470958851134928 I I #
edge $-1 $384 38.617926325872766 $211 53.724549598439488 $310 $391 forward 7 unknown #
point $-1 53.724549598439488 -33.606009902301196 9.0820428933942008 #
point $-1 53.724549598439488 -27.518259253399513 9.0820428933942008 #
edge $-1 $392 1 $392 0 $214 $-1 forward 7 unknown #
vertex $-1 $215 $393 #
ellipse-curve $-1 42.934104403748961 -25.264772075940538 0.97553794446432607 0 -0.75470958851134928 0.65605901945558964 2 0 0 1 I I #
point $-1 44.934104403748961 -30.562134577850362 5.5804647952797461 #
edge $-1 $394 1 $394 0 $218 $-1 forward 7 unknown #
vertex $-1 $219 $395 #
ellipse-curve $-1 49.408371520563264 -25.264772075940538 0.97553794446432607 0 -0.75470958851134928 0.65605901945558964 2 0 0 1 I I #
point $-1 51.408371520563264 -30.562134577850362 5.5804647952797461 #
plane-surface $-1 0 0 9.0820428933942008 0 0 1 1 0 0 forward_v I I I I #
coedge $-1 $337 $336 $329 $396 forward $223 $-1 #
coedge $-1 $329 $225 $227 $333 reversed $139 $-1 #
coedge $-1 $225 $328 $327 $396 reversed $139 $-1 #
coedge $-1 $233 $228 $225 $331 forward $234 $-1 #
edge $-1 $334 -21.015671149172498 $397 -18.823796816161973 $330 $398 forward 7 unknown #
coedge $-1 $227 $226 $337 $399 reversed $87 $-1 #
edge $-1 $400 -67.212019804602392 $334 -62.690916460801574 $328 $401 forward 7 unknown #
vertex $-1 $229 $402 #
straight-curve $-1 -20.889385703563516 31.414135569290671 9.0820428933942026 1 0 0 I I #
coedge $-1 $327 $230 $233 $341 reversed $223 $-1 #
coedge $-1 $230 $327 $332 $399 forward $223 $-1 #
vertex $-1 $231 $403 #
straight-curve $-1 -52.35804466446416 33.606009902301196 60.735724141447506 0 0 1 I I #
straight-curve $-1 -52.35804466446416 1.0209770294067511 63.912754366661467 0 0.48480960649040278 -0.87461971476443456 I I #
edge $-1 $397 31.1994981497899 $235 52.35804466446416 $336 $404 forward 7 unknown #
point $-1 -52.35804466446416 33.606009902301196 9.0820428933942008 #
point $-1 -52.35804466446416 31.414135569290671 9.0820428933942026 #
edge $-1 $405 1 $405 0 $238 $-1 forward 7 unknown #
vertex $-1 $239 $406 #
ellipse-curve $-1 -46.312745660271517 30.85512311437904 6.1875663140831758 0 0.87461971476443456 0.48480960649040278 0.5 0 0 1 I I #
point $-1 -45.812745660271517 32.510072735795923 7.1049198349064042 #
edge $-1 $407 1 $407 0 $242 $-1 forward 7 unknown #
vertex $-1 $243 $408 #
ellipse-curve $-1 -37.244797153982546 30.85512311437904 6.1875663140831758 0 0.87461971476443456 0.48480960649040278 0.5 0 0 1 I I #
point $-1 -36.744797153982546 32.510072735795923 7.1049198349064042 #
plane-surface $-1 59.362163151951663 0 0 -1 0 0 0 0 1 forward_v I I I I #
coedge $-1 $251 $249 $253 $357 reversed $161 $-1 #
edge $-1 $264 -9.0820428933942008 $359 9.0820428933942008 $263 $409 forward 7 unknown #
vertex $-1 $357 $410 #
straight-curve $-1 -59.362163151951663 -33.606009902301196 0 0 0 -1 I I #
edge $-1 $355 -33.606009902301196 $359 33.606009902301196 $353 $411 forward 7 unknown #
straight-curve $-1 0 -33.606009902301196 -9.0820428933942008 -1 0 0 I I #
vertex $-1 $256 $412 #
straight-curve $-1 0 33.606009902301196 -9.0820428933942008 1 0 0 I I #
point $-1 59.362163151951663 33.606009902301196 -9.0820428933942008 #
point $-1 59.362163151951663 -33.606009902301196 -9.0820428933942008 #
straight-curve $-1 -59.362163151951663 0 9.0820428933942008 0 -1 0 I I #
point $-1 -59.362163151951663 33.606009902301196 9.0820428933942008 #
point $-1 -59.362163151951663 -33.606009902301196 9.0820428933942008 #
straight-curve $-1 59.362163151951663 -33.606009902301196 0 0 0 -1 I I #
straight-curve $-1 59.362163151951663 33.606009902301196 0 0 0 -1 I I #
plane-surface $-1 -59.362163151951663 0 0 1 0 0 0 0 -1 forward_v I I I I #
edge $-1 $285 6.8217519482897355 $289 10.418592386156384 $288 $413 forward 7 unknown #
edge $-1 $293 -10.418592386156384 $284 -6.8217519482897355 $291 $414 forward 7 unknown #
straight-curve $-1 -52.35804466446416 -19.038764553379444 0 0 0 -1 I I #
edge $-1 $375 -9.0820428933942008 $373 9.0820428933942008 $295 $415 forward 7 unknown #
vertex $-1 $372 $416 #
straight-curve $-1 -27.930051954103956 -15.441924115512796 -9.0820428933942008 1 0 0 I I #
vertex $-1 $296 $417 #
straight-curve $-1 -27.930051954103956 -15.441924115512796 9.0820428933942008 -1 0 0 I I #
point $-1 -52.35804466446416 -15.441924115512796 9.0820428933942008 #
point $-1 -52.35804466446416 -15.441924115512796 -9.0820428933942008 #
point $-1 -52.35804466446416 -19.038764553379444 -9.0820428933942008 #
point $-1 -52.35804466446416 -19.038764553379444 9.0820428933942008 #
straight-curve $-1 -59.362163151951663 0 9.0820428933942008 0 -1 0 I I #
straight-curve $-1 -59.362163151951663 0 -9.0820428933942008 0 1 0 I I #
edge $-1 $384 30.902483005420578 $387 37.905639201649507 $301 $418 forward 7 unknown #
vertex $-1 $315 $419 #
straight-curve $-1 38.617926325872766 -61.604198676703618 9.0820428933942026 0 -1 0 I I #
edge $-1 $387 15.532307344794702 $312 30.638930617361424 $311 $420 forward 7 unknown #
vertex $-1 $386 $421 #
straight-curve $-1 38.617926325872766 -33.606009902301196 2.0788866971652737 0 0.65605901945558964 0.75470958851134928 I I #
point $-1 38.617926325872766 -27.518259253399513 9.0820428933942008 #
point $-1 53.724549598439488 -33.606009902301196 2.0788866971652737 #
straight-curve $-1 0 -33.606009902301196 9.0820428933942008 1 0 0 I I #
vertex $-1 $318 $422 #
point $-1 44.934104403748961 -25.264772075940538 0.97553794446432607 #
vertex $-1 $322 $423 #
point $-1 51.408371520563264 -25.264772075940538 0.97553794446432607 #
edge $-1 $397 51.653681248053303 $400 55.607927365028907 $327 $424 forward 7 unknown #
vertex $-1 $341 $425 #
straight-curve $-1 -31.1994981497899 52.429806718463169 9.0820428933942026 0 1 0 I I #
edge $-1 $400 10.310112446226384 $338 31.468658960900644 $337 $426 forward 7 unknown #
vertex $-1 $399 $427 #
straight-curve $-1 -31.1994981497899 1.0209770294067511 63.912754366661467 0 -0.48480960649040278 0.87461971476443456 I I #
point $-1 -31.1994981497899 31.414135569290671 9.0820428933942026 #
point $-1 -52.35804466446416 33.606009902301196 5.1277967764185988 #
straight-curve $-1 0 33.606009902301196 9.0820428933942008 -1 0 0 I I #
vertex $-1 $344 $428 #
point $-1 -45.812745660271517 30.85512311437904 6.1875663140831758 #
vertex $-1 $348 $429 #
point $-1 -36.744797153982546 30.85512311437904 6.1875663140831758 #
straight-curve $-1 -59.362163151951663 33.606009902301196 0 0 0 -1 I I #
point $-1 -59.362163151951663 -33.606009902301196 -9.0820428933942008 #
straight-curve $-1 -59.362163151951663 0 -9.0820428933942008 0 1 0 I I #
point $-1 -59.362163151951663 33.606009902301196 -9.0820428933942008 #
straight-curve $-1 -52.35804466446416 -8.6201721672230605 -9.0820428933942008 0 -1 0 I I #
straight-curve $-1 -52.35804466446416 -8.6201721672230605 9.0820428933942008 0 1 0 I I #
straight-curve $-1 -59.362163151951663 -15.441924115512796 0 0 0 -1 I I #
point $-1 -59.362163151951663 -15.441924115512796 -9.0820428933942008 #
point $-1 -59.362163151951663 -15.441924115512796 9.0820428933942008 #
straight-curve $-1 38.617926325872766 -33.606009902301196 39.98452589881478 0 0 -1 I I #
point $-1 38.617926325872766 -33.606009902301196 9.0820428933942008 #
straight-curve $-1 23.085618981078063 -33.606009902301196 2.078886697165272 1 0 0 I I #
point $-1 38.617926325872766 -33.606009902301196 2.0788866971652737 #
point $-1 42.934104403748961 -23.755352898917838 -0.33658009444685322 #
point $-1 49.408371520563264 -23.755352898917838 -0.33658009444685322 #
straight-curve $-1 -31.1994981497899 33.606009902301196 60.735724141447506 0 0 -1 I I #
point $-1 -31.1994981497899 33.606009902301196 9.0820428933942008 #
straight-curve $-1 -20.889385703563516 33.606009902301196 5.1277967764185988 -1 0 0 I I #
point $-1 -31.1994981497899 33.606009902301196 5.1277967764185988 #
point $-1 -46.312745660271517 30.417813256996823 5.9451615108379752 #
point $-1 -37.244797153982546 30.417813256996823 5.9451615108379752 #
End-of-ACIS-data 