500 0 7 0           
7 Unknown 11 ACIS 5.0 NT 24 Fri Mar 26 16:38:05 1999 
-1 9.9999999999999995e-007 1e-010 
body $-1 $7 $-1 $8 #
body $-1 $9 $-1 $10 #
body $-1 $11 $-1 $12 #
body $-1 $13 $-1 $14 #
body $-1 $15 $-1 $16 #
body $-1 $17 $-1 $18 #
body $-1 $19 $-1 $20 #
lump $-1 $-1 $21 $0 #
transform $-1 1 0 0 0 1 0 0 0 1 63.634754478591262 36.803753642360633 14.861788600409655 1 rotate no_reflect no_shear #
lump $-1 $-1 $22 $1 #
transform $-1 1 0 0 0 1 0 0 0 1 63.634754478591262 36.803753642360633 14.861788600409655 1 rotate no_reflect no_shear #
lump $-1 $-1 $23 $2 #
transform $-1 1 0 0 0 1 0 0 0 1 63.634754478591262 36.803753642360633 14.861788600409655 1 rotate no_reflect no_shear #
lump $-1 $-1 $24 $3 #
transform $-1 1 0 0 0 1 0 0 0 1 63.634754478591262 36.803753642360633 14.861788600409655 1 rotate no_reflect no_shear #
lump $-1 $-1 $25 $4 #
transform $-1 1 0 0 0 1 0 0 0 1 63.634754478591262 36.803753642360633 14.861788600409655 1 rotate no_reflect no_shear #
lump $-1 $-1 $26 $5 #
transform $-1 1 0 0 0 1 0 0 0 1 63.634754478591262 36.803753642360633 14.861788600409655 1 rotate no_reflect no_shear #
lump $-1 $-1 $27 $6 #
transform $-1 1 0 0 0 1 0 0 0 1 63.634754478591262 36.803753642360633 14.861788600409655 1 rotate no_reflect no_shear #
shell $-1 $-1 $-1 $28 $-1 $7 #
shell $-1 $-1 $-1 $29 $-1 $9 #
shell $-1 $-1 $-1 $30 $-1 $11 #
shell $-1 $-1 $-1 $31 $-1 $13 #
shell $-1 $-1 $-1 $32 $-1 $15 #
shell $-1 $-1 $-1 $33 $-1 $17 #
shell $-1 $-1 $-1 $34 $-1 $19 #
face $-1 $35 $36 $21 $-1 $37 forward single #
face $-1 $38 $39 $22 $-1 $40 forward single #
face $-1 $41 $42 $23 $-1 $43 forward single #
face $-1 $44 $45 $24 $-1 $46 reversed single #
face $-1 $47 $48 $25 $-1 $49 forward single #
face $-1 $50 $51 $26 $-1 $52 reversed single #
face $-1 $53 $54 $27 $-1 $55 forward single #
face $-1 $56 $57 $21 $-1 $58 reversed single #
loop $-1 $-1 $59 $28 #
plane-surface $-1 0 0 14.861788600409655 0 0 1 1 0 0 forward_v I I I I #
face $-1 $60 $61 $22 $-1 $62 reversed single #
loop $-1 $-1 $63 $29 #
plane-surface $-1 -63.634754478591262 0 0 1 0 0 0 0 -1 forward_v I I I I #
face $-1 $64 $65 $23 $-1 $66 reversed single #
loop $-1 $-1 $67 $30 #
plane-surface $-1 63.634754478591262 0 0 -1 0 0 0 0 1 forward_v I I I I #
face $-1 $68 $69 $24 $-1 $70 reversed single #
loop $-1 $-1 $71 $31 #
plane-surface $-1 -4.6624034600515145 -115.15868827352152 112.06826855242267 -1 0 0 0 -0.61566148304635926 0.78801074757464917 forward_v I I I I #
face $-1 $72 $73 $25 $-1 $74 forward single #
loop $-1 $75 $76 $32 #
cone-surface $-1 -12.180959836254438 -33.962153990159813 12.208653420935612 0 0.61566148304635926 -0.78801074757464917 1 0 0 1 I I 0 1 1 forward I I I I #
face $-1 $77 $78 $26 $-1 $79 reversed single #
loop $-1 $-1 $80 $33 #
plane-surface $-1 -19.699516212457361 57.155181430981884 157.38557565067987 1 0 0 0 -0.61566148304635926 -0.78801074757464917 forward_v I I I I #
face $-1 $81 $82 $27 $-1 $83 forward single #
loop $-1 $84 $85 $34 #
cone-surface $-1 -12.180959836254438 33.962153990159798 12.208653420935615 0 -0.61566148304635926 -0.78801074757464917 1 0 0 1 I I 0 1 1 forward I I I I #
face $-1 $86 $87 $21 $-1 $88 reversed single #
loop $-1 $-1 $89 $35 #
plane-surface $-1 0 0 -14.861788600409655 0 0 1 1 0 0 forward_v I I I I #
coedge $-1 $90 $91 $92 $93 forward $36 $-1 #
face $-1 $94 $95 $22 $-1 $96 forward single #
loop $-1 $-1 $97 $38 #
plane-surface $-1 0 36.803753642360633 0 0 -1 0 0 0 -1 forward_v I I I I #
coedge $-1 $98 $99 $100 $101 forward $39 $-1 #
face $-1 $102 $103 $23 $-1 $104 forward single #
loop $-1 $-1 $105 $41 #
plane-surface $-1 0 -36.803753642360633 0 0 1 0 0 0 1 forward_v I I I I #
coedge $-1 $106 $107 $108 $109 forward $42 $-1 #
face $-1 $110 $111 $24 $-1 $112 reversed single #
loop $-1 $-1 $113 $44 #
plane-surface $-1 -12.180959836254438 -36.803753642360633 11.778527655614766 0 -0.61566148304635926 0.78801074757464917 1 0 0 forward_v I I I I #
coedge $-1 $114 $115 $116 $117 reversed $45 $-1 #
face $-1 $-1 $118 $25 $-1 $119 forward single #
loop $-1 $120 $121 $47 #
cone-surface $-1 -12.180959836254438 -32.785920579665472 10.703143340071689 0 0.61566148304635926 -0.78801074757464917 0.5 0 0 1 I I -0.70710678118654746 0.70710678118654746 0.5 forward I I I I #
loop $-1 $-1 $122 $32 #
coedge $-1 $76 $76 $123 $124 reversed $48 $-1 #
face $-1 $125 $126 $26 $-1 $127 reversed single #
loop $-1 $-1 $128 $50 #
plane-surface $-1 -12.180959836254438 -21.199753200179003 57.095834753871969 0 0.61566148304635926 0.78801074757464917 1 0 0 forward_v I I I I #
coedge $-1 $129 $130 $131 $132 reversed $51 $-1 #
face $-1 $-1 $133 $27 $-1 $134 forward single #
loop $-1 $135 $136 $53 #
cone-surface $-1 -12.180959836254438 32.785920579665458 10.703143340071692 0 -0.61566148304635926 -0.78801074757464917 0.5 0 0 1 I I -0.70710678118654746 0.70710678118654746 0.5 forward I I I I #
loop $-1 $-1 $137 $34 #
coedge $-1 $85 $85 $138 $139 reversed $54 $-1 #
face $-1 $140 $141 $21 $-1 $142 reversed single #
loop $-1 $-1 $143 $56 #
plane-surface $-1 0 -36.803753642360633 0 0 1 0 0 0 1 forward_v I I I I #
coedge $-1 $144 $145 $146 $147 forward $57 $-1 #
coedge $-1 $148 $59 $149 $150 forward $36 $-1 #
coedge $-1 $59 $148 $151 $152 forward $36 $-1 #
coedge $-1 $153 $154 $59 $93 reversed $155 $-1 #
edge $-1 $156 -36.803753642360633 $157 36.803753642360633 $92 $158 forward 7 unknown #
face $-1 $159 $160 $22 $-1 $161 reversed single #
loop $-1 $-1 $100 $60 #
plane-surface $-1 -68.974847710079871 0 -0.93870124991613357 0 0 1 1 0 0 forward_v I I I I #
coedge $-1 $162 $163 $99 $164 forward $61 $-1 #
coedge $-1 $165 $63 $166 $167 reversed $39 $-1 #
coedge $-1 $63 $165 $97 $164 reversed $39 $-1 #
coedge $-1 $168 $169 $63 $101 reversed $95 $-1 #
edge $-1 $170 -36.803753642360633 $171 36.803753642360633 $100 $172 forward 7 unknown #
face $-1 $173 $174 $23 $-1 $175 reversed single #
loop $-1 $-1 $176 $64 #
plane-surface $-1 68.974847710079885 0 -0.93870124991613357 0 0 1 1 0 0 forward_v I I I I #
coedge $-1 $177 $178 $107 $179 forward $65 $-1 #
coedge $-1 $180 $67 $181 $182 reversed $42 $-1 #
coedge $-1 $67 $180 $105 $179 reversed $42 $-1 #
coedge $-1 $183 $184 $67 $109 reversed $103 $-1 #
edge $-1 $185 -36.803753642360633 $186 36.803753642360633 $108 $187 forward 7 unknown #
face $-1 $188 $189 $24 $-1 $190 forward single #
loop $-1 $-1 $191 $68 #
plane-surface $-1 -19.699516212457361 -115.15868827352152 112.06826855242267 1 0 0 0 0.61566148304635926 -0.78801074757464917 forward_v I I I I #
coedge $-1 $192 $193 $194 $195 reversed $69 $-1 #
coedge $-1 $115 $71 $196 $197 reversed $45 $-1 #
coedge $-1 $71 $114 $192 $198 reversed $45 $-1 #
coedge $-1 $194 $199 $71 $117 forward $189 $-1 #
edge $-1 $200 20.775590494400127 $201 24.721984460859431 $116 $202 forward 7 unknown #
loop $-1 $-1 $123 $72 #
plane-surface $-1 -12.180959836254438 -36.803753642360633 11.778527655614766 0 -0.61566148304635926 0.78801074757464917 1 0 0 forward_v I I I I #
loop $-1 $-1 $203 $47 #
coedge $-1 $121 $121 $122 $204 reversed $73 $-1 #
coedge $-1 $122 $122 $121 $204 forward $75 $-1 #
coedge $-1 $123 $123 $76 $124 forward $118 $-1 #
edge $-1 $205 -1.0936344861647016e-015 $205 6.2831853071795996 $123 $206 forward 7 unknown #
face $-1 $207 $208 $26 $-1 $209 reversed single #
loop $-1 $-1 $210 $77 #
plane-surface $-1 -4.6624034600515145 57.155181430981884 157.38557565067987 -1 0 0 0 0.61566148304635926 0.78801074757464917 forward_v I I I I #
coedge $-1 $211 $212 $213 $214 reversed $78 $-1 #
coedge $-1 $130 $80 $215 $216 reversed $51 $-1 #
coedge $-1 $80 $129 $211 $217 reversed $51 $-1 #
coedge $-1 $213 $218 $80 $132 forward $219 $-1 #
edge $-1 $220 -8.2261629268696908 $221 -4.279768960410415 $131 $222 forward 7 unknown #
loop $-1 $-1 $138 $81 #
plane-surface $-1 -12.180959836254438 -21.199753200179003 57.095834753871969 0 0.61566148304635926 0.78801074757464917 1 0 0 forward_v I I I I #
loop $-1 $-1 $223 $53 #
coedge $-1 $136 $136 $137 $224 reversed $82 $-1 #
coedge $-1 $137 $137 $136 $224 forward $84 $-1 #
coedge $-1 $138 $138 $85 $139 forward $133 $-1 #
edge $-1 $225 8.3167310001065899e-016 $225 6.2831853071796013 $138 $226 forward 7 unknown #
face $-1 $227 $228 $21 $-1 $229 reversed single #
loop $-1 $-1 $230 $86 #
plane-surface $-1 -63.634754478591262 0 0 1 0 0 0 0 -1 forward_v I I I I #
coedge $-1 $231 $151 $232 $233 forward $87 $-1 #
coedge $-1 $234 $89 $231 $235 forward $57 $-1 #
coedge $-1 $89 $234 $236 $237 forward $57 $-1 #
coedge $-1 $154 $153 $89 $147 reversed $155 $-1 #
edge $-1 $238 -36.803753642360633 $239 36.803753642360633 $146 $240 forward 7 unknown #
coedge $-1 $91 $90 $241 $242 forward $36 $-1 #
coedge $-1 $243 $244 $90 $150 reversed $228 $-1 #
edge $-1 $157 -63.634754478591262 $245 63.634754478591262 $149 $246 forward 7 unknown #
coedge $-1 $143 $247 $91 $152 reversed $87 $-1 #
edge $-1 $248 -63.634754478591262 $156 63.634754478591262 $151 $249 forward 7 unknown #
coedge $-1 $146 $92 $247 $250 forward $155 $-1 #
coedge $-1 $92 $146 $243 $251 reversed $155 $-1 #
loop $-1 $-1 $153 $227 #
vertex $-1 $93 $252 #
vertex $-1 $93 $253 #
straight-curve $-1 63.634754478591262 0 14.861788600409655 0 1 0 I I #
face $-1 $254 $255 $22 $-1 $256 reversed single #
loop $-1 $-1 $257 $94 #
plane-surface $-1 -68.974847710079871 0 -7.5284692047289585 0 0 1 1 0 0 forward_v I I I I #
coedge $-1 $258 $97 $259 $260 reversed $61 $-1 #
coedge $-1 $97 $258 $168 $261 reversed $61 $-1 #
edge $-1 $170 0.93870124991613357 $262 7.5284692047289585 $97 $263 forward 7 unknown #
coedge $-1 $99 $98 $257 $264 forward $39 $-1 #
coedge $-1 $265 $266 $98 $167 forward $267 $-1 #
edge $-1 $268 -7.5284692047289585 $171 -0.93870124991613357 $166 $269 forward 7 unknown #
coedge $-1 $270 $100 $163 $261 forward $95 $-1 #
coedge $-1 $100 $270 $265 $271 forward $95 $-1 #
vertex $-1 $164 $272 #
vertex $-1 $271 $273 #
straight-curve $-1 -63.634754478591262 0 -0.93870124991613357 0 -1 0 I I #
face $-1 $274 $275 $23 $-1 $276 reversed single #
loop $-1 $-1 $277 $102 #
plane-surface $-1 68.974847710079885 0 -7.5284692047289585 0 0 1 1 0 0 forward_v I I I I #
coedge $-1 $184 $183 $278 $279 forward $103 $-1 #
coedge $-1 $280 $105 $281 $282 reversed $65 $-1 #
coedge $-1 $105 $280 $183 $283 reversed $65 $-1 #
edge $-1 $185 0.93870124991613357 $284 7.5284692047289585 $105 $285 forward 7 unknown #
coedge $-1 $107 $106 $286 $287 forward $42 $-1 #
coedge $-1 $288 $289 $106 $182 forward $290 $-1 #
edge $-1 $291 -7.5284692047289585 $186 -0.93870124991613357 $181 $292 forward 7 unknown #
coedge $-1 $176 $108 $178 $283 forward $103 $-1 #
coedge $-1 $108 $176 $288 $293 forward $103 $-1 #
vertex $-1 $179 $294 #
vertex $-1 $293 $295 #
straight-curve $-1 63.634754478591262 0 -0.93870124991613357 0 1 0 I I #
face $-1 $-1 $296 $24 $-1 $297 reversed single #
loop $-1 $-1 $116 $110 #
plane-surface $-1 0 0 14.861788600409655 0 0 1 1 0 0 forward_v I I I I #
coedge $-1 $298 $299 $300 $301 reversed $111 $-1 #
coedge $-1 $302 $113 $115 $198 forward $69 $-1 #
coedge $-1 $113 $302 $298 $303 forward $69 $-1 #
coedge $-1 $300 $116 $113 $195 forward $189 $-1 #
edge $-1 $201 -1.4280764580757044 $304 13.609036294330142 $194 $305 forward 7 unknown #
coedge $-1 $306 $307 $114 $197 forward $296 $-1 #
edge $-1 $308 -44.255606620596566 $200 -41.172345675801679 $196 $309 forward 7 unknown #
edge $-1 $201 -5.0080458656250215 $308 0 $115 $310 forward 7 unknown #
coedge $-1 $116 $300 $306 $311 forward $189 $-1 #
vertex $-1 $197 $312 #
vertex $-1 $117 $313 #
straight-curve $-1 -4.6624034600515145 -57.57934413676076 14.861788600409653 0 1 0 I I #
coedge $-1 $203 $203 $-1 $314 reversed $120 $-1 #
edge $-1 $315 0 $315 6.2831853071796004 $121 $316 forward 7 unknown #
vertex $-1 $124 $317 #
ellipse-curve $-1 -12.180959836254438 -34.830556659130977 13.320158128012212 0 -0.61566148304635926 0.78801074757464917 1 0 0 1 I I #
face $-1 $-1 $219 $26 $-1 $318 forward single #
loop $-1 $-1 $319 $125 #
plane-surface $-1 0 36.803753642360633 0 0 -1 0 0 0 -1 forward_v I I I I #
coedge $-1 $320 $321 $322 $323 reversed $126 $-1 #
coedge $-1 $324 $128 $130 $217 forward $78 $-1 #
coedge $-1 $128 $324 $320 $325 forward $78 $-1 #
coedge $-1 $322 $131 $128 $214 forward $219 $-1 #
edge $-1 $221 -13.609036294330142 $326 1.4280764580757044 $213 $327 forward 7 unknown #
coedge $-1 $328 $329 $129 $216 forward $208 $-1 #
edge $-1 $330 -66.914260169725154 $220 -63.830999224930281 $215 $331 forward 7 unknown #
edge $-1 $221 68.599461419096272 $330 73.607507284721265 $130 $332 forward 7 unknown #
coedge $-1 $131 $322 $328 $333 forward $219 $-1 #
loop $-1 $-1 $322 $207 #
vertex $-1 $216 $334 #
vertex $-1 $132 $335 #
straight-curve $-1 -19.699516212457361 28.577590715490942 14.861788600409653 0 -1 0 I I #
coedge $-1 $223 $223 $-1 $336 reversed $135 $-1 #
edge $-1 $337 0 $337 6.2831853071796004 $136 $338 forward 7 unknown #
vertex $-1 $139 $339 #
ellipse-curve $-1 -12.180959836254438 34.830556659130977 13.320158128012233 0 0.61566148304635926 0.78801074757464917 1 0 0 1 I I #
face $-1 $-1 $155 $21 $-1 $340 reversed single #
loop $-1 $-1 $243 $140 #
plane-surface $-1 0 36.803753642360633 0 0 -1 0 0 0 -1 forward_v I I I I #
coedge $-1 $341 $241 $244 $342 forward $141 $-1 #
coedge $-1 $247 $143 $144 $235 reversed $87 $-1 #
coedge $-1 $241 $341 $143 $233 reversed $141 $-1 #
edge $-1 $248 -14.861788600409655 $343 14.861788600409655 $232 $344 forward 7 unknown #
coedge $-1 $145 $144 $341 $345 forward $57 $-1 #
edge $-1 $239 -63.634754478591262 $343 63.634754478591262 $231 $346 forward 7 unknown #
coedge $-1 $244 $243 $145 $237 reversed $228 $-1 #
edge $-1 $347 -63.634754478591262 $238 63.634754478591262 $236 $348 forward 7 unknown #
vertex $-1 $147 $349 #
vertex $-1 $250 $350 #
straight-curve $-1 63.634754478591262 0 -14.861788600409655 0 -1 0 I I #
coedge $-1 $230 $232 $148 $242 reversed $141 $-1 #
edge $-1 $245 -36.803753642360633 $248 36.803753642360633 $241 $351 forward 7 unknown #
coedge $-1 $236 $149 $154 $251 forward $228 $-1 #
coedge $-1 $149 $236 $230 $342 reversed $228 $-1 #
vertex $-1 $150 $352 #
straight-curve $-1 0 36.803753642360633 14.861788600409655 -1 0 0 I I #
coedge $-1 $151 $231 $153 $250 reversed $87 $-1 #
vertex $-1 $242 $353 #
straight-curve $-1 0 -36.803753642360633 14.861788600409655 1 0 0 I I #
edge $-1 $156 -14.861788600409655 $239 14.861788600409655 $153 $354 forward 7 unknown #
edge $-1 $157 -14.861788600409655 $238 14.861788600409655 $154 $355 forward 7 unknown #
point $-1 63.634754478591262 -36.803753642360633 14.861788600409655 #
point $-1 63.634754478591262 36.803753642360633 14.861788600409655 #
face $-1 $-1 $267 $22 $-1 $356 reversed single #
loop $-1 $-1 $357 $159 #
plane-surface $-1 -74.31494094156848 0 -4.2335852273225463 1 0 0 0 0 -1 forward_v I I I I #
coedge $-1 $358 $259 $165 $264 reversed $160 $-1 #
coedge $-1 $163 $162 $357 $359 reversed $61 $-1 #
coedge $-1 $257 $360 $162 $260 forward $160 $-1 #
edge $-1 $361 -5.3400932314886091 $262 5.3400932314886091 $162 $362 forward 7 unknown #
edge $-1 $170 -5.3400932314886091 $363 5.3400932314886091 $163 $364 forward 7 unknown #
vertex $-1 $164 $365 #
straight-curve $-1 -63.634754478591262 36.803753642360633 0 0 0 -1 I I #
edge $-1 $268 -36.803753642360633 $262 36.803753642360633 $257 $366 forward 7 unknown #
coedge $-1 $367 $166 $169 $271 reversed $267 $-1 #
coedge $-1 $166 $367 $358 $368 reversed $267 $-1 #
loop $-1 $-1 $166 $254 #
vertex $-1 $167 $369 #
straight-curve $-1 -63.634754478591262 -36.803753642360633 0 0 0 1 I I #
coedge $-1 $169 $168 $370 $371 forward $95 $-1 #
edge $-1 $372 -5.3400932314886091 $171 5.3400932314886091 $265 $373 forward 7 unknown #
point $-1 -63.634754478591262 36.803753642360633 -0.93870124991613357 #
point $-1 -63.634754478591262 -36.803753642360633 -0.93870124991613357 #
face $-1 $-1 $290 $23 $-1 $374 reversed single #
loop $-1 $-1 $375 $173 #
plane-surface $-1 74.314940941568494 0 -4.2335852273225463 -1 0 0 0 0 1 forward_v I I I I #
coedge $-1 $281 $376 $377 $378 forward $174 $-1 #
coedge $-1 $375 $379 $176 $279 reversed $275 $-1 #
edge $-1 $380 -36.803753642360633 $381 36.803753642360633 $278 $382 forward 7 unknown #
coedge $-1 $178 $177 $375 $383 reversed $65 $-1 #
coedge $-1 $286 $277 $177 $282 forward $174 $-1 #
edge $-1 $384 -5.3400932314886091 $284 5.3400932314886091 $177 $385 forward 7 unknown #
edge $-1 $185 -5.3400932314886091 $380 5.3400932314886091 $178 $386 forward 7 unknown #
vertex $-1 $179 $387 #
straight-curve $-1 63.634754478591262 -36.803753642360633 0 0 0 -1 I I #
coedge $-1 $376 $281 $180 $287 reversed $174 $-1 #
edge $-1 $291 -36.803753642360633 $284 36.803753642360633 $286 $388 forward 7 unknown #
coedge $-1 $389 $181 $184 $293 reversed $290 $-1 #
coedge $-1 $181 $389 $376 $390 reversed $290 $-1 #
loop $-1 $-1 $181 $274 #
vertex $-1 $182 $391 #
straight-curve $-1 63.634754478591262 36.803753642360633 0 0 0 1 I I #
edge $-1 $381 -5.3400932314886091 $186 5.3400932314886091 $288 $392 forward 7 unknown #
point $-1 63.634754478591276 -36.803753642360633 -0.93870124991613357 #
point $-1 63.634754478591276 36.803753642360633 -0.93870124991613357 #
loop $-1 $-1 $196 $188 #
plane-surface $-1 0 -36.803753642360633 0 0 1 0 0 0 1 forward_v I I I I #
coedge $-1 $299 $191 $193 $303 reversed $111 $-1 #
coedge $-1 $191 $298 $393 $394 reversed $111 $-1 #
coedge $-1 $199 $194 $191 $301 forward $189 $-1 #
edge $-1 $304 -24.721984460859431 $395 -20.775590494400127 $300 $396 forward 7 unknown #
coedge $-1 $193 $192 $307 $397 reversed $69 $-1 #
edge $-1 $398 0 $304 5.0080458656250215 $298 $399 forward 7 unknown #
vertex $-1 $195 $400 #
straight-curve $-1 -6.0904799181272189 -32.857359675901328 14.861788600409653 -1 0 0 I I #
coedge $-1 $393 $196 $199 $311 reversed $296 $-1 #
coedge $-1 $196 $393 $302 $397 forward $296 $-1 #
vertex $-1 $197 $401 #
straight-curve $-1 -4.6624034600515145 -36.803753642360633 56.034134276211333 0 0 1 I I #
straight-curve $-1 -4.6624034600515145 -36.803753642360633 11.778527655614766 0 -0.78801074757464917 -0.61566148304635926 I I #
edge $-1 $395 -19.699516212457361 $200 -4.6624034600515145 $306 $402 forward 7 unknown #
point $-1 -4.6624034600515145 -36.803753642360633 14.861788600409655 #
point $-1 -4.6624034600515145 -32.857359675901328 14.861788600409655 #
edge $-1 $403 1 $403 0 $203 $-1 forward 7 unknown #
vertex $-1 $204 $404 #
ellipse-curve $-1 -12.180959836254438 -33.093751321188648 11.097148713859013 0 -0.61566148304635926 0.78801074757464917 1 0 0 1 I I #
point $-1 -11.180959836254438 -34.830556659130977 13.32015812801221 #
plane-surface $-1 0 0 14.861788600409655 0 0 1 1 0 0 forward_v I I I I #
coedge $-1 $329 $328 $321 $405 forward $208 $-1 #
coedge $-1 $321 $210 $212 $325 reversed $126 $-1 #
coedge $-1 $210 $320 $319 $405 reversed $126 $-1 #
coedge $-1 $218 $213 $210 $323 forward $219 $-1 #
edge $-1 $326 4.279768960410415 $406 8.2261629268696908 $322 $407 forward 7 unknown #
coedge $-1 $212 $211 $329 $408 reversed $78 $-1 #
edge $-1 $409 -73.607507284721265 $326 -68.599461419096272 $320 $410 forward 7 unknown #
vertex $-1 $214 $411 #
straight-curve $-1 -6.0904799181272189 32.85735967590135 14.86178860040965 1 0 0 I I #
coedge $-1 $319 $215 $218 $333 reversed $208 $-1 #
coedge $-1 $215 $319 $324 $408 forward $208 $-1 #
vertex $-1 $216 $412 #
straight-curve $-1 -19.699516212457361 36.803753642360633 78.692787825339934 0 0 1 I I #
straight-curve $-1 -19.699516212457361 -21.199753200179003 57.095834753871969 0 0.78801074757464917 -0.61566148304635926 I I #
edge $-1 $406 4.6624034600515145 $220 19.699516212457361 $328 $413 forward 7 unknown #
point $-1 -19.699516212457361 36.803753642360633 14.861788600409655 #
point $-1 -19.699516212457361 32.857359675901357 14.861788600409653 #
edge $-1 $414 1 $414 0 $223 $-1 forward 7 unknown #
vertex $-1 $224 $415 #
ellipse-curve $-1 -12.180959836254438 33.093751321188634 11.097148713859017 0 0.61566148304635926 0.78801074757464917 1 0 0 1 I I #
point $-1 -11.180959836254438 34.830556659130963 13.320158128012213 #
plane-surface $-1 63.634754478591262 0 0 -1 0 0 0 0 1 forward_v I I I I #
coedge $-1 $232 $230 $234 $345 reversed $141 $-1 #
edge $-1 $245 -14.861788600409655 $347 14.861788600409655 $244 $416 forward 7 unknown #
vertex $-1 $345 $417 #
straight-curve $-1 -63.634754478591262 -36.803753642360633 0 0 0 -1 I I #
edge $-1 $343 -36.803753642360633 $347 36.803753642360633 $341 $418 forward 7 unknown #
straight-curve $-1 0 -36.803753642360633 -14.861788600409655 -1 0 0 I I #
vertex $-1 $237 $419 #
straight-curve $-1 0 36.803753642360633 -14.861788600409655 1 0 0 I I #
point $-1 63.634754478591262 36.803753642360633 -14.861788600409655 #
point $-1 63.634754478591262 -36.803753642360633 -14.861788600409655 #
straight-curve $-1 -63.634754478591262 0 14.861788600409655 0 -1 0 I I #
point $-1 -63.634754478591262 36.803753642360633 14.861788600409655 #
point $-1 -63.634754478591262 -36.803753642360633 14.861788600409655 #
straight-curve $-1 63.634754478591262 -36.803753642360633 0 0 0 -1 I I #
straight-curve $-1 63.634754478591262 36.803753642360633 0 0 0 -1 I I #
plane-surface $-1 0 -36.803753642360633 0 0 1 0 0 0 1 forward_v I I I I #
coedge $-1 $420 $370 $258 $359 forward $255 $-1 #
coedge $-1 $360 $257 $266 $368 forward $160 $-1 #
edge $-1 $363 -3.2948839774064127 $361 3.2948839774064123 $258 $421 forward 7 unknown #
coedge $-1 $259 $358 $420 $422 forward $160 $-1 #
vertex $-1 $260 $423 #
straight-curve $-1 -68.974847710079871 36.803753642360633 -7.5284692047289585 1 0 0 I I #
vertex $-1 $261 $424 #
straight-curve $-1 -68.974847710079871 36.803753642360633 -0.93870124991613357 -1 0 0 I I #
point $-1 -63.634754478591262 36.803753642360633 -7.5284692047289585 #
straight-curve $-1 -63.634754478591262 0 -7.5284692047289585 0 1 0 I I #
coedge $-1 $266 $265 $425 $426 forward $267 $-1 #
edge $-1 $268 -5.3400932314886091 $427 5.3400932314886091 $266 $428 forward 7 unknown #
point $-1 -63.634754478591262 -36.803753642360633 -7.5284692047289585 #
coedge $-1 $357 $425 $270 $371 reversed $255 $-1 #
edge $-1 $363 -36.803753642360633 $372 36.803753642360633 $370 $429 forward 7 unknown #
vertex $-1 $371 $430 #
straight-curve $-1 -68.974847710079871 -36.803753642360633 -0.93870124991613357 1 0 0 I I #
plane-surface $-1 0 36.803753642360633 0 0 -1 0 0 0 -1 forward_v I I I I #
coedge $-1 $377 $278 $280 $383 forward $275 $-1 #
coedge $-1 $277 $286 $289 $390 forward $174 $-1 #
coedge $-1 $379 $375 $277 $378 reversed $275 $-1 #
edge $-1 $431 -36.803753642360633 $384 36.803753642360633 $377 $432 forward 7 unknown #
coedge $-1 $278 $377 $389 $433 reversed $275 $-1 #
vertex $-1 $279 $434 #
vertex $-1 $279 $435 #
straight-curve $-1 74.314940941568494 0 -0.93870124991613357 0 1 0 I I #
edge $-1 $380 -3.2948839774064127 $384 3.2948839774064123 $375 $436 forward 7 unknown #
vertex $-1 $383 $437 #
straight-curve $-1 68.974847710079885 -36.803753642360633 -7.5284692047289585 -1 0 0 I I #
straight-curve $-1 68.974847710079885 -36.803753642360633 -0.93870124991613357 1 0 0 I I #
point $-1 63.634754478591276 -36.803753642360633 -7.5284692047289585 #
straight-curve $-1 63.634754478591262 0 -7.5284692047289585 0 -1 0 I I #
coedge $-1 $289 $288 $379 $433 forward $290 $-1 #
edge $-1 $291 -5.3400932314886091 $431 5.3400932314886091 $289 $438 forward 7 unknown #
point $-1 63.634754478591276 36.803753642360633 -7.5284692047289585 #
straight-curve $-1 68.974847710079885 36.803753642360633 -0.93870124991613357 -1 0 0 I I #
coedge $-1 $307 $306 $299 $394 forward $296 $-1 #
edge $-1 $395 41.172345675801679 $398 44.255606620596566 $393 $439 forward 7 unknown #
vertex $-1 $311 $440 #
straight-curve $-1 -19.699516212457361 -57.57934413676076 14.861788600409653 0 -1 0 I I #
edge $-1 $398 -13.609036294330142 $308 1.4280764580757044 $307 $441 forward 7 unknown #
vertex $-1 $397 $442 #
straight-curve $-1 -19.699516212457361 -36.803753642360633 11.778527655614766 0 0.78801074757464917 0.61566148304635926 I I #
point $-1 -19.699516212457361 -32.857359675901328 14.861788600409655 #
point $-1 -4.6624034600515145 -36.803753642360633 11.778527655614766 #
straight-curve $-1 0 -36.803753642360633 14.861788600409655 1 0 0 I I #
vertex $-1 $314 $443 #
point $-1 -11.180959836254438 -33.093751321188648 11.097148713859013 #
edge $-1 $406 63.830999224930281 $409 66.914260169725154 $319 $444 forward 7 unknown #
vertex $-1 $333 $445 #
straight-curve $-1 -4.6624034600515145 28.577590715490942 14.861788600409653 0 1 0 I I #
edge $-1 $409 -1.4280764580757044 $330 13.609036294330142 $329 $446 forward 7 unknown #
vertex $-1 $408 $447 #
straight-curve $-1 -4.6624034600515145 -21.199753200179003 57.095834753871969 0 -0.78801074757464917 0.61566148304635926 I I #
point $-1 -4.6624034600515145 32.857359675901357 14.861788600409653 #
point $-1 -19.699516212457361 36.803753642360633 11.778527655614781 #
straight-curve $-1 0 36.803753642360633 14.861788600409655 -1 0 0 I I #
vertex $-1 $336 $448 #
point $-1 -11.180959836254438 33.093751321188634 11.097148713859017 #
straight-curve $-1 -63.634754478591262 36.803753642360633 0 0 0 -1 I I #
point $-1 -63.634754478591262 -36.803753642360633 -14.861788600409655 #
straight-curve $-1 -63.634754478591262 0 -14.861788600409655 0 1 0 I I #
point $-1 -63.634754478591262 36.803753642360633 -14.861788600409655 #
coedge $-1 $425 $357 $360 $422 reversed $255 $-1 #
straight-curve $-1 -74.31494094156848 36.803753642360633 -4.2335852273225463 0 0 -1 I I #
edge $-1 $427 -36.803753642360633 $361 36.803753642360633 $420 $449 forward 7 unknown #
point $-1 -74.31494094156848 36.803753642360633 -7.5284692047289585 #
point $-1 -74.31494094156848 36.803753642360633 -0.93870124991613357 #
coedge $-1 $370 $420 $367 $426 reversed $255 $-1 #
edge $-1 $372 -3.2948839774064127 $427 3.2948839774064123 $425 $450 forward 7 unknown #
vertex $-1 $422 $451 #
straight-curve $-1 -68.974847710079871 -36.803753642360633 -7.5284692047289585 -1 0 0 I I #
straight-curve $-1 -74.31494094156848 0 -0.93870124991613357 0 -1 0 I I #
point $-1 -74.31494094156848 -36.803753642360633 -0.93870124991613357 #
vertex $-1 $378 $452 #
straight-curve $-1 74.314940941568494 0 -7.5284692047289585 0 -1 0 I I #
edge $-1 $381 -3.2948839774064127 $431 3.2948839774064123 $379 $453 forward 7 unknown #
point $-1 74.314940941568494 -36.803753642360633 -0.93870124991613357 #
point $-1 74.314940941568494 36.803753642360633 -0.93870124991613357 #
straight-curve $-1 74.314940941568494 -36.803753642360633 -4.2335852273225463 0 0 -1 I I #
point $-1 74.314940941568494 -36.803753642360633 -7.5284692047289585 #
straight-curve $-1 68.974847710079885 36.803753642360633 -7.5284692047289585 1 0 0 I I #
straight-curve $-1 -19.699516212457361 -36.803753642360633 56.034134276211333 0 0 -1 I I #
point $-1 -19.699516212457361 -36.803753642360633 14.861788600409655 #
straight-curve $-1 -6.0904799181272189 -36.803753642360633 11.778527655614766 1 0 0 I I #
point $-1 -19.699516212457361 -36.803753642360633 11.778527655614766 #
point $-1 -12.180959836254438 -32.478089838142296 10.309137966284364 #
straight-curve $-1 -4.6624034600515145 36.803753642360633 78.692787825339934 0 0 -1 I I #
point $-1 -4.6624034600515145 36.803753642360633 14.861788600409655 #
straight-curve $-1 -6.0904799181272189 36.803753642360633 11.778527655614784 -1 0 0 I I #
point $-1 -4.6624034600515145 36.803753642360633 11.778527655614781 #
point $-1 -12.180959836254438 32.478089838142282 10.309137966284368 #
straight-curve $-1 -74.31494094156848 0 -7.5284692047289585 0 1 0 I I #
straight-curve $-1 -74.31494094156848 -36.803753642360633 -4.2335852273225463 0 0 -1 I I #
point $-1 -74.31494094156848 -36.803753642360633 -7.5284692047289585 #
point $-1 74.314940941568494 36.803753642360633 -7.5284692047289585 #
straight-curve $-1 74.314940941568494 36.803753642360633 -4.2335852273225463 0 0 -1 I I #
End-of-ACIS-data 