500 0 8 0           
7 Unknown 11 ACIS 5.0 NT 24 Fri Mar 26 16:10:29 1999 
-1 9.9999999999999995e-007 1e-010 
body $-1 $8 $-1 $9 #
body $-1 $10 $-1 $11 #
body $-1 $12 $-1 $13 #
body $-1 $14 $-1 $15 #
body $-1 $16 $-1 $17 #
body $-1 $18 $-1 $19 #
body $-1 $20 $-1 $21 #
body $-1 $22 $-1 $23 #
lump $-1 $-1 $24 $0 #
transform $-1 1 0 0 0 1 0 0 0 1 66.186101870784626 27.551250065838047 6.7946913596617717 1 rotate no_reflect no_shear #
lump $-1 $-1 $25 $1 #
transform $-1 1 0 0 0 1 0 0 0 1 66.186101870784626 27.551250065838047 6.7946913596617717 1 rotate no_reflect no_shear #
lump $-1 $-1 $26 $2 #
transform $-1 1 0 0 0 1 0 0 0 1 66.186101870784626 27.551250065838047 6.7946913596617717 1 rotate no_reflect no_shear #
lump $-1 $-1 $27 $3 #
transform $-1 1 0 0 0 1 0 0 0 1 66.186101870784626 27.551250065838047 6.7946913596617717 1 rotate no_reflect no_shear #
lump $-1 $-1 $28 $4 #
transform $-1 1 0 0 0 1 0 0 0 1 66.186101870784626 27.551250065838047 6.7946913596617717 1 rotate no_reflect no_shear #
lump $-1 $-1 $29 $5 #
transform $-1 1 0 0 0 1 0 0 0 1 66.186101870784626 27.551250065838047 6.7946913596617717 1 rotate no_reflect no_shear #
lump $-1 $-1 $30 $6 #
transform $-1 1 0 0 0 1 0 0 0 1 66.186101870784626 27.551250065838047 6.7946913596617717 1 rotate no_reflect no_shear #
lump $-1 $-1 $31 $7 #
transform $-1 1 0 0 0 1 0 0 0 1 66.186101870784626 27.551250065838047 6.7946913596617717 1 rotate no_reflect no_shear #
shell $-1 $-1 $-1 $32 $-1 $8 #
shell $-1 $-1 $-1 $33 $-1 $10 #
shell $-1 $-1 $-1 $34 $-1 $12 #
shell $-1 $-1 $-1 $35 $-1 $14 #
shell $-1 $-1 $-1 $36 $-1 $16 #
shell $-1 $-1 $-1 $37 $-1 $18 #
shell $-1 $-1 $-1 $38 $-1 $20 #
shell $-1 $-1 $-1 $39 $-1 $22 #
face $-1 $40 $41 $24 $-1 $42 forward single #
face $-1 $43 $44 $25 $-1 $45 reversed single #
face $-1 $46 $47 $26 $-1 $48 reversed single #
face $-1 $49 $50 $27 $-1 $51 forward single #
face $-1 $52 $53 $28 $-1 $54 forward single #
face $-1 $55 $56 $29 $-1 $57 reversed single #
face $-1 $58 $59 $30 $-1 $60 forward single #
face $-1 $61 $62 $31 $-1 $63 forward single #
face $-1 $64 $65 $24 $-1 $66 reversed single #
loop $-1 $-1 $67 $32 #
plane-surface $-1 0 0 6.7946913596617717 0 0 1 1 0 0 forward_v I I I I #
face $-1 $68 $69 $25 $-1 $70 reversed single #
loop $-1 $-1 $71 $33 #
plane-surface $-1 0 -24.606909384859772 3.7946913596617717 0 0 1 1 0 0 forward_v I I I I #
face $-1 $72 $73 $26 $-1 $74 reversed single #
loop $-1 $-1 $75 $34 #
plane-surface $-1 114.63769399248503 -14.62746498393019 182.86665115557486 0 -1 0 -0.86602541151947299 0 -0.49999998660252726 forward_v I I I I #
face $-1 $76 $77 $27 $-1 $78 forward single #
loop $-1 $79 $80 $35 #
cone-surface $-1 64.381353321619272 -19.652539069609695 4.168775106135219 -0.86602541151947299 0 -0.49999998660252726 0.24999999330126363 0 -0.43301270575973649 1 I I 0 1 0.5 forward I I I I #
face $-1 $81 $82 $28 $-1 $83 forward single #
loop $-1 $84 $85 $36 #
cone-surface $-1 64.381353321619272 -16.637494618201991 4.168775106135219 -0.86602541151947299 0 -0.49999998660252726 0.24999999330126363 0 -0.43301270575973649 1 I I 0 1 0.5 forward I I I I #
face $-1 $86 $87 $29 $-1 $88 reversed single #
loop $-1 $-1 $89 $37 #
plane-surface $-1 -66.186101870784626 -18.145016843905843 2.0428588392112061 -0.86602541151947299 0 0.49999998660252726 0.49999998660252726 0 0.86602541151947299 forward_v I I I I #
face $-1 $90 $91 $30 $-1 $92 forward single #
loop $-1 $93 $94 $38 #
cone-surface $-1 -64.381353321619258 -19.652539069609695 4.1687751061352261 0.86602541151947299 0 -0.49999998660252726 0.24999999330126363 0 0.43301270575973649 1 I I 0 1 0.5 forward I I I I #
face $-1 $95 $96 $31 $-1 $97 forward single #
loop $-1 $98 $99 $39 #
cone-surface $-1 -64.381353321619258 -16.637494618201991 4.1687751061352261 0.86602541151947299 0 -0.49999998660252726 0.24999999330126363 0 0.43301270575973649 1 I I 0 1 0.5 forward I I I I #
face $-1 $100 $101 $24 $-1 $102 reversed single #
loop $-1 $-1 $103 $40 #
plane-surface $-1 0 0 -6.7946913596617717 0 0 1 1 0 0 forward_v I I I I #
coedge $-1 $104 $105 $106 $107 forward $41 $-1 #
face $-1 $108 $109 $25 $-1 $110 reversed single #
loop $-1 $-1 $111 $43 #
plane-surface $-1 0 -21.662568703881497 5.2946913596617717 0 -1 0 0 0 -1 forward_v I I I I #
coedge $-1 $112 $113 $114 $115 reversed $44 $-1 #
face $-1 $116 $117 $26 $-1 $118 forward single #
loop $-1 $-1 $119 $46 #
plane-surface $-1 1.7734529933477461e-006 -18.145016843905843 116.68055105824322 0.86602541151947299 0 0.49999998660252726 0.49999998660252726 0 -0.86602541151947299 forward_v I I I I #
coedge $-1 $120 $121 $122 $123 reversed $47 $-1 #
face $-1 $-1 $124 $27 $-1 $125 forward single #
loop $-1 $126 $127 $49 #
cone-surface $-1 63.731834262979675 -19.652539069609695 3.7937751161833235 -0.86602541151947299 0 -0.49999998660252726 0.12499999665063181 0 -0.21650635287986825 1 I I -0.70710678118654746 0.70710678118654746 0.25 forward I I I I #
loop $-1 $-1 $128 $35 #
coedge $-1 $80 $80 $129 $130 reversed $50 $-1 #
face $-1 $-1 $131 $28 $-1 $132 forward single #
loop $-1 $133 $134 $52 #
cone-surface $-1 63.731834262979675 -16.637494618201991 3.7937751161833235 -0.86602541151947299 0 -0.49999998660252726 0.12499999665063181 0 -0.21650635287986825 1 I I -0.70710678118654746 0.70710678118654746 0.25 forward I I I I #
loop $-1 $-1 $135 $36 #
coedge $-1 $85 $85 $136 $137 reversed $53 $-1 #
face $-1 $138 $139 $29 $-1 $140 forward single #
loop $-1 $-1 $141 $55 #
plane-surface $-1 -180.82379408981666 -14.62746498393019 68.228958936542838 0 -1 0 0.86602541151947299 0 -0.49999998660252726 forward_v I I I I #
coedge $-1 $142 $143 $144 $145 reversed $56 $-1 #
face $-1 $-1 $146 $30 $-1 $147 forward single #
loop $-1 $148 $149 $58 #
cone-surface $-1 -63.73183426297966 -19.652539069609695 3.7937751161833306 0.86602541151947299 0 -0.49999998660252726 0.12499999665063181 0 0.21650635287986825 1 I I -0.70710678118654746 0.70710678118654746 0.25 forward I I I I #
loop $-1 $-1 $150 $38 #
coedge $-1 $94 $94 $151 $152 reversed $59 $-1 #
face $-1 $-1 $153 $31 $-1 $154 forward single #
loop $-1 $155 $156 $61 #
cone-surface $-1 -63.73183426297966 -16.637494618201991 3.7937751161833306 0.86602541151947299 0 -0.49999998660252726 0.12499999665063181 0 0.21650635287986825 1 I I -0.70710678118654746 0.70710678118654746 0.25 forward I I I I #
loop $-1 $-1 $157 $39 #
coedge $-1 $99 $99 $158 $159 reversed $62 $-1 #
face $-1 $160 $161 $24 $-1 $162 reversed single #
loop $-1 $-1 $163 $64 #
plane-surface $-1 0 -27.551250065838047 0 0 1 0 0 0 1 forward_v I I I I #
coedge $-1 $164 $165 $166 $167 forward $65 $-1 #
coedge $-1 $168 $67 $169 $170 forward $41 $-1 #
coedge $-1 $67 $168 $171 $172 forward $41 $-1 #
coedge $-1 $173 $174 $67 $107 reversed $175 $-1 #
edge $-1 $176 -27.551250065838047 $177 27.551250065838047 $106 $178 forward 7 unknown #
face $-1 $179 $180 $25 $-1 $181 reversed single #
loop $-1 $-1 $182 $68 #
plane-surface $-1 -66.186101870784626 0 0 1 0 0 0 0 -1 forward_v I I I I #
coedge $-1 $183 $184 $185 $186 reversed $69 $-1 #
coedge $-1 $187 $71 $188 $189 reversed $44 $-1 #
coedge $-1 $71 $187 $183 $190 forward $44 $-1 #
coedge $-1 $185 $191 $71 $115 forward $192 $-1 #
edge $-1 $193 -15.247795373408161 $194 -9.3591140114516111 $114 $195 forward 7 unknown #
face $-1 $196 $197 $26 $-1 $198 forward single #
loop $-1 $-1 $199 $72 #
plane-surface $-1 0 -21.662568703881497 5.2946913596617717 0 -1 0 0 0 -1 forward_v I I I I #
coedge $-1 $200 $201 $202 $203 reversed $73 $-1 #
coedge $-1 $121 $75 $204 $205 reversed $47 $-1 #
coedge $-1 $75 $120 $200 $206 reversed $47 $-1 #
coedge $-1 $202 $207 $75 $123 forward $197 $-1 #
edge $-1 $208 -8.8672548745421125 $209 -6.1237831877308579 $122 $210 forward 7 unknown #
loop $-1 $-1 $129 $76 #
plane-surface $-1 1.7734529933477461e-006 -18.145016843905843 116.68055105824322 0.86602541151947299 0 0.49999998660252726 0.49999998660252726 0 -0.86602541151947299 forward_v I I I I #
loop $-1 $-1 $211 $49 #
coedge $-1 $127 $127 $128 $212 reversed $77 $-1 #
coedge $-1 $128 $128 $127 $212 forward $79 $-1 #
coedge $-1 $129 $129 $80 $130 forward $124 $-1 #
edge $-1 $213 0 $213 6.2831853071796004 $129 $214 forward 7 unknown #
loop $-1 $-1 $136 $81 #
plane-surface $-1 1.7734529933477461e-006 -18.145016843905843 116.68055105824322 0.86602541151947299 0 0.49999998660252726 0.49999998660252726 0 -0.86602541151947299 forward_v I I I I #
loop $-1 $-1 $215 $52 #
coedge $-1 $134 $134 $135 $216 reversed $82 $-1 #
coedge $-1 $135 $135 $134 $216 forward $84 $-1 #
coedge $-1 $136 $136 $85 $137 forward $131 $-1 #
edge $-1 $217 0 $217 6.2831853071796004 $136 $218 forward 7 unknown #
face $-1 $219 $220 $29 $-1 $221 reversed single #
loop $-1 $-1 $144 $86 #
plane-surface $-1 0 0 6.7946913596617717 0 0 1 1 0 0 forward_v I I I I #
coedge $-1 $222 $223 $224 $225 reversed $87 $-1 #
coedge $-1 $226 $89 $227 $228 reversed $56 $-1 #
coedge $-1 $89 $226 $222 $229 forward $56 $-1 #
coedge $-1 $224 $230 $89 $145 forward $139 $-1 #
edge $-1 $231 -12.590060281928576 $232 -5.5549565619772689 $144 $233 forward 7 unknown #
loop $-1 $-1 $151 $90 #
plane-surface $-1 -66.186101870784626 -18.145016843905843 2.0428588392112061 -0.86602541151947299 0 0.49999998660252726 0.49999998660252726 0 0.86602541151947299 forward_v I I I I #
loop $-1 $-1 $234 $58 #
coedge $-1 $149 $149 $150 $235 reversed $91 $-1 #
coedge $-1 $150 $150 $149 $235 forward $93 $-1 #
coedge $-1 $151 $151 $94 $152 forward $146 $-1 #
edge $-1 $236 0 $236 6.2831853071796004 $151 $237 forward 7 unknown #
loop $-1 $-1 $158 $95 #
plane-surface $-1 -66.186101870784626 -18.145016843905843 2.0428588392112061 -0.86602541151947299 0 0.49999998660252726 0.49999998660252726 0 0.86602541151947299 forward_v I I I I #
loop $-1 $-1 $238 $61 #
coedge $-1 $156 $156 $157 $239 reversed $96 $-1 #
coedge $-1 $157 $157 $156 $239 forward $98 $-1 #
coedge $-1 $158 $158 $99 $159 forward $153 $-1 #
edge $-1 $240 0 $240 6.2831853071796004 $158 $241 forward 7 unknown #
face $-1 $242 $243 $24 $-1 $244 reversed single #
loop $-1 $-1 $245 $100 #
plane-surface $-1 -66.186101870784626 0 0 1 0 0 0 0 -1 forward_v I I I I #
coedge $-1 $246 $171 $247 $248 forward $101 $-1 #
coedge $-1 $249 $103 $246 $250 forward $65 $-1 #
coedge $-1 $103 $249 $251 $252 forward $65 $-1 #
coedge $-1 $174 $173 $103 $167 reversed $175 $-1 #
edge $-1 $253 -27.551250065838047 $254 27.551250065838047 $166 $255 forward 7 unknown #
coedge $-1 $105 $104 $256 $257 forward $41 $-1 #
coedge $-1 $258 $259 $104 $170 reversed $243 $-1 #
edge $-1 $177 -66.186101870784626 $260 66.186101870784626 $169 $261 forward 7 unknown #
coedge $-1 $163 $262 $105 $172 reversed $101 $-1 #
edge $-1 $263 -66.186101870784626 $176 66.186101870784626 $171 $264 forward 7 unknown #
coedge $-1 $166 $106 $262 $265 forward $175 $-1 #
coedge $-1 $106 $166 $258 $266 reversed $175 $-1 #
loop $-1 $-1 $173 $242 #
vertex $-1 $107 $267 #
vertex $-1 $107 $268 #
straight-curve $-1 66.186101870784626 0 6.7946913596617717 0 1 0 I I #
face $-1 $269 $270 $25 $-1 $271 forward single #
loop $-1 $-1 $188 $108 #
plane-surface $-1 0 -27.551250065838047 0 0 1 0 0 0 1 forward_v I I I I #
coedge $-1 $272 $273 $274 $275 forward $109 $-1 #
coedge $-1 $274 $111 $113 $190 reversed $69 $-1 #
coedge $-1 $111 $274 $276 $277 reversed $69 $-1 #
coedge $-1 $278 $114 $111 $186 forward $192 $-1 #
edge $-1 $194 1.1473456798308859 $279 4.1473456798308863 $185 $280 forward 7 unknown #
coedge $-1 $113 $112 $272 $281 reversed $44 $-1 #
coedge $-1 $282 $283 $112 $189 forward $180 $-1 #
edge $-1 $284 -66.186101870784626 $193 66.186101870784626 $188 $285 forward 7 unknown #
edge $-1 $286 -66.186101870784626 $194 66.186101870784626 $183 $287 forward 7 unknown #
coedge $-1 $114 $278 $282 $288 forward $192 $-1 #
loop $-1 $-1 $185 $269 #
vertex $-1 $189 $289 #
vertex $-1 $115 $290 #
straight-curve $-1 66.186101870784626 -12.303454692429886 3.7946913596617717 0 1 0 I I #
face $-1 $-1 $291 $26 $-1 $292 reversed single #
loop $-1 $-1 $202 $116 #
plane-surface $-1 0 0 6.7946913596617717 0 0 1 1 0 0 forward_v I I I I #
coedge $-1 $293 $294 $201 $295 reversed $117 $-1 #
coedge $-1 $296 $119 $121 $206 forward $73 $-1 #
coedge $-1 $119 $296 $199 $295 forward $73 $-1 #
coedge $-1 $297 $122 $119 $203 forward $197 $-1 #
edge $-1 $209 5.5549565619772689 $298 12.590060281928576 $202 $299 forward 7 unknown #
coedge $-1 $300 $301 $120 $205 forward $291 $-1 #
edge $-1 $302 -89.390466738576237 $208 -84.638634218125659 $204 $303 forward 7 unknown #
edge $-1 $209 126.88526022092438 $302 132.37220374156925 $121 $304 forward 7 unknown #
coedge $-1 $122 $297 $300 $305 forward $197 $-1 #
vertex $-1 $205 $306 #
vertex $-1 $123 $307 #
straight-curve $-1 57.318846996242513 -14.62746498393019 6.7946913596617691 -1 0 0 I I #
coedge $-1 $211 $211 $-1 $308 reversed $126 $-1 #
edge $-1 $309 0 $309 6.2831853071796004 $127 $310 forward 7 unknown #
vertex $-1 $130 $311 #
ellipse-curve $-1 64.814366027379009 -19.652539069609695 4.4187750994364787 0.86602541151947299 0 0.49999998660252726 0.24999999330126363 0 -0.43301270575973649 1 I I #
coedge $-1 $215 $215 $-1 $312 reversed $133 $-1 #
edge $-1 $313 0 $313 6.2831853071796004 $134 $314 forward 7 unknown #
vertex $-1 $137 $315 #
ellipse-curve $-1 64.814366027379009 -16.637494618201991 4.4187750994364787 0.86602541151947299 0 0.49999998660252726 0.24999999330126363 0 -0.43301270575973649 1 I I #
face $-1 $-1 $316 $29 $-1 $317 forward single #
loop $-1 $-1 $318 $138 #
plane-surface $-1 -66.186101870784626 0 0 1 0 0 0 0 -1 forward_v I I I I #
coedge $-1 $223 $141 $143 $229 reversed $87 $-1 #
coedge $-1 $141 $222 $318 $319 reversed $87 $-1 #
coedge $-1 $320 $144 $141 $225 forward $139 $-1 #
edge $-1 $232 -26.969266860934951 $321 -24.225795174123704 $224 $322 forward 7 unknown #
coedge $-1 $143 $142 $323 $324 reversed $56 $-1 #
coedge $-1 $325 $326 $142 $228 forward $316 $-1 #
edge $-1 $327 -17.95460982269071 $231 -12.467666302045856 $227 $328 forward 7 unknown #
edge $-1 $329 0 $232 5.4869435206448527 $222 $330 forward 7 unknown #
coedge $-1 $144 $320 $325 $331 forward $139 $-1 #
vertex $-1 $228 $332 #
vertex $-1 $145 $333 #
straight-curve $-1 -63.442630183973378 -9.0725084219529215 6.7946913596617726 0 1 0 I I #
coedge $-1 $234 $234 $-1 $334 reversed $148 $-1 #
edge $-1 $335 0 $335 6.2831853071796004 $149 $336 forward 7 unknown #
vertex $-1 $152 $337 #
ellipse-curve $-1 -64.814366027378995 -19.652539069609695 4.418775099436492 -0.86602541151947299 0 0.49999998660252726 0.24999999330126363 0 0.43301270575973649 1 I I #
coedge $-1 $238 $238 $-1 $338 reversed $155 $-1 #
edge $-1 $339 0 $339 6.2831853071796004 $156 $340 forward 7 unknown #
vertex $-1 $159 $341 #
ellipse-curve $-1 -64.814366027378995 -16.637494618201991 4.418775099436492 -0.86602541151947299 0 0.49999998660252726 0.24999999330126363 0 0.43301270575973649 1 I I #
face $-1 $-1 $175 $24 $-1 $342 reversed single #
loop $-1 $-1 $258 $160 #
plane-surface $-1 0 27.551250065838047 0 0 -1 0 0 0 -1 forward_v I I I I #
coedge $-1 $343 $256 $259 $344 forward $161 $-1 #
coedge $-1 $262 $163 $164 $250 reversed $101 $-1 #
coedge $-1 $256 $343 $163 $248 reversed $161 $-1 #
edge $-1 $263 -6.7946913596617717 $345 6.7946913596617717 $247 $346 forward 7 unknown #
coedge $-1 $165 $164 $343 $347 forward $65 $-1 #
edge $-1 $254 -66.186101870784626 $345 66.186101870784626 $246 $348 forward 7 unknown #
coedge $-1 $259 $258 $165 $252 reversed $243 $-1 #
edge $-1 $349 -66.186101870784626 $253 66.186101870784626 $251 $350 forward 7 unknown #
vertex $-1 $167 $351 #
vertex $-1 $265 $352 #
straight-curve $-1 66.186101870784626 0 -6.7946913596617717 0 -1 0 I I #
coedge $-1 $245 $247 $168 $257 reversed $161 $-1 #
edge $-1 $260 -27.551250065838047 $263 27.551250065838047 $256 $353 forward 7 unknown #
coedge $-1 $251 $169 $174 $266 forward $243 $-1 #
coedge $-1 $169 $251 $245 $344 reversed $243 $-1 #
vertex $-1 $170 $354 #
straight-curve $-1 0 27.551250065838047 6.7946913596617717 -1 0 0 I I #
coedge $-1 $171 $246 $173 $265 reversed $101 $-1 #
vertex $-1 $257 $355 #
straight-curve $-1 0 -27.551250065838047 6.7946913596617717 1 0 0 I I #
edge $-1 $176 -6.7946913596617717 $254 6.7946913596617717 $173 $356 forward 7 unknown #
edge $-1 $177 -6.7946913596617717 $253 6.7946913596617717 $174 $357 forward 7 unknown #
point $-1 66.186101870784626 -27.551250065838047 6.7946913596617717 #
point $-1 66.186101870784626 27.551250065838047 6.7946913596617717 #
face $-1 $-1 $192 $25 $-1 $358 reversed single #
loop $-1 $-1 $276 $179 #
plane-surface $-1 0 0 6.7946913596617717 0 0 1 1 0 0 forward_v I I I I #
coedge $-1 $359 $182 $187 $281 forward $109 $-1 #
coedge $-1 $182 $359 $360 $361 reversed $109 $-1 #
coedge $-1 $184 $183 $182 $275 reversed $69 $-1 #
edge $-1 $362 -4.1473456798308863 $286 -1.1473456798308859 $182 $363 forward 7 unknown #
coedge $-1 $360 $364 $184 $277 forward $270 $-1 #
edge $-1 $279 -66.186101870784626 $362 66.186101870784626 $276 $365 forward 7 unknown #
coedge $-1 $191 $185 $364 $366 reversed $192 $-1 #
vertex $-1 $186 $367 #
straight-curve $-1 66.186101870784626 -21.662568703881497 2.6473456798308859 0 0 1 I I #
edge $-1 $286 9.3591140114516111 $284 15.247795373408161 $272 $368 forward 7 unknown #
coedge $-1 $369 $188 $191 $288 reversed $180 $-1 #
coedge $-1 $188 $369 $359 $370 forward $180 $-1 #
vertex $-1 $189 $371 #
straight-curve $-1 0 -27.551250065838047 3.7946913596617717 1 0 0 I I #
vertex $-1 $281 $372 #
straight-curve $-1 0 -21.662568703881497 3.7946913596617717 1 0 0 I I #
edge $-1 $373 -6.7946913596617717 $193 -3.7946913596617717 $191 $374 forward 7 unknown #
point $-1 66.186101870784626 -27.551250065838047 3.7946913596617717 #
point $-1 66.186101870784626 -21.662568703881497 3.7946913596617717 #
loop $-1 $-1 $204 $196 #
plane-surface $-1 66.186101870784626 0 0 -1 0 0 0 0 1 forward_v I I I I #
coedge $-1 $294 $199 $375 $376 reversed $117 $-1 #
coedge $-1 $199 $293 $297 $377 reversed $117 $-1 #
edge $-1 $378 -132.37220374156925 $298 -126.88526022092439 $199 $379 forward 7 unknown #
coedge $-1 $201 $200 $301 $380 reversed $73 $-1 #
coedge $-1 $207 $202 $294 $377 forward $197 $-1 #
vertex $-1 $377 $381 #
straight-curve $-1 63.442630183973378 -9.0725084219529215 6.7946913596617691 0 -1 0 I I #
coedge $-1 $375 $204 $207 $305 reversed $291 $-1 #
coedge $-1 $204 $375 $296 $380 forward $291 $-1 #
vertex $-1 $205 $382 #
straight-curve $-1 66.186101870784626 -14.62746498393019 91.433325577787429 0 0 1 I I #
straight-curve $-1 1.7734529933477461e-006 -14.62746498393019 116.68055105824322 0.49999998660252726 0 -0.86602541151947299 I I #
edge $-1 $383 -21.662568703881497 $208 -14.62746498393019 $300 $384 forward 7 unknown #
point $-1 66.186101870784626 -14.62746498393019 6.7946913596617717 #
point $-1 63.442630183973371 -14.62746498393019 6.7946913596617691 #
edge $-1 $385 1 $385 0 $211 $-1 forward 7 unknown #
vertex $-1 $212 $386 #
ellipse-curve $-1 63.948340615859543 -19.652539069609695 3.9187751128339552 0.86602541151947299 0 0.49999998660252726 0.24999999330126363 0 -0.43301270575973649 1 I I #
point $-1 65.064366020680282 -19.652539069609695 3.9857623936767461 #
edge $-1 $387 1 $387 0 $215 $-1 forward 7 unknown #
vertex $-1 $216 $388 #
ellipse-curve $-1 63.948340615859543 -16.637494618201991 3.9187751128339552 0.86602541151947299 0 0.49999998660252726 0.24999999330126363 0 -0.43301270575973649 1 I I #
point $-1 65.064366020680282 -16.637494618201991 3.9857623936767461 #
loop $-1 $-1 $227 $219 #
plane-surface $-1 0 -21.662568703881497 5.2946913596617717 0 -1 0 0 0 -1 forward_v I I I I #
coedge $-1 $323 $389 $223 $319 forward $220 $-1 #
edge $-1 $321 27.319788108609647 $329 32.071620629060213 $318 $390 forward 7 unknown #
coedge $-1 $230 $224 $389 $391 forward $139 $-1 #
vertex $-1 $391 $392 #
straight-curve $-1 -90.411897044908329 -14.62746498393019 6.7946913596617726 -1 0 0 I I #
coedge $-1 $393 $318 $226 $324 forward $220 $-1 #
edge $-1 $329 5.5549565619772689 $327 12.590060281928576 $323 $394 forward 7 unknown #
coedge $-1 $326 $227 $230 $331 reversed $316 $-1 #
coedge $-1 $227 $325 $393 $395 reversed $316 $-1 #
vertex $-1 $395 $396 #
straight-curve $-1 -57.208797199985668 -21.662568703881497 17.5920071995785 0.49999998660252726 0 0.86602541151947299 I I #
vertex $-1 $324 $397 #
straight-curve $-1 -66.186101870784626 -14.62746498393019 2.0428588392112061 0.49999998660252726 0 0.86602541151947299 I I #
edge $-1 $398 -66.186101870784626 $231 -63.442630183973378 $230 $399 forward 7 unknown #
point $-1 -63.442630183973378 -21.662568703881497 6.7946913596617717 #
point $-1 -63.442630183973378 -14.62746498393019 6.7946913596617717 #
edge $-1 $400 1 $400 0 $234 $-1 forward 7 unknown #
vertex $-1 $235 $401 #
ellipse-curve $-1 -63.948340615859529 -19.652539069609695 3.9187751128339623 -0.86602541151947299 0 0.49999998660252726 0.24999999330126363 0 0.43301270575973649 1 I I #
point $-1 -64.564366034077736 -19.652539069609695 4.851787805196226 #
edge $-1 $402 1 $402 0 $238 $-1 forward 7 unknown #
vertex $-1 $239 $403 #
ellipse-curve $-1 -63.948340615859529 -16.637494618201991 3.9187751128339623 -0.86602541151947299 0 0.49999998660252726 0.24999999330126363 0 0.43301270575973649 1 I I #
point $-1 -64.564366034077736 -16.637494618201991 4.851787805196226 #
plane-surface $-1 66.186101870784626 0 0 -1 0 0 0 0 1 forward_v I I I I #
coedge $-1 $247 $245 $249 $347 reversed $161 $-1 #
edge $-1 $260 -6.7946913596617717 $349 6.7946913596617717 $259 $404 forward 7 unknown #
vertex $-1 $347 $405 #
straight-curve $-1 -66.186101870784626 -27.551250065838047 0 0 0 -1 I I #
edge $-1 $345 -27.551250065838047 $349 27.551250065838047 $343 $406 forward 7 unknown #
straight-curve $-1 0 -27.551250065838047 -6.7946913596617717 -1 0 0 I I #
vertex $-1 $252 $407 #
straight-curve $-1 0 27.551250065838047 -6.7946913596617717 1 0 0 I I #
point $-1 66.186101870784626 27.551250065838047 -6.7946913596617717 #
point $-1 66.186101870784626 -27.551250065838047 -6.7946913596617717 #
straight-curve $-1 -66.186101870784626 0 6.7946913596617717 0 -1 0 I I #
point $-1 -66.186101870784626 27.551250065838047 6.7946913596617717 #
point $-1 -66.186101870784626 -27.551250065838047 6.7946913596617717 #
straight-curve $-1 66.186101870784626 -27.551250065838047 0 0 0 -1 I I #
straight-curve $-1 66.186101870784626 27.551250065838047 0 0 0 -1 I I #
plane-surface $-1 66.186101870784626 0 0 -1 0 0 0 0 1 forward_v I I I I #
coedge $-1 $273 $272 $283 $370 reversed $109 $-1 #
coedge $-1 $408 $276 $273 $361 forward $270 $-1 #
edge $-1 $362 21.662568703881497 $409 27.551250065838047 $273 $410 forward 7 unknown #
vertex $-1 $361 $411 #
straight-curve $-1 -66.186101870784626 -21.662568703881497 2.6473456798308859 0 0 -1 I I #
coedge $-1 $276 $408 $278 $366 forward $270 $-1 #
straight-curve $-1 0 -21.662568703881497 6.7946913596617717 -1 0 0 I I #
edge $-1 $373 -27.551250065838047 $279 -21.662568703881497 $278 $412 forward 7 unknown #
point $-1 66.186101870784626 -21.662568703881497 6.7946913596617717 #
straight-curve $-1 -66.186101870784626 -12.303454692429886 3.7946913596617717 0 -1 0 I I #
coedge $-1 $283 $282 $408 $413 reversed $180 $-1 #
edge $-1 $409 -6.7946913596617717 $284 -3.7946913596617717 $359 $414 forward 7 unknown #
point $-1 -66.186101870784626 -27.551250065838047 3.7946913596617717 #
point $-1 -66.186101870784626 -21.662568703881497 3.7946913596617717 #
vertex $-1 $366 $415 #
straight-curve $-1 66.186101870784626 -27.551250065838047 0 0 0 -1 I I #
coedge $-1 $301 $300 $293 $376 forward $291 $-1 #
edge $-1 $383 84.638634218125659 $378 89.390466738576237 $375 $416 forward 7 unknown #
edge $-1 $298 63.442630183973378 $383 66.186101870784626 $297 $417 forward 7 unknown #
vertex $-1 $376 $418 #
straight-curve $-1 1.7734529933477461e-006 -21.662568703881497 116.68055105824322 -0.49999998660252726 0 0.86602541151947299 I I #
edge $-1 $378 -12.590060281928576 $302 -5.5549565619772689 $301 $419 forward 7 unknown #
point $-1 63.442630183973378 -21.662568703881497 6.7946913596617717 #
point $-1 66.186101870784626 -14.62746498393019 2.0428588392111919 #
vertex $-1 $305 $420 #
straight-curve $-1 66.186101870784626 0 6.7946913596617717 0 1 0 I I #
vertex $-1 $308 $421 #
point $-1 64.198340609160809 -19.652539069609695 3.485762407074219 #
vertex $-1 $312 $422 #
point $-1 64.198340609160809 -16.637494618201991 3.485762407074219 #
coedge $-1 $318 $393 $320 $391 reversed $220 $-1 #
straight-curve $-1 -66.186101870784626 -14.62746498393019 34.114479468271419 0 0 -1 I I #
edge $-1 $321 14.62746498393019 $398 21.662568703881497 $389 $423 forward 7 unknown #
point $-1 -66.186101870784626 -14.62746498393019 6.7946913596617717 #
coedge $-1 $389 $323 $326 $395 forward $220 $-1 #
straight-curve $-1 -66.186101870784626 -9.0725084219529215 2.0428588392112128 0 -1 0 I I #
edge $-1 $327 -32.071620629060213 $398 -27.319788108609647 $393 $424 forward 7 unknown #
point $-1 -66.186101870784626 -21.662568703881497 2.0428588392112061 #
point $-1 -66.186101870784626 -14.62746498393019 2.0428588392112061 #
vertex $-1 $395 $425 #
straight-curve $-1 0 -21.662568703881497 6.7946913596617717 1 0 0 I I #
vertex $-1 $334 $426 #
point $-1 -63.698340622558263 -19.652539069609695 4.3517878185936993 #
vertex $-1 $338 $427 #
point $-1 -63.698340622558263 -16.637494618201991 4.3517878185936993 #
straight-curve $-1 -66.186101870784626 27.551250065838047 0 0 0 -1 I I #
point $-1 -66.186101870784626 -27.551250065838047 -6.7946913596617717 #
straight-curve $-1 -66.186101870784626 0 -6.7946913596617717 0 1 0 I I #
point $-1 -66.186101870784626 27.551250065838047 -6.7946913596617717 #
coedge $-1 $364 $360 $369 $413 forward $270 $-1 #
vertex $-1 $361 $428 #
straight-curve $-1 -66.186101870784626 0 6.7946913596617717 0 -1 0 I I #
point $-1 -66.186101870784626 -21.662568703881497 6.7946913596617717 #
straight-curve $-1 66.186101870784626 0 6.7946913596617717 0 1 0 I I #
edge $-1 $409 -66.186101870784626 $373 66.186101870784626 $369 $429 forward 7 unknown #
straight-curve $-1 -66.186101870784626 -27.551250065838047 0 0 0 -1 I I #
point $-1 66.186101870784626 -27.551250065838047 6.7946913596617717 #
straight-curve $-1 66.186101870784626 -21.662568703881497 91.433325577787429 0 0 -1 I I #
straight-curve $-1 0 -21.662568703881497 6.7946913596617717 1 0 0 I I #
point $-1 66.186101870784626 -21.662568703881497 2.0428588392111919 #
straight-curve $-1 66.186101870784626 -9.0725084219529215 2.0428588392111919 0 1 0 I I #
point $-1 66.186101870784626 -21.662568703881497 6.7946913596617717 #
point $-1 63.515327910099806 -19.652539069609695 3.6687751195326919 #
point $-1 63.515327910099806 -16.637494618201991 3.6687751195326919 #
straight-curve $-1 -66.186101870784626 0 6.7946913596617717 0 -1 0 I I #
straight-curve $-1 -66.186101870784626 -21.662568703881497 34.114479468271419 0 0 1 I I #
point $-1 -66.186101870784626 -21.662568703881497 6.7946913596617717 #
point $-1 -63.515327910099792 -19.652539069609695 3.668775119532699 #
point $-1 -63.515327910099792 -16.637494618201991 3.668775119532699 #
point $-1 -66.186101870784626 -27.551250065838047 6.7946913596617717 #
straight-curve $-1 0 -27.551250065838047 6.7946913596617717 1 0 0 I I #
End-of-ACIS-data 