500 0 8 0           
7 Unknown 11 ACIS 5.0 NT 24 Fri Mar 26 14:49:17 1999 
-1 9.9999999999999995e-007 1e-010 
body $-1 $8 $-1 $9 #
body $-1 $10 $-1 $11 #
body $-1 $12 $-1 $13 #
body $-1 $14 $-1 $15 #
body $-1 $16 $-1 $17 #
body $-1 $18 $-1 $19 #
body $-1 $20 $-1 $21 #
body $-1 $22 $-1 $23 #
lump $-1 $-1 $24 $0 #
transform $-1 1 0 0 0 1 0 0 0 1 59.948118533890806 32.074356519574778 9.6233837035811511 1 rotate no_reflect no_shear #
lump $-1 $-1 $25 $1 #
transform $-1 1 0 0 0 1 0 0 0 1 59.948118533890806 32.074356519574778 9.6233837035811511 1 rotate no_reflect no_shear #
lump $-1 $-1 $26 $2 #
transform $-1 1 0 0 0 1 0 0 0 1 59.948118533890806 32.074356519574778 9.6233837035811511 1 rotate no_reflect no_shear #
lump $-1 $-1 $27 $3 #
transform $-1 1 0 0 0 1 0 0 0 1 59.948118533890806 32.074356519574778 9.6233837035811511 1 rotate no_reflect no_shear #
lump $-1 $-1 $28 $4 #
transform $-1 1 0 0 0 1 0 0 0 1 59.948118533890806 32.074356519574778 9.6233837035811511 1 rotate no_reflect no_shear #
lump $-1 $-1 $29 $5 #
transform $-1 1 0 0 0 1 0 0 0 1 59.948118533890806 32.074356519574778 9.6233837035811511 1 rotate no_reflect no_shear #
lump $-1 $-1 $30 $6 #
transform $-1 1 0 0 0 1 0 0 0 1 59.948118533890806 32.074356519574778 9.6233837035811511 1 rotate no_reflect no_shear #
lump $-1 $-1 $31 $7 #
transform $-1 1 0 0 0 1 0 0 0 1 59.948118533890806 32.074356519574778 9.6233837035811511 1 rotate no_reflect no_shear #
shell $-1 $-1 $-1 $32 $-1 $8 #
shell $-1 $-1 $-1 $33 $-1 $10 #
shell $-1 $-1 $-1 $34 $-1 $12 #
shell $-1 $-1 $-1 $35 $-1 $14 #
shell $-1 $-1 $-1 $36 $-1 $16 #
shell $-1 $-1 $-1 $37 $-1 $18 #
shell $-1 $-1 $-1 $38 $-1 $20 #
shell $-1 $-1 $-1 $39 $-1 $22 #
face $-1 $40 $41 $24 $-1 $42 reversed single #
face $-1 $43 $44 $25 $-1 $45 forward single #
face $-1 $46 $47 $26 $-1 $48 reversed single #
face $-1 $49 $50 $27 $-1 $51 forward single #
face $-1 $52 $53 $28 $-1 $54 reversed single #
face $-1 $55 $56 $29 $-1 $57 forward single #
face $-1 $58 $59 $30 $-1 $60 forward single #
face $-1 $61 $62 $31 $-1 $63 forward single #
face $-1 $64 $65 $24 $-1 $66 forward single #
loop $-1 $-1 $67 $32 #
plane-surface $-1 0 -32.074356519574778 0 0 1 0 0 0 1 forward_v I I I I #
face $-1 $68 $69 $25 $-1 $70 reversed single #
loop $-1 $-1 $71 $33 #
plane-surface $-1 0 -32.074356519574778 0 0 1 0 0 0 1 forward_v I I I I #
face $-1 $72 $73 $26 $-1 $74 reversed single #
loop $-1 $-1 $75 $34 #
plane-surface $-1 -121.69924648367672 23.284007360670017 103.54794127110947 0 1 0 -0.51503808176128008 0 0.85716729658548041 forward_v I I I I #
face $-1 $76 $77 $27 $-1 $78 forward single #
loop $-1 $79 $80 $35 #
cone-surface $-1 -51.591569628347429 27.679181940122398 3.5442014471935805 0.51503808176128008 0 -0.85716729658548041 1.2857509448782207 0 0.77255712264192011 1 I I 0 1 1.5 forward I I I I #
face $-1 $81 $82 $28 $-1 $83 reversed single #
loop $-1 $-1 $84 $36 #
plane-surface $-1 39.28409025554916 7.4082588697036762 173.47434408837486 0 -1 0 -0.61566148304635926 0 -0.78801074757464917 forward_v I I I I #
face $-1 $85 $86 $29 $-1 $87 forward single #
loop $-1 $88 $89 $37 #
cone-surface $-1 56.796220333117347 0.81801740465449768 7.0073492581915522 -0.61566148304635926 0 -0.78801074757464917 0.39400537378732459 0 -0.30783074152317963 1 I I 0 1 0.5 forward I I I I #
face $-1 $90 $91 $30 $-1 $92 forward single #
loop $-1 $93 $94 $38 #
cone-surface $-1 56.796220333117347 3.2893579540479365 7.0073492581915522 -0.61566148304635926 0 -0.78801074757464917 0.39400537378732459 0 -0.30783074152317963 1 I I 0 1 0.5 forward I I I I #
face $-1 $95 $96 $31 $-1 $97 forward single #
loop $-1 $98 $99 $39 #
cone-surface $-1 56.796220333117347 5.7606985034413754 7.0073492581915522 -0.61566148304635926 0 -0.78801074757464917 0.39400537378732459 0 -0.30783074152317963 1 I I 0 1 0.5 forward I I I I #
face $-1 $100 $101 $24 $-1 $102 reversed single #
loop $-1 $-1 $103 $40 #
plane-surface $-1 0 0 9.6233837035811511 0 0 1 1 0 0 forward_v I I I I #
coedge $-1 $104 $105 $106 $107 reversed $41 $-1 #
face $-1 $108 $109 $25 $-1 $110 reversed single #
loop $-1 $-1 $111 $43 #
plane-surface $-1 0 0 -9.6233837035811511 0 0 1 1 0 0 forward_v I I I I #
coedge $-1 $112 $113 $114 $115 forward $44 $-1 #
face $-1 $116 $117 $26 $-1 $118 reversed single #
loop $-1 $-1 $119 $46 #
plane-surface $-1 -59.948118533890792 27.679181940122398 0.77680787294723075 -0.51503808176128008 0 0.85716729658548041 0.85716729658548041 0 0.51503808176128008 forward_v I I I I #
coedge $-1 $120 $121 $122 $123 reversed $47 $-1 #
face $-1 $-1 $124 $27 $-1 $125 forward single #
loop $-1 $126 $127 $49 #
cone-surface $-1 -50.210329350192794 27.679181940122398 1.2454316336838538 0.51503808176128008 0 -0.85716729658548041 0.64287547243911036 0 0.38627856132096006 1 I I -0.70710678118654757 0.70710678118654757 0.75 forward I I I I #
loop $-1 $-1 $128 $35 #
coedge $-1 $80 $80 $129 $130 reversed $50 $-1 #
face $-1 $131 $132 $28 $-1 $133 reversed single #
loop $-1 $-1 $134 $52 #
plane-surface $-1 -34.531404869279143 3.2893579540479436 78.994820685204914 0.61566148304635926 0 0.78801074757464917 0.78801074757464917 0 -0.61566148304635926 forward_v I I I I #
coedge $-1 $135 $136 $137 $138 reversed $53 $-1 #
face $-1 $-1 $139 $29 $-1 $140 forward single #
loop $-1 $141 $142 $55 #
cone-surface $-1 56.334474220832575 0.81801740465449768 6.4163411975105653 -0.61566148304635926 0 -0.78801074757464917 0.19700268689366229 0 -0.15391537076158981 1 I I -0.70710678118654746 0.70710678118654746 0.25 forward I I I I #
loop $-1 $-1 $143 $37 #
coedge $-1 $89 $89 $144 $145 reversed $56 $-1 #
face $-1 $-1 $146 $30 $-1 $147 forward single #
loop $-1 $148 $149 $58 #
cone-surface $-1 56.334474220832575 3.2893579540479365 6.4163411975105653 -0.61566148304635926 0 -0.78801074757464917 0.19700268689366229 0 -0.15391537076158981 1 I I -0.70710678118654746 0.70710678118654746 0.25 forward I I I I #
loop $-1 $-1 $150 $38 #
coedge $-1 $94 $94 $151 $152 reversed $59 $-1 #
face $-1 $-1 $153 $31 $-1 $154 forward single #
loop $-1 $155 $156 $61 #
cone-surface $-1 56.334474220832575 5.7606985034413754 6.4163411975105653 -0.61566148304635926 0 -0.78801074757464917 0.19700268689366229 0 -0.15391537076158981 1 I I -0.70710678118654746 0.70710678118654746 0.25 forward I I I I #
loop $-1 $-1 $157 $39 #
coedge $-1 $99 $99 $158 $159 reversed $62 $-1 #
face $-1 $160 $161 $24 $-1 $162 reversed single #
loop $-1 $-1 $163 $64 #
plane-surface $-1 0 0 -9.6233837035811511 0 0 1 1 0 0 forward_v I I I I #
coedge $-1 $164 $165 $166 $167 forward $65 $-1 #
coedge $-1 $168 $67 $169 $170 reversed $41 $-1 #
coedge $-1 $67 $168 $171 $172 forward $41 $-1 #
coedge $-1 $173 $163 $67 $107 forward $101 $-1 #
edge $-1 $174 -59.948118533890806 $175 59.948118533890806 $67 $176 forward 7 unknown #
face $-1 $177 $178 $25 $-1 $179 reversed single #
loop $-1 $-1 $180 $68 #
plane-surface $-1 -42.975256224081846 -43.793697745632116 0 0 1 0 0 0 1 forward_v I I I I #
coedge $-1 $181 $182 $113 $183 forward $69 $-1 #
coedge $-1 $184 $71 $185 $186 reversed $44 $-1 #
coedge $-1 $71 $184 $111 $183 reversed $44 $-1 #
coedge $-1 $187 $188 $71 $115 reversed $178 $-1 #
edge $-1 $189 -9.6233837035811511 $190 9.6233837035811511 $114 $191 forward 7 unknown #
face $-1 $192 $193 $26 $-1 $194 forward single #
loop $-1 $-1 $195 $72 #
plane-surface $-1 -59.948118533890806 0 0 1 0 0 0 0 -1 forward_v I I I I #
coedge $-1 $196 $197 $198 $199 reversed $73 $-1 #
coedge $-1 $121 $75 $200 $201 reversed $47 $-1 #
coedge $-1 $75 $120 $196 $202 reversed $47 $-1 #
coedge $-1 $198 $203 $75 $123 forward $193 $-1 #
edge $-1 $204 0.90150470794755222 $205 15.624679085366992 $122 $206 forward 7 unknown #
loop $-1 $-1 $129 $76 #
plane-surface $-1 -59.948118533890792 27.679181940122398 0.77680787294723075 -0.51503808176128008 0 0.85716729658548041 0.85716729658548041 0 0.51503808176128008 forward_v I I I I #
loop $-1 $-1 $207 $49 #
coedge $-1 $127 $127 $128 $208 reversed $77 $-1 #
coedge $-1 $128 $128 $127 $208 forward $79 $-1 #
coedge $-1 $129 $129 $80 $130 forward $124 $-1 #
edge $-1 $209 0 $209 6.2831853071796004 $129 $210 forward 7 unknown #
face $-1 $211 $212 $28 $-1 $213 forward single #
loop $-1 $-1 $214 $81 #
plane-surface $-1 39.28409025554916 -0.82954296160778895 173.47434408837486 0 1 0 0.61566148304635926 0 0.78801074757464917 forward_v I I I I #
coedge $-1 $215 $216 $217 $218 reversed $82 $-1 #
coedge $-1 $136 $84 $219 $220 reversed $53 $-1 #
coedge $-1 $84 $135 $215 $221 reversed $53 $-1 #
coedge $-1 $217 $222 $84 $138 forward $212 $-1 #
edge $-1 $223 -40.306073406116226 $224 -34.617938487615703 $137 $225 forward 7 unknown #
loop $-1 $-1 $144 $85 #
plane-surface $-1 -34.531404869279143 3.2893579540479436 78.994820685204914 0.61566148304635926 0 0.78801074757464917 0.78801074757464917 0 -0.61566148304635926 forward_v I I I I #
loop $-1 $-1 $226 $55 #
coedge $-1 $142 $142 $143 $227 reversed $86 $-1 #
coedge $-1 $143 $143 $142 $227 forward $88 $-1 #
coedge $-1 $144 $144 $89 $145 forward $139 $-1 #
edge $-1 $228 0 $228 6.2831853071796004 $144 $229 forward 7 unknown #
loop $-1 $-1 $151 $90 #
plane-surface $-1 -34.531404869279143 3.2893579540479436 78.994820685204914 0.61566148304635926 0 0.78801074757464917 0.78801074757464917 0 -0.61566148304635926 forward_v I I I I #
loop $-1 $-1 $230 $58 #
coedge $-1 $149 $149 $150 $231 reversed $91 $-1 #
coedge $-1 $150 $150 $149 $231 forward $93 $-1 #
coedge $-1 $151 $151 $94 $152 forward $146 $-1 #
edge $-1 $232 0 $232 6.2831853071796004 $151 $233 forward 7 unknown #
loop $-1 $-1 $158 $95 #
plane-surface $-1 -34.531404869279143 3.2893579540479436 78.994820685204914 0.61566148304635926 0 0.78801074757464917 0.78801074757464917 0 -0.61566148304635926 forward_v I I I I #
loop $-1 $-1 $234 $61 #
coedge $-1 $156 $156 $157 $235 reversed $96 $-1 #
coedge $-1 $157 $157 $156 $235 forward $98 $-1 #
coedge $-1 $158 $158 $99 $159 forward $153 $-1 #
edge $-1 $236 0 $236 6.2831853071796004 $158 $237 forward 7 unknown #
face $-1 $238 $239 $24 $-1 $240 reversed single #
loop $-1 $-1 $241 $100 #
plane-surface $-1 -59.948118533890806 0 0 1 0 0 0 0 -1 forward_v I I I I #
coedge $-1 $106 $242 $243 $244 forward $101 $-1 #
coedge $-1 $245 $103 $246 $247 forward $65 $-1 #
coedge $-1 $103 $245 $168 $248 forward $65 $-1 #
coedge $-1 $169 $249 $103 $167 reversed $250 $-1 #
edge $-1 $251 -32.074356519574778 $252 32.074356519574778 $166 $253 forward 7 unknown #
coedge $-1 $105 $104 $165 $248 reversed $41 $-1 #
coedge $-1 $243 $166 $104 $170 forward $250 $-1 #
edge $-1 $251 -9.6233837035811511 $174 9.6233837035811511 $169 $254 forward 7 unknown #
coedge $-1 $255 $256 $105 $172 reversed $161 $-1 #
edge $-1 $257 -9.6233837035811511 $175 9.6233837035811511 $171 $258 forward 7 unknown #
coedge $-1 $242 $106 $256 $259 forward $101 $-1 #
vertex $-1 $170 $260 #
vertex $-1 $259 $261 #
straight-curve $-1 0 -32.074356519574778 -9.6233837035811511 -1 0 0 I I #
face $-1 $262 $263 $25 $-1 $264 reversed single #
loop $-1 $-1 $114 $108 #
plane-surface $-1 -45.249161321435189 -37.934027132603447 0 1 0 0 0 0 -1 forward_v I I I I #
coedge $-1 $265 $266 $267 $268 forward $109 $-1 #
coedge $-1 $269 $111 $270 $271 forward $69 $-1 #
coedge $-1 $111 $269 $187 $272 forward $69 $-1 #
edge $-1 $189 -45.249161321435189 $273 -40.701351126728504 $111 $274 forward 7 unknown #
coedge $-1 $113 $112 $275 $276 forward $44 $-1 #
coedge $-1 $277 $278 $112 $186 forward $279 $-1 #
edge $-1 $280 40.701351126728504 $190 45.249161321435189 $185 $281 forward 7 unknown #
coedge $-1 $267 $114 $182 $272 reversed $178 $-1 #
coedge $-1 $114 $267 $277 $282 reversed $178 $-1 #
vertex $-1 $183 $283 #
vertex $-1 $282 $284 #
straight-curve $-1 -45.249161321435189 -32.074356519574778 0 0 0 1 I I #
face $-1 $-1 $285 $26 $-1 $286 reversed single #
loop $-1 $-1 $198 $116 #
plane-surface $-1 0 0 9.6233837035811511 0 0 1 1 0 0 forward_v I I I I #
coedge $-1 $200 $287 $288 $289 forward $117 $-1 #
coedge $-1 $288 $119 $121 $202 forward $73 $-1 #
coedge $-1 $119 $288 $290 $291 reversed $73 $-1 #
coedge $-1 $292 $122 $119 $199 forward $193 $-1 #
edge $-1 $205 9.4444163906088185 $293 18.234765549513579 $198 $294 forward 7 unknown #
coedge $-1 $295 $195 $120 $201 forward $117 $-1 #
edge $-1 $296 -50.997162762607509 $204 -42.150586931973578 $200 $297 forward 7 unknown #
edge $-1 $205 -17.176547024214621 $296 1.6583994872760861e-014 $121 $298 forward 7 unknown #
coedge $-1 $122 $292 $295 $299 forward $193 $-1 #
vertex $-1 $201 $300 #
vertex $-1 $123 $301 #
straight-curve $-1 -60.849623241838358 23.284007360670017 9.6233837035811476 1 0 0 I I #
coedge $-1 $207 $207 $-1 $302 reversed $126 $-1 #
edge $-1 $303 0 $303 6.2831853071796004 $127 $304 forward 7 unknown #
vertex $-1 $130 $305 #
ellipse-curve $-1 -52.586531345181093 27.679181940122398 5.2000957882641821 -0.51503808176128008 0 0.85716729658548041 1.2857509448782207 0 0.77255712264192011 1 I I #
face $-1 $-1 $306 $28 $-1 $307 reversed single #
loop $-1 $-1 $137 $131 #
plane-surface $-1 0 0 9.6233837035811511 0 0 1 1 0 0 forward_v I I I I #
coedge $-1 $308 $309 $310 $311 reversed $132 $-1 #
coedge $-1 $312 $134 $136 $221 forward $82 $-1 #
coedge $-1 $134 $312 $308 $313 forward $82 $-1 #
coedge $-1 $310 $137 $134 $218 forward $212 $-1 #
edge $-1 $224 -5.7635798926797044 $314 2.4742219386317608 $217 $315 forward 7 unknown #
coedge $-1 $316 $317 $135 $220 forward $306 $-1 #
edge $-1 $318 -81.55784648381082 $223 -77.113788340606277 $219 $319 forward 7 unknown #
edge $-1 $224 112.67789019115899 $318 119.89623706778161 $136 $320 forward 7 unknown #
coedge $-1 $137 $310 $316 $321 forward $212 $-1 #
vertex $-1 $138 $322 #
vertex $-1 $138 $323 #
straight-curve $-1 19.64204512777458 7.4082588697036762 9.6233837035811547 -1 0 0 I I #
coedge $-1 $226 $226 $-1 $324 reversed $141 $-1 #
edge $-1 $325 0 $325 6.2831853071796004 $142 $326 forward 7 unknown #
vertex $-1 $145 $327 #
ellipse-curve $-1 57.104051074640537 0.81801740465449768 7.4013546319788937 0.61566148304635926 0 0.78801074757464917 0.39400537378732459 0 -0.30783074152317963 1 I I #
coedge $-1 $230 $230 $-1 $328 reversed $148 $-1 #
edge $-1 $329 0 $329 6.2831853071796004 $149 $330 forward 7 unknown #
vertex $-1 $152 $331 #
ellipse-curve $-1 57.104051074640537 3.2893579540479365 7.4013546319788937 0.61566148304635926 0 0.78801074757464917 0.39400537378732459 0 -0.30783074152317963 1 I I #
coedge $-1 $234 $234 $-1 $332 reversed $155 $-1 #
edge $-1 $333 0 $333 6.2831853071796004 $156 $334 forward 7 unknown #
vertex $-1 $159 $335 #
ellipse-curve $-1 57.104051074640537 5.7606985034413754 7.4013546319788937 0.61566148304635926 0 0.78801074757464917 0.39400537378732459 0 -0.30783074152317963 1 I I #
face $-1 $-1 $250 $24 $-1 $336 reversed single #
loop $-1 $-1 $337 $160 #
plane-surface $-1 0 32.074356519574778 0 0 -1 0 0 0 -1 forward_v I I I I #
coedge $-1 $256 $255 $338 $339 forward $161 $-1 #
coedge $-1 $163 $173 $340 $341 forward $101 $-1 #
coedge $-1 $249 $169 $163 $244 reversed $250 $-1 #
edge $-1 $342 -32.074356519574778 $174 32.074356519574778 $243 $343 forward 7 unknown #
coedge $-1 $165 $164 $255 $344 forward $65 $-1 #
coedge $-1 $337 $338 $164 $247 reversed $239 $-1 #
edge $-1 $252 -59.948118533890806 $345 59.948118533890806 $246 $346 forward 7 unknown #
edge $-1 $257 -59.948118533890806 $251 59.948118533890806 $168 $347 forward 7 unknown #
coedge $-1 $166 $243 $337 $348 reversed $250 $-1 #
loop $-1 $-1 $169 $238 #
vertex $-1 $167 $349 #
vertex $-1 $167 $350 #
straight-curve $-1 59.948118533890806 0 9.6233837035811511 0 1 0 I I #
straight-curve $-1 59.948118533890806 -32.074356519574778 0 0 0 -1 I I #
coedge $-1 $241 $171 $245 $344 reversed $161 $-1 #
coedge $-1 $171 $241 $173 $259 reversed $161 $-1 #
vertex $-1 $344 $351 #
straight-curve $-1 -59.948118533890806 -32.074356519574778 0 0 0 -1 I I #
edge $-1 $175 -32.074356519574778 $352 32.074356519574778 $256 $353 forward 7 unknown #
point $-1 59.948118533890806 -32.074356519574778 -9.6233837035811511 #
point $-1 -59.948118533890806 -32.074356519574778 -9.6233837035811511 #
face $-1 $-1 $279 $25 $-1 $354 forward single #
loop $-1 $-1 $355 $177 #
plane-surface $-1 -40.701351126728504 -37.934027132603447 0 -1 0 0 0 0 1 forward_v I I I I #
coedge $-1 $356 $180 $269 $357 reversed $109 $-1 #
coedge $-1 $180 $356 $358 $359 reversed $109 $-1 #
coedge $-1 $188 $187 $180 $268 reversed $178 $-1 #
edge $-1 $360 -9.6233837035811511 $361 9.6233837035811511 $267 $362 forward 7 unknown #
coedge $-1 $182 $181 $265 $357 forward $69 $-1 #
coedge $-1 $275 $355 $181 $271 reversed $263 $-1 #
edge $-1 $273 -5.8596706130286691 $363 5.8596706130286691 $270 $364 forward 7 unknown #
edge $-1 $361 -5.8596706130286691 $189 5.8596706130286691 $187 $365 forward 7 unknown #
vertex $-1 $271 $366 #
straight-curve $-1 0 -32.074356519574778 -9.6233837035811511 1 0 0 I I #
coedge $-1 $367 $270 $184 $276 reversed $263 $-1 #
edge $-1 $280 -9.6233837035811511 $273 9.6233837035811511 $275 $368 forward 7 unknown #
coedge $-1 $358 $185 $188 $282 forward $279 $-1 #
coedge $-1 $185 $358 $367 $369 forward $279 $-1 #
loop $-1 $-1 $185 $262 #
vertex $-1 $186 $370 #
straight-curve $-1 0 -32.074356519574778 9.6233837035811511 -1 0 0 I I #
edge $-1 $190 -5.8596706130286691 $360 5.8596706130286691 $188 $371 forward 7 unknown #
point $-1 -45.249161321435189 -32.074356519574778 -9.6233837035811511 #
point $-1 -45.249161321435189 -32.074356519574778 9.6233837035811511 #
loop $-1 $-1 $290 $192 #
plane-surface $-1 0 32.074356519574778 0 0 -1 0 0 0 -1 forward_v I I I I #
coedge $-1 $195 $295 $372 $373 forward $117 $-1 #
coedge $-1 $197 $196 $195 $289 reversed $73 $-1 #
edge $-1 $374 -18.234765549513579 $296 -9.4444163906088185 $195 $375 forward 7 unknown #
coedge $-1 $372 $376 $197 $291 forward $285 $-1 #
edge $-1 $293 8.3161935069360293 $374 25.492740531150666 $290 $377 forward 7 unknown #
coedge $-1 $203 $198 $376 $378 forward $193 $-1 #
vertex $-1 $378 $379 #
straight-curve $-1 -45.224944156471366 13.839590970061199 9.6233837035811511 0 1 0 I I #
coedge $-1 $287 $200 $203 $299 reversed $117 $-1 #
vertex $-1 $201 $380 #
straight-curve $-1 -59.948118533890806 23.284007360670017 51.773970635554733 0 0 1 I I #
straight-curve $-1 -59.948118533890792 23.284007360670017 0.77680787294723075 -0.85716729658548041 0 -0.51503808176128008 I I #
edge $-1 $381 -32.074356519574778 $204 -23.284007360670017 $295 $382 forward 7 unknown #
point $-1 -59.948118533890806 23.284007360670017 9.6233837035811511 #
point $-1 -45.224944156471366 23.284007360670017 9.6233837035811511 #
edge $-1 $383 1 $383 0 $207 $-1 forward 7 unknown #
vertex $-1 $208 $384 #
ellipse-curve $-1 -50.59660791151375 27.679181940122398 1.8883071061229642 -0.51503808176128008 0 0.85716729658548041 1.2857509448782207 0 0.77255712264192011 1 I I #
point $-1 -51.300780400302884 27.679181940122398 5.9726529109061168 #
loop $-1 $-1 $219 $211 #
plane-surface $-1 59.948118533890806 0 0 -1 0 0 0 0 1 forward_v I I I I #
coedge $-1 $309 $214 $216 $313 reversed $132 $-1 #
coedge $-1 $214 $308 $385 $386 reversed $132 $-1 #
coedge $-1 $222 $217 $214 $311 forward $212 $-1 #
edge $-1 $314 34.617938487615703 $387 40.306073406116226 $310 $388 forward 7 unknown #
coedge $-1 $216 $215 $317 $389 reversed $82 $-1 #
edge $-1 $390 -119.89623706778161 $314 -112.67789019115899 $308 $391 forward 7 unknown #
vertex $-1 $218 $392 #
straight-curve $-1 54.25998361539029 1.6446789770239718 9.6233837035811476 0 -1 0 I I #
coedge $-1 $385 $219 $222 $321 reversed $306 $-1 #
coedge $-1 $219 $385 $312 $389 forward $306 $-1 #
vertex $-1 $220 $393 #
straight-curve $-1 59.948118533890806 7.4082588697036762 86.737172044187432 0 0 1 I I #
straight-curve $-1 -34.531404869279143 7.4082588697036762 78.994820685204914 0.78801074757464917 0 -0.61566148304635926 I I #
edge $-1 $387 -0.82954296160778895 $223 7.4082588697036762 $316 $394 forward 7 unknown #
point $-1 59.948118533890806 7.4082588697036762 9.6233837035811511 #
point $-1 54.259983615390283 7.4082588697036762 9.6233837035811547 #
edge $-1 $395 1 $395 0 $226 $-1 forward 7 unknown #
vertex $-1 $227 $396 #
ellipse-curve $-1 56.488389591594164 0.81801740465449768 6.6133438844042276 0.61566148304635926 0 0.78801074757464917 0.39400537378732459 0 -0.30783074152317963 1 I I #
point $-1 57.498056448427846 0.81801740465449768 7.093523890455697 #
edge $-1 $397 1 $397 0 $230 $-1 forward 7 unknown #
vertex $-1 $231 $398 #
ellipse-curve $-1 56.488389591594164 3.2893579540479365 6.6133438844042276 0.61566148304635926 0 0.78801074757464917 0.39400537378732459 0 -0.30783074152317963 1 I I #
point $-1 57.498056448427846 3.2893579540479365 7.093523890455697 #
edge $-1 $399 1 $399 0 $234 $-1 forward 7 unknown #
vertex $-1 $235 $400 #
ellipse-curve $-1 56.488389591594164 5.7606985034413754 6.6133438844042276 0.61566148304635926 0 0.78801074757464917 0.39400537378732459 0 -0.30783074152317963 1 I I #
point $-1 57.498056448427846 5.7606985034413754 7.093523890455697 #
plane-surface $-1 59.948118533890806 0 0 -1 0 0 0 0 1 forward_v I I I I #
coedge $-1 $340 $246 $249 $348 forward $239 $-1 #
coedge $-1 $246 $340 $241 $339 reversed $239 $-1 #
edge $-1 $345 -9.6233837035811511 $352 9.6233837035811511 $338 $401 forward 7 unknown #
coedge $-1 $338 $337 $242 $341 reversed $239 $-1 #
edge $-1 $352 -59.948118533890806 $342 59.948118533890806 $340 $402 forward 7 unknown #
vertex $-1 $244 $403 #
straight-curve $-1 59.948118533890806 0 -9.6233837035811511 0 -1 0 I I #
edge $-1 $345 -32.074356519574778 $257 32.074356519574778 $255 $404 forward 7 unknown #
vertex $-1 $247 $405 #
straight-curve $-1 0 32.074356519574778 9.6233837035811511 -1 0 0 I I #
straight-curve $-1 0 -32.074356519574778 9.6233837035811511 1 0 0 I I #
edge $-1 $252 -9.6233837035811511 $342 9.6233837035811511 $249 $406 forward 7 unknown #
point $-1 59.948118533890806 -32.074356519574778 9.6233837035811511 #
point $-1 59.948118533890806 32.074356519574778 9.6233837035811511 #
point $-1 -59.948118533890806 -32.074356519574778 9.6233837035811511 #
vertex $-1 $341 $407 #
straight-curve $-1 -59.948118533890806 0 -9.6233837035811511 0 1 0 I I #
plane-surface $-1 0 0 9.6233837035811511 0 0 1 1 0 0 forward_v I I I I #
coedge $-1 $270 $367 $356 $408 forward $263 $-1 #
coedge $-1 $266 $265 $355 $408 reversed $109 $-1 #
edge $-1 $363 -2.2739050973533423 $361 2.2739050973533423 $265 $409 forward 7 unknown #
coedge $-1 $278 $277 $266 $359 forward $279 $-1 #
edge $-1 $360 -2.2739050973533423 $410 2.2739050973533423 $266 $411 forward 7 unknown #
vertex $-1 $282 $412 #
vertex $-1 $272 $413 #
straight-curve $-1 -45.249161321435189 -43.793697745632116 0 0 0 -1 I I #
vertex $-1 $408 $414 #
straight-curve $-1 -40.701351126728504 -37.934027132603447 -9.6233837035811511 0 -1 0 I I #
straight-curve $-1 -45.249161321435189 -37.934027132603447 -9.6233837035811511 0 1 0 I I #
point $-1 -40.701351126728504 -32.074356519574778 -9.6233837035811511 #
coedge $-1 $355 $275 $278 $369 reversed $263 $-1 #
straight-curve $-1 -40.701351126728504 -32.074356519574778 0 0 0 -1 I I #
edge $-1 $410 -5.8596706130286691 $280 5.8596706130286691 $367 $415 forward 7 unknown #
point $-1 -40.701351126728504 -32.074356519574778 9.6233837035811511 #
straight-curve $-1 -45.249161321435189 -37.934027132603447 9.6233837035811511 0 -1 0 I I #
coedge $-1 $376 $290 $287 $373 reversed $285 $-1 #
edge $-1 $381 -9.6233837035811511 $374 -0.7768078729472222 $372 $416 forward 7 unknown #
vertex $-1 $291 $417 #
straight-curve $-1 -59.948118533890806 13.839590970061199 0.77680787294722209 0 -1 0 I I #
coedge $-1 $290 $372 $292 $378 reversed $285 $-1 #
straight-curve $-1 -38.096575050249285 32.074356519574778 13.906540054949097 -0.85716729658548041 0 -0.51503808176128008 I I #
edge $-1 $293 45.224944156471366 $381 59.948118533890806 $376 $418 forward 7 unknown #
point $-1 -45.224944156471366 32.074356519574778 9.6233837035811511 #
point $-1 -59.948118533890806 23.284007360670017 0.7768078729472222 #
vertex $-1 $378 $419 #
straight-curve $-1 -59.948118533890806 0 9.6233837035811511 0 -1 0 I I #
vertex $-1 $302 $420 #
point $-1 -49.310856966635534 27.679181940122398 2.6608642287648845 #
coedge $-1 $317 $316 $309 $386 forward $306 $-1 #
edge $-1 $387 77.113788340606277 $390 81.55784648381082 $385 $421 forward 7 unknown #
vertex $-1 $321 $422 #
straight-curve $-1 19.64204512777458 -0.82954296160778895 9.6233837035811547 1 0 0 I I #
edge $-1 $390 -2.4742219386317608 $318 5.7635798926797044 $317 $423 forward 7 unknown #
vertex $-1 $389 $424 #
straight-curve $-1 -34.531404869279143 -0.82954296160778895 78.994820685204914 -0.78801074757464917 0 0.61566148304635926 I I #
point $-1 54.259983615390283 -0.82954296160778895 9.6233837035811547 #
point $-1 59.948118533890806 7.4082588697036762 5.1793255603766113 #
straight-curve $-1 59.948118533890806 0 9.6233837035811511 0 1 0 I I #
vertex $-1 $324 $425 #
point $-1 56.882394965381486 0.81801740465449768 6.3055131428810478 #
vertex $-1 $328 $426 #
point $-1 56.882394965381486 3.2893579540479365 6.3055131428810478 #
vertex $-1 $332 $427 #
point $-1 56.882394965381486 5.7606985034413754 6.3055131428810478 #
straight-curve $-1 -59.948118533890806 32.074356519574778 0 0 0 -1 I I #
straight-curve $-1 0 32.074356519574778 -9.6233837035811511 1 0 0 I I #
point $-1 59.948118533890806 32.074356519574778 -9.6233837035811511 #
straight-curve $-1 -59.948118533890806 0 9.6233837035811511 0 -1 0 I I #
point $-1 -59.948118533890806 32.074356519574778 9.6233837035811511 #
straight-curve $-1 59.948118533890806 32.074356519574778 0 0 0 -1 I I #
point $-1 -59.948118533890806 32.074356519574778 -9.6233837035811511 #
edge $-1 $410 -9.6233837035811511 $363 9.6233837035811511 $355 $428 forward 7 unknown #
straight-curve $-1 -42.975256224081846 -43.793697745632116 -9.6233837035811511 -1 0 0 I I #
vertex $-1 $369 $429 #
straight-curve $-1 -42.975256224081846 -43.793697745632116 9.6233837035811511 1 0 0 I I #
point $-1 -45.249161321435189 -43.793697745632116 9.6233837035811511 #
point $-1 -45.249161321435189 -43.793697745632116 -9.6233837035811511 #
point $-1 -40.701351126728504 -43.793697745632116 -9.6233837035811511 #
straight-curve $-1 -40.701351126728504 -37.934027132603447 9.6233837035811511 0 1 0 I I #
straight-curve $-1 -59.948118533890806 32.074356519574778 0 0 0 -1 I I #
point $-1 -59.948118533890806 32.074356519574778 0.7768078729472222 #
straight-curve $-1 0 32.074356519574778 9.6233837035811511 -1 0 0 I I #
point $-1 -59.948118533890806 32.074356519574778 9.6233837035811511 #
point $-1 -49.824050788871837 27.679181940122398 0.60255616124474343 #
straight-curve $-1 59.948118533890806 -0.82954296160778895 86.737172044187432 0 0 -1 I I #
point $-1 59.948118533890806 -0.82954296160778895 9.6233837035811511 #
straight-curve $-1 59.948118533890813 1.6446789770239718 5.1793255603766042 0 1 0 I I #
point $-1 59.948118533890806 -0.82954296160778895 5.1793255603766113 #
point $-1 56.180558850070987 0.81801740465449768 6.219338510616903 #
point $-1 56.180558850070987 3.2893579540479365 6.219338510616903 #
point $-1 56.180558850070987 5.7606985034413754 6.219338510616903 #
straight-curve $-1 -40.701351126728504 -43.793697745632116 0 0 0 -1 I I #
point $-1 -40.701351126728504 -43.793697745632116 9.6233837035811511 #
End-of-ACIS-data 