500 0 11 0           
7 Unknown 11 ACIS 5.0 NT 24 Thu Mar 25 17:23:23 1999 
-1 9.9999999999999995e-007 1e-010 
body $-1 $11 $-1 $12 #
body $-1 $13 $-1 $14 #
body $-1 $15 $-1 $16 #
body $-1 $17 $-1 $18 #
body $-1 $19 $-1 $20 #
body $-1 $21 $-1 $22 #
body $-1 $23 $-1 $24 #
body $-1 $25 $-1 $26 #
body $-1 $27 $-1 $28 #
body $-1 $29 $-1 $30 #
body $-1 $31 $-1 $32 #
lump $-1 $-1 $33 $0 #
transform $-1 1 0 0 0 1 0 0 0 1 46.053651539658802 28.812098772165399 6.9742741972504989 1 rotate no_reflect no_shear #
lump $-1 $-1 $34 $1 #
transform $-1 1 0 0 0 1 0 0 0 1 46.053651539658802 28.812098772165399 6.9742741972504989 1 rotate no_reflect no_shear #
lump $-1 $-1 $35 $2 #
transform $-1 1 0 0 0 1 0 0 0 1 46.053651539658802 28.812098772165399 6.9742741972504989 1 rotate no_reflect no_shear #
lump $-1 $-1 $36 $3 #
transform $-1 1 0 0 0 1 0 0 0 1 46.053651539658802 28.812098772165399 6.9742741972504989 1 rotate no_reflect no_shear #
lump $-1 $-1 $37 $4 #
transform $-1 1 0 0 0 1 0 0 0 1 46.053651539658802 28.812098772165399 6.9742741972504989 1 rotate no_reflect no_shear #
lump $-1 $-1 $38 $5 #
transform $-1 1 0 0 0 1 0 0 0 1 46.053651539658802 28.812098772165399 6.9742741972504989 1 rotate no_reflect no_shear #
lump $-1 $-1 $39 $6 #
transform $-1 1 0 0 0 1 0 0 0 1 46.053651539658802 28.812098772165399 6.9742741972504989 1 rotate no_reflect no_shear #
lump $-1 $-1 $40 $7 #
transform $-1 1 0 0 0 1 0 0 0 1 46.053651539658802 28.812098772165399 6.9742741972504989 1 rotate no_reflect no_shear #
lump $-1 $-1 $41 $8 #
transform $-1 1 0 0 0 1 0 0 0 1 46.053651539658802 28.812098772165399 6.9742741972504989 1 rotate no_reflect no_shear #
lump $-1 $-1 $42 $9 #
transform $-1 1 0 0 0 1 0 0 0 1 46.053651539658802 28.812098772165399 6.9742741972504989 1 rotate no_reflect no_shear #
lump $-1 $-1 $43 $10 #
transform $-1 1 0 0 0 1 0 0 0 1 46.053651539658802 28.812098772165399 6.9742741972504989 1 rotate no_reflect no_shear #
shell $-1 $-1 $-1 $44 $-1 $11 #
shell $-1 $-1 $-1 $45 $-1 $13 #
shell $-1 $-1 $-1 $46 $-1 $15 #
shell $-1 $-1 $-1 $47 $-1 $17 #
shell $-1 $-1 $-1 $48 $-1 $19 #
shell $-1 $-1 $-1 $49 $-1 $21 #
shell $-1 $-1 $-1 $50 $-1 $23 #
shell $-1 $-1 $-1 $51 $-1 $25 #
shell $-1 $-1 $-1 $52 $-1 $27 #
shell $-1 $-1 $-1 $53 $-1 $29 #
shell $-1 $-1 $-1 $54 $-1 $31 #
face $-1 $55 $56 $33 $-1 $57 forward single #
face $-1 $58 $59 $34 $-1 $60 forward single #
face $-1 $61 $62 $35 $-1 $63 reversed single #
face $-1 $64 $65 $36 $-1 $66 forward single #
face $-1 $67 $68 $37 $-1 $69 forward single #
face $-1 $70 $71 $38 $-1 $72 reversed single #
face $-1 $73 $74 $39 $-1 $75 forward single #
face $-1 $76 $77 $40 $-1 $78 forward single #
face $-1 $79 $80 $41 $-1 $81 reversed single #
face $-1 $82 $83 $42 $-1 $84 forward single #
face $-1 $85 $86 $43 $-1 $87 forward single #
face $-1 $88 $89 $33 $-1 $90 reversed single #
loop $-1 $-1 $91 $44 #
plane-surface $-1 0 0 6.9742741972504989 0 0 1 1 0 0 forward_v I I I I #
face $-1 $92 $93 $34 $-1 $94 forward single #
loop $-1 $-1 $95 $45 #
plane-surface $-1 -46.053651539658802 0 0 1 0 0 0 0 -1 forward_v I I I I #
face $-1 $96 $97 $35 $-1 $98 reversed single #
loop $-1 $-1 $99 $46 #
plane-surface $-1 -15.756663479580851 65.91664697888271 102.13056605308934 1 0 0 0 -0.78801076186113728 -0.61566146476048833 forward_v I I I I #
face $-1 $100 $101 $36 $-1 $102 forward single #
loop $-1 $103 $104 $47 #
cone-surface $-1 -10.572441124087504 25.639070911473397 3.1396230178372608 0 -0.78801076186113728 -0.61566146476048833 1 0 0 1 I I 0 1 1 forward I I I I #
face $-1 $105 $106 $37 $-1 $107 forward single #
loop $-1 $108 $109 $48 #
cone-surface $-1 -2.7961075908474839 25.639070911473397 3.1396230178372608 0 -0.78801076186113728 -0.61566146476048833 1 0 0 1 I I 0 1 1 forward I I I I #
face $-1 $110 $111 $38 $-1 $112 reversed single #
loop $-1 $-1 $113 $49 #
plane-surface $-1 27.908873295432102 65.91664697888271 102.13056605308934 1 0 0 0 -0.78801076186113728 -0.61566146476048833 forward_v I I I I #
face $-1 $114 $115 $39 $-1 $116 forward single #
loop $-1 $117 $118 $50 #
cone-surface $-1 33.093095650925449 25.639070911473397 3.1396230178372608 0 -0.78801076186113728 -0.61566146476048833 1 0 0 1 I I 0 1 1 forward I I I I #
face $-1 $119 $120 $40 $-1 $121 forward single #
loop $-1 $122 $123 $51 #
cone-surface $-1 40.869429184165469 25.639070911473397 3.1396230178372608 0 -0.78801076186113728 -0.61566146476048833 1 0 0 1 I I 0 1 1 forward I I I I #
face $-1 $124 $125 $41 $-1 $126 reversed single #
loop $-1 $-1 $127 $52 #
plane-surface $-1 8.3726236728875705 -89.239927328166999 70.111732646961499 -1 0 0 0 -0.6560590369687036 0.75470957328743171 forward_v I I I I #
face $-1 $128 $129 $42 $-1 $130 forward single #
loop $-1 $131 $132 $53 #
cone-surface $-1 0.93115526609117438 -24.552062324681653 3.1046246606211287 0 0.6560590369687036 -0.75470957328743171 1 0 0 1 I I 0 1 1 forward I I I I #
face $-1 $133 $134 $43 $-1 $135 forward single #
loop $-1 $136 $137 $54 #
cone-surface $-1 5.3960363101690092 -24.552062324681653 3.1046246606211287 0 0.6560590369687036 -0.75470957328743171 1 0 0 1 I I 0 1 1 forward I I I I #
face $-1 $138 $139 $33 $-1 $140 reversed single #
loop $-1 $-1 $141 $55 #
plane-surface $-1 0 0 -6.9742741972504989 0 0 1 1 0 0 forward_v I I I I #
coedge $-1 $142 $143 $144 $145 forward $56 $-1 #
face $-1 $146 $147 $34 $-1 $148 reversed single #
loop $-1 $-1 $149 $58 #
plane-surface $-1 0 0 6.9742741972504989 0 0 1 1 0 0 forward_v I I I I #
coedge $-1 $150 $151 $152 $153 forward $59 $-1 #
face $-1 $154 $155 $35 $-1 $156 reversed single #
loop $-1 $-1 $157 $61 #
plane-surface $-1 -6.6842743574675012 -6.6648990936250243 45.423648924138426 0 0.78801076186113728 0.61566146476048833 1 0 0 forward_v I I I I #
coedge $-1 $158 $159 $160 $161 reversed $62 $-1 #
face $-1 $-1 $162 $36 $-1 $163 forward single #
loop $-1 $164 $165 $64 #
cone-surface $-1 -10.572441124087504 24.790565106689144 2.4766976468722062 0 -0.78801076186113728 -0.61566146476048833 0.5 0 0 1 I I -0.70710678118654746 0.70710678118654746 0.5 forward I I I I #
loop $-1 $-1 $166 $47 #
coedge $-1 $104 $104 $167 $168 reversed $65 $-1 #
face $-1 $-1 $169 $37 $-1 $170 forward single #
loop $-1 $171 $172 $67 #
cone-surface $-1 -2.7961075908474839 24.790565106689144 2.4766976468722062 0 -0.78801076186113728 -0.61566146476048833 0.5 0 0 1 I I -0.70710678118654746 0.70710678118654746 0.5 forward I I I I #
loop $-1 $-1 $173 $48 #
coedge $-1 $109 $109 $174 $175 reversed $68 $-1 #
face $-1 $176 $177 $38 $-1 $178 forward single #
loop $-1 $-1 $179 $70 #
plane-surface $-1 36.981262417545452 -6.6648990936250243 45.423648924138426 0 0.78801076186113728 0.61566146476048833 1 0 0 forward_v I I I I #
coedge $-1 $180 $181 $182 $183 reversed $71 $-1 #
face $-1 $-1 $184 $39 $-1 $185 forward single #
loop $-1 $186 $187 $73 #
cone-surface $-1 33.093095650925449 24.790565106689144 2.4766976468722062 0 -0.78801076186113728 -0.61566146476048833 0.5 0 0 1 I I -0.70710678118654746 0.70710678118654746 0.5 forward I I I I #
loop $-1 $-1 $188 $50 #
coedge $-1 $118 $118 $189 $190 reversed $74 $-1 #
face $-1 $-1 $191 $40 $-1 $192 forward single #
loop $-1 $193 $194 $76 #
cone-surface $-1 40.869429184165469 24.790565106689144 2.4766976468722062 0 -0.78801076186113728 -0.61566146476048833 0.5 0 0 1 I I -0.70710678118654746 0.70710678118654746 0.5 forward I I I I #
loop $-1 $-1 $195 $51 #
coedge $-1 $123 $123 $196 $197 reversed $77 $-1 #
face $-1 $198 $199 $41 $-1 $200 reversed single #
loop $-1 $-1 $201 $79 #
plane-surface $-1 3.1635957881300953 -28.812098772165385 0.59746924331356865 0 -0.6560590369687036 0.75470957328743171 1 0 0 forward_v I I I I #
coedge $-1 $202 $203 $204 $205 reversed $80 $-1 #
face $-1 $-1 $206 $42 $-1 $207 forward single #
loop $-1 $208 $209 $82 #
cone-surface $-1 0.93115526609117438 -23.631833759414203 2.0460228143165038 0 0.6560590369687036 -0.75470957328743171 0.5 0 0 1 I I -0.70710678118654746 0.70710678118654746 0.5 forward I I I I #
loop $-1 $-1 $210 $53 #
coedge $-1 $132 $132 $211 $212 reversed $83 $-1 #
face $-1 $-1 $213 $43 $-1 $214 forward single #
loop $-1 $215 $216 $85 #
cone-surface $-1 5.3960363101690092 -23.631833759414203 2.0460228143165038 0 0.6560590369687036 -0.75470957328743171 0.5 0 0 1 I I -0.70710678118654746 0.70710678118654746 0.5 forward I I I I #
loop $-1 $-1 $217 $54 #
coedge $-1 $137 $137 $218 $219 reversed $86 $-1 #
face $-1 $220 $221 $33 $-1 $222 reversed single #
loop $-1 $-1 $223 $88 #
plane-surface $-1 0 -28.812098772165399 0 0 1 0 0 0 1 forward_v I I I I #
coedge $-1 $224 $225 $226 $227 forward $89 $-1 #
coedge $-1 $228 $91 $229 $230 forward $56 $-1 #
coedge $-1 $91 $228 $231 $232 forward $56 $-1 #
coedge $-1 $233 $234 $91 $145 reversed $235 $-1 #
edge $-1 $236 -28.812098772165399 $237 28.812098772165399 $144 $238 forward 7 unknown #
face $-1 $239 $240 $34 $-1 $241 reversed single #
loop $-1 $-1 $242 $92 #
plane-surface $-1 -50.829881068950499 -27.312098772165399 0 1 0 0 0 0 -1 forward_v I I I I #
coedge $-1 $243 $244 $150 $245 forward $93 $-1 #
coedge $-1 $246 $95 $149 $245 reversed $59 $-1 #
coedge $-1 $95 $246 $247 $248 reversed $59 $-1 #
coedge $-1 $249 $250 $95 $153 reversed $240 $-1 #
edge $-1 $251 -6.9742741972504989 $252 6.9742741972504989 $152 $253 forward 7 unknown #
face $-1 $254 $255 $35 $-1 $256 forward single #
loop $-1 $-1 $257 $96 #
plane-surface $-1 2.3881147646458487 65.91664697888271 102.13056605308934 -1 0 0 0 0.78801076186113728 0.61566146476048833 forward_v I I I I #
coedge $-1 $258 $259 $260 $261 reversed $97 $-1 #
coedge $-1 $159 $99 $262 $263 reversed $62 $-1 #
coedge $-1 $99 $158 $258 $264 reversed $62 $-1 #
coedge $-1 $260 $265 $99 $161 forward $255 $-1 #
edge $-1 $266 4.1462247172759561 $267 9.5832795909525892 $160 $268 forward 7 unknown #
loop $-1 $-1 $167 $100 #
plane-surface $-1 -6.6842743574675012 -6.6648990936250243 45.423648924138426 0 0.78801076186113728 0.61566146476048833 1 0 0 forward_v I I I I #
loop $-1 $-1 $269 $64 #
coedge $-1 $165 $165 $166 $270 reversed $101 $-1 #
coedge $-1 $166 $166 $165 $270 forward $103 $-1 #
coedge $-1 $167 $167 $104 $168 forward $162 $-1 #
edge $-1 $271 -2.3624418030357185e-015 $271 6.2831853071795978 $167 $272 forward 7 unknown #
loop $-1 $-1 $174 $105 #
plane-surface $-1 -6.6842743574675012 -6.6648990936250243 45.423648924138426 0 0.78801076186113728 0.61566146476048833 1 0 0 forward_v I I I I #
loop $-1 $-1 $273 $67 #
coedge $-1 $172 $172 $173 $274 reversed $106 $-1 #
coedge $-1 $173 $173 $172 $274 forward $108 $-1 #
coedge $-1 $174 $174 $109 $175 forward $169 $-1 #
edge $-1 $275 -2.3624418030357185e-015 $275 6.2831853071795978 $174 $276 forward 7 unknown #
face $-1 $277 $278 $38 $-1 $279 reversed single #
loop $-1 $-1 $182 $110 #
plane-surface $-1 0 0 6.9742741972504989 0 0 1 1 0 0 forward_v I I I I #
coedge $-1 $280 $281 $282 $283 reversed $111 $-1 #
coedge $-1 $181 $113 $284 $285 reversed $71 $-1 #
coedge $-1 $113 $180 $280 $286 reversed $71 $-1 #
coedge $-1 $282 $287 $113 $183 forward $177 $-1 #
edge $-1 $288 4.1462247172759561 $289 9.5832795909525892 $182 $290 forward 7 unknown #
loop $-1 $-1 $189 $114 #
plane-surface $-1 36.981262417545452 -6.6648990936250243 45.423648924138426 0 0.78801076186113728 0.61566146476048833 1 0 0 forward_v I I I I #
loop $-1 $-1 $291 $73 #
coedge $-1 $187 $187 $188 $292 reversed $115 $-1 #
coedge $-1 $188 $188 $187 $292 forward $117 $-1 #
coedge $-1 $189 $189 $118 $190 forward $184 $-1 #
edge $-1 $293 -2.3624418030357185e-015 $293 6.2831853071795978 $189 $294 forward 7 unknown #
loop $-1 $-1 $196 $119 #
plane-surface $-1 36.981262417545452 -6.6648990936250243 45.423648924138426 0 0.78801076186113728 0.61566146476048833 1 0 0 forward_v I I I I #
loop $-1 $-1 $295 $76 #
coedge $-1 $194 $194 $195 $296 reversed $120 $-1 #
coedge $-1 $195 $195 $194 $296 forward $122 $-1 #
coedge $-1 $196 $196 $123 $197 forward $191 $-1 #
edge $-1 $297 -2.3624418030357185e-015 $297 6.2831853071795978 $196 $298 forward 7 unknown #
face $-1 $299 $300 $41 $-1 $301 reversed single #
loop $-1 $-1 $302 $124 #
plane-surface $-1 -2.0454320966273798 -89.239927328166999 70.111732646961499 1 0 0 0 0.6560590369687036 -0.75470957328743171 forward_v I I I I #
coedge $-1 $303 $304 $305 $306 reversed $125 $-1 #
coedge $-1 $203 $127 $307 $308 reversed $80 $-1 #
coedge $-1 $127 $202 $303 $309 reversed $80 $-1 #
coedge $-1 $305 $310 $127 $205 forward $311 $-1 #
edge $-1 $312 15.807864891918101 $313 23.143539693319411 $204 $314 forward 7 unknown #
loop $-1 $-1 $211 $128 #
plane-surface $-1 3.1635957881300953 -28.812098772165385 0.59746924331356865 0 -0.6560590369687036 0.75470957328743171 1 0 0 forward_v I I I I #
loop $-1 $-1 $315 $82 #
coedge $-1 $209 $209 $210 $316 reversed $129 $-1 #
coedge $-1 $210 $210 $209 $316 forward $131 $-1 #
coedge $-1 $211 $211 $132 $212 forward $206 $-1 #
edge $-1 $317 -7.6008259005922841e-016 $317 6.2831853071795996 $211 $318 forward 7 unknown #
loop $-1 $-1 $218 $133 #
plane-surface $-1 3.1635957881300953 -28.812098772165385 0.59746924331356865 0 -0.6560590369687036 0.75470957328743171 1 0 0 forward_v I I I I #
loop $-1 $-1 $319 $85 #
coedge $-1 $216 $216 $217 $320 reversed $134 $-1 #
coedge $-1 $217 $217 $216 $320 forward $136 $-1 #
coedge $-1 $218 $218 $137 $219 forward $213 $-1 #
edge $-1 $321 -7.6008259005922841e-016 $321 6.2831853071795996 $218 $322 forward 7 unknown #
face $-1 $323 $324 $33 $-1 $325 reversed single #
loop $-1 $-1 $326 $138 #
plane-surface $-1 -46.053651539658802 0 0 1 0 0 0 0 -1 forward_v I I I I #
coedge $-1 $327 $231 $328 $329 forward $139 $-1 #
coedge $-1 $330 $141 $327 $331 forward $89 $-1 #
coedge $-1 $141 $330 $332 $333 forward $89 $-1 #
coedge $-1 $234 $233 $141 $227 reversed $235 $-1 #
edge $-1 $334 -28.812098772165399 $335 28.812098772165399 $226 $336 forward 7 unknown #
coedge $-1 $143 $142 $326 $337 forward $56 $-1 #
coedge $-1 $338 $339 $142 $230 reversed $324 $-1 #
edge $-1 $237 -46.053651539658802 $340 46.053651539658802 $229 $341 forward 7 unknown #
coedge $-1 $223 $342 $143 $232 reversed $139 $-1 #
edge $-1 $343 -46.053651539658802 $236 46.053651539658802 $231 $344 forward 7 unknown #
coedge $-1 $226 $144 $342 $345 forward $235 $-1 #
coedge $-1 $144 $226 $338 $346 reversed $235 $-1 #
loop $-1 $-1 $233 $323 #
vertex $-1 $145 $347 #
vertex $-1 $145 $348 #
straight-curve $-1 46.053651539658802 0 6.9742741972504989 0 1 0 I I #
face $-1 $349 $350 $34 $-1 $351 reversed single #
loop $-1 $-1 $152 $146 #
plane-surface $-1 -48.44176630430465 -25.812098772165399 0 0 -1 0 0 0 -1 forward_v I I I I #
coedge $-1 $352 $353 $354 $355 forward $147 $-1 #
coedge $-1 $356 $149 $250 $357 forward $93 $-1 #
coedge $-1 $149 $356 $358 $359 forward $93 $-1 #
edge $-1 $360 -28.812098772165399 $252 -25.812098772165399 $149 $361 forward 7 unknown #
coedge $-1 $151 $150 $362 $363 reversed $59 $-1 #
coedge $-1 $364 $365 $151 $248 forward $350 $-1 #
edge $-1 $251 25.812098772165399 $366 28.812098772165399 $247 $367 forward 7 unknown #
coedge $-1 $354 $152 $365 $368 reversed $240 $-1 #
coedge $-1 $152 $354 $243 $357 reversed $240 $-1 #
vertex $-1 $248 $369 #
vertex $-1 $357 $370 #
straight-curve $-1 -46.053651539658802 -25.812098772165399 0 0 0 1 I I #
face $-1 $-1 $371 $35 $-1 $372 reversed single #
loop $-1 $-1 $160 $154 #
plane-surface $-1 0 0 6.9742741972504989 0 0 1 1 0 0 forward_v I I I I #
coedge $-1 $373 $374 $375 $376 reversed $155 $-1 #
coedge $-1 $377 $157 $159 $264 forward $97 $-1 #
coedge $-1 $157 $377 $373 $378 forward $97 $-1 #
coedge $-1 $375 $160 $157 $261 forward $255 $-1 #
edge $-1 $267 -12.414526300847101 $379 5.7302519433795993 $260 $380 forward 7 unknown #
coedge $-1 $381 $382 $158 $263 forward $371 $-1 #
edge $-1 $383 -51.05012191095102 $266 -44.091008829294168 $262 $384 forward 7 unknown #
edge $-1 $267 48.79295637546565 $383 57.624197544330784 $159 $385 forward 7 unknown #
coedge $-1 $160 $375 $381 $386 forward $255 $-1 #
vertex $-1 $263 $387 #
vertex $-1 $161 $388 #
straight-curve $-1 -15.756663479580851 32.958323489441355 6.9742741972505016 0 -1 0 I I #
coedge $-1 $269 $269 $-1 $389 reversed $164 $-1 #
edge $-1 $390 0 $390 6.2831853071796004 $165 $391 forward 7 unknown #
vertex $-1 $168 $392 #
ellipse-curve $-1 -10.572441124087504 26.093571335327088 3.4947176564220759 0 0.78801076186113728 0.61566146476048833 1 0 0 1 I I #
coedge $-1 $273 $273 $-1 $393 reversed $171 $-1 #
edge $-1 $394 0 $394 6.2831853071796004 $172 $395 forward 7 unknown #
vertex $-1 $175 $396 #
ellipse-curve $-1 -2.7961075908474839 26.093571335327088 3.4947176564220759 0 0.78801076186113728 0.61566146476048833 1 0 0 1 I I #
face $-1 $-1 $397 $38 $-1 $398 reversed single #
loop $-1 $-1 $399 $176 #
plane-surface $-1 46.053651539658802 0 0 -1 0 0 0 0 1 forward_v I I I I #
coedge $-1 $400 $179 $181 $286 forward $111 $-1 #
coedge $-1 $179 $400 $399 $401 reversed $111 $-1 #
coedge $-1 $402 $182 $179 $283 forward $177 $-1 #
edge $-1 $289 9.4182420866593759 $403 27.563020330886076 $282 $404 forward 7 unknown #
coedge $-1 $405 $406 $180 $285 forward $397 $-1 #
edge $-1 $407 -51.05012191095102 $288 -44.091008829294168 $284 $408 forward 7 unknown #
edge $-1 $289 48.79295637546565 $407 57.624197544330784 $181 $409 forward 7 unknown #
coedge $-1 $182 $402 $405 $410 forward $177 $-1 #
vertex $-1 $285 $411 #
vertex $-1 $183 $412 #
straight-curve $-1 27.908873295432102 32.958323489441355 6.9742741972505016 0 -1 0 I I #
coedge $-1 $291 $291 $-1 $413 reversed $186 $-1 #
edge $-1 $414 0 $414 6.2831853071796004 $187 $415 forward 7 unknown #
vertex $-1 $190 $416 #
ellipse-curve $-1 33.093095650925449 26.093571335327088 3.4947176564220759 0 0.78801076186113728 0.61566146476048833 1 0 0 1 I I #
coedge $-1 $295 $295 $-1 $417 reversed $193 $-1 #
edge $-1 $418 0 $418 6.2831853071796004 $194 $419 forward 7 unknown #
vertex $-1 $197 $420 #
ellipse-curve $-1 40.869429184165469 26.093571335327088 3.4947176564220759 0 0.78801076186113728 0.61566146476048833 1 0 0 1 I I #
face $-1 $-1 $311 $41 $-1 $421 forward single #
loop $-1 $-1 $422 $198 #
plane-surface $-1 0 -28.812098772165399 0 0 1 0 0 0 1 forward_v I I I I #
coedge $-1 $423 $424 $425 $426 reversed $199 $-1 #
coedge $-1 $427 $201 $203 $309 forward $125 $-1 #
coedge $-1 $201 $427 $423 $428 forward $125 $-1 #
coedge $-1 $425 $204 $201 $306 forward $311 $-1 #
edge $-1 $313 -6.7908257788225228 $429 3.6272299906924275 $305 $430 forward 7 unknown #
coedge $-1 $431 $432 $202 $308 forward $300 $-1 #
edge $-1 $433 -34.458397080167195 $312 -28.081592126230252 $307 $434 forward 7 unknown #
edge $-1 $313 -9.7198645161580597 $433 1.8809995614912076e-014 $203 $435 forward 7 unknown #
coedge $-1 $204 $425 $431 $436 forward $311 $-1 #
loop $-1 $-1 $425 $299 #
vertex $-1 $308 $437 #
vertex $-1 $205 $438 #
straight-curve $-1 8.3726236728875705 -44.6199636640835 6.974274197250498 0 1 0 I I #
coedge $-1 $315 $315 $-1 $439 reversed $208 $-1 #
edge $-1 $440 0 $440 6.2831853071796004 $209 $441 forward 7 unknown #
vertex $-1 $212 $442 #
ellipse-curve $-1 0.93115526609117438 -25.144261371464744 3.7858717202820271 0 -0.6560590369687036 0.75470957328743171 1 0 0 1 I I #
coedge $-1 $319 $319 $-1 $443 reversed $215 $-1 #
edge $-1 $444 0 $444 6.2831853071796004 $216 $445 forward 7 unknown #
vertex $-1 $219 $446 #
ellipse-curve $-1 5.3960363101690092 -25.144261371464744 3.7858717202820271 0 -0.6560590369687036 0.75470957328743171 1 0 0 1 I I #
face $-1 $-1 $235 $33 $-1 $447 reversed single #
loop $-1 $-1 $338 $220 #
plane-surface $-1 0 28.812098772165399 0 0 -1 0 0 0 -1 forward_v I I I I #
coedge $-1 $448 $328 $228 $337 reversed $221 $-1 #
coedge $-1 $342 $223 $224 $331 reversed $139 $-1 #
coedge $-1 $326 $449 $223 $329 reversed $221 $-1 #
edge $-1 $343 -6.9742741972504989 $450 6.9742741972504989 $328 $451 forward 7 unknown #
coedge $-1 $225 $224 $449 $452 forward $89 $-1 #
edge $-1 $335 -46.053651539658802 $450 46.053651539658802 $327 $453 forward 7 unknown #
coedge $-1 $339 $338 $225 $333 reversed $324 $-1 #
edge $-1 $454 -46.053651539658802 $334 46.053651539658802 $332 $455 forward 7 unknown #
vertex $-1 $227 $456 #
vertex $-1 $345 $457 #
straight-curve $-1 46.053651539658802 0 -6.9742741972504989 0 -1 0 I I #
edge $-1 $340 -28.812098772165399 $343 28.812098772165399 $326 $458 forward 7 unknown #
coedge $-1 $332 $229 $234 $346 forward $324 $-1 #
coedge $-1 $229 $332 $448 $459 reversed $324 $-1 #
vertex $-1 $230 $460 #
straight-curve $-1 0 28.812098772165399 6.9742741972504989 -1 0 0 I I #
coedge $-1 $231 $327 $233 $345 reversed $139 $-1 #
vertex $-1 $337 $461 #
straight-curve $-1 0 -28.812098772165399 6.9742741972504989 1 0 0 I I #
edge $-1 $236 -6.9742741972504989 $335 6.9742741972504989 $233 $462 forward 7 unknown #
edge $-1 $237 -6.9742741972504989 $334 6.9742741972504989 $234 $463 forward 7 unknown #
point $-1 46.053651539658802 -28.812098772165399 6.9742741972504989 #
point $-1 46.053651539658802 28.812098772165399 6.9742741972504989 #
face $-1 $-1 $464 $34 $-1 $465 reversed single #
loop $-1 $-1 $247 $239 #
plane-surface $-1 0 0 -6.9742741972504989 0 0 1 1 0 0 forward_v I I I I #
coedge $-1 $466 $242 $467 $468 reversed $147 $-1 #
coedge $-1 $242 $466 $356 $469 reversed $147 $-1 #
coedge $-1 $250 $249 $242 $355 reversed $240 $-1 #
edge $-1 $470 -6.9742741972504989 $471 6.9742741972504989 $354 $472 forward 7 unknown #
coedge $-1 $244 $243 $353 $469 forward $93 $-1 #
edge $-1 $252 -2.3881147646458487 $470 2.3881147646458487 $250 $473 forward 7 unknown #
coedge $-1 $474 $362 $244 $359 reversed $464 $-1 #
edge $-1 $475 -50.829881068950499 $360 -46.053651539658802 $358 $476 forward 7 unknown #
vertex $-1 $363 $477 #
straight-curve $-1 -46.053651539658802 0 6.9742741972504989 0 1 0 I I #
coedge $-1 $358 $478 $246 $363 forward $464 $-1 #
edge $-1 $366 -6.9742741972504989 $360 6.9742741972504989 $362 $479 forward 7 unknown #
coedge $-1 $467 $247 $478 $480 forward $350 $-1 #
coedge $-1 $247 $467 $249 $368 forward $350 $-1 #
vertex $-1 $480 $481 #
straight-curve $-1 -46.053651539658802 0 -6.9742741972504989 0 -1 0 I I #
edge $-1 $471 -2.3881147646458487 $251 2.3881147646458487 $249 $482 forward 7 unknown #
point $-1 -46.053651539658802 -25.812098772165399 -6.9742741972504989 #
point $-1 -46.053651539658802 -25.812098772165399 6.9742741972504989 #
loop $-1 $-1 $262 $254 #
plane-surface $-1 0 28.812098772165399 0 0 -1 0 0 0 -1 forward_v I I I I #
coedge $-1 $374 $257 $259 $378 reversed $155 $-1 #
coedge $-1 $257 $373 $483 $484 reversed $155 $-1 #
coedge $-1 $265 $260 $257 $376 forward $255 $-1 #
edge $-1 $379 -9.5832795909525892 $485 -4.1462247172759561 $375 $486 forward 7 unknown #
coedge $-1 $259 $258 $382 $487 reversed $97 $-1 #
edge $-1 $488 -57.624197544330784 $379 -48.79295637546565 $373 $489 forward 7 unknown #
vertex $-1 $261 $490 #
straight-curve $-1 -3.3421371787337506 23.375043898488773 6.974274197250498 1 0 0 I I #
coedge $-1 $483 $262 $265 $386 reversed $371 $-1 #
coedge $-1 $262 $483 $377 $487 forward $371 $-1 #
vertex $-1 $263 $491 #
straight-curve $-1 -15.756663479580851 28.812098772165399 51.06528302654467 0 0 1 I I #
straight-curve $-1 -15.756663479580851 -6.6648990936250243 45.423648924138426 0 0.61566146476048833 -0.78801076186113728 I I #
edge $-1 $485 -2.3881147646458487 $266 15.756663479580851 $381 $492 forward 7 unknown #
point $-1 -15.756663479580851 28.812098772165399 6.9742741972504989 #
point $-1 -15.756663479580851 23.375043898488766 6.9742741972505016 #
edge $-1 $493 1 $493 0 $269 $-1 forward 7 unknown #
vertex $-1 $270 $494 #
ellipse-curve $-1 -10.572441124087504 25.184570487619713 2.7845283792524502 0 0.78801076186113728 0.61566146476048833 1 0 0 1 I I #
point $-1 -9.5724411240875042 26.093571335327077 3.4947176564220706 #
edge $-1 $495 1 $495 0 $273 $-1 forward 7 unknown #
vertex $-1 $274 $496 #
ellipse-curve $-1 -2.7961075908474839 25.184570487619713 2.7845283792524502 0 0.78801076186113728 0.61566146476048833 1 0 0 1 I I #
point $-1 -1.7961075908474839 26.093571335327077 3.4947176564220706 #
loop $-1 $-1 $284 $277 #
plane-surface $-1 0 28.812098772165399 0 0 -1 0 0 0 -1 forward_v I I I I #
coedge $-1 $497 $498 $281 $401 forward $278 $-1 #
coedge $-1 $281 $280 $406 $499 reversed $111 $-1 #
edge $-1 $403 28.844133508623059 $500 37.675374677488193 $399 $501 forward 7 unknown #
coedge $-1 $287 $282 $498 $502 forward $177 $-1 #
vertex $-1 $502 $503 #
straight-curve $-1 18.490631208772726 23.375043898488773 6.974274197250498 1 0 0 I I #
coedge $-1 $504 $284 $287 $410 reversed $397 $-1 #
coedge $-1 $284 $504 $400 $499 forward $397 $-1 #
vertex $-1 $285 $505 #
straight-curve $-1 27.908873295432102 28.812098772165399 51.06528302654467 0 0 1 I I #
straight-curve $-1 27.908873295432102 -6.6648990936250243 45.423648924138426 0 0.61566146476048833 -0.78801076186113728 I I #
edge $-1 $506 -46.053651539658802 $288 -27.908873295432102 $405 $507 forward 7 unknown #
point $-1 27.908873295432102 28.812098772165399 6.9742741972504989 #
point $-1 27.908873295432102 23.375043898488766 6.9742741972505016 #
edge $-1 $508 1 $508 0 $291 $-1 forward 7 unknown #
vertex $-1 $292 $509 #
ellipse-curve $-1 33.093095650925449 25.184570487619713 2.7845283792524502 0 0.78801076186113728 0.61566146476048833 1 0 0 1 I I #
point $-1 34.093095650925449 26.093571335327077 3.4947176564220706 #
edge $-1 $510 1 $510 0 $295 $-1 forward 7 unknown #
vertex $-1 $296 $511 #
ellipse-curve $-1 40.869429184165469 25.184570487619713 2.7845283792524502 0 0.78801076186113728 0.61566146476048833 1 0 0 1 I I #
point $-1 41.869429184165469 26.093571335327077 3.4947176564220706 #
plane-surface $-1 0 0 6.9742741972504989 0 0 1 1 0 0 forward_v I I I I #
coedge $-1 $432 $431 $424 $512 forward $300 $-1 #
coedge $-1 $424 $302 $304 $428 reversed $199 $-1 #
coedge $-1 $302 $423 $422 $512 reversed $199 $-1 #
coedge $-1 $310 $305 $302 $426 forward $311 $-1 #
edge $-1 $429 -23.143539693319411 $513 -15.807864891918101 $425 $514 forward 7 unknown #
coedge $-1 $304 $303 $432 $515 reversed $125 $-1 #
edge $-1 $516 -1.8809995614912076e-014 $429 9.7198645161580597 $423 $517 forward 7 unknown #
vertex $-1 $306 $518 #
straight-curve $-1 1.5817978940650477 -21.476423970764088 6.9742741972504998 -1 0 0 I I #
coedge $-1 $422 $307 $310 $436 reversed $300 $-1 #
coedge $-1 $307 $422 $427 $515 forward $300 $-1 #
vertex $-1 $308 $519 #
straight-curve $-1 8.3726236728875705 -28.812098772165399 35.05586632348075 0 0 1 I I #
straight-curve $-1 8.3726236728875705 -28.812098772165385 0.59746924331356865 0 -0.75470957328743171 -0.6560590369687036 I I #
edge $-1 $513 -2.0454320966273798 $312 8.3726236728875705 $431 $520 forward 7 unknown #
point $-1 8.3726236728875705 -28.812098772165399 6.9742741972504989 #
point $-1 8.3726236728875705 -21.476423970764088 6.9742741972504998 #
edge $-1 $521 1 $521 0 $315 $-1 forward 7 unknown #
vertex $-1 $316 $522 #
ellipse-curve $-1 0.93115526609117438 -23.959863277898556 2.4233776009602197 0 -0.6560590369687036 0.75470957328743171 1 0 0 1 I I #
point $-1 1.9311552660911744 -25.144261371464754 3.7858717202820382 #
edge $-1 $523 1 $523 0 $319 $-1 forward 7 unknown #
vertex $-1 $320 $524 #
ellipse-curve $-1 5.3960363101690092 -23.959863277898556 2.4233776009602197 0 -0.6560590369687036 0.75470957328743171 1 0 0 1 I I #
point $-1 6.3960363101690092 -25.144261371464754 3.7858717202820382 #
plane-surface $-1 46.053651539658802 0 0 -1 0 0 0 0 1 forward_v I I I I #
coedge $-1 $449 $326 $339 $459 forward $221 $-1 #
coedge $-1 $328 $448 $330 $452 reversed $221 $-1 #
vertex $-1 $452 $525 #
straight-curve $-1 -46.053651539658802 -28.812098772165399 0 0 0 -1 I I #
edge $-1 $450 -28.812098772165399 $454 28.812098772165399 $449 $526 forward 7 unknown #
straight-curve $-1 0 -28.812098772165399 -6.9742741972504989 -1 0 0 I I #
vertex $-1 $333 $527 #
straight-curve $-1 0 28.812098772165399 -6.9742741972504989 1 0 0 I I #
point $-1 46.053651539658802 28.812098772165399 -6.9742741972504989 #
point $-1 46.053651539658802 -28.812098772165399 -6.9742741972504989 #
straight-curve $-1 -46.053651539658802 0 6.9742741972504989 0 -1 0 I I #
edge $-1 $340 -6.9742741972504989 $454 6.9742741972504989 $339 $528 forward 7 unknown #
point $-1 -46.053651539658802 28.812098772165399 6.9742741972504989 #
point $-1 -46.053651539658802 -28.812098772165399 6.9742741972504989 #
straight-curve $-1 46.053651539658802 -28.812098772165399 0 0 0 -1 I I #
straight-curve $-1 46.053651539658802 28.812098772165399 0 0 0 -1 I I #
loop $-1 $-1 $362 $349 #
plane-surface $-1 0 -28.812098772165399 0 0 1 0 0 0 1 forward_v I I I I #
coedge $-1 $353 $352 $474 $529 reversed $147 $-1 #
coedge $-1 $365 $364 $352 $468 forward $350 $-1 #
edge $-1 $530 -1.5 $471 1.5 $352 $531 forward 7 unknown #
edge $-1 $470 -1.5 $475 1.5 $353 $532 forward 7 unknown #
vertex $-1 $357 $533 #
vertex $-1 $368 $534 #
straight-curve $-1 -50.829881068950499 -25.812098772165399 0 0 0 -1 I I #
straight-curve $-1 -48.44176630430465 -25.812098772165399 6.9742741972504989 -1 0 0 I I #
coedge $-1 $478 $358 $466 $529 forward $464 $-1 #
vertex $-1 $469 $535 #
straight-curve $-1 0 -28.812098772165399 6.9742741972504989 1 0 0 I I #
point $-1 -46.053651539658802 -28.812098772165399 6.9742741972504989 #
coedge $-1 $362 $474 $364 $480 reversed $464 $-1 #
straight-curve $-1 -46.053651539658802 -28.812098772165399 0 0 0 1 I I #
edge $-1 $366 -2.3881147646458487 $530 2.3881147646458487 $478 $536 forward 7 unknown #
point $-1 -46.053651539658802 -28.812098772165399 -6.9742741972504989 #
straight-curve $-1 -48.44176630430465 -25.812098772165399 -6.9742741972504989 1 0 0 I I #
coedge $-1 $382 $381 $374 $484 forward $371 $-1 #
edge $-1 $485 44.091008829294168 $488 51.05012191095102 $483 $537 forward 7 unknown #
vertex $-1 $386 $538 #
straight-curve $-1 2.3881147646458487 32.958323489441355 6.9742741972505016 0 1 0 I I #
edge $-1 $488 -5.7302519433795993 $383 12.414526300847101 $382 $539 forward 7 unknown #
vertex $-1 $487 $540 #
straight-curve $-1 2.3881147646458487 -6.6648990936250243 45.423648924138426 0 -0.61566146476048833 0.78801076186113728 I I #
point $-1 2.3881147646458487 23.375043898488766 6.9742741972505016 #
point $-1 -15.756663479580851 28.812098772165399 0.015161115593649299 #
straight-curve $-1 0 28.812098772165399 6.9742741972504989 -1 0 0 I I #
vertex $-1 $389 $541 #
point $-1 -9.5724411240875042 25.184570487619713 2.7845283792524502 #
vertex $-1 $393 $542 #
point $-1 -1.7961075908474839 25.184570487619713 2.7845283792524502 #
coedge $-1 $498 $399 $504 $543 reversed $278 $-1 #
coedge $-1 $399 $497 $402 $502 reversed $278 $-1 #
edge $-1 $500 -27.563020330886076 $407 -9.4182420866593759 $406 $544 forward 7 unknown #
vertex $-1 $401 $545 #
straight-curve $-1 46.053651539658802 5.6168224128228097 29.703761818604917 0 0.61566146476048833 -0.78801076186113728 I I #
edge $-1 $403 23.375043898488766 $506 28.812098772165399 $498 $546 forward 7 unknown #
point $-1 46.053651539658802 23.375043898488766 6.9742741972505016 #
coedge $-1 $406 $405 $497 $543 forward $397 $-1 #
point $-1 27.908873295432102 28.812098772165399 0.015161115593649299 #
vertex $-1 $502 $547 #
straight-curve $-1 0 28.812098772165399 6.9742741972504989 -1 0 0 I I #
vertex $-1 $413 $548 #
point $-1 34.093095650925449 25.184570487619713 2.7845283792524502 #
vertex $-1 $417 $549 #
point $-1 41.869429184165469 25.184570487619713 2.7845283792524502 #
edge $-1 $513 28.081592126230252 $516 34.458397080167195 $422 $550 forward 7 unknown #
vertex $-1 $436 $551 #
straight-curve $-1 -2.0454320966273798 -44.6199636640835 6.974274197250498 0 -1 0 I I #
edge $-1 $516 -3.6272299906924275 $433 6.7908257788225228 $432 $552 forward 7 unknown #
vertex $-1 $515 $553 #
straight-curve $-1 -2.0454320966273798 -28.812098772165385 0.59746924331356865 0 0.75470957328743171 0.6560590369687036 I I #
point $-1 -2.0454320966273798 -21.476423970764088 6.9742741972504998 #
point $-1 8.3726236728875705 -28.812098772165399 0.59746924331355633 #
straight-curve $-1 0 -28.812098772165399 6.9742741972504989 1 0 0 I I #
vertex $-1 $439 $554 #
point $-1 1.9311552660911744 -23.959863277898556 2.4233776009602197 #
vertex $-1 $443 $555 #
point $-1 6.3960363101690092 -23.959863277898556 2.4233776009602197 #
point $-1 -46.053651539658802 -28.812098772165399 -6.9742741972504989 #
straight-curve $-1 -46.053651539658802 0 -6.9742741972504989 0 1 0 I I #
point $-1 -46.053651539658802 28.812098772165399 -6.9742741972504989 #
straight-curve $-1 -46.053651539658802 28.812098772165399 0 0 0 -1 I I #
edge $-1 $475 -6.9742741972504989 $530 6.9742741972504989 $466 $556 forward 7 unknown #
vertex $-1 $468 $557 #
straight-curve $-1 -50.829881068950499 -27.312098772165399 -6.9742741972504989 0 1 0 I I #
straight-curve $-1 -50.829881068950499 -27.312098772165399 6.9742741972504989 0 -1 0 I I #
point $-1 -50.829881068950499 -25.812098772165399 6.9742741972504989 #
point $-1 -50.829881068950499 -25.812098772165399 -6.9742741972504989 #
point $-1 -50.829881068950499 -28.812098772165399 6.9742741972504989 #
straight-curve $-1 -48.44176630430465 -28.812098772165399 -6.9742741972504989 -1 0 0 I I #
straight-curve $-1 2.3881147646458487 28.812098772165399 51.06528302654467 0 0 -1 I I #
point $-1 2.3881147646458487 28.812098772165399 6.9742741972504989 #
straight-curve $-1 -3.3421371787337506 28.812098772165399 0.015161115593652852 -1 0 0 I I #
point $-1 2.3881147646458487 28.812098772165399 0.015161115593649299 #
point $-1 -10.572441124087504 24.396559725758575 2.1688669144919621 #
point $-1 -2.7961075908474839 24.396559725758575 2.1688669144919621 #
edge $-1 $506 -6.9742741972504989 $500 -0.015161115593649299 $497 $558 forward 7 unknown #
straight-curve $-1 18.490631208772726 28.812098772165399 0.015161115593652852 -1 0 0 I I #
point $-1 46.053651539658802 28.812098772165399 0.015161115593649299 #
straight-curve $-1 46.053651539658802 0 6.9742741972504989 0 1 0 I I #
point $-1 46.053651539658802 28.812098772165399 6.9742741972504989 #
point $-1 33.093095650925449 24.396559725758575 2.1688669144919621 #
point $-1 40.869429184165469 24.396559725758575 2.1688669144919621 #
straight-curve $-1 -2.0454320966273798 -28.812098772165399 35.05586632348075 0 0 -1 I I #
point $-1 -2.0454320966273798 -28.812098772165399 6.9742741972504989 #
straight-curve $-1 1.5817978940650477 -28.812098772165399 0.59746924331355666 1 0 0 I I #
point $-1 -2.0454320966273798 -28.812098772165399 0.59746924331355633 #
point $-1 0.93115526609117438 -23.30380424092985 1.6686680276727879 #
point $-1 5.3960363101690092 -23.30380424092985 1.6686680276727879 #
straight-curve $-1 -50.829881068950499 -28.812098772165399 0 0 0 -1 I I #
point $-1 -50.829881068950499 -28.812098772165399 -6.9742741972504989 #
straight-curve $-1 46.053651539658802 28.812098772165399 0 0 0 -1 I I #
End-of-ACIS-data 