500 0 12 0           
7 Unknown 11 ACIS 5.0 NT 24 Fri Mar 26 02:04:21 1999 
-1 9.9999999999999995e-007 1e-010 
body $-1 $12 $-1 $13 #
body $-1 $14 $-1 $15 #
body $-1 $16 $-1 $17 #
body $-1 $18 $-1 $19 #
body $-1 $20 $-1 $21 #
body $-1 $22 $-1 $23 #
body $-1 $24 $-1 $25 #
body $-1 $26 $-1 $27 #
body $-1 $28 $-1 $29 #
body $-1 $30 $-1 $31 #
body $-1 $32 $-1 $33 #
body $-1 $34 $-1 $35 #
lump $-1 $-1 $36 $0 #
transform $-1 1 0 0 0 1 0 0 0 1 45.847346415601066 28.329594030924905 8.3626208766173633 1 rotate no_reflect no_shear #
lump $-1 $-1 $37 $1 #
transform $-1 1 0 0 0 1 0 0 0 1 45.847346415601066 28.329594030924905 8.3626208766173633 1 rotate no_reflect no_shear #
lump $-1 $-1 $38 $2 #
transform $-1 1 0 0 0 1 0 0 0 1 45.847346415601066 28.329594030924905 8.3626208766173633 1 rotate no_reflect no_shear #
lump $-1 $-1 $39 $3 #
transform $-1 1 0 0 0 1 0 0 0 1 45.847346415601066 28.329594030924905 8.3626208766173633 1 rotate no_reflect no_shear #
lump $-1 $-1 $40 $4 #
transform $-1 1 0 0 0 1 0 0 0 1 45.847346415601066 28.329594030924905 8.3626208766173633 1 rotate no_reflect no_shear #
lump $-1 $-1 $41 $5 #
transform $-1 1 0 0 0 1 0 0 0 1 45.847346415601066 28.329594030924905 8.3626208766173633 1 rotate no_reflect no_shear #
lump $-1 $-1 $42 $6 #
transform $-1 1 0 0 0 1 0 0 0 1 45.847346415601066 28.329594030924905 8.3626208766173633 1 rotate no_reflect no_shear #
lump $-1 $-1 $43 $7 #
transform $-1 1 0 0 0 1 0 0 0 1 45.847346415601066 28.329594030924905 8.3626208766173633 1 rotate no_reflect no_shear #
lump $-1 $-1 $44 $8 #
transform $-1 1 0 0 0 1 0 0 0 1 45.847346415601066 28.329594030924905 8.3626208766173633 1 rotate no_reflect no_shear #
lump $-1 $-1 $45 $9 #
transform $-1 1 0 0 0 1 0 0 0 1 45.847346415601066 28.329594030924905 8.3626208766173633 1 rotate no_reflect no_shear #
lump $-1 $-1 $46 $10 #
transform $-1 1 0 0 0 1 0 0 0 1 45.847346415601066 28.329594030924905 8.3626208766173633 1 rotate no_reflect no_shear #
lump $-1 $-1 $47 $11 #
transform $-1 1 0 0 0 1 0 0 0 1 45.847346415601066 28.329594030924905 8.3626208766173633 1 rotate no_reflect no_shear #
shell $-1 $-1 $-1 $48 $-1 $12 #
shell $-1 $-1 $-1 $49 $-1 $14 #
shell $-1 $-1 $-1 $50 $-1 $16 #
shell $-1 $-1 $-1 $51 $-1 $18 #
shell $-1 $-1 $-1 $52 $-1 $20 #
shell $-1 $-1 $-1 $53 $-1 $22 #
shell $-1 $-1 $-1 $54 $-1 $24 #
shell $-1 $-1 $-1 $55 $-1 $26 #
shell $-1 $-1 $-1 $56 $-1 $28 #
shell $-1 $-1 $-1 $57 $-1 $30 #
shell $-1 $-1 $-1 $58 $-1 $32 #
shell $-1 $-1 $-1 $59 $-1 $34 #
face $-1 $60 $61 $36 $-1 $62 forward single #
face $-1 $63 $64 $37 $-1 $65 reversed single #
face $-1 $66 $67 $38 $-1 $68 reversed single #
face $-1 $69 $70 $39 $-1 $71 forward single #
face $-1 $72 $73 $40 $-1 $74 forward single #
face $-1 $75 $76 $41 $-1 $77 forward single #
face $-1 $78 $79 $42 $-1 $80 reversed single #
face $-1 $81 $82 $43 $-1 $83 forward single #
face $-1 $84 $85 $44 $-1 $86 forward single #
face $-1 $87 $88 $45 $-1 $89 reversed single #
face $-1 $90 $91 $46 $-1 $92 forward single #
face $-1 $93 $94 $47 $-1 $95 forward single #
face $-1 $96 $97 $36 $-1 $98 reversed single #
loop $-1 $-1 $99 $48 #
plane-surface $-1 0 0 8.3626208766173633 0 0 1 1 0 0 forward_v I I I I #
face $-1 $100 $101 $37 $-1 $102 reversed single #
loop $-1 $-1 $103 $49 #
plane-surface $-1 -40.662457668417183 0 5.3626208766173633 0 0 1 1 0 0 forward_v I I I I #
face $-1 $104 $105 $38 $-1 $106 reversed single #
loop $-1 $-1 $107 $50 #
plane-surface $-1 3.4986724942145599 32.632020758481275 109.88693898935998 1 0 0 0 -0.55919291073839883 -0.82903756765294845 forward_v I I I I #
face $-1 $108 $109 $39 $-1 $110 forward single #
loop $-1 $111 $112 $51 #
cone-surface $-1 6.7320619776131352 22.986590498683277 4.1415407344360649 0 -0.55919291073839883 -0.82903756765294845 1.5 0 0 1 I I 0 1 1.5 forward I I I I #
face $-1 $113 $114 $40 $-1 $115 forward single #
loop $-1 $116 $117 $52 #
cone-surface $-1 11.582146202710994 22.986590498683277 4.1415407344360649 0 -0.55919291073839883 -0.82903756765294845 1.5 0 0 1 I I 0 1 1.5 forward I I I I #
face $-1 $118 $119 $41 $-1 $120 forward single #
loop $-1 $121 $122 $53 #
cone-surface $-1 16.432230427808854 22.986590498683277 4.1415407344360649 0 -0.55919291073839883 -0.82903756765294845 1.5 0 0 1 I I 0 1 1.5 forward I I I I #
face $-1 $123 $124 $42 $-1 $125 reversed single #
loop $-1 $-1 $126 $54 #
plane-surface $-1 5.1848887471838729 -84.782484606863179 73.83276882279327 -1 0 0 0 -0.61566148304635926 0.78801074757464917 forward_v I I I I #
face $-1 $127 $128 $43 $-1 $129 forward single #
loop $-1 $130 $131 $55 #
cone-surface $-1 -4.1017288101249321 -23.67875790630022 4.5754877526462758 0 0.61566148304635926 -0.78801074757464917 0.5 0 0 1 I I 0 1 0.5 forward I I I I #
face $-1 $132 $133 $44 $-1 $134 forward single #
loop $-1 $135 $136 $56 #
cone-surface $-1 1.4702417242603545 -23.67875790630022 4.5754877526462758 0 0.61566148304635926 -0.78801074757464917 0.5 0 0 1 I I 0 1 0.5 forward I I I I #
face $-1 $137 $138 $45 $-1 $139 reversed single #
loop $-1 $-1 $140 $57 #
plane-surface $-1 39.34671412548488 -28.329594030924909 1.5763653762498535 0 -0.61566148304635926 0.78801074757464917 1 0 0 forward_v I I I I #
face $-1 $141 $142 $46 $-1 $143 forward single #
loop $-1 $144 $145 $58 #
cone-surface $-1 36.560728858292251 -23.67875790630022 4.5754877526462758 0 0.61566148304635926 -0.78801074757464917 0.5 0 0 1 I I 0 1 0.5 forward I I I I #
face $-1 $146 $147 $47 $-1 $148 forward single #
loop $-1 $149 $150 $59 #
cone-surface $-1 42.132699392677537 -23.67875790630022 4.5754877526462758 0 0.61566148304635926 -0.78801074757464917 0.5 0 0 1 I I 0 1 0.5 forward I I I I #
face $-1 $151 $152 $36 $-1 $153 reversed single #
loop $-1 $-1 $154 $60 #
plane-surface $-1 0 0 -8.3626208766173633 0 0 1 1 0 0 forward_v I I I I #
coedge $-1 $155 $156 $157 $158 forward $61 $-1 #
face $-1 $159 $160 $37 $-1 $161 reversed single #
loop $-1 $-1 $162 $63 #
plane-surface $-1 -35.477568921233299 0 6.8626208766173633 -1 0 0 0 0 1 forward_v I I I I #
coedge $-1 $163 $164 $165 $166 forward $64 $-1 #
face $-1 $167 $168 $38 $-1 $169 reversed single #
loop $-1 $-1 $170 $66 #
plane-surface $-1 11.582146202710994 -18.643001425062039 33.868593877895904 0 0.55919291073839883 0.82903756765294845 1 0 0 forward_v I I I I #
coedge $-1 $171 $172 $173 $174 reversed $67 $-1 #
face $-1 $-1 $175 $39 $-1 $176 forward single #
loop $-1 $177 $178 $69 #
cone-surface $-1 6.7320619776131352 21.803410351090388 2.3874040620658548 0 -0.55919291073839883 -0.82903756765294845 0.75 0 0 1 I I -0.70710678118654757 0.70710678118654757 0.75 forward I I I I #
loop $-1 $-1 $179 $51 #
coedge $-1 $112 $112 $180 $181 reversed $70 $-1 #
face $-1 $-1 $182 $40 $-1 $183 forward single #
loop $-1 $184 $185 $72 #
cone-surface $-1 11.582146202710994 21.803410351090388 2.3874040620658548 0 -0.55919291073839883 -0.82903756765294845 0.75 0 0 1 I I -0.70710678118654757 0.70710678118654757 0.75 forward I I I I #
loop $-1 $-1 $186 $52 #
coedge $-1 $117 $117 $187 $188 reversed $73 $-1 #
face $-1 $-1 $189 $41 $-1 $190 forward single #
loop $-1 $191 $192 $75 #
cone-surface $-1 16.432230427808854 21.803410351090388 2.3874040620658548 0 -0.55919291073839883 -0.82903756765294845 0.75 0 0 1 I I -0.70710678118654757 0.70710678118654757 0.75 forward I I I I #
loop $-1 $-1 $193 $53 #
coedge $-1 $122 $122 $194 $195 reversed $76 $-1 #
face $-1 $196 $197 $42 $-1 $198 reversed single #
loop $-1 $-1 $199 $78 #
plane-surface $-1 -1.3157435429322959 -28.329594030924909 1.5763653762498535 0 -0.61566148304635926 0.78801074757464917 1 0 0 forward_v I I I I #
coedge $-1 $200 $201 $202 $203 reversed $79 $-1 #
face $-1 $-1 $204 $43 $-1 $205 forward single #
loop $-1 $206 $207 $81 #
cone-surface $-1 -4.1017288101249321 -23.217011794015452 3.9844796919652889 0 0.61566148304635926 -0.78801074757464917 0.25 0 0 1 I I -0.70710678118654746 0.70710678118654746 0.25 forward I I I I #
loop $-1 $-1 $208 $55 #
coedge $-1 $131 $131 $209 $210 reversed $82 $-1 #
face $-1 $-1 $211 $44 $-1 $212 forward single #
loop $-1 $213 $214 $84 #
cone-surface $-1 1.4702417242603545 -23.217011794015452 3.9844796919652889 0 0.61566148304635926 -0.78801074757464917 0.25 0 0 1 I I -0.70710678118654746 0.70710678118654746 0.25 forward I I I I #
loop $-1 $-1 $215 $56 #
coedge $-1 $136 $136 $216 $217 reversed $85 $-1 #
face $-1 $218 $219 $45 $-1 $220 reversed single #
loop $-1 $-1 $221 $87 #
plane-surface $-1 32.846081835368707 -84.782484606863179 73.83276882279327 1 0 0 0 0.61566148304635926 -0.78801074757464917 forward_v I I I I #
coedge $-1 $222 $223 $224 $225 reversed $88 $-1 #
face $-1 $-1 $226 $46 $-1 $227 forward single #
loop $-1 $228 $229 $90 #
cone-surface $-1 36.560728858292251 -23.217011794015452 3.9844796919652889 0 0.61566148304635926 -0.78801074757464917 0.25 0 0 1 I I -0.70710678118654746 0.70710678118654746 0.25 forward I I I I #
loop $-1 $-1 $230 $58 #
coedge $-1 $145 $145 $231 $232 reversed $91 $-1 #
face $-1 $-1 $233 $47 $-1 $234 forward single #
loop $-1 $235 $236 $93 #
cone-surface $-1 42.132699392677537 -23.217011794015452 3.9844796919652889 0 0.61566148304635926 -0.78801074757464917 0.25 0 0 1 I I -0.70710678118654746 0.70710678118654746 0.25 forward I I I I #
loop $-1 $-1 $237 $59 #
coedge $-1 $150 $150 $238 $239 reversed $94 $-1 #
face $-1 $240 $241 $36 $-1 $242 reversed single #
loop $-1 $-1 $243 $96 #
plane-surface $-1 0 -28.329594030924905 0 0 1 0 0 0 1 forward_v I I I I #
coedge $-1 $244 $245 $246 $247 forward $97 $-1 #
coedge $-1 $248 $99 $249 $250 forward $61 $-1 #
coedge $-1 $99 $248 $251 $252 forward $61 $-1 #
coedge $-1 $253 $254 $99 $158 reversed $255 $-1 #
edge $-1 $256 -28.329594030924905 $257 28.329594030924905 $157 $258 forward 7 unknown #
face $-1 $259 $260 $37 $-1 $261 reversed single #
loop $-1 $-1 $262 $100 #
plane-surface $-1 0 28.329594030924905 0 0 -1 0 0 0 -1 forward_v I I I I #
coedge $-1 $165 $263 $264 $265 reversed $101 $-1 #
coedge $-1 $266 $103 $267 $268 reversed $64 $-1 #
coedge $-1 $103 $266 $269 $270 reversed $64 $-1 #
coedge $-1 $271 $162 $103 $166 reversed $101 $-1 #
edge $-1 $272 -28.329594030924905 $273 28.329594030924905 $165 $274 forward 7 unknown #
face $-1 $275 $276 $38 $-1 $277 forward single #
loop $-1 $-1 $278 $104 #
plane-surface $-1 19.665619911207429 32.632020758481275 109.88693898935998 -1 0 0 0 0.55919291073839883 0.82903756765294845 forward_v I I I I #
coedge $-1 $279 $280 $281 $282 reversed $105 $-1 #
coedge $-1 $172 $107 $283 $284 reversed $67 $-1 #
coedge $-1 $107 $171 $279 $285 reversed $67 $-1 #
coedge $-1 $281 $286 $107 $174 forward $276 $-1 #
edge $-1 $287 -12.013583651684268 $288 -2.855147516279203 $173 $289 forward 7 unknown #
loop $-1 $-1 $180 $108 #
plane-surface $-1 11.582146202710994 -18.643001425062039 33.868593877895904 0 0.55919291073839883 0.82903756765294845 1 0 0 forward_v I I I I #
loop $-1 $-1 $290 $69 #
coedge $-1 $178 $178 $179 $291 reversed $109 $-1 #
coedge $-1 $179 $179 $178 $291 forward $111 $-1 #
coedge $-1 $180 $180 $112 $181 forward $175 $-1 #
edge $-1 $292 9.9332615153428852e-016 $292 6.2831853071796013 $180 $293 forward 7 unknown #
loop $-1 $-1 $187 $113 #
plane-surface $-1 11.582146202710994 -18.643001425062039 33.868593877895904 0 0.55919291073839883 0.82903756765294845 1 0 0 forward_v I I I I #
loop $-1 $-1 $294 $72 #
coedge $-1 $185 $185 $186 $295 reversed $114 $-1 #
coedge $-1 $186 $186 $185 $295 forward $116 $-1 #
coedge $-1 $187 $187 $117 $188 forward $182 $-1 #
edge $-1 $296 9.9332615153428852e-016 $296 6.2831853071796013 $187 $297 forward 7 unknown #
loop $-1 $-1 $194 $118 #
plane-surface $-1 11.582146202710994 -18.643001425062039 33.868593877895904 0 0.55919291073839883 0.82903756765294845 1 0 0 forward_v I I I I #
loop $-1 $-1 $298 $75 #
coedge $-1 $192 $192 $193 $299 reversed $119 $-1 #
coedge $-1 $193 $193 $192 $299 forward $121 $-1 #
coedge $-1 $194 $194 $122 $195 forward $189 $-1 #
edge $-1 $300 9.9332615153428852e-016 $300 6.2831853071796013 $194 $301 forward 7 unknown #
face $-1 $302 $303 $42 $-1 $304 reversed single #
loop $-1 $-1 $305 $123 #
plane-surface $-1 -7.8163758330484647 -84.782484606863179 73.83276882279327 1 0 0 0 0.61566148304635926 -0.78801074757464917 forward_v I I I I #
coedge $-1 $306 $307 $308 $309 reversed $124 $-1 #
coedge $-1 $201 $126 $310 $311 reversed $79 $-1 #
coedge $-1 $126 $200 $306 $312 reversed $79 $-1 #
coedge $-1 $308 $313 $126 $203 forward $314 $-1 #
edge $-1 $315 14.061648272506684 $316 22.747659038709671 $202 $317 forward 7 unknown #
loop $-1 $-1 $209 $127 #
plane-surface $-1 -1.3157435429322959 -28.329594030924909 1.5763653762498535 0 -0.61566148304635926 0.78801074757464917 1 0 0 forward_v I I I I #
loop $-1 $-1 $318 $81 #
coedge $-1 $207 $207 $208 $319 reversed $128 $-1 #
coedge $-1 $208 $208 $207 $319 forward $130 $-1 #
coedge $-1 $209 $209 $131 $210 forward $204 $-1 #
edge $-1 $320 2.5802110515604666e-015 $320 6.2831853071796031 $209 $321 forward 7 unknown #
loop $-1 $-1 $216 $132 #
plane-surface $-1 -1.3157435429322959 -28.329594030924909 1.5763653762498535 0 -0.61566148304635926 0.78801074757464917 1 0 0 forward_v I I I I #
loop $-1 $-1 $322 $84 #
coedge $-1 $214 $214 $215 $323 reversed $133 $-1 #
coedge $-1 $215 $215 $214 $323 forward $135 $-1 #
coedge $-1 $216 $216 $136 $217 forward $211 $-1 #
edge $-1 $324 2.5802110515604666e-015 $324 6.2831853071796031 $216 $325 forward 7 unknown #
face $-1 $326 $327 $45 $-1 $328 forward single #
loop $-1 $-1 $329 $137 #
plane-surface $-1 0 -28.329594030924905 0 0 1 0 0 0 1 forward_v I I I I #
coedge $-1 $330 $331 $332 $333 reversed $138 $-1 #
coedge $-1 $334 $140 $335 $336 reversed $88 $-1 #
coedge $-1 $140 $334 $330 $337 forward $88 $-1 #
coedge $-1 $332 $338 $140 $225 forward $327 $-1 #
edge $-1 $339 -26.173989352858612 $340 -13.172724772626268 $224 $341 forward 7 unknown #
loop $-1 $-1 $231 $141 #
plane-surface $-1 39.34671412548488 -28.329594030924909 1.5763653762498535 0 -0.61566148304635926 0.78801074757464917 1 0 0 forward_v I I I I #
loop $-1 $-1 $342 $90 #
coedge $-1 $229 $229 $230 $343 reversed $142 $-1 #
coedge $-1 $230 $230 $229 $343 forward $144 $-1 #
coedge $-1 $231 $231 $145 $232 forward $226 $-1 #
edge $-1 $344 2.5802110515604666e-015 $344 6.2831853071796031 $231 $345 forward 7 unknown #
loop $-1 $-1 $238 $146 #
plane-surface $-1 39.34671412548488 -28.329594030924909 1.5763653762498535 0 -0.61566148304635926 0.78801074757464917 1 0 0 forward_v I I I I #
loop $-1 $-1 $346 $93 #
coedge $-1 $236 $236 $237 $347 reversed $147 $-1 #
coedge $-1 $237 $237 $236 $347 forward $149 $-1 #
coedge $-1 $238 $238 $150 $239 forward $233 $-1 #
edge $-1 $348 2.5802110515604666e-015 $348 6.2831853071796031 $238 $349 forward 7 unknown #
face $-1 $350 $351 $36 $-1 $352 reversed single #
loop $-1 $-1 $353 $151 #
plane-surface $-1 -45.847346415601066 0 0 1 0 0 0 0 -1 forward_v I I I I #
coedge $-1 $354 $251 $355 $356 forward $152 $-1 #
coedge $-1 $357 $154 $354 $358 forward $97 $-1 #
coedge $-1 $154 $357 $359 $360 forward $97 $-1 #
coedge $-1 $254 $253 $154 $247 reversed $255 $-1 #
edge $-1 $361 -28.329594030924905 $362 28.329594030924905 $246 $363 forward 7 unknown #
coedge $-1 $156 $155 $364 $365 forward $61 $-1 #
coedge $-1 $366 $367 $155 $250 reversed $351 $-1 #
edge $-1 $257 -45.847346415601066 $368 45.847346415601066 $249 $369 forward 7 unknown #
coedge $-1 $243 $370 $156 $252 reversed $152 $-1 #
edge $-1 $371 -45.847346415601066 $256 45.847346415601066 $251 $372 forward 7 unknown #
coedge $-1 $246 $157 $370 $373 forward $255 $-1 #
coedge $-1 $157 $246 $366 $374 reversed $255 $-1 #
loop $-1 $-1 $253 $350 #
vertex $-1 $158 $375 #
vertex $-1 $158 $376 #
straight-curve $-1 45.847346415601066 0 8.3626208766173633 0 1 0 I I #
face $-1 $377 $378 $37 $-1 $379 forward single #
loop $-1 $-1 $380 $159 #
plane-surface $-1 -45.847346415601066 0 0 1 0 0 0 0 -1 forward_v I I I I #
coedge $-1 $269 $381 $271 $382 forward $160 $-1 #
coedge $-1 $162 $271 $383 $384 reversed $101 $-1 #
coedge $-1 $385 $267 $162 $265 forward $386 $-1 #
edge $-1 $273 1.9313104383086817 $387 4.9313104383086817 $264 $388 forward 7 unknown #
coedge $-1 $164 $163 $380 $389 reversed $64 $-1 #
coedge $-1 $264 $390 $163 $268 forward $386 $-1 #
edge $-1 $391 -25.516117581392475 $273 -15.146340087024708 $267 $392 forward 7 unknown #
coedge $-1 $393 $262 $164 $270 forward $160 $-1 #
edge $-1 $272 15.146340087024708 $394 25.516117581392475 $269 $395 forward 7 unknown #
coedge $-1 $263 $165 $262 $382 reversed $101 $-1 #
vertex $-1 $270 $396 #
vertex $-1 $268 $397 #
straight-curve $-1 -35.477568921233299 0 5.3626208766173633 0 -1 0 I I #
face $-1 $-1 $398 $38 $-1 $399 reversed single #
loop $-1 $-1 $173 $167 #
plane-surface $-1 0 0 8.3626208766173633 0 0 1 1 0 0 forward_v I I I I #
coedge $-1 $400 $401 $402 $403 reversed $168 $-1 #
coedge $-1 $404 $170 $172 $285 forward $105 $-1 #
coedge $-1 $170 $404 $400 $405 forward $105 $-1 #
coedge $-1 $402 $173 $170 $282 forward $276 $-1 #
edge $-1 $288 -2.2924006071409373 $406 13.874546809851932 $281 $407 forward 7 unknown #
coedge $-1 $408 $409 $171 $284 forward $398 $-1 #
edge $-1 $410 -52.758291909164221 $287 -46.580848618062625 $283 $411 forward 7 unknown #
edge $-1 $288 45.612117949776234 $410 56.659188061849811 $172 $412 forward 7 unknown #
coedge $-1 $173 $402 $408 $413 forward $276 $-1 #
vertex $-1 $284 $414 #
vertex $-1 $174 $415 #
straight-curve $-1 3.4986724942145599 16.316010379240637 8.3626208766173633 0 -1 0 I I #
coedge $-1 $290 $290 $-1 $416 reversed $177 $-1 #
edge $-1 $417 0 $417 6.2831853071796004 $178 $418 forward 7 unknown #
vertex $-1 $181 $419 #
ellipse-curve $-1 6.7320619776131352 23.750375963222371 5.273899231066566 0 0.55919291073839883 0.82903756765294845 1.5 0 0 1 I I #
coedge $-1 $294 $294 $-1 $420 reversed $184 $-1 #
edge $-1 $421 0 $421 6.2831853071796004 $185 $422 forward 7 unknown #
vertex $-1 $188 $423 #
ellipse-curve $-1 11.582146202710994 23.750375963222371 5.273899231066566 0 0.55919291073839883 0.82903756765294845 1.5 0 0 1 I I #
coedge $-1 $298 $298 $-1 $424 reversed $191 $-1 #
edge $-1 $425 0 $425 6.2831853071796004 $192 $426 forward 7 unknown #
vertex $-1 $195 $427 #
ellipse-curve $-1 16.432230427808854 23.750375963222371 5.273899231066566 0 0.55919291073839883 0.82903756765294845 1.5 0 0 1 I I #
face $-1 $-1 $314 $42 $-1 $428 forward single #
loop $-1 $-1 $429 $196 #
plane-surface $-1 0 -28.329594030924905 0 0 1 0 0 0 1 forward_v I I I I #
coedge $-1 $430 $431 $432 $433 reversed $197 $-1 #
coedge $-1 $434 $199 $201 $312 forward $124 $-1 #
coedge $-1 $199 $434 $430 $435 forward $124 $-1 #
coedge $-1 $432 $202 $199 $309 forward $314 $-1 #
edge $-1 $316 -5.8427605186500209 $436 7.1585040615823168 $308 $437 forward 7 unknown #
coedge $-1 $438 $439 $200 $311 forward $303 $-1 #
edge $-1 $440 -35.340019035146781 $315 -28.553763534779272 $310 $441 forward 7 unknown #
edge $-1 $316 -11.022705963004842 $440 -4.5767326019679051e-015 $201 $442 forward 7 unknown #
coedge $-1 $202 $432 $438 $443 forward $314 $-1 #
loop $-1 $-1 $432 $302 #
vertex $-1 $311 $444 #
vertex $-1 $203 $445 #
straight-curve $-1 5.1848887471838729 -42.391242303431589 8.3626208766173633 0 1 0 I I #
coedge $-1 $318 $318 $-1 $446 reversed $206 $-1 #
edge $-1 $447 0 $447 6.2831853071796004 $207 $448 forward 7 unknown #
vertex $-1 $210 $449 #
ellipse-curve $-1 -4.1017288101249321 -23.98658864782341 4.969493126433612 0 -0.61566148304635926 0.78801074757464917 0.5 0 0 1 I I #
coedge $-1 $322 $322 $-1 $450 reversed $213 $-1 #
edge $-1 $451 0 $451 6.2831853071796004 $214 $452 forward 7 unknown #
vertex $-1 $217 $453 #
ellipse-curve $-1 1.4702417242603545 -23.98658864782341 4.969493126433612 0 -0.61566148304635926 0.78801074757464917 0.5 0 0 1 I I #
face $-1 $-1 $454 $45 $-1 $455 reversed single #
loop $-1 $-1 $332 $218 #
plane-surface $-1 0 0 8.3626208766173633 0 0 1 1 0 0 forward_v I I I I #
coedge $-1 $456 $457 $331 $458 forward $219 $-1 #
coedge $-1 $331 $221 $223 $337 reversed $138 $-1 #
coedge $-1 $221 $330 $329 $458 reversed $138 $-1 #
coedge $-1 $459 $224 $221 $333 forward $327 $-1 #
edge $-1 $340 -22.747659038709671 $460 -14.061648272506684 $332 $461 forward 7 unknown #
coedge $-1 $223 $222 $456 $462 reversed $88 $-1 #
coedge $-1 $463 $464 $222 $336 forward $454 $-1 #
edge $-1 $465 -10.676758562715268 $339 0.34594740028957283 $335 $466 forward 7 unknown #
edge $-1 $467 4.5767326019679051e-015 $340 11.022705963004842 $330 $468 forward 7 unknown #
coedge $-1 $224 $459 $463 $469 forward $327 $-1 #
vertex $-1 $336 $470 #
vertex $-1 $225 $471 #
straight-curve $-1 19.67335706274244 -19.643583264721919 8.3626208766173633 -1 0 0 I I #
coedge $-1 $342 $342 $-1 $472 reversed $228 $-1 #
edge $-1 $473 0 $473 6.2831853071796004 $229 $474 forward 7 unknown #
vertex $-1 $232 $475 #
ellipse-curve $-1 36.560728858292251 -23.98658864782341 4.969493126433612 0 -0.61566148304635926 0.78801074757464917 0.5 0 0 1 I I #
coedge $-1 $346 $346 $-1 $476 reversed $235 $-1 #
edge $-1 $477 0 $477 6.2831853071796004 $236 $478 forward 7 unknown #
vertex $-1 $239 $479 #
ellipse-curve $-1 42.132699392677537 -23.98658864782341 4.969493126433612 0 -0.61566148304635926 0.78801074757464917 0.5 0 0 1 I I #
face $-1 $-1 $255 $36 $-1 $480 reversed single #
loop $-1 $-1 $366 $240 #
plane-surface $-1 0 28.329594030924905 0 0 -1 0 0 0 -1 forward_v I I I I #
coedge $-1 $481 $364 $367 $482 forward $241 $-1 #
coedge $-1 $370 $243 $244 $358 reversed $152 $-1 #
coedge $-1 $364 $481 $243 $356 reversed $241 $-1 #
edge $-1 $371 -8.3626208766173633 $483 8.3626208766173633 $355 $484 forward 7 unknown #
coedge $-1 $245 $244 $481 $485 forward $97 $-1 #
edge $-1 $362 -45.847346415601066 $483 45.847346415601066 $354 $486 forward 7 unknown #
coedge $-1 $367 $366 $245 $360 reversed $351 $-1 #
edge $-1 $487 -45.847346415601066 $361 45.847346415601066 $359 $488 forward 7 unknown #
vertex $-1 $247 $489 #
vertex $-1 $373 $490 #
straight-curve $-1 45.847346415601066 0 -8.3626208766173633 0 -1 0 I I #
coedge $-1 $353 $355 $248 $365 reversed $241 $-1 #
edge $-1 $368 -28.329594030924905 $371 28.329594030924905 $364 $491 forward 7 unknown #
coedge $-1 $359 $249 $254 $374 forward $351 $-1 #
coedge $-1 $249 $359 $353 $482 reversed $351 $-1 #
vertex $-1 $250 $492 #
straight-curve $-1 0 28.329594030924905 8.3626208766173633 -1 0 0 I I #
coedge $-1 $251 $354 $253 $373 reversed $152 $-1 #
vertex $-1 $365 $493 #
straight-curve $-1 0 -28.329594030924905 8.3626208766173633 1 0 0 I I #
edge $-1 $256 -8.3626208766173633 $362 8.3626208766173633 $253 $494 forward 7 unknown #
edge $-1 $257 -8.3626208766173633 $361 8.3626208766173633 $254 $495 forward 7 unknown #
point $-1 45.847346415601066 -28.329594030924905 8.3626208766173633 #
point $-1 45.847346415601066 28.329594030924905 8.3626208766173633 #
face $-1 $-1 $386 $37 $-1 $496 reversed single #
loop $-1 $-1 $383 $259 #
plane-surface $-1 0 0 8.3626208766173633 0 0 1 1 0 0 forward_v I I I I #
coedge $-1 $497 $498 $266 $389 forward $260 $-1 #
coedge $-1 $262 $393 $499 $500 reversed $160 $-1 #
edge $-1 $501 -4.9313104383086817 $272 -1.9313104383086817 $262 $502 forward 7 unknown #
coedge $-1 $499 $503 $263 $384 forward $378 $-1 #
edge $-1 $387 -28.329594030924905 $501 28.329594030924905 $383 $504 forward 7 unknown #
coedge $-1 $390 $264 $503 $505 reversed $386 $-1 #
loop $-1 $-1 $264 $377 #
vertex $-1 $265 $506 #
straight-curve $-1 -35.477568921233299 -28.329594030924905 3.4313104383086817 0 0 1 I I #
edge $-1 $394 -28.329594030924905 $391 28.329594030924905 $380 $507 forward 7 unknown #
coedge $-1 $267 $385 $497 $508 forward $386 $-1 #
vertex $-1 $389 $509 #
straight-curve $-1 -20.331228834208591 -28.329594030924905 5.3626208766173633 1 0 0 I I #
coedge $-1 $381 $269 $498 $510 reversed $160 $-1 #
vertex $-1 $389 $511 #
straight-curve $-1 -20.331228834208591 28.329594030924905 5.3626208766173633 -1 0 0 I I #
point $-1 -35.477568921233299 28.329594030924905 5.3626208766173633 #
point $-1 -35.477568921233299 -28.329594030924905 5.3626208766173633 #
loop $-1 $-1 $283 $275 #
plane-surface $-1 0 28.329594030924905 0 0 -1 0 0 0 -1 forward_v I I I I #
coedge $-1 $401 $278 $280 $405 reversed $168 $-1 #
coedge $-1 $278 $400 $512 $513 reversed $168 $-1 #
coedge $-1 $286 $281 $278 $403 forward $276 $-1 #
edge $-1 $406 2.855147516279203 $514 12.013583651684268 $402 $515 forward 7 unknown #
coedge $-1 $280 $279 $409 $516 reversed $105 $-1 #
edge $-1 $517 -56.659188061849811 $406 -45.612117949776234 $400 $518 forward 7 unknown #
vertex $-1 $282 $519 #
straight-curve $-1 5.7910731013554972 19.171157895519841 8.3626208766173633 1 0 0 I I #
coedge $-1 $512 $283 $286 $413 reversed $398 $-1 #
coedge $-1 $283 $512 $404 $516 forward $398 $-1 #
vertex $-1 $284 $520 #
straight-curve $-1 3.4986724942145599 28.329594030924905 54.943469494679988 0 0 1 I I #
straight-curve $-1 3.4986724942145599 -18.643001425062039 33.868593877895904 0 0.82903756765294845 -0.55919291073839883 I I #
edge $-1 $514 -19.665619911207429 $287 -3.4986724942145599 $408 $521 forward 7 unknown #
point $-1 3.4986724942145599 28.329594030924905 8.3626208766173633 #
point $-1 3.4986724942145599 19.171157895519841 8.3626208766173633 #
edge $-1 $522 1 $522 0 $290 $-1 forward 7 unknown #
vertex $-1 $291 $523 #
ellipse-curve $-1 6.7320619776131352 22.222805034144187 3.0091822378055664 0 0.55919291073839883 0.82903756765294845 1.5 0 0 1 I I #
point $-1 8.2320619776131352 23.750375963222371 5.2738992310665633 #
edge $-1 $524 1 $524 0 $294 $-1 forward 7 unknown #
vertex $-1 $295 $525 #
ellipse-curve $-1 11.582146202710994 22.222805034144187 3.0091822378055664 0 0.55919291073839883 0.82903756765294845 1.5 0 0 1 I I #
point $-1 13.082146202710994 23.750375963222371 5.2738992310665633 #
edge $-1 $526 1 $526 0 $298 $-1 forward 7 unknown #
vertex $-1 $299 $527 #
ellipse-curve $-1 16.432230427808854 22.222805034144187 3.0091822378055664 0 0.55919291073839883 0.82903756765294845 1.5 0 0 1 I I #
point $-1 17.932230427808854 23.750375963222371 5.2738992310665633 #
plane-surface $-1 0 0 8.3626208766173633 0 0 1 1 0 0 forward_v I I I I #
coedge $-1 $439 $438 $431 $528 forward $303 $-1 #
coedge $-1 $431 $305 $307 $435 reversed $197 $-1 #
coedge $-1 $305 $430 $429 $528 reversed $197 $-1 #
coedge $-1 $313 $308 $305 $433 forward $314 $-1 #
edge $-1 $436 -22.747659038709671 $529 -14.061648272506684 $432 $530 forward 7 unknown #
coedge $-1 $307 $306 $439 $531 reversed $124 $-1 #
edge $-1 $532 4.5767326019679051e-015 $436 11.022705963004842 $430 $533 forward 7 unknown #
vertex $-1 $309 $534 #
straight-curve $-1 -0.65787177146614795 -19.643583264721919 8.3626208766173633 -1 0 0 I I #
coedge $-1 $429 $310 $313 $443 reversed $303 $-1 #
coedge $-1 $310 $429 $434 $531 forward $303 $-1 #
vertex $-1 $311 $535 #
straight-curve $-1 5.1848887471838729 -28.329594030924905 36.916384411396635 0 0 1 I I #
straight-curve $-1 5.1848887471838729 -28.329594030924909 1.5763653762498535 0 -0.78801074757464917 -0.61566148304635926 I I #
edge $-1 $529 -7.8163758330484647 $315 5.1848887471838729 $438 $536 forward 7 unknown #
point $-1 5.1848887471838729 -28.329594030924905 8.3626208766173633 #
point $-1 5.1848887471838729 -19.643583264721919 8.3626208766173633 #
edge $-1 $537 1 $537 0 $318 $-1 forward 7 unknown #
vertex $-1 $319 $538 #
ellipse-curve $-1 -4.1017288101249321 -23.37092716477704 4.1814823788589512 0 -0.61566148304635926 0.78801074757464917 0.5 0 0 1 I I #
point $-1 -3.6017288101249321 -23.9865886478234 4.9694931264336004 #
edge $-1 $539 1 $539 0 $322 $-1 forward 7 unknown #
vertex $-1 $323 $540 #
ellipse-curve $-1 1.4702417242603545 -23.37092716477704 4.1814823788589512 0 -0.61566148304635926 0.78801074757464917 0.5 0 0 1 I I #
point $-1 1.9702417242603545 -23.9865886478234 4.9694931264336004 #
loop $-1 $-1 $335 $326 #
plane-surface $-1 45.847346415601066 0 0 -1 0 0 0 0 1 forward_v I I I I #
coedge $-1 $541 $329 $334 $462 forward $219 $-1 #
coedge $-1 $329 $541 $459 $542 reversed $219 $-1 #
edge $-1 $460 28.553763534779272 $467 35.340019035146781 $329 $543 forward 7 unknown #
coedge $-1 $338 $332 $457 $542 forward $327 $-1 #
vertex $-1 $542 $544 #
straight-curve $-1 32.846081835368707 -42.391242303431589 8.3626208766173633 0 -1 0 I I #
edge $-1 $467 13.172724772626268 $465 26.173989352858612 $456 $545 forward 7 unknown #
coedge $-1 $464 $335 $338 $469 reversed $454 $-1 #
coedge $-1 $335 $463 $541 $546 forward $454 $-1 #
vertex $-1 $462 $547 #
straight-curve $-1 45.847346415601066 -19.916193534245611 8.1496343870990522 0 0.78801074757464917 0.61566148304635926 I I #
vertex $-1 $462 $548 #
straight-curve $-1 32.846081835368707 -28.329594030924909 1.5763653762498535 0 0.78801074757464917 0.61566148304635926 I I #
edge $-1 $549 -28.329594030924905 $339 -19.643583264721919 $463 $550 forward 7 unknown #
point $-1 45.847346415601052 -19.643583264721919 8.3626208766173633 #
point $-1 32.846081835368707 -19.643583264721919 8.3626208766173633 #
edge $-1 $551 1 $551 0 $342 $-1 forward 7 unknown #
vertex $-1 $343 $552 #
ellipse-curve $-1 36.560728858292251 -23.37092716477704 4.1814823788589512 0 -0.61566148304635926 0.78801074757464917 0.5 0 0 1 I I #
point $-1 37.060728858292251 -23.9865886478234 4.9694931264336004 #
edge $-1 $553 1 $553 0 $346 $-1 forward 7 unknown #
vertex $-1 $347 $554 #
ellipse-curve $-1 42.132699392677537 -23.37092716477704 4.1814823788589512 0 -0.61566148304635926 0.78801074757464917 0.5 0 0 1 I I #
point $-1 42.632699392677537 -23.9865886478234 4.9694931264336004 #
plane-surface $-1 45.847346415601066 0 0 -1 0 0 0 0 1 forward_v I I I I #
coedge $-1 $355 $353 $357 $485 reversed $241 $-1 #
edge $-1 $368 -8.3626208766173633 $487 8.3626208766173633 $367 $555 forward 7 unknown #
vertex $-1 $485 $556 #
straight-curve $-1 -45.847346415601066 -28.329594030924905 0 0 0 -1 I I #
edge $-1 $483 -28.329594030924905 $487 28.329594030924905 $481 $557 forward 7 unknown #
straight-curve $-1 0 -28.329594030924905 -8.3626208766173633 -1 0 0 I I #
vertex $-1 $360 $558 #
straight-curve $-1 0 28.329594030924905 -8.3626208766173633 1 0 0 I I #
point $-1 45.847346415601066 28.329594030924905 -8.3626208766173633 #
point $-1 45.847346415601066 -28.329594030924905 -8.3626208766173633 #
straight-curve $-1 -45.847346415601066 0 8.3626208766173633 0 -1 0 I I #
point $-1 -45.847346415601066 28.329594030924905 8.3626208766173633 #
point $-1 -45.847346415601066 -28.329594030924905 8.3626208766173633 #
straight-curve $-1 45.847346415601066 -28.329594030924905 0 0 0 -1 I I #
straight-curve $-1 45.847346415601066 28.329594030924905 0 0 0 -1 I I #
plane-surface $-1 0 -28.329594030924905 0 0 1 0 0 0 1 forward_v I I I I #
coedge $-1 $559 $380 $390 $508 reversed $260 $-1 #
coedge $-1 $380 $559 $393 $510 forward $260 $-1 #
coedge $-1 $560 $383 $381 $500 forward $378 $-1 #
edge $-1 $501 35.477568921233299 $561 45.847346415601066 $381 $562 forward 7 unknown #
vertex $-1 $500 $563 #
straight-curve $-1 -35.477568921233299 28.329594030924905 3.4313104383086817 0 0 -1 I I #
coedge $-1 $383 $560 $385 $505 forward $378 $-1 #
straight-curve $-1 -35.477568921233299 0 8.3626208766173633 0 1 0 I I #
edge $-1 $564 -45.847346415601066 $387 -35.477568921233299 $385 $565 forward 7 unknown #
point $-1 -35.477568921233299 -28.329594030924905 8.3626208766173633 #
straight-curve $-1 -45.847346415601066 0 5.3626208766173633 0 -1 0 I I #
edge $-1 $564 -8.3626208766173633 $391 -5.3626208766173633 $497 $566 forward 7 unknown #
point $-1 -45.847346415601066 -28.329594030924905 5.3626208766173633 #
edge $-1 $561 -8.3626208766173633 $394 -5.3626208766173633 $393 $567 forward 7 unknown #
point $-1 -45.847346415601066 28.329594030924905 5.3626208766173633 #
coedge $-1 $409 $408 $401 $513 forward $398 $-1 #
edge $-1 $514 46.580848618062625 $517 52.758291909164221 $512 $568 forward 7 unknown #
vertex $-1 $413 $569 #
straight-curve $-1 19.665619911207429 16.316010379240637 8.3626208766173633 0 1 0 I I #
edge $-1 $517 -13.874546809851932 $410 2.2924006071409373 $409 $570 forward 7 unknown #
vertex $-1 $516 $571 #
straight-curve $-1 19.665619911207429 -18.643001425062039 33.868593877895904 0 -0.82903756765294845 0.55919291073839883 I I #
point $-1 19.665619911207429 19.171157895519841 8.3626208766173633 #
point $-1 3.4986724942145599 28.329594030924909 2.1851775855157669 #
straight-curve $-1 0 28.329594030924905 8.3626208766173633 -1 0 0 I I #
vertex $-1 $416 $572 #
point $-1 8.2320619776131352 22.222805034144187 3.0091822378055664 #
vertex $-1 $420 $573 #
point $-1 13.082146202710994 22.222805034144187 3.0091822378055664 #
vertex $-1 $424 $574 #
point $-1 17.932230427808854 22.222805034144187 3.0091822378055664 #
edge $-1 $529 28.553763534779272 $532 35.340019035146781 $429 $575 forward 7 unknown #
vertex $-1 $443 $576 #
straight-curve $-1 -7.8163758330484647 -42.391242303431589 8.3626208766173633 0 -1 0 I I #
edge $-1 $532 -7.1585040615823168 $440 5.8427605186500209 $439 $577 forward 7 unknown #
vertex $-1 $531 $578 #
straight-curve $-1 -7.8163758330484647 -28.329594030924909 1.5763653762498535 0 0.78801074757464917 0.61566148304635926 I I #
point $-1 -7.8163758330484647 -19.643583264721919 8.3626208766173633 #
point $-1 5.1848887471838729 -28.329594030924905 1.5763653762498564 #
straight-curve $-1 0 -28.329594030924905 8.3626208766173633 1 0 0 I I #
vertex $-1 $446 $579 #
point $-1 -3.6017288101249321 -23.37092716477704 4.1814823788589512 #
vertex $-1 $450 $580 #
point $-1 1.9702417242603545 -23.37092716477704 4.1814823788589512 #
coedge $-1 $457 $456 $464 $546 reversed $219 $-1 #
edge $-1 $460 32.846081835368707 $549 45.847346415601066 $457 $581 forward 7 unknown #
straight-curve $-1 32.846081835368707 -28.329594030924905 36.916384411396635 0 0 -1 I I #
point $-1 32.846081835368707 -28.329594030924905 8.3626208766173633 #
straight-curve $-1 19.67335706274244 -28.329594030924905 1.5763653762498575 1 0 0 I I #
edge $-1 $549 -8.3626208766173633 $465 -1.5763653762498564 $464 $582 forward 7 unknown #
point $-1 45.847346415601052 -28.329594030924905 1.5763653762498564 #
point $-1 32.846081835368707 -28.329594030924905 1.5763653762498564 #
vertex $-1 $469 $583 #
straight-curve $-1 45.847346415601066 0 8.3626208766173633 0 1 0 I I #
vertex $-1 $472 $584 #
point $-1 37.060728858292251 -23.37092716477704 4.1814823788589512 #
vertex $-1 $476 $585 #
point $-1 42.632699392677537 -23.37092716477704 4.1814823788589512 #
straight-curve $-1 -45.847346415601066 28.329594030924905 0 0 0 -1 I I #
point $-1 -45.847346415601066 -28.329594030924905 -8.3626208766173633 #
straight-curve $-1 -45.847346415601066 0 -8.3626208766173633 0 1 0 I I #
point $-1 -45.847346415601066 28.329594030924905 -8.3626208766173633 #
coedge $-1 $498 $497 $560 $586 reversed $260 $-1 #
coedge $-1 $503 $499 $559 $586 forward $378 $-1 #
vertex $-1 $500 $587 #
straight-curve $-1 0 28.329594030924905 8.3626208766173633 -1 0 0 I I #
point $-1 -35.477568921233299 28.329594030924905 8.3626208766173633 #
vertex $-1 $586 $588 #
straight-curve $-1 0 -28.329594030924905 8.3626208766173633 1 0 0 I I #
straight-curve $-1 -45.847346415601066 -28.329594030924905 0 0 0 -1 I I #
straight-curve $-1 -45.847346415601066 28.329594030924905 0 0 0 -1 I I #
straight-curve $-1 19.665619911207429 28.329594030924905 54.943469494679988 0 0 -1 I I #
point $-1 19.665619911207429 28.329594030924905 8.3626208766173633 #
straight-curve $-1 5.7910731013554972 28.329594030924909 2.1851775855157651 -1 0 0 I I #
point $-1 19.665619911207429 28.329594030924909 2.1851775855157669 #
point $-1 6.7320619776131352 21.384015668036589 1.7656258863261434 #
point $-1 11.582146202710994 21.384015668036589 1.7656258863261434 #
point $-1 16.432230427808854 21.384015668036589 1.7656258863261434 #
straight-curve $-1 -7.8163758330484647 -28.329594030924905 36.916384411396635 0 0 -1 I I #
point $-1 -7.8163758330484647 -28.329594030924905 8.3626208766173633 #
straight-curve $-1 -0.65787177146614795 -28.329594030924905 1.5763653762498575 1 0 0 I I #
point $-1 -7.8163758330484647 -28.329594030924905 1.5763653762498564 #
point $-1 -4.1017288101249321 -23.063096423253864 3.7874770050716267 #
point $-1 1.4702417242603545 -23.063096423253864 3.7874770050716267 #
straight-curve $-1 0 -28.329594030924905 8.3626208766173633 1 0 0 I I #
straight-curve $-1 45.847346415601066 -28.329594030924905 0 0 0 -1 I I #
point $-1 45.847346415601066 -28.329594030924905 8.3626208766173633 #
point $-1 36.560728858292251 -23.063096423253864 3.7874770050716267 #
point $-1 42.132699392677537 -23.063096423253864 3.7874770050716267 #
edge $-1 $561 -28.329594030924905 $564 28.329594030924905 $559 $589 forward 7 unknown #
point $-1 -45.847346415601066 28.329594030924905 8.3626208766173633 #
point $-1 -45.847346415601066 -28.329594030924905 8.3626208766173633 #
straight-curve $-1 -45.847346415601066 0 8.3626208766173633 0 -1 0 I I #
End-of-ACIS-data 