500 0 6 0           
7 Unknown 11 ACIS 5.0 NT 24 Thu Mar 25 17:07:01 1999 
-1 9.9999999999999995e-007 1e-010 
body $-1 $6 $-1 $7 #
body $-1 $8 $-1 $9 #
body $-1 $10 $-1 $11 #
body $-1 $12 $-1 $13 #
body $-1 $14 $-1 $15 #
body $-1 $16 $-1 $17 #
lump $-1 $-1 $18 $0 #
transform $-1 1 0 0 0 1 0 0 0 1 66.477858821375165 38.001346653562912 18.275949015010116 1 rotate no_reflect no_shear #
lump $-1 $-1 $19 $1 #
transform $-1 1 0 0 0 1 0 0 0 1 66.477858821375165 38.001346653562912 18.275949015010116 1 rotate no_reflect no_shear #
lump $-1 $-1 $20 $2 #
transform $-1 1 0 0 0 1 0 0 0 1 66.477858821375165 38.001346653562912 18.275949015010116 1 rotate no_reflect no_shear #
lump $-1 $-1 $21 $3 #
transform $-1 1 0 0 0 1 0 0 0 1 66.477858821375165 38.001346653562912 18.275949015010116 1 rotate no_reflect no_shear #
lump $-1 $-1 $22 $4 #
transform $-1 1 0 0 0 1 0 0 0 1 66.477858821375165 38.001346653562912 18.275949015010116 1 rotate no_reflect no_shear #
lump $-1 $-1 $23 $5 #
transform $-1 1 0 0 0 1 0 0 0 1 66.477858821375165 38.001346653562912 18.275949015010116 1 rotate no_reflect no_shear #
shell $-1 $-1 $-1 $24 $-1 $6 #
shell $-1 $-1 $-1 $25 $-1 $8 #
shell $-1 $-1 $-1 $26 $-1 $10 #
shell $-1 $-1 $-1 $27 $-1 $12 #
shell $-1 $-1 $-1 $28 $-1 $14 #
shell $-1 $-1 $-1 $29 $-1 $16 #
face $-1 $30 $31 $18 $-1 $32 forward single #
face $-1 $33 $34 $19 $-1 $35 forward single #
face $-1 $36 $37 $20 $-1 $38 reversed single #
face $-1 $39 $40 $21 $-1 $41 forward single #
face $-1 $42 $43 $22 $-1 $44 reversed single #
face $-1 $45 $46 $23 $-1 $47 forward single #
face $-1 $48 $49 $18 $-1 $50 reversed single #
loop $-1 $-1 $51 $24 #
plane-surface $-1 0 0 18.275949015010116 0 0 1 1 0 0 forward_v I I I I #
face $-1 $52 $53 $19 $-1 $54 reversed single #
loop $-1 $-1 $55 $25 #
plane-surface $-1 0 -38.001346653562912 0 0 1 0 0 0 1 forward_v I I I I #
face $-1 $56 $57 $20 $-1 $58 reversed single #
loop $-1 $-1 $59 $26 #
plane-surface $-1 108.77490871235214 22.133924179844168 187.69953549957674 0 -1 0 -0.84804810408105047 0 -0.52991925155115449 forward_v I I I I #
face $-1 $60 $61 $21 $-1 $62 forward single #
loop $-1 $63 $64 $27 #
cone-surface $-1 60.947036287233288 16.699913879387161 10.618648873305832 -0.84804810408105047 0 -0.52991925155115449 0.79487887732673168 0 -1.2720721561215758 1 I I 0 1 1.5 forward I I I I #
face $-1 $65 $66 $22 $-1 $67 reversed single #
loop $-1 $-1 $68 $28 #
plane-surface $-1 -179.23070309504504 11.265903578930153 74.946691225906861 0 1 0 -0.84804810408105047 0 0.52991925155115449 forward_v I I I I #
face $-1 $69 $70 $23 $-1 $71 forward single #
loop $-1 $72 $73 $29 #
cone-surface $-1 -60.947036287233281 16.699913879387161 10.618648873305824 0.84804810408105047 0 -0.52991925155115449 0.79487887732673168 0 1.2720721561215758 1 I I 0 1 1.5 forward I I I I #
face $-1 $74 $75 $18 $-1 $76 reversed single #
loop $-1 $-1 $77 $30 #
plane-surface $-1 0 0 -18.275949015010116 0 0 1 1 0 0 forward_v I I I I #
coedge $-1 $78 $79 $80 $81 forward $31 $-1 #
face $-1 $82 $83 $19 $-1 $84 reversed single #
loop $-1 $-1 $85 $33 #
plane-surface $-1 0 0 -18.275949015010116 0 0 1 1 0 0 forward_v I I I I #
coedge $-1 $86 $87 $88 $89 forward $34 $-1 #
face $-1 $90 $91 $20 $-1 $92 reversed single #
loop $-1 $-1 $93 $36 #
plane-surface $-1 -3.9779355613177501 16.699913879387161 117.24374111688385 0.84804810408105047 0 0.52991925155115449 0.52991925155115449 0 -0.84804810408105047 forward_v I I I I #
coedge $-1 $94 $95 $96 $97 reversed $37 $-1 #
face $-1 $-1 $98 $21 $-1 $99 forward single #
loop $-1 $100 $101 $39 #
cone-surface $-1 59.087105840024009 16.699913879387161 9.4564353788362432 -0.84804810408105047 0 -0.52991925155115449 0.39743943866336584 0 -0.63603607806078788 1 I I -0.70710678118654757 0.70710678118654757 0.75 forward I I I I #
loop $-1 $-1 $102 $27 #
coedge $-1 $64 $64 $103 $104 reversed $40 $-1 #
face $-1 $105 $106 $22 $-1 $107 reversed single #
loop $-1 $-1 $108 $42 #
plane-surface $-1 -66.47785882137515 16.699913879387161 4.4908968432139744 -0.84804810408105047 0 0.52991925155115449 0.52991925155115449 0 0.84804810408105047 forward_v I I I I #
coedge $-1 $109 $110 $111 $112 reversed $43 $-1 #
face $-1 $-1 $113 $23 $-1 $114 forward single #
loop $-1 $115 $116 $45 #
cone-surface $-1 -59.087105840024002 16.699913879387161 9.4564353788362361 0.84804810408105047 0 -0.52991925155115449 0.39743943866336584 0 0.63603607806078788 1 I I -0.70710678118654757 0.70710678118654757 0.75 forward I I I I #
loop $-1 $-1 $117 $29 #
coedge $-1 $73 $73 $118 $119 reversed $46 $-1 #
face $-1 $120 $121 $18 $-1 $122 reversed single #
loop $-1 $-1 $123 $48 #
plane-surface $-1 0 -38.001346653562912 0 0 1 0 0 0 1 forward_v I I I I #
coedge $-1 $124 $125 $126 $127 forward $49 $-1 #
coedge $-1 $128 $51 $129 $130 forward $31 $-1 #
coedge $-1 $51 $128 $131 $132 forward $31 $-1 #
coedge $-1 $133 $134 $51 $81 reversed $135 $-1 #
edge $-1 $136 -38.001346653562912 $137 38.001346653562912 $80 $138 forward 7 unknown #
face $-1 $139 $140 $19 $-1 $141 forward single #
loop $-1 $-1 $142 $52 #
plane-surface $-1 66.477858821375165 0 0 -1 0 0 0 0 1 forward_v I I I I #
coedge $-1 $143 $144 $145 $146 forward $53 $-1 #
coedge $-1 $145 $55 $142 $147 reversed $34 $-1 #
coedge $-1 $55 $145 $148 $149 reversed $34 $-1 #
coedge $-1 $150 $151 $55 $89 reversed $140 $-1 #
edge $-1 $152 -66.477858821375165 $153 66.477858821375165 $88 $154 forward 7 unknown #
face $-1 $155 $156 $20 $-1 $157 reversed single #
loop $-1 $-1 $158 $56 #
plane-surface $-1 108.77490871235214 11.265903578930153 187.69953549957674 0 1 0 0.84804810408105047 0 0.52991925155115449 forward_v I I I I #
coedge $-1 $159 $160 $161 $162 reversed $57 $-1 #
coedge $-1 $95 $59 $163 $164 reversed $37 $-1 #
coedge $-1 $59 $94 $159 $165 reversed $37 $-1 #
coedge $-1 $161 $166 $59 $97 forward $167 $-1 #
edge $-1 $168 -12.090404465199093 $169 -3.4765481352122904 $96 $170 forward 7 unknown #
loop $-1 $-1 $103 $60 #
plane-surface $-1 -3.9779355613177501 16.699913879387161 117.24374111688385 0.84804810408105047 0 0.52991925155115449 0.52991925155115449 0 -0.84804810408105047 forward_v I I I I #
loop $-1 $-1 $171 $39 #
coedge $-1 $101 $101 $102 $172 reversed $61 $-1 #
coedge $-1 $102 $102 $101 $172 forward $63 $-1 #
coedge $-1 $103 $103 $64 $104 forward $98 $-1 #
edge $-1 $173 0 $173 6.2831853071796004 $103 $174 forward 7 unknown #
face $-1 $175 $176 $22 $-1 $177 forward single #
loop $-1 $-1 $178 $65 #
plane-surface $-1 -179.23070309504504 22.133924179844168 74.946691225906861 0 -1 0 0.84804810408105047 0 -0.52991925155115449 forward_v I I I I #
coedge $-1 $179 $180 $181 $182 reversed $66 $-1 #
coedge $-1 $110 $68 $183 $184 reversed $43 $-1 #
coedge $-1 $68 $109 $179 $185 reversed $43 $-1 #
coedge $-1 $181 $186 $68 $112 forward $176 $-1 #
edge $-1 $187 23.137492726147357 $188 31.751349056134131 $111 $189 forward 7 unknown #
loop $-1 $-1 $118 $69 #
plane-surface $-1 -66.47785882137515 16.699913879387161 4.4908968432139744 -0.84804810408105047 0 0.52991925155115449 0.52991925155115449 0 0.84804810408105047 forward_v I I I I #
loop $-1 $-1 $190 $45 #
coedge $-1 $116 $116 $117 $191 reversed $70 $-1 #
coedge $-1 $117 $117 $116 $191 forward $72 $-1 #
coedge $-1 $118 $118 $73 $119 forward $113 $-1 #
edge $-1 $192 0 $192 6.2831853071796004 $118 $193 forward 7 unknown #
face $-1 $194 $195 $18 $-1 $196 reversed single #
loop $-1 $-1 $197 $74 #
plane-surface $-1 -66.477858821375165 0 0 1 0 0 0 0 -1 forward_v I I I I #
coedge $-1 $198 $131 $199 $200 forward $75 $-1 #
coedge $-1 $201 $77 $198 $202 forward $49 $-1 #
coedge $-1 $77 $201 $203 $204 forward $49 $-1 #
coedge $-1 $134 $133 $77 $127 reversed $135 $-1 #
edge $-1 $205 -38.001346653562912 $206 38.001346653562912 $126 $207 forward 7 unknown #
coedge $-1 $79 $78 $208 $209 forward $31 $-1 #
coedge $-1 $210 $211 $78 $130 reversed $195 $-1 #
edge $-1 $137 -66.477858821375165 $212 66.477858821375165 $129 $213 forward 7 unknown #
coedge $-1 $123 $214 $79 $132 reversed $75 $-1 #
edge $-1 $215 -66.477858821375165 $136 66.477858821375165 $131 $216 forward 7 unknown #
coedge $-1 $126 $80 $214 $217 forward $135 $-1 #
coedge $-1 $80 $126 $210 $218 reversed $135 $-1 #
loop $-1 $-1 $133 $194 #
vertex $-1 $81 $219 #
vertex $-1 $81 $220 #
straight-curve $-1 66.477858821375165 0 18.275949015010116 0 1 0 I I #
face $-1 $221 $222 $19 $-1 $223 reversed single #
loop $-1 $-1 $151 $82 #
plane-surface $-1 0 -44.961355897548799 -12.850668822468737 0 0 1 1 0 0 forward_v I I I I #
coedge $-1 $224 $225 $86 $147 forward $83 $-1 #
coedge $-1 $226 $85 $225 $227 forward $53 $-1 #
coedge $-1 $85 $226 $228 $229 forward $53 $-1 #
coedge $-1 $87 $86 $85 $146 reversed $34 $-1 #
edge $-1 $230 -66.477858821375165 $231 66.477858821375165 $85 $232 forward 7 unknown #
edge $-1 $231 -18.275949015010116 $153 -12.850668822468737 $142 $233 forward 7 unknown #
coedge $-1 $228 $234 $87 $149 forward $235 $-1 #
edge $-1 $152 12.850668822468737 $230 18.275949015010116 $148 $236 forward 7 unknown #
coedge $-1 $237 $88 $234 $238 forward $140 $-1 #
coedge $-1 $88 $237 $224 $239 forward $140 $-1 #
vertex $-1 $149 $240 #
vertex $-1 $239 $241 #
straight-curve $-1 0 -38.001346653562912 -12.850668822468737 1 0 0 I I #
face $-1 $-1 $167 $20 $-1 $242 forward single #
loop $-1 $-1 $243 $90 #
plane-surface $-1 66.477858821375165 0 0 -1 0 0 0 0 1 forward_v I I I I #
coedge $-1 $244 $245 $246 $247 reversed $91 $-1 #
coedge $-1 $248 $93 $95 $165 forward $57 $-1 #
coedge $-1 $93 $248 $244 $249 forward $57 $-1 #
coedge $-1 $246 $96 $93 $162 forward $167 $-1 #
edge $-1 $169 -13.783967240150588 $250 -2.9159466392365729 $161 $251 forward 7 unknown #
coedge $-1 $252 $253 $94 $164 forward $156 $-1 #
edge $-1 $254 -89.358870906574452 $168 -75.573818734778257 $163 $255 forward 7 unknown #
edge $-1 $169 116.70068198444447 $254 132.95571764275039 $95 $256 forward 7 unknown #
coedge $-1 $96 $246 $252 $257 forward $167 $-1 #
loop $-1 $-1 $246 $155 #
vertex $-1 $164 $258 #
vertex $-1 $97 $259 #
straight-curve $-1 54.387454356176072 22.133924179844168 18.275949015010113 -1 0 0 I I #
coedge $-1 $171 $171 $-1 $260 reversed $100 $-1 #
edge $-1 $261 0 $261 6.2831853071796004 $101 $262 forward 7 unknown #
vertex $-1 $104 $263 #
ellipse-curve $-1 62.170930656381756 16.699913879387161 11.383422929112038 0.84804810408105047 0 0.52991925155115449 0.79487887732673168 0 -1.2720721561215758 1 I I #
face $-1 $-1 $264 $22 $-1 $265 reversed single #
loop $-1 $-1 $111 $105 #
plane-surface $-1 0 0 18.275949015010116 0 0 1 1 0 0 forward_v I I I I #
coedge $-1 $266 $267 $268 $269 reversed $106 $-1 #
coedge $-1 $270 $108 $110 $185 forward $66 $-1 #
coedge $-1 $108 $270 $266 $271 forward $66 $-1 #
coedge $-1 $268 $111 $108 $182 forward $176 $-1 #
edge $-1 $188 2.9159466392365729 $272 13.783967240150588 $181 $273 forward 7 unknown #
coedge $-1 $274 $275 $109 $184 forward $264 $-1 #
edge $-1 $276 -32.982448769739477 $187 -19.197396597943314 $183 $277 forward 7 unknown #
edge $-1 $188 -16.255035658305847 $276 2.7114274142304302e-014 $110 $278 forward 7 unknown #
coedge $-1 $111 $268 $274 $279 forward $176 $-1 #
vertex $-1 $184 $280 #
vertex $-1 $112 $281 #
straight-curve $-1 -89.615351547522522 11.265903578930153 18.275949015010116 1 0 0 I I #
coedge $-1 $190 $190 $-1 $282 reversed $115 $-1 #
edge $-1 $283 0 $283 6.2831853071796004 $116 $284 forward 7 unknown #
vertex $-1 $119 $285 #
ellipse-curve $-1 -62.170930656381771 16.699913879387161 11.383422929112044 -0.84804810408105047 0 0.52991925155115449 0.79487887732673168 0 1.2720721561215758 1 I I #
face $-1 $-1 $135 $18 $-1 $286 reversed single #
loop $-1 $-1 $210 $120 #
plane-surface $-1 0 38.001346653562912 0 0 -1 0 0 0 -1 forward_v I I I I #
coedge $-1 $287 $208 $211 $288 forward $121 $-1 #
coedge $-1 $214 $123 $124 $202 reversed $75 $-1 #
coedge $-1 $208 $287 $123 $200 reversed $121 $-1 #
edge $-1 $215 -18.275949015010116 $289 18.275949015010116 $199 $290 forward 7 unknown #
coedge $-1 $125 $124 $287 $291 forward $49 $-1 #
edge $-1 $206 -66.477858821375165 $289 66.477858821375165 $198 $292 forward 7 unknown #
coedge $-1 $211 $210 $125 $204 reversed $195 $-1 #
edge $-1 $293 -66.477858821375165 $205 66.477858821375165 $203 $294 forward 7 unknown #
vertex $-1 $127 $295 #
vertex $-1 $217 $296 #
straight-curve $-1 66.477858821375165 0 -18.275949015010116 0 -1 0 I I #
coedge $-1 $197 $199 $128 $209 reversed $121 $-1 #
edge $-1 $212 -38.001346653562912 $215 38.001346653562912 $208 $297 forward 7 unknown #
coedge $-1 $203 $129 $134 $218 forward $195 $-1 #
coedge $-1 $129 $203 $197 $288 reversed $195 $-1 #
vertex $-1 $130 $298 #
straight-curve $-1 0 38.001346653562912 18.275949015010116 -1 0 0 I I #
coedge $-1 $131 $198 $133 $217 reversed $75 $-1 #
vertex $-1 $209 $299 #
straight-curve $-1 0 -38.001346653562912 18.275949015010116 1 0 0 I I #
edge $-1 $136 -18.275949015010116 $206 18.275949015010116 $133 $300 forward 7 unknown #
edge $-1 $137 -18.275949015010116 $205 18.275949015010116 $134 $301 forward 7 unknown #
point $-1 66.477858821375165 -38.001346653562912 18.275949015010116 #
point $-1 66.477858821375165 38.001346653562912 18.275949015010116 #
face $-1 $-1 $235 $19 $-1 $302 reversed single #
loop $-1 $-1 $303 $139 #
plane-surface $-1 0 -51.921365141534686 -15.563308918739427 0 1 0 0 0 1 forward_v I I I I #
coedge $-1 $304 $142 $151 $239 reversed $83 $-1 #
coedge $-1 $142 $304 $143 $227 reversed $83 $-1 #
coedge $-1 $144 $143 $305 $306 forward $53 $-1 #
edge $-1 $231 38.001346653562912 $307 51.921365141534686 $225 $308 forward 7 unknown #
coedge $-1 $309 $148 $144 $229 reversed $235 $-1 #
edge $-1 $310 -51.921365141534686 $230 -38.001346653562912 $228 $311 forward 7 unknown #
vertex $-1 $149 $312 #
vertex $-1 $227 $313 #
straight-curve $-1 0 -38.001346653562912 -18.275949015010116 1 0 0 I I #
straight-curve $-1 66.477858821375165 -38.001346653562912 0 0 0 1 I I #
coedge $-1 $148 $309 $150 $238 reversed $235 $-1 #
loop $-1 $-1 $148 $221 #
straight-curve $-1 -66.477858821375165 -38.001346653562912 0 0 0 -1 I I #
coedge $-1 $151 $150 $314 $315 forward $140 $-1 #
edge $-1 $152 -6.9600092439858869 $316 6.9600092439858869 $234 $317 forward 7 unknown #
edge $-1 $318 -6.9600092439858869 $153 6.9600092439858869 $224 $319 forward 7 unknown #
point $-1 -66.477858821375165 -38.001346653562912 -12.850668822468737 #
point $-1 66.477858821375165 -38.001346653562912 -12.850668822468737 #
plane-surface $-1 0 0 18.275949015010116 0 0 1 1 0 0 forward_v I I I I #
coedge $-1 $253 $252 $245 $320 forward $156 $-1 #
coedge $-1 $245 $158 $160 $249 reversed $91 $-1 #
coedge $-1 $158 $244 $243 $320 reversed $91 $-1 #
coedge $-1 $166 $161 $158 $247 forward $167 $-1 #
edge $-1 $250 3.4765481352122904 $321 12.090404465199093 $246 $322 forward 7 unknown #
coedge $-1 $160 $159 $253 $323 reversed $57 $-1 #
edge $-1 $324 -132.95571764275039 $250 -116.70068198444447 $244 $325 forward 7 unknown #
vertex $-1 $162 $326 #
straight-curve $-1 57.864002491388362 8.3499569396935804 18.275949015010106 0 -1 0 I I #
coedge $-1 $243 $163 $166 $257 reversed $156 $-1 #
coedge $-1 $163 $243 $248 $323 forward $156 $-1 #
vertex $-1 $164 $327 #
straight-curve $-1 66.477858821375165 22.133924179844168 93.84976774978837 0 0 1 I I #
straight-curve $-1 -3.9779355613177501 22.133924179844168 117.24374111688385 0.52991925155115449 0 -0.84804810408105047 I I #
edge $-1 $321 11.265903578930153 $168 22.133924179844168 $252 $328 forward 7 unknown #
point $-1 66.477858821375165 22.133924179844168 18.275949015010116 #
point $-1 57.864002491388362 22.133924179844168 18.275949015010113 #
edge $-1 $329 1 $329 0 $171 $-1 forward 7 unknown #
vertex $-1 $172 $330 #
ellipse-curve $-1 59.723141918084799 16.699913879387161 9.8538748174996087 0.84804810408105047 0 0.52991925155115449 0.79487887732673168 0 -1.2720721561215758 1 I I #
point $-1 62.965809533708523 16.699913879387161 10.11135077299048 #
loop $-1 $-1 $183 $175 #
plane-surface $-1 -66.477858821375165 0 0 1 0 0 0 0 -1 forward_v I I I I #
coedge $-1 $267 $178 $180 $271 reversed $106 $-1 #
coedge $-1 $178 $266 $331 $332 reversed $106 $-1 #
coedge $-1 $186 $181 $178 $269 forward $176 $-1 #
edge $-1 $272 -31.751349056134131 $333 -23.137492726147357 $268 $334 forward 7 unknown #
coedge $-1 $180 $179 $275 $335 reversed $66 $-1 #
edge $-1 $336 -2.7114274142304302e-014 $272 16.255035658305847 $266 $337 forward 7 unknown #
vertex $-1 $182 $338 #
straight-curve $-1 -57.864002491388391 8.3499569396935804 18.275949015010116 0 1 0 I I #
coedge $-1 $331 $183 $186 $279 reversed $264 $-1 #
coedge $-1 $183 $331 $270 $335 forward $264 $-1 #
vertex $-1 $184 $339 #
straight-curve $-1 -66.477858821375165 11.265903578930153 37.47334561295343 0 0 1 I I #
straight-curve $-1 -66.47785882137515 11.265903578930153 4.4908968432139744 -0.52991925155115449 0 -0.84804810408105047 I I #
edge $-1 $333 -22.133924179844168 $187 -11.265903578930153 $274 $340 forward 7 unknown #
point $-1 -66.477858821375165 11.265903578930153 18.275949015010116 #
point $-1 -57.864002491388391 11.265903578930153 18.27594901501012 #
edge $-1 $341 1 $341 0 $190 $-1 forward 7 unknown #
vertex $-1 $191 $342 #
ellipse-curve $-1 -59.723141918084792 16.699913879387161 9.8538748174996016 -0.84804810408105047 0 0.52991925155115449 0.79487887732673168 0 1.2720721561215758 1 I I #
point $-1 -61.376051779055047 16.699913879387161 12.655495085233625 #
plane-surface $-1 66.477858821375165 0 0 -1 0 0 0 0 1 forward_v I I I I #
coedge $-1 $199 $197 $201 $291 reversed $121 $-1 #
edge $-1 $212 -18.275949015010116 $293 18.275949015010116 $211 $343 forward 7 unknown #
vertex $-1 $291 $344 #
straight-curve $-1 -66.477858821375165 -38.001346653562912 0 0 0 -1 I I #
edge $-1 $289 -38.001346653562912 $293 38.001346653562912 $287 $345 forward 7 unknown #
straight-curve $-1 0 -38.001346653562912 -18.275949015010116 -1 0 0 I I #
vertex $-1 $204 $346 #
straight-curve $-1 0 38.001346653562912 -18.275949015010116 1 0 0 I I #
point $-1 66.477858821375165 38.001346653562912 -18.275949015010116 #
point $-1 66.477858821375165 -38.001346653562912 -18.275949015010116 #
straight-curve $-1 -66.477858821375165 0 18.275949015010116 0 -1 0 I I #
point $-1 -66.477858821375165 38.001346653562912 18.275949015010116 #
point $-1 -66.477858821375165 -38.001346653562912 18.275949015010116 #
straight-curve $-1 66.477858821375165 -38.001346653562912 0 0 0 -1 I I #
straight-curve $-1 66.477858821375165 38.001346653562912 0 0 0 -1 I I #
plane-surface $-1 -66.477858821375165 0 0 1 0 0 0 0 -1 forward_v I I I I #
coedge $-1 $305 $314 $309 $347 forward $222 $-1 #
coedge $-1 $225 $224 $348 $349 forward $83 $-1 #
coedge $-1 $348 $303 $226 $306 reversed $222 $-1 #
edge $-1 $307 -66.477858821375165 $310 66.477858821375165 $305 $350 forward 7 unknown #
vertex $-1 $349 $351 #
straight-curve $-1 66.477858821375165 0 -18.275949015010116 0 -1 0 I I #
coedge $-1 $234 $228 $303 $347 reversed $235 $-1 #
vertex $-1 $229 $352 #
straight-curve $-1 -66.477858821375165 0 -18.275949015010116 0 1 0 I I #
point $-1 -66.477858821375165 -38.001346653562912 -18.275949015010116 #
point $-1 66.477858821375165 -38.001346653562912 -18.275949015010116 #
coedge $-1 $303 $348 $237 $315 reversed $222 $-1 #
edge $-1 $316 -66.477858821375165 $318 66.477858821375165 $314 $353 forward 7 unknown #
vertex $-1 $238 $354 #
straight-curve $-1 -66.477858821375165 -44.961355897548799 -12.850668822468737 0 -1 0 I I #
vertex $-1 $239 $355 #
straight-curve $-1 66.477858821375165 -44.961355897548799 -12.850668822468737 0 1 0 I I #
edge $-1 $321 75.573818734778257 $324 89.358870906574452 $243 $356 forward 7 unknown #
vertex $-1 $257 $357 #
straight-curve $-1 54.387454356176072 11.265903578930153 18.275949015010113 1 0 0 I I #
edge $-1 $324 2.9159466392365729 $254 13.783967240150588 $253 $358 forward 7 unknown #
vertex $-1 $323 $359 #
straight-curve $-1 -3.9779355613177501 11.265903578930153 117.24374111688385 -0.52991925155115449 0 0.84804810408105047 I I #
point $-1 57.864002491388362 11.265903578930153 18.275949015010113 #
point $-1 66.477858821375165 22.133924179844168 4.4908968432139176 #
straight-curve $-1 66.477858821375165 0 18.275949015010116 0 1 0 I I #
vertex $-1 $260 $360 #
point $-1 60.51802079541153 16.699913879387161 8.5818026613780329 #
coedge $-1 $275 $274 $267 $332 forward $264 $-1 #
edge $-1 $333 19.197396597943314 $336 32.982448769739477 $331 $361 forward 7 unknown #
vertex $-1 $279 $362 #
straight-curve $-1 -89.615351547522522 22.133924179844168 18.275949015010116 -1 0 0 I I #
edge $-1 $336 -13.783967240150588 $276 -2.9159466392365729 $275 $363 forward 7 unknown #
vertex $-1 $335 $364 #
straight-curve $-1 -66.47785882137515 22.133924179844168 4.4908968432139744 0.52991925155115449 0 0.84804810408105047 I I #
point $-1 -57.864002491388391 22.133924179844168 18.27594901501012 #
point $-1 -66.477858821375165 11.265903578930153 4.4908968432139513 #
straight-curve $-1 -66.477858821375165 0 18.275949015010116 0 -1 0 I I #
vertex $-1 $282 $365 #
point $-1 -58.928263040758061 16.699913879387161 11.125946973621177 #
straight-curve $-1 -66.477858821375165 38.001346653562912 0 0 0 -1 I I #
point $-1 -66.477858821375165 -38.001346653562912 -18.275949015010116 #
straight-curve $-1 -66.477858821375165 0 -18.275949015010116 0 1 0 I I #
point $-1 -66.477858821375165 38.001346653562912 -18.275949015010116 #
edge $-1 $316 -2.7126400962706896 $310 2.7126400962706896 $309 $366 forward 7 unknown #
coedge $-1 $314 $305 $304 $349 reversed $222 $-1 #
edge $-1 $318 -2.7126400962706896 $307 2.7126400962706896 $304 $367 forward 7 unknown #
straight-curve $-1 0 -51.921365141534686 -18.275949015010116 -1 0 0 I I #
point $-1 66.477858821375165 -51.921365141534686 -18.275949015010116 #
point $-1 -66.477858821375165 -51.921365141534686 -18.275949015010116 #
straight-curve $-1 0 -51.921365141534686 -12.850668822468737 1 0 0 I I #
point $-1 -66.477858821375165 -51.921365141534686 -12.850668822468737 #
point $-1 66.477858821375165 -51.921365141534686 -12.850668822468737 #
straight-curve $-1 66.477858821375165 11.265903578930153 93.84976774978837 0 0 -1 I I #
point $-1 66.477858821375165 11.265903578930153 18.275949015010116 #
straight-curve $-1 66.477858821375165 8.3499569396935804 4.4908968432139034 0 1 0 I I #
point $-1 66.477858821375165 11.265903578930153 4.4908968432139176 #
point $-1 58.451069761963218 16.699913879387161 9.0589959401728777 #
straight-curve $-1 -66.477858821375165 22.133924179844168 37.47334561295343 0 0 -1 I I #
point $-1 -66.477858821375165 22.133924179844168 18.275949015010116 #
straight-curve $-1 -66.477858821375165 8.3499569396935804 4.4908968432139442 0 -1 0 I I #
point $-1 -66.477858821375165 22.133924179844168 4.4908968432139513 #
point $-1 -58.451069761963211 16.699913879387161 9.0589959401728706 #
straight-curve $-1 -66.477858821375165 -51.921365141534686 -15.563308918739427 0 0 -1 I I #
straight-curve $-1 66.477858821375165 -51.921365141534686 -15.563308918739427 0 0 -1 I I #
End-of-ACIS-data 