500 0 11 0           
7 Unknown 11 ACIS 5.0 NT 24 Thu Mar 25 17:22:50 1999 
-1 9.9999999999999995e-007 1e-010 
body $-1 $11 $-1 $12 #
body $-1 $13 $-1 $14 #
body $-1 $15 $-1 $16 #
body $-1 $17 $-1 $18 #
body $-1 $19 $-1 $20 #
body $-1 $21 $-1 $22 #
body $-1 $23 $-1 $24 #
body $-1 $25 $-1 $26 #
body $-1 $27 $-1 $28 #
body $-1 $29 $-1 $30 #
body $-1 $31 $-1 $32 #
lump $-1 $-1 $33 $0 #
transform $-1 1 0 0 0 1 0 0 0 1 57.282021546067689 39.923298155278523 13.114730949235586 1 rotate no_reflect no_shear #
lump $-1 $-1 $34 $1 #
transform $-1 1 0 0 0 1 0 0 0 1 57.282021546067689 39.923298155278523 13.114730949235586 1 rotate no_reflect no_shear #
lump $-1 $-1 $35 $2 #
transform $-1 1 0 0 0 1 0 0 0 1 57.282021546067689 39.923298155278523 13.114730949235586 1 rotate no_reflect no_shear #
lump $-1 $-1 $36 $3 #
transform $-1 1 0 0 0 1 0 0 0 1 57.282021546067689 39.923298155278523 13.114730949235586 1 rotate no_reflect no_shear #
lump $-1 $-1 $37 $4 #
transform $-1 1 0 0 0 1 0 0 0 1 57.282021546067689 39.923298155278523 13.114730949235586 1 rotate no_reflect no_shear #
lump $-1 $-1 $38 $5 #
transform $-1 1 0 0 0 1 0 0 0 1 57.282021546067689 39.923298155278523 13.114730949235586 1 rotate no_reflect no_shear #
lump $-1 $-1 $39 $6 #
transform $-1 1 0 0 0 1 0 0 0 1 57.282021546067689 39.923298155278523 13.114730949235586 1 rotate no_reflect no_shear #
lump $-1 $-1 $40 $7 #
transform $-1 1 0 0 0 1 0 0 0 1 57.282021546067689 39.923298155278523 13.114730949235586 1 rotate no_reflect no_shear #
lump $-1 $-1 $41 $8 #
transform $-1 1 0 0 0 1 0 0 0 1 57.282021546067689 39.923298155278523 13.114730949235586 1 rotate no_reflect no_shear #
lump $-1 $-1 $42 $9 #
transform $-1 1 0 0 0 1 0 0 0 1 57.282021546067689 39.923298155278523 13.114730949235586 1 rotate no_reflect no_shear #
lump $-1 $-1 $43 $10 #
transform $-1 1 0 0 0 1 0 0 0 1 57.282021546067689 39.923298155278523 13.114730949235586 1 rotate no_reflect no_shear #
shell $-1 $-1 $-1 $44 $-1 $11 #
shell $-1 $-1 $-1 $45 $-1 $13 #
shell $-1 $-1 $-1 $46 $-1 $15 #
shell $-1 $-1 $-1 $47 $-1 $17 #
shell $-1 $-1 $-1 $48 $-1 $19 #
shell $-1 $-1 $-1 $49 $-1 $21 #
shell $-1 $-1 $-1 $50 $-1 $23 #
shell $-1 $-1 $-1 $51 $-1 $25 #
shell $-1 $-1 $-1 $52 $-1 $27 #
shell $-1 $-1 $-1 $53 $-1 $29 #
shell $-1 $-1 $-1 $54 $-1 $31 #
face $-1 $55 $56 $33 $-1 $57 forward single #
face $-1 $58 $59 $34 $-1 $60 forward single #
face $-1 $61 $62 $35 $-1 $63 forward single #
face $-1 $64 $65 $36 $-1 $66 reversed single #
face $-1 $67 $68 $37 $-1 $69 forward single #
face $-1 $70 $71 $38 $-1 $72 reversed single #
face $-1 $73 $74 $39 $-1 $75 forward single #
face $-1 $76 $77 $40 $-1 $78 forward single #
face $-1 $79 $80 $41 $-1 $81 reversed single #
face $-1 $82 $83 $42 $-1 $84 forward single #
face $-1 $85 $86 $43 $-1 $87 forward single #
face $-1 $88 $89 $33 $-1 $90 reversed single #
loop $-1 $-1 $91 $44 #
plane-surface $-1 0 0 13.114730949235586 0 0 1 1 0 0 forward_v I I I I #
face $-1 $92 $93 $34 $-1 $94 reversed single #
loop $-1 $-1 $95 $45 #
plane-surface $-1 0 -39.923298155278523 0 0 1 0 0 0 1 forward_v I I I I #
face $-1 $96 $97 $35 $-1 $98 reversed single #
loop $-1 $-1 $99 $46 #
plane-surface $-1 0 39.923298155278523 0 0 -1 0 0 0 -1 forward_v I I I I #
face $-1 $100 $101 $36 $-1 $102 reversed single #
loop $-1 $-1 $103 $47 #
plane-surface $-1 96.477731304233288 17.198574255555808 161.09731473398605 0 -1 0 -0.85716730853699208 0 -0.51503806187062418 forward_v I I I I #
face $-1 $104 $105 $37 $-1 $106 forward single #
loop $-1 $107 $108 $48 #
cone-surface $-1 53.292649189853464 11.666749013470223 7.7711403367023246 -0.85716730853699208 0 -0.51503806187062418 1.0300761237412484 0 -1.7143346170739842 1 I I 0 1 2 forward I I I I #
face $-1 $109 $110 $38 $-1 $111 reversed single #
loop $-1 $-1 $112 $49 #
plane-surface $-1 -127.81469021995878 -11.111290222990281 92.390039046023333 0 1 0 -0.61566148304635926 0 0.78801074757464917 forward_v I I I I #
face $-1 $113 $114 $39 $-1 $115 forward single #
loop $-1 $116 $117 $50 #
cone-surface $-1 -49.932982986337599 -8.9878576117138174 7.2195310027381678 0.61566148304635926 0 -0.78801074757464917 0.39400537378732459 0 0.30783074152317963 1 I I 0 1 0.5 forward I I I I #
face $-1 $118 $119 $40 $-1 $120 forward single #
loop $-1 $121 $122 $51 #
cone-surface $-1 -49.932982986337599 -5.8027086947991151 7.2195310027381678 0.61566148304635926 0 -0.78801074757464917 0.39400537378732459 0 0.30783074152317963 1 I I 0 1 0.5 forward I I I I #
face $-1 $123 $124 $41 $-1 $125 reversed single #
loop $-1 $-1 $126 $52 #
plane-surface $-1 -127.81469021995878 3.6792760835226623 92.390039046023333 0 1 0 -0.61566148304635926 0 0.78801074757464917 forward_v I I I I #
face $-1 $127 $128 $42 $-1 $129 forward single #
loop $-1 $130 $131 $53 #
cone-surface $-1 -49.932982986337599 5.8027086947991222 7.2195310027381678 0.61566148304635926 0 -0.78801074757464917 0.39400537378732459 0 0.30783074152317963 1 I I 0 1 0.5 forward I I I I #
face $-1 $132 $133 $43 $-1 $134 forward single #
loop $-1 $135 $136 $54 #
cone-surface $-1 -49.932982986337599 8.987857611713828 7.2195310027381678 0.61566148304635926 0 -0.78801074757464917 0.39400537378732459 0 0.30783074152317963 1 I I 0 1 0.5 forward I I I I #
face $-1 $137 $138 $33 $-1 $139 reversed single #
loop $-1 $-1 $140 $55 #
plane-surface $-1 0 0 -13.114730949235586 0 0 1 1 0 0 forward_v I I I I #
coedge $-1 $141 $142 $143 $144 forward $56 $-1 #
face $-1 $145 $146 $34 $-1 $147 reversed single #
loop $-1 $-1 $148 $58 #
plane-surface $-1 0 0 -13.114730949235586 0 0 1 1 0 0 forward_v I I I I #
coedge $-1 $149 $150 $151 $152 forward $59 $-1 #
face $-1 $153 $154 $35 $-1 $155 forward single #
loop $-1 $-1 $156 $61 #
plane-surface $-1 -57.282021546067689 0 0 1 0 0 0 0 -1 forward_v I I I I #
coedge $-1 $157 $158 $159 $160 forward $62 $-1 #
face $-1 $161 $162 $36 $-1 $163 reversed single #
loop $-1 $-1 $164 $64 #
plane-surface $-1 -1.7228211681683661 11.666749013470231 102.09247201974998 0.85716730853699208 0 0.51503806187062418 0.51503806187062418 0 -0.85716730853699208 forward_v I I I I #
coedge $-1 $165 $166 $167 $168 reversed $65 $-1 #
face $-1 $-1 $169 $37 $-1 $170 forward single #
loop $-1 $171 $172 $67 #
cone-surface $-1 51.216921513682259 11.666749013470223 6.5239173632420702 -0.85716730853699208 0 -0.51503806187062418 0.51503806187062418 0 -0.85716730853699208 1 I I -0.70710678118654746 0.70710678118654746 1 forward I I I I #
loop $-1 $-1 $173 $48 #
coedge $-1 $108 $108 $174 $175 reversed $68 $-1 #
face $-1 $176 $177 $38 $-1 $178 reversed single #
loop $-1 $-1 $179 $70 #
plane-surface $-1 -57.282021546067696 -7.3952831532564645 2.1123418038154114 -0.61566148304635926 0 0.78801074757464917 0.78801074757464917 0 0.61566148304635926 forward_v I I I I #
coedge $-1 $180 $181 $182 $183 reversed $71 $-1 #
face $-1 $-1 $184 $39 $-1 $185 forward single #
loop $-1 $186 $187 $73 #
cone-surface $-1 -49.471236874052828 -8.9878576117138174 6.628522942057181 0.61566148304635926 0 -0.78801074757464917 0.19700268689366229 0 0.15391537076158981 1 I I -0.70710678118654746 0.70710678118654746 0.25 forward I I I I #
loop $-1 $-1 $188 $50 #
coedge $-1 $117 $117 $189 $190 reversed $74 $-1 #
face $-1 $-1 $191 $40 $-1 $192 forward single #
loop $-1 $193 $194 $76 #
cone-surface $-1 -49.471236874052828 -5.8027086947991151 6.628522942057181 0.61566148304635926 0 -0.78801074757464917 0.19700268689366229 0 0.15391537076158981 1 I I -0.70710678118654746 0.70710678118654746 0.25 forward I I I I #
loop $-1 $-1 $195 $51 #
coedge $-1 $122 $122 $196 $197 reversed $77 $-1 #
face $-1 $198 $199 $41 $-1 $200 reversed single #
loop $-1 $-1 $201 $79 #
plane-surface $-1 -57.282021546067696 7.3952831532564787 2.1123418038154114 -0.61566148304635926 0 0.78801074757464917 0.78801074757464917 0 0.61566148304635926 forward_v I I I I #
coedge $-1 $202 $203 $204 $205 reversed $80 $-1 #
face $-1 $-1 $206 $42 $-1 $207 forward single #
loop $-1 $208 $209 $82 #
cone-surface $-1 -49.471236874052828 5.8027086947991222 6.628522942057181 0.61566148304635926 0 -0.78801074757464917 0.19700268689366229 0 0.15391537076158981 1 I I -0.70710678118654746 0.70710678118654746 0.25 forward I I I I #
loop $-1 $-1 $210 $53 #
coedge $-1 $131 $131 $211 $212 reversed $83 $-1 #
face $-1 $-1 $213 $43 $-1 $214 forward single #
loop $-1 $215 $216 $85 #
cone-surface $-1 -49.471236874052828 8.987857611713828 6.628522942057181 0.61566148304635926 0 -0.78801074757464917 0.19700268689366229 0 0.15391537076158981 1 I I -0.70710678118654746 0.70710678118654746 0.25 forward I I I I #
loop $-1 $-1 $217 $54 #
coedge $-1 $136 $136 $218 $219 reversed $86 $-1 #
face $-1 $220 $221 $33 $-1 $222 reversed single #
loop $-1 $-1 $223 $88 #
plane-surface $-1 0 -39.923298155278523 0 0 1 0 0 0 1 forward_v I I I I #
coedge $-1 $224 $225 $226 $227 forward $89 $-1 #
coedge $-1 $228 $91 $229 $230 forward $56 $-1 #
coedge $-1 $91 $228 $231 $232 forward $56 $-1 #
coedge $-1 $233 $234 $91 $144 reversed $235 $-1 #
edge $-1 $236 -39.923298155278523 $237 39.923298155278523 $143 $238 forward 7 unknown #
face $-1 $239 $240 $34 $-1 $241 forward single #
loop $-1 $-1 $242 $92 #
plane-surface $-1 57.282021546067689 0 0 -1 0 0 0 0 1 forward_v I I I I #
coedge $-1 $243 $244 $245 $246 forward $93 $-1 #
coedge $-1 $245 $95 $242 $247 reversed $59 $-1 #
coedge $-1 $95 $245 $248 $249 reversed $59 $-1 #
coedge $-1 $250 $251 $95 $152 reversed $240 $-1 #
edge $-1 $252 -57.282021546067689 $253 57.282021546067689 $151 $254 forward 7 unknown #
face $-1 $255 $256 $35 $-1 $257 reversed single #
loop $-1 $-1 $258 $96 #
plane-surface $-1 0 48.482206034537136 -6.7485610974837806 0 0 1 1 0 0 forward_v I I I I #
coedge $-1 $259 $260 $157 $261 forward $97 $-1 #
coedge $-1 $262 $99 $156 $261 reversed $62 $-1 #
coedge $-1 $99 $262 $263 $264 reversed $62 $-1 #
coedge $-1 $258 $265 $99 $160 reversed $154 $-1 #
edge $-1 $266 -57.282021546067689 $267 57.282021546067689 $159 $268 forward 7 unknown #
face $-1 $269 $270 $36 $-1 $271 forward single #
loop $-1 $-1 $272 $100 #
plane-surface $-1 96.477731304233288 6.1349237713846527 161.09731473398605 0 1 0 0.85716730853699208 0 0.51503806187062418 forward_v I I I I #
coedge $-1 $273 $274 $275 $276 reversed $101 $-1 #
coedge $-1 $166 $103 $277 $278 reversed $65 $-1 #
coedge $-1 $103 $165 $273 $279 reversed $65 $-1 #
coedge $-1 $275 $280 $103 $168 forward $270 $-1 #
edge $-1 $281 -9.0431558939510452 $282 -3.5015319167910519 $167 $283 forward 7 unknown #
loop $-1 $-1 $174 $104 #
plane-surface $-1 -1.7228211681683661 11.666749013470231 102.09247201974998 0.85716730853699208 0 0.51503806187062418 0.51503806187062418 0 -0.85716730853699208 forward_v I I I I #
loop $-1 $-1 $284 $67 #
coedge $-1 $172 $172 $173 $285 reversed $105 $-1 #
coedge $-1 $173 $173 $172 $285 forward $107 $-1 #
coedge $-1 $174 $174 $108 $175 forward $169 $-1 #
edge $-1 $286 0 $286 6.2831853071796004 $174 $287 forward 7 unknown #
face $-1 $288 $289 $38 $-1 $290 reversed single #
loop $-1 $-1 $291 $109 #
plane-surface $-1 -127.81469021995878 -3.6792760835226481 92.390039046023333 0 -1 0 0.61566148304635926 0 -0.78801074757464917 forward_v I I I I #
coedge $-1 $292 $293 $294 $295 reversed $110 $-1 #
coedge $-1 $181 $112 $296 $297 reversed $71 $-1 #
coedge $-1 $112 $180 $292 $298 reversed $71 $-1 #
coedge $-1 $294 $299 $112 $183 forward $300 $-1 #
edge $-1 $301 6.6253235639116994 $302 20.707739200325491 $182 $303 forward 7 unknown #
loop $-1 $-1 $189 $113 #
plane-surface $-1 -57.282021546067696 -7.3952831532564645 2.1123418038154114 -0.61566148304635926 0 0.78801074757464917 0.78801074757464917 0 0.61566148304635926 forward_v I I I I #
loop $-1 $-1 $304 $73 #
coedge $-1 $187 $187 $188 $305 reversed $114 $-1 #
coedge $-1 $188 $188 $187 $305 forward $116 $-1 #
coedge $-1 $189 $189 $117 $190 forward $184 $-1 #
edge $-1 $306 0 $306 6.2831853071796004 $189 $307 forward 7 unknown #
loop $-1 $-1 $196 $118 #
plane-surface $-1 -57.282021546067696 -7.3952831532564645 2.1123418038154114 -0.61566148304635926 0 0.78801074757464917 0.78801074757464917 0 0.61566148304635926 forward_v I I I I #
loop $-1 $-1 $308 $76 #
coedge $-1 $194 $194 $195 $309 reversed $119 $-1 #
coedge $-1 $195 $195 $194 $309 forward $121 $-1 #
coedge $-1 $196 $196 $122 $197 forward $191 $-1 #
edge $-1 $310 0 $310 6.2831853071796004 $196 $311 forward 7 unknown #
face $-1 $312 $313 $41 $-1 $314 forward single #
loop $-1 $-1 $315 $123 #
plane-surface $-1 -127.81469021995878 11.111290222990295 92.390039046023333 0 -1 0 0.61566148304635926 0 -0.78801074757464917 forward_v I I I I #
coedge $-1 $316 $317 $318 $319 reversed $124 $-1 #
coedge $-1 $203 $126 $320 $321 reversed $80 $-1 #
coedge $-1 $126 $202 $316 $322 reversed $80 $-1 #
coedge $-1 $318 $323 $126 $205 forward $313 $-1 #
edge $-1 $324 6.6253235639116994 $325 20.707739200325491 $204 $326 forward 7 unknown #
loop $-1 $-1 $211 $127 #
plane-surface $-1 -57.282021546067696 7.3952831532564787 2.1123418038154114 -0.61566148304635926 0 0.78801074757464917 0.78801074757464917 0 0.61566148304635926 forward_v I I I I #
loop $-1 $-1 $327 $82 #
coedge $-1 $209 $209 $210 $328 reversed $128 $-1 #
coedge $-1 $210 $210 $209 $328 forward $130 $-1 #
coedge $-1 $211 $211 $131 $212 forward $206 $-1 #
edge $-1 $329 0 $329 6.2831853071796004 $211 $330 forward 7 unknown #
loop $-1 $-1 $218 $132 #
plane-surface $-1 -57.282021546067696 7.3952831532564787 2.1123418038154114 -0.61566148304635926 0 0.78801074757464917 0.78801074757464917 0 0.61566148304635926 forward_v I I I I #
loop $-1 $-1 $331 $85 #
coedge $-1 $216 $216 $217 $332 reversed $133 $-1 #
coedge $-1 $217 $217 $216 $332 forward $135 $-1 #
coedge $-1 $218 $218 $136 $219 forward $213 $-1 #
edge $-1 $333 0 $333 6.2831853071796004 $218 $334 forward 7 unknown #
face $-1 $335 $336 $33 $-1 $337 reversed single #
loop $-1 $-1 $338 $137 #
plane-surface $-1 -57.282021546067689 0 0 1 0 0 0 0 -1 forward_v I I I I #
coedge $-1 $339 $231 $340 $341 forward $138 $-1 #
coedge $-1 $342 $140 $339 $343 forward $89 $-1 #
coedge $-1 $140 $342 $344 $345 forward $89 $-1 #
coedge $-1 $234 $233 $140 $227 reversed $235 $-1 #
edge $-1 $346 -39.923298155278523 $347 39.923298155278523 $226 $348 forward 7 unknown #
coedge $-1 $142 $141 $349 $350 forward $56 $-1 #
coedge $-1 $351 $352 $141 $230 reversed $336 $-1 #
edge $-1 $237 -57.282021546067689 $353 57.282021546067689 $229 $354 forward 7 unknown #
coedge $-1 $223 $355 $142 $232 reversed $138 $-1 #
edge $-1 $356 -57.282021546067689 $236 57.282021546067689 $231 $357 forward 7 unknown #
coedge $-1 $226 $143 $355 $358 forward $235 $-1 #
coedge $-1 $143 $226 $351 $359 reversed $235 $-1 #
loop $-1 $-1 $233 $335 #
vertex $-1 $144 $360 #
vertex $-1 $144 $361 #
straight-curve $-1 57.282021546067689 0 13.114730949235586 0 1 0 I I #
face $-1 $362 $363 $34 $-1 $364 reversed single #
loop $-1 $-1 $251 $145 #
plane-surface $-1 0 -48.482206034537136 -6.7485610974837806 0 0 1 1 0 0 forward_v I I I I #
coedge $-1 $365 $366 $149 $247 forward $146 $-1 #
coedge $-1 $367 $148 $366 $368 forward $93 $-1 #
coedge $-1 $148 $367 $369 $370 forward $93 $-1 #
coedge $-1 $150 $149 $148 $246 reversed $59 $-1 #
edge $-1 $371 -57.282021546067689 $372 57.282021546067689 $148 $373 forward 7 unknown #
edge $-1 $372 -13.114730949235586 $253 -6.7485610974837806 $242 $374 forward 7 unknown #
coedge $-1 $369 $375 $150 $249 forward $376 $-1 #
edge $-1 $252 6.7485610974837806 $371 13.114730949235586 $248 $377 forward 7 unknown #
coedge $-1 $378 $151 $375 $379 forward $240 $-1 #
coedge $-1 $151 $378 $365 $380 forward $240 $-1 #
vertex $-1 $249 $381 #
vertex $-1 $380 $382 #
straight-curve $-1 0 -39.923298155278523 -6.7485610974837806 1 0 0 I I #
face $-1 $383 $384 $35 $-1 $385 reversed single #
loop $-1 $-1 $386 $153 #
plane-surface $-1 0 57.041113913795748 -9.9316460233596828 0 -1 0 0 0 -1 forward_v I I I I #
coedge $-1 $387 $159 $388 $389 forward $154 $-1 #
coedge $-1 $390 $156 $265 $391 reversed $97 $-1 #
coedge $-1 $156 $390 $392 $393 reversed $97 $-1 #
edge $-1 $394 -13.114730949235586 $267 -6.7485610974837806 $156 $395 forward 7 unknown #
coedge $-1 $158 $157 $396 $397 reversed $62 $-1 #
coedge $-1 $398 $388 $158 $264 forward $399 $-1 #
edge $-1 $266 6.7485610974837806 $400 13.114730949235586 $263 $401 forward 7 unknown #
coedge $-1 $159 $387 $259 $391 forward $154 $-1 #
vertex $-1 $264 $402 #
vertex $-1 $391 $403 #
straight-curve $-1 0 39.923298155278523 -6.7485610974837806 -1 0 0 I I #
face $-1 $-1 $404 $36 $-1 $405 reversed single #
loop $-1 $-1 $167 $161 #
plane-surface $-1 0 0 13.114730949235586 0 0 1 1 0 0 forward_v I I I I #
coedge $-1 $406 $407 $408 $409 reversed $162 $-1 #
coedge $-1 $410 $164 $166 $279 forward $101 $-1 #
coedge $-1 $164 $410 $406 $411 forward $101 $-1 #
coedge $-1 $408 $167 $164 $276 forward $270 $-1 #
edge $-1 $282 -11.365199748820693 $412 -0.30154926464953746 $275 $413 forward 7 unknown #
coedge $-1 $414 $415 $165 $278 forward $404 $-1 #
edge $-1 $416 -76.656737819644675 $281 -67.433926417757448 $277 $417 forward 7 unknown #
edge $-1 $282 103.80440339282312 $416 114.56404309213535 $166 $418 forward 7 unknown #
coedge $-1 $167 $408 $414 $419 forward $270 $-1 #
vertex $-1 $278 $420 #
vertex $-1 $168 $421 #
straight-curve $-1 48.238865652116644 17.198574255555808 13.114730949235579 -1 0 0 I I #
coedge $-1 $284 $284 $-1 $422 reversed $171 $-1 #
edge $-1 $423 0 $423 6.2831853071796004 $172 $424 forward 7 unknown #
vertex $-1 $175 $425 #
ellipse-curve $-1 54.511209557487689 11.666749013470223 8.5033252482919632 0.85716730853699208 0 0.51503806187062418 1.0300761237412484 0 -1.7143346170739842 1 I I #
face $-1 $-1 $300 $38 $-1 $426 forward single #
loop $-1 $-1 $427 $176 #
plane-surface $-1 -57.282021546067689 0 0 1 0 0 0 0 -1 forward_v I I I I #
coedge $-1 $428 $429 $430 $431 reversed $177 $-1 #
coedge $-1 $432 $179 $181 $298 forward $110 $-1 #
coedge $-1 $179 $432 $428 $433 forward $110 $-1 #
coedge $-1 $430 $182 $179 $295 forward $300 $-1 #
edge $-1 $302 -7.4136486463620486 $434 0.018365493105584108 $294 $435 forward 7 unknown #
coedge $-1 $436 $437 $180 $297 forward $289 $-1 #
edge $-1 $438 -44.082677719196248 $301 -33.08028857377608 $296 $439 forward 7 unknown #
edge $-1 $302 -17.870842091629918 $438 -9.1534652039358102e-015 $181 $440 forward 7 unknown #
coedge $-1 $182 $430 $436 $441 forward $300 $-1 #
loop $-1 $-1 $430 $288 #
vertex $-1 $297 $442 #
vertex $-1 $183 $443 #
straight-curve $-1 -63.907345109979389 -11.111290222990281 13.114730949235586 1 0 0 I I #
coedge $-1 $304 $304 $-1 $444 reversed $186 $-1 #
edge $-1 $445 0 $445 6.2831853071796004 $187 $446 forward 7 unknown #
vertex $-1 $190 $447 #
ellipse-curve $-1 -50.24081372786079 -8.9878576117138174 7.6135363765255057 -0.61566148304635926 0 0.78801074757464917 0.39400537378732459 0 0.30783074152317963 1 I I #
coedge $-1 $308 $308 $-1 $448 reversed $193 $-1 #
edge $-1 $449 0 $449 6.2831853071796004 $194 $450 forward 7 unknown #
vertex $-1 $197 $451 #
ellipse-curve $-1 -50.24081372786079 -5.8027086947991151 7.6135363765255057 -0.61566148304635926 0 0.78801074757464917 0.39400537378732459 0 0.30783074152317963 1 I I #
face $-1 $-1 $452 $41 $-1 $453 reversed single #
loop $-1 $-1 $204 $198 #
plane-surface $-1 0 0 13.114730949235586 0 0 1 1 0 0 forward_v I I I I #
coedge $-1 $454 $455 $456 $457 reversed $199 $-1 #
coedge $-1 $458 $201 $203 $322 forward $124 $-1 #
coedge $-1 $201 $458 $454 $459 forward $124 $-1 #
coedge $-1 $456 $204 $201 $319 forward $313 $-1 #
edge $-1 $325 -0.018365493105577002 $460 7.4136486463620557 $318 $461 forward 7 unknown #
coedge $-1 $462 $463 $202 $321 forward $452 $-1 #
edge $-1 $464 -44.082677719196248 $324 -33.08028857377608 $320 $465 forward 7 unknown #
edge $-1 $325 -17.870842091629918 $464 -9.1534652039358102e-015 $203 $466 forward 7 unknown #
coedge $-1 $204 $456 $462 $467 forward $313 $-1 #
vertex $-1 $205 $468 #
vertex $-1 $205 $469 #
straight-curve $-1 -63.907345109979389 3.6792760835226623 13.114730949235586 1 0 0 I I #
coedge $-1 $327 $327 $-1 $470 reversed $208 $-1 #
edge $-1 $471 0 $471 6.2831853071796004 $209 $472 forward 7 unknown #
vertex $-1 $212 $473 #
ellipse-curve $-1 -50.24081372786079 5.8027086947991222 7.6135363765255057 -0.61566148304635926 0 0.78801074757464917 0.39400537378732459 0 0.30783074152317963 1 I I #
coedge $-1 $331 $331 $-1 $474 reversed $215 $-1 #
edge $-1 $475 0 $475 6.2831853071796004 $216 $476 forward 7 unknown #
vertex $-1 $219 $477 #
ellipse-curve $-1 -50.24081372786079 8.987857611713828 7.6135363765255057 -0.61566148304635926 0 0.78801074757464917 0.39400537378732459 0 0.30783074152317963 1 I I #
face $-1 $-1 $235 $33 $-1 $478 reversed single #
loop $-1 $-1 $351 $220 #
plane-surface $-1 0 39.923298155278523 0 0 -1 0 0 0 -1 forward_v I I I I #
coedge $-1 $479 $349 $352 $480 forward $221 $-1 #
coedge $-1 $355 $223 $224 $343 reversed $138 $-1 #
coedge $-1 $349 $479 $223 $341 reversed $221 $-1 #
edge $-1 $356 -13.114730949235586 $481 13.114730949235586 $340 $482 forward 7 unknown #
coedge $-1 $225 $224 $479 $483 forward $89 $-1 #
edge $-1 $347 -57.282021546067689 $481 57.282021546067689 $339 $484 forward 7 unknown #
coedge $-1 $352 $351 $225 $345 reversed $336 $-1 #
edge $-1 $485 -57.282021546067689 $346 57.282021546067689 $344 $486 forward 7 unknown #
vertex $-1 $227 $487 #
vertex $-1 $358 $488 #
straight-curve $-1 57.282021546067689 0 -13.114730949235586 0 -1 0 I I #
coedge $-1 $338 $340 $228 $350 reversed $221 $-1 #
edge $-1 $353 -39.923298155278523 $356 39.923298155278523 $349 $489 forward 7 unknown #
coedge $-1 $344 $229 $234 $359 forward $336 $-1 #
coedge $-1 $229 $344 $338 $480 reversed $336 $-1 #
vertex $-1 $230 $490 #
straight-curve $-1 0 39.923298155278523 13.114730949235586 -1 0 0 I I #
coedge $-1 $231 $339 $233 $358 reversed $138 $-1 #
vertex $-1 $350 $491 #
straight-curve $-1 0 -39.923298155278523 13.114730949235586 1 0 0 I I #
edge $-1 $236 -13.114730949235586 $347 13.114730949235586 $233 $492 forward 7 unknown #
edge $-1 $237 -13.114730949235586 $346 13.114730949235586 $234 $493 forward 7 unknown #
point $-1 57.282021546067689 -39.923298155278523 13.114730949235586 #
point $-1 57.282021546067689 39.923298155278523 13.114730949235586 #
face $-1 $-1 $376 $34 $-1 $494 reversed single #
loop $-1 $-1 $495 $239 #
plane-surface $-1 0 -57.041113913795748 -9.9316460233596828 0 1 0 0 0 1 forward_v I I I I #
coedge $-1 $496 $242 $251 $380 reversed $146 $-1 #
coedge $-1 $242 $496 $243 $368 reversed $146 $-1 #
coedge $-1 $244 $243 $497 $498 forward $93 $-1 #
edge $-1 $372 39.923298155278523 $499 57.041113913795748 $366 $500 forward 7 unknown #
coedge $-1 $501 $248 $244 $370 reversed $376 $-1 #
edge $-1 $502 -57.041113913795748 $371 -39.923298155278523 $369 $503 forward 7 unknown #
vertex $-1 $249 $504 #
vertex $-1 $368 $505 #
straight-curve $-1 0 -39.923298155278523 -13.114730949235586 1 0 0 I I #
straight-curve $-1 57.282021546067689 -39.923298155278523 0 0 0 1 I I #
coedge $-1 $248 $501 $250 $379 reversed $376 $-1 #
loop $-1 $-1 $248 $362 #
straight-curve $-1 -57.282021546067689 -39.923298155278523 0 0 0 -1 I I #
coedge $-1 $251 $250 $506 $507 forward $240 $-1 #
edge $-1 $252 -8.5589078792586122 $508 8.5589078792586122 $375 $509 forward 7 unknown #
edge $-1 $510 -8.5589078792586122 $253 8.5589078792586122 $365 $511 forward 7 unknown #
point $-1 -57.282021546067689 -39.923298155278523 -6.7485610974837806 #
point $-1 57.282021546067689 -39.923298155278523 -6.7485610974837806 #
face $-1 $-1 $399 $35 $-1 $512 reversed single #
loop $-1 $-1 $396 $255 #
plane-surface $-1 0 0 -13.114730949235586 0 0 1 1 0 0 forward_v I I I I #
coedge $-1 $513 $514 $515 $516 forward $256 $-1 #
coedge $-1 $265 $258 $514 $517 forward $154 $-1 #
coedge $-1 $263 $515 $258 $389 reversed $399 $-1 #
edge $-1 $266 -8.5589078792586122 $518 8.5589078792586122 $388 $519 forward 7 unknown #
coedge $-1 $260 $259 $520 $521 forward $97 $-1 #
edge $-1 $522 -8.5589078792586122 $267 8.5589078792586122 $259 $523 forward 7 unknown #
coedge $-1 $524 $396 $260 $393 forward $384 $-1 #
edge $-1 $394 -8.5589078792586122 $525 8.5589078792586122 $260 $526 forward 7 unknown #
vertex $-1 $393 $527 #
straight-curve $-1 -57.282021546067689 39.923298155278523 0 0 0 1 I I #
coedge $-1 $392 $528 $262 $397 forward $384 $-1 #
edge $-1 $400 -57.282021546067689 $394 57.282021546067689 $396 $529 forward 7 unknown #
coedge $-1 $515 $263 $528 $530 reversed $399 $-1 #
loop $-1 $-1 $263 $383 #
vertex $-1 $264 $531 #
straight-curve $-1 57.282021546067689 39.923298155278523 0 0 0 -1 I I #
point $-1 57.282021546067689 39.923298155278523 -6.7485610974837806 #
point $-1 -57.282021546067689 39.923298155278523 -6.7485610974837806 #
loop $-1 $-1 $277 $269 #
plane-surface $-1 57.282021546067689 0 0 -1 0 0 0 0 1 forward_v I I I I #
coedge $-1 $407 $272 $274 $411 reversed $162 $-1 #
coedge $-1 $272 $406 $532 $533 reversed $162 $-1 #
coedge $-1 $280 $275 $272 $409 forward $270 $-1 #
edge $-1 $412 3.5015319167910519 $534 9.0431558939510452 $408 $535 forward 7 unknown #
coedge $-1 $274 $273 $415 $536 reversed $101 $-1 #
edge $-1 $537 -114.56404309213535 $412 -103.80440339282312 $406 $538 forward 7 unknown #
vertex $-1 $276 $539 #
straight-curve $-1 51.740397568907682 5.8333745067351153 13.114730949235593 0 -1 0 I I #
coedge $-1 $532 $277 $280 $419 reversed $404 $-1 #
coedge $-1 $277 $532 $410 $536 forward $404 $-1 #
vertex $-1 $278 $540 #
straight-curve $-1 57.282021546067689 17.198574255555808 80.548657366993027 0 0 1 I I #
straight-curve $-1 -1.7228211681683661 17.198574255555808 102.09247201974998 0.51503806187062418 0 -0.85716730853699208 I I #
edge $-1 $534 6.1349237713846527 $281 17.198574255555808 $414 $541 forward 7 unknown #
point $-1 57.282021546067689 17.198574255555808 13.114730949235586 #
point $-1 51.740397568907696 17.198574255555808 13.114730949235593 #
edge $-1 $542 1 $542 0 $284 $-1 forward 7 unknown #
vertex $-1 $285 $543 #
ellipse-curve $-1 52.074088822219252 11.666749013470223 7.038955425112694 0.85716730853699208 0 0.51503806187062418 1.0300761237412484 0 -1.7143346170739842 1 I I #
point $-1 55.541285681228921 11.666749013470223 6.7889906312179713 #
plane-surface $-1 0 0 13.114730949235586 0 0 1 1 0 0 forward_v I I I I #
coedge $-1 $437 $436 $429 $544 forward $289 $-1 #
coedge $-1 $429 $291 $293 $433 reversed $177 $-1 #
coedge $-1 $291 $428 $427 $544 reversed $177 $-1 #
coedge $-1 $299 $294 $291 $431 forward $300 $-1 #
edge $-1 $434 -20.707739200325491 $545 -6.6253235639116994 $430 $546 forward 7 unknown #
coedge $-1 $293 $292 $437 $547 reversed $110 $-1 #
edge $-1 $548 9.1534652039358102e-015 $434 17.870842091629918 $428 $549 forward 7 unknown #
vertex $-1 $295 $550 #
straight-curve $-1 -43.19960590965389 -3.6976415766282322 13.114730949235586 0 1 0 I I #
coedge $-1 $427 $296 $299 $441 reversed $289 $-1 #
coedge $-1 $296 $427 $432 $547 forward $289 $-1 #
vertex $-1 $297 $551 #
straight-curve $-1 -57.282021546067689 -11.111290222990281 46.195019523011666 0 0 1 I I #
straight-curve $-1 -57.282021546067696 -11.111290222990281 2.1123418038154114 -0.78801074757464917 0 -0.61566148304635926 I I #
edge $-1 $545 3.6792760835226481 $301 11.111290222990281 $436 $552 forward 7 unknown #
point $-1 -57.282021546067689 -11.111290222990281 13.114730949235586 #
point $-1 -43.199605909653897 -11.111290222990281 13.114730949235586 #
edge $-1 $553 1 $553 0 $304 $-1 forward 7 unknown #
vertex $-1 $305 $554 #
ellipse-curve $-1 -49.625152244814416 -8.9878576117138174 6.8255256289508432 -0.61566148304635926 0 0.78801074757464917 0.39400537378732459 0 0.30783074152317963 1 I I #
point $-1 -49.846808354073453 -8.9878576117138174 7.9213671180486722 #
edge $-1 $555 1 $555 0 $308 $-1 forward 7 unknown #
vertex $-1 $309 $556 #
ellipse-curve $-1 -49.625152244814416 -5.8027086947991151 6.8255256289508432 -0.61566148304635926 0 0.78801074757464917 0.39400537378732459 0 0.30783074152317963 1 I I #
point $-1 -49.846808354073453 -5.8027086947991151 7.9213671180486722 #
loop $-1 $-1 $320 $312 #
plane-surface $-1 -57.282021546067689 0 0 1 0 0 0 0 -1 forward_v I I I I #
coedge $-1 $455 $315 $317 $459 reversed $199 $-1 #
coedge $-1 $315 $454 $557 $558 reversed $199 $-1 #
coedge $-1 $323 $318 $315 $457 forward $313 $-1 #
edge $-1 $460 -20.707739200325491 $559 -6.6253235639116994 $456 $560 forward 7 unknown #
coedge $-1 $317 $316 $463 $561 reversed $124 $-1 #
edge $-1 $562 9.1534652039358102e-015 $460 17.870842091629918 $454 $563 forward 7 unknown #
vertex $-1 $319 $564 #
straight-curve $-1 -43.19960590965389 3.6976415766282393 13.114730949235586 0 1 0 I I #
coedge $-1 $557 $320 $323 $467 reversed $452 $-1 #
coedge $-1 $320 $557 $458 $561 forward $452 $-1 #
vertex $-1 $321 $565 #
straight-curve $-1 -57.282021546067689 3.6792760835226623 46.195019523011666 0 0 1 I I #
straight-curve $-1 -57.282021546067696 3.6792760835226623 2.1123418038154114 -0.78801074757464917 0 -0.61566148304635926 I I #
edge $-1 $559 -11.111290222990295 $324 -3.6792760835226623 $462 $566 forward 7 unknown #
point $-1 -57.282021546067689 3.6792760835226623 13.114730949235586 #
point $-1 -43.199605909653897 3.6792760835226623 13.114730949235586 #
edge $-1 $567 1 $567 0 $327 $-1 forward 7 unknown #
vertex $-1 $328 $568 #
ellipse-curve $-1 -49.625152244814416 5.8027086947991222 6.8255256289508432 -0.61566148304635926 0 0.78801074757464917 0.39400537378732459 0 0.30783074152317963 1 I I #
point $-1 -49.846808354073453 5.8027086947991222 7.9213671180486722 #
edge $-1 $569 1 $569 0 $331 $-1 forward 7 unknown #
vertex $-1 $332 $570 #
ellipse-curve $-1 -49.625152244814416 8.987857611713828 6.8255256289508432 -0.61566148304635926 0 0.78801074757464917 0.39400537378732459 0 0.30783074152317963 1 I I #
point $-1 -49.846808354073453 8.987857611713828 7.9213671180486722 #
plane-surface $-1 57.282021546067689 0 0 -1 0 0 0 0 1 forward_v I I I I #
coedge $-1 $340 $338 $342 $483 reversed $221 $-1 #
edge $-1 $353 -13.114730949235586 $485 13.114730949235586 $352 $571 forward 7 unknown #
vertex $-1 $483 $572 #
straight-curve $-1 -57.282021546067689 -39.923298155278523 0 0 0 -1 I I #
edge $-1 $481 -39.923298155278523 $485 39.923298155278523 $479 $573 forward 7 unknown #
straight-curve $-1 0 -39.923298155278523 -13.114730949235586 -1 0 0 I I #
vertex $-1 $345 $574 #
straight-curve $-1 0 39.923298155278523 -13.114730949235586 1 0 0 I I #
point $-1 57.282021546067689 39.923298155278523 -13.114730949235586 #
point $-1 57.282021546067689 -39.923298155278523 -13.114730949235586 #
straight-curve $-1 -57.282021546067689 0 13.114730949235586 0 -1 0 I I #
point $-1 -57.282021546067689 39.923298155278523 13.114730949235586 #
point $-1 -57.282021546067689 -39.923298155278523 13.114730949235586 #
straight-curve $-1 57.282021546067689 -39.923298155278523 0 0 0 -1 I I #
straight-curve $-1 57.282021546067689 39.923298155278523 0 0 0 -1 I I #
plane-surface $-1 -57.282021546067689 0 0 1 0 0 0 0 -1 forward_v I I I I #
coedge $-1 $497 $506 $501 $575 forward $363 $-1 #
coedge $-1 $366 $365 $576 $577 forward $146 $-1 #
coedge $-1 $576 $495 $367 $498 reversed $363 $-1 #
edge $-1 $499 -57.282021546067689 $502 57.282021546067689 $497 $578 forward 7 unknown #
vertex $-1 $577 $579 #
straight-curve $-1 57.282021546067689 0 -13.114730949235586 0 -1 0 I I #
coedge $-1 $375 $369 $495 $575 reversed $376 $-1 #
vertex $-1 $370 $580 #
straight-curve $-1 -57.282021546067689 0 -13.114730949235586 0 1 0 I I #
point $-1 -57.282021546067689 -39.923298155278523 -13.114730949235586 #
point $-1 57.282021546067689 -39.923298155278523 -13.114730949235586 #
coedge $-1 $495 $576 $378 $507 reversed $363 $-1 #
edge $-1 $508 -57.282021546067689 $510 57.282021546067689 $506 $581 forward 7 unknown #
vertex $-1 $379 $582 #
straight-curve $-1 -57.282021546067689 -48.482206034537136 -6.7485610974837806 0 -1 0 I I #
vertex $-1 $380 $583 #
straight-curve $-1 57.282021546067689 -48.482206034537136 -6.7485610974837806 0 1 0 I I #
plane-surface $-1 57.282021546067689 0 0 -1 0 0 0 0 1 forward_v I I I I #
coedge $-1 $520 $386 $524 $584 reversed $256 $-1 #
coedge $-1 $386 $520 $387 $517 reversed $256 $-1 #
coedge $-1 $388 $398 $386 $516 reversed $399 $-1 #
edge $-1 $518 -3.1830849258759022 $585 3.1830849258759031 $515 $586 forward 7 unknown #
edge $-1 $518 -57.282021546067689 $522 57.282021546067689 $514 $587 forward 7 unknown #
vertex $-1 $389 $588 #
straight-curve $-1 57.282021546067689 48.482206034537136 -6.7485610974837806 0 1 0 I I #
coedge $-1 $514 $513 $390 $521 reversed $256 $-1 #
edge $-1 $522 -3.1830849258759022 $525 3.1830849258759031 $520 $589 forward 7 unknown #
vertex $-1 $517 $590 #
straight-curve $-1 -57.282021546067689 48.482206034537136 -6.7485610974837806 0 -1 0 I I #
coedge $-1 $528 $392 $513 $584 forward $384 $-1 #
vertex $-1 $584 $591 #
straight-curve $-1 -57.282021546067689 48.482206034537136 -13.114730949235586 0 1 0 I I #
point $-1 -57.282021546067689 39.923298155278523 -13.114730949235586 #
coedge $-1 $396 $524 $398 $530 forward $384 $-1 #
straight-curve $-1 0 39.923298155278523 -13.114730949235586 -1 0 0 I I #
edge $-1 $585 -57.041113913795748 $400 -39.923298155278523 $398 $592 forward 7 unknown #
point $-1 57.282021546067689 39.923298155278523 -13.114730949235586 #
coedge $-1 $415 $414 $407 $533 forward $404 $-1 #
edge $-1 $534 67.433926417757448 $537 76.656737819644675 $532 $593 forward 7 unknown #
vertex $-1 $419 $594 #
straight-curve $-1 48.238865652116644 6.1349237713846527 13.114730949235579 1 0 0 I I #
edge $-1 $537 0.30154926464953746 $416 11.365199748820693 $415 $595 forward 7 unknown #
vertex $-1 $536 $596 #
straight-curve $-1 -1.7228211681683661 6.1349237713846527 102.09247201974998 -0.51503806187062418 0 0.85716730853699208 I I #
point $-1 51.740397568907696 6.1349237713846527 13.114730949235593 #
point $-1 57.282021546067689 17.198574255555808 3.8919195473483512 #
straight-curve $-1 57.282021546067689 0 13.114730949235586 0 1 0 I I #
vertex $-1 $422 $597 #
point $-1 53.104164945960498 11.666749013470223 5.3246208080387101 #
edge $-1 $545 33.08028857377608 $548 44.082677719196248 $427 $598 forward 7 unknown #
vertex $-1 $441 $599 #
straight-curve $-1 -63.907345109979389 -3.6792760835226481 13.114730949235586 -1 0 0 I I #
edge $-1 $548 -0.018365493105584108 $438 7.4136486463620486 $437 $600 forward 7 unknown #
vertex $-1 $547 $601 #
straight-curve $-1 -57.282021546067696 -3.6792760835226481 2.1123418038154114 0.78801074757464917 0 0.61566148304635926 I I #
point $-1 -43.199605909653897 -3.6792760835226481 13.114730949235586 #
point $-1 -57.282021546067689 -11.111290222990281 2.1123418038154171 #
straight-curve $-1 -57.282021546067689 0 13.114730949235586 0 -1 0 I I #
vertex $-1 $444 $602 #
point $-1 -49.231146871027093 -8.9878576117138174 7.133356370474023 #
vertex $-1 $448 $603 #
point $-1 -49.231146871027093 -5.8027086947991151 7.133356370474023 #
coedge $-1 $463 $462 $455 $558 forward $452 $-1 #
edge $-1 $559 33.08028857377608 $562 44.082677719196248 $557 $604 forward 7 unknown #
vertex $-1 $467 $605 #
straight-curve $-1 -63.907345109979389 11.111290222990295 13.114730949235586 -1 0 0 I I #
edge $-1 $562 -7.4136486463620557 $464 0.018365493105577002 $463 $606 forward 7 unknown #
vertex $-1 $561 $607 #
straight-curve $-1 -57.282021546067696 11.111290222990295 2.1123418038154114 0.78801074757464917 0 0.61566148304635926 I I #
point $-1 -43.199605909653897 11.111290222990295 13.114730949235586 #
point $-1 -57.282021546067689 3.6792760835226623 2.1123418038154171 #
straight-curve $-1 -57.282021546067689 0 13.114730949235586 0 -1 0 I I #
vertex $-1 $470 $608 #
point $-1 -49.231146871027093 5.8027086947991222 7.133356370474023 #
vertex $-1 $474 $609 #
point $-1 -49.231146871027093 8.987857611713828 7.133356370474023 #
straight-curve $-1 -57.282021546067689 39.923298155278523 0 0 0 -1 I I #
point $-1 -57.282021546067689 -39.923298155278523 -13.114730949235586 #
straight-curve $-1 -57.282021546067689 0 -13.114730949235586 0 1 0 I I #
point $-1 -57.282021546067689 39.923298155278523 -13.114730949235586 #
edge $-1 $508 -3.1830849258759022 $502 3.1830849258759031 $501 $610 forward 7 unknown #
coedge $-1 $506 $497 $496 $577 reversed $363 $-1 #
edge $-1 $510 -3.1830849258759022 $499 3.1830849258759031 $496 $611 forward 7 unknown #
straight-curve $-1 0 -57.041113913795748 -13.114730949235586 -1 0 0 I I #
point $-1 57.282021546067689 -57.041113913795748 -13.114730949235586 #
point $-1 -57.282021546067689 -57.041113913795748 -13.114730949235586 #
straight-curve $-1 0 -57.041113913795748 -6.7485610974837806 1 0 0 I I #
point $-1 -57.282021546067689 -57.041113913795748 -6.7485610974837806 #
point $-1 57.282021546067689 -57.041113913795748 -6.7485610974837806 #
edge $-1 $525 -57.282021546067689 $585 57.282021546067689 $513 $612 forward 7 unknown #
vertex $-1 $530 $613 #
straight-curve $-1 57.282021546067689 57.041113913795748 -9.9316460233596828 0 0 -1 I I #
straight-curve $-1 0 57.041113913795748 -6.7485610974837806 -1 0 0 I I #
point $-1 57.282021546067689 57.041113913795748 -6.7485610974837806 #
straight-curve $-1 -57.282021546067689 57.041113913795748 -9.9316460233596828 0 0 -1 I I #
point $-1 -57.282021546067689 57.041113913795748 -6.7485610974837806 #
point $-1 -57.282021546067689 57.041113913795748 -13.114730949235586 #
straight-curve $-1 57.282021546067689 0 -13.114730949235586 0 -1 0 I I #
straight-curve $-1 57.282021546067689 6.1349237713846527 80.548657366993027 0 0 -1 I I #
point $-1 57.282021546067689 6.1349237713846527 13.114730949235586 #
straight-curve $-1 57.282021546067696 5.8333745067351153 3.8919195473483512 0 1 0 I I #
point $-1 57.282021546067689 6.1349237713846527 3.8919195473483512 #
point $-1 50.359754205145265 11.666749013470223 6.0088793013714463 #
straight-curve $-1 -57.282021546067689 -3.6792760835226481 46.195019523011666 0 0 -1 I I #
point $-1 -57.282021546067689 -3.6792760835226481 13.114730949235586 #
straight-curve $-1 -57.282021546067689 -3.6976415766282322 2.1123418038154198 0 -1 0 I I #
point $-1 -57.282021546067689 -3.6792760835226481 2.1123418038154171 #
point $-1 -49.31732150329124 -8.9878576117138174 6.4315202551635187 #
point $-1 -49.31732150329124 -5.8027086947991151 6.4315202551635187 #
straight-curve $-1 -57.282021546067689 11.111290222990295 46.195019523011666 0 0 -1 I I #
point $-1 -57.282021546067689 11.111290222990295 13.114730949235586 #
straight-curve $-1 -57.282021546067689 3.6976415766282393 2.1123418038154198 0 -1 0 I I #
point $-1 -57.282021546067689 11.111290222990295 2.1123418038154171 #
point $-1 -49.31732150329124 5.8027086947991222 6.4315202551635187 #
point $-1 -49.31732150329124 8.987857611713828 6.4315202551635187 #
straight-curve $-1 -57.282021546067689 -57.041113913795748 -9.9316460233596828 0 0 -1 I I #
straight-curve $-1 57.282021546067689 -57.041113913795748 -9.9316460233596828 0 0 -1 I I #
straight-curve $-1 0 57.041113913795748 -13.114730949235586 1 0 0 I I #
point $-1 57.282021546067689 57.041113913795748 -13.114730949235586 #
End-of-ACIS-data 