500 0 8 0           
7 Unknown 11 ACIS 5.0 NT 24 Fri Mar 26 02:13:40 1999 
-1 9.9999999999999995e-007 1e-010 
body $-1 $8 $-1 $9 #
body $-1 $10 $-1 $11 #
body $-1 $12 $-1 $13 #
body $-1 $14 $-1 $15 #
body $-1 $16 $-1 $17 #
body $-1 $18 $-1 $19 #
body $-1 $20 $-1 $21 #
body $-1 $22 $-1 $23 #
lump $-1 $-1 $24 $0 #
transform $-1 1 0 0 0 1 0 0 0 1 53.069246498001036 36.232591970744359 13.965697602200512 1 rotate no_reflect no_shear #
lump $-1 $-1 $25 $1 #
transform $-1 1 0 0 0 1 0 0 0 1 53.069246498001036 36.232591970744359 13.965697602200512 1 rotate no_reflect no_shear #
lump $-1 $-1 $26 $2 #
transform $-1 1 0 0 0 1 0 0 0 1 53.069246498001036 36.232591970744359 13.965697602200512 1 rotate no_reflect no_shear #
lump $-1 $-1 $27 $3 #
transform $-1 1 0 0 0 1 0 0 0 1 53.069246498001036 36.232591970744359 13.965697602200512 1 rotate no_reflect no_shear #
lump $-1 $-1 $28 $4 #
transform $-1 1 0 0 0 1 0 0 0 1 53.069246498001036 36.232591970744359 13.965697602200512 1 rotate no_reflect no_shear #
lump $-1 $-1 $29 $5 #
transform $-1 1 0 0 0 1 0 0 0 1 53.069246498001036 36.232591970744359 13.965697602200512 1 rotate no_reflect no_shear #
lump $-1 $-1 $30 $6 #
transform $-1 1 0 0 0 1 0 0 0 1 53.069246498001036 36.232591970744359 13.965697602200512 1 rotate no_reflect no_shear #
lump $-1 $-1 $31 $7 #
transform $-1 1 0 0 0 1 0 0 0 1 53.069246498001036 36.232591970744359 13.965697602200512 1 rotate no_reflect no_shear #
shell $-1 $-1 $-1 $32 $-1 $8 #
shell $-1 $-1 $-1 $33 $-1 $10 #
shell $-1 $-1 $-1 $34 $-1 $12 #
shell $-1 $-1 $-1 $35 $-1 $14 #
shell $-1 $-1 $-1 $36 $-1 $16 #
shell $-1 $-1 $-1 $37 $-1 $18 #
shell $-1 $-1 $-1 $38 $-1 $20 #
shell $-1 $-1 $-1 $39 $-1 $22 #
face $-1 $40 $41 $24 $-1 $42 forward single #
face $-1 $43 $44 $25 $-1 $45 reversed single #
face $-1 $46 $47 $26 $-1 $48 forward single #
face $-1 $49 $50 $27 $-1 $51 forward single #
face $-1 $52 $53 $28 $-1 $54 forward single #
face $-1 $55 $56 $29 $-1 $57 reversed single #
face $-1 $58 $59 $30 $-1 $60 forward single #
face $-1 $61 $62 $31 $-1 $63 forward single #
face $-1 $64 $65 $24 $-1 $66 reversed single #
loop $-1 $-1 $67 $32 #
plane-surface $-1 0 0 13.965697602200512 0 0 1 1 0 0 forward_v I I I I #
face $-1 $68 $69 $25 $-1 $70 reversed single #
loop $-1 $-1 $71 $33 #
plane-surface $-1 42.598627239883854 12.991096711664085 150.24553251284956 0 -1 0 -0.6560590369687036 0 -0.75470957328743171 forward_v I I I I #
face $-1 $72 $73 $26 $-1 $74 forward single #
loop $-1 $75 $76 $34 #
cone-surface $-1 45.000952188121637 5.1521980516816868 6.8598331415561287 -0.6560590369687036 0 -0.75470957328743171 0.18867739332185793 0 -0.1640147592421759 1 I I 0 1 0.25 forward I I I I #
face $-1 $77 $78 $27 $-1 $79 forward single #
loop $-1 $80 $81 $35 #
cone-surface $-1 45.000952188121637 8.0917850491750869 6.8598331415561287 -0.6560590369687036 0 -0.75470957328743171 0.18867739332185793 0 -0.1640147592421759 1 I I 0 1 0.25 forward I I I I #
face $-1 $82 $83 $28 $-1 $84 forward single #
loop $-1 $85 $86 $36 #
cone-surface $-1 45.000952188121637 11.031372046668487 6.8598331415561287 -0.6560590369687036 0 -0.75470957328743171 0.18867739332185793 0 -0.1640147592421759 1 I I 0 1 0.25 forward I I I I #
face $-1 $87 $88 $29 $-1 $89 reversed single #
loop $-1 $-1 $90 $37 #
plane-surface $-1 -142.0844775493963 -21.972536585019174 59.216404653253072 0 1 0 -0.83867057594974714 0 0.54463902268945019 forward_v I I I I #
face $-1 $91 $92 $30 $-1 $93 forward single #
loop $-1 $94 $95 $38 #
cone-surface $-1 -48.388446725909077 -19.516664776488955 7.295440513243304 0.83867057594974714 0 -0.54463902268945019 0.2723195113447251 0 0.41933528797487357 1 I I 0 1 0.5 forward I I I I #
face $-1 $96 $97 $31 $-1 $98 forward single #
loop $-1 $99 $100 $39 #
cone-surface $-1 -48.388446725909077 -15.832857063693623 7.295440513243304 0.83867057594974714 0 -0.54463902268945019 0.2723195113447251 0 0.41933528797487357 1 I I 0 1 0.5 forward I I I I #
face $-1 $101 $102 $24 $-1 $103 reversed single #
loop $-1 $-1 $104 $40 #
plane-surface $-1 0 0 -13.965697602200512 0 0 1 1 0 0 forward_v I I I I #
coedge $-1 $105 $106 $107 $108 forward $41 $-1 #
face $-1 $109 $110 $25 $-1 $111 reversed single #
loop $-1 $-1 $112 $43 #
plane-surface $-1 -27.034490260382753 8.0917850491750869 70.141795754465775 0.6560590369687036 0 0.75470957328743171 0.75470957328743171 0 -0.6560590369687036 forward_v I I I I #
coedge $-1 $113 $114 $115 $116 reversed $44 $-1 #
face $-1 $-1 $117 $26 $-1 $118 forward single #
loop $-1 $119 $120 $46 #
cone-surface $-1 44.590915290016198 5.1521980516816868 6.3881396582514842 -0.6560590369687036 0 -0.75470957328743171 0.094338696660928964 0 -0.08200737962108795 1 I I -0.70710678118654746 0.70710678118654746 0.125 forward I I I I #
loop $-1 $-1 $121 $34 #
coedge $-1 $76 $76 $122 $123 reversed $47 $-1 #
face $-1 $-1 $124 $27 $-1 $125 forward single #
loop $-1 $126 $127 $49 #
cone-surface $-1 44.590915290016198 8.0917850491750869 6.3881396582514842 -0.6560590369687036 0 -0.75470957328743171 0.094338696660928964 0 -0.08200737962108795 1 I I -0.70710678118654746 0.70710678118654746 0.125 forward I I I I #
loop $-1 $-1 $128 $35 #
coedge $-1 $81 $81 $129 $130 reversed $50 $-1 #
face $-1 $-1 $131 $28 $-1 $132 forward single #
loop $-1 $133 $134 $52 #
cone-surface $-1 44.590915290016198 11.031372046668487 6.3881396582514842 -0.6560590369687036 0 -0.75470957328743171 0.094338696660928964 0 -0.08200737962108795 1 I I -0.70710678118654746 0.70710678118654746 0.125 forward I I I I #
loop $-1 $-1 $135 $36 #
coedge $-1 $86 $86 $136 $137 reversed $53 $-1 #
face $-1 $138 $139 $29 $-1 $140 reversed single #
loop $-1 $-1 $141 $55 #
plane-surface $-1 -53.069246498001036 -17.674760920091288 1.4092395581794506 -0.83867057594974714 0 0.54463902268945019 0.54463902268945019 0 0.83867057594974714 forward_v I I I I #
coedge $-1 $142 $143 $144 $145 reversed $56 $-1 #
face $-1 $-1 $146 $30 $-1 $147 forward single #
loop $-1 $148 $149 $58 #
cone-surface $-1 -47.575108777375519 -19.516664776488955 6.7672526906242556 0.83867057594974714 0 -0.54463902268945019 0.13615975567236255 0 0.20966764398743679 1 I I -0.70710678118654746 0.70710678118654746 0.25 forward I I I I #
loop $-1 $-1 $150 $38 #
coedge $-1 $95 $95 $151 $152 reversed $59 $-1 #
face $-1 $-1 $153 $31 $-1 $154 forward single #
loop $-1 $155 $156 $61 #
cone-surface $-1 -47.575108777375519 -15.832857063693623 6.7672526906242556 0.83867057594974714 0 -0.54463902268945019 0.13615975567236255 0 0.20966764398743679 1 I I -0.70710678118654746 0.70710678118654746 0.25 forward I I I I #
loop $-1 $-1 $157 $39 #
coedge $-1 $100 $100 $158 $159 reversed $62 $-1 #
face $-1 $160 $161 $24 $-1 $162 reversed single #
loop $-1 $-1 $163 $64 #
plane-surface $-1 0 -36.232591970744359 0 0 1 0 0 0 1 forward_v I I I I #
coedge $-1 $164 $165 $166 $167 forward $65 $-1 #
coedge $-1 $168 $67 $169 $170 forward $41 $-1 #
coedge $-1 $67 $168 $171 $172 forward $41 $-1 #
coedge $-1 $173 $174 $67 $108 reversed $175 $-1 #
edge $-1 $176 -36.232591970744359 $177 36.232591970744359 $107 $178 forward 7 unknown #
face $-1 $179 $180 $25 $-1 $181 forward single #
loop $-1 $-1 $182 $68 #
plane-surface $-1 42.598627239883854 3.192473386686089 150.24553251284956 0 1 0 0.6560590369687036 0 0.75470957328743171 forward_v I I I I #
coedge $-1 $183 $184 $185 $186 reversed $69 $-1 #
coedge $-1 $114 $71 $187 $188 reversed $44 $-1 #
coedge $-1 $71 $113 $183 $189 reversed $44 $-1 #
coedge $-1 $185 $190 $71 $116 forward $180 $-1 #
edge $-1 $191 -31.769932878059109 $192 -16.289403295268983 $115 $193 forward 7 unknown #
loop $-1 $-1 $122 $72 #
plane-surface $-1 -27.034490260382753 8.0917850491750869 70.141795754465775 0.6560590369687036 0 0.75470957328743171 0.75470957328743171 0 -0.6560590369687036 forward_v I I I I #
loop $-1 $-1 $194 $46 #
coedge $-1 $120 $120 $121 $195 reversed $73 $-1 #
coedge $-1 $121 $121 $120 $195 forward $75 $-1 #
coedge $-1 $122 $122 $76 $123 forward $117 $-1 #
edge $-1 $196 0 $196 6.2831853071796004 $122 $197 forward 7 unknown #
loop $-1 $-1 $129 $77 #
plane-surface $-1 -27.034490260382753 8.0917850491750869 70.141795754465775 0.6560590369687036 0 0.75470957328743171 0.75470957328743171 0 -0.6560590369687036 forward_v I I I I #
loop $-1 $-1 $198 $49 #
coedge $-1 $127 $127 $128 $199 reversed $78 $-1 #
coedge $-1 $128 $128 $127 $199 forward $80 $-1 #
coedge $-1 $129 $129 $81 $130 forward $124 $-1 #
edge $-1 $200 0 $200 6.2831853071796004 $129 $201 forward 7 unknown #
loop $-1 $-1 $136 $82 #
plane-surface $-1 -27.034490260382753 8.0917850491750869 70.141795754465775 0.6560590369687036 0 0.75470957328743171 0.75470957328743171 0 -0.6560590369687036 forward_v I I I I #
loop $-1 $-1 $202 $52 #
coedge $-1 $134 $134 $135 $203 reversed $83 $-1 #
coedge $-1 $135 $135 $134 $203 forward $85 $-1 #
coedge $-1 $136 $136 $86 $137 forward $131 $-1 #
edge $-1 $204 0 $204 6.2831853071796004 $136 $205 forward 7 unknown #
face $-1 $206 $207 $29 $-1 $208 reversed single #
loop $-1 $-1 $209 $87 #
plane-surface $-1 -142.0844775493963 -13.376985255163401 59.216404653253072 0 -1 0 0.83867057594974714 0 -0.54463902268945019 forward_v I I I I #
coedge $-1 $210 $211 $212 $213 reversed $88 $-1 #
coedge $-1 $143 $90 $214 $215 reversed $56 $-1 #
coedge $-1 $90 $142 $210 $216 reversed $56 $-1 #
coedge $-1 $212 $217 $90 $145 forward $218 $-1 #
edge $-1 $219 17.972992276697113 $220 26.127251211788803 $144 $221 forward 7 unknown #
loop $-1 $-1 $151 $91 #
plane-surface $-1 -53.069246498001036 -17.674760920091288 1.4092395581794506 -0.83867057594974714 0 0.54463902268945019 0.54463902268945019 0 0.83867057594974714 forward_v I I I I #
loop $-1 $-1 $222 $58 #
coedge $-1 $149 $149 $150 $223 reversed $92 $-1 #
coedge $-1 $150 $150 $149 $223 forward $94 $-1 #
coedge $-1 $151 $151 $95 $152 forward $146 $-1 #
edge $-1 $224 0 $224 6.2831853071796004 $151 $225 forward 7 unknown #
loop $-1 $-1 $158 $96 #
plane-surface $-1 -53.069246498001036 -17.674760920091288 1.4092395581794506 -0.83867057594974714 0 0.54463902268945019 0.54463902268945019 0 0.83867057594974714 forward_v I I I I #
loop $-1 $-1 $226 $61 #
coedge $-1 $156 $156 $157 $227 reversed $97 $-1 #
coedge $-1 $157 $157 $156 $227 forward $99 $-1 #
coedge $-1 $158 $158 $100 $159 forward $153 $-1 #
edge $-1 $228 0 $228 6.2831853071796004 $158 $229 forward 7 unknown #
face $-1 $230 $231 $24 $-1 $232 reversed single #
loop $-1 $-1 $233 $101 #
plane-surface $-1 -53.069246498001036 0 0 1 0 0 0 0 -1 forward_v I I I I #
coedge $-1 $234 $171 $235 $236 forward $102 $-1 #
coedge $-1 $237 $104 $234 $238 forward $65 $-1 #
coedge $-1 $104 $237 $239 $240 forward $65 $-1 #
coedge $-1 $174 $173 $104 $167 reversed $175 $-1 #
edge $-1 $241 -36.232591970744359 $242 36.232591970744359 $166 $243 forward 7 unknown #
coedge $-1 $106 $105 $244 $245 forward $41 $-1 #
coedge $-1 $246 $247 $105 $170 reversed $231 $-1 #
edge $-1 $177 -53.069246498001036 $248 53.069246498001036 $169 $249 forward 7 unknown #
coedge $-1 $163 $250 $106 $172 reversed $102 $-1 #
edge $-1 $251 -53.069246498001036 $176 53.069246498001036 $171 $252 forward 7 unknown #
coedge $-1 $166 $107 $250 $253 forward $175 $-1 #
coedge $-1 $107 $166 $246 $254 reversed $175 $-1 #
loop $-1 $-1 $173 $230 #
vertex $-1 $108 $255 #
vertex $-1 $108 $256 #
straight-curve $-1 53.069246498001036 0 13.965697602200512 0 1 0 I I #
face $-1 $-1 $257 $25 $-1 $258 reversed single #
loop $-1 $-1 $115 $109 #
plane-surface $-1 0 0 13.965697602200512 0 0 1 1 0 0 forward_v I I I I #
coedge $-1 $259 $260 $261 $262 reversed $110 $-1 #
coedge $-1 $263 $112 $114 $189 forward $69 $-1 #
coedge $-1 $112 $263 $259 $264 forward $69 $-1 #
coedge $-1 $261 $115 $112 $186 forward $180 $-1 #
edge $-1 $192 -8.9452041870765413 $265 0.85341913790145441 $185 $266 forward 7 unknown #
coedge $-1 $267 $268 $113 $188 forward $257 $-1 #
edge $-1 $269 -74.614088002225628 $191 -61.157068654224268 $187 $270 forward 7 unknown #
edge $-1 $192 85.626589966392103 $269 106.1384929960021 $114 $271 forward 7 unknown #
coedge $-1 $115 $261 $267 $272 forward $180 $-1 #
vertex $-1 $188 $273 #
vertex $-1 $116 $274 #
straight-curve $-1 21.299313619941927 12.991096711664085 13.965697602200507 -1 0 0 I I #
coedge $-1 $194 $194 $-1 $275 reversed $119 $-1 #
edge $-1 $276 0 $276 6.2831853071796004 $120 $277 forward 7 unknown #
vertex $-1 $123 $278 #
ellipse-curve $-1 45.328981706605973 5.1521980516816868 7.2371879281998233 0.6560590369687036 0 0.75470957328743171 0.18867739332185793 0 -0.1640147592421759 1 I I #
coedge $-1 $198 $198 $-1 $279 reversed $126 $-1 #
edge $-1 $280 0 $280 6.2831853071796004 $127 $281 forward 7 unknown #
vertex $-1 $130 $282 #
ellipse-curve $-1 45.328981706605973 8.0917850491750869 7.2371879281998233 0.6560590369687036 0 0.75470957328743171 0.18867739332185793 0 -0.1640147592421759 1 I I #
coedge $-1 $202 $202 $-1 $283 reversed $133 $-1 #
edge $-1 $284 0 $284 6.2831853071796004 $134 $285 forward 7 unknown #
vertex $-1 $137 $286 #
ellipse-curve $-1 45.328981706605973 11.031372046668487 7.2371879281998233 0.6560590369687036 0 0.75470957328743171 0.18867739332185793 0 -0.1640147592421759 1 I I #
face $-1 $-1 $218 $29 $-1 $287 forward single #
loop $-1 $-1 $288 $138 #
plane-surface $-1 -53.069246498001036 0 0 1 0 0 0 0 -1 forward_v I I I I #
coedge $-1 $289 $290 $291 $292 reversed $139 $-1 #
coedge $-1 $293 $141 $143 $216 forward $88 $-1 #
coedge $-1 $141 $293 $289 $294 forward $88 $-1 #
coedge $-1 $291 $144 $141 $213 forward $218 $-1 #
edge $-1 $220 -13.13515612497353 $295 -4.5396047951177572 $212 $296 forward 7 unknown #
coedge $-1 $297 $298 $142 $215 forward $207 $-1 #
edge $-1 $299 -28.198962768447085 $219 -15.642504724426024 $214 $300 forward 7 unknown #
edge $-1 $220 -14.971859516833034 $299 0 $143 $301 forward 7 unknown #
coedge $-1 $144 $291 $297 $302 forward $218 $-1 #
loop $-1 $-1 $291 $206 #
vertex $-1 $215 $303 #
vertex $-1 $145 $304 #
straight-curve $-1 -71.042238774698149 -21.972536585019174 13.965697602200514 1 0 0 I I #
coedge $-1 $222 $222 $-1 $305 reversed $148 $-1 #
edge $-1 $306 0 $306 6.2831853071796004 $149 $307 forward 7 unknown #
vertex $-1 $152 $308 #
ellipse-curve $-1 -48.992117030455191 -19.516664776488955 7.687468580189984 -0.83867057594974714 0 0.54463902268945019 0.2723195113447251 0 0.41933528797487357 1 I I #
coedge $-1 $226 $226 $-1 $309 reversed $155 $-1 #
edge $-1 $310 0 $310 6.2831853071796004 $156 $311 forward 7 unknown #
vertex $-1 $159 $312 #
ellipse-curve $-1 -48.992117030455191 -15.832857063693623 7.687468580189984 -0.83867057594974714 0 0.54463902268945019 0.2723195113447251 0 0.41933528797487357 1 I I #
face $-1 $-1 $175 $24 $-1 $313 reversed single #
loop $-1 $-1 $246 $160 #
plane-surface $-1 0 36.232591970744359 0 0 -1 0 0 0 -1 forward_v I I I I #
coedge $-1 $314 $244 $247 $315 forward $161 $-1 #
coedge $-1 $250 $163 $164 $238 reversed $102 $-1 #
coedge $-1 $244 $314 $163 $236 reversed $161 $-1 #
edge $-1 $251 -13.965697602200512 $316 13.965697602200512 $235 $317 forward 7 unknown #
coedge $-1 $165 $164 $314 $318 forward $65 $-1 #
edge $-1 $242 -53.069246498001036 $316 53.069246498001036 $234 $319 forward 7 unknown #
coedge $-1 $247 $246 $165 $240 reversed $231 $-1 #
edge $-1 $320 -53.069246498001036 $241 53.069246498001036 $239 $321 forward 7 unknown #
vertex $-1 $167 $322 #
vertex $-1 $253 $323 #
straight-curve $-1 53.069246498001036 0 -13.965697602200512 0 -1 0 I I #
coedge $-1 $233 $235 $168 $245 reversed $161 $-1 #
edge $-1 $248 -36.232591970744359 $251 36.232591970744359 $244 $324 forward 7 unknown #
coedge $-1 $239 $169 $174 $254 forward $231 $-1 #
coedge $-1 $169 $239 $233 $315 reversed $231 $-1 #
vertex $-1 $170 $325 #
straight-curve $-1 0 36.232591970744359 13.965697602200512 -1 0 0 I I #
coedge $-1 $171 $234 $173 $253 reversed $102 $-1 #
vertex $-1 $245 $326 #
straight-curve $-1 0 -36.232591970744359 13.965697602200512 1 0 0 I I #
edge $-1 $176 -13.965697602200512 $242 13.965697602200512 $173 $327 forward 7 unknown #
edge $-1 $177 -13.965697602200512 $241 13.965697602200512 $174 $328 forward 7 unknown #
point $-1 53.069246498001036 -36.232591970744359 13.965697602200512 #
point $-1 53.069246498001036 36.232591970744359 13.965697602200512 #
loop $-1 $-1 $187 $179 #
plane-surface $-1 53.069246498001036 0 0 -1 0 0 0 0 1 forward_v I I I I #
coedge $-1 $260 $182 $184 $264 reversed $110 $-1 #
coedge $-1 $182 $259 $329 $330 reversed $110 $-1 #
coedge $-1 $190 $185 $182 $262 forward $180 $-1 #
edge $-1 $265 16.289403295268983 $331 31.769932878059109 $261 $332 forward 7 unknown #
coedge $-1 $184 $183 $268 $333 reversed $69 $-1 #
edge $-1 $334 -106.1384929960021 $265 -85.626589966392103 $259 $335 forward 7 unknown #
vertex $-1 $186 $336 #
straight-curve $-1 37.588716915210895 4.0458925245875434 13.965697602200521 0 -1 0 I I #
coedge $-1 $329 $187 $190 $272 reversed $257 $-1 #
coedge $-1 $187 $329 $263 $333 forward $257 $-1 #
vertex $-1 $188 $337 #
straight-curve $-1 53.069246498001036 12.991096711664085 75.122766256424782 0 0 1 I I #
straight-curve $-1 -27.034490260382753 12.991096711664085 70.141795754465775 0.75470957328743171 0 -0.6560590369687036 I I #
edge $-1 $331 3.192473386686089 $191 12.991096711664085 $267 $338 forward 7 unknown #
point $-1 53.069246498001036 12.991096711664085 13.965697602200512 #
point $-1 37.58871691521091 12.991096711664085 13.965697602200514 #
edge $-1 $339 1 $339 0 $194 $-1 forward 7 unknown #
vertex $-1 $195 $340 #
ellipse-curve $-1 44.672922669637288 5.1521980516816868 6.4824783549124128 0.6560590369687036 0 0.75470957328743171 0.18867739332185793 0 -0.1640147592421759 1 I I #
point $-1 45.517659099927847 5.1521980516816868 7.0731731689576689 #
edge $-1 $341 1 $341 0 $198 $-1 forward 7 unknown #
vertex $-1 $199 $342 #
ellipse-curve $-1 44.672922669637288 8.0917850491750869 6.4824783549124128 0.6560590369687036 0 0.75470957328743171 0.18867739332185793 0 -0.1640147592421759 1 I I #
point $-1 45.517659099927847 8.0917850491750869 7.0731731689576689 #
edge $-1 $343 1 $343 0 $202 $-1 forward 7 unknown #
vertex $-1 $203 $344 #
ellipse-curve $-1 44.672922669637288 11.031372046668487 6.4824783549124128 0.6560590369687036 0 0.75470957328743171 0.18867739332185793 0 -0.1640147592421759 1 I I #
point $-1 45.517659099927847 11.031372046668487 7.0731731689576689 #
plane-surface $-1 0 0 13.965697602200512 0 0 1 1 0 0 forward_v I I I I #
coedge $-1 $298 $297 $290 $345 forward $207 $-1 #
coedge $-1 $290 $209 $211 $294 reversed $139 $-1 #
coedge $-1 $209 $289 $288 $345 reversed $139 $-1 #
coedge $-1 $217 $212 $209 $292 forward $218 $-1 #
edge $-1 $295 -26.127251211788803 $346 -17.972992276697113 $291 $347 forward 7 unknown #
coedge $-1 $211 $210 $298 $348 reversed $88 $-1 #
edge $-1 $349 0 $295 14.971859516833034 $289 $350 forward 7 unknown #
vertex $-1 $213 $351 #
straight-curve $-1 -44.914987562909353 -8.8373804600456438 13.965697602200512 0 1 0 I I #
coedge $-1 $288 $214 $217 $302 reversed $207 $-1 #
coedge $-1 $214 $288 $293 $348 forward $207 $-1 #
vertex $-1 $215 $352 #
straight-curve $-1 -53.069246498001036 -21.972536585019174 29.608202326626536 0 0 1 I I #
straight-curve $-1 -53.069246498001036 -21.972536585019174 1.4092395581794506 -0.54463902268945019 0 -0.83867057594974714 I I #
edge $-1 $346 13.376985255163401 $219 21.972536585019174 $297 $353 forward 7 unknown #
point $-1 -53.069246498001036 -21.972536585019174 13.965697602200512 #
point $-1 -44.914987562909346 -21.972536585019174 13.965697602200512 #
edge $-1 $354 1 $354 0 $222 $-1 forward 7 unknown #
vertex $-1 $223 $355 #
ellipse-curve $-1 -47.784776421362956 -19.516664776488955 6.9034124462966178 -0.83867057594974714 0 0.54463902268945019 0.2723195113447251 0 0.41933528797487357 1 I I #
point $-1 -48.719797519110472 -19.516664776488955 8.106803868164862 #
edge $-1 $356 1 $356 0 $226 $-1 forward 7 unknown #
vertex $-1 $227 $357 #
ellipse-curve $-1 -47.784776421362956 -15.832857063693623 6.9034124462966178 -0.83867057594974714 0 0.54463902268945019 0.2723195113447251 0 0.41933528797487357 1 I I #
point $-1 -48.719797519110472 -15.832857063693623 8.106803868164862 #
plane-surface $-1 53.069246498001036 0 0 -1 0 0 0 0 1 forward_v I I I I #
coedge $-1 $235 $233 $237 $318 reversed $161 $-1 #
edge $-1 $248 -13.965697602200512 $320 13.965697602200512 $247 $358 forward 7 unknown #
vertex $-1 $318 $359 #
straight-curve $-1 -53.069246498001036 -36.232591970744359 0 0 0 -1 I I #
edge $-1 $316 -36.232591970744359 $320 36.232591970744359 $314 $360 forward 7 unknown #
straight-curve $-1 0 -36.232591970744359 -13.965697602200512 -1 0 0 I I #
vertex $-1 $240 $361 #
straight-curve $-1 0 36.232591970744359 -13.965697602200512 1 0 0 I I #
point $-1 53.069246498001036 36.232591970744359 -13.965697602200512 #
point $-1 53.069246498001036 -36.232591970744359 -13.965697602200512 #
straight-curve $-1 -53.069246498001036 0 13.965697602200512 0 -1 0 I I #
point $-1 -53.069246498001036 36.232591970744359 13.965697602200512 #
point $-1 -53.069246498001036 -36.232591970744359 13.965697602200512 #
straight-curve $-1 53.069246498001036 -36.232591970744359 0 0 0 -1 I I #
straight-curve $-1 53.069246498001036 36.232591970744359 0 0 0 -1 I I #
coedge $-1 $268 $267 $260 $330 forward $257 $-1 #
edge $-1 $331 61.157068654224268 $334 74.614088002225628 $329 $362 forward 7 unknown #
vertex $-1 $272 $363 #
straight-curve $-1 21.299313619941927 3.192473386686089 13.965697602200507 1 0 0 I I #
edge $-1 $334 -0.85341913790145441 $269 8.9452041870765413 $268 $364 forward 7 unknown #
vertex $-1 $333 $365 #
straight-curve $-1 -27.034490260382753 3.192473386686089 70.141795754465775 -0.75470957328743171 0 0.6560590369687036 I I #
point $-1 37.58871691521091 3.192473386686089 13.965697602200514 #
point $-1 53.069246498001036 12.991096711664085 0.50867825419915391 #
straight-curve $-1 53.069246498001036 0 13.965697602200512 0 1 0 I I #
vertex $-1 $275 $366 #
point $-1 44.861600062959141 5.1521980516816868 6.3184635956702371 #
vertex $-1 $279 $367 #
point $-1 44.861600062959141 8.0917850491750869 6.3184635956702371 #
vertex $-1 $283 $368 #
point $-1 44.861600062959141 11.031372046668487 6.3184635956702371 #
edge $-1 $346 15.642504724426024 $349 28.198962768447085 $288 $369 forward 7 unknown #
vertex $-1 $302 $370 #
straight-curve $-1 -71.042238774698149 -13.376985255163401 13.965697602200514 -1 0 0 I I #
edge $-1 $349 4.5396047951177572 $299 13.13515612497353 $298 $371 forward 7 unknown #
vertex $-1 $348 $372 #
straight-curve $-1 -53.069246498001036 -13.376985255163401 1.4092395581794506 0.54463902268945019 0 0.83867057594974714 I I #
point $-1 -44.914987562909346 -13.376985255163401 13.965697602200512 #
point $-1 -53.069246498001036 -21.972536585019174 1.4092395581794506 #
straight-curve $-1 -53.069246498001036 0 13.965697602200512 0 -1 0 I I #
vertex $-1 $305 $373 #
point $-1 -47.51245691001823 -19.516664776488955 7.3227477342714913 #
vertex $-1 $309 $374 #
point $-1 -47.51245691001823 -15.832857063693623 7.3227477342714913 #
straight-curve $-1 -53.069246498001036 36.232591970744359 0 0 0 -1 I I #
point $-1 -53.069246498001036 -36.232591970744359 -13.965697602200512 #
straight-curve $-1 -53.069246498001036 0 -13.965697602200512 0 1 0 I I #
point $-1 -53.069246498001036 36.232591970744359 -13.965697602200512 #
straight-curve $-1 53.069246498001036 3.192473386686089 75.122766256424782 0 0 -1 I I #
point $-1 53.069246498001036 3.192473386686089 13.965697602200512 #
straight-curve $-1 53.069246498001036 4.0458925245875434 0.50867825419916102 0 1 0 I I #
point $-1 53.069246498001036 3.192473386686089 0.50867825419915391 #
point $-1 44.508907910395109 5.1521980516816868 6.2938009615905557 #
point $-1 44.508907910395109 8.0917850491750869 6.2938009615905557 #
point $-1 44.508907910395109 11.031372046668487 6.2938009615905557 #
straight-curve $-1 -53.069246498001036 -13.376985255163401 29.608202326626536 0 0 -1 I I #
point $-1 -53.069246498001036 -13.376985255163401 13.965697602200512 #
straight-curve $-1 -53.069246498001036 -8.8373804600456438 1.4092395581794501 0 -1 0 I I #
point $-1 -53.069246498001036 -13.376985255163401 1.4092395581794506 #
point $-1 -47.365441133388082 -19.516664776488955 6.6310929349518934 #
point $-1 -47.365441133388082 -15.832857063693623 6.6310929349518934 #
End-of-ACIS-data 