500 0 17 0           
7 Unknown 11 ACIS 5.0 NT 24 Thu Mar 25 22:37:24 1999 
-1 9.9999999999999995e-007 1e-010 
body $-1 $17 $-1 $18 #
body $-1 $19 $-1 $20 #
body $-1 $21 $-1 $22 #
body $-1 $23 $-1 $24 #
body $-1 $25 $-1 $26 #
body $-1 $27 $-1 $28 #
body $-1 $29 $-1 $30 #
body $-1 $31 $-1 $32 #
body $-1 $33 $-1 $34 #
body $-1 $35 $-1 $36 #
body $-1 $37 $-1 $38 #
body $-1 $39 $-1 $40 #
body $-1 $41 $-1 $42 #
body $-1 $43 $-1 $44 #
body $-1 $45 $-1 $46 #
body $-1 $47 $-1 $48 #
body $-1 $49 $-1 $50 #
lump $-1 $-1 $51 $0 #
transform $-1 1 0 0 0 1 0 0 0 1 61.904965361491747 38.613947142871105 19.053844635424056 1 rotate no_reflect no_shear #
lump $-1 $-1 $52 $1 #
transform $-1 1 0 0 0 1 0 0 0 1 61.904965361491747 38.613947142871105 19.053844635424056 1 rotate no_reflect no_shear #
lump $-1 $-1 $53 $2 #
transform $-1 1 0 0 0 1 0 0 0 1 61.904965361491747 38.613947142871105 19.053844635424056 1 rotate no_reflect no_shear #
lump $-1 $-1 $54 $3 #
transform $-1 1 0 0 0 1 0 0 0 1 61.904965361491747 38.613947142871105 19.053844635424056 1 rotate no_reflect no_shear #
lump $-1 $-1 $55 $4 #
transform $-1 1 0 0 0 1 0 0 0 1 61.904965361491747 38.613947142871105 19.053844635424056 1 rotate no_reflect no_shear #
lump $-1 $-1 $56 $5 #
transform $-1 1 0 0 0 1 0 0 0 1 61.904965361491747 38.613947142871105 19.053844635424056 1 rotate no_reflect no_shear #
lump $-1 $-1 $57 $6 #
transform $-1 1 0 0 0 1 0 0 0 1 61.904965361491747 38.613947142871105 19.053844635424056 1 rotate no_reflect no_shear #
lump $-1 $-1 $58 $7 #
transform $-1 1 0 0 0 1 0 0 0 1 61.904965361491747 38.613947142871105 19.053844635424056 1 rotate no_reflect no_shear #
lump $-1 $-1 $59 $8 #
transform $-1 1 0 0 0 1 0 0 0 1 61.904965361491747 38.613947142871105 19.053844635424056 1 rotate no_reflect no_shear #
lump $-1 $-1 $60 $9 #
transform $-1 1 0 0 0 1 0 0 0 1 61.904965361491747 38.613947142871105 19.053844635424056 1 rotate no_reflect no_shear #
lump $-1 $-1 $61 $10 #
transform $-1 1 0 0 0 1 0 0 0 1 61.904965361491747 38.613947142871105 19.053844635424056 1 rotate no_reflect no_shear #
lump $-1 $-1 $62 $11 #
transform $-1 1 0 0 0 1 0 0 0 1 61.904965361491747 38.613947142871105 19.053844635424056 1 rotate no_reflect no_shear #
lump $-1 $-1 $63 $12 #
transform $-1 1 0 0 0 1 0 0 0 1 61.904965361491747 38.613947142871105 19.053844635424056 1 rotate no_reflect no_shear #
lump $-1 $-1 $64 $13 #
transform $-1 1 0 0 0 1 0 0 0 1 61.904965361491747 38.613947142871105 19.053844635424056 1 rotate no_reflect no_shear #
lump $-1 $-1 $65 $14 #
transform $-1 1 0 0 0 1 0 0 0 1 61.904965361491747 38.613947142871105 19.053844635424056 1 rotate no_reflect no_shear #
lump $-1 $-1 $66 $15 #
transform $-1 1 0 0 0 1 0 0 0 1 61.904965361491747 38.613947142871105 19.053844635424056 1 rotate no_reflect no_shear #
lump $-1 $-1 $67 $16 #
transform $-1 1 0 0 0 1 0 0 0 1 61.904965361491747 38.613947142871105 19.053844635424056 1 rotate no_reflect no_shear #
shell $-1 $-1 $-1 $68 $-1 $17 #
shell $-1 $-1 $-1 $69 $-1 $19 #
shell $-1 $-1 $-1 $70 $-1 $21 #
shell $-1 $-1 $-1 $71 $-1 $23 #
shell $-1 $-1 $-1 $72 $-1 $25 #
shell $-1 $-1 $-1 $73 $-1 $27 #
shell $-1 $-1 $-1 $74 $-1 $29 #
shell $-1 $-1 $-1 $75 $-1 $31 #
shell $-1 $-1 $-1 $76 $-1 $33 #
shell $-1 $-1 $-1 $77 $-1 $35 #
shell $-1 $-1 $-1 $78 $-1 $37 #
shell $-1 $-1 $-1 $79 $-1 $39 #
shell $-1 $-1 $-1 $80 $-1 $41 #
shell $-1 $-1 $-1 $81 $-1 $43 #
shell $-1 $-1 $-1 $82 $-1 $45 #
shell $-1 $-1 $-1 $83 $-1 $47 #
shell $-1 $-1 $-1 $84 $-1 $49 #
face $-1 $85 $86 $51 $-1 $87 forward single #
face $-1 $88 $89 $52 $-1 $90 forward single #
face $-1 $91 $92 $53 $-1 $93 reversed single #
face $-1 $94 $95 $54 $-1 $96 forward single #
face $-1 $97 $98 $55 $-1 $99 forward single #
face $-1 $100 $101 $56 $-1 $102 reversed single #
face $-1 $103 $104 $57 $-1 $105 forward single #
face $-1 $106 $107 $58 $-1 $108 forward single #
face $-1 $109 $110 $59 $-1 $111 reversed single #
face $-1 $112 $113 $60 $-1 $114 forward single #
face $-1 $115 $116 $61 $-1 $117 forward single #
face $-1 $118 $119 $62 $-1 $120 reversed single #
face $-1 $121 $122 $63 $-1 $123 forward single #
face $-1 $124 $125 $64 $-1 $126 forward single #
face $-1 $127 $128 $65 $-1 $129 reversed single #
face $-1 $130 $131 $66 $-1 $132 forward single #
face $-1 $133 $134 $67 $-1 $135 forward single #
face $-1 $136 $137 $51 $-1 $138 reversed single #
loop $-1 $-1 $139 $68 #
plane-surface $-1 0 0 19.053844635424056 0 0 1 1 0 0 forward_v I I I I #
face $-1 $140 $141 $52 $-1 $142 reversed single #
loop $-1 $-1 $143 $69 #
plane-surface $-1 0 -29.160322262101587 15.067438636147841 0 0 1 1 0 0 forward_v I I I I #
face $-1 $144 $145 $53 $-1 $146 reversed single #
loop $-1 $-1 $147 $70 #
plane-surface $-1 -125.67179458405414 24.151875925372494 117.64086955284507 0 1 0 -0.51503808176128008 0 0.85716729658548041 forward_v I I I I #
face $-1 $148 $149 $54 $-1 $150 forward single #
loop $-1 $151 $152 $71 #
cone-surface $-1 -55.048109228166183 28.283896273229253 14.313301190197954 0.51503808176128008 0 -0.85716729658548041 0.85716729658548041 0 0.51503808176128008 1 I I 0 1 1 forward I I I I #
face $-1 $153 $154 $55 $-1 $155 forward single #
loop $-1 $156 $157 $72 #
cone-surface $-1 -55.048109228166183 34.481926795014367 14.313301190197954 0.51503808176128008 0 -0.85716729658548041 0.85716729658548041 0 0.51503808176128008 1 I I 0 1 1 forward I I I I #
face $-1 $158 $159 $56 $-1 $160 reversed single #
loop $-1 $-1 $161 $73 #
plane-surface $-1 95.314417628466373 -5.1265362502812692 175.22839408319226 0 -1 0 -0.82903758062907751 0 -0.55919289150049634 forward_v I I I I #
face $-1 $162 $163 $57 $-1 $164 forward single #
loop $-1 $165 $166 $74 #
cone-surface $-1 55.441144751016068 -12.256344827003609 10.414801018511826 -0.82903758062907751 0 -0.55919289150049634 0.55919289150049634 0 -0.82903758062907751 1 I I 0 1 1 forward I I I I #
face $-1 $167 $168 $58 $-1 $169 forward single #
loop $-1 $170 $171 $75 #
cone-surface $-1 55.441144751016068 -7.9784596809702073 10.414801018511826 -0.82903758062907751 0 -0.55919289150049634 0.55919289150049634 0 -0.82903758062907751 1 I I 0 1 1 forward I I I I #
face $-1 $172 $173 $59 $-1 $174 reversed single #
loop $-1 $-1 $175 $76 #
plane-surface $-1 95.314417628466373 9.4536248807695209 175.22839408319226 0 -1 0 -0.82903758062907751 0 -0.55919289150049634 forward_v I I I I #
face $-1 $176 $177 $60 $-1 $178 forward single #
loop $-1 $179 $180 $77 #
cone-surface $-1 55.441144751016068 2.3238163040471846 10.414801018511826 -0.82903758062907751 0 -0.55919289150049634 0.55919289150049634 0 -0.82903758062907751 1 I I 0 1 1 forward I I I I #
face $-1 $181 $182 $61 $-1 $183 forward single #
loop $-1 $184 $185 $78 #
cone-surface $-1 55.441144751016068 6.60170145008059 10.414801018511826 -0.82903758062907751 0 -0.55919289150049634 0.55919289150049634 0 -0.82903758062907751 1 I I 0 1 1 forward I I I I #
face $-1 $186 $187 $62 $-1 $188 reversed single #
loop $-1 $-1 $189 $79 #
plane-surface $-1 95.314417628466373 24.033786011820315 175.22839408319226 0 -1 0 -0.82903758062907751 0 -0.55919289150049634 forward_v I I I I #
face $-1 $190 $191 $63 $-1 $192 forward single #
loop $-1 $193 $194 $80 #
cone-surface $-1 55.441144751016068 16.903977435097978 10.414801018511826 -0.82903758062907751 0 -0.55919289150049634 0.55919289150049634 0 -0.82903758062907751 1 I I 0 1 1 forward I I I I #
face $-1 $195 $196 $64 $-1 $197 forward single #
loop $-1 $198 $199 $81 #
cone-surface $-1 55.441144751016068 21.181862581131384 10.414801018511826 -0.82903758062907751 0 -0.55919289150049634 0.55919289150049634 0 -0.82903758062907751 1 I I 0 1 1 forward I I I I #
face $-1 $200 $201 $65 $-1 $202 reversed single #
loop $-1 $-1 $203 $82 #
plane-surface $-1 -7.328667795969551 33.623081139165471 105.99476092573097 0.82903758062907751 0 0.55919289150049634 0.55919289150049634 0 -0.82903758062907751 forward_v I I I I #
face $-1 $204 $205 $66 $-1 $206 forward single #
loop $-1 $207 $208 $83 #
cone-surface $-1 55.441144751016068 31.484138566148765 10.414801018511826 -0.82903758062907751 0 -0.55919289150049634 0.55919289150049634 0 -0.82903758062907751 1 I I 0 1 1 forward I I I I #
face $-1 $209 $210 $67 $-1 $211 forward single #
loop $-1 $212 $213 $84 #
cone-surface $-1 55.441144751016068 35.762023712182177 10.414801018511826 -0.82903758062907751 0 -0.55919289150049634 0.55919289150049634 0 -0.82903758062907751 1 I I 0 1 1 forward I I I I #
face $-1 $214 $215 $51 $-1 $216 reversed single #
loop $-1 $-1 $217 $85 #
plane-surface $-1 0 0 -19.053844635424056 0 0 1 1 0 0 forward_v I I I I #
coedge $-1 $218 $219 $220 $221 forward $86 $-1 #
face $-1 $222 $223 $52 $-1 $224 reversed single #
loop $-1 $-1 $225 $88 #
plane-surface $-1 0 -29.160322262101587 8.4199048032293362 0 0 1 1 0 0 forward_v I I I I #
coedge $-1 $226 $227 $228 $229 reversed $89 $-1 #
face $-1 $230 $231 $53 $-1 $232 forward single #
loop $-1 $-1 $233 $91 #
plane-surface $-1 -61.904965361491747 31.382911534121796 11.515045944589701 -0.51503808176128008 0 0.85716729658548041 0.85716729658548041 0 0.51503808176128008 forward_v I I I I #
coedge $-1 $234 $235 $236 $237 reversed $92 $-1 #
face $-1 $-1 $238 $54 $-1 $239 forward single #
loop $-1 $240 $241 $94 #
cone-surface $-1 -54.207067931744731 28.283896273229253 12.913573442096279 0.51503808176128008 0 -0.85716729658548041 0.4285836482927402 0 0.25751904088064004 1 I I -0.70710678118654746 0.70710678118654746 0.5 forward I I I I #
loop $-1 $-1 $242 $71 #
coedge $-1 $152 $152 $243 $244 reversed $95 $-1 #
face $-1 $-1 $245 $55 $-1 $246 forward single #
loop $-1 $247 $248 $97 #
cone-surface $-1 -54.207067931744731 34.481926795014367 12.913573442096279 0.51503808176128008 0 -0.85716729658548041 0.4285836482927402 0 0.25751904088064004 1 I I -0.70710678118654746 0.70710678118654746 0.5 forward I I I I #
loop $-1 $-1 $249 $72 #
coedge $-1 $157 $157 $250 $251 reversed $98 $-1 #
face $-1 $252 $253 $56 $-1 $254 reversed single #
loop $-1 $-1 $255 $100 #
plane-surface $-1 -7.328667795969551 -10.117402253986906 105.99476092573097 0.82903758062907751 0 0.55919289150049634 0.55919289150049634 0 -0.82903758062907751 forward_v I I I I #
coedge $-1 $256 $257 $258 $259 reversed $101 $-1 #
face $-1 $-1 $260 $57 $-1 $261 forward single #
loop $-1 $262 $263 $103 #
cone-surface $-1 53.858428592226971 -12.256344827003609 9.3472455229138376 -0.82903758062907751 0 -0.55919289150049634 0.27959644575024817 0 -0.41451879031453875 1 I I -0.70710678118654746 0.70710678118654746 0.5 forward I I I I #
loop $-1 $-1 $264 $74 #
coedge $-1 $166 $166 $265 $266 reversed $104 $-1 #
face $-1 $-1 $267 $58 $-1 $268 forward single #
loop $-1 $269 $270 $106 #
cone-surface $-1 53.858428592226971 -7.9784596809702073 9.3472455229138376 -0.82903758062907751 0 -0.55919289150049634 0.27959644575024817 0 -0.41451879031453875 1 I I -0.70710678118654746 0.70710678118654746 0.5 forward I I I I #
loop $-1 $-1 $271 $75 #
coedge $-1 $171 $171 $272 $273 reversed $107 $-1 #
face $-1 $274 $275 $59 $-1 $276 reversed single #
loop $-1 $-1 $277 $109 #
plane-surface $-1 -7.328667795969551 4.4627588770638837 105.99476092573097 0.82903758062907751 0 0.55919289150049634 0.55919289150049634 0 -0.82903758062907751 forward_v I I I I #
coedge $-1 $278 $279 $280 $281 reversed $110 $-1 #
face $-1 $-1 $282 $60 $-1 $283 forward single #
loop $-1 $284 $285 $112 #
cone-surface $-1 53.858428592226971 2.3238163040471846 9.3472455229138376 -0.82903758062907751 0 -0.55919289150049634 0.27959644575024817 0 -0.41451879031453875 1 I I -0.70710678118654746 0.70710678118654746 0.5 forward I I I I #
loop $-1 $-1 $286 $77 #
coedge $-1 $180 $180 $287 $288 reversed $113 $-1 #
face $-1 $-1 $289 $61 $-1 $290 forward single #
loop $-1 $291 $292 $115 #
cone-surface $-1 53.858428592226971 6.60170145008059 9.3472455229138376 -0.82903758062907751 0 -0.55919289150049634 0.27959644575024817 0 -0.41451879031453875 1 I I -0.70710678118654746 0.70710678118654746 0.5 forward I I I I #
loop $-1 $-1 $293 $78 #
coedge $-1 $185 $185 $294 $295 reversed $116 $-1 #
face $-1 $296 $297 $62 $-1 $298 reversed single #
loop $-1 $-1 $299 $118 #
plane-surface $-1 -7.328667795969551 19.042920008114677 105.99476092573097 0.82903758062907751 0 0.55919289150049634 0.55919289150049634 0 -0.82903758062907751 forward_v I I I I #
coedge $-1 $300 $301 $302 $303 reversed $119 $-1 #
face $-1 $-1 $304 $63 $-1 $305 forward single #
loop $-1 $306 $307 $121 #
cone-surface $-1 53.858428592226971 16.903977435097978 9.3472455229138376 -0.82903758062907751 0 -0.55919289150049634 0.27959644575024817 0 -0.41451879031453875 1 I I -0.70710678118654746 0.70710678118654746 0.5 forward I I I I #
loop $-1 $-1 $308 $80 #
coedge $-1 $194 $194 $309 $310 reversed $122 $-1 #
face $-1 $-1 $311 $64 $-1 $312 forward single #
loop $-1 $313 $314 $124 #
cone-surface $-1 53.858428592226971 21.181862581131384 9.3472455229138376 -0.82903758062907751 0 -0.55919289150049634 0.27959644575024817 0 -0.41451879031453875 1 I I -0.70710678118654746 0.70710678118654746 0.5 forward I I I I #
loop $-1 $-1 $315 $81 #
coedge $-1 $199 $199 $316 $317 reversed $125 $-1 #
face $-1 $318 $319 $65 $-1 $320 reversed single #
loop $-1 $-1 $321 $127 #
plane-surface $-1 95.314417628466373 28.632215135459834 175.22839408319226 0 1 0 0.82903758062907751 0 0.55919289150049634 forward_v I I I I #
coedge $-1 $322 $323 $324 $325 reversed $128 $-1 #
face $-1 $-1 $326 $66 $-1 $327 forward single #
loop $-1 $328 $329 $130 #
cone-surface $-1 53.858428592226971 31.484138566148765 9.3472455229138376 -0.82903758062907751 0 -0.55919289150049634 0.27959644575024817 0 -0.41451879031453875 1 I I -0.70710678118654746 0.70710678118654746 0.5 forward I I I I #
loop $-1 $-1 $330 $83 #
coedge $-1 $208 $208 $331 $332 reversed $131 $-1 #
face $-1 $-1 $333 $67 $-1 $334 forward single #
loop $-1 $335 $336 $133 #
cone-surface $-1 53.858428592226971 35.762023712182177 9.3472455229138376 -0.82903758062907751 0 -0.55919289150049634 0.27959644575024817 0 -0.41451879031453875 1 I I -0.70710678118654746 0.70710678118654746 0.5 forward I I I I #
loop $-1 $-1 $337 $84 #
coedge $-1 $213 $213 $338 $339 reversed $134 $-1 #
face $-1 $340 $341 $51 $-1 $342 reversed single #
loop $-1 $-1 $343 $136 #
plane-surface $-1 0 -38.613947142871105 0 0 1 0 0 0 1 forward_v I I I I #
coedge $-1 $344 $345 $346 $347 forward $137 $-1 #
coedge $-1 $348 $139 $349 $350 forward $86 $-1 #
coedge $-1 $139 $348 $351 $352 forward $86 $-1 #
coedge $-1 $353 $354 $139 $221 reversed $355 $-1 #
edge $-1 $356 -38.613947142871105 $357 38.613947142871105 $220 $358 forward 7 unknown #
face $-1 $359 $360 $52 $-1 $361 reversed single #
loop $-1 $-1 $362 $140 #
plane-surface $-1 0 -19.70669738133207 11.743671719688589 0 -1 0 0 0 -1 forward_v I I I I #
coedge $-1 $363 $364 $365 $366 reversed $141 $-1 #
coedge $-1 $367 $143 $368 $369 forward $89 $-1 #
coedge $-1 $143 $367 $370 $371 reversed $89 $-1 #
coedge $-1 $372 $373 $143 $229 forward $374 $-1 #
edge $-1 $375 5.1265362502812764 $376 24.033786011820311 $228 $377 forward 7 unknown #
face $-1 $378 $379 $53 $-1 $380 reversed single #
loop $-1 $-1 $236 $144 #
plane-surface $-1 0 0 19.053844635424056 0 0 1 1 0 0 forward_v I I I I #
coedge $-1 $381 $382 $383 $384 reversed $145 $-1 #
coedge $-1 $235 $147 $385 $386 reversed $92 $-1 #
coedge $-1 $147 $234 $381 $387 reversed $92 $-1 #
coedge $-1 $383 $388 $147 $237 forward $231 $-1 #
edge $-1 $389 0.93093193053532275 $390 13.477599686104867 $236 $391 forward 7 unknown #
loop $-1 $-1 $243 $148 #
plane-surface $-1 -61.904965361491747 31.382911534121796 11.515045944589701 -0.51503808176128008 0 0.85716729658548041 0.85716729658548041 0 0.51503808176128008 forward_v I I I I #
loop $-1 $-1 $392 $94 #
coedge $-1 $241 $241 $242 $393 reversed $149 $-1 #
coedge $-1 $242 $242 $241 $393 forward $151 $-1 #
coedge $-1 $243 $243 $152 $244 forward $238 $-1 #
edge $-1 $394 0 $394 6.2831853071796004 $243 $395 forward 7 unknown #
loop $-1 $-1 $250 $153 #
plane-surface $-1 -61.904965361491747 31.382911534121796 11.515045944589701 -0.51503808176128008 0 0.85716729658548041 0.85716729658548041 0 0.51503808176128008 forward_v I I I I #
loop $-1 $-1 $396 $97 #
coedge $-1 $248 $248 $249 $397 reversed $154 $-1 #
coedge $-1 $249 $249 $248 $397 forward $156 $-1 #
coedge $-1 $250 $250 $157 $251 forward $245 $-1 #
edge $-1 $398 0 $398 6.2831853071796004 $250 $399 forward 7 unknown #
face $-1 $400 $401 $56 $-1 $402 reversed single #
loop $-1 $-1 $403 $158 #
plane-surface $-1 95.314417628466373 -15.108268257692544 175.22839408319226 0 1 0 0.82903758062907751 0 0.55919289150049634 forward_v I I I I #
coedge $-1 $404 $405 $406 $407 reversed $159 $-1 #
coedge $-1 $257 $161 $408 $409 reversed $101 $-1 #
coedge $-1 $161 $256 $404 $410 reversed $101 $-1 #
coedge $-1 $406 $411 $161 $259 forward $412 $-1 #
edge $-1 $413 -14.247756547258561 $414 -3.6565100632562917 $258 $415 forward 7 unknown #
loop $-1 $-1 $265 $162 #
plane-surface $-1 -7.328667795969551 -10.117402253986906 105.99476092573097 0.82903758062907751 0 0.55919289150049634 0.55919289150049634 0 -0.82903758062907751 forward_v I I I I #
loop $-1 $-1 $416 $103 #
coedge $-1 $263 $263 $264 $417 reversed $163 $-1 #
coedge $-1 $264 $264 $263 $417 forward $165 $-1 #
coedge $-1 $265 $265 $166 $266 forward $260 $-1 #
edge $-1 $418 0 $418 6.2831853071796004 $265 $419 forward 7 unknown #
loop $-1 $-1 $272 $167 #
plane-surface $-1 -7.328667795969551 -10.117402253986906 105.99476092573097 0.82903758062907751 0 0.55919289150049634 0.55919289150049634 0 -0.82903758062907751 forward_v I I I I #
loop $-1 $-1 $420 $106 #
coedge $-1 $270 $270 $271 $421 reversed $168 $-1 #
coedge $-1 $271 $271 $270 $421 forward $170 $-1 #
coedge $-1 $272 $272 $171 $273 forward $267 $-1 #
edge $-1 $422 0 $422 6.2831853071796004 $272 $423 forward 7 unknown #
face $-1 $424 $425 $59 $-1 $426 reversed single #
loop $-1 $-1 $427 $172 #
plane-surface $-1 95.314417628466373 -0.52810712664175341 175.22839408319226 0 1 0 0.82903758062907751 0 0.55919289150049634 forward_v I I I I #
coedge $-1 $428 $429 $430 $431 reversed $173 $-1 #
coedge $-1 $279 $175 $432 $433 reversed $110 $-1 #
coedge $-1 $175 $278 $428 $434 reversed $110 $-1 #
coedge $-1 $430 $435 $175 $281 forward $436 $-1 #
edge $-1 $437 -14.247756547258561 $438 -3.6565100632562917 $280 $439 forward 7 unknown #
loop $-1 $-1 $287 $176 #
plane-surface $-1 -7.328667795969551 4.4627588770638837 105.99476092573097 0.82903758062907751 0 0.55919289150049634 0.55919289150049634 0 -0.82903758062907751 forward_v I I I I #
loop $-1 $-1 $440 $112 #
coedge $-1 $285 $285 $286 $441 reversed $177 $-1 #
coedge $-1 $286 $286 $285 $441 forward $179 $-1 #
coedge $-1 $287 $287 $180 $288 forward $282 $-1 #
edge $-1 $442 0 $442 6.2831853071796004 $287 $443 forward 7 unknown #
loop $-1 $-1 $294 $181 #
plane-surface $-1 -7.328667795969551 4.4627588770638837 105.99476092573097 0.82903758062907751 0 0.55919289150049634 0.55919289150049634 0 -0.82903758062907751 forward_v I I I I #
loop $-1 $-1 $444 $115 #
coedge $-1 $292 $292 $293 $445 reversed $182 $-1 #
coedge $-1 $293 $293 $292 $445 forward $184 $-1 #
coedge $-1 $294 $294 $185 $295 forward $289 $-1 #
edge $-1 $446 0 $446 6.2831853071796004 $294 $447 forward 7 unknown #
face $-1 $448 $449 $62 $-1 $450 reversed single #
loop $-1 $-1 $451 $186 #
plane-surface $-1 95.314417628466373 14.05205400440904 175.22839408319226 0 1 0 0.82903758062907751 0 0.55919289150049634 forward_v I I I I #
coedge $-1 $452 $453 $454 $455 reversed $187 $-1 #
coedge $-1 $301 $189 $456 $457 reversed $119 $-1 #
coedge $-1 $189 $300 $452 $458 reversed $119 $-1 #
coedge $-1 $454 $459 $189 $303 forward $460 $-1 #
edge $-1 $461 -14.247756547258561 $462 -3.6565100632562917 $302 $463 forward 7 unknown #
loop $-1 $-1 $309 $190 #
plane-surface $-1 -7.328667795969551 19.042920008114677 105.99476092573097 0.82903758062907751 0 0.55919289150049634 0.55919289150049634 0 -0.82903758062907751 forward_v I I I I #
loop $-1 $-1 $464 $121 #
coedge $-1 $307 $307 $308 $465 reversed $191 $-1 #
coedge $-1 $308 $308 $307 $465 forward $193 $-1 #
coedge $-1 $309 $309 $194 $310 forward $304 $-1 #
edge $-1 $466 0 $466 6.2831853071796004 $309 $467 forward 7 unknown #
loop $-1 $-1 $316 $195 #
plane-surface $-1 -7.328667795969551 19.042920008114677 105.99476092573097 0.82903758062907751 0 0.55919289150049634 0.55919289150049634 0 -0.82903758062907751 forward_v I I I I #
loop $-1 $-1 $468 $124 #
coedge $-1 $314 $314 $315 $469 reversed $196 $-1 #
coedge $-1 $315 $315 $314 $469 forward $198 $-1 #
coedge $-1 $316 $316 $199 $317 forward $311 $-1 #
edge $-1 $470 0 $470 6.2831853071796004 $316 $471 forward 7 unknown #
face $-1 $472 $473 $65 $-1 $474 forward single #
loop $-1 $-1 $475 $200 #
plane-surface $-1 61.904965361491747 0 0 -1 0 0 0 0 1 forward_v I I I I #
coedge $-1 $476 $477 $478 $479 reversed $201 $-1 #
coedge $-1 $480 $203 $481 $482 reversed $128 $-1 #
coedge $-1 $203 $480 $476 $483 forward $128 $-1 #
coedge $-1 $478 $484 $203 $325 forward $473 $-1 #
edge $-1 $485 -21.802406573288376 $486 -11.820674565877098 $324 $487 forward 7 unknown #
loop $-1 $-1 $331 $204 #
plane-surface $-1 -7.328667795969551 33.623081139165471 105.99476092573097 0.82903758062907751 0 0.55919289150049634 0.55919289150049634 0 -0.82903758062907751 forward_v I I I I #
loop $-1 $-1 $488 $130 #
coedge $-1 $329 $329 $330 $489 reversed $205 $-1 #
coedge $-1 $330 $330 $329 $489 forward $207 $-1 #
coedge $-1 $331 $331 $208 $332 forward $326 $-1 #
edge $-1 $490 0 $490 6.2831853071796004 $331 $491 forward 7 unknown #
loop $-1 $-1 $338 $209 #
plane-surface $-1 -7.328667795969551 33.623081139165471 105.99476092573097 0.82903758062907751 0 0.55919289150049634 0.55919289150049634 0 -0.82903758062907751 forward_v I I I I #
loop $-1 $-1 $492 $133 #
coedge $-1 $336 $336 $337 $493 reversed $210 $-1 #
coedge $-1 $337 $337 $336 $493 forward $212 $-1 #
coedge $-1 $338 $338 $213 $339 forward $333 $-1 #
edge $-1 $494 0 $494 6.2831853071796004 $338 $495 forward 7 unknown #
face $-1 $496 $497 $51 $-1 $498 reversed single #
loop $-1 $-1 $499 $214 #
plane-surface $-1 -61.904965361491747 0 0 1 0 0 0 0 -1 forward_v I I I I #
coedge $-1 $500 $351 $501 $502 forward $215 $-1 #
coedge $-1 $503 $217 $500 $504 forward $137 $-1 #
coedge $-1 $217 $503 $505 $506 forward $137 $-1 #
coedge $-1 $354 $353 $217 $347 reversed $355 $-1 #
edge $-1 $507 -38.613947142871105 $508 38.613947142871105 $346 $509 forward 7 unknown #
coedge $-1 $219 $218 $510 $511 forward $86 $-1 #
coedge $-1 $512 $513 $218 $350 reversed $497 $-1 #
edge $-1 $357 -61.904965361491747 $514 61.904965361491747 $349 $515 forward 7 unknown #
coedge $-1 $343 $516 $219 $352 reversed $215 $-1 #
edge $-1 $517 -61.904965361491747 $356 61.904965361491747 $351 $518 forward 7 unknown #
coedge $-1 $346 $220 $516 $519 forward $355 $-1 #
coedge $-1 $220 $346 $512 $520 reversed $355 $-1 #
loop $-1 $-1 $353 $496 #
vertex $-1 $221 $521 #
vertex $-1 $221 $522 #
straight-curve $-1 61.904965361491747 0 19.053844635424056 0 1 0 I I #
face $-1 $523 $524 $52 $-1 $525 reversed single #
loop $-1 $-1 $526 $222 #
plane-surface $-1 -61.904965361491747 0 0 1 0 0 0 0 -1 forward_v I I I I #
coedge $-1 $527 $368 $373 $528 reversed $223 $-1 #
coedge $-1 $529 $225 $530 $531 reversed $141 $-1 #
coedge $-1 $225 $529 $527 $532 forward $141 $-1 #
coedge $-1 $373 $372 $225 $366 forward $374 $-1 #
edge $-1 $533 -24.033786011820311 $534 -5.1265362502812764 $365 $535 forward 7 unknown #
coedge $-1 $227 $226 $526 $536 reversed $89 $-1 #
coedge $-1 $362 $537 $226 $369 reversed $223 $-1 #
edge $-1 $375 -61.904965361491747 $538 61.904965361491747 $368 $539 forward 7 unknown #
coedge $-1 $540 $541 $227 $371 forward $524 $-1 #
edge $-1 $376 -61.904965361491747 $542 61.904965361491747 $370 $543 forward 7 unknown #
coedge $-1 $365 $228 $541 $544 forward $374 $-1 #
coedge $-1 $228 $365 $362 $528 forward $374 $-1 #
loop $-1 $-1 $228 $523 #
vertex $-1 $229 $545 #
vertex $-1 $544 $546 #
straight-curve $-1 61.904965361491747 -14.580161131050794 15.067438636147841 0 -1 0 I I #
face $-1 $-1 $547 $53 $-1 $548 reversed single #
loop $-1 $-1 $549 $230 #
plane-surface $-1 0 38.613947142871105 0 0 -1 0 0 0 -1 forward_v I I I I #
coedge $-1 $550 $233 $235 $387 forward $145 $-1 #
coedge $-1 $233 $550 $549 $551 reversed $145 $-1 #
coedge $-1 $552 $236 $233 $384 forward $231 $-1 #
edge $-1 $390 8.4604201583115959 $553 22.9224913758102 $383 $554 forward 7 unknown #
coedge $-1 $555 $556 $234 $386 forward $547 $-1 #
edge $-1 $557 -47.305388831832836 $389 -39.766590140998481 $385 $558 forward 7 unknown #
edge $-1 $390 -14.63736169770954 $557 0 $235 $559 forward 7 unknown #
coedge $-1 $236 $552 $555 $560 forward $231 $-1 #
vertex $-1 $386 $561 #
vertex $-1 $237 $562 #
straight-curve $-1 -62.83589729202707 24.151875925372494 19.053844635424056 1 0 0 I I #
coedge $-1 $392 $392 $-1 $563 reversed $240 $-1 #
edge $-1 $564 0 $564 6.2831853071796004 $241 $565 forward 7 unknown #
vertex $-1 $244 $566 #
ellipse-curve $-1 -55.631631483706983 28.283896273229253 15.284445290006873 -0.51503808176128008 0 0.85716729658548041 0.85716729658548041 0 0.51503808176128008 1 I I #
coedge $-1 $396 $396 $-1 $567 reversed $247 $-1 #
edge $-1 $568 0 $568 6.2831853071796004 $248 $569 forward 7 unknown #
vertex $-1 $251 $570 #
ellipse-curve $-1 -55.631631483706983 34.481926795014367 15.284445290006873 -0.51503808176128008 0 0.85716729658548041 0.85716729658548041 0 0.51503808176128008 1 I I #
face $-1 $-1 $412 $56 $-1 $571 forward single #
loop $-1 $-1 $572 $252 #
plane-surface $-1 61.904965361491747 0 0 -1 0 0 0 0 1 forward_v I I I I #
coedge $-1 $573 $574 $575 $576 reversed $253 $-1 #
coedge $-1 $577 $255 $257 $410 forward $159 $-1 #
coedge $-1 $255 $577 $573 $578 forward $159 $-1 #
coedge $-1 $575 $258 $255 $407 forward $412 $-1 #
edge $-1 $414 0.067835123287816046 $579 10.04956713069909 $406 $580 forward 7 unknown #
coedge $-1 $581 $582 $256 $409 forward $401 $-1 #
edge $-1 $583 -84.262521540301123 $413 -68.560352406172072 $408 $584 forward 7 unknown #
edge $-1 $414 104.86969266741293 $583 123.80993072298355 $257 $585 forward 7 unknown #
coedge $-1 $258 $575 $581 $586 forward $412 $-1 #
loop $-1 $-1 $575 $400 #
vertex $-1 $409 $587 #
vertex $-1 $259 $588 #
straight-curve $-1 47.657208814233186 -5.1265362502812692 19.053844635424056 -1 0 0 I I #
coedge $-1 $416 $416 $-1 $589 reversed $262 $-1 #
edge $-1 $590 0 $590 6.2831853071796004 $263 $591 forward 7 unknown #
vertex $-1 $266 $592 #
ellipse-curve $-1 56.609342119490606 -12.256344827003609 11.202760068359552 0.82903758062907751 0 0.55919289150049634 0.55919289150049634 0 -0.82903758062907751 1 I I #
coedge $-1 $420 $420 $-1 $593 reversed $269 $-1 #
edge $-1 $594 0 $594 6.2831853071796004 $270 $595 forward 7 unknown #
vertex $-1 $273 $596 #
ellipse-curve $-1 56.609342119490606 -7.9784596809702073 11.202760068359552 0.82903758062907751 0 0.55919289150049634 0.55919289150049634 0 -0.82903758062907751 1 I I #
face $-1 $-1 $436 $59 $-1 $597 forward single #
loop $-1 $-1 $598 $274 #
plane-surface $-1 61.904965361491747 0 0 -1 0 0 0 0 1 forward_v I I I I #
coedge $-1 $599 $600 $601 $602 reversed $275 $-1 #
coedge $-1 $603 $277 $279 $434 forward $173 $-1 #
coedge $-1 $277 $603 $599 $604 forward $173 $-1 #
coedge $-1 $601 $280 $277 $431 forward $436 $-1 #
edge $-1 $438 -7.222245442237579 $605 2.7594865651736953 $430 $606 forward 7 unknown #
coedge $-1 $607 $608 $278 $433 forward $425 $-1 #
edge $-1 $609 -84.262521540301123 $437 -68.560352406172072 $432 $610 forward 7 unknown #
edge $-1 $438 104.86969266741293 $609 123.80993072298355 $279 $611 forward 7 unknown #
coedge $-1 $280 $601 $607 $612 forward $436 $-1 #
loop $-1 $-1 $601 $424 #
vertex $-1 $433 $613 #
vertex $-1 $281 $614 #
straight-curve $-1 47.657208814233186 9.4536248807695209 19.053844635424056 -1 0 0 I I #
coedge $-1 $440 $440 $-1 $615 reversed $284 $-1 #
edge $-1 $616 0 $616 6.2831853071796004 $285 $617 forward 7 unknown #
vertex $-1 $288 $618 #
ellipse-curve $-1 56.609342119490606 2.3238163040471846 11.202760068359552 0.82903758062907751 0 0.55919289150049634 0.55919289150049634 0 -0.82903758062907751 1 I I #
coedge $-1 $444 $444 $-1 $619 reversed $291 $-1 #
edge $-1 $620 0 $620 6.2831853071796004 $292 $621 forward 7 unknown #
vertex $-1 $295 $622 #
ellipse-curve $-1 56.609342119490606 6.60170145008059 11.202760068359552 0.82903758062907751 0 0.55919289150049634 0.55919289150049634 0 -0.82903758062907751 1 I I #
face $-1 $-1 $460 $62 $-1 $623 forward single #
loop $-1 $-1 $624 $296 #
plane-surface $-1 61.904965361491747 0 0 -1 0 0 0 0 1 forward_v I I I I #
coedge $-1 $625 $626 $627 $628 reversed $297 $-1 #
coedge $-1 $629 $299 $301 $458 forward $187 $-1 #
coedge $-1 $299 $629 $625 $630 forward $187 $-1 #
coedge $-1 $627 $302 $299 $455 forward $460 $-1 #
edge $-1 $462 -14.512326007762976 $631 -4.5305940003517016 $454 $632 forward 7 unknown #
coedge $-1 $633 $634 $300 $457 forward $449 $-1 #
edge $-1 $635 -84.262521540301123 $461 -68.560352406172072 $456 $636 forward 7 unknown #
edge $-1 $462 104.86969266741293 $635 123.80993072298355 $301 $637 forward 7 unknown #
coedge $-1 $302 $627 $633 $638 forward $460 $-1 #
loop $-1 $-1 $627 $448 #
vertex $-1 $457 $639 #
vertex $-1 $303 $640 #
straight-curve $-1 47.657208814233186 24.033786011820315 19.053844635424056 -1 0 0 I I #
coedge $-1 $464 $464 $-1 $641 reversed $306 $-1 #
edge $-1 $642 0 $642 6.2831853071796004 $307 $643 forward 7 unknown #
vertex $-1 $310 $644 #
ellipse-curve $-1 56.609342119490606 16.903977435097978 11.202760068359552 0.82903758062907751 0 0.55919289150049634 0.55919289150049634 0 -0.82903758062907751 1 I I #
coedge $-1 $468 $468 $-1 $645 reversed $313 $-1 #
edge $-1 $646 0 $646 6.2831853071796004 $314 $647 forward 7 unknown #
vertex $-1 $317 $648 #
ellipse-curve $-1 56.609342119490606 21.181862581131384 11.202760068359552 0.82903758062907751 0 0.55919289150049634 0.55919289150049634 0 -0.82903758062907751 1 I I #
face $-1 $-1 $649 $65 $-1 $650 reversed single #
loop $-1 $-1 $478 $318 #
plane-surface $-1 0 0 19.053844635424056 0 0 1 1 0 0 forward_v I I I I #
coedge $-1 $651 $652 $477 $653 forward $319 $-1 #
coedge $-1 $477 $321 $323 $483 reversed $201 $-1 #
coedge $-1 $321 $476 $475 $653 reversed $201 $-1 #
coedge $-1 $654 $324 $321 $479 forward $473 $-1 #
edge $-1 $486 3.6565100632562917 $655 14.247756547258561 $478 $656 forward 7 unknown #
coedge $-1 $323 $322 $651 $657 reversed $128 $-1 #
coedge $-1 $658 $659 $322 $482 forward $649 $-1 #
edge $-1 $660 -77.824041176533399 $485 -58.883803120962789 $481 $661 forward 7 unknown #
edge $-1 $662 -123.80993072298355 $486 -104.86969266741293 $476 $663 forward 7 unknown #
coedge $-1 $324 $654 $658 $664 forward $473 $-1 #
vertex $-1 $482 $665 #
vertex $-1 $325 $666 #
straight-curve $-1 51.313718877489478 16.811540569582736 19.053844635424063 0 -1 0 I I #
coedge $-1 $488 $488 $-1 $667 reversed $328 $-1 #
edge $-1 $668 0 $668 6.2831853071796004 $329 $669 forward 7 unknown #
vertex $-1 $332 $670 #
ellipse-curve $-1 56.609342119490606 31.484138566148765 11.202760068359552 0.82903758062907751 0 0.55919289150049634 0.55919289150049634 0 -0.82903758062907751 1 I I #
coedge $-1 $492 $492 $-1 $671 reversed $335 $-1 #
edge $-1 $672 0 $672 6.2831853071796004 $336 $673 forward 7 unknown #
vertex $-1 $339 $674 #
ellipse-curve $-1 56.609342119490606 35.762023712182177 11.202760068359552 0.82903758062907751 0 0.55919289150049634 0.55919289150049634 0 -0.82903758062907751 1 I I #
face $-1 $-1 $355 $51 $-1 $675 reversed single #
loop $-1 $-1 $512 $340 #
plane-surface $-1 0 38.613947142871105 0 0 -1 0 0 0 -1 forward_v I I I I #
coedge $-1 $676 $510 $513 $677 forward $341 $-1 #
coedge $-1 $516 $343 $344 $504 reversed $215 $-1 #
coedge $-1 $510 $676 $343 $502 reversed $341 $-1 #
edge $-1 $517 -19.053844635424056 $678 19.053844635424056 $501 $679 forward 7 unknown #
coedge $-1 $345 $344 $676 $680 forward $137 $-1 #
edge $-1 $508 -61.904965361491747 $678 61.904965361491747 $500 $681 forward 7 unknown #
coedge $-1 $513 $512 $345 $506 reversed $497 $-1 #
edge $-1 $682 -61.904965361491747 $507 61.904965361491747 $505 $683 forward 7 unknown #
vertex $-1 $347 $684 #
vertex $-1 $519 $685 #
straight-curve $-1 61.904965361491747 0 -19.053844635424056 0 -1 0 I I #
coedge $-1 $499 $501 $348 $511 reversed $341 $-1 #
edge $-1 $514 -38.613947142871105 $517 38.613947142871105 $510 $686 forward 7 unknown #
coedge $-1 $505 $349 $354 $520 forward $497 $-1 #
coedge $-1 $349 $505 $499 $677 reversed $497 $-1 #
vertex $-1 $350 $687 #
straight-curve $-1 0 38.613947142871105 19.053844635424056 -1 0 0 I I #
coedge $-1 $351 $500 $353 $519 reversed $215 $-1 #
vertex $-1 $511 $688 #
straight-curve $-1 0 -38.613947142871105 19.053844635424056 1 0 0 I I #
edge $-1 $356 -19.053844635424056 $508 19.053844635424056 $353 $689 forward 7 unknown #
edge $-1 $357 -19.053844635424056 $507 19.053844635424056 $354 $690 forward 7 unknown #
point $-1 61.904965361491747 -38.613947142871105 19.053844635424056 #
point $-1 61.904965361491747 38.613947142871105 19.053844635424056 #
face $-1 $-1 $374 $52 $-1 $691 reversed single #
loop $-1 $-1 $370 $359 #
plane-surface $-1 0 -38.613947142871105 0 0 1 0 0 0 1 forward_v I I I I #
coedge $-1 $692 $693 $367 $536 forward $360 $-1 #
coedge $-1 $537 $362 $364 $532 reversed $223 $-1 #
edge $-1 $534 2.5480689433850419 $375 9.1956027763035468 $373 $694 forward 7 unknown #
coedge $-1 $364 $363 $695 $696 reversed $141 $-1 #
coedge $-1 $541 $540 $363 $531 forward $524 $-1 #
edge $-1 $697 -61.904965361491747 $533 61.904965361491747 $530 $698 forward 7 unknown #
edge $-1 $699 -61.904965361491747 $534 61.904965361491747 $527 $700 forward 7 unknown #
vertex $-1 $531 $701 #
vertex $-1 $366 $702 #
straight-curve $-1 61.904965361491747 -14.580161131050794 8.4199048032293362 0 1 0 I I #
edge $-1 $542 -24.033786011820311 $538 -5.1265362502812764 $526 $703 forward 7 unknown #
coedge $-1 $368 $527 $692 $704 reversed $223 $-1 #
vertex $-1 $536 $705 #
straight-curve $-1 0 -19.70669738133207 15.067438636147841 -1 0 0 I I #
coedge $-1 $530 $370 $693 $706 forward $524 $-1 #
coedge $-1 $370 $530 $372 $544 reversed $524 $-1 #
vertex $-1 $706 $707 #
straight-curve $-1 0 -38.613947142871105 15.067438636147841 -1 0 0 I I #
edge $-1 $376 -15.067438636147841 $533 -8.4199048032293362 $372 $708 forward 7 unknown #
point $-1 61.904965361491747 -19.70669738133207 15.067438636147841 #
point $-1 61.904965361491747 -38.613947142871105 15.067438636147841 #
loop $-1 $-1 $385 $378 #
plane-surface $-1 -61.904965361491747 0 0 1 0 0 0 0 -1 forward_v I I I I #
coedge $-1 $709 $710 $382 $551 forward $379 $-1 #
coedge $-1 $382 $381 $556 $711 reversed $145 $-1 #
edge $-1 $553 8.9287506170070596 $712 23.566112314716598 $549 $713 forward 7 unknown #
coedge $-1 $388 $383 $710 $714 forward $231 $-1 #
vertex $-1 $714 $715 #
straight-curve $-1 -49.358297605922203 15.691455767060898 19.053844635424056 0 1 0 I I #
coedge $-1 $716 $385 $388 $560 reversed $547 $-1 #
coedge $-1 $385 $716 $550 $711 forward $547 $-1 #
vertex $-1 $386 $717 #
straight-curve $-1 -61.904965361491747 24.151875925372494 58.820434776422537 0 0 1 I I #
straight-curve $-1 -61.904965361491747 24.151875925372494 11.515045944589701 -0.85716729658548041 0 -0.51503808176128008 I I #
edge $-1 $718 -38.613947142871105 $389 -24.151875925372494 $555 $719 forward 7 unknown #
point $-1 -61.904965361491747 24.151875925372494 19.053844635424056 #
point $-1 -49.358297605922203 24.151875925372494 19.053844635424056 #
edge $-1 $720 1 $720 0 $392 $-1 forward 7 unknown #
vertex $-1 $393 $721 #
ellipse-curve $-1 -54.464586972625369 28.283896273229253 13.342157090389019 -0.51503808176128008 0 0.85716729658548041 0.85716729658548041 0 0.51503808176128008 1 I I #
point $-1 -54.774464187121517 28.283896273229253 15.799483371768169 #
edge $-1 $722 1 $722 0 $396 $-1 forward 7 unknown #
vertex $-1 $397 $723 #
ellipse-curve $-1 -54.464586972625369 34.481926795014367 13.342157090389019 -0.51503808176128008 0 0.85716729658548041 0.85716729658548041 0 0.51503808176128008 1 I I #
point $-1 -54.774464187121517 34.481926795014367 15.799483371768169 #
plane-surface $-1 0 0 19.053844635424056 0 0 1 1 0 0 forward_v I I I I #
coedge $-1 $582 $581 $574 $724 forward $401 $-1 #
coedge $-1 $574 $403 $405 $578 reversed $253 $-1 #
coedge $-1 $403 $573 $572 $724 reversed $253 $-1 #
coedge $-1 $411 $406 $403 $576 forward $412 $-1 #
edge $-1 $579 3.6565100632562917 $725 14.247756547258561 $575 $726 forward 7 unknown #
coedge $-1 $405 $404 $582 $727 reversed $159 $-1 #
edge $-1 $728 -123.80993072298355 $579 -104.86969266741293 $573 $729 forward 7 unknown #
vertex $-1 $407 $730 #
straight-curve $-1 51.313718877489478 -5.0587011269934532 19.053844635424063 0 -1 0 I I #
coedge $-1 $572 $408 $411 $586 reversed $401 $-1 #
coedge $-1 $408 $572 $577 $727 forward $401 $-1 #
vertex $-1 $409 $731 #
straight-curve $-1 61.904965361491747 -5.1265362502812692 87.614197041596128 0 0 1 I I #
straight-curve $-1 -7.328667795969551 -5.1265362502812692 105.99476092573097 0.55919289150049634 0 -0.82903758062907751 I I #
edge $-1 $725 -15.108268257692544 $413 -5.1265362502812692 $581 $732 forward 7 unknown #
point $-1 61.904965361491747 -5.1265362502812692 19.053844635424056 #
point $-1 51.313718877489478 -5.1265362502812692 19.053844635424056 #
edge $-1 $733 1 $733 0 $416 $-1 forward 7 unknown #
vertex $-1 $417 $734 #
ellipse-curve $-1 54.27294738254151 -12.256344827003609 9.6268419686640865 0.82903758062907751 0 0.55919289150049634 0.55919289150049634 0 -0.82903758062907751 1 I I #
point $-1 57.168535010991114 -12.256344827003609 10.373722487730488 #
edge $-1 $735 1 $735 0 $420 $-1 forward 7 unknown #
vertex $-1 $421 $736 #
ellipse-curve $-1 54.27294738254151 -7.9784596809702073 9.6268419686640865 0.82903758062907751 0 0.55919289150049634 0.55919289150049634 0 -0.82903758062907751 1 I I #
point $-1 57.168535010991114 -7.9784596809702073 10.373722487730488 #
plane-surface $-1 0 0 19.053844635424056 0 0 1 1 0 0 forward_v I I I I #
coedge $-1 $608 $607 $600 $737 forward $425 $-1 #
coedge $-1 $600 $427 $429 $604 reversed $275 $-1 #
coedge $-1 $427 $599 $598 $737 reversed $275 $-1 #
coedge $-1 $435 $430 $427 $602 forward $436 $-1 #
edge $-1 $605 3.6565100632562917 $738 14.247756547258561 $601 $739 forward 7 unknown #
coedge $-1 $429 $428 $608 $740 reversed $173 $-1 #
edge $-1 $741 -123.80993072298355 $605 -104.86969266741293 $599 $742 forward 7 unknown #
vertex $-1 $431 $743 #
straight-curve $-1 51.313718877489478 2.2313794385319419 19.053844635424063 0 -1 0 I I #
coedge $-1 $598 $432 $435 $612 reversed $425 $-1 #
coedge $-1 $432 $598 $603 $740 forward $425 $-1 #
vertex $-1 $433 $744 #
straight-curve $-1 61.904965361491747 9.4536248807695209 87.614197041596128 0 0 1 I I #
straight-curve $-1 -7.328667795969551 9.4536248807695209 105.99476092573097 0.55919289150049634 0 -0.82903758062907751 I I #
edge $-1 $738 -0.52810712664175341 $437 9.4536248807695209 $607 $745 forward 7 unknown #
point $-1 61.904965361491747 9.4536248807695209 19.053844635424056 #
point $-1 51.313718877489478 9.4536248807695209 19.053844635424056 #
edge $-1 $746 1 $746 0 $440 $-1 forward 7 unknown #
vertex $-1 $441 $747 #
ellipse-curve $-1 54.27294738254151 2.3238163040471846 9.6268419686640865 0.82903758062907751 0 0.55919289150049634 0.55919289150049634 0 -0.82903758062907751 1 I I #
point $-1 57.168535010991114 2.3238163040471846 10.373722487730488 #
edge $-1 $748 1 $748 0 $444 $-1 forward 7 unknown #
vertex $-1 $445 $749 #
ellipse-curve $-1 54.27294738254151 6.60170145008059 9.6268419686640865 0.82903758062907751 0 0.55919289150049634 0.55919289150049634 0 -0.82903758062907751 1 I I #
point $-1 57.168535010991114 6.60170145008059 10.373722487730488 #
plane-surface $-1 0 0 19.053844635424056 0 0 1 1 0 0 forward_v I I I I #
coedge $-1 $634 $633 $626 $750 forward $449 $-1 #
coedge $-1 $626 $451 $453 $630 reversed $297 $-1 #
coedge $-1 $451 $625 $624 $750 reversed $297 $-1 #
coedge $-1 $459 $454 $451 $628 forward $460 $-1 #
edge $-1 $631 3.6565100632562917 $751 14.247756547258561 $627 $752 forward 7 unknown #
coedge $-1 $453 $452 $634 $753 reversed $187 $-1 #
edge $-1 $754 -123.80993072298355 $631 -104.86969266741293 $625 $755 forward 7 unknown #
vertex $-1 $455 $756 #
straight-curve $-1 51.313718877489478 9.5214600040573387 19.053844635424063 0 -1 0 I I #
coedge $-1 $624 $456 $459 $638 reversed $449 $-1 #
coedge $-1 $456 $624 $629 $753 forward $449 $-1 #
vertex $-1 $457 $757 #
straight-curve $-1 61.904965361491747 24.033786011820315 87.614197041596128 0 0 1 I I #
straight-curve $-1 -7.328667795969551 24.033786011820315 105.99476092573097 0.55919289150049634 0 -0.82903758062907751 I I #
edge $-1 $751 14.05205400440904 $461 24.033786011820315 $633 $758 forward 7 unknown #
point $-1 61.904965361491747 24.033786011820315 19.053844635424056 #
point $-1 51.313718877489478 24.033786011820315 19.053844635424056 #
edge $-1 $759 1 $759 0 $464 $-1 forward 7 unknown #
vertex $-1 $465 $760 #
ellipse-curve $-1 54.27294738254151 16.903977435097978 9.6268419686640865 0.82903758062907751 0 0.55919289150049634 0.55919289150049634 0 -0.82903758062907751 1 I I #
point $-1 57.168535010991114 16.903977435097978 10.373722487730488 #
edge $-1 $761 1 $761 0 $468 $-1 forward 7 unknown #
vertex $-1 $469 $762 #
ellipse-curve $-1 54.27294738254151 21.181862581131384 9.6268419686640865 0.82903758062907751 0 0.55919289150049634 0.55919289150049634 0 -0.82903758062907751 1 I I #
point $-1 57.168535010991114 21.181862581131384 10.373722487730488 #
loop $-1 $-1 $481 $472 #
plane-surface $-1 0 38.613947142871105 0 0 -1 0 0 0 -1 forward_v I I I I #
coedge $-1 $763 $475 $480 $657 forward $319 $-1 #
coedge $-1 $475 $763 $654 $764 reversed $319 $-1 #
edge $-1 $655 68.560352406172072 $662 84.262521540301123 $475 $765 forward 7 unknown #
coedge $-1 $484 $478 $652 $764 forward $473 $-1 #
vertex $-1 $764 $766 #
straight-curve $-1 47.657208814233186 28.632215135459834 19.053844635424056 1 0 0 I I #
edge $-1 $662 11.820674565877098 $660 21.802406573288376 $651 $767 forward 7 unknown #
coedge $-1 $659 $481 $484 $664 reversed $649 $-1 #
coedge $-1 $481 $658 $763 $768 forward $649 $-1 #
vertex $-1 $482 $769 #
straight-curve $-1 18.386314747732349 38.613947142871105 67.870730313065962 -0.55919289150049634 0 0.82903758062907751 I I #
vertex $-1 $657 $770 #
straight-curve $-1 -7.328667795969551 28.632215135459834 105.99476092573097 -0.55919289150049634 0 0.82903758062907751 I I #
edge $-1 $771 -61.904965361491747 $485 -51.313718877489478 $658 $772 forward 7 unknown #
point $-1 51.313718877489478 38.613947142871112 19.053844635424056 #
point $-1 51.313718877489478 28.632215135459834 19.053844635424056 #
edge $-1 $773 1 $773 0 $488 $-1 forward 7 unknown #
vertex $-1 $489 $774 #
ellipse-curve $-1 54.27294738254151 31.484138566148765 9.6268419686640865 0.82903758062907751 0 0.55919289150049634 0.55919289150049634 0 -0.82903758062907751 1 I I #
point $-1 57.168535010991114 31.484138566148765 10.373722487730488 #
edge $-1 $775 1 $775 0 $492 $-1 forward 7 unknown #
vertex $-1 $493 $776 #
ellipse-curve $-1 54.27294738254151 35.762023712182177 9.6268419686640865 0.82903758062907751 0 0.55919289150049634 0.55919289150049634 0 -0.82903758062907751 1 I I #
point $-1 57.168535010991114 35.762023712182177 10.373722487730488 #
plane-surface $-1 61.904965361491747 0 0 -1 0 0 0 0 1 forward_v I I I I #
coedge $-1 $501 $499 $503 $680 reversed $341 $-1 #
edge $-1 $514 -19.053844635424056 $682 19.053844635424056 $513 $777 forward 7 unknown #
vertex $-1 $680 $778 #
straight-curve $-1 -61.904965361491747 -38.613947142871105 0 0 0 -1 I I #
edge $-1 $678 -38.613947142871105 $682 38.613947142871105 $676 $779 forward 7 unknown #
straight-curve $-1 0 -38.613947142871105 -19.053844635424056 -1 0 0 I I #
vertex $-1 $506 $780 #
straight-curve $-1 0 38.613947142871105 -19.053844635424056 1 0 0 I I #
point $-1 61.904965361491747 38.613947142871105 -19.053844635424056 #
point $-1 61.904965361491747 -38.613947142871105 -19.053844635424056 #
straight-curve $-1 -61.904965361491747 0 19.053844635424056 0 -1 0 I I #
point $-1 -61.904965361491747 38.613947142871105 19.053844635424056 #
point $-1 -61.904965361491747 -38.613947142871105 19.053844635424056 #
straight-curve $-1 61.904965361491747 -38.613947142871105 0 0 0 -1 I I #
straight-curve $-1 61.904965361491747 38.613947142871105 0 0 0 -1 I I #
plane-surface $-1 61.904965361491747 0 0 -1 0 0 0 0 1 forward_v I I I I #
coedge $-1 $695 $526 $537 $704 forward $360 $-1 #
coedge $-1 $526 $695 $540 $706 reversed $360 $-1 #
straight-curve $-1 61.904965361491747 -19.70669738133207 5.8718358598442943 0 0 1 I I #
coedge $-1 $693 $692 $529 $696 forward $360 $-1 #
edge $-1 $699 5.1265362502812764 $697 24.033786011820311 $695 $781 forward 7 unknown #
vertex $-1 $531 $782 #
straight-curve $-1 0 -38.613947142871105 8.4199048032293362 1 0 0 I I #
vertex $-1 $696 $783 #
straight-curve $-1 0 -19.70669738133207 8.4199048032293362 1 0 0 I I #
point $-1 61.904965361491747 -38.613947142871105 8.4199048032293362 #
point $-1 61.904965361491747 -19.70669738133207 8.4199048032293362 #
straight-curve $-1 -61.904965361491747 -14.580161131050794 15.067438636147841 0 1 0 I I #
edge $-1 $538 -9.1956027763035468 $699 -2.5480689433850419 $692 $784 forward 7 unknown #
point $-1 -61.904965361491747 -19.70669738133207 15.067438636147841 #
edge $-1 $542 -15.067438636147841 $697 -8.4199048032293362 $693 $785 forward 7 unknown #
point $-1 -61.904965361491747 -38.613947142871105 15.067438636147841 #
straight-curve $-1 61.904965361491747 -38.613947142871105 0 0 0 -1 I I #
coedge $-1 $710 $549 $716 $786 reversed $379 $-1 #
coedge $-1 $549 $709 $552 $714 reversed $379 $-1 #
edge $-1 $712 -22.9224913758102 $557 -8.4604201583115959 $556 $787 forward 7 unknown #
vertex $-1 $551 $788 #
straight-curve $-1 -41.704864577656323 38.613947142871105 23.65249122573222 -0.85716729658548041 0 -0.51503808176128008 I I #
edge $-1 $553 49.358297605922203 $718 61.904965361491747 $710 $789 forward 7 unknown #
point $-1 -49.358297605922203 38.613947142871098 19.053844635424056 #
coedge $-1 $556 $555 $709 $786 forward $547 $-1 #
point $-1 -61.904965361491747 24.151875925372494 11.515045944589701 #
vertex $-1 $714 $790 #
straight-curve $-1 -61.904965361491747 0 19.053844635424056 0 -1 0 I I #
vertex $-1 $563 $791 #
point $-1 -53.607419676039889 28.283896273229253 13.8571951721503 #
vertex $-1 $567 $792 #
point $-1 -53.607419676039889 34.481926795014367 13.8571951721503 #
edge $-1 $725 68.560352406172072 $728 84.262521540301123 $572 $793 forward 7 unknown #
vertex $-1 $586 $794 #
straight-curve $-1 47.657208814233186 -15.108268257692544 19.053844635424056 1 0 0 I I #
edge $-1 $728 -10.04956713069909 $583 -0.067835123287816046 $582 $795 forward 7 unknown #
vertex $-1 $727 $796 #
straight-curve $-1 -7.328667795969551 -15.108268257692544 105.99476092573097 -0.55919289150049634 0 0.82903758062907751 I I #
point $-1 51.313718877489478 -15.108268257692544 19.053844635424056 #
point $-1 61.904965361491747 -5.1265362502812692 3.3516755012950057 #
straight-curve $-1 61.904965361491747 0 19.053844635424056 0 1 0 I I #
vertex $-1 $589 $797 #
point $-1 54.832140274042004 -12.256344827003609 8.7978043880350079 #
vertex $-1 $593 $798 #
point $-1 54.832140274042004 -7.9784596809702073 8.7978043880350079 #
edge $-1 $738 68.560352406172072 $741 84.262521540301123 $598 $799 forward 7 unknown #
vertex $-1 $612 $800 #
straight-curve $-1 47.657208814233186 -0.52810712664175341 19.053844635424056 1 0 0 I I #
edge $-1 $741 -2.7594865651736953 $609 7.222245442237579 $608 $801 forward 7 unknown #
vertex $-1 $740 $802 #
straight-curve $-1 -7.328667795969551 -0.52810712664175341 105.99476092573097 -0.55919289150049634 0 0.82903758062907751 I I #
point $-1 51.313718877489478 -0.52810712664175341 19.053844635424056 #
point $-1 61.904965361491747 9.4536248807695209 3.3516755012950057 #
straight-curve $-1 61.904965361491747 0 19.053844635424056 0 1 0 I I #
vertex $-1 $615 $803 #
point $-1 54.832140274042004 2.3238163040471846 8.7978043880350079 #
vertex $-1 $619 $804 #
point $-1 54.832140274042004 6.60170145008059 8.7978043880350079 #
edge $-1 $751 68.560352406172072 $754 84.262521540301123 $624 $805 forward 7 unknown #
vertex $-1 $638 $806 #
straight-curve $-1 47.657208814233186 14.05205400440904 19.053844635424056 1 0 0 I I #
edge $-1 $754 4.5305940003517016 $635 14.512326007762976 $634 $807 forward 7 unknown #
vertex $-1 $753 $808 #
straight-curve $-1 -7.328667795969551 14.05205400440904 105.99476092573097 -0.55919289150049634 0 0.82903758062907751 I I #
point $-1 51.313718877489478 14.05205400440904 19.053844635424056 #
point $-1 61.904965361491747 24.033786011820315 3.3516755012950057 #
straight-curve $-1 61.904965361491747 0 19.053844635424056 0 1 0 I I #
vertex $-1 $641 $809 #
point $-1 54.832140274042004 16.903977435097978 8.7978043880350079 #
vertex $-1 $645 $810 #
point $-1 54.832140274042004 21.181862581131384 8.7978043880350079 #
coedge $-1 $652 $651 $659 $768 reversed $319 $-1 #
edge $-1 $655 28.632215135459834 $771 38.613947142871105 $652 $811 forward 7 unknown #
straight-curve $-1 61.904965361491747 28.632215135459834 87.614197041596128 0 0 -1 I I #
point $-1 61.904965361491747 28.632215135459834 19.053844635424056 #
straight-curve $-1 61.904965361491747 16.811540569582736 3.3516755012949915 0 1 0 I I #
edge $-1 $771 -19.053844635424056 $660 -3.3516755012950057 $763 $812 forward 7 unknown #
point $-1 61.904965361491747 38.613947142871112 3.3516755012950057 #
point $-1 61.904965361491747 28.632215135459834 3.3516755012950057 #
vertex $-1 $764 $813 #
straight-curve $-1 0 38.613947142871105 19.053844635424056 -1 0 0 I I #
vertex $-1 $667 $814 #
point $-1 54.832140274042004 31.484138566148765 8.7978043880350079 #
vertex $-1 $671 $815 #
point $-1 54.832140274042004 35.762023712182177 8.7978043880350079 #
straight-curve $-1 -61.904965361491747 38.613947142871105 0 0 0 -1 I I #
point $-1 -61.904965361491747 -38.613947142871105 -19.053844635424056 #
straight-curve $-1 -61.904965361491747 0 -19.053844635424056 0 1 0 I I #
point $-1 -61.904965361491747 38.613947142871105 -19.053844635424056 #
straight-curve $-1 -61.904965361491747 -14.580161131050794 8.4199048032293362 0 -1 0 I I #
point $-1 -61.904965361491747 -38.613947142871105 8.4199048032293362 #
point $-1 -61.904965361491747 -19.70669738133207 8.4199048032293362 #
straight-curve $-1 -61.904965361491747 -19.70669738133207 5.8718358598442943 0 0 -1 I I #
straight-curve $-1 -61.904965361491747 -38.613947142871105 0 0 0 -1 I I #
edge $-1 $718 -19.053844635424056 $712 -11.515045944589701 $709 $816 forward 7 unknown #
straight-curve $-1 -61.904965361491747 15.691455767060898 11.515045944589698 0 -1 0 I I #
point $-1 -61.904965361491747 38.613947142871098 11.515045944589701 #
straight-curve $-1 0 38.613947142871105 19.053844635424056 -1 0 0 I I #
point $-1 -61.904965361491747 38.613947142871105 19.053844635424056 #
point $-1 -53.949548890864094 28.283896273229253 12.484989793803539 #
point $-1 -53.949548890864094 34.481926795014367 12.484989793803539 #
straight-curve $-1 61.904965361491747 -15.108268257692544 87.614197041596128 0 0 -1 I I #
point $-1 61.904965361491747 -15.108268257692544 19.053844635424056 #
straight-curve $-1 61.904965361491747 -5.0587011269934532 3.3516755012949915 0 1 0 I I #
point $-1 61.904965361491747 -15.108268257692544 3.3516755012950057 #
point $-1 53.443909801912433 -12.256344827003609 9.0676490771635887 #
point $-1 53.443909801912433 -7.9784596809702073 9.0676490771635887 #
straight-curve $-1 61.904965361491747 -0.52810712664175341 87.614197041596128 0 0 -1 I I #
point $-1 61.904965361491747 -0.52810712664175341 19.053844635424056 #
straight-curve $-1 61.904965361491747 2.2313794385319419 3.3516755012949915 0 1 0 I I #
point $-1 61.904965361491747 -0.52810712664175341 3.3516755012950057 #
point $-1 53.443909801912433 2.3238163040471846 9.0676490771635887 #
point $-1 53.443909801912433 6.60170145008059 9.0676490771635887 #
straight-curve $-1 61.904965361491747 14.05205400440904 87.614197041596128 0 0 -1 I I #
point $-1 61.904965361491747 14.05205400440904 19.053844635424056 #
straight-curve $-1 61.904965361491747 9.5214600040573387 3.3516755012949915 0 1 0 I I #
point $-1 61.904965361491747 14.05205400440904 3.3516755012950057 #
point $-1 53.443909801912433 16.903977435097978 9.0676490771635887 #
point $-1 53.443909801912433 21.181862581131384 9.0676490771635887 #
straight-curve $-1 61.904965361491747 0 19.053844635424056 0 1 0 I I #
straight-curve $-1 61.904965361491747 38.613947142871105 0 0 0 -1 I I #
point $-1 61.904965361491747 38.613947142871105 19.053844635424056 #
point $-1 53.443909801912433 31.484138566148765 9.0676490771635887 #
point $-1 53.443909801912433 35.762023712182177 9.0676490771635887 #
straight-curve $-1 -61.904965361491747 38.613947142871105 0 0 0 -1 I I #
End-of-ACIS-data 