500 0 7 0           
7 Unknown 11 ACIS 5.0 NT 24 Fri Mar 26 20:20:30 1999 
-1 9.9999999999999995e-007 1e-010 
body $-1 $7 $-1 $8 #
body $-1 $9 $-1 $10 #
body $-1 $11 $-1 $12 #
body $-1 $13 $-1 $14 #
body $-1 $15 $-1 $16 #
body $-1 $17 $-1 $18 #
body $-1 $19 $-1 $20 #
lump $-1 $-1 $21 $0 #
transform $-1 1 0 0 0 1 0 0 0 1 75.789666432691433 40.655615279215688 8.5543424647527271 1 rotate no_reflect no_shear #
lump $-1 $-1 $22 $1 #
transform $-1 1 0 0 0 1 0 0 0 1 75.789666432691433 40.655615279215688 8.5543424647527271 1 rotate no_reflect no_shear #
lump $-1 $-1 $23 $2 #
transform $-1 1 0 0 0 1 0 0 0 1 75.789666432691433 40.655615279215688 8.5543424647527271 1 rotate no_reflect no_shear #
lump $-1 $-1 $24 $3 #
transform $-1 1 0 0 0 1 0 0 0 1 75.789666432691433 40.655615279215688 8.5543424647527271 1 rotate no_reflect no_shear #
lump $-1 $-1 $25 $4 #
transform $-1 1 0 0 0 1 0 0 0 1 75.789666432691433 40.655615279215688 8.5543424647527271 1 rotate no_reflect no_shear #
lump $-1 $-1 $26 $5 #
transform $-1 1 0 0 0 1 0 0 0 1 75.789666432691433 40.655615279215688 8.5543424647527271 1 rotate no_reflect no_shear #
lump $-1 $-1 $27 $6 #
transform $-1 1 0 0 0 1 0 0 0 1 75.789666432691433 40.655615279215688 8.5543424647527271 1 rotate no_reflect no_shear #
shell $-1 $-1 $-1 $28 $-1 $7 #
shell $-1 $-1 $-1 $29 $-1 $9 #
shell $-1 $-1 $-1 $30 $-1 $11 #
shell $-1 $-1 $-1 $31 $-1 $13 #
shell $-1 $-1 $-1 $32 $-1 $15 #
shell $-1 $-1 $-1 $33 $-1 $17 #
shell $-1 $-1 $-1 $34 $-1 $19 #
face $-1 $35 $36 $21 $-1 $37 forward single #
face $-1 $38 $39 $22 $-1 $40 forward single #
face $-1 $41 $42 $23 $-1 $43 reversed single #
face $-1 $44 $45 $24 $-1 $46 forward single #
face $-1 $47 $48 $25 $-1 $49 forward single #
face $-1 $50 $51 $26 $-1 $52 reversed single #
face $-1 $53 $54 $27 $-1 $55 forward single #
face $-1 $56 $57 $21 $-1 $58 reversed single #
loop $-1 $-1 $59 $28 #
plane-surface $-1 0 0 8.5543424647527271 0 0 1 1 0 0 forward_v I I I I #
face $-1 $60 $61 $22 $-1 $62 reversed single #
loop $-1 $-1 $63 $29 #
plane-surface $-1 -72.05834981102943 0 -1.1477102546028028 0 0 1 1 0 0 forward_v I I I I #
face $-1 $64 $65 $23 $-1 $66 reversed single #
loop $-1 $-1 $67 $30 #
plane-surface $-1 46.878910429756772 93.20913734089865 165.24014553662752 1 0 0 0 -0.71933980857756763 -0.69465836192734942 forward_v I I I I #
face $-1 $68 $69 $24 $-1 $70 forward single #
loop $-1 $71 $72 $31 #
cone-surface $-1 53.439933936828169 35.619811674190018 3.4518777071263718 0 -0.71933980857756763 -0.69465836192734942 2 0 0 1 I I 0 1 2 forward I I I I #
face $-1 $73 $74 $25 $-1 $75 forward single #
loop $-1 $76 $77 $32 #
cone-surface $-1 63.281469197435285 35.619811674190018 3.4518777071263718 0 -0.71933980857756763 -0.69465836192734942 2 0 0 1 I I 0 1 2 forward I I I I #
face $-1 $78 $79 $26 $-1 $80 reversed single #
loop $-1 $-1 $81 $33 #
plane-surface $-1 62.866576352289997 -40.655615279215652 4.5159226539957018 0 -0.57357644374324357 0.81915203911291934 1 0 0 forward_v I I I I #
face $-1 $82 $83 $27 $-1 $84 forward single #
loop $-1 $85 $86 $34 #
cone-surface $-1 62.866576352289997 -37.031899876492261 5.4783246817705304 0 0.57357644374324357 -0.81915203911291934 1 0 0 1 I I 0 1 1 forward I I I I #
face $-1 $87 $88 $21 $-1 $89 reversed single #
loop $-1 $-1 $90 $35 #
plane-surface $-1 0 0 -8.5543424647527271 0 0 1 1 0 0 forward_v I I I I #
coedge $-1 $91 $92 $93 $94 forward $36 $-1 #
face $-1 $95 $96 $22 $-1 $97 reversed single #
loop $-1 $-1 $98 $38 #
plane-surface $-1 -72.05834981102943 0 -5.2922339633626958 0 0 1 1 0 0 forward_v I I I I #
coedge $-1 $99 $100 $101 $102 forward $39 $-1 #
face $-1 $103 $104 $23 $-1 $105 reversed single #
loop $-1 $-1 $106 $41 #
plane-surface $-1 58.360701567131741 -15.827910946801268 59.944294466320216 0 0.71933980857756763 0.69465836192734942 1 0 0 forward_v I I I I #
coedge $-1 $107 $108 $109 $110 reversed $42 $-1 #
face $-1 $-1 $111 $24 $-1 $112 forward single #
loop $-1 $113 $114 $44 #
cone-surface $-1 53.439933936828169 33.293082069651852 1.2049810993431738 0 -0.71933980857756763 -0.69465836192734942 1 0 0 1 I I -0.70710678118654746 0.70710678118654746 1 forward I I I I #
loop $-1 $-1 $115 $31 #
coedge $-1 $72 $72 $116 $117 reversed $45 $-1 #
face $-1 $-1 $118 $25 $-1 $119 forward single #
loop $-1 $120 $121 $47 #
cone-surface $-1 63.281469197435285 33.293082069651852 1.2049810993431738 0 -0.71933980857756763 -0.69465836192734942 1 0 0 1 I I -0.70710678118654746 0.70710678118654746 1 forward I I I I #
loop $-1 $-1 $122 $32 #
coedge $-1 $77 $77 $123 $124 reversed $48 $-1 #
face $-1 $125 $126 $26 $-1 $127 reversed single #
loop $-1 $-1 $128 $50 #
plane-surface $-1 49.943486271888546 -127.59794996911532 128.68244225805003 1 0 0 0 0.57357644374324357 -0.81915203911291934 forward_v I I I I #
coedge $-1 $129 $130 $131 $132 reversed $51 $-1 #
face $-1 $-1 $133 $27 $-1 $134 forward single #
loop $-1 $135 $136 $53 #
cone-surface $-1 62.866576352289997 -36.005126798070449 4.0119407846103847 0 0.57357644374324357 -0.81915203911291934 0.5 0 0 1 I I -0.70710678118654746 0.70710678118654746 0.5 forward I I I I #
loop $-1 $-1 $137 $34 #
coedge $-1 $86 $86 $138 $139 reversed $54 $-1 #
face $-1 $140 $141 $21 $-1 $142 reversed single #
loop $-1 $-1 $143 $56 #
plane-surface $-1 0 -40.655615279215688 0 0 1 0 0 0 1 forward_v I I I I #
coedge $-1 $144 $145 $146 $147 forward $57 $-1 #
coedge $-1 $148 $59 $149 $150 forward $36 $-1 #
coedge $-1 $59 $148 $151 $152 forward $36 $-1 #
coedge $-1 $153 $154 $59 $94 reversed $155 $-1 #
edge $-1 $156 -40.655615279215688 $157 40.655615279215688 $93 $158 forward 7 unknown #
face $-1 $159 $160 $22 $-1 $161 reversed single #
loop $-1 $-1 $162 $60 #
plane-surface $-1 -68.327033189367427 0 -3.2199721089827493 -1 0 0 0 0 1 forward_v I I I I #
coedge $-1 $163 $164 $165 $166 forward $61 $-1 #
coedge $-1 $167 $63 $168 $169 reversed $39 $-1 #
coedge $-1 $63 $167 $170 $171 reversed $39 $-1 #
coedge $-1 $162 $172 $63 $102 reversed $96 $-1 #
edge $-1 $173 -40.655615279215688 $174 40.655615279215688 $101 $175 forward 7 unknown #
face $-1 $176 $177 $23 $-1 $178 forward single #
loop $-1 $-1 $179 $64 #
plane-surface $-1 69.842492704506711 93.20913734089865 165.24014553662752 -1 0 0 0 0.71933980857756763 0.69465836192734942 forward_v I I I I #
coedge $-1 $180 $181 $182 $183 reversed $65 $-1 #
coedge $-1 $108 $67 $184 $185 reversed $42 $-1 #
coedge $-1 $67 $107 $180 $186 reversed $42 $-1 #
coedge $-1 $182 $187 $67 $110 forward $177 $-1 #
edge $-1 $188 5.948953391233637 $189 12.805781009363727 $109 $190 forward 7 unknown #
loop $-1 $-1 $116 $68 #
plane-surface $-1 58.360701567131741 -15.827910946801268 59.944294466320216 0 0.71933980857756763 0.69465836192734942 1 0 0 forward_v I I I I #
loop $-1 $-1 $191 $44 #
coedge $-1 $114 $114 $115 $192 reversed $69 $-1 #
coedge $-1 $115 $115 $114 $192 forward $71 $-1 #
coedge $-1 $116 $116 $72 $117 forward $111 $-1 #
edge $-1 $193 -5.6392707824462073e-017 $193 6.2831853071796004 $116 $194 forward 7 unknown #
loop $-1 $-1 $123 $73 #
plane-surface $-1 58.360701567131741 -15.827910946801268 59.944294466320216 0 0.71933980857756763 0.69465836192734942 1 0 0 forward_v I I I I #
loop $-1 $-1 $195 $47 #
coedge $-1 $121 $121 $122 $196 reversed $74 $-1 #
coedge $-1 $122 $122 $121 $196 forward $76 $-1 #
coedge $-1 $123 $123 $77 $124 forward $118 $-1 #
edge $-1 $197 -5.6392707824462073e-017 $197 6.2831853071796004 $123 $198 forward 7 unknown #
face $-1 $199 $200 $26 $-1 $201 forward single #
loop $-1 $-1 $202 $78 #
plane-surface $-1 0 -40.655615279215688 0 0 1 0 0 0 1 forward_v I I I I #
coedge $-1 $203 $204 $205 $206 reversed $79 $-1 #
coedge $-1 $207 $81 $208 $209 reversed $51 $-1 #
coedge $-1 $81 $207 $203 $210 forward $51 $-1 #
coedge $-1 $205 $211 $81 $132 forward $200 $-1 #
edge $-1 $212 -44.356378256546449 $213 -18.510198095743547 $131 $214 forward 7 unknown #
loop $-1 $-1 $138 $82 #
plane-surface $-1 62.866576352289997 -40.655615279215652 4.5159226539957018 0 -0.57357644374324357 0.81915203911291934 1 0 0 forward_v I I I I #
loop $-1 $-1 $215 $53 #
coedge $-1 $136 $136 $137 $216 reversed $83 $-1 #
coedge $-1 $137 $137 $136 $216 forward $85 $-1 #
coedge $-1 $138 $138 $86 $139 forward $133 $-1 #
edge $-1 $217 1.0951048670321302e-015 $217 6.2831853071796013 $138 $218 forward 7 unknown #
face $-1 $219 $220 $21 $-1 $221 reversed single #
loop $-1 $-1 $222 $87 #
plane-surface $-1 -75.789666432691433 0 0 1 0 0 0 0 -1 forward_v I I I I #
coedge $-1 $223 $151 $224 $225 forward $88 $-1 #
coedge $-1 $226 $90 $223 $227 forward $57 $-1 #
coedge $-1 $90 $226 $228 $229 forward $57 $-1 #
coedge $-1 $154 $153 $90 $147 reversed $155 $-1 #
edge $-1 $230 -40.655615279215688 $231 40.655615279215688 $146 $232 forward 7 unknown #
coedge $-1 $92 $91 $233 $234 forward $36 $-1 #
coedge $-1 $235 $236 $91 $150 reversed $220 $-1 #
edge $-1 $157 -75.789666432691433 $237 75.789666432691433 $149 $238 forward 7 unknown #
coedge $-1 $143 $239 $92 $152 reversed $88 $-1 #
edge $-1 $240 -75.789666432691433 $156 75.789666432691433 $151 $241 forward 7 unknown #
coedge $-1 $146 $93 $239 $242 forward $155 $-1 #
coedge $-1 $93 $146 $235 $243 reversed $155 $-1 #
loop $-1 $-1 $153 $219 #
vertex $-1 $94 $244 #
vertex $-1 $94 $245 #
straight-curve $-1 75.789666432691433 0 8.5543424647527271 0 1 0 I I #
face $-1 $246 $247 $22 $-1 $248 reversed single #
loop $-1 $-1 $249 $95 #
plane-surface $-1 0 -40.655615279215688 0 0 1 0 0 0 1 forward_v I I I I #
coedge $-1 $165 $101 $250 $251 reversed $96 $-1 #
coedge $-1 $252 $98 $249 $253 reversed $61 $-1 #
coedge $-1 $98 $252 $254 $255 reversed $61 $-1 #
coedge $-1 $172 $162 $98 $166 reversed $96 $-1 #
edge $-1 $256 -40.655615279215688 $257 40.655615279215688 $165 $258 forward 7 unknown #
coedge $-1 $100 $99 $259 $260 reversed $39 $-1 #
coedge $-1 $261 $262 $99 $169 forward $263 $-1 #
edge $-1 $264 -39.760491527176718 $174 -32.297858283852712 $168 $265 forward 7 unknown #
coedge $-1 $266 $250 $100 $171 forward $160 $-1 #
edge $-1 $173 32.297858283852712 $267 39.760491527176718 $170 $268 forward 7 unknown #
coedge $-1 $101 $165 $261 $269 reversed $96 $-1 #
vertex $-1 $171 $270 #
vertex $-1 $169 $271 #
straight-curve $-1 -68.327033189367427 0 -1.1477102546028028 0 1 0 I I #
face $-1 $-1 $272 $23 $-1 $273 reversed single #
loop $-1 $-1 $109 $103 #
plane-surface $-1 0 0 8.5543424647527271 0 0 1 1 0 0 forward_v I I I I #
coedge $-1 $274 $275 $276 $277 reversed $104 $-1 #
coedge $-1 $278 $106 $108 $186 forward $65 $-1 #
coedge $-1 $106 $278 $274 $279 forward $65 $-1 #
coedge $-1 $276 $109 $106 $183 forward $177 $-1 #
edge $-1 $189 17.698559646190901 $280 40.66214192094084 $182 $281 forward 7 unknown #
coedge $-1 $282 $283 $107 $185 forward $272 $-1 #
edge $-1 $284 -81.166183327102019 $188 -74.06573030356104 $184 $285 forward 7 unknown #
edge $-1 $189 71.440439398434904 $284 81.311230558431348 $108 $286 forward 7 unknown #
coedge $-1 $109 $276 $282 $287 forward $177 $-1 #
vertex $-1 $185 $288 #
vertex $-1 $110 $289 #
straight-curve $-1 46.878910429756772 46.604568670449325 8.5543424647527218 0 -1 0 I I #
coedge $-1 $191 $191 $-1 $290 reversed $113 $-1 #
edge $-1 $291 0 $291 6.2831853071796004 $114 $292 forward 7 unknown #
vertex $-1 $117 $293 #
ellipse-curve $-1 53.439933936828169 37.227201470150639 5.0041159529822403 0 0.71933980857756763 0.69465836192734942 2 0 0 1 I I #
coedge $-1 $195 $195 $-1 $294 reversed $120 $-1 #
edge $-1 $295 0 $295 6.2831853071796004 $121 $296 forward 7 unknown #
vertex $-1 $124 $297 #
ellipse-curve $-1 63.281469197435285 37.227201470150639 5.0041159529822403 0 0.71933980857756763 0.69465836192734942 2 0 0 1 I I #
face $-1 $-1 $298 $26 $-1 $299 reversed single #
loop $-1 $-1 $205 $125 #
plane-surface $-1 0 0 8.5543424647527271 0 0 1 1 0 0 forward_v I I I I #
coedge $-1 $300 $301 $204 $302 forward $126 $-1 #
coedge $-1 $204 $128 $130 $210 reversed $79 $-1 #
coedge $-1 $128 $203 $202 $302 reversed $79 $-1 #
coedge $-1 $303 $131 $128 $206 forward $200 $-1 #
edge $-1 $213 -28.910820797688501 $304 -23.143359705341972 $205 $305 forward 7 unknown #
coedge $-1 $130 $129 $300 $306 reversed $51 $-1 #
coedge $-1 $307 $308 $129 $209 forward $298 $-1 #
edge $-1 $309 -15.35645165063077 $212 -8.315681662934395 $208 $310 forward 7 unknown #
edge $-1 $311 -4.3366396686408486e-014 $213 7.0407699876963328 $203 $312 forward 7 unknown #
coedge $-1 $131 $303 $307 $313 forward $200 $-1 #
vertex $-1 $209 $314 #
vertex $-1 $132 $315 #
straight-curve $-1 31.433288176144998 -34.888154186869158 8.5543424647527289 -1 0 0 I I #
coedge $-1 $215 $215 $-1 $316 reversed $135 $-1 #
edge $-1 $317 0 $317 6.2831853071796004 $136 $318 forward 7 unknown #
vertex $-1 $139 $319 #
ellipse-curve $-1 62.866576352289997 -37.771884733042434 6.535132559374194 0 -0.57357644374324357 0.81915203911291934 1 0 0 1 I I #
face $-1 $-1 $155 $21 $-1 $320 reversed single #
loop $-1 $-1 $235 $140 #
plane-surface $-1 0 40.655615279215688 0 0 -1 0 0 0 -1 forward_v I I I I #
coedge $-1 $321 $233 $236 $322 forward $141 $-1 #
coedge $-1 $239 $143 $144 $227 reversed $88 $-1 #
coedge $-1 $233 $321 $143 $225 reversed $141 $-1 #
edge $-1 $240 -8.5543424647527271 $323 8.5543424647527271 $224 $324 forward 7 unknown #
coedge $-1 $145 $144 $321 $325 forward $57 $-1 #
edge $-1 $231 -75.789666432691433 $323 75.789666432691433 $223 $326 forward 7 unknown #
coedge $-1 $236 $235 $145 $229 reversed $220 $-1 #
edge $-1 $327 -75.789666432691433 $230 75.789666432691433 $228 $328 forward 7 unknown #
vertex $-1 $147 $329 #
vertex $-1 $242 $330 #
straight-curve $-1 75.789666432691433 0 -8.5543424647527271 0 -1 0 I I #
coedge $-1 $222 $224 $148 $234 reversed $141 $-1 #
edge $-1 $237 -40.655615279215688 $240 40.655615279215688 $233 $331 forward 7 unknown #
coedge $-1 $228 $149 $154 $243 forward $220 $-1 #
coedge $-1 $149 $228 $222 $322 reversed $220 $-1 #
vertex $-1 $150 $332 #
straight-curve $-1 0 40.655615279215688 8.5543424647527271 -1 0 0 I I #
coedge $-1 $151 $223 $153 $242 reversed $88 $-1 #
vertex $-1 $234 $333 #
straight-curve $-1 0 -40.655615279215688 8.5543424647527271 1 0 0 I I #
edge $-1 $156 -8.5543424647527271 $231 8.5543424647527271 $153 $334 forward 7 unknown #
edge $-1 $157 -8.5543424647527271 $230 8.5543424647527271 $154 $335 forward 7 unknown #
point $-1 75.789666432691433 -40.655615279215688 8.5543424647527271 #
point $-1 75.789666432691433 40.655615279215688 8.5543424647527271 #
face $-1 $-1 $263 $22 $-1 $336 reversed single #
loop $-1 $-1 $337 $159 #
plane-surface $-1 -75.789666432691433 0 0 1 0 0 0 0 -1 forward_v I I I I #
coedge $-1 $250 $266 $163 $253 forward $160 $-1 #
coedge $-1 $170 $249 $162 $251 forward $160 $-1 #
edge $-1 $257 -3.6822479088713211 $173 0.46227579988857181 $250 $338 forward 7 unknown #
coedge $-1 $164 $163 $337 $339 reversed $61 $-1 #
edge $-1 $340 -39.760491527176718 $257 -32.297858283852712 $249 $341 forward 7 unknown #
coedge $-1 $262 $261 $164 $255 forward $263 $-1 #
edge $-1 $256 32.297858283852712 $342 39.760491527176718 $254 $343 forward 7 unknown #
vertex $-1 $255 $344 #
vertex $-1 $253 $345 #
straight-curve $-1 -68.327033189367427 0 -5.2922339633626958 0 -1 0 I I #
coedge $-1 $346 $347 $167 $260 forward $247 $-1 #
edge $-1 $267 -40.655615279215688 $264 40.655615279215688 $259 $348 forward 7 unknown #
coedge $-1 $254 $168 $172 $269 forward $263 $-1 #
coedge $-1 $168 $254 $346 $349 reversed $263 $-1 #
loop $-1 $-1 $254 $246 #
vertex $-1 $349 $350 #
straight-curve $-1 -36.029174905514715 40.655615279215688 -1.1477102546028028 1 0 0 I I #
coedge $-1 $249 $170 $347 $351 forward $160 $-1 #
vertex $-1 $351 $352 #
straight-curve $-1 -36.029174905514715 -40.655615279215688 -1.1477102546028028 -1 0 0 I I #
edge $-1 $174 -0.46227579988857181 $256 3.6822479088713211 $261 $353 forward 7 unknown #
point $-1 -68.327033189367427 -40.655615279215688 -1.1477102546028028 #
point $-1 -68.327033189367427 40.655615279215688 -1.1477102546028028 #
loop $-1 $-1 $184 $176 #
plane-surface $-1 0 40.655615279215688 0 0 -1 0 0 0 -1 forward_v I I I I #
coedge $-1 $275 $179 $181 $279 reversed $104 $-1 #
coedge $-1 $179 $274 $354 $355 reversed $104 $-1 #
coedge $-1 $187 $182 $179 $277 forward $177 $-1 #
edge $-1 $280 -12.805781009363727 $356 -5.948953391233637 $276 $357 forward 7 unknown #
coedge $-1 $181 $180 $283 $358 reversed $65 $-1 #
edge $-1 $359 -81.311230558431348 $280 -71.440439398434904 $274 $360 forward 7 unknown #
vertex $-1 $183 $361 #
straight-curve $-1 29.180350783565871 33.798787661085598 8.5543424647527289 1 0 0 I I #
coedge $-1 $354 $184 $187 $287 reversed $272 $-1 #
coedge $-1 $184 $354 $278 $358 forward $272 $-1 #
vertex $-1 $185 $362 #
straight-curve $-1 46.878910429756772 40.655615279215688 82.620072768313761 0 0 1 I I #
straight-curve $-1 46.878910429756772 -15.827910946801268 59.944294466320216 0 0.69465836192734942 -0.71933980857756763 I I #
edge $-1 $356 -69.842492704506711 $188 -46.878910429756772 $282 $363 forward 7 unknown #
point $-1 46.878910429756772 40.655615279215688 8.5543424647527271 #
point $-1 46.878910429756772 33.798787661085598 8.5543424647527289 #
edge $-1 $364 1 $364 0 $191 $-1 forward 7 unknown #
vertex $-1 $192 $365 #
ellipse-curve $-1 53.439933936828169 34.012421878229418 1.8996394612705232 0 0.71933980857756763 0.69465836192734942 2 0 0 1 I I #
point $-1 55.439933936828169 37.227201470150618 5.0041159529822199 #
edge $-1 $366 1 $366 0 $195 $-1 forward 7 unknown #
vertex $-1 $196 $367 #
ellipse-curve $-1 63.281469197435285 34.012421878229418 1.8996394612705232 0 0.71933980857756763 0.69465836192734942 2 0 0 1 I I #
point $-1 65.281469197435285 37.227201470150618 5.0041159529822199 #
loop $-1 $-1 $208 $199 #
plane-surface $-1 75.789666432691433 0 0 -1 0 0 0 0 1 forward_v I I I I #
coedge $-1 $368 $202 $207 $306 forward $126 $-1 #
coedge $-1 $202 $368 $303 $369 reversed $126 $-1 #
edge $-1 $304 55.786878664272287 $311 59.825298475029342 $202 $370 forward 7 unknown #
coedge $-1 $211 $205 $301 $369 forward $200 $-1 #
vertex $-1 $369 $371 #
straight-curve $-1 49.943486271888546 -63.79897498455766 8.5543424647527289 0 -1 0 I I #
edge $-1 $311 18.510198095743547 $309 44.356378256546449 $300 $372 forward 7 unknown #
coedge $-1 $308 $208 $211 $313 reversed $298 $-1 #
coedge $-1 $208 $307 $368 $373 forward $298 $-1 #
vertex $-1 $306 $374 #
straight-curve $-1 75.789666432691433 -28.076346596062535 13.324021580279537 0 0.81915203911291934 0.57357644374324357 I I #
vertex $-1 $306 $375 #
straight-curve $-1 49.943486271888546 -40.655615279215652 4.5159226539957018 0 0.81915203911291934 0.57357644374324357 I I #
edge $-1 $376 -40.655615279215688 $212 -34.888154186869158 $307 $377 forward 7 unknown #
point $-1 75.789666432691448 -34.888154186869158 8.5543424647527271 #
point $-1 49.943486271888546 -34.888154186869158 8.5543424647527271 #
edge $-1 $378 1 $378 0 $215 $-1 forward 7 unknown #
vertex $-1 $216 $379 #
ellipse-curve $-1 62.866576352289997 -36.291915019942074 4.4215168041668447 0 -0.57357644374324357 0.81915203911291934 1 0 0 1 I I #
point $-1 63.866576352289997 -37.771884733042448 6.5351325593742162 #
plane-surface $-1 75.789666432691433 0 0 -1 0 0 0 0 1 forward_v I I I I #
coedge $-1 $224 $222 $226 $325 reversed $141 $-1 #
edge $-1 $237 -8.5543424647527271 $327 8.5543424647527271 $236 $380 forward 7 unknown #
vertex $-1 $325 $381 #
straight-curve $-1 -75.789666432691433 -40.655615279215688 0 0 0 -1 I I #
edge $-1 $323 -40.655615279215688 $327 40.655615279215688 $321 $382 forward 7 unknown #
straight-curve $-1 0 -40.655615279215688 -8.5543424647527271 -1 0 0 I I #
vertex $-1 $229 $383 #
straight-curve $-1 0 40.655615279215688 -8.5543424647527271 1 0 0 I I #
point $-1 75.789666432691433 40.655615279215688 -8.5543424647527271 #
point $-1 75.789666432691433 -40.655615279215688 -8.5543424647527271 #
straight-curve $-1 -75.789666432691433 0 8.5543424647527271 0 -1 0 I I #
point $-1 -75.789666432691433 40.655615279215688 8.5543424647527271 #
point $-1 -75.789666432691433 -40.655615279215688 8.5543424647527271 #
straight-curve $-1 75.789666432691433 -40.655615279215688 0 0 0 -1 I I #
straight-curve $-1 75.789666432691433 40.655615279215688 0 0 0 -1 I I #
plane-surface $-1 0 40.655615279215688 0 0 -1 0 0 0 -1 forward_v I I I I #
coedge $-1 $347 $346 $252 $339 forward $247 $-1 #
straight-curve $-1 -68.327033189367427 -40.655615279215688 -1.6099860544913747 0 0 1 I I #
edge $-1 $342 -40.655615279215688 $340 40.655615279215688 $337 $384 forward 7 unknown #
vertex $-1 $253 $385 #
straight-curve $-1 -36.029174905514715 -40.655615279215688 -5.2922339633626958 1 0 0 I I #
vertex $-1 $255 $386 #
straight-curve $-1 -36.029174905514715 40.655615279215688 -5.2922339633626958 -1 0 0 I I #
point $-1 -68.327033189367427 40.655615279215688 -5.2922339633626958 #
point $-1 -68.327033189367427 -40.655615279215688 -5.2922339633626958 #
coedge $-1 $337 $259 $262 $349 forward $247 $-1 #
coedge $-1 $259 $337 $266 $351 reversed $247 $-1 #
straight-curve $-1 -75.789666432691433 0 -1.1477102546028028 0 1 0 I I #
edge $-1 $264 1.1477102546028028 $342 5.2922339633626958 $262 $387 forward 7 unknown #
point $-1 -75.789666432691433 40.655615279215688 -1.1477102546028028 #
edge $-1 $267 1.1477102546028028 $340 5.2922339633626958 $347 $388 forward 7 unknown #
point $-1 -75.789666432691433 -40.655615279215688 -1.1477102546028028 #
straight-curve $-1 -68.327033189367427 40.655615279215688 -1.6099860544913747 0 0 -1 I I #
coedge $-1 $283 $282 $275 $355 forward $272 $-1 #
edge $-1 $356 74.06573030356104 $359 81.166183327102019 $354 $389 forward 7 unknown #
vertex $-1 $287 $390 #
straight-curve $-1 69.842492704506711 46.604568670449325 8.5543424647527218 0 1 0 I I #
edge $-1 $359 -40.66214192094084 $284 -17.698559646190901 $283 $391 forward 7 unknown #
vertex $-1 $358 $392 #
straight-curve $-1 69.842492704506711 -15.827910946801268 59.944294466320216 0 -0.69465836192734942 0.71933980857756763 I I #
point $-1 69.842492704506711 33.798787661085598 8.5543424647527289 #
point $-1 46.878910429756772 40.655615279215688 1.4538894412117429 #
straight-curve $-1 0 40.655615279215688 8.5543424647527271 -1 0 0 I I #
vertex $-1 $290 $393 #
point $-1 55.439933936828169 34.012421878229418 1.8996394612705232 #
vertex $-1 $294 $394 #
point $-1 65.281469197435285 34.012421878229418 1.8996394612705232 #
coedge $-1 $301 $300 $308 $373 reversed $126 $-1 #
edge $-1 $304 49.943486271888546 $376 75.789666432691433 $301 $395 forward 7 unknown #
straight-curve $-1 49.943486271888546 -40.655615279215688 64.341221129025016 0 0 -1 I I #
point $-1 49.943486271888546 -40.655615279215688 8.5543424647527271 #
straight-curve $-1 31.433288176144998 -40.655615279215688 4.5159226539956734 1 0 0 I I #
edge $-1 $376 -8.5543424647527271 $309 -4.5159226539956769 $308 $396 forward 7 unknown #
point $-1 75.789666432691448 -40.655615279215688 4.5159226539956769 #
point $-1 49.943486271888546 -40.655615279215688 4.5159226539956769 #
vertex $-1 $313 $397 #
straight-curve $-1 75.789666432691433 0 8.5543424647527271 0 1 0 I I #
vertex $-1 $316 $398 #
point $-1 63.866576352289997 -36.291915019942074 4.4215168041668447 #
straight-curve $-1 -75.789666432691433 40.655615279215688 0 0 0 -1 I I #
point $-1 -75.789666432691433 -40.655615279215688 -8.5543424647527271 #
straight-curve $-1 -75.789666432691433 0 -8.5543424647527271 0 1 0 I I #
point $-1 -75.789666432691433 40.655615279215688 -8.5543424647527271 #
straight-curve $-1 -75.789666432691433 0 -5.2922339633626958 0 -1 0 I I #
point $-1 -75.789666432691433 -40.655615279215688 -5.2922339633626958 #
point $-1 -75.789666432691433 40.655615279215688 -5.2922339633626958 #
straight-curve $-1 -75.789666432691433 40.655615279215688 0 0 0 -1 I I #
straight-curve $-1 -75.789666432691433 -40.655615279215688 0 0 0 -1 I I #
straight-curve $-1 69.842492704506711 40.655615279215688 82.620072768313761 0 0 -1 I I #
point $-1 69.842492704506711 40.655615279215688 8.5543424647527271 #
straight-curve $-1 29.180350783565871 40.655615279215688 1.4538894412117394 -1 0 0 I I #
point $-1 69.842492704506711 40.655615279215688 1.4538894412117429 #
point $-1 53.439933936828169 32.573742261074287 0.51032273741582435 #
point $-1 63.281469197435285 32.573742261074287 0.51032273741582435 #
straight-curve $-1 0 -40.655615279215688 8.5543424647527271 1 0 0 I I #
straight-curve $-1 75.789666432691433 -40.655615279215688 0 0 0 -1 I I #
point $-1 75.789666432691433 -40.655615279215688 8.5543424647527271 #
point $-1 62.866576352289997 -35.718338576198825 3.6023647650539252 #
End-of-ACIS-data 