500 0 14 0           
7 Unknown 11 ACIS 5.0 NT 24 Fri Mar 26 15:09:01 1999 
-1 9.9999999999999995e-007 1e-010 
body $-1 $14 $-1 $15 #
body $-1 $16 $-1 $17 #
body $-1 $18 $-1 $19 #
body $-1 $20 $-1 $21 #
body $-1 $22 $-1 $23 #
body $-1 $24 $-1 $25 #
body $-1 $26 $-1 $27 #
body $-1 $28 $-1 $29 #
body $-1 $30 $-1 $31 #
body $-1 $32 $-1 $33 #
body $-1 $34 $-1 $35 #
body $-1 $36 $-1 $37 #
body $-1 $38 $-1 $39 #
body $-1 $40 $-1 $41 #
lump $-1 $-1 $42 $0 #
transform $-1 1 0 0 0 1 0 0 0 1 68.520157475508896 45.028159395256978 12.126010355531088 1 rotate no_reflect no_shear #
lump $-1 $-1 $43 $1 #
transform $-1 1 0 0 0 1 0 0 0 1 68.520157475508896 45.028159395256978 12.126010355531088 1 rotate no_reflect no_shear #
lump $-1 $-1 $44 $2 #
transform $-1 1 0 0 0 1 0 0 0 1 68.520157475508896 45.028159395256978 12.126010355531088 1 rotate no_reflect no_shear #
lump $-1 $-1 $45 $3 #
transform $-1 1 0 0 0 1 0 0 0 1 68.520157475508896 45.028159395256978 12.126010355531088 1 rotate no_reflect no_shear #
lump $-1 $-1 $46 $4 #
transform $-1 1 0 0 0 1 0 0 0 1 68.520157475508896 45.028159395256978 12.126010355531088 1 rotate no_reflect no_shear #
lump $-1 $-1 $47 $5 #
transform $-1 1 0 0 0 1 0 0 0 1 68.520157475508896 45.028159395256978 12.126010355531088 1 rotate no_reflect no_shear #
lump $-1 $-1 $48 $6 #
transform $-1 1 0 0 0 1 0 0 0 1 68.520157475508896 45.028159395256978 12.126010355531088 1 rotate no_reflect no_shear #
lump $-1 $-1 $49 $7 #
transform $-1 1 0 0 0 1 0 0 0 1 68.520157475508896 45.028159395256978 12.126010355531088 1 rotate no_reflect no_shear #
lump $-1 $-1 $50 $8 #
transform $-1 1 0 0 0 1 0 0 0 1 68.520157475508896 45.028159395256978 12.126010355531088 1 rotate no_reflect no_shear #
lump $-1 $-1 $51 $9 #
transform $-1 1 0 0 0 1 0 0 0 1 68.520157475508896 45.028159395256978 12.126010355531088 1 rotate no_reflect no_shear #
lump $-1 $-1 $52 $10 #
transform $-1 1 0 0 0 1 0 0 0 1 68.520157475508896 45.028159395256978 12.126010355531088 1 rotate no_reflect no_shear #
lump $-1 $-1 $53 $11 #
transform $-1 1 0 0 0 1 0 0 0 1 68.520157475508896 45.028159395256978 12.126010355531088 1 rotate no_reflect no_shear #
lump $-1 $-1 $54 $12 #
transform $-1 1 0 0 0 1 0 0 0 1 68.520157475508896 45.028159395256978 12.126010355531088 1 rotate no_reflect no_shear #
lump $-1 $-1 $55 $13 #
transform $-1 1 0 0 0 1 0 0 0 1 68.520157475508896 45.028159395256978 12.126010355531088 1 rotate no_reflect no_shear #
shell $-1 $-1 $-1 $56 $-1 $14 #
shell $-1 $-1 $-1 $57 $-1 $16 #
shell $-1 $-1 $-1 $58 $-1 $18 #
shell $-1 $-1 $-1 $59 $-1 $20 #
shell $-1 $-1 $-1 $60 $-1 $22 #
shell $-1 $-1 $-1 $61 $-1 $24 #
shell $-1 $-1 $-1 $62 $-1 $26 #
shell $-1 $-1 $-1 $63 $-1 $28 #
shell $-1 $-1 $-1 $64 $-1 $30 #
shell $-1 $-1 $-1 $65 $-1 $32 #
shell $-1 $-1 $-1 $66 $-1 $34 #
shell $-1 $-1 $-1 $67 $-1 $36 #
shell $-1 $-1 $-1 $68 $-1 $38 #
shell $-1 $-1 $-1 $69 $-1 $40 #
face $-1 $70 $71 $42 $-1 $72 forward single #
face $-1 $73 $74 $43 $-1 $75 reversed single #
face $-1 $76 $77 $44 $-1 $78 reversed single #
face $-1 $79 $80 $45 $-1 $81 forward single #
face $-1 $82 $83 $46 $-1 $84 forward single #
face $-1 $85 $86 $47 $-1 $87 reversed single #
face $-1 $88 $89 $48 $-1 $90 forward single #
face $-1 $91 $92 $49 $-1 $93 forward single #
face $-1 $94 $95 $50 $-1 $96 reversed single #
face $-1 $97 $98 $51 $-1 $99 forward single #
face $-1 $100 $101 $52 $-1 $102 forward single #
face $-1 $103 $104 $53 $-1 $105 reversed single #
face $-1 $106 $107 $54 $-1 $108 forward single #
face $-1 $109 $110 $55 $-1 $111 forward single #
face $-1 $112 $113 $42 $-1 $114 reversed single #
loop $-1 $-1 $115 $56 #
plane-surface $-1 0 0 12.126010355531088 0 0 1 1 0 0 forward_v I I I I #
face $-1 $116 $117 $43 $-1 $118 reversed single #
loop $-1 $-1 $119 $57 #
plane-surface $-1 -61.843361608465102 0 7.8429200923746869 0 0 1 1 0 0 forward_v I I I I #
face $-1 $120 $121 $44 $-1 $122 reversed single #
loop $-1 $-1 $123 $58 #
plane-surface $-1 98.837827752781195 -31.354763529106606 198.33033599681144 0 -1 0 -0.80901700255871778 0 -0.5877852410284794 forward_v I I I I #
face $-1 $124 $125 $45 $-1 $126 forward single #
loop $-1 $127 $128 $59 #
cone-surface $-1 65.371261725411273 -38.948304838211527 8.6073703121404872 -0.80901700255871778 0 -0.5877852410284794 0.8816778615427191 0 -1.2135255038380768 1 I I 0 1 1.5 forward I I I I #
face $-1 $129 $130 $46 $-1 $131 forward single #
loop $-1 $132 $133 $60 #
cone-surface $-1 65.371261725411273 -34.392180052748571 8.6073703121404872 -0.80901700255871778 0 -0.5877852410284794 0.8816778615427191 0 -1.2135255038380768 1 I I 0 1 1.5 forward I I I I #
face $-1 $134 $135 $47 $-1 $136 reversed single #
loop $-1 $-1 $137 $61 #
plane-surface $-1 98.837827752781195 -8.8406838314781169 198.33033599681144 0 -1 0 -0.80901700255871778 0 -0.5877852410284794 forward_v I I I I #
face $-1 $138 $139 $48 $-1 $140 forward single #
loop $-1 $141 $142 $62 #
cone-surface $-1 65.371261725411273 -16.434225140583038 8.6073703121404872 -0.80901700255871778 0 -0.5877852410284794 0.8816778615427191 0 -1.2135255038380768 1 I I 0 1 1.5 forward I I I I #
face $-1 $143 $144 $49 $-1 $145 forward single #
loop $-1 $146 $147 $63 #
cone-surface $-1 65.371261725411273 -11.878100355120083 8.6073703121404872 -0.80901700255871778 0 -0.5877852410284794 0.8816778615427191 0 -1.2135255038380768 1 I I 0 1 1.5 forward I I I I #
face $-1 $148 $149 $50 $-1 $150 reversed single #
loop $-1 $-1 $151 $64 #
plane-surface $-1 98.837827752781195 13.673395866150372 198.33033599681144 0 -1 0 -0.80901700255871778 0 -0.5877852410284794 forward_v I I I I #
face $-1 $152 $153 $51 $-1 $154 forward single #
loop $-1 $155 $156 $65 #
cone-surface $-1 65.371261725411273 6.0798545570454507 8.6073703121404872 -0.80901700255871778 0 -0.5877852410284794 0.8816778615427191 0 -1.2135255038380768 1 I I 0 1 1.5 forward I I I I #
face $-1 $157 $158 $52 $-1 $159 forward single #
loop $-1 $160 $161 $66 #
cone-surface $-1 65.371261725411273 10.635979342508406 8.6073703121404872 -0.80901700255871778 0 -0.5877852410284794 0.8816778615427191 0 -1.2135255038380768 1 I I 0 1 1.5 forward I I I I #
face $-1 $162 $163 $53 $-1 $164 reversed single #
loop $-1 $-1 $165 $67 #
plane-surface $-1 98.837827752781195 36.187475563778854 198.33033599681144 0 -1 0 -0.80901700255871778 0 -0.5877852410284794 forward_v I I I I #
face $-1 $166 $167 $54 $-1 $168 forward single #
loop $-1 $169 $170 $68 #
cone-surface $-1 65.371261725411273 28.59393425467394 8.6073703121404872 -0.80901700255871778 0 -0.5877852410284794 0.8816778615427191 0 -1.2135255038380768 1 I I 0 1 1.5 forward I I I I #
face $-1 $171 $172 $55 $-1 $173 forward single #
loop $-1 $174 $175 $69 #
cone-surface $-1 65.371261725411273 33.150059040136895 8.6073703121404872 -0.80901700255871778 0 -0.5877852410284794 0.8816778615427191 0 -1.2135255038380768 1 I I 0 1 1.5 forward I I I I #
face $-1 $176 $177 $42 $-1 $178 reversed single #
loop $-1 $-1 $179 $70 #
plane-surface $-1 0 0 -12.126010355531088 0 0 1 1 0 0 forward_v I I I I #
coedge $-1 $180 $181 $182 $183 forward $71 $-1 #
face $-1 $184 $185 $43 $-1 $186 reversed single #
loop $-1 $-1 $187 $73 #
plane-surface $-1 -55.166565741421309 0 9.9844652239528866 -1 0 0 0 0 1 forward_v I I I I #
coedge $-1 $188 $189 $190 $191 forward $74 $-1 #
face $-1 $192 $193 $44 $-1 $194 reversed single #
loop $-1 $-1 $195 $76 #
plane-surface $-1 -12.030117078593861 -36.670242445480049 117.78006144270871 0.80901700255871778 0 0.5877852410284794 0.5877852410284794 0 -0.80901700255871778 forward_v I I I I #
coedge $-1 $196 $197 $198 $199 reversed $77 $-1 #
face $-1 $-1 $200 $45 $-1 $201 forward single #
loop $-1 $202 $203 $79 #
cone-surface $-1 63.509660938768477 -38.948304838211527 7.2548382100772439 -0.80901700255871778 0 -0.5877852410284794 0.44083893077135955 0 -0.60676275191903839 1 I I -0.70710678118654757 0.70710678118654757 0.75 forward I I I I #
loop $-1 $-1 $204 $59 #
coedge $-1 $128 $128 $205 $206 reversed $80 $-1 #
face $-1 $-1 $207 $46 $-1 $208 forward single #
loop $-1 $209 $210 $82 #
cone-surface $-1 63.509660938768477 -34.392180052748571 7.2548382100772439 -0.80901700255871778 0 -0.5877852410284794 0.44083893077135955 0 -0.60676275191903839 1 I I -0.70710678118654757 0.70710678118654757 0.75 forward I I I I #
loop $-1 $-1 $211 $60 #
coedge $-1 $133 $133 $212 $213 reversed $83 $-1 #
face $-1 $214 $215 $47 $-1 $216 reversed single #
loop $-1 $-1 $217 $85 #
plane-surface $-1 -12.030117078593861 -14.15616274785156 117.78006144270871 0.80901700255871778 0 0.5877852410284794 0.5877852410284794 0 -0.80901700255871778 forward_v I I I I #
coedge $-1 $218 $219 $220 $221 reversed $86 $-1 #
face $-1 $-1 $222 $48 $-1 $223 forward single #
loop $-1 $224 $225 $88 #
cone-surface $-1 63.509660938768477 -16.434225140583038 7.2548382100772439 -0.80901700255871778 0 -0.5877852410284794 0.44083893077135955 0 -0.60676275191903839 1 I I -0.70710678118654757 0.70710678118654757 0.75 forward I I I I #
loop $-1 $-1 $226 $62 #
coedge $-1 $142 $142 $227 $228 reversed $89 $-1 #
face $-1 $-1 $229 $49 $-1 $230 forward single #
loop $-1 $231 $232 $91 #
cone-surface $-1 63.509660938768477 -11.878100355120083 7.2548382100772439 -0.80901700255871778 0 -0.5877852410284794 0.44083893077135955 0 -0.60676275191903839 1 I I -0.70710678118654757 0.70710678118654757 0.75 forward I I I I #
loop $-1 $-1 $233 $63 #
coedge $-1 $147 $147 $234 $235 reversed $92 $-1 #
face $-1 $236 $237 $50 $-1 $238 reversed single #
loop $-1 $-1 $239 $94 #
plane-surface $-1 -12.030117078593861 8.3579169497769286 117.78006144270871 0.80901700255871778 0 0.5877852410284794 0.5877852410284794 0 -0.80901700255871778 forward_v I I I I #
coedge $-1 $240 $241 $242 $243 reversed $95 $-1 #
face $-1 $-1 $244 $51 $-1 $245 forward single #
loop $-1 $246 $247 $97 #
cone-surface $-1 63.509660938768477 6.0798545570454507 7.2548382100772439 -0.80901700255871778 0 -0.5877852410284794 0.44083893077135955 0 -0.60676275191903839 1 I I -0.70710678118654757 0.70710678118654757 0.75 forward I I I I #
loop $-1 $-1 $248 $65 #
coedge $-1 $156 $156 $249 $250 reversed $98 $-1 #
face $-1 $-1 $251 $52 $-1 $252 forward single #
loop $-1 $253 $254 $100 #
cone-surface $-1 63.509660938768477 10.635979342508406 7.2548382100772439 -0.80901700255871778 0 -0.5877852410284794 0.44083893077135955 0 -0.60676275191903839 1 I I -0.70710678118654757 0.70710678118654757 0.75 forward I I I I #
loop $-1 $-1 $255 $66 #
coedge $-1 $161 $161 $256 $257 reversed $101 $-1 #
face $-1 $258 $259 $53 $-1 $260 reversed single #
loop $-1 $-1 $261 $103 #
plane-surface $-1 -12.030117078593861 30.87199664740541 117.78006144270871 0.80901700255871778 0 0.5877852410284794 0.5877852410284794 0 -0.80901700255871778 forward_v I I I I #
coedge $-1 $262 $263 $264 $265 reversed $104 $-1 #
face $-1 $-1 $266 $54 $-1 $267 forward single #
loop $-1 $268 $269 $106 #
cone-surface $-1 63.509660938768477 28.59393425467394 7.2548382100772439 -0.80901700255871778 0 -0.5877852410284794 0.44083893077135955 0 -0.60676275191903839 1 I I -0.70710678118654757 0.70710678118654757 0.75 forward I I I I #
loop $-1 $-1 $270 $68 #
coedge $-1 $170 $170 $271 $272 reversed $107 $-1 #
face $-1 $-1 $273 $55 $-1 $274 forward single #
loop $-1 $275 $276 $109 #
cone-surface $-1 63.509660938768477 33.150059040136895 7.2548382100772439 -0.80901700255871778 0 -0.5877852410284794 0.44083893077135955 0 -0.60676275191903839 1 I I -0.70710678118654757 0.70710678118654757 0.75 forward I I I I #
loop $-1 $-1 $277 $69 #
coedge $-1 $175 $175 $278 $279 reversed $110 $-1 #
face $-1 $280 $281 $42 $-1 $282 reversed single #
loop $-1 $-1 $283 $112 #
plane-surface $-1 0 -45.028159395256978 0 0 1 0 0 0 1 forward_v I I I I #
coedge $-1 $284 $285 $286 $287 forward $113 $-1 #
coedge $-1 $288 $115 $289 $290 forward $71 $-1 #
coedge $-1 $115 $288 $291 $292 forward $71 $-1 #
coedge $-1 $293 $294 $115 $183 reversed $295 $-1 #
edge $-1 $296 -45.028159395256978 $297 45.028159395256978 $182 $298 forward 7 unknown #
face $-1 $299 $300 $43 $-1 $301 reversed single #
loop $-1 $-1 $302 $116 #
plane-surface $-1 0 45.028159395256978 0 0 -1 0 0 0 -1 forward_v I I I I #
coedge $-1 $190 $303 $304 $305 reversed $117 $-1 #
coedge $-1 $306 $119 $307 $308 reversed $74 $-1 #
coedge $-1 $119 $306 $309 $310 reversed $74 $-1 #
coedge $-1 $311 $187 $119 $191 reversed $117 $-1 #
edge $-1 $312 -45.028159395256978 $313 45.028159395256978 $190 $314 forward 7 unknown #
face $-1 $315 $316 $44 $-1 $317 forward single #
loop $-1 $-1 $318 $120 #
plane-surface $-1 98.837827752781195 -41.985721361853493 198.33033599681144 0 1 0 0.80901700255871778 0 0.5877852410284794 forward_v I I I I #
coedge $-1 $319 $320 $321 $322 reversed $121 $-1 #
coedge $-1 $197 $123 $323 $324 reversed $77 $-1 #
coedge $-1 $123 $196 $319 $325 reversed $77 $-1 #
coedge $-1 $321 $326 $123 $199 forward $316 $-1 #
edge $-1 $327 -19.101243599118298 $328 -15.313128168370504 $198 $329 forward 7 unknown #
loop $-1 $-1 $205 $124 #
plane-surface $-1 -12.030117078593861 -36.670242445480049 117.78006144270871 0.80901700255871778 0 0.5877852410284794 0.5877852410284794 0 -0.80901700255871778 forward_v I I I I #
loop $-1 $-1 $330 $79 #
coedge $-1 $203 $203 $204 $331 reversed $125 $-1 #
coedge $-1 $204 $204 $203 $331 forward $127 $-1 #
coedge $-1 $205 $205 $128 $206 forward $200 $-1 #
edge $-1 $332 0 $332 6.2831853071796004 $205 $333 forward 7 unknown #
loop $-1 $-1 $212 $129 #
plane-surface $-1 -12.030117078593861 -36.670242445480049 117.78006144270871 0.80901700255871778 0 0.5877852410284794 0.5877852410284794 0 -0.80901700255871778 forward_v I I I I #
loop $-1 $-1 $334 $82 #
coedge $-1 $210 $210 $211 $335 reversed $130 $-1 #
coedge $-1 $211 $211 $210 $335 forward $132 $-1 #
coedge $-1 $212 $212 $133 $213 forward $207 $-1 #
edge $-1 $336 0 $336 6.2831853071796004 $212 $337 forward 7 unknown #
face $-1 $338 $339 $47 $-1 $340 reversed single #
loop $-1 $-1 $341 $134 #
plane-surface $-1 98.837827752781195 -19.471641664225004 198.33033599681144 0 1 0 0.80901700255871778 0 0.5877852410284794 forward_v I I I I #
coedge $-1 $342 $343 $344 $345 reversed $135 $-1 #
coedge $-1 $219 $137 $346 $347 reversed $86 $-1 #
coedge $-1 $137 $218 $342 $348 reversed $86 $-1 #
coedge $-1 $344 $349 $137 $221 forward $350 $-1 #
edge $-1 $351 -19.101243599118298 $352 -15.313128168370504 $220 $353 forward 7 unknown #
loop $-1 $-1 $227 $138 #
plane-surface $-1 -12.030117078593861 -14.15616274785156 117.78006144270871 0.80901700255871778 0 0.5877852410284794 0.5877852410284794 0 -0.80901700255871778 forward_v I I I I #
loop $-1 $-1 $354 $88 #
coedge $-1 $225 $225 $226 $355 reversed $139 $-1 #
coedge $-1 $226 $226 $225 $355 forward $141 $-1 #
coedge $-1 $227 $227 $142 $228 forward $222 $-1 #
edge $-1 $356 0 $356 6.2831853071796004 $227 $357 forward 7 unknown #
loop $-1 $-1 $234 $143 #
plane-surface $-1 -12.030117078593861 -14.15616274785156 117.78006144270871 0.80901700255871778 0 0.5877852410284794 0.5877852410284794 0 -0.80901700255871778 forward_v I I I I #
loop $-1 $-1 $358 $91 #
coedge $-1 $232 $232 $233 $359 reversed $144 $-1 #
coedge $-1 $233 $233 $232 $359 forward $146 $-1 #
coedge $-1 $234 $234 $147 $235 forward $229 $-1 #
edge $-1 $360 0 $360 6.2831853071796004 $234 $361 forward 7 unknown #
face $-1 $362 $363 $50 $-1 $364 reversed single #
loop $-1 $-1 $365 $148 #
plane-surface $-1 98.837827752781195 3.0424380334034851 198.33033599681144 0 1 0 0.80901700255871778 0 0.5877852410284794 forward_v I I I I #
coedge $-1 $366 $367 $368 $369 reversed $149 $-1 #
coedge $-1 $241 $151 $370 $371 reversed $95 $-1 #
coedge $-1 $151 $240 $366 $372 reversed $95 $-1 #
coedge $-1 $368 $373 $151 $243 forward $374 $-1 #
edge $-1 $375 -19.101243599118298 $376 -15.313128168370504 $242 $377 forward 7 unknown #
loop $-1 $-1 $249 $152 #
plane-surface $-1 -12.030117078593861 8.3579169497769286 117.78006144270871 0.80901700255871778 0 0.5877852410284794 0.5877852410284794 0 -0.80901700255871778 forward_v I I I I #
loop $-1 $-1 $378 $97 #
coedge $-1 $247 $247 $248 $379 reversed $153 $-1 #
coedge $-1 $248 $248 $247 $379 forward $155 $-1 #
coedge $-1 $249 $249 $156 $250 forward $244 $-1 #
edge $-1 $380 0 $380 6.2831853071796004 $249 $381 forward 7 unknown #
loop $-1 $-1 $256 $157 #
plane-surface $-1 -12.030117078593861 8.3579169497769286 117.78006144270871 0.80901700255871778 0 0.5877852410284794 0.5877852410284794 0 -0.80901700255871778 forward_v I I I I #
loop $-1 $-1 $382 $100 #
coedge $-1 $254 $254 $255 $383 reversed $158 $-1 #
coedge $-1 $255 $255 $254 $383 forward $160 $-1 #
coedge $-1 $256 $256 $161 $257 forward $251 $-1 #
edge $-1 $384 0 $384 6.2831853071796004 $256 $385 forward 7 unknown #
face $-1 $386 $387 $53 $-1 $388 reversed single #
loop $-1 $-1 $389 $162 #
plane-surface $-1 98.837827752781195 25.556517731031967 198.33033599681144 0 1 0 0.80901700255871778 0 0.5877852410284794 forward_v I I I I #
coedge $-1 $390 $391 $392 $393 reversed $163 $-1 #
coedge $-1 $263 $165 $394 $395 reversed $104 $-1 #
coedge $-1 $165 $262 $390 $396 reversed $104 $-1 #
coedge $-1 $392 $397 $165 $265 forward $398 $-1 #
edge $-1 $399 -19.101243599118298 $400 -15.313128168370504 $264 $401 forward 7 unknown #
loop $-1 $-1 $271 $166 #
plane-surface $-1 -12.030117078593861 30.87199664740541 117.78006144270871 0.80901700255871778 0 0.5877852410284794 0.5877852410284794 0 -0.80901700255871778 forward_v I I I I #
loop $-1 $-1 $402 $106 #
coedge $-1 $269 $269 $270 $403 reversed $167 $-1 #
coedge $-1 $270 $270 $269 $403 forward $169 $-1 #
coedge $-1 $271 $271 $170 $272 forward $266 $-1 #
edge $-1 $404 0 $404 6.2831853071796004 $271 $405 forward 7 unknown #
loop $-1 $-1 $278 $171 #
plane-surface $-1 -12.030117078593861 30.87199664740541 117.78006144270871 0.80901700255871778 0 0.5877852410284794 0.5877852410284794 0 -0.80901700255871778 forward_v I I I I #
loop $-1 $-1 $406 $109 #
coedge $-1 $276 $276 $277 $407 reversed $172 $-1 #
coedge $-1 $277 $277 $276 $407 forward $174 $-1 #
coedge $-1 $278 $278 $175 $279 forward $273 $-1 #
edge $-1 $408 0 $408 6.2831853071796004 $278 $409 forward 7 unknown #
face $-1 $410 $411 $42 $-1 $412 reversed single #
loop $-1 $-1 $413 $176 #
plane-surface $-1 -68.520157475508896 0 0 1 0 0 0 0 -1 forward_v I I I I #
coedge $-1 $414 $291 $415 $416 forward $177 $-1 #
coedge $-1 $417 $179 $414 $418 forward $113 $-1 #
coedge $-1 $179 $417 $419 $420 forward $113 $-1 #
coedge $-1 $294 $293 $179 $287 reversed $295 $-1 #
edge $-1 $421 -45.028159395256978 $422 45.028159395256978 $286 $423 forward 7 unknown #
coedge $-1 $181 $180 $424 $425 forward $71 $-1 #
coedge $-1 $426 $427 $180 $290 reversed $411 $-1 #
edge $-1 $297 -68.520157475508896 $428 68.520157475508896 $289 $429 forward 7 unknown #
coedge $-1 $283 $430 $181 $292 reversed $177 $-1 #
edge $-1 $431 -68.520157475508896 $296 68.520157475508896 $291 $432 forward 7 unknown #
coedge $-1 $286 $182 $430 $433 forward $295 $-1 #
coedge $-1 $182 $286 $426 $434 reversed $295 $-1 #
loop $-1 $-1 $293 $410 #
vertex $-1 $183 $435 #
vertex $-1 $183 $436 #
straight-curve $-1 68.520157475508896 0 12.126010355531088 0 1 0 I I #
face $-1 $437 $438 $43 $-1 $439 forward single #
loop $-1 $-1 $440 $184 #
plane-surface $-1 -68.520157475508896 0 0 1 0 0 0 0 -1 forward_v I I I I #
coedge $-1 $309 $441 $311 $442 forward $185 $-1 #
coedge $-1 $187 $311 $443 $444 reversed $117 $-1 #
coedge $-1 $445 $307 $187 $305 forward $446 $-1 #
edge $-1 $313 2.8506874803982436 $447 7.133777743554643 $304 $448 forward 7 unknown #
coedge $-1 $189 $188 $440 $449 reversed $74 $-1 #
coedge $-1 $304 $450 $188 $308 forward $446 $-1 #
edge $-1 $451 -37.598476671276345 $313 -24.244884937188758 $307 $452 forward 7 unknown #
coedge $-1 $453 $302 $189 $310 forward $185 $-1 #
edge $-1 $312 24.244884937188758 $454 37.598476671276345 $309 $455 forward 7 unknown #
coedge $-1 $303 $190 $302 $442 reversed $117 $-1 #
vertex $-1 $310 $456 #
vertex $-1 $308 $457 #
straight-curve $-1 -55.166565741421309 0 7.8429200923746869 0 -1 0 I I #
face $-1 $-1 $458 $44 $-1 $459 reversed single #
loop $-1 $-1 $198 $192 #
plane-surface $-1 0 0 12.126010355531088 0 0 1 1 0 0 forward_v I I I I #
coedge $-1 $460 $461 $462 $463 reversed $193 $-1 #
coedge $-1 $464 $195 $197 $325 forward $121 $-1 #
coedge $-1 $195 $464 $460 $465 forward $121 $-1 #
coedge $-1 $462 $198 $195 $322 forward $316 $-1 #
edge $-1 $328 13.019642306366581 $466 23.650600139113468 $321 $467 forward 7 unknown #
coedge $-1 $468 $469 $196 $324 forward $458 $-1 #
edge $-1 $470 -92.253051387072105 $327 -87.039157642874628 $323 $471 forward 7 unknown #
edge $-1 $328 130.59558792092176 $470 137.04031495101785 $197 $472 forward 7 unknown #
coedge $-1 $198 $462 $468 $473 forward $316 $-1 #
vertex $-1 $324 $474 #
vertex $-1 $199 $475 #
straight-curve $-1 49.418913876390597 -31.354763529106606 12.126010355531093 -1 0 0 I I #
coedge $-1 $330 $330 $-1 $476 reversed $202 $-1 #
edge $-1 $477 0 $477 6.2831853071796004 $203 $478 forward 7 unknown #
vertex $-1 $206 $479 #
ellipse-curve $-1 66.626099760135006 -38.948304838211527 9.5190634834323493 0.80901700255871778 0 0.5877852410284794 0.8816778615427191 0 -1.2135255038380768 1 I I #
coedge $-1 $334 $334 $-1 $480 reversed $209 $-1 #
edge $-1 $481 0 $481 6.2831853071796004 $210 $482 forward 7 unknown #
vertex $-1 $213 $483 #
ellipse-curve $-1 66.626099760135006 -34.392180052748571 9.5190634834323493 0.80901700255871778 0 0.5877852410284794 0.8816778615427191 0 -1.2135255038380768 1 I I #
face $-1 $-1 $350 $47 $-1 $484 forward single #
loop $-1 $-1 $485 $214 #
plane-surface $-1 68.520157475508896 0 0 -1 0 0 0 0 1 forward_v I I I I #
coedge $-1 $486 $487 $488 $489 reversed $215 $-1 #
coedge $-1 $490 $217 $219 $348 forward $135 $-1 #
coedge $-1 $217 $490 $486 $491 forward $135 $-1 #
coedge $-1 $488 $220 $217 $345 forward $350 $-1 #
edge $-1 $352 1.7626024575523367 $492 12.393560290299224 $344 $493 forward 7 unknown #
coedge $-1 $494 $495 $218 $347 forward $339 $-1 #
edge $-1 $496 -92.253051387072105 $351 -87.039157642874628 $346 $497 forward 7 unknown #
edge $-1 $352 130.59558792092176 $496 137.04031495101785 $219 $498 forward 7 unknown #
coedge $-1 $220 $488 $494 $499 forward $350 $-1 #
loop $-1 $-1 $488 $338 #
vertex $-1 $347 $500 #
vertex $-1 $221 $501 #
straight-curve $-1 49.418913876390597 -8.8406838314781169 12.126010355531093 -1 0 0 I I #
coedge $-1 $354 $354 $-1 $502 reversed $224 $-1 #
edge $-1 $503 0 $503 6.2831853071796004 $225 $504 forward 7 unknown #
vertex $-1 $228 $505 #
ellipse-curve $-1 66.626099760135006 -16.434225140583038 9.5190634834323493 0.80901700255871778 0 0.5877852410284794 0.8816778615427191 0 -1.2135255038380768 1 I I #
coedge $-1 $358 $358 $-1 $506 reversed $231 $-1 #
edge $-1 $507 0 $507 6.2831853071796004 $232 $508 forward 7 unknown #
vertex $-1 $235 $509 #
ellipse-curve $-1 66.626099760135006 -11.878100355120083 9.5190634834323493 0.80901700255871778 0 0.5877852410284794 0.8816778615427191 0 -1.2135255038380768 1 I I #
face $-1 $-1 $374 $50 $-1 $510 forward single #
loop $-1 $-1 $511 $236 #
plane-surface $-1 68.520157475508896 0 0 -1 0 0 0 0 1 forward_v I I I I #
coedge $-1 $512 $513 $514 $515 reversed $237 $-1 #
coedge $-1 $516 $239 $241 $372 forward $149 $-1 #
coedge $-1 $239 $516 $512 $517 forward $149 $-1 #
coedge $-1 $514 $242 $239 $369 forward $374 $-1 #
edge $-1 $376 -9.4944373912619078 $518 1.1365204414849792 $368 $519 forward 7 unknown #
coedge $-1 $520 $521 $240 $371 forward $363 $-1 #
edge $-1 $522 -92.253051387072105 $375 -87.039157642874628 $370 $523 forward 7 unknown #
edge $-1 $376 130.59558792092176 $522 137.04031495101785 $241 $524 forward 7 unknown #
coedge $-1 $242 $514 $520 $525 forward $374 $-1 #
loop $-1 $-1 $514 $362 #
vertex $-1 $371 $526 #
vertex $-1 $243 $527 #
straight-curve $-1 49.418913876390597 13.673395866150372 12.126010355531093 -1 0 0 I I #
coedge $-1 $378 $378 $-1 $528 reversed $246 $-1 #
edge $-1 $529 0 $529 6.2831853071796004 $247 $530 forward 7 unknown #
vertex $-1 $250 $531 #
ellipse-curve $-1 66.626099760135006 6.0798545570454507 9.5190634834323493 0.80901700255871778 0 0.5877852410284794 0.8816778615427191 0 -1.2135255038380768 1 I I #
coedge $-1 $382 $382 $-1 $532 reversed $253 $-1 #
edge $-1 $533 0 $533 6.2831853071796004 $254 $534 forward 7 unknown #
vertex $-1 $257 $535 #
ellipse-curve $-1 66.626099760135006 10.635979342508406 9.5190634834323493 0.80901700255871778 0 0.5877852410284794 0.8816778615427191 0 -1.2135255038380768 1 I I #
face $-1 $-1 $398 $53 $-1 $536 forward single #
loop $-1 $-1 $537 $258 #
plane-surface $-1 68.520157475508896 0 0 -1 0 0 0 0 1 forward_v I I I I #
coedge $-1 $538 $539 $540 $541 reversed $259 $-1 #
coedge $-1 $542 $261 $263 $396 forward $163 $-1 #
coedge $-1 $261 $542 $538 $543 forward $163 $-1 #
coedge $-1 $540 $264 $261 $393 forward $398 $-1 #
edge $-1 $400 -20.751477240076149 $544 -10.120519407329262 $392 $545 forward 7 unknown #
coedge $-1 $546 $547 $262 $395 forward $387 $-1 #
edge $-1 $548 -92.253051387072105 $399 -87.039157642874628 $394 $549 forward 7 unknown #
edge $-1 $400 130.59558792092176 $548 137.04031495101785 $263 $550 forward 7 unknown #
coedge $-1 $264 $540 $546 $551 forward $398 $-1 #
loop $-1 $-1 $540 $386 #
vertex $-1 $395 $552 #
vertex $-1 $265 $553 #
straight-curve $-1 49.418913876390597 36.187475563778854 12.126010355531093 -1 0 0 I I #
coedge $-1 $402 $402 $-1 $554 reversed $268 $-1 #
edge $-1 $555 0 $555 6.2831853071796004 $269 $556 forward 7 unknown #
vertex $-1 $272 $557 #
ellipse-curve $-1 66.626099760135006 28.59393425467394 9.5190634834323493 0.80901700255871778 0 0.5877852410284794 0.8816778615427191 0 -1.2135255038380768 1 I I #
coedge $-1 $406 $406 $-1 $558 reversed $275 $-1 #
edge $-1 $559 0 $559 6.2831853071796004 $276 $560 forward 7 unknown #
vertex $-1 $279 $561 #
ellipse-curve $-1 66.626099760135006 33.150059040136895 9.5190634834323493 0.80901700255871778 0 0.5877852410284794 0.8816778615427191 0 -1.2135255038380768 1 I I #
face $-1 $-1 $295 $42 $-1 $562 reversed single #
loop $-1 $-1 $426 $280 #
plane-surface $-1 0 45.028159395256978 0 0 -1 0 0 0 -1 forward_v I I I I #
coedge $-1 $563 $424 $427 $564 forward $281 $-1 #
coedge $-1 $430 $283 $284 $418 reversed $177 $-1 #
coedge $-1 $424 $563 $283 $416 reversed $281 $-1 #
edge $-1 $431 -12.126010355531088 $565 12.126010355531088 $415 $566 forward 7 unknown #
coedge $-1 $285 $284 $563 $567 forward $113 $-1 #
edge $-1 $422 -68.520157475508896 $565 68.520157475508896 $414 $568 forward 7 unknown #
coedge $-1 $427 $426 $285 $420 reversed $411 $-1 #
edge $-1 $569 -68.520157475508896 $421 68.520157475508896 $419 $570 forward 7 unknown #
vertex $-1 $287 $571 #
vertex $-1 $433 $572 #
straight-curve $-1 68.520157475508896 0 -12.126010355531088 0 -1 0 I I #
coedge $-1 $413 $415 $288 $425 reversed $281 $-1 #
edge $-1 $428 -45.028159395256978 $431 45.028159395256978 $424 $573 forward 7 unknown #
coedge $-1 $419 $289 $294 $434 forward $411 $-1 #
coedge $-1 $289 $419 $413 $564 reversed $411 $-1 #
vertex $-1 $290 $574 #
straight-curve $-1 0 45.028159395256978 12.126010355531088 -1 0 0 I I #
coedge $-1 $291 $414 $293 $433 reversed $177 $-1 #
vertex $-1 $425 $575 #
straight-curve $-1 0 -45.028159395256978 12.126010355531088 1 0 0 I I #
edge $-1 $296 -12.126010355531088 $422 12.126010355531088 $293 $576 forward 7 unknown #
edge $-1 $297 -12.126010355531088 $421 12.126010355531088 $294 $577 forward 7 unknown #
point $-1 68.520157475508896 -45.028159395256978 12.126010355531088 #
point $-1 68.520157475508896 45.028159395256978 12.126010355531088 #
face $-1 $-1 $446 $43 $-1 $578 reversed single #
loop $-1 $-1 $443 $299 #
plane-surface $-1 0 0 12.126010355531088 0 0 1 1 0 0 forward_v I I I I #
coedge $-1 $579 $580 $306 $449 forward $300 $-1 #
coedge $-1 $302 $453 $581 $582 reversed $185 $-1 #
edge $-1 $583 -7.133777743554643 $312 -2.8506874803982436 $302 $584 forward 7 unknown #
coedge $-1 $581 $585 $303 $444 forward $438 $-1 #
edge $-1 $447 -45.028159395256978 $583 45.028159395256978 $443 $586 forward 7 unknown #
coedge $-1 $450 $304 $585 $587 reversed $446 $-1 #
loop $-1 $-1 $304 $437 #
vertex $-1 $305 $588 #
straight-curve $-1 -55.166565741421309 -45.028159395256978 4.9922326119764433 0 0 1 I I #
edge $-1 $454 -45.028159395256978 $451 45.028159395256978 $440 $589 forward 7 unknown #
coedge $-1 $307 $445 $579 $590 forward $446 $-1 #
vertex $-1 $449 $591 #
straight-curve $-1 -30.921680804232551 -45.028159395256978 7.8429200923746869 1 0 0 I I #
coedge $-1 $441 $309 $580 $592 reversed $185 $-1 #
vertex $-1 $449 $593 #
straight-curve $-1 -30.921680804232551 45.028159395256978 7.8429200923746869 -1 0 0 I I #
point $-1 -55.166565741421309 45.028159395256978 7.8429200923746869 #
point $-1 -55.166565741421309 -45.028159395256978 7.8429200923746869 #
loop $-1 $-1 $323 $315 #
plane-surface $-1 68.520157475508896 0 0 -1 0 0 0 0 1 forward_v I I I I #
coedge $-1 $461 $318 $320 $465 reversed $193 $-1 #
coedge $-1 $318 $460 $594 $595 reversed $193 $-1 #
coedge $-1 $326 $321 $318 $463 forward $316 $-1 #
edge $-1 $466 15.313128168370504 $596 19.101243599118298 $462 $597 forward 7 unknown #
coedge $-1 $320 $319 $469 $598 reversed $121 $-1 #
edge $-1 $599 -137.04031495101785 $466 -130.59558792092176 $460 $600 forward 7 unknown #
vertex $-1 $322 $601 #
straight-curve $-1 64.732042044761101 -18.335121222740025 12.126010355531093 0 -1 0 I I #
coedge $-1 $594 $323 $326 $473 reversed $458 $-1 #
coedge $-1 $323 $594 $464 $598 forward $458 $-1 #
vertex $-1 $324 $602 #
straight-curve $-1 68.520157475508896 -31.354763529106606 99.165167998405721 0 0 1 I I #
straight-curve $-1 -12.030117078593861 -31.354763529106606 117.78006144270871 0.5877852410284794 0 -0.80901700255871778 I I #
edge $-1 $596 -41.985721361853493 $327 -31.354763529106606 $468 $603 forward 7 unknown #
point $-1 68.520157475508896 -31.354763529106606 12.126010355531088 #
point $-1 64.732042044761101 -31.354763529106606 12.126010355531108 #
edge $-1 $604 1 $604 0 $330 $-1 forward 7 unknown #
vertex $-1 $331 $605 #
ellipse-curve $-1 64.116423690687512 -38.948304838211527 7.6956771408486038 0.80901700255871778 0 0.5877852410284794 0.8816778615427191 0 -1.2135255038380768 1 I I #
point $-1 67.507777621677761 -38.948304838211527 8.3055379795942947 #
edge $-1 $606 1 $606 0 $334 $-1 forward 7 unknown #
vertex $-1 $335 $607 #
ellipse-curve $-1 64.116423690687512 -34.392180052748571 7.6956771408486038 0.80901700255871778 0 0.5877852410284794 0.8816778615427191 0 -1.2135255038380768 1 I I #
point $-1 67.507777621677761 -34.392180052748571 8.3055379795942947 #
plane-surface $-1 0 0 12.126010355531088 0 0 1 1 0 0 forward_v I I I I #
coedge $-1 $495 $494 $487 $608 forward $339 $-1 #
coedge $-1 $487 $341 $343 $491 reversed $215 $-1 #
coedge $-1 $341 $486 $485 $608 reversed $215 $-1 #
coedge $-1 $349 $344 $341 $489 forward $350 $-1 #
edge $-1 $492 15.313128168370504 $609 19.101243599118298 $488 $610 forward 7 unknown #
coedge $-1 $343 $342 $495 $611 reversed $135 $-1 #
edge $-1 $612 -137.04031495101785 $492 -130.59558792092176 $486 $613 forward 7 unknown #
vertex $-1 $345 $614 #
straight-curve $-1 64.732042044761101 -7.0780813739257802 12.126010355531093 0 -1 0 I I #
coedge $-1 $485 $346 $349 $499 reversed $339 $-1 #
coedge $-1 $346 $485 $490 $611 forward $339 $-1 #
vertex $-1 $347 $615 #
straight-curve $-1 68.520157475508896 -8.8406838314781169 99.165167998405721 0 0 1 I I #
straight-curve $-1 -12.030117078593861 -8.8406838314781169 117.78006144270871 0.5877852410284794 0 -0.80901700255871778 I I #
edge $-1 $609 -19.471641664225004 $351 -8.8406838314781169 $494 $616 forward 7 unknown #
point $-1 68.520157475508896 -8.8406838314781169 12.126010355531088 #
point $-1 64.732042044761101 -8.8406838314781169 12.126010355531108 #
edge $-1 $617 1 $617 0 $354 $-1 forward 7 unknown #
vertex $-1 $355 $618 #
ellipse-curve $-1 64.116423690687512 -16.434225140583038 7.6956771408486038 0.80901700255871778 0 0.5877852410284794 0.8816778615427191 0 -1.2135255038380768 1 I I #
point $-1 67.507777621677761 -16.434225140583038 8.3055379795942947 #
edge $-1 $619 1 $619 0 $358 $-1 forward 7 unknown #
vertex $-1 $359 $620 #
ellipse-curve $-1 64.116423690687512 -11.878100355120083 7.6956771408486038 0.80901700255871778 0 0.5877852410284794 0.8816778615427191 0 -1.2135255038380768 1 I I #
point $-1 67.507777621677761 -11.878100355120083 8.3055379795942947 #
plane-surface $-1 0 0 12.126010355531088 0 0 1 1 0 0 forward_v I I I I #
coedge $-1 $521 $520 $513 $621 forward $363 $-1 #
coedge $-1 $513 $365 $367 $517 reversed $237 $-1 #
coedge $-1 $365 $512 $511 $621 reversed $237 $-1 #
coedge $-1 $373 $368 $365 $515 forward $374 $-1 #
edge $-1 $518 15.313128168370504 $622 19.101243599118298 $514 $623 forward 7 unknown #
coedge $-1 $367 $366 $521 $624 reversed $149 $-1 #
edge $-1 $625 -137.04031495101785 $518 -130.59558792092176 $512 $626 forward 7 unknown #
vertex $-1 $369 $627 #
straight-curve $-1 64.732042044761101 4.1789584748884643 12.126010355531093 0 -1 0 I I #
coedge $-1 $511 $370 $373 $525 reversed $363 $-1 #
coedge $-1 $370 $511 $516 $624 forward $363 $-1 #
vertex $-1 $371 $628 #
straight-curve $-1 68.520157475508896 13.673395866150372 99.165167998405721 0 0 1 I I #
straight-curve $-1 -12.030117078593861 13.673395866150372 117.78006144270871 0.5877852410284794 0 -0.80901700255871778 I I #
edge $-1 $622 3.0424380334034851 $375 13.673395866150372 $520 $629 forward 7 unknown #
point $-1 68.520157475508896 13.673395866150372 12.126010355531088 #
point $-1 64.732042044761101 13.673395866150372 12.126010355531108 #
edge $-1 $630 1 $630 0 $378 $-1 forward 7 unknown #
vertex $-1 $379 $631 #
ellipse-curve $-1 64.116423690687512 6.0798545570454507 7.6956771408486038 0.80901700255871778 0 0.5877852410284794 0.8816778615427191 0 -1.2135255038380768 1 I I #
point $-1 67.507777621677761 6.0798545570454507 8.3055379795942947 #
edge $-1 $632 1 $632 0 $382 $-1 forward 7 unknown #
vertex $-1 $383 $633 #
ellipse-curve $-1 64.116423690687512 10.635979342508406 7.6956771408486038 0.80901700255871778 0 0.5877852410284794 0.8816778615427191 0 -1.2135255038380768 1 I I #
point $-1 67.507777621677761 10.635979342508406 8.3055379795942947 #
plane-surface $-1 0 0 12.126010355531088 0 0 1 1 0 0 forward_v I I I I #
coedge $-1 $547 $546 $539 $634 forward $387 $-1 #
coedge $-1 $539 $389 $391 $543 reversed $259 $-1 #
coedge $-1 $389 $538 $537 $634 reversed $259 $-1 #
coedge $-1 $397 $392 $389 $541 forward $398 $-1 #
edge $-1 $544 15.313128168370504 $635 19.101243599118298 $540 $636 forward 7 unknown #
coedge $-1 $391 $390 $547 $637 reversed $163 $-1 #
edge $-1 $638 -137.04031495101785 $544 -130.59558792092176 $538 $639 forward 7 unknown #
vertex $-1 $393 $640 #
straight-curve $-1 64.732042044761101 15.435998323702705 12.126010355531093 0 -1 0 I I #
coedge $-1 $537 $394 $397 $551 reversed $387 $-1 #
coedge $-1 $394 $537 $542 $637 forward $387 $-1 #
vertex $-1 $395 $641 #
straight-curve $-1 68.520157475508896 36.187475563778854 99.165167998405721 0 0 1 I I #
straight-curve $-1 -12.030117078593861 36.187475563778854 117.78006144270871 0.5877852410284794 0 -0.80901700255871778 I I #
edge $-1 $635 25.556517731031967 $399 36.187475563778854 $546 $642 forward 7 unknown #
point $-1 68.520157475508896 36.187475563778854 12.126010355531088 #
point $-1 64.732042044761101 36.187475563778854 12.126010355531108 #
edge $-1 $643 1 $643 0 $402 $-1 forward 7 unknown #
vertex $-1 $403 $644 #
ellipse-curve $-1 64.116423690687512 28.59393425467394 7.6956771408486038 0.80901700255871778 0 0.5877852410284794 0.8816778615427191 0 -1.2135255038380768 1 I I #
point $-1 67.507777621677761 28.59393425467394 8.3055379795942947 #
edge $-1 $645 1 $645 0 $406 $-1 forward 7 unknown #
vertex $-1 $407 $646 #
ellipse-curve $-1 64.116423690687512 33.150059040136895 7.6956771408486038 0.80901700255871778 0 0.5877852410284794 0.8816778615427191 0 -1.2135255038380768 1 I I #
point $-1 67.507777621677761 33.150059040136895 8.3055379795942947 #
plane-surface $-1 68.520157475508896 0 0 -1 0 0 0 0 1 forward_v I I I I #
coedge $-1 $415 $413 $417 $567 reversed $281 $-1 #
edge $-1 $428 -12.126010355531088 $569 12.126010355531088 $427 $647 forward 7 unknown #
vertex $-1 $567 $648 #
straight-curve $-1 -68.520157475508896 -45.028159395256978 0 0 0 -1 I I #
edge $-1 $565 -45.028159395256978 $569 45.028159395256978 $563 $649 forward 7 unknown #
straight-curve $-1 0 -45.028159395256978 -12.126010355531088 -1 0 0 I I #
vertex $-1 $420 $650 #
straight-curve $-1 0 45.028159395256978 -12.126010355531088 1 0 0 I I #
point $-1 68.520157475508896 45.028159395256978 -12.126010355531088 #
point $-1 68.520157475508896 -45.028159395256978 -12.126010355531088 #
straight-curve $-1 -68.520157475508896 0 12.126010355531088 0 -1 0 I I #
point $-1 -68.520157475508896 45.028159395256978 12.126010355531088 #
point $-1 -68.520157475508896 -45.028159395256978 12.126010355531088 #
straight-curve $-1 68.520157475508896 -45.028159395256978 0 0 0 -1 I I #
straight-curve $-1 68.520157475508896 45.028159395256978 0 0 0 -1 I I #
plane-surface $-1 0 -45.028159395256978 0 0 1 0 0 0 1 forward_v I I I I #
coedge $-1 $651 $440 $450 $590 reversed $300 $-1 #
coedge $-1 $440 $651 $453 $592 forward $300 $-1 #
coedge $-1 $652 $443 $441 $582 forward $438 $-1 #
edge $-1 $583 55.166565741421309 $653 68.520157475508896 $441 $654 forward 7 unknown #
vertex $-1 $582 $655 #
straight-curve $-1 -55.166565741421309 45.028159395256978 4.9922326119764433 0 0 -1 I I #
coedge $-1 $443 $652 $445 $587 forward $438 $-1 #
straight-curve $-1 -55.166565741421309 0 12.126010355531088 0 1 0 I I #
edge $-1 $656 -68.520157475508896 $447 -55.166565741421309 $445 $657 forward 7 unknown #
point $-1 -55.166565741421309 -45.028159395256978 12.126010355531086 #
straight-curve $-1 -68.520157475508896 0 7.8429200923746869 0 -1 0 I I #
edge $-1 $656 -12.126010355531088 $451 -7.8429200923746869 $579 $658 forward 7 unknown #
point $-1 -68.520157475508896 -45.028159395256978 7.8429200923746869 #
edge $-1 $653 -12.126010355531088 $454 -7.8429200923746869 $453 $659 forward 7 unknown #
point $-1 -68.520157475508896 45.028159395256978 7.8429200923746869 #
coedge $-1 $469 $468 $461 $595 forward $458 $-1 #
edge $-1 $596 87.039157642874628 $599 92.253051387072105 $594 $660 forward 7 unknown #
vertex $-1 $473 $661 #
straight-curve $-1 49.418913876390597 -41.985721361853493 12.126010355531093 1 0 0 I I #
edge $-1 $599 -23.650600139113468 $470 -13.019642306366581 $469 $662 forward 7 unknown #
vertex $-1 $598 $663 #
straight-curve $-1 -12.030117078593861 -41.985721361853493 117.78006144270871 -0.5877852410284794 0 0.80901700255871778 I I #
point $-1 64.732042044761101 -41.985721361853493 12.126010355531108 #
point $-1 68.520157475508896 -31.354763529106606 6.9121166113336159 #
straight-curve $-1 68.520157475508896 0 12.126010355531088 0 1 0 I I #
vertex $-1 $476 $664 #
point $-1 64.998101552230239 -38.948304838211527 6.482151637010527 #
vertex $-1 $480 $665 #
point $-1 64.998101552230239 -34.392180052748571 6.482151637010527 #
edge $-1 $609 87.039157642874628 $612 92.253051387072105 $485 $666 forward 7 unknown #
vertex $-1 $499 $667 #
straight-curve $-1 49.418913876390597 -19.471641664225004 12.126010355531093 1 0 0 I I #
edge $-1 $612 -12.393560290299224 $496 -1.7626024575523367 $495 $668 forward 7 unknown #
vertex $-1 $611 $669 #
straight-curve $-1 -12.030117078593861 -19.471641664225004 117.78006144270871 -0.5877852410284794 0 0.80901700255871778 I I #
point $-1 64.732042044761101 -19.471641664225004 12.126010355531108 #
point $-1 68.520157475508896 -8.8406838314781169 6.9121166113336159 #
straight-curve $-1 68.520157475508896 0 12.126010355531088 0 1 0 I I #
vertex $-1 $502 $670 #
point $-1 64.998101552230239 -16.434225140583038 6.482151637010527 #
vertex $-1 $506 $671 #
point $-1 64.998101552230239 -11.878100355120083 6.482151637010527 #
edge $-1 $622 87.039157642874628 $625 92.253051387072105 $511 $672 forward 7 unknown #
vertex $-1 $525 $673 #
straight-curve $-1 49.418913876390597 3.0424380334034851 12.126010355531093 1 0 0 I I #
edge $-1 $625 -1.1365204414849792 $522 9.4944373912619078 $521 $674 forward 7 unknown #
vertex $-1 $624 $675 #
straight-curve $-1 -12.030117078593861 3.0424380334034851 117.78006144270871 -0.5877852410284794 0 0.80901700255871778 I I #
point $-1 64.732042044761101 3.0424380334034851 12.126010355531108 #
point $-1 68.520157475508896 13.673395866150372 6.9121166113336159 #
straight-curve $-1 68.520157475508896 0 12.126010355531088 0 1 0 I I #
vertex $-1 $528 $676 #
point $-1 64.998101552230239 6.0798545570454507 6.482151637010527 #
vertex $-1 $532 $677 #
point $-1 64.998101552230239 10.635979342508406 6.482151637010527 #
edge $-1 $635 87.039157642874628 $638 92.253051387072105 $537 $678 forward 7 unknown #
vertex $-1 $551 $679 #
straight-curve $-1 49.418913876390597 25.556517731031967 12.126010355531093 1 0 0 I I #
edge $-1 $638 10.120519407329262 $548 20.751477240076149 $547 $680 forward 7 unknown #
vertex $-1 $637 $681 #
straight-curve $-1 -12.030117078593861 25.556517731031967 117.78006144270871 -0.5877852410284794 0 0.80901700255871778 I I #
point $-1 64.732042044761101 25.556517731031967 12.126010355531108 #
point $-1 68.520157475508896 36.187475563778854 6.9121166113336159 #
straight-curve $-1 68.520157475508896 0 12.126010355531088 0 1 0 I I #
vertex $-1 $554 $682 #
point $-1 64.998101552230239 28.59393425467394 6.482151637010527 #
vertex $-1 $558 $683 #
point $-1 64.998101552230239 33.150059040136895 6.482151637010527 #
straight-curve $-1 -68.520157475508896 45.028159395256978 0 0 0 -1 I I #
point $-1 -68.520157475508896 -45.028159395256978 -12.126010355531088 #
straight-curve $-1 -68.520157475508896 0 -12.126010355531088 0 1 0 I I #
point $-1 -68.520157475508896 45.028159395256978 -12.126010355531088 #
coedge $-1 $580 $579 $652 $684 reversed $300 $-1 #
coedge $-1 $585 $581 $651 $684 forward $438 $-1 #
vertex $-1 $582 $685 #
straight-curve $-1 0 45.028159395256978 12.126010355531088 -1 0 0 I I #
point $-1 -55.166565741421309 45.028159395256978 12.126010355531086 #
vertex $-1 $684 $686 #
straight-curve $-1 0 -45.028159395256978 12.126010355531088 1 0 0 I I #
straight-curve $-1 -68.520157475508896 -45.028159395256978 0 0 0 -1 I I #
straight-curve $-1 -68.520157475508896 45.028159395256978 0 0 0 -1 I I #
straight-curve $-1 68.520157475508896 -41.985721361853493 99.165167998405721 0 0 -1 I I #
point $-1 68.520157475508896 -41.985721361853493 12.126010355531088 #
straight-curve $-1 68.520157475508896 -18.335121222740025 6.912116611333623 0 1 0 I I #
point $-1 68.520157475508896 -41.985721361853493 6.9121166113336159 #
point $-1 62.902898186849441 -38.948304838211527 6.8139992793058841 #
point $-1 62.902898186849441 -34.392180052748571 6.8139992793058841 #
straight-curve $-1 68.520157475508896 -19.471641664225004 99.165167998405721 0 0 -1 I I #
point $-1 68.520157475508896 -19.471641664225004 12.126010355531088 #
straight-curve $-1 68.520157475508896 -7.0780813739257802 6.912116611333623 0 1 0 I I #
point $-1 68.520157475508896 -19.471641664225004 6.9121166113336159 #
point $-1 62.902898186849441 -16.434225140583038 6.8139992793058841 #
point $-1 62.902898186849441 -11.878100355120083 6.8139992793058841 #
straight-curve $-1 68.520157475508896 3.0424380334034851 99.165167998405721 0 0 -1 I I #
point $-1 68.520157475508896 3.0424380334034851 12.126010355531088 #
straight-curve $-1 68.520157475508896 4.1789584748884643 6.912116611333623 0 1 0 I I #
point $-1 68.520157475508896 3.0424380334034851 6.9121166113336159 #
point $-1 62.902898186849441 6.0798545570454507 6.8139992793058841 #
point $-1 62.902898186849441 10.635979342508406 6.8139992793058841 #
straight-curve $-1 68.520157475508896 25.556517731031967 99.165167998405721 0 0 -1 I I #
point $-1 68.520157475508896 25.556517731031967 12.126010355531088 #
straight-curve $-1 68.520157475508896 15.435998323702705 6.912116611333623 0 1 0 I I #
point $-1 68.520157475508896 25.556517731031967 6.9121166113336159 #
point $-1 62.902898186849441 28.59393425467394 6.8139992793058841 #
point $-1 62.902898186849441 33.150059040136895 6.8139992793058841 #
edge $-1 $653 -45.028159395256978 $656 45.028159395256978 $651 $687 forward 7 unknown #
point $-1 -68.520157475508896 45.028159395256978 12.126010355531088 #
point $-1 -68.520157475508896 -45.028159395256978 12.126010355531088 #
straight-curve $-1 -68.520157475508896 0 12.126010355531088 0 -1 0 I I #
End-of-ACIS-data 