500 0 7 0           
7 Unknown 11 ACIS 5.0 NT 24 Fri Mar 26 15:17:31 1999 
-1 9.9999999999999995e-007 1e-010 
body $-1 $7 $-1 $8 #
body $-1 $9 $-1 $10 #
body $-1 $11 $-1 $12 #
body $-1 $13 $-1 $14 #
body $-1 $15 $-1 $16 #
body $-1 $17 $-1 $18 #
body $-1 $19 $-1 $20 #
lump $-1 $-1 $21 $0 #
transform $-1 1 0 0 0 1 0 0 0 1 62.625202185125275 38.581573884416848 11.397736600883668 1 rotate no_reflect no_shear #
lump $-1 $-1 $22 $1 #
transform $-1 1 0 0 0 1 0 0 0 1 62.625202185125275 38.581573884416848 11.397736600883668 1 rotate no_reflect no_shear #
lump $-1 $-1 $23 $2 #
transform $-1 1 0 0 0 1 0 0 0 1 62.625202185125275 38.581573884416848 11.397736600883668 1 rotate no_reflect no_shear #
lump $-1 $-1 $24 $3 #
transform $-1 1 0 0 0 1 0 0 0 1 62.625202185125275 38.581573884416848 11.397736600883668 1 rotate no_reflect no_shear #
lump $-1 $-1 $25 $4 #
transform $-1 1 0 0 0 1 0 0 0 1 62.625202185125275 38.581573884416848 11.397736600883668 1 rotate no_reflect no_shear #
lump $-1 $-1 $26 $5 #
transform $-1 1 0 0 0 1 0 0 0 1 62.625202185125275 38.581573884416848 11.397736600883668 1 rotate no_reflect no_shear #
lump $-1 $-1 $27 $6 #
transform $-1 1 0 0 0 1 0 0 0 1 62.625202185125275 38.581573884416848 11.397736600883668 1 rotate no_reflect no_shear #
shell $-1 $-1 $-1 $28 $-1 $7 #
shell $-1 $-1 $-1 $29 $-1 $9 #
shell $-1 $-1 $-1 $30 $-1 $11 #
shell $-1 $-1 $-1 $31 $-1 $13 #
shell $-1 $-1 $-1 $32 $-1 $15 #
shell $-1 $-1 $-1 $33 $-1 $17 #
shell $-1 $-1 $-1 $34 $-1 $19 #
face $-1 $35 $36 $21 $-1 $37 forward single #
face $-1 $38 $39 $22 $-1 $40 forward single #
face $-1 $41 $42 $23 $-1 $43 reversed single #
face $-1 $44 $45 $24 $-1 $46 forward single #
face $-1 $47 $48 $25 $-1 $49 reversed single #
face $-1 $50 $51 $26 $-1 $52 forward single #
face $-1 $53 $54 $27 $-1 $55 forward single #
face $-1 $56 $57 $21 $-1 $58 reversed single #
loop $-1 $-1 $59 $28 #
plane-surface $-1 0 0 11.397736600883668 0 0 1 1 0 0 forward_v I I I I #
face $-1 $60 $61 $22 $-1 $62 reversed single #
loop $-1 $-1 $63 $29 #
plane-surface $-1 0 -31.618888012352446 -7.5313343848290302 0 0 1 1 0 0 forward_v I I I I #
face $-1 $64 $65 $23 $-1 $66 reversed single #
loop $-1 $-1 $67 $30 #
plane-surface $-1 87.277050154080754 -12.396754383650794 178.35557032525401 0 -1 0 -0.79863551827123203 0 -0.60181501223851219 forward_v I I I I #
face $-1 $68 $69 $24 $-1 $70 forward single #
loop $-1 $71 $72 $31 #
cone-surface $-1 58.327228401560006 -18.526478261969419 6.3333018410298294 -0.79863551827123203 0 -0.60181501223851219 0.90272251835776829 0 -1.197953277406848 1 I I 0 1 1.5 forward I I I I #
face $-1 $73 $74 $25 $-1 $75 reversed single #
loop $-1 $-1 $76 $32 #
plane-surface $-1 -163.95490889801272 -24.656202140288045 76.668353324822874 0 1 0 -0.80901700255871778 0 0.5877852410284794 forward_v I I I I #
face $-1 $77 $78 $26 $-1 $79 forward single #
loop $-1 $80 $81 $33 #
cone-surface $-1 -57.328286050836674 -19.642318192456919 5.5781996665558697 0.80901700255871778 0 -0.5877852410284794 1.4694631025711984 0 2.0225425063967943 1 I I 0 1 2.5 forward I I I I #
face $-1 $82 $83 $27 $-1 $84 forward single #
loop $-1 $85 $86 $34 #
cone-surface $-1 -57.328286050836674 -12.121492270710228 5.5781996665558697 0.80901700255871778 0 -0.5877852410284794 1.4694631025711984 0 2.0225425063967943 1 I I 0 1 2.5 forward I I I I #
face $-1 $87 $88 $21 $-1 $89 reversed single #
loop $-1 $-1 $90 $35 #
plane-surface $-1 0 0 -11.397736600883668 0 0 1 1 0 0 forward_v I I I I #
coedge $-1 $91 $92 $93 $94 forward $36 $-1 #
face $-1 $95 $96 $22 $-1 $97 reversed single #
loop $-1 $-1 $98 $38 #
plane-surface $-1 0 -24.656202140288045 -9.4645354928563492 0 -1 0 0 0 -1 forward_v I I I I #
coedge $-1 $99 $100 $101 $102 reversed $39 $-1 #
face $-1 $103 $104 $23 $-1 $105 reversed single #
loop $-1 $-1 $106 $41 #
plane-surface $-1 -12.752371453835678 -18.526478261969419 102.97799668629307 0.79863551827123203 0 0.60181501223851219 0.60181501223851219 0 -0.79863551827123203 forward_v I I I I #
coedge $-1 $107 $108 $109 $110 reversed $42 $-1 #
face $-1 $-1 $111 $24 $-1 $112 forward single #
loop $-1 $113 $114 $44 #
cone-surface $-1 56.613727831408852 -18.526478261969419 5.0420865832506294 -0.79863551827123203 0 -0.60181501223851219 0.45136125917888414 0 -0.59897663870342399 1 I I -0.70710678118654757 0.70710678118654757 0.75 forward I I I I #
loop $-1 $-1 $115 $31 #
coedge $-1 $72 $72 $116 $117 reversed $45 $-1 #
face $-1 $118 $119 $25 $-1 $120 reversed single #
loop $-1 $-1 $121 $47 #
plane-surface $-1 -62.625202185125275 -15.88190523158357 3.0480142031406388 -0.80901700255871778 0 0.5877852410284794 0.5877852410284794 0 0.80901700255871778 forward_v I I I I #
coedge $-1 $122 $123 $124 $125 reversed $48 $-1 #
face $-1 $-1 $126 $26 $-1 $127 forward single #
loop $-1 $128 $129 $50 #
cone-surface $-1 -54.053312784039349 -19.642318192456919 3.1987923798139839 0.80901700255871778 0 -0.5877852410284794 0.73473155128559919 0 1.0112712531983972 1 I I -0.70710678118654724 0.70710678118654768 1.25 forward I I I I #
loop $-1 $-1 $130 $33 #
coedge $-1 $81 $81 $131 $132 reversed $51 $-1 #
face $-1 $-1 $133 $27 $-1 $134 forward single #
loop $-1 $135 $136 $53 #
cone-surface $-1 -54.053312784039349 -12.121492270710228 3.1987923798139839 0.80901700255871778 0 -0.5877852410284794 0.73473155128559919 0 1.0112712531983972 1 I I -0.70710678118654724 0.70710678118654768 1.25 forward I I I I #
loop $-1 $-1 $137 $34 #
coedge $-1 $86 $86 $138 $139 reversed $54 $-1 #
face $-1 $140 $141 $21 $-1 $142 reversed single #
loop $-1 $-1 $143 $56 #
plane-surface $-1 0 -38.581573884416848 0 0 1 0 0 0 1 forward_v I I I I #
coedge $-1 $144 $145 $146 $147 forward $57 $-1 #
coedge $-1 $148 $59 $149 $150 forward $36 $-1 #
coedge $-1 $59 $148 $151 $152 forward $36 $-1 #
coedge $-1 $153 $154 $59 $94 reversed $155 $-1 #
edge $-1 $156 -38.581573884416848 $157 38.581573884416848 $93 $158 forward 7 unknown #
face $-1 $159 $160 $22 $-1 $161 reversed single #
loop $-1 $-1 $162 $60 #
plane-surface $-1 0 0 -11.397736600883668 0 0 1 1 0 0 forward_v I I I I #
coedge $-1 $163 $164 $165 $166 reversed $61 $-1 #
coedge $-1 $167 $63 $164 $168 forward $39 $-1 #
coedge $-1 $63 $167 $169 $170 reversed $39 $-1 #
coedge $-1 $171 $165 $63 $102 forward $160 $-1 #
edge $-1 $172 8.8467581341118215 $173 22.772129878240627 $101 $174 forward 7 unknown #
face $-1 $175 $176 $23 $-1 $177 reversed single #
loop $-1 $-1 $178 $64 #
plane-surface $-1 87.277050154080754 -24.656202140288045 178.35557032525401 0 1 0 0.79863551827123203 0 0.60181501223851219 forward_v I I I I #
coedge $-1 $179 $180 $181 $182 reversed $65 $-1 #
coedge $-1 $108 $67 $183 $184 reversed $42 $-1 #
coedge $-1 $67 $107 $179 $185 reversed $42 $-1 #
coedge $-1 $181 $186 $67 $110 forward $187 $-1 #
edge $-1 $188 -18.986677108084898 $189 -12.619777403849803 $109 $190 forward 7 unknown #
loop $-1 $-1 $116 $68 #
plane-surface $-1 -12.752371453835678 -18.526478261969419 102.97799668629307 0.79863551827123203 0 0.60181501223851219 0.60181501223851219 0 -0.79863551827123203 forward_v I I I I #
loop $-1 $-1 $191 $44 #
coedge $-1 $114 $114 $115 $192 reversed $69 $-1 #
coedge $-1 $115 $115 $114 $192 forward $71 $-1 #
coedge $-1 $116 $116 $72 $117 forward $111 $-1 #
edge $-1 $193 0 $193 6.2831853071796004 $116 $194 forward 7 unknown #
face $-1 $195 $196 $25 $-1 $197 forward single #
loop $-1 $-1 $198 $73 #
plane-surface $-1 -163.95490889801272 -7.1076083228790949 76.668353324822874 0 -1 0 0.80901700255871778 0 -0.5877852410284794 forward_v I I I I #
coedge $-1 $199 $200 $201 $202 reversed $74 $-1 #
coedge $-1 $123 $76 $203 $204 reversed $48 $-1 #
coedge $-1 $76 $122 $199 $205 reversed $48 $-1 #
coedge $-1 $201 $206 $76 $125 forward $196 $-1 #
edge $-1 $207 19.352252263881084 $208 25.41868050526044 $124 $209 forward 7 unknown #
loop $-1 $-1 $131 $77 #
plane-surface $-1 -62.625202185125275 -15.88190523158357 3.0480142031406388 -0.80901700255871778 0 0.5877852410284794 0.5877852410284794 0 0.80901700255871778 forward_v I I I I #
loop $-1 $-1 $210 $50 #
coedge $-1 $129 $129 $130 $211 reversed $78 $-1 #
coedge $-1 $130 $130 $129 $211 forward $80 $-1 #
coedge $-1 $131 $131 $81 $132 forward $126 $-1 #
edge $-1 $212 0 $212 6.2831853071796004 $131 $213 forward 7 unknown #
loop $-1 $-1 $138 $82 #
plane-surface $-1 -62.625202185125275 -15.88190523158357 3.0480142031406388 -0.80901700255871778 0 0.5877852410284794 0.5877852410284794 0 0.80901700255871778 forward_v I I I I #
loop $-1 $-1 $214 $53 #
coedge $-1 $136 $136 $137 $215 reversed $83 $-1 #
coedge $-1 $137 $137 $136 $215 forward $85 $-1 #
coedge $-1 $138 $138 $86 $139 forward $133 $-1 #
edge $-1 $216 0 $216 6.2831853071796004 $138 $217 forward 7 unknown #
face $-1 $218 $219 $21 $-1 $220 reversed single #
loop $-1 $-1 $221 $87 #
plane-surface $-1 -62.625202185125275 0 0 1 0 0 0 0 -1 forward_v I I I I #
coedge $-1 $222 $151 $223 $224 forward $88 $-1 #
coedge $-1 $225 $90 $222 $226 forward $57 $-1 #
coedge $-1 $90 $225 $227 $228 forward $57 $-1 #
coedge $-1 $154 $153 $90 $147 reversed $155 $-1 #
edge $-1 $229 -38.581573884416848 $230 38.581573884416848 $146 $231 forward 7 unknown #
coedge $-1 $92 $91 $232 $233 forward $36 $-1 #
coedge $-1 $234 $235 $91 $150 reversed $219 $-1 #
edge $-1 $157 -62.625202185125275 $236 62.625202185125275 $149 $237 forward 7 unknown #
coedge $-1 $143 $238 $92 $152 reversed $88 $-1 #
edge $-1 $239 -62.625202185125275 $156 62.625202185125275 $151 $240 forward 7 unknown #
coedge $-1 $146 $93 $238 $241 forward $155 $-1 #
coedge $-1 $93 $146 $234 $242 reversed $155 $-1 #
loop $-1 $-1 $153 $218 #
vertex $-1 $94 $243 #
vertex $-1 $94 $244 #
straight-curve $-1 62.625202185125275 0 11.397736600883668 0 1 0 I I #
face $-1 $245 $246 $22 $-1 $247 reversed single #
loop $-1 $-1 $165 $95 #
plane-surface $-1 62.625202185125275 0 0 -1 0 0 0 0 1 forward_v I I I I #
coedge $-1 $248 $249 $163 $250 forward $96 $-1 #
coedge $-1 $251 $98 $162 $250 reversed $61 $-1 #
coedge $-1 $98 $251 $99 $168 reversed $61 $-1 #
coedge $-1 $101 $252 $98 $166 forward $160 $-1 #
edge $-1 $253 -6.6654688544554936 $172 -2.7990666384008556 $165 $254 forward 7 unknown #
coedge $-1 $100 $99 $255 $256 reversed $39 $-1 #
edge $-1 $172 -62.625202185125275 $257 62.625202185125275 $164 $258 forward 7 unknown #
coedge $-1 $259 $260 $100 $170 forward $246 $-1 #
edge $-1 $173 -62.625202185125275 $261 62.625202185125275 $169 $262 forward 7 unknown #
coedge $-1 $252 $101 $260 $263 forward $160 $-1 #
vertex $-1 $102 $264 #
vertex $-1 $263 $265 #
straight-curve $-1 62.625202185125275 -15.809444006176223 -7.5313343848290302 0 -1 0 I I #
face $-1 $-1 $187 $23 $-1 $266 forward single #
loop $-1 $-1 $267 $103 #
plane-surface $-1 62.625202185125275 0 0 -1 0 0 0 0 1 forward_v I I I I #
coedge $-1 $268 $269 $270 $271 reversed $104 $-1 #
coedge $-1 $272 $106 $108 $185 forward $65 $-1 #
coedge $-1 $106 $272 $268 $273 forward $65 $-1 #
coedge $-1 $270 $109 $106 $182 forward $187 $-1 #
edge $-1 $189 3.1335152526660845 $274 15.392963009303335 $181 $275 forward 7 unknown #
coedge $-1 $276 $277 $107 $184 forward $176 $-1 #
edge $-1 $278 -86.229210084250397 $188 -77.780048561743342 $183 $279 forward 7 unknown #
edge $-1 $189 114.67090805534019 $278 125.25040437025058 $108 $280 forward 7 unknown #
coedge $-1 $109 $270 $276 $281 forward $187 $-1 #
loop $-1 $-1 $270 $175 #
vertex $-1 $184 $282 #
vertex $-1 $110 $283 #
straight-curve $-1 43.638525077040377 -12.396754383650794 11.397736600883661 -1 0 0 I I #
coedge $-1 $191 $191 $-1 $284 reversed $113 $-1 #
edge $-1 $285 0 $285 6.2831853071796004 $114 $286 forward 7 unknown #
vertex $-1 $117 $287 #
ellipse-curve $-1 59.441752333007734 -18.526478261969419 7.1731558396301436 0.79863551827123203 0 0.60181501223851219 0.90272251835776829 0 -1.197953277406848 1 I I #
face $-1 $-1 $288 $25 $-1 $289 reversed single #
loop $-1 $-1 $124 $118 #
plane-surface $-1 0 0 11.397736600883668 0 0 1 1 0 0 forward_v I I I I #
coedge $-1 $290 $291 $292 $293 reversed $119 $-1 #
coedge $-1 $294 $121 $123 $205 forward $74 $-1 #
coedge $-1 $121 $294 $290 $295 forward $74 $-1 #
coedge $-1 $292 $124 $121 $202 forward $196 $-1 #
edge $-1 $208 -16.715249524496258 $296 0.83334429291268997 $201 $297 forward 7 unknown #
coedge $-1 $298 $299 $122 $204 forward $288 $-1 #
edge $-1 $300 -35.286162459270798 $207 -26.936440061527769 $203 $301 forward 7 unknown #
edge $-1 $208 -10.320824372460596 $300 0 $123 $302 forward 7 unknown #
coedge $-1 $124 $292 $298 $303 forward $196 $-1 #
vertex $-1 $204 $304 #
vertex $-1 $125 $305 #
straight-curve $-1 -81.977454449006359 -24.656202140288045 11.397736600883668 1 0 0 I I #
coedge $-1 $210 $210 $-1 $306 reversed $128 $-1 #
edge $-1 $307 0 $307 6.2831853071796004 $129 $308 forward 7 unknown #
vertex $-1 $132 $309 #
ellipse-curve $-1 -59.591988064435597 -19.642318192456919 7.2228754020121535 -0.80901700255871778 0 0.5877852410284794 1.4694631025711984 0 2.0225425063967943 1 I I #
coedge $-1 $214 $214 $-1 $310 reversed $135 $-1 #
edge $-1 $311 0 $311 6.2831853071796004 $136 $312 forward 7 unknown #
vertex $-1 $139 $313 #
ellipse-curve $-1 -59.591988064435597 -12.121492270710228 7.2228754020121535 -0.80901700255871778 0 0.5877852410284794 1.4694631025711984 0 2.0225425063967943 1 I I #
face $-1 $-1 $155 $21 $-1 $314 reversed single #
loop $-1 $-1 $234 $140 #
plane-surface $-1 0 38.581573884416848 0 0 -1 0 0 0 -1 forward_v I I I I #
coedge $-1 $315 $232 $235 $316 forward $141 $-1 #
coedge $-1 $238 $143 $144 $226 reversed $88 $-1 #
coedge $-1 $232 $315 $143 $224 reversed $141 $-1 #
edge $-1 $239 -11.397736600883668 $317 11.397736600883668 $223 $318 forward 7 unknown #
coedge $-1 $145 $144 $315 $319 forward $57 $-1 #
edge $-1 $230 -62.625202185125275 $317 62.625202185125275 $222 $320 forward 7 unknown #
coedge $-1 $235 $234 $145 $228 reversed $219 $-1 #
edge $-1 $321 -62.625202185125275 $229 62.625202185125275 $227 $322 forward 7 unknown #
vertex $-1 $147 $323 #
vertex $-1 $241 $324 #
straight-curve $-1 62.625202185125275 0 -11.397736600883668 0 -1 0 I I #
coedge $-1 $221 $223 $148 $233 reversed $141 $-1 #
edge $-1 $236 -38.581573884416848 $239 38.581573884416848 $232 $325 forward 7 unknown #
coedge $-1 $227 $149 $154 $242 forward $219 $-1 #
coedge $-1 $149 $227 $221 $316 reversed $219 $-1 #
vertex $-1 $150 $326 #
straight-curve $-1 0 38.581573884416848 11.397736600883668 -1 0 0 I I #
coedge $-1 $151 $222 $153 $241 reversed $88 $-1 #
vertex $-1 $233 $327 #
straight-curve $-1 0 -38.581573884416848 11.397736600883668 1 0 0 I I #
edge $-1 $156 -11.397736600883668 $230 11.397736600883668 $153 $328 forward 7 unknown #
edge $-1 $157 -11.397736600883668 $229 11.397736600883668 $154 $329 forward 7 unknown #
point $-1 62.625202185125275 -38.581573884416848 11.397736600883668 #
point $-1 62.625202185125275 38.581573884416848 11.397736600883668 #
face $-1 $-1 $330 $22 $-1 $331 reversed single #
loop $-1 $-1 $169 $159 #
plane-surface $-1 0 -38.581573884416848 0 0 1 0 0 0 1 forward_v I I I I #
coedge $-1 $332 $162 $252 $333 forward $96 $-1 #
coedge $-1 $162 $332 $334 $335 forward $96 $-1 #
edge $-1 $336 -62.625202185125275 $253 62.625202185125275 $162 $337 forward 7 unknown #
coedge $-1 $164 $163 $338 $339 reversed $61 $-1 #
coedge $-1 $165 $171 $248 $333 reversed $160 $-1 #
vertex $-1 $333 $340 #
straight-curve $-1 62.625202185125275 -24.656202140288045 -4.7322677464281746 0 0 1 I I #
coedge $-1 $338 $341 $167 $256 forward $330 $-1 #
edge $-1 $261 -22.772129878240627 $257 -8.8467581341118215 $255 $342 forward 7 unknown #
vertex $-1 $256 $343 #
straight-curve $-1 0 -24.656202140288045 -7.5313343848290302 -1 0 0 I I #
coedge $-1 $344 $169 $341 $345 forward $246 $-1 #
coedge $-1 $169 $344 $171 $263 reversed $246 $-1 #
vertex $-1 $345 $346 #
straight-curve $-1 0 -38.581573884416848 -7.5313343848290302 -1 0 0 I I #
edge $-1 $173 7.5313343848290302 $347 11.397736600883668 $171 $348 forward 7 unknown #
point $-1 62.625202185125275 -24.656202140288045 -7.5313343848290302 #
point $-1 62.625202185125275 -38.581573884416848 -7.5313343848290302 #
plane-surface $-1 0 0 11.397736600883668 0 0 1 1 0 0 forward_v I I I I #
coedge $-1 $277 $276 $269 $349 forward $176 $-1 #
coedge $-1 $269 $178 $180 $273 reversed $104 $-1 #
coedge $-1 $178 $268 $267 $349 reversed $104 $-1 #
coedge $-1 $186 $181 $178 $271 forward $187 $-1 #
edge $-1 $274 12.619777403849803 $350 18.986677108084898 $270 $351 forward 7 unknown #
coedge $-1 $180 $179 $277 $352 reversed $65 $-1 #
edge $-1 $353 -125.25040437025058 $274 -114.67090805534019 $268 $354 forward 7 unknown #
vertex $-1 $182 $355 #
straight-curve $-1 56.258302480890173 -9.2632391309847097 11.397736600883675 0 -1 0 I I #
coedge $-1 $267 $183 $186 $281 reversed $176 $-1 #
coedge $-1 $183 $267 $272 $352 forward $176 $-1 #
vertex $-1 $184 $356 #
straight-curve $-1 62.625202185125275 -12.396754383650794 89.177785162627004 0 0 1 I I #
straight-curve $-1 -12.752371453835678 -12.396754383650794 102.97799668629307 0.60181501223851219 0 -0.79863551827123203 I I #
edge $-1 $350 -24.656202140288045 $188 -12.396754383650794 $276 $357 forward 7 unknown #
point $-1 62.625202185125275 -12.396754383650794 11.397736600883668 #
point $-1 56.25830248089018 -12.396754383650794 11.397736600883661 #
edge $-1 $358 1 $358 0 $191 $-1 forward 7 unknown #
vertex $-1 $192 $359 #
ellipse-curve $-1 57.212704470112278 -18.526478261969419 5.4934478424295135 0.79863551827123203 0 0.60181501223851219 0.90272251835776829 0 -1.197953277406848 1 I I #
point $-1 60.344474851365504 -18.526478261969419 5.9752025622232976 #
loop $-1 $-1 $203 $195 #
plane-surface $-1 -62.625202185125275 0 0 1 0 0 0 0 -1 forward_v I I I I #
coedge $-1 $291 $198 $200 $295 reversed $119 $-1 #
coedge $-1 $198 $290 $360 $361 reversed $119 $-1 #
coedge $-1 $206 $201 $198 $293 forward $196 $-1 #
edge $-1 $296 -25.41868050526044 $362 -19.352252263881084 $292 $363 forward 7 unknown #
coedge $-1 $200 $199 $299 $364 reversed $74 $-1 #
edge $-1 $365 0 $296 10.320824372460596 $290 $366 forward 7 unknown #
vertex $-1 $202 $367 #
straight-curve $-1 -56.558773943745926 -7.9409526157917849 11.397736600883668 0 1 0 I I #
coedge $-1 $360 $203 $206 $303 reversed $288 $-1 #
coedge $-1 $203 $360 $294 $364 forward $288 $-1 #
vertex $-1 $204 $368 #
straight-curve $-1 -62.625202185125275 -24.656202140288045 38.334176662411437 0 0 1 I I #
straight-curve $-1 -62.625202185125275 -24.656202140288045 3.0480142031406388 -0.5877852410284794 0 -0.80901700255871778 I I #
edge $-1 $362 7.1076083228790949 $207 24.656202140288045 $298 $369 forward 7 unknown #
point $-1 -62.625202185125275 -24.656202140288045 11.397736600883668 #
point $-1 -56.558773943745919 -24.656202140288045 11.397736600883668 #
edge $-1 $370 1 $370 0 $210 $-1 forward 7 unknown #
vertex $-1 $211 $371 #
ellipse-curve $-1 -55.064584037237744 -19.642318192456919 3.9335239310995838 -0.80901700255871778 0 0.5877852410284794 1.4694631025711984 0 2.0225425063967943 1 I I #
point $-1 -58.1225249618644 -19.642318192456919 9.2454179084089496 #
edge $-1 $372 1 $372 0 $214 $-1 forward 7 unknown #
vertex $-1 $215 $373 #
ellipse-curve $-1 -55.064584037237744 -12.121492270710228 3.9335239310995838 -0.80901700255871778 0 0.5877852410284794 1.4694631025711984 0 2.0225425063967943 1 I I #
point $-1 -58.1225249618644 -12.121492270710228 9.2454179084089496 #
plane-surface $-1 62.625202185125275 0 0 -1 0 0 0 0 1 forward_v I I I I #
coedge $-1 $223 $221 $225 $319 reversed $141 $-1 #
edge $-1 $236 -11.397736600883668 $321 11.397736600883668 $235 $374 forward 7 unknown #
vertex $-1 $319 $375 #
straight-curve $-1 -62.625202185125275 -38.581573884416848 0 0 0 -1 I I #
edge $-1 $317 -38.581573884416848 $321 38.581573884416848 $315 $376 forward 7 unknown #
straight-curve $-1 0 -38.581573884416848 -11.397736600883668 -1 0 0 I I #
vertex $-1 $228 $377 #
straight-curve $-1 0 38.581573884416848 -11.397736600883668 1 0 0 I I #
point $-1 62.625202185125275 38.581573884416848 -11.397736600883668 #
point $-1 62.625202185125275 -38.581573884416848 -11.397736600883668 #
straight-curve $-1 -62.625202185125275 0 11.397736600883668 0 -1 0 I I #
point $-1 -62.625202185125275 38.581573884416848 11.397736600883668 #
point $-1 -62.625202185125275 -38.581573884416848 11.397736600883668 #
straight-curve $-1 62.625202185125275 -38.581573884416848 0 0 0 -1 I I #
straight-curve $-1 62.625202185125275 38.581573884416848 0 0 0 -1 I I #
loop $-1 $-1 $338 $245 #
plane-surface $-1 -62.625202185125275 0 0 1 0 0 0 0 -1 forward_v I I I I #
coedge $-1 $249 $248 $344 $378 forward $96 $-1 #
edge $-1 $253 24.656202140288045 $347 38.581573884416848 $252 $379 forward 7 unknown #
coedge $-1 $341 $338 $249 $335 reversed $330 $-1 #
edge $-1 $380 -38.581573884416848 $336 -24.656202140288045 $334 $381 forward 7 unknown #
vertex $-1 $339 $382 #
straight-curve $-1 0 -24.656202140288045 -11.397736600883668 1 0 0 I I #
coedge $-1 $334 $255 $251 $339 forward $330 $-1 #
edge $-1 $257 2.7990666384008556 $336 6.6654688544554936 $338 $383 forward 7 unknown #
point $-1 62.625202185125275 -24.656202140288045 -11.397736600883668 #
coedge $-1 $255 $334 $259 $345 reversed $330 $-1 #
straight-curve $-1 -62.625202185125275 -15.809444006176223 -7.5313343848290302 0 1 0 I I #
point $-1 -62.625202185125275 -24.656202140288045 -7.5313343848290302 #
coedge $-1 $260 $259 $332 $378 reversed $246 $-1 #
edge $-1 $261 7.5313343848290302 $380 11.397736600883668 $341 $384 forward 7 unknown #
point $-1 -62.625202185125275 -38.581573884416848 -7.5313343848290302 #
vertex $-1 $263 $385 #
straight-curve $-1 62.625202185125275 -38.581573884416848 0 0 0 -1 I I #
edge $-1 $350 77.780048561743342 $353 86.229210084250397 $267 $386 forward 7 unknown #
vertex $-1 $281 $387 #
straight-curve $-1 43.638525077040377 -24.656202140288045 11.397736600883661 1 0 0 I I #
edge $-1 $353 -15.392963009303335 $278 -3.1335152526660845 $277 $388 forward 7 unknown #
vertex $-1 $352 $389 #
straight-curve $-1 -12.752371453835678 -24.656202140288045 102.97799668629307 -0.60181501223851219 0 0.79863551827123203 I I #
point $-1 56.25830248089018 -24.656202140288045 11.397736600883661 #
point $-1 62.625202185125275 -12.396754383650794 2.9485750783766065 #
straight-curve $-1 62.625202185125275 0 11.397736600883668 0 1 0 I I #
vertex $-1 $284 $390 #
point $-1 58.115426988470041 -18.526478261969419 4.2954945650226657 #
coedge $-1 $299 $298 $291 $361 forward $288 $-1 #
edge $-1 $362 26.936440061527769 $365 35.286162459270798 $360 $391 forward 7 unknown #
vertex $-1 $303 $392 #
straight-curve $-1 -81.977454449006359 -7.1076083228790949 11.397736600883668 -1 0 0 I I #
edge $-1 $365 -0.83334429291268997 $300 16.715249524496258 $299 $393 forward 7 unknown #
vertex $-1 $364 $394 #
straight-curve $-1 -62.625202185125275 -7.1076083228790949 3.0480142031406388 0.5877852410284794 0 0.80901700255871778 I I #
point $-1 -56.558773943745919 -7.1076083228790949 11.397736600883668 #
point $-1 -62.625202185125275 -24.656202140288045 3.0480142031406388 #
straight-curve $-1 -62.625202185125275 0 11.397736600883668 0 -1 0 I I #
vertex $-1 $306 $395 #
point $-1 -53.595120934666546 -19.642318192456919 5.9560664374963785 #
vertex $-1 $310 $396 #
point $-1 -53.595120934666546 -12.121492270710228 5.9560664374963785 #
straight-curve $-1 -62.625202185125275 38.581573884416848 0 0 0 -1 I I #
point $-1 -62.625202185125275 -38.581573884416848 -11.397736600883668 #
straight-curve $-1 -62.625202185125275 0 -11.397736600883668 0 1 0 I I #
point $-1 -62.625202185125275 38.581573884416848 -11.397736600883668 #
edge $-1 $347 -62.625202185125275 $380 62.625202185125275 $344 $397 forward 7 unknown #
straight-curve $-1 62.625202185125275 0 -11.397736600883668 0 -1 0 I I #
vertex $-1 $335 $398 #
straight-curve $-1 -62.625202185125275 0 -11.397736600883668 0 1 0 I I #
point $-1 -62.625202185125275 -24.656202140288045 -11.397736600883668 #
straight-curve $-1 -62.625202185125275 -24.656202140288045 -4.7322677464281746 0 0 -1 I I #
straight-curve $-1 -62.625202185125275 -38.581573884416848 0 0 0 -1 I I #
point $-1 62.625202185125275 -38.581573884416848 -11.397736600883668 #
straight-curve $-1 62.625202185125275 -24.656202140288045 89.177785162627004 0 0 -1 I I #
point $-1 62.625202185125275 -24.656202140288045 11.397736600883668 #
straight-curve $-1 62.625202185125275 -9.2632391309847097 2.9485750783766136 0 1 0 I I #
point $-1 62.625202185125275 -24.656202140288045 2.9485750783766065 #
point $-1 56.014751192705425 -18.526478261969419 4.5907253240717454 #
straight-curve $-1 -62.625202185125275 -7.1076083228790949 38.334176662411437 0 0 -1 I I #
point $-1 -62.625202185125275 -7.1076083228790949 11.397736600883668 #
straight-curve $-1 -62.625202185125275 -7.9409526157917849 3.0480142031406396 0 -1 0 I I #
point $-1 -62.625202185125275 -7.1076083228790949 3.0480142031406388 #
point $-1 -53.042041530840955 -19.642318192456919 2.464060828528384 #
point $-1 -53.042041530840955 -12.121492270710228 2.464060828528384 #
straight-curve $-1 0 -38.581573884416848 -11.397736600883668 -1 0 0 I I #
point $-1 -62.625202185125275 -38.581573884416848 -11.397736600883668 #
End-of-ACIS-data 