500 0 7 0           
7 Unknown 11 ACIS 5.0 NT 24 Fri Mar 26 20:19:50 1999 
-1 9.9999999999999995e-007 1e-010 
body $-1 $7 $-1 $8 #
body $-1 $9 $-1 $10 #
body $-1 $11 $-1 $12 #
body $-1 $13 $-1 $14 #
body $-1 $15 $-1 $16 #
body $-1 $17 $-1 $18 #
body $-1 $19 $-1 $20 #
lump $-1 $-1 $21 $0 #
transform $-1 1 0 0 0 1 0 0 0 1 48.990752891628773 29.61079628722247 8.90727670413116 1 rotate no_reflect no_shear #
lump $-1 $-1 $22 $1 #
transform $-1 1 0 0 0 1 0 0 0 1 48.990752891628773 29.61079628722247 8.90727670413116 1 rotate no_reflect no_shear #
lump $-1 $-1 $23 $2 #
transform $-1 1 0 0 0 1 0 0 0 1 48.990752891628773 29.61079628722247 8.90727670413116 1 rotate no_reflect no_shear #
lump $-1 $-1 $24 $3 #
transform $-1 1 0 0 0 1 0 0 0 1 48.990752891628773 29.61079628722247 8.90727670413116 1 rotate no_reflect no_shear #
lump $-1 $-1 $25 $4 #
transform $-1 1 0 0 0 1 0 0 0 1 48.990752891628773 29.61079628722247 8.90727670413116 1 rotate no_reflect no_shear #
lump $-1 $-1 $26 $5 #
transform $-1 1 0 0 0 1 0 0 0 1 48.990752891628773 29.61079628722247 8.90727670413116 1 rotate no_reflect no_shear #
lump $-1 $-1 $27 $6 #
transform $-1 1 0 0 0 1 0 0 0 1 48.990752891628773 29.61079628722247 8.90727670413116 1 rotate no_reflect no_shear #
shell $-1 $-1 $-1 $28 $-1 $7 #
shell $-1 $-1 $-1 $29 $-1 $9 #
shell $-1 $-1 $-1 $30 $-1 $11 #
shell $-1 $-1 $-1 $31 $-1 $13 #
shell $-1 $-1 $-1 $32 $-1 $15 #
shell $-1 $-1 $-1 $33 $-1 $17 #
shell $-1 $-1 $-1 $34 $-1 $19 #
face $-1 $35 $36 $21 $-1 $37 forward single #
face $-1 $38 $39 $22 $-1 $40 reversed single #
face $-1 $41 $42 $23 $-1 $43 reversed single #
face $-1 $44 $45 $24 $-1 $46 reversed single #
face $-1 $47 $48 $25 $-1 $49 forward single #
face $-1 $50 $51 $26 $-1 $52 reversed single #
face $-1 $53 $54 $27 $-1 $55 forward single #
face $-1 $56 $57 $21 $-1 $58 reversed single #
loop $-1 $-1 $59 $28 #
plane-surface $-1 0 0 8.90727670413116 0 0 1 1 0 0 forward_v I I I I #
face $-1 $60 $61 $22 $-1 $62 reversed single #
loop $-1 $-1 $63 $29 #
plane-surface $-1 -47.490752891628773 -22.267809934342779 0 0 -1 0 0 0 -1 forward_v I I I I #
face $-1 $64 $65 $23 $-1 $66 reversed single #
loop $-1 $-1 $67 $30 #
plane-surface $-1 -47.490752891628773 22.267809934342779 0 0 1 0 0 0 1 forward_v I I I I #
face $-1 $68 $69 $24 $-1 $70 reversed single #
loop $-1 $-1 $71 $31 #
plane-surface $-1 56.242779242794711 -11.614001802812041 139.61702822788263 0 -1 0 -0.74314483375859142 0 -0.66913059716165679 forward_v I I I I #
face $-1 $72 $73 $25 $-1 $74 forward single #
loop $-1 $75 $76 $32 #
cone-surface $-1 43.656002417176779 -16.94090586857741 3.3782578944882813 -0.74314483375859142 0 -0.66913059716165679 1.0036958957424851 0 -1.1147172506378871 1 I I 0 1 1.5 forward I I I I #
face $-1 $77 $78 $26 $-1 $79 reversed single #
loop $-1 $-1 $80 $33 #
plane-surface $-1 -48.990752891628773 -16.94090586857741 1.2401549256177873 -0.74314483375859142 0 0.66913059716165679 0.66913059716165679 0 0.74314483375859142 forward_v I I I I #
face $-1 $81 $82 $27 $-1 $83 forward single #
loop $-1 $84 $85 $34 #
cone-surface $-1 -43.656002417176779 -16.94090586857741 3.3782578944882831 0.74314483375859142 0 -0.66913059716165679 1.0036958957424851 0 1.1147172506378871 1 I I 0 1 1.5 forward I I I I #
face $-1 $86 $87 $21 $-1 $88 reversed single #
loop $-1 $-1 $89 $35 #
plane-surface $-1 0 0 -8.90727670413116 0 0 1 1 0 0 forward_v I I I I #
coedge $-1 $90 $91 $92 $93 forward $36 $-1 #
face $-1 $94 $95 $22 $-1 $96 forward single #
loop $-1 $-1 $97 $38 #
plane-surface $-1 -45.990752891628773 -25.939303110782625 0 -1 0 0 0 0 1 forward_v I I I I #
coedge $-1 $98 $99 $100 $101 forward $39 $-1 #
face $-1 $102 $103 $23 $-1 $104 reversed single #
loop $-1 $-1 $105 $41 #
plane-surface $-1 -45.990752891628773 25.939303110782625 0 -1 0 0 0 0 1 forward_v I I I I #
coedge $-1 $106 $107 $108 $109 reversed $42 $-1 #
face $-1 $110 $111 $24 $-1 $112 reversed single #
loop $-1 $-1 $113 $44 #
plane-surface $-1 -16.571670583920678 -16.94090586857741 74.054604752333177 0.74314483375859142 0 0.66913059716165679 0.66913059716165679 0 -0.74314483375859142 forward_v I I I I #
coedge $-1 $114 $115 $116 $117 reversed $45 $-1 #
face $-1 $-1 $118 $25 $-1 $119 forward single #
loop $-1 $120 $121 $47 #
cone-surface $-1 41.215646960245778 -16.94090586857741 1.1809520262308446 -0.74314483375859142 0 -0.66913059716165679 0.50184794787124254 0 -0.55735862531894353 1 I I -0.70710678118654757 0.70710678118654757 0.75 forward I I I I #
loop $-1 $-1 $122 $32 #
coedge $-1 $76 $76 $123 $124 reversed $48 $-1 #
face $-1 $125 $126 $26 $-1 $127 forward single #
loop $-1 $-1 $128 $50 #
plane-surface $-1 -121.80520271834416 -11.614001802812041 66.802578401167239 0 -1 0 0.74314483375859142 0 -0.66913059716165679 forward_v I I I I #
coedge $-1 $129 $130 $131 $132 reversed $51 $-1 #
face $-1 $-1 $133 $27 $-1 $134 forward single #
loop $-1 $135 $136 $53 #
cone-surface $-1 -41.215646960245778 -16.94090586857741 1.1809520262308464 0.74314483375859142 0 -0.66913059716165679 0.50184794787124254 0 0.55735862531894353 1 I I -0.70710678118654757 0.70710678118654757 0.75 forward I I I I #
loop $-1 $-1 $137 $34 #
coedge $-1 $85 $85 $138 $139 reversed $54 $-1 #
face $-1 $140 $141 $21 $-1 $142 reversed single #
loop $-1 $-1 $143 $56 #
plane-surface $-1 0 -29.61079628722247 0 0 1 0 0 0 1 forward_v I I I I #
coedge $-1 $144 $145 $146 $147 forward $57 $-1 #
coedge $-1 $148 $59 $149 $150 forward $36 $-1 #
coedge $-1 $59 $148 $151 $152 forward $36 $-1 #
coedge $-1 $153 $154 $59 $93 reversed $155 $-1 #
edge $-1 $156 -29.61079628722247 $157 29.61079628722247 $92 $158 forward 7 unknown #
face $-1 $159 $160 $22 $-1 $161 reversed single #
loop $-1 $-1 $162 $60 #
plane-surface $-1 0 0 8.90727670413116 0 0 1 1 0 0 forward_v I I I I #
coedge $-1 $163 $164 $165 $166 reversed $61 $-1 #
coedge $-1 $167 $63 $168 $169 reversed $39 $-1 #
coedge $-1 $63 $167 $170 $171 reversed $39 $-1 #
coedge $-1 $164 $163 $63 $101 reversed $61 $-1 #
edge $-1 $172 -8.90727670413116 $173 8.90727670413116 $100 $174 forward 7 unknown #
face $-1 $175 $176 $23 $-1 $177 reversed single #
loop $-1 $-1 $178 $64 #
plane-surface $-1 0 0 -8.90727670413116 0 0 1 1 0 0 forward_v I I I I #
coedge $-1 $179 $180 $181 $182 forward $65 $-1 #
coedge $-1 $181 $67 $183 $184 reversed $42 $-1 #
coedge $-1 $67 $181 $185 $186 reversed $42 $-1 #
coedge $-1 $187 $188 $67 $109 forward $176 $-1 #
edge $-1 $189 -8.90727670413116 $190 8.90727670413116 $108 $191 forward 7 unknown #
face $-1 $192 $193 $24 $-1 $194 reversed single #
loop $-1 $-1 $195 $68 #
plane-surface $-1 56.242779242794711 -22.267809934342779 139.61702822788263 0 1 0 0.74314483375859142 0 0.66913059716165679 forward_v I I I I #
coedge $-1 $196 $197 $198 $199 reversed $69 $-1 #
coedge $-1 $115 $71 $200 $201 reversed $45 $-1 #
coedge $-1 $71 $114 $196 $202 reversed $45 $-1 #
coedge $-1 $198 $203 $71 $117 forward $204 $-1 #
edge $-1 $205 -20.869363270231418 $206 -13.965855984551531 $116 $207 forward 7 unknown #
loop $-1 $-1 $123 $72 #
plane-surface $-1 -16.571670583920678 -16.94090586857741 74.054604752333177 0.74314483375859142 0 0.66913059716165679 0.66913059716165679 0 -0.74314483375859142 forward_v I I I I #
loop $-1 $-1 $208 $47 #
coedge $-1 $121 $121 $122 $209 reversed $73 $-1 #
coedge $-1 $122 $122 $121 $209 forward $75 $-1 #
coedge $-1 $123 $123 $76 $124 forward $118 $-1 #
edge $-1 $210 0 $210 6.2831853071796004 $123 $211 forward 7 unknown #
face $-1 $212 $213 $26 $-1 $214 reversed single #
loop $-1 $-1 $215 $77 #
plane-surface $-1 0 0 8.90727670413116 0 0 1 1 0 0 forward_v I I I I #
coedge $-1 $216 $217 $218 $219 reversed $78 $-1 #
coedge $-1 $220 $80 $221 $222 reversed $51 $-1 #
coedge $-1 $80 $220 $216 $223 forward $51 $-1 #
coedge $-1 $218 $215 $80 $132 forward $126 $-1 #
edge $-1 $224 -13.797357000054074 $225 -3.1435488685233359 $131 $226 forward 7 unknown #
loop $-1 $-1 $138 $81 #
plane-surface $-1 -48.990752891628773 -16.94090586857741 1.2401549256177873 -0.74314483375859142 0 0.66913059716165679 0.66913059716165679 0 0.74314483375859142 forward_v I I I I #
loop $-1 $-1 $227 $53 #
coedge $-1 $136 $136 $137 $228 reversed $82 $-1 #
coedge $-1 $137 $137 $136 $228 forward $84 $-1 #
coedge $-1 $138 $138 $85 $139 forward $133 $-1 #
edge $-1 $229 0 $229 6.2831853071796004 $138 $230 forward 7 unknown #
face $-1 $231 $232 $21 $-1 $233 reversed single #
loop $-1 $-1 $234 $86 #
plane-surface $-1 -48.990752891628773 0 0 1 0 0 0 0 -1 forward_v I I I I #
coedge $-1 $235 $151 $236 $237 forward $87 $-1 #
coedge $-1 $238 $89 $235 $239 forward $57 $-1 #
coedge $-1 $89 $238 $240 $241 forward $57 $-1 #
coedge $-1 $154 $153 $89 $147 reversed $155 $-1 #
edge $-1 $242 -29.61079628722247 $243 29.61079628722247 $146 $244 forward 7 unknown #
coedge $-1 $91 $90 $245 $246 forward $36 $-1 #
coedge $-1 $247 $248 $90 $150 reversed $232 $-1 #
edge $-1 $157 -48.990752891628773 $249 48.990752891628773 $149 $250 forward 7 unknown #
coedge $-1 $143 $251 $91 $152 reversed $87 $-1 #
edge $-1 $252 -48.990752891628773 $156 48.990752891628773 $151 $253 forward 7 unknown #
coedge $-1 $146 $92 $251 $254 forward $155 $-1 #
coedge $-1 $92 $146 $247 $255 reversed $155 $-1 #
loop $-1 $-1 $153 $231 #
vertex $-1 $93 $256 #
vertex $-1 $93 $257 #
straight-curve $-1 48.990752891628773 0 8.90727670413116 0 1 0 I I #
face $-1 $258 $259 $22 $-1 $260 reversed single #
loop $-1 $-1 $261 $94 #
plane-surface $-1 -48.990752891628773 0 0 1 0 0 0 0 -1 forward_v I I I I #
coedge $-1 $170 $262 $164 $263 forward $95 $-1 #
coedge $-1 $100 $97 $264 $265 reversed $61 $-1 #
coedge $-1 $97 $100 $162 $263 reversed $61 $-1 #
coedge $-1 $266 $267 $97 $166 forward $268 $-1 #
edge $-1 $269 -8.90727670413116 $270 8.90727670413116 $165 $271 forward 7 unknown #
coedge $-1 $99 $98 $261 $272 reversed $39 $-1 #
coedge $-1 $264 $273 $98 $169 forward $259 $-1 #
edge $-1 $274 -25.245376445814387 $173 -22.245376445814387 $168 $275 forward 7 unknown #
coedge $-1 $276 $162 $99 $171 forward $95 $-1 #
edge $-1 $172 22.245376445814387 $277 25.245376445814387 $170 $278 forward 7 unknown #
vertex $-1 $171 $279 #
vertex $-1 $169 $280 #
straight-curve $-1 -45.990752891628773 -22.267809934342779 0 0 0 -1 I I #
face $-1 $281 $282 $23 $-1 $283 forward single #
loop $-1 $-1 $108 $102 #
plane-surface $-1 -48.990752891628773 0 0 1 0 0 0 0 -1 forward_v I I I I #
coedge $-1 $183 $284 $179 $285 forward $103 $-1 #
coedge $-1 $286 $105 $178 $285 reversed $65 $-1 #
coedge $-1 $105 $286 $287 $288 reversed $65 $-1 #
coedge $-1 $107 $106 $105 $182 reversed $42 $-1 #
edge $-1 $289 -8.90727670413116 $290 8.90727670413116 $105 $291 forward 7 unknown #
coedge $-1 $292 $178 $106 $184 forward $103 $-1 #
edge $-1 $290 22.245376445814387 $189 25.245376445814387 $183 $293 forward 7 unknown #
coedge $-1 $287 $294 $107 $186 forward $282 $-1 #
edge $-1 $190 -25.245376445814387 $289 -22.245376445814387 $185 $295 forward 7 unknown #
coedge $-1 $296 $108 $294 $297 reversed $176 $-1 #
coedge $-1 $108 $296 $292 $298 reversed $176 $-1 #
vertex $-1 $298 $299 #
vertex $-1 $109 $300 #
straight-curve $-1 -48.990752891628773 22.267809934342779 0 0 0 1 I I #
face $-1 $-1 $204 $24 $-1 $301 forward single #
loop $-1 $-1 $302 $110 #
plane-surface $-1 48.990752891628773 0 0 -1 0 0 0 0 1 forward_v I I I I #
coedge $-1 $303 $304 $305 $306 reversed $111 $-1 #
coedge $-1 $307 $113 $115 $202 forward $69 $-1 #
coedge $-1 $113 $307 $303 $308 forward $69 $-1 #
coedge $-1 $305 $116 $113 $199 forward $204 $-1 #
edge $-1 $206 3.1435488685233359 $309 13.797357000054074 $198 $310 forward 7 unknown #
coedge $-1 $311 $312 $114 $201 forward $193 $-1 #
edge $-1 $313 -68.568359188323527 $205 -60.90123740981015 $200 $314 forward 7 unknown #
edge $-1 $206 87.664375891180498 $313 97.981505783257532 $115 $315 forward 7 unknown #
coedge $-1 $116 $305 $311 $316 forward $204 $-1 #
loop $-1 $-1 $305 $192 #
vertex $-1 $201 $317 #
vertex $-1 $117 $318 #
straight-curve $-1 28.121389621397356 -11.614001802812041 8.9072767041311636 -1 0 0 I I #
coedge $-1 $208 $208 $-1 $319 reversed $120 $-1 #
edge $-1 $320 0 $320 6.2831853071796004 $121 $321 forward 7 unknown #
vertex $-1 $124 $322 #
ellipse-curve $-1 45.538999248788834 -16.94090586857741 5.0737158148744701 0.74314483375859142 0 0.66913059716165679 1.0036958957424851 0 -1.1147172506378871 1 I I #
face $-1 $-1 $323 $26 $-1 $324 forward single #
loop $-1 $-1 $325 $125 #
plane-surface $-1 -48.990752891628773 0 0 1 0 0 0 0 -1 forward_v I I I I #
coedge $-1 $131 $326 $327 $328 forward $126 $-1 #
coedge $-1 $217 $128 $130 $223 reversed $78 $-1 #
coedge $-1 $128 $216 $329 $330 reversed $78 $-1 #
coedge $-1 $326 $131 $128 $219 forward $126 $-1 #
edge $-1 $225 -18.815355753223187 $331 -11.911848467543308 $218 $332 forward 7 unknown #
coedge $-1 $130 $129 $325 $333 reversed $51 $-1 #
coedge $-1 $327 $334 $129 $222 forward $323 $-1 #
edge $-1 $335 -0.041040584854679318 $224 10.276089307222342 $221 $336 forward 7 unknown #
edge $-1 $337 0 $225 10.317129892077022 $216 $338 forward 7 unknown #
vertex $-1 $328 $339 #
vertex $-1 $132 $340 #
straight-curve $-1 -42.087245605948894 -8.4704529342887049 8.90727670413116 0 1 0 I I #
coedge $-1 $227 $227 $-1 $341 reversed $135 $-1 #
edge $-1 $342 0 $342 6.2831853071796004 $136 $343 forward 7 unknown #
vertex $-1 $139 $344 #
ellipse-curve $-1 -45.538999248788834 -16.94090586857741 5.0737158148744728 -0.74314483375859142 0 0.66913059716165679 1.0036958957424851 0 1.1147172506378871 1 I I #
face $-1 $-1 $155 $21 $-1 $345 reversed single #
loop $-1 $-1 $247 $140 #
plane-surface $-1 0 29.61079628722247 0 0 -1 0 0 0 -1 forward_v I I I I #
coedge $-1 $346 $245 $248 $347 forward $141 $-1 #
coedge $-1 $251 $143 $144 $239 reversed $87 $-1 #
coedge $-1 $245 $346 $143 $237 reversed $141 $-1 #
edge $-1 $252 -8.90727670413116 $348 8.90727670413116 $236 $349 forward 7 unknown #
coedge $-1 $145 $144 $346 $350 forward $57 $-1 #
edge $-1 $243 -48.990752891628773 $348 48.990752891628773 $235 $351 forward 7 unknown #
coedge $-1 $248 $247 $145 $241 reversed $232 $-1 #
edge $-1 $352 -48.990752891628773 $242 48.990752891628773 $240 $353 forward 7 unknown #
vertex $-1 $147 $354 #
vertex $-1 $254 $355 #
straight-curve $-1 48.990752891628773 0 -8.90727670413116 0 -1 0 I I #
coedge $-1 $234 $236 $148 $246 reversed $141 $-1 #
edge $-1 $249 -29.61079628722247 $252 29.61079628722247 $245 $356 forward 7 unknown #
coedge $-1 $240 $149 $154 $255 forward $232 $-1 #
coedge $-1 $149 $240 $234 $347 reversed $232 $-1 #
vertex $-1 $150 $357 #
straight-curve $-1 0 29.61079628722247 8.90727670413116 -1 0 0 I I #
coedge $-1 $151 $235 $153 $254 reversed $87 $-1 #
vertex $-1 $246 $358 #
straight-curve $-1 0 -29.61079628722247 8.90727670413116 1 0 0 I I #
edge $-1 $156 -8.90727670413116 $243 8.90727670413116 $153 $359 forward 7 unknown #
edge $-1 $157 -8.90727670413116 $242 8.90727670413116 $154 $360 forward 7 unknown #
point $-1 48.990752891628773 -29.61079628722247 8.90727670413116 #
point $-1 48.990752891628773 29.61079628722247 8.90727670413116 #
face $-1 $-1 $268 $22 $-1 $361 reversed single #
loop $-1 $-1 $264 $159 #
plane-surface $-1 0 0 -8.90727670413116 0 0 1 1 0 0 forward_v I I I I #
coedge $-1 $362 $363 $167 $272 forward $160 $-1 #
coedge $-1 $162 $276 $266 $364 forward $95 $-1 #
edge $-1 $270 -16.641144731831158 $172 -9.2981583789514666 $162 $365 forward 7 unknown #
coedge $-1 $366 $168 $163 $265 forward $259 $-1 #
edge $-1 $173 9.2981583789514666 $269 16.641144731831158 $264 $367 forward 7 unknown #
coedge $-1 $368 $165 $262 $364 reversed $268 $-1 #
coedge $-1 $165 $368 $366 $369 reversed $268 $-1 #
loop $-1 $-1 $165 $258 #
vertex $-1 $369 $370 #
vertex $-1 $166 $371 #
straight-curve $-1 -45.990752891628773 -29.61079628722247 0 0 0 1 I I #
edge $-1 $277 -8.90727670413116 $274 8.90727670413116 $261 $372 forward 7 unknown #
coedge $-1 $168 $366 $362 $373 forward $259 $-1 #
vertex $-1 $169 $374 #
straight-curve $-1 -23.745376445814387 -22.267809934342779 -8.90727670413116 1 0 0 I I #
coedge $-1 $262 $170 $363 $375 forward $95 $-1 #
vertex $-1 $375 $376 #
straight-curve $-1 -23.745376445814387 -22.267809934342779 8.90727670413116 -1 0 0 I I #
point $-1 -45.990752891628773 -22.267809934342779 8.90727670413116 #
point $-1 -45.990752891628773 -22.267809934342779 -8.90727670413116 #
face $-1 $-1 $377 $23 $-1 $378 reversed single #
loop $-1 $-1 $287 $175 #
plane-surface $-1 0 0 8.90727670413116 0 0 1 1 0 0 forward_v I I I I #
coedge $-1 $178 $292 $379 $380 forward $103 $-1 #
edge $-1 $381 -16.641144731831158 $290 -9.2981583789514666 $178 $382 forward 7 unknown #
coedge $-1 $180 $179 $383 $384 reversed $65 $-1 #
coedge $-1 $385 $185 $180 $288 forward $282 $-1 #
edge $-1 $289 9.2981583789514666 $386 16.641144731831158 $287 $387 forward 7 unknown #
vertex $-1 $186 $388 #
vertex $-1 $184 $389 #
straight-curve $-1 -45.990752891628773 22.267809934342779 0 0 0 -1 I I #
coedge $-1 $284 $183 $188 $298 forward $103 $-1 #
straight-curve $-1 -23.745376445814387 22.267809934342779 -8.90727670413116 -1 0 0 I I #
coedge $-1 $185 $385 $187 $297 forward $282 $-1 #
straight-curve $-1 -23.745376445814387 22.267809934342779 8.90727670413116 1 0 0 I I #
coedge $-1 $188 $187 $390 $391 forward $176 $-1 #
edge $-1 $392 -29.61079628722247 $190 -22.267809934342779 $187 $393 forward 7 unknown #
edge $-1 $189 22.267809934342779 $394 29.61079628722247 $188 $395 forward 7 unknown #
point $-1 -48.990752891628773 22.267809934342779 -8.90727670413116 #
point $-1 -48.990752891628773 22.267809934342779 8.90727670413116 #
plane-surface $-1 0 0 8.90727670413116 0 0 1 1 0 0 forward_v I I I I #
coedge $-1 $312 $311 $304 $396 forward $193 $-1 #
coedge $-1 $304 $195 $197 $308 reversed $111 $-1 #
coedge $-1 $195 $303 $302 $396 reversed $111 $-1 #
coedge $-1 $203 $198 $195 $306 forward $204 $-1 #
edge $-1 $309 13.965855984551531 $397 20.869363270231418 $305 $398 forward 7 unknown #
coedge $-1 $197 $196 $312 $399 reversed $69 $-1 #
edge $-1 $400 -97.981505783257532 $309 -87.664375891180498 $303 $401 forward 7 unknown #
vertex $-1 $199 $402 #
straight-curve $-1 42.08724560594888 -8.4704529342887049 8.9072767041311636 0 -1 0 I I #
coedge $-1 $302 $200 $203 $316 reversed $193 $-1 #
coedge $-1 $200 $302 $307 $399 forward $193 $-1 #
vertex $-1 $201 $403 #
straight-curve $-1 48.990752891628773 -11.614001802812041 69.808514113941314 0 0 1 I I #
straight-curve $-1 -16.571670583920678 -11.614001802812041 74.054604752333177 0.66913059716165679 0 -0.74314483375859142 I I #
edge $-1 $397 -22.267809934342779 $205 -11.614001802812041 $311 $404 forward 7 unknown #
point $-1 48.990752891628773 -11.614001802812041 8.90727670413116 #
point $-1 42.087245605948887 -11.614001802812041 8.9072767041311636 #
edge $-1 $405 1 $405 0 $208 $-1 forward 7 unknown #
vertex $-1 $209 $406 #
ellipse-curve $-1 41.773005585564718 -16.94090586857741 1.6827999741020871 0.74314483375859142 0 0.66913059716165679 1.0036958957424851 0 -1.1147172506378871 1 I I #
point $-1 46.542695144531329 -16.94090586857741 3.9589985642365884 #
loop $-1 $-1 $221 $212 #
plane-surface $-1 -47.490752891628773 -22.267809934342779 0 0 -1 0 0 0 -1 forward_v I I I I #
coedge $-1 $407 $329 $220 $333 forward $213 $-1 #
coedge $-1 $215 $218 $408 $409 forward $126 $-1 #
coedge $-1 $334 $221 $215 $328 reversed $323 $-1 #
edge $-1 $410 -25.245376445814387 $224 -18.341869160134507 $215 $411 forward 7 unknown #
coedge $-1 $325 $408 $217 $330 forward $213 $-1 #
edge $-1 $331 24.494012496452459 $337 32.161134274965832 $329 $412 forward 7 unknown #
vertex $-1 $409 $413 #
straight-curve $-1 -60.902601359172081 -11.614001802812041 8.90727670413116 -1 0 0 I I #
edge $-1 $337 3.1435488685233359 $335 13.797357000054074 $325 $414 forward 7 unknown #
coedge $-1 $221 $327 $407 $415 reversed $323 $-1 #
vertex $-1 $415 $416 #
straight-curve $-1 -48.963291380577097 -22.267809934342779 1.2706540242269724 0.66913059716165679 0 0.74314483375859142 I I #
vertex $-1 $333 $417 #
straight-curve $-1 -48.990752891628773 -11.614001802812041 1.2401549256177873 0.66913059716165679 0 0.74314483375859142 I I #
point $-1 -42.087245605948894 -22.267809934342779 8.90727670413116 #
point $-1 -42.087245605948894 -11.614001802812041 8.90727670413116 #
edge $-1 $418 1 $418 0 $227 $-1 forward 7 unknown #
vertex $-1 $228 $419 #
ellipse-curve $-1 -41.773005585564718 -16.94090586857741 1.6827999741020889 -0.74314483375859142 0 0.66913059716165679 1.0036958957424851 0 1.1147172506378871 1 I I #
point $-1 -44.535303353046359 -16.94090586857741 6.1884330655123643 #
plane-surface $-1 48.990752891628773 0 0 -1 0 0 0 0 1 forward_v I I I I #
coedge $-1 $236 $234 $238 $350 reversed $141 $-1 #
edge $-1 $249 -8.90727670413116 $352 8.90727670413116 $248 $420 forward 7 unknown #
vertex $-1 $350 $421 #
straight-curve $-1 -48.990752891628773 -29.61079628722247 0 0 0 -1 I I #
edge $-1 $348 -29.61079628722247 $352 29.61079628722247 $346 $422 forward 7 unknown #
straight-curve $-1 0 -29.61079628722247 -8.90727670413116 -1 0 0 I I #
vertex $-1 $241 $423 #
straight-curve $-1 0 29.61079628722247 -8.90727670413116 1 0 0 I I #
point $-1 48.990752891628773 29.61079628722247 -8.90727670413116 #
point $-1 48.990752891628773 -29.61079628722247 -8.90727670413116 #
straight-curve $-1 -48.990752891628773 0 8.90727670413116 0 -1 0 I I #
point $-1 -48.990752891628773 29.61079628722247 8.90727670413116 #
point $-1 -48.990752891628773 -29.61079628722247 8.90727670413116 #
straight-curve $-1 48.990752891628773 -29.61079628722247 0 0 0 -1 I I #
straight-curve $-1 48.990752891628773 29.61079628722247 0 0 0 -1 I I #
plane-surface $-1 0 -29.61079628722247 0 0 1 0 0 0 1 forward_v I I I I #
coedge $-1 $424 $261 $273 $373 reversed $160 $-1 #
coedge $-1 $261 $424 $276 $375 reversed $160 $-1 #
edge $-1 $425 -48.990752891628773 $270 -45.990752891628773 $266 $426 forward 7 unknown #
straight-curve $-1 -45.990752891628773 -12.969651555391312 8.90727670413116 0 1 0 I I #
coedge $-1 $273 $264 $267 $369 forward $259 $-1 #
straight-curve $-1 -45.990752891628773 -12.969651555391312 -8.90727670413116 0 -1 0 I I #
coedge $-1 $267 $266 $424 $427 forward $268 $-1 #
edge $-1 $269 45.990752891628773 $428 48.990752891628773 $267 $429 forward 7 unknown #
point $-1 -45.990752891628773 -29.61079628722247 -8.90727670413116 #
point $-1 -45.990752891628773 -29.61079628722247 8.90727670413116 #
straight-curve $-1 -48.990752891628773 -22.267809934342779 0 0 0 -1 I I #
edge $-1 $428 -29.61079628722247 $274 -22.267809934342779 $362 $430 forward 7 unknown #
point $-1 -48.990752891628773 -22.267809934342779 -8.90727670413116 #
edge $-1 $277 22.267809934342779 $425 29.61079628722247 $363 $431 forward 7 unknown #
point $-1 -48.990752891628773 -22.267809934342779 8.90727670413116 #
loop $-1 $-1 $383 $281 #
plane-surface $-1 0 29.61079628722247 0 0 -1 0 0 0 -1 forward_v I I I I #
coedge $-1 $390 $383 $284 $380 reversed $377 $-1 #
edge $-1 $394 -48.990752891628773 $381 -45.990752891628773 $379 $432 forward 7 unknown #
vertex $-1 $285 $433 #
straight-curve $-1 -45.990752891628773 12.969651555391312 -8.90727670413116 0 -1 0 I I #
coedge $-1 $379 $434 $286 $384 forward $377 $-1 #
edge $-1 $386 -8.90727670413116 $381 8.90727670413116 $383 $435 forward 7 unknown #
coedge $-1 $294 $287 $434 $436 forward $282 $-1 #
vertex $-1 $436 $437 #
straight-curve $-1 -45.990752891628773 12.969651555391312 8.90727670413116 0 1 0 I I #
point $-1 -45.990752891628773 22.267809934342779 8.90727670413116 #
point $-1 -45.990752891628773 22.267809934342779 -8.90727670413116 #
coedge $-1 $434 $379 $296 $391 reversed $377 $-1 #
edge $-1 $392 -8.90727670413116 $394 8.90727670413116 $390 $438 forward 7 unknown #
vertex $-1 $436 $439 #
straight-curve $-1 -48.990752891628773 0 8.90727670413116 0 -1 0 I I #
vertex $-1 $380 $440 #
straight-curve $-1 -48.990752891628773 0 -8.90727670413116 0 1 0 I I #
edge $-1 $397 60.90123740981015 $400 68.568359188323527 $302 $441 forward 7 unknown #
vertex $-1 $316 $442 #
straight-curve $-1 28.121389621397356 -22.267809934342779 8.9072767041311636 1 0 0 I I #
edge $-1 $400 -13.797357000054074 $313 -3.1435488685233359 $312 $443 forward 7 unknown #
vertex $-1 $399 $444 #
straight-curve $-1 -16.571670583920678 -22.267809934342779 74.054604752333177 -0.66913059716165679 0 0.74314483375859142 I I #
point $-1 42.087245605948887 -22.267809934342779 8.9072767041311636 #
point $-1 48.990752891628773 -11.614001802812041 1.2401549256177873 #
straight-curve $-1 48.990752891628773 0 8.90727670413116 0 1 0 I I #
vertex $-1 $319 $445 #
point $-1 42.776701481307207 -16.94090586857741 0.56808272346420008 #
coedge $-1 $408 $325 $334 $415 forward $213 $-1 #
coedge $-1 $329 $407 $326 $409 reversed $213 $-1 #
edge $-1 $331 11.614001802812041 $410 22.267809934342779 $408 $446 forward 7 unknown #
vertex $-1 $415 $447 #
straight-curve $-1 -23.745376445814387 -22.267809934342779 8.90727670413116 1 0 0 I I #
straight-curve $-1 -48.990752891628773 -11.614001802812041 33.401289200583619 0 0 -1 I I #
point $-1 -48.990752891628773 -11.614001802812041 8.90727670413116 #
straight-curve $-1 -48.990752891628773 -8.4704529342887049 1.2401549256177882 0 -1 0 I I #
edge $-1 $335 1.2401549256177873 $410 8.90727670413116 $407 $448 forward 7 unknown #
point $-1 -48.990752891628773 -22.267809934342779 1.2401549256177873 #
point $-1 -48.990752891628773 -11.614001802812041 1.2401549256177873 #
vertex $-1 $341 $449 #
point $-1 -40.769309689822236 -16.94090586857741 2.797517224739976 #
straight-curve $-1 -48.990752891628773 29.61079628722247 0 0 0 -1 I I #
point $-1 -48.990752891628773 -29.61079628722247 -8.90727670413116 #
straight-curve $-1 -48.990752891628773 0 -8.90727670413116 0 1 0 I I #
point $-1 -48.990752891628773 29.61079628722247 -8.90727670413116 #
coedge $-1 $363 $362 $368 $427 reversed $160 $-1 #
vertex $-1 $375 $450 #
straight-curve $-1 0 -29.61079628722247 8.90727670413116 1 0 0 I I #
edge $-1 $425 -8.90727670413116 $428 8.90727670413116 $424 $451 forward 7 unknown #
vertex $-1 $373 $452 #
straight-curve $-1 0 -29.61079628722247 -8.90727670413116 -1 0 0 I I #
straight-curve $-1 -48.990752891628773 0 -8.90727670413116 0 1 0 I I #
straight-curve $-1 -48.990752891628773 0 8.90727670413116 0 -1 0 I I #
straight-curve $-1 0 29.61079628722247 -8.90727670413116 1 0 0 I I #
point $-1 -45.990752891628773 29.61079628722247 -8.90727670413116 #
coedge $-1 $383 $390 $385 $436 reversed $377 $-1 #
straight-curve $-1 -45.990752891628773 29.61079628722247 0 0 0 -1 I I #
edge $-1 $386 45.990752891628773 $392 48.990752891628773 $434 $453 forward 7 unknown #
point $-1 -45.990752891628773 29.61079628722247 8.90727670413116 #
straight-curve $-1 -48.990752891628773 29.61079628722247 0 0 0 -1 I I #
point $-1 -48.990752891628773 29.61079628722247 8.90727670413116 #
point $-1 -48.990752891628773 29.61079628722247 -8.90727670413116 #
straight-curve $-1 48.990752891628773 -22.267809934342779 69.808514113941314 0 0 -1 I I #
point $-1 48.990752891628773 -22.267809934342779 8.90727670413116 #
straight-curve $-1 48.990752891628773 -8.4704529342887049 1.2401549256177802 0 1 0 I I #
point $-1 48.990752891628773 -22.267809934342779 1.2401549256177873 #
point $-1 40.658288334926837 -16.94090586857741 0.67910407835960207 #
straight-curve $-1 -48.990752891628773 0 8.90727670413116 0 -1 0 I I #
point $-1 -48.990752891628773 -22.267809934342779 8.90727670413116 #
straight-curve $-1 -48.990752891628773 -22.267809934342779 0 0 0 1 I I #
point $-1 -40.658288334926837 -16.94090586857741 0.67910407835960385 #
point $-1 -48.990752891628773 -29.61079628722247 8.90727670413116 #
straight-curve $-1 -48.990752891628773 -29.61079628722247 0 0 0 -1 I I #
point $-1 -48.990752891628773 -29.61079628722247 -8.90727670413116 #
straight-curve $-1 0 29.61079628722247 8.90727670413116 -1 0 0 I I #
End-of-ACIS-data 