500 0 6 0           
7 Unknown 11 ACIS 5.0 NT 24 Fri Mar 26 01:14:44 1999 
-1 9.9999999999999995e-007 1e-010 
body $-1 $6 $-1 $7 #
body $-1 $8 $-1 $9 #
body $-1 $10 $-1 $11 #
body $-1 $12 $-1 $13 #
body $-1 $14 $-1 $15 #
body $-1 $16 $-1 $17 #
lump $-1 $-1 $18 $0 #
transform $-1 1 0 0 0 1 0 0 0 1 53.625904110843223 30.137669734830101 7.5230584377290981 1 rotate no_reflect no_shear #
lump $-1 $-1 $19 $1 #
transform $-1 1 0 0 0 1 0 0 0 1 53.625904110843223 30.137669734830101 7.5230584377290981 1 rotate no_reflect no_shear #
lump $-1 $-1 $20 $2 #
transform $-1 1 0 0 0 1 0 0 0 1 53.625904110843223 30.137669734830101 7.5230584377290981 1 rotate no_reflect no_shear #
lump $-1 $-1 $21 $3 #
transform $-1 1 0 0 0 1 0 0 0 1 53.625904110843223 30.137669734830101 7.5230584377290981 1 rotate no_reflect no_shear #
lump $-1 $-1 $22 $4 #
transform $-1 1 0 0 0 1 0 0 0 1 53.625904110843223 30.137669734830101 7.5230584377290981 1 rotate no_reflect no_shear #
lump $-1 $-1 $23 $5 #
transform $-1 1 0 0 0 1 0 0 0 1 53.625904110843223 30.137669734830101 7.5230584377290981 1 rotate no_reflect no_shear #
shell $-1 $-1 $-1 $24 $-1 $6 #
shell $-1 $-1 $-1 $25 $-1 $8 #
shell $-1 $-1 $-1 $26 $-1 $10 #
shell $-1 $-1 $-1 $27 $-1 $12 #
shell $-1 $-1 $-1 $28 $-1 $14 #
shell $-1 $-1 $-1 $29 $-1 $16 #
face $-1 $30 $31 $18 $-1 $32 forward single #
face $-1 $33 $34 $19 $-1 $35 reversed single #
face $-1 $36 $37 $20 $-1 $38 forward single #
face $-1 $39 $40 $21 $-1 $41 reversed single #
face $-1 $42 $43 $22 $-1 $44 forward single #
face $-1 $45 $46 $23 $-1 $47 forward single #
face $-1 $48 $49 $18 $-1 $50 reversed single #
loop $-1 $-1 $51 $24 #
plane-surface $-1 0 0 7.5230584377290981 0 0 1 1 0 0 forward_v I I I I #
face $-1 $52 $53 $19 $-1 $54 reversed single #
loop $-1 $-1 $55 $25 #
plane-surface $-1 -51.83349818666624 -22.13076799891471 0 0 -1 0 0 0 -1 forward_v I I I I #
face $-1 $56 $57 $20 $-1 $58 reversed single #
loop $-1 $-1 $59 $26 #
plane-surface $-1 0 30.137669734830101 0 0 -1 0 0 0 -1 forward_v I I I I #
face $-1 $60 $61 $21 $-1 $62 reversed single #
loop $-1 $-1 $63 $27 #
plane-surface $-1 69.480465821969588 -12.534263662165291 152.37896020573834 0 -1 0 -0.77714596973225614 0 -0.62932038083071107 forward_v I I I I #
face $-1 $64 $65 $22 $-1 $66 forward single #
loop $-1 $67 $68 $28 #
cone-surface $-1 50.013780980651447 -19.388909616986304 3.5669634490252133 -0.77714596973225614 0 -0.62932038083071107 0.62932038083071107 0 -0.77714596973225614 1 I I 0 1 1 forward I I I I #
face $-1 $69 $70 $23 $-1 $71 forward single #
loop $-1 $72 $73 $29 #
cone-surface $-1 50.013780980651447 -15.276122044093695 3.5669634490252133 -0.77714596973225614 0 -0.62932038083071107 0.62932038083071107 0 -0.77714596973225614 1 I I 0 1 1 forward I I I I #
face $-1 $74 $75 $18 $-1 $76 reversed single #
loop $-1 $-1 $77 $30 #
plane-surface $-1 0 0 -7.5230584377290981 0 0 1 1 0 0 forward_v I I I I #
coedge $-1 $78 $79 $80 $81 forward $31 $-1 #
face $-1 $82 $83 $19 $-1 $84 forward single #
loop $-1 $-1 $85 $33 #
plane-surface $-1 -50.041092262489258 -26.134218866872406 0 -1 0 0 0 0 1 forward_v I I I I #
coedge $-1 $86 $87 $88 $89 forward $34 $-1 #
face $-1 $90 $91 $20 $-1 $92 forward single #
loop $-1 $-1 $93 $36 #
plane-surface $-1 53.625904110843223 0 0 -1 0 0 0 0 1 forward_v I I I I #
coedge $-1 $94 $95 $96 $97 forward $37 $-1 #
face $-1 $98 $99 $21 $-1 $100 reversed single #
loop $-1 $-1 $101 $39 #
plane-surface $-1 -13.869844684010886 -17.33251583054 84.883211410884229 0.77714596973225614 0 0.62932038083071107 0.62932038083071107 0 -0.77714596973225614 forward_v I I I I #
coedge $-1 $102 $103 $104 $105 reversed $40 $-1 #
face $-1 $-1 $106 $22 $-1 $107 forward single #
loop $-1 $108 $109 $42 #
cone-surface $-1 48.438451763585917 -19.388909616986304 2.2912870363186286 -0.77714596973225614 0 -0.62932038083071107 0.31466019041535553 0 -0.38857298486612807 1 I I -0.70710678118654746 0.70710678118654746 0.5 forward I I I I #
loop $-1 $-1 $110 $28 #
coedge $-1 $68 $68 $111 $112 reversed $43 $-1 #
face $-1 $-1 $113 $23 $-1 $114 forward single #
loop $-1 $115 $116 $45 #
cone-surface $-1 48.438451763585917 -15.276122044093695 2.2912870363186286 -0.77714596973225614 0 -0.62932038083071107 0.31466019041535553 0 -0.38857298486612807 1 I I -0.70710678118654746 0.70710678118654746 0.5 forward I I I I #
loop $-1 $-1 $117 $29 #
coedge $-1 $73 $73 $118 $119 reversed $46 $-1 #
face $-1 $120 $121 $18 $-1 $122 reversed single #
loop $-1 $-1 $123 $48 #
plane-surface $-1 0 -30.137669734830101 0 0 1 0 0 0 1 forward_v I I I I #
coedge $-1 $124 $125 $126 $127 forward $49 $-1 #
coedge $-1 $128 $51 $129 $130 forward $31 $-1 #
coedge $-1 $51 $128 $131 $132 forward $31 $-1 #
coedge $-1 $133 $134 $51 $81 reversed $135 $-1 #
edge $-1 $136 -30.137669734830101 $137 30.137669734830101 $80 $138 forward 7 unknown #
face $-1 $139 $140 $19 $-1 $141 reversed single #
loop $-1 $-1 $142 $52 #
plane-surface $-1 0 0 7.5230584377290981 0 0 1 1 0 0 forward_v I I I I #
coedge $-1 $143 $144 $145 $146 reversed $53 $-1 #
coedge $-1 $147 $55 $148 $149 reversed $34 $-1 #
coedge $-1 $55 $147 $150 $151 reversed $34 $-1 #
coedge $-1 $144 $143 $55 $89 reversed $53 $-1 #
edge $-1 $152 -7.5230584377290981 $153 7.5230584377290981 $88 $154 forward 7 unknown #
face $-1 $155 $156 $20 $-1 $157 reversed single #
loop $-1 $-1 $158 $56 #
plane-surface $-1 0 33.310881870556912 -0.34641642241878312 0 0 1 1 0 0 forward_v I I I I #
coedge $-1 $159 $160 $95 $161 forward $57 $-1 #
coedge $-1 $162 $59 $163 $164 reversed $37 $-1 #
coedge $-1 $59 $162 $93 $161 reversed $37 $-1 #
coedge $-1 $158 $165 $59 $97 reversed $91 $-1 #
edge $-1 $166 -53.625904110843223 $167 53.625904110843223 $96 $168 forward 7 unknown #
face $-1 $169 $170 $21 $-1 $171 forward single #
loop $-1 $-1 $172 $60 #
plane-surface $-1 69.480465821969588 -22.13076799891471 152.37896020573834 0 1 0 0.77714596973225614 0 0.62932038083071107 forward_v I I I I #
coedge $-1 $173 $174 $175 $176 reversed $61 $-1 #
coedge $-1 $103 $63 $177 $178 reversed $40 $-1 #
coedge $-1 $63 $102 $173 $179 reversed $40 $-1 #
coedge $-1 $175 $180 $63 $105 forward $170 $-1 #
edge $-1 $181 -18.885671199858429 $182 -14.03493740387367 $104 $183 forward 7 unknown #
loop $-1 $-1 $111 $64 #
plane-surface $-1 -13.869844684010886 -17.33251583054 84.883211410884229 0.77714596973225614 0 0.62932038083071107 0.62932038083071107 0 -0.77714596973225614 forward_v I I I I #
loop $-1 $-1 $184 $42 #
coedge $-1 $109 $109 $110 $185 reversed $65 $-1 #
coedge $-1 $110 $110 $109 $185 forward $67 $-1 #
coedge $-1 $111 $111 $68 $112 forward $106 $-1 #
edge $-1 $186 0 $186 6.2831853071796004 $111 $187 forward 7 unknown #
loop $-1 $-1 $118 $69 #
plane-surface $-1 -13.869844684010886 -17.33251583054 84.883211410884229 0.77714596973225614 0 0.62932038083071107 0.62932038083071107 0 -0.77714596973225614 forward_v I I I I #
loop $-1 $-1 $188 $45 #
coedge $-1 $116 $116 $117 $189 reversed $70 $-1 #
coedge $-1 $117 $117 $116 $189 forward $72 $-1 #
coedge $-1 $118 $118 $73 $119 forward $113 $-1 #
edge $-1 $190 0 $190 6.2831853071796004 $118 $191 forward 7 unknown #
face $-1 $192 $193 $18 $-1 $194 reversed single #
loop $-1 $-1 $195 $74 #
plane-surface $-1 -53.625904110843223 0 0 1 0 0 0 0 -1 forward_v I I I I #
coedge $-1 $196 $131 $197 $198 forward $75 $-1 #
coedge $-1 $199 $77 $196 $200 forward $49 $-1 #
coedge $-1 $77 $199 $201 $202 forward $49 $-1 #
coedge $-1 $134 $133 $77 $127 reversed $135 $-1 #
edge $-1 $203 -30.137669734830101 $204 30.137669734830101 $126 $205 forward 7 unknown #
coedge $-1 $79 $78 $206 $207 forward $31 $-1 #
coedge $-1 $208 $209 $78 $130 reversed $193 $-1 #
edge $-1 $137 -53.625904110843223 $210 53.625904110843223 $129 $211 forward 7 unknown #
coedge $-1 $123 $212 $79 $132 reversed $75 $-1 #
edge $-1 $213 -53.625904110843223 $136 53.625904110843223 $131 $214 forward 7 unknown #
coedge $-1 $126 $80 $212 $215 forward $135 $-1 #
coedge $-1 $80 $126 $208 $216 reversed $135 $-1 #
loop $-1 $-1 $133 $192 #
vertex $-1 $81 $217 #
vertex $-1 $81 $218 #
straight-curve $-1 53.625904110843223 0 7.5230584377290981 0 1 0 I I #
face $-1 $219 $220 $19 $-1 $221 reversed single #
loop $-1 $-1 $222 $82 #
plane-surface $-1 -53.625904110843223 0 0 1 0 0 0 0 -1 forward_v I I I I #
coedge $-1 $150 $223 $144 $224 forward $83 $-1 #
coedge $-1 $88 $85 $225 $226 reversed $53 $-1 #
coedge $-1 $85 $88 $142 $224 reversed $53 $-1 #
coedge $-1 $227 $228 $85 $146 forward $229 $-1 #
edge $-1 $230 -7.5230584377290981 $231 7.5230584377290981 $145 $232 forward 7 unknown #
coedge $-1 $87 $86 $222 $233 reversed $34 $-1 #
coedge $-1 $225 $234 $86 $149 forward $220 $-1 #
edge $-1 $235 -27.709155017510103 $153 -24.124343169156138 $148 $236 forward 7 unknown #
coedge $-1 $237 $142 $87 $151 forward $83 $-1 #
edge $-1 $152 24.124343169156138 $238 27.709155017510103 $150 $239 forward 7 unknown #
vertex $-1 $151 $240 #
vertex $-1 $149 $241 #
straight-curve $-1 -50.041092262489258 -22.13076799891471 0 0 0 -1 I I #
face $-1 $242 $243 $20 $-1 $244 reversed single #
loop $-1 $-1 $245 $90 #
plane-surface $-1 0 33.310881870556912 -3.3879205072593992 0 0 1 1 0 0 forward_v I I I I #
coedge $-1 $246 $96 $160 $247 forward $91 $-1 #
coedge $-1 $248 $93 $245 $249 reversed $57 $-1 #
coedge $-1 $93 $248 $158 $247 reversed $57 $-1 #
edge $-1 $166 0.34641642241878312 $250 3.3879205072593992 $93 $251 forward 7 unknown #
coedge $-1 $95 $94 $252 $253 forward $37 $-1 #
coedge $-1 $254 $255 $94 $164 forward $256 $-1 #
edge $-1 $257 -3.3879205072593992 $167 -0.34641642241878312 $163 $258 forward 7 unknown #
coedge $-1 $96 $246 $254 $259 forward $91 $-1 #
vertex $-1 $161 $260 #
vertex $-1 $259 $261 #
straight-curve $-1 0 30.137669734830101 -0.34641642241878312 -1 0 0 I I #
face $-1 $-1 $262 $21 $-1 $263 reversed single #
loop $-1 $-1 $104 $98 #
plane-surface $-1 0 0 7.5230584377290981 0 0 1 1 0 0 forward_v I I I I #
coedge $-1 $264 $265 $266 $267 reversed $99 $-1 #
coedge $-1 $268 $101 $103 $179 forward $61 $-1 #
coedge $-1 $101 $268 $264 $269 forward $61 $-1 #
coedge $-1 $266 $104 $101 $176 forward $170 $-1 #
edge $-1 $182 3.8680057468952906 $270 13.46451008364471 $175 $271 forward 7 unknown #
coedge $-1 $272 $273 $102 $178 forward $262 $-1 #
edge $-1 $274 -74.656579197965428 $181 -68.666421665140064 $177 $275 forward 7 unknown #
edge $-1 $182 99.543915797192383 $274 107.25180822168647 $103 $276 forward 7 unknown #
coedge $-1 $104 $266 $272 $277 forward $170 $-1 #
vertex $-1 $178 $278 #
vertex $-1 $105 $279 #
straight-curve $-1 34.740232910984794 -12.534263662165291 7.5230584377291052 -1 0 0 I I #
coedge $-1 $184 $184 $-1 $280 reversed $108 $-1 #
edge $-1 $281 0 $281 6.2831853071796004 $109 $282 forward 7 unknown #
vertex $-1 $112 $283 #
ellipse-curve $-1 51.200537212850833 -19.388909616986304 4.5279796713164329 0.77714596973225614 0 0.62932038083071107 0.62932038083071107 0 -0.77714596973225614 1 I I #
coedge $-1 $188 $188 $-1 $284 reversed $115 $-1 #
edge $-1 $285 0 $285 6.2831853071796004 $116 $286 forward 7 unknown #
vertex $-1 $119 $287 #
ellipse-curve $-1 51.200537212850833 -15.276122044093695 4.5279796713164329 0.77714596973225614 0 0.62932038083071107 0.62932038083071107 0 -0.77714596973225614 1 I I #
face $-1 $-1 $135 $18 $-1 $288 reversed single #
loop $-1 $-1 $208 $120 #
plane-surface $-1 0 30.137669734830101 0 0 -1 0 0 0 -1 forward_v I I I I #
coedge $-1 $289 $206 $209 $290 forward $121 $-1 #
coedge $-1 $212 $123 $124 $200 reversed $75 $-1 #
coedge $-1 $206 $289 $123 $198 reversed $121 $-1 #
edge $-1 $213 -7.5230584377290981 $291 7.5230584377290981 $197 $292 forward 7 unknown #
coedge $-1 $125 $124 $289 $293 forward $49 $-1 #
edge $-1 $204 -53.625904110843223 $291 53.625904110843223 $196 $294 forward 7 unknown #
coedge $-1 $209 $208 $125 $202 reversed $193 $-1 #
edge $-1 $295 -53.625904110843223 $203 53.625904110843223 $201 $296 forward 7 unknown #
vertex $-1 $127 $297 #
vertex $-1 $215 $298 #
straight-curve $-1 53.625904110843223 0 -7.5230584377290981 0 -1 0 I I #
coedge $-1 $195 $197 $128 $207 reversed $121 $-1 #
edge $-1 $210 -30.137669734830101 $213 30.137669734830101 $206 $299 forward 7 unknown #
coedge $-1 $201 $129 $134 $216 forward $193 $-1 #
coedge $-1 $129 $201 $195 $290 reversed $193 $-1 #
vertex $-1 $130 $300 #
straight-curve $-1 0 30.137669734830101 7.5230584377290981 -1 0 0 I I #
coedge $-1 $131 $196 $133 $215 reversed $75 $-1 #
vertex $-1 $207 $301 #
straight-curve $-1 0 -30.137669734830101 7.5230584377290981 1 0 0 I I #
edge $-1 $136 -7.5230584377290981 $204 7.5230584377290981 $133 $302 forward 7 unknown #
edge $-1 $137 -7.5230584377290981 $203 7.5230584377290981 $134 $303 forward 7 unknown #
point $-1 53.625904110843223 -30.137669734830101 7.5230584377290981 #
point $-1 53.625904110843223 30.137669734830101 7.5230584377290981 #
face $-1 $-1 $229 $19 $-1 $304 reversed single #
loop $-1 $-1 $225 $139 #
plane-surface $-1 0 0 -7.5230584377290981 0 0 1 1 0 0 forward_v I I I I #
coedge $-1 $305 $306 $147 $233 forward $140 $-1 #
coedge $-1 $142 $237 $227 $307 forward $83 $-1 #
edge $-1 $231 -17.070560301393897 $152 -9.0636585654785069 $142 $308 forward 7 unknown #
coedge $-1 $309 $148 $143 $226 forward $220 $-1 #
edge $-1 $153 9.0636585654785069 $230 17.070560301393897 $225 $310 forward 7 unknown #
coedge $-1 $311 $145 $223 $307 reversed $229 $-1 #
coedge $-1 $145 $311 $309 $312 reversed $229 $-1 #
loop $-1 $-1 $145 $219 #
vertex $-1 $312 $313 #
vertex $-1 $146 $314 #
straight-curve $-1 -50.041092262489258 -30.137669734830101 0 0 0 1 I I #
edge $-1 $238 -7.5230584377290981 $235 7.5230584377290981 $222 $315 forward 7 unknown #
coedge $-1 $148 $309 $305 $316 forward $220 $-1 #
vertex $-1 $149 $317 #
straight-curve $-1 -25.91674909333312 -22.13076799891471 -7.5230584377290981 1 0 0 I I #
coedge $-1 $223 $150 $306 $318 forward $83 $-1 #
vertex $-1 $318 $319 #
straight-curve $-1 -25.91674909333312 -22.13076799891471 7.5230584377290981 -1 0 0 I I #
point $-1 -50.041092262489258 -22.13076799891471 7.5230584377290981 #
point $-1 -50.041092262489258 -22.13076799891471 -7.5230584377290981 #
face $-1 $-1 $256 $20 $-1 $320 reversed single #
loop $-1 $-1 $321 $155 #
plane-surface $-1 0 36.484094006283712 -1.8671684648390912 0 -1 0 0 0 -1 forward_v I I I I #
coedge $-1 $252 $322 $159 $249 forward $156 $-1 #
coedge $-1 $165 $158 $323 $324 forward $91 $-1 #
edge $-1 $166 -3.1732121357268035 $325 3.1732121357267999 $160 $326 forward 7 unknown #
coedge $-1 $160 $159 $321 $327 reversed $57 $-1 #
edge $-1 $328 -3.1732121357267999 $250 3.1732121357268035 $159 $329 forward 7 unknown #
vertex $-1 $161 $330 #
straight-curve $-1 53.625904110843223 30.137669734830101 0 0 0 -1 I I #
coedge $-1 $331 $245 $162 $253 reversed $156 $-1 #
edge $-1 $257 -53.625904110843223 $250 53.625904110843223 $252 $332 forward 7 unknown #
coedge $-1 $333 $163 $165 $259 reversed $256 $-1 #
coedge $-1 $163 $333 $331 $334 reversed $256 $-1 #
loop $-1 $-1 $163 $242 #
vertex $-1 $164 $335 #
straight-curve $-1 -53.625904110843223 30.137669734830101 0 0 0 1 I I #
edge $-1 $336 -3.1732121357267999 $167 3.1732121357268035 $254 $337 forward 7 unknown #
point $-1 53.625904110843223 30.137669734830109 -0.34641642241878312 #
point $-1 -53.625904110843223 30.137669734830109 -0.34641642241878312 #
loop $-1 $-1 $177 $169 #
plane-surface $-1 53.625904110843223 0 0 -1 0 0 0 0 1 forward_v I I I I #
coedge $-1 $265 $172 $174 $269 reversed $99 $-1 #
coedge $-1 $172 $264 $338 $339 reversed $99 $-1 #
coedge $-1 $180 $175 $172 $267 forward $170 $-1 #
edge $-1 $270 14.03493740387367 $340 18.885671199858429 $266 $341 forward 7 unknown #
coedge $-1 $174 $173 $273 $342 reversed $61 $-1 #
edge $-1 $343 -107.25180822168647 $270 -99.543915797192383 $264 $344 forward 7 unknown #
vertex $-1 $176 $345 #
straight-curve $-1 48.775170314858464 -8.6662579152700001 7.5230584377290981 0 -1 0 I I #
coedge $-1 $338 $177 $180 $277 reversed $262 $-1 #
coedge $-1 $177 $338 $268 $342 forward $262 $-1 #
vertex $-1 $178 $346 #
straight-curve $-1 53.625904110843223 -12.534263662165291 76.189480102869169 0 0 1 I I #
straight-curve $-1 -13.869844684010886 -12.534263662165291 84.883211410884229 0.62932038083071107 0 -0.77714596973225614 I I #
edge $-1 $340 -22.13076799891471 $181 -12.534263662165291 $272 $347 forward 7 unknown #
point $-1 53.625904110843223 -12.534263662165291 7.5230584377290981 #
point $-1 48.775170314858464 -12.534263662165291 7.5230584377291052 #
edge $-1 $348 1 $348 0 $184 $-1 forward 7 unknown #
vertex $-1 $185 $349 #
ellipse-curve $-1 48.827024748452047 -19.388909616986304 2.605947226733984 0.77714596973225614 0 0.62932038083071107 0.62932038083071107 0 -0.77714596973225614 1 I I #
point $-1 51.82985759368156 -19.388909616986304 3.7508337015841864 #
edge $-1 $350 1 $350 0 $188 $-1 forward 7 unknown #
vertex $-1 $189 $351 #
ellipse-curve $-1 48.827024748452047 -15.276122044093695 2.605947226733984 0.77714596973225614 0 0.62932038083071107 0.62932038083071107 0 -0.77714596973225614 1 I I #
point $-1 51.82985759368156 -15.276122044093695 3.7508337015841864 #
plane-surface $-1 53.625904110843223 0 0 -1 0 0 0 0 1 forward_v I I I I #
coedge $-1 $197 $195 $199 $293 reversed $121 $-1 #
edge $-1 $210 -7.5230584377290981 $295 7.5230584377290981 $209 $352 forward 7 unknown #
vertex $-1 $293 $353 #
straight-curve $-1 -53.625904110843223 -30.137669734830101 0 0 0 -1 I I #
edge $-1 $291 -30.137669734830101 $295 30.137669734830101 $289 $354 forward 7 unknown #
straight-curve $-1 0 -30.137669734830101 -7.5230584377290981 -1 0 0 I I #
vertex $-1 $202 $355 #
straight-curve $-1 0 30.137669734830101 -7.5230584377290981 1 0 0 I I #
point $-1 53.625904110843223 30.137669734830101 -7.5230584377290981 #
point $-1 53.625904110843223 -30.137669734830101 -7.5230584377290981 #
straight-curve $-1 -53.625904110843223 0 7.5230584377290981 0 -1 0 I I #
point $-1 -53.625904110843223 30.137669734830101 7.5230584377290981 #
point $-1 -53.625904110843223 -30.137669734830101 7.5230584377290981 #
straight-curve $-1 53.625904110843223 -30.137669734830101 0 0 0 -1 I I #
straight-curve $-1 53.625904110843223 30.137669734830101 0 0 0 -1 I I #
plane-surface $-1 0 -30.137669734830101 0 0 1 0 0 0 1 forward_v I I I I #
coedge $-1 $356 $222 $234 $316 reversed $140 $-1 #
coedge $-1 $222 $356 $237 $318 reversed $140 $-1 #
edge $-1 $357 -53.625904110843223 $231 -50.041092262489258 $227 $358 forward 7 unknown #
straight-curve $-1 -50.041092262489258 -13.067109433436203 7.5230584377290981 0 1 0 I I #
coedge $-1 $234 $225 $228 $312 forward $220 $-1 #
straight-curve $-1 -50.041092262489258 -13.067109433436203 -7.5230584377290981 0 -1 0 I I #
coedge $-1 $228 $227 $356 $359 forward $229 $-1 #
edge $-1 $230 50.041092262489258 $360 53.625904110843223 $228 $361 forward 7 unknown #
point $-1 -50.041092262489258 -30.137669734830101 -7.5230584377290981 #
point $-1 -50.041092262489258 -30.137669734830101 7.5230584377290981 #
straight-curve $-1 -53.625904110843223 -22.13076799891471 0 0 0 -1 I I #
edge $-1 $360 -30.137669734830101 $235 -22.13076799891471 $305 $362 forward 7 unknown #
point $-1 -53.625904110843223 -22.13076799891471 -7.5230584377290981 #
edge $-1 $238 22.13076799891471 $357 30.137669734830101 $306 $363 forward 7 unknown #
point $-1 -53.625904110843223 -22.13076799891471 7.5230584377290981 #
plane-surface $-1 -53.625904110843223 0 0 1 0 0 0 0 -1 forward_v I I I I #
coedge $-1 $364 $323 $248 $327 forward $243 $-1 #
coedge $-1 $245 $331 $364 $365 forward $156 $-1 #
coedge $-1 $321 $366 $246 $324 reversed $243 $-1 #
edge $-1 $325 -53.625904110843223 $336 53.625904110843223 $323 $367 forward 7 unknown #
vertex $-1 $247 $368 #
straight-curve $-1 53.625904110843223 33.310881870556912 -0.34641642241878312 0 1 0 I I #
edge $-1 $325 -1.520752042420308 $328 1.520752042420308 $248 $369 forward 7 unknown #
vertex $-1 $249 $370 #
straight-curve $-1 53.625904110843223 33.310881870556912 -3.3879205072593992 0 -1 0 I I #
point $-1 53.625904110843223 30.137669734830109 -3.3879205072593992 #
coedge $-1 $322 $252 $255 $334 forward $156 $-1 #
straight-curve $-1 0 30.137669734830101 -3.3879205072593992 1 0 0 I I #
coedge $-1 $255 $254 $366 $371 forward $256 $-1 #
edge $-1 $257 -3.1732121357268035 $372 3.1732121357267999 $255 $373 forward 7 unknown #
point $-1 -53.625904110843223 30.137669734830109 -3.3879205072593992 #
vertex $-1 $324 $374 #
straight-curve $-1 -53.625904110843223 33.310881870556912 -0.34641642241878312 0 -1 0 I I #
coedge $-1 $273 $272 $265 $339 forward $262 $-1 #
edge $-1 $340 68.666421665140064 $343 74.656579197965428 $338 $375 forward 7 unknown #
vertex $-1 $277 $376 #
straight-curve $-1 34.740232910984794 -22.13076799891471 7.5230584377291052 1 0 0 I I #
edge $-1 $343 -13.46451008364471 $274 -3.8680057468952906 $273 $377 forward 7 unknown #
vertex $-1 $342 $378 #
straight-curve $-1 -13.869844684010886 -22.13076799891471 84.883211410884229 -0.62932038083071107 0 0.77714596973225614 I I #
point $-1 48.775170314858464 -22.13076799891471 7.5230584377291052 #
point $-1 53.625904110843223 -12.534263662165291 1.532900904903741 #
straight-curve $-1 53.625904110843223 0 7.5230584377290981 0 1 0 I I #
vertex $-1 $280 $379 #
point $-1 49.456345129282759 -19.388909616986304 1.828801257001728 #
vertex $-1 $284 $380 #
point $-1 49.456345129282759 -15.276122044093695 1.828801257001728 #
straight-curve $-1 -53.625904110843223 30.137669734830101 0 0 0 -1 I I #
point $-1 -53.625904110843223 -30.137669734830101 -7.5230584377290981 #
straight-curve $-1 -53.625904110843223 0 -7.5230584377290981 0 1 0 I I #
point $-1 -53.625904110843223 30.137669734830101 -7.5230584377290981 #
coedge $-1 $306 $305 $311 $359 reversed $140 $-1 #
vertex $-1 $318 $381 #
straight-curve $-1 0 -30.137669734830101 7.5230584377290981 1 0 0 I I #
edge $-1 $357 -7.5230584377290981 $360 7.5230584377290981 $356 $382 forward 7 unknown #
vertex $-1 $316 $383 #
straight-curve $-1 0 -30.137669734830101 -7.5230584377290981 -1 0 0 I I #
straight-curve $-1 -53.625904110843223 0 -7.5230584377290981 0 1 0 I I #
straight-curve $-1 -53.625904110843223 0 7.5230584377290981 0 -1 0 I I #
coedge $-1 $366 $321 $322 $365 reversed $243 $-1 #
edge $-1 $372 -53.625904110843223 $328 53.625904110843223 $364 $384 forward 7 unknown #
coedge $-1 $323 $364 $333 $371 reversed $243 $-1 #
straight-curve $-1 0 36.484094006283712 -0.34641642241878312 -1 0 0 I I #
point $-1 53.625904110843223 36.484094006283712 -0.34641642241878312 #
straight-curve $-1 53.625904110843223 36.484094006283712 -1.8671684648390912 0 0 -1 I I #
point $-1 53.625904110843223 36.484094006283712 -3.3879205072593992 #
edge $-1 $336 -1.520752042420308 $372 1.520752042420308 $366 $385 forward 7 unknown #
vertex $-1 $365 $386 #
straight-curve $-1 -53.625904110843223 33.310881870556912 -3.3879205072593992 0 1 0 I I #
point $-1 -53.625904110843223 36.484094006283712 -0.34641642241878312 #
straight-curve $-1 53.625904110843223 -22.13076799891471 76.189480102869169 0 0 -1 I I #
point $-1 53.625904110843223 -22.13076799891471 7.5230584377290981 #
straight-curve $-1 53.625904110843223 -8.6662579152700001 1.5329009049037481 0 1 0 I I #
point $-1 53.625904110843223 -22.13076799891471 1.532900904903741 #
point $-1 48.049878778719787 -19.388909616986304 1.9766268459032732 #
point $-1 48.049878778719787 -15.276122044093695 1.9766268459032732 #
point $-1 -53.625904110843223 -30.137669734830101 7.5230584377290981 #
straight-curve $-1 -53.625904110843223 -30.137669734830101 0 0 0 -1 I I #
point $-1 -53.625904110843223 -30.137669734830101 -7.5230584377290981 #
straight-curve $-1 0 36.484094006283712 -3.3879205072593992 1 0 0 I I #
straight-curve $-1 -53.625904110843223 36.484094006283712 -1.8671684648390912 0 0 -1 I I #
point $-1 -53.625904110843223 36.484094006283712 -3.3879205072593992 #
End-of-ACIS-data 