500 0 5 0           
7 Unknown 11 ACIS 5.0 NT 24 Fri Mar 26 17:15:30 1999 
-1 9.9999999999999995e-007 1e-010 
body $-1 $5 $-1 $6 #
body $-1 $7 $-1 $8 #
body $-1 $9 $-1 $10 #
body $-1 $11 $-1 $12 #
body $-1 $13 $-1 $14 #
lump $-1 $-1 $15 $0 #
transform $-1 1 0 0 0 1 0 0 0 1 73.028351695303201 44.06127833935988 12.837434371477428 1 rotate no_reflect no_shear #
lump $-1 $-1 $16 $1 #
transform $-1 1 0 0 0 1 0 0 0 1 73.028351695303201 44.06127833935988 12.837434371477428 1 rotate no_reflect no_shear #
lump $-1 $-1 $17 $2 #
transform $-1 1 0 0 0 1 0 0 0 1 73.028351695303201 44.06127833935988 12.837434371477428 1 rotate no_reflect no_shear #
lump $-1 $-1 $18 $3 #
transform $-1 1 0 0 0 1 0 0 0 1 73.028351695303201 44.06127833935988 12.837434371477428 1 rotate no_reflect no_shear #
lump $-1 $-1 $19 $4 #
transform $-1 1 0 0 0 1 0 0 0 1 73.028351695303201 44.06127833935988 12.837434371477428 1 rotate no_reflect no_shear #
shell $-1 $-1 $-1 $20 $-1 $5 #
shell $-1 $-1 $-1 $21 $-1 $7 #
shell $-1 $-1 $-1 $22 $-1 $9 #
shell $-1 $-1 $-1 $23 $-1 $11 #
shell $-1 $-1 $-1 $24 $-1 $13 #
face $-1 $25 $26 $15 $-1 $27 forward single #
face $-1 $28 $29 $16 $-1 $30 reversed single #
face $-1 $31 $32 $17 $-1 $33 forward single #
face $-1 $34 $35 $18 $-1 $36 reversed single #
face $-1 $37 $38 $19 $-1 $39 forward single #
face $-1 $40 $41 $15 $-1 $42 reversed single #
loop $-1 $-1 $43 $20 #
plane-surface $-1 0 0 12.837434371477428 0 0 1 1 0 0 forward_v I I I I #
face $-1 $44 $45 $16 $-1 $46 reversed single #
loop $-1 $-1 $47 $21 #
plane-surface $-1 -26.582079198767588 -34.193310838722269 113.45315793990024 0.73135370988377701 0 0.68199835119979291 0.68199835119979291 0 -0.73135370988377701 forward_v I I I I #
face $-1 $48 $49 $17 $-1 $50 forward single #
loop $-1 $51 $52 $22 #
cone-surface $-1 69.698952997641399 -34.193310838722269 9.3282104544778832 -0.73135370988377701 0 -0.68199835119979291 0.68199835119979291 0 -0.73135370988377701 1 I I 0 1 1 forward I I I I #
face $-1 $53 $54 $18 $-1 $55 reversed single #
loop $-1 $-1 $56 $23 #
plane-surface $-1 -179.8474635734176 -24.325343338084661 106.2444769558566 0 -1 0 0.73135370988377701 0 -0.68199835119979291 forward_v I I I I #
face $-1 $57 $58 $19 $-1 $59 forward single #
loop $-1 $60 $61 $24 #
cone-surface $-1 -69.698952997641385 -34.193310838722269 9.3282104544778832 0.73135370988377701 0 -0.68199835119979291 0.68199835119979291 0 0.73135370988377701 1 I I 0 1 1 forward I I I I #
face $-1 $62 $63 $15 $-1 $64 reversed single #
loop $-1 $-1 $65 $25 #
plane-surface $-1 0 0 -12.837434371477428 0 0 1 1 0 0 forward_v I I I I #
coedge $-1 $66 $67 $68 $69 forward $26 $-1 #
face $-1 $70 $71 $16 $-1 $72 forward single #
loop $-1 $-1 $73 $28 #
plane-surface $-1 80.237032679346839 -24.325343338084661 213.06358883397101 0 -1 0 -0.73135370988377701 0 -0.68199835119979291 forward_v I I I I #
coedge $-1 $74 $75 $76 $77 reversed $29 $-1 #
face $-1 $-1 $78 $17 $-1 $79 forward single #
loop $-1 $80 $81 $31 #
cone-surface $-1 68.896253966744297 -34.193310838722269 8.5796815167242357 -0.73135370988377701 0 -0.68199835119979291 0.34099917559989645 0 -0.36567685494188851 1 I I -0.70710678118654746 0.70710678118654746 0.5 forward I I I I #
loop $-1 $-1 $82 $22 #
coedge $-1 $52 $52 $83 $84 reversed $32 $-1 #
face $-1 $85 $86 $18 $-1 $87 reversed single #
loop $-1 $-1 $88 $34 #
plane-surface $-1 -73.028351695303172 -34.193310838722269 6.6340460617858241 -0.73135370988377701 0 0.68199835119979291 0.68199835119979291 0 0.73135370988377701 forward_v I I I I #
coedge $-1 $89 $90 $91 $92 reversed $35 $-1 #
face $-1 $-1 $93 $19 $-1 $94 forward single #
loop $-1 $95 $96 $37 #
cone-surface $-1 -68.896253966744283 -34.193310838722269 8.5796815167242357 0.73135370988377701 0 -0.68199835119979291 0.34099917559989645 0 0.36567685494188851 1 I I -0.70710678118654746 0.70710678118654746 0.5 forward I I I I #
loop $-1 $-1 $97 $24 #
coedge $-1 $61 $61 $98 $99 reversed $38 $-1 #
face $-1 $100 $101 $15 $-1 $102 reversed single #
loop $-1 $-1 $103 $40 #
plane-surface $-1 0 -44.06127833935988 0 0 1 0 0 0 1 forward_v I I I I #
coedge $-1 $104 $105 $106 $107 forward $41 $-1 #
coedge $-1 $108 $43 $109 $110 forward $26 $-1 #
coedge $-1 $43 $108 $111 $112 forward $26 $-1 #
coedge $-1 $113 $114 $43 $69 reversed $115 $-1 #
edge $-1 $116 -44.06127833935988 $117 44.06127833935988 $68 $118 forward 7 unknown #
face $-1 $119 $120 $16 $-1 $121 reversed single #
loop $-1 $-1 $122 $44 #
plane-surface $-1 0 0 12.837434371477428 0 0 1 1 0 0 forward_v I I I I #
coedge $-1 $123 $124 $125 $126 reversed $45 $-1 #
coedge $-1 $127 $47 $128 $129 reversed $29 $-1 #
coedge $-1 $47 $127 $123 $130 forward $29 $-1 #
coedge $-1 $125 $131 $47 $77 forward $132 $-1 #
edge $-1 $133 -26.964622919998746 $134 -7.2286879187235265 $76 $135 forward 7 unknown #
loop $-1 $-1 $83 $48 #
plane-surface $-1 -26.582079198767588 -34.193310838722269 113.45315793990024 0.73135370988377701 0 0.68199835119979291 0.68199835119979291 0 -0.73135370988377701 forward_v I I I I #
loop $-1 $-1 $136 $31 #
coedge $-1 $81 $81 $82 $137 reversed $49 $-1 #
coedge $-1 $82 $82 $81 $137 forward $51 $-1 #
coedge $-1 $83 $83 $52 $84 forward $78 $-1 #
edge $-1 $138 0 $138 6.2831853071796004 $83 $139 forward 7 unknown #
face $-1 $140 $141 $18 $-1 $142 reversed single #
loop $-1 $-1 $91 $53 #
plane-surface $-1 -73.028351695303201 0 0 1 0 0 0 0 -1 forward_v I I I I #
coedge $-1 $143 $144 $145 $146 reversed $54 $-1 #
coedge $-1 $90 $56 $147 $148 reversed $35 $-1 #
coedge $-1 $56 $89 $143 $149 reversed $35 $-1 #
coedge $-1 $145 $150 $56 $92 forward $86 $-1 #
edge $-1 $151 40.284804106450871 $152 46.488192416142503 $91 $153 forward 7 unknown #
loop $-1 $-1 $98 $57 #
plane-surface $-1 -73.028351695303172 -34.193310838722269 6.6340460617858241 -0.73135370988377701 0 0.68199835119979291 0.68199835119979291 0 0.73135370988377701 forward_v I I I I #
loop $-1 $-1 $154 $37 #
coedge $-1 $96 $96 $97 $155 reversed $58 $-1 #
coedge $-1 $97 $97 $96 $155 forward $60 $-1 #
coedge $-1 $98 $98 $61 $99 forward $93 $-1 #
edge $-1 $156 0 $156 6.2831853071796004 $98 $157 forward 7 unknown #
face $-1 $158 $159 $15 $-1 $160 reversed single #
loop $-1 $-1 $161 $62 #
plane-surface $-1 -73.028351695303201 0 0 1 0 0 0 0 -1 forward_v I I I I #
coedge $-1 $162 $111 $163 $164 forward $63 $-1 #
coedge $-1 $165 $65 $162 $166 forward $41 $-1 #
coedge $-1 $65 $165 $167 $168 forward $41 $-1 #
coedge $-1 $114 $113 $65 $107 reversed $115 $-1 #
edge $-1 $169 -44.06127833935988 $170 44.06127833935988 $106 $171 forward 7 unknown #
coedge $-1 $67 $66 $172 $173 forward $26 $-1 #
coedge $-1 $174 $175 $66 $110 reversed $159 $-1 #
edge $-1 $117 -73.028351695303201 $176 73.028351695303201 $109 $177 forward 7 unknown #
coedge $-1 $103 $178 $67 $112 reversed $63 $-1 #
edge $-1 $179 -73.028351695303201 $116 73.028351695303201 $111 $180 forward 7 unknown #
coedge $-1 $106 $68 $178 $181 forward $115 $-1 #
coedge $-1 $68 $106 $174 $182 reversed $115 $-1 #
loop $-1 $-1 $113 $158 #
vertex $-1 $69 $183 #
vertex $-1 $69 $184 #
straight-curve $-1 73.028351695303201 0 12.837434371477428 0 1 0 I I #
face $-1 $-1 $132 $16 $-1 $185 reversed single #
loop $-1 $-1 $128 $70 #
plane-surface $-1 0 -44.06127833935988 0 0 1 0 0 0 1 forward_v I I I I #
coedge $-1 $186 $187 $124 $188 forward $71 $-1 #
coedge $-1 $124 $73 $75 $130 reversed $45 $-1 #
coedge $-1 $73 $123 $122 $188 reversed $45 $-1 #
coedge $-1 $189 $76 $73 $126 forward $132 $-1 #
edge $-1 $134 -99.89774835519971 $190 -93.694360045508077 $125 $191 forward 7 unknown #
coedge $-1 $75 $74 $186 $192 reversed $29 $-1 #
coedge $-1 $193 $194 $74 $129 forward $120 $-1 #
edge $-1 $195 87.022979227558977 $133 95.505042319407465 $128 $196 forward 7 unknown #
edge $-1 $197 137.57464029875794 $134 146.0567033906064 $123 $198 forward 7 unknown #
coedge $-1 $76 $189 $193 $199 forward $132 $-1 #
loop $-1 $-1 $125 $119 #
vertex $-1 $129 $200 #
vertex $-1 $77 $201 #
straight-curve $-1 73.028351695303201 -17.096655419361134 6.6340460617857957 0 1 0 I I #
coedge $-1 $136 $136 $-1 $202 reversed $80 $-1 #
edge $-1 $203 0 $203 6.2831853071796004 $81 $204 forward 7 unknown #
vertex $-1 $84 $205 #
ellipse-curve $-1 70.135975173596577 -34.193310838722269 9.7357402166316032 0.73135370988377701 0 0.68199835119979291 0.68199835119979291 0 -0.73135370988377701 1 I I #
face $-1 $-1 $206 $18 $-1 $207 forward single #
loop $-1 $-1 $208 $85 #
plane-surface $-1 0 -44.06127833935988 0 0 1 0 0 0 1 forward_v I I I I #
coedge $-1 $209 $88 $90 $149 forward $54 $-1 #
coedge $-1 $88 $209 $208 $210 reversed $54 $-1 #
coedge $-1 $211 $91 $88 $146 forward $86 $-1 #
edge $-1 $152 7.2286879187235265 $212 26.964622919998746 $145 $213 forward 7 unknown #
coedge $-1 $214 $215 $89 $148 forward $206 $-1 #
edge $-1 $216 -22.680133134818874 $151 -16.895380091405599 $147 $217 forward 7 unknown #
edge $-1 $152 -4.1469026767552634e-014 $216 8.4820630918484259 $90 $218 forward 7 unknown #
coedge $-1 $91 $211 $214 $219 reversed $86 $-1 #
vertex $-1 $219 $220 #
vertex $-1 $92 $221 #
straight-curve $-1 -73.028351695303201 -24.325343338084661 53.122238477928299 0 0 -1 I I #
coedge $-1 $154 $154 $-1 $222 reversed $95 $-1 #
edge $-1 $223 0 $223 6.2831853071796004 $96 $224 forward 7 unknown #
vertex $-1 $99 $225 #
ellipse-curve $-1 -70.135975173596563 -34.193310838722269 9.7357402166316085 -0.73135370988377701 0 0.68199835119979291 0.68199835119979291 0 0.73135370988377701 1 I I #
face $-1 $-1 $115 $15 $-1 $226 reversed single #
loop $-1 $-1 $174 $100 #
plane-surface $-1 0 44.06127833935988 0 0 -1 0 0 0 -1 forward_v I I I I #
coedge $-1 $227 $172 $175 $228 forward $101 $-1 #
coedge $-1 $178 $103 $104 $166 reversed $63 $-1 #
coedge $-1 $172 $227 $103 $164 reversed $101 $-1 #
edge $-1 $179 -12.837434371477428 $229 12.837434371477428 $163 $230 forward 7 unknown #
coedge $-1 $105 $104 $227 $231 forward $41 $-1 #
edge $-1 $170 -73.028351695303201 $229 73.028351695303201 $162 $232 forward 7 unknown #
coedge $-1 $175 $174 $105 $168 reversed $159 $-1 #
edge $-1 $233 -73.028351695303201 $169 73.028351695303201 $167 $234 forward 7 unknown #
vertex $-1 $107 $235 #
vertex $-1 $181 $236 #
straight-curve $-1 73.028351695303201 0 -12.837434371477428 0 -1 0 I I #
coedge $-1 $161 $163 $108 $173 reversed $101 $-1 #
edge $-1 $176 -44.06127833935988 $179 44.06127833935988 $172 $237 forward 7 unknown #
coedge $-1 $167 $109 $114 $182 forward $159 $-1 #
coedge $-1 $109 $167 $161 $228 reversed $159 $-1 #
vertex $-1 $110 $238 #
straight-curve $-1 0 44.06127833935988 12.837434371477428 -1 0 0 I I #
coedge $-1 $111 $162 $113 $181 reversed $63 $-1 #
vertex $-1 $173 $239 #
straight-curve $-1 0 -44.06127833935988 12.837434371477428 1 0 0 I I #
edge $-1 $116 -12.837434371477428 $170 12.837434371477428 $113 $240 forward 7 unknown #
edge $-1 $117 -12.837434371477428 $169 12.837434371477428 $114 $241 forward 7 unknown #
point $-1 73.028351695303201 -44.06127833935988 12.837434371477428 #
point $-1 73.028351695303201 44.06127833935988 12.837434371477428 #
plane-surface $-1 73.028351695303201 0 0 -1 0 0 0 0 1 forward_v I I I I #
coedge $-1 $242 $122 $127 $192 forward $71 $-1 #
coedge $-1 $122 $242 $189 $243 forward $71 $-1 #
edge $-1 $190 -32.909835355629781 $197 -27.125082312216506 $122 $244 forward 7 unknown #
coedge $-1 $131 $125 $187 $243 reversed $132 $-1 #
vertex $-1 $126 $245 #
straight-curve $-1 73.028351695303201 -24.325343338084661 106.53179441698551 0 0 1 I I #
edge $-1 $197 7.2286879187235265 $195 26.964622919998739 $186 $246 forward 7 unknown #
coedge $-1 $194 $128 $131 $199 reversed $120 $-1 #
coedge $-1 $128 $193 $242 $247 reversed $120 $-1 #
vertex $-1 $247 $248 #
straight-curve $-1 7.8940703022008627 -44.06127833935988 76.482013074691551 0.68199835119979291 0 -0.73135370988377701 I I #
vertex $-1 $192 $249 #
straight-curve $-1 -26.582079198767588 -24.325343338084661 113.45315793990024 0.68199835119979291 0 -0.73135370988377701 I I #
edge $-1 $250 -12.837434371477428 $133 -6.6340460617857726 $131 $251 forward 7 unknown #
point $-1 73.028351695303201 -44.06127833935988 6.6340460617857726 #
point $-1 73.028351695303201 -24.325343338084661 6.6340460617857957 #
edge $-1 $252 1 $252 0 $136 $-1 forward 7 unknown #
vertex $-1 $137 $253 #
ellipse-curve $-1 69.261930821686178 -34.193310838722269 8.9206806923241331 0.73135370988377701 0 0.68199835119979291 0.68199835119979291 0 -0.73135370988377701 1 I I #
point $-1 70.8179735247964 -34.193310838722269 9.0043865067478581 #
loop $-1 $-1 $147 $140 #
plane-surface $-1 0 0 12.837434371477428 0 0 1 1 0 0 forward_v I I I I #
coedge $-1 $254 $255 $144 $210 forward $141 $-1 #
coedge $-1 $144 $143 $215 $256 reversed $54 $-1 #
edge $-1 $212 -22.476690624104261 $257 -13.994627532255805 $208 $258 forward 7 unknown #
coedge $-1 $150 $145 $255 $259 reversed $86 $-1 #
vertex $-1 $210 $260 #
straight-curve $-1 -73.028351695303201 -17.096655419361134 6.6340460617857886 0 -1 0 I I #
coedge $-1 $261 $147 $150 $219 forward $206 $-1 #
coedge $-1 $147 $261 $209 $256 forward $206 $-1 #
vertex $-1 $148 $262 #
straight-curve $-1 -89.9237317867088 -24.325343338084661 12.837434371477428 -1 0 0 I I #
straight-curve $-1 -73.028351695303172 -24.325343338084661 6.6340460617858241 0.68199835119979291 0 0.73135370988377701 I I #
edge $-1 $151 24.325343338084661 $263 44.06127833935988 $150 $264 forward 7 unknown #
point $-1 -73.028351695303201 -24.325343338084661 12.837434371477428 #
point $-1 -73.028351695303201 -24.325343338084661 6.6340460617857939 #
edge $-1 $265 1 $265 0 $154 $-1 forward 7 unknown #
vertex $-1 $155 $266 #
ellipse-curve $-1 -69.261930821686178 -34.193310838722269 8.9206806923241331 -0.73135370988377701 0 0.68199835119979291 0.68199835119979291 0 0.73135370988377701 1 I I #
point $-1 -69.453976822396797 -34.193310838722269 10.467093926515412 #
plane-surface $-1 73.028351695303201 0 0 -1 0 0 0 0 1 forward_v I I I I #
coedge $-1 $163 $161 $165 $231 reversed $101 $-1 #
edge $-1 $176 -12.837434371477428 $233 12.837434371477428 $175 $267 forward 7 unknown #
vertex $-1 $231 $268 #
straight-curve $-1 -73.028351695303201 -44.06127833935988 0 0 0 -1 I I #
edge $-1 $229 -44.06127833935988 $233 44.06127833935988 $227 $269 forward 7 unknown #
straight-curve $-1 0 -44.06127833935988 -12.837434371477428 -1 0 0 I I #
vertex $-1 $168 $270 #
straight-curve $-1 0 44.06127833935988 -12.837434371477428 1 0 0 I I #
point $-1 73.028351695303201 44.06127833935988 -12.837434371477428 #
point $-1 73.028351695303201 -44.06127833935988 -12.837434371477428 #
straight-curve $-1 -73.028351695303201 0 12.837434371477428 0 -1 0 I I #
point $-1 -73.028351695303201 44.06127833935988 12.837434371477428 #
point $-1 -73.028351695303201 -44.06127833935988 12.837434371477428 #
straight-curve $-1 73.028351695303201 -44.06127833935988 0 0 0 -1 I I #
straight-curve $-1 73.028351695303201 44.06127833935988 0 0 0 -1 I I #
coedge $-1 $187 $186 $194 $247 forward $71 $-1 #
edge $-1 $250 -44.06127833935988 $190 -24.325343338084661 $189 $271 forward 7 unknown #
straight-curve $-1 40.11851633967342 -24.325343338084661 12.837434371477428 -1 0 0 I I #
point $-1 73.028351695303201 -24.325343338084661 12.837434371477428 #
straight-curve $-1 67.243598651889911 -17.096655419361134 12.837434371477428 0 -1 0 I I #
edge $-1 $195 67.243598651889926 $250 73.028351695303201 $194 $272 forward 7 unknown #
point $-1 67.243598651889926 -44.061278339359873 12.837434371477428 #
point $-1 67.243598651889926 -24.325343338084661 12.837434371477428 #
vertex $-1 $243 $273 #
straight-curve $-1 73.028351695303201 -44.06127833935988 0 0 0 -1 I I #
vertex $-1 $202 $274 #
point $-1 69.943929172885973 -34.193310838722269 8.1893269824403561 #
coedge $-1 $255 $208 $261 $275 reversed $141 $-1 #
coedge $-1 $208 $254 $211 $259 forward $141 $-1 #
edge $-1 $257 -26.964622919998746 $216 -7.2286879187235265 $215 $276 forward 7 unknown #
vertex $-1 $256 $277 #
straight-curve $-1 -57.699285749236246 -44.06127833935988 23.072457135634352 0.68199835119979291 0 0.73135370988377701 I I #
edge $-1 $263 -12.837434371477428 $212 -6.6340460617857948 $211 $278 forward 7 unknown #
point $-1 -73.028351695303201 -44.06127833935988 6.6340460617857948 #
coedge $-1 $215 $214 $254 $275 forward $206 $-1 #
point $-1 -67.243598651889926 -24.325343338084661 12.837434371477428 #
vertex $-1 $219 $279 #
straight-curve $-1 -73.028351695303201 0 12.837434371477428 0 -1 0 I I #
vertex $-1 $222 $280 #
point $-1 -68.579932470486384 -34.193310838722269 9.6520344022079101 #
straight-curve $-1 -73.028351695303201 44.06127833935988 0 0 0 -1 I I #
point $-1 -73.028351695303201 -44.06127833935988 -12.837434371477428 #
straight-curve $-1 -73.028351695303201 0 -12.837434371477428 0 1 0 I I #
point $-1 -73.028351695303201 44.06127833935988 -12.837434371477428 #
straight-curve $-1 73.028351695303201 0 12.837434371477428 0 1 0 I I #
straight-curve $-1 0 -44.06127833935988 12.837434371477428 1 0 0 I I #
point $-1 73.028351695303201 -44.06127833935988 12.837434371477428 #
point $-1 68.530577111802415 -34.193310838722269 8.2386823411243384 #
edge $-1 $263 -73.028351695303201 $257 -67.24359865188994 $254 $281 forward 7 unknown #
straight-curve $-1 -67.243598651889926 -17.096655419361134 12.837434371477427 0 1 0 I I #
point $-1 -67.24359865188994 -44.06127833935988 12.837434371477428 #
straight-curve $-1 -73.028351695303201 -44.06127833935988 0 0 0 -1 I I #
point $-1 -73.028351695303201 -44.06127833935988 12.837434371477428 #
point $-1 -68.530577111802387 -34.193310838722269 8.2386823411243384 #
straight-curve $-1 0 -44.06127833935988 12.837434371477428 1 0 0 I I #
End-of-ACIS-data 