500 0 8 0           
7 Unknown 11 ACIS 5.0 NT 24 Thu Mar 25 17:55:22 1999 
-1 9.9999999999999995e-007 1e-010 
body $-1 $8 $-1 $9 #
body $-1 $10 $-1 $11 #
body $-1 $12 $-1 $13 #
body $-1 $14 $-1 $15 #
body $-1 $16 $-1 $17 #
body $-1 $18 $-1 $19 #
body $-1 $20 $-1 $21 #
body $-1 $22 $-1 $23 #
lump $-1 $-1 $24 $0 #
transform $-1 1 0 0 0 1 0 0 0 1 42.495193334757531 25.024918366246975 9.0658527164028246 1 rotate no_reflect no_shear #
lump $-1 $-1 $25 $1 #
transform $-1 1 0 0 0 1 0 0 0 1 42.495193334757531 25.024918366246975 9.0658527164028246 1 rotate no_reflect no_shear #
lump $-1 $-1 $26 $2 #
transform $-1 1 0 0 0 1 0 0 0 1 42.495193334757531 25.024918366246975 9.0658527164028246 1 rotate no_reflect no_shear #
lump $-1 $-1 $27 $3 #
transform $-1 1 0 0 0 1 0 0 0 1 42.495193334757531 25.024918366246975 9.0658527164028246 1 rotate no_reflect no_shear #
lump $-1 $-1 $28 $4 #
transform $-1 1 0 0 0 1 0 0 0 1 42.495193334757531 25.024918366246975 9.0658527164028246 1 rotate no_reflect no_shear #
lump $-1 $-1 $29 $5 #
transform $-1 1 0 0 0 1 0 0 0 1 42.495193334757531 25.024918366246975 9.0658527164028246 1 rotate no_reflect no_shear #
lump $-1 $-1 $30 $6 #
transform $-1 1 0 0 0 1 0 0 0 1 42.495193334757531 25.024918366246975 9.0658527164028246 1 rotate no_reflect no_shear #
lump $-1 $-1 $31 $7 #
transform $-1 1 0 0 0 1 0 0 0 1 42.495193334757531 25.024918366246975 9.0658527164028246 1 rotate no_reflect no_shear #
shell $-1 $-1 $-1 $32 $-1 $8 #
shell $-1 $-1 $-1 $33 $-1 $10 #
shell $-1 $-1 $-1 $34 $-1 $12 #
shell $-1 $-1 $-1 $35 $-1 $14 #
shell $-1 $-1 $-1 $36 $-1 $16 #
shell $-1 $-1 $-1 $37 $-1 $18 #
shell $-1 $-1 $-1 $38 $-1 $20 #
shell $-1 $-1 $-1 $39 $-1 $22 #
face $-1 $40 $41 $24 $-1 $42 forward single #
face $-1 $43 $44 $25 $-1 $45 forward single #
face $-1 $46 $47 $26 $-1 $48 reversed single #
face $-1 $49 $50 $27 $-1 $51 forward single #
face $-1 $52 $53 $28 $-1 $54 forward single #
face $-1 $55 $56 $29 $-1 $57 forward single #
face $-1 $58 $59 $30 $-1 $60 reversed single #
face $-1 $61 $62 $31 $-1 $63 forward single #
face $-1 $64 $65 $24 $-1 $66 reversed single #
loop $-1 $-1 $67 $32 #
plane-surface $-1 0 0 9.0658527164028246 0 0 1 1 0 0 forward_v I I I I #
face $-1 $68 $69 $25 $-1 $70 forward single #
loop $-1 $-1 $71 $33 #
plane-surface $-1 0 -25.024918366246975 0 0 1 0 0 0 1 forward_v I I I I #
face $-1 $72 $73 $26 $-1 $74 reversed single #
loop $-1 $-1 $75 $34 #
plane-surface $-1 65.429397804510742 1.6775119265310288 122.48412429195982 0 -1 0 -0.82903758062907751 0 -0.55919289150049634 forward_v I I I I #
face $-1 $76 $77 $27 $-1 $78 forward single #
loop $-1 $79 $80 $35 #
cone-surface $-1 40.540106233296129 -5.1239575393097319 6.5022697520830874 -0.82903758062907751 0 -0.55919289150049634 0.13979822287512408 0 -0.20725939515726938 1 I I 0 1 0.25 forward I I I I #
face $-1 $81 $82 $28 $-1 $83 forward single #
loop $-1 $84 $85 $36 #
cone-surface $-1 40.540106233296129 -2.5734064896194475 6.5022697520830874 -0.82903758062907751 0 -0.55919289150049634 0.13979822287512408 0 -0.20725939515726938 1 I I 0 1 0.25 forward I I I I #
face $-1 $86 $87 $29 $-1 $88 forward single #
loop $-1 $89 $90 $37 #
cone-surface $-1 40.540106233296129 -0.022855439929163168 6.5022697520830874 -0.82903758062907751 0 -0.55919289150049634 0.13979822287512408 0 -0.20725939515726938 1 I I 0 1 0.25 forward I I I I #
face $-1 $91 $92 $30 $-1 $93 reversed single #
loop $-1 $-1 $94 $38 #
plane-surface $-1 -106.63825308552771 -13.15477415454458 55.951050235719627 0 1 0 -0.75470958851134928 0 0.65605901945558964 forward_v I I I I #
face $-1 $95 $96 $31 $-1 $97 forward single #
loop $-1 $98 $99 $39 #
cone-surface $-1 -38.06068773577698 -8.9440522386269983 4.1269162318455024 0.75470958851134928 0 -0.65605901945558964 0.98408852918338452 0 1.132064382767024 1 I I 0 1 1.5 forward I I I I #
face $-1 $100 $101 $24 $-1 $102 reversed single #
loop $-1 $-1 $103 $40 #
plane-surface $-1 0 0 -9.0658527164028246 0 0 1 1 0 0 forward_v I I I I #
coedge $-1 $104 $105 $106 $107 forward $41 $-1 #
face $-1 $108 $109 $25 $-1 $110 reversed single #
loop $-1 $-1 $111 $43 #
plane-surface $-1 0 0 9.0658527164028246 0 0 1 1 0 0 forward_v I I I I #
coedge $-1 $112 $113 $114 $115 forward $44 $-1 #
face $-1 $116 $117 $26 $-1 $118 reversed single #
loop $-1 $-1 $119 $46 #
plane-surface $-1 -5.03082673671382 -2.5734064896194475 74.958104220488451 0.82903758062907751 0 0.55919289150049634 0.55919289150049634 0 -0.82903758062907751 forward_v I I I I #
coedge $-1 $120 $121 $122 $123 reversed $47 $-1 #
face $-1 $-1 $124 $27 $-1 $125 forward single #
loop $-1 $126 $127 $49 #
cone-surface $-1 40.021957745402958 -5.1239575393097319 6.1527741948952777 -0.82903758062907751 0 -0.55919289150049634 0.069899111437562042 0 -0.10362969757863469 1 I I -0.70710678118654746 0.70710678118654746 0.125 forward I I I I #
loop $-1 $-1 $128 $35 #
coedge $-1 $80 $80 $129 $130 reversed $50 $-1 #
face $-1 $-1 $131 $28 $-1 $132 forward single #
loop $-1 $133 $134 $52 #
cone-surface $-1 40.021957745402958 -2.5734064896194475 6.1527741948952777 -0.82903758062907751 0 -0.55919289150049634 0.069899111437562042 0 -0.10362969757863469 1 I I -0.70710678118654746 0.70710678118654746 0.125 forward I I I I #
loop $-1 $-1 $135 $36 #
coedge $-1 $85 $85 $136 $137 reversed $53 $-1 #
face $-1 $-1 $138 $29 $-1 $139 forward single #
loop $-1 $140 $141 $55 #
cone-surface $-1 40.021957745402958 -0.022855439929163168 6.1527741948952777 -0.82903758062907751 0 -0.55919289150049634 0.069899111437562042 0 -0.10362969757863469 1 I I -0.70710678118654746 0.70710678118654746 0.125 forward I I I I #
loop $-1 $-1 $142 $37 #
coedge $-1 $90 $90 $143 $144 reversed $56 $-1 #
face $-1 $145 $146 $30 $-1 $147 reversed single #
loop $-1 $-1 $148 $58 #
plane-surface $-1 -42.495193334757531 -8.9440522386269983 0.19234049416616017 -0.75470958851134928 0 0.65605901945558964 0.65605901945558964 0 0.75470958851134928 forward_v I I I I #
coedge $-1 $149 $150 $151 $152 reversed $59 $-1 #
face $-1 $-1 $153 $31 $-1 $154 forward single #
loop $-1 $155 $156 $61 #
cone-surface $-1 -36.916963093322344 -8.9440522386269983 3.1326915938148208 0.75470958851134928 0 -0.65605901945558964 0.49204426459169226 0 0.56603219138351202 1 I I -0.70710678118654757 0.70710678118654757 0.75 forward I I I I #
loop $-1 $-1 $157 $39 #
coedge $-1 $99 $99 $158 $159 reversed $62 $-1 #
face $-1 $160 $161 $24 $-1 $162 reversed single #
loop $-1 $-1 $163 $64 #
plane-surface $-1 0 -25.024918366246975 0 0 1 0 0 0 1 forward_v I I I I #
coedge $-1 $164 $165 $166 $167 forward $65 $-1 #
coedge $-1 $168 $67 $169 $170 forward $41 $-1 #
coedge $-1 $67 $168 $171 $172 forward $41 $-1 #
coedge $-1 $173 $174 $67 $107 reversed $175 $-1 #
edge $-1 $176 -25.024918366246975 $177 25.024918366246975 $106 $178 forward 7 unknown #
face $-1 $179 $180 $25 $-1 $181 reversed single #
loop $-1 $-1 $182 $68 #
plane-surface $-1 -42.495193334757531 0 0 1 0 0 0 0 -1 forward_v I I I I #
coedge $-1 $183 $184 $185 $186 forward $69 $-1 #
coedge $-1 $185 $71 $182 $187 reversed $44 $-1 #
coedge $-1 $71 $185 $188 $189 reversed $44 $-1 #
coedge $-1 $190 $191 $71 $115 reversed $180 $-1 #
edge $-1 $192 -42.495193334757531 $193 42.495193334757531 $114 $194 forward 7 unknown #
face $-1 $195 $196 $26 $-1 $197 reversed single #
loop $-1 $-1 $198 $72 #
plane-surface $-1 65.429397804510742 -6.8243249057699238 122.48412429195982 0 1 0 0.82903758062907751 0 0.55919289150049634 forward_v I I I I #
coedge $-1 $199 $200 $201 $202 reversed $73 $-1 #
coedge $-1 $121 $75 $203 $204 reversed $47 $-1 #
coedge $-1 $75 $120 $199 $205 reversed $47 $-1 #
coedge $-1 $201 $206 $75 $123 forward $207 $-1 #
edge $-1 $208 -9.7804944325021594 $209 -6.6993578102084541 $122 $210 forward 7 unknown #
loop $-1 $-1 $129 $76 #
plane-surface $-1 -5.03082673671382 -2.5734064896194475 74.958104220488451 0.82903758062907751 0 0.55919289150049634 0.55919289150049634 0 -0.82903758062907751 forward_v I I I I #
loop $-1 $-1 $211 $49 #
coedge $-1 $127 $127 $128 $212 reversed $77 $-1 #
coedge $-1 $128 $128 $127 $212 forward $79 $-1 #
coedge $-1 $129 $129 $80 $130 forward $124 $-1 #
edge $-1 $213 0 $213 6.2831853071796004 $129 $214 forward 7 unknown #
loop $-1 $-1 $136 $81 #
plane-surface $-1 -5.03082673671382 -2.5734064896194475 74.958104220488451 0.82903758062907751 0 0.55919289150049634 0.55919289150049634 0 -0.82903758062907751 forward_v I I I I #
loop $-1 $-1 $215 $52 #
coedge $-1 $134 $134 $135 $216 reversed $82 $-1 #
coedge $-1 $135 $135 $134 $216 forward $84 $-1 #
coedge $-1 $136 $136 $85 $137 forward $131 $-1 #
edge $-1 $217 0 $217 6.2831853071796004 $136 $218 forward 7 unknown #
loop $-1 $-1 $143 $86 #
plane-surface $-1 -5.03082673671382 -2.5734064896194475 74.958104220488451 0.82903758062907751 0 0.55919289150049634 0.55919289150049634 0 -0.82903758062907751 forward_v I I I I #
loop $-1 $-1 $219 $55 #
coedge $-1 $141 $141 $142 $220 reversed $87 $-1 #
coedge $-1 $142 $142 $141 $220 forward $89 $-1 #
coedge $-1 $143 $143 $90 $144 forward $138 $-1 #
edge $-1 $221 0 $221 6.2831853071796004 $143 $222 forward 7 unknown #
face $-1 $223 $224 $30 $-1 $225 forward single #
loop $-1 $-1 $226 $91 #
plane-surface $-1 -106.63825308552771 -4.7333303227094179 55.951050235719627 0 -1 0 0.75470958851134928 0 -0.65605901945558964 forward_v I I I I #
coedge $-1 $227 $228 $229 $230 reversed $92 $-1 #
coedge $-1 $150 $94 $231 $232 reversed $59 $-1 #
coedge $-1 $94 $149 $227 $233 reversed $59 $-1 #
coedge $-1 $229 $234 $94 $152 forward $224 $-1 #
edge $-1 $235 10.823933208006324 $236 18.537559503825186 $151 $237 forward 7 unknown #
loop $-1 $-1 $158 $95 #
plane-surface $-1 -42.495193334757531 -8.9440522386269983 0.19234049416616017 -0.75470958851134928 0 0.65605901945558964 0.65605901945558964 0 0.75470958851134928 forward_v I I I I #
loop $-1 $-1 $238 $61 #
coedge $-1 $156 $156 $157 $239 reversed $96 $-1 #
coedge $-1 $157 $157 $156 $239 forward $98 $-1 #
coedge $-1 $158 $158 $99 $159 forward $153 $-1 #
edge $-1 $240 0 $240 6.2831853071796004 $158 $241 forward 7 unknown #
face $-1 $242 $243 $24 $-1 $244 reversed single #
loop $-1 $-1 $245 $100 #
plane-surface $-1 -42.495193334757531 0 0 1 0 0 0 0 -1 forward_v I I I I #
coedge $-1 $246 $171 $247 $248 forward $101 $-1 #
coedge $-1 $249 $103 $246 $250 forward $65 $-1 #
coedge $-1 $103 $249 $251 $252 forward $65 $-1 #
coedge $-1 $174 $173 $103 $167 reversed $175 $-1 #
edge $-1 $253 -25.024918366246975 $254 25.024918366246975 $166 $255 forward 7 unknown #
coedge $-1 $105 $104 $256 $257 forward $41 $-1 #
coedge $-1 $258 $259 $104 $170 reversed $243 $-1 #
edge $-1 $177 -42.495193334757531 $260 42.495193334757531 $169 $261 forward 7 unknown #
coedge $-1 $163 $262 $105 $172 reversed $101 $-1 #
edge $-1 $263 -42.495193334757531 $176 42.495193334757531 $171 $264 forward 7 unknown #
coedge $-1 $166 $106 $262 $265 forward $175 $-1 #
coedge $-1 $106 $166 $258 $266 reversed $175 $-1 #
loop $-1 $-1 $173 $242 #
vertex $-1 $107 $267 #
vertex $-1 $107 $268 #
straight-curve $-1 42.495193334757531 0 9.0658527164028246 0 1 0 I I #
face $-1 $269 $270 $25 $-1 $271 reversed single #
loop $-1 $-1 $190 $108 #
plane-surface $-1 0 -30.959990472098173 6.0658527164028246 0 0 1 1 0 0 forward_v I I I I #
coedge $-1 $272 $273 $112 $187 forward $109 $-1 #
coedge $-1 $274 $111 $273 $275 forward $69 $-1 #
coedge $-1 $111 $274 $276 $277 forward $69 $-1 #
coedge $-1 $113 $112 $111 $186 reversed $44 $-1 #
edge $-1 $278 -42.495193334757531 $279 42.495193334757531 $111 $280 forward 7 unknown #
edge $-1 $279 -9.0658527164028246 $193 -6.0658527164028246 $182 $281 forward 7 unknown #
coedge $-1 $276 $282 $113 $189 forward $283 $-1 #
edge $-1 $192 6.0658527164028246 $278 9.0658527164028246 $188 $284 forward 7 unknown #
coedge $-1 $285 $114 $282 $286 forward $180 $-1 #
coedge $-1 $114 $285 $272 $287 forward $180 $-1 #
vertex $-1 $189 $288 #
vertex $-1 $187 $289 #
straight-curve $-1 0 -25.024918366246975 6.0658527164028246 -1 0 0 I I #
face $-1 $-1 $207 $26 $-1 $290 forward single #
loop $-1 $-1 $291 $116 #
plane-surface $-1 42.495193334757531 0 0 -1 0 0 0 0 1 forward_v I I I I #
coedge $-1 $292 $293 $294 $295 reversed $117 $-1 #
coedge $-1 $296 $119 $121 $205 forward $73 $-1 #
coedge $-1 $119 $296 $292 $297 forward $73 $-1 #
coedge $-1 $294 $122 $119 $202 forward $207 $-1 #
edge $-1 $209 -2.9642151713407525 $298 5.5376216609602 $201 $299 forward 7 unknown #
coedge $-1 $300 $301 $120 $204 forward $196 $-1 #
edge $-1 $302 -56.744182466716005 $208 -52.176209429577085 $203 $303 forward 7 unknown #
edge $-1 $209 79.480415657498042 $302 84.990386669515047 $121 $304 forward 7 unknown #
coedge $-1 $122 $294 $300 $305 forward $207 $-1 #
loop $-1 $-1 $294 $195 #
vertex $-1 $204 $306 #
vertex $-1 $123 $307 #
straight-curve $-1 32.714698902255371 1.6775119265310288 9.0658527164028229 -1 0 0 I I #
coedge $-1 $211 $211 $-1 $308 reversed $126 $-1 #
edge $-1 $309 0 $309 6.2831853071796004 $127 $310 forward 7 unknown #
vertex $-1 $130 $311 #
ellipse-curve $-1 40.954625023610689 -5.1239575393097319 6.7818661978333479 0.82903758062907751 0 0.55919289150049634 0.13979822287512408 0 -0.20725939515726938 1 I I #
coedge $-1 $215 $215 $-1 $312 reversed $133 $-1 #
edge $-1 $313 0 $313 6.2831853071796004 $134 $314 forward 7 unknown #
vertex $-1 $137 $315 #
ellipse-curve $-1 40.954625023610689 -2.5734064896194475 6.7818661978333479 0.82903758062907751 0 0.55919289150049634 0.13979822287512408 0 -0.20725939515726938 1 I I #
coedge $-1 $219 $219 $-1 $316 reversed $140 $-1 #
edge $-1 $317 0 $317 6.2831853071796004 $141 $318 forward 7 unknown #
vertex $-1 $144 $319 #
ellipse-curve $-1 40.954625023610689 -0.022855439929163168 6.7818661978333479 0.82903758062907751 0 0.55919289150049634 0.13979822287512408 0 -0.20725939515726938 1 I I #
face $-1 $-1 $320 $30 $-1 $321 reversed single #
loop $-1 $-1 $151 $145 #
plane-surface $-1 0 0 9.0658527164028246 0 0 1 1 0 0 forward_v I I I I #
coedge $-1 $322 $323 $324 $325 reversed $146 $-1 #
coedge $-1 $326 $148 $150 $233 forward $92 $-1 #
coedge $-1 $148 $326 $322 $327 forward $92 $-1 #
coedge $-1 $324 $151 $148 $230 forward $224 $-1 #
edge $-1 $236 -8.6827480352310804 $328 -0.26130420339591875 $229 $329 forward 7 unknown #
coedge $-1 $330 $331 $149 $232 forward $320 $-1 #
edge $-1 $332 -27.783184623693653 $235 -18.909672401456987 $231 $333 forward 7 unknown #
edge $-1 $236 -11.757518861976441 $332 0 $150 $334 forward 7 unknown #
coedge $-1 $151 $324 $330 $335 forward $224 $-1 #
vertex $-1 $232 $336 #
vertex $-1 $152 $337 #
straight-curve $-1 -53.319126542763854 -13.15477415454458 9.0658527164028229 1 0 0 I I #
coedge $-1 $238 $238 $-1 $338 reversed $155 $-1 #
edge $-1 $339 0 $339 6.2831853071796004 $156 $340 forward 7 unknown #
vertex $-1 $159 $341 #
ellipse-curve $-1 -38.638380186848103 -8.9440522386269983 4.6290966052844915 -0.75470958851134928 0 0.65605901945558964 0.98408852918338452 0 1.132064382767024 1 I I #
face $-1 $-1 $175 $24 $-1 $342 reversed single #
loop $-1 $-1 $258 $160 #
plane-surface $-1 0 25.024918366246975 0 0 -1 0 0 0 -1 forward_v I I I I #
coedge $-1 $343 $256 $259 $344 forward $161 $-1 #
coedge $-1 $262 $163 $164 $250 reversed $101 $-1 #
coedge $-1 $256 $343 $163 $248 reversed $161 $-1 #
edge $-1 $263 -9.0658527164028246 $345 9.0658527164028246 $247 $346 forward 7 unknown #
coedge $-1 $165 $164 $343 $347 forward $65 $-1 #
edge $-1 $254 -42.495193334757531 $345 42.495193334757531 $246 $348 forward 7 unknown #
coedge $-1 $259 $258 $165 $252 reversed $243 $-1 #
edge $-1 $349 -42.495193334757531 $253 42.495193334757531 $251 $350 forward 7 unknown #
vertex $-1 $167 $351 #
vertex $-1 $265 $352 #
straight-curve $-1 42.495193334757531 0 -9.0658527164028246 0 -1 0 I I #
coedge $-1 $245 $247 $168 $257 reversed $161 $-1 #
edge $-1 $260 -25.024918366246975 $263 25.024918366246975 $256 $353 forward 7 unknown #
coedge $-1 $251 $169 $174 $266 forward $243 $-1 #
coedge $-1 $169 $251 $245 $344 reversed $243 $-1 #
vertex $-1 $170 $354 #
straight-curve $-1 0 25.024918366246975 9.0658527164028246 -1 0 0 I I #
coedge $-1 $171 $246 $173 $265 reversed $101 $-1 #
vertex $-1 $257 $355 #
straight-curve $-1 0 -25.024918366246975 9.0658527164028246 1 0 0 I I #
edge $-1 $176 -9.0658527164028246 $254 9.0658527164028246 $173 $356 forward 7 unknown #
edge $-1 $177 -9.0658527164028246 $253 9.0658527164028246 $174 $357 forward 7 unknown #
point $-1 42.495193334757531 -25.024918366246975 9.0658527164028246 #
point $-1 42.495193334757531 25.024918366246975 9.0658527164028246 #
face $-1 $-1 $283 $25 $-1 $358 reversed single #
loop $-1 $-1 $359 $179 #
plane-surface $-1 0 -36.895062577949375 7.5658527164028246 0 1 0 0 0 1 forward_v I I I I #
coedge $-1 $360 $182 $191 $287 reversed $109 $-1 #
coedge $-1 $182 $360 $183 $275 reversed $109 $-1 #
coedge $-1 $184 $183 $361 $362 forward $69 $-1 #
edge $-1 $279 25.024918366246975 $363 36.895062577949375 $273 $364 forward 7 unknown #
coedge $-1 $365 $188 $184 $277 reversed $283 $-1 #
edge $-1 $366 -36.895062577949375 $278 -25.024918366246975 $276 $367 forward 7 unknown #
vertex $-1 $189 $368 #
vertex $-1 $275 $369 #
straight-curve $-1 0 -25.024918366246975 9.0658527164028246 -1 0 0 I I #
straight-curve $-1 -42.495193334757531 -25.024918366246975 0 0 0 -1 I I #
coedge $-1 $188 $365 $190 $286 reversed $283 $-1 #
loop $-1 $-1 $188 $269 #
straight-curve $-1 42.495193334757531 -25.024918366246975 0 0 0 1 I I #
coedge $-1 $191 $190 $370 $371 forward $180 $-1 #
edge $-1 $192 -5.9350721058511979 $372 5.9350721058512015 $282 $373 forward 7 unknown #
edge $-1 $374 -5.9350721058512015 $193 5.9350721058511979 $272 $375 forward 7 unknown #
point $-1 42.495193334757531 -25.024918366246975 6.0658527164028246 #
point $-1 -42.495193334757531 -25.024918366246975 6.0658527164028246 #
plane-surface $-1 0 0 9.0658527164028246 0 0 1 1 0 0 forward_v I I I I #
coedge $-1 $301 $300 $293 $376 forward $196 $-1 #
coedge $-1 $293 $198 $200 $297 reversed $117 $-1 #
coedge $-1 $198 $292 $291 $376 reversed $117 $-1 #
coedge $-1 $206 $201 $198 $295 forward $207 $-1 #
edge $-1 $298 6.6993578102084541 $377 9.7804944325021594 $294 $378 forward 7 unknown #
coedge $-1 $200 $199 $301 $379 reversed $73 $-1 #
edge $-1 $380 -84.990386669515047 $298 -79.480415657498042 $292 $381 forward 7 unknown #
vertex $-1 $202 $382 #
straight-curve $-1 39.414056712463832 -1.2867032448097238 9.0658527164028158 0 -1 0 I I #
coedge $-1 $291 $203 $206 $305 reversed $196 $-1 #
coedge $-1 $203 $291 $296 $379 forward $196 $-1 #
vertex $-1 $204 $383 #
straight-curve $-1 42.495193334757531 1.6775119265310288 61.242062145979908 0 0 1 I I #
straight-curve $-1 -5.03082673671382 1.6775119265310288 74.958104220488451 0.55919289150049634 0 -0.82903758062907751 I I #
edge $-1 $377 -6.8243249057699238 $208 1.6775119265310288 $300 $384 forward 7 unknown #
point $-1 42.495193334757531 1.6775119265310288 9.0658527164028246 #
point $-1 39.414056712463825 1.6775119265310288 9.06585271640283 #
edge $-1 $385 1 $385 0 $211 $-1 forward 7 unknown #
vertex $-1 $212 $386 #
ellipse-curve $-1 40.12558744298159 -5.1239575393097319 6.2226733063328394 0.82903758062907751 0 0.55919289150049634 0.13979822287512408 0 -0.20725939515726938 1 I I #
point $-1 41.094423246485796 -5.1239575393097319 6.5746068026760662 #
edge $-1 $387 1 $387 0 $215 $-1 forward 7 unknown #
vertex $-1 $216 $388 #
ellipse-curve $-1 40.12558744298159 -2.5734064896194475 6.2226733063328394 0.82903758062907751 0 0.55919289150049634 0.13979822287512408 0 -0.20725939515726938 1 I I #
point $-1 41.094423246485796 -2.5734064896194475 6.5746068026760662 #
edge $-1 $389 1 $389 0 $219 $-1 forward 7 unknown #
vertex $-1 $220 $390 #
ellipse-curve $-1 40.12558744298159 -0.022855439929163168 6.2226733063328394 0.82903758062907751 0 0.55919289150049634 0.13979822287512408 0 -0.20725939515726938 1 I I #
point $-1 41.094423246485796 -0.022855439929163168 6.5746068026760662 #
loop $-1 $-1 $231 $223 #
plane-surface $-1 -42.495193334757531 0 0 1 0 0 0 0 -1 forward_v I I I I #
coedge $-1 $323 $226 $228 $327 reversed $146 $-1 #
coedge $-1 $226 $322 $391 $392 reversed $146 $-1 #
coedge $-1 $234 $229 $226 $325 forward $224 $-1 #
edge $-1 $328 -18.537559503825186 $393 -10.823933208006324 $324 $394 forward 7 unknown #
coedge $-1 $228 $227 $331 $395 reversed $92 $-1 #
edge $-1 $396 0 $328 11.757518861976441 $322 $397 forward 7 unknown #
vertex $-1 $230 $398 #
straight-curve $-1 -34.781567038938668 -4.4720261193134991 9.0658527164028229 0 1 0 I I #
coedge $-1 $391 $231 $234 $335 reversed $320 $-1 #
coedge $-1 $231 $391 $326 $395 forward $320 $-1 #
vertex $-1 $232 $399 #
straight-curve $-1 -42.495193334757531 -13.15477415454458 27.975525117859814 0 0 1 I I #
straight-curve $-1 -42.495193334757531 -13.15477415454458 0.19234049416616017 -0.65605901945558964 0 -0.75470958851134928 I I #
edge $-1 $393 4.7333303227094179 $235 13.15477415454458 $330 $400 forward 7 unknown #
point $-1 -42.495193334757531 -13.15477415454458 9.0658527164028246 #
point $-1 -34.781567038938668 -13.15477415454458 9.0658527164028246 #
edge $-1 $401 1 $401 0 $238 $-1 forward 7 unknown #
vertex $-1 $239 $402 #
ellipse-curve $-1 -37.482995284705858 -8.9440522386269983 3.6247358584065132 -0.75470958851134928 0 0.65605901945558964 0.98408852918338452 0 1.132064382767024 1 I I #
point $-1 -37.654291657664714 -8.9440522386269983 5.7611609880515164 #
plane-surface $-1 42.495193334757531 0 0 -1 0 0 0 0 1 forward_v I I I I #
coedge $-1 $247 $245 $249 $347 reversed $161 $-1 #
edge $-1 $260 -9.0658527164028246 $349 9.0658527164028246 $259 $403 forward 7 unknown #
vertex $-1 $347 $404 #
straight-curve $-1 -42.495193334757531 -25.024918366246975 0 0 0 -1 I I #
edge $-1 $345 -25.024918366246975 $349 25.024918366246975 $343 $405 forward 7 unknown #
straight-curve $-1 0 -25.024918366246975 -9.0658527164028246 -1 0 0 I I #
vertex $-1 $252 $406 #
straight-curve $-1 0 25.024918366246975 -9.0658527164028246 1 0 0 I I #
point $-1 42.495193334757531 25.024918366246975 -9.0658527164028246 #
point $-1 42.495193334757531 -25.024918366246975 -9.0658527164028246 #
straight-curve $-1 -42.495193334757531 0 9.0658527164028246 0 -1 0 I I #
point $-1 -42.495193334757531 25.024918366246975 9.0658527164028246 #
point $-1 -42.495193334757531 -25.024918366246975 9.0658527164028246 #
straight-curve $-1 42.495193334757531 -25.024918366246975 0 0 0 -1 I I #
straight-curve $-1 42.495193334757531 25.024918366246975 0 0 0 -1 I I #
plane-surface $-1 42.495193334757531 0 0 -1 0 0 0 0 1 forward_v I I I I #
coedge $-1 $370 $361 $360 $407 forward $270 $-1 #
coedge $-1 $273 $272 $359 $407 reversed $109 $-1 #
coedge $-1 $359 $408 $274 $362 reversed $270 $-1 #
edge $-1 $363 -42.495193334757531 $366 42.495193334757531 $361 $409 forward 7 unknown #
vertex $-1 $275 $410 #
straight-curve $-1 -42.495193334757531 0 9.0658527164028246 0 -1 0 I I #
coedge $-1 $282 $276 $408 $411 forward $283 $-1 #
vertex $-1 $277 $412 #
straight-curve $-1 42.495193334757531 0 9.0658527164028246 0 1 0 I I #
point $-1 42.495193334757531 -25.024918366246975 9.0658527164028246 #
point $-1 -42.495193334757531 -25.024918366246975 9.0658527164028246 #
coedge $-1 $408 $359 $285 $371 reversed $270 $-1 #
edge $-1 $372 -42.495193334757531 $374 42.495193334757531 $370 $413 forward 7 unknown #
vertex $-1 $411 $414 #
straight-curve $-1 42.495193334757531 -30.959990472098173 6.0658527164028246 0 -1 0 I I #
vertex $-1 $287 $415 #
straight-curve $-1 -42.495193334757531 -30.959990472098173 6.0658527164028246 0 1 0 I I #
edge $-1 $377 52.176209429577085 $380 56.744182466716005 $291 $416 forward 7 unknown #
vertex $-1 $305 $417 #
straight-curve $-1 32.714698902255371 -6.8243249057699238 9.0658527164028229 1 0 0 I I #
edge $-1 $380 -5.5376216609602 $302 2.9642151713407525 $301 $418 forward 7 unknown #
vertex $-1 $379 $419 #
straight-curve $-1 -5.03082673671382 -6.8243249057699238 74.958104220488451 -0.55919289150049634 0 0.82903758062907751 I I #
point $-1 39.414056712463825 -6.8243249057699238 9.06585271640283 #
point $-1 42.495193334757531 1.6775119265310288 4.4978796792639031 #
straight-curve $-1 42.495193334757531 0 9.0658527164028246 0 1 0 I I #
vertex $-1 $308 $420 #
point $-1 40.265385665856719 -5.1239575393097319 6.0154139111755702 #
vertex $-1 $312 $421 #
point $-1 40.265385665856719 -2.5734064896194475 6.0154139111755702 #
vertex $-1 $316 $422 #
point $-1 40.265385665856719 -0.022855439929163168 6.0154139111755702 #
coedge $-1 $331 $330 $323 $392 forward $320 $-1 #
edge $-1 $393 18.909672401456987 $396 27.783184623693653 $391 $423 forward 7 unknown #
vertex $-1 $335 $424 #
straight-curve $-1 -53.319126542763854 -4.7333303227094179 9.0658527164028229 -1 0 0 I I #
edge $-1 $396 0.26130420339591875 $332 8.6827480352310804 $331 $425 forward 7 unknown #
vertex $-1 $395 $426 #
straight-curve $-1 -42.495193334757531 -4.7333303227094179 0.19234049416616017 0.65605901945558964 0 0.75470958851134928 I I #
point $-1 -34.781567038938668 -4.7333303227094179 9.0658527164028246 #
point $-1 -42.495193334757531 -13.15477415454458 0.19234049416616017 #
straight-curve $-1 -42.495193334757531 0 9.0658527164028246 0 -1 0 I I #
vertex $-1 $338 $427 #
point $-1 -36.498906755522469 -8.9440522386269983 4.7568002411735373 #
straight-curve $-1 -42.495193334757531 25.024918366246975 0 0 0 -1 I I #
point $-1 -42.495193334757531 -25.024918366246975 -9.0658527164028246 #
straight-curve $-1 -42.495193334757531 0 -9.0658527164028246 0 1 0 I I #
point $-1 -42.495193334757531 25.024918366246975 -9.0658527164028246 #
edge $-1 $363 -1.5 $374 1.5 $360 $428 forward 7 unknown #
coedge $-1 $361 $370 $365 $411 reversed $270 $-1 #
straight-curve $-1 0 -36.895062577949375 9.0658527164028246 1 0 0 I I #
point $-1 -42.495193334757531 -36.895062577949375 9.0658527164028246 #
edge $-1 $366 -1.5 $372 1.5 $365 $429 forward 7 unknown #
point $-1 42.495193334757531 -36.895062577949375 9.0658527164028246 #
straight-curve $-1 0 -36.895062577949375 6.0658527164028246 -1 0 0 I I #
point $-1 42.495193334757531 -36.895062577949375 6.0658527164028246 #
point $-1 -42.495193334757531 -36.895062577949375 6.0658527164028246 #
straight-curve $-1 42.495193334757531 -6.8243249057699238 61.242062145979908 0 0 -1 I I #
point $-1 42.495193334757531 -6.8243249057699238 9.0658527164028246 #
straight-curve $-1 42.495193334757531 -1.2867032448097238 4.497879679263896 0 1 0 I I #
point $-1 42.495193334757531 -6.8243249057699238 4.4978796792639031 #
point $-1 39.918328047824325 -5.1239575393097319 6.0828750834577159 #
point $-1 39.918328047824325 -2.5734064896194475 6.0828750834577159 #
point $-1 39.918328047824325 -0.022855439929163168 6.0828750834577159 #
straight-curve $-1 -42.495193334757531 -4.7333303227094179 27.975525117859814 0 0 -1 I I #
point $-1 -42.495193334757531 -4.7333303227094179 9.0658527164028246 #
straight-curve $-1 -42.495193334757531 -4.4720261193134991 0.19234049416615917 0 -1 0 I I #
point $-1 -42.495193334757531 -4.7333303227094179 0.19234049416616017 #
point $-1 -36.350930901938831 -8.9440522386269983 2.6406473292231283 #
straight-curve $-1 -42.495193334757531 -36.895062577949375 7.5658527164028246 0 0 -1 I I #
straight-curve $-1 42.495193334757531 -36.895062577949375 7.5658527164028246 0 0 -1 I I #
End-of-ACIS-data 