500 0 6 0           
7 Unknown 11 ACIS 5.0 NT 24 Thu Mar 25 17:52:05 1999 
-1 9.9999999999999995e-007 1e-010 
body $-1 $6 $-1 $7 #
body $-1 $8 $-1 $9 #
body $-1 $10 $-1 $11 #
body $-1 $12 $-1 $13 #
body $-1 $14 $-1 $15 #
body $-1 $16 $-1 $17 #
lump $-1 $-1 $18 $0 #
transform $-1 1 0 0 0 1 0 0 0 1 45.746024964140751 22.330906659334822 8.5889517971413571 1 rotate no_reflect no_shear #
lump $-1 $-1 $19 $1 #
transform $-1 1 0 0 0 1 0 0 0 1 45.746024964140751 22.330906659334822 8.5889517971413571 1 rotate no_reflect no_shear #
lump $-1 $-1 $20 $2 #
transform $-1 1 0 0 0 1 0 0 0 1 45.746024964140751 22.330906659334822 8.5889517971413571 1 rotate no_reflect no_shear #
lump $-1 $-1 $21 $3 #
transform $-1 1 0 0 0 1 0 0 0 1 45.746024964140751 22.330906659334822 8.5889517971413571 1 rotate no_reflect no_shear #
lump $-1 $-1 $22 $4 #
transform $-1 1 0 0 0 1 0 0 0 1 45.746024964140751 22.330906659334822 8.5889517971413571 1 rotate no_reflect no_shear #
lump $-1 $-1 $23 $5 #
transform $-1 1 0 0 0 1 0 0 0 1 45.746024964140751 22.330906659334822 8.5889517971413571 1 rotate no_reflect no_shear #
shell $-1 $-1 $-1 $24 $-1 $6 #
shell $-1 $-1 $-1 $25 $-1 $8 #
shell $-1 $-1 $-1 $26 $-1 $10 #
shell $-1 $-1 $-1 $27 $-1 $12 #
shell $-1 $-1 $-1 $28 $-1 $14 #
shell $-1 $-1 $-1 $29 $-1 $16 #
face $-1 $30 $31 $18 $-1 $32 forward single #
face $-1 $33 $34 $19 $-1 $35 reversed single #
face $-1 $36 $37 $20 $-1 $38 reversed single #
face $-1 $39 $40 $21 $-1 $41 forward single #
face $-1 $42 $43 $22 $-1 $44 forward single #
face $-1 $45 $46 $23 $-1 $47 forward single #
face $-1 $48 $49 $18 $-1 $50 reversed single #
loop $-1 $-1 $51 $24 #
plane-surface $-1 0 0 8.5889517971413571 0 0 1 1 0 0 forward_v I I I I #
face $-1 $52 $53 $19 $-1 $54 reversed single #
loop $-1 $-1 $55 $25 #
plane-surface $-1 -42.658398103224066 -8.9162887168224394 0 0 1 0 0 0 1 forward_v I I I I #
face $-1 $56 $57 $20 $-1 $58 reversed single #
loop $-1 $-1 $59 $26 #
plane-surface $-1 34.711759245475754 -22.330906659334815 2.8644934379464644 0 -0.57357644374324357 0.81915203911291934 1 0 0 forward_v I I I I #
face $-1 $60 $61 $21 $-1 $62 forward single #
loop $-1 $63 $64 $27 #
cone-surface $-1 28.091199814276742 -17.609576024776029 4.8217854829930218 0 0.57357644374324357 -0.81915203911291934 1 0 0 1 I I 0 1 1 forward I I I I #
face $-1 $65 $66 $22 $-1 $67 forward single #
loop $-1 $68 $69 $28 #
cone-surface $-1 34.71175924547574 -17.609576024776029 4.8217854829930218 0 0.57357644374324357 -0.81915203911291934 1 0 0 1 I I 0 1 1 forward I I I I #
face $-1 $70 $71 $23 $-1 $72 forward single #
loop $-1 $73 $74 $29 #
cone-surface $-1 41.332318676674738 -17.609576024776029 4.8217854829930218 0 0.57357644374324357 -0.81915203911291934 1 0 0 1 I I 0 1 1 forward I I I I #
face $-1 $75 $76 $18 $-1 $77 reversed single #
loop $-1 $-1 $78 $30 #
plane-surface $-1 0 0 -8.5889517971413571 0 0 1 1 0 0 forward_v I I I I #
coedge $-1 $79 $80 $81 $82 forward $31 $-1 #
face $-1 $83 $84 $19 $-1 $85 reversed single #
loop $-1 $-1 $86 $33 #
plane-surface $-1 -42.658398103224066 -5.1530030650521077 0 0 -1 0 0 0 -1 forward_v I I I I #
coedge $-1 $87 $88 $89 $90 reversed $34 $-1 #
face $-1 $91 $92 $20 $-1 $93 reversed single #
loop $-1 $-1 $94 $36 #
plane-surface $-1 23.67749352681075 -74.808591287977805 77.81039269931928 1 0 0 0 0.57357644374324357 -0.81915203911291934 forward_v I I I I #
coedge $-1 $95 $96 $97 $98 reversed $37 $-1 #
face $-1 $-1 $99 $21 $-1 $100 forward single #
loop $-1 $101 $102 $39 #
cone-surface $-1 28.091199814276742 -16.689143987515759 3.5072723288856729 0 0.57357644374324357 -0.81915203911291934 0.5 0 0 1 I I -0.70710678118654746 0.70710678118654746 0.5 forward I I I I #
loop $-1 $-1 $103 $27 #
coedge $-1 $64 $64 $104 $105 reversed $40 $-1 #
face $-1 $-1 $106 $22 $-1 $107 forward single #
loop $-1 $108 $109 $42 #
cone-surface $-1 34.71175924547574 -16.689143987515759 3.5072723288856729 0 0.57357644374324357 -0.81915203911291934 0.5 0 0 1 I I -0.70710678118654746 0.70710678118654746 0.5 forward I I I I #
loop $-1 $-1 $110 $28 #
coedge $-1 $69 $69 $111 $112 reversed $43 $-1 #
face $-1 $-1 $113 $23 $-1 $114 forward single #
loop $-1 $115 $116 $45 #
cone-surface $-1 41.332318676674738 -16.689143987515759 3.5072723288856729 0 0.57357644374324357 -0.81915203911291934 0.5 0 0 1 I I -0.70710678118654746 0.70710678118654746 0.5 forward I I I I #
loop $-1 $-1 $117 $29 #
coedge $-1 $74 $74 $118 $119 reversed $46 $-1 #
face $-1 $120 $121 $18 $-1 $122 reversed single #
loop $-1 $-1 $123 $48 #
plane-surface $-1 0 -22.330906659334822 0 0 1 0 0 0 1 forward_v I I I I #
coedge $-1 $124 $125 $126 $127 forward $49 $-1 #
coedge $-1 $128 $51 $129 $130 forward $31 $-1 #
coedge $-1 $51 $128 $131 $132 forward $31 $-1 #
coedge $-1 $133 $134 $51 $82 reversed $135 $-1 #
edge $-1 $136 -22.330906659334822 $137 22.330906659334822 $81 $138 forward 7 unknown #
face $-1 $139 $140 $19 $-1 $141 reversed single #
loop $-1 $-1 $142 $52 #
plane-surface $-1 -39.57077124230738 -7.0346458909372735 0 -1 0 0 0 0 1 forward_v I I I I #
coedge $-1 $143 $144 $145 $146 forward $53 $-1 #
coedge $-1 $147 $55 $148 $149 reversed $34 $-1 #
coedge $-1 $55 $147 $150 $151 reversed $34 $-1 #
coedge $-1 $152 $153 $55 $90 forward $154 $-1 #
edge $-1 $155 -8.5889517971413571 $156 8.5889517971413571 $89 $157 forward 7 unknown #
face $-1 $158 $159 $20 $-1 $160 forward single #
loop $-1 $-1 $161 $56 #
plane-surface $-1 0 -22.330906659334822 0 0 1 0 0 0 1 forward_v I I I I #
coedge $-1 $162 $163 $164 $165 reversed $57 $-1 #
coedge $-1 $166 $59 $167 $168 reversed $37 $-1 #
coedge $-1 $59 $166 $162 $169 forward $37 $-1 #
coedge $-1 $164 $170 $59 $98 forward $159 $-1 #
edge $-1 $171 -28.390145341402881 $172 -6.3216139040728727 $97 $173 forward 7 unknown #
loop $-1 $-1 $104 $60 #
plane-surface $-1 34.711759245475754 -22.330906659334815 2.8644934379464644 0 -0.57357644374324357 0.81915203911291934 1 0 0 forward_v I I I I #
loop $-1 $-1 $174 $39 #
coedge $-1 $102 $102 $103 $175 reversed $61 $-1 #
coedge $-1 $103 $103 $102 $175 forward $63 $-1 #
coedge $-1 $104 $104 $64 $105 forward $99 $-1 #
edge $-1 $176 6.558548812938517e-016 $176 6.2831853071796013 $104 $177 forward 7 unknown #
loop $-1 $-1 $111 $65 #
plane-surface $-1 34.711759245475754 -22.330906659334815 2.8644934379464644 0 -0.57357644374324357 0.81915203911291934 1 0 0 forward_v I I I I #
loop $-1 $-1 $178 $42 #
coedge $-1 $109 $109 $110 $179 reversed $66 $-1 #
coedge $-1 $110 $110 $109 $179 forward $68 $-1 #
coedge $-1 $111 $111 $69 $112 forward $106 $-1 #
edge $-1 $180 6.558548812938517e-016 $180 6.2831853071796013 $111 $181 forward 7 unknown #
loop $-1 $-1 $118 $70 #
plane-surface $-1 34.711759245475754 -22.330906659334815 2.8644934379464644 0 -0.57357644374324357 0.81915203911291934 1 0 0 forward_v I I I I #
loop $-1 $-1 $182 $45 #
coedge $-1 $116 $116 $117 $183 reversed $71 $-1 #
coedge $-1 $117 $117 $116 $183 forward $73 $-1 #
coedge $-1 $118 $118 $74 $119 forward $113 $-1 #
edge $-1 $184 6.558548812938517e-016 $184 6.2831853071796013 $118 $185 forward 7 unknown #
face $-1 $186 $187 $18 $-1 $188 reversed single #
loop $-1 $-1 $189 $75 #
plane-surface $-1 -45.746024964140751 0 0 1 0 0 0 0 -1 forward_v I I I I #
coedge $-1 $190 $131 $191 $192 forward $76 $-1 #
coedge $-1 $193 $78 $190 $194 forward $49 $-1 #
coedge $-1 $78 $193 $195 $196 forward $49 $-1 #
coedge $-1 $134 $133 $78 $127 reversed $135 $-1 #
edge $-1 $197 -22.330906659334822 $198 22.330906659334822 $126 $199 forward 7 unknown #
coedge $-1 $80 $79 $200 $201 forward $31 $-1 #
coedge $-1 $202 $203 $79 $130 reversed $187 $-1 #
edge $-1 $137 -45.746024964140751 $204 45.746024964140751 $129 $205 forward 7 unknown #
coedge $-1 $123 $206 $80 $132 reversed $76 $-1 #
edge $-1 $207 -45.746024964140751 $136 45.746024964140751 $131 $208 forward 7 unknown #
coedge $-1 $126 $81 $206 $209 forward $135 $-1 #
coedge $-1 $81 $126 $202 $210 reversed $135 $-1 #
loop $-1 $-1 $133 $186 #
vertex $-1 $82 $211 #
vertex $-1 $82 $212 #
straight-curve $-1 45.746024964140751 0 8.5889517971413571 0 1 0 I I #
face $-1 $213 $214 $19 $-1 $215 forward single #
loop $-1 $-1 $216 $83 #
plane-surface $-1 0 0 -8.5889517971413571 0 0 1 1 0 0 forward_v I I I I #
coedge $-1 $217 $218 $147 $219 forward $84 $-1 #
coedge $-1 $220 $86 $216 $221 reversed $53 $-1 #
coedge $-1 $86 $220 $222 $223 reversed $53 $-1 #
coedge $-1 $218 $217 $86 $146 reversed $84 $-1 #
edge $-1 $224 -8.5889517971413571 $225 8.5889517971413571 $145 $226 forward 7 unknown #
coedge $-1 $88 $87 $142 $219 reversed $34 $-1 #
coedge $-1 $227 $228 $87 $149 forward $140 $-1 #
edge $-1 $229 18.241572190695347 $155 24.416825912528719 $148 $230 forward 7 unknown #
coedge $-1 $231 $232 $88 $151 forward $214 $-1 #
edge $-1 $156 -24.416825912528719 $233 -18.241572190695347 $150 $234 forward 7 unknown #
coedge $-1 $235 $89 $232 $236 reversed $154 $-1 #
coedge $-1 $89 $235 $227 $237 reversed $154 $-1 #
loop $-1 $-1 $235 $213 #
vertex $-1 $237 $238 #
vertex $-1 $90 $239 #
straight-curve $-1 -45.746024964140751 -8.9162887168224394 0 0 0 1 I I #
face $-1 $-1 $240 $20 $-1 $241 reversed single #
loop $-1 $-1 $164 $91 #
plane-surface $-1 0 0 8.5889517971413571 0 0 1 1 0 0 forward_v I I I I #
coedge $-1 $242 $243 $163 $244 forward $92 $-1 #
coedge $-1 $163 $94 $96 $169 reversed $57 $-1 #
coedge $-1 $94 $162 $161 $244 reversed $57 $-1 #
coedge $-1 $245 $97 $94 $165 forward $159 $-1 #
edge $-1 $172 -23.248762622994391 $246 -15.073388984654081 $164 $247 forward 7 unknown #
coedge $-1 $96 $95 $242 $248 reversed $37 $-1 #
coedge $-1 $249 $250 $95 $168 forward $240 $-1 #
edge $-1 $251 -8.3247008829856046 $171 1.6555875713941586 $167 $252 forward 7 unknown #
edge $-1 $253 -8.6223355153435888e-015 $172 9.980288454379755 $162 $254 forward 7 unknown #
coedge $-1 $97 $245 $249 $255 forward $159 $-1 #
vertex $-1 $168 $256 #
vertex $-1 $98 $257 #
straight-curve $-1 17.355879622737877 -14.155533020994509 8.5889517971413571 -1 0 0 I I #
coedge $-1 $174 $174 $-1 $258 reversed $101 $-1 #
edge $-1 $259 0 $259 6.2831853071796004 $102 $260 forward 7 unknown #
vertex $-1 $105 $261 #
ellipse-curve $-1 28.091199814276742 -18.24321984016467 5.7267226175439054 0 -0.57357644374324357 0.81915203911291934 1 0 0 1 I I #
coedge $-1 $178 $178 $-1 $262 reversed $108 $-1 #
edge $-1 $263 0 $263 6.2831853071796004 $109 $264 forward 7 unknown #
vertex $-1 $112 $265 #
ellipse-curve $-1 34.71175924547574 -18.24321984016467 5.7267226175439054 0 -0.57357644374324357 0.81915203911291934 1 0 0 1 I I #
coedge $-1 $182 $182 $-1 $266 reversed $115 $-1 #
edge $-1 $267 0 $267 6.2831853071796004 $116 $268 forward 7 unknown #
vertex $-1 $119 $269 #
ellipse-curve $-1 41.332318676674738 -18.24321984016467 5.7267226175439054 0 -0.57357644374324357 0.81915203911291934 1 0 0 1 I I #
face $-1 $-1 $135 $18 $-1 $270 reversed single #
loop $-1 $-1 $202 $120 #
plane-surface $-1 0 22.330906659334822 0 0 -1 0 0 0 -1 forward_v I I I I #
coedge $-1 $271 $200 $203 $272 forward $121 $-1 #
coedge $-1 $206 $123 $124 $194 reversed $76 $-1 #
coedge $-1 $200 $271 $123 $192 reversed $121 $-1 #
edge $-1 $207 -8.5889517971413571 $273 8.5889517971413571 $191 $274 forward 7 unknown #
coedge $-1 $125 $124 $271 $275 forward $49 $-1 #
edge $-1 $198 -45.746024964140751 $273 45.746024964140751 $190 $276 forward 7 unknown #
coedge $-1 $203 $202 $125 $196 reversed $187 $-1 #
edge $-1 $277 -45.746024964140751 $197 45.746024964140751 $195 $278 forward 7 unknown #
vertex $-1 $127 $279 #
vertex $-1 $209 $280 #
straight-curve $-1 45.746024964140751 0 -8.5889517971413571 0 -1 0 I I #
coedge $-1 $189 $191 $128 $201 reversed $121 $-1 #
edge $-1 $204 -22.330906659334822 $207 22.330906659334822 $200 $281 forward 7 unknown #
coedge $-1 $195 $129 $134 $210 forward $187 $-1 #
coedge $-1 $129 $195 $189 $272 reversed $187 $-1 #
vertex $-1 $130 $282 #
straight-curve $-1 0 22.330906659334822 8.5889517971413571 -1 0 0 I I #
coedge $-1 $131 $190 $133 $209 reversed $76 $-1 #
vertex $-1 $201 $283 #
straight-curve $-1 0 -22.330906659334822 8.5889517971413571 1 0 0 I I #
edge $-1 $136 -8.5889517971413571 $198 8.5889517971413571 $133 $284 forward 7 unknown #
edge $-1 $137 -8.5889517971413571 $197 8.5889517971413571 $134 $285 forward 7 unknown #
point $-1 45.746024964140751 -22.330906659334822 8.5889517971413571 #
point $-1 45.746024964140751 22.330906659334822 8.5889517971413571 #
face $-1 $-1 $154 $19 $-1 $286 reversed single #
loop $-1 $-1 $222 $139 #
plane-surface $-1 0 0 8.5889517971413571 0 0 1 1 0 0 forward_v I I I I #
coedge $-1 $228 $227 $143 $221 forward $140 $-1 #
coedge $-1 $145 $142 $228 $287 reversed $84 $-1 #
coedge $-1 $142 $145 $231 $288 reversed $84 $-1 #
edge $-1 $233 -8.5889517971413571 $229 8.5889517971413571 $142 $289 forward 7 unknown #
coedge $-1 $144 $143 $235 $290 reversed $53 $-1 #
edge $-1 $291 -24.416825912528719 $225 -18.241572190695347 $216 $292 forward 7 unknown #
coedge $-1 $232 $231 $144 $223 forward $214 $-1 #
edge $-1 $224 18.241572190695347 $293 24.416825912528719 $222 $294 forward 7 unknown #
vertex $-1 $223 $295 #
vertex $-1 $221 $296 #
straight-curve $-1 -39.57077124230738 -5.1530030650521077 0 0 0 -1 I I #
coedge $-1 $216 $148 $153 $237 forward $140 $-1 #
coedge $-1 $148 $216 $217 $287 forward $140 $-1 #
vertex $-1 $149 $297 #
straight-curve $-1 -21.329199051612033 -8.9162887168224394 -8.5889517971413571 -1 0 0 I I #
coedge $-1 $222 $150 $218 $288 forward $214 $-1 #
coedge $-1 $150 $222 $152 $236 forward $214 $-1 #
vertex $-1 $151 $298 #
straight-curve $-1 -21.329199051612033 -8.9162887168224394 8.5889517971413571 1 0 0 I I #
coedge $-1 $153 $152 $220 $290 forward $154 $-1 #
edge $-1 $293 5.1530030650521077 $156 8.9162887168224394 $152 $299 forward 7 unknown #
edge $-1 $155 -8.9162887168224394 $291 -5.1530030650521077 $153 $300 forward 7 unknown #
point $-1 -45.746024964140751 -8.9162887168224394 -8.5889517971413571 #
point $-1 -45.746024964140751 -8.9162887168224394 8.5889517971413571 #
loop $-1 $-1 $167 $158 #
plane-surface $-1 45.746024964140751 0 0 -1 0 0 0 0 1 forward_v I I I I #
coedge $-1 $301 $161 $166 $248 forward $92 $-1 #
coedge $-1 $161 $301 $245 $302 reversed $92 $-1 #
edge $-1 $246 30.316244552518285 $253 36.040702911713183 $161 $303 forward 7 unknown #
coedge $-1 $170 $164 $243 $302 forward $159 $-1 #
vertex $-1 $302 $304 #
straight-curve $-1 23.67749352681075 -37.404295643988902 8.5889517971413554 0 -1 0 I I #
edge $-1 $253 6.3216139040728727 $251 28.390145341402881 $242 $305 forward 7 unknown #
coedge $-1 $250 $167 $170 $255 reversed $240 $-1 #
coedge $-1 $167 $249 $301 $306 forward $240 $-1 #
vertex $-1 $248 $307 #
straight-curve $-1 45.746024964140751 -15.511710956032044 7.6393457656355821 0 0.81915203911291934 0.57357644374324357 I I #
vertex $-1 $248 $308 #
straight-curve $-1 23.67749352681075 -22.330906659334815 2.8644934379464644 0 0.81915203911291934 0.57357644374324357 I I #
edge $-1 $309 -22.330906659334822 $171 -14.155533020994513 $249 $310 forward 7 unknown #
point $-1 45.746024964140759 -14.155533020994513 8.5889517971413571 #
point $-1 23.67749352681075 -14.155533020994513 8.5889517971413571 #
edge $-1 $311 1 $311 0 $174 $-1 forward 7 unknown #
vertex $-1 $175 $312 #
ellipse-curve $-1 28.091199814276742 -16.975932209387381 3.9168483484421324 0 -0.57357644374324357 0.81915203911291934 1 0 0 1 I I #
point $-1 29.091199814276742 -18.243219840164674 5.7267226175439117 #
edge $-1 $313 1 $313 0 $178 $-1 forward 7 unknown #
vertex $-1 $179 $314 #
ellipse-curve $-1 34.71175924547574 -16.975932209387381 3.9168483484421324 0 -0.57357644374324357 0.81915203911291934 1 0 0 1 I I #
point $-1 35.71175924547574 -18.243219840164674 5.7267226175439117 #
edge $-1 $315 1 $315 0 $182 $-1 forward 7 unknown #
vertex $-1 $183 $316 #
ellipse-curve $-1 41.332318676674738 -16.975932209387381 3.9168483484421324 0 -0.57357644374324357 0.81915203911291934 1 0 0 1 I I #
point $-1 42.332318676674738 -18.243219840164674 5.7267226175439117 #
plane-surface $-1 45.746024964140751 0 0 -1 0 0 0 0 1 forward_v I I I I #
coedge $-1 $191 $189 $193 $275 reversed $121 $-1 #
edge $-1 $204 -8.5889517971413571 $277 8.5889517971413571 $203 $317 forward 7 unknown #
vertex $-1 $275 $318 #
straight-curve $-1 -45.746024964140751 -22.330906659334822 0 0 0 -1 I I #
edge $-1 $273 -22.330906659334822 $277 22.330906659334822 $271 $319 forward 7 unknown #
straight-curve $-1 0 -22.330906659334822 -8.5889517971413571 -1 0 0 I I #
vertex $-1 $196 $320 #
straight-curve $-1 0 22.330906659334822 -8.5889517971413571 1 0 0 I I #
point $-1 45.746024964140751 22.330906659334822 -8.5889517971413571 #
point $-1 45.746024964140751 -22.330906659334822 -8.5889517971413571 #
straight-curve $-1 -45.746024964140751 0 8.5889517971413571 0 -1 0 I I #
point $-1 -45.746024964140751 22.330906659334822 8.5889517971413571 #
point $-1 -45.746024964140751 -22.330906659334822 8.5889517971413571 #
straight-curve $-1 45.746024964140751 -22.330906659334822 0 0 0 -1 I I #
straight-curve $-1 45.746024964140751 22.330906659334822 0 0 0 -1 I I #
plane-surface $-1 -45.746024964140751 0 0 1 0 0 0 0 -1 forward_v I I I I #
edge $-1 $225 1.6356801195834709 $229 5.3989657713538026 $228 $321 forward 7 unknown #
edge $-1 $233 -5.3989657713538026 $224 -1.6356801195834709 $231 $322 forward 7 unknown #
straight-curve $-1 -39.57077124230738 -8.9162887168224394 0 0 0 -1 I I #
edge $-1 $293 -8.5889517971413571 $291 8.5889517971413571 $235 $323 forward 7 unknown #
vertex $-1 $290 $324 #
straight-curve $-1 -21.329199051612033 -5.1530030650521077 -8.5889517971413571 1 0 0 I I #
vertex $-1 $236 $325 #
straight-curve $-1 -21.329199051612033 -5.1530030650521077 8.5889517971413571 -1 0 0 I I #
point $-1 -39.57077124230738 -5.1530030650521077 8.5889517971413571 #
point $-1 -39.57077124230738 -5.1530030650521077 -8.5889517971413571 #
point $-1 -39.57077124230738 -8.9162887168224394 -8.5889517971413571 #
point $-1 -39.57077124230738 -8.9162887168224394 8.5889517971413571 #
straight-curve $-1 -45.746024964140751 0 8.5889517971413571 0 -1 0 I I #
straight-curve $-1 -45.746024964140751 0 -8.5889517971413571 0 1 0 I I #
coedge $-1 $243 $242 $250 $306 reversed $92 $-1 #
edge $-1 $246 23.67749352681075 $309 45.746024964140751 $243 $326 forward 7 unknown #
straight-curve $-1 23.67749352681075 -22.330906659334822 38.90519634965964 0 0 -1 I I #
point $-1 23.67749352681075 -22.330906659334822 8.5889517971413571 #
straight-curve $-1 17.355879622737877 -22.330906659334822 2.8644934379464604 1 0 0 I I #
edge $-1 $309 -8.5889517971413571 $251 -2.8644934379464595 $250 $327 forward 7 unknown #
point $-1 45.746024964140759 -22.330906659334822 2.8644934379464595 #
point $-1 23.67749352681075 -22.330906659334822 2.8644934379464595 #
vertex $-1 $255 $328 #
straight-curve $-1 45.746024964140751 0 8.5889517971413571 0 1 0 I I #
vertex $-1 $258 $329 #
point $-1 29.091199814276742 -16.975932209387381 3.9168483484421324 #
vertex $-1 $262 $330 #
point $-1 35.71175924547574 -16.975932209387381 3.9168483484421324 #
vertex $-1 $266 $331 #
point $-1 42.332318676674738 -16.975932209387381 3.9168483484421324 #
straight-curve $-1 -45.746024964140751 22.330906659334822 0 0 0 -1 I I #
point $-1 -45.746024964140751 -22.330906659334822 -8.5889517971413571 #
straight-curve $-1 -45.746024964140751 0 -8.5889517971413571 0 1 0 I I #
point $-1 -45.746024964140751 22.330906659334822 -8.5889517971413571 #
straight-curve $-1 -39.57077124230738 -3.5173229454686368 -8.5889517971413571 0 -1 0 I I #
straight-curve $-1 -39.57077124230738 -3.5173229454686368 8.5889517971413571 0 1 0 I I #
straight-curve $-1 -45.746024964140751 -5.1530030650521077 0 0 0 -1 I I #
point $-1 -45.746024964140751 -5.1530030650521077 -8.5889517971413571 #
point $-1 -45.746024964140751 -5.1530030650521077 8.5889517971413571 #
straight-curve $-1 0 -22.330906659334822 8.5889517971413571 1 0 0 I I #
straight-curve $-1 45.746024964140751 -22.330906659334822 0 0 0 -1 I I #
point $-1 45.746024964140751 -22.330906659334822 8.5889517971413571 #
point $-1 28.091199814276742 -16.402355765644138 3.0976963093292134 #
point $-1 34.71175924547574 -16.402355765644138 3.0976963093292134 #
point $-1 41.332318676674738 -16.402355765644138 3.0976963093292134 #
End-of-ACIS-data 