500 0 8 0           
7 Unknown 11 ACIS 5.0 NT 24 Thu Mar 25 15:45:57 1999 
-1 9.9999999999999995e-007 1e-010 
body $-1 $8 $-1 $9 #
body $-1 $10 $-1 $11 #
body $-1 $12 $-1 $13 #
body $-1 $14 $-1 $15 #
body $-1 $16 $-1 $17 #
body $-1 $18 $-1 $19 #
body $-1 $20 $-1 $21 #
body $-1 $22 $-1 $23 #
lump $-1 $-1 $24 $0 #
transform $-1 1 0 0 0 1 0 0 0 1 48.335215308084351 32.950022015434485 14.534633112854044 1 rotate no_reflect no_shear #
lump $-1 $-1 $25 $1 #
transform $-1 1 0 0 0 1 0 0 0 1 48.335215308084351 32.950022015434485 14.534633112854044 1 rotate no_reflect no_shear #
lump $-1 $-1 $26 $2 #
transform $-1 1 0 0 0 1 0 0 0 1 48.335215308084351 32.950022015434485 14.534633112854044 1 rotate no_reflect no_shear #
lump $-1 $-1 $27 $3 #
transform $-1 1 0 0 0 1 0 0 0 1 48.335215308084351 32.950022015434485 14.534633112854044 1 rotate no_reflect no_shear #
lump $-1 $-1 $28 $4 #
transform $-1 1 0 0 0 1 0 0 0 1 48.335215308084351 32.950022015434485 14.534633112854044 1 rotate no_reflect no_shear #
lump $-1 $-1 $29 $5 #
transform $-1 1 0 0 0 1 0 0 0 1 48.335215308084351 32.950022015434485 14.534633112854044 1 rotate no_reflect no_shear #
lump $-1 $-1 $30 $6 #
transform $-1 1 0 0 0 1 0 0 0 1 48.335215308084351 32.950022015434485 14.534633112854044 1 rotate no_reflect no_shear #
lump $-1 $-1 $31 $7 #
transform $-1 1 0 0 0 1 0 0 0 1 48.335215308084351 32.950022015434485 14.534633112854044 1 rotate no_reflect no_shear #
shell $-1 $-1 $-1 $32 $-1 $8 #
shell $-1 $-1 $-1 $33 $-1 $10 #
shell $-1 $-1 $-1 $34 $-1 $12 #
shell $-1 $-1 $-1 $35 $-1 $14 #
shell $-1 $-1 $-1 $36 $-1 $16 #
shell $-1 $-1 $-1 $37 $-1 $18 #
shell $-1 $-1 $-1 $38 $-1 $20 #
shell $-1 $-1 $-1 $39 $-1 $22 #
face $-1 $40 $41 $24 $-1 $42 forward single #
face $-1 $43 $44 $25 $-1 $45 reversed single #
face $-1 $46 $47 $26 $-1 $48 reversed single #
face $-1 $49 $50 $27 $-1 $51 forward single #
face $-1 $52 $53 $28 $-1 $54 forward single #
face $-1 $55 $56 $29 $-1 $57 reversed single #
face $-1 $58 $59 $30 $-1 $60 forward single #
face $-1 $61 $62 $31 $-1 $63 forward single #
face $-1 $64 $65 $24 $-1 $66 reversed single #
loop $-1 $-1 $67 $32 #
plane-surface $-1 0 0 14.534633112854044 0 0 1 1 0 0 forward_v I I I I #
face $-1 $68 $69 $25 $-1 $70 reversed single #
loop $-1 $-1 $71 $33 #
plane-surface $-1 -41.71064828848364 -21.101678790940838 0 0 1 0 0 0 1 forward_v I I I I #
face $-1 $72 $73 $26 $-1 $74 reversed single #
loop $-1 $-1 $75 $34 #
plane-surface $-1 12.951382929229915 0 133.61019185017156 0 -1 0 -0.50000000669873634 0 -0.8660253999169214 forward_v I I I I #
face $-1 $76 $77 $27 $-1 $78 forward single #
loop $-1 $79 $80 $35 #
cone-surface $-1 36.653670546437503 -4.786228123675123 7.2803092935378997 -0.50000000669873634 0 -0.8660253999169214 0.4330126999584607 0 -0.25000000334936817 1 I I 0 1 0.5 forward I I I I #
face $-1 $81 $82 $28 $-1 $83 forward single #
loop $-1 $84 $85 $36 #
cone-surface $-1 36.653670546437503 -1.9144912494700499 7.2803092935378997 -0.50000000669873634 0 -0.8660253999169214 0.4330126999584607 0 -0.25000000334936817 1 I I 0 1 0.5 forward I I I I #
face $-1 $86 $87 $29 $-1 $88 reversed single #
loop $-1 $-1 $89 $37 #
plane-surface $-1 -35.383833026424163 -3.3503596865725846 49.89114351566306 0.50000000669873634 0 0.8660253999169214 0.8660253999169214 0 -0.50000000669873634 forward_v I I I I #
face $-1 $90 $91 $30 $-1 $92 forward single #
loop $-1 $93 $94 $38 #
cone-surface $-1 36.653670546437503 1.9144912494700463 7.2803092935378997 -0.50000000669873634 0 -0.8660253999169214 0.4330126999584607 0 -0.25000000334936817 1 I I 0 1 0.5 forward I I I I #
face $-1 $95 $96 $31 $-1 $97 forward single #
loop $-1 $98 $99 $39 #
cone-surface $-1 36.653670546437503 4.7862281236751159 7.2803092935378997 -0.50000000669873634 0 -0.8660253999169214 0.4330126999584607 0 -0.25000000334936817 1 I I 0 1 0.5 forward I I I I #
face $-1 $100 $101 $24 $-1 $102 reversed single #
loop $-1 $-1 $103 $40 #
plane-surface $-1 0 0 -14.534633112854044 0 0 1 1 0 0 forward_v I I I I #
coedge $-1 $104 $105 $106 $107 forward $41 $-1 #
face $-1 $108 $109 $25 $-1 $110 reversed single #
loop $-1 $-1 $111 $43 #
plane-surface $-1 -41.71064828848364 -16.60267156383938 0 0 -1 0 0 0 -1 forward_v I I I I #
coedge $-1 $112 $113 $114 $115 reversed $44 $-1 #
face $-1 $116 $117 $26 $-1 $118 reversed single #
loop $-1 $-1 $119 $46 #
plane-surface $-1 -35.383833026424163 -3.3503596865725846 49.89114351566306 0.50000000669873634 0 0.8660253999169214 0.8660253999169214 0 -0.50000000669873634 forward_v I I I I #
coedge $-1 $120 $121 $122 $123 reversed $47 $-1 #
face $-1 $-1 $124 $27 $-1 $125 forward single #
loop $-1 $126 $127 $49 #
cone-surface $-1 36.087014299336481 -4.786228123675123 6.2988319006650446 -0.50000000669873634 0 -0.8660253999169214 0.21650634997923035 0 -0.12500000167468409 1 I I -0.70710678118654746 0.70710678118654746 0.25 forward I I I I #
loop $-1 $-1 $128 $35 #
coedge $-1 $80 $80 $129 $130 reversed $50 $-1 #
face $-1 $-1 $131 $28 $-1 $132 forward single #
loop $-1 $133 $134 $52 #
cone-surface $-1 36.087014299336481 -1.9144912494700499 6.2988319006650446 -0.50000000669873634 0 -0.8660253999169214 0.21650634997923035 0 -0.12500000167468409 1 I I -0.70710678118654746 0.70710678118654746 0.25 forward I I I I #
loop $-1 $-1 $135 $36 #
coedge $-1 $85 $85 $136 $137 reversed $53 $-1 #
face $-1 $138 $139 $29 $-1 $140 reversed single #
loop $-1 $-1 $141 $55 #
plane-surface $-1 12.951382929229915 6.7007193731451729 133.61019185017156 0 -1 0 -0.50000000669873634 0 -0.8660253999169214 forward_v I I I I #
coedge $-1 $142 $143 $144 $145 reversed $56 $-1 #
face $-1 $-1 $146 $30 $-1 $147 forward single #
loop $-1 $148 $149 $58 #
cone-surface $-1 36.087014299336481 1.9144912494700463 6.2988319006650446 -0.50000000669873634 0 -0.8660253999169214 0.21650634997923035 0 -0.12500000167468409 1 I I -0.70710678118654746 0.70710678118654746 0.25 forward I I I I #
loop $-1 $-1 $150 $38 #
coedge $-1 $94 $94 $151 $152 reversed $59 $-1 #
face $-1 $-1 $153 $31 $-1 $154 forward single #
loop $-1 $155 $156 $61 #
cone-surface $-1 36.087014299336481 4.7862281236751159 6.2988319006650446 -0.50000000669873634 0 -0.8660253999169214 0.21650634997923035 0 -0.12500000167468409 1 I I -0.70710678118654746 0.70710678118654746 0.25 forward I I I I #
loop $-1 $-1 $157 $39 #
coedge $-1 $99 $99 $158 $159 reversed $62 $-1 #
face $-1 $160 $161 $24 $-1 $162 reversed single #
loop $-1 $-1 $163 $64 #
plane-surface $-1 0 -32.950022015434485 0 0 1 0 0 0 1 forward_v I I I I #
coedge $-1 $164 $165 $166 $167 forward $65 $-1 #
coedge $-1 $168 $67 $169 $170 forward $41 $-1 #
coedge $-1 $67 $168 $171 $172 forward $41 $-1 #
coedge $-1 $173 $174 $67 $107 reversed $175 $-1 #
edge $-1 $176 -32.950022015434485 $177 32.950022015434485 $106 $178 forward 7 unknown #
face $-1 $179 $180 $25 $-1 $181 reversed single #
loop $-1 $-1 $182 $68 #
plane-surface $-1 -35.086081268882928 -18.852175177390109 0 -1 0 0 0 0 1 forward_v I I I I #
coedge $-1 $183 $184 $185 $186 forward $69 $-1 #
coedge $-1 $187 $71 $188 $189 reversed $44 $-1 #
coedge $-1 $71 $187 $190 $191 reversed $44 $-1 #
coedge $-1 $192 $193 $71 $115 forward $194 $-1 #
edge $-1 $195 -14.534633112854044 $196 14.534633112854044 $114 $197 forward 7 unknown #
face $-1 $198 $199 $26 $-1 $200 reversed single #
loop $-1 $-1 $201 $72 #
plane-surface $-1 12.951382929229915 -6.7007193731451693 133.61019185017156 0 1 0 0.50000000669873634 0 0.8660253999169214 forward_v I I I I #
coedge $-1 $202 $203 $204 $205 reversed $73 $-1 #
coedge $-1 $121 $75 $206 $207 reversed $47 $-1 #
coedge $-1 $75 $120 $202 $208 reversed $47 $-1 #
coedge $-1 $204 $209 $75 $123 forward $210 $-1 #
edge $-1 $211 -41.85952384346939 $212 -19.379746811028351 $122 $213 forward 7 unknown #
loop $-1 $-1 $129 $76 #
plane-surface $-1 -35.383833026424163 -3.3503596865725846 49.89114351566306 0.50000000669873634 0 0.8660253999169214 0.8660253999169214 0 -0.50000000669873634 forward_v I I I I #
loop $-1 $-1 $214 $49 #
coedge $-1 $127 $127 $128 $215 reversed $77 $-1 #
coedge $-1 $128 $128 $127 $215 forward $79 $-1 #
coedge $-1 $129 $129 $80 $130 forward $124 $-1 #
edge $-1 $216 0 $216 6.2831853071796004 $129 $217 forward 7 unknown #
loop $-1 $-1 $136 $81 #
plane-surface $-1 -35.383833026424163 -3.3503596865725846 49.89114351566306 0.50000000669873634 0 0.8660253999169214 0.8660253999169214 0 -0.50000000669873634 forward_v I I I I #
loop $-1 $-1 $218 $52 #
coedge $-1 $134 $134 $135 $219 reversed $82 $-1 #
coedge $-1 $135 $135 $134 $219 forward $84 $-1 #
coedge $-1 $136 $136 $85 $137 forward $131 $-1 #
edge $-1 $220 0 $220 6.2831853071796004 $136 $221 forward 7 unknown #
face $-1 $222 $223 $29 $-1 $224 forward single #
loop $-1 $-1 $225 $86 #
plane-surface $-1 48.335215308084351 0 0 -1 0 0 0 0 1 forward_v I I I I #
coedge $-1 $226 $227 $228 $229 reversed $87 $-1 #
coedge $-1 $230 $89 $231 $232 reversed $56 $-1 #
coedge $-1 $89 $230 $225 $233 reversed $56 $-1 #
coedge $-1 $234 $235 $89 $145 forward $223 $-1 #
edge $-1 $236 70.713019858242276 $237 96.670430616168716 $144 $238 forward 7 unknown #
loop $-1 $-1 $151 $90 #
plane-surface $-1 -35.383833026424163 -3.3503596865725846 49.89114351566306 0.50000000669873634 0 0.8660253999169214 0.8660253999169214 0 -0.50000000669873634 forward_v I I I I #
loop $-1 $-1 $239 $58 #
coedge $-1 $149 $149 $150 $240 reversed $91 $-1 #
coedge $-1 $150 $150 $149 $240 forward $93 $-1 #
coedge $-1 $151 $151 $94 $152 forward $146 $-1 #
edge $-1 $241 0 $241 6.2831853071796004 $151 $242 forward 7 unknown #
loop $-1 $-1 $158 $95 #
plane-surface $-1 -35.383833026424163 -3.3503596865725846 49.89114351566306 0.50000000669873634 0 0.8660253999169214 0.8660253999169214 0 -0.50000000669873634 forward_v I I I I #
loop $-1 $-1 $243 $61 #
coedge $-1 $156 $156 $157 $244 reversed $96 $-1 #
coedge $-1 $157 $157 $156 $244 forward $98 $-1 #
coedge $-1 $158 $158 $99 $159 forward $153 $-1 #
edge $-1 $245 0 $245 6.2831853071796004 $158 $246 forward 7 unknown #
face $-1 $247 $248 $24 $-1 $249 reversed single #
loop $-1 $-1 $250 $100 #
plane-surface $-1 -48.335215308084351 0 0 1 0 0 0 0 -1 forward_v I I I I #
coedge $-1 $251 $171 $252 $253 forward $101 $-1 #
coedge $-1 $254 $103 $251 $255 forward $65 $-1 #
coedge $-1 $103 $254 $256 $257 forward $65 $-1 #
coedge $-1 $174 $173 $103 $167 reversed $175 $-1 #
edge $-1 $258 -32.950022015434485 $259 32.950022015434485 $166 $260 forward 7 unknown #
coedge $-1 $105 $104 $261 $262 forward $41 $-1 #
coedge $-1 $263 $264 $104 $170 reversed $248 $-1 #
edge $-1 $177 -48.335215308084351 $265 48.335215308084351 $169 $266 forward 7 unknown #
coedge $-1 $163 $267 $105 $172 reversed $101 $-1 #
edge $-1 $268 -48.335215308084351 $176 48.335215308084351 $171 $269 forward 7 unknown #
coedge $-1 $166 $106 $267 $270 forward $175 $-1 #
coedge $-1 $106 $166 $263 $271 reversed $175 $-1 #
loop $-1 $-1 $173 $247 #
vertex $-1 $107 $272 #
vertex $-1 $107 $273 #
straight-curve $-1 48.335215308084351 0 14.534633112854044 0 1 0 I I #
face $-1 $274 $275 $25 $-1 $276 forward single #
loop $-1 $-1 $277 $108 #
plane-surface $-1 0 0 -14.534633112854044 0 0 1 1 0 0 forward_v I I I I #
coedge $-1 $278 $279 $187 $280 forward $109 $-1 #
coedge $-1 $281 $111 $277 $282 reversed $69 $-1 #
coedge $-1 $111 $281 $283 $284 reversed $69 $-1 #
coedge $-1 $279 $278 $111 $186 reversed $109 $-1 #
edge $-1 $285 -14.534633112854044 $286 14.534633112854044 $185 $287 forward 7 unknown #
coedge $-1 $113 $112 $182 $280 reversed $44 $-1 #
coedge $-1 $288 $289 $112 $189 forward $180 $-1 #
edge $-1 $290 14.230757124641109 $195 27.479891163842531 $188 $291 forward 7 unknown #
coedge $-1 $292 $293 $113 $191 forward $275 $-1 #
edge $-1 $196 -27.479891163842531 $294 -14.230757124641109 $190 $295 forward 7 unknown #
coedge $-1 $296 $114 $293 $297 reversed $194 $-1 #
coedge $-1 $114 $296 $288 $298 reversed $194 $-1 #
loop $-1 $-1 $296 $274 #
vertex $-1 $298 $299 #
vertex $-1 $115 $300 #
straight-curve $-1 -48.335215308084351 -21.101678790940838 0 0 0 1 I I #
face $-1 $-1 $210 $26 $-1 $301 forward single #
loop $-1 $-1 $302 $116 #
plane-surface $-1 48.335215308084351 0 0 -1 0 0 0 0 1 forward_v I I I I #
coedge $-1 $303 $304 $305 $306 reversed $117 $-1 #
coedge $-1 $307 $119 $121 $208 forward $73 $-1 #
coedge $-1 $119 $307 $303 $308 forward $73 $-1 #
coedge $-1 $305 $122 $119 $205 forward $210 $-1 #
edge $-1 $212 -1.6751798432862923 $309 5.025539529858877 $204 $310 forward 7 unknown #
coedge $-1 $311 $312 $120 $207 forward $199 $-1 #
edge $-1 $313 -65.249168365076798 $211 -52.270462812231735 $206 $314 forward 7 unknown #
edge $-1 $212 70.713019858242276 $313 96.670430616168716 $121 $315 forward 7 unknown #
coedge $-1 $122 $305 $311 $316 forward $210 $-1 #
loop $-1 $-1 $305 $198 #
vertex $-1 $207 $317 #
vertex $-1 $123 $318 #
straight-curve $-1 6.4756914646149575 0 14.534633112854046 -1 0 0 I I #
coedge $-1 $214 $214 $-1 $319 reversed $126 $-1 #
edge $-1 $320 0 $320 6.2831853071796004 $127 $321 forward 7 unknown #
vertex $-1 $130 $322 #
ellipse-curve $-1 37.095326791863833 -4.786228123675123 8.0452803364315084 0.50000000669873634 0 0.8660253999169214 0.4330126999584607 0 -0.25000000334936817 1 I I #
coedge $-1 $218 $218 $-1 $323 reversed $133 $-1 #
edge $-1 $324 0 $324 6.2831853071796004 $134 $325 forward 7 unknown #
vertex $-1 $137 $326 #
ellipse-curve $-1 37.095326791863833 -1.9144912494700499 8.0452803364315084 0.50000000669873634 0 0.8660253999169214 0.4330126999584607 0 -0.25000000334936817 1 I I #
face $-1 $-1 $327 $29 $-1 $328 forward single #
loop $-1 $-1 $235 $138 #
plane-surface $-1 12.951382929229915 0 133.61019185017156 0 -1 0 -0.50000000669873634 0 -0.8660253999169214 forward_v I I I I #
coedge $-1 $228 $329 $143 $233 forward $139 $-1 #
coedge $-1 $227 $141 $230 $330 reversed $87 $-1 #
coedge $-1 $141 $226 $331 $332 reversed $87 $-1 #
coedge $-1 $333 $225 $141 $229 forward $139 $-1 #
edge $-1 $334 -65.249168365076798 $335 -52.270462812231735 $228 $336 forward 7 unknown #
coedge $-1 $143 $142 $226 $330 forward $56 $-1 #
coedge $-1 $337 $331 $142 $232 forward $327 $-1 #
edge $-1 $338 -8.3758992164314652 $236 -1.6751798432862923 $231 $339 forward 7 unknown #
edge $-1 $237 1.6751798432862923 $334 8.3758992164314652 $225 $340 forward 7 unknown #
coedge $-1 $235 $144 $329 $341 reversed $223 $-1 #
coedge $-1 $144 $234 $337 $342 reversed $223 $-1 #
vertex $-1 $232 $343 #
vertex $-1 $233 $344 #
straight-curve $-1 -35.383833026424163 0 49.89114351566306 0.8660253999169214 0 -0.50000000669873634 I I #
coedge $-1 $239 $239 $-1 $345 reversed $148 $-1 #
edge $-1 $346 0 $346 6.2831853071796004 $149 $347 forward 7 unknown #
vertex $-1 $152 $348 #
ellipse-curve $-1 37.095326791863833 1.9144912494700463 8.0452803364315084 0.50000000669873634 0 0.8660253999169214 0.4330126999584607 0 -0.25000000334936817 1 I I #
coedge $-1 $243 $243 $-1 $349 reversed $155 $-1 #
edge $-1 $350 0 $350 6.2831853071796004 $156 $351 forward 7 unknown #
vertex $-1 $159 $352 #
ellipse-curve $-1 37.095326791863833 4.7862281236751159 8.0452803364315084 0.50000000669873634 0 0.8660253999169214 0.4330126999584607 0 -0.25000000334936817 1 I I #
face $-1 $-1 $175 $24 $-1 $353 reversed single #
loop $-1 $-1 $263 $160 #
plane-surface $-1 0 32.950022015434485 0 0 -1 0 0 0 -1 forward_v I I I I #
coedge $-1 $354 $261 $264 $355 forward $161 $-1 #
coedge $-1 $267 $163 $164 $255 reversed $101 $-1 #
coedge $-1 $261 $354 $163 $253 reversed $161 $-1 #
edge $-1 $268 -14.534633112854044 $356 14.534633112854044 $252 $357 forward 7 unknown #
coedge $-1 $165 $164 $354 $358 forward $65 $-1 #
edge $-1 $259 -48.335215308084351 $356 48.335215308084351 $251 $359 forward 7 unknown #
coedge $-1 $264 $263 $165 $257 reversed $248 $-1 #
edge $-1 $360 -48.335215308084351 $258 48.335215308084351 $256 $361 forward 7 unknown #
vertex $-1 $167 $362 #
vertex $-1 $270 $363 #
straight-curve $-1 48.335215308084351 0 -14.534633112854044 0 -1 0 I I #
coedge $-1 $250 $252 $168 $262 reversed $161 $-1 #
edge $-1 $265 -32.950022015434485 $268 32.950022015434485 $261 $364 forward 7 unknown #
coedge $-1 $256 $169 $174 $271 forward $248 $-1 #
coedge $-1 $169 $256 $250 $355 reversed $248 $-1 #
vertex $-1 $170 $365 #
straight-curve $-1 0 32.950022015434485 14.534633112854044 -1 0 0 I I #
coedge $-1 $171 $251 $173 $270 reversed $101 $-1 #
vertex $-1 $262 $366 #
straight-curve $-1 0 -32.950022015434485 14.534633112854044 1 0 0 I I #
edge $-1 $176 -14.534633112854044 $259 14.534633112854044 $173 $367 forward 7 unknown #
edge $-1 $177 -14.534633112854044 $258 14.534633112854044 $174 $368 forward 7 unknown #
point $-1 48.335215308084351 -32.950022015434485 14.534633112854044 #
point $-1 48.335215308084351 32.950022015434485 14.534633112854044 #
face $-1 $-1 $194 $25 $-1 $369 reversed single #
loop $-1 $-1 $283 $179 #
plane-surface $-1 0 0 14.534633112854044 0 0 1 1 0 0 forward_v I I I I #
coedge $-1 $289 $288 $183 $282 forward $180 $-1 #
coedge $-1 $185 $182 $289 $370 reversed $109 $-1 #
coedge $-1 $182 $185 $292 $371 reversed $109 $-1 #
edge $-1 $294 -14.534633112854044 $290 14.534633112854044 $182 $372 forward 7 unknown #
coedge $-1 $184 $183 $296 $373 reversed $69 $-1 #
edge $-1 $374 -27.479891163842531 $286 -14.230757124641109 $277 $375 forward 7 unknown #
coedge $-1 $293 $292 $184 $284 forward $275 $-1 #
edge $-1 $285 14.230757124641109 $376 27.479891163842531 $283 $377 forward 7 unknown #
vertex $-1 $284 $378 #
vertex $-1 $282 $379 #
straight-curve $-1 -35.086081268882928 -16.60267156383938 0 0 0 -1 I I #
coedge $-1 $277 $188 $193 $298 forward $180 $-1 #
coedge $-1 $188 $277 $278 $370 forward $180 $-1 #
vertex $-1 $189 $380 #
straight-curve $-1 -20.85532414424182 -21.101678790940838 -14.534633112854044 -1 0 0 I I #
coedge $-1 $283 $190 $279 $371 forward $275 $-1 #
coedge $-1 $190 $283 $192 $297 forward $275 $-1 #
vertex $-1 $191 $381 #
straight-curve $-1 -20.85532414424182 -21.101678790940838 14.534633112854044 1 0 0 I I #
coedge $-1 $193 $192 $281 $373 forward $194 $-1 #
edge $-1 $376 16.60267156383938 $196 21.101678790940838 $192 $382 forward 7 unknown #
edge $-1 $195 -21.101678790940838 $374 -16.60267156383938 $193 $383 forward 7 unknown #
point $-1 -48.335215308084351 -21.101678790940838 -14.534633112854044 #
point $-1 -48.335215308084351 -21.101678790940838 14.534633112854044 #
plane-surface $-1 0 0 14.534633112854044 0 0 1 1 0 0 forward_v I I I I #
coedge $-1 $312 $311 $304 $384 forward $199 $-1 #
coedge $-1 $304 $201 $203 $308 reversed $117 $-1 #
coedge $-1 $201 $303 $302 $384 reversed $117 $-1 #
coedge $-1 $209 $204 $201 $306 forward $210 $-1 #
edge $-1 $309 19.379746811028351 $385 41.85952384346939 $305 $386 forward 7 unknown #
coedge $-1 $203 $202 $312 $387 reversed $73 $-1 #
edge $-1 $388 -96.670430616168716 $309 -70.713019858242276 $303 $389 forward 7 unknown #
vertex $-1 $205 $390 #
straight-curve $-1 25.855438275643309 -1.6751798432862923 14.534633112854049 0 -1 0 I I #
coedge $-1 $302 $206 $209 $316 reversed $199 $-1 #
coedge $-1 $206 $302 $307 $387 forward $199 $-1 #
vertex $-1 $207 $391 #
straight-curve $-1 48.335215308084351 0 66.80509592508578 0 0 1 I I #
straight-curve $-1 -35.383833026424163 0 49.89114351566306 0.8660253999169214 0 -0.50000000669873634 I I #
edge $-1 $385 -6.7007193731451693 $211 0 $311 $392 forward 7 unknown #
point $-1 48.335215308084351 0 14.534633112854044 #
point $-1 25.855438275643309 0 14.534633112854046 #
edge $-1 $393 1 $393 0 $214 $-1 forward 7 unknown #
vertex $-1 $215 $394 #
ellipse-curve $-1 36.212014301011166 -4.786228123675123 6.515338250644275 0.50000000669873634 0 0.8660253999169214 0.4330126999584607 0 -0.25000000334936817 1 I I #
point $-1 37.528339491822308 -4.786228123675123 7.7952803330821565 #
edge $-1 $395 1 $395 0 $218 $-1 forward 7 unknown #
vertex $-1 $219 $396 #
ellipse-curve $-1 36.212014301011166 -1.9144912494700499 6.515338250644275 0.50000000669873634 0 0.8660253999169214 0.4330126999584607 0 -0.25000000334936817 1 I I #
point $-1 37.528339491822308 -1.9144912494700499 7.7952803330821565 #
loop $-1 $-1 $231 $222 #
plane-surface $-1 0 0 14.534633112854044 0 0 1 1 0 0 forward_v I I I I #
coedge $-1 $225 $333 $234 $341 forward $139 $-1 #
edge $-1 $338 70.713019858242276 $334 96.670430616168716 $226 $397 forward 7 unknown #
coedge $-1 $231 $398 $227 $332 forward $327 $-1 #
edge $-1 $335 -41.85952384346939 $338 -19.379746811028351 $331 $399 forward 7 unknown #
coedge $-1 $329 $228 $398 $400 reversed $139 $-1 #
vertex $-1 $229 $401 #
vertex $-1 $229 $402 #
straight-curve $-1 48.335215308084351 6.7007193731451729 66.80509592508578 0 0 1 I I #
coedge $-1 $398 $231 $235 $342 forward $327 $-1 #
vertex $-1 $332 $403 #
straight-curve $-1 25.855438275643309 -1.6751798432862923 14.534633112854049 0 -1 0 I I #
straight-curve $-1 48.335215308084358 -1.6751798432862923 1.5559275600089748 0 1 0 I I #
edge $-1 $404 52.270462812231735 $237 65.249168365076798 $329 $405 forward 7 unknown #
edge $-1 $236 19.379746811028351 $404 41.85952384346939 $337 $406 forward 7 unknown #
point $-1 25.855438275643309 0 14.534633112854046 #
point $-1 48.335215308084351 0 1.5559275600089748 #
edge $-1 $407 1 $407 0 $239 $-1 forward 7 unknown #
vertex $-1 $240 $408 #
ellipse-curve $-1 36.212014301011166 1.9144912494700463 6.515338250644275 0.50000000669873634 0 0.8660253999169214 0.4330126999584607 0 -0.25000000334936817 1 I I #
point $-1 37.528339491822308 1.9144912494700463 7.7952803330821565 #
edge $-1 $409 1 $409 0 $243 $-1 forward 7 unknown #
vertex $-1 $244 $410 #
ellipse-curve $-1 36.212014301011166 4.7862281236751159 6.515338250644275 0.50000000669873634 0 0.8660253999169214 0.4330126999584607 0 -0.25000000334936817 1 I I #
point $-1 37.528339491822308 4.7862281236751159 7.7952803330821565 #
plane-surface $-1 48.335215308084351 0 0 -1 0 0 0 0 1 forward_v I I I I #
coedge $-1 $252 $250 $254 $358 reversed $161 $-1 #
edge $-1 $265 -14.534633112854044 $360 14.534633112854044 $264 $411 forward 7 unknown #
vertex $-1 $358 $412 #
straight-curve $-1 -48.335215308084351 -32.950022015434485 0 0 0 -1 I I #
edge $-1 $356 -32.950022015434485 $360 32.950022015434485 $354 $413 forward 7 unknown #
straight-curve $-1 0 -32.950022015434485 -14.534633112854044 -1 0 0 I I #
vertex $-1 $257 $414 #
straight-curve $-1 0 32.950022015434485 -14.534633112854044 1 0 0 I I #
point $-1 48.335215308084351 32.950022015434485 -14.534633112854044 #
point $-1 48.335215308084351 -32.950022015434485 -14.534633112854044 #
straight-curve $-1 -48.335215308084351 0 14.534633112854044 0 -1 0 I I #
point $-1 -48.335215308084351 32.950022015434485 14.534633112854044 #
point $-1 -48.335215308084351 -32.950022015434485 14.534633112854044 #
straight-curve $-1 48.335215308084351 -32.950022015434485 0 0 0 -1 I I #
straight-curve $-1 48.335215308084351 32.950022015434485 0 0 0 -1 I I #
plane-surface $-1 -48.335215308084351 0 0 1 0 0 0 0 -1 forward_v I I I I #
edge $-1 $286 7.1765839751443252 $290 11.675591202245784 $289 $415 forward 7 unknown #
edge $-1 $294 -11.675591202245784 $285 -7.1765839751443252 $292 $416 forward 7 unknown #
straight-curve $-1 -35.086081268882928 -21.101678790940838 0 0 0 -1 I I #
edge $-1 $376 -14.534633112854044 $374 14.534633112854044 $296 $417 forward 7 unknown #
vertex $-1 $373 $418 #
straight-curve $-1 -20.85532414424182 -16.60267156383938 -14.534633112854044 1 0 0 I I #
vertex $-1 $297 $419 #
straight-curve $-1 -20.85532414424182 -16.60267156383938 14.534633112854044 -1 0 0 I I #
point $-1 -35.086081268882928 -16.60267156383938 14.534633112854044 #
point $-1 -35.086081268882928 -16.60267156383938 -14.534633112854044 #
point $-1 -35.086081268882928 -21.101678790940838 -14.534633112854044 #
point $-1 -35.086081268882928 -21.101678790940838 14.534633112854044 #
straight-curve $-1 -48.335215308084351 0 14.534633112854044 0 -1 0 I I #
straight-curve $-1 -48.335215308084351 0 -14.534633112854044 0 1 0 I I #
edge $-1 $385 52.270462812231735 $388 65.249168365076798 $302 $420 forward 7 unknown #
vertex $-1 $316 $421 #
straight-curve $-1 6.4756914646149575 -6.7007193731451693 14.534633112854046 1 0 0 I I #
edge $-1 $388 -5.025539529858877 $313 1.6751798432862923 $312 $422 forward 7 unknown #
vertex $-1 $387 $423 #
straight-curve $-1 -35.383833026424163 -6.7007193731451693 49.89114351566306 -0.8660253999169214 0 0.50000000669873634 I I #
point $-1 25.855438275643309 -6.7007193731451693 14.534633112854046 #
point $-1 48.335215308084351 0 1.5559275600089748 #
straight-curve $-1 48.335215308084351 0 14.534633112854044 0 1 0 I I #
vertex $-1 $319 $424 #
point $-1 36.645027000969627 -4.786228123675123 6.2653382472949071 #
vertex $-1 $323 $425 #
point $-1 36.645027000969627 -1.9144912494700499 6.2653382472949071 #
straight-curve $-1 -35.383833026424163 6.7007193731451729 49.89114351566306 0.8660253999169214 0 -0.50000000669873634 I I #
coedge $-1 $331 $337 $333 $400 forward $327 $-1 #
straight-curve $-1 6.4756914646149575 6.7007193731451729 14.534633112854046 -1 0 0 I I #
edge $-1 $404 0 $335 6.7007193731451729 $333 $426 forward 7 unknown #
point $-1 48.335215308084351 6.7007193731451729 1.5559275600089748 #
point $-1 48.335215308084351 6.7007193731451729 14.534633112854044 #
point $-1 25.855438275643309 6.7007193731451729 14.534633112854046 #
vertex $-1 $400 $427 #
straight-curve $-1 48.335215308084351 0 66.80509592508578 0 0 -1 I I #
straight-curve $-1 6.4756914646149575 0 14.534633112854046 1 0 0 I I #
vertex $-1 $345 $428 #
point $-1 36.645027000969627 1.9144912494700463 6.2653382472949071 #
vertex $-1 $349 $429 #
point $-1 36.645027000969627 4.7862281236751159 6.2653382472949071 #
straight-curve $-1 -48.335215308084351 32.950022015434485 0 0 0 -1 I I #
point $-1 -48.335215308084351 -32.950022015434485 -14.534633112854044 #
straight-curve $-1 -48.335215308084351 0 -14.534633112854044 0 1 0 I I #
point $-1 -48.335215308084351 32.950022015434485 -14.534633112854044 #
straight-curve $-1 -35.086081268882928 -9.4260875886950544 -14.534633112854044 0 -1 0 I I #
straight-curve $-1 -35.086081268882928 -9.4260875886950544 14.534633112854044 0 1 0 I I #
straight-curve $-1 -48.335215308084351 -16.60267156383938 0 0 0 -1 I I #
point $-1 -48.335215308084351 -16.60267156383938 -14.534633112854044 #
point $-1 -48.335215308084351 -16.60267156383938 14.534633112854044 #
straight-curve $-1 48.335215308084351 -6.7007193731451693 66.80509592508578 0 0 -1 I I #
point $-1 48.335215308084351 -6.7007193731451693 14.534633112854044 #
straight-curve $-1 48.335215308084358 -1.6751798432862923 1.5559275600089748 0 1 0 I I #
point $-1 48.335215308084351 -6.7007193731451693 1.5559275600089748 #
point $-1 35.962014297661796 -4.786228123675123 6.0823255506858143 #
point $-1 35.962014297661796 -1.9144912494700499 6.0823255506858143 #
straight-curve $-1 48.335215308084351 0 14.534633112854044 0 1 0 I I #
point $-1 48.335215308084351 0 14.534633112854044 #
point $-1 35.962014297661796 1.9144912494700463 6.0823255506858143 #
point $-1 35.962014297661796 4.7862281236751159 6.0823255506858143 #
End-of-ACIS-data 