500 0 6 0           
7 Unknown 11 ACIS 5.0 NT 24 Fri Mar 26 15:47:44 1999 
-1 9.9999999999999995e-007 1e-010 
body $-1 $6 $-1 $7 #
body $-1 $8 $-1 $9 #
body $-1 $10 $-1 $11 #
body $-1 $12 $-1 $13 #
body $-1 $14 $-1 $15 #
body $-1 $16 $-1 $17 #
lump $-1 $-1 $18 $0 #
transform $-1 1 0 0 0 1 0 0 0 1 53.884701071199686 32.96295904696094 11.471395446769769 1 rotate no_reflect no_shear #
lump $-1 $-1 $19 $1 #
transform $-1 1 0 0 0 1 0 0 0 1 53.884701071199686 32.96295904696094 11.471395446769769 1 rotate no_reflect no_shear #
lump $-1 $-1 $20 $2 #
transform $-1 1 0 0 0 1 0 0 0 1 53.884701071199686 32.96295904696094 11.471395446769769 1 rotate no_reflect no_shear #
lump $-1 $-1 $21 $3 #
transform $-1 1 0 0 0 1 0 0 0 1 53.884701071199686 32.96295904696094 11.471395446769769 1 rotate no_reflect no_shear #
lump $-1 $-1 $22 $4 #
transform $-1 1 0 0 0 1 0 0 0 1 53.884701071199686 32.96295904696094 11.471395446769769 1 rotate no_reflect no_shear #
lump $-1 $-1 $23 $5 #
transform $-1 1 0 0 0 1 0 0 0 1 53.884701071199686 32.96295904696094 11.471395446769769 1 rotate no_reflect no_shear #
shell $-1 $-1 $-1 $24 $-1 $6 #
shell $-1 $-1 $-1 $25 $-1 $8 #
shell $-1 $-1 $-1 $26 $-1 $10 #
shell $-1 $-1 $-1 $27 $-1 $12 #
shell $-1 $-1 $-1 $28 $-1 $14 #
shell $-1 $-1 $-1 $29 $-1 $16 #
face $-1 $30 $31 $18 $-1 $32 forward single #
face $-1 $33 $34 $19 $-1 $35 reversed single #
face $-1 $36 $37 $20 $-1 $38 forward single #
face $-1 $39 $40 $21 $-1 $41 reversed single #
face $-1 $42 $43 $22 $-1 $44 forward single #
face $-1 $45 $46 $23 $-1 $47 forward single #
face $-1 $48 $49 $18 $-1 $50 reversed single #
loop $-1 $-1 $51 $24 #
plane-surface $-1 0 0 11.471395446769769 0 0 1 1 0 0 forward_v I I I I #
face $-1 $52 $53 $19 $-1 $54 reversed single #
loop $-1 $-1 $55 $25 #
plane-surface $-1 6.0098459383046752 -90.072042091175391 93.130986753687267 -1 0 0 0 -0.52991927123019833 0.84804809178421925 forward_v I I I I #
face $-1 $56 $57 $20 $-1 $58 forward single #
loop $-1 $59 $60 $26 #
cone-surface $-1 -7.5674805625695569 -23.188681137599076 3.4270462345444344 0 0.52991927123019833 -0.84804809178421925 3 0 0 1 I I 0 1 3 forward I I I I #
face $-1 $61 $62 $21 $-1 $63 reversed single #
loop $-1 $-1 $64 $27 #
plane-surface $-1 33.223115903232923 56.082260898073805 126.95936742163951 1 0 0 0 -0.66913061440640931 -0.74314481823134659 forward_v I I I I #
face $-1 $65 $66 $22 $-1 $67 forward single #
loop $-1 $68 $69 $28 #
cone-surface $-1 39.126425951223425 27.536566176756295 6.4618856478296198 0 -0.66913061440640931 -0.74314481823134659 1.5 0 0 1 I I 0 1 1.5 forward I I I I #
face $-1 $70 $71 $23 $-1 $72 forward single #
loop $-1 $73 $74 $29 #
cone-surface $-1 47.981391023209184 27.536566176756295 6.4618856478296198 0 -0.66913061440640931 -0.74314481823134659 1.5 0 0 1 I I 0 1 1.5 forward I I I I #
face $-1 $75 $76 $18 $-1 $77 reversed single #
loop $-1 $-1 $78 $30 #
plane-surface $-1 0 0 -11.471395446769769 0 0 1 1 0 0 forward_v I I I I #
coedge $-1 $79 $80 $81 $82 forward $31 $-1 #
face $-1 $83 $84 $19 $-1 $85 reversed single #
loop $-1 $-1 $86 $33 #
plane-surface $-1 -7.5674805625695569 -32.96295904696094 1.7373509140993235 0 -0.52991927123019833 0.84804809178421925 1 0 0 forward_v I I I I #
coedge $-1 $87 $88 $89 $90 reversed $34 $-1 #
face $-1 $-1 $91 $20 $-1 $92 forward single #
loop $-1 $93 $94 $36 #
cone-surface $-1 -7.5674805625695569 -20.408387964820172 -1.0223528490220115 0 0.52991927123019833 -0.84804809178421925 1.5 0 0 1 I I -0.70710678118654757 0.70710678118654757 1.5 forward I I I I #
loop $-1 $-1 $95 $26 #
coedge $-1 $60 $60 $96 $97 reversed $37 $-1 #
face $-1 $98 $99 $21 $-1 $100 forward single #
loop $-1 $-1 $101 $39 #
plane-surface $-1 43.553908487216304 -16.029545371681287 46.871094655625242 0 0.66913061440640931 0.74314481823134659 1 0 0 forward_v I I I I #
coedge $-1 $102 $103 $104 $105 reversed $40 $-1 #
face $-1 $-1 $106 $22 $-1 $107 forward single #
loop $-1 $108 $109 $42 #
cone-surface $-1 39.126425951223425 26.446903501888912 5.2516926705344993 0 -0.66913061440640931 -0.74314481823134659 0.75 0 0 1 I I -0.70710678118654757 0.70710678118654757 0.75 forward I I I I #
loop $-1 $-1 $110 $28 #
coedge $-1 $69 $69 $111 $112 reversed $43 $-1 #
face $-1 $-1 $113 $23 $-1 $114 forward single #
loop $-1 $115 $116 $45 #
cone-surface $-1 47.981391023209184 26.446903501888912 5.2516926705344993 0 -0.66913061440640931 -0.74314481823134659 0.75 0 0 1 I I -0.70710678118654757 0.70710678118654757 0.75 forward I I I I #
loop $-1 $-1 $117 $29 #
coedge $-1 $74 $74 $118 $119 reversed $46 $-1 #
face $-1 $120 $121 $18 $-1 $122 reversed single #
loop $-1 $-1 $123 $48 #
plane-surface $-1 0 -32.96295904696094 0 0 1 0 0 0 1 forward_v I I I I #
coedge $-1 $124 $125 $126 $127 forward $49 $-1 #
coedge $-1 $128 $51 $129 $130 forward $31 $-1 #
coedge $-1 $51 $128 $131 $132 forward $31 $-1 #
coedge $-1 $133 $134 $51 $82 reversed $135 $-1 #
edge $-1 $136 -32.96295904696094 $137 32.96295904696094 $81 $138 forward 7 unknown #
face $-1 $139 $140 $19 $-1 $141 reversed single #
loop $-1 $-1 $142 $52 #
plane-surface $-1 -21.144807063443789 -90.072042091175391 93.130986753687267 1 0 0 0 0.52991927123019833 -0.84804809178421925 forward_v I I I I #
coedge $-1 $143 $144 $145 $146 reversed $53 $-1 #
coedge $-1 $88 $55 $147 $148 reversed $34 $-1 #
coedge $-1 $55 $87 $143 $149 reversed $34 $-1 #
coedge $-1 $145 $150 $55 $90 forward $151 $-1 #
edge $-1 $152 12.073061998626756 $153 27.650789285483278 $89 $154 forward 7 unknown #
loop $-1 $-1 $96 $56 #
plane-surface $-1 -7.5674805625695569 -32.96295904696094 1.7373509140993235 0 -0.52991927123019833 0.84804809178421925 1 0 0 forward_v I I I I #
loop $-1 $-1 $155 $36 #
coedge $-1 $94 $94 $95 $156 reversed $57 $-1 #
coedge $-1 $95 $95 $94 $156 forward $59 $-1 #
coedge $-1 $96 $96 $60 $97 forward $91 $-1 #
edge $-1 $157 -9.1036802856525311e-016 $157 6.2831853071795996 $96 $158 forward 7 unknown #
face $-1 $159 $160 $21 $-1 $161 reversed single #
loop $-1 $-1 $104 $61 #
plane-surface $-1 0 0 11.471395446769769 0 0 1 1 0 0 forward_v I I I I #
coedge $-1 $162 $163 $164 $165 reversed $62 $-1 #
coedge $-1 $103 $64 $166 $167 reversed $40 $-1 #
coedge $-1 $64 $102 $162 $168 reversed $40 $-1 #
coedge $-1 $164 $169 $64 $105 forward $99 $-1 #
edge $-1 $170 -4.921828597924037 $171 4.75532771436011 $104 $172 forward 7 unknown #
loop $-1 $-1 $111 $65 #
plane-surface $-1 43.553908487216304 -16.029545371681287 46.871094655625242 0 0.66913061440640931 0.74314481823134659 1 0 0 forward_v I I I I #
loop $-1 $-1 $173 $42 #
coedge $-1 $109 $109 $110 $174 reversed $66 $-1 #
coedge $-1 $110 $110 $109 $174 forward $68 $-1 #
coedge $-1 $111 $111 $69 $112 forward $106 $-1 #
edge $-1 $175 -4.5603215311794781e-017 $175 6.2831853071796004 $111 $176 forward 7 unknown #
loop $-1 $-1 $118 $70 #
plane-surface $-1 43.553908487216304 -16.029545371681287 46.871094655625242 0 0.66913061440640931 0.74314481823134659 1 0 0 forward_v I I I I #
loop $-1 $-1 $177 $45 #
coedge $-1 $116 $116 $117 $178 reversed $71 $-1 #
coedge $-1 $117 $117 $116 $178 forward $73 $-1 #
coedge $-1 $118 $118 $74 $119 forward $113 $-1 #
edge $-1 $179 -4.5603215311794781e-017 $179 6.2831853071796004 $118 $180 forward 7 unknown #
face $-1 $181 $182 $18 $-1 $183 reversed single #
loop $-1 $-1 $184 $75 #
plane-surface $-1 -53.884701071199686 0 0 1 0 0 0 0 -1 forward_v I I I I #
coedge $-1 $185 $131 $186 $187 forward $76 $-1 #
coedge $-1 $188 $78 $185 $189 forward $49 $-1 #
coedge $-1 $78 $188 $190 $191 forward $49 $-1 #
coedge $-1 $134 $133 $78 $127 reversed $135 $-1 #
edge $-1 $192 -32.96295904696094 $193 32.96295904696094 $126 $194 forward 7 unknown #
coedge $-1 $80 $79 $195 $196 forward $31 $-1 #
coedge $-1 $197 $198 $79 $130 reversed $182 $-1 #
edge $-1 $137 -53.884701071199686 $199 53.884701071199686 $129 $200 forward 7 unknown #
coedge $-1 $123 $201 $80 $132 reversed $76 $-1 #
edge $-1 $202 -53.884701071199686 $136 53.884701071199686 $131 $203 forward 7 unknown #
coedge $-1 $126 $81 $201 $204 forward $135 $-1 #
coedge $-1 $81 $126 $197 $205 reversed $135 $-1 #
loop $-1 $-1 $133 $181 #
vertex $-1 $82 $206 #
vertex $-1 $82 $207 #
straight-curve $-1 53.884701071199686 0 11.471395446769769 0 1 0 I I #
face $-1 $-1 $151 $19 $-1 $208 forward single #
loop $-1 $-1 $209 $83 #
plane-surface $-1 0 -32.96295904696094 0 0 1 0 0 0 1 forward_v I I I I #
coedge $-1 $210 $211 $212 $213 reversed $84 $-1 #
coedge $-1 $214 $86 $88 $149 forward $53 $-1 #
coedge $-1 $86 $214 $210 $215 forward $53 $-1 #
coedge $-1 $212 $89 $86 $146 forward $151 $-1 #
edge $-1 $153 -9.7935862195894536 $216 17.361066782159011 $145 $217 forward 7 unknown #
coedge $-1 $218 $219 $87 $148 forward $140 $-1 #
edge $-1 $220 -44.82814246274431 $152 -35.094097930073865 $147 $221 forward 7 unknown #
edge $-1 $153 -18.368919684828654 $220 0 $88 $222 forward 7 unknown #
coedge $-1 $89 $212 $218 $223 forward $151 $-1 #
loop $-1 $-1 $212 $139 #
vertex $-1 $148 $224 #
vertex $-1 $90 $225 #
straight-curve $-1 6.0098459383046752 -45.036021045587695 11.471395446769769 0 1 0 I I #
coedge $-1 $155 $155 $-1 $226 reversed $93 $-1 #
edge $-1 $227 0 $227 6.2831853071796004 $94 $228 forward 7 unknown #
vertex $-1 $97 $229 #
ellipse-curve $-1 -7.5674805625695569 -25.174095403532679 6.6043731804345454 0 -0.52991927123019833 0.84804809178421925 3 0 0 1 I I #
face $-1 $-1 $230 $21 $-1 $231 reversed single #
loop $-1 $-1 $166 $98 #
plane-surface $-1 0 32.96295904696094 0 0 -1 0 0 0 -1 forward_v I I I I #
coedge $-1 $232 $101 $103 $168 forward $62 $-1 #
coedge $-1 $101 $232 $233 $234 reversed $62 $-1 #
coedge $-1 $235 $104 $101 $165 forward $99 $-1 #
edge $-1 $171 11.446161659624771 $236 32.107746827591534 $164 $237 forward 7 unknown #
coedge $-1 $238 $239 $102 $167 forward $160 $-1 #
edge $-1 $240 -60.721639134687088 $170 -52.008288264049988 $166 $241 forward 7 unknown #
edge $-1 $171 52.904019703625139 $240 65.925918093921894 $103 $242 forward 7 unknown #
coedge $-1 $104 $235 $238 $243 forward $99 $-1 #
vertex $-1 $167 $244 #
vertex $-1 $105 $245 #
straight-curve $-1 33.223115903232923 28.041130449036903 11.471395446769769 0 -1 0 I I #
coedge $-1 $173 $173 $-1 $246 reversed $108 $-1 #
edge $-1 $247 0 $247 6.2831853071796004 $109 $248 forward 7 unknown #
vertex $-1 $112 $249 #
ellipse-curve $-1 39.126425951223425 28.124380890818866 7.1147200114512223 0 0.66913061440640931 0.74314481823134659 1.5 0 0 1 I I #
coedge $-1 $177 $177 $-1 $250 reversed $115 $-1 #
edge $-1 $251 0 $251 6.2831853071796004 $116 $252 forward 7 unknown #
vertex $-1 $119 $253 #
ellipse-curve $-1 47.981391023209184 28.124380890818866 7.1147200114512223 0 0.66913061440640931 0.74314481823134659 1.5 0 0 1 I I #
face $-1 $-1 $135 $18 $-1 $254 reversed single #
loop $-1 $-1 $197 $120 #
plane-surface $-1 0 32.96295904696094 0 0 -1 0 0 0 -1 forward_v I I I I #
coedge $-1 $255 $195 $198 $256 forward $121 $-1 #
coedge $-1 $201 $123 $124 $189 reversed $76 $-1 #
coedge $-1 $195 $255 $123 $187 reversed $121 $-1 #
edge $-1 $202 -11.471395446769769 $257 11.471395446769769 $186 $258 forward 7 unknown #
coedge $-1 $125 $124 $255 $259 forward $49 $-1 #
edge $-1 $193 -53.884701071199686 $257 53.884701071199686 $185 $260 forward 7 unknown #
coedge $-1 $198 $197 $125 $191 reversed $182 $-1 #
edge $-1 $261 -53.884701071199686 $192 53.884701071199686 $190 $262 forward 7 unknown #
vertex $-1 $127 $263 #
vertex $-1 $204 $264 #
straight-curve $-1 53.884701071199686 0 -11.471395446769769 0 -1 0 I I #
coedge $-1 $184 $186 $128 $196 reversed $121 $-1 #
edge $-1 $199 -32.96295904696094 $202 32.96295904696094 $195 $265 forward 7 unknown #
coedge $-1 $190 $129 $134 $205 forward $182 $-1 #
coedge $-1 $129 $190 $184 $256 reversed $182 $-1 #
vertex $-1 $130 $266 #
straight-curve $-1 0 32.96295904696094 11.471395446769769 -1 0 0 I I #
coedge $-1 $131 $185 $133 $204 reversed $76 $-1 #
vertex $-1 $196 $267 #
straight-curve $-1 0 -32.96295904696094 11.471395446769769 1 0 0 I I #
edge $-1 $136 -11.471395446769769 $193 11.471395446769769 $133 $268 forward 7 unknown #
edge $-1 $137 -11.471395446769769 $192 11.471395446769769 $134 $269 forward 7 unknown #
point $-1 53.884701071199686 -32.96295904696094 11.471395446769769 #
point $-1 53.884701071199686 32.96295904696094 11.471395446769769 #
plane-surface $-1 0 0 11.471395446769769 0 0 1 1 0 0 forward_v I I I I #
coedge $-1 $219 $218 $211 $270 forward $140 $-1 #
coedge $-1 $211 $142 $144 $215 reversed $84 $-1 #
coedge $-1 $142 $210 $209 $270 reversed $84 $-1 #
coedge $-1 $150 $145 $142 $213 forward $151 $-1 #
edge $-1 $216 -27.650789285483278 $271 -12.073061998626756 $212 $272 forward 7 unknown #
coedge $-1 $144 $143 $219 $273 reversed $53 $-1 #
edge $-1 $274 0 $216 18.368919684828654 $210 $275 forward 7 unknown #
vertex $-1 $146 $276 #
straight-curve $-1 -3.7837402812847785 -17.385231760104414 11.471395446769769 -1 0 0 I I #
coedge $-1 $209 $147 $150 $223 reversed $140 $-1 #
coedge $-1 $147 $209 $214 $273 forward $140 $-1 #
vertex $-1 $148 $277 #
straight-curve $-1 6.0098459383046752 -32.96295904696094 46.565493376843634 0 0 1 I I #
straight-curve $-1 6.0098459383046752 -32.96295904696094 1.7373509140993235 0 -0.84804809178421925 -0.52991927123019833 I I #
edge $-1 $271 -21.144807063443789 $152 6.0098459383046752 $218 $278 forward 7 unknown #
point $-1 6.0098459383046752 -32.96295904696094 11.471395446769769 #
point $-1 6.0098459383046752 -17.385231760104418 11.471395446769769 #
edge $-1 $279 1 $279 0 $155 $-1 forward 7 unknown #
vertex $-1 $156 $280 #
ellipse-curve $-1 -7.5674805625695569 -21.20326687166547 0.24971928865431736 0 -0.52991927123019833 0.84804809178421925 3 0 0 1 I I #
point $-1 -4.5674805625695569 -25.174095403532686 6.6043731804345516 #
loop $-1 $-1 $233 $159 #
plane-surface $-1 53.884701071199686 0 0 -1 0 0 0 0 1 forward_v I I I I #
coedge $-1 $163 $162 $239 $281 reversed $62 $-1 #
coedge $-1 $282 $283 $163 $234 forward $230 $-1 #
edge $-1 $236 31.266440730430784 $284 44.288339120727535 $233 $285 forward 7 unknown #
coedge $-1 $169 $164 $283 $286 forward $99 $-1 #
vertex $-1 $286 $287 #
straight-curve $-1 21.776954243608152 23.285802734676796 11.471395446769765 1 0 0 I I #
coedge $-1 $288 $166 $169 $243 reversed $160 $-1 #
coedge $-1 $166 $288 $232 $281 forward $160 $-1 #
vertex $-1 $167 $289 #
straight-curve $-1 33.223115903232923 32.96295904696094 63.479683710819756 0 0 1 I I #
straight-curve $-1 33.223115903232923 -16.029545371681287 46.871094655625242 0 0.74314481823134659 -0.66913061440640931 I I #
edge $-1 $290 -53.884701071199686 $170 -33.223115903232923 $238 $291 forward 7 unknown #
point $-1 33.223115903232923 32.96295904696094 11.471395446769769 #
point $-1 33.223115903232923 23.285802734676793 11.471395446769769 #
edge $-1 $292 1 $292 0 $173 $-1 forward 7 unknown #
vertex $-1 $174 $293 #
ellipse-curve $-1 39.126425951223425 26.948751462693718 5.8090512842080093 0 0.66913061440640931 0.74314481823134659 1.5 0 0 1 I I #
point $-1 40.626425951223425 28.124380890818873 7.1147200114512303 #
edge $-1 $294 1 $294 0 $177 $-1 forward 7 unknown #
vertex $-1 $178 $295 #
ellipse-curve $-1 47.981391023209184 26.948751462693718 5.8090512842080093 0 0.66913061440640931 0.74314481823134659 1.5 0 0 1 I I #
point $-1 49.481391023209184 28.124380890818873 7.1147200114512303 #
plane-surface $-1 53.884701071199686 0 0 -1 0 0 0 0 1 forward_v I I I I #
coedge $-1 $186 $184 $188 $259 reversed $121 $-1 #
edge $-1 $199 -11.471395446769769 $261 11.471395446769769 $198 $296 forward 7 unknown #
vertex $-1 $259 $297 #
straight-curve $-1 -53.884701071199686 -32.96295904696094 0 0 0 -1 I I #
edge $-1 $257 -32.96295904696094 $261 32.96295904696094 $255 $298 forward 7 unknown #
straight-curve $-1 0 -32.96295904696094 -11.471395446769769 -1 0 0 I I #
vertex $-1 $191 $299 #
straight-curve $-1 0 32.96295904696094 -11.471395446769769 1 0 0 I I #
point $-1 53.884701071199686 32.96295904696094 -11.471395446769769 #
point $-1 53.884701071199686 -32.96295904696094 -11.471395446769769 #
straight-curve $-1 -53.884701071199686 0 11.471395446769769 0 -1 0 I I #
point $-1 -53.884701071199686 32.96295904696094 11.471395446769769 #
point $-1 -53.884701071199686 -32.96295904696094 11.471395446769769 #
straight-curve $-1 53.884701071199686 -32.96295904696094 0 0 0 -1 I I #
straight-curve $-1 53.884701071199686 32.96295904696094 0 0 0 -1 I I #
edge $-1 $271 35.094097930073865 $274 44.82814246274431 $209 $300 forward 7 unknown #
vertex $-1 $223 $301 #
straight-curve $-1 -21.144807063443789 -45.036021045587695 11.471395446769769 0 -1 0 I I #
edge $-1 $274 -17.361066782159011 $220 9.7935862195894536 $219 $302 forward 7 unknown #
vertex $-1 $273 $303 #
straight-curve $-1 -21.144807063443789 -32.96295904696094 1.7373509140993235 0 0.84804809178421925 0.52991927123019833 I I #
point $-1 -21.144807063443789 -17.385231760104418 11.471395446769769 #
point $-1 6.0098459383046752 -32.96295904696094 1.7373509140993235 #
straight-curve $-1 0 -32.96295904696094 11.471395446769769 1 0 0 I I #
vertex $-1 $226 $304 #
point $-1 -4.5674805625695569 -21.20326687166547 0.24971928865431736 #
edge $-1 $284 -32.107746827591534 $240 -11.446161659624771 $239 $305 forward 7 unknown #
coedge $-1 $283 $233 $288 $306 reversed $230 $-1 #
coedge $-1 $233 $282 $235 $286 reversed $230 $-1 #
vertex $-1 $234 $307 #
straight-curve $-1 53.884701071199686 0.050309321319634392 32.392728143024499 0 0.74314481823134659 -0.66913061440640931 I I #
edge $-1 $236 23.285802734676793 $290 32.96295904696094 $283 $308 forward 7 unknown #
point $-1 53.884701071199686 23.285802734676793 11.471395446769769 #
coedge $-1 $239 $238 $282 $306 forward $160 $-1 #
point $-1 33.223115903232923 32.96295904696094 2.7580445761326686 #
vertex $-1 $286 $309 #
straight-curve $-1 0 32.96295904696094 11.471395446769769 -1 0 0 I I #
vertex $-1 $246 $310 #
point $-1 40.626425951223425 26.948751462693718 5.8090512842080093 #
vertex $-1 $250 $311 #
point $-1 49.481391023209184 26.948751462693718 5.8090512842080093 #
straight-curve $-1 -53.884701071199686 32.96295904696094 0 0 0 -1 I I #
point $-1 -53.884701071199686 -32.96295904696094 -11.471395446769769 #
straight-curve $-1 -53.884701071199686 0 -11.471395446769769 0 1 0 I I #
point $-1 -53.884701071199686 32.96295904696094 -11.471395446769769 #
straight-curve $-1 -21.144807063443789 -32.96295904696094 46.565493376843634 0 0 -1 I I #
point $-1 -21.144807063443789 -32.96295904696094 11.471395446769769 #
straight-curve $-1 -3.7837402812847785 -32.96295904696094 1.7373509140993226 1 0 0 I I #
point $-1 -21.144807063443789 -32.96295904696094 1.7373509140993235 #
point $-1 -7.5674805625695569 -19.613509057974873 -2.2944249866983402 #
straight-curve $-1 21.776954243608152 32.96295904696094 2.7580445761326722 -1 0 0 I I #
edge $-1 $290 -11.471395446769769 $284 -2.7580445761326686 $282 $312 forward 7 unknown #
point $-1 53.884701071199686 32.96295904696094 2.7580445761326686 #
straight-curve $-1 53.884701071199686 0 11.471395446769769 0 1 0 I I #
point $-1 53.884701071199686 32.96295904696094 11.471395446769769 #
point $-1 39.126425951223425 25.945055541084105 4.6943340568609893 #
point $-1 47.981391023209184 25.945055541084105 4.6943340568609893 #
straight-curve $-1 53.884701071199686 32.96295904696094 0 0 0 -1 I I #
End-of-ACIS-data 