500 0 6 0           
7 Unknown 11 ACIS 5.0 NT 24 Thu Mar 25 18:50:47 1999 
-1 9.9999999999999995e-007 1e-010 
body $-1 $6 $-1 $7 #
body $-1 $8 $-1 $9 #
body $-1 $10 $-1 $11 #
body $-1 $12 $-1 $13 #
body $-1 $14 $-1 $15 #
body $-1 $16 $-1 $17 #
lump $-1 $-1 $18 $0 #
transform $-1 1 0 0 0 1 0 0 0 1 79.989013336588641 45.339638770769206 15.963726081068279 1 rotate no_reflect no_shear #
lump $-1 $-1 $19 $1 #
transform $-1 1 0 0 0 1 0 0 0 1 79.989013336588641 45.339638770769206 15.963726081068279 1 rotate no_reflect no_shear #
lump $-1 $-1 $20 $2 #
transform $-1 1 0 0 0 1 0 0 0 1 79.989013336588641 45.339638770769206 15.963726081068279 1 rotate no_reflect no_shear #
lump $-1 $-1 $21 $3 #
transform $-1 1 0 0 0 1 0 0 0 1 79.989013336588641 45.339638770769206 15.963726081068279 1 rotate no_reflect no_shear #
lump $-1 $-1 $22 $4 #
transform $-1 1 0 0 0 1 0 0 0 1 79.989013336588641 45.339638770769206 15.963726081068279 1 rotate no_reflect no_shear #
lump $-1 $-1 $23 $5 #
transform $-1 1 0 0 0 1 0 0 0 1 79.989013336588641 45.339638770769206 15.963726081068279 1 rotate no_reflect no_shear #
shell $-1 $-1 $-1 $24 $-1 $6 #
shell $-1 $-1 $-1 $25 $-1 $8 #
shell $-1 $-1 $-1 $26 $-1 $10 #
shell $-1 $-1 $-1 $27 $-1 $12 #
shell $-1 $-1 $-1 $28 $-1 $14 #
shell $-1 $-1 $-1 $29 $-1 $16 #
face $-1 $30 $31 $18 $-1 $32 forward single #
face $-1 $33 $34 $19 $-1 $35 forward single #
face $-1 $36 $37 $20 $-1 $38 reversed single #
face $-1 $39 $40 $21 $-1 $41 forward single #
face $-1 $42 $43 $22 $-1 $44 reversed single #
face $-1 $45 $46 $23 $-1 $47 forward single #
face $-1 $48 $49 $18 $-1 $50 reversed single #
loop $-1 $-1 $51 $24 #
plane-surface $-1 0 0 15.963726081068279 0 0 1 1 0 0 forward_v I I I I #
face $-1 $52 $53 $19 $-1 $54 reversed single #
loop $-1 $-1 $55 $25 #
plane-surface $-1 0 -45.339638770769206 0 0 1 0 0 0 1 forward_v I I I I #
face $-1 $56 $57 $20 $-1 $58 reversed single #
loop $-1 $-1 $59 $26 #
plane-surface $-1 115.38123398362711 15.844502535054353 228.4735093276733 0 -1 0 -0.80901700255871778 0 -0.5877852410284794 forward_v I I I I #
face $-1 $60 $61 $21 $-1 $62 forward single #
loop $-1 $63 $64 $27 #
cone-surface $-1 73.971704459306039 7.2397549140128348 9.0074505595472552 -0.80901700255871778 0 -0.5877852410284794 1.7633557230854382 0 -2.4270510076761536 1 I I 0 1 3 forward I I I I #
face $-1 $65 $66 $22 $-1 $67 reversed single #
loop $-1 $-1 $68 $28 #
plane-surface $-1 -209.41395695098112 -1.3649927070286836 99.048565713280837 0 1 0 -0.80901700255871778 0 0.5877852410284794 forward_v I I I I #
face $-1 $69 $70 $23 $-1 $71 forward single #
loop $-1 $72 $73 $29 #
cone-surface $-1 -73.971704459306082 7.2397549140128348 9.0074505595472765 0.80901700255871778 0 -0.5877852410284794 1.7633557230854382 0 2.4270510076761536 1 I I 0 1 3 forward I I I I #
face $-1 $74 $75 $18 $-1 $76 reversed single #
loop $-1 $-1 $77 $30 #
plane-surface $-1 0 0 -15.963726081068279 0 0 1 1 0 0 forward_v I I I I #
coedge $-1 $78 $79 $80 $81 forward $31 $-1 #
face $-1 $82 $83 $19 $-1 $84 forward single #
loop $-1 $-1 $85 $33 #
plane-surface $-1 -79.989013336588641 0 0 1 0 0 0 0 -1 forward_v I I I I #
coedge $-1 $86 $87 $88 $89 forward $34 $-1 #
face $-1 $90 $91 $20 $-1 $92 reversed single #
loop $-1 $-1 $93 $36 #
plane-surface $-1 -14.043709630765363 7.2397549140128348 134.44078636031929 0.80901700255871778 0 0.5877852410284794 0.5877852410284794 0 -0.80901700255871778 forward_v I I I I #
coedge $-1 $94 $95 $96 $97 reversed $37 $-1 #
face $-1 $-1 $98 $21 $-1 $99 forward single #
loop $-1 $100 $101 $39 #
cone-surface $-1 70.717921379051461 7.2397549140128348 6.643438844054268 -0.80901700255871778 0 -0.5877852410284794 0.8816778615427191 0 -1.2135255038380768 1 I I -0.70710678118654757 0.70710678118654757 1.5 forward I I I I #
loop $-1 $-1 $102 $27 #
coedge $-1 $64 $64 $103 $104 reversed $40 $-1 #
face $-1 $105 $106 $22 $-1 $107 reversed single #
loop $-1 $-1 $108 $42 #
plane-surface $-1 -79.989013336588641 7.2397549140128348 5.0158427459268182 -0.80901700255871778 0 0.5877852410284794 0.5877852410284794 0 0.80901700255871778 forward_v I I I I #
coedge $-1 $109 $110 $111 $112 reversed $43 $-1 #
face $-1 $-1 $113 $23 $-1 $114 forward single #
loop $-1 $115 $116 $45 #
cone-surface $-1 -70.717921379051504 7.2397549140128348 6.6434388440542893 0.80901700255871778 0 -0.5877852410284794 0.8816778615427191 0 1.2135255038380768 1 I I -0.70710678118654757 0.70710678118654757 1.5 forward I I I I #
loop $-1 $-1 $117 $29 #
coedge $-1 $73 $73 $118 $119 reversed $46 $-1 #
face $-1 $120 $121 $18 $-1 $122 reversed single #
loop $-1 $-1 $123 $48 #
plane-surface $-1 0 -45.339638770769206 0 0 1 0 0 0 1 forward_v I I I I #
coedge $-1 $124 $125 $126 $127 forward $49 $-1 #
coedge $-1 $128 $51 $129 $130 forward $31 $-1 #
coedge $-1 $51 $128 $131 $132 forward $31 $-1 #
coedge $-1 $133 $134 $51 $81 reversed $135 $-1 #
edge $-1 $136 -45.339638770769206 $137 45.339638770769206 $80 $138 forward 7 unknown #
face $-1 $139 $140 $19 $-1 $141 reversed single #
loop $-1 $-1 $142 $52 #
plane-surface $-1 0 -51.657512224443764 -3.1702441350958765 0 0 1 1 0 0 forward_v I I I I #
coedge $-1 $143 $144 $87 $145 forward $53 $-1 #
coedge $-1 $146 $55 $147 $148 reversed $34 $-1 #
coedge $-1 $55 $146 $85 $145 reversed $34 $-1 #
coedge $-1 $149 $142 $55 $89 reversed $83 $-1 #
edge $-1 $150 -79.989013336588641 $151 79.989013336588641 $88 $152 forward 7 unknown #
face $-1 $153 $154 $20 $-1 $155 reversed single #
loop $-1 $-1 $156 $56 #
plane-surface $-1 115.38123398362711 -1.3649927070286836 228.4735093276733 0 1 0 0.80901700255871778 0 0.5877852410284794 forward_v I I I I #
coedge $-1 $157 $158 $159 $160 reversed $57 $-1 #
coedge $-1 $95 $59 $161 $162 reversed $37 $-1 #
coedge $-1 $59 $94 $157 $163 reversed $37 $-1 #
coedge $-1 $159 $164 $59 $97 forward $165 $-1 #
edge $-1 $166 -22.298396344775085 $167 -14.344293743042996 $96 $168 forward 7 unknown #
loop $-1 $-1 $103 $60 #
plane-surface $-1 -14.043709630765363 7.2397549140128348 134.44078636031929 0.80901700255871778 0 0.5877852410284794 0.5877852410284794 0 -0.80901700255871778 forward_v I I I I #
loop $-1 $-1 $169 $39 #
coedge $-1 $101 $101 $102 $170 reversed $61 $-1 #
coedge $-1 $102 $102 $101 $170 forward $63 $-1 #
coedge $-1 $103 $103 $64 $104 forward $98 $-1 #
edge $-1 $171 0 $171 6.2831853071796004 $103 $172 forward 7 unknown #
face $-1 $173 $174 $22 $-1 $175 forward single #
loop $-1 $-1 $176 $65 #
plane-surface $-1 -209.41395695098112 15.844502535054353 99.048565713280837 0 -1 0 0.80901700255871778 0 -0.5877852410284794 forward_v I I I I #
coedge $-1 $177 $178 $179 $180 reversed $66 $-1 #
coedge $-1 $110 $68 $181 $182 reversed $43 $-1 #
coedge $-1 $68 $109 $177 $183 reversed $43 $-1 #
coedge $-1 $179 $184 $68 $112 forward $174 $-1 #
edge $-1 $185 24.717965138901917 $186 32.672067740634006 $111 $187 forward 7 unknown #
loop $-1 $-1 $118 $69 #
plane-surface $-1 -79.989013336588641 7.2397549140128348 5.0158427459268182 -0.80901700255871778 0 0.5877852410284794 0.5877852410284794 0 0.80901700255871778 forward_v I I I I #
loop $-1 $-1 $188 $45 #
coedge $-1 $116 $116 $117 $189 reversed $70 $-1 #
coedge $-1 $117 $117 $116 $189 forward $72 $-1 #
coedge $-1 $118 $118 $73 $119 forward $113 $-1 #
edge $-1 $190 0 $190 6.2831853071796004 $118 $191 forward 7 unknown #
face $-1 $192 $193 $18 $-1 $194 reversed single #
loop $-1 $-1 $195 $74 #
plane-surface $-1 -79.989013336588641 0 0 1 0 0 0 0 -1 forward_v I I I I #
coedge $-1 $196 $131 $197 $198 forward $75 $-1 #
coedge $-1 $199 $77 $196 $200 forward $49 $-1 #
coedge $-1 $77 $199 $201 $202 forward $49 $-1 #
coedge $-1 $134 $133 $77 $127 reversed $135 $-1 #
edge $-1 $203 -45.339638770769206 $204 45.339638770769206 $126 $205 forward 7 unknown #
coedge $-1 $79 $78 $206 $207 forward $31 $-1 #
coedge $-1 $208 $209 $78 $130 reversed $193 $-1 #
edge $-1 $137 -79.989013336588641 $210 79.989013336588641 $129 $211 forward 7 unknown #
coedge $-1 $123 $212 $79 $132 reversed $75 $-1 #
edge $-1 $213 -79.989013336588641 $136 79.989013336588641 $131 $214 forward 7 unknown #
coedge $-1 $126 $80 $212 $215 forward $135 $-1 #
coedge $-1 $80 $126 $208 $216 reversed $135 $-1 #
loop $-1 $-1 $133 $192 #
vertex $-1 $81 $217 #
vertex $-1 $81 $218 #
straight-curve $-1 79.989013336588641 0 15.963726081068279 0 1 0 I I #
face $-1 $219 $220 $19 $-1 $221 reversed single #
loop $-1 $-1 $222 $82 #
plane-surface $-1 0 -51.657512224443764 -8.6547269984955779 0 0 1 1 0 0 forward_v I I I I #
coedge $-1 $88 $223 $224 $225 forward $83 $-1 #
coedge $-1 $226 $85 $227 $228 reversed $53 $-1 #
coedge $-1 $85 $226 $149 $229 reversed $53 $-1 #
edge $-1 $150 3.1702441350958765 $230 8.6547269984955779 $85 $231 forward 7 unknown #
coedge $-1 $87 $86 $232 $233 forward $34 $-1 #
coedge $-1 $224 $234 $86 $148 forward $235 $-1 #
edge $-1 $236 -8.6547269984955779 $151 -3.1702441350958765 $147 $237 forward 7 unknown #
coedge $-1 $223 $88 $144 $229 forward $83 $-1 #
vertex $-1 $145 $238 #
vertex $-1 $225 $239 #
straight-curve $-1 0 -45.339638770769206 -3.1702441350958765 1 0 0 I I #
face $-1 $-1 $165 $20 $-1 $240 forward single #
loop $-1 $-1 $241 $90 #
plane-surface $-1 79.989013336588641 0 0 -1 0 0 0 0 1 forward_v I I I I #
coedge $-1 $242 $243 $244 $245 reversed $91 $-1 #
coedge $-1 $246 $93 $95 $163 forward $57 $-1 #
coedge $-1 $93 $246 $242 $247 forward $57 $-1 #
coedge $-1 $244 $96 $93 $160 forward $165 $-1 #
edge $-1 $167 -12.224625078047936 $248 4.984870164035101 $159 $249 forward 7 unknown #
coedge $-1 $250 $251 $94 $162 forward $154 $-1 #
edge $-1 $252 -109.22091191790983 $166 -98.273028582768376 $161 $253 forward 7 unknown #
edge $-1 $167 146.44569879809424 $252 159.97802667317728 $95 $254 forward 7 unknown #
coedge $-1 $96 $244 $250 $255 forward $165 $-1 #
loop $-1 $-1 $244 $153 #
vertex $-1 $162 $256 #
vertex $-1 $97 $257 #
straight-curve $-1 57.690616991813556 15.844502535054353 15.963726081068273 -1 0 0 I I #
coedge $-1 $169 $169 $-1 $258 reversed $100 $-1 #
edge $-1 $259 0 $259 6.2831853071796004 $101 $260 forward 7 unknown #
vertex $-1 $104 $261 #
ellipse-curve $-1 76.011962035722604 7.2397549140128348 10.489784413497564 0.80901700255871778 0 0.5877852410284794 1.7633557230854382 0 -2.4270510076761536 1 I I #
face $-1 $-1 $262 $22 $-1 $263 reversed single #
loop $-1 $-1 $111 $105 #
plane-surface $-1 0 0 15.963726081068279 0 0 1 1 0 0 forward_v I I I I #
coedge $-1 $264 $265 $266 $267 reversed $106 $-1 #
coedge $-1 $268 $108 $110 $183 forward $66 $-1 #
coedge $-1 $108 $268 $264 $269 forward $66 $-1 #
coedge $-1 $266 $111 $108 $180 forward $174 $-1 #
edge $-1 $186 -4.984870164035101 $270 12.224625078047936 $179 $271 forward 7 unknown #
coedge $-1 $272 $273 $109 $182 forward $262 $-1 #
edge $-1 $274 -44.5084401107136 $185 -33.560556775572138 $181 $275 forward 7 unknown #
edge $-1 $186 -13.532327875083034 $274 0 $110 $276 forward 7 unknown #
coedge $-1 $111 $266 $272 $277 forward $174 $-1 #
vertex $-1 $112 $278 #
vertex $-1 $112 $279 #
straight-curve $-1 -104.70697847549056 -1.3649927070286836 15.96372608106828 1 0 0 I I #
coedge $-1 $188 $188 $-1 $280 reversed $115 $-1 #
edge $-1 $281 0 $281 6.2831853071796004 $116 $282 forward 7 unknown #
vertex $-1 $119 $283 #
ellipse-curve $-1 -76.01196203572259 7.2397549140128348 10.489784413497548 -0.80901700255871778 0 0.5877852410284794 1.7633557230854382 0 2.4270510076761536 1 I I #
face $-1 $-1 $135 $18 $-1 $284 reversed single #
loop $-1 $-1 $208 $120 #
plane-surface $-1 0 45.339638770769206 0 0 -1 0 0 0 -1 forward_v I I I I #
coedge $-1 $285 $206 $209 $286 forward $121 $-1 #
coedge $-1 $212 $123 $124 $200 reversed $75 $-1 #
coedge $-1 $206 $285 $123 $198 reversed $121 $-1 #
edge $-1 $213 -15.963726081068279 $287 15.963726081068279 $197 $288 forward 7 unknown #
coedge $-1 $125 $124 $285 $289 forward $49 $-1 #
edge $-1 $204 -79.989013336588641 $287 79.989013336588641 $196 $290 forward 7 unknown #
coedge $-1 $209 $208 $125 $202 reversed $193 $-1 #
edge $-1 $291 -79.989013336588641 $203 79.989013336588641 $201 $292 forward 7 unknown #
vertex $-1 $127 $293 #
vertex $-1 $215 $294 #
straight-curve $-1 79.989013336588641 0 -15.963726081068279 0 -1 0 I I #
coedge $-1 $195 $197 $128 $207 reversed $121 $-1 #
edge $-1 $210 -45.339638770769206 $213 45.339638770769206 $206 $295 forward 7 unknown #
coedge $-1 $201 $129 $134 $216 forward $193 $-1 #
coedge $-1 $129 $201 $195 $286 reversed $193 $-1 #
vertex $-1 $130 $296 #
straight-curve $-1 0 45.339638770769206 15.963726081068279 -1 0 0 I I #
coedge $-1 $131 $196 $133 $215 reversed $75 $-1 #
vertex $-1 $207 $297 #
straight-curve $-1 0 -45.339638770769206 15.963726081068279 1 0 0 I I #
edge $-1 $136 -15.963726081068279 $204 15.963726081068279 $133 $298 forward 7 unknown #
edge $-1 $137 -15.963726081068279 $203 15.963726081068279 $134 $299 forward 7 unknown #
point $-1 79.989013336588641 -45.339638770769206 15.963726081068279 #
point $-1 79.989013336588641 45.339638770769206 15.963726081068279 #
face $-1 $-1 $235 $19 $-1 $300 reversed single #
loop $-1 $-1 $301 $139 #
plane-surface $-1 0 -57.975385678118322 -5.912485566795727 0 1 0 0 0 1 forward_v I I I I #
coedge $-1 $302 $232 $234 $303 forward $140 $-1 #
coedge $-1 $142 $149 $304 $305 forward $83 $-1 #
coedge $-1 $306 $147 $142 $225 reversed $235 $-1 #
edge $-1 $307 -6.317873453674558 $151 6.317873453674558 $224 $308 forward 7 unknown #
coedge $-1 $144 $143 $301 $309 reversed $53 $-1 #
coedge $-1 $232 $302 $143 $228 forward $140 $-1 #
edge $-1 $310 -6.317873453674558 $230 6.317873453674558 $143 $311 forward 7 unknown #
edge $-1 $150 -6.317873453674558 $312 6.317873453674558 $144 $313 forward 7 unknown #
vertex $-1 $145 $314 #
straight-curve $-1 -79.989013336588641 -45.339638770769206 0 0 0 -1 I I #
coedge $-1 $222 $227 $146 $233 reversed $140 $-1 #
edge $-1 $236 -79.989013336588641 $230 79.989013336588641 $232 $315 forward 7 unknown #
coedge $-1 $147 $306 $222 $303 reversed $235 $-1 #
loop $-1 $-1 $147 $219 #
vertex $-1 $148 $316 #
straight-curve $-1 79.989013336588641 -45.339638770769206 0 0 0 1 I I #
point $-1 -79.989013336588641 -45.339638770769206 -3.1702441350958765 #
point $-1 79.989013336588641 -45.339638770769206 -3.1702441350958765 #
plane-surface $-1 0 0 15.963726081068279 0 0 1 1 0 0 forward_v I I I I #
coedge $-1 $251 $250 $243 $317 forward $154 $-1 #
coedge $-1 $243 $156 $158 $247 reversed $91 $-1 #
coedge $-1 $156 $242 $241 $317 reversed $91 $-1 #
coedge $-1 $164 $159 $156 $245 forward $165 $-1 #
edge $-1 $248 14.344293743042996 $318 22.298396344775085 $244 $319 forward 7 unknown #
coedge $-1 $158 $157 $251 $320 reversed $57 $-1 #
edge $-1 $321 -159.97802667317728 $248 -146.44569879809424 $242 $322 forward 7 unknown #
vertex $-1 $160 $323 #
straight-curve $-1 72.034910734856552 3.6198774570064174 15.963726081068273 0 -1 0 I I #
coedge $-1 $241 $161 $164 $255 reversed $154 $-1 #
coedge $-1 $161 $241 $246 $320 forward $154 $-1 #
vertex $-1 $162 $324 #
straight-curve $-1 79.989013336588641 15.844502535054353 114.23675466383665 0 0 1 I I #
straight-curve $-1 -14.043709630765363 15.844502535054353 134.44078636031929 0.5877852410284794 0 -0.80901700255871778 I I #
edge $-1 $318 -1.3649927070286836 $166 15.844502535054353 $250 $325 forward 7 unknown #
point $-1 79.989013336588641 15.844502535054353 15.963726081068279 #
point $-1 72.034910734856552 15.844502535054353 15.963726081068273 #
edge $-1 $326 1 $326 0 $169 $-1 forward 7 unknown #
vertex $-1 $170 $327 #
ellipse-curve $-1 71.931446882889531 7.2397549140128348 7.5251167055969868 0.80901700255871778 0 0.5877852410284794 1.7633557230854382 0 -2.4270510076761536 1 I I #
point $-1 77.775317758807986 7.2397549140128348 8.0627334058213691 #
loop $-1 $-1 $181 $173 #
plane-surface $-1 -79.989013336588641 0 0 1 0 0 0 0 -1 forward_v I I I I #
coedge $-1 $265 $176 $178 $269 reversed $106 $-1 #
coedge $-1 $176 $264 $328 $329 reversed $106 $-1 #
coedge $-1 $184 $179 $176 $267 forward $174 $-1 #
edge $-1 $270 -32.672067740634006 $330 -24.717965138901917 $266 $331 forward 7 unknown #
coedge $-1 $178 $177 $273 $332 reversed $66 $-1 #
edge $-1 $333 0 $270 13.532327875083034 $264 $334 forward 7 unknown #
vertex $-1 $180 $335 #
straight-curve $-1 -72.034910734856538 3.6198774570064174 15.963726081068279 0 1 0 I I #
coedge $-1 $328 $181 $184 $277 reversed $262 $-1 #
coedge $-1 $181 $328 $268 $332 forward $262 $-1 #
vertex $-1 $182 $336 #
straight-curve $-1 -79.989013336588641 -1.3649927070286836 49.524282856640419 0 0 1 I I #
straight-curve $-1 -79.989013336588641 -1.3649927070286836 5.0158427459268182 -0.5877852410284794 0 -0.80901700255871778 I I #
edge $-1 $330 -15.844502535054353 $185 1.3649927070286836 $272 $337 forward 7 unknown #
point $-1 -79.989013336588641 -1.3649927070286836 15.963726081068279 #
point $-1 -72.034910734856552 -1.3649927070286836 15.963726081068279 #
edge $-1 $338 1 $338 0 $188 $-1 forward 7 unknown #
vertex $-1 $189 $339 #
ellipse-curve $-1 -71.931446882889574 7.2397549140128348 7.5251167055970081 -0.80901700255871778 0 0.5877852410284794 1.7633557230854382 0 2.4270510076761536 1 I I #
point $-1 -74.24860631263715 7.2397549140128348 12.916835421173698 #
plane-surface $-1 79.989013336588641 0 0 -1 0 0 0 0 1 forward_v I I I I #
coedge $-1 $197 $195 $199 $289 reversed $121 $-1 #
edge $-1 $210 -15.963726081068279 $291 15.963726081068279 $209 $340 forward 7 unknown #
vertex $-1 $289 $341 #
straight-curve $-1 -79.989013336588641 -45.339638770769206 0 0 0 -1 I I #
edge $-1 $287 -45.339638770769206 $291 45.339638770769206 $285 $342 forward 7 unknown #
straight-curve $-1 0 -45.339638770769206 -15.963726081068279 -1 0 0 I I #
vertex $-1 $202 $343 #
straight-curve $-1 0 45.339638770769206 -15.963726081068279 1 0 0 I I #
point $-1 79.989013336588641 45.339638770769206 -15.963726081068279 #
point $-1 79.989013336588641 -45.339638770769206 -15.963726081068279 #
straight-curve $-1 -79.989013336588641 0 15.963726081068279 0 -1 0 I I #
point $-1 -79.989013336588641 45.339638770769206 15.963726081068279 #
point $-1 -79.989013336588641 -45.339638770769206 15.963726081068279 #
straight-curve $-1 79.989013336588641 -45.339638770769206 0 0 0 -1 I I #
straight-curve $-1 79.989013336588641 45.339638770769206 0 0 0 -1 I I #
plane-surface $-1 79.989013336588641 0 0 -1 0 0 0 0 1 forward_v I I I I #
coedge $-1 $344 $304 $226 $309 forward $220 $-1 #
coedge $-1 $227 $222 $344 $345 forward $140 $-1 #
edge $-1 $236 -6.317873453674558 $346 6.317873453674558 $234 $347 forward 7 unknown #
coedge $-1 $301 $348 $223 $305 reversed $220 $-1 #
edge $-1 $312 -79.989013336588641 $307 79.989013336588641 $304 $349 forward 7 unknown #
coedge $-1 $234 $224 $348 $350 forward $235 $-1 #
vertex $-1 $225 $351 #
straight-curve $-1 79.989013336588641 -51.657512224443764 -3.1702441350958765 0 1 0 I I #
edge $-1 $312 -2.7422414316998505 $310 2.7422414316998509 $226 $352 forward 7 unknown #
vertex $-1 $228 $353 #
straight-curve $-1 -79.989013336588641 -51.657512224443764 -8.6547269984955779 0 1 0 I I #
vertex $-1 $229 $354 #
straight-curve $-1 -79.989013336588641 -51.657512224443764 -3.1702441350958765 0 -1 0 I I #
point $-1 -79.989013336588641 -45.339638770769206 -8.6547269984955779 #
straight-curve $-1 0 -45.339638770769206 -8.6547269984955779 -1 0 0 I I #
point $-1 79.989013336588641 -45.339638770769206 -8.6547269984955779 #
edge $-1 $318 98.273028582768376 $321 109.22091191790983 $241 $355 forward 7 unknown #
vertex $-1 $255 $356 #
straight-curve $-1 57.690616991813556 -1.3649927070286836 15.963726081068273 1 0 0 I I #
edge $-1 $321 -4.984870164035101 $252 12.224625078047936 $251 $357 forward 7 unknown #
vertex $-1 $320 $358 #
straight-curve $-1 -14.043709630765363 -1.3649927070286836 134.44078636031929 -0.5877852410284794 0 0.80901700255871778 I I #
point $-1 72.034910734856552 -1.3649927070286836 15.963726081068273 #
point $-1 79.989013336588641 15.844502535054353 5.0158427459268182 #
straight-curve $-1 79.989013336588641 0 15.963726081068279 0 1 0 I I #
vertex $-1 $258 $359 #
point $-1 73.694802605974971 7.2397549140128348 5.0980656979208341 #
coedge $-1 $273 $272 $265 $329 forward $262 $-1 #
edge $-1 $330 33.560556775572138 $333 44.5084401107136 $328 $360 forward 7 unknown #
vertex $-1 $277 $361 #
straight-curve $-1 -104.70697847549056 15.844502535054353 15.96372608106828 -1 0 0 I I #
edge $-1 $333 -12.224625078047936 $274 4.984870164035101 $273 $362 forward 7 unknown #
vertex $-1 $332 $363 #
straight-curve $-1 -79.989013336588641 15.844502535054353 5.0158427459268182 0.5877852410284794 0 0.80901700255871778 I I #
point $-1 -72.034910734856552 15.844502535054353 15.963726081068279 #
point $-1 -79.989013336588641 -1.3649927070286836 5.0158427459268182 #
straight-curve $-1 -79.989013336588641 0 15.963726081068279 0 -1 0 I I #
vertex $-1 $280 $364 #
point $-1 -70.168091159804149 7.2397549140128348 9.9521677132731625 #
straight-curve $-1 -79.989013336588641 45.339638770769206 0 0 0 -1 I I #
point $-1 -79.989013336588641 -45.339638770769206 -15.963726081068279 #
straight-curve $-1 -79.989013336588641 0 -15.963726081068279 0 1 0 I I #
point $-1 -79.989013336588641 45.339638770769206 -15.963726081068279 #
coedge $-1 $348 $301 $302 $345 reversed $220 $-1 #
edge $-1 $346 -79.989013336588641 $310 79.989013336588641 $344 $365 forward 7 unknown #
vertex $-1 $350 $366 #
straight-curve $-1 79.989013336588641 -51.657512224443764 -8.6547269984955779 0 -1 0 I I #
coedge $-1 $304 $344 $306 $350 reversed $220 $-1 #
straight-curve $-1 0 -57.975385678118322 -3.1702441350958765 1 0 0 I I #
edge $-1 $307 -2.7422414316998505 $346 2.7422414316998509 $306 $367 forward 7 unknown #
point $-1 79.989013336588641 -57.975385678118322 -3.1702441350958765 #
straight-curve $-1 -79.989013336588641 -57.975385678118322 -5.912485566795727 0 0 -1 I I #
point $-1 -79.989013336588641 -57.975385678118322 -8.6547269984955779 #
point $-1 -79.989013336588641 -57.975385678118322 -3.1702441350958765 #
straight-curve $-1 79.989013336588641 -1.3649927070286836 114.23675466383665 0 0 -1 I I #
point $-1 79.989013336588641 -1.3649927070286836 15.963726081068279 #
straight-curve $-1 79.989013336588641 3.6198774570064174 5.0158427459268111 0 1 0 I I #
point $-1 79.989013336588641 -1.3649927070286836 5.0158427459268182 #
point $-1 69.50439587521339 7.2397549140128348 5.7617609825115492 #
straight-curve $-1 -79.989013336588641 15.844502535054353 49.524282856640419 0 0 -1 I I #
point $-1 -79.989013336588641 15.844502535054353 15.963726081068279 #
straight-curve $-1 -79.989013336588641 3.6198774570064174 5.0158427459268271 0 -1 0 I I #
point $-1 -79.989013336588641 15.844502535054353 5.0158427459268182 #
point $-1 -69.504395875213433 7.2397549140128348 5.7617609825115705 #
straight-curve $-1 0 -57.975385678118322 -8.6547269984955779 -1 0 0 I I #
point $-1 79.989013336588641 -57.975385678118322 -8.6547269984955779 #
straight-curve $-1 79.989013336588641 -57.975385678118322 -5.912485566795727 0 0 -1 I I #
End-of-ACIS-data 