500 0 8 0           
7 Unknown 11 ACIS 5.0 NT 24 Thu Mar 25 16:19:43 1999 
-1 9.9999999999999995e-007 1e-010 
body $-1 $8 $-1 $9 #
body $-1 $10 $-1 $11 #
body $-1 $12 $-1 $13 #
body $-1 $14 $-1 $15 #
body $-1 $16 $-1 $17 #
body $-1 $18 $-1 $19 #
body $-1 $20 $-1 $21 #
body $-1 $22 $-1 $23 #
lump $-1 $-1 $24 $0 #
transform $-1 1 0 0 0 1 0 0 0 1 54.535355693227942 34.98271557713425 15.212201893487741 1 rotate no_reflect no_shear #
lump $-1 $-1 $25 $1 #
transform $-1 1 0 0 0 1 0 0 0 1 54.535355693227942 34.98271557713425 15.212201893487741 1 rotate no_reflect no_shear #
lump $-1 $-1 $26 $2 #
transform $-1 1 0 0 0 1 0 0 0 1 54.535355693227942 34.98271557713425 15.212201893487741 1 rotate no_reflect no_shear #
lump $-1 $-1 $27 $3 #
transform $-1 1 0 0 0 1 0 0 0 1 54.535355693227942 34.98271557713425 15.212201893487741 1 rotate no_reflect no_shear #
lump $-1 $-1 $28 $4 #
transform $-1 1 0 0 0 1 0 0 0 1 54.535355693227942 34.98271557713425 15.212201893487741 1 rotate no_reflect no_shear #
lump $-1 $-1 $29 $5 #
transform $-1 1 0 0 0 1 0 0 0 1 54.535355693227942 34.98271557713425 15.212201893487741 1 rotate no_reflect no_shear #
lump $-1 $-1 $30 $6 #
transform $-1 1 0 0 0 1 0 0 0 1 54.535355693227942 34.98271557713425 15.212201893487741 1 rotate no_reflect no_shear #
lump $-1 $-1 $31 $7 #
transform $-1 1 0 0 0 1 0 0 0 1 54.535355693227942 34.98271557713425 15.212201893487741 1 rotate no_reflect no_shear #
shell $-1 $-1 $-1 $32 $-1 $8 #
shell $-1 $-1 $-1 $33 $-1 $10 #
shell $-1 $-1 $-1 $34 $-1 $12 #
shell $-1 $-1 $-1 $35 $-1 $14 #
shell $-1 $-1 $-1 $36 $-1 $16 #
shell $-1 $-1 $-1 $37 $-1 $18 #
shell $-1 $-1 $-1 $38 $-1 $20 #
shell $-1 $-1 $-1 $39 $-1 $22 #
face $-1 $40 $41 $24 $-1 $42 reversed single #
face $-1 $43 $44 $25 $-1 $45 forward single #
face $-1 $46 $47 $26 $-1 $48 reversed single #
face $-1 $49 $50 $27 $-1 $51 forward single #
face $-1 $52 $53 $28 $-1 $54 reversed single #
face $-1 $55 $56 $29 $-1 $57 forward single #
face $-1 $58 $59 $30 $-1 $60 forward single #
face $-1 $61 $62 $31 $-1 $63 forward single #
face $-1 $64 $65 $24 $-1 $66 forward single #
loop $-1 $-1 $67 $32 #
plane-surface $-1 0 -34.98271557713425 0 0 1 0 0 0 1 forward_v I I I I #
face $-1 $68 $69 $25 $-1 $70 reversed single #
loop $-1 $-1 $71 $33 #
plane-surface $-1 0 -34.98271557713425 0 0 1 0 0 0 1 forward_v I I I I #
face $-1 $72 $73 $26 $-1 $74 reversed single #
loop $-1 $-1 $75 $34 #
plane-surface $-1 -146.00975203095555 -18.075210524032364 59.735121654460173 0 1 0 -0.83867057594974714 0 0.54463902268945019 forward_v I I I I #
face $-1 $76 $77 $27 $-1 $78 forward single #
loop $-1 $79 $80 $35 #
cone-surface $-1 -48.706824820576422 -12.49561937734881 7.1244222288890331 0.83867057594974714 0 -0.54463902268945019 0.81695853403417529 0 1.2580058639246208 1 I I 0 1 1.5 forward I I I I #
face $-1 $81 $82 $28 $-1 $83 reversed single #
loop $-1 $-1 $84 $36 #
plane-surface $-1 94.458009174449032 -13.797923964356691 156.84350411507651 0 -1 0 -0.86602541151947299 0 -0.49999998660252726 forward_v I I I I #
face $-1 $85 $86 $29 $-1 $87 forward single #
loop $-1 $88 $89 $37 #
cone-surface $-1 51.161647501634064 -22.520065139945189 10.81037063497052 -0.86602541151947299 0 -0.49999998660252726 0.49999998660252726 0 -0.86602541151947299 1 I I 0 1 1 forward I I I I #
face $-1 $90 $91 $30 $-1 $92 forward single #
loop $-1 $93 $94 $38 #
cone-surface $-1 51.161647501634064 -19.249262199099501 10.81037063497052 -0.86602541151947299 0 -0.49999998660252726 0.49999998660252726 0 -0.86602541151947299 1 I I 0 1 1 forward I I I I #
face $-1 $95 $96 $31 $-1 $97 forward single #
loop $-1 $98 $99 $39 #
cone-surface $-1 51.161647501634064 -15.978459258253814 10.81037063497052 -0.86602541151947299 0 -0.49999998660252726 0.49999998660252726 0 -0.86602541151947299 1 I I 0 1 1 forward I I I I #
face $-1 $100 $101 $24 $-1 $102 reversed single #
loop $-1 $-1 $103 $40 #
plane-surface $-1 0 0 15.212201893487741 0 0 1 1 0 0 forward_v I I I I #
coedge $-1 $104 $105 $106 $107 reversed $41 $-1 #
face $-1 $108 $109 $25 $-1 $110 reversed single #
loop $-1 $-1 $111 $43 #
plane-surface $-1 0 0 -15.212201893487741 0 0 1 1 0 0 forward_v I I I I #
coedge $-1 $112 $113 $114 $115 forward $44 $-1 #
face $-1 $116 $117 $26 $-1 $118 reversed single #
loop $-1 $-1 $119 $46 #
plane-surface $-1 -54.535355693227956 -12.49561937734881 0.3309560008977499 -0.83867057594974714 0 0.54463902268945019 0.54463902268945019 0 0.83867057594974714 forward_v I I I I #
coedge $-1 $120 $121 $122 $123 reversed $47 $-1 #
face $-1 $-1 $124 $27 $-1 $125 forward single #
loop $-1 $126 $127 $49 #
cone-surface $-1 -47.08128789993772 -12.49561937734881 6.0687862435682227 0.83867057594974714 0 -0.54463902268945019 0.40847926701708764 0 0.62900293196231039 1 I I -0.70710678118654757 0.70710678118654757 0.75 forward I I I I #
loop $-1 $-1 $128 $35 #
coedge $-1 $80 $80 $129 $130 reversed $50 $-1 #
face $-1 $131 $132 $28 $-1 $133 reversed single #
loop $-1 $-1 $134 $52 #
plane-surface $-1 1.4612719070328239e-006 -19.249262199099501 102.30814988312045 0.86602541151947299 0 0.49999998660252726 0.49999998660252726 0 -0.86602541151947299 forward_v I I I I #
coedge $-1 $135 $136 $137 $138 reversed $53 $-1 #
face $-1 $-1 $139 $29 $-1 $140 forward single #
loop $-1 $141 $142 $55 #
cone-surface $-1 49.48017010994198 -22.520065139945189 9.8395692449242524 -0.86602541151947299 0 -0.49999998660252726 0.24999999330126363 0 -0.43301270575973649 1 I I -0.70710678118654746 0.70710678118654746 0.5 forward I I I I #
loop $-1 $-1 $143 $37 #
coedge $-1 $89 $89 $144 $145 reversed $56 $-1 #
face $-1 $-1 $146 $30 $-1 $147 forward single #
loop $-1 $148 $149 $58 #
cone-surface $-1 49.48017010994198 -19.249262199099501 9.8395692449242524 -0.86602541151947299 0 -0.49999998660252726 0.24999999330126363 0 -0.43301270575973649 1 I I -0.70710678118654746 0.70710678118654746 0.5 forward I I I I #
loop $-1 $-1 $150 $38 #
coedge $-1 $94 $94 $151 $152 reversed $59 $-1 #
face $-1 $-1 $153 $31 $-1 $154 forward single #
loop $-1 $155 $156 $61 #
cone-surface $-1 49.48017010994198 -15.978459258253814 9.8395692449242524 -0.86602541151947299 0 -0.49999998660252726 0.24999999330126363 0 -0.43301270575973649 1 I I -0.70710678118654746 0.70710678118654746 0.5 forward I I I I #
loop $-1 $-1 $157 $39 #
coedge $-1 $99 $99 $158 $159 reversed $62 $-1 #
face $-1 $160 $161 $24 $-1 $162 reversed single #
loop $-1 $-1 $163 $64 #
plane-surface $-1 0 0 -15.212201893487741 0 0 1 1 0 0 forward_v I I I I #
coedge $-1 $164 $165 $166 $167 forward $65 $-1 #
coedge $-1 $168 $67 $169 $170 reversed $41 $-1 #
coedge $-1 $67 $168 $171 $172 forward $41 $-1 #
coedge $-1 $173 $163 $67 $107 forward $101 $-1 #
edge $-1 $174 -54.535355693227942 $175 54.535355693227942 $67 $176 forward 7 unknown #
face $-1 $177 $178 $25 $-1 $179 reversed single #
loop $-1 $-1 $180 $68 #
plane-surface $-1 -39.146668008001484 -45.26483072042619 0 0 1 0 0 0 1 forward_v I I I I #
coedge $-1 $181 $182 $113 $183 forward $69 $-1 #
coedge $-1 $184 $71 $185 $186 reversed $44 $-1 #
coedge $-1 $71 $184 $111 $183 reversed $44 $-1 #
coedge $-1 $187 $188 $71 $115 reversed $178 $-1 #
edge $-1 $189 -15.212201893487741 $190 15.212201893487741 $114 $191 forward 7 unknown #
face $-1 $192 $193 $26 $-1 $194 reversed single #
loop $-1 $-1 $195 $72 #
plane-surface $-1 -146.00975203095555 -6.9160282306652547 59.735121654460173 0 -1 0 0.83867057594974714 0 -0.54463902268945019 forward_v I I I I #
coedge $-1 $196 $197 $198 $199 reversed $73 $-1 #
coedge $-1 $121 $75 $200 $201 reversed $47 $-1 #
coedge $-1 $75 $120 $196 $202 reversed $47 $-1 #
coedge $-1 $198 $203 $75 $123 forward $204 $-1 #
edge $-1 $205 18.469520322249835 $206 28.13351409020008 $122 $207 forward 7 unknown #
loop $-1 $-1 $129 $76 #
plane-surface $-1 -54.535355693227956 -12.49561937734881 0.3309560008977499 -0.83867057594974714 0 0.54463902268945019 0.54463902268945019 0 0.83867057594974714 forward_v I I I I #
loop $-1 $-1 $208 $49 #
coedge $-1 $127 $127 $128 $209 reversed $77 $-1 #
coedge $-1 $128 $128 $127 $209 forward $79 $-1 #
coedge $-1 $129 $129 $80 $130 forward $124 $-1 #
edge $-1 $210 0 $210 6.2831853071796004 $129 $211 forward 7 unknown #
face $-1 $212 $213 $28 $-1 $214 forward single #
loop $-1 $-1 $215 $81 #
plane-surface $-1 94.458009174449032 -24.700600433842311 156.84350411507651 0 1 0 0.86602541151947299 0 0.49999998660252726 forward_v I I I I #
coedge $-1 $216 $217 $218 $219 reversed $82 $-1 #
coedge $-1 $136 $84 $220 $221 reversed $53 $-1 #
coedge $-1 $84 $135 $216 $222 reversed $53 $-1 #
coedge $-1 $218 $223 $84 $138 forward $213 $-1 #
edge $-1 $224 -7.3063511060034259 $225 -3.0558640946804019 $137 $226 forward 7 unknown #
loop $-1 $-1 $144 $85 #
plane-surface $-1 1.4612719070328239e-006 -19.249262199099501 102.30814988312045 0.86602541151947299 0 0.49999998660252726 0.49999998660252726 0 -0.86602541151947299 forward_v I I I I #
loop $-1 $-1 $227 $55 #
coedge $-1 $142 $142 $143 $228 reversed $86 $-1 #
coedge $-1 $143 $143 $142 $228 forward $88 $-1 #
coedge $-1 $144 $144 $89 $145 forward $139 $-1 #
edge $-1 $229 0 $229 6.2831853071796004 $144 $230 forward 7 unknown #
loop $-1 $-1 $151 $90 #
plane-surface $-1 1.4612719070328239e-006 -19.249262199099501 102.30814988312045 0.86602541151947299 0 0.49999998660252726 0.49999998660252726 0 -0.86602541151947299 forward_v I I I I #
loop $-1 $-1 $231 $58 #
coedge $-1 $149 $149 $150 $232 reversed $91 $-1 #
coedge $-1 $150 $150 $149 $232 forward $93 $-1 #
coedge $-1 $151 $151 $94 $152 forward $146 $-1 #
edge $-1 $233 0 $233 6.2831853071796004 $151 $234 forward 7 unknown #
loop $-1 $-1 $158 $95 #
plane-surface $-1 1.4612719070328239e-006 -19.249262199099501 102.30814988312045 0.86602541151947299 0 0.49999998660252726 0.49999998660252726 0 -0.86602541151947299 forward_v I I I I #
loop $-1 $-1 $235 $61 #
coedge $-1 $156 $156 $157 $236 reversed $96 $-1 #
coedge $-1 $157 $157 $156 $236 forward $98 $-1 #
coedge $-1 $158 $158 $99 $159 forward $153 $-1 #
edge $-1 $237 0 $237 6.2831853071796004 $158 $238 forward 7 unknown #
face $-1 $239 $240 $24 $-1 $241 reversed single #
loop $-1 $-1 $242 $100 #
plane-surface $-1 -54.535355693227942 0 0 1 0 0 0 0 -1 forward_v I I I I #
coedge $-1 $106 $243 $244 $245 forward $101 $-1 #
coedge $-1 $246 $103 $247 $248 forward $65 $-1 #
coedge $-1 $103 $246 $168 $249 forward $65 $-1 #
coedge $-1 $169 $250 $103 $167 reversed $251 $-1 #
edge $-1 $252 -34.98271557713425 $253 34.98271557713425 $166 $254 forward 7 unknown #
coedge $-1 $105 $104 $165 $249 reversed $41 $-1 #
coedge $-1 $244 $166 $104 $170 forward $251 $-1 #
edge $-1 $252 -15.212201893487741 $174 15.212201893487741 $169 $255 forward 7 unknown #
coedge $-1 $256 $257 $105 $172 reversed $161 $-1 #
edge $-1 $258 -15.212201893487741 $175 15.212201893487741 $171 $259 forward 7 unknown #
coedge $-1 $243 $106 $257 $260 forward $101 $-1 #
vertex $-1 $170 $261 #
vertex $-1 $260 $262 #
straight-curve $-1 0 -34.98271557713425 -15.212201893487741 -1 0 0 I I #
face $-1 $263 $264 $25 $-1 $265 reversed single #
loop $-1 $-1 $114 $108 #
plane-surface $-1 -43.129918565755794 -40.123773148780217 0 1 0 0 0 0 -1 forward_v I I I I #
coedge $-1 $266 $267 $268 $269 forward $109 $-1 #
coedge $-1 $270 $111 $271 $272 forward $69 $-1 #
coedge $-1 $111 $270 $187 $273 forward $69 $-1 #
edge $-1 $189 -43.129918565755794 $274 -35.163417450247174 $111 $275 forward 7 unknown #
coedge $-1 $113 $112 $276 $277 forward $44 $-1 #
coedge $-1 $278 $279 $112 $186 forward $280 $-1 #
edge $-1 $281 35.163417450247174 $190 43.129918565755794 $185 $282 forward 7 unknown #
coedge $-1 $268 $114 $182 $273 reversed $178 $-1 #
coedge $-1 $114 $268 $278 $283 reversed $178 $-1 #
vertex $-1 $183 $284 #
vertex $-1 $283 $285 #
straight-curve $-1 -43.129918565755794 -34.98271557713425 0 0 0 1 I I #
face $-1 $-1 $204 $26 $-1 $286 forward single #
loop $-1 $-1 $287 $116 #
plane-surface $-1 -54.535355693227942 0 0 1 0 0 0 0 -1 forward_v I I I I #
coedge $-1 $288 $289 $290 $291 reversed $117 $-1 #
coedge $-1 $292 $119 $121 $202 forward $73 $-1 #
coedge $-1 $119 $292 $288 $293 forward $73 $-1 #
coedge $-1 $290 $122 $119 $199 forward $204 $-1 #
edge $-1 $206 -11.82740083535796 $294 -0.66821854199084996 $198 $295 forward 7 unknown #
coedge $-1 $296 $297 $120 $201 forward $193 $-1 #
edge $-1 $298 -29.536604826332315 $205 -14.655358933742345 $200 $299 forward 7 unknown #
edge $-1 $206 -17.743851184641624 $298 -2.6082680278521875e-014 $121 $300 forward 7 unknown #
coedge $-1 $122 $290 $296 $301 forward $204 $-1 #
loop $-1 $-1 $290 $192 #
vertex $-1 $201 $302 #
vertex $-1 $123 $303 #
straight-curve $-1 -73.004876015477777 -18.075210524032364 15.212201893487741 1 0 0 I I #
coedge $-1 $208 $208 $-1 $304 reversed $126 $-1 #
edge $-1 $305 0 $305 6.2831853071796004 $127 $306 forward 7 unknown #
vertex $-1 $130 $307 #
ellipse-curve $-1 -49.703358809252819 -12.49561937734881 7.7715789471927579 -0.83867057594974714 0 0.54463902268945019 0.81695853403417529 0 1.2580058639246208 1 I I #
face $-1 $-1 $308 $28 $-1 $309 reversed single #
loop $-1 $-1 $137 $131 #
plane-surface $-1 0 0 15.212201893487741 0 0 1 1 0 0 forward_v I I I I #
coedge $-1 $310 $311 $312 $313 reversed $132 $-1 #
coedge $-1 $314 $134 $136 $222 forward $82 $-1 #
coedge $-1 $134 $314 $310 $315 forward $82 $-1 #
coedge $-1 $312 $137 $134 $219 forward $213 $-1 #
edge $-1 $225 4.1732928648069407 $316 15.07596933429256 $218 $317 forward 7 unknown #
coedge $-1 $318 $319 $135 $221 forward $308 $-1 #
edge $-1 $320 -70.571609887594889 $224 -63.209550164050512 $220 $321 forward 7 unknown #
edge $-1 $225 100.56973713602665 $320 109.07071138645584 $136 $322 forward 7 unknown #
coedge $-1 $137 $312 $318 $323 forward $213 $-1 #
vertex $-1 $138 $324 #
vertex $-1 $138 $325 #
straight-curve $-1 47.229004587224516 -13.797923964356691 15.212201893487745 -1 0 0 I I #
coedge $-1 $227 $227 $-1 $326 reversed $141 $-1 #
edge $-1 $327 0 $327 6.2831853071796004 $142 $328 forward 7 unknown #
vertex $-1 $145 $329 #
ellipse-curve $-1 52.41011218756644 -22.520065139945189 11.53117203171554 0.86602541151947299 0 0.49999998660252726 0.49999998660252726 0 -0.86602541151947299 1 I I #
coedge $-1 $231 $231 $-1 $330 reversed $148 $-1 #
edge $-1 $331 0 $331 6.2831853071796004 $149 $332 forward 7 unknown #
vertex $-1 $152 $333 #
ellipse-curve $-1 52.41011218756644 -19.249262199099501 11.53117203171554 0.86602541151947299 0 0.49999998660252726 0.49999998660252726 0 -0.86602541151947299 1 I I #
coedge $-1 $235 $235 $-1 $334 reversed $155 $-1 #
edge $-1 $335 0 $335 6.2831853071796004 $156 $336 forward 7 unknown #
vertex $-1 $159 $337 #
ellipse-curve $-1 52.41011218756644 -15.978459258253814 11.53117203171554 0.86602541151947299 0 0.49999998660252726 0.49999998660252726 0 -0.86602541151947299 1 I I #
face $-1 $-1 $251 $24 $-1 $338 reversed single #
loop $-1 $-1 $339 $160 #
plane-surface $-1 0 34.98271557713425 0 0 -1 0 0 0 -1 forward_v I I I I #
coedge $-1 $257 $256 $340 $341 forward $161 $-1 #
coedge $-1 $163 $173 $342 $343 forward $101 $-1 #
coedge $-1 $250 $169 $163 $245 reversed $251 $-1 #
edge $-1 $344 -34.98271557713425 $174 34.98271557713425 $244 $345 forward 7 unknown #
coedge $-1 $165 $164 $256 $346 forward $65 $-1 #
coedge $-1 $339 $340 $164 $248 reversed $240 $-1 #
edge $-1 $253 -54.535355693227942 $347 54.535355693227942 $247 $348 forward 7 unknown #
edge $-1 $258 -54.535355693227942 $252 54.535355693227942 $168 $349 forward 7 unknown #
coedge $-1 $166 $244 $339 $350 reversed $251 $-1 #
loop $-1 $-1 $169 $239 #
vertex $-1 $167 $351 #
vertex $-1 $167 $352 #
straight-curve $-1 54.535355693227942 0 15.212201893487741 0 1 0 I I #
straight-curve $-1 54.535355693227942 -34.98271557713425 0 0 0 -1 I I #
coedge $-1 $242 $171 $246 $346 reversed $161 $-1 #
coedge $-1 $171 $242 $173 $260 reversed $161 $-1 #
vertex $-1 $346 $353 #
straight-curve $-1 -54.535355693227942 -34.98271557713425 0 0 0 -1 I I #
edge $-1 $175 -34.98271557713425 $354 34.98271557713425 $257 $355 forward 7 unknown #
point $-1 54.535355693227942 -34.98271557713425 -15.212201893487741 #
point $-1 -54.535355693227942 -34.98271557713425 -15.212201893487741 #
face $-1 $-1 $280 $25 $-1 $356 forward single #
loop $-1 $-1 $357 $177 #
plane-surface $-1 -35.163417450247174 -40.123773148780217 0 -1 0 0 0 0 1 forward_v I I I I #
coedge $-1 $358 $180 $270 $359 reversed $109 $-1 #
coedge $-1 $180 $358 $360 $361 reversed $109 $-1 #
coedge $-1 $188 $187 $180 $269 reversed $178 $-1 #
edge $-1 $362 -15.212201893487741 $363 15.212201893487741 $268 $364 forward 7 unknown #
coedge $-1 $182 $181 $266 $359 forward $69 $-1 #
coedge $-1 $276 $357 $181 $272 reversed $264 $-1 #
edge $-1 $274 -5.1410575716459732 $365 5.1410575716459732 $271 $366 forward 7 unknown #
edge $-1 $363 -5.1410575716459732 $189 5.1410575716459732 $187 $367 forward 7 unknown #
vertex $-1 $272 $368 #
straight-curve $-1 0 -34.98271557713425 -15.212201893487741 1 0 0 I I #
coedge $-1 $369 $271 $184 $277 reversed $264 $-1 #
edge $-1 $281 -15.212201893487741 $274 15.212201893487741 $276 $370 forward 7 unknown #
coedge $-1 $360 $185 $188 $283 forward $280 $-1 #
coedge $-1 $185 $360 $369 $371 forward $280 $-1 #
loop $-1 $-1 $185 $263 #
vertex $-1 $186 $372 #
straight-curve $-1 0 -34.98271557713425 15.212201893487741 -1 0 0 I I #
edge $-1 $190 -5.1410575716459732 $362 5.1410575716459732 $188 $373 forward 7 unknown #
point $-1 -43.129918565755794 -34.982715577134243 -15.212201893487741 #
point $-1 -43.129918565755794 -34.982715577134243 15.212201893487741 #
plane-surface $-1 0 0 15.212201893487741 0 0 1 1 0 0 forward_v I I I I #
coedge $-1 $297 $296 $289 $374 forward $193 $-1 #
coedge $-1 $289 $195 $197 $293 reversed $117 $-1 #
coedge $-1 $195 $288 $287 $374 reversed $117 $-1 #
coedge $-1 $203 $198 $195 $291 forward $204 $-1 #
edge $-1 $294 -28.13351409020008 $375 -18.469520322249835 $290 $376 forward 7 unknown #
coedge $-1 $197 $196 $297 $377 reversed $73 $-1 #
edge $-1 $378 2.6082680278521875e-014 $294 17.743851184641624 $288 $379 forward 7 unknown #
vertex $-1 $199 $380 #
straight-curve $-1 -44.871361925277704 -6.2478096886744048 15.212201893487741 0 1 0 I I #
coedge $-1 $287 $200 $203 $301 reversed $193 $-1 #
coedge $-1 $200 $287 $292 $377 forward $193 $-1 #
vertex $-1 $201 $381 #
straight-curve $-1 -54.535355693227942 -18.075210524032364 29.867560827230086 0 0 1 I I #
straight-curve $-1 -54.535355693227956 -18.075210524032364 0.3309560008977499 -0.54463902268945019 0 -0.83867057594974714 I I #
edge $-1 $375 6.9160282306652547 $205 18.075210524032364 $296 $382 forward 7 unknown #
point $-1 -54.535355693227942 -18.075210524032364 15.212201893487741 #
point $-1 -44.871361925277697 -18.075210524032364 15.212201893487741 #
edge $-1 $383 1 $383 0 $208 $-1 forward 7 unknown #
vertex $-1 $209 $384 #
ellipse-curve $-1 -47.710290831900032 -12.49561937734881 6.4772655105853101 -0.83867057594974714 0 0.54463902268945019 0.81695853403417529 0 1.2580058639246208 1 I I #
point $-1 -48.886400275218648 -12.49561937734881 9.0295848111173758 #
loop $-1 $-1 $220 $212 #
plane-surface $-1 54.535355693227942 0 0 -1 0 0 0 0 1 forward_v I I I I #
coedge $-1 $311 $215 $217 $315 reversed $132 $-1 #
coedge $-1 $215 $310 $385 $386 reversed $132 $-1 #
coedge $-1 $223 $218 $215 $313 forward $213 $-1 #
edge $-1 $316 3.0558640946804019 $387 7.3063511060034259 $312 $388 forward 7 unknown #
coedge $-1 $217 $216 $319 $389 reversed $82 $-1 #
edge $-1 $390 -109.07071138645584 $316 -100.56973713602665 $310 $391 forward 7 unknown #
vertex $-1 $219 $392 #
straight-curve $-1 50.284868681904918 -9.6246310995497506 15.212201893487745 0 -1 0 I I #
coedge $-1 $385 $220 $223 $323 reversed $308 $-1 #
coedge $-1 $220 $385 $314 $389 forward $308 $-1 #
vertex $-1 $221 $393 #
straight-curve $-1 54.535355693227942 -13.797923964356691 78.421752057538257 0 0 1 I I #
straight-curve $-1 1.4612719070328239e-006 -13.797923964356691 102.30814988312045 0.49999998660252726 0 -0.86602541151947299 I I #
edge $-1 $387 -24.700600433842311 $224 -13.797923964356691 $318 $394 forward 7 unknown #
point $-1 54.535355693227942 -13.797923964356691 15.212201893487741 #
point $-1 50.284868681904918 -13.797923964356691 15.212201893487745 #
edge $-1 $395 1 $395 0 $227 $-1 forward 7 unknown #
vertex $-1 $228 $396 #
ellipse-curve $-1 49.913182815701717 -22.520065139945189 10.089569238225517 0.86602541151947299 0 0.49999998660252726 0.49999998660252726 0 -0.86602541151947299 1 I I #
point $-1 52.910112174168944 -22.520065139945189 10.665146620196053 #
edge $-1 $397 1 $397 0 $231 $-1 forward 7 unknown #
vertex $-1 $232 $398 #
ellipse-curve $-1 49.913182815701717 -19.249262199099501 10.089569238225517 0.86602541151947299 0 0.49999998660252726 0.49999998660252726 0 -0.86602541151947299 1 I I #
point $-1 52.910112174168944 -19.249262199099501 10.665146620196053 #
edge $-1 $399 1 $399 0 $235 $-1 forward 7 unknown #
vertex $-1 $236 $400 #
ellipse-curve $-1 49.913182815701717 -15.978459258253814 10.089569238225517 0.86602541151947299 0 0.49999998660252726 0.49999998660252726 0 -0.86602541151947299 1 I I #
point $-1 52.910112174168944 -15.978459258253814 10.665146620196053 #
plane-surface $-1 54.535355693227942 0 0 -1 0 0 0 0 1 forward_v I I I I #
coedge $-1 $342 $247 $250 $350 forward $240 $-1 #
coedge $-1 $247 $342 $242 $341 reversed $240 $-1 #
edge $-1 $347 -15.212201893487741 $354 15.212201893487741 $340 $401 forward 7 unknown #
coedge $-1 $340 $339 $243 $343 reversed $240 $-1 #
edge $-1 $354 -54.535355693227942 $344 54.535355693227942 $342 $402 forward 7 unknown #
vertex $-1 $245 $403 #
straight-curve $-1 54.535355693227942 0 -15.212201893487741 0 -1 0 I I #
edge $-1 $347 -34.98271557713425 $258 34.98271557713425 $256 $404 forward 7 unknown #
vertex $-1 $248 $405 #
straight-curve $-1 0 34.98271557713425 15.212201893487741 -1 0 0 I I #
straight-curve $-1 0 -34.98271557713425 15.212201893487741 1 0 0 I I #
edge $-1 $253 -15.212201893487741 $344 15.212201893487741 $250 $406 forward 7 unknown #
point $-1 54.535355693227942 -34.98271557713425 15.212201893487741 #
point $-1 54.535355693227942 34.98271557713425 15.212201893487741 #
point $-1 -54.535355693227942 -34.98271557713425 15.212201893487741 #
vertex $-1 $343 $407 #
straight-curve $-1 -54.535355693227942 0 -15.212201893487741 0 1 0 I I #
plane-surface $-1 0 0 15.212201893487741 0 0 1 1 0 0 forward_v I I I I #
coedge $-1 $271 $369 $358 $408 forward $264 $-1 #
coedge $-1 $267 $266 $357 $408 reversed $109 $-1 #
edge $-1 $365 -3.9832505577543103 $363 3.9832505577543103 $266 $409 forward 7 unknown #
coedge $-1 $279 $278 $267 $361 forward $280 $-1 #
edge $-1 $362 -3.9832505577543103 $410 3.9832505577543103 $267 $411 forward 7 unknown #
vertex $-1 $283 $412 #
vertex $-1 $273 $413 #
straight-curve $-1 -43.129918565755794 -45.26483072042619 0 0 0 -1 I I #
vertex $-1 $408 $414 #
straight-curve $-1 -35.163417450247174 -40.123773148780217 -15.212201893487741 0 -1 0 I I #
straight-curve $-1 -43.129918565755794 -40.123773148780217 -15.212201893487741 0 1 0 I I #
point $-1 -35.163417450247174 -34.982715577134243 -15.212201893487741 #
coedge $-1 $357 $276 $279 $371 reversed $264 $-1 #
straight-curve $-1 -35.163417450247174 -34.98271557713425 0 0 0 -1 I I #
edge $-1 $410 -5.1410575716459732 $281 5.1410575716459732 $369 $415 forward 7 unknown #
point $-1 -35.163417450247174 -34.982715577134243 15.212201893487741 #
straight-curve $-1 -43.129918565755794 -40.123773148780217 15.212201893487741 0 -1 0 I I #
edge $-1 $375 14.655358933742345 $378 29.536604826332315 $287 $416 forward 7 unknown #
vertex $-1 $301 $417 #
straight-curve $-1 -73.004876015477777 -6.9160282306652547 15.212201893487741 -1 0 0 I I #
edge $-1 $378 0.66821854199084996 $298 11.82740083535796 $297 $418 forward 7 unknown #
vertex $-1 $377 $419 #
straight-curve $-1 -54.535355693227956 -6.9160282306652547 0.3309560008977499 0.54463902268945019 0 0.83867057594974714 I I #
point $-1 -44.871361925277697 -6.9160282306652547 15.212201893487741 #
point $-1 -54.535355693227942 -18.075210524032364 0.33095600089777177 #
straight-curve $-1 -54.535355693227942 0 15.212201893487741 0 -1 0 I I #
vertex $-1 $304 $420 #
point $-1 -46.893332297865854 -12.49561937734881 7.7352713745099315 #
coedge $-1 $319 $318 $311 $386 forward $308 $-1 #
edge $-1 $387 63.209550164050512 $390 70.571609887594889 $385 $421 forward 7 unknown #
vertex $-1 $323 $422 #
straight-curve $-1 47.229004587224516 -24.700600433842311 15.212201893487745 1 0 0 I I #
edge $-1 $390 -15.07596933429256 $320 -4.1732928648069407 $319 $423 forward 7 unknown #
vertex $-1 $389 $424 #
straight-curve $-1 1.4612719070328239e-006 -24.700600433842311 102.30814988312045 -0.49999998660252726 0 0.86602541151947299 I I #
point $-1 50.284868681904918 -24.700600433842311 15.212201893487745 #
point $-1 54.535355693227942 -13.797923964356691 7.8501421699433678 #
straight-curve $-1 54.535355693227942 0 15.212201893487741 0 1 0 I I #
vertex $-1 $326 $425 #
point $-1 50.413182802304242 -22.520065139945189 9.2235438267060434 #
vertex $-1 $330 $426 #
point $-1 50.413182802304242 -19.249262199099501 9.2235438267060434 #
vertex $-1 $334 $427 #
point $-1 50.413182802304242 -15.978459258253814 9.2235438267060434 #
straight-curve $-1 -54.535355693227942 34.98271557713425 0 0 0 -1 I I #
straight-curve $-1 0 34.98271557713425 -15.212201893487741 1 0 0 I I #
point $-1 54.535355693227942 34.98271557713425 -15.212201893487741 #
straight-curve $-1 -54.535355693227942 0 15.212201893487741 0 -1 0 I I #
point $-1 -54.535355693227942 34.98271557713425 15.212201893487741 #
straight-curve $-1 54.535355693227942 34.98271557713425 0 0 0 -1 I I #
point $-1 -54.535355693227942 34.98271557713425 -15.212201893487741 #
edge $-1 $410 -15.212201893487741 $365 15.212201893487741 $357 $428 forward 7 unknown #
straight-curve $-1 -39.146668008001484 -45.26483072042619 -15.212201893487741 -1 0 0 I I #
vertex $-1 $371 $429 #
straight-curve $-1 -39.146668008001484 -45.26483072042619 15.212201893487741 1 0 0 I I #
point $-1 -43.129918565755794 -45.26483072042619 15.212201893487741 #
point $-1 -43.129918565755794 -45.26483072042619 -15.212201893487741 #
point $-1 -35.163417450247174 -45.26483072042619 -15.212201893487741 #
straight-curve $-1 -35.163417450247174 -40.123773148780217 15.212201893487741 0 1 0 I I #
straight-curve $-1 -54.535355693227942 -6.9160282306652547 29.867560827230086 0 0 -1 I I #
point $-1 -54.535355693227942 -6.9160282306652547 15.212201893487741 #
straight-curve $-1 -54.535355693227942 -6.2478096886744048 0.33095600089777205 0 -1 0 I I #
point $-1 -54.535355693227942 -6.9160282306652547 0.33095600089777177 #
point $-1 -46.452284967975409 -12.49561937734881 5.6603069765511353 #
straight-curve $-1 54.535355693227942 -24.700600433842311 78.421752057538257 0 0 -1 I I #
point $-1 54.535355693227942 -24.700600433842311 15.212201893487741 #
straight-curve $-1 54.535355693227942 -9.6246310995497506 7.8501421699433607 0 1 0 I I #
point $-1 54.535355693227942 -24.700600433842311 7.8501421699433678 #
point $-1 49.047157404182244 -22.520065139945189 9.5895692516229882 #
point $-1 49.047157404182244 -19.249262199099501 9.5895692516229882 #
point $-1 49.047157404182244 -15.978459258253814 9.5895692516229882 #
straight-curve $-1 -35.163417450247174 -45.26483072042619 0 0 0 -1 I I #
point $-1 -35.163417450247174 -45.26483072042619 15.212201893487741 #
End-of-ACIS-data 