500 0 5 0           
7 Unknown 11 ACIS 5.0 NT 24 Thu Mar 25 23:23:02 1999 
-1 9.9999999999999995e-007 1e-010 
body $-1 $5 $-1 $6 #
body $-1 $7 $-1 $8 #
body $-1 $9 $-1 $10 #
body $-1 $11 $-1 $12 #
body $-1 $13 $-1 $14 #
lump $-1 $-1 $15 $0 #
transform $-1 1 0 0 0 1 0 0 0 1 40.683614612262339 17.128289701850726 8.2283954544136666 1 rotate no_reflect no_shear #
lump $-1 $-1 $16 $1 #
transform $-1 1 0 0 0 1 0 0 0 1 40.683614612262339 17.128289701850726 8.2283954544136666 1 rotate no_reflect no_shear #
lump $-1 $-1 $17 $2 #
transform $-1 1 0 0 0 1 0 0 0 1 40.683614612262339 17.128289701850726 8.2283954544136666 1 rotate no_reflect no_shear #
lump $-1 $-1 $18 $3 #
transform $-1 1 0 0 0 1 0 0 0 1 40.683614612262339 17.128289701850726 8.2283954544136666 1 rotate no_reflect no_shear #
lump $-1 $-1 $19 $4 #
transform $-1 1 0 0 0 1 0 0 0 1 40.683614612262339 17.128289701850726 8.2283954544136666 1 rotate no_reflect no_shear #
shell $-1 $-1 $-1 $20 $-1 $5 #
shell $-1 $-1 $-1 $21 $-1 $7 #
shell $-1 $-1 $-1 $22 $-1 $9 #
shell $-1 $-1 $-1 $23 $-1 $11 #
shell $-1 $-1 $-1 $24 $-1 $13 #
face $-1 $25 $26 $15 $-1 $27 forward single #
face $-1 $28 $29 $16 $-1 $30 forward single #
face $-1 $31 $32 $17 $-1 $33 forward single #
face $-1 $34 $35 $18 $-1 $36 reversed single #
face $-1 $37 $38 $19 $-1 $39 reversed single #
face $-1 $40 $41 $15 $-1 $42 reversed single #
loop $-1 $-1 $43 $20 #
plane-surface $-1 0 0 8.2283954544136666 0 0 1 1 0 0 forward_v I I I I #
face $-1 $44 $45 $16 $-1 $46 forward single #
loop $-1 $-1 $47 $21 #
plane-surface $-1 -36.495743779235141 -12.784896243229866 0 0 -1 0 0 0 -1 forward_v I I I I #
face $-1 $48 $49 $17 $-1 $50 forward single #
loop $-1 $-1 $51 $22 #
plane-surface $-1 24.668878026050713 8.4651500530541881 115.94547472080073 0 1 0 0.6018150307709319 0 0.79863550430605224 forward_v I I I I #
face $-1 $52 $53 $18 $-1 $54 reversed single #
loop $-1 $55 $56 $23 #
cone-surface $-1 36.056221135912025 10.940332809853199 4.4597093047284746 -0.6018150307709319 0 -0.79863550430605224 0.79863550430605224 0 -0.6018150307709319 1 I I 0 1 1 forward I I I I #
face $-1 $57 $58 $19 $-1 $59 reversed single #
loop $-1 $60 $61 $24 #
cone-surface $-1 36.056221135912025 14.653106945051718 4.4597093047284746 -0.6018150307709319 0 -0.79863550430605224 0.79863550430605224 0 -0.6018150307709319 1 I I 0 1 1 forward I I I I #
face $-1 $62 $63 $15 $-1 $64 reversed single #
loop $-1 $-1 $65 $25 #
plane-surface $-1 0 0 -8.2283954544136666 0 0 1 1 0 0 forward_v I I I I #
coedge $-1 $66 $67 $68 $69 forward $26 $-1 #
face $-1 $70 $71 $16 $-1 $72 forward single #
loop $-1 $-1 $73 $28 #
plane-surface $-1 -32.307872946207944 -14.956592972540296 0 -1 0 0 0 0 1 forward_v I I I I #
coedge $-1 $74 $75 $76 $77 reversed $29 $-1 #
face $-1 $78 $79 $17 $-1 $80 reversed single #
loop $-1 $-1 $81 $31 #
plane-surface $-1 -24.299143533452067 12.796719877452457 50.962716575086318 0.6018150307709319 0 0.79863550430605224 0.79863550430605224 0 -0.6018150307709319 forward_v I I I I #
coedge $-1 $82 $83 $84 $85 reversed $32 $-1 #
face $-1 $86 $87 $18 $-1 $88 forward single #
loop $-1 $89 $90 $34 #
cone-surface $-1 35.264120005519452 10.940332809853199 3.408555622305327 -0.6018150307709319 0 -0.79863550430605224 0.39931775215302612 0 -0.30090751538546595 1 I I -0.70710678118654746 0.70710678118654746 0.5 forward I I I I #
loop $-1 $-1 $91 $23 #
coedge $-1 $56 $56 $92 $93 reversed $35 $-1 #
face $-1 $94 $95 $19 $-1 $96 reversed single #
loop $-1 $97 $98 $37 #
cone-surface $-1 35.264120005519452 14.653106945051718 3.408555622305327 -0.6018150307709319 0 -0.79863550430605224 0.39931775215302612 0 -0.30090751538546595 1 I I -0.70710678118654746 0.70710678118654746 0.5 forward I I I I #
loop $-1 $-1 $99 $24 #
coedge $-1 $61 $61 $100 $101 reversed $38 $-1 #
face $-1 $102 $103 $15 $-1 $104 reversed single #
loop $-1 $-1 $105 $40 #
plane-surface $-1 0 -17.128289701850726 0 0 1 0 0 0 1 forward_v I I I I #
coedge $-1 $106 $107 $108 $109 forward $41 $-1 #
coedge $-1 $110 $43 $111 $112 forward $26 $-1 #
coedge $-1 $43 $110 $113 $114 forward $26 $-1 #
coedge $-1 $115 $116 $43 $69 reversed $117 $-1 #
edge $-1 $118 -17.128289701850726 $119 17.128289701850726 $68 $120 forward 7 unknown #
face $-1 $121 $122 $16 $-1 $123 reversed single #
loop $-1 $-1 $124 $44 #
plane-surface $-1 0 0 8.2283954544136666 0 0 1 1 0 0 forward_v I I I I #
coedge $-1 $125 $126 $127 $128 reversed $45 $-1 #
coedge $-1 $129 $47 $124 $130 reversed $29 $-1 #
coedge $-1 $47 $129 $131 $132 reversed $29 $-1 #
coedge $-1 $126 $125 $47 $77 forward $45 $-1 #
edge $-1 $133 -8.2283954544136666 $134 8.2283954544136666 $76 $135 forward 7 unknown #
face $-1 $136 $137 $17 $-1 $138 forward single #
loop $-1 $-1 $139 $48 #
plane-surface $-1 40.683614612262339 0 0 -1 0 0 0 0 1 forward_v I I I I #
coedge $-1 $140 $141 $139 $142 reversed $49 $-1 #
coedge $-1 $83 $51 $141 $143 forward $32 $-1 #
coedge $-1 $51 $82 $144 $145 reversed $32 $-1 #
coedge $-1 $146 $139 $51 $85 forward $79 $-1 #
edge $-1 $147 -55.978042344816821 $148 -49.744341905986701 $84 $149 forward 7 unknown #
face $-1 $150 $151 $18 $-1 $152 forward single #
loop $-1 $-1 $153 $52 #
plane-surface $-1 24.668878026050713 8.4651500530541881 115.94547472080073 0 1 0 0.6018150307709319 0 0.79863550430605224 forward_v I I I I #
loop $-1 $-1 $154 $34 #
coedge $-1 $90 $90 $91 $155 forward $53 $-1 #
coedge $-1 $91 $91 $90 $155 reversed $55 $-1 #
coedge $-1 $92 $92 $56 $93 forward $151 $-1 #
edge $-1 $156 0 $156 6.2831853071796004 $92 $157 forward 7 unknown #
face $-1 $158 $159 $19 $-1 $160 reversed single #
loop $-1 $161 $162 $57 #
cone-surface $-1 36.056221135912025 10.940332809853199 4.4597093047284746 -0.6018150307709319 0 -0.79863550430605224 0.79863550430605224 0 -0.6018150307709319 1 I I 0 1 1 forward I I I I #
loop $-1 $-1 $163 $37 #
coedge $-1 $98 $98 $99 $164 forward $58 $-1 #
coedge $-1 $99 $99 $98 $164 reversed $60 $-1 #
coedge $-1 $100 $100 $61 $101 forward $165 $-1 #
edge $-1 $166 0 $166 6.2831853071796004 $100 $167 forward 7 unknown #
face $-1 $168 $169 $15 $-1 $170 reversed single #
loop $-1 $-1 $171 $62 #
plane-surface $-1 -40.683614612262339 0 0 1 0 0 0 0 -1 forward_v I I I I #
coedge $-1 $172 $113 $173 $174 forward $63 $-1 #
coedge $-1 $175 $65 $172 $176 forward $41 $-1 #
coedge $-1 $65 $175 $177 $178 forward $41 $-1 #
coedge $-1 $116 $115 $65 $109 reversed $117 $-1 #
edge $-1 $179 -17.128289701850726 $180 17.128289701850726 $108 $181 forward 7 unknown #
coedge $-1 $67 $66 $182 $183 forward $26 $-1 #
coedge $-1 $184 $185 $66 $112 reversed $169 $-1 #
edge $-1 $119 -40.683614612262339 $186 40.683614612262339 $111 $187 forward 7 unknown #
coedge $-1 $105 $188 $67 $114 reversed $63 $-1 #
edge $-1 $189 -40.683614612262339 $118 40.683614612262339 $113 $190 forward 7 unknown #
coedge $-1 $108 $68 $188 $191 forward $117 $-1 #
coedge $-1 $68 $108 $184 $192 reversed $117 $-1 #
loop $-1 $-1 $115 $168 #
vertex $-1 $69 $193 #
vertex $-1 $69 $194 #
straight-curve $-1 40.683614612262339 0 8.2283954544136666 0 1 0 I I #
face $-1 $195 $196 $16 $-1 $197 reversed single #
loop $-1 $-1 $127 $70 #
plane-surface $-1 0 -17.128289701850726 0 0 1 0 0 0 1 forward_v I I I I #
coedge $-1 $198 $199 $74 $130 forward $71 $-1 #
coedge $-1 $76 $73 $198 $200 reversed $45 $-1 #
coedge $-1 $73 $76 $201 $202 reversed $45 $-1 #
coedge $-1 $203 $204 $73 $128 forward $122 $-1 #
edge $-1 $205 -8.2283954544136666 $206 8.2283954544136666 $127 $207 forward 7 unknown #
coedge $-1 $75 $74 $208 $209 reversed $29 $-1 #
edge $-1 $210 -22.435742722644768 $133 -14.060001056590373 $124 $211 forward 7 unknown #
coedge $-1 $212 $201 $75 $132 forward $196 $-1 #
edge $-1 $134 14.060001056590373 $213 22.435742722644768 $131 $214 forward 7 unknown #
vertex $-1 $130 $215 #
vertex $-1 $132 $216 #
straight-curve $-1 -32.307872946207944 -12.784896243229866 0 0 0 -1 I I #
face $-1 $217 $218 $17 $-1 $219 forward single #
loop $-1 $-1 $144 $78 #
plane-surface $-1 0 0 8.2283954544136666 0 0 1 1 0 0 forward_v I I I I #
coedge $-1 $84 $220 $81 $142 forward $79 $-1 #
coedge $-1 $221 $81 $222 $223 reversed $49 $-1 #
coedge $-1 $81 $221 $82 $143 reversed $49 $-1 #
edge $-1 $224 -10.729929763124497 $147 -2.0667901143279597 $139 $225 forward 7 unknown #
edge $-1 $147 -81.367229224524664 $226 -71.009062478764463 $82 $227 forward 7 unknown #
coedge $-1 $228 $229 $83 $145 forward $137 $-1 #
edge $-1 $148 -28.349175599236982 $226 -20.076775876550595 $144 $230 forward 7 unknown #
coedge $-1 $231 $84 $229 $232 reversed $79 $-1 #
vertex $-1 $142 $233 #
vertex $-1 $145 $234 #
straight-curve $-1 40.683614612262339 8.4651500530541881 57.972737360400366 0 0 1 I I #
face $-1 $235 $236 $18 $-1 $237 reversed single #
loop $-1 $238 $92 $86 #
plane-surface $-1 -24.299143533452067 12.796719877452457 50.962716575086318 0.6018150307709319 0 0.79863550430605224 0.79863550430605224 0 -0.6018150307709319 forward_v I I I I #
coedge $-1 $239 $240 $241 $242 reversed $87 $-1 #
coedge $-1 $154 $154 $-1 $243 forward $89 $-1 #
edge $-1 $244 0 $244 6.2831853071796004 $90 $245 forward 7 unknown #
vertex $-1 $93 $246 #
ellipse-curve $-1 36.547414750919138 10.940332809853199 5.1115452349986059 -0.6018150307709319 0 -0.79863550430605224 0.79863550430605224 0 -0.6018150307709319 1 I I #
face $-1 $247 $248 $19 $-1 $249 forward single #
loop $-1 $250 $251 $94 #
cone-surface $-1 35.264120005519452 10.940332809853199 3.408555622305327 -0.6018150307709319 0 -0.79863550430605224 0.39931775215302612 0 -0.30090751538546595 1 I I -0.70710678118654746 0.70710678118654746 0.5 forward I I I I #
loop $-1 $-1 $252 $57 #
coedge $-1 $162 $162 $253 $254 reversed $95 $-1 #
coedge $-1 $163 $163 $-1 $255 forward $97 $-1 #
edge $-1 $256 0 $256 6.2831853071796004 $98 $257 forward 7 unknown #
loop $-1 $258 $100 $247 #
vertex $-1 $101 $259 #
ellipse-curve $-1 36.547414750919138 14.653106945051718 5.1115452349986059 -0.6018150307709319 0 -0.79863550430605224 0.79863550430605224 0 -0.6018150307709319 1 I I #
face $-1 $-1 $117 $15 $-1 $260 reversed single #
loop $-1 $-1 $184 $102 #
plane-surface $-1 0 17.128289701850726 0 0 -1 0 0 0 -1 forward_v I I I I #
coedge $-1 $261 $182 $185 $262 forward $103 $-1 #
coedge $-1 $188 $105 $106 $176 reversed $63 $-1 #
coedge $-1 $182 $261 $105 $174 reversed $103 $-1 #
edge $-1 $189 -8.2283954544136666 $263 8.2283954544136666 $173 $264 forward 7 unknown #
coedge $-1 $107 $106 $261 $265 forward $41 $-1 #
edge $-1 $180 -40.683614612262339 $263 40.683614612262339 $172 $266 forward 7 unknown #
coedge $-1 $185 $184 $107 $178 reversed $169 $-1 #
edge $-1 $267 -40.683614612262339 $179 40.683614612262339 $177 $268 forward 7 unknown #
vertex $-1 $109 $269 #
vertex $-1 $191 $270 #
straight-curve $-1 40.683614612262339 0 -8.2283954544136666 0 -1 0 I I #
coedge $-1 $171 $173 $110 $183 reversed $103 $-1 #
edge $-1 $186 -17.128289701850726 $189 17.128289701850726 $182 $271 forward 7 unknown #
coedge $-1 $177 $111 $116 $192 forward $169 $-1 #
coedge $-1 $111 $177 $171 $262 reversed $169 $-1 #
vertex $-1 $112 $272 #
straight-curve $-1 0 17.128289701850726 8.2283954544136666 -1 0 0 I I #
coedge $-1 $113 $172 $115 $191 reversed $63 $-1 #
vertex $-1 $183 $273 #
straight-curve $-1 0 -17.128289701850726 8.2283954544136666 1 0 0 I I #
edge $-1 $118 -8.2283954544136666 $180 8.2283954544136666 $115 $274 forward 7 unknown #
edge $-1 $119 -8.2283954544136666 $179 8.2283954544136666 $116 $275 forward 7 unknown #
point $-1 40.683614612262339 -17.128289701850726 8.2283954544136666 #
point $-1 40.683614612262339 17.128289701850726 8.2283954544136666 #
face $-1 $276 $277 $16 $-1 $278 reversed single #
loop $-1 $-1 $131 $121 #
plane-surface $-1 0 0 -8.2283954544136666 0 0 1 1 0 0 forward_v I I I I #
coedge $-1 $279 $124 $125 $200 forward $71 $-1 #
coedge $-1 $124 $280 $281 $282 forward $71 $-1 #
edge $-1 $133 5.3065997569597183 $205 9.6499932155805777 $198 $283 forward 7 unknown #
coedge $-1 $131 $284 $126 $202 forward $196 $-1 #
edge $-1 $206 -9.6499932155805777 $134 -5.3065997569597183 $201 $285 forward 7 unknown #
coedge $-1 $286 $127 $284 $287 reversed $122 $-1 #
coedge $-1 $127 $286 $279 $288 reversed $122 $-1 #
vertex $-1 $288 $289 #
vertex $-1 $128 $290 #
straight-curve $-1 -32.307872946207944 -17.128289701850726 0 0 0 -1 I I #
coedge $-1 $281 $291 $129 $209 forward $277 $-1 #
edge $-1 $213 -8.2283954544136666 $210 8.2283954544136666 $208 $292 forward 7 unknown #
vertex $-1 $209 $293 #
straight-curve $-1 -18.247871889617571 -12.784896243229866 8.2283954544136666 1 0 0 I I #
coedge $-1 $294 $131 $291 $295 forward $196 $-1 #
vertex $-1 $295 $296 #
straight-curve $-1 -18.247871889617571 -12.784896243229866 -8.2283954544136666 -1 0 0 I I #
point $-1 -32.307872946207944 -12.784896243229866 8.2283954544136666 #
point $-1 -32.307872946207944 -12.784896243229866 -8.2283954544136666 #
face $-1 $297 $298 $17 $-1 $299 forward single #
loop $-1 $-1 $300 $136 #
plane-surface $-1 -36.495743779235141 -12.784896243229866 0 0 -1 0 0 0 -1 forward_v I I I I #
coedge $-1 $139 $301 $302 $303 reversed $79 $-1 #
coedge $-1 $141 $140 $228 $304 reversed $49 $-1 #
coedge $-1 $302 $305 $140 $223 forward $306 $-1 #
edge $-1 $307 45.970918681839713 $224 56.329085427599921 $222 $308 forward 7 unknown #
vertex $-1 $303 $309 #
straight-curve $-1 40.683614612262339 6.3983599387262284 1.9946950155835417 0 -1 0 I I #
vertex $-1 $304 $310 #
straight-curve $-1 -24.299143533452067 8.4651500530541881 50.962716575086318 -0.79863550430605224 0 0.6018150307709319 I I #
coedge $-1 $311 $144 $221 $304 forward $137 $-1 #
coedge $-1 $144 $312 $146 $232 forward $137 $-1 #
straight-curve $-1 12.334439013025357 8.4651500530541881 8.2283954544136648 -1 0 0 I I #
coedge $-1 $301 $146 $313 $314 forward $79 $-1 #
edge $-1 $315 -17.128289701850726 $148 8.4651500530541881 $146 $316 forward 7 unknown #
point $-1 40.683614612262332 8.4651500530541881 1.9946950155835452 #
point $-1 40.683614612262339 8.4651500530541881 8.2283954544136666 #
face $-1 $317 $318 $18 $-1 $319 forward single #
loop $-1 $-1 $320 $150 #
plane-surface $-1 40.683614612262339 0 0 -1 0 0 0 0 1 forward_v I I I I #
loop $-1 $-1 $321 $86 #
coedge $-1 $240 $153 $322 $323 forward $87 $-1 #
coedge $-1 $153 $239 $324 $325 reversed $87 $-1 #
coedge $-1 $326 $320 $153 $242 forward $236 $-1 #
edge $-1 $327 -55.978042344816821 $328 -49.744341905986701 $241 $329 forward 7 unknown #
edge $-1 $330 1 $330 0 $154 $-1 forward 7 unknown #
vertex $-1 $155 $331 #
ellipse-curve $-1 35.56502752090492 10.940332809853199 3.8078733744583531 0.6018150307709319 0 0.79863550430605224 0.79863550430605224 0 -0.6018150307709319 1 I I #
point $-1 37.34605025522518 10.940332809853199 4.5097302042276635 #
face $-1 $332 $165 $19 $-1 $333 forward single #
loop $-1 $-1 $334 $158 #
plane-surface $-1 24.668878026050713 8.4651500530541881 115.94547472080073 0 1 0 0.6018150307709319 0 0.79863550430605224 forward_v I I I I #
loop $-1 $-1 $335 $94 #
coedge $-1 $251 $251 $252 $336 forward $159 $-1 #
coedge $-1 $252 $252 $251 $336 reversed $161 $-1 #
coedge $-1 $253 $253 $162 $254 forward $258 $-1 #
edge $-1 $337 0 $337 6.2831853071796004 $253 $338 forward 7 unknown #
edge $-1 $339 1 $339 0 $163 $-1 forward 7 unknown #
vertex $-1 $164 $340 #
ellipse-curve $-1 35.56502752090492 14.653106945051718 3.8078733744583531 0.6018150307709319 0 0.79863550430605224 0.79863550430605224 0 -0.6018150307709319 1 I I #
loop $-1 $341 $253 $247 #
point $-1 37.34605025522518 14.653106945051718 4.5097302042276635 #
plane-surface $-1 40.683614612262339 0 0 -1 0 0 0 0 1 forward_v I I I I #
coedge $-1 $173 $171 $175 $265 reversed $103 $-1 #
edge $-1 $186 -8.2283954544136666 $267 8.2283954544136666 $185 $342 forward 7 unknown #
vertex $-1 $265 $343 #
straight-curve $-1 -40.683614612262339 -17.128289701850726 0 0 0 -1 I I #
edge $-1 $263 -17.128289701850726 $267 17.128289701850726 $261 $344 forward 7 unknown #
straight-curve $-1 0 -17.128289701850726 -8.2283954544136666 -1 0 0 I I #
vertex $-1 $178 $345 #
straight-curve $-1 0 17.128289701850726 -8.2283954544136666 1 0 0 I I #
point $-1 40.683614612262339 17.128289701850726 -8.2283954544136666 #
point $-1 40.683614612262339 -17.128289701850726 -8.2283954544136666 #
straight-curve $-1 -40.683614612262339 0 8.2283954544136666 0 -1 0 I I #
point $-1 -40.683614612262339 17.128289701850726 8.2283954544136666 #
point $-1 -40.683614612262339 -17.128289701850726 8.2283954544136666 #
straight-curve $-1 40.683614612262339 -17.128289701850726 0 0 0 -1 I I #
straight-curve $-1 40.683614612262339 17.128289701850726 0 0 0 -1 I I #
face $-1 $346 $347 $16 $-1 $348 reversed single #
loop $-1 $-1 $208 $195 #
plane-surface $-1 -40.683614612262339 0 0 1 0 0 0 0 -1 forward_v I I I I #
coedge $-1 $349 $198 $204 $288 forward $71 $-1 #
coedge $-1 $199 $349 $350 $351 forward $71 $-1 #
coedge $-1 $352 $208 $199 $282 reversed $277 $-1 #
edge $-1 $353 -17.128289701850726 $210 12.784896243229866 $281 $354 forward 7 unknown #
straight-curve $-1 -32.307872946207944 -7.478296486270148 8.2283954544136666 0 -1 0 I I #
coedge $-1 $201 $355 $203 $287 forward $196 $-1 #
straight-curve $-1 -32.307872946207944 -7.478296486270148 -8.2283954544136666 0 1 0 I I #
coedge $-1 $204 $203 $356 $357 reversed $122 $-1 #
edge $-1 $358 -40.683614612262339 $206 32.307872946207944 $203 $359 forward 7 unknown #
edge $-1 $205 -32.307872946207944 $360 40.683614612262339 $204 $361 forward 7 unknown #
point $-1 -32.307872946207944 -17.128289701850726 8.2283954544136666 #
point $-1 -32.307872946207944 -17.128289701850726 -8.2283954544136666 #
coedge $-1 $208 $352 $212 $295 reversed $277 $-1 #
straight-curve $-1 -40.683614612262339 -12.784896243229866 0 0 0 1 I I #
point $-1 -40.683614612262339 -12.784896243229866 8.2283954544136666 #
coedge $-1 $355 $212 $362 $363 forward $196 $-1 #
edge $-1 $213 -12.784896243229866 $364 17.128289701850726 $291 $365 forward 7 unknown #
point $-1 -40.683614612262339 -12.784896243229866 -8.2283954544136666 #
face $-1 $366 $367 $17 $-1 $368 reversed single #
loop $-1 $-1 $369 $217 #
plane-surface $-1 -32.307872946207944 -14.956592972540296 0 -1 0 0 0 0 1 forward_v I I I I #
coedge $-1 $370 $371 $372 $373 reversed $218 $-1 #
coedge $-1 $220 $231 $374 $375 reversed $79 $-1 #
coedge $-1 $376 $222 $220 $303 forward $306 $-1 #
edge $-1 $224 -1.9946950155835417 $377 8.2283954544136666 $220 $378 forward 7 unknown #
edge $-1 $226 2.0667901143279597 $307 10.729929763124497 $228 $379 forward 7 unknown #
coedge $-1 $222 $380 $311 $381 reversed $306 $-1 #
loop $-1 $-1 $222 $382 #
vertex $-1 $381 $383 #
straight-curve $-1 -4.30279293530762 17.128289701850726 35.894385295493038 0.79863550430605224 0 -0.6018150307709319 I I #
point $-1 40.683614612262339 17.128289701850726 1.9946950155835417 #
point $-1 32.411214889575952 8.4651500530541881 8.2283954544136648 #
coedge $-1 $384 $228 $305 $381 forward $137 $-1 #
coedge $-1 $229 $385 $386 $387 forward $137 $-1 #
coedge $-1 $386 $388 $231 $314 reversed $367 $-1 #
edge $-1 $315 -8.2283954544136666 $389 8.2283954544136666 $231 $390 forward 7 unknown #
vertex $-1 $232 $391 #
straight-curve $-1 40.683614612262339 0 8.2283954544136666 0 1 0 I I #
face $-1 $392 $393 $18 $-1 $394 forward single #
loop $-1 $-1 $324 $235 #
plane-surface $-1 0 0 8.2283954544136666 0 0 1 1 0 0 forward_v I I I I #
coedge $-1 $241 $395 $321 $396 forward $236 $-1 #
coedge $-1 $397 $322 $320 $396 reversed $238 $-1 #
coedge $-1 $321 $398 $239 $323 reversed $238 $-1 #
edge $-1 $327 -81.367229224524664 $399 -71.009062478764463 $239 $400 forward 7 unknown #
coedge $-1 $401 $402 $240 $325 forward $318 $-1 #
edge $-1 $328 -28.349175599236982 $399 -20.076775876550595 $324 $403 forward 7 unknown #
coedge $-1 $404 $241 $402 $405 reversed $236 $-1 #
vertex $-1 $396 $406 #
vertex $-1 $325 $407 #
straight-curve $-1 40.683614612262339 8.4651500530541881 57.972737360400366 0 0 1 I I #
vertex $-1 $243 $408 #
point $-1 36.363663025210968 10.940332809853199 3.2060583436874213 #
face $-1 $409 $410 $19 $-1 $411 reversed single #
plane-surface $-1 -24.299143533452067 12.796719877452457 50.962716575086318 0.6018150307709319 0 0.79863550430605224 0.79863550430605224 0 -0.6018150307709319 forward_v I I I I #
coedge $-1 $412 $413 $414 $415 reversed $248 $-1 #
coedge $-1 $335 $335 $-1 $416 forward $250 $-1 #
edge $-1 $417 0 $417 6.2831853071796004 $251 $418 forward 7 unknown #
vertex $-1 $254 $419 #
ellipse-curve $-1 36.547414750919138 10.940332809853199 5.1115452349986059 -0.6018150307709319 0 -0.79863550430605224 0.79863550430605224 0 -0.6018150307709319 1 I I #
vertex $-1 $255 $420 #
point $-1 36.363663025210968 14.653106945051718 3.2060583436874213 #
loop $-1 $-1 $421 $247 #
straight-curve $-1 -40.683614612262339 17.128289701850726 0 0 0 -1 I I #
point $-1 -40.683614612262339 -17.128289701850726 -8.2283954544136666 #
straight-curve $-1 -40.683614612262339 0 -8.2283954544136666 0 1 0 I I #
point $-1 -40.683614612262339 17.128289701850726 -8.2283954544136666 #
face $-1 $-1 $422 $16 $-1 $423 reversed single #
loop $-1 $-1 $424 $276 #
plane-surface $-1 0 17.128289701850726 0 0 -1 0 0 0 -1 forward_v I I I I #
coedge $-1 $280 $279 $425 $426 forward $71 $-1 #
coedge $-1 $424 $427 $280 $351 reversed $347 $-1 #
edge $-1 $428 -40.683614612262339 $353 40.683614612262339 $350 $429 forward 7 unknown #
coedge $-1 $291 $281 $427 $430 forward $277 $-1 #
vertex $-1 $351 $431 #
straight-curve $-1 -40.683614612262339 0 8.2283954544136666 0 -1 0 I I #
coedge $-1 $284 $294 $432 $433 forward $196 $-1 #
coedge $-1 $432 $425 $286 $357 forward $422 $-1 #
edge $-1 $360 -8.2283954544136666 $358 8.2283954544136666 $356 $434 forward 7 unknown #
vertex $-1 $357 $435 #
straight-curve $-1 0 -17.128289701850726 -8.2283954544136666 -1 0 0 I I #
vertex $-1 $426 $436 #
straight-curve $-1 0 -17.128289701850726 8.2283954544136666 1 0 0 I I #
coedge $-1 $427 $424 $294 $363 reversed $347 $-1 #
edge $-1 $364 -40.683614612262339 $437 40.683614612262339 $362 $438 forward 7 unknown #
vertex $-1 $363 $439 #
straight-curve $-1 -40.683614612262339 0 -8.2283954544136666 0 1 0 I I #
face $-1 $440 $441 $17 $-1 $442 reversed single #
loop $-1 $-1 $443 $297 #
plane-surface $-1 0 -17.128289701850726 0 0 1 0 0 0 1 forward_v I I I I #
coedge $-1 $444 $445 $443 $446 reversed $298 $-1 #
coedge $-1 $447 $300 $448 $449 reversed $218 $-1 #
coedge $-1 $300 $447 $450 $451 reversed $218 $-1 #
coedge $-1 $445 $444 $300 $373 forward $298 $-1 #
edge $-1 $452 -8.2283954544136666 $453 8.2283954544136666 $372 $454 forward 7 unknown #
coedge $-1 $455 $456 $301 $375 forward $441 $-1 #
edge $-1 $377 -17.128289701850726 $389 17.128289701850726 $301 $457 forward 7 unknown #
coedge $-1 $380 $302 $456 $458 reversed $306 $-1 #
vertex $-1 $375 $459 #
straight-curve $-1 40.683614612262339 17.128289701850726 0 0 0 -1 I I #
straight-curve $-1 32.411214889575945 6.3983599387262284 8.2283954544136648 0 1 0 I I #
coedge $-1 $305 $376 $460 $461 reversed $306 $-1 #
edge $-1 $307 -32.411214889575952 $462 40.683614612262339 $305 $463 forward 7 unknown #
face $-1 $-1 $306 $17 $-1 $464 reversed single #
point $-1 32.411214889575952 17.128289701850726 8.2283954544136648 #
coedge $-1 $448 $311 $465 $466 forward $137 $-1 #
coedge $-1 $312 $448 $444 $467 forward $137 $-1 #
coedge $-1 $443 $313 $312 $387 reversed $367 $-1 #
edge $-1 $468 -32.307872946207944 $315 40.683614612262339 $386 $469 forward 7 unknown #
coedge $-1 $313 $443 $455 $470 reversed $367 $-1 #
vertex $-1 $314 $471 #
straight-curve $-1 40.683614612262339 -17.128289701850726 0 0 0 -1 I I #
point $-1 40.683614612262339 -17.128289701850726 8.2283954544136666 #
face $-1 $472 $473 $18 $-1 $474 forward single #
loop $-1 $-1 $475 $317 #
plane-surface $-1 -36.495743779235141 -12.784896243229866 0 0 -1 0 0 0 -1 forward_v I I I I #
coedge $-1 $320 $476 $477 $478 reversed $236 $-1 #
edge $-1 $479 -10.729929763124497 $327 -2.0667901143279597 $320 $480 forward 7 unknown #
coedge $-1 $398 $321 $481 $482 reversed $238 $-1 #
coedge $-1 $322 $397 $401 $483 reversed $238 $-1 #
vertex $-1 $483 $484 #
straight-curve $-1 -24.299143533452067 8.4651500530541881 50.962716575086318 -0.79863550430605224 0 0.6018150307709319 I I #
coedge $-1 $485 $324 $398 $483 forward $318 $-1 #
coedge $-1 $324 $486 $326 $405 forward $318 $-1 #
straight-curve $-1 12.334439013025357 8.4651500530541881 8.2283954544136648 -1 0 0 I I #
coedge $-1 $476 $326 $487 $488 forward $236 $-1 #
edge $-1 $489 -17.128289701850726 $328 8.4651500530541881 $326 $490 forward 7 unknown #
point $-1 40.683614612262332 8.4651500530541881 1.9946950155835452 #
point $-1 40.683614612262339 8.4651500530541881 8.2283954544136666 #
point $-1 34.963212490133984 10.940332809853199 3.009237870152301 #
face $-1 $491 $492 $19 $-1 $493 forward single #
loop $-1 $-1 $494 $332 #
plane-surface $-1 40.683614612262339 0 0 -1 0 0 0 0 1 forward_v I I I I #
coedge $-1 $413 $334 $495 $496 forward $248 $-1 #
coedge $-1 $334 $412 $497 $498 reversed $248 $-1 #
coedge $-1 $499 $494 $334 $415 forward $410 $-1 #
edge $-1 $500 -55.978042344816821 $501 -49.744341905986701 $414 $502 forward 7 unknown #
edge $-1 $503 1 $503 0 $335 $-1 forward 7 unknown #
vertex $-1 $336 $504 #
ellipse-curve $-1 35.56502752090492 10.940332809853199 3.8078733744583531 0.6018150307709319 0 0.79863550430605224 0.79863550430605224 0 -0.6018150307709319 1 I I #
point $-1 37.34605025522518 10.940332809853199 4.5097302042276635 #
point $-1 34.963212490133984 14.653106945051718 3.009237870152301 #
coedge $-1 $505 $495 $494 $506 reversed $341 $-1 #
loop $-1 $-1 $356 $346 #
plane-surface $-1 40.683614612262339 0 0 -1 0 0 0 0 1 forward_v I I I I #
coedge $-1 $362 $350 $507 $508 forward $347 $-1 #
coedge $-1 $356 $507 $349 $426 reversed $422 $-1 #
edge $-1 $360 -17.128289701850726 $428 17.128289701850726 $425 $509 forward 7 unknown #
coedge $-1 $350 $362 $352 $430 reversed $347 $-1 #
vertex $-1 $426 $510 #
straight-curve $-1 0 17.128289701850726 8.2283954544136666 -1 0 0 I I #
edge $-1 $353 -8.2283954544136666 $364 8.2283954544136666 $427 $511 forward 7 unknown #
point $-1 -40.683614612262339 17.128289701850726 8.2283954544136666 #
coedge $-1 $507 $356 $355 $433 reversed $422 $-1 #
edge $-1 $437 -17.128289701850726 $358 17.128289701850726 $432 $512 forward 7 unknown #
straight-curve $-1 40.683614612262339 -17.128289701850726 0 0 0 -1 I I #
point $-1 40.683614612262339 -17.128289701850726 -8.2283954544136666 #
point $-1 40.683614612262339 -17.128289701850726 8.2283954544136666 #
vertex $-1 $433 $513 #
straight-curve $-1 0 17.128289701850726 -8.2283954544136666 1 0 0 I I #
point $-1 -40.683614612262339 17.128289701850726 -8.2283954544136666 #
face $-1 $382 $514 $17 $-1 $515 reversed single #
loop $-1 $-1 $450 $366 #
plane-surface $-1 0 0 -8.2283954544136666 0 0 1 1 0 0 forward_v I I I I #
coedge $-1 $388 $386 $369 $446 forward $367 $-1 #
coedge $-1 $372 $369 $385 $467 reversed $298 $-1 #
coedge $-1 $369 $372 $516 $517 reversed $298 $-1 #
edge $-1 $468 -8.2283954544136666 $518 8.2283954544136666 $443 $519 forward 7 unknown #
coedge $-1 $371 $370 $520 $521 reversed $218 $-1 #
coedge $-1 $385 $384 $370 $449 forward $137 $-1 #
edge $-1 $522 -22.435742722644768 $452 -14.060001056590373 $448 $523 forward 7 unknown #
coedge $-1 $524 $516 $371 $451 forward $441 $-1 #
edge $-1 $453 14.060001056590373 $525 22.435742722644768 $450 $526 forward 7 unknown #
vertex $-1 $449 $527 #
vertex $-1 $451 $528 #
straight-curve $-1 -32.307872946207944 -12.784896243229866 0 0 0 -1 I I #
coedge $-1 $516 $374 $388 $470 forward $441 $-1 #
coedge $-1 $374 $524 $376 $458 forward $441 $-1 #
straight-curve $-1 40.683614612262339 0 -8.2283954544136666 0 -1 0 I I #
edge $-1 $529 -40.683614612262339 $377 40.683614612262339 $376 $530 forward 7 unknown #
point $-1 40.683614612262339 17.128289701850726 -8.2283954544136666 #
coedge $-1 $531 $465 $380 $461 forward $514 $-1 #
edge $-1 $462 -8.2283954544136666 $529 8.2283954544136666 $380 $532 forward 7 unknown #
vertex $-1 $381 $533 #
straight-curve $-1 0 17.128289701850726 8.2283954544136666 -1 0 0 I I #
plane-surface $-1 0 17.128289701850726 0 0 -1 0 0 0 -1 forward_v I I I I #
coedge $-1 $460 $520 $384 $466 reversed $514 $-1 #
edge $-1 $462 -17.128289701850726 $522 12.784896243229866 $465 $534 forward 7 unknown #
edge $-1 $452 5.3065997569597183 $468 9.6499932155805777 $385 $535 forward 7 unknown #
vertex $-1 $387 $536 #
straight-curve $-1 0 -17.128289701850726 8.2283954544136666 1 0 0 I I #
edge $-1 $389 -40.683614612262339 $518 32.307872946207944 $388 $537 forward 7 unknown #
point $-1 40.683614612262339 -17.128289701850726 -8.2283954544136666 #
face $-1 $538 $539 $18 $-1 $540 reversed single #
loop $-1 $-1 $541 $392 #
plane-surface $-1 -32.307872946207944 -14.956592972540296 0 -1 0 0 0 0 1 forward_v I I I I #
coedge $-1 $542 $543 $544 $545 reversed $393 $-1 #
coedge $-1 $395 $404 $546 $547 reversed $236 $-1 #
coedge $-1 $548 $481 $395 $478 forward $549 $-1 #
edge $-1 $479 -1.9946950155835417 $550 8.2283954544136666 $395 $551 forward 7 unknown #
vertex $-1 $478 $552 #
straight-curve $-1 40.683614612262339 6.3983599387262284 1.9946950155835417 0 -1 0 I I #
coedge $-1 $477 $553 $397 $482 forward $549 $-1 #
edge $-1 $554 45.970918681839713 $479 56.329085427599921 $481 $555 forward 7 unknown #
edge $-1 $399 2.0667901143279597 $554 10.729929763124497 $401 $556 forward 7 unknown #
point $-1 32.411214889575952 8.4651500530541881 8.2283954544136648 #
coedge $-1 $557 $401 $553 $558 forward $318 $-1 #
coedge $-1 $402 $559 $560 $561 forward $318 $-1 #
coedge $-1 $560 $562 $404 $488 reversed $539 $-1 #
edge $-1 $489 -8.2283954544136666 $563 8.2283954544136666 $404 $564 forward 7 unknown #
vertex $-1 $405 $565 #
straight-curve $-1 40.683614612262339 0 8.2283954544136666 0 1 0 I I #
face $-1 $566 $567 $19 $-1 $568 forward single #
loop $-1 $-1 $497 $409 #
plane-surface $-1 0 0 8.2283954544136666 0 0 1 1 0 0 forward_v I I I I #
coedge $-1 $414 $569 $421 $506 forward $410 $-1 #
coedge $-1 $421 $570 $412 $496 reversed $341 $-1 #
edge $-1 $500 -81.367229224524664 $571 -71.009062478764463 $412 $572 forward 7 unknown #
coedge $-1 $573 $574 $413 $498 forward $492 $-1 #
edge $-1 $501 -28.349175599236982 $571 -20.076775876550595 $497 $575 forward 7 unknown #
coedge $-1 $576 $414 $574 $577 reversed $410 $-1 #
vertex $-1 $506 $578 #
vertex $-1 $498 $579 #
straight-curve $-1 40.683614612262339 8.4651500530541881 57.972737360400366 0 0 1 I I #
vertex $-1 $416 $580 #
point $-1 36.363663025210968 10.940332809853199 3.2060583436874213 #
coedge $-1 $570 $421 $581 $582 reversed $341 $-1 #
edge $-1 $583 -10.729929763124497 $500 -2.0667901143279597 $494 $584 forward 7 unknown #
coedge $-1 $425 $432 $424 $508 reversed $422 $-1 #
edge $-1 $428 -8.2283954544136666 $437 8.2283954544136666 $507 $585 forward 7 unknown #
straight-curve $-1 40.683614612262339 0 8.2283954544136666 0 1 0 I I #
point $-1 40.683614612262339 17.128289701850726 8.2283954544136666 #
straight-curve $-1 -40.683614612262339 17.128289701850726 0 0 0 -1 I I #
straight-curve $-1 40.683614612262339 0 -8.2283954544136666 0 -1 0 I I #
point $-1 40.683614612262339 17.128289701850726 -8.2283954544136666 #
loop $-1 $-1 $520 $440 #
plane-surface $-1 -40.683614612262339 0 0 1 0 0 0 0 -1 forward_v I I I I #
coedge $-1 $450 $455 $445 $517 forward $441 $-1 #
edge $-1 $518 -9.6499932155805777 $453 -5.3065997569597183 $516 $586 forward 7 unknown #
vertex $-1 $446 $587 #
straight-curve $-1 -32.307872946207944 -17.128289701850726 0 0 0 -1 I I #
coedge $-1 $465 $531 $447 $521 forward $514 $-1 #
edge $-1 $525 -8.2283954544136666 $522 8.2283954544136666 $520 $588 forward 7 unknown #
vertex $-1 $521 $589 #
straight-curve $-1 -18.247871889617571 -12.784896243229866 8.2283954544136666 1 0 0 I I #
coedge $-1 $456 $450 $531 $590 forward $441 $-1 #
vertex $-1 $590 $591 #
straight-curve $-1 -18.247871889617571 -12.784896243229866 -8.2283954544136666 -1 0 0 I I #
point $-1 -32.307872946207944 -12.784896243229866 8.2283954544136666 #
point $-1 -32.307872946207944 -12.784896243229866 -8.2283954544136666 #
vertex $-1 $458 $592 #
straight-curve $-1 0 17.128289701850726 -8.2283954544136666 1 0 0 I I #
coedge $-1 $520 $460 $524 $590 reversed $514 $-1 #
straight-curve $-1 -40.683614612262339 17.128289701850726 0 0 0 -1 I I #
point $-1 -40.683614612262339 17.128289701850726 8.2283954544136666 #
straight-curve $-1 -40.683614612262339 0 8.2283954544136666 0 -1 0 I I #
straight-curve $-1 -32.307872946207944 -7.478296486270148 8.2283954544136666 0 -1 0 I I #
point $-1 -32.307872946207944 -17.128289701850726 8.2283954544136666 #
straight-curve $-1 0 -17.128289701850726 -8.2283954544136666 -1 0 0 I I #
face $-1 $593 $594 $18 $-1 $595 reversed single #
loop $-1 $-1 $596 $472 #
plane-surface $-1 0 -17.128289701850726 0 0 1 0 0 0 1 forward_v I I I I #
coedge $-1 $597 $598 $596 $599 reversed $473 $-1 #
coedge $-1 $600 $475 $601 $602 reversed $393 $-1 #
coedge $-1 $475 $600 $603 $604 reversed $393 $-1 #
coedge $-1 $598 $597 $475 $545 forward $473 $-1 #
edge $-1 $605 -8.2283954544136666 $606 8.2283954544136666 $544 $607 forward 7 unknown #
coedge $-1 $608 $609 $476 $547 forward $594 $-1 #
edge $-1 $550 -17.128289701850726 $563 17.128289701850726 $476 $610 forward 7 unknown #
coedge $-1 $611 $477 $609 $612 reversed $549 $-1 #
loop $-1 $-1 $481 $613 #
vertex $-1 $547 $614 #
straight-curve $-1 40.683614612262339 17.128289701850726 0 0 0 -1 I I #
point $-1 40.683614612262339 17.128289701850726 1.9946950155835417 #
coedge $-1 $481 $611 $485 $558 reversed $549 $-1 #
vertex $-1 $558 $615 #
straight-curve $-1 -4.30279293530762 17.128289701850726 35.894385295493038 0.79863550430605224 0 -0.6018150307709319 I I #
straight-curve $-1 32.411214889575945 6.3983599387262284 8.2283954544136648 0 1 0 I I #
coedge $-1 $601 $485 $616 $617 forward $318 $-1 #
edge $-1 $554 -32.411214889575952 $618 40.683614612262339 $553 $619 forward 7 unknown #
coedge $-1 $486 $601 $597 $620 forward $318 $-1 #
coedge $-1 $596 $487 $486 $561 reversed $539 $-1 #
edge $-1 $621 -32.307872946207944 $489 40.683614612262339 $560 $622 forward 7 unknown #
coedge $-1 $487 $596 $608 $623 reversed $539 $-1 #
vertex $-1 $488 $624 #
straight-curve $-1 40.683614612262339 -17.128289701850726 0 0 0 -1 I I #
point $-1 40.683614612262339 -17.128289701850726 8.2283954544136666 #
face $-1 $625 $626 $19 $-1 $627 forward single #
loop $-1 $-1 $628 $491 #
plane-surface $-1 -36.495743779235141 -12.784896243229866 0 0 -1 0 0 0 -1 forward_v I I I I #
coedge $-1 $494 $629 $630 $631 reversed $410 $-1 #
coedge $-1 $495 $505 $573 $632 reversed $341 $-1 #
vertex $-1 $632 $633 #
straight-curve $-1 -24.299143533452067 8.4651500530541881 50.962716575086318 -0.79863550430605224 0 0.6018150307709319 I I #
coedge $-1 $634 $497 $570 $632 forward $492 $-1 #
coedge $-1 $497 $635 $499 $577 forward $492 $-1 #
straight-curve $-1 12.334439013025357 8.4651500530541881 8.2283954544136648 -1 0 0 I I #
coedge $-1 $629 $499 $636 $637 forward $410 $-1 #
edge $-1 $638 -17.128289701850726 $501 8.4651500530541881 $499 $639 forward 7 unknown #
point $-1 40.683614612262332 8.4651500530541881 1.9946950155835452 #
point $-1 40.683614612262339 8.4651500530541881 8.2283954544136666 #
point $-1 34.963212490133984 10.940332809853199 3.009237870152301 #
coedge $-1 $630 $640 $505 $582 forward $641 $-1 #
edge $-1 $642 45.970918681839713 $583 56.329085427599921 $581 $643 forward 7 unknown #
vertex $-1 $631 $644 #
straight-curve $-1 40.683614612262339 6.3983599387262284 1.9946950155835417 0 -1 0 I I #
straight-curve $-1 40.683614612262339 17.128289701850726 0 0 0 -1 I I #
straight-curve $-1 -32.307872946207944 -7.478296486270148 -8.2283954544136666 0 1 0 I I #
point $-1 -32.307872946207944 -17.128289701850726 -8.2283954544136666 #
straight-curve $-1 -40.683614612262339 -12.784896243229866 0 0 0 1 I I #
point $-1 -40.683614612262339 -12.784896243229866 8.2283954544136666 #
edge $-1 $525 -12.784896243229866 $529 17.128289701850726 $531 $645 forward 7 unknown #
point $-1 -40.683614612262339 -12.784896243229866 -8.2283954544136666 #
point $-1 -40.683614612262339 17.128289701850726 -8.2283954544136666 #
face $-1 $613 $646 $18 $-1 $647 reversed single #
loop $-1 $-1 $603 $538 #
plane-surface $-1 0 0 -8.2283954544136666 0 0 1 1 0 0 forward_v I I I I #
coedge $-1 $562 $560 $541 $599 forward $539 $-1 #
coedge $-1 $544 $541 $559 $620 reversed $473 $-1 #
coedge $-1 $541 $544 $648 $649 reversed $473 $-1 #
edge $-1 $621 -8.2283954544136666 $650 8.2283954544136666 $596 $651 forward 7 unknown #
coedge $-1 $543 $542 $652 $653 reversed $393 $-1 #
coedge $-1 $559 $557 $542 $602 forward $318 $-1 #
edge $-1 $654 -22.435742722644768 $605 -14.060001056590373 $601 $655 forward 7 unknown #
coedge $-1 $656 $648 $543 $604 forward $594 $-1 #
edge $-1 $606 14.060001056590373 $657 22.435742722644768 $603 $658 forward 7 unknown #
vertex $-1 $602 $659 #
vertex $-1 $604 $660 #
straight-curve $-1 -32.307872946207944 -12.784896243229866 0 0 0 -1 I I #
coedge $-1 $648 $546 $562 $623 forward $594 $-1 #
coedge $-1 $546 $656 $548 $612 forward $594 $-1 #
straight-curve $-1 40.683614612262339 0 -8.2283954544136666 0 -1 0 I I #
coedge $-1 $553 $548 $661 $662 reversed $549 $-1 #
edge $-1 $663 -40.683614612262339 $550 40.683614612262339 $548 $664 forward 7 unknown #
face $-1 $-1 $549 $18 $-1 $665 reversed single #
point $-1 40.683614612262339 17.128289701850726 -8.2283954544136666 #
point $-1 32.411214889575952 17.128289701850726 8.2283954544136648 #
coedge $-1 $661 $652 $557 $617 reversed $646 $-1 #
edge $-1 $618 -17.128289701850726 $654 12.784896243229866 $616 $666 forward 7 unknown #
vertex $-1 $558 $667 #
straight-curve $-1 0 17.128289701850726 8.2283954544136666 -1 0 0 I I #
edge $-1 $605 5.3065997569597183 $621 9.6499932155805777 $559 $668 forward 7 unknown #
vertex $-1 $561 $669 #
straight-curve $-1 0 -17.128289701850726 8.2283954544136666 1 0 0 I I #
edge $-1 $563 -40.683614612262339 $650 32.307872946207944 $562 $670 forward 7 unknown #
point $-1 40.683614612262339 -17.128289701850726 -8.2283954544136666 #
face $-1 $671 $672 $19 $-1 $673 reversed single #
loop $-1 $-1 $674 $566 #
plane-surface $-1 -32.307872946207944 -14.956592972540296 0 -1 0 0 0 0 1 forward_v I I I I #
coedge $-1 $675 $676 $677 $678 reversed $567 $-1 #
coedge $-1 $569 $576 $679 $680 reversed $410 $-1 #
coedge $-1 $681 $581 $569 $631 forward $641 $-1 #
edge $-1 $583 -1.9946950155835417 $682 8.2283954544136666 $569 $683 forward 7 unknown #
edge $-1 $571 2.0667901143279597 $642 10.729929763124497 $573 $684 forward 7 unknown #
point $-1 32.411214889575952 8.4651500530541881 8.2283954544136648 #
coedge $-1 $685 $573 $640 $686 forward $492 $-1 #
coedge $-1 $574 $687 $688 $689 forward $492 $-1 #
coedge $-1 $688 $690 $576 $637 reversed $672 $-1 #
edge $-1 $638 -8.2283954544136666 $691 8.2283954544136666 $576 $692 forward 7 unknown #
vertex $-1 $577 $693 #
straight-curve $-1 40.683614612262339 0 8.2283954544136666 0 1 0 I I #
coedge $-1 $581 $694 $634 $686 reversed $641 $-1 #
loop $-1 $-1 $581 $695 #
vertex $-1 $686 $696 #
straight-curve $-1 -4.30279293530762 17.128289701850726 35.894385295493038 0.79863550430605224 0 -0.6018150307709319 I I #
point $-1 40.683614612262339 17.128289701850726 1.9946950155835417 #
straight-curve $-1 -40.683614612262339 0 -8.2283954544136666 0 1 0 I I #
loop $-1 $-1 $652 $593 #
plane-surface $-1 -40.683614612262339 0 0 1 0 0 0 0 -1 forward_v I I I I #
coedge $-1 $603 $608 $598 $649 forward $594 $-1 #
edge $-1 $650 -9.6499932155805777 $606 -5.3065997569597183 $648 $697 forward 7 unknown #
vertex $-1 $599 $698 #
straight-curve $-1 -32.307872946207944 -17.128289701850726 0 0 0 -1 I I #
coedge $-1 $616 $699 $600 $653 forward $646 $-1 #
edge $-1 $657 -8.2283954544136666 $654 8.2283954544136666 $652 $700 forward 7 unknown #
vertex $-1 $653 $701 #
straight-curve $-1 -18.247871889617571 -12.784896243229866 8.2283954544136666 1 0 0 I I #
coedge $-1 $609 $603 $699 $702 forward $594 $-1 #
vertex $-1 $702 $703 #
straight-curve $-1 -18.247871889617571 -12.784896243229866 -8.2283954544136666 -1 0 0 I I #
point $-1 -32.307872946207944 -12.784896243229866 8.2283954544136666 #
point $-1 -32.307872946207944 -12.784896243229866 -8.2283954544136666 #
coedge $-1 $699 $616 $611 $662 forward $646 $-1 #
edge $-1 $618 -8.2283954544136666 $663 8.2283954544136666 $611 $704 forward 7 unknown #
vertex $-1 $612 $705 #
straight-curve $-1 0 17.128289701850726 -8.2283954544136666 1 0 0 I I #
plane-surface $-1 0 17.128289701850726 0 0 -1 0 0 0 -1 forward_v I I I I #
straight-curve $-1 -40.683614612262339 0 8.2283954544136666 0 -1 0 I I #
point $-1 -40.683614612262339 17.128289701850726 8.2283954544136666 #
straight-curve $-1 -32.307872946207944 -7.478296486270148 8.2283954544136666 0 -1 0 I I #
point $-1 -32.307872946207944 -17.128289701850726 8.2283954544136666 #
straight-curve $-1 0 -17.128289701850726 -8.2283954544136666 -1 0 0 I I #
face $-1 $706 $707 $19 $-1 $708 reversed single #
loop $-1 $-1 $709 $625 #
plane-surface $-1 0 -17.128289701850726 0 0 1 0 0 0 1 forward_v I I I I #
coedge $-1 $710 $711 $709 $712 reversed $626 $-1 #
coedge $-1 $713 $628 $714 $715 reversed $567 $-1 #
coedge $-1 $628 $713 $716 $717 reversed $567 $-1 #
coedge $-1 $711 $710 $628 $678 forward $626 $-1 #
edge $-1 $718 -8.2283954544136666 $719 8.2283954544136666 $677 $720 forward 7 unknown #
coedge $-1 $721 $722 $629 $680 forward $707 $-1 #
edge $-1 $682 -17.128289701850726 $691 17.128289701850726 $629 $723 forward 7 unknown #
coedge $-1 $694 $630 $722 $724 reversed $641 $-1 #
vertex $-1 $680 $725 #
straight-curve $-1 40.683614612262339 17.128289701850726 0 0 0 -1 I I #
straight-curve $-1 32.411214889575945 6.3983599387262284 8.2283954544136648 0 1 0 I I #
coedge $-1 $714 $634 $726 $727 forward $492 $-1 #
edge $-1 $642 -32.411214889575952 $728 40.683614612262339 $640 $729 forward 7 unknown #
coedge $-1 $635 $714 $710 $730 forward $492 $-1 #
coedge $-1 $709 $636 $635 $689 reversed $672 $-1 #
edge $-1 $731 -32.307872946207944 $638 40.683614612262339 $688 $732 forward 7 unknown #
coedge $-1 $636 $709 $721 $733 reversed $672 $-1 #
vertex $-1 $637 $734 #
straight-curve $-1 40.683614612262339 -17.128289701850726 0 0 0 -1 I I #
point $-1 40.683614612262339 -17.128289701850726 8.2283954544136666 #
coedge $-1 $640 $681 $735 $736 reversed $641 $-1 #
face $-1 $-1 $641 $19 $-1 $737 reversed single #
point $-1 32.411214889575952 17.128289701850726 8.2283954544136648 #
straight-curve $-1 -32.307872946207944 -7.478296486270148 -8.2283954544136666 0 1 0 I I #
point $-1 -32.307872946207944 -17.128289701850726 -8.2283954544136666 #
coedge $-1 $652 $661 $656 $702 reversed $646 $-1 #
straight-curve $-1 -40.683614612262339 -12.784896243229866 0 0 0 1 I I #
point $-1 -40.683614612262339 -12.784896243229866 8.2283954544136666 #
edge $-1 $657 -12.784896243229866 $663 17.128289701850726 $699 $738 forward 7 unknown #
point $-1 -40.683614612262339 -12.784896243229866 -8.2283954544136666 #
straight-curve $-1 -40.683614612262339 17.128289701850726 0 0 0 -1 I I #
point $-1 -40.683614612262339 17.128289701850726 -8.2283954544136666 #
face $-1 $695 $739 $19 $-1 $740 reversed single #
loop $-1 $-1 $716 $671 #
plane-surface $-1 0 0 -8.2283954544136666 0 0 1 1 0 0 forward_v I I I I #
coedge $-1 $690 $688 $674 $712 forward $672 $-1 #
coedge $-1 $677 $674 $687 $730 reversed $626 $-1 #
coedge $-1 $674 $677 $741 $742 reversed $626 $-1 #
edge $-1 $731 -8.2283954544136666 $743 8.2283954544136666 $709 $744 forward 7 unknown #
coedge $-1 $676 $675 $745 $746 reversed $567 $-1 #
coedge $-1 $687 $685 $675 $715 forward $492 $-1 #
edge $-1 $747 -22.435742722644768 $718 -14.060001056590373 $714 $748 forward 7 unknown #
coedge $-1 $749 $741 $676 $717 forward $707 $-1 #
edge $-1 $719 14.060001056590373 $750 22.435742722644768 $716 $751 forward 7 unknown #
vertex $-1 $715 $752 #
vertex $-1 $717 $753 #
straight-curve $-1 -32.307872946207944 -12.784896243229866 0 0 0 -1 I I #
coedge $-1 $741 $679 $690 $733 forward $707 $-1 #
coedge $-1 $679 $749 $681 $724 forward $707 $-1 #
straight-curve $-1 40.683614612262339 0 -8.2283954544136666 0 -1 0 I I #
edge $-1 $754 -40.683614612262339 $682 40.683614612262339 $681 $755 forward 7 unknown #
point $-1 40.683614612262339 17.128289701850726 -8.2283954544136666 #
coedge $-1 $735 $745 $685 $727 reversed $739 $-1 #
edge $-1 $728 -17.128289701850726 $747 12.784896243229866 $726 $756 forward 7 unknown #
vertex $-1 $686 $757 #
straight-curve $-1 0 17.128289701850726 8.2283954544136666 -1 0 0 I I #
edge $-1 $718 5.3065997569597183 $731 9.6499932155805777 $687 $758 forward 7 unknown #
vertex $-1 $689 $759 #
straight-curve $-1 0 -17.128289701850726 8.2283954544136666 1 0 0 I I #
edge $-1 $691 -40.683614612262339 $743 32.307872946207944 $690 $760 forward 7 unknown #
point $-1 40.683614612262339 -17.128289701850726 -8.2283954544136666 #
coedge $-1 $761 $726 $694 $736 forward $739 $-1 #
edge $-1 $728 -8.2283954544136666 $754 8.2283954544136666 $694 $762 forward 7 unknown #
plane-surface $-1 0 17.128289701850726 0 0 -1 0 0 0 -1 forward_v I I I I #
straight-curve $-1 -40.683614612262339 0 -8.2283954544136666 0 1 0 I I #
loop $-1 $-1 $745 $706 #
plane-surface $-1 -40.683614612262339 0 0 1 0 0 0 0 -1 forward_v I I I I #
coedge $-1 $716 $721 $711 $742 forward $707 $-1 #
edge $-1 $743 -9.6499932155805777 $719 -5.3065997569597183 $741 $763 forward 7 unknown #
vertex $-1 $712 $764 #
straight-curve $-1 -32.307872946207944 -17.128289701850726 0 0 0 -1 I I #
coedge $-1 $726 $761 $713 $746 forward $739 $-1 #
edge $-1 $750 -8.2283954544136666 $747 8.2283954544136666 $745 $765 forward 7 unknown #
vertex $-1 $746 $766 #
straight-curve $-1 -18.247871889617571 -12.784896243229866 8.2283954544136666 1 0 0 I I #
coedge $-1 $722 $716 $761 $767 forward $707 $-1 #
vertex $-1 $767 $768 #
straight-curve $-1 -18.247871889617571 -12.784896243229866 -8.2283954544136666 -1 0 0 I I #
point $-1 -32.307872946207944 -12.784896243229866 8.2283954544136666 #
point $-1 -32.307872946207944 -12.784896243229866 -8.2283954544136666 #
vertex $-1 $724 $769 #
straight-curve $-1 0 17.128289701850726 -8.2283954544136666 1 0 0 I I #
straight-curve $-1 -40.683614612262339 0 8.2283954544136666 0 -1 0 I I #
point $-1 -40.683614612262339 17.128289701850726 8.2283954544136666 #
straight-curve $-1 -32.307872946207944 -7.478296486270148 8.2283954544136666 0 -1 0 I I #
point $-1 -32.307872946207944 -17.128289701850726 8.2283954544136666 #
straight-curve $-1 0 -17.128289701850726 -8.2283954544136666 -1 0 0 I I #
coedge $-1 $745 $735 $749 $767 reversed $739 $-1 #
straight-curve $-1 -40.683614612262339 17.128289701850726 0 0 0 -1 I I #
straight-curve $-1 -32.307872946207944 -7.478296486270148 -8.2283954544136666 0 1 0 I I #
point $-1 -32.307872946207944 -17.128289701850726 -8.2283954544136666 #
straight-curve $-1 -40.683614612262339 -12.784896243229866 0 0 0 1 I I #
point $-1 -40.683614612262339 -12.784896243229866 8.2283954544136666 #
edge $-1 $750 -12.784896243229866 $754 17.128289701850726 $761 $770 forward 7 unknown #
point $-1 -40.683614612262339 -12.784896243229866 -8.2283954544136666 #
point $-1 -40.683614612262339 17.128289701850726 -8.2283954544136666 #
straight-curve $-1 -40.683614612262339 0 -8.2283954544136666 0 1 0 I I #
End-of-ACIS-data 