500 0 15 0           
7 Unknown 11 ACIS 5.0 NT 24 Thu Mar 25 17:48:40 1999 
-1 9.9999999999999995e-007 1e-010 
body $-1 $15 $-1 $16 #
body $-1 $17 $-1 $18 #
body $-1 $19 $-1 $20 #
body $-1 $21 $-1 $22 #
body $-1 $23 $-1 $24 #
body $-1 $25 $-1 $26 #
body $-1 $27 $-1 $28 #
body $-1 $29 $-1 $30 #
body $-1 $31 $-1 $32 #
body $-1 $33 $-1 $34 #
body $-1 $35 $-1 $36 #
body $-1 $37 $-1 $38 #
body $-1 $39 $-1 $40 #
body $-1 $41 $-1 $42 #
body $-1 $43 $-1 $44 #
lump $-1 $-1 $45 $0 #
transform $-1 1 0 0 0 1 0 0 0 1 55.741447187719352 23.376976626145833 8.4326769622907545 1 rotate no_reflect no_shear #
lump $-1 $-1 $46 $1 #
transform $-1 1 0 0 0 1 0 0 0 1 55.741447187719352 23.376976626145833 8.4326769622907545 1 rotate no_reflect no_shear #
lump $-1 $-1 $47 $2 #
transform $-1 1 0 0 0 1 0 0 0 1 55.741447187719352 23.376976626145833 8.4326769622907545 1 rotate no_reflect no_shear #
lump $-1 $-1 $48 $3 #
transform $-1 1 0 0 0 1 0 0 0 1 55.741447187719352 23.376976626145833 8.4326769622907545 1 rotate no_reflect no_shear #
lump $-1 $-1 $49 $4 #
transform $-1 1 0 0 0 1 0 0 0 1 55.741447187719352 23.376976626145833 8.4326769622907545 1 rotate no_reflect no_shear #
lump $-1 $-1 $50 $5 #
transform $-1 1 0 0 0 1 0 0 0 1 55.741447187719352 23.376976626145833 8.4326769622907545 1 rotate no_reflect no_shear #
lump $-1 $-1 $51 $6 #
transform $-1 1 0 0 0 1 0 0 0 1 55.741447187719352 23.376976626145833 8.4326769622907545 1 rotate no_reflect no_shear #
lump $-1 $-1 $52 $7 #
transform $-1 1 0 0 0 1 0 0 0 1 55.741447187719352 23.376976626145833 8.4326769622907545 1 rotate no_reflect no_shear #
lump $-1 $-1 $53 $8 #
transform $-1 1 0 0 0 1 0 0 0 1 55.741447187719352 23.376976626145833 8.4326769622907545 1 rotate no_reflect no_shear #
lump $-1 $-1 $54 $9 #
transform $-1 1 0 0 0 1 0 0 0 1 55.741447187719352 23.376976626145833 8.4326769622907545 1 rotate no_reflect no_shear #
lump $-1 $-1 $55 $10 #
transform $-1 1 0 0 0 1 0 0 0 1 55.741447187719352 23.376976626145833 8.4326769622907545 1 rotate no_reflect no_shear #
lump $-1 $-1 $56 $11 #
transform $-1 1 0 0 0 1 0 0 0 1 55.741447187719352 23.376976626145833 8.4326769622907545 1 rotate no_reflect no_shear #
lump $-1 $-1 $57 $12 #
transform $-1 1 0 0 0 1 0 0 0 1 55.741447187719352 23.376976626145833 8.4326769622907545 1 rotate no_reflect no_shear #
lump $-1 $-1 $58 $13 #
transform $-1 1 0 0 0 1 0 0 0 1 55.741447187719352 23.376976626145833 8.4326769622907545 1 rotate no_reflect no_shear #
lump $-1 $-1 $59 $14 #
transform $-1 1 0 0 0 1 0 0 0 1 55.741447187719352 23.376976626145833 8.4326769622907545 1 rotate no_reflect no_shear #
shell $-1 $-1 $-1 $60 $-1 $15 #
shell $-1 $-1 $-1 $61 $-1 $17 #
shell $-1 $-1 $-1 $62 $-1 $19 #
shell $-1 $-1 $-1 $63 $-1 $21 #
shell $-1 $-1 $-1 $64 $-1 $23 #
shell $-1 $-1 $-1 $65 $-1 $25 #
shell $-1 $-1 $-1 $66 $-1 $27 #
shell $-1 $-1 $-1 $67 $-1 $29 #
shell $-1 $-1 $-1 $68 $-1 $31 #
shell $-1 $-1 $-1 $69 $-1 $33 #
shell $-1 $-1 $-1 $70 $-1 $35 #
shell $-1 $-1 $-1 $71 $-1 $37 #
shell $-1 $-1 $-1 $72 $-1 $39 #
shell $-1 $-1 $-1 $73 $-1 $41 #
shell $-1 $-1 $-1 $74 $-1 $43 #
face $-1 $75 $76 $45 $-1 $77 forward single #
face $-1 $78 $79 $46 $-1 $80 reversed single #
face $-1 $81 $82 $47 $-1 $83 reversed single #
face $-1 $84 $85 $48 $-1 $86 reversed single #
face $-1 $87 $88 $49 $-1 $89 forward single #
face $-1 $90 $91 $50 $-1 $92 forward single #
face $-1 $93 $94 $51 $-1 $95 forward single #
face $-1 $96 $97 $52 $-1 $98 reversed single #
face $-1 $99 $100 $53 $-1 $101 forward single #
face $-1 $102 $103 $54 $-1 $104 forward single #
face $-1 $105 $106 $55 $-1 $107 forward single #
face $-1 $108 $109 $56 $-1 $110 reversed single #
face $-1 $111 $112 $57 $-1 $113 forward single #
face $-1 $114 $115 $58 $-1 $116 reversed single #
face $-1 $117 $118 $59 $-1 $119 forward single #
face $-1 $120 $121 $45 $-1 $122 reversed single #
loop $-1 $-1 $123 $60 #
plane-surface $-1 0 0 8.4326769622907545 0 0 1 1 0 0 forward_v I I I I #
face $-1 $124 $125 $46 $-1 $126 reversed single #
loop $-1 $-1 $127 $61 #
plane-surface $-1 -50.797456725097824 -18.67992897730543 0 0 -1 0 0 0 -1 forward_v I I I I #
face $-1 $128 $129 $47 $-1 $130 reversed single #
loop $-1 $-1 $131 $62 #
plane-surface $-1 45.853466262476296 -21.028452801725631 0 1 0 0 0 0 -1 forward_v I I I I #
face $-1 $132 $133 $48 $-1 $134 reversed single #
loop $-1 $-1 $135 $63 #
plane-surface $-1 -3.5527136788005009e-015 -113.56853367033339 65.676222640817954 -1 0 0 0 -0.80901700255871778 0.5877852410284794 forward_v I I I I #
face $-1 $136 $137 $49 $-1 $138 forward single #
loop $-1 $139 $140 $64 #
cone-surface $-1 -13.667683060608404 -19.397661960399134 3.5858412194847373 0 0.80901700255871778 -0.5877852410284794 1 0 0 1 I I 0 1 1 forward I I I I #
face $-1 $141 $142 $50 $-1 $143 forward single #
loop $-1 $144 $145 $65 #
cone-surface $-1 -8.5423019128802551 -19.397661960399134 3.5858412194847373 0 0.80901700255871778 -0.5877852410284794 1 0 0 1 I I 0 1 1 forward I I I I #
face $-1 $146 $147 $51 $-1 $148 forward single #
loop $-1 $149 $150 $66 #
cone-surface $-1 -3.4169207651521063 -19.397661960399134 3.5858412194847373 0 0.80901700255871778 -0.5877852410284794 1 0 0 1 I I 0 1 1 forward I I I I #
face $-1 $151 $152 $52 $-1 $153 reversed single #
loop $-1 $-1 $154 $67 #
plane-surface $-1 17.084603825760492 -113.56853367033339 65.676222640817954 -1 0 0 0 -0.80901700255871778 0.5877852410284794 forward_v I I I I #
face $-1 $155 $156 $53 $-1 $157 forward single #
loop $-1 $158 $159 $68 #
cone-surface $-1 3.4169207651520921 -19.397661960399134 3.5858412194847373 0 0.80901700255871778 -0.5877852410284794 1 0 0 1 I I 0 1 1 forward I I I I #
face $-1 $160 $161 $54 $-1 $162 forward single #
loop $-1 $163 $164 $69 #
cone-surface $-1 8.5423019128802409 -19.397661960399134 3.5858412194847373 0 0.80901700255871778 -0.5877852410284794 1 0 0 1 I I 0 1 1 forward I I I I #
face $-1 $165 $166 $55 $-1 $167 forward single #
loop $-1 $168 $169 $70 #
cone-surface $-1 13.66768306060839 -19.397661960399134 3.5858412194847373 0 0.80901700255871778 -0.5877852410284794 1 0 0 1 I I 0 1 1 forward I I I I #
face $-1 $170 $171 $56 $-1 $172 reversed single #
loop $-1 $-1 $173 $71 #
plane-surface $-1 -14.926267118608038 49.022342577008786 121.81379889518298 1 0 0 0 -0.57357644374324357 -0.81915203911291934 forward_v I I I I #
face $-1 $174 $175 $57 $-1 $176 forward single #
loop $-1 $177 $178 $72 #
cone-surface $-1 -9.4752643679069095 19.118788589305979 4.8242066552806415 0 -0.57357644374324357 -0.81915203911291934 1 0 0 1 I I 0 1 1 forward I I I I #
face $-1 $179 $180 $58 $-1 $181 reversed single #
loop $-1 $-1 $182 $73 #
plane-surface $-1 4.0242616172057808 49.022342577008786 121.81379889518298 1 0 0 0 -0.57357644374324357 -0.81915203911291934 forward_v I I I I #
face $-1 $183 $184 $59 $-1 $185 forward single #
loop $-1 $186 $187 $74 #
cone-surface $-1 9.4752643679069095 19.118788589305979 4.8242066552806415 0 -0.57357644374324357 -0.81915203911291934 1 0 0 1 I I 0 1 1 forward I I I I #
face $-1 $188 $189 $45 $-1 $190 reversed single #
loop $-1 $-1 $191 $75 #
plane-surface $-1 0 0 -8.4326769622907545 0 0 1 1 0 0 forward_v I I I I #
coedge $-1 $192 $193 $194 $195 forward $76 $-1 #
face $-1 $196 $197 $46 $-1 $198 forward single #
loop $-1 $-1 $199 $78 #
plane-surface $-1 -45.853466262476296 -21.028452801725631 0 -1 0 0 0 0 1 forward_v I I I I #
coedge $-1 $200 $201 $202 $203 forward $79 $-1 #
face $-1 $204 $205 $47 $-1 $206 forward single #
loop $-1 $-1 $207 $81 #
plane-surface $-1 50.797456725097824 -18.67992897730543 0 0 -1 0 0 0 -1 forward_v I I I I #
coedge $-1 $208 $209 $210 $211 forward $82 $-1 #
face $-1 $212 $213 $48 $-1 $214 reversed single #
loop $-1 $-1 $215 $84 #
plane-surface $-1 -8.5423019128802551 -23.376976626145833 0.14822269979821101 0 -0.80901700255871778 0.5877852410284794 1 0 0 forward_v I I I I #
coedge $-1 $216 $217 $218 $219 reversed $85 $-1 #
face $-1 $-1 $220 $49 $-1 $221 forward single #
loop $-1 $222 $223 $87 #
cone-surface $-1 -13.667683060608404 -18.023342876765419 2.5873399874107523 0 0.80901700255871778 -0.5877852410284794 0.5 0 0 1 I I -0.70710678118654746 0.70710678118654746 0.5 forward I I I I #
loop $-1 $-1 $224 $64 #
coedge $-1 $140 $140 $225 $226 reversed $88 $-1 #
face $-1 $-1 $227 $50 $-1 $228 forward single #
loop $-1 $229 $230 $90 #
cone-surface $-1 -8.5423019128802551 -18.023342876765419 2.5873399874107523 0 0.80901700255871778 -0.5877852410284794 0.5 0 0 1 I I -0.70710678118654746 0.70710678118654746 0.5 forward I I I I #
loop $-1 $-1 $231 $65 #
coedge $-1 $145 $145 $232 $233 reversed $91 $-1 #
face $-1 $-1 $234 $51 $-1 $235 forward single #
loop $-1 $236 $237 $93 #
cone-surface $-1 -3.4169207651521063 -18.023342876765419 2.5873399874107523 0 0.80901700255871778 -0.5877852410284794 0.5 0 0 1 I I -0.70710678118654746 0.70710678118654746 0.5 forward I I I I #
loop $-1 $-1 $238 $66 #
coedge $-1 $150 $150 $239 $240 reversed $94 $-1 #
face $-1 $241 $242 $52 $-1 $243 reversed single #
loop $-1 $-1 $244 $96 #
plane-surface $-1 -8.5423019128802551 -23.376976626145833 0.14822269979821101 0 -0.80901700255871778 0.5877852410284794 1 0 0 forward_v I I I I #
coedge $-1 $245 $246 $247 $248 reversed $97 $-1 #
face $-1 $-1 $249 $53 $-1 $250 forward single #
loop $-1 $251 $252 $99 #
cone-surface $-1 3.4169207651520921 -18.023342876765419 2.5873399874107523 0 0.80901700255871778 -0.5877852410284794 0.5 0 0 1 I I -0.70710678118654746 0.70710678118654746 0.5 forward I I I I #
loop $-1 $-1 $253 $68 #
coedge $-1 $159 $159 $254 $255 reversed $100 $-1 #
face $-1 $-1 $256 $54 $-1 $257 forward single #
loop $-1 $258 $259 $102 #
cone-surface $-1 8.5423019128802409 -18.023342876765419 2.5873399874107523 0 0.80901700255871778 -0.5877852410284794 0.5 0 0 1 I I -0.70710678118654746 0.70710678118654746 0.5 forward I I I I #
loop $-1 $-1 $260 $69 #
coedge $-1 $164 $164 $261 $262 reversed $103 $-1 #
face $-1 $-1 $263 $55 $-1 $264 forward single #
loop $-1 $265 $266 $105 #
cone-surface $-1 13.66768306060839 -18.023342876765419 2.5873399874107523 0 0.80901700255871778 -0.5877852410284794 0.5 0 0 1 I I -0.70710678118654746 0.70710678118654746 0.5 forward I I I I #
loop $-1 $-1 $267 $70 #
coedge $-1 $169 $169 $268 $269 reversed $106 $-1 #
face $-1 $270 $271 $56 $-1 $272 reversed single #
loop $-1 $-1 $273 $108 #
plane-surface $-1 -9.4752643679069095 -14.921619517059 30.49235864133216 0 0.57357644374324357 0.81915203911291934 1 0 0 forward_v I I I I #
coedge $-1 $274 $275 $276 $277 reversed $109 $-1 #
face $-1 $-1 $278 $57 $-1 $279 forward single #
loop $-1 $280 $281 $111 #
cone-surface $-1 -9.4752643679069095 17.970865495101613 3.1848026078870131 0 -0.57357644374324357 -0.81915203911291934 0.5 0 0 1 I I -0.70710678118654746 0.70710678118654746 0.5 forward I I I I #
loop $-1 $-1 $282 $72 #
coedge $-1 $178 $178 $283 $284 reversed $112 $-1 #
face $-1 $285 $286 $58 $-1 $287 reversed single #
loop $-1 $-1 $288 $114 #
plane-surface $-1 9.4752643679069095 -14.921619517059 30.49235864133216 0 0.57357644374324357 0.81915203911291934 1 0 0 forward_v I I I I #
coedge $-1 $289 $290 $291 $292 reversed $115 $-1 #
face $-1 $-1 $293 $59 $-1 $294 forward single #
loop $-1 $295 $296 $117 #
cone-surface $-1 9.4752643679069095 17.970865495101613 3.1848026078870131 0 -0.57357644374324357 -0.81915203911291934 0.5 0 0 1 I I -0.70710678118654746 0.70710678118654746 0.5 forward I I I I #
loop $-1 $-1 $297 $74 #
coedge $-1 $187 $187 $298 $299 reversed $118 $-1 #
face $-1 $300 $301 $45 $-1 $302 reversed single #
loop $-1 $-1 $303 $120 #
plane-surface $-1 0 -23.376976626145833 0 0 1 0 0 0 1 forward_v I I I I #
coedge $-1 $304 $305 $306 $307 forward $121 $-1 #
coedge $-1 $308 $123 $309 $310 forward $76 $-1 #
coedge $-1 $123 $308 $311 $312 forward $76 $-1 #
coedge $-1 $313 $314 $123 $195 reversed $315 $-1 #
edge $-1 $316 -23.376976626145833 $317 23.376976626145833 $194 $318 forward 7 unknown #
face $-1 $319 $320 $46 $-1 $321 reversed single #
loop $-1 $-1 $322 $124 #
plane-surface $-1 0 0 8.4326769622907545 0 0 1 1 0 0 forward_v I I I I #
coedge $-1 $323 $324 $325 $326 reversed $125 $-1 #
coedge $-1 $327 $127 $328 $329 reversed $79 $-1 #
coedge $-1 $127 $327 $330 $331 reversed $79 $-1 #
coedge $-1 $324 $323 $127 $203 reversed $125 $-1 #
edge $-1 $332 -8.4326769622907545 $333 8.4326769622907545 $202 $334 forward 7 unknown #
face $-1 $335 $336 $47 $-1 $337 reversed single #
loop $-1 $-1 $338 $128 #
plane-surface $-1 0 0 8.4326769622907545 0 0 1 1 0 0 forward_v I I I I #
coedge $-1 $339 $340 $341 $342 reversed $129 $-1 #
coedge $-1 $343 $131 $344 $345 reversed $82 $-1 #
coedge $-1 $131 $343 $346 $347 reversed $82 $-1 #
coedge $-1 $340 $339 $131 $211 reversed $129 $-1 #
edge $-1 $348 -8.4326769622907545 $349 8.4326769622907545 $210 $350 forward 7 unknown #
face $-1 $351 $352 $48 $-1 $353 forward single #
loop $-1 $-1 $354 $132 #
plane-surface $-1 -17.084603825760507 -113.56853367033339 65.676222640817954 1 0 0 0 0.80901700255871778 -0.5877852410284794 forward_v I I I I #
coedge $-1 $355 $356 $357 $358 reversed $133 $-1 #
coedge $-1 $217 $135 $359 $360 reversed $85 $-1 #
coedge $-1 $135 $216 $355 $361 reversed $85 $-1 #
coedge $-1 $357 $362 $135 $219 forward $352 $-1 #
edge $-1 $363 33.407290209020864 $364 39.426298375805558 $218 $365 forward 7 unknown #
loop $-1 $-1 $225 $136 #
plane-surface $-1 -8.5423019128802551 -23.376976626145833 0.14822269979821101 0 -0.80901700255871778 0.5877852410284794 1 0 0 forward_v I I I I #
loop $-1 $-1 $366 $87 #
coedge $-1 $223 $223 $224 $367 reversed $137 $-1 #
coedge $-1 $224 $224 $223 $367 forward $139 $-1 #
coedge $-1 $225 $225 $140 $226 forward $220 $-1 #
edge $-1 $368 0 $368 6.2831853071796004 $225 $369 forward 7 unknown #
loop $-1 $-1 $232 $141 #
plane-surface $-1 -8.5423019128802551 -23.376976626145833 0.14822269979821101 0 -0.80901700255871778 0.5877852410284794 1 0 0 forward_v I I I I #
loop $-1 $-1 $370 $90 #
coedge $-1 $230 $230 $231 $371 reversed $142 $-1 #
coedge $-1 $231 $231 $230 $371 forward $144 $-1 #
coedge $-1 $232 $232 $145 $233 forward $227 $-1 #
edge $-1 $372 0 $372 6.2831853071796004 $232 $373 forward 7 unknown #
loop $-1 $-1 $239 $146 #
plane-surface $-1 -8.5423019128802551 -23.376976626145833 0.14822269979821101 0 -0.80901700255871778 0.5877852410284794 1 0 0 forward_v I I I I #
loop $-1 $-1 $374 $93 #
coedge $-1 $237 $237 $238 $375 reversed $147 $-1 #
coedge $-1 $238 $238 $237 $375 forward $149 $-1 #
coedge $-1 $239 $239 $150 $240 forward $234 $-1 #
edge $-1 $376 0 $376 6.2831853071796004 $239 $377 forward 7 unknown #
face $-1 $378 $379 $52 $-1 $380 forward single #
loop $-1 $-1 $381 $151 #
plane-surface $-1 0 -23.376976626145833 0 0 1 0 0 0 1 forward_v I I I I #
coedge $-1 $382 $383 $384 $385 reversed $152 $-1 #
coedge $-1 $246 $154 $386 $387 reversed $97 $-1 #
coedge $-1 $154 $245 $388 $389 reversed $97 $-1 #
coedge $-1 $390 $381 $154 $248 forward $242 $-1 #
edge $-1 $391 -32.689888620610766 $392 -24.405434358118221 $247 $393 forward 7 unknown #
loop $-1 $-1 $254 $155 #
plane-surface $-1 -8.5423019128802551 -23.376976626145833 0.14822269979821101 0 -0.80901700255871778 0.5877852410284794 1 0 0 forward_v I I I I #
loop $-1 $-1 $394 $99 #
coedge $-1 $252 $252 $253 $395 reversed $156 $-1 #
coedge $-1 $253 $253 $252 $395 forward $158 $-1 #
coedge $-1 $254 $254 $159 $255 forward $249 $-1 #
edge $-1 $396 0 $396 6.2831853071796004 $254 $397 forward 7 unknown #
loop $-1 $-1 $261 $160 #
plane-surface $-1 -8.5423019128802551 -23.376976626145833 0.14822269979821101 0 -0.80901700255871778 0.5877852410284794 1 0 0 forward_v I I I I #
loop $-1 $-1 $398 $102 #
coedge $-1 $259 $259 $260 $399 reversed $161 $-1 #
coedge $-1 $260 $260 $259 $399 forward $163 $-1 #
coedge $-1 $261 $261 $164 $262 forward $256 $-1 #
edge $-1 $400 0 $400 6.2831853071796004 $261 $401 forward 7 unknown #
loop $-1 $-1 $268 $165 #
plane-surface $-1 -8.5423019128802551 -23.376976626145833 0.14822269979821101 0 -0.80901700255871778 0.5877852410284794 1 0 0 forward_v I I I I #
loop $-1 $-1 $402 $105 #
coedge $-1 $266 $266 $267 $403 reversed $166 $-1 #
coedge $-1 $267 $267 $266 $403 forward $168 $-1 #
coedge $-1 $268 $268 $169 $269 forward $263 $-1 #
edge $-1 $404 0 $404 6.2831853071796004 $268 $405 forward 7 unknown #
face $-1 $406 $407 $56 $-1 $408 reversed single #
loop $-1 $-1 $409 $170 #
plane-surface $-1 -4.0242616172057808 49.022342577008786 121.81379889518298 -1 0 0 0 0.57357644374324357 0.81915203911291934 forward_v I I I I #
coedge $-1 $410 $411 $412 $413 reversed $171 $-1 #
coedge $-1 $275 $173 $414 $415 reversed $109 $-1 #
coedge $-1 $173 $274 $410 $416 reversed $109 $-1 #
coedge $-1 $412 $417 $173 $277 forward $418 $-1 #
edge $-1 $419 1.1341946623585599 $420 7.9283009913728115 $276 $421 forward 7 unknown #
loop $-1 $-1 $283 $174 #
plane-surface $-1 -9.4752643679069095 -14.921619517059 30.49235864133216 0 0.57357644374324357 0.81915203911291934 1 0 0 forward_v I I I I #
loop $-1 $-1 $422 $111 #
coedge $-1 $281 $281 $282 $423 reversed $175 $-1 #
coedge $-1 $282 $282 $281 $423 forward $177 $-1 #
coedge $-1 $283 $283 $178 $284 forward $278 $-1 #
edge $-1 $424 -1.3117097625877034e-015 $424 6.2831853071795996 $283 $425 forward 7 unknown #
face $-1 $426 $427 $58 $-1 $428 forward single #
loop $-1 $-1 $429 $179 #
plane-surface $-1 14.926267118608038 49.022342577008786 121.81379889518298 -1 0 0 0 0.57357644374324357 0.81915203911291934 forward_v I I I I #
coedge $-1 $430 $431 $432 $433 reversed $180 $-1 #
coedge $-1 $290 $182 $434 $435 reversed $115 $-1 #
coedge $-1 $182 $289 $430 $436 reversed $115 $-1 #
coedge $-1 $432 $437 $182 $292 forward $427 $-1 #
edge $-1 $438 1.1341946623585599 $439 7.9283009913728115 $291 $440 forward 7 unknown #
loop $-1 $-1 $298 $183 #
plane-surface $-1 9.4752643679069095 -14.921619517059 30.49235864133216 0 0.57357644374324357 0.81915203911291934 1 0 0 forward_v I I I I #
loop $-1 $-1 $441 $117 #
coedge $-1 $296 $296 $297 $442 reversed $184 $-1 #
coedge $-1 $297 $297 $296 $442 forward $186 $-1 #
coedge $-1 $298 $298 $187 $299 forward $293 $-1 #
edge $-1 $443 -1.3117097625877034e-015 $443 6.2831853071795996 $298 $444 forward 7 unknown #
face $-1 $445 $446 $45 $-1 $447 reversed single #
loop $-1 $-1 $448 $188 #
plane-surface $-1 -55.741447187719352 0 0 1 0 0 0 0 -1 forward_v I I I I #
coedge $-1 $449 $311 $450 $451 forward $189 $-1 #
coedge $-1 $452 $191 $449 $453 forward $121 $-1 #
coedge $-1 $191 $452 $454 $455 forward $121 $-1 #
coedge $-1 $314 $313 $191 $307 reversed $315 $-1 #
edge $-1 $456 -23.376976626145833 $457 23.376976626145833 $306 $458 forward 7 unknown #
coedge $-1 $193 $192 $459 $460 forward $76 $-1 #
coedge $-1 $461 $462 $192 $310 reversed $446 $-1 #
edge $-1 $317 -55.741447187719352 $463 55.741447187719352 $309 $464 forward 7 unknown #
coedge $-1 $303 $465 $193 $312 reversed $189 $-1 #
edge $-1 $466 -55.741447187719352 $316 55.741447187719352 $311 $467 forward 7 unknown #
coedge $-1 $306 $194 $465 $468 forward $315 $-1 #
coedge $-1 $194 $306 $461 $469 reversed $315 $-1 #
loop $-1 $-1 $313 $445 #
vertex $-1 $195 $470 #
vertex $-1 $195 $471 #
straight-curve $-1 55.741447187719352 0 8.4326769622907545 0 1 0 I I #
face $-1 $472 $473 $46 $-1 $474 reversed single #
loop $-1 $-1 $475 $196 #
plane-surface $-1 -55.741447187719352 0 0 1 0 0 0 0 -1 forward_v I I I I #
coedge $-1 $330 $476 $324 $477 forward $197 $-1 #
coedge $-1 $202 $199 $478 $479 reversed $125 $-1 #
coedge $-1 $199 $202 $322 $477 reversed $125 $-1 #
coedge $-1 $480 $481 $199 $326 forward $482 $-1 #
edge $-1 $483 -8.4326769622907545 $484 8.4326769622907545 $325 $485 forward 7 unknown #
coedge $-1 $201 $200 $475 $486 reversed $79 $-1 #
coedge $-1 $478 $487 $200 $329 forward $473 $-1 #
edge $-1 $488 -30.34271882517044 $333 -20.454737899927384 $328 $489 forward 7 unknown #
coedge $-1 $490 $322 $201 $331 forward $197 $-1 #
edge $-1 $332 20.454737899927384 $491 30.34271882517044 $330 $492 forward 7 unknown #
vertex $-1 $331 $493 #
vertex $-1 $329 $494 #
straight-curve $-1 -45.853466262476296 -18.67992897730543 0 0 0 -1 I I #
face $-1 $495 $496 $47 $-1 $497 reversed single #
loop $-1 $-1 $498 $204 #
plane-surface $-1 0 -23.376976626145833 0 0 1 0 0 0 1 forward_v I I I I #
coedge $-1 $346 $499 $340 $500 forward $205 $-1 #
coedge $-1 $210 $207 $501 $502 reversed $129 $-1 #
coedge $-1 $207 $210 $338 $500 reversed $129 $-1 #
coedge $-1 $503 $504 $207 $342 forward $505 $-1 #
edge $-1 $506 -8.4326769622907545 $507 8.4326769622907545 $341 $508 forward 7 unknown #
coedge $-1 $209 $208 $498 $509 reversed $82 $-1 #
coedge $-1 $501 $510 $208 $345 forward $496 $-1 #
edge $-1 $511 -12.862750225283017 $349 -8.1657025764426141 $344 $512 forward 7 unknown #
coedge $-1 $513 $338 $209 $347 forward $205 $-1 #
edge $-1 $348 8.1657025764426141 $514 12.862750225283017 $346 $515 forward 7 unknown #
vertex $-1 $347 $516 #
vertex $-1 $345 $517 #
straight-curve $-1 45.853466262476296 -18.67992897730543 0 0 0 -1 I I #
face $-1 $-1 $518 $48 $-1 $519 reversed single #
loop $-1 $-1 $218 $212 #
plane-surface $-1 0 0 8.4326769622907545 0 0 1 1 0 0 forward_v I I I I #
coedge $-1 $520 $521 $522 $523 reversed $213 $-1 #
coedge $-1 $524 $215 $217 $361 forward $133 $-1 #
coedge $-1 $215 $524 $520 $525 forward $133 $-1 #
coedge $-1 $522 $218 $215 $358 forward $352 $-1 #
edge $-1 $364 -4.271150956440124 $526 12.813452869320379 $357 $527 forward 7 unknown #
coedge $-1 $528 $529 $216 $360 forward $518 $-1 #
edge $-1 $530 -32.689888620610766 $363 -24.405434358118221 $359 $531 forward 7 unknown #
edge $-1 $364 -10.240148521342435 $530 0 $217 $532 forward 7 unknown #
coedge $-1 $218 $522 $528 $533 forward $352 $-1 #
vertex $-1 $360 $534 #
vertex $-1 $219 $535 #
straight-curve $-1 -3.5527136788005009e-015 -56.784266835166697 8.4326769622907563 0 1 0 I I #
coedge $-1 $366 $366 $-1 $536 reversed $222 $-1 #
edge $-1 $537 0 $537 6.2831853071796004 $223 $538 forward 7 unknown #
vertex $-1 $226 $539 #
ellipse-curve $-1 -13.667683060608404 -20.36747254275349 4.2904498310444819 0 -0.80901700255871778 0.5877852410284794 1 0 0 1 I I #
coedge $-1 $370 $370 $-1 $540 reversed $229 $-1 #
edge $-1 $541 0 $541 6.2831853071796004 $230 $542 forward 7 unknown #
vertex $-1 $233 $543 #
ellipse-curve $-1 -8.5423019128802551 -20.36747254275349 4.2904498310444819 0 -0.80901700255871778 0.5877852410284794 1 0 0 1 I I #
coedge $-1 $374 $374 $-1 $544 reversed $236 $-1 #
edge $-1 $545 0 $545 6.2831853071796004 $237 $546 forward 7 unknown #
vertex $-1 $240 $547 #
ellipse-curve $-1 -3.4169207651521063 -20.36747254275349 4.2904498310444819 0 -0.80901700255871778 0.5877852410284794 1 0 0 1 I I #
face $-1 $-1 $548 $52 $-1 $549 forward single #
loop $-1 $-1 $550 $241 #
plane-surface $-1 -3.5527136788005009e-015 -113.56853367033339 65.676222640817954 -1 0 0 0 -0.80901700255871778 0.5877852410284794 forward_v I I I I #
coedge $-1 $247 $551 $383 $552 forward $242 $-1 #
coedge $-1 $386 $244 $553 $554 reversed $152 $-1 #
coedge $-1 $244 $386 $381 $552 reversed $152 $-1 #
coedge $-1 $555 $550 $244 $385 forward $379 $-1 #
edge $-1 $556 -10.240148521342435 $557 0 $384 $558 forward 7 unknown #
coedge $-1 $383 $382 $245 $387 forward $152 $-1 #
edge $-1 $559 -10.240148521342435 $391 0 $245 $560 forward 7 unknown #
coedge $-1 $553 $561 $246 $389 forward $548 $-1 #
edge $-1 $392 33.407290209020864 $559 39.426298375805558 $388 $562 forward 7 unknown #
coedge $-1 $551 $247 $561 $563 reversed $242 $-1 #
vertex $-1 $248 $564 #
vertex $-1 $248 $565 #
straight-curve $-1 17.084603825760492 -23.376976626145833 32.838111320408977 0 0 1 I I #
coedge $-1 $394 $394 $-1 $566 reversed $251 $-1 #
edge $-1 $567 0 $567 6.2831853071796004 $252 $568 forward 7 unknown #
vertex $-1 $255 $569 #
ellipse-curve $-1 3.4169207651520921 -20.36747254275349 4.2904498310444819 0 -0.80901700255871778 0.5877852410284794 1 0 0 1 I I #
coedge $-1 $398 $398 $-1 $570 reversed $258 $-1 #
edge $-1 $571 0 $571 6.2831853071796004 $259 $572 forward 7 unknown #
vertex $-1 $262 $573 #
ellipse-curve $-1 8.5423019128802409 -20.36747254275349 4.2904498310444819 0 -0.80901700255871778 0.5877852410284794 1 0 0 1 I I #
coedge $-1 $402 $402 $-1 $574 reversed $265 $-1 #
edge $-1 $575 0 $575 6.2831853071796004 $266 $576 forward 7 unknown #
vertex $-1 $269 $577 #
ellipse-curve $-1 13.66768306060839 -20.36747254275349 4.2904498310444819 0 -0.80901700255871778 0.5877852410284794 1 0 0 1 I I #
face $-1 $-1 $418 $56 $-1 $578 forward single #
loop $-1 $-1 $579 $270 #
plane-surface $-1 0 23.376976626145833 0 0 -1 0 0 0 -1 forward_v I I I I #
coedge $-1 $580 $581 $582 $583 reversed $271 $-1 #
coedge $-1 $584 $273 $275 $416 forward $171 $-1 #
coedge $-1 $273 $584 $580 $585 forward $171 $-1 #
coedge $-1 $582 $276 $273 $413 forward $418 $-1 #
edge $-1 $420 -10.188634934654583 $586 0.71337056674767396 $412 $587 forward 7 unknown #
coedge $-1 $588 $589 $274 $415 forward $407 $-1 #
edge $-1 $590 -57.231507043646644 $419 -52.474222485300736 $414 $591 forward 7 unknown #
edge $-1 $420 38.459880840078966 $590 46.75395325229168 $275 $592 forward 7 unknown #
coedge $-1 $276 $582 $588 $593 forward $418 $-1 #
loop $-1 $-1 $582 $406 #
vertex $-1 $415 $594 #
vertex $-1 $277 $595 #
straight-curve $-1 -14.926267118608038 24.511171288504393 8.4326769622907563 0 -1 0 I I #
coedge $-1 $422 $422 $-1 $596 reversed $280 $-1 #
edge $-1 $597 0 $597 6.2831853071796004 $281 $598 forward 7 unknown #
vertex $-1 $284 $599 #
ellipse-curve $-1 -9.4752643679069095 19.979923461638712 6.0540346831177985 0 0.57357644374324357 0.81915203911291934 1 0 0 1 I I #
face $-1 $-1 $600 $58 $-1 $601 reversed single #
loop $-1 $-1 $291 $285 #
plane-surface $-1 0 0 8.4326769622907545 0 0 1 1 0 0 forward_v I I I I #
coedge $-1 $602 $603 $604 $605 reversed $286 $-1 #
coedge $-1 $606 $288 $290 $436 forward $180 $-1 #
coedge $-1 $288 $606 $602 $607 forward $180 $-1 #
coedge $-1 $604 $291 $288 $433 forward $427 $-1 #
edge $-1 $439 -0.71337056674767396 $608 10.188634934654583 $432 $609 forward 7 unknown #
coedge $-1 $610 $611 $289 $435 forward $600 $-1 #
edge $-1 $612 -57.231507043646644 $438 -52.474222485300736 $434 $613 forward 7 unknown #
edge $-1 $439 38.459880840078966 $612 46.75395325229168 $290 $614 forward 7 unknown #
coedge $-1 $291 $604 $610 $615 forward $427 $-1 #
vertex $-1 $292 $616 #
vertex $-1 $292 $617 #
straight-curve $-1 4.0242616172057808 24.511171288504393 8.4326769622907563 0 -1 0 I I #
coedge $-1 $441 $441 $-1 $618 reversed $295 $-1 #
edge $-1 $619 0 $619 6.2831853071796004 $296 $620 forward 7 unknown #
vertex $-1 $299 $621 #
ellipse-curve $-1 9.4752643679069095 19.979923461638712 6.0540346831177985 0 0.57357644374324357 0.81915203911291934 1 0 0 1 I I #
face $-1 $-1 $315 $45 $-1 $622 reversed single #
loop $-1 $-1 $461 $300 #
plane-surface $-1 0 23.376976626145833 0 0 -1 0 0 0 -1 forward_v I I I I #
coedge $-1 $623 $459 $462 $624 forward $301 $-1 #
coedge $-1 $465 $303 $304 $453 reversed $189 $-1 #
coedge $-1 $459 $623 $303 $451 reversed $301 $-1 #
edge $-1 $466 -8.4326769622907545 $625 8.4326769622907545 $450 $626 forward 7 unknown #
coedge $-1 $305 $304 $623 $627 forward $121 $-1 #
edge $-1 $457 -55.741447187719352 $625 55.741447187719352 $449 $628 forward 7 unknown #
coedge $-1 $462 $461 $305 $455 reversed $446 $-1 #
edge $-1 $629 -55.741447187719352 $456 55.741447187719352 $454 $630 forward 7 unknown #
vertex $-1 $307 $631 #
vertex $-1 $468 $632 #
straight-curve $-1 55.741447187719352 0 -8.4326769622907545 0 -1 0 I I #
coedge $-1 $448 $450 $308 $460 reversed $301 $-1 #
edge $-1 $463 -23.376976626145833 $466 23.376976626145833 $459 $633 forward 7 unknown #
coedge $-1 $454 $309 $314 $469 forward $446 $-1 #
coedge $-1 $309 $454 $448 $624 reversed $446 $-1 #
vertex $-1 $310 $634 #
straight-curve $-1 0 23.376976626145833 8.4326769622907545 -1 0 0 I I #
coedge $-1 $311 $449 $313 $468 reversed $189 $-1 #
vertex $-1 $460 $635 #
straight-curve $-1 0 -23.376976626145833 8.4326769622907545 1 0 0 I I #
edge $-1 $316 -8.4326769622907545 $457 8.4326769622907545 $313 $636 forward 7 unknown #
edge $-1 $317 -8.4326769622907545 $456 8.4326769622907545 $314 $637 forward 7 unknown #
point $-1 55.741447187719352 -23.376976626145833 8.4326769622907545 #
point $-1 55.741447187719352 23.376976626145833 8.4326769622907545 #
face $-1 $-1 $482 $46 $-1 $638 reversed single #
loop $-1 $-1 $478 $319 #
plane-surface $-1 0 0 -8.4326769622907545 0 0 1 1 0 0 forward_v I I I I #
coedge $-1 $639 $640 $327 $486 forward $320 $-1 #
coedge $-1 $322 $490 $480 $641 forward $197 $-1 #
edge $-1 $484 -12.862750225283017 $332 -8.1657025764426141 $322 $642 forward 7 unknown #
coedge $-1 $643 $328 $323 $479 forward $473 $-1 #
edge $-1 $333 8.1657025764426141 $483 12.862750225283017 $478 $644 forward 7 unknown #
coedge $-1 $645 $325 $476 $641 reversed $482 $-1 #
coedge $-1 $325 $645 $643 $646 reversed $482 $-1 #
loop $-1 $-1 $325 $472 #
vertex $-1 $646 $647 #
vertex $-1 $326 $648 #
straight-curve $-1 -45.853466262476296 -23.376976626145833 0 0 0 1 I I #
edge $-1 $491 -8.4326769622907545 $488 8.4326769622907545 $475 $649 forward 7 unknown #
coedge $-1 $328 $643 $639 $650 forward $473 $-1 #
vertex $-1 $329 $651 #
straight-curve $-1 -25.398728362548912 -18.67992897730543 -8.4326769622907545 1 0 0 I I #
coedge $-1 $476 $330 $640 $652 forward $197 $-1 #
vertex $-1 $652 $653 #
straight-curve $-1 -25.398728362548912 -18.67992897730543 8.4326769622907545 -1 0 0 I I #
point $-1 -45.853466262476296 -18.67992897730543 8.4326769622907545 #
point $-1 -45.853466262476296 -18.67992897730543 -8.4326769622907545 #
face $-1 $-1 $505 $47 $-1 $654 reversed single #
loop $-1 $-1 $501 $335 #
plane-surface $-1 0 0 -8.4326769622907545 0 0 1 1 0 0 forward_v I I I I #
coedge $-1 $655 $656 $343 $509 forward $336 $-1 #
coedge $-1 $338 $513 $503 $657 forward $205 $-1 #
edge $-1 $507 -30.34271882517044 $348 -20.454737899927384 $338 $658 forward 7 unknown #
coedge $-1 $659 $344 $339 $502 forward $496 $-1 #
edge $-1 $349 20.454737899927384 $506 30.34271882517044 $501 $660 forward 7 unknown #
coedge $-1 $661 $341 $499 $657 reversed $505 $-1 #
coedge $-1 $341 $661 $659 $662 reversed $505 $-1 #
loop $-1 $-1 $341 $495 #
vertex $-1 $662 $663 #
vertex $-1 $342 $664 #
straight-curve $-1 55.741447187719352 -18.67992897730543 0 0 0 1 I I #
edge $-1 $514 -8.4326769622907545 $511 8.4326769622907545 $498 $665 forward 7 unknown #
coedge $-1 $344 $659 $655 $666 forward $496 $-1 #
vertex $-1 $345 $667 #
straight-curve $-1 45.853466262476296 -10.514226400862816 -8.4326769622907545 0 1 0 I I #
coedge $-1 $499 $346 $656 $668 forward $205 $-1 #
vertex $-1 $668 $669 #
straight-curve $-1 45.853466262476296 -10.514226400862816 8.4326769622907545 0 -1 0 I I #
point $-1 45.853466262476296 -18.67992897730543 8.4326769622907545 #
point $-1 45.853466262476296 -18.67992897730543 -8.4326769622907545 #
loop $-1 $-1 $359 $351 #
plane-surface $-1 0 -23.376976626145833 0 0 1 0 0 0 1 forward_v I I I I #
coedge $-1 $521 $354 $356 $525 reversed $213 $-1 #
coedge $-1 $354 $520 $670 $671 reversed $213 $-1 #
coedge $-1 $362 $357 $354 $523 forward $352 $-1 #
edge $-1 $526 -39.426298375805558 $672 -33.407290209020864 $522 $673 forward 7 unknown #
coedge $-1 $356 $355 $529 $674 reversed $133 $-1 #
edge $-1 $675 0 $526 10.240148521342435 $520 $676 forward 7 unknown #
vertex $-1 $358 $677 #
straight-curve $-1 -4.2711509564401275 -17.357968459361143 8.4326769622907545 -1 0 0 I I #
coedge $-1 $670 $359 $362 $533 reversed $518 $-1 #
coedge $-1 $359 $670 $524 $674 forward $518 $-1 #
vertex $-1 $360 $678 #
straight-curve $-1 -3.5527136788005009e-015 -23.376976626145833 32.838111320408977 0 0 1 I I #
straight-curve $-1 -3.5527136788005009e-015 -23.376976626145833 0.14822269979821101 0 -0.5877852410284794 -0.80901700255871778 I I #
edge $-1 $672 -17.084603825760507 $363 -3.5527136788005009e-015 $528 $679 forward 7 unknown #
point $-1 -3.5527136788005009e-015 -23.376976626145833 8.4326769622907545 #
point $-1 -3.5527136788005009e-015 -17.357968459361143 8.4326769622907545 #
edge $-1 $680 1 $680 0 $366 $-1 forward 7 unknown #
vertex $-1 $367 $681 #
ellipse-curve $-1 -13.667683060608404 -18.427851378044778 2.8812326079249919 0 -0.80901700255871778 0.5877852410284794 1 0 0 1 I I #
point $-1 -12.667683060608404 -20.36747254275349 4.2904498310444819 #
edge $-1 $682 1 $682 0 $370 $-1 forward 7 unknown #
vertex $-1 $371 $683 #
ellipse-curve $-1 -8.5423019128802551 -18.427851378044778 2.8812326079249919 0 -0.80901700255871778 0.5877852410284794 1 0 0 1 I I #
point $-1 -7.5423019128802551 -20.36747254275349 4.2904498310444819 #
edge $-1 $684 1 $684 0 $374 $-1 forward 7 unknown #
vertex $-1 $375 $685 #
ellipse-curve $-1 -3.4169207651521063 -18.427851378044778 2.8812326079249919 0 -0.80901700255871778 0.5877852410284794 1 0 0 1 I I #
point $-1 -2.4169207651521063 -20.36747254275349 4.2904498310444819 #
loop $-1 $-1 $553 $378 #
plane-surface $-1 0 0 8.4326769622907545 0 0 1 1 0 0 forward_v I I I I #
coedge $-1 $384 $555 $686 $687 reversed $379 $-1 #
coedge $-1 $381 $390 $555 $688 forward $242 $-1 #
edge $-1 $557 4.271150956440124 $391 21.35575478220062 $381 $689 forward 7 unknown #
coedge $-1 $686 $388 $382 $554 forward $548 $-1 #
edge $-1 $559 -21.35575478220062 $556 -4.271150956440124 $553 $690 forward 7 unknown #
coedge $-1 $550 $384 $551 $688 reversed $379 $-1 #
vertex $-1 $554 $691 #
vertex $-1 $552 $692 #
straight-curve $-1 -3.5527136788005009e-015 -23.376976626145833 0.14822269979821101 0 -0.5877852410284794 -0.80901700255871778 I I #
vertex $-1 $389 $693 #
straight-curve $-1 17.084603825760492 -23.376976626145833 0.14822269979821101 0 -0.5877852410284794 -0.80901700255871778 I I #
coedge $-1 $388 $686 $390 $563 forward $548 $-1 #
straight-curve $-1 17.084603825760492 -56.784266835166697 8.4326769622907563 0 1 0 I I #
edge $-1 $694 -3.5527136788005009e-015 $392 17.084603825760492 $390 $695 forward 7 unknown #
point $-1 17.084603825760492 -23.376976626145833 0.14822269979821101 #
point $-1 17.084603825760492 -23.376976626145833 8.4326769622907545 #
edge $-1 $696 1 $696 0 $394 $-1 forward 7 unknown #
vertex $-1 $395 $697 #
ellipse-curve $-1 3.4169207651520921 -18.427851378044778 2.8812326079249919 0 -0.80901700255871778 0.5877852410284794 1 0 0 1 I I #
point $-1 4.4169207651520921 -20.36747254275349 4.2904498310444819 #
edge $-1 $698 1 $698 0 $398 $-1 forward 7 unknown #
vertex $-1 $399 $699 #
ellipse-curve $-1 8.5423019128802409 -18.427851378044778 2.8812326079249919 0 -0.80901700255871778 0.5877852410284794 1 0 0 1 I I #
point $-1 9.5423019128802409 -20.36747254275349 4.2904498310444819 #
edge $-1 $700 1 $700 0 $402 $-1 forward 7 unknown #
vertex $-1 $403 $701 #
ellipse-curve $-1 13.66768306060839 -18.427851378044778 2.8812326079249919 0 -0.80901700255871778 0.5877852410284794 1 0 0 1 I I #
point $-1 14.66768306060839 -20.36747254275349 4.2904498310444819 #
plane-surface $-1 0 0 8.4326769622907545 0 0 1 1 0 0 forward_v I I I I #
coedge $-1 $589 $588 $581 $702 forward $407 $-1 #
coedge $-1 $581 $409 $411 $585 reversed $271 $-1 #
coedge $-1 $409 $580 $579 $702 reversed $271 $-1 #
coedge $-1 $417 $412 $409 $583 forward $418 $-1 #
edge $-1 $586 -7.9283009913728115 $703 -1.1341946623585599 $582 $704 forward 7 unknown #
coedge $-1 $411 $410 $589 $705 reversed $171 $-1 #
edge $-1 $706 -46.75395325229168 $586 -38.459880840078966 $580 $707 forward 7 unknown #
vertex $-1 $413 $708 #
straight-curve $-1 -4.7376321839534548 16.582870297131581 8.4326769622907563 1 0 0 I I #
coedge $-1 $579 $414 $417 $593 reversed $407 $-1 #
coedge $-1 $414 $579 $584 $705 forward $407 $-1 #
vertex $-1 $415 $709 #
straight-curve $-1 -14.926267118608038 23.376976626145833 60.906899447591492 0 0 1 I I #
straight-curve $-1 -14.926267118608038 -14.921619517059 30.49235864133216 0 0.81915203911291934 -0.57357644374324357 I I #
edge $-1 $703 4.0242616172057808 $419 14.926267118608038 $588 $710 forward 7 unknown #
point $-1 -14.926267118608038 23.376976626145833 8.4326769622907545 #
point $-1 -14.926267118608038 16.582870297131581 8.4326769622907563 #
edge $-1 $711 1 $711 0 $422 $-1 forward 7 unknown #
vertex $-1 $423 $712 #
ellipse-curve $-1 -9.4752643679069095 18.257653716973234 3.5943786274434726 0 0.57357644374324357 0.81915203911291934 1 0 0 1 I I #
point $-1 -8.4752643679069095 19.97992346163872 6.0540346831178109 #
loop $-1 $-1 $434 $426 #
plane-surface $-1 0 23.376976626145833 0 0 -1 0 0 0 -1 forward_v I I I I #
coedge $-1 $603 $429 $431 $607 reversed $286 $-1 #
coedge $-1 $429 $602 $713 $714 reversed $286 $-1 #
coedge $-1 $437 $432 $429 $605 forward $427 $-1 #
edge $-1 $608 -7.9283009913728115 $715 -1.1341946623585599 $604 $716 forward 7 unknown #
coedge $-1 $431 $430 $611 $717 reversed $180 $-1 #
edge $-1 $718 -46.75395325229168 $608 -38.459880840078966 $602 $719 forward 7 unknown #
vertex $-1 $433 $720 #
straight-curve $-1 4.7376321839534548 16.582870297131581 8.4326769622907563 1 0 0 I I #
coedge $-1 $713 $434 $437 $615 reversed $600 $-1 #
coedge $-1 $434 $713 $606 $717 forward $600 $-1 #
vertex $-1 $435 $721 #
straight-curve $-1 4.0242616172057808 23.376976626145833 60.906899447591492 0 0 1 I I #
straight-curve $-1 4.0242616172057808 -14.921619517059 30.49235864133216 0 0.81915203911291934 -0.57357644374324357 I I #
edge $-1 $715 -14.926267118608038 $438 -4.0242616172057808 $610 $722 forward 7 unknown #
point $-1 4.0242616172057808 23.376976626145833 8.4326769622907545 #
point $-1 4.0242616172057808 16.582870297131581 8.4326769622907563 #
edge $-1 $723 1 $723 0 $441 $-1 forward 7 unknown #
vertex $-1 $442 $724 #
ellipse-curve $-1 9.4752643679069095 18.257653716973234 3.5943786274434726 0 0.57357644374324357 0.81915203911291934 1 0 0 1 I I #
point $-1 10.47526436790691 19.97992346163872 6.0540346831178109 #
plane-surface $-1 55.741447187719352 0 0 -1 0 0 0 0 1 forward_v I I I I #
coedge $-1 $450 $448 $452 $627 reversed $301 $-1 #
edge $-1 $463 -8.4326769622907545 $629 8.4326769622907545 $462 $725 forward 7 unknown #
vertex $-1 $627 $726 #
straight-curve $-1 -55.741447187719352 -23.376976626145833 0 0 0 -1 I I #
edge $-1 $625 -23.376976626145833 $629 23.376976626145833 $623 $727 forward 7 unknown #
straight-curve $-1 0 -23.376976626145833 -8.4326769622907545 -1 0 0 I I #
vertex $-1 $455 $728 #
straight-curve $-1 0 23.376976626145833 -8.4326769622907545 1 0 0 I I #
point $-1 55.741447187719352 23.376976626145833 -8.4326769622907545 #
point $-1 55.741447187719352 -23.376976626145833 -8.4326769622907545 #
straight-curve $-1 -55.741447187719352 0 8.4326769622907545 0 -1 0 I I #
point $-1 -55.741447187719352 23.376976626145833 8.4326769622907545 #
point $-1 -55.741447187719352 -23.376976626145833 8.4326769622907545 #
straight-curve $-1 55.741447187719352 -23.376976626145833 0 0 0 -1 I I #
straight-curve $-1 55.741447187719352 23.376976626145833 0 0 0 -1 I I #
plane-surface $-1 0 -23.376976626145833 0 0 1 0 0 0 1 forward_v I I I I #
coedge $-1 $729 $475 $487 $650 reversed $320 $-1 #
coedge $-1 $475 $729 $490 $652 reversed $320 $-1 #
edge $-1 $730 -55.741447187719352 $484 -45.853466262476296 $480 $731 forward 7 unknown #
straight-curve $-1 -45.853466262476296 -10.514226400862816 8.4326769622907545 0 1 0 I I #
coedge $-1 $487 $478 $481 $646 forward $473 $-1 #
straight-curve $-1 -45.853466262476296 -10.514226400862816 -8.4326769622907545 0 -1 0 I I #
coedge $-1 $481 $480 $729 $732 forward $482 $-1 #
edge $-1 $483 45.853466262476296 $733 55.741447187719352 $481 $734 forward 7 unknown #
point $-1 -45.853466262476296 -23.376976626145833 -8.4326769622907545 #
point $-1 -45.853466262476296 -23.376976626145833 8.4326769622907545 #
straight-curve $-1 -55.741447187719352 -18.67992897730543 0 0 0 -1 I I #
edge $-1 $733 -23.376976626145833 $488 -18.67992897730543 $639 $735 forward 7 unknown #
point $-1 -55.741447187719352 -18.67992897730543 -8.4326769622907545 #
edge $-1 $491 18.67992897730543 $730 23.376976626145833 $640 $736 forward 7 unknown #
point $-1 -55.741447187719352 -18.67992897730543 8.4326769622907545 #
plane-surface $-1 55.741447187719352 0 0 -1 0 0 0 0 1 forward_v I I I I #
coedge $-1 $737 $498 $510 $666 reversed $336 $-1 #
coedge $-1 $498 $737 $513 $668 reversed $336 $-1 #
edge $-1 $738 -23.376976626145833 $507 -18.67992897730543 $503 $739 forward 7 unknown #
straight-curve $-1 25.398728362548912 -18.67992897730543 8.4326769622907545 -1 0 0 I I #
coedge $-1 $510 $501 $504 $662 forward $496 $-1 #
straight-curve $-1 25.398728362548912 -18.67992897730543 -8.4326769622907545 1 0 0 I I #
coedge $-1 $504 $503 $737 $740 forward $505 $-1 #
edge $-1 $506 18.67992897730543 $741 23.376976626145833 $504 $742 forward 7 unknown #
point $-1 55.741447187719352 -18.67992897730543 -8.4326769622907545 #
point $-1 55.741447187719352 -18.67992897730543 8.4326769622907545 #
straight-curve $-1 45.853466262476296 -23.376976626145833 0 0 0 -1 I I #
edge $-1 $741 -55.741447187719352 $511 -45.853466262476296 $655 $743 forward 7 unknown #
point $-1 45.853466262476296 -23.376976626145833 -8.4326769622907545 #
edge $-1 $514 45.853466262476296 $738 55.741447187719352 $656 $744 forward 7 unknown #
point $-1 45.853466262476296 -23.376976626145833 8.4326769622907545 #
coedge $-1 $529 $528 $521 $671 forward $518 $-1 #
edge $-1 $672 24.405434358118221 $675 32.689888620610766 $670 $745 forward 7 unknown #
vertex $-1 $533 $746 #
straight-curve $-1 -17.084603825760507 -56.784266835166697 8.4326769622907563 0 -1 0 I I #
edge $-1 $675 -12.813452869320379 $530 4.271150956440124 $529 $747 forward 7 unknown #
vertex $-1 $674 $748 #
straight-curve $-1 -17.084603825760507 -23.376976626145833 0.14822269979821101 0 0.5877852410284794 0.80901700255871778 I I #
point $-1 -17.084603825760507 -17.357968459361143 8.4326769622907545 #
point $-1 -3.5527136788005009e-015 -23.376976626145833 0.14822269979821101 #
straight-curve $-1 0 -23.376976626145833 8.4326769622907545 1 0 0 I I #
vertex $-1 $536 $749 #
point $-1 -12.667683060608404 -18.427851378044778 2.8812326079249919 #
vertex $-1 $540 $750 #
point $-1 -7.5423019128802551 -18.427851378044778 2.8812326079249919 #
vertex $-1 $544 $751 #
point $-1 -2.4169207651521063 -18.427851378044778 2.8812326079249919 #
coedge $-1 $561 $553 $550 $687 forward $548 $-1 #
edge $-1 $556 -39.426298375805558 $694 -33.407290209020864 $686 $752 forward 7 unknown #
edge $-1 $694 24.405434358118221 $557 32.689888620610766 $551 $753 forward 7 unknown #
straight-curve $-1 -4.2711509564401275 -23.376976626145833 0.14822269979820862 1 0 0 I I #
straight-curve $-1 -4.2711509564401275 -17.357968459361143 8.4326769622907545 -1 0 0 I I #
point $-1 -3.5527136788005009e-015 -17.357968459361143 8.4326769622907545 #
point $-1 -3.5527136788005009e-015 -23.376976626145833 0.14822269979821101 #
point $-1 17.084603825760492 -17.357968459361143 8.4326769622907545 #
vertex $-1 $563 $754 #
straight-curve $-1 0 -23.376976626145833 8.4326769622907545 1 0 0 I I #
vertex $-1 $566 $755 #
point $-1 4.4169207651520921 -18.427851378044778 2.8812326079249919 #
vertex $-1 $570 $756 #
point $-1 9.5423019128802409 -18.427851378044778 2.8812326079249919 #
vertex $-1 $574 $757 #
point $-1 14.66768306060839 -18.427851378044778 2.8812326079249919 #
edge $-1 $703 52.474222485300736 $706 57.231507043646644 $579 $758 forward 7 unknown #
vertex $-1 $593 $759 #
straight-curve $-1 -4.0242616172057808 24.511171288504393 8.4326769622907563 0 1 0 I I #
edge $-1 $706 -0.71337056674767396 $590 10.188634934654583 $589 $760 forward 7 unknown #
vertex $-1 $705 $761 #
straight-curve $-1 -4.0242616172057808 -14.921619517059 30.49235864133216 0 -0.81915203911291934 0.57357644374324357 I I #
point $-1 -4.0242616172057808 16.582870297131581 8.4326769622907563 #
point $-1 -14.926267118608038 23.376976626145833 3.6753924039448442 #
straight-curve $-1 0 23.376976626145833 8.4326769622907545 -1 0 0 I I #
vertex $-1 $596 $762 #
point $-1 -8.4752643679069095 18.257653716973234 3.5943786274434726 #
coedge $-1 $611 $610 $603 $714 forward $600 $-1 #
edge $-1 $715 52.474222485300736 $718 57.231507043646644 $713 $763 forward 7 unknown #
vertex $-1 $615 $764 #
straight-curve $-1 14.926267118608038 24.511171288504393 8.4326769622907563 0 1 0 I I #
edge $-1 $718 -10.188634934654583 $612 0.71337056674767396 $611 $765 forward 7 unknown #
vertex $-1 $717 $766 #
straight-curve $-1 14.926267118608038 -14.921619517059 30.49235864133216 0 -0.81915203911291934 0.57357644374324357 I I #
point $-1 14.926267118608038 16.582870297131581 8.4326769622907563 #
point $-1 4.0242616172057808 23.376976626145833 3.6753924039448442 #
straight-curve $-1 0 23.376976626145833 8.4326769622907545 -1 0 0 I I #
vertex $-1 $618 $767 #
point $-1 10.47526436790691 18.257653716973234 3.5943786274434726 #
straight-curve $-1 -55.741447187719352 23.376976626145833 0 0 0 -1 I I #
point $-1 -55.741447187719352 -23.376976626145833 -8.4326769622907545 #
straight-curve $-1 -55.741447187719352 0 -8.4326769622907545 0 1 0 I I #
point $-1 -55.741447187719352 23.376976626145833 -8.4326769622907545 #
coedge $-1 $640 $639 $645 $732 reversed $320 $-1 #
vertex $-1 $652 $768 #
straight-curve $-1 0 -23.376976626145833 8.4326769622907545 1 0 0 I I #
edge $-1 $730 -8.4326769622907545 $733 8.4326769622907545 $729 $769 forward 7 unknown #
vertex $-1 $650 $770 #
straight-curve $-1 0 -23.376976626145833 -8.4326769622907545 -1 0 0 I I #
straight-curve $-1 -55.741447187719352 0 -8.4326769622907545 0 1 0 I I #
straight-curve $-1 -55.741447187719352 0 8.4326769622907545 0 -1 0 I I #
coedge $-1 $656 $655 $661 $740 reversed $336 $-1 #
vertex $-1 $657 $771 #
straight-curve $-1 55.741447187719352 0 8.4326769622907545 0 1 0 I I #
edge $-1 $738 -8.4326769622907545 $741 8.4326769622907545 $661 $772 forward 7 unknown #
vertex $-1 $740 $773 #
straight-curve $-1 55.741447187719352 0 -8.4326769622907545 0 -1 0 I I #
straight-curve $-1 0 -23.376976626145833 -8.4326769622907545 -1 0 0 I I #
straight-curve $-1 0 -23.376976626145833 8.4326769622907545 1 0 0 I I #
straight-curve $-1 -17.084603825760507 -23.376976626145833 32.838111320408977 0 0 -1 I I #
point $-1 -17.084603825760507 -23.376976626145833 8.4326769622907545 #
straight-curve $-1 -4.2711509564401275 -23.376976626145833 0.14822269979820862 1 0 0 I I #
point $-1 -17.084603825760507 -23.376976626145833 0.14822269979821101 #
point $-1 -13.667683060608404 -17.61883437548606 2.2934473668965127 #
point $-1 -8.5423019128802551 -17.61883437548606 2.2934473668965127 #
point $-1 -3.4169207651521063 -17.61883437548606 2.2934473668965127 #
straight-curve $-1 -3.5527136788005009e-015 -56.784266835166697 8.4326769622907563 0 -1 0 I I #
straight-curve $-1 -3.5527136788005009e-015 -23.376976626145833 32.838111320408977 0 0 -1 I I #
point $-1 -3.5527136788005009e-015 -23.376976626145833 8.4326769622907545 #
point $-1 3.4169207651520921 -17.61883437548606 2.2934473668965127 #
point $-1 8.5423019128802409 -17.61883437548606 2.2934473668965127 #
point $-1 13.66768306060839 -17.61883437548606 2.2934473668965127 #
straight-curve $-1 -4.0242616172057808 23.376976626145833 60.906899447591492 0 0 -1 I I #
point $-1 -4.0242616172057808 23.376976626145833 8.4326769622907545 #
straight-curve $-1 -4.7376321839534548 23.376976626145836 3.6753924039448425 -1 0 0 I I #
point $-1 -4.0242616172057808 23.376976626145833 3.6753924039448442 #
point $-1 -9.4752643679069095 17.684077273229992 2.7752265883305536 #
straight-curve $-1 14.926267118608038 23.376976626145833 60.906899447591492 0 0 -1 I I #
point $-1 14.926267118608038 23.376976626145833 8.4326769622907545 #
straight-curve $-1 4.7376321839534548 23.376976626145836 3.6753924039448425 -1 0 0 I I #
point $-1 14.926267118608038 23.376976626145833 3.6753924039448442 #
point $-1 9.4752643679069095 17.684077273229992 2.7752265883305536 #
point $-1 -55.741447187719352 -23.376976626145833 8.4326769622907545 #
straight-curve $-1 -55.741447187719352 -23.376976626145833 0 0 0 -1 I I #
point $-1 -55.741447187719352 -23.376976626145833 -8.4326769622907545 #
point $-1 55.741447187719352 -23.376976626145833 8.4326769622907545 #
straight-curve $-1 55.741447187719352 -23.376976626145833 0 0 0 -1 I I #
point $-1 55.741447187719352 -23.376976626145833 -8.4326769622907545 #
End-of-ACIS-data 