500 0 6 0           
7 Unknown 11 ACIS 5.0 NT 24 Thu Mar 25 21:18:20 1999 
-1 9.9999999999999995e-007 1e-010 
body $-1 $6 $-1 $7 #
body $-1 $8 $-1 $9 #
body $-1 $10 $-1 $11 #
body $-1 $12 $-1 $13 #
body $-1 $14 $-1 $15 #
body $-1 $16 $-1 $17 #
lump $-1 $-1 $18 $0 #
transform $-1 1 0 0 0 1 0 0 0 1 74.880214850306714 50.803690310422795 24.31156667301012 1 rotate no_reflect no_shear #
lump $-1 $-1 $19 $1 #
transform $-1 1 0 0 0 1 0 0 0 1 74.880214850306714 50.803690310422795 24.31156667301012 1 rotate no_reflect no_shear #
lump $-1 $-1 $20 $2 #
transform $-1 1 0 0 0 1 0 0 0 1 74.880214850306714 50.803690310422795 24.31156667301012 1 rotate no_reflect no_shear #
lump $-1 $-1 $21 $3 #
transform $-1 1 0 0 0 1 0 0 0 1 74.880214850306714 50.803690310422795 24.31156667301012 1 rotate no_reflect no_shear #
lump $-1 $-1 $22 $4 #
transform $-1 1 0 0 0 1 0 0 0 1 74.880214850306714 50.803690310422795 24.31156667301012 1 rotate no_reflect no_shear #
lump $-1 $-1 $23 $5 #
transform $-1 1 0 0 0 1 0 0 0 1 74.880214850306714 50.803690310422795 24.31156667301012 1 rotate no_reflect no_shear #
shell $-1 $-1 $-1 $24 $-1 $6 #
shell $-1 $-1 $-1 $25 $-1 $8 #
shell $-1 $-1 $-1 $26 $-1 $10 #
shell $-1 $-1 $-1 $27 $-1 $12 #
shell $-1 $-1 $-1 $28 $-1 $14 #
shell $-1 $-1 $-1 $29 $-1 $16 #
face $-1 $30 $31 $18 $-1 $32 forward single #
face $-1 $33 $34 $19 $-1 $35 forward single #
face $-1 $36 $37 $20 $-1 $38 reversed single #
face $-1 $39 $40 $21 $-1 $41 forward single #
face $-1 $42 $43 $22 $-1 $44 reversed single #
face $-1 $45 $46 $23 $-1 $47 forward single #
face $-1 $48 $49 $18 $-1 $50 reversed single #
loop $-1 $-1 $51 $24 #
plane-surface $-1 0 0 24.31156667301012 0 0 1 1 0 0 forward_v I I I I #
face $-1 $52 $53 $19 $-1 $54 reversed single #
loop $-1 $-1 $55 $25 #
plane-surface $-1 -59.094605616658171 0 14.668505293020722 0 0 1 1 0 0 forward_v I I I I #
face $-1 $56 $57 $20 $-1 $58 reversed single #
loop $-1 $-1 $59 $26 #
plane-surface $-1 -40.222320922292695 -147.0678401264924 119.27592472466681 1 0 0 0 0.64278761758704617 -0.76604443648966558 forward_v I I I I #
face $-1 $60 $61 $21 $-1 $62 forward single #
loop $-1 $63 $64 $27 #
cone-surface $-1 -29.679361390616862 -36.857550013461719 11.84328156788245 0 0.64278761758704617 -0.76604443648966558 4 0 0 1 I I 0 1 4 forward I I I I #
face $-1 $65 $66 $22 $-1 $67 reversed single #
loop $-1 $-1 $68 $28 #
plane-surface $-1 50.707620326238114 -147.0678401264924 119.27592472466681 1 0 0 0 0.64278761758704617 -0.76604443648966558 forward_v I I I I #
face $-1 $69 $70 $23 $-1 $71 forward single #
loop $-1 $72 $73 $29 #
cone-surface $-1 61.250579857913948 -36.857550013461719 11.84328156788245 0 0.64278761758704617 -0.76604443648966558 4 0 0 1 I I 0 1 4 forward I I I I #
face $-1 $74 $75 $18 $-1 $76 reversed single #
loop $-1 $-1 $77 $30 #
plane-surface $-1 0 0 -24.31156667301012 0 0 1 1 0 0 forward_v I I I I #
coedge $-1 $78 $79 $80 $81 forward $31 $-1 #
face $-1 $82 $83 $19 $-1 $84 reversed single #
loop $-1 $-1 $85 $33 #
plane-surface $-1 -59.094605616658171 0 4.7392480476755523 0 0 1 1 0 0 forward_v I I I I #
coedge $-1 $86 $87 $88 $89 forward $34 $-1 #
face $-1 $90 $91 $20 $-1 $92 reversed single #
loop $-1 $-1 $93 $36 #
plane-surface $-1 -29.679361390616862 -50.80369031042278 4.5527807462102174 0 -0.64278761758704617 0.76604443648966558 1 0 0 forward_v I I I I #
coedge $-1 $94 $95 $96 $97 reversed $37 $-1 #
face $-1 $-1 $98 $21 $-1 $99 forward single #
loop $-1 $100 $101 $39 #
cone-surface $-1 -29.679361390616862 -33.399636291506589 7.722300553175387 0 0.64278761758704617 -0.76604443648966558 2 0 0 1 I I -0.70710678118654746 0.70710678118654746 2 forward I I I I #
loop $-1 $-1 $102 $27 #
coedge $-1 $64 $64 $103 $104 reversed $40 $-1 #
face $-1 $105 $106 $22 $-1 $107 reversed single #
loop $-1 $-1 $108 $42 #
plane-surface $-1 61.250579857913948 -50.80369031042278 4.5527807462102174 0 -0.64278761758704617 0.76604443648966558 1 0 0 forward_v I I I I #
coedge $-1 $109 $110 $111 $112 reversed $43 $-1 #
face $-1 $-1 $113 $23 $-1 $114 forward single #
loop $-1 $115 $116 $45 #
cone-surface $-1 61.250579857913948 -33.399636291506589 7.722300553175387 0 0.64278761758704617 -0.76604443648966558 2 0 0 1 I I -0.70710678118654746 0.70710678118654746 2 forward I I I I #
loop $-1 $-1 $117 $29 #
coedge $-1 $73 $73 $118 $119 reversed $46 $-1 #
face $-1 $120 $121 $18 $-1 $122 reversed single #
loop $-1 $-1 $123 $48 #
plane-surface $-1 0 -50.803690310422795 0 0 1 0 0 0 1 forward_v I I I I #
coedge $-1 $124 $125 $126 $127 forward $49 $-1 #
coedge $-1 $128 $51 $129 $130 forward $31 $-1 #
coedge $-1 $51 $128 $131 $132 forward $31 $-1 #
coedge $-1 $133 $134 $51 $81 reversed $135 $-1 #
edge $-1 $136 -50.803690310422795 $137 50.803690310422795 $80 $138 forward 7 unknown #
face $-1 $139 $140 $19 $-1 $141 reversed single #
loop $-1 $-1 $142 $52 #
plane-surface $-1 -43.308996383009628 0 9.7038766703481372 -1 0 0 0 0 1 forward_v I I I I #
coedge $-1 $143 $144 $145 $146 forward $53 $-1 #
coedge $-1 $147 $55 $148 $149 reversed $34 $-1 #
coedge $-1 $55 $147 $150 $151 reversed $34 $-1 #
coedge $-1 $142 $152 $55 $89 reversed $83 $-1 #
edge $-1 $153 -50.803690310422795 $154 50.803690310422795 $88 $155 forward 7 unknown #
face $-1 $156 $157 $20 $-1 $158 forward single #
loop $-1 $-1 $159 $56 #
plane-surface $-1 -19.136401858941028 -147.0678401264924 119.27592472466681 -1 0 0 0 -0.64278761758704617 0.76604443648966558 forward_v I I I I #
coedge $-1 $160 $161 $162 $163 reversed $57 $-1 #
coedge $-1 $95 $59 $164 $165 reversed $37 $-1 #
coedge $-1 $59 $94 $160 $166 reversed $37 $-1 #
coedge $-1 $162 $167 $59 $97 forward $168 $-1 #
edge $-1 $169 35.326395689323284 $170 55.085181616123201 $96 $171 forward 7 unknown #
loop $-1 $-1 $103 $60 #
plane-surface $-1 -29.679361390616862 -50.80369031042278 4.5527807462102174 0 -0.64278761758704617 0.76604443648966558 1 0 0 forward_v I I I I #
loop $-1 $-1 $172 $39 #
coedge $-1 $101 $101 $102 $173 reversed $61 $-1 #
coedge $-1 $102 $102 $101 $173 forward $63 $-1 #
coedge $-1 $103 $103 $64 $104 forward $98 $-1 #
edge $-1 $174 -9.4229932497679356e-016 $174 6.2831853071795996 $103 $175 forward 7 unknown #
face $-1 $176 $177 $22 $-1 $178 reversed single #
loop $-1 $-1 $179 $65 #
plane-surface $-1 71.793539389589782 -147.0678401264924 119.27592472466681 -1 0 0 0 -0.64278761758704617 0.76604443648966558 forward_v I I I I #
coedge $-1 $180 $181 $182 $183 reversed $66 $-1 #
coedge $-1 $110 $68 $184 $185 reversed $43 $-1 #
coedge $-1 $68 $109 $180 $186 reversed $43 $-1 #
coedge $-1 $182 $187 $68 $112 forward $177 $-1 #
edge $-1 $188 35.326395689323284 $189 55.085181616123201 $111 $190 forward 7 unknown #
loop $-1 $-1 $118 $69 #
plane-surface $-1 61.250579857913948 -50.80369031042278 4.5527807462102174 0 -0.64278761758704617 0.76604443648966558 1 0 0 forward_v I I I I #
loop $-1 $-1 $191 $45 #
coedge $-1 $116 $116 $117 $192 reversed $70 $-1 #
coedge $-1 $117 $117 $116 $192 forward $72 $-1 #
coedge $-1 $118 $118 $73 $119 forward $113 $-1 #
edge $-1 $193 -9.4229932497679356e-016 $193 6.2831853071795996 $118 $194 forward 7 unknown #
face $-1 $195 $196 $18 $-1 $197 reversed single #
loop $-1 $-1 $198 $74 #
plane-surface $-1 -74.880214850306714 0 0 1 0 0 0 0 -1 forward_v I I I I #
coedge $-1 $199 $131 $200 $201 forward $75 $-1 #
coedge $-1 $202 $77 $199 $203 forward $49 $-1 #
coedge $-1 $77 $202 $204 $205 forward $49 $-1 #
coedge $-1 $134 $133 $77 $127 reversed $135 $-1 #
edge $-1 $206 -50.803690310422795 $207 50.803690310422795 $126 $208 forward 7 unknown #
coedge $-1 $79 $78 $209 $210 forward $31 $-1 #
coedge $-1 $211 $212 $78 $130 reversed $196 $-1 #
edge $-1 $137 -74.880214850306714 $213 74.880214850306714 $129 $214 forward 7 unknown #
coedge $-1 $123 $215 $79 $132 reversed $75 $-1 #
edge $-1 $216 -74.880214850306714 $136 74.880214850306714 $131 $217 forward 7 unknown #
coedge $-1 $126 $80 $215 $218 forward $135 $-1 #
coedge $-1 $80 $126 $211 $219 reversed $135 $-1 #
loop $-1 $-1 $133 $195 #
vertex $-1 $81 $220 #
vertex $-1 $81 $221 #
straight-curve $-1 74.880214850306714 0 24.31156667301012 0 1 0 I I #
face $-1 $222 $223 $19 $-1 $224 reversed single #
loop $-1 $-1 $225 $82 #
plane-surface $-1 0 -50.803690310422795 0 0 1 0 0 0 1 forward_v I I I I #
coedge $-1 $145 $88 $226 $227 reversed $83 $-1 #
coedge $-1 $228 $85 $225 $229 reversed $53 $-1 #
coedge $-1 $85 $228 $230 $231 reversed $53 $-1 #
coedge $-1 $152 $142 $85 $146 reversed $83 $-1 #
edge $-1 $232 -50.803690310422795 $233 50.803690310422795 $145 $234 forward 7 unknown #
coedge $-1 $87 $86 $235 $236 reversed $34 $-1 #
coedge $-1 $237 $238 $86 $149 forward $239 $-1 #
edge $-1 $240 -45.332912041977629 $154 -13.761693574680542 $148 $241 forward 7 unknown #
coedge $-1 $242 $226 $87 $151 forward $140 $-1 #
edge $-1 $153 13.761693574680542 $243 45.332912041977629 $150 $244 forward 7 unknown #
coedge $-1 $88 $145 $237 $245 reversed $83 $-1 #
vertex $-1 $151 $246 #
vertex $-1 $149 $247 #
straight-curve $-1 -43.308996383009628 0 14.668505293020722 0 1 0 I I #
face $-1 $-1 $168 $20 $-1 $248 reversed single #
loop $-1 $-1 $249 $90 #
plane-surface $-1 0 0 24.31156667301012 0 0 1 1 0 0 forward_v I I I I #
coedge $-1 $250 $251 $252 $253 reversed $91 $-1 #
coedge $-1 $254 $93 $95 $166 forward $57 $-1 #
coedge $-1 $93 $254 $250 $255 forward $57 $-1 #
coedge $-1 $252 $96 $93 $163 forward $168 $-1 #
edge $-1 $170 -25.382640226984265 $256 -4.296721163632597 $162 $257 forward 7 unknown #
coedge $-1 $258 $259 $94 $165 forward $157 $-1 #
edge $-1 $260 -46.277833373183512 $169 -22.730229752823405 $164 $261 forward 7 unknown #
edge $-1 $170 -1.8307977367429951e-014 $260 30.739213678340924 $95 $262 forward 7 unknown #
coedge $-1 $96 $252 $258 $263 reversed $168 $-1 #
loop $-1 $-1 $252 $156 #
vertex $-1 $263 $264 #
vertex $-1 $97 $265 #
straight-curve $-1 -40.222320922292695 -50.803690310422795 59.637962362333404 0 0 -1 I I #
coedge $-1 $172 $172 $-1 $266 reversed $100 $-1 #
edge $-1 $267 0 $267 6.2831853071796004 $101 $268 forward 7 unknown #
vertex $-1 $104 $269 #
ellipse-curve $-1 -29.679361390616862 -39.029888500242741 14.432173709610163 0 -0.64278761758704617 0.76604443648966558 4 0 0 1 I I #
face $-1 $-1 $270 $22 $-1 $271 forward single #
loop $-1 $-1 $111 $105 #
plane-surface $-1 0 -50.803690310422795 0 0 1 0 0 0 1 forward_v I I I I #
coedge $-1 $272 $273 $274 $275 reversed $106 $-1 #
coedge $-1 $276 $108 $110 $186 forward $66 $-1 #
coedge $-1 $108 $276 $272 $277 forward $66 $-1 #
coedge $-1 $274 $111 $108 $183 forward $177 $-1 #
edge $-1 $189 20.08233039728114 $278 41.168249460632808 $182 $279 forward 7 unknown #
coedge $-1 $280 $281 $109 $185 forward $270 $-1 #
edge $-1 $282 -46.277833373183512 $188 -22.730229752823405 $184 $283 forward 7 unknown #
edge $-1 $189 -1.8307977367429951e-014 $282 30.739213678340924 $110 $284 forward 7 unknown #
coedge $-1 $111 $274 $280 $285 reversed $177 $-1 #
vertex $-1 $285 $286 #
vertex $-1 $112 $287 #
straight-curve $-1 50.707620326238114 -50.803690310422795 59.637962362333404 0 0 -1 I I #
coedge $-1 $191 $191 $-1 $288 reversed $115 $-1 #
edge $-1 $289 0 $289 6.2831853071796004 $116 $290 forward 7 unknown #
vertex $-1 $119 $291 #
ellipse-curve $-1 61.250579857913948 -39.029888500242741 14.432173709610163 0 -0.64278761758704617 0.76604443648966558 4 0 0 1 I I #
face $-1 $-1 $135 $18 $-1 $292 reversed single #
loop $-1 $-1 $211 $120 #
plane-surface $-1 0 50.803690310422795 0 0 -1 0 0 0 -1 forward_v I I I I #
coedge $-1 $293 $209 $212 $294 forward $121 $-1 #
coedge $-1 $215 $123 $124 $203 reversed $75 $-1 #
coedge $-1 $209 $293 $123 $201 reversed $121 $-1 #
edge $-1 $216 -24.31156667301012 $295 24.31156667301012 $200 $296 forward 7 unknown #
coedge $-1 $125 $124 $293 $297 forward $49 $-1 #
edge $-1 $207 -74.880214850306714 $295 74.880214850306714 $199 $298 forward 7 unknown #
coedge $-1 $212 $211 $125 $205 reversed $196 $-1 #
edge $-1 $299 -74.880214850306714 $206 74.880214850306714 $204 $300 forward 7 unknown #
vertex $-1 $127 $301 #
vertex $-1 $218 $302 #
straight-curve $-1 74.880214850306714 0 -24.31156667301012 0 -1 0 I I #
coedge $-1 $198 $200 $128 $210 reversed $121 $-1 #
edge $-1 $213 -50.803690310422795 $216 50.803690310422795 $209 $303 forward 7 unknown #
coedge $-1 $204 $129 $134 $219 forward $196 $-1 #
coedge $-1 $129 $204 $198 $294 reversed $196 $-1 #
vertex $-1 $130 $304 #
straight-curve $-1 0 50.803690310422795 24.31156667301012 -1 0 0 I I #
coedge $-1 $131 $199 $133 $218 reversed $75 $-1 #
vertex $-1 $210 $305 #
straight-curve $-1 0 -50.803690310422795 24.31156667301012 1 0 0 I I #
edge $-1 $136 -24.31156667301012 $207 24.31156667301012 $133 $306 forward 7 unknown #
edge $-1 $137 -24.31156667301012 $206 24.31156667301012 $134 $307 forward 7 unknown #
point $-1 74.880214850306714 -50.803690310422795 24.31156667301012 #
point $-1 74.880214850306714 50.803690310422795 24.31156667301012 #
face $-1 $-1 $239 $19 $-1 $308 reversed single #
loop $-1 $-1 $309 $139 #
plane-surface $-1 -74.880214850306714 0 0 1 0 0 0 0 -1 forward_v I I I I #
coedge $-1 $226 $242 $143 $229 forward $140 $-1 #
coedge $-1 $150 $225 $142 $227 forward $140 $-1 #
edge $-1 $233 -0.11269028749851628 $153 9.8165669578466535 $226 $310 forward 7 unknown #
coedge $-1 $144 $143 $309 $311 reversed $53 $-1 #
edge $-1 $312 -45.332912041977629 $233 -13.761693574680542 $225 $313 forward 7 unknown #
coedge $-1 $238 $237 $144 $231 forward $239 $-1 #
edge $-1 $232 13.761693574680542 $314 45.332912041977629 $230 $315 forward 7 unknown #
vertex $-1 $231 $316 #
vertex $-1 $229 $317 #
straight-curve $-1 -43.308996383009628 0 4.7392480476755523 0 -1 0 I I #
coedge $-1 $318 $319 $147 $236 forward $223 $-1 #
edge $-1 $243 -50.803690310422795 $240 50.803690310422795 $235 $320 forward 7 unknown #
coedge $-1 $230 $148 $152 $245 forward $239 $-1 #
coedge $-1 $148 $230 $318 $321 reversed $239 $-1 #
loop $-1 $-1 $230 $222 #
vertex $-1 $321 $322 #
straight-curve $-1 -29.547302808329086 50.803690310422795 14.668505293020722 1 0 0 I I #
coedge $-1 $225 $150 $319 $323 forward $140 $-1 #
vertex $-1 $323 $324 #
straight-curve $-1 -29.547302808329086 -50.803690310422795 14.668505293020722 -1 0 0 I I #
edge $-1 $154 -9.8165669578466535 $232 0.11269028749851628 $237 $325 forward 7 unknown #
point $-1 -43.308996383009628 -50.803690310422795 14.668505293020722 #
point $-1 -43.308996383009628 50.803690310422795 14.668505293020722 #
plane-surface $-1 0 -50.803690310422795 0 0 1 0 0 0 1 forward_v I I I I #
coedge $-1 $259 $258 $251 $326 forward $157 $-1 #
coedge $-1 $251 $159 $161 $255 reversed $91 $-1 #
coedge $-1 $159 $250 $249 $326 reversed $91 $-1 #
coedge $-1 $167 $162 $159 $253 forward $168 $-1 #
edge $-1 $256 -55.085181616123201 $327 -35.326395689323284 $252 $328 forward 7 unknown #
coedge $-1 $161 $160 $259 $329 reversed $57 $-1 #
edge $-1 $330 -30.739213678340924 $256 1.8307977367429951e-014 $250 $331 forward 7 unknown #
vertex $-1 $163 $332 #
straight-curve $-1 -14.839680695308431 -50.803690310422795 4.5527807462102032 1 0 0 I I #
coedge $-1 $249 $164 $167 $263 forward $157 $-1 #
coedge $-1 $164 $249 $254 $329 forward $157 $-1 #
vertex $-1 $165 $333 #
straight-curve $-1 -40.222320922292695 -73.5339200632462 24.31156667301012 0 -1 0 I I #
straight-curve $-1 -40.222320922292695 -50.80369031042278 4.5527807462102174 0 0.76604443648966558 0.64278761758704617 I I #
edge $-1 $169 -40.222320922292695 $327 -19.136401858941028 $167 $334 forward 7 unknown #
point $-1 -40.222320922292695 -50.803690310422795 24.31156667301012 #
point $-1 -40.222320922292695 -50.803690310422795 4.5527807462102059 #
edge $-1 $335 1 $335 0 $172 $-1 forward 7 unknown #
vertex $-1 $173 $336 #
ellipse-curve $-1 -29.679361390616862 -34.685211526680682 9.2543894261547184 0 -0.64278761758704617 0.76604443648966558 4 0 0 1 I I #
point $-1 -25.679361390616862 -39.029888500242762 14.432173709610183 #
loop $-1 $-1 $184 $176 #
plane-surface $-1 0 0 24.31156667301012 0 0 1 1 0 0 forward_v I I I I #
coedge $-1 $273 $179 $181 $277 reversed $106 $-1 #
coedge $-1 $179 $272 $337 $338 reversed $106 $-1 #
coedge $-1 $187 $182 $179 $275 forward $177 $-1 #
edge $-1 $278 -55.085181616123201 $339 -35.326395689323284 $274 $340 forward 7 unknown #
coedge $-1 $181 $180 $281 $341 reversed $66 $-1 #
edge $-1 $342 -30.739213678340924 $278 1.8307977367429951e-014 $272 $343 forward 7 unknown #
vertex $-1 $183 $344 #
straight-curve $-1 30.625289928956974 -50.803690310422795 4.5527807462102032 1 0 0 I I #
coedge $-1 $337 $184 $187 $285 forward $270 $-1 #
coedge $-1 $184 $337 $276 $341 forward $270 $-1 #
vertex $-1 $185 $345 #
straight-curve $-1 50.707620326238114 -73.5339200632462 24.31156667301012 0 -1 0 I I #
straight-curve $-1 50.707620326238114 -50.80369031042278 4.5527807462102174 0 0.76604443648966558 0.64278761758704617 I I #
edge $-1 $188 50.707620326238114 $339 71.793539389589782 $187 $346 forward 7 unknown #
point $-1 50.707620326238114 -50.803690310422795 24.31156667301012 #
point $-1 50.707620326238114 -50.803690310422795 4.5527807462102059 #
edge $-1 $347 1 $347 0 $191 $-1 forward 7 unknown #
vertex $-1 $192 $348 #
ellipse-curve $-1 61.250579857913948 -34.685211526680682 9.2543894261547184 0 -0.64278761758704617 0.76604443648966558 4 0 0 1 I I #
point $-1 65.250579857913948 -39.029888500242762 14.432173709610183 #
plane-surface $-1 74.880214850306714 0 0 -1 0 0 0 0 1 forward_v I I I I #
coedge $-1 $200 $198 $202 $297 reversed $121 $-1 #
edge $-1 $213 -24.31156667301012 $299 24.31156667301012 $212 $349 forward 7 unknown #
vertex $-1 $297 $350 #
straight-curve $-1 -74.880214850306714 -50.803690310422795 0 0 0 -1 I I #
edge $-1 $295 -50.803690310422795 $299 50.803690310422795 $293 $351 forward 7 unknown #
straight-curve $-1 0 -50.803690310422795 -24.31156667301012 -1 0 0 I I #
vertex $-1 $205 $352 #
straight-curve $-1 0 50.803690310422795 -24.31156667301012 1 0 0 I I #
point $-1 74.880214850306714 50.803690310422795 -24.31156667301012 #
point $-1 74.880214850306714 -50.803690310422795 -24.31156667301012 #
straight-curve $-1 -74.880214850306714 0 24.31156667301012 0 -1 0 I I #
point $-1 -74.880214850306714 50.803690310422795 24.31156667301012 #
point $-1 -74.880214850306714 -50.803690310422795 24.31156667301012 #
straight-curve $-1 74.880214850306714 -50.803690310422795 0 0 0 -1 I I #
straight-curve $-1 74.880214850306714 50.803690310422795 0 0 0 -1 I I #
plane-surface $-1 0 50.803690310422795 0 0 -1 0 0 0 -1 forward_v I I I I #
coedge $-1 $319 $318 $228 $311 forward $223 $-1 #
straight-curve $-1 -43.308996383009628 -50.803690310422795 4.8519383351740686 0 0 1 I I #
edge $-1 $314 -50.803690310422795 $312 50.803690310422795 $309 $353 forward 7 unknown #
vertex $-1 $229 $354 #
straight-curve $-1 -29.547302808329086 -50.803690310422795 4.7392480476755523 1 0 0 I I #
vertex $-1 $231 $355 #
straight-curve $-1 -29.547302808329086 50.803690310422795 4.7392480476755523 -1 0 0 I I #
point $-1 -43.308996383009628 50.803690310422795 4.7392480476755523 #
point $-1 -43.308996383009628 -50.803690310422795 4.7392480476755523 #
coedge $-1 $309 $235 $238 $321 forward $223 $-1 #
coedge $-1 $235 $309 $242 $323 reversed $223 $-1 #
straight-curve $-1 -74.880214850306714 0 14.668505293020722 0 1 0 I I #
edge $-1 $240 -14.668505293020722 $314 -4.7392480476755523 $238 $356 forward 7 unknown #
point $-1 -74.880214850306714 50.803690310422795 14.668505293020722 #
edge $-1 $243 -14.668505293020722 $312 -4.7392480476755523 $319 $357 forward 7 unknown #
point $-1 -74.880214850306714 -50.803690310422795 14.668505293020722 #
straight-curve $-1 -43.308996383009628 50.803690310422795 4.8519383351740686 0 0 -1 I I #
edge $-1 $327 22.730229752823405 $330 46.277833373183512 $249 $358 forward 7 unknown #
vertex $-1 $326 $359 #
straight-curve $-1 -19.136401858941028 -50.803690310422795 59.637962362333404 0 0 1 I I #
edge $-1 $330 4.296721163632597 $260 25.382640226984265 $259 $360 forward 7 unknown #
vertex $-1 $329 $361 #
straight-curve $-1 -19.136401858941028 -50.80369031042278 4.5527807462102174 0 -0.76604443648966558 -0.64278761758704617 I I #
point $-1 -19.136401858941028 -50.803690310422795 4.5527807462102059 #
point $-1 -40.222320922292695 -27.256086690062688 24.31156667301012 #
straight-curve $-1 0 -50.803690310422795 24.31156667301012 1 0 0 I I #
vertex $-1 $266 $362 #
point $-1 -25.679361390616862 -34.685211526680682 9.2543894261547184 #
coedge $-1 $281 $280 $273 $338 forward $270 $-1 #
edge $-1 $339 22.730229752823405 $342 46.277833373183512 $337 $363 forward 7 unknown #
vertex $-1 $338 $364 #
straight-curve $-1 71.793539389589782 -50.803690310422795 59.637962362333404 0 0 1 I I #
edge $-1 $342 -41.168249460632808 $282 -20.08233039728114 $281 $365 forward 7 unknown #
vertex $-1 $341 $366 #
straight-curve $-1 71.793539389589782 -50.80369031042278 4.5527807462102174 0 -0.76604443648966558 -0.64278761758704617 I I #
point $-1 71.793539389589782 -50.803690310422795 4.5527807462102059 #
point $-1 50.707620326238114 -27.256086690062688 24.31156667301012 #
straight-curve $-1 0 -50.803690310422795 24.31156667301012 1 0 0 I I #
vertex $-1 $288 $367 #
point $-1 65.250579857913948 -34.685211526680682 9.2543894261547184 #
straight-curve $-1 -74.880214850306714 50.803690310422795 0 0 0 -1 I I #
point $-1 -74.880214850306714 -50.803690310422795 -24.31156667301012 #
straight-curve $-1 -74.880214850306714 0 -24.31156667301012 0 1 0 I I #
point $-1 -74.880214850306714 50.803690310422795 -24.31156667301012 #
straight-curve $-1 -74.880214850306714 0 4.7392480476755523 0 -1 0 I I #
point $-1 -74.880214850306714 -50.803690310422795 4.7392480476755523 #
point $-1 -74.880214850306714 50.803690310422795 4.7392480476755523 #
straight-curve $-1 -74.880214850306714 50.803690310422795 0 0 0 -1 I I #
straight-curve $-1 -74.880214850306714 -50.803690310422795 0 0 0 -1 I I #
straight-curve $-1 -19.136401858941028 -73.5339200632462 24.31156667301012 0 1 0 I I #
point $-1 -19.136401858941028 -50.803690310422795 24.31156667301012 #
straight-curve $-1 -14.839680695308431 -27.256086690062688 24.31156667301012 -1 0 0 I I #
point $-1 -19.136401858941028 -27.256086690062688 24.31156667301012 #
point $-1 -29.679361390616862 -32.114061056332496 6.1902116801960556 #
straight-curve $-1 71.793539389589782 -73.5339200632462 24.31156667301012 0 1 0 I I #
point $-1 71.793539389589782 -50.803690310422795 24.31156667301012 #
straight-curve $-1 30.625289928956974 -27.256086690062688 24.31156667301012 -1 0 0 I I #
point $-1 71.793539389589782 -27.256086690062688 24.31156667301012 #
point $-1 61.250579857913948 -32.114061056332496 6.1902116801960556 #
End-of-ACIS-data 