500 0 8 0           
7 Unknown 11 ACIS 5.0 NT 24 Thu Mar 25 18:00:25 1999 
-1 9.9999999999999995e-007 1e-010 
body $-1 $8 $-1 $9 #
body $-1 $10 $-1 $11 #
body $-1 $12 $-1 $13 #
body $-1 $14 $-1 $15 #
body $-1 $16 $-1 $17 #
body $-1 $18 $-1 $19 #
body $-1 $20 $-1 $21 #
body $-1 $22 $-1 $23 #
lump $-1 $-1 $24 $0 #
transform $-1 1 0 0 0 1 0 0 0 1 47.864009521774953 28.714607793671782 6.6956643058054937 1 rotate no_reflect no_shear #
lump $-1 $-1 $25 $1 #
transform $-1 1 0 0 0 1 0 0 0 1 47.864009521774953 28.714607793671782 6.6956643058054937 1 rotate no_reflect no_shear #
lump $-1 $-1 $26 $2 #
transform $-1 1 0 0 0 1 0 0 0 1 47.864009521774953 28.714607793671782 6.6956643058054937 1 rotate no_reflect no_shear #
lump $-1 $-1 $27 $3 #
transform $-1 1 0 0 0 1 0 0 0 1 47.864009521774953 28.714607793671782 6.6956643058054937 1 rotate no_reflect no_shear #
lump $-1 $-1 $28 $4 #
transform $-1 1 0 0 0 1 0 0 0 1 47.864009521774953 28.714607793671782 6.6956643058054937 1 rotate no_reflect no_shear #
lump $-1 $-1 $29 $5 #
transform $-1 1 0 0 0 1 0 0 0 1 47.864009521774953 28.714607793671782 6.6956643058054937 1 rotate no_reflect no_shear #
lump $-1 $-1 $30 $6 #
transform $-1 1 0 0 0 1 0 0 0 1 47.864009521774953 28.714607793671782 6.6956643058054937 1 rotate no_reflect no_shear #
lump $-1 $-1 $31 $7 #
transform $-1 1 0 0 0 1 0 0 0 1 47.864009521774953 28.714607793671782 6.6956643058054937 1 rotate no_reflect no_shear #
shell $-1 $-1 $-1 $32 $-1 $8 #
shell $-1 $-1 $-1 $33 $-1 $10 #
shell $-1 $-1 $-1 $34 $-1 $12 #
shell $-1 $-1 $-1 $35 $-1 $14 #
shell $-1 $-1 $-1 $36 $-1 $16 #
shell $-1 $-1 $-1 $37 $-1 $18 #
shell $-1 $-1 $-1 $38 $-1 $20 #
shell $-1 $-1 $-1 $39 $-1 $22 #
face $-1 $40 $41 $24 $-1 $42 forward single #
face $-1 $43 $44 $25 $-1 $45 forward single #
face $-1 $46 $47 $26 $-1 $48 reversed single #
face $-1 $49 $50 $27 $-1 $51 forward single #
face $-1 $52 $53 $28 $-1 $54 forward single #
face $-1 $55 $56 $29 $-1 $57 reversed single #
face $-1 $58 $59 $30 $-1 $60 forward single #
face $-1 $61 $62 $31 $-1 $63 forward single #
face $-1 $64 $65 $24 $-1 $66 reversed single #
loop $-1 $-1 $67 $32 #
plane-surface $-1 0 0 6.6956643058054937 0 0 1 1 0 0 forward_v I I I I #
face $-1 $68 $69 $25 $-1 $70 reversed single #
loop $-1 $-1 $71 $33 #
plane-surface $-1 -47.864009521774953 0 0 1 0 0 0 0 -1 forward_v I I I I #
face $-1 $72 $73 $26 $-1 $74 reversed single #
loop $-1 $-1 $75 $34 #
plane-surface $-1 -41.224040588240044 77.720688808141603 102.1256114999528 1 0 0 0 -0.83867057594974714 -0.54463902268945019 forward_v I I I I #
face $-1 $76 $77 $27 $-1 $78 forward single #
loop $-1 $79 $80 $35 #
cone-surface $-1 -38.198133150063647 25.552157082207177 3.2334355074001477 0 -0.83867057594974714 -0.54463902268945019 1 0 0 1 I I 0 1 1 forward I I I I #
face $-1 $81 $82 $28 $-1 $83 forward single #
loop $-1 $84 $85 $36 #
cone-surface $-1 -33.659271992799042 25.552157082207177 3.2334355074001477 0 -0.83867057594974714 -0.54463902268945019 1 0 0 1 I I 0 1 1 forward I I I I #
face $-1 $86 $87 $29 $-1 $88 reversed single #
loop $-1 $-1 $89 $37 #
plane-surface $-1 37.273333488157562 77.720688808141603 102.1256114999528 1 0 0 0 -0.83867057594974714 -0.54463902268945019 forward_v I I I I #
face $-1 $90 $91 $30 $-1 $92 forward single #
loop $-1 $93 $94 $38 #
cone-surface $-1 40.299240926333958 25.552157082207177 3.2334355074001477 0 -0.83867057594974714 -0.54463902268945019 1 0 0 1 I I 0 1 1 forward I I I I #
face $-1 $95 $96 $31 $-1 $97 forward single #
loop $-1 $98 $99 $39 #
cone-surface $-1 44.838102083598564 25.552157082207177 3.2334355074001477 0 -0.83867057594974714 -0.54463902268945019 1 0 0 1 I I 0 1 1 forward I I I I #
face $-1 $100 $101 $24 $-1 $102 reversed single #
loop $-1 $-1 $103 $40 #
plane-surface $-1 0 0 -6.6956643058054937 0 0 1 1 0 0 forward_v I I I I #
coedge $-1 $104 $105 $106 $107 forward $41 $-1 #
face $-1 $108 $109 $25 $-1 $110 reversed single #
loop $-1 $-1 $111 $43 #
plane-surface $-1 0 28.714607793671782 0 0 -1 0 0 0 -1 forward_v I I I I #
coedge $-1 $112 $113 $114 $115 forward $44 $-1 #
face $-1 $116 $117 $26 $-1 $118 reversed single #
loop $-1 $-1 $119 $46 #
plane-surface $-1 -35.928702571431344 -2.5635840576407674 49.988396764076697 0 0.83867057594974714 0.54463902268945019 1 0 0 forward_v I I I I #
coedge $-1 $120 $121 $122 $123 reversed $47 $-1 #
face $-1 $-1 $124 $27 $-1 $125 forward single #
loop $-1 $126 $127 $49 #
cone-surface $-1 -38.198133150063647 23.55215286638024 1.934617625004293 0 -0.83867057594974714 -0.54463902268945019 0.5 0 0 1 I I -0.70710678118654746 0.70710678118654746 0.5 forward I I I I #
loop $-1 $-1 $128 $35 #
coedge $-1 $80 $80 $129 $130 reversed $50 $-1 #
face $-1 $-1 $131 $28 $-1 $132 forward single #
loop $-1 $133 $134 $52 #
cone-surface $-1 -33.659271992799042 23.55215286638024 1.934617625004293 0 -0.83867057594974714 -0.54463902268945019 0.5 0 0 1 I I -0.70710678118654746 0.70710678118654746 0.5 forward I I I I #
loop $-1 $-1 $135 $36 #
coedge $-1 $85 $85 $136 $137 reversed $53 $-1 #
face $-1 $138 $139 $29 $-1 $140 forward single #
loop $-1 $-1 $141 $55 #
plane-surface $-1 42.568671504966268 -2.5635840576407674 49.988396764076697 0 0.83867057594974714 0.54463902268945019 1 0 0 forward_v I I I I #
coedge $-1 $142 $143 $144 $145 reversed $56 $-1 #
face $-1 $-1 $146 $30 $-1 $147 forward single #
loop $-1 $148 $149 $58 #
cone-surface $-1 40.299240926333958 23.55215286638024 1.934617625004293 0 -0.83867057594974714 -0.54463902268945019 0.5 0 0 1 I I -0.70710678118654746 0.70710678118654746 0.5 forward I I I I #
loop $-1 $-1 $150 $38 #
coedge $-1 $94 $94 $151 $152 reversed $59 $-1 #
face $-1 $-1 $153 $31 $-1 $154 forward single #
loop $-1 $155 $156 $61 #
cone-surface $-1 44.838102083598564 23.55215286638024 1.934617625004293 0 -0.83867057594974714 -0.54463902268945019 0.5 0 0 1 I I -0.70710678118654746 0.70710678118654746 0.5 forward I I I I #
loop $-1 $-1 $157 $39 #
coedge $-1 $99 $99 $158 $159 reversed $62 $-1 #
face $-1 $160 $161 $24 $-1 $162 reversed single #
loop $-1 $-1 $163 $64 #
plane-surface $-1 0 -28.714607793671782 0 0 1 0 0 0 1 forward_v I I I I #
coedge $-1 $164 $165 $166 $167 forward $65 $-1 #
coedge $-1 $168 $67 $169 $170 forward $41 $-1 #
coedge $-1 $67 $168 $171 $172 forward $41 $-1 #
coedge $-1 $173 $174 $67 $107 reversed $175 $-1 #
edge $-1 $176 -28.714607793671782 $177 28.714607793671782 $106 $178 forward 7 unknown #
face $-1 $179 $180 $25 $-1 $181 reversed single #
loop $-1 $-1 $114 $68 #
plane-surface $-1 -51.183993988542404 0 3.5248942312431657 0 0 1 1 0 0 forward_v I I I I #
coedge $-1 $182 $183 $112 $184 forward $69 $-1 #
coedge $-1 $185 $71 $111 $184 reversed $44 $-1 #
coedge $-1 $71 $185 $186 $187 reversed $44 $-1 #
coedge $-1 $188 $189 $71 $115 reversed $109 $-1 #
edge $-1 $190 -28.714607793671782 $191 28.714607793671782 $114 $192 forward 7 unknown #
face $-1 $193 $194 $26 $-1 $195 forward single #
loop $-1 $-1 $196 $72 #
plane-surface $-1 -30.633364554622641 77.720688808141603 102.1256114999528 -1 0 0 0 0.83867057594974714 0.54463902268945019 forward_v I I I I #
coedge $-1 $197 $198 $199 $200 reversed $73 $-1 #
coedge $-1 $121 $75 $201 $202 reversed $47 $-1 #
coedge $-1 $75 $120 $197 $203 reversed $47 $-1 #
coedge $-1 $199 $204 $75 $123 forward $194 $-1 #
edge $-1 $205 10.14573661039902 $206 13.309300177624127 $122 $207 forward 7 unknown #
loop $-1 $-1 $129 $76 #
plane-surface $-1 -35.928702571431344 -2.5635840576407674 49.988396764076697 0 0.83867057594974714 0.54463902268945019 1 0 0 forward_v I I I I #
loop $-1 $-1 $208 $49 #
coedge $-1 $127 $127 $128 $209 reversed $77 $-1 #
coedge $-1 $128 $128 $127 $209 forward $79 $-1 #
coedge $-1 $129 $129 $80 $130 forward $124 $-1 #
edge $-1 $210 5.9061577017975664e-016 $210 6.2831853071796013 $129 $211 forward 7 unknown #
loop $-1 $-1 $136 $81 #
plane-surface $-1 -35.928702571431344 -2.5635840576407674 49.988396764076697 0 0.83867057594974714 0.54463902268945019 1 0 0 forward_v I I I I #
loop $-1 $-1 $212 $52 #
coedge $-1 $134 $134 $135 $213 reversed $82 $-1 #
coedge $-1 $135 $135 $134 $213 forward $84 $-1 #
coedge $-1 $136 $136 $85 $137 forward $131 $-1 #
edge $-1 $214 5.9061577017975664e-016 $214 6.2831853071796013 $136 $215 forward 7 unknown #
face $-1 $216 $217 $29 $-1 $218 reversed single #
loop $-1 $-1 $144 $86 #
plane-surface $-1 0 0 6.6956643058054937 0 0 1 1 0 0 forward_v I I I I #
coedge $-1 $219 $220 $221 $222 reversed $87 $-1 #
coedge $-1 $143 $89 $223 $224 reversed $56 $-1 #
coedge $-1 $89 $142 $219 $225 reversed $56 $-1 #
coedge $-1 $221 $226 $89 $145 forward $139 $-1 #
edge $-1 $227 10.14573661039902 $228 13.309300177624127 $144 $229 forward 7 unknown #
loop $-1 $-1 $151 $90 #
plane-surface $-1 42.568671504966268 -2.5635840576407674 49.988396764076697 0 0.83867057594974714 0.54463902268945019 1 0 0 forward_v I I I I #
loop $-1 $-1 $230 $58 #
coedge $-1 $149 $149 $150 $231 reversed $91 $-1 #
coedge $-1 $150 $150 $149 $231 forward $93 $-1 #
coedge $-1 $151 $151 $94 $152 forward $146 $-1 #
edge $-1 $232 5.9061577017975664e-016 $232 6.2831853071796013 $151 $233 forward 7 unknown #
loop $-1 $-1 $158 $95 #
plane-surface $-1 42.568671504966268 -2.5635840576407674 49.988396764076697 0 0.83867057594974714 0.54463902268945019 1 0 0 forward_v I I I I #
loop $-1 $-1 $234 $61 #
coedge $-1 $156 $156 $157 $235 reversed $96 $-1 #
coedge $-1 $157 $157 $156 $235 forward $98 $-1 #
coedge $-1 $158 $158 $99 $159 forward $153 $-1 #
edge $-1 $236 5.9061577017975664e-016 $236 6.2831853071796013 $158 $237 forward 7 unknown #
face $-1 $238 $239 $24 $-1 $240 reversed single #
loop $-1 $-1 $241 $100 #
plane-surface $-1 -47.864009521774953 0 0 1 0 0 0 0 -1 forward_v I I I I #
coedge $-1 $242 $171 $243 $244 forward $101 $-1 #
coedge $-1 $245 $103 $242 $246 forward $65 $-1 #
coedge $-1 $103 $245 $247 $248 forward $65 $-1 #
coedge $-1 $174 $173 $103 $167 reversed $175 $-1 #
edge $-1 $249 -28.714607793671782 $250 28.714607793671782 $166 $251 forward 7 unknown #
coedge $-1 $105 $104 $252 $253 forward $41 $-1 #
coedge $-1 $254 $255 $104 $170 reversed $239 $-1 #
edge $-1 $177 -47.864009521774953 $256 47.864009521774953 $169 $257 forward 7 unknown #
coedge $-1 $163 $258 $105 $172 reversed $101 $-1 #
edge $-1 $259 -47.864009521774953 $176 47.864009521774953 $171 $260 forward 7 unknown #
coedge $-1 $166 $106 $258 $261 forward $175 $-1 #
coedge $-1 $106 $166 $254 $262 reversed $175 $-1 #
loop $-1 $-1 $173 $238 #
vertex $-1 $107 $263 #
vertex $-1 $107 $264 #
straight-curve $-1 47.864009521774953 0 6.6956643058054937 0 1 0 I I #
face $-1 $265 $266 $25 $-1 $267 forward single #
loop $-1 $-1 $268 $108 #
plane-surface $-1 -54.503978455309856 0 5.1102792685243301 1 0 0 0 0 -1 forward_v I I I I #
coedge $-1 $269 $111 $189 $270 reversed $69 $-1 #
coedge $-1 $111 $269 $271 $272 reversed $69 $-1 #
edge $-1 $273 -6.6956643058054937 $191 -3.5248942312431657 $111 $274 forward 7 unknown #
coedge $-1 $113 $112 $275 $276 reversed $44 $-1 #
coedge $-1 $277 $278 $113 $187 forward $279 $-1 #
edge $-1 $190 3.5248942312431657 $280 6.6956643058054937 $186 $281 forward 7 unknown #
coedge $-1 $282 $114 $278 $283 forward $109 $-1 #
coedge $-1 $114 $282 $182 $270 forward $109 $-1 #
vertex $-1 $187 $284 #
vertex $-1 $184 $285 #
straight-curve $-1 -47.864009521774953 0 3.5248942312431657 0 1 0 I I #
face $-1 $-1 $286 $26 $-1 $287 reversed single #
loop $-1 $-1 $122 $116 #
plane-surface $-1 0 0 6.6956643058054937 0 0 1 1 0 0 forward_v I I I I #
coedge $-1 $288 $289 $290 $291 reversed $117 $-1 #
coedge $-1 $292 $119 $121 $203 forward $73 $-1 #
coedge $-1 $119 $292 $288 $293 forward $73 $-1 #
coedge $-1 $290 $122 $119 $200 forward $194 $-1 #
edge $-1 $206 -23.259689302524372 $294 -12.669013268906969 $199 $295 forward 7 unknown #
coedge $-1 $296 $297 $120 $202 forward $286 $-1 #
edge $-1 $298 -49.238602298879343 $205 -44.367141444170905 $201 $299 forward 7 unknown #
edge $-1 $206 51.620664537139177 $298 57.429215587343592 $121 $300 forward 7 unknown #
coedge $-1 $122 $290 $296 $301 forward $194 $-1 #
vertex $-1 $202 $302 #
vertex $-1 $123 $303 #
straight-curve $-1 -41.224040588240044 38.860344404070801 6.6956643058054937 0 -1 0 I I #
coedge $-1 $208 $208 $-1 $304 reversed $126 $-1 #
edge $-1 $305 0 $305 6.2831853071796004 $127 $306 forward 7 unknown #
vertex $-1 $130 $307 #
ellipse-curve $-1 -38.198133150063647 27.13282601005923 4.2599338784512719 0 0.83867057594974714 0.54463902268945019 1 0 0 1 I I #
coedge $-1 $212 $212 $-1 $308 reversed $133 $-1 #
edge $-1 $309 0 $309 6.2831853071796004 $134 $310 forward 7 unknown #
vertex $-1 $137 $311 #
ellipse-curve $-1 -33.659271992799042 27.13282601005923 4.2599338784512719 0 0.83867057594974714 0.54463902268945019 1 0 0 1 I I #
face $-1 $-1 $312 $29 $-1 $313 reversed single #
loop $-1 $-1 $223 $138 #
plane-surface $-1 0 28.714607793671782 0 0 -1 0 0 0 -1 forward_v I I I I #
coedge $-1 $314 $141 $143 $225 forward $87 $-1 #
coedge $-1 $141 $314 $315 $316 reversed $87 $-1 #
coedge $-1 $317 $144 $141 $222 forward $139 $-1 #
edge $-1 $228 15.988997735674428 $318 26.579673769291841 $221 $319 forward 7 unknown #
coedge $-1 $320 $321 $142 $224 forward $217 $-1 #
edge $-1 $322 -49.238602298879343 $227 -44.367141444170905 $223 $323 forward 7 unknown #
edge $-1 $228 51.620664537139177 $322 57.429215587343592 $143 $324 forward 7 unknown #
coedge $-1 $144 $317 $320 $325 forward $139 $-1 #
vertex $-1 $145 $326 #
vertex $-1 $145 $327 #
straight-curve $-1 37.273333488157562 38.860344404070801 6.6956643058054937 0 -1 0 I I #
coedge $-1 $230 $230 $-1 $328 reversed $148 $-1 #
edge $-1 $329 0 $329 6.2831853071796004 $149 $330 forward 7 unknown #
vertex $-1 $152 $331 #
ellipse-curve $-1 40.299240926333958 27.13282601005923 4.2599338784512719 0 0.83867057594974714 0.54463902268945019 1 0 0 1 I I #
coedge $-1 $234 $234 $-1 $332 reversed $155 $-1 #
edge $-1 $333 0 $333 6.2831853071796004 $156 $334 forward 7 unknown #
vertex $-1 $159 $335 #
ellipse-curve $-1 44.838102083598564 27.13282601005923 4.2599338784512719 0 0.83867057594974714 0.54463902268945019 1 0 0 1 I I #
face $-1 $-1 $175 $24 $-1 $336 reversed single #
loop $-1 $-1 $254 $160 #
plane-surface $-1 0 28.714607793671782 0 0 -1 0 0 0 -1 forward_v I I I I #
coedge $-1 $337 $252 $255 $338 forward $161 $-1 #
coedge $-1 $258 $163 $164 $246 reversed $101 $-1 #
coedge $-1 $252 $337 $163 $244 reversed $161 $-1 #
edge $-1 $259 -6.6956643058054937 $339 6.6956643058054937 $243 $340 forward 7 unknown #
coedge $-1 $165 $164 $337 $341 forward $65 $-1 #
edge $-1 $250 -47.864009521774953 $339 47.864009521774953 $242 $342 forward 7 unknown #
coedge $-1 $255 $254 $165 $248 reversed $239 $-1 #
edge $-1 $343 -47.864009521774953 $249 47.864009521774953 $247 $344 forward 7 unknown #
vertex $-1 $167 $345 #
vertex $-1 $261 $346 #
straight-curve $-1 47.864009521774953 0 -6.6956643058054937 0 -1 0 I I #
coedge $-1 $241 $243 $168 $253 reversed $161 $-1 #
edge $-1 $256 -28.714607793671782 $259 28.714607793671782 $252 $347 forward 7 unknown #
coedge $-1 $247 $169 $174 $262 forward $239 $-1 #
coedge $-1 $169 $247 $241 $338 reversed $239 $-1 #
vertex $-1 $170 $348 #
straight-curve $-1 0 28.714607793671782 6.6956643058054937 -1 0 0 I I #
coedge $-1 $171 $242 $173 $261 reversed $101 $-1 #
vertex $-1 $253 $349 #
straight-curve $-1 0 -28.714607793671782 6.6956643058054937 1 0 0 I I #
edge $-1 $176 -6.6956643058054937 $250 6.6956643058054937 $173 $350 forward 7 unknown #
edge $-1 $177 -6.6956643058054937 $249 6.6956643058054937 $174 $351 forward 7 unknown #
point $-1 47.864009521774953 -28.714607793671782 6.6956643058054937 #
point $-1 47.864009521774953 28.714607793671782 6.6956643058054937 #
face $-1 $-1 $279 $25 $-1 $352 reversed single #
loop $-1 $-1 $275 $179 #
plane-surface $-1 0 0 6.6956643058054937 0 0 1 1 0 0 forward_v I I I I #
coedge $-1 $353 $354 $269 $355 forward $180 $-1 #
coedge $-1 $183 $182 $268 $355 reversed $69 $-1 #
edge $-1 $356 -3.3199844667674512 $191 3.3199844667674512 $182 $357 forward 7 unknown #
coedge $-1 $358 $275 $183 $272 forward $266 $-1 #
edge $-1 $273 47.864009521774953 $359 54.503978455309856 $183 $360 forward 7 unknown #
vertex $-1 $272 $361 #
straight-curve $-1 -47.864009521774953 28.714607793671782 0 0 0 -1 I I #
coedge $-1 $271 $362 $185 $276 forward $266 $-1 #
edge $-1 $280 -28.714607793671782 $273 28.714607793671782 $275 $363 forward 7 unknown #
coedge $-1 $364 $186 $362 $365 reversed $279 $-1 #
coedge $-1 $186 $364 $188 $283 reversed $279 $-1 #
loop $-1 $-1 $186 $265 #
vertex $-1 $187 $366 #
straight-curve $-1 -47.864009521774953 -28.714607793671782 0 0 0 1 I I #
coedge $-1 $189 $188 $353 $367 forward $109 $-1 #
edge $-1 $190 -3.3199844667674512 $368 3.3199844667674512 $278 $369 forward 7 unknown #
point $-1 -47.864009521774953 -28.714607793671782 3.5248942312431657 #
point $-1 -47.864009521774953 28.714607793671782 3.5248942312431657 #
loop $-1 $-1 $201 $193 #
plane-surface $-1 0 28.714607793671782 0 0 -1 0 0 0 -1 forward_v I I I I #
coedge $-1 $289 $196 $198 $293 reversed $117 $-1 #
coedge $-1 $196 $288 $370 $371 reversed $117 $-1 #
coedge $-1 $204 $199 $196 $291 forward $194 $-1 #
edge $-1 $294 -13.309300177624127 $372 -10.14573661039902 $290 $373 forward 7 unknown #
coedge $-1 $198 $197 $297 $374 reversed $73 $-1 #
edge $-1 $375 -57.429215587343592 $294 -51.620664537139177 $288 $376 forward 7 unknown #
vertex $-1 $200 $377 #
straight-curve $-1 -17.964351285715672 25.55104422644667 6.6956643058054937 1 0 0 I I #
coedge $-1 $370 $201 $204 $301 reversed $286 $-1 #
coedge $-1 $201 $370 $292 $374 forward $286 $-1 #
vertex $-1 $202 $378 #
straight-curve $-1 -41.224040588240044 28.714607793671782 51.062805749976398 0 0 1 I I #
straight-curve $-1 -41.224040588240044 -2.5635840576407674 49.988396764076697 0 0.54463902268945019 -0.83867057594974714 I I #
edge $-1 $372 30.633364554622641 $205 41.224040588240044 $296 $379 forward 7 unknown #
point $-1 -41.224040588240044 28.714607793671782 6.6956643058054937 #
point $-1 -41.224040588240044 25.551044226446674 6.6956643058054937 #
edge $-1 $380 1 $380 0 $208 $-1 forward 7 unknown #
vertex $-1 $209 $381 #
ellipse-curve $-1 -38.198133150063647 23.971488154355114 2.2069371363490182 0 0.83867057594974714 0.54463902268945019 1 0 0 1 I I #
point $-1 -37.198133150063647 27.13282601005924 4.2599338784512781 #
edge $-1 $382 1 $382 0 $212 $-1 forward 7 unknown #
vertex $-1 $213 $383 #
ellipse-curve $-1 -33.659271992799042 23.971488154355114 2.2069371363490182 0 0.83867057594974714 0.54463902268945019 1 0 0 1 I I #
point $-1 -32.659271992799042 27.13282601005924 4.2599338784512781 #
loop $-1 $-1 $315 $216 #
plane-surface $-1 47.864009521774953 0 0 -1 0 0 0 0 1 forward_v I I I I #
coedge $-1 $220 $219 $321 $384 reversed $87 $-1 #
coedge $-1 $385 $386 $220 $316 forward $312 $-1 #
edge $-1 $318 29.960651826804977 $387 35.769202877009384 $315 $388 forward 7 unknown #
coedge $-1 $226 $221 $386 $389 forward $139 $-1 #
vertex $-1 $389 $390 #
straight-curve $-1 21.284335752483134 25.55104422644667 6.6956643058054937 1 0 0 I I #
coedge $-1 $391 $223 $226 $325 reversed $217 $-1 #
coedge $-1 $223 $391 $314 $384 forward $217 $-1 #
vertex $-1 $224 $392 #
straight-curve $-1 37.273333488157562 28.714607793671782 51.062805749976398 0 0 1 I I #
straight-curve $-1 37.273333488157562 -2.5635840576407674 49.988396764076697 0 0.54463902268945019 -0.83867057594974714 I I #
edge $-1 $393 -47.864009521774953 $227 -37.273333488157562 $320 $394 forward 7 unknown #
point $-1 37.273333488157562 28.714607793671782 6.6956643058054937 #
point $-1 37.273333488157562 25.551044226446674 6.6956643058054937 #
edge $-1 $395 1 $395 0 $230 $-1 forward 7 unknown #
vertex $-1 $231 $396 #
ellipse-curve $-1 40.299240926333958 23.971488154355114 2.2069371363490182 0 0.83867057594974714 0.54463902268945019 1 0 0 1 I I #
point $-1 41.299240926333958 27.13282601005924 4.2599338784512781 #
edge $-1 $397 1 $397 0 $234 $-1 forward 7 unknown #
vertex $-1 $235 $398 #
ellipse-curve $-1 44.838102083598564 23.971488154355114 2.2069371363490182 0 0.83867057594974714 0.54463902268945019 1 0 0 1 I I #
point $-1 45.838102083598564 27.13282601005924 4.2599338784512781 #
plane-surface $-1 47.864009521774953 0 0 -1 0 0 0 0 1 forward_v I I I I #
coedge $-1 $243 $241 $245 $341 reversed $161 $-1 #
edge $-1 $256 -6.6956643058054937 $343 6.6956643058054937 $255 $399 forward 7 unknown #
vertex $-1 $341 $400 #
straight-curve $-1 -47.864009521774953 -28.714607793671782 0 0 0 -1 I I #
edge $-1 $339 -28.714607793671782 $343 28.714607793671782 $337 $401 forward 7 unknown #
straight-curve $-1 0 -28.714607793671782 -6.6956643058054937 -1 0 0 I I #
vertex $-1 $248 $402 #
straight-curve $-1 0 28.714607793671782 -6.6956643058054937 1 0 0 I I #
point $-1 47.864009521774953 28.714607793671782 -6.6956643058054937 #
point $-1 47.864009521774953 -28.714607793671782 -6.6956643058054937 #
straight-curve $-1 -47.864009521774953 0 6.6956643058054937 0 -1 0 I I #
point $-1 -47.864009521774953 28.714607793671782 6.6956643058054937 #
point $-1 -47.864009521774953 -28.714607793671782 6.6956643058054937 #
straight-curve $-1 47.864009521774953 -28.714607793671782 0 0 0 -1 I I #
straight-curve $-1 47.864009521774953 28.714607793671782 0 0 0 -1 I I #
plane-surface $-1 0 -28.714607793671782 0 0 1 0 0 0 1 forward_v I I I I #
coedge $-1 $403 $268 $282 $367 reversed $180 $-1 #
coedge $-1 $268 $403 $358 $404 reversed $180 $-1 #
edge $-1 $359 -1.5853850372811644 $356 1.5853850372811644 $269 $405 forward 7 unknown #
vertex $-1 $270 $406 #
straight-curve $-1 -51.183993988542404 28.714607793671782 3.5248942312431657 1 0 0 I I #
coedge $-1 $362 $271 $354 $404 forward $266 $-1 #
vertex $-1 $272 $407 #
straight-curve $-1 0 28.714607793671782 6.6956643058054937 -1 0 0 I I #
point $-1 -47.864009521774953 28.714607793671782 6.6956643058054937 #
coedge $-1 $275 $358 $277 $365 forward $266 $-1 #
straight-curve $-1 -47.864009521774953 0 6.6956643058054937 0 1 0 I I #
coedge $-1 $278 $277 $403 $408 forward $279 $-1 #
edge $-1 $409 -54.503978455309856 $280 -47.864009521774953 $277 $410 forward 7 unknown #
point $-1 -47.864009521774953 -28.714607793671782 6.6956643058054937 #
edge $-1 $368 -28.714607793671782 $356 28.714607793671782 $353 $411 forward 7 unknown #
vertex $-1 $367 $412 #
straight-curve $-1 -51.183993988542404 -28.714607793671782 3.5248942312431657 -1 0 0 I I #
coedge $-1 $297 $296 $289 $371 forward $286 $-1 #
edge $-1 $372 44.367141444170905 $375 49.238602298879343 $370 $413 forward 7 unknown #
vertex $-1 $301 $414 #
straight-curve $-1 -30.633364554622641 38.860344404070801 6.6956643058054937 0 1 0 I I #
edge $-1 $375 12.669013268906969 $298 23.259689302524372 $297 $415 forward 7 unknown #
vertex $-1 $374 $416 #
straight-curve $-1 -30.633364554622641 -2.5635840576407674 49.988396764076697 0 -0.54463902268945019 0.83867057594974714 I I #
point $-1 -30.633364554622641 25.551044226446674 6.6956643058054937 #
point $-1 -41.224040588240044 28.714607793671782 1.8242034510970555 #
straight-curve $-1 0 28.714607793671782 6.6956643058054937 -1 0 0 I I #
vertex $-1 $304 $417 #
point $-1 -37.198133150063647 23.971488154355114 2.2069371363490182 #
vertex $-1 $308 $418 #
point $-1 -32.659271992799042 23.971488154355114 2.2069371363490182 #
edge $-1 $387 -26.579673769291841 $322 -15.988997735674428 $321 $419 forward 7 unknown #
coedge $-1 $386 $315 $391 $420 reversed $312 $-1 #
coedge $-1 $315 $385 $317 $389 reversed $312 $-1 #
vertex $-1 $316 $421 #
straight-curve $-1 47.864009521774953 9.2333040963567221 31.82278142922187 0 0.54463902268945019 -0.83867057594974714 I I #
edge $-1 $318 25.551044226446674 $393 28.714607793671782 $386 $422 forward 7 unknown #
point $-1 47.864009521774975 25.551044226446674 6.6956643058054937 #
coedge $-1 $321 $320 $385 $420 forward $217 $-1 #
point $-1 37.273333488157562 28.714607793671782 1.8242034510970555 #
vertex $-1 $389 $423 #
straight-curve $-1 0 28.714607793671782 6.6956643058054937 -1 0 0 I I #
vertex $-1 $328 $424 #
point $-1 41.299240926333958 23.971488154355114 2.2069371363490182 #
vertex $-1 $332 $425 #
point $-1 45.838102083598564 23.971488154355114 2.2069371363490182 #
straight-curve $-1 -47.864009521774953 28.714607793671782 0 0 0 -1 I I #
point $-1 -47.864009521774953 -28.714607793671782 -6.6956643058054937 #
straight-curve $-1 -47.864009521774953 0 -6.6956643058054937 0 1 0 I I #
point $-1 -47.864009521774953 28.714607793671782 -6.6956643058054937 #
coedge $-1 $354 $353 $364 $408 reversed $180 $-1 #
edge $-1 $359 -28.714607793671782 $409 28.714607793671782 $354 $426 forward 7 unknown #
straight-curve $-1 -54.503978455309856 28.714607793671782 5.1102792685243301 0 0 -1 I I #
point $-1 -54.503978455309856 28.714607793671782 3.5248942312431657 #
point $-1 -54.503978455309856 28.714607793671782 6.6956643058054945 #
edge $-1 $409 -1.5853850372811644 $368 1.5853850372811644 $403 $427 forward 7 unknown #
vertex $-1 $404 $428 #
straight-curve $-1 0 -28.714607793671782 6.6956643058054937 1 0 0 I I #
straight-curve $-1 -54.503978455309856 0 3.5248942312431657 0 1 0 I I #
point $-1 -54.503978455309856 -28.714607793671782 3.5248942312431657 #
straight-curve $-1 -30.633364554622641 28.714607793671782 51.062805749976398 0 0 -1 I I #
point $-1 -30.633364554622641 28.714607793671782 6.6956643058054937 #
straight-curve $-1 -17.964351285715672 28.714607793671782 1.8242034510970591 -1 0 0 I I #
point $-1 -30.633364554622641 28.714607793671782 1.8242034510970555 #
point $-1 -38.198133150063647 23.132817578405366 1.6622981136595678 #
point $-1 -33.659271992799042 23.132817578405366 1.6622981136595678 #
straight-curve $-1 21.284335752483134 28.714607793671782 1.8242034510970591 -1 0 0 I I #
edge $-1 $393 -6.6956643058054937 $387 -1.8242034510970555 $385 $429 forward 7 unknown #
point $-1 47.864009521774975 28.714607793671782 1.8242034510970555 #
straight-curve $-1 47.864009521774953 0 6.6956643058054937 0 1 0 I I #
point $-1 47.864009521774953 28.714607793671782 6.6956643058054937 #
point $-1 40.299240926333958 23.132817578405366 1.6622981136595678 #
point $-1 44.838102083598564 23.132817578405366 1.6622981136595678 #
straight-curve $-1 -54.503978455309856 0 6.6956643058054945 0 -1 0 I I #
straight-curve $-1 -54.503978455309856 -28.714607793671782 5.1102792685243301 0 0 -1 I I #
point $-1 -54.503978455309856 -28.714607793671782 6.6956643058054945 #
straight-curve $-1 47.864009521774953 28.714607793671782 0 0 0 -1 I I #
End-of-ACIS-data 