500 0 5 0           
7 Unknown 11 ACIS 5.0 NT 24 Thu Mar 25 19:53:08 1999 
-1 9.9999999999999995e-007 1e-010 
body $-1 $5 $-1 $6 #
body $-1 $7 $-1 $8 #
body $-1 $9 $-1 $10 #
body $-1 $11 $-1 $12 #
body $-1 $13 $-1 $14 #
lump $-1 $-1 $15 $0 #
transform $-1 1 0 0 0 1 0 0 0 1 74.850917081209758 44.339922510852801 10.257167657468313 1 rotate no_reflect no_shear #
lump $-1 $-1 $16 $1 #
transform $-1 1 0 0 0 1 0 0 0 1 74.850917081209758 44.339922510852801 10.257167657468313 1 rotate no_reflect no_shear #
lump $-1 $-1 $17 $2 #
transform $-1 1 0 0 0 1 0 0 0 1 74.850917081209758 44.339922510852801 10.257167657468313 1 rotate no_reflect no_shear #
lump $-1 $-1 $18 $3 #
transform $-1 1 0 0 0 1 0 0 0 1 74.850917081209758 44.339922510852801 10.257167657468313 1 rotate no_reflect no_shear #
lump $-1 $-1 $19 $4 #
transform $-1 1 0 0 0 1 0 0 0 1 74.850917081209758 44.339922510852801 10.257167657468313 1 rotate no_reflect no_shear #
shell $-1 $-1 $-1 $20 $-1 $5 #
shell $-1 $-1 $-1 $21 $-1 $7 #
shell $-1 $-1 $-1 $22 $-1 $9 #
shell $-1 $-1 $-1 $23 $-1 $11 #
shell $-1 $-1 $-1 $24 $-1 $13 #
face $-1 $25 $26 $15 $-1 $27 forward single #
face $-1 $28 $29 $16 $-1 $30 forward single #
face $-1 $31 $32 $17 $-1 $33 reversed single #
face $-1 $34 $35 $18 $-1 $36 forward single #
face $-1 $37 $38 $19 $-1 $39 forward single #
face $-1 $40 $41 $15 $-1 $42 reversed single #
loop $-1 $-1 $43 $20 #
plane-surface $-1 0 0 10.257167657468313 0 0 1 1 0 0 forward_v I I I I #
face $-1 $44 $45 $16 $-1 $46 reversed single #
loop $-1 $-1 $47 $21 #
plane-surface $-1 -68.85687397085124 0 -4.8928383237187649 0 0 1 1 0 0 forward_v I I I I #
face $-1 $48 $49 $17 $-1 $50 reversed single #
loop $-1 $-1 $51 $22 #
plane-surface $-1 122.47538980492106 8.6914767856758104 207.14756156390132 0 -1 0 -0.84804810408105047 0 -0.52991925155115449 forward_v I I I I #
face $-1 $52 $53 $18 $-1 $54 forward single #
loop $-1 $55 $56 $23 #
cone-surface $-1 71.222584418715485 -2.2881001355685839 5.1269791061695127 -0.84804810408105047 0 -0.52991925155115449 0.52991925155115449 0 -0.84804810408105047 1 I I 0 1 1 forward I I I I #
face $-1 $57 $58 $19 $-1 $59 forward single #
loop $-1 $60 $61 $24 #
cone-surface $-1 71.222584418715485 4.2996460171780555 5.1269791061695127 -0.84804810408105047 0 -0.52991925155115449 0.52991925155115449 0 -0.84804810408105047 1 I I 0 1 1 forward I I I I #
face $-1 $62 $63 $15 $-1 $64 reversed single #
loop $-1 $-1 $65 $25 #
plane-surface $-1 0 0 -10.257167657468313 0 0 1 1 0 0 forward_v I I I I #
coedge $-1 $66 $67 $68 $69 forward $26 $-1 #
face $-1 $70 $71 $16 $-1 $72 reversed single #
loop $-1 $-1 $73 $28 #
plane-surface $-1 -62.862830860492721 0 -7.5750029905935392 -1 0 0 0 0 1 forward_v I I I I #
coedge $-1 $74 $75 $76 $77 forward $29 $-1 #
face $-1 $78 $79 $17 $-1 $80 reversed single #
loop $-1 $-1 $81 $31 #
plane-surface $-1 -4.4789668339746385 1.0057729408047322 127.81767764871692 0.84804810408105047 0 0.52991925155115449 0.52991925155115449 0 -0.84804810408105047 forward_v I I I I #
coedge $-1 $82 $83 $84 $85 reversed $32 $-1 #
face $-1 $-1 $86 $18 $-1 $87 forward single #
loop $-1 $88 $89 $34 #
cone-surface $-1 70.105191039840548 -2.2881001355685839 4.4287542529186954 -0.84804810408105047 0 -0.52991925155115449 0.26495962577557725 0 -0.42402405204052523 1 I I -0.70710678118654746 0.70710678118654746 0.5 forward I I I I #
loop $-1 $-1 $90 $23 #
coedge $-1 $56 $56 $91 $92 reversed $35 $-1 #
face $-1 $-1 $93 $19 $-1 $94 forward single #
loop $-1 $95 $96 $37 #
cone-surface $-1 70.105191039840548 4.2996460171780555 4.4287542529186954 -0.84804810408105047 0 -0.52991925155115449 0.26495962577557725 0 -0.42402405204052523 1 I I -0.70710678118654746 0.70710678118654746 0.5 forward I I I I #
loop $-1 $-1 $97 $24 #
coedge $-1 $61 $61 $98 $99 reversed $38 $-1 #
face $-1 $100 $101 $15 $-1 $102 reversed single #
loop $-1 $-1 $103 $40 #
plane-surface $-1 0 -44.339922510852801 0 0 1 0 0 0 1 forward_v I I I I #
coedge $-1 $104 $105 $106 $107 forward $41 $-1 #
coedge $-1 $108 $43 $109 $110 forward $26 $-1 #
coedge $-1 $43 $108 $111 $112 forward $26 $-1 #
coedge $-1 $113 $114 $43 $69 reversed $115 $-1 #
edge $-1 $116 -44.339922510852801 $117 44.339922510852801 $68 $118 forward 7 unknown #
face $-1 $119 $120 $16 $-1 $121 reversed single #
loop $-1 $-1 $122 $44 #
plane-surface $-1 0 0 -10.257167657468313 0 0 1 1 0 0 forward_v I I I I #
coedge $-1 $123 $76 $124 $125 reversed $45 $-1 #
coedge $-1 $126 $47 $127 $128 reversed $29 $-1 #
coedge $-1 $47 $126 $129 $130 reversed $29 $-1 #
coedge $-1 $73 $131 $47 $77 reversed $45 $-1 #
edge $-1 $132 -44.339922510852801 $133 44.339922510852801 $76 $134 forward 7 unknown #
face $-1 $135 $136 $17 $-1 $137 forward single #
loop $-1 $-1 $138 $48 #
plane-surface $-1 122.47538980492106 -6.6799309040663459 207.14756156390132 0 1 0 0.84804810408105047 0 0.52991925155115449 forward_v I I I I #
coedge $-1 $139 $140 $141 $142 reversed $49 $-1 #
coedge $-1 $83 $51 $143 $144 reversed $32 $-1 #
coedge $-1 $51 $82 $139 $145 reversed $32 $-1 #
coedge $-1 $141 $146 $51 $85 forward $136 $-1 #
edge $-1 $147 -13.613222178749226 $148 -7.7432955074295222 $84 $149 forward 7 unknown #
loop $-1 $-1 $91 $52 #
plane-surface $-1 -4.4789668339746385 1.0057729408047322 127.81767764871692 0.84804810408105047 0 0.52991925155115449 0.52991925155115449 0 -0.84804810408105047 forward_v I I I I #
loop $-1 $-1 $150 $34 #
coedge $-1 $89 $89 $90 $151 reversed $53 $-1 #
coedge $-1 $90 $90 $89 $151 forward $55 $-1 #
coedge $-1 $91 $91 $56 $92 forward $86 $-1 #
edge $-1 $152 0 $152 6.2831853071796004 $91 $153 forward 7 unknown #
loop $-1 $-1 $98 $57 #
plane-surface $-1 -4.4789668339746385 1.0057729408047322 127.81767764871692 0.84804810408105047 0 0.52991925155115449 0.52991925155115449 0 -0.84804810408105047 forward_v I I I I #
loop $-1 $-1 $154 $37 #
coedge $-1 $96 $96 $97 $155 reversed $58 $-1 #
coedge $-1 $97 $97 $96 $155 forward $60 $-1 #
coedge $-1 $98 $98 $61 $99 forward $93 $-1 #
edge $-1 $156 0 $156 6.2831853071796004 $98 $157 forward 7 unknown #
face $-1 $158 $159 $15 $-1 $160 reversed single #
loop $-1 $-1 $161 $62 #
plane-surface $-1 -74.850917081209758 0 0 1 0 0 0 0 -1 forward_v I I I I #
coedge $-1 $162 $111 $163 $164 forward $63 $-1 #
coedge $-1 $165 $65 $162 $166 forward $41 $-1 #
coedge $-1 $65 $165 $167 $168 forward $41 $-1 #
coedge $-1 $114 $113 $65 $107 reversed $115 $-1 #
edge $-1 $169 -44.339922510852801 $170 44.339922510852801 $106 $171 forward 7 unknown #
coedge $-1 $67 $66 $172 $173 forward $26 $-1 #
coedge $-1 $174 $175 $66 $110 reversed $159 $-1 #
edge $-1 $117 -74.850917081209758 $176 74.850917081209758 $109 $177 forward 7 unknown #
coedge $-1 $103 $178 $67 $112 reversed $63 $-1 #
edge $-1 $179 -74.850917081209758 $116 74.850917081209758 $111 $180 forward 7 unknown #
coedge $-1 $106 $68 $178 $181 forward $115 $-1 #
coedge $-1 $68 $106 $174 $182 reversed $115 $-1 #
loop $-1 $-1 $113 $158 #
vertex $-1 $69 $183 #
vertex $-1 $69 $184 #
straight-curve $-1 74.850917081209758 0 10.257167657468313 0 1 0 I I #
face $-1 $185 $186 $16 $-1 $187 reversed single #
loop $-1 $-1 $124 $70 #
plane-surface $-1 0 -44.339922510852801 0 0 1 0 0 0 1 forward_v I I I I #
coedge $-1 $188 $189 $123 $190 forward $71 $-1 #
coedge $-1 $131 $73 $122 $190 reversed $45 $-1 #
coedge $-1 $129 $191 $73 $125 forward $120 $-1 #
edge $-1 $192 -6.4696661621715439 $132 -1.1053368284219953 $124 $193 forward 7 unknown #
coedge $-1 $75 $74 $194 $195 reversed $29 $-1 #
coedge $-1 $196 $197 $74 $128 forward $198 $-1 #
edge $-1 $199 -40.422480095784138 $133 -28.434393875067101 $127 $200 forward 7 unknown #
coedge $-1 $201 $124 $75 $130 forward $120 $-1 #
edge $-1 $132 28.434393875067101 $202 40.422480095784138 $129 $203 forward 7 unknown #
coedge $-1 $76 $123 $196 $204 reversed $45 $-1 #
vertex $-1 $130 $205 #
vertex $-1 $128 $206 #
straight-curve $-1 -62.862830860492721 0 -4.8928383237187649 0 1 0 I I #
face $-1 $-1 $207 $17 $-1 $208 reversed single #
loop $-1 $-1 $84 $78 #
plane-surface $-1 0 0 10.257167657468313 0 0 1 1 0 0 forward_v I I I I #
coedge $-1 $209 $210 $211 $212 reversed $79 $-1 #
coedge $-1 $213 $81 $83 $145 forward $49 $-1 #
coedge $-1 $81 $213 $209 $214 forward $49 $-1 #
coedge $-1 $211 $84 $81 $142 forward $136 $-1 #
edge $-1 $148 -8.1885903152734443 $215 7.182817374468712 $141 $216 forward 7 unknown #
coedge $-1 $217 $218 $82 $144 forward $207 $-1 #
edge $-1 $219 -102.71045977212944 $147 -93.316613124482345 $143 $220 forward 7 unknown #
edge $-1 $148 138.62481317452836 $219 149.70183416241952 $83 $221 forward 7 unknown #
coedge $-1 $84 $211 $217 $222 forward $136 $-1 #
vertex $-1 $144 $223 #
vertex $-1 $85 $224 #
straight-curve $-1 61.237694902460532 8.6914767856758104 10.257167657468315 -1 0 0 I I #
coedge $-1 $150 $150 $-1 $225 reversed $88 $-1 #
edge $-1 $226 0 $226 6.2831853071796004 $89 $227 forward 7 unknown #
vertex $-1 $92 $228 #
ellipse-curve $-1 71.915953745549913 -2.2881001355685839 5.5602443336447562 0.84804810408105047 0 0.52991925155115449 0.52991925155115449 0 -0.84804810408105047 1 I I #
coedge $-1 $154 $154 $-1 $229 reversed $95 $-1 #
edge $-1 $230 0 $230 6.2831853071796004 $96 $231 forward 7 unknown #
vertex $-1 $99 $232 #
ellipse-curve $-1 71.915953745549913 4.2996460171780555 5.5602443336447562 0.84804810408105047 0 0.52991925155115449 0.52991925155115449 0 -0.84804810408105047 1 I I #
face $-1 $-1 $115 $15 $-1 $233 reversed single #
loop $-1 $-1 $174 $100 #
plane-surface $-1 0 44.339922510852801 0 0 -1 0 0 0 -1 forward_v I I I I #
coedge $-1 $234 $172 $175 $235 forward $101 $-1 #
coedge $-1 $178 $103 $104 $166 reversed $63 $-1 #
coedge $-1 $172 $234 $103 $164 reversed $101 $-1 #
edge $-1 $179 -10.257167657468313 $236 10.257167657468313 $163 $237 forward 7 unknown #
coedge $-1 $105 $104 $234 $238 forward $41 $-1 #
edge $-1 $170 -74.850917081209758 $236 74.850917081209758 $162 $239 forward 7 unknown #
coedge $-1 $175 $174 $105 $168 reversed $159 $-1 #
edge $-1 $240 -74.850917081209758 $169 74.850917081209758 $167 $241 forward 7 unknown #
vertex $-1 $107 $242 #
vertex $-1 $181 $243 #
straight-curve $-1 74.850917081209758 0 -10.257167657468313 0 -1 0 I I #
coedge $-1 $161 $163 $108 $173 reversed $101 $-1 #
edge $-1 $176 -44.339922510852801 $179 44.339922510852801 $172 $244 forward 7 unknown #
coedge $-1 $167 $109 $114 $182 forward $159 $-1 #
coedge $-1 $109 $167 $161 $235 reversed $159 $-1 #
vertex $-1 $110 $245 #
straight-curve $-1 0 44.339922510852801 10.257167657468313 -1 0 0 I I #
coedge $-1 $111 $162 $113 $181 reversed $63 $-1 #
vertex $-1 $173 $246 #
straight-curve $-1 0 -44.339922510852801 10.257167657468313 1 0 0 I I #
edge $-1 $116 -10.257167657468313 $170 10.257167657468313 $113 $247 forward 7 unknown #
edge $-1 $117 -10.257167657468313 $169 10.257167657468313 $114 $248 forward 7 unknown #
point $-1 74.850917081209758 -44.339922510852801 10.257167657468313 #
point $-1 74.850917081209758 44.339922510852801 10.257167657468313 #
face $-1 $-1 $198 $16 $-1 $249 reversed single #
loop $-1 $-1 $194 $119 #
plane-surface $-1 -74.850917081209758 0 0 1 0 0 0 0 -1 forward_v I I I I #
coedge $-1 $250 $122 $191 $251 forward $71 $-1 #
coedge $-1 $122 $250 $252 $253 forward $71 $-1 #
edge $-1 $254 -44.339922510852801 $192 44.339922510852801 $122 $255 forward 7 unknown #
coedge $-1 $124 $201 $188 $251 reversed $120 $-1 #
vertex $-1 $251 $256 #
straight-curve $-1 -62.862830860492721 -44.339922510852801 -3.7875014952967696 0 0 1 I I #
coedge $-1 $257 $258 $126 $195 forward $186 $-1 #
edge $-1 $202 -44.339922510852801 $199 44.339922510852801 $194 $259 forward 7 unknown #
coedge $-1 $252 $127 $131 $204 forward $198 $-1 #
coedge $-1 $127 $252 $257 $260 reversed $198 $-1 #
loop $-1 $-1 $196 $185 #
vertex $-1 $260 $261 #
straight-curve $-1 -34.42843698542562 44.339922510852801 -4.8928383237187649 1 0 0 I I #
coedge $-1 $191 $129 $258 $262 forward $120 $-1 #
vertex $-1 $262 $263 #
straight-curve $-1 -34.42843698542562 -44.339922510852801 -4.8928383237187649 -1 0 0 I I #
edge $-1 $133 1.1053368284219953 $254 6.4696661621715439 $196 $264 forward 7 unknown #
point $-1 -62.862830860492721 -44.339922510852801 -4.8928383237187649 #
point $-1 -62.862830860492721 44.339922510852801 -4.8928383237187649 #
loop $-1 $-1 $143 $135 #
plane-surface $-1 74.850917081209758 0 0 -1 0 0 0 0 1 forward_v I I I I #
coedge $-1 $210 $138 $140 $214 reversed $79 $-1 #
coedge $-1 $138 $209 $265 $266 reversed $79 $-1 #
coedge $-1 $146 $141 $138 $212 forward $136 $-1 #
edge $-1 $215 7.7432955074295222 $267 13.613222178749226 $211 $268 forward 7 unknown #
coedge $-1 $140 $139 $218 $269 reversed $49 $-1 #
edge $-1 $270 -149.70183416241952 $215 -138.62481317452836 $209 $271 forward 7 unknown #
vertex $-1 $142 $272 #
straight-curve $-1 68.980990409890055 0.50288647040236611 10.257167657468315 0 -1 0 I I #
coedge $-1 $265 $143 $146 $222 reversed $207 $-1 #
coedge $-1 $143 $265 $213 $269 forward $207 $-1 #
vertex $-1 $144 $273 #
straight-curve $-1 74.850917081209758 8.6914767856758104 103.57378078195066 0 0 1 I I #
straight-curve $-1 -4.4789668339746385 8.6914767856758104 127.81767764871692 0.52991925155115449 0 -0.84804810408105047 I I #
edge $-1 $267 -6.6799309040663459 $147 8.6914767856758104 $217 $274 forward 7 unknown #
point $-1 74.850917081209758 8.6914767856758104 10.257167657468313 #
point $-1 68.980990409890055 8.6914767856758104 10.257167657468329 #
edge $-1 $275 1 $275 0 $150 $-1 forward 7 unknown #
vertex $-1 $151 $276 #
ellipse-curve $-1 70.529215091881071 -2.2881001355685839 4.6937138786942727 0.84804810408105047 0 0.52991925155115449 0.52991925155115449 0 -0.84804810408105047 1 I I #
point $-1 72.445872997101063 -2.2881001355685839 4.7121962295637028 #
edge $-1 $277 1 $277 0 $154 $-1 forward 7 unknown #
vertex $-1 $155 $278 #
ellipse-curve $-1 70.529215091881071 4.2996460171780555 4.6937138786942727 0.84804810408105047 0 0.52991925155115449 0.52991925155115449 0 -0.84804810408105047 1 I I #
point $-1 72.445872997101063 4.2996460171780555 4.7121962295637028 #
plane-surface $-1 74.850917081209758 0 0 -1 0 0 0 0 1 forward_v I I I I #
coedge $-1 $163 $161 $165 $238 reversed $101 $-1 #
edge $-1 $176 -10.257167657468313 $240 10.257167657468313 $175 $279 forward 7 unknown #
vertex $-1 $238 $280 #
straight-curve $-1 -74.850917081209758 -44.339922510852801 0 0 0 -1 I I #
edge $-1 $236 -44.339922510852801 $240 44.339922510852801 $234 $281 forward 7 unknown #
straight-curve $-1 0 -44.339922510852801 -10.257167657468313 -1 0 0 I I #
vertex $-1 $168 $282 #
straight-curve $-1 0 44.339922510852801 -10.257167657468313 1 0 0 I I #
point $-1 74.850917081209758 44.339922510852801 -10.257167657468313 #
point $-1 74.850917081209758 -44.339922510852801 -10.257167657468313 #
straight-curve $-1 -74.850917081209758 0 10.257167657468313 0 -1 0 I I #
point $-1 -74.850917081209758 44.339922510852801 10.257167657468313 #
point $-1 -74.850917081209758 -44.339922510852801 10.257167657468313 #
straight-curve $-1 74.850917081209758 -44.339922510852801 0 0 0 -1 I I #
straight-curve $-1 74.850917081209758 44.339922510852801 0 0 0 -1 I I #
plane-surface $-1 0 44.339922510852801 0 0 -1 0 0 0 -1 forward_v I I I I #
coedge $-1 $189 $188 $283 $284 forward $71 $-1 #
edge $-1 $192 62.862830860492721 $285 74.850917081209758 $191 $286 forward 7 unknown #
coedge $-1 $197 $196 $189 $253 reversed $198 $-1 #
edge $-1 $287 -74.850917081209758 $254 -62.862830860492721 $252 $288 forward 7 unknown #
vertex $-1 $204 $289 #
straight-curve $-1 -62.862830860492721 0 -10.257167657468313 0 -1 0 I I #
point $-1 -62.862830860492721 -44.339922510852801 -10.257167657468313 #
coedge $-1 $283 $194 $197 $260 forward $186 $-1 #
coedge $-1 $194 $283 $201 $262 reversed $186 $-1 #
straight-curve $-1 -74.850917081209758 0 -4.8928383237187649 0 1 0 I I #
edge $-1 $199 4.8928383237187649 $287 10.257167657468313 $197 $290 forward 7 unknown #
point $-1 -74.850917081209758 44.339922510852801 -4.8928383237187649 #
edge $-1 $202 4.8928383237187649 $285 10.257167657468313 $258 $291 forward 7 unknown #
point $-1 -74.850917081209758 -44.339922510852801 -4.8928383237187649 #
straight-curve $-1 -62.862830860492721 44.339922510852801 -3.7875014952967696 0 0 -1 I I #
coedge $-1 $218 $217 $210 $266 forward $207 $-1 #
edge $-1 $267 93.316613124482345 $270 102.71045977212944 $265 $292 forward 7 unknown #
vertex $-1 $222 $293 #
straight-curve $-1 61.237694902460532 -6.6799309040663459 10.257167657468315 1 0 0 I I #
edge $-1 $270 -7.182817374468712 $219 8.1885903152734443 $218 $294 forward 7 unknown #
vertex $-1 $269 $295 #
straight-curve $-1 -4.4789668339746385 -6.6799309040663459 127.81767764871692 -0.52991925155115449 0 0.84804810408105047 I I #
point $-1 68.980990409890055 -6.6799309040663459 10.257167657468329 #
point $-1 74.850917081209758 8.6914767856758104 0.86332100982122029 #
straight-curve $-1 74.850917081209758 0 10.257167657468313 0 1 0 I I #
vertex $-1 $225 $296 #
point $-1 71.059134343432234 -2.2881001355685839 3.8456657746132219 #
vertex $-1 $229 $297 #
point $-1 71.059134343432234 4.2996460171780555 3.8456657746132219 #
straight-curve $-1 -74.850917081209758 44.339922510852801 0 0 0 -1 I I #
point $-1 -74.850917081209758 -44.339922510852801 -10.257167657468313 #
straight-curve $-1 -74.850917081209758 0 -10.257167657468313 0 1 0 I I #
point $-1 -74.850917081209758 44.339922510852801 -10.257167657468313 #
coedge $-1 $258 $257 $250 $284 reversed $186 $-1 #
edge $-1 $285 -44.339922510852801 $287 44.339922510852801 $283 $298 forward 7 unknown #
vertex $-1 $284 $299 #
straight-curve $-1 0 -44.339922510852801 -10.257167657468313 -1 0 0 I I #
vertex $-1 $253 $300 #
straight-curve $-1 0 44.339922510852801 -10.257167657468313 1 0 0 I I #
point $-1 -62.862830860492721 44.339922510852801 -10.257167657468313 #
straight-curve $-1 -74.850917081209758 44.339922510852801 0 0 0 -1 I I #
straight-curve $-1 -74.850917081209758 -44.339922510852801 0 0 0 -1 I I #
straight-curve $-1 74.850917081209758 -6.6799309040663459 103.57378078195066 0 0 -1 I I #
point $-1 74.850917081209758 -6.6799309040663459 10.257167657468313 #
straight-curve $-1 74.850917081209758 0.50288647040236611 0.8633210098212345 0 1 0 I I #
point $-1 74.850917081209758 -6.6799309040663459 0.86332100982122029 #
point $-1 69.681166987800026 -2.2881001355685839 4.1637946271431181 #
point $-1 69.681166987800026 4.2996460171780555 4.1637946271431181 #
straight-curve $-1 -74.850917081209758 0 -10.257167657468313 0 1 0 I I #
point $-1 -74.850917081209758 -44.339922510852801 -10.257167657468313 #
point $-1 -74.850917081209758 44.339922510852801 -10.257167657468313 #
End-of-ACIS-data 