500 0 14 0           
7 Unknown 11 ACIS 5.0 NT 24 Fri Mar 26 14:55:23 1999 
-1 9.9999999999999995e-007 1e-010 
body $-1 $14 $-1 $15 #
body $-1 $16 $-1 $17 #
body $-1 $18 $-1 $19 #
body $-1 $20 $-1 $21 #
body $-1 $22 $-1 $23 #
body $-1 $24 $-1 $25 #
body $-1 $26 $-1 $27 #
body $-1 $28 $-1 $29 #
body $-1 $30 $-1 $31 #
body $-1 $32 $-1 $33 #
body $-1 $34 $-1 $35 #
body $-1 $36 $-1 $37 #
body $-1 $38 $-1 $39 #
body $-1 $40 $-1 $41 #
lump $-1 $-1 $42 $0 #
transform $-1 1 0 0 0 1 0 0 0 1 40.444349497970521 22.817046295040239 7.276637176852061 1 rotate no_reflect no_shear #
lump $-1 $-1 $43 $1 #
transform $-1 1 0 0 0 1 0 0 0 1 40.444349497970521 22.817046295040239 7.276637176852061 1 rotate no_reflect no_shear #
lump $-1 $-1 $44 $2 #
transform $-1 1 0 0 0 1 0 0 0 1 40.444349497970521 22.817046295040239 7.276637176852061 1 rotate no_reflect no_shear #
lump $-1 $-1 $45 $3 #
transform $-1 1 0 0 0 1 0 0 0 1 40.444349497970521 22.817046295040239 7.276637176852061 1 rotate no_reflect no_shear #
lump $-1 $-1 $46 $4 #
transform $-1 1 0 0 0 1 0 0 0 1 40.444349497970521 22.817046295040239 7.276637176852061 1 rotate no_reflect no_shear #
lump $-1 $-1 $47 $5 #
transform $-1 1 0 0 0 1 0 0 0 1 40.444349497970521 22.817046295040239 7.276637176852061 1 rotate no_reflect no_shear #
lump $-1 $-1 $48 $6 #
transform $-1 1 0 0 0 1 0 0 0 1 40.444349497970521 22.817046295040239 7.276637176852061 1 rotate no_reflect no_shear #
lump $-1 $-1 $49 $7 #
transform $-1 1 0 0 0 1 0 0 0 1 40.444349497970521 22.817046295040239 7.276637176852061 1 rotate no_reflect no_shear #
lump $-1 $-1 $50 $8 #
transform $-1 1 0 0 0 1 0 0 0 1 40.444349497970521 22.817046295040239 7.276637176852061 1 rotate no_reflect no_shear #
lump $-1 $-1 $51 $9 #
transform $-1 1 0 0 0 1 0 0 0 1 40.444349497970521 22.817046295040239 7.276637176852061 1 rotate no_reflect no_shear #
lump $-1 $-1 $52 $10 #
transform $-1 1 0 0 0 1 0 0 0 1 40.444349497970521 22.817046295040239 7.276637176852061 1 rotate no_reflect no_shear #
lump $-1 $-1 $53 $11 #
transform $-1 1 0 0 0 1 0 0 0 1 40.444349497970521 22.817046295040239 7.276637176852061 1 rotate no_reflect no_shear #
lump $-1 $-1 $54 $12 #
transform $-1 1 0 0 0 1 0 0 0 1 40.444349497970521 22.817046295040239 7.276637176852061 1 rotate no_reflect no_shear #
lump $-1 $-1 $55 $13 #
transform $-1 1 0 0 0 1 0 0 0 1 40.444349497970521 22.817046295040239 7.276637176852061 1 rotate no_reflect no_shear #
shell $-1 $-1 $-1 $56 $-1 $14 #
shell $-1 $-1 $-1 $57 $-1 $16 #
shell $-1 $-1 $-1 $58 $-1 $18 #
shell $-1 $-1 $-1 $59 $-1 $20 #
shell $-1 $-1 $-1 $60 $-1 $22 #
shell $-1 $-1 $-1 $61 $-1 $24 #
shell $-1 $-1 $-1 $62 $-1 $26 #
shell $-1 $-1 $-1 $63 $-1 $28 #
shell $-1 $-1 $-1 $64 $-1 $30 #
shell $-1 $-1 $-1 $65 $-1 $32 #
shell $-1 $-1 $-1 $66 $-1 $34 #
shell $-1 $-1 $-1 $67 $-1 $36 #
shell $-1 $-1 $-1 $68 $-1 $38 #
shell $-1 $-1 $-1 $69 $-1 $40 #
face $-1 $70 $71 $42 $-1 $72 forward single #
face $-1 $73 $74 $43 $-1 $75 forward single #
face $-1 $76 $77 $44 $-1 $78 forward single #
face $-1 $79 $80 $45 $-1 $81 reversed single #
face $-1 $82 $83 $46 $-1 $84 forward single #
face $-1 $85 $86 $47 $-1 $87 forward single #
face $-1 $88 $89 $48 $-1 $90 reversed single #
face $-1 $91 $92 $49 $-1 $93 forward single #
face $-1 $94 $95 $50 $-1 $96 forward single #
face $-1 $97 $98 $51 $-1 $99 reversed single #
face $-1 $100 $101 $52 $-1 $102 forward single #
face $-1 $103 $104 $53 $-1 $105 forward single #
face $-1 $106 $107 $54 $-1 $108 reversed single #
face $-1 $109 $110 $55 $-1 $111 forward single #
face $-1 $112 $113 $42 $-1 $114 reversed single #
loop $-1 $-1 $115 $56 #
plane-surface $-1 0 0 7.276637176852061 0 0 1 1 0 0 forward_v I I I I #
face $-1 $116 $117 $43 $-1 $118 forward single #
loop $-1 $-1 $119 $57 #
plane-surface $-1 0 -22.817046295040239 0 0 1 0 0 0 1 forward_v I I I I #
face $-1 $120 $121 $44 $-1 $122 reversed single #
loop $-1 $-1 $123 $58 #
plane-surface $-1 0 22.817046295040239 0 0 -1 0 0 0 -1 forward_v I I I I #
face $-1 $124 $125 $45 $-1 $126 reversed single #
loop $-1 $-1 $127 $59 #
plane-surface $-1 -105.04493754287957 -12.322083624045714 48.753383701020006 0 1 0 -0.79863551827123203 0 0.60181501223851219 forward_v I I I I #
face $-1 $128 $129 $46 $-1 $130 forward single #
loop $-1 $131 $132 $60 #
cone-surface $-1 -37.330998825299581 -10.717196265438329 3.3740862447169864 0.79863551827123203 0 -0.60181501223851219 0.15045375305962805 0 0.19965887956780801 1 I I 0 1 0.25 forward I I I I #
face $-1 $133 $134 $47 $-1 $135 forward single #
loop $-1 $136 $137 $61 #
cone-surface $-1 -37.330998825299581 -8.3098652275272507 3.3740862447169864 0.79863551827123203 0 -0.60181501223851219 0.15045375305962805 0 0.19965887956780801 1 I I 0 1 0.25 forward I I I I #
face $-1 $138 $139 $48 $-1 $140 reversed single #
loop $-1 $-1 $141 $62 #
plane-surface $-1 -105.04493754287957 -2.8447370596546033 48.753383701020006 0 1 0 -0.79863551827123203 0 0.60181501223851219 forward_v I I I I #
face $-1 $142 $143 $49 $-1 $144 forward single #
loop $-1 $145 $146 $63 #
cone-surface $-1 -37.330998825299581 -1.2398497010472163 3.3740862447169864 0.79863551827123203 0 -0.60181501223851219 0.15045375305962805 0 0.19965887956780801 1 I I 0 1 0.25 forward I I I I #
face $-1 $147 $148 $50 $-1 $149 forward single #
loop $-1 $150 $151 $64 #
cone-surface $-1 -37.330998825299581 1.1674813368638617 3.3740862447169864 0.79863551827123203 0 -0.60181501223851219 0.15045375305962805 0 0.19965887956780801 1 I I 0 1 0.25 forward I I I I #
face $-1 $152 $153 $51 $-1 $154 reversed single #
loop $-1 $-1 $155 $65 #
plane-surface $-1 -105.04493754287957 6.6326095047365055 48.753383701020006 0 1 0 -0.79863551827123203 0 0.60181501223851219 forward_v I I I I #
face $-1 $156 $157 $52 $-1 $158 forward single #
loop $-1 $159 $160 $66 #
cone-surface $-1 -37.330998825299581 8.2374968633438961 3.3740862447169864 0.79863551827123203 0 -0.60181501223851219 0.15045375305962805 0 0.19965887956780801 1 I I 0 1 0.25 forward I I I I #
face $-1 $161 $162 $53 $-1 $163 forward single #
loop $-1 $164 $165 $67 #
cone-surface $-1 -37.330998825299581 10.644827901254974 3.3740862447169864 0.79863551827123203 0 -0.60181501223851219 0.15045375305962805 0 0.19965887956780801 1 I I 0 1 0.25 forward I I I I #
face $-1 $166 $167 $54 $-1 $168 reversed single #
loop $-1 $-1 $169 $68 #
plane-surface $-1 30.474265774559328 8.8424639355522352 114.9614814525643 0 -1 0 -0.64278761758704617 0 -0.76604443648966558 forward_v I I I I #
face $-1 $170 $171 $55 $-1 $172 forward single #
loop $-1 $173 $174 $69 #
cone-surface $-1 35.417387378382394 5.3017938407207943 2.6040917023107233 -0.64278761758704617 0 -0.76604443648966558 1.1490666547344983 0 -0.96418142638056925 1 I I 0 1 1.5 forward I I I I #
face $-1 $175 $176 $42 $-1 $177 reversed single #
loop $-1 $-1 $178 $70 #
plane-surface $-1 0 0 -7.276637176852061 0 0 1 1 0 0 forward_v I I I I #
coedge $-1 $179 $180 $181 $182 forward $71 $-1 #
face $-1 $183 $184 $43 $-1 $185 reversed single #
loop $-1 $-1 $186 $73 #
plane-surface $-1 0 0 7.276637176852061 0 0 1 1 0 0 forward_v I I I I #
coedge $-1 $187 $188 $189 $190 forward $74 $-1 #
face $-1 $191 $192 $44 $-1 $193 reversed single #
loop $-1 $-1 $194 $76 #
plane-surface $-1 40.444349497970521 0 0 -1 0 0 0 0 1 forward_v I I I I #
coedge $-1 $195 $196 $197 $198 forward $77 $-1 #
face $-1 $199 $200 $45 $-1 $201 reversed single #
loop $-1 $-1 $202 $79 #
plane-surface $-1 -40.444349497970506 -9.5135307464827914 0.073350324820417256 -0.79863551827123203 0 0.60181501223851219 0.60181501223851219 0 0.79863551827123203 forward_v I I I I #
coedge $-1 $203 $204 $205 $206 reversed $80 $-1 #
face $-1 $-1 $207 $46 $-1 $208 forward single #
loop $-1 $209 $210 $82 #
cone-surface $-1 -36.831851626380057 -10.717196265438329 2.9979518620679162 0.79863551827123203 0 -0.60181501223851219 0.075226876529814024 0 0.099829439783904003 1 I I -0.70710678118654746 0.70710678118654746 0.125 forward I I I I #
loop $-1 $-1 $211 $60 #
coedge $-1 $132 $132 $212 $213 reversed $83 $-1 #
face $-1 $-1 $214 $47 $-1 $215 forward single #
loop $-1 $216 $217 $85 #
cone-surface $-1 -36.831851626380057 -8.3098652275272507 2.9979518620679162 0.79863551827123203 0 -0.60181501223851219 0.075226876529814024 0 0.099829439783904003 1 I I -0.70710678118654746 0.70710678118654746 0.125 forward I I I I #
loop $-1 $-1 $218 $61 #
coedge $-1 $137 $137 $219 $220 reversed $86 $-1 #
face $-1 $221 $222 $48 $-1 $223 reversed single #
loop $-1 $-1 $224 $88 #
plane-surface $-1 -40.444349497970506 -0.036184182091680839 0.073350324820417256 -0.79863551827123203 0 0.60181501223851219 0.60181501223851219 0 0.79863551827123203 forward_v I I I I #
coedge $-1 $225 $226 $227 $228 reversed $89 $-1 #
face $-1 $-1 $229 $49 $-1 $230 forward single #
loop $-1 $231 $232 $91 #
cone-surface $-1 -36.831851626380057 -1.2398497010472163 2.9979518620679162 0.79863551827123203 0 -0.60181501223851219 0.075226876529814024 0 0.099829439783904003 1 I I -0.70710678118654746 0.70710678118654746 0.125 forward I I I I #
loop $-1 $-1 $233 $63 #
coedge $-1 $146 $146 $234 $235 reversed $92 $-1 #
face $-1 $-1 $236 $50 $-1 $237 forward single #
loop $-1 $238 $239 $94 #
cone-surface $-1 -36.831851626380057 1.1674813368638617 2.9979518620679162 0.79863551827123203 0 -0.60181501223851219 0.075226876529814024 0 0.099829439783904003 1 I I -0.70710678118654746 0.70710678118654746 0.125 forward I I I I #
loop $-1 $-1 $240 $64 #
coedge $-1 $151 $151 $241 $242 reversed $95 $-1 #
face $-1 $243 $244 $51 $-1 $245 reversed single #
loop $-1 $-1 $246 $97 #
plane-surface $-1 -40.444349497970506 9.4411623822994279 0.073350324820417256 -0.79863551827123203 0 0.60181501223851219 0.60181501223851219 0 0.79863551827123203 forward_v I I I I #
coedge $-1 $247 $248 $249 $250 reversed $98 $-1 #
face $-1 $-1 $251 $52 $-1 $252 forward single #
loop $-1 $253 $254 $100 #
cone-surface $-1 -36.831851626380057 8.2374968633438961 2.9979518620679162 0.79863551827123203 0 -0.60181501223851219 0.075226876529814024 0 0.099829439783904003 1 I I -0.70710678118654746 0.70710678118654746 0.125 forward I I I I #
loop $-1 $-1 $255 $66 #
coedge $-1 $160 $160 $256 $257 reversed $101 $-1 #
face $-1 $-1 $258 $53 $-1 $259 forward single #
loop $-1 $260 $261 $103 #
cone-surface $-1 -36.831851626380057 10.644827901254974 2.9979518620679162 0.79863551827123203 0 -0.60181501223851219 0.075226876529814024 0 0.099829439783904003 1 I I -0.70710678118654746 0.70710678118654746 0.125 forward I I I I #
loop $-1 $-1 $262 $67 #
coedge $-1 $165 $165 $263 $264 reversed $104 $-1 #
face $-1 $265 $266 $54 $-1 $267 reversed single #
loop $-1 $-1 $268 $106 #
plane-surface $-1 -21.519988342757308 5.3017938407207943 52.997143611836464 0.64278761758704617 0 0.76604443648966558 0.76604443648966558 0 -0.64278761758704617 forward_v I I I I #
coedge $-1 $269 $270 $271 $272 reversed $107 $-1 #
face $-1 $-1 $273 $55 $-1 $274 forward single #
loop $-1 $275 $276 $109 #
cone-surface $-1 33.646715137028266 5.3017938407207943 0.49388674156825552 -0.64278761758704617 0 -0.76604443648966558 0.57453332736724916 0 -0.48209071319028463 1 I I -0.70710678118654757 0.70710678118654757 0.75 forward I I I I #
loop $-1 $-1 $277 $69 #
coedge $-1 $174 $174 $278 $279 reversed $110 $-1 #
face $-1 $280 $281 $42 $-1 $282 reversed single #
loop $-1 $-1 $283 $112 #
plane-surface $-1 0 -22.817046295040239 0 0 1 0 0 0 1 forward_v I I I I #
coedge $-1 $284 $285 $286 $287 forward $113 $-1 #
coedge $-1 $288 $115 $289 $290 forward $71 $-1 #
coedge $-1 $115 $288 $291 $292 forward $71 $-1 #
coedge $-1 $293 $294 $115 $182 reversed $295 $-1 #
edge $-1 $296 -22.817046295040239 $297 22.817046295040239 $181 $298 forward 7 unknown #
face $-1 $299 $300 $43 $-1 $301 reversed single #
loop $-1 $-1 $302 $116 #
plane-surface $-1 -40.444349497970521 0 0 1 0 0 0 0 -1 forward_v I I I I #
coedge $-1 $303 $304 $305 $306 forward $117 $-1 #
coedge $-1 $305 $119 $302 $307 reversed $74 $-1 #
coedge $-1 $119 $305 $308 $309 reversed $74 $-1 #
coedge $-1 $310 $311 $119 $190 reversed $300 $-1 #
edge $-1 $312 -40.444349497970521 $313 40.444349497970521 $189 $314 forward 7 unknown #
face $-1 $315 $316 $44 $-1 $317 reversed single #
loop $-1 $-1 $318 $120 #
plane-surface $-1 0 27.117559519267022 4.276637176852061 0 0 1 1 0 0 forward_v I I I I #
coedge $-1 $319 $320 $195 $321 forward $121 $-1 #
coedge $-1 $322 $123 $194 $321 reversed $77 $-1 #
coedge $-1 $123 $322 $323 $324 reversed $77 $-1 #
coedge $-1 $325 $318 $123 $198 reversed $192 $-1 #
edge $-1 $326 -40.444349497970521 $327 40.444349497970521 $197 $328 forward 7 unknown #
face $-1 $329 $330 $45 $-1 $331 reversed single #
loop $-1 $-1 $332 $124 #
plane-surface $-1 -105.04493754287957 -6.7049778689198689 48.753383701020006 0 -1 0 0.79863551827123203 0 -0.60181501223851219 forward_v I I I I #
coedge $-1 $333 $334 $335 $336 reversed $125 $-1 #
coedge $-1 $204 $127 $337 $338 reversed $80 $-1 #
coedge $-1 $127 $203 $333 $339 reversed $80 $-1 #
coedge $-1 $335 $340 $127 $206 forward $341 $-1 #
edge $-1 $342 12.078119273469262 $343 17.50618510053993 $205 $344 forward 7 unknown #
loop $-1 $-1 $212 $128 #
plane-surface $-1 -40.444349497970506 -9.5135307464827914 0.073350324820417256 -0.79863551827123203 0 0.60181501223851219 0.60181501223851219 0 0.79863551827123203 forward_v I I I I #
loop $-1 $-1 $345 $82 #
coedge $-1 $210 $210 $211 $346 reversed $129 $-1 #
coedge $-1 $211 $211 $210 $346 forward $131 $-1 #
coedge $-1 $212 $212 $132 $213 forward $207 $-1 #
edge $-1 $347 0 $347 6.2831853071796004 $212 $348 forward 7 unknown #
loop $-1 $-1 $219 $133 #
plane-surface $-1 -40.444349497970506 -9.5135307464827914 0.073350324820417256 -0.79863551827123203 0 0.60181501223851219 0.60181501223851219 0 0.79863551827123203 forward_v I I I I #
loop $-1 $-1 $349 $85 #
coedge $-1 $217 $217 $218 $350 reversed $134 $-1 #
coedge $-1 $218 $218 $217 $350 forward $136 $-1 #
coedge $-1 $219 $219 $137 $220 forward $214 $-1 #
edge $-1 $351 0 $351 6.2831853071796004 $219 $352 forward 7 unknown #
face $-1 $353 $354 $48 $-1 $355 forward single #
loop $-1 $-1 $356 $138 #
plane-surface $-1 -105.04493754287957 2.7723686954712417 48.753383701020006 0 -1 0 0.79863551827123203 0 -0.60181501223851219 forward_v I I I I #
coedge $-1 $357 $358 $359 $360 reversed $139 $-1 #
coedge $-1 $226 $141 $361 $362 reversed $89 $-1 #
coedge $-1 $141 $225 $357 $363 reversed $89 $-1 #
coedge $-1 $359 $364 $141 $228 forward $354 $-1 #
edge $-1 $365 12.078119273469262 $366 17.50618510053993 $227 $367 forward 7 unknown #
loop $-1 $-1 $234 $142 #
plane-surface $-1 -40.444349497970506 -0.036184182091680839 0.073350324820417256 -0.79863551827123203 0 0.60181501223851219 0.60181501223851219 0 0.79863551827123203 forward_v I I I I #
loop $-1 $-1 $368 $91 #
coedge $-1 $232 $232 $233 $369 reversed $143 $-1 #
coedge $-1 $233 $233 $232 $369 forward $145 $-1 #
coedge $-1 $234 $234 $146 $235 forward $229 $-1 #
edge $-1 $370 0 $370 6.2831853071796004 $234 $371 forward 7 unknown #
loop $-1 $-1 $241 $147 #
plane-surface $-1 -40.444349497970506 -0.036184182091680839 0.073350324820417256 -0.79863551827123203 0 0.60181501223851219 0.60181501223851219 0 0.79863551827123203 forward_v I I I I #
loop $-1 $-1 $372 $94 #
coedge $-1 $239 $239 $240 $373 reversed $148 $-1 #
coedge $-1 $240 $240 $239 $373 forward $150 $-1 #
coedge $-1 $241 $241 $151 $242 forward $236 $-1 #
edge $-1 $374 0 $374 6.2831853071796004 $241 $375 forward 7 unknown #
face $-1 $376 $377 $51 $-1 $378 forward single #
loop $-1 $-1 $379 $152 #
plane-surface $-1 -105.04493754287957 12.24971525986235 48.753383701020006 0 -1 0 0.79863551827123203 0 -0.60181501223851219 forward_v I I I I #
coedge $-1 $380 $381 $382 $383 reversed $153 $-1 #
coedge $-1 $248 $155 $384 $385 reversed $98 $-1 #
coedge $-1 $155 $247 $380 $386 reversed $98 $-1 #
coedge $-1 $382 $387 $155 $250 forward $377 $-1 #
edge $-1 $388 12.078119273469262 $389 17.50618510053993 $249 $390 forward 7 unknown #
loop $-1 $-1 $256 $156 #
plane-surface $-1 -40.444349497970506 9.4411623822994279 0.073350324820417256 -0.79863551827123203 0 0.60181501223851219 0.60181501223851219 0 0.79863551827123203 forward_v I I I I #
loop $-1 $-1 $391 $100 #
coedge $-1 $254 $254 $255 $392 reversed $157 $-1 #
coedge $-1 $255 $255 $254 $392 forward $159 $-1 #
coedge $-1 $256 $256 $160 $257 forward $251 $-1 #
edge $-1 $393 0 $393 6.2831853071796004 $256 $394 forward 7 unknown #
loop $-1 $-1 $263 $161 #
plane-surface $-1 -40.444349497970506 9.4411623822994279 0.073350324820417256 -0.79863551827123203 0 0.60181501223851219 0.60181501223851219 0 0.79863551827123203 forward_v I I I I #
loop $-1 $-1 $395 $103 #
coedge $-1 $261 $261 $262 $396 reversed $162 $-1 #
coedge $-1 $262 $262 $261 $396 forward $164 $-1 #
coedge $-1 $263 $263 $165 $264 forward $258 $-1 #
edge $-1 $397 0 $397 6.2831853071796004 $263 $398 forward 7 unknown #
face $-1 $399 $400 $54 $-1 $401 forward single #
loop $-1 $-1 $402 $166 #
plane-surface $-1 30.474265774559328 1.7611237458893534 114.9614814525643 0 1 0 0.64278761758704617 0 0.76604443648966558 forward_v I I I I #
coedge $-1 $403 $404 $405 $406 reversed $167 $-1 #
coedge $-1 $270 $169 $407 $408 reversed $107 $-1 #
coedge $-1 $169 $269 $403 $409 reversed $107 $-1 #
coedge $-1 $405 $410 $169 $272 forward $400 $-1 #
edge $-1 $411 -25.207216610690857 $412 -17.73045542784228 $271 $413 forward 7 unknown #
loop $-1 $-1 $278 $170 #
plane-surface $-1 -21.519988342757308 5.3017938407207943 52.997143611836464 0.64278761758704617 0 0.76604443648966558 0.76604443648966558 0 -0.64278761758704617 forward_v I I I I #
loop $-1 $-1 $414 $109 #
coedge $-1 $276 $276 $277 $415 reversed $171 $-1 #
coedge $-1 $277 $277 $276 $415 forward $173 $-1 #
coedge $-1 $278 $278 $174 $279 forward $273 $-1 #
edge $-1 $416 0 $416 6.2831853071796004 $278 $417 forward 7 unknown #
face $-1 $418 $419 $42 $-1 $420 reversed single #
loop $-1 $-1 $421 $175 #
plane-surface $-1 -40.444349497970521 0 0 1 0 0 0 0 -1 forward_v I I I I #
coedge $-1 $422 $291 $423 $424 forward $176 $-1 #
coedge $-1 $425 $178 $422 $426 forward $113 $-1 #
coedge $-1 $178 $425 $427 $428 forward $113 $-1 #
coedge $-1 $294 $293 $178 $287 reversed $295 $-1 #
edge $-1 $429 -22.817046295040239 $430 22.817046295040239 $286 $431 forward 7 unknown #
coedge $-1 $180 $179 $432 $433 forward $71 $-1 #
coedge $-1 $434 $435 $179 $290 reversed $419 $-1 #
edge $-1 $297 -40.444349497970521 $436 40.444349497970521 $289 $437 forward 7 unknown #
coedge $-1 $283 $438 $180 $292 reversed $176 $-1 #
edge $-1 $439 -40.444349497970521 $296 40.444349497970521 $291 $440 forward 7 unknown #
coedge $-1 $286 $181 $438 $441 forward $295 $-1 #
coedge $-1 $181 $286 $434 $442 reversed $295 $-1 #
loop $-1 $-1 $293 $418 #
vertex $-1 $182 $443 #
vertex $-1 $182 $444 #
straight-curve $-1 40.444349497970521 0 7.276637176852061 0 1 0 I I #
face $-1 $445 $446 $43 $-1 $447 reversed single #
loop $-1 $-1 $310 $183 #
plane-surface $-1 0 -27.117559519267026 4.276637176852061 0 0 1 1 0 0 forward_v I I I I #
coedge $-1 $448 $449 $187 $307 forward $184 $-1 #
coedge $-1 $450 $186 $449 $451 forward $117 $-1 #
coedge $-1 $186 $450 $452 $453 forward $117 $-1 #
coedge $-1 $188 $187 $186 $306 reversed $74 $-1 #
edge $-1 $454 -40.444349497970521 $455 40.444349497970521 $186 $456 forward 7 unknown #
edge $-1 $455 -7.276637176852061 $313 -4.276637176852061 $302 $457 forward 7 unknown #
coedge $-1 $452 $458 $188 $309 forward $459 $-1 #
edge $-1 $312 4.276637176852061 $454 7.276637176852061 $308 $460 forward 7 unknown #
coedge $-1 $461 $189 $458 $462 forward $300 $-1 #
coedge $-1 $189 $461 $448 $463 forward $300 $-1 #
vertex $-1 $309 $464 #
vertex $-1 $307 $465 #
straight-curve $-1 0 -22.817046295040239 4.276637176852061 -1 0 0 I I #
face $-1 $466 $467 $44 $-1 $468 forward single #
loop $-1 $-1 $469 $191 #
plane-surface $-1 0 31.418072743493809 5.776637176852061 0 -1 0 0 0 -1 forward_v I I I I #
coedge $-1 $197 $470 $319 $471 forward $192 $-1 #
coedge $-1 $472 $194 $318 $471 reversed $121 $-1 #
coedge $-1 $194 $472 $473 $474 reversed $121 $-1 #
edge $-1 $475 -7.276637176852061 $327 -4.276637176852061 $194 $476 forward 7 unknown #
coedge $-1 $196 $195 $477 $478 reversed $77 $-1 #
coedge $-1 $479 $480 $196 $324 forward $481 $-1 #
edge $-1 $326 4.276637176852061 $482 7.276637176852061 $323 $483 forward 7 unknown #
coedge $-1 $470 $197 $480 $484 forward $192 $-1 #
vertex $-1 $324 $485 #
vertex $-1 $321 $486 #
straight-curve $-1 0 22.817046295040239 4.276637176852061 1 0 0 I I #
face $-1 $-1 $341 $45 $-1 $487 forward single #
loop $-1 $-1 $488 $199 #
plane-surface $-1 -40.444349497970521 0 0 1 0 0 0 0 -1 forward_v I I I I #
coedge $-1 $489 $490 $491 $492 reversed $200 $-1 #
coedge $-1 $493 $202 $204 $339 forward $125 $-1 #
coedge $-1 $202 $493 $489 $494 forward $125 $-1 #
coedge $-1 $491 $205 $202 $336 forward $341 $-1 #
edge $-1 $343 -7.5653182508043182 $495 -1.9482124956784732 $335 $496 forward 7 unknown #
coedge $-1 $497 $498 $203 $338 forward $330 $-1 #
edge $-1 $499 -24.303341525689603 $342 -17.100054673657944 $337 $500 forward 7 unknown #
edge $-1 $343 -9.0194922304786189 $499 2.3614502601449494e-014 $204 $501 forward 7 unknown #
coedge $-1 $205 $491 $497 $502 forward $341 $-1 #
loop $-1 $-1 $491 $329 #
vertex $-1 $338 $503 #
vertex $-1 $206 $504 #
straight-curve $-1 -52.522468771439783 -12.322083624045714 7.2766371768520592 1 0 0 I I #
coedge $-1 $345 $345 $-1 $505 reversed $209 $-1 #
edge $-1 $506 0 $506 6.2831853071796004 $210 $507 forward 7 unknown #
vertex $-1 $213 $508 #
ellipse-curve $-1 -37.730316584435187 -10.717196265438329 3.6749937508362325 -0.79863551827123203 0 0.60181501223851219 0.15045375305962805 0 0.19965887956780801 1 I I #
coedge $-1 $349 $349 $-1 $509 reversed $216 $-1 #
edge $-1 $510 0 $510 6.2831853071796004 $217 $511 forward 7 unknown #
vertex $-1 $220 $512 #
ellipse-curve $-1 -37.730316584435187 -8.3098652275272507 3.6749937508362325 -0.79863551827123203 0 0.60181501223851219 0.15045375305962805 0 0.19965887956780801 1 I I #
face $-1 $-1 $513 $48 $-1 $514 reversed single #
loop $-1 $-1 $227 $221 #
plane-surface $-1 0 0 7.276637176852061 0 0 1 1 0 0 forward_v I I I I #
coedge $-1 $515 $516 $517 $518 reversed $222 $-1 #
coedge $-1 $519 $224 $226 $363 forward $139 $-1 #
coedge $-1 $224 $519 $515 $520 forward $139 $-1 #
coedge $-1 $517 $227 $224 $360 forward $354 $-1 #
edge $-1 $366 -2.8266449686087629 $521 2.7904607865170821 $359 $522 forward 7 unknown #
coedge $-1 $523 $524 $225 $362 forward $513 $-1 #
edge $-1 $525 -24.303341525689603 $365 -17.100054673657944 $361 $526 forward 7 unknown #
edge $-1 $366 -9.0194922304786189 $525 2.3614502601449494e-014 $226 $527 forward 7 unknown #
coedge $-1 $227 $517 $523 $528 forward $354 $-1 #
vertex $-1 $228 $529 #
vertex $-1 $228 $530 #
straight-curve $-1 -52.522468771439783 -2.8447370596546033 7.2766371768520592 1 0 0 I I #
coedge $-1 $368 $368 $-1 $531 reversed $231 $-1 #
edge $-1 $532 0 $532 6.2831853071796004 $232 $533 forward 7 unknown #
vertex $-1 $235 $534 #
ellipse-curve $-1 -37.730316584435187 -1.2398497010472163 3.6749937508362325 -0.79863551827123203 0 0.60181501223851219 0.15045375305962805 0 0.19965887956780801 1 I I #
coedge $-1 $372 $372 $-1 $535 reversed $238 $-1 #
edge $-1 $536 0 $536 6.2831853071796004 $239 $537 forward 7 unknown #
vertex $-1 $242 $538 #
ellipse-curve $-1 -37.730316584435187 1.1674813368638617 3.6749937508362325 -0.79863551827123203 0 0.60181501223851219 0.15045375305962805 0 0.19965887956780801 1 I I #
face $-1 $-1 $539 $51 $-1 $540 reversed single #
loop $-1 $-1 $249 $243 #
plane-surface $-1 0 0 7.276637176852061 0 0 1 1 0 0 forward_v I I I I #
coedge $-1 $541 $542 $543 $544 reversed $244 $-1 #
coedge $-1 $545 $246 $248 $386 forward $153 $-1 #
coedge $-1 $246 $545 $541 $546 forward $153 $-1 #
coedge $-1 $543 $249 $246 $383 forward $377 $-1 #
edge $-1 $389 1.9120283135867915 $547 7.5291340687126365 $382 $548 forward 7 unknown #
coedge $-1 $549 $550 $247 $385 forward $539 $-1 #
edge $-1 $551 -24.303341525689603 $388 -17.100054673657944 $384 $552 forward 7 unknown #
edge $-1 $389 -9.0194922304786189 $551 2.3614502601449494e-014 $248 $553 forward 7 unknown #
coedge $-1 $249 $543 $549 $554 forward $377 $-1 #
vertex $-1 $250 $555 #
vertex $-1 $250 $556 #
straight-curve $-1 -52.522468771439783 6.6326095047365055 7.2766371768520592 1 0 0 I I #
coedge $-1 $391 $391 $-1 $557 reversed $253 $-1 #
edge $-1 $558 0 $558 6.2831853071796004 $254 $559 forward 7 unknown #
vertex $-1 $257 $560 #
ellipse-curve $-1 -37.730316584435187 8.2374968633438961 3.6749937508362325 -0.79863551827123203 0 0.60181501223851219 0.15045375305962805 0 0.19965887956780801 1 I I #
coedge $-1 $395 $395 $-1 $561 reversed $260 $-1 #
edge $-1 $562 0 $562 6.2831853071796004 $261 $563 forward 7 unknown #
vertex $-1 $264 $564 #
ellipse-curve $-1 -37.730316584435187 10.644827901254974 3.6749937508362325 -0.79863551827123203 0 0.60181501223851219 0.15045375305962805 0 0.19965887956780801 1 I I #
face $-1 $-1 $565 $54 $-1 $566 reversed single #
loop $-1 $-1 $271 $265 #
plane-surface $-1 0 0 7.276637176852061 0 0 1 1 0 0 forward_v I I I I #
coedge $-1 $567 $568 $569 $570 reversed $266 $-1 #
coedge $-1 $571 $268 $270 $409 forward $167 $-1 #
coedge $-1 $268 $571 $567 $572 forward $167 $-1 #
coedge $-1 $569 $271 $268 $406 forward $400 $-1 #
edge $-1 $412 -6.1915670151918381 $573 0.88977317447104376 $405 $574 forward 7 unknown #
coedge $-1 $575 $576 $269 $408 forward $565 $-1 #
edge $-1 $577 -56.477851231762322 $411 -50.204103549430087 $407 $578 forward 7 unknown #
edge $-1 $412 71.128480362789404 $577 80.888698995941041 $270 $579 forward 7 unknown #
coedge $-1 $271 $569 $575 $580 forward $400 $-1 #
vertex $-1 $408 $581 #
vertex $-1 $272 $582 #
straight-curve $-1 15.237132887279664 8.8424639355522352 7.2766371768520628 -1 0 0 I I #
coedge $-1 $414 $414 $-1 $583 reversed $275 $-1 #
edge $-1 $584 0 $584 6.2831853071796004 $276 $585 forward 7 unknown #
vertex $-1 $279 $586 #
ellipse-curve $-1 36.705968906546239 5.3017938407207943 4.1397633356859416 0.64278761758704617 0 0.76604443648966558 1.1490666547344983 0 -0.96418142638056925 1 I I #
face $-1 $-1 $295 $42 $-1 $587 reversed single #
loop $-1 $-1 $434 $280 #
plane-surface $-1 0 22.817046295040239 0 0 -1 0 0 0 -1 forward_v I I I I #
coedge $-1 $588 $432 $435 $589 forward $281 $-1 #
coedge $-1 $438 $283 $284 $426 reversed $176 $-1 #
coedge $-1 $432 $588 $283 $424 reversed $281 $-1 #
edge $-1 $439 -7.276637176852061 $590 7.276637176852061 $423 $591 forward 7 unknown #
coedge $-1 $285 $284 $588 $592 forward $113 $-1 #
edge $-1 $430 -40.444349497970521 $590 40.444349497970521 $422 $593 forward 7 unknown #
coedge $-1 $435 $434 $285 $428 reversed $419 $-1 #
edge $-1 $594 -40.444349497970521 $429 40.444349497970521 $427 $595 forward 7 unknown #
vertex $-1 $287 $596 #
vertex $-1 $441 $597 #
straight-curve $-1 40.444349497970521 0 -7.276637176852061 0 -1 0 I I #
coedge $-1 $421 $423 $288 $433 reversed $281 $-1 #
edge $-1 $436 -22.817046295040239 $439 22.817046295040239 $432 $598 forward 7 unknown #
coedge $-1 $427 $289 $294 $442 forward $419 $-1 #
coedge $-1 $289 $427 $421 $589 reversed $419 $-1 #
vertex $-1 $290 $599 #
straight-curve $-1 0 22.817046295040239 7.276637176852061 -1 0 0 I I #
coedge $-1 $291 $422 $293 $441 reversed $176 $-1 #
vertex $-1 $433 $600 #
straight-curve $-1 0 -22.817046295040239 7.276637176852061 1 0 0 I I #
edge $-1 $296 -7.276637176852061 $430 7.276637176852061 $293 $601 forward 7 unknown #
edge $-1 $297 -7.276637176852061 $429 7.276637176852061 $294 $602 forward 7 unknown #
point $-1 40.444349497970521 -22.817046295040239 7.276637176852061 #
point $-1 40.444349497970521 22.817046295040239 7.276637176852061 #
face $-1 $-1 $459 $43 $-1 $603 reversed single #
loop $-1 $-1 $604 $299 #
plane-surface $-1 0 -31.418072743493813 5.776637176852061 0 1 0 0 0 1 forward_v I I I I #
coedge $-1 $605 $302 $311 $463 reversed $184 $-1 #
coedge $-1 $302 $605 $303 $451 reversed $184 $-1 #
coedge $-1 $304 $303 $606 $607 forward $117 $-1 #
edge $-1 $455 22.817046295040239 $608 31.418072743493813 $449 $609 forward 7 unknown #
coedge $-1 $610 $308 $304 $453 reversed $459 $-1 #
edge $-1 $611 -31.418072743493813 $454 -22.817046295040239 $452 $612 forward 7 unknown #
vertex $-1 $309 $613 #
vertex $-1 $451 $614 #
straight-curve $-1 0 -22.817046295040239 7.276637176852061 -1 0 0 I I #
straight-curve $-1 -40.444349497970521 -22.817046295040239 0 0 0 -1 I I #
coedge $-1 $308 $610 $310 $462 reversed $459 $-1 #
loop $-1 $-1 $308 $445 #
straight-curve $-1 40.444349497970521 -22.817046295040239 0 0 0 1 I I #
coedge $-1 $311 $310 $615 $616 forward $300 $-1 #
edge $-1 $312 -4.3005132242267869 $617 4.3005132242267869 $458 $618 forward 7 unknown #
edge $-1 $619 -4.3005132242267869 $313 4.3005132242267869 $448 $620 forward 7 unknown #
point $-1 40.444349497970521 -22.817046295040239 4.276637176852061 #
point $-1 -40.444349497970521 -22.817046295040239 4.276637176852061 #
face $-1 $-1 $481 $44 $-1 $621 reversed single #
loop $-1 $-1 $477 $315 #
plane-surface $-1 0 0 7.276637176852061 0 0 1 1 0 0 forward_v I I I I #
coedge $-1 $622 $623 $472 $624 forward $316 $-1 #
coedge $-1 $318 $325 $622 $625 forward $192 $-1 #
edge $-1 $626 -4.3005132242267869 $327 4.3005132242267869 $319 $627 forward 7 unknown #
coedge $-1 $320 $319 $469 $624 reversed $121 $-1 #
coedge $-1 $628 $477 $320 $474 forward $467 $-1 #
edge $-1 $475 22.817046295040239 $629 31.418072743493809 $320 $630 forward 7 unknown #
vertex $-1 $474 $631 #
straight-curve $-1 40.444349497970521 22.817046295040239 0 0 0 -1 I I #
coedge $-1 $473 $632 $322 $478 forward $467 $-1 #
edge $-1 $482 -40.444349497970521 $475 40.444349497970521 $477 $633 forward 7 unknown #
coedge $-1 $634 $323 $632 $635 reversed $481 $-1 #
coedge $-1 $323 $634 $325 $484 reversed $481 $-1 #
loop $-1 $-1 $323 $466 #
vertex $-1 $324 $636 #
straight-curve $-1 -40.444349497970521 22.817046295040239 0 0 0 1 I I #
edge $-1 $326 -4.3005132242267869 $637 4.3005132242267869 $480 $638 forward 7 unknown #
point $-1 -40.444349497970521 22.817046295040235 4.276637176852061 #
point $-1 40.444349497970521 22.817046295040235 4.276637176852061 #
plane-surface $-1 0 0 7.276637176852061 0 0 1 1 0 0 forward_v I I I I #
coedge $-1 $498 $497 $490 $639 forward $330 $-1 #
coedge $-1 $490 $332 $334 $494 reversed $200 $-1 #
coedge $-1 $332 $489 $488 $639 reversed $200 $-1 #
coedge $-1 $340 $335 $332 $492 forward $341 $-1 #
edge $-1 $495 -17.50618510053993 $640 -12.078119273469262 $491 $641 forward 7 unknown #
coedge $-1 $334 $333 $498 $642 reversed $125 $-1 #
edge $-1 $643 -2.3614502601449494e-014 $495 9.0194922304786189 $489 $644 forward 7 unknown #
vertex $-1 $336 $645 #
straight-curve $-1 -35.016283670899853 -4.7567653732413957 7.276637176852061 0 1 0 I I #
coedge $-1 $488 $337 $340 $502 reversed $330 $-1 #
coedge $-1 $337 $488 $493 $642 forward $330 $-1 #
vertex $-1 $338 $646 #
straight-curve $-1 -40.444349497970521 -12.322083624045714 24.376691850510003 0 0 1 I I #
straight-curve $-1 -40.444349497970506 -12.322083624045714 0.073350324820417256 -0.60181501223851219 0 -0.79863551827123203 I I #
edge $-1 $640 6.7049778689198689 $342 12.322083624045714 $497 $647 forward 7 unknown #
point $-1 -40.444349497970521 -12.322083624045714 7.276637176852061 #
point $-1 -35.016283670899853 -12.322083624045714 7.276637176852061 #
edge $-1 $648 1 $648 0 $345 $-1 forward 7 unknown #
vertex $-1 $346 $649 #
ellipse-curve $-1 -36.931681066163961 -10.717196265438329 3.0731787385977301 -0.79863551827123203 0 0.60181501223851219 0.15045375305962805 0 0.19965887956780801 1 I I #
point $-1 -37.579862831375564 -10.717196265438329 3.8746526304040505 #
edge $-1 $650 1 $650 0 $349 $-1 forward 7 unknown #
vertex $-1 $350 $651 #
ellipse-curve $-1 -36.931681066163961 -8.3098652275272507 3.0731787385977301 -0.79863551827123203 0 0.60181501223851219 0.15045375305962805 0 0.19965887956780801 1 I I #
point $-1 -37.579862831375564 -8.3098652275272507 3.8746526304040505 #
loop $-1 $-1 $361 $353 #
plane-surface $-1 -40.444349497970521 0 0 1 0 0 0 0 -1 forward_v I I I I #
coedge $-1 $516 $356 $358 $520 reversed $222 $-1 #
coedge $-1 $356 $515 $652 $653 reversed $222 $-1 #
coedge $-1 $364 $359 $356 $518 forward $354 $-1 #
edge $-1 $521 -17.50618510053993 $654 -12.078119273469262 $517 $655 forward 7 unknown #
coedge $-1 $358 $357 $524 $656 reversed $139 $-1 #
edge $-1 $657 -2.3614502601449494e-014 $521 9.0194922304786189 $515 $658 forward 7 unknown #
vertex $-1 $360 $659 #
straight-curve $-1 -35.016283670899853 -0.018092091045840419 7.276637176852061 0 1 0 I I #
coedge $-1 $652 $361 $364 $528 reversed $513 $-1 #
coedge $-1 $361 $652 $519 $656 forward $513 $-1 #
vertex $-1 $362 $660 #
straight-curve $-1 -40.444349497970521 -2.8447370596546033 24.376691850510003 0 0 1 I I #
straight-curve $-1 -40.444349497970506 -2.8447370596546033 0.073350324820417256 -0.60181501223851219 0 -0.79863551827123203 I I #
edge $-1 $654 -2.7723686954712417 $365 2.8447370596546033 $523 $661 forward 7 unknown #
point $-1 -40.444349497970521 -2.8447370596546033 7.276637176852061 #
point $-1 -35.016283670899853 -2.8447370596546033 7.276637176852061 #
edge $-1 $662 1 $662 0 $368 $-1 forward 7 unknown #
vertex $-1 $369 $663 #
ellipse-curve $-1 -36.931681066163961 -1.2398497010472163 3.0731787385977301 -0.79863551827123203 0 0.60181501223851219 0.15045375305962805 0 0.19965887956780801 1 I I #
point $-1 -37.579862831375564 -1.2398497010472163 3.8746526304040505 #
edge $-1 $664 1 $664 0 $372 $-1 forward 7 unknown #
vertex $-1 $373 $665 #
ellipse-curve $-1 -36.931681066163961 1.1674813368638617 3.0731787385977301 -0.79863551827123203 0 0.60181501223851219 0.15045375305962805 0 0.19965887956780801 1 I I #
point $-1 -37.579862831375564 1.1674813368638617 3.8746526304040505 #
loop $-1 $-1 $384 $376 #
plane-surface $-1 -40.444349497970521 0 0 1 0 0 0 0 -1 forward_v I I I I #
coedge $-1 $542 $379 $381 $546 reversed $244 $-1 #
coedge $-1 $379 $541 $666 $667 reversed $244 $-1 #
coedge $-1 $387 $382 $379 $544 forward $377 $-1 #
edge $-1 $547 -17.50618510053993 $668 -12.078119273469262 $543 $669 forward 7 unknown #
coedge $-1 $381 $380 $550 $670 reversed $153 $-1 #
edge $-1 $671 -2.3614502601449494e-014 $547 9.0194922304786189 $541 $672 forward 7 unknown #
vertex $-1 $383 $673 #
straight-curve $-1 -35.016283670899853 4.720581191149714 7.276637176852061 0 1 0 I I #
coedge $-1 $666 $384 $387 $554 reversed $539 $-1 #
coedge $-1 $384 $666 $545 $670 forward $539 $-1 #
vertex $-1 $385 $674 #
straight-curve $-1 -40.444349497970521 6.6326095047365055 24.376691850510003 0 0 1 I I #
straight-curve $-1 -40.444349497970506 6.6326095047365055 0.073350324820417256 -0.60181501223851219 0 -0.79863551827123203 I I #
edge $-1 $668 -12.24971525986235 $388 -6.6326095047365055 $549 $675 forward 7 unknown #
point $-1 -40.444349497970521 6.6326095047365055 7.276637176852061 #
point $-1 -35.016283670899853 6.6326095047365055 7.276637176852061 #
edge $-1 $676 1 $676 0 $391 $-1 forward 7 unknown #
vertex $-1 $392 $677 #
ellipse-curve $-1 -36.931681066163961 8.2374968633438961 3.0731787385977301 -0.79863551827123203 0 0.60181501223851219 0.15045375305962805 0 0.19965887956780801 1 I I #
point $-1 -37.579862831375564 8.2374968633438961 3.8746526304040505 #
edge $-1 $678 1 $678 0 $395 $-1 forward 7 unknown #
vertex $-1 $396 $679 #
ellipse-curve $-1 -36.931681066163961 10.644827901254974 3.0731787385977301 -0.79863551827123203 0 0.60181501223851219 0.15045375305962805 0 0.19965887956780801 1 I I #
point $-1 -37.579862831375564 10.644827901254974 3.8746526304040505 #
loop $-1 $-1 $407 $399 #
plane-surface $-1 40.444349497970521 0 0 -1 0 0 0 0 1 forward_v I I I I #
coedge $-1 $568 $402 $404 $572 reversed $266 $-1 #
coedge $-1 $402 $567 $680 $681 reversed $266 $-1 #
coedge $-1 $410 $405 $402 $570 forward $400 $-1 #
edge $-1 $573 17.73045542784228 $682 25.207216610690857 $569 $683 forward 7 unknown #
coedge $-1 $404 $403 $576 $684 reversed $167 $-1 #
edge $-1 $685 -80.888698995941041 $573 -71.128480362789404 $567 $686 forward 7 unknown #
vertex $-1 $406 $687 #
straight-curve $-1 32.967588315121944 2.6508969203603971 7.2766371768520663 0 -1 0 I I #
coedge $-1 $680 $407 $410 $580 reversed $565 $-1 #
coedge $-1 $407 $680 $571 $684 forward $565 $-1 #
vertex $-1 $408 $688 #
straight-curve $-1 40.444349497970521 8.8424639355522352 57.48074072628215 0 0 1 I I #
straight-curve $-1 -21.519988342757308 8.8424639355522352 52.997143611836464 0.76604443648966558 0 -0.64278761758704617 I I #
edge $-1 $682 1.7611237458893534 $411 8.8424639355522352 $575 $689 forward 7 unknown #
point $-1 40.444349497970521 8.8424639355522352 7.276637176852061 #
point $-1 32.967588315121944 8.8424639355522352 7.2766371768520628 #
edge $-1 $690 1 $690 0 $414 $-1 forward 7 unknown #
vertex $-1 $415 $691 #
ellipse-curve $-1 34.128805850218548 5.3017938407207943 1.0684200689355046 0.64278761758704617 0 0.76604443648966558 1.1490666547344983 0 -0.96418142638056925 1 I I #
point $-1 37.855035561280737 5.3017938407207943 3.1755819093053725 #
plane-surface $-1 40.444349497970521 0 0 -1 0 0 0 0 1 forward_v I I I I #
coedge $-1 $423 $421 $425 $592 reversed $281 $-1 #
edge $-1 $436 -7.276637176852061 $594 7.276637176852061 $435 $692 forward 7 unknown #
vertex $-1 $592 $693 #
straight-curve $-1 -40.444349497970521 -22.817046295040239 0 0 0 -1 I I #
edge $-1 $590 -22.817046295040239 $594 22.817046295040239 $588 $694 forward 7 unknown #
straight-curve $-1 0 -22.817046295040239 -7.276637176852061 -1 0 0 I I #
vertex $-1 $428 $695 #
straight-curve $-1 0 22.817046295040239 -7.276637176852061 1 0 0 I I #
point $-1 40.444349497970521 22.817046295040239 -7.276637176852061 #
point $-1 40.444349497970521 -22.817046295040239 -7.276637176852061 #
straight-curve $-1 -40.444349497970521 0 7.276637176852061 0 -1 0 I I #
point $-1 -40.444349497970521 22.817046295040239 7.276637176852061 #
point $-1 -40.444349497970521 -22.817046295040239 7.276637176852061 #
straight-curve $-1 40.444349497970521 -22.817046295040239 0 0 0 -1 I I #
straight-curve $-1 40.444349497970521 22.817046295040239 0 0 0 -1 I I #
plane-surface $-1 40.444349497970521 0 0 -1 0 0 0 0 1 forward_v I I I I #
coedge $-1 $615 $606 $605 $696 forward $446 $-1 #
coedge $-1 $449 $448 $604 $696 reversed $184 $-1 #
coedge $-1 $604 $697 $450 $607 reversed $446 $-1 #
edge $-1 $608 -40.444349497970521 $611 40.444349497970521 $606 $698 forward 7 unknown #
vertex $-1 $451 $699 #
straight-curve $-1 -40.444349497970521 0 7.276637176852061 0 -1 0 I I #
coedge $-1 $458 $452 $697 $700 forward $459 $-1 #
vertex $-1 $453 $701 #
straight-curve $-1 40.444349497970521 0 7.276637176852061 0 1 0 I I #
point $-1 40.444349497970521 -22.817046295040239 7.276637176852061 #
point $-1 -40.444349497970521 -22.817046295040239 7.276637176852061 #
coedge $-1 $697 $604 $461 $616 reversed $446 $-1 #
edge $-1 $617 -40.444349497970521 $619 40.444349497970521 $615 $702 forward 7 unknown #
vertex $-1 $700 $703 #
straight-curve $-1 40.444349497970521 -27.117559519267026 4.276637176852061 0 -1 0 I I #
vertex $-1 $463 $704 #
straight-curve $-1 -40.444349497970521 -27.117559519267026 4.276637176852061 0 1 0 I I #
plane-surface $-1 -40.444349497970521 0 0 1 0 0 0 0 -1 forward_v I I I I #
coedge $-1 $705 $469 $470 $625 reversed $316 $-1 #
coedge $-1 $469 $705 $628 $706 reversed $316 $-1 #
edge $-1 $629 -1.5 $626 1.5 $472 $707 forward 7 unknown #
edge $-1 $637 -40.444349497970521 $626 40.444349497970521 $622 $708 forward 7 unknown #
vertex $-1 $471 $709 #
straight-curve $-1 40.444349497970521 27.117559519267022 4.276637176852061 0 -1 0 I I #
coedge $-1 $632 $473 $623 $706 forward $467 $-1 #
vertex $-1 $474 $710 #
straight-curve $-1 40.444349497970521 0 7.276637176852061 0 1 0 I I #
point $-1 40.444349497970521 22.817046295040239 7.276637176852061 #
coedge $-1 $477 $628 $479 $635 forward $467 $-1 #
straight-curve $-1 0 22.817046295040239 7.276637176852061 1 0 0 I I #
coedge $-1 $480 $479 $705 $711 forward $481 $-1 #
edge $-1 $712 -31.418072743493809 $482 -22.817046295040239 $479 $713 forward 7 unknown #
point $-1 -40.444349497970521 22.817046295040239 7.276637176852061 #
vertex $-1 $625 $714 #
straight-curve $-1 -40.444349497970521 27.117559519267022 4.276637176852061 0 1 0 I I #
edge $-1 $640 17.100054673657944 $643 24.303341525689603 $488 $715 forward 7 unknown #
vertex $-1 $502 $716 #
straight-curve $-1 -52.522468771439783 -6.7049778689198689 7.2766371768520592 -1 0 0 I I #
edge $-1 $643 1.9482124956784732 $499 7.5653182508043182 $498 $717 forward 7 unknown #
vertex $-1 $642 $718 #
straight-curve $-1 -40.444349497970506 -6.7049778689198689 0.073350324820417256 0.60181501223851219 0 0.79863551827123203 I I #
point $-1 -35.016283670899853 -6.7049778689198689 7.276637176852061 #
point $-1 -40.444349497970521 -12.322083624045714 0.073350324820398397 #
straight-curve $-1 -40.444349497970521 0 7.276637176852061 0 -1 0 I I #
vertex $-1 $505 $719 #
point $-1 -36.781227313104331 -10.717196265438329 3.2728376181655383 #
vertex $-1 $509 $720 #
point $-1 -36.781227313104331 -8.3098652275272507 3.2728376181655383 #
coedge $-1 $524 $523 $516 $653 forward $513 $-1 #
edge $-1 $654 17.100054673657944 $657 24.303341525689603 $652 $721 forward 7 unknown #
vertex $-1 $528 $722 #
straight-curve $-1 -52.522468771439783 2.7723686954712417 7.2766371768520592 -1 0 0 I I #
edge $-1 $657 -2.7904607865170821 $525 2.8266449686087629 $524 $723 forward 7 unknown #
vertex $-1 $656 $724 #
straight-curve $-1 -40.444349497970506 2.7723686954712417 0.073350324820417256 0.60181501223851219 0 0.79863551827123203 I I #
point $-1 -35.016283670899853 2.7723686954712417 7.276637176852061 #
point $-1 -40.444349497970521 -2.8447370596546033 0.073350324820398397 #
straight-curve $-1 -40.444349497970521 0 7.276637176852061 0 -1 0 I I #
vertex $-1 $531 $725 #
point $-1 -36.781227313104331 -1.2398497010472163 3.2728376181655383 #
vertex $-1 $535 $726 #
point $-1 -36.781227313104331 1.1674813368638617 3.2728376181655383 #
coedge $-1 $550 $549 $542 $667 forward $539 $-1 #
edge $-1 $668 17.100054673657944 $671 24.303341525689603 $666 $727 forward 7 unknown #
vertex $-1 $554 $728 #
straight-curve $-1 -52.522468771439783 12.24971525986235 7.2766371768520592 -1 0 0 I I #
edge $-1 $671 -7.5291340687126365 $551 -1.9120283135867915 $550 $729 forward 7 unknown #
vertex $-1 $670 $730 #
straight-curve $-1 -40.444349497970506 12.24971525986235 0.073350324820417256 0.60181501223851219 0 0.79863551827123203 I I #
point $-1 -35.016283670899853 12.24971525986235 7.276637176852061 #
point $-1 -40.444349497970521 6.6326095047365055 0.073350324820398397 #
straight-curve $-1 -40.444349497970521 0 7.276637176852061 0 -1 0 I I #
vertex $-1 $557 $731 #
point $-1 -36.781227313104331 8.2374968633438961 3.2728376181655383 #
vertex $-1 $561 $732 #
point $-1 -36.781227313104331 10.644827901254974 3.2728376181655383 #
coedge $-1 $576 $575 $568 $681 forward $565 $-1 #
edge $-1 $682 50.204103549430087 $685 56.477851231762322 $680 $733 forward 7 unknown #
vertex $-1 $580 $734 #
straight-curve $-1 15.237132887279664 1.7611237458893534 7.2766371768520628 1 0 0 I I #
edge $-1 $685 -0.88977317447104376 $577 6.1915670151918381 $576 $735 forward 7 unknown #
vertex $-1 $684 $736 #
straight-curve $-1 -21.519988342757308 1.7611237458893534 52.997143611836464 -0.76604443648966558 0 0.64278761758704617 I I #
point $-1 32.967588315121944 1.7611237458893534 7.2766371768520628 #
point $-1 40.444349497970528 8.8424639355522352 1.0028894945198275 #
straight-curve $-1 40.444349497970521 0 7.276637176852061 0 1 0 I I #
vertex $-1 $583 $737 #
point $-1 35.277872504953052 5.3017938407207943 0.10423864255493542 #
straight-curve $-1 -40.444349497970521 22.817046295040239 0 0 0 -1 I I #
point $-1 -40.444349497970521 -22.817046295040239 -7.276637176852061 #
straight-curve $-1 -40.444349497970521 0 -7.276637176852061 0 1 0 I I #
point $-1 -40.444349497970521 22.817046295040239 -7.276637176852061 #
edge $-1 $608 -1.5 $619 1.5 $605 $738 forward 7 unknown #
coedge $-1 $606 $615 $610 $700 reversed $446 $-1 #
straight-curve $-1 0 -31.418072743493813 7.276637176852061 1 0 0 I I #
point $-1 -40.444349497970521 -31.418072743493813 7.276637176852061 #
edge $-1 $611 -1.5 $617 1.5 $610 $739 forward 7 unknown #
point $-1 40.444349497970521 -31.418072743493813 7.276637176852061 #
straight-curve $-1 0 -31.418072743493813 4.276637176852061 -1 0 0 I I #
point $-1 40.444349497970521 -31.418072743493813 4.276637176852061 #
point $-1 -40.444349497970521 -31.418072743493813 4.276637176852061 #
coedge $-1 $623 $622 $634 $711 reversed $316 $-1 #
edge $-1 $629 -40.444349497970521 $712 40.444349497970521 $623 $740 forward 7 unknown #
straight-curve $-1 40.444349497970521 31.418072743493809 5.776637176852061 0 0 -1 I I #
straight-curve $-1 0 31.418072743493809 4.276637176852061 1 0 0 I I #
point $-1 40.444349497970521 31.418072743493809 4.276637176852061 #
point $-1 40.444349497970521 31.418072743493809 7.276637176852061 #
edge $-1 $712 -1.5 $637 1.5 $705 $741 forward 7 unknown #
vertex $-1 $706 $742 #
straight-curve $-1 -40.444349497970521 0 7.276637176852061 0 -1 0 I I #
point $-1 -40.444349497970521 31.418072743493809 4.276637176852061 #
straight-curve $-1 -40.444349497970521 -6.7049778689198689 24.376691850510003 0 0 -1 I I #
point $-1 -40.444349497970521 -6.7049778689198689 7.276637176852061 #
straight-curve $-1 -40.444349497970521 -4.7567653732413957 0.073350324820395496 0 -1 0 I I #
point $-1 -40.444349497970521 -6.7049778689198689 0.073350324820398397 #
point $-1 -36.732022186596154 -10.717196265438329 2.9227249855381023 #
point $-1 -36.732022186596154 -8.3098652275272507 2.9227249855381023 #
straight-curve $-1 -40.444349497970521 2.7723686954712417 24.376691850510003 0 0 -1 I I #
point $-1 -40.444349497970521 2.7723686954712417 7.276637176852061 #
straight-curve $-1 -40.444349497970521 -0.018092091045840419 0.073350324820395496 0 -1 0 I I #
point $-1 -40.444349497970521 2.7723686954712417 0.073350324820398397 #
point $-1 -36.732022186596154 -1.2398497010472163 2.9227249855381023 #
point $-1 -36.732022186596154 1.1674813368638617 2.9227249855381023 #
straight-curve $-1 -40.444349497970521 12.24971525986235 24.376691850510003 0 0 -1 I I #
point $-1 -40.444349497970521 12.24971525986235 7.276637176852061 #
straight-curve $-1 -40.444349497970521 4.720581191149714 0.073350324820395496 0 -1 0 I I #
point $-1 -40.444349497970521 12.24971525986235 0.073350324820398397 #
point $-1 -36.732022186596154 8.2374968633438961 2.9227249855381023 #
point $-1 -36.732022186596154 10.644827901254974 2.9227249855381023 #
straight-curve $-1 40.444349497970521 1.7611237458893534 57.48074072628215 0 0 -1 I I #
point $-1 40.444349497970521 1.7611237458893534 7.276637176852061 #
straight-curve $-1 40.444349497970521 2.6508969203603971 1.0028894945198381 0 1 0 I I #
point $-1 40.444349497970528 1.7611237458893534 1.0028894945198275 #
point $-1 33.164624423837985 5.3017938407207943 -0.080646585798993642 #
straight-curve $-1 -40.444349497970521 -31.418072743493813 5.776637176852061 0 0 -1 I I #
straight-curve $-1 40.444349497970521 -31.418072743493813 5.776637176852061 0 0 -1 I I #
straight-curve $-1 0 31.418072743493809 7.276637176852061 -1 0 0 I I #
straight-curve $-1 -40.444349497970521 31.418072743493809 5.776637176852061 0 0 -1 I I #
point $-1 -40.444349497970521 31.418072743493809 7.276637176852061 #
End-of-ACIS-data 