500 0 5 0           
7 Unknown 11 ACIS 5.0 NT 24 Fri Mar 26 02:30:02 1999 
-1 9.9999999999999995e-007 1e-010 
body $-1 $5 $-1 $6 #
body $-1 $7 $-1 $8 #
body $-1 $9 $-1 $10 #
body $-1 $11 $-1 $12 #
body $-1 $13 $-1 $14 #
lump $-1 $-1 $15 $0 #
transform $-1 1 0 0 0 1 0 0 0 1 44.421521652882475 20.508164035650044 6.6890149331524489 1 rotate no_reflect no_shear #
lump $-1 $-1 $16 $1 #
transform $-1 1 0 0 0 1 0 0 0 1 44.421521652882475 20.508164035650044 6.6890149331524489 1 rotate no_reflect no_shear #
lump $-1 $-1 $17 $2 #
transform $-1 1 0 0 0 1 0 0 0 1 44.421521652882475 20.508164035650044 6.6890149331524489 1 rotate no_reflect no_shear #
lump $-1 $-1 $18 $3 #
transform $-1 1 0 0 0 1 0 0 0 1 44.421521652882475 20.508164035650044 6.6890149331524489 1 rotate no_reflect no_shear #
lump $-1 $-1 $19 $4 #
transform $-1 1 0 0 0 1 0 0 0 1 44.421521652882475 20.508164035650044 6.6890149331524489 1 rotate no_reflect no_shear #
shell $-1 $-1 $-1 $20 $-1 $5 #
shell $-1 $-1 $-1 $21 $-1 $7 #
shell $-1 $-1 $-1 $22 $-1 $9 #
shell $-1 $-1 $-1 $23 $-1 $11 #
shell $-1 $-1 $-1 $24 $-1 $13 #
face $-1 $25 $26 $15 $-1 $27 forward single #
face $-1 $28 $29 $16 $-1 $30 reversed single #
face $-1 $31 $32 $17 $-1 $33 reversed single #
face $-1 $34 $35 $18 $-1 $36 reversed single #
face $-1 $37 $38 $19 $-1 $39 forward single #
face $-1 $40 $41 $15 $-1 $42 reversed single #
loop $-1 $-1 $43 $20 #
plane-surface $-1 0 0 6.6890149331524489 0 0 1 1 0 0 forward_v I I I I #
face $-1 $44 $45 $16 $-1 $46 reversed single #
loop $-1 $-1 $47 $21 #
plane-surface $-1 -42.921521652882475 -12.532593111588977 0 0 -1 0 0 0 -1 forward_v I I I I #
face $-1 $48 $49 $17 $-1 $50 reversed single #
loop $-1 $-1 $51 $22 #
plane-surface $-1 -42.921521652882475 12.532593111588973 0 0 1 0 0 0 1 forward_v I I I I #
face $-1 $52 $53 $18 $-1 $54 reversed single #
loop $-1 $-1 $55 $23 #
plane-surface $-1 44.421523110662307 8.2749859073309544 125.99857462857325 0 -1 0 -0.70710678939079041 0 -0.70710677298230451 forward_v I I I I #
face $-1 $56 $57 $19 $-1 $58 forward single #
loop $-1 $59 $60 $24 #
cone-surface $-1 40.052591592145738 5.0162389375239407 2.3200848268281993 -0.70710678939079041 0 -0.70710677298230451 0.70710677298230451 0 -0.70710678939079041 1 I I 0 1 1 forward I I I I #
face $-1 $61 $62 $15 $-1 $63 reversed single #
loop $-1 $-1 $64 $25 #
plane-surface $-1 0 0 -6.6890149331524489 0 0 1 1 0 0 forward_v I I I I #
coedge $-1 $65 $66 $67 $68 forward $26 $-1 #
face $-1 $69 $70 $16 $-1 $71 forward single #
loop $-1 $-1 $72 $28 #
plane-surface $-1 -41.421521652882475 -16.52037857361951 0 -1 0 0 0 0 1 forward_v I I I I #
coedge $-1 $73 $74 $75 $76 forward $29 $-1 #
face $-1 $77 $78 $17 $-1 $79 reversed single #
loop $-1 $-1 $80 $31 #
plane-surface $-1 -41.421521652882475 16.520378573619507 0 -1 0 0 0 0 1 forward_v I I I I #
coedge $-1 $81 $82 $83 $84 reversed $32 $-1 #
face $-1 $85 $86 $18 $-1 $87 reversed single #
loop $-1 $-1 $88 $34 #
plane-surface $-1 -18.399996000984103 5.0162389375239407 63.177056974706666 0.70710678939079041 0 0.70710677298230451 0.70710677298230451 0 -0.70710678939079041 forward_v I I I I #
coedge $-1 $89 $90 $91 $92 reversed $35 $-1 #
face $-1 $-1 $93 $19 $-1 $94 forward single #
loop $-1 $95 $96 $37 #
cone-surface $-1 38.496846598275212 5.0162389375239407 0.76433986905889473 -0.70710678939079041 0 -0.70710677298230451 0.35355338649115226 0 -0.35355339469539521 1 I I -0.70710678118654746 0.70710678118654746 0.5 forward I I I I #
loop $-1 $-1 $97 $24 #
coedge $-1 $60 $60 $98 $99 reversed $38 $-1 #
face $-1 $100 $101 $15 $-1 $102 reversed single #
loop $-1 $-1 $103 $40 #
plane-surface $-1 0 -20.508164035650044 0 0 1 0 0 0 1 forward_v I I I I #
coedge $-1 $104 $105 $106 $107 forward $41 $-1 #
coedge $-1 $108 $43 $109 $110 forward $26 $-1 #
coedge $-1 $43 $108 $111 $112 forward $26 $-1 #
coedge $-1 $113 $114 $43 $68 reversed $115 $-1 #
edge $-1 $116 -20.508164035650044 $117 20.508164035650044 $67 $118 forward 7 unknown #
face $-1 $119 $120 $16 $-1 $121 reversed single #
loop $-1 $-1 $122 $44 #
plane-surface $-1 0 0 6.6890149331524489 0 0 1 1 0 0 forward_v I I I I #
coedge $-1 $123 $124 $125 $126 reversed $45 $-1 #
coedge $-1 $127 $47 $128 $129 reversed $29 $-1 #
coedge $-1 $47 $127 $130 $131 reversed $29 $-1 #
coedge $-1 $124 $123 $47 $76 reversed $45 $-1 #
edge $-1 $132 -6.6890149331524489 $133 6.6890149331524489 $75 $134 forward 7 unknown #
face $-1 $135 $136 $17 $-1 $137 reversed single #
loop $-1 $-1 $138 $48 #
plane-surface $-1 0 0 -6.6890149331524489 0 0 1 1 0 0 forward_v I I I I #
coedge $-1 $139 $140 $141 $142 forward $49 $-1 #
coedge $-1 $141 $51 $143 $144 reversed $32 $-1 #
coedge $-1 $51 $141 $145 $146 reversed $32 $-1 #
coedge $-1 $147 $148 $51 $84 forward $136 $-1 #
edge $-1 $149 -6.6890149331524489 $150 6.6890149331524489 $83 $151 forward 7 unknown #
face $-1 $152 $153 $18 $-1 $154 reversed single #
loop $-1 $-1 $155 $52 #
plane-surface $-1 44.421523110662307 1.757491967716927 125.99857462857325 0 1 0 0.70710678939079041 0 0.70710677298230451 forward_v I I I I #
coedge $-1 $156 $157 $158 $159 reversed $53 $-1 #
coedge $-1 $90 $55 $160 $161 reversed $35 $-1 #
coedge $-1 $55 $89 $156 $162 reversed $35 $-1 #
coedge $-1 $158 $163 $55 $92 forward $164 $-1 #
edge $-1 $165 -22.210760097551322 $166 -15.877283174428122 $91 $167 forward 7 unknown #
loop $-1 $-1 $98 $56 #
plane-surface $-1 -18.399996000984103 5.0162389375239407 63.177056974706666 0.70710678939079041 0 0.70710677298230451 0.70710677298230451 0 -0.70710678939079041 forward_v I I I I #
loop $-1 $-1 $168 $37 #
coedge $-1 $96 $96 $97 $169 reversed $57 $-1 #
coedge $-1 $97 $97 $96 $169 forward $59 $-1 #
coedge $-1 $98 $98 $60 $99 forward $93 $-1 #
edge $-1 $170 0 $170 6.2831853071796004 $98 $171 forward 7 unknown #
face $-1 $172 $173 $15 $-1 $174 reversed single #
loop $-1 $-1 $175 $61 #
plane-surface $-1 -44.421521652882475 0 0 1 0 0 0 0 -1 forward_v I I I I #
coedge $-1 $176 $111 $177 $178 forward $62 $-1 #
coedge $-1 $179 $64 $176 $180 forward $41 $-1 #
coedge $-1 $64 $179 $181 $182 forward $41 $-1 #
coedge $-1 $114 $113 $64 $107 reversed $115 $-1 #
edge $-1 $183 -20.508164035650044 $184 20.508164035650044 $106 $185 forward 7 unknown #
coedge $-1 $66 $65 $186 $187 forward $26 $-1 #
coedge $-1 $188 $189 $65 $110 reversed $173 $-1 #
edge $-1 $117 -44.421521652882475 $190 44.421521652882475 $109 $191 forward 7 unknown #
coedge $-1 $103 $192 $66 $112 reversed $62 $-1 #
edge $-1 $193 -44.421521652882475 $116 44.421521652882475 $111 $194 forward 7 unknown #
coedge $-1 $106 $67 $192 $195 forward $115 $-1 #
coedge $-1 $67 $106 $188 $196 reversed $115 $-1 #
loop $-1 $-1 $113 $172 #
vertex $-1 $68 $197 #
vertex $-1 $68 $198 #
straight-curve $-1 44.421521652882475 0 6.6890149331524489 0 1 0 I I #
face $-1 $199 $200 $16 $-1 $201 reversed single #
loop $-1 $-1 $202 $69 #
plane-surface $-1 -44.421521652882475 0 0 1 0 0 0 0 -1 forward_v I I I I #
coedge $-1 $130 $203 $124 $204 forward $70 $-1 #
coedge $-1 $75 $72 $205 $206 reversed $45 $-1 #
coedge $-1 $72 $75 $122 $204 reversed $45 $-1 #
coedge $-1 $207 $208 $72 $126 forward $209 $-1 #
edge $-1 $210 -6.6890149331524489 $211 6.6890149331524489 $125 $212 forward 7 unknown #
coedge $-1 $74 $73 $202 $213 reversed $29 $-1 #
coedge $-1 $205 $214 $73 $129 forward $200 $-1 #
edge $-1 $215 -22.960760826441238 $133 -19.960760826441238 $128 $216 forward 7 unknown #
coedge $-1 $217 $122 $74 $131 forward $70 $-1 #
edge $-1 $132 19.960760826441238 $218 22.960760826441238 $130 $219 forward 7 unknown #
vertex $-1 $131 $220 #
vertex $-1 $129 $221 #
straight-curve $-1 -41.421521652882475 -12.532593111588977 0 0 0 -1 I I #
face $-1 $222 $223 $17 $-1 $224 forward single #
loop $-1 $-1 $83 $77 #
plane-surface $-1 -44.421521652882475 0 0 1 0 0 0 0 -1 forward_v I I I I #
coedge $-1 $143 $225 $139 $226 forward $78 $-1 #
coedge $-1 $227 $80 $138 $226 reversed $49 $-1 #
coedge $-1 $80 $227 $228 $229 reversed $49 $-1 #
coedge $-1 $82 $81 $80 $142 reversed $32 $-1 #
edge $-1 $230 -6.6890149331524489 $231 6.6890149331524489 $80 $232 forward 7 unknown #
coedge $-1 $233 $138 $81 $144 forward $78 $-1 #
edge $-1 $231 19.960760826441238 $149 22.960760826441238 $143 $234 forward 7 unknown #
coedge $-1 $228 $235 $82 $146 forward $223 $-1 #
edge $-1 $150 -22.960760826441238 $230 -19.960760826441238 $145 $236 forward 7 unknown #
coedge $-1 $237 $83 $235 $238 reversed $136 $-1 #
coedge $-1 $83 $237 $233 $239 reversed $136 $-1 #
vertex $-1 $239 $240 #
vertex $-1 $84 $241 #
straight-curve $-1 -44.421521652882475 12.532593111588973 0 0 0 1 I I #
face $-1 $-1 $164 $18 $-1 $242 forward single #
loop $-1 $-1 $243 $85 #
plane-surface $-1 44.421521652882475 0 0 -1 0 0 0 0 1 forward_v I I I I #
coedge $-1 $244 $245 $246 $247 reversed $86 $-1 #
coedge $-1 $248 $88 $90 $162 forward $53 $-1 #
coedge $-1 $88 $248 $244 $249 forward $53 $-1 #
coedge $-1 $246 $91 $88 $159 forward $164 $-1 #
edge $-1 $166 -5.7668664385689841 $250 0.75062750104504339 $158 $251 forward 7 unknown #
coedge $-1 $252 $253 $89 $161 forward $153 $-1 #
edge $-1 $254 -62.643749451226356 $165 -56.310272381134176 $160 $255 forward 7 unknown #
edge $-1 $166 79.886154240184354 $254 88.843043305764965 $90 $256 forward 7 unknown #
coedge $-1 $91 $246 $252 $257 forward $164 $-1 #
loop $-1 $-1 $246 $152 #
vertex $-1 $161 $258 #
vertex $-1 $92 $259 #
straight-curve $-1 22.210761555331153 8.2749859073309544 6.6890149331524498 -1 0 0 I I #
coedge $-1 $168 $168 $-1 $260 reversed $95 $-1 #
edge $-1 $261 0 $261 6.2831853071796004 $96 $262 forward 7 unknown #
vertex $-1 $99 $263 #
ellipse-curve $-1 41.254783191320875 5.0162389375239407 3.5222763981063574 0.70710678939079041 0 0.70710677298230451 0.70710677298230451 0 -0.70710678939079041 1 I I #
face $-1 $-1 $115 $15 $-1 $264 reversed single #
loop $-1 $-1 $188 $100 #
plane-surface $-1 0 20.508164035650044 0 0 -1 0 0 0 -1 forward_v I I I I #
coedge $-1 $265 $186 $189 $266 forward $101 $-1 #
coedge $-1 $192 $103 $104 $180 reversed $62 $-1 #
coedge $-1 $186 $265 $103 $178 reversed $101 $-1 #
edge $-1 $193 -6.6890149331524489 $267 6.6890149331524489 $177 $268 forward 7 unknown #
coedge $-1 $105 $104 $265 $269 forward $41 $-1 #
edge $-1 $184 -44.421521652882475 $267 44.421521652882475 $176 $270 forward 7 unknown #
coedge $-1 $189 $188 $105 $182 reversed $173 $-1 #
edge $-1 $271 -44.421521652882475 $183 44.421521652882475 $181 $272 forward 7 unknown #
vertex $-1 $107 $273 #
vertex $-1 $195 $274 #
straight-curve $-1 44.421521652882475 0 -6.6890149331524489 0 -1 0 I I #
coedge $-1 $175 $177 $108 $187 reversed $101 $-1 #
edge $-1 $190 -20.508164035650044 $193 20.508164035650044 $186 $275 forward 7 unknown #
coedge $-1 $181 $109 $114 $196 forward $173 $-1 #
coedge $-1 $109 $181 $175 $266 reversed $173 $-1 #
vertex $-1 $110 $276 #
straight-curve $-1 0 20.508164035650044 6.6890149331524489 -1 0 0 I I #
coedge $-1 $111 $176 $113 $195 reversed $62 $-1 #
vertex $-1 $187 $277 #
straight-curve $-1 0 -20.508164035650044 6.6890149331524489 1 0 0 I I #
edge $-1 $116 -6.6890149331524489 $184 6.6890149331524489 $113 $278 forward 7 unknown #
edge $-1 $117 -6.6890149331524489 $183 6.6890149331524489 $114 $279 forward 7 unknown #
point $-1 44.421521652882475 -20.508164035650044 6.6890149331524489 #
point $-1 44.421521652882475 20.508164035650044 6.6890149331524489 #
face $-1 $-1 $209 $16 $-1 $280 reversed single #
loop $-1 $-1 $205 $119 #
plane-surface $-1 0 0 -6.6890149331524489 0 0 1 1 0 0 forward_v I I I I #
coedge $-1 $281 $282 $127 $213 forward $120 $-1 #
coedge $-1 $122 $217 $207 $283 forward $70 $-1 #
edge $-1 $211 -12.247974748840289 $132 -4.2724038247792215 $122 $284 forward 7 unknown #
coedge $-1 $285 $128 $123 $206 forward $200 $-1 #
edge $-1 $133 4.2724038247792215 $210 12.247974748840289 $205 $286 forward 7 unknown #
coedge $-1 $287 $125 $203 $283 reversed $209 $-1 #
coedge $-1 $125 $287 $285 $288 reversed $209 $-1 #
loop $-1 $-1 $125 $199 #
vertex $-1 $288 $289 #
vertex $-1 $126 $290 #
straight-curve $-1 -41.421521652882475 -20.508164035650044 0 0 0 1 I I #
edge $-1 $218 -6.6890149331524489 $215 6.6890149331524489 $202 $291 forward 7 unknown #
coedge $-1 $128 $285 $281 $292 forward $200 $-1 #
vertex $-1 $129 $293 #
straight-curve $-1 -21.460760826441238 -12.532593111588977 -6.6890149331524489 1 0 0 I I #
coedge $-1 $203 $130 $282 $294 forward $70 $-1 #
vertex $-1 $294 $295 #
straight-curve $-1 -21.460760826441238 -12.532593111588977 6.6890149331524489 -1 0 0 I I #
point $-1 -41.421521652882475 -12.532593111588977 6.6890149331524489 #
point $-1 -41.421521652882475 -12.532593111588977 -6.6890149331524489 #
face $-1 $-1 $296 $17 $-1 $297 reversed single #
loop $-1 $-1 $228 $135 #
plane-surface $-1 0 0 6.6890149331524489 0 0 1 1 0 0 forward_v I I I I #
coedge $-1 $138 $233 $298 $299 forward $78 $-1 #
edge $-1 $300 -12.247974748840287 $231 -4.2724038247792198 $138 $301 forward 7 unknown #
coedge $-1 $140 $139 $302 $303 reversed $49 $-1 #
coedge $-1 $304 $145 $140 $229 forward $223 $-1 #
edge $-1 $230 4.2724038247792198 $305 12.247974748840287 $228 $306 forward 7 unknown #
vertex $-1 $146 $307 #
vertex $-1 $144 $308 #
straight-curve $-1 -41.421521652882475 12.532593111588973 0 0 0 -1 I I #
coedge $-1 $225 $143 $148 $239 forward $78 $-1 #
straight-curve $-1 -21.460760826441238 12.532593111588973 -6.6890149331524489 -1 0 0 I I #
coedge $-1 $145 $304 $147 $238 forward $223 $-1 #
straight-curve $-1 -21.460760826441238 12.532593111588973 6.6890149331524489 1 0 0 I I #
coedge $-1 $148 $147 $309 $310 forward $136 $-1 #
edge $-1 $311 -20.508164035650044 $150 -12.532593111588973 $147 $312 forward 7 unknown #
edge $-1 $149 12.532593111588973 $313 20.508164035650044 $148 $314 forward 7 unknown #
point $-1 -44.421521652882475 12.532593111588973 -6.6890149331524489 #
point $-1 -44.421521652882475 12.532593111588973 6.6890149331524489 #
plane-surface $-1 0 0 6.6890149331524489 0 0 1 1 0 0 forward_v I I I I #
coedge $-1 $253 $252 $245 $315 forward $153 $-1 #
coedge $-1 $245 $155 $157 $249 reversed $86 $-1 #
coedge $-1 $155 $244 $243 $315 reversed $86 $-1 #
coedge $-1 $163 $158 $155 $247 forward $164 $-1 #
edge $-1 $250 15.877283174428122 $316 22.210760097551322 $246 $317 forward 7 unknown #
coedge $-1 $157 $156 $253 $318 reversed $53 $-1 #
edge $-1 $319 -88.843043305764965 $250 -79.886154240184354 $244 $320 forward 7 unknown #
vertex $-1 $159 $321 #
straight-curve $-1 38.088044729759282 2.5081194687619703 6.6890149331524427 0 -1 0 I I #
coedge $-1 $243 $160 $163 $257 reversed $153 $-1 #
coedge $-1 $160 $243 $248 $318 forward $153 $-1 #
vertex $-1 $161 $322 #
straight-curve $-1 44.421521652882475 8.2749859073309544 62.999287314286626 0 0 1 I I #
straight-curve $-1 -18.399996000984103 8.2749859073309544 63.177056974706666 0.70710677298230451 0 -0.70710678939079041 I I #
edge $-1 $316 1.757491967716927 $165 8.2749859073309544 $252 $323 forward 7 unknown #
point $-1 44.421521652882475 8.2749859073309544 6.6890149331524489 #
point $-1 38.088044729759275 8.2749859073309544 6.6890149331524498 #
edge $-1 $324 1 $324 0 $168 $-1 forward 7 unknown #
vertex $-1 $169 $325 #
ellipse-curve $-1 38.850399992970608 5.0162389375239407 1.1178932555500469 0.70710678939079041 0 0.70710677298230451 0.70710677298230451 0 -0.70710678939079041 1 I I #
point $-1 41.961889964303175 5.0162389375239407 2.8151696087155607 #
plane-surface $-1 44.421521652882475 0 0 -1 0 0 0 0 1 forward_v I I I I #
coedge $-1 $177 $175 $179 $269 reversed $101 $-1 #
edge $-1 $190 -6.6890149331524489 $271 6.6890149331524489 $189 $326 forward 7 unknown #
vertex $-1 $269 $327 #
straight-curve $-1 -44.421521652882475 -20.508164035650044 0 0 0 -1 I I #
edge $-1 $267 -20.508164035650044 $271 20.508164035650044 $265 $328 forward 7 unknown #
straight-curve $-1 0 -20.508164035650044 -6.6890149331524489 -1 0 0 I I #
vertex $-1 $182 $329 #
straight-curve $-1 0 20.508164035650044 -6.6890149331524489 1 0 0 I I #
point $-1 44.421521652882475 20.508164035650044 -6.6890149331524489 #
point $-1 44.421521652882475 -20.508164035650044 -6.6890149331524489 #
straight-curve $-1 -44.421521652882475 0 6.6890149331524489 0 -1 0 I I #
point $-1 -44.421521652882475 20.508164035650044 6.6890149331524489 #
point $-1 -44.421521652882475 -20.508164035650044 6.6890149331524489 #
straight-curve $-1 44.421521652882475 -20.508164035650044 0 0 0 -1 I I #
straight-curve $-1 44.421521652882475 20.508164035650044 0 0 0 -1 I I #
plane-surface $-1 0 -20.508164035650044 0 0 1 0 0 0 1 forward_v I I I I #
coedge $-1 $330 $202 $214 $292 reversed $120 $-1 #
coedge $-1 $202 $330 $217 $294 reversed $120 $-1 #
edge $-1 $331 -44.421521652882475 $211 -41.421521652882475 $207 $332 forward 7 unknown #
straight-curve $-1 -41.421521652882475 -8.2601892868097551 6.6890149331524489 0 1 0 I I #
coedge $-1 $214 $205 $208 $288 forward $200 $-1 #
straight-curve $-1 -41.421521652882475 -8.2601892868097551 -6.6890149331524489 0 -1 0 I I #
coedge $-1 $208 $207 $330 $333 forward $209 $-1 #
edge $-1 $210 41.421521652882475 $334 44.421521652882475 $208 $335 forward 7 unknown #
point $-1 -41.421521652882475 -20.508164035650044 -6.6890149331524489 #
point $-1 -41.421521652882475 -20.508164035650044 6.6890149331524489 #
straight-curve $-1 -44.421521652882475 -12.532593111588977 0 0 0 -1 I I #
edge $-1 $334 -20.508164035650044 $215 -12.532593111588977 $281 $336 forward 7 unknown #
point $-1 -44.421521652882475 -12.532593111588977 -6.6890149331524489 #
edge $-1 $218 12.532593111588977 $331 20.508164035650044 $282 $337 forward 7 unknown #
point $-1 -44.421521652882475 -12.532593111588977 6.6890149331524489 #
loop $-1 $-1 $302 $222 #
plane-surface $-1 0 20.508164035650044 0 0 -1 0 0 0 -1 forward_v I I I I #
coedge $-1 $309 $302 $225 $299 reversed $296 $-1 #
edge $-1 $313 -44.421521652882475 $300 -41.421521652882475 $298 $338 forward 7 unknown #
vertex $-1 $226 $339 #
straight-curve $-1 -41.421521652882475 8.2601892868097533 -6.6890149331524489 0 -1 0 I I #
coedge $-1 $298 $340 $227 $303 forward $296 $-1 #
edge $-1 $305 -6.6890149331524489 $300 6.6890149331524489 $302 $341 forward 7 unknown #
coedge $-1 $235 $228 $340 $342 forward $223 $-1 #
vertex $-1 $342 $343 #
straight-curve $-1 -41.421521652882475 8.2601892868097533 6.6890149331524489 0 1 0 I I #
point $-1 -41.421521652882475 12.532593111588973 6.6890149331524489 #
point $-1 -41.421521652882475 12.532593111588973 -6.6890149331524489 #
coedge $-1 $340 $298 $237 $310 reversed $296 $-1 #
edge $-1 $311 -6.6890149331524489 $313 6.6890149331524489 $309 $344 forward 7 unknown #
vertex $-1 $342 $345 #
straight-curve $-1 -44.421521652882475 0 6.6890149331524489 0 -1 0 I I #
vertex $-1 $299 $346 #
straight-curve $-1 -44.421521652882475 0 -6.6890149331524489 0 1 0 I I #
edge $-1 $316 56.310272381134176 $319 62.643749451226356 $243 $347 forward 7 unknown #
vertex $-1 $257 $348 #
straight-curve $-1 22.210761555331153 1.757491967716927 6.6890149331524498 1 0 0 I I #
edge $-1 $319 -0.75062750104504339 $254 5.7668664385689841 $253 $349 forward 7 unknown #
vertex $-1 $318 $350 #
straight-curve $-1 -18.399996000984103 1.757491967716927 63.177056974706666 -0.70710677298230451 0 0.70710678939079041 I I #
point $-1 38.088044729759275 1.757491967716927 6.6890149331524498 #
point $-1 44.421521652882475 8.2749859073309544 0.35553786306027035 #
straight-curve $-1 44.421521652882475 0 6.6890149331524489 0 1 0 I I #
vertex $-1 $260 $351 #
point $-1 39.557506765952908 5.0162389375239407 0.41078646615925657 #
straight-curve $-1 -44.421521652882475 20.508164035650044 0 0 0 -1 I I #
point $-1 -44.421521652882475 -20.508164035650044 -6.6890149331524489 #
straight-curve $-1 -44.421521652882475 0 -6.6890149331524489 0 1 0 I I #
point $-1 -44.421521652882475 20.508164035650044 -6.6890149331524489 #
coedge $-1 $282 $281 $287 $333 reversed $120 $-1 #
vertex $-1 $294 $352 #
straight-curve $-1 0 -20.508164035650044 6.6890149331524489 1 0 0 I I #
edge $-1 $331 -6.6890149331524489 $334 6.6890149331524489 $330 $353 forward 7 unknown #
vertex $-1 $292 $354 #
straight-curve $-1 0 -20.508164035650044 -6.6890149331524489 -1 0 0 I I #
straight-curve $-1 -44.421521652882475 0 -6.6890149331524489 0 1 0 I I #
straight-curve $-1 -44.421521652882475 0 6.6890149331524489 0 -1 0 I I #
straight-curve $-1 0 20.508164035650044 -6.6890149331524489 1 0 0 I I #
point $-1 -41.421521652882475 20.50816403565004 -6.6890149331524489 #
coedge $-1 $302 $309 $304 $342 reversed $296 $-1 #
straight-curve $-1 -41.421521652882475 20.508164035650044 0 0 0 -1 I I #
edge $-1 $305 41.421521652882475 $311 44.421521652882475 $340 $355 forward 7 unknown #
point $-1 -41.421521652882475 20.50816403565004 6.6890149331524489 #
straight-curve $-1 -44.421521652882475 20.508164035650044 0 0 0 -1 I I #
point $-1 -44.421521652882475 20.508164035650044 6.6890149331524489 #
point $-1 -44.421521652882475 20.508164035650044 -6.6890149331524489 #
straight-curve $-1 44.421521652882475 1.757491967716927 62.999287314286626 0 0 -1 I I #
point $-1 44.421521652882475 1.757491967716927 6.6890149331524489 #
straight-curve $-1 44.421521652882475 2.5081194687619703 0.35553786306026325 0 1 0 I I #
point $-1 44.421521652882475 1.757491967716927 0.35553786306027035 #
point $-1 38.143293203579816 5.0162389375239407 0.41078648256774247 #
point $-1 -44.421521652882475 -20.508164035650044 6.6890149331524489 #
straight-curve $-1 -44.421521652882475 -20.508164035650044 0 0 0 -1 I I #
point $-1 -44.421521652882475 -20.508164035650044 -6.6890149331524489 #
straight-curve $-1 0 20.508164035650044 6.6890149331524489 -1 0 0 I I #
End-of-ACIS-data 