500 0 12 0           
7 Unknown 11 ACIS 5.0 NT 24 Fri Mar 26 19:49:07 1999 
-1 9.9999999999999995e-007 1e-010 
body $-1 $12 $-1 $13 #
body $-1 $14 $-1 $15 #
body $-1 $16 $-1 $17 #
body $-1 $18 $-1 $19 #
body $-1 $20 $-1 $21 #
body $-1 $22 $-1 $23 #
body $-1 $24 $-1 $25 #
body $-1 $26 $-1 $27 #
body $-1 $28 $-1 $29 #
body $-1 $30 $-1 $31 #
body $-1 $32 $-1 $33 #
body $-1 $34 $-1 $35 #
lump $-1 $-1 $36 $0 #
transform $-1 1 0 0 0 1 0 0 0 1 71.855220191045873 35.126099948734179 13.724124331909373 1 rotate no_reflect no_shear #
lump $-1 $-1 $37 $1 #
transform $-1 1 0 0 0 1 0 0 0 1 71.855220191045873 35.126099948734179 13.724124331909373 1 rotate no_reflect no_shear #
lump $-1 $-1 $38 $2 #
transform $-1 1 0 0 0 1 0 0 0 1 71.855220191045873 35.126099948734179 13.724124331909373 1 rotate no_reflect no_shear #
lump $-1 $-1 $39 $3 #
transform $-1 1 0 0 0 1 0 0 0 1 71.855220191045873 35.126099948734179 13.724124331909373 1 rotate no_reflect no_shear #
lump $-1 $-1 $40 $4 #
transform $-1 1 0 0 0 1 0 0 0 1 71.855220191045873 35.126099948734179 13.724124331909373 1 rotate no_reflect no_shear #
lump $-1 $-1 $41 $5 #
transform $-1 1 0 0 0 1 0 0 0 1 71.855220191045873 35.126099948734179 13.724124331909373 1 rotate no_reflect no_shear #
lump $-1 $-1 $42 $6 #
transform $-1 1 0 0 0 1 0 0 0 1 71.855220191045873 35.126099948734179 13.724124331909373 1 rotate no_reflect no_shear #
lump $-1 $-1 $43 $7 #
transform $-1 1 0 0 0 1 0 0 0 1 71.855220191045873 35.126099948734179 13.724124331909373 1 rotate no_reflect no_shear #
lump $-1 $-1 $44 $8 #
transform $-1 1 0 0 0 1 0 0 0 1 71.855220191045873 35.126099948734179 13.724124331909373 1 rotate no_reflect no_shear #
lump $-1 $-1 $45 $9 #
transform $-1 1 0 0 0 1 0 0 0 1 71.855220191045873 35.126099948734179 13.724124331909373 1 rotate no_reflect no_shear #
lump $-1 $-1 $46 $10 #
transform $-1 1 0 0 0 1 0 0 0 1 71.855220191045873 35.126099948734179 13.724124331909373 1 rotate no_reflect no_shear #
lump $-1 $-1 $47 $11 #
transform $-1 1 0 0 0 1 0 0 0 1 71.855220191045873 35.126099948734179 13.724124331909373 1 rotate no_reflect no_shear #
shell $-1 $-1 $-1 $48 $-1 $12 #
shell $-1 $-1 $-1 $49 $-1 $14 #
shell $-1 $-1 $-1 $50 $-1 $16 #
shell $-1 $-1 $-1 $51 $-1 $18 #
shell $-1 $-1 $-1 $52 $-1 $20 #
shell $-1 $-1 $-1 $53 $-1 $22 #
shell $-1 $-1 $-1 $54 $-1 $24 #
shell $-1 $-1 $-1 $55 $-1 $26 #
shell $-1 $-1 $-1 $56 $-1 $28 #
shell $-1 $-1 $-1 $57 $-1 $30 #
shell $-1 $-1 $-1 $58 $-1 $32 #
shell $-1 $-1 $-1 $59 $-1 $34 #
face $-1 $60 $61 $36 $-1 $62 forward single #
face $-1 $63 $64 $37 $-1 $65 forward single #
face $-1 $66 $67 $38 $-1 $68 reversed single #
face $-1 $69 $70 $39 $-1 $71 forward single #
face $-1 $72 $73 $40 $-1 $74 forward single #
face $-1 $75 $76 $41 $-1 $77 reversed single #
face $-1 $78 $79 $42 $-1 $80 forward single #
face $-1 $81 $82 $43 $-1 $83 forward single #
face $-1 $84 $85 $44 $-1 $86 reversed single #
face $-1 $87 $88 $45 $-1 $89 forward single #
face $-1 $90 $91 $46 $-1 $92 forward single #
face $-1 $93 $94 $47 $-1 $95 forward single #
face $-1 $96 $97 $36 $-1 $98 reversed single #
loop $-1 $-1 $99 $48 #
plane-surface $-1 0 0 13.724124331909373 0 0 1 1 0 0 forward_v I I I I #
face $-1 $100 $101 $37 $-1 $102 reversed single #
loop $-1 $-1 $103 $49 #
plane-surface $-1 -65.761226484207228 0 -6.4704050517004532 0 0 1 1 0 0 forward_v I I I I #
face $-1 $104 $105 $38 $-1 $106 reversed single #
loop $-1 $-1 $107 $50 #
plane-surface $-1 -59.667232777368589 65.507301955662655 157.35153684987873 1 0 0 0 -0.6018150307709319 -0.79863550430605224 forward_v I I I I #
face $-1 $108 $109 $39 $-1 $110 forward single #
loop $-1 $111 $112 $51 #
cone-surface $-1 -52.143521615883969 25.396866163503734 5.9210259293157419 0 -0.6018150307709319 -0.79863550430605224 2 0 0 1 I I 0 1 2 forward I I I I #
face $-1 $113 $114 $40 $-1 $115 forward single #
loop $-1 $116 $117 $52 #
cone-surface $-1 -40.857954873657036 25.396866163503734 5.9210259293157419 0 -0.6018150307709319 -0.79863550430605224 2 0 0 1 I I 0 1 2 forward I I I I #
face $-1 $118 $119 $41 $-1 $120 reversed single #
loop $-1 $-1 $121 $53 #
plane-surface $-1 45.522231125849679 65.507301955662655 157.35153684987873 1 0 0 0 -0.6018150307709319 -0.79863550430605224 forward_v I I I I #
face $-1 $122 $123 $42 $-1 $124 forward single #
loop $-1 $125 $126 $54 #
cone-surface $-1 53.045942287334313 25.396866163503734 5.9210259293157419 0 -0.6018150307709319 -0.79863550430605224 2 0 0 1 I I 0 1 2 forward I I I I #
face $-1 $127 $128 $43 $-1 $129 forward single #
loop $-1 $130 $131 $55 #
cone-surface $-1 64.331509029561232 25.396866163503734 5.9210259293157419 0 -0.6018150307709319 -0.79863550430605224 2 0 0 1 I I 0 1 2 forward I I I I #
face $-1 $132 $133 $44 $-1 $134 reversed single #
loop $-1 $-1 $135 $56 #
plane-surface $-1 68.018792970626237 -129.4086330681576 113.99271334522064 -1 0 0 0 -0.6560590369687036 0.75470957328743171 forward_v I I I I #
face $-1 $136 $137 $45 $-1 $138 forward single #
loop $-1 $139 $140 $57 #
cone-surface $-1 43.644973475237578 -29.415889227543062 8.4795568752736106 0 0.6560590369687036 -0.75470957328743171 2.5 0 0 1 I I 0 1 2.5 forward I I I I #
face $-1 $141 $142 $46 $-1 $143 forward single #
loop $-1 $144 $145 $58 #
cone-surface $-1 52.785155786008318 -29.415889227543062 8.4795568752736106 0 0.6560590369687036 -0.75470957328743171 2.5 0 0 1 I I 0 1 2.5 forward I I I I #
face $-1 $146 $147 $47 $-1 $148 forward single #
loop $-1 $149 $150 $59 #
cone-surface $-1 61.925338096779058 -29.415889227543062 8.4795568752736106 0 0.6560590369687036 -0.75470957328743171 2.5 0 0 1 I I 0 1 2.5 forward I I I I #
face $-1 $151 $152 $36 $-1 $153 reversed single #
loop $-1 $-1 $154 $60 #
plane-surface $-1 0 0 -13.724124331909373 0 0 1 1 0 0 forward_v I I I I #
coedge $-1 $155 $156 $157 $158 forward $61 $-1 #
face $-1 $159 $160 $37 $-1 $161 reversed single #
loop $-1 $-1 $162 $63 #
plane-surface $-1 -59.667232777368582 0 -10.097264691804913 -1 0 0 0 0 1 forward_v I I I I #
coedge $-1 $163 $164 $165 $166 forward $64 $-1 #
face $-1 $167 $168 $38 $-1 $169 reversed single #
loop $-1 $-1 $170 $66 #
plane-surface $-1 -46.500738244770503 -20.979801144990063 42.579276821282036 0 0.6018150307709319 0.79863550430605224 1 0 0 forward_v I I I I #
coedge $-1 $171 $172 $173 $174 reversed $67 $-1 #
face $-1 $-1 $175 $39 $-1 $176 forward single #
loop $-1 $177 $178 $69 #
cone-surface $-1 -52.143521615883969 23.972727930342991 4.0311306992400162 0 -0.6018150307709319 -0.79863550430605224 1 0 0 1 I I -0.70710678118654746 0.70710678118654746 1 forward I I I I #
loop $-1 $-1 $179 $51 #
coedge $-1 $112 $112 $180 $181 reversed $70 $-1 #
face $-1 $-1 $182 $40 $-1 $183 forward single #
loop $-1 $184 $185 $72 #
cone-surface $-1 -40.857954873657036 23.972727930342991 4.0311306992400162 0 -0.6018150307709319 -0.79863550430605224 1 0 0 1 I I -0.70710678118654746 0.70710678118654746 1 forward I I I I #
loop $-1 $-1 $186 $52 #
coedge $-1 $117 $117 $187 $188 reversed $73 $-1 #
face $-1 $189 $190 $41 $-1 $191 forward single #
loop $-1 $-1 $192 $75 #
plane-surface $-1 58.688725658447765 -20.979801144990063 42.579276821282036 0 0.6018150307709319 0.79863550430605224 1 0 0 forward_v I I I I #
coedge $-1 $193 $194 $195 $196 reversed $76 $-1 #
face $-1 $-1 $197 $42 $-1 $198 forward single #
loop $-1 $199 $200 $78 #
cone-surface $-1 53.045942287334313 23.972727930342991 4.0311306992400162 0 -0.6018150307709319 -0.79863550430605224 1 0 0 1 I I -0.70710678118654746 0.70710678118654746 1 forward I I I I #
loop $-1 $-1 $201 $54 #
coedge $-1 $126 $126 $202 $203 reversed $79 $-1 #
face $-1 $-1 $204 $43 $-1 $205 forward single #
loop $-1 $206 $207 $81 #
cone-surface $-1 64.331509029561232 23.972727930342991 4.0311306992400162 0 -0.6018150307709319 -0.79863550430605224 1 0 0 1 I I -0.70710678118654746 0.70710678118654746 1 forward I I I I #
loop $-1 $-1 $208 $55 #
coedge $-1 $131 $131 $209 $210 reversed $82 $-1 #
face $-1 $211 $212 $44 $-1 $213 reversed single #
loop $-1 $-1 $214 $84 #
plane-surface $-1 52.785155786008318 -35.126099948734193 5.5330682075032769 0 -0.6560590369687036 0.75470957328743171 1 0 0 forward_v I I I I #
coedge $-1 $215 $216 $217 $218 reversed $85 $-1 #
face $-1 $-1 $219 $45 $-1 $220 forward single #
loop $-1 $221 $222 $87 #
cone-surface $-1 43.644973475237578 -27.596970703197893 6.3871305142316075 0 0.6560590369687036 -0.75470957328743171 1.25 0 0 1 I I -0.70710678118654724 0.70710678118654768 1.25 forward I I I I #
loop $-1 $-1 $223 $57 #
coedge $-1 $140 $140 $224 $225 reversed $88 $-1 #
face $-1 $-1 $226 $46 $-1 $227 forward single #
loop $-1 $228 $229 $90 #
cone-surface $-1 52.785155786008318 -27.596970703197893 6.3871305142316075 0 0.6560590369687036 -0.75470957328743171 1.25 0 0 1 I I -0.70710678118654724 0.70710678118654768 1.25 forward I I I I #
loop $-1 $-1 $230 $58 #
coedge $-1 $145 $145 $231 $232 reversed $91 $-1 #
face $-1 $-1 $233 $47 $-1 $234 forward single #
loop $-1 $235 $236 $93 #
cone-surface $-1 61.925338096779058 -27.596970703197893 6.3871305142316075 0 0.6560590369687036 -0.75470957328743171 1.25 0 0 1 I I -0.70710678118654724 0.70710678118654768 1.25 forward I I I I #
loop $-1 $-1 $237 $59 #
coedge $-1 $150 $150 $238 $239 reversed $94 $-1 #
face $-1 $240 $241 $36 $-1 $242 reversed single #
loop $-1 $-1 $243 $96 #
plane-surface $-1 0 -35.126099948734179 0 0 1 0 0 0 1 forward_v I I I I #
coedge $-1 $244 $245 $246 $247 forward $97 $-1 #
coedge $-1 $248 $99 $249 $250 forward $61 $-1 #
coedge $-1 $99 $248 $251 $252 forward $61 $-1 #
coedge $-1 $253 $254 $99 $158 reversed $255 $-1 #
edge $-1 $256 -35.126099948734179 $257 35.126099948734179 $157 $258 forward 7 unknown #
face $-1 $259 $260 $37 $-1 $261 reversed single #
loop $-1 $-1 $262 $100 #
plane-surface $-1 0 0 -13.724124331909373 0 0 1 1 0 0 forward_v I I I I #
coedge $-1 $263 $165 $264 $265 reversed $101 $-1 #
coedge $-1 $266 $103 $267 $268 reversed $64 $-1 #
coedge $-1 $103 $266 $269 $270 reversed $64 $-1 #
coedge $-1 $162 $271 $103 $166 reversed $101 $-1 #
edge $-1 $272 -35.126099948734179 $273 35.126099948734179 $165 $274 forward 7 unknown #
face $-1 $275 $276 $38 $-1 $277 reversed single #
loop $-1 $-1 $278 $104 #
plane-surface $-1 -33.334243712172416 65.507301955662655 157.35153684987873 -1 0 0 0 0.6018150307709319 0.79863550430605224 forward_v I I I I #
coedge $-1 $279 $280 $281 $282 reversed $105 $-1 #
coedge $-1 $172 $107 $283 $284 reversed $67 $-1 #
coedge $-1 $107 $171 $279 $285 reversed $67 $-1 #
coedge $-1 $281 $286 $107 $174 forward $287 $-1 #
edge $-1 $288 -2.3724489709028518 $289 15.441372194778403 $173 $290 forward 7 unknown #
loop $-1 $-1 $180 $108 #
plane-surface $-1 -46.500738244770503 -20.979801144990063 42.579276821282036 0 0.6018150307709319 0.79863550430605224 1 0 0 forward_v I I I I #
loop $-1 $-1 $291 $69 #
coedge $-1 $178 $178 $179 $292 reversed $109 $-1 #
coedge $-1 $179 $179 $178 $292 forward $111 $-1 #
coedge $-1 $180 $180 $112 $181 forward $175 $-1 #
edge $-1 $293 1.8489572868380161e-016 $293 6.2831853071796004 $180 $294 forward 7 unknown #
loop $-1 $-1 $187 $113 #
plane-surface $-1 -46.500738244770503 -20.979801144990063 42.579276821282036 0 0.6018150307709319 0.79863550430605224 1 0 0 forward_v I I I I #
loop $-1 $-1 $295 $72 #
coedge $-1 $185 $185 $186 $296 reversed $114 $-1 #
coedge $-1 $186 $186 $185 $296 forward $116 $-1 #
coedge $-1 $187 $187 $117 $188 forward $182 $-1 #
edge $-1 $297 1.8489572868380161e-016 $297 6.2831853071796004 $187 $298 forward 7 unknown #
face $-1 $299 $300 $41 $-1 $301 reversed single #
loop $-1 $-1 $195 $118 #
plane-surface $-1 0 0 13.724124331909373 0 0 1 1 0 0 forward_v I I I I #
coedge $-1 $302 $303 $304 $305 reversed $119 $-1 #
coedge $-1 $194 $121 $306 $307 reversed $76 $-1 #
coedge $-1 $121 $193 $302 $308 reversed $76 $-1 #
coedge $-1 $304 $309 $121 $196 forward $190 $-1 #
edge $-1 $310 -2.3724489709028518 $311 15.441372194778403 $195 $312 forward 7 unknown #
loop $-1 $-1 $202 $122 #
plane-surface $-1 58.688725658447765 -20.979801144990063 42.579276821282036 0 0.6018150307709319 0.79863550430605224 1 0 0 forward_v I I I I #
loop $-1 $-1 $313 $78 #
coedge $-1 $200 $200 $201 $314 reversed $123 $-1 #
coedge $-1 $201 $201 $200 $314 forward $125 $-1 #
coedge $-1 $202 $202 $126 $203 forward $197 $-1 #
edge $-1 $315 1.8489572868380161e-016 $315 6.2831853071796004 $202 $316 forward 7 unknown #
loop $-1 $-1 $209 $127 #
plane-surface $-1 58.688725658447765 -20.979801144990063 42.579276821282036 0 0.6018150307709319 0.79863550430605224 1 0 0 forward_v I I I I #
loop $-1 $-1 $317 $81 #
coedge $-1 $207 $207 $208 $318 reversed $128 $-1 #
coedge $-1 $208 $208 $207 $318 forward $130 $-1 #
coedge $-1 $209 $209 $131 $210 forward $204 $-1 #
edge $-1 $319 1.8489572868380161e-016 $319 6.2831853071796004 $209 $320 forward 7 unknown #
face $-1 $321 $322 $44 $-1 $323 forward single #
loop $-1 $-1 $324 $132 #
plane-surface $-1 37.551518601390406 -129.4086330681576 113.99271334522064 1 0 0 0 0.6560590369687036 -0.75470957328743171 forward_v I I I I #
coedge $-1 $325 $326 $327 $328 reversed $133 $-1 #
coedge $-1 $216 $135 $329 $330 reversed $85 $-1 #
coedge $-1 $135 $215 $325 $331 reversed $85 $-1 #
coedge $-1 $327 $332 $135 $218 forward $322 $-1 #
edge $-1 $333 29.57821658534462 $334 39.000948571458267 $217 $335 forward 7 unknown #
loop $-1 $-1 $224 $136 #
plane-surface $-1 52.785155786008318 -35.126099948734193 5.5330682075032769 0 -0.6560590369687036 0.75470957328743171 1 0 0 forward_v I I I I #
loop $-1 $-1 $336 $87 #
coedge $-1 $222 $222 $223 $337 reversed $137 $-1 #
coedge $-1 $223 $223 $222 $337 forward $139 $-1 #
coedge $-1 $224 $224 $140 $225 forward $219 $-1 #
edge $-1 $338 2.8038168784044079e-016 $338 6.2831853071796004 $224 $339 forward 7 unknown #
loop $-1 $-1 $231 $141 #
plane-surface $-1 52.785155786008318 -35.126099948734193 5.5330682075032769 0 -0.6560590369687036 0.75470957328743171 1 0 0 forward_v I I I I #
loop $-1 $-1 $340 $90 #
coedge $-1 $229 $229 $230 $341 reversed $142 $-1 #
coedge $-1 $230 $230 $229 $341 forward $144 $-1 #
coedge $-1 $231 $231 $145 $232 forward $226 $-1 #
edge $-1 $342 2.8038168784044079e-016 $342 6.2831853071796004 $231 $343 forward 7 unknown #
loop $-1 $-1 $238 $146 #
plane-surface $-1 52.785155786008318 -35.126099948734193 5.5330682075032769 0 -0.6560590369687036 0.75470957328743171 1 0 0 forward_v I I I I #
loop $-1 $-1 $344 $93 #
coedge $-1 $236 $236 $237 $345 reversed $147 $-1 #
coedge $-1 $237 $237 $236 $345 forward $149 $-1 #
coedge $-1 $238 $238 $150 $239 forward $233 $-1 #
edge $-1 $346 2.8038168784044079e-016 $346 6.2831853071796004 $238 $347 forward 7 unknown #
face $-1 $348 $349 $36 $-1 $350 reversed single #
loop $-1 $-1 $351 $151 #
plane-surface $-1 -71.855220191045873 0 0 1 0 0 0 0 -1 forward_v I I I I #
coedge $-1 $352 $251 $353 $354 forward $152 $-1 #
coedge $-1 $355 $154 $352 $356 forward $97 $-1 #
coedge $-1 $154 $355 $357 $358 forward $97 $-1 #
coedge $-1 $254 $253 $154 $247 reversed $255 $-1 #
edge $-1 $359 -35.126099948734179 $360 35.126099948734179 $246 $361 forward 7 unknown #
coedge $-1 $156 $155 $362 $363 forward $61 $-1 #
coedge $-1 $364 $365 $155 $250 reversed $349 $-1 #
edge $-1 $257 -71.855220191045873 $366 71.855220191045873 $249 $367 forward 7 unknown #
coedge $-1 $243 $368 $156 $252 reversed $152 $-1 #
edge $-1 $369 -71.855220191045873 $256 71.855220191045873 $251 $370 forward 7 unknown #
coedge $-1 $246 $157 $368 $371 forward $255 $-1 #
coedge $-1 $157 $246 $364 $372 reversed $255 $-1 #
loop $-1 $-1 $253 $348 #
vertex $-1 $158 $373 #
vertex $-1 $158 $374 #
straight-curve $-1 71.855220191045873 0 13.724124331909373 0 1 0 I I #
face $-1 $375 $376 $37 $-1 $377 reversed single #
loop $-1 $-1 $264 $159 #
plane-surface $-1 0 -35.126099948734179 0 0 1 0 0 0 1 forward_v I I I I #
coedge $-1 $378 $379 $263 $380 forward $160 $-1 #
coedge $-1 $271 $162 $262 $380 reversed $101 $-1 #
coedge $-1 $269 $381 $162 $265 forward $260 $-1 #
edge $-1 $382 -8.6754919860069162 $272 -1.4217727057979967 $264 $383 forward 7 unknown #
coedge $-1 $164 $163 $384 $385 reversed $64 $-1 #
coedge $-1 $386 $387 $163 $268 forward $388 $-1 #
edge $-1 $389 -38.97460694894226 $273 -26.786619535264968 $267 $390 forward 7 unknown #
coedge $-1 $391 $264 $164 $270 forward $260 $-1 #
edge $-1 $272 26.786619535264968 $392 38.97460694894226 $269 $393 forward 7 unknown #
coedge $-1 $165 $263 $386 $394 reversed $101 $-1 #
vertex $-1 $270 $395 #
vertex $-1 $268 $396 #
straight-curve $-1 -59.667232777368582 0 -6.4704050517004532 0 1 0 I I #
face $-1 $-1 $287 $38 $-1 $397 forward single #
loop $-1 $-1 $398 $167 #
plane-surface $-1 0 35.126099948734179 0 0 -1 0 0 0 -1 forward_v I I I I #
coedge $-1 $399 $400 $401 $402 reversed $168 $-1 #
coedge $-1 $403 $170 $172 $285 forward $105 $-1 #
coedge $-1 $170 $403 $399 $404 forward $105 $-1 #
coedge $-1 $401 $173 $170 $282 forward $287 $-1 #
edge $-1 $289 -36.416863654983338 $405 -10.083874589787165 $281 $406 forward 7 unknown #
coedge $-1 $407 $408 $171 $284 forward $276 $-1 #
edge $-1 $409 -78.375321446677916 $288 -64.951644093029984 $283 $410 forward 7 unknown #
edge $-1 $289 47.946879047552017 $409 70.252199897468373 $172 $411 forward 7 unknown #
coedge $-1 $173 $401 $407 $412 forward $287 $-1 #
loop $-1 $-1 $401 $275 #
vertex $-1 $284 $413 #
vertex $-1 $174 $414 #
straight-curve $-1 -59.667232777368589 32.753650977831327 13.72412433190938 0 -1 0 I I #
coedge $-1 $291 $291 $-1 $415 reversed $177 $-1 #
edge $-1 $416 0 $416 6.2831853071796004 $178 $417 forward 7 unknown #
vertex $-1 $181 $418 #
ellipse-curve $-1 -52.143521615883969 26.219189365893548 7.0122856550854209 0 0.6018150307709319 0.79863550430605224 2 0 0 1 I I #
coedge $-1 $295 $295 $-1 $419 reversed $184 $-1 #
edge $-1 $420 0 $420 6.2831853071796004 $185 $421 forward 7 unknown #
vertex $-1 $188 $422 #
ellipse-curve $-1 -40.857954873657036 26.219189365893548 7.0122856550854209 0 0.6018150307709319 0.79863550430605224 2 0 0 1 I I #
face $-1 $-1 $423 $41 $-1 $424 reversed single #
loop $-1 $-1 $425 $189 #
plane-surface $-1 71.855220191045873 0 0 -1 0 0 0 0 1 forward_v I I I I #
coedge $-1 $426 $192 $194 $308 forward $119 $-1 #
coedge $-1 $192 $426 $425 $427 reversed $119 $-1 #
coedge $-1 $428 $195 $192 $305 forward $190 $-1 #
edge $-1 $311 16.177868296625796 $429 42.510857361821962 $304 $430 forward 7 unknown #
coedge $-1 $431 $432 $193 $307 forward $423 $-1 #
edge $-1 $433 -78.375321446677916 $310 -64.951644093029984 $306 $434 forward 7 unknown #
edge $-1 $311 47.946879047552017 $433 70.252199897468373 $194 $435 forward 7 unknown #
coedge $-1 $195 $428 $431 $436 forward $190 $-1 #
vertex $-1 $307 $437 #
vertex $-1 $196 $438 #
straight-curve $-1 45.522231125849679 32.753650977831327 13.72412433190938 0 -1 0 I I #
coedge $-1 $313 $313 $-1 $439 reversed $199 $-1 #
edge $-1 $440 0 $440 6.2831853071796004 $200 $441 forward 7 unknown #
vertex $-1 $203 $442 #
ellipse-curve $-1 53.045942287334313 26.219189365893548 7.0122856550854209 0 0.6018150307709319 0.79863550430605224 2 0 0 1 I I #
coedge $-1 $317 $317 $-1 $443 reversed $206 $-1 #
edge $-1 $444 0 $444 6.2831853071796004 $207 $445 forward 7 unknown #
vertex $-1 $210 $446 #
ellipse-curve $-1 64.331509029561232 26.219189365893548 7.0122856550854209 0 0.6018150307709319 0.79863550430605224 2 0 0 1 I I #
face $-1 $-1 $447 $44 $-1 $448 reversed single #
loop $-1 $-1 $217 $211 #
plane-surface $-1 0 0 13.724124331909373 0 0 1 1 0 0 forward_v I I I I #
coedge $-1 $449 $450 $451 $452 reversed $212 $-1 #
coedge $-1 $453 $214 $216 $331 forward $133 $-1 #
coedge $-1 $214 $453 $449 $454 forward $133 $-1 #
coedge $-1 $451 $217 $214 $328 forward $322 $-1 #
edge $-1 $334 -41.626215077622078 $455 -11.158940708386247 $327 $456 forward 7 unknown #
coedge $-1 $457 $458 $215 $330 forward $447 $-1 #
edge $-1 $459 -51.463288465107027 $333 -43.272232340700945 $329 $460 forward 7 unknown #
edge $-1 $334 -12.485242429176139 $459 -1.888283279974768e-014 $216 $461 forward 7 unknown #
coedge $-1 $217 $451 $457 $462 forward $322 $-1 #
vertex $-1 $330 $463 #
vertex $-1 $218 $464 #
straight-curve $-1 68.018792970626237 -64.704316534078799 13.724124331909373 0 1 0 I I #
coedge $-1 $336 $336 $-1 $465 reversed $221 $-1 #
edge $-1 $466 0 $466 6.2831853071796004 $222 $467 forward 7 unknown #
vertex $-1 $225 $468 #
ellipse-curve $-1 43.644973475237578 -30.414733955677356 9.6285962697063319 0 -0.6560590369687036 0.75470957328743171 2.5 0 0 1 I I #
coedge $-1 $340 $340 $-1 $469 reversed $228 $-1 #
edge $-1 $470 0 $470 6.2831853071796004 $229 $471 forward 7 unknown #
vertex $-1 $232 $472 #
ellipse-curve $-1 52.785155786008318 -30.414733955677356 9.6285962697063319 0 -0.6560590369687036 0.75470957328743171 2.5 0 0 1 I I #
coedge $-1 $344 $344 $-1 $473 reversed $235 $-1 #
edge $-1 $474 0 $474 6.2831853071796004 $236 $475 forward 7 unknown #
vertex $-1 $239 $476 #
ellipse-curve $-1 61.925338096779058 -30.414733955677356 9.6285962697063319 0 -0.6560590369687036 0.75470957328743171 2.5 0 0 1 I I #
face $-1 $-1 $255 $36 $-1 $477 reversed single #
loop $-1 $-1 $364 $240 #
plane-surface $-1 0 35.126099948734179 0 0 -1 0 0 0 -1 forward_v I I I I #
coedge $-1 $478 $362 $365 $479 forward $241 $-1 #
coedge $-1 $368 $243 $244 $356 reversed $152 $-1 #
coedge $-1 $362 $478 $243 $354 reversed $241 $-1 #
edge $-1 $369 -13.724124331909373 $480 13.724124331909373 $353 $481 forward 7 unknown #
coedge $-1 $245 $244 $478 $482 forward $97 $-1 #
edge $-1 $360 -71.855220191045873 $480 71.855220191045873 $352 $483 forward 7 unknown #
coedge $-1 $365 $364 $245 $358 reversed $349 $-1 #
edge $-1 $484 -71.855220191045873 $359 71.855220191045873 $357 $485 forward 7 unknown #
vertex $-1 $247 $486 #
vertex $-1 $371 $487 #
straight-curve $-1 71.855220191045873 0 -13.724124331909373 0 -1 0 I I #
coedge $-1 $351 $353 $248 $363 reversed $241 $-1 #
edge $-1 $366 -35.126099948734179 $369 35.126099948734179 $362 $488 forward 7 unknown #
coedge $-1 $357 $249 $254 $372 forward $349 $-1 #
coedge $-1 $249 $357 $351 $479 reversed $349 $-1 #
vertex $-1 $250 $489 #
straight-curve $-1 0 35.126099948734179 13.724124331909373 -1 0 0 I I #
coedge $-1 $251 $352 $253 $371 reversed $152 $-1 #
vertex $-1 $363 $490 #
straight-curve $-1 0 -35.126099948734179 13.724124331909373 1 0 0 I I #
edge $-1 $256 -13.724124331909373 $360 13.724124331909373 $253 $491 forward 7 unknown #
edge $-1 $257 -13.724124331909373 $359 13.724124331909373 $254 $492 forward 7 unknown #
point $-1 71.855220191045873 -35.126099948734179 13.724124331909373 #
point $-1 71.855220191045873 35.126099948734179 13.724124331909373 #
face $-1 $-1 $388 $37 $-1 $493 reversed single #
loop $-1 $-1 $384 $259 #
plane-surface $-1 -71.855220191045873 0 0 1 0 0 0 0 -1 forward_v I I I I #
coedge $-1 $494 $262 $381 $495 forward $160 $-1 #
coedge $-1 $262 $494 $496 $497 forward $160 $-1 #
edge $-1 $498 -35.126099948734179 $382 35.126099948734179 $262 $499 forward 7 unknown #
coedge $-1 $264 $391 $378 $495 reversed $260 $-1 #
vertex $-1 $495 $500 #
straight-curve $-1 -59.667232777368582 -35.126099948734179 -5.0486323459024565 0 0 1 I I #
coedge $-1 $501 $502 $266 $385 forward $376 $-1 #
edge $-1 $392 -35.126099948734179 $389 35.126099948734179 $384 $503 forward 7 unknown #
coedge $-1 $496 $267 $271 $394 forward $388 $-1 #
coedge $-1 $267 $496 $501 $504 reversed $388 $-1 #
loop $-1 $-1 $386 $375 #
vertex $-1 $504 $505 #
straight-curve $-1 -32.880613242103614 35.126099948734179 -6.4704050517004532 1 0 0 I I #
coedge $-1 $381 $269 $502 $506 forward $260 $-1 #
vertex $-1 $506 $507 #
straight-curve $-1 -32.880613242103614 -35.126099948734179 -6.4704050517004532 -1 0 0 I I #
edge $-1 $273 1.4217727057979967 $498 8.6754919860069162 $386 $508 forward 7 unknown #
point $-1 -59.667232777368582 -35.126099948734179 -6.4704050517004532 #
point $-1 -59.667232777368582 35.126099948734179 -6.4704050517004532 #
plane-surface $-1 0 0 13.724124331909373 0 0 1 1 0 0 forward_v I I I I #
coedge $-1 $408 $407 $400 $509 forward $276 $-1 #
coedge $-1 $400 $278 $280 $404 reversed $168 $-1 #
coedge $-1 $278 $399 $398 $509 reversed $168 $-1 #
coedge $-1 $286 $281 $278 $402 forward $287 $-1 #
edge $-1 $405 -15.441372194778403 $510 2.3724489709028518 $401 $511 forward 7 unknown #
coedge $-1 $280 $279 $408 $512 reversed $105 $-1 #
edge $-1 $513 -70.252199897468373 $405 -47.946879047552017 $399 $514 forward 7 unknown #
vertex $-1 $282 $515 #
straight-curve $-1 -23.250369122385251 17.312278783052921 13.724124331909373 1 0 0 I I #
coedge $-1 $398 $283 $286 $412 reversed $276 $-1 #
coedge $-1 $283 $398 $403 $512 forward $276 $-1 #
vertex $-1 $284 $516 #
straight-curve $-1 -59.667232777368589 35.126099948734179 78.675768424939363 0 0 1 I I #
straight-curve $-1 -59.667232777368589 -20.979801144990063 42.579276821282036 0 0.79863550430605224 -0.6018150307709319 I I #
edge $-1 $510 33.334243712172416 $288 59.667232777368589 $407 $517 forward 7 unknown #
point $-1 -59.667232777368589 35.126099948734179 13.724124331909373 #
point $-1 -59.667232777368589 17.312278783052925 13.724124331909373 #
edge $-1 $518 1 $518 0 $291 $-1 forward 7 unknown #
vertex $-1 $292 $519 #
ellipse-curve $-1 -52.143521615883969 24.574542961113924 4.8297662035460682 0 0.6018150307709319 0.79863550430605224 2 0 0 1 I I #
point $-1 -50.143521615883969 26.219189365893545 7.0122856550854156 #
edge $-1 $520 1 $520 0 $295 $-1 forward 7 unknown #
vertex $-1 $296 $521 #
ellipse-curve $-1 -40.857954873657036 24.574542961113924 4.8297662035460682 0 0.6018150307709319 0.79863550430605224 2 0 0 1 I I #
point $-1 -38.857954873657036 26.219189365893545 7.0122856550854156 #
loop $-1 $-1 $306 $299 #
plane-surface $-1 0 35.126099948734179 0 0 -1 0 0 0 -1 forward_v I I I I #
coedge $-1 $522 $523 $303 $427 forward $300 $-1 #
coedge $-1 $303 $302 $432 $524 reversed $119 $-1 #
edge $-1 $429 26.75684761851516 $525 49.062168468431523 $425 $526 forward 7 unknown #
coedge $-1 $309 $304 $523 $527 forward $190 $-1 #
vertex $-1 $527 $528 #
straight-curve $-1 29.344362829223883 17.312278783052921 13.724124331909373 1 0 0 I I #
coedge $-1 $529 $306 $309 $436 reversed $423 $-1 #
coedge $-1 $306 $529 $426 $524 forward $423 $-1 #
vertex $-1 $307 $530 #
straight-curve $-1 45.522231125849679 35.126099948734179 78.675768424939363 0 0 1 I I #
straight-curve $-1 45.522231125849679 -20.979801144990063 42.579276821282036 0 0.79863550430605224 -0.6018150307709319 I I #
edge $-1 $531 -71.855220191045873 $310 -45.522231125849679 $431 $532 forward 7 unknown #
point $-1 45.522231125849679 35.126099948734179 13.724124331909373 #
point $-1 45.522231125849679 17.312278783052925 13.724124331909373 #
edge $-1 $533 1 $533 0 $313 $-1 forward 7 unknown #
vertex $-1 $314 $534 #
ellipse-curve $-1 53.045942287334313 24.574542961113924 4.8297662035460682 0 0.6018150307709319 0.79863550430605224 2 0 0 1 I I #
point $-1 55.045942287334313 26.219189365893545 7.0122856550854156 #
edge $-1 $535 1 $535 0 $317 $-1 forward 7 unknown #
vertex $-1 $318 $536 #
ellipse-curve $-1 64.331509029561232 24.574542961113924 4.8297662035460682 0 0.6018150307709319 0.79863550430605224 2 0 0 1 I I #
point $-1 66.331509029561232 26.219189365893545 7.0122856550854156 #
loop $-1 $-1 $329 $321 #
plane-surface $-1 0 -35.126099948734179 0 0 1 0 0 0 1 forward_v I I I I #
coedge $-1 $450 $324 $326 $454 reversed $212 $-1 #
coedge $-1 $324 $449 $537 $538 reversed $212 $-1 #
coedge $-1 $332 $327 $324 $452 forward $322 $-1 #
edge $-1 $455 -39.000948571458267 $539 -29.57821658534462 $451 $540 forward 7 unknown #
coedge $-1 $326 $325 $458 $541 reversed $133 $-1 #
edge $-1 $542 1.888283279974768e-014 $455 12.485242429176139 $449 $543 forward 7 unknown #
vertex $-1 $328 $544 #
straight-curve $-1 26.392577893004159 -25.703367962620533 13.724124331909373 -1 0 0 I I #
coedge $-1 $537 $329 $332 $462 reversed $447 $-1 #
coedge $-1 $329 $537 $453 $541 forward $447 $-1 #
vertex $-1 $330 $545 #
straight-curve $-1 68.018792970626237 -35.126099948734179 56.996356672610318 0 0 1 I I #
straight-curve $-1 68.018792970626237 -35.126099948734193 5.5330682075032769 0 -0.75470957328743171 -0.6560590369687036 I I #
edge $-1 $539 37.551518601390406 $333 68.018792970626237 $457 $546 forward 7 unknown #
point $-1 68.018792970626237 -35.126099948734179 13.724124331909373 #
point $-1 68.018792970626237 -25.703367962620533 13.724124331909373 #
edge $-1 $547 1 $547 0 $336 $-1 forward 7 unknown #
vertex $-1 $337 $548 #
ellipse-curve $-1 43.644973475237578 -28.417044499408775 7.3305174808408982 0 -0.6560590369687036 0.75470957328743171 2.5 0 0 1 I I #
point $-1 46.144973475237578 -30.414733955677349 9.6285962697063248 #
edge $-1 $549 1 $549 0 $340 $-1 forward 7 unknown #
vertex $-1 $341 $550 #
ellipse-curve $-1 52.785155786008318 -28.417044499408775 7.3305174808408982 0 -0.6560590369687036 0.75470957328743171 2.5 0 0 1 I I #
point $-1 55.285155786008318 -30.414733955677349 9.6285962697063248 #
edge $-1 $551 1 $551 0 $344 $-1 forward 7 unknown #
vertex $-1 $345 $552 #
ellipse-curve $-1 61.925338096779058 -28.417044499408775 7.3305174808408982 0 -0.6560590369687036 0.75470957328743171 2.5 0 0 1 I I #
point $-1 64.425338096779058 -30.414733955677349 9.6285962697063248 #
plane-surface $-1 71.855220191045873 0 0 -1 0 0 0 0 1 forward_v I I I I #
coedge $-1 $353 $351 $355 $482 reversed $241 $-1 #
edge $-1 $366 -13.724124331909373 $484 13.724124331909373 $365 $553 forward 7 unknown #
vertex $-1 $482 $554 #
straight-curve $-1 -71.855220191045873 -35.126099948734179 0 0 0 -1 I I #
edge $-1 $480 -35.126099948734179 $484 35.126099948734179 $478 $555 forward 7 unknown #
straight-curve $-1 0 -35.126099948734179 -13.724124331909373 -1 0 0 I I #
vertex $-1 $358 $556 #
straight-curve $-1 0 35.126099948734179 -13.724124331909373 1 0 0 I I #
point $-1 71.855220191045873 35.126099948734179 -13.724124331909373 #
point $-1 71.855220191045873 -35.126099948734179 -13.724124331909373 #
straight-curve $-1 -71.855220191045873 0 13.724124331909373 0 -1 0 I I #
point $-1 -71.855220191045873 35.126099948734179 13.724124331909373 #
point $-1 -71.855220191045873 -35.126099948734179 13.724124331909373 #
straight-curve $-1 71.855220191045873 -35.126099948734179 0 0 0 -1 I I #
straight-curve $-1 71.855220191045873 35.126099948734179 0 0 0 -1 I I #
plane-surface $-1 0 35.126099948734179 0 0 -1 0 0 0 -1 forward_v I I I I #
coedge $-1 $379 $378 $557 $558 forward $160 $-1 #
edge $-1 $382 59.667232777368582 $559 71.855220191045873 $381 $560 forward 7 unknown #
coedge $-1 $387 $386 $379 $497 reversed $388 $-1 #
edge $-1 $561 -71.855220191045873 $498 -59.667232777368582 $496 $562 forward 7 unknown #
vertex $-1 $394 $563 #
straight-curve $-1 -59.667232777368582 0 -13.724124331909373 0 -1 0 I I #
point $-1 -59.667232777368582 -35.126099948734179 -13.724124331909373 #
coedge $-1 $557 $384 $387 $504 forward $376 $-1 #
coedge $-1 $384 $557 $391 $506 reversed $376 $-1 #
straight-curve $-1 -71.855220191045873 0 -6.4704050517004532 0 1 0 I I #
edge $-1 $389 6.4704050517004532 $561 13.724124331909373 $387 $564 forward 7 unknown #
point $-1 -71.855220191045873 35.126099948734179 -6.4704050517004532 #
edge $-1 $392 6.4704050517004532 $559 13.724124331909373 $502 $565 forward 7 unknown #
point $-1 -71.855220191045873 -35.126099948734179 -6.4704050517004532 #
straight-curve $-1 -59.667232777368582 35.126099948734179 -5.0486323459024565 0 0 -1 I I #
edge $-1 $510 64.951644093029984 $513 78.375321446677916 $398 $566 forward 7 unknown #
vertex $-1 $412 $567 #
straight-curve $-1 -33.334243712172416 32.753650977831327 13.72412433190938 0 1 0 I I #
edge $-1 $513 10.083874589787165 $409 36.416863654983338 $408 $568 forward 7 unknown #
vertex $-1 $512 $569 #
straight-curve $-1 -33.334243712172416 -20.979801144990063 42.579276821282036 0 -0.79863550430605224 0.6018150307709319 I I #
point $-1 -33.334243712172416 17.312278783052925 13.724124331909373 #
point $-1 -59.667232777368589 35.126099948734179 0.30044697826144784 #
straight-curve $-1 0 35.126099948734179 13.724124331909373 -1 0 0 I I #
vertex $-1 $415 $570 #
point $-1 -50.143521615883969 24.574542961113924 4.8297662035460682 #
vertex $-1 $419 $571 #
point $-1 -38.857954873657036 24.574542961113924 4.8297662035460682 #
coedge $-1 $523 $425 $529 $572 reversed $300 $-1 #
coedge $-1 $425 $522 $428 $527 reversed $300 $-1 #
edge $-1 $525 -42.510857361821962 $433 -16.177868296625796 $432 $573 forward 7 unknown #
vertex $-1 $427 $574 #
straight-curve $-1 71.855220191045873 -4.0566897084001194 29.82679740477921 0 0.79863550430605224 -0.6018150307709319 I I #
edge $-1 $429 17.312278783052925 $531 35.126099948734179 $523 $575 forward 7 unknown #
point $-1 71.855220191045845 17.312278783052925 13.724124331909373 #
coedge $-1 $432 $431 $522 $572 forward $423 $-1 #
point $-1 45.522231125849679 35.126099948734179 0.30044697826144784 #
vertex $-1 $527 $576 #
straight-curve $-1 0 35.126099948734179 13.724124331909373 -1 0 0 I I #
vertex $-1 $439 $577 #
point $-1 55.045942287334313 24.574542961113924 4.8297662035460682 #
vertex $-1 $443 $578 #
point $-1 66.331509029561232 24.574542961113924 4.8297662035460682 #
coedge $-1 $458 $457 $450 $538 forward $447 $-1 #
edge $-1 $539 43.272232340700945 $542 51.463288465107027 $537 $579 forward 7 unknown #
vertex $-1 $462 $580 #
straight-curve $-1 37.551518601390406 -64.704316534078799 13.724124331909373 0 -1 0 I I #
edge $-1 $542 11.158940708386247 $459 41.626215077622078 $458 $581 forward 7 unknown #
vertex $-1 $541 $582 #
straight-curve $-1 37.551518601390406 -35.126099948734193 5.5330682075032769 0 0.75470957328743171 0.6560590369687036 I I #
point $-1 37.551518601390406 -25.703367962620533 13.724124331909373 #
point $-1 68.018792970626237 -35.126099948734179 5.5330682075032893 #
straight-curve $-1 0 -35.126099948734179 13.724124331909373 1 0 0 I I #
vertex $-1 $465 $583 #
point $-1 46.144973475237578 -28.417044499408775 7.3305174808408982 #
vertex $-1 $469 $584 #
point $-1 55.285155786008318 -28.417044499408775 7.3305174808408982 #
vertex $-1 $473 $585 #
point $-1 64.425338096779058 -28.417044499408775 7.3305174808408982 #
straight-curve $-1 -71.855220191045873 35.126099948734179 0 0 0 -1 I I #
point $-1 -71.855220191045873 -35.126099948734179 -13.724124331909373 #
straight-curve $-1 -71.855220191045873 0 -13.724124331909373 0 1 0 I I #
point $-1 -71.855220191045873 35.126099948734179 -13.724124331909373 #
coedge $-1 $502 $501 $494 $558 reversed $376 $-1 #
edge $-1 $559 -35.126099948734179 $561 35.126099948734179 $557 $586 forward 7 unknown #
vertex $-1 $558 $587 #
straight-curve $-1 0 -35.126099948734179 -13.724124331909373 -1 0 0 I I #
vertex $-1 $497 $588 #
straight-curve $-1 0 35.126099948734179 -13.724124331909373 1 0 0 I I #
point $-1 -59.667232777368582 35.126099948734179 -13.724124331909373 #
straight-curve $-1 -71.855220191045873 35.126099948734179 0 0 0 -1 I I #
straight-curve $-1 -71.855220191045873 -35.126099948734179 0 0 0 -1 I I #
straight-curve $-1 -33.334243712172416 35.126099948734179 78.675768424939363 0 0 -1 I I #
point $-1 -33.334243712172416 35.126099948734179 13.724124331909373 #
straight-curve $-1 -23.250369122385251 35.126099948734179 0.30044697826145139 -1 0 0 I I #
point $-1 -33.334243712172416 35.126099948734179 0.30044697826144784 #
point $-1 -52.143521615883969 23.370912899572058 3.2324951949339642 #
point $-1 -40.857954873657036 23.370912899572058 3.2324951949339642 #
edge $-1 $531 -13.724124331909373 $525 -0.30044697826144784 $522 $589 forward 7 unknown #
straight-curve $-1 29.344362829223883 35.126099948734179 0.30044697826145139 -1 0 0 I I #
point $-1 71.855220191045845 35.126099948734179 0.30044697826144784 #
straight-curve $-1 71.855220191045873 0 13.724124331909373 0 1 0 I I #
point $-1 71.855220191045873 35.126099948734179 13.724124331909373 #
point $-1 53.045942287334313 23.370912899572058 3.2324951949339642 #
point $-1 64.331509029561232 23.370912899572058 3.2324951949339642 #
straight-curve $-1 37.551518601390406 -35.126099948734179 56.996356672610318 0 0 -1 I I #
point $-1 37.551518601390406 -35.126099948734179 13.724124331909373 #
straight-curve $-1 26.392577893004159 -35.126099948734179 5.5330682075032867 1 0 0 I I #
point $-1 37.551518601390406 -35.126099948734179 5.5330682075032893 #
point $-1 43.644973475237578 -26.776896906987012 5.4437435476223168 #
point $-1 52.785155786008318 -26.776896906987012 5.4437435476223168 #
point $-1 61.925338096779058 -26.776896906987012 5.4437435476223168 #
straight-curve $-1 -71.855220191045873 0 -13.724124331909373 0 1 0 I I #
point $-1 -71.855220191045873 -35.126099948734179 -13.724124331909373 #
point $-1 -71.855220191045873 35.126099948734179 -13.724124331909373 #
straight-curve $-1 71.855220191045873 35.126099948734179 0 0 0 -1 I I #
End-of-ACIS-data 