500 0 11 0           
7 Unknown 11 ACIS 5.0 NT 24 Thu Mar 25 23:35:16 1999 
-1 9.9999999999999995e-007 1e-010 
body $-1 $11 $-1 $12 #
body $-1 $13 $-1 $14 #
body $-1 $15 $-1 $16 #
body $-1 $17 $-1 $18 #
body $-1 $19 $-1 $20 #
body $-1 $21 $-1 $22 #
body $-1 $23 $-1 $24 #
body $-1 $25 $-1 $26 #
body $-1 $27 $-1 $28 #
body $-1 $29 $-1 $30 #
body $-1 $31 $-1 $32 #
lump $-1 $-1 $33 $0 #
transform $-1 1 0 0 0 1 0 0 0 1 58.56868190557573 35.845456119595838 10.020034038130987 1 rotate no_reflect no_shear #
lump $-1 $-1 $34 $1 #
transform $-1 1 0 0 0 1 0 0 0 1 58.56868190557573 35.845456119595838 10.020034038130987 1 rotate no_reflect no_shear #
lump $-1 $-1 $35 $2 #
transform $-1 1 0 0 0 1 0 0 0 1 58.56868190557573 35.845456119595838 10.020034038130987 1 rotate no_reflect no_shear #
lump $-1 $-1 $36 $3 #
transform $-1 1 0 0 0 1 0 0 0 1 58.56868190557573 35.845456119595838 10.020034038130987 1 rotate no_reflect no_shear #
lump $-1 $-1 $37 $4 #
transform $-1 1 0 0 0 1 0 0 0 1 58.56868190557573 35.845456119595838 10.020034038130987 1 rotate no_reflect no_shear #
lump $-1 $-1 $38 $5 #
transform $-1 1 0 0 0 1 0 0 0 1 58.56868190557573 35.845456119595838 10.020034038130987 1 rotate no_reflect no_shear #
lump $-1 $-1 $39 $6 #
transform $-1 1 0 0 0 1 0 0 0 1 58.56868190557573 35.845456119595838 10.020034038130987 1 rotate no_reflect no_shear #
lump $-1 $-1 $40 $7 #
transform $-1 1 0 0 0 1 0 0 0 1 58.56868190557573 35.845456119595838 10.020034038130987 1 rotate no_reflect no_shear #
lump $-1 $-1 $41 $8 #
transform $-1 1 0 0 0 1 0 0 0 1 58.56868190557573 35.845456119595838 10.020034038130987 1 rotate no_reflect no_shear #
lump $-1 $-1 $42 $9 #
transform $-1 1 0 0 0 1 0 0 0 1 58.56868190557573 35.845456119595838 10.020034038130987 1 rotate no_reflect no_shear #
lump $-1 $-1 $43 $10 #
transform $-1 1 0 0 0 1 0 0 0 1 58.56868190557573 35.845456119595838 10.020034038130987 1 rotate no_reflect no_shear #
shell $-1 $-1 $-1 $44 $-1 $11 #
shell $-1 $-1 $-1 $45 $-1 $13 #
shell $-1 $-1 $-1 $46 $-1 $15 #
shell $-1 $-1 $-1 $47 $-1 $17 #
shell $-1 $-1 $-1 $48 $-1 $19 #
shell $-1 $-1 $-1 $49 $-1 $21 #
shell $-1 $-1 $-1 $50 $-1 $23 #
shell $-1 $-1 $-1 $51 $-1 $25 #
shell $-1 $-1 $-1 $52 $-1 $27 #
shell $-1 $-1 $-1 $53 $-1 $29 #
shell $-1 $-1 $-1 $54 $-1 $31 #
face $-1 $55 $56 $33 $-1 $57 forward single #
face $-1 $58 $59 $34 $-1 $60 forward single #
face $-1 $61 $62 $35 $-1 $63 forward single #
face $-1 $64 $65 $36 $-1 $66 reversed single #
face $-1 $67 $68 $37 $-1 $69 forward single #
face $-1 $70 $71 $38 $-1 $72 forward single #
face $-1 $73 $74 $39 $-1 $75 forward single #
face $-1 $76 $77 $40 $-1 $78 reversed single #
face $-1 $79 $80 $41 $-1 $81 forward single #
face $-1 $82 $83 $42 $-1 $84 forward single #
face $-1 $85 $86 $43 $-1 $87 forward single #
face $-1 $88 $89 $33 $-1 $90 reversed single #
loop $-1 $-1 $91 $44 #
plane-surface $-1 0 0 10.020034038130987 0 0 1 1 0 0 forward_v I I I I #
face $-1 $92 $93 $34 $-1 $94 reversed single #
loop $-1 $-1 $95 $45 #
plane-surface $-1 -58.56868190557573 0 0 1 0 0 0 0 -1 forward_v I I I I #
face $-1 $96 $97 $35 $-1 $98 reversed single #
loop $-1 $-1 $99 $46 #
plane-surface $-1 58.56868190557573 0 0 -1 0 0 0 0 1 forward_v I I I I #
face $-1 $100 $101 $36 $-1 $102 reversed single #
loop $-1 $-1 $103 $47 #
plane-surface $-1 -46.466406082301063 84.013627379630151 134.57142649240768 1 0 0 0 -0.78801076186113728 -0.61566146476048833 forward_v I I I I #
face $-1 $104 $105 $37 $-1 $106 forward single #
loop $-1 $107 $108 $48 #
cone-surface $-1 -43.577454033014114 33.56791585798188 7.4499890917915375 0 -0.78801076186113728 -0.61566146476048833 1 0 0 1 I I 0 1 1 forward I I I I #
face $-1 $109 $110 $38 $-1 $111 forward single #
loop $-1 $112 $113 $49 #
cone-surface $-1 -39.244025959083693 33.56791585798188 7.4499890917915375 0 -0.78801076186113728 -0.61566146476048833 1 0 0 1 I I 0 1 1 forward I I I I #
face $-1 $114 $115 $39 $-1 $116 forward single #
loop $-1 $117 $118 $50 #
cone-surface $-1 -34.910597885153273 33.56791585798188 7.4499890917915375 0 -0.78801076186113728 -0.61566146476048833 1 0 0 1 I I 0 1 1 forward I I I I #
face $-1 $119 $120 $40 $-1 $121 reversed single #
loop $-1 $-1 $122 $51 #
plane-surface $-1 32.021645835866352 84.013627379630151 134.57142649240768 1 0 0 0 -0.78801076186113728 -0.61566146476048833 forward_v I I I I #
face $-1 $123 $124 $41 $-1 $125 forward single #
loop $-1 $126 $127 $52 #
cone-surface $-1 34.91059788515328 33.56791585798188 7.4499890917915375 0 -0.78801076186113728 -0.61566146476048833 1 0 0 1 I I 0 1 1 forward I I I I #
face $-1 $128 $129 $42 $-1 $130 forward single #
loop $-1 $131 $132 $53 #
cone-surface $-1 39.244025959083714 33.56791585798188 7.4499890917915375 0 -0.78801076186113728 -0.61566146476048833 1 0 0 1 I I 0 1 1 forward I I I I #
face $-1 $133 $134 $43 $-1 $135 forward single #
loop $-1 $136 $137 $54 #
cone-surface $-1 43.577454033014121 33.56791585798188 7.4499890917915375 0 -0.78801076186113728 -0.61566146476048833 1 0 0 1 I I 0 1 1 forward I I I I #
face $-1 $138 $139 $33 $-1 $140 reversed single #
loop $-1 $-1 $141 $55 #
plane-surface $-1 0 0 -10.020034038130987 0 0 1 1 0 0 forward_v I I I I #
coedge $-1 $142 $143 $144 $145 forward $56 $-1 #
face $-1 $146 $147 $34 $-1 $148 forward single #
loop $-1 $-1 $149 $58 #
plane-surface $-1 0 35.845456119595838 0 0 -1 0 0 0 -1 forward_v I I I I #
coedge $-1 $150 $151 $152 $153 forward $59 $-1 #
face $-1 $154 $155 $35 $-1 $156 forward single #
loop $-1 $-1 $157 $61 #
plane-surface $-1 0 -35.845456119595838 0 0 1 0 0 0 1 forward_v I I I I #
coedge $-1 $158 $159 $160 $161 forward $62 $-1 #
face $-1 $162 $163 $36 $-1 $164 reversed single #
loop $-1 $-1 $165 $64 #
plane-surface $-1 -39.244025959083693 -8.2918759196005283 62.45446551025195 0 0.78801076186113728 0.61566146476048833 1 0 0 forward_v I I I I #
coedge $-1 $166 $167 $168 $169 reversed $65 $-1 #
face $-1 $-1 $170 $37 $-1 $171 forward single #
loop $-1 $172 $173 $67 #
cone-surface $-1 -43.577454033014114 32.481902979491139 6.6015028630740318 0 -0.78801076186113728 -0.61566146476048833 0.5 0 0 1 I I -0.70710678118654746 0.70710678118654746 0.5 forward I I I I #
loop $-1 $-1 $174 $48 #
coedge $-1 $108 $108 $175 $176 reversed $68 $-1 #
face $-1 $-1 $177 $38 $-1 $178 forward single #
loop $-1 $179 $180 $70 #
cone-surface $-1 -39.244025959083693 32.481902979491139 6.6015028630740318 0 -0.78801076186113728 -0.61566146476048833 0.5 0 0 1 I I -0.70710678118654746 0.70710678118654746 0.5 forward I I I I #
loop $-1 $-1 $181 $49 #
coedge $-1 $113 $113 $182 $183 reversed $71 $-1 #
face $-1 $-1 $184 $39 $-1 $185 forward single #
loop $-1 $186 $187 $73 #
cone-surface $-1 -34.910597885153273 32.481902979491139 6.6015028630740318 0 -0.78801076186113728 -0.61566146476048833 0.5 0 0 1 I I -0.70710678118654746 0.70710678118654746 0.5 forward I I I I #
loop $-1 $-1 $188 $50 #
coedge $-1 $118 $118 $189 $190 reversed $74 $-1 #
face $-1 $191 $192 $40 $-1 $193 reversed single #
loop $-1 $-1 $194 $76 #
plane-surface $-1 39.244025959083714 -8.2918759196005283 62.45446551025195 0 0.78801076186113728 0.61566146476048833 1 0 0 forward_v I I I I #
coedge $-1 $195 $196 $197 $198 reversed $77 $-1 #
face $-1 $-1 $199 $41 $-1 $200 forward single #
loop $-1 $201 $202 $79 #
cone-surface $-1 34.91059788515328 32.481902979491139 6.6015028630740318 0 -0.78801076186113728 -0.61566146476048833 0.5 0 0 1 I I -0.70710678118654746 0.70710678118654746 0.5 forward I I I I #
loop $-1 $-1 $203 $52 #
coedge $-1 $127 $127 $204 $205 reversed $80 $-1 #
face $-1 $-1 $206 $42 $-1 $207 forward single #
loop $-1 $208 $209 $82 #
cone-surface $-1 39.244025959083714 32.481902979491139 6.6015028630740318 0 -0.78801076186113728 -0.61566146476048833 0.5 0 0 1 I I -0.70710678118654746 0.70710678118654746 0.5 forward I I I I #
loop $-1 $-1 $210 $53 #
coedge $-1 $132 $132 $211 $212 reversed $83 $-1 #
face $-1 $-1 $213 $43 $-1 $214 forward single #
loop $-1 $215 $216 $85 #
cone-surface $-1 43.577454033014121 32.481902979491139 6.6015028630740318 0 -0.78801076186113728 -0.61566146476048833 0.5 0 0 1 I I -0.70710678118654746 0.70710678118654746 0.5 forward I I I I #
loop $-1 $-1 $217 $54 #
coedge $-1 $137 $137 $218 $219 reversed $86 $-1 #
face $-1 $220 $221 $33 $-1 $222 reversed single #
loop $-1 $-1 $223 $88 #
plane-surface $-1 0 -35.845456119595838 0 0 1 0 0 0 1 forward_v I I I I #
coedge $-1 $224 $225 $226 $227 forward $89 $-1 #
coedge $-1 $228 $91 $229 $230 forward $56 $-1 #
coedge $-1 $91 $228 $231 $232 forward $56 $-1 #
coedge $-1 $233 $234 $91 $145 reversed $235 $-1 #
edge $-1 $236 -35.845456119595838 $237 35.845456119595838 $144 $238 forward 7 unknown #
face $-1 $239 $240 $34 $-1 $241 reversed single #
loop $-1 $-1 $152 $92 #
plane-surface $-1 -64.61981981721307 0 -1.0290386620754983 0 0 1 1 0 0 forward_v I I I I #
coedge $-1 $242 $243 $151 $244 forward $93 $-1 #
coedge $-1 $245 $95 $246 $247 reversed $59 $-1 #
coedge $-1 $95 $245 $149 $244 reversed $59 $-1 #
coedge $-1 $248 $249 $95 $153 reversed $147 $-1 #
edge $-1 $250 -35.845456119595838 $251 35.845456119595838 $152 $252 forward 7 unknown #
face $-1 $253 $254 $35 $-1 $255 reversed single #
loop $-1 $-1 $256 $96 #
plane-surface $-1 64.61981981721307 0 -1.0290386620754983 0 0 1 1 0 0 forward_v I I I I #
coedge $-1 $257 $258 $159 $259 forward $97 $-1 #
coedge $-1 $260 $99 $261 $262 reversed $62 $-1 #
coedge $-1 $99 $260 $157 $259 reversed $62 $-1 #
coedge $-1 $263 $264 $99 $161 reversed $155 $-1 #
edge $-1 $265 -35.845456119595838 $266 35.845456119595838 $160 $267 forward 7 unknown #
face $-1 $268 $269 $36 $-1 $270 reversed single #
loop $-1 $-1 $271 $100 #
plane-surface $-1 -32.021645835866323 84.013627379630151 134.57142649240768 -1 0 0 0 0.78801076186113728 0.61566146476048833 forward_v I I I I #
coedge $-1 $272 $273 $274 $275 reversed $101 $-1 #
coedge $-1 $167 $103 $276 $277 reversed $65 $-1 #
coedge $-1 $103 $166 $272 $278 reversed $65 $-1 #
coedge $-1 $274 $279 $103 $169 forward $280 $-1 #
edge $-1 $281 6.1613575702192378 $282 9.3324230983268492 $168 $283 forward 7 unknown #
loop $-1 $-1 $175 $104 #
plane-surface $-1 -39.244025959083693 -8.2918759196005283 62.45446551025195 0 0.78801076186113728 0.61566146476048833 1 0 0 forward_v I I I I #
loop $-1 $-1 $284 $67 #
coedge $-1 $173 $173 $174 $285 reversed $105 $-1 #
coedge $-1 $174 $174 $173 $285 forward $107 $-1 #
coedge $-1 $175 $175 $108 $176 forward $170 $-1 #
edge $-1 $286 1.2254128401888547e-015 $286 6.2831853071796013 $175 $287 forward 7 unknown #
loop $-1 $-1 $182 $109 #
plane-surface $-1 -39.244025959083693 -8.2918759196005283 62.45446551025195 0 0.78801076186113728 0.61566146476048833 1 0 0 forward_v I I I I #
loop $-1 $-1 $288 $70 #
coedge $-1 $180 $180 $181 $289 reversed $110 $-1 #
coedge $-1 $181 $181 $180 $289 forward $112 $-1 #
coedge $-1 $182 $182 $113 $183 forward $177 $-1 #
edge $-1 $290 1.2254128401888547e-015 $290 6.2831853071796013 $182 $291 forward 7 unknown #
loop $-1 $-1 $189 $114 #
plane-surface $-1 -39.244025959083693 -8.2918759196005283 62.45446551025195 0 0.78801076186113728 0.61566146476048833 1 0 0 forward_v I I I I #
loop $-1 $-1 $292 $73 #
coedge $-1 $187 $187 $188 $293 reversed $115 $-1 #
coedge $-1 $188 $188 $187 $293 forward $117 $-1 #
coedge $-1 $189 $189 $118 $190 forward $184 $-1 #
edge $-1 $294 1.2254128401888547e-015 $294 6.2831853071796013 $189 $295 forward 7 unknown #
face $-1 $296 $297 $40 $-1 $298 forward single #
loop $-1 $-1 $299 $119 #
plane-surface $-1 46.466406082301077 84.013627379630151 134.57142649240768 -1 0 0 0 0.78801076186113728 0.61566146476048833 forward_v I I I I #
coedge $-1 $300 $301 $302 $303 reversed $120 $-1 #
coedge $-1 $196 $122 $304 $305 reversed $77 $-1 #
coedge $-1 $122 $195 $300 $306 reversed $77 $-1 #
coedge $-1 $302 $307 $122 $198 forward $297 $-1 #
edge $-1 $308 6.1613575702192378 $309 9.3324230983268492 $197 $310 forward 7 unknown #
loop $-1 $-1 $204 $123 #
plane-surface $-1 39.244025959083714 -8.2918759196005283 62.45446551025195 0 0.78801076186113728 0.61566146476048833 1 0 0 forward_v I I I I #
loop $-1 $-1 $311 $79 #
coedge $-1 $202 $202 $203 $312 reversed $124 $-1 #
coedge $-1 $203 $203 $202 $312 forward $126 $-1 #
coedge $-1 $204 $204 $127 $205 forward $199 $-1 #
edge $-1 $313 1.2254128401888547e-015 $313 6.2831853071796013 $204 $314 forward 7 unknown #
loop $-1 $-1 $211 $128 #
plane-surface $-1 39.244025959083714 -8.2918759196005283 62.45446551025195 0 0.78801076186113728 0.61566146476048833 1 0 0 forward_v I I I I #
loop $-1 $-1 $315 $82 #
coedge $-1 $209 $209 $210 $316 reversed $129 $-1 #
coedge $-1 $210 $210 $209 $316 forward $131 $-1 #
coedge $-1 $211 $211 $132 $212 forward $206 $-1 #
edge $-1 $317 1.2254128401888547e-015 $317 6.2831853071796013 $211 $318 forward 7 unknown #
loop $-1 $-1 $218 $133 #
plane-surface $-1 39.244025959083714 -8.2918759196005283 62.45446551025195 0 0.78801076186113728 0.61566146476048833 1 0 0 forward_v I I I I #
loop $-1 $-1 $319 $85 #
coedge $-1 $216 $216 $217 $320 reversed $134 $-1 #
coedge $-1 $217 $217 $216 $320 forward $136 $-1 #
coedge $-1 $218 $218 $137 $219 forward $213 $-1 #
edge $-1 $321 1.2254128401888547e-015 $321 6.2831853071796013 $218 $322 forward 7 unknown #
face $-1 $323 $324 $33 $-1 $325 reversed single #
loop $-1 $-1 $326 $138 #
plane-surface $-1 -58.56868190557573 0 0 1 0 0 0 0 -1 forward_v I I I I #
coedge $-1 $327 $231 $328 $329 forward $139 $-1 #
coedge $-1 $330 $141 $327 $331 forward $89 $-1 #
coedge $-1 $141 $330 $332 $333 forward $89 $-1 #
coedge $-1 $234 $233 $141 $227 reversed $235 $-1 #
edge $-1 $334 -35.845456119595838 $335 35.845456119595838 $226 $336 forward 7 unknown #
coedge $-1 $143 $142 $337 $338 forward $56 $-1 #
coedge $-1 $339 $340 $142 $230 reversed $324 $-1 #
edge $-1 $237 -58.56868190557573 $341 58.56868190557573 $229 $342 forward 7 unknown #
coedge $-1 $223 $343 $143 $232 reversed $139 $-1 #
edge $-1 $344 -58.56868190557573 $236 58.56868190557573 $231 $345 forward 7 unknown #
coedge $-1 $226 $144 $343 $346 forward $235 $-1 #
coedge $-1 $144 $226 $339 $347 reversed $235 $-1 #
loop $-1 $-1 $233 $323 #
vertex $-1 $145 $348 #
vertex $-1 $145 $349 #
straight-curve $-1 58.56868190557573 0 10.020034038130987 0 1 0 I I #
face $-1 $350 $351 $34 $-1 $352 reversed single #
loop $-1 $-1 $353 $146 #
plane-surface $-1 -64.61981981721307 0 -6.6375300186154682 0 0 1 1 0 0 forward_v I I I I #
coedge $-1 $354 $149 $355 $356 reversed $93 $-1 #
coedge $-1 $149 $354 $248 $357 reversed $93 $-1 #
edge $-1 $250 1.0290386620754983 $358 6.6375300186154682 $149 $359 forward 7 unknown #
coedge $-1 $151 $150 $353 $360 forward $59 $-1 #
coedge $-1 $361 $362 $150 $247 forward $363 $-1 #
edge $-1 $364 -6.6375300186154682 $251 -1.0290386620754983 $246 $365 forward 7 unknown #
coedge $-1 $366 $152 $243 $357 forward $147 $-1 #
coedge $-1 $152 $366 $361 $367 forward $147 $-1 #
vertex $-1 $244 $368 #
vertex $-1 $367 $369 #
straight-curve $-1 -58.56868190557573 0 -1.0290386620754983 0 -1 0 I I #
face $-1 $370 $371 $35 $-1 $372 reversed single #
loop $-1 $-1 $373 $154 #
plane-surface $-1 64.61981981721307 0 -6.6375300186154682 0 0 1 1 0 0 forward_v I I I I #
coedge $-1 $264 $263 $374 $375 forward $155 $-1 #
coedge $-1 $376 $157 $377 $378 reversed $97 $-1 #
coedge $-1 $157 $376 $263 $379 reversed $97 $-1 #
edge $-1 $265 1.0290386620754983 $380 6.6375300186154682 $157 $381 forward 7 unknown #
coedge $-1 $159 $158 $382 $383 forward $62 $-1 #
coedge $-1 $384 $385 $158 $262 forward $386 $-1 #
edge $-1 $387 -6.6375300186154682 $266 -1.0290386620754983 $261 $388 forward 7 unknown #
coedge $-1 $256 $160 $258 $379 forward $155 $-1 #
coedge $-1 $160 $256 $384 $389 forward $155 $-1 #
vertex $-1 $259 $390 #
vertex $-1 $389 $391 #
straight-curve $-1 58.56868190557573 0 -1.0290386620754983 0 1 0 I I #
face $-1 $-1 $280 $36 $-1 $392 forward single #
loop $-1 $-1 $393 $162 #
plane-surface $-1 0 35.845456119595838 0 0 -1 0 0 0 -1 forward_v I I I I #
coedge $-1 $394 $395 $396 $397 reversed $163 $-1 #
coedge $-1 $398 $165 $167 $278 forward $101 $-1 #
coedge $-1 $165 $398 $394 $399 forward $101 $-1 #
coedge $-1 $396 $168 $165 $275 forward $280 $-1 #
edge $-1 $282 -26.844393102759216 $400 -12.399632856324477 $274 $401 forward 7 unknown #
coedge $-1 $402 $403 $166 $277 forward $269 $-1 #
edge $-1 $404 -61.324458108077252 $281 -57.265679208072854 $276 $405 forward 7 unknown #
edge $-1 $282 66.540247938087077 $404 71.690912239191675 $167 $406 forward 7 unknown #
coedge $-1 $168 $396 $402 $407 forward $280 $-1 #
loop $-1 $-1 $396 $268 #
vertex $-1 $277 $408 #
vertex $-1 $169 $409 #
straight-curve $-1 -46.466406082301063 42.006813689815075 10.020034038130987 0 -1 0 I I #
coedge $-1 $284 $284 $-1 $410 reversed $172 $-1 #
edge $-1 $411 0 $411 6.2831853071796004 $173 $412 forward 7 unknown #
vertex $-1 $176 $413 #
ellipse-curve $-1 -43.577454033014114 34.259923355542035 7.9906445881287835 0 0.78801076186113728 0.61566146476048833 1 0 0 1 I I #
coedge $-1 $288 $288 $-1 $414 reversed $179 $-1 #
edge $-1 $415 0 $415 6.2831853071796004 $180 $416 forward 7 unknown #
vertex $-1 $183 $417 #
ellipse-curve $-1 -39.244025959083693 34.259923355542035 7.9906445881287835 0 0.78801076186113728 0.61566146476048833 1 0 0 1 I I #
coedge $-1 $292 $292 $-1 $418 reversed $186 $-1 #
edge $-1 $419 0 $419 6.2831853071796004 $187 $420 forward 7 unknown #
vertex $-1 $190 $421 #
ellipse-curve $-1 -34.910597885153273 34.259923355542035 7.9906445881287835 0 0.78801076186113728 0.61566146476048833 1 0 0 1 I I #
face $-1 $-1 $422 $40 $-1 $423 reversed single #
loop $-1 $-1 $197 $191 #
plane-surface $-1 0 0 10.020034038130987 0 0 1 1 0 0 forward_v I I I I #
coedge $-1 $424 $425 $426 $427 reversed $192 $-1 #
coedge $-1 $428 $194 $196 $306 forward $120 $-1 #
coedge $-1 $194 $428 $424 $429 forward $120 $-1 #
coedge $-1 $426 $197 $194 $303 forward $297 $-1 #
edge $-1 $309 12.399632856324494 $430 26.84439310275922 $302 $431 forward 7 unknown #
coedge $-1 $432 $433 $195 $305 forward $422 $-1 #
edge $-1 $434 -61.324458108077252 $308 -57.265679208072854 $304 $435 forward 7 unknown #
edge $-1 $309 66.540247938087077 $434 71.690912239191675 $196 $436 forward 7 unknown #
coedge $-1 $197 $426 $432 $437 forward $297 $-1 #
vertex $-1 $198 $438 #
vertex $-1 $198 $439 #
straight-curve $-1 32.021645835866352 42.006813689815075 10.020034038130987 0 -1 0 I I #
coedge $-1 $311 $311 $-1 $440 reversed $201 $-1 #
edge $-1 $441 0 $441 6.2831853071796004 $202 $442 forward 7 unknown #
vertex $-1 $205 $443 #
ellipse-curve $-1 34.91059788515328 34.259923355542035 7.9906445881287835 0 0.78801076186113728 0.61566146476048833 1 0 0 1 I I #
coedge $-1 $315 $315 $-1 $444 reversed $208 $-1 #
edge $-1 $445 0 $445 6.2831853071796004 $209 $446 forward 7 unknown #
vertex $-1 $212 $447 #
ellipse-curve $-1 39.244025959083714 34.259923355542035 7.9906445881287835 0 0.78801076186113728 0.61566146476048833 1 0 0 1 I I #
coedge $-1 $319 $319 $-1 $448 reversed $215 $-1 #
edge $-1 $449 0 $449 6.2831853071796004 $216 $450 forward 7 unknown #
vertex $-1 $219 $451 #
ellipse-curve $-1 43.577454033014121 34.259923355542035 7.9906445881287835 0 0.78801076186113728 0.61566146476048833 1 0 0 1 I I #
face $-1 $-1 $235 $33 $-1 $452 reversed single #
loop $-1 $-1 $339 $220 #
plane-surface $-1 0 35.845456119595838 0 0 -1 0 0 0 -1 forward_v I I I I #
coedge $-1 $453 $337 $340 $454 forward $221 $-1 #
coedge $-1 $343 $223 $224 $331 reversed $139 $-1 #
coedge $-1 $337 $453 $223 $329 reversed $221 $-1 #
edge $-1 $344 -10.020034038130987 $455 10.020034038130987 $328 $456 forward 7 unknown #
coedge $-1 $225 $224 $453 $457 forward $89 $-1 #
edge $-1 $335 -58.56868190557573 $455 58.56868190557573 $327 $458 forward 7 unknown #
coedge $-1 $340 $339 $225 $333 reversed $324 $-1 #
edge $-1 $459 -58.56868190557573 $334 58.56868190557573 $332 $460 forward 7 unknown #
vertex $-1 $227 $461 #
vertex $-1 $346 $462 #
straight-curve $-1 58.56868190557573 0 -10.020034038130987 0 -1 0 I I #
coedge $-1 $326 $328 $228 $338 reversed $221 $-1 #
edge $-1 $341 -35.845456119595838 $344 35.845456119595838 $337 $463 forward 7 unknown #
coedge $-1 $332 $229 $234 $347 forward $324 $-1 #
coedge $-1 $229 $332 $326 $454 reversed $324 $-1 #
vertex $-1 $230 $464 #
straight-curve $-1 0 35.845456119595838 10.020034038130987 -1 0 0 I I #
coedge $-1 $231 $327 $233 $346 reversed $139 $-1 #
vertex $-1 $338 $465 #
straight-curve $-1 0 -35.845456119595838 10.020034038130987 1 0 0 I I #
edge $-1 $236 -10.020034038130987 $335 10.020034038130987 $233 $466 forward 7 unknown #
edge $-1 $237 -10.020034038130987 $334 10.020034038130987 $234 $467 forward 7 unknown #
point $-1 58.56868190557573 -35.845456119595838 10.020034038130987 #
point $-1 58.56868190557573 35.845456119595838 10.020034038130987 #
face $-1 $-1 $363 $34 $-1 $468 reversed single #
loop $-1 $-1 $469 $239 #
plane-surface $-1 -70.670957728850411 0 -3.8332843403454833 1 0 0 0 0 -1 forward_v I I I I #
coedge $-1 $470 $355 $245 $360 reversed $240 $-1 #
coedge $-1 $243 $242 $469 $471 reversed $93 $-1 #
coedge $-1 $353 $472 $242 $356 forward $240 $-1 #
edge $-1 $473 -6.0511379116373405 $358 6.0511379116373334 $242 $474 forward 7 unknown #
edge $-1 $250 -6.0511379116373334 $475 6.0511379116373405 $243 $476 forward 7 unknown #
vertex $-1 $244 $477 #
straight-curve $-1 -58.56868190557573 35.845456119595838 0 0 0 -1 I I #
edge $-1 $364 -35.845456119595838 $358 35.845456119595838 $353 $478 forward 7 unknown #
coedge $-1 $479 $246 $249 $367 reversed $363 $-1 #
coedge $-1 $246 $479 $470 $480 reversed $363 $-1 #
loop $-1 $-1 $246 $350 #
vertex $-1 $247 $481 #
straight-curve $-1 -58.56868190557573 -35.845456119595838 0 0 0 1 I I #
coedge $-1 $249 $248 $482 $483 forward $147 $-1 #
edge $-1 $484 -6.0511379116373405 $251 6.0511379116373334 $361 $485 forward 7 unknown #
point $-1 -58.568681905575737 35.845456119595838 -1.0290386620754983 #
point $-1 -58.568681905575737 -35.845456119595838 -1.0290386620754983 #
face $-1 $-1 $386 $35 $-1 $486 reversed single #
loop $-1 $-1 $487 $253 #
plane-surface $-1 70.670957728850411 0 -3.8332843403454833 -1 0 0 0 0 1 forward_v I I I I #
coedge $-1 $377 $488 $489 $490 forward $254 $-1 #
coedge $-1 $487 $491 $256 $375 reversed $371 $-1 #
edge $-1 $492 -35.845456119595838 $493 35.845456119595838 $374 $494 forward 7 unknown #
coedge $-1 $258 $257 $487 $495 reversed $97 $-1 #
coedge $-1 $382 $373 $257 $378 forward $254 $-1 #
edge $-1 $496 -6.0511379116373405 $380 6.0511379116373405 $257 $497 forward 7 unknown #
edge $-1 $265 -6.0511379116373405 $492 6.0511379116373405 $258 $498 forward 7 unknown #
vertex $-1 $259 $499 #
straight-curve $-1 58.56868190557573 -35.845456119595838 0 0 0 -1 I I #
coedge $-1 $488 $377 $260 $383 reversed $254 $-1 #
edge $-1 $387 -35.845456119595838 $380 35.845456119595838 $382 $500 forward 7 unknown #
coedge $-1 $501 $261 $264 $389 reversed $386 $-1 #
coedge $-1 $261 $501 $488 $502 reversed $386 $-1 #
loop $-1 $-1 $261 $370 #
vertex $-1 $262 $503 #
straight-curve $-1 58.56868190557573 35.845456119595838 0 0 0 1 I I #
edge $-1 $493 -6.0511379116373405 $266 6.0511379116373405 $384 $504 forward 7 unknown #
point $-1 58.56868190557573 -35.845456119595838 -1.0290386620754983 #
point $-1 58.56868190557573 35.845456119595838 -1.0290386620754983 #
plane-surface $-1 0 0 10.020034038130987 0 0 1 1 0 0 forward_v I I I I #
coedge $-1 $403 $402 $395 $505 forward $269 $-1 #
coedge $-1 $395 $271 $273 $399 reversed $163 $-1 #
coedge $-1 $271 $394 $393 $505 reversed $163 $-1 #
coedge $-1 $279 $274 $271 $397 forward $280 $-1 #
edge $-1 $400 -9.3324230983268492 $506 -6.1613575702192378 $396 $507 forward 7 unknown #
coedge $-1 $273 $272 $403 $508 reversed $101 $-1 #
edge $-1 $509 -71.690912239191675 $400 -66.540247938087077 $394 $510 forward 7 unknown #
vertex $-1 $275 $511 #
straight-curve $-1 -19.622012979541847 32.674390591488219 10.020034038130987 1 0 0 I I #
coedge $-1 $393 $276 $279 $407 reversed $269 $-1 #
coedge $-1 $276 $393 $398 $508 forward $269 $-1 #
vertex $-1 $277 $512 #
straight-curve $-1 -46.466406082301063 35.845456119595838 67.285713246203841 0 0 1 I I #
straight-curve $-1 -46.466406082301063 -8.2918759196005283 62.45446551025195 0 0.61566146476048833 -0.78801076186113728 I I #
edge $-1 $506 32.021645835866323 $281 46.466406082301063 $402 $513 forward 7 unknown #
point $-1 -46.466406082301063 35.845456119595838 10.020034038130987 #
point $-1 -46.466406082301063 32.674390591488226 10.02003403813098 #
edge $-1 $514 1 $514 0 $284 $-1 forward 7 unknown #
vertex $-1 $285 $515 #
ellipse-curve $-1 -43.577454033014114 32.875908360421704 6.9093335954542763 0 0.78801076186113728 0.61566146476048833 1 0 0 1 I I #
point $-1 -42.577454033014114 34.259923355542057 7.9906445881287986 #
edge $-1 $516 1 $516 0 $288 $-1 forward 7 unknown #
vertex $-1 $289 $517 #
ellipse-curve $-1 -39.244025959083693 32.875908360421704 6.9093335954542763 0 0.78801076186113728 0.61566146476048833 1 0 0 1 I I #
point $-1 -38.244025959083693 34.259923355542057 7.9906445881287986 #
edge $-1 $518 1 $518 0 $292 $-1 forward 7 unknown #
vertex $-1 $293 $519 #
ellipse-curve $-1 -34.910597885153273 32.875908360421704 6.9093335954542763 0 0.78801076186113728 0.61566146476048833 1 0 0 1 I I #
point $-1 -33.910597885153273 34.259923355542057 7.9906445881287986 #
loop $-1 $-1 $304 $296 #
plane-surface $-1 0 35.845456119595838 0 0 -1 0 0 0 -1 forward_v I I I I #
coedge $-1 $425 $299 $301 $429 reversed $192 $-1 #
coedge $-1 $299 $424 $520 $521 reversed $192 $-1 #
coedge $-1 $307 $302 $299 $427 forward $297 $-1 #
edge $-1 $430 -9.3324230983268492 $522 -6.1613575702192378 $426 $523 forward 7 unknown #
coedge $-1 $301 $300 $433 $524 reversed $120 $-1 #
edge $-1 $525 -71.690912239191675 $430 -66.540247938087077 $424 $526 forward 7 unknown #
vertex $-1 $303 $527 #
straight-curve $-1 19.622012979541857 32.674390591488219 10.020034038130987 1 0 0 I I #
coedge $-1 $520 $304 $307 $437 reversed $422 $-1 #
coedge $-1 $304 $520 $428 $524 forward $422 $-1 #
vertex $-1 $305 $528 #
straight-curve $-1 32.021645835866352 35.845456119595838 67.285713246203841 0 0 1 I I #
straight-curve $-1 32.021645835866352 -8.2918759196005283 62.45446551025195 0 0.61566146476048833 -0.78801076186113728 I I #
edge $-1 $522 -46.466406082301077 $308 -32.021645835866352 $432 $529 forward 7 unknown #
point $-1 32.021645835866352 35.845456119595838 10.020034038130987 #
point $-1 32.021645835866352 32.674390591488226 10.02003403813098 #
edge $-1 $530 1 $530 0 $311 $-1 forward 7 unknown #
vertex $-1 $312 $531 #
ellipse-curve $-1 34.91059788515328 32.875908360421704 6.9093335954542763 0 0.78801076186113728 0.61566146476048833 1 0 0 1 I I #
point $-1 35.91059788515328 34.259923355542057 7.9906445881287986 #
edge $-1 $532 1 $532 0 $315 $-1 forward 7 unknown #
vertex $-1 $316 $533 #
ellipse-curve $-1 39.244025959083714 32.875908360421704 6.9093335954542763 0 0.78801076186113728 0.61566146476048833 1 0 0 1 I I #
point $-1 40.244025959083714 34.259923355542057 7.9906445881287986 #
edge $-1 $534 1 $534 0 $319 $-1 forward 7 unknown #
vertex $-1 $320 $535 #
ellipse-curve $-1 43.577454033014121 32.875908360421704 6.9093335954542763 0 0.78801076186113728 0.61566146476048833 1 0 0 1 I I #
point $-1 44.577454033014121 34.259923355542057 7.9906445881287986 #
plane-surface $-1 58.56868190557573 0 0 -1 0 0 0 0 1 forward_v I I I I #
coedge $-1 $328 $326 $330 $457 reversed $221 $-1 #
edge $-1 $341 -10.020034038130987 $459 10.020034038130987 $340 $536 forward 7 unknown #
vertex $-1 $457 $537 #
straight-curve $-1 -58.56868190557573 -35.845456119595838 0 0 0 -1 I I #
edge $-1 $455 -35.845456119595838 $459 35.845456119595838 $453 $538 forward 7 unknown #
straight-curve $-1 0 -35.845456119595838 -10.020034038130987 -1 0 0 I I #
vertex $-1 $333 $539 #
straight-curve $-1 0 35.845456119595838 -10.020034038130987 1 0 0 I I #
point $-1 58.56868190557573 35.845456119595838 -10.020034038130987 #
point $-1 58.56868190557573 -35.845456119595838 -10.020034038130987 #
straight-curve $-1 -58.56868190557573 0 10.020034038130987 0 -1 0 I I #
point $-1 -58.56868190557573 35.845456119595838 10.020034038130987 #
point $-1 -58.56868190557573 -35.845456119595838 10.020034038130987 #
straight-curve $-1 58.56868190557573 -35.845456119595838 0 0 0 -1 I I #
straight-curve $-1 58.56868190557573 35.845456119595838 0 0 0 -1 I I #
plane-surface $-1 0 -35.845456119595838 0 0 1 0 0 0 1 forward_v I I I I #
coedge $-1 $540 $482 $354 $471 forward $351 $-1 #
coedge $-1 $472 $353 $362 $480 forward $240 $-1 #
edge $-1 $475 -2.8042456782699849 $473 2.8042456782699849 $354 $541 forward 7 unknown #
coedge $-1 $355 $470 $540 $542 forward $240 $-1 #
vertex $-1 $356 $543 #
straight-curve $-1 -64.61981981721307 35.845456119595838 -6.6375300186154682 1 0 0 I I #
vertex $-1 $357 $544 #
straight-curve $-1 -64.61981981721307 35.845456119595838 -1.0290386620754983 -1 0 0 I I #
point $-1 -58.568681905575737 35.845456119595838 -6.6375300186154682 #
straight-curve $-1 -58.56868190557573 0 -6.6375300186154682 0 1 0 I I #
coedge $-1 $362 $361 $545 $546 forward $363 $-1 #
edge $-1 $364 -6.0511379116373334 $547 6.0511379116373405 $362 $548 forward 7 unknown #
point $-1 -58.568681905575737 -35.845456119595838 -6.6375300186154682 #
coedge $-1 $469 $545 $366 $483 reversed $351 $-1 #
edge $-1 $475 -35.845456119595838 $484 35.845456119595838 $482 $549 forward 7 unknown #
vertex $-1 $483 $550 #
straight-curve $-1 -64.61981981721307 -35.845456119595838 -1.0290386620754983 1 0 0 I I #
plane-surface $-1 0 35.845456119595838 0 0 -1 0 0 0 -1 forward_v I I I I #
coedge $-1 $489 $374 $376 $495 forward $371 $-1 #
coedge $-1 $373 $382 $385 $502 forward $254 $-1 #
coedge $-1 $491 $487 $373 $490 reversed $371 $-1 #
edge $-1 $551 -35.845456119595838 $496 35.845456119595838 $489 $552 forward 7 unknown #
coedge $-1 $374 $489 $501 $553 reversed $371 $-1 #
vertex $-1 $375 $554 #
vertex $-1 $375 $555 #
straight-curve $-1 70.670957728850411 0 -1.0290386620754983 0 1 0 I I #
edge $-1 $492 -2.8042456782699849 $496 2.8042456782699849 $487 $556 forward 7 unknown #
vertex $-1 $495 $557 #
straight-curve $-1 64.61981981721307 -35.845456119595838 -6.6375300186154682 -1 0 0 I I #
straight-curve $-1 64.61981981721307 -35.845456119595838 -1.0290386620754983 1 0 0 I I #
point $-1 58.56868190557573 -35.845456119595838 -6.6375300186154682 #
straight-curve $-1 58.56868190557573 0 -6.6375300186154682 0 -1 0 I I #
coedge $-1 $385 $384 $491 $553 forward $386 $-1 #
edge $-1 $387 -6.0511379116373405 $551 6.0511379116373405 $385 $558 forward 7 unknown #
point $-1 58.56868190557573 35.845456119595838 -6.6375300186154682 #
straight-curve $-1 64.61981981721307 35.845456119595838 -1.0290386620754983 -1 0 0 I I #
edge $-1 $506 57.265679208072854 $509 61.324458108077252 $393 $559 forward 7 unknown #
vertex $-1 $407 $560 #
straight-curve $-1 -32.021645835866323 42.006813689815075 10.020034038130987 0 1 0 I I #
edge $-1 $509 12.399632856324477 $404 26.844393102759216 $403 $561 forward 7 unknown #
vertex $-1 $508 $562 #
straight-curve $-1 -32.021645835866323 -8.2918759196005283 62.45446551025195 0 -0.61566146476048833 0.78801076186113728 I I #
point $-1 -32.021645835866323 32.674390591488226 10.02003403813098 #
point $-1 -46.466406082301063 35.845456119595838 5.9612551381265888 #
straight-curve $-1 0 35.845456119595838 10.020034038130987 -1 0 0 I I #
vertex $-1 $410 $563 #
point $-1 -42.577454033014114 32.875908360421704 6.9093335954542763 #
vertex $-1 $414 $564 #
point $-1 -38.244025959083693 32.875908360421704 6.9093335954542763 #
vertex $-1 $418 $565 #
point $-1 -33.910597885153273 32.875908360421704 6.9093335954542763 #
coedge $-1 $433 $432 $425 $521 forward $422 $-1 #
edge $-1 $522 57.265679208072854 $525 61.324458108077252 $520 $566 forward 7 unknown #
vertex $-1 $437 $567 #
straight-curve $-1 46.466406082301077 42.006813689815075 10.020034038130987 0 1 0 I I #
edge $-1 $525 -26.84439310275922 $434 -12.399632856324494 $433 $568 forward 7 unknown #
vertex $-1 $524 $569 #
straight-curve $-1 46.466406082301077 -8.2918759196005283 62.45446551025195 0 -0.61566146476048833 0.78801076186113728 I I #
point $-1 46.466406082301077 32.674390591488226 10.02003403813098 #
point $-1 32.021645835866352 35.845456119595838 5.9612551381265888 #
straight-curve $-1 0 35.845456119595838 10.020034038130987 -1 0 0 I I #
vertex $-1 $440 $570 #
point $-1 35.91059788515328 32.875908360421704 6.9093335954542763 #
vertex $-1 $444 $571 #
point $-1 40.244025959083714 32.875908360421704 6.9093335954542763 #
vertex $-1 $448 $572 #
point $-1 44.577454033014121 32.875908360421704 6.9093335954542763 #
straight-curve $-1 -58.56868190557573 35.845456119595838 0 0 0 -1 I I #
point $-1 -58.56868190557573 -35.845456119595838 -10.020034038130987 #
straight-curve $-1 -58.56868190557573 0 -10.020034038130987 0 1 0 I I #
point $-1 -58.56868190557573 35.845456119595838 -10.020034038130987 #
coedge $-1 $545 $469 $472 $542 reversed $351 $-1 #
straight-curve $-1 -70.670957728850411 35.845456119595838 -3.8332843403454833 0 0 -1 I I #
edge $-1 $547 -35.845456119595838 $473 35.845456119595838 $540 $573 forward 7 unknown #
point $-1 -70.670957728850411 35.845456119595838 -6.6375300186154682 #
point $-1 -70.670957728850411 35.845456119595838 -1.0290386620754983 #
coedge $-1 $482 $540 $479 $546 reversed $351 $-1 #
edge $-1 $484 -2.8042456782699849 $547 2.8042456782699849 $545 $574 forward 7 unknown #
vertex $-1 $542 $575 #
straight-curve $-1 -64.61981981721307 -35.845456119595838 -6.6375300186154682 -1 0 0 I I #
straight-curve $-1 -70.670957728850411 0 -1.0290386620754983 0 -1 0 I I #
point $-1 -70.670957728850411 -35.845456119595838 -1.0290386620754983 #
vertex $-1 $490 $576 #
straight-curve $-1 70.670957728850411 0 -6.6375300186154682 0 -1 0 I I #
edge $-1 $493 -2.8042456782699849 $551 2.8042456782699849 $491 $577 forward 7 unknown #
point $-1 70.670957728850411 -35.845456119595838 -1.0290386620754983 #
point $-1 70.670957728850411 35.845456119595838 -1.0290386620754983 #
straight-curve $-1 70.670957728850411 -35.845456119595838 -3.8332843403454833 0 0 -1 I I #
point $-1 70.670957728850411 -35.845456119595838 -6.6375300186154682 #
straight-curve $-1 64.61981981721307 35.845456119595838 -6.6375300186154682 1 0 0 I I #
straight-curve $-1 -32.021645835866323 35.845456119595838 67.285713246203841 0 0 -1 I I #
point $-1 -32.021645835866323 35.845456119595838 10.020034038130987 #
straight-curve $-1 -19.622012979541847 35.845456119595838 5.9612551381265888 -1 0 0 I I #
point $-1 -32.021645835866323 35.845456119595838 5.9612551381265888 #
point $-1 -43.577454033014114 32.087897598560573 6.2936721306937873 #
point $-1 -39.244025959083693 32.087897598560573 6.2936721306937873 #
point $-1 -34.910597885153273 32.087897598560573 6.2936721306937873 #
straight-curve $-1 46.466406082301077 35.845456119595838 67.285713246203841 0 0 -1 I I #
point $-1 46.466406082301077 35.845456119595838 10.020034038130987 #
straight-curve $-1 19.622012979541857 35.845456119595838 5.9612551381265888 -1 0 0 I I #
point $-1 46.466406082301077 35.845456119595838 5.9612551381265888 #
point $-1 34.91059788515328 32.087897598560573 6.2936721306937873 #
point $-1 39.244025959083714 32.087897598560573 6.2936721306937873 #
point $-1 43.577454033014121 32.087897598560573 6.2936721306937873 #
straight-curve $-1 -70.670957728850411 0 -6.6375300186154682 0 1 0 I I #
straight-curve $-1 -70.670957728850411 -35.845456119595838 -3.8332843403454833 0 0 -1 I I #
point $-1 -70.670957728850411 -35.845456119595838 -6.6375300186154682 #
point $-1 70.670957728850411 35.845456119595838 -6.6375300186154682 #
straight-curve $-1 70.670957728850411 35.845456119595838 -3.8332843403454833 0 0 -1 I I #
End-of-ACIS-data 