500 0 9 0           
7 Unknown 11 ACIS 5.0 NT 24 Fri Mar 26 17:05:18 1999 
-1 9.9999999999999995e-007 1e-010 
body $-1 $9 $-1 $10 #
body $-1 $11 $-1 $12 #
body $-1 $13 $-1 $14 #
body $-1 $15 $-1 $16 #
body $-1 $17 $-1 $18 #
body $-1 $19 $-1 $20 #
body $-1 $21 $-1 $22 #
body $-1 $23 $-1 $24 #
body $-1 $25 $-1 $26 #
lump $-1 $-1 $27 $0 #
transform $-1 1 0 0 0 1 0 0 0 1 53.348796044801176 21.769832050375104 5.0633279530965218 1 rotate no_reflect no_shear #
lump $-1 $-1 $28 $1 #
transform $-1 1 0 0 0 1 0 0 0 1 53.348796044801176 21.769832050375104 5.0633279530965218 1 rotate no_reflect no_shear #
lump $-1 $-1 $29 $2 #
transform $-1 1 0 0 0 1 0 0 0 1 53.348796044801176 21.769832050375104 5.0633279530965218 1 rotate no_reflect no_shear #
lump $-1 $-1 $30 $3 #
transform $-1 1 0 0 0 1 0 0 0 1 53.348796044801176 21.769832050375104 5.0633279530965218 1 rotate no_reflect no_shear #
lump $-1 $-1 $31 $4 #
transform $-1 1 0 0 0 1 0 0 0 1 53.348796044801176 21.769832050375104 5.0633279530965218 1 rotate no_reflect no_shear #
lump $-1 $-1 $32 $5 #
transform $-1 1 0 0 0 1 0 0 0 1 53.348796044801176 21.769832050375104 5.0633279530965218 1 rotate no_reflect no_shear #
lump $-1 $-1 $33 $6 #
transform $-1 1 0 0 0 1 0 0 0 1 53.348796044801176 21.769832050375104 5.0633279530965218 1 rotate no_reflect no_shear #
lump $-1 $-1 $34 $7 #
transform $-1 1 0 0 0 1 0 0 0 1 53.348796044801176 21.769832050375104 5.0633279530965218 1 rotate no_reflect no_shear #
lump $-1 $-1 $35 $8 #
transform $-1 1 0 0 0 1 0 0 0 1 53.348796044801176 21.769832050375104 5.0633279530965218 1 rotate no_reflect no_shear #
shell $-1 $-1 $-1 $36 $-1 $9 #
shell $-1 $-1 $-1 $37 $-1 $11 #
shell $-1 $-1 $-1 $38 $-1 $13 #
shell $-1 $-1 $-1 $39 $-1 $15 #
shell $-1 $-1 $-1 $40 $-1 $17 #
shell $-1 $-1 $-1 $41 $-1 $19 #
shell $-1 $-1 $-1 $42 $-1 $21 #
shell $-1 $-1 $-1 $43 $-1 $23 #
shell $-1 $-1 $-1 $44 $-1 $25 #
face $-1 $45 $46 $27 $-1 $47 forward single #
face $-1 $48 $49 $28 $-1 $50 reversed single #
face $-1 $51 $52 $29 $-1 $53 reversed single #
face $-1 $54 $55 $30 $-1 $56 forward single #
face $-1 $57 $58 $31 $-1 $59 forward single #
face $-1 $60 $61 $32 $-1 $62 reversed single #
face $-1 $63 $64 $33 $-1 $65 forward single #
face $-1 $66 $67 $34 $-1 $68 forward single #
face $-1 $69 $70 $35 $-1 $71 forward single #
face $-1 $72 $73 $27 $-1 $74 reversed single #
loop $-1 $-1 $75 $36 #
plane-surface $-1 0 0 5.0633279530965218 0 0 1 1 0 0 forward_v I I I I #
face $-1 $76 $77 $28 $-1 $78 reversed single #
loop $-1 $-1 $79 $37 #
plane-surface $-1 -51.650208445728239 -18.769832050375104 0 0 -1 0 0 0 -1 forward_v I I I I #
face $-1 $80 $81 $29 $-1 $82 reversed single #
loop $-1 $-1 $83 $38 #
plane-surface $-1 -49.951620846655302 47.303452846675356 113.55448709718972 1 0 0 0 -0.57357644374324357 -0.81915203911291934 forward_v I I I I #
face $-1 $84 $85 $30 $-1 $86 forward single #
loop $-1 $87 $88 $39 #
cone-surface $-1 -42.152421131453565 18.593936670998119 2.5464482303713991 0 -0.57357644374324357 -0.81915203911291934 1 0 0 1 I I 0 1 1 forward I I I I #
face $-1 $89 $90 $31 $-1 $91 forward single #
loop $-1 $92 $93 $40 #
cone-surface $-1 -30.453621558650948 18.593936670998119 2.5464482303713991 0 -0.57357644374324357 -0.81915203911291934 1 0 0 1 I I 0 1 1 forward I I I I #
face $-1 $94 $95 $32 $-1 $96 reversed single #
loop $-1 $-1 $97 $41 #
plane-surface $-1 -42.830427368605235 -21.769832050375094 0.05919151206734341 0 -0.51503808176128008 0.85716729658548041 1 0 0 forward_v I I I I #
face $-1 $98 $99 $33 $-1 $100 forward single #
loop $-1 $101 $102 $42 #
cone-surface $-1 -47.10314345543528 -17.033061776225288 1.6082441442795066 0 0.51503808176128008 -0.85716729658548041 1 0 0 1 I I 0 1 1 forward I I I I #
face $-1 $103 $104 $34 $-1 $105 forward single #
loop $-1 $106 $107 $43 #
cone-surface $-1 -42.830427368605243 -17.033061776225288 1.6082441442795066 0 0.51503808176128008 -0.85716729658548041 1 0 0 1 I I 0 1 1 forward I I I I #
face $-1 $108 $109 $35 $-1 $110 forward single #
loop $-1 $111 $112 $44 #
cone-surface $-1 -38.557711281775198 -17.033061776225288 1.6082441442795066 0 0.51503808176128008 -0.85716729658548041 1 0 0 1 I I 0 1 1 forward I I I I #
face $-1 $113 $114 $27 $-1 $115 reversed single #
loop $-1 $-1 $116 $45 #
plane-surface $-1 0 0 -5.0633279530965218 0 0 1 1 0 0 forward_v I I I I #
coedge $-1 $117 $118 $119 $120 forward $46 $-1 #
face $-1 $121 $122 $28 $-1 $123 forward single #
loop $-1 $-1 $124 $48 #
plane-surface $-1 -49.951620846655302 -20.269832050375104 0 -1 0 0 0 0 1 forward_v I I I I #
coedge $-1 $125 $126 $127 $128 forward $49 $-1 #
face $-1 $129 $130 $29 $-1 $131 reversed single #
loop $-1 $-1 $132 $51 #
plane-surface $-1 -36.303021345052258 -13.895772580046 26.152936968553462 0 0.57357644374324357 0.81915203911291934 1 0 0 forward_v I I I I #
coedge $-1 $133 $134 $135 $136 reversed $52 $-1 #
face $-1 $-1 $137 $30 $-1 $138 forward single #
loop $-1 $139 $140 $54 #
cone-surface $-1 -42.152421131453565 17.904514135006796 1.5618508287031858 0 -0.57357644374324357 -0.81915203911291934 0.5 0 0 1 I I -0.70710678118654746 0.70710678118654746 0.5 forward I I I I #
loop $-1 $-1 $141 $39 #
coedge $-1 $88 $88 $142 $143 reversed $55 $-1 #
face $-1 $-1 $144 $31 $-1 $145 forward single #
loop $-1 $146 $147 $57 #
cone-surface $-1 -30.453621558650948 17.904514135006796 1.5618508287031858 0 -0.57357644374324357 -0.81915203911291934 0.5 0 0 1 I I -0.70710678118654746 0.70710678118654746 0.5 forward I I I I #
loop $-1 $-1 $148 $40 #
coedge $-1 $93 $93 $149 $150 reversed $58 $-1 #
face $-1 $151 $152 $32 $-1 $153 reversed single #
loop $-1 $-1 $154 $60 #
plane-surface $-1 -35.709233890555169 -76.723155208751422 91.516878075692134 -1 0 0 0 -0.51503808176128008 0.85716729658548041 forward_v I I I I #
coedge $-1 $155 $156 $157 $158 reversed $61 $-1 #
face $-1 $-1 $159 $33 $-1 $160 forward single #
loop $-1 $161 $162 $63 #
cone-surface $-1 -47.10314345543528 -16.202913188646896 0.22664490768433865 0 0.51503808176128008 -0.85716729658548041 0.5 0 0 1 I I -0.70710678118654746 0.70710678118654746 0.5 forward I I I I #
loop $-1 $-1 $163 $42 #
coedge $-1 $102 $102 $164 $165 reversed $64 $-1 #
face $-1 $-1 $166 $34 $-1 $167 forward single #
loop $-1 $168 $169 $66 #
cone-surface $-1 -42.830427368605243 -16.202913188646896 0.22664490768433865 0 0.51503808176128008 -0.85716729658548041 0.5 0 0 1 I I -0.70710678118654746 0.70710678118654746 0.5 forward I I I I #
loop $-1 $-1 $170 $43 #
coedge $-1 $107 $107 $171 $172 reversed $67 $-1 #
face $-1 $-1 $173 $35 $-1 $174 forward single #
loop $-1 $175 $176 $69 #
cone-surface $-1 -38.557711281775198 -16.202913188646896 0.22664490768433865 0 0.51503808176128008 -0.85716729658548041 0.5 0 0 1 I I -0.70710678118654746 0.70710678118654746 0.5 forward I I I I #
loop $-1 $-1 $177 $44 #
coedge $-1 $112 $112 $178 $179 reversed $70 $-1 #
face $-1 $180 $181 $27 $-1 $182 reversed single #
loop $-1 $-1 $183 $72 #
plane-surface $-1 0 -21.769832050375104 0 0 1 0 0 0 1 forward_v I I I I #
coedge $-1 $184 $185 $186 $187 forward $73 $-1 #
coedge $-1 $188 $75 $189 $190 forward $46 $-1 #
coedge $-1 $75 $188 $191 $192 forward $46 $-1 #
coedge $-1 $193 $194 $75 $120 reversed $195 $-1 #
edge $-1 $196 -21.769832050375104 $197 21.769832050375104 $119 $198 forward 7 unknown #
face $-1 $199 $200 $28 $-1 $201 reversed single #
loop $-1 $-1 $202 $76 #
plane-surface $-1 0 0 5.0633279530965218 0 0 1 1 0 0 forward_v I I I I #
coedge $-1 $203 $204 $205 $206 reversed $77 $-1 #
coedge $-1 $207 $79 $208 $209 reversed $49 $-1 #
coedge $-1 $79 $207 $210 $211 reversed $49 $-1 #
coedge $-1 $204 $203 $79 $128 reversed $77 $-1 #
edge $-1 $212 -5.0633279530965218 $213 5.0633279530965218 $127 $214 forward 7 unknown #
face $-1 $215 $216 $29 $-1 $217 reversed single #
loop $-1 $-1 $218 $80 #
plane-surface $-1 -22.65442184344921 47.303452846675356 113.55448709718972 -1 0 0 0 0.57357644374324357 0.81915203911291934 forward_v I I I I #
coedge $-1 $219 $220 $221 $222 reversed $81 $-1 #
coedge $-1 $134 $83 $223 $224 reversed $52 $-1 #
coedge $-1 $83 $133 $219 $225 reversed $52 $-1 #
coedge $-1 $221 $226 $83 $136 forward $227 $-1 #
edge $-1 $228 1.8818943729625737 $229 7.428416503477127 $135 $230 forward 7 unknown #
loop $-1 $-1 $142 $84 #
plane-surface $-1 -36.303021345052258 -13.895772580046 26.152936968553462 0 0.57357644374324357 0.81915203911291934 1 0 0 forward_v I I I I #
loop $-1 $-1 $231 $54 #
coedge $-1 $140 $140 $141 $232 reversed $85 $-1 #
coedge $-1 $141 $141 $140 $232 forward $87 $-1 #
coedge $-1 $142 $142 $88 $143 forward $137 $-1 #
edge $-1 $233 -1.7449195536988479e-015 $233 6.2831853071795987 $142 $234 forward 7 unknown #
loop $-1 $-1 $149 $89 #
plane-surface $-1 -36.303021345052258 -13.895772580046 26.152936968553462 0 0.57357644374324357 0.81915203911291934 1 0 0 forward_v I I I I #
loop $-1 $-1 $235 $57 #
coedge $-1 $147 $147 $148 $236 reversed $90 $-1 #
coedge $-1 $148 $148 $147 $236 forward $92 $-1 #
coedge $-1 $149 $149 $93 $150 forward $144 $-1 #
edge $-1 $237 -1.7449195536988479e-015 $237 6.2831853071795987 $149 $238 forward 7 unknown #
face $-1 $239 $240 $32 $-1 $241 forward single #
loop $-1 $-1 $157 $94 #
plane-surface $-1 0 -21.769832050375104 0 0 1 0 0 0 1 forward_v I I I I #
coedge $-1 $242 $243 $244 $245 reversed $95 $-1 #
coedge $-1 $246 $97 $247 $248 reversed $61 $-1 #
coedge $-1 $97 $246 $242 $249 forward $61 $-1 #
coedge $-1 $244 $250 $97 $158 forward $152 $-1 #
edge $-1 $251 -28.536407162352685 $252 -14.294020206252551 $157 $253 forward 7 unknown #
loop $-1 $-1 $164 $98 #
plane-surface $-1 -42.830427368605235 -21.769832050375094 0.05919151206734341 0 -0.51503808176128008 0.85716729658548041 1 0 0 forward_v I I I I #
loop $-1 $-1 $254 $63 #
coedge $-1 $162 $162 $163 $255 reversed $99 $-1 #
coedge $-1 $163 $163 $162 $255 forward $101 $-1 #
coedge $-1 $164 $164 $102 $165 forward $159 $-1 #
edge $-1 $256 3.4308428215808822e-015 $256 6.283185307179604 $164 $257 forward 7 unknown #
loop $-1 $-1 $171 $103 #
plane-surface $-1 -42.830427368605235 -21.769832050375094 0.05919151206734341 0 -0.51503808176128008 0.85716729658548041 1 0 0 forward_v I I I I #
loop $-1 $-1 $258 $66 #
coedge $-1 $169 $169 $170 $259 reversed $104 $-1 #
coedge $-1 $170 $170 $169 $259 forward $106 $-1 #
coedge $-1 $171 $171 $107 $172 forward $166 $-1 #
edge $-1 $260 3.4308428215808822e-015 $260 6.283185307179604 $171 $261 forward 7 unknown #
loop $-1 $-1 $178 $108 #
plane-surface $-1 -42.830427368605235 -21.769832050375094 0.05919151206734341 0 -0.51503808176128008 0.85716729658548041 1 0 0 forward_v I I I I #
loop $-1 $-1 $262 $69 #
coedge $-1 $176 $176 $177 $263 reversed $109 $-1 #
coedge $-1 $177 $177 $176 $263 forward $111 $-1 #
coedge $-1 $178 $178 $112 $179 forward $173 $-1 #
edge $-1 $264 3.4308428215808822e-015 $264 6.283185307179604 $178 $265 forward 7 unknown #
face $-1 $266 $267 $27 $-1 $268 reversed single #
loop $-1 $-1 $269 $113 #
plane-surface $-1 -53.348796044801176 0 0 1 0 0 0 0 -1 forward_v I I I I #
coedge $-1 $270 $191 $271 $272 forward $114 $-1 #
coedge $-1 $273 $116 $270 $274 forward $73 $-1 #
coedge $-1 $116 $273 $275 $276 forward $73 $-1 #
coedge $-1 $194 $193 $116 $187 reversed $195 $-1 #
edge $-1 $277 -21.769832050375104 $278 21.769832050375104 $186 $279 forward 7 unknown #
coedge $-1 $118 $117 $280 $281 forward $46 $-1 #
coedge $-1 $282 $283 $117 $190 reversed $267 $-1 #
edge $-1 $197 -53.348796044801176 $284 53.348796044801176 $189 $285 forward 7 unknown #
coedge $-1 $183 $286 $118 $192 reversed $114 $-1 #
edge $-1 $287 -53.348796044801176 $196 53.348796044801176 $191 $288 forward 7 unknown #
coedge $-1 $186 $119 $286 $289 forward $195 $-1 #
coedge $-1 $119 $186 $282 $290 reversed $195 $-1 #
loop $-1 $-1 $193 $266 #
vertex $-1 $120 $291 #
vertex $-1 $120 $292 #
straight-curve $-1 53.348796044801176 0 5.0633279530965218 0 1 0 I I #
face $-1 $293 $294 $28 $-1 $295 reversed single #
loop $-1 $-1 $296 $121 #
plane-surface $-1 -53.348796044801176 0 0 1 0 0 0 0 -1 forward_v I I I I #
coedge $-1 $210 $297 $204 $298 forward $122 $-1 #
coedge $-1 $127 $124 $299 $300 reversed $77 $-1 #
coedge $-1 $124 $127 $202 $298 reversed $77 $-1 #
coedge $-1 $301 $302 $124 $206 forward $303 $-1 #
edge $-1 $304 -5.0633279530965218 $305 5.0633279530965218 $205 $306 forward 7 unknown #
coedge $-1 $126 $125 $296 $307 reversed $49 $-1 #
coedge $-1 $299 $308 $125 $209 forward $294 $-1 #
edge $-1 $309 -27.523691821937057 $213 -24.126516623791183 $208 $310 forward 7 unknown #
coedge $-1 $311 $202 $126 $211 forward $122 $-1 #
edge $-1 $212 24.126516623791183 $312 27.523691821937057 $210 $313 forward 7 unknown #
vertex $-1 $211 $314 #
vertex $-1 $209 $315 #
straight-curve $-1 -49.951620846655302 -18.769832050375104 0 0 0 -1 I I #
face $-1 $-1 $227 $29 $-1 $316 forward single #
loop $-1 $-1 $317 $129 #
plane-surface $-1 0 21.769832050375104 0 0 -1 0 0 0 -1 forward_v I I I I #
coedge $-1 $318 $319 $320 $321 reversed $130 $-1 #
coedge $-1 $322 $132 $134 $225 forward $81 $-1 #
coedge $-1 $132 $322 $318 $323 forward $81 $-1 #
coedge $-1 $320 $135 $132 $222 forward $227 $-1 #
edge $-1 $229 -31.800110174129173 $324 -4.5029111709230811 $221 $325 forward 7 unknown #
coedge $-1 $326 $327 $133 $224 forward $216 $-1 #
edge $-1 $328 -55.597632276725065 $228 -51.713915595498335 $223 $329 forward 7 unknown #
edge $-1 $229 36.768610785029935 $328 43.539664100750201 $134 $330 forward 7 unknown #
coedge $-1 $135 $320 $326 $331 forward $227 $-1 #
loop $-1 $-1 $320 $215 #
vertex $-1 $224 $332 #
vertex $-1 $136 $333 #
straight-curve $-1 -49.951620846655302 23.651726423337678 5.0633279530965254 0 -1 0 I I #
coedge $-1 $231 $231 $-1 $334 reversed $139 $-1 #
edge $-1 $335 0 $335 6.2831853071796004 $140 $336 forward 7 unknown #
vertex $-1 $143 $337 #
ellipse-curve $-1 -42.152421131453565 18.996570985117824 3.1214696124831591 0 0.57357644374324357 0.81915203911291934 1 0 0 1 I I #
coedge $-1 $235 $235 $-1 $338 reversed $146 $-1 #
edge $-1 $339 0 $339 6.2831853071796004 $147 $340 forward 7 unknown #
vertex $-1 $150 $341 #
ellipse-curve $-1 -30.453621558650948 18.996570985117824 3.1214696124831591 0 0.57357644374324357 0.81915203911291934 1 0 0 1 I I #
face $-1 $-1 $342 $32 $-1 $343 forward single #
loop $-1 $-1 $344 $151 #
plane-surface $-1 0 0 5.0633279530965218 0 0 1 1 0 0 forward_v I I I I #
coedge $-1 $243 $154 $156 $249 reversed $95 $-1 #
coedge $-1 $154 $242 $345 $346 reversed $95 $-1 #
coedge $-1 $347 $157 $154 $245 forward $152 $-1 #
edge $-1 $252 -45.699247525778731 $348 -40.695111084749541 $244 $349 forward 7 unknown #
coedge $-1 $156 $155 $350 $351 reversed $61 $-1 #
coedge $-1 $352 $353 $155 $248 forward $342 $-1 #
edge $-1 $354 -9.0884188023393069 $251 0.62763253102326066 $247 $355 forward 7 unknown #
edge $-1 $356 -9.7160513333625556 $252 1.2434422359964834e-014 $242 $357 forward 7 unknown #
coedge $-1 $157 $347 $352 $358 forward $152 $-1 #
vertex $-1 $158 $359 #
vertex $-1 $158 $360 #
straight-curve $-1 -21.415213684302618 -21.769832050375104 0.05919151206733729 1 0 0 I I #
coedge $-1 $254 $254 $-1 $361 reversed $161 $-1 #
edge $-1 $362 0 $362 6.2831853071796004 $162 $363 forward 7 unknown #
vertex $-1 $165 $364 #
ellipse-curve $-1 -47.10314345543528 -17.605691322923036 2.5612597325819273 0 -0.51503808176128008 0.85716729658548041 1 0 0 1 I I #
coedge $-1 $258 $258 $-1 $365 reversed $168 $-1 #
edge $-1 $366 0 $366 6.2831853071796004 $169 $367 forward 7 unknown #
vertex $-1 $172 $368 #
ellipse-curve $-1 -42.830427368605243 -17.605691322923036 2.5612597325819273 0 -0.51503808176128008 0.85716729658548041 1 0 0 1 I I #
coedge $-1 $262 $262 $-1 $369 reversed $175 $-1 #
edge $-1 $370 0 $370 6.2831853071796004 $176 $371 forward 7 unknown #
vertex $-1 $179 $372 #
ellipse-curve $-1 -38.557711281775198 -17.605691322923036 2.5612597325819273 0 -0.51503808176128008 0.85716729658548041 1 0 0 1 I I #
face $-1 $-1 $195 $27 $-1 $373 reversed single #
loop $-1 $-1 $282 $180 #
plane-surface $-1 0 21.769832050375104 0 0 -1 0 0 0 -1 forward_v I I I I #
coedge $-1 $374 $280 $283 $375 forward $181 $-1 #
coedge $-1 $286 $183 $184 $274 reversed $114 $-1 #
coedge $-1 $280 $374 $183 $272 reversed $181 $-1 #
edge $-1 $287 -5.0633279530965218 $376 5.0633279530965218 $271 $377 forward 7 unknown #
coedge $-1 $185 $184 $374 $378 forward $73 $-1 #
edge $-1 $278 -53.348796044801176 $376 53.348796044801176 $270 $379 forward 7 unknown #
coedge $-1 $283 $282 $185 $276 reversed $267 $-1 #
edge $-1 $380 -53.348796044801176 $277 53.348796044801176 $275 $381 forward 7 unknown #
vertex $-1 $187 $382 #
vertex $-1 $289 $383 #
straight-curve $-1 53.348796044801176 0 -5.0633279530965218 0 -1 0 I I #
coedge $-1 $269 $271 $188 $281 reversed $181 $-1 #
edge $-1 $284 -21.769832050375104 $287 21.769832050375104 $280 $384 forward 7 unknown #
coedge $-1 $275 $189 $194 $290 forward $267 $-1 #
coedge $-1 $189 $275 $269 $375 reversed $267 $-1 #
vertex $-1 $190 $385 #
straight-curve $-1 0 21.769832050375104 5.0633279530965218 -1 0 0 I I #
coedge $-1 $191 $270 $193 $289 reversed $114 $-1 #
vertex $-1 $281 $386 #
straight-curve $-1 0 -21.769832050375104 5.0633279530965218 1 0 0 I I #
edge $-1 $196 -5.0633279530965218 $278 5.0633279530965218 $193 $387 forward 7 unknown #
edge $-1 $197 -5.0633279530965218 $277 5.0633279530965218 $194 $388 forward 7 unknown #
point $-1 53.348796044801176 -21.769832050375104 5.0633279530965218 #
point $-1 53.348796044801176 21.769832050375104 5.0633279530965218 #
face $-1 $-1 $303 $28 $-1 $389 reversed single #
loop $-1 $-1 $299 $199 #
plane-surface $-1 0 0 -5.0633279530965218 0 0 1 1 0 0 forward_v I I I I #
coedge $-1 $390 $391 $207 $307 forward $200 $-1 #
coedge $-1 $202 $311 $301 $392 forward $122 $-1 #
edge $-1 $305 -11.634916025187552 $212 -8.6349160251875521 $202 $393 forward 7 unknown #
coedge $-1 $394 $208 $203 $300 forward $294 $-1 #
edge $-1 $213 8.6349160251875521 $304 11.634916025187552 $299 $395 forward 7 unknown #
coedge $-1 $396 $205 $297 $392 reversed $303 $-1 #
coedge $-1 $205 $396 $394 $397 reversed $303 $-1 #
loop $-1 $-1 $205 $293 #
vertex $-1 $397 $398 #
vertex $-1 $206 $399 #
straight-curve $-1 -49.951620846655302 -21.769832050375104 0 0 0 1 I I #
edge $-1 $312 -5.0633279530965218 $309 5.0633279530965218 $296 $400 forward 7 unknown #
coedge $-1 $208 $394 $390 $401 forward $294 $-1 #
vertex $-1 $209 $402 #
straight-curve $-1 -25.82510422286412 -18.769832050375104 -5.0633279530965218 1 0 0 I I #
coedge $-1 $297 $210 $391 $403 forward $122 $-1 #
vertex $-1 $403 $404 #
straight-curve $-1 -25.82510422286412 -18.769832050375104 5.0633279530965218 -1 0 0 I I #
point $-1 -49.951620846655302 -18.769832050375104 5.0633279530965218 #
point $-1 -49.951620846655302 -18.769832050375104 -5.0633279530965218 #
plane-surface $-1 0 0 5.0633279530965218 0 0 1 1 0 0 forward_v I I I I #
coedge $-1 $327 $326 $319 $405 forward $216 $-1 #
coedge $-1 $319 $218 $220 $323 reversed $130 $-1 #
coedge $-1 $218 $318 $317 $405 reversed $130 $-1 #
coedge $-1 $226 $221 $218 $321 forward $227 $-1 #
edge $-1 $324 -7.428416503477127 $406 -1.8818943729625737 $320 $407 forward 7 unknown #
coedge $-1 $220 $219 $327 $408 reversed $81 $-1 #
edge $-1 $409 -43.539664100750201 $324 -36.768610785029935 $318 $410 forward 7 unknown #
vertex $-1 $222 $411 #
straight-curve $-1 -18.151510672526129 16.223309919860547 5.0633279530965218 1 0 0 I I #
coedge $-1 $317 $223 $226 $331 reversed $216 $-1 #
coedge $-1 $223 $317 $322 $408 forward $216 $-1 #
vertex $-1 $224 $412 #
straight-curve $-1 -49.951620846655302 21.769832050375104 56.777243548594861 0 0 1 I I #
straight-curve $-1 -49.951620846655302 -13.895772580046 26.152936968553462 0 0.81915203911291934 -0.57357644374324357 I I #
edge $-1 $406 22.65442184344921 $228 49.951620846655302 $326 $413 forward 7 unknown #
point $-1 -49.951620846655302 21.769832050375104 5.0633279530965218 #
point $-1 -49.951620846655302 16.223309919860551 5.0633279530965218 #
edge $-1 $414 1 $414 0 $231 $-1 forward 7 unknown #
vertex $-1 $232 $415 #
ellipse-curve $-1 -42.152421131453565 18.191302356878417 1.9714268482596455 0 0.57357644374324357 0.81915203911291934 1 0 0 1 I I #
point $-1 -41.152421131453565 18.996570985117817 3.121469612483152 #
edge $-1 $416 1 $416 0 $235 $-1 forward 7 unknown #
vertex $-1 $236 $417 #
ellipse-curve $-1 -30.453621558650948 18.191302356878417 1.9714268482596455 0 0.57357644374324357 0.81915203911291934 1 0 0 1 I I #
point $-1 -29.453621558650948 18.996570985117817 3.121469612483152 #
loop $-1 $-1 $247 $239 #
plane-surface $-1 -49.951620846655302 -20.269832050375104 0 -1 0 0 0 0 1 forward_v I I I I #
coedge $-1 $418 $350 $353 $419 forward $240 $-1 #
coedge $-1 $350 $418 $243 $346 forward $240 $-1 #
edge $-1 $348 16.591745554000607 $356 24.920027008904754 $345 $420 forward 7 unknown #
coedge $-1 $250 $244 $418 $421 reversed $152 $-1 #
vertex $-1 $245 $422 #
straight-curve $-1 -35.709233890555169 -21.769832050375104 45.758439037846067 0 0 1 I I #
coedge $-1 $344 $345 $246 $351 forward $240 $-1 #
edge $-1 $356 14.294020206252551 $354 28.536407162352685 $350 $423 forward 7 unknown #
coedge $-1 $353 $247 $250 $358 reversed $342 $-1 #
coedge $-1 $247 $352 $344 $419 reversed $342 $-1 #
vertex $-1 $351 $424 #
straight-curve $-1 -49.951620846655302 -21.231845970508793 0.38244616689653455 0 -0.85716729658548041 -0.51503808176128008 I I #
vertex $-1 $351 $425 #
straight-curve $-1 -35.709233890555169 -21.769832050375094 0.05919151206734341 0 -0.85716729658548041 -0.51503808176128008 I I #
edge $-1 $426 -5.0633279530965218 $251 -0.059191512067337006 $250 $427 forward 7 unknown #
point $-1 -49.951620846655302 -21.769832050375104 0.059191512067337006 #
point $-1 -35.709233890555169 -21.769832050375104 0.059191512067337006 #
edge $-1 $428 1 $428 0 $254 $-1 forward 7 unknown #
vertex $-1 $255 $429 #
ellipse-curve $-1 -47.10314345543528 -16.460432229527537 0.65522855597707885 0 -0.51503808176128008 0.85716729658548041 1 0 0 1 I I #
point $-1 -46.10314345543528 -17.605691322923036 2.561259732581934 #
edge $-1 $430 1 $430 0 $258 $-1 forward 7 unknown #
vertex $-1 $259 $431 #
ellipse-curve $-1 -42.830427368605243 -16.460432229527537 0.65522855597707885 0 -0.51503808176128008 0.85716729658548041 1 0 0 1 I I #
point $-1 -41.830427368605243 -17.605691322923036 2.561259732581934 #
edge $-1 $432 1 $432 0 $262 $-1 forward 7 unknown #
vertex $-1 $263 $433 #
ellipse-curve $-1 -38.557711281775198 -16.460432229527537 0.65522855597707885 0 -0.51503808176128008 0.85716729658548041 1 0 0 1 I I #
point $-1 -37.557711281775198 -17.605691322923036 2.561259732581934 #
plane-surface $-1 53.348796044801176 0 0 -1 0 0 0 0 1 forward_v I I I I #
coedge $-1 $271 $269 $273 $378 reversed $181 $-1 #
edge $-1 $284 -5.0633279530965218 $380 5.0633279530965218 $283 $434 forward 7 unknown #
vertex $-1 $378 $435 #
straight-curve $-1 -53.348796044801176 -21.769832050375104 0 0 0 -1 I I #
edge $-1 $376 -21.769832050375104 $380 21.769832050375104 $374 $436 forward 7 unknown #
straight-curve $-1 0 -21.769832050375104 -5.0633279530965218 -1 0 0 I I #
vertex $-1 $276 $437 #
straight-curve $-1 0 21.769832050375104 -5.0633279530965218 1 0 0 I I #
point $-1 53.348796044801176 21.769832050375104 -5.0633279530965218 #
point $-1 53.348796044801176 -21.769832050375104 -5.0633279530965218 #
straight-curve $-1 -53.348796044801176 0 5.0633279530965218 0 -1 0 I I #
point $-1 -53.348796044801176 21.769832050375104 5.0633279530965218 #
point $-1 -53.348796044801176 -21.769832050375104 5.0633279530965218 #
straight-curve $-1 53.348796044801176 -21.769832050375104 0 0 0 -1 I I #
straight-curve $-1 53.348796044801176 21.769832050375104 0 0 0 -1 I I #
plane-surface $-1 0 -21.769832050375104 0 0 1 0 0 0 1 forward_v I I I I #
coedge $-1 $438 $296 $308 $401 reversed $200 $-1 #
coedge $-1 $296 $438 $311 $403 reversed $200 $-1 #
edge $-1 $439 -53.348796044801176 $305 -49.951620846655302 $301 $440 forward 7 unknown #
straight-curve $-1 -49.951620846655302 -10.134916025187552 5.0633279530965218 0 1 0 I I #
coedge $-1 $308 $299 $302 $397 forward $294 $-1 #
straight-curve $-1 -49.951620846655302 -10.134916025187552 -5.0633279530965218 0 -1 0 I I #
coedge $-1 $302 $301 $438 $441 forward $303 $-1 #
edge $-1 $304 49.951620846655302 $442 53.348796044801176 $302 $443 forward 7 unknown #
point $-1 -49.951620846655302 -21.769832050375104 -5.0633279530965218 #
point $-1 -49.951620846655302 -21.769832050375104 5.0633279530965218 #
straight-curve $-1 -53.348796044801176 -18.769832050375104 0 0 0 -1 I I #
edge $-1 $442 -21.769832050375104 $309 -18.769832050375104 $390 $444 forward 7 unknown #
point $-1 -53.348796044801176 -18.769832050375104 -5.0633279530965218 #
edge $-1 $312 18.769832050375104 $439 21.769832050375104 $391 $445 forward 7 unknown #
point $-1 -53.348796044801176 -18.769832050375104 5.0633279530965218 #
edge $-1 $406 51.713915595498335 $409 55.597632276725065 $317 $446 forward 7 unknown #
vertex $-1 $331 $447 #
straight-curve $-1 -22.65442184344921 23.651726423337678 5.0633279530965254 0 1 0 I I #
edge $-1 $409 4.5029111709230811 $328 31.800110174129173 $327 $448 forward 7 unknown #
vertex $-1 $408 $449 #
straight-curve $-1 -22.65442184344921 -13.895772580046 26.152936968553462 0 -0.81915203911291934 0.57357644374324357 I I #
point $-1 -22.65442184344921 16.223309919860551 5.0633279530965218 #
point $-1 -49.951620846655302 21.769832050375101 1.179611271869792 #
straight-curve $-1 0 21.769832050375104 5.0633279530965218 -1 0 0 I I #
vertex $-1 $334 $450 #
point $-1 -41.152421131453565 18.191302356878417 1.9714268482596455 #
vertex $-1 $338 $451 #
point $-1 -29.453621558650948 18.191302356878417 1.9714268482596455 #
coedge $-1 $345 $344 $347 $421 forward $240 $-1 #
edge $-1 $354 -24.920027008904754 $426 -16.591745554000607 $344 $452 forward 7 unknown #
straight-curve $-1 -35.709233890555169 -38.361577604375711 5.0633279530965254 0 1 0 I I #
edge $-1 $426 -49.951620846655302 $348 -35.709233890555169 $347 $453 forward 7 unknown #
point $-1 -35.709233890555169 -21.769832050375104 5.0633279530965218 #
straight-curve $-1 -21.415213684302618 -13.441550595470961 5.0633279530965218 -1 0 0 I I #
point $-1 -49.951620846655302 -13.441550595470959 5.0633279530965218 #
point $-1 -35.709233890555169 -13.441550595470959 5.0633279530965218 #
vertex $-1 $421 $454 #
straight-curve $-1 -49.951620846655302 -21.769832050375104 0 0 0 -1 I I #
vertex $-1 $361 $455 #
point $-1 -46.10314345543528 -16.460432229527537 0.65522855597707885 #
vertex $-1 $365 $456 #
point $-1 -41.830427368605243 -16.460432229527537 0.65522855597707885 #
vertex $-1 $369 $457 #
point $-1 -37.557711281775198 -16.460432229527537 0.65522855597707885 #
straight-curve $-1 -53.348796044801176 21.769832050375104 0 0 0 -1 I I #
point $-1 -53.348796044801176 -21.769832050375104 -5.0633279530965218 #
straight-curve $-1 -53.348796044801176 0 -5.0633279530965218 0 1 0 I I #
point $-1 -53.348796044801176 21.769832050375104 -5.0633279530965218 #
coedge $-1 $391 $390 $396 $441 reversed $200 $-1 #
vertex $-1 $403 $458 #
straight-curve $-1 0 -21.769832050375104 5.0633279530965218 1 0 0 I I #
edge $-1 $439 -5.0633279530965218 $442 5.0633279530965218 $438 $459 forward 7 unknown #
vertex $-1 $401 $460 #
straight-curve $-1 0 -21.769832050375104 -5.0633279530965218 -1 0 0 I I #
straight-curve $-1 -53.348796044801176 0 -5.0633279530965218 0 1 0 I I #
straight-curve $-1 -53.348796044801176 0 5.0633279530965218 0 -1 0 I I #
straight-curve $-1 -22.65442184344921 21.769832050375104 56.777243548594861 0 0 -1 I I #
point $-1 -22.65442184344921 21.769832050375104 5.0633279530965218 #
straight-curve $-1 -18.151510672526129 21.769832050375104 1.1796112718697884 -1 0 0 I I #
point $-1 -22.65442184344921 21.769832050375101 1.179611271869792 #
point $-1 -42.152421131453565 17.617725913135175 1.1522748091467261 #
point $-1 -30.453621558650948 17.617725913135175 1.1522748091467261 #
straight-curve $-1 -49.951620846655302 -38.361577604375711 5.0633279530965254 0 -1 0 I I #
straight-curve $-1 0 -21.769832050375104 5.0633279530965218 1 0 0 I I #
point $-1 -49.951620846655302 -21.769832050375104 5.0633279530965218 #
point $-1 -47.10314345543528 -15.945394147766256 -0.20193874060840156 #
point $-1 -42.830427368605243 -15.945394147766256 -0.20193874060840156 #
point $-1 -38.557711281775198 -15.945394147766256 -0.20193874060840156 #
point $-1 -53.348796044801176 -21.769832050375104 5.0633279530965218 #
straight-curve $-1 -53.348796044801176 -21.769832050375104 0 0 0 -1 I I #
point $-1 -53.348796044801176 -21.769832050375104 -5.0633279530965218 #
End-of-ACIS-data 