500 0 14 0           
7 Unknown 11 ACIS 5.0 NT 24 Fri Mar 26 18:50:52 1999 
-1 9.9999999999999995e-007 1e-010 
body $-1 $14 $-1 $15 #
body $-1 $16 $-1 $17 #
body $-1 $18 $-1 $19 #
body $-1 $20 $-1 $21 #
body $-1 $22 $-1 $23 #
body $-1 $24 $-1 $25 #
body $-1 $26 $-1 $27 #
body $-1 $28 $-1 $29 #
body $-1 $30 $-1 $31 #
body $-1 $32 $-1 $33 #
body $-1 $34 $-1 $35 #
body $-1 $36 $-1 $37 #
body $-1 $38 $-1 $39 #
body $-1 $40 $-1 $41 #
lump $-1 $-1 $42 $0 #
transform $-1 1 0 0 0 1 0 0 0 1 49.053010650959806 27.863223836174328 10.52725947117033 1 rotate no_reflect no_shear #
lump $-1 $-1 $43 $1 #
transform $-1 1 0 0 0 1 0 0 0 1 49.053010650959806 27.863223836174328 10.52725947117033 1 rotate no_reflect no_shear #
lump $-1 $-1 $44 $2 #
transform $-1 1 0 0 0 1 0 0 0 1 49.053010650959806 27.863223836174328 10.52725947117033 1 rotate no_reflect no_shear #
lump $-1 $-1 $45 $3 #
transform $-1 1 0 0 0 1 0 0 0 1 49.053010650959806 27.863223836174328 10.52725947117033 1 rotate no_reflect no_shear #
lump $-1 $-1 $46 $4 #
transform $-1 1 0 0 0 1 0 0 0 1 49.053010650959806 27.863223836174328 10.52725947117033 1 rotate no_reflect no_shear #
lump $-1 $-1 $47 $5 #
transform $-1 1 0 0 0 1 0 0 0 1 49.053010650959806 27.863223836174328 10.52725947117033 1 rotate no_reflect no_shear #
lump $-1 $-1 $48 $6 #
transform $-1 1 0 0 0 1 0 0 0 1 49.053010650959806 27.863223836174328 10.52725947117033 1 rotate no_reflect no_shear #
lump $-1 $-1 $49 $7 #
transform $-1 1 0 0 0 1 0 0 0 1 49.053010650959806 27.863223836174328 10.52725947117033 1 rotate no_reflect no_shear #
lump $-1 $-1 $50 $8 #
transform $-1 1 0 0 0 1 0 0 0 1 49.053010650959806 27.863223836174328 10.52725947117033 1 rotate no_reflect no_shear #
lump $-1 $-1 $51 $9 #
transform $-1 1 0 0 0 1 0 0 0 1 49.053010650959806 27.863223836174328 10.52725947117033 1 rotate no_reflect no_shear #
lump $-1 $-1 $52 $10 #
transform $-1 1 0 0 0 1 0 0 0 1 49.053010650959806 27.863223836174328 10.52725947117033 1 rotate no_reflect no_shear #
lump $-1 $-1 $53 $11 #
transform $-1 1 0 0 0 1 0 0 0 1 49.053010650959806 27.863223836174328 10.52725947117033 1 rotate no_reflect no_shear #
lump $-1 $-1 $54 $12 #
transform $-1 1 0 0 0 1 0 0 0 1 49.053010650959806 27.863223836174328 10.52725947117033 1 rotate no_reflect no_shear #
lump $-1 $-1 $55 $13 #
transform $-1 1 0 0 0 1 0 0 0 1 49.053010650959806 27.863223836174328 10.52725947117033 1 rotate no_reflect no_shear #
shell $-1 $-1 $-1 $56 $-1 $14 #
shell $-1 $-1 $-1 $57 $-1 $16 #
shell $-1 $-1 $-1 $58 $-1 $18 #
shell $-1 $-1 $-1 $59 $-1 $20 #
shell $-1 $-1 $-1 $60 $-1 $22 #
shell $-1 $-1 $-1 $61 $-1 $24 #
shell $-1 $-1 $-1 $62 $-1 $26 #
shell $-1 $-1 $-1 $63 $-1 $28 #
shell $-1 $-1 $-1 $64 $-1 $30 #
shell $-1 $-1 $-1 $65 $-1 $32 #
shell $-1 $-1 $-1 $66 $-1 $34 #
shell $-1 $-1 $-1 $67 $-1 $36 #
shell $-1 $-1 $-1 $68 $-1 $38 #
shell $-1 $-1 $-1 $69 $-1 $40 #
face $-1 $70 $71 $42 $-1 $72 forward single #
face $-1 $73 $74 $43 $-1 $75 reversed single #
face $-1 $76 $77 $44 $-1 $78 reversed single #
face $-1 $79 $80 $45 $-1 $81 forward single #
face $-1 $82 $83 $46 $-1 $84 reversed single #
face $-1 $85 $86 $47 $-1 $87 forward single #
face $-1 $88 $89 $48 $-1 $90 reversed single #
face $-1 $91 $92 $49 $-1 $93 forward single #
face $-1 $94 $95 $50 $-1 $96 reversed single #
face $-1 $97 $98 $51 $-1 $99 forward single #
face $-1 $100 $101 $52 $-1 $102 reversed single #
face $-1 $103 $104 $53 $-1 $105 forward single #
face $-1 $106 $107 $54 $-1 $108 reversed single #
face $-1 $109 $110 $55 $-1 $111 forward single #
face $-1 $112 $113 $42 $-1 $114 reversed single #
loop $-1 $-1 $115 $56 #
plane-surface $-1 0 0 10.52725947117033 0 0 1 1 0 0 forward_v I I I I #
face $-1 $116 $117 $43 $-1 $118 reversed single #
loop $-1 $-1 $119 $57 #
plane-surface $-1 -32.382049363471353 -24.192346900939654 0 1 0 0 0 0 -1 forward_v I I I I #
face $-1 $120 $121 $44 $-1 $122 reversed single #
loop $-1 $-1 $123 $58 #
plane-surface $-1 49.05301226073108 -11.209038483471012 138.97373521883517 0 -1 0 -0.70710678939079041 0 -0.70710677298230451 forward_v I I I I #
face $-1 $124 $125 $45 $-1 $126 forward single #
loop $-1 $127 $128 $59 #
cone-surface $-1 42.539297048468214 -14.364746548855194 4.0135457809013539 -0.70710678939079041 0 -0.70710677298230451 1.0606601594734568 0 -1.0606601840861856 1 I I 0 1 1.5 forward I I I I #
face $-1 $129 $130 $46 $-1 $131 reversed single #
loop $-1 $-1 $132 $60 #
plane-surface $-1 49.05301226073108 0.88713496699881578 138.97373521883517 0 -1 0 -0.70710678939079041 0 -0.70710677298230451 forward_v I I I I #
face $-1 $133 $134 $47 $-1 $135 forward single #
loop $-1 $136 $137 $61 #
cone-surface $-1 42.539297048468214 -2.2685730983853674 4.0135457809013539 -0.70710678939079041 0 -0.70710677298230451 1.0606601594734568 0 -1.0606601840861856 1 I I 0 1 1.5 forward I I I I #
face $-1 $138 $139 $48 $-1 $140 reversed single #
loop $-1 $-1 $141 $62 #
plane-surface $-1 49.05301226073108 12.983308417468642 138.97373521883517 0 -1 0 -0.70710678939079041 0 -0.70710677298230451 forward_v I I I I #
face $-1 $142 $143 $49 $-1 $144 forward single #
loop $-1 $145 $146 $63 #
cone-surface $-1 42.539297048468214 9.8276003520844597 4.0135457809013539 -0.70710678939079041 0 -0.70710677298230451 1.0606601594734568 0 -1.0606601840861856 1 I I 0 1 1.5 forward I I I I #
face $-1 $147 $148 $50 $-1 $149 reversed single #
loop $-1 $-1 $150 $64 #
plane-surface $-1 49.05301226073108 25.079481867938469 138.97373521883517 0 -1 0 -0.70710678939079041 0 -0.70710677298230451 forward_v I I I I #
face $-1 $151 $152 $51 $-1 $153 forward single #
loop $-1 $154 $155 $65 #
cone-surface $-1 42.539297048468214 21.923773802554287 4.0135457809013539 -0.70710678939079041 0 -0.70710677298230451 1.0606601594734568 0 -1.0606601840861856 1 I I 0 1 1.5 forward I I I I #
face $-1 $156 $157 $52 $-1 $158 reversed single #
loop $-1 $-1 $159 $66 #
plane-surface $-1 -129.41675935546414 -4.4011187835641934 57.183292279116692 0 1 0 -0.81915205242281985 0 0.57357642473473569 forward_v I I I I #
face $-1 $160 $161 $53 $-1 $162 forward single #
loop $-1 $163 $164 $67 #
cone-surface $-1 -44.384468117043319 -0.36512092416475994 4.8078144602793129 0.81915205242281985 0 -0.57357642473473569 0.57357642473473569 0 0.81915205242281985 1 I I 0 1 1 forward I I I I #
face $-1 $165 $166 $54 $-1 $167 reversed single #
loop $-1 $-1 $168 $68 #
plane-surface $-1 -129.41675935546414 19.791228117375457 57.183292279116692 0 1 0 -0.81915205242281985 0 0.57357642473473569 forward_v I I I I #
face $-1 $169 $170 $55 $-1 $171 forward single #
loop $-1 $172 $173 $69 #
cone-surface $-1 -44.384468117043319 23.827225976774891 4.8078144602793129 0.81915205242281985 0 -0.57357642473473569 0.57357642473473569 0 0.81915205242281985 1 I I 0 1 1 forward I I I I #
face $-1 $174 $175 $42 $-1 $176 reversed single #
loop $-1 $-1 $177 $70 #
plane-surface $-1 0 0 -10.52725947117033 0 0 1 1 0 0 forward_v I I I I #
coedge $-1 $178 $179 $180 $181 forward $71 $-1 #
face $-1 $182 $183 $43 $-1 $184 reversed single #
loop $-1 $-1 $185 $73 #
plane-surface $-1 -30.190270536045247 -20.521469965704981 0 0 -1 0 0 0 -1 forward_v I I I I #
coedge $-1 $186 $187 $188 $189 forward $74 $-1 #
face $-1 $190 $191 $44 $-1 $192 reversed single #
loop $-1 $-1 $193 $76 #
plane-surface $-1 -20.318421481973786 -14.364746548855194 69.602303085901568 0.70710678939079041 0 0.70710677298230451 0.70710677298230451 0 -0.70710678939079041 forward_v I I I I #
coedge $-1 $194 $195 $196 $197 reversed $77 $-1 #
face $-1 $-1 $198 $45 $-1 $199 forward single #
loop $-1 $200 $201 $79 #
cone-surface $-1 40.643448298455951 -14.364746548855194 2.1176970748824591 -0.70710678939079041 0 -0.70710677298230451 0.53033007973672841 0 -0.53033009204309278 1 I I -0.70710678118654757 0.70710678118654757 0.75 forward I I I I #
loop $-1 $-1 $202 $59 #
coedge $-1 $128 $128 $203 $204 reversed $80 $-1 #
face $-1 $205 $206 $46 $-1 $207 reversed single #
loop $-1 $-1 $208 $82 #
plane-surface $-1 -20.318421481973786 -2.2685730983853674 69.602303085901568 0.70710678939079041 0 0.70710677298230451 0.70710677298230451 0 -0.70710678939079041 forward_v I I I I #
coedge $-1 $209 $210 $211 $212 reversed $83 $-1 #
face $-1 $-1 $213 $47 $-1 $214 forward single #
loop $-1 $215 $216 $85 #
cone-surface $-1 40.643448298455951 -2.2685730983853674 2.1176970748824591 -0.70710678939079041 0 -0.70710677298230451 0.53033007973672841 0 -0.53033009204309278 1 I I -0.70710678118654757 0.70710678118654757 0.75 forward I I I I #
loop $-1 $-1 $217 $61 #
coedge $-1 $137 $137 $218 $219 reversed $86 $-1 #
face $-1 $220 $221 $48 $-1 $222 reversed single #
loop $-1 $-1 $223 $88 #
plane-surface $-1 -20.318421481973786 9.8276003520844597 69.602303085901568 0.70710678939079041 0 0.70710677298230451 0.70710677298230451 0 -0.70710678939079041 forward_v I I I I #
coedge $-1 $224 $225 $226 $227 reversed $89 $-1 #
face $-1 $-1 $228 $49 $-1 $229 forward single #
loop $-1 $230 $231 $91 #
cone-surface $-1 40.643448298455951 9.8276003520844597 2.1176970748824591 -0.70710678939079041 0 -0.70710677298230451 0.53033007973672841 0 -0.53033009204309278 1 I I -0.70710678118654757 0.70710678118654757 0.75 forward I I I I #
loop $-1 $-1 $232 $63 #
coedge $-1 $146 $146 $233 $234 reversed $92 $-1 #
face $-1 $235 $236 $50 $-1 $237 reversed single #
loop $-1 $-1 $238 $94 #
plane-surface $-1 -20.318421481973786 21.923773802554287 69.602303085901568 0.70710678939079041 0 0.70710677298230451 0.70710677298230451 0 -0.70710678939079041 forward_v I I I I #
coedge $-1 $239 $240 $241 $242 reversed $95 $-1 #
face $-1 $-1 $243 $51 $-1 $244 forward single #
loop $-1 $245 $246 $97 #
cone-surface $-1 40.643448298455951 21.923773802554287 2.1176970748824591 -0.70710678939079041 0 -0.70710677298230451 0.53033007973672841 0 -0.53033009204309278 1 I I -0.70710678118654757 0.70710678118654757 0.75 forward I I I I #
loop $-1 $-1 $247 $65 #
coedge $-1 $155 $155 $248 $249 reversed $98 $-1 #
face $-1 $250 $251 $52 $-1 $252 reversed single #
loop $-1 $-1 $253 $100 #
plane-surface $-1 -49.053010650959806 -0.36512092416475994 0.91199133581181968 -0.81915205242281985 0 0.57357642473473569 0.57357642473473569 0 0.81915205242281985 forward_v I I I I #
coedge $-1 $254 $255 $256 $257 reversed $101 $-1 #
face $-1 $-1 $258 $53 $-1 $259 forward single #
loop $-1 $260 $261 $103 #
cone-surface $-1 -42.672691070455357 -0.36512092416475994 3.6092153047001769 0.81915205242281985 0 -0.57357642473473569 0.28678821236736785 0 0.40957602621140993 1 I I -0.70710678118654746 0.70710678118654746 0.5 forward I I I I #
loop $-1 $-1 $262 $67 #
coedge $-1 $164 $164 $263 $264 reversed $104 $-1 #
face $-1 $265 $266 $54 $-1 $267 forward single #
loop $-1 $-1 $268 $106 #
plane-surface $-1 -49.053010650959806 23.827225976774891 0.91199133581181968 -0.81915205242281985 0 0.57357642473473569 0.57357642473473569 0 0.81915205242281985 forward_v I I I I #
coedge $-1 $269 $270 $271 $272 reversed $107 $-1 #
face $-1 $-1 $273 $55 $-1 $274 forward single #
loop $-1 $275 $276 $109 #
cone-surface $-1 -42.672691070455357 23.827225976774891 3.6092153047001769 0.81915205242281985 0 -0.57357642473473569 0.28678821236736785 0 0.40957602621140993 1 I I -0.70710678118654746 0.70710678118654746 0.5 forward I I I I #
loop $-1 $-1 $277 $69 #
coedge $-1 $173 $173 $278 $279 reversed $110 $-1 #
face $-1 $280 $281 $42 $-1 $282 reversed single #
loop $-1 $-1 $283 $112 #
plane-surface $-1 0 -27.863223836174328 0 0 1 0 0 0 1 forward_v I I I I #
coedge $-1 $284 $285 $286 $287 forward $113 $-1 #
coedge $-1 $288 $115 $289 $290 forward $71 $-1 #
coedge $-1 $115 $288 $291 $292 forward $71 $-1 #
coedge $-1 $293 $294 $115 $181 reversed $295 $-1 #
edge $-1 $296 -27.863223836174328 $297 27.863223836174328 $180 $298 forward 7 unknown #
face $-1 $299 $300 $43 $-1 $301 forward single #
loop $-1 $-1 $302 $116 #
plane-surface $-1 -27.998491708619145 -24.192346900939654 0 -1 0 0 0 0 1 forward_v I I I I #
coedge $-1 $303 $304 $305 $306 forward $117 $-1 #
coedge $-1 $307 $119 $308 $309 reversed $74 $-1 #
coedge $-1 $119 $307 $310 $311 reversed $74 $-1 #
coedge $-1 $304 $303 $119 $189 reversed $117 $-1 #
edge $-1 $312 -10.52725947117033 $313 10.52725947117033 $188 $314 forward 7 unknown #
face $-1 $315 $316 $44 $-1 $317 reversed single #
loop $-1 $-1 $318 $120 #
plane-surface $-1 49.05301226073108 -17.520454614239377 138.97373521883517 0 1 0 0.70710678939079041 0 0.70710677298230451 forward_v I I I I #
coedge $-1 $319 $320 $321 $322 reversed $121 $-1 #
coedge $-1 $195 $123 $323 $324 reversed $77 $-1 #
coedge $-1 $123 $194 $319 $325 reversed $77 $-1 #
coedge $-1 $321 $326 $123 $197 forward $327 $-1 #
edge $-1 $328 -24.526504520594266 $329 -14.230114631549434 $196 $330 forward 7 unknown #
loop $-1 $-1 $203 $124 #
plane-surface $-1 -20.318421481973786 -14.364746548855194 69.602303085901568 0.70710678939079041 0 0.70710677298230451 0.70710677298230451 0 -0.70710678939079041 forward_v I I I I #
loop $-1 $-1 $331 $79 #
coedge $-1 $201 $201 $202 $332 reversed $125 $-1 #
coedge $-1 $202 $202 $201 $332 forward $127 $-1 #
coedge $-1 $203 $203 $128 $204 forward $198 $-1 #
edge $-1 $333 0 $333 6.2831853071796004 $203 $334 forward 7 unknown #
face $-1 $335 $336 $46 $-1 $337 reversed single #
loop $-1 $-1 $338 $129 #
plane-surface $-1 49.05301226073108 -5.4242811637695505 138.97373521883517 0 1 0 0.70710678939079041 0 0.70710677298230451 forward_v I I I I #
coedge $-1 $339 $340 $341 $342 reversed $130 $-1 #
coedge $-1 $210 $132 $343 $344 reversed $83 $-1 #
coedge $-1 $132 $209 $339 $345 reversed $83 $-1 #
coedge $-1 $341 $346 $132 $212 forward $347 $-1 #
edge $-1 $348 -24.526504520594266 $349 -14.230114631549434 $211 $350 forward 7 unknown #
loop $-1 $-1 $218 $133 #
plane-surface $-1 -20.318421481973786 -2.2685730983853674 69.602303085901568 0.70710678939079041 0 0.70710677298230451 0.70710677298230451 0 -0.70710678939079041 forward_v I I I I #
loop $-1 $-1 $351 $85 #
coedge $-1 $216 $216 $217 $352 reversed $134 $-1 #
coedge $-1 $217 $217 $216 $352 forward $136 $-1 #
coedge $-1 $218 $218 $137 $219 forward $213 $-1 #
edge $-1 $353 0 $353 6.2831853071796004 $218 $354 forward 7 unknown #
face $-1 $355 $356 $48 $-1 $357 reversed single #
loop $-1 $-1 $358 $138 #
plane-surface $-1 49.05301226073108 6.6718922867002766 138.97373521883517 0 1 0 0.70710678939079041 0 0.70710677298230451 forward_v I I I I #
coedge $-1 $359 $360 $361 $362 reversed $139 $-1 #
coedge $-1 $225 $141 $363 $364 reversed $89 $-1 #
coedge $-1 $141 $224 $359 $365 reversed $89 $-1 #
coedge $-1 $361 $366 $141 $227 forward $367 $-1 #
edge $-1 $368 -24.526504520594266 $369 -14.230114631549434 $226 $370 forward 7 unknown #
loop $-1 $-1 $233 $142 #
plane-surface $-1 -20.318421481973786 9.8276003520844597 69.602303085901568 0.70710678939079041 0 0.70710677298230451 0.70710677298230451 0 -0.70710678939079041 forward_v I I I I #
loop $-1 $-1 $371 $91 #
coedge $-1 $231 $231 $232 $372 reversed $143 $-1 #
coedge $-1 $232 $232 $231 $372 forward $145 $-1 #
coedge $-1 $233 $233 $146 $234 forward $228 $-1 #
edge $-1 $373 0 $373 6.2831853071796004 $233 $374 forward 7 unknown #
face $-1 $375 $376 $50 $-1 $377 reversed single #
loop $-1 $-1 $378 $147 #
plane-surface $-1 49.05301226073108 18.768065737170105 138.97373521883517 0 1 0 0.70710678939079041 0 0.70710677298230451 forward_v I I I I #
coedge $-1 $379 $380 $381 $382 reversed $148 $-1 #
coedge $-1 $240 $150 $383 $384 reversed $95 $-1 #
coedge $-1 $150 $239 $379 $385 reversed $95 $-1 #
coedge $-1 $381 $386 $150 $242 forward $387 $-1 #
edge $-1 $388 -24.526504520594266 $389 -14.230114631549434 $241 $390 forward 7 unknown #
loop $-1 $-1 $248 $151 #
plane-surface $-1 -20.318421481973786 21.923773802554287 69.602303085901568 0.70710678939079041 0 0.70710677298230451 0.70710677298230451 0 -0.70710678939079041 forward_v I I I I #
loop $-1 $-1 $391 $97 #
coedge $-1 $246 $246 $247 $392 reversed $152 $-1 #
coedge $-1 $247 $247 $246 $392 forward $154 $-1 #
coedge $-1 $248 $248 $155 $249 forward $243 $-1 #
edge $-1 $393 0 $393 6.2831853071796004 $248 $394 forward 7 unknown #
face $-1 $395 $396 $52 $-1 $397 reversed single #
loop $-1 $-1 $398 $156 #
plane-surface $-1 -129.41675935546414 3.6708769352346735 57.183292279116692 0 -1 0 0.81915205242281985 0 -0.57357642473473569 forward_v I I I I #
coedge $-1 $399 $400 $401 $402 reversed $157 $-1 #
coedge $-1 $255 $159 $403 $404 reversed $101 $-1 #
coedge $-1 $159 $254 $399 $405 reversed $101 $-1 #
coedge $-1 $401 $406 $159 $257 forward $407 $-1 #
edge $-1 $408 15.655369026772263 $409 22.388052053852135 $256 $410 forward 7 unknown #
loop $-1 $-1 $263 $160 #
plane-surface $-1 -49.053010650959806 -0.36512092416475994 0.91199133581181968 -0.81915205242281985 0 0.57357642473473569 0.57357642473473569 0 0.81915205242281985 forward_v I I I I #
loop $-1 $-1 $411 $103 #
coedge $-1 $261 $261 $262 $412 reversed $161 $-1 #
coedge $-1 $262 $262 $261 $412 forward $163 $-1 #
coedge $-1 $263 $263 $164 $264 forward $258 $-1 #
edge $-1 $413 0 $413 6.2831853071796004 $263 $414 forward 7 unknown #
face $-1 $415 $416 $54 $-1 $417 reversed single #
loop $-1 $-1 $271 $165 #
plane-surface $-1 0 0 10.52725947117033 0 0 1 1 0 0 forward_v I I I I #
coedge $-1 $418 $419 $420 $421 reversed $166 $-1 #
coedge $-1 $270 $168 $422 $423 reversed $107 $-1 #
coedge $-1 $168 $269 $418 $424 reversed $107 $-1 #
coedge $-1 $420 $425 $168 $272 forward $266 $-1 #
edge $-1 $426 15.655369026772263 $427 22.388052053852135 $271 $428 forward 7 unknown #
loop $-1 $-1 $278 $169 #
plane-surface $-1 -49.053010650959806 23.827225976774891 0.91199133581181968 -0.81915205242281985 0 0.57357642473473569 0.57357642473473569 0 0.81915205242281985 forward_v I I I I #
loop $-1 $-1 $429 $109 #
coedge $-1 $276 $276 $277 $430 reversed $170 $-1 #
coedge $-1 $277 $277 $276 $430 forward $172 $-1 #
coedge $-1 $278 $278 $173 $279 forward $273 $-1 #
edge $-1 $431 0 $431 6.2831853071796004 $278 $432 forward 7 unknown #
face $-1 $433 $434 $42 $-1 $435 reversed single #
loop $-1 $-1 $436 $174 #
plane-surface $-1 -49.053010650959806 0 0 1 0 0 0 0 -1 forward_v I I I I #
coedge $-1 $437 $291 $438 $439 forward $175 $-1 #
coedge $-1 $440 $177 $437 $441 forward $113 $-1 #
coedge $-1 $177 $440 $442 $443 forward $113 $-1 #
coedge $-1 $294 $293 $177 $287 reversed $295 $-1 #
edge $-1 $444 -27.863223836174328 $445 27.863223836174328 $286 $446 forward 7 unknown #
coedge $-1 $179 $178 $447 $448 forward $71 $-1 #
coedge $-1 $449 $450 $178 $290 reversed $434 $-1 #
edge $-1 $297 -49.053010650959806 $451 49.053010650959806 $289 $452 forward 7 unknown #
coedge $-1 $283 $453 $179 $292 reversed $175 $-1 #
edge $-1 $454 -49.053010650959806 $296 49.053010650959806 $291 $455 forward 7 unknown #
coedge $-1 $286 $180 $453 $456 forward $295 $-1 #
coedge $-1 $180 $286 $449 $457 reversed $295 $-1 #
loop $-1 $-1 $293 $433 #
vertex $-1 $181 $458 #
vertex $-1 $181 $459 #
straight-curve $-1 49.053010650959806 0 10.52725947117033 0 1 0 I I #
face $-1 $460 $461 $43 $-1 $462 reversed single #
loop $-1 $-1 $463 $182 #
plane-surface $-1 0 0 10.52725947117033 0 0 1 1 0 0 forward_v I I I I #
coedge $-1 $464 $465 $466 $467 reversed $183 $-1 #
coedge $-1 $188 $185 $468 $469 reversed $117 $-1 #
coedge $-1 $185 $188 $470 $471 reversed $117 $-1 #
coedge $-1 $465 $464 $185 $306 reversed $183 $-1 #
edge $-1 $472 -10.52725947117033 $473 10.52725947117033 $305 $474 forward 7 unknown #
coedge $-1 $187 $186 $475 $476 reversed $74 $-1 #
coedge $-1 $468 $477 $186 $309 forward $461 $-1 #
edge $-1 $478 -15.767050385704501 $313 -8.4252965152351535 $308 $479 forward 7 unknown #
coedge $-1 $480 $470 $187 $311 forward $300 $-1 #
edge $-1 $312 8.4252965152351535 $481 15.767050385704501 $310 $482 forward 7 unknown #
vertex $-1 $311 $483 #
vertex $-1 $309 $484 #
straight-curve $-1 -32.382049363471353 -20.521469965704981 0 0 0 -1 I I #
face $-1 $-1 $327 $44 $-1 $485 forward single #
loop $-1 $-1 $486 $190 #
plane-surface $-1 49.053010650959806 0 0 -1 0 0 0 0 1 forward_v I I I I #
coedge $-1 $487 $488 $489 $490 reversed $191 $-1 #
coedge $-1 $491 $193 $195 $325 forward $121 $-1 #
coedge $-1 $193 $491 $487 $492 forward $121 $-1 #
coedge $-1 $489 $196 $193 $322 forward $327 $-1 #
edge $-1 $329 4.026665209043415 $493 10.338081339811779 $321 $494 forward 7 unknown #
coedge $-1 $495 $496 $194 $324 forward $316 $-1 #
edge $-1 $497 -69.255998266220885 $328 -58.959608138247255 $323 $498 forward 7 unknown #
edge $-1 $329 83.544726908403035 $497 98.106021301919625 $195 $499 forward 7 unknown #
coedge $-1 $196 $489 $495 $500 forward $327 $-1 #
loop $-1 $-1 $489 $315 #
vertex $-1 $324 $501 #
vertex $-1 $197 $502 #
straight-curve $-1 24.52650613036554 -11.209038483471012 10.527259471170325 -1 0 0 I I #
coedge $-1 $331 $331 $-1 $503 reversed $200 $-1 #
edge $-1 $504 0 $504 6.2831853071796004 $201 $505 forward 7 unknown #
vertex $-1 $204 $506 #
ellipse-curve $-1 43.904815706437383 -14.364746548855194 5.3790644071835221 0.70710678939079041 0 0.70710677298230451 1.0606601594734568 0 -1.0606601840861856 1 I I #
face $-1 $-1 $347 $46 $-1 $507 forward single #
loop $-1 $-1 $508 $205 #
plane-surface $-1 49.053010650959806 0 0 -1 0 0 0 0 1 forward_v I I I I #
coedge $-1 $509 $510 $511 $512 reversed $206 $-1 #
coedge $-1 $513 $208 $210 $345 forward $130 $-1 #
coedge $-1 $208 $513 $509 $514 forward $130 $-1 #
coedge $-1 $511 $211 $208 $342 forward $347 $-1 #
edge $-1 $349 -2.0214215161914995 $515 4.2899946145768668 $341 $516 forward 7 unknown #
coedge $-1 $517 $518 $209 $344 forward $336 $-1 #
edge $-1 $519 -69.255998266220885 $348 -58.959608138247255 $343 $520 forward 7 unknown #
edge $-1 $349 83.544726908403035 $519 98.106021301919625 $210 $521 forward 7 unknown #
coedge $-1 $211 $511 $517 $522 forward $347 $-1 #
loop $-1 $-1 $511 $335 #
vertex $-1 $344 $523 #
vertex $-1 $212 $524 #
straight-curve $-1 24.52650613036554 0.88713496699881578 10.527259471170325 -1 0 0 I I #
coedge $-1 $351 $351 $-1 $525 reversed $215 $-1 #
edge $-1 $526 0 $526 6.2831853071796004 $216 $527 forward 7 unknown #
vertex $-1 $219 $528 #
ellipse-curve $-1 43.904815706437383 -2.2685730983853674 5.3790644071835221 0.70710678939079041 0 0.70710677298230451 1.0606601594734568 0 -1.0606601840861856 1 I I #
face $-1 $-1 $367 $48 $-1 $529 forward single #
loop $-1 $-1 $530 $220 #
plane-surface $-1 49.053010650959806 0 0 -1 0 0 0 0 1 forward_v I I I I #
coedge $-1 $531 $532 $533 $534 reversed $221 $-1 #
coedge $-1 $535 $223 $225 $365 forward $139 $-1 #
coedge $-1 $223 $535 $531 $536 forward $139 $-1 #
coedge $-1 $533 $226 $223 $362 forward $367 $-1 #
edge $-1 $369 -8.0695082414264121 $537 -1.7580921106580467 $361 $538 forward 7 unknown #
coedge $-1 $539 $540 $224 $364 forward $356 $-1 #
edge $-1 $541 -69.255998266220885 $368 -58.959608138247255 $363 $542 forward 7 unknown #
edge $-1 $369 83.544726908403035 $541 98.106021301919625 $225 $543 forward 7 unknown #
coedge $-1 $226 $533 $539 $544 forward $367 $-1 #
loop $-1 $-1 $533 $355 #
vertex $-1 $364 $545 #
vertex $-1 $227 $546 #
straight-curve $-1 24.52650613036554 12.983308417468642 10.527259471170325 -1 0 0 I I #
coedge $-1 $371 $371 $-1 $547 reversed $230 $-1 #
edge $-1 $548 0 $548 6.2831853071796004 $231 $549 forward 7 unknown #
vertex $-1 $234 $550 #
ellipse-curve $-1 43.904815706437383 9.8276003520844597 5.3790644071835221 0.70710678939079041 0 0.70710677298230451 1.0606601594734568 0 -1.0606601840861856 1 I I #
face $-1 $-1 $387 $50 $-1 $551 forward single #
loop $-1 $-1 $552 $235 #
plane-surface $-1 49.053010650959806 0 0 -1 0 0 0 0 1 forward_v I I I I #
coedge $-1 $553 $554 $555 $556 reversed $236 $-1 #
coedge $-1 $557 $238 $240 $385 forward $148 $-1 #
coedge $-1 $238 $557 $553 $558 forward $148 $-1 #
coedge $-1 $555 $241 $238 $382 forward $387 $-1 #
edge $-1 $389 -14.117594966661326 $559 -7.8061788358929611 $381 $560 forward 7 unknown #
coedge $-1 $561 $562 $239 $384 forward $376 $-1 #
edge $-1 $563 -69.255998266220885 $388 -58.959608138247255 $383 $564 forward 7 unknown #
edge $-1 $389 83.544726908403035 $563 98.106021301919625 $240 $565 forward 7 unknown #
coedge $-1 $241 $555 $561 $566 forward $387 $-1 #
loop $-1 $-1 $555 $375 #
vertex $-1 $384 $567 #
vertex $-1 $242 $568 #
straight-curve $-1 24.52650613036554 25.079481867938469 10.527259471170325 -1 0 0 I I #
coedge $-1 $391 $391 $-1 $569 reversed $245 $-1 #
edge $-1 $570 0 $570 6.2831853071796004 $246 $571 forward 7 unknown #
vertex $-1 $249 $572 #
ellipse-curve $-1 43.904815706437383 21.923773802554287 5.3790644071835221 0.70710678939079041 0 0.70710677298230451 1.0606601594734568 0 -1.0606601840861856 1 I I #
face $-1 $-1 $407 $52 $-1 $573 forward single #
loop $-1 $-1 $574 $250 #
plane-surface $-1 -49.053010650959806 0 0 1 0 0 0 0 -1 forward_v I I I I #
coedge $-1 $575 $576 $577 $578 reversed $251 $-1 #
coedge $-1 $579 $253 $255 $405 forward $157 $-1 #
coedge $-1 $253 $579 $575 $580 forward $157 $-1 #
coedge $-1 $577 $256 $253 $402 forward $407 $-1 #
edge $-1 $409 -4.2185583214818134 $581 3.8534373973170535 $401 $582 forward 7 unknown #
coedge $-1 $583 $584 $254 $404 forward $396 $-1 #
edge $-1 $585 -27.679654803746526 $408 -18.064386668388018 $403 $586 forward 7 unknown #
edge $-1 $409 -11.738074887219375 $585 0 $255 $587 forward 7 unknown #
coedge $-1 $256 $577 $583 $588 forward $407 $-1 #
loop $-1 $-1 $577 $395 #
vertex $-1 $404 $589 #
vertex $-1 $257 $590 #
straight-curve $-1 -64.708379677732069 -4.4011187835641934 10.527259471170332 1 0 0 I I #
coedge $-1 $411 $411 $-1 $591 reversed $260 $-1 #
edge $-1 $592 0 $592 6.2831853071796004 $261 $593 forward 7 unknown #
vertex $-1 $264 $594 #
ellipse-curve $-1 -45.686669137419869 -0.36512092416475994 5.7196254034910776 -0.81915205242281985 0 0.57357642473473569 0.57357642473473569 0 0.81915205242281985 1 I I #
face $-1 $-1 $595 $54 $-1 $596 reversed single #
loop $-1 $-1 $597 $265 #
plane-surface $-1 0 27.863223836174328 0 0 -1 0 0 0 -1 forward_v I I I I #
coedge $-1 $598 $268 $270 $424 forward $166 $-1 #
coedge $-1 $268 $598 $597 $599 reversed $166 $-1 #
coedge $-1 $600 $271 $268 $421 forward $266 $-1 #
edge $-1 $427 7.8776151289880119 $601 15.949610847786879 $420 $602 forward 7 unknown #
coedge $-1 $603 $604 $269 $423 forward $595 $-1 #
edge $-1 $605 -27.679654803746526 $426 -18.064386668388018 $422 $606 forward 7 unknown #
edge $-1 $427 -11.738074887219375 $605 0 $270 $607 forward 7 unknown #
coedge $-1 $271 $600 $603 $608 forward $266 $-1 #
vertex $-1 $423 $609 #
vertex $-1 $272 $610 #
straight-curve $-1 -64.708379677732069 19.791228117375457 10.527259471170332 1 0 0 I I #
coedge $-1 $429 $429 $-1 $611 reversed $275 $-1 #
edge $-1 $612 0 $612 6.2831853071796004 $276 $613 forward 7 unknown #
vertex $-1 $279 $614 #
ellipse-curve $-1 -45.686669137419869 23.827225976774891 5.7196254034910776 -0.81915205242281985 0 0.57357642473473569 0.57357642473473569 0 0.81915205242281985 1 I I #
face $-1 $-1 $295 $42 $-1 $615 reversed single #
loop $-1 $-1 $449 $280 #
plane-surface $-1 0 27.863223836174328 0 0 -1 0 0 0 -1 forward_v I I I I #
coedge $-1 $616 $447 $450 $617 forward $281 $-1 #
coedge $-1 $453 $283 $284 $441 reversed $175 $-1 #
coedge $-1 $447 $616 $283 $439 reversed $281 $-1 #
edge $-1 $454 -10.52725947117033 $618 10.52725947117033 $438 $619 forward 7 unknown #
coedge $-1 $285 $284 $616 $620 forward $113 $-1 #
edge $-1 $445 -49.053010650959806 $618 49.053010650959806 $437 $621 forward 7 unknown #
coedge $-1 $450 $449 $285 $443 reversed $434 $-1 #
edge $-1 $622 -49.053010650959806 $444 49.053010650959806 $442 $623 forward 7 unknown #
vertex $-1 $287 $624 #
vertex $-1 $456 $625 #
straight-curve $-1 49.053010650959806 0 -10.52725947117033 0 -1 0 I I #
coedge $-1 $436 $438 $288 $448 reversed $281 $-1 #
edge $-1 $451 -27.863223836174328 $454 27.863223836174328 $447 $626 forward 7 unknown #
coedge $-1 $442 $289 $294 $457 forward $434 $-1 #
coedge $-1 $289 $442 $436 $617 reversed $434 $-1 #
vertex $-1 $290 $627 #
straight-curve $-1 0 27.863223836174328 10.52725947117033 -1 0 0 I I #
coedge $-1 $291 $437 $293 $456 reversed $175 $-1 #
vertex $-1 $448 $628 #
straight-curve $-1 0 -27.863223836174328 10.52725947117033 1 0 0 I I #
edge $-1 $296 -10.52725947117033 $445 10.52725947117033 $293 $629 forward 7 unknown #
edge $-1 $297 -10.52725947117033 $444 10.52725947117033 $294 $630 forward 7 unknown #
point $-1 49.053010650959806 -27.863223836174328 10.52725947117033 #
point $-1 49.053010650959806 27.863223836174328 10.52725947117033 #
face $-1 $-1 $631 $43 $-1 $632 reversed single #
loop $-1 $-1 $633 $299 #
plane-surface $-1 0 0 -10.52725947117033 0 0 1 1 0 0 forward_v I I I I #
coedge $-1 $470 $480 $465 $634 forward $300 $-1 #
coedge $-1 $305 $302 $633 $635 reversed $183 $-1 #
coedge $-1 $302 $305 $463 $634 reversed $183 $-1 #
coedge $-1 $636 $637 $302 $467 forward $631 $-1 #
edge $-1 $638 -10.52725947117033 $639 10.52725947117033 $466 $640 forward 7 unknown #
coedge $-1 $633 $308 $303 $469 forward $461 $-1 #
edge $-1 $313 -17.286914095448729 $473 -12.903356440596522 $468 $641 forward 7 unknown #
coedge $-1 $310 $463 $304 $471 forward $300 $-1 #
edge $-1 $472 12.903356440596522 $312 17.286914095448729 $470 $642 forward 7 unknown #
vertex $-1 $471 $643 #
vertex $-1 $469 $644 #
straight-curve $-1 -27.998491708619145 -20.521469965704981 0 0 0 -1 I I #
coedge $-1 $637 $636 $307 $476 forward $631 $-1 #
edge $-1 $481 -10.52725947117033 $478 10.52725947117033 $475 $645 forward 7 unknown #
coedge $-1 $308 $633 $637 $646 forward $461 $-1 #
vertex $-1 $309 $647 #
straight-curve $-1 -32.382049363471353 -12.096173450469827 -10.52725947117033 0 1 0 I I #
coedge $-1 $463 $310 $636 $648 forward $300 $-1 #
vertex $-1 $648 $649 #
straight-curve $-1 -32.382049363471353 -12.096173450469827 10.52725947117033 0 -1 0 I I #
point $-1 -32.382049363471353 -20.521469965704981 10.52725947117033 #
point $-1 -32.382049363471353 -20.521469965704981 -10.52725947117033 #
plane-surface $-1 0 0 10.52725947117033 0 0 1 1 0 0 forward_v I I I I #
coedge $-1 $496 $495 $488 $650 forward $316 $-1 #
coedge $-1 $488 $318 $320 $492 reversed $191 $-1 #
coedge $-1 $318 $487 $486 $650 reversed $191 $-1 #
coedge $-1 $326 $321 $318 $490 forward $327 $-1 #
edge $-1 $493 14.230114631549434 $651 24.526504520594266 $489 $652 forward 7 unknown #
coedge $-1 $320 $319 $496 $653 reversed $121 $-1 #
edge $-1 $654 -98.106021301919625 $493 -83.544726908403035 $487 $655 forward 7 unknown #
vertex $-1 $322 $656 #
straight-curve $-1 38.756620761914974 -7.1823732744275972 10.527259471170332 0 -1 0 I I #
coedge $-1 $486 $323 $326 $500 reversed $316 $-1 #
coedge $-1 $323 $486 $491 $653 forward $316 $-1 #
vertex $-1 $324 $657 #
straight-curve $-1 49.053010650959806 -11.209038483471012 69.486867609417587 0 0 1 I I #
straight-curve $-1 -20.318421481973786 -11.209038483471012 69.602303085901568 0.70710677298230451 0 -0.70710678939079041 I I #
edge $-1 $651 -17.520454614239377 $328 -11.209038483471012 $495 $658 forward 7 unknown #
point $-1 49.053010650959806 -11.209038483471012 10.52725947117033 #
point $-1 38.756620761914974 -11.209038483471012 10.527259471170332 #
edge $-1 $659 1 $659 0 $331 $-1 forward 7 unknown #
vertex $-1 $332 $660 #
ellipse-curve $-1 41.173778390499045 -14.364746548855194 2.6480271546191876 0.70710678939079041 0 0.70710677298230451 1.0606601594734568 0 -1.0606601840861856 1 I I #
point $-1 44.965475865910832 -14.364746548855194 4.3184042230973354 #
plane-surface $-1 0 0 10.52725947117033 0 0 1 1 0 0 forward_v I I I I #
coedge $-1 $518 $517 $510 $661 forward $336 $-1 #
coedge $-1 $510 $338 $340 $514 reversed $206 $-1 #
coedge $-1 $338 $509 $508 $661 reversed $206 $-1 #
coedge $-1 $346 $341 $338 $512 forward $347 $-1 #
edge $-1 $515 14.230114631549434 $662 24.526504520594266 $511 $663 forward 7 unknown #
coedge $-1 $340 $339 $518 $664 reversed $130 $-1 #
edge $-1 $665 -98.106021301919625 $515 -83.544726908403035 $509 $666 forward 7 unknown #
vertex $-1 $342 $667 #
straight-curve $-1 38.756620761914974 -1.1342865491926837 10.527259471170332 0 -1 0 I I #
coedge $-1 $508 $343 $346 $522 reversed $336 $-1 #
coedge $-1 $343 $508 $513 $664 forward $336 $-1 #
vertex $-1 $344 $668 #
straight-curve $-1 49.053010650959806 0.88713496699881578 69.486867609417587 0 0 1 I I #
straight-curve $-1 -20.318421481973786 0.88713496699881578 69.602303085901568 0.70710677298230451 0 -0.70710678939079041 I I #
edge $-1 $662 -5.4242811637695505 $348 0.88713496699881578 $517 $669 forward 7 unknown #
point $-1 49.053010650959806 0.88713496699881578 10.52725947117033 #
point $-1 38.756620761914974 0.88713496699881578 10.527259471170332 #
edge $-1 $670 1 $670 0 $351 $-1 forward 7 unknown #
vertex $-1 $352 $671 #
ellipse-curve $-1 41.173778390499045 -2.2685730983853674 2.6480271546191876 0.70710678939079041 0 0.70710677298230451 1.0606601594734568 0 -1.0606601840861856 1 I I #
point $-1 44.965475865910832 -2.2685730983853674 4.3184042230973354 #
plane-surface $-1 0 0 10.52725947117033 0 0 1 1 0 0 forward_v I I I I #
coedge $-1 $540 $539 $532 $672 forward $356 $-1 #
coedge $-1 $532 $358 $360 $536 reversed $221 $-1 #
coedge $-1 $358 $531 $530 $672 reversed $221 $-1 #
coedge $-1 $366 $361 $358 $534 forward $367 $-1 #
edge $-1 $537 14.230114631549434 $673 24.526504520594266 $533 $674 forward 7 unknown #
coedge $-1 $360 $359 $540 $675 reversed $139 $-1 #
edge $-1 $676 -98.106021301919625 $537 -83.544726908403035 $531 $677 forward 7 unknown #
vertex $-1 $362 $678 #
straight-curve $-1 38.756620761914974 4.9138001760422299 10.527259471170332 0 -1 0 I I #
coedge $-1 $530 $363 $366 $544 reversed $356 $-1 #
coedge $-1 $363 $530 $535 $675 forward $356 $-1 #
vertex $-1 $364 $679 #
straight-curve $-1 49.053010650959806 12.983308417468642 69.486867609417587 0 0 1 I I #
straight-curve $-1 -20.318421481973786 12.983308417468642 69.602303085901568 0.70710677298230451 0 -0.70710678939079041 I I #
edge $-1 $673 6.6718922867002766 $368 12.983308417468642 $539 $680 forward 7 unknown #
point $-1 49.053010650959806 12.983308417468642 10.52725947117033 #
point $-1 38.756620761914974 12.983308417468642 10.527259471170332 #
edge $-1 $681 1 $681 0 $371 $-1 forward 7 unknown #
vertex $-1 $372 $682 #
ellipse-curve $-1 41.173778390499045 9.8276003520844597 2.6480271546191876 0.70710678939079041 0 0.70710677298230451 1.0606601594734568 0 -1.0606601840861856 1 I I #
point $-1 44.965475865910832 9.8276003520844597 4.3184042230973354 #
plane-surface $-1 0 0 10.52725947117033 0 0 1 1 0 0 forward_v I I I I #
coedge $-1 $562 $561 $554 $683 forward $376 $-1 #
coedge $-1 $554 $378 $380 $558 reversed $236 $-1 #
coedge $-1 $378 $553 $552 $683 reversed $236 $-1 #
coedge $-1 $386 $381 $378 $556 forward $387 $-1 #
edge $-1 $559 14.230114631549434 $684 24.526504520594266 $555 $685 forward 7 unknown #
coedge $-1 $380 $379 $562 $686 reversed $148 $-1 #
edge $-1 $687 -98.106021301919625 $559 -83.544726908403035 $553 $688 forward 7 unknown #
vertex $-1 $382 $689 #
straight-curve $-1 38.756620761914974 10.961886901277143 10.527259471170332 0 -1 0 I I #
coedge $-1 $552 $383 $386 $566 reversed $376 $-1 #
coedge $-1 $383 $552 $557 $686 forward $376 $-1 #
vertex $-1 $384 $690 #
straight-curve $-1 49.053010650959806 25.079481867938469 69.486867609417587 0 0 1 I I #
straight-curve $-1 -20.318421481973786 25.079481867938469 69.602303085901568 0.70710677298230451 0 -0.70710678939079041 I I #
edge $-1 $684 18.768065737170105 $388 25.079481867938469 $561 $691 forward 7 unknown #
point $-1 49.053010650959806 25.079481867938469 10.52725947117033 #
point $-1 38.756620761914974 25.079481867938469 10.527259471170332 #
edge $-1 $692 1 $692 0 $391 $-1 forward 7 unknown #
vertex $-1 $392 $693 #
ellipse-curve $-1 41.173778390499045 21.923773802554287 2.6480271546191876 0.70710678939079041 0 0.70710677298230451 1.0606601594734568 0 -1.0606601840861856 1 I I #
point $-1 44.965475865910832 21.923773802554287 4.3184042230973354 #
plane-surface $-1 0 0 10.52725947117033 0 0 1 1 0 0 forward_v I I I I #
coedge $-1 $584 $583 $576 $694 forward $396 $-1 #
coedge $-1 $576 $398 $400 $580 reversed $251 $-1 #
coedge $-1 $398 $575 $574 $694 reversed $251 $-1 #
coedge $-1 $406 $401 $398 $578 forward $407 $-1 #
edge $-1 $581 -22.388052053852135 $695 -15.655369026772263 $577 $696 forward 7 unknown #
coedge $-1 $400 $399 $584 $697 reversed $157 $-1 #
edge $-1 $698 0 $581 11.738074887219375 $575 $699 forward 7 unknown #
vertex $-1 $402 $700 #
straight-curve $-1 -42.320327623879933 -0.18256046208237997 10.52725947117033 0 1 0 I I #
coedge $-1 $574 $403 $406 $588 reversed $396 $-1 #
coedge $-1 $403 $574 $579 $697 forward $396 $-1 #
vertex $-1 $404 $701 #
straight-curve $-1 -49.053010650959806 -4.4011187835641934 28.591646139558346 0 0 1 I I #
straight-curve $-1 -49.053010650959806 -4.4011187835641934 0.91199133581181968 -0.57357642473473569 0 -0.81915205242281985 I I #
edge $-1 $695 -3.6708769352346735 $408 4.4011187835641934 $583 $702 forward 7 unknown #
point $-1 -49.053010650959806 -4.4011187835641934 10.52725947117033 #
point $-1 -42.320327623879933 -4.4011187835641934 10.52725947117033 #
edge $-1 $703 1 $703 0 $411 $-1 forward 7 unknown #
vertex $-1 $412 $704 #
ellipse-curve $-1 -43.082267096666769 -0.36512092416475994 3.8960035170675447 -0.81915205242281985 0 0.57357642473473569 0.57357642473473569 0 0.81915205242281985 1 I I #
point $-1 -45.113092712685138 -0.36512092416475994 6.5387774559139009 #
loop $-1 $-1 $422 $415 #
plane-surface $-1 -49.053010650959806 0 0 1 0 0 0 0 -1 forward_v I I I I #
coedge $-1 $705 $706 $419 $599 forward $416 $-1 #
coedge $-1 $419 $418 $604 $707 reversed $166 $-1 #
edge $-1 $601 1.9562205613458037 $708 13.694295448565178 $597 $709 forward 7 unknown #
coedge $-1 $425 $420 $706 $710 forward $266 $-1 #
vertex $-1 $710 $711 #
straight-curve $-1 -42.320327623879933 11.913612988387445 10.52725947117033 0 1 0 I I #
coedge $-1 $712 $422 $425 $608 reversed $595 $-1 #
coedge $-1 $422 $712 $598 $707 forward $595 $-1 #
vertex $-1 $423 $713 #
straight-curve $-1 -49.053010650959806 19.791228117375457 28.591646139558346 0 0 1 I I #
straight-curve $-1 -49.053010650959806 19.791228117375457 0.91199133581181968 -0.57357642473473569 0 -0.81915205242281985 I I #
edge $-1 $714 -27.863223836174328 $426 -19.791228117375457 $603 $715 forward 7 unknown #
point $-1 -49.053010650959806 19.791228117375457 10.52725947117033 #
point $-1 -42.320327623879933 19.791228117375457 10.52725947117033 #
edge $-1 $716 1 $716 0 $429 $-1 forward 7 unknown #
vertex $-1 $430 $717 #
ellipse-curve $-1 -43.082267096666769 23.827225976774891 3.8960035170675447 -0.81915205242281985 0 0.57357642473473569 0.57357642473473569 0 0.81915205242281985 1 I I #
point $-1 -45.113092712685138 23.827225976774891 6.5387774559139009 #
plane-surface $-1 49.053010650959806 0 0 -1 0 0 0 0 1 forward_v I I I I #
coedge $-1 $438 $436 $440 $620 reversed $281 $-1 #
edge $-1 $451 -10.52725947117033 $622 10.52725947117033 $450 $718 forward 7 unknown #
vertex $-1 $620 $719 #
straight-curve $-1 -49.053010650959806 -27.863223836174328 0 0 0 -1 I I #
edge $-1 $618 -27.863223836174328 $622 27.863223836174328 $616 $720 forward 7 unknown #
straight-curve $-1 0 -27.863223836174328 -10.52725947117033 -1 0 0 I I #
vertex $-1 $443 $721 #
straight-curve $-1 0 27.863223836174328 -10.52725947117033 1 0 0 I I #
point $-1 49.053010650959806 27.863223836174328 -10.52725947117033 #
point $-1 49.053010650959806 -27.863223836174328 -10.52725947117033 #
straight-curve $-1 -49.053010650959806 0 10.52725947117033 0 -1 0 I I #
point $-1 -49.053010650959806 27.863223836174328 10.52725947117033 #
point $-1 -49.053010650959806 -27.863223836174328 10.52725947117033 #
straight-curve $-1 49.053010650959806 -27.863223836174328 0 0 0 -1 I I #
straight-curve $-1 49.053010650959806 27.863223836174328 0 0 0 -1 I I #
loop $-1 $-1 $466 $460 #
plane-surface $-1 0 -27.863223836174328 0 0 1 0 0 0 1 forward_v I I I I #
coedge $-1 $477 $468 $464 $635 forward $461 $-1 #
edge $-1 $639 -15.767050385704501 $472 -8.4252965152351535 $463 $722 forward 7 unknown #
edge $-1 $473 8.4252965152351535 $638 15.767050385704501 $633 $723 forward 7 unknown #
coedge $-1 $475 $466 $480 $648 reversed $631 $-1 #
coedge $-1 $466 $475 $477 $646 reversed $631 $-1 #
vertex $-1 $646 $724 #
vertex $-1 $467 $725 #
straight-curve $-1 -27.998491708619145 -27.863223836174328 0 0 0 1 I I #
straight-curve $-1 -15.095135268022624 -20.521469965704981 -10.52725947117033 1 0 0 I I #
straight-curve $-1 -15.095135268022624 -20.521469965704981 10.52725947117033 -1 0 0 I I #
point $-1 -27.998491708619145 -20.521469965704981 10.52725947117033 #
point $-1 -27.998491708619145 -20.521469965704981 -10.52725947117033 #
straight-curve $-1 -32.382049363471353 -27.863223836174328 0 0 0 -1 I I #
edge $-1 $638 27.998491708619145 $478 32.382049363471353 $637 $726 forward 7 unknown #
point $-1 -32.382049363471353 -27.863223836174328 -10.52725947117033 #
edge $-1 $481 -32.382049363471353 $639 -27.998491708619145 $636 $727 forward 7 unknown #
point $-1 -32.382049363471353 -27.863223836174328 10.52725947117033 #
edge $-1 $651 58.959608138247255 $654 69.255998266220885 $486 $728 forward 7 unknown #
vertex $-1 $500 $729 #
straight-curve $-1 24.52650613036554 -17.520454614239377 10.527259471170325 1 0 0 I I #
edge $-1 $654 -10.338081339811779 $497 -4.026665209043415 $496 $730 forward 7 unknown #
vertex $-1 $653 $731 #
straight-curve $-1 -20.318421481973786 -17.520454614239377 69.602303085901568 -0.70710677298230451 0 0.70710678939079041 I I #
point $-1 38.756620761914974 -17.520454614239377 10.527259471170332 #
point $-1 49.053010650959806 -11.209038483471012 0.23086934319670149 #
straight-curve $-1 49.053010650959806 0 10.52725947117033 0 1 0 I I #
vertex $-1 $503 $732 #
point $-1 42.234438549972502 -14.364746548855194 1.5873669705330018 #
edge $-1 $662 58.959608138247255 $665 69.255998266220885 $508 $733 forward 7 unknown #
vertex $-1 $522 $734 #
straight-curve $-1 24.52650613036554 -5.4242811637695505 10.527259471170325 1 0 0 I I #
edge $-1 $665 -4.2899946145768668 $519 2.0214215161914995 $518 $735 forward 7 unknown #
vertex $-1 $664 $736 #
straight-curve $-1 -20.318421481973786 -5.4242811637695505 69.602303085901568 -0.70710677298230451 0 0.70710678939079041 I I #
point $-1 38.756620761914974 -5.4242811637695505 10.527259471170332 #
point $-1 49.053010650959806 0.88713496699881578 0.23086934319670149 #
straight-curve $-1 49.053010650959806 0 10.52725947117033 0 1 0 I I #
vertex $-1 $525 $737 #
point $-1 42.234438549972502 -2.2685730983853674 1.5873669705330018 #
edge $-1 $673 58.959608138247255 $676 69.255998266220885 $530 $738 forward 7 unknown #
vertex $-1 $544 $739 #
straight-curve $-1 24.52650613036554 6.6718922867002766 10.527259471170325 1 0 0 I I #
edge $-1 $676 1.7580921106580467 $541 8.0695082414264121 $540 $740 forward 7 unknown #
vertex $-1 $675 $741 #
straight-curve $-1 -20.318421481973786 6.6718922867002766 69.602303085901568 -0.70710677298230451 0 0.70710678939079041 I I #
point $-1 38.756620761914974 6.6718922867002766 10.527259471170332 #
point $-1 49.053010650959806 12.983308417468642 0.23086934319670149 #
straight-curve $-1 49.053010650959806 0 10.52725947117033 0 1 0 I I #
vertex $-1 $547 $742 #
point $-1 42.234438549972502 9.8276003520844597 1.5873669705330018 #
edge $-1 $684 58.959608138247255 $687 69.255998266220885 $552 $743 forward 7 unknown #
vertex $-1 $566 $744 #
straight-curve $-1 24.52650613036554 18.768065737170105 10.527259471170325 1 0 0 I I #
edge $-1 $687 7.8061788358929611 $563 14.117594966661326 $562 $745 forward 7 unknown #
vertex $-1 $686 $746 #
straight-curve $-1 -20.318421481973786 18.768065737170105 69.602303085901568 -0.70710677298230451 0 0.70710678939079041 I I #
point $-1 38.756620761914974 18.768065737170105 10.527259471170332 #
point $-1 49.053010650959806 25.079481867938469 0.23086934319670149 #
straight-curve $-1 49.053010650959806 0 10.52725947117033 0 1 0 I I #
vertex $-1 $569 $747 #
point $-1 42.234438549972502 21.923773802554287 1.5873669705330018 #
edge $-1 $695 18.064386668388018 $698 27.679654803746526 $574 $748 forward 7 unknown #
vertex $-1 $588 $749 #
straight-curve $-1 -64.708379677732069 3.6708769352346735 10.527259471170332 -1 0 0 I I #
edge $-1 $698 -3.8534373973170535 $585 4.2185583214818134 $584 $750 forward 7 unknown #
vertex $-1 $697 $751 #
straight-curve $-1 -49.053010650959806 3.6708769352346735 0.91199133581181968 0.57357642473473569 0 0.81915205242281985 I I #
point $-1 -42.320327623879933 3.6708769352346735 10.52725947117033 #
point $-1 -49.053010650959806 -4.4011187835641934 0.91199133581181968 #
straight-curve $-1 -49.053010650959806 0 10.52725947117033 0 -1 0 I I #
vertex $-1 $591 $752 #
point $-1 -42.50869067193203 -0.36512092416475994 4.7151555694903644 #
coedge $-1 $706 $597 $712 $753 reversed $416 $-1 #
coedge $-1 $597 $705 $600 $710 reversed $416 $-1 #
edge $-1 $708 -15.949610847786879 $605 -7.8776151289880119 $604 $754 forward 7 unknown #
vertex $-1 $599 $755 #
straight-curve $-1 -41.198285628310629 27.863223836174328 12.129701558988465 -0.57357642473473569 0 -0.81915205242281985 I I #
edge $-1 $601 42.320327623879933 $714 49.053010650959806 $706 $756 forward 7 unknown #
point $-1 -42.320327623879933 27.863223836174324 10.52725947117033 #
coedge $-1 $604 $603 $705 $753 forward $595 $-1 #
point $-1 -49.053010650959806 19.791228117375457 0.91199133581181968 #
vertex $-1 $710 $757 #
straight-curve $-1 -49.053010650959806 0 10.52725947117033 0 -1 0 I I #
vertex $-1 $611 $758 #
point $-1 -42.50869067193203 23.827225976774891 4.7151555694903644 #
straight-curve $-1 -49.053010650959806 27.863223836174328 0 0 0 -1 I I #
point $-1 -49.053010650959806 -27.863223836174328 -10.52725947117033 #
straight-curve $-1 -49.053010650959806 0 -10.52725947117033 0 1 0 I I #
point $-1 -49.053010650959806 27.863223836174328 -10.52725947117033 #
straight-curve $-1 -27.998491708619145 -12.096173450469827 10.52725947117033 0 1 0 I I #
straight-curve $-1 -27.998491708619145 -12.096173450469827 -10.52725947117033 0 -1 0 I I #
point $-1 -27.998491708619145 -27.863223836174328 -10.52725947117033 #
point $-1 -27.998491708619145 -27.863223836174328 10.52725947117033 #
straight-curve $-1 0 -27.863223836174328 -10.52725947117033 -1 0 0 I I #
straight-curve $-1 0 -27.863223836174328 10.52725947117033 1 0 0 I I #
straight-curve $-1 49.053010650959806 -17.520454614239377 69.486867609417587 0 0 -1 I I #
point $-1 49.053010650959806 -17.520454614239377 10.52725947117033 #
straight-curve $-1 49.053010650959799 -7.1823732744275972 0.2308693431967086 0 1 0 I I #
point $-1 49.053010650959806 -17.520454614239377 0.23086934319670149 #
point $-1 40.113118206412857 -14.364746548855194 1.5873669951457305 #
straight-curve $-1 49.053010650959806 -5.4242811637695505 69.486867609417587 0 0 -1 I I #
point $-1 49.053010650959806 -5.4242811637695505 10.52725947117033 #
straight-curve $-1 49.053010650959799 -1.1342865491926837 0.2308693431967086 0 1 0 I I #
point $-1 49.053010650959806 -5.4242811637695505 0.23086934319670149 #
point $-1 40.113118206412857 -2.2685730983853674 1.5873669951457305 #
straight-curve $-1 49.053010650959806 6.6718922867002766 69.486867609417587 0 0 -1 I I #
point $-1 49.053010650959806 6.6718922867002766 10.52725947117033 #
straight-curve $-1 49.053010650959799 4.9138001760422299 0.2308693431967086 0 1 0 I I #
point $-1 49.053010650959806 6.6718922867002766 0.23086934319670149 #
point $-1 40.113118206412857 9.8276003520844597 1.5873669951457305 #
straight-curve $-1 49.053010650959806 18.768065737170105 69.486867609417587 0 0 -1 I I #
point $-1 49.053010650959806 18.768065737170105 10.52725947117033 #
straight-curve $-1 49.053010650959799 10.961886901277143 0.2308693431967086 0 1 0 I I #
point $-1 49.053010650959806 18.768065737170105 0.23086934319670149 #
point $-1 40.113118206412857 21.923773802554287 1.5873669951457305 #
straight-curve $-1 -49.053010650959806 3.6708769352346735 28.591646139558346 0 0 -1 I I #
point $-1 -49.053010650959806 3.6708769352346735 10.52725947117033 #
straight-curve $-1 -49.053010650959806 -0.18256046208237997 0.91199133581182323 0 -1 0 I I #
point $-1 -49.053010650959806 3.6708769352346735 0.91199133581181968 #
point $-1 -42.263115044243946 -0.36512092416475994 3.3224270923328092 #
edge $-1 $714 -10.52725947117033 $708 -0.91199133581181968 $705 $759 forward 7 unknown #
straight-curve $-1 -49.053010650959806 11.913612988387445 0.91199133581182323 0 -1 0 I I #
point $-1 -49.053010650959806 27.863223836174324 0.91199133581181968 #
straight-curve $-1 0 27.863223836174328 10.52725947117033 -1 0 0 I I #
point $-1 -49.053010650959806 27.863223836174328 10.52725947117033 #
point $-1 -42.263115044243946 23.827225976774891 3.3224270923328092 #
straight-curve $-1 -49.053010650959806 27.863223836174328 0 0 0 -1 I I #
End-of-ACIS-data 