500 0 5 0           
7 Unknown 11 ACIS 5.0 NT 24 Thu Mar 25 23:51:08 1999 
-1 9.9999999999999995e-007 1e-010 
body $-1 $5 $-1 $6 #
body $-1 $7 $-1 $8 #
body $-1 $9 $-1 $10 #
body $-1 $11 $-1 $12 #
body $-1 $13 $-1 $14 #
lump $-1 $-1 $15 $0 #
transform $-1 1 0 0 0 1 0 0 0 1 44.675435651722772 29.85633991215019 9.4611440009098029 1 rotate no_reflect no_shear #
lump $-1 $-1 $16 $1 #
transform $-1 1 0 0 0 1 0 0 0 1 44.675435651722772 29.85633991215019 9.4611440009098029 1 rotate no_reflect no_shear #
lump $-1 $-1 $17 $2 #
transform $-1 1 0 0 0 1 0 0 0 1 44.675435651722772 29.85633991215019 9.4611440009098029 1 rotate no_reflect no_shear #
lump $-1 $-1 $18 $3 #
transform $-1 1 0 0 0 1 0 0 0 1 44.675435651722772 29.85633991215019 9.4611440009098029 1 rotate no_reflect no_shear #
lump $-1 $-1 $19 $4 #
transform $-1 1 0 0 0 1 0 0 0 1 44.675435651722772 29.85633991215019 9.4611440009098029 1 rotate no_reflect no_shear #
shell $-1 $-1 $-1 $20 $-1 $5 #
shell $-1 $-1 $-1 $21 $-1 $7 #
shell $-1 $-1 $-1 $22 $-1 $9 #
shell $-1 $-1 $-1 $23 $-1 $11 #
shell $-1 $-1 $-1 $24 $-1 $13 #
face $-1 $25 $26 $15 $-1 $27 forward single #
face $-1 $28 $29 $16 $-1 $30 forward single #
face $-1 $31 $32 $17 $-1 $33 reversed single #
face $-1 $34 $35 $18 $-1 $36 forward single #
face $-1 $37 $38 $19 $-1 $39 forward single #
face $-1 $40 $41 $15 $-1 $42 reversed single #
loop $-1 $-1 $43 $20 #
plane-surface $-1 0 0 9.4611440009098029 0 0 1 1 0 0 forward_v I I I I #
face $-1 $44 $45 $16 $-1 $46 reversed single #
loop $-1 $-1 $47 $21 #
plane-surface $-1 -44.675435651722772 0 0 1 0 0 0 0 -1 forward_v I I I I #
face $-1 $48 $49 $17 $-1 $50 reversed single #
loop $-1 $-1 $51 $22 #
plane-surface $-1 5.6608837342788512 -106.44498578275976 48.972923159153034 -1 0 0 0 -0.85716730853699208 0.51503806187062418 forward_v I I I I #
face $-1 $52 $53 $18 $-1 $54 forward single #
loop $-1 $55 $56 $23 #
cone-surface $-1 -10.193041279205289 -26.732447073883097 5.5051398684079764 0 0.85716730853699208 -0.51503806187062418 1.5 0 0 1 I I 0 1 1.5 forward I I I I #
face $-1 $57 $58 $19 $-1 $59 forward single #
loop $-1 $60 $61 $24 #
cone-surface $-1 -0.68068627111481561 -26.732447073883097 5.5051398684079764 0 0.85716730853699208 -0.51503806187062418 1.5 0 0 1 I I 0 1 1.5 forward I I I I #
face $-1 $62 $63 $15 $-1 $64 reversed single #
loop $-1 $-1 $65 $25 #
plane-surface $-1 0 0 -9.4611440009098029 0 0 1 1 0 0 forward_v I I I I #
coedge $-1 $66 $67 $68 $69 forward $26 $-1 #
face $-1 $70 $71 $16 $-1 $72 reversed single #
loop $-1 $-1 $73 $28 #
plane-surface $-1 0 29.85633991215019 0 0 -1 0 0 0 -1 forward_v I I I I #
coedge $-1 $74 $75 $76 $77 forward $29 $-1 #
face $-1 $78 $79 $17 $-1 $80 reversed single #
loop $-1 $-1 $81 $31 #
plane-surface $-1 -5.4368637751600417 -29.856339912150176 2.9538235765748695 0 -0.85716730853699208 0.51503806187062418 1 0 0 forward_v I I I I #
coedge $-1 $82 $83 $84 $85 reversed $32 $-1 #
face $-1 $-1 $86 $18 $-1 $87 forward single #
loop $-1 $88 $89 $34 #
cone-surface $-1 -10.193041279205289 -24.920674976036594 4.4165174016706459 0 0.85716730853699208 -0.51503806187062418 0.75 0 0 1 I I -0.70710678118654757 0.70710678118654757 0.75 forward I I I I #
loop $-1 $-1 $90 $23 #
coedge $-1 $56 $56 $91 $92 reversed $35 $-1 #
face $-1 $-1 $93 $19 $-1 $94 forward single #
loop $-1 $95 $96 $37 #
cone-surface $-1 -0.68068627111481561 -24.920674976036594 4.4165174016706459 0 0.85716730853699208 -0.51503806187062418 0.75 0 0 1 I I -0.70710678118654757 0.70710678118654757 0.75 forward I I I I #
loop $-1 $-1 $97 $24 #
coedge $-1 $61 $61 $98 $99 reversed $38 $-1 #
face $-1 $100 $101 $15 $-1 $102 reversed single #
loop $-1 $-1 $103 $40 #
plane-surface $-1 0 -29.85633991215019 0 0 1 0 0 0 1 forward_v I I I I #
coedge $-1 $104 $105 $106 $107 forward $41 $-1 #
coedge $-1 $108 $43 $109 $110 forward $26 $-1 #
coedge $-1 $43 $108 $111 $112 forward $26 $-1 #
coedge $-1 $113 $114 $43 $69 reversed $115 $-1 #
edge $-1 $116 -29.85633991215019 $117 29.85633991215019 $68 $118 forward 7 unknown #
face $-1 $119 $120 $16 $-1 $121 reversed single #
loop $-1 $-1 $76 $44 #
plane-surface $-1 -49.255175644267418 0 5.7146268382337837 0 0 1 1 0 0 forward_v I I I I #
coedge $-1 $122 $123 $74 $124 forward $45 $-1 #
coedge $-1 $125 $47 $73 $124 reversed $29 $-1 #
coedge $-1 $47 $125 $126 $127 reversed $29 $-1 #
coedge $-1 $128 $129 $47 $77 reversed $71 $-1 #
edge $-1 $130 -29.85633991215019 $131 29.85633991215019 $76 $132 forward 7 unknown #
face $-1 $133 $134 $17 $-1 $135 reversed single #
loop $-1 $-1 $136 $48 #
plane-surface $-1 -16.534611284598935 -106.44498578275976 48.972923159153034 1 0 0 0 0.85716730853699208 -0.51503806187062418 forward_v I I I I #
coedge $-1 $137 $138 $139 $140 reversed $49 $-1 #
coedge $-1 $83 $51 $141 $142 reversed $32 $-1 #
coedge $-1 $51 $82 $137 $143 reversed $32 $-1 #
coedge $-1 $139 $144 $51 $85 forward $145 $-1 #
edge $-1 $146 23.366152979229689 $147 27.276145422876372 $84 $148 forward 7 unknown #
loop $-1 $-1 $91 $52 #
plane-surface $-1 -5.4368637751600417 -29.856339912150176 2.9538235765748695 0 -0.85716730853699208 0.51503806187062418 1 0 0 forward_v I I I I #
loop $-1 $-1 $149 $34 #
coedge $-1 $89 $89 $90 $150 reversed $53 $-1 #
coedge $-1 $90 $90 $89 $150 forward $55 $-1 #
coedge $-1 $91 $91 $56 $92 forward $86 $-1 #
edge $-1 $151 -8.1906068394846559e-016 $151 6.2831853071795996 $91 $152 forward 7 unknown #
loop $-1 $-1 $98 $57 #
plane-surface $-1 -5.4368637751600417 -29.856339912150176 2.9538235765748695 0 -0.85716730853699208 0.51503806187062418 1 0 0 forward_v I I I I #
loop $-1 $-1 $153 $37 #
coedge $-1 $96 $96 $97 $154 reversed $58 $-1 #
coedge $-1 $97 $97 $96 $154 forward $60 $-1 #
coedge $-1 $98 $98 $61 $99 forward $93 $-1 #
edge $-1 $155 -8.1906068394846559e-016 $155 6.2831853071795996 $98 $156 forward 7 unknown #
face $-1 $157 $158 $15 $-1 $159 reversed single #
loop $-1 $-1 $160 $62 #
plane-surface $-1 -44.675435651722772 0 0 1 0 0 0 0 -1 forward_v I I I I #
coedge $-1 $161 $111 $162 $163 forward $63 $-1 #
coedge $-1 $164 $65 $161 $165 forward $41 $-1 #
coedge $-1 $65 $164 $166 $167 forward $41 $-1 #
coedge $-1 $114 $113 $65 $107 reversed $115 $-1 #
edge $-1 $168 -29.85633991215019 $169 29.85633991215019 $106 $170 forward 7 unknown #
coedge $-1 $67 $66 $171 $172 forward $26 $-1 #
coedge $-1 $173 $174 $66 $110 reversed $158 $-1 #
edge $-1 $117 -44.675435651722772 $175 44.675435651722772 $109 $176 forward 7 unknown #
coedge $-1 $103 $177 $67 $112 reversed $63 $-1 #
edge $-1 $178 -44.675435651722772 $116 44.675435651722772 $111 $179 forward 7 unknown #
coedge $-1 $106 $68 $177 $180 forward $115 $-1 #
coedge $-1 $68 $106 $173 $181 reversed $115 $-1 #
loop $-1 $-1 $113 $157 #
vertex $-1 $69 $182 #
vertex $-1 $69 $183 #
straight-curve $-1 44.675435651722772 0 9.4611440009098029 0 1 0 I I #
face $-1 $184 $185 $16 $-1 $186 forward single #
loop $-1 $-1 $187 $70 #
plane-surface $-1 -53.834915636812063 0 7.5878854195717924 1 0 0 0 0 -1 forward_v I I I I #
coedge $-1 $188 $73 $129 $189 reversed $45 $-1 #
coedge $-1 $73 $188 $190 $191 reversed $45 $-1 #
edge $-1 $192 -9.4611440009098029 $131 -5.7146268382337837 $73 $193 forward 7 unknown #
coedge $-1 $75 $74 $194 $195 reversed $29 $-1 #
coedge $-1 $196 $197 $75 $127 forward $198 $-1 #
edge $-1 $130 5.7146268382337837 $199 9.4611440009098029 $126 $200 forward 7 unknown #
coedge $-1 $201 $76 $197 $202 forward $71 $-1 #
coedge $-1 $76 $201 $122 $189 forward $71 $-1 #
vertex $-1 $127 $203 #
vertex $-1 $124 $204 #
straight-curve $-1 -44.675435651722772 0 5.7146268382337837 0 1 0 I I #
face $-1 $-1 $145 $17 $-1 $205 forward single #
loop $-1 $-1 $206 $78 #
plane-surface $-1 0 -29.85633991215019 0 0 1 0 0 0 1 forward_v I I I I #
coedge $-1 $207 $208 $209 $210 reversed $79 $-1 #
coedge $-1 $211 $81 $83 $143 forward $49 $-1 #
coedge $-1 $81 $211 $207 $212 forward $49 $-1 #
coedge $-1 $209 $84 $81 $140 forward $145 $-1 #
edge $-1 $147 -8.379315621858872 $213 13.816179397018914 $139 $214 forward 7 unknown #
coedge $-1 $215 $216 $82 $142 forward $134 $-1 #
edge $-1 $217 -21.532638003001672 $146 -15.025317578666714 $141 $218 forward 7 unknown #
edge $-1 $147 -7.5916572640195401 $217 2.7494044966190042e-014 $83 $219 forward 7 unknown #
coedge $-1 $84 $209 $215 $220 forward $145 $-1 #
loop $-1 $-1 $209 $133 #
vertex $-1 $142 $221 #
vertex $-1 $85 $222 #
straight-curve $-1 5.6608837342788512 -53.222492891379879 9.4611440009098047 0 1 0 I I #
coedge $-1 $149 $149 $-1 $223 reversed $88 $-1 #
edge $-1 $224 0 $224 6.2831853071796004 $89 $225 forward 7 unknown #
vertex $-1 $92 $226 #
ellipse-curve $-1 -10.193041279205289 -27.901343690326843 6.2074837887423309 0 -0.85716730853699208 0.51503806187062418 1.5 0 0 1 I I #
coedge $-1 $153 $153 $-1 $227 reversed $95 $-1 #
edge $-1 $228 0 $228 6.2831853071796004 $96 $229 forward 7 unknown #
vertex $-1 $99 $230 #
ellipse-curve $-1 -0.68068627111481561 -27.901343690326843 6.2074837887423309 0 -0.85716730853699208 0.51503806187062418 1.5 0 0 1 I I #
face $-1 $-1 $115 $15 $-1 $231 reversed single #
loop $-1 $-1 $173 $100 #
plane-surface $-1 0 29.85633991215019 0 0 -1 0 0 0 -1 forward_v I I I I #
coedge $-1 $232 $171 $174 $233 forward $101 $-1 #
coedge $-1 $177 $103 $104 $165 reversed $63 $-1 #
coedge $-1 $171 $232 $103 $163 reversed $101 $-1 #
edge $-1 $178 -9.4611440009098029 $234 9.4611440009098029 $162 $235 forward 7 unknown #
coedge $-1 $105 $104 $232 $236 forward $41 $-1 #
edge $-1 $169 -44.675435651722772 $234 44.675435651722772 $161 $237 forward 7 unknown #
coedge $-1 $174 $173 $105 $167 reversed $158 $-1 #
edge $-1 $238 -44.675435651722772 $168 44.675435651722772 $166 $239 forward 7 unknown #
vertex $-1 $107 $240 #
vertex $-1 $180 $241 #
straight-curve $-1 44.675435651722772 0 -9.4611440009098029 0 -1 0 I I #
coedge $-1 $160 $162 $108 $172 reversed $101 $-1 #
edge $-1 $175 -29.85633991215019 $178 29.85633991215019 $171 $242 forward 7 unknown #
coedge $-1 $166 $109 $114 $181 forward $158 $-1 #
coedge $-1 $109 $166 $160 $233 reversed $158 $-1 #
vertex $-1 $110 $243 #
straight-curve $-1 0 29.85633991215019 9.4611440009098029 -1 0 0 I I #
coedge $-1 $111 $161 $113 $180 reversed $63 $-1 #
vertex $-1 $172 $244 #
straight-curve $-1 0 -29.85633991215019 9.4611440009098029 1 0 0 I I #
edge $-1 $116 -9.4611440009098029 $169 9.4611440009098029 $113 $245 forward 7 unknown #
edge $-1 $117 -9.4611440009098029 $168 9.4611440009098029 $114 $246 forward 7 unknown #
point $-1 44.675435651722772 -29.85633991215019 9.4611440009098029 #
point $-1 44.675435651722772 29.85633991215019 9.4611440009098029 #
face $-1 $-1 $198 $16 $-1 $247 reversed single #
loop $-1 $-1 $194 $119 #
plane-surface $-1 0 0 9.4611440009098029 0 0 1 1 0 0 forward_v I I I I #
coedge $-1 $248 $249 $188 $250 forward $120 $-1 #
coedge $-1 $123 $122 $187 $250 reversed $45 $-1 #
edge $-1 $251 -4.5797399925446456 $131 4.5797399925446456 $122 $252 forward 7 unknown #
coedge $-1 $253 $194 $123 $191 forward $185 $-1 #
edge $-1 $192 44.675435651722772 $254 53.834915636812063 $123 $255 forward 7 unknown #
vertex $-1 $191 $256 #
straight-curve $-1 -44.675435651722772 29.85633991215019 0 0 0 -1 I I #
coedge $-1 $190 $257 $125 $195 forward $185 $-1 #
edge $-1 $199 -29.85633991215019 $192 29.85633991215019 $194 $258 forward 7 unknown #
coedge $-1 $259 $126 $257 $260 reversed $198 $-1 #
coedge $-1 $126 $259 $128 $202 reversed $198 $-1 #
loop $-1 $-1 $126 $184 #
vertex $-1 $127 $261 #
straight-curve $-1 -44.675435651722772 -29.85633991215019 0 0 0 1 I I #
coedge $-1 $129 $128 $248 $262 forward $71 $-1 #
edge $-1 $130 -4.5797399925446456 $263 4.5797399925446456 $197 $264 forward 7 unknown #
point $-1 -44.675435651722772 -29.85633991215019 5.7146268382337837 #
point $-1 -44.675435651722772 29.85633991215019 5.7146268382337837 #
plane-surface $-1 0 0 9.4611440009098029 0 0 1 1 0 0 forward_v I I I I #
coedge $-1 $216 $215 $208 $265 forward $134 $-1 #
coedge $-1 $208 $136 $138 $212 reversed $79 $-1 #
coedge $-1 $136 $207 $206 $265 reversed $79 $-1 #
coedge $-1 $144 $139 $136 $210 forward $145 $-1 #
edge $-1 $213 -27.276145422876372 $266 -23.366152979229689 $209 $267 forward 7 unknown #
coedge $-1 $138 $137 $216 $268 reversed $49 $-1 #
edge $-1 $269 -2.7494044966190042e-014 $213 7.5916572640195401 $207 $270 forward 7 unknown #
vertex $-1 $140 $271 #
straight-curve $-1 -2.7184318875800209 -25.946347468503504 9.4611440009098029 -1 0 0 I I #
coedge $-1 $206 $141 $144 $220 reversed $134 $-1 #
coedge $-1 $141 $206 $211 $268 forward $134 $-1 #
vertex $-1 $142 $272 #
straight-curve $-1 5.6608837342788512 -29.85633991215019 24.486461579576517 0 0 1 I I #
straight-curve $-1 5.6608837342788512 -29.856339912150176 2.9538235765748695 0 -0.51503806187062418 -0.85716730853699208 I I #
edge $-1 $266 -16.534611284598935 $146 5.6608837342788512 $215 $273 forward 7 unknown #
point $-1 5.6608837342788512 -29.85633991215019 9.4611440009098029 #
point $-1 5.6608837342788512 -25.946347468503507 9.4611440009098029 #
edge $-1 $274 1 $274 0 $149 $-1 forward 7 unknown #
vertex $-1 $150 $275 #
ellipse-curve $-1 -10.193041279205289 -25.563550457439337 4.802795948073614 0 -0.85716730853699208 0.51503806187062418 1.5 0 0 1 I I #
point $-1 -8.6930412792052891 -27.901343690326858 6.207483788742338 #
edge $-1 $276 1 $276 0 $153 $-1 forward 7 unknown #
vertex $-1 $154 $277 #
ellipse-curve $-1 -0.68068627111481561 -25.563550457439337 4.802795948073614 0 -0.85716730853699208 0.51503806187062418 1.5 0 0 1 I I #
point $-1 0.81931372888518439 -27.901343690326858 6.207483788742338 #
plane-surface $-1 44.675435651722772 0 0 -1 0 0 0 0 1 forward_v I I I I #
coedge $-1 $162 $160 $164 $236 reversed $101 $-1 #
edge $-1 $175 -9.4611440009098029 $238 9.4611440009098029 $174 $278 forward 7 unknown #
vertex $-1 $236 $279 #
straight-curve $-1 -44.675435651722772 -29.85633991215019 0 0 0 -1 I I #
edge $-1 $234 -29.85633991215019 $238 29.85633991215019 $232 $280 forward 7 unknown #
straight-curve $-1 0 -29.85633991215019 -9.4611440009098029 -1 0 0 I I #
vertex $-1 $167 $281 #
straight-curve $-1 0 29.85633991215019 -9.4611440009098029 1 0 0 I I #
point $-1 44.675435651722772 29.85633991215019 -9.4611440009098029 #
point $-1 44.675435651722772 -29.85633991215019 -9.4611440009098029 #
straight-curve $-1 -44.675435651722772 0 9.4611440009098029 0 -1 0 I I #
point $-1 -44.675435651722772 29.85633991215019 9.4611440009098029 #
point $-1 -44.675435651722772 -29.85633991215019 9.4611440009098029 #
straight-curve $-1 44.675435651722772 -29.85633991215019 0 0 0 -1 I I #
straight-curve $-1 44.675435651722772 29.85633991215019 0 0 0 -1 I I #
plane-surface $-1 0 -29.85633991215019 0 0 1 0 0 0 1 forward_v I I I I #
coedge $-1 $282 $187 $201 $262 reversed $120 $-1 #
coedge $-1 $187 $282 $253 $283 reversed $120 $-1 #
edge $-1 $254 -1.8732585813380087 $251 1.8732585813380087 $188 $284 forward 7 unknown #
vertex $-1 $189 $285 #
straight-curve $-1 -49.255175644267418 29.85633991215019 5.7146268382337837 1 0 0 I I #
coedge $-1 $257 $190 $249 $283 forward $185 $-1 #
vertex $-1 $191 $286 #
straight-curve $-1 0 29.85633991215019 9.4611440009098029 -1 0 0 I I #
point $-1 -44.675435651722772 29.85633991215019 9.4611440009098029 #
coedge $-1 $194 $253 $196 $260 forward $185 $-1 #
straight-curve $-1 -44.675435651722772 0 9.4611440009098029 0 1 0 I I #
coedge $-1 $197 $196 $282 $287 forward $198 $-1 #
edge $-1 $288 -53.834915636812063 $199 -44.675435651722772 $196 $289 forward 7 unknown #
point $-1 -44.675435651722772 -29.85633991215019 9.4611440009098029 #
edge $-1 $263 -29.85633991215019 $251 29.85633991215019 $248 $290 forward 7 unknown #
vertex $-1 $262 $291 #
straight-curve $-1 -49.255175644267418 -29.85633991215019 5.7146268382337837 -1 0 0 I I #
edge $-1 $266 15.025317578666714 $269 21.532638003001672 $206 $292 forward 7 unknown #
vertex $-1 $220 $293 #
straight-curve $-1 -16.534611284598935 -53.222492891379879 9.4611440009098047 0 -1 0 I I #
edge $-1 $269 -13.816179397018914 $217 8.379315621858872 $216 $294 forward 7 unknown #
vertex $-1 $268 $295 #
straight-curve $-1 -16.534611284598935 -29.856339912150176 2.9538235765748695 0 0.51503806187062418 0.85716730853699208 I I #
point $-1 -16.534611284598935 -25.946347468503507 9.4611440009098029 #
point $-1 5.6608837342788512 -29.85633991215019 2.953823576574846 #
straight-curve $-1 0 -29.85633991215019 9.4611440009098029 1 0 0 I I #
vertex $-1 $223 $296 #
point $-1 -8.6930412792052891 -25.563550457439337 4.802795948073614 #
vertex $-1 $227 $297 #
point $-1 0.81931372888518439 -25.563550457439337 4.802795948073614 #
straight-curve $-1 -44.675435651722772 29.85633991215019 0 0 0 -1 I I #
point $-1 -44.675435651722772 -29.85633991215019 -9.4611440009098029 #
straight-curve $-1 -44.675435651722772 0 -9.4611440009098029 0 1 0 I I #
point $-1 -44.675435651722772 29.85633991215019 -9.4611440009098029 #
coedge $-1 $249 $248 $259 $287 reversed $120 $-1 #
edge $-1 $254 -29.85633991215019 $288 29.85633991215019 $249 $298 forward 7 unknown #
straight-curve $-1 -53.834915636812063 29.85633991215019 7.5878854195717924 0 0 -1 I I #
point $-1 -53.834915636812063 29.85633991215019 5.7146268382337837 #
point $-1 -53.834915636812063 29.85633991215019 9.4611440009098011 #
edge $-1 $288 -1.8732585813380087 $263 1.8732585813380087 $282 $299 forward 7 unknown #
vertex $-1 $283 $300 #
straight-curve $-1 0 -29.85633991215019 9.4611440009098029 1 0 0 I I #
straight-curve $-1 -53.834915636812063 0 5.7146268382337837 0 1 0 I I #
point $-1 -53.834915636812063 -29.85633991215019 5.7146268382337837 #
straight-curve $-1 -16.534611284598935 -29.85633991215019 24.486461579576517 0 0 -1 I I #
point $-1 -16.534611284598935 -29.85633991215019 9.4611440009098029 #
straight-curve $-1 -2.7184318875800209 -29.85633991215019 2.9538235765748473 1 0 0 I I #
point $-1 -16.534611284598935 -29.85633991215019 2.953823576574846 #
point $-1 -10.193041279205289 -24.27779949463385 4.0302388552676778 #
point $-1 -0.68068627111481561 -24.27779949463385 4.0302388552676778 #
straight-curve $-1 -53.834915636812063 0 9.4611440009098011 0 -1 0 I I #
straight-curve $-1 -53.834915636812063 -29.85633991215019 7.5878854195717924 0 0 -1 I I #
point $-1 -53.834915636812063 -29.85633991215019 9.4611440009098011 #
End-of-ACIS-data 