500 0 7 0           
7 Unknown 11 ACIS 5.0 NT 24 Fri Mar 26 19:35:21 1999 
-1 9.9999999999999995e-007 1e-010 
body $-1 $7 $-1 $8 #
body $-1 $9 $-1 $10 #
body $-1 $11 $-1 $12 #
body $-1 $13 $-1 $14 #
body $-1 $15 $-1 $16 #
body $-1 $17 $-1 $18 #
body $-1 $19 $-1 $20 #
lump $-1 $-1 $21 $0 #
transform $-1 1 0 0 0 1 0 0 0 1 66.607257301553389 31.532489904878584 15.455029179398192 1 rotate no_reflect no_shear #
lump $-1 $-1 $22 $1 #
transform $-1 1 0 0 0 1 0 0 0 1 66.607257301553389 31.532489904878584 15.455029179398192 1 rotate no_reflect no_shear #
lump $-1 $-1 $23 $2 #
transform $-1 1 0 0 0 1 0 0 0 1 66.607257301553389 31.532489904878584 15.455029179398192 1 rotate no_reflect no_shear #
lump $-1 $-1 $24 $3 #
transform $-1 1 0 0 0 1 0 0 0 1 66.607257301553389 31.532489904878584 15.455029179398192 1 rotate no_reflect no_shear #
lump $-1 $-1 $25 $4 #
transform $-1 1 0 0 0 1 0 0 0 1 66.607257301553389 31.532489904878584 15.455029179398192 1 rotate no_reflect no_shear #
lump $-1 $-1 $26 $5 #
transform $-1 1 0 0 0 1 0 0 0 1 66.607257301553389 31.532489904878584 15.455029179398192 1 rotate no_reflect no_shear #
lump $-1 $-1 $27 $6 #
transform $-1 1 0 0 0 1 0 0 0 1 66.607257301553389 31.532489904878584 15.455029179398192 1 rotate no_reflect no_shear #
shell $-1 $-1 $-1 $28 $-1 $7 #
shell $-1 $-1 $-1 $29 $-1 $9 #
shell $-1 $-1 $-1 $30 $-1 $11 #
shell $-1 $-1 $-1 $31 $-1 $13 #
shell $-1 $-1 $-1 $32 $-1 $15 #
shell $-1 $-1 $-1 $33 $-1 $17 #
shell $-1 $-1 $-1 $34 $-1 $19 #
face $-1 $35 $36 $21 $-1 $37 forward single #
face $-1 $38 $39 $22 $-1 $40 forward single #
face $-1 $41 $42 $23 $-1 $43 reversed single #
face $-1 $44 $45 $24 $-1 $46 forward single #
face $-1 $47 $48 $25 $-1 $49 forward single #
face $-1 $50 $51 $26 $-1 $52 reversed single #
face $-1 $53 $54 $27 $-1 $55 forward single #
face $-1 $56 $57 $21 $-1 $58 reversed single #
loop $-1 $-1 $59 $28 #
plane-surface $-1 0 0 15.455029179398192 0 0 1 1 0 0 forward_v I I I I #
face $-1 $60 $61 $22 $-1 $62 reversed single #
loop $-1 $-1 $63 $29 #
plane-surface $-1 -66.607257301553389 0 0 1 0 0 0 0 -1 forward_v I I I I #
face $-1 $64 $65 $23 $-1 $66 reversed single #
loop $-1 $-1 $67 $30 #
plane-surface $-1 -28.645925392089723 -111.70298710988205 117.24879284991417 -1 0 0 0 -0.6018150307709319 0.79863550430605224 forward_v I I I I #
face $-1 $68 $69 $24 $-1 $70 forward single #
loop $-1 $71 $72 $31 #
cone-surface $-1 -45.542343184358472 -28.006132073881407 12.524311866768931 0 0.6018150307709319 -0.79863550430605224 1 0 0 1 I I 0 1 1 forward I I I I #
face $-1 $73 $74 $25 $-1 $75 forward single #
loop $-1 $76 $77 $32 #
cone-surface $-1 -35.404492508997222 -28.006132073881407 12.524311866768931 0 0.6018150307709319 -0.79863550430605224 1 0 0 1 I I 0 1 1 forward I I I I #
face $-1 $78 $79 $26 $-1 $80 reversed single #
loop $-1 $-1 $81 $33 #
plane-surface $-1 21.147383021306659 58.813377908303067 149.83724264128023 1 0 0 0 -0.5877852598018023 -0.80901698891910034 forward_v I I I I #
face $-1 $82 $83 $27 $-1 $84 forward single #
loop $-1 $85 $86 $34 #
cone-surface $-1 34.423895261770994 23.421695738918544 8.9690007415374993 0 -0.5877852598018023 -0.80901698891910034 2 0 0 1 I I 0 1 2 forward I I I I #
face $-1 $87 $88 $21 $-1 $89 reversed single #
loop $-1 $-1 $90 $35 #
plane-surface $-1 0 0 -15.455029179398192 0 0 1 1 0 0 forward_v I I I I #
coedge $-1 $91 $92 $93 $94 forward $36 $-1 #
face $-1 $95 $96 $22 $-1 $97 forward single #
loop $-1 $-1 $98 $38 #
plane-surface $-1 0 31.532489904878584 0 0 -1 0 0 0 -1 forward_v I I I I #
coedge $-1 $99 $100 $101 $102 forward $39 $-1 #
face $-1 $103 $104 $23 $-1 $105 reversed single #
loop $-1 $-1 $106 $41 #
plane-surface $-1 -40.473417846677847 -31.532489904878588 10.858951798976022 0 -0.6018150307709319 0.79863550430605224 1 0 0 forward_v I I I I #
coedge $-1 $107 $108 $109 $110 reversed $42 $-1 #
face $-1 $-1 $111 $24 $-1 $112 forward single #
loop $-1 $113 $114 $44 #
cone-surface $-1 -45.542343184358472 -27.228467010696271 11.492315492197726 0 0.6018150307709319 -0.79863550430605224 0.5 0 0 1 I I -0.70710678118654746 0.70710678118654746 0.5 forward I I I I #
loop $-1 $-1 $115 $31 #
coedge $-1 $72 $72 $116 $117 reversed $45 $-1 #
face $-1 $-1 $118 $25 $-1 $119 forward single #
loop $-1 $120 $121 $47 #
cone-surface $-1 -35.404492508997222 -27.228467010696271 11.492315492197726 0 0.6018150307709319 -0.79863550430605224 0.5 0 0 1 I I -0.70710678118654746 0.70710678118654746 0.5 forward I I I I #
loop $-1 $-1 $122 $32 #
coedge $-1 $77 $77 $123 $124 reversed $48 $-1 #
face $-1 $125 $126 $26 $-1 $127 reversed single #
loop $-1 $-1 $128 $50 #
plane-surface $-1 34.423895261770994 -19.488150167055039 42.064437156755261 0 0.5877852598018023 0.80901698891910034 1 0 0 forward_v I I I I #
coedge $-1 $129 $130 $131 $132 reversed $51 $-1 #
face $-1 $-1 $133 $27 $-1 $134 forward single #
loop $-1 $135 $136 $53 #
cone-surface $-1 34.423895261770994 21.921082679332375 6.9035840970159263 0 -0.5877852598018023 -0.80901698891910034 1 0 0 1 I I -0.70710678118654746 0.70710678118654746 1 forward I I I I #
loop $-1 $-1 $137 $34 #
coedge $-1 $86 $86 $138 $139 reversed $54 $-1 #
face $-1 $140 $141 $21 $-1 $142 reversed single #
loop $-1 $-1 $143 $56 #
plane-surface $-1 0 -31.532489904878584 0 0 1 0 0 0 1 forward_v I I I I #
coedge $-1 $144 $145 $146 $147 forward $57 $-1 #
coedge $-1 $148 $59 $149 $150 forward $36 $-1 #
coedge $-1 $59 $148 $151 $152 forward $36 $-1 #
coedge $-1 $153 $154 $59 $94 reversed $155 $-1 #
edge $-1 $156 -31.532489904878584 $157 31.532489904878584 $93 $158 forward 7 unknown #
face $-1 $159 $160 $22 $-1 $161 reversed single #
loop $-1 $-1 $101 $60 #
plane-surface $-1 -73.760430801697098 0 -7.9833925562454233 0 0 1 1 0 0 forward_v I I I I #
coedge $-1 $162 $163 $100 $164 forward $61 $-1 #
coedge $-1 $165 $63 $166 $167 reversed $39 $-1 #
coedge $-1 $63 $165 $98 $164 reversed $39 $-1 #
coedge $-1 $168 $169 $63 $102 reversed $96 $-1 #
edge $-1 $170 -31.532489904878584 $171 31.532489904878584 $101 $172 forward 7 unknown #
face $-1 $173 $174 $23 $-1 $175 reversed single #
loop $-1 $-1 $176 $64 #
plane-surface $-1 -52.300910301265972 -111.70298710988205 117.24879284991417 1 0 0 0 0.6018150307709319 -0.79863550430605224 forward_v I I I I #
coedge $-1 $177 $178 $179 $180 reversed $65 $-1 #
coedge $-1 $108 $67 $181 $182 reversed $42 $-1 #
coedge $-1 $67 $107 $177 $183 reversed $42 $-1 #
coedge $-1 $179 $184 $67 $110 forward $185 $-1 #
edge $-1 $186 24.319003650062438 $187 30.418204216457447 $109 $188 forward 7 unknown #
loop $-1 $-1 $116 $68 #
plane-surface $-1 -40.473417846677847 -31.532489904878588 10.858951798976022 0 -0.6018150307709319 0.79863550430605224 1 0 0 forward_v I I I I #
loop $-1 $-1 $189 $44 #
coedge $-1 $114 $114 $115 $190 reversed $69 $-1 #
coedge $-1 $115 $115 $114 $190 forward $71 $-1 #
coedge $-1 $116 $116 $72 $117 forward $111 $-1 #
edge $-1 $191 -2.8373232805238481e-015 $191 6.2831853071795978 $116 $192 forward 7 unknown #
loop $-1 $-1 $123 $73 #
plane-surface $-1 -40.473417846677847 -31.532489904878588 10.858951798976022 0 -0.6018150307709319 0.79863550430605224 1 0 0 forward_v I I I I #
loop $-1 $-1 $193 $47 #
coedge $-1 $121 $121 $122 $194 reversed $74 $-1 #
coedge $-1 $122 $122 $121 $194 forward $76 $-1 #
coedge $-1 $123 $123 $77 $124 forward $118 $-1 #
edge $-1 $195 -2.8373232805238481e-015 $195 6.2831853071795978 $123 $196 forward 7 unknown #
face $-1 $197 $198 $26 $-1 $199 forward single #
loop $-1 $-1 $200 $78 #
plane-surface $-1 47.700407502235329 58.813377908303067 149.83724264128023 -1 0 0 0 0.5877852598018023 0.80901698891910034 forward_v I I I I #
coedge $-1 $201 $202 $203 $204 reversed $79 $-1 #
coedge $-1 $130 $81 $205 $206 reversed $51 $-1 #
coedge $-1 $81 $129 $201 $207 reversed $51 $-1 #
coedge $-1 $203 $208 $81 $132 forward $198 $-1 #
edge $-1 $209 -2.1258009507270508 $210 12.270131781624364 $131 $211 forward 7 unknown #
loop $-1 $-1 $138 $82 #
plane-surface $-1 34.423895261770994 -19.488150167055039 42.064437156755261 0 0.5877852598018023 0.80901698891910034 1 0 0 forward_v I I I I #
loop $-1 $-1 $212 $53 #
coedge $-1 $136 $136 $137 $213 reversed $83 $-1 #
coedge $-1 $137 $137 $136 $213 forward $85 $-1 #
coedge $-1 $138 $138 $86 $139 forward $133 $-1 #
edge $-1 $214 -1.6894748066672671e-015 $214 6.2831853071795987 $138 $215 forward 7 unknown #
face $-1 $216 $217 $21 $-1 $218 reversed single #
loop $-1 $-1 $219 $87 #
plane-surface $-1 -66.607257301553389 0 0 1 0 0 0 0 -1 forward_v I I I I #
coedge $-1 $220 $151 $221 $222 forward $88 $-1 #
coedge $-1 $223 $90 $220 $224 forward $57 $-1 #
coedge $-1 $90 $223 $225 $226 forward $57 $-1 #
coedge $-1 $154 $153 $90 $147 reversed $155 $-1 #
edge $-1 $227 -31.532489904878584 $228 31.532489904878584 $146 $229 forward 7 unknown #
coedge $-1 $92 $91 $230 $231 forward $36 $-1 #
coedge $-1 $232 $233 $91 $150 reversed $217 $-1 #
edge $-1 $157 -66.607257301553389 $234 66.607257301553389 $149 $235 forward 7 unknown #
coedge $-1 $143 $236 $92 $152 reversed $88 $-1 #
edge $-1 $237 -66.607257301553389 $156 66.607257301553389 $151 $238 forward 7 unknown #
coedge $-1 $146 $93 $236 $239 forward $155 $-1 #
coedge $-1 $93 $146 $232 $240 reversed $155 $-1 #
loop $-1 $-1 $153 $216 #
vertex $-1 $94 $241 #
vertex $-1 $94 $242 #
straight-curve $-1 66.607257301553389 0 15.455029179398192 0 1 0 I I #
face $-1 $243 $244 $22 $-1 $245 reversed single #
loop $-1 $-1 $246 $95 #
plane-surface $-1 -80.913604301840806 0 -11.719210867821808 1 0 0 0 0 -1 forward_v I I I I #
coedge $-1 $247 $98 $248 $249 reversed $61 $-1 #
coedge $-1 $98 $247 $168 $250 reversed $61 $-1 #
edge $-1 $170 7.9833925562454233 $251 15.455029179398192 $98 $252 forward 7 unknown #
coedge $-1 $100 $99 $253 $254 reversed $39 $-1 #
coedge $-1 $255 $256 $99 $167 forward $257 $-1 #
edge $-1 $258 -15.455029179398192 $171 -7.9833925562454233 $166 $259 forward 7 unknown #
coedge $-1 $260 $101 $163 $250 forward $96 $-1 #
coedge $-1 $101 $260 $255 $261 forward $96 $-1 #
vertex $-1 $164 $262 #
vertex $-1 $261 $263 #
straight-curve $-1 -66.607257301553389 0 -7.9833925562454233 0 -1 0 I I #
face $-1 $-1 $185 $23 $-1 $264 forward single #
loop $-1 $-1 $265 $103 #
plane-surface $-1 0 -31.532489904878584 0 0 1 0 0 0 1 forward_v I I I I #
coedge $-1 $266 $267 $268 $269 reversed $104 $-1 #
coedge $-1 $270 $106 $108 $183 forward $65 $-1 #
coedge $-1 $106 $270 $266 $271 forward $65 $-1 #
coedge $-1 $268 $109 $106 $180 forward $185 $-1 #
edge $-1 $187 8.4092164687507989 $272 32.064201377927048 $179 $273 forward 7 unknown #
coedge $-1 $274 $275 $107 $182 forward $174 $-1 #
edge $-1 $276 -47.765444625981061 $186 -43.169367245558888 $181 $277 forward 7 unknown #
edge $-1 $187 -7.6370265703309919 $276 -4.9753997724514827e-015 $108 $278 forward 7 unknown #
coedge $-1 $109 $268 $274 $279 forward $185 $-1 #
loop $-1 $-1 $268 $173 #
vertex $-1 $182 $280 #
vertex $-1 $110 $281 #
straight-curve $-1 -28.645925392089723 -55.851493554941023 15.455029179398196 0 1 0 I I #
coedge $-1 $189 $189 $-1 $282 reversed $113 $-1 #
edge $-1 $283 0 $283 6.2831853071796004 $114 $284 forward 7 unknown #
vertex $-1 $117 $285 #
ellipse-curve $-1 -45.542343184358472 -28.482889621681078 13.156990489187111 0 -0.6018150307709319 0.79863550430605224 1 0 0 1 I I #
coedge $-1 $193 $193 $-1 $286 reversed $120 $-1 #
edge $-1 $287 0 $287 6.2831853071796004 $121 $288 forward 7 unknown #
vertex $-1 $124 $289 #
ellipse-curve $-1 -35.404492508997222 -28.482889621681078 13.156990489187111 0 -0.6018150307709319 0.79863550430605224 1 0 0 1 I I #
face $-1 $-1 $290 $26 $-1 $291 reversed single #
loop $-1 $-1 $131 $125 #
plane-surface $-1 0 0 15.455029179398192 0 0 1 1 0 0 forward_v I I I I #
coedge $-1 $292 $293 $294 $295 reversed $126 $-1 #
coedge $-1 $296 $128 $130 $207 forward $79 $-1 #
coedge $-1 $128 $296 $292 $297 forward $79 $-1 #
coedge $-1 $294 $131 $128 $204 forward $198 $-1 #
edge $-1 $210 3.9354353904211621 $298 30.488459871349832 $203 $299 forward 7 unknown #
coedge $-1 $300 $301 $129 $206 forward $290 $-1 #
edge $-1 $302 -69.922849705758409 $209 -59.463592141241918 $205 $303 forward 7 unknown #
edge $-1 $210 45.270628233055049 $302 63.064979809757197 $130 $304 forward 7 unknown #
coedge $-1 $131 $294 $300 $305 forward $198 $-1 #
vertex $-1 $206 $306 #
vertex $-1 $132 $307 #
straight-curve $-1 21.147383021306659 29.406688954151534 15.455029179398196 0 -1 0 I I #
coedge $-1 $212 $212 $-1 $308 reversed $135 $-1 #
edge $-1 $309 0 $309 6.2831853071796004 $136 $310 forward 7 unknown #
vertex $-1 $139 $311 #
ellipse-curve $-1 34.423895261770994 24.334523538702889 10.225400397139943 0 0.5877852598018023 0.80901698891910034 2 0 0 1 I I #
face $-1 $-1 $155 $21 $-1 $312 reversed single #
loop $-1 $-1 $232 $140 #
plane-surface $-1 0 31.532489904878584 0 0 -1 0 0 0 -1 forward_v I I I I #
coedge $-1 $313 $230 $233 $314 forward $141 $-1 #
coedge $-1 $236 $143 $144 $224 reversed $88 $-1 #
coedge $-1 $230 $313 $143 $222 reversed $141 $-1 #
edge $-1 $237 -15.455029179398192 $315 15.455029179398192 $221 $316 forward 7 unknown #
coedge $-1 $145 $144 $313 $317 forward $57 $-1 #
edge $-1 $228 -66.607257301553389 $315 66.607257301553389 $220 $318 forward 7 unknown #
coedge $-1 $233 $232 $145 $226 reversed $217 $-1 #
edge $-1 $319 -66.607257301553389 $227 66.607257301553389 $225 $320 forward 7 unknown #
vertex $-1 $147 $321 #
vertex $-1 $239 $322 #
straight-curve $-1 66.607257301553389 0 -15.455029179398192 0 -1 0 I I #
coedge $-1 $219 $221 $148 $231 reversed $141 $-1 #
edge $-1 $234 -31.532489904878584 $237 31.532489904878584 $230 $323 forward 7 unknown #
coedge $-1 $225 $149 $154 $240 forward $217 $-1 #
coedge $-1 $149 $225 $219 $314 reversed $217 $-1 #
vertex $-1 $150 $324 #
straight-curve $-1 0 31.532489904878584 15.455029179398192 -1 0 0 I I #
coedge $-1 $151 $220 $153 $239 reversed $88 $-1 #
vertex $-1 $231 $325 #
straight-curve $-1 0 -31.532489904878584 15.455029179398192 1 0 0 I I #
edge $-1 $156 -15.455029179398192 $228 15.455029179398192 $153 $326 forward 7 unknown #
edge $-1 $157 -15.455029179398192 $227 15.455029179398192 $154 $327 forward 7 unknown #
point $-1 66.607257301553389 -31.532489904878584 15.455029179398192 #
point $-1 66.607257301553389 31.532489904878584 15.455029179398192 #
face $-1 $-1 $257 $22 $-1 $328 reversed single #
loop $-1 $-1 $253 $159 #
plane-surface $-1 0 0 -15.455029179398192 0 0 1 1 0 0 forward_v I I I I #
coedge $-1 $329 $330 $247 $331 forward $160 $-1 #
coedge $-1 $163 $162 $246 $331 reversed $61 $-1 #
coedge $-1 $253 $332 $162 $249 forward $244 $-1 #
edge $-1 $333 -80.913604301840806 $251 -66.607257301553389 $162 $334 forward 7 unknown #
edge $-1 $170 -7.1531735001437085 $335 7.1531735001437085 $163 $336 forward 7 unknown #
vertex $-1 $164 $337 #
straight-curve $-1 -66.607257301553389 31.532489904878584 0 0 0 -1 I I #
coedge $-1 $338 $248 $165 $254 forward $244 $-1 #
edge $-1 $251 -31.532489904878584 $258 31.532489904878584 $253 $339 forward 7 unknown #
coedge $-1 $340 $166 $169 $261 reversed $257 $-1 #
coedge $-1 $166 $340 $338 $341 reversed $257 $-1 #
loop $-1 $-1 $166 $243 #
vertex $-1 $341 $342 #
straight-curve $-1 -66.607257301553389 -31.532489904878584 0 0 0 1 I I #
coedge $-1 $169 $168 $330 $343 forward $96 $-1 #
edge $-1 $344 -7.1531735001437085 $171 7.1531735001437085 $255 $345 forward 7 unknown #
point $-1 -66.607257301553389 31.532489904878584 -7.9833925562454233 #
point $-1 -66.607257301553389 -31.532489904878584 -7.9833925562454233 #
plane-surface $-1 0 0 15.455029179398192 0 0 1 1 0 0 forward_v I I I I #
coedge $-1 $275 $274 $267 $346 forward $174 $-1 #
coedge $-1 $267 $176 $178 $271 reversed $104 $-1 #
coedge $-1 $176 $266 $265 $346 reversed $104 $-1 #
coedge $-1 $184 $179 $176 $269 forward $185 $-1 #
edge $-1 $272 -30.418204216457447 $347 -24.319003650062438 $268 $348 forward 7 unknown #
coedge $-1 $178 $177 $275 $349 reversed $65 $-1 #
edge $-1 $350 4.9753997724514827e-015 $272 7.6370265703309919 $266 $351 forward 7 unknown #
vertex $-1 $180 $352 #
straight-curve $-1 -20.236708923338924 -25.433289338483579 15.455029179398192 -1 0 0 I I #
coedge $-1 $265 $181 $184 $279 reversed $174 $-1 #
coedge $-1 $181 $265 $270 $349 forward $174 $-1 #
vertex $-1 $182 $353 #
straight-curve $-1 -28.645925392089723 -31.532489904878588 58.624396424957084 0 0 1 I I #
straight-curve $-1 -28.645925392089723 -31.532489904878588 10.858951798976022 0 -0.79863550430605224 -0.6018150307709319 I I #
edge $-1 $347 -52.300910301265972 $186 -28.645925392089723 $274 $354 forward 7 unknown #
point $-1 -28.645925392089723 -31.532489904878584 15.455029179398192 #
point $-1 -28.645925392089723 -25.433289338483576 15.455029179398192 #
edge $-1 $355 1 $355 0 $189 $-1 forward 7 unknown #
vertex $-1 $190 $356 #
ellipse-curve $-1 -45.542343184358472 -27.529374526081735 11.891633244350752 0 -0.6018150307709319 0.79863550430605224 1 0 0 1 I I #
point $-1 -44.542343184358472 -28.482889621681082 13.156990489187111 #
edge $-1 $357 1 $357 0 $193 $-1 forward 7 unknown #
vertex $-1 $194 $358 #
ellipse-curve $-1 -35.404492508997222 -27.529374526081735 11.891633244350752 0 -0.6018150307709319 0.79863550430605224 1 0 0 1 I I #
point $-1 -34.404492508997222 -28.482889621681082 13.156990489187111 #
loop $-1 $-1 $205 $197 #
plane-surface $-1 0 31.532489904878584 0 0 -1 0 0 0 -1 forward_v I I I I #
coedge $-1 $293 $200 $202 $297 reversed $126 $-1 #
coedge $-1 $200 $292 $359 $360 reversed $126 $-1 #
coedge $-1 $208 $203 $200 $295 forward $198 $-1 #
edge $-1 $298 -12.270131781624364 $361 2.1258009507270508 $294 $362 forward 7 unknown #
coedge $-1 $202 $201 $301 $363 reversed $79 $-1 #
edge $-1 $364 -63.064979809757197 $298 -45.270628233055049 $292 $365 forward 7 unknown #
vertex $-1 $204 $366 #
straight-curve $-1 17.211947630885497 17.136557172527176 15.455029179398192 1 0 0 I I #
coedge $-1 $359 $205 $208 $305 reversed $290 $-1 #
coedge $-1 $205 $359 $296 $363 forward $290 $-1 #
vertex $-1 $206 $367 #
straight-curve $-1 21.147383021306659 31.532489904878584 74.918621320640113 0 0 1 I I #
straight-curve $-1 21.147383021306659 -19.488150167055039 42.064437156755261 0 0.80901698891910034 -0.5877852598018023 I I #
edge $-1 $361 -47.700407502235329 $209 -21.147383021306659 $300 $368 forward 7 unknown #
point $-1 21.147383021306659 31.532489904878584 15.455029179398192 #
point $-1 21.147383021306659 17.136557172527169 15.455029179398192 #
edge $-1 $369 1 $369 0 $212 $-1 forward 7 unknown #
vertex $-1 $213 $370 #
ellipse-curve $-1 34.423895261770994 22.508867939134177 7.7126010859350265 0 0.5877852598018023 0.80901698891910034 2 0 0 1 I I #
point $-1 36.423895261770994 24.334523538702907 10.225400397139973 #
plane-surface $-1 66.607257301553389 0 0 -1 0 0 0 0 1 forward_v I I I I #
coedge $-1 $221 $219 $223 $317 reversed $141 $-1 #
edge $-1 $234 -15.455029179398192 $319 15.455029179398192 $233 $371 forward 7 unknown #
vertex $-1 $317 $372 #
straight-curve $-1 -66.607257301553389 -31.532489904878584 0 0 0 -1 I I #
edge $-1 $315 -31.532489904878584 $319 31.532489904878584 $313 $373 forward 7 unknown #
straight-curve $-1 0 -31.532489904878584 -15.455029179398192 -1 0 0 I I #
vertex $-1 $226 $374 #
straight-curve $-1 0 31.532489904878584 -15.455029179398192 1 0 0 I I #
point $-1 66.607257301553389 31.532489904878584 -15.455029179398192 #
point $-1 66.607257301553389 -31.532489904878584 -15.455029179398192 #
straight-curve $-1 -66.607257301553389 0 15.455029179398192 0 -1 0 I I #
point $-1 -66.607257301553389 31.532489904878584 15.455029179398192 #
point $-1 -66.607257301553389 -31.532489904878584 15.455029179398192 #
straight-curve $-1 66.607257301553389 -31.532489904878584 0 0 0 -1 I I #
straight-curve $-1 66.607257301553389 31.532489904878584 0 0 0 -1 I I #
plane-surface $-1 0 -31.532489904878584 0 0 1 0 0 0 1 forward_v I I I I #
coedge $-1 $375 $246 $332 $376 reversed $160 $-1 #
coedge $-1 $246 $375 $260 $343 reversed $160 $-1 #
edge $-1 $335 -3.7358183115763843 $333 3.7358183115763843 $247 $377 forward 7 unknown #
coedge $-1 $248 $338 $329 $376 forward $244 $-1 #
vertex $-1 $249 $378 #
straight-curve $-1 0 31.532489904878584 -15.455029179398192 1 0 0 I I #
vertex $-1 $250 $379 #
straight-curve $-1 -73.760430801697098 31.532489904878584 -7.9833925562454233 -1 0 0 I I #
point $-1 -66.607257301553389 31.532489904878584 -15.455029179398192 #
coedge $-1 $332 $253 $256 $341 forward $244 $-1 #
straight-curve $-1 -66.607257301553389 0 -15.455029179398192 0 -1 0 I I #
coedge $-1 $256 $255 $375 $380 forward $257 $-1 #
edge $-1 $258 -7.1531735001437085 $381 7.1531735001437085 $256 $382 forward 7 unknown #
point $-1 -66.607257301553389 -31.532489904878584 -15.455029179398192 #
edge $-1 $335 -31.532489904878584 $344 31.532489904878584 $330 $383 forward 7 unknown #
vertex $-1 $343 $384 #
straight-curve $-1 -73.760430801697098 -31.532489904878584 -7.9833925562454233 1 0 0 I I #
edge $-1 $347 43.169367245558888 $350 47.765444625981061 $265 $385 forward 7 unknown #
vertex $-1 $279 $386 #
straight-curve $-1 -52.300910301265972 -55.851493554941023 15.455029179398196 0 -1 0 I I #
edge $-1 $350 -32.064201377927048 $276 -8.4092164687507989 $275 $387 forward 7 unknown #
vertex $-1 $349 $388 #
straight-curve $-1 -52.300910301265972 -31.532489904878588 10.858951798976022 0 0.79863550430605224 0.6018150307709319 I I #
point $-1 -52.300910301265972 -25.433289338483576 15.455029179398192 #
point $-1 -28.645925392089723 -31.532489904878584 10.858951798976026 #
straight-curve $-1 0 -31.532489904878584 15.455029179398192 1 0 0 I I #
vertex $-1 $282 $389 #
point $-1 -44.542343184358472 -27.529374526081735 11.891633244350752 #
vertex $-1 $286 $390 #
point $-1 -34.404492508997222 -27.529374526081735 11.891633244350752 #
coedge $-1 $301 $300 $293 $360 forward $290 $-1 #
edge $-1 $361 59.463592141241918 $364 69.922849705758409 $359 $391 forward 7 unknown #
vertex $-1 $305 $392 #
straight-curve $-1 47.700407502235329 29.406688954151534 15.455029179398196 0 1 0 I I #
edge $-1 $364 -30.488459871349832 $302 -3.9354353904211621 $301 $393 forward 7 unknown #
vertex $-1 $363 $394 #
straight-curve $-1 47.700407502235329 -19.488150167055039 42.064437156755261 0 -0.80901698891910034 0.5877852598018023 I I #
point $-1 47.700407502235329 17.136557172527169 15.455029179398192 #
point $-1 21.147383021306659 31.532489904878588 4.9957716148817113 #
straight-curve $-1 0 31.532489904878584 15.455029179398192 -1 0 0 I I #
vertex $-1 $308 $395 #
point $-1 36.423895261770994 22.508867939134177 7.7126010859350265 #
straight-curve $-1 -66.607257301553389 31.532489904878584 0 0 0 -1 I I #
point $-1 -66.607257301553389 -31.532489904878584 -15.455029179398192 #
straight-curve $-1 -66.607257301553389 0 -15.455029179398192 0 1 0 I I #
point $-1 -66.607257301553389 31.532489904878584 -15.455029179398192 #
coedge $-1 $330 $329 $340 $380 reversed $160 $-1 #
edge $-1 $381 -31.532489904878584 $333 31.532489904878584 $329 $396 forward 7 unknown #
straight-curve $-1 -80.913604301840806 31.532489904878584 -11.719210867821808 0 0 -1 I I #
point $-1 -80.913604301840806 31.532489904878584 -15.455029179398192 #
point $-1 -80.913604301840806 31.532489904878584 -7.9833925562454233 #
edge $-1 $344 -3.7358183115763843 $381 3.7358183115763843 $375 $397 forward 7 unknown #
vertex $-1 $376 $398 #
straight-curve $-1 -73.760430801697098 -31.532489904878584 -15.455029179398192 -1 0 0 I I #
straight-curve $-1 -80.913604301840806 0 -7.9833925562454233 0 -1 0 I I #
point $-1 -80.913604301840806 -31.532489904878584 -7.9833925562454233 #
straight-curve $-1 -52.300910301265972 -31.532489904878588 58.624396424957084 0 0 -1 I I #
point $-1 -52.300910301265972 -31.532489904878584 15.455029179398192 #
straight-curve $-1 -20.236708923338924 -31.532489904878584 10.858951798976026 1 0 0 I I #
point $-1 -52.300910301265972 -31.532489904878584 10.858951798976026 #
point $-1 -45.542343184358472 -26.927559495310806 11.0929977400447 #
point $-1 -35.404492508997222 -26.927559495310806 11.0929977400447 #
straight-curve $-1 47.700407502235329 31.532489904878584 74.918621320640113 0 0 -1 I I #
point $-1 47.700407502235329 31.532489904878584 15.455029179398192 #
straight-curve $-1 17.211947630885497 31.532489904878581 4.9957716148817113 -1 0 0 I I #
point $-1 47.700407502235329 31.532489904878588 4.9957716148817113 #
point $-1 34.423895261770994 21.333297419530574 6.0945671080968262 #
straight-curve $-1 -80.913604301840806 0 -15.455029179398192 0 1 0 I I #
straight-curve $-1 -80.913604301840806 -31.532489904878584 -11.719210867821808 0 0 -1 I I #
point $-1 -80.913604301840806 -31.532489904878584 -15.455029179398192 #
End-of-ACIS-data 