500 0 18 0           
7 Unknown 11 ACIS 5.0 NT 24 Fri Mar 26 02:44:18 1999 
-1 9.9999999999999995e-007 1e-010 
body $-1 $18 $-1 $19 #
body $-1 $20 $-1 $21 #
body $-1 $22 $-1 $23 #
body $-1 $24 $-1 $25 #
body $-1 $26 $-1 $27 #
body $-1 $28 $-1 $29 #
body $-1 $30 $-1 $31 #
body $-1 $32 $-1 $33 #
body $-1 $34 $-1 $35 #
body $-1 $36 $-1 $37 #
body $-1 $38 $-1 $39 #
body $-1 $40 $-1 $41 #
body $-1 $42 $-1 $43 #
body $-1 $44 $-1 $45 #
body $-1 $46 $-1 $47 #
body $-1 $48 $-1 $49 #
body $-1 $50 $-1 $51 #
body $-1 $52 $-1 $53 #
lump $-1 $-1 $54 $0 #
transform $-1 1 0 0 0 1 0 0 0 1 40.230719931638539 21.573105068356409 8.3340248786059981 1 rotate no_reflect no_shear #
lump $-1 $-1 $55 $1 #
transform $-1 1 0 0 0 1 0 0 0 1 40.230719931638539 21.573105068356409 8.3340248786059981 1 rotate no_reflect no_shear #
lump $-1 $-1 $56 $2 #
transform $-1 1 0 0 0 1 0 0 0 1 40.230719931638539 21.573105068356409 8.3340248786059981 1 rotate no_reflect no_shear #
lump $-1 $-1 $57 $3 #
transform $-1 1 0 0 0 1 0 0 0 1 40.230719931638539 21.573105068356409 8.3340248786059981 1 rotate no_reflect no_shear #
lump $-1 $-1 $58 $4 #
transform $-1 1 0 0 0 1 0 0 0 1 40.230719931638539 21.573105068356409 8.3340248786059981 1 rotate no_reflect no_shear #
lump $-1 $-1 $59 $5 #
transform $-1 1 0 0 0 1 0 0 0 1 40.230719931638539 21.573105068356409 8.3340248786059981 1 rotate no_reflect no_shear #
lump $-1 $-1 $60 $6 #
transform $-1 1 0 0 0 1 0 0 0 1 40.230719931638539 21.573105068356409 8.3340248786059981 1 rotate no_reflect no_shear #
lump $-1 $-1 $61 $7 #
transform $-1 1 0 0 0 1 0 0 0 1 40.230719931638539 21.573105068356409 8.3340248786059981 1 rotate no_reflect no_shear #
lump $-1 $-1 $62 $8 #
transform $-1 1 0 0 0 1 0 0 0 1 40.230719931638539 21.573105068356409 8.3340248786059981 1 rotate no_reflect no_shear #
lump $-1 $-1 $63 $9 #
transform $-1 1 0 0 0 1 0 0 0 1 40.230719931638539 21.573105068356409 8.3340248786059981 1 rotate no_reflect no_shear #
lump $-1 $-1 $64 $10 #
transform $-1 1 0 0 0 1 0 0 0 1 40.230719931638539 21.573105068356409 8.3340248786059981 1 rotate no_reflect no_shear #
lump $-1 $-1 $65 $11 #
transform $-1 1 0 0 0 1 0 0 0 1 40.230719931638539 21.573105068356409 8.3340248786059981 1 rotate no_reflect no_shear #
lump $-1 $-1 $66 $12 #
transform $-1 1 0 0 0 1 0 0 0 1 40.230719931638539 21.573105068356409 8.3340248786059981 1 rotate no_reflect no_shear #
lump $-1 $-1 $67 $13 #
transform $-1 1 0 0 0 1 0 0 0 1 40.230719931638539 21.573105068356409 8.3340248786059981 1 rotate no_reflect no_shear #
lump $-1 $-1 $68 $14 #
transform $-1 1 0 0 0 1 0 0 0 1 40.230719931638539 21.573105068356409 8.3340248786059981 1 rotate no_reflect no_shear #
lump $-1 $-1 $69 $15 #
transform $-1 1 0 0 0 1 0 0 0 1 40.230719931638539 21.573105068356409 8.3340248786059981 1 rotate no_reflect no_shear #
lump $-1 $-1 $70 $16 #
transform $-1 1 0 0 0 1 0 0 0 1 40.230719931638539 21.573105068356409 8.3340248786059981 1 rotate no_reflect no_shear #
lump $-1 $-1 $71 $17 #
transform $-1 1 0 0 0 1 0 0 0 1 40.230719931638539 21.573105068356409 8.3340248786059981 1 rotate no_reflect no_shear #
shell $-1 $-1 $-1 $72 $-1 $18 #
shell $-1 $-1 $-1 $73 $-1 $20 #
shell $-1 $-1 $-1 $74 $-1 $22 #
shell $-1 $-1 $-1 $75 $-1 $24 #
shell $-1 $-1 $-1 $76 $-1 $26 #
shell $-1 $-1 $-1 $77 $-1 $28 #
shell $-1 $-1 $-1 $78 $-1 $30 #
shell $-1 $-1 $-1 $79 $-1 $32 #
shell $-1 $-1 $-1 $80 $-1 $34 #
shell $-1 $-1 $-1 $81 $-1 $36 #
shell $-1 $-1 $-1 $82 $-1 $38 #
shell $-1 $-1 $-1 $83 $-1 $40 #
shell $-1 $-1 $-1 $84 $-1 $42 #
shell $-1 $-1 $-1 $85 $-1 $44 #
shell $-1 $-1 $-1 $86 $-1 $46 #
shell $-1 $-1 $-1 $87 $-1 $48 #
shell $-1 $-1 $-1 $88 $-1 $50 #
shell $-1 $-1 $-1 $89 $-1 $52 #
face $-1 $90 $91 $54 $-1 $92 forward single #
face $-1 $93 $94 $55 $-1 $95 reversed single #
face $-1 $96 $97 $56 $-1 $98 reversed single #
face $-1 $99 $100 $57 $-1 $101 forward single #
face $-1 $102 $103 $58 $-1 $104 forward single #
face $-1 $105 $106 $59 $-1 $107 forward single #
face $-1 $108 $109 $60 $-1 $110 reversed single #
face $-1 $111 $112 $61 $-1 $113 forward single #
face $-1 $114 $115 $62 $-1 $116 forward single #
face $-1 $117 $118 $63 $-1 $119 forward single #
face $-1 $120 $121 $64 $-1 $122 reversed single #
face $-1 $123 $124 $65 $-1 $125 forward single #
face $-1 $126 $127 $66 $-1 $128 forward single #
face $-1 $129 $130 $67 $-1 $131 forward single #
face $-1 $132 $133 $68 $-1 $134 reversed single #
face $-1 $135 $136 $69 $-1 $137 forward single #
face $-1 $138 $139 $70 $-1 $140 forward single #
face $-1 $141 $142 $71 $-1 $143 forward single #
face $-1 $144 $145 $54 $-1 $146 reversed single #
loop $-1 $-1 $147 $72 #
plane-surface $-1 0 0 8.3340248786059981 0 0 1 1 0 0 forward_v I I I I #
face $-1 $148 $149 $55 $-1 $150 reversed single #
loop $-1 $-1 $151 $73 #
plane-surface $-1 0 -18.065214879867028 4.3549457558349367 0 0 1 1 0 0 forward_v I I I I #
face $-1 $152 $153 $56 $-1 $154 reversed single #
loop $-1 $-1 $155 $74 #
plane-surface $-1 69.68165264702381 -5.9014909837958722 110.65842090088633 0 -1 0 -0.86602541151947299 0 -0.49999998660252726 forward_v I I I I #
face $-1 $156 $157 $57 $-1 $158 forward single #
loop $-1 $159 $160 $75 #
cone-surface $-1 37.294180128339313 -12.826157949861294 4.1092880027515761 -0.86602541151947299 0 -0.49999998660252726 0.24999999330126363 0 -0.43301270575973649 1 I I 0 1 0.5 forward I I I I #
face $-1 $161 $162 $58 $-1 $163 forward single #
loop $-1 $164 $165 $76 #
cone-surface $-1 37.294180128339313 -10.229407837586761 4.1092880027515761 -0.86602541151947299 0 -0.49999998660252726 0.24999999330126363 0 -0.43301270575973649 1 I I 0 1 0.5 forward I I I I #
face $-1 $166 $167 $59 $-1 $168 forward single #
loop $-1 $169 $170 $77 #
cone-surface $-1 37.294180128339313 -7.6326577253122281 4.1092880027515761 -0.86602541151947299 0 -0.49999998660252726 0.24999999330126363 0 -0.43301270575973649 1 I I 0 1 0.5 forward I I I I #
face $-1 $171 $172 $60 $-1 $173 reversed single #
loop $-1 $-1 $174 $78 #
plane-surface $-1 69.68165264702381 12.163723896071158 110.65842090088633 0 -1 0 -0.86602541151947299 0 -0.49999998660252726 forward_v I I I I #
face $-1 $175 $176 $61 $-1 $177 forward single #
loop $-1 $178 $179 $79 #
cone-surface $-1 37.294180128339313 5.2390569300057344 4.1092880027515761 -0.86602541151947299 0 -0.49999998660252726 0.24999999330126363 0 -0.43301270575973649 1 I I 0 1 0.5 forward I I I I #
face $-1 $180 $181 $62 $-1 $182 forward single #
loop $-1 $183 $184 $80 #
cone-surface $-1 37.294180128339313 7.835807042280269 4.1092880027515761 -0.86602541151947299 0 -0.49999998660252726 0.24999999330126363 0 -0.43301270575973649 1 I I 0 1 0.5 forward I I I I #
face $-1 $185 $186 $63 $-1 $187 forward single #
loop $-1 $188 $189 $81 #
cone-surface $-1 37.294180128339313 10.432557154554804 4.1092880027515761 -0.86602541151947299 0 -0.49999998660252726 0.24999999330126363 0 -0.43301270575973649 1 I I 0 1 0.5 forward I I I I #
face $-1 $190 $191 $64 $-1 $192 reversed single #
loop $-1 $-1 $193 $82 #
plane-surface $-1 -40.230719931638546 -10.229407837586761 0.74605047818388215 -0.86602541151947299 0 0.49999998660252726 0.49999998660252726 0 0.86602541151947299 forward_v I I I I #
face $-1 $194 $195 $65 $-1 $196 forward single #
loop $-1 $197 $198 $83 #
cone-surface $-1 -37.29418012833932 -12.826157949861294 4.1092880027515761 0.86602541151947299 0 -0.49999998660252726 0.24999999330126363 0 0.43301270575973649 1 I I 0 1 0.5 forward I I I I #
face $-1 $199 $200 $66 $-1 $201 forward single #
loop $-1 $202 $203 $84 #
cone-surface $-1 -37.29418012833932 -10.229407837586761 4.1092880027515761 0.86602541151947299 0 -0.49999998660252726 0.24999999330126363 0 0.43301270575973649 1 I I 0 1 0.5 forward I I I I #
face $-1 $204 $205 $67 $-1 $206 forward single #
loop $-1 $207 $208 $85 #
cone-surface $-1 -37.29418012833932 -7.6326577253122281 4.1092880027515761 0.86602541151947299 0 -0.49999998660252726 0.24999999330126363 0 0.43301270575973649 1 I I 0 1 0.5 forward I I I I #
face $-1 $209 $210 $68 $-1 $211 reversed single #
loop $-1 $-1 $212 $86 #
plane-surface $-1 -109.91237150068241 3.5078901884893803 40.976769331842476 0 1 0 -0.86602541151947299 0 0.49999998660252726 forward_v I I I I #
face $-1 $213 $214 $69 $-1 $215 forward single #
loop $-1 $216 $217 $87 #
cone-surface $-1 -37.29418012833932 5.2390569300057344 4.1092880027515761 0.86602541151947299 0 -0.49999998660252726 0.24999999330126363 0 0.43301270575973649 1 I I 0 1 0.5 forward I I I I #
face $-1 $218 $219 $70 $-1 $220 forward single #
loop $-1 $221 $222 $88 #
cone-surface $-1 -37.29418012833932 7.835807042280269 4.1092880027515761 0.86602541151947299 0 -0.49999998660252726 0.24999999330126363 0 0.43301270575973649 1 I I 0 1 0.5 forward I I I I #
face $-1 $223 $224 $71 $-1 $225 forward single #
loop $-1 $226 $227 $89 #
cone-surface $-1 -37.29418012833932 10.432557154554804 4.1092880027515761 0.86602541151947299 0 -0.49999998660252726 0.24999999330126363 0 0.43301270575973649 1 I I 0 1 0.5 forward I I I I #
face $-1 $228 $229 $54 $-1 $230 reversed single #
loop $-1 $-1 $231 $90 #
plane-surface $-1 0 0 -8.3340248786059981 0 0 1 1 0 0 forward_v I I I I #
coedge $-1 $232 $233 $234 $235 forward $91 $-1 #
face $-1 $236 $237 $55 $-1 $238 reversed single #
loop $-1 $-1 $239 $93 #
plane-surface $-1 0 -14.557324691377648 6.3444853172204674 0 -1 0 0 0 -1 forward_v I I I I #
coedge $-1 $240 $241 $242 $243 reversed $94 $-1 #
face $-1 $244 $245 $56 $-1 $246 forward single #
loop $-1 $-1 $247 $96 #
plane-surface $-1 1.0779799453075611e-006 -10.229407837586761 70.42770204722774 0.86602541151947299 0 0.49999998660252726 0.49999998660252726 0 -0.86602541151947299 forward_v I I I I #
coedge $-1 $248 $249 $250 $251 reversed $97 $-1 #
face $-1 $-1 $252 $57 $-1 $253 forward single #
loop $-1 $254 $255 $99 #
cone-surface $-1 36.331593425246417 -12.826157949861294 3.5535383304575809 -0.86602541151947299 0 -0.49999998660252726 0.12499999665063181 0 -0.21650635287986825 1 I I -0.70710678118654746 0.70710678118654746 0.25 forward I I I I #
loop $-1 $-1 $256 $75 #
coedge $-1 $160 $160 $257 $258 reversed $100 $-1 #
face $-1 $-1 $259 $58 $-1 $260 forward single #
loop $-1 $261 $262 $102 #
cone-surface $-1 36.331593425246417 -10.229407837586761 3.5535383304575809 -0.86602541151947299 0 -0.49999998660252726 0.12499999665063181 0 -0.21650635287986825 1 I I -0.70710678118654746 0.70710678118654746 0.25 forward I I I I #
loop $-1 $-1 $263 $76 #
coedge $-1 $165 $165 $264 $265 reversed $103 $-1 #
face $-1 $-1 $266 $59 $-1 $267 forward single #
loop $-1 $268 $269 $105 #
cone-surface $-1 36.331593425246417 -7.6326577253122281 3.5535383304575809 -0.86602541151947299 0 -0.49999998660252726 0.12499999665063181 0 -0.21650635287986825 1 I I -0.70710678118654746 0.70710678118654746 0.25 forward I I I I #
loop $-1 $-1 $270 $77 #
coedge $-1 $170 $170 $271 $272 reversed $106 $-1 #
face $-1 $273 $274 $60 $-1 $275 reversed single #
loop $-1 $-1 $276 $108 #
plane-surface $-1 1.0779799453075611e-006 7.835807042280269 70.42770204722774 0.86602541151947299 0 0.49999998660252726 0.49999998660252726 0 -0.86602541151947299 forward_v I I I I #
coedge $-1 $277 $278 $279 $280 reversed $109 $-1 #
face $-1 $-1 $281 $61 $-1 $282 forward single #
loop $-1 $283 $284 $111 #
cone-surface $-1 36.331593425246417 5.2390569300057344 3.5535383304575809 -0.86602541151947299 0 -0.49999998660252726 0.12499999665063181 0 -0.21650635287986825 1 I I -0.70710678118654746 0.70710678118654746 0.25 forward I I I I #
loop $-1 $-1 $285 $79 #
coedge $-1 $179 $179 $286 $287 reversed $112 $-1 #
face $-1 $-1 $288 $62 $-1 $289 forward single #
loop $-1 $290 $291 $114 #
cone-surface $-1 36.331593425246417 7.835807042280269 3.5535383304575809 -0.86602541151947299 0 -0.49999998660252726 0.12499999665063181 0 -0.21650635287986825 1 I I -0.70710678118654746 0.70710678118654746 0.25 forward I I I I #
loop $-1 $-1 $292 $80 #
coedge $-1 $184 $184 $293 $294 reversed $115 $-1 #
face $-1 $-1 $295 $63 $-1 $296 forward single #
loop $-1 $297 $298 $117 #
cone-surface $-1 36.331593425246417 10.432557154554804 3.5535383304575809 -0.86602541151947299 0 -0.49999998660252726 0.12499999665063181 0 -0.21650635287986825 1 I I -0.70710678118654746 0.70710678118654746 0.25 forward I I I I #
loop $-1 $-1 $299 $81 #
coedge $-1 $189 $189 $300 $301 reversed $118 $-1 #
face $-1 $302 $303 $64 $-1 $304 forward single #
loop $-1 $-1 $305 $120 #
plane-surface $-1 -109.91237150068241 -5.9014909837958722 40.976769331842476 0 -1 0 0.86602541151947299 0 -0.49999998660252726 forward_v I I I I #
coedge $-1 $306 $307 $308 $309 reversed $121 $-1 #
face $-1 $-1 $310 $65 $-1 $311 forward single #
loop $-1 $312 $313 $123 #
cone-surface $-1 -36.331593425246425 -12.826157949861294 3.5535383304575809 0.86602541151947299 0 -0.49999998660252726 0.12499999665063181 0 0.21650635287986825 1 I I -0.70710678118654746 0.70710678118654746 0.25 forward I I I I #
loop $-1 $-1 $314 $83 #
coedge $-1 $198 $198 $315 $316 reversed $124 $-1 #
face $-1 $-1 $317 $66 $-1 $318 forward single #
loop $-1 $319 $320 $126 #
cone-surface $-1 -36.331593425246425 -10.229407837586761 3.5535383304575809 0.86602541151947299 0 -0.49999998660252726 0.12499999665063181 0 0.21650635287986825 1 I I -0.70710678118654746 0.70710678118654746 0.25 forward I I I I #
loop $-1 $-1 $321 $84 #
coedge $-1 $203 $203 $322 $323 reversed $127 $-1 #
face $-1 $-1 $324 $67 $-1 $325 forward single #
loop $-1 $326 $327 $129 #
cone-surface $-1 -36.331593425246425 -7.6326577253122281 3.5535383304575809 0.86602541151947299 0 -0.49999998660252726 0.12499999665063181 0 0.21650635287986825 1 I I -0.70710678118654746 0.70710678118654746 0.25 forward I I I I #
loop $-1 $-1 $328 $85 #
coedge $-1 $208 $208 $329 $330 reversed $130 $-1 #
face $-1 $331 $332 $68 $-1 $333 reversed single #
loop $-1 $-1 $334 $132 #
plane-surface $-1 -40.230719931638546 7.835807042280269 0.74605047818388215 -0.86602541151947299 0 0.49999998660252726 0.49999998660252726 0 0.86602541151947299 forward_v I I I I #
coedge $-1 $335 $336 $337 $338 reversed $133 $-1 #
face $-1 $-1 $339 $69 $-1 $340 forward single #
loop $-1 $341 $342 $135 #
cone-surface $-1 -36.331593425246425 5.2390569300057344 3.5535383304575809 0.86602541151947299 0 -0.49999998660252726 0.12499999665063181 0 0.21650635287986825 1 I I -0.70710678118654746 0.70710678118654746 0.25 forward I I I I #
loop $-1 $-1 $343 $87 #
coedge $-1 $217 $217 $344 $345 reversed $136 $-1 #
face $-1 $-1 $346 $70 $-1 $347 forward single #
loop $-1 $348 $349 $138 #
cone-surface $-1 -36.331593425246425 7.835807042280269 3.5535383304575809 0.86602541151947299 0 -0.49999998660252726 0.12499999665063181 0 0.21650635287986825 1 I I -0.70710678118654746 0.70710678118654746 0.25 forward I I I I #
loop $-1 $-1 $350 $88 #
coedge $-1 $222 $222 $351 $352 reversed $139 $-1 #
face $-1 $-1 $353 $71 $-1 $354 forward single #
loop $-1 $355 $356 $141 #
cone-surface $-1 -36.331593425246425 10.432557154554804 3.5535383304575809 0.86602541151947299 0 -0.49999998660252726 0.12499999665063181 0 0.21650635287986825 1 I I -0.70710678118654746 0.70710678118654746 0.25 forward I I I I #
loop $-1 $-1 $357 $89 #
coedge $-1 $227 $227 $358 $359 reversed $142 $-1 #
face $-1 $360 $361 $54 $-1 $362 reversed single #
loop $-1 $-1 $363 $144 #
plane-surface $-1 0 -21.573105068356409 0 0 1 0 0 0 1 forward_v I I I I #
coedge $-1 $364 $365 $366 $367 forward $145 $-1 #
coedge $-1 $368 $147 $369 $370 forward $91 $-1 #
coedge $-1 $147 $368 $371 $372 forward $91 $-1 #
coedge $-1 $373 $374 $147 $235 reversed $375 $-1 #
edge $-1 $376 -21.573105068356409 $377 21.573105068356409 $234 $378 forward 7 unknown #
face $-1 $379 $380 $55 $-1 $381 reversed single #
loop $-1 $-1 $382 $148 #
plane-surface $-1 -40.230719931638539 0 0 1 0 0 0 0 -1 forward_v I I I I #
coedge $-1 $383 $384 $385 $386 reversed $149 $-1 #
coedge $-1 $387 $151 $388 $389 reversed $94 $-1 #
coedge $-1 $151 $387 $390 $391 forward $94 $-1 #
coedge $-1 $392 $393 $151 $243 forward $394 $-1 #
edge $-1 $395 -12.540497628422894 $396 -5.5247172514441338 $242 $397 forward 7 unknown #
face $-1 $398 $399 $56 $-1 $400 forward single #
loop $-1 $-1 $401 $152 #
plane-surface $-1 0 -14.557324691377648 6.3444853172204674 0 -1 0 0 0 -1 forward_v I I I I #
coedge $-1 $402 $403 $404 $405 reversed $153 $-1 #
coedge $-1 $249 $155 $406 $407 reversed $97 $-1 #
coedge $-1 $155 $248 $402 $408 reversed $97 $-1 #
coedge $-1 $404 $409 $155 $251 forward $399 $-1 #
edge $-1 $410 -5.3898936081266342 $411 -1.0089747019542443 $250 $412 forward 7 unknown #
loop $-1 $-1 $257 $156 #
plane-surface $-1 1.0779799453075611e-006 -10.229407837586761 70.42770204722774 0.86602541151947299 0 0.49999998660252726 0.49999998660252726 0 -0.86602541151947299 forward_v I I I I #
loop $-1 $-1 $413 $99 #
coedge $-1 $255 $255 $256 $414 reversed $157 $-1 #
coedge $-1 $256 $256 $255 $414 forward $159 $-1 #
coedge $-1 $257 $257 $160 $258 forward $252 $-1 #
edge $-1 $415 0 $415 6.2831853071796004 $257 $416 forward 7 unknown #
loop $-1 $-1 $264 $161 #
plane-surface $-1 1.0779799453075611e-006 -10.229407837586761 70.42770204722774 0.86602541151947299 0 0.49999998660252726 0.49999998660252726 0 -0.86602541151947299 forward_v I I I I #
loop $-1 $-1 $417 $102 #
coedge $-1 $262 $262 $263 $418 reversed $162 $-1 #
coedge $-1 $263 $263 $262 $418 forward $164 $-1 #
coedge $-1 $264 $264 $165 $265 forward $259 $-1 #
edge $-1 $419 0 $419 6.2831853071796004 $264 $420 forward 7 unknown #
loop $-1 $-1 $271 $166 #
plane-surface $-1 1.0779799453075611e-006 -10.229407837586761 70.42770204722774 0.86602541151947299 0 0.49999998660252726 0.49999998660252726 0 -0.86602541151947299 forward_v I I I I #
loop $-1 $-1 $421 $105 #
coedge $-1 $269 $269 $270 $422 reversed $167 $-1 #
coedge $-1 $270 $270 $269 $422 forward $169 $-1 #
coedge $-1 $271 $271 $170 $272 forward $266 $-1 #
edge $-1 $423 0 $423 6.2831853071796004 $271 $424 forward 7 unknown #
face $-1 $425 $426 $60 $-1 $427 reversed single #
loop $-1 $-1 $428 $171 #
plane-surface $-1 69.68165264702381 3.5078901884893803 110.65842090088633 0 1 0 0.86602541151947299 0 0.49999998660252726 forward_v I I I I #
coedge $-1 $429 $430 $431 $432 reversed $172 $-1 #
coedge $-1 $278 $174 $433 $434 reversed $109 $-1 #
coedge $-1 $174 $277 $429 $435 reversed $109 $-1 #
coedge $-1 $431 $436 $174 $280 forward $437 $-1 #
edge $-1 $438 -5.3898936081266342 $439 -1.0089747019542443 $279 $440 forward 7 unknown #
loop $-1 $-1 $286 $175 #
plane-surface $-1 1.0779799453075611e-006 7.835807042280269 70.42770204722774 0.86602541151947299 0 0.49999998660252726 0.49999998660252726 0 -0.86602541151947299 forward_v I I I I #
loop $-1 $-1 $441 $111 #
coedge $-1 $284 $284 $285 $442 reversed $176 $-1 #
coedge $-1 $285 $285 $284 $442 forward $178 $-1 #
coedge $-1 $286 $286 $179 $287 forward $281 $-1 #
edge $-1 $443 0 $443 6.2831853071796004 $286 $444 forward 7 unknown #
loop $-1 $-1 $293 $180 #
plane-surface $-1 1.0779799453075611e-006 7.835807042280269 70.42770204722774 0.86602541151947299 0 0.49999998660252726 0.49999998660252726 0 -0.86602541151947299 forward_v I I I I #
loop $-1 $-1 $445 $114 #
coedge $-1 $291 $291 $292 $446 reversed $181 $-1 #
coedge $-1 $292 $292 $291 $446 forward $183 $-1 #
coedge $-1 $293 $293 $184 $294 forward $288 $-1 #
edge $-1 $447 0 $447 6.2831853071796004 $293 $448 forward 7 unknown #
loop $-1 $-1 $300 $185 #
plane-surface $-1 1.0779799453075611e-006 7.835807042280269 70.42770204722774 0.86602541151947299 0 0.49999998660252726 0.49999998660252726 0 -0.86602541151947299 forward_v I I I I #
loop $-1 $-1 $449 $117 #
coedge $-1 $298 $298 $299 $450 reversed $186 $-1 #
coedge $-1 $299 $299 $298 $450 forward $188 $-1 #
coedge $-1 $300 $300 $189 $301 forward $295 $-1 #
edge $-1 $451 0 $451 6.2831853071796004 $300 $452 forward 7 unknown #
face $-1 $453 $454 $64 $-1 $455 reversed single #
loop $-1 $-1 $308 $190 #
plane-surface $-1 0 0 8.3340248786059981 0 0 1 1 0 0 forward_v I I I I #
coedge $-1 $456 $457 $458 $459 reversed $191 $-1 #
coedge $-1 $460 $193 $461 $462 reversed $121 $-1 #
coedge $-1 $193 $460 $456 $463 forward $121 $-1 #
coedge $-1 $458 $464 $193 $309 forward $303 $-1 #
edge $-1 $465 -9.4426207725842701 $466 -0.78678706500249174 $308 $467 forward 7 unknown #
loop $-1 $-1 $315 $194 #
plane-surface $-1 -40.230719931638546 -10.229407837586761 0.74605047818388215 -0.86602541151947299 0 0.49999998660252726 0.49999998660252726 0 0.86602541151947299 forward_v I I I I #
loop $-1 $-1 $468 $123 #
coedge $-1 $313 $313 $314 $469 reversed $195 $-1 #
coedge $-1 $314 $314 $313 $469 forward $197 $-1 #
coedge $-1 $315 $315 $198 $316 forward $310 $-1 #
edge $-1 $470 0 $470 6.2831853071796004 $315 $471 forward 7 unknown #
loop $-1 $-1 $322 $199 #
plane-surface $-1 -40.230719931638546 -10.229407837586761 0.74605047818388215 -0.86602541151947299 0 0.49999998660252726 0.49999998660252726 0 0.86602541151947299 forward_v I I I I #
loop $-1 $-1 $472 $126 #
coedge $-1 $320 $320 $321 $473 reversed $200 $-1 #
coedge $-1 $321 $321 $320 $473 forward $202 $-1 #
coedge $-1 $322 $322 $203 $323 forward $317 $-1 #
edge $-1 $474 0 $474 6.2831853071796004 $322 $475 forward 7 unknown #
loop $-1 $-1 $329 $204 #
plane-surface $-1 -40.230719931638546 -10.229407837586761 0.74605047818388215 -0.86602541151947299 0 0.49999998660252726 0.49999998660252726 0 0.86602541151947299 forward_v I I I I #
loop $-1 $-1 $476 $129 #
coedge $-1 $327 $327 $328 $477 reversed $205 $-1 #
coedge $-1 $328 $328 $327 $477 forward $207 $-1 #
coedge $-1 $329 $329 $208 $330 forward $324 $-1 #
edge $-1 $478 0 $478 6.2831853071796004 $329 $479 forward 7 unknown #
face $-1 $480 $481 $68 $-1 $482 forward single #
loop $-1 $-1 $483 $209 #
plane-surface $-1 -109.91237150068241 12.163723896071158 40.976769331842476 0 -1 0 0.86602541151947299 0 -0.49999998660252726 forward_v I I I I #
coedge $-1 $484 $485 $486 $487 reversed $210 $-1 #
coedge $-1 $336 $212 $488 $489 reversed $133 $-1 #
coedge $-1 $212 $335 $484 $490 reversed $133 $-1 #
coedge $-1 $486 $491 $212 $338 forward $481 $-1 #
edge $-1 $492 14.725465818702666 $493 19.106384724875042 $337 $494 forward 7 unknown #
loop $-1 $-1 $344 $213 #
plane-surface $-1 -40.230719931638546 7.835807042280269 0.74605047818388215 -0.86602541151947299 0 0.49999998660252726 0.49999998660252726 0 0.86602541151947299 forward_v I I I I #
loop $-1 $-1 $495 $135 #
coedge $-1 $342 $342 $343 $496 reversed $214 $-1 #
coedge $-1 $343 $343 $342 $496 forward $216 $-1 #
coedge $-1 $344 $344 $217 $345 forward $339 $-1 #
edge $-1 $497 0 $497 6.2831853071796004 $344 $498 forward 7 unknown #
loop $-1 $-1 $351 $218 #
plane-surface $-1 -40.230719931638546 7.835807042280269 0.74605047818388215 -0.86602541151947299 0 0.49999998660252726 0.49999998660252726 0 0.86602541151947299 forward_v I I I I #
loop $-1 $-1 $499 $138 #
coedge $-1 $349 $349 $350 $500 reversed $219 $-1 #
coedge $-1 $350 $350 $349 $500 forward $221 $-1 #
coedge $-1 $351 $351 $222 $352 forward $346 $-1 #
edge $-1 $501 0 $501 6.2831853071796004 $351 $502 forward 7 unknown #
loop $-1 $-1 $358 $223 #
plane-surface $-1 -40.230719931638546 7.835807042280269 0.74605047818388215 -0.86602541151947299 0 0.49999998660252726 0.49999998660252726 0 0.86602541151947299 forward_v I I I I #
loop $-1 $-1 $503 $141 #
coedge $-1 $356 $356 $357 $504 reversed $224 $-1 #
coedge $-1 $357 $357 $356 $504 forward $226 $-1 #
coedge $-1 $358 $358 $227 $359 forward $353 $-1 #
edge $-1 $505 0 $505 6.2831853071796004 $358 $506 forward 7 unknown #
face $-1 $507 $508 $54 $-1 $509 reversed single #
loop $-1 $-1 $510 $228 #
plane-surface $-1 -40.230719931638539 0 0 1 0 0 0 0 -1 forward_v I I I I #
coedge $-1 $511 $371 $512 $513 forward $229 $-1 #
coedge $-1 $514 $231 $511 $515 forward $145 $-1 #
coedge $-1 $231 $514 $516 $517 forward $145 $-1 #
coedge $-1 $374 $373 $231 $367 reversed $375 $-1 #
edge $-1 $518 -21.573105068356409 $519 21.573105068356409 $366 $520 forward 7 unknown #
coedge $-1 $233 $232 $521 $522 forward $91 $-1 #
coedge $-1 $523 $524 $232 $370 reversed $508 $-1 #
edge $-1 $377 -40.230719931638539 $525 40.230719931638539 $369 $526 forward 7 unknown #
coedge $-1 $363 $527 $233 $372 reversed $229 $-1 #
edge $-1 $528 -40.230719931638539 $376 40.230719931638539 $371 $529 forward 7 unknown #
coedge $-1 $366 $234 $527 $530 forward $375 $-1 #
coedge $-1 $234 $366 $523 $531 reversed $375 $-1 #
loop $-1 $-1 $373 $507 #
vertex $-1 $235 $532 #
vertex $-1 $235 $533 #
straight-curve $-1 40.230719931638539 0 8.3340248786059981 0 1 0 I I #
face $-1 $534 $535 $55 $-1 $536 forward single #
loop $-1 $-1 $388 $236 #
plane-surface $-1 0 -21.573105068356409 0 0 1 0 0 0 1 forward_v I I I I #
coedge $-1 $537 $538 $384 $539 forward $237 $-1 #
coedge $-1 $390 $239 $392 $540 reversed $149 $-1 #
coedge $-1 $239 $390 $382 $539 reversed $149 $-1 #
coedge $-1 $541 $542 $239 $386 forward $535 $-1 #
edge $-1 $543 -40.230719931638539 $544 40.230719931638539 $385 $545 forward 7 unknown #
coedge $-1 $241 $240 $537 $546 reversed $94 $-1 #
coedge $-1 $547 $548 $240 $389 forward $380 $-1 #
edge $-1 $549 -40.230719931638539 $395 40.230719931638539 $388 $550 forward 7 unknown #
coedge $-1 $384 $383 $241 $391 reversed $149 $-1 #
edge $-1 $551 -40.230719931638539 $396 40.230719931638539 $390 $552 forward 7 unknown #
coedge $-1 $553 $242 $383 $540 forward $394 $-1 #
coedge $-1 $242 $553 $547 $554 forward $394 $-1 #
loop $-1 $-1 $392 $534 #
vertex $-1 $389 $555 #
vertex $-1 $243 $556 #
straight-curve $-1 40.230719931638539 -9.0326074399335141 4.3549457558349367 0 1 0 I I #
face $-1 $-1 $557 $56 $-1 $558 reversed single #
loop $-1 $-1 $404 $244 #
plane-surface $-1 0 0 8.3340248786059981 0 0 1 1 0 0 forward_v I I I I #
coedge $-1 $559 $560 $403 $561 reversed $245 $-1 #
coedge $-1 $562 $247 $249 $408 forward $153 $-1 #
coedge $-1 $247 $562 $401 $561 forward $153 $-1 #
coedge $-1 $563 $250 $247 $405 forward $399 $-1 #
edge $-1 $411 0.78678706500249174 $564 9.4426207725842666 $404 $565 forward 7 unknown #
coedge $-1 $566 $567 $248 $407 forward $557 $-1 #
edge $-1 $568 -54.583159972259288 $410 -46.995185571837169 $406 $569 forward 7 unknown #
edge $-1 $411 71.69960181615933 $568 80.461439863277079 $249 $570 forward 7 unknown #
coedge $-1 $250 $563 $566 $571 forward $399 $-1 #
vertex $-1 $407 $572 #
vertex $-1 $251 $573 #
straight-curve $-1 34.840826323511905 -5.9014909837958722 8.3340248786060016 -1 0 0 I I #
coedge $-1 $413 $413 $-1 $574 reversed $254 $-1 #
edge $-1 $575 0 $575 6.2831853071796004 $255 $576 forward 7 unknown #
vertex $-1 $258 $577 #
ellipse-curve $-1 38.040260478552341 -12.826157949861294 4.5400376783949383 0.86602541151947299 0 0.49999998660252726 0.24999999330126363 0 -0.43301270575973649 1 I I #
coedge $-1 $417 $417 $-1 $578 reversed $261 $-1 #
edge $-1 $579 0 $579 6.2831853071796004 $262 $580 forward 7 unknown #
vertex $-1 $265 $581 #
ellipse-curve $-1 38.040260478552341 -10.229407837586761 4.5400376783949383 0.86602541151947299 0 0.49999998660252726 0.24999999330126363 0 -0.43301270575973649 1 I I #
coedge $-1 $421 $421 $-1 $582 reversed $268 $-1 #
edge $-1 $583 0 $583 6.2831853071796004 $269 $584 forward 7 unknown #
vertex $-1 $272 $585 #
ellipse-curve $-1 38.040260478552341 -7.6326577253122281 4.5400376783949383 0.86602541151947299 0 0.49999998660252726 0.24999999330126363 0 -0.43301270575973649 1 I I #
face $-1 $-1 $437 $60 $-1 $586 forward single #
loop $-1 $-1 $587 $273 #
plane-surface $-1 40.230719931638539 0 0 -1 0 0 0 0 1 forward_v I I I I #
coedge $-1 $588 $589 $590 $591 reversed $274 $-1 #
coedge $-1 $592 $276 $278 $435 forward $172 $-1 #
coedge $-1 $276 $592 $588 $593 forward $172 $-1 #
coedge $-1 $590 $279 $276 $432 forward $437 $-1 #
edge $-1 $439 -8.2458203749310233 $594 0.41001333265075424 $431 $595 forward 7 unknown #
coedge $-1 $596 $597 $277 $434 forward $426 $-1 #
edge $-1 $598 -54.583159972259288 $438 -46.995185571837169 $433 $599 forward 7 unknown #
edge $-1 $439 71.69960181615933 $598 80.461439863277079 $278 $600 forward 7 unknown #
coedge $-1 $279 $590 $596 $601 forward $437 $-1 #
loop $-1 $-1 $590 $425 #
vertex $-1 $434 $602 #
vertex $-1 $280 $603 #
straight-curve $-1 34.840826323511905 12.163723896071158 8.3340248786060016 -1 0 0 I I #
coedge $-1 $441 $441 $-1 $604 reversed $283 $-1 #
edge $-1 $605 0 $605 6.2831853071796004 $284 $606 forward 7 unknown #
vertex $-1 $287 $607 #
ellipse-curve $-1 38.040260478552341 5.2390569300057344 4.5400376783949383 0.86602541151947299 0 0.49999998660252726 0.24999999330126363 0 -0.43301270575973649 1 I I #
coedge $-1 $445 $445 $-1 $608 reversed $290 $-1 #
edge $-1 $609 0 $609 6.2831853071796004 $291 $610 forward 7 unknown #
vertex $-1 $294 $611 #
ellipse-curve $-1 38.040260478552341 7.835807042280269 4.5400376783949383 0.86602541151947299 0 0.49999998660252726 0.24999999330126363 0 -0.43301270575973649 1 I I #
coedge $-1 $449 $449 $-1 $612 reversed $297 $-1 #
edge $-1 $613 0 $613 6.2831853071796004 $298 $614 forward 7 unknown #
vertex $-1 $301 $615 #
ellipse-curve $-1 38.040260478552341 10.432557154554804 4.5400376783949383 0.86602541151947299 0 0.49999998660252726 0.24999999330126363 0 -0.43301270575973649 1 I I #
face $-1 $-1 $616 $64 $-1 $617 forward single #
loop $-1 $-1 $618 $302 #
plane-surface $-1 -40.230719931638539 0 0 1 0 0 0 0 -1 forward_v I I I I #
coedge $-1 $457 $305 $307 $463 reversed $191 $-1 #
coedge $-1 $305 $456 $618 $619 reversed $191 $-1 #
coedge $-1 $620 $308 $305 $459 forward $303 $-1 #
edge $-1 $466 -19.106384724875042 $621 -14.725465818702666 $458 $622 forward 7 unknown #
coedge $-1 $307 $306 $623 $624 reversed $121 $-1 #
coedge $-1 $625 $626 $306 $462 forward $616 $-1 #
edge $-1 $627 -12.481873131085443 $465 -3.7200350839677183 $461 $628 forward 7 unknown #
edge $-1 $629 1.4225156588357017e-014 $466 8.7618380471177382 $456 $630 forward 7 unknown #
coedge $-1 $308 $620 $625 $631 forward $303 $-1 #
vertex $-1 $462 $632 #
vertex $-1 $309 $633 #
straight-curve $-1 -35.849801025466164 -5.1147039187933805 8.3340248786059981 0 1 0 I I #
coedge $-1 $468 $468 $-1 $634 reversed $312 $-1 #
edge $-1 $635 0 $635 6.2831853071796004 $313 $636 forward 7 unknown #
vertex $-1 $316 $637 #
ellipse-curve $-1 -38.040260478552355 -12.826157949861294 4.5400376783949419 -0.86602541151947299 0 0.49999998660252726 0.24999999330126363 0 0.43301270575973649 1 I I #
coedge $-1 $472 $472 $-1 $638 reversed $319 $-1 #
edge $-1 $639 0 $639 6.2831853071796004 $320 $640 forward 7 unknown #
vertex $-1 $323 $641 #
ellipse-curve $-1 -38.040260478552355 -10.229407837586761 4.5400376783949419 -0.86602541151947299 0 0.49999998660252726 0.24999999330126363 0 0.43301270575973649 1 I I #
coedge $-1 $476 $476 $-1 $642 reversed $326 $-1 #
edge $-1 $643 0 $643 6.2831853071796004 $327 $644 forward 7 unknown #
vertex $-1 $330 $645 #
ellipse-curve $-1 -38.040260478552355 -7.6326577253122281 4.5400376783949419 -0.86602541151947299 0 0.49999998660252726 0.24999999330126363 0 0.43301270575973649 1 I I #
face $-1 $-1 $646 $68 $-1 $647 reversed single #
loop $-1 $-1 $337 $331 #
plane-surface $-1 0 0 8.3340248786059981 0 0 1 1 0 0 forward_v I I I I #
coedge $-1 $648 $649 $650 $651 reversed $332 $-1 #
coedge $-1 $652 $334 $336 $490 forward $210 $-1 #
coedge $-1 $334 $652 $648 $653 forward $210 $-1 #
coedge $-1 $650 $337 $334 $487 forward $481 $-1 #
edge $-1 $493 -0.41001333265075424 $654 8.2458203749310233 $486 $655 forward 7 unknown #
coedge $-1 $656 $657 $335 $489 forward $646 $-1 #
edge $-1 $658 -19.742334187737345 $492 -12.15435978731524 $488 $659 forward 7 unknown #
edge $-1 $493 -8.7618380471177382 $658 -1.4225156588357017e-014 $336 $660 forward 7 unknown #
coedge $-1 $337 $650 $656 $661 forward $481 $-1 #
vertex $-1 $338 $662 #
vertex $-1 $338 $663 #
straight-curve $-1 -54.956185750341206 3.5078901884893803 8.3340248786059981 1 0 0 I I #
coedge $-1 $495 $495 $-1 $664 reversed $341 $-1 #
edge $-1 $665 0 $665 6.2831853071796004 $342 $666 forward 7 unknown #
vertex $-1 $345 $667 #
ellipse-curve $-1 -38.040260478552355 5.2390569300057344 4.5400376783949419 -0.86602541151947299 0 0.49999998660252726 0.24999999330126363 0 0.43301270575973649 1 I I #
coedge $-1 $499 $499 $-1 $668 reversed $348 $-1 #
edge $-1 $669 0 $669 6.2831853071796004 $349 $670 forward 7 unknown #
vertex $-1 $352 $671 #
ellipse-curve $-1 -38.040260478552355 7.835807042280269 4.5400376783949419 -0.86602541151947299 0 0.49999998660252726 0.24999999330126363 0 0.43301270575973649 1 I I #
coedge $-1 $503 $503 $-1 $672 reversed $355 $-1 #
edge $-1 $673 0 $673 6.2831853071796004 $356 $674 forward 7 unknown #
vertex $-1 $359 $675 #
ellipse-curve $-1 -38.040260478552355 10.432557154554804 4.5400376783949419 -0.86602541151947299 0 0.49999998660252726 0.24999999330126363 0 0.43301270575973649 1 I I #
face $-1 $-1 $375 $54 $-1 $676 reversed single #
loop $-1 $-1 $523 $360 #
plane-surface $-1 0 21.573105068356409 0 0 -1 0 0 0 -1 forward_v I I I I #
coedge $-1 $677 $521 $524 $678 forward $361 $-1 #
coedge $-1 $527 $363 $364 $515 reversed $229 $-1 #
coedge $-1 $521 $677 $363 $513 reversed $361 $-1 #
edge $-1 $528 -8.3340248786059981 $679 8.3340248786059981 $512 $680 forward 7 unknown #
coedge $-1 $365 $364 $677 $681 forward $145 $-1 #
edge $-1 $519 -40.230719931638539 $679 40.230719931638539 $511 $682 forward 7 unknown #
coedge $-1 $524 $523 $365 $517 reversed $508 $-1 #
edge $-1 $683 -40.230719931638539 $518 40.230719931638539 $516 $684 forward 7 unknown #
vertex $-1 $367 $685 #
vertex $-1 $530 $686 #
straight-curve $-1 40.230719931638539 0 -8.3340248786059981 0 -1 0 I I #
coedge $-1 $510 $512 $368 $522 reversed $361 $-1 #
edge $-1 $525 -21.573105068356409 $528 21.573105068356409 $521 $687 forward 7 unknown #
coedge $-1 $516 $369 $374 $531 forward $508 $-1 #
coedge $-1 $369 $516 $510 $678 reversed $508 $-1 #
vertex $-1 $370 $688 #
straight-curve $-1 0 21.573105068356409 8.3340248786059981 -1 0 0 I I #
coedge $-1 $371 $511 $373 $530 reversed $229 $-1 #
vertex $-1 $522 $689 #
straight-curve $-1 0 -21.573105068356409 8.3340248786059981 1 0 0 I I #
edge $-1 $376 -8.3340248786059981 $519 8.3340248786059981 $373 $690 forward 7 unknown #
edge $-1 $377 -8.3340248786059981 $518 8.3340248786059981 $374 $691 forward 7 unknown #
point $-1 40.230719931638539 -21.573105068356409 8.3340248786059981 #
point $-1 40.230719931638539 21.573105068356409 8.3340248786059981 #
face $-1 $-1 $394 $55 $-1 $692 reversed single #
loop $-1 $-1 $385 $379 #
plane-surface $-1 0 0 8.3340248786059981 0 0 1 1 0 0 forward_v I I I I #
coedge $-1 $693 $382 $387 $546 forward $237 $-1 #
coedge $-1 $382 $693 $541 $694 reversed $237 $-1 #
edge $-1 $544 -5.1617822199957644 $551 -1.182703097224703 $382 $695 forward 7 unknown #
edge $-1 $396 1.182703097224703 $543 5.1617822199957644 $392 $696 forward 7 unknown #
coedge $-1 $697 $385 $538 $694 forward $535 $-1 #
coedge $-1 $385 $697 $553 $698 forward $535 $-1 #
vertex $-1 $540 $699 #
vertex $-1 $694 $700 #
straight-curve $-1 0 -14.557324691377648 8.3340248786059981 -1 0 0 I I #
edge $-1 $551 5.5247172514441338 $549 12.540497628422894 $537 $701 forward 7 unknown #
coedge $-1 $702 $388 $393 $554 reversed $380 $-1 #
coedge $-1 $388 $702 $693 $703 forward $380 $-1 #
vertex $-1 $389 $704 #
straight-curve $-1 0 -21.573105068356409 4.3549457558349367 1 0 0 I I #
vertex $-1 $546 $705 #
straight-curve $-1 0 -14.557324691377648 4.3549457558349367 1 0 0 I I #
coedge $-1 $393 $392 $542 $698 reversed $394 $-1 #
edge $-1 $706 -8.3340248786059981 $395 -4.3549457558349367 $393 $707 forward 7 unknown #
point $-1 40.230719931638539 -21.573105068356409 4.3549457558349367 #
point $-1 40.230719931638539 -14.557324691377648 4.3549457558349367 #
loop $-1 $-1 $406 $398 #
plane-surface $-1 40.230719931638539 0 0 -1 0 0 0 0 1 forward_v I I I I #
coedge $-1 $560 $401 $708 $709 reversed $245 $-1 #
coedge $-1 $401 $559 $563 $710 reversed $245 $-1 #
edge $-1 $711 -80.461439863277079 $564 -71.69960181615933 $401 $712 forward 7 unknown #
coedge $-1 $403 $402 $567 $713 reversed $153 $-1 #
coedge $-1 $409 $404 $560 $710 forward $399 $-1 #
vertex $-1 $710 $714 #
straight-curve $-1 35.849801025466157 -5.1147039187933805 8.3340248786059945 0 -1 0 I I #
coedge $-1 $708 $406 $409 $571 reversed $557 $-1 #
coedge $-1 $406 $708 $562 $713 forward $557 $-1 #
vertex $-1 $407 $715 #
straight-curve $-1 40.230719931638539 -5.9014909837958722 55.329210450443163 0 0 1 I I #
straight-curve $-1 1.0779799453075611e-006 -5.9014909837958722 70.42770204722774 0.49999998660252726 0 -0.86602541151947299 I I #
edge $-1 $716 -14.557324691377648 $410 -5.9014909837958722 $566 $717 forward 7 unknown #
point $-1 40.230719931638539 -5.9014909837958722 8.3340248786059981 #
point $-1 35.849801025466149 -5.9014909837958722 8.3340248786060016 #
edge $-1 $718 1 $718 0 $413 $-1 forward 7 unknown #
vertex $-1 $414 $719 #
ellipse-curve $-1 36.548099778126286 -12.826157949861294 3.6785383271082126 0.86602541151947299 0 0.49999998660252726 0.24999999330126363 0 -0.43301270575973649 1 I I #
point $-1 38.290260471853607 -12.826157949861294 4.1070249726352026 #
edge $-1 $720 1 $720 0 $417 $-1 forward 7 unknown #
vertex $-1 $418 $721 #
ellipse-curve $-1 36.548099778126286 -10.229407837586761 3.6785383271082126 0.86602541151947299 0 0.49999998660252726 0.24999999330126363 0 -0.43301270575973649 1 I I #
point $-1 38.290260471853607 -10.229407837586761 4.1070249726352026 #
edge $-1 $722 1 $722 0 $421 $-1 forward 7 unknown #
vertex $-1 $422 $723 #
ellipse-curve $-1 36.548099778126286 -7.6326577253122281 3.6785383271082126 0.86602541151947299 0 0.49999998660252726 0.24999999330126363 0 -0.43301270575973649 1 I I #
point $-1 38.290260471853607 -7.6326577253122281 4.1070249726352026 #
plane-surface $-1 0 0 8.3340248786059981 0 0 1 1 0 0 forward_v I I I I #
coedge $-1 $597 $596 $589 $724 forward $426 $-1 #
coedge $-1 $589 $428 $430 $593 reversed $274 $-1 #
coedge $-1 $428 $588 $587 $724 reversed $274 $-1 #
coedge $-1 $436 $431 $428 $591 forward $437 $-1 #
edge $-1 $594 1.0089747019542443 $725 5.3898936081266342 $590 $726 forward 7 unknown #
coedge $-1 $430 $429 $597 $727 reversed $172 $-1 #
edge $-1 $728 -80.461439863277079 $594 -71.69960181615933 $588 $729 forward 7 unknown #
vertex $-1 $432 $730 #
straight-curve $-1 35.849801025466157 3.9179035211401345 8.3340248786059945 0 -1 0 I I #
coedge $-1 $587 $433 $436 $601 reversed $426 $-1 #
coedge $-1 $433 $587 $592 $727 forward $426 $-1 #
vertex $-1 $434 $731 #
straight-curve $-1 40.230719931638539 12.163723896071158 55.329210450443163 0 0 1 I I #
straight-curve $-1 1.0779799453075611e-006 12.163723896071158 70.42770204722774 0.49999998660252726 0 -0.86602541151947299 I I #
edge $-1 $725 3.5078901884893803 $438 12.163723896071158 $596 $732 forward 7 unknown #
point $-1 40.230719931638539 12.163723896071158 8.3340248786059981 #
point $-1 35.849801025466149 12.163723896071158 8.3340248786060016 #
edge $-1 $733 1 $733 0 $441 $-1 forward 7 unknown #
vertex $-1 $442 $734 #
ellipse-curve $-1 36.548099778126286 5.2390569300057344 3.6785383271082126 0.86602541151947299 0 0.49999998660252726 0.24999999330126363 0 -0.43301270575973649 1 I I #
point $-1 38.290260471853607 5.2390569300057344 4.1070249726352026 #
edge $-1 $735 1 $735 0 $445 $-1 forward 7 unknown #
vertex $-1 $446 $736 #
ellipse-curve $-1 36.548099778126286 7.835807042280269 3.6785383271082126 0.86602541151947299 0 0.49999998660252726 0.24999999330126363 0 -0.43301270575973649 1 I I #
point $-1 38.290260471853607 7.835807042280269 4.1070249726352026 #
edge $-1 $737 1 $737 0 $449 $-1 forward 7 unknown #
vertex $-1 $450 $738 #
ellipse-curve $-1 36.548099778126286 10.432557154554804 3.6785383271082126 0.86602541151947299 0 0.49999998660252726 0.24999999330126363 0 -0.43301270575973649 1 I I #
point $-1 38.290260471853607 10.432557154554804 4.1070249726352026 #
loop $-1 $-1 $461 $453 #
plane-surface $-1 0 -14.557324691377648 6.3444853172204674 0 -1 0 0 0 -1 forward_v I I I I #
coedge $-1 $623 $739 $457 $619 forward $454 $-1 #
edge $-1 $621 12.15435978731524 $629 19.742334187737345 $618 $740 forward 7 unknown #
coedge $-1 $464 $458 $739 $741 forward $303 $-1 #
vertex $-1 $741 $742 #
straight-curve $-1 -54.956185750341206 -5.9014909837958722 8.3340248786059981 -1 0 0 I I #
coedge $-1 $743 $618 $460 $624 forward $454 $-1 #
edge $-1 $629 0.78678706500249174 $627 9.4426207725842701 $623 $744 forward 7 unknown #
coedge $-1 $626 $461 $464 $631 reversed $616 $-1 #
coedge $-1 $461 $625 $743 $745 reversed $616 $-1 #
vertex $-1 $745 $746 #
straight-curve $-1 -33.989783533321372 -14.557324691377648 11.555669793066018 0.49999998660252726 0 0.86602541151947299 I I #
vertex $-1 $624 $747 #
straight-curve $-1 -40.230719931638546 -5.9014909837958722 0.74605047818388215 0.49999998660252726 0 0.86602541151947299 I I #
edge $-1 $748 -40.230719931638539 $465 -35.849801025466164 $464 $749 forward 7 unknown #
point $-1 -35.849801025466164 -14.55732469137765 8.3340248786059981 #
point $-1 -35.849801025466164 -5.9014909837958722 8.3340248786059981 #
edge $-1 $750 1 $750 0 $468 $-1 forward 7 unknown #
vertex $-1 $469 $751 #
ellipse-curve $-1 -36.548099778126293 -12.826157949861294 3.6785383271082126 -0.86602541151947299 0 0.49999998660252726 0.24999999330126363 0 0.43301270575973649 1 I I #
point $-1 -37.790260485251089 -12.826157949861294 4.9730503841546758 #
edge $-1 $752 1 $752 0 $472 $-1 forward 7 unknown #
vertex $-1 $473 $753 #
ellipse-curve $-1 -36.548099778126293 -10.229407837586761 3.6785383271082126 -0.86602541151947299 0 0.49999998660252726 0.24999999330126363 0 0.43301270575973649 1 I I #
point $-1 -37.790260485251089 -10.229407837586761 4.9730503841546758 #
edge $-1 $754 1 $754 0 $476 $-1 forward 7 unknown #
vertex $-1 $477 $755 #
ellipse-curve $-1 -36.548099778126293 -7.6326577253122281 3.6785383271082126 -0.86602541151947299 0 0.49999998660252726 0.24999999330126363 0 0.43301270575973649 1 I I #
point $-1 -37.790260485251089 -7.6326577253122281 4.9730503841546758 #
loop $-1 $-1 $488 $480 #
plane-surface $-1 -40.230719931638539 0 0 1 0 0 0 0 -1 forward_v I I I I #
coedge $-1 $649 $483 $485 $653 reversed $332 $-1 #
coedge $-1 $483 $648 $756 $757 reversed $332 $-1 #
coedge $-1 $491 $486 $483 $651 forward $481 $-1 #
edge $-1 $654 -19.106384724875042 $758 -14.725465818702666 $650 $759 forward 7 unknown #
coedge $-1 $485 $484 $657 $760 reversed $210 $-1 #
edge $-1 $761 1.4225156588357017e-014 $654 8.7618380471177382 $648 $762 forward 7 unknown #
vertex $-1 $487 $763 #
straight-curve $-1 -35.849801025466164 3.9179035211401345 8.3340248786059981 0 1 0 I I #
coedge $-1 $756 $488 $491 $661 reversed $646 $-1 #
coedge $-1 $488 $756 $652 $760 forward $646 $-1 #
vertex $-1 $489 $764 #
straight-curve $-1 -40.230719931638539 3.5078901884893803 20.488384665921238 0 0 1 I I #
straight-curve $-1 -40.230719931638546 3.5078901884893803 0.74605047818388215 -0.49999998660252726 0 -0.86602541151947299 I I #
edge $-1 $758 -12.163723896071158 $492 -3.5078901884893803 $656 $765 forward 7 unknown #
point $-1 -40.230719931638539 3.5078901884893803 8.3340248786059981 #
point $-1 -35.849801025466164 3.5078901884893803 8.3340248786059981 #
edge $-1 $766 1 $766 0 $495 $-1 forward 7 unknown #
vertex $-1 $496 $767 #
ellipse-curve $-1 -36.548099778126293 5.2390569300057344 3.6785383271082126 -0.86602541151947299 0 0.49999998660252726 0.24999999330126363 0 0.43301270575973649 1 I I #
point $-1 -37.790260485251089 5.2390569300057344 4.9730503841546758 #
edge $-1 $768 1 $768 0 $499 $-1 forward 7 unknown #
vertex $-1 $500 $769 #
ellipse-curve $-1 -36.548099778126293 7.835807042280269 3.6785383271082126 -0.86602541151947299 0 0.49999998660252726 0.24999999330126363 0 0.43301270575973649 1 I I #
point $-1 -37.790260485251089 7.835807042280269 4.9730503841546758 #
edge $-1 $770 1 $770 0 $503 $-1 forward 7 unknown #
vertex $-1 $504 $771 #
ellipse-curve $-1 -36.548099778126293 10.432557154554804 3.6785383271082126 -0.86602541151947299 0 0.49999998660252726 0.24999999330126363 0 0.43301270575973649 1 I I #
point $-1 -37.790260485251089 10.432557154554804 4.9730503841546758 #
plane-surface $-1 40.230719931638539 0 0 -1 0 0 0 0 1 forward_v I I I I #
coedge $-1 $512 $510 $514 $681 reversed $361 $-1 #
edge $-1 $525 -8.3340248786059981 $683 8.3340248786059981 $524 $772 forward 7 unknown #
vertex $-1 $681 $773 #
straight-curve $-1 -40.230719931638539 -21.573105068356409 0 0 0 -1 I I #
edge $-1 $679 -21.573105068356409 $683 21.573105068356409 $677 $774 forward 7 unknown #
straight-curve $-1 0 -21.573105068356409 -8.3340248786059981 -1 0 0 I I #
vertex $-1 $517 $775 #
straight-curve $-1 0 21.573105068356409 -8.3340248786059981 1 0 0 I I #
point $-1 40.230719931638539 21.573105068356409 -8.3340248786059981 #
point $-1 40.230719931638539 -21.573105068356409 -8.3340248786059981 #
straight-curve $-1 -40.230719931638539 0 8.3340248786059981 0 -1 0 I I #
point $-1 -40.230719931638539 21.573105068356409 8.3340248786059981 #
point $-1 -40.230719931638539 -21.573105068356409 8.3340248786059981 #
straight-curve $-1 40.230719931638539 -21.573105068356409 0 0 0 -1 I I #
straight-curve $-1 40.230719931638539 21.573105068356409 0 0 0 -1 I I #
plane-surface $-1 40.230719931638539 0 0 -1 0 0 0 0 1 forward_v I I I I #
coedge $-1 $538 $537 $548 $703 reversed $237 $-1 #
edge $-1 $544 14.557324691377648 $776 21.573105068356409 $538 $777 forward 7 unknown #
straight-curve $-1 -40.230719931638539 -14.557324691377648 3.1722426586102337 0 0 -1 I I #
straight-curve $-1 40.230719931638539 -14.557324691377648 3.1722426586102337 0 0 1 I I #
coedge $-1 $542 $541 $702 $778 forward $535 $-1 #
edge $-1 $706 -21.573105068356409 $543 -14.557324691377648 $553 $779 forward 7 unknown #
point $-1 40.230719931638539 -14.557324691377648 8.3340248786059981 #
point $-1 -40.230719931638539 -14.557324691377648 8.3340248786059981 #
straight-curve $-1 -40.230719931638539 -9.0326074399335141 4.3549457558349367 0 -1 0 I I #
coedge $-1 $548 $547 $697 $778 reversed $380 $-1 #
edge $-1 $776 -8.3340248786059981 $549 -4.3549457558349367 $693 $780 forward 7 unknown #
point $-1 -40.230719931638539 -21.573105068356409 4.3549457558349367 #
point $-1 -40.230719931638539 -14.557324691377648 4.3549457558349367 #
vertex $-1 $698 $781 #
straight-curve $-1 40.230719931638539 -21.573105068356409 0 0 0 -1 I I #
coedge $-1 $567 $566 $559 $709 forward $557 $-1 #
edge $-1 $716 46.995185571837169 $711 54.583159972259288 $708 $782 forward 7 unknown #
edge $-1 $564 35.849801025466149 $716 40.230719931638539 $563 $783 forward 7 unknown #
vertex $-1 $709 $784 #
straight-curve $-1 1.0779799453075611e-006 -14.55732469137765 70.42770204722774 -0.49999998660252726 0 0.86602541151947299 I I #
edge $-1 $711 -9.4426207725842701 $568 -0.78678706500249174 $567 $785 forward 7 unknown #
point $-1 35.849801025466149 -14.557324691377648 8.3340248786059981 #
point $-1 40.230719931638539 -5.9014909837958722 0.74605047818387504 #
vertex $-1 $571 $786 #
straight-curve $-1 40.230719931638539 0 8.3340248786059981 0 1 0 I I #
vertex $-1 $574 $787 #
point $-1 36.798099771427552 -12.826157949861294 3.2455256213484764 #
vertex $-1 $578 $788 #
point $-1 36.798099771427552 -10.229407837586761 3.2455256213484764 #
vertex $-1 $582 $789 #
point $-1 36.798099771427552 -7.6326577253122281 3.2455256213484764 #
edge $-1 $725 46.995185571837169 $728 54.583159972259288 $587 $790 forward 7 unknown #
vertex $-1 $601 $791 #
straight-curve $-1 34.840826323511905 3.5078901884893803 8.3340248786060016 1 0 0 I I #
edge $-1 $728 -0.41001333265075424 $598 8.2458203749310233 $597 $792 forward 7 unknown #
vertex $-1 $727 $793 #
straight-curve $-1 1.0779799453075611e-006 3.5078901884893803 70.42770204722774 -0.49999998660252726 0 0.86602541151947299 I I #
point $-1 35.849801025466149 3.5078901884893803 8.3340248786060016 #
point $-1 40.230719931638539 12.163723896071158 0.74605047818387504 #
straight-curve $-1 40.230719931638539 0 8.3340248786059981 0 1 0 I I #
vertex $-1 $604 $794 #
point $-1 36.798099771427552 5.2390569300057344 3.2455256213484764 #
vertex $-1 $608 $795 #
point $-1 36.798099771427552 7.835807042280269 3.2455256213484764 #
vertex $-1 $612 $796 #
point $-1 36.798099771427552 10.432557154554804 3.2455256213484764 #
coedge $-1 $618 $743 $620 $741 reversed $454 $-1 #
straight-curve $-1 -40.230719931638539 -5.9014909837958722 20.488384665921238 0 0 -1 I I #
edge $-1 $621 5.9014909837958722 $748 14.557324691377648 $739 $797 forward 7 unknown #
point $-1 -40.230719931638539 -5.9014909837958722 8.3340248786059981 #
coedge $-1 $739 $623 $626 $745 forward $454 $-1 #
straight-curve $-1 -40.230719931638539 -5.1147039187933805 0.74605047818390635 0 -1 0 I I #
edge $-1 $627 -19.742334187737345 $748 -12.15435978731524 $743 $798 forward 7 unknown #
point $-1 -40.230719931638539 -14.55732469137765 0.74605047818389447 #
point $-1 -40.230719931638539 -5.9014909837958722 0.74605047818389447 #
vertex $-1 $745 $799 #
straight-curve $-1 0 -14.557324691377648 8.3340248786059981 1 0 0 I I #
vertex $-1 $634 $800 #
point $-1 -36.298099784825027 -12.826157949861294 4.1115510328679488 #
vertex $-1 $638 $801 #
point $-1 -36.298099784825027 -10.229407837586761 4.1115510328679488 #
vertex $-1 $642 $802 #
point $-1 -36.298099784825027 -7.6326577253122281 4.1115510328679488 #
coedge $-1 $657 $656 $649 $757 forward $646 $-1 #
edge $-1 $758 12.15435978731524 $761 19.742334187737345 $756 $803 forward 7 unknown #
vertex $-1 $661 $804 #
straight-curve $-1 -54.956185750341206 12.163723896071158 8.3340248786059981 -1 0 0 I I #
edge $-1 $761 -8.2458203749310233 $658 0.41001333265075424 $657 $805 forward 7 unknown #
vertex $-1 $760 $806 #
straight-curve $-1 -40.230719931638546 12.163723896071158 0.74605047818388215 0.49999998660252726 0 0.86602541151947299 I I #
point $-1 -35.849801025466164 12.163723896071158 8.3340248786059981 #
point $-1 -40.230719931638539 3.5078901884893803 0.74605047818389447 #
straight-curve $-1 -40.230719931638539 0 8.3340248786059981 0 -1 0 I I #
vertex $-1 $664 $807 #
point $-1 -36.298099784825027 5.2390569300057344 4.1115510328679488 #
vertex $-1 $668 $808 #
point $-1 -36.298099784825027 7.835807042280269 4.1115510328679488 #
vertex $-1 $672 $809 #
point $-1 -36.298099784825027 10.432557154554804 4.1115510328679488 #
straight-curve $-1 -40.230719931638539 21.573105068356409 0 0 0 -1 I I #
point $-1 -40.230719931638539 -21.573105068356409 -8.3340248786059981 #
straight-curve $-1 -40.230719931638539 0 -8.3340248786059981 0 1 0 I I #
point $-1 -40.230719931638539 21.573105068356409 -8.3340248786059981 #
vertex $-1 $694 $810 #
straight-curve $-1 -40.230719931638539 0 8.3340248786059981 0 -1 0 I I #
edge $-1 $776 -40.230719931638539 $706 40.230719931638539 $702 $811 forward 7 unknown #
straight-curve $-1 40.230719931638539 0 8.3340248786059981 0 1 0 I I #
straight-curve $-1 -40.230719931638539 -21.573105068356409 0 0 0 -1 I I #
point $-1 40.230719931638539 -21.573105068356409 8.3340248786059981 #
straight-curve $-1 40.230719931638539 -14.55732469137765 55.329210450443163 0 0 -1 I I #
straight-curve $-1 0 -14.557324691377648 8.3340248786059981 1 0 0 I I #
point $-1 40.230719931638539 -14.55732469137765 0.74605047818387504 #
straight-curve $-1 40.230719931638539 -5.1147039187933805 0.74605047818386794 0 1 0 I I #
point $-1 40.230719931638539 -14.557324691377648 8.3340248786059981 #
point $-1 36.115087072366549 -12.826157949861294 3.4285383338069493 #
point $-1 36.115087072366549 -10.229407837586761 3.4285383338069493 #
point $-1 36.115087072366549 -7.6326577253122281 3.4285383338069493 #
straight-curve $-1 40.230719931638539 3.5078901884893803 55.329210450443163 0 0 -1 I I #
point $-1 40.230719931638539 3.5078901884893803 8.3340248786059981 #
straight-curve $-1 40.230719931638539 3.9179035211401345 0.74605047818386794 0 1 0 I I #
point $-1 40.230719931638539 3.5078901884893803 0.74605047818387504 #
point $-1 36.115087072366549 5.2390569300057344 3.4285383338069493 #
point $-1 36.115087072366549 7.835807042280269 3.4285383338069493 #
point $-1 36.115087072366549 10.432557154554804 3.4285383338069493 #
straight-curve $-1 -40.230719931638539 0 8.3340248786059981 0 -1 0 I I #
straight-curve $-1 -40.230719931638539 -14.55732469137765 20.488384665921238 0 0 1 I I #
point $-1 -40.230719931638539 -14.557324691377648 8.3340248786059981 #
point $-1 -36.115087072366556 -12.826157949861294 3.4285383338069493 #
point $-1 -36.115087072366556 -10.229407837586761 3.4285383338069493 #
point $-1 -36.115087072366556 -7.6326577253122281 3.4285383338069493 #
straight-curve $-1 -40.230719931638539 12.163723896071158 20.488384665921238 0 0 -1 I I #
point $-1 -40.230719931638539 12.163723896071158 8.3340248786059981 #
straight-curve $-1 -40.230719931638539 3.9179035211401345 0.74605047818390635 0 -1 0 I I #
point $-1 -40.230719931638539 12.163723896071158 0.74605047818389447 #
point $-1 -36.115087072366556 5.2390569300057344 3.4285383338069493 #
point $-1 -36.115087072366556 7.835807042280269 3.4285383338069493 #
point $-1 -36.115087072366556 10.432557154554804 3.4285383338069493 #
point $-1 -40.230719931638539 -21.573105068356409 8.3340248786059981 #
straight-curve $-1 0 -21.573105068356409 8.3340248786059981 1 0 0 I I #
End-of-ACIS-data 