500 0 5 0           
7 Unknown 11 ACIS 5.0 NT 24 Fri Mar 26 00:22:47 1999 
-1 9.9999999999999995e-007 1e-010 
body $-1 $5 $-1 $6 #
body $-1 $7 $-1 $8 #
body $-1 $9 $-1 $10 #
body $-1 $11 $-1 $12 #
body $-1 $13 $-1 $14 #
lump $-1 $-1 $15 $0 #
transform $-1 1 0 0 0 1 0 0 0 1 47.114474929044462 31.807698512004666 12.617173465666159 1 rotate no_reflect no_shear #
lump $-1 $-1 $16 $1 #
transform $-1 1 0 0 0 1 0 0 0 1 47.114474929044462 31.807698512004666 12.617173465666159 1 rotate no_reflect no_shear #
lump $-1 $-1 $17 $2 #
transform $-1 1 0 0 0 1 0 0 0 1 47.114474929044462 31.807698512004666 12.617173465666159 1 rotate no_reflect no_shear #
lump $-1 $-1 $18 $3 #
transform $-1 1 0 0 0 1 0 0 0 1 47.114474929044462 31.807698512004666 12.617173465666159 1 rotate no_reflect no_shear #
lump $-1 $-1 $19 $4 #
transform $-1 1 0 0 0 1 0 0 0 1 47.114474929044462 31.807698512004666 12.617173465666159 1 rotate no_reflect no_shear #
shell $-1 $-1 $-1 $20 $-1 $5 #
shell $-1 $-1 $-1 $21 $-1 $7 #
shell $-1 $-1 $-1 $22 $-1 $9 #
shell $-1 $-1 $-1 $23 $-1 $11 #
shell $-1 $-1 $-1 $24 $-1 $13 #
face $-1 $25 $26 $15 $-1 $27 forward single #
face $-1 $28 $29 $16 $-1 $30 reversed single #
face $-1 $31 $32 $17 $-1 $33 reversed single #
face $-1 $34 $35 $18 $-1 $36 forward single #
face $-1 $37 $38 $19 $-1 $39 forward single #
face $-1 $40 $41 $15 $-1 $42 reversed single #
loop $-1 $-1 $43 $20 #
plane-surface $-1 0 0 12.617173465666159 0 0 1 1 0 0 forward_v I I I I #
face $-1 $44 $45 $16 $-1 $46 reversed single #
loop $-1 $-1 $47 $21 #
plane-surface $-1 -39.539769644386041 -26.963754337579569 0 0 -1 0 0 0 -1 forward_v I I I I #
face $-1 $48 $49 $17 $-1 $50 reversed single #
loop $-1 $-1 $51 $22 #
plane-surface $-1 -31.912571528675187 -23.744577501528752 52.633892044754475 0.54463904215088732 0 0.83867056331134215 0.83867056331134215 0 -0.54463904215088732 forward_v I I I I #
face $-1 $52 $53 $18 $-1 $54 forward single #
loop $-1 $55 $56 $23 #
cone-surface $-1 36.872729626154104 -27.200200791732716 4.5962328928714502 -0.54463904215088732 0 -0.83867056331134215 1.6773411266226843 0 -1.0892780843017746 1 I I 0 1 2 forward I I I I #
face $-1 $57 $58 $19 $-1 $59 forward single #
loop $-1 $60 $61 $24 #
cone-surface $-1 36.872729626154104 -20.288954211324786 4.5962328928714502 -0.54463904215088732 0 -0.83867056331134215 1.6773411266226843 0 -1.0892780843017746 1 I I 0 1 2 forward I I I I #
face $-1 $62 $63 $15 $-1 $64 reversed single #
loop $-1 $-1 $65 $25 #
plane-surface $-1 0 0 -12.617173465666159 0 0 1 1 0 0 forward_v I I I I #
coedge $-1 $66 $67 $68 $69 forward $26 $-1 #
face $-1 $70 $71 $16 $-1 $72 forward single #
loop $-1 $-1 $73 $28 #
plane-surface $-1 -31.965064359727624 -29.385726424792118 0 -1 0 0 0 0 1 forward_v I I I I #
coedge $-1 $74 $75 $76 $77 forward $29 $-1 #
face $-1 $78 $79 $17 $-1 $80 forward single #
loop $-1 $-1 $81 $31 #
plane-surface $-1 19.408193464918355 -15.681456491052836 131.66093850247412 0 -1 0 -0.54463904215088732 0 -0.83867056331134215 forward_v I I I I #
coedge $-1 $82 $83 $84 $85 reversed $32 $-1 #
face $-1 $-1 $86 $18 $-1 $87 forward single #
loop $-1 $88 $89 $34 #
cone-surface $-1 34.789697630506311 -27.200200791732716 1.3886449640180096 -0.54463904215088732 0 -0.83867056331134215 0.83867056331134215 0 -0.54463904215088732 1 I I -0.70710678118654735 0.70710678118654768 1 forward I I I I #
loop $-1 $-1 $90 $23 #
coedge $-1 $56 $56 $91 $92 reversed $35 $-1 #
face $-1 $-1 $93 $19 $-1 $94 forward single #
loop $-1 $95 $96 $37 #
cone-surface $-1 34.789697630506311 -20.288954211324786 1.3886449640180096 -0.54463904215088732 0 -0.83867056331134215 0.83867056331134215 0 -0.54463904215088732 1 I I -0.70710678118654735 0.70710678118654768 1 forward I I I I #
loop $-1 $-1 $97 $24 #
coedge $-1 $61 $61 $98 $99 reversed $38 $-1 #
face $-1 $100 $101 $15 $-1 $102 reversed single #
loop $-1 $-1 $103 $40 #
plane-surface $-1 0 -31.807698512004666 0 0 1 0 0 0 1 forward_v I I I I #
coedge $-1 $104 $105 $106 $107 forward $41 $-1 #
coedge $-1 $108 $43 $109 $110 forward $26 $-1 #
coedge $-1 $43 $108 $111 $112 forward $26 $-1 #
coedge $-1 $113 $114 $43 $69 reversed $115 $-1 #
edge $-1 $116 -31.807698512004666 $117 31.807698512004666 $68 $118 forward 7 unknown #
face $-1 $119 $120 $16 $-1 $121 reversed single #
loop $-1 $-1 $122 $44 #
plane-surface $-1 0 0 12.617173465666159 0 0 1 1 0 0 forward_v I I I I #
coedge $-1 $123 $124 $125 $126 reversed $45 $-1 #
coedge $-1 $127 $47 $128 $129 reversed $29 $-1 #
coedge $-1 $47 $127 $130 $131 reversed $29 $-1 #
coedge $-1 $124 $123 $47 $77 reversed $45 $-1 #
edge $-1 $132 -12.617173465666159 $133 12.617173465666159 $76 $134 forward 7 unknown #
face $-1 $135 $136 $17 $-1 $137 reversed single #
loop $-1 $-1 $138 $48 #
plane-surface $-1 0 0 12.617173465666159 0 0 1 1 0 0 forward_v I I I I #
coedge $-1 $139 $140 $141 $142 reversed $49 $-1 #
coedge $-1 $143 $51 $144 $145 reversed $32 $-1 #
coedge $-1 $51 $143 $139 $146 forward $32 $-1 #
coedge $-1 $141 $147 $51 $85 forward $148 $-1 #
edge $-1 $149 -19.93540976124029 $150 -3.8091677402884603 $84 $151 forward 7 unknown #
loop $-1 $-1 $91 $52 #
plane-surface $-1 -31.912571528675187 -23.744577501528752 52.633892044754475 0.54463904215088732 0 0.83867056331134215 0.83867056331134215 0 -0.54463904215088732 forward_v I I I I #
loop $-1 $-1 $152 $34 #
coedge $-1 $89 $89 $90 $153 reversed $53 $-1 #
coedge $-1 $90 $90 $89 $153 forward $55 $-1 #
coedge $-1 $91 $91 $56 $92 forward $86 $-1 #
edge $-1 $154 0 $154 6.2831853071796004 $91 $155 forward 7 unknown #
loop $-1 $-1 $98 $57 #
plane-surface $-1 -31.912571528675187 -23.744577501528752 52.633892044754475 0.54463904215088732 0 0.83867056331134215 0.83867056331134215 0 -0.54463904215088732 forward_v I I I I #
loop $-1 $-1 $156 $37 #
coedge $-1 $96 $96 $97 $157 reversed $58 $-1 #
coedge $-1 $97 $97 $96 $157 forward $60 $-1 #
coedge $-1 $98 $98 $61 $99 forward $93 $-1 #
edge $-1 $158 0 $158 6.2831853071796004 $98 $159 forward 7 unknown #
face $-1 $160 $161 $15 $-1 $162 reversed single #
loop $-1 $-1 $163 $62 #
plane-surface $-1 -47.114474929044462 0 0 1 0 0 0 0 -1 forward_v I I I I #
coedge $-1 $164 $111 $165 $166 forward $63 $-1 #
coedge $-1 $167 $65 $164 $168 forward $41 $-1 #
coedge $-1 $65 $167 $169 $170 forward $41 $-1 #
coedge $-1 $114 $113 $65 $107 reversed $115 $-1 #
edge $-1 $171 -31.807698512004666 $172 31.807698512004666 $106 $173 forward 7 unknown #
coedge $-1 $67 $66 $174 $175 forward $26 $-1 #
coedge $-1 $176 $177 $66 $110 reversed $161 $-1 #
edge $-1 $117 -47.114474929044462 $178 47.114474929044462 $109 $179 forward 7 unknown #
coedge $-1 $103 $180 $67 $112 reversed $63 $-1 #
edge $-1 $181 -47.114474929044462 $116 47.114474929044462 $111 $182 forward 7 unknown #
coedge $-1 $106 $68 $180 $183 forward $115 $-1 #
coedge $-1 $68 $106 $176 $184 reversed $115 $-1 #
loop $-1 $-1 $113 $160 #
vertex $-1 $69 $185 #
vertex $-1 $69 $186 #
straight-curve $-1 47.114474929044462 0 12.617173465666159 0 1 0 I I #
face $-1 $187 $188 $16 $-1 $189 reversed single #
loop $-1 $-1 $190 $70 #
plane-surface $-1 -47.114474929044462 0 0 1 0 0 0 0 -1 forward_v I I I I #
coedge $-1 $130 $191 $124 $192 forward $71 $-1 #
coedge $-1 $76 $73 $193 $194 reversed $45 $-1 #
coedge $-1 $73 $76 $122 $192 reversed $45 $-1 #
coedge $-1 $195 $196 $73 $126 forward $197 $-1 #
edge $-1 $198 -12.617173465666159 $199 12.617173465666159 $125 $200 forward 7 unknown #
coedge $-1 $75 $74 $190 $201 reversed $29 $-1 #
coedge $-1 $193 $202 $74 $129 forward $188 $-1 #
edge $-1 $203 -27.344590106851442 $133 -12.195179537534603 $128 $204 forward 7 unknown #
coedge $-1 $205 $122 $75 $131 forward $71 $-1 #
edge $-1 $132 12.195179537534603 $206 27.344590106851442 $130 $207 forward 7 unknown #
vertex $-1 $131 $208 #
vertex $-1 $129 $209 #
straight-curve $-1 -31.965064359727624 -26.963754337579569 0 0 0 -1 I I #
face $-1 $-1 $148 $17 $-1 $210 reversed single #
loop $-1 $-1 $144 $78 #
plane-surface $-1 0 -31.807698512004666 0 0 1 0 0 0 1 forward_v I I I I #
coedge $-1 $211 $212 $140 $213 forward $79 $-1 #
coedge $-1 $140 $81 $83 $146 reversed $49 $-1 #
coedge $-1 $81 $139 $138 $213 reversed $49 $-1 #
coedge $-1 $214 $84 $81 $142 forward $148 $-1 #
edge $-1 $150 -64.517342200076129 $215 -53.213295785570907 $141 $216 forward 7 unknown #
coedge $-1 $83 $82 $211 $217 reversed $32 $-1 #
coedge $-1 $218 $219 $82 $145 forward $136 $-1 #
edge $-1 $220 45.758530567039919 $149 66.513646413791022 $144 $221 forward 7 unknown #
edge $-1 $222 73.473834011337829 $150 94.228949858088924 $139 $223 forward 7 unknown #
coedge $-1 $84 $214 $218 $224 forward $148 $-1 #
loop $-1 $-1 $141 $135 #
vertex $-1 $145 $225 #
vertex $-1 $85 $226 #
straight-curve $-1 47.114474929044455 -11.872288750764376 1.3131270511609401 0 1 0 I I #
coedge $-1 $152 $152 $-1 $227 reversed $88 $-1 #
edge $-1 $228 0 $228 6.2831853071796004 $89 $229 forward 7 unknown #
vertex $-1 $92 $230 #
ellipse-curve $-1 38.411122579651014 -27.200200791732716 6.9651502584135478 0.54463904215088732 0 0.83867056331134215 1.6773411266226843 0 -1.0892780843017746 1 I I #
coedge $-1 $156 $156 $-1 $231 reversed $95 $-1 #
edge $-1 $232 0 $232 6.2831853071796004 $96 $233 forward 7 unknown #
vertex $-1 $99 $234 #
ellipse-curve $-1 38.411122579651014 -20.288954211324786 6.9651502584135478 0.54463904215088732 0 0.83867056331134215 1.6773411266226843 0 -1.0892780843017746 1 I I #
face $-1 $-1 $115 $15 $-1 $235 reversed single #
loop $-1 $-1 $176 $100 #
plane-surface $-1 0 31.807698512004666 0 0 -1 0 0 0 -1 forward_v I I I I #
coedge $-1 $236 $174 $177 $237 forward $101 $-1 #
coedge $-1 $180 $103 $104 $168 reversed $63 $-1 #
coedge $-1 $174 $236 $103 $166 reversed $101 $-1 #
edge $-1 $181 -12.617173465666159 $238 12.617173465666159 $165 $239 forward 7 unknown #
coedge $-1 $105 $104 $236 $240 forward $41 $-1 #
edge $-1 $172 -47.114474929044462 $238 47.114474929044462 $164 $241 forward 7 unknown #
coedge $-1 $177 $176 $105 $170 reversed $161 $-1 #
edge $-1 $242 -47.114474929044462 $171 47.114474929044462 $169 $243 forward 7 unknown #
vertex $-1 $107 $244 #
vertex $-1 $183 $245 #
straight-curve $-1 47.114474929044462 0 -12.617173465666159 0 -1 0 I I #
coedge $-1 $163 $165 $108 $175 reversed $101 $-1 #
edge $-1 $178 -31.807698512004666 $181 31.807698512004666 $174 $246 forward 7 unknown #
coedge $-1 $169 $109 $114 $184 forward $161 $-1 #
coedge $-1 $109 $169 $163 $237 reversed $161 $-1 #
vertex $-1 $110 $247 #
straight-curve $-1 0 31.807698512004666 12.617173465666159 -1 0 0 I I #
coedge $-1 $111 $164 $113 $183 reversed $63 $-1 #
vertex $-1 $175 $248 #
straight-curve $-1 0 -31.807698512004666 12.617173465666159 1 0 0 I I #
edge $-1 $116 -12.617173465666159 $172 12.617173465666159 $113 $249 forward 7 unknown #
edge $-1 $117 -12.617173465666159 $171 12.617173465666159 $114 $250 forward 7 unknown #
point $-1 47.114474929044462 -31.807698512004666 12.617173465666159 #
point $-1 47.114474929044462 31.807698512004666 12.617173465666159 #
face $-1 $-1 $197 $16 $-1 $251 reversed single #
loop $-1 $-1 $193 $119 #
plane-surface $-1 0 0 -12.617173465666159 0 0 1 1 0 0 forward_v I I I I #
coedge $-1 $252 $253 $127 $201 forward $120 $-1 #
coedge $-1 $122 $205 $195 $254 forward $71 $-1 #
edge $-1 $199 -17.114835299608607 $132 -12.27089112518351 $122 $255 forward 7 unknown #
coedge $-1 $256 $128 $123 $194 forward $188 $-1 #
edge $-1 $133 12.27089112518351 $198 17.114835299608607 $193 $257 forward 7 unknown #
coedge $-1 $258 $125 $191 $254 reversed $197 $-1 #
coedge $-1 $125 $258 $256 $259 reversed $197 $-1 #
loop $-1 $-1 $125 $187 #
vertex $-1 $259 $260 #
vertex $-1 $126 $261 #
straight-curve $-1 -31.965064359727624 -31.807698512004666 0 0 0 1 I I #
edge $-1 $206 -12.617173465666159 $203 12.617173465666159 $190 $262 forward 7 unknown #
coedge $-1 $128 $256 $252 $263 forward $188 $-1 #
vertex $-1 $129 $264 #
straight-curve $-1 -19.769884822193021 -26.963754337579569 -12.617173465666159 1 0 0 I I #
coedge $-1 $191 $130 $253 $265 forward $71 $-1 #
vertex $-1 $265 $266 #
straight-curve $-1 -19.769884822193021 -26.963754337579569 12.617173465666159 -1 0 0 I I #
point $-1 -31.965064359727624 -26.963754337579569 12.617173465666159 #
point $-1 -31.965064359727624 -26.963754337579569 -12.617173465666159 #
plane-surface $-1 47.114474929044462 0 0 -1 0 0 0 0 1 forward_v I I I I #
coedge $-1 $267 $138 $143 $217 forward $79 $-1 #
coedge $-1 $138 $267 $214 $268 forward $79 $-1 #
edge $-1 $215 -37.410378196585285 $222 -20.003673497798381 $138 $269 forward 7 unknown #
coedge $-1 $147 $141 $212 $268 reversed $148 $-1 #
vertex $-1 $213 $270 #
straight-curve $-1 47.114474929044462 -15.681456491052836 65.830469251237062 0 0 1 I I #
edge $-1 $222 3.8091677402884603 $220 19.935409761240294 $211 $271 forward 7 unknown #
coedge $-1 $219 $144 $147 $224 reversed $136 $-1 #
coedge $-1 $144 $218 $267 $272 reversed $136 $-1 #
vertex $-1 $272 $273 #
straight-curve $-1 -8.668562376701086 -31.807698512004666 37.539055723930872 0.83867056331134215 0 -0.54463904215088732 I I #
vertex $-1 $217 $274 #
straight-curve $-1 -31.912571528675187 -15.681456491052836 52.633892044754475 0.83867056331134215 0 -0.54463904215088732 I I #
edge $-1 $275 -12.617173465666159 $149 -1.3131270511609305 $147 $276 forward 7 unknown #
point $-1 47.114474929044462 -31.807698512004666 1.3131270511609305 #
point $-1 47.114474929044462 -15.681456491052836 1.313127051160933 #
edge $-1 $277 1 $277 0 $152 $-1 forward 7 unknown #
vertex $-1 $153 $278 #
ellipse-curve $-1 35.334336672657201 -27.200200791732716 2.2273155273293521 0.54463904215088732 0 0.83867056331134215 1.6773411266226843 0 -1.0892780843017746 1 I I #
point $-1 40.0884637062737 -27.200200791732716 5.875872174111775 #
edge $-1 $279 1 $279 0 $156 $-1 forward 7 unknown #
vertex $-1 $157 $280 #
ellipse-curve $-1 35.334336672657201 -20.288954211324786 2.2273155273293521 0.54463904215088732 0 0.83867056331134215 1.6773411266226843 0 -1.0892780843017746 1 I I #
point $-1 40.0884637062737 -20.288954211324786 5.875872174111775 #
plane-surface $-1 47.114474929044462 0 0 -1 0 0 0 0 1 forward_v I I I I #
coedge $-1 $165 $163 $167 $240 reversed $101 $-1 #
edge $-1 $178 -12.617173465666159 $242 12.617173465666159 $177 $281 forward 7 unknown #
vertex $-1 $240 $282 #
straight-curve $-1 -47.114474929044462 -31.807698512004666 0 0 0 -1 I I #
edge $-1 $238 -31.807698512004666 $242 31.807698512004666 $236 $283 forward 7 unknown #
straight-curve $-1 0 -31.807698512004666 -12.617173465666159 -1 0 0 I I #
vertex $-1 $170 $284 #
straight-curve $-1 0 31.807698512004666 -12.617173465666159 1 0 0 I I #
point $-1 47.114474929044462 31.807698512004666 -12.617173465666159 #
point $-1 47.114474929044462 -31.807698512004666 -12.617173465666159 #
straight-curve $-1 -47.114474929044462 0 12.617173465666159 0 -1 0 I I #
point $-1 -47.114474929044462 31.807698512004666 12.617173465666159 #
point $-1 -47.114474929044462 -31.807698512004666 12.617173465666159 #
straight-curve $-1 47.114474929044462 -31.807698512004666 0 0 0 -1 I I #
straight-curve $-1 47.114474929044462 31.807698512004666 0 0 0 -1 I I #
plane-surface $-1 0 -31.807698512004666 0 0 1 0 0 0 1 forward_v I I I I #
coedge $-1 $285 $190 $202 $263 reversed $120 $-1 #
coedge $-1 $190 $285 $205 $265 reversed $120 $-1 #
edge $-1 $286 -47.114474929044462 $199 -31.965064359727624 $195 $287 forward 7 unknown #
straight-curve $-1 -31.965064359727624 -14.692863212396059 12.617173465666159 0 1 0 I I #
coedge $-1 $202 $193 $196 $259 forward $188 $-1 #
straight-curve $-1 -31.965064359727624 -14.692863212396059 -12.617173465666159 0 -1 0 I I #
coedge $-1 $196 $195 $285 $288 forward $197 $-1 #
edge $-1 $198 31.965064359727624 $289 47.114474929044462 $196 $290 forward 7 unknown #
point $-1 -31.965064359727624 -31.807698512004666 -12.617173465666159 #
point $-1 -31.965064359727624 -31.807698512004666 12.617173465666159 #
straight-curve $-1 -47.114474929044462 -26.963754337579569 0 0 0 -1 I I #
edge $-1 $289 -31.807698512004666 $203 -26.963754337579569 $252 $291 forward 7 unknown #
point $-1 -47.114474929044462 -26.963754337579569 -12.617173465666159 #
edge $-1 $206 26.963754337579569 $286 31.807698512004666 $253 $292 forward 7 unknown #
point $-1 -47.114474929044462 -26.963754337579569 12.617173465666159 #
coedge $-1 $212 $211 $219 $272 forward $79 $-1 #
edge $-1 $275 -31.807698512004666 $215 -15.681456491052836 $214 $293 forward 7 unknown #
straight-curve $-1 9.7040967324591776 -15.681456491052836 12.617173465666156 -1 0 0 I I #
point $-1 47.114474929044462 -15.681456491052836 12.617173465666159 #
straight-curve $-1 29.707770230257552 -11.872288750764376 12.617173465666159 0 -1 0 I I #
edge $-1 $220 29.707770230257559 $275 47.114474929044462 $219 $294 forward 7 unknown #
point $-1 29.707770230257559 -31.80769851200467 12.617173465666156 #
point $-1 29.707770230257559 -15.681456491052836 12.617173465666156 #
vertex $-1 $268 $295 #
straight-curve $-1 47.114474929044462 -31.807698512004666 0 0 0 -1 I I #
vertex $-1 $227 $296 #
point $-1 37.01167779927988 -27.200200791732716 1.1380374430275775 #
vertex $-1 $231 $297 #
point $-1 37.01167779927988 -20.288954211324786 1.1380374430275775 #
straight-curve $-1 -47.114474929044462 31.807698512004666 0 0 0 -1 I I #
point $-1 -47.114474929044462 -31.807698512004666 -12.617173465666159 #
straight-curve $-1 -47.114474929044462 0 -12.617173465666159 0 1 0 I I #
point $-1 -47.114474929044462 31.807698512004666 -12.617173465666159 #
coedge $-1 $253 $252 $258 $288 reversed $120 $-1 #
vertex $-1 $265 $298 #
straight-curve $-1 0 -31.807698512004666 12.617173465666159 1 0 0 I I #
edge $-1 $286 -12.617173465666159 $289 12.617173465666159 $285 $299 forward 7 unknown #
vertex $-1 $263 $300 #
straight-curve $-1 0 -31.807698512004666 -12.617173465666159 -1 0 0 I I #
straight-curve $-1 -47.114474929044462 0 -12.617173465666159 0 1 0 I I #
straight-curve $-1 -47.114474929044462 0 12.617173465666159 0 -1 0 I I #
straight-curve $-1 47.114474929044462 0 12.617173465666159 0 1 0 I I #
straight-curve $-1 0 -31.807698512004666 12.617173465666159 1 0 0 I I #
point $-1 47.114474929044462 -31.807698512004666 12.617173465666159 #
point $-1 34.24505858835542 -27.200200791732716 0.54997440070666714 #
point $-1 34.24505858835542 -20.288954211324786 0.54997440070666714 #
point $-1 -47.114474929044462 -31.807698512004666 12.617173465666159 #
straight-curve $-1 -47.114474929044462 -31.807698512004666 0 0 0 -1 I I #
point $-1 -47.114474929044462 -31.807698512004666 -12.617173465666159 #
End-of-ACIS-data 