500 0 6 0           
7 Unknown 11 ACIS 5.0 NT 24 Fri Mar 26 20:20:22 1999 
-1 9.9999999999999995e-007 1e-010 
body $-1 $6 $-1 $7 #
body $-1 $8 $-1 $9 #
body $-1 $10 $-1 $11 #
body $-1 $12 $-1 $13 #
body $-1 $14 $-1 $15 #
body $-1 $16 $-1 $17 #
lump $-1 $-1 $18 $0 #
transform $-1 1 0 0 0 1 0 0 0 1 48.010498367259743 22.167730765636755 9.0167398798915563 1 rotate no_reflect no_shear #
lump $-1 $-1 $19 $1 #
transform $-1 1 0 0 0 1 0 0 0 1 48.010498367259743 22.167730765636755 9.0167398798915563 1 rotate no_reflect no_shear #
lump $-1 $-1 $20 $2 #
transform $-1 1 0 0 0 1 0 0 0 1 48.010498367259743 22.167730765636755 9.0167398798915563 1 rotate no_reflect no_shear #
lump $-1 $-1 $21 $3 #
transform $-1 1 0 0 0 1 0 0 0 1 48.010498367259743 22.167730765636755 9.0167398798915563 1 rotate no_reflect no_shear #
lump $-1 $-1 $22 $4 #
transform $-1 1 0 0 0 1 0 0 0 1 48.010498367259743 22.167730765636755 9.0167398798915563 1 rotate no_reflect no_shear #
lump $-1 $-1 $23 $5 #
transform $-1 1 0 0 0 1 0 0 0 1 48.010498367259743 22.167730765636755 9.0167398798915563 1 rotate no_reflect no_shear #
shell $-1 $-1 $-1 $24 $-1 $6 #
shell $-1 $-1 $-1 $25 $-1 $8 #
shell $-1 $-1 $-1 $26 $-1 $10 #
shell $-1 $-1 $-1 $27 $-1 $12 #
shell $-1 $-1 $-1 $28 $-1 $14 #
shell $-1 $-1 $-1 $29 $-1 $16 #
face $-1 $30 $31 $18 $-1 $32 forward single #
face $-1 $33 $34 $19 $-1 $35 forward single #
face $-1 $36 $37 $20 $-1 $38 reversed single #
face $-1 $39 $40 $21 $-1 $41 forward single #
face $-1 $42 $43 $22 $-1 $44 forward single #
face $-1 $45 $46 $23 $-1 $47 forward single #
face $-1 $48 $49 $18 $-1 $50 reversed single #
loop $-1 $-1 $51 $24 #
plane-surface $-1 0 0 9.0167398798915563 0 0 1 1 0 0 forward_v I I I I #
face $-1 $52 $53 $19 $-1 $54 reversed single #
loop $-1 $-1 $55 $25 #
plane-surface $-1 0 -22.167730765636755 0 0 1 0 0 0 1 forward_v I I I I #
face $-1 $56 $57 $20 $-1 $58 reversed single #
loop $-1 $-1 $59 $26 #
plane-surface $-1 19.82741455782903 44.546736191406943 105.86496620799412 1 0 0 0 -0.6018150307709319 -0.79863550430605224 forward_v I I I I #
face $-1 $60 $61 $21 $-1 $62 forward single #
loop $-1 $63 $64 $27 #
cone-surface $-1 23.520502766839485 17.44896912887015 5.2354807870037501 0 -0.6018150307709319 -0.79863550430605224 1 0 0 1 I I 0 1 1 forward I I I I #
face $-1 $65 $66 $22 $-1 $67 forward single #
loop $-1 $68 $69 $28 #
cone-surface $-1 29.060135080355167 17.44896912887015 5.2354807870037501 0 -0.6018150307709319 -0.79863550430605224 1 0 0 1 I I 0 1 1 forward I I I I #
face $-1 $70 $71 $23 $-1 $72 forward single #
loop $-1 $73 $74 $29 #
cone-surface $-1 34.599767393870849 17.44896912887015 5.2354807870037501 0 -0.6018150307709319 -0.79863550430605224 1 0 0 1 I I 0 1 1 forward I I I I #
face $-1 $75 $76 $18 $-1 $77 reversed single #
loop $-1 $-1 $78 $30 #
plane-surface $-1 0 0 -9.0167398798915563 0 0 1 1 0 0 forward_v I I I I #
coedge $-1 $79 $80 $81 $82 forward $31 $-1 #
face $-1 $83 $84 $19 $-1 $85 reversed single #
loop $-1 $-1 $86 $33 #
plane-surface $-1 0 0 -9.0167398798915563 0 0 1 1 0 0 forward_v I I I I #
coedge $-1 $87 $88 $89 $90 forward $34 $-1 #
face $-1 $91 $92 $20 $-1 $93 reversed single #
loop $-1 $-1 $94 $36 #
plane-surface $-1 29.060135080355167 -13.240142913033452 29.179189056951344 0 0.6018150307709319 0.79863550430605224 1 0 0 forward_v I I I I #
coedge $-1 $95 $96 $97 $98 reversed $37 $-1 #
face $-1 $-1 $99 $21 $-1 $100 forward single #
loop $-1 $101 $102 $39 #
cone-surface $-1 23.520502766839485 16.755000195792228 4.3145529262764324 0 -0.6018150307709319 -0.79863550430605224 0.5 0 0 1 I I -0.70710678118654746 0.70710678118654746 0.5 forward I I I I #
loop $-1 $-1 $103 $27 #
coedge $-1 $64 $64 $104 $105 reversed $40 $-1 #
face $-1 $-1 $106 $22 $-1 $107 forward single #
loop $-1 $108 $109 $42 #
cone-surface $-1 29.060135080355167 16.755000195792228 4.3145529262764324 0 -0.6018150307709319 -0.79863550430605224 0.5 0 0 1 I I -0.70710678118654746 0.70710678118654746 0.5 forward I I I I #
loop $-1 $-1 $110 $28 #
coedge $-1 $69 $69 $111 $112 reversed $43 $-1 #
face $-1 $-1 $113 $23 $-1 $114 forward single #
loop $-1 $115 $116 $45 #
cone-surface $-1 34.599767393870849 16.755000195792228 4.3145529262764324 0 -0.6018150307709319 -0.79863550430605224 0.5 0 0 1 I I -0.70710678118654746 0.70710678118654746 0.5 forward I I I I #
loop $-1 $-1 $117 $29 #
coedge $-1 $74 $74 $118 $119 reversed $46 $-1 #
face $-1 $120 $121 $18 $-1 $122 reversed single #
loop $-1 $-1 $123 $48 #
plane-surface $-1 0 -22.167730765636755 0 0 1 0 0 0 1 forward_v I I I I #
coedge $-1 $124 $125 $126 $127 forward $49 $-1 #
coedge $-1 $128 $51 $129 $130 forward $31 $-1 #
coedge $-1 $51 $128 $131 $132 forward $31 $-1 #
coedge $-1 $133 $134 $51 $82 reversed $135 $-1 #
edge $-1 $136 -22.167730765636755 $137 22.167730765636755 $81 $138 forward 7 unknown #
face $-1 $139 $140 $19 $-1 $141 forward single #
loop $-1 $-1 $142 $52 #
plane-surface $-1 48.010498367259743 0 0 -1 0 0 0 0 1 forward_v I I I I #
coedge $-1 $143 $144 $145 $146 forward $53 $-1 #
coedge $-1 $145 $55 $142 $147 reversed $34 $-1 #
coedge $-1 $55 $145 $148 $149 reversed $34 $-1 #
coedge $-1 $150 $151 $55 $90 reversed $140 $-1 #
edge $-1 $152 -48.010498367259743 $153 48.010498367259743 $89 $154 forward 7 unknown #
face $-1 $155 $156 $20 $-1 $157 forward single #
loop $-1 $-1 $158 $56 #
plane-surface $-1 38.292855602881303 44.546736191406943 105.86496620799412 -1 0 0 0 0.6018150307709319 0.79863550430605224 forward_v I I I I #
coedge $-1 $159 $160 $161 $162 reversed $57 $-1 #
coedge $-1 $96 $59 $163 $164 reversed $37 $-1 #
coedge $-1 $59 $95 $159 $165 reversed $37 $-1 #
coedge $-1 $161 $166 $59 $98 forward $156 $-1 #
edge $-1 $167 0.10563733006671683 $168 8.7570377682150422 $97 $169 forward 7 unknown #
loop $-1 $-1 $104 $60 #
plane-surface $-1 29.060135080355167 -13.240142913033452 29.179189056951344 0 0.6018150307709319 0.79863550430605224 1 0 0 forward_v I I I I #
loop $-1 $-1 $170 $39 #
coedge $-1 $102 $102 $103 $171 reversed $61 $-1 #
coedge $-1 $103 $103 $102 $171 forward $63 $-1 #
coedge $-1 $104 $104 $64 $105 forward $99 $-1 #
edge $-1 $172 -4.0336126138992012e-017 $172 6.2831853071796004 $104 $173 forward 7 unknown #
loop $-1 $-1 $111 $65 #
plane-surface $-1 29.060135080355167 -13.240142913033452 29.179189056951344 0 0.6018150307709319 0.79863550430605224 1 0 0 forward_v I I I I #
loop $-1 $-1 $174 $42 #
coedge $-1 $109 $109 $110 $175 reversed $66 $-1 #
coedge $-1 $110 $110 $109 $175 forward $68 $-1 #
coedge $-1 $111 $111 $69 $112 forward $106 $-1 #
edge $-1 $176 -4.0336126138992012e-017 $176 6.2831853071796004 $111 $177 forward 7 unknown #
loop $-1 $-1 $118 $70 #
plane-surface $-1 29.060135080355167 -13.240142913033452 29.179189056951344 0 0.6018150307709319 0.79863550430605224 1 0 0 forward_v I I I I #
loop $-1 $-1 $178 $45 #
coedge $-1 $116 $116 $117 $179 reversed $71 $-1 #
coedge $-1 $117 $117 $116 $179 forward $73 $-1 #
coedge $-1 $118 $118 $74 $119 forward $113 $-1 #
edge $-1 $180 -4.0336126138992012e-017 $180 6.2831853071796004 $118 $181 forward 7 unknown #
face $-1 $182 $183 $18 $-1 $184 reversed single #
loop $-1 $-1 $185 $75 #
plane-surface $-1 -48.010498367259743 0 0 1 0 0 0 0 -1 forward_v I I I I #
coedge $-1 $131 $186 $133 $187 reversed $76 $-1 #
coedge $-1 $188 $78 $186 $189 forward $49 $-1 #
coedge $-1 $78 $188 $190 $191 forward $49 $-1 #
coedge $-1 $134 $133 $78 $127 reversed $135 $-1 #
edge $-1 $192 -22.167730765636755 $193 22.167730765636755 $126 $194 forward 7 unknown #
coedge $-1 $80 $79 $195 $196 forward $31 $-1 #
coedge $-1 $197 $198 $79 $130 reversed $183 $-1 #
edge $-1 $137 -48.010498367259743 $199 48.010498367259743 $129 $200 forward 7 unknown #
coedge $-1 $201 $123 $80 $132 reversed $76 $-1 #
edge $-1 $202 -48.010498367259743 $136 48.010498367259743 $131 $203 forward 7 unknown #
coedge $-1 $126 $81 $123 $187 forward $135 $-1 #
coedge $-1 $81 $126 $197 $204 reversed $135 $-1 #
loop $-1 $-1 $133 $182 #
vertex $-1 $82 $205 #
vertex $-1 $82 $206 #
straight-curve $-1 48.010498367259743 0 9.0167398798915563 0 1 0 I I #
face $-1 $207 $208 $19 $-1 $209 reversed single #
loop $-1 $-1 $151 $83 #
plane-surface $-1 0 -25.87635244932078 -5.4949636925436725 0 0 1 1 0 0 forward_v I I I I #
coedge $-1 $210 $211 $87 $147 forward $84 $-1 #
coedge $-1 $212 $86 $211 $213 forward $53 $-1 #
coedge $-1 $86 $212 $214 $215 forward $53 $-1 #
coedge $-1 $88 $87 $86 $146 reversed $34 $-1 #
edge $-1 $216 -48.010498367259743 $217 48.010498367259743 $86 $218 forward 7 unknown #
edge $-1 $217 -9.0167398798915563 $153 -5.4949636925436725 $142 $219 forward 7 unknown #
coedge $-1 $214 $220 $88 $149 forward $221 $-1 #
edge $-1 $152 5.4949636925436725 $216 9.0167398798915563 $148 $222 forward 7 unknown #
coedge $-1 $223 $89 $220 $224 forward $140 $-1 #
coedge $-1 $89 $223 $210 $225 forward $140 $-1 #
vertex $-1 $149 $226 #
vertex $-1 $225 $227 #
straight-curve $-1 0 -22.167730765636755 -5.4949636925436725 1 0 0 I I #
face $-1 $-1 $228 $20 $-1 $229 reversed single #
loop $-1 $-1 $97 $91 #
plane-surface $-1 0 0 9.0167398798915563 0 0 1 1 0 0 forward_v I I I I #
coedge $-1 $230 $231 $232 $233 reversed $92 $-1 #
coedge $-1 $234 $94 $96 $165 forward $57 $-1 #
coedge $-1 $94 $234 $230 $235 forward $57 $-1 #
coedge $-1 $232 $97 $94 $162 forward $156 $-1 #
edge $-1 $168 5.2973470176514468 $236 23.76278806270372 $161 $237 forward 7 unknown #
coedge $-1 $238 $239 $95 $164 forward $228 $-1 #
edge $-1 $240 -50.435041192732555 $167 -43.915743224105498 $163 $241 forward 7 unknown #
edge $-1 $168 33.502734471805169 $240 44.335461531273523 $96 $242 forward 7 unknown #
coedge $-1 $97 $232 $238 $243 forward $156 $-1 #
vertex $-1 $164 $244 #
vertex $-1 $98 $245 #
straight-curve $-1 19.82741455782903 22.273368095703471 9.0167398798915599 0 -1 0 I I #
coedge $-1 $170 $170 $-1 $246 reversed $101 $-1 #
edge $-1 $247 0 $247 6.2831853071796004 $102 $248 forward 7 unknown #
vertex $-1 $105 $249 #
ellipse-curve $-1 23.520502766839485 17.842030546562594 5.7570908955780276 0 0.6018150307709319 0.79863550430605224 1 0 0 1 I I #
coedge $-1 $174 $174 $-1 $250 reversed $108 $-1 #
edge $-1 $251 0 $251 6.2831853071796004 $109 $252 forward 7 unknown #
vertex $-1 $112 $253 #
ellipse-curve $-1 29.060135080355167 17.842030546562594 5.7570908955780276 0 0.6018150307709319 0.79863550430605224 1 0 0 1 I I #
coedge $-1 $178 $178 $-1 $254 reversed $115 $-1 #
edge $-1 $255 0 $255 6.2831853071796004 $116 $256 forward 7 unknown #
vertex $-1 $119 $257 #
ellipse-curve $-1 34.599767393870849 17.842030546562594 5.7570908955780276 0 0.6018150307709319 0.79863550430605224 1 0 0 1 I I #
face $-1 $-1 $135 $18 $-1 $258 reversed single #
loop $-1 $-1 $197 $120 #
plane-surface $-1 0 22.167730765636755 0 0 -1 0 0 0 -1 forward_v I I I I #
coedge $-1 $259 $195 $198 $260 forward $121 $-1 #
coedge $-1 $123 $201 $124 $189 reversed $76 $-1 #
edge $-1 $136 -9.0167398798915563 $193 9.0167398798915563 $133 $261 forward 7 unknown #
coedge $-1 $125 $124 $259 $262 forward $49 $-1 #
edge $-1 $193 -48.010498367259743 $263 48.010498367259743 $186 $264 forward 7 unknown #
coedge $-1 $198 $197 $125 $191 reversed $183 $-1 #
edge $-1 $265 -48.010498367259743 $192 48.010498367259743 $190 $266 forward 7 unknown #
vertex $-1 $127 $267 #
vertex $-1 $187 $268 #
straight-curve $-1 48.010498367259743 0 -9.0167398798915563 0 -1 0 I I #
coedge $-1 $185 $269 $128 $196 reversed $121 $-1 #
edge $-1 $199 -22.167730765636755 $202 22.167730765636755 $195 $270 forward 7 unknown #
coedge $-1 $190 $129 $134 $204 forward $183 $-1 #
coedge $-1 $129 $190 $185 $260 reversed $183 $-1 #
vertex $-1 $130 $271 #
straight-curve $-1 0 22.167730765636755 9.0167398798915563 -1 0 0 I I #
coedge $-1 $186 $131 $269 $272 forward $76 $-1 #
vertex $-1 $196 $273 #
straight-curve $-1 0 -22.167730765636755 9.0167398798915563 1 0 0 I I #
edge $-1 $137 -9.0167398798915563 $192 9.0167398798915563 $134 $274 forward 7 unknown #
point $-1 48.010498367259743 -22.167730765636755 9.0167398798915563 #
point $-1 48.010498367259743 22.167730765636755 9.0167398798915563 #
face $-1 $-1 $221 $19 $-1 $275 reversed single #
loop $-1 $-1 $276 $139 #
plane-surface $-1 0 -29.584974133004806 -7.2558517862176144 0 1 0 0 0 1 forward_v I I I I #
coedge $-1 $277 $142 $151 $225 reversed $84 $-1 #
coedge $-1 $142 $277 $143 $213 reversed $84 $-1 #
coedge $-1 $144 $143 $278 $279 forward $53 $-1 #
edge $-1 $217 22.167730765636755 $280 29.584974133004806 $211 $281 forward 7 unknown #
coedge $-1 $282 $148 $144 $215 reversed $221 $-1 #
edge $-1 $283 -29.584974133004806 $216 -22.167730765636755 $214 $284 forward 7 unknown #
vertex $-1 $149 $285 #
vertex $-1 $213 $286 #
straight-curve $-1 0 -22.167730765636755 -9.0167398798915563 1 0 0 I I #
straight-curve $-1 48.010498367259743 -22.167730765636755 0 0 0 1 I I #
coedge $-1 $148 $282 $150 $224 reversed $221 $-1 #
loop $-1 $-1 $148 $207 #
straight-curve $-1 -48.010498367259743 -22.167730765636755 0 0 0 -1 I I #
coedge $-1 $151 $150 $287 $288 forward $140 $-1 #
edge $-1 $152 -3.7086216836840258 $289 3.7086216836840258 $220 $290 forward 7 unknown #
edge $-1 $291 -3.7086216836840258 $153 3.7086216836840258 $210 $292 forward 7 unknown #
point $-1 -48.010498367259743 -22.167730765636755 -5.4949636925436725 #
point $-1 48.010498367259743 -22.167730765636755 -5.4949636925436725 #
loop $-1 $-1 $163 $155 #
plane-surface $-1 0 22.167730765636755 0 0 -1 0 0 0 -1 forward_v I I I I #
coedge $-1 $231 $158 $160 $235 reversed $92 $-1 #
coedge $-1 $158 $230 $293 $294 reversed $92 $-1 #
coedge $-1 $166 $161 $158 $233 forward $156 $-1 #
edge $-1 $236 -8.7570377682150422 $295 -0.10563733006671683 $232 $296 forward 7 unknown #
coedge $-1 $160 $159 $239 $297 reversed $57 $-1 #
edge $-1 $298 -44.335461531273523 $236 -33.502734471805169 $230 $299 forward 7 unknown #
vertex $-1 $162 $300 #
straight-curve $-1 14.530067540177583 13.516330327488436 9.0167398798915563 1 0 0 I I #
coedge $-1 $293 $163 $166 $243 reversed $228 $-1 #
coedge $-1 $163 $293 $234 $297 forward $228 $-1 #
vertex $-1 $164 $301 #
straight-curve $-1 19.82741455782903 22.167730765636755 52.932483103997058 0 0 1 I I #
straight-curve $-1 19.82741455782903 -13.240142913033452 29.179189056951344 0 0.79863550430605224 -0.6018150307709319 I I #
edge $-1 $295 -38.292855602881303 $167 -19.82741455782903 $238 $302 forward 7 unknown #
point $-1 19.82741455782903 22.167730765636755 9.0167398798915563 #
point $-1 19.82741455782903 13.516330327488429 9.0167398798915563 #
edge $-1 $303 1 $303 0 $170 $-1 forward 7 unknown #
vertex $-1 $171 $304 #
ellipse-curve $-1 23.520502766839485 17.055907711177692 4.7138706784294584 0 0.6018150307709319 0.79863550430605224 1 0 0 1 I I #
point $-1 24.520502766839485 17.842030546562604 5.7570908955780418 #
edge $-1 $305 1 $305 0 $174 $-1 forward 7 unknown #
vertex $-1 $175 $306 #
ellipse-curve $-1 29.060135080355167 17.055907711177692 4.7138706784294584 0 0.6018150307709319 0.79863550430605224 1 0 0 1 I I #
point $-1 30.060135080355167 17.842030546562604 5.7570908955780418 #
edge $-1 $307 1 $307 0 $178 $-1 forward 7 unknown #
vertex $-1 $179 $308 #
ellipse-curve $-1 34.599767393870849 17.055907711177692 4.7138706784294584 0 0.6018150307709319 0.79863550430605224 1 0 0 1 I I #
point $-1 35.599767393870849 17.842030546562604 5.7570908955780418 #
plane-surface $-1 48.010498367259743 0 0 -1 0 0 0 0 1 forward_v I I I I #
coedge $-1 $269 $185 $188 $262 reversed $121 $-1 #
edge $-1 $199 -9.0167398798915563 $265 9.0167398798915563 $198 $309 forward 7 unknown #
straight-curve $-1 48.010498367259743 -22.167730765636755 0 0 0 -1 I I #
edge $-1 $263 -22.167730765636755 $265 22.167730765636755 $259 $310 forward 7 unknown #
vertex $-1 $262 $311 #
straight-curve $-1 0 -22.167730765636755 -9.0167398798915563 -1 0 0 I I #
vertex $-1 $191 $312 #
straight-curve $-1 0 22.167730765636755 -9.0167398798915563 1 0 0 I I #
point $-1 48.010498367259743 22.167730765636755 -9.0167398798915563 #
point $-1 48.010498367259743 -22.167730765636755 -9.0167398798915563 #
coedge $-1 $195 $259 $201 $272 reversed $121 $-1 #
straight-curve $-1 -48.010498367259743 0 9.0167398798915563 0 -1 0 I I #
point $-1 -48.010498367259743 22.167730765636755 9.0167398798915563 #
edge $-1 $202 -9.0167398798915563 $263 9.0167398798915563 $269 $313 forward 7 unknown #
point $-1 -48.010498367259743 -22.167730765636755 9.0167398798915563 #
straight-curve $-1 48.010498367259743 22.167730765636755 0 0 0 -1 I I #
plane-surface $-1 -48.010498367259743 0 0 1 0 0 0 0 -1 forward_v I I I I #
coedge $-1 $278 $287 $282 $314 forward $208 $-1 #
coedge $-1 $211 $210 $315 $316 forward $84 $-1 #
coedge $-1 $315 $276 $212 $279 reversed $208 $-1 #
edge $-1 $280 -48.010498367259743 $283 48.010498367259743 $278 $317 forward 7 unknown #
vertex $-1 $316 $318 #
straight-curve $-1 48.010498367259743 0 -9.0167398798915563 0 -1 0 I I #
coedge $-1 $220 $214 $276 $314 reversed $221 $-1 #
vertex $-1 $215 $319 #
straight-curve $-1 -48.010498367259743 0 -9.0167398798915563 0 1 0 I I #
point $-1 -48.010498367259743 -22.167730765636755 -9.0167398798915563 #
point $-1 48.010498367259743 -22.167730765636755 -9.0167398798915563 #
coedge $-1 $276 $315 $223 $288 reversed $208 $-1 #
edge $-1 $289 -48.010498367259743 $291 48.010498367259743 $287 $320 forward 7 unknown #
vertex $-1 $224 $321 #
straight-curve $-1 -48.010498367259743 -25.87635244932078 -5.4949636925436725 0 -1 0 I I #
vertex $-1 $225 $322 #
straight-curve $-1 48.010498367259743 -25.87635244932078 -5.4949636925436725 0 1 0 I I #
coedge $-1 $239 $238 $231 $294 forward $228 $-1 #
edge $-1 $295 43.915743224105498 $298 50.435041192732555 $293 $323 forward 7 unknown #
vertex $-1 $243 $324 #
straight-curve $-1 38.292855602881303 22.273368095703471 9.0167398798915599 0 1 0 I I #
edge $-1 $298 -23.76278806270372 $240 -5.2973470176514468 $239 $325 forward 7 unknown #
vertex $-1 $297 $326 #
straight-curve $-1 38.292855602881303 -13.240142913033452 29.179189056951344 0 -0.79863550430605224 0.6018150307709319 I I #
point $-1 38.292855602881303 13.516330327488429 9.0167398798915563 #
point $-1 19.82741455782903 22.167730765636755 2.4974419112645023 #
straight-curve $-1 0 22.167730765636755 9.0167398798915563 -1 0 0 I I #
vertex $-1 $246 $327 #
point $-1 24.520502766839485 17.055907711177692 4.7138706784294584 #
vertex $-1 $250 $328 #
point $-1 30.060135080355167 17.055907711177692 4.7138706784294584 #
vertex $-1 $254 $329 #
point $-1 35.599767393870849 17.055907711177692 4.7138706784294584 #
straight-curve $-1 -48.010498367259743 22.167730765636755 0 0 0 -1 I I #
straight-curve $-1 -48.010498367259743 0 -9.0167398798915563 0 1 0 I I #
point $-1 -48.010498367259743 -22.167730765636755 -9.0167398798915563 #
point $-1 -48.010498367259743 22.167730765636755 -9.0167398798915563 #
straight-curve $-1 -48.010498367259743 -22.167730765636755 0 0 0 -1 I I #
edge $-1 $289 -1.7608880936739419 $283 1.7608880936739419 $282 $330 forward 7 unknown #
coedge $-1 $287 $278 $277 $316 reversed $208 $-1 #
edge $-1 $291 -1.7608880936739419 $280 1.7608880936739419 $277 $331 forward 7 unknown #
straight-curve $-1 0 -29.584974133004806 -9.0167398798915563 -1 0 0 I I #
point $-1 48.010498367259743 -29.584974133004806 -9.0167398798915563 #
point $-1 -48.010498367259743 -29.584974133004806 -9.0167398798915563 #
straight-curve $-1 0 -29.584974133004806 -5.4949636925436725 1 0 0 I I #
point $-1 -48.010498367259743 -29.584974133004806 -5.4949636925436725 #
point $-1 48.010498367259743 -29.584974133004806 -5.4949636925436725 #
straight-curve $-1 38.292855602881303 22.167730765636755 52.932483103997058 0 0 -1 I I #
point $-1 38.292855602881303 22.167730765636755 9.0167398798915563 #
straight-curve $-1 14.530067540177583 22.167730765636755 2.4974419112645041 -1 0 0 I I #
point $-1 38.292855602881303 22.167730765636755 2.4974419112645023 #
point $-1 23.520502766839485 16.454092680406763 3.9152351741234064 #
point $-1 29.060135080355167 16.454092680406763 3.9152351741234064 #
point $-1 34.599767393870849 16.454092680406763 3.9152351741234064 #
straight-curve $-1 -48.010498367259743 -29.584974133004806 -7.2558517862176144 0 0 -1 I I #
straight-curve $-1 48.010498367259743 -29.584974133004806 -7.2558517862176144 0 0 -1 I I #
End-of-ACIS-data 