500 0 4 0           
7 Unknown 11 ACIS 5.0 NT 24 Thu Mar 25 18:14:03 1999 
-1 9.9999999999999995e-007 1e-010 
body $-1 $4 $-1 $5 #
body $-1 $6 $-1 $7 #
body $-1 $8 $-1 $9 #
body $-1 $10 $-1 $11 #
lump $-1 $-1 $12 $0 #
transform $-1 1 0 0 0 1 0 0 0 1 51.454206976531268 29.375080667353735 8.9173231421298151 1 rotate no_reflect no_shear #
lump $-1 $-1 $13 $1 #
transform $-1 1 0 0 0 1 0 0 0 1 51.454206976531268 29.375080667353735 8.9173231421298151 1 rotate no_reflect no_shear #
lump $-1 $-1 $14 $2 #
transform $-1 1 0 0 0 1 0 0 0 1 51.454206976531268 29.375080667353735 8.9173231421298151 1 rotate no_reflect no_shear #
lump $-1 $-1 $15 $3 #
transform $-1 1 0 0 0 1 0 0 0 1 51.454206976531268 29.375080667353735 8.9173231421298151 1 rotate no_reflect no_shear #
shell $-1 $-1 $-1 $16 $-1 $4 #
shell $-1 $-1 $-1 $17 $-1 $6 #
shell $-1 $-1 $-1 $18 $-1 $8 #
shell $-1 $-1 $-1 $19 $-1 $10 #
face $-1 $20 $21 $12 $-1 $22 forward single #
face $-1 $23 $24 $13 $-1 $25 reversed single #
face $-1 $26 $27 $14 $-1 $28 reversed single #
face $-1 $29 $30 $15 $-1 $31 forward single #
face $-1 $32 $33 $12 $-1 $34 reversed single #
loop $-1 $-1 $35 $16 #
plane-surface $-1 0 0 8.9173231421298151 0 0 1 1 0 0 forward_v I I I I #
face $-1 $36 $37 $13 $-1 $38 reversed single #
loop $-1 $-1 $39 $17 #
plane-surface $-1 0 -25.471784876170286 5.9173231421298151 0 0 1 1 0 0 forward_v I I I I #
face $-1 $40 $41 $14 $-1 $42 reversed single #
loop $-1 $-1 $43 $18 #
plane-surface $-1 -32.843430154996305 22.962524411500418 62.611595099104164 0.57357644374324357 0 0.81915203911291934 0.81915203911291934 0 -0.57357644374324357 forward_v I I I I #
face $-1 $44 $45 $15 $-1 $46 forward single #
loop $-1 $47 $48 $19 #
cone-surface $-1 46.596176856310557 22.962524411500418 4.7507051358380137 -0.57357644374324357 0 -0.81915203911291934 0.81915203911291934 0 -0.57357644374324357 1 I I 0 1 1 forward I I I I #
face $-1 $49 $50 $12 $-1 $51 reversed single #
loop $-1 $-1 $52 $20 #
plane-surface $-1 0 0 -8.9173231421298151 0 0 1 1 0 0 forward_v I I I I #
coedge $-1 $53 $54 $55 $56 forward $21 $-1 #
face $-1 $57 $58 $13 $-1 $59 reversed single #
loop $-1 $-1 $60 $23 #
plane-surface $-1 0 -21.568489084986837 7.4173231421298151 0 -1 0 0 0 -1 forward_v I I I I #
coedge $-1 $61 $62 $63 $64 reversed $24 $-1 #
face $-1 $65 $66 $14 $-1 $67 reversed single #
loop $-1 $-1 $68 $26 #
plane-surface $-1 26.182411951458889 16.549968155647104 146.90923223063174 0 1 0 0.57357644374324357 0 0.81915203911291934 forward_v I I I I #
coedge $-1 $69 $70 $71 $72 reversed $27 $-1 #
face $-1 $-1 $73 $15 $-1 $74 forward single #
loop $-1 $75 $76 $29 #
cone-surface $-1 45.258494081989042 22.962524411500418 2.8402961847301729 -0.57357644374324357 0 -0.81915203911291934 0.40957601955645967 0 -0.28678822187162178 1 I I -0.70710678118654724 0.70710678118654791 0.5 forward I I I I #
loop $-1 $-1 $77 $19 #
coedge $-1 $48 $48 $78 $79 reversed $30 $-1 #
face $-1 $80 $81 $12 $-1 $82 reversed single #
loop $-1 $-1 $83 $32 #
plane-surface $-1 0 -29.375080667353735 0 0 1 0 0 0 1 forward_v I I I I #
coedge $-1 $84 $85 $86 $87 forward $33 $-1 #
coedge $-1 $88 $35 $89 $90 forward $21 $-1 #
coedge $-1 $35 $88 $91 $92 forward $21 $-1 #
coedge $-1 $93 $94 $35 $56 reversed $95 $-1 #
edge $-1 $96 -29.375080667353735 $97 29.375080667353735 $55 $98 forward 7 unknown #
face $-1 $99 $100 $13 $-1 $101 reversed single #
loop $-1 $-1 $102 $36 #
plane-surface $-1 -51.454206976531268 0 0 1 0 0 0 0 -1 forward_v I I I I #
coedge $-1 $103 $104 $105 $106 reversed $37 $-1 #
coedge $-1 $107 $39 $108 $109 reversed $24 $-1 #
coedge $-1 $39 $107 $103 $110 forward $24 $-1 #
coedge $-1 $105 $111 $39 $64 forward $112 $-1 #
edge $-1 $113 -16.639188229268591 $114 -8.8325966469016937 $63 $115 forward 7 unknown #
face $-1 $116 $117 $14 $-1 $118 forward single #
loop $-1 $-1 $119 $40 #
plane-surface $-1 0 29.375080667353735 0 0 -1 0 0 0 -1 forward_v I I I I #
coedge $-1 $120 $121 $122 $123 reversed $41 $-1 #
coedge $-1 $124 $43 $119 $125 reversed $27 $-1 #
coedge $-1 $43 $124 $120 $126 forward $27 $-1 #
coedge $-1 $122 $127 $43 $72 forward $117 $-1 #
edge $-1 $128 -17.893818461603523 $129 -5.0687059498968949 $71 $130 forward 7 unknown #
loop $-1 $-1 $78 $44 #
plane-surface $-1 -32.843430154996305 22.962524411500418 62.611595099104164 0.57357644374324357 0 0.81915203911291934 0.81915203911291934 0 -0.57357644374324357 forward_v I I I I #
loop $-1 $-1 $131 $29 #
coedge $-1 $76 $76 $77 $132 reversed $45 $-1 #
coedge $-1 $77 $77 $76 $132 forward $47 $-1 #
coedge $-1 $78 $78 $48 $79 forward $73 $-1 #
edge $-1 $133 0 $133 6.2831853071796004 $78 $134 forward 7 unknown #
face $-1 $135 $136 $12 $-1 $137 reversed single #
loop $-1 $-1 $138 $49 #
plane-surface $-1 -51.454206976531268 0 0 1 0 0 0 0 -1 forward_v I I I I #
coedge $-1 $139 $91 $140 $141 forward $50 $-1 #
coedge $-1 $142 $52 $139 $143 forward $33 $-1 #
coedge $-1 $52 $142 $144 $145 forward $33 $-1 #
coedge $-1 $94 $93 $52 $87 reversed $95 $-1 #
edge $-1 $146 -29.375080667353735 $147 29.375080667353735 $86 $148 forward 7 unknown #
coedge $-1 $54 $53 $149 $150 forward $21 $-1 #
coedge $-1 $151 $152 $53 $90 reversed $136 $-1 #
edge $-1 $97 -51.454206976531268 $153 51.454206976531268 $89 $154 forward 7 unknown #
coedge $-1 $83 $155 $54 $92 reversed $50 $-1 #
edge $-1 $156 -51.454206976531268 $96 51.454206976531268 $91 $157 forward 7 unknown #
coedge $-1 $86 $55 $155 $158 forward $95 $-1 #
coedge $-1 $55 $86 $151 $159 reversed $95 $-1 #
loop $-1 $-1 $93 $135 #
vertex $-1 $56 $160 #
vertex $-1 $56 $161 #
straight-curve $-1 51.454206976531268 0 8.9173231421298151 0 1 0 I I #
face $-1 $162 $163 $13 $-1 $164 forward single #
loop $-1 $-1 $108 $57 #
plane-surface $-1 0 -29.375080667353735 0 0 1 0 0 0 1 forward_v I I I I #
coedge $-1 $165 $166 $167 $168 forward $58 $-1 #
coedge $-1 $167 $60 $62 $110 reversed $37 $-1 #
coedge $-1 $60 $167 $169 $170 reversed $37 $-1 #
coedge $-1 $171 $63 $60 $106 forward $112 $-1 #
edge $-1 $114 2.2086615710649076 $172 5.2086615710649076 $105 $173 forward 7 unknown #
coedge $-1 $62 $61 $165 $174 reversed $24 $-1 #
coedge $-1 $175 $176 $61 $109 forward $100 $-1 #
edge $-1 $177 -51.454206976531268 $113 51.454206976531268 $108 $178 forward 7 unknown #
edge $-1 $179 -51.454206976531268 $114 51.454206976531268 $103 $180 forward 7 unknown #
coedge $-1 $63 $171 $175 $181 forward $112 $-1 #
loop $-1 $-1 $105 $162 #
vertex $-1 $109 $182 #
vertex $-1 $64 $183 #
straight-curve $-1 51.454206976531268 -12.735892438085143 5.9173231421298151 0 1 0 I I #
face $-1 $-1 $184 $14 $-1 $185 reversed single #
loop $-1 $-1 $71 $65 #
plane-surface $-1 0 0 8.9173231421298151 0 0 1 1 0 0 forward_v I I I I #
coedge $-1 $186 $187 $69 $125 forward $66 $-1 #
coedge $-1 $121 $68 $70 $126 reversed $41 $-1 #
coedge $-1 $68 $120 $188 $189 reversed $41 $-1 #
coedge $-1 $190 $71 $68 $123 forward $117 $-1 #
edge $-1 $129 30.748729865260188 $191 38.363001000801823 $122 $192 forward 7 unknown #
coedge $-1 $70 $69 $193 $194 reversed $27 $-1 #
edge $-1 $195 -71.500264534580523 $128 -62.204955761636086 $119 $196 forward 7 unknown #
edge $-1 $197 -102.90841395306254 $129 -93.613105180118097 $120 $198 forward 7 unknown #
coedge $-1 $71 $190 $186 $199 forward $117 $-1 #
vertex $-1 $72 $200 #
vertex $-1 $72 $201 #
straight-curve $-1 43.839935840989611 11.481262205750209 8.917323142129824 0 -1 0 I I #
coedge $-1 $131 $131 $-1 $202 reversed $75 $-1 #
edge $-1 $203 0 $203 6.2831853071796004 $76 $204 forward 7 unknown #
vertex $-1 $79 $205 #
ellipse-curve $-1 47.647071408760446 22.962524411500418 6.2515380673893937 0.57357644374324357 0 0.81915203911291934 0.81915203911291934 0 -0.57357644374324357 1 I I #
face $-1 $-1 $95 $12 $-1 $206 reversed single #
loop $-1 $-1 $151 $80 #
plane-surface $-1 0 29.375080667353735 0 0 -1 0 0 0 -1 forward_v I I I I #
coedge $-1 $207 $149 $152 $208 forward $81 $-1 #
coedge $-1 $155 $83 $84 $143 reversed $50 $-1 #
coedge $-1 $149 $207 $83 $141 reversed $81 $-1 #
edge $-1 $156 -8.9173231421298151 $209 8.9173231421298151 $140 $210 forward 7 unknown #
coedge $-1 $85 $84 $207 $211 forward $33 $-1 #
edge $-1 $147 -51.454206976531268 $209 51.454206976531268 $139 $212 forward 7 unknown #
coedge $-1 $152 $151 $85 $145 reversed $136 $-1 #
edge $-1 $213 -51.454206976531268 $146 51.454206976531268 $144 $214 forward 7 unknown #
vertex $-1 $87 $215 #
vertex $-1 $158 $216 #
straight-curve $-1 51.454206976531268 0 -8.9173231421298151 0 -1 0 I I #
coedge $-1 $138 $140 $88 $150 reversed $81 $-1 #
edge $-1 $153 -29.375080667353735 $156 29.375080667353735 $149 $217 forward 7 unknown #
coedge $-1 $144 $89 $94 $159 forward $136 $-1 #
coedge $-1 $89 $144 $138 $208 reversed $136 $-1 #
vertex $-1 $90 $218 #
straight-curve $-1 0 29.375080667353735 8.9173231421298151 -1 0 0 I I #
coedge $-1 $91 $139 $93 $158 reversed $50 $-1 #
vertex $-1 $150 $219 #
straight-curve $-1 0 -29.375080667353735 8.9173231421298151 1 0 0 I I #
edge $-1 $96 -8.9173231421298151 $147 8.9173231421298151 $93 $220 forward 7 unknown #
edge $-1 $97 -8.9173231421298151 $146 8.9173231421298151 $94 $221 forward 7 unknown #
point $-1 51.454206976531268 -29.375080667353735 8.9173231421298151 #
point $-1 51.454206976531268 29.375080667353735 8.9173231421298151 #
face $-1 $-1 $112 $13 $-1 $222 reversed single #
loop $-1 $-1 $169 $99 #
plane-surface $-1 0 0 8.9173231421298151 0 0 1 1 0 0 forward_v I I I I #
coedge $-1 $223 $102 $107 $174 forward $58 $-1 #
coedge $-1 $102 $223 $224 $225 reversed $58 $-1 #
coedge $-1 $104 $103 $102 $168 reversed $37 $-1 #
edge $-1 $226 -5.2086615710649076 $179 -2.2086615710649076 $102 $227 forward 7 unknown #
coedge $-1 $224 $228 $104 $170 forward $163 $-1 #
edge $-1 $172 -51.454206976531268 $226 51.454206976531268 $169 $229 forward 7 unknown #
coedge $-1 $111 $105 $228 $230 reversed $112 $-1 #
vertex $-1 $106 $231 #
straight-curve $-1 51.454206976531268 -21.568489084986837 3.7086615710649076 0 0 1 I I #
edge $-1 $179 8.8325966469016937 $177 16.639188229268591 $165 $232 forward 7 unknown #
coedge $-1 $233 $108 $111 $181 reversed $100 $-1 #
coedge $-1 $108 $233 $223 $234 forward $100 $-1 #
vertex $-1 $109 $235 #
straight-curve $-1 0 -29.375080667353735 5.9173231421298151 1 0 0 I I #
vertex $-1 $174 $236 #
straight-curve $-1 0 -21.568489084986837 5.9173231421298151 1 0 0 I I #
edge $-1 $237 -8.9173231421298151 $113 -5.9173231421298151 $111 $238 forward 7 unknown #
point $-1 51.454206976531268 -29.375080667353735 5.9173231421298151 #
point $-1 51.454206976531268 -21.568489084986837 5.9173231421298151 #
loop $-1 $-1 $193 $116 #
plane-surface $-1 51.454206976531268 0 0 -1 0 0 0 0 1 forward_v I I I I #
coedge $-1 $187 $119 $127 $199 reversed $66 $-1 #
coedge $-1 $119 $186 $239 $240 forward $66 $-1 #
coedge $-1 $193 $241 $121 $189 forward $184 $-1 #
edge $-1 $191 64.537292973186055 $197 69.868863122666909 $188 $242 forward 7 unknown #
coedge $-1 $127 $122 $241 $243 forward $117 $-1 #
vertex $-1 $243 $244 #
straight-curve $-1 13.091205975729444 16.549968155647104 8.9173231421298169 1 0 0 I I #
coedge $-1 $239 $188 $124 $194 forward $184 $-1 #
edge $-1 $197 5.0687059498968949 $195 17.893818461603523 $193 $245 forward 7 unknown #
vertex $-1 $194 $246 #
straight-curve $-1 -7.1153805140835118 29.375080667353735 44.596620451094822 -0.81915203911291934 0 0.57357644374324357 I I #
vertex $-1 $194 $247 #
straight-curve $-1 -32.843430154996305 16.549968155647104 62.611595099104164 -0.81915203911291934 0 0.57357644374324357 I I #
edge $-1 $248 -51.454206976531268 $128 -43.839935840989632 $186 $249 forward 7 unknown #
point $-1 43.839935840989632 29.375080667353732 8.9173231421298098 #
point $-1 43.839935840989632 16.549968155647104 8.9173231421298098 #
edge $-1 $250 1 $250 0 $131 $-1 forward 7 unknown #
vertex $-1 $132 $251 #
ellipse-curve $-1 45.545282303860667 22.962524411500418 3.2498722042866328 0.57357644374324357 0 0.81915203911291934 0.81915203911291934 0 -0.57357644374324357 1 I I #
point $-1 48.466223447873368 22.962524411500418 5.6779616236461505 #
plane-surface $-1 51.454206976531268 0 0 -1 0 0 0 0 1 forward_v I I I I #
coedge $-1 $140 $138 $142 $211 reversed $81 $-1 #
edge $-1 $153 -8.9173231421298151 $213 8.9173231421298151 $152 $252 forward 7 unknown #
vertex $-1 $211 $253 #
straight-curve $-1 -51.454206976531268 -29.375080667353735 0 0 0 -1 I I #
edge $-1 $209 -29.375080667353735 $213 29.375080667353735 $207 $254 forward 7 unknown #
straight-curve $-1 0 -29.375080667353735 -8.9173231421298151 -1 0 0 I I #
vertex $-1 $145 $255 #
straight-curve $-1 0 29.375080667353735 -8.9173231421298151 1 0 0 I I #
point $-1 51.454206976531268 29.375080667353735 -8.9173231421298151 #
point $-1 51.454206976531268 -29.375080667353735 -8.9173231421298151 #
straight-curve $-1 -51.454206976531268 0 8.9173231421298151 0 -1 0 I I #
point $-1 -51.454206976531268 29.375080667353735 8.9173231421298151 #
point $-1 -51.454206976531268 -29.375080667353735 8.9173231421298151 #
straight-curve $-1 51.454206976531268 -29.375080667353735 0 0 0 -1 I I #
straight-curve $-1 51.454206976531268 29.375080667353735 0 0 0 -1 I I #
plane-surface $-1 51.454206976531268 0 0 -1 0 0 0 0 1 forward_v I I I I #
coedge $-1 $166 $165 $176 $234 reversed $58 $-1 #
coedge $-1 $256 $169 $166 $225 forward $163 $-1 #
edge $-1 $226 21.568489084986837 $257 29.375080667353735 $166 $258 forward 7 unknown #
vertex $-1 $225 $259 #
straight-curve $-1 -51.454206976531268 -21.568489084986837 3.7086615710649076 0 0 -1 I I #
coedge $-1 $169 $256 $171 $230 forward $163 $-1 #
straight-curve $-1 0 -21.568489084986837 8.9173231421298151 -1 0 0 I I #
edge $-1 $237 -29.375080667353735 $172 -21.568489084986837 $171 $260 forward 7 unknown #
point $-1 51.454206976531268 -21.568489084986837 8.9173231421298151 #
straight-curve $-1 -51.454206976531268 -12.735892438085143 5.9173231421298151 0 -1 0 I I #
coedge $-1 $176 $175 $256 $261 reversed $100 $-1 #
edge $-1 $257 -8.9173231421298151 $177 -5.9173231421298151 $223 $262 forward 7 unknown #
point $-1 -51.454206976531268 -29.375080667353735 5.9173231421298151 #
point $-1 -51.454206976531268 -21.568489084986837 5.9173231421298151 #
vertex $-1 $230 $263 #
straight-curve $-1 51.454206976531268 -29.375080667353735 0 0 0 -1 I I #
coedge $-1 $241 $193 $187 $240 reversed $184 $-1 #
edge $-1 $248 -8.9173231421298151 $195 -3.5857529926489704 $239 $264 forward 7 unknown #
coedge $-1 $188 $239 $190 $243 reversed $184 $-1 #
straight-curve $-1 51.454206976531268 16.549968155647104 73.454616115315872 0 0 -1 I I #
edge $-1 $191 16.549968155647104 $248 29.375080667353735 $241 $265 forward 7 unknown #
point $-1 51.454206976531268 16.549968155647104 8.9173231421298151 #
straight-curve $-1 51.454206976531268 11.481262205750209 3.5857529926489669 0 1 0 I I #
point $-1 51.454206976531275 29.375080667353732 3.5857529926489704 #
point $-1 51.454206976531275 16.549968155647104 3.5857529926489704 #
vertex $-1 $243 $266 #
straight-curve $-1 0 29.375080667353735 8.9173231421298151 -1 0 0 I I #
vertex $-1 $202 $267 #
point $-1 46.364434342973581 22.962524411500418 2.6762957605433892 #
straight-curve $-1 -51.454206976531268 29.375080667353735 0 0 0 -1 I I #
point $-1 -51.454206976531268 -29.375080667353735 -8.9173231421298151 #
straight-curve $-1 -51.454206976531268 0 -8.9173231421298151 0 1 0 I I #
point $-1 -51.454206976531268 29.375080667353735 -8.9173231421298151 #
coedge $-1 $228 $224 $233 $261 forward $163 $-1 #
vertex $-1 $225 $268 #
straight-curve $-1 -51.454206976531268 0 8.9173231421298151 0 -1 0 I I #
point $-1 -51.454206976531268 -21.568489084986837 8.9173231421298151 #
straight-curve $-1 51.454206976531268 0 8.9173231421298151 0 1 0 I I #
edge $-1 $257 -51.454206976531268 $237 51.454206976531268 $233 $269 forward 7 unknown #
straight-curve $-1 -51.454206976531268 -29.375080667353735 0 0 0 -1 I I #
point $-1 51.454206976531268 -29.375080667353735 8.9173231421298151 #
straight-curve $-1 51.454206976531268 29.375080667353735 0 0 0 -1 I I #
straight-curve $-1 51.454206976531268 0 8.9173231421298151 0 1 0 I I #
point $-1 51.454206976531268 29.375080667353735 8.9173231421298151 #
point $-1 44.971705860117417 22.962524411500418 2.4307201651737129 #
point $-1 -51.454206976531268 -29.375080667353735 8.9173231421298151 #
straight-curve $-1 0 -29.375080667353735 8.9173231421298151 1 0 0 I I #
End-of-ACIS-data 