500 0 7 0           
7 Unknown 11 ACIS 5.0 NT 24 Fri Mar 26 17:26:30 1999 
-1 9.9999999999999995e-007 1e-010 
body $-1 $7 $-1 $8 #
body $-1 $9 $-1 $10 #
body $-1 $11 $-1 $12 #
body $-1 $13 $-1 $14 #
body $-1 $15 $-1 $16 #
body $-1 $17 $-1 $18 #
body $-1 $19 $-1 $20 #
lump $-1 $-1 $21 $0 #
transform $-1 1 0 0 0 1 0 0 0 1 43.100680562761312 22.978304355569126 11.290975084645616 1 rotate no_reflect no_shear #
lump $-1 $-1 $22 $1 #
transform $-1 1 0 0 0 1 0 0 0 1 43.100680562761312 22.978304355569126 11.290975084645616 1 rotate no_reflect no_shear #
lump $-1 $-1 $23 $2 #
transform $-1 1 0 0 0 1 0 0 0 1 43.100680562761312 22.978304355569126 11.290975084645616 1 rotate no_reflect no_shear #
lump $-1 $-1 $24 $3 #
transform $-1 1 0 0 0 1 0 0 0 1 43.100680562761312 22.978304355569126 11.290975084645616 1 rotate no_reflect no_shear #
lump $-1 $-1 $25 $4 #
transform $-1 1 0 0 0 1 0 0 0 1 43.100680562761312 22.978304355569126 11.290975084645616 1 rotate no_reflect no_shear #
lump $-1 $-1 $26 $5 #
transform $-1 1 0 0 0 1 0 0 0 1 43.100680562761312 22.978304355569126 11.290975084645616 1 rotate no_reflect no_shear #
lump $-1 $-1 $27 $6 #
transform $-1 1 0 0 0 1 0 0 0 1 43.100680562761312 22.978304355569126 11.290975084645616 1 rotate no_reflect no_shear #
shell $-1 $-1 $-1 $28 $-1 $7 #
shell $-1 $-1 $-1 $29 $-1 $9 #
shell $-1 $-1 $-1 $30 $-1 $11 #
shell $-1 $-1 $-1 $31 $-1 $13 #
shell $-1 $-1 $-1 $32 $-1 $15 #
shell $-1 $-1 $-1 $33 $-1 $17 #
shell $-1 $-1 $-1 $34 $-1 $19 #
face $-1 $35 $36 $21 $-1 $37 forward single #
face $-1 $38 $39 $22 $-1 $40 reversed single #
face $-1 $41 $42 $23 $-1 $43 forward single #
face $-1 $44 $45 $24 $-1 $46 forward single #
face $-1 $47 $48 $25 $-1 $49 reversed single #
face $-1 $50 $51 $26 $-1 $52 forward single #
face $-1 $53 $54 $27 $-1 $55 forward single #
face $-1 $56 $57 $21 $-1 $58 reversed single #
loop $-1 $-1 $59 $28 #
plane-surface $-1 0 0 11.290975084645616 0 0 1 1 0 0 forward_v I I I I #
face $-1 $60 $61 $22 $-1 $62 reversed single #
loop $-1 $-1 $63 $29 #
plane-surface $-1 -105.10875117392052 11.721061572330477 67.208699092593776 0 1 0 -0.71933980857756763 0 0.69465836192734942 forward_v I I I I #
face $-1 $64 $65 $23 $-1 $66 forward single #
loop $-1 $67 $68 $30 #
cone-surface $-1 -40.827608336693942 13.662673715117574 8.9622597499743026 0.71933980857756763 0 -0.69465836192734942 0.34732918096367471 0 0.35966990428878381 1 I I 0 1 0.5 forward I I I I #
face $-1 $69 $70 $24 $-1 $71 forward single #
loop $-1 $72 $73 $31 #
cone-surface $-1 -40.827608336693942 16.575091929298221 8.9622597499743026 0.71933980857756763 0 -0.69465836192734942 0.34732918096367471 0 0.35966990428878381 1 I I 0 1 0.5 forward I I I I #
face $-1 $74 $75 $25 $-1 $76 reversed single #
loop $-1 $-1 $77 $32 #
plane-surface $-1 -30.002219248940534 -16.579713140218423 46.5046344041845 0.52991927123019833 0 0.84804809178421925 0.84804809178421925 0 -0.52991927123019833 forward_v I I I I #
face $-1 $78 $79 $26 $-1 $80 forward single #
loop $-1 $81 $82 $33 #
cone-surface $-1 33.839560428606532 -19.321966518225867 4.639247521473183 -0.52991927123019833 0 -0.84804809178421925 0.84804809178421925 0 -0.52991927123019833 1 I I 0 1 1 forward I I I I #
face $-1 $83 $84 $27 $-1 $85 forward single #
loop $-1 $86 $87 $34 #
cone-surface $-1 33.839560428606532 -13.837459762210983 4.639247521473183 -0.52991927123019833 0 -0.84804809178421925 0.84804809178421925 0 -0.52991927123019833 1 I I 0 1 1 forward I I I I #
face $-1 $88 $89 $21 $-1 $90 reversed single #
loop $-1 $-1 $91 $35 #
plane-surface $-1 0 0 -11.290975084645616 0 0 1 1 0 0 forward_v I I I I #
coedge $-1 $92 $93 $94 $95 forward $36 $-1 #
face $-1 $96 $97 $22 $-1 $98 reversed single #
loop $-1 $-1 $99 $38 #
plane-surface $-1 -43.100680562761298 15.118882822207905 7.3282027772303309 -0.71933980857756763 0 0.69465836192734942 0.69465836192734942 0 0.71933980857756763 forward_v I I I I #
coedge $-1 $100 $101 $102 $103 reversed $39 $-1 #
face $-1 $-1 $104 $23 $-1 $105 forward single #
loop $-1 $106 $107 $41 #
cone-surface $-1 -40.288103480260766 13.662673715117574 8.44126597852879 0.71933980857756763 0 -0.69465836192734942 0.17366459048183736 0 0.17983495214439191 1 I I -0.70710678118654746 0.70710678118654746 0.25 forward I I I I #
loop $-1 $-1 $108 $30 #
coedge $-1 $68 $68 $109 $110 reversed $42 $-1 #
face $-1 $-1 $111 $24 $-1 $112 forward single #
loop $-1 $113 $114 $44 #
cone-surface $-1 -40.288103480260766 16.575091929298221 8.44126597852879 0.71933980857756763 0 -0.69465836192734942 0.17366459048183736 0 0.17983495214439191 1 I I -0.70710678118654746 0.70710678118654746 0.25 forward I I I I #
loop $-1 $-1 $115 $31 #
coedge $-1 $73 $73 $116 $117 reversed $45 $-1 #
face $-1 $118 $119 $25 $-1 $120 reversed single #
loop $-1 $-1 $121 $47 #
plane-surface $-1 15.677543217747562 -10.181121924867723 119.60753421588635 0 -1 0 -0.52991927123019833 0 -0.84804809178421925 forward_v I I I I #
coedge $-1 $122 $123 $124 $125 reversed $48 $-1 #
face $-1 $-1 $126 $26 $-1 $127 forward single #
loop $-1 $128 $129 $50 #
cone-surface $-1 32.688113630526658 -19.321966518225867 2.7965474859832469 -0.52991927123019833 0 -0.84804809178421925 0.42402404589210962 0 -0.26495963561509916 1 I I -0.70710678118654779 0.70710678118654713 0.5 forward I I I I #
loop $-1 $-1 $130 $33 #
coedge $-1 $82 $82 $131 $132 reversed $51 $-1 #
face $-1 $-1 $133 $27 $-1 $134 forward single #
loop $-1 $135 $136 $53 #
cone-surface $-1 32.688113630526658 -13.837459762210983 2.7965474859832469 -0.52991927123019833 0 -0.84804809178421925 0.42402404589210962 0 -0.26495963561509916 1 I I -0.70710678118654779 0.70710678118654713 0.5 forward I I I I #
loop $-1 $-1 $137 $34 #
coedge $-1 $87 $87 $138 $139 reversed $54 $-1 #
face $-1 $140 $141 $21 $-1 $142 reversed single #
loop $-1 $-1 $143 $56 #
plane-surface $-1 0 -22.978304355569126 0 0 1 0 0 0 1 forward_v I I I I #
coedge $-1 $144 $145 $146 $147 forward $57 $-1 #
coedge $-1 $148 $59 $149 $150 forward $36 $-1 #
coedge $-1 $59 $148 $151 $152 forward $36 $-1 #
coedge $-1 $153 $154 $59 $95 reversed $155 $-1 #
edge $-1 $156 -22.978304355569126 $157 22.978304355569126 $94 $158 forward 7 unknown #
face $-1 $159 $160 $22 $-1 $161 reversed single #
loop $-1 $-1 $162 $60 #
plane-surface $-1 -105.10875117392052 18.516704072085332 67.208699092593776 0 -1 0 0.71933980857756763 0 -0.69465836192734942 forward_v I I I I #
coedge $-1 $163 $164 $165 $166 reversed $61 $-1 #
coedge $-1 $101 $63 $167 $168 reversed $39 $-1 #
coedge $-1 $63 $100 $163 $169 reversed $39 $-1 #
coedge $-1 $165 $170 $63 $103 forward $171 $-1 #
edge $-1 $172 9.4536950241989501 $173 13.280499667756139 $102 $174 forward 7 unknown #
loop $-1 $-1 $109 $64 #
plane-surface $-1 -43.100680562761298 15.118882822207905 7.3282027772303309 -0.71933980857756763 0 0.69465836192734942 0.69465836192734942 0 0.71933980857756763 forward_v I I I I #
loop $-1 $-1 $175 $41 #
coedge $-1 $107 $107 $108 $176 reversed $65 $-1 #
coedge $-1 $108 $108 $107 $176 forward $67 $-1 #
coedge $-1 $109 $109 $68 $110 forward $104 $-1 #
edge $-1 $177 0 $177 6.2831853071796004 $109 $178 forward 7 unknown #
loop $-1 $-1 $116 $69 #
plane-surface $-1 -43.100680562761298 15.118882822207905 7.3282027772303309 -0.71933980857756763 0 0.69465836192734942 0.69465836192734942 0 0.71933980857756763 forward_v I I I I #
loop $-1 $-1 $179 $44 #
coedge $-1 $114 $114 $115 $180 reversed $70 $-1 #
coedge $-1 $115 $115 $114 $180 forward $72 $-1 #
coedge $-1 $116 $116 $73 $117 forward $111 $-1 #
edge $-1 $181 0 $181 6.2831853071796004 $116 $182 forward 7 unknown #
face $-1 $183 $184 $25 $-1 $185 forward single #
loop $-1 $-1 $124 $74 #
plane-surface $-1 43.100680562761312 0 0 -1 0 0 0 0 1 forward_v I I I I #
coedge $-1 $186 $187 $188 $189 reversed $75 $-1 #
coedge $-1 $190 $77 $191 $192 reversed $48 $-1 #
coedge $-1 $77 $190 $186 $193 forward $48 $-1 #
coedge $-1 $188 $194 $77 $125 forward $119 $-1 #
edge $-1 $195 -14.688447785459914 $196 -1.8912653547585112 $124 $197 forward 7 unknown #
loop $-1 $-1 $131 $78 #
plane-surface $-1 -30.002219248940534 -16.579713140218423 46.5046344041845 0.52991927123019833 0 0.84804809178421925 0.84804809178421925 0 -0.52991927123019833 forward_v I I I I #
loop $-1 $-1 $198 $50 #
coedge $-1 $129 $129 $130 $199 reversed $79 $-1 #
coedge $-1 $130 $130 $129 $199 forward $81 $-1 #
coedge $-1 $131 $131 $82 $132 forward $126 $-1 #
edge $-1 $200 0 $200 6.2831853071796004 $131 $201 forward 7 unknown #
loop $-1 $-1 $138 $83 #
plane-surface $-1 -30.002219248940534 -16.579713140218423 46.5046344041845 0.52991927123019833 0 0.84804809178421925 0.84804809178421925 0 -0.52991927123019833 forward_v I I I I #
loop $-1 $-1 $202 $53 #
coedge $-1 $136 $136 $137 $203 reversed $84 $-1 #
coedge $-1 $137 $137 $136 $203 forward $86 $-1 #
coedge $-1 $138 $138 $87 $139 forward $133 $-1 #
edge $-1 $204 0 $204 6.2831853071796004 $138 $205 forward 7 unknown #
face $-1 $206 $207 $21 $-1 $208 reversed single #
loop $-1 $-1 $209 $88 #
plane-surface $-1 -43.100680562761312 0 0 1 0 0 0 0 -1 forward_v I I I I #
coedge $-1 $210 $151 $211 $212 forward $89 $-1 #
coedge $-1 $213 $91 $210 $214 forward $57 $-1 #
coedge $-1 $91 $213 $215 $216 forward $57 $-1 #
coedge $-1 $154 $153 $91 $147 reversed $155 $-1 #
edge $-1 $217 -22.978304355569126 $218 22.978304355569126 $146 $219 forward 7 unknown #
coedge $-1 $93 $92 $220 $221 forward $36 $-1 #
coedge $-1 $222 $223 $92 $150 reversed $207 $-1 #
edge $-1 $157 -43.100680562761312 $224 43.100680562761312 $149 $225 forward 7 unknown #
coedge $-1 $143 $226 $93 $152 reversed $89 $-1 #
edge $-1 $227 -43.100680562761312 $156 43.100680562761312 $151 $228 forward 7 unknown #
coedge $-1 $146 $94 $226 $229 forward $155 $-1 #
coedge $-1 $94 $146 $222 $230 reversed $155 $-1 #
loop $-1 $-1 $153 $206 #
vertex $-1 $95 $231 #
vertex $-1 $95 $232 #
straight-curve $-1 43.100680562761312 0 11.290975084645616 0 1 0 I I #
face $-1 $-1 $171 $22 $-1 $233 forward single #
loop $-1 $-1 $234 $96 #
plane-surface $-1 -43.100680562761312 0 0 1 0 0 0 0 -1 forward_v I I I I #
coedge $-1 $235 $236 $237 $238 reversed $97 $-1 #
coedge $-1 $239 $99 $101 $169 forward $61 $-1 #
coedge $-1 $99 $239 $235 $240 forward $61 $-1 #
coedge $-1 $237 $102 $99 $166 forward $171 $-1 #
edge $-1 $173 4.1616201612265247 $241 10.95726266098138 $165 $242 forward 7 unknown #
coedge $-1 $243 $244 $100 $168 forward $160 $-1 #
edge $-1 $245 -26.276146769066571 $172 -22.313374461651271 $167 $246 forward 7 unknown #
edge $-1 $173 -5.508901718161999 $245 2.0733024663016622e-014 $101 $247 forward 7 unknown #
coedge $-1 $102 $237 $243 $248 forward $171 $-1 #
loop $-1 $-1 $237 $159 #
vertex $-1 $168 $249 #
vertex $-1 $103 $250 #
straight-curve $-1 -52.554375586960262 11.721061572330477 11.290975084645616 1 0 0 I I #
coedge $-1 $175 $175 $-1 $251 reversed $106 $-1 #
edge $-1 $252 0 $252 6.2831853071796004 $107 $253 forward 7 unknown #
vertex $-1 $110 $254 #
ellipse-curve $-1 -41.187278240982714 13.662673715117574 9.3095889309379682 -0.71933980857756763 0 0.69465836192734942 0.34732918096367471 0 0.35966990428878381 1 I I #
coedge $-1 $179 $179 $-1 $255 reversed $113 $-1 #
edge $-1 $256 0 $256 6.2831853071796004 $114 $257 forward 7 unknown #
vertex $-1 $117 $258 #
ellipse-curve $-1 -41.187278240982714 16.575091929298221 9.3095889309379682 -0.71933980857756763 0 0.69465836192734942 0.34732918096367471 0 0.35966990428878381 1 I I #
face $-1 $-1 $259 $25 $-1 $260 reversed single #
loop $-1 $-1 $261 $118 #
plane-surface $-1 0 0 11.290975084645616 0 0 1 1 0 0 forward_v I I I I #
coedge $-1 $187 $121 $123 $193 reversed $75 $-1 #
coedge $-1 $121 $186 $261 $262 reversed $75 $-1 #
coedge $-1 $263 $124 $121 $189 forward $119 $-1 #
edge $-1 $196 -58.978895170446776 $264 -48.512792023297557 $188 $265 forward 7 unknown #
coedge $-1 $123 $122 $266 $267 reversed $48 $-1 #
coedge $-1 $268 $269 $122 $192 forward $259 $-1 #
edge $-1 $270 41.407474973271398 $195 61.157847747698611 $191 $271 forward 7 unknown #
edge $-1 $272 66.450988351095418 $196 86.201361125522638 $186 $273 forward 7 unknown #
coedge $-1 $124 $263 $268 $274 forward $119 $-1 #
vertex $-1 $192 $275 #
vertex $-1 $125 $276 #
straight-curve $-1 43.100680562761319 -8.2898565701092117 0.82487193749639687 0 1 0 I I #
coedge $-1 $198 $198 $-1 $277 reversed $128 $-1 #
edge $-1 $278 0 $278 6.2831853071796004 $129 $279 forward 7 unknown #
vertex $-1 $132 $280 #
ellipse-curve $-1 34.726047591071314 -19.321966518225867 6.0579235110710172 0.52991927123019833 0 0.84804809178421925 0.84804809178421925 0 -0.52991927123019833 1 I I #
coedge $-1 $202 $202 $-1 $281 reversed $135 $-1 #
edge $-1 $282 0 $282 6.2831853071796004 $136 $283 forward 7 unknown #
vertex $-1 $139 $284 #
ellipse-curve $-1 34.726047591071314 -13.837459762210983 6.0579235110710172 0.52991927123019833 0 0.84804809178421925 0.84804809178421925 0 -0.52991927123019833 1 I I #
face $-1 $-1 $155 $21 $-1 $285 reversed single #
loop $-1 $-1 $222 $140 #
plane-surface $-1 0 22.978304355569126 0 0 -1 0 0 0 -1 forward_v I I I I #
coedge $-1 $286 $220 $223 $287 forward $141 $-1 #
coedge $-1 $226 $143 $144 $214 reversed $89 $-1 #
coedge $-1 $220 $286 $143 $212 reversed $141 $-1 #
edge $-1 $227 -11.290975084645616 $288 11.290975084645616 $211 $289 forward 7 unknown #
coedge $-1 $145 $144 $286 $290 forward $57 $-1 #
edge $-1 $218 -43.100680562761312 $288 43.100680562761312 $210 $291 forward 7 unknown #
coedge $-1 $223 $222 $145 $216 reversed $207 $-1 #
edge $-1 $292 -43.100680562761312 $217 43.100680562761312 $215 $293 forward 7 unknown #
vertex $-1 $147 $294 #
vertex $-1 $229 $295 #
straight-curve $-1 43.100680562761312 0 -11.290975084645616 0 -1 0 I I #
coedge $-1 $209 $211 $148 $221 reversed $141 $-1 #
edge $-1 $224 -22.978304355569126 $227 22.978304355569126 $220 $296 forward 7 unknown #
coedge $-1 $215 $149 $154 $230 forward $207 $-1 #
coedge $-1 $149 $215 $209 $287 reversed $207 $-1 #
vertex $-1 $150 $297 #
straight-curve $-1 0 22.978304355569126 11.290975084645616 -1 0 0 I I #
coedge $-1 $151 $210 $153 $229 reversed $89 $-1 #
vertex $-1 $221 $298 #
straight-curve $-1 0 -22.978304355569126 11.290975084645616 1 0 0 I I #
edge $-1 $156 -11.290975084645616 $218 11.290975084645616 $153 $299 forward 7 unknown #
edge $-1 $157 -11.290975084645616 $217 11.290975084645616 $154 $300 forward 7 unknown #
point $-1 43.100680562761312 -22.978304355569126 11.290975084645616 #
point $-1 43.100680562761312 22.978304355569126 11.290975084645616 #
plane-surface $-1 0 0 11.290975084645616 0 0 1 1 0 0 forward_v I I I I #
coedge $-1 $244 $243 $236 $301 forward $160 $-1 #
coedge $-1 $236 $162 $164 $240 reversed $97 $-1 #
coedge $-1 $162 $235 $234 $301 reversed $97 $-1 #
coedge $-1 $170 $165 $162 $238 forward $171 $-1 #
edge $-1 $241 -13.280499667756139 $302 -9.4536950241989501 $237 $303 forward 7 unknown #
coedge $-1 $164 $163 $244 $304 reversed $61 $-1 #
edge $-1 $305 -2.0733024663016622e-014 $241 5.508901718161999 $235 $306 forward 7 unknown #
vertex $-1 $166 $307 #
straight-curve $-1 -39.273875919204123 7.5594414111039523 11.290975084645616 0 1 0 I I #
coedge $-1 $234 $167 $170 $248 reversed $160 $-1 #
coedge $-1 $167 $234 $239 $304 forward $160 $-1 #
vertex $-1 $168 $308 #
straight-curve $-1 -43.100680562761312 11.721061572330477 33.604349546296888 0 0 1 I I #
straight-curve $-1 -43.100680562761298 11.721061572330477 7.3282027772303309 -0.69465836192734942 0 -0.71933980857756763 I I #
edge $-1 $302 -18.516704072085332 $172 -11.721061572330477 $243 $309 forward 7 unknown #
point $-1 -43.100680562761312 11.721061572330477 11.290975084645616 #
point $-1 -39.273875919204123 11.721061572330477 11.290975084645616 #
edge $-1 $310 1 $310 0 $175 $-1 forward 7 unknown #
vertex $-1 $176 $311 #
ellipse-curve $-1 -40.467938432405155 13.662673715117574 8.6149305690106281 -0.71933980857756763 0 0.69465836192734942 0.34732918096367471 0 0.35966990428878381 1 I I #
point $-1 -40.839949060019052 13.662673715117574 9.6692588352267599 #
edge $-1 $312 1 $312 0 $179 $-1 forward 7 unknown #
vertex $-1 $180 $313 #
ellipse-curve $-1 -40.467938432405155 16.575091929298221 8.6149305690106281 -0.71933980857756763 0 0.69465836192734942 0.34732918096367471 0 0.35966990428878381 1 I I #
point $-1 -40.839949060019052 16.575091929298221 9.6692588352267599 #
loop $-1 $-1 $191 $183 #
plane-surface $-1 0 -22.978304355569126 0 0 1 0 0 0 1 forward_v I I I I #
coedge $-1 $266 $314 $187 $262 forward $184 $-1 #
edge $-1 $264 -35.261908953887527 $272 -18.512643010507535 $261 $315 forward 7 unknown #
coedge $-1 $194 $188 $314 $316 reversed $119 $-1 #
vertex $-1 $189 $317 #
straight-curve $-1 43.100680562761312 -10.181121924867723 59.803767107943173 0 0 1 I I #
coedge $-1 $318 $261 $190 $267 forward $184 $-1 #
edge $-1 $272 1.8912653547585112 $270 14.68844778545991 $266 $319 forward 7 unknown #
coedge $-1 $269 $191 $194 $274 reversed $259 $-1 #
coedge $-1 $191 $268 $318 $320 reversed $259 $-1 #
vertex $-1 $320 $321 #
straight-curve $-1 -8.7641155173043046 -22.978304355569126 33.233594045964274 0.84804809178421925 0 -0.52991927123019833 I I #
vertex $-1 $267 $322 #
straight-curve $-1 -30.002219248940534 -10.181121924867723 46.5046344041845 0.84804809178421925 0 -0.52991927123019833 I I #
edge $-1 $323 -11.290975084645616 $195 -0.82487193749639531 $194 $324 forward 7 unknown #
point $-1 43.100680562761312 -22.978304355569126 0.82487193749639531 #
point $-1 43.100680562761312 -10.181121924867723 0.82487193749639687 #
edge $-1 $325 1 $325 0 $198 $-1 forward 7 unknown #
vertex $-1 $199 $326 #
ellipse-curve $-1 32.953073266141757 -19.321966518225867 3.2205715318753563 0.52991927123019833 0 0.84804809178421925 0.84804809178421925 0 -0.52991927123019833 1 I I #
point $-1 35.574095682855528 -19.321966518225867 5.5280042398408114 #
edge $-1 $327 1 $327 0 $202 $-1 forward 7 unknown #
vertex $-1 $203 $328 #
ellipse-curve $-1 32.953073266141757 -13.837459762210983 3.2205715318753563 0.52991927123019833 0 0.84804809178421925 0.84804809178421925 0 -0.52991927123019833 1 I I #
point $-1 35.574095682855528 -13.837459762210983 5.5280042398408114 #
plane-surface $-1 43.100680562761312 0 0 -1 0 0 0 0 1 forward_v I I I I #
coedge $-1 $211 $209 $213 $290 reversed $141 $-1 #
edge $-1 $224 -11.290975084645616 $292 11.290975084645616 $223 $329 forward 7 unknown #
vertex $-1 $290 $330 #
straight-curve $-1 -43.100680562761312 -22.978304355569126 0 0 0 -1 I I #
edge $-1 $288 -22.978304355569126 $292 22.978304355569126 $286 $331 forward 7 unknown #
straight-curve $-1 0 -22.978304355569126 -11.290975084645616 -1 0 0 I I #
vertex $-1 $216 $332 #
straight-curve $-1 0 22.978304355569126 -11.290975084645616 1 0 0 I I #
point $-1 43.100680562761312 22.978304355569126 -11.290975084645616 #
point $-1 43.100680562761312 -22.978304355569126 -11.290975084645616 #
straight-curve $-1 -43.100680562761312 0 11.290975084645616 0 -1 0 I I #
point $-1 -43.100680562761312 22.978304355569126 11.290975084645616 #
point $-1 -43.100680562761312 -22.978304355569126 11.290975084645616 #
straight-curve $-1 43.100680562761312 -22.978304355569126 0 0 0 -1 I I #
straight-curve $-1 43.100680562761312 22.978304355569126 0 0 0 -1 I I #
edge $-1 $302 22.313374461651271 $305 26.276146769066571 $234 $333 forward 7 unknown #
vertex $-1 $248 $334 #
straight-curve $-1 -52.554375586960262 18.516704072085332 11.290975084645616 -1 0 0 I I #
edge $-1 $305 -10.95726266098138 $245 -4.1616201612265247 $244 $335 forward 7 unknown #
vertex $-1 $304 $336 #
straight-curve $-1 -43.100680562761298 18.516704072085332 7.3282027772303309 0.69465836192734942 0 0.71933980857756763 I I #
point $-1 -39.273875919204123 18.516704072085332 11.290975084645616 #
point $-1 -43.100680562761312 11.721061572330477 7.3282027772303158 #
straight-curve $-1 -43.100680562761312 0 11.290975084645616 0 -1 0 I I #
vertex $-1 $251 $337 #
point $-1 -40.120609251441486 13.662673715117574 8.9746004732994109 #
vertex $-1 $255 $338 #
point $-1 -40.120609251441486 16.575091929298221 8.9746004732994109 #
coedge $-1 $261 $318 $263 $316 forward $184 $-1 #
straight-curve $-1 7.8387716088737811 -10.181121924867723 11.290975084645616 -1 0 0 I I #
edge $-1 $323 -22.978304355569126 $264 -10.181121924867723 $263 $339 forward 7 unknown #
point $-1 43.100680562761312 -10.181121924867723 11.290975084645616 #
coedge $-1 $314 $266 $269 $320 forward $184 $-1 #
straight-curve $-1 26.351414619381323 -8.2898565701092117 11.290975084645613 0 -1 0 I I #
edge $-1 $270 26.351414619381316 $323 43.100680562761312 $269 $340 forward 7 unknown #
point $-1 26.351414619381316 -22.978304355569122 11.290975084645616 #
point $-1 26.351414619381316 -10.181121924867723 11.290975084645616 #
vertex $-1 $316 $341 #
straight-curve $-1 43.100680562761312 -22.978304355569126 0 0 0 -1 I I #
vertex $-1 $277 $342 #
point $-1 33.801121357925979 -19.321966518225867 2.6906522606451579 #
vertex $-1 $281 $343 #
point $-1 33.801121357925979 -13.837459762210983 2.6906522606451579 #
straight-curve $-1 -43.100680562761312 22.978304355569126 0 0 0 -1 I I #
point $-1 -43.100680562761312 -22.978304355569126 -11.290975084645616 #
straight-curve $-1 -43.100680562761312 0 -11.290975084645616 0 1 0 I I #
point $-1 -43.100680562761312 22.978304355569126 -11.290975084645616 #
straight-curve $-1 -43.100680562761312 18.516704072085332 33.604349546296888 0 0 -1 I I #
point $-1 -43.100680562761312 18.516704072085332 11.290975084645616 #
straight-curve $-1 -43.100680562761312 7.5594414111039523 7.3282027772303131 0 -1 0 I I #
point $-1 -43.100680562761312 18.516704072085332 7.3282027772303158 #
point $-1 -40.108268528116376 13.662673715117574 8.2676013880469519 #
point $-1 -40.108268528116376 16.575091929298221 8.2676013880469519 #
straight-curve $-1 43.100680562761312 0 11.290975084645616 0 1 0 I I #
straight-curve $-1 0 -22.978304355569126 11.290975084645616 1 0 0 I I #
point $-1 43.100680562761312 -22.978304355569126 11.290975084645616 #
point $-1 32.423153994911559 -19.321966518225867 2.3725234400911375 #
point $-1 32.423153994911559 -13.837459762210983 2.3725234400911375 #
End-of-ACIS-data 