500 0 11 0           
7 Unknown 11 ACIS 5.0 NT 24 Fri Mar 26 15:21:59 1999 
-1 9.9999999999999995e-007 1e-010 
body $-1 $11 $-1 $12 #
body $-1 $13 $-1 $14 #
body $-1 $15 $-1 $16 #
body $-1 $17 $-1 $18 #
body $-1 $19 $-1 $20 #
body $-1 $21 $-1 $22 #
body $-1 $23 $-1 $24 #
body $-1 $25 $-1 $26 #
body $-1 $27 $-1 $28 #
body $-1 $29 $-1 $30 #
body $-1 $31 $-1 $32 #
lump $-1 $-1 $33 $0 #
transform $-1 1 0 0 0 1 0 0 0 1 43.060396130252997 17.589226296120618 7.8932773567514882 1 rotate no_reflect no_shear #
lump $-1 $-1 $34 $1 #
transform $-1 1 0 0 0 1 0 0 0 1 43.060396130252997 17.589226296120618 7.8932773567514882 1 rotate no_reflect no_shear #
lump $-1 $-1 $35 $2 #
transform $-1 1 0 0 0 1 0 0 0 1 43.060396130252997 17.589226296120618 7.8932773567514882 1 rotate no_reflect no_shear #
lump $-1 $-1 $36 $3 #
transform $-1 1 0 0 0 1 0 0 0 1 43.060396130252997 17.589226296120618 7.8932773567514882 1 rotate no_reflect no_shear #
lump $-1 $-1 $37 $4 #
transform $-1 1 0 0 0 1 0 0 0 1 43.060396130252997 17.589226296120618 7.8932773567514882 1 rotate no_reflect no_shear #
lump $-1 $-1 $38 $5 #
transform $-1 1 0 0 0 1 0 0 0 1 43.060396130252997 17.589226296120618 7.8932773567514882 1 rotate no_reflect no_shear #
lump $-1 $-1 $39 $6 #
transform $-1 1 0 0 0 1 0 0 0 1 43.060396130252997 17.589226296120618 7.8932773567514882 1 rotate no_reflect no_shear #
lump $-1 $-1 $40 $7 #
transform $-1 1 0 0 0 1 0 0 0 1 43.060396130252997 17.589226296120618 7.8932773567514882 1 rotate no_reflect no_shear #
lump $-1 $-1 $41 $8 #
transform $-1 1 0 0 0 1 0 0 0 1 43.060396130252997 17.589226296120618 7.8932773567514882 1 rotate no_reflect no_shear #
lump $-1 $-1 $42 $9 #
transform $-1 1 0 0 0 1 0 0 0 1 43.060396130252997 17.589226296120618 7.8932773567514882 1 rotate no_reflect no_shear #
lump $-1 $-1 $43 $10 #
transform $-1 1 0 0 0 1 0 0 0 1 43.060396130252997 17.589226296120618 7.8932773567514882 1 rotate no_reflect no_shear #
shell $-1 $-1 $-1 $44 $-1 $11 #
shell $-1 $-1 $-1 $45 $-1 $13 #
shell $-1 $-1 $-1 $46 $-1 $15 #
shell $-1 $-1 $-1 $47 $-1 $17 #
shell $-1 $-1 $-1 $48 $-1 $19 #
shell $-1 $-1 $-1 $49 $-1 $21 #
shell $-1 $-1 $-1 $50 $-1 $23 #
shell $-1 $-1 $-1 $51 $-1 $25 #
shell $-1 $-1 $-1 $52 $-1 $27 #
shell $-1 $-1 $-1 $53 $-1 $29 #
shell $-1 $-1 $-1 $54 $-1 $31 #
face $-1 $55 $56 $33 $-1 $57 forward single #
face $-1 $58 $59 $34 $-1 $60 forward single #
face $-1 $61 $62 $35 $-1 $63 reversed single #
face $-1 $64 $65 $36 $-1 $66 forward single #
face $-1 $67 $68 $37 $-1 $69 forward single #
face $-1 $70 $71 $38 $-1 $72 reversed single #
face $-1 $73 $74 $39 $-1 $75 forward single #
face $-1 $76 $77 $40 $-1 $78 forward single #
face $-1 $79 $80 $41 $-1 $81 reversed single #
face $-1 $82 $83 $42 $-1 $84 forward single #
face $-1 $85 $86 $43 $-1 $87 forward single #
face $-1 $88 $89 $33 $-1 $90 reversed single #
loop $-1 $-1 $91 $44 #
plane-surface $-1 0 0 7.8932773567514882 0 0 1 1 0 0 forward_v I I I I #
face $-1 $92 $93 $34 $-1 $94 reversed single #
loop $-1 $-1 $95 $45 #
plane-surface $-1 0 -14.697550742892266 7.3932773567514882 0 0 1 1 0 0 forward_v I I I I #
face $-1 $96 $97 $35 $-1 $98 reversed single #
loop $-1 $-1 $99 $46 #
plane-surface $-1 -116.09497072873312 -8.9630752608822242 50.211063768339336 0 1 0 -0.84804810408105047 0 0.52991925155115449 forward_v I I I I #
face $-1 $100 $101 $36 $-1 $102 forward single #
loop $-1 $103 $104 $47 #
cone-surface $-1 -41.473538152336886 -7.1075900199858317 5.8900844909144752 0.84804810408105047 0 -0.52991925155115449 0.26495962577557725 0 0.42402405204052523 1 I I 0 1 0.5 forward I I I I #
face $-1 $105 $106 $37 $-1 $107 forward single #
loop $-1 $108 $109 $48 #
cone-surface $-1 -41.473538152336886 -4.3243621586412431 5.8900844909144752 0.84804810408105047 0 -0.52991925155115449 0.26495962577557725 0 0.42402405204052523 1 I I 0 1 0.5 forward I I I I #
face $-1 $110 $111 $38 $-1 $112 reversed single #
loop $-1 $-1 $113 $49 #
plane-surface $-1 -116.09497072873312 8.2522280242015533 50.211063768339336 0 1 0 -0.84804810408105047 0 0.52991925155115449 forward_v I I I I #
face $-1 $114 $115 $39 $-1 $116 forward single #
loop $-1 $117 $118 $50 #
cone-surface $-1 -41.473538152336886 10.107713265097946 5.8900844909144752 0.84804810408105047 0 -0.52991925155115449 0.26495962577557725 0 0.42402405204052523 1 I I 0 1 0.5 forward I I I I #
face $-1 $119 $120 $40 $-1 $121 forward single #
loop $-1 $122 $123 $51 #
cone-surface $-1 -41.473538152336886 12.890941126442534 5.8900844909144752 0.84804810408105047 0 -0.52991925155115449 0.26495962577557725 0 0.42402405204052523 1 I I 0 1 0.5 forward I I I I #
face $-1 $124 $125 $41 $-1 $126 reversed single #
loop $-1 $-1 $127 $52 #
plane-surface $-1 40.934813216393962 8.3326186931402688 125.54133285612936 0 -1 0 -0.69465837861970381 0 -0.71933979245794832 forward_v I I I I #
face $-1 $128 $129 $42 $-1 $130 forward single #
loop $-1 $131 $132 $53 #
cone-surface $-1 40.576463895167116 4.0386098774290282 5.4703138361544914 -0.69465837861970381 0 -0.71933979245794832 0.17983494811448708 0 -0.17366459465492595 1 I I 0 1 0.25 forward I I I I #
face $-1 $133 $134 $43 $-1 $135 forward single #
loop $-1 $136 $137 $54 #
cone-surface $-1 40.576463895167116 6.6150151668557733 5.4703138361544914 -0.69465837861970381 0 -0.71933979245794832 0.17983494811448708 0 -0.17366459465492595 1 I I 0 1 0.25 forward I I I I #
face $-1 $138 $139 $33 $-1 $140 reversed single #
loop $-1 $-1 $141 $55 #
plane-surface $-1 0 0 -7.8932773567514882 0 0 1 1 0 0 forward_v I I I I #
coedge $-1 $142 $143 $144 $145 forward $56 $-1 #
face $-1 $146 $147 $34 $-1 $148 reversed single #
loop $-1 $-1 $149 $58 #
plane-surface $-1 0 -14.697550742892266 3.9410675786330902 0 0 1 1 0 0 forward_v I I I I #
coedge $-1 $150 $151 $152 $153 reversed $59 $-1 #
face $-1 $154 $155 $35 $-1 $156 reversed single #
loop $-1 $-1 $157 $61 #
plane-surface $-1 -43.060396130253011 -5.7159760893135392 4.5739979906595423 -0.84804810408105047 0 0.52991925155115449 0.52991925155115449 0 0.84804810408105047 forward_v I I I I #
coedge $-1 $158 $159 $160 $161 reversed $62 $-1 #
face $-1 $-1 $162 $36 $-1 $163 forward single #
loop $-1 $164 $165 $64 #
cone-surface $-1 -40.711726087038699 -7.1075900199858317 5.4140514952356451 0.84804810408105047 0 -0.52991925155115449 0.13247981288778862 0 0.21201202602026262 1 I I -0.70710678118654746 0.70710678118654746 0.25 forward I I I I #
loop $-1 $-1 $166 $47 #
coedge $-1 $104 $104 $167 $168 reversed $65 $-1 #
face $-1 $-1 $169 $37 $-1 $170 forward single #
loop $-1 $171 $172 $67 #
cone-surface $-1 -40.711726087038699 -4.3243621586412431 5.4140514952356451 0.84804810408105047 0 -0.52991925155115449 0.13247981288778862 0 0.21201202602026262 1 I I -0.70710678118654746 0.70710678118654746 0.25 forward I I I I #
loop $-1 $-1 $173 $48 #
coedge $-1 $109 $109 $174 $175 reversed $68 $-1 #
face $-1 $176 $177 $38 $-1 $178 reversed single #
loop $-1 $-1 $179 $70 #
plane-surface $-1 -43.060396130253011 11.499327195770238 4.5739979906595423 -0.84804810408105047 0 0.52991925155115449 0.52991925155115449 0 0.84804810408105047 forward_v I I I I #
coedge $-1 $180 $181 $182 $183 reversed $71 $-1 #
face $-1 $-1 $184 $39 $-1 $185 forward single #
loop $-1 $186 $187 $73 #
cone-surface $-1 -40.711726087038699 10.107713265097946 5.4140514952356451 0.84804810408105047 0 -0.52991925155115449 0.13247981288778862 0 0.21201202602026262 1 I I -0.70710678118654746 0.70710678118654746 0.25 forward I I I I #
loop $-1 $-1 $188 $50 #
coedge $-1 $118 $118 $189 $190 reversed $74 $-1 #
face $-1 $-1 $191 $40 $-1 $192 forward single #
loop $-1 $193 $194 $76 #
cone-surface $-1 -40.711726087038699 12.890941126442534 5.4140514952356451 0.84804810408105047 0 -0.52991925155115449 0.13247981288778862 0 0.21201202602026262 1 I I -0.70710678118654746 0.70710678118654746 0.25 forward I I I I #
loop $-1 $-1 $195 $51 #
coedge $-1 $123 $123 $196 $197 reversed $77 $-1 #
face $-1 $198 $199 $41 $-1 $200 reversed single #
loop $-1 $-1 $201 $79 #
plane-surface $-1 -18.889716700733466 5.3268125221424008 63.591220025142896 0.69465837861970381 0 0.71933979245794832 0.71933979245794832 0 -0.69465837861970381 forward_v I I I I #
coedge $-1 $202 $203 $204 $205 reversed $80 $-1 #
face $-1 $-1 $206 $42 $-1 $207 forward single #
loop $-1 $208 $209 $82 #
cone-surface $-1 40.142302408529801 4.0386098774290282 5.0207264658682735 -0.69465837861970381 0 -0.71933979245794832 0.08991747405724354 0 -0.086832297327462976 1 I I -0.70710678118654746 0.70710678118654746 0.125 forward I I I I #
loop $-1 $-1 $210 $53 #
coedge $-1 $132 $132 $211 $212 reversed $83 $-1 #
face $-1 $-1 $213 $43 $-1 $214 forward single #
loop $-1 $215 $216 $85 #
cone-surface $-1 40.142302408529801 6.6150151668557733 5.0207264658682735 -0.69465837861970381 0 -0.71933979245794832 0.08991747405724354 0 -0.086832297327462976 1 I I -0.70710678118654746 0.70710678118654746 0.125 forward I I I I #
loop $-1 $-1 $217 $54 #
coedge $-1 $137 $137 $218 $219 reversed $86 $-1 #
face $-1 $220 $221 $33 $-1 $222 reversed single #
loop $-1 $-1 $223 $88 #
plane-surface $-1 0 -17.589226296120618 0 0 1 0 0 0 1 forward_v I I I I #
coedge $-1 $224 $225 $226 $227 forward $89 $-1 #
coedge $-1 $228 $91 $229 $230 forward $56 $-1 #
coedge $-1 $91 $228 $231 $232 forward $56 $-1 #
coedge $-1 $233 $234 $91 $145 reversed $235 $-1 #
edge $-1 $236 -17.589226296120618 $237 17.589226296120618 $144 $238 forward 7 unknown #
face $-1 $239 $240 $34 $-1 $241 reversed single #
loop $-1 $-1 $242 $92 #
plane-surface $-1 0 -11.805875189663915 5.6671724676922892 0 -1 0 0 0 -1 forward_v I I I I #
coedge $-1 $243 $244 $245 $246 reversed $93 $-1 #
coedge $-1 $247 $95 $248 $249 forward $59 $-1 #
coedge $-1 $95 $247 $250 $251 reversed $59 $-1 #
coedge $-1 $252 $253 $95 $153 forward $254 $-1 #
edge $-1 $255 4.4570998182177819 $256 10.240450924674484 $152 $257 forward 7 unknown #
face $-1 $258 $259 $35 $-1 $260 reversed single #
loop $-1 $-1 $261 $96 #
plane-surface $-1 -116.09497072873312 -2.4688769177448533 50.211063768339336 0 -1 0 0.84804810408105047 0 -0.52991925155115449 forward_v I I I I #
coedge $-1 $262 $263 $264 $265 reversed $97 $-1 #
coedge $-1 $159 $99 $266 $267 reversed $62 $-1 #
coedge $-1 $99 $158 $262 $268 reversed $62 $-1 #
coedge $-1 $264 $269 $99 $161 forward $270 $-1 #
edge $-1 $271 14.987089234113562 $272 17.061205111389924 $160 $273 forward 7 unknown #
loop $-1 $-1 $167 $100 #
plane-surface $-1 -43.060396130253011 -5.7159760893135392 4.5739979906595423 -0.84804810408105047 0 0.52991925155115449 0.52991925155115449 0 0.84804810408105047 forward_v I I I I #
loop $-1 $-1 $274 $64 #
coedge $-1 $165 $165 $166 $275 reversed $101 $-1 #
coedge $-1 $166 $166 $165 $275 forward $103 $-1 #
coedge $-1 $167 $167 $104 $168 forward $162 $-1 #
edge $-1 $276 0 $276 6.2831853071796004 $167 $277 forward 7 unknown #
loop $-1 $-1 $174 $105 #
plane-surface $-1 -43.060396130253011 -5.7159760893135392 4.5739979906595423 -0.84804810408105047 0 0.52991925155115449 0.52991925155115449 0 0.84804810408105047 forward_v I I I I #
loop $-1 $-1 $278 $67 #
coedge $-1 $172 $172 $173 $279 reversed $106 $-1 #
coedge $-1 $173 $173 $172 $279 forward $108 $-1 #
coedge $-1 $174 $174 $109 $175 forward $169 $-1 #
edge $-1 $280 0 $280 6.2831853071796004 $174 $281 forward 7 unknown #
face $-1 $282 $283 $38 $-1 $284 forward single #
loop $-1 $-1 $285 $110 #
plane-surface $-1 -116.09497072873312 14.746426367338923 50.211063768339336 0 -1 0 0.84804810408105047 0 -0.52991925155115449 forward_v I I I I #
coedge $-1 $286 $287 $288 $289 reversed $111 $-1 #
coedge $-1 $181 $113 $290 $291 reversed $71 $-1 #
coedge $-1 $113 $180 $286 $292 reversed $71 $-1 #
coedge $-1 $288 $293 $113 $183 forward $283 $-1 #
edge $-1 $294 14.987089234113562 $295 17.061205111389924 $182 $296 forward 7 unknown #
loop $-1 $-1 $189 $114 #
plane-surface $-1 -43.060396130253011 11.499327195770238 4.5739979906595423 -0.84804810408105047 0 0.52991925155115449 0.52991925155115449 0 0.84804810408105047 forward_v I I I I #
loop $-1 $-1 $297 $73 #
coedge $-1 $187 $187 $188 $298 reversed $115 $-1 #
coedge $-1 $188 $188 $187 $298 forward $117 $-1 #
coedge $-1 $189 $189 $118 $190 forward $184 $-1 #
edge $-1 $299 0 $299 6.2831853071796004 $189 $300 forward 7 unknown #
loop $-1 $-1 $196 $119 #
plane-surface $-1 -43.060396130253011 11.499327195770238 4.5739979906595423 -0.84804810408105047 0 0.52991925155115449 0.52991925155115449 0 0.84804810408105047 forward_v I I I I #
loop $-1 $-1 $301 $76 #
coedge $-1 $194 $194 $195 $302 reversed $120 $-1 #
coedge $-1 $195 $195 $194 $302 forward $122 $-1 #
coedge $-1 $196 $196 $123 $197 forward $191 $-1 #
edge $-1 $303 0 $303 6.2831853071796004 $196 $304 forward 7 unknown #
face $-1 $305 $306 $41 $-1 $307 forward single #
loop $-1 $-1 $308 $124 #
plane-surface $-1 40.934813216393962 2.3210063511445327 125.54133285612936 0 1 0 0.69465837861970381 0 0.71933979245794832 forward_v I I I I #
coedge $-1 $309 $310 $311 $312 reversed $125 $-1 #
coedge $-1 $203 $127 $313 $314 reversed $80 $-1 #
coedge $-1 $127 $202 $309 $315 reversed $80 $-1 #
coedge $-1 $311 $316 $127 $205 forward $306 $-1 #
edge $-1 $317 -22.592989522056016 $318 -18.319783430503975 $204 $319 forward 7 unknown #
loop $-1 $-1 $211 $128 #
plane-surface $-1 -18.889716700733466 5.3268125221424008 63.591220025142896 0.69465837861970381 0 0.71933979245794832 0.71933979245794832 0 -0.69465837861970381 forward_v I I I I #
loop $-1 $-1 $320 $82 #
coedge $-1 $209 $209 $210 $321 reversed $129 $-1 #
coedge $-1 $210 $210 $209 $321 forward $131 $-1 #
coedge $-1 $211 $211 $132 $212 forward $206 $-1 #
edge $-1 $322 0 $322 6.2831853071796004 $211 $323 forward 7 unknown #
loop $-1 $-1 $218 $133 #
plane-surface $-1 -18.889716700733466 5.3268125221424008 63.591220025142896 0.69465837861970381 0 0.71933979245794832 0.71933979245794832 0 -0.69465837861970381 forward_v I I I I #
loop $-1 $-1 $324 $85 #
coedge $-1 $216 $216 $217 $325 reversed $134 $-1 #
coedge $-1 $217 $217 $216 $325 forward $136 $-1 #
coedge $-1 $218 $218 $137 $219 forward $213 $-1 #
edge $-1 $326 0 $326 6.2831853071796004 $218 $327 forward 7 unknown #
face $-1 $328 $329 $33 $-1 $330 reversed single #
loop $-1 $-1 $331 $138 #
plane-surface $-1 -43.060396130252997 0 0 1 0 0 0 0 -1 forward_v I I I I #
coedge $-1 $332 $231 $333 $334 forward $139 $-1 #
coedge $-1 $335 $141 $332 $336 forward $89 $-1 #
coedge $-1 $141 $335 $337 $338 forward $89 $-1 #
coedge $-1 $234 $233 $141 $227 reversed $235 $-1 #
edge $-1 $339 -17.589226296120618 $340 17.589226296120618 $226 $341 forward 7 unknown #
coedge $-1 $143 $142 $342 $343 forward $56 $-1 #
coedge $-1 $344 $345 $142 $230 reversed $329 $-1 #
edge $-1 $237 -43.060396130252997 $346 43.060396130252997 $229 $347 forward 7 unknown #
coedge $-1 $223 $348 $143 $232 reversed $139 $-1 #
edge $-1 $349 -43.060396130252997 $236 43.060396130252997 $231 $350 forward 7 unknown #
coedge $-1 $226 $144 $348 $351 forward $235 $-1 #
coedge $-1 $144 $226 $344 $352 reversed $235 $-1 #
loop $-1 $-1 $233 $328 #
vertex $-1 $145 $353 #
vertex $-1 $145 $354 #
straight-curve $-1 43.060396130252997 0 7.8932773567514882 0 1 0 I I #
face $-1 $355 $356 $34 $-1 $357 reversed single #
loop $-1 $-1 $358 $146 #
plane-surface $-1 -43.060396130252997 0 0 1 0 0 0 0 -1 forward_v I I I I #
coedge $-1 $359 $248 $253 $360 reversed $147 $-1 #
coedge $-1 $361 $149 $362 $363 reversed $93 $-1 #
coedge $-1 $149 $361 $359 $364 forward $93 $-1 #
coedge $-1 $253 $252 $149 $246 forward $254 $-1 #
edge $-1 $365 -10.240450924674484 $366 -4.4570998182177819 $245 $367 forward 7 unknown #
coedge $-1 $151 $150 $358 $368 reversed $59 $-1 #
coedge $-1 $242 $369 $150 $249 reversed $147 $-1 #
edge $-1 $255 -43.060396130252997 $370 43.060396130252997 $248 $371 forward 7 unknown #
coedge $-1 $372 $373 $151 $251 forward $356 $-1 #
edge $-1 $256 -43.060396130252997 $374 43.060396130252997 $250 $375 forward 7 unknown #
coedge $-1 $245 $152 $373 $376 forward $254 $-1 #
coedge $-1 $152 $245 $242 $360 forward $254 $-1 #
loop $-1 $-1 $152 $355 #
vertex $-1 $153 $377 #
vertex $-1 $376 $378 #
straight-curve $-1 43.060396130252997 -7.3487753714461332 7.3932773567514882 0 -1 0 I I #
face $-1 $-1 $270 $35 $-1 $379 forward single #
loop $-1 $-1 $380 $154 #
plane-surface $-1 -43.060396130252997 0 0 1 0 0 0 0 -1 forward_v I I I I #
coedge $-1 $381 $382 $383 $384 reversed $155 $-1 #
coedge $-1 $385 $157 $159 $268 forward $97 $-1 #
coedge $-1 $157 $385 $381 $386 forward $97 $-1 #
coedge $-1 $383 $160 $157 $265 forward $270 $-1 #
edge $-1 $272 -6.1050872162254546 $387 0.38911112691191629 $264 $388 forward 7 unknown #
coedge $-1 $389 $390 $158 $267 forward $259 $-1 #
edge $-1 $391 -20.531533893510101 $271 -17.212254527418182 $266 $392 forward 7 unknown #
edge $-1 $272 -3.9140225066462895 $391 -2.7114274142304302e-014 $159 $393 forward 7 unknown #
coedge $-1 $160 $383 $389 $394 forward $270 $-1 #
loop $-1 $-1 $383 $258 #
vertex $-1 $267 $395 #
vertex $-1 $161 $396 #
straight-curve $-1 -58.047485364366558 -8.9630752608822242 7.89327735675149 1 0 0 I I #
coedge $-1 $274 $274 $-1 $397 reversed $164 $-1 #
edge $-1 $398 0 $398 6.2831853071796004 $165 $399 forward 7 unknown #
vertex $-1 $168 $400 #
ellipse-curve $-1 -42.023338191614819 -7.1075900199858317 6.2336376737055224 -0.84804810408105047 0 0.52991925155115449 0.26495962577557725 0 0.42402405204052523 1 I I #
coedge $-1 $278 $278 $-1 $401 reversed $171 $-1 #
edge $-1 $402 0 $402 6.2831853071796004 $172 $403 forward 7 unknown #
vertex $-1 $175 $404 #
ellipse-curve $-1 -42.023338191614819 -4.3243621586412431 6.2336376737055224 -0.84804810408105047 0 0.52991925155115449 0.26495962577557725 0 0.42402405204052523 1 I I #
face $-1 $-1 $405 $38 $-1 $406 reversed single #
loop $-1 $-1 $182 $176 #
plane-surface $-1 0 0 7.8932773567514882 0 0 1 1 0 0 forward_v I I I I #
coedge $-1 $407 $408 $409 $410 reversed $177 $-1 #
coedge $-1 $411 $179 $181 $292 forward $111 $-1 #
coedge $-1 $179 $411 $407 $412 forward $111 $-1 #
coedge $-1 $409 $182 $179 $289 forward $283 $-1 #
edge $-1 $295 2.5025644263164342 $413 8.9967627694538042 $288 $414 forward 7 unknown #
coedge $-1 $415 $416 $180 $291 forward $405 $-1 #
edge $-1 $417 -20.531533893510101 $294 -17.212254527418182 $290 $418 forward 7 unknown #
edge $-1 $295 -3.9140225066462895 $417 -2.7114274142304302e-014 $181 $419 forward 7 unknown #
coedge $-1 $182 $409 $415 $420 forward $283 $-1 #
vertex $-1 $183 $421 #
vertex $-1 $183 $422 #
straight-curve $-1 -58.047485364366558 8.2522280242015533 7.89327735675149 1 0 0 I I #
coedge $-1 $297 $297 $-1 $423 reversed $186 $-1 #
edge $-1 $424 0 $424 6.2831853071796004 $187 $425 forward 7 unknown #
vertex $-1 $190 $426 #
ellipse-curve $-1 -42.023338191614819 10.107713265097946 6.2336376737055224 -0.84804810408105047 0 0.52991925155115449 0.26495962577557725 0 0.42402405204052523 1 I I #
coedge $-1 $301 $301 $-1 $427 reversed $193 $-1 #
edge $-1 $428 0 $428 6.2831853071796004 $194 $429 forward 7 unknown #
vertex $-1 $197 $430 #
ellipse-curve $-1 -42.023338191614819 12.890941126442534 6.2336376737055224 -0.84804810408105047 0 0.52991925155115449 0.26495962577557725 0 0.42402405204052523 1 I I #
face $-1 $-1 $431 $41 $-1 $432 reversed single #
loop $-1 $-1 $204 $198 #
plane-surface $-1 0 0 7.8932773567514882 0 0 1 1 0 0 forward_v I I I I #
coedge $-1 $433 $434 $435 $436 reversed $199 $-1 #
coedge $-1 $437 $201 $203 $315 forward $125 $-1 #
coedge $-1 $201 $437 $433 $438 forward $125 $-1 #
coedge $-1 $435 $204 $201 $312 forward $306 $-1 #
edge $-1 $318 -5.6692124320690684 $439 0.34239990992666769 $311 $440 forward 7 unknown #
coedge $-1 $441 $442 $202 $314 forward $431 $-1 #
edge $-1 $443 -59.003976320049212 $317 -54.877389071313189 $313 $444 forward 7 unknown #
edge $-1 $318 80.180336670039196 $443 86.120792260505993 $203 $445 forward 7 unknown #
coedge $-1 $204 $435 $441 $446 forward $306 $-1 #
vertex $-1 $314 $447 #
vertex $-1 $205 $448 #
straight-curve $-1 20.467406608196981 8.3326186931402688 7.89327735675149 -1 0 0 I I #
coedge $-1 $320 $320 $-1 $449 reversed $208 $-1 #
edge $-1 $450 0 $450 6.2831853071796004 $209 $451 forward 7 unknown #
vertex $-1 $212 $452 #
ellipse-curve $-1 40.923793084476976 4.0386098774290282 5.829983732383476 0.69465837861970381 0 0.71933979245794832 0.17983494811448708 0 -0.17366459465492595 1 I I #
coedge $-1 $324 $324 $-1 $453 reversed $215 $-1 #
edge $-1 $454 0 $454 6.2831853071796004 $216 $455 forward 7 unknown #
vertex $-1 $219 $456 #
ellipse-curve $-1 40.923793084476976 6.6150151668557733 5.829983732383476 0.69465837861970381 0 0.71933979245794832 0.17983494811448708 0 -0.17366459465492595 1 I I #
face $-1 $-1 $235 $33 $-1 $457 reversed single #
loop $-1 $-1 $344 $220 #
plane-surface $-1 0 17.589226296120618 0 0 -1 0 0 0 -1 forward_v I I I I #
coedge $-1 $458 $342 $345 $459 forward $221 $-1 #
coedge $-1 $348 $223 $224 $336 reversed $139 $-1 #
coedge $-1 $342 $458 $223 $334 reversed $221 $-1 #
edge $-1 $349 -7.8932773567514882 $460 7.8932773567514882 $333 $461 forward 7 unknown #
coedge $-1 $225 $224 $458 $462 forward $89 $-1 #
edge $-1 $340 -43.060396130252997 $460 43.060396130252997 $332 $463 forward 7 unknown #
coedge $-1 $345 $344 $225 $338 reversed $329 $-1 #
edge $-1 $464 -43.060396130252997 $339 43.060396130252997 $337 $465 forward 7 unknown #
vertex $-1 $227 $466 #
vertex $-1 $351 $467 #
straight-curve $-1 43.060396130252997 0 -7.8932773567514882 0 -1 0 I I #
coedge $-1 $331 $333 $228 $343 reversed $221 $-1 #
edge $-1 $346 -17.589226296120618 $349 17.589226296120618 $342 $468 forward 7 unknown #
coedge $-1 $337 $229 $234 $352 forward $329 $-1 #
coedge $-1 $229 $337 $331 $459 reversed $329 $-1 #
vertex $-1 $230 $469 #
straight-curve $-1 0 17.589226296120618 7.8932773567514882 -1 0 0 I I #
coedge $-1 $231 $332 $233 $351 reversed $139 $-1 #
vertex $-1 $343 $470 #
straight-curve $-1 0 -17.589226296120618 7.8932773567514882 1 0 0 I I #
edge $-1 $236 -7.8932773567514882 $340 7.8932773567514882 $233 $471 forward 7 unknown #
edge $-1 $237 -7.8932773567514882 $339 7.8932773567514882 $234 $472 forward 7 unknown #
point $-1 43.060396130252997 -17.589226296120618 7.8932773567514882 #
point $-1 43.060396130252997 17.589226296120618 7.8932773567514882 #
face $-1 $-1 $254 $34 $-1 $473 reversed single #
loop $-1 $-1 $250 $239 #
plane-surface $-1 0 -17.589226296120618 0 0 1 0 0 0 1 forward_v I I I I #
coedge $-1 $474 $475 $247 $368 forward $240 $-1 #
coedge $-1 $369 $242 $244 $364 reversed $147 $-1 #
edge $-1 $366 1.1074813447869456 $255 4.5596911229053436 $253 $476 forward 7 unknown #
coedge $-1 $244 $243 $477 $478 reversed $93 $-1 #
coedge $-1 $373 $372 $243 $363 forward $356 $-1 #
edge $-1 $479 -43.060396130252997 $365 43.060396130252997 $362 $480 forward 7 unknown #
edge $-1 $481 -43.060396130252997 $366 43.060396130252997 $359 $482 forward 7 unknown #
vertex $-1 $363 $483 #
vertex $-1 $246 $484 #
straight-curve $-1 43.060396130252997 -7.3487753714461332 3.9410675786330902 0 1 0 I I #
edge $-1 $374 -10.240450924674484 $370 -4.4570998182177819 $358 $485 forward 7 unknown #
coedge $-1 $248 $359 $474 $486 reversed $147 $-1 #
vertex $-1 $368 $487 #
straight-curve $-1 0 -11.805875189663915 7.3932773567514882 -1 0 0 I I #
coedge $-1 $362 $250 $475 $488 forward $356 $-1 #
coedge $-1 $250 $362 $252 $376 reversed $356 $-1 #
vertex $-1 $488 $489 #
straight-curve $-1 0 -17.589226296120618 7.3932773567514882 -1 0 0 I I #
edge $-1 $256 -7.3932773567514882 $365 -3.9410675786330902 $252 $490 forward 7 unknown #
point $-1 43.060396130252997 -11.805875189663915 7.3932773567514882 #
point $-1 43.060396130252997 -17.589226296120618 7.3932773567514882 #
plane-surface $-1 0 0 7.8932773567514882 0 0 1 1 0 0 forward_v I I I I #
coedge $-1 $390 $389 $382 $491 forward $259 $-1 #
coedge $-1 $382 $261 $263 $386 reversed $155 $-1 #
coedge $-1 $261 $381 $380 $491 reversed $155 $-1 #
coedge $-1 $269 $264 $261 $384 forward $270 $-1 #
edge $-1 $387 -17.061205111389924 $492 -14.987089234113562 $383 $493 forward 7 unknown #
coedge $-1 $263 $262 $390 $494 reversed $97 $-1 #
edge $-1 $495 2.7114274142304302e-014 $387 3.9140225066462895 $381 $496 forward 7 unknown #
vertex $-1 $265 $497 #
straight-curve $-1 -40.986280252976627 -2.8579880446567696 7.8932773567514873 0 1 0 I I #
coedge $-1 $380 $266 $269 $394 reversed $259 $-1 #
coedge $-1 $266 $380 $385 $494 forward $259 $-1 #
vertex $-1 $267 $498 #
straight-curve $-1 -43.060396130252997 -8.9630752608822242 25.105531884169668 0 0 1 I I #
straight-curve $-1 -43.060396130253011 -8.9630752608822242 4.5739979906595423 -0.52991925155115449 0 -0.84804810408105047 I I #
edge $-1 $492 2.4688769177448533 $271 8.9630752608822242 $389 $499 forward 7 unknown #
point $-1 -43.060396130252997 -8.9630752608822242 7.8932773567514882 #
point $-1 -40.986280252976634 -8.9630752608822242 7.8932773567514882 #
edge $-1 $500 1 $500 0 $274 $-1 forward 7 unknown #
vertex $-1 $275 $501 #
ellipse-curve $-1 -40.92373811305896 -7.1075900199858317 5.5465313081234333 -0.84804810408105047 0 0.52991925155115449 0.26495962577557725 0 0.42402405204052523 1 I I #
point $-1 -41.758378565839237 -7.1075900199858317 6.657661725746042 #
edge $-1 $502 1 $502 0 $278 $-1 forward 7 unknown #
vertex $-1 $279 $503 #
ellipse-curve $-1 -40.92373811305896 -4.3243621586412431 5.5465313081234333 -0.84804810408105047 0 0.52991925155115449 0.26495962577557725 0 0.42402405204052523 1 I I #
point $-1 -41.758378565839237 -4.3243621586412431 6.657661725746042 #
loop $-1 $-1 $290 $282 #
plane-surface $-1 -43.060396130252997 0 0 1 0 0 0 0 -1 forward_v I I I I #
coedge $-1 $408 $285 $287 $412 reversed $177 $-1 #
coedge $-1 $285 $407 $504 $505 reversed $177 $-1 #
coedge $-1 $293 $288 $285 $410 forward $283 $-1 #
edge $-1 $413 -17.061205111389924 $506 -14.987089234113562 $409 $507 forward 7 unknown #
coedge $-1 $287 $286 $416 $508 reversed $111 $-1 #
edge $-1 $509 2.7114274142304302e-014 $413 3.9140225066462895 $407 $510 forward 7 unknown #
vertex $-1 $289 $511 #
straight-curve $-1 -40.986280252976627 5.7496635978851192 7.8932773567514873 0 1 0 I I #
coedge $-1 $504 $290 $293 $420 reversed $405 $-1 #
coedge $-1 $290 $504 $411 $508 forward $405 $-1 #
vertex $-1 $291 $512 #
straight-curve $-1 -43.060396130252997 8.2522280242015533 25.105531884169668 0 0 1 I I #
straight-curve $-1 -43.060396130253011 8.2522280242015533 4.5739979906595423 -0.52991925155115449 0 -0.84804810408105047 I I #
edge $-1 $506 -14.746426367338923 $294 -8.2522280242015533 $415 $513 forward 7 unknown #
point $-1 -43.060396130252997 8.2522280242015533 7.8932773567514882 #
point $-1 -40.986280252976634 8.2522280242015533 7.8932773567514882 #
edge $-1 $514 1 $514 0 $297 $-1 forward 7 unknown #
vertex $-1 $298 $515 #
ellipse-curve $-1 -40.92373811305896 10.107713265097946 5.5465313081234333 -0.84804810408105047 0 0.52991925155115449 0.26495962577557725 0 0.42402405204052523 1 I I #
point $-1 -41.758378565839237 10.107713265097946 6.657661725746042 #
edge $-1 $516 1 $516 0 $301 $-1 forward 7 unknown #
vertex $-1 $302 $517 #
ellipse-curve $-1 -40.92373811305896 12.890941126442534 5.5465313081234333 -0.84804810408105047 0 0.52991925155115449 0.26495962577557725 0 0.42402405204052523 1 I I #
point $-1 -41.758378565839237 12.890941126442534 6.657661725746042 #
loop $-1 $-1 $313 $305 #
plane-surface $-1 43.060396130252997 0 0 -1 0 0 0 0 1 forward_v I I I I #
coedge $-1 $434 $308 $310 $438 reversed $199 $-1 #
coedge $-1 $308 $433 $518 $519 reversed $199 $-1 #
coedge $-1 $316 $311 $308 $436 forward $306 $-1 #
edge $-1 $439 18.319783430503975 $520 22.592989522056016 $435 $521 forward 7 unknown #
coedge $-1 $310 $309 $442 $522 reversed $125 $-1 #
edge $-1 $523 -86.120792260505993 $439 -80.180336670039196 $433 $524 forward 7 unknown #
vertex $-1 $312 $525 #
straight-curve $-1 38.787190038700949 2.6634062610712004 7.8932773567514829 0 -1 0 I I #
coedge $-1 $518 $313 $316 $446 reversed $431 $-1 #
coedge $-1 $313 $518 $437 $522 forward $431 $-1 #
vertex $-1 $314 $526 #
straight-curve $-1 43.060396130252997 8.3326186931402688 62.770666428064679 0 0 1 I I #
straight-curve $-1 -18.889716700733466 8.3326186931402688 63.591220025142896 0.71933979245794832 0 -0.69465837861970381 I I #
edge $-1 $520 2.3210063511445327 $317 8.3326186931402688 $441 $527 forward 7 unknown #
point $-1 43.060396130252997 8.3326186931402688 7.8932773567514882 #
point $-1 38.787190038700956 8.3326186931402688 7.8932773567514829 #
edge $-1 $528 1 $528 0 $320 $-1 forward 7 unknown #
vertex $-1 $321 $529 #
ellipse-curve $-1 40.229134705857263 4.0386098774290282 5.1106439399255175 0.69465837861970381 0 0.71933979245794832 0.17983494811448708 0 -0.17366459465492595 1 I I #
point $-1 41.103628032591452 4.0386098774290282 5.6563191377285396 #
edge $-1 $530 1 $530 0 $324 $-1 forward 7 unknown #
vertex $-1 $325 $531 #
ellipse-curve $-1 40.229134705857263 6.6150151668557733 5.1106439399255175 0.69465837861970381 0 0.71933979245794832 0.17983494811448708 0 -0.17366459465492595 1 I I #
point $-1 41.103628032591452 6.6150151668557733 5.6563191377285396 #
plane-surface $-1 43.060396130252997 0 0 -1 0 0 0 0 1 forward_v I I I I #
coedge $-1 $333 $331 $335 $462 reversed $221 $-1 #
edge $-1 $346 -7.8932773567514882 $464 7.8932773567514882 $345 $532 forward 7 unknown #
vertex $-1 $462 $533 #
straight-curve $-1 -43.060396130252997 -17.589226296120618 0 0 0 -1 I I #
edge $-1 $460 -17.589226296120618 $464 17.589226296120618 $458 $534 forward 7 unknown #
straight-curve $-1 0 -17.589226296120618 -7.8932773567514882 -1 0 0 I I #
vertex $-1 $338 $535 #
straight-curve $-1 0 17.589226296120618 -7.8932773567514882 1 0 0 I I #
point $-1 43.060396130252997 17.589226296120618 -7.8932773567514882 #
point $-1 43.060396130252997 -17.589226296120618 -7.8932773567514882 #
straight-curve $-1 -43.060396130252997 0 7.8932773567514882 0 -1 0 I I #
point $-1 -43.060396130252997 17.589226296120618 7.8932773567514882 #
point $-1 -43.060396130252997 -17.589226296120618 7.8932773567514882 #
straight-curve $-1 43.060396130252997 -17.589226296120618 0 0 0 -1 I I #
straight-curve $-1 43.060396130252997 17.589226296120618 0 0 0 -1 I I #
plane-surface $-1 43.060396130252997 0 0 -1 0 0 0 0 1 forward_v I I I I #
coedge $-1 $477 $358 $369 $486 forward $240 $-1 #
coedge $-1 $358 $477 $372 $488 reversed $240 $-1 #
straight-curve $-1 43.060396130252997 -11.805875189663915 2.8335862338461446 0 0 1 I I #
coedge $-1 $475 $474 $361 $478 forward $240 $-1 #
edge $-1 $481 4.4570998182177819 $479 10.240450924674484 $477 $536 forward 7 unknown #
vertex $-1 $363 $537 #
straight-curve $-1 0 -17.589226296120618 3.9410675786330902 1 0 0 I I #
vertex $-1 $478 $538 #
straight-curve $-1 0 -11.805875189663915 3.9410675786330902 1 0 0 I I #
point $-1 43.060396130252997 -17.589226296120618 3.9410675786330902 #
point $-1 43.060396130252997 -11.805875189663915 3.9410675786330902 #
straight-curve $-1 -43.060396130252997 -7.3487753714461332 7.3932773567514882 0 1 0 I I #
edge $-1 $370 -4.5596911229053436 $481 -1.1074813447869456 $474 $539 forward 7 unknown #
point $-1 -43.060396130252997 -11.805875189663915 7.3932773567514882 #
edge $-1 $374 -7.3932773567514882 $479 -3.9410675786330902 $475 $540 forward 7 unknown #
point $-1 -43.060396130252997 -17.589226296120618 7.3932773567514882 #
straight-curve $-1 43.060396130252997 -17.589226296120618 0 0 0 -1 I I #
edge $-1 $492 17.212254527418182 $495 20.531533893510101 $380 $541 forward 7 unknown #
vertex $-1 $394 $542 #
straight-curve $-1 -58.047485364366558 -2.4688769177448533 7.89327735675149 -1 0 0 I I #
edge $-1 $495 -0.38911112691191629 $391 6.1050872162254546 $390 $543 forward 7 unknown #
vertex $-1 $494 $544 #
straight-curve $-1 -43.060396130253011 -2.4688769177448533 4.5739979906595423 0.52991925155115449 0 0.84804810408105047 I I #
point $-1 -40.986280252976634 -2.4688769177448533 7.8932773567514882 #
point $-1 -43.060396130252997 -8.9630752608822242 4.5739979906595654 #
straight-curve $-1 -43.060396130252997 0 7.8932773567514882 0 -1 0 I I #
vertex $-1 $397 $545 #
point $-1 -40.658778487283385 -7.1075900199858317 5.9705553601639592 #
vertex $-1 $401 $546 #
point $-1 -40.658778487283385 -4.3243621586412431 5.9705553601639592 #
coedge $-1 $416 $415 $408 $505 forward $405 $-1 #
edge $-1 $506 17.212254527418182 $509 20.531533893510101 $504 $547 forward 7 unknown #
vertex $-1 $420 $548 #
straight-curve $-1 -58.047485364366558 14.746426367338923 7.89327735675149 -1 0 0 I I #
edge $-1 $509 -8.9967627694538042 $417 -2.5025644263164342 $416 $549 forward 7 unknown #
vertex $-1 $508 $550 #
straight-curve $-1 -43.060396130253011 14.746426367338923 4.5739979906595423 0.52991925155115449 0 0.84804810408105047 I I #
point $-1 -40.986280252976634 14.746426367338923 7.8932773567514882 #
point $-1 -43.060396130252997 8.2522280242015533 4.5739979906595654 #
straight-curve $-1 -43.060396130252997 0 7.8932773567514882 0 -1 0 I I #
vertex $-1 $423 $551 #
point $-1 -40.658778487283385 10.107713265097946 5.9705553601639592 #
vertex $-1 $427 $552 #
point $-1 -40.658778487283385 12.890941126442534 5.9705553601639592 #
coedge $-1 $442 $441 $434 $519 forward $431 $-1 #
edge $-1 $520 54.877389071313189 $523 59.003976320049212 $518 $553 forward 7 unknown #
vertex $-1 $446 $554 #
straight-curve $-1 20.467406608196981 2.3210063511445327 7.89327735675149 1 0 0 I I #
edge $-1 $523 -0.34239990992666769 $443 5.6692124320690684 $442 $555 forward 7 unknown #
vertex $-1 $522 $556 #
straight-curve $-1 -18.889716700733466 2.3210063511445327 63.591220025142896 -0.71933979245794832 0 0.69465837861970381 I I #
point $-1 38.787190038700956 2.3210063511445327 7.8932773567514829 #
point $-1 43.060396130252997 8.3326186931402688 3.7666901080154673 #
straight-curve $-1 43.060396130252997 0 7.8932773567514882 0 1 0 I I #
vertex $-1 $449 $557 #
point $-1 40.408969653971752 4.0386098774290282 4.9369793452705908 #
vertex $-1 $453 $558 #
point $-1 40.408969653971752 6.6150151668557733 4.9369793452705908 #
straight-curve $-1 -43.060396130252997 17.589226296120618 0 0 0 -1 I I #
point $-1 -43.060396130252997 -17.589226296120618 -7.8932773567514882 #
straight-curve $-1 -43.060396130252997 0 -7.8932773567514882 0 1 0 I I #
point $-1 -43.060396130252997 17.589226296120618 -7.8932773567514882 #
straight-curve $-1 -43.060396130252997 -7.3487753714461332 3.9410675786330902 0 -1 0 I I #
point $-1 -43.060396130252997 -17.589226296120618 3.9410675786330902 #
point $-1 -43.060396130252997 -11.805875189663915 3.9410675786330902 #
straight-curve $-1 -43.060396130252997 -11.805875189663915 2.8335862338461446 0 0 -1 I I #
straight-curve $-1 -43.060396130252997 -17.589226296120618 0 0 0 -1 I I #
straight-curve $-1 -43.060396130252997 -2.4688769177448533 25.105531884169668 0 0 -1 I I #
point $-1 -43.060396130252997 -2.4688769177448533 7.8932773567514882 #
straight-curve $-1 -43.060396130252997 -2.8579880446567696 4.5739979906595627 0 -1 0 I I #
point $-1 -43.060396130252997 -2.4688769177448533 4.5739979906595654 #
point $-1 -40.499714061018437 -7.1075900199858317 5.2815716823478569 #
point $-1 -40.499714061018437 -4.3243621586412431 5.2815716823478569 #
straight-curve $-1 -43.060396130252997 14.746426367338923 25.105531884169668 0 0 -1 I I #
point $-1 -43.060396130252997 14.746426367338923 7.8932773567514882 #
straight-curve $-1 -43.060396130252997 5.7496635978851192 4.5739979906595627 0 -1 0 I I #
point $-1 -43.060396130252997 14.746426367338923 4.5739979906595654 #
point $-1 -40.499714061018437 10.107713265097946 5.2815716823478569 #
point $-1 -40.499714061018437 12.890941126442534 5.2815716823478569 #
straight-curve $-1 43.060396130252997 2.3210063511445327 62.770666428064679 0 0 -1 I I #
point $-1 43.060396130252997 2.3210063511445327 7.8932773567514882 #
straight-curve $-1 43.060396130252997 2.6634062610712004 3.7666901080154709 0 1 0 I I #
point $-1 43.060396130252997 2.3210063511445327 3.7666901080154673 #
point $-1 40.055470111202339 4.0386098774290282 4.9308089918110296 #
point $-1 40.055470111202339 6.6150151668557733 4.9308089918110296 #
End-of-ACIS-data 