500 0 5 0           
7 Unknown 11 ACIS 5.0 NT 24 Thu Mar 25 19:58:10 1999 
-1 9.9999999999999995e-007 1e-010 
body $-1 $5 $-1 $6 #
body $-1 $7 $-1 $8 #
body $-1 $9 $-1 $10 #
body $-1 $11 $-1 $12 #
body $-1 $13 $-1 $14 #
lump $-1 $-1 $15 $0 #
transform $-1 1 0 0 0 1 0 0 0 1 70.520950956755271 43.068851654597729 13.338896671845276 1 rotate no_reflect no_shear #
lump $-1 $-1 $16 $1 #
transform $-1 1 0 0 0 1 0 0 0 1 70.520950956755271 43.068851654597729 13.338896671845276 1 rotate no_reflect no_shear #
lump $-1 $-1 $17 $2 #
transform $-1 1 0 0 0 1 0 0 0 1 70.520950956755271 43.068851654597729 13.338896671845276 1 rotate no_reflect no_shear #
lump $-1 $-1 $18 $3 #
transform $-1 1 0 0 0 1 0 0 0 1 70.520950956755271 43.068851654597729 13.338896671845276 1 rotate no_reflect no_shear #
lump $-1 $-1 $19 $4 #
transform $-1 1 0 0 0 1 0 0 0 1 70.520950956755271 43.068851654597729 13.338896671845276 1 rotate no_reflect no_shear #
shell $-1 $-1 $-1 $20 $-1 $5 #
shell $-1 $-1 $-1 $21 $-1 $7 #
shell $-1 $-1 $-1 $22 $-1 $9 #
shell $-1 $-1 $-1 $23 $-1 $11 #
shell $-1 $-1 $-1 $24 $-1 $13 #
face $-1 $25 $26 $15 $-1 $27 forward single #
face $-1 $28 $29 $16 $-1 $30 forward single #
face $-1 $31 $32 $17 $-1 $33 reversed single #
face $-1 $34 $35 $18 $-1 $36 forward single #
face $-1 $37 $38 $19 $-1 $39 forward single #
face $-1 $40 $41 $15 $-1 $42 reversed single #
loop $-1 $-1 $43 $20 #
plane-surface $-1 0 0 13.338896671845276 0 0 1 1 0 0 forward_v I I I I #
face $-1 $44 $45 $16 $-1 $46 reversed single #
loop $-1 $-1 $47 $21 #
plane-surface $-1 -64.691913766562308 0 -7.4445755417352117 0 0 1 1 0 0 forward_v I I I I #
face $-1 $48 $49 $17 $-1 $50 reversed single #
loop $-1 $-1 $51 $22 #
plane-surface $-1 67.039837407094822 -29.909895953592461 206.79015110618022 0 -1 0 -0.69465837861970381 0 -0.71933979245794832 forward_v I I I I #
face $-1 $52 $53 $18 $-1 $54 forward single #
loop $-1 $55 $56 $23 #
cone-surface $-1 66.755943817333488 -39.309150025739079 9.656426261793456 -0.69465837861970381 0 -0.71933979245794832 0.71933979245794832 0 -0.69465837861970381 1 I I 0 1 1 forward I I I I #
face $-1 $57 $58 $19 $-1 $59 forward single #
loop $-1 $60 $61 $24 #
cone-surface $-1 66.755943817333488 -33.669597582451104 9.656426261793456 -0.69465837861970381 0 -0.71933979245794832 0.71933979245794832 0 -0.69465837861970381 1 I I 0 1 1 forward I I I I #
face $-1 $62 $63 $15 $-1 $64 reversed single #
loop $-1 $-1 $65 $25 #
plane-surface $-1 0 0 -13.338896671845276 0 0 1 1 0 0 forward_v I I I I #
coedge $-1 $66 $67 $68 $69 forward $26 $-1 #
face $-1 $70 $71 $16 $-1 $72 reversed single #
loop $-1 $-1 $73 $28 #
plane-surface $-1 -58.862876576369352 0 -10.391736106790244 -1 0 0 0 0 1 forward_v I I I I #
coedge $-1 $74 $75 $76 $77 forward $29 $-1 #
face $-1 $78 $79 $17 $-1 $80 forward single #
loop $-1 $-1 $81 $31 #
plane-surface $-1 -30.936101493583706 -36.489373804095095 105.33309865584124 0.69465837861970381 0 0.71933979245794832 0.71933979245794832 0 -0.69465837861970381 forward_v I I I I #
coedge $-1 $82 $83 $84 $85 reversed $32 $-1 #
face $-1 $-1 $86 $18 $-1 $87 forward single #
loop $-1 $88 $89 $34 #
cone-surface $-1 65.740742371459234 -39.309150025739079 8.6051544138539526 -0.69465837861970381 0 -0.71933979245794832 0.35966989622897416 0 -0.3473291893098519 1 I I -0.70710678118654746 0.70710678118654746 0.5 forward I I I I #
loop $-1 $-1 $90 $23 #
coedge $-1 $56 $56 $91 $92 reversed $35 $-1 #
face $-1 $-1 $93 $19 $-1 $94 forward single #
loop $-1 $95 $96 $37 #
cone-surface $-1 65.740742371459234 -33.669597582451104 8.6051544138539526 -0.69465837861970381 0 -0.71933979245794832 0.35966989622897416 0 -0.3473291893098519 1 I I -0.70710678118654746 0.70710678118654746 0.5 forward I I I I #
loop $-1 $-1 $97 $24 #
coedge $-1 $61 $61 $98 $99 reversed $38 $-1 #
face $-1 $100 $101 $15 $-1 $102 reversed single #
loop $-1 $-1 $103 $40 #
plane-surface $-1 0 -43.068851654597729 0 0 1 0 0 0 1 forward_v I I I I #
coedge $-1 $104 $105 $106 $107 forward $41 $-1 #
coedge $-1 $108 $43 $109 $110 forward $26 $-1 #
coedge $-1 $43 $108 $111 $112 forward $26 $-1 #
coedge $-1 $113 $114 $43 $69 reversed $115 $-1 #
edge $-1 $116 -43.068851654597729 $117 43.068851654597729 $68 $118 forward 7 unknown #
face $-1 $119 $120 $16 $-1 $121 reversed single #
loop $-1 $-1 $122 $44 #
plane-surface $-1 0 0 -13.338896671845276 0 0 1 1 0 0 forward_v I I I I #
coedge $-1 $123 $76 $124 $125 reversed $45 $-1 #
coedge $-1 $126 $47 $127 $128 reversed $29 $-1 #
coedge $-1 $47 $126 $129 $130 reversed $29 $-1 #
coedge $-1 $73 $131 $47 $77 reversed $45 $-1 #
edge $-1 $132 -43.068851654597729 $133 43.068851654597729 $76 $134 forward 7 unknown #
face $-1 $135 $136 $17 $-1 $137 reversed single #
loop $-1 $-1 $84 $48 #
plane-surface $-1 0 0 13.338896671845276 0 0 1 1 0 0 forward_v I I I I #
coedge $-1 $138 $139 $140 $141 reversed $49 $-1 #
coedge $-1 $83 $51 $142 $143 reversed $32 $-1 #
coedge $-1 $51 $82 $138 $144 reversed $32 $-1 #
coedge $-1 $140 $145 $51 $85 forward $79 $-1 #
edge $-1 $146 -37.00103225320786 $147 -30.806762487493081 $84 $148 forward 7 unknown #
loop $-1 $-1 $91 $52 #
plane-surface $-1 -30.936101493583706 -36.489373804095095 105.33309865584124 0.69465837861970381 0 0.71933979245794832 0.71933979245794832 0 -0.69465837861970381 forward_v I I I I #
loop $-1 $-1 $149 $34 #
coedge $-1 $89 $89 $90 $150 reversed $53 $-1 #
coedge $-1 $90 $90 $89 $150 forward $55 $-1 #
coedge $-1 $91 $91 $56 $92 forward $86 $-1 #
edge $-1 $151 0 $151 6.2831853071796004 $91 $152 forward 7 unknown #
loop $-1 $-1 $98 $57 #
plane-surface $-1 -30.936101493583706 -36.489373804095095 105.33309865584124 0.69465837861970381 0 0.71933979245794832 0.71933979245794832 0 -0.69465837861970381 forward_v I I I I #
loop $-1 $-1 $153 $37 #
coedge $-1 $96 $96 $97 $154 reversed $58 $-1 #
coedge $-1 $97 $97 $96 $154 forward $60 $-1 #
coedge $-1 $98 $98 $61 $99 forward $93 $-1 #
edge $-1 $155 0 $155 6.2831853071796004 $98 $156 forward 7 unknown #
face $-1 $157 $158 $15 $-1 $159 reversed single #
loop $-1 $-1 $160 $62 #
plane-surface $-1 -70.520950956755271 0 0 1 0 0 0 0 -1 forward_v I I I I #
coedge $-1 $161 $111 $162 $163 forward $63 $-1 #
coedge $-1 $164 $65 $161 $165 forward $41 $-1 #
coedge $-1 $65 $164 $166 $167 forward $41 $-1 #
coedge $-1 $114 $113 $65 $107 reversed $115 $-1 #
edge $-1 $168 -43.068851654597729 $169 43.068851654597729 $106 $170 forward 7 unknown #
coedge $-1 $67 $66 $171 $172 forward $26 $-1 #
coedge $-1 $173 $174 $66 $110 reversed $158 $-1 #
edge $-1 $117 -70.520950956755271 $175 70.520950956755271 $109 $176 forward 7 unknown #
coedge $-1 $103 $177 $67 $112 reversed $63 $-1 #
edge $-1 $178 -70.520950956755271 $116 70.520950956755271 $111 $179 forward 7 unknown #
coedge $-1 $106 $68 $177 $180 forward $115 $-1 #
coedge $-1 $68 $106 $173 $181 reversed $115 $-1 #
loop $-1 $-1 $113 $157 #
vertex $-1 $69 $182 #
vertex $-1 $69 $183 #
straight-curve $-1 70.520950956755271 0 13.338896671845276 0 1 0 I I #
face $-1 $184 $185 $16 $-1 $186 reversed single #
loop $-1 $-1 $124 $70 #
plane-surface $-1 0 -43.068851654597729 0 0 1 0 0 0 1 forward_v I I I I #
coedge $-1 $187 $188 $123 $189 forward $71 $-1 #
coedge $-1 $131 $73 $122 $189 reversed $45 $-1 #
coedge $-1 $129 $190 $73 $125 forward $120 $-1 #
edge $-1 $191 -8.1430286184501544 $132 -2.2487074883400897 $124 $192 forward 7 unknown #
coedge $-1 $75 $74 $193 $194 reversed $29 $-1 #
coedge $-1 $195 $196 $74 $128 forward $197 $-1 #
edge $-1 $198 -38.174994073474117 $133 -26.516919693088198 $127 $199 forward 7 unknown #
coedge $-1 $200 $124 $75 $130 forward $120 $-1 #
edge $-1 $132 26.516919693088198 $201 38.174994073474117 $129 $202 forward 7 unknown #
coedge $-1 $76 $123 $195 $203 reversed $45 $-1 #
vertex $-1 $130 $204 #
vertex $-1 $128 $205 #
straight-curve $-1 -58.862876576369352 0 -7.4445755417352117 0 1 0 I I #
face $-1 $-1 $206 $17 $-1 $207 reversed single #
loop $-1 $-1 $208 $78 #
plane-surface $-1 0 -43.068851654597729 0 0 1 0 0 0 1 forward_v I I I I #
coedge $-1 $209 $81 $83 $144 forward $49 $-1 #
coedge $-1 $81 $209 $208 $210 reversed $49 $-1 #
coedge $-1 $211 $84 $81 $141 forward $79 $-1 #
edge $-1 $147 11.665209051544913 $212 24.824164752550182 $140 $213 forward 7 unknown #
coedge $-1 $214 $215 $82 $143 forward $206 $-1 #
edge $-1 $216 -96.037915797927397 $146 -90.056178881244833 $142 $217 forward 7 unknown #
edge $-1 $147 132.43085351794036 $216 141.04190191351051 $83 $218 forward 7 unknown #
coedge $-1 $84 $211 $214 $219 forward $79 $-1 #
vertex $-1 $85 $220 #
vertex $-1 $85 $221 #
straight-curve $-1 33.519918703547411 -29.909895953592461 13.338896671845276 -1 0 0 I I #
coedge $-1 $149 $149 $-1 $222 reversed $88 $-1 #
edge $-1 $223 0 $223 6.2831853071796004 $89 $224 forward 7 unknown #
vertex $-1 $92 $225 #
ellipse-curve $-1 67.423816073897882 -39.309150025739079 10.348028213503978 0.69465837861970381 0 0.71933979245794832 0.71933979245794832 0 -0.69465837861970381 1 I I #
coedge $-1 $153 $153 $-1 $226 reversed $95 $-1 #
edge $-1 $227 0 $227 6.2831853071796004 $96 $228 forward 7 unknown #
vertex $-1 $99 $229 #
ellipse-curve $-1 67.423816073897882 -33.669597582451104 10.348028213503978 0.69465837861970381 0 0.71933979245794832 0.71933979245794832 0 -0.69465837861970381 1 I I #
face $-1 $-1 $115 $15 $-1 $230 reversed single #
loop $-1 $-1 $173 $100 #
plane-surface $-1 0 43.068851654597729 0 0 -1 0 0 0 -1 forward_v I I I I #
coedge $-1 $231 $171 $174 $232 forward $101 $-1 #
coedge $-1 $177 $103 $104 $165 reversed $63 $-1 #
coedge $-1 $171 $231 $103 $163 reversed $101 $-1 #
edge $-1 $178 -13.338896671845276 $233 13.338896671845276 $162 $234 forward 7 unknown #
coedge $-1 $105 $104 $231 $235 forward $41 $-1 #
edge $-1 $169 -70.520950956755271 $233 70.520950956755271 $161 $236 forward 7 unknown #
coedge $-1 $174 $173 $105 $167 reversed $158 $-1 #
edge $-1 $237 -70.520950956755271 $168 70.520950956755271 $166 $238 forward 7 unknown #
vertex $-1 $107 $239 #
vertex $-1 $180 $240 #
straight-curve $-1 70.520950956755271 0 -13.338896671845276 0 -1 0 I I #
coedge $-1 $160 $162 $108 $172 reversed $101 $-1 #
edge $-1 $175 -43.068851654597729 $178 43.068851654597729 $171 $241 forward 7 unknown #
coedge $-1 $166 $109 $114 $181 forward $158 $-1 #
coedge $-1 $109 $166 $160 $232 reversed $158 $-1 #
vertex $-1 $110 $242 #
straight-curve $-1 0 43.068851654597729 13.338896671845276 -1 0 0 I I #
coedge $-1 $111 $161 $113 $180 reversed $63 $-1 #
vertex $-1 $172 $243 #
straight-curve $-1 0 -43.068851654597729 13.338896671845276 1 0 0 I I #
edge $-1 $116 -13.338896671845276 $169 13.338896671845276 $113 $244 forward 7 unknown #
edge $-1 $117 -13.338896671845276 $168 13.338896671845276 $114 $245 forward 7 unknown #
point $-1 70.520950956755271 -43.068851654597729 13.338896671845276 #
point $-1 70.520950956755271 43.068851654597729 13.338896671845276 #
face $-1 $-1 $197 $16 $-1 $246 reversed single #
loop $-1 $-1 $193 $119 #
plane-surface $-1 -70.520950956755271 0 0 1 0 0 0 0 -1 forward_v I I I I #
coedge $-1 $247 $122 $190 $248 forward $71 $-1 #
coedge $-1 $122 $247 $249 $250 forward $71 $-1 #
edge $-1 $251 -43.068851654597729 $191 43.068851654597729 $122 $252 forward 7 unknown #
coedge $-1 $124 $200 $187 $248 reversed $120 $-1 #
vertex $-1 $248 $253 #
straight-curve $-1 -58.862876576369352 -43.068851654597729 -5.195868053395122 0 0 1 I I #
coedge $-1 $254 $255 $126 $194 forward $185 $-1 #
edge $-1 $201 -43.068851654597729 $198 43.068851654597729 $193 $256 forward 7 unknown #
coedge $-1 $249 $127 $131 $203 forward $197 $-1 #
coedge $-1 $127 $249 $254 $257 reversed $197 $-1 #
loop $-1 $-1 $195 $184 #
vertex $-1 $257 $258 #
straight-curve $-1 -32.345956883281154 43.068851654597729 -7.4445755417352117 1 0 0 I I #
coedge $-1 $190 $129 $255 $259 forward $120 $-1 #
vertex $-1 $259 $260 #
straight-curve $-1 -32.345956883281154 -43.068851654597729 -7.4445755417352117 -1 0 0 I I #
edge $-1 $133 2.2487074883400897 $251 8.1430286184501544 $195 $261 forward 7 unknown #
point $-1 -58.862876576369352 -43.068851654597729 -7.4445755417352117 #
point $-1 -58.862876576369352 43.068851654597729 -7.4445755417352117 #
loop $-1 $-1 $142 $135 #
plane-surface $-1 70.520950956755271 0 0 -1 0 0 0 0 1 forward_v I I I I #
coedge $-1 $262 $263 $139 $210 forward $136 $-1 #
coedge $-1 $139 $138 $215 $264 reversed $49 $-1 #
edge $-1 $212 84.718809340386116 $265 93.329857735956281 $208 $266 forward 7 unknown #
coedge $-1 $145 $140 $263 $267 forward $79 $-1 #
vertex $-1 $267 $268 #
straight-curve $-1 64.326681191040464 -18.244686902047548 13.338896671845283 0 -1 0 I I #
coedge $-1 $269 $142 $145 $219 reversed $206 $-1 #
coedge $-1 $142 $269 $209 $264 forward $206 $-1 #
vertex $-1 $143 $270 #
straight-curve $-1 70.520950956755271 -29.909895953592461 103.39507555309011 0 0 1 I I #
straight-curve $-1 -30.936101493583706 -29.909895953592461 105.33309865584124 0.71933979245794832 0 -0.69465837861970381 I I #
edge $-1 $271 -43.068851654597729 $146 -29.909895953592461 $214 $272 forward 7 unknown #
point $-1 70.520950956755271 -29.909895953592461 13.338896671845276 #
point $-1 64.326681191040493 -29.909895953592461 13.338896671845276 #
edge $-1 $273 1 $273 0 $149 $-1 forward 7 unknown #
vertex $-1 $150 $274 #
ellipse-curve $-1 66.08807156076908 -39.309150025739079 8.9648243100829266 0.69465837861970381 0 0.71933979245794832 0.71933979245794832 0 -0.69465837861970381 1 I I #
point $-1 68.143155866355841 -39.309150025739079 9.653369834884284 #
edge $-1 $275 1 $275 0 $153 $-1 forward 7 unknown #
vertex $-1 $154 $276 #
ellipse-curve $-1 66.08807156076908 -33.669597582451104 8.9648243100829266 0.69465837861970381 0 0.71933979245794832 0.71933979245794832 0 -0.69465837861970381 1 I I #
point $-1 68.143155866355841 -33.669597582451104 9.653369834884284 #
plane-surface $-1 70.520950956755271 0 0 -1 0 0 0 0 1 forward_v I I I I #
coedge $-1 $162 $160 $164 $235 reversed $101 $-1 #
edge $-1 $175 -13.338896671845276 $237 13.338896671845276 $174 $277 forward 7 unknown #
vertex $-1 $235 $278 #
straight-curve $-1 -70.520950956755271 -43.068851654597729 0 0 0 -1 I I #
edge $-1 $233 -43.068851654597729 $237 43.068851654597729 $231 $279 forward 7 unknown #
straight-curve $-1 0 -43.068851654597729 -13.338896671845276 -1 0 0 I I #
vertex $-1 $167 $280 #
straight-curve $-1 0 43.068851654597729 -13.338896671845276 1 0 0 I I #
point $-1 70.520950956755271 43.068851654597729 -13.338896671845276 #
point $-1 70.520950956755271 -43.068851654597729 -13.338896671845276 #
straight-curve $-1 -70.520950956755271 0 13.338896671845276 0 -1 0 I I #
point $-1 -70.520950956755271 43.068851654597729 13.338896671845276 #
point $-1 -70.520950956755271 -43.068851654597729 13.338896671845276 #
straight-curve $-1 70.520950956755271 -43.068851654597729 0 0 0 -1 I I #
straight-curve $-1 70.520950956755271 43.068851654597729 0 0 0 -1 I I #
plane-surface $-1 0 43.068851654597729 0 0 -1 0 0 0 -1 forward_v I I I I #
coedge $-1 $188 $187 $281 $282 forward $71 $-1 #
edge $-1 $191 58.862876576369352 $283 70.520950956755271 $190 $284 forward 7 unknown #
coedge $-1 $196 $195 $188 $250 reversed $197 $-1 #
edge $-1 $285 -70.520950956755271 $251 -58.862876576369352 $249 $286 forward 7 unknown #
vertex $-1 $203 $287 #
straight-curve $-1 -58.862876576369352 0 -13.338896671845276 0 -1 0 I I #
point $-1 -58.862876576369352 -43.068851654597729 -13.338896671845276 #
coedge $-1 $281 $193 $196 $257 forward $185 $-1 #
coedge $-1 $193 $281 $200 $259 reversed $185 $-1 #
straight-curve $-1 -70.520950956755271 0 -7.4445755417352117 0 1 0 I I #
edge $-1 $198 7.4445755417352117 $285 13.338896671845276 $196 $288 forward 7 unknown #
point $-1 -70.520950956755271 43.068851654597729 -7.4445755417352117 #
edge $-1 $201 7.4445755417352117 $283 13.338896671845276 $255 $289 forward 7 unknown #
point $-1 -70.520950956755271 -43.068851654597729 -7.4445755417352117 #
straight-curve $-1 -58.862876576369352 43.068851654597729 -5.195868053395122 0 0 -1 I I #
coedge $-1 $263 $208 $269 $290 reversed $136 $-1 #
coedge $-1 $208 $262 $211 $267 reversed $136 $-1 #
edge $-1 $265 -24.824164752550182 $216 -11.665209051544913 $215 $291 forward 7 unknown #
vertex $-1 $210 $292 #
straight-curve $-1 3.3850704628426307 -43.068851654597729 72.189527406829711 0.71933979245794832 0 -0.69465837861970381 I I #
edge $-1 $212 64.326681191040478 $271 70.520950956755271 $263 $293 forward 7 unknown #
point $-1 64.326681191040478 -43.068851654597729 13.338896671845276 #
coedge $-1 $215 $214 $262 $290 forward $206 $-1 #
point $-1 70.520950956755271 -29.909895953592461 7.3571597551627121 #
vertex $-1 $219 $294 #
straight-curve $-1 70.520950956755271 0 13.338896671845276 0 1 0 I I #
vertex $-1 $222 $295 #
point $-1 66.807411353227039 -39.309150025739079 8.2701659314632234 #
vertex $-1 $226 $296 #
point $-1 66.807411353227039 -33.669597582451104 8.2701659314632234 #
straight-curve $-1 -70.520950956755271 43.068851654597729 0 0 0 -1 I I #
point $-1 -70.520950956755271 -43.068851654597729 -13.338896671845276 #
straight-curve $-1 -70.520950956755271 0 -13.338896671845276 0 1 0 I I #
point $-1 -70.520950956755271 43.068851654597729 -13.338896671845276 #
coedge $-1 $255 $254 $247 $282 reversed $185 $-1 #
edge $-1 $283 -43.068851654597729 $285 43.068851654597729 $281 $297 forward 7 unknown #
vertex $-1 $282 $298 #
straight-curve $-1 0 -43.068851654597729 -13.338896671845276 -1 0 0 I I #
vertex $-1 $250 $299 #
straight-curve $-1 0 43.068851654597729 -13.338896671845276 1 0 0 I I #
point $-1 -58.862876576369352 43.068851654597729 -13.338896671845276 #
straight-curve $-1 -70.520950956755271 43.068851654597729 0 0 0 -1 I I #
straight-curve $-1 -70.520950956755271 -43.068851654597729 0 0 0 -1 I I #
edge $-1 $271 -13.338896671845276 $265 -7.357159755162697 $269 $300 forward 7 unknown #
straight-curve $-1 70.520950956755257 -18.244686902047548 7.3571597551627121 0 1 0 I I #
point $-1 70.520950956755271 -43.068851654597729 7.357159755162697 #
straight-curve $-1 0 -43.068851654597729 13.338896671845276 1 0 0 I I #
point $-1 70.520950956755271 -43.068851654597729 13.338896671845276 #
point $-1 65.393413182149388 -39.309150025739079 8.2454845176249787 #
point $-1 65.393413182149388 -33.669597582451104 8.2454845176249787 #
straight-curve $-1 -70.520950956755271 0 -13.338896671845276 0 1 0 I I #
point $-1 -70.520950956755271 -43.068851654597729 -13.338896671845276 #
point $-1 -70.520950956755271 43.068851654597729 -13.338896671845276 #
straight-curve $-1 70.520950956755271 -43.068851654597729 0 0 0 -1 I I #
End-of-ACIS-data 