500 0 16 0           
7 Unknown 11 ACIS 5.0 NT 24 Thu Mar 25 17:49:38 1999 
-1 9.9999999999999995e-007 1e-010 
body $-1 $16 $-1 $17 #
body $-1 $18 $-1 $19 #
body $-1 $20 $-1 $21 #
body $-1 $22 $-1 $23 #
body $-1 $24 $-1 $25 #
body $-1 $26 $-1 $27 #
body $-1 $28 $-1 $29 #
body $-1 $30 $-1 $31 #
body $-1 $32 $-1 $33 #
body $-1 $34 $-1 $35 #
body $-1 $36 $-1 $37 #
body $-1 $38 $-1 $39 #
body $-1 $40 $-1 $41 #
body $-1 $42 $-1 $43 #
body $-1 $44 $-1 $45 #
body $-1 $46 $-1 $47 #
lump $-1 $-1 $48 $0 #
transform $-1 1 0 0 0 1 0 0 0 1 78.533890804773094 51.568439220696987 12.744724193643798 1 rotate no_reflect no_shear #
lump $-1 $-1 $49 $1 #
transform $-1 1 0 0 0 1 0 0 0 1 7.0384277247220179 7.2390087872894826 12.744724193643798 1 rotate no_reflect no_shear #
lump $-1 $-1 $50 $2 #
transform $-1 0.8660253999169214 0 0.50000000669873634 0 1 0 -0.50000000669873634 0 0.8660253999169214 -78.533891856928761 40.812621382115864 151.36982971375994 1 rotate no_reflect no_shear #
lump $-1 $-1 $51 $3 #
transform $-1 0.8660253999169214 0 0.50000000669873634 0 -1 0 0.50000000669873634 0 -0.8660253999169214 10.539912072064263 36.917619298375804 17.378092009636326 1 rotate no_reflect no_shear #
lump $-1 $-1 $52 $4 #
transform $-1 0.8660253999169214 0 0.50000000669873634 0 -1 0 0.50000000669873634 0 -0.8660253999169214 10.539912072064263 40.812621382115864 17.378092009636326 1 rotate no_reflect no_shear #
lump $-1 $-1 $53 $5 #
transform $-1 0.8660253999169214 0 0.50000000669873634 0 -1 0 0.50000000669873634 0 -0.8660253999169214 10.539912072064263 44.707623465855924 17.378092009636326 1 rotate no_reflect no_shear #
lump $-1 $-1 $54 $6 #
transform $-1 0.8660253999169214 0 0.50000000669873634 0 1 0 -0.50000000669873634 0 0.8660253999169214 -78.533891856928761 85.142051815523359 151.36982971375994 1 rotate no_reflect no_shear #
lump $-1 $-1 $55 $7 #
transform $-1 0.8660253999169214 0 0.50000000669873634 0 -1 0 0.50000000669873634 0 -0.8660253999169214 10.539912072064263 81.247049731783306 17.378092009636326 1 rotate no_reflect no_shear #
lump $-1 $-1 $56 $8 #
transform $-1 0.8660253999169214 0 0.50000000669873634 0 -1 0 0.50000000669873634 0 -0.8660253999169214 10.539912072064263 85.142051815523359 17.378092009636326 1 rotate no_reflect no_shear #
lump $-1 $-1 $57 $9 #
transform $-1 0.8660253999169214 0 0.50000000669873634 0 -1 0 0.50000000669873634 0 -0.8660253999169214 10.539912072064263 89.037053899263427 17.378092009636326 1 rotate no_reflect no_shear #
lump $-1 $-1 $58 $10 #
transform $-1 0.82903756765294845 0 -0.55919291073839883 0 1 0 0.55919291073839883 0 0.82903756765294845 114.68387996878882 49.005697473083814 231.34980998324616 1 rotate no_reflect no_shear #
lump $-1 $-1 $59 $11 #
transform $-1 0.82903756765294845 0 -0.55919291073839883 0 -1 0 -0.55919291073839883 0 -0.82903756765294845 146.19357129493011 46.496465285322877 16.667055440460516 1 rotate no_reflect no_shear #
lump $-1 $-1 $60 $12 #
transform $-1 0.82903756765294845 0 -0.55919291073839883 0 -1 0 -0.55919291073839883 0 -0.82903756765294845 146.19357129493011 51.51492966084475 16.667055440460516 1 rotate no_reflect no_shear #
lump $-1 $-1 $61 $13 #
transform $-1 0.82903756765294845 0 -0.55919291073839883 0 1 0 0.55919291073839883 0 0.82903756765294845 114.68387996878882 93.335127906491323 231.34980998324616 1 rotate no_reflect no_shear #
lump $-1 $-1 $62 $14 #
transform $-1 0.82903756765294845 0 -0.55919291073839883 0 -1 0 -0.55919291073839883 0 -0.82903756765294845 146.19357129493011 90.825895718730379 16.667055440460516 1 rotate no_reflect no_shear #
lump $-1 $-1 $63 $15 #
transform $-1 0.82903756765294845 0 -0.55919291073839883 0 -1 0 -0.55919291073839883 0 -0.82903756765294845 146.19357129493011 95.844360094252252 16.667055440460516 1 rotate no_reflect no_shear #
shell $-1 $-1 $-1 $64 $-1 $16 #
shell $-1 $-1 $-1 $65 $-1 $18 #
shell $-1 $-1 $-1 $66 $-1 $20 #
shell $-1 $-1 $-1 $67 $-1 $22 #
shell $-1 $-1 $-1 $68 $-1 $24 #
shell $-1 $-1 $-1 $69 $-1 $26 #
shell $-1 $-1 $-1 $70 $-1 $28 #
shell $-1 $-1 $-1 $71 $-1 $30 #
shell $-1 $-1 $-1 $72 $-1 $32 #
shell $-1 $-1 $-1 $73 $-1 $34 #
shell $-1 $-1 $-1 $74 $-1 $36 #
shell $-1 $-1 $-1 $75 $-1 $38 #
shell $-1 $-1 $-1 $76 $-1 $40 #
shell $-1 $-1 $-1 $77 $-1 $42 #
shell $-1 $-1 $-1 $78 $-1 $44 #
shell $-1 $-1 $-1 $79 $-1 $46 #
face $-1 $80 $81 $48 $-1 $82 forward single #
face $-1 $83 $84 $49 $-1 $85 forward single #
face $-1 $86 $87 $50 $-1 $88 forward single #
face $-1 $89 $90 $51 $-1 $91 forward single #
face $-1 $92 $93 $52 $-1 $94 forward single #
face $-1 $95 $96 $53 $-1 $97 forward single #
face $-1 $98 $99 $54 $-1 $100 forward single #
face $-1 $101 $102 $55 $-1 $103 forward single #
face $-1 $104 $105 $56 $-1 $106 forward single #
face $-1 $107 $108 $57 $-1 $109 forward single #
face $-1 $110 $111 $58 $-1 $112 forward single #
face $-1 $113 $114 $59 $-1 $115 forward single #
face $-1 $116 $117 $60 $-1 $118 forward single #
face $-1 $119 $120 $61 $-1 $121 forward single #
face $-1 $122 $123 $62 $-1 $124 forward single #
face $-1 $125 $126 $63 $-1 $127 forward single #
face $-1 $128 $129 $48 $-1 $130 reversed single #
loop $-1 $-1 $131 $64 #
plane-surface $-1 0 0 12.744724193643798 0 0 1 1 0 0 forward_v I I I I #
face $-1 $132 $133 $49 $-1 $134 reversed single #
loop $-1 $-1 $135 $65 #
plane-surface $-1 0 0 12.744724193643798 0 0 1 1 0 0 forward_v I I I I #
face $-1 $136 $137 $50 $-1 $138 reversed single #
loop $-1 $-1 $139 $66 #
plane-surface $-1 0 0 157.06778160954619 0 0 1 1 0 0 forward_v I I I I #
face $-1 $140 $141 $51 $-1 $142 forward single #
loop $-1 $143 $144 $67 #
cone-surface $-1 0 0 -2.0046845912045654 0 0 1 1 0 0 1 I I 0 1 1 forward I I I I #
face $-1 $145 $146 $52 $-1 $147 forward single #
loop $-1 $148 $149 $68 #
cone-surface $-1 0 0 -2.0046845912045654 0 0 1 1 0 0 1 I I 0 1 1 forward I I I I #
face $-1 $150 $151 $53 $-1 $152 forward single #
loop $-1 $153 $154 $69 #
cone-surface $-1 0 0 -2.0046845912045654 0 0 1 1 0 0 1 I I 0 1 1 forward I I I I #
face $-1 $155 $156 $54 $-1 $157 reversed single #
loop $-1 $-1 $158 $70 #
plane-surface $-1 0 0 157.06778160954619 0 0 1 1 0 0 forward_v I I I I #
face $-1 $159 $160 $55 $-1 $161 forward single #
loop $-1 $162 $163 $71 #
cone-surface $-1 0 0 -2.0046845912045654 0 0 1 1 0 0 1 I I 0 1 1 forward I I I I #
face $-1 $164 $165 $56 $-1 $166 forward single #
loop $-1 $167 $168 $72 #
cone-surface $-1 0 0 -2.0046845912045654 0 0 1 1 0 0 1 I I 0 1 1 forward I I I I #
face $-1 $169 $170 $57 $-1 $171 forward single #
loop $-1 $172 $173 $73 #
cone-surface $-1 0 0 -2.0046845912045654 0 0 1 1 0 0 1 I I 0 1 1 forward I I I I #
face $-1 $174 $175 $58 $-1 $176 reversed single #
loop $-1 $-1 $177 $74 #
plane-surface $-1 0 0 157.06778160954619 0 0 1 1 0 0 forward_v I I I I #
face $-1 $178 $179 $59 $-1 $180 forward single #
loop $-1 $181 $182 $75 #
cone-surface $-1 0 0 -1.8961455122531827 0 0 1 1 0 0 1 I I 0 1 1 forward I I I I #
face $-1 $183 $184 $60 $-1 $185 forward single #
loop $-1 $186 $187 $76 #
cone-surface $-1 0 0 -1.8961455122531827 0 0 1 1 0 0 1 I I 0 1 1 forward I I I I #
face $-1 $188 $189 $61 $-1 $190 reversed single #
loop $-1 $-1 $191 $77 #
plane-surface $-1 0 0 157.06778160954619 0 0 1 1 0 0 forward_v I I I I #
face $-1 $192 $193 $62 $-1 $194 forward single #
loop $-1 $195 $196 $78 #
cone-surface $-1 0 0 -1.8961455122531827 0 0 1 1 0 0 1 I I 0 1 1 forward I I I I #
face $-1 $197 $198 $63 $-1 $199 forward single #
loop $-1 $200 $201 $79 #
cone-surface $-1 0 0 -1.8961455122531827 0 0 1 1 0 0 1 I I 0 1 1 forward I I I I #
face $-1 $202 $203 $48 $-1 $204 reversed single #
loop $-1 $-1 $205 $80 #
plane-surface $-1 0 0 -12.744724193643798 0 0 1 1 0 0 forward_v I I I I #
coedge $-1 $206 $207 $208 $209 forward $81 $-1 #
face $-1 $210 $211 $49 $-1 $212 reversed single #
loop $-1 $-1 $213 $83 #
plane-surface $-1 0 0 -12.744724193643798 0 0 1 1 0 0 forward_v I I I I #
coedge $-1 $214 $215 $216 $217 forward $84 $-1 #
face $-1 $218 $219 $50 $-1 $220 reversed single #
loop $-1 $-1 $221 $86 #
plane-surface $-1 0 0 -157.06778160954619 0 0 1 1 0 0 forward_v I I I I #
coedge $-1 $222 $223 $224 $225 forward $87 $-1 #
face $-1 $-1 $226 $51 $-1 $227 forward single #
loop $-1 $-1 $228 $89 #
plane-surface $-1 0 0 -3.5093691824091309 0 0 -1 -1 0 0 forward_v I I I I #
loop $-1 $-1 $229 $67 #
coedge $-1 $144 $144 $228 $230 reversed $90 $-1 #
face $-1 $-1 $231 $52 $-1 $232 forward single #
loop $-1 $-1 $233 $92 #
plane-surface $-1 0 0 -3.5093691824091309 0 0 -1 -1 0 0 forward_v I I I I #
loop $-1 $-1 $234 $68 #
coedge $-1 $149 $149 $233 $235 reversed $93 $-1 #
face $-1 $-1 $236 $53 $-1 $237 forward single #
loop $-1 $-1 $238 $95 #
plane-surface $-1 0 0 -3.5093691824091309 0 0 -1 -1 0 0 forward_v I I I I #
loop $-1 $-1 $239 $69 #
coedge $-1 $154 $154 $238 $240 reversed $96 $-1 #
face $-1 $241 $242 $54 $-1 $243 reversed single #
loop $-1 $-1 $244 $98 #
plane-surface $-1 0 0 -157.06778160954619 0 0 1 1 0 0 forward_v I I I I #
coedge $-1 $245 $246 $247 $248 forward $99 $-1 #
face $-1 $-1 $249 $55 $-1 $250 forward single #
loop $-1 $-1 $251 $101 #
plane-surface $-1 0 0 -3.5093691824091309 0 0 -1 -1 0 0 forward_v I I I I #
loop $-1 $-1 $252 $71 #
coedge $-1 $163 $163 $251 $253 reversed $102 $-1 #
face $-1 $-1 $254 $56 $-1 $255 forward single #
loop $-1 $-1 $256 $104 #
plane-surface $-1 0 0 -3.5093691824091309 0 0 -1 -1 0 0 forward_v I I I I #
loop $-1 $-1 $257 $72 #
coedge $-1 $168 $168 $256 $258 reversed $105 $-1 #
face $-1 $-1 $259 $57 $-1 $260 forward single #
loop $-1 $-1 $261 $107 #
plane-surface $-1 0 0 -3.5093691824091309 0 0 -1 -1 0 0 forward_v I I I I #
loop $-1 $-1 $262 $73 #
coedge $-1 $173 $173 $261 $263 reversed $108 $-1 #
face $-1 $264 $265 $58 $-1 $266 reversed single #
loop $-1 $-1 $267 $110 #
plane-surface $-1 0 0 -157.06778160954619 0 0 1 1 0 0 forward_v I I I I #
coedge $-1 $268 $269 $270 $271 forward $111 $-1 #
face $-1 $-1 $272 $59 $-1 $273 forward single #
loop $-1 $-1 $274 $113 #
plane-surface $-1 0 0 -3.2922910245063646 0 0 -1 -1 0 0 forward_v I I I I #
loop $-1 $-1 $275 $75 #
coedge $-1 $182 $182 $274 $276 reversed $114 $-1 #
face $-1 $-1 $277 $60 $-1 $278 forward single #
loop $-1 $-1 $279 $116 #
plane-surface $-1 0 0 -3.2922910245063646 0 0 -1 -1 0 0 forward_v I I I I #
loop $-1 $-1 $280 $76 #
coedge $-1 $187 $187 $279 $281 reversed $117 $-1 #
face $-1 $282 $283 $61 $-1 $284 reversed single #
loop $-1 $-1 $285 $119 #
plane-surface $-1 0 0 -157.06778160954619 0 0 1 1 0 0 forward_v I I I I #
coedge $-1 $286 $287 $288 $289 forward $120 $-1 #
face $-1 $-1 $290 $62 $-1 $291 forward single #
loop $-1 $-1 $292 $122 #
plane-surface $-1 0 0 -3.2922910245063646 0 0 -1 -1 0 0 forward_v I I I I #
loop $-1 $-1 $293 $78 #
coedge $-1 $196 $196 $292 $294 reversed $123 $-1 #
face $-1 $-1 $295 $63 $-1 $296 forward single #
loop $-1 $-1 $297 $125 #
plane-surface $-1 0 0 -3.2922910245063646 0 0 -1 -1 0 0 forward_v I I I I #
loop $-1 $-1 $298 $79 #
coedge $-1 $201 $201 $297 $299 reversed $126 $-1 #
face $-1 $300 $301 $48 $-1 $302 reversed single #
loop $-1 $-1 $303 $128 #
plane-surface $-1 0 -51.568439220696987 0 0 1 0 0 0 1 forward_v I I I I #
coedge $-1 $304 $305 $306 $307 forward $129 $-1 #
coedge $-1 $308 $131 $309 $310 forward $81 $-1 #
coedge $-1 $131 $308 $311 $312 forward $81 $-1 #
coedge $-1 $313 $314 $131 $209 reversed $315 $-1 #
edge $-1 $316 -51.568439220696987 $317 51.568439220696987 $208 $318 forward 7 unknown #
face $-1 $319 $320 $49 $-1 $321 reversed single #
loop $-1 $-1 $322 $132 #
plane-surface $-1 0 -7.2390087872894826 0 0 1 0 0 0 1 forward_v I I I I #
coedge $-1 $323 $324 $325 $326 forward $133 $-1 #
coedge $-1 $327 $135 $328 $329 forward $84 $-1 #
coedge $-1 $135 $327 $330 $331 forward $84 $-1 #
coedge $-1 $332 $333 $135 $217 reversed $334 $-1 #
edge $-1 $335 -7.2390087872894826 $336 7.2390087872894826 $216 $337 forward 7 unknown #
face $-1 $338 $339 $50 $-1 $340 reversed single #
loop $-1 $-1 $341 $136 #
plane-surface $-1 0 -6.491670139566768 0 0 1 0 0 0 1 forward_v I I I I #
coedge $-1 $342 $343 $344 $345 forward $137 $-1 #
coedge $-1 $346 $139 $347 $348 forward $87 $-1 #
coedge $-1 $139 $346 $349 $350 forward $87 $-1 #
coedge $-1 $351 $352 $139 $225 reversed $353 $-1 #
edge $-1 $354 -6.491670139566768 $355 6.491670139566768 $224 $356 forward 7 unknown #
loop $-1 $357 $358 $140 #
cone-surface $-1 0 0 0 0 0 1 0.5 0 0 1 I I -0.70710678118654746 0.70710678118654746 0.5 forward I I I I #
coedge $-1 $228 $228 $144 $230 forward $141 $-1 #
coedge $-1 $229 $229 $358 $359 forward $143 $-1 #
edge $-1 $360 0 $360 6.2831853071796004 $228 $361 forward 7 unknown #
loop $-1 $362 $363 $145 #
cone-surface $-1 0 0 0 0 0 1 0.5 0 0 1 I I -0.70710678118654746 0.70710678118654746 0.5 forward I I I I #
coedge $-1 $233 $233 $149 $235 forward $146 $-1 #
coedge $-1 $234 $234 $363 $364 forward $148 $-1 #
edge $-1 $365 0 $365 6.2831853071796004 $233 $366 forward 7 unknown #
loop $-1 $367 $368 $150 #
cone-surface $-1 0 0 0 0 0 1 0.5 0 0 1 I I -0.70710678118654746 0.70710678118654746 0.5 forward I I I I #
coedge $-1 $238 $238 $154 $240 forward $151 $-1 #
coedge $-1 $239 $239 $368 $369 forward $153 $-1 #
edge $-1 $370 0 $370 6.2831853071796004 $238 $371 forward 7 unknown #
face $-1 $372 $373 $54 $-1 $374 reversed single #
loop $-1 $-1 $375 $155 #
plane-surface $-1 0 -6.491670139566768 0 0 1 0 0 0 1 forward_v I I I I #
coedge $-1 $376 $377 $378 $379 forward $156 $-1 #
coedge $-1 $380 $158 $381 $382 forward $99 $-1 #
coedge $-1 $158 $380 $383 $384 forward $99 $-1 #
coedge $-1 $385 $386 $158 $248 reversed $387 $-1 #
edge $-1 $388 -6.491670139566768 $389 6.491670139566768 $247 $390 forward 7 unknown #
loop $-1 $391 $392 $159 #
cone-surface $-1 0 0 0 0 0 1 0.5 0 0 1 I I -0.70710678118654746 0.70710678118654746 0.5 forward I I I I #
coedge $-1 $251 $251 $163 $253 forward $160 $-1 #
coedge $-1 $252 $252 $392 $393 forward $162 $-1 #
edge $-1 $394 0 $394 6.2831853071796004 $251 $395 forward 7 unknown #
loop $-1 $396 $397 $164 #
cone-surface $-1 0 0 0 0 0 1 0.5 0 0 1 I I -0.70710678118654746 0.70710678118654746 0.5 forward I I I I #
coedge $-1 $256 $256 $168 $258 forward $165 $-1 #
coedge $-1 $257 $257 $397 $398 forward $167 $-1 #
edge $-1 $399 0 $399 6.2831853071796004 $256 $400 forward 7 unknown #
loop $-1 $401 $402 $169 #
cone-surface $-1 0 0 0 0 0 1 0.5 0 0 1 I I -0.70710678118654746 0.70710678118654746 0.5 forward I I I I #
coedge $-1 $261 $261 $173 $263 forward $170 $-1 #
coedge $-1 $262 $262 $402 $403 forward $172 $-1 #
edge $-1 $404 0 $404 6.2831853071796004 $261 $405 forward 7 unknown #
face $-1 $406 $407 $58 $-1 $408 reversed single #
loop $-1 $-1 $409 $174 #
plane-surface $-1 0 -5.8548751047755161 0 0 1 0 0 0 1 forward_v I I I I #
coedge $-1 $410 $411 $412 $413 forward $175 $-1 #
coedge $-1 $414 $177 $415 $416 forward $111 $-1 #
coedge $-1 $177 $414 $417 $418 forward $111 $-1 #
coedge $-1 $419 $420 $177 $271 reversed $421 $-1 #
edge $-1 $422 -5.8548751047755161 $423 5.8548751047755161 $270 $424 forward 7 unknown #
loop $-1 $425 $426 $178 #
cone-surface $-1 0 0 0 0 0 1 0.5 0 0 1 I I -0.70710678118654746 0.70710678118654746 0.5 forward I I I I #
coedge $-1 $274 $274 $182 $276 forward $179 $-1 #
coedge $-1 $275 $275 $426 $427 forward $181 $-1 #
edge $-1 $428 0 $428 6.2831853071796004 $274 $429 forward 7 unknown #
loop $-1 $430 $431 $183 #
cone-surface $-1 0 0 0 0 0 1 0.5 0 0 1 I I -0.70710678118654746 0.70710678118654746 0.5 forward I I I I #
coedge $-1 $279 $279 $187 $281 forward $184 $-1 #
coedge $-1 $280 $280 $431 $432 forward $186 $-1 #
edge $-1 $433 0 $433 6.2831853071796004 $279 $434 forward 7 unknown #
face $-1 $435 $436 $61 $-1 $437 reversed single #
loop $-1 $-1 $438 $188 #
plane-surface $-1 0 -5.8548751047755161 0 0 1 0 0 0 1 forward_v I I I I #
coedge $-1 $439 $440 $441 $442 forward $189 $-1 #
coedge $-1 $443 $191 $444 $445 forward $120 $-1 #
coedge $-1 $191 $443 $446 $447 forward $120 $-1 #
coedge $-1 $448 $449 $191 $289 reversed $450 $-1 #
edge $-1 $451 -5.8548751047755161 $452 5.8548751047755161 $288 $453 forward 7 unknown #
loop $-1 $454 $455 $192 #
cone-surface $-1 0 0 0 0 0 1 0.5 0 0 1 I I -0.70710678118654746 0.70710678118654746 0.5 forward I I I I #
coedge $-1 $292 $292 $196 $294 forward $193 $-1 #
coedge $-1 $293 $293 $455 $456 forward $195 $-1 #
edge $-1 $457 0 $457 6.2831853071796004 $292 $458 forward 7 unknown #
loop $-1 $459 $460 $197 #
cone-surface $-1 0 0 0 0 0 1 0.5 0 0 1 I I -0.70710678118654746 0.70710678118654746 0.5 forward I I I I #
coedge $-1 $297 $297 $201 $299 forward $198 $-1 #
coedge $-1 $298 $298 $460 $461 forward $200 $-1 #
edge $-1 $462 0 $462 6.2831853071796004 $297 $463 forward 7 unknown #
face $-1 $464 $465 $48 $-1 $466 reversed single #
loop $-1 $-1 $467 $202 #
plane-surface $-1 -78.533890804773094 0 0 1 0 0 0 0 -1 forward_v I I I I #
coedge $-1 $468 $311 $469 $470 forward $203 $-1 #
coedge $-1 $471 $205 $468 $472 forward $129 $-1 #
coedge $-1 $205 $471 $473 $474 forward $129 $-1 #
coedge $-1 $314 $313 $205 $307 reversed $315 $-1 #
edge $-1 $475 -51.568439220696987 $476 51.568439220696987 $306 $477 forward 7 unknown #
coedge $-1 $207 $206 $478 $479 forward $81 $-1 #
coedge $-1 $480 $481 $206 $310 reversed $465 $-1 #
edge $-1 $317 -78.533890804773094 $482 78.533890804773094 $309 $483 forward 7 unknown #
coedge $-1 $303 $484 $207 $312 reversed $203 $-1 #
edge $-1 $485 -78.533890804773094 $316 78.533890804773094 $311 $486 forward 7 unknown #
coedge $-1 $306 $208 $484 $487 forward $315 $-1 #
coedge $-1 $208 $306 $480 $488 reversed $315 $-1 #
loop $-1 $-1 $313 $464 #
vertex $-1 $209 $489 #
vertex $-1 $209 $490 #
straight-curve $-1 78.533890804773094 0 12.744724193643798 0 1 0 I I #
face $-1 $491 $492 $49 $-1 $493 reversed single #
loop $-1 $-1 $494 $210 #
plane-surface $-1 -2.916697050560487 0 0 1 0 0 0 0 -1 forward_v I I I I #
coedge $-1 $495 $330 $496 $497 forward $211 $-1 #
coedge $-1 $498 $213 $495 $499 forward $133 $-1 #
coedge $-1 $213 $498 $500 $501 forward $133 $-1 #
coedge $-1 $333 $332 $213 $326 reversed $334 $-1 #
edge $-1 $502 -7.2390087872894826 $503 7.2390087872894826 $325 $504 forward 7 unknown #
coedge $-1 $215 $214 $505 $506 forward $84 $-1 #
coedge $-1 $507 $508 $214 $329 reversed $492 $-1 #
edge $-1 $336 -2.916697050560487 $509 2.916697050560487 $328 $510 forward 7 unknown #
coedge $-1 $322 $511 $215 $331 reversed $211 $-1 #
edge $-1 $512 -2.916697050560487 $335 2.916697050560487 $330 $513 forward 7 unknown #
coedge $-1 $325 $216 $511 $514 forward $334 $-1 #
coedge $-1 $216 $325 $507 $515 reversed $334 $-1 #
loop $-1 $-1 $332 $491 #
vertex $-1 $217 $516 #
vertex $-1 $217 $517 #
straight-curve $-1 2.916697050560487 0 12.744724193643798 0 1 0 I I #
face $-1 $518 $519 $50 $-1 $520 reversed single #
loop $-1 $-1 $521 $218 #
plane-surface $-1 -314.13556321909238 0 0 1 0 0 0 0 -1 forward_v I I I I #
coedge $-1 $522 $349 $523 $524 forward $219 $-1 #
coedge $-1 $525 $221 $522 $526 forward $137 $-1 #
coedge $-1 $221 $525 $527 $528 forward $137 $-1 #
coedge $-1 $352 $351 $221 $345 reversed $353 $-1 #
edge $-1 $529 -6.491670139566768 $530 6.491670139566768 $344 $531 forward 7 unknown #
coedge $-1 $223 $222 $532 $533 forward $87 $-1 #
coedge $-1 $534 $535 $222 $348 reversed $519 $-1 #
edge $-1 $355 -314.13556321909238 $536 314.13556321909238 $347 $537 forward 7 unknown #
coedge $-1 $341 $538 $223 $350 reversed $219 $-1 #
edge $-1 $539 -314.13556321909238 $354 314.13556321909238 $349 $540 forward 7 unknown #
coedge $-1 $344 $224 $538 $541 forward $353 $-1 #
coedge $-1 $224 $344 $534 $542 reversed $353 $-1 #
loop $-1 $-1 $351 $518 #
vertex $-1 $225 $543 #
vertex $-1 $225 $544 #
straight-curve $-1 314.13556321909238 0 157.06778160954619 0 1 0 I I #
loop $-1 $-1 $545 $140 #
coedge $-1 $358 $358 $229 $359 reversed $226 $-1 #
edge $-1 $546 0 $546 6.2831853071796004 $358 $547 forward 7 unknown #
vertex $-1 $230 $548 #
ellipse-curve $-1 0 0 -3.5093691824091309 0 0 -1 1 0 0 1 I I #
loop $-1 $-1 $549 $145 #
coedge $-1 $363 $363 $234 $364 reversed $231 $-1 #
edge $-1 $550 0 $550 6.2831853071796004 $363 $551 forward 7 unknown #
vertex $-1 $235 $552 #
ellipse-curve $-1 0 0 -3.5093691824091309 0 0 -1 1 0 0 1 I I #
loop $-1 $-1 $553 $150 #
coedge $-1 $368 $368 $239 $369 reversed $236 $-1 #
edge $-1 $554 0 $554 6.2831853071796004 $368 $555 forward 7 unknown #
vertex $-1 $240 $556 #
ellipse-curve $-1 0 0 -3.5093691824091309 0 0 -1 1 0 0 1 I I #
face $-1 $557 $558 $54 $-1 $559 reversed single #
loop $-1 $-1 $560 $241 #
plane-surface $-1 -314.13556321909238 0 0 1 0 0 0 0 -1 forward_v I I I I #
coedge $-1 $561 $383 $562 $563 forward $242 $-1 #
coedge $-1 $564 $244 $561 $565 forward $156 $-1 #
coedge $-1 $244 $564 $566 $567 forward $156 $-1 #
coedge $-1 $386 $385 $244 $379 reversed $387 $-1 #
edge $-1 $568 -6.491670139566768 $569 6.491670139566768 $378 $570 forward 7 unknown #
coedge $-1 $246 $245 $571 $572 forward $99 $-1 #
coedge $-1 $573 $574 $245 $382 reversed $558 $-1 #
edge $-1 $389 -314.13556321909238 $575 314.13556321909238 $381 $576 forward 7 unknown #
coedge $-1 $375 $577 $246 $384 reversed $242 $-1 #
edge $-1 $578 -314.13556321909238 $388 314.13556321909238 $383 $579 forward 7 unknown #
coedge $-1 $378 $247 $577 $580 forward $387 $-1 #
coedge $-1 $247 $378 $573 $581 reversed $387 $-1 #
loop $-1 $-1 $385 $557 #
vertex $-1 $248 $582 #
vertex $-1 $248 $583 #
straight-curve $-1 314.13556321909238 0 157.06778160954619 0 1 0 I I #
loop $-1 $-1 $584 $159 #
coedge $-1 $392 $392 $252 $393 reversed $249 $-1 #
edge $-1 $585 0 $585 6.2831853071796004 $392 $586 forward 7 unknown #
vertex $-1 $253 $587 #
ellipse-curve $-1 0 0 -3.5093691824091309 0 0 -1 1 0 0 1 I I #
loop $-1 $-1 $588 $164 #
coedge $-1 $397 $397 $257 $398 reversed $254 $-1 #
edge $-1 $589 0 $589 6.2831853071796004 $397 $590 forward 7 unknown #
vertex $-1 $258 $591 #
ellipse-curve $-1 0 0 -3.5093691824091309 0 0 -1 1 0 0 1 I I #
loop $-1 $-1 $592 $169 #
coedge $-1 $402 $402 $262 $403 reversed $259 $-1 #
edge $-1 $593 0 $593 6.2831853071796004 $402 $594 forward 7 unknown #
vertex $-1 $263 $595 #
ellipse-curve $-1 0 0 -3.5093691824091309 0 0 -1 1 0 0 1 I I #
face $-1 $596 $597 $58 $-1 $598 reversed single #
loop $-1 $-1 $599 $264 #
plane-surface $-1 -314.13556321909238 0 0 1 0 0 0 0 -1 forward_v I I I I #
coedge $-1 $600 $417 $601 $602 forward $265 $-1 #
coedge $-1 $603 $267 $600 $604 forward $175 $-1 #
coedge $-1 $267 $603 $605 $606 forward $175 $-1 #
coedge $-1 $420 $419 $267 $413 reversed $421 $-1 #
edge $-1 $607 -5.8548751047755161 $608 5.8548751047755161 $412 $609 forward 7 unknown #
coedge $-1 $269 $268 $610 $611 forward $111 $-1 #
coedge $-1 $612 $613 $268 $416 reversed $597 $-1 #
edge $-1 $423 -314.13556321909238 $614 314.13556321909238 $415 $615 forward 7 unknown #
coedge $-1 $409 $616 $269 $418 reversed $265 $-1 #
edge $-1 $617 -314.13556321909238 $422 314.13556321909238 $417 $618 forward 7 unknown #
coedge $-1 $412 $270 $616 $619 forward $421 $-1 #
coedge $-1 $270 $412 $612 $620 reversed $421 $-1 #
loop $-1 $-1 $419 $596 #
vertex $-1 $271 $621 #
vertex $-1 $271 $622 #
straight-curve $-1 314.13556321909238 0 157.06778160954619 0 1 0 I I #
loop $-1 $-1 $623 $178 #
coedge $-1 $426 $426 $275 $427 reversed $272 $-1 #
edge $-1 $624 0 $624 6.2831853071796004 $426 $625 forward 7 unknown #
vertex $-1 $276 $626 #
ellipse-curve $-1 0 0 -3.2922910245063646 0 0 -1 1 0 0 1 I I #
loop $-1 $-1 $627 $183 #
coedge $-1 $431 $431 $280 $432 reversed $277 $-1 #
edge $-1 $628 0 $628 6.2831853071796004 $431 $629 forward 7 unknown #
vertex $-1 $281 $630 #
ellipse-curve $-1 0 0 -3.2922910245063646 0 0 -1 1 0 0 1 I I #
face $-1 $631 $632 $61 $-1 $633 reversed single #
loop $-1 $-1 $634 $282 #
plane-surface $-1 -314.13556321909238 0 0 1 0 0 0 0 -1 forward_v I I I I #
coedge $-1 $635 $446 $636 $637 forward $283 $-1 #
coedge $-1 $638 $285 $635 $639 forward $189 $-1 #
coedge $-1 $285 $638 $640 $641 forward $189 $-1 #
coedge $-1 $449 $448 $285 $442 reversed $450 $-1 #
edge $-1 $642 -5.8548751047755161 $643 5.8548751047755161 $441 $644 forward 7 unknown #
coedge $-1 $287 $286 $645 $646 forward $120 $-1 #
coedge $-1 $647 $648 $286 $445 reversed $632 $-1 #
edge $-1 $452 -314.13556321909238 $649 314.13556321909238 $444 $650 forward 7 unknown #
coedge $-1 $438 $651 $287 $447 reversed $283 $-1 #
edge $-1 $652 -314.13556321909238 $451 314.13556321909238 $446 $653 forward 7 unknown #
coedge $-1 $441 $288 $651 $654 forward $450 $-1 #
coedge $-1 $288 $441 $647 $655 reversed $450 $-1 #
loop $-1 $-1 $448 $631 #
vertex $-1 $289 $656 #
vertex $-1 $289 $657 #
straight-curve $-1 314.13556321909238 0 157.06778160954619 0 1 0 I I #
loop $-1 $-1 $658 $192 #
coedge $-1 $455 $455 $293 $456 reversed $290 $-1 #
edge $-1 $659 0 $659 6.2831853071796004 $455 $660 forward 7 unknown #
vertex $-1 $294 $661 #
ellipse-curve $-1 0 0 -3.2922910245063646 0 0 -1 1 0 0 1 I I #
loop $-1 $-1 $662 $197 #
coedge $-1 $460 $460 $298 $461 reversed $295 $-1 #
edge $-1 $663 0 $663 6.2831853071796004 $460 $664 forward 7 unknown #
vertex $-1 $299 $665 #
ellipse-curve $-1 0 0 -3.2922910245063646 0 0 -1 1 0 0 1 I I #
face $-1 $-1 $315 $48 $-1 $666 reversed single #
loop $-1 $-1 $480 $300 #
plane-surface $-1 0 51.568439220696987 0 0 -1 0 0 0 -1 forward_v I I I I #
coedge $-1 $667 $478 $481 $668 forward $301 $-1 #
coedge $-1 $484 $303 $304 $472 reversed $203 $-1 #
coedge $-1 $478 $667 $303 $470 reversed $301 $-1 #
edge $-1 $485 -12.744724193643798 $669 12.744724193643798 $469 $670 forward 7 unknown #
coedge $-1 $305 $304 $667 $671 forward $129 $-1 #
edge $-1 $476 -78.533890804773094 $669 78.533890804773094 $468 $672 forward 7 unknown #
coedge $-1 $481 $480 $305 $474 reversed $465 $-1 #
edge $-1 $673 -78.533890804773094 $475 78.533890804773094 $473 $674 forward 7 unknown #
vertex $-1 $307 $675 #
vertex $-1 $487 $676 #
straight-curve $-1 78.533890804773094 0 -12.744724193643798 0 -1 0 I I #
coedge $-1 $467 $469 $308 $479 reversed $301 $-1 #
edge $-1 $482 -51.568439220696987 $485 51.568439220696987 $478 $677 forward 7 unknown #
coedge $-1 $473 $309 $314 $488 forward $465 $-1 #
coedge $-1 $309 $473 $467 $668 reversed $465 $-1 #
vertex $-1 $310 $678 #
straight-curve $-1 0 51.568439220696987 12.744724193643798 -1 0 0 I I #
coedge $-1 $311 $468 $313 $487 reversed $203 $-1 #
vertex $-1 $479 $679 #
straight-curve $-1 0 -51.568439220696987 12.744724193643798 1 0 0 I I #
edge $-1 $316 -12.744724193643798 $476 12.744724193643798 $313 $680 forward 7 unknown #
edge $-1 $317 -12.744724193643798 $475 12.744724193643798 $314 $681 forward 7 unknown #
point $-1 78.533890804773094 -51.568439220696987 12.744724193643798 #
point $-1 78.533890804773094 51.568439220696987 12.744724193643798 #
face $-1 $-1 $334 $49 $-1 $682 reversed single #
loop $-1 $-1 $507 $319 #
plane-surface $-1 0 7.2390087872894826 0 0 -1 0 0 0 -1 forward_v I I I I #
coedge $-1 $683 $505 $508 $684 forward $320 $-1 #
coedge $-1 $511 $322 $323 $499 reversed $211 $-1 #
coedge $-1 $505 $683 $322 $497 reversed $320 $-1 #
edge $-1 $512 -12.744724193643798 $685 12.744724193643798 $496 $686 forward 7 unknown #
coedge $-1 $324 $323 $683 $687 forward $133 $-1 #
edge $-1 $503 -2.916697050560487 $685 2.916697050560487 $495 $688 forward 7 unknown #
coedge $-1 $508 $507 $324 $501 reversed $492 $-1 #
edge $-1 $689 -2.916697050560487 $502 2.916697050560487 $500 $690 forward 7 unknown #
vertex $-1 $326 $691 #
vertex $-1 $514 $692 #
straight-curve $-1 2.916697050560487 0 -12.744724193643798 0 -1 0 I I #
coedge $-1 $494 $496 $327 $506 reversed $320 $-1 #
edge $-1 $509 -7.2390087872894826 $512 7.2390087872894826 $505 $693 forward 7 unknown #
coedge $-1 $500 $328 $333 $515 forward $492 $-1 #
coedge $-1 $328 $500 $494 $684 reversed $492 $-1 #
vertex $-1 $329 $694 #
straight-curve $-1 0 7.2390087872894826 12.744724193643798 -1 0 0 I I #
coedge $-1 $330 $495 $332 $514 reversed $211 $-1 #
vertex $-1 $506 $695 #
straight-curve $-1 0 -7.2390087872894826 12.744724193643798 1 0 0 I I #
edge $-1 $335 -12.744724193643798 $503 12.744724193643798 $332 $696 forward 7 unknown #
edge $-1 $336 -12.744724193643798 $502 12.744724193643798 $333 $697 forward 7 unknown #
point $-1 2.916697050560487 -7.2390087872894826 12.744724193643798 #
point $-1 2.916697050560487 7.2390087872894826 12.744724193643798 #
face $-1 $-1 $353 $50 $-1 $698 reversed single #
loop $-1 $-1 $534 $338 #
plane-surface $-1 0 6.491670139566768 0 0 -1 0 0 0 -1 forward_v I I I I #
coedge $-1 $699 $532 $535 $700 forward $339 $-1 #
coedge $-1 $538 $341 $342 $526 reversed $219 $-1 #
coedge $-1 $532 $699 $341 $524 reversed $339 $-1 #
edge $-1 $539 -157.06778160954619 $701 157.06778160954619 $523 $702 forward 7 unknown #
coedge $-1 $343 $342 $699 $703 forward $137 $-1 #
edge $-1 $530 -314.13556321909238 $701 314.13556321909238 $522 $704 forward 7 unknown #
coedge $-1 $535 $534 $343 $528 reversed $519 $-1 #
edge $-1 $705 -314.13556321909238 $529 314.13556321909238 $527 $706 forward 7 unknown #
vertex $-1 $345 $707 #
vertex $-1 $541 $708 #
straight-curve $-1 314.13556321909238 0 -157.06778160954619 0 -1 0 I I #
coedge $-1 $521 $523 $346 $533 reversed $339 $-1 #
edge $-1 $536 -6.491670139566768 $539 6.491670139566768 $532 $709 forward 7 unknown #
coedge $-1 $527 $347 $352 $542 forward $519 $-1 #
coedge $-1 $347 $527 $521 $700 reversed $519 $-1 #
vertex $-1 $348 $710 #
straight-curve $-1 0 6.491670139566768 157.06778160954619 -1 0 0 I I #
coedge $-1 $349 $522 $351 $541 reversed $219 $-1 #
vertex $-1 $533 $711 #
straight-curve $-1 0 -6.491670139566768 157.06778160954619 1 0 0 I I #
edge $-1 $354 -157.06778160954619 $530 157.06778160954619 $351 $712 forward 7 unknown #
edge $-1 $355 -157.06778160954619 $529 157.06778160954619 $352 $713 forward 7 unknown #
point $-1 314.13556321909238 -6.491670139566768 157.06778160954619 #
point $-1 314.13556321909238 6.491670139566768 157.06778160954619 #
coedge $-1 $545 $545 $-1 $714 reversed $357 $-1 #
vertex $-1 $359 $715 #
ellipse-curve $-1 0 0 -0.5 0 0 -1 1 0 0 1 I I #
point $-1 1 0 -3.5093691824091309 #
coedge $-1 $549 $549 $-1 $716 reversed $362 $-1 #
vertex $-1 $364 $717 #
ellipse-curve $-1 0 0 -0.5 0 0 -1 1 0 0 1 I I #
point $-1 1 0 -3.5093691824091309 #
coedge $-1 $553 $553 $-1 $718 reversed $367 $-1 #
vertex $-1 $369 $719 #
ellipse-curve $-1 0 0 -0.5 0 0 -1 1 0 0 1 I I #
point $-1 1 0 -3.5093691824091309 #
face $-1 $-1 $387 $54 $-1 $720 reversed single #
loop $-1 $-1 $573 $372 #
plane-surface $-1 0 6.491670139566768 0 0 -1 0 0 0 -1 forward_v I I I I #
coedge $-1 $721 $571 $574 $722 forward $373 $-1 #
coedge $-1 $577 $375 $376 $565 reversed $242 $-1 #
coedge $-1 $571 $721 $375 $563 reversed $373 $-1 #
edge $-1 $578 -157.06778160954619 $723 157.06778160954619 $562 $724 forward 7 unknown #
coedge $-1 $377 $376 $721 $725 forward $156 $-1 #
edge $-1 $569 -314.13556321909238 $723 314.13556321909238 $561 $726 forward 7 unknown #
coedge $-1 $574 $573 $377 $567 reversed $558 $-1 #
edge $-1 $727 -314.13556321909238 $568 314.13556321909238 $566 $728 forward 7 unknown #
vertex $-1 $379 $729 #
vertex $-1 $580 $730 #
straight-curve $-1 314.13556321909238 0 -157.06778160954619 0 -1 0 I I #
coedge $-1 $560 $562 $380 $572 reversed $373 $-1 #
edge $-1 $575 -6.491670139566768 $578 6.491670139566768 $571 $731 forward 7 unknown #
coedge $-1 $566 $381 $386 $581 forward $558 $-1 #
coedge $-1 $381 $566 $560 $722 reversed $558 $-1 #
vertex $-1 $382 $732 #
straight-curve $-1 0 6.491670139566768 157.06778160954619 -1 0 0 I I #
coedge $-1 $383 $561 $385 $580 reversed $242 $-1 #
vertex $-1 $572 $733 #
straight-curve $-1 0 -6.491670139566768 157.06778160954619 1 0 0 I I #
edge $-1 $388 -157.06778160954619 $569 157.06778160954619 $385 $734 forward 7 unknown #
edge $-1 $389 -157.06778160954619 $568 157.06778160954619 $386 $735 forward 7 unknown #
point $-1 314.13556321909238 -6.491670139566768 157.06778160954619 #
point $-1 314.13556321909238 6.491670139566768 157.06778160954619 #
coedge $-1 $584 $584 $-1 $736 reversed $391 $-1 #
vertex $-1 $393 $737 #
ellipse-curve $-1 0 0 -0.5 0 0 -1 1 0 0 1 I I #
point $-1 1 0 -3.5093691824091309 #
coedge $-1 $588 $588 $-1 $738 reversed $396 $-1 #
vertex $-1 $398 $739 #
ellipse-curve $-1 0 0 -0.5 0 0 -1 1 0 0 1 I I #
point $-1 1 0 -3.5093691824091309 #
coedge $-1 $592 $592 $-1 $740 reversed $401 $-1 #
vertex $-1 $403 $741 #
ellipse-curve $-1 0 0 -0.5 0 0 -1 1 0 0 1 I I #
point $-1 1 0 -3.5093691824091309 #
face $-1 $-1 $421 $58 $-1 $742 reversed single #
loop $-1 $-1 $612 $406 #
plane-surface $-1 0 5.8548751047755161 0 0 -1 0 0 0 -1 forward_v I I I I #
coedge $-1 $743 $610 $613 $744 forward $407 $-1 #
coedge $-1 $616 $409 $410 $604 reversed $265 $-1 #
coedge $-1 $610 $743 $409 $602 reversed $407 $-1 #
edge $-1 $617 -157.06778160954619 $745 157.06778160954619 $601 $746 forward 7 unknown #
coedge $-1 $411 $410 $743 $747 forward $175 $-1 #
edge $-1 $608 -314.13556321909238 $745 314.13556321909238 $600 $748 forward 7 unknown #
coedge $-1 $613 $612 $411 $606 reversed $597 $-1 #
edge $-1 $749 -314.13556321909238 $607 314.13556321909238 $605 $750 forward 7 unknown #
vertex $-1 $413 $751 #
vertex $-1 $619 $752 #
straight-curve $-1 314.13556321909238 0 -157.06778160954619 0 -1 0 I I #
coedge $-1 $599 $601 $414 $611 reversed $407 $-1 #
edge $-1 $614 -5.8548751047755161 $617 5.8548751047755161 $610 $753 forward 7 unknown #
coedge $-1 $605 $415 $420 $620 forward $597 $-1 #
coedge $-1 $415 $605 $599 $744 reversed $597 $-1 #
vertex $-1 $416 $754 #
straight-curve $-1 0 5.8548751047755161 157.06778160954619 -1 0 0 I I #
coedge $-1 $417 $600 $419 $619 reversed $265 $-1 #
vertex $-1 $611 $755 #
straight-curve $-1 0 -5.8548751047755161 157.06778160954619 1 0 0 I I #
edge $-1 $422 -157.06778160954619 $608 157.06778160954619 $419 $756 forward 7 unknown #
edge $-1 $423 -157.06778160954619 $607 157.06778160954619 $420 $757 forward 7 unknown #
point $-1 314.13556321909238 -5.8548751047755161 157.06778160954619 #
point $-1 314.13556321909238 5.8548751047755161 157.06778160954619 #
coedge $-1 $623 $623 $-1 $758 reversed $425 $-1 #
vertex $-1 $427 $759 #
ellipse-curve $-1 0 0 -0.5 0 0 -1 1 0 0 1 I I #
point $-1 1 0 -3.2922910245063646 #
coedge $-1 $627 $627 $-1 $760 reversed $430 $-1 #
vertex $-1 $432 $761 #
ellipse-curve $-1 0 0 -0.5 0 0 -1 1 0 0 1 I I #
point $-1 1 0 -3.2922910245063646 #
face $-1 $-1 $450 $61 $-1 $762 reversed single #
loop $-1 $-1 $647 $435 #
plane-surface $-1 0 5.8548751047755161 0 0 -1 0 0 0 -1 forward_v I I I I #
coedge $-1 $763 $645 $648 $764 forward $436 $-1 #
coedge $-1 $651 $438 $439 $639 reversed $283 $-1 #
coedge $-1 $645 $763 $438 $637 reversed $436 $-1 #
edge $-1 $652 -157.06778160954619 $765 157.06778160954619 $636 $766 forward 7 unknown #
coedge $-1 $440 $439 $763 $767 forward $189 $-1 #
edge $-1 $643 -314.13556321909238 $765 314.13556321909238 $635 $768 forward 7 unknown #
coedge $-1 $648 $647 $440 $641 reversed $632 $-1 #
edge $-1 $769 -314.13556321909238 $642 314.13556321909238 $640 $770 forward 7 unknown #
vertex $-1 $442 $771 #
vertex $-1 $654 $772 #
straight-curve $-1 314.13556321909238 0 -157.06778160954619 0 -1 0 I I #
coedge $-1 $634 $636 $443 $646 reversed $436 $-1 #
edge $-1 $649 -5.8548751047755161 $652 5.8548751047755161 $645 $773 forward 7 unknown #
coedge $-1 $640 $444 $449 $655 forward $632 $-1 #
coedge $-1 $444 $640 $634 $764 reversed $632 $-1 #
vertex $-1 $445 $774 #
straight-curve $-1 0 5.8548751047755161 157.06778160954619 -1 0 0 I I #
coedge $-1 $446 $635 $448 $654 reversed $283 $-1 #
vertex $-1 $646 $775 #
straight-curve $-1 0 -5.8548751047755161 157.06778160954619 1 0 0 I I #
edge $-1 $451 -157.06778160954619 $643 157.06778160954619 $448 $776 forward 7 unknown #
edge $-1 $452 -157.06778160954619 $642 157.06778160954619 $449 $777 forward 7 unknown #
point $-1 314.13556321909238 -5.8548751047755161 157.06778160954619 #
point $-1 314.13556321909238 5.8548751047755161 157.06778160954619 #
coedge $-1 $658 $658 $-1 $778 reversed $454 $-1 #
vertex $-1 $456 $779 #
ellipse-curve $-1 0 0 -0.5 0 0 -1 1 0 0 1 I I #
point $-1 1 0 -3.2922910245063646 #
coedge $-1 $662 $662 $-1 $780 reversed $459 $-1 #
vertex $-1 $461 $781 #
ellipse-curve $-1 0 0 -0.5 0 0 -1 1 0 0 1 I I #
point $-1 1 0 -3.2922910245063646 #
plane-surface $-1 78.533890804773094 0 0 -1 0 0 0 0 1 forward_v I I I I #
coedge $-1 $469 $467 $471 $671 reversed $301 $-1 #
edge $-1 $482 -12.744724193643798 $673 12.744724193643798 $481 $782 forward 7 unknown #
vertex $-1 $671 $783 #
straight-curve $-1 -78.533890804773094 -51.568439220696987 0 0 0 -1 I I #
edge $-1 $669 -51.568439220696987 $673 51.568439220696987 $667 $784 forward 7 unknown #
straight-curve $-1 0 -51.568439220696987 -12.744724193643798 -1 0 0 I I #
vertex $-1 $474 $785 #
straight-curve $-1 0 51.568439220696987 -12.744724193643798 1 0 0 I I #
point $-1 78.533890804773094 51.568439220696987 -12.744724193643798 #
point $-1 78.533890804773094 -51.568439220696987 -12.744724193643798 #
straight-curve $-1 -78.533890804773094 0 12.744724193643798 0 -1 0 I I #
point $-1 -78.533890804773094 51.568439220696987 12.744724193643798 #
point $-1 -78.533890804773094 -51.568439220696987 12.744724193643798 #
straight-curve $-1 78.533890804773094 -51.568439220696987 0 0 0 -1 I I #
straight-curve $-1 78.533890804773094 51.568439220696987 0 0 0 -1 I I #
plane-surface $-1 2.916697050560487 0 0 -1 0 0 0 0 1 forward_v I I I I #
coedge $-1 $496 $494 $498 $687 reversed $320 $-1 #
edge $-1 $509 -12.744724193643798 $689 12.744724193643798 $508 $786 forward 7 unknown #
vertex $-1 $687 $787 #
straight-curve $-1 -2.916697050560487 -7.2390087872894826 0 0 0 -1 I I #
edge $-1 $685 -7.2390087872894826 $689 7.2390087872894826 $683 $788 forward 7 unknown #
straight-curve $-1 0 -7.2390087872894826 -12.744724193643798 -1 0 0 I I #
vertex $-1 $501 $789 #
straight-curve $-1 0 7.2390087872894826 -12.744724193643798 1 0 0 I I #
point $-1 2.916697050560487 7.2390087872894826 -12.744724193643798 #
point $-1 2.916697050560487 -7.2390087872894826 -12.744724193643798 #
straight-curve $-1 -2.916697050560487 0 12.744724193643798 0 -1 0 I I #
point $-1 -2.916697050560487 7.2390087872894826 12.744724193643798 #
point $-1 -2.916697050560487 -7.2390087872894826 12.744724193643798 #
straight-curve $-1 2.916697050560487 -7.2390087872894826 0 0 0 -1 I I #
straight-curve $-1 2.916697050560487 7.2390087872894826 0 0 0 -1 I I #
plane-surface $-1 314.13556321909238 0 0 -1 0 0 0 0 1 forward_v I I I I #
coedge $-1 $523 $521 $525 $703 reversed $339 $-1 #
edge $-1 $536 -157.06778160954619 $705 157.06778160954619 $535 $790 forward 7 unknown #
vertex $-1 $703 $791 #
straight-curve $-1 -314.13556321909238 -6.491670139566768 0 0 0 -1 I I #
edge $-1 $701 -6.491670139566768 $705 6.491670139566768 $699 $792 forward 7 unknown #
straight-curve $-1 0 -6.491670139566768 -157.06778160954619 -1 0 0 I I #
vertex $-1 $528 $793 #
straight-curve $-1 0 6.491670139566768 -157.06778160954619 1 0 0 I I #
point $-1 314.13556321909238 6.491670139566768 -157.06778160954619 #
point $-1 314.13556321909238 -6.491670139566768 -157.06778160954619 #
straight-curve $-1 -314.13556321909238 0 157.06778160954619 0 -1 0 I I #
point $-1 -314.13556321909238 6.491670139566768 157.06778160954619 #
point $-1 -314.13556321909238 -6.491670139566768 157.06778160954619 #
straight-curve $-1 314.13556321909238 -6.491670139566768 0 0 0 -1 I I #
straight-curve $-1 314.13556321909238 6.491670139566768 0 0 0 -1 I I #
edge $-1 $794 1 $794 0 $545 $-1 forward 7 unknown #
point $-1 1 0 -0.5 #
edge $-1 $795 1 $795 0 $549 $-1 forward 7 unknown #
point $-1 1 0 -0.5 #
edge $-1 $796 1 $796 0 $553 $-1 forward 7 unknown #
point $-1 1 0 -0.5 #
plane-surface $-1 314.13556321909238 0 0 -1 0 0 0 0 1 forward_v I I I I #
coedge $-1 $562 $560 $564 $725 reversed $373 $-1 #
edge $-1 $575 -157.06778160954619 $727 157.06778160954619 $574 $797 forward 7 unknown #
vertex $-1 $725 $798 #
straight-curve $-1 -314.13556321909238 -6.491670139566768 0 0 0 -1 I I #
edge $-1 $723 -6.491670139566768 $727 6.491670139566768 $721 $799 forward 7 unknown #
straight-curve $-1 0 -6.491670139566768 -157.06778160954619 -1 0 0 I I #
vertex $-1 $567 $800 #
straight-curve $-1 0 6.491670139566768 -157.06778160954619 1 0 0 I I #
point $-1 314.13556321909238 6.491670139566768 -157.06778160954619 #
point $-1 314.13556321909238 -6.491670139566768 -157.06778160954619 #
straight-curve $-1 -314.13556321909238 0 157.06778160954619 0 -1 0 I I #
point $-1 -314.13556321909238 6.491670139566768 157.06778160954619 #
point $-1 -314.13556321909238 -6.491670139566768 157.06778160954619 #
straight-curve $-1 314.13556321909238 -6.491670139566768 0 0 0 -1 I I #
straight-curve $-1 314.13556321909238 6.491670139566768 0 0 0 -1 I I #
edge $-1 $801 1 $801 0 $584 $-1 forward 7 unknown #
point $-1 1 0 -0.5 #
edge $-1 $802 1 $802 0 $588 $-1 forward 7 unknown #
point $-1 1 0 -0.5 #
edge $-1 $803 1 $803 0 $592 $-1 forward 7 unknown #
point $-1 1 0 -0.5 #
plane-surface $-1 314.13556321909238 0 0 -1 0 0 0 0 1 forward_v I I I I #
coedge $-1 $601 $599 $603 $747 reversed $407 $-1 #
edge $-1 $614 -157.06778160954619 $749 157.06778160954619 $613 $804 forward 7 unknown #
vertex $-1 $747 $805 #
straight-curve $-1 -314.13556321909238 -5.8548751047755161 0 0 0 -1 I I #
edge $-1 $745 -5.8548751047755161 $749 5.8548751047755161 $743 $806 forward 7 unknown #
straight-curve $-1 0 -5.8548751047755161 -157.06778160954619 -1 0 0 I I #
vertex $-1 $606 $807 #
straight-curve $-1 0 5.8548751047755161 -157.06778160954619 1 0 0 I I #
point $-1 314.13556321909238 5.8548751047755161 -157.06778160954619 #
point $-1 314.13556321909238 -5.8548751047755161 -157.06778160954619 #
straight-curve $-1 -314.13556321909238 0 157.06778160954619 0 -1 0 I I #
point $-1 -314.13556321909238 5.8548751047755161 157.06778160954619 #
point $-1 -314.13556321909238 -5.8548751047755161 157.06778160954619 #
straight-curve $-1 314.13556321909238 -5.8548751047755161 0 0 0 -1 I I #
straight-curve $-1 314.13556321909238 5.8548751047755161 0 0 0 -1 I I #
edge $-1 $808 1 $808 0 $623 $-1 forward 7 unknown #
point $-1 1 0 -0.5 #
edge $-1 $809 1 $809 0 $627 $-1 forward 7 unknown #
point $-1 1 0 -0.5 #
plane-surface $-1 314.13556321909238 0 0 -1 0 0 0 0 1 forward_v I I I I #
coedge $-1 $636 $634 $638 $767 reversed $436 $-1 #
edge $-1 $649 -157.06778160954619 $769 157.06778160954619 $648 $810 forward 7 unknown #
vertex $-1 $767 $811 #
straight-curve $-1 -314.13556321909238 -5.8548751047755161 0 0 0 -1 I I #
edge $-1 $765 -5.8548751047755161 $769 5.8548751047755161 $763 $812 forward 7 unknown #
straight-curve $-1 0 -5.8548751047755161 -157.06778160954619 -1 0 0 I I #
vertex $-1 $641 $813 #
straight-curve $-1 0 5.8548751047755161 -157.06778160954619 1 0 0 I I #
point $-1 314.13556321909238 5.8548751047755161 -157.06778160954619 #
point $-1 314.13556321909238 -5.8548751047755161 -157.06778160954619 #
straight-curve $-1 -314.13556321909238 0 157.06778160954619 0 -1 0 I I #
point $-1 -314.13556321909238 5.8548751047755161 157.06778160954619 #
point $-1 -314.13556321909238 -5.8548751047755161 157.06778160954619 #
straight-curve $-1 314.13556321909238 -5.8548751047755161 0 0 0 -1 I I #
straight-curve $-1 314.13556321909238 5.8548751047755161 0 0 0 -1 I I #
edge $-1 $814 1 $814 0 $658 $-1 forward 7 unknown #
point $-1 1 0 -0.5 #
edge $-1 $815 1 $815 0 $662 $-1 forward 7 unknown #
point $-1 1 0 -0.5 #
straight-curve $-1 -78.533890804773094 51.568439220696987 0 0 0 -1 I I #
point $-1 -78.533890804773094 -51.568439220696987 -12.744724193643798 #
straight-curve $-1 -78.533890804773094 0 -12.744724193643798 0 1 0 I I #
point $-1 -78.533890804773094 51.568439220696987 -12.744724193643798 #
straight-curve $-1 -2.916697050560487 7.2390087872894826 0 0 0 -1 I I #
point $-1 -2.916697050560487 -7.2390087872894826 -12.744724193643798 #
straight-curve $-1 -2.916697050560487 0 -12.744724193643798 0 1 0 I I #
point $-1 -2.916697050560487 7.2390087872894826 -12.744724193643798 #
straight-curve $-1 -314.13556321909238 6.491670139566768 0 0 0 -1 I I #
point $-1 -314.13556321909238 -6.491670139566768 -157.06778160954619 #
straight-curve $-1 -314.13556321909238 0 -157.06778160954619 0 1 0 I I #
point $-1 -314.13556321909238 6.491670139566768 -157.06778160954619 #
vertex $-1 $714 $816 #
vertex $-1 $716 $817 #
vertex $-1 $718 $818 #
straight-curve $-1 -314.13556321909238 6.491670139566768 0 0 0 -1 I I #
point $-1 -314.13556321909238 -6.491670139566768 -157.06778160954619 #
straight-curve $-1 -314.13556321909238 0 -157.06778160954619 0 1 0 I I #
point $-1 -314.13556321909238 6.491670139566768 -157.06778160954619 #
vertex $-1 $736 $819 #
vertex $-1 $738 $820 #
vertex $-1 $740 $821 #
straight-curve $-1 -314.13556321909238 5.8548751047755161 0 0 0 -1 I I #
point $-1 -314.13556321909238 -5.8548751047755161 -157.06778160954619 #
straight-curve $-1 -314.13556321909238 0 -157.06778160954619 0 1 0 I I #
point $-1 -314.13556321909238 5.8548751047755161 -157.06778160954619 #
vertex $-1 $758 $822 #
vertex $-1 $760 $823 #
straight-curve $-1 -314.13556321909238 5.8548751047755161 0 0 0 -1 I I #
point $-1 -314.13556321909238 -5.8548751047755161 -157.06778160954619 #
straight-curve $-1 -314.13556321909238 0 -157.06778160954619 0 1 0 I I #
point $-1 -314.13556321909238 5.8548751047755161 -157.06778160954619 #
vertex $-1 $778 $824 #
vertex $-1 $780 $825 #
point $-1 0 0 0.5 #
point $-1 0 0 0.5 #
point $-1 0 0 0.5 #
point $-1 0 0 0.5 #
point $-1 0 0 0.5 #
point $-1 0 0 0.5 #
point $-1 0 0 0.5 #
point $-1 0 0 0.5 #
point $-1 0 0 0.5 #
point $-1 0 0 0.5 #
End-of-ACIS-data 