500 0 14 0           
7 Unknown 11 ACIS 5.0 NT 24 Thu Mar 25 20:49:45 1999 
-1 9.9999999999999995e-007 1e-010 
body $-1 $14 $-1 $15 #
body $-1 $16 $-1 $17 #
body $-1 $18 $-1 $19 #
body $-1 $20 $-1 $21 #
body $-1 $22 $-1 $23 #
body $-1 $24 $-1 $25 #
body $-1 $26 $-1 $27 #
body $-1 $28 $-1 $29 #
body $-1 $30 $-1 $31 #
body $-1 $32 $-1 $33 #
body $-1 $34 $-1 $35 #
body $-1 $36 $-1 $37 #
body $-1 $38 $-1 $39 #
body $-1 $40 $-1 $41 #
lump $-1 $-1 $42 $0 #
transform $-1 1 0 0 0 1 0 0 0 1 68.68129520554217 28.07115017885992 11.528986805231643 1 rotate no_reflect no_shear #
lump $-1 $-1 $43 $1 #
transform $-1 1 0 0 0 1 0 0 0 1 68.68129520554217 28.07115017885992 11.528986805231643 1 rotate no_reflect no_shear #
lump $-1 $-1 $44 $2 #
transform $-1 1 0 0 0 1 0 0 0 1 68.68129520554217 28.07115017885992 11.528986805231643 1 rotate no_reflect no_shear #
lump $-1 $-1 $45 $3 #
transform $-1 1 0 0 0 1 0 0 0 1 68.68129520554217 28.07115017885992 11.528986805231643 1 rotate no_reflect no_shear #
lump $-1 $-1 $46 $4 #
transform $-1 1 0 0 0 1 0 0 0 1 68.68129520554217 28.07115017885992 11.528986805231643 1 rotate no_reflect no_shear #
lump $-1 $-1 $47 $5 #
transform $-1 1 0 0 0 1 0 0 0 1 68.68129520554217 28.07115017885992 11.528986805231643 1 rotate no_reflect no_shear #
lump $-1 $-1 $48 $6 #
transform $-1 1 0 0 0 1 0 0 0 1 68.68129520554217 28.07115017885992 11.528986805231643 1 rotate no_reflect no_shear #
lump $-1 $-1 $49 $7 #
transform $-1 1 0 0 0 1 0 0 0 1 68.68129520554217 28.07115017885992 11.528986805231643 1 rotate no_reflect no_shear #
lump $-1 $-1 $50 $8 #
transform $-1 1 0 0 0 1 0 0 0 1 68.68129520554217 28.07115017885992 11.528986805231643 1 rotate no_reflect no_shear #
lump $-1 $-1 $51 $9 #
transform $-1 1 0 0 0 1 0 0 0 1 68.68129520554217 28.07115017885992 11.528986805231643 1 rotate no_reflect no_shear #
lump $-1 $-1 $52 $10 #
transform $-1 1 0 0 0 1 0 0 0 1 68.68129520554217 28.07115017885992 11.528986805231643 1 rotate no_reflect no_shear #
lump $-1 $-1 $53 $11 #
transform $-1 1 0 0 0 1 0 0 0 1 68.68129520554217 28.07115017885992 11.528986805231643 1 rotate no_reflect no_shear #
lump $-1 $-1 $54 $12 #
transform $-1 1 0 0 0 1 0 0 0 1 68.68129520554217 28.07115017885992 11.528986805231643 1 rotate no_reflect no_shear #
lump $-1 $-1 $55 $13 #
transform $-1 1 0 0 0 1 0 0 0 1 68.68129520554217 28.07115017885992 11.528986805231643 1 rotate no_reflect no_shear #
shell $-1 $-1 $-1 $56 $-1 $14 #
shell $-1 $-1 $-1 $57 $-1 $16 #
shell $-1 $-1 $-1 $58 $-1 $18 #
shell $-1 $-1 $-1 $59 $-1 $20 #
shell $-1 $-1 $-1 $60 $-1 $22 #
shell $-1 $-1 $-1 $61 $-1 $24 #
shell $-1 $-1 $-1 $62 $-1 $26 #
shell $-1 $-1 $-1 $63 $-1 $28 #
shell $-1 $-1 $-1 $64 $-1 $30 #
shell $-1 $-1 $-1 $65 $-1 $32 #
shell $-1 $-1 $-1 $66 $-1 $34 #
shell $-1 $-1 $-1 $67 $-1 $36 #
shell $-1 $-1 $-1 $68 $-1 $38 #
shell $-1 $-1 $-1 $69 $-1 $40 #
face $-1 $70 $71 $42 $-1 $72 forward single #
face $-1 $73 $74 $43 $-1 $75 forward single #
face $-1 $76 $77 $44 $-1 $78 forward single #
face $-1 $79 $80 $45 $-1 $81 reversed single #
face $-1 $82 $83 $46 $-1 $84 forward single #
face $-1 $85 $86 $47 $-1 $87 reversed single #
face $-1 $88 $89 $48 $-1 $90 forward single #
face $-1 $91 $92 $49 $-1 $93 forward single #
face $-1 $94 $95 $50 $-1 $96 reversed single #
face $-1 $97 $98 $51 $-1 $99 forward single #
face $-1 $100 $101 $52 $-1 $102 forward single #
face $-1 $103 $104 $53 $-1 $105 reversed single #
face $-1 $106 $107 $54 $-1 $108 forward single #
face $-1 $109 $110 $55 $-1 $111 forward single #
face $-1 $112 $113 $42 $-1 $114 reversed single #
loop $-1 $-1 $115 $56 #
plane-surface $-1 0 0 11.528986805231643 0 0 1 1 0 0 forward_v I I I I #
face $-1 $116 $117 $43 $-1 $118 reversed single #
loop $-1 $-1 $119 $57 #
plane-surface $-1 0 -20.597402765788242 -4.4457091015063348 0 0 1 1 0 0 forward_v I I I I #
face $-1 $120 $121 $44 $-1 $122 reversed single #
loop $-1 $-1 $123 $58 #
plane-surface $-1 0 28.07115017885992 0 0 -1 0 0 0 -1 forward_v I I I I #
face $-1 $124 $125 $45 $-1 $126 reversed single #
loop $-1 $-1 $127 $59 #
plane-surface $-1 -170.76159462123692 7.4852505790177197 93.075976063505834 0 1 0 -0.74314483375859142 0 0.66913059716165679 forward_v I I I I #
face $-1 $128 $129 $46 $-1 $130 forward single #
loop $-1 $131 $132 $60 #
cone-surface $-1 -62.832586769300718 11.788682912133847 5.281736849747646 0.74314483375859142 0 -0.66913059716165679 0.66913059716165679 0 0.74314483375859142 1 I I 0 1 1 forward I I I I #
face $-1 $133 $134 $47 $-1 $135 reversed single #
loop $-1 $-1 $136 $61 #
plane-surface $-1 99.070263050542991 -5.335810466385432 197.90272308731087 0 -1 0 -0.80901700255871778 0 -0.5877852410284794 forward_v I I I I #
face $-1 $137 $138 $48 $-1 $139 forward single #
loop $-1 $140 $141 $62 #
cone-surface $-1 66.256342716883083 -9.617324990512504 8.470047536103948 -0.80901700255871778 0 -0.5877852410284794 0.2938926205142397 0 -0.40450850127935889 1 I I 0 1 0.5 forward I I I I #
face $-1 $142 $143 $49 $-1 $144 forward single #
loop $-1 $145 $146 $63 #
cone-surface $-1 66.256342716883083 -7.0484162760362601 8.470047536103948 -0.80901700255871778 0 -0.5877852410284794 0.2938926205142397 0 -0.40450850127935889 1 I I 0 1 0.5 forward I I I I #
face $-1 $147 $148 $50 $-1 $149 reversed single #
loop $-1 $-1 $150 $64 #
plane-surface $-1 99.070263050542991 4.4027797329367466 197.90272308731087 0 -1 0 -0.80901700255871778 0 -0.5877852410284794 forward_v I I I I #
face $-1 $151 $152 $51 $-1 $153 forward single #
loop $-1 $154 $155 $65 #
cone-surface $-1 66.256342716883083 0.12126520880967817 8.470047536103948 -0.80901700255871778 0 -0.5877852410284794 0.2938926205142397 0 -0.40450850127935889 1 I I 0 1 0.5 forward I I I I #
face $-1 $156 $157 $52 $-1 $158 forward single #
loop $-1 $159 $160 $66 #
cone-surface $-1 66.256342716883083 2.6901739232859221 8.470047536103948 -0.80901700255871778 0 -0.5877852410284794 0.2938926205142397 0 -0.40450850127935889 1 I I 0 1 0.5 forward I I I I #
face $-1 $161 $162 $53 $-1 $163 reversed single #
loop $-1 $-1 $164 $67 #
plane-surface $-1 99.070263050542991 14.141369932258929 197.90272308731087 0 -1 0 -0.80901700255871778 0 -0.5877852410284794 forward_v I I I I #
face $-1 $165 $166 $54 $-1 $167 forward single #
loop $-1 $168 $169 $68 #
cone-surface $-1 66.256342716883083 9.8598554081318603 8.470047536103948 -0.80901700255871778 0 -0.5877852410284794 0.2938926205142397 0 -0.40450850127935889 1 I I 0 1 0.5 forward I I I I #
face $-1 $170 $171 $55 $-1 $172 forward single #
loop $-1 $173 $174 $69 #
cone-surface $-1 66.256342716883083 12.428764122608104 8.470047536103948 -0.80901700255871778 0 -0.5877852410284794 0.2938926205142397 0 -0.40450850127935889 1 I I 0 1 0.5 forward I I I I #
face $-1 $175 $176 $42 $-1 $177 reversed single #
loop $-1 $-1 $178 $70 #
plane-surface $-1 0 0 -11.528986805231643 0 0 1 1 0 0 forward_v I I I I #
coedge $-1 $179 $180 $181 $182 forward $71 $-1 #
face $-1 $183 $184 $43 $-1 $185 reversed single #
loop $-1 $-1 $186 $73 #
plane-surface $-1 0 -20.597402765788242 -11.028986805231643 0 0 1 1 0 0 forward_v I I I I #
coedge $-1 $187 $188 $189 $190 reversed $74 $-1 #
face $-1 $191 $192 $44 $-1 $193 forward single #
loop $-1 $-1 $194 $76 #
plane-surface $-1 -68.68129520554217 0 0 1 0 0 0 0 -1 forward_v I I I I #
coedge $-1 $195 $196 $197 $198 forward $77 $-1 #
face $-1 $199 $200 $45 $-1 $201 reversed single #
loop $-1 $-1 $202 $79 #
plane-surface $-1 -68.68129520554217 11.788682912133847 1.1624639140649009 -0.74314483375859142 0 0.66913059716165679 0.66913059716165679 0 0.74314483375859142 forward_v I I I I #
coedge $-1 $203 $204 $205 $206 reversed $80 $-1 #
face $-1 $-1 $207 $46 $-1 $208 forward single #
loop $-1 $209 $210 $82 #
cone-surface $-1 -61.27933536828116 11.788682912133847 3.8831830412661912 0.74314483375859142 0 -0.66913059716165679 0.3345652985808284 0 0.37157241687929571 1 I I -0.70710678118654746 0.70710678118654746 0.5 forward I I I I #
loop $-1 $-1 $211 $60 #
coedge $-1 $132 $132 $212 $213 reversed $83 $-1 #
face $-1 $214 $215 $47 $-1 $216 reversed single #
loop $-1 $-1 $217 $85 #
plane-surface $-1 -12.058408107533324 -8.332870633274382 117.16301977423537 0.80901700255871778 0 0.5877852410284794 0.5877852410284794 0 -0.80901700255871778 forward_v I I I I #
coedge $-1 $218 $219 $220 $221 reversed $86 $-1 #
face $-1 $-1 $222 $48 $-1 $223 forward single #
loop $-1 $224 $225 $88 #
cone-surface $-1 65.625180079323655 -9.617324990512504 8.0114810512554264 -0.80901700255871778 0 -0.5877852410284794 0.14694631025711985 0 -0.20225425063967944 1 I I -0.70710678118654746 0.70710678118654746 0.25 forward I I I I #
loop $-1 $-1 $226 $62 #
coedge $-1 $141 $141 $227 $228 reversed $89 $-1 #
face $-1 $-1 $229 $49 $-1 $230 forward single #
loop $-1 $231 $232 $91 #
cone-surface $-1 65.625180079323655 -7.0484162760362601 8.0114810512554264 -0.80901700255871778 0 -0.5877852410284794 0.14694631025711985 0 -0.20225425063967944 1 I I -0.70710678118654746 0.70710678118654746 0.25 forward I I I I #
loop $-1 $-1 $233 $63 #
coedge $-1 $146 $146 $234 $235 reversed $92 $-1 #
face $-1 $236 $237 $50 $-1 $238 reversed single #
loop $-1 $-1 $239 $94 #
plane-surface $-1 -12.058408107533324 1.4057195660477966 117.16301977423537 0.80901700255871778 0 0.5877852410284794 0.5877852410284794 0 -0.80901700255871778 forward_v I I I I #
coedge $-1 $240 $241 $242 $243 reversed $95 $-1 #
face $-1 $-1 $244 $51 $-1 $245 forward single #
loop $-1 $246 $247 $97 #
cone-surface $-1 65.625180079323655 0.12126520880967817 8.0114810512554264 -0.80901700255871778 0 -0.5877852410284794 0.14694631025711985 0 -0.20225425063967944 1 I I -0.70710678118654746 0.70710678118654746 0.25 forward I I I I #
loop $-1 $-1 $248 $65 #
coedge $-1 $155 $155 $249 $250 reversed $98 $-1 #
face $-1 $-1 $251 $52 $-1 $252 forward single #
loop $-1 $253 $254 $100 #
cone-surface $-1 65.625180079323655 2.6901739232859221 8.0114810512554264 -0.80901700255871778 0 -0.5877852410284794 0.14694631025711985 0 -0.20225425063967944 1 I I -0.70710678118654746 0.70710678118654746 0.25 forward I I I I #
loop $-1 $-1 $255 $66 #
coedge $-1 $160 $160 $256 $257 reversed $101 $-1 #
face $-1 $258 $259 $53 $-1 $260 reversed single #
loop $-1 $-1 $261 $103 #
plane-surface $-1 -12.058408107533324 11.144309765369979 117.16301977423537 0.80901700255871778 0 0.5877852410284794 0.5877852410284794 0 -0.80901700255871778 forward_v I I I I #
coedge $-1 $262 $263 $264 $265 reversed $104 $-1 #
face $-1 $-1 $266 $54 $-1 $267 forward single #
loop $-1 $268 $269 $106 #
cone-surface $-1 65.625180079323655 9.8598554081318603 8.0114810512554264 -0.80901700255871778 0 -0.5877852410284794 0.14694631025711985 0 -0.20225425063967944 1 I I -0.70710678118654746 0.70710678118654746 0.25 forward I I I I #
loop $-1 $-1 $270 $68 #
coedge $-1 $169 $169 $271 $272 reversed $107 $-1 #
face $-1 $-1 $273 $55 $-1 $274 forward single #
loop $-1 $275 $276 $109 #
cone-surface $-1 65.625180079323655 12.428764122608104 8.0114810512554264 -0.80901700255871778 0 -0.5877852410284794 0.14694631025711985 0 -0.20225425063967944 1 I I -0.70710678118654746 0.70710678118654746 0.25 forward I I I I #
loop $-1 $-1 $277 $69 #
coedge $-1 $174 $174 $278 $279 reversed $110 $-1 #
face $-1 $280 $281 $42 $-1 $282 reversed single #
loop $-1 $-1 $283 $112 #
plane-surface $-1 0 -28.07115017885992 0 0 1 0 0 0 1 forward_v I I I I #
coedge $-1 $284 $285 $286 $287 forward $113 $-1 #
coedge $-1 $288 $115 $289 $290 forward $71 $-1 #
coedge $-1 $115 $288 $291 $292 forward $71 $-1 #
coedge $-1 $293 $294 $115 $182 reversed $295 $-1 #
edge $-1 $296 -28.07115017885992 $297 28.07115017885992 $181 $298 forward 7 unknown #
face $-1 $299 $300 $43 $-1 $301 reversed single #
loop $-1 $-1 $302 $116 #
plane-surface $-1 0 -13.123655352716565 -7.7373479533689888 0 -1 0 0 0 -1 forward_v I I I I #
coedge $-1 $303 $304 $305 $306 reversed $117 $-1 #
coedge $-1 $307 $119 $308 $309 forward $74 $-1 #
coedge $-1 $119 $307 $310 $311 reversed $74 $-1 #
coedge $-1 $312 $313 $119 $190 forward $314 $-1 #
edge $-1 $315 2.8249539698224435 $316 17.772448795965801 $189 $317 forward 7 unknown #
face $-1 $318 $319 $44 $-1 $320 reversed single #
loop $-1 $-1 $321 $120 #
plane-surface $-1 0 34.060667645664893 -7.1009861050198388 0 0 1 1 0 0 forward_v I I I I #
coedge $-1 $322 $323 $195 $324 forward $121 $-1 #
coedge $-1 $325 $123 $194 $324 reversed $77 $-1 #
coedge $-1 $123 $325 $326 $327 reversed $77 $-1 #
coedge $-1 $321 $328 $123 $198 reversed $192 $-1 #
edge $-1 $329 -68.68129520554217 $330 68.68129520554217 $197 $331 forward 7 unknown #
face $-1 $332 $333 $45 $-1 $334 reversed single #
loop $-1 $-1 $335 $124 #
plane-surface $-1 -170.76159462123692 16.092115245249975 93.075976063505834 0 -1 0 0.74314483375859142 0 -0.66913059716165679 forward_v I I I I #
coedge $-1 $336 $337 $338 $339 reversed $125 $-1 #
coedge $-1 $204 $127 $340 $341 reversed $80 $-1 #
coedge $-1 $127 $203 $336 $342 reversed $80 $-1 #
coedge $-1 $338 $343 $127 $206 forward $344 $-1 #
edge $-1 $345 16.699502105076292 $346 26.033561009278685 $205 $347 forward 7 unknown #
loop $-1 $-1 $212 $128 #
plane-surface $-1 -68.68129520554217 11.788682912133847 1.1624639140649009 -0.74314483375859142 0 0.66913059716165679 0.66913059716165679 0 0.74314483375859142 forward_v I I I I #
loop $-1 $-1 $348 $82 #
coedge $-1 $210 $210 $211 $349 reversed $129 $-1 #
coedge $-1 $211 $211 $210 $349 forward $131 $-1 #
coedge $-1 $212 $212 $132 $213 forward $207 $-1 #
edge $-1 $350 0 $350 6.2831853071796004 $212 $351 forward 7 unknown #
face $-1 $352 $353 $47 $-1 $354 forward single #
loop $-1 $-1 $355 $133 #
plane-surface $-1 99.070263050542991 -11.329930800163332 197.90272308731087 0 1 0 0.80901700255871778 0 0.5877852410284794 forward_v I I I I #
coedge $-1 $356 $357 $358 $359 reversed $134 $-1 #
coedge $-1 $219 $136 $360 $361 reversed $86 $-1 #
coedge $-1 $136 $218 $356 $362 reversed $86 $-1 #
coedge $-1 $358 $363 $136 $221 forward $353 $-1 #
edge $-1 $364 -19.146163680270675 $365 -15.154075476792016 $220 $366 forward 7 unknown #
loop $-1 $-1 $227 $137 #
plane-surface $-1 -12.058408107533324 -8.332870633274382 117.16301977423537 0.80901700255871778 0 0.5877852410284794 0.5877852410284794 0 -0.80901700255871778 forward_v I I I I #
loop $-1 $-1 $367 $88 #
coedge $-1 $225 $225 $226 $368 reversed $138 $-1 #
coedge $-1 $226 $226 $225 $368 forward $140 $-1 #
coedge $-1 $227 $227 $141 $228 forward $222 $-1 #
edge $-1 $369 0 $369 6.2831853071796004 $227 $370 forward 7 unknown #
loop $-1 $-1 $234 $142 #
plane-surface $-1 -12.058408107533324 -8.332870633274382 117.16301977423537 0.80901700255871778 0 0.5877852410284794 0.5877852410284794 0 -0.80901700255871778 forward_v I I I I #
loop $-1 $-1 $371 $91 #
coedge $-1 $232 $232 $233 $372 reversed $143 $-1 #
coedge $-1 $233 $233 $232 $372 forward $145 $-1 #
coedge $-1 $234 $234 $146 $235 forward $229 $-1 #
edge $-1 $373 0 $373 6.2831853071796004 $234 $374 forward 7 unknown #
face $-1 $375 $376 $50 $-1 $377 reversed single #
loop $-1 $-1 $378 $147 #
plane-surface $-1 99.070263050542991 -1.5913406008411535 197.90272308731087 0 1 0 0.80901700255871778 0 0.5877852410284794 forward_v I I I I #
coedge $-1 $379 $380 $381 $382 reversed $148 $-1 #
coedge $-1 $241 $150 $383 $384 reversed $95 $-1 #
coedge $-1 $150 $240 $379 $385 reversed $95 $-1 #
coedge $-1 $381 $386 $150 $243 forward $387 $-1 #
edge $-1 $388 -19.146163680270675 $389 -15.154075476792016 $242 $390 forward 7 unknown #
loop $-1 $-1 $249 $151 #
plane-surface $-1 -12.058408107533324 1.4057195660477966 117.16301977423537 0.80901700255871778 0 0.5877852410284794 0.5877852410284794 0 -0.80901700255871778 forward_v I I I I #
loop $-1 $-1 $391 $97 #
coedge $-1 $247 $247 $248 $392 reversed $152 $-1 #
coedge $-1 $248 $248 $247 $392 forward $154 $-1 #
coedge $-1 $249 $249 $155 $250 forward $244 $-1 #
edge $-1 $393 0 $393 6.2831853071796004 $249 $394 forward 7 unknown #
loop $-1 $-1 $256 $156 #
plane-surface $-1 -12.058408107533324 1.4057195660477966 117.16301977423537 0.80901700255871778 0 0.5877852410284794 0.5877852410284794 0 -0.80901700255871778 forward_v I I I I #
loop $-1 $-1 $395 $100 #
coedge $-1 $254 $254 $255 $396 reversed $157 $-1 #
coedge $-1 $255 $255 $254 $396 forward $159 $-1 #
coedge $-1 $256 $256 $160 $257 forward $251 $-1 #
edge $-1 $397 0 $397 6.2831853071796004 $256 $398 forward 7 unknown #
face $-1 $399 $400 $53 $-1 $401 reversed single #
loop $-1 $-1 $402 $161 #
plane-surface $-1 99.070263050542991 8.1472495984810287 197.90272308731087 0 1 0 0.80901700255871778 0 0.5877852410284794 forward_v I I I I #
coedge $-1 $403 $404 $405 $406 reversed $162 $-1 #
coedge $-1 $263 $164 $407 $408 reversed $104 $-1 #
coedge $-1 $164 $262 $403 $409 reversed $104 $-1 #
coedge $-1 $405 $410 $164 $265 forward $411 $-1 #
edge $-1 $412 -19.146163680270675 $413 -15.154075476792016 $264 $414 forward 7 unknown #
loop $-1 $-1 $271 $165 #
plane-surface $-1 -12.058408107533324 11.144309765369979 117.16301977423537 0.80901700255871778 0 0.5877852410284794 0.5877852410284794 0 -0.80901700255871778 forward_v I I I I #
loop $-1 $-1 $415 $106 #
coedge $-1 $269 $269 $270 $416 reversed $166 $-1 #
coedge $-1 $270 $270 $269 $416 forward $168 $-1 #
coedge $-1 $271 $271 $169 $272 forward $266 $-1 #
edge $-1 $417 0 $417 6.2831853071796004 $271 $418 forward 7 unknown #
loop $-1 $-1 $278 $170 #
plane-surface $-1 -12.058408107533324 11.144309765369979 117.16301977423537 0.80901700255871778 0 0.5877852410284794 0.5877852410284794 0 -0.80901700255871778 forward_v I I I I #
loop $-1 $-1 $419 $109 #
coedge $-1 $276 $276 $277 $420 reversed $171 $-1 #
coedge $-1 $277 $277 $276 $420 forward $173 $-1 #
coedge $-1 $278 $278 $174 $279 forward $273 $-1 #
edge $-1 $421 0 $421 6.2831853071796004 $278 $422 forward 7 unknown #
face $-1 $423 $424 $42 $-1 $425 reversed single #
loop $-1 $-1 $426 $175 #
plane-surface $-1 -68.68129520554217 0 0 1 0 0 0 0 -1 forward_v I I I I #
coedge $-1 $427 $291 $428 $429 forward $176 $-1 #
coedge $-1 $430 $178 $427 $431 forward $113 $-1 #
coedge $-1 $178 $430 $432 $433 forward $113 $-1 #
coedge $-1 $294 $293 $178 $287 reversed $295 $-1 #
edge $-1 $434 -28.07115017885992 $435 28.07115017885992 $286 $436 forward 7 unknown #
coedge $-1 $180 $179 $437 $438 forward $71 $-1 #
coedge $-1 $439 $440 $179 $290 reversed $424 $-1 #
edge $-1 $297 -68.68129520554217 $441 68.68129520554217 $289 $442 forward 7 unknown #
coedge $-1 $283 $443 $180 $292 reversed $176 $-1 #
edge $-1 $444 -68.68129520554217 $296 68.68129520554217 $291 $445 forward 7 unknown #
coedge $-1 $286 $181 $443 $446 forward $295 $-1 #
coedge $-1 $181 $286 $439 $447 reversed $295 $-1 #
loop $-1 $-1 $293 $423 #
vertex $-1 $182 $448 #
vertex $-1 $182 $449 #
straight-curve $-1 68.68129520554217 0 11.528986805231643 0 1 0 I I #
face $-1 $450 $451 $43 $-1 $452 reversed single #
loop $-1 $-1 $453 $183 #
plane-surface $-1 -68.68129520554217 0 0 1 0 0 0 0 -1 forward_v I I I I #
coedge $-1 $454 $308 $313 $455 reversed $184 $-1 #
coedge $-1 $456 $186 $457 $458 reversed $117 $-1 #
coedge $-1 $186 $456 $454 $459 forward $117 $-1 #
coedge $-1 $313 $312 $186 $306 forward $314 $-1 #
edge $-1 $460 -17.772448795965801 $461 -2.8249539698224435 $305 $462 forward 7 unknown #
coedge $-1 $188 $187 $453 $463 reversed $74 $-1 #
coedge $-1 $302 $464 $187 $309 reversed $184 $-1 #
edge $-1 $315 -68.68129520554217 $465 68.68129520554217 $308 $466 forward 7 unknown #
coedge $-1 $467 $468 $188 $311 forward $451 $-1 #
edge $-1 $316 -68.68129520554217 $469 68.68129520554217 $310 $470 forward 7 unknown #
coedge $-1 $305 $189 $468 $471 forward $314 $-1 #
coedge $-1 $189 $305 $302 $455 forward $314 $-1 #
loop $-1 $-1 $189 $450 #
vertex $-1 $190 $472 #
vertex $-1 $471 $473 #
straight-curve $-1 68.68129520554217 -10.298701382894121 -4.4457091015063348 0 -1 0 I I #
face $-1 $474 $475 $44 $-1 $476 reversed single #
loop $-1 $-1 $477 $191 #
plane-surface $-1 0 40.050185112469862 -9.3149864551257409 0 -1 0 0 0 -1 forward_v I I I I #
coedge $-1 $478 $197 $479 $480 forward $192 $-1 #
coedge $-1 $481 $194 $328 $482 reversed $121 $-1 #
coedge $-1 $194 $481 $483 $484 reversed $121 $-1 #
edge $-1 $485 -11.528986805231643 $330 -7.1009861050198388 $194 $486 forward 7 unknown #
coedge $-1 $196 $195 $487 $488 reversed $77 $-1 #
coedge $-1 $489 $479 $196 $327 forward $475 $-1 #
edge $-1 $329 7.1009861050198388 $490 11.528986805231643 $326 $491 forward 7 unknown #
coedge $-1 $197 $478 $322 $482 forward $192 $-1 #
vertex $-1 $327 $492 #
vertex $-1 $482 $493 #
straight-curve $-1 0 28.07115017885992 -7.1009861050198388 -1 0 0 I I #
face $-1 $-1 $344 $45 $-1 $494 forward single #
loop $-1 $-1 $495 $199 #
plane-surface $-1 -68.68129520554217 0 0 1 0 0 0 0 -1 forward_v I I I I #
coedge $-1 $496 $497 $498 $499 reversed $200 $-1 #
coedge $-1 $500 $202 $204 $342 forward $125 $-1 #
coedge $-1 $202 $500 $496 $501 forward $125 $-1 #
coedge $-1 $498 $205 $202 $339 forward $344 $-1 #
edge $-1 $346 1.5909091229507961 $502 10.197773789183051 $338 $503 forward 7 unknown #
coedge $-1 $504 $505 $203 $341 forward $333 $-1 #
edge $-1 $506 -45.375524117688016 $345 -35.009001226521278 $340 $507 forward 7 unknown #
edge $-1 $346 -13.949532339121768 $506 0 $204 $508 forward 7 unknown #
coedge $-1 $205 $498 $504 $509 forward $344 $-1 #
loop $-1 $-1 $498 $332 #
vertex $-1 $341 $510 #
vertex $-1 $206 $511 #
straight-curve $-1 -85.380797310618462 7.4852505790177197 11.528986805231646 1 0 0 I I #
coedge $-1 $348 $348 $-1 $512 reversed $209 $-1 #
edge $-1 $513 0 $513 6.2831853071796004 $210 $514 forward 7 unknown #
vertex $-1 $213 $515 #
ellipse-curve $-1 -64.014265753440981 11.788682912133847 6.3457253596482701 -0.74314483375859142 0 0.66913059716165679 0.66913059716165679 0 0.74314483375859142 1 I I #
face $-1 $-1 $516 $47 $-1 $517 reversed single #
loop $-1 $-1 $220 $214 #
plane-surface $-1 0 0 11.528986805231643 0 0 1 1 0 0 forward_v I I I I #
coedge $-1 $518 $519 $520 $521 reversed $215 $-1 #
coedge $-1 $522 $217 $219 $362 forward $134 $-1 #
coedge $-1 $217 $522 $518 $523 forward $134 $-1 #
coedge $-1 $520 $220 $217 $359 forward $353 $-1 #
edge $-1 $365 1.169375149748241 $524 7.1634954835261411 $358 $525 forward 7 unknown #
coedge $-1 $526 $527 $218 $361 forward $516 $-1 #
edge $-1 $528 -92.917012927496387 $364 -87.422374738423798 $360 $529 forward 7 unknown #
edge $-1 $365 130.5708441663275 $528 137.36259041108434 $219 $530 forward 7 unknown #
coedge $-1 $220 $520 $526 $531 forward $353 $-1 #
vertex $-1 $221 $532 #
vertex $-1 $221 $533 #
straight-curve $-1 49.535131525271495 -5.335810466385432 11.528986805231639 -1 0 0 I I #
coedge $-1 $367 $367 $-1 $534 reversed $224 $-1 #
edge $-1 $535 0 $535 6.2831853071796004 $225 $536 forward 7 unknown #
vertex $-1 $228 $537 #
ellipse-curve $-1 66.685251103802841 -9.617324990512504 8.7816677106953591 0.80901700255871778 0 0.5877852410284794 0.2938926205142397 0 -0.40450850127935889 1 I I #
coedge $-1 $371 $371 $-1 $538 reversed $231 $-1 #
edge $-1 $539 0 $539 6.2831853071796004 $232 $540 forward 7 unknown #
vertex $-1 $235 $541 #
ellipse-curve $-1 66.685251103802841 -7.0484162760362601 8.7816677106953591 0.80901700255871778 0 0.5877852410284794 0.2938926205142397 0 -0.40450850127935889 1 I I #
face $-1 $-1 $387 $50 $-1 $542 forward single #
loop $-1 $-1 $543 $236 #
plane-surface $-1 68.68129520554217 0 0 -1 0 0 0 0 1 forward_v I I I I #
coedge $-1 $544 $545 $546 $547 reversed $237 $-1 #
coedge $-1 $548 $239 $241 $385 forward $148 $-1 #
coedge $-1 $239 $548 $544 $549 forward $148 $-1 #
coedge $-1 $546 $242 $239 $382 forward $387 $-1 #
edge $-1 $389 -3.6999199499128483 $550 2.2942003838650518 $381 $551 forward 7 unknown #
coedge $-1 $552 $553 $240 $384 forward $376 $-1 #
edge $-1 $554 -92.917012927496387 $388 -87.422374738423798 $383 $555 forward 7 unknown #
edge $-1 $389 130.5708441663275 $554 137.36259041108434 $241 $556 forward 7 unknown #
coedge $-1 $242 $546 $552 $557 forward $387 $-1 #
loop $-1 $-1 $546 $375 #
vertex $-1 $384 $558 #
vertex $-1 $243 $559 #
straight-curve $-1 49.535131525271495 4.4027797329367466 11.528986805231639 -1 0 0 I I #
coedge $-1 $391 $391 $-1 $560 reversed $246 $-1 #
edge $-1 $561 0 $561 6.2831853071796004 $247 $562 forward 7 unknown #
vertex $-1 $250 $563 #
ellipse-curve $-1 66.685251103802841 0.12126520880967817 8.7816677106953591 0.80901700255871778 0 0.5877852410284794 0.2938926205142397 0 -0.40450850127935889 1 I I #
coedge $-1 $395 $395 $-1 $564 reversed $253 $-1 #
edge $-1 $565 0 $565 6.2831853071796004 $254 $566 forward 7 unknown #
vertex $-1 $257 $567 #
ellipse-curve $-1 66.685251103802841 2.6901739232859221 8.7816677106953591 0.80901700255871778 0 0.5877852410284794 0.2938926205142397 0 -0.40450850127935889 1 I I #
face $-1 $-1 $411 $53 $-1 $568 forward single #
loop $-1 $-1 $569 $258 #
plane-surface $-1 68.68129520554217 0 0 -1 0 0 0 0 1 forward_v I I I I #
coedge $-1 $570 $571 $572 $573 reversed $259 $-1 #
coedge $-1 $574 $261 $263 $409 forward $162 $-1 #
coedge $-1 $261 $574 $570 $575 forward $162 $-1 #
coedge $-1 $572 $264 $261 $406 forward $411 $-1 #
edge $-1 $413 -8.5692150495739394 $576 -2.5750947157960393 $405 $577 forward 7 unknown #
coedge $-1 $578 $579 $262 $408 forward $400 $-1 #
edge $-1 $580 -92.917012927496387 $412 -87.422374738423798 $407 $581 forward 7 unknown #
edge $-1 $413 130.5708441663275 $580 137.36259041108434 $263 $582 forward 7 unknown #
coedge $-1 $264 $572 $578 $583 forward $411 $-1 #
loop $-1 $-1 $572 $399 #
vertex $-1 $408 $584 #
vertex $-1 $265 $585 #
straight-curve $-1 49.535131525271495 14.141369932258929 11.528986805231639 -1 0 0 I I #
coedge $-1 $415 $415 $-1 $586 reversed $268 $-1 #
edge $-1 $587 0 $587 6.2831853071796004 $269 $588 forward 7 unknown #
vertex $-1 $272 $589 #
ellipse-curve $-1 66.685251103802841 9.8598554081318603 8.7816677106953591 0.80901700255871778 0 0.5877852410284794 0.2938926205142397 0 -0.40450850127935889 1 I I #
coedge $-1 $419 $419 $-1 $590 reversed $275 $-1 #
edge $-1 $591 0 $591 6.2831853071796004 $276 $592 forward 7 unknown #
vertex $-1 $279 $593 #
ellipse-curve $-1 66.685251103802841 12.428764122608104 8.7816677106953591 0.80901700255871778 0 0.5877852410284794 0.2938926205142397 0 -0.40450850127935889 1 I I #
face $-1 $-1 $295 $42 $-1 $594 reversed single #
loop $-1 $-1 $440 $280 #
plane-surface $-1 0 28.07115017885992 0 0 -1 0 0 0 -1 forward_v I I I I #
coedge $-1 $595 $437 $440 $596 forward $281 $-1 #
coedge $-1 $443 $283 $284 $431 reversed $176 $-1 #
coedge $-1 $437 $595 $283 $429 reversed $281 $-1 #
edge $-1 $444 -11.528986805231643 $597 11.528986805231643 $428 $598 forward 7 unknown #
coedge $-1 $285 $284 $595 $599 forward $113 $-1 #
edge $-1 $435 -68.68129520554217 $597 68.68129520554217 $427 $600 forward 7 unknown #
coedge $-1 $440 $439 $285 $433 reversed $424 $-1 #
edge $-1 $601 -68.68129520554217 $434 68.68129520554217 $432 $602 forward 7 unknown #
vertex $-1 $287 $603 #
vertex $-1 $446 $604 #
straight-curve $-1 68.68129520554217 0 -11.528986805231643 0 -1 0 I I #
coedge $-1 $426 $428 $288 $438 reversed $281 $-1 #
edge $-1 $441 -28.07115017885992 $444 28.07115017885992 $437 $605 forward 7 unknown #
coedge $-1 $432 $289 $294 $447 forward $424 $-1 #
coedge $-1 $289 $432 $426 $596 reversed $424 $-1 #
vertex $-1 $290 $606 #
straight-curve $-1 0 28.07115017885992 11.528986805231643 -1 0 0 I I #
coedge $-1 $291 $427 $293 $446 reversed $176 $-1 #
vertex $-1 $438 $607 #
straight-curve $-1 0 -28.07115017885992 11.528986805231643 1 0 0 I I #
edge $-1 $296 -11.528986805231643 $435 11.528986805231643 $293 $608 forward 7 unknown #
edge $-1 $297 -11.528986805231643 $434 11.528986805231643 $294 $609 forward 7 unknown #
point $-1 68.68129520554217 -28.07115017885992 11.528986805231643 #
point $-1 68.68129520554217 28.07115017885992 11.528986805231643 #
face $-1 $-1 $314 $43 $-1 $610 reversed single #
loop $-1 $-1 $310 $299 #
plane-surface $-1 0 -28.07115017885992 0 0 1 0 0 0 1 forward_v I I I I #
coedge $-1 $611 $612 $307 $463 forward $300 $-1 #
coedge $-1 $464 $302 $304 $459 reversed $184 $-1 #
edge $-1 $461 -7.1603128285471485 $315 -0.57703512482184038 $313 $613 forward 7 unknown #
coedge $-1 $304 $303 $614 $615 reversed $117 $-1 #
coedge $-1 $468 $467 $303 $458 forward $451 $-1 #
edge $-1 $616 -68.68129520554217 $460 68.68129520554217 $457 $617 forward 7 unknown #
edge $-1 $618 -68.68129520554217 $461 68.68129520554217 $454 $619 forward 7 unknown #
vertex $-1 $458 $620 #
vertex $-1 $306 $621 #
straight-curve $-1 68.68129520554217 -10.298701382894121 -11.028986805231643 0 1 0 I I #
edge $-1 $469 -17.772448795965801 $465 -2.8249539698224435 $453 $622 forward 7 unknown #
coedge $-1 $308 $454 $611 $623 reversed $184 $-1 #
vertex $-1 $463 $624 #
straight-curve $-1 0 -13.123655352716565 -4.4457091015063348 -1 0 0 I I #
coedge $-1 $457 $310 $612 $625 forward $451 $-1 #
coedge $-1 $310 $457 $312 $471 reversed $451 $-1 #
vertex $-1 $625 $626 #
straight-curve $-1 0 -28.07115017885992 -4.4457091015063348 -1 0 0 I I #
edge $-1 $316 4.4457091015063348 $460 11.028986805231643 $312 $627 forward 7 unknown #
point $-1 68.68129520554217 -13.123655352716565 -4.4457091015063348 #
point $-1 68.68129520554217 -28.07115017885992 -4.4457091015063348 #
face $-1 $-1 $628 $44 $-1 $629 reversed single #
loop $-1 $-1 $326 $318 #
plane-surface $-1 68.68129520554217 0 0 -1 0 0 0 0 1 forward_v I I I I #
coedge $-1 $630 $631 $632 $633 forward $319 $-1 #
coedge $-1 $328 $321 $631 $634 forward $192 $-1 #
coedge $-1 $326 $632 $321 $480 reversed $475 $-1 #
edge $-1 $329 -5.9895174668049727 $635 5.9895174668049691 $479 $636 forward 7 unknown #
coedge $-1 $323 $322 $637 $638 forward $121 $-1 #
edge $-1 $639 -5.9895174668049691 $330 5.9895174668049727 $322 $640 forward 7 unknown #
coedge $-1 $641 $487 $323 $484 forward $628 $-1 #
edge $-1 $485 -5.9895174668049727 $642 5.9895174668049691 $323 $643 forward 7 unknown #
vertex $-1 $484 $644 #
straight-curve $-1 -68.68129520554217 28.07115017885992 0 0 0 1 I I #
coedge $-1 $483 $645 $325 $488 forward $628 $-1 #
edge $-1 $490 -68.68129520554217 $485 68.68129520554217 $487 $646 forward 7 unknown #
coedge $-1 $632 $326 $645 $647 reversed $475 $-1 #
vertex $-1 $327 $648 #
straight-curve $-1 68.68129520554217 28.07115017885992 0 0 0 -1 I I #
point $-1 68.68129520554217 28.07115017885992 -7.1009861050198388 #
point $-1 -68.68129520554217 28.07115017885992 -7.1009861050198388 #
plane-surface $-1 0 0 11.528986805231643 0 0 1 1 0 0 forward_v I I I I #
coedge $-1 $505 $504 $497 $649 forward $333 $-1 #
coedge $-1 $497 $335 $337 $501 reversed $200 $-1 #
coedge $-1 $335 $496 $495 $649 reversed $200 $-1 #
coedge $-1 $343 $338 $335 $499 forward $344 $-1 #
edge $-1 $502 -26.033561009278685 $650 -16.699502105076292 $498 $651 forward 7 unknown #
coedge $-1 $337 $336 $505 $652 reversed $125 $-1 #
edge $-1 $653 0 $502 13.949532339121768 $496 $654 forward 7 unknown #
vertex $-1 $339 $655 #
straight-curve $-1 -59.34723630133977 5.8943414560669236 11.528986805231643 0 1 0 I I #
coedge $-1 $495 $340 $343 $509 reversed $333 $-1 #
coedge $-1 $340 $495 $500 $652 forward $333 $-1 #
vertex $-1 $341 $656 #
straight-curve $-1 -68.68129520554217 7.4852505790177197 46.537988031752917 0 0 1 I I #
straight-curve $-1 -68.68129520554217 7.4852505790177197 1.1624639140649009 -0.66913059716165679 0 -0.74314483375859142 I I #
edge $-1 $650 -16.092115245249975 $345 -7.4852505790177197 $504 $657 forward 7 unknown #
point $-1 -68.68129520554217 7.4852505790177197 11.528986805231643 #
point $-1 -59.347236301339777 7.4852505790177197 11.528986805231643 #
edge $-1 $658 1 $658 0 $348 $-1 forward 7 unknown #
vertex $-1 $349 $659 #
ellipse-curve $-1 -61.650907785160456 11.788682912133847 4.2177483398470192 -0.74314483375859142 0 0.66913059716165679 0.66913059716165679 0 0.74314483375859142 1 I I #
point $-1 -63.345135156279319 11.788682912133847 7.0888701934068639 #
loop $-1 $-1 $360 $352 #
plane-surface $-1 68.68129520554217 0 0 -1 0 0 0 0 1 forward_v I I I I #
coedge $-1 $519 $355 $357 $523 reversed $215 $-1 #
coedge $-1 $355 $518 $660 $661 reversed $215 $-1 #
coedge $-1 $363 $358 $355 $521 forward $353 $-1 #
edge $-1 $524 15.154075476792016 $662 19.146163680270675 $520 $663 forward 7 unknown #
coedge $-1 $357 $356 $527 $664 reversed $134 $-1 #
edge $-1 $665 -137.36259041108434 $524 -130.5708441663275 $518 $666 forward 7 unknown #
vertex $-1 $359 $667 #
straight-curve $-1 64.689207002063512 -4.166435316637191 11.528986805231639 0 -1 0 I I #
coedge $-1 $660 $360 $363 $531 reversed $516 $-1 #
coedge $-1 $360 $660 $522 $664 forward $516 $-1 #
vertex $-1 $361 $668 #
straight-curve $-1 68.68129520554217 -5.335810466385432 98.951361543655437 0 0 1 I I #
straight-curve $-1 -12.058408107533324 -5.335810466385432 117.16301977423537 0.5877852410284794 0 -0.80901700255871778 I I #
edge $-1 $662 -11.329930800163332 $364 -5.335810466385432 $526 $669 forward 7 unknown #
point $-1 68.68129520554217 -5.335810466385432 11.528986805231643 #
point $-1 64.689207002063512 -5.335810466385432 11.528986805231654 #
edge $-1 $670 1 $670 0 $367 $-1 forward 7 unknown #
vertex $-1 $368 $671 #
ellipse-curve $-1 65.827434329963339 -9.617324990512504 8.1584273615125458 0.80901700255871778 0 0.5877852410284794 0.2938926205142397 0 -0.40450850127935889 1 I I #
point $-1 66.979143724317069 -9.617324990512504 8.377159209415991 #
edge $-1 $672 1 $672 0 $371 $-1 forward 7 unknown #
vertex $-1 $372 $673 #
ellipse-curve $-1 65.827434329963339 -7.0484162760362601 8.1584273615125458 0.80901700255871778 0 0.5877852410284794 0.2938926205142397 0 -0.40450850127935889 1 I I #
point $-1 66.979143724317069 -7.0484162760362601 8.377159209415991 #
plane-surface $-1 0 0 11.528986805231643 0 0 1 1 0 0 forward_v I I I I #
coedge $-1 $553 $552 $545 $674 forward $376 $-1 #
coedge $-1 $545 $378 $380 $549 reversed $237 $-1 #
coedge $-1 $378 $544 $543 $674 reversed $237 $-1 #
coedge $-1 $386 $381 $378 $547 forward $387 $-1 #
edge $-1 $550 15.154075476792016 $675 19.146163680270675 $546 $676 forward 7 unknown #
coedge $-1 $380 $379 $553 $677 reversed $148 $-1 #
edge $-1 $678 -137.36259041108434 $550 -130.5708441663275 $544 $679 forward 7 unknown #
vertex $-1 $382 $680 #
straight-curve $-1 64.689207002063512 0.70285978302389829 11.528986805231639 0 -1 0 I I #
coedge $-1 $543 $383 $386 $557 reversed $376 $-1 #
coedge $-1 $383 $543 $548 $677 forward $376 $-1 #
vertex $-1 $384 $681 #
straight-curve $-1 68.68129520554217 4.4027797329367466 98.951361543655437 0 0 1 I I #
straight-curve $-1 -12.058408107533324 4.4027797329367466 117.16301977423537 0.5877852410284794 0 -0.80901700255871778 I I #
edge $-1 $675 -1.5913406008411535 $388 4.4027797329367466 $552 $682 forward 7 unknown #
point $-1 68.68129520554217 4.4027797329367466 11.528986805231643 #
point $-1 64.689207002063512 4.4027797329367466 11.528986805231654 #
edge $-1 $683 1 $683 0 $391 $-1 forward 7 unknown #
vertex $-1 $392 $684 #
ellipse-curve $-1 65.827434329963339 0.12126520880967817 8.1584273615125458 0.80901700255871778 0 0.5877852410284794 0.2938926205142397 0 -0.40450850127935889 1 I I #
point $-1 66.979143724317069 0.12126520880967817 8.377159209415991 #
edge $-1 $685 1 $685 0 $395 $-1 forward 7 unknown #
vertex $-1 $396 $686 #
ellipse-curve $-1 65.827434329963339 2.6901739232859221 8.1584273615125458 0.80901700255871778 0 0.5877852410284794 0.2938926205142397 0 -0.40450850127935889 1 I I #
point $-1 66.979143724317069 2.6901739232859221 8.377159209415991 #
plane-surface $-1 0 0 11.528986805231643 0 0 1 1 0 0 forward_v I I I I #
coedge $-1 $579 $578 $571 $687 forward $400 $-1 #
coedge $-1 $571 $402 $404 $575 reversed $259 $-1 #
coedge $-1 $402 $570 $569 $687 reversed $259 $-1 #
coedge $-1 $410 $405 $402 $573 forward $411 $-1 #
edge $-1 $576 15.154075476792016 $688 19.146163680270675 $572 $689 forward 7 unknown #
coedge $-1 $404 $403 $579 $690 reversed $162 $-1 #
edge $-1 $691 -137.36259041108434 $576 -130.5708441663275 $570 $692 forward 7 unknown #
vertex $-1 $406 $693 #
straight-curve $-1 64.689207002063512 5.5721548826849894 11.528986805231639 0 -1 0 I I #
coedge $-1 $569 $407 $410 $583 reversed $400 $-1 #
coedge $-1 $407 $569 $574 $690 forward $400 $-1 #
vertex $-1 $408 $694 #
straight-curve $-1 68.68129520554217 14.141369932258929 98.951361543655437 0 0 1 I I #
straight-curve $-1 -12.058408107533324 14.141369932258929 117.16301977423537 0.5877852410284794 0 -0.80901700255871778 I I #
edge $-1 $688 8.1472495984810287 $412 14.141369932258929 $578 $695 forward 7 unknown #
point $-1 68.68129520554217 14.141369932258929 11.528986805231643 #
point $-1 64.689207002063512 14.141369932258929 11.528986805231654 #
edge $-1 $696 1 $696 0 $415 $-1 forward 7 unknown #
vertex $-1 $416 $697 #
ellipse-curve $-1 65.827434329963339 9.8598554081318603 8.1584273615125458 0.80901700255871778 0 0.5877852410284794 0.2938926205142397 0 -0.40450850127935889 1 I I #
point $-1 66.979143724317069 9.8598554081318603 8.377159209415991 #
edge $-1 $698 1 $698 0 $419 $-1 forward 7 unknown #
vertex $-1 $420 $699 #
ellipse-curve $-1 65.827434329963339 12.428764122608104 8.1584273615125458 0.80901700255871778 0 0.5877852410284794 0.2938926205142397 0 -0.40450850127935889 1 I I #
point $-1 66.979143724317069 12.428764122608104 8.377159209415991 #
plane-surface $-1 68.68129520554217 0 0 -1 0 0 0 0 1 forward_v I I I I #
coedge $-1 $428 $426 $430 $599 reversed $281 $-1 #
edge $-1 $441 -11.528986805231643 $601 11.528986805231643 $440 $700 forward 7 unknown #
vertex $-1 $599 $701 #
straight-curve $-1 -68.68129520554217 -28.07115017885992 0 0 0 -1 I I #
edge $-1 $597 -28.07115017885992 $601 28.07115017885992 $595 $702 forward 7 unknown #
straight-curve $-1 0 -28.07115017885992 -11.528986805231643 -1 0 0 I I #
vertex $-1 $433 $703 #
straight-curve $-1 0 28.07115017885992 -11.528986805231643 1 0 0 I I #
point $-1 68.68129520554217 28.07115017885992 -11.528986805231643 #
point $-1 68.68129520554217 -28.07115017885992 -11.528986805231643 #
straight-curve $-1 -68.68129520554217 0 11.528986805231643 0 -1 0 I I #
point $-1 -68.68129520554217 28.07115017885992 11.528986805231643 #
point $-1 -68.68129520554217 -28.07115017885992 11.528986805231643 #
straight-curve $-1 68.68129520554217 -28.07115017885992 0 0 0 -1 I I #
straight-curve $-1 68.68129520554217 28.07115017885992 0 0 0 -1 I I #
plane-surface $-1 68.68129520554217 0 0 -1 0 0 0 0 1 forward_v I I I I #
coedge $-1 $614 $453 $464 $623 forward $300 $-1 #
coedge $-1 $453 $614 $467 $625 reversed $300 $-1 #
straight-curve $-1 68.68129520554217 -13.123655352716565 -3.8686739766844944 0 0 1 I I #
coedge $-1 $612 $611 $456 $615 forward $300 $-1 #
edge $-1 $618 2.8249539698224435 $616 17.772448795965801 $614 $704 forward 7 unknown #
vertex $-1 $458 $705 #
straight-curve $-1 0 -28.07115017885992 -11.028986805231643 1 0 0 I I #
vertex $-1 $615 $706 #
straight-curve $-1 0 -13.123655352716565 -11.028986805231643 1 0 0 I I #
point $-1 68.68129520554217 -28.07115017885992 -11.028986805231643 #
point $-1 68.68129520554217 -13.123655352716565 -11.028986805231643 #
straight-curve $-1 -68.68129520554217 -10.298701382894121 -4.4457091015063348 0 1 0 I I #
edge $-1 $465 0.57703512482184038 $618 7.1603128285471485 $611 $707 forward 7 unknown #
point $-1 -68.68129520554217 -13.123655352716565 -4.4457091015063348 #
edge $-1 $469 4.4457091015063348 $616 11.028986805231643 $612 $708 forward 7 unknown #
point $-1 -68.68129520554217 -28.07115017885992 -4.4457091015063348 #
straight-curve $-1 68.68129520554217 -28.07115017885992 0 0 0 -1 I I #
loop $-1 $-1 $487 $474 #
plane-surface $-1 0 0 -11.528986805231643 0 0 1 1 0 0 forward_v I I I I #
coedge $-1 $637 $477 $641 $709 reversed $319 $-1 #
coedge $-1 $477 $637 $478 $634 reversed $319 $-1 #
coedge $-1 $479 $489 $477 $633 reversed $475 $-1 #
edge $-1 $635 -2.214000350105902 $710 2.214000350105902 $632 $711 forward 7 unknown #
edge $-1 $635 -68.68129520554217 $639 68.68129520554217 $631 $712 forward 7 unknown #
vertex $-1 $480 $713 #
straight-curve $-1 68.68129520554217 34.060667645664893 -7.1009861050198388 0 1 0 I I #
coedge $-1 $631 $630 $481 $638 reversed $319 $-1 #
edge $-1 $639 -2.214000350105902 $642 2.214000350105902 $637 $714 forward 7 unknown #
vertex $-1 $634 $715 #
straight-curve $-1 -68.68129520554217 34.060667645664893 -7.1009861050198388 0 -1 0 I I #
coedge $-1 $645 $483 $630 $709 forward $628 $-1 #
vertex $-1 $709 $716 #
straight-curve $-1 -68.68129520554217 34.060667645664893 -11.528986805231643 0 1 0 I I #
point $-1 -68.68129520554217 28.07115017885992 -11.528986805231643 #
coedge $-1 $487 $641 $489 $647 forward $628 $-1 #
straight-curve $-1 0 28.07115017885992 -11.528986805231643 -1 0 0 I I #
edge $-1 $710 -40.050185112469862 $490 -28.07115017885992 $489 $717 forward 7 unknown #
point $-1 68.68129520554217 28.07115017885992 -11.528986805231643 #
edge $-1 $650 35.009001226521278 $653 45.375524117688016 $495 $718 forward 7 unknown #
vertex $-1 $509 $719 #
straight-curve $-1 -85.380797310618462 16.092115245249975 11.528986805231646 -1 0 0 I I #
edge $-1 $653 -10.197773789183051 $506 -1.5909091229507961 $505 $720 forward 7 unknown #
vertex $-1 $652 $721 #
straight-curve $-1 -68.68129520554217 16.092115245249975 1.1624639140649009 0.66913059716165679 0 0.74314483375859142 I I #
point $-1 -59.347236301339777 16.092115245249975 11.528986805231643 #
point $-1 -68.68129520554217 7.4852505790177197 1.1624639140649009 #
straight-curve $-1 -68.68129520554217 0 11.528986805231643 0 -1 0 I I #
vertex $-1 $512 $722 #
point $-1 -60.981777187998802 11.788682912133847 4.9608931736056112 #
coedge $-1 $527 $526 $519 $661 forward $516 $-1 #
edge $-1 $662 87.422374738423798 $665 92.917012927496387 $660 $723 forward 7 unknown #
vertex $-1 $531 $724 #
straight-curve $-1 49.535131525271495 -11.329930800163332 11.528986805231639 1 0 0 I I #
edge $-1 $665 -7.1634954835261411 $528 -1.169375149748241 $527 $725 forward 7 unknown #
vertex $-1 $664 $726 #
straight-curve $-1 -12.058408107533324 -11.329930800163332 117.16301977423537 -0.5877852410284794 0 0.80901700255871778 I I #
point $-1 64.689207002063512 -11.329930800163332 11.528986805231654 #
point $-1 68.681295205542185 -5.335810466385432 6.0343486161590505 #
straight-curve $-1 68.68129520554217 0 11.528986805231643 0 1 0 I I #
vertex $-1 $534 $727 #
point $-1 66.121326950477581 -9.617324990512504 7.7539188602331874 #
vertex $-1 $538 $728 #
point $-1 66.121326950477581 -7.0484162760362601 7.7539188602331874 #
edge $-1 $675 87.422374738423798 $678 92.917012927496387 $543 $729 forward 7 unknown #
vertex $-1 $557 $730 #
straight-curve $-1 49.535131525271495 -1.5913406008411535 11.528986805231639 1 0 0 I I #
edge $-1 $678 -2.2942003838650518 $554 3.6999199499128483 $553 $731 forward 7 unknown #
vertex $-1 $677 $732 #
straight-curve $-1 -12.058408107533324 -1.5913406008411535 117.16301977423537 -0.5877852410284794 0 0.80901700255871778 I I #
point $-1 64.689207002063512 -1.5913406008411535 11.528986805231654 #
point $-1 68.681295205542185 4.4027797329367466 6.0343486161590505 #
straight-curve $-1 68.68129520554217 0 11.528986805231643 0 1 0 I I #
vertex $-1 $560 $733 #
point $-1 66.121326950477581 0.12126520880967817 7.7539188602331874 #
vertex $-1 $564 $734 #
point $-1 66.121326950477581 2.6901739232859221 7.7539188602331874 #
edge $-1 $688 87.422374738423798 $691 92.917012927496387 $569 $735 forward 7 unknown #
vertex $-1 $583 $736 #
straight-curve $-1 49.535131525271495 8.1472495984810287 11.528986805231639 1 0 0 I I #
edge $-1 $691 2.5750947157960393 $580 8.5692150495739394 $579 $737 forward 7 unknown #
vertex $-1 $690 $738 #
straight-curve $-1 -12.058408107533324 8.1472495984810287 117.16301977423537 -0.5877852410284794 0 0.80901700255871778 I I #
point $-1 64.689207002063512 8.1472495984810287 11.528986805231654 #
point $-1 68.681295205542185 14.141369932258929 6.0343486161590505 #
straight-curve $-1 68.68129520554217 0 11.528986805231643 0 1 0 I I #
vertex $-1 $586 $739 #
point $-1 66.121326950477581 9.8598554081318603 7.7539188602331874 #
vertex $-1 $590 $740 #
point $-1 66.121326950477581 12.428764122608104 7.7539188602331874 #
straight-curve $-1 -68.68129520554217 28.07115017885992 0 0 0 -1 I I #
point $-1 -68.68129520554217 -28.07115017885992 -11.528986805231643 #
straight-curve $-1 -68.68129520554217 0 -11.528986805231643 0 1 0 I I #
point $-1 -68.68129520554217 28.07115017885992 -11.528986805231643 #
straight-curve $-1 -68.68129520554217 -10.298701382894121 -11.028986805231643 0 -1 0 I I #
point $-1 -68.68129520554217 -28.07115017885992 -11.028986805231643 #
point $-1 -68.68129520554217 -13.123655352716565 -11.028986805231643 #
straight-curve $-1 -68.68129520554217 -13.123655352716565 -3.8686739766844944 0 0 -1 I I #
straight-curve $-1 -68.68129520554217 -28.07115017885992 0 0 0 -1 I I #
edge $-1 $642 -68.68129520554217 $710 68.68129520554217 $630 $741 forward 7 unknown #
vertex $-1 $647 $742 #
straight-curve $-1 68.68129520554217 40.050185112469862 -9.3149864551257409 0 0 -1 I I #
straight-curve $-1 0 40.050185112469862 -7.1009861050198388 -1 0 0 I I #
point $-1 68.68129520554217 40.050185112469862 -7.1009861050198388 #
straight-curve $-1 -68.68129520554217 40.050185112469862 -9.3149864551257409 0 0 -1 I I #
point $-1 -68.68129520554217 40.050185112469862 -7.1009861050198388 #
point $-1 -68.68129520554217 40.050185112469862 -11.528986805231643 #
straight-curve $-1 68.68129520554217 0 -11.528986805231643 0 -1 0 I I #
straight-curve $-1 -68.68129520554217 16.092115245249975 46.537988031752917 0 0 -1 I I #
point $-1 -68.68129520554217 16.092115245249975 11.528986805231643 #
straight-curve $-1 -68.68129520554217 5.8943414560669236 1.1624639140648934 0 -1 0 I I #
point $-1 -68.68129520554217 16.092115245249975 1.1624639140649009 #
point $-1 -60.907762951401864 11.788682912133847 3.5486177426853627 #
straight-curve $-1 68.68129520554217 -11.329930800163332 98.951361543655437 0 0 -1 I I #
point $-1 68.68129520554217 -11.329930800163332 11.528986805231643 #
straight-curve $-1 68.68129520554217 -4.166435316637191 6.0343486161590363 0 1 0 I I #
point $-1 68.681295205542185 -11.329930800163332 6.0343486161590505 #
point $-1 65.422925828683972 -9.617324990512504 7.8645347409983062 #
point $-1 65.422925828683972 -7.0484162760362601 7.8645347409983062 #
straight-curve $-1 68.68129520554217 -1.5913406008411535 98.951361543655437 0 0 -1 I I #
point $-1 68.68129520554217 -1.5913406008411535 11.528986805231643 #
straight-curve $-1 68.68129520554217 0.70285978302389829 6.0343486161590363 0 1 0 I I #
point $-1 68.681295205542185 -1.5913406008411535 6.0343486161590505 #
point $-1 65.422925828683972 0.12126520880967817 7.8645347409983062 #
point $-1 65.422925828683972 2.6901739232859221 7.8645347409983062 #
straight-curve $-1 68.68129520554217 8.1472495984810287 98.951361543655437 0 0 -1 I I #
point $-1 68.68129520554217 8.1472495984810287 11.528986805231643 #
straight-curve $-1 68.68129520554217 5.5721548826849894 6.0343486161590363 0 1 0 I I #
point $-1 68.681295205542185 8.1472495984810287 6.0343486161590505 #
point $-1 65.422925828683972 9.8598554081318603 7.8645347409983062 #
point $-1 65.422925828683972 12.428764122608104 7.8645347409983062 #
straight-curve $-1 0 40.050185112469862 -11.528986805231643 1 0 0 I I #
point $-1 68.68129520554217 40.050185112469862 -11.528986805231643 #
End-of-ACIS-data 