500 0 6 0           
7 Unknown 11 ACIS 5.0 NT 24 Thu Mar 25 17:38:22 1999 
-1 9.9999999999999995e-007 1e-010 
body $-1 $6 $-1 $7 #
body $-1 $8 $-1 $9 #
body $-1 $10 $-1 $11 #
body $-1 $12 $-1 $13 #
body $-1 $14 $-1 $15 #
body $-1 $16 $-1 $17 #
lump $-1 $-1 $18 $0 #
transform $-1 1 0 0 0 1 0 0 0 1 62.464064455092014 39.802802630393188 14.16657629312105 1 rotate no_reflect no_shear #
lump $-1 $-1 $19 $1 #
transform $-1 1 0 0 0 1 0 0 0 1 62.464064455092014 39.802802630393188 14.16657629312105 1 rotate no_reflect no_shear #
lump $-1 $-1 $20 $2 #
transform $-1 1 0 0 0 1 0 0 0 1 62.464064455092014 39.802802630393188 14.16657629312105 1 rotate no_reflect no_shear #
lump $-1 $-1 $21 $3 #
transform $-1 1 0 0 0 1 0 0 0 1 62.464064455092014 39.802802630393188 14.16657629312105 1 rotate no_reflect no_shear #
lump $-1 $-1 $22 $4 #
transform $-1 1 0 0 0 1 0 0 0 1 62.464064455092014 39.802802630393188 14.16657629312105 1 rotate no_reflect no_shear #
lump $-1 $-1 $23 $5 #
transform $-1 1 0 0 0 1 0 0 0 1 62.464064455092014 39.802802630393188 14.16657629312105 1 rotate no_reflect no_shear #
shell $-1 $-1 $-1 $24 $-1 $6 #
shell $-1 $-1 $-1 $25 $-1 $8 #
shell $-1 $-1 $-1 $26 $-1 $10 #
shell $-1 $-1 $-1 $27 $-1 $12 #
shell $-1 $-1 $-1 $28 $-1 $14 #
shell $-1 $-1 $-1 $29 $-1 $16 #
face $-1 $30 $31 $18 $-1 $32 forward single #
face $-1 $33 $34 $19 $-1 $35 forward single #
face $-1 $36 $37 $20 $-1 $38 reversed single #
face $-1 $39 $40 $21 $-1 $41 forward single #
face $-1 $42 $43 $22 $-1 $44 reversed single #
face $-1 $45 $46 $23 $-1 $47 forward single #
face $-1 $48 $49 $18 $-1 $50 reversed single #
loop $-1 $-1 $51 $24 #
plane-surface $-1 0 0 14.16657629312105 0 0 1 1 0 0 forward_v I I I I #
face $-1 $52 $53 $19 $-1 $54 reversed single #
loop $-1 $-1 $55 $25 #
plane-surface $-1 0 -31.384232414989665 -7.2867054305936518 0 0 1 1 0 0 forward_v I I I I #
face $-1 $56 $57 $20 $-1 $58 reversed single #
loop $-1 $-1 $59 $26 #
plane-surface $-1 53.217608458465605 -2.7699653456805891 177.51526765704088 0 -1 0 -0.66913061440640931 0 -0.74314481823134659 forward_v I I I I #
face $-1 $60 $61 $21 $-1 $62 forward single #
loop $-1 $63 $64 $27 #
cone-surface $-1 52.142119267601167 -8.4805125820168641 4.2302185844087461 -0.66913061440640931 0 -0.74314481823134659 1.8578620455783665 0 -1.6728265360160233 1 I I 0 1 2.5 forward I I I I #
face $-1 $65 $66 $22 $-1 $67 reversed single #
loop $-1 $-1 $68 $28 #
plane-surface $-1 53.217608458465605 28.614267069309072 177.51526765704088 0 -1 0 -0.66913061440640931 0 -0.74314481823134659 forward_v I I I I #
face $-1 $69 $70 $23 $-1 $71 forward single #
loop $-1 $72 $73 $29 #
cone-surface $-1 52.142119267601167 22.903719832972797 4.2302185844087461 -0.66913061440640931 0 -0.74314481823134659 1.8578620455783665 0 -1.6728265360160233 1 I I 0 1 2.5 forward I I I I #
face $-1 $74 $75 $18 $-1 $76 reversed single #
loop $-1 $-1 $77 $30 #
plane-surface $-1 0 0 -14.16657629312105 0 0 1 1 0 0 forward_v I I I I #
coedge $-1 $78 $79 $80 $81 forward $31 $-1 #
face $-1 $82 $83 $19 $-1 $84 reversed single #
loop $-1 $-1 $85 $33 #
plane-surface $-1 0 -22.965662199586141 -10.726640861857351 0 -1 0 0 0 -1 forward_v I I I I #
coedge $-1 $86 $87 $88 $89 reversed $34 $-1 #
face $-1 $90 $91 $20 $-1 $92 reversed single #
loop $-1 $-1 $93 $36 #
plane-surface $-1 -30.375627195848935 -8.4805125820168641 84.675576006099931 0.66913061440640931 0 0.74314481823134659 0.74314481823134659 0 -0.66913061440640931 forward_v I I I I #
coedge $-1 $94 $95 $96 $97 reversed $37 $-1 #
face $-1 $-1 $98 $21 $-1 $99 forward single #
loop $-1 $100 $101 $39 #
cone-surface $-1 48.249518745585675 -8.4805125820168641 -0.092952176424912381 -0.66913061440640931 0 -0.74314481823134659 0.92893102278918327 0 -0.83641326800801163 1 I I -0.70710678118654746 0.70710678118654746 1.25 forward I I I I #
loop $-1 $-1 $102 $27 #
coedge $-1 $64 $64 $103 $104 reversed $40 $-1 #
face $-1 $105 $106 $22 $-1 $107 reversed single #
loop $-1 $-1 $108 $42 #
plane-surface $-1 -30.375627195848935 22.903719832972797 84.675576006099931 0.66913061440640931 0 0.74314481823134659 0.74314481823134659 0 -0.66913061440640931 forward_v I I I I #
coedge $-1 $109 $110 $111 $112 reversed $43 $-1 #
face $-1 $-1 $113 $23 $-1 $114 forward single #
loop $-1 $115 $116 $45 #
cone-surface $-1 48.249518745585675 22.903719832972797 -0.092952176424912381 -0.66913061440640931 0 -0.74314481823134659 0.92893102278918327 0 -0.83641326800801163 1 I I -0.70710678118654746 0.70710678118654746 1.25 forward I I I I #
loop $-1 $-1 $117 $29 #
coedge $-1 $73 $73 $118 $119 reversed $46 $-1 #
face $-1 $120 $121 $18 $-1 $122 reversed single #
loop $-1 $-1 $123 $48 #
plane-surface $-1 0 -39.802802630393188 0 0 1 0 0 0 1 forward_v I I I I #
coedge $-1 $124 $125 $126 $127 forward $49 $-1 #
coedge $-1 $128 $51 $129 $130 forward $31 $-1 #
coedge $-1 $51 $128 $131 $132 forward $31 $-1 #
coedge $-1 $133 $134 $51 $81 reversed $135 $-1 #
edge $-1 $136 -39.802802630393188 $137 39.802802630393188 $80 $138 forward 7 unknown #
face $-1 $139 $140 $19 $-1 $141 reversed single #
loop $-1 $-1 $142 $52 #
plane-surface $-1 0 0 -14.16657629312105 0 0 1 1 0 0 forward_v I I I I #
coedge $-1 $143 $144 $145 $146 reversed $53 $-1 #
coedge $-1 $147 $55 $144 $148 forward $34 $-1 #
coedge $-1 $55 $147 $149 $150 reversed $34 $-1 #
coedge $-1 $151 $145 $55 $89 forward $140 $-1 #
edge $-1 $152 7.273545992091309 $153 24.110686422898354 $88 $154 forward 7 unknown #
face $-1 $155 $156 $20 $-1 $157 reversed single #
loop $-1 $-1 $158 $56 #
plane-surface $-1 53.217608458465605 -14.191059818353139 177.51526765704088 0 1 0 0.66913061440640931 0 0.74314481823134659 forward_v I I I I #
coedge $-1 $159 $160 $161 $162 reversed $57 $-1 #
coedge $-1 $95 $59 $163 $164 reversed $37 $-1 #
coedge $-1 $59 $94 $159 $165 reversed $37 $-1 #
coedge $-1 $161 $166 $59 $97 forward $167 $-1 #
edge $-1 $168 -35.855260225859212 $169 -21.323744358892455 $96 $170 forward 7 unknown #
loop $-1 $-1 $103 $60 #
plane-surface $-1 -30.375627195848935 -8.4805125820168641 84.675576006099931 0.66913061440640931 0 0.74314481823134659 0.74314481823134659 0 -0.66913061440640931 forward_v I I I I #
loop $-1 $-1 $171 $39 #
coedge $-1 $101 $101 $102 $172 reversed $61 $-1 #
coedge $-1 $102 $102 $101 $172 forward $63 $-1 #
coedge $-1 $103 $103 $64 $104 forward $98 $-1 #
edge $-1 $173 0 $173 6.2831853071796004 $103 $174 forward 7 unknown #
face $-1 $175 $176 $22 $-1 $177 reversed single #
loop $-1 $-1 $178 $65 #
plane-surface $-1 53.217608458465605 17.193172596636522 177.51526765704088 0 1 0 0.66913061440640931 0 0.74314481823134659 forward_v I I I I #
coedge $-1 $179 $180 $181 $182 reversed $66 $-1 #
coedge $-1 $110 $68 $183 $184 reversed $43 $-1 #
coedge $-1 $68 $109 $179 $185 reversed $43 $-1 #
coedge $-1 $181 $186 $68 $112 forward $187 $-1 #
edge $-1 $188 -35.855260225859212 $189 -21.323744358892455 $111 $190 forward 7 unknown #
loop $-1 $-1 $118 $69 #
plane-surface $-1 -30.375627195848935 22.903719832972797 84.675576006099931 0.66913061440640931 0 0.74314481823134659 0.74314481823134659 0 -0.66913061440640931 forward_v I I I I #
loop $-1 $-1 $191 $45 #
coedge $-1 $116 $116 $117 $192 reversed $70 $-1 #
coedge $-1 $117 $117 $116 $192 forward $72 $-1 #
coedge $-1 $118 $118 $73 $119 forward $113 $-1 #
edge $-1 $193 0 $193 6.2831853071796004 $118 $194 forward 7 unknown #
face $-1 $195 $196 $18 $-1 $197 reversed single #
loop $-1 $-1 $198 $74 #
plane-surface $-1 -62.464064455092014 0 0 1 0 0 0 0 -1 forward_v I I I I #
coedge $-1 $199 $131 $200 $201 forward $75 $-1 #
coedge $-1 $202 $77 $199 $203 forward $49 $-1 #
coedge $-1 $77 $202 $204 $205 forward $49 $-1 #
coedge $-1 $134 $133 $77 $127 reversed $135 $-1 #
edge $-1 $206 -39.802802630393188 $207 39.802802630393188 $126 $208 forward 7 unknown #
coedge $-1 $79 $78 $209 $210 forward $31 $-1 #
coedge $-1 $211 $212 $78 $130 reversed $196 $-1 #
edge $-1 $137 -62.464064455092014 $213 62.464064455092014 $129 $214 forward 7 unknown #
coedge $-1 $123 $215 $79 $132 reversed $75 $-1 #
edge $-1 $216 -62.464064455092014 $136 62.464064455092014 $131 $217 forward 7 unknown #
coedge $-1 $126 $80 $215 $218 forward $135 $-1 #
coedge $-1 $80 $126 $211 $219 reversed $135 $-1 #
loop $-1 $-1 $133 $195 #
vertex $-1 $81 $220 #
vertex $-1 $81 $221 #
straight-curve $-1 62.464064455092014 0 14.16657629312105 0 1 0 I I #
face $-1 $222 $223 $19 $-1 $224 reversed single #
loop $-1 $-1 $145 $82 #
plane-surface $-1 62.464064455092014 0 0 -1 0 0 0 0 1 forward_v I I I I #
coedge $-1 $225 $226 $143 $227 forward $83 $-1 #
coedge $-1 $228 $85 $142 $227 reversed $53 $-1 #
coedge $-1 $85 $228 $86 $148 reversed $53 $-1 #
coedge $-1 $88 $229 $85 $146 forward $140 $-1 #
edge $-1 $230 -8.8032558621923744 $152 -1.9233849996649761 $145 $231 forward 7 unknown #
coedge $-1 $87 $86 $232 $233 reversed $34 $-1 #
edge $-1 $152 -62.464064455092014 $234 62.464064455092014 $144 $235 forward 7 unknown #
coedge $-1 $236 $237 $87 $150 forward $223 $-1 #
edge $-1 $153 -62.464064455092014 $238 62.464064455092014 $149 $239 forward 7 unknown #
coedge $-1 $229 $88 $237 $240 forward $140 $-1 #
vertex $-1 $89 $241 #
vertex $-1 $240 $242 #
straight-curve $-1 62.464064455092014 -15.692116207494832 -7.2867054305936518 0 -1 0 I I #
face $-1 $-1 $167 $20 $-1 $243 forward single #
loop $-1 $-1 $244 $90 #
plane-surface $-1 62.464064455092014 0 0 -1 0 0 0 0 1 forward_v I I I I #
coedge $-1 $245 $246 $247 $248 reversed $91 $-1 #
coedge $-1 $249 $93 $95 $165 forward $57 $-1 #
coedge $-1 $93 $249 $245 $250 forward $57 $-1 #
coedge $-1 $247 $96 $93 $162 forward $167 $-1 #
edge $-1 $169 -1.470290945327843 $251 9.9508035273447071 $161 $252 forward 7 unknown #
coedge $-1 $253 $254 $94 $164 forward $156 $-1 #
edge $-1 $255 -87.67529347673505 $168 -74.591057535399386 $163 $256 forward 7 unknown #
edge $-1 $169 105.37404535813673 $255 124.92812891018403 $95 $257 forward 7 unknown #
coedge $-1 $96 $247 $253 $258 forward $167 $-1 #
loop $-1 $-1 $247 $155 #
vertex $-1 $164 $259 #
vertex $-1 $97 $260 #
straight-curve $-1 26.608804229232803 -2.7699653456805891 14.166576293121054 -1 0 0 I I #
coedge $-1 $171 $171 $-1 $261 reversed $100 $-1 #
edge $-1 $262 0 $262 6.2831853071796004 $101 $263 forward 7 unknown #
vertex $-1 $104 $264 #
ellipse-curve $-1 55.19830652160865 -8.4805125820168641 7.6244583224532203 0.66913061440640931 0 0.74314481823134659 1.8578620455783665 0 -1.6728265360160233 1 I I #
face $-1 $-1 $187 $22 $-1 $265 forward single #
loop $-1 $-1 $266 $105 #
plane-surface $-1 62.464064455092014 0 0 -1 0 0 0 0 1 forward_v I I I I #
coedge $-1 $267 $268 $269 $270 reversed $106 $-1 #
coedge $-1 $271 $108 $110 $185 forward $66 $-1 #
coedge $-1 $108 $271 $267 $272 forward $66 $-1 #
coedge $-1 $269 $111 $108 $182 forward $187 $-1 #
edge $-1 $189 -17.162407152822674 $273 -5.7413126801501235 $181 $274 forward 7 unknown #
coedge $-1 $275 $276 $109 $184 forward $176 $-1 #
edge $-1 $277 -87.67529347673505 $188 -74.591057535399386 $183 $278 forward 7 unknown #
edge $-1 $189 105.37404535813673 $277 124.92812891018403 $110 $279 forward 7 unknown #
coedge $-1 $111 $269 $275 $280 forward $187 $-1 #
loop $-1 $-1 $269 $175 #
vertex $-1 $184 $281 #
vertex $-1 $112 $282 #
straight-curve $-1 26.608804229232803 28.614267069309072 14.166576293121054 -1 0 0 I I #
coedge $-1 $191 $191 $-1 $283 reversed $115 $-1 #
edge $-1 $284 0 $284 6.2831853071796004 $116 $285 forward 7 unknown #
vertex $-1 $119 $286 #
ellipse-curve $-1 55.19830652160865 22.903719832972797 7.6244583224532203 0.66913061440640931 0 0.74314481823134659 1.8578620455783665 0 -1.6728265360160233 1 I I #
face $-1 $-1 $135 $18 $-1 $287 reversed single #
loop $-1 $-1 $211 $120 #
plane-surface $-1 0 39.802802630393188 0 0 -1 0 0 0 -1 forward_v I I I I #
coedge $-1 $288 $209 $212 $289 forward $121 $-1 #
coedge $-1 $215 $123 $124 $203 reversed $75 $-1 #
coedge $-1 $209 $288 $123 $201 reversed $121 $-1 #
edge $-1 $216 -14.16657629312105 $290 14.16657629312105 $200 $291 forward 7 unknown #
coedge $-1 $125 $124 $288 $292 forward $49 $-1 #
edge $-1 $207 -62.464064455092014 $290 62.464064455092014 $199 $293 forward 7 unknown #
coedge $-1 $212 $211 $125 $205 reversed $196 $-1 #
edge $-1 $294 -62.464064455092014 $206 62.464064455092014 $204 $295 forward 7 unknown #
vertex $-1 $127 $296 #
vertex $-1 $218 $297 #
straight-curve $-1 62.464064455092014 0 -14.16657629312105 0 -1 0 I I #
coedge $-1 $198 $200 $128 $210 reversed $121 $-1 #
edge $-1 $213 -39.802802630393188 $216 39.802802630393188 $209 $298 forward 7 unknown #
coedge $-1 $204 $129 $134 $219 forward $196 $-1 #
coedge $-1 $129 $204 $198 $289 reversed $196 $-1 #
vertex $-1 $130 $299 #
straight-curve $-1 0 39.802802630393188 14.16657629312105 -1 0 0 I I #
coedge $-1 $131 $199 $133 $218 reversed $75 $-1 #
vertex $-1 $210 $300 #
straight-curve $-1 0 -39.802802630393188 14.16657629312105 1 0 0 I I #
edge $-1 $136 -14.16657629312105 $207 14.16657629312105 $133 $301 forward 7 unknown #
edge $-1 $137 -14.16657629312105 $206 14.16657629312105 $134 $302 forward 7 unknown #
point $-1 62.464064455092014 -39.802802630393188 14.16657629312105 #
point $-1 62.464064455092014 39.802802630393188 14.16657629312105 #
face $-1 $-1 $303 $19 $-1 $304 reversed single #
loop $-1 $-1 $149 $139 #
plane-surface $-1 0 -39.802802630393188 0 0 1 0 0 0 1 forward_v I I I I #
coedge $-1 $305 $142 $229 $306 forward $83 $-1 #
coedge $-1 $142 $305 $307 $308 forward $83 $-1 #
edge $-1 $309 -62.464064455092014 $230 62.464064455092014 $142 $310 forward 7 unknown #
coedge $-1 $144 $143 $311 $312 reversed $53 $-1 #
coedge $-1 $145 $151 $225 $306 reversed $140 $-1 #
vertex $-1 $306 $313 #
straight-curve $-1 62.464064455092014 -22.965662199586141 -5.3633204309286757 0 0 1 I I #
coedge $-1 $311 $314 $147 $233 forward $303 $-1 #
edge $-1 $238 -24.110686422898354 $234 -7.273545992091309 $232 $315 forward 7 unknown #
vertex $-1 $233 $316 #
straight-curve $-1 0 -22.965662199586141 -7.2867054305936518 -1 0 0 I I #
coedge $-1 $317 $149 $314 $318 forward $223 $-1 #
coedge $-1 $149 $317 $151 $240 reversed $223 $-1 #
vertex $-1 $318 $319 #
straight-curve $-1 0 -39.802802630393188 -7.2867054305936518 -1 0 0 I I #
edge $-1 $153 7.2867054305936518 $320 14.16657629312105 $151 $321 forward 7 unknown #
point $-1 62.464064455092014 -22.965662199586141 -7.2867054305936518 #
point $-1 62.464064455092014 -39.802802630393188 -7.2867054305936518 #
plane-surface $-1 0 0 14.16657629312105 0 0 1 1 0 0 forward_v I I I I #
coedge $-1 $254 $253 $246 $322 forward $156 $-1 #
coedge $-1 $246 $158 $160 $250 reversed $91 $-1 #
coedge $-1 $158 $245 $244 $322 reversed $91 $-1 #
coedge $-1 $166 $161 $158 $248 forward $167 $-1 #
edge $-1 $251 21.323744358892455 $323 35.855260225859212 $247 $324 forward 7 unknown #
coedge $-1 $160 $159 $254 $325 reversed $57 $-1 #
edge $-1 $326 -124.92812891018403 $251 -105.37404535813673 $245 $327 forward 7 unknown #
vertex $-1 $162 $328 #
straight-curve $-1 47.932548588125265 -4.240256291008432 14.166576293121047 0 -1 0 I I #
coedge $-1 $244 $163 $166 $258 reversed $156 $-1 #
coedge $-1 $163 $244 $249 $325 forward $156 $-1 #
vertex $-1 $164 $329 #
straight-curve $-1 62.464064455092014 -2.7699653456805891 88.75763382852044 0 0 1 I I #
straight-curve $-1 -30.375627195848935 -2.7699653456805891 84.675576006099931 0.74314481823134659 0 -0.66913061440640931 I I #
edge $-1 $323 -14.191059818353139 $168 -2.7699653456805891 $253 $330 forward 7 unknown #
point $-1 62.464064455092014 -2.7699653456805891 14.16657629312105 #
point $-1 47.932548588125258 -2.7699653456805891 14.166576293121054 #
edge $-1 $331 1 $331 0 $171 $-1 forward 7 unknown #
vertex $-1 $172 $332 #
ellipse-curve $-1 49.085932013593684 -8.4805125820168641 0.83597884636427089 0.66913061440640931 0 0.74314481823134659 1.8578620455783665 0 -1.6728265360160233 1 I I #
point $-1 57.056168567187022 -8.4805125820168641 5.9516317864371988 #
plane-surface $-1 0 0 14.16657629312105 0 0 1 1 0 0 forward_v I I I I #
coedge $-1 $276 $275 $268 $333 forward $176 $-1 #
coedge $-1 $268 $178 $180 $272 reversed $106 $-1 #
coedge $-1 $178 $267 $266 $333 reversed $106 $-1 #
coedge $-1 $186 $181 $178 $270 forward $187 $-1 #
edge $-1 $273 21.323744358892455 $334 35.855260225859212 $269 $335 forward 7 unknown #
coedge $-1 $180 $179 $276 $336 reversed $66 $-1 #
edge $-1 $337 -124.92812891018403 $273 -105.37404535813673 $267 $338 forward 7 unknown #
vertex $-1 $182 $339 #
straight-curve $-1 47.932548588125265 11.451859916486399 14.166576293121047 0 -1 0 I I #
coedge $-1 $266 $183 $186 $280 reversed $176 $-1 #
coedge $-1 $183 $266 $271 $336 forward $176 $-1 #
vertex $-1 $184 $340 #
straight-curve $-1 62.464064455092014 28.614267069309072 88.75763382852044 0 0 1 I I #
straight-curve $-1 -30.375627195848935 28.614267069309072 84.675576006099931 0.74314481823134659 0 -0.66913061440640931 I I #
edge $-1 $334 17.193172596636522 $188 28.614267069309072 $275 $341 forward 7 unknown #
point $-1 62.464064455092014 28.614267069309072 14.16657629312105 #
point $-1 47.932548588125258 28.614267069309072 14.166576293121054 #
edge $-1 $342 1 $342 0 $191 $-1 forward 7 unknown #
vertex $-1 $192 $343 #
ellipse-curve $-1 49.085932013593684 22.903719832972797 0.83597884636427089 0.66913061440640931 0 0.74314481823134659 1.8578620455783665 0 -1.6728265360160233 1 I I #
point $-1 57.056168567187022 22.903719832972797 5.9516317864371988 #
plane-surface $-1 62.464064455092014 0 0 -1 0 0 0 0 1 forward_v I I I I #
coedge $-1 $200 $198 $202 $292 reversed $121 $-1 #
edge $-1 $213 -14.16657629312105 $294 14.16657629312105 $212 $344 forward 7 unknown #
vertex $-1 $292 $345 #
straight-curve $-1 -62.464064455092014 -39.802802630393188 0 0 0 -1 I I #
edge $-1 $290 -39.802802630393188 $294 39.802802630393188 $288 $346 forward 7 unknown #
straight-curve $-1 0 -39.802802630393188 -14.16657629312105 -1 0 0 I I #
vertex $-1 $205 $347 #
straight-curve $-1 0 39.802802630393188 -14.16657629312105 1 0 0 I I #
point $-1 62.464064455092014 39.802802630393188 -14.16657629312105 #
point $-1 62.464064455092014 -39.802802630393188 -14.16657629312105 #
straight-curve $-1 -62.464064455092014 0 14.16657629312105 0 -1 0 I I #
point $-1 -62.464064455092014 39.802802630393188 14.16657629312105 #
point $-1 -62.464064455092014 -39.802802630393188 14.16657629312105 #
straight-curve $-1 62.464064455092014 -39.802802630393188 0 0 0 -1 I I #
straight-curve $-1 62.464064455092014 39.802802630393188 0 0 0 -1 I I #
loop $-1 $-1 $311 $222 #
plane-surface $-1 -62.464064455092014 0 0 1 0 0 0 0 -1 forward_v I I I I #
coedge $-1 $226 $225 $317 $348 forward $83 $-1 #
edge $-1 $230 22.965662199586141 $320 39.802802630393188 $229 $349 forward 7 unknown #
coedge $-1 $314 $311 $226 $308 reversed $303 $-1 #
edge $-1 $350 -39.802802630393188 $309 -22.965662199586141 $307 $351 forward 7 unknown #
vertex $-1 $312 $352 #
straight-curve $-1 0 -22.965662199586141 -14.16657629312105 1 0 0 I I #
coedge $-1 $307 $232 $228 $312 forward $303 $-1 #
edge $-1 $234 1.9233849996649761 $309 8.8032558621923744 $311 $353 forward 7 unknown #
point $-1 62.464064455092014 -22.965662199586141 -14.16657629312105 #
coedge $-1 $232 $307 $236 $318 reversed $303 $-1 #
straight-curve $-1 -62.464064455092014 -15.692116207494832 -7.2867054305936518 0 1 0 I I #
point $-1 -62.464064455092014 -22.965662199586141 -7.2867054305936518 #
coedge $-1 $237 $236 $305 $348 reversed $223 $-1 #
edge $-1 $238 7.2867054305936518 $350 14.16657629312105 $314 $354 forward 7 unknown #
point $-1 -62.464064455092014 -39.802802630393188 -7.2867054305936518 #
vertex $-1 $240 $355 #
straight-curve $-1 62.464064455092014 -39.802802630393188 0 0 0 -1 I I #
edge $-1 $323 74.591057535399386 $326 87.67529347673505 $244 $356 forward 7 unknown #
vertex $-1 $258 $357 #
straight-curve $-1 26.608804229232803 -14.191059818353139 14.166576293121054 1 0 0 I I #
edge $-1 $326 -9.9508035273447071 $255 1.470290945327843 $254 $358 forward 7 unknown #
vertex $-1 $325 $359 #
straight-curve $-1 -30.375627195848935 -14.191059818353139 84.675576006099931 -0.74314481823134659 0 0.66913061440640931 I I #
point $-1 47.932548588125258 -14.191059818353139 14.166576293121054 #
point $-1 62.464064455092014 -2.7699653456805891 1.0823403517853905 #
straight-curve $-1 62.464064455092014 0 14.16657629312105 0 1 0 I I #
vertex $-1 $261 $360 #
point $-1 50.943794059172056 -8.4805125820168641 -0.83684768965175238 #
edge $-1 $334 74.591057535399386 $337 87.67529347673505 $266 $361 forward 7 unknown #
vertex $-1 $280 $362 #
straight-curve $-1 26.608804229232803 17.193172596636522 14.166576293121054 1 0 0 I I #
edge $-1 $337 5.7413126801501235 $277 17.162407152822674 $276 $363 forward 7 unknown #
vertex $-1 $336 $364 #
straight-curve $-1 -30.375627195848935 17.193172596636522 84.675576006099931 -0.74314481823134659 0 0.66913061440640931 I I #
point $-1 47.932548588125258 17.193172596636522 14.166576293121054 #
point $-1 62.464064455092014 28.614267069309072 1.0823403517853905 #
straight-curve $-1 62.464064455092014 0 14.16657629312105 0 1 0 I I #
vertex $-1 $283 $365 #
point $-1 50.943794059172056 22.903719832972797 -0.83684768965175238 #
straight-curve $-1 -62.464064455092014 39.802802630393188 0 0 0 -1 I I #
point $-1 -62.464064455092014 -39.802802630393188 -14.16657629312105 #
straight-curve $-1 -62.464064455092014 0 -14.16657629312105 0 1 0 I I #
point $-1 -62.464064455092014 39.802802630393188 -14.16657629312105 #
edge $-1 $320 -62.464064455092014 $350 62.464064455092014 $317 $366 forward 7 unknown #
straight-curve $-1 62.464064455092014 0 -14.16657629312105 0 -1 0 I I #
vertex $-1 $308 $367 #
straight-curve $-1 -62.464064455092014 0 -14.16657629312105 0 1 0 I I #
point $-1 -62.464064455092014 -22.965662199586141 -14.16657629312105 #
straight-curve $-1 -62.464064455092014 -22.965662199586141 -5.3633204309286757 0 0 -1 I I #
straight-curve $-1 -62.464064455092014 -39.802802630393188 0 0 0 -1 I I #
point $-1 62.464064455092014 -39.802802630393188 -14.16657629312105 #
straight-curve $-1 62.464064455092014 -14.191059818353139 88.75763382852044 0 0 -1 I I #
point $-1 62.464064455092014 -14.191059818353139 14.16657629312105 #
straight-curve $-1 62.464064455092 -4.240256291008432 1.0823403517853905 0 1 0 I I #
point $-1 62.464064455092014 -14.191059818353139 1.0823403517853905 #
point $-1 47.413105477577666 -8.4805125820168641 -1.0218831992140958 #
straight-curve $-1 62.464064455092014 17.193172596636522 88.75763382852044 0 0 -1 I I #
point $-1 62.464064455092014 17.193172596636522 14.16657629312105 #
straight-curve $-1 62.464064455092 11.451859916486399 1.0823403517853905 0 1 0 I I #
point $-1 62.464064455092014 17.193172596636522 1.0823403517853905 #
point $-1 47.413105477577666 22.903719832972797 -1.0218831992140958 #
straight-curve $-1 0 -39.802802630393188 -14.16657629312105 -1 0 0 I I #
point $-1 -62.464064455092014 -39.802802630393188 -14.16657629312105 #
End-of-ACIS-data 