500 0 12 0           
7 Unknown 11 ACIS 5.0 NT 24 Thu Mar 25 21:54:35 1999 
-1 9.9999999999999995e-007 1e-010 
body $-1 $12 $-1 $13 #
body $-1 $14 $-1 $15 #
body $-1 $16 $-1 $17 #
body $-1 $18 $-1 $19 #
body $-1 $20 $-1 $21 #
body $-1 $22 $-1 $23 #
body $-1 $24 $-1 $25 #
body $-1 $26 $-1 $27 #
body $-1 $28 $-1 $29 #
body $-1 $30 $-1 $31 #
body $-1 $32 $-1 $33 #
body $-1 $34 $-1 $35 #
lump $-1 $-1 $36 $0 #
transform $-1 1 0 0 0 1 0 0 0 1 43.054292428357797 23.26340348566643 7.0809719334999013 1 rotate no_reflect no_shear #
lump $-1 $-1 $37 $1 #
transform $-1 1 0 0 0 1 0 0 0 1 43.054292428357797 23.26340348566643 7.0809719334999013 1 rotate no_reflect no_shear #
lump $-1 $-1 $38 $2 #
transform $-1 1 0 0 0 1 0 0 0 1 43.054292428357797 23.26340348566643 7.0809719334999013 1 rotate no_reflect no_shear #
lump $-1 $-1 $39 $3 #
transform $-1 1 0 0 0 1 0 0 0 1 43.054292428357797 23.26340348566643 7.0809719334999013 1 rotate no_reflect no_shear #
lump $-1 $-1 $40 $4 #
transform $-1 1 0 0 0 1 0 0 0 1 43.054292428357797 23.26340348566643 7.0809719334999013 1 rotate no_reflect no_shear #
lump $-1 $-1 $41 $5 #
transform $-1 1 0 0 0 1 0 0 0 1 43.054292428357797 23.26340348566643 7.0809719334999013 1 rotate no_reflect no_shear #
lump $-1 $-1 $42 $6 #
transform $-1 1 0 0 0 1 0 0 0 1 43.054292428357797 23.26340348566643 7.0809719334999013 1 rotate no_reflect no_shear #
lump $-1 $-1 $43 $7 #
transform $-1 1 0 0 0 1 0 0 0 1 43.054292428357797 23.26340348566643 7.0809719334999013 1 rotate no_reflect no_shear #
lump $-1 $-1 $44 $8 #
transform $-1 1 0 0 0 1 0 0 0 1 43.054292428357797 23.26340348566643 7.0809719334999013 1 rotate no_reflect no_shear #
lump $-1 $-1 $45 $9 #
transform $-1 1 0 0 0 1 0 0 0 1 43.054292428357797 23.26340348566643 7.0809719334999013 1 rotate no_reflect no_shear #
lump $-1 $-1 $46 $10 #
transform $-1 1 0 0 0 1 0 0 0 1 43.054292428357797 23.26340348566643 7.0809719334999013 1 rotate no_reflect no_shear #
lump $-1 $-1 $47 $11 #
transform $-1 1 0 0 0 1 0 0 0 1 43.054292428357797 23.26340348566643 7.0809719334999013 1 rotate no_reflect no_shear #
shell $-1 $-1 $-1 $48 $-1 $12 #
shell $-1 $-1 $-1 $49 $-1 $14 #
shell $-1 $-1 $-1 $50 $-1 $16 #
shell $-1 $-1 $-1 $51 $-1 $18 #
shell $-1 $-1 $-1 $52 $-1 $20 #
shell $-1 $-1 $-1 $53 $-1 $22 #
shell $-1 $-1 $-1 $54 $-1 $24 #
shell $-1 $-1 $-1 $55 $-1 $26 #
shell $-1 $-1 $-1 $56 $-1 $28 #
shell $-1 $-1 $-1 $57 $-1 $30 #
shell $-1 $-1 $-1 $58 $-1 $32 #
shell $-1 $-1 $-1 $59 $-1 $34 #
face $-1 $60 $61 $36 $-1 $62 forward single #
face $-1 $63 $64 $37 $-1 $65 reversed single #
face $-1 $66 $67 $38 $-1 $68 reversed single #
face $-1 $69 $70 $39 $-1 $71 reversed single #
face $-1 $72 $73 $40 $-1 $74 forward single #
face $-1 $75 $76 $41 $-1 $77 forward single #
face $-1 $78 $79 $42 $-1 $80 reversed single #
face $-1 $81 $82 $43 $-1 $83 forward single #
face $-1 $84 $85 $44 $-1 $86 forward single #
face $-1 $87 $88 $45 $-1 $89 reversed single #
face $-1 $90 $91 $46 $-1 $92 forward single #
face $-1 $93 $94 $47 $-1 $95 forward single #
face $-1 $96 $97 $36 $-1 $98 reversed single #
loop $-1 $-1 $99 $48 #
plane-surface $-1 0 0 7.0809719334999013 0 0 1 1 0 0 forward_v I I I I #
face $-1 $100 $101 $37 $-1 $102 reversed single #
loop $-1 $-1 $103 $49 #
plane-surface $-1 0 -19.979714313496899 3.0033676544017336 0 0 1 1 0 0 forward_v I I I I #
face $-1 $104 $105 $38 $-1 $106 reversed single #
loop $-1 $-1 $107 $50 #
plane-surface $-1 0 19.979714313496899 3.0033676544017336 0 0 1 1 0 0 forward_v I I I I #
face $-1 $108 $109 $39 $-1 $110 reversed single #
loop $-1 $-1 $111 $51 #
plane-surface $-1 60.002227673617938 -4.9652924133096192 120.62207418436726 0 -1 0 -0.79863551827123203 0 -0.60181501223851219 forward_v I I I I #
face $-1 $112 $113 $40 $-1 $114 forward single #
loop $-1 $115 $116 $52 #
cone-surface $-1 39.9988055715881 -10.393181546417409 3.2552088807989863 -0.79863551827123203 0 -0.60181501223851219 0.3009075061192561 0 -0.39931775913561601 1 I I 0 1 0.5 forward I I I I #
face $-1 $117 $118 $41 $-1 $119 forward single #
loop $-1 $120 $121 $53 #
cone-surface $-1 39.9988055715881 -7.1364480665527346 3.2552088807989863 -0.79863551827123203 0 -0.60181501223851219 0.3009075061192561 0 -0.39931775913561601 1 I I 0 1 0.5 forward I I I I #
face $-1 $122 $123 $42 $-1 $124 reversed single #
loop $-1 $-1 $125 $54 #
plane-surface $-1 60.002227673617938 11.730732728017751 120.62207418436726 0 -1 0 -0.79863551827123203 0 -0.60181501223851219 forward_v I I I I #
face $-1 $126 $127 $43 $-1 $128 forward single #
loop $-1 $129 $130 $55 #
cone-surface $-1 39.9988055715881 6.3028435949099588 3.2552088807989863 -0.79863551827123203 0 -0.60181501223851219 0.3009075061192561 0 -0.39931775913561601 1 I I 0 1 0.5 forward I I I I #
face $-1 $131 $132 $44 $-1 $133 forward single #
loop $-1 $134 $135 $56 #
cone-surface $-1 39.9988055715881 9.5595770747746371 3.2552088807989863 -0.79863551827123203 0 -0.60181501223851219 0.3009075061192561 0 -0.39931775913561601 1 I I 0 1 0.5 forward I I I I #
face $-1 $136 $137 $45 $-1 $138 reversed single #
loop $-1 $-1 $139 $57 #
plane-surface $-1 -97.244181396040545 4.6857236158845712 70.400225312058879 0 1 0 -0.62932039886446345 0 0.77714595512881146 forward_v I I I I #
face $-1 $140 $141 $46 $-1 $142 forward single #
loop $-1 $143 $144 $58 #
cone-surface $-1 -40.517011861560391 6.5257387926463366 4.8925564335837084 0.62932039886446345 0 -0.77714595512881146 0.38857297756440573 0 0.31466019943223172 1 I I 0 1 0.5 forward I I I I #
face $-1 $145 $146 $47 $-1 $147 forward single #
loop $-1 $148 $149 $59 #
cone-surface $-1 -40.517011861560391 9.2857615577889803 4.8925564335837084 0.62932039886446345 0 -0.77714595512881146 0.38857297756440573 0 0.31466019943223172 1 I I 0 1 0.5 forward I I I I #
face $-1 $150 $151 $36 $-1 $152 reversed single #
loop $-1 $-1 $153 $60 #
plane-surface $-1 0 0 -7.0809719334999013 0 0 1 1 0 0 forward_v I I I I #
coedge $-1 $154 $155 $156 $157 forward $61 $-1 #
face $-1 $158 $159 $37 $-1 $160 reversed single #
loop $-1 $-1 $161 $63 #
plane-surface $-1 0 -16.696025141327368 5.0421697939508174 0 -1 0 0 0 -1 forward_v I I I I #
coedge $-1 $162 $163 $164 $165 reversed $64 $-1 #
face $-1 $166 $167 $38 $-1 $168 forward single #
loop $-1 $-1 $169 $66 #
plane-surface $-1 0 16.696025141327368 5.0421697939508174 0 1 0 0 0 1 forward_v I I I I #
coedge $-1 $170 $171 $172 $173 reversed $67 $-1 #
face $-1 $174 $175 $39 $-1 $176 reversed single #
loop $-1 $-1 $177 $69 #
plane-surface $-1 -8.7671466210274787 -8.7648148064850719 68.800635134982002 0.79863551827123203 0 0.60181501223851219 0.60181501223851219 0 -0.79863551827123203 forward_v I I I I #
coedge $-1 $178 $179 $180 $181 reversed $70 $-1 #
face $-1 $-1 $182 $40 $-1 $183 forward single #
loop $-1 $184 $185 $72 #
cone-surface $-1 39.399828932884674 -10.393181546417409 2.8038476216201023 -0.79863551827123203 0 -0.60181501223851219 0.15045375305962805 0 -0.19965887956780801 1 I I -0.70710678118654746 0.70710678118654746 0.25 forward I I I I #
loop $-1 $-1 $186 $52 #
coedge $-1 $116 $116 $187 $188 reversed $73 $-1 #
face $-1 $-1 $189 $41 $-1 $190 forward single #
loop $-1 $191 $192 $75 #
cone-surface $-1 39.399828932884674 -7.1364480665527346 2.8038476216201023 -0.79863551827123203 0 -0.60181501223851219 0.15045375305962805 0 -0.19965887956780801 1 I I -0.70710678118654746 0.70710678118654746 0.25 forward I I I I #
loop $-1 $-1 $193 $53 #
coedge $-1 $121 $121 $194 $195 reversed $76 $-1 #
face $-1 $196 $197 $42 $-1 $198 reversed single #
loop $-1 $-1 $199 $78 #
plane-surface $-1 -8.7671466210274787 7.931210334842298 68.800635134982002 0.79863551827123203 0 0.60181501223851219 0.60181501223851219 0 -0.79863551827123203 forward_v I I I I #
coedge $-1 $200 $201 $202 $203 reversed $79 $-1 #
face $-1 $-1 $204 $43 $-1 $205 forward single #
loop $-1 $206 $207 $81 #
cone-surface $-1 39.399828932884674 6.3028435949099588 2.8038476216201023 -0.79863551827123203 0 -0.60181501223851219 0.15045375305962805 0 -0.19965887956780801 1 I I -0.70710678118654746 0.70710678118654746 0.25 forward I I I I #
loop $-1 $-1 $208 $55 #
coedge $-1 $130 $130 $209 $210 reversed $82 $-1 #
face $-1 $-1 $211 $44 $-1 $212 forward single #
loop $-1 $213 $214 $84 #
cone-surface $-1 39.399828932884674 9.5595770747746371 2.8038476216201023 -0.79863551827123203 0 -0.60181501223851219 0.15045375305962805 0 -0.19965887956780801 1 I I -0.70710678118654746 0.70710678118654746 0.25 forward I I I I #
loop $-1 $-1 $215 $56 #
coedge $-1 $135 $135 $216 $217 reversed $85 $-1 #
face $-1 $218 $219 $45 $-1 $220 reversed single #
loop $-1 $-1 $221 $87 #
plane-surface $-1 -43.05429242835779 7.9057501752176549 3.4812868887963333 -0.62932039886446345 0 0.77714595512881146 0.77714595512881146 0 0.62932039886446345 forward_v I I I I #
coedge $-1 $222 $223 $224 $225 reversed $88 $-1 #
face $-1 $-1 $226 $46 $-1 $227 forward single #
loop $-1 $228 $229 $90 #
cone-surface $-1 -40.045021562412046 6.5257387926463366 4.3096969672370999 0.62932039886446345 0 -0.77714595512881146 0.19428648878220287 0 0.15733009971611586 1 I I -0.70710678118654746 0.70710678118654746 0.25 forward I I I I #
loop $-1 $-1 $230 $58 #
coedge $-1 $144 $144 $231 $232 reversed $91 $-1 #
face $-1 $-1 $233 $47 $-1 $234 forward single #
loop $-1 $235 $236 $93 #
cone-surface $-1 -40.045021562412046 9.2857615577889803 4.3096969672370999 0.62932039886446345 0 -0.77714595512881146 0.19428648878220287 0 0.15733009971611586 1 I I -0.70710678118654746 0.70710678118654746 0.25 forward I I I I #
loop $-1 $-1 $237 $59 #
coedge $-1 $149 $149 $238 $239 reversed $94 $-1 #
face $-1 $240 $241 $36 $-1 $242 reversed single #
loop $-1 $-1 $243 $96 #
plane-surface $-1 0 -23.26340348566643 0 0 1 0 0 0 1 forward_v I I I I #
coedge $-1 $244 $245 $246 $247 forward $97 $-1 #
coedge $-1 $248 $99 $249 $250 forward $61 $-1 #
coedge $-1 $99 $248 $251 $252 forward $61 $-1 #
coedge $-1 $253 $254 $99 $157 reversed $255 $-1 #
edge $-1 $256 -23.26340348566643 $257 23.26340348566643 $156 $258 forward 7 unknown #
face $-1 $259 $260 $37 $-1 $261 reversed single #
loop $-1 $-1 $262 $100 #
plane-surface $-1 -43.054292428357797 0 0 1 0 0 0 0 -1 forward_v I I I I #
coedge $-1 $263 $264 $265 $266 reversed $101 $-1 #
coedge $-1 $267 $103 $268 $269 reversed $64 $-1 #
coedge $-1 $103 $267 $263 $270 forward $64 $-1 #
coedge $-1 $265 $271 $103 $165 forward $272 $-1 #
edge $-1 $273 -13.27354632891798 $274 -6.7061679845789186 $164 $275 forward 7 unknown #
face $-1 $276 $277 $38 $-1 $278 reversed single #
loop $-1 $-1 $279 $104 #
plane-surface $-1 0 0 7.0809719334999013 0 0 1 1 0 0 forward_v I I I I #
coedge $-1 $280 $281 $282 $283 reversed $105 $-1 #
coedge $-1 $284 $107 $280 $285 forward $67 $-1 #
coedge $-1 $107 $284 $286 $287 reversed $67 $-1 #
coedge $-1 $288 $289 $107 $173 forward $277 $-1 #
edge $-1 $290 6.7061679845789186 $291 13.27354632891798 $172 $292 forward 7 unknown #
face $-1 $293 $294 $39 $-1 $295 forward single #
loop $-1 $-1 $296 $108 #
plane-surface $-1 60.002227673617938 -12.564337199660525 120.62207418436726 0 1 0 0.79863551827123203 0 0.60181501223851219 forward_v I I I I #
coedge $-1 $297 $298 $299 $300 reversed $109 $-1 #
coedge $-1 $179 $111 $301 $302 reversed $70 $-1 #
coedge $-1 $111 $178 $297 $303 reversed $70 $-1 #
coedge $-1 $299 $304 $111 $181 forward $294 $-1 #
edge $-1 $305 -13.053178591548829 $306 -7.7408403962806389 $180 $307 forward 7 unknown #
loop $-1 $-1 $187 $112 #
plane-surface $-1 -8.7671466210274787 -8.7648148064850719 68.800635134982002 0.79863551827123203 0 0.60181501223851219 0.60181501223851219 0 -0.79863551827123203 forward_v I I I I #
loop $-1 $-1 $308 $72 #
coedge $-1 $185 $185 $186 $309 reversed $113 $-1 #
coedge $-1 $186 $186 $185 $309 forward $115 $-1 #
coedge $-1 $187 $187 $116 $188 forward $182 $-1 #
edge $-1 $310 0 $310 6.2831853071796004 $187 $311 forward 7 unknown #
loop $-1 $-1 $194 $117 #
plane-surface $-1 -8.7671466210274787 -8.7648148064850719 68.800635134982002 0.79863551827123203 0 0.60181501223851219 0.60181501223851219 0 -0.79863551827123203 forward_v I I I I #
loop $-1 $-1 $312 $75 #
coedge $-1 $192 $192 $193 $313 reversed $118 $-1 #
coedge $-1 $193 $193 $192 $313 forward $120 $-1 #
coedge $-1 $194 $194 $121 $195 forward $189 $-1 #
edge $-1 $314 0 $314 6.2831853071796004 $194 $315 forward 7 unknown #
face $-1 $316 $317 $42 $-1 $318 reversed single #
loop $-1 $-1 $319 $122 #
plane-surface $-1 60.002227673617938 4.1316879416668453 120.62207418436726 0 1 0 0.79863551827123203 0 0.60181501223851219 forward_v I I I I #
coedge $-1 $320 $321 $322 $323 reversed $123 $-1 #
coedge $-1 $201 $125 $324 $325 reversed $79 $-1 #
coedge $-1 $125 $200 $320 $326 reversed $79 $-1 #
coedge $-1 $322 $327 $125 $203 forward $328 $-1 #
edge $-1 $329 -13.053178591548829 $330 -7.7408403962806389 $202 $331 forward 7 unknown #
loop $-1 $-1 $209 $126 #
plane-surface $-1 -8.7671466210274787 7.931210334842298 68.800635134982002 0.79863551827123203 0 0.60181501223851219 0.60181501223851219 0 -0.79863551827123203 forward_v I I I I #
loop $-1 $-1 $332 $81 #
coedge $-1 $207 $207 $208 $333 reversed $127 $-1 #
coedge $-1 $208 $208 $207 $333 forward $129 $-1 #
coedge $-1 $209 $209 $130 $210 forward $204 $-1 #
edge $-1 $334 0 $334 6.2831853071796004 $209 $335 forward 7 unknown #
loop $-1 $-1 $216 $131 #
plane-surface $-1 -8.7671466210274787 7.931210334842298 68.800635134982002 0.79863551827123203 0 0.60181501223851219 0.60181501223851219 0 -0.79863551827123203 forward_v I I I I #
loop $-1 $-1 $336 $84 #
coedge $-1 $214 $214 $215 $337 reversed $132 $-1 #
coedge $-1 $215 $215 $214 $337 forward $134 $-1 #
coedge $-1 $216 $216 $135 $217 forward $211 $-1 #
edge $-1 $338 0 $338 6.2831853071796004 $216 $339 forward 7 unknown #
face $-1 $340 $341 $45 $-1 $342 reversed single #
loop $-1 $-1 $343 $136 #
plane-surface $-1 -97.244181396040545 11.125776734550739 70.400225312058879 0 -1 0 0.62932039886446345 0 -0.77714595512881146 forward_v I I I I #
coedge $-1 $344 $345 $346 $347 reversed $137 $-1 #
coedge $-1 $223 $139 $348 $349 reversed $88 $-1 #
coedge $-1 $139 $222 $344 $350 reversed $88 $-1 #
coedge $-1 $346 $351 $139 $225 forward $352 $-1 #
edge $-1 $353 5.5677982696624753 $354 10.013039004392816 $224 $355 forward 7 unknown #
loop $-1 $-1 $231 $140 #
plane-surface $-1 -43.05429242835779 7.9057501752176549 3.4812868887963333 -0.62932039886446345 0 0.77714595512881146 0.77714595512881146 0 0.62932039886446345 forward_v I I I I #
loop $-1 $-1 $356 $90 #
coedge $-1 $229 $229 $230 $357 reversed $141 $-1 #
coedge $-1 $230 $230 $229 $357 forward $143 $-1 #
coedge $-1 $231 $231 $144 $232 forward $226 $-1 #
edge $-1 $358 0 $358 6.2831853071796004 $231 $359 forward 7 unknown #
loop $-1 $-1 $238 $145 #
plane-surface $-1 -43.05429242835779 7.9057501752176549 3.4812868887963333 -0.62932039886446345 0 0.77714595512881146 0.77714595512881146 0 0.62932039886446345 forward_v I I I I #
loop $-1 $-1 $360 $93 #
coedge $-1 $236 $236 $237 $361 reversed $146 $-1 #
coedge $-1 $237 $237 $236 $361 forward $148 $-1 #
coedge $-1 $238 $238 $149 $239 forward $233 $-1 #
edge $-1 $362 0 $362 6.2831853071796004 $238 $363 forward 7 unknown #
face $-1 $364 $365 $36 $-1 $366 reversed single #
loop $-1 $-1 $367 $150 #
plane-surface $-1 -43.054292428357797 0 0 1 0 0 0 0 -1 forward_v I I I I #
coedge $-1 $368 $251 $369 $370 forward $151 $-1 #
coedge $-1 $371 $153 $368 $372 forward $97 $-1 #
coedge $-1 $153 $371 $373 $374 forward $97 $-1 #
coedge $-1 $254 $253 $153 $247 reversed $255 $-1 #
edge $-1 $375 -23.26340348566643 $376 23.26340348566643 $246 $377 forward 7 unknown #
coedge $-1 $155 $154 $378 $379 forward $61 $-1 #
coedge $-1 $380 $381 $154 $250 reversed $365 $-1 #
edge $-1 $257 -43.054292428357797 $382 43.054292428357797 $249 $383 forward 7 unknown #
coedge $-1 $243 $384 $155 $252 reversed $151 $-1 #
edge $-1 $385 -43.054292428357797 $256 43.054292428357797 $251 $386 forward 7 unknown #
coedge $-1 $246 $156 $384 $387 forward $255 $-1 #
coedge $-1 $156 $246 $380 $388 reversed $255 $-1 #
loop $-1 $-1 $253 $364 #
vertex $-1 $157 $389 #
vertex $-1 $157 $390 #
straight-curve $-1 43.054292428357797 0 7.0809719334999013 0 1 0 I I #
face $-1 $391 $392 $37 $-1 $393 forward single #
loop $-1 $-1 $268 $158 #
plane-surface $-1 0 -23.26340348566643 0 0 1 0 0 0 1 forward_v I I I I #
coedge $-1 $394 $395 $396 $397 forward $159 $-1 #
coedge $-1 $396 $161 $163 $270 reversed $101 $-1 #
coedge $-1 $161 $396 $398 $399 reversed $101 $-1 #
coedge $-1 $400 $164 $161 $266 forward $272 $-1 #
edge $-1 $274 0.48228275742632487 $401 4.5598870365244926 $265 $402 forward 7 unknown #
coedge $-1 $163 $162 $394 $403 reversed $64 $-1 #
coedge $-1 $404 $405 $162 $269 forward $260 $-1 #
edge $-1 $406 -43.054292428357797 $273 43.054292428357797 $268 $407 forward 7 unknown #
edge $-1 $408 -43.054292428357797 $274 43.054292428357797 $263 $409 forward 7 unknown #
coedge $-1 $164 $400 $404 $410 forward $272 $-1 #
loop $-1 $-1 $265 $391 #
vertex $-1 $269 $411 #
vertex $-1 $165 $412 #
straight-curve $-1 43.054292428357797 -9.9898571567484495 3.0033676544017336 0 1 0 I I #
face $-1 $413 $414 $38 $-1 $415 reversed single #
loop $-1 $-1 $289 $166 #
plane-surface $-1 43.054292428357797 0 0 -1 0 0 0 0 1 forward_v I I I I #
coedge $-1 $416 $417 $281 $418 forward $167 $-1 #
coedge $-1 $419 $169 $170 $285 reversed $105 $-1 #
coedge $-1 $169 $419 $279 $418 reversed $105 $-1 #
coedge $-1 $420 $421 $169 $283 forward $414 $-1 #
edge $-1 $422 0.48228275742632487 $423 4.5598870365244926 $282 $424 forward 7 unknown #
coedge $-1 $171 $170 $421 $425 reversed $67 $-1 #
edge $-1 $290 -43.054292428357797 $422 43.054292428357797 $280 $426 forward 7 unknown #
coedge $-1 $427 $428 $171 $287 forward $429 $-1 #
edge $-1 $291 -43.054292428357797 $430 43.054292428357797 $286 $431 forward 7 unknown #
coedge $-1 $432 $172 $428 $433 reversed $277 $-1 #
coedge $-1 $172 $432 $419 $434 forward $277 $-1 #
vertex $-1 $173 $435 #
vertex $-1 $287 $436 #
straight-curve $-1 43.054292428357797 9.9898571567484495 3.0033676544017336 0 1 0 I I #
face $-1 $-1 $437 $39 $-1 $438 reversed single #
loop $-1 $-1 $180 $174 #
plane-surface $-1 0 0 7.0809719334999013 0 0 1 1 0 0 forward_v I I I I #
coedge $-1 $439 $440 $441 $442 reversed $175 $-1 #
coedge $-1 $443 $177 $179 $303 forward $109 $-1 #
coedge $-1 $177 $443 $439 $444 forward $109 $-1 #
coedge $-1 $441 $180 $177 $300 forward $294 $-1 #
edge $-1 $306 0.58288501006708326 $445 8.1819297964179896 $299 $446 forward 7 unknown #
coedge $-1 $447 $448 $178 $302 forward $437 $-1 #
edge $-1 $449 -60.279776251847075 $305 -53.230065158683729 $301 $450 forward 7 unknown #
edge $-1 $306 77.28139030816422 $449 86.108584856715623 $179 $451 forward 7 unknown #
coedge $-1 $180 $441 $447 $452 forward $294 $-1 #
vertex $-1 $302 $453 #
vertex $-1 $181 $454 #
straight-curve $-1 30.001113836808969 -4.9652924133096192 7.0809719334999031 -1 0 0 I I #
coedge $-1 $308 $308 $-1 $455 reversed $184 $-1 #
edge $-1 $456 0 $456 6.2831853071796004 $185 $457 forward 7 unknown #
vertex $-1 $188 $458 #
ellipse-curve $-1 40.398123330723706 -10.393181546417409 3.5561163869182337 0.79863551827123203 0 0.60181501223851219 0.3009075061192561 0 -0.39931775913561601 1 I I #
coedge $-1 $312 $312 $-1 $459 reversed $191 $-1 #
edge $-1 $460 0 $460 6.2831853071796004 $192 $461 forward 7 unknown #
vertex $-1 $195 $462 #
ellipse-curve $-1 40.398123330723706 -7.1364480665527346 3.5561163869182337 0.79863551827123203 0 0.60181501223851219 0.3009075061192561 0 -0.39931775913561601 1 I I #
face $-1 $-1 $328 $42 $-1 $463 forward single #
loop $-1 $-1 $464 $196 #
plane-surface $-1 43.054292428357797 0 0 -1 0 0 0 0 1 forward_v I I I I #
coedge $-1 $465 $466 $467 $468 reversed $197 $-1 #
coedge $-1 $469 $199 $201 $326 forward $123 $-1 #
coedge $-1 $199 $469 $465 $470 forward $123 $-1 #
coedge $-1 $467 $202 $199 $323 forward $328 $-1 #
edge $-1 $330 -7.7651275605966017 $471 -0.16608277424569629 $322 $472 forward 7 unknown #
coedge $-1 $473 $474 $200 $325 forward $317 $-1 #
edge $-1 $475 -60.279776251847075 $329 -53.230065158683729 $324 $476 forward 7 unknown #
edge $-1 $330 77.28139030816422 $475 86.108584856715623 $201 $477 forward 7 unknown #
coedge $-1 $202 $467 $473 $478 forward $328 $-1 #
loop $-1 $-1 $467 $316 #
vertex $-1 $325 $479 #
vertex $-1 $203 $480 #
straight-curve $-1 30.001113836808969 11.730732728017751 7.0809719334999031 -1 0 0 I I #
coedge $-1 $332 $332 $-1 $481 reversed $206 $-1 #
edge $-1 $482 0 $482 6.2831853071796004 $207 $483 forward 7 unknown #
vertex $-1 $210 $484 #
ellipse-curve $-1 40.398123330723706 6.3028435949099588 3.5561163869182337 0.79863551827123203 0 0.60181501223851219 0.3009075061192561 0 -0.39931775913561601 1 I I #
coedge $-1 $336 $336 $-1 $485 reversed $213 $-1 #
edge $-1 $486 0 $486 6.2831853071796004 $214 $487 forward 7 unknown #
vertex $-1 $217 $488 #
ellipse-curve $-1 40.398123330723706 9.5595770747746371 3.5561163869182337 0.79863551827123203 0 0.60181501223851219 0.3009075061192561 0 -0.39931775913561601 1 I I #
face $-1 $-1 $352 $45 $-1 $489 forward single #
loop $-1 $-1 $490 $218 #
plane-surface $-1 -43.054292428357797 0 0 1 0 0 0 0 -1 forward_v I I I I #
coedge $-1 $491 $492 $493 $494 reversed $219 $-1 #
coedge $-1 $495 $221 $223 $350 forward $137 $-1 #
coedge $-1 $221 $495 $491 $496 forward $137 $-1 #
coedge $-1 $493 $224 $221 $347 forward $352 $-1 #
edge $-1 $354 0.73284852827574376 $497 7.1729016469419111 $346 $498 forward 7 unknown #
coedge $-1 $499 $500 $222 $349 forward $341 $-1 #
edge $-1 $501 -31.718825767233113 $353 -28.119140722529536 $348 $502 forward 7 unknown #
edge $-1 $354 -5.719956084688798 $501 9.1551213131864128e-015 $223 $503 forward 7 unknown #
coedge $-1 $224 $493 $499 $504 forward $352 $-1 #
loop $-1 $-1 $493 $340 #
vertex $-1 $349 $505 #
vertex $-1 $225 $506 #
straight-curve $-1 -48.622090698020273 4.6857236158845712 7.0809719334999031 1 0 0 I I #
coedge $-1 $356 $356 $-1 $507 reversed $228 $-1 #
edge $-1 $508 0 $508 6.2831853071796004 $229 $509 forward 7 unknown #
vertex $-1 $232 $510 #
ellipse-curve $-1 -40.831672060992624 6.5257387926463366 5.2811294111481173 -0.62932039886446345 0 0.77714595512881146 0.38857297756440573 0 0.31466019943223172 1 I I #
coedge $-1 $360 $360 $-1 $511 reversed $235 $-1 #
edge $-1 $512 0 $512 6.2831853071796004 $236 $513 forward 7 unknown #
vertex $-1 $239 $514 #
ellipse-curve $-1 -40.831672060992624 9.2857615577889803 5.2811294111481173 -0.62932039886446345 0 0.77714595512881146 0.38857297756440573 0 0.31466019943223172 1 I I #
face $-1 $-1 $255 $36 $-1 $515 reversed single #
loop $-1 $-1 $380 $240 #
plane-surface $-1 0 23.26340348566643 0 0 -1 0 0 0 -1 forward_v I I I I #
coedge $-1 $516 $378 $381 $517 forward $241 $-1 #
coedge $-1 $384 $243 $244 $372 reversed $151 $-1 #
coedge $-1 $378 $516 $243 $370 reversed $241 $-1 #
edge $-1 $385 -7.0809719334999013 $518 7.0809719334999013 $369 $519 forward 7 unknown #
coedge $-1 $245 $244 $516 $520 forward $97 $-1 #
edge $-1 $376 -43.054292428357797 $518 43.054292428357797 $368 $521 forward 7 unknown #
coedge $-1 $381 $380 $245 $374 reversed $365 $-1 #
edge $-1 $522 -43.054292428357797 $375 43.054292428357797 $373 $523 forward 7 unknown #
vertex $-1 $247 $524 #
vertex $-1 $387 $525 #
straight-curve $-1 43.054292428357797 0 -7.0809719334999013 0 -1 0 I I #
coedge $-1 $367 $369 $248 $379 reversed $241 $-1 #
edge $-1 $382 -23.26340348566643 $385 23.26340348566643 $378 $526 forward 7 unknown #
coedge $-1 $373 $249 $254 $388 forward $365 $-1 #
coedge $-1 $249 $373 $367 $517 reversed $365 $-1 #
vertex $-1 $250 $527 #
straight-curve $-1 0 23.26340348566643 7.0809719334999013 -1 0 0 I I #
coedge $-1 $251 $368 $253 $387 reversed $151 $-1 #
vertex $-1 $379 $528 #
straight-curve $-1 0 -23.26340348566643 7.0809719334999013 1 0 0 I I #
edge $-1 $256 -7.0809719334999013 $376 7.0809719334999013 $253 $529 forward 7 unknown #
edge $-1 $257 -7.0809719334999013 $375 7.0809719334999013 $254 $530 forward 7 unknown #
point $-1 43.054292428357797 -23.26340348566643 7.0809719334999013 #
point $-1 43.054292428357797 23.26340348566643 7.0809719334999013 #
face $-1 $-1 $272 $37 $-1 $531 reversed single #
loop $-1 $-1 $398 $259 #
plane-surface $-1 0 0 7.0809719334999013 0 0 1 1 0 0 forward_v I I I I #
coedge $-1 $532 $262 $267 $403 forward $159 $-1 #
coedge $-1 $262 $532 $533 $534 reversed $159 $-1 #
coedge $-1 $264 $263 $262 $397 reversed $101 $-1 #
edge $-1 $535 -4.5598870365244926 $408 -0.48228275742632487 $262 $536 forward 7 unknown #
coedge $-1 $533 $537 $264 $399 forward $392 $-1 #
edge $-1 $401 -43.054292428357797 $535 43.054292428357797 $398 $538 forward 7 unknown #
coedge $-1 $271 $265 $537 $539 reversed $272 $-1 #
vertex $-1 $266 $540 #
straight-curve $-1 43.054292428357797 -16.696025141327368 2.5210848969754087 0 0 1 I I #
edge $-1 $408 6.7061679845789186 $406 13.27354632891798 $394 $541 forward 7 unknown #
coedge $-1 $542 $268 $271 $410 reversed $260 $-1 #
coedge $-1 $268 $542 $532 $543 forward $260 $-1 #
vertex $-1 $269 $544 #
straight-curve $-1 0 -23.26340348566643 3.0033676544017336 1 0 0 I I #
vertex $-1 $403 $545 #
straight-curve $-1 0 -16.696025141327368 3.0033676544017336 1 0 0 I I #
edge $-1 $546 -7.0809719334999013 $273 -3.0033676544017336 $271 $547 forward 7 unknown #
point $-1 43.054292428357797 -23.26340348566643 3.0033676544017336 #
point $-1 43.054292428357797 -16.696025141327368 3.0033676544017336 #
face $-1 $-1 $429 $38 $-1 $548 reversed single #
loop $-1 $-1 $282 $276 #
plane-surface $-1 -43.054292428357797 0 0 1 0 0 0 0 -1 forward_v I I I I #
coedge $-1 $549 $279 $432 $550 forward $167 $-1 #
coedge $-1 $279 $549 $420 $551 forward $167 $-1 #
edge $-1 $423 -43.054292428357797 $552 43.054292428357797 $279 $553 forward 7 unknown #
coedge $-1 $281 $280 $289 $434 reversed $105 $-1 #
coedge $-1 $554 $282 $417 $551 reversed $414 $-1 #
coedge $-1 $282 $554 $284 $425 forward $414 $-1 #
vertex $-1 $425 $555 #
vertex $-1 $283 $556 #
straight-curve $-1 -43.054292428357797 16.696025141327368 2.5210848969754087 0 0 1 I I #
edge $-1 $430 -13.27354632891798 $422 -6.7061679845789186 $421 $557 forward 7 unknown #
straight-curve $-1 0 16.696025141327368 3.0033676544017336 -1 0 0 I I #
coedge $-1 $558 $286 $554 $559 reversed $429 $-1 #
coedge $-1 $286 $558 $288 $433 forward $429 $-1 #
loop $-1 $-1 $286 $413 #
vertex $-1 $287 $560 #
straight-curve $-1 0 23.26340348566643 3.0033676544017336 -1 0 0 I I #
coedge $-1 $289 $288 $416 $550 reversed $277 $-1 #
edge $-1 $561 -7.0809719334999013 $291 -3.0033676544017336 $288 $562 forward 7 unknown #
edge $-1 $552 -4.5598870365244926 $290 -0.48228275742632487 $289 $563 forward 7 unknown #
point $-1 43.054292428357797 16.696025141327368 3.0033676544017336 #
point $-1 43.054292428357797 23.26340348566643 3.0033676544017336 #
loop $-1 $-1 $301 $293 #
plane-surface $-1 43.054292428357797 0 0 -1 0 0 0 0 1 forward_v I I I I #
coedge $-1 $440 $296 $298 $444 reversed $175 $-1 #
coedge $-1 $296 $439 $564 $565 reversed $175 $-1 #
coedge $-1 $304 $299 $296 $442 forward $294 $-1 #
edge $-1 $445 7.7408403962806389 $566 13.053178591548829 $441 $567 forward 7 unknown #
coedge $-1 $298 $297 $448 $568 reversed $109 $-1 #
edge $-1 $569 -86.108584856715623 $445 -77.28139030816422 $439 $570 forward 7 unknown #
vertex $-1 $300 $571 #
straight-curve $-1 37.741954233089608 -4.382407403242536 7.0809719334999031 0 -1 0 I I #
coedge $-1 $564 $301 $304 $452 reversed $437 $-1 #
coedge $-1 $301 $564 $443 $568 forward $437 $-1 #
vertex $-1 $302 $572 #
straight-curve $-1 43.054292428357797 -4.9652924133096192 60.311037092183632 0 0 1 I I #
straight-curve $-1 -8.7671466210274787 -4.9652924133096192 68.800635134982002 0.60181501223851219 0 -0.79863551827123203 I I #
edge $-1 $566 -12.564337199660525 $305 -4.9652924133096192 $447 $573 forward 7 unknown #
point $-1 43.054292428357797 -4.9652924133096192 7.0809719334999013 #
point $-1 37.741954233089608 -4.9652924133096192 7.0809719334999031 #
edge $-1 $574 1 $574 0 $308 $-1 forward 7 unknown #
vertex $-1 $309 $575 #
ellipse-curve $-1 39.59948781245248 -10.393181546417409 2.9543013746797304 0.79863551827123203 0 0.60181501223851219 0.3009075061192561 0 -0.39931775913561601 1 I I #
point $-1 40.699030836842972 -10.393181546417409 3.1567986277826265 #
edge $-1 $576 1 $576 0 $312 $-1 forward 7 unknown #
vertex $-1 $313 $577 #
ellipse-curve $-1 39.59948781245248 -7.1364480665527346 2.9543013746797304 0.79863551827123203 0 0.60181501223851219 0.3009075061192561 0 -0.39931775913561601 1 I I #
point $-1 40.699030836842972 -7.1364480665527346 3.1567986277826265 #
plane-surface $-1 0 0 7.0809719334999013 0 0 1 1 0 0 forward_v I I I I #
coedge $-1 $474 $473 $466 $578 forward $317 $-1 #
coedge $-1 $466 $319 $321 $470 reversed $197 $-1 #
coedge $-1 $319 $465 $464 $578 reversed $197 $-1 #
coedge $-1 $327 $322 $319 $468 forward $328 $-1 #
edge $-1 $471 7.7408403962806389 $579 13.053178591548829 $467 $580 forward 7 unknown #
coedge $-1 $321 $320 $474 $581 reversed $123 $-1 #
edge $-1 $582 -86.108584856715623 $471 -77.28139030816422 $465 $583 forward 7 unknown #
vertex $-1 $323 $584 #
straight-curve $-1 37.741954233089608 3.965605167421149 7.0809719334999031 0 -1 0 I I #
coedge $-1 $464 $324 $327 $478 reversed $317 $-1 #
coedge $-1 $324 $464 $469 $581 forward $317 $-1 #
vertex $-1 $325 $585 #
straight-curve $-1 43.054292428357797 11.730732728017751 60.311037092183632 0 0 1 I I #
straight-curve $-1 -8.7671466210274787 11.730732728017751 68.800635134982002 0.60181501223851219 0 -0.79863551827123203 I I #
edge $-1 $579 4.1316879416668453 $329 11.730732728017751 $473 $586 forward 7 unknown #
point $-1 43.054292428357797 11.730732728017751 7.0809719334999013 #
point $-1 37.741954233089608 11.730732728017751 7.0809719334999031 #
edge $-1 $587 1 $587 0 $332 $-1 forward 7 unknown #
vertex $-1 $333 $588 #
ellipse-curve $-1 39.59948781245248 6.3028435949099588 2.9543013746797304 0.79863551827123203 0 0.60181501223851219 0.3009075061192561 0 -0.39931775913561601 1 I I #
point $-1 40.699030836842972 6.3028435949099588 3.1567986277826265 #
edge $-1 $589 1 $589 0 $336 $-1 forward 7 unknown #
vertex $-1 $337 $590 #
ellipse-curve $-1 39.59948781245248 9.5595770747746371 2.9543013746797304 0.79863551827123203 0 0.60181501223851219 0.3009075061192561 0 -0.39931775913561601 1 I I #
point $-1 40.699030836842972 9.5595770747746371 3.1567986277826265 #
plane-surface $-1 0 0 7.0809719334999013 0 0 1 1 0 0 forward_v I I I I #
coedge $-1 $500 $499 $492 $591 forward $341 $-1 #
coedge $-1 $492 $343 $345 $496 reversed $219 $-1 #
coedge $-1 $343 $491 $490 $591 reversed $219 $-1 #
coedge $-1 $351 $346 $343 $494 forward $352 $-1 #
edge $-1 $497 -10.013039004392816 $592 -5.5677982696624753 $493 $593 forward 7 unknown #
coedge $-1 $345 $344 $500 $594 reversed $137 $-1 #
edge $-1 $595 -9.1551213131864128e-015 $497 5.719956084688798 $491 $596 forward 7 unknown #
vertex $-1 $347 $597 #
straight-curve $-1 -38.609051693627464 3.9528750876088274 7.0809719334999004 0 1 0 I I #
coedge $-1 $490 $348 $351 $504 reversed $341 $-1 #
coedge $-1 $348 $490 $495 $594 forward $341 $-1 #
vertex $-1 $349 $598 #
straight-curve $-1 -43.054292428357797 4.6857236158845712 35.20011265602944 0 0 1 I I #
straight-curve $-1 -43.05429242835779 4.6857236158845712 3.4812868887963333 -0.77714595512881146 0 -0.62932039886446345 I I #
edge $-1 $592 -11.125776734550739 $353 -4.6857236158845712 $499 $599 forward 7 unknown #
point $-1 -43.054292428357797 4.6857236158845712 7.0809719334999013 #
point $-1 -38.609051693627457 4.6857236158845712 7.0809719334999013 #
edge $-1 $600 1 $600 0 $356 $-1 forward 7 unknown #
vertex $-1 $357 $601 #
ellipse-curve $-1 -40.202351662128159 6.5257387926463366 4.5039834560193031 -0.62932039886446345 0 0.77714595512881146 0.38857297756440573 0 0.31466019943223172 1 I I #
point $-1 -40.443099083428223 6.5257387926463366 5.5957896105803462 #
edge $-1 $602 1 $602 0 $360 $-1 forward 7 unknown #
vertex $-1 $361 $603 #
ellipse-curve $-1 -40.202351662128159 9.2857615577889803 4.5039834560193031 -0.62932039886446345 0 0.77714595512881146 0.38857297756440573 0 0.31466019943223172 1 I I #
point $-1 -40.443099083428223 9.2857615577889803 5.5957896105803462 #
plane-surface $-1 43.054292428357797 0 0 -1 0 0 0 0 1 forward_v I I I I #
coedge $-1 $369 $367 $371 $520 reversed $241 $-1 #
edge $-1 $382 -7.0809719334999013 $522 7.0809719334999013 $381 $604 forward 7 unknown #
vertex $-1 $520 $605 #
straight-curve $-1 -43.054292428357797 -23.26340348566643 0 0 0 -1 I I #
edge $-1 $518 -23.26340348566643 $522 23.26340348566643 $516 $606 forward 7 unknown #
straight-curve $-1 0 -23.26340348566643 -7.0809719334999013 -1 0 0 I I #
vertex $-1 $374 $607 #
straight-curve $-1 0 23.26340348566643 -7.0809719334999013 1 0 0 I I #
point $-1 43.054292428357797 23.26340348566643 -7.0809719334999013 #
point $-1 43.054292428357797 -23.26340348566643 -7.0809719334999013 #
straight-curve $-1 -43.054292428357797 0 7.0809719334999013 0 -1 0 I I #
point $-1 -43.054292428357797 23.26340348566643 7.0809719334999013 #
point $-1 -43.054292428357797 -23.26340348566643 7.0809719334999013 #
straight-curve $-1 43.054292428357797 -23.26340348566643 0 0 0 -1 I I #
straight-curve $-1 43.054292428357797 23.26340348566643 0 0 0 -1 I I #
plane-surface $-1 43.054292428357797 0 0 -1 0 0 0 0 1 forward_v I I I I #
coedge $-1 $395 $394 $405 $543 reversed $159 $-1 #
coedge $-1 $608 $398 $395 $534 forward $392 $-1 #
edge $-1 $535 16.696025141327368 $609 23.26340348566643 $395 $610 forward 7 unknown #
vertex $-1 $534 $611 #
straight-curve $-1 -43.054292428357797 -16.696025141327368 2.5210848969754087 0 0 -1 I I #
coedge $-1 $398 $608 $400 $539 forward $392 $-1 #
straight-curve $-1 0 -16.696025141327368 7.0809719334999013 -1 0 0 I I #
edge $-1 $546 -23.26340348566643 $401 -16.696025141327368 $400 $612 forward 7 unknown #
point $-1 43.054292428357797 -16.696025141327368 7.0809719334999013 #
straight-curve $-1 -43.054292428357797 -9.9898571567484495 3.0033676544017336 0 -1 0 I I #
coedge $-1 $405 $404 $608 $613 reversed $260 $-1 #
edge $-1 $609 -7.0809719334999013 $406 -3.0033676544017336 $532 $614 forward 7 unknown #
point $-1 -43.054292428357797 -23.26340348566643 3.0033676544017336 #
point $-1 -43.054292428357797 -16.696025141327368 3.0033676544017336 #
vertex $-1 $539 $615 #
straight-curve $-1 43.054292428357797 -23.26340348566643 0 0 0 -1 I I #
plane-surface $-1 0 23.26340348566643 0 0 -1 0 0 0 -1 forward_v I I I I #
coedge $-1 $417 $416 $558 $616 forward $167 $-1 #
edge $-1 $552 16.696025141327368 $561 23.26340348566643 $432 $617 forward 7 unknown #
edge $-1 $618 -23.26340348566643 $423 -16.696025141327368 $420 $619 forward 7 unknown #
vertex $-1 $550 $620 #
straight-curve $-1 0 16.696025141327368 7.0809719334999013 1 0 0 I I #
coedge $-1 $421 $420 $427 $559 forward $414 $-1 #
point $-1 -43.054292428357797 16.696025141327368 3.0033676544017336 #
point $-1 -43.054292428357797 16.696025141327368 7.0809719334999013 #
straight-curve $-1 -43.054292428357797 9.9898571567484495 3.0033676544017336 0 -1 0 I I #
coedge $-1 $428 $427 $549 $616 reversed $429 $-1 #
edge $-1 $618 -7.0809719334999013 $430 -3.0033676544017336 $427 $621 forward 7 unknown #
point $-1 -43.054292428357797 23.26340348566643 3.0033676544017336 #
vertex $-1 $550 $622 #
straight-curve $-1 43.054292428357797 23.26340348566643 0 0 0 -1 I I #
straight-curve $-1 43.054292428357797 16.696025141327368 2.5210848969754087 0 0 -1 I I #
coedge $-1 $448 $447 $440 $565 forward $437 $-1 #
edge $-1 $566 53.230065158683729 $569 60.279776251847075 $564 $623 forward 7 unknown #
vertex $-1 $452 $624 #
straight-curve $-1 30.001113836808969 -12.564337199660525 7.0809719334999031 1 0 0 I I #
edge $-1 $569 -8.1819297964179896 $449 -0.58288501006708326 $448 $625 forward 7 unknown #
vertex $-1 $568 $626 #
straight-curve $-1 -8.7671466210274787 -12.564337199660525 68.800635134982002 -0.60181501223851219 0 0.79863551827123203 I I #
point $-1 37.741954233089608 -12.564337199660525 7.0809719334999031 #
point $-1 43.054292428357797 -4.9652924133096192 0.031260840336557294 #
straight-curve $-1 43.054292428357797 0 7.0809719334999013 0 1 0 I I #
vertex $-1 $455 $627 #
point $-1 39.900395318571739 -10.393181546417409 2.5549836155441144 #
vertex $-1 $459 $628 #
point $-1 39.900395318571739 -7.1364480665527346 2.5549836155441144 #
edge $-1 $579 53.230065158683729 $582 60.279776251847075 $464 $629 forward 7 unknown #
vertex $-1 $478 $630 #
straight-curve $-1 30.001113836808969 4.1316879416668453 7.0809719334999031 1 0 0 I I #
edge $-1 $582 0.16608277424569629 $475 7.7651275605966017 $474 $631 forward 7 unknown #
vertex $-1 $581 $632 #
straight-curve $-1 -8.7671466210274787 4.1316879416668453 68.800635134982002 -0.60181501223851219 0 0.79863551827123203 I I #
point $-1 37.741954233089608 4.1316879416668453 7.0809719334999031 #
point $-1 43.054292428357797 11.730732728017751 0.031260840336557294 #
straight-curve $-1 43.054292428357797 0 7.0809719334999013 0 1 0 I I #
vertex $-1 $481 $633 #
point $-1 39.900395318571739 6.3028435949099588 2.5549836155441144 #
vertex $-1 $485 $634 #
point $-1 39.900395318571739 9.5595770747746371 2.5549836155441144 #
edge $-1 $592 28.119140722529536 $595 31.718825767233113 $490 $635 forward 7 unknown #
vertex $-1 $504 $636 #
straight-curve $-1 -48.622090698020273 11.125776734550739 7.0809719334999031 -1 0 0 I I #
edge $-1 $595 -7.1729016469419111 $501 -0.73284852827574376 $500 $637 forward 7 unknown #
vertex $-1 $594 $638 #
straight-curve $-1 -43.05429242835779 11.125776734550739 3.4812868887963333 0.77714595512881146 0 0.62932039886446345 I I #
point $-1 -38.609051693627457 11.125776734550739 7.0809719334999013 #
point $-1 -43.054292428357797 4.6857236158845712 3.4812868887963275 #
straight-curve $-1 -43.054292428357797 0 7.0809719334999013 0 -1 0 I I #
vertex $-1 $507 $639 #
point $-1 -39.813778684563758 6.5257387926463366 4.8186436554515346 #
vertex $-1 $511 $640 #
point $-1 -39.813778684563758 9.2857615577889803 4.8186436554515346 #
straight-curve $-1 -43.054292428357797 23.26340348566643 0 0 0 -1 I I #
point $-1 -43.054292428357797 -23.26340348566643 -7.0809719334999013 #
straight-curve $-1 -43.054292428357797 0 -7.0809719334999013 0 1 0 I I #
point $-1 -43.054292428357797 23.26340348566643 -7.0809719334999013 #
coedge $-1 $537 $533 $542 $613 forward $392 $-1 #
vertex $-1 $534 $641 #
straight-curve $-1 -43.054292428357797 0 7.0809719334999013 0 -1 0 I I #
point $-1 -43.054292428357797 -16.696025141327368 7.0809719334999013 #
straight-curve $-1 43.054292428357797 0 7.0809719334999013 0 1 0 I I #
edge $-1 $609 -43.054292428357797 $546 43.054292428357797 $542 $642 forward 7 unknown #
straight-curve $-1 -43.054292428357797 -23.26340348566643 0 0 0 -1 I I #
point $-1 43.054292428357797 -23.26340348566643 7.0809719334999013 #
edge $-1 $561 -43.054292428357797 $618 43.054292428357797 $558 $643 forward 7 unknown #
straight-curve $-1 43.054292428357797 0 7.0809719334999013 0 1 0 I I #
vertex $-1 $616 $644 #
straight-curve $-1 -43.054292428357797 0 7.0809719334999013 0 -1 0 I I #
point $-1 43.054292428357797 16.696025141327368 7.0809719334999013 #
straight-curve $-1 -43.054292428357797 23.26340348566643 0 0 0 -1 I I #
point $-1 43.054292428357797 23.26340348566643 7.0809719334999013 #
straight-curve $-1 43.054292428357797 -12.564337199660525 60.311037092183632 0 0 -1 I I #
point $-1 43.054292428357797 -12.564337199660525 7.0809719334999013 #
straight-curve $-1 43.054292428357797 -4.382407403242536 0.031260840336564399 0 1 0 I I #
point $-1 43.054292428357797 -12.564337199660525 0.031260840336557294 #
point $-1 39.200170053316867 -10.393181546417409 2.6533938685604741 #
point $-1 39.200170053316867 -7.1364480665527346 2.6533938685604741 #
straight-curve $-1 43.054292428357797 4.1316879416668453 60.311037092183632 0 0 -1 I I #
point $-1 43.054292428357797 4.1316879416668453 7.0809719334999013 #
straight-curve $-1 43.054292428357797 3.965605167421149 0.031260840336564399 0 1 0 I I #
point $-1 43.054292428357797 4.1316879416668453 0.031260840336557294 #
point $-1 39.200170053316867 6.3028435949099588 2.6533938685604741 #
point $-1 39.200170053316867 9.5595770747746371 2.6533938685604741 #
straight-curve $-1 -43.054292428357797 11.125776734550739 35.20011265602944 0 0 -1 I I #
point $-1 -43.054292428357797 11.125776734550739 7.0809719334999013 #
straight-curve $-1 -43.054292428357797 3.9528750876088274 3.4812868887963284 0 -1 0 I I #
point $-1 -43.054292428357797 11.125776734550739 3.4812868887963275 #
point $-1 -39.887691462695933 6.5257387926463366 4.1154104784548968 #
point $-1 -39.887691462695933 9.2857615577889803 4.1154104784548968 #
point $-1 -43.054292428357797 -23.26340348566643 7.0809719334999013 #
straight-curve $-1 0 -23.26340348566643 7.0809719334999013 1 0 0 I I #
straight-curve $-1 0 23.26340348566643 7.0809719334999013 -1 0 0 I I #
point $-1 -43.054292428357797 23.26340348566643 7.0809719334999013 #
End-of-ACIS-data 