500 0 9 0           
7 Unknown 11 ACIS 5.0 NT 24 Fri Mar 26 01:24:25 1999 
-1 9.9999999999999995e-007 1e-010 
body $-1 $9 $-1 $10 #
body $-1 $11 $-1 $12 #
body $-1 $13 $-1 $14 #
body $-1 $15 $-1 $16 #
body $-1 $17 $-1 $18 #
body $-1 $19 $-1 $20 #
body $-1 $21 $-1 $22 #
body $-1 $23 $-1 $24 #
body $-1 $25 $-1 $26 #
lump $-1 $-1 $27 $0 #
transform $-1 1 0 0 0 1 0 0 0 1 67.382427442243724 36.722569545353906 7.4571460767793925 1 rotate no_reflect no_shear #
lump $-1 $-1 $28 $1 #
transform $-1 1 0 0 0 1 0 0 0 1 67.382427442243724 36.722569545353906 7.4571460767793925 1 rotate no_reflect no_shear #
lump $-1 $-1 $29 $2 #
transform $-1 1 0 0 0 1 0 0 0 1 67.382427442243724 36.722569545353906 7.4571460767793925 1 rotate no_reflect no_shear #
lump $-1 $-1 $30 $3 #
transform $-1 1 0 0 0 1 0 0 0 1 67.382427442243724 36.722569545353906 7.4571460767793925 1 rotate no_reflect no_shear #
lump $-1 $-1 $31 $4 #
transform $-1 1 0 0 0 1 0 0 0 1 67.382427442243724 36.722569545353906 7.4571460767793925 1 rotate no_reflect no_shear #
lump $-1 $-1 $32 $5 #
transform $-1 1 0 0 0 1 0 0 0 1 67.382427442243724 36.722569545353906 7.4571460767793925 1 rotate no_reflect no_shear #
lump $-1 $-1 $33 $6 #
transform $-1 1 0 0 0 1 0 0 0 1 67.382427442243724 36.722569545353906 7.4571460767793925 1 rotate no_reflect no_shear #
lump $-1 $-1 $34 $7 #
transform $-1 1 0 0 0 1 0 0 0 1 67.382427442243724 36.722569545353906 7.4571460767793925 1 rotate no_reflect no_shear #
lump $-1 $-1 $35 $8 #
transform $-1 1 0 0 0 1 0 0 0 1 67.382427442243724 36.722569545353906 7.4571460767793925 1 rotate no_reflect no_shear #
shell $-1 $-1 $-1 $36 $-1 $9 #
shell $-1 $-1 $-1 $37 $-1 $11 #
shell $-1 $-1 $-1 $38 $-1 $13 #
shell $-1 $-1 $-1 $39 $-1 $15 #
shell $-1 $-1 $-1 $40 $-1 $17 #
shell $-1 $-1 $-1 $41 $-1 $19 #
shell $-1 $-1 $-1 $42 $-1 $21 #
shell $-1 $-1 $-1 $43 $-1 $23 #
shell $-1 $-1 $-1 $44 $-1 $25 #
face $-1 $45 $46 $27 $-1 $47 forward single #
face $-1 $48 $49 $28 $-1 $50 reversed single #
face $-1 $51 $52 $29 $-1 $53 reversed single #
face $-1 $54 $55 $30 $-1 $56 reversed single #
face $-1 $57 $58 $31 $-1 $59 forward single #
face $-1 $60 $61 $32 $-1 $62 forward single #
face $-1 $63 $64 $33 $-1 $65 reversed single #
face $-1 $66 $67 $34 $-1 $68 forward single #
face $-1 $69 $70 $35 $-1 $71 forward single #
face $-1 $72 $73 $27 $-1 $74 reversed single #
loop $-1 $-1 $75 $36 #
plane-surface $-1 0 0 7.4571460767793925 0 0 1 1 0 0 forward_v I I I I #
face $-1 $76 $77 $28 $-1 $78 reversed single #
loop $-1 $-1 $79 $37 #
plane-surface $-1 0 -34.19389448283053 3.0756204394673743 0 0 1 1 0 0 forward_v I I I I #
face $-1 $80 $81 $29 $-1 $82 reversed single #
loop $-1 $-1 $83 $38 #
plane-surface $-1 0 34.19389448283053 3.0756204394673743 0 0 1 1 0 0 forward_v I I I I #
face $-1 $84 $85 $30 $-1 $86 reversed single #
loop $-1 $-1 $87 $39 #
plane-surface $-1 -150.35195786295466 18.696269633497067 107.68672097779437 0 1 0 -0.61566148304635926 0 0.78801074757464917 forward_v I I I I #
face $-1 $88 $89 $31 $-1 $90 forward single #
loop $-1 $91 $92 $40 #
cone-surface $-1 -62.739131998334436 22.401683858299947 3.4180851550131157 0.61566148304635926 0 -0.78801074757464917 0.78801074757464917 0 0.61566148304635926 1 I I 0 1 1 forward I I I I #
face $-1 $93 $94 $32 $-1 $95 forward single #
loop $-1 $96 $97 $41 #
cone-surface $-1 -62.739131998334436 27.959805195504273 3.4180851550131157 0.61566148304635926 0 -0.78801074757464917 0.78801074757464917 0 0.61566148304635926 1 I I 0 1 1 forward I I I I #
face $-1 $98 $99 $33 $-1 $100 reversed single #
loop $-1 $-1 $101 $42 #
plane-surface $-1 -49.327359903840417 22.964266141257511 69.500072625014454 0.50000000669873634 0 0.8660253999169214 0.8660253999169214 0 -0.50000000669873634 forward_v I I I I #
face $-1 $102 $103 $34 $-1 $104 forward single #
loop $-1 $105 $106 $43 #
cone-surface $-1 61.492676905557666 19.235286164521952 2.5953005961823354 -0.50000000669873634 0 -0.8660253999169214 1.2990380998753821 0 -0.75000001004810457 1 I I 0 1 1.5 forward I I I I #
face $-1 $107 $108 $35 $-1 $109 forward single #
loop $-1 $110 $111 $44 #
cone-surface $-1 61.492676905557666 26.69324611799307 2.5953005961823354 -0.50000000669873634 0 -0.8660253999169214 1.2990380998753821 0 -0.75000001004810457 1 I I 0 1 1.5 forward I I I I #
face $-1 $112 $113 $27 $-1 $114 reversed single #
loop $-1 $-1 $115 $45 #
plane-surface $-1 0 0 -7.4571460767793925 0 0 1 1 0 0 forward_v I I I I #
coedge $-1 $116 $117 $118 $119 forward $46 $-1 #
face $-1 $120 $121 $28 $-1 $122 reversed single #
loop $-1 $-1 $123 $48 #
plane-surface $-1 0 -31.665219420307153 5.2663832581233843 0 -1 0 0 0 -1 forward_v I I I I #
coedge $-1 $124 $125 $126 $127 reversed $49 $-1 #
face $-1 $128 $129 $29 $-1 $130 forward single #
loop $-1 $-1 $131 $51 #
plane-surface $-1 0 31.665219420307153 5.2663832581233843 0 1 0 0 0 1 forward_v I I I I #
coedge $-1 $132 $133 $134 $135 reversed $52 $-1 #
face $-1 $136 $137 $30 $-1 $138 forward single #
loop $-1 $-1 $139 $54 #
plane-surface $-1 -67.382427442243724 25.18074452690211 1.4905669334802951 -0.61566148304635926 0 0.78801074757464917 0.78801074757464917 0 0.61566148304635926 forward_v I I I I #
coedge $-1 $140 $141 $142 $143 reversed $55 $-1 #
face $-1 $-1 $144 $31 $-1 $145 forward single #
loop $-1 $146 $147 $57 #
cone-surface $-1 -61.606442259429187 22.401683858299947 1.9683084311090679 0.61566148304635926 0 -0.78801074757464917 0.39400537378732459 0 0.30783074152317963 1 I I -0.70710678118654746 0.70710678118654746 0.5 forward I I I I #
loop $-1 $-1 $148 $40 #
coedge $-1 $92 $92 $149 $150 reversed $58 $-1 #
face $-1 $-1 $151 $32 $-1 $152 forward single #
loop $-1 $153 $154 $60 #
cone-surface $-1 -61.606442259429187 27.959805195504273 1.9683084311090679 0.61566148304635926 0 -0.78801074757464917 0.39400537378732459 0 0.30783074152317963 1 I I -0.70710678118654746 0.70710678118654746 0.5 forward I I I I #
loop $-1 $-1 $155 $41 #
coedge $-1 $97 $97 $156 $157 reversed $61 $-1 #
face $-1 $158 $159 $33 $-1 $160 forward single #
loop $-1 $-1 $161 $63 #
plane-surface $-1 18.055068441157545 14.263312862207872 186.20985997109858 0 1 0 0.50000000669873634 0 0.8660253999169214 forward_v I I I I #
coedge $-1 $162 $163 $164 $165 reversed $64 $-1 #
face $-1 $-1 $166 $34 $-1 $167 forward single #
loop $-1 $168 $169 $66 #
cone-surface $-1 59.852070480794396 19.235286164521952 -0.24631303597098242 -0.50000000669873634 0 -0.8660253999169214 0.64951904993769105 0 -0.37500000502405229 1 I I -0.70710678118654757 0.70710678118654757 0.75 forward I I I I #
loop $-1 $-1 $170 $43 #
coedge $-1 $106 $106 $171 $172 reversed $67 $-1 #
face $-1 $-1 $173 $35 $-1 $174 forward single #
loop $-1 $175 $176 $69 #
cone-surface $-1 59.852070480794396 26.69324611799307 -0.24631303597098242 -0.50000000669873634 0 -0.8660253999169214 0.64951904993769105 0 -0.37500000502405229 1 I I -0.70710678118654757 0.70710678118654757 0.75 forward I I I I #
loop $-1 $-1 $177 $44 #
coedge $-1 $111 $111 $178 $179 reversed $70 $-1 #
face $-1 $180 $181 $27 $-1 $182 reversed single #
loop $-1 $-1 $183 $72 #
plane-surface $-1 0 -36.722569545353906 0 0 1 0 0 0 1 forward_v I I I I #
coedge $-1 $184 $185 $186 $187 forward $73 $-1 #
coedge $-1 $188 $75 $189 $190 forward $46 $-1 #
coedge $-1 $75 $188 $191 $192 forward $46 $-1 #
coedge $-1 $193 $194 $75 $119 reversed $195 $-1 #
edge $-1 $196 -36.722569545353906 $197 36.722569545353906 $118 $198 forward 7 unknown #
face $-1 $199 $200 $28 $-1 $201 reversed single #
loop $-1 $-1 $202 $76 #
plane-surface $-1 -67.382427442243724 0 0 1 0 0 0 0 -1 forward_v I I I I #
coedge $-1 $203 $204 $205 $206 reversed $77 $-1 #
coedge $-1 $207 $79 $208 $209 reversed $49 $-1 #
coedge $-1 $79 $207 $203 $210 forward $49 $-1 #
coedge $-1 $205 $211 $79 $127 forward $212 $-1 #
edge $-1 $213 -19.625622303938641 $214 -14.568272178891888 $126 $215 forward 7 unknown #
face $-1 $216 $217 $29 $-1 $218 reversed single #
loop $-1 $-1 $219 $80 #
plane-surface $-1 0 0 7.4571460767793925 0 0 1 1 0 0 forward_v I I I I #
coedge $-1 $220 $221 $219 $222 reversed $81 $-1 #
coedge $-1 $223 $83 $224 $225 forward $52 $-1 #
coedge $-1 $83 $223 $226 $227 reversed $52 $-1 #
coedge $-1 $228 $229 $83 $135 forward $217 $-1 #
edge $-1 $230 14.568272178891888 $231 19.625622303938641 $134 $232 forward 7 unknown #
face $-1 $233 $234 $30 $-1 $235 forward single #
loop $-1 $-1 $142 $84 #
plane-surface $-1 0 0 7.4571460767793925 0 0 1 1 0 0 forward_v I I I I #
coedge $-1 $236 $237 $238 $239 reversed $85 $-1 #
coedge $-1 $141 $87 $240 $241 reversed $55 $-1 #
coedge $-1 $87 $140 $236 $242 reversed $55 $-1 #
coedge $-1 $238 $243 $87 $143 forward $137 $-1 #
edge $-1 $244 7.7935514892336073 $245 15.430424382288038 $142 $246 forward 7 unknown #
loop $-1 $-1 $149 $88 #
plane-surface $-1 -67.382427442243724 25.18074452690211 1.4905669334802951 -0.61566148304635926 0 0.78801074757464917 0.78801074757464917 0 0.61566148304635926 forward_v I I I I #
loop $-1 $-1 $247 $57 #
coedge $-1 $147 $147 $148 $248 reversed $89 $-1 #
coedge $-1 $148 $148 $147 $248 forward $91 $-1 #
coedge $-1 $149 $149 $92 $150 forward $144 $-1 #
edge $-1 $249 0 $249 6.2831853071796004 $149 $250 forward 7 unknown #
loop $-1 $-1 $156 $93 #
plane-surface $-1 -67.382427442243724 25.18074452690211 1.4905669334802951 -0.61566148304635926 0 0.78801074757464917 0.78801074757464917 0 0.61566148304635926 forward_v I I I I #
loop $-1 $-1 $251 $60 #
coedge $-1 $154 $154 $155 $252 reversed $94 $-1 #
coedge $-1 $155 $155 $154 $252 forward $96 $-1 #
coedge $-1 $156 $156 $97 $157 forward $151 $-1 #
edge $-1 $253 0 $253 6.2831853071796004 $156 $254 forward 7 unknown #
face $-1 $255 $256 $33 $-1 $257 reversed single #
loop $-1 $-1 $164 $98 #
plane-surface $-1 0 0 7.4571460767793925 0 0 1 1 0 0 forward_v I I I I #
coedge $-1 $258 $259 $260 $261 reversed $99 $-1 #
coedge $-1 $262 $101 $263 $264 reversed $64 $-1 #
coedge $-1 $101 $262 $258 $265 forward $64 $-1 #
coedge $-1 $260 $266 $101 $165 forward $159 $-1 #
edge $-1 $267 -20.183086349678394 $268 -2.7811797915791168 $164 $269 forward 7 unknown #
loop $-1 $-1 $171 $102 #
plane-surface $-1 -49.327359903840417 22.964266141257511 69.500072625014454 0.50000000669873634 0 0.8660253999169214 0.8660253999169214 0 -0.50000000669873634 forward_v I I I I #
loop $-1 $-1 $270 $66 #
coedge $-1 $169 $169 $170 $271 reversed $103 $-1 #
coedge $-1 $170 $170 $169 $271 forward $105 $-1 #
coedge $-1 $171 $171 $106 $172 forward $166 $-1 #
edge $-1 $272 0 $272 6.2831853071796004 $171 $273 forward 7 unknown #
loop $-1 $-1 $178 $107 #
plane-surface $-1 -49.327359903840417 22.964266141257511 69.500072625014454 0.50000000669873634 0 0.8660253999169214 0.8660253999169214 0 -0.50000000669873634 forward_v I I I I #
loop $-1 $-1 $274 $69 #
coedge $-1 $176 $176 $177 $275 reversed $108 $-1 #
coedge $-1 $177 $177 $176 $275 forward $110 $-1 #
coedge $-1 $178 $178 $111 $179 forward $173 $-1 #
edge $-1 $276 0 $276 6.2831853071796004 $178 $277 forward 7 unknown #
face $-1 $278 $279 $27 $-1 $280 reversed single #
loop $-1 $-1 $281 $112 #
plane-surface $-1 -67.382427442243724 0 0 1 0 0 0 0 -1 forward_v I I I I #
coedge $-1 $282 $191 $283 $284 forward $113 $-1 #
coedge $-1 $285 $115 $282 $286 forward $73 $-1 #
coedge $-1 $115 $285 $287 $288 forward $73 $-1 #
coedge $-1 $194 $193 $115 $187 reversed $195 $-1 #
edge $-1 $289 -36.722569545353906 $290 36.722569545353906 $186 $291 forward 7 unknown #
coedge $-1 $117 $116 $292 $293 forward $46 $-1 #
coedge $-1 $294 $295 $116 $190 reversed $279 $-1 #
edge $-1 $197 -67.382427442243724 $296 67.382427442243724 $189 $297 forward 7 unknown #
coedge $-1 $183 $298 $117 $192 reversed $113 $-1 #
edge $-1 $299 -67.382427442243724 $196 67.382427442243724 $191 $300 forward 7 unknown #
coedge $-1 $186 $118 $298 $301 forward $195 $-1 #
coedge $-1 $118 $186 $294 $302 reversed $195 $-1 #
loop $-1 $-1 $193 $278 #
vertex $-1 $119 $303 #
vertex $-1 $119 $304 #
straight-curve $-1 67.382427442243724 0 7.4571460767793925 0 1 0 I I #
face $-1 $305 $306 $28 $-1 $307 forward single #
loop $-1 $-1 $208 $120 #
plane-surface $-1 0 -36.722569545353906 0 0 1 0 0 0 1 forward_v I I I I #
coedge $-1 $308 $309 $310 $311 forward $121 $-1 #
coedge $-1 $310 $123 $125 $210 reversed $77 $-1 #
coedge $-1 $123 $310 $312 $313 reversed $77 $-1 #
coedge $-1 $314 $126 $123 $206 forward $212 $-1 #
edge $-1 $214 0.44242881040568216 $315 4.8239544477177017 $205 $316 forward 7 unknown #
coedge $-1 $125 $124 $308 $317 reversed $49 $-1 #
coedge $-1 $318 $319 $124 $209 forward $200 $-1 #
edge $-1 $320 -67.382427442243724 $213 67.382427442243724 $208 $321 forward 7 unknown #
edge $-1 $322 -67.382427442243724 $214 67.382427442243724 $203 $323 forward 7 unknown #
coedge $-1 $126 $314 $318 $324 forward $212 $-1 #
loop $-1 $-1 $205 $305 #
vertex $-1 $209 $325 #
vertex $-1 $127 $326 #
straight-curve $-1 67.382427442243724 -17.096947241415265 3.0756204394673743 0 1 0 I I #
face $-1 $327 $328 $29 $-1 $329 reversed single #
loop $-1 $-1 $229 $128 #
plane-surface $-1 67.382427442243724 0 0 -1 0 0 0 0 1 forward_v I I I I #
coedge $-1 $330 $331 $131 $222 forward $129 $-1 #
coedge $-1 $224 $131 $332 $333 reversed $81 $-1 #
coedge $-1 $131 $224 $229 $334 reversed $81 $-1 #
edge $-1 $335 -67.382427442243724 $336 67.382427442243724 $219 $337 forward 7 unknown #
coedge $-1 $133 $132 $338 $339 reversed $52 $-1 #
coedge $-1 $221 $220 $132 $225 reversed $81 $-1 #
edge $-1 $230 -67.382427442243724 $340 67.382427442243724 $224 $341 forward 7 unknown #
coedge $-1 $342 $343 $133 $227 forward $344 $-1 #
edge $-1 $231 -67.382427442243724 $345 67.382427442243724 $226 $346 forward 7 unknown #
coedge $-1 $347 $134 $343 $348 reversed $217 $-1 #
coedge $-1 $134 $347 $221 $334 forward $217 $-1 #
vertex $-1 $135 $349 #
vertex $-1 $227 $350 #
straight-curve $-1 67.382427442243724 17.096947241415265 3.0756204394673743 0 1 0 I I #
face $-1 $-1 $351 $30 $-1 $352 reversed single #
loop $-1 $-1 $353 $136 #
plane-surface $-1 0 31.665219420307153 5.2663832581233843 0 1 0 0 0 1 forward_v I I I I #
coedge $-1 $354 $139 $141 $242 forward $85 $-1 #
coedge $-1 $139 $354 $353 $355 forward $85 $-1 #
coedge $-1 $356 $142 $139 $239 forward $137 $-1 #
edge $-1 $245 6.1058973700460122 $357 19.074847156856098 $238 $358 forward 7 unknown #
coedge $-1 $359 $360 $140 $241 forward $351 $-1 #
edge $-1 $361 -52.352793555416888 $244 -46.386214412117788 $240 $362 forward 7 unknown #
edge $-1 $245 -9.6913308816653938 $361 0 $141 $363 forward 7 unknown #
coedge $-1 $142 $356 $359 $364 forward $137 $-1 #
vertex $-1 $241 $365 #
vertex $-1 $143 $366 #
straight-curve $-1 -75.175978931477331 18.696269633497067 7.4571460767793951 1 0 0 I I #
coedge $-1 $247 $247 $-1 $367 reversed $146 $-1 #
edge $-1 $368 0 $368 6.2831853071796004 $147 $369 forward 7 unknown #
vertex $-1 $150 $370 #
ellipse-curve $-1 -63.563990995716509 22.401683858299947 4.4738565051298442 -0.61566148304635926 0 0.78801074757464917 0.78801074757464917 0 0.61566148304635926 1 I I #
coedge $-1 $251 $251 $-1 $371 reversed $153 $-1 #
edge $-1 $372 0 $372 6.2831853071796004 $154 $373 forward 7 unknown #
vertex $-1 $157 $374 #
ellipse-curve $-1 -63.563990995716509 27.959805195504273 4.4738565051298442 -0.61566148304635926 0 0.78801074757464917 0.78801074757464917 0 0.61566148304635926 1 I I #
face $-1 $-1 $375 $33 $-1 $376 forward single #
loop $-1 $-1 $377 $158 #
plane-surface $-1 67.382427442243724 0 0 -1 0 0 0 0 1 forward_v I I I I #
coedge $-1 $259 $161 $163 $265 reversed $99 $-1 #
coedge $-1 $161 $258 $377 $378 reversed $99 $-1 #
coedge $-1 $379 $164 $161 $261 forward $159 $-1 #
edge $-1 $268 49.106604987771206 $380 58.354893221664952 $260 $381 forward 7 unknown #
coedge $-1 $163 $162 $382 $383 reversed $64 $-1 #
coedge $-1 $384 $385 $162 $264 forward $375 $-1 #
edge $-1 $386 -97.347059033837795 $267 -86.668055583383619 $263 $387 forward 7 unknown #
edge $-1 $388 -134.76485488448748 $268 -124.08585143403332 $258 $389 forward 7 unknown #
coedge $-1 $164 $379 $384 $390 forward $159 $-1 #
vertex $-1 $264 $391 #
vertex $-1 $165 $392 #
straight-curve $-1 58.13413920834995 11.482133070628755 7.4571460767794022 0 -1 0 I I #
coedge $-1 $270 $270 $-1 $393 reversed $168 $-1 #
edge $-1 $394 0 $394 6.2831853071796004 $169 $395 forward 7 unknown #
vertex $-1 $172 $396 #
ellipse-curve $-1 62.758283325296858 19.235286164521952 4.7873951783979241 0.50000000669873634 0 0.8660253999169214 1.2990380998753821 0 -0.75000001004810457 1 I I #
coedge $-1 $274 $274 $-1 $397 reversed $175 $-1 #
edge $-1 $398 0 $398 6.2831853071796004 $176 $399 forward 7 unknown #
vertex $-1 $179 $400 #
ellipse-curve $-1 62.758283325296858 26.69324611799307 4.7873951783979241 0.50000000669873634 0 0.8660253999169214 1.2990380998753821 0 -0.75000001004810457 1 I I #
face $-1 $-1 $195 $27 $-1 $401 reversed single #
loop $-1 $-1 $294 $180 #
plane-surface $-1 0 36.722569545353906 0 0 -1 0 0 0 -1 forward_v I I I I #
coedge $-1 $402 $292 $295 $403 forward $181 $-1 #
coedge $-1 $298 $183 $184 $286 reversed $113 $-1 #
coedge $-1 $292 $402 $183 $284 reversed $181 $-1 #
edge $-1 $299 -7.4571460767793925 $404 7.4571460767793925 $283 $405 forward 7 unknown #
coedge $-1 $185 $184 $402 $406 forward $73 $-1 #
edge $-1 $290 -67.382427442243724 $404 67.382427442243724 $282 $407 forward 7 unknown #
coedge $-1 $295 $294 $185 $288 reversed $279 $-1 #
edge $-1 $408 -67.382427442243724 $289 67.382427442243724 $287 $409 forward 7 unknown #
vertex $-1 $187 $410 #
vertex $-1 $301 $411 #
straight-curve $-1 67.382427442243724 0 -7.4571460767793925 0 -1 0 I I #
coedge $-1 $281 $283 $188 $293 reversed $181 $-1 #
edge $-1 $296 -36.722569545353906 $299 36.722569545353906 $292 $412 forward 7 unknown #
coedge $-1 $287 $189 $194 $302 forward $279 $-1 #
coedge $-1 $189 $287 $281 $403 reversed $279 $-1 #
vertex $-1 $190 $413 #
straight-curve $-1 0 36.722569545353906 7.4571460767793925 -1 0 0 I I #
coedge $-1 $191 $282 $193 $301 reversed $113 $-1 #
vertex $-1 $293 $414 #
straight-curve $-1 0 -36.722569545353906 7.4571460767793925 1 0 0 I I #
edge $-1 $196 -7.4571460767793925 $290 7.4571460767793925 $193 $415 forward 7 unknown #
edge $-1 $197 -7.4571460767793925 $289 7.4571460767793925 $194 $416 forward 7 unknown #
point $-1 67.382427442243724 -36.722569545353906 7.4571460767793925 #
point $-1 67.382427442243724 36.722569545353906 7.4571460767793925 #
face $-1 $-1 $212 $28 $-1 $417 reversed single #
loop $-1 $-1 $312 $199 #
plane-surface $-1 0 0 7.4571460767793925 0 0 1 1 0 0 forward_v I I I I #
coedge $-1 $418 $202 $207 $317 forward $121 $-1 #
coedge $-1 $202 $418 $419 $420 reversed $121 $-1 #
coedge $-1 $204 $203 $202 $311 reversed $77 $-1 #
edge $-1 $421 -4.8239544477177017 $322 -0.44242881040568216 $202 $422 forward 7 unknown #
coedge $-1 $419 $423 $204 $313 forward $306 $-1 #
edge $-1 $315 -67.382427442243724 $421 67.382427442243724 $312 $424 forward 7 unknown #
coedge $-1 $211 $205 $423 $425 reversed $212 $-1 #
vertex $-1 $206 $426 #
straight-curve $-1 67.382427442243724 -31.665219420307153 2.6331916290616921 0 0 1 I I #
edge $-1 $322 14.568272178891888 $320 19.625622303938641 $308 $427 forward 7 unknown #
coedge $-1 $428 $208 $211 $324 reversed $200 $-1 #
coedge $-1 $208 $428 $418 $429 forward $200 $-1 #
vertex $-1 $209 $430 #
straight-curve $-1 0 -36.722569545353906 3.0756204394673743 1 0 0 I I #
vertex $-1 $317 $431 #
straight-curve $-1 0 -31.665219420307153 3.0756204394673743 1 0 0 I I #
edge $-1 $432 -7.4571460767793925 $213 -3.0756204394673743 $211 $433 forward 7 unknown #
point $-1 67.382427442243724 -36.722569545353906 3.0756204394673743 #
point $-1 67.382427442243724 -31.665219420307153 3.0756204394673743 #
face $-1 $-1 $344 $29 $-1 $434 reversed single #
loop $-1 $-1 $332 $216 #
plane-surface $-1 -67.382427442243724 0 0 1 0 0 0 0 -1 forward_v I I I I #
coedge $-1 $435 $219 $347 $436 forward $129 $-1 #
coedge $-1 $219 $435 $437 $438 forward $129 $-1 #
coedge $-1 $437 $338 $220 $333 forward $328 $-1 #
edge $-1 $340 0.44242881040568216 $335 4.8239544477177017 $332 $439 forward 7 unknown #
edge $-1 $336 -4.8239544477177017 $230 -0.44242881040568216 $229 $440 forward 7 unknown #
vertex $-1 $333 $441 #
vertex $-1 $436 $442 #
straight-curve $-1 0 31.665219420307153 7.4571460767793925 1 0 0 I I #
coedge $-1 $332 $443 $223 $339 forward $328 $-1 #
edge $-1 $345 -19.625622303938641 $340 -14.568272178891888 $338 $444 forward 7 unknown #
vertex $-1 $339 $445 #
straight-curve $-1 0 31.665219420307153 3.0756204394673743 -1 0 0 I I #
coedge $-1 $446 $226 $443 $447 reversed $344 $-1 #
coedge $-1 $226 $446 $228 $348 forward $344 $-1 #
loop $-1 $-1 $226 $327 #
vertex $-1 $227 $448 #
straight-curve $-1 0 36.722569545353906 3.0756204394673743 -1 0 0 I I #
coedge $-1 $229 $228 $330 $436 reversed $217 $-1 #
edge $-1 $449 -7.4571460767793925 $231 -3.0756204394673743 $228 $450 forward 7 unknown #
point $-1 67.382427442243724 31.665219420307153 3.0756204394673743 #
point $-1 67.382427442243724 36.722569545353906 3.0756204394673743 #
loop $-1 $-1 $240 $233 #
plane-surface $-1 -67.382427442243724 0 0 1 0 0 0 0 -1 forward_v I I I I #
coedge $-1 $451 $452 $237 $355 reversed $234 $-1 #
coedge $-1 $237 $236 $360 $453 reversed $85 $-1 #
edge $-1 $454 0 $357 9.6913308816653885 $353 $455 forward 7 unknown #
coedge $-1 $243 $238 $452 $456 forward $137 $-1 #
vertex $-1 $456 $457 #
straight-curve $-1 -59.745554549189293 12.590372263451055 7.4571460767793898 0 1 0 I I #
coedge $-1 $458 $240 $243 $364 reversed $351 $-1 #
coedge $-1 $240 $458 $354 $453 forward $351 $-1 #
vertex $-1 $241 $459 #
straight-curve $-1 -67.382427442243724 18.696269633497067 53.843360488897183 0 0 1 I I #
straight-curve $-1 -67.382427442243724 18.696269633497067 1.4905669334802951 -0.78801074757464917 0 -0.61566148304635926 I I #
edge $-1 $460 -31.665219420307153 $244 -18.696269633497067 $359 $461 forward 7 unknown #
point $-1 -67.382427442243724 18.696269633497067 7.4571460767793925 #
point $-1 -59.745554549189293 18.696269633497067 7.4571460767793933 #
edge $-1 $462 1 $462 0 $247 $-1 forward 7 unknown #
vertex $-1 $248 $463 #
ellipse-curve $-1 -61.914273000952363 22.401683858299947 2.3623138048963925 -0.61566148304635926 0 0.78801074757464917 0.78801074757464917 0 0.61566148304635926 1 I I #
point $-1 -62.775980248141856 22.401683858299947 5.0895179881761985 #
edge $-1 $464 1 $464 0 $251 $-1 forward 7 unknown #
vertex $-1 $252 $465 #
ellipse-curve $-1 -61.914273000952363 27.959805195504273 2.3623138048963925 -0.61566148304635926 0 0.78801074757464917 0.78801074757464917 0 0.61566148304635926 1 I I #
point $-1 -62.775980248141856 27.959805195504273 5.0895179881761985 #
loop $-1 $-1 $263 $255 #
plane-surface $-1 0 31.665219420307153 5.2663832581233843 0 1 0 0 0 1 forward_v I I I I #
coedge $-1 $382 $466 $259 $378 forward $256 $-1 #
edge $-1 $380 85.647783908769895 $388 90.987285705532813 $377 $467 forward 7 unknown #
coedge $-1 $266 $260 $466 $468 forward $159 $-1 #
vertex $-1 $468 $469 #
straight-curve $-1 9.0275342205787723 14.263312862207872 7.4571460767793951 1 0 0 I I #
coedge $-1 $470 $377 $262 $383 forward $256 $-1 #
edge $-1 $388 2.7811797915791168 $386 20.183086349678394 $382 $471 forward 7 unknown #
coedge $-1 $385 $263 $266 $390 reversed $375 $-1 #
coedge $-1 $263 $384 $470 $472 reversed $375 $-1 #
vertex $-1 $472 $473 #
straight-curve $-1 -16.922598288271793 31.665219420307153 50.791174449037655 -0.8660253999169214 0 0.50000000669873634 I I #
vertex $-1 $383 $474 #
straight-curve $-1 -49.327359903840417 14.263312862207872 69.500072625014454 -0.8660253999169214 0 0.50000000669873634 I I #
edge $-1 $475 -67.382427442243724 $267 -58.134139208349978 $266 $476 forward 7 unknown #
point $-1 58.134139208349978 31.66521942030715 7.4571460767793951 #
point $-1 58.134139208349978 14.263312862207872 7.4571460767793951 #
edge $-1 $477 1 $477 0 $270 $-1 forward 7 unknown #
vertex $-1 $271 $478 #
ellipse-curve $-1 60.227070485818444 19.235286164521952 0.40320601396670863 0.50000000669873634 0 0.8660253999169214 1.2990380998753821 0 -0.75000001004810457 1 I I #
point $-1 64.057321425172262 19.235286164521952 4.0373951683498577 #
edge $-1 $479 1 $479 0 $274 $-1 forward 7 unknown #
vertex $-1 $275 $480 #
ellipse-curve $-1 60.227070485818444 26.69324611799307 0.40320601396670863 0.50000000669873634 0 0.8660253999169214 1.2990380998753821 0 -0.75000001004810457 1 I I #
point $-1 64.057321425172262 26.69324611799307 4.0373951683498577 #
plane-surface $-1 67.382427442243724 0 0 -1 0 0 0 0 1 forward_v I I I I #
coedge $-1 $283 $281 $285 $406 reversed $181 $-1 #
edge $-1 $296 -7.4571460767793925 $408 7.4571460767793925 $295 $481 forward 7 unknown #
vertex $-1 $406 $482 #
straight-curve $-1 -67.382427442243724 -36.722569545353906 0 0 0 -1 I I #
edge $-1 $404 -36.722569545353906 $408 36.722569545353906 $402 $483 forward 7 unknown #
straight-curve $-1 0 -36.722569545353906 -7.4571460767793925 -1 0 0 I I #
vertex $-1 $288 $484 #
straight-curve $-1 0 36.722569545353906 -7.4571460767793925 1 0 0 I I #
point $-1 67.382427442243724 36.722569545353906 -7.4571460767793925 #
point $-1 67.382427442243724 -36.722569545353906 -7.4571460767793925 #
straight-curve $-1 -67.382427442243724 0 7.4571460767793925 0 -1 0 I I #
point $-1 -67.382427442243724 36.722569545353906 7.4571460767793925 #
point $-1 -67.382427442243724 -36.722569545353906 7.4571460767793925 #
straight-curve $-1 67.382427442243724 -36.722569545353906 0 0 0 -1 I I #
straight-curve $-1 67.382427442243724 36.722569545353906 0 0 0 -1 I I #
plane-surface $-1 67.382427442243724 0 0 -1 0 0 0 0 1 forward_v I I I I #
coedge $-1 $309 $308 $319 $429 reversed $121 $-1 #
coedge $-1 $485 $312 $309 $420 forward $306 $-1 #
edge $-1 $421 31.665219420307153 $486 36.722569545353906 $309 $487 forward 7 unknown #
vertex $-1 $420 $488 #
straight-curve $-1 -67.382427442243724 -31.665219420307153 2.6331916290616921 0 0 -1 I I #
coedge $-1 $312 $485 $314 $425 forward $306 $-1 #
straight-curve $-1 0 -31.665219420307153 7.4571460767793925 -1 0 0 I I #
edge $-1 $432 -36.722569545353906 $315 -31.665219420307153 $314 $489 forward 7 unknown #
point $-1 67.382427442243724 -31.665219420307153 7.4571460767793942 #
straight-curve $-1 -67.382427442243724 -17.096947241415265 3.0756204394673743 0 -1 0 I I #
coedge $-1 $319 $318 $485 $490 reversed $200 $-1 #
edge $-1 $486 -7.4571460767793925 $320 -3.0756204394673743 $418 $491 forward 7 unknown #
point $-1 -67.382427442243724 -36.722569545353906 3.0756204394673743 #
point $-1 -67.382427442243724 -31.665219420307153 3.0756204394673743 #
vertex $-1 $425 $492 #
straight-curve $-1 67.382427442243724 -36.722569545353906 0 0 0 -1 I I #
plane-surface $-1 0 36.722569545353906 0 0 -1 0 0 0 -1 forward_v I I I I #
coedge $-1 $331 $330 $446 $493 forward $129 $-1 #
edge $-1 $336 31.665219420307153 $449 36.722569545353906 $347 $494 forward 7 unknown #
coedge $-1 $443 $332 $331 $438 reversed $328 $-1 #
edge $-1 $495 -36.722569545353906 $335 -31.665219420307153 $437 $496 forward 7 unknown #
straight-curve $-1 -67.382427442243724 31.665219420307153 2.6331916290616921 0 0 1 I I #
straight-curve $-1 67.382427442243724 31.665219420307153 2.6331916290616921 0 0 -1 I I #
point $-1 -67.382427442243724 31.665219420307153 7.4571460767793942 #
point $-1 67.382427442243724 31.665219420307153 7.4571460767793942 #
coedge $-1 $338 $437 $342 $447 forward $328 $-1 #
straight-curve $-1 -67.382427442243724 17.096947241415265 3.0756204394673743 0 -1 0 I I #
point $-1 -67.382427442243724 31.665219420307153 3.0756204394673743 #
coedge $-1 $343 $342 $435 $493 reversed $344 $-1 #
edge $-1 $495 -7.4571460767793925 $345 -3.0756204394673743 $342 $497 forward 7 unknown #
point $-1 -67.382427442243724 36.722569545353906 3.0756204394673743 #
vertex $-1 $436 $498 #
straight-curve $-1 67.382427442243724 36.722569545353906 0 0 0 -1 I I #
coedge $-1 $452 $353 $458 $499 reversed $234 $-1 #
coedge $-1 $353 $451 $356 $456 reversed $234 $-1 #
edge $-1 $454 -19.074847156856098 $361 -6.1058973700460122 $360 $500 forward 7 unknown #
vertex $-1 $499 $501 #
straight-curve $-1 -67.382427442243724 31.665219420307153 1.4905669334802951 0.78801074757464917 0 0.61566148304635926 I I #
edge $-1 $357 59.745554549189301 $460 67.382427442243724 $356 $502 forward 7 unknown #
point $-1 -59.745554549189301 31.665219420307153 7.4571460767793925 #
coedge $-1 $360 $359 $451 $499 forward $351 $-1 #
point $-1 -67.382427442243724 18.696269633497067 1.4905669334802951 #
vertex $-1 $364 $503 #
straight-curve $-1 -67.382427442243724 0 7.4571460767793925 0 -1 0 I I #
vertex $-1 $367 $504 #
point $-1 -61.126262253377718 22.401683858299947 2.9779752879427517 #
vertex $-1 $371 $505 #
point $-1 -61.126262253377718 27.959805195504273 2.9779752879427517 #
coedge $-1 $377 $470 $379 $468 reversed $256 $-1 #
straight-curve $-1 67.382427442243724 14.263312862207872 93.10492998554929 0 0 -1 I I #
edge $-1 $380 14.263312862207872 $475 31.665219420307153 $466 $506 forward 7 unknown #
point $-1 67.382427442243724 14.263312862207872 7.4571460767793925 #
coedge $-1 $466 $382 $385 $472 forward $256 $-1 #
straight-curve $-1 67.382427442243724 11.482133070628755 2.117644280016485 0 1 0 I I #
edge $-1 $386 -90.987285705532813 $475 -85.647783908769895 $470 $507 forward 7 unknown #
point $-1 67.382427442243724 31.66521942030715 2.1176442800164779 #
point $-1 67.382427442243724 14.263312862207872 2.1176442800164779 #
vertex $-1 $390 $508 #
straight-curve $-1 0 31.665219420307153 7.4571460767793925 -1 0 0 I I #
vertex $-1 $393 $509 #
point $-1 61.526108585693834 19.235286164521952 -0.34679399608139594 #
vertex $-1 $397 $510 #
point $-1 61.526108585693834 26.69324611799307 -0.34679399608139594 #
straight-curve $-1 -67.382427442243724 36.722569545353906 0 0 0 -1 I I #
point $-1 -67.382427442243724 -36.722569545353906 -7.4571460767793925 #
straight-curve $-1 -67.382427442243724 0 -7.4571460767793925 0 1 0 I I #
point $-1 -67.382427442243724 36.722569545353906 -7.4571460767793925 #
coedge $-1 $423 $419 $428 $490 forward $306 $-1 #
vertex $-1 $420 $511 #
straight-curve $-1 -67.382427442243724 0 7.4571460767793925 0 -1 0 I I #
point $-1 -67.382427442243724 -31.665219420307153 7.4571460767793942 #
straight-curve $-1 67.382427442243724 0 7.4571460767793925 0 1 0 I I #
edge $-1 $486 -67.382427442243724 $432 67.382427442243724 $428 $512 forward 7 unknown #
straight-curve $-1 -67.382427442243724 -36.722569545353906 0 0 0 -1 I I #
point $-1 67.382427442243724 -36.722569545353906 7.4571460767793925 #
edge $-1 $449 -67.382427442243724 $495 67.382427442243724 $446 $513 forward 7 unknown #
straight-curve $-1 67.382427442243724 0 7.4571460767793925 0 1 0 I I #
vertex $-1 $493 $514 #
straight-curve $-1 -67.382427442243724 0 7.4571460767793925 0 -1 0 I I #
straight-curve $-1 -67.382427442243724 36.722569545353906 0 0 0 -1 I I #
point $-1 67.382427442243724 36.722569545353906 7.4571460767793925 #
edge $-1 $460 46.386214412117788 $454 52.352793555416888 $458 $515 forward 7 unknown #
straight-curve $-1 -67.382427442243724 12.590372263451055 1.4905669334802907 0 -1 0 I I #
point $-1 -67.382427442243724 31.665219420307153 1.4905669334802951 #
straight-curve $-1 0 31.665219420307153 7.4571460767793925 -1 0 0 I I #
point $-1 -67.382427442243724 31.665219420307153 7.4571460767793942 #
point $-1 -61.298611517906011 22.401683858299947 1.5743030573217434 #
point $-1 -61.298611517906011 27.959805195504273 1.5743030573217434 #
straight-curve $-1 67.382427442243724 0 7.4571460767793925 0 1 0 I I #
straight-curve $-1 67.382427442243724 31.66521942030715 93.10492998554929 0 0 1 I I #
point $-1 67.382427442243724 31.665219420307153 7.4571460767793942 #
point $-1 59.477070475770347 19.235286164521952 -0.89583208590867347 #
point $-1 59.477070475770347 26.69324611799307 -0.89583208590867347 #
point $-1 -67.382427442243724 -36.722569545353906 7.4571460767793925 #
straight-curve $-1 0 -36.722569545353906 7.4571460767793925 1 0 0 I I #
straight-curve $-1 0 36.722569545353906 7.4571460767793925 -1 0 0 I I #
point $-1 -67.382427442243724 36.722569545353906 7.4571460767793925 #
straight-curve $-1 -67.382427442243724 31.665219420307153 53.843360488897183 0 0 -1 I I #
End-of-ACIS-data 