500 0 10 0           
7 Unknown 11 ACIS 5.0 NT 24 Thu Mar 25 23:54:29 1999 
-1 9.9999999999999995e-007 1e-010 
body $-1 $10 $-1 $11 #
body $-1 $12 $-1 $13 #
body $-1 $14 $-1 $15 #
body $-1 $16 $-1 $17 #
body $-1 $18 $-1 $19 #
body $-1 $20 $-1 $21 #
body $-1 $22 $-1 $23 #
body $-1 $24 $-1 $25 #
body $-1 $26 $-1 $27 #
body $-1 $28 $-1 $29 #
lump $-1 $-1 $30 $0 #
transform $-1 1 0 0 0 1 0 0 0 1 66.084780419324318 41.763273995519889 17.511464290494903 1 rotate no_reflect no_shear #
lump $-1 $-1 $31 $1 #
transform $-1 1 0 0 0 1 0 0 0 1 66.084780419324318 41.763273995519889 17.511464290494903 1 rotate no_reflect no_shear #
lump $-1 $-1 $32 $2 #
transform $-1 1 0 0 0 1 0 0 0 1 66.084780419324318 41.763273995519889 17.511464290494903 1 rotate no_reflect no_shear #
lump $-1 $-1 $33 $3 #
transform $-1 1 0 0 0 1 0 0 0 1 66.084780419324318 41.763273995519889 17.511464290494903 1 rotate no_reflect no_shear #
lump $-1 $-1 $34 $4 #
transform $-1 1 0 0 0 1 0 0 0 1 66.084780419324318 41.763273995519889 17.511464290494903 1 rotate no_reflect no_shear #
lump $-1 $-1 $35 $5 #
transform $-1 1 0 0 0 1 0 0 0 1 66.084780419324318 41.763273995519889 17.511464290494903 1 rotate no_reflect no_shear #
lump $-1 $-1 $36 $6 #
transform $-1 1 0 0 0 1 0 0 0 1 66.084780419324318 41.763273995519889 17.511464290494903 1 rotate no_reflect no_shear #
lump $-1 $-1 $37 $7 #
transform $-1 1 0 0 0 1 0 0 0 1 66.084780419324318 41.763273995519889 17.511464290494903 1 rotate no_reflect no_shear #
lump $-1 $-1 $38 $8 #
transform $-1 1 0 0 0 1 0 0 0 1 66.084780419324318 41.763273995519889 17.511464290494903 1 rotate no_reflect no_shear #
lump $-1 $-1 $39 $9 #
transform $-1 1 0 0 0 1 0 0 0 1 66.084780419324318 41.763273995519889 17.511464290494903 1 rotate no_reflect no_shear #
shell $-1 $-1 $-1 $40 $-1 $10 #
shell $-1 $-1 $-1 $41 $-1 $12 #
shell $-1 $-1 $-1 $42 $-1 $14 #
shell $-1 $-1 $-1 $43 $-1 $16 #
shell $-1 $-1 $-1 $44 $-1 $18 #
shell $-1 $-1 $-1 $45 $-1 $20 #
shell $-1 $-1 $-1 $46 $-1 $22 #
shell $-1 $-1 $-1 $47 $-1 $24 #
shell $-1 $-1 $-1 $48 $-1 $26 #
shell $-1 $-1 $-1 $49 $-1 $28 #
face $-1 $50 $51 $30 $-1 $52 forward single #
face $-1 $53 $54 $31 $-1 $55 reversed single #
face $-1 $56 $57 $32 $-1 $58 reversed single #
face $-1 $59 $60 $33 $-1 $61 forward single #
face $-1 $62 $63 $34 $-1 $64 forward single #
face $-1 $65 $66 $35 $-1 $67 forward single #
face $-1 $68 $69 $36 $-1 $70 reversed single #
face $-1 $71 $72 $37 $-1 $73 forward single #
face $-1 $74 $75 $38 $-1 $76 forward single #
face $-1 $77 $78 $39 $-1 $79 forward single #
face $-1 $80 $81 $30 $-1 $82 reversed single #
loop $-1 $-1 $83 $40 #
plane-surface $-1 0 0 17.511464290494903 0 0 1 1 0 0 forward_v I I I I #
face $-1 $84 $85 $31 $-1 $86 reversed single #
loop $-1 $-1 $87 $41 #
plane-surface $-1 0 -31.21131143039235 11.029224385556125 0 0 1 1 0 0 forward_v I I I I #
face $-1 $88 $89 $32 $-1 $90 reversed single #
loop $-1 $-1 $91 $42 #
plane-surface $-1 117.60581124036918 23.050880418792396 181.75621433733588 0 -1 0 -0.87461971476443456 0 -0.48480960649040278 forward_v I I I I #
face $-1 $92 $93 $33 $-1 $94 forward single #
loop $-1 $95 $96 $43 #
cone-surface $-1 61.245018369495632 10.347275624796701 9.484092149910154 -0.87461971476443456 0 -0.48480960649040278 0.48480960649040278 0 -0.87461971476443456 1 I I 0 1 1 forward I I I I #
face $-1 $97 $98 $34 $-1 $99 forward single #
loop $-1 $100 $101 $44 #
cone-surface $-1 61.245018369495632 15.111127422545081 9.484092149910154 -0.87461971476443456 0 -0.48480960649040278 0.48480960649040278 0 -0.87461971476443456 1 I I 0 1 1 forward I I I I #
face $-1 $102 $103 $35 $-1 $104 forward single #
loop $-1 $105 $106 $45 #
cone-surface $-1 61.245018369495632 19.874979220293461 9.484092149910154 -0.87461971476443456 0 -0.48480960649040278 0.48480960649040278 0 -0.87461971476443456 1 I I 0 1 1 forward I I I I #
face $-1 $107 $108 $36 $-1 $109 reversed single #
loop $-1 $-1 $110 $46 #
plane-surface $-1 -164.3059067367079 22.72300757501587 93.459051771134199 0 1 0 -0.74314483375859142 0 0.66913059716165679 forward_v I I I I #
face $-1 $111 $112 $37 $-1 $113 forward single #
loop $-1 $114 $115 $47 #
cone-surface $-1 -59.916786816664356 24.100241101764588 10.775665656172015 0.74314483375859142 0 -0.66913059716165679 0.3345652985808284 0 0.37157241687929571 1 I I 0 1 0.5 forward I I I I #
face $-1 $116 $117 $38 $-1 $118 forward single #
loop $-1 $119 $120 $48 #
cone-surface $-1 -59.916786816664356 26.166091391887683 10.775665656172015 0.74314483375859142 0 -0.66913059716165679 0.3345652985808284 0 0.37157241687929571 1 I I 0 1 0.5 forward I I I I #
face $-1 $121 $122 $39 $-1 $123 forward single #
loop $-1 $124 $125 $49 #
cone-surface $-1 -59.916786816664356 28.231941682010778 10.775665656172015 0.74314483375859142 0 -0.66913059716165679 0.3345652985808284 0 0.37157241687929571 1 I I 0 1 0.5 forward I I I I #
face $-1 $126 $127 $30 $-1 $128 reversed single #
loop $-1 $-1 $129 $50 #
plane-surface $-1 0 0 -17.511464290494903 0 0 1 1 0 0 forward_v I I I I #
coedge $-1 $130 $131 $132 $133 forward $51 $-1 #
face $-1 $134 $135 $31 $-1 $136 reversed single #
loop $-1 $-1 $137 $53 #
plane-surface $-1 0 -20.659348865264811 14.270344338025513 0 -1 0 0 0 -1 forward_v I I I I #
coedge $-1 $138 $139 $140 $141 reversed $54 $-1 #
face $-1 $142 $143 $32 $-1 $144 reversed single #
loop $-1 $-1 $145 $56 #
plane-surface $-1 2.0077076391297339 15.111127422545088 117.67914155714128 0.87461971476443456 0 0.48480960649040278 0.48480960649040278 0 -0.87461971476443456 forward_v I I I I #
coedge $-1 $146 $147 $148 $149 reversed $57 $-1 #
face $-1 $-1 $150 $33 $-1 $151 forward single #
loop $-1 $152 $153 $59 #
cone-surface $-1 60.244558796176648 10.347275624796701 8.9295283733767512 -0.87461971476443456 0 -0.48480960649040278 0.24240480324520139 0 -0.43730985738221728 1 I I -0.70710678118654746 0.70710678118654746 0.5 forward I I I I #
loop $-1 $-1 $154 $43 #
coedge $-1 $96 $96 $155 $156 reversed $60 $-1 #
face $-1 $-1 $157 $34 $-1 $158 forward single #
loop $-1 $159 $160 $62 #
cone-surface $-1 60.244558796176648 15.111127422545081 8.9295283733767512 -0.87461971476443456 0 -0.48480960649040278 0.24240480324520139 0 -0.43730985738221728 1 I I -0.70710678118654746 0.70710678118654746 0.5 forward I I I I #
loop $-1 $-1 $161 $44 #
coedge $-1 $101 $101 $162 $163 reversed $63 $-1 #
face $-1 $-1 $164 $35 $-1 $165 forward single #
loop $-1 $166 $167 $65 #
cone-surface $-1 60.244558796176648 19.874979220293461 8.9295283733767512 -0.87461971476443456 0 -0.48480960649040278 0.24240480324520139 0 -0.43730985738221728 1 I I -0.70710678118654746 0.70710678118654746 0.5 forward I I I I #
loop $-1 $-1 $168 $45 #
coedge $-1 $106 $106 $169 $170 reversed $66 $-1 #
face $-1 $171 $172 $36 $-1 $173 reversed single #
loop $-1 $-1 $174 $68 #
plane-surface $-1 -66.084780419324318 26.166091391887697 5.0203546005753026 -0.74314483375859142 0 0.66913059716165679 0.66913059716165679 0 0.74314483375859142 forward_v I I I I #
coedge $-1 $175 $176 $177 $178 reversed $69 $-1 #
face $-1 $-1 $179 $37 $-1 $180 forward single #
loop $-1 $181 $182 $71 #
cone-surface $-1 -59.18652970688975 24.100241101764588 10.118139217518525 0.74314483375859142 0 -0.66913059716165679 0.1672826492904142 0 0.18578620843964785 1 I I -0.70710678118654746 0.70710678118654746 0.25 forward I I I I #
loop $-1 $-1 $183 $47 #
coedge $-1 $115 $115 $184 $185 reversed $72 $-1 #
face $-1 $-1 $186 $38 $-1 $187 forward single #
loop $-1 $188 $189 $74 #
cone-surface $-1 -59.18652970688975 26.166091391887683 10.118139217518525 0.74314483375859142 0 -0.66913059716165679 0.1672826492904142 0 0.18578620843964785 1 I I -0.70710678118654746 0.70710678118654746 0.25 forward I I I I #
loop $-1 $-1 $190 $48 #
coedge $-1 $120 $120 $191 $192 reversed $75 $-1 #
face $-1 $-1 $193 $39 $-1 $194 forward single #
loop $-1 $195 $196 $77 #
cone-surface $-1 -59.18652970688975 28.231941682010778 10.118139217518525 0.74314483375859142 0 -0.66913059716165679 0.1672826492904142 0 0.18578620843964785 1 I I -0.70710678118654746 0.70710678118654746 0.25 forward I I I I #
loop $-1 $-1 $197 $49 #
coedge $-1 $125 $125 $198 $199 reversed $78 $-1 #
face $-1 $200 $201 $30 $-1 $202 reversed single #
loop $-1 $-1 $203 $80 #
plane-surface $-1 0 -41.763273995519889 0 0 1 0 0 0 1 forward_v I I I I #
coedge $-1 $204 $205 $206 $207 forward $81 $-1 #
coedge $-1 $208 $83 $209 $210 forward $51 $-1 #
coedge $-1 $83 $208 $211 $212 forward $51 $-1 #
coedge $-1 $213 $214 $83 $133 reversed $215 $-1 #
edge $-1 $216 -41.763273995519889 $217 41.763273995519889 $132 $218 forward 7 unknown #
face $-1 $219 $220 $31 $-1 $221 reversed single #
loop $-1 $-1 $222 $84 #
plane-surface $-1 -66.084780419324318 0 0 1 0 0 0 0 -1 forward_v I I I I #
coedge $-1 $223 $224 $225 $226 reversed $85 $-1 #
coedge $-1 $227 $87 $228 $229 reversed $54 $-1 #
coedge $-1 $87 $227 $223 $230 forward $54 $-1 #
coedge $-1 $225 $231 $87 $141 forward $232 $-1 #
edge $-1 $233 -26.157618280323714 $234 -5.0536931500686357 $140 $235 forward 7 unknown #
face $-1 $236 $237 $32 $-1 $238 reversed single #
loop $-1 $-1 $239 $88 #
plane-surface $-1 117.60581124036918 7.1713744262977812 181.75621433733588 0 1 0 0.87461971476443456 0 0.48480960649040278 forward_v I I I I #
coedge $-1 $240 $241 $242 $243 reversed $89 $-1 #
coedge $-1 $147 $91 $244 $245 reversed $57 $-1 #
coedge $-1 $91 $146 $240 $246 reversed $57 $-1 #
coedge $-1 $242 $247 $91 $149 forward $248 $-1 #
edge $-1 $249 -7.2818747991397288 $250 1.2713498686440872 $148 $251 forward 7 unknown #
loop $-1 $-1 $155 $92 #
plane-surface $-1 2.0077076391297339 15.111127422545088 117.67914155714128 0.87461971476443456 0 0.48480960649040278 0.48480960649040278 0 -0.87461971476443456 forward_v I I I I #
loop $-1 $-1 $252 $59 #
coedge $-1 $153 $153 $154 $253 reversed $93 $-1 #
coedge $-1 $154 $154 $153 $253 forward $95 $-1 #
coedge $-1 $155 $155 $96 $156 forward $150 $-1 #
edge $-1 $254 0 $254 6.2831853071796004 $155 $255 forward 7 unknown #
loop $-1 $-1 $162 $97 #
plane-surface $-1 2.0077076391297339 15.111127422545088 117.67914155714128 0.87461971476443456 0 0.48480960649040278 0.48480960649040278 0 -0.87461971476443456 forward_v I I I I #
loop $-1 $-1 $256 $62 #
coedge $-1 $160 $160 $161 $257 reversed $98 $-1 #
coedge $-1 $161 $161 $160 $257 forward $100 $-1 #
coedge $-1 $162 $162 $101 $163 forward $157 $-1 #
edge $-1 $258 0 $258 6.2831853071796004 $162 $259 forward 7 unknown #
loop $-1 $-1 $169 $102 #
plane-surface $-1 2.0077076391297339 15.111127422545088 117.67914155714128 0.87461971476443456 0 0.48480960649040278 0.48480960649040278 0 -0.87461971476443456 forward_v I I I I #
loop $-1 $-1 $260 $65 #
coedge $-1 $167 $167 $168 $261 reversed $103 $-1 #
coedge $-1 $168 $168 $167 $261 forward $105 $-1 #
coedge $-1 $169 $169 $106 $170 forward $164 $-1 #
edge $-1 $262 0 $262 6.2831853071796004 $169 $263 forward 7 unknown #
face $-1 $264 $265 $36 $-1 $266 forward single #
loop $-1 $-1 $267 $107 #
plane-surface $-1 -164.3059067367079 29.609175208759524 93.459051771134199 0 -1 0 0.74314483375859142 0 -0.66913059716165679 forward_v I I I I #
coedge $-1 $268 $269 $270 $271 reversed $108 $-1 #
coedge $-1 $176 $110 $272 $273 reversed $69 $-1 #
coedge $-1 $110 $175 $268 $274 reversed $69 $-1 #
coedge $-1 $270 $275 $110 $178 forward $265 $-1 #
edge $-1 $276 16.068172949029631 $277 27.315218351679626 $177 $278 forward 7 unknown #
loop $-1 $-1 $184 $111 #
plane-surface $-1 -66.084780419324318 26.166091391887697 5.0203546005753026 -0.74314483375859142 0 0.66913059716165679 0.66913059716165679 0 0.74314483375859142 forward_v I I I I #
loop $-1 $-1 $279 $71 #
coedge $-1 $182 $182 $183 $280 reversed $112 $-1 #
coedge $-1 $183 $183 $182 $280 forward $114 $-1 #
coedge $-1 $184 $184 $115 $185 forward $179 $-1 #
edge $-1 $281 0 $281 6.2831853071796004 $184 $282 forward 7 unknown #
loop $-1 $-1 $191 $116 #
plane-surface $-1 -66.084780419324318 26.166091391887697 5.0203546005753026 -0.74314483375859142 0 0.66913059716165679 0.66913059716165679 0 0.74314483375859142 forward_v I I I I #
loop $-1 $-1 $283 $74 #
coedge $-1 $189 $189 $190 $284 reversed $117 $-1 #
coedge $-1 $190 $190 $189 $284 forward $119 $-1 #
coedge $-1 $191 $191 $120 $192 forward $186 $-1 #
edge $-1 $285 0 $285 6.2831853071796004 $191 $286 forward 7 unknown #
loop $-1 $-1 $198 $121 #
plane-surface $-1 -66.084780419324318 26.166091391887697 5.0203546005753026 -0.74314483375859142 0 0.66913059716165679 0.66913059716165679 0 0.74314483375859142 forward_v I I I I #
loop $-1 $-1 $287 $77 #
coedge $-1 $196 $196 $197 $288 reversed $122 $-1 #
coedge $-1 $197 $197 $196 $288 forward $124 $-1 #
coedge $-1 $198 $198 $125 $199 forward $193 $-1 #
edge $-1 $289 0 $289 6.2831853071796004 $198 $290 forward 7 unknown #
face $-1 $291 $292 $30 $-1 $293 reversed single #
loop $-1 $-1 $294 $126 #
plane-surface $-1 -66.084780419324318 0 0 1 0 0 0 0 -1 forward_v I I I I #
coedge $-1 $295 $211 $296 $297 forward $127 $-1 #
coedge $-1 $298 $129 $295 $299 forward $81 $-1 #
coedge $-1 $129 $298 $300 $301 forward $81 $-1 #
coedge $-1 $214 $213 $129 $207 reversed $215 $-1 #
edge $-1 $302 -41.763273995519889 $303 41.763273995519889 $206 $304 forward 7 unknown #
coedge $-1 $131 $130 $305 $306 forward $51 $-1 #
coedge $-1 $307 $308 $130 $210 reversed $292 $-1 #
edge $-1 $217 -66.084780419324318 $309 66.084780419324318 $209 $310 forward 7 unknown #
coedge $-1 $203 $311 $131 $212 reversed $127 $-1 #
edge $-1 $312 -66.084780419324318 $216 66.084780419324318 $211 $313 forward 7 unknown #
coedge $-1 $206 $132 $311 $314 forward $215 $-1 #
coedge $-1 $132 $206 $307 $315 reversed $215 $-1 #
loop $-1 $-1 $213 $291 #
vertex $-1 $133 $316 #
vertex $-1 $133 $317 #
straight-curve $-1 66.084780419324318 0 17.511464290494903 0 1 0 I I #
face $-1 $318 $319 $31 $-1 $320 forward single #
loop $-1 $-1 $228 $134 #
plane-surface $-1 0 -41.763273995519889 0 0 1 0 0 0 1 forward_v I I I I #
coedge $-1 $321 $322 $323 $324 forward $135 $-1 #
coedge $-1 $323 $137 $139 $230 reversed $85 $-1 #
coedge $-1 $137 $323 $325 $326 reversed $85 $-1 #
coedge $-1 $327 $140 $137 $226 forward $232 $-1 #
edge $-1 $234 3.8940522165433684 $328 10.376292121482143 $225 $329 forward 7 unknown #
coedge $-1 $139 $138 $321 $330 reversed $54 $-1 #
coedge $-1 $331 $332 $138 $229 forward $220 $-1 #
edge $-1 $333 -66.084780419324318 $233 66.084780419324318 $228 $334 forward 7 unknown #
edge $-1 $335 -66.084780419324318 $234 66.084780419324318 $223 $336 forward 7 unknown #
coedge $-1 $140 $327 $331 $337 forward $232 $-1 #
loop $-1 $-1 $225 $318 #
vertex $-1 $229 $338 #
vertex $-1 $141 $339 #
straight-curve $-1 66.084780419324318 -15.605655715196175 11.029224385556125 0 1 0 I I #
face $-1 $-1 $248 $32 $-1 $340 forward single #
loop $-1 $-1 $341 $142 #
plane-surface $-1 66.084780419324318 0 0 -1 0 0 0 0 1 forward_v I I I I #
coedge $-1 $342 $343 $344 $345 reversed $143 $-1 #
coedge $-1 $346 $145 $147 $246 forward $89 $-1 #
coedge $-1 $145 $346 $342 $347 forward $89 $-1 #
coedge $-1 $344 $148 $145 $243 forward $248 $-1 #
edge $-1 $250 -15.495316707519851 $348 0.38418928497476301 $242 $349 forward 7 unknown #
coedge $-1 $350 $351 $146 $245 forward $237 $-1 #
edge $-1 $352 -88.79706921276609 $249 -73.366642878173039 $244 $353 forward 7 unknown #
edge $-1 $250 114.52712027378095 $352 132.16956083864864 $147 $354 forward 7 unknown #
coedge $-1 $148 $344 $350 $355 forward $248 $-1 #
loop $-1 $-1 $344 $236 #
vertex $-1 $245 $356 #
vertex $-1 $149 $357 #
straight-curve $-1 58.802905620184589 23.050880418792396 17.511464290494899 -1 0 0 I I #
coedge $-1 $252 $252 $-1 $358 reversed $152 $-1 #
edge $-1 $359 0 $359 6.2831853071796004 $153 $360 forward 7 unknown #
vertex $-1 $156 $361 #
ellipse-curve $-1 61.808168085432413 10.347275624796701 9.7962511231983651 0.87461971476443456 0 0.48480960649040278 0.48480960649040278 0 -0.87461971476443456 1 I I #
coedge $-1 $256 $256 $-1 $362 reversed $159 $-1 #
edge $-1 $363 0 $363 6.2831853071796004 $160 $364 forward 7 unknown #
vertex $-1 $163 $365 #
ellipse-curve $-1 61.808168085432413 15.111127422545081 9.7962511231983651 0.87461971476443456 0 0.48480960649040278 0.48480960649040278 0 -0.87461971476443456 1 I I #
coedge $-1 $260 $260 $-1 $366 reversed $166 $-1 #
edge $-1 $367 0 $367 6.2831853071796004 $167 $368 forward 7 unknown #
vertex $-1 $170 $369 #
ellipse-curve $-1 61.808168085432413 19.874979220293461 9.7962511231983651 0.87461971476443456 0 0.48480960649040278 0.48480960649040278 0 -0.87461971476443456 1 I I #
face $-1 $-1 $370 $36 $-1 $371 reversed single #
loop $-1 $-1 $177 $171 #
plane-surface $-1 0 0 17.511464290494903 0 0 1 1 0 0 forward_v I I I I #
coedge $-1 $372 $373 $374 $375 reversed $172 $-1 #
coedge $-1 $376 $174 $176 $274 forward $108 $-1 #
coedge $-1 $174 $376 $372 $377 forward $108 $-1 #
coedge $-1 $374 $177 $174 $271 forward $265 $-1 #
edge $-1 $277 9.6399618790720218 $378 16.526129512815675 $270 $379 forward 7 unknown #
coedge $-1 $380 $381 $175 $273 forward $370 $-1 #
edge $-1 $382 -41.709171284991797 $276 -29.218061595072196 $272 $383 forward 7 unknown #
edge $-1 $277 -16.808445840555091 $382 0 $176 $384 forward 7 unknown #
coedge $-1 $177 $374 $380 $385 forward $265 $-1 #
vertex $-1 $273 $386 #
vertex $-1 $178 $387 #
straight-curve $-1 -82.152953368353948 22.72300757501587 17.511464290494899 1 0 0 I I #
coedge $-1 $279 $279 $-1 $388 reversed $181 $-1 #
edge $-1 $389 0 $389 6.2831853071796004 $182 $390 forward 7 unknown #
vertex $-1 $185 $391 #
ellipse-curve $-1 -60.461257717999324 24.100241101764588 11.265909445535101 -0.74314483375859142 0 0.66913059716165679 0.3345652985808284 0 0.37157241687929571 1 I I #
coedge $-1 $283 $283 $-1 $392 reversed $188 $-1 #
edge $-1 $393 0 $393 6.2831853071796004 $189 $394 forward 7 unknown #
vertex $-1 $192 $395 #
ellipse-curve $-1 -60.461257717999324 26.166091391887683 11.265909445535101 -0.74314483375859142 0 0.66913059716165679 0.3345652985808284 0 0.37157241687929571 1 I I #
coedge $-1 $287 $287 $-1 $396 reversed $195 $-1 #
edge $-1 $397 0 $397 6.2831853071796004 $196 $398 forward 7 unknown #
vertex $-1 $199 $399 #
ellipse-curve $-1 -60.461257717999324 28.231941682010778 11.265909445535101 -0.74314483375859142 0 0.66913059716165679 0.3345652985808284 0 0.37157241687929571 1 I I #
face $-1 $-1 $215 $30 $-1 $400 reversed single #
loop $-1 $-1 $307 $200 #
plane-surface $-1 0 41.763273995519889 0 0 -1 0 0 0 -1 forward_v I I I I #
coedge $-1 $401 $305 $308 $402 forward $201 $-1 #
coedge $-1 $311 $203 $204 $299 reversed $127 $-1 #
coedge $-1 $305 $401 $203 $297 reversed $201 $-1 #
edge $-1 $312 -17.511464290494903 $403 17.511464290494903 $296 $404 forward 7 unknown #
coedge $-1 $205 $204 $401 $405 forward $81 $-1 #
edge $-1 $303 -66.084780419324318 $403 66.084780419324318 $295 $406 forward 7 unknown #
coedge $-1 $308 $307 $205 $301 reversed $292 $-1 #
edge $-1 $407 -66.084780419324318 $302 66.084780419324318 $300 $408 forward 7 unknown #
vertex $-1 $207 $409 #
vertex $-1 $314 $410 #
straight-curve $-1 66.084780419324318 0 -17.511464290494903 0 -1 0 I I #
coedge $-1 $294 $296 $208 $306 reversed $201 $-1 #
edge $-1 $309 -41.763273995519889 $312 41.763273995519889 $305 $411 forward 7 unknown #
coedge $-1 $300 $209 $214 $315 forward $292 $-1 #
coedge $-1 $209 $300 $294 $402 reversed $292 $-1 #
vertex $-1 $210 $412 #
straight-curve $-1 0 41.763273995519889 17.511464290494903 -1 0 0 I I #
coedge $-1 $211 $295 $213 $314 reversed $127 $-1 #
vertex $-1 $306 $413 #
straight-curve $-1 0 -41.763273995519889 17.511464290494903 1 0 0 I I #
edge $-1 $216 -17.511464290494903 $303 17.511464290494903 $213 $414 forward 7 unknown #
edge $-1 $217 -17.511464290494903 $302 17.511464290494903 $214 $415 forward 7 unknown #
point $-1 66.084780419324318 -41.763273995519889 17.511464290494903 #
point $-1 66.084780419324318 41.763273995519889 17.511464290494903 #
face $-1 $-1 $232 $31 $-1 $416 reversed single #
loop $-1 $-1 $325 $219 #
plane-surface $-1 0 0 17.511464290494903 0 0 1 1 0 0 forward_v I I I I #
coedge $-1 $417 $222 $227 $330 forward $135 $-1 #
coedge $-1 $222 $417 $418 $419 reversed $135 $-1 #
coedge $-1 $224 $223 $222 $324 reversed $85 $-1 #
edge $-1 $420 -10.376292121482143 $335 -3.8940522165433684 $222 $421 forward 7 unknown #
coedge $-1 $418 $422 $224 $326 forward $319 $-1 #
edge $-1 $328 -66.084780419324318 $420 66.084780419324318 $325 $423 forward 7 unknown #
coedge $-1 $231 $225 $422 $424 reversed $232 $-1 #
vertex $-1 $226 $425 #
straight-curve $-1 66.084780419324318 -20.659348865264811 7.1351721690127565 0 0 1 I I #
edge $-1 $335 5.0536931500686357 $333 26.157618280323714 $321 $426 forward 7 unknown #
coedge $-1 $427 $228 $231 $337 reversed $220 $-1 #
coedge $-1 $228 $427 $417 $428 forward $220 $-1 #
vertex $-1 $229 $429 #
straight-curve $-1 0 -41.763273995519889 11.029224385556125 1 0 0 I I #
vertex $-1 $330 $430 #
straight-curve $-1 0 -20.659348865264811 11.029224385556125 1 0 0 I I #
edge $-1 $431 -17.511464290494903 $233 -11.029224385556125 $231 $432 forward 7 unknown #
point $-1 66.084780419324318 -41.763273995519889 11.029224385556125 #
point $-1 66.084780419324318 -20.659348865264811 11.029224385556125 #
plane-surface $-1 0 0 17.511464290494903 0 0 1 1 0 0 forward_v I I I I #
coedge $-1 $351 $350 $343 $433 forward $237 $-1 #
coedge $-1 $343 $239 $241 $347 reversed $143 $-1 #
coedge $-1 $239 $342 $341 $433 reversed $143 $-1 #
coedge $-1 $247 $242 $239 $345 forward $248 $-1 #
edge $-1 $348 -1.2713498686440872 $434 7.2818747991397288 $344 $435 forward 7 unknown #
coedge $-1 $241 $240 $351 $436 reversed $89 $-1 #
edge $-1 $437 -132.16956083864864 $348 -114.52712027378095 $342 $438 forward 7 unknown #
vertex $-1 $243 $439 #
straight-curve $-1 57.531555751540509 7.5555637112725442 17.511464290494906 0 -1 0 I I #
coedge $-1 $341 $244 $247 $355 reversed $237 $-1 #
coedge $-1 $244 $341 $346 $436 forward $237 $-1 #
vertex $-1 $245 $440 #
straight-curve $-1 66.084780419324318 23.050880418792396 90.878107168667938 0 0 1 I I #
straight-curve $-1 2.0077076391297339 23.050880418792396 117.67914155714128 0.48480960649040278 0 -0.87461971476443456 I I #
edge $-1 $434 7.1713744262977812 $249 23.050880418792396 $350 $441 forward 7 unknown #
point $-1 66.084780419324318 23.050880418792396 17.511464290494903 #
point $-1 57.531555751540502 23.050880418792396 17.511464290494899 #
edge $-1 $442 1 $442 0 $252 $-1 forward 7 unknown #
vertex $-1 $253 $443 #
ellipse-curve $-1 60.681868653558865 10.347275624796701 9.1719331766219518 0.87461971476443456 0 0.48480960649040278 0.48480960649040278 0 -0.87461971476443456 1 I I #
point $-1 62.2929776919228 10.347275624796701 8.921631408433921 #
edge $-1 $444 1 $444 0 $256 $-1 forward 7 unknown #
vertex $-1 $257 $445 #
ellipse-curve $-1 60.681868653558865 15.111127422545081 9.1719331766219518 0.87461971476443456 0 0.48480960649040278 0.48480960649040278 0 -0.87461971476443456 1 I I #
point $-1 62.2929776919228 15.111127422545081 8.921631408433921 #
edge $-1 $446 1 $446 0 $260 $-1 forward 7 unknown #
vertex $-1 $261 $447 #
ellipse-curve $-1 60.681868653558865 19.874979220293461 9.1719331766219518 0.87461971476443456 0 0.48480960649040278 0.48480960649040278 0 -0.87461971476443456 1 I I #
point $-1 62.2929776919228 19.874979220293461 8.921631408433921 #
loop $-1 $-1 $272 $264 #
plane-surface $-1 -66.084780419324318 0 0 1 0 0 0 0 -1 forward_v I I I I #
coedge $-1 $373 $267 $269 $377 reversed $172 $-1 #
coedge $-1 $267 $372 $448 $449 reversed $172 $-1 #
coedge $-1 $275 $270 $267 $375 forward $265 $-1 #
edge $-1 $378 -27.315218351679626 $450 -16.068172949029631 $374 $451 forward 7 unknown #
coedge $-1 $269 $268 $381 $452 reversed $108 $-1 #
edge $-1 $453 0 $378 16.808445840555091 $372 $454 forward 7 unknown #
vertex $-1 $271 $455 #
straight-curve $-1 -54.837735016674323 13.083045695943849 17.511464290494903 0 1 0 I I #
coedge $-1 $448 $272 $275 $385 reversed $370 $-1 #
coedge $-1 $272 $448 $376 $452 forward $370 $-1 #
vertex $-1 $273 $456 #
straight-curve $-1 -66.084780419324318 22.72300757501587 46.729525885567099 0 0 1 I I #
straight-curve $-1 -66.084780419324318 22.72300757501587 5.0203546005753026 -0.66913059716165679 0 -0.74314483375859142 I I #
edge $-1 $450 -29.609175208759524 $276 -22.72300757501587 $380 $457 forward 7 unknown #
point $-1 -66.084780419324318 22.72300757501587 17.511464290494903 #
point $-1 -54.837735016674323 22.72300757501587 17.511464290494903 #
edge $-1 $458 1 $458 0 $279 $-1 forward 7 unknown #
vertex $-1 $280 $459 #
ellipse-curve $-1 -59.372315915329395 24.100241101764588 10.285421866808939 -0.74314483375859142 0 0.66913059716165679 0.3345652985808284 0 0.37157241687929571 1 I I #
point $-1 -60.126692419418482 24.100241101764588 11.637481862414386 #
edge $-1 $460 1 $460 0 $283 $-1 forward 7 unknown #
vertex $-1 $284 $461 #
ellipse-curve $-1 -59.372315915329395 26.166091391887683 10.285421866808939 -0.74314483375859142 0 0.66913059716165679 0.3345652985808284 0 0.37157241687929571 1 I I #
point $-1 -60.126692419418482 26.166091391887683 11.637481862414386 #
edge $-1 $462 1 $462 0 $287 $-1 forward 7 unknown #
vertex $-1 $288 $463 #
ellipse-curve $-1 -59.372315915329395 28.231941682010778 10.285421866808939 -0.74314483375859142 0 0.66913059716165679 0.3345652985808284 0 0.37157241687929571 1 I I #
point $-1 -60.126692419418482 28.231941682010778 11.637481862414386 #
plane-surface $-1 66.084780419324318 0 0 -1 0 0 0 0 1 forward_v I I I I #
coedge $-1 $296 $294 $298 $405 reversed $201 $-1 #
edge $-1 $309 -17.511464290494903 $407 17.511464290494903 $308 $464 forward 7 unknown #
vertex $-1 $405 $465 #
straight-curve $-1 -66.084780419324318 -41.763273995519889 0 0 0 -1 I I #
edge $-1 $403 -41.763273995519889 $407 41.763273995519889 $401 $466 forward 7 unknown #
straight-curve $-1 0 -41.763273995519889 -17.511464290494903 -1 0 0 I I #
vertex $-1 $301 $467 #
straight-curve $-1 0 41.763273995519889 -17.511464290494903 1 0 0 I I #
point $-1 66.084780419324318 41.763273995519889 -17.511464290494903 #
point $-1 66.084780419324318 -41.763273995519889 -17.511464290494903 #
straight-curve $-1 -66.084780419324318 0 17.511464290494903 0 -1 0 I I #
point $-1 -66.084780419324318 41.763273995519889 17.511464290494903 #
point $-1 -66.084780419324318 -41.763273995519889 17.511464290494903 #
straight-curve $-1 66.084780419324318 -41.763273995519889 0 0 0 -1 I I #
straight-curve $-1 66.084780419324318 41.763273995519889 0 0 0 -1 I I #
plane-surface $-1 66.084780419324318 0 0 -1 0 0 0 0 1 forward_v I I I I #
coedge $-1 $322 $321 $332 $428 reversed $135 $-1 #
coedge $-1 $468 $325 $322 $419 forward $319 $-1 #
edge $-1 $420 20.659348865264811 $469 41.763273995519889 $322 $470 forward 7 unknown #
vertex $-1 $419 $471 #
straight-curve $-1 -66.084780419324318 -20.659348865264811 7.1351721690127565 0 0 -1 I I #
coedge $-1 $325 $468 $327 $424 forward $319 $-1 #
straight-curve $-1 0 -20.659348865264811 17.511464290494903 -1 0 0 I I #
edge $-1 $431 -41.763273995519889 $328 -20.659348865264811 $327 $472 forward 7 unknown #
point $-1 66.084780419324318 -20.659348865264811 17.511464290494899 #
straight-curve $-1 -66.084780419324318 -15.605655715196175 11.029224385556125 0 -1 0 I I #
coedge $-1 $332 $331 $468 $473 reversed $220 $-1 #
edge $-1 $469 -17.511464290494903 $333 -11.029224385556125 $417 $474 forward 7 unknown #
point $-1 -66.084780419324318 -41.763273995519889 11.029224385556125 #
point $-1 -66.084780419324318 -20.659348865264811 11.029224385556125 #
vertex $-1 $424 $475 #
straight-curve $-1 66.084780419324318 -41.763273995519889 0 0 0 -1 I I #
edge $-1 $434 73.366642878173039 $437 88.79706921276609 $341 $476 forward 7 unknown #
vertex $-1 $355 $477 #
straight-curve $-1 58.802905620184589 7.1713744262977812 17.511464290494899 1 0 0 I I #
edge $-1 $437 -0.38418928497476301 $352 15.495316707519851 $351 $478 forward 7 unknown #
vertex $-1 $436 $479 #
straight-curve $-1 2.0077076391297339 7.1713744262977812 117.67914155714128 -0.48480960649040278 0 0.87461971476443456 I I #
point $-1 57.531555751540502 7.1713744262977812 17.511464290494899 #
point $-1 66.084780419324318 23.050880418792396 2.0810379559018486 #
straight-curve $-1 66.084780419324318 0 17.511464290494903 0 1 0 I I #
vertex $-1 $358 $480 #
point $-1 61.166678260049267 10.347275624796701 8.2973134618575184 #
vertex $-1 $362 $481 #
point $-1 61.166678260049267 15.111127422545081 8.2973134618575184 #
vertex $-1 $366 $482 #
point $-1 61.166678260049267 19.874979220293461 8.2973134618575184 #
coedge $-1 $381 $380 $373 $449 forward $370 $-1 #
edge $-1 $450 29.218061595072196 $453 41.709171284991797 $448 $483 forward 7 unknown #
vertex $-1 $385 $484 #
straight-curve $-1 -82.152953368353948 29.609175208759524 17.511464290494899 -1 0 0 I I #
edge $-1 $453 -16.526129512815675 $382 -9.6399618790720218 $381 $485 forward 7 unknown #
vertex $-1 $452 $486 #
straight-curve $-1 -66.084780419324318 29.609175208759524 5.0203546005753026 0.66913059716165679 0 0.74314483375859142 I I #
point $-1 -54.837735016674323 29.609175208759524 17.511464290494903 #
point $-1 -66.084780419324318 22.72300757501587 5.0203546005753026 #
straight-curve $-1 -66.084780419324318 0 17.511464290494903 0 -1 0 I I #
vertex $-1 $388 $487 #
point $-1 -59.037750616748568 24.100241101764588 10.656994283688235 #
vertex $-1 $392 $488 #
point $-1 -59.037750616748568 26.166091391887683 10.656994283688235 #
vertex $-1 $396 $489 #
point $-1 -59.037750616748568 28.231941682010778 10.656994283688235 #
straight-curve $-1 -66.084780419324318 41.763273995519889 0 0 0 -1 I I #
point $-1 -66.084780419324318 -41.763273995519889 -17.511464290494903 #
straight-curve $-1 -66.084780419324318 0 -17.511464290494903 0 1 0 I I #
point $-1 -66.084780419324318 41.763273995519889 -17.511464290494903 #
coedge $-1 $422 $418 $427 $473 forward $319 $-1 #
vertex $-1 $419 $490 #
straight-curve $-1 -66.084780419324318 0 17.511464290494903 0 -1 0 I I #
point $-1 -66.084780419324318 -20.659348865264811 17.511464290494899 #
straight-curve $-1 66.084780419324318 0 17.511464290494903 0 1 0 I I #
edge $-1 $469 -66.084780419324318 $431 66.084780419324318 $427 $491 forward 7 unknown #
straight-curve $-1 -66.084780419324318 -41.763273995519889 0 0 0 -1 I I #
point $-1 66.084780419324318 -41.763273995519889 17.511464290494903 #
straight-curve $-1 66.084780419324318 7.1713744262977812 90.878107168667938 0 0 -1 I I #
point $-1 66.084780419324318 7.1713744262977812 17.511464290494903 #
straight-curve $-1 66.084780419324318 7.5555637112725442 2.0810379559018486 0 1 0 I I #
point $-1 66.084780419324318 7.1713744262977812 2.0810379559018486 #
point $-1 59.80724893879443 10.347275624796701 8.6871235701315506 #
point $-1 59.80724893879443 15.111127422545081 8.6871235701315506 #
point $-1 59.80724893879443 19.874979220293461 8.6871235701315506 #
straight-curve $-1 -66.084780419324318 29.609175208759524 46.729525885567099 0 0 -1 I I #
point $-1 -66.084780419324318 29.609175208759524 17.511464290494903 #
straight-curve $-1 -66.084780419324318 13.083045695943849 5.0203546005753079 0 -1 0 I I #
point $-1 -66.084780419324318 29.609175208759524 5.0203546005753026 #
point $-1 -59.000743498450106 24.100241101764588 9.9508565682281116 #
point $-1 -59.000743498450106 26.166091391887683 9.9508565682281116 #
point $-1 -59.000743498450106 28.231941682010778 9.9508565682281116 #
point $-1 -66.084780419324318 -41.763273995519889 17.511464290494903 #
straight-curve $-1 0 -41.763273995519889 17.511464290494903 1 0 0 I I #
End-of-ACIS-data 