500 0 10 0           
7 Unknown 11 ACIS 5.0 NT 24 Thu Mar 25 22:40:35 1999 
-1 9.9999999999999995e-007 1e-010 
body $-1 $10 $-1 $11 #
body $-1 $12 $-1 $13 #
body $-1 $14 $-1 $15 #
body $-1 $16 $-1 $17 #
body $-1 $18 $-1 $19 #
body $-1 $20 $-1 $21 #
body $-1 $22 $-1 $23 #
body $-1 $24 $-1 $25 #
body $-1 $26 $-1 $27 #
body $-1 $28 $-1 $29 #
lump $-1 $-1 $30 $0 #
transform $-1 1 0 0 0 1 0 0 0 1 76.188848536637465 49.10922004723529 20.071428471223623 1 rotate no_reflect no_shear #
lump $-1 $-1 $31 $1 #
transform $-1 1 0 0 0 1 0 0 0 1 76.188848536637465 49.10922004723529 20.071428471223623 1 rotate no_reflect no_shear #
lump $-1 $-1 $32 $2 #
transform $-1 1 0 0 0 1 0 0 0 1 76.188848536637465 49.10922004723529 20.071428471223623 1 rotate no_reflect no_shear #
lump $-1 $-1 $33 $3 #
transform $-1 1 0 0 0 1 0 0 0 1 76.188848536637465 49.10922004723529 20.071428471223623 1 rotate no_reflect no_shear #
lump $-1 $-1 $34 $4 #
transform $-1 1 0 0 0 1 0 0 0 1 76.188848536637465 49.10922004723529 20.071428471223623 1 rotate no_reflect no_shear #
lump $-1 $-1 $35 $5 #
transform $-1 1 0 0 0 1 0 0 0 1 76.188848536637465 49.10922004723529 20.071428471223623 1 rotate no_reflect no_shear #
lump $-1 $-1 $36 $6 #
transform $-1 1 0 0 0 1 0 0 0 1 76.188848536637465 49.10922004723529 20.071428471223623 1 rotate no_reflect no_shear #
lump $-1 $-1 $37 $7 #
transform $-1 1 0 0 0 1 0 0 0 1 76.188848536637465 49.10922004723529 20.071428471223623 1 rotate no_reflect no_shear #
lump $-1 $-1 $38 $8 #
transform $-1 1 0 0 0 1 0 0 0 1 76.188848536637465 49.10922004723529 20.071428471223623 1 rotate no_reflect no_shear #
lump $-1 $-1 $39 $9 #
transform $-1 1 0 0 0 1 0 0 0 1 76.188848536637465 49.10922004723529 20.071428471223623 1 rotate no_reflect no_shear #
shell $-1 $-1 $-1 $40 $-1 $10 #
shell $-1 $-1 $-1 $41 $-1 $12 #
shell $-1 $-1 $-1 $42 $-1 $14 #
shell $-1 $-1 $-1 $43 $-1 $16 #
shell $-1 $-1 $-1 $44 $-1 $18 #
shell $-1 $-1 $-1 $45 $-1 $20 #
shell $-1 $-1 $-1 $46 $-1 $22 #
shell $-1 $-1 $-1 $47 $-1 $24 #
shell $-1 $-1 $-1 $48 $-1 $26 #
shell $-1 $-1 $-1 $49 $-1 $28 #
face $-1 $50 $51 $30 $-1 $52 forward single #
face $-1 $53 $54 $31 $-1 $55 reversed single #
face $-1 $56 $57 $32 $-1 $58 reversed single #
face $-1 $59 $60 $33 $-1 $61 forward single #
face $-1 $62 $63 $34 $-1 $64 reversed single #
face $-1 $65 $66 $35 $-1 $67 forward single #
face $-1 $68 $69 $36 $-1 $70 reversed single #
face $-1 $71 $72 $37 $-1 $73 forward single #
face $-1 $74 $75 $38 $-1 $76 reversed single #
face $-1 $77 $78 $39 $-1 $79 forward single #
face $-1 $80 $81 $30 $-1 $82 reversed single #
loop $-1 $-1 $83 $40 #
plane-surface $-1 0 0 20.071428471223623 0 0 1 1 0 0 forward_v I I I I #
face $-1 $84 $85 $31 $-1 $86 reversed single #
loop $-1 $-1 $87 $41 #
plane-surface $-1 -68.03870433377125 0 10.764955105846859 0 0 1 1 0 0 forward_v I I I I #
face $-1 $88 $89 $32 $-1 $90 reversed single #
loop $-1 $-1 $91 $42 #
plane-surface $-1 -18.033624512219678 -140.81240850019196 123.60524696226064 -1 0 0 0 -0.6018150307709319 0.79863550430605224 forward_v I I I I #
face $-1 $92 $93 $33 $-1 $94 forward single #
loop $-1 $95 $96 $43 #
cone-surface $-1 -25.584701823080486 -36.054469767849994 9.657664882104406 0 0.6018150307709319 -0.79863550430605224 1.5 0 0 1 I I 0 1 1.5 forward I I I I #
face $-1 $97 $98 $34 $-1 $99 reversed single #
loop $-1 $-1 $100 $44 #
plane-surface $-1 49.436067539673758 -140.81240850019196 123.60524696226064 -1 0 0 0 -0.6018150307709319 0.79863550430605224 forward_v I I I I #
face $-1 $101 $102 $35 $-1 $103 forward single #
loop $-1 $104 $105 $45 #
cone-surface $-1 41.884990228812939 -36.054469767849994 9.657664882104406 0 0.6018150307709319 -0.79863550430605224 1.5 0 0 1 I I 0 1 1.5 forward I I I I #
face $-1 $106 $107 $36 $-1 $108 reversed single #
loop $-1 $-1 $109 $46 #
plane-surface $-1 -33.135779133941284 62.371675063190672 182.7145805099874 1 0 0 0 -0.6018150307709319 -0.79863550430605224 forward_v I I I I #
face $-1 $110 $111 $37 $-1 $112 forward single #
loop $-1 $113 $114 $47 #
cone-surface $-1 -25.584701823080486 36.054469767849987 9.6576648821044095 0 -0.6018150307709319 -0.79863550430605224 1.5 0 0 1 I I 0 1 1.5 forward I I I I #
face $-1 $115 $116 $38 $-1 $117 reversed single #
loop $-1 $-1 $118 $48 #
plane-surface $-1 34.333912917952148 62.371675063190672 182.7145805099874 1 0 0 0 -0.6018150307709319 -0.79863550430605224 forward_v I I I I #
face $-1 $119 $120 $39 $-1 $121 forward single #
loop $-1 $122 $123 $49 #
cone-surface $-1 41.884990228812939 36.054469767849987 9.6576648821044095 0 -0.6018150307709319 -0.79863550430605224 1.5 0 0 1 I I 0 1 1.5 forward I I I I #
face $-1 $124 $125 $30 $-1 $126 reversed single #
loop $-1 $-1 $127 $50 #
plane-surface $-1 0 0 -20.071428471223623 0 0 1 1 0 0 forward_v I I I I #
coedge $-1 $128 $129 $130 $131 forward $51 $-1 #
face $-1 $132 $133 $31 $-1 $134 reversed single #
loop $-1 $-1 $135 $53 #
plane-surface $-1 -59.888560130905027 0 15.418191788535243 -1 0 0 0 0 1 forward_v I I I I #
coedge $-1 $136 $137 $138 $139 forward $54 $-1 #
face $-1 $140 $141 $32 $-1 $142 reversed single #
loop $-1 $-1 $143 $56 #
plane-surface $-1 -25.584701823080479 -49.109220047235269 1.9110080151508555 0 -0.6018150307709319 0.79863550430605224 1 0 0 forward_v I I I I #
coedge $-1 $144 $145 $146 $147 reversed $57 $-1 #
face $-1 $-1 $148 $33 $-1 $149 forward single #
loop $-1 $150 $151 $59 #
cone-surface $-1 -25.584701823080486 -34.598203938553624 7.7251348927920276 0 0.6018150307709319 -0.79863550430605224 0.75 0 0 1 I I -0.70710678118654757 0.70710678118654757 0.75 forward I I I I #
loop $-1 $-1 $152 $43 #
coedge $-1 $96 $96 $153 $154 reversed $60 $-1 #
face $-1 $155 $156 $34 $-1 $157 reversed single #
loop $-1 $-1 $158 $62 #
plane-surface $-1 41.884990228812953 -49.109220047235269 1.9110080151508555 0 -0.6018150307709319 0.79863550430605224 1 0 0 forward_v I I I I #
coedge $-1 $159 $160 $161 $162 reversed $63 $-1 #
face $-1 $-1 $163 $35 $-1 $164 forward single #
loop $-1 $165 $166 $65 #
cone-surface $-1 41.884990228812939 -34.598203938553624 7.7251348927920276 0 0.6018150307709319 -0.79863550430605224 0.75 0 0 1 I I -0.70710678118654757 0.70710678118654757 0.75 forward I I I I #
loop $-1 $-1 $167 $45 #
coedge $-1 $105 $105 $168 $169 reversed $66 $-1 #
face $-1 $170 $171 $36 $-1 $172 reversed single #
loop $-1 $-1 $173 $68 #
plane-surface $-1 -25.584701823080479 -29.331513389766023 61.020341562877618 0 0.6018150307709319 0.79863550430605224 1 0 0 forward_v I I I I #
coedge $-1 $174 $175 $176 $177 reversed $69 $-1 #
face $-1 $-1 $178 $37 $-1 $179 forward single #
loop $-1 $180 $181 $71 #
cone-surface $-1 -25.584701823080486 34.598203938553617 7.7251348927920311 0 -0.6018150307709319 -0.79863550430605224 0.75 0 0 1 I I -0.70710678118654757 0.70710678118654757 0.75 forward I I I I #
loop $-1 $-1 $182 $47 #
coedge $-1 $114 $114 $183 $184 reversed $72 $-1 #
face $-1 $185 $186 $38 $-1 $187 reversed single #
loop $-1 $-1 $188 $74 #
plane-surface $-1 41.884990228812953 -29.331513389766023 61.020341562877618 0 0.6018150307709319 0.79863550430605224 1 0 0 forward_v I I I I #
coedge $-1 $189 $190 $191 $192 reversed $75 $-1 #
face $-1 $-1 $193 $39 $-1 $194 forward single #
loop $-1 $195 $196 $77 #
cone-surface $-1 41.884990228812939 34.598203938553617 7.7251348927920311 0 -0.6018150307709319 -0.79863550430605224 0.75 0 0 1 I I -0.70710678118654757 0.70710678118654757 0.75 forward I I I I #
loop $-1 $-1 $197 $49 #
coedge $-1 $123 $123 $198 $199 reversed $78 $-1 #
face $-1 $200 $201 $30 $-1 $202 reversed single #
loop $-1 $-1 $203 $80 #
plane-surface $-1 0 -49.10922004723529 0 0 1 0 0 0 1 forward_v I I I I #
coedge $-1 $204 $205 $206 $207 forward $81 $-1 #
coedge $-1 $208 $83 $209 $210 forward $51 $-1 #
coedge $-1 $83 $208 $211 $212 forward $51 $-1 #
coedge $-1 $213 $214 $83 $131 reversed $215 $-1 #
edge $-1 $216 -49.10922004723529 $217 49.10922004723529 $130 $218 forward 7 unknown #
face $-1 $219 $220 $31 $-1 $221 reversed single #
loop $-1 $-1 $222 $84 #
plane-surface $-1 0 49.10922004723529 0 0 -1 0 0 0 -1 forward_v I I I I #
coedge $-1 $138 $223 $224 $225 reversed $85 $-1 #
coedge $-1 $226 $87 $227 $228 reversed $54 $-1 #
coedge $-1 $87 $226 $229 $230 reversed $54 $-1 #
coedge $-1 $231 $135 $87 $139 reversed $85 $-1 #
edge $-1 $232 -49.10922004723529 $233 49.10922004723529 $138 $234 forward 7 unknown #
face $-1 $235 $236 $32 $-1 $237 reversed single #
loop $-1 $-1 $238 $88 #
plane-surface $-1 -33.135779133941284 -140.81240850019196 123.60524696226064 1 0 0 0 0.6018150307709319 -0.79863550430605224 forward_v I I I I #
coedge $-1 $239 $240 $241 $242 reversed $89 $-1 #
coedge $-1 $145 $91 $243 $244 reversed $57 $-1 #
coedge $-1 $91 $144 $239 $245 reversed $57 $-1 #
coedge $-1 $241 $246 $91 $147 forward $247 $-1 #
edge $-1 $248 21.296984202860692 $249 45.396675649194975 $146 $250 forward 7 unknown #
loop $-1 $-1 $153 $92 #
plane-surface $-1 -25.584701823080479 -49.109220047235269 1.9110080151508555 0 -0.6018150307709319 0.79863550430605224 1 0 0 forward_v I I I I #
loop $-1 $-1 $251 $59 #
coedge $-1 $151 $151 $152 $252 reversed $93 $-1 #
coedge $-1 $152 $152 $151 $252 forward $95 $-1 #
coedge $-1 $153 $153 $96 $154 forward $148 $-1 #
edge $-1 $253 -4.3927377497148149e-016 $253 6.2831853071796004 $153 $254 forward 7 unknown #
face $-1 $255 $256 $34 $-1 $257 reversed single #
loop $-1 $-1 $258 $97 #
plane-surface $-1 34.333912917952148 -140.81240850019196 123.60524696226064 1 0 0 0 0.6018150307709319 -0.79863550430605224 forward_v I I I I #
coedge $-1 $259 $260 $261 $262 reversed $98 $-1 #
coedge $-1 $160 $100 $263 $264 reversed $63 $-1 #
coedge $-1 $100 $159 $259 $265 reversed $63 $-1 #
coedge $-1 $261 $266 $100 $162 forward $267 $-1 #
edge $-1 $268 21.296984202860692 $269 45.396675649194975 $161 $270 forward 7 unknown #
loop $-1 $-1 $168 $101 #
plane-surface $-1 41.884990228812953 -49.109220047235269 1.9110080151508555 0 -0.6018150307709319 0.79863550430605224 1 0 0 forward_v I I I I #
loop $-1 $-1 $271 $65 #
coedge $-1 $166 $166 $167 $272 reversed $102 $-1 #
coedge $-1 $167 $167 $166 $272 forward $104 $-1 #
coedge $-1 $168 $168 $105 $169 forward $163 $-1 #
edge $-1 $273 -4.3927377497148149e-016 $273 6.2831853071796004 $168 $274 forward 7 unknown #
face $-1 $275 $276 $36 $-1 $277 forward single #
loop $-1 $-1 $278 $106 #
plane-surface $-1 -18.033624512219678 62.371675063190672 182.7145805099874 -1 0 0 0 0.6018150307709319 0.79863550430605224 forward_v I I I I #
coedge $-1 $279 $280 $281 $282 reversed $107 $-1 #
coedge $-1 $175 $109 $283 $284 reversed $69 $-1 #
coedge $-1 $109 $174 $279 $285 reversed $69 $-1 #
coedge $-1 $281 $286 $109 $177 forward $276 $-1 #
edge $-1 $287 -17.923382515639954 $288 6.1763089306943151 $176 $289 forward 7 unknown #
loop $-1 $-1 $183 $110 #
plane-surface $-1 -25.584701823080479 -29.331513389766023 61.020341562877618 0 0.6018150307709319 0.79863550430605224 1 0 0 forward_v I I I I #
loop $-1 $-1 $290 $71 #
coedge $-1 $181 $181 $182 $291 reversed $111 $-1 #
coedge $-1 $182 $182 $181 $291 forward $113 $-1 #
coedge $-1 $183 $183 $114 $184 forward $178 $-1 #
edge $-1 $292 -4.9305527649013757e-016 $292 6.2831853071795996 $183 $293 forward 7 unknown #
face $-1 $294 $295 $38 $-1 $296 forward single #
loop $-1 $-1 $297 $115 #
plane-surface $-1 49.436067539673758 62.371675063190672 182.7145805099874 -1 0 0 0 0.6018150307709319 0.79863550430605224 forward_v I I I I #
coedge $-1 $298 $299 $300 $301 reversed $116 $-1 #
coedge $-1 $190 $118 $302 $303 reversed $75 $-1 #
coedge $-1 $118 $189 $298 $304 reversed $75 $-1 #
coedge $-1 $300 $305 $118 $192 forward $295 $-1 #
edge $-1 $306 -17.923382515639954 $307 6.1763089306943151 $191 $308 forward 7 unknown #
loop $-1 $-1 $198 $119 #
plane-surface $-1 41.884990228812953 -29.331513389766023 61.020341562877618 0 0.6018150307709319 0.79863550430605224 1 0 0 forward_v I I I I #
loop $-1 $-1 $309 $77 #
coedge $-1 $196 $196 $197 $310 reversed $120 $-1 #
coedge $-1 $197 $197 $196 $310 forward $122 $-1 #
coedge $-1 $198 $198 $123 $199 forward $193 $-1 #
edge $-1 $311 -4.9305527649013757e-016 $311 6.2831853071795996 $198 $312 forward 7 unknown #
face $-1 $313 $314 $30 $-1 $315 reversed single #
loop $-1 $-1 $316 $124 #
plane-surface $-1 -76.188848536637465 0 0 1 0 0 0 0 -1 forward_v I I I I #
coedge $-1 $317 $211 $318 $319 forward $125 $-1 #
coedge $-1 $320 $127 $317 $321 forward $81 $-1 #
coedge $-1 $127 $320 $322 $323 forward $81 $-1 #
coedge $-1 $214 $213 $127 $207 reversed $215 $-1 #
edge $-1 $324 -49.10922004723529 $325 49.10922004723529 $206 $326 forward 7 unknown #
coedge $-1 $129 $128 $327 $328 forward $51 $-1 #
coedge $-1 $329 $330 $128 $210 reversed $314 $-1 #
edge $-1 $217 -76.188848536637465 $331 76.188848536637465 $209 $332 forward 7 unknown #
coedge $-1 $203 $333 $129 $212 reversed $125 $-1 #
edge $-1 $334 -76.188848536637465 $216 76.188848536637465 $211 $335 forward 7 unknown #
coedge $-1 $206 $130 $333 $336 forward $215 $-1 #
coedge $-1 $130 $206 $329 $337 reversed $215 $-1 #
loop $-1 $-1 $213 $313 #
vertex $-1 $131 $338 #
vertex $-1 $131 $339 #
straight-curve $-1 76.188848536637465 0 20.071428471223623 0 1 0 I I #
face $-1 $340 $341 $31 $-1 $342 forward single #
loop $-1 $-1 $343 $132 #
plane-surface $-1 -76.188848536637465 0 0 1 0 0 0 0 -1 forward_v I I I I #
coedge $-1 $229 $344 $231 $345 forward $133 $-1 #
coedge $-1 $135 $231 $346 $347 reversed $85 $-1 #
coedge $-1 $348 $227 $135 $225 forward $349 $-1 #
edge $-1 $233 3.0558592115792376 $350 12.362332576956005 $224 $351 forward 7 unknown #
coedge $-1 $137 $136 $343 $352 reversed $54 $-1 #
coedge $-1 $224 $353 $136 $228 forward $349 $-1 #
edge $-1 $354 -42.16949636975184 $233 -25.869207964019402 $227 $355 forward 7 unknown #
coedge $-1 $356 $222 $137 $230 forward $133 $-1 #
edge $-1 $232 25.869207964019402 $357 42.16949636975184 $229 $358 forward 7 unknown #
coedge $-1 $223 $138 $222 $345 reversed $85 $-1 #
vertex $-1 $230 $359 #
vertex $-1 $228 $360 #
straight-curve $-1 -59.888560130905027 0 10.764955105846859 0 -1 0 I I #
face $-1 $-1 $247 $32 $-1 $361 forward single #
loop $-1 $-1 $362 $140 #
plane-surface $-1 0 -49.10922004723529 0 0 1 0 0 0 1 forward_v I I I I #
coedge $-1 $363 $364 $365 $366 reversed $141 $-1 #
coedge $-1 $367 $143 $145 $245 forward $89 $-1 #
coedge $-1 $143 $367 $363 $368 forward $89 $-1 #
coedge $-1 $365 $146 $143 $242 forward $247 $-1 #
edge $-1 $249 5.2412736006794383 $369 20.343428222401045 $241 $370 forward 7 unknown #
coedge $-1 $371 $372 $144 $244 forward $236 $-1 #
edge $-1 $373 -59.891615465979477 $248 -41.731195009906699 $243 $374 forward 7 unknown #
edge $-1 $249 -30.176083227447915 $373 2.6645283896817444e-014 $145 $375 forward 7 unknown #
coedge $-1 $146 $365 $371 $376 forward $247 $-1 #
loop $-1 $-1 $365 $235 #
vertex $-1 $244 $377 #
vertex $-1 $147 $378 #
straight-curve $-1 -18.033624512219678 -70.406204250095982 20.071428471223626 0 1 0 I I #
coedge $-1 $251 $251 $-1 $379 reversed $150 $-1 #
edge $-1 $380 0 $380 6.2831853071796004 $151 $381 forward 7 unknown #
vertex $-1 $154 $382 #
ellipse-curve $-1 -25.584701823080486 -37.059374324068152 10.991218243187227 0 -0.6018150307709319 0.79863550430605224 1.5 0 0 1 I I #
face $-1 $-1 $267 $34 $-1 $383 forward single #
loop $-1 $-1 $384 $155 #
plane-surface $-1 0 -49.10922004723529 0 0 1 0 0 0 1 forward_v I I I I #
coedge $-1 $385 $386 $387 $388 reversed $156 $-1 #
coedge $-1 $389 $158 $160 $265 forward $98 $-1 #
coedge $-1 $158 $389 $385 $390 forward $98 $-1 #
coedge $-1 $387 $161 $158 $262 forward $267 $-1 #
edge $-1 $269 -28.493572425267281 $391 -13.391417803545671 $261 $392 forward 7 unknown #
coedge $-1 $393 $394 $159 $264 forward $256 $-1 #
edge $-1 $395 -59.891615465979477 $268 -41.731195009906699 $263 $396 forward 7 unknown #
edge $-1 $269 -30.176083227447915 $395 2.6645283896817444e-014 $160 $397 forward 7 unknown #
coedge $-1 $161 $387 $393 $398 forward $267 $-1 #
loop $-1 $-1 $387 $255 #
vertex $-1 $264 $399 #
vertex $-1 $162 $400 #
straight-curve $-1 49.436067539673758 -70.406204250095982 20.071428471223626 0 1 0 I I #
coedge $-1 $271 $271 $-1 $401 reversed $165 $-1 #
edge $-1 $402 0 $402 6.2831853071796004 $166 $403 forward 7 unknown #
vertex $-1 $169 $404 #
ellipse-curve $-1 41.884990228812939 -37.059374324068152 10.991218243187227 0 -0.6018150307709319 0.79863550430605224 1.5 0 0 1 I I #
face $-1 $-1 $405 $36 $-1 $406 reversed single #
loop $-1 $-1 $176 $170 #
plane-surface $-1 0 0 20.071428471223623 0 0 1 1 0 0 forward_v I I I I #
coedge $-1 $407 $408 $409 $410 reversed $171 $-1 #
coedge $-1 $411 $173 $175 $285 forward $107 $-1 #
coedge $-1 $173 $411 $407 $412 forward $107 $-1 #
coedge $-1 $409 $176 $173 $282 forward $276 $-1 #
edge $-1 $288 -20.343428222401045 $413 -5.2412736006794383 $281 $414 forward 7 unknown #
coedge $-1 $415 $416 $174 $284 forward $405 $-1 #
edge $-1 $417 -89.446282239842844 $287 -71.285861783770073 $283 $418 forward 7 unknown #
edge $-1 $288 68.042356867022704 $417 98.218440094470623 $175 $419 forward 7 unknown #
coedge $-1 $176 $409 $415 $420 forward $276 $-1 #
vertex $-1 $284 $421 #
vertex $-1 $177 $422 #
straight-curve $-1 -33.135779133941284 31.185837531595336 20.071428471223626 0 -1 0 I I #
coedge $-1 $290 $290 $-1 $423 reversed $180 $-1 #
edge $-1 $424 0 $424 6.2831853071796004 $181 $425 forward 7 unknown #
vertex $-1 $184 $426 #
ellipse-curve $-1 -25.584701823080486 37.059374324068152 10.991218243187237 0 0.6018150307709319 0.79863550430605224 1.5 0 0 1 I I #
face $-1 $-1 $427 $38 $-1 $428 reversed single #
loop $-1 $-1 $191 $185 #
plane-surface $-1 0 0 20.071428471223623 0 0 1 1 0 0 forward_v I I I I #
coedge $-1 $429 $430 $431 $432 reversed $186 $-1 #
coedge $-1 $433 $188 $190 $304 forward $116 $-1 #
coedge $-1 $188 $433 $429 $434 forward $116 $-1 #
coedge $-1 $431 $191 $188 $301 forward $295 $-1 #
edge $-1 $307 13.391417803545671 $435 28.493572425267281 $300 $436 forward 7 unknown #
coedge $-1 $437 $438 $189 $303 forward $427 $-1 #
edge $-1 $439 -89.446282239842844 $306 -71.285861783770073 $302 $440 forward 7 unknown #
edge $-1 $307 68.042356867022704 $439 98.218440094470623 $190 $441 forward 7 unknown #
coedge $-1 $191 $431 $437 $442 forward $295 $-1 #
vertex $-1 $192 $443 #
vertex $-1 $192 $444 #
straight-curve $-1 34.333912917952148 31.185837531595336 20.071428471223626 0 -1 0 I I #
coedge $-1 $309 $309 $-1 $445 reversed $195 $-1 #
edge $-1 $446 0 $446 6.2831853071796004 $196 $447 forward 7 unknown #
vertex $-1 $199 $448 #
ellipse-curve $-1 41.884990228812939 37.059374324068152 10.991218243187237 0 0.6018150307709319 0.79863550430605224 1.5 0 0 1 I I #
face $-1 $-1 $215 $30 $-1 $449 reversed single #
loop $-1 $-1 $329 $200 #
plane-surface $-1 0 49.10922004723529 0 0 -1 0 0 0 -1 forward_v I I I I #
coedge $-1 $450 $327 $330 $451 forward $201 $-1 #
coedge $-1 $333 $203 $204 $321 reversed $125 $-1 #
coedge $-1 $327 $450 $203 $319 reversed $201 $-1 #
edge $-1 $334 -20.071428471223623 $452 20.071428471223623 $318 $453 forward 7 unknown #
coedge $-1 $205 $204 $450 $454 forward $81 $-1 #
edge $-1 $325 -76.188848536637465 $452 76.188848536637465 $317 $455 forward 7 unknown #
coedge $-1 $330 $329 $205 $323 reversed $314 $-1 #
edge $-1 $456 -76.188848536637465 $324 76.188848536637465 $322 $457 forward 7 unknown #
vertex $-1 $207 $458 #
vertex $-1 $336 $459 #
straight-curve $-1 76.188848536637465 0 -20.071428471223623 0 -1 0 I I #
coedge $-1 $316 $318 $208 $328 reversed $201 $-1 #
edge $-1 $331 -49.10922004723529 $334 49.10922004723529 $327 $460 forward 7 unknown #
coedge $-1 $322 $209 $214 $337 forward $314 $-1 #
coedge $-1 $209 $322 $316 $451 reversed $314 $-1 #
vertex $-1 $210 $461 #
straight-curve $-1 0 49.10922004723529 20.071428471223623 -1 0 0 I I #
coedge $-1 $211 $317 $213 $336 reversed $125 $-1 #
vertex $-1 $328 $462 #
straight-curve $-1 0 -49.10922004723529 20.071428471223623 1 0 0 I I #
edge $-1 $216 -20.071428471223623 $325 20.071428471223623 $213 $463 forward 7 unknown #
edge $-1 $217 -20.071428471223623 $324 20.071428471223623 $214 $464 forward 7 unknown #
point $-1 76.188848536637465 -49.10922004723529 20.071428471223623 #
point $-1 76.188848536637465 49.10922004723529 20.071428471223623 #
face $-1 $-1 $349 $31 $-1 $465 reversed single #
loop $-1 $-1 $346 $219 #
plane-surface $-1 0 0 20.071428471223623 0 0 1 1 0 0 forward_v I I I I #
coedge $-1 $466 $467 $226 $352 forward $220 $-1 #
coedge $-1 $222 $356 $468 $469 reversed $133 $-1 #
edge $-1 $470 -12.362332576956005 $232 -3.0558592115792376 $222 $471 forward 7 unknown #
coedge $-1 $468 $472 $223 $347 forward $341 $-1 #
edge $-1 $350 -49.10922004723529 $470 49.10922004723529 $346 $473 forward 7 unknown #
coedge $-1 $353 $224 $472 $474 reversed $349 $-1 #
loop $-1 $-1 $224 $340 #
vertex $-1 $225 $475 #
straight-curve $-1 -59.888560130905027 -49.10922004723529 7.7090958942676213 0 0 1 I I #
edge $-1 $357 -49.10922004723529 $354 49.10922004723529 $343 $476 forward 7 unknown #
coedge $-1 $227 $348 $466 $477 forward $349 $-1 #
vertex $-1 $352 $478 #
straight-curve $-1 -34.019352166885625 -49.10922004723529 10.764955105846859 1 0 0 I I #
coedge $-1 $344 $229 $467 $479 reversed $133 $-1 #
vertex $-1 $352 $480 #
straight-curve $-1 -34.019352166885625 49.10922004723529 10.764955105846859 -1 0 0 I I #
point $-1 -59.888560130905027 49.10922004723529 10.764955105846859 #
point $-1 -59.888560130905027 -49.10922004723529 10.764955105846859 #
plane-surface $-1 0 0 20.071428471223623 0 0 1 1 0 0 forward_v I I I I #
coedge $-1 $372 $371 $364 $481 forward $236 $-1 #
coedge $-1 $364 $238 $240 $368 reversed $141 $-1 #
coedge $-1 $238 $363 $362 $481 reversed $141 $-1 #
coedge $-1 $246 $241 $238 $366 forward $247 $-1 #
edge $-1 $369 -45.396675649194975 $482 -21.296984202860692 $365 $483 forward 7 unknown #
coedge $-1 $240 $239 $372 $484 reversed $89 $-1 #
edge $-1 $485 -2.6645283896817444e-014 $369 30.176083227447915 $363 $486 forward 7 unknown #
vertex $-1 $242 $487 #
straight-curve $-1 -12.79235091154024 -25.009528600901007 20.071428471223623 -1 0 0 I I #
coedge $-1 $362 $243 $246 $376 reversed $236 $-1 #
coedge $-1 $243 $362 $367 $484 forward $236 $-1 #
vertex $-1 $244 $488 #
straight-curve $-1 -18.033624512219678 -49.10922004723529 61.802623481130318 0 0 1 I I #
straight-curve $-1 -18.033624512219678 -49.109220047235269 1.9110080151508555 0 -0.79863550430605224 -0.6018150307709319 I I #
edge $-1 $482 -33.135779133941284 $248 -18.033624512219678 $371 $489 forward 7 unknown #
point $-1 -18.033624512219678 -49.10922004723529 20.071428471223623 #
point $-1 -18.033624512219678 -25.009528600901003 20.071428471223623 #
edge $-1 $490 1 $490 0 $251 $-1 forward 7 unknown #
vertex $-1 $252 $491 #
ellipse-curve $-1 -25.584701823080486 -35.049565211631823 8.3241115210215675 0 -0.6018150307709319 0.79863550430605224 1.5 0 0 1 I I #
point $-1 -24.084701823080486 -37.059374324068166 10.991218243187244 #
plane-surface $-1 0 0 20.071428471223623 0 0 1 1 0 0 forward_v I I I I #
coedge $-1 $394 $393 $386 $492 forward $256 $-1 #
coedge $-1 $386 $258 $260 $390 reversed $156 $-1 #
coedge $-1 $258 $385 $384 $492 reversed $156 $-1 #
coedge $-1 $266 $261 $258 $388 forward $267 $-1 #
edge $-1 $391 -45.396675649194975 $493 -21.296984202860692 $387 $494 forward 7 unknown #
coedge $-1 $260 $259 $394 $495 reversed $98 $-1 #
edge $-1 $496 -2.6645283896817444e-014 $391 30.176083227447915 $385 $497 forward 7 unknown #
vertex $-1 $262 $498 #
straight-curve $-1 20.942495114406476 -25.009528600901007 20.071428471223623 -1 0 0 I I #
coedge $-1 $384 $263 $266 $398 reversed $256 $-1 #
coedge $-1 $263 $384 $389 $495 forward $256 $-1 #
vertex $-1 $264 $499 #
straight-curve $-1 49.436067539673758 -49.10922004723529 61.802623481130318 0 0 1 I I #
straight-curve $-1 49.436067539673758 -49.109220047235269 1.9110080151508555 0 -0.79863550430605224 -0.6018150307709319 I I #
edge $-1 $493 34.333912917952148 $268 49.436067539673758 $393 $500 forward 7 unknown #
point $-1 49.436067539673758 -49.10922004723529 20.071428471223623 #
point $-1 49.436067539673758 -25.009528600901003 20.071428471223623 #
edge $-1 $501 1 $501 0 $271 $-1 forward 7 unknown #
vertex $-1 $272 $502 #
ellipse-curve $-1 41.884990228812939 -35.049565211631823 8.3241115210215675 0 -0.6018150307709319 0.79863550430605224 1.5 0 0 1 I I #
point $-1 43.384990228812939 -37.059374324068166 10.991218243187244 #
loop $-1 $-1 $283 $275 #
plane-surface $-1 0 49.10922004723529 0 0 -1 0 0 0 -1 forward_v I I I I #
coedge $-1 $408 $278 $280 $412 reversed $171 $-1 #
coedge $-1 $278 $407 $503 $504 reversed $171 $-1 #
coedge $-1 $286 $281 $278 $410 forward $276 $-1 #
edge $-1 $413 -6.1763089306943151 $505 17.923382515639954 $409 $506 forward 7 unknown #
coedge $-1 $280 $279 $416 $507 reversed $107 $-1 #
edge $-1 $508 -98.218440094470623 $413 -68.042356867022704 $407 $509 forward 7 unknown #
vertex $-1 $282 $510 #
straight-curve $-1 -12.79235091154024 25.009528600901024 20.071428471223623 1 0 0 I I #
coedge $-1 $503 $283 $286 $420 reversed $405 $-1 #
coedge $-1 $283 $503 $411 $507 forward $405 $-1 #
vertex $-1 $284 $511 #
straight-curve $-1 -33.135779133941284 49.10922004723529 91.3572902549937 0 0 1 I I #
straight-curve $-1 -33.135779133941284 -29.331513389766023 61.020341562877618 0 0.79863550430605224 -0.6018150307709319 I I #
edge $-1 $505 18.033624512219678 $287 33.135779133941284 $415 $512 forward 7 unknown #
point $-1 -33.135779133941284 49.10922004723529 20.071428471223623 #
point $-1 -33.135779133941284 25.009528600901021 20.071428471223626 #
edge $-1 $513 1 $513 0 $290 $-1 forward 7 unknown #
vertex $-1 $291 $514 #
ellipse-curve $-1 -25.584701823080486 35.049565211631815 8.324111521021571 0 0.6018150307709319 0.79863550430605224 1.5 0 0 1 I I #
point $-1 -24.084701823080486 37.059374324068159 10.991218243187248 #
loop $-1 $-1 $302 $294 #
plane-surface $-1 0 49.10922004723529 0 0 -1 0 0 0 -1 forward_v I I I I #
coedge $-1 $430 $297 $299 $434 reversed $186 $-1 #
coedge $-1 $297 $429 $515 $516 reversed $186 $-1 #
coedge $-1 $305 $300 $297 $432 forward $295 $-1 #
edge $-1 $435 -6.1763089306943151 $517 17.923382515639954 $431 $518 forward 7 unknown #
coedge $-1 $299 $298 $438 $519 reversed $116 $-1 #
edge $-1 $520 -98.218440094470623 $435 -68.042356867022704 $429 $521 forward 7 unknown #
vertex $-1 $301 $522 #
straight-curve $-1 20.942495114406476 25.009528600901024 20.071428471223623 1 0 0 I I #
coedge $-1 $515 $302 $305 $442 reversed $427 $-1 #
coedge $-1 $302 $515 $433 $519 forward $427 $-1 #
vertex $-1 $303 $523 #
straight-curve $-1 34.333912917952148 49.10922004723529 91.3572902549937 0 0 1 I I #
straight-curve $-1 34.333912917952148 -29.331513389766023 61.020341562877618 0 0.79863550430605224 -0.6018150307709319 I I #
edge $-1 $517 -49.436067539673758 $306 -34.333912917952148 $437 $524 forward 7 unknown #
point $-1 34.333912917952148 49.10922004723529 20.071428471223623 #
point $-1 34.333912917952148 25.009528600901021 20.071428471223626 #
edge $-1 $525 1 $525 0 $309 $-1 forward 7 unknown #
vertex $-1 $310 $526 #
ellipse-curve $-1 41.884990228812939 35.049565211631815 8.324111521021571 0 0.6018150307709319 0.79863550430605224 1.5 0 0 1 I I #
point $-1 43.384990228812939 37.059374324068159 10.991218243187248 #
plane-surface $-1 76.188848536637465 0 0 -1 0 0 0 0 1 forward_v I I I I #
coedge $-1 $318 $316 $320 $454 reversed $201 $-1 #
edge $-1 $331 -20.071428471223623 $456 20.071428471223623 $330 $527 forward 7 unknown #
vertex $-1 $454 $528 #
straight-curve $-1 -76.188848536637465 -49.10922004723529 0 0 0 -1 I I #
edge $-1 $452 -49.10922004723529 $456 49.10922004723529 $450 $529 forward 7 unknown #
straight-curve $-1 0 -49.10922004723529 -20.071428471223623 -1 0 0 I I #
vertex $-1 $323 $530 #
straight-curve $-1 0 49.10922004723529 -20.071428471223623 1 0 0 I I #
point $-1 76.188848536637465 49.10922004723529 -20.071428471223623 #
point $-1 76.188848536637465 -49.10922004723529 -20.071428471223623 #
straight-curve $-1 -76.188848536637465 0 20.071428471223623 0 -1 0 I I #
point $-1 -76.188848536637465 49.10922004723529 20.071428471223623 #
point $-1 -76.188848536637465 -49.10922004723529 20.071428471223623 #
straight-curve $-1 76.188848536637465 -49.10922004723529 0 0 0 -1 I I #
straight-curve $-1 76.188848536637465 49.10922004723529 0 0 0 -1 I I #
plane-surface $-1 0 -49.10922004723529 0 0 1 0 0 0 1 forward_v I I I I #
coedge $-1 $531 $343 $353 $477 reversed $220 $-1 #
coedge $-1 $343 $531 $356 $479 forward $220 $-1 #
coedge $-1 $532 $346 $344 $469 forward $341 $-1 #
edge $-1 $470 59.888560130905027 $533 76.188848536637465 $344 $534 forward 7 unknown #
vertex $-1 $469 $535 #
straight-curve $-1 -59.888560130905027 49.10922004723529 7.7090958942676213 0 0 -1 I I #
coedge $-1 $346 $532 $348 $474 forward $341 $-1 #
straight-curve $-1 -59.888560130905027 0 20.071428471223623 0 1 0 I I #
edge $-1 $536 -76.188848536637465 $350 -59.888560130905027 $348 $537 forward 7 unknown #
point $-1 -59.888560130905027 -49.10922004723529 20.071428471223626 #
straight-curve $-1 -76.188848536637465 0 10.764955105846859 0 -1 0 I I #
edge $-1 $536 -20.071428471223623 $354 -10.764955105846859 $466 $538 forward 7 unknown #
point $-1 -76.188848536637465 -49.10922004723529 10.764955105846859 #
edge $-1 $533 -20.071428471223623 $357 -10.764955105846859 $356 $539 forward 7 unknown #
point $-1 -76.188848536637465 49.10922004723529 10.764955105846859 #
edge $-1 $482 41.731195009906699 $485 59.891615465979477 $362 $540 forward 7 unknown #
vertex $-1 $376 $541 #
straight-curve $-1 -33.135779133941284 -70.406204250095982 20.071428471223626 0 -1 0 I I #
edge $-1 $485 -20.343428222401045 $373 -5.2412736006794383 $372 $542 forward 7 unknown #
vertex $-1 $484 $543 #
straight-curve $-1 -33.135779133941284 -49.109220047235269 1.9110080151508555 0 0.79863550430605224 0.6018150307709319 I I #
point $-1 -33.135779133941284 -25.009528600901003 20.071428471223623 #
point $-1 -18.033624512219678 -49.10922004723529 1.9110080151508395 #
straight-curve $-1 0 -49.10922004723529 20.071428471223623 1 0 0 I I #
vertex $-1 $379 $544 #
point $-1 -24.084701823080486 -35.049565211631823 8.3241115210215675 #
edge $-1 $493 41.731195009906699 $496 59.891615465979477 $384 $545 forward 7 unknown #
vertex $-1 $398 $546 #
straight-curve $-1 34.333912917952148 -70.406204250095982 20.071428471223626 0 -1 0 I I #
edge $-1 $496 13.391417803545671 $395 28.493572425267281 $394 $547 forward 7 unknown #
vertex $-1 $495 $548 #
straight-curve $-1 34.333912917952148 -49.109220047235269 1.9110080151508555 0 0.79863550430605224 0.6018150307709319 I I #
point $-1 34.333912917952148 -25.009528600901003 20.071428471223623 #
point $-1 49.436067539673758 -49.10922004723529 1.9110080151508395 #
straight-curve $-1 0 -49.10922004723529 20.071428471223623 1 0 0 I I #
vertex $-1 $401 $549 #
point $-1 43.384990228812939 -35.049565211631823 8.3241115210215675 #
coedge $-1 $416 $415 $408 $504 forward $405 $-1 #
edge $-1 $505 71.285861783770073 $508 89.446282239842844 $503 $550 forward 7 unknown #
vertex $-1 $420 $551 #
straight-curve $-1 -18.033624512219678 31.185837531595336 20.071428471223626 0 1 0 I I #
edge $-1 $508 5.2412736006794383 $417 20.343428222401045 $416 $552 forward 7 unknown #
vertex $-1 $507 $553 #
straight-curve $-1 -18.033624512219678 -29.331513389766023 61.020341562877618 0 -0.79863550430605224 0.6018150307709319 I I #
point $-1 -18.033624512219678 25.009528600901021 20.071428471223626 #
point $-1 -33.135779133941284 49.10922004723529 1.9110080151508555 #
straight-curve $-1 0 49.10922004723529 20.071428471223623 -1 0 0 I I #
vertex $-1 $423 $554 #
point $-1 -24.084701823080486 35.049565211631815 8.324111521021571 #
coedge $-1 $438 $437 $430 $516 forward $427 $-1 #
edge $-1 $517 71.285861783770073 $520 89.446282239842844 $515 $555 forward 7 unknown #
vertex $-1 $442 $556 #
straight-curve $-1 49.436067539673758 31.185837531595336 20.071428471223626 0 1 0 I I #
edge $-1 $520 -28.493572425267281 $439 -13.391417803545671 $438 $557 forward 7 unknown #
vertex $-1 $519 $558 #
straight-curve $-1 49.436067539673758 -29.331513389766023 61.020341562877618 0 -0.79863550430605224 0.6018150307709319 I I #
point $-1 49.436067539673758 25.009528600901021 20.071428471223626 #
point $-1 34.333912917952148 49.10922004723529 1.9110080151508555 #
straight-curve $-1 0 49.10922004723529 20.071428471223623 -1 0 0 I I #
vertex $-1 $445 $559 #
point $-1 43.384990228812939 35.049565211631815 8.324111521021571 #
straight-curve $-1 -76.188848536637465 49.10922004723529 0 0 0 -1 I I #
point $-1 -76.188848536637465 -49.10922004723529 -20.071428471223623 #
straight-curve $-1 -76.188848536637465 0 -20.071428471223623 0 1 0 I I #
point $-1 -76.188848536637465 49.10922004723529 -20.071428471223623 #
coedge $-1 $467 $466 $532 $560 reversed $220 $-1 #
coedge $-1 $472 $468 $531 $560 forward $341 $-1 #
vertex $-1 $469 $561 #
straight-curve $-1 0 49.10922004723529 20.071428471223623 -1 0 0 I I #
point $-1 -59.888560130905027 49.10922004723529 20.071428471223626 #
vertex $-1 $560 $562 #
straight-curve $-1 0 -49.10922004723529 20.071428471223623 1 0 0 I I #
straight-curve $-1 -76.188848536637465 -49.10922004723529 0 0 0 -1 I I #
straight-curve $-1 -76.188848536637465 49.10922004723529 0 0 0 -1 I I #
straight-curve $-1 -33.135779133941284 -49.10922004723529 61.802623481130318 0 0 -1 I I #
point $-1 -33.135779133941284 -49.10922004723529 20.071428471223623 #
straight-curve $-1 -12.79235091154024 -49.10922004723529 1.9110080151508413 1 0 0 I I #
point $-1 -33.135779133941284 -49.10922004723529 1.9110080151508395 #
point $-1 -25.584701823080486 -34.146842665475425 7.1261582645624886 #
straight-curve $-1 34.333912917952148 -49.10922004723529 61.802623481130318 0 0 -1 I I #
point $-1 34.333912917952148 -49.10922004723529 20.071428471223623 #
straight-curve $-1 20.942495114406476 -49.10922004723529 1.9110080151508413 1 0 0 I I #
point $-1 34.333912917952148 -49.10922004723529 1.9110080151508395 #
point $-1 41.884990228812939 -34.146842665475425 7.1261582645624886 #
straight-curve $-1 -18.033624512219678 49.10922004723529 91.3572902549937 0 0 -1 I I #
point $-1 -18.033624512219678 49.10922004723529 20.071428471223623 #
straight-curve $-1 -12.79235091154024 49.10922004723529 1.9110080151508626 -1 0 0 I I #
point $-1 -18.033624512219678 49.10922004723529 1.9110080151508555 #
point $-1 -25.584701823080486 34.146842665475418 7.1261582645624921 #
straight-curve $-1 49.436067539673758 49.10922004723529 91.3572902549937 0 0 -1 I I #
point $-1 49.436067539673758 49.10922004723529 20.071428471223623 #
straight-curve $-1 20.942495114406476 49.10922004723529 1.9110080151508626 -1 0 0 I I #
point $-1 49.436067539673758 49.10922004723529 1.9110080151508555 #
point $-1 41.884990228812939 34.146842665475418 7.1261582645624921 #
edge $-1 $533 -49.10922004723529 $536 49.10922004723529 $531 $563 forward 7 unknown #
point $-1 -76.188848536637465 49.10922004723529 20.071428471223623 #
point $-1 -76.188848536637465 -49.10922004723529 20.071428471223623 #
straight-curve $-1 -76.188848536637465 0 20.071428471223623 0 -1 0 I I #
End-of-ACIS-data 