500 0 8 0           
7 Unknown 11 ACIS 5.0 NT 24 Fri Mar 26 20:10:47 1999 
-1 9.9999999999999995e-007 1e-010 
body $-1 $8 $-1 $9 #
body $-1 $10 $-1 $11 #
body $-1 $12 $-1 $13 #
body $-1 $14 $-1 $15 #
body $-1 $16 $-1 $17 #
body $-1 $18 $-1 $19 #
body $-1 $20 $-1 $21 #
body $-1 $22 $-1 $23 #
lump $-1 $-1 $24 $0 #
transform $-1 1 0 0 0 1 0 0 0 1 72.967314676351208 39.249854984922742 10.182179244783997 1 rotate no_reflect no_shear #
lump $-1 $-1 $25 $1 #
transform $-1 1 0 0 0 1 0 0 0 1 72.967314676351208 39.249854984922742 10.182179244783997 1 rotate no_reflect no_shear #
lump $-1 $-1 $26 $2 #
transform $-1 1 0 0 0 1 0 0 0 1 72.967314676351208 39.249854984922742 10.182179244783997 1 rotate no_reflect no_shear #
lump $-1 $-1 $27 $3 #
transform $-1 1 0 0 0 1 0 0 0 1 72.967314676351208 39.249854984922742 10.182179244783997 1 rotate no_reflect no_shear #
lump $-1 $-1 $28 $4 #
transform $-1 1 0 0 0 1 0 0 0 1 72.967314676351208 39.249854984922742 10.182179244783997 1 rotate no_reflect no_shear #
lump $-1 $-1 $29 $5 #
transform $-1 1 0 0 0 1 0 0 0 1 72.967314676351208 39.249854984922742 10.182179244783997 1 rotate no_reflect no_shear #
lump $-1 $-1 $30 $6 #
transform $-1 1 0 0 0 1 0 0 0 1 72.967314676351208 39.249854984922742 10.182179244783997 1 rotate no_reflect no_shear #
lump $-1 $-1 $31 $7 #
transform $-1 1 0 0 0 1 0 0 0 1 72.967314676351208 39.249854984922742 10.182179244783997 1 rotate no_reflect no_shear #
shell $-1 $-1 $-1 $32 $-1 $8 #
shell $-1 $-1 $-1 $33 $-1 $10 #
shell $-1 $-1 $-1 $34 $-1 $12 #
shell $-1 $-1 $-1 $35 $-1 $14 #
shell $-1 $-1 $-1 $36 $-1 $16 #
shell $-1 $-1 $-1 $37 $-1 $18 #
shell $-1 $-1 $-1 $38 $-1 $20 #
shell $-1 $-1 $-1 $39 $-1 $22 #
face $-1 $40 $41 $24 $-1 $42 forward single #
face $-1 $43 $44 $25 $-1 $45 reversed single #
face $-1 $46 $47 $26 $-1 $48 reversed single #
face $-1 $49 $50 $27 $-1 $51 forward single #
face $-1 $52 $53 $28 $-1 $54 reversed single #
face $-1 $55 $56 $29 $-1 $57 forward single #
face $-1 $58 $59 $30 $-1 $60 forward single #
face $-1 $61 $62 $31 $-1 $63 forward single #
face $-1 $64 $65 $24 $-1 $66 reversed single #
loop $-1 $-1 $67 $32 #
plane-surface $-1 0 0 10.182179244783997 0 0 1 1 0 0 forward_v I I I I #
face $-1 $68 $69 $25 $-1 $70 reversed single #
loop $-1 $-1 $71 $33 #
plane-surface $-1 0 -34.728199238762372 7.1821792447839972 0 0 1 1 0 0 forward_v I I I I #
face $-1 $72 $73 $26 $-1 $74 reversed single #
loop $-1 $-1 $75 $34 #
plane-surface $-1 -72.967314676351222 -24.6869356915964 0.99687341548744257 -0.66913061440640931 0 0.74314481823134659 0.74314481823134659 0 0.66913061440640931 forward_v I I I I #
face $-1 $76 $77 $27 $-1 $78 forward single #
loop $-1 $79 $80 $35 #
cone-surface $-1 -65.185856354474723 -24.6869356915964 2.6121956658892134 0.66913061440640931 0 -0.74314481823134659 1.8578620455783665 0 1.6728265360160233 1 I I 0 1 2.5 forward I I I I #
face $-1 $81 $82 $28 $-1 $83 reversed single #
loop $-1 $-1 $84 $36 #
plane-surface $-1 37.129331188008351 10.082131319612952 203.24906844980839 0 -1 0 -0.57357644374324357 0 -0.81915203911291934 forward_v I I I I #
face $-1 $85 $86 $29 $-1 $87 forward single #
loop $-1 $88 $89 $37 #
cone-surface $-1 65.269808856337974 0.44086166309347874 4.4808210104594268 -0.57357644374324357 0 -0.81915203911291934 0.40957601955645967 0 -0.28678822187162178 1 I I 0 1 0.5 forward I I I I #
face $-1 $90 $91 $30 $-1 $92 forward single #
loop $-1 $93 $94 $38 #
cone-surface $-1 65.269808856337974 4.0563377842882815 4.4808210104594268 -0.57357644374324357 0 -0.81915203911291934 0.40957601955645967 0 -0.28678822187162178 1 I I 0 1 0.5 forward I I I I #
face $-1 $95 $96 $31 $-1 $97 forward single #
loop $-1 $98 $99 $39 #
cone-surface $-1 65.269808856337974 7.6718139054830843 4.4808210104594268 -0.57357644374324357 0 -0.81915203911291934 0.40957601955645967 0 -0.28678822187162178 1 I I 0 1 0.5 forward I I I I #
face $-1 $100 $101 $24 $-1 $102 reversed single #
loop $-1 $-1 $103 $40 #
plane-surface $-1 0 0 -10.182179244783997 0 0 1 1 0 0 forward_v I I I I #
coedge $-1 $104 $105 $106 $107 forward $41 $-1 #
face $-1 $108 $109 $25 $-1 $110 reversed single #
loop $-1 $-1 $111 $43 #
plane-surface $-1 0 -30.206543492602002 8.6821792447839972 0 -1 0 0 0 -1 forward_v I I I I #
coedge $-1 $112 $113 $114 $115 reversed $44 $-1 #
face $-1 $116 $117 $26 $-1 $118 forward single #
loop $-1 $-1 $119 $46 #
plane-surface $-1 -170.6166428782966 -19.167327890590798 109.44743701946042 0 -1 0 0.66913061440640931 0 -0.74314481823134659 forward_v I I I I #
coedge $-1 $120 $121 $122 $123 reversed $47 $-1 #
face $-1 $-1 $124 $27 $-1 $125 forward single #
loop $-1 $126 $127 $49 #
cone-surface $-1 -61.668642456786316 -24.6869356915964 -1.2940660211464863 0.66913061440640931 0 -0.74314481823134659 0.92893102278918327 0 0.83641326800801163 1 I I -0.70710678118654746 0.70710678118654746 1.25 forward I I I I #
loop $-1 $-1 $128 $35 #
coedge $-1 $80 $80 $129 $130 reversed $50 $-1 #
face $-1 $131 $132 $28 $-1 $133 reversed single #
loop $-1 $-1 $134 $52 #
plane-surface $-1 -46.575334535103067 4.0563377842882815 83.706419238354115 0.57357644374324357 0 0.81915203911291934 0.81915203911291934 0 -0.57357644374324357 forward_v I I I I #
coedge $-1 $135 $136 $137 $138 reversed $53 $-1 #
face $-1 $-1 $139 $29 $-1 $140 forward single #
loop $-1 $141 $142 $55 #
cone-surface $-1 64.698486142479425 0.44086166309347874 3.6648876311272556 -0.57357644374324357 0 -0.81915203911291934 0.20478800977822983 0 -0.14339411093581089 1 I I -0.70710678118654746 0.70710678118654746 0.25 forward I I I I #
loop $-1 $-1 $143 $37 #
coedge $-1 $89 $89 $144 $145 reversed $56 $-1 #
face $-1 $-1 $146 $30 $-1 $147 forward single #
loop $-1 $148 $149 $58 #
cone-surface $-1 64.698486142479425 4.0563377842882815 3.6648876311272556 -0.57357644374324357 0 -0.81915203911291934 0.20478800977822983 0 -0.14339411093581089 1 I I -0.70710678118654746 0.70710678118654746 0.25 forward I I I I #
loop $-1 $-1 $150 $38 #
coedge $-1 $94 $94 $151 $152 reversed $59 $-1 #
face $-1 $-1 $153 $31 $-1 $154 forward single #
loop $-1 $155 $156 $61 #
cone-surface $-1 64.698486142479425 7.6718139054830843 3.6648876311272556 -0.57357644374324357 0 -0.81915203911291934 0.20478800977822983 0 -0.14339411093581089 1 I I -0.70710678118654746 0.70710678118654746 0.25 forward I I I I #
loop $-1 $-1 $157 $39 #
coedge $-1 $99 $99 $158 $159 reversed $62 $-1 #
face $-1 $160 $161 $24 $-1 $162 reversed single #
loop $-1 $-1 $163 $64 #
plane-surface $-1 0 -39.249854984922742 0 0 1 0 0 0 1 forward_v I I I I #
coedge $-1 $164 $165 $166 $167 forward $65 $-1 #
coedge $-1 $168 $67 $169 $170 forward $41 $-1 #
coedge $-1 $67 $168 $171 $172 forward $41 $-1 #
coedge $-1 $173 $174 $67 $107 reversed $175 $-1 #
edge $-1 $176 -39.249854984922742 $177 39.249854984922742 $106 $178 forward 7 unknown #
face $-1 $179 $180 $25 $-1 $181 reversed single #
loop $-1 $-1 $182 $68 #
plane-surface $-1 -72.967314676351208 0 0 1 0 0 0 0 -1 forward_v I I I I #
coedge $-1 $183 $184 $185 $186 reversed $69 $-1 #
coedge $-1 $187 $71 $188 $189 reversed $44 $-1 #
coedge $-1 $71 $187 $183 $190 forward $44 $-1 #
coedge $-1 $185 $191 $71 $115 forward $192 $-1 #
edge $-1 $193 -21.885755365541556 $194 -12.842443873220816 $114 $195 forward 7 unknown #
face $-1 $196 $197 $26 $-1 $198 reversed single #
loop $-1 $-1 $122 $72 #
plane-surface $-1 0 0 10.182179244783997 0 0 1 1 0 0 forward_v I I I I #
coedge $-1 $199 $200 $201 $202 reversed $73 $-1 #
coedge $-1 $203 $75 $204 $205 reversed $47 $-1 #
coedge $-1 $75 $203 $199 $206 forward $47 $-1 #
coedge $-1 $201 $207 $75 $123 forward $117 $-1 #
edge $-1 $208 -17.8630756468038 $209 -6.8238600447925979 $122 $210 forward 7 unknown #
loop $-1 $-1 $129 $76 #
plane-surface $-1 -72.967314676351222 -24.6869356915964 0.99687341548744257 -0.66913061440640931 0 0.74314481823134659 0.74314481823134659 0 0.66913061440640931 forward_v I I I I #
loop $-1 $-1 $211 $49 #
coedge $-1 $127 $127 $128 $212 reversed $77 $-1 #
coedge $-1 $128 $128 $127 $212 forward $79 $-1 #
coedge $-1 $129 $129 $80 $130 forward $124 $-1 #
edge $-1 $213 0 $213 6.2831853071796004 $129 $214 forward 7 unknown #
face $-1 $215 $216 $28 $-1 $217 reversed single #
loop $-1 $-1 $218 $81 #
plane-surface $-1 37.129331188008351 -1.9694557510363886 203.24906844980839 0 1 0 0.57357644374324357 0 0.81915203911291934 forward_v I I I I #
coedge $-1 $219 $220 $221 $222 reversed $82 $-1 #
coedge $-1 $136 $84 $223 $224 reversed $53 $-1 #
coedge $-1 $84 $135 $219 $225 reversed $53 $-1 #
coedge $-1 $221 $226 $84 $138 forward $227 $-1 #
edge $-1 $228 -54.402649082347033 $229 -39.863494648165975 $137 $230 forward 7 unknown #
loop $-1 $-1 $144 $85 #
plane-surface $-1 -46.575334535103067 4.0563377842882815 83.706419238354115 0.57357644374324357 0 0.81915203911291934 0.81915203911291934 0 -0.57357644374324357 forward_v I I I I #
loop $-1 $-1 $231 $55 #
coedge $-1 $142 $142 $143 $232 reversed $86 $-1 #
coedge $-1 $143 $143 $142 $232 forward $88 $-1 #
coedge $-1 $144 $144 $89 $145 forward $139 $-1 #
edge $-1 $233 0 $233 6.2831853071796004 $144 $234 forward 7 unknown #
loop $-1 $-1 $151 $90 #
plane-surface $-1 -46.575334535103067 4.0563377842882815 83.706419238354115 0.57357644374324357 0 0.81915203911291934 0.81915203911291934 0 -0.57357644374324357 forward_v I I I I #
loop $-1 $-1 $235 $58 #
coedge $-1 $149 $149 $150 $236 reversed $91 $-1 #
coedge $-1 $150 $150 $149 $236 forward $93 $-1 #
coedge $-1 $151 $151 $94 $152 forward $146 $-1 #
edge $-1 $237 0 $237 6.2831853071796004 $151 $238 forward 7 unknown #
loop $-1 $-1 $158 $95 #
plane-surface $-1 -46.575334535103067 4.0563377842882815 83.706419238354115 0.57357644374324357 0 0.81915203911291934 0.81915203911291934 0 -0.57357644374324357 forward_v I I I I #
loop $-1 $-1 $239 $61 #
coedge $-1 $156 $156 $157 $240 reversed $96 $-1 #
coedge $-1 $157 $157 $156 $240 forward $98 $-1 #
coedge $-1 $158 $158 $99 $159 forward $153 $-1 #
edge $-1 $241 0 $241 6.2831853071796004 $158 $242 forward 7 unknown #
face $-1 $243 $244 $24 $-1 $245 reversed single #
loop $-1 $-1 $246 $100 #
plane-surface $-1 -72.967314676351208 0 0 1 0 0 0 0 -1 forward_v I I I I #
coedge $-1 $247 $171 $248 $249 forward $101 $-1 #
coedge $-1 $250 $103 $247 $251 forward $65 $-1 #
coedge $-1 $103 $250 $252 $253 forward $65 $-1 #
coedge $-1 $174 $173 $103 $167 reversed $175 $-1 #
edge $-1 $254 -39.249854984922742 $255 39.249854984922742 $166 $256 forward 7 unknown #
coedge $-1 $105 $104 $257 $258 forward $41 $-1 #
coedge $-1 $259 $260 $104 $170 reversed $244 $-1 #
edge $-1 $177 -72.967314676351208 $261 72.967314676351208 $169 $262 forward 7 unknown #
coedge $-1 $163 $263 $105 $172 reversed $101 $-1 #
edge $-1 $264 -72.967314676351208 $176 72.967314676351208 $171 $265 forward 7 unknown #
coedge $-1 $166 $106 $263 $266 forward $175 $-1 #
coedge $-1 $106 $166 $259 $267 reversed $175 $-1 #
loop $-1 $-1 $173 $243 #
vertex $-1 $107 $268 #
vertex $-1 $107 $269 #
straight-curve $-1 72.967314676351208 0 10.182179244783997 0 1 0 I I #
face $-1 $270 $271 $25 $-1 $272 forward single #
loop $-1 $-1 $188 $108 #
plane-surface $-1 0 -39.249854984922742 0 0 1 0 0 0 1 forward_v I I I I #
coedge $-1 $273 $274 $275 $276 forward $109 $-1 #
coedge $-1 $275 $111 $113 $190 reversed $69 $-1 #
coedge $-1 $111 $275 $277 $278 reversed $69 $-1 #
coedge $-1 $279 $114 $111 $186 forward $192 $-1 #
edge $-1 $194 2.8410896223919986 $280 5.8410896223919986 $185 $281 forward 7 unknown #
coedge $-1 $113 $112 $273 $282 reversed $44 $-1 #
coedge $-1 $283 $284 $112 $189 forward $180 $-1 #
edge $-1 $285 -72.967314676351208 $193 72.967314676351208 $188 $286 forward 7 unknown #
edge $-1 $287 -72.967314676351208 $194 72.967314676351208 $183 $288 forward 7 unknown #
coedge $-1 $114 $279 $283 $289 forward $192 $-1 #
loop $-1 $-1 $185 $270 #
vertex $-1 $189 $290 #
vertex $-1 $115 $291 #
straight-curve $-1 72.967314676351208 -17.364099619381186 7.1821792447839972 0 1 0 I I #
face $-1 $-1 $292 $26 $-1 $293 forward single #
loop $-1 $-1 $294 $116 #
plane-surface $-1 -72.967314676351208 0 0 1 0 0 0 0 -1 forward_v I I I I #
coedge $-1 $200 $119 $121 $206 reversed $73 $-1 #
coedge $-1 $119 $199 $294 $295 reversed $73 $-1 #
coedge $-1 $296 $122 $119 $202 forward $117 $-1 #
edge $-1 $209 -22.542322147189289 $297 -12.341006762797093 $201 $298 forward 7 unknown #
coedge $-1 $121 $120 $299 $300 reversed $47 $-1 #
coedge $-1 $301 $302 $120 $205 forward $292 $-1 #
edge $-1 $303 -29.683877606722408 $208 -15.956653606599659 $204 $304 forward 7 unknown #
edge $-1 $305 1.9103891512089958e-014 $209 13.727224000122764 $199 $306 forward 7 unknown #
coedge $-1 $122 $296 $301 $307 forward $117 $-1 #
vertex $-1 $205 $308 #
vertex $-1 $123 $309 #
straight-curve $-1 -62.765999291959005 -12.3434678457982 10.182179244783995 0 1 0 I I #
coedge $-1 $211 $211 $-1 $310 reversed $126 $-1 #
edge $-1 $311 0 $311 6.2831853071796004 $127 $312 forward 7 unknown #
vertex $-1 $130 $313 #
ellipse-curve $-1 -67.866656984155114 -24.6869356915964 5.5895263301357252 -0.66913061440640931 0 0.74314481823134659 1.8578620455783665 0 1.6728265360160233 1 I I #
face $-1 $-1 $227 $28 $-1 $314 forward single #
loop $-1 $-1 $315 $131 #
plane-surface $-1 72.967314676351208 0 0 -1 0 0 0 0 1 forward_v I I I I #
coedge $-1 $316 $317 $318 $319 reversed $132 $-1 #
coedge $-1 $320 $134 $136 $225 forward $82 $-1 #
coedge $-1 $134 $320 $316 $321 forward $82 $-1 #
coedge $-1 $318 $137 $134 $222 forward $227 $-1 #
edge $-1 $229 -8.0539624274688109 $322 3.9976246431805293 $221 $323 forward 7 unknown #
coedge $-1 $324 $325 $135 $224 forward $216 $-1 #
edge $-1 $326 -101.6227807096615 $228 -91.4423549801202 $223 $327 forward 7 unknown #
edge $-1 $229 128.18559896522285 $326 145.93462935270242 $136 $328 forward 7 unknown #
coedge $-1 $137 $318 $324 $329 forward $227 $-1 #
loop $-1 $-1 $318 $215 #
vertex $-1 $224 $330 #
vertex $-1 $138 $331 #
straight-curve $-1 18.564665594004175 10.082131319612952 10.182179244783995 -1 0 0 I I #
coedge $-1 $231 $231 $-1 $332 reversed $141 $-1 #
edge $-1 $333 0 $333 6.2831853071796004 $142 $334 forward 7 unknown #
vertex $-1 $145 $335 #
ellipse-curve $-1 65.697737459260694 0.44086166309347874 5.0919663800133392 0.57357644374324357 0 0.81915203911291934 0.40957601955645967 0 -0.28678822187162178 1 I I #
coedge $-1 $235 $235 $-1 $336 reversed $148 $-1 #
edge $-1 $337 0 $337 6.2831853071796004 $149 $338 forward 7 unknown #
vertex $-1 $152 $339 #
ellipse-curve $-1 65.697737459260694 4.0563377842882815 5.0919663800133392 0.57357644374324357 0 0.81915203911291934 0.40957601955645967 0 -0.28678822187162178 1 I I #
coedge $-1 $239 $239 $-1 $340 reversed $155 $-1 #
edge $-1 $341 0 $341 6.2831853071796004 $156 $342 forward 7 unknown #
vertex $-1 $159 $343 #
ellipse-curve $-1 65.697737459260694 7.6718139054830843 5.0919663800133392 0.57357644374324357 0 0.81915203911291934 0.40957601955645967 0 -0.28678822187162178 1 I I #
face $-1 $-1 $175 $24 $-1 $344 reversed single #
loop $-1 $-1 $259 $160 #
plane-surface $-1 0 39.249854984922742 0 0 -1 0 0 0 -1 forward_v I I I I #
coedge $-1 $345 $257 $260 $346 forward $161 $-1 #
coedge $-1 $263 $163 $164 $251 reversed $101 $-1 #
coedge $-1 $257 $345 $163 $249 reversed $161 $-1 #
edge $-1 $264 -10.182179244783997 $347 10.182179244783997 $248 $348 forward 7 unknown #
coedge $-1 $165 $164 $345 $349 forward $65 $-1 #
edge $-1 $255 -72.967314676351208 $347 72.967314676351208 $247 $350 forward 7 unknown #
coedge $-1 $260 $259 $165 $253 reversed $244 $-1 #
edge $-1 $351 -72.967314676351208 $254 72.967314676351208 $252 $352 forward 7 unknown #
vertex $-1 $167 $353 #
vertex $-1 $266 $354 #
straight-curve $-1 72.967314676351208 0 -10.182179244783997 0 -1 0 I I #
coedge $-1 $246 $248 $168 $258 reversed $161 $-1 #
edge $-1 $261 -39.249854984922742 $264 39.249854984922742 $257 $355 forward 7 unknown #
coedge $-1 $252 $169 $174 $267 forward $244 $-1 #
coedge $-1 $169 $252 $246 $346 reversed $244 $-1 #
vertex $-1 $170 $356 #
straight-curve $-1 0 39.249854984922742 10.182179244783997 -1 0 0 I I #
coedge $-1 $171 $247 $173 $266 reversed $101 $-1 #
vertex $-1 $258 $357 #
straight-curve $-1 0 -39.249854984922742 10.182179244783997 1 0 0 I I #
edge $-1 $176 -10.182179244783997 $255 10.182179244783997 $173 $358 forward 7 unknown #
edge $-1 $177 -10.182179244783997 $254 10.182179244783997 $174 $359 forward 7 unknown #
point $-1 72.967314676351208 -39.249854984922742 10.182179244783997 #
point $-1 72.967314676351208 39.249854984922742 10.182179244783997 #
face $-1 $-1 $192 $25 $-1 $360 reversed single #
loop $-1 $-1 $277 $179 #
plane-surface $-1 0 0 10.182179244783997 0 0 1 1 0 0 forward_v I I I I #
coedge $-1 $361 $182 $187 $282 forward $109 $-1 #
coedge $-1 $182 $361 $362 $363 reversed $109 $-1 #
coedge $-1 $184 $183 $182 $276 reversed $69 $-1 #
edge $-1 $364 -5.8410896223919986 $287 -2.8410896223919986 $182 $365 forward 7 unknown #
coedge $-1 $362 $366 $184 $278 forward $271 $-1 #
edge $-1 $280 -72.967314676351208 $364 72.967314676351208 $277 $367 forward 7 unknown #
coedge $-1 $191 $185 $366 $368 reversed $192 $-1 #
vertex $-1 $186 $369 #
straight-curve $-1 72.967314676351208 -30.206543492602002 4.3410896223919986 0 0 1 I I #
edge $-1 $287 12.842443873220816 $285 21.885755365541556 $273 $370 forward 7 unknown #
coedge $-1 $371 $188 $191 $289 reversed $180 $-1 #
coedge $-1 $188 $371 $361 $372 forward $180 $-1 #
vertex $-1 $189 $373 #
straight-curve $-1 0 -39.249854984922742 7.1821792447839972 1 0 0 I I #
vertex $-1 $282 $374 #
straight-curve $-1 0 -30.206543492602002 7.1821792447839972 1 0 0 I I #
edge $-1 $375 -10.182179244783997 $193 -7.1821792447839972 $191 $376 forward 7 unknown #
point $-1 72.967314676351208 -39.249854984922742 7.1821792447839972 #
point $-1 72.967314676351208 -30.206543492602002 7.1821792447839972 #
loop $-1 $-1 $204 $196 #
plane-surface $-1 0 -30.206543492602002 8.6821792447839972 0 -1 0 0 0 -1 forward_v I I I I #
coedge $-1 $299 $377 $200 $295 forward $197 $-1 #
edge $-1 $297 44.541539264946216 $305 53.726845094242755 $294 $378 forward 7 unknown #
coedge $-1 $207 $201 $377 $379 forward $117 $-1 #
vertex $-1 $379 $380 #
straight-curve $-1 -85.308321439148301 -19.167327890590798 10.182179244783995 -1 0 0 I I #
coedge $-1 $381 $294 $203 $300 forward $197 $-1 #
edge $-1 $305 6.8238600447925979 $303 17.8630756468038 $299 $382 forward 7 unknown #
coedge $-1 $302 $204 $207 $307 reversed $292 $-1 #
coedge $-1 $204 $301 $381 $383 reversed $292 $-1 #
vertex $-1 $383 $384 #
straight-curve $-1 -50.907894847901943 -30.206543492602002 20.859264676438276 0.74314481823134659 0 0.66913061440640931 I I #
vertex $-1 $300 $385 #
straight-curve $-1 -72.967314676351222 -19.167327890590798 0.99687341548744257 0.74314481823134659 0 0.66913061440640931 I I #
edge $-1 $386 -72.967314676351208 $208 -62.765999291959005 $207 $387 forward 7 unknown #
point $-1 -62.765999291959005 -30.206543492602002 10.182179244783997 #
point $-1 -62.765999291959012 -19.167327890590798 10.182179244783997 #
edge $-1 $388 1 $388 0 $211 $-1 forward 7 unknown #
vertex $-1 $212 $389 #
ellipse-curve $-1 -62.505055724794325 -24.6869356915964 -0.36513499835730301 -0.66913061440640931 0 0.74314481823134659 1.8578620455783665 0 1.6728265360160233 1 I I #
point $-1 -66.008794938576742 -24.6869356915964 7.2623528661517529 #
plane-surface $-1 0 0 10.182179244783997 0 0 1 1 0 0 forward_v I I I I #
coedge $-1 $325 $324 $317 $390 forward $216 $-1 #
coedge $-1 $317 $218 $220 $321 reversed $132 $-1 #
coedge $-1 $218 $316 $315 $390 reversed $132 $-1 #
coedge $-1 $226 $221 $218 $319 forward $227 $-1 #
edge $-1 $322 39.863494648165975 $391 54.402649082347033 $318 $392 forward 7 unknown #
coedge $-1 $220 $219 $325 $393 reversed $82 $-1 #
edge $-1 $394 -145.93462935270242 $322 -128.18559896522285 $316 $395 forward 7 unknown #
vertex $-1 $222 $396 #
straight-curve $-1 58.428160242170144 2.0281688921441408 10.182179244783995 0 -1 0 I I #
coedge $-1 $315 $223 $226 $329 reversed $216 $-1 #
coedge $-1 $223 $315 $320 $393 forward $216 $-1 #
vertex $-1 $224 $397 #
straight-curve $-1 72.967314676351208 10.082131319612952 101.6245342249042 0 0 1 I I #
straight-curve $-1 -46.575334535103067 10.082131319612952 83.706419238354115 0.81915203911291934 0 -0.57357644374324357 I I #
edge $-1 $391 -1.9694557510363886 $228 10.082131319612952 $324 $398 forward 7 unknown #
point $-1 72.967314676351208 10.082131319612952 10.182179244783997 #
point $-1 58.428160242170151 10.082131319612952 10.182179244783995 #
edge $-1 $399 1 $399 0 $231 $-1 forward 7 unknown #
vertex $-1 $232 $400 #
ellipse-curve $-1 64.841880253415241 0.44086166309347874 3.8696756409054855 0.57357644374324357 0 0.81915203911291934 0.40957601955645967 0 -0.28678822187162178 1 I I #
point $-1 66.107313478817161 0.44086166309347874 4.8051781581417456 #
edge $-1 $401 1 $401 0 $235 $-1 forward 7 unknown #
vertex $-1 $236 $402 #
ellipse-curve $-1 64.841880253415241 4.0563377842882815 3.8696756409054855 0.57357644374324357 0 0.81915203911291934 0.40957601955645967 0 -0.28678822187162178 1 I I #
point $-1 66.107313478817161 4.0563377842882815 4.8051781581417456 #
edge $-1 $403 1 $403 0 $239 $-1 forward 7 unknown #
vertex $-1 $240 $404 #
ellipse-curve $-1 64.841880253415241 7.6718139054830843 3.8696756409054855 0.57357644374324357 0 0.81915203911291934 0.40957601955645967 0 -0.28678822187162178 1 I I #
point $-1 66.107313478817161 7.6718139054830843 4.8051781581417456 #
plane-surface $-1 72.967314676351208 0 0 -1 0 0 0 0 1 forward_v I I I I #
coedge $-1 $248 $246 $250 $349 reversed $161 $-1 #
edge $-1 $261 -10.182179244783997 $351 10.182179244783997 $260 $405 forward 7 unknown #
vertex $-1 $349 $406 #
straight-curve $-1 -72.967314676351208 -39.249854984922742 0 0 0 -1 I I #
edge $-1 $347 -39.249854984922742 $351 39.249854984922742 $345 $407 forward 7 unknown #
straight-curve $-1 0 -39.249854984922742 -10.182179244783997 -1 0 0 I I #
vertex $-1 $253 $408 #
straight-curve $-1 0 39.249854984922742 -10.182179244783997 1 0 0 I I #
point $-1 72.967314676351208 39.249854984922742 -10.182179244783997 #
point $-1 72.967314676351208 -39.249854984922742 -10.182179244783997 #
straight-curve $-1 -72.967314676351208 0 10.182179244783997 0 -1 0 I I #
point $-1 -72.967314676351208 39.249854984922742 10.182179244783997 #
point $-1 -72.967314676351208 -39.249854984922742 10.182179244783997 #
straight-curve $-1 72.967314676351208 -39.249854984922742 0 0 0 -1 I I #
straight-curve $-1 72.967314676351208 39.249854984922742 0 0 0 -1 I I #
plane-surface $-1 72.967314676351208 0 0 -1 0 0 0 0 1 forward_v I I I I #
coedge $-1 $274 $273 $284 $372 reversed $109 $-1 #
coedge $-1 $409 $277 $274 $363 forward $271 $-1 #
edge $-1 $364 30.206543492602002 $410 39.249854984922742 $274 $411 forward 7 unknown #
vertex $-1 $363 $412 #
straight-curve $-1 -72.967314676351208 -30.206543492602002 4.3410896223919986 0 0 -1 I I #
coedge $-1 $277 $409 $279 $368 forward $271 $-1 #
straight-curve $-1 0 -30.206543492602002 10.182179244783997 -1 0 0 I I #
edge $-1 $375 -39.249854984922742 $280 -30.206543492602002 $279 $413 forward 7 unknown #
point $-1 72.967314676351208 -30.206543492602002 10.182179244783997 #
straight-curve $-1 -72.967314676351208 -17.364099619381186 7.1821792447839972 0 -1 0 I I #
coedge $-1 $284 $283 $409 $414 reversed $180 $-1 #
edge $-1 $410 -10.182179244783997 $285 -7.1821792447839972 $361 $415 forward 7 unknown #
point $-1 -72.967314676351208 -39.249854984922742 7.1821792447839972 #
point $-1 -72.967314676351208 -30.206543492602002 7.1821792447839972 #
vertex $-1 $368 $416 #
straight-curve $-1 72.967314676351208 -39.249854984922742 0 0 0 -1 I I #
coedge $-1 $294 $381 $296 $379 reversed $197 $-1 #
straight-curve $-1 -72.967314676351208 -19.167327890590798 54.723718509730212 0 0 -1 I I #
edge $-1 $297 19.167327890590798 $386 30.206543492602002 $377 $417 forward 7 unknown #
point $-1 -72.967314676351208 -19.167327890590798 10.182179244783997 #
coedge $-1 $377 $299 $302 $383 forward $197 $-1 #
straight-curve $-1 -72.967314676351208 -12.3434678457982 0.9968734154874459 0 -1 0 I I #
edge $-1 $303 -53.726845094242755 $386 -44.541539264946216 $381 $418 forward 7 unknown #
point $-1 -72.967314676351208 -30.206543492602002 0.99687341548745534 #
point $-1 -72.967314676351208 -19.167327890590798 0.99687341548745534 #
vertex $-1 $383 $419 #
straight-curve $-1 0 -30.206543492602002 10.182179244783997 1 0 0 I I #
vertex $-1 $310 $420 #
point $-1 -60.64719367921596 -24.6869356915964 1.3076915376587204 #
edge $-1 $391 91.4423549801202 $394 101.6227807096615 $315 $421 forward 7 unknown #
vertex $-1 $329 $422 #
straight-curve $-1 18.564665594004175 -1.9694557510363886 10.182179244783995 1 0 0 I I #
edge $-1 $394 -3.9976246431805293 $326 8.0539624274688109 $325 $423 forward 7 unknown #
vertex $-1 $393 $424 #
straight-curve $-1 -46.575334535103067 -1.9694557510363886 83.706419238354115 -0.81915203911291934 0 0.57357644374324357 I I #
point $-1 58.428160242170151 -1.9694557510363886 10.182179244783995 #
point $-1 72.967314676351208 10.082131319612952 0.00175351524269729 #
straight-curve $-1 72.967314676351208 0 10.182179244783997 0 1 0 I I #
vertex $-1 $332 $425 #
point $-1 65.251456272971694 0.44086166309347874 3.5828874190338635 #
vertex $-1 $336 $426 #
point $-1 65.251456272971694 4.0563377842882815 3.5828874190338635 #
vertex $-1 $340 $427 #
point $-1 65.251456272971694 7.6718139054830843 3.5828874190338635 #
straight-curve $-1 -72.967314676351208 39.249854984922742 0 0 0 -1 I I #
point $-1 -72.967314676351208 -39.249854984922742 -10.182179244783997 #
straight-curve $-1 -72.967314676351208 0 -10.182179244783997 0 1 0 I I #
point $-1 -72.967314676351208 39.249854984922742 -10.182179244783997 #
coedge $-1 $366 $362 $371 $414 forward $271 $-1 #
vertex $-1 $363 $428 #
straight-curve $-1 -72.967314676351208 0 10.182179244783997 0 -1 0 I I #
point $-1 -72.967314676351208 -30.206543492602002 10.182179244783997 #
straight-curve $-1 72.967314676351208 0 10.182179244783997 0 1 0 I I #
edge $-1 $410 -72.967314676351208 $375 72.967314676351208 $371 $429 forward 7 unknown #
straight-curve $-1 -72.967314676351208 -39.249854984922742 0 0 0 -1 I I #
point $-1 72.967314676351208 -39.249854984922742 10.182179244783997 #
straight-curve $-1 -72.967314676351208 0 10.182179244783997 0 -1 0 I I #
straight-curve $-1 -72.967314676351208 -30.206543492602002 54.723718509730212 0 0 1 I I #
point $-1 -72.967314676351208 -30.206543492602002 10.182179244783997 #
point $-1 -60.832229188778307 -24.6869356915964 -2.2229970439356697 #
straight-curve $-1 72.967314676351208 -1.9694557510363886 101.6245342249042 0 0 -1 I I #
point $-1 72.967314676351208 -1.9694557510363886 10.182179244783997 #
straight-curve $-1 72.967314676351208 2.0281688921441408 0.0017535152427043954 0 1 0 I I #
point $-1 72.967314676351208 -1.9694557510363886 0.00175351524269729 #
point $-1 64.555092031543609 0.44086166309347874 3.4600996213490256 #
point $-1 64.555092031543609 4.0563377842882815 3.4600996213490256 #
point $-1 64.555092031543609 7.6718139054830843 3.4600996213490256 #
point $-1 -72.967314676351208 -39.249854984922742 10.182179244783997 #
straight-curve $-1 0 -39.249854984922742 10.182179244783997 1 0 0 I I #
End-of-ACIS-data 