500 0 10 0           
7 Unknown 11 ACIS 5.0 NT 24 Thu Mar 25 23:01:46 1999 
-1 9.9999999999999995e-007 1e-010 
body $-1 $10 $-1 $11 #
body $-1 $12 $-1 $13 #
body $-1 $14 $-1 $15 #
body $-1 $16 $-1 $17 #
body $-1 $18 $-1 $19 #
body $-1 $20 $-1 $21 #
body $-1 $22 $-1 $23 #
body $-1 $24 $-1 $25 #
body $-1 $26 $-1 $27 #
body $-1 $28 $-1 $29 #
lump $-1 $-1 $30 $0 #
transform $-1 1 0 0 0 1 0 0 0 1 55.422833948789943 34.302720469223296 9.7605775495727496 1 rotate no_reflect no_shear #
lump $-1 $-1 $31 $1 #
transform $-1 1 0 0 0 1 0 0 0 1 55.422833948789943 34.302720469223296 9.7605775495727496 1 rotate no_reflect no_shear #
lump $-1 $-1 $32 $2 #
transform $-1 1 0 0 0 1 0 0 0 1 55.422833948789943 34.302720469223296 9.7605775495727496 1 rotate no_reflect no_shear #
lump $-1 $-1 $33 $3 #
transform $-1 1 0 0 0 1 0 0 0 1 55.422833948789943 34.302720469223296 9.7605775495727496 1 rotate no_reflect no_shear #
lump $-1 $-1 $34 $4 #
transform $-1 1 0 0 0 1 0 0 0 1 55.422833948789943 34.302720469223296 9.7605775495727496 1 rotate no_reflect no_shear #
lump $-1 $-1 $35 $5 #
transform $-1 1 0 0 0 1 0 0 0 1 55.422833948789943 34.302720469223296 9.7605775495727496 1 rotate no_reflect no_shear #
lump $-1 $-1 $36 $6 #
transform $-1 1 0 0 0 1 0 0 0 1 55.422833948789943 34.302720469223296 9.7605775495727496 1 rotate no_reflect no_shear #
lump $-1 $-1 $37 $7 #
transform $-1 1 0 0 0 1 0 0 0 1 55.422833948789943 34.302720469223296 9.7605775495727496 1 rotate no_reflect no_shear #
lump $-1 $-1 $38 $8 #
transform $-1 1 0 0 0 1 0 0 0 1 55.422833948789943 34.302720469223296 9.7605775495727496 1 rotate no_reflect no_shear #
lump $-1 $-1 $39 $9 #
transform $-1 1 0 0 0 1 0 0 0 1 55.422833948789943 34.302720469223296 9.7605775495727496 1 rotate no_reflect no_shear #
shell $-1 $-1 $-1 $40 $-1 $10 #
shell $-1 $-1 $-1 $41 $-1 $12 #
shell $-1 $-1 $-1 $42 $-1 $14 #
shell $-1 $-1 $-1 $43 $-1 $16 #
shell $-1 $-1 $-1 $44 $-1 $18 #
shell $-1 $-1 $-1 $45 $-1 $20 #
shell $-1 $-1 $-1 $46 $-1 $22 #
shell $-1 $-1 $-1 $47 $-1 $24 #
shell $-1 $-1 $-1 $48 $-1 $26 #
shell $-1 $-1 $-1 $49 $-1 $28 #
face $-1 $50 $51 $30 $-1 $52 forward single #
face $-1 $53 $54 $31 $-1 $55 reversed single #
face $-1 $56 $57 $32 $-1 $58 reversed single #
face $-1 $59 $60 $33 $-1 $61 forward single #
face $-1 $62 $63 $34 $-1 $64 forward single #
face $-1 $65 $66 $35 $-1 $67 forward single #
face $-1 $68 $69 $36 $-1 $70 reversed single #
face $-1 $71 $72 $37 $-1 $73 forward single #
face $-1 $74 $75 $38 $-1 $76 forward single #
face $-1 $77 $78 $39 $-1 $79 forward single #
face $-1 $80 $81 $30 $-1 $82 reversed single #
loop $-1 $-1 $83 $40 #
plane-surface $-1 0 0 9.7605775495727496 0 0 1 1 0 0 forward_v I I I I #
face $-1 $84 $85 $31 $-1 $86 reversed single #
loop $-1 $-1 $87 $41 #
plane-surface $-1 -50.386048862860676 0 4.1966283379436851 0 0 1 1 0 0 forward_v I I I I #
face $-1 $88 $89 $32 $-1 $90 reversed single #
loop $-1 $-1 $91 $42 #
plane-surface $-1 -30.493629161030949 -23.23464332884673 39.820029718672018 0 0.54463904215088732 0.83867056331134215 1 0 0 forward_v I I I I #
face $-1 $92 $93 $33 $-1 $94 forward single #
loop $-1 $95 $96 $43 #
cone-surface $-1 -39.407009930571228 27.28903780954435 3.9692170137823903 0 -0.54463904215088732 -0.83867056331134215 2 0 0 1 I I 0 1 2 forward I I I I #
face $-1 $97 $98 $34 $-1 $99 forward single #
loop $-1 $100 $101 $44 #
cone-surface $-1 -30.493629161030945 27.28903780954435 3.9692170137823903 0 -0.54463904215088732 -0.83867056331134215 2 0 0 1 I I 0 1 2 forward I I I I #
face $-1 $102 $103 $35 $-1 $104 forward single #
loop $-1 $105 $106 $45 #
cone-surface $-1 -21.580248391490663 27.28903780954435 3.9692170137823903 0 -0.54463904215088732 -0.83867056331134215 2 0 0 1 I I 0 1 2 forward I I I I #
face $-1 $107 $108 $36 $-1 $109 reversed single #
loop $-1 $-1 $110 $46 #
plane-surface $-1 -15.637994545130482 -94.673598859536554 95.417826815902487 -1 0 0 0 -0.54463904215088732 0.83867056331134215 forward_v I I I I #
face $-1 $111 $112 $37 $-1 $113 forward single #
loop $-1 $114 $115 $47 #
cone-surface $-1 -39.407009930571228 -27.28903780954435 3.9692170137823886 0 0.54463904215088732 -0.83867056331134215 2 0 0 1 I I 0 1 2 forward I I I I #
face $-1 $116 $117 $38 $-1 $118 forward single #
loop $-1 $119 $120 $48 #
cone-surface $-1 -30.493629161030945 -27.28903780954435 3.9692170137823886 0 0.54463904215088732 -0.83867056331134215 2 0 0 1 I I 0 1 2 forward I I I I #
face $-1 $121 $122 $39 $-1 $123 forward single #
loop $-1 $124 $125 $49 #
cone-surface $-1 -21.580248391490663 -27.28903780954435 3.9692170137823886 0 0.54463904215088732 -0.83867056331134215 2 0 0 1 I I 0 1 2 forward I I I I #
face $-1 $126 $127 $30 $-1 $128 reversed single #
loop $-1 $-1 $129 $50 #
plane-surface $-1 0 0 -9.7605775495727496 0 0 1 1 0 0 forward_v I I I I #
coedge $-1 $130 $131 $132 $133 forward $51 $-1 #
face $-1 $134 $135 $31 $-1 $136 reversed single #
loop $-1 $-1 $137 $53 #
plane-surface $-1 -45.349263776931409 0 6.9786029437582169 -1 0 0 0 0 1 forward_v I I I I #
coedge $-1 $138 $139 $140 $141 forward $54 $-1 #
face $-1 $142 $143 $32 $-1 $144 forward single #
loop $-1 $-1 $145 $56 #
plane-surface $-1 -15.637994545130482 37.136235061466543 132.7830284549573 -1 0 0 0 0.54463904215088732 0.83867056331134215 forward_v I I I I #
coedge $-1 $146 $147 $148 $149 reversed $57 $-1 #
face $-1 $-1 $150 $33 $-1 $151 forward single #
loop $-1 $152 $153 $59 #
cone-surface $-1 -39.407009930571228 25.355649824531781 0.9920606496584643 0 -0.54463904215088732 -0.83867056331134215 1 0 0 1 I I -0.70710678118654746 0.70710678118654746 1 forward I I I I #
loop $-1 $-1 $154 $43 #
coedge $-1 $96 $96 $155 $156 reversed $60 $-1 #
face $-1 $-1 $157 $34 $-1 $158 forward single #
loop $-1 $159 $160 $62 #
cone-surface $-1 -30.493629161030945 25.355649824531781 0.9920606496584643 0 -0.54463904215088732 -0.83867056331134215 1 0 0 1 I I -0.70710678118654746 0.70710678118654746 1 forward I I I I #
loop $-1 $-1 $161 $44 #
coedge $-1 $101 $101 $162 $163 reversed $63 $-1 #
face $-1 $-1 $164 $35 $-1 $165 forward single #
loop $-1 $166 $167 $65 #
cone-surface $-1 -21.580248391490663 25.355649824531781 0.9920606496584643 0 -0.54463904215088732 -0.83867056331134215 1 0 0 1 I I -0.70710678118654746 0.70710678118654746 1 forward I I I I #
loop $-1 $-1 $168 $45 #
coedge $-1 $106 $106 $169 $170 reversed $66 $-1 #
face $-1 $171 $172 $36 $-1 $173 forward single #
loop $-1 $-1 $174 $68 #
plane-surface $-1 -30.493629161030949 -34.302720469223281 2.4548280796172008 0 -0.54463904215088732 0.83867056331134215 1 0 0 forward_v I I I I #
coedge $-1 $175 $176 $177 $178 reversed $69 $-1 #
face $-1 $-1 $179 $37 $-1 $180 forward single #
loop $-1 $181 $182 $71 #
cone-surface $-1 -39.407009930571228 -25.355649824531781 0.99206064965846252 0 0.54463904215088732 -0.83867056331134215 1 0 0 1 I I -0.70710678118654746 0.70710678118654746 1 forward I I I I #
loop $-1 $-1 $183 $47 #
coedge $-1 $115 $115 $184 $185 reversed $72 $-1 #
face $-1 $-1 $186 $38 $-1 $187 forward single #
loop $-1 $188 $189 $74 #
cone-surface $-1 -30.493629161030945 -25.355649824531781 0.99206064965846252 0 0.54463904215088732 -0.83867056331134215 1 0 0 1 I I -0.70710678118654746 0.70710678118654746 1 forward I I I I #
loop $-1 $-1 $190 $48 #
coedge $-1 $120 $120 $191 $192 reversed $75 $-1 #
face $-1 $-1 $193 $39 $-1 $194 forward single #
loop $-1 $195 $196 $77 #
cone-surface $-1 -21.580248391490663 -25.355649824531781 0.99206064965846252 0 0.54463904215088732 -0.83867056331134215 1 0 0 1 I I -0.70710678118654746 0.70710678118654746 1 forward I I I I #
loop $-1 $-1 $197 $49 #
coedge $-1 $125 $125 $198 $199 reversed $78 $-1 #
face $-1 $200 $201 $30 $-1 $202 reversed single #
loop $-1 $-1 $203 $80 #
plane-surface $-1 0 -34.302720469223296 0 0 1 0 0 0 1 forward_v I I I I #
coedge $-1 $204 $205 $206 $207 forward $81 $-1 #
coedge $-1 $208 $83 $209 $210 forward $51 $-1 #
coedge $-1 $83 $208 $211 $212 forward $51 $-1 #
coedge $-1 $213 $214 $83 $133 reversed $215 $-1 #
edge $-1 $216 -34.302720469223296 $217 34.302720469223296 $132 $218 forward 7 unknown #
face $-1 $219 $220 $31 $-1 $221 reversed single #
loop $-1 $-1 $222 $84 #
plane-surface $-1 0 34.302720469223296 0 0 -1 0 0 0 -1 forward_v I I I I #
coedge $-1 $140 $223 $224 $225 reversed $85 $-1 #
coedge $-1 $226 $87 $227 $228 reversed $54 $-1 #
coedge $-1 $87 $226 $229 $230 reversed $54 $-1 #
coedge $-1 $231 $137 $87 $141 reversed $85 $-1 #
edge $-1 $232 -34.302720469223296 $233 34.302720469223296 $140 $234 forward 7 unknown #
face $-1 $235 $236 $32 $-1 $237 reversed single #
loop $-1 $-1 $148 $88 #
plane-surface $-1 0 0 9.7605775495727496 0 0 1 1 0 0 forward_v I I I I #
coedge $-1 $238 $239 $240 $241 reversed $89 $-1 #
coedge $-1 $242 $91 $243 $244 reversed $57 $-1 #
coedge $-1 $91 $242 $238 $245 forward $57 $-1 #
coedge $-1 $240 $246 $91 $149 forward $143 $-1 #
edge $-1 $247 -30.102449196415932 $248 -0.39117996461500759 $148 $249 forward 7 unknown #
loop $-1 $-1 $155 $92 #
plane-surface $-1 -30.493629161030949 -23.23464332884673 39.820029718672018 0 0.54463904215088732 0.83867056331134215 1 0 0 forward_v I I I I #
loop $-1 $-1 $250 $59 #
coedge $-1 $153 $153 $154 $251 reversed $93 $-1 #
coedge $-1 $154 $154 $153 $251 forward $95 $-1 #
coedge $-1 $155 $155 $96 $156 forward $150 $-1 #
edge $-1 $252 1.0446098072252668e-015 $252 6.2831853071796013 $155 $253 forward 7 unknown #
loop $-1 $-1 $162 $97 #
plane-surface $-1 -30.493629161030949 -23.23464332884673 39.820029718672018 0 0.54463904215088732 0.83867056331134215 1 0 0 forward_v I I I I #
loop $-1 $-1 $254 $62 #
coedge $-1 $160 $160 $161 $255 reversed $98 $-1 #
coedge $-1 $161 $161 $160 $255 forward $100 $-1 #
coedge $-1 $162 $162 $101 $163 forward $157 $-1 #
edge $-1 $256 1.0446098072252668e-015 $256 6.2831853071796013 $162 $257 forward 7 unknown #
loop $-1 $-1 $169 $102 #
plane-surface $-1 -30.493629161030949 -23.23464332884673 39.820029718672018 0 0.54463904215088732 0.83867056331134215 1 0 0 forward_v I I I I #
loop $-1 $-1 $258 $65 #
coedge $-1 $167 $167 $168 $259 reversed $103 $-1 #
coedge $-1 $168 $168 $167 $259 forward $105 $-1 #
coedge $-1 $169 $169 $106 $170 forward $164 $-1 #
edge $-1 $260 1.0446098072252668e-015 $260 6.2831853071796013 $169 $261 forward 7 unknown #
face $-1 $262 $263 $36 $-1 $264 forward single #
loop $-1 $-1 $265 $107 #
plane-surface $-1 -45.349263776931409 0 6.9786029437582169 -1 0 0 0 0 1 forward_v I I I I #
coedge $-1 $266 $267 $268 $269 reversed $108 $-1 #
coedge $-1 $176 $110 $270 $271 reversed $69 $-1 #
coedge $-1 $110 $175 $266 $272 reversed $69 $-1 #
coedge $-1 $268 $273 $110 $178 forward $263 $-1 #
edge $-1 $274 13.034078960544981 $275 24.283946394179502 $177 $276 forward 7 unknown #
loop $-1 $-1 $184 $111 #
plane-surface $-1 -30.493629161030949 -34.302720469223281 2.4548280796172008 0 -0.54463904215088732 0.83867056331134215 1 0 0 forward_v I I I I #
loop $-1 $-1 $277 $71 #
coedge $-1 $182 $182 $183 $278 reversed $112 $-1 #
coedge $-1 $183 $183 $182 $278 forward $114 $-1 #
coedge $-1 $184 $184 $115 $185 forward $179 $-1 #
edge $-1 $279 -1.2479098692594809e-015 $279 6.2831853071795996 $184 $280 forward 7 unknown #
loop $-1 $-1 $191 $116 #
plane-surface $-1 -30.493629161030949 -34.302720469223281 2.4548280796172008 0 -0.54463904215088732 0.83867056331134215 1 0 0 forward_v I I I I #
loop $-1 $-1 $281 $74 #
coedge $-1 $189 $189 $190 $282 reversed $117 $-1 #
coedge $-1 $190 $190 $189 $282 forward $119 $-1 #
coedge $-1 $191 $191 $120 $192 forward $186 $-1 #
edge $-1 $283 -1.2479098692594809e-015 $283 6.2831853071795996 $191 $284 forward 7 unknown #
loop $-1 $-1 $198 $121 #
plane-surface $-1 -30.493629161030949 -34.302720469223281 2.4548280796172008 0 -0.54463904215088732 0.83867056331134215 1 0 0 forward_v I I I I #
loop $-1 $-1 $285 $77 #
coedge $-1 $196 $196 $197 $286 reversed $122 $-1 #
coedge $-1 $197 $197 $196 $286 forward $124 $-1 #
coedge $-1 $198 $198 $125 $199 forward $193 $-1 #
edge $-1 $287 -1.2479098692594809e-015 $287 6.2831853071795996 $198 $288 forward 7 unknown #
face $-1 $289 $290 $30 $-1 $291 reversed single #
loop $-1 $-1 $292 $126 #
plane-surface $-1 -55.422833948789943 0 0 1 0 0 0 0 -1 forward_v I I I I #
coedge $-1 $293 $211 $294 $295 forward $127 $-1 #
coedge $-1 $296 $129 $293 $297 forward $81 $-1 #
coedge $-1 $129 $296 $298 $299 forward $81 $-1 #
coedge $-1 $214 $213 $129 $207 reversed $215 $-1 #
edge $-1 $300 -34.302720469223296 $301 34.302720469223296 $206 $302 forward 7 unknown #
coedge $-1 $131 $130 $303 $304 forward $51 $-1 #
coedge $-1 $305 $306 $130 $210 reversed $290 $-1 #
edge $-1 $217 -55.422833948789943 $307 55.422833948789943 $209 $308 forward 7 unknown #
coedge $-1 $203 $309 $131 $212 reversed $127 $-1 #
edge $-1 $310 -55.422833948789943 $216 55.422833948789943 $211 $311 forward 7 unknown #
coedge $-1 $206 $132 $309 $312 forward $215 $-1 #
coedge $-1 $132 $206 $305 $313 reversed $215 $-1 #
loop $-1 $-1 $213 $289 #
vertex $-1 $133 $314 #
vertex $-1 $133 $315 #
straight-curve $-1 55.422833948789943 0 9.7605775495727496 0 1 0 I I #
face $-1 $316 $317 $31 $-1 $318 forward single #
loop $-1 $-1 $319 $134 #
plane-surface $-1 -55.422833948789943 0 0 1 0 0 0 0 -1 forward_v I I I I #
coedge $-1 $229 $320 $231 $321 forward $135 $-1 #
coedge $-1 $137 $231 $322 $323 reversed $85 $-1 #
coedge $-1 $324 $227 $137 $225 forward $325 $-1 #
edge $-1 $233 0.70732686606457662 $326 6.2712760776936394 $224 $327 forward 7 unknown #
coedge $-1 $139 $138 $319 $328 reversed $54 $-1 #
coedge $-1 $224 $329 $138 $228 forward $325 $-1 #
edge $-1 $330 -30.229809517359605 $233 -20.156239345501071 $227 $331 forward 7 unknown #
coedge $-1 $332 $222 $139 $230 forward $135 $-1 #
edge $-1 $232 20.156239345501071 $333 30.229809517359605 $229 $334 forward 7 unknown #
coedge $-1 $223 $140 $222 $321 reversed $85 $-1 #
vertex $-1 $230 $335 #
vertex $-1 $228 $336 #
straight-curve $-1 -45.349263776931409 0 4.1966283379436851 0 -1 0 I I #
face $-1 $-1 $337 $32 $-1 $338 forward single #
loop $-1 $-1 $339 $142 #
plane-surface $-1 0 34.302720469223296 0 0 -1 0 0 0 -1 forward_v I I I I #
coedge $-1 $239 $145 $147 $245 reversed $89 $-1 #
coedge $-1 $145 $238 $339 $340 reversed $89 $-1 #
coedge $-1 $341 $148 $145 $241 forward $143 $-1 #
edge $-1 $248 4.4847355048554967 $342 15.734602938490024 $240 $343 forward 7 unknown #
coedge $-1 $147 $146 $344 $345 reversed $57 $-1 #
coedge $-1 $346 $347 $146 $244 forward $337 $-1 #
edge $-1 $348 -49.918973623196834 $247 -36.505044571941674 $243 $349 forward 7 unknown #
edge $-1 $350 -68.605440938446606 $248 -55.19151188719146 $238 $351 forward 7 unknown #
coedge $-1 $148 $341 $346 $352 forward $143 $-1 #
vertex $-1 $244 $353 #
vertex $-1 $149 $354 #
straight-curve $-1 -15.246814580515474 23.052853035588768 9.7605775495727478 1 0 0 I I #
coedge $-1 $250 $250 $-1 $355 reversed $152 $-1 #
edge $-1 $356 0 $356 6.2831853071796004 $153 $357 forward 7 unknown #
vertex $-1 $156 $358 #
ellipse-curve $-1 -39.407009930571228 28.677786752406028 6.1077028145949672 0 0.54463904215088732 0.83867056331134215 2 0 0 1 I I #
coedge $-1 $254 $254 $-1 $359 reversed $159 $-1 #
edge $-1 $360 0 $360 6.2831853071796004 $160 $361 forward 7 unknown #
vertex $-1 $163 $362 #
ellipse-curve $-1 -30.493629161030945 28.677786752406028 6.1077028145949672 0 0.54463904215088732 0.83867056331134215 2 0 0 1 I I #
coedge $-1 $258 $258 $-1 $363 reversed $166 $-1 #
edge $-1 $364 0 $364 6.2831853071796004 $167 $365 forward 7 unknown #
vertex $-1 $170 $366 #
ellipse-curve $-1 -21.580248391490663 28.677786752406028 6.1077028145949672 0 0.54463904215088732 0.83867056331134215 2 0 0 1 I I #
face $-1 $-1 $367 $36 $-1 $368 reversed single #
loop $-1 $-1 $268 $171 #
plane-surface $-1 0 0 9.7605775495727496 0 0 1 1 0 0 forward_v I I I I #
coedge $-1 $369 $370 $267 $371 reversed $172 $-1 #
coedge $-1 $372 $174 $176 $272 forward $108 $-1 #
coedge $-1 $174 $372 $265 $371 forward $108 $-1 #
coedge $-1 $373 $177 $174 $269 forward $263 $-1 #
edge $-1 $275 0.39117996461500759 $374 30.102449196415932 $268 $375 forward 7 unknown #
coedge $-1 $376 $377 $175 $271 forward $367 $-1 #
edge $-1 $378 -45.25408532833405 $274 -37.948335858378492 $270 $379 forward 7 unknown #
edge $-1 $275 -13.413929051255117 $378 1.699746028866204e-014 $176 $380 forward 7 unknown #
coedge $-1 $177 $373 $376 $381 forward $263 $-1 #
vertex $-1 $271 $382 #
vertex $-1 $178 $383 #
straight-curve $-1 -15.637994545130482 -47.336799429768277 9.7605775495727514 0 1 0 I I #
coedge $-1 $277 $277 $-1 $384 reversed $181 $-1 #
edge $-1 $385 0 $385 6.2831853071796004 $182 $386 forward 7 unknown #
vertex $-1 $185 $387 #
ellipse-curve $-1 -39.407009930571228 -28.677786752406032 6.1077028145949717 0 -0.54463904215088732 0.83867056331134215 2 0 0 1 I I #
coedge $-1 $281 $281 $-1 $388 reversed $188 $-1 #
edge $-1 $389 0 $389 6.2831853071796004 $189 $390 forward 7 unknown #
vertex $-1 $192 $391 #
ellipse-curve $-1 -30.493629161030945 -28.677786752406032 6.1077028145949717 0 -0.54463904215088732 0.83867056331134215 2 0 0 1 I I #
coedge $-1 $285 $285 $-1 $392 reversed $195 $-1 #
edge $-1 $393 0 $393 6.2831853071796004 $196 $394 forward 7 unknown #
vertex $-1 $199 $395 #
ellipse-curve $-1 -21.580248391490663 -28.677786752406032 6.1077028145949717 0 -0.54463904215088732 0.83867056331134215 2 0 0 1 I I #
face $-1 $-1 $215 $30 $-1 $396 reversed single #
loop $-1 $-1 $305 $200 #
plane-surface $-1 0 34.302720469223296 0 0 -1 0 0 0 -1 forward_v I I I I #
coedge $-1 $397 $303 $306 $398 forward $201 $-1 #
coedge $-1 $309 $203 $204 $297 reversed $127 $-1 #
coedge $-1 $303 $397 $203 $295 reversed $201 $-1 #
edge $-1 $310 -9.7605775495727496 $399 9.7605775495727496 $294 $400 forward 7 unknown #
coedge $-1 $205 $204 $397 $401 forward $81 $-1 #
edge $-1 $301 -55.422833948789943 $399 55.422833948789943 $293 $402 forward 7 unknown #
coedge $-1 $306 $305 $205 $299 reversed $290 $-1 #
edge $-1 $403 -55.422833948789943 $300 55.422833948789943 $298 $404 forward 7 unknown #
vertex $-1 $207 $405 #
vertex $-1 $312 $406 #
straight-curve $-1 55.422833948789943 0 -9.7605775495727496 0 -1 0 I I #
coedge $-1 $292 $294 $208 $304 reversed $201 $-1 #
edge $-1 $307 -34.302720469223296 $310 34.302720469223296 $303 $407 forward 7 unknown #
coedge $-1 $298 $209 $214 $313 forward $290 $-1 #
coedge $-1 $209 $298 $292 $398 reversed $290 $-1 #
vertex $-1 $210 $408 #
straight-curve $-1 0 34.302720469223296 9.7605775495727496 -1 0 0 I I #
coedge $-1 $211 $293 $213 $312 reversed $127 $-1 #
vertex $-1 $304 $409 #
straight-curve $-1 0 -34.302720469223296 9.7605775495727496 1 0 0 I I #
edge $-1 $216 -9.7605775495727496 $301 9.7605775495727496 $213 $410 forward 7 unknown #
edge $-1 $217 -9.7605775495727496 $300 9.7605775495727496 $214 $411 forward 7 unknown #
point $-1 55.422833948789943 -34.302720469223296 9.7605775495727496 #
point $-1 55.422833948789943 34.302720469223296 9.7605775495727496 #
face $-1 $-1 $325 $31 $-1 $412 reversed single #
loop $-1 $-1 $322 $219 #
plane-surface $-1 0 0 9.7605775495727496 0 0 1 1 0 0 forward_v I I I I #
coedge $-1 $413 $414 $226 $328 forward $220 $-1 #
coedge $-1 $222 $332 $415 $416 reversed $135 $-1 #
edge $-1 $417 -6.2712760776936394 $232 -0.70732686606457662 $222 $418 forward 7 unknown #
coedge $-1 $415 $419 $223 $323 forward $317 $-1 #
edge $-1 $326 -34.302720469223296 $417 34.302720469223296 $322 $420 forward 7 unknown #
coedge $-1 $329 $224 $419 $421 reversed $325 $-1 #
loop $-1 $-1 $224 $316 #
vertex $-1 $225 $422 #
straight-curve $-1 -45.349263776931409 -34.302720469223296 3.4893014718791084 0 0 1 I I #
edge $-1 $333 -34.302720469223296 $330 34.302720469223296 $319 $423 forward 7 unknown #
coedge $-1 $227 $324 $413 $424 forward $325 $-1 #
vertex $-1 $328 $425 #
straight-curve $-1 -25.193024431430338 -34.302720469223296 4.1966283379436851 1 0 0 I I #
coedge $-1 $320 $229 $414 $426 reversed $135 $-1 #
vertex $-1 $328 $427 #
straight-curve $-1 -25.193024431430338 34.302720469223296 4.1966283379436851 -1 0 0 I I #
point $-1 -45.349263776931409 34.302720469223296 4.1966283379436851 #
point $-1 -45.349263776931409 -34.302720469223296 4.1966283379436851 #
loop $-1 $-1 $243 $235 #
plane-surface $-1 -45.349263776931409 0 6.9786029437582169 -1 0 0 0 0 1 forward_v I I I I #
coedge $-1 $344 $428 $239 $340 forward $236 $-1 #
edge $-1 $342 56.6309366779059 $350 63.936686147861465 $339 $429 forward 7 unknown #
coedge $-1 $246 $240 $428 $430 forward $143 $-1 #
vertex $-1 $430 $431 #
straight-curve $-1 -15.637994545130482 18.568117530733272 9.7605775495727514 0 1 0 I I #
coedge $-1 $432 $339 $242 $345 forward $236 $-1 #
edge $-1 $350 0.39117996461500759 $348 30.10244919641594 $344 $433 forward 7 unknown #
coedge $-1 $347 $243 $246 $352 reversed $337 $-1 #
coedge $-1 $243 $346 $432 $434 reversed $337 $-1 #
vertex $-1 $434 $435 #
straight-curve $-1 -45.349263776931409 -7.5628532592672126 29.642650058910512 0 -0.83867056331134215 0.54463904215088732 I I #
vertex $-1 $345 $436 #
straight-curve $-1 -15.637994545130482 -23.23464332884673 39.820029718672018 0 -0.83867056331134215 0.54463904215088732 I I #
edge $-1 $437 -34.302720469223296 $247 -23.052853035588765 $246 $438 forward 7 unknown #
point $-1 -45.349263776931409 23.052853035588765 9.7605775495727496 #
point $-1 -15.637994545130482 23.052853035588768 9.7605775495727478 #
edge $-1 $439 1 $439 0 $250 $-1 forward 7 unknown #
vertex $-1 $251 $440 #
ellipse-curve $-1 -39.407009930571228 25.900288866682668 1.8307312129698063 0 0.54463904215088732 0.83867056331134215 2 0 0 1 I I #
point $-1 -37.407009930571228 28.677786752406035 6.1077028145949743 #
edge $-1 $441 1 $441 0 $254 $-1 forward 7 unknown #
vertex $-1 $255 $442 #
ellipse-curve $-1 -30.493629161030945 25.900288866682668 1.8307312129698063 0 0.54463904215088732 0.83867056331134215 2 0 0 1 I I #
point $-1 -28.493629161030945 28.677786752406035 6.1077028145949743 #
edge $-1 $443 1 $443 0 $258 $-1 forward 7 unknown #
vertex $-1 $259 $444 #
ellipse-curve $-1 -21.580248391490663 25.900288866682668 1.8307312129698063 0 0.54463904215088732 0.83867056331134215 2 0 0 1 I I #
point $-1 -19.580248391490663 28.677786752406035 6.1077028145949743 #
loop $-1 $-1 $270 $262 #
plane-surface $-1 0 -34.302720469223296 0 0 1 0 0 0 1 forward_v I I I I #
coedge $-1 $370 $265 $445 $446 reversed $172 $-1 #
coedge $-1 $265 $369 $373 $447 reversed $172 $-1 #
edge $-1 $448 -1.699746028866204e-014 $374 13.413929051255117 $265 $449 forward 7 unknown #
coedge $-1 $267 $266 $377 $450 reversed $108 $-1 #
coedge $-1 $273 $268 $370 $447 forward $263 $-1 #
vertex $-1 $447 $451 #
straight-curve $-1 -15.246814580515474 -23.052853035588772 9.7605775495727496 -1 0 0 I I #
coedge $-1 $445 $270 $273 $381 reversed $367 $-1 #
coedge $-1 $270 $445 $372 $450 forward $367 $-1 #
vertex $-1 $271 $452 #
straight-curve $-1 -15.637994545130482 -34.302720469223296 47.708913407951243 0 0 1 I I #
straight-curve $-1 -15.637994545130482 -34.302720469223281 2.4548280796172008 0 -0.83867056331134215 -0.54463904215088732 I I #
edge $-1 $453 -45.349263776931409 $274 -15.637994545130482 $376 $454 forward 7 unknown #
point $-1 -15.637994545130482 -34.302720469223296 9.7605775495727496 #
point $-1 -15.637994545130482 -23.052853035588775 9.7605775495727496 #
edge $-1 $455 1 $455 0 $277 $-1 forward 7 unknown #
vertex $-1 $278 $456 #
ellipse-curve $-1 -39.407009930571228 -25.900288866682668 1.8307312129698046 0 -0.54463904215088732 0.83867056331134215 2 0 0 1 I I #
point $-1 -37.407009930571228 -28.677786752406035 6.1077028145949726 #
edge $-1 $457 1 $457 0 $281 $-1 forward 7 unknown #
vertex $-1 $282 $458 #
ellipse-curve $-1 -30.493629161030945 -25.900288866682668 1.8307312129698046 0 -0.54463904215088732 0.83867056331134215 2 0 0 1 I I #
point $-1 -28.493629161030945 -28.677786752406035 6.1077028145949726 #
edge $-1 $459 1 $459 0 $285 $-1 forward 7 unknown #
vertex $-1 $286 $460 #
ellipse-curve $-1 -21.580248391490663 -25.900288866682668 1.8307312129698046 0 -0.54463904215088732 0.83867056331134215 2 0 0 1 I I #
point $-1 -19.580248391490663 -28.677786752406035 6.1077028145949726 #
plane-surface $-1 55.422833948789943 0 0 -1 0 0 0 0 1 forward_v I I I I #
coedge $-1 $294 $292 $296 $401 reversed $201 $-1 #
edge $-1 $307 -9.7605775495727496 $403 9.7605775495727496 $306 $461 forward 7 unknown #
vertex $-1 $401 $462 #
straight-curve $-1 -55.422833948789943 -34.302720469223296 0 0 0 -1 I I #
edge $-1 $399 -34.302720469223296 $403 34.302720469223296 $397 $463 forward 7 unknown #
straight-curve $-1 0 -34.302720469223296 -9.7605775495727496 -1 0 0 I I #
vertex $-1 $299 $464 #
straight-curve $-1 0 34.302720469223296 -9.7605775495727496 1 0 0 I I #
point $-1 55.422833948789943 34.302720469223296 -9.7605775495727496 #
point $-1 55.422833948789943 -34.302720469223296 -9.7605775495727496 #
straight-curve $-1 -55.422833948789943 0 9.7605775495727496 0 -1 0 I I #
point $-1 -55.422833948789943 34.302720469223296 9.7605775495727496 #
point $-1 -55.422833948789943 -34.302720469223296 9.7605775495727496 #
straight-curve $-1 55.422833948789943 -34.302720469223296 0 0 0 -1 I I #
straight-curve $-1 55.422833948789943 34.302720469223296 0 0 0 -1 I I #
plane-surface $-1 0 -34.302720469223296 0 0 1 0 0 0 1 forward_v I I I I #
coedge $-1 $465 $319 $329 $424 reversed $220 $-1 #
coedge $-1 $319 $465 $332 $426 forward $220 $-1 #
coedge $-1 $466 $322 $320 $416 forward $317 $-1 #
edge $-1 $417 45.349263776931409 $467 55.422833948789943 $320 $468 forward 7 unknown #
vertex $-1 $416 $469 #
straight-curve $-1 -45.349263776931409 34.302720469223296 3.4893014718791084 0 0 -1 I I #
coedge $-1 $322 $466 $324 $421 forward $317 $-1 #
straight-curve $-1 -45.349263776931409 0 9.7605775495727496 0 1 0 I I #
edge $-1 $470 -55.422833948789943 $326 -45.349263776931409 $324 $471 forward 7 unknown #
point $-1 -45.349263776931409 -34.302720469223296 9.7605775495727478 #
straight-curve $-1 -55.422833948789943 0 4.1966283379436851 0 -1 0 I I #
edge $-1 $470 -9.7605775495727496 $330 -4.1966283379436851 $413 $472 forward 7 unknown #
point $-1 -55.422833948789943 -34.302720469223296 4.1966283379436851 #
edge $-1 $467 -9.7605775495727496 $333 -4.1966283379436851 $332 $473 forward 7 unknown #
point $-1 -55.422833948789943 34.302720469223296 4.1966283379436851 #
coedge $-1 $339 $432 $341 $430 reversed $236 $-1 #
straight-curve $-1 -15.637994545130482 34.302720469223296 66.391514227478652 0 0 -1 I I #
edge $-1 $342 15.637994545130482 $437 45.349263776931409 $428 $474 forward 7 unknown #
point $-1 -15.637994545130482 34.302720469223296 9.7605775495727496 #
coedge $-1 $428 $344 $347 $434 forward $236 $-1 #
straight-curve $-1 -15.246814580515474 34.302720469223296 2.4548280796171902 -1 0 0 I I #
edge $-1 $348 -63.936686147861465 $437 -56.630936677905908 $432 $475 forward 7 unknown #
point $-1 -45.349263776931416 34.302720469223303 2.4548280796171866 #
point $-1 -15.637994545130482 34.302720469223303 2.4548280796171866 #
vertex $-1 $352 $476 #
straight-curve $-1 -45.349263776931409 0 9.7605775495727496 0 -1 0 I I #
vertex $-1 $355 $477 #
point $-1 -37.407009930571228 25.900288866682668 1.8307312129698063 #
vertex $-1 $359 $478 #
point $-1 -28.493629161030945 25.900288866682668 1.8307312129698063 #
vertex $-1 $363 $479 #
point $-1 -19.580248391490663 25.900288866682668 1.8307312129698063 #
coedge $-1 $377 $376 $369 $446 forward $367 $-1 #
edge $-1 $453 37.948335858378499 $448 45.25408532833405 $445 $480 forward 7 unknown #
edge $-1 $374 23.052853035588775 $453 34.302720469223296 $373 $481 forward 7 unknown #
vertex $-1 $446 $482 #
straight-curve $-1 -45.349263776931416 -34.302720469223281 2.4548280796172008 0 0.83867056331134215 0.54463904215088732 I I #
edge $-1 $448 -30.10244919641594 $378 -0.39117996461500759 $377 $483 forward 7 unknown #
point $-1 -45.349263776931409 -23.052853035588775 9.7605775495727496 #
point $-1 -15.637994545130482 -34.302720469223296 2.4548280796171915 #
vertex $-1 $381 $484 #
straight-curve $-1 0 -34.302720469223296 9.7605775495727496 1 0 0 I I #
vertex $-1 $384 $485 #
point $-1 -37.407009930571228 -25.900288866682668 1.8307312129698046 #
vertex $-1 $388 $486 #
point $-1 -28.493629161030945 -25.900288866682668 1.8307312129698046 #
vertex $-1 $392 $487 #
point $-1 -19.580248391490663 -25.900288866682668 1.8307312129698046 #
straight-curve $-1 -55.422833948789943 34.302720469223296 0 0 0 -1 I I #
point $-1 -55.422833948789943 -34.302720469223296 -9.7605775495727496 #
straight-curve $-1 -55.422833948789943 0 -9.7605775495727496 0 1 0 I I #
point $-1 -55.422833948789943 34.302720469223296 -9.7605775495727496 #
coedge $-1 $414 $413 $466 $488 reversed $220 $-1 #
coedge $-1 $419 $415 $465 $488 forward $317 $-1 #
vertex $-1 $416 $489 #
straight-curve $-1 0 34.302720469223296 9.7605775495727496 -1 0 0 I I #
point $-1 -45.349263776931409 34.302720469223296 9.7605775495727478 #
vertex $-1 $488 $490 #
straight-curve $-1 0 -34.302720469223296 9.7605775495727496 1 0 0 I I #
straight-curve $-1 -55.422833948789943 -34.302720469223296 0 0 0 -1 I I #
straight-curve $-1 -55.422833948789943 34.302720469223296 0 0 0 -1 I I #
straight-curve $-1 0 34.302720469223296 9.7605775495727496 -1 0 0 I I #
straight-curve $-1 -45.349263776931416 34.302720469223296 66.391514227478652 0 0 1 I I #
point $-1 -45.349263776931409 34.302720469223296 9.7605775495727478 #
point $-1 -39.407009930571228 24.811010782380894 0.15339008634712215 #
point $-1 -30.493629161030945 24.811010782380894 0.15339008634712215 #
point $-1 -21.580248391490663 24.811010782380894 0.15339008634712215 #
straight-curve $-1 -45.349263776931416 -34.302720469223296 47.708913407951243 0 0 -1 I I #
straight-curve $-1 -45.349263776931409 0 9.7605775495727496 0 -1 0 I I #
point $-1 -45.349263776931416 -34.302720469223296 2.4548280796171915 #
straight-curve $-1 -15.246814580515474 -34.302720469223296 2.4548280796171897 1 0 0 I I #
point $-1 -45.349263776931409 -34.302720469223296 9.7605775495727478 #
point $-1 -39.407009930571228 -24.811010782380894 0.15339008634712037 #
point $-1 -30.493629161030945 -24.811010782380894 0.15339008634712037 #
point $-1 -21.580248391490663 -24.811010782380894 0.15339008634712037 #
edge $-1 $467 -34.302720469223296 $470 34.302720469223296 $465 $491 forward 7 unknown #
point $-1 -55.422833948789943 34.302720469223296 9.7605775495727496 #
point $-1 -55.422833948789943 -34.302720469223296 9.7605775495727496 #
straight-curve $-1 -55.422833948789943 0 9.7605775495727496 0 -1 0 I I #
End-of-ACIS-data 