500 0 9 0           
7 Unknown 11 ACIS 5.0 NT 24 Fri Mar 26 19:29:37 1999 
-1 9.9999999999999995e-007 1e-010 
body $-1 $9 $-1 $10 #
body $-1 $11 $-1 $12 #
body $-1 $13 $-1 $14 #
body $-1 $15 $-1 $16 #
body $-1 $17 $-1 $18 #
body $-1 $19 $-1 $20 #
body $-1 $21 $-1 $22 #
body $-1 $23 $-1 $24 #
body $-1 $25 $-1 $26 #
lump $-1 $-1 $27 $0 #
transform $-1 1 0 0 0 1 0 0 0 1 55.854976042970065 32.804378992856755 11.845997937955184 1 rotate no_reflect no_shear #
lump $-1 $-1 $28 $1 #
transform $-1 1 0 0 0 1 0 0 0 1 55.854976042970065 32.804378992856755 11.845997937955184 1 rotate no_reflect no_shear #
lump $-1 $-1 $29 $2 #
transform $-1 1 0 0 0 1 0 0 0 1 55.854976042970065 32.804378992856755 11.845997937955184 1 rotate no_reflect no_shear #
lump $-1 $-1 $30 $3 #
transform $-1 1 0 0 0 1 0 0 0 1 55.854976042970065 32.804378992856755 11.845997937955184 1 rotate no_reflect no_shear #
lump $-1 $-1 $31 $4 #
transform $-1 1 0 0 0 1 0 0 0 1 55.854976042970065 32.804378992856755 11.845997937955184 1 rotate no_reflect no_shear #
lump $-1 $-1 $32 $5 #
transform $-1 1 0 0 0 1 0 0 0 1 55.854976042970065 32.804378992856755 11.845997937955184 1 rotate no_reflect no_shear #
lump $-1 $-1 $33 $6 #
transform $-1 1 0 0 0 1 0 0 0 1 55.854976042970065 32.804378992856755 11.845997937955184 1 rotate no_reflect no_shear #
lump $-1 $-1 $34 $7 #
transform $-1 1 0 0 0 1 0 0 0 1 55.854976042970065 32.804378992856755 11.845997937955184 1 rotate no_reflect no_shear #
lump $-1 $-1 $35 $8 #
transform $-1 1 0 0 0 1 0 0 0 1 55.854976042970065 32.804378992856755 11.845997937955184 1 rotate no_reflect no_shear #
shell $-1 $-1 $-1 $36 $-1 $9 #
shell $-1 $-1 $-1 $37 $-1 $11 #
shell $-1 $-1 $-1 $38 $-1 $13 #
shell $-1 $-1 $-1 $39 $-1 $15 #
shell $-1 $-1 $-1 $40 $-1 $17 #
shell $-1 $-1 $-1 $41 $-1 $19 #
shell $-1 $-1 $-1 $42 $-1 $21 #
shell $-1 $-1 $-1 $43 $-1 $23 #
shell $-1 $-1 $-1 $44 $-1 $25 #
face $-1 $45 $46 $27 $-1 $47 forward single #
face $-1 $48 $49 $28 $-1 $50 reversed single #
face $-1 $51 $52 $29 $-1 $53 forward single #
face $-1 $54 $55 $30 $-1 $56 reversed single #
face $-1 $57 $58 $31 $-1 $59 forward single #
face $-1 $60 $61 $32 $-1 $62 forward single #
face $-1 $63 $64 $33 $-1 $65 reversed single #
face $-1 $66 $67 $34 $-1 $68 forward single #
face $-1 $69 $70 $35 $-1 $71 forward single #
face $-1 $72 $73 $27 $-1 $74 reversed single #
loop $-1 $-1 $75 $36 #
plane-surface $-1 0 0 11.845997937955184 0 0 1 1 0 0 forward_v I I I I #
face $-1 $76 $77 $28 $-1 $78 reversed single #
loop $-1 $-1 $79 $37 #
plane-surface $-1 88.701226769432395 29.009170984752515 160.38286636401446 0 -1 0 -0.83867057594974714 0 -0.54463902268945019 forward_v I I I I #
face $-1 $80 $81 $29 $-1 $82 forward single #
loop $-1 $83 $84 $38 #
cone-surface $-1 52.27562709637359 19.975177188620997 7.7888774326689303 -0.83867057594974714 0 -0.54463902268945019 0.54463902268945019 0 -0.83867057594974714 1 I I 0 1 1 forward I I I I #
face $-1 $85 $86 $30 $-1 $87 reversed single #
loop $-1 $-1 $88 $39 #
plane-surface $-1 -115.05223244151185 -23.261145854207854 102.85438939033237 0 1 0 -0.52991927123019833 0 0.84804809178421925 forward_v I I I I #
face $-1 $89 $90 $31 $-1 $91 forward single #
loop $-1 $92 $93 $40 #
cone-surface $-1 -52.074158170477538 -19.048145345228093 8.7044953603712543 0.52991927123019833 0 -0.84804809178421925 1.2720721376763289 0 0.79487890684529749 1 I I 0 1 1.5 forward I I I I #
face $-1 $94 $95 $32 $-1 $96 forward single #
loop $-1 $97 $98 $41 #
cone-surface $-1 -52.074158170477538 -12.728644581758452 8.7044953603712543 0.52991927123019833 0 -0.84804809178421925 1.2720721376763289 0 0.79487890684529749 1 I I 0 1 1.5 forward I I I I #
face $-1 $99 $100 $33 $-1 $101 reversed single #
loop $-1 $-1 $102 $42 #
plane-surface $-1 -115.05223244151185 8.5156440727786951 102.85438939033237 0 1 0 -0.52991927123019833 0 0.84804809178421925 forward_v I I I I #
face $-1 $103 $104 $34 $-1 $105 forward single #
loop $-1 $106 $107 $43 #
cone-surface $-1 -52.074158170477538 12.728644581758459 8.7044953603712543 0.52991927123019833 0 -0.84804809178421925 1.2720721376763289 0 0.79487890684529749 1 I I 0 1 1.5 forward I I I I #
face $-1 $108 $109 $35 $-1 $110 forward single #
loop $-1 $111 $112 $44 #
cone-surface $-1 -52.074158170477538 19.048145345228093 8.7044953603712543 0.52991927123019833 0 -0.84804809178421925 1.2720721376763289 0 0.79487890684529749 1 I I 0 1 1.5 forward I I I I #
face $-1 $113 $114 $27 $-1 $115 reversed single #
loop $-1 $-1 $116 $45 #
plane-surface $-1 0 0 -11.845997937955184 0 0 1 1 0 0 forward_v I I I I #
coedge $-1 $117 $118 $119 $120 forward $46 $-1 #
face $-1 $121 $122 $28 $-1 $123 reversed single #
loop $-1 $-1 $124 $48 #
plane-surface $-1 -4.9866230858016678 19.975177188620997 99.541267235242714 0.83867057594974714 0 0.54463902268945019 0.54463902268945019 0 -0.83867057594974714 forward_v I I I I #
coedge $-1 $125 $126 $127 $128 reversed $49 $-1 #
face $-1 $-1 $129 $29 $-1 $130 forward single #
loop $-1 $131 $132 $51 #
cone-surface $-1 50.222756457785209 19.975177188620997 6.455727695011225 -0.83867057594974714 0 -0.54463902268945019 0.2723195113447251 0 -0.41933528797487357 1 I I -0.70710678118654746 0.70710678118654746 0.5 forward I I I I #
loop $-1 $-1 $133 $38 #
coedge $-1 $84 $84 $134 $135 reversed $52 $-1 #
face $-1 $136 $137 $30 $-1 $138 reversed single #
loop $-1 $-1 $139 $54 #
plane-surface $-1 -55.85497604297008 -15.888394963493273 8.1189776905442841 -0.52991927123019833 0 0.84804809178421925 0.84804809178421925 0 0.52991927123019833 forward_v I I I I #
coedge $-1 $140 $141 $142 $143 reversed $55 $-1 #
face $-1 $-1 $144 $31 $-1 $145 forward single #
loop $-1 $146 $147 $57 #
cone-surface $-1 -50.878140385993341 -19.048145345228093 6.790466837654618 0.52991927123019833 0 -0.84804809178421925 0.63603606883816444 0 0.39743945342264875 1 I I -0.70710678118654757 0.70710678118654757 0.75 forward I I I I #
loop $-1 $-1 $148 $40 #
coedge $-1 $93 $93 $149 $150 reversed $58 $-1 #
face $-1 $-1 $151 $32 $-1 $152 forward single #
loop $-1 $153 $154 $60 #
cone-surface $-1 -50.878140385993341 -12.728644581758452 6.790466837654618 0.52991927123019833 0 -0.84804809178421925 0.63603606883816444 0 0.39743945342264875 1 I I -0.70710678118654757 0.70710678118654757 0.75 forward I I I I #
loop $-1 $-1 $155 $41 #
coedge $-1 $98 $98 $156 $157 reversed $61 $-1 #
face $-1 $158 $159 $33 $-1 $160 reversed single #
loop $-1 $-1 $161 $63 #
plane-surface $-1 -55.85497604297008 15.888394963493276 8.1189776905442841 -0.52991927123019833 0 0.84804809178421925 0.84804809178421925 0 0.52991927123019833 forward_v I I I I #
coedge $-1 $162 $163 $164 $165 reversed $64 $-1 #
face $-1 $-1 $166 $34 $-1 $167 forward single #
loop $-1 $168 $169 $66 #
cone-surface $-1 -50.878140385993341 12.728644581758459 6.790466837654618 0.52991927123019833 0 -0.84804809178421925 0.63603606883816444 0 0.39743945342264875 1 I I -0.70710678118654757 0.70710678118654757 0.75 forward I I I I #
loop $-1 $-1 $170 $43 #
coedge $-1 $107 $107 $171 $172 reversed $67 $-1 #
face $-1 $-1 $173 $35 $-1 $174 forward single #
loop $-1 $175 $176 $69 #
cone-surface $-1 -50.878140385993341 19.048145345228093 6.790466837654618 0.52991927123019833 0 -0.84804809178421925 0.63603606883816444 0 0.39743945342264875 1 I I -0.70710678118654757 0.70710678118654757 0.75 forward I I I I #
loop $-1 $-1 $177 $44 #
coedge $-1 $112 $112 $178 $179 reversed $70 $-1 #
face $-1 $180 $181 $27 $-1 $182 reversed single #
loop $-1 $-1 $183 $72 #
plane-surface $-1 0 -32.804378992856755 0 0 1 0 0 0 1 forward_v I I I I #
coedge $-1 $184 $185 $186 $187 forward $73 $-1 #
coedge $-1 $188 $75 $189 $190 forward $46 $-1 #
coedge $-1 $75 $188 $191 $192 forward $46 $-1 #
coedge $-1 $193 $194 $75 $120 reversed $195 $-1 #
edge $-1 $196 -32.804378992856755 $197 32.804378992856755 $119 $198 forward 7 unknown #
face $-1 $199 $200 $28 $-1 $201 forward single #
loop $-1 $-1 $202 $76 #
plane-surface $-1 88.701226769432395 10.941183392489478 160.38286636401446 0 1 0 0.83867057594974714 0 0.54463902268945019 forward_v I I I I #
coedge $-1 $203 $204 $205 $206 reversed $77 $-1 #
coedge $-1 $126 $79 $207 $208 reversed $49 $-1 #
coedge $-1 $79 $125 $203 $209 reversed $49 $-1 #
coedge $-1 $205 $210 $79 $128 forward $200 $-1 #
edge $-1 $211 -11.504362658253868 $212 -7.6127354662878943 $127 $213 forward 7 unknown #
loop $-1 $-1 $134 $80 #
plane-surface $-1 -4.9866230858016678 19.975177188620997 99.541267235242714 0.83867057594974714 0 0.54463902268945019 0.54463902268945019 0 -0.83867057594974714 forward_v I I I I #
loop $-1 $-1 $214 $51 #
coedge $-1 $132 $132 $133 $215 reversed $81 $-1 #
coedge $-1 $133 $133 $132 $215 forward $83 $-1 #
coedge $-1 $134 $134 $84 $135 forward $129 $-1 #
edge $-1 $216 0 $216 6.2831853071796004 $134 $217 forward 7 unknown #
face $-1 $218 $219 $30 $-1 $220 reversed single #
loop $-1 $-1 $221 $85 #
plane-surface $-1 -115.05223244151185 -8.5156440727786915 102.85438939033237 0 -1 0 0.52991927123019833 0 -0.84804809178421925 forward_v I I I I #
coedge $-1 $222 $223 $224 $225 reversed $86 $-1 #
coedge $-1 $141 $88 $226 $227 reversed $55 $-1 #
coedge $-1 $88 $140 $222 $228 reversed $55 $-1 #
coedge $-1 $224 $229 $88 $143 forward $230 $-1 #
edge $-1 $231 1.6711401777858583 $232 7.6356192606477862 $142 $233 forward 7 unknown #
loop $-1 $-1 $149 $89 #
plane-surface $-1 -55.85497604297008 -15.888394963493273 8.1189776905442841 -0.52991927123019833 0 0.84804809178421925 0.84804809178421925 0 0.52991927123019833 forward_v I I I I #
loop $-1 $-1 $234 $57 #
coedge $-1 $147 $147 $148 $235 reversed $90 $-1 #
coedge $-1 $148 $148 $147 $235 forward $92 $-1 #
coedge $-1 $149 $149 $93 $150 forward $144 $-1 #
edge $-1 $236 0 $236 6.2831853071796004 $149 $237 forward 7 unknown #
loop $-1 $-1 $156 $94 #
plane-surface $-1 -55.85497604297008 -15.888394963493273 8.1189776905442841 -0.52991927123019833 0 0.84804809178421925 0.84804809178421925 0 0.52991927123019833 forward_v I I I I #
loop $-1 $-1 $238 $60 #
coedge $-1 $154 $154 $155 $239 reversed $95 $-1 #
coedge $-1 $155 $155 $154 $239 forward $97 $-1 #
coedge $-1 $156 $156 $98 $157 forward $151 $-1 #
edge $-1 $240 0 $240 6.2831853071796004 $156 $241 forward 7 unknown #
face $-1 $242 $243 $33 $-1 $244 forward single #
loop $-1 $-1 $245 $99 #
plane-surface $-1 -115.05223244151185 23.261145854207857 102.85438939033237 0 -1 0 0.52991927123019833 0 -0.84804809178421925 forward_v I I I I #
coedge $-1 $246 $247 $248 $249 reversed $100 $-1 #
coedge $-1 $163 $102 $250 $251 reversed $64 $-1 #
coedge $-1 $102 $162 $246 $252 reversed $64 $-1 #
coedge $-1 $248 $253 $102 $165 forward $243 $-1 #
edge $-1 $254 1.6711401777858583 $255 7.6356192606477862 $164 $256 forward 7 unknown #
loop $-1 $-1 $171 $103 #
plane-surface $-1 -55.85497604297008 15.888394963493276 8.1189776905442841 -0.52991927123019833 0 0.84804809178421925 0.84804809178421925 0 0.52991927123019833 forward_v I I I I #
loop $-1 $-1 $257 $66 #
coedge $-1 $169 $169 $170 $258 reversed $104 $-1 #
coedge $-1 $170 $170 $169 $258 forward $106 $-1 #
coedge $-1 $171 $171 $107 $172 forward $166 $-1 #
edge $-1 $259 0 $259 6.2831853071796004 $171 $260 forward 7 unknown #
loop $-1 $-1 $178 $108 #
plane-surface $-1 -55.85497604297008 15.888394963493276 8.1189776905442841 -0.52991927123019833 0 0.84804809178421925 0.84804809178421925 0 0.52991927123019833 forward_v I I I I #
loop $-1 $-1 $261 $69 #
coedge $-1 $176 $176 $177 $262 reversed $109 $-1 #
coedge $-1 $177 $177 $176 $262 forward $111 $-1 #
coedge $-1 $178 $178 $112 $179 forward $173 $-1 #
edge $-1 $263 0 $263 6.2831853071796004 $178 $264 forward 7 unknown #
face $-1 $265 $266 $27 $-1 $267 reversed single #
loop $-1 $-1 $268 $113 #
plane-surface $-1 -55.854976042970065 0 0 1 0 0 0 0 -1 forward_v I I I I #
coedge $-1 $269 $191 $270 $271 forward $114 $-1 #
coedge $-1 $272 $116 $269 $273 forward $73 $-1 #
coedge $-1 $116 $272 $274 $275 forward $73 $-1 #
coedge $-1 $194 $193 $116 $187 reversed $195 $-1 #
edge $-1 $276 -32.804378992856755 $277 32.804378992856755 $186 $278 forward 7 unknown #
coedge $-1 $118 $117 $279 $280 forward $46 $-1 #
coedge $-1 $281 $282 $117 $190 reversed $266 $-1 #
edge $-1 $197 -55.854976042970065 $283 55.854976042970065 $189 $284 forward 7 unknown #
coedge $-1 $183 $285 $118 $192 reversed $114 $-1 #
edge $-1 $286 -55.854976042970065 $196 55.854976042970065 $191 $287 forward 7 unknown #
coedge $-1 $186 $119 $285 $288 forward $195 $-1 #
coedge $-1 $119 $186 $281 $289 reversed $195 $-1 #
loop $-1 $-1 $193 $265 #
vertex $-1 $120 $290 #
vertex $-1 $120 $291 #
straight-curve $-1 55.854976042970065 0 11.845997937955184 0 1 0 I I #
face $-1 $-1 $292 $28 $-1 $293 reversed single #
loop $-1 $-1 $127 $121 #
plane-surface $-1 0 0 11.845997937955184 0 0 1 1 0 0 forward_v I I I I #
coedge $-1 $294 $295 $296 $297 reversed $122 $-1 #
coedge $-1 $298 $124 $126 $209 forward $77 $-1 #
coedge $-1 $124 $298 $294 $299 forward $77 $-1 #
coedge $-1 $296 $127 $124 $206 forward $200 $-1 #
edge $-1 $212 -19.021582390442017 $300 -0.95359479817897963 $205 $301 forward 7 unknown #
coedge $-1 $302 $303 $125 $208 forward $292 $-1 #
edge $-1 $304 -74.338015801998566 $211 -68.345435244052041 $207 $305 forward 7 unknown #
edge $-1 $212 104.56461906747781 $304 111.7099520859401 $126 $306 forward 7 unknown #
coedge $-1 $127 $296 $302 $307 forward $200 $-1 #
vertex $-1 $208 $308 #
vertex $-1 $128 $309 #
straight-curve $-1 44.350613384716198 29.009170984752515 11.84599793795519 -1 0 0 I I #
coedge $-1 $214 $214 $-1 $310 reversed $131 $-1 #
edge $-1 $311 0 $311 6.2831853071796004 $132 $312 forward 7 unknown #
vertex $-1 $135 $313 #
ellipse-curve $-1 53.909162446987089 19.975177188620997 8.8497076589819077 0.83867057594974714 0 0.54463902268945019 0.54463902268945019 0 -0.83867057594974714 1 I I #
face $-1 $-1 $230 $30 $-1 $314 forward single #
loop $-1 $-1 $315 $136 #
plane-surface $-1 -55.854976042970065 0 0 1 0 0 0 0 -1 forward_v I I I I #
coedge $-1 $316 $317 $318 $319 reversed $137 $-1 #
coedge $-1 $320 $139 $141 $228 forward $86 $-1 #
coedge $-1 $139 $320 $316 $321 forward $86 $-1 #
coedge $-1 $318 $142 $139 $225 forward $230 $-1 #
edge $-1 $232 -15.316948372461217 $322 -0.5714465910320552 $224 $323 forward 7 unknown #
coedge $-1 $324 $325 $140 $227 forward $219 $-1 #
edge $-1 $326 -43.308217004621895 $231 -39.581196757211004 $226 $327 forward 7 unknown #
edge $-1 $232 -7.0331849580761379 $326 -1.675811683274863e-014 $141 $328 forward 7 unknown #
coedge $-1 $142 $318 $324 $329 forward $230 $-1 #
loop $-1 $-1 $318 $218 #
vertex $-1 $227 $330 #
vertex $-1 $143 $331 #
straight-curve $-1 -57.526116220755924 -23.261145854207854 11.845997937955183 1 0 0 I I #
coedge $-1 $234 $234 $-1 $332 reversed $146 $-1 #
edge $-1 $333 0 $333 6.2831853071796004 $147 $334 forward 7 unknown #
vertex $-1 $150 $335 #
ellipse-curve $-1 -52.872736501539094 -19.048145345228093 9.9824878142497422 -0.52991927123019833 0 0.84804809178421925 1.2720721376763289 0 0.79487890684529749 1 I I #
coedge $-1 $238 $238 $-1 $336 reversed $153 $-1 #
edge $-1 $337 0 $337 6.2831853071796004 $154 $338 forward 7 unknown #
vertex $-1 $157 $339 #
ellipse-curve $-1 -52.872736501539094 -12.728644581758452 9.9824878142497422 -0.52991927123019833 0 0.84804809178421925 1.2720721376763289 0 0.79487890684529749 1 I I #
face $-1 $-1 $340 $33 $-1 $341 reversed single #
loop $-1 $-1 $164 $158 #
plane-surface $-1 0 0 11.845997937955184 0 0 1 1 0 0 forward_v I I I I #
coedge $-1 $342 $343 $344 $345 reversed $159 $-1 #
coedge $-1 $346 $161 $163 $252 forward $100 $-1 #
coedge $-1 $161 $346 $342 $347 forward $100 $-1 #
coedge $-1 $344 $164 $161 $249 forward $243 $-1 #
edge $-1 $255 0.57144659103205697 $348 15.316948372461219 $248 $349 forward 7 unknown #
coedge $-1 $350 $351 $162 $251 forward $340 $-1 #
edge $-1 $352 -43.308217004621895 $254 -39.581196757211004 $250 $353 forward 7 unknown #
edge $-1 $255 -7.0331849580761379 $352 -1.675811683274863e-014 $163 $354 forward 7 unknown #
coedge $-1 $164 $344 $350 $355 forward $243 $-1 #
vertex $-1 $165 $356 #
vertex $-1 $165 $357 #
straight-curve $-1 -57.526116220755924 8.5156440727786951 11.845997937955183 1 0 0 I I #
coedge $-1 $257 $257 $-1 $358 reversed $168 $-1 #
edge $-1 $359 0 $359 6.2831853071796004 $169 $360 forward 7 unknown #
vertex $-1 $172 $361 #
ellipse-curve $-1 -52.872736501539094 12.728644581758459 9.9824878142497422 -0.52991927123019833 0 0.84804809178421925 1.2720721376763289 0 0.79487890684529749 1 I I #
coedge $-1 $261 $261 $-1 $362 reversed $175 $-1 #
edge $-1 $363 0 $363 6.2831853071796004 $176 $364 forward 7 unknown #
vertex $-1 $179 $365 #
ellipse-curve $-1 -52.872736501539094 19.048145345228093 9.9824878142497422 -0.52991927123019833 0 0.84804809178421925 1.2720721376763289 0 0.79487890684529749 1 I I #
face $-1 $-1 $195 $27 $-1 $366 reversed single #
loop $-1 $-1 $281 $180 #
plane-surface $-1 0 32.804378992856755 0 0 -1 0 0 0 -1 forward_v I I I I #
coedge $-1 $367 $279 $282 $368 forward $181 $-1 #
coedge $-1 $285 $183 $184 $273 reversed $114 $-1 #
coedge $-1 $279 $367 $183 $271 reversed $181 $-1 #
edge $-1 $286 -11.845997937955184 $369 11.845997937955184 $270 $370 forward 7 unknown #
coedge $-1 $185 $184 $367 $371 forward $73 $-1 #
edge $-1 $277 -55.854976042970065 $369 55.854976042970065 $269 $372 forward 7 unknown #
coedge $-1 $282 $281 $185 $275 reversed $266 $-1 #
edge $-1 $373 -55.854976042970065 $276 55.854976042970065 $274 $374 forward 7 unknown #
vertex $-1 $187 $375 #
vertex $-1 $288 $376 #
straight-curve $-1 55.854976042970065 0 -11.845997937955184 0 -1 0 I I #
coedge $-1 $268 $270 $188 $280 reversed $181 $-1 #
edge $-1 $283 -32.804378992856755 $286 32.804378992856755 $279 $377 forward 7 unknown #
coedge $-1 $274 $189 $194 $289 forward $266 $-1 #
coedge $-1 $189 $274 $268 $368 reversed $266 $-1 #
vertex $-1 $190 $378 #
straight-curve $-1 0 32.804378992856755 11.845997937955184 -1 0 0 I I #
coedge $-1 $191 $269 $193 $288 reversed $114 $-1 #
vertex $-1 $280 $379 #
straight-curve $-1 0 -32.804378992856755 11.845997937955184 1 0 0 I I #
edge $-1 $196 -11.845997937955184 $277 11.845997937955184 $193 $380 forward 7 unknown #
edge $-1 $197 -11.845997937955184 $276 11.845997937955184 $194 $381 forward 7 unknown #
point $-1 55.854976042970065 -32.804378992856755 11.845997937955184 #
point $-1 55.854976042970065 32.804378992856755 11.845997937955184 #
loop $-1 $-1 $207 $199 #
plane-surface $-1 55.854976042970065 0 0 -1 0 0 0 0 1 forward_v I I I I #
coedge $-1 $295 $202 $204 $299 reversed $122 $-1 #
coedge $-1 $202 $294 $382 $383 reversed $122 $-1 #
coedge $-1 $210 $205 $202 $297 forward $200 $-1 #
edge $-1 $300 7.6127354662878943 $384 11.504362658253868 $296 $385 forward 7 unknown #
coedge $-1 $204 $203 $303 $386 reversed $77 $-1 #
edge $-1 $387 -111.7099520859401 $300 -104.56461906747781 $294 $388 forward 7 unknown #
vertex $-1 $206 $389 #
straight-curve $-1 51.963348851004092 9.9875885943104983 11.845997937955183 0 -1 0 I I #
coedge $-1 $382 $207 $210 $307 reversed $292 $-1 #
coedge $-1 $207 $382 $298 $386 forward $292 $-1 #
vertex $-1 $208 $390 #
straight-curve $-1 55.854976042970065 29.009170984752515 80.191433182007231 0 0 1 I I #
straight-curve $-1 -4.9866230858016678 29.009170984752515 99.541267235242714 0.54463902268945019 0 -0.83867057594974714 I I #
edge $-1 $384 10.941183392489478 $211 29.009170984752515 $302 $391 forward 7 unknown #
point $-1 55.854976042970065 29.009170984752515 11.845997937955184 #
point $-1 51.963348851004092 29.009170984752515 11.84599793795519 #
edge $-1 $392 1 $392 0 $214 $-1 forward 7 unknown #
vertex $-1 $215 $393 #
ellipse-curve $-1 50.642091745760084 19.975177188620997 6.7280472063559502 0.83867057594974714 0 0.54463902268945019 0.54463902268945019 0 -0.83867057594974714 1 I I #
point $-1 54.453801469676542 19.975177188620997 8.0110370830321642 #
plane-surface $-1 0 0 11.845997937955184 0 0 1 1 0 0 forward_v I I I I #
coedge $-1 $325 $324 $317 $394 forward $219 $-1 #
coedge $-1 $317 $221 $223 $321 reversed $137 $-1 #
coedge $-1 $221 $316 $315 $394 reversed $137 $-1 #
coedge $-1 $229 $224 $221 $319 forward $230 $-1 #
edge $-1 $322 -7.6356192606477862 $395 -1.6711401777858583 $318 $396 forward 7 unknown #
coedge $-1 $223 $222 $325 $397 reversed $86 $-1 #
edge $-1 $398 1.675811683274863e-014 $322 7.0331849580761379 $316 $399 forward 7 unknown #
vertex $-1 $225 $400 #
straight-curve $-1 -49.890496960108138 -7.9441974817466363 11.845997937955184 0 1 0 I I #
coedge $-1 $315 $226 $229 $329 reversed $219 $-1 #
coedge $-1 $226 $315 $320 $397 forward $219 $-1 #
vertex $-1 $227 $401 #
straight-curve $-1 -55.854976042970065 -23.261145854207854 51.427194695166186 0 0 1 I I #
straight-curve $-1 -55.85497604297008 -23.261145854207854 8.1189776905442841 -0.84804809178421925 0 -0.52991927123019833 I I #
edge $-1 $395 8.5156440727786915 $231 23.261145854207854 $324 $402 forward 7 unknown #
point $-1 -55.854976042970065 -23.261145854207854 11.845997937955184 #
point $-1 -49.890496960108138 -23.261145854207854 11.845997937955184 #
edge $-1 $403 1 $403 0 $234 $-1 forward 7 unknown #
vertex $-1 $235 $404 #
ellipse-curve $-1 -51.27557983941599 -19.048145345228093 7.4265029064927823 -0.52991927123019833 0 0.84804809178421925 1.2720721376763289 0 0.79487890684529749 1 I I #
point $-1 -51.600664363862755 -19.048145345228093 10.777366721095024 #
edge $-1 $405 1 $405 0 $238 $-1 forward 7 unknown #
vertex $-1 $239 $406 #
ellipse-curve $-1 -51.27557983941599 -12.728644581758452 7.4265029064927823 -0.52991927123019833 0 0.84804809178421925 1.2720721376763289 0 0.79487890684529749 1 I I #
point $-1 -51.600664363862755 -12.728644581758452 10.777366721095024 #
loop $-1 $-1 $250 $242 #
plane-surface $-1 -55.854976042970065 0 0 1 0 0 0 0 -1 forward_v I I I I #
coedge $-1 $343 $245 $247 $347 reversed $159 $-1 #
coedge $-1 $245 $342 $407 $408 reversed $159 $-1 #
coedge $-1 $253 $248 $245 $345 forward $243 $-1 #
edge $-1 $348 -7.6356192606477862 $409 -1.6711401777858583 $344 $410 forward 7 unknown #
coedge $-1 $247 $246 $351 $411 reversed $100 $-1 #
edge $-1 $412 1.675811683274863e-014 $348 7.0331849580761379 $342 $413 forward 7 unknown #
vertex $-1 $249 $414 #
straight-curve $-1 -49.890496960108138 7.9441974817466381 11.845997937955184 0 1 0 I I #
coedge $-1 $407 $250 $253 $355 reversed $340 $-1 #
coedge $-1 $250 $407 $346 $411 forward $340 $-1 #
vertex $-1 $251 $415 #
straight-curve $-1 -55.854976042970065 8.5156440727786951 51.427194695166186 0 0 1 I I #
straight-curve $-1 -55.85497604297008 8.5156440727786951 8.1189776905442841 -0.84804809178421925 0 -0.52991927123019833 I I #
edge $-1 $409 -23.261145854207857 $254 -8.5156440727786951 $350 $416 forward 7 unknown #
point $-1 -55.854976042970065 8.5156440727786951 11.845997937955184 #
point $-1 -49.890496960108138 8.5156440727786951 11.845997937955184 #
edge $-1 $417 1 $417 0 $257 $-1 forward 7 unknown #
vertex $-1 $258 $418 #
ellipse-curve $-1 -51.27557983941599 12.728644581758459 7.4265029064927823 -0.52991927123019833 0 0.84804809178421925 1.2720721376763289 0 0.79487890684529749 1 I I #
point $-1 -51.600664363862755 12.728644581758459 10.777366721095024 #
edge $-1 $419 1 $419 0 $261 $-1 forward 7 unknown #
vertex $-1 $262 $420 #
ellipse-curve $-1 -51.27557983941599 19.048145345228093 7.4265029064927823 -0.52991927123019833 0 0.84804809178421925 1.2720721376763289 0 0.79487890684529749 1 I I #
point $-1 -51.600664363862755 19.048145345228093 10.777366721095024 #
plane-surface $-1 55.854976042970065 0 0 -1 0 0 0 0 1 forward_v I I I I #
coedge $-1 $270 $268 $272 $371 reversed $181 $-1 #
edge $-1 $283 -11.845997937955184 $373 11.845997937955184 $282 $421 forward 7 unknown #
vertex $-1 $371 $422 #
straight-curve $-1 -55.854976042970065 -32.804378992856755 0 0 0 -1 I I #
edge $-1 $369 -32.804378992856755 $373 32.804378992856755 $367 $423 forward 7 unknown #
straight-curve $-1 0 -32.804378992856755 -11.845997937955184 -1 0 0 I I #
vertex $-1 $275 $424 #
straight-curve $-1 0 32.804378992856755 -11.845997937955184 1 0 0 I I #
point $-1 55.854976042970065 32.804378992856755 -11.845997937955184 #
point $-1 55.854976042970065 -32.804378992856755 -11.845997937955184 #
straight-curve $-1 -55.854976042970065 0 11.845997937955184 0 -1 0 I I #
point $-1 -55.854976042970065 32.804378992856755 11.845997937955184 #
point $-1 -55.854976042970065 -32.804378992856755 11.845997937955184 #
straight-curve $-1 55.854976042970065 -32.804378992856755 0 0 0 -1 I I #
straight-curve $-1 55.854976042970065 32.804378992856755 0 0 0 -1 I I #
coedge $-1 $303 $302 $295 $383 forward $292 $-1 #
edge $-1 $384 68.345435244052041 $387 74.338015801998566 $382 $425 forward 7 unknown #
vertex $-1 $307 $426 #
straight-curve $-1 44.350613384716198 10.941183392489478 11.84599793795519 1 0 0 I I #
edge $-1 $387 0.95359479817897963 $304 19.021582390442017 $303 $427 forward 7 unknown #
vertex $-1 $386 $428 #
straight-curve $-1 -4.9866230858016678 10.941183392489478 99.541267235242714 -0.54463902268945019 0 0.83867057594974714 I I #
point $-1 51.963348851004092 10.941183392489478 11.84599793795519 #
point $-1 55.854976042970065 29.009170984752515 5.8534173800086648 #
straight-curve $-1 55.854976042970065 0 11.845997937955184 0 1 0 I I #
vertex $-1 $310 $429 #
point $-1 51.186730768449536 19.975177188620997 5.8893766304062032 #
edge $-1 $395 39.581196757211004 $398 43.308217004621895 $315 $430 forward 7 unknown #
vertex $-1 $329 $431 #
straight-curve $-1 -57.526116220755924 -8.5156440727786915 11.845997937955183 -1 0 0 I I #
edge $-1 $398 0.5714465910320552 $326 15.316948372461217 $325 $432 forward 7 unknown #
vertex $-1 $397 $433 #
straight-curve $-1 -55.85497604297008 -8.5156440727786915 8.1189776905442841 0.84804809178421925 0 0.52991927123019833 I I #
point $-1 -49.890496960108138 -8.5156440727786915 11.845997937955184 #
point $-1 -55.854976042970065 -23.261145854207854 8.118977690544293 #
straight-curve $-1 -55.854976042970065 0 11.845997937955184 0 -1 0 I I #
vertex $-1 $332 $434 #
point $-1 -50.003507701739657 -19.048145345228093 8.2213818133380805 #
vertex $-1 $336 $435 #
point $-1 -50.003507701739657 -12.728644581758452 8.2213818133380805 #
coedge $-1 $351 $350 $343 $408 forward $340 $-1 #
edge $-1 $409 39.581196757211004 $412 43.308217004621895 $407 $436 forward 7 unknown #
vertex $-1 $355 $437 #
straight-curve $-1 -57.526116220755924 23.261145854207857 11.845997937955183 -1 0 0 I I #
edge $-1 $412 -15.316948372461219 $352 -0.57144659103205697 $351 $438 forward 7 unknown #
vertex $-1 $411 $439 #
straight-curve $-1 -55.85497604297008 23.261145854207857 8.1189776905442841 0.84804809178421925 0 0.52991927123019833 I I #
point $-1 -49.890496960108138 23.261145854207857 11.845997937955184 #
point $-1 -55.854976042970065 8.5156440727786951 8.118977690544293 #
straight-curve $-1 -55.854976042970065 0 11.845997937955184 0 -1 0 I I #
vertex $-1 $358 $440 #
point $-1 -50.003507701739657 12.728644581758459 8.2213818133380805 #
vertex $-1 $362 $441 #
point $-1 -50.003507701739657 19.048145345228093 8.2213818133380805 #
straight-curve $-1 -55.854976042970065 32.804378992856755 0 0 0 -1 I I #
point $-1 -55.854976042970065 -32.804378992856755 -11.845997937955184 #
straight-curve $-1 -55.854976042970065 0 -11.845997937955184 0 1 0 I I #
point $-1 -55.854976042970065 32.804378992856755 -11.845997937955184 #
straight-curve $-1 55.854976042970065 10.941183392489478 80.191433182007231 0 0 -1 I I #
point $-1 55.854976042970065 10.941183392489478 11.845997937955184 #
straight-curve $-1 55.854976042970065 9.9875885943104983 5.8534173800086577 0 1 0 I I #
point $-1 55.854976042970065 10.941183392489478 5.8534173800086648 #
point $-1 49.803421169810335 19.975177188620997 6.1834081836664998 #
straight-curve $-1 -55.854976042970065 -8.5156440727786915 51.427194695166186 0 0 -1 I I #
point $-1 -55.854976042970065 -8.5156440727786915 11.845997937955184 #
straight-curve $-1 -55.854976042970065 -7.9441974817466363 8.1189776905442912 0 -1 0 I I #
point $-1 -55.854976042970065 -8.5156440727786915 8.118977690544293 #
point $-1 -50.480700932570691 -19.048145345228093 6.1544307688164537 #
point $-1 -50.480700932570691 -12.728644581758452 6.1544307688164537 #
straight-curve $-1 -55.854976042970065 23.261145854207857 51.427194695166186 0 0 -1 I I #
point $-1 -55.854976042970065 23.261145854207857 11.845997937955184 #
straight-curve $-1 -55.854976042970065 7.9441974817466381 8.1189776905442912 0 -1 0 I I #
point $-1 -55.854976042970065 23.261145854207857 8.118977690544293 #
point $-1 -50.480700932570691 12.728644581758459 6.1544307688164537 #
point $-1 -50.480700932570691 19.048145345228093 6.1544307688164537 #
End-of-ACIS-data 