500 0 10 0           
7 Unknown 11 ACIS 5.0 NT 24 Thu Mar 25 19:20:57 1999 
-1 9.9999999999999995e-007 1e-010 
body $-1 $10 $-1 $11 #
body $-1 $12 $-1 $13 #
body $-1 $14 $-1 $15 #
body $-1 $16 $-1 $17 #
body $-1 $18 $-1 $19 #
body $-1 $20 $-1 $21 #
body $-1 $22 $-1 $23 #
body $-1 $24 $-1 $25 #
body $-1 $26 $-1 $27 #
body $-1 $28 $-1 $29 #
lump $-1 $-1 $30 $0 #
transform $-1 1 0 0 0 1 0 0 0 1 79.561754203924679 50.510435366427274 18.553378369297828 1 rotate no_reflect no_shear #
lump $-1 $-1 $31 $1 #
transform $-1 1 0 0 0 1 0 0 0 1 79.561754203924679 50.510435366427274 18.553378369297828 1 rotate no_reflect no_shear #
lump $-1 $-1 $32 $2 #
transform $-1 1 0 0 0 1 0 0 0 1 79.561754203924679 50.510435366427274 18.553378369297828 1 rotate no_reflect no_shear #
lump $-1 $-1 $33 $3 #
transform $-1 1 0 0 0 1 0 0 0 1 79.561754203924679 50.510435366427274 18.553378369297828 1 rotate no_reflect no_shear #
lump $-1 $-1 $34 $4 #
transform $-1 1 0 0 0 1 0 0 0 1 79.561754203924679 50.510435366427274 18.553378369297828 1 rotate no_reflect no_shear #
lump $-1 $-1 $35 $5 #
transform $-1 1 0 0 0 1 0 0 0 1 79.561754203924679 50.510435366427274 18.553378369297828 1 rotate no_reflect no_shear #
lump $-1 $-1 $36 $6 #
transform $-1 1 0 0 0 1 0 0 0 1 79.561754203924679 50.510435366427274 18.553378369297828 1 rotate no_reflect no_shear #
lump $-1 $-1 $37 $7 #
transform $-1 1 0 0 0 1 0 0 0 1 79.561754203924679 50.510435366427274 18.553378369297828 1 rotate no_reflect no_shear #
lump $-1 $-1 $38 $8 #
transform $-1 1 0 0 0 1 0 0 0 1 79.561754203924679 50.510435366427274 18.553378369297828 1 rotate no_reflect no_shear #
lump $-1 $-1 $39 $9 #
transform $-1 1 0 0 0 1 0 0 0 1 79.561754203924679 50.510435366427274 18.553378369297828 1 rotate no_reflect no_shear #
shell $-1 $-1 $-1 $40 $-1 $10 #
shell $-1 $-1 $-1 $41 $-1 $12 #
shell $-1 $-1 $-1 $42 $-1 $14 #
shell $-1 $-1 $-1 $43 $-1 $16 #
shell $-1 $-1 $-1 $44 $-1 $18 #
shell $-1 $-1 $-1 $45 $-1 $20 #
shell $-1 $-1 $-1 $46 $-1 $22 #
shell $-1 $-1 $-1 $47 $-1 $24 #
shell $-1 $-1 $-1 $48 $-1 $26 #
shell $-1 $-1 $-1 $49 $-1 $28 #
face $-1 $50 $51 $30 $-1 $52 forward single #
face $-1 $53 $54 $31 $-1 $55 forward single #
face $-1 $56 $57 $32 $-1 $58 reversed single #
face $-1 $59 $60 $33 $-1 $61 forward single #
face $-1 $62 $63 $34 $-1 $64 forward single #
face $-1 $65 $66 $35 $-1 $67 forward single #
face $-1 $68 $69 $36 $-1 $70 reversed single #
face $-1 $71 $72 $37 $-1 $73 forward single #
face $-1 $74 $75 $38 $-1 $76 forward single #
face $-1 $77 $78 $39 $-1 $79 forward single #
face $-1 $80 $81 $30 $-1 $82 reversed single #
loop $-1 $-1 $83 $40 #
plane-surface $-1 0 0 18.553378369297828 0 0 1 1 0 0 forward_v I I I I #
face $-1 $84 $85 $31 $-1 $86 reversed single #
loop $-1 $-1 $87 $41 #
plane-surface $-1 -68.184270182221141 0 -14.598095027493788 0 0 1 1 0 0 forward_v I I I I #
face $-1 $88 $89 $32 $-1 $90 reversed single #
loop $-1 $-1 $91 $42 #
plane-surface $-1 -11.686115595612009 -144.04088809650926 140.87605066955157 1 0 0 0 0.5877852598018023 -0.80901698891910034 forward_v I I I I #
face $-1 $92 $93 $33 $-1 $94 forward single #
loop $-1 $95 $96 $43 #
cone-surface $-1 -8.7358406768109802 -45.042699719809541 13.894749493272874 0 0.5877852598018023 -0.80901698891910034 1 0 0 1 I I 0 1 1 forward I I I I #
face $-1 $97 $98 $34 $-1 $99 forward single #
loop $-1 $100 $101 $44 #
cone-surface $-1 -4.3104282986094375 -45.042699719809541 13.894749493272874 0 0.5877852598018023 -0.80901698891910034 1 0 0 1 I I 0 1 1 forward I I I I #
face $-1 $102 $103 $35 $-1 $104 forward single #
loop $-1 $105 $106 $45 #
cone-surface $-1 0.1149840795921051 -45.042699719809541 13.894749493272874 0 0.5877852598018023 -0.80901698891910034 1 0 0 1 I I 0 1 1 forward I I I I #
face $-1 $107 $108 $36 $-1 $109 reversed single #
loop $-1 $-1 $110 $46 #
plane-surface $-1 60.835062072271455 88.378581530409903 187.53100526524017 1 0 0 0 -0.69465837861970381 -0.71933979245794832 forward_v I I I I #
face $-1 $111 $112 $37 $-1 $113 forward single #
loop $-1 $114 $115 $47 #
cone-surface $-1 64.580400498602117 41.935288497719434 10.239887792915066 0 -0.69465837861970381 -0.71933979245794832 0.5 0 0 1 I I 0 1 0.5 forward I I I I #
face $-1 $116 $117 $38 $-1 $118 forward single #
loop $-1 $119 $120 $48 #
cone-surface $-1 70.198408138098088 41.935288497719434 10.239887792915066 0 -0.69465837861970381 -0.71933979245794832 0.5 0 0 1 I I 0 1 0.5 forward I I I I #
face $-1 $121 $122 $39 $-1 $123 forward single #
loop $-1 $124 $125 $49 #
cone-surface $-1 75.816415777594059 41.935288497719434 10.239887792915066 0 -0.69465837861970381 -0.71933979245794832 0.5 0 0 1 I I 0 1 0.5 forward I I I I #
face $-1 $126 $127 $30 $-1 $128 reversed single #
loop $-1 $-1 $129 $50 #
plane-surface $-1 0 0 -18.553378369297828 0 0 1 1 0 0 forward_v I I I I #
coedge $-1 $130 $131 $132 $133 forward $51 $-1 #
face $-1 $134 $135 $31 $-1 $136 reversed single #
loop $-1 $-1 $137 $53 #
plane-surface $-1 -56.806786160517603 0 -16.575736698395808 -1 0 0 0 0 1 forward_v I I I I #
coedge $-1 $138 $139 $140 $141 forward $54 $-1 #
face $-1 $142 $143 $32 $-1 $144 reversed single #
loop $-1 $-1 $145 $56 #
plane-surface $-1 -4.3104282986094518 -50.510435366427259 12.142429031190147 0 -0.5877852598018023 0.80901698891910034 1 0 0 forward_v I I I I #
coedge $-1 $146 $147 $148 $149 reversed $57 $-1 #
face $-1 $-1 $150 $33 $-1 $151 forward single #
loop $-1 $152 $153 $59 #
cone-surface $-1 -8.7358406768109802 -43.693028738186023 12.037086791842206 0 0.5877852598018023 -0.80901698891910034 0.5 0 0 1 I I -0.70710678118654746 0.70710678118654746 0.5 forward I I I I #
loop $-1 $-1 $154 $43 #
coedge $-1 $96 $96 $155 $156 reversed $60 $-1 #
face $-1 $-1 $157 $34 $-1 $158 forward single #
loop $-1 $159 $160 $62 #
cone-surface $-1 -4.3104282986094375 -43.693028738186023 12.037086791842206 0 0.5877852598018023 -0.80901698891910034 0.5 0 0 1 I I -0.70710678118654746 0.70710678118654746 0.5 forward I I I I #
loop $-1 $-1 $161 $44 #
coedge $-1 $101 $101 $162 $163 reversed $63 $-1 #
face $-1 $-1 $164 $35 $-1 $165 forward single #
loop $-1 $166 $167 $65 #
cone-surface $-1 0.1149840795921051 -43.693028738186023 12.037086791842206 0 0.5877852598018023 -0.80901698891910034 0.5 0 0 1 I I -0.70710678118654746 0.70710678118654746 0.5 forward I I I I #
loop $-1 $-1 $168 $45 #
coedge $-1 $106 $106 $169 $170 reversed $66 $-1 #
face $-1 $171 $172 $36 $-1 $173 reversed single #
loop $-1 $-1 $174 $68 #
plane-surface $-1 70.19840813809806 -22.157896820465538 73.067133751957215 0 0.69465837861970381 0.71933979245794832 1 0 0 forward_v I I I I #
coedge $-1 $175 $176 $177 $178 reversed $69 $-1 #
face $-1 $-1 $179 $37 $-1 $180 forward single #
loop $-1 $181 $182 $71 #
cone-surface $-1 64.580400498602117 41.295320659956204 9.5771817121058298 0 -0.69465837861970381 -0.71933979245794832 0.25 0 0 1 I I -0.70710678118654746 0.70710678118654746 0.25 forward I I I I #
loop $-1 $-1 $183 $47 #
coedge $-1 $115 $115 $184 $185 reversed $72 $-1 #
face $-1 $-1 $186 $38 $-1 $187 forward single #
loop $-1 $188 $189 $74 #
cone-surface $-1 70.198408138098088 41.295320659956204 9.5771817121058298 0 -0.69465837861970381 -0.71933979245794832 0.25 0 0 1 I I -0.70710678118654746 0.70710678118654746 0.25 forward I I I I #
loop $-1 $-1 $190 $48 #
coedge $-1 $120 $120 $191 $192 reversed $75 $-1 #
face $-1 $-1 $193 $39 $-1 $194 forward single #
loop $-1 $195 $196 $77 #
cone-surface $-1 75.816415777594059 41.295320659956204 9.5771817121058298 0 -0.69465837861970381 -0.71933979245794832 0.25 0 0 1 I I -0.70710678118654746 0.70710678118654746 0.25 forward I I I I #
loop $-1 $-1 $197 $49 #
coedge $-1 $125 $125 $198 $199 reversed $78 $-1 #
face $-1 $200 $201 $30 $-1 $202 reversed single #
loop $-1 $-1 $203 $80 #
plane-surface $-1 0 -50.510435366427274 0 0 1 0 0 0 1 forward_v I I I I #
coedge $-1 $204 $205 $206 $207 forward $81 $-1 #
coedge $-1 $208 $83 $209 $210 forward $51 $-1 #
coedge $-1 $83 $208 $211 $212 forward $51 $-1 #
coedge $-1 $213 $214 $83 $133 reversed $215 $-1 #
edge $-1 $216 -50.510435366427274 $217 50.510435366427274 $132 $218 forward 7 unknown #
face $-1 $219 $220 $31 $-1 $221 reversed single #
loop $-1 $-1 $222 $84 #
plane-surface $-1 0 0 -18.553378369297828 0 0 1 1 0 0 forward_v I I I I #
coedge $-1 $223 $140 $224 $225 reversed $85 $-1 #
coedge $-1 $226 $87 $227 $228 reversed $54 $-1 #
coedge $-1 $87 $226 $229 $230 reversed $54 $-1 #
coedge $-1 $137 $231 $87 $141 reversed $85 $-1 #
edge $-1 $232 -50.510435366427274 $233 50.510435366427274 $140 $234 forward 7 unknown #
face $-1 $235 $236 $32 $-1 $237 forward single #
loop $-1 $-1 $238 $88 #
plane-surface $-1 3.0652589983931051 -144.04088809650926 140.87605066955157 -1 0 0 0 -0.5877852598018023 0.80901698891910034 forward_v I I I I #
coedge $-1 $239 $240 $241 $242 reversed $89 $-1 #
coedge $-1 $147 $91 $243 $244 reversed $57 $-1 #
coedge $-1 $91 $146 $239 $245 reversed $57 $-1 #
coedge $-1 $241 $246 $91 $149 forward $247 $-1 #
edge $-1 $248 51.884646965477955 $249 58.295596303585654 $148 $250 forward 7 unknown #
loop $-1 $-1 $155 $92 #
plane-surface $-1 -4.3104282986094518 -50.510435366427259 12.142429031190147 0 -0.5877852598018023 0.80901698891910034 1 0 0 forward_v I I I I #
loop $-1 $-1 $251 $59 #
coedge $-1 $153 $153 $154 $252 reversed $93 $-1 #
coedge $-1 $154 $154 $153 $252 forward $95 $-1 #
coedge $-1 $155 $155 $96 $156 forward $150 $-1 #
edge $-1 $253 7.3088145644330919e-015 $253 6.2831853071796075 $155 $254 forward 7 unknown #
loop $-1 $-1 $162 $97 #
plane-surface $-1 -4.3104282986094518 -50.510435366427259 12.142429031190147 0 -0.5877852598018023 0.80901698891910034 1 0 0 forward_v I I I I #
loop $-1 $-1 $255 $62 #
coedge $-1 $160 $160 $161 $256 reversed $98 $-1 #
coedge $-1 $161 $161 $160 $256 forward $100 $-1 #
coedge $-1 $162 $162 $101 $163 forward $157 $-1 #
edge $-1 $257 7.3088145644330919e-015 $257 6.2831853071796075 $162 $258 forward 7 unknown #
loop $-1 $-1 $169 $102 #
plane-surface $-1 -4.3104282986094518 -50.510435366427259 12.142429031190147 0 -0.5877852598018023 0.80901698891910034 1 0 0 forward_v I I I I #
loop $-1 $-1 $259 $65 #
coedge $-1 $167 $167 $168 $260 reversed $103 $-1 #
coedge $-1 $168 $168 $167 $260 forward $105 $-1 #
coedge $-1 $169 $169 $106 $170 forward $164 $-1 #
edge $-1 $261 7.3088145644330919e-015 $261 6.2831853071796075 $169 $262 forward 7 unknown #
face $-1 $263 $264 $36 $-1 $265 reversed single #
loop $-1 $-1 $266 $107 #
plane-surface $-1 79.561754203924679 0 0 -1 0 0 0 0 1 forward_v I I I I #
coedge $-1 $267 $268 $269 $270 reversed $108 $-1 #
coedge $-1 $176 $110 $271 $272 reversed $69 $-1 #
coedge $-1 $110 $175 $267 $273 reversed $69 $-1 #
coedge $-1 $269 $274 $110 $178 forward $275 $-1 #
edge $-1 $276 -6.321144601222322 $277 9.8965426499768085 $177 $278 forward 7 unknown #
loop $-1 $-1 $184 $111 #
plane-surface $-1 70.19840813809806 -22.157896820465538 73.067133751957215 0 0.69465837861970381 0.71933979245794832 1 0 0 forward_v I I I I #
loop $-1 $-1 $279 $71 #
coedge $-1 $182 $182 $183 $280 reversed $112 $-1 #
coedge $-1 $183 $183 $182 $280 forward $114 $-1 #
coedge $-1 $184 $184 $115 $185 forward $179 $-1 #
edge $-1 $281 7.0148797244214076e-016 $281 6.2831853071796013 $184 $282 forward 7 unknown #
loop $-1 $-1 $191 $116 #
plane-surface $-1 70.19840813809806 -22.157896820465538 73.067133751957215 0 0.69465837861970381 0.71933979245794832 1 0 0 forward_v I I I I #
loop $-1 $-1 $283 $74 #
coedge $-1 $189 $189 $190 $284 reversed $117 $-1 #
coedge $-1 $190 $190 $189 $284 forward $119 $-1 #
coedge $-1 $191 $191 $120 $192 forward $186 $-1 #
edge $-1 $285 7.0148797244214076e-016 $285 6.2831853071796013 $191 $286 forward 7 unknown #
loop $-1 $-1 $198 $121 #
plane-surface $-1 70.19840813809806 -22.157896820465538 73.067133751957215 0 0.69465837861970381 0.71933979245794832 1 0 0 forward_v I I I I #
loop $-1 $-1 $287 $77 #
coedge $-1 $196 $196 $197 $288 reversed $122 $-1 #
coedge $-1 $197 $197 $196 $288 forward $124 $-1 #
coedge $-1 $198 $198 $125 $199 forward $193 $-1 #
edge $-1 $289 7.0148797244214076e-016 $289 6.2831853071796013 $198 $290 forward 7 unknown #
face $-1 $291 $292 $30 $-1 $293 reversed single #
loop $-1 $-1 $294 $126 #
plane-surface $-1 -79.561754203924679 0 0 1 0 0 0 0 -1 forward_v I I I I #
coedge $-1 $295 $211 $296 $297 forward $127 $-1 #
coedge $-1 $298 $129 $295 $299 forward $81 $-1 #
coedge $-1 $129 $298 $300 $301 forward $81 $-1 #
coedge $-1 $214 $213 $129 $207 reversed $215 $-1 #
edge $-1 $302 -50.510435366427274 $303 50.510435366427274 $206 $304 forward 7 unknown #
coedge $-1 $131 $130 $305 $306 forward $51 $-1 #
coedge $-1 $307 $308 $130 $210 reversed $292 $-1 #
edge $-1 $217 -79.561754203924679 $309 79.561754203924679 $209 $310 forward 7 unknown #
coedge $-1 $203 $311 $131 $212 reversed $127 $-1 #
edge $-1 $312 -79.561754203924679 $216 79.561754203924679 $211 $313 forward 7 unknown #
coedge $-1 $206 $132 $311 $314 forward $215 $-1 #
coedge $-1 $132 $206 $307 $315 reversed $215 $-1 #
loop $-1 $-1 $213 $291 #
vertex $-1 $133 $316 #
vertex $-1 $133 $317 #
straight-curve $-1 79.561754203924679 0 18.553378369297828 0 1 0 I I #
face $-1 $318 $319 $31 $-1 $320 reversed single #
loop $-1 $-1 $224 $134 #
plane-surface $-1 0 -50.510435366427274 0 0 1 0 0 0 1 forward_v I I I I #
coedge $-1 $321 $322 $223 $323 forward $135 $-1 #
coedge $-1 $231 $137 $222 $323 reversed $85 $-1 #
coedge $-1 $229 $324 $137 $225 forward $220 $-1 #
edge $-1 $325 -10.265510020099924 $232 -6.3102266782958836 $224 $326 forward 7 unknown #
coedge $-1 $139 $138 $327 $328 reversed $54 $-1 #
coedge $-1 $329 $330 $138 $228 forward $331 $-1 #
edge $-1 $332 -45.469619112814108 $233 -22.714651069407033 $227 $333 forward 7 unknown #
coedge $-1 $334 $224 $139 $230 forward $220 $-1 #
edge $-1 $232 22.714651069407033 $335 45.469619112814108 $229 $336 forward 7 unknown #
coedge $-1 $140 $223 $329 $337 reversed $85 $-1 #
vertex $-1 $230 $338 #
vertex $-1 $228 $339 #
straight-curve $-1 -56.806786160517603 0 -14.598095027493788 0 1 0 I I #
face $-1 $-1 $247 $32 $-1 $340 reversed single #
loop $-1 $-1 $341 $142 #
plane-surface $-1 0 0 18.553378369297828 0 0 1 1 0 0 forward_v I I I I #
coedge $-1 $342 $343 $344 $345 reversed $143 $-1 #
coedge $-1 $346 $145 $147 $245 forward $89 $-1 #
coedge $-1 $145 $346 $342 $347 forward $89 $-1 #
coedge $-1 $344 $148 $145 $242 forward $247 $-1 #
edge $-1 $249 -9.5309014463072828 $348 5.220473147697831 $241 $349 forward 7 unknown #
coedge $-1 $350 $351 $146 $244 forward $236 $-1 #
edge $-1 $352 -30.333923271617621 $248 -21.510008681827358 $243 $353 forward 7 unknown #
edge $-1 $249 -1.7761521089745031e-014 $352 10.906958334187241 $147 $354 forward 7 unknown #
coedge $-1 $148 $344 $350 $355 reversed $247 $-1 #
loop $-1 $-1 $344 $235 #
vertex $-1 $355 $356 #
vertex $-1 $149 $357 #
straight-curve $-1 -11.686115595612009 -50.510435366427274 70.438025334775787 0 0 -1 I I #
coedge $-1 $251 $251 $-1 $358 reversed $152 $-1 #
edge $-1 $359 0 $359 6.2831853071796004 $153 $360 forward 7 unknown #
vertex $-1 $156 $361 #
ellipse-curve $-1 -8.7358406768109802 -46.098478071532149 15.347903700243979 0 -0.5877852598018023 0.80901698891910034 1 0 0 1 I I #
coedge $-1 $255 $255 $-1 $362 reversed $159 $-1 #
edge $-1 $363 0 $363 6.2831853071796004 $160 $364 forward 7 unknown #
vertex $-1 $163 $365 #
ellipse-curve $-1 -4.3104282986094375 -46.098478071532149 15.347903700243979 0 -0.5877852598018023 0.80901698891910034 1 0 0 1 I I #
coedge $-1 $259 $259 $-1 $366 reversed $166 $-1 #
edge $-1 $367 0 $367 6.2831853071796004 $167 $368 forward 7 unknown #
vertex $-1 $170 $369 #
ellipse-curve $-1 0.1149840795921051 -46.098478071532149 15.347903700243979 0 -0.5877852598018023 0.80901698891910034 1 0 0 1 I I #
face $-1 $-1 $275 $36 $-1 $370 forward single #
loop $-1 $-1 $371 $171 #
plane-surface $-1 0 50.510435366427274 0 0 -1 0 0 0 -1 forward_v I I I I #
coedge $-1 $372 $373 $268 $374 forward $172 $-1 #
coedge $-1 $375 $174 $176 $273 forward $108 $-1 #
coedge $-1 $174 $375 $266 $374 reversed $108 $-1 #
coedge $-1 $376 $177 $174 $270 forward $275 $-1 #
edge $-1 $277 25.735858003222425 $377 44.462550134875634 $269 $378 forward 7 unknown #
coedge $-1 $379 $371 $175 $272 forward $264 $-1 #
edge $-1 $380 -90.873363150698296 $276 -75.212124263322252 $271 $381 forward 7 unknown #
edge $-1 $277 78.475632138748551 $380 101.02087073285455 $176 $382 forward 7 unknown #
coedge $-1 $177 $376 $379 $383 forward $275 $-1 #
loop $-1 $-1 $269 $263 #
vertex $-1 $272 $384 #
vertex $-1 $178 $385 #
straight-curve $-1 60.835062072271455 44.189290765204952 18.553378369297832 0 -1 0 I I #
coedge $-1 $279 $279 $-1 $386 reversed $181 $-1 #
edge $-1 $387 0 $387 6.2831853071796004 $182 $388 forward 7 unknown #
vertex $-1 $185 $389 #
ellipse-curve $-1 64.580400498602117 42.401591740827719 10.722758925609801 0 0.69465837861970381 0.71933979245794832 0.5 0 0 1 I I #
coedge $-1 $283 $283 $-1 $390 reversed $188 $-1 #
edge $-1 $391 0 $391 6.2831853071796004 $189 $392 forward 7 unknown #
vertex $-1 $192 $393 #
ellipse-curve $-1 70.198408138098088 42.401591740827719 10.722758925609801 0 0.69465837861970381 0.71933979245794832 0.5 0 0 1 I I #
coedge $-1 $287 $287 $-1 $394 reversed $195 $-1 #
edge $-1 $395 0 $395 6.2831853071796004 $196 $396 forward 7 unknown #
vertex $-1 $199 $397 #
ellipse-curve $-1 75.816415777594059 42.401591740827719 10.722758925609801 0 0.69465837861970381 0.71933979245794832 0.5 0 0 1 I I #
face $-1 $-1 $215 $30 $-1 $398 reversed single #
loop $-1 $-1 $307 $200 #
plane-surface $-1 0 50.510435366427274 0 0 -1 0 0 0 -1 forward_v I I I I #
coedge $-1 $399 $305 $308 $400 forward $201 $-1 #
coedge $-1 $311 $203 $204 $299 reversed $127 $-1 #
coedge $-1 $305 $399 $203 $297 reversed $201 $-1 #
edge $-1 $312 -18.553378369297828 $401 18.553378369297828 $296 $402 forward 7 unknown #
coedge $-1 $205 $204 $399 $403 forward $81 $-1 #
edge $-1 $303 -79.561754203924679 $401 79.561754203924679 $295 $404 forward 7 unknown #
coedge $-1 $308 $307 $205 $301 reversed $292 $-1 #
edge $-1 $405 -79.561754203924679 $302 79.561754203924679 $300 $406 forward 7 unknown #
vertex $-1 $207 $407 #
vertex $-1 $314 $408 #
straight-curve $-1 79.561754203924679 0 -18.553378369297828 0 -1 0 I I #
coedge $-1 $294 $296 $208 $306 reversed $201 $-1 #
edge $-1 $309 -50.510435366427274 $312 50.510435366427274 $305 $409 forward 7 unknown #
coedge $-1 $300 $209 $214 $315 forward $292 $-1 #
coedge $-1 $209 $300 $294 $400 reversed $292 $-1 #
vertex $-1 $210 $410 #
straight-curve $-1 0 50.510435366427274 18.553378369297828 -1 0 0 I I #
coedge $-1 $211 $295 $213 $314 reversed $127 $-1 #
vertex $-1 $306 $411 #
straight-curve $-1 0 -50.510435366427274 18.553378369297828 1 0 0 I I #
edge $-1 $216 -18.553378369297828 $303 18.553378369297828 $213 $412 forward 7 unknown #
edge $-1 $217 -18.553378369297828 $302 18.553378369297828 $214 $413 forward 7 unknown #
point $-1 79.561754203924679 -50.510435366427274 18.553378369297828 #
point $-1 79.561754203924679 50.510435366427274 18.553378369297828 #
face $-1 $-1 $331 $31 $-1 $414 reversed single #
loop $-1 $-1 $327 $219 #
plane-surface $-1 -79.561754203924679 0 0 1 0 0 0 0 -1 forward_v I I I I #
coedge $-1 $415 $222 $324 $416 forward $135 $-1 #
coedge $-1 $222 $415 $417 $418 forward $135 $-1 #
edge $-1 $419 -50.510435366427274 $325 50.510435366427274 $222 $420 forward 7 unknown #
coedge $-1 $224 $334 $321 $416 reversed $220 $-1 #
vertex $-1 $416 $421 #
straight-curve $-1 -56.806786160517603 -50.510435366427274 -8.2878683491979039 0 0 1 I I #
coedge $-1 $422 $423 $226 $328 forward $319 $-1 #
edge $-1 $335 -50.510435366427274 $332 50.510435366427274 $327 $424 forward 7 unknown #
coedge $-1 $417 $227 $231 $337 forward $331 $-1 #
coedge $-1 $227 $417 $422 $425 reversed $331 $-1 #
loop $-1 $-1 $329 $318 #
vertex $-1 $425 $426 #
straight-curve $-1 -34.09213509111057 50.510435366427274 -14.598095027493788 1 0 0 I I #
coedge $-1 $324 $229 $423 $427 forward $220 $-1 #
vertex $-1 $427 $428 #
straight-curve $-1 -34.09213509111057 -50.510435366427274 -14.598095027493788 -1 0 0 I I #
edge $-1 $233 6.3102266782958836 $419 10.265510020099924 $329 $429 forward 7 unknown #
point $-1 -56.806786160517603 -50.510435366427274 -14.598095027493788 #
point $-1 -56.806786160517603 50.510435366427274 -14.598095027493788 #
plane-surface $-1 0 -50.510435366427274 0 0 1 0 0 0 1 forward_v I I I I #
coedge $-1 $351 $350 $343 $430 forward $236 $-1 #
coedge $-1 $343 $238 $240 $347 reversed $143 $-1 #
coedge $-1 $238 $342 $341 $430 reversed $143 $-1 #
coedge $-1 $246 $241 $238 $345 forward $247 $-1 #
edge $-1 $348 -58.295596303585654 $431 -51.884646965477955 $344 $432 forward 7 unknown #
coedge $-1 $240 $239 $351 $433 reversed $89 $-1 #
edge $-1 $434 -10.906958334187241 $348 1.7761521089745031e-014 $342 $435 forward 7 unknown #
vertex $-1 $242 $436 #
straight-curve $-1 -2.1552141493047259 -50.510435366427274 12.142429031190137 1 0 0 I I #
coedge $-1 $341 $243 $246 $355 forward $236 $-1 #
coedge $-1 $243 $341 $346 $433 forward $236 $-1 #
vertex $-1 $244 $437 #
straight-curve $-1 -11.686115595612009 -72.020444048254632 18.553378369297832 0 -1 0 I I #
straight-curve $-1 -11.686115595612009 -50.510435366427259 12.142429031190147 0 0.80901698891910034 0.5877852598018023 I I #
edge $-1 $248 -11.686115595612009 $431 3.0652589983931051 $246 $438 forward 7 unknown #
point $-1 -11.686115595612009 -50.510435366427274 18.553378369297828 #
point $-1 -11.686115595612009 -50.510435366427274 12.142429031190137 #
edge $-1 $439 1 $439 0 $251 $-1 forward 7 unknown #
vertex $-1 $252 $440 #
ellipse-curve $-1 -8.7358406768109802 -43.986921368086925 12.441595286301757 0 -0.5877852598018023 0.80901698891910034 1 0 0 1 I I #
point $-1 -7.7358406768109802 -46.098478071532149 15.347903700243991 #
edge $-1 $441 1 $441 0 $255 $-1 forward 7 unknown #
vertex $-1 $256 $442 #
ellipse-curve $-1 -4.3104282986094375 -43.986921368086925 12.441595286301757 0 -0.5877852598018023 0.80901698891910034 1 0 0 1 I I #
point $-1 -3.3104282986094375 -46.098478071532149 15.347903700243991 #
edge $-1 $443 1 $443 0 $259 $-1 forward 7 unknown #
vertex $-1 $260 $444 #
ellipse-curve $-1 0.1149840795921051 -43.986921368086925 12.441595286301757 0 -0.5877852598018023 0.80901698891910034 1 0 0 1 I I #
point $-1 1.1149840795921051 -46.098478071532149 15.347903700243991 #
plane-surface $-1 0 0 18.553378369297828 0 0 1 1 0 0 forward_v I I I I #
coedge $-1 $271 $445 $375 $446 forward $264 $-1 #
coedge $-1 $373 $266 $445 $447 reversed $172 $-1 #
coedge $-1 $266 $372 $376 $448 reversed $172 $-1 #
edge $-1 $377 45.12775535741757 $449 67.672993951523566 $266 $450 forward 7 unknown #
coedge $-1 $268 $267 $371 $446 reversed $108 $-1 #
coedge $-1 $274 $269 $373 $448 forward $275 $-1 #
vertex $-1 $448 $451 #
straight-curve $-1 35.09920406904903 34.292748115228129 18.553378369297832 1 0 0 I I #
coedge $-1 $445 $271 $274 $383 reversed $264 $-1 #
vertex $-1 $272 $452 #
straight-curve $-1 60.835062072271455 50.510435366427274 93.765502632620084 0 0 1 I I #
straight-curve $-1 60.835062072271455 -22.157896820465538 73.067133751957215 0 0.71933979245794832 -0.69465837861970381 I I #
edge $-1 $453 -79.561754203924679 $276 -60.835062072271455 $379 $454 forward 7 unknown #
point $-1 60.835062072271455 50.510435366427274 18.553378369297828 #
point $-1 60.835062072271455 34.292748115228143 18.553378369297825 #
edge $-1 $455 1 $455 0 $279 $-1 forward 7 unknown #
vertex $-1 $280 $456 #
ellipse-curve $-1 64.580400498602117 41.468985254611127 9.7570166602203177 0 0.69465837861970381 0.71933979245794832 0.5 0 0 1 I I #
point $-1 65.080400498602117 42.401591740827733 10.722758925609815 #
edge $-1 $457 1 $457 0 $283 $-1 forward 7 unknown #
vertex $-1 $284 $458 #
ellipse-curve $-1 70.198408138098088 41.468985254611127 9.7570166602203177 0 0.69465837861970381 0.71933979245794832 0.5 0 0 1 I I #
point $-1 70.698408138098088 42.401591740827733 10.722758925609815 #
edge $-1 $459 1 $459 0 $287 $-1 forward 7 unknown #
vertex $-1 $288 $460 #
ellipse-curve $-1 75.816415777594059 41.468985254611127 9.7570166602203177 0 0.69465837861970381 0.71933979245794832 0.5 0 0 1 I I #
point $-1 76.316415777594059 42.401591740827733 10.722758925609815 #
plane-surface $-1 79.561754203924679 0 0 -1 0 0 0 0 1 forward_v I I I I #
coedge $-1 $296 $294 $298 $403 reversed $201 $-1 #
edge $-1 $309 -18.553378369297828 $405 18.553378369297828 $308 $461 forward 7 unknown #
vertex $-1 $403 $462 #
straight-curve $-1 -79.561754203924679 -50.510435366427274 0 0 0 -1 I I #
edge $-1 $401 -50.510435366427274 $405 50.510435366427274 $399 $463 forward 7 unknown #
straight-curve $-1 0 -50.510435366427274 -18.553378369297828 -1 0 0 I I #
vertex $-1 $301 $464 #
straight-curve $-1 0 50.510435366427274 -18.553378369297828 1 0 0 I I #
point $-1 79.561754203924679 50.510435366427274 -18.553378369297828 #
point $-1 79.561754203924679 -50.510435366427274 -18.553378369297828 #
straight-curve $-1 -79.561754203924679 0 18.553378369297828 0 -1 0 I I #
point $-1 -79.561754203924679 50.510435366427274 18.553378369297828 #
point $-1 -79.561754203924679 -50.510435366427274 18.553378369297828 #
straight-curve $-1 79.561754203924679 -50.510435366427274 0 0 0 -1 I I #
straight-curve $-1 79.561754203924679 50.510435366427274 0 0 0 -1 I I #
plane-surface $-1 0 50.510435366427274 0 0 -1 0 0 0 -1 forward_v I I I I #
coedge $-1 $322 $321 $465 $466 forward $135 $-1 #
edge $-1 $325 56.806786160517603 $467 79.561754203924679 $324 $468 forward 7 unknown #
coedge $-1 $330 $329 $322 $418 reversed $331 $-1 #
edge $-1 $469 -79.561754203924679 $419 -56.806786160517603 $417 $470 forward 7 unknown #
vertex $-1 $337 $471 #
straight-curve $-1 -56.806786160517603 0 -18.553378369297828 0 -1 0 I I #
point $-1 -56.806786160517603 -50.510435366427274 -18.553378369297828 #
coedge $-1 $465 $327 $330 $425 forward $319 $-1 #
coedge $-1 $327 $465 $334 $427 reversed $319 $-1 #
straight-curve $-1 -79.561754203924679 0 -14.598095027493788 0 1 0 I I #
edge $-1 $332 14.598095027493788 $469 18.553378369297828 $330 $472 forward 7 unknown #
point $-1 -79.561754203924679 50.510435366427274 -14.598095027493788 #
edge $-1 $335 14.598095027493788 $467 18.553378369297828 $423 $473 forward 7 unknown #
point $-1 -79.561754203924679 -50.510435366427274 -14.598095027493788 #
straight-curve $-1 -56.806786160517603 50.510435366427274 -8.2878683491979039 0 0 -1 I I #
edge $-1 $431 21.510008681827358 $434 30.333923271617621 $341 $474 forward 7 unknown #
vertex $-1 $345 $475 #
straight-curve $-1 3.0652589983931051 -50.510435366427274 70.438025334775787 0 0 1 I I #
edge $-1 $434 -5.220473147697831 $352 9.5309014463072828 $351 $476 forward 7 unknown #
vertex $-1 $433 $477 #
straight-curve $-1 3.0652589983931051 -50.510435366427259 12.142429031190147 0 -0.80901698891910034 -0.5877852598018023 I I #
point $-1 3.0652589983931051 -50.510435366427274 12.142429031190137 #
point $-1 -11.686115595612009 -41.68652077663701 18.553378369297828 #
straight-curve $-1 0 -50.510435366427274 18.553378369297828 1 0 0 I I #
vertex $-1 $358 $478 #
point $-1 -7.7358406768109802 -43.986921368086925 12.441595286301757 #
vertex $-1 $362 $479 #
point $-1 -3.3104282986094375 -43.986921368086925 12.441595286301757 #
vertex $-1 $366 $480 #
point $-1 1.1149840795921051 -43.986921368086925 12.441595286301757 #
coedge $-1 $371 $379 $372 $447 forward $264 $-1 #
edge $-1 $449 -44.462550134875634 $380 -25.735858003222425 $371 $481 forward 7 unknown #
edge $-1 $453 -18.553378369297828 $449 -2.892139481921788 $372 $482 forward 7 unknown #
edge $-1 $377 34.292748115228143 $453 50.510435366427274 $373 $483 forward 7 unknown #
vertex $-1 $446 $484 #
straight-curve $-1 79.561754203924679 1.8305579423303193 49.901751736628171 0 0.71933979245794832 -0.69465837861970381 I I #
point $-1 79.561754203924664 34.292748115228143 18.553378369297825 #
point $-1 60.835062072271455 50.510435366427274 2.892139481921788 #
vertex $-1 $448 $485 #
straight-curve $-1 0 50.510435366427274 18.553378369297828 -1 0 0 I I #
vertex $-1 $386 $486 #
point $-1 65.080400498602117 41.468985254611127 9.7570166602203177 #
vertex $-1 $390 $487 #
point $-1 70.698408138098088 41.468985254611127 9.7570166602203177 #
vertex $-1 $394 $488 #
point $-1 76.316415777594059 41.468985254611127 9.7570166602203177 #
straight-curve $-1 -79.561754203924679 50.510435366427274 0 0 0 -1 I I #
point $-1 -79.561754203924679 -50.510435366427274 -18.553378369297828 #
straight-curve $-1 -79.561754203924679 0 -18.553378369297828 0 1 0 I I #
point $-1 -79.561754203924679 50.510435366427274 -18.553378369297828 #
coedge $-1 $423 $422 $415 $466 reversed $319 $-1 #
edge $-1 $467 -50.510435366427274 $469 50.510435366427274 $465 $489 forward 7 unknown #
vertex $-1 $466 $490 #
straight-curve $-1 0 -50.510435366427274 -18.553378369297828 -1 0 0 I I #
vertex $-1 $418 $491 #
straight-curve $-1 0 50.510435366427274 -18.553378369297828 1 0 0 I I #
point $-1 -56.806786160517603 50.510435366427274 -18.553378369297828 #
straight-curve $-1 -79.561754203924679 50.510435366427274 0 0 0 -1 I I #
straight-curve $-1 -79.561754203924679 -50.510435366427274 0 0 0 -1 I I #
straight-curve $-1 3.0652589983931051 -72.020444048254632 18.553378369297832 0 1 0 I I #
point $-1 3.0652589983931051 -50.510435366427274 18.553378369297828 #
straight-curve $-1 -2.1552141493047259 -41.68652077663701 18.553378369297828 -1 0 0 I I #
point $-1 3.0652589983931051 -41.68652077663701 18.553378369297828 #
point $-1 -8.7358406768109802 -43.39913610828512 11.632578297382656 #
point $-1 -4.3104282986094375 -43.39913610828512 11.632578297382656 #
point $-1 0.1149840795921051 -43.39913610828512 11.632578297382656 #
straight-curve $-1 35.09920406904903 50.510435366427267 2.8921394819217952 -1 0 0 I I #
straight-curve $-1 79.561754203924679 50.510435366427274 0 0 0 -1 I I #
straight-curve $-1 79.561754203924679 0 18.553378369297828 0 1 0 I I #
point $-1 79.561754203924664 50.510435366427274 2.892139481921788 #
point $-1 79.561754203924679 50.510435366427274 18.553378369297828 #
point $-1 64.580400498602117 41.121656065301281 9.3973467639913419 #
point $-1 70.198408138098088 41.121656065301281 9.3973467639913419 #
point $-1 75.816415777594059 41.121656065301281 9.3973467639913419 #
straight-curve $-1 -79.561754203924679 0 -18.553378369297828 0 1 0 I I #
point $-1 -79.561754203924679 -50.510435366427274 -18.553378369297828 #
point $-1 -79.561754203924679 50.510435366427274 -18.553378369297828 #
End-of-ACIS-data 