500 0 9 0           
7 Unknown 11 ACIS 5.0 NT 24 Thu Mar 25 18:11:48 1999 
-1 9.9999999999999995e-007 1e-010 
body $-1 $9 $-1 $10 #
body $-1 $11 $-1 $12 #
body $-1 $13 $-1 $14 #
body $-1 $15 $-1 $16 #
body $-1 $17 $-1 $18 #
body $-1 $19 $-1 $20 #
body $-1 $21 $-1 $22 #
body $-1 $23 $-1 $24 #
body $-1 $25 $-1 $26 #
lump $-1 $-1 $27 $0 #
transform $-1 1 0 0 0 1 0 0 0 1 59.741813409833064 31.838173060372014 11.559762715513958 1 rotate no_reflect no_shear #
lump $-1 $-1 $28 $1 #
transform $-1 1 0 0 0 1 0 0 0 1 59.741813409833064 31.838173060372014 11.559762715513958 1 rotate no_reflect no_shear #
lump $-1 $-1 $29 $2 #
transform $-1 1 0 0 0 1 0 0 0 1 59.741813409833064 31.838173060372014 11.559762715513958 1 rotate no_reflect no_shear #
lump $-1 $-1 $30 $3 #
transform $-1 1 0 0 0 1 0 0 0 1 59.741813409833064 31.838173060372014 11.559762715513958 1 rotate no_reflect no_shear #
lump $-1 $-1 $31 $4 #
transform $-1 1 0 0 0 1 0 0 0 1 59.741813409833064 31.838173060372014 11.559762715513958 1 rotate no_reflect no_shear #
lump $-1 $-1 $32 $5 #
transform $-1 1 0 0 0 1 0 0 0 1 59.741813409833064 31.838173060372014 11.559762715513958 1 rotate no_reflect no_shear #
lump $-1 $-1 $33 $6 #
transform $-1 1 0 0 0 1 0 0 0 1 59.741813409833064 31.838173060372014 11.559762715513958 1 rotate no_reflect no_shear #
lump $-1 $-1 $34 $7 #
transform $-1 1 0 0 0 1 0 0 0 1 59.741813409833064 31.838173060372014 11.559762715513958 1 rotate no_reflect no_shear #
lump $-1 $-1 $35 $8 #
transform $-1 1 0 0 0 1 0 0 0 1 59.741813409833064 31.838173060372014 11.559762715513958 1 rotate no_reflect no_shear #
shell $-1 $-1 $-1 $36 $-1 $9 #
shell $-1 $-1 $-1 $37 $-1 $11 #
shell $-1 $-1 $-1 $38 $-1 $13 #
shell $-1 $-1 $-1 $39 $-1 $15 #
shell $-1 $-1 $-1 $40 $-1 $17 #
shell $-1 $-1 $-1 $41 $-1 $19 #
shell $-1 $-1 $-1 $42 $-1 $21 #
shell $-1 $-1 $-1 $43 $-1 $23 #
shell $-1 $-1 $-1 $44 $-1 $25 #
face $-1 $45 $46 $27 $-1 $47 forward single #
face $-1 $48 $49 $28 $-1 $50 reversed single #
face $-1 $51 $52 $29 $-1 $53 forward single #
face $-1 $54 $55 $30 $-1 $56 reversed single #
face $-1 $57 $58 $31 $-1 $59 forward single #
face $-1 $60 $61 $32 $-1 $62 forward single #
face $-1 $63 $64 $33 $-1 $65 reversed single #
face $-1 $66 $67 $34 $-1 $68 forward single #
face $-1 $69 $70 $35 $-1 $71 forward single #
face $-1 $72 $73 $27 $-1 $74 reversed single #
loop $-1 $-1 $75 $36 #
plane-surface $-1 0 0 11.559762715513958 0 0 1 1 0 0 forward_v I I I I #
face $-1 $76 $77 $28 $-1 $78 reversed single #
loop $-1 $-1 $79 $37 #
plane-surface $-1 -52.920024234997491 -26.595797561355752 0 1 0 0 0 0 -1 forward_v I I I I #
face $-1 $80 $81 $29 $-1 $82 reversed single #
loop $-1 $-1 $83 $38 #
plane-surface $-1 0 31.838173060372014 0 0 -1 0 0 0 -1 forward_v I I I I #
face $-1 $84 $85 $30 $-1 $86 reversed single #
loop $-1 $-1 $87 $39 #
plane-surface $-1 18.86297398167293 -1.2193682044896406 164.38292712638076 0 -1 0 -0.51503808176128008 0 -0.85716729658548041 forward_v I I I I #
face $-1 $88 $89 $31 $-1 $90 forward single #
loop $-1 $91 $92 $40 #
cone-surface $-1 49.248591728118313 -10.651471917324667 3.9477676269324666 -0.51503808176128008 0 -0.85716729658548041 1.2857509448782207 0 -0.77255712264192011 1 I I 0 1 1.5 forward I I I I #
face $-1 $93 $94 $32 $-1 $95 forward single #
loop $-1 $96 $97 $41 #
cone-surface $-1 49.248591728118313 -4.9922096896236496 3.9477676269324666 -0.51503808176128008 0 -0.85716729658548041 1.2857509448782207 0 -0.77255712264192011 1 I I 0 1 1.5 forward I I I I #
face $-1 $98 $99 $33 $-1 $100 reversed single #
loop $-1 $-1 $101 $42 #
plane-surface $-1 -159.94921553124709 -21.353422062339487 71.976912799251807 0 1 0 -0.83867057594974714 0 0.54463902268945019 forward_v I I I I #
face $-1 $102 $103 $34 $-1 $104 forward single #
loop $-1 $105 $106 $43 #
cone-surface $-1 -57.346591631666584 -17.654803417826614 8.6574116954023133 0.83867057594974714 0 -0.54463902268945019 0.54463902268945019 0 0.83867057594974714 1 I I 0 1 1 forward I I I I #
face $-1 $107 $108 $35 $-1 $109 forward single #
loop $-1 $110 $111 $44 #
cone-surface $-1 -57.346591631666584 -12.106875451057306 8.6574116954023133 0.83867057594974714 0 -0.54463902268945019 0.54463902268945019 0 0.83867057594974714 1 I I 0 1 1 forward I I I I #
face $-1 $112 $113 $27 $-1 $114 reversed single #
loop $-1 $-1 $115 $45 #
plane-surface $-1 0 0 -11.559762715513958 0 0 1 1 0 0 forward_v I I I I #
coedge $-1 $116 $117 $118 $119 forward $46 $-1 #
face $-1 $120 $121 $28 $-1 $122 reversed single #
loop $-1 $-1 $123 $48 #
plane-surface $-1 -51.209114440343477 -21.35342206233949 0 0 -1 0 0 0 -1 forward_v I I I I #
coedge $-1 $124 $125 $126 $127 forward $49 $-1 #
face $-1 $128 $129 $29 $-1 $130 forward single #
loop $-1 $-1 $131 $51 #
plane-surface $-1 59.741813409833064 0 0 -1 0 0 0 0 1 forward_v I I I I #
coedge $-1 $132 $133 $134 $135 forward $52 $-1 #
face $-1 $136 $137 $30 $-1 $138 reversed single #
loop $-1 $-1 $139 $54 #
plane-surface $-1 -42.675643977408548 -7.82184080347416 61.965469739139152 0.51503808176128008 0 0.85716729658548041 0.85716729658548041 0 -0.51503808176128008 forward_v I I I I #
coedge $-1 $140 $141 $142 $143 reversed $55 $-1 #
face $-1 $-1 $144 $31 $-1 $145 forward single #
loop $-1 $146 $147 $57 #
cone-surface $-1 47.633228941713476 -10.651471917324667 1.2593525336400084 -0.51503808176128008 0 -0.85716729658548041 0.64287547243911036 0 -0.38627856132096006 1 I I -0.70710678118654757 0.70710678118654757 0.75 forward I I I I #
loop $-1 $-1 $148 $40 #
coedge $-1 $92 $92 $149 $150 reversed $58 $-1 #
face $-1 $-1 $151 $32 $-1 $152 forward single #
loop $-1 $153 $154 $60 #
cone-surface $-1 47.633228941713476 -4.9922096896236496 1.2593525336400084 -0.51503808176128008 0 -0.85716729658548041 0.64287547243911036 0 -0.38627856132096006 1 I I -0.70710678118654757 0.70710678118654757 0.75 forward I I I I #
loop $-1 $-1 $155 $41 #
coedge $-1 $97 $97 $156 $157 reversed $61 $-1 #
face $-1 $158 $159 $33 $-1 $160 reversed single #
loop $-1 $-1 $161 $63 #
plane-surface $-1 -59.741813409833057 -14.88083943444196 6.9014670607978701 -0.83867057594974714 0 0.54463902268945019 0.54463902268945019 0 0.83867057594974714 forward_v I I I I #
coedge $-1 $162 $163 $164 $165 reversed $64 $-1 #
face $-1 $-1 $166 $34 $-1 $167 forward single #
loop $-1 $168 $169 $66 #
cone-surface $-1 -56.04460080162454 -17.654803417826614 7.8118889913039915 0.83867057594974714 0 -0.54463902268945019 0.2723195113447251 0 0.41933528797487357 1 I I -0.70710678118654746 0.70710678118654746 0.5 forward I I I I #
loop $-1 $-1 $170 $43 #
coedge $-1 $106 $106 $171 $172 reversed $67 $-1 #
face $-1 $-1 $173 $35 $-1 $174 forward single #
loop $-1 $175 $176 $69 #
cone-surface $-1 -56.04460080162454 -12.106875451057306 7.8118889913039915 0.83867057594974714 0 -0.54463902268945019 0.2723195113447251 0 0.41933528797487357 1 I I -0.70710678118654746 0.70710678118654746 0.5 forward I I I I #
loop $-1 $-1 $177 $44 #
coedge $-1 $111 $111 $178 $179 reversed $70 $-1 #
face $-1 $180 $181 $27 $-1 $182 reversed single #
loop $-1 $-1 $183 $72 #
plane-surface $-1 0 -31.838173060372014 0 0 1 0 0 0 1 forward_v I I I I #
coedge $-1 $184 $185 $186 $187 forward $73 $-1 #
coedge $-1 $188 $75 $189 $190 forward $46 $-1 #
coedge $-1 $75 $188 $191 $192 forward $46 $-1 #
coedge $-1 $193 $194 $75 $119 reversed $195 $-1 #
edge $-1 $196 -31.838173060372014 $197 31.838173060372014 $118 $198 forward 7 unknown #
face $-1 $199 $200 $28 $-1 $201 forward single #
loop $-1 $-1 $202 $76 #
plane-surface $-1 -49.498204645689462 -26.595797561355752 0 -1 0 0 0 0 1 forward_v I I I I #
coedge $-1 $203 $204 $205 $206 forward $77 $-1 #
coedge $-1 $207 $79 $208 $209 reversed $49 $-1 #
coedge $-1 $79 $207 $210 $211 reversed $49 $-1 #
coedge $-1 $204 $203 $79 $127 reversed $77 $-1 #
edge $-1 $212 -11.559762715513958 $213 11.559762715513958 $126 $214 forward 7 unknown #
face $-1 $215 $216 $29 $-1 $217 reversed single #
loop $-1 $-1 $218 $80 #
plane-surface $-1 0 35.934397398210947 -7.2230965832245557 0 0 1 1 0 0 forward_v I I I I #
coedge $-1 $219 $220 $133 $221 forward $81 $-1 #
coedge $-1 $222 $83 $223 $224 reversed $52 $-1 #
coedge $-1 $83 $222 $131 $221 reversed $52 $-1 #
coedge $-1 $218 $225 $83 $135 reversed $129 $-1 #
edge $-1 $226 -59.741813409833064 $227 59.741813409833064 $134 $228 forward 7 unknown #
face $-1 $229 $230 $30 $-1 $231 forward single #
loop $-1 $-1 $232 $84 #
plane-surface $-1 18.86297398167293 -14.424313402458679 164.38292712638076 0 1 0 0.51503808176128008 0 0.85716729658548041 forward_v I I I I #
coedge $-1 $233 $234 $235 $236 reversed $85 $-1 #
coedge $-1 $141 $87 $237 $238 reversed $55 $-1 #
coedge $-1 $87 $140 $233 $239 reversed $55 $-1 #
coedge $-1 $235 $240 $87 $143 forward $230 $-1 #
edge $-1 $241 -50.310326418996596 $242 -31.782051505734817 $142 $243 forward 7 unknown #
loop $-1 $-1 $149 $88 #
plane-surface $-1 -42.675643977408548 -7.82184080347416 61.965469739139152 0.51503808176128008 0 0.85716729658548041 0.85716729658548041 0 -0.51503808176128008 forward_v I I I I #
loop $-1 $-1 $244 $57 #
coedge $-1 $147 $147 $148 $245 reversed $89 $-1 #
coedge $-1 $148 $148 $147 $245 forward $91 $-1 #
coedge $-1 $149 $149 $92 $150 forward $144 $-1 #
edge $-1 $246 0 $246 6.2831853071796004 $149 $247 forward 7 unknown #
loop $-1 $-1 $156 $93 #
plane-surface $-1 -42.675643977408548 -7.82184080347416 61.965469739139152 0.51503808176128008 0 0.85716729658548041 0.85716729658548041 0 -0.51503808176128008 forward_v I I I I #
loop $-1 $-1 $248 $60 #
coedge $-1 $154 $154 $155 $249 reversed $94 $-1 #
coedge $-1 $155 $155 $154 $249 forward $96 $-1 #
coedge $-1 $156 $156 $97 $157 forward $151 $-1 #
edge $-1 $250 0 $250 6.2831853071796004 $156 $251 forward 7 unknown #
face $-1 $252 $253 $33 $-1 $254 reversed single #
loop $-1 $-1 $255 $98 #
plane-surface $-1 -159.94921553124709 -8.4082568065444327 71.976912799251807 0 -1 0 0.83867057594974714 0 -0.54463902268945019 forward_v I I I I #
coedge $-1 $256 $257 $258 $259 reversed $99 $-1 #
coedge $-1 $163 $101 $260 $261 reversed $64 $-1 #
coedge $-1 $101 $162 $256 $262 reversed $64 $-1 #
coedge $-1 $258 $263 $101 $165 forward $264 $-1 #
edge $-1 $265 20.232794355790482 $266 23.257926827989088 $164 $267 forward 7 unknown #
loop $-1 $-1 $171 $102 #
plane-surface $-1 -59.741813409833057 -14.88083943444196 6.9014670607978701 -0.83867057594974714 0 0.54463902268945019 0.54463902268945019 0 0.83867057594974714 forward_v I I I I #
loop $-1 $-1 $268 $66 #
coedge $-1 $169 $169 $170 $269 reversed $103 $-1 #
coedge $-1 $170 $170 $169 $269 forward $105 $-1 #
coedge $-1 $171 $171 $106 $172 forward $166 $-1 #
edge $-1 $270 0 $270 6.2831853071796004 $171 $271 forward 7 unknown #
loop $-1 $-1 $178 $107 #
plane-surface $-1 -59.741813409833057 -14.88083943444196 6.9014670607978701 -0.83867057594974714 0 0.54463902268945019 0.54463902268945019 0 0.83867057594974714 forward_v I I I I #
loop $-1 $-1 $272 $69 #
coedge $-1 $176 $176 $177 $273 reversed $108 $-1 #
coedge $-1 $177 $177 $176 $273 forward $110 $-1 #
coedge $-1 $178 $178 $111 $179 forward $173 $-1 #
edge $-1 $274 0 $274 6.2831853071796004 $178 $275 forward 7 unknown #
face $-1 $276 $277 $27 $-1 $278 reversed single #
loop $-1 $-1 $279 $112 #
plane-surface $-1 -59.741813409833064 0 0 1 0 0 0 0 -1 forward_v I I I I #
coedge $-1 $280 $191 $281 $282 forward $113 $-1 #
coedge $-1 $283 $115 $280 $284 forward $73 $-1 #
coedge $-1 $115 $283 $285 $286 forward $73 $-1 #
coedge $-1 $194 $193 $115 $187 reversed $195 $-1 #
edge $-1 $287 -31.838173060372014 $288 31.838173060372014 $186 $289 forward 7 unknown #
coedge $-1 $117 $116 $290 $291 forward $46 $-1 #
coedge $-1 $292 $293 $116 $190 reversed $277 $-1 #
edge $-1 $197 -59.741813409833064 $294 59.741813409833064 $189 $295 forward 7 unknown #
coedge $-1 $183 $296 $117 $192 reversed $113 $-1 #
edge $-1 $297 -59.741813409833064 $196 59.741813409833064 $191 $298 forward 7 unknown #
coedge $-1 $186 $118 $296 $299 forward $195 $-1 #
coedge $-1 $118 $186 $292 $300 reversed $195 $-1 #
loop $-1 $-1 $193 $276 #
vertex $-1 $119 $301 #
vertex $-1 $119 $302 #
straight-curve $-1 59.741813409833064 0 11.559762715513958 0 1 0 I I #
face $-1 $303 $304 $28 $-1 $305 reversed single #
loop $-1 $-1 $306 $120 #
plane-surface $-1 0 0 11.559762715513958 0 0 1 1 0 0 forward_v I I I I #
coedge $-1 $307 $308 $309 $310 reversed $121 $-1 #
coedge $-1 $126 $123 $311 $312 reversed $77 $-1 #
coedge $-1 $123 $126 $313 $314 reversed $77 $-1 #
coedge $-1 $308 $307 $123 $206 reversed $121 $-1 #
edge $-1 $315 -11.559762715513958 $316 11.559762715513958 $205 $317 forward 7 unknown #
coedge $-1 $125 $124 $318 $319 reversed $49 $-1 #
coedge $-1 $311 $320 $124 $209 forward $304 $-1 #
edge $-1 $321 -18.540274279694138 $213 -8.055523281661614 $208 $322 forward 7 unknown #
coedge $-1 $323 $313 $125 $211 forward $200 $-1 #
edge $-1 $212 8.055523281661614 $324 18.540274279694138 $210 $325 forward 7 unknown #
vertex $-1 $211 $326 #
vertex $-1 $209 $327 #
straight-curve $-1 -52.920024234997491 -21.35342206233949 0 0 0 -1 I I #
face $-1 $328 $329 $29 $-1 $330 reversed single #
loop $-1 $-1 $331 $128 #
plane-surface $-1 0 40.030621736049881 -9.3914296493692575 0 -1 0 0 0 -1 forward_v I I I I #
coedge $-1 $332 $134 $220 $333 forward $129 $-1 #
coedge $-1 $334 $131 $335 $336 reversed $81 $-1 #
coedge $-1 $131 $334 $218 $333 reversed $81 $-1 #
edge $-1 $226 7.2230965832245557 $337 11.559762715513958 $131 $338 forward 7 unknown #
coedge $-1 $133 $132 $339 $340 reversed $52 $-1 #
coedge $-1 $341 $342 $132 $224 forward $343 $-1 #
edge $-1 $344 -11.559762715513958 $227 -7.2230965832245557 $223 $345 forward 7 unknown #
coedge $-1 $134 $332 $341 $346 forward $129 $-1 #
vertex $-1 $221 $347 #
vertex $-1 $346 $348 #
straight-curve $-1 0 31.838173060372014 -7.2230965832245557 -1 0 0 I I #
face $-1 $-1 $349 $30 $-1 $350 reversed single #
loop $-1 $-1 $142 $136 #
plane-surface $-1 0 0 11.559762715513958 0 0 1 1 0 0 forward_v I I I I #
coedge $-1 $351 $352 $353 $354 reversed $137 $-1 #
coedge $-1 $355 $139 $141 $239 forward $85 $-1 #
coedge $-1 $139 $355 $351 $356 forward $85 $-1 #
coedge $-1 $353 $142 $139 $236 forward $230 $-1 #
edge $-1 $242 -2.6915521972474394 $357 10.513393000721599 $235 $358 forward 7 unknown #
coedge $-1 $359 $360 $140 $238 forward $349 $-1 #
edge $-1 $361 -81.764611783132708 $241 -70.631700847676427 $237 $362 forward 7 unknown #
edge $-1 $242 97.867922409256366 $361 119.48362681966611 $141 $363 forward 7 unknown #
coedge $-1 $142 $353 $359 $364 forward $230 $-1 #
vertex $-1 $238 $365 #
vertex $-1 $143 $366 #
straight-curve $-1 9.4314869908364649 -1.2193682044896406 11.559762715513955 -1 0 0 I I #
coedge $-1 $244 $244 $-1 $367 reversed $146 $-1 #
edge $-1 $368 0 $368 6.2831853071796004 $147 $369 forward 7 unknown #
vertex $-1 $150 $370 #
ellipse-curve $-1 50.477675953202187 -10.651471917324667 5.9933072477858165 0.51503808176128008 0 0.85716729658548041 1.2857509448782207 0 -0.77255712264192011 1 I I #
coedge $-1 $248 $248 $-1 $371 reversed $153 $-1 #
edge $-1 $372 0 $372 6.2831853071796004 $154 $373 forward 7 unknown #
vertex $-1 $157 $374 #
ellipse-curve $-1 50.477675953202187 -4.9922096896236496 5.9933072477858165 0.51503808176128008 0 0.85716729658548041 1.2857509448782207 0 -0.77255712264192011 1 I I #
face $-1 $-1 $264 $33 $-1 $375 forward single #
loop $-1 $-1 $376 $158 #
plane-surface $-1 -59.741813409833064 0 0 1 0 0 0 0 -1 forward_v I I I I #
coedge $-1 $377 $378 $379 $380 reversed $159 $-1 #
coedge $-1 $381 $161 $163 $262 forward $99 $-1 #
coedge $-1 $161 $381 $377 $382 forward $99 $-1 #
coedge $-1 $379 $164 $161 $259 forward $264 $-1 #
edge $-1 $266 -13.913002345118507 $383 -0.96783708932345291 $258 $384 forward 7 unknown #
coedge $-1 $385 $386 $162 $261 forward $253 $-1 #
edge $-1 $387 -29.086989338828044 $265 -24.428693684111945 $260 $388 forward 7 unknown #
edge $-1 $266 -5.5543806928493122 $387 1.2808562293387176e-014 $163 $389 forward 7 unknown #
coedge $-1 $164 $379 $385 $390 forward $264 $-1 #
loop $-1 $-1 $379 $252 #
vertex $-1 $261 $391 #
vertex $-1 $165 $392 #
straight-curve $-1 -79.974607765623546 -21.353422062339487 11.559762715513958 1 0 0 I I #
coedge $-1 $268 $268 $-1 $393 reversed $168 $-1 #
edge $-1 $394 0 $394 6.2831853071796004 $169 $395 forward 7 unknown #
vertex $-1 $172 $396 #
ellipse-curve $-1 -58.229247173733761 -17.654803417826614 9.2306148881559107 -0.83867057594974714 0 0.54463902268945019 0.54463902268945019 0 0.83867057594974714 1 I I #
coedge $-1 $272 $272 $-1 $397 reversed $175 $-1 #
edge $-1 $398 0 $398 6.2831853071796004 $176 $399 forward 7 unknown #
vertex $-1 $179 $400 #
ellipse-curve $-1 -58.229247173733761 -12.106875451057306 9.2306148881559107 -0.83867057594974714 0 0.54463902268945019 0.54463902268945019 0 0.83867057594974714 1 I I #
face $-1 $-1 $195 $27 $-1 $401 reversed single #
loop $-1 $-1 $293 $180 #
plane-surface $-1 0 31.838173060372014 0 0 -1 0 0 0 -1 forward_v I I I I #
coedge $-1 $402 $290 $293 $403 forward $181 $-1 #
coedge $-1 $296 $183 $184 $284 reversed $113 $-1 #
coedge $-1 $290 $402 $183 $282 reversed $181 $-1 #
edge $-1 $297 -11.559762715513958 $404 11.559762715513958 $281 $405 forward 7 unknown #
coedge $-1 $185 $184 $402 $406 forward $73 $-1 #
edge $-1 $288 -59.741813409833064 $404 59.741813409833064 $280 $407 forward 7 unknown #
coedge $-1 $293 $292 $185 $286 reversed $277 $-1 #
edge $-1 $408 -59.741813409833064 $287 59.741813409833064 $285 $409 forward 7 unknown #
vertex $-1 $187 $410 #
vertex $-1 $299 $411 #
straight-curve $-1 59.741813409833064 0 -11.559762715513958 0 -1 0 I I #
coedge $-1 $279 $281 $188 $291 reversed $181 $-1 #
edge $-1 $294 -31.838173060372014 $297 31.838173060372014 $290 $412 forward 7 unknown #
coedge $-1 $285 $189 $194 $300 forward $277 $-1 #
coedge $-1 $189 $285 $279 $403 reversed $277 $-1 #
vertex $-1 $190 $413 #
straight-curve $-1 0 31.838173060372014 11.559762715513958 -1 0 0 I I #
coedge $-1 $191 $280 $193 $299 reversed $113 $-1 #
vertex $-1 $291 $414 #
straight-curve $-1 0 -31.838173060372014 11.559762715513958 1 0 0 I I #
edge $-1 $196 -11.559762715513958 $288 11.559762715513958 $193 $415 forward 7 unknown #
edge $-1 $197 -11.559762715513958 $287 11.559762715513958 $194 $416 forward 7 unknown #
point $-1 59.741813409833064 -31.838173060372014 11.559762715513958 #
point $-1 59.741813409833064 31.838173060372014 11.559762715513958 #
face $-1 $-1 $417 $28 $-1 $418 reversed single #
loop $-1 $-1 $419 $199 #
plane-surface $-1 0 0 -11.559762715513958 0 0 1 1 0 0 forward_v I I I I #
coedge $-1 $313 $323 $308 $420 forward $200 $-1 #
coedge $-1 $205 $202 $419 $421 reversed $121 $-1 #
coedge $-1 $202 $205 $306 $420 reversed $121 $-1 #
coedge $-1 $422 $423 $202 $310 forward $417 $-1 #
edge $-1 $424 -11.559762715513958 $425 11.559762715513958 $309 $426 forward 7 unknown #
coedge $-1 $419 $208 $203 $312 forward $304 $-1 #
edge $-1 $213 -27.315467014825753 $316 -23.893647425517724 $311 $427 forward 7 unknown #
coedge $-1 $210 $306 $204 $314 forward $200 $-1 #
edge $-1 $315 23.893647425517724 $212 27.315467014825753 $313 $428 forward 7 unknown #
vertex $-1 $314 $429 #
vertex $-1 $312 $430 #
straight-curve $-1 -49.498204645689462 -21.35342206233949 0 0 0 -1 I I #
coedge $-1 $423 $422 $207 $319 forward $417 $-1 #
edge $-1 $324 -11.559762715513958 $321 11.559762715513958 $318 $431 forward 7 unknown #
coedge $-1 $208 $419 $423 $432 forward $304 $-1 #
vertex $-1 $209 $433 #
straight-curve $-1 -52.920024234997491 -13.297898780677876 -11.559762715513958 0 1 0 I I #
coedge $-1 $306 $210 $422 $434 forward $200 $-1 #
vertex $-1 $434 $435 #
straight-curve $-1 -52.920024234997491 -13.297898780677876 11.559762715513958 0 -1 0 I I #
point $-1 -52.920024234997491 -21.35342206233949 11.559762715513958 #
point $-1 -52.920024234997491 -21.35342206233949 -11.559762715513958 #
face $-1 $-1 $343 $29 $-1 $436 reversed single #
loop $-1 $-1 $339 $215 #
plane-surface $-1 0 0 -11.559762715513958 0 0 1 1 0 0 forward_v I I I I #
coedge $-1 $437 $438 $334 $439 forward $216 $-1 #
coedge $-1 $225 $218 $438 $440 forward $129 $-1 #
edge $-1 $226 -4.0962243378389331 $441 4.0962243378389331 $220 $442 forward 7 unknown #
coedge $-1 $220 $219 $331 $439 reversed $81 $-1 #
coedge $-1 $339 $443 $219 $336 forward $329 $-1 #
edge $-1 $444 -40.030621736049881 $337 -31.838173060372014 $219 $445 forward 7 unknown #
vertex $-1 $221 $446 #
straight-curve $-1 59.741813409833064 31.838173060372014 0 0 0 -1 I I #
coedge $-1 $447 $335 $222 $340 forward $329 $-1 #
edge $-1 $337 -59.741813409833064 $344 59.741813409833064 $339 $448 forward 7 unknown #
coedge $-1 $449 $223 $225 $346 reversed $343 $-1 #
coedge $-1 $223 $449 $447 $450 reversed $343 $-1 #
loop $-1 $-1 $223 $328 #
vertex $-1 $450 $451 #
straight-curve $-1 -59.741813409833064 31.838173060372014 0 0 0 1 I I #
edge $-1 $452 -4.0962243378389331 $227 4.0962243378389331 $341 $453 forward 7 unknown #
point $-1 59.741813409833064 31.838173060372014 -7.2230965832245557 #
point $-1 -59.741813409833064 31.838173060372014 -7.2230965832245557 #
loop $-1 $-1 $237 $229 #
plane-surface $-1 59.741813409833064 0 0 -1 0 0 0 0 1 forward_v I I I I #
coedge $-1 $352 $232 $234 $356 reversed $137 $-1 #
coedge $-1 $232 $351 $454 $455 reversed $137 $-1 #
coedge $-1 $240 $235 $232 $354 forward $230 $-1 #
edge $-1 $357 31.782051505734817 $456 50.310326418996596 $353 $457 forward 7 unknown #
coedge $-1 $234 $233 $360 $458 reversed $85 $-1 #
edge $-1 $459 -119.48362681966611 $357 -97.867922409256366 $351 $460 forward 7 unknown #
vertex $-1 $236 $461 #
straight-curve $-1 41.213538496571282 -3.91092040173708 11.559762715513962 0 -1 0 I I #
coedge $-1 $454 $237 $240 $364 reversed $349 $-1 #
coedge $-1 $237 $454 $355 $458 forward $349 $-1 #
vertex $-1 $238 $462 #
straight-curve $-1 59.741813409833064 -1.2193682044896406 82.191463563190382 0 0 1 I I #
straight-curve $-1 -42.675643977408548 -1.2193682044896406 61.965469739139152 0.85716729658548041 0 -0.51503808176128008 I I #
edge $-1 $456 -14.424313402458679 $241 -1.2193682044896406 $359 $463 forward 7 unknown #
point $-1 59.741813409833064 -1.2193682044896406 11.559762715513958 #
point $-1 41.213538496571282 -1.2193682044896406 11.559762715513955 #
edge $-1 $464 1 $464 0 $244 $-1 forward 7 unknown #
vertex $-1 $245 $465 #
ellipse-curve $-1 48.019507503034433 -10.651471917324667 1.9022280060791188 0.51503808176128008 0 0.85716729658548041 1.2857509448782207 0 -0.77255712264192011 1 I I #
point $-1 51.763426898080404 -10.651471917324667 5.2207501251438941 #
edge $-1 $466 1 $466 0 $248 $-1 forward 7 unknown #
vertex $-1 $249 $467 #
ellipse-curve $-1 48.019507503034433 -4.9922096896236496 1.9022280060791188 0.51503808176128008 0 0.85716729658548041 1.2857509448782207 0 -0.77255712264192011 1 I I #
point $-1 51.763426898080404 -4.9922096896236496 5.2207501251438941 #
plane-surface $-1 0 0 11.559762715513958 0 0 1 1 0 0 forward_v I I I I #
coedge $-1 $386 $385 $378 $468 forward $253 $-1 #
coedge $-1 $378 $255 $257 $382 reversed $159 $-1 #
coedge $-1 $255 $377 $376 $468 reversed $159 $-1 #
coedge $-1 $263 $258 $255 $380 forward $264 $-1 #
edge $-1 $383 -23.257926827989088 $469 -20.232794355790482 $379 $470 forward 7 unknown #
coedge $-1 $257 $256 $386 $471 reversed $99 $-1 #
edge $-1 $472 -1.2808562293387176e-014 $383 5.5543806928493122 $377 $473 forward 7 unknown #
vertex $-1 $259 $474 #
straight-curve $-1 -56.716680937634464 -7.4404197172209798 11.559762715513957 0 1 0 I I #
coedge $-1 $376 $260 $263 $390 reversed $253 $-1 #
coedge $-1 $260 $376 $381 $471 forward $253 $-1 #
vertex $-1 $261 $475 #
straight-curve $-1 -59.741813409833064 -21.353422062339487 35.988456399625903 0 0 1 I I #
straight-curve $-1 -59.741813409833057 -21.353422062339487 6.9014670607978701 -0.54463902268945019 0 -0.83867057594974714 I I #
edge $-1 $469 8.4082568065444327 $265 21.353422062339487 $385 $476 forward 7 unknown #
point $-1 -59.741813409833064 -21.353422062339487 11.559762715513958 #
point $-1 -56.716680937634457 -21.353422062339487 11.559762715513958 #
edge $-1 $477 1 $477 0 $268 $-1 forward 7 unknown #
vertex $-1 $269 $478 #
ellipse-curve $-1 -56.463936089599414 -17.654803417826614 8.0842085026487158 -0.83867057594974714 0 0.54463902268945019 0.54463902268945019 0 0.83867057594974714 1 I I #
point $-1 -57.684608151044308 -17.654803417826614 10.069285464105654 #
edge $-1 $479 1 $479 0 $272 $-1 forward 7 unknown #
vertex $-1 $273 $480 #
ellipse-curve $-1 -56.463936089599414 -12.106875451057306 8.0842085026487158 -0.83867057594974714 0 0.54463902268945019 0.54463902268945019 0 0.83867057594974714 1 I I #
point $-1 -57.684608151044308 -12.106875451057306 10.069285464105654 #
plane-surface $-1 59.741813409833064 0 0 -1 0 0 0 0 1 forward_v I I I I #
coedge $-1 $281 $279 $283 $406 reversed $181 $-1 #
edge $-1 $294 -11.559762715513958 $408 11.559762715513958 $293 $481 forward 7 unknown #
vertex $-1 $406 $482 #
straight-curve $-1 -59.741813409833064 -31.838173060372014 0 0 0 -1 I I #
edge $-1 $404 -31.838173060372014 $408 31.838173060372014 $402 $483 forward 7 unknown #
straight-curve $-1 0 -31.838173060372014 -11.559762715513958 -1 0 0 I I #
vertex $-1 $286 $484 #
straight-curve $-1 0 31.838173060372014 -11.559762715513958 1 0 0 I I #
point $-1 59.741813409833064 31.838173060372014 -11.559762715513958 #
point $-1 59.741813409833064 -31.838173060372014 -11.559762715513958 #
straight-curve $-1 -59.741813409833064 0 11.559762715513958 0 -1 0 I I #
point $-1 -59.741813409833064 31.838173060372014 11.559762715513958 #
point $-1 -59.741813409833064 -31.838173060372014 11.559762715513958 #
straight-curve $-1 59.741813409833064 -31.838173060372014 0 0 0 -1 I I #
straight-curve $-1 59.741813409833064 31.838173060372014 0 0 0 -1 I I #
loop $-1 $-1 $309 $303 #
plane-surface $-1 0 -31.838173060372014 0 0 1 0 0 0 1 forward_v I I I I #
coedge $-1 $320 $311 $307 $421 forward $304 $-1 #
edge $-1 $425 -18.540274279694138 $315 -8.055523281661614 $306 $485 forward 7 unknown #
edge $-1 $316 8.055523281661614 $424 18.540274279694138 $419 $486 forward 7 unknown #
coedge $-1 $318 $309 $323 $434 reversed $417 $-1 #
coedge $-1 $309 $318 $320 $432 reversed $417 $-1 #
vertex $-1 $432 $487 #
vertex $-1 $310 $488 #
straight-curve $-1 -49.498204645689462 -31.838173060372014 0 0 0 1 I I #
straight-curve $-1 -25.604557220171738 -21.35342206233949 -11.559762715513958 1 0 0 I I #
straight-curve $-1 -25.604557220171738 -21.35342206233949 11.559762715513958 -1 0 0 I I #
point $-1 -49.498204645689462 -21.35342206233949 11.559762715513958 #
point $-1 -49.498204645689462 -21.35342206233949 -11.559762715513958 #
straight-curve $-1 -52.920024234997491 -31.838173060372014 0 0 0 -1 I I #
edge $-1 $424 49.498204645689462 $321 52.920024234997491 $423 $489 forward 7 unknown #
point $-1 -52.920024234997491 -31.838173060372014 -11.559762715513958 #
edge $-1 $324 -52.920024234997491 $425 -49.498204645689462 $422 $490 forward 7 unknown #
point $-1 -52.920024234997491 -31.838173060372014 11.559762715513958 #
plane-surface $-1 -59.741813409833064 0 0 1 0 0 0 0 -1 forward_v I I I I #
coedge $-1 $491 $331 $443 $492 reversed $216 $-1 #
coedge $-1 $331 $491 $332 $440 reversed $216 $-1 #
edge $-1 $441 -2.1683330661447018 $444 2.1683330661447009 $334 $493 forward 7 unknown #
edge $-1 $441 -59.741813409833064 $452 59.741813409833064 $438 $494 forward 7 unknown #
vertex $-1 $333 $495 #
straight-curve $-1 59.741813409833064 35.934397398210947 -7.2230965832245557 0 1 0 I I #
coedge $-1 $335 $447 $437 $492 forward $329 $-1 #
vertex $-1 $336 $496 #
straight-curve $-1 59.741813409833064 0 -11.559762715513958 0 -1 0 I I #
point $-1 59.741813409833064 31.838173060372014 -11.559762715513958 #
coedge $-1 $443 $339 $342 $450 forward $329 $-1 #
straight-curve $-1 0 31.838173060372014 -11.559762715513958 -1 0 0 I I #
coedge $-1 $342 $341 $491 $497 forward $343 $-1 #
edge $-1 $344 -4.0962243378389331 $498 4.0962243378389331 $342 $499 forward 7 unknown #
point $-1 -59.741813409833064 31.838173060372014 -11.559762715513958 #
vertex $-1 $440 $500 #
straight-curve $-1 -59.741813409833064 35.934397398210947 -7.2230965832245557 0 -1 0 I I #
coedge $-1 $360 $359 $352 $455 forward $349 $-1 #
edge $-1 $456 70.631700847676427 $459 81.764611783132708 $454 $501 forward 7 unknown #
vertex $-1 $364 $502 #
straight-curve $-1 9.4314869908364649 -14.424313402458679 11.559762715513955 1 0 0 I I #
edge $-1 $459 -10.513393000721599 $361 2.6915521972474394 $360 $503 forward 7 unknown #
vertex $-1 $458 $504 #
straight-curve $-1 -42.675643977408548 -14.424313402458679 61.965469739139152 -0.85716729658548041 0 0.51503808176128008 I I #
point $-1 41.213538496571282 -14.424313402458679 11.559762715513955 #
point $-1 59.741813409833064 -1.2193682044896406 0.42685178005767455 #
straight-curve $-1 59.741813409833064 0 11.559762715513958 0 1 0 I I #
vertex $-1 $367 $505 #
point $-1 49.305258447912657 -10.651471917324667 1.1296708834371987 #
vertex $-1 $371 $506 #
point $-1 49.305258447912657 -4.9922096896236496 1.1296708834371987 #
edge $-1 $469 24.428693684111945 $472 29.086989338828044 $376 $507 forward 7 unknown #
vertex $-1 $390 $508 #
straight-curve $-1 -79.974607765623546 -8.4082568065444327 11.559762715513958 -1 0 0 I I #
edge $-1 $472 0.96783708932345291 $387 13.913002345118507 $386 $509 forward 7 unknown #
vertex $-1 $471 $510 #
straight-curve $-1 -59.741813409833057 -8.4082568065444327 6.9014670607978701 0.54463902268945019 0 0.83867057594974714 I I #
point $-1 -56.716680937634457 -8.4082568065444327 11.559762715513958 #
point $-1 -59.741813409833064 -21.353422062339487 6.9014670607978594 #
straight-curve $-1 -59.741813409833064 0 11.559762715513958 0 -1 0 I I #
vertex $-1 $393 $511 #
point $-1 -55.919297066909962 -17.654803417826614 8.9228790785984629 #
vertex $-1 $397 $512 #
point $-1 -55.919297066909962 -12.106875451057306 8.9228790785984629 #
straight-curve $-1 -59.741813409833064 31.838173060372014 0 0 0 -1 I I #
point $-1 -59.741813409833064 -31.838173060372014 -11.559762715513958 #
straight-curve $-1 -59.741813409833064 0 -11.559762715513958 0 1 0 I I #
point $-1 -59.741813409833064 31.838173060372014 -11.559762715513958 #
straight-curve $-1 -49.498204645689462 -13.297898780677876 11.559762715513958 0 1 0 I I #
straight-curve $-1 -49.498204645689462 -13.297898780677876 -11.559762715513958 0 -1 0 I I #
point $-1 -49.498204645689462 -31.838173060372014 -11.559762715513958 #
point $-1 -49.498204645689462 -31.838173060372014 11.559762715513958 #
straight-curve $-1 0 -31.838173060372014 -11.559762715513958 -1 0 0 I I #
straight-curve $-1 0 -31.838173060372014 11.559762715513958 1 0 0 I I #
coedge $-1 $438 $437 $449 $497 reversed $216 $-1 #
edge $-1 $498 -59.741813409833064 $444 59.741813409833064 $437 $513 forward 7 unknown #
straight-curve $-1 59.741813409833064 40.030621736049881 -9.3914296493692575 0 0 -1 I I #
straight-curve $-1 0 40.030621736049881 -7.2230965832245557 -1 0 0 I I #
point $-1 59.741813409833064 40.030621736049881 -7.2230965832245557 #
point $-1 59.741813409833064 40.030621736049881 -11.559762715513958 #
edge $-1 $452 -2.1683330661447018 $498 2.1683330661447009 $491 $514 forward 7 unknown #
vertex $-1 $492 $515 #
straight-curve $-1 -59.741813409833064 35.934397398210947 -11.559762715513958 0 1 0 I I #
point $-1 -59.741813409833064 40.030621736049881 -7.2230965832245557 #
straight-curve $-1 59.741813409833064 -14.424313402458679 82.191463563190382 0 0 -1 I I #
point $-1 59.741813409833064 -14.424313402458679 11.559762715513958 #
straight-curve $-1 59.741813409833057 -3.91092040173708 0.4268517800576781 0 1 0 I I #
point $-1 59.741813409833064 -14.424313402458679 0.42685178005767455 #
point $-1 47.246950380392519 -10.651471917324667 0.61647706120089807 #
point $-1 47.246950380392519 -4.9922096896236496 0.61647706120089807 #
straight-curve $-1 -59.741813409833064 -8.4082568065444327 35.988456399625903 0 0 -1 I I #
point $-1 -59.741813409833064 -8.4082568065444327 11.559762715513958 #
straight-curve $-1 -59.741813409833064 -7.4404197172209798 6.9014670607978541 0 -1 0 I I #
point $-1 -59.741813409833064 -8.4082568065444327 6.9014670607978594 #
point $-1 -55.625265513649666 -17.654803417826614 7.5395694799592663 #
point $-1 -55.625265513649666 -12.106875451057306 7.5395694799592663 #
straight-curve $-1 0 40.030621736049881 -11.559762715513958 1 0 0 I I #
straight-curve $-1 -59.741813409833064 40.030621736049881 -9.3914296493692575 0 0 -1 I I #
point $-1 -59.741813409833064 40.030621736049881 -11.559762715513958 #
End-of-ACIS-data 