500 0 8 0           
7 Unknown 11 ACIS 5.0 NT 24 Fri Mar 26 18:40:46 1999 
-1 9.9999999999999995e-007 1e-010 
body $-1 $8 $-1 $9 #
body $-1 $10 $-1 $11 #
body $-1 $12 $-1 $13 #
body $-1 $14 $-1 $15 #
body $-1 $16 $-1 $17 #
body $-1 $18 $-1 $19 #
body $-1 $20 $-1 $21 #
body $-1 $22 $-1 $23 #
lump $-1 $-1 $24 $0 #
transform $-1 1 0 0 0 1 0 0 0 1 58.455153050325023 31.845008714726305 14.915169186831404 1 rotate no_reflect no_shear #
lump $-1 $-1 $25 $1 #
transform $-1 1 0 0 0 1 0 0 0 1 58.455153050325023 31.845008714726305 14.915169186831404 1 rotate no_reflect no_shear #
lump $-1 $-1 $26 $2 #
transform $-1 1 0 0 0 1 0 0 0 1 58.455153050325023 31.845008714726305 14.915169186831404 1 rotate no_reflect no_shear #
lump $-1 $-1 $27 $3 #
transform $-1 1 0 0 0 1 0 0 0 1 58.455153050325023 31.845008714726305 14.915169186831404 1 rotate no_reflect no_shear #
lump $-1 $-1 $28 $4 #
transform $-1 1 0 0 0 1 0 0 0 1 58.455153050325023 31.845008714726305 14.915169186831404 1 rotate no_reflect no_shear #
lump $-1 $-1 $29 $5 #
transform $-1 1 0 0 0 1 0 0 0 1 58.455153050325023 31.845008714726305 14.915169186831404 1 rotate no_reflect no_shear #
lump $-1 $-1 $30 $6 #
transform $-1 1 0 0 0 1 0 0 0 1 58.455153050325023 31.845008714726305 14.915169186831404 1 rotate no_reflect no_shear #
lump $-1 $-1 $31 $7 #
transform $-1 1 0 0 0 1 0 0 0 1 58.455153050325023 31.845008714726305 14.915169186831404 1 rotate no_reflect no_shear #
shell $-1 $-1 $-1 $32 $-1 $8 #
shell $-1 $-1 $-1 $33 $-1 $10 #
shell $-1 $-1 $-1 $34 $-1 $12 #
shell $-1 $-1 $-1 $35 $-1 $14 #
shell $-1 $-1 $-1 $36 $-1 $16 #
shell $-1 $-1 $-1 $37 $-1 $18 #
shell $-1 $-1 $-1 $38 $-1 $20 #
shell $-1 $-1 $-1 $39 $-1 $22 #
face $-1 $40 $41 $24 $-1 $42 forward single #
face $-1 $43 $44 $25 $-1 $45 reversed single #
face $-1 $46 $47 $26 $-1 $48 reversed single #
face $-1 $49 $50 $27 $-1 $51 forward single #
face $-1 $52 $53 $28 $-1 $54 forward single #
face $-1 $55 $56 $29 $-1 $57 reversed single #
face $-1 $58 $59 $30 $-1 $60 forward single #
face $-1 $61 $62 $31 $-1 $63 forward single #
face $-1 $64 $65 $24 $-1 $66 reversed single #
loop $-1 $-1 $67 $32 #
plane-surface $-1 0 0 14.915169186831404 0 0 1 1 0 0 forward_v I I I I #
face $-1 $68 $69 $25 $-1 $70 reversed single #
loop $-1 $-1 $71 $33 #
plane-surface $-1 -49.371365744266051 -7.634339390618937 0 0 1 0 0 0 1 forward_v I I I I #
face $-1 $72 $73 $26 $-1 $74 reversed single #
loop $-1 $-1 $75 $34 #
plane-surface $-1 34.734537464156617 58.204122332773466 137.70849055435536 1 0 0 0 -0.64278761758704617 -0.76604443648966558 forward_v I I I I #
face $-1 $76 $77 $27 $-1 $78 forward single #
loop $-1 $79 $80 $35 #
cone-surface $-1 41.511856203061882 24.436529866139121 7.705061243941719 0 -0.64278761758704617 -0.76604443648966558 2.5 0 0 1 I I 0 1 2.5 forward I I I I #
face $-1 $81 $82 $28 $-1 $83 forward single #
loop $-1 $84 $85 $36 #
cone-surface $-1 51.677834311419772 24.436529866139121 7.705061243941719 0 -0.64278761758704617 -0.76604443648966558 2.5 0 0 1 I I 0 1 2.5 forward I I I I #
face $-1 $86 $87 $29 $-1 $88 reversed single #
loop $-1 $-1 $89 $37 #
plane-surface $-1 43.981554545645153 -31.845008714726305 7.3133909935469461 0 -0.75470958851134928 0.65605901945558964 1 0 0 forward_v I I I I #
face $-1 $90 $91 $30 $-1 $92 forward single #
loop $-1 $93 $94 $38 #
cone-surface $-1 37.778583757925219 -27.637181180098665 10.328649064007104 0 0.75470958851134928 -0.65605901945558964 1.5 0 0 1 I I 0 1 1.5 forward I I I I #
face $-1 $95 $96 $31 $-1 $97 forward single #
loop $-1 $98 $99 $39 #
cone-surface $-1 50.184525333365102 -27.637181180098665 10.328649064007104 0 0.75470958851134928 -0.65605901945558964 1.5 0 0 1 I I 0 1 1.5 forward I I I I #
face $-1 $100 $101 $24 $-1 $102 reversed single #
loop $-1 $-1 $103 $40 #
plane-surface $-1 0 0 -14.915169186831404 0 0 1 1 0 0 forward_v I I I I #
coedge $-1 $104 $105 $106 $107 forward $41 $-1 #
face $-1 $108 $109 $25 $-1 $110 reversed single #
loop $-1 $-1 $111 $43 #
plane-surface $-1 -49.371365744266051 -2.0146703410634963 0 0 -1 0 0 0 -1 forward_v I I I I #
coedge $-1 $112 $113 $114 $115 reversed $44 $-1 #
face $-1 $116 $117 $26 $-1 $118 forward single #
loop $-1 $-1 $119 $46 #
plane-surface $-1 46.59484525724082 -16.944374797035692 48.15000099764859 0 0.64278761758704617 0.76604443648966558 1 0 0 forward_v I I I I #
coedge $-1 $120 $121 $122 $123 reversed $47 $-1 #
face $-1 $-1 $124 $27 $-1 $125 forward single #
loop $-1 $126 $127 $49 #
cone-surface $-1 41.511856203061882 20.815393561337437 3.3895591338090068 0 -0.64278761758704617 -0.76604443648966558 1.25 0 0 1 I I -0.70710678118654746 0.70710678118654746 1.25 forward I I I I #
loop $-1 $-1 $128 $35 #
coedge $-1 $80 $80 $129 $130 reversed $50 $-1 #
face $-1 $-1 $131 $28 $-1 $132 forward single #
loop $-1 $133 $134 $52 #
cone-surface $-1 51.677834311419772 20.815393561337437 3.3895591338090068 0 -0.64278761758704617 -0.76604443648966558 1.25 0 0 1 I I -0.70710678118654746 0.70710678118654746 1.25 forward I I I I #
loop $-1 $-1 $135 $36 #
coedge $-1 $85 $85 $136 $137 reversed $53 $-1 #
face $-1 $138 $139 $29 $-1 $140 reversed single #
loop $-1 $-1 $141 $55 #
plane-surface $-1 29.50795604096529 -120.07833772468378 84.013451778192248 1 0 0 0 0.75470958851134928 -0.65605901945558964 forward_v I I I I #
coedge $-1 $142 $143 $144 $145 reversed $56 $-1 #
face $-1 $-1 $146 $30 $-1 $147 forward single #
loop $-1 $148 $149 $58 #
cone-surface $-1 37.778583757925219 -26.167383853402107 9.0509737732333324 0 0.75470958851134928 -0.65605901945558964 0.75 0 0 1 I I -0.70710678118654757 0.70710678118654757 0.75 forward I I I I #
loop $-1 $-1 $150 $38 #
coedge $-1 $94 $94 $151 $152 reversed $59 $-1 #
face $-1 $-1 $153 $31 $-1 $154 forward single #
loop $-1 $155 $156 $61 #
cone-surface $-1 50.184525333365102 -26.167383853402107 9.0509737732333324 0 0.75470958851134928 -0.65605901945558964 0.75 0 0 1 I I -0.70710678118654757 0.70710678118654757 0.75 forward I I I I #
loop $-1 $-1 $157 $39 #
coedge $-1 $99 $99 $158 $159 reversed $62 $-1 #
face $-1 $160 $161 $24 $-1 $162 reversed single #
loop $-1 $-1 $163 $64 #
plane-surface $-1 0 -31.845008714726305 0 0 1 0 0 0 1 forward_v I I I I #
coedge $-1 $164 $165 $166 $167 forward $65 $-1 #
coedge $-1 $168 $67 $169 $170 forward $41 $-1 #
coedge $-1 $67 $168 $171 $172 forward $41 $-1 #
coedge $-1 $173 $174 $67 $107 reversed $175 $-1 #
edge $-1 $176 -31.845008714726305 $177 31.845008714726305 $106 $178 forward 7 unknown #
face $-1 $179 $180 $25 $-1 $181 reversed single #
loop $-1 $-1 $182 $68 #
plane-surface $-1 -40.287578438207078 -4.8245048658412166 0 -1 0 0 0 0 1 forward_v I I I I #
coedge $-1 $183 $184 $185 $186 forward $69 $-1 #
coedge $-1 $187 $71 $188 $189 reversed $44 $-1 #
coedge $-1 $71 $187 $190 $191 reversed $44 $-1 #
coedge $-1 $192 $193 $71 $115 forward $194 $-1 #
edge $-1 $195 -14.915169186831404 $196 14.915169186831404 $114 $197 forward 7 unknown #
face $-1 $198 $199 $26 $-1 $200 reversed single #
loop $-1 $-1 $122 $72 #
plane-surface $-1 0 0 14.915169186831404 0 0 1 1 0 0 forward_v I I I I #
coedge $-1 $201 $202 $203 $204 reversed $73 $-1 #
coedge $-1 $121 $75 $205 $206 reversed $47 $-1 #
coedge $-1 $75 $120 $201 $207 reversed $47 $-1 #
coedge $-1 $203 $208 $75 $123 forward $117 $-1 #
edge $-1 $209 -2.742947548339572 $210 6.4387065831990142 $122 $211 forward 7 unknown #
loop $-1 $-1 $129 $76 #
plane-surface $-1 46.59484525724082 -16.944374797035692 48.15000099764859 0 0.64278761758704617 0.76604443648966558 1 0 0 forward_v I I I I #
loop $-1 $-1 $212 $49 #
coedge $-1 $127 $127 $128 $213 reversed $77 $-1 #
coedge $-1 $128 $128 $127 $213 forward $79 $-1 #
coedge $-1 $129 $129 $80 $130 forward $124 $-1 #
edge $-1 $214 1.1950257423307416e-015 $214 6.2831853071796013 $129 $215 forward 7 unknown #
loop $-1 $-1 $136 $81 #
plane-surface $-1 46.59484525724082 -16.944374797035692 48.15000099764859 0 0.64278761758704617 0.76604443648966558 1 0 0 forward_v I I I I #
loop $-1 $-1 $216 $52 #
coedge $-1 $134 $134 $135 $217 reversed $82 $-1 #
coedge $-1 $135 $135 $134 $217 forward $84 $-1 #
coedge $-1 $136 $136 $85 $137 forward $131 $-1 #
edge $-1 $218 1.1950257423307416e-015 $218 6.2831853071796013 $136 $219 forward 7 unknown #
face $-1 $220 $221 $29 $-1 $222 forward single #
loop $-1 $-1 $223 $86 #
plane-surface $-1 58.455153050325023 0 0 -1 0 0 0 0 1 forward_v I I I I #
coedge $-1 $224 $225 $226 $227 reversed $87 $-1 #
coedge $-1 $228 $89 $223 $229 reversed $56 $-1 #
coedge $-1 $89 $228 $224 $230 forward $56 $-1 #
coedge $-1 $226 $231 $89 $145 forward $221 $-1 #
edge $-1 $232 -36.46437577750244 $233 -7.5171787681427134 $144 $234 forward 7 unknown #
loop $-1 $-1 $151 $90 #
plane-surface $-1 43.981554545645153 -31.845008714726305 7.3133909935469461 0 -0.75470958851134928 0.65605901945558964 1 0 0 forward_v I I I I #
loop $-1 $-1 $235 $58 #
coedge $-1 $149 $149 $150 $236 reversed $91 $-1 #
coedge $-1 $150 $150 $149 $236 forward $93 $-1 #
coedge $-1 $151 $151 $94 $152 forward $146 $-1 #
edge $-1 $237 -4.264527247342554e-016 $237 6.2831853071796004 $151 $238 forward 7 unknown #
loop $-1 $-1 $158 $95 #
plane-surface $-1 43.981554545645153 -31.845008714726305 7.3133909935469461 0 -0.75470958851134928 0.65605901945558964 1 0 0 forward_v I I I I #
loop $-1 $-1 $239 $61 #
coedge $-1 $156 $156 $157 $240 reversed $96 $-1 #
coedge $-1 $157 $157 $156 $240 forward $98 $-1 #
coedge $-1 $158 $158 $99 $159 forward $153 $-1 #
edge $-1 $241 -4.264527247342554e-016 $241 6.2831853071796004 $158 $242 forward 7 unknown #
face $-1 $243 $244 $24 $-1 $245 reversed single #
loop $-1 $-1 $246 $100 #
plane-surface $-1 -58.455153050325023 0 0 1 0 0 0 0 -1 forward_v I I I I #
coedge $-1 $247 $171 $248 $249 forward $101 $-1 #
coedge $-1 $250 $103 $247 $251 forward $65 $-1 #
coedge $-1 $103 $250 $252 $253 forward $65 $-1 #
coedge $-1 $174 $173 $103 $167 reversed $175 $-1 #
edge $-1 $254 -31.845008714726305 $255 31.845008714726305 $166 $256 forward 7 unknown #
coedge $-1 $105 $104 $257 $258 forward $41 $-1 #
coedge $-1 $259 $260 $104 $170 reversed $244 $-1 #
edge $-1 $177 -58.455153050325023 $261 58.455153050325023 $169 $262 forward 7 unknown #
coedge $-1 $163 $263 $105 $172 reversed $101 $-1 #
edge $-1 $264 -58.455153050325023 $176 58.455153050325023 $171 $265 forward 7 unknown #
coedge $-1 $166 $106 $263 $266 forward $175 $-1 #
coedge $-1 $106 $166 $259 $267 reversed $175 $-1 #
loop $-1 $-1 $173 $243 #
vertex $-1 $107 $268 #
vertex $-1 $107 $269 #
straight-curve $-1 58.455153050325023 0 14.915169186831404 0 1 0 I I #
face $-1 $270 $271 $25 $-1 $272 forward single #
loop $-1 $-1 $273 $108 #
plane-surface $-1 0 0 -14.915169186831404 0 0 1 1 0 0 forward_v I I I I #
coedge $-1 $274 $275 $187 $276 forward $109 $-1 #
coedge $-1 $277 $111 $273 $278 reversed $69 $-1 #
coedge $-1 $111 $277 $279 $280 reversed $69 $-1 #
coedge $-1 $275 $274 $111 $186 reversed $109 $-1 #
edge $-1 $281 -14.915169186831404 $282 14.915169186831404 $185 $283 forward 7 unknown #
coedge $-1 $113 $112 $182 $276 reversed $44 $-1 #
coedge $-1 $284 $285 $112 $189 forward $180 $-1 #
edge $-1 $286 15.601895566074052 $195 33.769470178191995 $188 $287 forward 7 unknown #
coedge $-1 $288 $289 $113 $191 forward $271 $-1 #
edge $-1 $196 -33.769470178191995 $290 -15.601895566074052 $190 $291 forward 7 unknown #
coedge $-1 $292 $114 $289 $293 reversed $194 $-1 #
coedge $-1 $114 $292 $284 $294 reversed $194 $-1 #
loop $-1 $-1 $292 $270 #
vertex $-1 $294 $295 #
vertex $-1 $115 $296 #
straight-curve $-1 -58.455153050325023 -7.634339390618937 0 0 0 1 I I #
face $-1 $-1 $297 $26 $-1 $298 reversed single #
loop $-1 $-1 $299 $116 #
plane-surface $-1 58.455153050325023 0 0 -1 0 0 0 0 1 forward_v I I I I #
coedge $-1 $300 $119 $121 $207 forward $73 $-1 #
coedge $-1 $119 $300 $299 $301 reversed $73 $-1 #
coedge $-1 $302 $122 $119 $204 forward $117 $-1 #
edge $-1 $210 11.437114835536207 $303 35.157730421704613 $203 $304 forward 7 unknown #
coedge $-1 $305 $306 $120 $206 forward $297 $-1 #
edge $-1 $307 -61.643398847084377 $209 -53.939076090346276 $205 $308 forward 7 unknown #
edge $-1 $210 51.704219094289769 $307 63.690017429452602 $121 $309 forward 7 unknown #
coedge $-1 $122 $302 $305 $310 forward $117 $-1 #
vertex $-1 $206 $311 #
vertex $-1 $123 $312 #
straight-curve $-1 34.734537464156617 29.102061166386733 14.915169186831406 0 -1 0 I I #
coedge $-1 $212 $212 $-1 $313 reversed $126 $-1 #
edge $-1 $314 0 $314 6.2831853071796004 $127 $315 forward 7 unknown #
vertex $-1 $130 $316 #
ellipse-curve $-1 41.511856203061882 27.254181648957005 11.063007808462357 0 0.64278761758704617 0.76604443648966558 2.5 0 0 1 I I #
coedge $-1 $216 $216 $-1 $317 reversed $133 $-1 #
edge $-1 $318 0 $318 6.2831853071796004 $134 $319 forward 7 unknown #
vertex $-1 $137 $320 #
ellipse-curve $-1 51.677834311419772 27.254181648957005 11.063007808462357 0 0.64278761758704617 0.76604443648966558 2.5 0 0 1 I I #
face $-1 $-1 $321 $29 $-1 $322 reversed single #
loop $-1 $-1 $144 $138 #
plane-surface $-1 0 0 14.915169186831404 0 0 1 1 0 0 forward_v I I I I #
coedge $-1 $323 $324 $142 $229 forward $139 $-1 #
coedge $-1 $225 $141 $143 $230 reversed $87 $-1 #
coedge $-1 $141 $224 $325 $326 reversed $87 $-1 #
coedge $-1 $327 $144 $141 $227 forward $221 $-1 #
edge $-1 $233 -34.802284946244782 $328 -28.194160147615584 $226 $329 forward 7 unknown #
coedge $-1 $143 $142 $330 $331 reversed $56 $-1 #
edge $-1 $332 -7.686359442287813 $232 2.3860953257492881 $223 $333 forward 7 unknown #
edge $-1 $334 0 $233 10.072454768037103 $224 $335 forward 7 unknown #
coedge $-1 $144 $327 $323 $336 forward $221 $-1 #
vertex $-1 $229 $337 #
vertex $-1 $145 $338 #
straight-curve $-1 21.990777272822577 -25.236883916097103 14.915169186831404 -1 0 0 I I #
coedge $-1 $235 $235 $-1 $339 reversed $148 $-1 #
edge $-1 $340 0 $340 6.2831853071796004 $149 $341 forward 7 unknown #
vertex $-1 $152 $342 #
ellipse-curve $-1 37.778583757925219 -28.540946315411706 11.114280090189176 0 -0.75470958851134928 0.65605901945558964 1.5 0 0 1 I I #
coedge $-1 $239 $239 $-1 $343 reversed $155 $-1 #
edge $-1 $344 0 $344 6.2831853071796004 $156 $345 forward 7 unknown #
vertex $-1 $159 $346 #
ellipse-curve $-1 50.184525333365102 -28.540946315411706 11.114280090189176 0 -0.75470958851134928 0.65605901945558964 1.5 0 0 1 I I #
face $-1 $-1 $175 $24 $-1 $347 reversed single #
loop $-1 $-1 $259 $160 #
plane-surface $-1 0 31.845008714726305 0 0 -1 0 0 0 -1 forward_v I I I I #
coedge $-1 $348 $257 $260 $349 forward $161 $-1 #
coedge $-1 $263 $163 $164 $251 reversed $101 $-1 #
coedge $-1 $257 $348 $163 $249 reversed $161 $-1 #
edge $-1 $264 -14.915169186831404 $350 14.915169186831404 $248 $351 forward 7 unknown #
coedge $-1 $165 $164 $348 $352 forward $65 $-1 #
edge $-1 $255 -58.455153050325023 $350 58.455153050325023 $247 $353 forward 7 unknown #
coedge $-1 $260 $259 $165 $253 reversed $244 $-1 #
edge $-1 $354 -58.455153050325023 $254 58.455153050325023 $252 $355 forward 7 unknown #
vertex $-1 $167 $356 #
vertex $-1 $266 $357 #
straight-curve $-1 58.455153050325023 0 -14.915169186831404 0 -1 0 I I #
coedge $-1 $246 $248 $168 $258 reversed $161 $-1 #
edge $-1 $261 -31.845008714726305 $264 31.845008714726305 $257 $358 forward 7 unknown #
coedge $-1 $252 $169 $174 $267 forward $244 $-1 #
coedge $-1 $169 $252 $246 $349 reversed $244 $-1 #
vertex $-1 $170 $359 #
straight-curve $-1 0 31.845008714726305 14.915169186831404 -1 0 0 I I #
coedge $-1 $171 $247 $173 $266 reversed $101 $-1 #
vertex $-1 $258 $360 #
straight-curve $-1 0 -31.845008714726305 14.915169186831404 1 0 0 I I #
edge $-1 $176 -14.915169186831404 $255 14.915169186831404 $173 $361 forward 7 unknown #
edge $-1 $177 -14.915169186831404 $254 14.915169186831404 $174 $362 forward 7 unknown #
point $-1 58.455153050325023 -31.845008714726305 14.915169186831404 #
point $-1 58.455153050325023 31.845008714726305 14.915169186831404 #
face $-1 $-1 $194 $25 $-1 $363 reversed single #
loop $-1 $-1 $279 $179 #
plane-surface $-1 0 0 14.915169186831404 0 0 1 1 0 0 forward_v I I I I #
coedge $-1 $285 $284 $183 $278 forward $180 $-1 #
coedge $-1 $185 $182 $285 $364 reversed $109 $-1 #
coedge $-1 $182 $185 $288 $365 reversed $109 $-1 #
edge $-1 $290 -14.915169186831404 $286 14.915169186831404 $182 $366 forward 7 unknown #
coedge $-1 $184 $183 $292 $367 reversed $69 $-1 #
edge $-1 $368 -33.769470178191995 $282 -15.601895566074052 $273 $369 forward 7 unknown #
coedge $-1 $289 $288 $184 $280 forward $271 $-1 #
edge $-1 $281 15.601895566074052 $370 33.769470178191995 $279 $371 forward 7 unknown #
vertex $-1 $280 $372 #
vertex $-1 $278 $373 #
straight-curve $-1 -40.287578438207078 -2.0146703410634963 0 0 0 -1 I I #
coedge $-1 $273 $188 $193 $294 forward $180 $-1 #
coedge $-1 $188 $273 $274 $364 forward $180 $-1 #
vertex $-1 $189 $374 #
straight-curve $-1 -24.685682872133025 -7.634339390618937 -14.915169186831404 -1 0 0 I I #
coedge $-1 $279 $190 $275 $365 forward $271 $-1 #
coedge $-1 $190 $279 $192 $293 forward $271 $-1 #
vertex $-1 $191 $375 #
straight-curve $-1 -24.685682872133025 -7.634339390618937 14.915169186831404 1 0 0 I I #
coedge $-1 $193 $192 $277 $367 forward $194 $-1 #
edge $-1 $370 2.0146703410634963 $196 7.634339390618937 $192 $376 forward 7 unknown #
edge $-1 $195 -7.634339390618937 $368 -2.0146703410634963 $193 $377 forward 7 unknown #
point $-1 -58.455153050325023 -7.634339390618937 -14.915169186831404 #
point $-1 -58.455153050325023 -7.634339390618937 14.915169186831404 #
loop $-1 $-1 $205 $198 #
plane-surface $-1 0 31.845008714726305 0 0 -1 0 0 0 -1 forward_v I I I I #
coedge $-1 $378 $379 $202 $301 forward $199 $-1 #
coedge $-1 $202 $201 $306 $380 reversed $73 $-1 #
edge $-1 $303 29.739034858711101 $381 41.724833193873934 $299 $382 forward 7 unknown #
coedge $-1 $208 $203 $379 $383 forward $117 $-1 #
vertex $-1 $383 $384 #
straight-curve $-1 23.29742262862041 22.663354583187722 14.915169186831406 1 0 0 I I #
coedge $-1 $385 $205 $208 $310 reversed $297 $-1 #
coedge $-1 $205 $385 $300 $380 forward $297 $-1 #
vertex $-1 $206 $386 #
straight-curve $-1 34.734537464156617 31.845008714726305 68.854245277177682 0 0 1 I I #
straight-curve $-1 34.734537464156617 -16.944374797035692 48.15000099764859 0 0.76604443648966558 -0.64278761758704617 I I #
edge $-1 $387 -58.455153050325023 $209 -34.734537464156617 $305 $388 forward 7 unknown #
point $-1 34.734537464156617 31.845008714726305 14.915169186831404 #
point $-1 34.734537464156617 22.663354583187719 14.915169186831406 #
edge $-1 $389 1 $389 0 $212 $-1 forward 7 unknown #
vertex $-1 $213 $390 #
ellipse-curve $-1 41.511856203061882 21.618878083321245 4.3471146794210886 0 0.64278761758704617 0.76604443648966558 2.5 0 0 1 I I #
point $-1 44.011856203061882 27.254181648957001 11.063007808462348 #
edge $-1 $391 1 $391 0 $216 $-1 forward 7 unknown #
vertex $-1 $217 $392 #
ellipse-curve $-1 51.677834311419772 21.618878083321245 4.3471146794210886 0 0.64278761758704617 0.76604443648966558 2.5 0 0 1 I I #
point $-1 54.177834311419772 27.254181648957001 11.063007808462348 #
loop $-1 $-1 $330 $220 #
plane-surface $-1 0 -31.845008714726305 0 0 1 0 0 0 1 forward_v I I I I #
coedge $-1 $324 $223 $231 $336 reversed $139 $-1 #
coedge $-1 $223 $323 $393 $394 forward $139 $-1 #
coedge $-1 $330 $395 $225 $326 forward $321 $-1 #
edge $-1 $328 27.091556702264718 $334 34.693334895549178 $325 $396 forward 7 unknown #
coedge $-1 $231 $226 $395 $397 forward $221 $-1 #
vertex $-1 $397 $398 #
straight-curve $-1 29.50795604096529 -60.039168862341889 14.915169186831406 0 -1 0 I I #
coedge $-1 $393 $325 $228 $331 forward $321 $-1 #
edge $-1 $334 7.5171787681427134 $332 36.46437577750244 $330 $399 forward 7 unknown #
vertex $-1 $229 $400 #
straight-curve $-1 58.455153050325023 -26.802303275835747 13.114360165386303 0 0.65605901945558975 0.75470958851134939 I I #
vertex $-1 $331 $401 #
straight-curve $-1 29.50795604096529 -31.845008714726305 7.3133909935469461 0 0.65605901945558964 0.75470958851134928 I I #
edge $-1 $402 -31.845008714726305 $232 -25.236883916097106 $323 $403 forward 7 unknown #
point $-1 58.455153050325016 -25.236883916097106 14.915169186831404 #
point $-1 29.50795604096529 -25.236883916097106 14.915169186831404 #
edge $-1 $404 1 $404 0 $235 $-1 forward 7 unknown #
vertex $-1 $236 $405 #
ellipse-curve $-1 37.778583757925219 -26.733416044785621 9.5430180378250249 0 -0.75470958851134928 0.65605901945558964 1.5 0 0 1 I I #
point $-1 39.278583757925219 -28.540946315411713 11.114280090189181 #
edge $-1 $406 1 $406 0 $239 $-1 forward 7 unknown #
vertex $-1 $240 $407 #
ellipse-curve $-1 50.184525333365102 -26.733416044785621 9.5430180378250249 0 -0.75470958851134928 0.65605901945558964 1.5 0 0 1 I I #
point $-1 51.684525333365102 -28.540946315411713 11.114280090189181 #
plane-surface $-1 58.455153050325023 0 0 -1 0 0 0 0 1 forward_v I I I I #
coedge $-1 $248 $246 $250 $352 reversed $161 $-1 #
edge $-1 $261 -14.915169186831404 $354 14.915169186831404 $260 $408 forward 7 unknown #
vertex $-1 $352 $409 #
straight-curve $-1 -58.455153050325023 -31.845008714726305 0 0 0 -1 I I #
edge $-1 $350 -31.845008714726305 $354 31.845008714726305 $348 $410 forward 7 unknown #
straight-curve $-1 0 -31.845008714726305 -14.915169186831404 -1 0 0 I I #
vertex $-1 $253 $411 #
straight-curve $-1 0 31.845008714726305 -14.915169186831404 1 0 0 I I #
point $-1 58.455153050325023 31.845008714726305 -14.915169186831404 #
point $-1 58.455153050325023 -31.845008714726305 -14.915169186831404 #
straight-curve $-1 -58.455153050325023 0 14.915169186831404 0 -1 0 I I #
point $-1 -58.455153050325023 31.845008714726305 14.915169186831404 #
point $-1 -58.455153050325023 -31.845008714726305 14.915169186831404 #
straight-curve $-1 58.455153050325023 -31.845008714726305 0 0 0 -1 I I #
straight-curve $-1 58.455153050325023 31.845008714726305 0 0 0 -1 I I #
plane-surface $-1 -58.455153050325023 0 0 1 0 0 0 0 -1 forward_v I I I I #
edge $-1 $282 -0.39758209185711202 $286 5.2220869576983286 $285 $412 forward 7 unknown #
edge $-1 $290 -5.2220869576983286 $281 0.39758209185711202 $288 $413 forward 7 unknown #
straight-curve $-1 -40.287578438207078 -7.634339390618937 0 0 0 -1 I I #
edge $-1 $370 -14.915169186831404 $368 14.915169186831404 $292 $414 forward 7 unknown #
vertex $-1 $367 $415 #
straight-curve $-1 -24.685682872133025 -2.0146703410634963 -14.915169186831404 1 0 0 I I #
vertex $-1 $293 $416 #
straight-curve $-1 -24.685682872133025 -2.0146703410634963 14.915169186831404 -1 0 0 I I #
point $-1 -40.287578438207078 -2.0146703410634963 14.915169186831404 #
point $-1 -40.287578438207078 -2.0146703410634963 -14.915169186831404 #
point $-1 -40.287578438207078 -7.634339390618937 -14.915169186831404 #
point $-1 -40.287578438207078 -7.634339390618937 14.915169186831404 #
straight-curve $-1 -58.455153050325023 0 14.915169186831404 0 -1 0 I I #
straight-curve $-1 -58.455153050325023 0 -14.915169186831404 0 1 0 I I #
coedge $-1 $379 $299 $385 $417 reversed $199 $-1 #
coedge $-1 $299 $378 $302 $383 reversed $199 $-1 #
edge $-1 $381 -35.157730421704613 $307 -11.437114835536207 $306 $418 forward 7 unknown #
vertex $-1 $301 $419 #
straight-curve $-1 58.455153050325023 -0.11806761690014866 34.031052553000436 0 0.76604443648966558 -0.64278761758704617 I I #
edge $-1 $303 22.663354583187719 $387 31.845008714726305 $379 $420 forward 7 unknown #
point $-1 58.455153050325023 22.663354583187719 14.915169186831406 #
coedge $-1 $306 $305 $378 $417 forward $297 $-1 #
point $-1 34.734537464156617 31.845008714726305 7.2108464300933051 #
vertex $-1 $383 $421 #
straight-curve $-1 0 31.845008714726305 14.915169186831404 -1 0 0 I I #
vertex $-1 $313 $422 #
point $-1 44.011856203061882 21.618878083321245 4.3471146794210886 #
vertex $-1 $317 $423 #
point $-1 54.177834311419772 21.618878083321245 4.3471146794210886 #
coedge $-1 $395 $330 $324 $394 reversed $321 $-1 #
edge $-1 $402 -14.915169186831404 $332 -7.3133909935469461 $324 $424 forward 7 unknown #
coedge $-1 $325 $393 $327 $397 reversed $321 $-1 #
straight-curve $-1 29.50795604096529 -31.845008714726305 42.006725889096124 0 0 -1 I I #
edge $-1 $328 29.50795604096529 $402 58.455153050325023 $395 $425 forward 7 unknown #
point $-1 29.50795604096529 -31.845008714726305 14.915169186831404 #
straight-curve $-1 21.990777272822577 -31.845008714726305 7.3133909935469434 1 0 0 I I #
point $-1 58.455153050325016 -31.845008714726305 7.3133909935469461 #
point $-1 29.50795604096529 -31.845008714726305 7.3133909935469461 #
vertex $-1 $336 $426 #
straight-curve $-1 58.455153050325023 0 14.915169186831404 0 1 0 I I #
vertex $-1 $339 $427 #
point $-1 39.278583757925219 -26.733416044785621 9.5430180378250249 #
vertex $-1 $343 $428 #
point $-1 51.684525333365102 -26.733416044785621 9.5430180378250249 #
straight-curve $-1 -58.455153050325023 31.845008714726305 0 0 0 -1 I I #
point $-1 -58.455153050325023 -31.845008714726305 -14.915169186831404 #
straight-curve $-1 -58.455153050325023 0 -14.915169186831404 0 1 0 I I #
point $-1 -58.455153050325023 31.845008714726305 -14.915169186831404 #
straight-curve $-1 -40.287578438207078 -2.4122524329206083 -14.915169186831404 0 -1 0 I I #
straight-curve $-1 -40.287578438207078 -2.4122524329206083 14.915169186831404 0 1 0 I I #
straight-curve $-1 -58.455153050325023 -2.0146703410634963 0 0 0 -1 I I #
point $-1 -58.455153050325023 -2.0146703410634963 -14.915169186831404 #
point $-1 -58.455153050325023 -2.0146703410634963 14.915169186831404 #
edge $-1 $387 -14.915169186831404 $381 -7.2108464300933051 $378 $429 forward 7 unknown #
straight-curve $-1 23.29742262862041 31.845008714726301 7.2108464300933086 -1 0 0 I I #
point $-1 58.455153050325023 31.845008714726305 7.2108464300933051 #
straight-curve $-1 58.455153050325023 0 14.915169186831404 0 1 0 I I #
point $-1 58.455153050325023 31.845008714726305 14.915169186831404 #
point $-1 41.511856203061882 20.011909039353629 2.4320035881969249 #
point $-1 51.677834311419772 20.011909039353629 2.4320035881969249 #
straight-curve $-1 58.455153050325023 -31.845008714726305 0 0 0 -1 I I #
straight-curve $-1 0 -31.845008714726305 14.915169186831404 1 0 0 I I #
point $-1 58.455153050325023 -31.845008714726305 14.915169186831404 #
point $-1 37.778583757925219 -25.601351662018594 8.5589295086416399 #
point $-1 50.184525333365102 -25.601351662018594 8.5589295086416399 #
straight-curve $-1 58.455153050325023 31.845008714726305 0 0 0 -1 I I #
End-of-ACIS-data 