500 0 6 0           
7 Unknown 11 ACIS 5.0 NT 24 Fri Mar 26 18:43:12 1999 
-1 9.9999999999999995e-007 1e-010 
body $-1 $6 $-1 $7 #
body $-1 $8 $-1 $9 #
body $-1 $10 $-1 $11 #
body $-1 $12 $-1 $13 #
body $-1 $14 $-1 $15 #
body $-1 $16 $-1 $17 #
lump $-1 $-1 $18 $0 #
transform $-1 1 0 0 0 1 0 0 0 1 62.235786004211555 26.66298299896609 6.5448684608686802 1 rotate no_reflect no_shear #
lump $-1 $-1 $19 $1 #
transform $-1 1 0 0 0 1 0 0 0 1 62.235786004211555 26.66298299896609 6.5448684608686802 1 rotate no_reflect no_shear #
lump $-1 $-1 $20 $2 #
transform $-1 1 0 0 0 1 0 0 0 1 62.235786004211555 26.66298299896609 6.5448684608686802 1 rotate no_reflect no_shear #
lump $-1 $-1 $21 $3 #
transform $-1 1 0 0 0 1 0 0 0 1 62.235786004211555 26.66298299896609 6.5448684608686802 1 rotate no_reflect no_shear #
lump $-1 $-1 $22 $4 #
transform $-1 1 0 0 0 1 0 0 0 1 62.235786004211555 26.66298299896609 6.5448684608686802 1 rotate no_reflect no_shear #
lump $-1 $-1 $23 $5 #
transform $-1 1 0 0 0 1 0 0 0 1 62.235786004211555 26.66298299896609 6.5448684608686802 1 rotate no_reflect no_shear #
shell $-1 $-1 $-1 $24 $-1 $6 #
shell $-1 $-1 $-1 $25 $-1 $8 #
shell $-1 $-1 $-1 $26 $-1 $10 #
shell $-1 $-1 $-1 $27 $-1 $12 #
shell $-1 $-1 $-1 $28 $-1 $14 #
shell $-1 $-1 $-1 $29 $-1 $16 #
face $-1 $30 $31 $18 $-1 $32 forward single #
face $-1 $33 $34 $19 $-1 $35 reversed single #
face $-1 $36 $37 $20 $-1 $38 reversed single #
face $-1 $39 $40 $21 $-1 $41 forward single #
face $-1 $42 $43 $22 $-1 $44 reversed single #
face $-1 $45 $46 $23 $-1 $47 forward single #
face $-1 $48 $49 $18 $-1 $50 reversed single #
loop $-1 $-1 $51 $24 #
plane-surface $-1 0 0 6.5448684608686802 0 0 1 1 0 0 forward_v I I I I #
face $-1 $52 $53 $19 $-1 $54 reversed single #
loop $-1 $-1 $55 $25 #
plane-surface $-1 -59.146788655307184 0 3.5448684608686802 0 0 1 1 0 0 forward_v I I I I #
face $-1 $56 $57 $20 $-1 $58 reversed single #
loop $-1 $-1 $59 $26 #
plane-surface $-1 49.936387568604623 96.018385311821092 116.59637138308992 1 0 0 0 -0.80901700255871778 -0.5877852410284794 forward_v I I I I #
face $-1 $60 $61 $21 $-1 $62 forward single #
loop $-1 $63 $64 $27 #
cone-surface $-1 56.086086786408082 23.460992017263294 2.7424322537327521 0 -0.80901700255871778 -0.5877852410284794 1.5 0 0 1 I I 0 1 1.5 forward I I I I #
face $-1 $65 $66 $22 $-1 $67 reversed single #
loop $-1 $-1 $68 $28 #
plane-surface $-1 56.086086786408082 -26.662982998966086 0.29220525873000724 0 -0.80901700255871778 0.5877852410284794 1 0 0 forward_v I I I I #
face $-1 $69 $70 $23 $-1 $71 forward single #
loop $-1 $72 $73 $29 #
cone-surface $-1 56.086086786408082 -23.460992017263287 2.7424322537327575 0 0.80901700255871778 -0.5877852410284794 1.5 0 0 1 I I 0 1 1.5 forward I I I I #
face $-1 $74 $75 $18 $-1 $76 reversed single #
loop $-1 $-1 $77 $30 #
plane-surface $-1 0 0 -6.5448684608686802 0 0 1 1 0 0 forward_v I I I I #
coedge $-1 $78 $79 $80 $81 forward $31 $-1 #
face $-1 $82 $83 $19 $-1 $84 reversed single #
loop $-1 $-1 $85 $33 #
plane-surface $-1 -56.057791306402812 0 5.0448684608686802 -1 0 0 0 0 1 forward_v I I I I #
coedge $-1 $86 $87 $88 $89 forward $34 $-1 #
face $-1 $90 $91 $20 $-1 $92 forward single #
loop $-1 $-1 $93 $36 #
plane-surface $-1 56.086086786408082 -4.6812327782049721 43.433818428925207 0 0.80901700255871778 0.5877852410284794 1 0 0 forward_v I I I I #
coedge $-1 $94 $95 $96 $97 reversed $37 $-1 #
face $-1 $-1 $98 $21 $-1 $99 forward single #
loop $-1 $100 $101 $39 #
cone-surface $-1 56.086086786408082 21.923651081960383 1.6254887168948047 0 -0.80901700255871778 -0.5877852410284794 0.75 0 0 1 I I -0.70710678118654746 0.70710678118654768 0.75 forward I I I I #
loop $-1 $-1 $102 $27 #
coedge $-1 $64 $64 $103 $104 reversed $40 $-1 #
face $-1 $105 $106 $22 $-1 $107 forward single #
loop $-1 $-1 $108 $42 #
plane-surface $-1 49.936387568604623 -127.36260108899215 73.454758212894717 1 0 0 0 0.80901700255871778 -0.5877852410284794 forward_v I I I I #
coedge $-1 $109 $110 $111 $112 reversed $43 $-1 #
face $-1 $-1 $113 $23 $-1 $114 forward single #
loop $-1 $115 $116 $45 #
cone-surface $-1 56.086086786408082 -21.923651081960376 1.62548871689481 0 0.80901700255871778 -0.5877852410284794 0.75 0 0 1 I I -0.70710678118654746 0.70710678118654768 0.75 forward I I I I #
loop $-1 $-1 $117 $29 #
coedge $-1 $73 $73 $118 $119 reversed $46 $-1 #
face $-1 $120 $121 $18 $-1 $122 reversed single #
loop $-1 $-1 $123 $48 #
plane-surface $-1 0 -26.66298299896609 0 0 1 0 0 0 1 forward_v I I I I #
coedge $-1 $124 $125 $126 $127 forward $49 $-1 #
coedge $-1 $128 $51 $129 $130 forward $31 $-1 #
coedge $-1 $51 $128 $131 $132 forward $31 $-1 #
coedge $-1 $133 $134 $51 $81 reversed $135 $-1 #
edge $-1 $136 -26.66298299896609 $137 26.66298299896609 $80 $138 forward 7 unknown #
face $-1 $139 $140 $19 $-1 $141 reversed single #
loop $-1 $-1 $142 $52 #
plane-surface $-1 0 26.66298299896609 0 0 -1 0 0 0 -1 forward_v I I I I #
coedge $-1 $88 $143 $144 $145 reversed $53 $-1 #
coedge $-1 $146 $55 $147 $148 reversed $34 $-1 #
coedge $-1 $55 $146 $149 $150 reversed $34 $-1 #
coedge $-1 $151 $85 $55 $89 reversed $53 $-1 #
edge $-1 $152 -26.66298299896609 $153 26.66298299896609 $88 $154 forward 7 unknown #
face $-1 $155 $156 $20 $-1 $157 reversed single #
loop $-1 $-1 $96 $56 #
plane-surface $-1 0 0 6.5448684608686802 0 0 1 1 0 0 forward_v I I I I #
coedge $-1 $158 $159 $160 $161 reversed $57 $-1 #
coedge $-1 $95 $59 $162 $163 reversed $37 $-1 #
coedge $-1 $59 $94 $158 $164 reversed $37 $-1 #
coedge $-1 $160 $165 $59 $97 forward $91 $-1 #
edge $-1 $166 21.346209656944456 $167 25.889035253582314 $96 $168 forward 7 unknown #
loop $-1 $-1 $103 $60 #
plane-surface $-1 56.086086786408082 -4.6812327782049721 43.433818428925207 0 0.80901700255871778 0.5877852410284794 1 0 0 forward_v I I I I #
loop $-1 $-1 $169 $39 #
coedge $-1 $101 $101 $102 $170 reversed $61 $-1 #
coedge $-1 $102 $102 $101 $170 forward $63 $-1 #
coedge $-1 $103 $103 $64 $104 forward $98 $-1 #
edge $-1 $171 -2.3951714761437804e-016 $171 6.2831853071796004 $103 $172 forward 7 unknown #
face $-1 $173 $174 $22 $-1 $175 reversed single #
loop $-1 $-1 $111 $65 #
plane-surface $-1 0 0 6.5448684608686802 0 0 1 1 0 0 forward_v I I I I #
coedge $-1 $176 $177 $178 $179 reversed $66 $-1 #
coedge $-1 $180 $68 $181 $182 reversed $43 $-1 #
coedge $-1 $68 $180 $176 $183 forward $43 $-1 #
coedge $-1 $178 $184 $68 $112 forward $106 $-1 #
edge $-1 $185 -34.192742611007503 $186 -21.893344175400582 $111 $187 forward 7 unknown #
loop $-1 $-1 $118 $69 #
plane-surface $-1 56.086086786408082 -26.662982998966086 0.29220525873000724 0 -0.80901700255871778 0.5877852410284794 1 0 0 forward_v I I I I #
loop $-1 $-1 $188 $45 #
coedge $-1 $116 $116 $117 $189 reversed $70 $-1 #
coedge $-1 $117 $117 $116 $189 forward $72 $-1 #
coedge $-1 $118 $118 $73 $119 forward $113 $-1 #
edge $-1 $190 5.2398207024907219e-016 $190 6.2831853071796013 $118 $191 forward 7 unknown #
face $-1 $192 $193 $18 $-1 $194 reversed single #
loop $-1 $-1 $195 $74 #
plane-surface $-1 -62.235786004211555 0 0 1 0 0 0 0 -1 forward_v I I I I #
coedge $-1 $196 $131 $197 $198 forward $75 $-1 #
coedge $-1 $199 $77 $196 $200 forward $49 $-1 #
coedge $-1 $77 $199 $201 $202 forward $49 $-1 #
coedge $-1 $134 $133 $77 $127 reversed $135 $-1 #
edge $-1 $203 -26.66298299896609 $204 26.66298299896609 $126 $205 forward 7 unknown #
coedge $-1 $79 $78 $206 $207 forward $31 $-1 #
coedge $-1 $208 $209 $78 $130 reversed $193 $-1 #
edge $-1 $137 -62.235786004211555 $210 62.235786004211555 $129 $211 forward 7 unknown #
coedge $-1 $123 $212 $79 $132 reversed $75 $-1 #
edge $-1 $213 -62.235786004211555 $136 62.235786004211555 $131 $214 forward 7 unknown #
coedge $-1 $126 $80 $212 $215 forward $135 $-1 #
coedge $-1 $80 $126 $208 $216 reversed $135 $-1 #
loop $-1 $-1 $133 $192 #
vertex $-1 $81 $217 #
vertex $-1 $81 $218 #
straight-curve $-1 62.235786004211555 0 6.5448684608686802 0 1 0 I I #
face $-1 $219 $220 $19 $-1 $221 forward single #
loop $-1 $-1 $222 $82 #
plane-surface $-1 -62.235786004211555 0 0 1 0 0 0 0 -1 forward_v I I I I #
coedge $-1 $149 $223 $151 $224 forward $83 $-1 #
coedge $-1 $85 $151 $225 $226 reversed $53 $-1 #
coedge $-1 $227 $147 $85 $145 forward $228 $-1 #
edge $-1 $153 1.0224342304343401 $229 4.0224342304343406 $144 $230 forward 7 unknown #
coedge $-1 $87 $86 $222 $231 reversed $34 $-1 #
coedge $-1 $144 $232 $86 $148 forward $228 $-1 #
edge $-1 $233 -32.662391676557959 $153 -26.484396978749221 $147 $234 forward 7 unknown #
coedge $-1 $235 $142 $87 $150 forward $83 $-1 #
edge $-1 $152 26.484396978749221 $236 32.662391676557959 $149 $237 forward 7 unknown #
coedge $-1 $143 $88 $142 $224 reversed $53 $-1 #
vertex $-1 $150 $238 #
vertex $-1 $148 $239 #
straight-curve $-1 -56.057791306402812 0 3.5448684608686802 0 -1 0 I I #
face $-1 $-1 $240 $20 $-1 $241 reversed single #
loop $-1 $-1 $242 $90 #
plane-surface $-1 62.235786004211555 0 0 -1 0 0 0 0 1 forward_v I I I I #
coedge $-1 $243 $93 $95 $164 forward $57 $-1 #
coedge $-1 $93 $243 $242 $244 reversed $57 $-1 #
coedge $-1 $245 $96 $93 $161 forward $91 $-1 #
edge $-1 $167 21.893344175400582 $246 34.192742611007503 $160 $247 forward 7 unknown #
coedge $-1 $248 $249 $94 $163 forward $240 $-1 #
edge $-1 $250 -58.005980432814944 $166 -51.753317230676281 $162 $251 forward 7 unknown #
edge $-1 $167 45.597249317858633 $250 53.325965997932173 $95 $252 forward 7 unknown #
coedge $-1 $96 $245 $248 $253 forward $91 $-1 #
vertex $-1 $163 $254 #
vertex $-1 $97 $255 #
straight-curve $-1 49.936387568604623 48.009192655910546 6.5448684608686776 0 -1 0 I I #
coedge $-1 $169 $169 $-1 $256 reversed $100 $-1 #
edge $-1 $257 0 $257 6.2831853071796004 $101 $258 forward 7 unknown #
vertex $-1 $104 $259 #
ellipse-curve $-1 56.086086786408082 24.391570200647166 3.4185368597993402 0 0.80901700255871778 0.5877852410284794 1.5 0 0 1 I I #
face $-1 $-1 $260 $22 $-1 $261 reversed single #
loop $-1 $-1 $262 $105 #
plane-surface $-1 0 -26.66298299896609 0 0 1 0 0 0 1 forward_v I I I I #
coedge $-1 $177 $108 $110 $183 reversed $66 $-1 #
coedge $-1 $108 $176 $263 $264 reversed $66 $-1 #
coedge $-1 $265 $111 $108 $179 forward $106 $-1 #
edge $-1 $186 -41.56114314216785 $266 -37.018317545529982 $178 $267 forward 7 unknown #
coedge $-1 $110 $109 $262 $268 reversed $43 $-1 #
coedge $-1 $269 $270 $109 $182 forward $260 $-1 #
edge $-1 $271 -7.7178544330179477 $185 0.010862247055613856 $181 $272 forward 7 unknown #
edge $-1 $273 -6.040265601636166e-015 $186 7.7287166800735569 $176 $274 forward 7 unknown #
coedge $-1 $111 $265 $269 $275 forward $106 $-1 #
vertex $-1 $182 $276 #
vertex $-1 $112 $277 #
straight-curve $-1 28.043043393204041 -22.120157402328225 6.5448684608686802 -1 0 0 I I #
coedge $-1 $188 $188 $-1 $278 reversed $115 $-1 #
edge $-1 $279 0 $279 6.2831853071796004 $116 $280 forward 7 unknown #
vertex $-1 $119 $281 #
ellipse-curve $-1 56.086086786408082 -24.391570200647156 3.4185368597993424 0 -0.80901700255871778 0.5877852410284794 1.5 0 0 1 I I #
face $-1 $-1 $135 $18 $-1 $282 reversed single #
loop $-1 $-1 $208 $120 #
plane-surface $-1 0 26.66298299896609 0 0 -1 0 0 0 -1 forward_v I I I I #
coedge $-1 $283 $206 $209 $284 forward $121 $-1 #
coedge $-1 $212 $123 $124 $200 reversed $75 $-1 #
coedge $-1 $206 $283 $123 $198 reversed $121 $-1 #
edge $-1 $213 -6.5448684608686802 $285 6.5448684608686802 $197 $286 forward 7 unknown #
coedge $-1 $125 $124 $283 $287 forward $49 $-1 #
edge $-1 $204 -62.235786004211555 $285 62.235786004211555 $196 $288 forward 7 unknown #
coedge $-1 $209 $208 $125 $202 reversed $193 $-1 #
edge $-1 $289 -62.235786004211555 $203 62.235786004211555 $201 $290 forward 7 unknown #
vertex $-1 $127 $291 #
vertex $-1 $215 $292 #
straight-curve $-1 62.235786004211555 0 -6.5448684608686802 0 -1 0 I I #
coedge $-1 $195 $197 $128 $207 reversed $121 $-1 #
edge $-1 $210 -26.66298299896609 $213 26.66298299896609 $206 $293 forward 7 unknown #
coedge $-1 $201 $129 $134 $216 forward $193 $-1 #
coedge $-1 $129 $201 $195 $284 reversed $193 $-1 #
vertex $-1 $130 $294 #
straight-curve $-1 0 26.66298299896609 6.5448684608686802 -1 0 0 I I #
coedge $-1 $131 $196 $133 $215 reversed $75 $-1 #
vertex $-1 $207 $295 #
straight-curve $-1 0 -26.66298299896609 6.5448684608686802 1 0 0 I I #
edge $-1 $136 -6.5448684608686802 $204 6.5448684608686802 $133 $296 forward 7 unknown #
edge $-1 $137 -6.5448684608686802 $203 6.5448684608686802 $134 $297 forward 7 unknown #
point $-1 62.235786004211555 -26.66298299896609 6.5448684608686802 #
point $-1 62.235786004211555 26.66298299896609 6.5448684608686802 #
face $-1 $-1 $228 $19 $-1 $298 reversed single #
loop $-1 $-1 $225 $139 #
plane-surface $-1 0 0 6.5448684608686802 0 0 1 1 0 0 forward_v I I I I #
coedge $-1 $299 $300 $146 $231 forward $140 $-1 #
coedge $-1 $142 $235 $301 $302 reversed $83 $-1 #
edge $-1 $303 -4.0224342304343406 $152 -1.0224342304343401 $142 $304 forward 7 unknown #
coedge $-1 $301 $305 $143 $226 forward $220 $-1 #
edge $-1 $229 -26.66298299896609 $303 26.66298299896609 $225 $306 forward 7 unknown #
coedge $-1 $232 $144 $305 $307 reversed $228 $-1 #
loop $-1 $-1 $144 $219 #
vertex $-1 $145 $308 #
straight-curve $-1 -56.057791306402812 -26.66298299896609 2.5224342304343401 0 0 1 I I #
edge $-1 $236 -26.66298299896609 $233 26.66298299896609 $222 $309 forward 7 unknown #
coedge $-1 $147 $227 $299 $310 forward $228 $-1 #
vertex $-1 $231 $311 #
straight-curve $-1 -29.573394327653592 -26.66298299896609 3.5448684608686802 1 0 0 I I #
coedge $-1 $223 $149 $300 $312 reversed $83 $-1 #
vertex $-1 $231 $313 #
straight-curve $-1 -29.573394327653592 26.66298299896609 3.5448684608686802 -1 0 0 I I #
point $-1 -56.057791306402812 26.66298299896609 3.5448684608686802 #
point $-1 -56.057791306402812 -26.66298299896609 3.5448684608686802 #
loop $-1 $-1 $162 $155 #
plane-surface $-1 0 26.66298299896609 0 0 -1 0 0 0 -1 forward_v I I I I #
coedge $-1 $314 $315 $159 $244 forward $156 $-1 #
coedge $-1 $159 $158 $249 $316 reversed $57 $-1 #
edge $-1 $246 26.652120751910484 $317 34.380837431984027 $242 $318 forward 7 unknown #
coedge $-1 $165 $160 $315 $319 forward $91 $-1 #
vertex $-1 $319 $320 #
straight-curve $-1 28.043043393204041 22.120157402328225 6.5448684608686811 1 0 0 I I #
coedge $-1 $321 $162 $165 $253 reversed $240 $-1 #
coedge $-1 $162 $321 $243 $316 forward $240 $-1 #
vertex $-1 $163 $322 #
straight-curve $-1 49.936387568604623 26.662982998966086 58.298185691544958 0 0 1 I I #
straight-curve $-1 49.936387568604623 -4.6812327782049721 43.433818428925207 0 0.5877852410284794 -0.80901700255871778 I I #
edge $-1 $323 -62.235786004211555 $166 -49.936387568604623 $248 $324 forward 7 unknown #
point $-1 49.936387568604623 26.66298299896609 6.5448684608686802 #
point $-1 49.936387568604623 22.120157402328232 6.5448684608686776 #
edge $-1 $325 1 $325 0 $169 $-1 forward 7 unknown #
vertex $-1 $170 $326 #
ellipse-curve $-1 56.086086786408082 22.530413833879422 2.0663276476661645 0 0.80901700255871778 0.5877852410284794 1.5 0 0 1 I I #
point $-1 57.586086786408082 24.391570200647166 3.4185368597993406 #
loop $-1 $-1 $181 $173 #
plane-surface $-1 62.235786004211555 0 0 -1 0 0 0 0 1 forward_v I I I I #
coedge $-1 $327 $263 $180 $268 forward $174 $-1 #
coedge $-1 $262 $328 $177 $264 forward $174 $-1 #
edge $-1 $266 30.182510645578677 $273 36.435173847717358 $263 $329 forward 7 unknown #
coedge $-1 $184 $178 $328 $330 forward $106 $-1 #
vertex $-1 $330 $331 #
straight-curve $-1 49.936387568604623 -63.681300544496075 6.5448684608686776 0 -1 0 I I #
edge $-1 $273 21.893344175400582 $271 34.192742611007503 $262 $332 forward 7 unknown #
coedge $-1 $270 $181 $184 $275 reversed $260 $-1 #
coedge $-1 $181 $269 $327 $333 forward $260 $-1 #
vertex $-1 $268 $334 #
straight-curve $-1 62.235786004211555 -22.126542070831917 6.5360807183146958 0 0.5877852410284794 0.80901700255871778 I I #
vertex $-1 $268 $335 #
straight-curve $-1 49.936387568604623 -26.662982998966086 0.29220525873000724 0 0.5877852410284794 0.80901700255871778 I I #
edge $-1 $336 -26.66298299896609 $185 -22.120157402328221 $269 $337 forward 7 unknown #
point $-1 62.235786004211541 -22.120157402328221 6.5448684608686802 #
point $-1 49.936387568604623 -22.120157402328221 6.5448684608686802 #
edge $-1 $338 1 $338 0 $188 $-1 forward 7 unknown #
vertex $-1 $189 $339 #
ellipse-curve $-1 56.086086786408082 -22.530413833879415 2.0663276476661698 0 -0.80901700255871778 0.5877852410284794 1.5 0 0 1 I I #
point $-1 57.586086786408082 -24.391570200647159 3.418536859799346 #
plane-surface $-1 62.235786004211555 0 0 -1 0 0 0 0 1 forward_v I I I I #
coedge $-1 $197 $195 $199 $287 reversed $121 $-1 #
edge $-1 $210 -6.5448684608686802 $289 6.5448684608686802 $209 $340 forward 7 unknown #
vertex $-1 $287 $341 #
straight-curve $-1 -62.235786004211555 -26.66298299896609 0 0 0 -1 I I #
edge $-1 $285 -26.66298299896609 $289 26.66298299896609 $283 $342 forward 7 unknown #
straight-curve $-1 0 -26.66298299896609 -6.5448684608686802 -1 0 0 I I #
vertex $-1 $202 $343 #
straight-curve $-1 0 26.66298299896609 -6.5448684608686802 1 0 0 I I #
point $-1 62.235786004211555 26.66298299896609 -6.5448684608686802 #
point $-1 62.235786004211555 -26.66298299896609 -6.5448684608686802 #
straight-curve $-1 -62.235786004211555 0 6.5448684608686802 0 -1 0 I I #
point $-1 -62.235786004211555 26.66298299896609 6.5448684608686802 #
point $-1 -62.235786004211555 -26.66298299896609 6.5448684608686802 #
straight-curve $-1 62.235786004211555 -26.66298299896609 0 0 0 -1 I I #
straight-curve $-1 62.235786004211555 26.66298299896609 0 0 0 -1 I I #
plane-surface $-1 0 -26.66298299896609 0 0 1 0 0 0 1 forward_v I I I I #
coedge $-1 $344 $222 $232 $310 reversed $140 $-1 #
coedge $-1 $222 $344 $235 $312 forward $140 $-1 #
coedge $-1 $345 $225 $223 $302 forward $220 $-1 #
edge $-1 $303 56.057791306402812 $346 62.235786004211555 $223 $347 forward 7 unknown #
vertex $-1 $302 $348 #
straight-curve $-1 -56.057791306402812 26.66298299896609 2.5224342304343401 0 0 -1 I I #
coedge $-1 $225 $345 $227 $307 forward $220 $-1 #
straight-curve $-1 -56.057791306402812 0 6.5448684608686802 0 1 0 I I #
edge $-1 $349 -62.235786004211555 $229 -56.057791306402812 $227 $350 forward 7 unknown #
point $-1 -56.057791306402812 -26.66298299896609 6.5448684608686802 #
straight-curve $-1 -62.235786004211555 0 3.5448684608686802 0 -1 0 I I #
edge $-1 $349 -6.5448684608686802 $233 -3.5448684608686802 $299 $351 forward 7 unknown #
point $-1 -62.235786004211555 -26.66298299896609 3.5448684608686802 #
edge $-1 $346 -6.5448684608686802 $236 -3.5448684608686802 $235 $352 forward 7 unknown #
point $-1 -62.235786004211555 26.66298299896609 3.5448684608686802 #
coedge $-1 $315 $242 $321 $353 reversed $156 $-1 #
coedge $-1 $242 $314 $245 $319 reversed $156 $-1 #
edge $-1 $317 -34.192742611007503 $250 -21.893344175400582 $249 $354 forward 7 unknown #
vertex $-1 $244 $355 #
straight-curve $-1 62.235786004211555 6.4544341822463895 28.106887303412297 0 0.5877852410284794 -0.80901700255871778 I I #
edge $-1 $246 22.120157402328232 $323 26.66298299896609 $315 $356 forward 7 unknown #
point $-1 62.235786004211541 22.120157402328232 6.5448684608686776 #
coedge $-1 $249 $248 $314 $353 forward $240 $-1 #
point $-1 49.936387568604623 26.66298299896609 0.29220525873001435 #
vertex $-1 $319 $357 #
straight-curve $-1 0 26.66298299896609 6.5448684608686802 -1 0 0 I I #
vertex $-1 $256 $358 #
point $-1 57.586086786408082 22.530413833879422 2.0663276476661645 #
coedge $-1 $328 $262 $270 $333 reversed $174 $-1 #
coedge $-1 $263 $327 $265 $330 reversed $174 $-1 #
straight-curve $-1 49.936387568604623 -26.662982998966086 36.727379106447358 0 0 -1 I I #
edge $-1 $266 49.936387568604623 $336 62.235786004211555 $328 $359 forward 7 unknown #
point $-1 49.936387568604623 -26.66298299896609 6.5448684608686802 #
straight-curve $-1 28.043043393204041 -26.66298299896609 0.29220525872999958 1 0 0 I I #
edge $-1 $336 -6.5448684608686802 $271 -0.29220525873000236 $270 $360 forward 7 unknown #
point $-1 62.235786004211541 -26.66298299896609 0.29220525873000236 #
point $-1 49.936387568604623 -26.66298299896609 0.29220525873000236 #
vertex $-1 $275 $361 #
straight-curve $-1 62.235786004211555 0 6.5448684608686802 0 1 0 I I #
vertex $-1 $278 $362 #
point $-1 57.586086786408082 -22.530413833879415 2.0663276476661698 #
straight-curve $-1 -62.235786004211555 26.66298299896609 0 0 0 -1 I I #
point $-1 -62.235786004211555 -26.66298299896609 -6.5448684608686802 #
straight-curve $-1 -62.235786004211555 0 -6.5448684608686802 0 1 0 I I #
point $-1 -62.235786004211555 26.66298299896609 -6.5448684608686802 #
coedge $-1 $300 $299 $345 $363 reversed $140 $-1 #
coedge $-1 $305 $301 $344 $363 forward $220 $-1 #
vertex $-1 $302 $364 #
straight-curve $-1 0 26.66298299896609 6.5448684608686802 -1 0 0 I I #
point $-1 -56.057791306402812 26.66298299896609 6.5448684608686802 #
vertex $-1 $363 $365 #
straight-curve $-1 0 -26.66298299896609 6.5448684608686802 1 0 0 I I #
straight-curve $-1 -62.235786004211555 -26.66298299896609 0 0 0 -1 I I #
straight-curve $-1 -62.235786004211555 26.66298299896609 0 0 0 -1 I I #
edge $-1 $323 -6.5448684608686802 $317 -0.29220525873001435 $314 $366 forward 7 unknown #
straight-curve $-1 28.043043393204041 26.662982998966093 0.29220525873001435 -1 0 0 I I #
point $-1 62.235786004211541 26.66298299896609 0.29220525873001435 #
straight-curve $-1 62.235786004211555 0 6.5448684608686802 0 1 0 I I #
point $-1 62.235786004211555 26.66298299896609 6.5448684608686802 #
point $-1 56.086086786408082 21.316888330041344 1.1846497861234451 #
straight-curve $-1 0 -26.66298299896609 6.5448684608686802 1 0 0 I I #
straight-curve $-1 62.235786004211555 -26.66298299896609 0 0 0 -1 I I #
point $-1 62.235786004211555 -26.66298299896609 6.5448684608686802 #
point $-1 56.086086786408082 -21.316888330041337 1.1846497861234504 #
edge $-1 $346 -26.66298299896609 $349 26.66298299896609 $344 $367 forward 7 unknown #
point $-1 -62.235786004211555 26.66298299896609 6.5448684608686802 #
point $-1 -62.235786004211555 -26.66298299896609 6.5448684608686802 #
straight-curve $-1 62.235786004211555 26.66298299896609 0 0 0 -1 I I #
straight-curve $-1 -62.235786004211555 0 6.5448684608686802 0 -1 0 I I #
End-of-ACIS-data 