500 0 11 0           
7 Unknown 11 ACIS 5.0 NT 24 Thu Mar 25 23:32:42 1999 
-1 9.9999999999999995e-007 1e-010 
body $-1 $11 $-1 $12 #
body $-1 $13 $-1 $14 #
body $-1 $15 $-1 $16 #
body $-1 $17 $-1 $18 #
body $-1 $19 $-1 $20 #
body $-1 $21 $-1 $22 #
body $-1 $23 $-1 $24 #
body $-1 $25 $-1 $26 #
body $-1 $27 $-1 $28 #
body $-1 $29 $-1 $30 #
body $-1 $31 $-1 $32 #
lump $-1 $-1 $33 $0 #
transform $-1 1 0 0 0 1 0 0 0 1 73.085726493118074 33.27054447041067 15.879534259518618 1 rotate no_reflect no_shear #
lump $-1 $-1 $34 $1 #
transform $-1 1 0 0 0 1 0 0 0 1 73.085726493118074 33.27054447041067 15.879534259518618 1 rotate no_reflect no_shear #
lump $-1 $-1 $35 $2 #
transform $-1 1 0 0 0 1 0 0 0 1 73.085726493118074 33.27054447041067 15.879534259518618 1 rotate no_reflect no_shear #
lump $-1 $-1 $36 $3 #
transform $-1 1 0 0 0 1 0 0 0 1 73.085726493118074 33.27054447041067 15.879534259518618 1 rotate no_reflect no_shear #
lump $-1 $-1 $37 $4 #
transform $-1 1 0 0 0 1 0 0 0 1 73.085726493118074 33.27054447041067 15.879534259518618 1 rotate no_reflect no_shear #
lump $-1 $-1 $38 $5 #
transform $-1 1 0 0 0 1 0 0 0 1 73.085726493118074 33.27054447041067 15.879534259518618 1 rotate no_reflect no_shear #
lump $-1 $-1 $39 $6 #
transform $-1 1 0 0 0 1 0 0 0 1 73.085726493118074 33.27054447041067 15.879534259518618 1 rotate no_reflect no_shear #
lump $-1 $-1 $40 $7 #
transform $-1 1 0 0 0 1 0 0 0 1 73.085726493118074 33.27054447041067 15.879534259518618 1 rotate no_reflect no_shear #
lump $-1 $-1 $41 $8 #
transform $-1 1 0 0 0 1 0 0 0 1 73.085726493118074 33.27054447041067 15.879534259518618 1 rotate no_reflect no_shear #
lump $-1 $-1 $42 $9 #
transform $-1 1 0 0 0 1 0 0 0 1 73.085726493118074 33.27054447041067 15.879534259518618 1 rotate no_reflect no_shear #
lump $-1 $-1 $43 $10 #
transform $-1 1 0 0 0 1 0 0 0 1 73.085726493118074 33.27054447041067 15.879534259518618 1 rotate no_reflect no_shear #
shell $-1 $-1 $-1 $44 $-1 $11 #
shell $-1 $-1 $-1 $45 $-1 $13 #
shell $-1 $-1 $-1 $46 $-1 $15 #
shell $-1 $-1 $-1 $47 $-1 $17 #
shell $-1 $-1 $-1 $48 $-1 $19 #
shell $-1 $-1 $-1 $49 $-1 $21 #
shell $-1 $-1 $-1 $50 $-1 $23 #
shell $-1 $-1 $-1 $51 $-1 $25 #
shell $-1 $-1 $-1 $52 $-1 $27 #
shell $-1 $-1 $-1 $53 $-1 $29 #
shell $-1 $-1 $-1 $54 $-1 $31 #
face $-1 $55 $56 $33 $-1 $57 forward single #
face $-1 $58 $59 $34 $-1 $60 forward single #
face $-1 $61 $62 $35 $-1 $63 forward single #
face $-1 $64 $65 $36 $-1 $66 reversed single #
face $-1 $67 $68 $37 $-1 $69 forward single #
face $-1 $70 $71 $38 $-1 $72 forward single #
face $-1 $73 $74 $39 $-1 $75 forward single #
face $-1 $76 $77 $40 $-1 $78 reversed single #
face $-1 $79 $80 $41 $-1 $81 forward single #
face $-1 $82 $83 $42 $-1 $84 forward single #
face $-1 $85 $86 $43 $-1 $87 forward single #
face $-1 $88 $89 $33 $-1 $90 reversed single #
loop $-1 $-1 $91 $44 #
plane-surface $-1 0 0 15.879534259518618 0 0 1 1 0 0 forward_v I I I I #
face $-1 $92 $93 $34 $-1 $94 reversed single #
loop $-1 $-1 $95 $45 #
plane-surface $-1 -73.085726493118074 0 0 1 0 0 0 0 -1 forward_v I I I I #
face $-1 $96 $97 $35 $-1 $98 reversed single #
loop $-1 $-1 $99 $46 #
plane-surface $-1 73.085726493118074 0 0 -1 0 0 0 0 1 forward_v I I I I #
face $-1 $100 $101 $36 $-1 $102 reversed single #
loop $-1 $-1 $103 $47 #
plane-surface $-1 -35.190670713603794 102.47258813533955 152.19445560012508 1 0 0 0 -0.7660444514056185 -0.64278759981090561 forward_v I I I I #
face $-1 $104 $105 $37 $-1 $106 forward single #
loop $-1 $107 $108 $48 #
cone-surface $-1 -32.383846212388931 28.867489953389896 10.910187897560098 0 -0.7660444514056185 -0.64278759981090561 1 0 0 1 I I 0 1 1 forward I I I I #
face $-1 $109 $110 $38 $-1 $111 forward single #
loop $-1 $112 $113 $49 #
cone-surface $-1 -28.173609460566624 28.867489953389896 10.910187897560098 0 -0.7660444514056185 -0.64278759981090561 1 0 0 1 I I 0 1 1 forward I I I I #
face $-1 $114 $115 $39 $-1 $116 forward single #
loop $-1 $117 $118 $50 #
cone-surface $-1 -23.963372708744316 28.867489953389896 10.910187897560098 0 -0.7660444514056185 -0.64278759981090561 1 0 0 1 I I 0 1 1 forward I I I I #
face $-1 $119 $120 $40 $-1 $121 reversed single #
loop $-1 $-1 $122 $51 #
plane-surface $-1 23.495133362065626 102.47258813533955 152.19445560012508 1 0 0 0 -0.7660444514056185 -0.64278759981090561 forward_v I I I I #
face $-1 $123 $124 $41 $-1 $125 forward single #
loop $-1 $126 $127 $52 #
cone-surface $-1 26.301957863280506 28.867489953389896 10.910187897560098 0 -0.7660444514056185 -0.64278759981090561 1 0 0 1 I I 0 1 1 forward I I I I #
face $-1 $128 $129 $42 $-1 $130 forward single #
loop $-1 $131 $132 $53 #
cone-surface $-1 30.5121946151028 28.867489953389896 10.910187897560098 0 -0.7660444514056185 -0.64278759981090561 1 0 0 1 I I 0 1 1 forward I I I I #
face $-1 $133 $134 $43 $-1 $135 forward single #
loop $-1 $136 $137 $54 #
cone-surface $-1 34.722431366925122 28.867489953389896 10.910187897560098 0 -0.7660444514056185 -0.64278759981090561 1 0 0 1 I I 0 1 1 forward I I I I #
face $-1 $138 $139 $33 $-1 $140 reversed single #
loop $-1 $-1 $141 $55 #
plane-surface $-1 0 0 -15.879534259518618 0 0 1 1 0 0 forward_v I I I I #
coedge $-1 $142 $143 $144 $145 forward $56 $-1 #
face $-1 $146 $147 $34 $-1 $148 reversed single #
loop $-1 $-1 $149 $58 #
plane-surface $-1 0 0 -15.879534259518618 0 0 1 1 0 0 forward_v I I I I #
coedge $-1 $150 $151 $152 $153 forward $59 $-1 #
face $-1 $154 $155 $35 $-1 $156 reversed single #
loop $-1 $-1 $157 $61 #
plane-surface $-1 0 0 -15.879534259518618 0 0 1 1 0 0 forward_v I I I I #
coedge $-1 $158 $159 $160 $161 forward $62 $-1 #
face $-1 $162 $163 $36 $-1 $164 reversed single #
loop $-1 $-1 $165 $64 #
plane-surface $-1 -28.173609460566624 -9.5012423786638749 58.237258174229723 0 0.7660444514056185 0.64278759981090561 1 0 0 forward_v I I I I #
coedge $-1 $166 $167 $168 $169 reversed $65 $-1 #
face $-1 $-1 $170 $37 $-1 $171 forward single #
loop $-1 $172 $173 $67 #
cone-surface $-1 -32.383846212388931 27.696131843302702 9.9273017651425555 0 -0.7660444514056185 -0.64278759981090561 0.5 0 0 1 I I -0.70710678118654746 0.70710678118654746 0.5 forward I I I I #
loop $-1 $-1 $174 $48 #
coedge $-1 $108 $108 $175 $176 reversed $68 $-1 #
face $-1 $-1 $177 $38 $-1 $178 forward single #
loop $-1 $179 $180 $70 #
cone-surface $-1 -28.173609460566624 27.696131843302702 9.9273017651425555 0 -0.7660444514056185 -0.64278759981090561 0.5 0 0 1 I I -0.70710678118654746 0.70710678118654746 0.5 forward I I I I #
loop $-1 $-1 $181 $49 #
coedge $-1 $113 $113 $182 $183 reversed $71 $-1 #
face $-1 $-1 $184 $39 $-1 $185 forward single #
loop $-1 $186 $187 $73 #
cone-surface $-1 -23.963372708744316 27.696131843302702 9.9273017651425555 0 -0.7660444514056185 -0.64278759981090561 0.5 0 0 1 I I -0.70710678118654746 0.70710678118654746 0.5 forward I I I I #
loop $-1 $-1 $188 $50 #
coedge $-1 $118 $118 $189 $190 reversed $74 $-1 #
face $-1 $191 $192 $40 $-1 $193 reversed single #
loop $-1 $-1 $194 $76 #
plane-surface $-1 30.5121946151028 -9.5012423786638749 58.237258174229723 0 0.7660444514056185 0.64278759981090561 1 0 0 forward_v I I I I #
coedge $-1 $195 $196 $197 $198 reversed $77 $-1 #
face $-1 $-1 $199 $41 $-1 $200 forward single #
loop $-1 $201 $202 $79 #
cone-surface $-1 26.301957863280506 27.696131843302702 9.9273017651425555 0 -0.7660444514056185 -0.64278759981090561 0.5 0 0 1 I I -0.70710678118654746 0.70710678118654746 0.5 forward I I I I #
loop $-1 $-1 $203 $52 #
coedge $-1 $127 $127 $204 $205 reversed $80 $-1 #
face $-1 $-1 $206 $42 $-1 $207 forward single #
loop $-1 $208 $209 $82 #
cone-surface $-1 30.5121946151028 27.696131843302702 9.9273017651425555 0 -0.7660444514056185 -0.64278759981090561 0.5 0 0 1 I I -0.70710678118654746 0.70710678118654746 0.5 forward I I I I #
loop $-1 $-1 $210 $53 #
coedge $-1 $132 $132 $211 $212 reversed $83 $-1 #
face $-1 $-1 $213 $43 $-1 $214 forward single #
loop $-1 $215 $216 $85 #
cone-surface $-1 34.722431366925122 27.696131843302702 9.9273017651425555 0 -0.7660444514056185 -0.64278759981090561 0.5 0 0 1 I I -0.70710678118654746 0.70710678118654746 0.5 forward I I I I #
loop $-1 $-1 $217 $54 #
coedge $-1 $137 $137 $218 $219 reversed $86 $-1 #
face $-1 $220 $221 $33 $-1 $222 reversed single #
loop $-1 $-1 $223 $88 #
plane-surface $-1 0 -33.27054447041067 0 0 1 0 0 0 1 forward_v I I I I #
coedge $-1 $224 $225 $226 $227 forward $89 $-1 #
coedge $-1 $228 $91 $229 $230 forward $56 $-1 #
coedge $-1 $91 $228 $231 $232 forward $56 $-1 #
coedge $-1 $233 $234 $91 $145 reversed $235 $-1 #
edge $-1 $236 -33.27054447041067 $237 33.27054447041067 $144 $238 forward 7 unknown #
face $-1 $239 $240 $34 $-1 $241 reversed single #
loop $-1 $-1 $242 $92 #
plane-surface $-1 -80.285687701842392 -9.6473686805109935 0 0 1 0 0 0 1 forward_v I I I I #
coedge $-1 $243 $244 $151 $245 forward $93 $-1 #
coedge $-1 $246 $95 $247 $248 reversed $59 $-1 #
coedge $-1 $95 $246 $149 $245 reversed $59 $-1 #
coedge $-1 $249 $250 $95 $153 reversed $251 $-1 #
edge $-1 $252 -15.879534259518618 $253 15.879534259518618 $152 $254 forward 7 unknown #
face $-1 $255 $256 $35 $-1 $257 reversed single #
loop $-1 $-1 $160 $96 #
plane-surface $-1 80.285687701842392 -9.6473686805109935 0 0 1 0 0 0 1 forward_v I I I I #
coedge $-1 $258 $259 $159 $260 forward $97 $-1 #
coedge $-1 $261 $99 $262 $263 reversed $62 $-1 #
coedge $-1 $99 $261 $157 $260 reversed $62 $-1 #
coedge $-1 $264 $265 $99 $161 reversed $155 $-1 #
edge $-1 $266 -15.879534259518618 $267 15.879534259518618 $160 $268 forward 7 unknown #
face $-1 $269 $270 $36 $-1 $271 reversed single #
loop $-1 $-1 $272 $100 #
plane-surface $-1 -21.15654820752945 102.47258813533955 152.19445560012508 -1 0 0 0 0.7660444514056185 0.64278759981090561 forward_v I I I I #
coedge $-1 $273 $274 $275 $276 reversed $101 $-1 #
coedge $-1 $167 $103 $277 $278 reversed $65 $-1 #
coedge $-1 $103 $166 $273 $279 reversed $65 $-1 #
coedge $-1 $275 $280 $103 $169 forward $281 $-1 #
edge $-1 $282 17.965749597259105 $283 25.19518686253187 $168 $284 forward 7 unknown #
loop $-1 $-1 $175 $104 #
plane-surface $-1 -28.173609460566624 -9.5012423786638749 58.237258174229723 0 0.7660444514056185 0.64278759981090561 1 0 0 forward_v I I I I #
loop $-1 $-1 $285 $67 #
coedge $-1 $173 $173 $174 $286 reversed $105 $-1 #
coedge $-1 $174 $174 $173 $286 forward $107 $-1 #
coedge $-1 $175 $175 $108 $176 forward $170 $-1 #
edge $-1 $287 8.7579260533283984e-016 $287 6.2831853071796013 $175 $288 forward 7 unknown #
loop $-1 $-1 $182 $109 #
plane-surface $-1 -28.173609460566624 -9.5012423786638749 58.237258174229723 0 0.7660444514056185 0.64278759981090561 1 0 0 forward_v I I I I #
loop $-1 $-1 $289 $70 #
coedge $-1 $180 $180 $181 $290 reversed $110 $-1 #
coedge $-1 $181 $181 $180 $290 forward $112 $-1 #
coedge $-1 $182 $182 $113 $183 forward $177 $-1 #
edge $-1 $291 8.7579260533283984e-016 $291 6.2831853071796013 $182 $292 forward 7 unknown #
loop $-1 $-1 $189 $114 #
plane-surface $-1 -28.173609460566624 -9.5012423786638749 58.237258174229723 0 0.7660444514056185 0.64278759981090561 1 0 0 forward_v I I I I #
loop $-1 $-1 $293 $73 #
coedge $-1 $187 $187 $188 $294 reversed $115 $-1 #
coedge $-1 $188 $188 $187 $294 forward $117 $-1 #
coedge $-1 $189 $189 $118 $190 forward $184 $-1 #
edge $-1 $295 8.7579260533283984e-016 $295 6.2831853071796013 $189 $296 forward 7 unknown #
face $-1 $297 $298 $40 $-1 $299 forward single #
loop $-1 $-1 $300 $119 #
plane-surface $-1 37.52925586813997 102.47258813533955 152.19445560012508 -1 0 0 0 0.7660444514056185 0.64278759981090561 forward_v I I I I #
coedge $-1 $301 $302 $303 $304 reversed $120 $-1 #
coedge $-1 $196 $122 $305 $306 reversed $77 $-1 #
coedge $-1 $122 $195 $301 $307 reversed $77 $-1 #
coedge $-1 $303 $308 $122 $198 forward $298 $-1 #
edge $-1 $309 17.965749597259105 $310 25.19518686253187 $197 $311 forward 7 unknown #
loop $-1 $-1 $204 $123 #
plane-surface $-1 30.5121946151028 -9.5012423786638749 58.237258174229723 0 0.7660444514056185 0.64278759981090561 1 0 0 forward_v I I I I #
loop $-1 $-1 $312 $79 #
coedge $-1 $202 $202 $203 $313 reversed $124 $-1 #
coedge $-1 $203 $203 $202 $313 forward $126 $-1 #
coedge $-1 $204 $204 $127 $205 forward $199 $-1 #
edge $-1 $314 8.7579260533283984e-016 $314 6.2831853071796013 $204 $315 forward 7 unknown #
loop $-1 $-1 $211 $128 #
plane-surface $-1 30.5121946151028 -9.5012423786638749 58.237258174229723 0 0.7660444514056185 0.64278759981090561 1 0 0 forward_v I I I I #
loop $-1 $-1 $316 $82 #
coedge $-1 $209 $209 $210 $317 reversed $129 $-1 #
coedge $-1 $210 $210 $209 $317 forward $131 $-1 #
coedge $-1 $211 $211 $132 $212 forward $206 $-1 #
edge $-1 $318 8.7579260533283984e-016 $318 6.2831853071796013 $211 $319 forward 7 unknown #
loop $-1 $-1 $218 $133 #
plane-surface $-1 30.5121946151028 -9.5012423786638749 58.237258174229723 0 0.7660444514056185 0.64278759981090561 1 0 0 forward_v I I I I #
loop $-1 $-1 $320 $85 #
coedge $-1 $216 $216 $217 $321 reversed $134 $-1 #
coedge $-1 $217 $217 $216 $321 forward $136 $-1 #
coedge $-1 $218 $218 $137 $219 forward $213 $-1 #
edge $-1 $322 8.7579260533283984e-016 $322 6.2831853071796013 $218 $323 forward 7 unknown #
face $-1 $324 $325 $33 $-1 $326 reversed single #
loop $-1 $-1 $327 $138 #
plane-surface $-1 -73.085726493118074 0 0 1 0 0 0 0 -1 forward_v I I I I #
coedge $-1 $328 $231 $329 $330 forward $139 $-1 #
coedge $-1 $331 $141 $328 $332 forward $89 $-1 #
coedge $-1 $141 $331 $333 $334 forward $89 $-1 #
coedge $-1 $234 $233 $141 $227 reversed $235 $-1 #
edge $-1 $335 -33.27054447041067 $336 33.27054447041067 $226 $337 forward 7 unknown #
coedge $-1 $143 $142 $338 $339 forward $56 $-1 #
coedge $-1 $340 $341 $142 $230 reversed $325 $-1 #
edge $-1 $237 -73.085726493118074 $342 73.085726493118074 $229 $343 forward 7 unknown #
coedge $-1 $223 $344 $143 $232 reversed $139 $-1 #
edge $-1 $345 -73.085726493118074 $236 73.085726493118074 $231 $346 forward 7 unknown #
coedge $-1 $226 $144 $344 $347 forward $235 $-1 #
coedge $-1 $144 $226 $340 $348 reversed $235 $-1 #
loop $-1 $-1 $233 $324 #
vertex $-1 $145 $349 #
vertex $-1 $145 $350 #
straight-curve $-1 73.085726493118074 0 15.879534259518618 0 1 0 I I #
face $-1 $351 $251 $34 $-1 $352 reversed single #
loop $-1 $-1 $353 $146 #
plane-surface $-1 -87.485648910566709 -5.5794223159422138 0 1 0 0 0 0 -1 forward_v I I I I #
coedge $-1 $354 $355 $356 $357 forward $147 $-1 #
coedge $-1 $358 $149 $354 $359 forward $93 $-1 #
coedge $-1 $149 $358 $249 $360 forward $93 $-1 #
edge $-1 $252 1.5114759513734342 $361 9.6473686805109935 $149 $362 forward 7 unknown #
coedge $-1 $151 $150 $363 $364 forward $59 $-1 #
coedge $-1 $365 $366 $150 $248 forward $367 $-1 #
edge $-1 $368 -9.6473686805109935 $253 -1.5114759513734342 $247 $369 forward 7 unknown #
coedge $-1 $370 $152 $244 $360 reversed $251 $-1 #
coedge $-1 $152 $370 $365 $371 reversed $251 $-1 #
loop $-1 $-1 $152 $239 #
vertex $-1 $245 $372 #
vertex $-1 $371 $373 #
straight-curve $-1 -73.085726493118074 -1.5114759513734342 0 0 0 1 I I #
face $-1 $374 $375 $35 $-1 $376 reversed single #
loop $-1 $-1 $377 $154 #
plane-surface $-1 80.285687701842392 -1.5114759513734342 0 0 -1 0 0 0 -1 forward_v I I I I #
coedge $-1 $378 $157 $379 $380 forward $97 $-1 #
coedge $-1 $157 $378 $264 $381 forward $97 $-1 #
edge $-1 $266 -9.6473686805109935 $382 -1.5114759513734342 $157 $383 forward 7 unknown #
coedge $-1 $159 $158 $384 $385 forward $62 $-1 #
coedge $-1 $386 $387 $158 $263 forward $388 $-1 #
edge $-1 $389 1.5114759513734342 $267 9.6473686805109935 $262 $390 forward 7 unknown #
coedge $-1 $391 $160 $259 $381 reversed $155 $-1 #
coedge $-1 $160 $391 $386 $392 reversed $155 $-1 #
vertex $-1 $260 $393 #
vertex $-1 $392 $394 #
straight-curve $-1 73.085726493118074 -9.6473686805109935 0 0 0 1 I I #
face $-1 $-1 $281 $36 $-1 $395 forward single #
loop $-1 $-1 $396 $162 #
plane-surface $-1 0 33.27054447041067 0 0 -1 0 0 0 -1 forward_v I I I I #
coedge $-1 $397 $398 $399 $400 reversed $163 $-1 #
coedge $-1 $401 $165 $167 $279 forward $101 $-1 #
coedge $-1 $165 $401 $397 $402 forward $101 $-1 #
coedge $-1 $399 $168 $165 $276 forward $281 $-1 #
edge $-1 $283 -21.103865983320482 $403 -7.0697434772461385 $275 $404 forward 7 unknown #
coedge $-1 $405 $406 $166 $278 forward $270 $-1 #
edge $-1 $407 -68.833401599436769 $282 -60.21769354054392 $277 $408 forward 7 unknown #
edge $-1 $283 55.294080959647616 $407 66.541088940821368 $167 $409 forward 7 unknown #
coedge $-1 $168 $399 $405 $410 forward $281 $-1 #
loop $-1 $-1 $399 $269 #
vertex $-1 $278 $411 #
vertex $-1 $169 $412 #
straight-curve $-1 -35.190670713603794 51.236294067669775 15.879534259518621 0 -1 0 I I #
coedge $-1 $285 $285 $-1 $413 reversed $172 $-1 #
edge $-1 $414 0 $414 6.2831853071796004 $173 $415 forward 7 unknown #
vertex $-1 $176 $416 #
ellipse-curve $-1 -32.383846212388931 29.655825837774287 11.571680230072193 0 0.7660444514056185 0.64278759981090561 1 0 0 1 I I #
coedge $-1 $289 $289 $-1 $417 reversed $179 $-1 #
edge $-1 $418 0 $418 6.2831853071796004 $180 $419 forward 7 unknown #
vertex $-1 $183 $420 #
ellipse-curve $-1 -28.173609460566624 29.655825837774287 11.571680230072193 0 0.7660444514056185 0.64278759981090561 1 0 0 1 I I #
coedge $-1 $293 $293 $-1 $421 reversed $186 $-1 #
edge $-1 $422 0 $422 6.2831853071796004 $187 $423 forward 7 unknown #
vertex $-1 $190 $424 #
ellipse-curve $-1 -23.963372708744316 29.655825837774287 11.571680230072193 0 0.7660444514056185 0.64278759981090561 1 0 0 1 I I #
face $-1 $-1 $425 $40 $-1 $426 reversed single #
loop $-1 $-1 $197 $191 #
plane-surface $-1 0 0 15.879534259518618 0 0 1 1 0 0 forward_v I I I I #
coedge $-1 $427 $428 $429 $430 reversed $192 $-1 #
coedge $-1 $431 $194 $196 $307 forward $120 $-1 #
coedge $-1 $194 $431 $427 $432 forward $120 $-1 #
coedge $-1 $429 $197 $194 $304 forward $298 $-1 #
edge $-1 $310 8.2390360545142265 $433 22.27315856058857 $303 $434 forward 7 unknown #
coedge $-1 $435 $436 $195 $306 forward $425 $-1 #
edge $-1 $437 -68.833401599436769 $309 -60.21769354054392 $305 $438 forward 7 unknown #
edge $-1 $310 55.294080959647616 $437 66.541088940821368 $196 $439 forward 7 unknown #
coedge $-1 $197 $429 $435 $440 forward $298 $-1 #
vertex $-1 $306 $441 #
vertex $-1 $198 $442 #
straight-curve $-1 23.495133362065626 51.236294067669775 15.879534259518621 0 -1 0 I I #
coedge $-1 $312 $312 $-1 $443 reversed $201 $-1 #
edge $-1 $444 0 $444 6.2831853071796004 $202 $445 forward 7 unknown #
vertex $-1 $205 $446 #
ellipse-curve $-1 26.301957863280506 29.655825837774287 11.571680230072193 0 0.7660444514056185 0.64278759981090561 1 0 0 1 I I #
coedge $-1 $316 $316 $-1 $447 reversed $208 $-1 #
edge $-1 $448 0 $448 6.2831853071796004 $209 $449 forward 7 unknown #
vertex $-1 $212 $450 #
ellipse-curve $-1 30.5121946151028 29.655825837774287 11.571680230072193 0 0.7660444514056185 0.64278759981090561 1 0 0 1 I I #
coedge $-1 $320 $320 $-1 $451 reversed $215 $-1 #
edge $-1 $452 0 $452 6.2831853071796004 $216 $453 forward 7 unknown #
vertex $-1 $219 $454 #
ellipse-curve $-1 34.722431366925122 29.655825837774287 11.571680230072193 0 0.7660444514056185 0.64278759981090561 1 0 0 1 I I #
face $-1 $-1 $235 $33 $-1 $455 reversed single #
loop $-1 $-1 $340 $220 #
plane-surface $-1 0 33.27054447041067 0 0 -1 0 0 0 -1 forward_v I I I I #
coedge $-1 $456 $338 $341 $457 forward $221 $-1 #
coedge $-1 $344 $223 $224 $332 reversed $139 $-1 #
coedge $-1 $338 $456 $223 $330 reversed $221 $-1 #
edge $-1 $345 -15.879534259518618 $458 15.879534259518618 $329 $459 forward 7 unknown #
coedge $-1 $225 $224 $456 $460 forward $89 $-1 #
edge $-1 $336 -73.085726493118074 $458 73.085726493118074 $328 $461 forward 7 unknown #
coedge $-1 $341 $340 $225 $334 reversed $325 $-1 #
edge $-1 $462 -73.085726493118074 $335 73.085726493118074 $333 $463 forward 7 unknown #
vertex $-1 $227 $464 #
vertex $-1 $347 $465 #
straight-curve $-1 73.085726493118074 0 -15.879534259518618 0 -1 0 I I #
coedge $-1 $327 $329 $228 $339 reversed $221 $-1 #
edge $-1 $342 -33.27054447041067 $345 33.27054447041067 $338 $466 forward 7 unknown #
coedge $-1 $333 $229 $234 $348 forward $325 $-1 #
coedge $-1 $229 $333 $327 $457 reversed $325 $-1 #
vertex $-1 $230 $467 #
straight-curve $-1 0 33.27054447041067 15.879534259518618 -1 0 0 I I #
coedge $-1 $231 $328 $233 $347 reversed $139 $-1 #
vertex $-1 $339 $468 #
straight-curve $-1 0 -33.27054447041067 15.879534259518618 1 0 0 I I #
edge $-1 $236 -15.879534259518618 $336 15.879534259518618 $233 $469 forward 7 unknown #
edge $-1 $237 -15.879534259518618 $335 15.879534259518618 $234 $470 forward 7 unknown #
point $-1 73.085726493118074 -33.27054447041067 15.879534259518618 #
point $-1 73.085726493118074 33.27054447041067 15.879534259518618 #
face $-1 $-1 $367 $34 $-1 $471 forward single #
plane-surface $-1 -80.285687701842392 -1.5114759513734342 0 0 -1 0 0 0 -1 forward_v I I I I #
coedge $-1 $472 $473 $370 $474 forward $240 $-1 #
coedge $-1 $363 $242 $243 $359 reversed $147 $-1 #
coedge $-1 $242 $363 $366 $475 reversed $147 $-1 #
coedge $-1 $473 $472 $242 $357 reversed $240 $-1 #
edge $-1 $476 -15.879534259518618 $477 15.879534259518618 $356 $478 forward 7 unknown #
coedge $-1 $244 $243 $472 $479 forward $93 $-1 #
edge $-1 $361 -7.1999612087243179 $477 7.1999612087243179 $354 $480 forward 7 unknown #
edge $-1 $481 -7.1999612087243179 $252 7.1999612087243179 $249 $482 forward 7 unknown #
vertex $-1 $359 $483 #
straight-curve $-1 -73.085726493118074 0 -15.879534259518618 0 -1 0 I I #
coedge $-1 $355 $354 $246 $364 reversed $147 $-1 #
edge $-1 $368 -15.879534259518618 $361 15.879534259518618 $363 $484 forward 7 unknown #
coedge $-1 $485 $247 $250 $371 forward $367 $-1 #
coedge $-1 $247 $485 $355 $475 forward $367 $-1 #
loop $-1 $-1 $247 $351 #
vertex $-1 $248 $486 #
straight-curve $-1 -73.085726493118074 0 15.879534259518618 0 1 0 I I #
coedge $-1 $250 $249 $353 $474 reversed $251 $-1 #
edge $-1 $253 -7.1999612087243179 $487 7.1999612087243179 $250 $488 forward 7 unknown #
point $-1 -73.085726493118074 -1.5114759513734342 -15.879534259518618 #
point $-1 -73.085726493118074 -1.5114759513734342 15.879534259518618 #
face $-1 $-1 $388 $35 $-1 $489 forward single #
loop $-1 $-1 $490 $255 #
plane-surface $-1 87.485648910566709 -5.5794223159422138 0 -1 0 0 0 0 1 forward_v I I I I #
coedge $-1 $379 $491 $492 $493 forward $256 $-1 #
coedge $-1 $259 $258 $494 $495 forward $97 $-1 #
coedge $-1 $384 $377 $258 $380 reversed $256 $-1 #
edge $-1 $382 -7.1999612087243179 $496 7.1999612087243179 $379 $497 forward 7 unknown #
edge $-1 $498 -7.1999612087243179 $266 7.1999612087243179 $264 $499 forward 7 unknown #
vertex $-1 $380 $500 #
straight-curve $-1 73.085726493118074 0 -15.879534259518618 0 1 0 I I #
coedge $-1 $491 $379 $261 $385 reversed $256 $-1 #
edge $-1 $389 -15.879534259518618 $382 15.879534259518618 $384 $501 forward 7 unknown #
coedge $-1 $502 $262 $265 $392 forward $388 $-1 #
coedge $-1 $262 $502 $491 $503 forward $388 $-1 #
loop $-1 $-1 $262 $374 #
vertex $-1 $263 $504 #
straight-curve $-1 73.085726493118074 0 15.879534259518618 0 -1 0 I I #
coedge $-1 $265 $264 $490 $505 reversed $155 $-1 #
edge $-1 $267 -7.1999612087243179 $506 7.1999612087243179 $265 $507 forward 7 unknown #
point $-1 73.085726493118074 -9.6473686805109935 -15.879534259518618 #
point $-1 73.085726493118074 -9.6473686805109935 15.879534259518618 #
plane-surface $-1 0 0 15.879534259518618 0 0 1 1 0 0 forward_v I I I I #
coedge $-1 $406 $405 $398 $508 forward $270 $-1 #
coedge $-1 $398 $272 $274 $402 reversed $163 $-1 #
coedge $-1 $272 $397 $396 $508 reversed $163 $-1 #
coedge $-1 $280 $275 $272 $400 forward $281 $-1 #
edge $-1 $403 -25.19518686253187 $509 -17.965749597259105 $399 $510 forward 7 unknown #
coedge $-1 $274 $273 $406 $511 reversed $101 $-1 #
edge $-1 $512 -66.541088940821368 $403 -55.294080959647616 $397 $513 forward 7 unknown #
vertex $-1 $276 $514 #
straight-curve $-1 -14.086804730283312 26.041107205137905 15.879534259518618 1 0 0 I I #
coedge $-1 $396 $277 $280 $410 reversed $270 $-1 #
coedge $-1 $277 $396 $401 $511 forward $270 $-1 #
vertex $-1 $278 $515 #
straight-curve $-1 -35.190670713603794 33.27054447041067 76.097227800062541 0 0 1 I I #
straight-curve $-1 -35.190670713603794 -9.5012423786638749 58.237258174229723 0 0.64278759981090561 -0.7660444514056185 I I #
edge $-1 $509 21.15654820752945 $282 35.190670713603794 $405 $516 forward 7 unknown #
point $-1 -35.190670713603794 33.27054447041067 15.879534259518618 #
point $-1 -35.190670713603794 26.041107205137905 15.879534259518621 #
edge $-1 $517 1 $517 0 $285 $-1 forward 7 unknown #
vertex $-1 $286 $518 #
ellipse-curve $-1 -32.383846212388931 28.079154069005511 10.248695565048008 0 0.7660444514056185 0.64278759981090561 1 0 0 1 I I #
point $-1 -31.383846212388931 29.65582583777428 11.571680230072186 #
edge $-1 $519 1 $519 0 $289 $-1 forward 7 unknown #
vertex $-1 $290 $520 #
ellipse-curve $-1 -28.173609460566624 28.079154069005511 10.248695565048008 0 0.7660444514056185 0.64278759981090561 1 0 0 1 I I #
point $-1 -27.173609460566624 29.65582583777428 11.571680230072186 #
edge $-1 $521 1 $521 0 $293 $-1 forward 7 unknown #
vertex $-1 $294 $522 #
ellipse-curve $-1 -23.963372708744316 28.079154069005511 10.248695565048008 0 0.7660444514056185 0.64278759981090561 1 0 0 1 I I #
point $-1 -22.963372708744316 29.65582583777428 11.571680230072186 #
loop $-1 $-1 $305 $297 #
plane-surface $-1 0 33.27054447041067 0 0 -1 0 0 0 -1 forward_v I I I I #
coedge $-1 $428 $300 $302 $432 reversed $192 $-1 #
coedge $-1 $300 $427 $523 $524 reversed $192 $-1 #
coedge $-1 $308 $303 $300 $430 forward $298 $-1 #
edge $-1 $433 -25.19518686253187 $525 -17.965749597259105 $429 $526 forward 7 unknown #
coedge $-1 $302 $301 $436 $527 reversed $120 $-1 #
edge $-1 $528 -66.541088940821368 $433 -55.294080959647616 $427 $529 forward 7 unknown #
vertex $-1 $304 $530 #
straight-curve $-1 15.2560973075514 26.041107205137905 15.879534259518618 1 0 0 I I #
coedge $-1 $523 $305 $308 $440 reversed $425 $-1 #
coedge $-1 $305 $523 $431 $527 forward $425 $-1 #
vertex $-1 $306 $531 #
straight-curve $-1 23.495133362065626 33.27054447041067 76.097227800062541 0 0 1 I I #
straight-curve $-1 23.495133362065626 -9.5012423786638749 58.237258174229723 0 0.64278759981090561 -0.7660444514056185 I I #
edge $-1 $525 -37.52925586813997 $309 -23.495133362065626 $435 $532 forward 7 unknown #
point $-1 23.495133362065626 33.27054447041067 15.879534259518618 #
point $-1 23.495133362065626 26.041107205137905 15.879534259518621 #
edge $-1 $533 1 $533 0 $312 $-1 forward 7 unknown #
vertex $-1 $313 $534 #
ellipse-curve $-1 26.301957863280506 28.079154069005511 10.248695565048008 0 0.7660444514056185 0.64278759981090561 1 0 0 1 I I #
point $-1 27.301957863280506 29.65582583777428 11.571680230072186 #
edge $-1 $535 1 $535 0 $316 $-1 forward 7 unknown #
vertex $-1 $317 $536 #
ellipse-curve $-1 30.5121946151028 28.079154069005511 10.248695565048008 0 0.7660444514056185 0.64278759981090561 1 0 0 1 I I #
point $-1 31.5121946151028 29.65582583777428 11.571680230072186 #
edge $-1 $537 1 $537 0 $320 $-1 forward 7 unknown #
vertex $-1 $321 $538 #
ellipse-curve $-1 34.722431366925122 28.079154069005511 10.248695565048008 0 0.7660444514056185 0.64278759981090561 1 0 0 1 I I #
point $-1 35.722431366925122 29.65582583777428 11.571680230072186 #
plane-surface $-1 73.085726493118074 0 0 -1 0 0 0 0 1 forward_v I I I I #
coedge $-1 $329 $327 $331 $460 reversed $221 $-1 #
edge $-1 $342 -15.879534259518618 $462 15.879534259518618 $341 $539 forward 7 unknown #
vertex $-1 $460 $540 #
straight-curve $-1 -73.085726493118074 -33.27054447041067 0 0 0 -1 I I #
edge $-1 $458 -33.27054447041067 $462 33.27054447041067 $456 $541 forward 7 unknown #
straight-curve $-1 0 -33.27054447041067 -15.879534259518618 -1 0 0 I I #
vertex $-1 $334 $542 #
straight-curve $-1 0 33.27054447041067 -15.879534259518618 1 0 0 I I #
point $-1 73.085726493118074 33.27054447041067 -15.879534259518618 #
point $-1 73.085726493118074 -33.27054447041067 -15.879534259518618 #
straight-curve $-1 -73.085726493118074 0 15.879534259518618 0 -1 0 I I #
point $-1 -73.085726493118074 33.27054447041067 15.879534259518618 #
point $-1 -73.085726493118074 -33.27054447041067 15.879534259518618 #
straight-curve $-1 73.085726493118074 -33.27054447041067 0 0 0 -1 I I #
straight-curve $-1 73.085726493118074 33.27054447041067 0 0 0 -1 I I #
plane-surface $-1 0 0 15.879534259518618 0 0 1 1 0 0 forward_v I I I I #
coedge $-1 $356 $353 $358 $479 reversed $240 $-1 #
coedge $-1 $353 $356 $485 $543 reversed $240 $-1 #
edge $-1 $487 -15.879534259518618 $481 15.879534259518618 $370 $544 forward 7 unknown #
edge $-1 $476 -7.1999612087243179 $368 7.1999612087243179 $355 $545 forward 7 unknown #
vertex $-1 $543 $546 #
vertex $-1 $479 $547 #
straight-curve $-1 -87.485648910566709 -9.6473686805109935 0 0 0 -1 I I #
edge $-1 $477 -4.0679463645687797 $481 4.0679463645687797 $472 $548 forward 7 unknown #
straight-curve $-1 -80.285687701842392 -9.6473686805109935 -15.879534259518618 -1 0 0 I I #
vertex $-1 $360 $549 #
straight-curve $-1 -80.285687701842392 -1.5114759513734342 -15.879534259518618 1 0 0 I I #
point $-1 -73.085726493118074 -9.6473686805109935 -15.879534259518618 #
straight-curve $-1 -73.085726493118074 -9.6473686805109935 0 0 0 -1 I I #
coedge $-1 $366 $365 $473 $543 forward $367 $-1 #
point $-1 -73.085726493118074 -9.6473686805109935 15.879534259518618 #
vertex $-1 $371 $550 #
straight-curve $-1 -80.285687701842392 -1.5114759513734342 15.879534259518618 -1 0 0 I I #
plane-surface $-1 0 0 15.879534259518618 0 0 1 1 0 0 forward_v I I I I #
coedge $-1 $494 $551 $391 $505 forward $375 $-1 #
coedge $-1 $377 $384 $387 $503 reversed $256 $-1 #
coedge $-1 $551 $494 $377 $493 reversed $375 $-1 #
edge $-1 $552 -15.879534259518618 $496 15.879534259518618 $492 $553 forward 7 unknown #
coedge $-1 $492 $490 $378 $495 reversed $375 $-1 #
edge $-1 $496 -4.0679463645687797 $498 4.0679463645687797 $494 $554 forward 7 unknown #
vertex $-1 $495 $555 #
straight-curve $-1 80.285687701842392 -1.5114759513734342 -15.879534259518618 1 0 0 I I #
vertex $-1 $505 $556 #
straight-curve $-1 80.285687701842392 -9.6473686805109935 -15.879534259518618 -1 0 0 I I #
point $-1 73.085726493118074 -1.5114759513734342 -15.879534259518618 #
straight-curve $-1 73.085726493118074 -1.5114759513734342 0 0 0 -1 I I #
coedge $-1 $387 $386 $551 $557 forward $388 $-1 #
edge $-1 $552 -7.1999612087243179 $389 7.1999612087243179 $491 $558 forward 7 unknown #
point $-1 73.085726493118074 -1.5114759513734342 15.879534259518618 #
edge $-1 $506 -15.879534259518618 $498 15.879534259518618 $490 $559 forward 7 unknown #
vertex $-1 $557 $560 #
straight-curve $-1 80.285687701842392 -9.6473686805109935 15.879534259518618 1 0 0 I I #
edge $-1 $509 60.21769354054392 $512 68.833401599436769 $396 $561 forward 7 unknown #
vertex $-1 $410 $562 #
straight-curve $-1 -21.15654820752945 51.236294067669775 15.879534259518621 0 1 0 I I #
edge $-1 $512 7.0697434772461385 $407 21.103865983320482 $406 $563 forward 7 unknown #
vertex $-1 $511 $564 #
straight-curve $-1 -21.15654820752945 -9.5012423786638749 58.237258174229723 0 -0.64278759981090561 0.7660444514056185 I I #
point $-1 -21.15654820752945 26.041107205137905 15.879534259518621 #
point $-1 -35.190670713603794 33.27054447041067 7.2638262006257719 #
straight-curve $-1 0 33.27054447041067 15.879534259518618 -1 0 0 I I #
vertex $-1 $413 $565 #
point $-1 -31.383846212388931 28.079154069005511 10.248695565048008 #
vertex $-1 $417 $566 #
point $-1 -27.173609460566624 28.079154069005511 10.248695565048008 #
vertex $-1 $421 $567 #
point $-1 -22.963372708744316 28.079154069005511 10.248695565048008 #
coedge $-1 $436 $435 $428 $524 forward $425 $-1 #
edge $-1 $525 60.21769354054392 $528 68.833401599436769 $523 $568 forward 7 unknown #
vertex $-1 $440 $569 #
straight-curve $-1 37.52925586813997 51.236294067669775 15.879534259518621 0 1 0 I I #
edge $-1 $528 -22.27315856058857 $437 -8.2390360545142265 $436 $570 forward 7 unknown #
vertex $-1 $527 $571 #
straight-curve $-1 37.52925586813997 -9.5012423786638749 58.237258174229723 0 -0.64278759981090561 0.7660444514056185 I I #
point $-1 37.52925586813997 26.041107205137905 15.879534259518621 #
point $-1 23.495133362065626 33.27054447041067 7.2638262006257719 #
straight-curve $-1 0 33.27054447041067 15.879534259518618 -1 0 0 I I #
vertex $-1 $443 $572 #
point $-1 27.301957863280506 28.079154069005511 10.248695565048008 #
vertex $-1 $447 $573 #
point $-1 31.5121946151028 28.079154069005511 10.248695565048008 #
vertex $-1 $451 $574 #
point $-1 35.722431366925122 28.079154069005511 10.248695565048008 #
straight-curve $-1 -73.085726493118074 33.27054447041067 0 0 0 -1 I I #
point $-1 -73.085726493118074 -33.27054447041067 -15.879534259518618 #
straight-curve $-1 -73.085726493118074 0 -15.879534259518618 0 1 0 I I #
point $-1 -73.085726493118074 33.27054447041067 -15.879534259518618 #
edge $-1 $487 -4.0679463645687797 $476 4.0679463645687797 $473 $575 forward 7 unknown #
straight-curve $-1 -87.485648910566709 -1.5114759513734342 0 0 0 -1 I I #
straight-curve $-1 -80.285687701842392 -9.6473686805109935 15.879534259518618 1 0 0 I I #
point $-1 -87.485648910566709 -9.6473686805109935 15.879534259518618 #
point $-1 -87.485648910566709 -9.6473686805109935 -15.879534259518618 #
straight-curve $-1 -87.485648910566709 -5.5794223159422138 -15.879534259518618 0 1 0 I I #
point $-1 -87.485648910566709 -1.5114759513734342 -15.879534259518618 #
point $-1 -87.485648910566709 -1.5114759513734342 15.879534259518618 #
coedge $-1 $490 $492 $502 $557 reversed $375 $-1 #
vertex $-1 $557 $576 #
straight-curve $-1 87.485648910566709 -1.5114759513734342 0 0 0 -1 I I #
straight-curve $-1 87.485648910566709 -5.5794223159422138 -15.879534259518618 0 -1 0 I I #
point $-1 87.485648910566709 -1.5114759513734342 -15.879534259518618 #
point $-1 87.485648910566709 -9.6473686805109935 -15.879534259518618 #
edge $-1 $506 -4.0679463645687797 $552 4.0679463645687797 $551 $577 forward 7 unknown #
straight-curve $-1 80.285687701842392 -1.5114759513734342 15.879534259518618 -1 0 0 I I #
straight-curve $-1 87.485648910566709 -9.6473686805109935 0 0 0 -1 I I #
point $-1 87.485648910566709 -9.6473686805109935 15.879534259518618 #
straight-curve $-1 -21.15654820752945 33.27054447041067 76.097227800062541 0 0 -1 I I #
point $-1 -21.15654820752945 33.27054447041067 15.879534259518618 #
straight-curve $-1 -14.086804730283312 33.27054447041067 7.2638262006257719 -1 0 0 I I #
point $-1 -21.15654820752945 33.27054447041067 7.2638262006257719 #
point $-1 -32.383846212388931 27.313109617599892 9.6059079652371029 #
point $-1 -28.173609460566624 27.313109617599892 9.6059079652371029 #
point $-1 -23.963372708744316 27.313109617599892 9.6059079652371029 #
straight-curve $-1 37.52925586813997 33.27054447041067 76.097227800062541 0 0 -1 I I #
point $-1 37.52925586813997 33.27054447041067 15.879534259518618 #
straight-curve $-1 15.2560973075514 33.27054447041067 7.2638262006257719 -1 0 0 I I #
point $-1 37.52925586813997 33.27054447041067 7.2638262006257719 #
point $-1 26.301957863280506 27.313109617599892 9.6059079652371029 #
point $-1 30.5121946151028 27.313109617599892 9.6059079652371029 #
point $-1 34.722431366925122 27.313109617599892 9.6059079652371029 #
straight-curve $-1 -87.485648910566709 -5.5794223159422138 15.879534259518618 0 -1 0 I I #
point $-1 87.485648910566709 -1.5114759513734342 15.879534259518618 #
straight-curve $-1 87.485648910566709 -5.5794223159422138 15.879534259518618 0 1 0 I I #
End-of-ACIS-data 