500 0 6 0           
7 Unknown 11 ACIS 5.0 NT 24 Thu Mar 25 21:54:47 1999 
-1 9.9999999999999995e-007 1e-010 
body $-1 $6 $-1 $7 #
body $-1 $8 $-1 $9 #
body $-1 $10 $-1 $11 #
body $-1 $12 $-1 $13 #
body $-1 $14 $-1 $15 #
body $-1 $16 $-1 $17 #
lump $-1 $-1 $18 $0 #
transform $-1 1 0 0 0 1 0 0 0 1 68.838770714438311 44.204545498722474 15.531691406805379 1 rotate no_reflect no_shear #
lump $-1 $-1 $19 $1 #
transform $-1 1 0 0 0 1 0 0 0 1 68.838770714438311 44.204545498722474 15.531691406805379 1 rotate no_reflect no_shear #
lump $-1 $-1 $20 $2 #
transform $-1 1 0 0 0 1 0 0 0 1 68.838770714438311 44.204545498722474 15.531691406805379 1 rotate no_reflect no_shear #
lump $-1 $-1 $21 $3 #
transform $-1 1 0 0 0 1 0 0 0 1 68.838770714438311 44.204545498722474 15.531691406805379 1 rotate no_reflect no_shear #
lump $-1 $-1 $22 $4 #
transform $-1 1 0 0 0 1 0 0 0 1 68.838770714438311 44.204545498722474 15.531691406805379 1 rotate no_reflect no_shear #
lump $-1 $-1 $23 $5 #
transform $-1 1 0 0 0 1 0 0 0 1 68.838770714438311 44.204545498722474 15.531691406805379 1 rotate no_reflect no_shear #
shell $-1 $-1 $-1 $24 $-1 $6 #
shell $-1 $-1 $-1 $25 $-1 $8 #
shell $-1 $-1 $-1 $26 $-1 $10 #
shell $-1 $-1 $-1 $27 $-1 $12 #
shell $-1 $-1 $-1 $28 $-1 $14 #
shell $-1 $-1 $-1 $29 $-1 $16 #
face $-1 $30 $31 $18 $-1 $32 forward single #
face $-1 $33 $34 $19 $-1 $35 forward single #
face $-1 $36 $37 $20 $-1 $38 reversed single #
face $-1 $39 $40 $21 $-1 $41 forward single #
face $-1 $42 $43 $22 $-1 $44 reversed single #
face $-1 $45 $46 $23 $-1 $47 forward single #
face $-1 $48 $49 $18 $-1 $50 reversed single #
loop $-1 $-1 $51 $24 #
plane-surface $-1 0 0 15.531691406805379 0 0 1 1 0 0 forward_v I I I I #
face $-1 $52 $53 $19 $-1 $54 reversed single #
loop $-1 $-1 $55 $25 #
plane-surface $-1 -68.838770714438311 0 0 1 0 0 0 0 -1 forward_v I I I I #
face $-1 $56 $57 $20 $-1 $58 reversed single #
loop $-1 $-1 $59 $26 #
plane-surface $-1 1.8445310985271135e-006 -34.206078176828292 126.51368728213558 0.86602541151947299 0 0.49999998660252726 0.49999998660252726 0 -0.86602541151947299 forward_v I I I I #
face $-1 $60 $61 $21 $-1 $62 forward single #
loop $-1 $63 $64 $27 #
cone-surface $-1 65.122752965596774 -34.206078176828292 10.636163005062564 -0.86602541151947299 0 -0.49999998660252726 0.49999998660252726 0 -0.86602541151947299 1 I I 0 1 1 forward I I I I #
face $-1 $65 $66 $22 $-1 $67 reversed single #
loop $-1 $-1 $68 $28 #
plane-surface $-1 119.23225131746327 24.20761085493411 195.35245615204278 0 1 0 0.86602541151947299 0 0.49999998660252726 forward_v I I I I #
face $-1 $69 $70 $23 $-1 $71 forward single #
loop $-1 $72 $73 $29 #
cone-surface $-1 65.122752965596774 34.206078176828292 10.636163005062564 -0.86602541151947299 0 -0.49999998660252726 0.49999998660252726 0 -0.86602541151947299 1 I I 0 1 1 forward I I I I #
face $-1 $74 $75 $18 $-1 $76 reversed single #
loop $-1 $-1 $77 $30 #
plane-surface $-1 0 0 -15.531691406805379 0 0 1 1 0 0 forward_v I I I I #
coedge $-1 $78 $79 $80 $81 forward $31 $-1 #
face $-1 $82 $83 $19 $-1 $84 forward single #
loop $-1 $-1 $85 $33 #
plane-surface $-1 0 44.204545498722474 0 0 -1 0 0 0 -1 forward_v I I I I #
coedge $-1 $86 $87 $88 $89 forward $34 $-1 #
face $-1 $90 $91 $20 $-1 $92 forward single #
loop $-1 $-1 $93 $36 #
plane-surface $-1 119.23225131746327 -24.20761085493411 195.35245615204278 0 -1 0 -0.86602541151947299 0 -0.49999998660252726 forward_v I I I I #
coedge $-1 $94 $95 $96 $97 reversed $37 $-1 #
face $-1 $-1 $98 $21 $-1 $99 forward single #
loop $-1 $100 $101 $39 #
cone-surface $-1 63.355365493636612 -34.206078176828292 9.6157614088194663 -0.86602541151947299 0 -0.49999998660252726 0.24999999330126363 0 -0.43301270575973649 1 I I -0.70710678118654746 0.70710678118654746 0.5 forward I I I I #
loop $-1 $-1 $102 $27 #
coedge $-1 $64 $64 $103 $104 reversed $40 $-1 #
face $-1 $105 $106 $22 $-1 $107 reversed single #
loop $-1 $-1 $108 $42 #
plane-surface $-1 1.8445310985271135e-006 34.206078176828292 126.51368728213558 0.86602541151947299 0 0.49999998660252726 0.49999998660252726 0 -0.86602541151947299 forward_v I I I I #
coedge $-1 $109 $110 $111 $112 reversed $43 $-1 #
face $-1 $-1 $113 $23 $-1 $114 forward single #
loop $-1 $115 $116 $45 #
cone-surface $-1 63.355365493636612 34.206078176828292 9.6157614088194663 -0.86602541151947299 0 -0.49999998660252726 0.24999999330126363 0 -0.43301270575973649 1 I I -0.70710678118654746 0.70710678118654746 0.5 forward I I I I #
loop $-1 $-1 $117 $29 #
coedge $-1 $73 $73 $118 $119 reversed $46 $-1 #
face $-1 $120 $121 $18 $-1 $122 reversed single #
loop $-1 $-1 $123 $48 #
plane-surface $-1 0 -44.204545498722474 0 0 1 0 0 0 1 forward_v I I I I #
coedge $-1 $124 $125 $126 $127 forward $49 $-1 #
coedge $-1 $128 $51 $129 $130 forward $31 $-1 #
coedge $-1 $51 $128 $131 $132 forward $31 $-1 #
coedge $-1 $133 $134 $51 $81 reversed $135 $-1 #
edge $-1 $136 -44.204545498722474 $137 44.204545498722474 $80 $138 forward 7 unknown #
face $-1 $139 $140 $19 $-1 $141 reversed single #
loop $-1 $-1 $88 $52 #
plane-surface $-1 -76.47948408303823 0 7.7613122863393489 0 0 1 1 0 0 forward_v I I I I #
coedge $-1 $142 $143 $87 $144 forward $53 $-1 #
coedge $-1 $145 $55 $146 $147 reversed $34 $-1 #
coedge $-1 $55 $145 $85 $144 reversed $34 $-1 #
coedge $-1 $148 $149 $55 $89 reversed $83 $-1 #
edge $-1 $150 -44.204545498722474 $151 44.204545498722474 $88 $152 forward 7 unknown #
face $-1 $153 $154 $20 $-1 $155 reversed single #
loop $-1 $-1 $156 $56 #
plane-surface $-1 0 0 15.531691406805379 0 0 1 1 0 0 forward_v I I I I #
coedge $-1 $157 $158 $159 $160 reversed $57 $-1 #
coedge $-1 $161 $59 $162 $163 reversed $37 $-1 #
coedge $-1 $59 $161 $157 $164 forward $37 $-1 #
coedge $-1 $159 $165 $59 $97 forward $166 $-1 #
edge $-1 $167 -27.101506410308328 $168 -7.1045717665199639 $96 $169 forward 7 unknown #
loop $-1 $-1 $103 $60 #
plane-surface $-1 1.8445310985271135e-006 -34.206078176828292 126.51368728213558 0.86602541151947299 0 0.49999998660252726 0.49999998660252726 0 -0.86602541151947299 forward_v I I I I #
loop $-1 $-1 $170 $39 #
coedge $-1 $101 $101 $102 $171 reversed $61 $-1 #
coedge $-1 $102 $102 $101 $171 forward $63 $-1 #
coedge $-1 $103 $103 $64 $104 forward $98 $-1 #
edge $-1 $172 0 $172 6.2831853071796004 $103 $173 forward 7 unknown #
face $-1 $174 $175 $22 $-1 $176 forward single #
loop $-1 $-1 $111 $65 #
plane-surface $-1 68.838770714438311 0 0 -1 0 0 0 0 1 forward_v I I I I #
coedge $-1 $177 $178 $179 $180 reversed $66 $-1 #
coedge $-1 $110 $68 $181 $182 reversed $43 $-1 #
coedge $-1 $68 $109 $177 $183 reversed $43 $-1 #
coedge $-1 $179 $184 $68 $112 forward $106 $-1 #
edge $-1 $185 82.144536669216009 $186 90.394790266818006 $111 $187 forward 7 unknown #
loop $-1 $-1 $118 $69 #
plane-surface $-1 1.8445310985271135e-006 34.206078176828292 126.51368728213558 0.86602541151947299 0 0.49999998660252726 0.49999998660252726 0 -0.86602541151947299 forward_v I I I I #
loop $-1 $-1 $188 $45 #
coedge $-1 $116 $116 $117 $189 reversed $70 $-1 #
coedge $-1 $117 $117 $116 $189 forward $72 $-1 #
coedge $-1 $118 $118 $73 $119 forward $113 $-1 #
edge $-1 $190 0 $190 6.2831853071796004 $118 $191 forward 7 unknown #
face $-1 $192 $193 $18 $-1 $194 reversed single #
loop $-1 $-1 $195 $74 #
plane-surface $-1 -68.838770714438311 0 0 1 0 0 0 0 -1 forward_v I I I I #
coedge $-1 $196 $131 $197 $198 forward $75 $-1 #
coedge $-1 $199 $77 $196 $200 forward $49 $-1 #
coedge $-1 $77 $199 $201 $202 forward $49 $-1 #
coedge $-1 $134 $133 $77 $127 reversed $135 $-1 #
edge $-1 $203 -44.204545498722474 $204 44.204545498722474 $126 $205 forward 7 unknown #
coedge $-1 $79 $78 $206 $207 forward $31 $-1 #
coedge $-1 $208 $209 $78 $130 reversed $193 $-1 #
edge $-1 $137 -68.838770714438311 $210 68.838770714438311 $129 $211 forward 7 unknown #
coedge $-1 $123 $212 $79 $132 reversed $75 $-1 #
edge $-1 $213 -68.838770714438311 $136 68.838770714438311 $131 $214 forward 7 unknown #
coedge $-1 $126 $80 $212 $215 forward $135 $-1 #
coedge $-1 $80 $126 $208 $216 reversed $135 $-1 #
loop $-1 $-1 $133 $192 #
vertex $-1 $81 $217 #
vertex $-1 $81 $218 #
straight-curve $-1 68.838770714438311 0 15.531691406805379 0 1 0 I I #
face $-1 $219 $220 $19 $-1 $221 reversed single #
loop $-1 $-1 $222 $82 #
plane-surface $-1 -76.47948408303823 0 2.2434308914413901 0 0 1 1 0 0 forward_v I I I I #
coedge $-1 $223 $85 $224 $225 reversed $53 $-1 #
coedge $-1 $85 $223 $148 $226 reversed $53 $-1 #
edge $-1 $150 -7.7613122863393489 $227 -2.2434308914413901 $85 $228 forward 7 unknown #
coedge $-1 $87 $86 $222 $229 forward $34 $-1 #
coedge $-1 $230 $231 $86 $147 forward $232 $-1 #
edge $-1 $233 2.2434308914413901 $151 7.7613122863393489 $146 $234 forward 7 unknown #
coedge $-1 $235 $88 $143 $226 forward $83 $-1 #
coedge $-1 $88 $235 $230 $236 forward $83 $-1 #
vertex $-1 $144 $237 #
vertex $-1 $236 $238 #
straight-curve $-1 -68.838770714438311 0 7.7613122863393489 0 -1 0 I I #
face $-1 $-1 $166 $20 $-1 $239 reversed single #
loop $-1 $-1 $162 $90 #
plane-surface $-1 0 -44.204545498722474 0 0 1 0 0 0 1 forward_v I I I I #
coedge $-1 $240 $241 $158 $242 forward $91 $-1 #
coedge $-1 $158 $93 $95 $164 reversed $57 $-1 #
coedge $-1 $93 $157 $156 $242 reversed $57 $-1 #
coedge $-1 $243 $96 $93 $160 forward $166 $-1 #
edge $-1 $168 -90.394790266818006 $244 -82.144536669216009 $159 $245 forward 7 unknown #
coedge $-1 $95 $94 $240 $246 reversed $37 $-1 #
coedge $-1 $247 $248 $94 $163 forward $154 $-1 #
edge $-1 $249 73.368935658502323 $167 82.895507844330723 $162 $250 forward 7 unknown #
edge $-1 $251 128.15096924304822 $168 137.67754142887665 $157 $252 forward 7 unknown #
coedge $-1 $96 $243 $247 $253 forward $166 $-1 #
loop $-1 $-1 $159 $153 #
vertex $-1 $163 $254 #
vertex $-1 $97 $255 #
straight-curve $-1 68.838770714438311 -17.103039088414146 7.2814378092033749 0 1 0 I I #
coedge $-1 $170 $170 $-1 $256 reversed $100 $-1 #
edge $-1 $257 0 $257 6.2831853071796004 $101 $258 forward 7 unknown #
vertex $-1 $104 $259 #
ellipse-curve $-1 66.4571277317972 -34.206078176828292 11.406564608004398 0.86602541151947299 0 0.49999998660252726 0.49999998660252726 0 -0.86602541151947299 1 I I #
face $-1 $-1 $260 $22 $-1 $261 reversed single #
loop $-1 $-1 $181 $105 #
plane-surface $-1 0 0 15.531691406805379 0 0 1 1 0 0 forward_v I I I I #
coedge $-1 $262 $108 $110 $183 forward $66 $-1 #
coedge $-1 $108 $262 $263 $264 reversed $66 $-1 #
coedge $-1 $265 $111 $108 $180 forward $106 $-1 #
edge $-1 $186 7.1045717665199639 $266 27.101506410308328 $179 $267 forward 7 unknown #
coedge $-1 $268 $269 $109 $182 forward $175 $-1 #
edge $-1 $270 4.4593590904244707 $185 9.2226450557066784 $181 $271 forward 7 unknown #
edge $-1 $186 -137.67754142887665 $270 -128.15096924304822 $110 $272 forward 7 unknown #
coedge $-1 $111 $265 $268 $273 reversed $106 $-1 #
vertex $-1 $273 $274 #
vertex $-1 $112 $275 #
straight-curve $-1 68.838770714438311 24.20761085493411 97.676228076021388 0 0 -1 I I #
coedge $-1 $188 $188 $-1 $276 reversed $115 $-1 #
edge $-1 $277 0 $277 6.2831853071796004 $116 $278 forward 7 unknown #
vertex $-1 $119 $279 #
ellipse-curve $-1 66.4571277317972 34.206078176828292 11.406564608004398 0.86602541151947299 0 0.49999998660252726 0.49999998660252726 0 -0.86602541151947299 1 I I #
face $-1 $-1 $135 $18 $-1 $280 reversed single #
loop $-1 $-1 $208 $120 #
plane-surface $-1 0 44.204545498722474 0 0 -1 0 0 0 -1 forward_v I I I I #
coedge $-1 $281 $206 $209 $282 forward $121 $-1 #
coedge $-1 $212 $123 $124 $200 reversed $75 $-1 #
coedge $-1 $206 $281 $123 $198 reversed $121 $-1 #
edge $-1 $213 -15.531691406805379 $283 15.531691406805379 $197 $284 forward 7 unknown #
coedge $-1 $125 $124 $281 $285 forward $49 $-1 #
edge $-1 $204 -68.838770714438311 $283 68.838770714438311 $196 $286 forward 7 unknown #
coedge $-1 $209 $208 $125 $202 reversed $193 $-1 #
edge $-1 $287 -68.838770714438311 $203 68.838770714438311 $201 $288 forward 7 unknown #
vertex $-1 $127 $289 #
vertex $-1 $215 $290 #
straight-curve $-1 68.838770714438311 0 -15.531691406805379 0 -1 0 I I #
coedge $-1 $195 $197 $128 $207 reversed $121 $-1 #
edge $-1 $210 -44.204545498722474 $213 44.204545498722474 $206 $291 forward 7 unknown #
coedge $-1 $201 $129 $134 $216 forward $193 $-1 #
coedge $-1 $129 $201 $195 $282 reversed $193 $-1 #
vertex $-1 $130 $292 #
straight-curve $-1 0 44.204545498722474 15.531691406805379 -1 0 0 I I #
coedge $-1 $131 $196 $133 $215 reversed $75 $-1 #
vertex $-1 $207 $293 #
straight-curve $-1 0 -44.204545498722474 15.531691406805379 1 0 0 I I #
edge $-1 $136 -15.531691406805379 $204 15.531691406805379 $133 $294 forward 7 unknown #
edge $-1 $137 -15.531691406805379 $203 15.531691406805379 $134 $295 forward 7 unknown #
point $-1 68.838770714438311 -44.204545498722474 15.531691406805379 #
point $-1 68.838770714438311 44.204545498722474 15.531691406805379 #
face $-1 $-1 $232 $19 $-1 $296 reversed single #
loop $-1 $-1 $297 $139 #
plane-surface $-1 -84.120197451638148 0 5.0023715888903695 1 0 0 0 0 -1 forward_v I I I I #
coedge $-1 $298 $224 $145 $229 reversed $140 $-1 #
coedge $-1 $143 $142 $297 $299 reversed $53 $-1 #
coedge $-1 $222 $300 $142 $225 forward $140 $-1 #
edge $-1 $301 -7.6407133685999185 $227 7.6407133685999185 $142 $302 forward 7 unknown #
edge $-1 $150 -7.6407133685999185 $303 7.6407133685999185 $143 $304 forward 7 unknown #
vertex $-1 $144 $305 #
straight-curve $-1 -68.838770714438311 44.204545498722474 0 0 0 -1 I I #
edge $-1 $233 -44.204545498722474 $227 44.204545498722474 $222 $306 forward 7 unknown #
coedge $-1 $307 $146 $149 $236 reversed $232 $-1 #
coedge $-1 $146 $307 $298 $308 reversed $232 $-1 #
loop $-1 $-1 $146 $219 #
vertex $-1 $147 $309 #
straight-curve $-1 -68.838770714438311 -44.204545498722474 0 0 0 1 I I #
coedge $-1 $149 $148 $310 $311 forward $83 $-1 #
edge $-1 $312 -7.6407133685999185 $151 7.6407133685999185 $230 $313 forward 7 unknown #
point $-1 -68.838770714438311 44.204545498722474 7.7613122863393489 #
point $-1 -68.838770714438311 -44.204545498722474 7.7613122863393489 #
plane-surface $-1 68.838770714438311 0 0 -1 0 0 0 0 1 forward_v I I I I #
coedge $-1 $314 $156 $161 $246 forward $91 $-1 #
coedge $-1 $156 $314 $243 $315 forward $91 $-1 #
edge $-1 $244 -9.2226450557066784 $251 -4.4593590904244707 $156 $316 forward 7 unknown #
coedge $-1 $165 $159 $241 $315 reversed $166 $-1 #
vertex $-1 $160 $317 #
straight-curve $-1 68.838770714438311 -24.20761085493411 97.676228076021388 0 0 1 I I #
edge $-1 $251 7.1045717665199639 $249 27.101506410308328 $240 $318 forward 7 unknown #
coedge $-1 $248 $162 $165 $253 reversed $154 $-1 #
coedge $-1 $162 $247 $314 $319 reversed $154 $-1 #
vertex $-1 $319 $320 #
straight-curve $-1 27.391017902863258 -44.204545498722474 79.071054103205597 0.49999998660252726 0 -0.86602541151947299 I I #
vertex $-1 $246 $321 #
straight-curve $-1 1.8445310985271135e-006 -24.20761085493411 126.51368728213558 0.49999998660252726 0 -0.86602541151947299 I I #
edge $-1 $322 -15.531691406805379 $167 -7.2814378092033838 $165 $323 forward 7 unknown #
point $-1 68.838770714438311 -44.204545498722474 7.2814378092033838 #
point $-1 68.838770714438311 -24.20761085493411 7.281437809203382 #
edge $-1 $324 1 $324 0 $170 $-1 forward 7 unknown #
vertex $-1 $171 $325 #
ellipse-curve $-1 63.788378199396348 -34.206078176828292 9.8657614021207305 0.86602541151947299 0 0.49999998660252726 0.49999998660252726 0 -0.86602541151947299 1 I I #
point $-1 66.957127718399732 -34.206078176828292 10.540539196484925 #
loop $-1 $-1 $263 $174 #
plane-surface $-1 0 44.204545498722474 0 0 -1 0 0 0 -1 forward_v I I I I #
coedge $-1 $178 $177 $269 $326 reversed $66 $-1 #
coedge $-1 $327 $328 $178 $264 forward $260 $-1 #
edge $-1 $266 -82.895507844330723 $329 -73.368935658502323 $263 $330 forward 7 unknown #
coedge $-1 $184 $179 $328 $331 reversed $106 $-1 #
vertex $-1 $264 $332 #
straight-curve $-1 68.838770714438311 17.103039088414146 7.2814378092033749 0 1 0 I I #
coedge $-1 $333 $181 $184 $273 forward $175 $-1 #
coedge $-1 $181 $333 $262 $326 forward $175 $-1 #
vertex $-1 $182 $334 #
straight-curve $-1 59.616125658731633 24.20761085493411 15.531691406805379 1 0 0 I I #
straight-curve $-1 1.8445310985271135e-006 24.20761085493411 126.51368728213558 -0.49999998660252726 0 0.86602541151947299 I I #
edge $-1 $185 24.20761085493411 $335 44.204545498722474 $184 $336 forward 7 unknown #
point $-1 68.838770714438311 24.20761085493411 15.531691406805379 #
point $-1 68.838770714438311 24.20761085493411 7.281437809203382 #
edge $-1 $337 1 $337 0 $188 $-1 forward 7 unknown #
vertex $-1 $189 $338 #
ellipse-curve $-1 63.788378199396348 34.206078176828292 9.8657614021207305 0.86602541151947299 0 0.49999998660252726 0.49999998660252726 0 -0.86602541151947299 1 I I #
point $-1 66.957127718399732 34.206078176828292 10.540539196484925 #
plane-surface $-1 68.838770714438311 0 0 -1 0 0 0 0 1 forward_v I I I I #
coedge $-1 $197 $195 $199 $285 reversed $121 $-1 #
edge $-1 $210 -15.531691406805379 $287 15.531691406805379 $209 $339 forward 7 unknown #
vertex $-1 $285 $340 #
straight-curve $-1 -68.838770714438311 -44.204545498722474 0 0 0 -1 I I #
edge $-1 $283 -44.204545498722474 $287 44.204545498722474 $281 $341 forward 7 unknown #
straight-curve $-1 0 -44.204545498722474 -15.531691406805379 -1 0 0 I I #
vertex $-1 $202 $342 #
straight-curve $-1 0 44.204545498722474 -15.531691406805379 1 0 0 I I #
point $-1 68.838770714438311 44.204545498722474 -15.531691406805379 #
point $-1 68.838770714438311 -44.204545498722474 -15.531691406805379 #
straight-curve $-1 -68.838770714438311 0 15.531691406805379 0 -1 0 I I #
point $-1 -68.838770714438311 44.204545498722474 15.531691406805379 #
point $-1 -68.838770714438311 -44.204545498722474 15.531691406805379 #
straight-curve $-1 68.838770714438311 -44.204545498722474 0 0 0 -1 I I #
straight-curve $-1 68.838770714438311 44.204545498722474 0 0 0 -1 I I #
plane-surface $-1 0 -44.204545498722474 0 0 1 0 0 0 1 forward_v I I I I #
coedge $-1 $343 $310 $223 $299 forward $220 $-1 #
coedge $-1 $300 $222 $231 $308 forward $140 $-1 #
edge $-1 $303 -2.7589406974489794 $301 2.7589406974489794 $223 $344 forward 7 unknown #
coedge $-1 $224 $298 $343 $345 forward $140 $-1 #
vertex $-1 $225 $346 #
straight-curve $-1 -76.47948408303823 44.204545498722474 2.2434308914413901 1 0 0 I I #
vertex $-1 $226 $347 #
straight-curve $-1 -76.47948408303823 44.204545498722474 7.7613122863393489 -1 0 0 I I #
point $-1 -68.838770714438311 44.204545498722474 2.2434308914413901 #
straight-curve $-1 -68.838770714438311 0 2.2434308914413901 0 1 0 I I #
coedge $-1 $231 $230 $348 $349 forward $232 $-1 #
edge $-1 $233 -7.6407133685999185 $350 7.6407133685999185 $231 $351 forward 7 unknown #
point $-1 -68.838770714438311 -44.204545498722474 2.2434308914413901 #
coedge $-1 $297 $348 $235 $311 reversed $220 $-1 #
edge $-1 $303 -44.204545498722474 $312 44.204545498722474 $310 $352 forward 7 unknown #
vertex $-1 $311 $353 #
straight-curve $-1 -76.47948408303823 -44.204545498722474 7.7613122863393489 1 0 0 I I #
coedge $-1 $241 $240 $248 $319 forward $91 $-1 #
edge $-1 $322 -44.204545498722474 $244 -24.20761085493411 $243 $354 forward 7 unknown #
straight-curve $-1 59.616125658731633 -24.20761085493411 15.531691406805379 -1 0 0 I I #
point $-1 68.838770714438311 -24.20761085493411 15.531691406805379 #
straight-curve $-1 64.075484749156118 -17.103039088414146 15.531691406805379 0 -1 0 I I #
edge $-1 $249 64.075484749156104 $322 68.838770714438311 $248 $355 forward 7 unknown #
point $-1 64.075484749156104 -44.204545498722474 15.531691406805393 #
point $-1 64.075484749156104 -24.20761085493411 15.531691406805393 #
vertex $-1 $315 $356 #
straight-curve $-1 68.838770714438311 -44.204545498722474 0 0 0 -1 I I #
vertex $-1 $256 $357 #
point $-1 64.28837818599888 -34.206078176828292 8.9997359906012573 #
edge $-1 $329 -27.101506410308328 $270 -7.1045717665199639 $269 $358 forward 7 unknown #
coedge $-1 $328 $263 $333 $359 reversed $260 $-1 #
coedge $-1 $263 $327 $265 $331 forward $260 $-1 #
vertex $-1 $264 $360 #
straight-curve $-1 27.391017902863258 44.204545498722474 79.071054103205597 -0.49999998660252726 0 0.86602541151947299 I I #
edge $-1 $335 -15.531691406805379 $266 -7.281437809203382 $265 $361 forward 7 unknown #
point $-1 68.838770714438311 44.204545498722474 7.281437809203382 #
coedge $-1 $269 $268 $327 $359 forward $175 $-1 #
point $-1 64.075484749156104 24.20761085493411 15.531691406805393 #
vertex $-1 $273 $362 #
straight-curve $-1 68.838770714438311 0 15.531691406805379 0 1 0 I I #
vertex $-1 $276 $363 #
point $-1 64.28837818599888 34.206078176828292 8.9997359906012573 #
straight-curve $-1 -68.838770714438311 44.204545498722474 0 0 0 -1 I I #
point $-1 -68.838770714438311 -44.204545498722474 -15.531691406805379 #
straight-curve $-1 -68.838770714438311 0 -15.531691406805379 0 1 0 I I #
point $-1 -68.838770714438311 44.204545498722474 -15.531691406805379 #
coedge $-1 $348 $297 $300 $345 reversed $220 $-1 #
straight-curve $-1 -84.120197451638148 44.204545498722474 5.0023715888903695 0 0 -1 I I #
edge $-1 $350 -44.204545498722474 $301 44.204545498722474 $343 $364 forward 7 unknown #
point $-1 -84.120197451638148 44.204545498722474 2.2434308914413901 #
point $-1 -84.120197451638148 44.204545498722474 7.7613122863393489 #
coedge $-1 $310 $343 $307 $349 reversed $220 $-1 #
edge $-1 $312 -2.7589406974489794 $350 2.7589406974489794 $348 $365 forward 7 unknown #
vertex $-1 $345 $366 #
straight-curve $-1 -76.47948408303823 -44.204545498722474 2.2434308914413901 -1 0 0 I I #
straight-curve $-1 -84.120197451638148 0 7.7613122863393489 0 -1 0 I I #
point $-1 -84.120197451638148 -44.204545498722474 7.7613122863393489 #
straight-curve $-1 68.838770714438311 0 15.531691406805379 0 1 0 I I #
straight-curve $-1 0 -44.204545498722474 15.531691406805379 1 0 0 I I #
point $-1 68.838770714438311 -44.204545498722474 15.531691406805379 #
point $-1 62.922352787876875 -34.206078176828292 9.3657614155182021 #
straight-curve $-1 64.075484749156118 17.103039088414146 15.531691406805379 0 -1 0 I I #
edge $-1 $335 -68.838770714438311 $329 -64.075484749156104 $327 $367 forward 7 unknown #
point $-1 64.075484749156104 44.204545498722474 15.531691406805393 #
straight-curve $-1 68.838770714438311 44.204545498722474 0 0 0 -1 I I #
point $-1 68.838770714438311 44.204545498722474 15.531691406805379 #
point $-1 62.922352787876875 34.206078176828292 9.3657614155182021 #
straight-curve $-1 -84.120197451638148 0 2.2434308914413901 0 1 0 I I #
straight-curve $-1 -84.120197451638148 -44.204545498722474 5.0023715888903695 0 0 -1 I I #
point $-1 -84.120197451638148 -44.204545498722474 2.2434308914413901 #
straight-curve $-1 0 44.204545498722474 15.531691406805379 -1 0 0 I I #
End-of-ACIS-data 