500 0 10 0           
7 Unknown 11 ACIS 5.0 NT 24 Fri Mar 26 02:30:34 1999 
-1 9.9999999999999995e-007 1e-010 
body $-1 $10 $-1 $11 #
body $-1 $12 $-1 $13 #
body $-1 $14 $-1 $15 #
body $-1 $16 $-1 $17 #
body $-1 $18 $-1 $19 #
body $-1 $20 $-1 $21 #
body $-1 $22 $-1 $23 #
body $-1 $24 $-1 $25 #
body $-1 $26 $-1 $27 #
body $-1 $28 $-1 $29 #
lump $-1 $-1 $30 $0 #
transform $-1 1 0 0 0 1 0 0 0 1 70.760216071047097 29.399598913932994 14.63223789203168 1 rotate no_reflect no_shear #
lump $-1 $-1 $31 $1 #
transform $-1 1 0 0 0 1 0 0 0 1 70.760216071047097 29.399598913932994 14.63223789203168 1 rotate no_reflect no_shear #
lump $-1 $-1 $32 $2 #
transform $-1 1 0 0 0 1 0 0 0 1 70.760216071047097 29.399598913932994 14.63223789203168 1 rotate no_reflect no_shear #
lump $-1 $-1 $33 $3 #
transform $-1 1 0 0 0 1 0 0 0 1 70.760216071047097 29.399598913932994 14.63223789203168 1 rotate no_reflect no_shear #
lump $-1 $-1 $34 $4 #
transform $-1 1 0 0 0 1 0 0 0 1 70.760216071047097 29.399598913932994 14.63223789203168 1 rotate no_reflect no_shear #
lump $-1 $-1 $35 $5 #
transform $-1 1 0 0 0 1 0 0 0 1 70.760216071047097 29.399598913932994 14.63223789203168 1 rotate no_reflect no_shear #
lump $-1 $-1 $36 $6 #
transform $-1 1 0 0 0 1 0 0 0 1 70.760216071047097 29.399598913932994 14.63223789203168 1 rotate no_reflect no_shear #
lump $-1 $-1 $37 $7 #
transform $-1 1 0 0 0 1 0 0 0 1 70.760216071047097 29.399598913932994 14.63223789203168 1 rotate no_reflect no_shear #
lump $-1 $-1 $38 $8 #
transform $-1 1 0 0 0 1 0 0 0 1 70.760216071047097 29.399598913932994 14.63223789203168 1 rotate no_reflect no_shear #
lump $-1 $-1 $39 $9 #
transform $-1 1 0 0 0 1 0 0 0 1 70.760216071047097 29.399598913932994 14.63223789203168 1 rotate no_reflect no_shear #
shell $-1 $-1 $-1 $40 $-1 $10 #
shell $-1 $-1 $-1 $41 $-1 $12 #
shell $-1 $-1 $-1 $42 $-1 $14 #
shell $-1 $-1 $-1 $43 $-1 $16 #
shell $-1 $-1 $-1 $44 $-1 $18 #
shell $-1 $-1 $-1 $45 $-1 $20 #
shell $-1 $-1 $-1 $46 $-1 $22 #
shell $-1 $-1 $-1 $47 $-1 $24 #
shell $-1 $-1 $-1 $48 $-1 $26 #
shell $-1 $-1 $-1 $49 $-1 $28 #
face $-1 $50 $51 $30 $-1 $52 forward single #
face $-1 $53 $54 $31 $-1 $55 forward single #
face $-1 $56 $57 $32 $-1 $58 reversed single #
face $-1 $59 $60 $33 $-1 $61 forward single #
face $-1 $62 $63 $34 $-1 $64 reversed single #
face $-1 $65 $66 $35 $-1 $67 forward single #
face $-1 $68 $69 $36 $-1 $70 reversed single #
face $-1 $71 $72 $37 $-1 $73 forward single #
face $-1 $74 $75 $38 $-1 $76 reversed single #
face $-1 $77 $78 $39 $-1 $79 forward single #
face $-1 $80 $81 $30 $-1 $82 reversed single #
loop $-1 $-1 $83 $40 #
plane-surface $-1 0 0 14.63223789203168 0 0 1 1 0 0 forward_v I I I I #
face $-1 $84 $85 $31 $-1 $86 reversed single #
loop $-1 $-1 $87 $41 #
plane-surface $-1 -64.736759579267485 0 9.9139351609192428 0 0 1 1 0 0 forward_v I I I I #
face $-1 $88 $89 $32 $-1 $90 reversed single #
loop $-1 $-1 $91 $42 #
plane-surface $-1 -48.280089280176426 -29.399598913933019 8.9502237535906062 0 -0.7660444514056185 0.64278759981090561 1 0 0 forward_v I I I I #
face $-1 $92 $93 $33 $-1 $94 forward single #
loop $-1 $95 $96 $43 #
cone-surface $-1 -48.280089280176426 -25.769138291060067 10.745232156274152 0 0.7660444514056185 -0.64278759981090561 1.5 0 0 1 I I 0 1 1.5 forward I I I I #
face $-1 $97 $98 $34 $-1 $99 reversed single #
loop $-1 $-1 $100 $44 #
plane-surface $-1 -26.344923297854141 -137.81054071690963 99.917802654409471 1 0 0 0 0.7660444514056185 -0.64278759981090561 forward_v I I I I #
face $-1 $101 $102 $35 $-1 $103 forward single #
loop $-1 $104 $105 $45 #
cone-surface $-1 -15.911709490542677 -25.769138291060067 10.745232156274152 0 0.7660444514056185 -0.64278759981090561 1.5 0 0 1 I I 0 1 1.5 forward I I I I #
face $-1 $106 $107 $36 $-1 $108 reversed single #
loop $-1 $-1 $109 $46 #
plane-surface $-1 6.0234564917795943 -137.81054071690963 99.917802654409471 1 0 0 0 0.7660444514056185 -0.64278759981090561 forward_v I I I I #
face $-1 $110 $111 $37 $-1 $112 forward single #
loop $-1 $113 $114 $47 #
cone-surface $-1 16.456670299091058 -25.769138291060067 10.745232156274152 0 0.7660444514056185 -0.64278759981090561 1.5 0 0 1 I I 0 1 1.5 forward I I I I #
face $-1 $115 $116 $38 $-1 $117 reversed single #
loop $-1 $-1 $118 $48 #
plane-surface $-1 38.391836281413333 -137.81054071690963 99.917802654409471 1 0 0 0 0.7660444514056185 -0.64278759981090561 forward_v I I I I #
face $-1 $119 $120 $39 $-1 $121 forward single #
loop $-1 $122 $123 $49 #
cone-surface $-1 48.825050088724794 -25.769138291060067 10.745232156274152 0 0.7660444514056185 -0.64278759981090561 1.5 0 0 1 I I 0 1 1.5 forward I I I I #
face $-1 $124 $125 $30 $-1 $126 reversed single #
loop $-1 $-1 $127 $50 #
plane-surface $-1 0 0 -14.63223789203168 0 0 1 1 0 0 forward_v I I I I #
coedge $-1 $128 $129 $130 $131 forward $51 $-1 #
face $-1 $132 $133 $31 $-1 $134 reversed single #
loop $-1 $-1 $135 $53 #
plane-surface $-1 -64.736759579267485 0 3.6663754986902202 0 0 1 1 0 0 forward_v I I I I #
coedge $-1 $136 $137 $138 $139 forward $54 $-1 #
face $-1 $140 $141 $32 $-1 $142 reversed single #
loop $-1 $-1 $143 $56 #
plane-surface $-1 -37.846875472864966 -137.81054071690963 99.917802654409471 -1 0 0 0 -0.7660444514056185 0.64278759981090561 forward_v I I I I #
coedge $-1 $144 $145 $146 $147 reversed $57 $-1 #
face $-1 $-1 $148 $33 $-1 $149 forward single #
loop $-1 $150 $151 $59 #
cone-surface $-1 -48.280089280176426 -23.948032251174883 9.2171427898789933 0 0.7660444514056185 -0.64278759981090561 0.75 0 0 1 I I -0.70710678118654757 0.70710678118654757 0.75 forward I I I I #
loop $-1 $-1 $152 $43 #
coedge $-1 $96 $96 $153 $154 reversed $60 $-1 #
face $-1 $155 $156 $34 $-1 $157 reversed single #
loop $-1 $-1 $158 $62 #
plane-surface $-1 -15.911709490542677 -29.399598913933019 8.9502237535906062 0 -0.7660444514056185 0.64278759981090561 1 0 0 forward_v I I I I #
coedge $-1 $159 $160 $161 $162 reversed $63 $-1 #
face $-1 $-1 $163 $35 $-1 $164 forward single #
loop $-1 $165 $166 $65 #
cone-surface $-1 -15.911709490542677 -23.948032251174883 9.2171427898789933 0 0.7660444514056185 -0.64278759981090561 0.75 0 0 1 I I -0.70710678118654757 0.70710678118654757 0.75 forward I I I I #
loop $-1 $-1 $167 $45 #
coedge $-1 $105 $105 $168 $169 reversed $66 $-1 #
face $-1 $170 $171 $36 $-1 $172 reversed single #
loop $-1 $-1 $173 $68 #
plane-surface $-1 16.456670299091058 -29.399598913933019 8.9502237535906062 0 -0.7660444514056185 0.64278759981090561 1 0 0 forward_v I I I I #
coedge $-1 $174 $175 $176 $177 reversed $69 $-1 #
face $-1 $-1 $178 $37 $-1 $179 forward single #
loop $-1 $180 $181 $71 #
cone-surface $-1 16.456670299091058 -23.948032251174883 9.2171427898789933 0 0.7660444514056185 -0.64278759981090561 0.75 0 0 1 I I -0.70710678118654757 0.70710678118654757 0.75 forward I I I I #
loop $-1 $-1 $182 $47 #
coedge $-1 $114 $114 $183 $184 reversed $72 $-1 #
face $-1 $185 $186 $38 $-1 $187 reversed single #
loop $-1 $-1 $188 $74 #
plane-surface $-1 48.825050088724794 -29.399598913933019 8.9502237535906062 0 -0.7660444514056185 0.64278759981090561 1 0 0 forward_v I I I I #
coedge $-1 $189 $190 $191 $192 reversed $75 $-1 #
face $-1 $-1 $193 $39 $-1 $194 forward single #
loop $-1 $195 $196 $77 #
cone-surface $-1 48.825050088724794 -23.948032251174883 9.2171427898789933 0 0.7660444514056185 -0.64278759981090561 0.75 0 0 1 I I -0.70710678118654757 0.70710678118654757 0.75 forward I I I I #
loop $-1 $-1 $197 $49 #
coedge $-1 $123 $123 $198 $199 reversed $78 $-1 #
face $-1 $200 $201 $30 $-1 $202 reversed single #
loop $-1 $-1 $203 $80 #
plane-surface $-1 0 -29.399598913932994 0 0 1 0 0 0 1 forward_v I I I I #
coedge $-1 $204 $205 $206 $207 forward $81 $-1 #
coedge $-1 $208 $83 $209 $210 forward $51 $-1 #
coedge $-1 $83 $208 $211 $212 forward $51 $-1 #
coedge $-1 $213 $214 $83 $131 reversed $215 $-1 #
edge $-1 $216 -29.399598913932994 $217 29.399598913932994 $130 $218 forward 7 unknown #
face $-1 $219 $220 $31 $-1 $221 reversed single #
loop $-1 $-1 $222 $84 #
plane-surface $-1 -58.71330308748788 0 6.7901553298047315 -1 0 0 0 0 1 forward_v I I I I #
coedge $-1 $223 $224 $225 $226 forward $85 $-1 #
coedge $-1 $227 $87 $228 $229 reversed $54 $-1 #
coedge $-1 $87 $227 $230 $231 reversed $54 $-1 #
coedge $-1 $222 $232 $87 $139 reversed $133 $-1 #
edge $-1 $233 -29.399598913932994 $234 29.399598913932994 $138 $235 forward 7 unknown #
face $-1 $236 $237 $32 $-1 $238 forward single #
loop $-1 $-1 $239 $88 #
plane-surface $-1 0 -29.399598913932994 0 0 1 0 0 0 1 forward_v I I I I #
coedge $-1 $240 $241 $242 $243 reversed $89 $-1 #
coedge $-1 $244 $91 $245 $246 reversed $57 $-1 #
coedge $-1 $91 $244 $240 $247 forward $57 $-1 #
coedge $-1 $242 $239 $91 $147 forward $141 $-1 #
edge $-1 $248 -34.573258447399667 $249 -13.706830832776753 $146 $250 forward 7 unknown #
loop $-1 $-1 $153 $92 #
plane-surface $-1 -48.280089280176426 -29.399598913933019 8.9502237535906062 0 -0.7660444514056185 0.64278759981090561 1 0 0 forward_v I I I I #
loop $-1 $-1 $251 $59 #
coedge $-1 $151 $151 $152 $252 reversed $93 $-1 #
coedge $-1 $152 $152 $151 $252 forward $95 $-1 #
coedge $-1 $153 $153 $96 $154 forward $148 $-1 #
edge $-1 $253 2.2004473875757048e-015 $253 6.2831853071796022 $153 $254 forward 7 unknown #
face $-1 $255 $256 $34 $-1 $257 forward single #
loop $-1 $-1 $258 $97 #
plane-surface $-1 -5.4784956832312126 -137.81054071690963 99.917802654409471 -1 0 0 0 -0.7660444514056185 0.64278759981090561 forward_v I I I I #
coedge $-1 $259 $260 $261 $262 reversed $98 $-1 #
coedge $-1 $160 $100 $263 $264 reversed $63 $-1 #
coedge $-1 $100 $159 $259 $265 reversed $63 $-1 #
coedge $-1 $261 $266 $100 $162 forward $267 $-1 #
edge $-1 $268 35.326663435173053 $269 41.008677573614101 $161 $270 forward 7 unknown #
loop $-1 $-1 $168 $101 #
plane-surface $-1 -15.911709490542677 -29.399598913933019 8.9502237535906062 0 -0.7660444514056185 0.64278759981090561 1 0 0 forward_v I I I I #
loop $-1 $-1 $271 $65 #
coedge $-1 $166 $166 $167 $272 reversed $102 $-1 #
coedge $-1 $167 $167 $166 $272 forward $104 $-1 #
coedge $-1 $168 $168 $105 $169 forward $163 $-1 #
edge $-1 $273 2.2004473875757048e-015 $273 6.2831853071796022 $168 $274 forward 7 unknown #
face $-1 $275 $276 $36 $-1 $277 reversed single #
loop $-1 $-1 $278 $106 #
plane-surface $-1 26.889884106402523 -137.81054071690963 99.917802654409471 -1 0 0 0 -0.7660444514056185 0.64278759981090561 forward_v I I I I #
coedge $-1 $279 $280 $281 $282 reversed $107 $-1 #
coedge $-1 $175 $109 $283 $284 reversed $69 $-1 #
coedge $-1 $109 $174 $279 $285 reversed $69 $-1 #
coedge $-1 $281 $286 $109 $177 forward $276 $-1 #
edge $-1 $287 35.326663435173053 $288 41.008677573614101 $176 $289 forward 7 unknown #
loop $-1 $-1 $183 $110 #
plane-surface $-1 16.456670299091058 -29.399598913933019 8.9502237535906062 0 -0.7660444514056185 0.64278759981090561 1 0 0 forward_v I I I I #
loop $-1 $-1 $290 $71 #
coedge $-1 $181 $181 $182 $291 reversed $111 $-1 #
coedge $-1 $182 $182 $181 $291 forward $113 $-1 #
coedge $-1 $183 $183 $114 $184 forward $178 $-1 #
edge $-1 $292 2.2004473875757048e-015 $292 6.2831853071796022 $183 $293 forward 7 unknown #
face $-1 $294 $295 $38 $-1 $296 reversed single #
loop $-1 $-1 $297 $115 #
plane-surface $-1 59.258263896036254 -137.81054071690963 99.917802654409471 -1 0 0 0 -0.7660444514056185 0.64278759981090561 forward_v I I I I #
coedge $-1 $298 $299 $300 $301 reversed $116 $-1 #
coedge $-1 $190 $118 $302 $303 reversed $75 $-1 #
coedge $-1 $118 $189 $298 $304 reversed $75 $-1 #
coedge $-1 $300 $305 $118 $192 forward $295 $-1 #
edge $-1 $306 35.326663435173053 $307 41.008677573614101 $191 $308 forward 7 unknown #
loop $-1 $-1 $198 $119 #
plane-surface $-1 48.825050088724794 -29.399598913933019 8.9502237535906062 0 -0.7660444514056185 0.64278759981090561 1 0 0 forward_v I I I I #
loop $-1 $-1 $309 $77 #
coedge $-1 $196 $196 $197 $310 reversed $120 $-1 #
coedge $-1 $197 $197 $196 $310 forward $122 $-1 #
coedge $-1 $198 $198 $123 $199 forward $193 $-1 #
edge $-1 $311 2.2004473875757048e-015 $311 6.2831853071796022 $198 $312 forward 7 unknown #
face $-1 $313 $314 $30 $-1 $315 reversed single #
loop $-1 $-1 $316 $124 #
plane-surface $-1 -70.760216071047097 0 0 1 0 0 0 0 -1 forward_v I I I I #
coedge $-1 $317 $211 $318 $319 forward $125 $-1 #
coedge $-1 $320 $127 $317 $321 forward $81 $-1 #
coedge $-1 $127 $320 $322 $323 forward $81 $-1 #
coedge $-1 $214 $213 $127 $207 reversed $215 $-1 #
edge $-1 $324 -29.399598913932994 $325 29.399598913932994 $206 $326 forward 7 unknown #
coedge $-1 $129 $128 $327 $328 forward $51 $-1 #
coedge $-1 $329 $330 $128 $210 reversed $314 $-1 #
edge $-1 $217 -70.760216071047097 $331 70.760216071047097 $209 $332 forward 7 unknown #
coedge $-1 $203 $333 $129 $212 reversed $125 $-1 #
edge $-1 $334 -70.760216071047097 $216 70.760216071047097 $211 $335 forward 7 unknown #
coedge $-1 $206 $130 $333 $336 forward $215 $-1 #
coedge $-1 $130 $206 $329 $337 reversed $215 $-1 #
loop $-1 $-1 $213 $313 #
vertex $-1 $131 $338 #
vertex $-1 $131 $339 #
straight-curve $-1 70.760216071047097 0 14.63223789203168 0 1 0 I I #
face $-1 $340 $341 $31 $-1 $342 reversed single #
loop $-1 $-1 $343 $132 #
plane-surface $-1 0 -29.399598913932994 0 0 1 0 0 0 1 forward_v I I I I #
coedge $-1 $225 $138 $344 $345 reversed $133 $-1 #
coedge $-1 $346 $135 $343 $347 reversed $85 $-1 #
coedge $-1 $135 $346 $348 $349 reversed $85 $-1 #
coedge $-1 $232 $222 $135 $226 reversed $133 $-1 #
edge $-1 $350 -29.399598913932994 $351 29.399598913932994 $225 $352 forward 7 unknown #
coedge $-1 $137 $136 $353 $354 reversed $54 $-1 #
coedge $-1 $355 $356 $136 $229 forward $357 $-1 #
edge $-1 $358 -38.391836281413354 $234 -26.344923297854137 $228 $359 forward 7 unknown #
coedge $-1 $360 $344 $137 $231 forward $220 $-1 #
edge $-1 $233 26.344923297854137 $361 38.391836281413354 $230 $362 forward 7 unknown #
coedge $-1 $138 $225 $355 $363 reversed $133 $-1 #
vertex $-1 $231 $364 #
vertex $-1 $229 $365 #
straight-curve $-1 -58.71330308748788 0 9.9139351609192428 0 1 0 I I #
face $-1 $-1 $366 $32 $-1 $367 forward single #
loop $-1 $-1 $245 $140 #
plane-surface $-1 -58.71330308748788 0 6.7901553298047315 -1 0 0 0 0 1 forward_v I I I I #
coedge $-1 $146 $368 $369 $370 forward $141 $-1 #
coedge $-1 $241 $143 $145 $247 reversed $89 $-1 #
coedge $-1 $143 $240 $371 $372 reversed $89 $-1 #
coedge $-1 $368 $146 $143 $243 forward $141 $-1 #
edge $-1 $249 -41.008677573614101 $373 -35.326663435173053 $242 $374 forward 7 unknown #
coedge $-1 $145 $144 $375 $376 reversed $57 $-1 #
coedge $-1 $369 $377 $144 $246 forward $237 $-1 #
edge $-1 $378 1.2041520011229523 $248 8.6214945952962942 $245 $379 forward 7 unknown #
edge $-1 $380 -7.4173425941733822 $249 -3.9118543198043554e-014 $240 $381 forward 7 unknown #
vertex $-1 $246 $382 #
vertex $-1 $147 $383 #
straight-curve $-1 -24.140044640088213 -29.399598913932994 8.9502237535906346 1 0 0 I I #
coedge $-1 $251 $251 $-1 $384 reversed $150 $-1 #
edge $-1 $385 0 $385 6.2831853071796004 $151 $386 forward 7 unknown #
vertex $-1 $154 $387 #
ellipse-curve $-1 -48.280089280176426 -27.01571099239106 11.791230822811153 0 -0.7660444514056185 0.64278759981090561 1.5 0 0 1 I I #
face $-1 $-1 $267 $34 $-1 $388 reversed single #
loop $-1 $-1 $389 $155 #
plane-surface $-1 0 0 14.63223789203168 0 0 1 1 0 0 forward_v I I I I #
coedge $-1 $390 $391 $392 $393 reversed $156 $-1 #
coedge $-1 $394 $158 $160 $265 forward $98 $-1 #
coedge $-1 $158 $394 $390 $395 forward $98 $-1 #
coedge $-1 $392 $161 $158 $262 forward $267 $-1 #
edge $-1 $269 -18.389068552582803 $396 2.4773590620401258 $261 $397 forward 7 unknown #
coedge $-1 $398 $399 $159 $264 forward $256 $-1 #
edge $-1 $400 -44.273447287605698 $268 -39.505671444521823 $263 $401 forward 7 unknown #
edge $-1 $269 3.9118543198043554e-014 $400 7.4173425941733822 $160 $402 forward 7 unknown #
coedge $-1 $161 $392 $398 $403 reversed $267 $-1 #
loop $-1 $-1 $392 $255 #
vertex $-1 $403 $404 #
vertex $-1 $162 $405 #
straight-curve $-1 -26.344923297854141 -29.399598913932991 49.958901327204735 0 0 -1 I I #
coedge $-1 $271 $271 $-1 $406 reversed $165 $-1 #
edge $-1 $407 0 $407 6.2831853071796004 $166 $408 forward 7 unknown #
vertex $-1 $169 $409 #
ellipse-curve $-1 -15.911709490542677 -27.01571099239106 11.791230822811153 0 -0.7660444514056185 0.64278759981090561 1.5 0 0 1 I I #
face $-1 $-1 $410 $36 $-1 $411 forward single #
loop $-1 $-1 $176 $170 #
plane-surface $-1 0 -29.399598913932994 0 0 1 0 0 0 1 forward_v I I I I #
coedge $-1 $412 $413 $414 $415 reversed $171 $-1 #
coedge $-1 $416 $173 $175 $285 forward $107 $-1 #
coedge $-1 $173 $416 $412 $417 forward $107 $-1 #
coedge $-1 $414 $176 $173 $282 forward $276 $-1 #
edge $-1 $288 -2.2048786577659349 $418 18.661548956856993 $281 $419 forward 7 unknown #
coedge $-1 $420 $421 $174 $284 forward $410 $-1 #
edge $-1 $422 -44.273447287605698 $287 -39.505671444521823 $283 $423 forward 7 unknown #
edge $-1 $288 3.9118543198043554e-014 $422 7.4173425941733822 $175 $424 forward 7 unknown #
coedge $-1 $176 $414 $420 $425 reversed $276 $-1 #
vertex $-1 $425 $426 #
vertex $-1 $177 $427 #
straight-curve $-1 6.0234564917795943 -29.399598913932991 49.958901327204735 0 0 -1 I I #
coedge $-1 $290 $290 $-1 $428 reversed $180 $-1 #
edge $-1 $429 0 $429 6.2831853071796004 $181 $430 forward 7 unknown #
vertex $-1 $184 $431 #
ellipse-curve $-1 16.456670299091058 -27.01571099239106 11.791230822811153 0 -0.7660444514056185 0.64278759981090561 1.5 0 0 1 I I #
face $-1 $-1 $432 $38 $-1 $433 forward single #
loop $-1 $-1 $191 $185 #
plane-surface $-1 0 -29.399598913932994 0 0 1 0 0 0 1 forward_v I I I I #
coedge $-1 $434 $435 $436 $437 reversed $186 $-1 #
coedge $-1 $438 $188 $190 $304 forward $116 $-1 #
coedge $-1 $188 $438 $434 $439 forward $116 $-1 #
coedge $-1 $436 $191 $188 $301 forward $295 $-1 #
edge $-1 $307 13.979311237050936 $440 34.845738851673858 $300 $441 forward 7 unknown #
coedge $-1 $442 $443 $189 $303 forward $432 $-1 #
edge $-1 $444 -44.273447287605698 $306 -39.505671444521823 $302 $445 forward 7 unknown #
edge $-1 $307 3.9118543198043554e-014 $444 7.4173425941733822 $190 $446 forward 7 unknown #
coedge $-1 $191 $436 $442 $447 reversed $295 $-1 #
vertex $-1 $447 $448 #
vertex $-1 $192 $449 #
straight-curve $-1 38.391836281413333 -29.399598913932991 49.958901327204735 0 0 -1 I I #
coedge $-1 $309 $309 $-1 $450 reversed $195 $-1 #
edge $-1 $451 0 $451 6.2831853071796004 $196 $452 forward 7 unknown #
vertex $-1 $199 $453 #
ellipse-curve $-1 48.825050088724794 -27.01571099239106 11.791230822811153 0 -0.7660444514056185 0.64278759981090561 1.5 0 0 1 I I #
face $-1 $-1 $215 $30 $-1 $454 reversed single #
loop $-1 $-1 $329 $200 #
plane-surface $-1 0 29.399598913932994 0 0 -1 0 0 0 -1 forward_v I I I I #
coedge $-1 $455 $327 $330 $456 forward $201 $-1 #
coedge $-1 $333 $203 $204 $321 reversed $125 $-1 #
coedge $-1 $327 $455 $203 $319 reversed $201 $-1 #
edge $-1 $334 -14.63223789203168 $457 14.63223789203168 $318 $458 forward 7 unknown #
coedge $-1 $205 $204 $455 $459 forward $81 $-1 #
edge $-1 $325 -70.760216071047097 $457 70.760216071047097 $317 $460 forward 7 unknown #
coedge $-1 $330 $329 $205 $323 reversed $314 $-1 #
edge $-1 $461 -70.760216071047097 $324 70.760216071047097 $322 $462 forward 7 unknown #
vertex $-1 $207 $463 #
vertex $-1 $336 $464 #
straight-curve $-1 70.760216071047097 0 -14.63223789203168 0 -1 0 I I #
coedge $-1 $316 $318 $208 $328 reversed $201 $-1 #
edge $-1 $331 -29.399598913932994 $334 29.399598913932994 $327 $465 forward 7 unknown #
coedge $-1 $322 $209 $214 $337 forward $314 $-1 #
coedge $-1 $209 $322 $316 $456 reversed $314 $-1 #
vertex $-1 $210 $466 #
straight-curve $-1 0 29.399598913932994 14.63223789203168 -1 0 0 I I #
coedge $-1 $211 $317 $213 $336 reversed $125 $-1 #
vertex $-1 $328 $467 #
straight-curve $-1 0 -29.399598913932994 14.63223789203168 1 0 0 I I #
edge $-1 $216 -14.63223789203168 $325 14.63223789203168 $213 $468 forward 7 unknown #
edge $-1 $217 -14.63223789203168 $324 14.63223789203168 $214 $469 forward 7 unknown #
point $-1 70.760216071047097 -29.399598913932994 14.63223789203168 #
point $-1 70.760216071047097 29.399598913932994 14.63223789203168 #
face $-1 $-1 $357 $31 $-1 $470 reversed single #
loop $-1 $-1 $471 $219 #
plane-surface $-1 -70.760216071047097 0 0 1 0 0 0 0 -1 forward_v I I I I #
coedge $-1 $344 $360 $223 $347 forward $220 $-1 #
coedge $-1 $230 $343 $222 $345 forward $220 $-1 #
edge $-1 $351 0.27129783378785444 $233 6.518857496016877 $344 $472 forward 7 unknown #
coedge $-1 $224 $223 $471 $473 reversed $85 $-1 #
edge $-1 $474 -38.391836281413354 $351 -26.344923297854137 $343 $475 forward 7 unknown #
coedge $-1 $356 $355 $224 $349 forward $357 $-1 #
edge $-1 $350 26.344923297854137 $476 38.391836281413354 $348 $477 forward 7 unknown #
vertex $-1 $349 $478 #
vertex $-1 $347 $479 #
straight-curve $-1 -58.71330308748788 0 3.6663754986902202 0 -1 0 I I #
coedge $-1 $480 $481 $227 $354 forward $341 $-1 #
edge $-1 $361 -29.399598913932994 $358 29.399598913932994 $353 $482 forward 7 unknown #
coedge $-1 $348 $228 $232 $363 forward $357 $-1 #
coedge $-1 $228 $348 $480 $483 reversed $357 $-1 #
loop $-1 $-1 $348 $340 #
vertex $-1 $483 $484 #
straight-curve $-1 -32.368379789633742 29.399598913932994 9.9139351609192428 1 0 0 I I #
coedge $-1 $343 $230 $481 $485 forward $220 $-1 #
vertex $-1 $485 $486 #
straight-curve $-1 -32.368379789633742 -29.399598913932994 9.9139351609192428 -1 0 0 I I #
edge $-1 $234 -6.518857496016877 $350 -0.27129783378785444 $355 $487 forward 7 unknown #
point $-1 -58.71330308748788 -29.399598913932994 9.9139351609192428 #
point $-1 -58.71330308748788 29.399598913932994 9.9139351609192428 #
loop $-1 $-1 $488 $236 #
plane-surface $-1 0 0 14.63223789203168 0 0 1 1 0 0 forward_v I I I I #
coedge $-1 $239 $242 $489 $490 reversed $141 $-1 #
coedge $-1 $377 $245 $239 $370 reversed $237 $-1 #
edge $-1 $491 35.326663435173053 $248 41.008677573614101 $239 $492 forward 7 unknown #
coedge $-1 $375 $489 $241 $372 forward $366 $-1 #
edge $-1 $373 39.505671444521823 $380 44.273447287605698 $371 $493 forward 7 unknown #
vertex $-1 $243 $494 #
straight-curve $-1 -37.846875472864966 -29.399598913932991 49.958901327204735 0 0 1 I I #
coedge $-1 $488 $371 $244 $376 forward $366 $-1 #
edge $-1 $380 13.706830832776753 $378 34.573258447399674 $375 $495 forward 7 unknown #
coedge $-1 $245 $369 $488 $496 reversed $237 $-1 #
vertex $-1 $496 $497 #
straight-curve $-1 -58.71330308748788 -23.857809096239794 15.55467185114089 0 -0.64278759981090572 -0.76604445140561861 I I #
vertex $-1 $376 $498 #
straight-curve $-1 -37.846875472864966 -29.399598913933019 8.9502237535906062 0 -0.64278759981090561 -0.7660444514056185 I I #
point $-1 -58.71330308748788 -29.399598913932994 8.9502237535906364 #
point $-1 -37.846875472864966 -29.399598913932994 8.9502237535906364 #
edge $-1 $499 1 $499 0 $251 $-1 forward 7 unknown #
vertex $-1 $252 $500 #
ellipse-curve $-1 -48.280089280176426 -24.522565589729098 9.699233489737173 0 -0.7660444514056185 0.64278759981090561 1.5 0 0 1 I I #
point $-1 -46.780089280176426 -27.015710992391032 11.791230822811134 #
plane-surface $-1 0 -29.399598913932994 0 0 1 0 0 0 1 forward_v I I I I #
coedge $-1 $399 $398 $391 $501 forward $256 $-1 #
coedge $-1 $391 $258 $260 $395 reversed $156 $-1 #
coedge $-1 $258 $390 $389 $501 reversed $156 $-1 #
coedge $-1 $266 $261 $258 $393 forward $267 $-1 #
edge $-1 $396 -41.008677573614101 $502 -35.326663435173053 $392 $503 forward 7 unknown #
coedge $-1 $260 $259 $399 $504 reversed $98 $-1 #
edge $-1 $505 -7.4173425941733822 $396 -3.9118543198043554e-014 $390 $506 forward 7 unknown #
vertex $-1 $262 $507 #
straight-curve $-1 -7.9558547452713384 -29.399598913932994 8.9502237535906346 1 0 0 I I #
coedge $-1 $389 $263 $266 $403 forward $256 $-1 #
coedge $-1 $263 $389 $394 $504 forward $256 $-1 #
vertex $-1 $264 $508 #
straight-curve $-1 -26.344923297854141 -68.905270358454814 14.632237892031682 0 -1 0 I I #
straight-curve $-1 -26.344923297854141 -29.399598913933019 8.9502237535906062 0 0.64278759981090561 0.7660444514056185 I I #
edge $-1 $268 -26.344923297854141 $502 -5.4784956832312126 $266 $509 forward 7 unknown #
point $-1 -26.344923297854141 -29.399598913932994 14.63223789203168 #
point $-1 -26.344923297854141 -29.399598913932994 8.9502237535906364 #
edge $-1 $510 1 $510 0 $271 $-1 forward 7 unknown #
vertex $-1 $272 $511 #
ellipse-curve $-1 -15.911709490542677 -24.522565589729098 9.699233489737173 0 -0.7660444514056185 0.64278759981090561 1.5 0 0 1 I I #
point $-1 -14.411709490542677 -27.015710992391032 11.791230822811134 #
loop $-1 $-1 $283 $275 #
plane-surface $-1 0 0 14.63223789203168 0 0 1 1 0 0 forward_v I I I I #
coedge $-1 $413 $278 $280 $417 reversed $171 $-1 #
coedge $-1 $278 $412 $512 $513 reversed $171 $-1 #
coedge $-1 $286 $281 $278 $415 forward $276 $-1 #
edge $-1 $418 -41.008677573614101 $514 -35.326663435173053 $414 $515 forward 7 unknown #
coedge $-1 $280 $279 $421 $516 reversed $107 $-1 #
edge $-1 $517 -7.4173425941733822 $418 -3.9118543198043554e-014 $412 $518 forward 7 unknown #
vertex $-1 $282 $519 #
straight-curve $-1 8.2283351495455292 -29.399598913932994 8.9502237535906346 1 0 0 I I #
coedge $-1 $512 $283 $286 $425 forward $410 $-1 #
coedge $-1 $283 $512 $416 $516 forward $410 $-1 #
vertex $-1 $284 $520 #
straight-curve $-1 6.0234564917795943 -68.905270358454814 14.632237892031682 0 -1 0 I I #
straight-curve $-1 6.0234564917795943 -29.399598913933019 8.9502237535906062 0 0.64278759981090561 0.7660444514056185 I I #
edge $-1 $287 6.0234564917795943 $514 26.889884106402523 $286 $521 forward 7 unknown #
point $-1 6.0234564917795943 -29.399598913932994 14.63223789203168 #
point $-1 6.0234564917795943 -29.399598913932994 8.9502237535906364 #
edge $-1 $522 1 $522 0 $290 $-1 forward 7 unknown #
vertex $-1 $291 $523 #
ellipse-curve $-1 16.456670299091058 -24.522565589729098 9.699233489737173 0 -0.7660444514056185 0.64278759981090561 1.5 0 0 1 I I #
point $-1 17.956670299091058 -27.015710992391032 11.791230822811134 #
loop $-1 $-1 $302 $294 #
plane-surface $-1 0 0 14.63223789203168 0 0 1 1 0 0 forward_v I I I I #
coedge $-1 $435 $297 $299 $439 reversed $186 $-1 #
coedge $-1 $297 $434 $524 $525 reversed $186 $-1 #
coedge $-1 $305 $300 $297 $437 forward $295 $-1 #
edge $-1 $440 -41.008677573614101 $526 -35.326663435173053 $436 $527 forward 7 unknown #
coedge $-1 $299 $298 $443 $528 reversed $116 $-1 #
edge $-1 $529 -7.4173425941733822 $440 -3.9118543198043554e-014 $434 $530 forward 7 unknown #
vertex $-1 $301 $531 #
straight-curve $-1 24.412525044362397 -29.399598913932994 8.9502237535906346 1 0 0 I I #
coedge $-1 $524 $302 $305 $447 forward $432 $-1 #
coedge $-1 $302 $524 $438 $528 forward $432 $-1 #
vertex $-1 $303 $532 #
straight-curve $-1 38.391836281413333 -68.905270358454814 14.632237892031682 0 -1 0 I I #
straight-curve $-1 38.391836281413333 -29.399598913933019 8.9502237535906062 0 0.64278759981090561 0.7660444514056185 I I #
edge $-1 $306 38.391836281413333 $526 59.258263896036254 $305 $533 forward 7 unknown #
point $-1 38.391836281413333 -29.399598913932994 14.63223789203168 #
point $-1 38.391836281413333 -29.399598913932994 8.9502237535906364 #
edge $-1 $534 1 $534 0 $309 $-1 forward 7 unknown #
vertex $-1 $310 $535 #
ellipse-curve $-1 48.825050088724794 -24.522565589729098 9.699233489737173 0 -0.7660444514056185 0.64278759981090561 1.5 0 0 1 I I #
point $-1 50.325050088724794 -27.015710992391032 11.791230822811134 #
plane-surface $-1 70.760216071047097 0 0 -1 0 0 0 0 1 forward_v I I I I #
coedge $-1 $318 $316 $320 $459 reversed $201 $-1 #
edge $-1 $331 -14.63223789203168 $461 14.63223789203168 $330 $536 forward 7 unknown #
vertex $-1 $459 $537 #
straight-curve $-1 -70.760216071047097 -29.399598913932994 0 0 0 -1 I I #
edge $-1 $457 -29.399598913932994 $461 29.399598913932994 $455 $538 forward 7 unknown #
straight-curve $-1 0 -29.399598913932994 -14.63223789203168 -1 0 0 I I #
vertex $-1 $323 $539 #
straight-curve $-1 0 29.399598913932994 -14.63223789203168 1 0 0 I I #
point $-1 70.760216071047097 29.399598913932994 -14.63223789203168 #
point $-1 70.760216071047097 -29.399598913932994 -14.63223789203168 #
straight-curve $-1 -70.760216071047097 0 14.63223789203168 0 -1 0 I I #
point $-1 -70.760216071047097 29.399598913932994 14.63223789203168 #
point $-1 -70.760216071047097 -29.399598913932994 14.63223789203168 #
straight-curve $-1 70.760216071047097 -29.399598913932994 0 0 0 -1 I I #
straight-curve $-1 70.760216071047097 29.399598913932994 0 0 0 -1 I I #
plane-surface $-1 0 29.399598913932994 0 0 -1 0 0 0 -1 forward_v I I I I #
coedge $-1 $481 $480 $346 $473 forward $341 $-1 #
straight-curve $-1 -58.71330308748788 -29.399598913932994 3.3950776649023657 0 0 1 I I #
edge $-1 $476 -29.399598913932994 $474 29.399598913932994 $471 $540 forward 7 unknown #
vertex $-1 $347 $541 #
straight-curve $-1 -32.368379789633742 -29.399598913932994 3.6663754986902202 1 0 0 I I #
vertex $-1 $349 $542 #
straight-curve $-1 -32.368379789633742 29.399598913932994 3.6663754986902202 -1 0 0 I I #
point $-1 -58.71330308748788 29.399598913932994 3.6663754986902202 #
point $-1 -58.71330308748788 -29.399598913932994 3.6663754986902202 #
coedge $-1 $471 $353 $356 $483 forward $341 $-1 #
coedge $-1 $353 $471 $360 $485 reversed $341 $-1 #
straight-curve $-1 -70.760216071047097 0 9.9139351609192428 0 1 0 I I #
edge $-1 $358 -9.9139351609192428 $476 -3.6663754986902202 $356 $543 forward 7 unknown #
point $-1 -70.760216071047097 29.399598913932994 9.9139351609192428 #
edge $-1 $361 -9.9139351609192428 $474 -3.6663754986902202 $481 $544 forward 7 unknown #
point $-1 -70.760216071047097 -29.399598913932994 9.9139351609192428 #
straight-curve $-1 -58.71330308748788 29.399598913932994 3.3950776649023657 0 0 -1 I I #
coedge $-1 $489 $375 $377 $496 forward $366 $-1 #
coedge $-1 $371 $488 $368 $490 forward $366 $-1 #
edge $-1 $491 -58.713303087487887 $373 -37.846875472864966 $368 $545 forward 7 unknown #
vertex $-1 $490 $546 #
straight-curve $-1 -58.713303087487887 -29.399598913932991 49.958901327204735 0 0 -1 I I #
straight-curve $-1 -37.846875472864966 -68.905270358454814 14.632237892031682 0 1 0 I I #
point $-1 -37.846875472864966 -29.399598913932994 14.63223789203168 #
straight-curve $-1 -24.140044640088213 -24.631823070849116 14.63223789203168 -1 0 0 I I #
edge $-1 $378 -44.273447287605698 $491 -39.505671444521823 $488 $547 forward 7 unknown #
point $-1 -58.713303087487887 -24.631823070849116 14.63223789203168 #
point $-1 -37.846875472864966 -24.631823070849116 14.63223789203168 #
vertex $-1 $384 $548 #
point $-1 -46.780089280176426 -24.522565589729098 9.699233489737173 #
edge $-1 $502 39.505671444521823 $505 44.273447287605698 $389 $549 forward 7 unknown #
vertex $-1 $501 $550 #
straight-curve $-1 -5.4784956832312126 -29.399598913932991 49.958901327204735 0 0 1 I I #
edge $-1 $505 -2.4773590620401258 $400 18.389068552582803 $399 $551 forward 7 unknown #
vertex $-1 $504 $552 #
straight-curve $-1 -5.4784956832312126 -29.399598913933019 8.9502237535906062 0 -0.64278759981090561 -0.7660444514056185 I I #
point $-1 -5.4784956832312126 -29.399598913932994 8.9502237535906364 #
point $-1 -26.344923297854141 -24.631823070849116 14.63223789203168 #
straight-curve $-1 0 -29.399598913932994 14.63223789203168 1 0 0 I I #
vertex $-1 $406 $553 #
point $-1 -14.411709490542677 -24.522565589729098 9.699233489737173 #
coedge $-1 $421 $420 $413 $513 forward $410 $-1 #
edge $-1 $514 39.505671444521823 $517 44.273447287605698 $512 $554 forward 7 unknown #
vertex $-1 $513 $555 #
straight-curve $-1 26.889884106402523 -29.399598913932991 49.958901327204735 0 0 1 I I #
edge $-1 $517 -18.661548956856993 $422 2.2048786577659349 $421 $556 forward 7 unknown #
vertex $-1 $516 $557 #
straight-curve $-1 26.889884106402523 -29.399598913933019 8.9502237535906062 0 -0.64278759981090561 -0.7660444514056185 I I #
point $-1 26.889884106402523 -29.399598913932994 8.9502237535906364 #
point $-1 6.0234564917795943 -24.631823070849116 14.63223789203168 #
straight-curve $-1 0 -29.399598913932994 14.63223789203168 1 0 0 I I #
vertex $-1 $428 $558 #
point $-1 17.956670299091058 -24.522565589729098 9.699233489737173 #
coedge $-1 $443 $442 $435 $525 forward $432 $-1 #
edge $-1 $526 39.505671444521823 $529 44.273447287605698 $524 $559 forward 7 unknown #
vertex $-1 $525 $560 #
straight-curve $-1 59.258263896036254 -29.399598913932991 49.958901327204735 0 0 1 I I #
edge $-1 $529 -34.845738851673858 $444 -13.979311237050936 $443 $561 forward 7 unknown #
vertex $-1 $528 $562 #
straight-curve $-1 59.258263896036254 -29.399598913933019 8.9502237535906062 0 -0.64278759981090561 -0.7660444514056185 I I #
point $-1 59.258263896036254 -29.399598913932994 8.9502237535906364 #
point $-1 38.391836281413333 -24.631823070849116 14.63223789203168 #
straight-curve $-1 0 -29.399598913932994 14.63223789203168 1 0 0 I I #
vertex $-1 $450 $563 #
point $-1 50.325050088724794 -24.522565589729098 9.699233489737173 #
straight-curve $-1 -70.760216071047097 29.399598913932994 0 0 0 -1 I I #
point $-1 -70.760216071047097 -29.399598913932994 -14.63223789203168 #
straight-curve $-1 -70.760216071047097 0 -14.63223789203168 0 1 0 I I #
point $-1 -70.760216071047097 29.399598913932994 -14.63223789203168 #
straight-curve $-1 -70.760216071047097 0 3.6663754986902202 0 -1 0 I I #
point $-1 -70.760216071047097 -29.399598913932994 3.6663754986902202 #
point $-1 -70.760216071047097 29.399598913932994 3.6663754986902202 #
straight-curve $-1 -70.760216071047097 29.399598913932994 0 0 0 -1 I I #
straight-curve $-1 -70.760216071047097 -29.399598913932994 0 0 0 -1 I I #
straight-curve $-1 0 -29.399598913932994 14.63223789203168 1 0 0 I I #
point $-1 -58.713303087487887 -29.399598913932994 14.63223789203168 #
straight-curve $-1 -58.713303087487887 -68.905270358454814 14.632237892031682 0 -1 0 I I #
point $-1 -48.280089280176426 -23.373498912620668 8.7350520900208135 #
straight-curve $-1 -5.4784956832312126 -68.905270358454814 14.632237892031682 0 1 0 I I #
point $-1 -5.4784956832312126 -29.399598913932994 14.63223789203168 #
straight-curve $-1 -7.9558547452713384 -24.631823070849116 14.63223789203168 -1 0 0 I I #
point $-1 -5.4784956832312126 -24.631823070849116 14.63223789203168 #
point $-1 -15.911709490542677 -23.373498912620668 8.7350520900208135 #
straight-curve $-1 26.889884106402523 -68.905270358454814 14.632237892031682 0 1 0 I I #
point $-1 26.889884106402523 -29.399598913932994 14.63223789203168 #
straight-curve $-1 8.2283351495455292 -24.631823070849116 14.63223789203168 -1 0 0 I I #
point $-1 26.889884106402523 -24.631823070849116 14.63223789203168 #
point $-1 16.456670299091058 -23.373498912620668 8.7350520900208135 #
straight-curve $-1 59.258263896036254 -68.905270358454814 14.632237892031682 0 1 0 I I #
point $-1 59.258263896036254 -29.399598913932994 14.63223789203168 #
straight-curve $-1 24.412525044362397 -24.631823070849116 14.63223789203168 -1 0 0 I I #
point $-1 59.258263896036254 -24.631823070849116 14.63223789203168 #
point $-1 48.825050088724794 -23.373498912620668 8.7350520900208135 #
End-of-ACIS-data 