500 0 4 0           
7 Unknown 11 ACIS 5.0 NT 24 Thu Mar 25 23:12:12 1999 
-1 9.9999999999999995e-007 1e-010 
body $-1 $4 $-1 $5 #
body $-1 $6 $-1 $7 #
body $-1 $8 $-1 $9 #
body $-1 $10 $-1 $11 #
lump $-1 $-1 $12 $0 #
transform $-1 1 0 0 0 1 0 0 0 1 49.277626880703146 32.127081744654227 7.021052267992018 1 rotate no_reflect no_shear #
lump $-1 $-1 $13 $1 #
transform $-1 1 0 0 0 1 0 0 0 1 49.277626880703146 32.127081744654227 7.021052267992018 1 rotate no_reflect no_shear #
lump $-1 $-1 $14 $2 #
transform $-1 1 0 0 0 1 0 0 0 1 49.277626880703146 32.127081744654227 7.021052267992018 1 rotate no_reflect no_shear #
lump $-1 $-1 $15 $3 #
transform $-1 1 0 0 0 1 0 0 0 1 49.277626880703146 32.127081744654227 7.021052267992018 1 rotate no_reflect no_shear #
shell $-1 $-1 $-1 $16 $-1 $4 #
shell $-1 $-1 $-1 $17 $-1 $6 #
shell $-1 $-1 $-1 $18 $-1 $8 #
shell $-1 $-1 $-1 $19 $-1 $10 #
face $-1 $20 $21 $12 $-1 $22 forward single #
face $-1 $23 $24 $13 $-1 $25 forward single #
face $-1 $26 $27 $14 $-1 $28 forward single #
face $-1 $29 $30 $15 $-1 $31 reversed single #
face $-1 $32 $33 $12 $-1 $34 reversed single #
loop $-1 $-1 $35 $16 #
plane-surface $-1 0 0 7.021052267992018 0 0 1 1 0 0 forward_v I I I I #
face $-1 $36 $37 $13 $-1 $38 reversed single #
loop $-1 $-1 $39 $17 #
plane-surface $-1 0 -36.062575778477232 0.58354264618230944 0 0 1 1 0 0 forward_v I I I I #
face $-1 $40 $41 $14 $-1 $42 forward single #
loop $-1 $-1 $43 $18 #
plane-surface $-1 17.044886777004066 36.022124665572669 120.5775041748347 1 0 0 0 -0.57357644374324357 -0.81915203911291934 forward_v I I I I #
face $-1 $44 $45 $15 $-1 $46 reversed single #
loop $-1 $47 $48 $19 #
cone-surface $-1 25.659861769713437 28.859886505160411 4.4498004768317232 0 -0.57357644374324357 -0.81915203911291934 1 0 0 1 I I 0 1 1 forward I I I I #
face $-1 $49 $50 $12 $-1 $51 reversed single #
loop $-1 $-1 $52 $20 #
plane-surface $-1 0 0 -7.021052267992018 0 0 1 1 0 0 forward_v I I I I #
coedge $-1 $53 $54 $55 $56 forward $21 $-1 #
face $-1 $57 $58 $13 $-1 $59 reversed single #
loop $-1 $-1 $60 $23 #
plane-surface $-1 0 -36.062575778477232 -2.4796477286692267 0 0 1 1 0 0 forward_v I I I I #
coedge $-1 $61 $62 $63 $64 forward $24 $-1 #
face $-1 $65 $66 $14 $-1 $67 forward single #
loop $-1 $-1 $68 $26 #
plane-surface $-1 25.659861769713437 -20.506847299107683 39.84576709088752 0 0.57357644374324357 0.81915203911291934 1 0 0 forward_v I I I I #
coedge $-1 $69 $70 $71 $72 reversed $27 $-1 #
face $-1 $73 $74 $15 $-1 $75 forward single #
loop $-1 $76 $77 $29 #
cone-surface $-1 25.659861769713437 28.183592492769279 3.4839525496144725 0 -0.57357644374324357 -0.81915203911291934 0.5 0 0 1 I I -0.70710678118654746 0.70710678118654746 0.5 forward I I I I #
loop $-1 $-1 $78 $19 #
coedge $-1 $48 $48 $79 $80 reversed $30 $-1 #
face $-1 $81 $82 $12 $-1 $83 reversed single #
loop $-1 $-1 $84 $32 #
plane-surface $-1 0 -32.127081744654227 0 0 1 0 0 0 1 forward_v I I I I #
coedge $-1 $85 $86 $87 $88 forward $33 $-1 #
coedge $-1 $89 $35 $90 $91 forward $21 $-1 #
coedge $-1 $35 $89 $92 $93 forward $21 $-1 #
coedge $-1 $94 $95 $35 $56 reversed $96 $-1 #
edge $-1 $97 -32.127081744654227 $98 32.127081744654227 $55 $99 forward 7 unknown #
face $-1 $100 $101 $13 $-1 $102 reversed single #
loop $-1 $-1 $103 $36 #
plane-surface $-1 0 -39.998069812300237 -0.94805254124345861 0 1 0 0 0 1 forward_v I I I I #
coedge $-1 $104 $105 $106 $107 forward $37 $-1 #
coedge $-1 $108 $39 $109 $110 reversed $24 $-1 #
coedge $-1 $39 $108 $111 $112 forward $24 $-1 #
coedge $-1 $113 $114 $39 $64 reversed $115 $-1 #
edge $-1 $116 -3.9354940338230051 $117 3.9354940338230051 $63 $118 forward 7 unknown #
face $-1 $119 $120 $14 $-1 $121 forward single #
loop $-1 $-1 $122 $40 #
plane-surface $-1 34.274836762422808 36.022124665572669 120.5775041748347 -1 0 0 0 0.57357644374324357 0.81915203911291934 forward_v I I I I #
coedge $-1 $123 $124 $125 $126 reversed $41 $-1 #
coedge $-1 $70 $43 $124 $127 forward $27 $-1 #
coedge $-1 $43 $69 $128 $129 reversed $27 $-1 #
coedge $-1 $130 $125 $43 $72 forward $120 $-1 #
edge $-1 $131 8.3606405139193107 $132 14.116019411867892 $71 $133 forward 7 unknown #
face $-1 $134 $135 $15 $-1 $136 forward single #
loop $-1 $-1 $137 $44 #
plane-surface $-1 17.044886777004066 36.022124665572669 120.5775041748347 1 0 0 0 -0.57357644374324357 -0.81915203911291934 forward_v I I I I #
loop $-1 $-1 $138 $29 #
coedge $-1 $77 $77 $78 $139 forward $45 $-1 #
coedge $-1 $78 $78 $77 $139 reversed $47 $-1 #
coedge $-1 $79 $79 $48 $80 forward $135 $-1 #
edge $-1 $140 -1.1652931006749434e-015 $140 6.2831853071795996 $79 $141 forward 7 unknown #
face $-1 $142 $143 $12 $-1 $144 reversed single #
loop $-1 $-1 $145 $49 #
plane-surface $-1 -49.277626880703146 0 0 1 0 0 0 0 -1 forward_v I I I I #
coedge $-1 $146 $92 $147 $148 forward $50 $-1 #
coedge $-1 $149 $52 $146 $150 forward $33 $-1 #
coedge $-1 $52 $149 $151 $152 forward $33 $-1 #
coedge $-1 $95 $94 $52 $88 reversed $96 $-1 #
edge $-1 $153 -32.127081744654227 $154 32.127081744654227 $87 $155 forward 7 unknown #
coedge $-1 $54 $53 $156 $157 forward $21 $-1 #
coedge $-1 $158 $159 $53 $91 reversed $143 $-1 #
edge $-1 $98 -49.277626880703146 $160 49.277626880703146 $90 $161 forward 7 unknown #
coedge $-1 $84 $162 $54 $93 reversed $50 $-1 #
edge $-1 $163 -49.277626880703146 $97 49.277626880703146 $92 $164 forward 7 unknown #
coedge $-1 $87 $55 $162 $165 forward $96 $-1 #
coedge $-1 $55 $87 $158 $166 reversed $96 $-1 #
loop $-1 $-1 $94 $142 #
vertex $-1 $56 $167 #
vertex $-1 $56 $168 #
straight-curve $-1 49.277626880703146 0 7.021052267992018 0 1 0 I I #
face $-1 $169 $170 $13 $-1 $102 reversed single #
loop $-1 $-1 $171 $57 #
plane-surface $-1 0 -32.127081744654227 0 0 1 0 0 0 1 forward_v I I I I #
coedge $-1 $172 $111 $173 $174 forward $58 $-1 #
coedge $-1 $175 $60 $172 $176 forward $37 $-1 #
coedge $-1 $60 $175 $171 $177 reversed $37 $-1 #
coedge $-1 $178 $113 $60 $107 reversed $115 $-1 #
edge $-1 $179 -3.9354940338230051 $180 3.9354940338230051 $106 $181 forward 7 unknown #
coedge $-1 $62 $61 $182 $183 forward $24 $-1 #
coedge $-1 $184 $185 $61 $110 forward $170 $-1 #
edge $-1 $186 -49.277626880703146 $117 49.277626880703146 $109 $187 forward 7 unknown #
coedge $-1 $103 $188 $62 $112 reversed $58 $-1 #
edge $-1 $189 -49.277626880703146 $116 49.277626880703146 $111 $190 forward 7 unknown #
coedge $-1 $106 $63 $188 $191 forward $115 $-1 #
coedge $-1 $63 $192 $184 $193 forward $115 $-1 #
loop $-1 $-1 $114 $194 #
vertex $-1 $64 $195 #
vertex $-1 $64 $196 #
straight-curve $-1 49.277626880703146 -36.062575778477232 0.58354264618230944 0 1 0 I I #
face $-1 $197 $198 $14 $-1 $199 forward single #
loop $-1 $-1 $200 $65 #
plane-surface $-1 0 0 7.021052267992018 0 0 1 1 0 0 forward_v I I I I #
coedge $-1 $201 $202 $200 $203 reversed $66 $-1 #
coedge $-1 $204 $68 $202 $205 reversed $41 $-1 #
coedge $-1 $68 $204 $69 $127 reversed $41 $-1 #
coedge $-1 $71 $200 $68 $126 forward $120 $-1 #
edge $-1 $206 -21.444905877566089 $131 -4.2149558921473478 $125 $207 forward 7 unknown #
edge $-1 $131 57.228143137602764 $208 64.254163489308453 $69 $209 forward 7 unknown #
coedge $-1 $210 $211 $70 $129 forward $212 $-1 #
edge $-1 $132 53.267699819425331 $208 57.297659586424338 $128 $213 forward 7 unknown #
coedge $-1 $214 $71 $211 $215 forward $120 $-1 #
vertex $-1 $126 $216 #
vertex $-1 $215 $217 #
straight-curve $-1 17.044886777004066 18.011062332786334 7.0210522679920189 0 1 0 I I #
face $-1 $218 $219 $15 $-1 $220 forward single #
loop $-1 $221 $79 $73 #
plane-surface $-1 25.659861769713437 -20.506847299107683 39.84576709088752 0 0.57357644374324357 0.81915203911291934 1 0 0 forward_v I I I I #
coedge $-1 $222 $223 $224 $225 reversed $74 $-1 #
coedge $-1 $138 $138 $-1 $226 forward $76 $-1 #
edge $-1 $227 0 $227 6.2831853071796004 $77 $228 forward 7 unknown #
vertex $-1 $80 $229 #
ellipse-curve $-1 25.659861769713437 29.249392295679925 5.006072384492521 0 -0.57357644374324357 -0.81915203911291934 1 0 0 1 I I #
face $-1 $-1 $96 $12 $-1 $230 reversed single #
loop $-1 $-1 $158 $81 #
plane-surface $-1 0 32.127081744654227 0 0 -1 0 0 0 -1 forward_v I I I I #
coedge $-1 $231 $156 $159 $232 forward $82 $-1 #
coedge $-1 $162 $84 $85 $150 reversed $50 $-1 #
coedge $-1 $156 $231 $84 $148 reversed $82 $-1 #
edge $-1 $163 -7.021052267992018 $233 7.021052267992018 $147 $234 forward 7 unknown #
coedge $-1 $86 $85 $231 $235 forward $33 $-1 #
edge $-1 $154 -49.277626880703146 $233 49.277626880703146 $146 $236 forward 7 unknown #
coedge $-1 $159 $158 $86 $152 reversed $143 $-1 #
edge $-1 $237 -49.277626880703146 $153 49.277626880703146 $151 $238 forward 7 unknown #
vertex $-1 $88 $239 #
vertex $-1 $165 $240 #
straight-curve $-1 49.277626880703146 0 -7.021052267992018 0 -1 0 I I #
coedge $-1 $145 $147 $89 $157 reversed $82 $-1 #
edge $-1 $160 -32.127081744654227 $163 32.127081744654227 $156 $241 forward 7 unknown #
coedge $-1 $151 $90 $95 $166 forward $143 $-1 #
coedge $-1 $90 $151 $145 $232 reversed $143 $-1 #
vertex $-1 $91 $242 #
straight-curve $-1 0 32.127081744654227 7.021052267992018 -1 0 0 I I #
coedge $-1 $92 $146 $94 $165 reversed $50 $-1 #
vertex $-1 $157 $243 #
straight-curve $-1 0 -32.127081744654227 7.021052267992018 1 0 0 I I #
edge $-1 $97 -7.021052267992018 $154 7.021052267992018 $94 $244 forward 7 unknown #
edge $-1 $98 -7.021052267992018 $153 7.021052267992018 $95 $245 forward 7 unknown #
point $-1 49.277626880703146 -32.127081744654227 7.021052267992018 #
point $-1 49.277626880703146 32.127081744654227 7.021052267992018 #
face $-1 $246 $247 $13 $-1 $248 forward single #
loop $-1 $-1 $109 $100 #
coedge $-1 $249 $250 $105 $177 forward $101 $-1 #
coedge $-1 $188 $103 $104 $176 reversed $58 $-1 #
coedge $-1 $182 $251 $103 $174 reversed $252 $-1 #
edge $-1 $189 -1.5315951874257681 $253 1.5315951874257681 $173 $254 forward 7 unknown #
coedge $-1 $105 $104 $251 $255 forward $37 $-1 #
edge $-1 $180 -49.277626880703146 $253 49.277626880703146 $172 $256 forward 7 unknown #
edge $-1 $179 -49.277626880703146 $257 49.277626880703146 $171 $258 forward 7 unknown #
coedge $-1 $259 $106 $250 $260 forward $115 $-1 #
vertex $-1 $260 $261 #
vertex $-1 $191 $262 #
straight-curve $-1 49.277626880703146 -36.062575778477232 -2.4796477286692267 0 -1 0 I I #
coedge $-1 $263 $173 $108 $183 reversed $252 $-1 #
edge $-1 $186 -3.9354940338230051 $189 3.9354940338230051 $182 $264 forward 7 unknown #
coedge $-1 $265 $109 $114 $193 reversed $170 $-1 #
coedge $-1 $109 $265 $263 $266 forward $170 $-1 #
vertex $-1 $266 $267 #
straight-curve $-1 0 -32.127081744654227 0.58354264618230944 1 0 0 I I #
coedge $-1 $111 $172 $113 $191 reversed $58 $-1 #
vertex $-1 $183 $268 #
straight-curve $-1 0 -39.998069812300237 0.58354264618230944 1 0 0 I I #
edge $-1 $116 -1.5315951874257681 $180 1.5315951874257681 $113 $269 forward 7 unknown #
coedge $-1 $114 $270 $271 $272 reversed $115 $-1 #
edge $-1 $273 -7.021052267992018 $117 -0.58354264618230944 $114 $274 forward 7 unknown #
face $-1 $-1 $115 $13 $-1 $275 reversed single #
point $-1 49.277626880703146 -39.998069812300237 0.58354264618230944 #
point $-1 49.277626880703146 -32.127081744654227 0.58354264618230944 #
face $-1 $276 $277 $14 $-1 $278 reversed single #
loop $-1 $-1 $279 $119 #
plane-surface $-1 0 -36.062575778477232 0.58354264618230944 0 0 1 1 0 0 forward_v I I I I #
coedge $-1 $125 $280 $122 $203 forward $120 $-1 #
coedge $-1 $202 $122 $281 $282 reversed $66 $-1 #
coedge $-1 $122 $201 $123 $205 forward $66 $-1 #
edge $-1 $283 -14.116019411867892 $206 -8.3606405139193107 $200 $284 forward 7 unknown #
coedge $-1 $124 $123 $210 $285 reversed $41 $-1 #
edge $-1 $286 -64.254163489308453 $206 -57.228143137602764 $202 $287 forward 7 unknown #
vertex $-1 $126 $288 #
straight-curve $-1 12.829930884856719 26.371702846705634 7.0210522679920224 -1 0 0 I I #
vertex $-1 $285 $289 #
straight-curve $-1 17.044886777004066 -20.506847299107683 39.84576709088752 0 0.81915203911291934 -0.57357644374324357 I I #
coedge $-1 $281 $128 $204 $285 forward $212 $-1 #
coedge $-1 $128 $290 $130 $215 reversed $212 $-1 #
loop $-1 $-1 $281 $291 #
straight-curve $-1 17.044886777004066 32.127081744654227 60.28875208741735 0 0 -1 I I #
coedge $-1 $292 $130 $293 $294 forward $120 $-1 #
edge $-1 $132 -17.044886777004066 $295 49.277626880703146 $211 $296 forward 7 unknown #
point $-1 17.044886777004066 26.371702846705645 7.0210522679920189 #
point $-1 17.044886777004066 32.127081744654227 7.021052267992018 #
face $-1 $297 $298 $15 $-1 $299 forward single #
loop $-1 $-1 $300 $134 #
plane-surface $-1 34.274836762422808 36.022124665572669 120.5775041748347 -1 0 0 0 0.57357644374324357 0.81915203911291934 forward_v I I I I #
loop $-1 $-1 $301 $73 #
coedge $-1 $223 $137 $302 $303 forward $74 $-1 #
coedge $-1 $137 $222 $304 $305 reversed $74 $-1 #
coedge $-1 $306 $307 $137 $225 forward $298 $-1 #
edge $-1 $308 8.3606405139193107 $309 14.116019411867892 $224 $310 forward 7 unknown #
edge $-1 $311 1 $311 0 $138 $-1 forward 7 unknown #
vertex $-1 $139 $312 #
ellipse-curve $-1 25.659861769713437 28.4703807146409 3.893528569170932 0 0.57357644374324357 0.81915203911291934 1 0 0 1 I I #
point $-1 26.659861769713437 29.249392295679922 5.0060723844925139 #
plane-surface $-1 49.277626880703146 0 0 -1 0 0 0 0 1 forward_v I I I I #
coedge $-1 $147 $145 $149 $235 reversed $82 $-1 #
edge $-1 $160 -7.021052267992018 $237 7.021052267992018 $159 $313 forward 7 unknown #
vertex $-1 $235 $314 #
straight-curve $-1 -49.277626880703146 -32.127081744654227 0 0 0 -1 I I #
edge $-1 $233 -32.127081744654227 $237 32.127081744654227 $231 $315 forward 7 unknown #
straight-curve $-1 0 -32.127081744654227 -7.021052267992018 -1 0 0 I I #
vertex $-1 $152 $316 #
straight-curve $-1 0 32.127081744654227 -7.021052267992018 1 0 0 I I #
point $-1 49.277626880703146 32.127081744654227 -7.021052267992018 #
point $-1 49.277626880703146 -32.127081744654227 -7.021052267992018 #
straight-curve $-1 -49.277626880703146 0 7.021052267992018 0 -1 0 I I #
point $-1 -49.277626880703146 32.127081744654227 7.021052267992018 #
point $-1 -49.277626880703146 -32.127081744654227 7.021052267992018 #
straight-curve $-1 49.277626880703146 -32.127081744654227 0 0 0 -1 I I #
straight-curve $-1 49.277626880703146 32.127081744654227 0 0 0 -1 I I #
face $-1 $317 $318 $13 $-1 $319 reversed single #
loop $-1 $-1 $271 $169 #
plane-surface $-1 0 0 7.021052267992018 0 0 1 1 0 0 forward_v I I I I #
coedge $-1 $320 $171 $321 $322 forward $101 $-1 #
coedge $-1 $171 $320 $178 $260 reversed $101 $-1 #
coedge $-1 $173 $321 $175 $255 reversed $252 $-1 #
loop $-1 $-1 $323 $317 #
vertex $-1 $255 $324 #
straight-curve $-1 -49.277626880703146 -39.998069812300237 -0.94805254124345861 0 0 -1 I I #
edge $-1 $253 -3.9354940338230051 $257 3.9354940338230051 $251 $325 forward 7 unknown #
straight-curve $-1 0 -39.998069812300237 -2.4796477286692267 -1 0 0 I I #
vertex $-1 $322 $326 #
straight-curve $-1 0 -32.127081744654227 -2.4796477286692267 -1 0 0 I I #
coedge $-1 $270 $178 $327 $328 reversed $115 $-1 #
edge $-1 $179 2.4796477286692267 $329 7.021052267992018 $178 $274 forward 7 unknown #
point $-1 49.277626880703146 -32.127081744654227 -2.4796477286692267 #
point $-1 49.277626880703146 -39.998069812300237 -2.4796477286692267 #
coedge $-1 $330 $182 $185 $266 reversed $252 $-1 #
straight-curve $-1 -49.277626880703146 -36.062575778477232 0.58354264618230944 0 -1 0 I I #
coedge $-1 $185 $184 $331 $332 reversed $170 $-1 #
edge $-1 $333 -7.021052267992018 $186 -0.58354264618230944 $263 $334 forward 7 unknown #
point $-1 -49.277626880703146 -32.127081744654227 0.58354264618230944 #
point $-1 -49.277626880703146 -39.998069812300237 0.58354264618230944 #
straight-curve $-1 49.277626880703146 -39.998069812300237 -0.94805254124345861 0 0 -1 I I #
coedge $-1 $192 $259 $335 $336 reversed $115 $-1 #
coedge $-1 $337 $331 $192 $272 forward $247 $-1 #
edge $-1 $273 -32.127081744654227 $338 32.127081744654227 $192 $339 forward 7 unknown #
vertex $-1 $272 $340 #
straight-curve $-1 49.277626880703146 -32.127081744654227 0 0 0 -1 I I #
plane-surface $-1 49.277626880703146 0 0 -1 0 0 0 0 1 forward_v I I I I #
face $-1 $341 $342 $14 $-1 $343 reversed single #
loop $-1 $-1 $344 $197 #
plane-surface $-1 0 -36.062575778477232 -2.4796477286692267 0 0 1 1 0 0 forward_v I I I I #
coedge $-1 $345 $346 $347 $348 forward $198 $-1 #
coedge $-1 $200 $349 $350 $351 forward $120 $-1 #
coedge $-1 $350 $210 $201 $282 forward $212 $-1 #
edge $-1 $286 -57.297659586424338 $283 -53.267699819425331 $281 $352 forward 7 unknown #
vertex $-1 $282 $353 #
straight-curve $-1 34.274836762422808 18.011062332786334 7.0210522679920189 0 -1 0 I I #
edge $-1 $208 4.2149558921473478 $286 21.444905877566089 $210 $354 forward 7 unknown #
vertex $-1 $285 $355 #
straight-curve $-1 34.274836762422808 -20.506847299107683 39.84576709088752 0 -0.81915203911291934 0.57357644374324357 I I #
point $-1 34.274836762422808 26.371702846705645 7.0210522679920189 #
point $-1 17.044886777004066 32.127081744654227 2.9910925009930125 #
coedge $-1 $211 $356 $357 $358 reversed $212 $-1 #
face $-1 $359 $212 $14 $-1 $360 reversed single #
coedge $-1 $349 $214 $361 $362 forward $120 $-1 #
coedge $-1 $357 $363 $214 $294 reversed $364 $-1 #
edge $-1 $295 -32.127081744654227 $365 32.127081744654227 $293 $366 forward 7 unknown #
vertex $-1 $215 $367 #
straight-curve $-1 0 32.127081744654227 7.021052267992018 -1 0 0 I I #
face $-1 $368 $369 $15 $-1 $370 forward single #
loop $-1 $-1 $371 $218 #
plane-surface $-1 0 0 7.021052267992018 0 0 1 1 0 0 forward_v I I I I #
coedge $-1 $372 $373 $371 $374 reversed $219 $-1 #
coedge $-1 $375 $302 $307 $376 reversed $221 $-1 #
coedge $-1 $301 $377 $222 $303 reversed $221 $-1 #
edge $-1 $308 57.228143137602764 $378 64.254163489308453 $222 $379 forward 7 unknown #
coedge $-1 $380 $381 $223 $305 forward $382 $-1 #
edge $-1 $309 53.267699819425331 $378 57.297659586424338 $304 $383 forward 7 unknown #
coedge $-1 $384 $224 $381 $385 forward $298 $-1 #
coedge $-1 $224 $371 $301 $376 forward $298 $-1 #
vertex $-1 $376 $386 #
vertex $-1 $385 $387 #
straight-curve $-1 17.044886777004066 18.011062332786334 7.0210522679920189 0 1 0 I I #
vertex $-1 $226 $388 #
point $-1 26.659861769713437 28.4703807146409 3.893528569170932 #
straight-curve $-1 -49.277626880703146 32.127081744654227 0 0 0 -1 I I #
point $-1 -49.277626880703146 -32.127081744654227 -7.021052267992018 #
straight-curve $-1 -49.277626880703146 0 -7.021052267992018 0 1 0 I I #
point $-1 -49.277626880703146 32.127081744654227 -7.021052267992018 #
face $-1 $389 $252 $13 $-1 $390 reversed single #
loop $-1 $-1 $327 $246 #
plane-surface $-1 0 0 -7.021052267992018 0 0 1 1 0 0 forward_v I I I I #
coedge $-1 $250 $249 $391 $392 reversed $101 $-1 #
coedge $-1 $251 $393 $249 $322 reversed $252 $-1 #
edge $-1 $257 2.4796477286692267 $394 7.021052267992018 $321 $334 forward 7 unknown #
coedge $-1 $393 $330 $395 $396 forward $252 $-1 #
point $-1 -49.277626880703146 -39.998069812300237 -2.4796477286692267 #
straight-curve $-1 -49.277626880703146 -36.062575778477232 -2.4796477286692267 0 1 0 I I #
point $-1 -49.277626880703146 -32.127081744654227 -2.4796477286692267 #
coedge $-1 $391 $397 $259 $328 forward $318 $-1 #
edge $-1 $398 -32.127081744654227 $329 32.127081744654227 $259 $399 forward 7 unknown #
vertex $-1 $260 $400 #
coedge $-1 $323 $263 $401 $402 reversed $252 $-1 #
coedge $-1 $271 $401 $265 $332 forward $247 $-1 #
edge $-1 $333 -49.277626880703146 $273 49.277626880703146 $265 $403 forward 7 unknown #
vertex $-1 $402 $404 #
straight-curve $-1 -49.277626880703146 -32.127081744654227 0 0 0 -1 I I #
coedge $-1 $405 $406 $270 $336 forward $407 $-1 #
edge $-1 $338 -7.021052267992018 $398 7.021052267992018 $270 $408 forward 7 unknown #
coedge $-1 $401 $271 $406 $409 forward $247 $-1 #
vertex $-1 $272 $410 #
straight-curve $-1 49.277626880703146 0 7.021052267992018 0 1 0 I I #
point $-1 49.277626880703146 -32.127081744654227 7.021052267992018 #
face $-1 $411 $412 $14 $-1 $413 reversed single #
loop $-1 $-1 $414 $276 #
plane-surface $-1 0 -39.998069812300237 -0.94805254124345861 0 1 0 0 0 1 forward_v I I I I #
coedge $-1 $415 $416 $417 $418 forward $277 $-1 #
coedge $-1 $419 $279 $420 $421 reversed $198 $-1 #
coedge $-1 $279 $419 $422 $423 forward $198 $-1 #
coedge $-1 $424 $425 $279 $348 reversed $426 $-1 #
edge $-1 $427 -3.9354940338230051 $428 3.9354940338230051 $347 $429 forward 7 unknown #
coedge $-1 $280 $292 $430 $431 forward $120 $-1 #
coedge $-1 $432 $281 $280 $351 reversed $212 $-1 #
edge $-1 $433 -49.277626880703146 $283 -34.274836762422808 $350 $296 forward 7 unknown #
straight-curve $-1 34.274836762422808 32.127081744654227 60.28875208741735 0 0 1 I I #
point $-1 34.274836762422808 32.127081744654227 7.021052267992018 #
straight-curve $-1 12.829930884856719 32.127081744654234 2.9910925009930125 1 0 0 I I #
point $-1 34.274836762422808 32.127081744654227 2.9910925009930125 #
coedge $-1 $290 $432 $434 $435 reversed $212 $-1 #
coedge $-1 $436 $293 $290 $358 forward $364 $-1 #
edge $-1 $295 -7.021052267992018 $437 7.021052267992018 $290 $438 forward 7 unknown #
face $-1 $-1 $426 $14 $-1 $439 reversed single #
plane-surface $-1 0 32.127081744654227 0 0 -1 0 0 0 -1 forward_v I I I I #
coedge $-1 $440 $441 $292 $362 reversed $442 $-1 #
edge $-1 $365 -49.277626880703146 $443 49.277626880703146 $361 $444 forward 7 unknown #
coedge $-1 $293 $445 $440 $446 reversed $364 $-1 #
loop $-1 $-1 $357 $447 #
vertex $-1 $294 $448 #
straight-curve $-1 -49.277626880703146 0 7.021052267992018 0 -1 0 I I #
point $-1 -49.277626880703146 32.127081744654227 7.021052267992018 #
face $-1 $449 $450 $15 $-1 $451 reversed single #
loop $-1 $-1 $452 $297 #
plane-surface $-1 0 -36.062575778477232 0.58354264618230944 0 0 1 1 0 0 forward_v I I I I #
coedge $-1 $307 $453 $300 $374 forward $298 $-1 #
coedge $-1 $373 $300 $454 $455 reversed $219 $-1 #
coedge $-1 $300 $372 $375 $456 forward $219 $-1 #
edge $-1 $457 -14.116019411867892 $458 -8.3606405139193107 $371 $459 forward 7 unknown #
coedge $-1 $377 $301 $373 $456 reversed $221 $-1 #
edge $-1 $458 -21.444905877566089 $308 -4.2149558921473478 $307 $460 forward 7 unknown #
coedge $-1 $302 $375 $380 $461 reversed $221 $-1 #
vertex $-1 $461 $462 #
straight-curve $-1 17.044886777004066 -20.506847299107683 39.84576709088752 0 0.81915203911291934 -0.57357644374324357 I I #
coedge $-1 $454 $304 $377 $461 forward $382 $-1 #
coedge $-1 $304 $463 $306 $385 reversed $382 $-1 #
loop $-1 $-1 $454 $464 #
straight-curve $-1 17.044886777004066 32.127081744654227 60.28875208741735 0 0 -1 I I #
coedge $-1 $465 $306 $466 $467 forward $298 $-1 #
edge $-1 $309 -17.044886777004066 $468 49.277626880703146 $381 $469 forward 7 unknown #
point $-1 17.044886777004066 26.371702846705645 7.0210522679920189 #
point $-1 17.044886777004066 32.127081744654227 7.021052267992018 #
point $-1 25.659861769713437 27.896804270897658 3.074376530058013 #
face $-1 $194 $407 $13 $-1 $470 reversed single #
plane-surface $-1 -49.277626880703146 0 0 1 0 0 0 0 -1 forward_v I I I I #
coedge $-1 $471 $327 $320 $392 forward $318 $-1 #
edge $-1 $329 -49.277626880703146 $394 49.277626880703146 $320 $472 forward 7 unknown #
coedge $-1 $321 $323 $471 $473 reversed $252 $-1 #
vertex $-1 $473 $474 #
coedge $-1 $406 $405 $323 $396 reversed $407 $-1 #
edge $-1 $475 -7.021052267992018 $476 7.021052267992018 $395 $477 forward 7 unknown #
coedge $-1 $327 $471 $405 $478 forward $318 $-1 #
vertex $-1 $328 $479 #
straight-curve $-1 49.277626880703146 0 -7.021052267992018 0 -1 0 I I #
point $-1 49.277626880703146 -32.127081744654227 -7.021052267992018 #
coedge $-1 $331 $337 $330 $402 forward $247 $-1 #
edge $-1 $475 -32.127081744654227 $333 32.127081744654227 $330 $480 forward 7 unknown #
straight-curve $-1 0 -32.127081744654227 7.021052267992018 1 0 0 I I #
point $-1 -49.277626880703146 -32.127081744654227 7.021052267992018 #
coedge $-1 $395 $335 $397 $478 reversed $407 $-1 #
coedge $-1 $335 $395 $337 $409 reversed $407 $-1 #
loop $-1 $-1 $335 $389 #
straight-curve $-1 49.277626880703146 32.127081744654227 0 0 0 -1 I I #
edge $-1 $338 -49.277626880703146 $475 49.277626880703146 $406 $481 forward 7 unknown #
point $-1 49.277626880703146 32.127081744654227 7.021052267992018 #
face $-1 $482 $442 $14 $-1 $413 reversed single #
loop $-1 $-1 $483 $341 #
plane-surface $-1 0 -32.127081744654227 0 0 1 0 0 0 1 forward_v I I I I #
coedge $-1 $484 $422 $485 $486 forward $342 $-1 #
coedge $-1 $487 $344 $484 $488 forward $277 $-1 #
coedge $-1 $344 $487 $483 $489 reversed $277 $-1 #
coedge $-1 $490 $424 $344 $418 reversed $426 $-1 #
edge $-1 $491 -3.9354940338230051 $492 3.9354940338230051 $417 $493 forward 7 unknown #
coedge $-1 $346 $345 $445 $494 forward $198 $-1 #
coedge $-1 $441 $440 $345 $421 forward $442 $-1 #
edge $-1 $495 -49.277626880703146 $428 49.277626880703146 $420 $496 forward 7 unknown #
coedge $-1 $414 $497 $346 $423 reversed $342 $-1 #
edge $-1 $498 -49.277626880703146 $427 49.277626880703146 $422 $499 forward 7 unknown #
coedge $-1 $417 $347 $497 $500 forward $426 $-1 #
coedge $-1 $347 $430 $441 $501 forward $426 $-1 #
loop $-1 $-1 $425 $359 #
vertex $-1 $348 $502 #
vertex $-1 $348 $503 #
straight-curve $-1 49.277626880703146 -36.062575778477232 0.58354264618230944 0 1 0 I I #
coedge $-1 $425 $504 $349 $431 reversed $426 $-1 #
edge $-1 $443 -32.127081744654227 $433 32.127081744654227 $430 $505 forward 7 unknown #
coedge $-1 $356 $350 $504 $506 forward $212 $-1 #
vertex $-1 $431 $507 #
coedge $-1 $508 $509 $356 $435 forward $510 $-1 #
edge $-1 $437 -49.277626880703146 $511 49.277626880703146 $356 $512 forward 7 unknown #
coedge $-1 $513 $357 $509 $514 reversed $364 $-1 #
vertex $-1 $435 $515 #
straight-curve $-1 -49.277626880703146 32.127081744654227 0 0 0 -1 I I #
plane-surface $-1 49.277626880703146 0 0 -1 0 0 0 0 1 forward_v I I I I #
coedge $-1 $420 $361 $363 $446 forward $442 $-1 #
coedge $-1 $361 $420 $425 $501 reversed $442 $-1 #
loop $-1 $-1 $420 $411 #
vertex $-1 $431 $516 #
straight-curve $-1 0 -32.127081744654227 7.021052267992018 1 0 0 I I #
coedge $-1 $363 $485 $419 $494 reversed $364 $-1 #
edge $-1 $365 -7.021052267992018 $495 -0.58354264618230944 $363 $517 forward 7 unknown #
face $-1 $291 $364 $14 $-1 $518 reversed single #
point $-1 -49.277626880703146 -32.127081744654227 7.021052267992018 #
face $-1 $519 $520 $15 $-1 $521 reversed single #
loop $-1 $-1 $522 $368 #
plane-surface $-1 0 -36.062575778477232 -2.4796477286692267 0 0 1 1 0 0 forward_v I I I I #
coedge $-1 $523 $524 $525 $526 forward $369 $-1 #
coedge $-1 $371 $527 $528 $529 forward $298 $-1 #
coedge $-1 $528 $380 $372 $455 forward $382 $-1 #
edge $-1 $530 -57.297659586424338 $457 -53.267699819425331 $454 $531 forward 7 unknown #
edge $-1 $530 -64.254163489308453 $458 -57.228143137602764 $373 $532 forward 7 unknown #
vertex $-1 $455 $533 #
vertex $-1 $376 $534 #
straight-curve $-1 34.274836762422808 18.011062332786334 7.0210522679920189 0 -1 0 I I #
straight-curve $-1 12.829930884856719 26.371702846705634 7.0210522679920224 -1 0 0 I I #
edge $-1 $378 4.2149558921473478 $530 21.444905877566089 $380 $535 forward 7 unknown #
point $-1 17.044886777004066 32.127081744654227 2.9910925009930125 #
coedge $-1 $381 $536 $537 $538 reversed $382 $-1 #
face $-1 $539 $382 $15 $-1 $540 reversed single #
coedge $-1 $527 $384 $541 $542 forward $298 $-1 #
coedge $-1 $537 $543 $384 $467 reversed $544 $-1 #
edge $-1 $468 -32.127081744654227 $545 32.127081744654227 $466 $546 forward 7 unknown #
vertex $-1 $385 $547 #
straight-curve $-1 0 32.127081744654227 7.021052267992018 -1 0 0 I I #
plane-surface $-1 0 32.127081744654227 0 0 -1 0 0 0 -1 forward_v I I I I #
coedge $-1 $397 $391 $393 $473 forward $318 $-1 #
straight-curve $-1 0 -32.127081744654227 -7.021052267992018 -1 0 0 I I #
edge $-1 $394 -32.127081744654227 $476 32.127081744654227 $393 $548 forward 7 unknown #
point $-1 -49.277626880703146 -32.127081744654227 -7.021052267992018 #
vertex $-1 $409 $549 #
vertex $-1 $478 $550 #
straight-curve $-1 -49.277626880703146 32.127081744654227 0 0 0 -1 I I #
edge $-1 $476 -49.277626880703146 $398 49.277626880703146 $405 $551 forward 7 unknown #
point $-1 49.277626880703146 32.127081744654227 -7.021052267992018 #
straight-curve $-1 -49.277626880703146 0 7.021052267992018 0 -1 0 I I #
straight-curve $-1 0 32.127081744654227 7.021052267992018 -1 0 0 I I #
face $-1 $447 $510 $14 $-1 $552 reversed single #
coedge $-1 $553 $554 $416 $489 forward $412 $-1 #
coedge $-1 $497 $414 $415 $488 reversed $342 $-1 #
coedge $-1 $445 $555 $414 $486 reversed $364 $-1 #
edge $-1 $498 -1.5315951874257681 $556 1.5315951874257681 $485 $557 forward 7 unknown #
coedge $-1 $416 $415 $555 $558 forward $277 $-1 #
edge $-1 $492 -49.277626880703146 $556 49.277626880703146 $484 $559 forward 7 unknown #
edge $-1 $491 -49.277626880703146 $560 49.277626880703146 $483 $561 forward 7 unknown #
coedge $-1 $562 $417 $554 $563 forward $426 $-1 #
vertex $-1 $563 $564 #
vertex $-1 $500 $565 #
straight-curve $-1 49.277626880703146 -36.062575778477232 -2.4796477286692267 0 -1 0 I I #
edge $-1 $495 -3.9354940338230051 $498 3.9354940338230051 $445 $566 forward 7 unknown #
vertex $-1 $446 $567 #
straight-curve $-1 0 -32.127081744654227 0.58354264618230944 1 0 0 I I #
coedge $-1 $422 $484 $424 $500 reversed $342 $-1 #
vertex $-1 $494 $568 #
straight-curve $-1 0 -39.998069812300237 0.58354264618230944 1 0 0 I I #
edge $-1 $427 -1.5315951874257681 $492 1.5315951874257681 $424 $569 forward 7 unknown #
edge $-1 $443 -7.021052267992018 $428 -0.58354264618230944 $425 $570 forward 7 unknown #
point $-1 49.277626880703146 -39.998069812300237 0.58354264618230944 #
point $-1 49.277626880703146 -32.127081744654227 0.58354264618230944 #
coedge $-1 $430 $562 $432 $506 reversed $426 $-1 #
straight-curve $-1 49.277626880703146 0 7.021052267992018 0 1 0 I I #
edge $-1 $433 -7.021052267992018 $511 7.021052267992018 $504 $571 forward 7 unknown #
point $-1 49.277626880703146 32.127081744654227 7.021052267992018 #
coedge $-1 $572 $434 $562 $573 forward $510 $-1 #
coedge $-1 $434 $572 $436 $514 forward $510 $-1 #
loop $-1 $-1 $508 $482 #
vertex $-1 $573 $574 #
straight-curve $-1 0 32.127081744654227 -7.021052267992018 1 0 0 I I #
coedge $-1 $555 $436 $553 $575 reversed $364 $-1 #
edge $-1 $576 -32.127081744654227 $437 32.127081744654227 $436 $577 forward 7 unknown #
point $-1 -49.277626880703146 32.127081744654227 -7.021052267992018 #
point $-1 49.277626880703146 -32.127081744654227 7.021052267992018 #
straight-curve $-1 -49.277626880703146 -32.127081744654227 0 0 0 -1 I I #
plane-surface $-1 -49.277626880703146 0 0 1 0 0 0 0 -1 forward_v I I I I #
face $-1 $578 $579 $15 $-1 $580 reversed single #
loop $-1 $-1 $581 $449 #
plane-surface $-1 0 -39.998069812300237 -0.94805254124345861 0 1 0 0 0 1 forward_v I I I I #
coedge $-1 $582 $583 $584 $585 forward $450 $-1 #
coedge $-1 $586 $452 $587 $588 reversed $369 $-1 #
coedge $-1 $452 $586 $589 $590 forward $369 $-1 #
coedge $-1 $591 $592 $452 $526 reversed $593 $-1 #
edge $-1 $594 -3.9354940338230051 $595 3.9354940338230051 $525 $596 forward 7 unknown #
coedge $-1 $453 $465 $597 $598 forward $298 $-1 #
coedge $-1 $599 $454 $453 $529 reversed $382 $-1 #
edge $-1 $600 -49.277626880703146 $457 -34.274836762422808 $528 $469 forward 7 unknown #
vertex $-1 $461 $601 #
straight-curve $-1 34.274836762422808 32.127081744654227 60.28875208741735 0 0 1 I I #
straight-curve $-1 34.274836762422808 -20.506847299107683 39.84576709088752 0 -0.81915203911291934 0.57357644374324357 I I #
point $-1 34.274836762422808 32.127081744654227 7.021052267992018 #
point $-1 34.274836762422808 26.371702846705645 7.0210522679920189 #
straight-curve $-1 12.829930884856719 32.127081744654234 2.9910925009930125 1 0 0 I I #
coedge $-1 $463 $599 $602 $603 reversed $382 $-1 #
coedge $-1 $604 $466 $463 $538 forward $544 $-1 #
edge $-1 $468 -7.021052267992018 $605 7.021052267992018 $463 $606 forward 7 unknown #
face $-1 $-1 $593 $15 $-1 $607 reversed single #
plane-surface $-1 0 32.127081744654227 0 0 -1 0 0 0 -1 forward_v I I I I #
coedge $-1 $608 $609 $465 $542 reversed $610 $-1 #
edge $-1 $545 -49.277626880703146 $611 49.277626880703146 $541 $612 forward 7 unknown #
coedge $-1 $466 $613 $608 $614 reversed $544 $-1 #
loop $-1 $-1 $537 $615 #
vertex $-1 $467 $616 #
straight-curve $-1 -49.277626880703146 0 7.021052267992018 0 -1 0 I I #
point $-1 -49.277626880703146 32.127081744654227 7.021052267992018 #
straight-curve $-1 -49.277626880703146 0 -7.021052267992018 0 1 0 I I #
point $-1 -49.277626880703146 32.127081744654227 7.021052267992018 #
point $-1 -49.277626880703146 32.127081744654227 -7.021052267992018 #
straight-curve $-1 0 32.127081744654227 -7.021052267992018 1 0 0 I I #
plane-surface $-1 0 0 -7.021052267992018 0 0 1 1 0 0 forward_v I I I I #
coedge $-1 $617 $483 $513 $575 forward $412 $-1 #
coedge $-1 $483 $617 $490 $563 reversed $412 $-1 #
coedge $-1 $485 $513 $487 $558 reversed $364 $-1 #
vertex $-1 $558 $618 #
straight-curve $-1 -49.277626880703146 -39.998069812300237 -0.94805254124345861 0 0 -1 I I #
edge $-1 $556 -3.9354940338230051 $560 3.9354940338230051 $555 $619 forward 7 unknown #
straight-curve $-1 0 -39.998069812300237 -2.4796477286692267 -1 0 0 I I #
vertex $-1 $575 $620 #
straight-curve $-1 0 -32.127081744654227 -2.4796477286692267 -1 0 0 I I #
coedge $-1 $504 $490 $508 $573 reversed $426 $-1 #
edge $-1 $491 2.4796477286692267 $621 7.021052267992018 $490 $570 forward 7 unknown #
point $-1 49.277626880703146 -32.127081744654227 -2.4796477286692267 #
point $-1 49.277626880703146 -39.998069812300237 -2.4796477286692267 #
straight-curve $-1 -49.277626880703146 -36.062575778477232 0.58354264618230944 0 -1 0 I I #
point $-1 -49.277626880703146 -32.127081744654227 0.58354264618230944 #
point $-1 -49.277626880703146 -39.998069812300237 0.58354264618230944 #
straight-curve $-1 49.277626880703146 -39.998069812300237 -0.94805254124345861 0 0 -1 I I #
straight-curve $-1 49.277626880703146 -32.127081744654227 0 0 0 -1 I I #
straight-curve $-1 49.277626880703146 32.127081744654227 0 0 0 -1 I I #
coedge $-1 $509 $508 $617 $622 forward $510 $-1 #
edge $-1 $511 -32.127081744654227 $621 32.127081744654227 $562 $623 forward 7 unknown #
point $-1 49.277626880703146 32.127081744654227 -7.021052267992018 #
edge $-1 $560 2.4796477286692267 $576 7.021052267992018 $513 $517 forward 7 unknown #
vertex $-1 $514 $624 #
straight-curve $-1 -49.277626880703146 0 -7.021052267992018 0 1 0 I I #
face $-1 $625 $610 $15 $-1 $580 reversed single #
loop $-1 $-1 $626 $519 #
plane-surface $-1 0 -32.127081744654227 0 0 1 0 0 0 1 forward_v I I I I #
coedge $-1 $627 $589 $628 $629 forward $520 $-1 #
coedge $-1 $630 $522 $627 $631 forward $450 $-1 #
coedge $-1 $522 $630 $626 $632 reversed $450 $-1 #
coedge $-1 $633 $591 $522 $585 reversed $593 $-1 #
edge $-1 $634 -3.9354940338230051 $635 3.9354940338230051 $584 $636 forward 7 unknown #
coedge $-1 $524 $523 $613 $637 forward $369 $-1 #
coedge $-1 $609 $608 $523 $588 forward $610 $-1 #
edge $-1 $638 -49.277626880703146 $595 49.277626880703146 $587 $639 forward 7 unknown #
coedge $-1 $581 $640 $524 $590 reversed $520 $-1 #
edge $-1 $641 -49.277626880703146 $594 49.277626880703146 $589 $642 forward 7 unknown #
coedge $-1 $584 $525 $640 $643 forward $593 $-1 #
coedge $-1 $525 $597 $609 $644 forward $593 $-1 #
loop $-1 $-1 $592 $539 #
vertex $-1 $526 $645 #
vertex $-1 $526 $646 #
straight-curve $-1 49.277626880703146 -36.062575778477232 0.58354264618230944 0 1 0 I I #
coedge $-1 $592 $647 $527 $598 reversed $593 $-1 #
edge $-1 $611 -32.127081744654227 $600 32.127081744654227 $597 $648 forward 7 unknown #
coedge $-1 $536 $528 $647 $649 forward $382 $-1 #
vertex $-1 $598 $650 #
point $-1 34.274836762422808 32.127081744654227 2.9910925009930125 #
coedge $-1 $651 $652 $536 $603 forward $653 $-1 #
edge $-1 $605 -49.277626880703146 $654 49.277626880703146 $536 $655 forward 7 unknown #
coedge $-1 $656 $537 $652 $657 reversed $544 $-1 #
vertex $-1 $603 $658 #
straight-curve $-1 -49.277626880703146 32.127081744654227 0 0 0 -1 I I #
plane-surface $-1 49.277626880703146 0 0 -1 0 0 0 0 1 forward_v I I I I #
coedge $-1 $587 $541 $543 $614 forward $610 $-1 #
coedge $-1 $541 $587 $592 $644 reversed $610 $-1 #
loop $-1 $-1 $587 $578 #
vertex $-1 $598 $659 #
straight-curve $-1 0 -32.127081744654227 7.021052267992018 1 0 0 I I #
coedge $-1 $543 $628 $586 $637 reversed $544 $-1 #
edge $-1 $545 -7.021052267992018 $638 -0.58354264618230944 $543 $660 forward 7 unknown #
face $-1 $464 $544 $15 $-1 $661 reversed single #
point $-1 -49.277626880703146 -32.127081744654227 7.021052267992018 #
coedge $-1 $554 $553 $572 $622 reversed $412 $-1 #
point $-1 -49.277626880703146 -39.998069812300237 -2.4796477286692267 #
straight-curve $-1 -49.277626880703146 -36.062575778477232 -2.4796477286692267 0 1 0 I I #
point $-1 -49.277626880703146 -32.127081744654227 -2.4796477286692267 #
vertex $-1 $563 $662 #
edge $-1 $621 -49.277626880703146 $576 49.277626880703146 $617 $663 forward 7 unknown #
straight-curve $-1 49.277626880703146 0 -7.021052267992018 0 -1 0 I I #
point $-1 -49.277626880703146 -32.127081744654227 -7.021052267992018 #
face $-1 $615 $653 $15 $-1 $664 reversed single #
coedge $-1 $665 $666 $583 $632 forward $579 $-1 #
coedge $-1 $640 $581 $582 $631 reversed $520 $-1 #
coedge $-1 $613 $667 $581 $629 reversed $544 $-1 #
edge $-1 $641 -1.5315951874257681 $668 1.5315951874257681 $628 $669 forward 7 unknown #
coedge $-1 $583 $582 $667 $670 forward $450 $-1 #
edge $-1 $635 -49.277626880703146 $668 49.277626880703146 $627 $671 forward 7 unknown #
edge $-1 $634 -49.277626880703146 $672 49.277626880703146 $626 $673 forward 7 unknown #
coedge $-1 $674 $584 $666 $675 forward $593 $-1 #
vertex $-1 $675 $676 #
vertex $-1 $643 $677 #
straight-curve $-1 49.277626880703146 -36.062575778477232 -2.4796477286692267 0 -1 0 I I #
edge $-1 $638 -3.9354940338230051 $641 3.9354940338230051 $613 $678 forward 7 unknown #
vertex $-1 $614 $679 #
straight-curve $-1 0 -32.127081744654227 0.58354264618230944 1 0 0 I I #
coedge $-1 $589 $627 $591 $643 reversed $520 $-1 #
vertex $-1 $637 $680 #
straight-curve $-1 0 -39.998069812300237 0.58354264618230944 1 0 0 I I #
edge $-1 $594 -1.5315951874257681 $635 1.5315951874257681 $591 $681 forward 7 unknown #
edge $-1 $611 -7.021052267992018 $595 -0.58354264618230944 $592 $682 forward 7 unknown #
point $-1 49.277626880703146 -39.998069812300237 0.58354264618230944 #
point $-1 49.277626880703146 -32.127081744654227 0.58354264618230944 #
coedge $-1 $597 $674 $599 $649 reversed $593 $-1 #
straight-curve $-1 49.277626880703146 0 7.021052267992018 0 1 0 I I #
edge $-1 $600 -7.021052267992018 $654 7.021052267992018 $647 $683 forward 7 unknown #
point $-1 49.277626880703146 32.127081744654227 7.021052267992018 #
coedge $-1 $684 $602 $674 $685 forward $653 $-1 #
coedge $-1 $602 $684 $604 $657 forward $653 $-1 #
loop $-1 $-1 $651 $625 #
vertex $-1 $685 $686 #
straight-curve $-1 0 32.127081744654227 -7.021052267992018 1 0 0 I I #
coedge $-1 $667 $604 $665 $687 reversed $544 $-1 #
edge $-1 $688 -32.127081744654227 $605 32.127081744654227 $604 $689 forward 7 unknown #
point $-1 -49.277626880703146 32.127081744654227 -7.021052267992018 #
point $-1 49.277626880703146 -32.127081744654227 7.021052267992018 #
straight-curve $-1 -49.277626880703146 -32.127081744654227 0 0 0 -1 I I #
plane-surface $-1 -49.277626880703146 0 0 1 0 0 0 0 -1 forward_v I I I I #
point $-1 49.277626880703146 -32.127081744654227 -7.021052267992018 #
straight-curve $-1 0 -32.127081744654227 -7.021052267992018 -1 0 0 I I #
plane-surface $-1 0 0 -7.021052267992018 0 0 1 1 0 0 forward_v I I I I #
coedge $-1 $690 $626 $656 $687 forward $579 $-1 #
coedge $-1 $626 $690 $633 $675 reversed $579 $-1 #
coedge $-1 $628 $656 $630 $670 reversed $544 $-1 #
vertex $-1 $670 $691 #
straight-curve $-1 -49.277626880703146 -39.998069812300237 -0.94805254124345861 0 0 -1 I I #
edge $-1 $668 -3.9354940338230051 $672 3.9354940338230051 $667 $692 forward 7 unknown #
straight-curve $-1 0 -39.998069812300237 -2.4796477286692267 -1 0 0 I I #
vertex $-1 $687 $693 #
straight-curve $-1 0 -32.127081744654227 -2.4796477286692267 -1 0 0 I I #
coedge $-1 $647 $633 $651 $685 reversed $593 $-1 #
edge $-1 $634 2.4796477286692267 $694 7.021052267992018 $633 $682 forward 7 unknown #
point $-1 49.277626880703146 -32.127081744654227 -2.4796477286692267 #
point $-1 49.277626880703146 -39.998069812300237 -2.4796477286692267 #
straight-curve $-1 -49.277626880703146 -36.062575778477232 0.58354264618230944 0 -1 0 I I #
point $-1 -49.277626880703146 -32.127081744654227 0.58354264618230944 #
point $-1 -49.277626880703146 -39.998069812300237 0.58354264618230944 #
straight-curve $-1 49.277626880703146 -39.998069812300237 -0.94805254124345861 0 0 -1 I I #
straight-curve $-1 49.277626880703146 -32.127081744654227 0 0 0 -1 I I #
straight-curve $-1 49.277626880703146 32.127081744654227 0 0 0 -1 I I #
coedge $-1 $652 $651 $690 $695 forward $653 $-1 #
edge $-1 $654 -32.127081744654227 $694 32.127081744654227 $674 $696 forward 7 unknown #
point $-1 49.277626880703146 32.127081744654227 -7.021052267992018 #
edge $-1 $672 2.4796477286692267 $688 7.021052267992018 $656 $660 forward 7 unknown #
vertex $-1 $657 $697 #
straight-curve $-1 -49.277626880703146 0 -7.021052267992018 0 1 0 I I #
coedge $-1 $666 $665 $684 $695 reversed $579 $-1 #
point $-1 -49.277626880703146 -39.998069812300237 -2.4796477286692267 #
straight-curve $-1 -49.277626880703146 -36.062575778477232 -2.4796477286692267 0 1 0 I I #
point $-1 -49.277626880703146 -32.127081744654227 -2.4796477286692267 #
vertex $-1 $675 $698 #
edge $-1 $694 -49.277626880703146 $688 49.277626880703146 $690 $699 forward 7 unknown #
straight-curve $-1 49.277626880703146 0 -7.021052267992018 0 -1 0 I I #
point $-1 -49.277626880703146 -32.127081744654227 -7.021052267992018 #
point $-1 49.277626880703146 -32.127081744654227 -7.021052267992018 #
straight-curve $-1 0 -32.127081744654227 -7.021052267992018 -1 0 0 I I #
End-of-ACIS-data 