500 0 7 0           
7 Unknown 11 ACIS 5.0 NT 24 Thu Mar 25 22:59:59 1999 
-1 9.9999999999999995e-007 1e-010 
body $-1 $7 $-1 $8 #
body $-1 $9 $-1 $10 #
body $-1 $11 $-1 $12 #
body $-1 $13 $-1 $14 #
body $-1 $15 $-1 $16 #
body $-1 $17 $-1 $18 #
body $-1 $19 $-1 $20 #
lump $-1 $-1 $21 $0 #
transform $-1 1 0 0 0 1 0 0 0 1 49.065218054750204 21.382534280777062 7.693849167675336 1 rotate no_reflect no_shear #
lump $-1 $-1 $22 $1 #
transform $-1 1 0 0 0 1 0 0 0 1 49.065218054750204 21.382534280777062 7.693849167675336 1 rotate no_reflect no_shear #
lump $-1 $-1 $23 $2 #
transform $-1 1 0 0 0 1 0 0 0 1 49.065218054750204 21.382534280777062 7.693849167675336 1 rotate no_reflect no_shear #
lump $-1 $-1 $24 $3 #
transform $-1 1 0 0 0 1 0 0 0 1 49.065218054750204 21.382534280777062 7.693849167675336 1 rotate no_reflect no_shear #
lump $-1 $-1 $25 $4 #
transform $-1 1 0 0 0 1 0 0 0 1 49.065218054750204 21.382534280777062 7.693849167675336 1 rotate no_reflect no_shear #
lump $-1 $-1 $26 $5 #
transform $-1 1 0 0 0 1 0 0 0 1 49.065218054750204 21.382534280777062 7.693849167675336 1 rotate no_reflect no_shear #
lump $-1 $-1 $27 $6 #
transform $-1 1 0 0 0 1 0 0 0 1 49.065218054750204 21.382534280777062 7.693849167675336 1 rotate no_reflect no_shear #
shell $-1 $-1 $-1 $28 $-1 $7 #
shell $-1 $-1 $-1 $29 $-1 $9 #
shell $-1 $-1 $-1 $30 $-1 $11 #
shell $-1 $-1 $-1 $31 $-1 $13 #
shell $-1 $-1 $-1 $32 $-1 $15 #
shell $-1 $-1 $-1 $33 $-1 $17 #
shell $-1 $-1 $-1 $34 $-1 $19 #
face $-1 $35 $36 $21 $-1 $37 forward single #
face $-1 $38 $39 $22 $-1 $40 forward single #
face $-1 $41 $42 $23 $-1 $43 reversed single #
face $-1 $44 $45 $24 $-1 $46 forward single #
face $-1 $47 $48 $25 $-1 $49 forward single #
face $-1 $50 $51 $26 $-1 $52 reversed single #
face $-1 $53 $54 $27 $-1 $55 forward single #
face $-1 $56 $57 $21 $-1 $58 reversed single #
loop $-1 $-1 $59 $28 #
plane-surface $-1 0 0 7.693849167675336 0 0 1 1 0 0 forward_v I I I I #
face $-1 $60 $61 $22 $-1 $62 forward single #
loop $-1 $-1 $63 $29 #
plane-surface $-1 -49.065218054750204 0 0 1 0 0 0 0 -1 forward_v I I I I #
face $-1 $64 $65 $23 $-1 $66 reversed single #
loop $-1 $-1 $67 $30 #
plane-surface $-1 28.330987372515935 -73.383743469425056 87.342902871405741 -1 0 0 0 -0.52991927123019833 0.84804809178421925 forward_v I I I I #
face $-1 $68 $69 $24 $-1 $70 forward single #
loop $-1 $71 $72 $31 #
cone-surface $-1 19.899887063840566 -17.536713179254694 4.3259747887810249 0 0.52991927123019833 -0.84804809178421925 1 0 0 1 I I 0 1 1 forward I I I I #
face $-1 $73 $74 $25 $-1 $75 forward single #
loop $-1 $76 $77 $32 #
cone-surface $-1 24.958547249045793 -17.536713179254694 4.3259747887810249 0 0.52991927123019833 -0.84804809178421925 1 0 0 1 I I 0 1 1 forward I I I I #
face $-1 $78 $79 $26 $-1 $80 reversed single #
loop $-1 $-1 $81 $33 #
plane-surface $-1 20.510065270009186 77.237247295948663 92.863920360656323 1 0 0 0 -0.81915205242281985 -0.57357642473473569 forward_v I I I I #
face $-1 $82 $83 $27 $-1 $84 forward single #
loop $-1 $85 $86 $34 #
cone-surface $-1 33.156229942305103 17.992635461867341 3.7537960582770049 0 -0.81915205242281985 -0.57357642473473569 1.5 0 0 1 I I 0 1 1.5 forward I I I I #
face $-1 $87 $88 $21 $-1 $89 reversed single #
loop $-1 $-1 $90 $35 #
plane-surface $-1 0 0 -7.693849167675336 0 0 1 1 0 0 forward_v I I I I #
coedge $-1 $91 $92 $93 $94 forward $36 $-1 #
face $-1 $95 $96 $22 $-1 $97 reversed single #
loop $-1 $-1 $98 $38 #
plane-surface $-1 0 0 7.693849167675336 0 0 1 1 0 0 forward_v I I I I #
coedge $-1 $99 $100 $101 $102 forward $39 $-1 #
face $-1 $103 $104 $23 $-1 $105 reversed single #
loop $-1 $-1 $106 $41 #
plane-surface $-1 22.429217156443173 -21.382534280777058 4.1235737827906718 0 -0.52991927123019833 0.84804809178421925 1 0 0 forward_v I I I I #
coedge $-1 $107 $108 $109 $110 reversed $42 $-1 #
face $-1 $-1 $111 $24 $-1 $112 forward single #
loop $-1 $113 $114 $44 #
cone-surface $-1 19.899887063840566 -16.282749877975618 2.3192140564369312 0 0.52991927123019833 -0.84804809178421925 0.5 0 0 1 I I -0.70710678118654746 0.70710678118654746 0.5 forward I I I I #
loop $-1 $-1 $115 $31 #
coedge $-1 $72 $72 $116 $117 reversed $45 $-1 #
face $-1 $-1 $118 $25 $-1 $119 forward single #
loop $-1 $120 $121 $47 #
cone-surface $-1 24.958547249045793 -16.282749877975618 2.3192140564369312 0 0.52991927123019833 -0.84804809178421925 0.5 0 0 1 I I -0.70710678118654746 0.70710678118654746 0.5 forward I I I I #
loop $-1 $-1 $122 $32 #
coedge $-1 $77 $77 $123 $124 reversed $48 $-1 #
face $-1 $125 $126 $26 $-1 $127 reversed single #
loop $-1 $-1 $128 $50 #
plane-surface $-1 33.156229942305117 -3.1465008482949912 36.578615659308674 0 0.81915205242281985 0.57357642473473569 1 0 0 forward_v I I I I #
coedge $-1 $129 $130 $131 $132 reversed $51 $-1 #
face $-1 $-1 $133 $27 $-1 $134 forward single #
loop $-1 $135 $136 $53 #
cone-surface $-1 33.156229942305103 16.140224854962458 2.4567242266107909 0 -0.81915205242281985 -0.57357642473473569 0.75 0 0 1 I I -0.70710678118654757 0.70710678118654757 0.75 forward I I I I #
loop $-1 $-1 $137 $34 #
coedge $-1 $86 $86 $138 $139 reversed $54 $-1 #
face $-1 $140 $141 $21 $-1 $142 reversed single #
loop $-1 $-1 $143 $56 #
plane-surface $-1 0 -21.382534280777062 0 0 1 0 0 0 1 forward_v I I I I #
coedge $-1 $144 $145 $146 $147 forward $57 $-1 #
coedge $-1 $148 $59 $149 $150 forward $36 $-1 #
coedge $-1 $59 $148 $151 $152 forward $36 $-1 #
coedge $-1 $153 $154 $59 $94 reversed $155 $-1 #
edge $-1 $156 -21.382534280777062 $157 21.382534280777062 $93 $158 forward 7 unknown #
face $-1 $159 $160 $22 $-1 $161 reversed single #
loop $-1 $-1 $162 $60 #
plane-surface $-1 -54.34121166548401 -19.882534280777062 0 1 0 0 0 0 -1 forward_v I I I I #
coedge $-1 $163 $164 $99 $165 forward $61 $-1 #
coedge $-1 $166 $63 $98 $165 reversed $39 $-1 #
coedge $-1 $63 $166 $167 $168 reversed $39 $-1 #
coedge $-1 $169 $170 $63 $102 reversed $160 $-1 #
edge $-1 $171 -7.693849167675336 $172 7.693849167675336 $101 $173 forward 7 unknown #
face $-1 $174 $175 $23 $-1 $176 forward single #
loop $-1 $-1 $177 $64 #
plane-surface $-1 16.52744694037041 -73.383743469425056 87.342902871405741 1 0 0 0 0.52991927123019833 -0.84804809178421925 forward_v I I I I #
coedge $-1 $178 $179 $180 $181 reversed $65 $-1 #
coedge $-1 $108 $67 $182 $183 reversed $42 $-1 #
coedge $-1 $67 $107 $178 $184 reversed $42 $-1 #
coedge $-1 $180 $185 $67 $110 forward $175 $-1 #
edge $-1 $186 15.309337453935466 $187 21.022972325652258 $109 $188 forward 7 unknown #
loop $-1 $-1 $116 $68 #
plane-surface $-1 22.429217156443173 -21.382534280777058 4.1235737827906718 0 -0.52991927123019833 0.84804809178421925 1 0 0 forward_v I I I I #
loop $-1 $-1 $189 $44 #
coedge $-1 $114 $114 $115 $190 reversed $69 $-1 #
coedge $-1 $115 $115 $114 $190 forward $71 $-1 #
coedge $-1 $116 $116 $72 $117 forward $111 $-1 #
edge $-1 $191 -2.2604412248058798e-015 $191 6.2831853071795978 $116 $192 forward 7 unknown #
loop $-1 $-1 $123 $73 #
plane-surface $-1 22.429217156443173 -21.382534280777058 4.1235737827906718 0 -0.52991927123019833 0.84804809178421925 1 0 0 forward_v I I I I #
loop $-1 $-1 $193 $47 #
coedge $-1 $121 $121 $122 $194 reversed $74 $-1 #
coedge $-1 $122 $122 $121 $194 forward $76 $-1 #
coedge $-1 $123 $123 $77 $124 forward $118 $-1 #
edge $-1 $195 -2.2604412248058798e-015 $195 6.2831853071795978 $123 $196 forward 7 unknown #
face $-1 $197 $198 $26 $-1 $199 reversed single #
loop $-1 $-1 $200 $78 #
plane-surface $-1 45.802394614601049 77.237247295948663 92.863920360656323 -1 0 0 0 0.81915205242281985 0.57357642473473569 forward_v I I I I #
coedge $-1 $201 $202 $203 $204 reversed $79 $-1 #
coedge $-1 $130 $81 $205 $206 reversed $51 $-1 #
coedge $-1 $81 $129 $201 $207 reversed $51 $-1 #
coedge $-1 $203 $208 $81 $132 forward $209 $-1 #
edge $-1 $210 17.23608936719727 $211 21.539793869841162 $131 $212 forward 7 unknown #
loop $-1 $-1 $138 $82 #
plane-surface $-1 33.156229942305117 -3.1465008482949912 36.578615659308674 0 0.81915205242281985 0.57357642473473569 1 0 0 forward_v I I I I #
loop $-1 $-1 $213 $53 #
coedge $-1 $136 $136 $137 $214 reversed $83 $-1 #
coedge $-1 $137 $137 $136 $214 forward $85 $-1 #
coedge $-1 $138 $138 $86 $139 forward $133 $-1 #
edge $-1 $215 6.782444052799584e-016 $215 6.2831853071796013 $138 $216 forward 7 unknown #
face $-1 $217 $218 $21 $-1 $219 reversed single #
loop $-1 $-1 $220 $87 #
plane-surface $-1 -49.065218054750204 0 0 1 0 0 0 0 -1 forward_v I I I I #
coedge $-1 $221 $151 $222 $223 forward $88 $-1 #
coedge $-1 $224 $90 $221 $225 forward $57 $-1 #
coedge $-1 $90 $224 $226 $227 forward $57 $-1 #
coedge $-1 $154 $153 $90 $147 reversed $155 $-1 #
edge $-1 $228 -21.382534280777062 $229 21.382534280777062 $146 $230 forward 7 unknown #
coedge $-1 $92 $91 $231 $232 forward $36 $-1 #
coedge $-1 $233 $234 $91 $150 reversed $218 $-1 #
edge $-1 $157 -49.065218054750204 $235 49.065218054750204 $149 $236 forward 7 unknown #
coedge $-1 $143 $237 $92 $152 reversed $88 $-1 #
edge $-1 $238 -49.065218054750204 $156 49.065218054750204 $151 $239 forward 7 unknown #
coedge $-1 $146 $93 $237 $240 forward $155 $-1 #
coedge $-1 $93 $146 $233 $241 reversed $155 $-1 #
loop $-1 $-1 $153 $217 #
vertex $-1 $94 $242 #
vertex $-1 $94 $243 #
straight-curve $-1 49.065218054750204 0 7.693849167675336 0 1 0 I I #
face $-1 $244 $245 $22 $-1 $246 reversed single #
loop $-1 $-1 $101 $95 #
plane-surface $-1 -51.703214860117107 -18.382534280777062 0 0 -1 0 0 0 -1 forward_v I I I I #
coedge $-1 $247 $248 $249 $250 forward $96 $-1 #
coedge $-1 $251 $98 $170 $252 forward $61 $-1 #
coedge $-1 $98 $251 $253 $254 forward $61 $-1 #
edge $-1 $255 -21.382534280777062 $172 -18.382534280777062 $98 $256 forward 7 unknown #
coedge $-1 $100 $99 $257 $258 reversed $39 $-1 #
coedge $-1 $259 $260 $100 $168 forward $245 $-1 #
edge $-1 $171 18.382534280777062 $261 21.382534280777062 $167 $262 forward 7 unknown #
coedge $-1 $249 $101 $260 $263 reversed $160 $-1 #
coedge $-1 $101 $249 $163 $252 reversed $160 $-1 #
vertex $-1 $168 $264 #
vertex $-1 $252 $265 #
straight-curve $-1 -49.065218054750204 -18.382534280777062 0 0 0 1 I I #
face $-1 $-1 $266 $23 $-1 $267 reversed single #
loop $-1 $-1 $109 $103 #
plane-surface $-1 0 0 7.693849167675336 0 0 1 1 0 0 forward_v I I I I #
coedge $-1 $268 $269 $270 $271 reversed $104 $-1 #
coedge $-1 $272 $106 $108 $184 forward $65 $-1 #
coedge $-1 $106 $272 $268 $273 forward $65 $-1 #
coedge $-1 $270 $109 $106 $181 forward $175 $-1 #
edge $-1 $187 -17.116378794294349 $274 -5.312838362148824 $180 $275 forward 7 unknown #
coedge $-1 $276 $277 $107 $183 forward $266 $-1 #
edge $-1 $278 -39.547877652912199 $186 -35.977602268027532 $182 $279 forward 7 unknown #
edge $-1 $187 -6.7373948801603927 $278 3.9541977777422176e-015 $108 $280 forward 7 unknown #
coedge $-1 $109 $270 $276 $281 forward $175 $-1 #
vertex $-1 $110 $282 #
vertex $-1 $110 $283 #
straight-curve $-1 28.330987372515935 -36.691871734712528 7.6938491676753387 0 1 0 I I #
coedge $-1 $189 $189 $-1 $284 reversed $113 $-1 #
edge $-1 $285 0 $285 6.2831853071796004 $114 $286 forward 7 unknown #
vertex $-1 $117 $287 #
ellipse-curve $-1 19.899887063840566 -18.525716844918666 5.9087114752330017 0 -0.52991927123019833 0.84804809178421925 1 0 0 1 I I #
coedge $-1 $193 $193 $-1 $288 reversed $120 $-1 #
edge $-1 $289 0 $289 6.2831853071796004 $121 $290 forward 7 unknown #
vertex $-1 $124 $291 #
ellipse-curve $-1 24.958547249045793 -18.525716844918666 5.9087114752330017 0 -0.52991927123019833 0.84804809178421925 1 0 0 1 I I #
face $-1 $-1 $209 $26 $-1 $292 forward single #
loop $-1 $-1 $293 $125 #
plane-surface $-1 0 21.382534280777062 0 0 -1 0 0 0 -1 forward_v I I I I #
coedge $-1 $294 $295 $296 $297 reversed $126 $-1 #
coedge $-1 $298 $128 $130 $207 forward $79 $-1 #
coedge $-1 $128 $298 $294 $299 forward $79 $-1 #
coedge $-1 $296 $131 $128 $204 forward $209 $-1 #
edge $-1 $211 3.9319502988566271 $300 29.22427964344849 $203 $301 forward 7 unknown #
coedge $-1 $302 $303 $129 $206 forward $198 $-1 #
edge $-1 $304 -44.884438205219141 $210 -38.738111012652823 $205 $305 forward 7 unknown #
edge $-1 $211 35.261788585159962 $304 42.765068561554116 $130 $306 forward 7 unknown #
coedge $-1 $131 $296 $302 $307 forward $209 $-1 #
loop $-1 $-1 $296 $197 #
vertex $-1 $206 $308 #
vertex $-1 $132 $309 #
straight-curve $-1 20.510065270009186 38.618623647974331 7.6938491676753387 0 -1 0 I I #
coedge $-1 $213 $213 $-1 $310 reversed $135 $-1 #
edge $-1 $311 0 $311 6.2831853071796004 $136 $312 forward 7 unknown #
vertex $-1 $139 $313 #
ellipse-curve $-1 33.156229942305103 19.230682029455117 4.6206855713921726 0 0.81915205242281985 0.57357642473473569 1.5 0 0 1 I I #
face $-1 $-1 $155 $21 $-1 $314 reversed single #
loop $-1 $-1 $233 $140 #
plane-surface $-1 0 21.382534280777062 0 0 -1 0 0 0 -1 forward_v I I I I #
coedge $-1 $315 $231 $234 $316 forward $141 $-1 #
coedge $-1 $237 $143 $144 $225 reversed $88 $-1 #
coedge $-1 $231 $315 $143 $223 reversed $141 $-1 #
edge $-1 $238 -7.693849167675336 $317 7.693849167675336 $222 $318 forward 7 unknown #
coedge $-1 $145 $144 $315 $319 forward $57 $-1 #
edge $-1 $229 -49.065218054750204 $317 49.065218054750204 $221 $320 forward 7 unknown #
coedge $-1 $234 $233 $145 $227 reversed $218 $-1 #
edge $-1 $321 -49.065218054750204 $228 49.065218054750204 $226 $322 forward 7 unknown #
vertex $-1 $147 $323 #
vertex $-1 $240 $324 #
straight-curve $-1 49.065218054750204 0 -7.693849167675336 0 -1 0 I I #
coedge $-1 $220 $222 $148 $232 reversed $141 $-1 #
edge $-1 $235 -21.382534280777062 $238 21.382534280777062 $231 $325 forward 7 unknown #
coedge $-1 $226 $149 $154 $241 forward $218 $-1 #
coedge $-1 $149 $226 $220 $316 reversed $218 $-1 #
vertex $-1 $150 $326 #
straight-curve $-1 0 21.382534280777062 7.693849167675336 -1 0 0 I I #
coedge $-1 $151 $221 $153 $240 reversed $88 $-1 #
vertex $-1 $232 $327 #
straight-curve $-1 0 -21.382534280777062 7.693849167675336 1 0 0 I I #
edge $-1 $156 -7.693849167675336 $229 7.693849167675336 $153 $328 forward 7 unknown #
edge $-1 $157 -7.693849167675336 $228 7.693849167675336 $154 $329 forward 7 unknown #
point $-1 49.065218054750204 -21.382534280777062 7.693849167675336 #
point $-1 49.065218054750204 21.382534280777062 7.693849167675336 #
face $-1 $-1 $330 $22 $-1 $331 reversed single #
loop $-1 $-1 $167 $159 #
plane-surface $-1 0 0 -7.693849167675336 0 0 1 1 0 0 forward_v I I I I #
coedge $-1 $332 $162 $333 $334 reversed $96 $-1 #
coedge $-1 $162 $332 $251 $335 reversed $96 $-1 #
coedge $-1 $170 $169 $162 $250 reversed $160 $-1 #
edge $-1 $336 -7.693849167675336 $337 7.693849167675336 $249 $338 forward 7 unknown #
coedge $-1 $164 $163 $248 $335 forward $61 $-1 #
edge $-1 $172 -2.6379968053669032 $336 2.6379968053669032 $170 $339 forward 7 unknown #
coedge $-1 $340 $257 $164 $254 reversed $330 $-1 #
edge $-1 $341 -54.34121166548401 $255 -49.065218054750204 $253 $342 forward 7 unknown #
vertex $-1 $258 $343 #
straight-curve $-1 -49.065218054750204 0 7.693849167675336 0 1 0 I I #
coedge $-1 $253 $344 $166 $258 forward $330 $-1 #
edge $-1 $261 -7.693849167675336 $255 7.693849167675336 $257 $345 forward 7 unknown #
coedge $-1 $333 $167 $344 $346 forward $245 $-1 #
coedge $-1 $167 $333 $169 $263 forward $245 $-1 #
vertex $-1 $346 $347 #
straight-curve $-1 -49.065218054750204 0 -7.693849167675336 0 -1 0 I I #
edge $-1 $337 -2.6379968053669032 $171 2.6379968053669032 $169 $348 forward 7 unknown #
point $-1 -49.065218054750204 -18.382534280777062 -7.693849167675336 #
point $-1 -49.065218054750204 -18.382534280777062 7.693849167675336 #
loop $-1 $-1 $182 $174 #
plane-surface $-1 0 -21.382534280777062 0 0 1 0 0 0 1 forward_v I I I I #
coedge $-1 $269 $177 $179 $273 reversed $104 $-1 #
coedge $-1 $177 $268 $349 $350 reversed $104 $-1 #
coedge $-1 $185 $180 $177 $271 forward $175 $-1 #
edge $-1 $274 -21.022972325652258 $351 -15.309337453935466 $270 $352 forward 7 unknown #
coedge $-1 $179 $178 $277 $353 reversed $65 $-1 #
edge $-1 $354 -3.9541977777422176e-015 $274 6.7373948801603927 $268 $355 forward 7 unknown #
vertex $-1 $181 $356 #
straight-curve $-1 11.214608578221586 -15.66889940906027 7.693849167675336 -1 0 0 I I #
coedge $-1 $349 $182 $185 $281 reversed $266 $-1 #
coedge $-1 $182 $349 $272 $353 forward $266 $-1 #
vertex $-1 $183 $357 #
straight-curve $-1 28.330987372515935 -21.382534280777062 43.67145143570287 0 0 1 I I #
straight-curve $-1 28.330987372515935 -21.382534280777058 4.1235737827906718 0 -0.84804809178421925 -0.52991927123019833 I I #
edge $-1 $351 16.52744694037041 $186 28.330987372515935 $276 $358 forward 7 unknown #
point $-1 28.330987372515935 -21.382534280777062 7.693849167675336 #
point $-1 28.330987372515935 -15.66889940906027 7.693849167675336 #
edge $-1 $359 1 $359 0 $189 $-1 forward 7 unknown #
vertex $-1 $190 $360 #
ellipse-curve $-1 19.899887063840566 -16.547709513590718 2.7432381023290411 0 -0.52991927123019833 0.84804809178421925 1 0 0 1 I I #
point $-1 20.899887063840566 -18.525716844918673 5.9087114752330088 #
edge $-1 $361 1 $361 0 $193 $-1 forward 7 unknown #
vertex $-1 $194 $362 #
ellipse-curve $-1 24.958547249045793 -16.547709513590718 2.7432381023290411 0 -0.52991927123019833 0.84804809178421925 1 0 0 1 I I #
point $-1 25.958547249045793 -18.525716844918673 5.9087114752330088 #
plane-surface $-1 0 0 7.693849167675336 0 0 1 1 0 0 forward_v I I I I #
coedge $-1 $303 $302 $295 $363 forward $198 $-1 #
coedge $-1 $295 $200 $202 $299 reversed $126 $-1 #
coedge $-1 $200 $294 $293 $363 reversed $126 $-1 #
coedge $-1 $208 $203 $200 $297 forward $209 $-1 #
edge $-1 $300 -21.539793869841162 $364 -17.23608936719727 $296 $365 forward 7 unknown #
coedge $-1 $202 $201 $303 $366 reversed $79 $-1 #
edge $-1 $367 -42.765068561554116 $300 -35.261788585159962 $294 $368 forward 7 unknown #
vertex $-1 $204 $369 #
straight-curve $-1 16.578114971152559 17.078829778133176 7.6938491676753351 1 0 0 I I #
coedge $-1 $293 $205 $208 $307 reversed $198 $-1 #
coedge $-1 $205 $293 $298 $366 forward $198 $-1 #
vertex $-1 $206 $370 #
straight-curve $-1 20.510065270009186 21.382534280777062 46.431960180328161 0 0 1 I I #
straight-curve $-1 20.510065270009186 -3.1465008482949912 36.578615659308674 0 0.57357642473473569 -0.81915205242281985 I I #
edge $-1 $364 -45.802394614601049 $210 -20.510065270009186 $302 $371 forward 7 unknown #
point $-1 20.510065270009186 21.382534280777062 7.693849167675336 #
point $-1 20.510065270009186 17.078829778133169 7.6938491676753351 #
edge $-1 $372 1 $372 0 $213 $-1 forward 7 unknown #
vertex $-1 $214 $373 #
ellipse-curve $-1 33.156229942305103 16.754588894279571 2.8869065451618425 0 0.81915205242281985 0.57357642473473569 1.5 0 0 1 I I #
point $-1 34.656229942305103 19.23068202945511 4.6206855713921664 #
plane-surface $-1 49.065218054750204 0 0 -1 0 0 0 0 1 forward_v I I I I #
coedge $-1 $222 $220 $224 $319 reversed $141 $-1 #
edge $-1 $235 -7.693849167675336 $321 7.693849167675336 $234 $374 forward 7 unknown #
vertex $-1 $319 $375 #
straight-curve $-1 -49.065218054750204 -21.382534280777062 0 0 0 -1 I I #
edge $-1 $317 -21.382534280777062 $321 21.382534280777062 $315 $376 forward 7 unknown #
straight-curve $-1 0 -21.382534280777062 -7.693849167675336 -1 0 0 I I #
vertex $-1 $227 $377 #
straight-curve $-1 0 21.382534280777062 -7.693849167675336 1 0 0 I I #
point $-1 49.065218054750204 21.382534280777062 -7.693849167675336 #
point $-1 49.065218054750204 -21.382534280777062 -7.693849167675336 #
straight-curve $-1 -49.065218054750204 0 7.693849167675336 0 -1 0 I I #
point $-1 -49.065218054750204 21.382534280777062 7.693849167675336 #
point $-1 -49.065218054750204 -21.382534280777062 7.693849167675336 #
straight-curve $-1 49.065218054750204 -21.382534280777062 0 0 0 -1 I I #
straight-curve $-1 49.065218054750204 21.382534280777062 0 0 0 -1 I I #
loop $-1 $-1 $257 $244 #
plane-surface $-1 0 -21.382534280777062 0 0 1 0 0 0 1 forward_v I I I I #
coedge $-1 $248 $247 $340 $378 reversed $96 $-1 #
coedge $-1 $260 $259 $247 $334 forward $245 $-1 #
edge $-1 $379 -1.5 $337 1.5 $247 $380 forward 7 unknown #
edge $-1 $336 -1.5 $341 1.5 $248 $381 forward 7 unknown #
vertex $-1 $252 $382 #
vertex $-1 $263 $383 #
straight-curve $-1 -54.34121166548401 -18.382534280777062 0 0 0 -1 I I #
straight-curve $-1 -51.703214860117107 -18.382534280777062 7.693849167675336 -1 0 0 I I #
coedge $-1 $344 $253 $332 $378 forward $330 $-1 #
vertex $-1 $335 $384 #
straight-curve $-1 0 -21.382534280777062 7.693849167675336 1 0 0 I I #
point $-1 -49.065218054750204 -21.382534280777062 7.693849167675336 #
coedge $-1 $257 $340 $259 $346 reversed $330 $-1 #
straight-curve $-1 -49.065218054750204 -21.382534280777062 0 0 0 1 I I #
edge $-1 $261 -2.6379968053669032 $379 2.6379968053669032 $344 $385 forward 7 unknown #
point $-1 -49.065218054750204 -21.382534280777062 -7.693849167675336 #
straight-curve $-1 -51.703214860117107 -18.382534280777062 -7.693849167675336 1 0 0 I I #
coedge $-1 $277 $276 $269 $350 forward $266 $-1 #
edge $-1 $351 35.977602268027532 $354 39.547877652912199 $349 $386 forward 7 unknown #
vertex $-1 $281 $387 #
straight-curve $-1 16.52744694037041 -36.691871734712528 7.6938491676753387 0 -1 0 I I #
edge $-1 $354 5.312838362148824 $278 17.116378794294349 $277 $388 forward 7 unknown #
vertex $-1 $353 $389 #
straight-curve $-1 16.52744694037041 -21.382534280777058 4.1235737827906718 0 0.84804809178421925 0.52991927123019833 I I #
point $-1 16.52744694037041 -15.66889940906027 7.693849167675336 #
point $-1 28.330987372515935 -21.382534280777062 4.12357378279067 #
straight-curve $-1 0 -21.382534280777062 7.693849167675336 1 0 0 I I #
vertex $-1 $284 $390 #
point $-1 20.899887063840566 -16.547709513590718 2.7432381023290411 #
vertex $-1 $288 $391 #
point $-1 25.958547249045793 -16.547709513590718 2.7432381023290411 #
edge $-1 $364 38.738111012652823 $367 44.884438205219141 $293 $392 forward 7 unknown #
vertex $-1 $307 $393 #
straight-curve $-1 45.802394614601049 38.618623647974331 7.6938491676753387 0 1 0 I I #
edge $-1 $367 -29.22427964344849 $304 -3.9319502988566271 $303 $394 forward 7 unknown #
vertex $-1 $366 $395 #
straight-curve $-1 45.802394614601049 -3.1465008482949912 36.578615659308674 0 -0.57357642473473569 0.81915205242281985 I I #
point $-1 45.802394614601049 17.078829778133169 7.6938491676753351 #
point $-1 20.510065270009186 21.382534280777062 1.5475219751090208 #
straight-curve $-1 0 21.382534280777062 7.693849167675336 -1 0 0 I I #
vertex $-1 $310 $396 #
point $-1 34.656229942305103 16.754588894279571 2.8869065451618425 #
straight-curve $-1 -49.065218054750204 21.382534280777062 0 0 0 -1 I I #
point $-1 -49.065218054750204 -21.382534280777062 -7.693849167675336 #
straight-curve $-1 -49.065218054750204 0 -7.693849167675336 0 1 0 I I #
point $-1 -49.065218054750204 21.382534280777062 -7.693849167675336 #
edge $-1 $341 -7.693849167675336 $379 7.693849167675336 $332 $397 forward 7 unknown #
vertex $-1 $334 $398 #
straight-curve $-1 -54.34121166548401 -19.882534280777062 -7.693849167675336 0 1 0 I I #
straight-curve $-1 -54.34121166548401 -19.882534280777062 7.693849167675336 0 -1 0 I I #
point $-1 -54.34121166548401 -18.382534280777062 7.693849167675336 #
point $-1 -54.34121166548401 -18.382534280777062 -7.693849167675336 #
point $-1 -54.34121166548401 -21.382534280777062 7.693849167675336 #
straight-curve $-1 -51.703214860117107 -21.382534280777062 -7.693849167675336 -1 0 0 I I #
straight-curve $-1 16.52744694037041 -21.382534280777062 43.67145143570287 0 0 -1 I I #
point $-1 16.52744694037041 -21.382534280777062 7.693849167675336 #
straight-curve $-1 11.214608578221586 -21.382534280777062 4.1235737827906682 1 0 0 I I #
point $-1 16.52744694037041 -21.382534280777062 4.12357378279067 #
point $-1 19.899887063840566 -16.017790242360519 1.8951900105448216 #
point $-1 24.958547249045793 -16.017790242360519 1.8951900105448216 #
straight-curve $-1 45.802394614601049 21.382534280777062 46.431960180328161 0 0 -1 I I #
point $-1 45.802394614601049 21.382534280777062 7.693849167675336 #
straight-curve $-1 16.578114971152559 21.382534280777065 1.5475219751090172 -1 0 0 I I #
point $-1 45.802394614601049 21.382534280777062 1.5475219751090208 #
point $-1 33.156229942305103 15.525860815645343 2.0265419080597393 #
straight-curve $-1 -54.34121166548401 -21.382534280777062 0 0 0 -1 I I #
point $-1 -54.34121166548401 -21.382534280777062 -7.693849167675336 #
End-of-ACIS-data 