500 0 6 0           
7 Unknown 11 ACIS 5.0 NT 24 Fri Mar 26 02:39:47 1999 
-1 9.9999999999999995e-007 1e-010 
body $-1 $6 $-1 $7 #
body $-1 $8 $-1 $9 #
body $-1 $10 $-1 $11 #
body $-1 $12 $-1 $13 #
body $-1 $14 $-1 $15 #
body $-1 $16 $-1 $17 #
lump $-1 $-1 $18 $0 #
transform $-1 1 0 0 0 1 0 0 0 1 43.453474532303844 30.143320011419195 14.237928174100075 1 rotate no_reflect no_shear #
lump $-1 $-1 $19 $1 #
transform $-1 1 0 0 0 1 0 0 0 1 43.453474532303844 30.143320011419195 14.237928174100075 1 rotate no_reflect no_shear #
lump $-1 $-1 $20 $2 #
transform $-1 1 0 0 0 1 0 0 0 1 43.453474532303844 30.143320011419195 14.237928174100075 1 rotate no_reflect no_shear #
lump $-1 $-1 $21 $3 #
transform $-1 1 0 0 0 1 0 0 0 1 43.453474532303844 30.143320011419195 14.237928174100075 1 rotate no_reflect no_shear #
lump $-1 $-1 $22 $4 #
transform $-1 1 0 0 0 1 0 0 0 1 43.453474532303844 30.143320011419195 14.237928174100075 1 rotate no_reflect no_shear #
lump $-1 $-1 $23 $5 #
transform $-1 1 0 0 0 1 0 0 0 1 43.453474532303844 30.143320011419195 14.237928174100075 1 rotate no_reflect no_shear #
shell $-1 $-1 $-1 $24 $-1 $6 #
shell $-1 $-1 $-1 $25 $-1 $8 #
shell $-1 $-1 $-1 $26 $-1 $10 #
shell $-1 $-1 $-1 $27 $-1 $12 #
shell $-1 $-1 $-1 $28 $-1 $14 #
shell $-1 $-1 $-1 $29 $-1 $16 #
face $-1 $30 $31 $18 $-1 $32 forward single #
face $-1 $33 $34 $19 $-1 $35 reversed single #
face $-1 $36 $37 $20 $-1 $38 reversed single #
face $-1 $39 $40 $21 $-1 $41 forward single #
face $-1 $42 $43 $22 $-1 $44 forward single #
face $-1 $45 $46 $23 $-1 $47 forward single #
face $-1 $48 $49 $18 $-1 $50 reversed single #
loop $-1 $-1 $51 $24 #
plane-surface $-1 0 0 14.237928174100075 0 0 1 1 0 0 forward_v I I I I #
face $-1 $52 $53 $19 $-1 $54 reversed single #
loop $-1 $-1 $55 $25 #
plane-surface $-1 -28.904191910972457 -24.628761468755894 0 1 0 0 0 0 -1 forward_v I I I I #
face $-1 $56 $57 $20 $-1 $58 reversed single #
loop $-1 $-1 $59 $26 #
plane-surface $-1 54.16535145570947 23.527221777620465 126.16257916304046 0 1 0 0.7660444514056185 0 0.64278759981090561 forward_v I I I I #
face $-1 $60 $61 $21 $-1 $62 forward single #
loop $-1 $63 $64 $27 #
cone-surface $-1 38.549784912845404 24.850441424380211 8.5678361371164335 -0.7660444514056185 0 -0.64278759981090561 0.3213937999054528 0 -0.38302222570280925 1 I I 0 1 0.5 forward I I I I #
face $-1 $65 $66 $22 $-1 $67 forward single #
loop $-1 $68 $69 $28 #
cone-surface $-1 38.549784912845404 26.835270894519834 8.5678361371164335 -0.7660444514056185 0 -0.64278759981090561 0.3213937999054528 0 -0.38302222570280925 1 I I 0 1 0.5 forward I I I I #
face $-1 $70 $71 $23 $-1 $72 forward single #
loop $-1 $73 $74 $29 #
cone-surface $-1 38.549784912845404 28.820100364659456 8.5678361371164335 -0.7660444514056185 0 -0.64278759981090561 0.3213937999054528 0 -0.38302222570280925 1 I I 0 1 0.5 forward I I I I #
face $-1 $75 $76 $18 $-1 $77 reversed single #
loop $-1 $-1 $78 $30 #
plane-surface $-1 0 0 -14.237928174100075 0 0 1 1 0 0 forward_v I I I I #
coedge $-1 $79 $80 $81 $82 forward $31 $-1 #
face $-1 $83 $84 $19 $-1 $85 reversed single #
loop $-1 $-1 $86 $33 #
plane-surface $-1 -24.676265493332416 -19.114202926092592 0 0 -1 0 0 0 -1 forward_v I I I I #
coedge $-1 $87 $88 $89 $90 forward $34 $-1 #
face $-1 $91 $92 $20 $-1 $93 reversed single #
loop $-1 $-1 $94 $36 #
plane-surface $-1 -12.409234663823952 26.835270894519834 70.299869966912667 0.7660444514056185 0 0.64278759981090561 0.64278759981090561 0 -0.7660444514056185 forward_v I I I I #
coedge $-1 $95 $96 $97 $98 reversed $37 $-1 #
face $-1 $-1 $99 $21 $-1 $100 forward single #
loop $-1 $101 $102 $39 #
cone-surface $-1 37.865162053686035 24.850441424380211 7.9933693635405039 -0.7660444514056185 0 -0.64278759981090561 0.1606968999527264 0 -0.19151111285140462 1 I I -0.70710678118654746 0.70710678118654746 0.25 forward I I I I #
loop $-1 $-1 $103 $27 #
coedge $-1 $64 $64 $104 $105 reversed $40 $-1 #
face $-1 $-1 $106 $22 $-1 $107 forward single #
loop $-1 $108 $109 $42 #
cone-surface $-1 37.865162053686035 26.835270894519834 7.9933693635405039 -0.7660444514056185 0 -0.64278759981090561 0.1606968999527264 0 -0.19151111285140462 1 I I -0.70710678118654746 0.70710678118654746 0.25 forward I I I I #
loop $-1 $-1 $110 $28 #
coedge $-1 $69 $69 $111 $112 reversed $43 $-1 #
face $-1 $-1 $113 $23 $-1 $114 forward single #
loop $-1 $115 $116 $45 #
cone-surface $-1 37.865162053686035 28.820100364659456 7.9933693635405039 -0.7660444514056185 0 -0.64278759981090561 0.1606968999527264 0 -0.19151111285140462 1 I I -0.70710678118654746 0.70710678118654746 0.25 forward I I I I #
loop $-1 $-1 $117 $29 #
coedge $-1 $74 $74 $118 $119 reversed $46 $-1 #
face $-1 $120 $121 $18 $-1 $122 reversed single #
loop $-1 $-1 $123 $48 #
plane-surface $-1 0 -30.143320011419195 0 0 1 0 0 0 1 forward_v I I I I #
coedge $-1 $124 $125 $126 $127 forward $49 $-1 #
coedge $-1 $128 $51 $129 $130 forward $31 $-1 #
coedge $-1 $51 $128 $131 $132 forward $31 $-1 #
coedge $-1 $133 $134 $51 $82 reversed $135 $-1 #
edge $-1 $136 -30.143320011419195 $137 30.143320011419195 $81 $138 forward 7 unknown #
face $-1 $139 $140 $19 $-1 $141 forward single #
loop $-1 $-1 $142 $52 #
plane-surface $-1 -20.448339075692374 -24.628761468755894 0 -1 0 0 0 0 1 forward_v I I I I #
coedge $-1 $143 $144 $145 $146 forward $53 $-1 #
coedge $-1 $147 $55 $148 $149 reversed $34 $-1 #
coedge $-1 $55 $147 $150 $151 reversed $34 $-1 #
coedge $-1 $144 $143 $55 $90 reversed $53 $-1 #
edge $-1 $152 -14.237928174100075 $153 14.237928174100075 $89 $154 forward 7 unknown #
face $-1 $155 $156 $20 $-1 $157 reversed single #
loop $-1 $-1 $97 $56 #
plane-surface $-1 43.453474532303844 0 0 -1 0 0 0 0 1 forward_v I I I I #
coedge $-1 $158 $159 $160 $161 reversed $57 $-1 #
coedge $-1 $96 $59 $162 $163 reversed $37 $-1 #
coedge $-1 $59 $95 $158 $164 reversed $37 $-1 #
coedge $-1 $160 $165 $59 $98 forward $92 $-1 #
edge $-1 $166 48.843361407420154 $167 59.356005734140972 $97 $168 forward 7 unknown #
loop $-1 $-1 $104 $60 #
plane-surface $-1 -12.409234663823952 26.835270894519834 70.299869966912667 0.7660444514056185 0 0.64278759981090561 0.64278759981090561 0 -0.7660444514056185 forward_v I I I I #
loop $-1 $-1 $169 $39 #
coedge $-1 $102 $102 $103 $170 reversed $61 $-1 #
coedge $-1 $103 $103 $102 $170 forward $63 $-1 #
coedge $-1 $104 $104 $64 $105 forward $99 $-1 #
edge $-1 $171 0 $171 6.2831853071796004 $104 $172 forward 7 unknown #
loop $-1 $-1 $111 $65 #
plane-surface $-1 -12.409234663823952 26.835270894519834 70.299869966912667 0.7660444514056185 0 0.64278759981090561 0.64278759981090561 0 -0.7660444514056185 forward_v I I I I #
loop $-1 $-1 $173 $42 #
coedge $-1 $109 $109 $110 $174 reversed $66 $-1 #
coedge $-1 $110 $110 $109 $174 forward $68 $-1 #
coedge $-1 $111 $111 $69 $112 forward $106 $-1 #
edge $-1 $175 0 $175 6.2831853071796004 $111 $176 forward 7 unknown #
loop $-1 $-1 $118 $70 #
plane-surface $-1 -12.409234663823952 26.835270894519834 70.299869966912667 0.7660444514056185 0 0.64278759981090561 0.64278759981090561 0 -0.7660444514056185 forward_v I I I I #
loop $-1 $-1 $177 $45 #
coedge $-1 $116 $116 $117 $178 reversed $71 $-1 #
coedge $-1 $117 $117 $116 $178 forward $73 $-1 #
coedge $-1 $118 $118 $74 $119 forward $113 $-1 #
edge $-1 $179 0 $179 6.2831853071796004 $118 $180 forward 7 unknown #
face $-1 $181 $182 $18 $-1 $183 reversed single #
loop $-1 $-1 $184 $75 #
plane-surface $-1 -43.453474532303844 0 0 1 0 0 0 0 -1 forward_v I I I I #
coedge $-1 $185 $131 $186 $187 forward $76 $-1 #
coedge $-1 $188 $78 $185 $189 forward $49 $-1 #
coedge $-1 $78 $188 $190 $191 forward $49 $-1 #
coedge $-1 $134 $133 $78 $127 reversed $135 $-1 #
edge $-1 $192 -30.143320011419195 $193 30.143320011419195 $126 $194 forward 7 unknown #
coedge $-1 $80 $79 $195 $196 forward $31 $-1 #
coedge $-1 $197 $198 $79 $130 reversed $182 $-1 #
edge $-1 $137 -43.453474532303844 $199 43.453474532303844 $129 $200 forward 7 unknown #
coedge $-1 $123 $201 $80 $132 reversed $76 $-1 #
edge $-1 $202 -43.453474532303844 $136 43.453474532303844 $131 $203 forward 7 unknown #
coedge $-1 $126 $81 $201 $204 forward $135 $-1 #
coedge $-1 $81 $126 $197 $205 reversed $135 $-1 #
loop $-1 $-1 $133 $181 #
vertex $-1 $82 $206 #
vertex $-1 $82 $207 #
straight-curve $-1 43.453474532303844 0 14.237928174100075 0 1 0 I I #
face $-1 $208 $209 $19 $-1 $210 reversed single #
loop $-1 $-1 $211 $83 #
plane-surface $-1 0 0 14.237928174100075 0 0 1 1 0 0 forward_v I I I I #
coedge $-1 $212 $213 $214 $215 reversed $84 $-1 #
coedge $-1 $89 $86 $216 $217 reversed $53 $-1 #
coedge $-1 $86 $89 $218 $219 reversed $53 $-1 #
coedge $-1 $213 $212 $86 $146 reversed $84 $-1 #
edge $-1 $220 -14.237928174100075 $221 14.237928174100075 $145 $222 forward 7 unknown #
coedge $-1 $88 $87 $223 $224 reversed $34 $-1 #
coedge $-1 $216 $225 $87 $149 forward $209 $-1 #
edge $-1 $226 -17.82893927704125 $153 -6.7998221917146449 $148 $227 forward 7 unknown #
coedge $-1 $228 $218 $88 $151 forward $140 $-1 #
edge $-1 $152 6.7998221917146449 $229 17.82893927704125 $150 $230 forward 7 unknown #
vertex $-1 $151 $231 #
vertex $-1 $149 $232 #
straight-curve $-1 -28.904191910972457 -19.114202926092592 0 0 0 -1 I I #
face $-1 $-1 $233 $20 $-1 $234 forward single #
loop $-1 $-1 $235 $91 #
plane-surface $-1 0 30.143320011419195 0 0 -1 0 0 0 -1 forward_v I I I I #
coedge $-1 $236 $94 $96 $164 forward $57 $-1 #
coedge $-1 $94 $236 $235 $237 reversed $57 $-1 #
coedge $-1 $238 $97 $94 $161 forward $92 $-1 #
edge $-1 $167 10.109586330360548 $239 16.72568456415928 $160 $240 forward 7 unknown #
coedge $-1 $241 $242 $95 $163 forward $233 $-1 #
edge $-1 $243 7.5496430581481846 $166 16.370798804449109 $162 $244 forward 7 unknown #
edge $-1 $167 -86.906949064607701 $243 -73.183666678799497 $96 $245 forward 7 unknown #
coedge $-1 $97 $238 $241 $246 reversed $92 $-1 #
vertex $-1 $246 $247 #
vertex $-1 $98 $248 #
straight-curve $-1 43.453474532303844 23.527221777620465 63.081289581520231 0 0 -1 I I #
coedge $-1 $169 $169 $-1 $249 reversed $101 $-1 #
edge $-1 $250 0 $250 6.2831853071796004 $102 $251 forward 7 unknown #
vertex $-1 $105 $252 #
ellipse-curve $-1 39.042896659153392 24.850441424380211 8.9816060107396574 0.7660444514056185 0 0.64278759981090561 0.3213937999054528 0 -0.38302222570280925 1 I I #
coedge $-1 $173 $173 $-1 $253 reversed $108 $-1 #
edge $-1 $254 0 $254 6.2831853071796004 $109 $255 forward 7 unknown #
vertex $-1 $112 $256 #
ellipse-curve $-1 39.042896659153392 26.835270894519834 8.9816060107396574 0.7660444514056185 0 0.64278759981090561 0.3213937999054528 0 -0.38302222570280925 1 I I #
coedge $-1 $177 $177 $-1 $257 reversed $115 $-1 #
edge $-1 $258 0 $258 6.2831853071796004 $116 $259 forward 7 unknown #
vertex $-1 $119 $260 #
ellipse-curve $-1 39.042896659153392 28.820100364659456 8.9816060107396574 0.7660444514056185 0 0.64278759981090561 0.3213937999054528 0 -0.38302222570280925 1 I I #
face $-1 $-1 $135 $18 $-1 $261 reversed single #
loop $-1 $-1 $197 $120 #
plane-surface $-1 0 30.143320011419195 0 0 -1 0 0 0 -1 forward_v I I I I #
coedge $-1 $262 $195 $198 $263 forward $121 $-1 #
coedge $-1 $201 $123 $124 $189 reversed $76 $-1 #
coedge $-1 $195 $262 $123 $187 reversed $121 $-1 #
edge $-1 $202 -14.237928174100075 $264 14.237928174100075 $186 $265 forward 7 unknown #
coedge $-1 $125 $124 $262 $266 forward $49 $-1 #
edge $-1 $193 -43.453474532303844 $264 43.453474532303844 $185 $267 forward 7 unknown #
coedge $-1 $198 $197 $125 $191 reversed $182 $-1 #
edge $-1 $268 -43.453474532303844 $192 43.453474532303844 $190 $269 forward 7 unknown #
vertex $-1 $127 $270 #
vertex $-1 $204 $271 #
straight-curve $-1 43.453474532303844 0 -14.237928174100075 0 -1 0 I I #
coedge $-1 $184 $186 $128 $196 reversed $121 $-1 #
edge $-1 $199 -30.143320011419195 $202 30.143320011419195 $195 $272 forward 7 unknown #
coedge $-1 $190 $129 $134 $205 forward $182 $-1 #
coedge $-1 $129 $190 $184 $263 reversed $182 $-1 #
vertex $-1 $130 $273 #
straight-curve $-1 0 30.143320011419195 14.237928174100075 -1 0 0 I I #
coedge $-1 $131 $185 $133 $204 reversed $76 $-1 #
vertex $-1 $196 $274 #
straight-curve $-1 0 -30.143320011419195 14.237928174100075 1 0 0 I I #
edge $-1 $136 -14.237928174100075 $193 14.237928174100075 $133 $275 forward 7 unknown #
edge $-1 $137 -14.237928174100075 $192 14.237928174100075 $134 $276 forward 7 unknown #
point $-1 43.453474532303844 -30.143320011419195 14.237928174100075 #
point $-1 43.453474532303844 30.143320011419195 14.237928174100075 #
face $-1 $-1 $277 $19 $-1 $278 reversed single #
loop $-1 $-1 $279 $139 #
plane-surface $-1 0 0 -14.237928174100075 0 0 1 1 0 0 forward_v I I I I #
coedge $-1 $218 $228 $213 $280 forward $140 $-1 #
coedge $-1 $145 $142 $279 $281 reversed $84 $-1 #
coedge $-1 $142 $145 $211 $280 reversed $84 $-1 #
coedge $-1 $282 $283 $142 $215 forward $277 $-1 #
edge $-1 $284 -14.237928174100075 $285 14.237928174100075 $214 $286 forward 7 unknown #
coedge $-1 $279 $148 $143 $217 forward $209 $-1 #
edge $-1 $153 -16.56605916430625 $221 -8.1102063290261661 $216 $287 forward 7 unknown #
coedge $-1 $150 $211 $144 $219 forward $140 $-1 #
edge $-1 $220 8.1102063290261661 $152 16.56605916430625 $218 $288 forward 7 unknown #
vertex $-1 $219 $289 #
vertex $-1 $217 $290 #
straight-curve $-1 -20.448339075692374 -19.114202926092592 0 0 0 -1 I I #
coedge $-1 $283 $282 $147 $224 forward $277 $-1 #
edge $-1 $229 -14.237928174100075 $226 14.237928174100075 $223 $291 forward 7 unknown #
coedge $-1 $148 $279 $283 $292 forward $209 $-1 #
vertex $-1 $149 $293 #
straight-curve $-1 -28.904191910972457 -12.314380734377947 -14.237928174100075 0 1 0 I I #
coedge $-1 $211 $150 $282 $294 forward $140 $-1 #
vertex $-1 $294 $295 #
straight-curve $-1 -28.904191910972457 -12.314380734377947 14.237928174100075 0 -1 0 I I #
point $-1 -28.904191910972457 -19.114202926092592 14.237928174100075 #
point $-1 -28.904191910972457 -19.114202926092592 -14.237928174100075 #
loop $-1 $-1 $162 $155 #
plane-surface $-1 0 0 14.237928174100075 0 0 1 1 0 0 forward_v I I I I #
coedge $-1 $296 $297 $159 $237 forward $156 $-1 #
coedge $-1 $159 $158 $242 $298 reversed $57 $-1 #
edge $-1 $239 -55.992285320737871 $299 -42.269002934929674 $235 $300 forward 7 unknown #
coedge $-1 $165 $160 $297 $301 reversed $92 $-1 #
vertex $-1 $237 $302 #
straight-curve $-1 43.453474532303844 13.417635447259917 3.7252838473792522 0 1 0 I I #
coedge $-1 $303 $162 $165 $246 forward $233 $-1 #
coedge $-1 $162 $303 $236 $298 forward $233 $-1 #
vertex $-1 $163 $304 #
straight-curve $-1 27.082675727854735 23.527221777620465 14.237928174100077 1 0 0 I I #
straight-curve $-1 -12.409234663823952 23.527221777620465 70.299869966912667 -0.64278759981090561 0 0.7660444514056185 I I #
edge $-1 $166 23.527221777620465 $305 30.143320011419195 $165 $306 forward 7 unknown #
point $-1 43.453474532303844 23.527221777620465 14.237928174100075 #
point $-1 43.453474532303844 23.527221777620465 3.7252838473792593 #
edge $-1 $307 1 $307 0 $169 $-1 forward 7 unknown #
vertex $-1 $170 $308 #
ellipse-curve $-1 38.056673166537436 24.850441424380211 8.154066263493231 0.7660444514056185 0 0.64278759981090561 0.3213937999054528 0 -0.38302222570280925 1 I I #
point $-1 39.364290459058815 24.850441424380211 8.5985837850368281 #
edge $-1 $309 1 $309 0 $173 $-1 forward 7 unknown #
vertex $-1 $174 $310 #
ellipse-curve $-1 38.056673166537436 26.835270894519834 8.154066263493231 0.7660444514056185 0 0.64278759981090561 0.3213937999054528 0 -0.38302222570280925 1 I I #
point $-1 39.364290459058815 26.835270894519834 8.5985837850368281 #
edge $-1 $311 1 $311 0 $177 $-1 forward 7 unknown #
vertex $-1 $178 $312 #
ellipse-curve $-1 38.056673166537436 28.820100364659456 8.154066263493231 0.7660444514056185 0 0.64278759981090561 0.3213937999054528 0 -0.38302222570280925 1 I I #
point $-1 39.364290459058815 28.820100364659456 8.5985837850368281 #
plane-surface $-1 43.453474532303844 0 0 -1 0 0 0 0 1 forward_v I I I I #
coedge $-1 $186 $184 $188 $266 reversed $121 $-1 #
edge $-1 $199 -14.237928174100075 $268 14.237928174100075 $198 $313 forward 7 unknown #
vertex $-1 $266 $314 #
straight-curve $-1 -43.453474532303844 -30.143320011419195 0 0 0 -1 I I #
edge $-1 $264 -30.143320011419195 $268 30.143320011419195 $262 $315 forward 7 unknown #
straight-curve $-1 0 -30.143320011419195 -14.237928174100075 -1 0 0 I I #
vertex $-1 $191 $316 #
straight-curve $-1 0 30.143320011419195 -14.237928174100075 1 0 0 I I #
point $-1 43.453474532303844 30.143320011419195 -14.237928174100075 #
point $-1 43.453474532303844 -30.143320011419195 -14.237928174100075 #
straight-curve $-1 -43.453474532303844 0 14.237928174100075 0 -1 0 I I #
point $-1 -43.453474532303844 30.143320011419195 14.237928174100075 #
point $-1 -43.453474532303844 -30.143320011419195 14.237928174100075 #
straight-curve $-1 43.453474532303844 -30.143320011419195 0 0 0 -1 I I #
straight-curve $-1 43.453474532303844 30.143320011419195 0 0 0 -1 I I #
loop $-1 $-1 $214 $208 #
plane-surface $-1 0 -30.143320011419195 0 0 1 0 0 0 1 forward_v I I I I #
coedge $-1 $225 $216 $212 $281 forward $209 $-1 #
edge $-1 $285 -17.82893927704125 $220 -6.7998221917146449 $211 $317 forward 7 unknown #
edge $-1 $221 6.7998221917146449 $284 17.82893927704125 $279 $318 forward 7 unknown #
coedge $-1 $223 $214 $228 $294 reversed $277 $-1 #
coedge $-1 $214 $223 $225 $292 reversed $277 $-1 #
vertex $-1 $292 $319 #
vertex $-1 $215 $320 #
straight-curve $-1 -20.448339075692374 -30.143320011419195 0 0 0 1 I I #
straight-curve $-1 -12.338132746666208 -19.114202926092592 -14.237928174100075 1 0 0 I I #
straight-curve $-1 -12.338132746666208 -19.114202926092592 14.237928174100075 -1 0 0 I I #
point $-1 -20.448339075692374 -19.114202926092592 14.237928174100075 #
point $-1 -20.448339075692374 -19.114202926092592 -14.237928174100075 #
straight-curve $-1 -28.904191910972457 -30.143320011419195 0 0 0 -1 I I #
edge $-1 $284 20.448339075692374 $226 28.904191910972457 $283 $321 forward 7 unknown #
point $-1 -28.904191910972457 -30.143320011419195 -14.237928174100075 #
edge $-1 $229 -28.904191910972457 $285 -20.448339075692374 $282 $322 forward 7 unknown #
point $-1 -28.904191910972457 -30.143320011419195 14.237928174100075 #
coedge $-1 $297 $235 $303 $323 reversed $156 $-1 #
coedge $-1 $235 $296 $238 $301 forward $156 $-1 #
edge $-1 $299 -16.725684564159288 $243 -10.109586330360548 $242 $324 forward 7 unknown #
vertex $-1 $237 $325 #
straight-curve $-1 7.4623278430593505 30.143320011419195 46.617863338850754 -0.64278759981090572 0 0.76604445140561861 I I #
edge $-1 $305 -14.237928174100075 $239 -3.72528384737925 $238 $326 forward 7 unknown #
point $-1 43.453474532303844 30.143320011419195 3.72528384737925 #
coedge $-1 $242 $241 $296 $323 forward $233 $-1 #
point $-1 34.632318786002919 23.527221777620465 14.237928174100077 #
vertex $-1 $246 $327 #
straight-curve $-1 43.453474532303844 0 14.237928174100075 0 1 0 I I #
vertex $-1 $249 $328 #
point $-1 38.378066966442894 24.850441424380211 7.7710440377904213 #
vertex $-1 $253 $329 #
point $-1 38.378066966442894 26.835270894519834 7.7710440377904213 #
vertex $-1 $257 $330 #
point $-1 38.378066966442894 28.820100364659456 7.7710440377904213 #
straight-curve $-1 -43.453474532303844 30.143320011419195 0 0 0 -1 I I #
point $-1 -43.453474532303844 -30.143320011419195 -14.237928174100075 #
straight-curve $-1 -43.453474532303844 0 -14.237928174100075 0 1 0 I I #
point $-1 -43.453474532303844 30.143320011419195 -14.237928174100075 #
straight-curve $-1 -20.448339075692374 -12.314380734377947 14.237928174100075 0 1 0 I I #
straight-curve $-1 -20.448339075692374 -12.314380734377947 -14.237928174100075 0 -1 0 I I #
point $-1 -20.448339075692374 -30.143320011419195 -14.237928174100075 #
point $-1 -20.448339075692374 -30.143320011419195 14.237928174100075 #
straight-curve $-1 0 -30.143320011419195 -14.237928174100075 -1 0 0 I I #
straight-curve $-1 0 -30.143320011419195 14.237928174100075 1 0 0 I I #
edge $-1 $305 -43.453474532303844 $299 -34.632318786002919 $296 $331 forward 7 unknown #
straight-curve $-1 34.632318786002912 13.417635447259917 14.237928174100077 0 -1 0 I I #
point $-1 34.632318786002919 30.143320011419203 14.237928174100077 #
straight-curve $-1 43.453474532303844 30.143320011419195 0 0 0 -1 I I #
point $-1 43.453474532303844 30.143320011419195 14.237928174100075 #
point $-1 37.673650940834634 24.850441424380211 7.8326724635877776 #
point $-1 37.673650940834634 26.835270894519834 7.8326724635877776 #
point $-1 37.673650940834634 28.820100364659456 7.8326724635877776 #
straight-curve $-1 0 30.143320011419195 14.237928174100075 -1 0 0 I I #
End-of-ACIS-data 