500 0 9 0           
7 Unknown 11 ACIS 5.0 NT 24 Thu Mar 25 16:07:55 1999 
-1 9.9999999999999995e-007 1e-010 
body $-1 $9 $-1 $10 #
body $-1 $11 $-1 $12 #
body $-1 $13 $-1 $14 #
body $-1 $15 $-1 $16 #
body $-1 $17 $-1 $18 #
body $-1 $19 $-1 $20 #
body $-1 $21 $-1 $22 #
body $-1 $23 $-1 $24 #
body $-1 $25 $-1 $26 #
lump $-1 $-1 $27 $0 #
transform $-1 1 0 0 0 1 0 0 0 1 45.53361613818781 27.771378678550661 11.921512878581915 1 rotate no_reflect no_shear #
lump $-1 $-1 $28 $1 #
transform $-1 1 0 0 0 1 0 0 0 1 45.53361613818781 27.771378678550661 11.921512878581915 1 rotate no_reflect no_shear #
lump $-1 $-1 $29 $2 #
transform $-1 1 0 0 0 1 0 0 0 1 45.53361613818781 27.771378678550661 11.921512878581915 1 rotate no_reflect no_shear #
lump $-1 $-1 $30 $3 #
transform $-1 1 0 0 0 1 0 0 0 1 45.53361613818781 27.771378678550661 11.921512878581915 1 rotate no_reflect no_shear #
lump $-1 $-1 $31 $4 #
transform $-1 1 0 0 0 1 0 0 0 1 45.53361613818781 27.771378678550661 11.921512878581915 1 rotate no_reflect no_shear #
lump $-1 $-1 $32 $5 #
transform $-1 1 0 0 0 1 0 0 0 1 45.53361613818781 27.771378678550661 11.921512878581915 1 rotate no_reflect no_shear #
lump $-1 $-1 $33 $6 #
transform $-1 1 0 0 0 1 0 0 0 1 45.53361613818781 27.771378678550661 11.921512878581915 1 rotate no_reflect no_shear #
lump $-1 $-1 $34 $7 #
transform $-1 1 0 0 0 1 0 0 0 1 45.53361613818781 27.771378678550661 11.921512878581915 1 rotate no_reflect no_shear #
lump $-1 $-1 $35 $8 #
transform $-1 1 0 0 0 1 0 0 0 1 45.53361613818781 27.771378678550661 11.921512878581915 1 rotate no_reflect no_shear #
shell $-1 $-1 $-1 $36 $-1 $9 #
shell $-1 $-1 $-1 $37 $-1 $11 #
shell $-1 $-1 $-1 $38 $-1 $13 #
shell $-1 $-1 $-1 $39 $-1 $15 #
shell $-1 $-1 $-1 $40 $-1 $17 #
shell $-1 $-1 $-1 $41 $-1 $19 #
shell $-1 $-1 $-1 $42 $-1 $21 #
shell $-1 $-1 $-1 $43 $-1 $23 #
shell $-1 $-1 $-1 $44 $-1 $25 #
face $-1 $45 $46 $27 $-1 $47 forward single #
face $-1 $48 $49 $28 $-1 $50 forward single #
face $-1 $51 $52 $29 $-1 $53 reversed single #
face $-1 $54 $55 $30 $-1 $56 forward single #
face $-1 $57 $58 $31 $-1 $59 forward single #
face $-1 $60 $61 $32 $-1 $62 forward single #
face $-1 $63 $64 $33 $-1 $65 reversed single #
face $-1 $66 $67 $34 $-1 $68 forward single #
face $-1 $69 $70 $35 $-1 $71 forward single #
face $-1 $72 $73 $27 $-1 $74 reversed single #
loop $-1 $-1 $75 $36 #
plane-surface $-1 0 0 11.921512878581915 0 0 1 1 0 0 forward_v I I I I #
face $-1 $76 $77 $28 $-1 $78 reversed single #
loop $-1 $-1 $79 $37 #
plane-surface $-1 0 -27.771378678550661 0 0 1 0 0 0 1 forward_v I I I I #
face $-1 $80 $81 $29 $-1 $82 reversed single #
loop $-1 $-1 $83 $38 #
plane-surface $-1 -102.84408307783926 4.4076592907514112 76.062489816655216 0 1 0 -0.62932039886446345 0 0.77714595512881146 forward_v I I I I #
face $-1 $84 $85 $30 $-1 $86 forward single #
loop $-1 $87 $88 $39 #
cone-surface $-1 -40.953562030345033 6.7973423690195602 8.006303788424491 0.62932039886446345 0 -0.77714595512881146 0.77714595512881146 0 0.62932039886446345 1 I I 0 1 1 forward I I I I #
face $-1 $89 $90 $31 $-1 $91 forward single #
loop $-1 $92 $93 $40 #
cone-surface $-1 -40.953562030345033 10.381866986421791 8.006303788424491 0.62932039886446345 0 -0.77714595512881146 0.77714595512881146 0 0.62932039886446345 1 I I 0 1 1 forward I I I I #
face $-1 $94 $95 $32 $-1 $96 forward single #
loop $-1 $97 $98 $41 #
cone-surface $-1 -40.953562030345033 13.966391603824022 8.006303788424491 0.62932039886446345 0 -0.77714595512881146 0.77714595512881146 0 0.62932039886446345 1 I I 0 1 1 forward I I I I #
face $-1 $99 $100 $33 $-1 $101 reversed single #
loop $-1 $-1 $102 $42 #
plane-surface $-1 14.376855463258345 15.349962917057173 125.67684120469909 0 -1 0 -0.51503808176128008 0 -0.85716729658548041 forward_v I I I I #
face $-1 $103 $104 $34 $-1 $105 forward single #
loop $-1 $106 $107 $43 #
cone-surface $-1 35.822428731060562 9.7636867826581337 5.6771502616115956 -0.51503808176128008 0 -0.85716729658548041 0.85716729658548041 0 -0.51503808176128008 1 I I 0 1 1 forward I I I I #
face $-1 $108 $109 $35 $-1 $110 forward single #
loop $-1 $111 $112 $44 #
cone-surface $-1 35.822428731060562 13.115452463297558 5.6771502616115956 -0.51503808176128008 0 -0.85716729658548041 0.85716729658548041 0 -0.51503808176128008 1 I I 0 1 1 forward I I I I #
face $-1 $113 $114 $27 $-1 $115 reversed single #
loop $-1 $-1 $116 $45 #
plane-surface $-1 0 0 -11.921512878581915 0 0 1 1 0 0 forward_v I I I I #
coedge $-1 $117 $118 $119 $120 forward $46 $-1 #
face $-1 $121 $122 $28 $-1 $123 reversed single #
loop $-1 $-1 $124 $48 #
plane-surface $-1 0 0 -11.921512878581915 0 0 1 1 0 0 forward_v I I I I #
coedge $-1 $125 $126 $127 $128 forward $49 $-1 #
face $-1 $129 $130 $29 $-1 $131 reversed single #
loop $-1 $-1 $132 $51 #
plane-surface $-1 -45.53361613818781 10.381866986421791 5.2899586082939578 -0.62932039886446345 0 0.77714595512881146 0.77714595512881146 0 0.62932039886446345 forward_v I I I I #
coedge $-1 $133 $134 $135 $136 reversed $52 $-1 #
face $-1 $-1 $137 $30 $-1 $138 forward single #
loop $-1 $139 $140 $54 #
cone-surface $-1 -40.15349139477582 6.7973423690195602 7.0182988558466377 0.62932039886446345 0 -0.77714595512881146 0.38857297756440573 0 0.31466019943223172 1 I I -0.70710678118654746 0.70710678118654746 0.5 forward I I I I #
loop $-1 $-1 $141 $39 #
coedge $-1 $88 $88 $142 $143 reversed $55 $-1 #
face $-1 $-1 $144 $31 $-1 $145 forward single #
loop $-1 $146 $147 $57 #
cone-surface $-1 -40.15349139477582 10.381866986421791 7.0182988558466377 0.62932039886446345 0 -0.77714595512881146 0.38857297756440573 0 0.31466019943223172 1 I I -0.70710678118654746 0.70710678118654746 0.5 forward I I I I #
loop $-1 $-1 $148 $40 #
coedge $-1 $93 $93 $149 $150 reversed $58 $-1 #
face $-1 $-1 $151 $32 $-1 $152 forward single #
loop $-1 $153 $154 $60 #
cone-surface $-1 -40.15349139477582 13.966391603824022 7.0182988558466377 0.62932039886446345 0 -0.77714595512881146 0.38857297756440573 0 0.31466019943223172 1 I I -0.70710678118654746 0.70710678118654746 0.5 forward I I I I #
loop $-1 $-1 $155 $41 #
coedge $-1 $98 $98 $156 $157 reversed $61 $-1 #
face $-1 $158 $159 $33 $-1 $160 reversed single #
loop $-1 $-1 $161 $63 #
plane-surface $-1 -32.526237159675084 11.439569622977842 47.616987906836187 0.51503808176128008 0 0.85716729658548041 0.85716729658548041 0 -0.51503808176128008 forward_v I I I I #
coedge $-1 $162 $163 $164 $165 reversed $64 $-1 #
face $-1 $-1 $166 $34 $-1 $167 forward single #
loop $-1 $168 $169 $66 #
cone-surface $-1 35.180026118627822 9.7636867826581337 4.6080127936881183 -0.51503808176128008 0 -0.85716729658548041 0.4285836482927402 0 -0.25751904088064004 1 I I -0.70710678118654746 0.70710678118654746 0.5 forward I I I I #
loop $-1 $-1 $170 $43 #
coedge $-1 $107 $107 $171 $172 reversed $67 $-1 #
face $-1 $-1 $173 $35 $-1 $174 forward single #
loop $-1 $175 $176 $69 #
cone-surface $-1 35.180026118627822 13.115452463297558 4.6080127936881183 -0.51503808176128008 0 -0.85716729658548041 0.4285836482927402 0 -0.25751904088064004 1 I I -0.70710678118654746 0.70710678118654746 0.5 forward I I I I #
loop $-1 $-1 $177 $44 #
coedge $-1 $112 $112 $178 $179 reversed $70 $-1 #
face $-1 $180 $181 $27 $-1 $182 reversed single #
loop $-1 $-1 $183 $72 #
plane-surface $-1 0 -27.771378678550661 0 0 1 0 0 0 1 forward_v I I I I #
coedge $-1 $184 $185 $186 $187 forward $73 $-1 #
coedge $-1 $188 $75 $189 $190 forward $46 $-1 #
coedge $-1 $75 $188 $191 $192 forward $46 $-1 #
coedge $-1 $193 $194 $75 $120 reversed $195 $-1 #
edge $-1 $196 -27.771378678550661 $197 27.771378678550661 $119 $198 forward 7 unknown #
face $-1 $199 $200 $28 $-1 $201 reversed single #
loop $-1 $-1 $202 $76 #
plane-surface $-1 -23.722381166583865 -39.988733684336466 0 0 1 0 0 0 1 forward_v I I I I #
coedge $-1 $203 $204 $126 $205 forward $77 $-1 #
coedge $-1 $206 $79 $207 $208 reversed $49 $-1 #
coedge $-1 $79 $206 $124 $205 reversed $49 $-1 #
coedge $-1 $209 $210 $79 $128 reversed $200 $-1 #
edge $-1 $211 -11.921512878581915 $212 11.921512878581915 $127 $213 forward 7 unknown #
face $-1 $214 $215 $29 $-1 $216 reversed single #
loop $-1 $-1 $217 $80 #
plane-surface $-1 -102.84408307783926 16.356074682092171 76.062489816655216 0 -1 0 0.62932039886446345 0 -0.77714595512881146 forward_v I I I I #
coedge $-1 $218 $219 $220 $221 reversed $81 $-1 #
coedge $-1 $134 $83 $222 $223 reversed $52 $-1 #
coedge $-1 $83 $133 $218 $224 reversed $52 $-1 #
coedge $-1 $220 $225 $83 $136 forward $226 $-1 #
edge $-1 $227 5.8884254007318191 $228 14.077712744143405 $135 $229 forward 7 unknown #
loop $-1 $-1 $142 $84 #
plane-surface $-1 -45.53361613818781 10.381866986421791 5.2899586082939578 -0.62932039886446345 0 0.77714595512881146 0.77714595512881146 0 0.62932039886446345 forward_v I I I I #
loop $-1 $-1 $230 $54 #
coedge $-1 $140 $140 $141 $231 reversed $85 $-1 #
coedge $-1 $141 $141 $140 $231 forward $87 $-1 #
coedge $-1 $142 $142 $88 $143 forward $137 $-1 #
edge $-1 $232 0 $232 6.2831853071796004 $142 $233 forward 7 unknown #
loop $-1 $-1 $149 $89 #
plane-surface $-1 -45.53361613818781 10.381866986421791 5.2899586082939578 -0.62932039886446345 0 0.77714595512881146 0.77714595512881146 0 0.62932039886446345 forward_v I I I I #
loop $-1 $-1 $234 $57 #
coedge $-1 $147 $147 $148 $235 reversed $90 $-1 #
coedge $-1 $148 $148 $147 $235 forward $92 $-1 #
coedge $-1 $149 $149 $93 $150 forward $144 $-1 #
edge $-1 $236 0 $236 6.2831853071796004 $149 $237 forward 7 unknown #
loop $-1 $-1 $156 $94 #
plane-surface $-1 -45.53361613818781 10.381866986421791 5.2899586082939578 -0.62932039886446345 0 0.77714595512881146 0.77714595512881146 0 0.62932039886446345 forward_v I I I I #
loop $-1 $-1 $238 $60 #
coedge $-1 $154 $154 $155 $239 reversed $95 $-1 #
coedge $-1 $155 $155 $154 $239 forward $97 $-1 #
coedge $-1 $156 $156 $98 $157 forward $151 $-1 #
edge $-1 $240 0 $240 6.2831853071796004 $156 $241 forward 7 unknown #
face $-1 $242 $243 $33 $-1 $244 forward single #
loop $-1 $-1 $245 $99 #
plane-surface $-1 14.376855463258345 7.5291763288985116 125.67684120469909 0 1 0 0.51503808176128008 0 0.85716729658548041 forward_v I I I I #
coedge $-1 $246 $247 $248 $249 reversed $100 $-1 #
coedge $-1 $163 $102 $250 $251 reversed $64 $-1 #
coedge $-1 $102 $162 $246 $252 reversed $64 $-1 #
coedge $-1 $248 $253 $102 $165 forward $243 $-1 #
edge $-1 $254 -38.345188406558634 $255 -19.692580735408317 $164 $256 forward 7 unknown #
loop $-1 $-1 $171 $103 #
plane-surface $-1 -32.526237159675084 11.439569622977842 47.616987906836187 0.51503808176128008 0 0.85716729658548041 0.85716729658548041 0 -0.51503808176128008 forward_v I I I I #
loop $-1 $-1 $257 $66 #
coedge $-1 $169 $169 $170 $258 reversed $104 $-1 #
coedge $-1 $170 $170 $169 $258 forward $106 $-1 #
coedge $-1 $171 $171 $107 $172 forward $166 $-1 #
edge $-1 $259 0 $259 6.2831853071796004 $171 $260 forward 7 unknown #
loop $-1 $-1 $178 $108 #
plane-surface $-1 -32.526237159675084 11.439569622977842 47.616987906836187 0.51503808176128008 0 0.85716729658548041 0.85716729658548041 0 -0.51503808176128008 forward_v I I I I #
loop $-1 $-1 $261 $69 #
coedge $-1 $176 $176 $177 $262 reversed $109 $-1 #
coedge $-1 $177 $177 $176 $262 forward $111 $-1 #
coedge $-1 $178 $178 $112 $179 forward $173 $-1 #
edge $-1 $263 0 $263 6.2831853071796004 $178 $264 forward 7 unknown #
face $-1 $265 $266 $27 $-1 $267 reversed single #
loop $-1 $-1 $268 $113 #
plane-surface $-1 -45.53361613818781 0 0 1 0 0 0 0 -1 forward_v I I I I #
coedge $-1 $269 $191 $270 $271 forward $114 $-1 #
coedge $-1 $272 $116 $269 $273 forward $73 $-1 #
coedge $-1 $116 $272 $274 $275 forward $73 $-1 #
coedge $-1 $194 $193 $116 $187 reversed $195 $-1 #
edge $-1 $276 -27.771378678550661 $277 27.771378678550661 $186 $278 forward 7 unknown #
coedge $-1 $118 $117 $279 $280 forward $46 $-1 #
coedge $-1 $281 $282 $117 $190 reversed $266 $-1 #
edge $-1 $197 -45.53361613818781 $283 45.53361613818781 $189 $284 forward 7 unknown #
coedge $-1 $183 $285 $118 $192 reversed $114 $-1 #
edge $-1 $286 -45.53361613818781 $196 45.53361613818781 $191 $287 forward 7 unknown #
coedge $-1 $186 $119 $285 $288 forward $195 $-1 #
coedge $-1 $119 $186 $281 $289 reversed $195 $-1 #
loop $-1 $-1 $193 $265 #
vertex $-1 $120 $290 #
vertex $-1 $120 $291 #
straight-curve $-1 45.53361613818781 0 11.921512878581915 0 1 0 I I #
face $-1 $292 $293 $28 $-1 $294 reversed single #
loop $-1 $-1 $127 $121 #
plane-surface $-1 -25.75417195214375 -33.880056181443564 0 1 0 0 0 0 -1 forward_v I I I I #
coedge $-1 $295 $296 $297 $298 forward $122 $-1 #
coedge $-1 $299 $124 $300 $301 forward $77 $-1 #
coedge $-1 $124 $299 $209 $302 forward $77 $-1 #
edge $-1 $211 -25.75417195214375 $303 -21.690590381023981 $124 $304 forward 7 unknown #
coedge $-1 $126 $125 $305 $306 forward $49 $-1 #
coedge $-1 $307 $308 $125 $208 forward $309 $-1 #
edge $-1 $310 21.690590381023981 $212 25.75417195214375 $207 $311 forward 7 unknown #
coedge $-1 $297 $127 $204 $302 reversed $200 $-1 #
coedge $-1 $127 $297 $307 $312 reversed $200 $-1 #
vertex $-1 $205 $313 #
vertex $-1 $312 $314 #
straight-curve $-1 -25.75417195214375 -27.771378678550661 0 0 0 1 I I #
face $-1 $-1 $226 $29 $-1 $315 forward single #
loop $-1 $-1 $316 $129 #
plane-surface $-1 -45.53361613818781 0 0 1 0 0 0 0 -1 forward_v I I I I #
coedge $-1 $317 $318 $319 $320 reversed $130 $-1 #
coedge $-1 $321 $132 $134 $224 forward $81 $-1 #
coedge $-1 $132 $321 $317 $322 forward $81 $-1 #
coedge $-1 $319 $135 $132 $221 forward $226 $-1 #
edge $-1 $228 -0.78327420245948431 $323 11.165141188881275 $220 $324 forward 7 unknown #
coedge $-1 $325 $326 $133 $223 forward $215 $-1 #
edge $-1 $327 -32.74128630003365 $227 -26.109732029745693 $222 $328 forward 7 unknown #
edge $-1 $228 -10.537643912788837 $327 0 $134 $329 forward 7 unknown #
coedge $-1 $135 $319 $325 $330 forward $226 $-1 #
loop $-1 $-1 $319 $214 #
vertex $-1 $223 $331 #
vertex $-1 $136 $332 #
straight-curve $-1 -51.422041538919629 4.4076592907514112 11.921512878581915 1 0 0 I I #
coedge $-1 $230 $230 $-1 $333 reversed $139 $-1 #
edge $-1 $334 0 $334 6.2831853071796004 $140 $335 forward 7 unknown #
vertex $-1 $143 $336 #
ellipse-curve $-1 -41.438972466482014 6.7973423690195602 8.605735743437938 -0.62932039886446345 0 0.77714595512881146 0.77714595512881146 0 0.62932039886446345 1 I I #
coedge $-1 $234 $234 $-1 $337 reversed $146 $-1 #
edge $-1 $338 0 $338 6.2831853071796004 $147 $339 forward 7 unknown #
vertex $-1 $150 $340 #
ellipse-curve $-1 -41.438972466482014 10.381866986421791 8.605735743437938 -0.62932039886446345 0 0.77714595512881146 0.77714595512881146 0 0.62932039886446345 1 I I #
coedge $-1 $238 $238 $-1 $341 reversed $153 $-1 #
edge $-1 $342 0 $342 6.2831853071796004 $154 $343 forward 7 unknown #
vertex $-1 $157 $344 #
ellipse-curve $-1 -41.438972466482014 13.966391603824022 8.605735743437938 -0.62932039886446345 0 0.77714595512881146 0.77714595512881146 0 0.62932039886446345 1 I I #
face $-1 $-1 $345 $33 $-1 $346 reversed single #
loop $-1 $-1 $164 $158 #
plane-surface $-1 0 0 11.921512878581915 0 0 1 1 0 0 forward_v I I I I #
coedge $-1 $347 $348 $349 $350 reversed $159 $-1 #
coedge $-1 $351 $161 $163 $252 forward $100 $-1 #
coedge $-1 $161 $351 $347 $352 forward $100 $-1 #
coedge $-1 $349 $164 $161 $249 forward $243 $-1 #
edge $-1 $255 -9.6301781055682518 $353 -1.8093915174095905 $248 $354 forward 7 unknown #
coedge $-1 $355 $356 $162 $251 forward $345 $-1 #
edge $-1 $357 -62.124525318446786 $254 -50.916907723767629 $250 $358 forward 7 unknown #
edge $-1 $255 69.306477117548567 $357 91.06723227637562 $163 $359 forward 7 unknown #
coedge $-1 $164 $349 $355 $360 forward $243 $-1 #
vertex $-1 $165 $361 #
vertex $-1 $165 $362 #
straight-curve $-1 7.1884277316291723 15.349962917057173 11.921512878581915 -1 0 0 I I #
coedge $-1 $257 $257 $-1 $363 reversed $168 $-1 #
edge $-1 $364 0 $364 6.2831853071796004 $169 $365 forward 7 unknown #
vertex $-1 $172 $366 #
ellipse-curve $-1 36.207312302612657 9.7636867826581337 6.3177040812423328 0.51503808176128008 0 0.85716729658548041 0.85716729658548041 0 -0.51503808176128008 1 I I #
coedge $-1 $261 $261 $-1 $367 reversed $175 $-1 #
edge $-1 $368 0 $368 6.2831853071796004 $176 $369 forward 7 unknown #
vertex $-1 $179 $370 #
ellipse-curve $-1 36.207312302612657 13.115452463297558 6.3177040812423328 0.51503808176128008 0 0.85716729658548041 0.85716729658548041 0 -0.51503808176128008 1 I I #
face $-1 $-1 $195 $27 $-1 $371 reversed single #
loop $-1 $-1 $281 $180 #
plane-surface $-1 0 27.771378678550661 0 0 -1 0 0 0 -1 forward_v I I I I #
coedge $-1 $372 $279 $282 $373 forward $181 $-1 #
coedge $-1 $285 $183 $184 $273 reversed $114 $-1 #
coedge $-1 $279 $372 $183 $271 reversed $181 $-1 #
edge $-1 $286 -11.921512878581915 $374 11.921512878581915 $270 $375 forward 7 unknown #
coedge $-1 $185 $184 $372 $376 forward $73 $-1 #
edge $-1 $277 -45.53361613818781 $374 45.53361613818781 $269 $377 forward 7 unknown #
coedge $-1 $282 $281 $185 $275 reversed $266 $-1 #
edge $-1 $378 -45.53361613818781 $276 45.53361613818781 $274 $379 forward 7 unknown #
vertex $-1 $187 $380 #
vertex $-1 $288 $381 #
straight-curve $-1 45.53361613818781 0 -11.921512878581915 0 -1 0 I I #
coedge $-1 $268 $270 $188 $280 reversed $181 $-1 #
edge $-1 $283 -27.771378678550661 $286 27.771378678550661 $279 $382 forward 7 unknown #
coedge $-1 $274 $189 $194 $289 forward $266 $-1 #
coedge $-1 $189 $274 $268 $373 reversed $266 $-1 #
vertex $-1 $190 $383 #
straight-curve $-1 0 27.771378678550661 11.921512878581915 -1 0 0 I I #
coedge $-1 $191 $269 $193 $288 reversed $114 $-1 #
vertex $-1 $280 $384 #
straight-curve $-1 0 -27.771378678550661 11.921512878581915 1 0 0 I I #
edge $-1 $196 -11.921512878581915 $277 11.921512878581915 $193 $385 forward 7 unknown #
edge $-1 $197 -11.921512878581915 $276 11.921512878581915 $194 $386 forward 7 unknown #
point $-1 45.53361613818781 -27.771378678550661 11.921512878581915 #
point $-1 45.53361613818781 27.771378678550661 11.921512878581915 #
face $-1 $-1 $309 $28 $-1 $387 forward single #
loop $-1 $-1 $388 $199 #
plane-surface $-1 -21.690590381023981 -33.880056181443564 0 -1 0 0 0 0 1 forward_v I I I I #
coedge $-1 $389 $202 $299 $390 reversed $122 $-1 #
coedge $-1 $202 $389 $391 $392 reversed $122 $-1 #
coedge $-1 $210 $209 $202 $298 reversed $200 $-1 #
edge $-1 $393 -11.921512878581915 $394 11.921512878581915 $297 $395 forward 7 unknown #
coedge $-1 $204 $203 $295 $390 forward $77 $-1 #
coedge $-1 $305 $388 $203 $301 reversed $293 $-1 #
edge $-1 $303 -6.1086775028929061 $396 6.1086775028929026 $300 $397 forward 7 unknown #
edge $-1 $394 -6.1086775028929026 $211 6.1086775028929061 $209 $398 forward 7 unknown #
vertex $-1 $301 $399 #
straight-curve $-1 0 -27.771378678550661 -11.921512878581915 1 0 0 I I #
coedge $-1 $400 $300 $206 $306 reversed $293 $-1 #
edge $-1 $310 -11.921512878581915 $303 11.921512878581915 $305 $401 forward 7 unknown #
coedge $-1 $391 $207 $210 $312 forward $309 $-1 #
coedge $-1 $207 $391 $400 $402 forward $309 $-1 #
loop $-1 $-1 $207 $292 #
vertex $-1 $208 $403 #
straight-curve $-1 0 -27.771378678550661 11.921512878581915 -1 0 0 I I #
edge $-1 $212 -6.1086775028929061 $393 6.1086775028929026 $210 $404 forward 7 unknown #
point $-1 -25.75417195214375 -27.771378678550658 -11.921512878581915 #
point $-1 -25.75417195214375 -27.771378678550658 11.921512878581915 #
plane-surface $-1 0 0 11.921512878581915 0 0 1 1 0 0 forward_v I I I I #
coedge $-1 $326 $325 $318 $405 forward $215 $-1 #
coedge $-1 $318 $217 $219 $322 reversed $130 $-1 #
coedge $-1 $217 $317 $316 $405 reversed $130 $-1 #
coedge $-1 $225 $220 $217 $320 forward $226 $-1 #
edge $-1 $323 -14.077712744143405 $406 -5.8884254007318191 $319 $407 forward 7 unknown #
coedge $-1 $219 $218 $326 $408 reversed $81 $-1 #
edge $-1 $409 0 $323 10.537643912788837 $317 $410 forward 7 unknown #
vertex $-1 $221 $411 #
straight-curve $-1 -37.344328794776217 5.1909334932108955 11.921512878581915 0 1 0 I I #
coedge $-1 $316 $222 $225 $330 reversed $215 $-1 #
coedge $-1 $222 $316 $321 $408 forward $215 $-1 #
vertex $-1 $223 $412 #
straight-curve $-1 -45.53361613818781 4.4076592907514112 38.031244908327608 0 0 1 I I #
straight-curve $-1 -45.53361613818781 4.4076592907514112 5.2899586082939578 -0.77714595512881146 0 -0.62932039886446345 I I #
edge $-1 $406 -16.356074682092171 $227 -4.4076592907514112 $325 $413 forward 7 unknown #
point $-1 -45.53361613818781 4.4076592907514112 11.921512878581915 #
point $-1 -37.344328794776224 4.4076592907514112 11.921512878581915 #
edge $-1 $414 1 $414 0 $230 $-1 forward 7 unknown #
vertex $-1 $231 $415 #
ellipse-curve $-1 -40.468151594208052 6.7973423690195602 7.406871833411043 -0.62932039886446345 0 0.77714595512881146 0.77714595512881146 0 0.62932039886446345 1 I I #
point $-1 -40.661826511353205 6.7973423690195602 9.2350561423023994 #
edge $-1 $416 1 $416 0 $234 $-1 forward 7 unknown #
vertex $-1 $235 $417 #
ellipse-curve $-1 -40.468151594208052 10.381866986421791 7.406871833411043 -0.62932039886446345 0 0.77714595512881146 0.77714595512881146 0 0.62932039886446345 1 I I #
point $-1 -40.661826511353205 10.381866986421791 9.2350561423023994 #
edge $-1 $418 1 $418 0 $238 $-1 forward 7 unknown #
vertex $-1 $239 $419 #
ellipse-curve $-1 -40.468151594208052 13.966391603824022 7.406871833411043 -0.62932039886446345 0 0.77714595512881146 0.77714595512881146 0 0.62932039886446345 1 I I #
point $-1 -40.661826511353205 13.966391603824022 9.2350561423023994 #
loop $-1 $-1 $250 $242 #
plane-surface $-1 45.53361613818781 0 0 -1 0 0 0 0 1 forward_v I I I I #
coedge $-1 $348 $245 $247 $352 reversed $159 $-1 #
coedge $-1 $245 $347 $420 $421 reversed $159 $-1 #
coedge $-1 $253 $248 $245 $350 forward $243 $-1 #
edge $-1 $353 19.692580735408317 $422 38.345188406558634 $349 $423 forward 7 unknown #
coedge $-1 $247 $246 $356 $424 reversed $100 $-1 #
edge $-1 $425 -91.06723227637562 $353 -69.306477117548567 $347 $426 forward 7 unknown #
vertex $-1 $249 $427 #
straight-curve $-1 26.881008467037489 5.7197848114889212 11.921512878581915 0 -1 0 I I #
coedge $-1 $420 $250 $253 $360 reversed $345 $-1 #
coedge $-1 $250 $420 $351 $424 forward $345 $-1 #
vertex $-1 $251 $428 #
straight-curve $-1 45.53361613818781 15.349962917057173 62.838420602349544 0 0 1 I I #
straight-curve $-1 -32.526237159675084 15.349962917057173 47.616987906836187 0.85716729658548041 0 -0.51503808176128008 I I #
edge $-1 $422 7.5291763288985116 $254 15.349962917057173 $355 $429 forward 7 unknown #
point $-1 45.53361613818781 15.349962917057173 11.921512878581915 #
point $-1 26.881008467037489 15.349962917057173 11.921512878581915 #
edge $-1 $430 1 $430 0 $257 $-1 forward 7 unknown #
vertex $-1 $258 $431 #
ellipse-curve $-1 35.43754515950846 9.7636867826581337 5.0365964419808584 0.51503808176128008 0 0.85716729658548041 0.85716729658548041 0 -0.51503808176128008 1 I I #
point $-1 37.064479599198137 9.7636867826581337 5.8026659994810528 #
edge $-1 $432 1 $432 0 $261 $-1 forward 7 unknown #
vertex $-1 $262 $433 #
ellipse-curve $-1 35.43754515950846 13.115452463297558 5.0365964419808584 0.51503808176128008 0 0.85716729658548041 0.85716729658548041 0 -0.51503808176128008 1 I I #
point $-1 37.064479599198137 13.115452463297558 5.8026659994810528 #
plane-surface $-1 45.53361613818781 0 0 -1 0 0 0 0 1 forward_v I I I I #
coedge $-1 $270 $268 $272 $376 reversed $181 $-1 #
edge $-1 $283 -11.921512878581915 $378 11.921512878581915 $282 $434 forward 7 unknown #
vertex $-1 $376 $435 #
straight-curve $-1 -45.53361613818781 -27.771378678550661 0 0 0 -1 I I #
edge $-1 $374 -27.771378678550661 $378 27.771378678550661 $372 $436 forward 7 unknown #
straight-curve $-1 0 -27.771378678550661 -11.921512878581915 -1 0 0 I I #
vertex $-1 $275 $437 #
straight-curve $-1 0 27.771378678550661 -11.921512878581915 1 0 0 I I #
point $-1 45.53361613818781 27.771378678550661 -11.921512878581915 #
point $-1 45.53361613818781 -27.771378678550661 -11.921512878581915 #
straight-curve $-1 -45.53361613818781 0 11.921512878581915 0 -1 0 I I #
point $-1 -45.53361613818781 27.771378678550661 11.921512878581915 #
point $-1 -45.53361613818781 -27.771378678550661 11.921512878581915 #
straight-curve $-1 45.53361613818781 -27.771378678550661 0 0 0 -1 I I #
straight-curve $-1 45.53361613818781 27.771378678550661 0 0 0 -1 I I #
plane-surface $-1 0 0 11.921512878581915 0 0 1 1 0 0 forward_v I I I I #
coedge $-1 $300 $400 $389 $438 forward $293 $-1 #
coedge $-1 $296 $295 $388 $438 reversed $122 $-1 #
edge $-1 $396 -2.0317907855598847 $394 2.0317907855598847 $295 $439 forward 7 unknown #
coedge $-1 $308 $307 $296 $392 forward $309 $-1 #
edge $-1 $393 -2.0317907855598847 $440 2.0317907855598847 $296 $441 forward 7 unknown #
vertex $-1 $312 $442 #
vertex $-1 $302 $443 #
straight-curve $-1 -25.75417195214375 -39.988733684336466 0 0 0 -1 I I #
vertex $-1 $438 $444 #
straight-curve $-1 -21.690590381023981 -33.880056181443564 -11.921512878581915 0 -1 0 I I #
straight-curve $-1 -25.75417195214375 -33.880056181443564 -11.921512878581915 0 1 0 I I #
point $-1 -21.690590381023981 -27.771378678550658 -11.921512878581915 #
coedge $-1 $388 $305 $308 $402 reversed $293 $-1 #
straight-curve $-1 -21.690590381023981 -27.771378678550661 0 0 0 -1 I I #
edge $-1 $440 -6.1086775028929026 $310 6.1086775028929061 $400 $445 forward 7 unknown #
point $-1 -21.690590381023981 -27.771378678550658 11.921512878581915 #
straight-curve $-1 -25.75417195214375 -33.880056181443564 11.921512878581915 0 -1 0 I I #
edge $-1 $406 26.109732029745693 $409 32.74128630003365 $316 $446 forward 7 unknown #
vertex $-1 $330 $447 #
straight-curve $-1 -51.422041538919629 16.356074682092171 11.921512878581915 -1 0 0 I I #
edge $-1 $409 -11.165141188881275 $327 0.78327420245948431 $326 $448 forward 7 unknown #
vertex $-1 $408 $449 #
straight-curve $-1 -45.53361613818781 16.356074682092171 5.2899586082939578 0.77714595512881146 0 0.62932039886446345 I I #
point $-1 -37.344328794776224 16.356074682092171 11.921512878581915 #
point $-1 -45.53361613818781 4.4076592907514112 5.2899586082939578 #
straight-curve $-1 -45.53361613818781 0 11.921512878581915 0 -1 0 I I #
vertex $-1 $333 $450 #
point $-1 -39.691005639079243 6.7973423690195602 8.0361922322755071 #
vertex $-1 $337 $451 #
point $-1 -39.691005639079243 10.381866986421791 8.0361922322755071 #
vertex $-1 $341 $452 #
point $-1 -39.691005639079243 13.966391603824022 8.0361922322755071 #
coedge $-1 $356 $355 $348 $421 forward $345 $-1 #
edge $-1 $422 50.916907723767629 $425 62.124525318446786 $420 $453 forward 7 unknown #
vertex $-1 $360 $454 #
straight-curve $-1 7.1884277316291723 7.5291763288985116 11.921512878581915 1 0 0 I I #
edge $-1 $425 1.8093915174095905 $357 9.6301781055682518 $356 $455 forward 7 unknown #
vertex $-1 $424 $456 #
straight-curve $-1 -32.526237159675084 7.5291763288985116 47.616987906836187 -0.85716729658548041 0 0.51503808176128008 I I #
point $-1 26.881008467037489 7.5291763288985116 11.921512878581915 #
point $-1 45.533616138187817 15.349962917057173 0.71389528390275814 #
straight-curve $-1 45.53361613818781 0 11.921512878581915 0 1 0 I I #
vertex $-1 $363 $457 #
point $-1 36.29471245609394 9.7636867826581337 4.5215583602195784 #
vertex $-1 $367 $458 #
point $-1 36.29471245609394 13.115452463297558 4.5215583602195784 #
straight-curve $-1 -45.53361613818781 27.771378678550661 0 0 0 -1 I I #
point $-1 -45.53361613818781 -27.771378678550661 -11.921512878581915 #
straight-curve $-1 -45.53361613818781 0 -11.921512878581915 0 1 0 I I #
point $-1 -45.53361613818781 27.771378678550661 -11.921512878581915 #
edge $-1 $440 -11.921512878581915 $396 11.921512878581915 $388 $459 forward 7 unknown #
straight-curve $-1 -23.722381166583865 -39.988733684336466 -11.921512878581915 -1 0 0 I I #
vertex $-1 $402 $460 #
straight-curve $-1 -23.722381166583865 -39.988733684336466 11.921512878581915 1 0 0 I I #
point $-1 -25.75417195214375 -39.988733684336466 11.921512878581915 #
point $-1 -25.75417195214375 -39.988733684336466 -11.921512878581915 #
point $-1 -21.690590381023981 -39.988733684336466 -11.921512878581915 #
straight-curve $-1 -21.690590381023981 -33.880056181443564 11.921512878581915 0 1 0 I I #
straight-curve $-1 -45.53361613818781 16.356074682092171 38.031244908327608 0 0 -1 I I #
point $-1 -45.53361613818781 16.356074682092171 11.921512878581915 #
straight-curve $-1 -45.53361613818781 5.1909334932108955 5.2899586082939578 0 -1 0 I I #
point $-1 -45.53361613818781 16.356074682092171 5.2899586082939578 #
point $-1 -39.838831195343587 6.7973423690195602 6.6297258782822324 #
point $-1 -39.838831195343587 10.381866986421791 6.6297258782822324 #
point $-1 -39.838831195343587 13.966391603824022 6.6297258782822324 #
straight-curve $-1 45.53361613818781 7.5291763288985116 62.838420602349544 0 0 -1 I I #
point $-1 45.53361613818781 7.5291763288985116 11.921512878581915 #
straight-curve $-1 45.53361613818781 5.7197848114889212 0.71389528390275814 0 1 0 I I #
point $-1 45.533616138187817 7.5291763288985116 0.71389528390275814 #
point $-1 34.922507077747184 9.7636867826581337 4.1794291453953782 #
point $-1 34.922507077747184 13.115452463297558 4.1794291453953782 #
straight-curve $-1 -21.690590381023981 -39.988733684336466 0 0 0 -1 I I #
point $-1 -21.690590381023981 -39.988733684336466 11.921512878581915 #
End-of-ACIS-data 