500 0 10 0           
7 Unknown 11 ACIS 5.0 NT 24 Fri Mar 26 00:19:01 1999 
-1 9.9999999999999995e-007 1e-010 
body $-1 $10 $-1 $11 #
body $-1 $12 $-1 $13 #
body $-1 $14 $-1 $15 #
body $-1 $16 $-1 $17 #
body $-1 $18 $-1 $19 #
body $-1 $20 $-1 $21 #
body $-1 $22 $-1 $23 #
body $-1 $24 $-1 $25 #
body $-1 $26 $-1 $27 #
body $-1 $28 $-1 $29 #
lump $-1 $-1 $30 $0 #
transform $-1 1 0 0 0 1 0 0 0 1 78.110293893246251 48.731507460904723 22.627499208515491 1 rotate no_reflect no_shear #
lump $-1 $-1 $31 $1 #
transform $-1 1 0 0 0 1 0 0 0 1 78.110293893246251 48.731507460904723 22.627499208515491 1 rotate no_reflect no_shear #
lump $-1 $-1 $32 $2 #
transform $-1 1 0 0 0 1 0 0 0 1 78.110293893246251 48.731507460904723 22.627499208515491 1 rotate no_reflect no_shear #
lump $-1 $-1 $33 $3 #
transform $-1 1 0 0 0 1 0 0 0 1 78.110293893246251 48.731507460904723 22.627499208515491 1 rotate no_reflect no_shear #
lump $-1 $-1 $34 $4 #
transform $-1 1 0 0 0 1 0 0 0 1 78.110293893246251 48.731507460904723 22.627499208515491 1 rotate no_reflect no_shear #
lump $-1 $-1 $35 $5 #
transform $-1 1 0 0 0 1 0 0 0 1 78.110293893246251 48.731507460904723 22.627499208515491 1 rotate no_reflect no_shear #
lump $-1 $-1 $36 $6 #
transform $-1 1 0 0 0 1 0 0 0 1 78.110293893246251 48.731507460904723 22.627499208515491 1 rotate no_reflect no_shear #
lump $-1 $-1 $37 $7 #
transform $-1 1 0 0 0 1 0 0 0 1 78.110293893246251 48.731507460904723 22.627499208515491 1 rotate no_reflect no_shear #
lump $-1 $-1 $38 $8 #
transform $-1 1 0 0 0 1 0 0 0 1 78.110293893246251 48.731507460904723 22.627499208515491 1 rotate no_reflect no_shear #
lump $-1 $-1 $39 $9 #
transform $-1 1 0 0 0 1 0 0 0 1 78.110293893246251 48.731507460904723 22.627499208515491 1 rotate no_reflect no_shear #
shell $-1 $-1 $-1 $40 $-1 $10 #
shell $-1 $-1 $-1 $41 $-1 $12 #
shell $-1 $-1 $-1 $42 $-1 $14 #
shell $-1 $-1 $-1 $43 $-1 $16 #
shell $-1 $-1 $-1 $44 $-1 $18 #
shell $-1 $-1 $-1 $45 $-1 $20 #
shell $-1 $-1 $-1 $46 $-1 $22 #
shell $-1 $-1 $-1 $47 $-1 $24 #
shell $-1 $-1 $-1 $48 $-1 $26 #
shell $-1 $-1 $-1 $49 $-1 $28 #
face $-1 $50 $51 $30 $-1 $52 forward single #
face $-1 $53 $54 $31 $-1 $55 reversed single #
face $-1 $56 $57 $32 $-1 $58 reversed single #
face $-1 $59 $60 $33 $-1 $61 forward single #
face $-1 $62 $63 $34 $-1 $64 forward single #
face $-1 $65 $66 $35 $-1 $67 forward single #
face $-1 $68 $69 $36 $-1 $70 reversed single #
face $-1 $71 $72 $37 $-1 $73 forward single #
face $-1 $74 $75 $38 $-1 $76 forward single #
face $-1 $77 $78 $39 $-1 $79 forward single #
face $-1 $80 $81 $30 $-1 $82 reversed single #
loop $-1 $-1 $83 $40 #
plane-surface $-1 0 0 22.627499208515491 0 0 1 1 0 0 forward_v I I I I #
face $-1 $84 $85 $31 $-1 $86 reversed single #
loop $-1 $-1 $87 $41 #
plane-surface $-1 0 -38.761582847026659 14.291226588337953 0 0 1 1 0 0 forward_v I I I I #
face $-1 $88 $89 $32 $-1 $90 reversed single #
loop $-1 $-1 $91 $42 #
plane-surface $-1 -176.42309650988264 31.062341914707297 122.65871113116172 0 1 0 -0.62932039886446345 0 0.77714595512881146 forward_v I I I I #
face $-1 $92 $93 $33 $-1 $94 forward single #
loop $-1 $95 $96 $43 #
cone-surface $-1 -63.862303767010346 33.97924950417837 10.643320153612979 0.62932039886446345 0 -0.77714595512881146 0.77714595512881146 0 0.62932039886446345 1 I I 0 1 1 forward I I I I #
face $-1 $97 $98 $34 $-1 $99 forward single #
loop $-1 $100 $101 $44 #
cone-surface $-1 -63.862303767010346 38.354610888384968 10.643320153612979 0.62932039886446345 0 -0.77714595512881146 0.77714595512881146 0 0.62932039886446345 1 I I 0 1 1 forward I I I I #
face $-1 $102 $103 $35 $-1 $104 forward single #
loop $-1 $105 $106 $45 #
cone-surface $-1 -63.862303767010346 42.729972272591567 10.643320153612979 0.62932039886446345 0 -0.77714595512881146 0.77714595512881146 0 0.62932039886446345 1 I I 0 1 1 forward I I I I #
face $-1 $107 $108 $36 $-1 $109 reversed single #
loop $-1 $-1 $110 $46 #
plane-surface $-1 -51.402442222581385 -23.053779953186968 104.19419399620134 0.55919291073839883 0 0.82903756765294845 0.82903756765294845 0 -0.55919291073839883 forward_v I I I I #
face $-1 $111 $112 $37 $-1 $113 forward single #
loop $-1 $114 $115 $47 #
cone-surface $-1 73.080705842856759 -26.496506921163949 18.639450109102526 -0.55919291073839883 0 -0.82903756765294845 0.82903756765294845 0 -0.55919291073839883 1 I I 0 1 1 forward I I I I #
face $-1 $116 $117 $38 $-1 $118 forward single #
loop $-1 $119 $120 $48 #
cone-surface $-1 73.080705842856759 -23.053779953186968 18.639450109102526 -0.55919291073839883 0 -0.82903756765294845 0.82903756765294845 0 -0.55919291073839883 1 I I 0 1 1 forward I I I I #
face $-1 $121 $122 $39 $-1 $123 forward single #
loop $-1 $124 $125 $49 #
cone-surface $-1 73.080705842856759 -19.611052985209987 18.639450109102526 -0.55919291073839883 0 -0.82903756765294845 0.82903756765294845 0 -0.55919291073839883 1 I I 0 1 1 forward I I I I #
face $-1 $126 $127 $30 $-1 $128 reversed single #
loop $-1 $-1 $129 $50 #
plane-surface $-1 0 0 -22.627499208515491 0 0 1 1 0 0 forward_v I I I I #
coedge $-1 $130 $131 $132 $133 forward $51 $-1 #
face $-1 $134 $135 $31 $-1 $136 reversed single #
loop $-1 $-1 $137 $53 #
plane-surface $-1 0 -28.791658233148599 18.459362898426722 0 -1 0 0 0 -1 forward_v I I I I #
coedge $-1 $138 $139 $140 $141 reversed $54 $-1 #
face $-1 $142 $143 $32 $-1 $144 reversed single #
loop $-1 $-1 $145 $56 #
plane-surface $-1 -78.110293893246251 38.354610888384954 1.2525132250436712 -0.62932039886446345 0 0.77714595512881146 0.77714595512881146 0 0.62932039886446345 forward_v I I I I #
coedge $-1 $146 $147 $148 $149 reversed $57 $-1 #
face $-1 $-1 $150 $33 $-1 $151 forward single #
loop $-1 $152 $153 $59 #
cone-surface $-1 -62.497607875970175 33.97924950417837 8.9580611128819783 0.62932039886446345 0 -0.77714595512881146 0.38857297756440573 0 0.31466019943223172 1 I I -0.70710678118654879 0.70710678118654635 0.5 forward I I I I #
loop $-1 $-1 $154 $43 #
coedge $-1 $96 $96 $155 $156 reversed $60 $-1 #
face $-1 $-1 $157 $34 $-1 $158 forward single #
loop $-1 $159 $160 $62 #
cone-surface $-1 -62.497607875970175 38.354610888384968 8.9580611128819783 0.62932039886446345 0 -0.77714595512881146 0.38857297756440573 0 0.31466019943223172 1 I I -0.70710678118654879 0.70710678118654635 0.5 forward I I I I #
loop $-1 $-1 $161 $44 #
coedge $-1 $101 $101 $162 $163 reversed $63 $-1 #
face $-1 $-1 $164 $35 $-1 $165 forward single #
loop $-1 $166 $167 $65 #
cone-surface $-1 -62.497607875970175 42.729972272591567 8.9580611128819783 0.62932039886446345 0 -0.77714595512881146 0.38857297756440573 0 0.31466019943223172 1 I I -0.70710678118654879 0.70710678118654635 0.5 forward I I I I #
loop $-1 $-1 $168 $45 #
coedge $-1 $106 $106 $169 $170 reversed $66 $-1 #
face $-1 $171 $172 $36 $-1 $173 reversed single #
loop $-1 $-1 $174 $68 #
plane-surface $-1 35.955002979010914 -17.315901673225333 233.70693011202897 0 -1 0 -0.55919291073839883 0 -0.82903756765294845 forward_v I I I I #
coedge $-1 $175 $176 $177 $178 reversed $69 $-1 #
face $-1 $-1 $179 $37 $-1 $180 forward single #
loop $-1 $181 $182 $71 #
cone-surface $-1 72.064091526955337 -26.496506921163949 17.132257432816321 -0.55919291073839883 0 -0.82903756765294845 0.41451878382647422 0 -0.27959645536919941 1 I I -0.70710678118654746 0.70710678118654746 0.5 forward I I I I #
loop $-1 $-1 $183 $47 #
coedge $-1 $115 $115 $184 $185 reversed $72 $-1 #
face $-1 $-1 $186 $38 $-1 $187 forward single #
loop $-1 $188 $189 $74 #
cone-surface $-1 72.064091526955337 -23.053779953186968 17.132257432816321 -0.55919291073839883 0 -0.82903756765294845 0.41451878382647422 0 -0.27959645536919941 1 I I -0.70710678118654746 0.70710678118654746 0.5 forward I I I I #
loop $-1 $-1 $190 $48 #
coedge $-1 $120 $120 $191 $192 reversed $75 $-1 #
face $-1 $-1 $193 $39 $-1 $194 forward single #
loop $-1 $195 $196 $77 #
cone-surface $-1 72.064091526955337 -19.611052985209987 17.132257432816321 -0.55919291073839883 0 -0.82903756765294845 0.41451878382647422 0 -0.27959645536919941 1 I I -0.70710678118654746 0.70710678118654746 0.5 forward I I I I #
loop $-1 $-1 $197 $49 #
coedge $-1 $125 $125 $198 $199 reversed $78 $-1 #
face $-1 $200 $201 $30 $-1 $202 reversed single #
loop $-1 $-1 $203 $80 #
plane-surface $-1 0 -48.731507460904723 0 0 1 0 0 0 1 forward_v I I I I #
coedge $-1 $204 $205 $206 $207 forward $81 $-1 #
coedge $-1 $208 $83 $209 $210 forward $51 $-1 #
coedge $-1 $83 $208 $211 $212 forward $51 $-1 #
coedge $-1 $213 $214 $83 $133 reversed $215 $-1 #
edge $-1 $216 -48.731507460904723 $217 48.731507460904723 $132 $218 forward 7 unknown #
face $-1 $219 $220 $31 $-1 $221 reversed single #
loop $-1 $-1 $222 $84 #
plane-surface $-1 -78.110293893246251 0 0 1 0 0 0 0 -1 forward_v I I I I #
coedge $-1 $223 $224 $225 $226 reversed $85 $-1 #
coedge $-1 $227 $87 $228 $229 reversed $54 $-1 #
coedge $-1 $87 $227 $223 $230 forward $54 $-1 #
coedge $-1 $225 $231 $87 $141 forward $232 $-1 #
edge $-1 $233 -29.350716037391393 $234 -9.4108668096352694 $140 $235 forward 7 unknown #
face $-1 $236 $237 $32 $-1 $238 forward single #
loop $-1 $-1 $239 $88 #
plane-surface $-1 -176.42309650988264 45.646879862062612 122.65871113116172 0 -1 0 0.62932039886446345 0 -0.77714595512881146 forward_v I I I I #
coedge $-1 $240 $241 $242 $243 reversed $89 $-1 #
coedge $-1 $147 $91 $244 $245 reversed $57 $-1 #
coedge $-1 $91 $146 $240 $246 reversed $57 $-1 #
coedge $-1 $242 $247 $91 $149 forward $237 $-1 #
edge $-1 $248 10.101254361695069 $249 36.497163230950989 $148 $250 forward 7 unknown #
loop $-1 $-1 $155 $92 #
plane-surface $-1 -78.110293893246251 38.354610888384954 1.2525132250436712 -0.62932039886446345 0 0.77714595512881146 0.77714595512881146 0 0.62932039886446345 forward_v I I I I #
loop $-1 $-1 $251 $59 #
coedge $-1 $153 $153 $154 $252 reversed $93 $-1 #
coedge $-1 $154 $154 $153 $252 forward $95 $-1 #
coedge $-1 $155 $155 $96 $156 forward $150 $-1 #
edge $-1 $253 0 $253 6.2831853071796004 $155 $254 forward 7 unknown #
loop $-1 $-1 $162 $97 #
plane-surface $-1 -78.110293893246251 38.354610888384954 1.2525132250436712 -0.62932039886446345 0 0.77714595512881146 0.77714595512881146 0 0.62932039886446345 forward_v I I I I #
loop $-1 $-1 $255 $62 #
coedge $-1 $160 $160 $161 $256 reversed $98 $-1 #
coedge $-1 $161 $161 $160 $256 forward $100 $-1 #
coedge $-1 $162 $162 $101 $163 forward $157 $-1 #
edge $-1 $257 0 $257 6.2831853071796004 $162 $258 forward 7 unknown #
loop $-1 $-1 $169 $102 #
plane-surface $-1 -78.110293893246251 38.354610888384954 1.2525132250436712 -0.62932039886446345 0 0.77714595512881146 0.77714595512881146 0 0.62932039886446345 forward_v I I I I #
loop $-1 $-1 $259 $65 #
coedge $-1 $167 $167 $168 $260 reversed $103 $-1 #
coedge $-1 $168 $168 $167 $260 forward $105 $-1 #
coedge $-1 $169 $169 $106 $170 forward $164 $-1 #
edge $-1 $261 0 $261 6.2831853071796004 $169 $262 forward 7 unknown #
face $-1 $263 $264 $36 $-1 $265 forward single #
loop $-1 $-1 $177 $107 #
plane-surface $-1 78.110293893246251 0 0 -1 0 0 0 0 1 forward_v I I I I #
coedge $-1 $266 $267 $268 $269 reversed $108 $-1 #
coedge $-1 $270 $110 $271 $272 reversed $69 $-1 #
coedge $-1 $110 $270 $266 $273 forward $69 $-1 #
coedge $-1 $268 $274 $110 $178 forward $172 $-1 #
edge $-1 $275 -17.264768256555115 $276 -5.7890116966318494 $177 $277 forward 7 unknown #
loop $-1 $-1 $184 $111 #
plane-surface $-1 -51.402442222581385 -23.053779953186968 104.19419399620134 0.55919291073839883 0 0.82903756765294845 0.82903756765294845 0 -0.55919291073839883 forward_v I I I I #
loop $-1 $-1 $278 $71 #
coedge $-1 $182 $182 $183 $279 reversed $112 $-1 #
coedge $-1 $183 $183 $182 $279 forward $114 $-1 #
coedge $-1 $184 $184 $115 $185 forward $179 $-1 #
edge $-1 $280 0 $280 6.2831853071796004 $184 $281 forward 7 unknown #
loop $-1 $-1 $191 $116 #
plane-surface $-1 -51.402442222581385 -23.053779953186968 104.19419399620134 0.55919291073839883 0 0.82903756765294845 0.82903756765294845 0 -0.55919291073839883 forward_v I I I I #
loop $-1 $-1 $282 $74 #
coedge $-1 $189 $189 $190 $283 reversed $117 $-1 #
coedge $-1 $190 $190 $189 $283 forward $119 $-1 #
coedge $-1 $191 $191 $120 $192 forward $186 $-1 #
edge $-1 $284 0 $284 6.2831853071796004 $191 $285 forward 7 unknown #
loop $-1 $-1 $198 $121 #
plane-surface $-1 -51.402442222581385 -23.053779953186968 104.19419399620134 0.55919291073839883 0 0.82903756765294845 0.82903756765294845 0 -0.55919291073839883 forward_v I I I I #
loop $-1 $-1 $286 $77 #
coedge $-1 $196 $196 $197 $287 reversed $122 $-1 #
coedge $-1 $197 $197 $196 $287 forward $124 $-1 #
coedge $-1 $198 $198 $125 $199 forward $193 $-1 #
edge $-1 $288 0 $288 6.2831853071796004 $198 $289 forward 7 unknown #
face $-1 $290 $291 $30 $-1 $292 reversed single #
loop $-1 $-1 $293 $126 #
plane-surface $-1 -78.110293893246251 0 0 1 0 0 0 0 -1 forward_v I I I I #
coedge $-1 $294 $211 $295 $296 forward $127 $-1 #
coedge $-1 $297 $129 $294 $298 forward $81 $-1 #
coedge $-1 $129 $297 $299 $300 forward $81 $-1 #
coedge $-1 $214 $213 $129 $207 reversed $215 $-1 #
edge $-1 $301 -48.731507460904723 $302 48.731507460904723 $206 $303 forward 7 unknown #
coedge $-1 $131 $130 $304 $305 forward $51 $-1 #
coedge $-1 $306 $307 $130 $210 reversed $291 $-1 #
edge $-1 $217 -78.110293893246251 $308 78.110293893246251 $209 $309 forward 7 unknown #
coedge $-1 $203 $310 $131 $212 reversed $127 $-1 #
edge $-1 $311 -78.110293893246251 $216 78.110293893246251 $211 $312 forward 7 unknown #
coedge $-1 $206 $132 $310 $313 forward $215 $-1 #
coedge $-1 $132 $206 $306 $314 reversed $215 $-1 #
loop $-1 $-1 $213 $290 #
vertex $-1 $133 $315 #
vertex $-1 $133 $316 #
straight-curve $-1 78.110293893246251 0 22.627499208515491 0 1 0 I I #
face $-1 $317 $318 $31 $-1 $319 forward single #
loop $-1 $-1 $228 $134 #
plane-surface $-1 0 -48.731507460904723 0 0 1 0 0 0 1 forward_v I I I I #
coedge $-1 $320 $321 $322 $323 forward $135 $-1 #
coedge $-1 $322 $137 $139 $230 reversed $85 $-1 #
coedge $-1 $137 $322 $324 $325 reversed $85 $-1 #
coedge $-1 $326 $140 $137 $226 forward $232 $-1 #
edge $-1 $234 5.0615451391245916 $327 13.39781775930213 $225 $328 forward 7 unknown #
coedge $-1 $139 $138 $320 $329 reversed $54 $-1 #
coedge $-1 $330 $331 $138 $229 forward $220 $-1 #
edge $-1 $332 -78.110293893246251 $233 78.110293893246251 $228 $333 forward 7 unknown #
edge $-1 $334 -78.110293893246251 $234 78.110293893246251 $223 $335 forward 7 unknown #
coedge $-1 $140 $326 $330 $336 forward $232 $-1 #
loop $-1 $-1 $225 $317 #
vertex $-1 $229 $337 #
vertex $-1 $141 $338 #
straight-curve $-1 78.110293893246251 -19.38079142351333 14.291226588337953 0 1 0 I I #
face $-1 $-1 $339 $32 $-1 $340 reversed single #
loop $-1 $-1 $148 $142 #
plane-surface $-1 0 0 22.627499208515491 0 0 1 1 0 0 forward_v I I I I #
coedge $-1 $341 $342 $343 $344 reversed $143 $-1 #
coedge $-1 $345 $145 $147 $246 forward $89 $-1 #
coedge $-1 $145 $345 $341 $346 forward $89 $-1 #
coedge $-1 $343 $148 $145 $243 forward $237 $-1 #
edge $-1 $249 11.885036470514819 $347 26.469574417870135 $242 $348 forward 7 unknown #
coedge $-1 $349 $350 $146 $245 forward $339 $-1 #
edge $-1 $351 -60.076842340537191 $248 -38.701856357065367 $244 $352 forward 7 unknown #
edge $-1 $249 -33.965188514531761 $351 0 $147 $353 forward 7 unknown #
coedge $-1 $148 $343 $349 $354 forward $237 $-1 #
vertex $-1 $245 $355 #
vertex $-1 $149 $356 #
straight-curve $-1 -88.21154825494132 31.062341914707297 22.627499208515488 1 0 0 I I #
coedge $-1 $251 $251 $-1 $357 reversed $152 $-1 #
edge $-1 $358 0 $358 6.2831853071796004 $153 $359 forward 7 unknown #
vertex $-1 $156 $360 #
ellipse-curve $-1 -64.912339458618291 33.97924950417837 11.940006216779581 -0.62932039886446345 0 0.77714595512881146 0.77714595512881146 0 0.62932039886446345 1 I I #
coedge $-1 $255 $255 $-1 $361 reversed $159 $-1 #
edge $-1 $362 0 $362 6.2831853071796004 $160 $363 forward 7 unknown #
vertex $-1 $163 $364 #
ellipse-curve $-1 -64.912339458618291 38.354610888384968 11.940006216779581 -0.62932039886446345 0 0.77714595512881146 0.77714595512881146 0 0.62932039886446345 1 I I #
coedge $-1 $259 $259 $-1 $365 reversed $166 $-1 #
edge $-1 $366 0 $366 6.2831853071796004 $167 $367 forward 7 unknown #
vertex $-1 $170 $368 #
ellipse-curve $-1 -64.912339458618291 42.729972272591567 11.940006216779581 -0.62932039886446345 0 0.77714595512881146 0.77714595512881146 0 0.62932039886446345 1 I I #
face $-1 $-1 $369 $36 $-1 $370 forward single #
loop $-1 $-1 $371 $171 #
plane-surface $-1 0 0 22.627499208515491 0 0 1 1 0 0 forward_v I I I I #
coedge $-1 $267 $174 $176 $273 reversed $108 $-1 #
coedge $-1 $174 $266 $371 $372 reversed $108 $-1 #
coedge $-1 $373 $177 $174 $269 forward $172 $-1 #
edge $-1 $276 -100.01671626140543 $374 -94.225965847498998 $268 $375 forward 7 unknown #
coedge $-1 $176 $175 $376 $377 reversed $69 $-1 #
coedge $-1 $378 $379 $175 $272 forward $369 $-1 #
edge $-1 $380 100.58660459639312 $275 110.94215507406264 $271 $381 forward 7 unknown #
edge $-1 $382 145.86503730882293 $276 156.22058778649247 $266 $383 forward 7 unknown #
coedge $-1 $177 $373 $378 $384 forward $172 $-1 #
vertex $-1 $272 $385 #
vertex $-1 $178 $386 #
straight-curve $-1 78.110293893246251 -11.526889976593484 16.836748794609044 0 1 0 I I #
coedge $-1 $278 $278 $-1 $387 reversed $181 $-1 #
edge $-1 $388 0 $388 6.2831853071796004 $182 $389 forward 7 unknown #
vertex $-1 $185 $390 #
ellipse-curve $-1 73.817723703388992 -26.496506921163949 19.73212400156228 0.55919291073839883 0 0.82903756765294845 0.82903756765294845 0 -0.55919291073839883 1 I I #
coedge $-1 $282 $282 $-1 $391 reversed $188 $-1 #
edge $-1 $392 0 $392 6.2831853071796004 $189 $393 forward 7 unknown #
vertex $-1 $192 $394 #
ellipse-curve $-1 73.817723703388992 -23.053779953186968 19.73212400156228 0.55919291073839883 0 0.82903756765294845 0.82903756765294845 0 -0.55919291073839883 1 I I #
coedge $-1 $286 $286 $-1 $395 reversed $195 $-1 #
edge $-1 $396 0 $396 6.2831853071796004 $196 $397 forward 7 unknown #
vertex $-1 $199 $398 #
ellipse-curve $-1 73.817723703388992 -19.611052985209987 19.73212400156228 0.55919291073839883 0 0.82903756765294845 0.82903756765294845 0 -0.55919291073839883 1 I I #
face $-1 $-1 $215 $30 $-1 $399 reversed single #
loop $-1 $-1 $306 $200 #
plane-surface $-1 0 48.731507460904723 0 0 -1 0 0 0 -1 forward_v I I I I #
coedge $-1 $400 $304 $307 $401 forward $201 $-1 #
coedge $-1 $310 $203 $204 $298 reversed $127 $-1 #
coedge $-1 $304 $400 $203 $296 reversed $201 $-1 #
edge $-1 $311 -22.627499208515491 $402 22.627499208515491 $295 $403 forward 7 unknown #
coedge $-1 $205 $204 $400 $404 forward $81 $-1 #
edge $-1 $302 -78.110293893246251 $402 78.110293893246251 $294 $405 forward 7 unknown #
coedge $-1 $307 $306 $205 $300 reversed $291 $-1 #
edge $-1 $406 -78.110293893246251 $301 78.110293893246251 $299 $407 forward 7 unknown #
vertex $-1 $207 $408 #
vertex $-1 $313 $409 #
straight-curve $-1 78.110293893246251 0 -22.627499208515491 0 -1 0 I I #
coedge $-1 $293 $295 $208 $305 reversed $201 $-1 #
edge $-1 $308 -48.731507460904723 $311 48.731507460904723 $304 $410 forward 7 unknown #
coedge $-1 $299 $209 $214 $314 forward $291 $-1 #
coedge $-1 $209 $299 $293 $401 reversed $291 $-1 #
vertex $-1 $210 $411 #
straight-curve $-1 0 48.731507460904723 22.627499208515491 -1 0 0 I I #
coedge $-1 $211 $294 $213 $313 reversed $127 $-1 #
vertex $-1 $305 $412 #
straight-curve $-1 0 -48.731507460904723 22.627499208515491 1 0 0 I I #
edge $-1 $216 -22.627499208515491 $302 22.627499208515491 $213 $413 forward 7 unknown #
edge $-1 $217 -22.627499208515491 $301 22.627499208515491 $214 $414 forward 7 unknown #
point $-1 78.110293893246251 -48.731507460904723 22.627499208515491 #
point $-1 78.110293893246251 48.731507460904723 22.627499208515491 #
face $-1 $-1 $232 $31 $-1 $415 reversed single #
loop $-1 $-1 $324 $219 #
plane-surface $-1 0 0 22.627499208515491 0 0 1 1 0 0 forward_v I I I I #
coedge $-1 $416 $222 $227 $329 forward $135 $-1 #
coedge $-1 $222 $416 $417 $418 reversed $135 $-1 #
coedge $-1 $224 $223 $222 $323 reversed $85 $-1 #
edge $-1 $419 -13.39781775930213 $334 -5.0615451391245916 $222 $420 forward 7 unknown #
coedge $-1 $417 $421 $224 $325 forward $318 $-1 #
edge $-1 $327 -78.110293893246251 $419 78.110293893246251 $324 $422 forward 7 unknown #
coedge $-1 $231 $225 $421 $423 reversed $232 $-1 #
vertex $-1 $226 $424 #
straight-curve $-1 78.110293893246251 -28.791658233148599 9.229681449213361 0 0 1 I I #
edge $-1 $334 9.4108668096352694 $332 29.350716037391393 $320 $425 forward 7 unknown #
coedge $-1 $426 $228 $231 $336 reversed $220 $-1 #
coedge $-1 $228 $426 $416 $427 forward $220 $-1 #
vertex $-1 $229 $428 #
straight-curve $-1 0 -48.731507460904723 14.291226588337953 1 0 0 I I #
vertex $-1 $329 $429 #
straight-curve $-1 0 -28.791658233148599 14.291226588337953 1 0 0 I I #
edge $-1 $430 -22.627499208515491 $233 -14.291226588337953 $231 $431 forward 7 unknown #
point $-1 78.110293893246251 -48.731507460904723 14.291226588337953 #
point $-1 78.110293893246251 -28.791658233148599 14.291226588337953 #
loop $-1 $-1 $244 $236 #
plane-surface $-1 -78.110293893246251 0 0 1 0 0 0 0 -1 forward_v I I I I #
coedge $-1 $342 $239 $241 $346 reversed $143 $-1 #
coedge $-1 $239 $341 $432 $433 reversed $143 $-1 #
coedge $-1 $247 $242 $239 $344 forward $237 $-1 #
edge $-1 $347 -36.497163230950989 $434 -10.101254361695069 $343 $435 forward 7 unknown #
coedge $-1 $241 $240 $350 $436 reversed $89 $-1 #
edge $-1 $437 0 $347 33.965188514531761 $341 $438 forward 7 unknown #
vertex $-1 $243 $439 #
straight-curve $-1 -51.714385023990332 19.177305444192477 22.627499208515491 0 1 0 I I #
coedge $-1 $432 $244 $247 $354 reversed $339 $-1 #
coedge $-1 $244 $432 $345 $436 forward $339 $-1 #
vertex $-1 $245 $440 #
straight-curve $-1 -78.110293893246251 31.062341914707297 61.329355565580862 0 0 1 I I #
straight-curve $-1 -78.110293893246251 31.062341914707297 1.2525132250436712 -0.77714595512881146 0 -0.62932039886446345 I I #
edge $-1 $434 -45.646879862062612 $248 -31.062341914707297 $349 $441 forward 7 unknown #
point $-1 -78.110293893246251 31.062341914707297 22.627499208515491 #
point $-1 -51.714385023990332 31.062341914707297 22.627499208515491 #
edge $-1 $442 1 $442 0 $251 $-1 forward 7 unknown #
vertex $-1 $252 $443 #
ellipse-curve $-1 -62.812268075402407 33.97924950417837 9.3466340904463827 -0.62932039886446345 0 0.77714595512881146 0.77714595512881146 0 0.62932039886446345 1 I I #
point $-1 -64.135193503489475 33.97924950417837 12.569326615644041 #
edge $-1 $444 1 $444 0 $255 $-1 forward 7 unknown #
vertex $-1 $256 $445 #
ellipse-curve $-1 -62.812268075402407 38.354610888384968 9.3466340904463827 -0.62932039886446345 0 0.77714595512881146 0.77714595512881146 0 0.62932039886446345 1 I I #
point $-1 -64.135193503489475 38.354610888384968 12.569326615644041 #
edge $-1 $446 1 $446 0 $259 $-1 forward 7 unknown #
vertex $-1 $260 $447 #
ellipse-curve $-1 -62.812268075402407 42.729972272591567 9.3466340904463827 -0.62932039886446345 0 0.77714595512881146 0.77714595512881146 0 0.62932039886446345 1 I I #
point $-1 -64.135193503489475 42.729972272591567 12.569326615644041 #
loop $-1 $-1 $271 $263 #
plane-surface $-1 0 -28.791658233148599 18.459362898426722 0 -1 0 0 0 -1 forward_v I I I I #
coedge $-1 $376 $448 $267 $372 forward $264 $-1 #
edge $-1 $374 -60.132792403740794 $382 -51.54765202402632 $371 $449 forward 7 unknown #
coedge $-1 $274 $268 $448 $450 reversed $172 $-1 #
vertex $-1 $269 $451 #
straight-curve $-1 78.110293893246251 -17.315901673225333 116.85346505601449 0 0 1 I I #
coedge $-1 $452 $371 $270 $377 forward $264 $-1 #
edge $-1 $382 5.7890116966318494 $380 17.264768256555119 $376 $453 forward 7 unknown #
coedge $-1 $379 $271 $274 $384 reversed $369 $-1 #
coedge $-1 $271 $378 $452 $454 reversed $369 $-1 #
vertex $-1 $454 $455 #
straight-curve $-1 -13.864920499530861 -28.791658233148599 78.874815414064955 0.82903756765294845 0 -0.55919291073839883 I I #
vertex $-1 $377 $456 #
straight-curve $-1 -51.402442222581385 -17.315901673225333 104.19419399620134 0.82903756765294845 0 -0.55919291073839883 I I #
edge $-1 $457 -13.39781775930213 $275 -7.607067345395679 $274 $458 forward 7 unknown #
point $-1 78.110293893246251 -28.791658233148599 16.83674879460904 #
point $-1 78.110293893246251 -17.315901673225333 16.836748794609051 #
edge $-1 $459 1 $459 0 $278 $-1 forward 7 unknown #
vertex $-1 $279 $460 #
ellipse-curve $-1 72.343687982324539 -26.496506921163949 17.546776216642794 0.55919291073839883 0 0.82903756765294845 0.82903756765294845 0 -0.55919291073839883 1 I I #
point $-1 74.646761271041925 -26.496506921163949 19.172931090823855 #
edge $-1 $461 1 $461 0 $282 $-1 forward 7 unknown #
vertex $-1 $283 $462 #
ellipse-curve $-1 72.343687982324539 -23.053779953186968 17.546776216642794 0.55919291073839883 0 0.82903756765294845 0.82903756765294845 0 -0.55919291073839883 1 I I #
point $-1 74.646761271041925 -23.053779953186968 19.172931090823855 #
edge $-1 $463 1 $463 0 $286 $-1 forward 7 unknown #
vertex $-1 $287 $464 #
ellipse-curve $-1 72.343687982324539 -19.611052985209987 17.546776216642794 0.55919291073839883 0 0.82903756765294845 0.82903756765294845 0 -0.55919291073839883 1 I I #
point $-1 74.646761271041925 -19.611052985209987 19.172931090823855 #
plane-surface $-1 78.110293893246251 0 0 -1 0 0 0 0 1 forward_v I I I I #
coedge $-1 $295 $293 $297 $404 reversed $201 $-1 #
edge $-1 $308 -22.627499208515491 $406 22.627499208515491 $307 $465 forward 7 unknown #
vertex $-1 $404 $466 #
straight-curve $-1 -78.110293893246251 -48.731507460904723 0 0 0 -1 I I #
edge $-1 $402 -48.731507460904723 $406 48.731507460904723 $400 $467 forward 7 unknown #
straight-curve $-1 0 -48.731507460904723 -22.627499208515491 -1 0 0 I I #
vertex $-1 $300 $468 #
straight-curve $-1 0 48.731507460904723 -22.627499208515491 1 0 0 I I #
point $-1 78.110293893246251 48.731507460904723 -22.627499208515491 #
point $-1 78.110293893246251 -48.731507460904723 -22.627499208515491 #
straight-curve $-1 -78.110293893246251 0 22.627499208515491 0 -1 0 I I #
point $-1 -78.110293893246251 48.731507460904723 22.627499208515491 #
point $-1 -78.110293893246251 -48.731507460904723 22.627499208515491 #
straight-curve $-1 78.110293893246251 -48.731507460904723 0 0 0 -1 I I #
straight-curve $-1 78.110293893246251 48.731507460904723 0 0 0 -1 I I #
plane-surface $-1 78.110293893246251 0 0 -1 0 0 0 0 1 forward_v I I I I #
coedge $-1 $321 $320 $331 $427 reversed $135 $-1 #
coedge $-1 $469 $324 $321 $418 forward $318 $-1 #
edge $-1 $419 28.791658233148599 $470 48.731507460904723 $321 $471 forward 7 unknown #
vertex $-1 $418 $472 #
straight-curve $-1 -78.110293893246251 -28.791658233148599 9.229681449213361 0 0 -1 I I #
coedge $-1 $324 $469 $326 $423 forward $318 $-1 #
straight-curve $-1 0 -28.791658233148599 22.627499208515491 -1 0 0 I I #
edge $-1 $430 -48.731507460904723 $327 -28.791658233148599 $326 $473 forward 7 unknown #
point $-1 78.110293893246251 -28.791658233148599 22.627499208515491 #
straight-curve $-1 -78.110293893246251 -19.38079142351333 14.291226588337953 0 -1 0 I I #
coedge $-1 $331 $330 $469 $474 reversed $220 $-1 #
edge $-1 $470 -22.627499208515491 $332 -14.291226588337953 $416 $475 forward 7 unknown #
point $-1 -78.110293893246251 -48.731507460904723 14.291226588337953 #
point $-1 -78.110293893246251 -28.791658233148599 14.291226588337953 #
vertex $-1 $423 $476 #
straight-curve $-1 78.110293893246251 -48.731507460904723 0 0 0 -1 I I #
coedge $-1 $350 $349 $342 $433 forward $339 $-1 #
edge $-1 $434 38.701856357065367 $437 60.076842340537191 $432 $477 forward 7 unknown #
vertex $-1 $354 $478 #
straight-curve $-1 -88.21154825494132 45.646879862062612 22.627499208515488 -1 0 0 I I #
edge $-1 $437 -26.469574417870135 $351 -11.885036470514819 $350 $479 forward 7 unknown #
vertex $-1 $436 $480 #
straight-curve $-1 -78.110293893246251 45.646879862062612 1.2525132250436712 0.77714595512881146 0 0.62932039886446345 I I #
point $-1 -51.714385023990332 45.646879862062612 22.627499208515491 #
point $-1 -78.110293893246251 31.062341914707297 1.2525132250436712 #
straight-curve $-1 -78.110293893246251 0 22.627499208515491 0 -1 0 I I #
vertex $-1 $357 $481 #
point $-1 -62.035122120273591 33.97924950417837 9.9759544893108458 #
vertex $-1 $361 $482 #
point $-1 -62.035122120273591 38.354610888384968 9.9759544893108458 #
vertex $-1 $365 $483 #
point $-1 -62.035122120273591 42.729972272591567 9.9759544893108458 #
coedge $-1 $371 $452 $373 $450 forward $264 $-1 #
straight-curve $-1 17.977501489505457 -17.315901673225333 22.627499208515488 -1 0 0 I I #
edge $-1 $457 -28.791658233148599 $374 -17.315901673225333 $373 $484 forward 7 unknown #
point $-1 78.110293893246251 -17.315901673225333 22.627499208515491 #
coedge $-1 $448 $376 $379 $454 forward $264 $-1 #
straight-curve $-1 69.525153513531762 -11.526889976593484 22.627499208515488 0 -1 0 I I #
edge $-1 $380 69.525153513531777 $457 78.110293893246251 $452 $485 forward 7 unknown #
point $-1 69.525153513531777 -28.791658233148603 22.627499208515488 #
point $-1 69.525153513531777 -17.315901673225333 22.627499208515488 #
vertex $-1 $450 $486 #
straight-curve $-1 78.110293893246251 -28.791658233148599 9.229681449213361 0 0 -1 I I #
vertex $-1 $387 $487 #
point $-1 73.172725549977486 -26.496506921163949 16.987583305904398 #
vertex $-1 $391 $488 #
point $-1 73.172725549977486 -23.053779953186968 16.987583305904398 #
vertex $-1 $395 $489 #
point $-1 73.172725549977486 -19.611052985209987 16.987583305904398 #
straight-curve $-1 -78.110293893246251 48.731507460904723 0 0 0 -1 I I #
point $-1 -78.110293893246251 -48.731507460904723 -22.627499208515491 #
straight-curve $-1 -78.110293893246251 0 -22.627499208515491 0 1 0 I I #
point $-1 -78.110293893246251 48.731507460904723 -22.627499208515491 #
coedge $-1 $421 $417 $426 $474 forward $318 $-1 #
vertex $-1 $418 $490 #
straight-curve $-1 -78.110293893246251 0 22.627499208515491 0 -1 0 I I #
point $-1 -78.110293893246251 -28.791658233148599 22.627499208515491 #
straight-curve $-1 78.110293893246251 0 22.627499208515491 0 1 0 I I #
edge $-1 $470 -78.110293893246251 $430 78.110293893246251 $426 $491 forward 7 unknown #
straight-curve $-1 -78.110293893246251 -48.731507460904723 0 0 0 -1 I I #
point $-1 78.110293893246251 -48.731507460904723 22.627499208515491 #
straight-curve $-1 -78.110293893246251 45.646879862062612 61.329355565580862 0 0 -1 I I #
point $-1 -78.110293893246251 45.646879862062612 22.627499208515491 #
straight-curve $-1 -78.110293893246251 19.177305444192477 1.2525132250436732 0 -1 0 I I #
point $-1 -78.110293893246251 45.646879862062612 1.2525132250436712 #
point $-1 -62.182947676537943 33.97924950417837 8.5694881353175738 #
point $-1 -62.182947676537943 38.354610888384968 8.5694881353175738 #
point $-1 -62.182947676537943 42.729972272591567 8.5694881353175738 #
straight-curve $-1 78.110293893246251 0 22.627499208515491 0 1 0 I I #
straight-curve $-1 0 -28.791658233148599 22.627499208515491 1 0 0 I I #
point $-1 78.110293893246251 -28.791658233148599 22.627499208515491 #
point $-1 71.784495071586136 -26.496506921163949 16.717738648989847 #
point $-1 71.784495071586136 -23.053779953186968 16.717738648989847 #
point $-1 71.784495071586136 -19.611052985209987 16.717738648989847 #
point $-1 -78.110293893246251 -48.731507460904723 22.627499208515491 #
straight-curve $-1 0 -48.731507460904723 22.627499208515491 1 0 0 I I #
End-of-ACIS-data 