500 0 4 0           
7 Unknown 11 ACIS 5.0 NT 24 Thu Mar 25 19:12:04 1999 
-1 9.9999999999999995e-007 1e-010 
body $-1 $4 $-1 $5 #
body $-1 $6 $-1 $7 #
body $-1 $8 $-1 $9 #
body $-1 $10 $-1 $11 #
lump $-1 $-1 $12 $0 #
transform $-1 1 0 0 0 1 0 0 0 1 52.900784325693536 27.485740928008887 5.7037504986169631 1 rotate no_reflect no_shear #
lump $-1 $-1 $13 $1 #
transform $-1 1 0 0 0 1 0 0 0 1 52.900784325693536 27.485740928008887 5.7037504986169631 1 rotate no_reflect no_shear #
lump $-1 $-1 $14 $2 #
transform $-1 1 0 0 0 1 0 0 0 1 52.900784325693536 27.485740928008887 5.7037504986169631 1 rotate no_reflect no_shear #
lump $-1 $-1 $15 $3 #
transform $-1 1 0 0 0 1 0 0 0 1 52.900784325693536 27.485740928008887 5.7037504986169631 1 rotate no_reflect no_shear #
shell $-1 $-1 $-1 $16 $-1 $4 #
shell $-1 $-1 $-1 $17 $-1 $6 #
shell $-1 $-1 $-1 $18 $-1 $8 #
shell $-1 $-1 $-1 $19 $-1 $10 #
face $-1 $20 $21 $12 $-1 $22 forward single #
face $-1 $23 $24 $13 $-1 $25 forward single #
face $-1 $26 $27 $14 $-1 $28 reversed single #
face $-1 $29 $30 $15 $-1 $31 forward single #
face $-1 $32 $33 $12 $-1 $34 reversed single #
loop $-1 $-1 $35 $16 #
plane-surface $-1 0 0 5.7037504986169631 0 0 1 1 0 0 forward_v I I I I #
face $-1 $36 $37 $13 $-1 $38 reversed single #
loop $-1 $-1 $39 $17 #
plane-surface $-1 -52.900784325693536 0 0 1 0 0 0 0 -1 forward_v I I I I #
face $-1 $40 $41 $14 $-1 $42 reversed single #
loop $-1 $-1 $43 $18 #
plane-surface $-1 -15.107152043960312 -23.926220698417612 82.960234021544821 0.7660444514056185 0 0.64278759981090561 0.64278759981090561 0 -0.7660444514056185 forward_v I I I I #
face $-1 $44 $45 $15 $-1 $46 forward single #
loop $-1 $47 $48 $19 #
cone-surface $-1 50.926736481625248 -23.926220698417612 3.4862461524725981 -0.7660444514056185 0 -0.64278759981090561 0.3213937999054528 0 -0.38302222570280925 1 I I 0 1 0.5 forward I I I I #
face $-1 $49 $50 $12 $-1 $51 reversed single #
loop $-1 $-1 $52 $20 #
plane-surface $-1 0 0 -5.7037504986169631 0 0 1 1 0 0 forward_v I I I I #
coedge $-1 $53 $54 $55 $56 forward $21 $-1 #
face $-1 $57 $58 $13 $-1 $59 forward single #
loop $-1 $-1 $60 $23 #
plane-surface $-1 0 27.485740928008887 0 0 -1 0 0 0 -1 forward_v I I I I #
coedge $-1 $61 $62 $63 $64 forward $24 $-1 #
face $-1 $65 $66 $14 $-1 $67 forward single #
loop $-1 $-1 $68 $26 #
plane-surface $-1 65.941552571445385 -20.366700468826338 150.96817039119867 0 -1 0 -0.7660444514056185 0 -0.64278759981090561 forward_v I I I I #
coedge $-1 $69 $70 $71 $72 reversed $27 $-1 #
face $-1 $-1 $73 $15 $-1 $74 forward single #
loop $-1 $75 $76 $29 #
cone-surface $-1 50.352203143071037 -23.926220698417612 3.0041554526144187 -0.7660444514056185 0 -0.64278759981090561 0.1606968999527264 0 -0.19151111285140462 1 I I -0.70710678118654746 0.70710678118654746 0.25 forward I I I I #
loop $-1 $-1 $77 $19 #
coedge $-1 $48 $48 $78 $79 reversed $30 $-1 #
face $-1 $80 $81 $12 $-1 $82 reversed single #
loop $-1 $-1 $83 $32 #
plane-surface $-1 0 -27.485740928008887 0 0 1 0 0 0 1 forward_v I I I I #
coedge $-1 $84 $85 $86 $87 forward $33 $-1 #
coedge $-1 $88 $35 $89 $90 forward $21 $-1 #
coedge $-1 $35 $88 $91 $92 forward $21 $-1 #
coedge $-1 $93 $94 $35 $56 reversed $95 $-1 #
edge $-1 $96 -27.485740928008887 $97 27.485740928008887 $55 $98 forward 7 unknown #
face $-1 $99 $100 $13 $-1 $101 reversed single #
loop $-1 $-1 $63 $36 #
plane-surface $-1 -56.202613024017033 0 1.6774549564730905 0 0 1 1 0 0 forward_v I I I I #
coedge $-1 $102 $103 $62 $104 forward $37 $-1 #
coedge $-1 $105 $39 $106 $107 reversed $24 $-1 #
coedge $-1 $39 $105 $60 $104 reversed $24 $-1 #
coedge $-1 $108 $109 $39 $64 reversed $58 $-1 #
edge $-1 $110 -27.485740928008887 $111 27.485740928008887 $63 $112 forward 7 unknown #
face $-1 $113 $114 $14 $-1 $115 reversed single #
loop $-1 $-1 $116 $40 #
plane-surface $-1 0 0 5.7037504986169631 0 0 1 1 0 0 forward_v I I I I #
coedge $-1 $117 $118 $119 $120 reversed $41 $-1 #
coedge $-1 $121 $43 $122 $123 reversed $27 $-1 #
coedge $-1 $43 $121 $117 $124 forward $27 $-1 #
coedge $-1 $119 $125 $43 $72 forward $126 $-1 #
edge $-1 $127 -15.522630578800081 $128 -8.4035901196175313 $71 $129 forward 7 unknown #
loop $-1 $-1 $78 $44 #
plane-surface $-1 -15.107152043960312 -23.926220698417612 82.960234021544821 0.7660444514056185 0 0.64278759981090561 0.64278759981090561 0 -0.7660444514056185 forward_v I I I I #
loop $-1 $-1 $130 $29 #
coedge $-1 $76 $76 $77 $131 reversed $45 $-1 #
coedge $-1 $77 $77 $76 $131 forward $47 $-1 #
coedge $-1 $78 $78 $48 $79 forward $73 $-1 #
edge $-1 $132 0 $132 6.2831853071796004 $78 $133 forward 7 unknown #
face $-1 $134 $135 $12 $-1 $136 reversed single #
loop $-1 $-1 $137 $49 #
plane-surface $-1 -52.900784325693536 0 0 1 0 0 0 0 -1 forward_v I I I I #
coedge $-1 $138 $91 $137 $139 forward $50 $-1 #
coedge $-1 $140 $52 $138 $141 forward $33 $-1 #
coedge $-1 $52 $140 $142 $143 forward $33 $-1 #
coedge $-1 $94 $93 $52 $87 reversed $95 $-1 #
edge $-1 $144 -27.485740928008887 $145 27.485740928008887 $86 $146 forward 7 unknown #
coedge $-1 $54 $53 $147 $148 forward $21 $-1 #
coedge $-1 $149 $150 $53 $90 reversed $135 $-1 #
edge $-1 $97 -52.900784325693536 $151 52.900784325693536 $89 $152 forward 7 unknown #
coedge $-1 $83 $153 $54 $92 reversed $50 $-1 #
edge $-1 $154 -52.900784325693536 $96 52.900784325693536 $91 $155 forward 7 unknown #
coedge $-1 $86 $55 $153 $156 forward $95 $-1 #
coedge $-1 $55 $86 $149 $157 reversed $95 $-1 #
loop $-1 $-1 $93 $134 #
vertex $-1 $56 $158 #
vertex $-1 $56 $159 #
straight-curve $-1 52.900784325693536 0 5.7037504986169631 0 1 0 I I #
face $-1 $160 $161 $13 $-1 $162 reversed single #
loop $-1 $-1 $163 $57 #
plane-surface $-1 -56.202613024017033 0 -1.6037986721480668 0 0 1 1 0 0 forward_v I I I I #
coedge $-1 $164 $60 $165 $166 reversed $37 $-1 #
coedge $-1 $60 $164 $108 $167 reversed $37 $-1 #
edge $-1 $110 -1.6774549564730905 $168 1.6037986721480668 $60 $169 forward 7 unknown #
coedge $-1 $62 $61 $163 $170 forward $24 $-1 #
coedge $-1 $171 $172 $61 $107 forward $173 $-1 #
edge $-1 $174 -1.6037986721480668 $111 1.6774549564730905 $106 $175 forward 7 unknown #
coedge $-1 $176 $63 $103 $167 forward $58 $-1 #
coedge $-1 $63 $176 $171 $177 forward $58 $-1 #
vertex $-1 $104 $178 #
vertex $-1 $177 $179 #
straight-curve $-1 -52.900784325693536 0 1.6774549564730905 0 -1 0 I I #
face $-1 $-1 $126 $14 $-1 $180 reversed single #
loop $-1 $-1 $122 $65 #
plane-surface $-1 0 -27.485740928008887 0 0 1 0 0 0 1 forward_v I I I I #
coedge $-1 $181 $182 $118 $183 forward $66 $-1 #
coedge $-1 $118 $68 $70 $124 reversed $41 $-1 #
coedge $-1 $68 $117 $116 $183 reversed $41 $-1 #
coedge $-1 $184 $71 $68 $120 forward $126 $-1 #
edge $-1 $128 -73.57255578946021 $185 -69.780334696982365 $119 $186 forward 7 unknown #
coedge $-1 $70 $69 $181 $187 reversed $27 $-1 #
coedge $-1 $188 $189 $69 $123 forward $114 $-1 #
edge $-1 $190 64.220217167141612 $127 69.170610170471235 $122 $191 forward 7 unknown #
edge $-1 $192 100.85117564805749 $128 105.8015686513871 $117 $193 forward 7 unknown #
coedge $-1 $71 $184 $188 $194 forward $126 $-1 #
loop $-1 $-1 $119 $113 #
vertex $-1 $123 $195 #
vertex $-1 $72 $196 #
straight-curve $-1 52.900784325693536 -11.963110349208806 1.911529406139131 0 1 0 I I #
coedge $-1 $130 $130 $-1 $197 reversed $75 $-1 #
edge $-1 $198 0 $198 6.2831853071796004 $76 $199 forward 7 unknown #
vertex $-1 $79 $200 #
ellipse-curve $-1 51.309758707328065 -23.926220698417612 3.8076399523780555 0.7660444514056185 0 0.64278759981090561 0.3213937999054528 0 -0.38302222570280925 1 I I #
face $-1 $-1 $95 $12 $-1 $201 reversed single #
loop $-1 $-1 $149 $80 #
plane-surface $-1 0 27.485740928008887 0 0 -1 0 0 0 -1 forward_v I I I I #
coedge $-1 $147 $202 $83 $139 reversed $81 $-1 #
coedge $-1 $153 $83 $84 $141 reversed $50 $-1 #
edge $-1 $154 -5.7037504986169631 $203 5.7037504986169631 $137 $204 forward 7 unknown #
coedge $-1 $85 $84 $202 $205 forward $33 $-1 #
edge $-1 $145 -52.900784325693536 $203 52.900784325693536 $138 $206 forward 7 unknown #
coedge $-1 $150 $149 $85 $143 reversed $135 $-1 #
edge $-1 $207 -52.900784325693536 $144 52.900784325693536 $142 $208 forward 7 unknown #
vertex $-1 $87 $209 #
vertex $-1 $156 $210 #
straight-curve $-1 52.900784325693536 0 -5.7037504986169631 0 -1 0 I I #
coedge $-1 $211 $137 $88 $148 reversed $81 $-1 #
edge $-1 $151 -27.485740928008887 $154 27.485740928008887 $147 $212 forward 7 unknown #
coedge $-1 $142 $89 $94 $157 forward $135 $-1 #
coedge $-1 $89 $142 $211 $213 reversed $135 $-1 #
vertex $-1 $90 $214 #
straight-curve $-1 0 27.485740928008887 5.7037504986169631 -1 0 0 I I #
coedge $-1 $91 $138 $93 $156 reversed $50 $-1 #
vertex $-1 $148 $215 #
straight-curve $-1 0 -27.485740928008887 5.7037504986169631 1 0 0 I I #
edge $-1 $96 -5.7037504986169631 $145 5.7037504986169631 $93 $216 forward 7 unknown #
edge $-1 $97 -5.7037504986169631 $144 5.7037504986169631 $94 $217 forward 7 unknown #
point $-1 52.900784325693536 -27.485740928008887 5.7037504986169631 #
point $-1 52.900784325693536 27.485740928008887 5.7037504986169631 #
face $-1 $-1 $173 $13 $-1 $218 reversed single #
loop $-1 $-1 $219 $99 #
plane-surface $-1 -59.50444172234053 0 0.036828142162511845 1 0 0 0 0 -1 forward_v I I I I #
coedge $-1 $220 $165 $105 $170 reversed $100 $-1 #
coedge $-1 $103 $102 $219 $221 reversed $37 $-1 #
coedge $-1 $163 $222 $102 $166 forward $100 $-1 #
edge $-1 $223 -3.3018286983234972 $168 3.3018286983234972 $102 $224 forward 7 unknown #
edge $-1 $110 -3.3018286983234972 $225 3.3018286983234972 $103 $226 forward 7 unknown #
vertex $-1 $104 $227 #
straight-curve $-1 -52.900784325693536 27.485740928008887 0 0 0 -1 I I #
edge $-1 $174 -27.485740928008887 $168 27.485740928008887 $163 $228 forward 7 unknown #
coedge $-1 $229 $106 $109 $177 reversed $173 $-1 #
coedge $-1 $106 $229 $220 $230 reversed $173 $-1 #
loop $-1 $-1 $106 $160 #
vertex $-1 $107 $231 #
straight-curve $-1 -52.900784325693536 -27.485740928008887 0 0 0 1 I I #
coedge $-1 $109 $108 $232 $233 forward $58 $-1 #
edge $-1 $234 -3.3018286983234972 $111 3.3018286983234972 $171 $235 forward 7 unknown #
point $-1 -52.900784325693536 27.485740928008887 1.6774549564730905 #
point $-1 -52.900784325693536 -27.485740928008887 1.6774549564730905 #
plane-surface $-1 52.900784325693536 0 0 -1 0 0 0 0 1 forward_v I I I I #
coedge $-1 $236 $116 $121 $187 forward $66 $-1 #
coedge $-1 $116 $236 $184 $237 forward $66 $-1 #
edge $-1 $185 -19.930008039970843 $192 -16.747956803239902 $116 $238 forward 7 unknown #
coedge $-1 $125 $119 $182 $237 reversed $126 $-1 #
vertex $-1 $120 $239 #
straight-curve $-1 52.900784325693536 -20.366700468826338 75.484085195599334 0 0 1 I I #
edge $-1 $192 8.4035901196175313 $190 15.522630578800081 $181 $240 forward 7 unknown #
coedge $-1 $189 $122 $125 $194 reversed $114 $-1 #
coedge $-1 $122 $188 $236 $241 reversed $114 $-1 #
vertex $-1 $241 $242 #
straight-curve $-1 8.4387738367605252 -27.485740928008887 54.899291527569652 0.64278759981090572 0 -0.76604445140561861 I I #
vertex $-1 $187 $243 #
straight-curve $-1 -15.107152043960312 -20.366700468826338 82.960234021544821 0.64278759981090561 0 -0.7660444514056185 I I #
edge $-1 $244 -5.7037504986169631 $127 -1.911529406139131 $125 $245 forward 7 unknown #
point $-1 52.900784325693536 -27.485740928008887 1.911529406139131 #
point $-1 52.900784325693536 -20.366700468826338 1.9115294061391239 #
edge $-1 $246 1 $246 0 $130 $-1 forward 7 unknown #
vertex $-1 $131 $247 #
ellipse-curve $-1 50.543714255922438 -23.926220698417612 3.164852352567145 0.7660444514056185 0 0.64278759981090561 0.3213937999054528 0 -0.38302222570280925 1 I I #
point $-1 51.631152507233516 -23.926220698417612 3.4246177266752413 #
plane-surface $-1 52.900784325693536 0 0 -1 0 0 0 0 1 forward_v I I I I #
coedge $-1 $137 $211 $140 $205 reversed $81 $-1 #
vertex $-1 $205 $248 #
straight-curve $-1 -52.900784325693536 -27.485740928008887 0 0 0 -1 I I #
edge $-1 $203 -27.485740928008887 $207 27.485740928008887 $202 $249 forward 7 unknown #
straight-curve $-1 0 -27.485740928008887 -5.7037504986169631 -1 0 0 I I #
vertex $-1 $143 $250 #
straight-curve $-1 0 27.485740928008887 -5.7037504986169631 1 0 0 I I #
point $-1 52.900784325693536 27.485740928008887 -5.7037504986169631 #
point $-1 52.900784325693536 -27.485740928008887 -5.7037504986169631 #
coedge $-1 $202 $147 $150 $213 forward $81 $-1 #
straight-curve $-1 -52.900784325693536 0 5.7037504986169631 0 -1 0 I I #
edge $-1 $151 -5.7037504986169631 $207 5.7037504986169631 $150 $251 forward 7 unknown #
point $-1 -52.900784325693536 27.485740928008887 5.7037504986169631 #
point $-1 -52.900784325693536 -27.485740928008887 5.7037504986169631 #
straight-curve $-1 52.900784325693536 -27.485740928008887 0 0 0 -1 I I #
straight-curve $-1 52.900784325693536 27.485740928008887 0 0 0 -1 I I #
plane-surface $-1 0 -27.485740928008887 0 0 1 0 0 0 1 forward_v I I I I #
coedge $-1 $252 $232 $164 $221 forward $161 $-1 #
coedge $-1 $222 $163 $172 $230 forward $100 $-1 #
edge $-1 $225 -1.6406268143105787 $223 1.6406268143105787 $164 $253 forward 7 unknown #
coedge $-1 $165 $220 $252 $254 forward $100 $-1 #
vertex $-1 $166 $255 #
straight-curve $-1 -56.202613024017033 27.485740928008887 -1.6037986721480668 1 0 0 I I #
vertex $-1 $167 $256 #
straight-curve $-1 -56.202613024017033 27.485740928008887 1.6774549564730905 -1 0 0 I I #
point $-1 -52.900784325693536 27.485740928008887 -1.6037986721480668 #
straight-curve $-1 -52.900784325693536 0 -1.6037986721480668 0 1 0 I I #
coedge $-1 $172 $171 $257 $258 forward $173 $-1 #
edge $-1 $174 -3.3018286983234972 $259 3.3018286983234972 $172 $260 forward 7 unknown #
point $-1 -52.900784325693536 -27.485740928008887 -1.6037986721480668 #
coedge $-1 $219 $257 $176 $233 reversed $161 $-1 #
edge $-1 $225 -27.485740928008887 $234 27.485740928008887 $232 $261 forward 7 unknown #
vertex $-1 $233 $262 #
straight-curve $-1 -56.202613024017033 -27.485740928008887 1.6774549564730905 1 0 0 I I #
coedge $-1 $182 $181 $189 $241 forward $66 $-1 #
edge $-1 $244 -27.485740928008887 $185 -20.366700468826338 $184 $263 forward 7 unknown #
straight-curve $-1 32.970776285722692 -20.366700468826338 5.7037504986169694 -1 0 0 I I #
point $-1 52.900784325693536 -20.366700468826338 5.7037504986169631 #
straight-curve $-1 49.718733088962601 -11.963110349208806 5.7037504986169623 0 -1 0 I I #
edge $-1 $190 49.718733088962594 $244 52.900784325693536 $189 $264 forward 7 unknown #
point $-1 49.718733088962594 -27.485740928008887 5.7037504986169694 #
point $-1 49.718733088962594 -20.366700468826338 5.7037504986169694 #
vertex $-1 $237 $265 #
straight-curve $-1 52.900784325693536 -27.485740928008887 0 0 0 -1 I I #
vertex $-1 $197 $266 #
point $-1 50.865108055827896 -23.926220698417612 2.7818301268643357 #
point $-1 -52.900784325693536 -27.485740928008887 -5.7037504986169631 #
straight-curve $-1 -52.900784325693536 0 -5.7037504986169631 0 1 0 I I #
point $-1 -52.900784325693536 27.485740928008887 -5.7037504986169631 #
straight-curve $-1 -52.900784325693536 27.485740928008887 0 0 0 -1 I I #
coedge $-1 $257 $219 $222 $254 reversed $161 $-1 #
straight-curve $-1 -59.50444172234053 27.485740928008887 0.036828142162511845 0 0 -1 I I #
edge $-1 $259 -27.485740928008887 $223 27.485740928008887 $252 $267 forward 7 unknown #
point $-1 -59.50444172234053 27.485740928008887 -1.6037986721480668 #
point $-1 -59.50444172234053 27.485740928008887 1.6774549564730905 #
coedge $-1 $232 $252 $229 $258 reversed $161 $-1 #
edge $-1 $234 -1.6406268143105787 $259 1.6406268143105787 $257 $268 forward 7 unknown #
vertex $-1 $254 $269 #
straight-curve $-1 -56.202613024017033 -27.485740928008887 -1.6037986721480668 -1 0 0 I I #
straight-curve $-1 -59.50444172234053 0 1.6774549564730905 0 -1 0 I I #
point $-1 -59.50444172234053 -27.485740928008887 1.6774549564730905 #
straight-curve $-1 52.900784325693536 0 5.7037504986169631 0 1 0 I I #
straight-curve $-1 0 -27.485740928008887 5.7037504986169631 1 0 0 I I #
point $-1 52.900784325693536 -27.485740928008887 5.7037504986169631 #
point $-1 50.160692030219636 -23.926220698417612 2.8434585526616925 #
straight-curve $-1 -59.50444172234053 0 -1.6037986721480668 0 1 0 I I #
straight-curve $-1 -59.50444172234053 -27.485740928008887 0.036828142162511845 0 0 -1 I I #
point $-1 -59.50444172234053 -27.485740928008887 -1.6037986721480668 #
End-of-ACIS-data 