500 0 8 0           
7 Unknown 11 ACIS 5.0 NT 24 Thu Mar 25 22:16:39 1999 
-1 9.9999999999999995e-007 1e-010 
body $-1 $8 $-1 $9 #
body $-1 $10 $-1 $11 #
body $-1 $12 $-1 $13 #
body $-1 $14 $-1 $15 #
body $-1 $16 $-1 $17 #
body $-1 $18 $-1 $19 #
body $-1 $20 $-1 $21 #
body $-1 $22 $-1 $23 #
lump $-1 $-1 $24 $0 #
transform $-1 1 0 0 0 1 0 0 0 1 42.915128025147254 29.859457313581409 8.195836455355078 1 rotate no_reflect no_shear #
lump $-1 $-1 $25 $1 #
transform $-1 1 0 0 0 1 0 0 0 1 42.915128025147254 29.859457313581409 8.195836455355078 1 rotate no_reflect no_shear #
lump $-1 $-1 $26 $2 #
transform $-1 1 0 0 0 1 0 0 0 1 42.915128025147254 29.859457313581409 8.195836455355078 1 rotate no_reflect no_shear #
lump $-1 $-1 $27 $3 #
transform $-1 1 0 0 0 1 0 0 0 1 42.915128025147254 29.859457313581409 8.195836455355078 1 rotate no_reflect no_shear #
lump $-1 $-1 $28 $4 #
transform $-1 1 0 0 0 1 0 0 0 1 42.915128025147254 29.859457313581409 8.195836455355078 1 rotate no_reflect no_shear #
lump $-1 $-1 $29 $5 #
transform $-1 1 0 0 0 1 0 0 0 1 42.915128025147254 29.859457313581409 8.195836455355078 1 rotate no_reflect no_shear #
lump $-1 $-1 $30 $6 #
transform $-1 1 0 0 0 1 0 0 0 1 42.915128025147254 29.859457313581409 8.195836455355078 1 rotate no_reflect no_shear #
lump $-1 $-1 $31 $7 #
transform $-1 1 0 0 0 1 0 0 0 1 42.915128025147254 29.859457313581409 8.195836455355078 1 rotate no_reflect no_shear #
shell $-1 $-1 $-1 $32 $-1 $8 #
shell $-1 $-1 $-1 $33 $-1 $10 #
shell $-1 $-1 $-1 $34 $-1 $12 #
shell $-1 $-1 $-1 $35 $-1 $14 #
shell $-1 $-1 $-1 $36 $-1 $16 #
shell $-1 $-1 $-1 $37 $-1 $18 #
shell $-1 $-1 $-1 $38 $-1 $20 #
shell $-1 $-1 $-1 $39 $-1 $22 #
face $-1 $40 $41 $24 $-1 $42 forward single #
face $-1 $43 $44 $25 $-1 $45 reversed single #
face $-1 $46 $47 $26 $-1 $48 forward single #
face $-1 $49 $50 $27 $-1 $51 forward single #
face $-1 $52 $53 $28 $-1 $54 forward single #
face $-1 $55 $56 $29 $-1 $57 reversed single #
face $-1 $58 $59 $30 $-1 $60 forward single #
face $-1 $61 $62 $31 $-1 $63 forward single #
face $-1 $64 $65 $24 $-1 $66 reversed single #
loop $-1 $-1 $67 $32 #
plane-surface $-1 0 0 8.195836455355078 0 0 1 1 0 0 forward_v I I I I #
face $-1 $68 $69 $25 $-1 $70 reversed single #
loop $-1 $-1 $71 $33 #
plane-surface $-1 31.356581946460409 -29.859457313581416 3.8286529500579505 0 -0.75470958851134928 0.65605901945558964 1 0 0 forward_v I I I I #
face $-1 $72 $73 $26 $-1 $74 forward single #
loop $-1 $75 $76 $34 #
cone-surface $-1 24.421454299248296 -26.609275702163561 4.8369566250050653 0 0.75470958851134928 -0.65605901945558964 1 0 0 1 I I 0 1 1 forward I I I I #
face $-1 $77 $78 $27 $-1 $79 forward single #
loop $-1 $80 $81 $35 #
cone-surface $-1 31.356581946460409 -26.609275702163561 4.8369566250050653 0 0.75470958851134928 -0.65605901945558964 1 0 0 1 I I 0 1 1 forward I I I I #
face $-1 $82 $83 $28 $-1 $84 forward single #
loop $-1 $85 $86 $36 #
cone-surface $-1 38.291709593672522 -26.609275702163561 4.8369566250050653 0 0.75470958851134928 -0.65605901945558964 1 0 0 1 I I 0 1 1 forward I I I I #
face $-1 $87 $88 $29 $-1 $89 reversed single #
loop $-1 $-1 $90 $37 #
plane-surface $-1 12.275715599110896 28.345904298390522 107.70484147518593 1 0 0 0 -0.55919291073839883 -0.82903756765294845 forward_v I I I I #
face $-1 $91 $92 $30 $-1 $93 forward single #
loop $-1 $94 $95 $38 #
cone-surface $-1 16.92726650990874 25.078616812795442 4.1280114830800034 0 -0.55919291073839883 -0.82903756765294845 1 0 0 1 I I 0 1 1 forward I I I I #
face $-1 $96 $97 $31 $-1 $98 forward single #
loop $-1 $99 $100 $39 #
cone-surface $-1 23.904592876105511 25.078616812795442 4.1280114830800034 0 -0.55919291073839883 -0.82903756765294845 1 0 0 1 I I 0 1 1 forward I I I I #
face $-1 $101 $102 $24 $-1 $103 reversed single #
loop $-1 $-1 $104 $40 #
plane-surface $-1 0 0 -8.195836455355078 0 0 1 1 0 0 forward_v I I I I #
coedge $-1 $105 $106 $107 $108 forward $41 $-1 #
face $-1 $109 $110 $25 $-1 $111 reversed single #
loop $-1 $-1 $112 $43 #
plane-surface $-1 19.798035867773557 -94.636374539122926 60.138366574036354 1 0 0 0 0.75470958851134928 -0.65605901945558964 forward_v I I I I #
coedge $-1 $113 $114 $115 $116 reversed $44 $-1 #
face $-1 $-1 $117 $26 $-1 $118 forward single #
loop $-1 $119 $120 $46 #
cone-surface $-1 24.421454299248296 -24.879906599438506 3.3336390375758302 0 0.75470958851134928 -0.65605901945558964 0.5 0 0 1 I I -0.70710678118654746 0.70710678118654746 0.5 forward I I I I #
loop $-1 $-1 $121 $34 #
coedge $-1 $76 $76 $122 $123 reversed $47 $-1 #
face $-1 $-1 $124 $27 $-1 $125 forward single #
loop $-1 $126 $127 $49 #
cone-surface $-1 31.356581946460409 -24.879906599438506 3.3336390375758302 0 0.75470958851134928 -0.65605901945558964 0.5 0 0 1 I I -0.70710678118654746 0.70710678118654746 0.5 forward I I I I #
loop $-1 $-1 $128 $35 #
coedge $-1 $81 $81 $129 $130 reversed $50 $-1 #
face $-1 $-1 $131 $28 $-1 $132 forward single #
loop $-1 $133 $134 $52 #
cone-surface $-1 38.291709593672522 -24.879906599438506 3.3336390375758302 0 0.75470958851134928 -0.65605901945558964 0.5 0 0 1 I I -0.70710678118654746 0.70710678118654746 0.5 forward I I I I #
loop $-1 $-1 $135 $36 #
coedge $-1 $86 $86 $136 $137 reversed $53 $-1 #
face $-1 $138 $139 $29 $-1 $140 reversed single #
loop $-1 $-1 $141 $55 #
plane-surface $-1 20.415929693007129 -19.649766411795731 36.548334768220002 0 0.55919291073839883 0.82903756765294845 1 0 0 forward_v I I I I #
coedge $-1 $142 $143 $144 $145 reversed $56 $-1 #
face $-1 $-1 $146 $30 $-1 $147 forward single #
loop $-1 $148 $149 $58 #
cone-surface $-1 16.92726650990874 23.755638437517952 2.1666154187965567 0 -0.55919291073839883 -0.82903756765294845 0.5 0 0 1 I I -0.70710678118654746 0.70710678118654746 0.5 forward I I I I #
loop $-1 $-1 $150 $38 #
coedge $-1 $95 $95 $151 $152 reversed $59 $-1 #
face $-1 $-1 $153 $31 $-1 $154 forward single #
loop $-1 $155 $156 $61 #
cone-surface $-1 23.904592876105511 23.755638437517952 2.1666154187965567 0 -0.55919291073839883 -0.82903756765294845 0.5 0 0 1 I I -0.70710678118654746 0.70710678118654746 0.5 forward I I I I #
loop $-1 $-1 $157 $39 #
coedge $-1 $100 $100 $158 $159 reversed $62 $-1 #
face $-1 $160 $161 $24 $-1 $162 reversed single #
loop $-1 $-1 $163 $64 #
plane-surface $-1 0 -29.859457313581409 0 0 1 0 0 0 1 forward_v I I I I #
coedge $-1 $164 $165 $166 $167 forward $65 $-1 #
coedge $-1 $168 $67 $169 $170 forward $41 $-1 #
coedge $-1 $67 $168 $171 $172 forward $41 $-1 #
coedge $-1 $173 $174 $67 $108 reversed $175 $-1 #
edge $-1 $176 -29.859457313581409 $177 29.859457313581409 $107 $178 forward 7 unknown #
face $-1 $179 $180 $25 $-1 $181 forward single #
loop $-1 $-1 $182 $68 #
plane-surface $-1 0 -29.859457313581409 0 0 1 0 0 0 1 forward_v I I I I #
coedge $-1 $183 $184 $185 $186 reversed $69 $-1 #
coedge $-1 $187 $71 $188 $189 reversed $44 $-1 #
coedge $-1 $71 $187 $183 $190 forward $44 $-1 #
coedge $-1 $185 $191 $71 $116 forward $180 $-1 #
edge $-1 $192 -27.236837051917057 $193 -4.1197448945433521 $115 $194 forward 7 unknown #
loop $-1 $-1 $122 $72 #
plane-surface $-1 31.356581946460409 -29.859457313581416 3.8286529500579505 0 -0.75470958851134928 0.65605901945558964 1 0 0 forward_v I I I I #
loop $-1 $-1 $195 $46 #
coedge $-1 $120 $120 $121 $196 reversed $73 $-1 #
coedge $-1 $121 $121 $120 $196 forward $75 $-1 #
coedge $-1 $122 $122 $76 $123 forward $117 $-1 #
edge $-1 $197 6.0904140454622302e-016 $197 6.2831853071796013 $122 $198 forward 7 unknown #
loop $-1 $-1 $129 $77 #
plane-surface $-1 31.356581946460409 -29.859457313581416 3.8286529500579505 0 -0.75470958851134928 0.65605901945558964 1 0 0 forward_v I I I I #
loop $-1 $-1 $199 $49 #
coedge $-1 $127 $127 $128 $200 reversed $78 $-1 #
coedge $-1 $128 $128 $127 $200 forward $80 $-1 #
coedge $-1 $129 $129 $81 $130 forward $124 $-1 #
edge $-1 $201 6.0904140454622302e-016 $201 6.2831853071796013 $129 $202 forward 7 unknown #
loop $-1 $-1 $136 $82 #
plane-surface $-1 31.356581946460409 -29.859457313581416 3.8286529500579505 0 -0.75470958851134928 0.65605901945558964 1 0 0 forward_v I I I I #
loop $-1 $-1 $203 $52 #
coedge $-1 $134 $134 $135 $204 reversed $83 $-1 #
coedge $-1 $135 $135 $134 $204 forward $85 $-1 #
coedge $-1 $136 $136 $86 $137 forward $131 $-1 #
edge $-1 $205 6.0904140454622302e-016 $205 6.2831853071796013 $136 $206 forward 7 unknown #
face $-1 $207 $208 $29 $-1 $209 forward single #
loop $-1 $-1 $210 $87 #
plane-surface $-1 28.556143786903363 28.345904298390522 107.70484147518593 -1 0 0 0 0.55919291073839883 0.82903756765294845 forward_v I I I I #
coedge $-1 $211 $212 $213 $214 reversed $88 $-1 #
coedge $-1 $143 $90 $215 $216 reversed $56 $-1 #
coedge $-1 $90 $142 $211 $217 reversed $56 $-1 #
coedge $-1 $213 $218 $90 $145 forward $208 $-1 #
edge $-1 $219 -15.686505164386148 $220 -8.2115880026308119 $144 $221 forward 7 unknown #
loop $-1 $-1 $151 $91 #
plane-surface $-1 20.415929693007129 -19.649766411795731 36.548334768220002 0 0.55919291073839883 0.82903756765294845 1 0 0 forward_v I I I I #
loop $-1 $-1 $222 $58 #
coedge $-1 $149 $149 $150 $223 reversed $92 $-1 #
coedge $-1 $150 $150 $149 $223 forward $94 $-1 #
coedge $-1 $151 $151 $95 $152 forward $146 $-1 #
edge $-1 $224 5.6595377129262459e-016 $224 6.2831853071796013 $151 $225 forward 7 unknown #
loop $-1 $-1 $158 $96 #
plane-surface $-1 20.415929693007129 -19.649766411795731 36.548334768220002 0 0.55919291073839883 0.82903756765294845 1 0 0 forward_v I I I I #
loop $-1 $-1 $226 $61 #
coedge $-1 $156 $156 $157 $227 reversed $97 $-1 #
coedge $-1 $157 $157 $156 $227 forward $99 $-1 #
coedge $-1 $158 $158 $100 $159 forward $153 $-1 #
edge $-1 $228 5.6595377129262459e-016 $228 6.2831853071796013 $158 $229 forward 7 unknown #
face $-1 $230 $231 $24 $-1 $232 reversed single #
loop $-1 $-1 $233 $101 #
plane-surface $-1 -42.915128025147254 0 0 1 0 0 0 0 -1 forward_v I I I I #
coedge $-1 $234 $171 $235 $236 forward $102 $-1 #
coedge $-1 $237 $104 $234 $238 forward $65 $-1 #
coedge $-1 $104 $237 $239 $240 forward $65 $-1 #
coedge $-1 $174 $173 $104 $167 reversed $175 $-1 #
edge $-1 $241 -29.859457313581409 $242 29.859457313581409 $166 $243 forward 7 unknown #
coedge $-1 $106 $105 $244 $245 forward $41 $-1 #
coedge $-1 $246 $247 $105 $170 reversed $231 $-1 #
edge $-1 $177 -42.915128025147254 $248 42.915128025147254 $169 $249 forward 7 unknown #
coedge $-1 $163 $250 $106 $172 reversed $102 $-1 #
edge $-1 $251 -42.915128025147254 $176 42.915128025147254 $171 $252 forward 7 unknown #
coedge $-1 $166 $107 $250 $253 forward $175 $-1 #
coedge $-1 $107 $166 $246 $254 reversed $175 $-1 #
loop $-1 $-1 $173 $230 #
vertex $-1 $108 $255 #
vertex $-1 $108 $256 #
straight-curve $-1 42.915128025147254 0 8.195836455355078 0 1 0 I I #
face $-1 $-1 $257 $25 $-1 $258 reversed single #
loop $-1 $-1 $185 $109 #
plane-surface $-1 0 0 8.195836455355078 0 0 1 1 0 0 forward_v I I I I #
coedge $-1 $259 $260 $184 $261 forward $110 $-1 #
coedge $-1 $184 $112 $114 $190 reversed $69 $-1 #
coedge $-1 $112 $183 $182 $261 reversed $69 $-1 #
coedge $-1 $262 $115 $112 $186 forward $180 $-1 #
edge $-1 $193 -21.255064561876964 $263 -17.458729955980054 $185 $264 forward 7 unknown #
coedge $-1 $114 $113 $259 $265 reversed $44 $-1 #
coedge $-1 $266 $267 $113 $189 forward $257 $-1 #
edge $-1 $268 -8.3500225970666229 $192 -2.5634477717602309 $188 $269 forward 7 unknown #
edge $-1 $270 1.0694430631949516e-014 $193 5.7865748253064018 $183 $271 forward 7 unknown #
coedge $-1 $115 $262 $266 $272 forward $180 $-1 #
vertex $-1 $189 $273 #
vertex $-1 $116 $274 #
straight-curve $-1 15.678290973230204 -26.063122707684499 8.195836455355078 -1 0 0 I I #
coedge $-1 $195 $195 $-1 $275 reversed $119 $-1 #
edge $-1 $276 0 $276 6.2831853071796004 $120 $277 forward 7 unknown #
vertex $-1 $123 $278 #
ellipse-curve $-1 24.421454299248296 -27.961290010632954 6.0122447027065169 0 -0.75470958851134928 0.65605901945558964 1 0 0 1 I I #
coedge $-1 $199 $199 $-1 $279 reversed $126 $-1 #
edge $-1 $280 0 $280 6.2831853071796004 $127 $281 forward 7 unknown #
vertex $-1 $130 $282 #
ellipse-curve $-1 31.356581946460409 -27.961290010632954 6.0122447027065169 0 -0.75470958851134928 0.65605901945558964 1 0 0 1 I I #
coedge $-1 $203 $203 $-1 $283 reversed $133 $-1 #
edge $-1 $284 0 $284 6.2831853071796004 $134 $285 forward 7 unknown #
vertex $-1 $137 $286 #
ellipse-curve $-1 38.291709593672522 -27.961290010632954 6.0122447027065169 0 -0.75470958851134928 0.65605901945558964 1 0 0 1 I I #
face $-1 $-1 $287 $29 $-1 $288 reversed single #
loop $-1 $-1 $144 $138 #
plane-surface $-1 0 0 8.195836455355078 0 0 1 1 0 0 forward_v I I I I #
coedge $-1 $289 $290 $291 $292 reversed $139 $-1 #
coedge $-1 $293 $141 $143 $217 forward $88 $-1 #
coedge $-1 $141 $293 $289 $294 forward $88 $-1 #
coedge $-1 $291 $144 $141 $214 forward $208 $-1 #
edge $-1 $220 2.0677507526073313 $295 18.348178940399798 $213 $296 forward 7 unknown #
coedge $-1 $297 $298 $142 $216 forward $287 $-1 #
edge $-1 $299 -50.698479665874075 $219 -45.656584282237887 $215 $300 forward 7 unknown #
edge $-1 $220 50.702535329759868 $299 59.718914627162803 $143 $301 forward 7 unknown #
coedge $-1 $144 $291 $297 $302 forward $208 $-1 #
vertex $-1 $216 $303 #
vertex $-1 $145 $304 #
straight-curve $-1 12.275715599110896 14.172952149195261 8.195836455355078 0 -1 0 I I #
coedge $-1 $222 $222 $-1 $305 reversed $148 $-1 #
edge $-1 $306 0 $306 6.2831853071796004 $149 $307 forward 7 unknown #
vertex $-1 $152 $308 #
ellipse-curve $-1 16.92726650990874 26.121998732703741 5.6748887635369876 0 0.55919291073839883 0.82903756765294845 1 0 0 1 I I #
coedge $-1 $226 $226 $-1 $309 reversed $155 $-1 #
edge $-1 $310 0 $310 6.2831853071796004 $156 $311 forward 7 unknown #
vertex $-1 $159 $312 #
ellipse-curve $-1 23.904592876105511 26.121998732703741 5.6748887635369876 0 0.55919291073839883 0.82903756765294845 1 0 0 1 I I #
face $-1 $-1 $175 $24 $-1 $313 reversed single #
loop $-1 $-1 $246 $160 #
plane-surface $-1 0 29.859457313581409 0 0 -1 0 0 0 -1 forward_v I I I I #
coedge $-1 $314 $244 $247 $315 forward $161 $-1 #
coedge $-1 $250 $163 $164 $238 reversed $102 $-1 #
coedge $-1 $244 $314 $163 $236 reversed $161 $-1 #
edge $-1 $251 -8.195836455355078 $316 8.195836455355078 $235 $317 forward 7 unknown #
coedge $-1 $165 $164 $314 $318 forward $65 $-1 #
edge $-1 $242 -42.915128025147254 $316 42.915128025147254 $234 $319 forward 7 unknown #
coedge $-1 $247 $246 $165 $240 reversed $231 $-1 #
edge $-1 $320 -42.915128025147254 $241 42.915128025147254 $239 $321 forward 7 unknown #
vertex $-1 $167 $322 #
vertex $-1 $253 $323 #
straight-curve $-1 42.915128025147254 0 -8.195836455355078 0 -1 0 I I #
coedge $-1 $233 $235 $168 $245 reversed $161 $-1 #
edge $-1 $248 -29.859457313581409 $251 29.859457313581409 $244 $324 forward 7 unknown #
coedge $-1 $239 $169 $174 $254 forward $231 $-1 #
coedge $-1 $169 $239 $233 $315 reversed $231 $-1 #
vertex $-1 $170 $325 #
straight-curve $-1 0 29.859457313581409 8.195836455355078 -1 0 0 I I #
coedge $-1 $171 $234 $173 $253 reversed $102 $-1 #
vertex $-1 $245 $326 #
straight-curve $-1 0 -29.859457313581409 8.195836455355078 1 0 0 I I #
edge $-1 $176 -8.195836455355078 $242 8.195836455355078 $173 $327 forward 7 unknown #
edge $-1 $177 -8.195836455355078 $241 8.195836455355078 $174 $328 forward 7 unknown #
point $-1 42.915128025147254 -29.859457313581409 8.195836455355078 #
point $-1 42.915128025147254 29.859457313581409 8.195836455355078 #
loop $-1 $-1 $188 $179 #
plane-surface $-1 42.915128025147254 0 0 -1 0 0 0 0 1 forward_v I I I I #
coedge $-1 $329 $182 $187 $265 forward $110 $-1 #
coedge $-1 $182 $329 $262 $330 reversed $110 $-1 #
edge $-1 $263 21.873346831663099 $270 26.240530336960219 $182 $331 forward 7 unknown #
coedge $-1 $191 $185 $260 $330 forward $180 $-1 #
vertex $-1 $330 $332 #
straight-curve $-1 19.798035867773557 -47.318187269561463 8.195836455355078 0 -1 0 I I #
edge $-1 $270 4.1197448945433521 $268 27.236837051917057 $259 $333 forward 7 unknown #
coedge $-1 $267 $188 $191 $272 reversed $257 $-1 #
coedge $-1 $188 $266 $329 $334 forward $257 $-1 #
vertex $-1 $265 $335 #
straight-curve $-1 42.915128025147254 -24.381349676117864 10.130495068350575 0 0.65605901945558975 0.75470958851134939 I I #
vertex $-1 $265 $336 #
straight-curve $-1 19.798035867773557 -29.859457313581416 3.8286529500579505 0 0.65605901945558964 0.75470958851134928 I I #
edge $-1 $337 -29.859457313581409 $192 -26.063122707684499 $266 $338 forward 7 unknown #
point $-1 42.915128025147261 -26.063122707684499 8.195836455355078 #
point $-1 19.798035867773557 -26.063122707684499 8.195836455355078 #
edge $-1 $339 1 $339 0 $195 $-1 forward 7 unknown #
vertex $-1 $196 $340 #
ellipse-curve $-1 24.421454299248296 -25.257261393694179 3.6616685473036252 0 -0.75470958851134928 0.65605901945558964 1 0 0 1 I I #
point $-1 25.421454299248296 -27.96129001063294 6.0122447027065054 #
edge $-1 $341 1 $341 0 $199 $-1 forward 7 unknown #
vertex $-1 $200 $342 #
ellipse-curve $-1 31.356581946460409 -25.257261393694179 3.6616685473036252 0 -0.75470958851134928 0.65605901945558964 1 0 0 1 I I #
point $-1 32.356581946460409 -27.96129001063294 6.0122447027065054 #
edge $-1 $343 1 $343 0 $203 $-1 forward 7 unknown #
vertex $-1 $204 $344 #
ellipse-curve $-1 38.291709593672522 -25.257261393694179 3.6616685473036252 0 -0.75470958851134928 0.65605901945558964 1 0 0 1 I I #
point $-1 39.291709593672522 -27.96129001063294 6.0122447027065054 #
loop $-1 $-1 $215 $207 #
plane-surface $-1 0 29.859457313581409 0 0 -1 0 0 0 -1 forward_v I I I I #
coedge $-1 $290 $210 $212 $294 reversed $139 $-1 #
coedge $-1 $210 $289 $345 $346 reversed $139 $-1 #
coedge $-1 $218 $213 $210 $292 forward $208 $-1 #
edge $-1 $295 8.2115880026308119 $347 15.686505164386148 $291 $348 forward 7 unknown #
coedge $-1 $212 $211 $298 $349 reversed $88 $-1 #
edge $-1 $350 -59.718914627162803 $295 -50.702535329759868 $289 $351 forward 7 unknown #
vertex $-1 $214 $352 #
straight-curve $-1 10.207964846503565 22.384540151826073 8.1958364553550744 1 0 0 I I #
coedge $-1 $345 $215 $218 $302 reversed $287 $-1 #
coedge $-1 $215 $345 $293 $349 forward $287 $-1 #
vertex $-1 $216 $353 #
straight-curve $-1 12.275715599110896 29.859457313581409 53.852420737592965 0 0 1 I I #
straight-curve $-1 12.275715599110896 -19.649766411795731 36.548334768220002 0 0.82903756765294845 -0.55919291073839883 I I #
edge $-1 $347 -28.556143786903363 $219 -12.275715599110896 $297 $354 forward 7 unknown #
point $-1 12.275715599110896 29.859457313581409 8.195836455355078 #
point $-1 12.275715599110896 22.384540151826073 8.195836455355078 #
edge $-1 $355 1 $355 0 $222 $-1 forward 7 unknown #
vertex $-1 $223 $356 #
ellipse-curve $-1 16.92726650990874 24.03523489288715 2.5811342026230308 0 0.55919291073839883 0.82903756765294845 1 0 0 1 I I #
point $-1 17.92726650990874 26.121998732703734 5.674888763536976 #
edge $-1 $357 1 $357 0 $226 $-1 forward 7 unknown #
vertex $-1 $227 $358 #
ellipse-curve $-1 23.904592876105511 24.03523489288715 2.5811342026230308 0 0.55919291073839883 0.82903756765294845 1 0 0 1 I I #
point $-1 24.904592876105511 26.121998732703734 5.674888763536976 #
plane-surface $-1 42.915128025147254 0 0 -1 0 0 0 0 1 forward_v I I I I #
coedge $-1 $235 $233 $237 $318 reversed $161 $-1 #
edge $-1 $248 -8.195836455355078 $320 8.195836455355078 $247 $359 forward 7 unknown #
vertex $-1 $318 $360 #
straight-curve $-1 -42.915128025147254 -29.859457313581409 0 0 0 -1 I I #
edge $-1 $316 -29.859457313581409 $320 29.859457313581409 $314 $361 forward 7 unknown #
straight-curve $-1 0 -29.859457313581409 -8.195836455355078 -1 0 0 I I #
vertex $-1 $240 $362 #
straight-curve $-1 0 29.859457313581409 -8.195836455355078 1 0 0 I I #
point $-1 42.915128025147254 29.859457313581409 -8.195836455355078 #
point $-1 42.915128025147254 -29.859457313581409 -8.195836455355078 #
straight-curve $-1 -42.915128025147254 0 8.195836455355078 0 -1 0 I I #
point $-1 -42.915128025147254 29.859457313581409 8.195836455355078 #
point $-1 -42.915128025147254 -29.859457313581409 8.195836455355078 #
straight-curve $-1 42.915128025147254 -29.859457313581409 0 0 0 -1 I I #
straight-curve $-1 42.915128025147254 29.859457313581409 0 0 0 -1 I I #
coedge $-1 $260 $259 $267 $334 reversed $110 $-1 #
edge $-1 $263 19.798035867773557 $337 42.915128025147254 $260 $363 forward 7 unknown #
straight-curve $-1 19.798035867773557 -29.859457313581409 30.069183287018177 0 0 -1 I I #
point $-1 19.798035867773557 -29.859457313581409 8.195836455355078 #
straight-curve $-1 15.678290973230204 -29.859457313581409 3.8286529500579602 1 0 0 I I #
edge $-1 $337 -8.195836455355078 $268 -3.8286529500579585 $267 $364 forward 7 unknown #
point $-1 42.915128025147261 -29.859457313581409 3.8286529500579585 #
point $-1 19.798035867773557 -29.859457313581409 3.8286529500579585 #
vertex $-1 $272 $365 #
straight-curve $-1 42.915128025147254 0 8.195836455355078 0 1 0 I I #
vertex $-1 $275 $366 #
point $-1 25.421454299248296 -25.257261393694179 3.6616685473036252 #
vertex $-1 $279 $367 #
point $-1 32.356581946460409 -25.257261393694179 3.6616685473036252 #
vertex $-1 $283 $368 #
point $-1 39.291709593672522 -25.257261393694179 3.6616685473036252 #
coedge $-1 $298 $297 $290 $346 forward $287 $-1 #
edge $-1 $347 45.656584282237887 $350 50.698479665874075 $345 $369 forward 7 unknown #
vertex $-1 $302 $370 #
straight-curve $-1 28.556143786903363 14.172952149195261 8.195836455355078 0 1 0 I I #
edge $-1 $350 -18.348178940399798 $299 -2.0677507526073313 $298 $371 forward 7 unknown #
vertex $-1 $349 $372 #
straight-curve $-1 28.556143786903363 -19.649766411795731 36.548334768220002 0 -0.82903756765294845 0.55919291073839883 I I #
point $-1 28.556143786903363 22.384540151826073 8.195836455355078 #
point $-1 12.275715599110896 29.859457313581409 3.15394107171889 #
straight-curve $-1 0 29.859457313581409 8.195836455355078 -1 0 0 I I #
vertex $-1 $305 $373 #
point $-1 17.92726650990874 24.03523489288715 2.5811342026230308 #
vertex $-1 $309 $374 #
point $-1 24.904592876105511 24.03523489288715 2.5811342026230308 #
straight-curve $-1 -42.915128025147254 29.859457313581409 0 0 0 -1 I I #
point $-1 -42.915128025147254 -29.859457313581409 -8.195836455355078 #
straight-curve $-1 -42.915128025147254 0 -8.195836455355078 0 1 0 I I #
point $-1 -42.915128025147254 29.859457313581409 -8.195836455355078 #
straight-curve $-1 0 -29.859457313581409 8.195836455355078 1 0 0 I I #
straight-curve $-1 42.915128025147254 -29.859457313581409 0 0 0 -1 I I #
point $-1 42.915128025147254 -29.859457313581409 8.195836455355078 #
point $-1 24.421454299248296 -24.502551805182833 3.0056095278480353 #
point $-1 31.356581946460409 -24.502551805182833 3.0056095278480353 #
point $-1 38.291709593672522 -24.502551805182833 3.0056095278480353 #
straight-curve $-1 28.556143786903363 29.859457313581409 53.852420737592965 0 0 -1 I I #
point $-1 28.556143786903363 29.859457313581409 8.195836455355078 #
straight-curve $-1 10.207964846503565 29.859457313581409 3.15394107171889 -1 0 0 I I #
point $-1 28.556143786903363 29.859457313581409 3.15394107171889 #
point $-1 16.92726650990874 23.476041982148754 1.7520966349700826 #
point $-1 23.904592876105511 23.476041982148754 1.7520966349700826 #
End-of-ACIS-data 