500 0 2 0           
7 Unknown 11 ACIS 5.0 NT 24 Thu Mar 25 20:29:28 1999 
-1 9.9999999999999995e-007 1e-010 
body $-1 $2 $-1 $3 #
body $-1 $4 $-1 $5 #
lump $-1 $-1 $6 $0 #
transform $-1 1 0 0 0 1 0 0 0 1 73.378704184087653 46.390246548510675 15.008059529001653 1 rotate no_reflect no_shear #
lump $-1 $-1 $7 $1 #
transform $-1 1 0 0 0 1 0 0 0 1 73.378704184087653 46.390246548510675 15.008059529001653 1 rotate no_reflect no_shear #
shell $-1 $-1 $-1 $8 $-1 $2 #
shell $-1 $-1 $-1 $9 $-1 $4 #
face $-1 $10 $11 $6 $-1 $12 forward single #
face $-1 $13 $14 $7 $-1 $15 forward single #
face $-1 $16 $17 $6 $-1 $18 reversed single #
loop $-1 $-1 $19 $8 #
plane-surface $-1 0 0 15.008059529001653 0 0 1 1 0 0 forward_v I I I I #
face $-1 $20 $21 $7 $-1 $22 forward single #
loop $-1 $-1 $23 $9 #
plane-surface $-1 0 -46.390246548510675 0 0 1 0 0 0 1 forward_v I I I I #
face $-1 $24 $25 $6 $-1 $26 reversed single #
loop $-1 $-1 $27 $10 #
plane-surface $-1 0 0 -15.008059529001653 0 0 1 1 0 0 forward_v I I I I #
coedge $-1 $28 $29 $30 $31 forward $11 $-1 #
face $-1 $32 $33 $7 $-1 $34 reversed single #
loop $-1 $-1 $35 $13 #
plane-surface $-1 0 0 15.008059529001653 0 0 1 1 0 0 forward_v I I I I #
coedge $-1 $36 $37 $38 $39 forward $14 $-1 #
face $-1 $40 $41 $6 $-1 $42 reversed single #
loop $-1 $-1 $43 $16 #
plane-surface $-1 0 -46.390246548510675 0 0 1 0 0 0 1 forward_v I I I I #
coedge $-1 $44 $45 $46 $47 forward $17 $-1 #
coedge $-1 $48 $19 $49 $50 forward $11 $-1 #
coedge $-1 $19 $48 $51 $52 forward $11 $-1 #
coedge $-1 $53 $54 $19 $31 reversed $55 $-1 #
edge $-1 $56 -46.390246548510675 $57 46.390246548510675 $30 $58 forward 7 unknown #
face $-1 $59 $60 $7 $-1 $61 reversed single #
loop $-1 $-1 $62 $20 #
plane-surface $-1 -73.378704184087653 0 0 1 0 0 0 0 -1 forward_v I I I I #
coedge $-1 $63 $64 $37 $65 forward $21 $-1 #
coedge $-1 $66 $23 $67 $68 reversed $14 $-1 #
coedge $-1 $23 $66 $35 $65 reversed $14 $-1 #
coedge $-1 $69 $70 $23 $39 reversed $71 $-1 #
edge $-1 $72 -15.008059529001653 $73 15.008059529001653 $38 $74 forward 7 unknown #
face $-1 $75 $76 $6 $-1 $77 reversed single #
loop $-1 $-1 $78 $24 #
plane-surface $-1 -73.378704184087653 0 0 1 0 0 0 0 -1 forward_v I I I I #
coedge $-1 $79 $51 $80 $81 forward $25 $-1 #
coedge $-1 $82 $27 $79 $83 forward $17 $-1 #
coedge $-1 $27 $82 $84 $85 forward $17 $-1 #
coedge $-1 $54 $53 $27 $47 reversed $55 $-1 #
edge $-1 $86 -46.390246548510675 $87 46.390246548510675 $46 $88 forward 7 unknown #
coedge $-1 $29 $28 $89 $90 forward $11 $-1 #
coedge $-1 $91 $92 $28 $50 reversed $76 $-1 #
edge $-1 $57 -73.378704184087653 $93 73.378704184087653 $49 $94 forward 7 unknown #
coedge $-1 $43 $95 $29 $52 reversed $25 $-1 #
edge $-1 $96 -73.378704184087653 $56 73.378704184087653 $51 $97 forward 7 unknown #
coedge $-1 $46 $30 $95 $98 forward $55 $-1 #
coedge $-1 $30 $46 $91 $99 reversed $55 $-1 #
loop $-1 $-1 $53 $75 #
vertex $-1 $31 $100 #
vertex $-1 $31 $101 #
straight-curve $-1 73.378704184087653 0 15.008059529001653 0 1 0 I I #
face $-1 $102 $71 $7 $-1 $103 reversed single #
loop $-1 $-1 $104 $32 #
plane-surface $-1 -70.843772531410892 -59.07094156303414 0 0 1 0 0 0 1 forward_v I I I I #
coedge $-1 $105 $106 $66 $107 forward $33 $-1 #
coedge $-1 $108 $35 $106 $109 forward $21 $-1 #
coedge $-1 $35 $108 $69 $110 forward $21 $-1 #
edge $-1 $72 68.308840878734131 $111 73.378704184087653 $35 $112 forward 7 unknown #
coedge $-1 $37 $36 $62 $107 reversed $14 $-1 #
coedge $-1 $113 $114 $36 $68 forward $115 $-1 #
edge $-1 $116 -73.378704184087653 $73 -68.308840878734131 $67 $117 forward 7 unknown #
coedge $-1 $118 $38 $64 $110 reversed $71 $-1 #
coedge $-1 $38 $118 $113 $119 reversed $71 $-1 #
loop $-1 $-1 $118 $59 #
vertex $-1 $65 $120 #
vertex $-1 $119 $121 #
straight-curve $-1 -68.308840878734131 -46.390246548510675 0 0 0 -1 I I #
face $-1 $-1 $55 $6 $-1 $122 reversed single #
loop $-1 $-1 $91 $40 #
plane-surface $-1 0 46.390246548510675 0 0 -1 0 0 0 -1 forward_v I I I I #
coedge $-1 $123 $89 $92 $124 forward $41 $-1 #
coedge $-1 $95 $43 $44 $83 reversed $25 $-1 #
coedge $-1 $89 $123 $43 $81 reversed $41 $-1 #
edge $-1 $96 -15.008059529001653 $125 15.008059529001653 $80 $126 forward 7 unknown #
coedge $-1 $45 $44 $123 $127 forward $17 $-1 #
edge $-1 $87 -73.378704184087653 $125 73.378704184087653 $79 $128 forward 7 unknown #
coedge $-1 $92 $91 $45 $85 reversed $76 $-1 #
edge $-1 $129 -73.378704184087653 $86 73.378704184087653 $84 $130 forward 7 unknown #
vertex $-1 $47 $131 #
vertex $-1 $98 $132 #
straight-curve $-1 73.378704184087653 0 -15.008059529001653 0 -1 0 I I #
coedge $-1 $78 $80 $48 $90 reversed $41 $-1 #
edge $-1 $93 -46.390246548510675 $96 46.390246548510675 $89 $133 forward 7 unknown #
coedge $-1 $84 $49 $54 $99 forward $76 $-1 #
coedge $-1 $49 $84 $78 $124 reversed $76 $-1 #
vertex $-1 $50 $134 #
straight-curve $-1 0 46.390246548510675 15.008059529001653 -1 0 0 I I #
coedge $-1 $51 $79 $53 $98 reversed $25 $-1 #
vertex $-1 $90 $135 #
straight-curve $-1 0 -46.390246548510675 15.008059529001653 1 0 0 I I #
edge $-1 $56 -15.008059529001653 $87 15.008059529001653 $53 $136 forward 7 unknown #
edge $-1 $57 -15.008059529001653 $86 15.008059529001653 $54 $137 forward 7 unknown #
point $-1 73.378704184087653 -46.390246548510675 15.008059529001653 #
point $-1 73.378704184087653 46.390246548510675 15.008059529001653 #
face $-1 $-1 $115 $7 $-1 $138 reversed single #
plane-surface $-1 -68.308840878734131 -52.730594055772407 0 -1 0 0 0 0 1 forward_v I I I I #
coedge $-1 $139 $140 $141 $142 forward $60 $-1 #
coedge $-1 $141 $62 $114 $143 reversed $33 $-1 #
coedge $-1 $62 $141 $63 $109 reversed $33 $-1 #
edge $-1 $111 -15.008059529001653 $116 15.008059529001653 $62 $144 forward 7 unknown #
coedge $-1 $64 $63 $140 $145 forward $21 $-1 #
edge $-1 $111 46.390246548510675 $146 59.07094156303414 $106 $147 forward 7 unknown #
edge $-1 $148 -6.3403475072617326 $72 6.3403475072617326 $69 $149 forward 7 unknown #
vertex $-1 $109 $150 #
straight-curve $-1 0 -46.390246548510675 15.008059529001653 -1 0 0 I I #
coedge $-1 $151 $67 $70 $119 forward $115 $-1 #
coedge $-1 $67 $151 $105 $143 forward $115 $-1 #
loop $-1 $-1 $67 $102 #
vertex $-1 $107 $152 #
straight-curve $-1 0 -46.390246548510675 -15.008059529001653 1 0 0 I I #
coedge $-1 $70 $69 $153 $154 forward $71 $-1 #
edge $-1 $73 -6.3403475072617326 $155 6.3403475072617326 $70 $156 forward 7 unknown #
point $-1 -68.308840878734131 -46.390246548510675 15.008059529001653 #
point $-1 -68.308840878734131 -46.390246548510675 -15.008059529001653 #
plane-surface $-1 73.378704184087653 0 0 -1 0 0 0 0 1 forward_v I I I I #
coedge $-1 $80 $78 $82 $127 reversed $41 $-1 #
edge $-1 $93 -15.008059529001653 $129 15.008059529001653 $92 $157 forward 7 unknown #
vertex $-1 $127 $158 #
straight-curve $-1 -73.378704184087653 -46.390246548510675 0 0 0 -1 I I #
edge $-1 $125 -46.390246548510675 $129 46.390246548510675 $123 $159 forward 7 unknown #
straight-curve $-1 0 -46.390246548510675 -15.008059529001653 -1 0 0 I I #
vertex $-1 $85 $160 #
straight-curve $-1 0 46.390246548510675 -15.008059529001653 1 0 0 I I #
point $-1 73.378704184087653 46.390246548510675 -15.008059529001653 #
point $-1 73.378704184087653 -46.390246548510675 -15.008059529001653 #
straight-curve $-1 -73.378704184087653 0 15.008059529001653 0 -1 0 I I #
point $-1 -73.378704184087653 46.390246548510675 15.008059529001653 #
point $-1 -73.378704184087653 -46.390246548510675 15.008059529001653 #
straight-curve $-1 73.378704184087653 -46.390246548510675 0 0 0 -1 I I #
straight-curve $-1 73.378704184087653 46.390246548510675 0 0 0 -1 I I #
plane-surface $-1 0 0 -15.008059529001653 0 0 1 1 0 0 forward_v I I I I #
coedge $-1 $153 $104 $151 $161 reversed $60 $-1 #
coedge $-1 $104 $153 $108 $145 reversed $60 $-1 #
coedge $-1 $106 $105 $104 $142 reversed $33 $-1 #
edge $-1 $146 -15.008059529001653 $162 15.008059529001653 $141 $163 forward 7 unknown #
edge $-1 $162 -59.07094156303414 $116 -46.390246548510675 $105 $164 forward 7 unknown #
straight-curve $-1 -73.378704184087653 -46.390246548510675 0 0 0 -1 I I #
edge $-1 $146 -2.5349316526767609 $148 2.5349316526767609 $140 $165 forward 7 unknown #
vertex $-1 $109 $166 #
straight-curve $-1 -73.378704184087653 0 15.008059529001653 0 -1 0 I I #
vertex $-1 $110 $167 #
straight-curve $-1 -68.308840878734131 -52.730594055772407 15.008059529001653 0 1 0 I I #
point $-1 -73.378704184087653 -46.390246548510675 15.008059529001653 #
coedge $-1 $114 $113 $139 $161 forward $115 $-1 #
point $-1 -73.378704184087653 -46.390246548510675 -15.008059529001653 #
coedge $-1 $140 $139 $118 $154 reversed $60 $-1 #
edge $-1 $148 -15.008059529001653 $155 15.008059529001653 $118 $168 forward 7 unknown #
vertex $-1 $154 $169 #
straight-curve $-1 -68.308840878734131 -52.730594055772407 -15.008059529001653 0 -1 0 I I #
straight-curve $-1 -73.378704184087653 46.390246548510675 0 0 0 -1 I I #
point $-1 -73.378704184087653 -46.390246548510675 -15.008059529001653 #
straight-curve $-1 -73.378704184087653 0 -15.008059529001653 0 1 0 I I #
point $-1 -73.378704184087653 46.390246548510675 -15.008059529001653 #
edge $-1 $155 -2.5349316526767609 $162 2.5349316526767609 $139 $170 forward 7 unknown #
vertex $-1 $143 $171 #
straight-curve $-1 -73.378704184087653 -59.07094156303414 0 0 0 -1 I I #
straight-curve $-1 -73.378704184087653 0 -15.008059529001653 0 1 0 I I #
straight-curve $-1 -70.843772531410892 -59.07094156303414 15.008059529001653 1 0 0 I I #
point $-1 -73.378704184087653 -59.07094156303414 15.008059529001653 #
point $-1 -68.308840878734131 -59.07094156303414 15.008059529001653 #
straight-curve $-1 -68.308840878734131 -59.07094156303414 0 0 0 -1 I I #
point $-1 -68.308840878734131 -59.07094156303414 -15.008059529001653 #
straight-curve $-1 -70.843772531410892 -59.07094156303414 -15.008059529001653 -1 0 0 I I #
point $-1 -73.378704184087653 -59.07094156303414 -15.008059529001653 #
End-of-ACIS-data 