500 0 6 0           
7 Unknown 11 ACIS 5.0 NT 24 Thu Mar 25 22:50:39 1999 
-1 9.9999999999999995e-007 1e-010 
body $-1 $6 $-1 $7 #
body $-1 $8 $-1 $9 #
body $-1 $10 $-1 $11 #
body $-1 $12 $-1 $13 #
body $-1 $14 $-1 $15 #
body $-1 $16 $-1 $17 #
lump $-1 $-1 $18 $0 #
transform $-1 1 0 0 0 1 0 0 0 1 55.314188055055389 25.2012365861234 8.0111429343052016 1 rotate no_reflect no_shear #
lump $-1 $-1 $19 $1 #
transform $-1 1 0 0 0 1 0 0 0 1 55.314188055055389 25.2012365861234 8.0111429343052016 1 rotate no_reflect no_shear #
lump $-1 $-1 $20 $2 #
transform $-1 1 0 0 0 1 0 0 0 1 55.314188055055389 25.2012365861234 8.0111429343052016 1 rotate no_reflect no_shear #
lump $-1 $-1 $21 $3 #
transform $-1 1 0 0 0 1 0 0 0 1 55.314188055055389 25.2012365861234 8.0111429343052016 1 rotate no_reflect no_shear #
lump $-1 $-1 $22 $4 #
transform $-1 1 0 0 0 1 0 0 0 1 55.314188055055389 25.2012365861234 8.0111429343052016 1 rotate no_reflect no_shear #
lump $-1 $-1 $23 $5 #
transform $-1 1 0 0 0 1 0 0 0 1 55.314188055055389 25.2012365861234 8.0111429343052016 1 rotate no_reflect no_shear #
shell $-1 $-1 $-1 $24 $-1 $6 #
shell $-1 $-1 $-1 $25 $-1 $8 #
shell $-1 $-1 $-1 $26 $-1 $10 #
shell $-1 $-1 $-1 $27 $-1 $12 #
shell $-1 $-1 $-1 $28 $-1 $14 #
shell $-1 $-1 $-1 $29 $-1 $16 #
face $-1 $30 $31 $18 $-1 $32 forward single #
face $-1 $33 $34 $19 $-1 $35 reversed single #
face $-1 $36 $37 $20 $-1 $38 forward single #
face $-1 $39 $40 $21 $-1 $41 reversed single #
face $-1 $42 $43 $22 $-1 $44 forward single #
face $-1 $45 $46 $23 $-1 $47 forward single #
face $-1 $48 $49 $18 $-1 $50 reversed single #
loop $-1 $-1 $51 $24 #
plane-surface $-1 0 0 8.0111429343052016 0 0 1 1 0 0 forward_v I I I I #
face $-1 $52 $53 $19 $-1 $54 reversed single #
loop $-1 $-1 $55 $25 #
plane-surface $-1 -145.9356494018563 10.875859376420667 65.209647774748561 0 1 0 -0.81915205242281985 0 0.57357642473473569 forward_v I I I I #
face $-1 $56 $57 $20 $-1 $58 forward single #
loop $-1 $59 $60 $26 #
cone-surface $-1 -51.707677932285421 16.70669361966921 3.8916387123771208 0.81915205242281985 0 -0.57357642473473569 0.57357642473473569 0 0.81915205242281985 1 I I 0 1 1 forward I I I I #
face $-1 $61 $62 $21 $-1 $63 reversed single #
loop $-1 $-1 $64 $27 #
plane-surface $-1 98.438247324717992 9.190926469911977 151.51230136849443 0 -1 0 -0.87461971476443456 0 -0.48480960649040278 forward_v I I I I #
face $-1 $65 $66 $22 $-1 $67 forward single #
loop $-1 $68 $69 $28 #
cone-surface $-1 52.615392071884365 -0.22639561312250223 4.1285776404025212 -0.87461971476443456 0 -0.48480960649040278 0.24240480324520139 0 -0.43730985738221728 1 I I 0 1 0.5 forward I I I I #
face $-1 $70 $71 $23 $-1 $72 forward single #
loop $-1 $73 $74 $29 #
cone-surface $-1 52.615392071884365 5.4239976366981821 4.1285776404025212 -0.87461971476443456 0 -0.48480960649040278 0.24240480324520139 0 -0.43730985738221728 1 I I 0 1 0.5 forward I I I I #
face $-1 $75 $76 $18 $-1 $77 reversed single #
loop $-1 $-1 $78 $30 #
plane-surface $-1 0 0 -8.0111429343052016 0 0 1 1 0 0 forward_v I I I I #
coedge $-1 $79 $80 $81 $82 forward $31 $-1 #
face $-1 $83 $84 $19 $-1 $85 reversed single #
loop $-1 $-1 $86 $33 #
plane-surface $-1 -55.314188055055396 16.70669361966921 1.7558193313015735 -0.81915205242281985 0 0.57357642473473569 0.57357642473473569 0 0.81915205242281985 forward_v I I I I #
coedge $-1 $87 $88 $89 $90 reversed $34 $-1 #
face $-1 $-1 $91 $20 $-1 $92 forward single #
loop $-1 $93 $94 $36 #
cone-surface $-1 -49.881604087587256 16.70669361966921 2.6130080795834942 0.81915205242281985 0 -0.57357642473473569 0.28678821236736785 0 0.40957602621140993 1 I I -0.70710678118654746 0.70710678118654746 0.5 forward I I I I #
loop $-1 $-1 $95 $26 #
coedge $-1 $60 $60 $96 $97 reversed $37 $-1 #
face $-1 $98 $99 $21 $-1 $100 reversed single #
loop $-1 $-1 $101 $39 #
plane-surface $-1 1.6804885664403173 2.5988010117878417 97.878601879879355 0.87461971476443456 0 0.48480960649040278 0.48480960649040278 0 -0.87461971476443456 forward_v I I I I #
coedge $-1 $102 $103 $104 $105 reversed $40 $-1 #
face $-1 $-1 $106 $22 $-1 $107 forward single #
loop $-1 $108 $109 $42 #
cone-surface $-1 51.607618865890878 -0.22639561312250223 3.5699598512290116 -0.87461971476443456 0 -0.48480960649040278 0.12120240162260069 0 -0.21865492869110864 1 I I -0.70710678118654746 0.70710678118654746 0.25 forward I I I I #
loop $-1 $-1 $110 $28 #
coedge $-1 $69 $69 $111 $112 reversed $43 $-1 #
face $-1 $-1 $113 $23 $-1 $114 forward single #
loop $-1 $115 $116 $45 #
cone-surface $-1 51.607618865890878 5.4239976366981821 3.5699598512290116 -0.87461971476443456 0 -0.48480960649040278 0.12120240162260069 0 -0.21865492869110864 1 I I -0.70710678118654746 0.70710678118654746 0.25 forward I I I I #
loop $-1 $-1 $117 $29 #
coedge $-1 $74 $74 $118 $119 reversed $46 $-1 #
face $-1 $120 $121 $18 $-1 $122 reversed single #
loop $-1 $-1 $123 $48 #
plane-surface $-1 0 -25.2012365861234 0 0 1 0 0 0 1 forward_v I I I I #
coedge $-1 $124 $125 $126 $127 forward $49 $-1 #
coedge $-1 $128 $51 $129 $130 forward $31 $-1 #
coedge $-1 $51 $128 $131 $132 forward $31 $-1 #
coedge $-1 $133 $134 $51 $82 reversed $135 $-1 #
edge $-1 $136 -25.2012365861234 $137 25.2012365861234 $81 $138 forward 7 unknown #
face $-1 $139 $140 $19 $-1 $141 reversed single #
loop $-1 $-1 $142 $52 #
plane-surface $-1 -145.9356494018563 22.537527862917752 65.209647774748561 0 -1 0 0.81915205242281985 0 -0.57357642473473569 forward_v I I I I #
coedge $-1 $143 $144 $145 $146 reversed $53 $-1 #
coedge $-1 $88 $55 $147 $148 reversed $34 $-1 #
coedge $-1 $55 $87 $143 $149 reversed $34 $-1 #
coedge $-1 $145 $150 $55 $90 forward $151 $-1 #
edge $-1 $152 17.653636645872758 $153 22.033661254439153 $89 $154 forward 7 unknown #
loop $-1 $-1 $96 $56 #
plane-surface $-1 -55.314188055055396 16.70669361966921 1.7558193313015735 -0.81915205242281985 0 0.57357642473473569 0.57357642473473569 0 0.81915205242281985 forward_v I I I I #
loop $-1 $-1 $155 $36 #
coedge $-1 $94 $94 $95 $156 reversed $57 $-1 #
coedge $-1 $95 $95 $94 $156 forward $59 $-1 #
coedge $-1 $96 $96 $60 $97 forward $91 $-1 #
edge $-1 $157 0 $157 6.2831853071796004 $96 $158 forward 7 unknown #
face $-1 $159 $160 $21 $-1 $161 forward single #
loop $-1 $-1 $162 $61 #
plane-surface $-1 98.438247324717992 -3.9933244463362936 151.51230136849443 0 1 0 0.87461971476443456 0 0.48480960649040278 forward_v I I I I #
coedge $-1 $163 $164 $165 $166 reversed $62 $-1 #
coedge $-1 $103 $64 $167 $168 reversed $40 $-1 #
coedge $-1 $64 $102 $163 $169 reversed $40 $-1 #
coedge $-1 $165 $170 $64 $105 forward $160 $-1 #
edge $-1 $171 -6.0950643926963934 $172 -2.275708980959088 $104 $173 forward 7 unknown #
loop $-1 $-1 $111 $65 #
plane-surface $-1 1.6804885664403173 2.5988010117878417 97.878601879879355 0.87461971476443456 0 0.48480960649040278 0.48480960649040278 0 -0.87461971476443456 forward_v I I I I #
loop $-1 $-1 $174 $42 #
coedge $-1 $109 $109 $110 $175 reversed $66 $-1 #
coedge $-1 $110 $110 $109 $175 forward $68 $-1 #
coedge $-1 $111 $111 $69 $112 forward $106 $-1 #
edge $-1 $176 0 $176 6.2831853071796004 $111 $177 forward 7 unknown #
loop $-1 $-1 $118 $70 #
plane-surface $-1 1.6804885664403173 2.5988010117878417 97.878601879879355 0.87461971476443456 0 0.48480960649040278 0.48480960649040278 0 -0.87461971476443456 forward_v I I I I #
loop $-1 $-1 $178 $45 #
coedge $-1 $116 $116 $117 $179 reversed $71 $-1 #
coedge $-1 $117 $117 $116 $179 forward $73 $-1 #
coedge $-1 $118 $118 $74 $119 forward $113 $-1 #
edge $-1 $180 0 $180 6.2831853071796004 $118 $181 forward 7 unknown #
face $-1 $182 $183 $18 $-1 $184 reversed single #
loop $-1 $-1 $185 $75 #
plane-surface $-1 -55.314188055055389 0 0 1 0 0 0 0 -1 forward_v I I I I #
coedge $-1 $186 $131 $187 $188 forward $76 $-1 #
coedge $-1 $189 $78 $186 $190 forward $49 $-1 #
coedge $-1 $78 $189 $191 $192 forward $49 $-1 #
coedge $-1 $134 $133 $78 $127 reversed $135 $-1 #
edge $-1 $193 -25.2012365861234 $194 25.2012365861234 $126 $195 forward 7 unknown #
coedge $-1 $80 $79 $196 $197 forward $31 $-1 #
coedge $-1 $198 $199 $79 $130 reversed $183 $-1 #
edge $-1 $137 -55.314188055055389 $200 55.314188055055389 $129 $201 forward 7 unknown #
coedge $-1 $123 $202 $80 $132 reversed $76 $-1 #
edge $-1 $203 -55.314188055055389 $136 55.314188055055389 $131 $204 forward 7 unknown #
coedge $-1 $126 $81 $202 $205 forward $135 $-1 #
coedge $-1 $81 $126 $198 $206 reversed $135 $-1 #
loop $-1 $-1 $133 $182 #
vertex $-1 $82 $207 #
vertex $-1 $82 $208 #
straight-curve $-1 55.314188055055389 0 8.0111429343052016 0 1 0 I I #
face $-1 $-1 $151 $19 $-1 $209 forward single #
loop $-1 $-1 $210 $83 #
plane-surface $-1 -55.314188055055389 0 0 1 0 0 0 0 -1 forward_v I I I I #
coedge $-1 $211 $212 $213 $214 reversed $84 $-1 #
coedge $-1 $215 $86 $88 $149 forward $53 $-1 #
coedge $-1 $86 $215 $211 $216 forward $53 $-1 #
coedge $-1 $213 $89 $86 $146 forward $151 $-1 #
edge $-1 $153 2.5225125665860624 $217 14.184181053083147 $145 $218 forward 7 unknown #
coedge $-1 $219 $220 $87 $148 forward $140 $-1 #
edge $-1 $221 -30.849004556072696 $152 -24.593680953069079 $147 $222 forward 7 unknown #
edge $-1 $153 -7.636340023201007 $221 -1.2442367137257826e-014 $88 $223 forward 7 unknown #
coedge $-1 $89 $213 $219 $224 forward $151 $-1 #
loop $-1 $-1 $213 $139 #
vertex $-1 $148 $225 #
vertex $-1 $90 $226 #
straight-curve $-1 -72.967824700928148 10.875859376420667 8.0111429343052016 1 0 0 I I #
coedge $-1 $155 $155 $-1 $227 reversed $93 $-1 #
edge $-1 $228 0 $228 6.2831853071796004 $94 $229 forward 7 unknown #
vertex $-1 $97 $230 #
ellipse-curve $-1 -53.124175750772196 16.70669361966921 4.8834811328033902 -0.81915205242281985 0 0.57357642473473569 0.57357642473473569 0 0.81915205242281985 1 I I #
face $-1 $-1 $231 $21 $-1 $232 reversed single #
loop $-1 $-1 $104 $98 #
plane-surface $-1 0 0 8.0111429343052016 0 0 1 1 0 0 forward_v I I I I #
coedge $-1 $233 $234 $235 $236 reversed $99 $-1 #
coedge $-1 $237 $101 $103 $169 forward $62 $-1 #
coedge $-1 $101 $237 $233 $238 forward $62 $-1 #
coedge $-1 $235 $104 $101 $166 forward $160 $-1 #
edge $-1 $172 -7.8915259640180562 $239 5.2927249522302144 $165 $240 forward 7 unknown #
coedge $-1 $241 $242 $102 $168 forward $231 $-1 #
edge $-1 $243 -74.635307562645522 $171 -67.745007749942019 $167 $244 forward 7 unknown #
edge $-1 $172 102.75032385907124 $243 110.62837611011076 $103 $245 forward 7 unknown #
coedge $-1 $104 $235 $241 $246 forward $160 $-1 #
vertex $-1 $168 $247 #
vertex $-1 $105 $248 #
straight-curve $-1 49.219123662358996 9.190926469911977 8.0111429343051981 -1 0 0 I I #
coedge $-1 $174 $174 $-1 $249 reversed $108 $-1 #
edge $-1 $250 0 $250 6.2831853071796004 $109 $251 forward 7 unknown #
vertex $-1 $112 $252 #
ellipse-curve $-1 53.404510349186744 -0.22639561312250223 4.5659930279534322 0.87461971476443456 0 0.48480960649040278 0.24240480324520139 0 -0.43730985738221728 1 I I #
coedge $-1 $178 $178 $-1 $253 reversed $115 $-1 #
edge $-1 $254 0 $254 6.2831853071796004 $116 $255 forward 7 unknown #
vertex $-1 $119 $256 #
ellipse-curve $-1 53.404510349186744 5.4239976366981821 4.5659930279534322 0.87461971476443456 0 0.48480960649040278 0.24240480324520139 0 -0.43730985738221728 1 I I #
face $-1 $-1 $135 $18 $-1 $257 reversed single #
loop $-1 $-1 $198 $120 #
plane-surface $-1 0 25.2012365861234 0 0 -1 0 0 0 -1 forward_v I I I I #
coedge $-1 $258 $196 $199 $259 forward $121 $-1 #
coedge $-1 $202 $123 $124 $190 reversed $76 $-1 #
coedge $-1 $196 $258 $123 $188 reversed $121 $-1 #
edge $-1 $203 -8.0111429343052016 $260 8.0111429343052016 $187 $261 forward 7 unknown #
coedge $-1 $125 $124 $258 $262 forward $49 $-1 #
edge $-1 $194 -55.314188055055389 $260 55.314188055055389 $186 $263 forward 7 unknown #
coedge $-1 $199 $198 $125 $192 reversed $183 $-1 #
edge $-1 $264 -55.314188055055389 $193 55.314188055055389 $191 $265 forward 7 unknown #
vertex $-1 $127 $266 #
vertex $-1 $205 $267 #
straight-curve $-1 55.314188055055389 0 -8.0111429343052016 0 -1 0 I I #
coedge $-1 $185 $187 $128 $197 reversed $121 $-1 #
edge $-1 $200 -25.2012365861234 $203 25.2012365861234 $196 $268 forward 7 unknown #
coedge $-1 $191 $129 $134 $206 forward $183 $-1 #
coedge $-1 $129 $191 $185 $259 reversed $183 $-1 #
vertex $-1 $130 $269 #
straight-curve $-1 0 25.2012365861234 8.0111429343052016 -1 0 0 I I #
coedge $-1 $131 $186 $133 $205 reversed $76 $-1 #
vertex $-1 $197 $270 #
straight-curve $-1 0 -25.2012365861234 8.0111429343052016 1 0 0 I I #
edge $-1 $136 -8.0111429343052016 $194 8.0111429343052016 $133 $271 forward 7 unknown #
edge $-1 $137 -8.0111429343052016 $193 8.0111429343052016 $134 $272 forward 7 unknown #
point $-1 55.314188055055389 -25.2012365861234 8.0111429343052016 #
point $-1 55.314188055055389 25.2012365861234 8.0111429343052016 #
plane-surface $-1 0 0 8.0111429343052016 0 0 1 1 0 0 forward_v I I I I #
coedge $-1 $220 $219 $212 $273 forward $140 $-1 #
coedge $-1 $212 $142 $144 $216 reversed $84 $-1 #
coedge $-1 $142 $211 $210 $273 reversed $84 $-1 #
coedge $-1 $150 $145 $142 $214 forward $151 $-1 #
edge $-1 $217 -22.033661254439153 $274 -17.653636645872758 $213 $275 forward 7 unknown #
coedge $-1 $144 $143 $220 $276 reversed $53 $-1 #
edge $-1 $277 1.2442367137257826e-014 $217 7.636340023201007 $211 $278 forward 7 unknown #
vertex $-1 $146 $279 #
straight-curve $-1 -50.934163446488995 8.3533468098346049 8.0111429343051999 0 1 0 I I #
coedge $-1 $210 $147 $150 $224 reversed $140 $-1 #
coedge $-1 $147 $210 $215 $276 forward $140 $-1 #
vertex $-1 $148 $280 #
straight-curve $-1 -55.314188055055389 10.875859376420667 32.60482388737428 0 0 1 I I #
straight-curve $-1 -55.314188055055396 10.875859376420667 1.7558193313015735 -0.57357642473473569 0 -0.81915205242281985 I I #
edge $-1 $274 -22.537527862917752 $152 -10.875859376420667 $219 $281 forward 7 unknown #
point $-1 -55.314188055055389 10.875859376420667 8.0111429343052016 #
point $-1 -50.934163446488995 10.875859376420667 8.0111429343052016 #
edge $-1 $282 1 $282 0 $155 $-1 forward 7 unknown #
vertex $-1 $156 $283 #
ellipse-curve $-1 -50.291180113798667 16.70669361966921 2.899796291950862 -0.81915205242281985 0 0.57357642473473569 0.57357642473473569 0 0.81915205242281985 1 I I #
point $-1 -52.55059932603745 16.70669361966921 5.7026331852261993 #
loop $-1 $-1 $167 $159 #
plane-surface $-1 55.314188055055389 0 0 -1 0 0 0 0 1 forward_v I I I I #
coedge $-1 $234 $162 $164 $238 reversed $99 $-1 #
coedge $-1 $162 $233 $284 $285 reversed $99 $-1 #
coedge $-1 $170 $165 $162 $236 forward $160 $-1 #
edge $-1 $239 2.275708980959088 $286 6.0950643926963934 $235 $287 forward 7 unknown #
coedge $-1 $164 $163 $242 $288 reversed $62 $-1 #
edge $-1 $289 -110.62837611011076 $239 -102.75032385907124 $233 $290 forward 7 unknown #
vertex $-1 $166 $291 #
straight-curve $-1 51.494832643318084 1.2994005058939209 8.0111429343052052 0 -1 0 I I #
coedge $-1 $284 $167 $170 $246 reversed $231 $-1 #
coedge $-1 $167 $284 $237 $288 forward $231 $-1 #
vertex $-1 $168 $292 #
straight-curve $-1 55.314188055055389 9.190926469911977 75.756150684247217 0 0 1 I I #
straight-curve $-1 1.6804885664403173 9.190926469911977 97.878601879879355 0.48480960649040278 0 -0.87461971476443456 I I #
edge $-1 $286 -3.9933244463362936 $171 9.190926469911977 $241 $293 forward 7 unknown #
point $-1 55.314188055055389 9.190926469911977 8.0111429343052016 #
point $-1 51.494832643318084 9.190926469911977 8.0111429343051981 #
edge $-1 $294 1 $294 0 $174 $-1 forward 7 unknown #
vertex $-1 $175 $295 #
ellipse-curve $-1 51.826273794581986 -0.22639561312250223 3.6911622528516124 0.87461971476443456 0 0.48480960649040278 0.24240480324520139 0 -0.43730985738221728 1 I I #
point $-1 53.646915152431944 -0.22639561312250223 4.1286831705712128 #
edge $-1 $296 1 $296 0 $178 $-1 forward 7 unknown #
vertex $-1 $179 $297 #
ellipse-curve $-1 51.826273794581986 5.4239976366981821 3.6911622528516124 0.87461971476443456 0 0.48480960649040278 0.24240480324520139 0 -0.43730985738221728 1 I I #
point $-1 53.646915152431944 5.4239976366981821 4.1286831705712128 #
plane-surface $-1 55.314188055055389 0 0 -1 0 0 0 0 1 forward_v I I I I #
coedge $-1 $187 $185 $189 $262 reversed $121 $-1 #
edge $-1 $200 -8.0111429343052016 $264 8.0111429343052016 $199 $298 forward 7 unknown #
vertex $-1 $262 $299 #
straight-curve $-1 -55.314188055055389 -25.2012365861234 0 0 0 -1 I I #
edge $-1 $260 -25.2012365861234 $264 25.2012365861234 $258 $300 forward 7 unknown #
straight-curve $-1 0 -25.2012365861234 -8.0111429343052016 -1 0 0 I I #
vertex $-1 $192 $301 #
straight-curve $-1 0 25.2012365861234 -8.0111429343052016 1 0 0 I I #
point $-1 55.314188055055389 25.2012365861234 -8.0111429343052016 #
point $-1 55.314188055055389 -25.2012365861234 -8.0111429343052016 #
straight-curve $-1 -55.314188055055389 0 8.0111429343052016 0 -1 0 I I #
point $-1 -55.314188055055389 25.2012365861234 8.0111429343052016 #
point $-1 -55.314188055055389 -25.2012365861234 8.0111429343052016 #
straight-curve $-1 55.314188055055389 -25.2012365861234 0 0 0 -1 I I #
straight-curve $-1 55.314188055055389 25.2012365861234 0 0 0 -1 I I #
edge $-1 $274 24.593680953069079 $277 30.849004556072696 $210 $302 forward 7 unknown #
vertex $-1 $224 $303 #
straight-curve $-1 -72.967824700928148 22.537527862917752 8.0111429343052016 -1 0 0 I I #
edge $-1 $277 -14.184181053083147 $221 -2.5225125665860624 $220 $304 forward 7 unknown #
vertex $-1 $276 $305 #
straight-curve $-1 -55.314188055055396 22.537527862917752 1.7558193313015735 0.57357642473473569 0 0.81915205242281985 I I #
point $-1 -50.934163446488995 22.537527862917752 8.0111429343052016 #
point $-1 -55.314188055055389 10.875859376420667 1.7558193313015837 #
straight-curve $-1 -55.314188055055389 0 8.0111429343052016 0 -1 0 I I #
vertex $-1 $227 $306 #
point $-1 -49.717603689063928 16.70669361966921 3.7189483443736817 #
coedge $-1 $242 $241 $234 $285 forward $231 $-1 #
edge $-1 $286 67.745007749942019 $289 74.635307562645522 $284 $307 forward 7 unknown #
vertex $-1 $246 $308 #
straight-curve $-1 49.219123662358996 -3.9933244463362936 8.0111429343051981 1 0 0 I I #
edge $-1 $289 -5.2927249522302144 $243 7.8915259640180562 $242 $309 forward 7 unknown #
vertex $-1 $288 $310 #
straight-curve $-1 1.6804885664403173 -3.9933244463362936 97.878601879879355 -0.48480960649040278 0 0.87461971476443456 I I #
point $-1 51.494832643318084 -3.9933244463362936 8.0111429343051981 #
point $-1 55.314188055055389 9.190926469911977 1.1208431216016947 #
straight-curve $-1 55.314188055055389 0 8.0111429343052016 0 1 0 I I #
vertex $-1 $249 $311 #
point $-1 52.068678597827187 -0.22639561312250223 3.2538523954693952 #
vertex $-1 $253 $312 #
point $-1 52.068678597827187 5.4239976366981821 3.2538523954693952 #
straight-curve $-1 -55.314188055055389 25.2012365861234 0 0 0 -1 I I #
point $-1 -55.314188055055389 -25.2012365861234 -8.0111429343052016 #
straight-curve $-1 -55.314188055055389 0 -8.0111429343052016 0 1 0 I I #
point $-1 -55.314188055055389 25.2012365861234 -8.0111429343052016 #
straight-curve $-1 -55.314188055055389 22.537527862917752 32.60482388737428 0 0 -1 I I #
point $-1 -55.314188055055389 22.537527862917752 8.0111429343052016 #
straight-curve $-1 -55.314188055055389 8.3533468098346049 1.7558193313015873 0 -1 0 I I #
point $-1 -55.314188055055389 22.537527862917752 1.7558193313015837 #
point $-1 -49.472028061375845 16.70669361966921 2.3262198672161265 #
straight-curve $-1 55.314188055055389 -3.9933244463362936 75.756150684247217 0 0 -1 I I #
point $-1 55.314188055055389 -3.9933244463362936 8.0111429343052016 #
straight-curve $-1 55.314188055055389 1.2994005058939209 1.1208431216017019 0 1 0 I I #
point $-1 55.314188055055389 -3.9933244463362936 1.1208431216016947 #
point $-1 51.388963937199769 -0.22639561312250223 3.4487574496064108 #
point $-1 51.388963937199769 5.4239976366981821 3.4487574496064108 #
End-of-ACIS-data 