500 0 11 0           
7 Unknown 11 ACIS 5.0 NT 24 Thu Mar 25 22:28:44 1999 
-1 9.9999999999999995e-007 1e-010 
body $-1 $11 $-1 $12 #
body $-1 $13 $-1 $14 #
body $-1 $15 $-1 $16 #
body $-1 $17 $-1 $18 #
body $-1 $19 $-1 $20 #
body $-1 $21 $-1 $22 #
body $-1 $23 $-1 $24 #
body $-1 $25 $-1 $26 #
body $-1 $27 $-1 $28 #
body $-1 $29 $-1 $30 #
body $-1 $31 $-1 $32 #
lump $-1 $-1 $33 $0 #
transform $-1 1 0 0 0 1 0 0 0 1 61.2945951719718 37.447000135810953 12.910512422078808 1 rotate no_reflect no_shear #
lump $-1 $-1 $34 $1 #
transform $-1 1 0 0 0 1 0 0 0 1 61.2945951719718 37.447000135810953 12.910512422078808 1 rotate no_reflect no_shear #
lump $-1 $-1 $35 $2 #
transform $-1 1 0 0 0 1 0 0 0 1 61.2945951719718 37.447000135810953 12.910512422078808 1 rotate no_reflect no_shear #
lump $-1 $-1 $36 $3 #
transform $-1 1 0 0 0 1 0 0 0 1 61.2945951719718 37.447000135810953 12.910512422078808 1 rotate no_reflect no_shear #
lump $-1 $-1 $37 $4 #
transform $-1 1 0 0 0 1 0 0 0 1 61.2945951719718 37.447000135810953 12.910512422078808 1 rotate no_reflect no_shear #
lump $-1 $-1 $38 $5 #
transform $-1 1 0 0 0 1 0 0 0 1 61.2945951719718 37.447000135810953 12.910512422078808 1 rotate no_reflect no_shear #
lump $-1 $-1 $39 $6 #
transform $-1 1 0 0 0 1 0 0 0 1 61.2945951719718 37.447000135810953 12.910512422078808 1 rotate no_reflect no_shear #
lump $-1 $-1 $40 $7 #
transform $-1 1 0 0 0 1 0 0 0 1 61.2945951719718 37.447000135810953 12.910512422078808 1 rotate no_reflect no_shear #
lump $-1 $-1 $41 $8 #
transform $-1 1 0 0 0 1 0 0 0 1 61.2945951719718 37.447000135810953 12.910512422078808 1 rotate no_reflect no_shear #
lump $-1 $-1 $42 $9 #
transform $-1 1 0 0 0 1 0 0 0 1 61.2945951719718 37.447000135810953 12.910512422078808 1 rotate no_reflect no_shear #
lump $-1 $-1 $43 $10 #
transform $-1 1 0 0 0 1 0 0 0 1 61.2945951719718 37.447000135810953 12.910512422078808 1 rotate no_reflect no_shear #
shell $-1 $-1 $-1 $44 $-1 $11 #
shell $-1 $-1 $-1 $45 $-1 $13 #
shell $-1 $-1 $-1 $46 $-1 $15 #
shell $-1 $-1 $-1 $47 $-1 $17 #
shell $-1 $-1 $-1 $48 $-1 $19 #
shell $-1 $-1 $-1 $49 $-1 $21 #
shell $-1 $-1 $-1 $50 $-1 $23 #
shell $-1 $-1 $-1 $51 $-1 $25 #
shell $-1 $-1 $-1 $52 $-1 $27 #
shell $-1 $-1 $-1 $53 $-1 $29 #
shell $-1 $-1 $-1 $54 $-1 $31 #
face $-1 $55 $56 $33 $-1 $57 forward single #
face $-1 $58 $59 $34 $-1 $60 reversed single #
face $-1 $61 $62 $35 $-1 $63 reversed single #
face $-1 $64 $65 $36 $-1 $66 reversed single #
face $-1 $67 $68 $37 $-1 $69 forward single #
face $-1 $70 $71 $38 $-1 $72 reversed single #
face $-1 $73 $74 $39 $-1 $75 forward single #
face $-1 $76 $77 $40 $-1 $78 reversed single #
face $-1 $79 $80 $41 $-1 $81 forward single #
face $-1 $82 $83 $42 $-1 $84 reversed single #
face $-1 $85 $86 $43 $-1 $87 forward single #
face $-1 $88 $89 $33 $-1 $90 reversed single #
loop $-1 $-1 $91 $44 #
plane-surface $-1 0 0 12.910512422078808 0 0 1 1 0 0 forward_v I I I I #
face $-1 $92 $93 $34 $-1 $94 reversed single #
loop $-1 $-1 $95 $45 #
plane-surface $-1 0 -31.646276605233034 8.5438616768494438 0 0 1 1 0 0 forward_v I I I I #
face $-1 $96 $97 $35 $-1 $98 reversed single #
loop $-1 $-1 $99 $46 #
plane-surface $-1 0 30.356576815938382 7.5652994449858344 0 0 1 1 0 0 forward_v I I I I #
face $-1 $100 $101 $36 $-1 $102 reversed single #
loop $-1 $-1 $103 $47 #
plane-surface $-1 22.295440635180661 -15.943496956531941 175.35044737356745 0 -1 0 -0.52991927123019833 0 -0.84804809178421925 forward_v I I I I #
face $-1 $104 $105 $37 $-1 $106 forward single #
loop $-1 $107 $108 $48 #
cone-surface $-1 55.274673100191784 -19.817071778515029 8.3375893770955543 -0.52991927123019833 0 -0.84804809178421925 0.84804809178421925 0 -0.52991927123019833 1 I I 0 1 1 forward I I I I #
face $-1 $109 $110 $38 $-1 $111 reversed single #
loop $-1 $-1 $112 $49 #
plane-surface $-1 22.295440635180661 -3.6655703138517106 175.35044737356745 0 -1 0 -0.52991927123019833 0 -0.84804809178421925 forward_v I I I I #
face $-1 $113 $114 $39 $-1 $115 forward single #
loop $-1 $116 $117 $50 #
cone-surface $-1 55.274673100191784 -7.5391451358347972 8.3375893770955543 -0.52991927123019833 0 -0.84804809178421925 0.84804809178421925 0 -0.52991927123019833 1 I I 0 1 1 forward I I I I #
face $-1 $118 $119 $40 $-1 $120 reversed single #
loop $-1 $-1 $121 $51 #
plane-surface $-1 22.295440635180661 8.6123563288285219 175.35044737356745 0 -1 0 -0.52991927123019833 0 -0.84804809178421925 forward_v I I I I #
face $-1 $122 $123 $41 $-1 $124 forward single #
loop $-1 $125 $126 $52 #
cone-surface $-1 55.274673100191784 4.7387815068454344 8.3375893770955543 -0.52991927123019833 0 -0.84804809178421925 0.84804809178421925 0 -0.52991927123019833 1 I I 0 1 1 forward I I I I #
face $-1 $127 $128 $42 $-1 $129 reversed single #
loop $-1 $-1 $130 $53 #
plane-surface $-1 22.295440635180661 20.890282971508757 175.35044737356745 0 -1 0 -0.52991927123019833 0 -0.84804809178421925 forward_v I I I I #
face $-1 $131 $132 $43 $-1 $133 forward single #
loop $-1 $134 $135 $54 #
cone-surface $-1 55.274673100191784 17.01670814952567 8.3375893770955543 -0.52991927123019833 0 -0.84804809178421925 0.84804809178421925 0 -0.52991927123019833 1 I I 0 1 1 forward I I I I #
face $-1 $136 $137 $33 $-1 $138 reversed single #
loop $-1 $-1 $139 $55 #
plane-surface $-1 0 0 -12.910512422078808 0 0 1 1 0 0 forward_v I I I I #
coedge $-1 $140 $141 $142 $143 forward $56 $-1 #
face $-1 $144 $145 $34 $-1 $146 reversed single #
loop $-1 $-1 $147 $58 #
plane-surface $-1 0 -25.845553074655115 10.727187049464126 0 -1 0 0 0 -1 forward_v I I I I #
coedge $-1 $148 $149 $150 $151 reversed $59 $-1 #
face $-1 $152 $153 $35 $-1 $154 forward single #
loop $-1 $-1 $155 $61 #
plane-surface $-1 0 23.266153496065812 10.237905933532323 0 1 0 0 0 1 forward_v I I I I #
coedge $-1 $156 $157 $158 $159 reversed $62 $-1 #
face $-1 $160 $161 $36 $-1 $162 reversed single #
loop $-1 $-1 $163 $64 #
plane-surface $-1 -42.666933772581991 -19.817071778515029 71.388918429013643 0.52991927123019833 0 0.84804809178421925 0.84804809178421925 0 -0.52991927123019833 forward_v I I I I #
coedge $-1 $164 $165 $166 $167 reversed $65 $-1 #
face $-1 $-1 $168 $37 $-1 $169 forward single #
loop $-1 $170 $171 $67 #
cone-surface $-1 54.178050556070779 -19.817071778515029 6.5826264866341067 -0.52991927123019833 0 -0.84804809178421925 0.42402404589210962 0 -0.26495963561509916 1 I I -0.70710678118654746 0.70710678118654746 0.5 forward I I I I #
loop $-1 $-1 $172 $48 #
coedge $-1 $108 $108 $173 $174 reversed $68 $-1 #
face $-1 $175 $176 $38 $-1 $177 reversed single #
loop $-1 $-1 $178 $70 #
plane-surface $-1 -42.666933772581991 -7.5391451358347972 71.388918429013643 0.52991927123019833 0 0.84804809178421925 0.84804809178421925 0 -0.52991927123019833 forward_v I I I I #
coedge $-1 $179 $180 $181 $182 reversed $71 $-1 #
face $-1 $-1 $183 $39 $-1 $184 forward single #
loop $-1 $185 $186 $73 #
cone-surface $-1 54.178050556070779 -7.5391451358347972 6.5826264866341067 -0.52991927123019833 0 -0.84804809178421925 0.42402404589210962 0 -0.26495963561509916 1 I I -0.70710678118654746 0.70710678118654746 0.5 forward I I I I #
loop $-1 $-1 $187 $50 #
coedge $-1 $117 $117 $188 $189 reversed $74 $-1 #
face $-1 $190 $191 $40 $-1 $192 reversed single #
loop $-1 $-1 $193 $76 #
plane-surface $-1 -42.666933772581991 4.7387815068454344 71.388918429013643 0.52991927123019833 0 0.84804809178421925 0.84804809178421925 0 -0.52991927123019833 forward_v I I I I #
coedge $-1 $194 $195 $196 $197 reversed $77 $-1 #
face $-1 $-1 $198 $41 $-1 $199 forward single #
loop $-1 $200 $201 $79 #
cone-surface $-1 54.178050556070779 4.7387815068454344 6.5826264866341067 -0.52991927123019833 0 -0.84804809178421925 0.42402404589210962 0 -0.26495963561509916 1 I I -0.70710678118654746 0.70710678118654746 0.5 forward I I I I #
loop $-1 $-1 $202 $52 #
coedge $-1 $126 $126 $203 $204 reversed $80 $-1 #
face $-1 $205 $206 $42 $-1 $207 reversed single #
loop $-1 $-1 $208 $82 #
plane-surface $-1 -42.666933772581991 17.01670814952567 71.388918429013643 0.52991927123019833 0 0.84804809178421925 0.84804809178421925 0 -0.52991927123019833 forward_v I I I I #
coedge $-1 $209 $210 $211 $212 reversed $83 $-1 #
face $-1 $-1 $213 $43 $-1 $214 forward single #
loop $-1 $215 $216 $85 #
cone-surface $-1 54.178050556070779 17.01670814952567 6.5826264866341067 -0.52991927123019833 0 -0.84804809178421925 0.42402404589210962 0 -0.26495963561509916 1 I I -0.70710678118654746 0.70710678118654746 0.5 forward I I I I #
loop $-1 $-1 $217 $54 #
coedge $-1 $135 $135 $218 $219 reversed $86 $-1 #
face $-1 $220 $221 $33 $-1 $222 reversed single #
loop $-1 $-1 $223 $88 #
plane-surface $-1 0 -37.447000135810953 0 0 1 0 0 0 1 forward_v I I I I #
coedge $-1 $224 $225 $226 $227 forward $89 $-1 #
coedge $-1 $228 $91 $229 $230 forward $56 $-1 #
coedge $-1 $91 $228 $231 $232 forward $56 $-1 #
coedge $-1 $233 $234 $91 $143 reversed $235 $-1 #
edge $-1 $236 -37.447000135810953 $237 37.447000135810953 $142 $238 forward 7 unknown #
face $-1 $239 $240 $34 $-1 $241 reversed single #
loop $-1 $-1 $242 $92 #
plane-surface $-1 -61.2945951719718 0 0 1 0 0 0 0 -1 forward_v I I I I #
coedge $-1 $243 $244 $245 $246 reversed $93 $-1 #
coedge $-1 $247 $95 $248 $249 reversed $59 $-1 #
coedge $-1 $95 $247 $243 $250 forward $59 $-1 #
coedge $-1 $245 $251 $95 $151 forward $252 $-1 #
edge $-1 $253 -21.623861833194436 $254 -10.022414772038598 $150 $255 forward 7 unknown #
face $-1 $256 $257 $35 $-1 $258 reversed single #
loop $-1 $-1 $259 $96 #
plane-surface $-1 0 0 12.910512422078808 0 0 1 1 0 0 forward_v I I I I #
coedge $-1 $260 $261 $262 $263 reversed $97 $-1 #
coedge $-1 $264 $99 $260 $265 forward $62 $-1 #
coedge $-1 $99 $264 $266 $267 reversed $62 $-1 #
coedge $-1 $268 $269 $99 $159 forward $257 $-1 #
edge $-1 $270 8.0878650880966205 $271 22.268711727841762 $158 $272 forward 7 unknown #
face $-1 $273 $274 $36 $-1 $275 forward single #
loop $-1 $-1 $276 $100 #
plane-surface $-1 22.295440635180661 -23.690646600498116 175.35044737356745 0 1 0 0.52991927123019833 0 0.84804809178421925 forward_v I I I I #
coedge $-1 $277 $278 $279 $280 reversed $101 $-1 #
coedge $-1 $165 $103 $281 $282 reversed $65 $-1 #
coedge $-1 $103 $164 $277 $283 reversed $65 $-1 #
coedge $-1 $279 $284 $103 $167 forward $274 $-1 #
edge $-1 $285 -50.146874854381466 $286 -39.770356527833286 $166 $287 forward 7 unknown #
loop $-1 $-1 $173 $104 #
plane-surface $-1 -42.666933772581991 -19.817071778515029 71.388918429013643 0.52991927123019833 0 0.84804809178421925 0.84804809178421925 0 -0.52991927123019833 forward_v I I I I #
loop $-1 $-1 $288 $67 #
coedge $-1 $171 $171 $172 $289 reversed $105 $-1 #
coedge $-1 $172 $172 $171 $289 forward $107 $-1 #
coedge $-1 $173 $173 $108 $174 forward $168 $-1 #
edge $-1 $290 0 $290 6.2831853071796004 $173 $291 forward 7 unknown #
face $-1 $292 $293 $38 $-1 $294 reversed single #
loop $-1 $-1 $295 $109 #
plane-surface $-1 22.295440635180661 -11.412719957817885 175.35044737356745 0 1 0 0.52991927123019833 0 0.84804809178421925 forward_v I I I I #
coedge $-1 $296 $297 $298 $299 reversed $110 $-1 #
coedge $-1 $180 $112 $300 $301 reversed $71 $-1 #
coedge $-1 $112 $179 $296 $302 reversed $71 $-1 #
coedge $-1 $298 $303 $112 $182 forward $304 $-1 #
edge $-1 $305 -50.146874854381466 $306 -39.770356527833286 $181 $307 forward 7 unknown #
loop $-1 $-1 $188 $113 #
plane-surface $-1 -42.666933772581991 -7.5391451358347972 71.388918429013643 0.52991927123019833 0 0.84804809178421925 0.84804809178421925 0 -0.52991927123019833 forward_v I I I I #
loop $-1 $-1 $308 $73 #
coedge $-1 $186 $186 $187 $309 reversed $114 $-1 #
coedge $-1 $187 $187 $186 $309 forward $116 $-1 #
coedge $-1 $188 $188 $117 $189 forward $183 $-1 #
edge $-1 $310 0 $310 6.2831853071796004 $188 $311 forward 7 unknown #
face $-1 $312 $313 $40 $-1 $314 reversed single #
loop $-1 $-1 $315 $118 #
plane-surface $-1 22.295440635180661 0.86520668486234786 175.35044737356745 0 1 0 0.52991927123019833 0 0.84804809178421925 forward_v I I I I #
coedge $-1 $316 $317 $318 $319 reversed $119 $-1 #
coedge $-1 $195 $121 $320 $321 reversed $77 $-1 #
coedge $-1 $121 $194 $316 $322 reversed $77 $-1 #
coedge $-1 $318 $323 $121 $197 forward $324 $-1 #
edge $-1 $325 -50.146874854381466 $326 -39.770356527833286 $196 $327 forward 7 unknown #
loop $-1 $-1 $203 $122 #
plane-surface $-1 -42.666933772581991 4.7387815068454344 71.388918429013643 0.52991927123019833 0 0.84804809178421925 0.84804809178421925 0 -0.52991927123019833 forward_v I I I I #
loop $-1 $-1 $328 $79 #
coedge $-1 $201 $201 $202 $329 reversed $123 $-1 #
coedge $-1 $202 $202 $201 $329 forward $125 $-1 #
coedge $-1 $203 $203 $126 $204 forward $198 $-1 #
edge $-1 $330 0 $330 6.2831853071796004 $203 $331 forward 7 unknown #
face $-1 $332 $333 $42 $-1 $334 reversed single #
loop $-1 $-1 $335 $127 #
plane-surface $-1 22.295440635180661 13.143133327542582 175.35044737356745 0 1 0 0.52991927123019833 0 0.84804809178421925 forward_v I I I I #
coedge $-1 $336 $337 $338 $339 reversed $128 $-1 #
coedge $-1 $210 $130 $340 $341 reversed $83 $-1 #
coedge $-1 $130 $209 $336 $342 reversed $83 $-1 #
coedge $-1 $338 $343 $130 $212 forward $344 $-1 #
edge $-1 $345 -50.146874854381466 $346 -39.770356527833286 $211 $347 forward 7 unknown #
loop $-1 $-1 $218 $131 #
plane-surface $-1 -42.666933772581991 17.01670814952567 71.388918429013643 0.52991927123019833 0 0.84804809178421925 0.84804809178421925 0 -0.52991927123019833 forward_v I I I I #
loop $-1 $-1 $348 $85 #
coedge $-1 $216 $216 $217 $349 reversed $132 $-1 #
coedge $-1 $217 $217 $216 $349 forward $134 $-1 #
coedge $-1 $218 $218 $135 $219 forward $213 $-1 #
edge $-1 $350 0 $350 6.2831853071796004 $218 $351 forward 7 unknown #
face $-1 $352 $353 $33 $-1 $354 reversed single #
loop $-1 $-1 $355 $136 #
plane-surface $-1 -61.2945951719718 0 0 1 0 0 0 0 -1 forward_v I I I I #
coedge $-1 $356 $231 $357 $358 forward $137 $-1 #
coedge $-1 $359 $139 $356 $360 forward $89 $-1 #
coedge $-1 $139 $359 $361 $362 forward $89 $-1 #
coedge $-1 $234 $233 $139 $227 reversed $235 $-1 #
edge $-1 $363 -37.447000135810953 $364 37.447000135810953 $226 $365 forward 7 unknown #
coedge $-1 $141 $140 $366 $367 forward $56 $-1 #
coedge $-1 $368 $369 $140 $230 reversed $353 $-1 #
edge $-1 $237 -61.2945951719718 $370 61.2945951719718 $229 $371 forward 7 unknown #
coedge $-1 $223 $372 $141 $232 reversed $137 $-1 #
edge $-1 $373 -61.2945951719718 $236 61.2945951719718 $231 $374 forward 7 unknown #
coedge $-1 $226 $142 $372 $375 forward $235 $-1 #
coedge $-1 $142 $226 $368 $376 reversed $235 $-1 #
loop $-1 $-1 $233 $352 #
vertex $-1 $143 $377 #
vertex $-1 $143 $378 #
straight-curve $-1 61.2945951719718 0 12.910512422078808 0 1 0 I I #
face $-1 $379 $380 $34 $-1 $381 forward single #
loop $-1 $-1 $248 $144 #
plane-surface $-1 0 -37.447000135810953 0 0 1 0 0 0 1 forward_v I I I I #
coedge $-1 $382 $383 $384 $385 forward $145 $-1 #
coedge $-1 $384 $147 $149 $250 reversed $93 $-1 #
coedge $-1 $147 $384 $386 $387 reversed $93 $-1 #
coedge $-1 $388 $150 $147 $246 forward $252 $-1 #
edge $-1 $254 3.1802681521173808 $389 7.5469188973467451 $245 $390 forward 7 unknown #
coedge $-1 $149 $148 $382 $391 reversed $59 $-1 #
coedge $-1 $392 $393 $148 $249 forward $240 $-1 #
edge $-1 $394 -61.2945951719718 $253 61.2945951719718 $248 $395 forward 7 unknown #
edge $-1 $396 -61.2945951719718 $254 61.2945951719718 $243 $397 forward 7 unknown #
coedge $-1 $150 $388 $392 $398 forward $252 $-1 #
loop $-1 $-1 $245 $379 #
vertex $-1 $249 $399 #
vertex $-1 $151 $400 #
straight-curve $-1 61.2945951719718 -15.823138302616517 8.5438616768494438 0 1 0 I I #
face $-1 $401 $402 $35 $-1 $403 reversed single #
loop $-1 $-1 $269 $152 #
plane-surface $-1 61.2945951719718 0 0 -1 0 0 0 0 1 forward_v I I I I #
coedge $-1 $404 $405 $261 $406 forward $153 $-1 #
coedge $-1 $407 $155 $156 $265 reversed $97 $-1 #
coedge $-1 $155 $407 $259 $406 reversed $97 $-1 #
coedge $-1 $408 $409 $155 $263 forward $402 $-1 #
edge $-1 $410 2.4463464782196729 $411 7.7915594553126502 $262 $412 forward 7 unknown #
coedge $-1 $157 $156 $409 $413 reversed $62 $-1 #
edge $-1 $270 -61.2945951719718 $410 61.2945951719718 $260 $414 forward 7 unknown #
coedge $-1 $415 $416 $157 $267 forward $417 $-1 #
edge $-1 $271 -61.2945951719718 $418 61.2945951719718 $266 $419 forward 7 unknown #
coedge $-1 $420 $158 $416 $421 reversed $257 $-1 #
coedge $-1 $158 $420 $407 $422 forward $257 $-1 #
vertex $-1 $159 $423 #
vertex $-1 $267 $424 #
straight-curve $-1 61.2945951719718 15.178288407969191 7.5652994449858344 0 1 0 I I #
face $-1 $-1 $425 $36 $-1 $426 reversed single #
loop $-1 $-1 $166 $160 #
plane-surface $-1 0 0 12.910512422078808 0 0 1 1 0 0 forward_v I I I I #
coedge $-1 $427 $428 $429 $430 reversed $161 $-1 #
coedge $-1 $431 $163 $165 $283 forward $101 $-1 #
coedge $-1 $163 $431 $427 $432 forward $101 $-1 #
coedge $-1 $429 $166 $163 $280 forward $274 $-1 #
edge $-1 $286 6.0349610672744269 $433 13.782110711240602 $279 $434 forward 7 unknown #
coedge $-1 $435 $436 $164 $282 forward $425 $-1 #
edge $-1 $437 -81.248679665532734 $285 -74.764711264704914 $281 $438 forward 7 unknown #
edge $-1 $286 110.35342396810412 $437 122.58919034394359 $165 $439 forward 7 unknown #
coedge $-1 $166 $429 $435 $440 forward $274 $-1 #
vertex $-1 $282 $441 #
vertex $-1 $167 $442 #
straight-curve $-1 11.147720317590331 -15.943496956531941 12.91051242207881 -1 0 0 I I #
coedge $-1 $288 $288 $-1 $443 reversed $170 $-1 #
edge $-1 $444 0 $444 6.2831853071796004 $171 $445 forward 7 unknown #
vertex $-1 $174 $446 #
ellipse-curve $-1 56.106336008697696 -19.817071778515029 9.6685282216649071 0.52991927123019833 0 0.84804809178421925 0.84804809178421925 0 -0.52991927123019833 1 I I #
face $-1 $-1 $304 $38 $-1 $447 forward single #
loop $-1 $-1 $448 $175 #
plane-surface $-1 61.2945951719718 0 0 -1 0 0 0 0 1 forward_v I I I I #
coedge $-1 $449 $450 $451 $452 reversed $176 $-1 #
coedge $-1 $453 $178 $180 $302 forward $110 $-1 #
coedge $-1 $178 $453 $449 $454 forward $110 $-1 #
coedge $-1 $451 $181 $178 $299 forward $304 $-1 #
edge $-1 $306 -0.10400225406568797 $455 7.643147389900486 $298 $456 forward 7 unknown #
coedge $-1 $457 $458 $179 $301 forward $293 $-1 #
edge $-1 $459 -81.248679665532734 $305 -74.764711264704914 $300 $460 forward 7 unknown #
edge $-1 $306 110.35342396810412 $459 122.58919034394359 $180 $461 forward 7 unknown #
coedge $-1 $181 $451 $457 $462 forward $304 $-1 #
loop $-1 $-1 $451 $292 #
vertex $-1 $301 $463 #
vertex $-1 $182 $464 #
straight-curve $-1 11.147720317590331 -3.6655703138517106 12.91051242207881 -1 0 0 I I #
coedge $-1 $308 $308 $-1 $465 reversed $185 $-1 #
edge $-1 $466 0 $466 6.2831853071796004 $186 $467 forward 7 unknown #
vertex $-1 $189 $468 #
ellipse-curve $-1 56.106336008697696 -7.5391451358347972 9.6685282216649071 0.52991927123019833 0 0.84804809178421925 0.84804809178421925 0 -0.52991927123019833 1 I I #
face $-1 $-1 $324 $40 $-1 $469 forward single #
loop $-1 $-1 $470 $190 #
plane-surface $-1 61.2945951719718 0 0 -1 0 0 0 0 1 forward_v I I I I #
coedge $-1 $471 $472 $473 $474 reversed $191 $-1 #
coedge $-1 $475 $193 $195 $322 forward $119 $-1 #
coedge $-1 $193 $475 $471 $476 forward $119 $-1 #
coedge $-1 $473 $196 $193 $319 forward $324 $-1 #
edge $-1 $326 -6.2429655754058047 $477 1.5041840685603693 $318 $478 forward 7 unknown #
coedge $-1 $479 $480 $194 $321 forward $313 $-1 #
edge $-1 $481 -81.248679665532734 $325 -74.764711264704914 $320 $482 forward 7 unknown #
edge $-1 $326 110.35342396810412 $481 122.58919034394359 $195 $483 forward 7 unknown #
coedge $-1 $196 $473 $479 $484 forward $324 $-1 #
loop $-1 $-1 $473 $312 #
vertex $-1 $321 $485 #
vertex $-1 $197 $486 #
straight-curve $-1 11.147720317590331 8.6123563288285219 12.91051242207881 -1 0 0 I I #
coedge $-1 $328 $328 $-1 $487 reversed $200 $-1 #
edge $-1 $488 0 $488 6.2831853071796004 $201 $489 forward 7 unknown #
vertex $-1 $204 $490 #
ellipse-curve $-1 56.106336008697696 4.7387815068454344 9.6685282216649071 0.52991927123019833 0 0.84804809178421925 0.84804809178421925 0 -0.52991927123019833 1 I I #
face $-1 $-1 $344 $42 $-1 $491 forward single #
loop $-1 $-1 $492 $205 #
plane-surface $-1 61.2945951719718 0 0 -1 0 0 0 0 1 forward_v I I I I #
coedge $-1 $493 $494 $495 $496 reversed $206 $-1 #
coedge $-1 $497 $208 $210 $342 forward $128 $-1 #
coedge $-1 $208 $497 $493 $498 forward $128 $-1 #
coedge $-1 $495 $211 $208 $339 forward $344 $-1 #
edge $-1 $346 -12.381928896745922 $499 -4.6347792527797473 $338 $500 forward 7 unknown #
coedge $-1 $501 $502 $209 $341 forward $333 $-1 #
edge $-1 $503 -81.248679665532734 $345 -74.764711264704914 $340 $504 forward 7 unknown #
edge $-1 $346 110.35342396810412 $503 122.58919034394359 $210 $505 forward 7 unknown #
coedge $-1 $211 $495 $501 $506 forward $344 $-1 #
loop $-1 $-1 $495 $332 #
vertex $-1 $341 $507 #
vertex $-1 $212 $508 #
straight-curve $-1 11.147720317590331 20.890282971508757 12.91051242207881 -1 0 0 I I #
coedge $-1 $348 $348 $-1 $509 reversed $215 $-1 #
edge $-1 $510 0 $510 6.2831853071796004 $216 $511 forward 7 unknown #
vertex $-1 $219 $512 #
ellipse-curve $-1 56.106336008697696 17.01670814952567 9.6685282216649071 0.52991927123019833 0 0.84804809178421925 0.84804809178421925 0 -0.52991927123019833 1 I I #
face $-1 $-1 $235 $33 $-1 $513 reversed single #
loop $-1 $-1 $368 $220 #
plane-surface $-1 0 37.447000135810953 0 0 -1 0 0 0 -1 forward_v I I I I #
coedge $-1 $514 $366 $369 $515 forward $221 $-1 #
coedge $-1 $372 $223 $224 $360 reversed $137 $-1 #
coedge $-1 $366 $514 $223 $358 reversed $221 $-1 #
edge $-1 $373 -12.910512422078808 $516 12.910512422078808 $357 $517 forward 7 unknown #
coedge $-1 $225 $224 $514 $518 forward $89 $-1 #
edge $-1 $364 -61.2945951719718 $516 61.2945951719718 $356 $519 forward 7 unknown #
coedge $-1 $369 $368 $225 $362 reversed $353 $-1 #
edge $-1 $520 -61.2945951719718 $363 61.2945951719718 $361 $521 forward 7 unknown #
vertex $-1 $227 $522 #
vertex $-1 $375 $523 #
straight-curve $-1 61.2945951719718 0 -12.910512422078808 0 -1 0 I I #
coedge $-1 $355 $357 $228 $367 reversed $221 $-1 #
edge $-1 $370 -37.447000135810953 $373 37.447000135810953 $366 $524 forward 7 unknown #
coedge $-1 $361 $229 $234 $376 forward $353 $-1 #
coedge $-1 $229 $361 $355 $515 reversed $353 $-1 #
vertex $-1 $230 $525 #
straight-curve $-1 0 37.447000135810953 12.910512422078808 -1 0 0 I I #
coedge $-1 $231 $356 $233 $375 reversed $137 $-1 #
vertex $-1 $367 $526 #
straight-curve $-1 0 -37.447000135810953 12.910512422078808 1 0 0 I I #
edge $-1 $236 -12.910512422078808 $364 12.910512422078808 $233 $527 forward 7 unknown #
edge $-1 $237 -12.910512422078808 $363 12.910512422078808 $234 $528 forward 7 unknown #
point $-1 61.2945951719718 -37.447000135810953 12.910512422078808 #
point $-1 61.2945951719718 37.447000135810953 12.910512422078808 #
face $-1 $-1 $252 $34 $-1 $529 reversed single #
loop $-1 $-1 $386 $239 #
plane-surface $-1 0 0 12.910512422078808 0 0 1 1 0 0 forward_v I I I I #
coedge $-1 $530 $242 $247 $391 forward $145 $-1 #
coedge $-1 $242 $530 $531 $532 reversed $145 $-1 #
coedge $-1 $244 $243 $242 $385 reversed $93 $-1 #
edge $-1 $533 -7.5469188973467451 $396 -3.1802681521173808 $242 $534 forward 7 unknown #
coedge $-1 $531 $535 $244 $387 forward $380 $-1 #
edge $-1 $389 -61.2945951719718 $533 61.2945951719718 $386 $536 forward 7 unknown #
coedge $-1 $251 $245 $535 $537 reversed $252 $-1 #
vertex $-1 $246 $538 #
straight-curve $-1 61.2945951719718 -25.845553074655115 5.363593524732063 0 0 1 I I #
edge $-1 $396 10.022414772038598 $394 21.623861833194436 $382 $539 forward 7 unknown #
coedge $-1 $540 $248 $251 $398 reversed $240 $-1 #
coedge $-1 $248 $540 $530 $541 forward $240 $-1 #
vertex $-1 $249 $542 #
straight-curve $-1 0 -37.447000135810953 8.5438616768494438 1 0 0 I I #
vertex $-1 $391 $543 #
straight-curve $-1 0 -25.845553074655115 8.5438616768494438 1 0 0 I I #
edge $-1 $544 -12.910512422078808 $253 -8.5438616768494438 $251 $545 forward 7 unknown #
point $-1 61.2945951719718 -37.447000135810953 8.5438616768494438 #
point $-1 61.2945951719718 -25.845553074655115 8.5438616768494438 #
face $-1 $-1 $417 $35 $-1 $546 reversed single #
loop $-1 $-1 $262 $256 #
plane-surface $-1 -61.2945951719718 0 0 1 0 0 0 0 -1 forward_v I I I I #
coedge $-1 $547 $259 $420 $548 forward $153 $-1 #
coedge $-1 $259 $547 $408 $549 forward $153 $-1 #
edge $-1 $411 -61.2945951719718 $550 61.2945951719718 $259 $551 forward 7 unknown #
coedge $-1 $261 $260 $269 $422 reversed $97 $-1 #
coedge $-1 $552 $262 $405 $549 reversed $402 $-1 #
coedge $-1 $262 $552 $264 $413 forward $402 $-1 #
vertex $-1 $413 $553 #
vertex $-1 $263 $554 #
straight-curve $-1 -61.2945951719718 23.266153496065812 5.1189529667661615 0 0 1 I I #
edge $-1 $418 -22.268711727841762 $410 -8.0878650880966205 $409 $555 forward 7 unknown #
straight-curve $-1 0 23.266153496065812 7.5652994449858344 -1 0 0 I I #
coedge $-1 $556 $266 $552 $557 reversed $417 $-1 #
coedge $-1 $266 $556 $268 $421 forward $417 $-1 #
loop $-1 $-1 $266 $401 #
vertex $-1 $267 $558 #
straight-curve $-1 0 37.447000135810953 7.5652994449858344 -1 0 0 I I #
coedge $-1 $269 $268 $404 $548 reversed $257 $-1 #
edge $-1 $559 -12.910512422078808 $271 -7.5652994449858344 $268 $560 forward 7 unknown #
edge $-1 $550 -7.7915594553126502 $270 -2.4463464782196729 $269 $561 forward 7 unknown #
point $-1 61.2945951719718 23.266153496065812 7.5652994449858344 #
point $-1 61.2945951719718 37.447000135810953 7.5652994449858344 #
loop $-1 $-1 $281 $273 #
plane-surface $-1 61.2945951719718 0 0 -1 0 0 0 0 1 forward_v I I I I #
coedge $-1 $428 $276 $278 $432 reversed $161 $-1 #
coedge $-1 $276 $427 $562 $563 reversed $161 $-1 #
coedge $-1 $284 $279 $276 $430 forward $274 $-1 #
edge $-1 $433 39.770356527833286 $564 50.146874854381466 $429 $565 forward 7 unknown #
coedge $-1 $278 $277 $436 $566 reversed $101 $-1 #
edge $-1 $567 -122.58919034394359 $433 -110.35342396810412 $427 $568 forward 7 unknown #
vertex $-1 $280 $569 #
straight-curve $-1 50.918076845423641 -9.9085358892575144 12.91051242207881 0 -1 0 I I #
coedge $-1 $562 $281 $284 $440 reversed $425 $-1 #
coedge $-1 $281 $562 $431 $566 forward $425 $-1 #
vertex $-1 $282 $570 #
straight-curve $-1 61.2945951719718 -15.943496956531941 87.675223686783724 0 0 1 I I #
straight-curve $-1 -42.666933772581991 -15.943496956531941 71.388918429013643 0.84804809178421925 0 -0.52991927123019833 I I #
edge $-1 $564 -23.690646600498116 $285 -15.943496956531941 $435 $571 forward 7 unknown #
point $-1 61.2945951719718 -15.943496956531941 12.910512422078808 #
point $-1 50.91807684542362 -15.943496956531941 12.91051242207881 #
edge $-1 $572 1 $572 0 $288 $-1 forward 7 unknown #
vertex $-1 $289 $573 #
ellipse-curve $-1 54.443010191685879 -19.817071778515029 7.0066505325262165 0.52991927123019833 0 0.84804809178421925 0.84804809178421925 0 -0.52991927123019833 1 I I #
point $-1 56.954384100481903 -19.817071778515029 9.1386089504346941 #
plane-surface $-1 0 0 12.910512422078808 0 0 1 1 0 0 forward_v I I I I #
coedge $-1 $458 $457 $450 $574 forward $293 $-1 #
coedge $-1 $450 $295 $297 $454 reversed $176 $-1 #
coedge $-1 $295 $449 $448 $574 reversed $176 $-1 #
coedge $-1 $303 $298 $295 $452 forward $304 $-1 #
edge $-1 $455 39.770356527833286 $575 50.146874854381466 $451 $576 forward 7 unknown #
coedge $-1 $297 $296 $458 $577 reversed $110 $-1 #
edge $-1 $578 -122.58919034394359 $455 -110.35342396810412 $449 $579 forward 7 unknown #
vertex $-1 $299 $580 #
straight-curve $-1 50.918076845423641 -3.7695725679173986 12.91051242207881 0 -1 0 I I #
coedge $-1 $448 $300 $303 $462 reversed $293 $-1 #
coedge $-1 $300 $448 $453 $577 forward $293 $-1 #
vertex $-1 $301 $581 #
straight-curve $-1 61.2945951719718 -3.6655703138517106 87.675223686783724 0 0 1 I I #
straight-curve $-1 -42.666933772581991 -3.6655703138517106 71.388918429013643 0.84804809178421925 0 -0.52991927123019833 I I #
edge $-1 $575 -11.412719957817885 $305 -3.6655703138517106 $457 $582 forward 7 unknown #
point $-1 61.2945951719718 -3.6655703138517106 12.910512422078808 #
point $-1 50.91807684542362 -3.6655703138517106 12.91051242207881 #
edge $-1 $583 1 $583 0 $308 $-1 forward 7 unknown #
vertex $-1 $309 $584 #
ellipse-curve $-1 54.443010191685879 -7.5391451358347972 7.0066505325262165 0.52991927123019833 0 0.84804809178421925 0.84804809178421925 0 -0.52991927123019833 1 I I #
point $-1 56.954384100481903 -7.5391451358347972 9.1386089504346941 #
plane-surface $-1 0 0 12.910512422078808 0 0 1 1 0 0 forward_v I I I I #
coedge $-1 $480 $479 $472 $585 forward $313 $-1 #
coedge $-1 $472 $315 $317 $476 reversed $191 $-1 #
coedge $-1 $315 $471 $470 $585 reversed $191 $-1 #
coedge $-1 $323 $318 $315 $474 forward $324 $-1 #
edge $-1 $477 39.770356527833286 $586 50.146874854381466 $473 $587 forward 7 unknown #
coedge $-1 $317 $316 $480 $588 reversed $119 $-1 #
edge $-1 $589 -122.58919034394359 $477 -110.35342396810412 $471 $590 forward 7 unknown #
vertex $-1 $319 $591 #
straight-curve $-1 50.918076845423641 2.3693907534227172 12.91051242207881 0 -1 0 I I #
coedge $-1 $470 $320 $323 $484 reversed $313 $-1 #
coedge $-1 $320 $470 $475 $588 forward $313 $-1 #
vertex $-1 $321 $592 #
straight-curve $-1 61.2945951719718 8.6123563288285219 87.675223686783724 0 0 1 I I #
straight-curve $-1 -42.666933772581991 8.6123563288285219 71.388918429013643 0.84804809178421925 0 -0.52991927123019833 I I #
edge $-1 $586 0.86520668486234786 $325 8.6123563288285219 $479 $593 forward 7 unknown #
point $-1 61.2945951719718 8.6123563288285219 12.910512422078808 #
point $-1 50.91807684542362 8.6123563288285219 12.91051242207881 #
edge $-1 $594 1 $594 0 $328 $-1 forward 7 unknown #
vertex $-1 $329 $595 #
ellipse-curve $-1 54.443010191685879 4.7387815068454344 7.0066505325262165 0.52991927123019833 0 0.84804809178421925 0.84804809178421925 0 -0.52991927123019833 1 I I #
point $-1 56.954384100481903 4.7387815068454344 9.1386089504346941 #
plane-surface $-1 0 0 12.910512422078808 0 0 1 1 0 0 forward_v I I I I #
coedge $-1 $502 $501 $494 $596 forward $333 $-1 #
coedge $-1 $494 $335 $337 $498 reversed $206 $-1 #
coedge $-1 $335 $493 $492 $596 reversed $206 $-1 #
coedge $-1 $343 $338 $335 $496 forward $344 $-1 #
edge $-1 $499 39.770356527833286 $597 50.146874854381466 $495 $598 forward 7 unknown #
coedge $-1 $337 $336 $502 $599 reversed $128 $-1 #
edge $-1 $600 -122.58919034394359 $499 -110.35342396810412 $493 $601 forward 7 unknown #
vertex $-1 $339 $602 #
straight-curve $-1 50.918076845423641 8.5083540747628348 12.91051242207881 0 -1 0 I I #
coedge $-1 $492 $340 $343 $506 reversed $333 $-1 #
coedge $-1 $340 $492 $497 $599 forward $333 $-1 #
vertex $-1 $341 $603 #
straight-curve $-1 61.2945951719718 20.890282971508757 87.675223686783724 0 0 1 I I #
straight-curve $-1 -42.666933772581991 20.890282971508757 71.388918429013643 0.84804809178421925 0 -0.52991927123019833 I I #
edge $-1 $597 13.143133327542582 $345 20.890282971508757 $501 $604 forward 7 unknown #
point $-1 61.2945951719718 20.890282971508757 12.910512422078808 #
point $-1 50.91807684542362 20.890282971508757 12.91051242207881 #
edge $-1 $605 1 $605 0 $348 $-1 forward 7 unknown #
vertex $-1 $349 $606 #
ellipse-curve $-1 54.443010191685879 17.01670814952567 7.0066505325262165 0.52991927123019833 0 0.84804809178421925 0.84804809178421925 0 -0.52991927123019833 1 I I #
point $-1 56.954384100481903 17.01670814952567 9.1386089504346941 #
plane-surface $-1 61.2945951719718 0 0 -1 0 0 0 0 1 forward_v I I I I #
coedge $-1 $357 $355 $359 $518 reversed $221 $-1 #
edge $-1 $370 -12.910512422078808 $520 12.910512422078808 $369 $607 forward 7 unknown #
vertex $-1 $518 $608 #
straight-curve $-1 -61.2945951719718 -37.447000135810953 0 0 0 -1 I I #
edge $-1 $516 -37.447000135810953 $520 37.447000135810953 $514 $609 forward 7 unknown #
straight-curve $-1 0 -37.447000135810953 -12.910512422078808 -1 0 0 I I #
vertex $-1 $362 $610 #
straight-curve $-1 0 37.447000135810953 -12.910512422078808 1 0 0 I I #
point $-1 61.2945951719718 37.447000135810953 -12.910512422078808 #
point $-1 61.2945951719718 -37.447000135810953 -12.910512422078808 #
straight-curve $-1 -61.2945951719718 0 12.910512422078808 0 -1 0 I I #
point $-1 -61.2945951719718 37.447000135810953 12.910512422078808 #
point $-1 -61.2945951719718 -37.447000135810953 12.910512422078808 #
straight-curve $-1 61.2945951719718 -37.447000135810953 0 0 0 -1 I I #
straight-curve $-1 61.2945951719718 37.447000135810953 0 0 0 -1 I I #
plane-surface $-1 61.2945951719718 0 0 -1 0 0 0 0 1 forward_v I I I I #
coedge $-1 $383 $382 $393 $541 reversed $145 $-1 #
coedge $-1 $611 $386 $383 $532 forward $380 $-1 #
edge $-1 $533 25.845553074655115 $612 37.447000135810953 $383 $613 forward 7 unknown #
vertex $-1 $532 $614 #
straight-curve $-1 -61.2945951719718 -25.845553074655115 5.363593524732063 0 0 -1 I I #
coedge $-1 $386 $611 $388 $537 forward $380 $-1 #
straight-curve $-1 0 -25.845553074655115 12.910512422078808 -1 0 0 I I #
edge $-1 $544 -37.447000135810953 $389 -25.845553074655115 $388 $615 forward 7 unknown #
point $-1 61.2945951719718 -25.845553074655115 12.910512422078808 #
straight-curve $-1 -61.2945951719718 -15.823138302616517 8.5438616768494438 0 -1 0 I I #
coedge $-1 $393 $392 $611 $616 reversed $240 $-1 #
edge $-1 $612 -12.910512422078808 $394 -8.5438616768494438 $530 $617 forward 7 unknown #
point $-1 -61.2945951719718 -37.447000135810953 8.5438616768494438 #
point $-1 -61.2945951719718 -25.845553074655115 8.5438616768494438 #
vertex $-1 $537 $618 #
straight-curve $-1 61.2945951719718 -37.447000135810953 0 0 0 -1 I I #
plane-surface $-1 0 37.447000135810953 0 0 -1 0 0 0 -1 forward_v I I I I #
coedge $-1 $405 $404 $556 $619 forward $153 $-1 #
edge $-1 $550 23.266153496065812 $559 37.447000135810953 $420 $620 forward 7 unknown #
edge $-1 $621 -37.447000135810953 $411 -23.266153496065812 $408 $622 forward 7 unknown #
vertex $-1 $548 $623 #
straight-curve $-1 0 23.266153496065812 12.910512422078808 1 0 0 I I #
coedge $-1 $409 $408 $415 $557 forward $402 $-1 #
point $-1 -61.2945951719718 23.266153496065812 7.5652994449858344 #
point $-1 -61.2945951719718 23.266153496065812 12.910512422078812 #
straight-curve $-1 -61.2945951719718 15.178288407969191 7.5652994449858344 0 -1 0 I I #
coedge $-1 $416 $415 $547 $619 reversed $417 $-1 #
edge $-1 $621 -12.910512422078808 $418 -7.5652994449858344 $415 $624 forward 7 unknown #
point $-1 -61.2945951719718 37.447000135810953 7.5652994449858344 #
vertex $-1 $548 $625 #
straight-curve $-1 61.2945951719718 37.447000135810953 0 0 0 -1 I I #
straight-curve $-1 61.2945951719718 23.266153496065812 5.1189529667661615 0 0 -1 I I #
coedge $-1 $436 $435 $428 $563 forward $425 $-1 #
edge $-1 $564 74.764711264704914 $567 81.248679665532734 $562 $626 forward 7 unknown #
vertex $-1 $440 $627 #
straight-curve $-1 11.147720317590331 -23.690646600498116 12.91051242207881 1 0 0 I I #
edge $-1 $567 -13.782110711240602 $437 -6.0349610672744269 $436 $628 forward 7 unknown #
vertex $-1 $566 $629 #
straight-curve $-1 -42.666933772581991 -23.690646600498116 71.388918429013643 -0.84804809178421925 0 0.52991927123019833 I I #
point $-1 50.91807684542362 -23.690646600498116 12.91051242207881 #
point $-1 61.2945951719718 -15.943496956531941 6.4265440212509901 #
straight-curve $-1 61.2945951719718 0 12.910512422078808 0 1 0 I I #
vertex $-1 $443 $630 #
point $-1 55.2910582834701 -19.817071778515029 6.4767312612960177 #
edge $-1 $575 74.764711264704914 $578 81.248679665532734 $448 $631 forward 7 unknown #
vertex $-1 $462 $632 #
straight-curve $-1 11.147720317590331 -11.412719957817885 12.91051242207881 1 0 0 I I #
edge $-1 $578 -7.643147389900486 $459 0.10400225406568797 $458 $633 forward 7 unknown #
vertex $-1 $577 $634 #
straight-curve $-1 -42.666933772581991 -11.412719957817885 71.388918429013643 -0.84804809178421925 0 0.52991927123019833 I I #
point $-1 50.91807684542362 -11.412719957817885 12.91051242207881 #
point $-1 61.2945951719718 -3.6655703138517106 6.4265440212509901 #
straight-curve $-1 61.2945951719718 0 12.910512422078808 0 1 0 I I #
vertex $-1 $465 $635 #
point $-1 55.2910582834701 -7.5391451358347972 6.4767312612960177 #
edge $-1 $586 74.764711264704914 $589 81.248679665532734 $470 $636 forward 7 unknown #
vertex $-1 $484 $637 #
straight-curve $-1 11.147720317590331 0.86520668486234786 12.91051242207881 1 0 0 I I #
edge $-1 $589 -1.5041840685603693 $481 6.2429655754058047 $480 $638 forward 7 unknown #
vertex $-1 $588 $639 #
straight-curve $-1 -42.666933772581991 0.86520668486234786 71.388918429013643 -0.84804809178421925 0 0.52991927123019833 I I #
point $-1 50.91807684542362 0.86520668486234786 12.91051242207881 #
point $-1 61.2945951719718 8.6123563288285219 6.4265440212509901 #
straight-curve $-1 61.2945951719718 0 12.910512422078808 0 1 0 I I #
vertex $-1 $487 $640 #
point $-1 55.2910582834701 4.7387815068454344 6.4767312612960177 #
edge $-1 $597 74.764711264704914 $600 81.248679665532734 $492 $641 forward 7 unknown #
vertex $-1 $506 $642 #
straight-curve $-1 11.147720317590331 13.143133327542582 12.91051242207881 1 0 0 I I #
edge $-1 $600 4.6347792527797473 $503 12.381928896745922 $502 $643 forward 7 unknown #
vertex $-1 $599 $644 #
straight-curve $-1 -42.666933772581991 13.143133327542582 71.388918429013643 -0.84804809178421925 0 0.52991927123019833 I I #
point $-1 50.91807684542362 13.143133327542582 12.91051242207881 #
point $-1 61.2945951719718 20.890282971508757 6.4265440212509901 #
straight-curve $-1 61.2945951719718 0 12.910512422078808 0 1 0 I I #
vertex $-1 $509 $645 #
point $-1 55.2910582834701 17.01670814952567 6.4767312612960177 #
straight-curve $-1 -61.2945951719718 37.447000135810953 0 0 0 -1 I I #
point $-1 -61.2945951719718 -37.447000135810953 -12.910512422078808 #
straight-curve $-1 -61.2945951719718 0 -12.910512422078808 0 1 0 I I #
point $-1 -61.2945951719718 37.447000135810953 -12.910512422078808 #
coedge $-1 $535 $531 $540 $616 forward $380 $-1 #
vertex $-1 $532 $646 #
straight-curve $-1 -61.2945951719718 0 12.910512422078808 0 -1 0 I I #
point $-1 -61.2945951719718 -25.845553074655115 12.910512422078808 #
straight-curve $-1 61.2945951719718 0 12.910512422078808 0 1 0 I I #
edge $-1 $612 -61.2945951719718 $544 61.2945951719718 $540 $647 forward 7 unknown #
straight-curve $-1 -61.2945951719718 -37.447000135810953 0 0 0 -1 I I #
point $-1 61.2945951719718 -37.447000135810953 12.910512422078808 #
edge $-1 $559 -61.2945951719718 $621 61.2945951719718 $556 $648 forward 7 unknown #
straight-curve $-1 61.2945951719718 0 12.910512422078808 0 1 0 I I #
vertex $-1 $619 $649 #
straight-curve $-1 -61.2945951719718 0 12.910512422078808 0 -1 0 I I #
point $-1 61.2945951719718 23.266153496065812 12.910512422078812 #
straight-curve $-1 -61.2945951719718 37.447000135810953 0 0 0 -1 I I #
point $-1 61.2945951719718 37.447000135810953 12.910512422078808 #
straight-curve $-1 61.2945951719718 -23.690646600498116 87.675223686783724 0 0 -1 I I #
point $-1 61.2945951719718 -23.690646600498116 12.910512422078808 #
straight-curve $-1 61.294595171971807 -9.9085358892575144 6.4265440212509901 0 1 0 I I #
point $-1 61.2945951719718 -23.690646600498116 6.4265440212509901 #
point $-1 53.91309092045568 -19.817071778515029 6.1586024407419968 #
straight-curve $-1 61.2945951719718 -11.412719957817885 87.675223686783724 0 0 -1 I I #
point $-1 61.2945951719718 -11.412719957817885 12.910512422078808 #
straight-curve $-1 61.294595171971807 -3.7695725679173986 6.4265440212509901 0 1 0 I I #
point $-1 61.2945951719718 -11.412719957817885 6.4265440212509901 #
point $-1 53.91309092045568 -7.5391451358347972 6.1586024407419968 #
straight-curve $-1 61.2945951719718 0.86520668486234786 87.675223686783724 0 0 -1 I I #
point $-1 61.2945951719718 0.86520668486234786 12.910512422078808 #
straight-curve $-1 61.294595171971807 2.3693907534227172 6.4265440212509901 0 1 0 I I #
point $-1 61.2945951719718 0.86520668486234786 6.4265440212509901 #
point $-1 53.91309092045568 4.7387815068454344 6.1586024407419968 #
straight-curve $-1 61.2945951719718 13.143133327542582 87.675223686783724 0 0 -1 I I #
point $-1 61.2945951719718 13.143133327542582 12.910512422078808 #
straight-curve $-1 61.294595171971807 8.5083540747628348 6.4265440212509901 0 1 0 I I #
point $-1 61.2945951719718 13.143133327542582 6.4265440212509901 #
point $-1 53.91309092045568 17.01670814952567 6.1586024407419968 #
point $-1 -61.2945951719718 -37.447000135810953 12.910512422078808 #
straight-curve $-1 0 -37.447000135810953 12.910512422078808 1 0 0 I I #
straight-curve $-1 0 37.447000135810953 12.910512422078808 -1 0 0 I I #
point $-1 -61.2945951719718 37.447000135810953 12.910512422078808 #
End-of-ACIS-data 