500 0 4 0           
7 Unknown 11 ACIS 5.0 NT 24 Thu Mar 25 16:39:33 1999 
-1 9.9999999999999995e-007 1e-010 
body $-1 $4 $-1 $5 #
body $-1 $6 $-1 $7 #
body $-1 $8 $-1 $9 #
body $-1 $10 $-1 $11 #
lump $-1 $-1 $12 $0 #
transform $-1 1 0 0 0 1 0 0 0 1 61.001617481002228 38.693869392136676 13.946537848504649 1 rotate no_reflect no_shear #
lump $-1 $-1 $13 $1 #
transform $-1 1 0 0 0 1 0 0 0 1 61.001617481002228 38.693869392136676 13.946537848504649 1 rotate no_reflect no_shear #
lump $-1 $-1 $14 $2 #
transform $-1 1 0 0 0 1 0 0 0 1 61.001617481002228 38.693869392136676 13.946537848504649 1 rotate no_reflect no_shear #
lump $-1 $-1 $15 $3 #
transform $-1 1 0 0 0 1 0 0 0 1 61.001617481002228 38.693869392136676 13.946537848504649 1 rotate no_reflect no_shear #
shell $-1 $-1 $-1 $16 $-1 $4 #
shell $-1 $-1 $-1 $17 $-1 $6 #
shell $-1 $-1 $-1 $18 $-1 $8 #
shell $-1 $-1 $-1 $19 $-1 $10 #
face $-1 $20 $21 $12 $-1 $22 forward single #
face $-1 $23 $24 $13 $-1 $25 reversed single #
face $-1 $26 $27 $14 $-1 $28 forward single #
face $-1 $29 $30 $15 $-1 $31 reversed single #
face $-1 $32 $33 $12 $-1 $34 reversed single #
loop $-1 $-1 $35 $16 #
plane-surface $-1 0 0 13.946537848504649 0 0 1 1 0 0 forward_v I I I I #
face $-1 $36 $37 $13 $-1 $38 forward single #
loop $-1 $-1 $39 $17 #
plane-surface $-1 0 -32.658428206017078 -8.0205255048439472 0 0 1 1 0 0 forward_v I I I I #
face $-1 $40 $41 $14 $-1 $42 forward single #
loop $-1 $-1 $43 $18 #
plane-surface $-1 57.9904051493004 26.002660867752454 178.53633774950237 0 1 0 0.69465837861970381 0 0.71933979245794832 forward_v I I I I #
face $-1 $44 $45 $15 $-1 $46 reversed single #
loop $-1 $47 $48 $19 #
cone-surface $-1 54.293509392051163 32.348265129944565 7.2865799962166422 -0.69465837861970381 0 -0.71933979245794832 1.4386795849158966 0 -1.3893167572394076 1 I I 0 1 2 forward I I I I #
face $-1 $49 $50 $12 $-1 $51 reversed single #
loop $-1 $-1 $52 $20 #
plane-surface $-1 0 0 -13.946537848504649 0 0 1 1 0 0 forward_v I I I I #
coedge $-1 $53 $54 $55 $56 forward $21 $-1 #
face $-1 $57 $58 $13 $-1 $59 reversed single #
loop $-1 $-1 $60 $23 #
plane-surface $-1 0 -26.622987019897483 -10.983531676674298 0 -1 0 0 0 -1 forward_v I I I I #
coedge $-1 $61 $62 $63 $64 reversed $24 $-1 #
face $-1 $65 $66 $14 $-1 $67 reversed single #
loop $-1 $-1 $68 $26 #
plane-surface $-1 -26.760164235764378 32.348265129944565 90.774556032735774 0.69465837861970381 0 0.71933979245794832 0.71933979245794832 0 -0.69465837861970381 forward_v I I I I #
coedge $-1 $69 $70 $71 $72 reversed $27 $-1 #
face $-1 $73 $74 $15 $-1 $75 forward single #
loop $-1 $76 $77 $29 #
cone-surface $-1 50.992763796861695 32.348265129944565 3.8685579518875084 -0.69465837861970381 0 -0.71933979245794832 0.71933979245794832 0 -0.69465837861970381 1 I I -0.70710678118654746 0.70710678118654746 1 forward I I I I #
loop $-1 $-1 $78 $19 #
coedge $-1 $48 $48 $79 $80 reversed $30 $-1 #
face $-1 $81 $82 $12 $-1 $83 reversed single #
loop $-1 $-1 $84 $32 #
plane-surface $-1 0 -38.693869392136676 0 0 1 0 0 0 1 forward_v I I I I #
coedge $-1 $85 $86 $87 $88 forward $33 $-1 #
coedge $-1 $89 $35 $90 $91 forward $21 $-1 #
coedge $-1 $35 $89 $92 $93 forward $21 $-1 #
coedge $-1 $94 $95 $35 $56 reversed $96 $-1 #
edge $-1 $97 -38.693869392136676 $98 38.693869392136676 $55 $99 forward 7 unknown #
face $-1 $100 $101 $13 $-1 $102 reversed single #
loop $-1 $-1 $103 $36 #
plane-surface $-1 0 -38.693869392136676 0 0 1 0 0 0 1 forward_v I I I I #
coedge $-1 $104 $105 $106 $107 reversed $37 $-1 #
coedge $-1 $108 $39 $103 $109 reversed $24 $-1 #
coedge $-1 $39 $108 $104 $110 reversed $24 $-1 #
coedge $-1 $106 $111 $39 $64 forward $112 $-1 #
edge $-1 $113 -22.364655289128137 $114 -10.293772916888944 $63 $115 forward 7 unknown #
face $-1 $116 $117 $14 $-1 $118 forward single #
loop $-1 $-1 $119 $40 #
plane-surface $-1 61.001617481002228 0 0 -1 0 0 0 0 1 forward_v I I I I #
coedge $-1 $120 $121 $119 $122 reversed $41 $-1 #
coedge $-1 $70 $43 $121 $123 forward $27 $-1 #
coedge $-1 $43 $69 $124 $125 reversed $27 $-1 #
coedge $-1 $126 $119 $43 $72 forward $66 $-1 #
edge $-1 $127 -83.244182227080202 $128 -75.321631026246536 $71 $129 forward 7 unknown #
face $-1 $130 $131 $15 $-1 $132 forward single #
loop $-1 $-1 $133 $44 #
plane-surface $-1 57.9904051493004 26.002660867752454 178.53633774950237 0 1 0 0.69465837861970381 0 0.71933979245794832 forward_v I I I I #
loop $-1 $-1 $134 $29 #
coedge $-1 $77 $77 $78 $135 forward $45 $-1 #
coedge $-1 $78 $78 $77 $135 reversed $47 $-1 #
coedge $-1 $79 $79 $48 $80 forward $131 $-1 #
edge $-1 $136 0 $136 6.2831853071796004 $79 $137 forward 7 unknown #
face $-1 $138 $139 $12 $-1 $140 reversed single #
loop $-1 $-1 $141 $49 #
plane-surface $-1 -61.001617481002228 0 0 1 0 0 0 0 -1 forward_v I I I I #
coedge $-1 $142 $92 $143 $144 forward $50 $-1 #
coedge $-1 $145 $52 $142 $146 forward $33 $-1 #
coedge $-1 $52 $145 $147 $148 forward $33 $-1 #
coedge $-1 $95 $94 $52 $88 reversed $96 $-1 #
edge $-1 $149 -38.693869392136676 $150 38.693869392136676 $87 $151 forward 7 unknown #
coedge $-1 $54 $53 $152 $153 forward $21 $-1 #
coedge $-1 $154 $155 $53 $91 reversed $139 $-1 #
edge $-1 $98 -61.001617481002228 $156 61.001617481002228 $90 $157 forward 7 unknown #
coedge $-1 $84 $158 $54 $93 reversed $50 $-1 #
edge $-1 $159 -61.001617481002228 $97 61.001617481002228 $92 $160 forward 7 unknown #
coedge $-1 $87 $55 $158 $161 forward $96 $-1 #
coedge $-1 $55 $87 $154 $162 reversed $96 $-1 #
loop $-1 $-1 $94 $138 #
vertex $-1 $56 $163 #
vertex $-1 $56 $164 #
straight-curve $-1 61.001617481002228 0 13.946537848504649 0 1 0 I I #
face $-1 $165 $166 $13 $-1 $167 forward single #
loop $-1 $-1 $168 $57 #
plane-surface $-1 0 0 -13.946537848504649 0 0 1 1 0 0 forward_v I I I I #
coedge $-1 $169 $170 $61 $109 forward $58 $-1 #
coedge $-1 $171 $60 $62 $110 forward $37 $-1 #
coedge $-1 $60 $171 $168 $172 reversed $37 $-1 #
coedge $-1 $173 $63 $60 $107 forward $112 $-1 #
edge $-1 $114 2.5287596665067982 $174 8.454772010167499 $106 $175 forward 7 unknown #
coedge $-1 $62 $61 $176 $177 reversed $24 $-1 #
edge $-1 $178 -61.001617481002228 $113 61.001617481002228 $103 $179 forward 7 unknown #
edge $-1 $114 -61.001617481002228 $180 61.001617481002228 $104 $181 forward 7 unknown #
coedge $-1 $63 $182 $169 $183 forward $112 $-1 #
loop $-1 $-1 $106 $184 #
vertex $-1 $109 $185 #
vertex $-1 $64 $186 #
straight-curve $-1 61.001617481002228 -16.329214103008539 -8.0205255048439472 0 1 0 I I #
face $-1 $187 $188 $14 $-1 $189 reversed single #
loop $-1 $-1 $124 $65 #
plane-surface $-1 0 0 13.946537848504649 0 0 1 1 0 0 forward_v I I I I #
coedge $-1 $71 $190 $68 $122 forward $66 $-1 #
coedge $-1 $191 $68 $192 $193 reversed $41 $-1 #
coedge $-1 $68 $191 $69 $123 reversed $41 $-1 #
edge $-1 $194 -22.519736827164394 $127 -9.8285283027801711 $119 $195 forward 7 unknown #
edge $-1 $127 -122.00323496200447 $196 -110.5982747043079 $69 $197 forward 7 unknown #
coedge $-1 $198 $199 $70 $125 forward $117 $-1 #
edge $-1 $128 -32.006414906352028 $196 -23.802373161589422 $124 $200 forward 7 unknown #
coedge $-1 $201 $71 $199 $202 reversed $66 $-1 #
vertex $-1 $122 $203 #
vertex $-1 $125 $204 #
straight-curve $-1 61.001617481002228 26.002660867752454 89.268168874751183 0 0 1 I I #
face $-1 $205 $206 $15 $-1 $207 reversed single #
loop $-1 $208 $79 $73 #
plane-surface $-1 -26.760164235764378 32.348265129944565 90.774556032735774 0.69465837861970381 0 0.71933979245794832 0.71933979245794832 0 -0.69465837861970381 forward_v I I I I #
coedge $-1 $209 $210 $211 $212 reversed $74 $-1 #
coedge $-1 $134 $134 $-1 $213 forward $76 $-1 #
edge $-1 $214 0 $214 6.2831853071796004 $77 $215 forward 7 unknown #
vertex $-1 $80 $216 #
ellipse-curve $-1 56.899596608620918 32.348265129944565 9.9852622480878122 -0.69465837861970381 0 -0.71933979245794832 1.4386795849158966 0 -1.3893167572394076 1 I I #
face $-1 $-1 $96 $12 $-1 $217 reversed single #
loop $-1 $-1 $154 $81 #
plane-surface $-1 0 38.693869392136676 0 0 -1 0 0 0 -1 forward_v I I I I #
coedge $-1 $218 $152 $155 $219 forward $82 $-1 #
coedge $-1 $158 $84 $85 $146 reversed $50 $-1 #
coedge $-1 $152 $218 $84 $144 reversed $82 $-1 #
edge $-1 $159 -13.946537848504649 $220 13.946537848504649 $143 $221 forward 7 unknown #
coedge $-1 $86 $85 $218 $222 forward $33 $-1 #
edge $-1 $150 -61.001617481002228 $220 61.001617481002228 $142 $223 forward 7 unknown #
coedge $-1 $155 $154 $86 $148 reversed $139 $-1 #
edge $-1 $224 -61.001617481002228 $149 61.001617481002228 $147 $225 forward 7 unknown #
vertex $-1 $88 $226 #
vertex $-1 $161 $227 #
straight-curve $-1 61.001617481002228 0 -13.946537848504649 0 -1 0 I I #
coedge $-1 $141 $143 $89 $153 reversed $82 $-1 #
edge $-1 $156 -38.693869392136676 $159 38.693869392136676 $152 $228 forward 7 unknown #
coedge $-1 $147 $90 $95 $162 forward $139 $-1 #
coedge $-1 $90 $147 $141 $219 reversed $139 $-1 #
vertex $-1 $91 $229 #
straight-curve $-1 0 38.693869392136676 13.946537848504649 -1 0 0 I I #
coedge $-1 $92 $142 $94 $161 reversed $50 $-1 #
vertex $-1 $153 $230 #
straight-curve $-1 0 -38.693869392136676 13.946537848504649 1 0 0 I I #
edge $-1 $97 -13.946537848504649 $150 13.946537848504649 $94 $231 forward 7 unknown #
edge $-1 $98 -13.946537848504649 $149 13.946537848504649 $95 $232 forward 7 unknown #
point $-1 61.001617481002228 -38.693869392136676 13.946537848504649 #
point $-1 61.001617481002228 38.693869392136676 13.946537848504649 #
face $-1 $233 $234 $13 $-1 $235 reversed single #
loop $-1 $-1 $236 $100 #
plane-surface $-1 0 0 13.946537848504649 0 0 1 1 0 0 forward_v I I I I #
coedge $-1 $237 $238 $105 $172 forward $101 $-1 #
coedge $-1 $239 $103 $111 $183 reversed $58 $-1 #
coedge $-1 $103 $239 $240 $241 forward $58 $-1 #
coedge $-1 $105 $104 $242 $243 reversed $37 $-1 #
edge $-1 $174 -61.001617481002228 $244 61.001617481002228 $168 $245 forward 7 unknown #
coedge $-1 $246 $106 $238 $247 reversed $112 $-1 #
vertex $-1 $172 $248 #
straight-curve $-1 61.001617481002228 -26.622987019897483 -5.491765838337149 0 0 -1 I I #
coedge $-1 $240 $242 $108 $177 forward $234 $-1 #
edge $-1 $180 10.293772916888944 $178 22.364655289128137 $176 $249 forward 7 unknown #
vertex $-1 $109 $250 #
straight-curve $-1 0 -38.693869392136676 -8.0205255048439472 1 0 0 I I #
vertex $-1 $177 $251 #
straight-curve $-1 0 -26.622987019897483 -8.0205255048439472 -1 0 0 I I #
coedge $-1 $111 $246 $236 $252 reversed $112 $-1 #
edge $-1 $253 -13.946537848504649 $113 8.0205255048439472 $111 $254 forward 7 unknown #
face $-1 $-1 $112 $13 $-1 $255 reversed single #
point $-1 61.001617481002228 -38.693869392136676 -8.0205255048439472 #
point $-1 61.001617481002228 -26.622987019897483 -8.0205255048439472 #
face $-1 $256 $257 $14 $-1 $258 forward single #
loop $-1 $-1 $259 $116 #
plane-surface $-1 0 -32.658428206017078 -8.0205255048439472 0 0 1 1 0 0 forward_v I I I I #
coedge $-1 $119 $260 $261 $262 reversed $66 $-1 #
coedge $-1 $121 $120 $198 $263 reversed $41 $-1 #
coedge $-1 $261 $264 $120 $193 forward $265 $-1 #
edge $-1 $266 69.444796253748365 $194 80.849756511444951 $192 $267 forward 7 unknown #
vertex $-1 $262 $268 #
straight-curve $-1 61.001617481002228 16.174132564972282 6.0239866476709807 0 -1 0 I I #
vertex $-1 $263 $269 #
straight-curve $-1 -26.760164235764378 26.002660867752454 90.774556032735774 -0.71933979245794832 0 0.69465837861970381 I I #
coedge $-1 $270 $124 $191 $263 forward $117 $-1 #
coedge $-1 $124 $271 $126 $202 forward $117 $-1 #
straight-curve $-1 28.9952025746502 26.002660867752454 13.946537848504647 -1 0 0 I I #
coedge $-1 $272 $126 $273 $274 forward $66 $-1 #
edge $-1 $275 -38.693869392136676 $128 26.002660867752454 $126 $276 forward 7 unknown #
point $-1 61.001617481002228 26.002660867752454 6.0239866476709807 #
point $-1 61.001617481002228 26.002660867752454 13.946537848504649 #
face $-1 $277 $278 $15 $-1 $279 forward single #
loop $-1 $-1 $280 $130 #
plane-surface $-1 61.001617481002228 0 0 -1 0 0 0 0 1 forward_v I I I I #
loop $-1 $-1 $281 $73 #
coedge $-1 $210 $133 $282 $283 forward $74 $-1 #
coedge $-1 $133 $209 $284 $285 reversed $74 $-1 #
coedge $-1 $286 $280 $133 $212 forward $206 $-1 #
edge $-1 $287 -83.244182227080202 $288 -75.321631026246536 $211 $289 forward 7 unknown #
edge $-1 $290 1 $290 0 $134 $-1 forward 7 unknown #
vertex $-1 $135 $291 #
ellipse-curve $-1 51.687422175481402 32.348265129944565 4.5878977443454563 0.69465837861970381 0 0.71933979245794832 1.4386795849158966 0 -1.3893167572394076 1 I I #
point $-1 58.338276193536828 32.348265129944565 8.5959454908484201 #
plane-surface $-1 61.001617481002228 0 0 -1 0 0 0 0 1 forward_v I I I I #
coedge $-1 $143 $141 $145 $222 reversed $82 $-1 #
edge $-1 $156 -13.946537848504649 $224 13.946537848504649 $155 $292 forward 7 unknown #
vertex $-1 $222 $293 #
straight-curve $-1 -61.001617481002228 -38.693869392136676 0 0 0 -1 I I #
edge $-1 $220 -38.693869392136676 $224 38.693869392136676 $218 $294 forward 7 unknown #
straight-curve $-1 0 -38.693869392136676 -13.946537848504649 -1 0 0 I I #
vertex $-1 $148 $295 #
straight-curve $-1 0 38.693869392136676 -13.946537848504649 1 0 0 I I #
point $-1 61.001617481002228 38.693869392136676 -13.946537848504649 #
point $-1 61.001617481002228 -38.693869392136676 -13.946537848504649 #
straight-curve $-1 -61.001617481002228 0 13.946537848504649 0 -1 0 I I #
point $-1 -61.001617481002228 38.693869392136676 13.946537848504649 #
point $-1 -61.001617481002228 -38.693869392136676 13.946537848504649 #
straight-curve $-1 61.001617481002228 -38.693869392136676 0 0 0 -1 I I #
straight-curve $-1 61.001617481002228 38.693869392136676 0 0 0 -1 I I #
face $-1 $184 $296 $13 $-1 $297 reversed single #
loop $-1 $-1 $176 $165 #
plane-surface $-1 -61.001617481002228 0 0 1 0 0 0 0 -1 forward_v I I I I #
coedge $-1 $298 $299 $182 $252 forward $166 $-1 #
coedge $-1 $300 $168 $301 $302 forward $101 $-1 #
coedge $-1 $168 $300 $173 $247 forward $101 $-1 #
coedge $-1 $170 $169 $299 $303 reversed $58 $-1 #
coedge $-1 $304 $176 $170 $241 reversed $234 $-1 #
edge $-1 $305 -13.946537848504649 $178 8.0205255048439472 $240 $306 forward 7 unknown #
coedge $-1 $176 $301 $171 $243 forward $234 $-1 #
edge $-1 $244 -8.454772010167499 $180 -2.5287596665067982 $242 $307 forward 7 unknown #
vertex $-1 $302 $308 #
straight-curve $-1 0 -26.622987019897483 -13.946537848504649 -1 0 0 I I #
coedge $-1 $182 $173 $309 $310 reversed $112 $-1 #
edge $-1 $311 -38.693869392136676 $174 26.622987019897483 $173 $312 forward 7 unknown #
point $-1 61.001617481002228 -26.622987019897483 -13.946537848504649 #
straight-curve $-1 -61.001617481002228 -16.329214103008539 -8.0205255048439472 0 -1 0 I I #
point $-1 -61.001617481002228 -38.693869392136676 -8.0205255048439472 #
point $-1 -61.001617481002228 -26.622987019897483 -8.0205255048439472 #
edge $-1 $253 -38.693869392136676 $313 38.693869392136676 $182 $314 forward 7 unknown #
vertex $-1 $252 $315 #
straight-curve $-1 61.001617481002228 -38.693869392136676 0 0 0 -1 I I #
plane-surface $-1 61.001617481002228 0 0 -1 0 0 0 0 1 forward_v I I I I #
face $-1 $316 $317 $14 $-1 $318 reversed single #
loop $-1 $-1 $319 $187 #
plane-surface $-1 0 -26.622987019897483 -10.983531676674298 0 -1 0 0 0 -1 forward_v I I I I #
coedge $-1 $320 $321 $272 $322 reversed $188 $-1 #
coedge $-1 $190 $323 $324 $325 reversed $66 $-1 #
coedge $-1 $326 $192 $190 $262 forward $265 $-1 #
edge $-1 $194 -6.0239866476709842 $327 13.946537848504649 $190 $328 forward 7 unknown #
edge $-1 $196 9.8285283027801711 $266 22.519736827164394 $198 $329 forward 7 unknown #
coedge $-1 $192 $330 $270 $331 reversed $265 $-1 #
loop $-1 $-1 $192 $332 #
vertex $-1 $331 $333 #
straight-curve $-1 2.8431704117837597 38.693869392136676 62.186947417709177 0.71933979245794832 0 -0.69465837861970381 I I #
point $-1 61.001617481002228 38.693869392136676 6.0239866476709842 #
point $-1 52.797575736239622 26.002660867752454 13.946537848504647 #
coedge $-1 $334 $198 $264 $331 forward $117 $-1 #
coedge $-1 $199 $334 $335 $336 forward $117 $-1 #
coedge $-1 $323 $201 $259 $322 forward $66 $-1 #
coedge $-1 $335 $337 $201 $274 reversed $317 $-1 #
edge $-1 $275 -13.946537848504649 $338 8.0205255048439472 $201 $339 forward 7 unknown #
vertex $-1 $202 $340 #
straight-curve $-1 61.001617481002228 0 13.946537848504649 0 1 0 I I #
face $-1 $341 $342 $15 $-1 $343 reversed single #
loop $-1 $-1 $284 $205 #
plane-surface $-1 0 0 13.946537848504649 0 0 1 1 0 0 forward_v I I I I #
coedge $-1 $211 $344 $281 $345 forward $206 $-1 #
coedge $-1 $346 $282 $280 $345 reversed $208 $-1 #
coedge $-1 $281 $347 $209 $283 reversed $208 $-1 #
edge $-1 $287 -122.00323496200447 $348 -110.5982747043079 $209 $349 forward 7 unknown #
coedge $-1 $350 $351 $210 $285 forward $278 $-1 #
edge $-1 $288 -32.006414906352028 $348 -23.802373161589422 $284 $352 forward 7 unknown #
coedge $-1 $353 $211 $351 $354 reversed $206 $-1 #
vertex $-1 $345 $355 #
vertex $-1 $285 $356 #
straight-curve $-1 61.001617481002228 26.002660867752454 89.268168874751183 0 0 1 I I #
vertex $-1 $213 $357 #
point $-1 53.126101760397297 32.348265129944565 3.1985809871060491 #
straight-curve $-1 -61.001617481002228 38.693869392136676 0 0 0 -1 I I #
point $-1 -61.001617481002228 -38.693869392136676 -13.946537848504649 #
straight-curve $-1 -61.001617481002228 0 -13.946537848504649 0 1 0 I I #
point $-1 -61.001617481002228 38.693869392136676 -13.946537848504649 #
loop $-1 $-1 $309 $233 #
plane-surface $-1 0 38.693869392136676 0 0 -1 0 0 0 -1 forward_v I I I I #
coedge $-1 $358 $236 $359 $360 forward $166 $-1 #
coedge $-1 $236 $358 $239 $303 forward $166 $-1 #
coedge $-1 $238 $237 $361 $362 forward $101 $-1 #
coedge $-1 $242 $363 $237 $302 reversed $234 $-1 #
edge $-1 $244 -26.622987019897483 $364 38.693869392136676 $301 $365 forward 7 unknown #
edge $-1 $305 -61.001617481002228 $253 61.001617481002228 $239 $366 forward 7 unknown #
coedge $-1 $363 $240 $358 $367 reversed $234 $-1 #
vertex $-1 $367 $368 #
straight-curve $-1 -61.001617481002228 -38.693869392136676 0 0 0 -1 I I #
straight-curve $-1 -61.001617481002228 -26.622987019897483 -5.491765838337149 0 0 1 I I #
point $-1 -61.001617481002228 -26.622987019897483 -13.946537848504649 #
coedge $-1 $361 $359 $246 $310 forward $296 $-1 #
edge $-1 $313 -13.946537848504649 $311 13.946537848504649 $246 $369 forward 7 unknown #
vertex $-1 $247 $370 #
straight-curve $-1 61.001617481002228 0 -13.946537848504649 0 -1 0 I I #
vertex $-1 $252 $371 #
straight-curve $-1 61.001617481002228 0 13.946537848504649 0 1 0 I I #
point $-1 61.001617481002228 -38.693869392136676 13.946537848504649 #
face $-1 $372 $373 $14 $-1 $374 reversed single #
loop $-1 $-1 $337 $256 #
plane-surface $-1 0 -38.693869392136676 0 0 1 0 0 0 1 forward_v I I I I #
coedge $-1 $375 $376 $323 $377 reversed $257 $-1 #
coedge $-1 $378 $259 $337 $379 reversed $188 $-1 #
coedge $-1 $259 $378 $375 $380 reversed $188 $-1 #
edge $-1 $338 -22.364655289128137 $381 -10.293772916888944 $272 $382 forward 7 unknown #
coedge $-1 $260 $272 $319 $377 forward $66 $-1 #
coedge $-1 $383 $384 $260 $325 forward $373 $-1 #
edge $-1 $327 -38.693869392136676 $385 26.622987019897483 $260 $386 forward 7 unknown #
coedge $-1 $330 $261 $384 $387 reversed $265 $-1 #
vertex $-1 $325 $388 #
straight-curve $-1 61.001617481002228 38.693869392136676 0 0 0 -1 I I #
straight-curve $-1 52.797575736239615 16.174132564972282 13.946537848504647 0 1 0 I I #
coedge $-1 $264 $326 $389 $390 reversed $265 $-1 #
edge $-1 $266 -52.797575736239622 $391 61.001617481002228 $264 $392 forward 7 unknown #
face $-1 $-1 $265 $14 $-1 $393 reversed single #
point $-1 52.797575736239622 38.693869392136676 13.946537848504647 #
coedge $-1 $271 $270 $394 $395 forward $117 $-1 #
coedge $-1 $396 $273 $271 $336 reversed $317 $-1 #
edge $-1 $397 -61.001617481002228 $275 61.001617481002228 $335 $398 forward 7 unknown #
coedge $-1 $273 $396 $320 $379 forward $317 $-1 #
vertex $-1 $379 $399 #
straight-curve $-1 61.001617481002228 -38.693869392136676 0 0 0 -1 I I #
point $-1 61.001617481002228 -38.693869392136676 13.946537848504649 #
face $-1 $400 $401 $15 $-1 $402 forward single #
loop $-1 $-1 $403 $277 #
plane-surface $-1 0 -32.658428206017078 -8.0205255048439472 0 0 1 1 0 0 forward_v I I I I #
coedge $-1 $280 $404 $405 $406 reversed $206 $-1 #
edge $-1 $407 -22.519736827164394 $287 -9.8285283027801711 $280 $408 forward 7 unknown #
coedge $-1 $347 $281 $409 $410 reversed $208 $-1 #
coedge $-1 $282 $346 $350 $411 reversed $208 $-1 #
vertex $-1 $411 $412 #
straight-curve $-1 -26.760164235764378 26.002660867752454 90.774556032735774 -0.71933979245794832 0 0.69465837861970381 I I #
coedge $-1 $413 $284 $347 $411 forward $278 $-1 #
coedge $-1 $284 $414 $286 $354 forward $278 $-1 #
straight-curve $-1 28.9952025746502 26.002660867752454 13.946537848504647 -1 0 0 I I #
coedge $-1 $415 $286 $416 $417 forward $206 $-1 #
edge $-1 $418 -38.693869392136676 $288 26.002660867752454 $286 $419 forward 7 unknown #
point $-1 61.001617481002228 26.002660867752454 6.0239866476709807 #
point $-1 61.001617481002228 26.002660867752454 13.946537848504649 #
point $-1 50.298105418241988 32.348265129944565 3.1492181594295601 #
coedge $-1 $299 $298 $304 $367 forward $166 $-1 #
coedge $-1 $309 $420 $298 $360 reversed $296 $-1 #
edge $-1 $313 -61.001617481002228 $421 61.001617481002228 $359 $422 forward 7 unknown #
coedge $-1 $420 $309 $300 $362 reversed $296 $-1 #
edge $-1 $364 -61.001617481002228 $311 61.001617481002228 $361 $423 forward 7 unknown #
coedge $-1 $301 $304 $420 $424 forward $234 $-1 #
vertex $-1 $362 $425 #
straight-curve $-1 -61.001617481002228 0 -13.946537848504649 0 1 0 I I #
straight-curve $-1 0 -38.693869392136676 13.946537848504649 1 0 0 I I #
edge $-1 $421 -38.693869392136676 $305 38.693869392136676 $304 $426 forward 7 unknown #
point $-1 -61.001617481002228 -38.693869392136676 13.946537848504649 #
straight-curve $-1 61.001617481002228 38.693869392136676 0 0 0 -1 I I #
point $-1 61.001617481002228 38.693869392136676 -13.946537848504649 #
point $-1 61.001617481002228 38.693869392136676 13.946537848504649 #
face $-1 $332 $427 $14 $-1 $428 reversed single #
loop $-1 $-1 $383 $316 #
plane-surface $-1 0 0 -13.946537848504649 0 0 1 1 0 0 forward_v I I I I #
coedge $-1 $429 $319 $321 $380 forward $257 $-1 #
coedge $-1 $319 $429 $383 $430 reversed $257 $-1 #
edge $-1 $381 2.5287596665067982 $385 8.454772010167499 $323 $431 forward 7 unknown #
coedge $-1 $321 $320 $432 $433 reversed $188 $-1 #
edge $-1 $434 -61.001617481002228 $338 61.001617481002228 $337 $435 forward 7 unknown #
edge $-1 $381 -61.001617481002228 $436 61.001617481002228 $375 $437 forward 7 unknown #
vertex $-1 $322 $438 #
straight-curve $-1 61.001617481002228 -16.329214103008539 -8.0205255048439472 0 1 0 I I #
coedge $-1 $439 $324 $376 $430 forward $373 $-1 #
coedge $-1 $324 $439 $326 $387 forward $373 $-1 #
vertex $-1 $430 $440 #
straight-curve $-1 61.001617481002228 0 -13.946537848504649 0 -1 0 I I #
edge $-1 $441 -61.001617481002228 $327 61.001617481002228 $326 $442 forward 7 unknown #
point $-1 61.001617481002228 38.693869392136676 -13.946537848504649 #
coedge $-1 $443 $394 $330 $390 forward $427 $-1 #
edge $-1 $391 -13.946537848504649 $441 13.946537848504649 $330 $444 forward 7 unknown #
vertex $-1 $331 $445 #
straight-curve $-1 0 38.693869392136676 13.946537848504649 -1 0 0 I I #
plane-surface $-1 0 38.693869392136676 0 0 -1 0 0 0 -1 forward_v I I I I #
coedge $-1 $389 $446 $334 $395 reversed $427 $-1 #
edge $-1 $391 -38.693869392136676 $397 38.693869392136676 $394 $447 forward 7 unknown #
coedge $-1 $337 $335 $446 $448 forward $317 $-1 #
vertex $-1 $395 $449 #
straight-curve $-1 0 -38.693869392136676 13.946537848504649 1 0 0 I I #
point $-1 61.001617481002228 -38.693869392136676 -8.0205255048439472 #
face $-1 $450 $451 $15 $-1 $452 reversed single #
loop $-1 $-1 $453 $341 #
plane-surface $-1 0 -26.622987019897483 -10.983531676674298 0 -1 0 0 0 -1 forward_v I I I I #
coedge $-1 $454 $455 $415 $456 reversed $342 $-1 #
coedge $-1 $344 $457 $458 $459 reversed $206 $-1 #
coedge $-1 $460 $409 $344 $406 forward $461 $-1 #
edge $-1 $407 -6.0239866476709842 $462 13.946537848504649 $344 $463 forward 7 unknown #
vertex $-1 $406 $464 #
straight-curve $-1 61.001617481002228 16.174132564972282 6.0239866476709807 0 -1 0 I I #
coedge $-1 $405 $465 $346 $410 forward $461 $-1 #
edge $-1 $466 69.444796253748365 $407 80.849756511444951 $409 $467 forward 7 unknown #
edge $-1 $348 9.8285283027801711 $466 22.519736827164394 $350 $468 forward 7 unknown #
point $-1 52.797575736239622 26.002660867752454 13.946537848504647 #
coedge $-1 $469 $350 $465 $470 forward $278 $-1 #
coedge $-1 $351 $469 $471 $472 forward $278 $-1 #
coedge $-1 $457 $353 $403 $456 forward $206 $-1 #
coedge $-1 $471 $473 $353 $417 reversed $451 $-1 #
edge $-1 $418 -13.946537848504649 $474 8.0205255048439472 $353 $475 forward 7 unknown #
vertex $-1 $354 $476 #
straight-curve $-1 61.001617481002228 0 13.946537848504649 0 1 0 I I #
coedge $-1 $359 $361 $363 $424 reversed $296 $-1 #
vertex $-1 $360 $477 #
straight-curve $-1 0 38.693869392136676 13.946537848504649 -1 0 0 I I #
straight-curve $-1 0 38.693869392136676 -13.946537848504649 1 0 0 I I #
edge $-1 $421 -13.946537848504649 $364 13.946537848504649 $420 $478 forward 7 unknown #
point $-1 -61.001617481002228 38.693869392136676 -13.946537848504649 #
straight-curve $-1 -61.001617481002228 0 13.946537848504649 0 -1 0 I I #
loop $-1 $-1 $432 $372 #
plane-surface $-1 -61.001617481002228 0 0 1 0 0 0 0 -1 forward_v I I I I #
coedge $-1 $376 $375 $479 $480 reversed $257 $-1 #
edge $-1 $385 -61.001617481002228 $481 61.001617481002228 $383 $482 forward 7 unknown #
straight-curve $-1 61.001617481002228 -26.622987019897483 -5.491765838337149 0 0 -1 I I #
coedge $-1 $446 $479 $378 $433 forward $427 $-1 #
edge $-1 $436 10.293772916888944 $434 22.364655289128137 $432 $483 forward 7 unknown #
vertex $-1 $379 $484 #
straight-curve $-1 0 -38.693869392136676 -8.0205255048439472 1 0 0 I I #
vertex $-1 $433 $485 #
straight-curve $-1 0 -26.622987019897483 -8.0205255048439472 -1 0 0 I I #
point $-1 61.001617481002228 -26.622987019897483 -8.0205255048439472 #
coedge $-1 $384 $383 $443 $486 forward $373 $-1 #
point $-1 61.001617481002228 -26.622987019897483 -13.946537848504649 #
vertex $-1 $387 $487 #
straight-curve $-1 0 38.693869392136676 -13.946537848504649 1 0 0 I I #
coedge $-1 $479 $389 $439 $486 reversed $427 $-1 #
straight-curve $-1 -61.001617481002228 38.693869392136676 0 0 0 -1 I I #
point $-1 -61.001617481002228 38.693869392136676 13.946537848504649 #
coedge $-1 $394 $432 $396 $448 reversed $427 $-1 #
straight-curve $-1 -61.001617481002228 0 13.946537848504649 0 -1 0 I I #
edge $-1 $397 -13.946537848504649 $434 8.0205255048439472 $446 $488 forward 7 unknown #
point $-1 -61.001617481002228 -38.693869392136676 13.946537848504649 #
face $-1 $489 $490 $15 $-1 $491 reversed single #
loop $-1 $-1 $473 $400 #
plane-surface $-1 0 -38.693869392136676 0 0 1 0 0 0 1 forward_v I I I I #
coedge $-1 $492 $493 $457 $494 reversed $401 $-1 #
coedge $-1 $495 $403 $473 $496 reversed $342 $-1 #
coedge $-1 $403 $495 $492 $497 reversed $342 $-1 #
edge $-1 $474 -22.364655289128137 $498 -10.293772916888944 $415 $499 forward 7 unknown #
coedge $-1 $404 $415 $453 $494 forward $206 $-1 #
coedge $-1 $500 $501 $404 $459 forward $490 $-1 #
edge $-1 $462 -38.693869392136676 $502 26.622987019897483 $404 $503 forward 7 unknown #
coedge $-1 $504 $405 $501 $505 reversed $461 $-1 #
loop $-1 $-1 $409 $506 #
vertex $-1 $459 $507 #
straight-curve $-1 61.001617481002228 38.693869392136676 0 0 0 -1 I I #
point $-1 61.001617481002228 38.693869392136676 6.0239866476709842 #
coedge $-1 $409 $504 $413 $470 reversed $461 $-1 #
vertex $-1 $470 $508 #
straight-curve $-1 2.8431704117837597 38.693869392136676 62.186947417709177 0.71933979245794832 0 -0.69465837861970381 I I #
straight-curve $-1 52.797575736239615 16.174132564972282 13.946537848504647 0 1 0 I I #
coedge $-1 $414 $413 $509 $510 forward $278 $-1 #
edge $-1 $466 -52.797575736239622 $511 61.001617481002228 $465 $512 forward 7 unknown #
coedge $-1 $513 $416 $414 $472 reversed $451 $-1 #
edge $-1 $514 -61.001617481002228 $418 61.001617481002228 $471 $515 forward 7 unknown #
coedge $-1 $416 $513 $454 $496 forward $451 $-1 #
vertex $-1 $496 $516 #
straight-curve $-1 61.001617481002228 -38.693869392136676 0 0 0 -1 I I #
point $-1 61.001617481002228 -38.693869392136676 13.946537848504649 #
point $-1 -61.001617481002228 38.693869392136676 13.946537848504649 #
straight-curve $-1 -61.001617481002228 38.693869392136676 0 0 0 -1 I I #
coedge $-1 $432 $443 $429 $480 forward $427 $-1 #
edge $-1 $481 -8.454772010167499 $436 -2.5287596665067982 $479 $517 forward 7 unknown #
vertex $-1 $486 $518 #
straight-curve $-1 0 -26.622987019897483 -13.946537848504649 -1 0 0 I I #
straight-curve $-1 -61.001617481002228 -16.329214103008539 -8.0205255048439472 0 -1 0 I I #
point $-1 -61.001617481002228 -38.693869392136676 -8.0205255048439472 #
point $-1 -61.001617481002228 -26.622987019897483 -8.0205255048439472 #
edge $-1 $481 -26.622987019897483 $441 38.693869392136676 $443 $519 forward 7 unknown #
point $-1 -61.001617481002228 38.693869392136676 -13.946537848504649 #
straight-curve $-1 -61.001617481002228 -38.693869392136676 0 0 0 -1 I I #
face $-1 $506 $520 $15 $-1 $521 reversed single #
loop $-1 $-1 $500 $450 #
plane-surface $-1 0 0 -13.946537848504649 0 0 1 1 0 0 forward_v I I I I #
coedge $-1 $522 $453 $455 $497 forward $401 $-1 #
coedge $-1 $453 $522 $500 $523 reversed $401 $-1 #
edge $-1 $498 2.5287596665067982 $502 8.454772010167499 $457 $524 forward 7 unknown #
coedge $-1 $455 $454 $525 $526 reversed $342 $-1 #
edge $-1 $527 -61.001617481002228 $474 61.001617481002228 $473 $528 forward 7 unknown #
edge $-1 $498 -61.001617481002228 $529 61.001617481002228 $492 $530 forward 7 unknown #
vertex $-1 $456 $531 #
straight-curve $-1 61.001617481002228 -16.329214103008539 -8.0205255048439472 0 1 0 I I #
coedge $-1 $532 $458 $493 $523 forward $490 $-1 #
coedge $-1 $458 $532 $460 $505 forward $490 $-1 #
vertex $-1 $523 $533 #
straight-curve $-1 61.001617481002228 0 -13.946537848504649 0 -1 0 I I #
coedge $-1 $465 $460 $534 $535 reversed $461 $-1 #
edge $-1 $536 -61.001617481002228 $462 61.001617481002228 $460 $537 forward 7 unknown #
face $-1 $-1 $461 $15 $-1 $538 reversed single #
point $-1 61.001617481002228 38.693869392136676 -13.946537848504649 #
point $-1 52.797575736239622 38.693869392136676 13.946537848504647 #
coedge $-1 $534 $539 $469 $510 reversed $520 $-1 #
edge $-1 $511 -38.693869392136676 $514 38.693869392136676 $509 $540 forward 7 unknown #
vertex $-1 $470 $541 #
straight-curve $-1 0 38.693869392136676 13.946537848504649 -1 0 0 I I #
coedge $-1 $473 $471 $539 $542 forward $451 $-1 #
vertex $-1 $510 $543 #
straight-curve $-1 0 -38.693869392136676 13.946537848504649 1 0 0 I I #
point $-1 61.001617481002228 -38.693869392136676 -8.0205255048439472 #
straight-curve $-1 -61.001617481002228 -26.622987019897483 -5.491765838337149 0 0 1 I I #
point $-1 -61.001617481002228 -26.622987019897483 -13.946537848504649 #
straight-curve $-1 -61.001617481002228 0 -13.946537848504649 0 1 0 I I #
loop $-1 $-1 $525 $489 #
plane-surface $-1 -61.001617481002228 0 0 1 0 0 0 0 -1 forward_v I I I I #
coedge $-1 $493 $492 $544 $545 reversed $401 $-1 #
edge $-1 $502 -61.001617481002228 $546 61.001617481002228 $500 $547 forward 7 unknown #
straight-curve $-1 61.001617481002228 -26.622987019897483 -5.491765838337149 0 0 -1 I I #
coedge $-1 $539 $544 $495 $526 forward $520 $-1 #
edge $-1 $529 10.293772916888944 $527 22.364655289128137 $525 $548 forward 7 unknown #
vertex $-1 $496 $549 #
straight-curve $-1 0 -38.693869392136676 -8.0205255048439472 1 0 0 I I #
vertex $-1 $526 $550 #
straight-curve $-1 0 -26.622987019897483 -8.0205255048439472 -1 0 0 I I #
point $-1 61.001617481002228 -26.622987019897483 -8.0205255048439472 #
coedge $-1 $501 $500 $551 $552 forward $490 $-1 #
point $-1 61.001617481002228 -26.622987019897483 -13.946537848504649 #
coedge $-1 $551 $509 $504 $535 forward $520 $-1 #
edge $-1 $511 -13.946537848504649 $536 13.946537848504649 $504 $553 forward 7 unknown #
vertex $-1 $505 $554 #
straight-curve $-1 0 38.693869392136676 -13.946537848504649 1 0 0 I I #
plane-surface $-1 0 38.693869392136676 0 0 -1 0 0 0 -1 forward_v I I I I #
coedge $-1 $509 $525 $513 $542 reversed $520 $-1 #
straight-curve $-1 -61.001617481002228 0 13.946537848504649 0 -1 0 I I #
point $-1 -61.001617481002228 38.693869392136676 13.946537848504649 #
edge $-1 $514 -13.946537848504649 $527 8.0205255048439472 $539 $555 forward 7 unknown #
point $-1 -61.001617481002228 -38.693869392136676 13.946537848504649 #
coedge $-1 $525 $551 $522 $545 forward $520 $-1 #
edge $-1 $546 -8.454772010167499 $529 -2.5287596665067982 $544 $556 forward 7 unknown #
vertex $-1 $552 $557 #
straight-curve $-1 0 -26.622987019897483 -13.946537848504649 -1 0 0 I I #
straight-curve $-1 -61.001617481002228 -16.329214103008539 -8.0205255048439472 0 -1 0 I I #
point $-1 -61.001617481002228 -38.693869392136676 -8.0205255048439472 #
point $-1 -61.001617481002228 -26.622987019897483 -8.0205255048439472 #
coedge $-1 $544 $534 $532 $552 reversed $520 $-1 #
edge $-1 $546 -26.622987019897483 $536 38.693869392136676 $551 $558 forward 7 unknown #
straight-curve $-1 -61.001617481002228 38.693869392136676 0 0 0 -1 I I #
point $-1 -61.001617481002228 38.693869392136676 -13.946537848504649 #
straight-curve $-1 -61.001617481002228 -38.693869392136676 0 0 0 -1 I I #
straight-curve $-1 -61.001617481002228 -26.622987019897483 -5.491765838337149 0 0 1 I I #
point $-1 -61.001617481002228 -26.622987019897483 -13.946537848504649 #
straight-curve $-1 -61.001617481002228 0 -13.946537848504649 0 1 0 I I #
End-of-ACIS-data 