500 0 9 0           
7 Unknown 11 ACIS 5.0 NT 24 Fri Mar 26 18:03:20 1999 
-1 9.9999999999999995e-007 1e-010 
body $-1 $9 $-1 $10 #
body $-1 $11 $-1 $12 #
body $-1 $13 $-1 $14 #
body $-1 $15 $-1 $16 #
body $-1 $17 $-1 $18 #
body $-1 $19 $-1 $20 #
body $-1 $21 $-1 $22 #
body $-1 $23 $-1 $24 #
body $-1 $25 $-1 $26 #
lump $-1 $-1 $27 $0 #
transform $-1 1 0 0 0 1 0 0 0 1 52.206183050019838 23.34309607539447 6.5643062983219345 1 rotate no_reflect no_shear #
lump $-1 $-1 $28 $1 #
transform $-1 1 0 0 0 1 0 0 0 1 52.206183050019838 23.34309607539447 6.5643062983219345 1 rotate no_reflect no_shear #
lump $-1 $-1 $29 $2 #
transform $-1 1 0 0 0 1 0 0 0 1 52.206183050019838 23.34309607539447 6.5643062983219345 1 rotate no_reflect no_shear #
lump $-1 $-1 $30 $3 #
transform $-1 1 0 0 0 1 0 0 0 1 52.206183050019838 23.34309607539447 6.5643062983219345 1 rotate no_reflect no_shear #
lump $-1 $-1 $31 $4 #
transform $-1 1 0 0 0 1 0 0 0 1 52.206183050019838 23.34309607539447 6.5643062983219345 1 rotate no_reflect no_shear #
lump $-1 $-1 $32 $5 #
transform $-1 1 0 0 0 1 0 0 0 1 52.206183050019838 23.34309607539447 6.5643062983219345 1 rotate no_reflect no_shear #
lump $-1 $-1 $33 $6 #
transform $-1 1 0 0 0 1 0 0 0 1 52.206183050019838 23.34309607539447 6.5643062983219345 1 rotate no_reflect no_shear #
lump $-1 $-1 $34 $7 #
transform $-1 1 0 0 0 1 0 0 0 1 52.206183050019838 23.34309607539447 6.5643062983219345 1 rotate no_reflect no_shear #
lump $-1 $-1 $35 $8 #
transform $-1 1 0 0 0 1 0 0 0 1 52.206183050019838 23.34309607539447 6.5643062983219345 1 rotate no_reflect no_shear #
shell $-1 $-1 $-1 $36 $-1 $9 #
shell $-1 $-1 $-1 $37 $-1 $11 #
shell $-1 $-1 $-1 $38 $-1 $13 #
shell $-1 $-1 $-1 $39 $-1 $15 #
shell $-1 $-1 $-1 $40 $-1 $17 #
shell $-1 $-1 $-1 $41 $-1 $19 #
shell $-1 $-1 $-1 $42 $-1 $21 #
shell $-1 $-1 $-1 $43 $-1 $23 #
shell $-1 $-1 $-1 $44 $-1 $25 #
face $-1 $45 $46 $27 $-1 $47 forward single #
face $-1 $48 $49 $28 $-1 $50 reversed single #
face $-1 $51 $52 $29 $-1 $53 forward single #
face $-1 $54 $55 $30 $-1 $56 reversed single #
face $-1 $57 $58 $31 $-1 $59 forward single #
face $-1 $60 $61 $32 $-1 $62 forward single #
face $-1 $63 $64 $33 $-1 $65 reversed single #
face $-1 $66 $67 $34 $-1 $68 forward single #
face $-1 $69 $70 $35 $-1 $71 forward single #
face $-1 $72 $73 $27 $-1 $74 reversed single #
loop $-1 $-1 $75 $36 #
plane-surface $-1 0 0 6.5643062983219345 0 0 1 1 0 0 forward_v I I I I #
face $-1 $76 $77 $28 $-1 $78 reversed single #
loop $-1 $-1 $79 $37 #
plane-surface $-1 -48.772173598473728 0 3.5643062983219345 0 0 1 1 0 0 forward_v I I I I #
face $-1 $80 $81 $29 $-1 $82 reversed single #
loop $-1 $-1 $83 $38 #
plane-surface $-1 49.207440775221379 0 -3.2688710816058446 0 0 1 1 0 0 forward_v I I I I #
face $-1 $84 $85 $30 $-1 $86 reversed single #
loop $-1 $-1 $87 $39 #
plane-surface $-1 46.208698500422905 -90.458072127465442 81.372075588694642 -1 0 0 0 -0.64278761758704617 0.76604443648966558 forward_v I I I I #
face $-1 $88 $89 $31 $-1 $90 forward single #
loop $-1 $91 $92 $40 #
cone-surface $-1 36.738065021933416 -19.108054095631857 2.6050117661791301 0 0.64278761758704617 -0.76604443648966558 1.5 0 0 1 I I 0 1 1.5 forward I I I I #
face $-1 $93 $94 $32 $-1 $95 forward single #
loop $-1 $96 $97 $41 #
cone-surface $-1 42.420445109027106 -19.108054095631857 2.6050117661791301 0 0.64278761758704617 -0.76604443648966558 1.5 0 0 1 I I 0 1 1.5 forward I I I I #
face $-1 $98 $99 $33 $-1 $100 reversed single #
loop $-1 $-1 $101 $42 #
plane-surface $-1 32.949811630537617 54.694374369466075 111.38138181551132 1 0 0 0 -0.64278761758704617 -0.76604443648966558 forward_v I I I I #
face $-1 $102 $103 $34 $-1 $104 forward single #
loop $-1 $105 $106 $43 #
cone-surface $-1 36.738065021933416 19.108054095631857 2.6050117661791363 0 -0.64278761758704617 -0.76604443648966558 1.5 0 0 1 I I 0 1 1.5 forward I I I I #
face $-1 $107 $108 $35 $-1 $109 forward single #
loop $-1 $110 $111 $44 #
cone-surface $-1 42.420445109027106 19.108054095631857 2.6050117661791363 0 -0.64278761758704617 -0.76604443648966558 1.5 0 0 1 I I 0 1 1.5 forward I I I I #
face $-1 $112 $113 $27 $-1 $114 reversed single #
loop $-1 $-1 $115 $45 #
plane-surface $-1 0 0 -6.5643062983219345 0 0 1 1 0 0 forward_v I I I I #
coedge $-1 $116 $117 $118 $119 forward $46 $-1 #
face $-1 $120 $121 $28 $-1 $122 reversed single #
loop $-1 $-1 $123 $48 #
plane-surface $-1 -45.338164146927618 0 5.0643062983219345 -1 0 0 0 0 1 forward_v I I I I #
coedge $-1 $124 $125 $126 $127 forward $49 $-1 #
face $-1 $128 $129 $29 $-1 $130 reversed single #
loop $-1 $-1 $131 $51 #
plane-surface $-1 46.208698500422912 0 -4.9165886899638895 1 0 0 0 0 -1 forward_v I I I I #
coedge $-1 $132 $133 $134 $135 reversed $52 $-1 #
face $-1 $136 $137 $30 $-1 $138 reversed single #
loop $-1 $-1 $139 $54 #
plane-surface $-1 39.579255065480261 -23.34309607539447 1.3875634370370875 0 -0.64278761758704617 0.76604443648966558 1 0 0 forward_v I I I I #
coedge $-1 $140 $141 $142 $143 reversed $55 $-1 #
face $-1 $-1 $144 $31 $-1 $145 forward single #
loop $-1 $146 $147 $57 #
cone-surface $-1 36.738065021933416 -17.47562228950634 0.65955533731149618 0 0.64278761758704617 -0.76604443648966558 0.75 0 0 1 I I -0.70710678118654757 0.70710678118654757 0.75 forward I I I I #
loop $-1 $-1 $148 $40 #
coedge $-1 $92 $92 $149 $150 reversed $58 $-1 #
face $-1 $-1 $151 $32 $-1 $152 forward single #
loop $-1 $153 $154 $60 #
cone-surface $-1 42.420445109027106 -17.47562228950634 0.65955533731149618 0 0.64278761758704617 -0.76604443648966558 0.75 0 0 1 I I -0.70710678118654757 0.70710678118654757 0.75 forward I I I I #
loop $-1 $-1 $155 $41 #
coedge $-1 $97 $97 $156 $157 reversed $61 $-1 #
face $-1 $158 $159 $33 $-1 $160 reversed single #
loop $-1 $-1 $161 $63 #
plane-surface $-1 39.579255065480261 -12.420601682604897 31.396869663853764 0 0.64278761758704617 0.76604443648966558 1 0 0 forward_v I I I I #
coedge $-1 $162 $163 $164 $165 reversed $64 $-1 #
face $-1 $-1 $166 $34 $-1 $167 forward single #
loop $-1 $168 $169 $66 #
cone-surface $-1 36.738065021933416 17.47562228950634 0.6595553373115024 0 -0.64278761758704617 -0.76604443648966558 0.75 0 0 1 I I -0.70710678118654757 0.70710678118654757 0.75 forward I I I I #
loop $-1 $-1 $170 $43 #
coedge $-1 $106 $106 $171 $172 reversed $67 $-1 #
face $-1 $-1 $173 $35 $-1 $174 forward single #
loop $-1 $175 $176 $69 #
cone-surface $-1 42.420445109027106 17.47562228950634 0.6595553373115024 0 -0.64278761758704617 -0.76604443648966558 0.75 0 0 1 I I -0.70710678118654757 0.70710678118654757 0.75 forward I I I I #
loop $-1 $-1 $177 $44 #
coedge $-1 $111 $111 $178 $179 reversed $70 $-1 #
face $-1 $180 $181 $27 $-1 $182 reversed single #
loop $-1 $-1 $183 $72 #
plane-surface $-1 0 -23.34309607539447 0 0 1 0 0 0 1 forward_v I I I I #
coedge $-1 $184 $185 $186 $187 forward $73 $-1 #
coedge $-1 $188 $75 $189 $190 forward $46 $-1 #
coedge $-1 $75 $188 $191 $192 forward $46 $-1 #
coedge $-1 $193 $194 $75 $119 reversed $195 $-1 #
edge $-1 $196 -23.34309607539447 $197 23.34309607539447 $118 $198 forward 7 unknown #
face $-1 $199 $200 $28 $-1 $201 reversed single #
loop $-1 $-1 $202 $76 #
plane-surface $-1 0 23.34309607539447 0 0 -1 0 0 0 -1 forward_v I I I I #
coedge $-1 $126 $203 $204 $205 reversed $77 $-1 #
coedge $-1 $206 $79 $207 $208 reversed $49 $-1 #
coedge $-1 $79 $206 $209 $210 reversed $49 $-1 #
coedge $-1 $211 $123 $79 $127 reversed $77 $-1 #
edge $-1 $212 -23.34309607539447 $213 23.34309607539447 $126 $214 forward 7 unknown #
face $-1 $215 $216 $29 $-1 $217 reversed single #
loop $-1 $-1 $218 $80 #
plane-surface $-1 0 -23.34309607539447 0 0 1 0 0 0 1 forward_v I I I I #
coedge $-1 $219 $220 $221 $222 reversed $81 $-1 #
coedge $-1 $223 $83 $224 $225 reversed $52 $-1 #
coedge $-1 $83 $223 $218 $226 reversed $52 $-1 #
coedge $-1 $227 $228 $83 $135 forward $229 $-1 #
edge $-1 $230 -23.34309607539447 $231 23.34309607539447 $134 $232 forward 7 unknown #
face $-1 $233 $234 $30 $-1 $235 forward single #
loop $-1 $-1 $236 $84 #
plane-surface $-1 32.949811630537617 -90.458072127465442 81.372075588694642 1 0 0 0 0.64278761758704617 -0.76604443648966558 forward_v I I I I #
coedge $-1 $237 $238 $239 $240 reversed $85 $-1 #
coedge $-1 $141 $87 $241 $242 reversed $55 $-1 #
coedge $-1 $87 $140 $237 $243 reversed $55 $-1 #
coedge $-1 $239 $244 $87 $143 forward $234 $-1 #
edge $-1 $245 21.885939988338251 $246 28.055341761993027 $142 $247 forward 7 unknown #
loop $-1 $-1 $149 $88 #
plane-surface $-1 39.579255065480261 -23.34309607539447 1.3875634370370875 0 -0.64278761758704617 0.76604443648966558 1 0 0 forward_v I I I I #
loop $-1 $-1 $248 $57 #
coedge $-1 $147 $147 $148 $249 reversed $89 $-1 #
coedge $-1 $148 $148 $147 $249 forward $91 $-1 #
coedge $-1 $149 $149 $92 $150 forward $144 $-1 #
edge $-1 $250 -1.1547716724189668e-015 $250 6.2831853071795996 $149 $251 forward 7 unknown #
loop $-1 $-1 $156 $93 #
plane-surface $-1 39.579255065480261 -23.34309607539447 1.3875634370370875 0 -0.64278761758704617 0.76604443648966558 1 0 0 forward_v I I I I #
loop $-1 $-1 $252 $60 #
coedge $-1 $154 $154 $155 $253 reversed $94 $-1 #
coedge $-1 $155 $155 $154 $253 forward $96 $-1 #
coedge $-1 $156 $156 $97 $157 forward $151 $-1 #
edge $-1 $254 -1.1547716724189668e-015 $254 6.2831853071795996 $156 $255 forward 7 unknown #
face $-1 $256 $257 $33 $-1 $258 reversed single #
loop $-1 $-1 $259 $98 #
plane-surface $-1 46.208698500422905 54.694374369466075 111.38138181551132 -1 0 0 0 0.64278761758704617 0.76604443648966558 forward_v I I I I #
coedge $-1 $260 $261 $262 $263 reversed $99 $-1 #
coedge $-1 $163 $101 $264 $265 reversed $64 $-1 #
coedge $-1 $101 $162 $260 $266 reversed $64 $-1 #
coedge $-1 $262 $267 $101 $165 forward $268 $-1 #
edge $-1 $269 4.0040911093385674 $270 10.173492882993347 $164 $271 forward 7 unknown #
loop $-1 $-1 $171 $102 #
plane-surface $-1 39.579255065480261 -12.420601682604897 31.396869663853764 0 0.64278761758704617 0.76604443648966558 1 0 0 forward_v I I I I #
loop $-1 $-1 $272 $66 #
coedge $-1 $169 $169 $170 $273 reversed $103 $-1 #
coedge $-1 $170 $170 $169 $273 forward $105 $-1 #
coedge $-1 $171 $171 $106 $172 forward $166 $-1 #
edge $-1 $274 9.7741980059163567e-016 $274 6.2831853071796013 $171 $275 forward 7 unknown #
loop $-1 $-1 $178 $107 #
plane-surface $-1 39.579255065480261 -12.420601682604897 31.396869663853764 0 0.64278761758704617 0.76604443648966558 1 0 0 forward_v I I I I #
loop $-1 $-1 $276 $69 #
coedge $-1 $176 $176 $177 $277 reversed $108 $-1 #
coedge $-1 $177 $177 $176 $277 forward $110 $-1 #
coedge $-1 $178 $178 $111 $179 forward $173 $-1 #
edge $-1 $278 9.7741980059163567e-016 $278 6.2831853071796013 $178 $279 forward 7 unknown #
face $-1 $280 $281 $27 $-1 $282 reversed single #
loop $-1 $-1 $283 $112 #
plane-surface $-1 -52.206183050019838 0 0 1 0 0 0 0 -1 forward_v I I I I #
coedge $-1 $284 $191 $285 $286 forward $113 $-1 #
coedge $-1 $287 $115 $284 $288 forward $73 $-1 #
coedge $-1 $115 $287 $289 $290 forward $73 $-1 #
coedge $-1 $194 $193 $115 $187 reversed $195 $-1 #
edge $-1 $291 -23.34309607539447 $292 23.34309607539447 $186 $293 forward 7 unknown #
coedge $-1 $117 $116 $294 $295 forward $46 $-1 #
coedge $-1 $296 $297 $116 $190 reversed $281 $-1 #
edge $-1 $197 -52.206183050019838 $298 52.206183050019838 $189 $299 forward 7 unknown #
coedge $-1 $183 $300 $117 $192 reversed $113 $-1 #
edge $-1 $301 -52.206183050019838 $196 52.206183050019838 $191 $302 forward 7 unknown #
coedge $-1 $186 $118 $300 $303 forward $195 $-1 #
coedge $-1 $118 $186 $296 $304 reversed $195 $-1 #
loop $-1 $-1 $193 $280 #
vertex $-1 $119 $305 #
vertex $-1 $119 $306 #
straight-curve $-1 52.206183050019838 0 6.5643062983219345 0 1 0 I I #
face $-1 $307 $308 $28 $-1 $309 forward single #
loop $-1 $-1 $310 $120 #
plane-surface $-1 -52.206183050019838 0 0 1 0 0 0 0 -1 forward_v I I I I #
coedge $-1 $209 $311 $211 $312 forward $121 $-1 #
coedge $-1 $123 $211 $313 $314 reversed $77 $-1 #
coedge $-1 $315 $207 $123 $205 forward $316 $-1 #
edge $-1 $213 1.0321531491609672 $317 4.0321531491609672 $204 $318 forward 7 unknown #
coedge $-1 $125 $124 $310 $319 reversed $49 $-1 #
coedge $-1 $204 $320 $124 $208 forward $316 $-1 #
edge $-1 $321 -27.820096250782974 $213 -20.952077347690754 $207 $322 forward 7 unknown #
coedge $-1 $323 $202 $125 $210 forward $121 $-1 #
edge $-1 $212 20.952077347690754 $324 27.820096250782974 $209 $325 forward 7 unknown #
coedge $-1 $203 $126 $202 $312 reversed $77 $-1 #
vertex $-1 $210 $326 #
vertex $-1 $208 $327 #
straight-curve $-1 -45.338164146927618 0 3.5643062983219345 0 -1 0 I I #
face $-1 $328 $329 $29 $-1 $330 reversed single #
loop $-1 $-1 $331 $128 #
plane-surface $-1 0 0 -6.5643062983219345 0 0 1 1 0 0 forward_v I I I I #
coedge $-1 $332 $333 $133 $226 forward $129 $-1 #
coedge $-1 $334 $131 $331 $335 reversed $81 $-1 #
coedge $-1 $131 $334 $223 $336 reversed $81 $-1 #
coedge $-1 $224 $337 $131 $222 forward $329 $-1 #
edge $-1 $338 -4.1060119533399897 $339 -0.81057673662389984 $221 $340 forward 7 unknown #
coedge $-1 $133 $132 $220 $336 forward $52 $-1 #
coedge $-1 $341 $221 $132 $225 forward $329 $-1 #
edge $-1 $339 21.604978112812223 $230 27.602462662409156 $224 $342 forward 7 unknown #
edge $-1 $231 -27.602462662409156 $343 -21.604978112812223 $218 $344 forward 7 unknown #
coedge $-1 $345 $134 $333 $346 forward $229 $-1 #
coedge $-1 $134 $345 $341 $347 reversed $229 $-1 #
loop $-1 $-1 $134 $328 #
vertex $-1 $347 $348 #
vertex $-1 $346 $349 #
straight-curve $-1 52.206183050019838 0 -3.2688710816058446 0 -1 0 I I #
face $-1 $-1 $350 $30 $-1 $351 reversed single #
loop $-1 $-1 $142 $136 #
plane-surface $-1 0 0 6.5643062983219345 0 0 1 1 0 0 forward_v I I I I #
coedge $-1 $352 $353 $354 $355 reversed $137 $-1 #
coedge $-1 $356 $139 $141 $243 forward $85 $-1 #
coedge $-1 $139 $356 $352 $357 forward $85 $-1 #
coedge $-1 $354 $142 $139 $240 forward $234 $-1 #
edge $-1 $246 -26.419070967682774 $358 -13.160184097797487 $239 $359 forward 7 unknown #
coedge $-1 $360 $361 $140 $242 forward $350 $-1 #
edge $-1 $362 -39.298474357310234 $245 -34.12173149602539 $241 $363 forward 7 unknown #
edge $-1 $246 -8.0535821158437511 $362 0 $141 $364 forward 7 unknown #
coedge $-1 $142 $354 $360 $365 forward $234 $-1 #
vertex $-1 $242 $366 #
vertex $-1 $143 $367 #
straight-curve $-1 46.208698500422905 -45.229036063732721 6.564306298321938 0 1 0 I I #
coedge $-1 $248 $248 $-1 $368 reversed $146 $-1 #
edge $-1 $369 0 $369 6.2831853071796004 $147 $370 forward 7 unknown #
vertex $-1 $150 $371 #
ellipse-curve $-1 36.738065021933416 -20.258395188567086 3.9759348676795092 0 -0.64278761758704617 0.76604443648966558 1.5 0 0 1 I I #
coedge $-1 $252 $252 $-1 $372 reversed $153 $-1 #
edge $-1 $373 0 $373 6.2831853071796004 $154 $374 forward 7 unknown #
vertex $-1 $157 $375 #
ellipse-curve $-1 42.420445109027106 -20.258395188567086 3.9759348676795092 0 -0.64278761758704617 0.76604443648966558 1.5 0 0 1 I I #
face $-1 $-1 $268 $33 $-1 $376 forward single #
loop $-1 $-1 $377 $158 #
plane-surface $-1 0 23.34309607539447 0 0 -1 0 0 0 -1 forward_v I I I I #
coedge $-1 $378 $379 $380 $381 reversed $159 $-1 #
coedge $-1 $382 $161 $163 $266 forward $99 $-1 #
coedge $-1 $161 $382 $378 $383 forward $99 $-1 #
coedge $-1 $380 $164 $161 $263 forward $268 $-1 #
edge $-1 $270 13.160184097797487 $384 26.419070967682774 $262 $385 forward 7 unknown #
coedge $-1 $386 $387 $162 $265 forward $257 $-1 #
edge $-1 $388 -54.303127470718579 $269 -49.126384609433728 $264 $389 forward 7 unknown #
edge $-1 $270 38.632610034945188 $388 46.686192150788948 $163 $390 forward 7 unknown #
coedge $-1 $164 $380 $386 $391 forward $268 $-1 #
loop $-1 $-1 $380 $256 #
vertex $-1 $265 $392 #
vertex $-1 $165 $393 #
straight-curve $-1 32.949811630537617 27.347187184733038 6.564306298321938 0 -1 0 I I #
coedge $-1 $272 $272 $-1 $394 reversed $168 $-1 #
edge $-1 $395 0 $395 6.2831853071796004 $169 $396 forward 7 unknown #
vertex $-1 $172 $397 #
ellipse-curve $-1 36.738065021933416 20.258395188567079 3.9759348676795065 0 0.64278761758704617 0.76604443648966558 1.5 0 0 1 I I #
coedge $-1 $276 $276 $-1 $398 reversed $175 $-1 #
edge $-1 $399 0 $399 6.2831853071796004 $176 $400 forward 7 unknown #
vertex $-1 $179 $401 #
ellipse-curve $-1 42.420445109027106 20.258395188567079 3.9759348676795065 0 0.64278761758704617 0.76604443648966558 1.5 0 0 1 I I #
face $-1 $-1 $195 $27 $-1 $402 reversed single #
loop $-1 $-1 $296 $180 #
plane-surface $-1 0 23.34309607539447 0 0 -1 0 0 0 -1 forward_v I I I I #
coedge $-1 $403 $294 $297 $404 forward $181 $-1 #
coedge $-1 $300 $183 $184 $288 reversed $113 $-1 #
coedge $-1 $294 $403 $183 $286 reversed $181 $-1 #
edge $-1 $301 -6.5643062983219345 $405 6.5643062983219345 $285 $406 forward 7 unknown #
coedge $-1 $185 $184 $403 $407 forward $73 $-1 #
edge $-1 $292 -52.206183050019838 $405 52.206183050019838 $284 $408 forward 7 unknown #
coedge $-1 $297 $296 $185 $290 reversed $281 $-1 #
edge $-1 $409 -52.206183050019838 $291 52.206183050019838 $289 $410 forward 7 unknown #
vertex $-1 $187 $411 #
vertex $-1 $303 $412 #
straight-curve $-1 52.206183050019838 0 -6.5643062983219345 0 -1 0 I I #
coedge $-1 $283 $285 $188 $295 reversed $181 $-1 #
edge $-1 $298 -23.34309607539447 $301 23.34309607539447 $294 $413 forward 7 unknown #
coedge $-1 $289 $189 $194 $304 forward $281 $-1 #
coedge $-1 $189 $289 $283 $404 reversed $281 $-1 #
vertex $-1 $190 $414 #
straight-curve $-1 0 23.34309607539447 6.5643062983219345 -1 0 0 I I #
coedge $-1 $191 $284 $193 $303 reversed $113 $-1 #
vertex $-1 $295 $415 #
straight-curve $-1 0 -23.34309607539447 6.5643062983219345 1 0 0 I I #
edge $-1 $196 -6.5643062983219345 $292 6.5643062983219345 $193 $416 forward 7 unknown #
edge $-1 $197 -6.5643062983219345 $291 6.5643062983219345 $194 $417 forward 7 unknown #
point $-1 52.206183050019838 -23.34309607539447 6.5643062983219345 #
point $-1 52.206183050019838 23.34309607539447 6.5643062983219345 #
face $-1 $-1 $316 $28 $-1 $418 reversed single #
loop $-1 $-1 $313 $199 #
plane-surface $-1 0 0 6.5643062983219345 0 0 1 1 0 0 forward_v I I I I #
coedge $-1 $419 $420 $206 $319 forward $200 $-1 #
coedge $-1 $202 $323 $421 $422 reversed $121 $-1 #
edge $-1 $423 -4.0321531491609672 $212 -1.0321531491609672 $202 $424 forward 7 unknown #
coedge $-1 $421 $425 $203 $314 forward $308 $-1 #
edge $-1 $317 -23.34309607539447 $423 23.34309607539447 $313 $426 forward 7 unknown #
coedge $-1 $320 $204 $425 $427 reversed $316 $-1 #
loop $-1 $-1 $204 $307 #
vertex $-1 $205 $428 #
straight-curve $-1 -45.338164146927618 -23.34309607539447 2.5321531491609672 0 0 1 I I #
edge $-1 $324 -23.34309607539447 $321 23.34309607539447 $310 $429 forward 7 unknown #
coedge $-1 $207 $315 $419 $430 forward $316 $-1 #
vertex $-1 $319 $431 #
straight-curve $-1 -24.386086799236864 -23.34309607539447 3.5643062983219345 1 0 0 I I #
coedge $-1 $311 $209 $420 $432 reversed $121 $-1 #
vertex $-1 $319 $433 #
straight-curve $-1 -24.386086799236864 23.34309607539447 3.5643062983219345 -1 0 0 I I #
point $-1 -45.338164146927618 23.34309607539447 3.5643062983219345 #
point $-1 -45.338164146927618 -23.34309607539447 3.5643062983219345 #
face $-1 $-1 $229 $29 $-1 $434 reversed single #
loop $-1 $-1 $224 $215 #
plane-surface $-1 0 23.34309607539447 0 0 -1 0 0 0 -1 forward_v I I I I #
coedge $-1 $435 $436 $219 $335 forward $216 $-1 #
coedge $-1 $437 $218 $334 $438 forward $129 $-1 #
coedge $-1 $218 $437 $227 $346 reversed $129 $-1 #
coedge $-1 $220 $219 $332 $438 reversed $81 $-1 #
edge $-1 $439 -23.34309607539447 $338 23.34309607539447 $331 $440 forward 7 unknown #
edge $-1 $339 -23.34309607539447 $343 23.34309607539447 $220 $441 forward 7 unknown #
coedge $-1 $221 $341 $435 $442 reversed $329 $-1 #
vertex $-1 $442 $443 #
vertex $-1 $225 $444 #
straight-curve $-1 46.208698500422912 23.34309607539447 -2.4582943449819448 0 0 1 I I #
coedge $-1 $337 $224 $228 $347 forward $329 $-1 #
straight-curve $-1 24.603720387610689 23.34309607539447 -3.2688710816058446 1 0 0 I I #
vertex $-1 $226 $445 #
straight-curve $-1 24.603720387610689 -23.34309607539447 -3.2688710816058446 -1 0 0 I I #
coedge $-1 $228 $227 $446 $447 reversed $229 $-1 #
edge $-1 $231 3.2688710816058446 $448 6.5643062983219345 $227 $449 forward 7 unknown #
edge $-1 $230 3.2688710816058446 $450 6.5643062983219345 $228 $451 forward 7 unknown #
point $-1 52.206183050019845 23.34309607539447 -3.2688710816058446 #
point $-1 52.206183050019845 -23.34309607539447 -3.2688710816058446 #
loop $-1 $-1 $241 $233 #
plane-surface $-1 0 -23.34309607539447 0 0 1 0 0 0 1 forward_v I I I I #
coedge $-1 $353 $236 $238 $357 reversed $137 $-1 #
coedge $-1 $236 $352 $452 $453 reversed $137 $-1 #
coedge $-1 $244 $239 $236 $355 forward $234 $-1 #
edge $-1 $358 -28.055341761993027 $454 -21.885939988338251 $354 $455 forward 7 unknown #
coedge $-1 $238 $237 $361 $456 reversed $85 $-1 #
edge $-1 $457 0 $358 8.0535821158437511 $352 $458 forward 7 unknown #
vertex $-1 $240 $459 #
straight-curve $-1 19.789627532740131 -17.173694301739697 6.5643062983219345 -1 0 0 I I #
coedge $-1 $452 $241 $244 $365 reversed $350 $-1 #
coedge $-1 $241 $452 $356 $456 forward $350 $-1 #
vertex $-1 $242 $460 #
straight-curve $-1 46.208698500422905 -23.34309607539447 40.686037794347321 0 0 1 I I #
straight-curve $-1 46.208698500422905 -23.34309607539447 1.3875634370370875 0 -0.76604443648966558 -0.64278761758704617 I I #
edge $-1 $454 32.949811630537617 $245 46.208698500422905 $360 $461 forward 7 unknown #
point $-1 46.208698500422905 -23.34309607539447 6.5643062983219345 #
point $-1 46.208698500422905 -17.173694301739694 6.5643062983219345 #
edge $-1 $462 1 $462 0 $248 $-1 forward 7 unknown #
vertex $-1 $249 $463 #
ellipse-curve $-1 36.738065021933416 -17.957713002696625 1.2340886646787452 0 -0.64278761758704617 0.76604443648966558 1.5 0 0 1 I I #
point $-1 38.238065021933416 -20.258395188567093 3.975934867679515 #
edge $-1 $464 1 $464 0 $252 $-1 forward 7 unknown #
vertex $-1 $253 $465 #
ellipse-curve $-1 42.420445109027106 -17.957713002696625 1.2340886646787452 0 -0.64278761758704617 0.76604443648966558 1.5 0 0 1 I I #
point $-1 43.920445109027106 -20.258395188567093 3.975934867679515 #
plane-surface $-1 0 0 6.5643062983219345 0 0 1 1 0 0 forward_v I I I I #
coedge $-1 $387 $386 $379 $466 forward $257 $-1 #
coedge $-1 $379 $259 $261 $383 reversed $159 $-1 #
coedge $-1 $259 $378 $377 $466 reversed $159 $-1 #
coedge $-1 $267 $262 $259 $381 forward $268 $-1 #
edge $-1 $384 -10.173492882993347 $467 -4.0040911093385674 $380 $468 forward 7 unknown #
coedge $-1 $261 $260 $387 $469 reversed $99 $-1 #
edge $-1 $470 -46.686192150788948 $384 -38.632610034945188 $378 $471 forward 7 unknown #
vertex $-1 $263 $472 #
straight-curve $-1 19.789627532740131 17.173694301739687 6.5643062983219345 1 0 0 I I #
coedge $-1 $377 $264 $267 $391 reversed $257 $-1 #
coedge $-1 $264 $377 $382 $469 forward $257 $-1 #
vertex $-1 $265 $473 #
straight-curve $-1 32.949811630537617 23.34309607539447 55.690690907755659 0 0 1 I I #
straight-curve $-1 32.949811630537617 -12.420601682604897 31.396869663853764 0 0.76604443648966558 -0.64278761758704617 I I #
edge $-1 $467 -46.208698500422905 $269 -32.949811630537617 $386 $474 forward 7 unknown #
point $-1 32.949811630537617 23.34309607539447 6.5643062983219345 #
point $-1 32.949811630537617 17.17369430173969 6.5643062983219345 #
edge $-1 $475 1 $475 0 $272 $-1 forward 7 unknown #
vertex $-1 $273 $476 #
ellipse-curve $-1 36.738065021933416 17.957713002696625 1.2340886646787514 0 0.64278761758704617 0.76604443648966558 1.5 0 0 1 I I #
point $-1 38.238065021933416 20.258395188567093 3.9759348676795212 #
edge $-1 $477 1 $477 0 $276 $-1 forward 7 unknown #
vertex $-1 $277 $478 #
ellipse-curve $-1 42.420445109027106 17.957713002696625 1.2340886646787514 0 0.64278761758704617 0.76604443648966558 1.5 0 0 1 I I #
point $-1 43.920445109027106 20.258395188567093 3.9759348676795212 #
plane-surface $-1 52.206183050019838 0 0 -1 0 0 0 0 1 forward_v I I I I #
coedge $-1 $285 $283 $287 $407 reversed $181 $-1 #
edge $-1 $298 -6.5643062983219345 $409 6.5643062983219345 $297 $479 forward 7 unknown #
vertex $-1 $407 $480 #
straight-curve $-1 -52.206183050019838 -23.34309607539447 0 0 0 -1 I I #
edge $-1 $405 -23.34309607539447 $409 23.34309607539447 $403 $481 forward 7 unknown #
straight-curve $-1 0 -23.34309607539447 -6.5643062983219345 -1 0 0 I I #
vertex $-1 $290 $482 #
straight-curve $-1 0 23.34309607539447 -6.5643062983219345 1 0 0 I I #
point $-1 52.206183050019838 23.34309607539447 -6.5643062983219345 #
point $-1 52.206183050019838 -23.34309607539447 -6.5643062983219345 #
straight-curve $-1 -52.206183050019838 0 6.5643062983219345 0 -1 0 I I #
point $-1 -52.206183050019838 23.34309607539447 6.5643062983219345 #
point $-1 -52.206183050019838 -23.34309607539447 6.5643062983219345 #
straight-curve $-1 52.206183050019838 -23.34309607539447 0 0 0 -1 I I #
straight-curve $-1 52.206183050019838 23.34309607539447 0 0 0 -1 I I #
plane-surface $-1 0 -23.34309607539447 0 0 1 0 0 0 1 forward_v I I I I #
coedge $-1 $483 $310 $320 $430 reversed $200 $-1 #
coedge $-1 $310 $483 $323 $432 forward $200 $-1 #
coedge $-1 $484 $313 $311 $422 forward $308 $-1 #
edge $-1 $423 45.338164146927618 $485 52.206183050019838 $311 $486 forward 7 unknown #
vertex $-1 $422 $487 #
straight-curve $-1 -45.338164146927618 23.34309607539447 2.5321531491609672 0 0 -1 I I #
coedge $-1 $313 $484 $315 $427 forward $308 $-1 #
straight-curve $-1 -45.338164146927618 0 6.5643062983219345 0 1 0 I I #
edge $-1 $488 -52.206183050019838 $317 -45.338164146927618 $315 $489 forward 7 unknown #
point $-1 -45.338164146927618 -23.34309607539447 6.5643062983219345 #
straight-curve $-1 -52.206183050019838 0 3.5643062983219345 0 -1 0 I I #
edge $-1 $488 -6.5643062983219345 $321 -3.5643062983219345 $419 $490 forward 7 unknown #
point $-1 -52.206183050019838 -23.34309607539447 3.5643062983219345 #
edge $-1 $485 -6.5643062983219345 $324 -3.5643062983219345 $323 $491 forward 7 unknown #
point $-1 -52.206183050019838 23.34309607539447 3.5643062983219345 #
plane-surface $-1 52.206183050019838 0 0 -1 0 0 0 0 1 forward_v I I I I #
coedge $-1 $446 $331 $337 $442 forward $216 $-1 #
coedge $-1 $331 $446 $437 $492 forward $216 $-1 #
coedge $-1 $333 $332 $436 $492 reversed $129 $-1 #
edge $-1 $343 0.81057673662389984 $439 4.1060119533399897 $332 $493 forward 7 unknown #
vertex $-1 $335 $494 #
straight-curve $-1 46.208698500422912 0 -6.5643062983219345 0 1 0 I I #
straight-curve $-1 46.208698500422912 0 -3.2688710816058446 0 -1 0 I I #
edge $-1 $338 46.208698500422912 $450 52.206183050019838 $337 $495 forward 7 unknown #
point $-1 46.208698500422912 23.34309607539447 -6.5643062983219345 #
point $-1 46.208698500422912 23.34309607539447 -3.2688710816058446 #
point $-1 46.208698500422912 -23.34309607539447 -3.2688710816058446 #
coedge $-1 $436 $435 $345 $447 forward $216 $-1 #
edge $-1 $450 -23.34309607539447 $448 23.34309607539447 $345 $496 forward 7 unknown #
vertex $-1 $346 $497 #
straight-curve $-1 52.206183050019838 -23.34309607539447 0 0 0 -1 I I #
vertex $-1 $447 $498 #
straight-curve $-1 52.206183050019838 23.34309607539447 0 0 0 -1 I I #
coedge $-1 $361 $360 $353 $453 forward $350 $-1 #
edge $-1 $454 34.12173149602539 $457 39.298474357310234 $452 $499 forward 7 unknown #
vertex $-1 $365 $500 #
straight-curve $-1 32.949811630537617 -45.229036063732721 6.564306298321938 0 -1 0 I I #
edge $-1 $457 13.160184097797487 $362 26.419070967682774 $361 $501 forward 7 unknown #
vertex $-1 $456 $502 #
straight-curve $-1 32.949811630537617 -23.34309607539447 1.3875634370370875 0 0.76604443648966558 0.64278761758704617 I I #
point $-1 32.949811630537617 -17.173694301739694 6.5643062983219345 #
point $-1 46.208698500422905 -23.34309607539447 1.3875634370370875 #
straight-curve $-1 0 -23.34309607539447 6.5643062983219345 1 0 0 I I #
vertex $-1 $368 $503 #
point $-1 38.238065021933416 -17.957713002696625 1.2340886646787452 #
vertex $-1 $372 $504 #
point $-1 43.920445109027106 -17.957713002696625 1.2340886646787452 #
edge $-1 $467 49.126384609433728 $470 54.303127470718579 $377 $505 forward 7 unknown #
vertex $-1 $391 $506 #
straight-curve $-1 46.208698500422905 27.347187184733038 6.564306298321938 0 1 0 I I #
edge $-1 $470 -26.419070967682774 $388 -13.160184097797487 $387 $507 forward 7 unknown #
vertex $-1 $469 $508 #
straight-curve $-1 46.208698500422905 -12.420601682604897 31.396869663853764 0 -0.76604443648966558 0.64278761758704617 I I #
point $-1 46.208698500422905 17.17369430173969 6.5643062983219345 #
point $-1 32.949811630537617 23.34309607539447 1.3875634370370804 #
straight-curve $-1 0 23.34309607539447 6.5643062983219345 -1 0 0 I I #
vertex $-1 $394 $509 #
point $-1 38.238065021933416 17.957713002696625 1.2340886646787514 #
vertex $-1 $398 $510 #
point $-1 43.920445109027106 17.957713002696625 1.2340886646787514 #
straight-curve $-1 -52.206183050019838 23.34309607539447 0 0 0 -1 I I #
point $-1 -52.206183050019838 -23.34309607539447 -6.5643062983219345 #
straight-curve $-1 -52.206183050019838 0 -6.5643062983219345 0 1 0 I I #
point $-1 -52.206183050019838 23.34309607539447 -6.5643062983219345 #
coedge $-1 $420 $419 $484 $511 reversed $200 $-1 #
coedge $-1 $425 $421 $483 $511 forward $308 $-1 #
vertex $-1 $422 $512 #
straight-curve $-1 0 23.34309607539447 6.5643062983219345 -1 0 0 I I #
point $-1 -45.338164146927618 23.34309607539447 6.5643062983219345 #
vertex $-1 $511 $513 #
straight-curve $-1 0 -23.34309607539447 6.5643062983219345 1 0 0 I I #
straight-curve $-1 -52.206183050019838 -23.34309607539447 0 0 0 -1 I I #
straight-curve $-1 -52.206183050019838 23.34309607539447 0 0 0 -1 I I #
edge $-1 $448 -52.206183050019838 $439 -46.208698500422912 $437 $514 forward 7 unknown #
straight-curve $-1 46.208698500422912 -23.34309607539447 -2.4582943449819448 0 0 -1 I I #
point $-1 46.208698500422912 -23.34309607539447 -6.5643062983219345 #
straight-curve $-1 0 23.34309607539447 -6.5643062983219345 1 0 0 I I #
straight-curve $-1 52.206183050019838 0 -6.5643062983219345 0 -1 0 I I #
point $-1 52.206183050019838 -23.34309607539447 -6.5643062983219345 #
point $-1 52.206183050019838 23.34309607539447 -6.5643062983219345 #
straight-curve $-1 32.949811630537617 -23.34309607539447 40.686037794347321 0 0 -1 I I #
point $-1 32.949811630537617 -23.34309607539447 6.5643062983219345 #
straight-curve $-1 19.789627532740131 -23.34309607539447 1.3875634370370882 1 0 0 I I #
point $-1 32.949811630537617 -23.34309607539447 1.3875634370370875 #
point $-1 36.738065021933416 -16.993531576316055 0.085022009944247023 #
point $-1 42.420445109027106 -16.993531576316055 0.085022009944247023 #
straight-curve $-1 46.208698500422905 23.34309607539447 55.690690907755659 0 0 -1 I I #
point $-1 46.208698500422905 23.34309607539447 6.5643062983219345 #
straight-curve $-1 19.789627532740131 23.343096075394463 1.3875634370370875 -1 0 0 I I #
point $-1 46.208698500422905 23.34309607539447 1.3875634370370804 #
point $-1 36.738065021933416 16.993531576316055 0.085022009944253241 #
point $-1 42.420445109027106 16.993531576316055 0.085022009944253241 #
edge $-1 $485 -23.34309607539447 $488 23.34309607539447 $483 $515 forward 7 unknown #
point $-1 -52.206183050019838 23.34309607539447 6.5643062983219345 #
point $-1 -52.206183050019838 -23.34309607539447 6.5643062983219345 #
straight-curve $-1 0 -23.34309607539447 -6.5643062983219345 -1 0 0 I I #
straight-curve $-1 -52.206183050019838 0 6.5643062983219345 0 -1 0 I I #
End-of-ACIS-data 