500 0 6 0           
7 Unknown 11 ACIS 5.0 NT 24 Fri Mar 26 15:08:52 1999 
-1 9.9999999999999995e-007 1e-010 
body $-1 $6 $-1 $7 #
body $-1 $8 $-1 $9 #
body $-1 $10 $-1 $11 #
body $-1 $12 $-1 $13 #
body $-1 $14 $-1 $15 #
body $-1 $16 $-1 $17 #
lump $-1 $-1 $18 $0 #
transform $-1 1 0 0 0 1 0 0 0 1 79.985351115451522 45.800382927148725 10.468379402892777 1 rotate no_reflect no_shear #
lump $-1 $-1 $19 $1 #
transform $-1 1 0 0 0 1 0 0 0 1 79.985351115451522 45.800382927148725 10.468379402892777 1 rotate no_reflect no_shear #
lump $-1 $-1 $20 $2 #
transform $-1 1 0 0 0 1 0 0 0 1 79.985351115451522 45.800382927148725 10.468379402892777 1 rotate no_reflect no_shear #
lump $-1 $-1 $21 $3 #
transform $-1 1 0 0 0 1 0 0 0 1 79.985351115451522 45.800382927148725 10.468379402892777 1 rotate no_reflect no_shear #
lump $-1 $-1 $22 $4 #
transform $-1 1 0 0 0 1 0 0 0 1 79.985351115451522 45.800382927148725 10.468379402892777 1 rotate no_reflect no_shear #
lump $-1 $-1 $23 $5 #
transform $-1 1 0 0 0 1 0 0 0 1 79.985351115451522 45.800382927148725 10.468379402892777 1 rotate no_reflect no_shear #
shell $-1 $-1 $-1 $24 $-1 $6 #
shell $-1 $-1 $-1 $25 $-1 $8 #
shell $-1 $-1 $-1 $26 $-1 $10 #
shell $-1 $-1 $-1 $27 $-1 $12 #
shell $-1 $-1 $-1 $28 $-1 $14 #
shell $-1 $-1 $-1 $29 $-1 $16 #
face $-1 $30 $31 $18 $-1 $32 forward single #
face $-1 $33 $34 $19 $-1 $35 reversed single #
face $-1 $36 $37 $20 $-1 $38 forward single #
face $-1 $39 $40 $21 $-1 $41 reversed single #
face $-1 $42 $43 $22 $-1 $44 forward single #
face $-1 $45 $46 $23 $-1 $47 forward single #
face $-1 $48 $49 $18 $-1 $50 reversed single #
loop $-1 $-1 $51 $24 #
plane-surface $-1 0 0 10.468379402892777 0 0 1 1 0 0 forward_v I I I I #
face $-1 $52 $53 $19 $-1 $54 reversed single #
loop $-1 $-1 $55 $25 #
plane-surface $-1 50.844779059845678 78.457312437000581 184.94729486787918 1 0 0 0 -0.64278761758704617 -0.76604443648966558 forward_v I I I I #
face $-1 $56 $57 $20 $-1 $58 forward single #
loop $-1 $59 $60 $26 #
cone-surface $-1 65.4150650876486 40.677682965349838 5.8229176012002268 0 -0.64278761758704617 -0.76604443648966558 1.5 0 0 1 I I 0 1 1.5 forward I I I I #
face $-1 $61 $62 $21 $-1 $63 reversed single #
loop $-1 $-1 $64 $27 #
plane-surface $-1 27.698191622052377 -130.57194087153192 142.65418364193192 -1 0 0 0 -0.52991927123019833 0.84804809178421925 forward_v I I I I #
face $-1 $65 $66 $22 $-1 $67 forward single #
loop $-1 $68 $69 $28 #
cone-surface $-1 -2.8457655772696029 -42.196626748913232 7.4151199021855474 0 0.52991927123019833 -0.84804809178421925 1.5 0 0 1 I I 0 1 1.5 forward I I I I #
face $-1 $70 $71 $23 $-1 $72 forward single #
loop $-1 $73 $74 $29 #
cone-surface $-1 15.480608742323582 -42.196626748913232 7.4151199021855474 0 0.52991927123019833 -0.84804809178421925 1.5 0 0 1 I I 0 1 1.5 forward I I I I #
face $-1 $75 $76 $18 $-1 $77 reversed single #
loop $-1 $-1 $78 $30 #
plane-surface $-1 0 0 -10.468379402892777 0 0 1 1 0 0 forward_v I I I I #
coedge $-1 $79 $80 $81 $82 forward $31 $-1 #
face $-1 $83 $84 $19 $-1 $85 forward single #
loop $-1 $-1 $86 $33 #
plane-surface $-1 65.4150650876486 -24.369874133728359 62.402628422550976 0 0.64278761758704617 0.76604443648966558 1 0 0 forward_v I I I I #
coedge $-1 $87 $88 $89 $90 reversed $34 $-1 #
face $-1 $-1 $91 $20 $-1 $92 forward single #
loop $-1 $93 $94 $36 #
cone-surface $-1 65.4150650876486 39.211607545040614 4.0757169886276916 0 -0.64278761758704617 -0.76604443648966558 0.75 0 0 1 I I -0.70710678118654757 0.70710678118654757 0.75 forward I I I I #
loop $-1 $-1 $95 $26 #
coedge $-1 $60 $60 $96 $97 reversed $37 $-1 #
face $-1 $98 $99 $21 $-1 $100 reversed single #
loop $-1 $-1 $101 $39 #
plane-surface $-1 6.3174215825269897 -45.800382927148718 6.9913348736330647 0 -0.52991927123019833 0.84804809178421925 1 0 0 forward_v I I I I #
coedge $-1 $102 $103 $104 $105 reversed $40 $-1 #
face $-1 $-1 $106 $22 $-1 $107 forward single #
loop $-1 $108 $109 $42 #
cone-surface $-1 -2.8457655772696029 -40.977648275768829 5.4643465972700316 0 0.52991927123019833 -0.84804809178421925 0.75 0 0 1 I I -0.70710678118654757 0.70710678118654757 0.75 forward I I I I #
loop $-1 $-1 $110 $28 #
coedge $-1 $69 $69 $111 $112 reversed $43 $-1 #
face $-1 $-1 $113 $23 $-1 $114 forward single #
loop $-1 $115 $116 $45 #
cone-surface $-1 15.480608742323582 -40.977648275768829 5.4643465972700316 0 0.52991927123019833 -0.84804809178421925 0.75 0 0 1 I I -0.70710678118654757 0.70710678118654757 0.75 forward I I I I #
loop $-1 $-1 $117 $29 #
coedge $-1 $74 $74 $118 $119 reversed $46 $-1 #
face $-1 $120 $121 $18 $-1 $122 reversed single #
loop $-1 $-1 $123 $48 #
plane-surface $-1 0 -45.800382927148725 0 0 1 0 0 0 1 forward_v I I I I #
coedge $-1 $124 $125 $126 $127 forward $49 $-1 #
coedge $-1 $128 $51 $129 $130 forward $31 $-1 #
coedge $-1 $51 $128 $131 $132 forward $31 $-1 #
coedge $-1 $133 $134 $51 $82 reversed $135 $-1 #
edge $-1 $136 -45.800382927148725 $137 45.800382927148725 $81 $138 forward 7 unknown #
face $-1 $139 $140 $19 $-1 $141 reversed single #
loop $-1 $-1 $89 $52 #
plane-surface $-1 0 0 10.468379402892777 0 0 1 1 0 0 forward_v I I I I #
coedge $-1 $142 $143 $144 $145 reversed $53 $-1 #
coedge $-1 $88 $55 $146 $147 reversed $34 $-1 #
coedge $-1 $55 $87 $142 $148 reversed $34 $-1 #
coedge $-1 $144 $149 $55 $90 forward $84 $-1 #
edge $-1 $150 -6.5717267086484341 $151 1.7057038007114329 $89 $152 forward 7 unknown #
loop $-1 $-1 $96 $56 #
plane-surface $-1 65.4150650876486 -24.369874133728359 62.402628422550976 0 0.64278761758704617 0.76604443648966558 1 0 0 forward_v I I I I #
loop $-1 $-1 $153 $36 #
coedge $-1 $94 $94 $95 $154 reversed $57 $-1 #
coedge $-1 $95 $95 $94 $154 forward $59 $-1 #
coedge $-1 $96 $96 $60 $97 forward $91 $-1 #
edge $-1 $155 -2.6901500717654491e-015 $155 6.2831853071795978 $96 $156 forward 7 unknown #
face $-1 $157 $158 $21 $-1 $159 reversed single #
loop $-1 $-1 $160 $61 #
plane-surface $-1 -15.063348456998398 -130.57194087153192 142.65418364193192 1 0 0 0 0.52991927123019833 -0.84804809178421925 forward_v I I I I #
coedge $-1 $161 $162 $163 $164 reversed $62 $-1 #
coedge $-1 $103 $64 $165 $166 reversed $40 $-1 #
coedge $-1 $64 $102 $161 $167 reversed $40 $-1 #
coedge $-1 $163 $168 $64 $105 forward $169 $-1 #
edge $-1 $170 19.485587508617236 $171 25.050021825644627 $104 $172 forward 7 unknown #
loop $-1 $-1 $111 $65 #
plane-surface $-1 6.3174215825269897 -45.800382927148718 6.9913348736330647 0 -0.52991927123019833 0.84804809178421925 1 0 0 forward_v I I I I #
loop $-1 $-1 $173 $42 #
coedge $-1 $109 $109 $110 $174 reversed $66 $-1 #
coedge $-1 $110 $110 $109 $174 forward $68 $-1 #
coedge $-1 $111 $111 $69 $112 forward $106 $-1 #
edge $-1 $175 -3.889133659977061e-015 $175 6.2831853071795969 $111 $176 forward 7 unknown #
loop $-1 $-1 $118 $70 #
plane-surface $-1 6.3174215825269897 -45.800382927148718 6.9913348736330647 0 -0.52991927123019833 0.84804809178421925 1 0 0 forward_v I I I I #
loop $-1 $-1 $177 $45 #
coedge $-1 $116 $116 $117 $178 reversed $71 $-1 #
coedge $-1 $117 $117 $116 $178 forward $73 $-1 #
coedge $-1 $118 $118 $74 $119 forward $113 $-1 #
edge $-1 $179 -3.889133659977061e-015 $179 6.2831853071795969 $118 $180 forward 7 unknown #
face $-1 $181 $182 $18 $-1 $183 reversed single #
loop $-1 $-1 $184 $75 #
plane-surface $-1 -79.985351115451522 0 0 1 0 0 0 0 -1 forward_v I I I I #
coedge $-1 $185 $131 $186 $187 forward $76 $-1 #
coedge $-1 $188 $78 $185 $189 forward $49 $-1 #
coedge $-1 $78 $188 $190 $191 forward $49 $-1 #
coedge $-1 $134 $133 $78 $127 reversed $135 $-1 #
edge $-1 $192 -45.800382927148725 $193 45.800382927148725 $126 $194 forward 7 unknown #
coedge $-1 $80 $79 $195 $196 forward $31 $-1 #
coedge $-1 $197 $198 $79 $130 reversed $182 $-1 #
edge $-1 $137 -79.985351115451522 $199 79.985351115451522 $129 $200 forward 7 unknown #
coedge $-1 $123 $201 $80 $132 reversed $76 $-1 #
edge $-1 $202 -79.985351115451522 $136 79.985351115451522 $131 $203 forward 7 unknown #
coedge $-1 $126 $81 $201 $204 forward $135 $-1 #
coedge $-1 $81 $126 $197 $205 reversed $135 $-1 #
loop $-1 $-1 $133 $181 #
vertex $-1 $82 $206 #
vertex $-1 $82 $207 #
straight-curve $-1 79.985351115451522 0 10.468379402892777 0 1 0 I I #
face $-1 $-1 $208 $19 $-1 $209 reversed single #
loop $-1 $-1 $146 $83 #
plane-surface $-1 0 45.800382927148725 0 0 -1 0 0 0 -1 forward_v I I I I #
coedge $-1 $210 $86 $88 $148 forward $53 $-1 #
coedge $-1 $86 $210 $211 $212 reversed $53 $-1 #
coedge $-1 $213 $89 $86 $145 forward $84 $-1 #
edge $-1 $151 18.137246516021378 $214 47.277818571627222 $144 $215 forward 7 unknown #
coedge $-1 $216 $217 $87 $147 forward $140 $-1 #
edge $-1 $218 -88.950857064021307 $150 -82.005268031046811 $146 $219 forward 7 unknown #
edge $-1 $151 80.795347636928085 $218 91.600765854297435 $88 $220 forward 7 unknown #
coedge $-1 $89 $213 $216 $221 forward $84 $-1 #
vertex $-1 $147 $222 #
vertex $-1 $90 $223 #
straight-curve $-1 50.844779059845678 39.228656218500291 10.468379402892779 0 -1 0 I I #
coedge $-1 $153 $153 $-1 $224 reversed $93 $-1 #
edge $-1 $225 0 $225 6.2831853071796004 $94 $226 forward 7 unknown #
vertex $-1 $97 $227 #
ellipse-curve $-1 65.4150650876486 41.661667672468788 6.9955848864055241 0 0.64278761758704617 0.76604443648966558 1.5 0 0 1 I I #
face $-1 $-1 $169 $21 $-1 $228 forward single #
loop $-1 $-1 $229 $98 #
plane-surface $-1 0 -45.800382927148725 0 0 1 0 0 0 1 forward_v I I I I #
coedge $-1 $230 $231 $232 $233 reversed $99 $-1 #
coedge $-1 $234 $101 $103 $167 forward $62 $-1 #
coedge $-1 $101 $234 $230 $235 forward $62 $-1 #
coedge $-1 $232 $104 $101 $164 forward $169 $-1 #
edge $-1 $171 -24.539480830788882 $236 18.222059248261893 $163 $237 forward 7 unknown #
coedge $-1 $238 $239 $102 $166 forward $158 $-1 #
edge $-1 $240 -64.335756947332897 $170 -60.858712418073182 $165 $241 forward 7 unknown #
edge $-1 $171 -6.5614608073939529 $240 8.3790584163743152e-015 $103 $242 forward 7 unknown #
coedge $-1 $104 $232 $238 $243 forward $169 $-1 #
loop $-1 $-1 $232 $157 #
vertex $-1 $166 $244 #
vertex $-1 $105 $245 #
straight-curve $-1 27.698191622052377 -65.285970435765961 10.468379402892779 0 1 0 I I #
coedge $-1 $173 $173 $-1 $246 reversed $108 $-1 #
edge $-1 $247 0 $247 6.2831853071796004 $109 $248 forward 7 unknown #
vertex $-1 $112 $249 #
ellipse-curve $-1 -2.8457655772696029 -43.018165768635008 8.7298571382629309 0 -0.52991927123019833 0.84804809178421925 1.5 0 0 1 I I #
coedge $-1 $177 $177 $-1 $250 reversed $115 $-1 #
edge $-1 $251 0 $251 6.2831853071796004 $116 $252 forward 7 unknown #
vertex $-1 $119 $253 #
ellipse-curve $-1 15.480608742323582 -43.018165768635008 8.7298571382629309 0 -0.52991927123019833 0.84804809178421925 1.5 0 0 1 I I #
face $-1 $-1 $135 $18 $-1 $254 reversed single #
loop $-1 $-1 $197 $120 #
plane-surface $-1 0 45.800382927148725 0 0 -1 0 0 0 -1 forward_v I I I I #
coedge $-1 $255 $195 $198 $256 forward $121 $-1 #
coedge $-1 $201 $123 $124 $189 reversed $76 $-1 #
coedge $-1 $195 $255 $123 $187 reversed $121 $-1 #
edge $-1 $202 -10.468379402892777 $257 10.468379402892777 $186 $258 forward 7 unknown #
coedge $-1 $125 $124 $255 $259 forward $49 $-1 #
edge $-1 $193 -79.985351115451522 $257 79.985351115451522 $185 $260 forward 7 unknown #
coedge $-1 $198 $197 $125 $191 reversed $182 $-1 #
edge $-1 $261 -79.985351115451522 $192 79.985351115451522 $190 $262 forward 7 unknown #
vertex $-1 $127 $263 #
vertex $-1 $204 $264 #
straight-curve $-1 79.985351115451522 0 -10.468379402892777 0 -1 0 I I #
coedge $-1 $184 $186 $128 $196 reversed $121 $-1 #
edge $-1 $199 -45.800382927148725 $202 45.800382927148725 $195 $265 forward 7 unknown #
coedge $-1 $190 $129 $134 $205 forward $182 $-1 #
coedge $-1 $129 $190 $184 $256 reversed $182 $-1 #
vertex $-1 $130 $266 #
straight-curve $-1 0 45.800382927148725 10.468379402892777 -1 0 0 I I #
coedge $-1 $131 $185 $133 $204 reversed $76 $-1 #
vertex $-1 $196 $267 #
straight-curve $-1 0 -45.800382927148725 10.468379402892777 1 0 0 I I #
edge $-1 $136 -10.468379402892777 $193 10.468379402892777 $133 $268 forward 7 unknown #
edge $-1 $137 -10.468379402892777 $192 10.468379402892777 $134 $269 forward 7 unknown #
point $-1 79.985351115451522 -45.800382927148725 10.468379402892777 #
point $-1 79.985351115451522 45.800382927148725 10.468379402892777 #
loop $-1 $-1 $211 $139 #
plane-surface $-1 79.985351115451522 0 0 -1 0 0 0 0 1 forward_v I I I I #
coedge $-1 $143 $142 $217 $270 reversed $53 $-1 #
coedge $-1 $271 $272 $143 $212 forward $208 $-1 #
edge $-1 $214 51.405325960429479 $273 62.210744177798816 $211 $274 forward 7 unknown #
coedge $-1 $149 $144 $272 $275 forward $84 $-1 #
vertex $-1 $275 $276 #
straight-curve $-1 32.7075325438243 37.522952417788858 10.468379402892786 1 0 0 I I #
coedge $-1 $277 $146 $149 $221 reversed $140 $-1 #
coedge $-1 $146 $277 $210 $270 forward $140 $-1 #
vertex $-1 $147 $278 #
straight-curve $-1 50.844779059845678 45.800382927148725 92.47364743393959 0 0 1 I I #
straight-curve $-1 50.844779059845678 -24.369874133728359 62.402628422550976 0 0.76604443648966558 -0.64278761758704617 I I #
edge $-1 $279 -79.985351115451522 $150 -50.844779059845678 $216 $280 forward 7 unknown #
point $-1 50.844779059845678 45.800382927148725 10.468379402892777 #
point $-1 50.844779059845678 37.522952417788858 10.468379402892779 #
edge $-1 $281 1 $281 0 $153 $-1 forward 7 unknown #
vertex $-1 $154 $282 #
ellipse-curve $-1 65.4150650876486 39.693698258230896 4.6502503159949411 0 0.64278761758704617 0.76604443648966558 1.5 0 0 1 I I #
point $-1 66.9150650876486 41.661667672468774 6.9955848864055135 #
plane-surface $-1 0 0 10.468379402892777 0 0 1 1 0 0 forward_v I I I I #
coedge $-1 $239 $238 $231 $283 forward $158 $-1 #
coedge $-1 $231 $160 $162 $235 reversed $99 $-1 #
coedge $-1 $160 $230 $229 $283 reversed $99 $-1 #
coedge $-1 $168 $163 $160 $233 forward $169 $-1 #
edge $-1 $236 -25.050021825644627 $284 -19.485587508617236 $232 $285 forward 7 unknown #
coedge $-1 $162 $161 $239 $286 reversed $62 $-1 #
edge $-1 $287 -8.3790584163743152e-015 $236 6.5614608073939529 $230 $288 forward 7 unknown #
vertex $-1 $164 $289 #
straight-curve $-1 3.1587107912634949 -40.235948610121334 10.468379402892777 -1 0 0 I I #
coedge $-1 $229 $165 $168 $243 reversed $158 $-1 #
coedge $-1 $165 $229 $234 $286 forward $158 $-1 #
vertex $-1 $166 $290 #
straight-curve $-1 27.698191622052377 -45.800382927148725 71.327091820965961 0 0 1 I I #
straight-curve $-1 27.698191622052377 -45.800382927148718 6.9913348736330647 0 -0.84804809178421925 -0.52991927123019833 I I #
edge $-1 $284 -15.063348456998398 $170 27.698191622052377 $238 $291 forward 7 unknown #
point $-1 27.698191622052377 -45.800382927148725 10.468379402892777 #
point $-1 27.698191622052377 -40.235948610121334 10.468379402892777 #
edge $-1 $292 1 $292 0 $173 $-1 forward 7 unknown #
vertex $-1 $174 $293 #
ellipse-curve $-1 -2.8457655772696029 -41.375087729191478 6.1003826661081959 0 -0.52991927123019833 0.84804809178421925 1.5 0 0 1 I I #
point $-1 -1.3457655772696029 -43.018165768634994 8.7298571382628971 #
edge $-1 $294 1 $294 0 $177 $-1 forward 7 unknown #
vertex $-1 $178 $295 #
ellipse-curve $-1 15.480608742323582 -41.375087729191478 6.1003826661081959 0 -0.52991927123019833 0.84804809178421925 1.5 0 0 1 I I #
point $-1 16.980608742323582 -43.018165768634994 8.7298571382628971 #
plane-surface $-1 79.985351115451522 0 0 -1 0 0 0 0 1 forward_v I I I I #
coedge $-1 $186 $184 $188 $259 reversed $121 $-1 #
edge $-1 $199 -10.468379402892777 $261 10.468379402892777 $198 $296 forward 7 unknown #
vertex $-1 $259 $297 #
straight-curve $-1 -79.985351115451522 -45.800382927148725 0 0 0 -1 I I #
edge $-1 $257 -45.800382927148725 $261 45.800382927148725 $255 $298 forward 7 unknown #
straight-curve $-1 0 -45.800382927148725 -10.468379402892777 -1 0 0 I I #
vertex $-1 $191 $299 #
straight-curve $-1 0 45.800382927148725 -10.468379402892777 1 0 0 I I #
point $-1 79.985351115451522 45.800382927148725 -10.468379402892777 #
point $-1 79.985351115451522 -45.800382927148725 -10.468379402892777 #
straight-curve $-1 -79.985351115451522 0 10.468379402892777 0 -1 0 I I #
point $-1 -79.985351115451522 45.800382927148725 10.468379402892777 #
point $-1 -79.985351115451522 -45.800382927148725 10.468379402892777 #
straight-curve $-1 79.985351115451522 -45.800382927148725 0 0 0 -1 I I #
straight-curve $-1 79.985351115451522 45.800382927148725 0 0 0 -1 I I #
edge $-1 $273 -47.277818571627222 $218 -18.137246516021378 $217 $300 forward 7 unknown #
coedge $-1 $272 $211 $277 $301 reversed $208 $-1 #
coedge $-1 $211 $271 $213 $275 reversed $208 $-1 #
vertex $-1 $212 $302 #
straight-curve $-1 79.985351115451522 -1.8558115401359139 43.511086408282779 0 0.76604443648966558 -0.64278761758704617 I I #
edge $-1 $214 37.522952417788858 $279 45.800382927148725 $272 $303 forward 7 unknown #
point $-1 79.985351115451522 37.522952417788858 10.468379402892779 #
coedge $-1 $217 $216 $271 $301 forward $140 $-1 #
point $-1 50.844779059845678 45.800382927148718 3.5227903699182761 #
vertex $-1 $275 $304 #
straight-curve $-1 0 45.800382927148725 10.468379402892777 -1 0 0 I I #
vertex $-1 $224 $305 #
point $-1 66.9150650876486 39.693698258230896 4.6502503159949411 #
edge $-1 $284 60.858712418073182 $287 64.335756947332897 $229 $306 forward 7 unknown #
vertex $-1 $243 $307 #
straight-curve $-1 -15.063348456998398 -65.285970435765961 10.468379402892779 0 -1 0 I I #
edge $-1 $287 -18.222059248261893 $240 24.539480830788882 $239 $308 forward 7 unknown #
vertex $-1 $286 $309 #
straight-curve $-1 -15.063348456998398 -45.800382927148718 6.9913348736330647 0 0.84804809178421925 0.52991927123019833 I I #
point $-1 -15.063348456998398 -40.235948610121334 10.468379402892777 #
point $-1 27.698191622052377 -45.800382927148725 6.9913348736330603 #
straight-curve $-1 0 -45.800382927148725 10.468379402892777 1 0 0 I I #
vertex $-1 $246 $310 #
point $-1 -1.3457655772696029 -41.375087729191478 6.1003826661081959 #
vertex $-1 $250 $311 #
point $-1 16.980608742323582 -41.375087729191478 6.1003826661081959 #
straight-curve $-1 -79.985351115451522 45.800382927148725 0 0 0 -1 I I #
point $-1 -79.985351115451522 -45.800382927148725 -10.468379402892777 #
straight-curve $-1 -79.985351115451522 0 -10.468379402892777 0 1 0 I I #
point $-1 -79.985351115451522 45.800382927148725 -10.468379402892777 #
straight-curve $-1 32.7075325438243 45.800382927148725 3.5227903699182797 -1 0 0 I I #
edge $-1 $279 -10.468379402892777 $273 -3.5227903699182761 $271 $312 forward 7 unknown #
point $-1 79.985351115451522 45.800382927148718 3.5227903699182761 #
straight-curve $-1 79.985351115451522 0 10.468379402892777 0 1 0 I I #
point $-1 79.985351115451522 45.800382927148725 10.468379402892777 #
point $-1 65.4150650876486 38.729516831850333 3.5011836612604426 #
straight-curve $-1 -15.063348456998398 -45.800382927148725 71.327091820965961 0 0 -1 I I #
point $-1 -15.063348456998398 -45.800382927148725 10.468379402892777 #
straight-curve $-1 3.1587107912634949 -45.800382927148725 6.9913348736330567 1 0 0 I I #
point $-1 -15.063348456998398 -45.800382927148725 6.9913348736330603 #
point $-1 -2.8457655772696029 -40.580208822346179 4.8283105284318673 #
point $-1 15.480608742323582 -40.580208822346179 4.8283105284318673 #
straight-curve $-1 79.985351115451522 45.800382927148725 0 0 0 -1 I I #
End-of-ACIS-data 