500 0 4 0           
7 Unknown 11 ACIS 5.0 NT 24 Fri Mar 26 19:27:52 1999 
-1 9.9999999999999995e-007 1e-010 
body $-1 $4 $-1 $5 #
body $-1 $6 $-1 $7 #
body $-1 $8 $-1 $9 #
body $-1 $10 $-1 $11 #
lump $-1 $-1 $12 $0 #
transform $-1 1 0 0 0 1 0 0 0 1 40.384533219397568 25.757141160076412 7.6237742013341805 1 rotate no_reflect no_shear #
lump $-1 $-1 $13 $1 #
transform $-1 1 0 0 0 1 0 0 0 1 40.384533219397568 25.757141160076412 7.6237742013341805 1 rotate no_reflect no_shear #
lump $-1 $-1 $14 $2 #
transform $-1 1 0 0 0 1 0 0 0 1 40.384533219397568 25.757141160076412 7.6237742013341805 1 rotate no_reflect no_shear #
lump $-1 $-1 $15 $3 #
transform $-1 1 0 0 0 1 0 0 0 1 40.384533219397568 25.757141160076412 7.6237742013341805 1 rotate no_reflect no_shear #
shell $-1 $-1 $-1 $16 $-1 $4 #
shell $-1 $-1 $-1 $17 $-1 $6 #
shell $-1 $-1 $-1 $18 $-1 $8 #
shell $-1 $-1 $-1 $19 $-1 $10 #
face $-1 $20 $21 $12 $-1 $22 forward single #
face $-1 $23 $24 $13 $-1 $25 forward single #
face $-1 $26 $27 $14 $-1 $28 forward single #
face $-1 $29 $30 $15 $-1 $31 reversed single #
face $-1 $32 $33 $12 $-1 $34 reversed single #
loop $-1 $-1 $35 $16 #
plane-surface $-1 0 0 7.6237742013341805 0 0 1 1 0 0 forward_v I I I I #
face $-1 $36 $37 $13 $-1 $38 forward single #
loop $-1 $-1 $39 $17 #
plane-surface $-1 -37.269037070733141 -22.757141160076412 0 0 -1 0 0 0 -1 forward_v I I I I #
face $-1 $40 $41 $14 $-1 $42 forward single #
loop $-1 $-1 $43 $18 #
plane-surface $-1 32.416621497247434 -10.393544203081575 117.88218205538772 0 -1 0 -0.6560590369687036 0 -0.75470957328743171 forward_v I I I I #
face $-1 $44 $45 $15 $-1 $46 reversed single #
loop $-1 $47 $48 $19 #
cone-surface $-1 37.007445527244464 -15.423646047051989 4.3351409441107389 -0.6560590369687036 0 -0.75470957328743171 0.75470957328743171 0 -0.6560590369687036 1 I I 0 1 1 forward I I I I #
face $-1 $49 $50 $12 $-1 $51 reversed single #
loop $-1 $-1 $52 $20 #
plane-surface $-1 0 0 -7.6237742013341805 0 0 1 1 0 0 forward_v I I I I #
coedge $-1 $53 $54 $55 $56 forward $21 $-1 #
face $-1 $57 $58 $13 $-1 $59 forward single #
loop $-1 $-1 $60 $23 #
plane-surface $-1 -34.153540922068714 -24.257141160076412 0 -1 0 0 0 0 1 forward_v I I I I #
coedge $-1 $61 $62 $63 $64 reversed $24 $-1 #
face $-1 $65 $66 $14 $-1 $67 forward single #
loop $-1 $-1 $68 $26 #
plane-surface $-1 -20.572654447449743 -15.423646047051989 56.924994388540419 0.6560590369687036 0 0.75470957328743171 0.75470957328743171 0 -0.6560590369687036 forward_v I I I I #
coedge $-1 $69 $70 $71 $72 reversed $27 $-1 #
face $-1 $73 $74 $15 $-1 $75 forward single #
loop $-1 $76 $77 $29 #
cone-surface $-1 35.423639685060138 -15.423646047051989 2.5131807789890512 -0.6560590369687036 0 -0.75470957328743171 0.37735478664371586 0 -0.3280295184843518 1 I I -0.70710678118654746 0.70710678118654746 0.5 forward I I I I #
loop $-1 $-1 $78 $19 #
coedge $-1 $48 $48 $79 $80 reversed $30 $-1 #
face $-1 $81 $82 $12 $-1 $83 reversed single #
loop $-1 $-1 $84 $32 #
plane-surface $-1 0 -25.757141160076412 0 0 1 0 0 0 1 forward_v I I I I #
coedge $-1 $85 $86 $87 $88 forward $33 $-1 #
coedge $-1 $89 $35 $90 $91 forward $21 $-1 #
coedge $-1 $35 $89 $92 $93 forward $21 $-1 #
coedge $-1 $94 $95 $35 $56 reversed $96 $-1 #
edge $-1 $97 -25.757141160076412 $98 25.757141160076412 $55 $99 forward 7 unknown #
face $-1 $100 $101 $13 $-1 $102 reversed single #
loop $-1 $-1 $103 $36 #
plane-surface $-1 0 0 7.6237742013341805 0 0 1 1 0 0 forward_v I I I I #
coedge $-1 $104 $105 $106 $107 reversed $37 $-1 #
coedge $-1 $108 $39 $103 $109 reversed $24 $-1 #
coedge $-1 $39 $108 $110 $111 reversed $24 $-1 #
coedge $-1 $105 $104 $39 $64 forward $37 $-1 #
edge $-1 $112 -7.6237742013341805 $113 7.6237742013341805 $63 $114 forward 7 unknown #
face $-1 $115 $116 $14 $-1 $117 forward single #
loop $-1 $-1 $118 $40 #
plane-surface $-1 32.416621497247434 -20.453747891022402 117.88218205538772 0 1 0 0.6560590369687036 0 0.75470957328743171 forward_v I I I I #
coedge $-1 $119 $120 $121 $122 reversed $41 $-1 #
coedge $-1 $70 $43 $120 $123 forward $27 $-1 #
coedge $-1 $43 $69 $124 $125 reversed $27 $-1 #
coedge $-1 $126 $121 $43 $72 forward $116 $-1 #
edge $-1 $127 19.933599733867595 $128 24.176222470773851 $71 $129 forward 7 unknown #
face $-1 $130 $131 $15 $-1 $132 forward single #
loop $-1 $-1 $133 $44 #
plane-surface $-1 32.416621497247434 -10.393544203081575 117.88218205538772 0 -1 0 -0.6560590369687036 0 -0.75470957328743171 forward_v I I I I #
loop $-1 $-1 $134 $29 #
coedge $-1 $77 $77 $78 $135 forward $45 $-1 #
coedge $-1 $78 $78 $77 $135 reversed $47 $-1 #
coedge $-1 $79 $79 $48 $80 forward $131 $-1 #
edge $-1 $136 0 $136 6.2831853071796004 $79 $137 forward 7 unknown #
face $-1 $138 $139 $12 $-1 $140 reversed single #
loop $-1 $-1 $141 $49 #
plane-surface $-1 -40.384533219397568 0 0 1 0 0 0 0 -1 forward_v I I I I #
coedge $-1 $142 $92 $143 $144 forward $50 $-1 #
coedge $-1 $145 $52 $142 $146 forward $33 $-1 #
coedge $-1 $52 $145 $147 $148 forward $33 $-1 #
coedge $-1 $95 $94 $52 $88 reversed $96 $-1 #
edge $-1 $149 -25.757141160076412 $150 25.757141160076412 $87 $151 forward 7 unknown #
coedge $-1 $54 $53 $152 $153 forward $21 $-1 #
coedge $-1 $154 $155 $53 $91 reversed $139 $-1 #
edge $-1 $98 -40.384533219397568 $156 40.384533219397568 $90 $157 forward 7 unknown #
coedge $-1 $84 $158 $54 $93 reversed $50 $-1 #
edge $-1 $159 -40.384533219397568 $97 40.384533219397568 $92 $160 forward 7 unknown #
coedge $-1 $87 $55 $158 $161 forward $96 $-1 #
coedge $-1 $55 $87 $154 $162 reversed $96 $-1 #
loop $-1 $-1 $94 $138 #
vertex $-1 $56 $163 #
vertex $-1 $56 $164 #
straight-curve $-1 40.384533219397568 0 7.6237742013341805 0 1 0 I I #
face $-1 $165 $166 $13 $-1 $167 reversed single #
loop $-1 $-1 $106 $57 #
plane-surface $-1 0 -25.757141160076412 0 0 1 0 0 0 1 forward_v I I I I #
coedge $-1 $168 $169 $61 $109 forward $58 $-1 #
coedge $-1 $63 $60 $168 $170 reversed $37 $-1 #
coedge $-1 $60 $63 $171 $172 reversed $37 $-1 #
coedge $-1 $173 $174 $60 $107 forward $101 $-1 #
edge $-1 $175 -7.6237742013341805 $176 7.6237742013341805 $106 $177 forward 7 unknown #
coedge $-1 $62 $61 $178 $179 reversed $24 $-1 #
edge $-1 $180 -21.750014684030997 $112 -15.519022386702144 $103 $181 forward 7 unknown #
coedge $-1 $182 $171 $62 $111 forward $166 $-1 #
edge $-1 $113 15.519022386702144 $183 21.750014684030997 $110 $184 forward 7 unknown #
vertex $-1 $109 $185 #
vertex $-1 $111 $186 #
straight-curve $-1 -34.153540922068714 -22.757141160076412 0 0 0 -1 I I #
face $-1 $187 $188 $14 $-1 $189 forward single #
loop $-1 $-1 $190 $65 #
plane-surface $-1 0 0 7.6237742013341805 0 0 1 1 0 0 forward_v I I I I #
coedge $-1 $191 $192 $190 $193 reversed $66 $-1 #
coedge $-1 $194 $68 $192 $195 reversed $41 $-1 #
coedge $-1 $68 $194 $69 $123 reversed $41 $-1 #
coedge $-1 $71 $190 $68 $122 forward $116 $-1 #
edge $-1 $196 -12.741924867496408 $127 -2.6817211795555806 $121 $197 forward 7 unknown #
edge $-1 $127 75.147536134858683 $198 80.769066438795164 $69 $199 forward 7 unknown #
coedge $-1 $200 $201 $70 $125 forward $202 $-1 #
edge $-1 $128 51.317316826359679 $198 55.005372583850622 $124 $203 forward 7 unknown #
coedge $-1 $204 $71 $201 $205 forward $116 $-1 #
vertex $-1 $122 $206 #
vertex $-1 $205 $207 #
straight-curve $-1 16.208310748623717 -10.393544203081575 7.6237742013341787 1 0 0 I I #
face $-1 $208 $209 $15 $-1 $210 forward single #
loop $-1 $211 $79 $73 #
plane-surface $-1 -20.572654447449743 -15.423646047051989 56.924994388540419 0.6560590369687036 0 0.75470957328743171 0.75470957328743171 0 -0.6560590369687036 forward_v I I I I #
coedge $-1 $212 $213 $214 $215 reversed $74 $-1 #
coedge $-1 $134 $134 $-1 $216 forward $76 $-1 #
edge $-1 $217 0 $217 6.2831853071796004 $77 $218 forward 7 unknown #
vertex $-1 $80 $219 #
ellipse-curve $-1 38.263221850944433 -15.423646047051989 5.7797463225887018 -0.6560590369687036 0 -0.75470957328743171 0.75470957328743171 0 -0.6560590369687036 1 I I #
face $-1 $-1 $96 $12 $-1 $220 reversed single #
loop $-1 $-1 $154 $81 #
plane-surface $-1 0 25.757141160076412 0 0 -1 0 0 0 -1 forward_v I I I I #
coedge $-1 $221 $152 $155 $222 forward $82 $-1 #
coedge $-1 $158 $84 $85 $146 reversed $50 $-1 #
coedge $-1 $152 $221 $84 $144 reversed $82 $-1 #
edge $-1 $159 -7.6237742013341805 $223 7.6237742013341805 $143 $224 forward 7 unknown #
coedge $-1 $86 $85 $221 $225 forward $33 $-1 #
edge $-1 $150 -40.384533219397568 $223 40.384533219397568 $142 $226 forward 7 unknown #
coedge $-1 $155 $154 $86 $148 reversed $139 $-1 #
edge $-1 $227 -40.384533219397568 $149 40.384533219397568 $147 $228 forward 7 unknown #
vertex $-1 $88 $229 #
vertex $-1 $161 $230 #
straight-curve $-1 40.384533219397568 0 -7.6237742013341805 0 -1 0 I I #
coedge $-1 $141 $143 $89 $153 reversed $82 $-1 #
edge $-1 $156 -25.757141160076412 $159 25.757141160076412 $152 $231 forward 7 unknown #
coedge $-1 $147 $90 $95 $162 forward $139 $-1 #
coedge $-1 $90 $147 $141 $222 reversed $139 $-1 #
vertex $-1 $91 $232 #
straight-curve $-1 0 25.757141160076412 7.6237742013341805 -1 0 0 I I #
coedge $-1 $92 $142 $94 $161 reversed $50 $-1 #
vertex $-1 $153 $233 #
straight-curve $-1 0 -25.757141160076412 7.6237742013341805 1 0 0 I I #
edge $-1 $97 -7.6237742013341805 $150 7.6237742013341805 $94 $234 forward 7 unknown #
edge $-1 $98 -7.6237742013341805 $149 7.6237742013341805 $95 $235 forward 7 unknown #
point $-1 40.384533219397568 -25.757141160076412 7.6237742013341805 #
point $-1 40.384533219397568 25.757141160076412 7.6237742013341805 #
face $-1 $236 $237 $13 $-1 $238 reversed single #
loop $-1 $-1 $110 $100 #
plane-surface $-1 0 0 -7.6237742013341805 0 0 1 1 0 0 forward_v I I I I #
coedge $-1 $239 $103 $104 $170 forward $58 $-1 #
coedge $-1 $103 $240 $241 $242 forward $58 $-1 #
edge $-1 $112 10.628570580038206 $175 13.628570580038206 $168 $243 forward 7 unknown #
coedge $-1 $110 $244 $105 $172 forward $166 $-1 #
edge $-1 $176 -13.628570580038206 $113 -10.628570580038206 $171 $245 forward 7 unknown #
coedge $-1 $246 $106 $244 $247 reversed $101 $-1 #
coedge $-1 $106 $246 $239 $248 reversed $101 $-1 #
vertex $-1 $248 $249 #
vertex $-1 $107 $250 #
straight-curve $-1 -34.153540922068714 -25.757141160076412 0 0 0 -1 I I #
coedge $-1 $241 $251 $108 $179 forward $237 $-1 #
edge $-1 $183 -7.6237742013341805 $180 7.6237742013341805 $178 $252 forward 7 unknown #
vertex $-1 $179 $253 #
straight-curve $-1 -18.634518535366571 -22.757141160076412 7.6237742013341805 1 0 0 I I #
coedge $-1 $254 $110 $251 $255 forward $166 $-1 #
vertex $-1 $255 $256 #
straight-curve $-1 -18.634518535366571 -22.757141160076412 -7.6237742013341805 -1 0 0 I I #
point $-1 -34.153540922068714 -22.757141160076412 7.6237742013341805 #
point $-1 -34.153540922068714 -22.757141160076412 -7.6237742013341805 #
face $-1 $257 $258 $14 $-1 $259 forward single #
loop $-1 $-1 $260 $115 #
plane-surface $-1 -37.269037070733141 -22.757141160076412 0 0 -1 0 0 0 -1 forward_v I I I I #
coedge $-1 $121 $261 $118 $193 forward $116 $-1 #
coedge $-1 $192 $118 $262 $263 reversed $66 $-1 #
coedge $-1 $118 $191 $119 $195 forward $66 $-1 #
edge $-1 $264 -24.176222470773851 $196 -19.933599733867595 $190 $265 forward 7 unknown #
coedge $-1 $120 $119 $200 $266 reversed $41 $-1 #
edge $-1 $267 -80.769066438795164 $196 -75.147536134858683 $192 $268 forward 7 unknown #
vertex $-1 $122 $269 #
straight-curve $-1 36.141910482491298 -7.7118230235259944 7.6237742013341858 0 1 0 I I #
vertex $-1 $266 $270 #
straight-curve $-1 -20.572654447449743 -10.393544203081575 56.924994388540419 0.75470957328743171 0 -0.6560590369687036 I I #
coedge $-1 $262 $124 $194 $266 forward $202 $-1 #
coedge $-1 $124 $271 $126 $205 reversed $202 $-1 #
loop $-1 $-1 $262 $272 #
straight-curve $-1 40.384533219397568 -10.393544203081575 58.941091027693858 0 0 -1 I I #
coedge $-1 $273 $126 $274 $275 forward $116 $-1 #
edge $-1 $128 -10.393544203081575 $276 25.757141160076412 $201 $277 forward 7 unknown #
point $-1 36.141910482491312 -10.393544203081575 7.6237742013341787 #
point $-1 40.384533219397568 -10.393544203081575 7.6237742013341805 #
face $-1 $278 $279 $15 $-1 $280 forward single #
loop $-1 $-1 $281 $130 #
plane-surface $-1 32.416621497247434 -20.453747891022402 117.88218205538772 0 1 0 0.6560590369687036 0 0.75470957328743171 forward_v I I I I #
loop $-1 $-1 $282 $73 #
coedge $-1 $213 $133 $283 $284 forward $74 $-1 #
coedge $-1 $133 $212 $285 $286 reversed $74 $-1 #
coedge $-1 $287 $288 $133 $215 forward $279 $-1 #
edge $-1 $289 19.933599733867595 $290 24.176222470773851 $214 $291 forward 7 unknown #
edge $-1 $292 1 $292 0 $134 $-1 forward 7 unknown #
vertex $-1 $135 $293 #
ellipse-curve $-1 35.751669203544488 -15.423646047051989 2.8905355656327671 0.6560590369687036 0 0.75470957328743171 0.75470957328743171 0 -0.6560590369687036 1 I I #
point $-1 39.017931424231868 -15.423646047051989 5.1236872856200071 #
plane-surface $-1 40.384533219397568 0 0 -1 0 0 0 0 1 forward_v I I I I #
coedge $-1 $143 $141 $145 $225 reversed $82 $-1 #
edge $-1 $156 -7.6237742013341805 $227 7.6237742013341805 $155 $294 forward 7 unknown #
vertex $-1 $225 $295 #
straight-curve $-1 -40.384533219397568 -25.757141160076412 0 0 0 -1 I I #
edge $-1 $223 -25.757141160076412 $227 25.757141160076412 $221 $296 forward 7 unknown #
straight-curve $-1 0 -25.757141160076412 -7.6237742013341805 -1 0 0 I I #
vertex $-1 $148 $297 #
straight-curve $-1 0 25.757141160076412 -7.6237742013341805 1 0 0 I I #
point $-1 40.384533219397568 25.757141160076412 -7.6237742013341805 #
point $-1 40.384533219397568 -25.757141160076412 -7.6237742013341805 #
straight-curve $-1 -40.384533219397568 0 7.6237742013341805 0 -1 0 I I #
point $-1 -40.384533219397568 25.757141160076412 7.6237742013341805 #
point $-1 -40.384533219397568 -25.757141160076412 7.6237742013341805 #
straight-curve $-1 40.384533219397568 -25.757141160076412 0 0 0 -1 I I #
straight-curve $-1 40.384533219397568 25.757141160076412 0 0 0 -1 I I #
face $-1 $298 $299 $13 $-1 $300 reversed single #
loop $-1 $-1 $178 $165 #
plane-surface $-1 -40.384533219397568 0 0 1 0 0 0 0 -1 forward_v I I I I #
coedge $-1 $301 $168 $174 $248 forward $58 $-1 #
coedge $-1 $169 $301 $302 $303 forward $58 $-1 #
coedge $-1 $304 $178 $169 $242 reversed $237 $-1 #
edge $-1 $305 -25.757141160076412 $180 22.757141160076412 $241 $306 forward 7 unknown #
straight-curve $-1 -34.153540922068714 -12.128570580038206 7.6237742013341805 0 -1 0 I I #
coedge $-1 $171 $307 $173 $247 forward $166 $-1 #
straight-curve $-1 -34.153540922068714 -12.128570580038206 -7.6237742013341805 0 1 0 I I #
coedge $-1 $174 $173 $308 $309 reversed $101 $-1 #
edge $-1 $310 -40.384533219397568 $176 34.153540922068714 $173 $311 forward 7 unknown #
edge $-1 $175 -34.153540922068714 $312 40.384533219397568 $174 $313 forward 7 unknown #
point $-1 -34.153540922068714 -25.757141160076412 7.6237742013341805 #
point $-1 -34.153540922068714 -25.757141160076412 -7.6237742013341805 #
coedge $-1 $178 $304 $182 $255 reversed $237 $-1 #
straight-curve $-1 -40.384533219397568 -22.757141160076412 0 0 0 1 I I #
point $-1 -40.384533219397568 -22.757141160076412 7.6237742013341805 #
coedge $-1 $307 $182 $314 $315 forward $166 $-1 #
edge $-1 $183 -22.757141160076412 $316 25.757141160076412 $251 $317 forward 7 unknown #
point $-1 -40.384533219397568 -22.757141160076412 -7.6237742013341805 #
face $-1 $318 $319 $14 $-1 $320 reversed single #
loop $-1 $-1 $321 $187 #
plane-surface $-1 -34.153540922068714 -24.257141160076412 0 -1 0 0 0 0 1 forward_v I I I I #
coedge $-1 $322 $323 $324 $325 reversed $188 $-1 #
coedge $-1 $190 $326 $327 $328 forward $116 $-1 #
coedge $-1 $327 $200 $191 $263 forward $202 $-1 #
edge $-1 $267 -55.005372583850622 $264 -51.317316826359679 $262 $329 forward 7 unknown #
vertex $-1 $263 $330 #
straight-curve $-1 16.208310748623717 -20.453747891022402 7.6237742013341787 -1 0 0 I I #
edge $-1 $198 2.6817211795555806 $267 12.741924867496408 $200 $331 forward 7 unknown #
vertex $-1 $266 $332 #
straight-curve $-1 -20.572654447449743 -20.453747891022402 56.924994388540419 -0.75470957328743171 0 0.6560590369687036 I I #
point $-1 36.141910482491312 -20.453747891022402 7.6237742013341787 #
point $-1 40.384533219397568 -10.393544203081575 3.9357184438432355 #
coedge $-1 $201 $333 $334 $335 reversed $202 $-1 #
face $-1 $-1 $202 $14 $-1 $336 reversed single #
coedge $-1 $337 $204 $338 $339 forward $116 $-1 #
coedge $-1 $334 $340 $204 $275 reversed $341 $-1 #
edge $-1 $276 -40.384533219397568 $342 40.384533219397568 $274 $343 forward 7 unknown #
vertex $-1 $205 $344 #
straight-curve $-1 40.384533219397568 0 7.6237742013341805 0 1 0 I I #
face $-1 $345 $346 $15 $-1 $347 forward single #
loop $-1 $-1 $348 $208 #
plane-surface $-1 0 0 7.6237742013341805 0 0 1 1 0 0 forward_v I I I I #
coedge $-1 $349 $350 $348 $351 reversed $209 $-1 #
coedge $-1 $352 $283 $288 $353 reversed $211 $-1 #
coedge $-1 $282 $354 $212 $284 reversed $211 $-1 #
edge $-1 $289 75.147536134858683 $355 80.769066438795164 $212 $356 forward 7 unknown #
coedge $-1 $357 $358 $213 $286 forward $359 $-1 #
edge $-1 $290 51.317316826359679 $355 55.005372583850622 $285 $360 forward 7 unknown #
coedge $-1 $361 $214 $358 $362 forward $279 $-1 #
coedge $-1 $214 $348 $282 $353 forward $279 $-1 #
vertex $-1 $353 $363 #
vertex $-1 $362 $364 #
straight-curve $-1 16.208310748623717 -10.393544203081575 7.6237742013341787 1 0 0 I I #
vertex $-1 $216 $365 #
point $-1 36.506378776831923 -15.423646047051989 2.2344765286640635 #
straight-curve $-1 -40.384533219397568 25.757141160076412 0 0 0 -1 I I #
point $-1 -40.384533219397568 -25.757141160076412 -7.6237742013341805 #
straight-curve $-1 -40.384533219397568 0 -7.6237742013341805 0 1 0 I I #
point $-1 -40.384533219397568 25.757141160076412 -7.6237742013341805 #
face $-1 $-1 $366 $13 $-1 $367 reversed single #
loop $-1 $-1 $368 $236 #
plane-surface $-1 0 25.757141160076412 0 0 -1 0 0 0 -1 forward_v I I I I #
coedge $-1 $240 $239 $369 $370 forward $58 $-1 #
coedge $-1 $368 $371 $240 $303 reversed $299 $-1 #
edge $-1 $372 -40.384533219397568 $305 40.384533219397568 $302 $373 forward 7 unknown #
coedge $-1 $251 $241 $371 $374 forward $237 $-1 #
vertex $-1 $303 $375 #
straight-curve $-1 -40.384533219397568 0 7.6237742013341805 0 -1 0 I I #
coedge $-1 $244 $254 $376 $377 forward $166 $-1 #
coedge $-1 $376 $369 $246 $309 forward $366 $-1 #
edge $-1 $312 -7.6237742013341805 $310 7.6237742013341805 $308 $378 forward 7 unknown #
vertex $-1 $309 $379 #
straight-curve $-1 0 -25.757141160076412 -7.6237742013341805 -1 0 0 I I #
vertex $-1 $370 $380 #
straight-curve $-1 0 -25.757141160076412 7.6237742013341805 1 0 0 I I #
coedge $-1 $371 $368 $254 $315 reversed $299 $-1 #
edge $-1 $316 -40.384533219397568 $381 40.384533219397568 $314 $382 forward 7 unknown #
vertex $-1 $315 $383 #
straight-curve $-1 -40.384533219397568 0 -7.6237742013341805 0 1 0 I I #
face $-1 $384 $385 $14 $-1 $386 reversed single #
loop $-1 $-1 $387 $257 #
plane-surface $-1 0 -25.757141160076412 0 0 1 0 0 0 1 forward_v I I I I #
coedge $-1 $388 $389 $387 $390 reversed $258 $-1 #
coedge $-1 $391 $260 $337 $392 reversed $188 $-1 #
coedge $-1 $260 $391 $393 $394 reversed $188 $-1 #
coedge $-1 $389 $388 $260 $325 forward $258 $-1 #
edge $-1 $395 -7.6237742013341805 $396 7.6237742013341805 $324 $397 forward 7 unknown #
coedge $-1 $261 $398 $399 $400 forward $116 $-1 #
coedge $-1 $401 $262 $261 $328 reversed $202 $-1 #
edge $-1 $402 -25.757141160076412 $264 -20.453747891022402 $327 $277 forward 7 unknown #
straight-curve $-1 40.384533219397568 -20.453747891022402 58.941091027693858 0 0 1 I I #
point $-1 40.384533219397568 -20.453747891022402 7.6237742013341805 #
straight-curve $-1 40.384533219397568 -7.7118230235259944 3.9357184438432355 0 -1 0 I I #
point $-1 40.384533219397568 -20.453747891022402 3.9357184438432355 #
coedge $-1 $271 $401 $403 $404 reversed $202 $-1 #
coedge $-1 $405 $274 $271 $335 forward $341 $-1 #
edge $-1 $276 -7.6237742013341805 $406 7.6237742013341805 $271 $407 forward 7 unknown #
plane-surface $-1 40.384533219397568 0 0 -1 0 0 0 0 1 forward_v I I I I #
coedge $-1 $398 $273 $322 $392 forward $116 $-1 #
coedge $-1 $408 $409 $273 $339 reversed $410 $-1 #
edge $-1 $342 -25.757141160076412 $411 22.757141160076412 $338 $412 forward 7 unknown #
coedge $-1 $274 $405 $408 $413 reversed $341 $-1 #
loop $-1 $-1 $334 $414 #
vertex $-1 $275 $415 #
straight-curve $-1 0 25.757141160076412 7.6237742013341805 -1 0 0 I I #
point $-1 40.384533219397568 25.757141160076412 7.6237742013341805 #
face $-1 $416 $417 $15 $-1 $418 forward single #
loop $-1 $-1 $419 $278 #
plane-surface $-1 -37.269037070733141 -22.757141160076412 0 0 -1 0 0 0 -1 forward_v I I I I #
coedge $-1 $288 $420 $281 $351 forward $279 $-1 #
coedge $-1 $350 $281 $421 $422 reversed $209 $-1 #
coedge $-1 $281 $349 $352 $423 forward $209 $-1 #
edge $-1 $424 -24.176222470773851 $425 -19.933599733867595 $348 $426 forward 7 unknown #
coedge $-1 $354 $282 $350 $423 reversed $211 $-1 #
edge $-1 $425 -12.741924867496408 $289 -2.6817211795555806 $288 $427 forward 7 unknown #
coedge $-1 $283 $352 $357 $428 reversed $211 $-1 #
vertex $-1 $428 $429 #
straight-curve $-1 -20.572654447449743 -10.393544203081575 56.924994388540419 0.75470957328743171 0 -0.6560590369687036 I I #
coedge $-1 $421 $285 $354 $428 forward $359 $-1 #
coedge $-1 $285 $430 $287 $362 reversed $359 $-1 #
loop $-1 $-1 $421 $431 #
straight-curve $-1 40.384533219397568 -10.393544203081575 58.941091027693858 0 0 -1 I I #
coedge $-1 $432 $287 $433 $434 forward $279 $-1 #
edge $-1 $290 -10.393544203081575 $435 25.757141160076412 $358 $436 forward 7 unknown #
point $-1 36.141910482491312 -10.393544203081575 7.6237742013341787 #
point $-1 40.384533219397568 -10.393544203081575 7.6237742013341805 #
point $-1 35.095610166575788 -15.423646047051989 2.1358259923453353 #
loop $-1 $-1 $308 $298 #
plane-surface $-1 40.384533219397568 0 0 -1 0 0 0 0 1 forward_v I I I I #
coedge $-1 $314 $302 $437 $438 forward $299 $-1 #
coedge $-1 $308 $437 $301 $370 reversed $366 $-1 #
edge $-1 $312 -25.757141160076412 $372 25.757141160076412 $369 $439 forward 7 unknown #
coedge $-1 $302 $314 $304 $374 reversed $299 $-1 #
vertex $-1 $370 $440 #
straight-curve $-1 0 25.757141160076412 7.6237742013341805 -1 0 0 I I #
edge $-1 $305 -7.6237742013341805 $316 7.6237742013341805 $371 $441 forward 7 unknown #
point $-1 -40.384533219397568 25.757141160076412 7.6237742013341805 #
coedge $-1 $437 $308 $307 $377 reversed $366 $-1 #
edge $-1 $381 -25.757141160076412 $310 25.757141160076412 $376 $442 forward 7 unknown #
straight-curve $-1 40.384533219397568 -25.757141160076412 0 0 0 -1 I I #
point $-1 40.384533219397568 -25.757141160076412 -7.6237742013341805 #
point $-1 40.384533219397568 -25.757141160076412 7.6237742013341805 #
vertex $-1 $377 $443 #
straight-curve $-1 0 25.757141160076412 -7.6237742013341805 1 0 0 I I #
point $-1 -40.384533219397568 25.757141160076412 -7.6237742013341805 #
face $-1 $414 $410 $14 $-1 $444 reversed single #
loop $-1 $-1 $393 $318 #
plane-surface $-1 0 0 -7.6237742013341805 0 0 1 1 0 0 forward_v I I I I #
coedge $-1 $445 $399 $321 $390 forward $319 $-1 #
coedge $-1 $324 $321 $398 $446 reversed $258 $-1 #
coedge $-1 $321 $324 $447 $448 reversed $258 $-1 #
edge $-1 $449 -7.6237742013341805 $450 7.6237742013341805 $387 $451 forward 7 unknown #
coedge $-1 $323 $322 $409 $452 reversed $188 $-1 #
edge $-1 $411 -21.750014684030997 $395 -15.519022386702144 $337 $453 forward 7 unknown #
coedge $-1 $454 $447 $323 $394 forward $385 $-1 #
edge $-1 $396 15.519022386702144 $455 21.750014684030997 $393 $456 forward 7 unknown #
vertex $-1 $392 $457 #
vertex $-1 $394 $458 #
straight-curve $-1 -34.153540922068714 -22.757141160076412 0 0 0 -1 I I #
coedge $-1 $326 $337 $388 $446 forward $116 $-1 #
coedge $-1 $387 $459 $326 $400 reversed $319 $-1 #
edge $-1 $449 -34.153540922068714 $402 40.384533219397568 $399 $460 forward 7 unknown #
coedge $-1 $333 $327 $459 $461 forward $202 $-1 #
vertex $-1 $328 $462 #
coedge $-1 $463 $464 $333 $404 forward $385 $-1 #
edge $-1 $406 -25.757141160076412 $465 25.757141160076412 $333 $466 forward 7 unknown #
coedge $-1 $340 $334 $464 $467 reversed $341 $-1 #
vertex $-1 $404 $468 #
straight-curve $-1 40.384533219397568 25.757141160076412 0 0 0 -1 I I #
coedge $-1 $469 $338 $340 $413 forward $410 $-1 #
coedge $-1 $338 $469 $391 $452 forward $410 $-1 #
loop $-1 $-1 $409 $384 #
vertex $-1 $452 $470 #
straight-curve $-1 -40.384533219397568 0 7.6237742013341805 0 -1 0 I I #
edge $-1 $342 -7.6237742013341805 $471 7.6237742013341805 $340 $472 forward 7 unknown #
face $-1 $272 $341 $14 $-1 $473 reversed single #
point $-1 -40.384533219397568 25.757141160076412 7.6237742013341805 #
face $-1 $474 $475 $15 $-1 $476 reversed single #
loop $-1 $-1 $477 $345 #
plane-surface $-1 -34.153540922068714 -24.257141160076412 0 -1 0 0 0 0 1 forward_v I I I I #
coedge $-1 $478 $479 $480 $481 reversed $346 $-1 #
coedge $-1 $348 $482 $483 $484 forward $279 $-1 #
coedge $-1 $483 $357 $349 $422 forward $359 $-1 #
edge $-1 $485 -55.005372583850622 $424 -51.317316826359679 $421 $486 forward 7 unknown #
edge $-1 $485 -80.769066438795164 $425 -75.147536134858683 $350 $487 forward 7 unknown #
vertex $-1 $422 $488 #
vertex $-1 $353 $489 #
straight-curve $-1 16.208310748623717 -20.453747891022402 7.6237742013341787 -1 0 0 I I #
straight-curve $-1 36.141910482491298 -7.7118230235259944 7.6237742013341858 0 1 0 I I #
edge $-1 $355 2.6817211795555806 $485 12.741924867496408 $357 $490 forward 7 unknown #
point $-1 40.384533219397568 -10.393544203081575 3.9357184438432355 #
coedge $-1 $358 $491 $492 $493 reversed $359 $-1 #
face $-1 $-1 $359 $15 $-1 $494 reversed single #
coedge $-1 $495 $361 $496 $497 forward $279 $-1 #
coedge $-1 $492 $498 $361 $434 reversed $499 $-1 #
edge $-1 $435 -40.384533219397568 $500 40.384533219397568 $433 $501 forward 7 unknown #
vertex $-1 $362 $502 #
straight-curve $-1 40.384533219397568 0 7.6237742013341805 0 1 0 I I #
coedge $-1 $369 $376 $368 $438 reversed $366 $-1 #
edge $-1 $372 -7.6237742013341805 $381 7.6237742013341805 $437 $503 forward 7 unknown #
straight-curve $-1 40.384533219397568 0 7.6237742013341805 0 1 0 I I #
point $-1 40.384533219397568 25.757141160076412 7.6237742013341805 #
straight-curve $-1 -40.384533219397568 25.757141160076412 0 0 0 -1 I I #
straight-curve $-1 40.384533219397568 0 -7.6237742013341805 0 -1 0 I I #
point $-1 40.384533219397568 25.757141160076412 -7.6237742013341805 #
plane-surface $-1 -40.384533219397568 0 0 1 0 0 0 0 -1 forward_v I I I I #
coedge $-1 $459 $387 $463 $504 reversed $319 $-1 #
edge $-1 $395 10.628570580038206 $449 13.628570580038206 $398 $505 forward 7 unknown #
coedge $-1 $393 $463 $389 $448 forward $385 $-1 #
edge $-1 $450 -13.628570580038206 $396 -10.628570580038206 $447 $506 forward 7 unknown #
vertex $-1 $400 $507 #
vertex $-1 $390 $508 #
straight-curve $-1 -34.153540922068714 -25.757141160076412 0 0 0 -1 I I #
edge $-1 $455 -7.6237742013341805 $411 7.6237742013341805 $409 $509 forward 7 unknown #
straight-curve $-1 -18.634518535366571 -22.757141160076412 7.6237742013341805 1 0 0 I I #
coedge $-1 $464 $393 $469 $510 forward $385 $-1 #
vertex $-1 $510 $511 #
straight-curve $-1 -18.634518535366571 -22.757141160076412 -7.6237742013341805 -1 0 0 I I #
point $-1 -34.153540922068714 -22.757141160076412 7.6237742013341805 #
point $-1 -34.153540922068714 -22.757141160076412 -7.6237742013341805 #
coedge $-1 $399 $445 $401 $461 reversed $319 $-1 #
straight-curve $-1 0 -25.757141160076412 7.6237742013341805 1 0 0 I I #
edge $-1 $402 -7.6237742013341805 $465 7.6237742013341805 $401 $512 forward 7 unknown #
point $-1 40.384533219397568 -25.757141160076412 7.6237742013341805 #
coedge $-1 $447 $403 $445 $504 forward $385 $-1 #
coedge $-1 $403 $454 $405 $467 forward $385 $-1 #
vertex $-1 $461 $513 #
straight-curve $-1 40.384533219397568 0 -7.6237742013341805 0 -1 0 I I #
edge $-1 $471 -40.384533219397568 $406 40.384533219397568 $405 $514 forward 7 unknown #
point $-1 40.384533219397568 25.757141160076412 -7.6237742013341805 #
coedge $-1 $409 $408 $454 $510 reversed $410 $-1 #
point $-1 -40.384533219397568 -22.757141160076412 7.6237742013341805 #
vertex $-1 $467 $515 #
straight-curve $-1 -40.384533219397568 25.757141160076412 0 0 0 -1 I I #
plane-surface $-1 0 25.757141160076412 0 0 -1 0 0 0 -1 forward_v I I I I #
face $-1 $516 $517 $15 $-1 $518 reversed single #
loop $-1 $-1 $519 $416 #
plane-surface $-1 0 -25.757141160076412 0 0 1 0 0 0 1 forward_v I I I I #
coedge $-1 $520 $521 $519 $522 reversed $417 $-1 #
coedge $-1 $523 $419 $495 $524 reversed $346 $-1 #
coedge $-1 $419 $523 $525 $526 reversed $346 $-1 #
coedge $-1 $521 $520 $419 $481 forward $417 $-1 #
edge $-1 $527 -7.6237742013341805 $528 7.6237742013341805 $480 $529 forward 7 unknown #
coedge $-1 $420 $530 $531 $532 forward $279 $-1 #
coedge $-1 $533 $421 $420 $484 reversed $359 $-1 #
edge $-1 $534 -25.757141160076412 $424 -20.453747891022402 $483 $436 forward 7 unknown #
vertex $-1 $428 $535 #
straight-curve $-1 40.384533219397568 -20.453747891022402 58.941091027693858 0 0 1 I I #
straight-curve $-1 -20.572654447449743 -20.453747891022402 56.924994388540419 -0.75470957328743171 0 0.6560590369687036 I I #
point $-1 40.384533219397568 -20.453747891022402 7.6237742013341805 #
point $-1 36.141910482491312 -20.453747891022402 7.6237742013341787 #
straight-curve $-1 40.384533219397568 -7.7118230235259944 3.9357184438432355 0 -1 0 I I #
coedge $-1 $430 $533 $536 $537 reversed $359 $-1 #
coedge $-1 $538 $433 $430 $493 forward $499 $-1 #
edge $-1 $435 -7.6237742013341805 $539 7.6237742013341805 $430 $540 forward 7 unknown #
plane-surface $-1 40.384533219397568 0 0 -1 0 0 0 0 1 forward_v I I I I #
coedge $-1 $530 $432 $478 $524 forward $279 $-1 #
coedge $-1 $541 $542 $432 $497 reversed $543 $-1 #
edge $-1 $500 -25.757141160076412 $544 22.757141160076412 $496 $545 forward 7 unknown #
coedge $-1 $433 $538 $541 $546 reversed $499 $-1 #
loop $-1 $-1 $492 $547 #
vertex $-1 $434 $548 #
straight-curve $-1 0 25.757141160076412 7.6237742013341805 -1 0 0 I I #
point $-1 40.384533219397568 25.757141160076412 7.6237742013341805 #
straight-curve $-1 40.384533219397568 25.757141160076412 0 0 0 -1 I I #
edge $-1 $465 -40.384533219397568 $450 34.153540922068714 $445 $549 forward 7 unknown #
straight-curve $-1 -34.153540922068714 -12.128570580038206 7.6237742013341805 0 -1 0 I I #
straight-curve $-1 -34.153540922068714 -12.128570580038206 -7.6237742013341805 0 1 0 I I #
point $-1 -34.153540922068714 -25.757141160076412 7.6237742013341805 #
point $-1 -34.153540922068714 -25.757141160076412 -7.6237742013341805 #
straight-curve $-1 -40.384533219397568 -22.757141160076412 0 0 0 1 I I #
edge $-1 $455 -22.757141160076412 $471 25.757141160076412 $469 $550 forward 7 unknown #
point $-1 -40.384533219397568 -22.757141160076412 -7.6237742013341805 #
straight-curve $-1 40.384533219397568 -25.757141160076412 0 0 0 -1 I I #
point $-1 40.384533219397568 -25.757141160076412 -7.6237742013341805 #
straight-curve $-1 0 25.757141160076412 -7.6237742013341805 1 0 0 I I #
point $-1 -40.384533219397568 25.757141160076412 -7.6237742013341805 #
face $-1 $547 $543 $15 $-1 $551 reversed single #
loop $-1 $-1 $525 $474 #
plane-surface $-1 0 0 -7.6237742013341805 0 0 1 1 0 0 forward_v I I I I #
coedge $-1 $552 $531 $477 $522 forward $475 $-1 #
coedge $-1 $480 $477 $530 $553 reversed $417 $-1 #
coedge $-1 $477 $480 $554 $555 reversed $417 $-1 #
edge $-1 $556 -7.6237742013341805 $557 7.6237742013341805 $519 $558 forward 7 unknown #
coedge $-1 $479 $478 $542 $559 reversed $346 $-1 #
edge $-1 $544 -21.750014684030997 $527 -15.519022386702144 $495 $560 forward 7 unknown #
coedge $-1 $561 $554 $479 $526 forward $517 $-1 #
edge $-1 $528 15.519022386702144 $562 21.750014684030997 $525 $563 forward 7 unknown #
vertex $-1 $524 $564 #
vertex $-1 $526 $565 #
straight-curve $-1 -34.153540922068714 -22.757141160076412 0 0 0 -1 I I #
coedge $-1 $482 $495 $520 $553 forward $279 $-1 #
coedge $-1 $519 $566 $482 $532 reversed $475 $-1 #
edge $-1 $556 -34.153540922068714 $534 40.384533219397568 $531 $567 forward 7 unknown #
coedge $-1 $491 $483 $566 $568 forward $359 $-1 #
vertex $-1 $484 $569 #
point $-1 40.384533219397568 -20.453747891022402 3.9357184438432355 #
coedge $-1 $570 $571 $491 $537 forward $517 $-1 #
edge $-1 $539 -25.757141160076412 $572 25.757141160076412 $491 $573 forward 7 unknown #
coedge $-1 $498 $492 $571 $574 reversed $499 $-1 #
vertex $-1 $537 $575 #
straight-curve $-1 40.384533219397568 25.757141160076412 0 0 0 -1 I I #
coedge $-1 $576 $496 $498 $546 forward $543 $-1 #
coedge $-1 $496 $576 $523 $559 forward $543 $-1 #
loop $-1 $-1 $542 $516 #
vertex $-1 $559 $577 #
straight-curve $-1 -40.384533219397568 0 7.6237742013341805 0 -1 0 I I #
edge $-1 $500 -7.6237742013341805 $578 7.6237742013341805 $498 $579 forward 7 unknown #
face $-1 $431 $499 $15 $-1 $580 reversed single #
point $-1 -40.384533219397568 25.757141160076412 7.6237742013341805 #
straight-curve $-1 0 -25.757141160076412 -7.6237742013341805 -1 0 0 I I #
straight-curve $-1 -40.384533219397568 0 -7.6237742013341805 0 1 0 I I #
plane-surface $-1 -40.384533219397568 0 0 1 0 0 0 0 -1 forward_v I I I I #
coedge $-1 $566 $519 $570 $581 reversed $475 $-1 #
edge $-1 $527 10.628570580038206 $556 13.628570580038206 $530 $582 forward 7 unknown #
coedge $-1 $525 $570 $521 $555 forward $517 $-1 #
edge $-1 $557 -13.628570580038206 $528 -10.628570580038206 $554 $583 forward 7 unknown #
vertex $-1 $532 $584 #
vertex $-1 $522 $585 #
straight-curve $-1 -34.153540922068714 -25.757141160076412 0 0 0 -1 I I #
edge $-1 $562 -7.6237742013341805 $544 7.6237742013341805 $542 $586 forward 7 unknown #
straight-curve $-1 -18.634518535366571 -22.757141160076412 7.6237742013341805 1 0 0 I I #
coedge $-1 $571 $525 $576 $587 forward $517 $-1 #
vertex $-1 $587 $588 #
straight-curve $-1 -18.634518535366571 -22.757141160076412 -7.6237742013341805 -1 0 0 I I #
point $-1 -34.153540922068714 -22.757141160076412 7.6237742013341805 #
point $-1 -34.153540922068714 -22.757141160076412 -7.6237742013341805 #
coedge $-1 $531 $552 $533 $568 reversed $475 $-1 #
straight-curve $-1 0 -25.757141160076412 7.6237742013341805 1 0 0 I I #
edge $-1 $534 -7.6237742013341805 $572 7.6237742013341805 $533 $589 forward 7 unknown #
point $-1 40.384533219397568 -25.757141160076412 7.6237742013341805 #
coedge $-1 $554 $536 $552 $581 forward $517 $-1 #
coedge $-1 $536 $561 $538 $574 forward $517 $-1 #
vertex $-1 $568 $590 #
straight-curve $-1 40.384533219397568 0 -7.6237742013341805 0 -1 0 I I #
edge $-1 $578 -40.384533219397568 $539 40.384533219397568 $538 $591 forward 7 unknown #
point $-1 40.384533219397568 25.757141160076412 -7.6237742013341805 #
coedge $-1 $542 $541 $561 $587 reversed $543 $-1 #
point $-1 -40.384533219397568 -22.757141160076412 7.6237742013341805 #
vertex $-1 $574 $592 #
straight-curve $-1 -40.384533219397568 25.757141160076412 0 0 0 -1 I I #
plane-surface $-1 0 25.757141160076412 0 0 -1 0 0 0 -1 forward_v I I I I #
edge $-1 $572 -40.384533219397568 $557 34.153540922068714 $552 $593 forward 7 unknown #
straight-curve $-1 -34.153540922068714 -12.128570580038206 7.6237742013341805 0 -1 0 I I #
straight-curve $-1 -34.153540922068714 -12.128570580038206 -7.6237742013341805 0 1 0 I I #
point $-1 -34.153540922068714 -25.757141160076412 7.6237742013341805 #
point $-1 -34.153540922068714 -25.757141160076412 -7.6237742013341805 #
straight-curve $-1 -40.384533219397568 -22.757141160076412 0 0 0 1 I I #
edge $-1 $562 -22.757141160076412 $578 25.757141160076412 $576 $594 forward 7 unknown #
point $-1 -40.384533219397568 -22.757141160076412 -7.6237742013341805 #
straight-curve $-1 40.384533219397568 -25.757141160076412 0 0 0 -1 I I #
point $-1 40.384533219397568 -25.757141160076412 -7.6237742013341805 #
straight-curve $-1 0 25.757141160076412 -7.6237742013341805 1 0 0 I I #
point $-1 -40.384533219397568 25.757141160076412 -7.6237742013341805 #
straight-curve $-1 0 -25.757141160076412 -7.6237742013341805 -1 0 0 I I #
straight-curve $-1 -40.384533219397568 0 -7.6237742013341805 0 1 0 I I #
End-of-ACIS-data 