500 0 5 0           
7 Unknown 11 ACIS 5.0 NT 24 Thu Mar 25 21:51:43 1999 
-1 9.9999999999999995e-007 1e-010 
body $-1 $5 $-1 $6 #
body $-1 $7 $-1 $8 #
body $-1 $9 $-1 $10 #
body $-1 $11 $-1 $12 #
body $-1 $13 $-1 $14 #
lump $-1 $-1 $15 $0 #
transform $-1 1 0 0 0 1 0 0 0 1 71.375469222083197 49.218512593976079 12.254984548493077 1 rotate no_reflect no_shear #
lump $-1 $-1 $16 $1 #
transform $-1 1 0 0 0 1 0 0 0 1 71.375469222083197 49.218512593976079 12.254984548493077 1 rotate no_reflect no_shear #
lump $-1 $-1 $17 $2 #
transform $-1 1 0 0 0 1 0 0 0 1 71.375469222083197 49.218512593976079 12.254984548493077 1 rotate no_reflect no_shear #
lump $-1 $-1 $18 $3 #
transform $-1 1 0 0 0 1 0 0 0 1 71.375469222083197 49.218512593976079 12.254984548493077 1 rotate no_reflect no_shear #
lump $-1 $-1 $19 $4 #
transform $-1 1 0 0 0 1 0 0 0 1 71.375469222083197 49.218512593976079 12.254984548493077 1 rotate no_reflect no_shear #
shell $-1 $-1 $-1 $20 $-1 $5 #
shell $-1 $-1 $-1 $21 $-1 $7 #
shell $-1 $-1 $-1 $22 $-1 $9 #
shell $-1 $-1 $-1 $23 $-1 $11 #
shell $-1 $-1 $-1 $24 $-1 $13 #
face $-1 $25 $26 $15 $-1 $27 forward single #
face $-1 $28 $29 $16 $-1 $30 reversed single #
face $-1 $31 $32 $17 $-1 $33 forward single #
face $-1 $34 $35 $18 $-1 $36 reversed single #
face $-1 $37 $38 $19 $-1 $39 reversed single #
face $-1 $40 $41 $15 $-1 $42 reversed single #
loop $-1 $-1 $43 $20 #
plane-surface $-1 0 0 12.254984548493077 0 0 1 1 0 0 forward_v I I I I #
face $-1 $44 $45 $16 $-1 $46 forward single #
loop $-1 $-1 $47 $21 #
plane-surface $-1 0 -42.915511527375301 11.754984548493079 0 0 1 1 0 0 forward_v I I I I #
face $-1 $48 $49 $17 $-1 $50 forward single #
loop $-1 $-1 $51 $22 #
plane-surface $-1 36.019921233447306 86.486052139312051 176.99801888067392 1 0 0 0 -0.73135370988377701 -0.68199835119979291 forward_v I I I I #
face $-1 $52 $53 $18 $-1 $54 reversed single #
loop $-1 $55 $56 $23 #
cone-surface $-1 46.121506373057557 46.265333707453081 9.2008086686530124 0 -0.73135370988377701 -0.68199835119979291 1.5 0 0 1 I I 0 1 1.5 forward I I I I #
face $-1 $57 $58 $19 $-1 $59 reversed single #
loop $-1 $60 $61 $24 #
cone-surface $-1 61.273884082472946 46.265333707453081 9.2008086686530124 0 -0.73135370988377701 -0.68199835119979291 1.5 0 0 1 I I 0 1 1.5 forward I I I I #
face $-1 $62 $63 $15 $-1 $64 reversed single #
loop $-1 $-1 $65 $25 #
plane-surface $-1 0 0 -12.254984548493077 0 0 1 1 0 0 forward_v I I I I #
coedge $-1 $66 $67 $68 $69 forward $26 $-1 #
face $-1 $70 $71 $16 $-1 $72 forward single #
loop $-1 $-1 $73 $28 #
plane-surface $-1 0 -42.915511527375301 8.0032022065101867 0 0 1 1 0 0 forward_v I I I I #
coedge $-1 $74 $75 $76 $77 reversed $29 $-1 #
face $-1 $78 $79 $17 $-1 $80 reversed single #
loop $-1 $-1 $81 $31 #
plane-surface $-1 53.697695227765252 -17.915376281219736 79.642114229529312 0 0.73135370988377701 0.68199835119979291 1 0 0 forward_v I I I I #
coedge $-1 $82 $83 $84 $85 reversed $32 $-1 #
face $-1 $86 $87 $18 $-1 $88 forward single #
loop $-1 $89 $90 $34 #
cone-surface $-1 46.121506373057557 44.910827219937154 7.9377109654608233 0 -0.73135370988377701 -0.68199835119979291 0.75 0 0 1 I I -0.70710678118654757 0.70710678118654757 0.75 forward I I I I #
loop $-1 $-1 $91 $23 #
coedge $-1 $56 $56 $92 $93 reversed $35 $-1 #
face $-1 $94 $95 $19 $-1 $96 reversed single #
loop $-1 $97 $98 $37 #
cone-surface $-1 61.273884082472946 44.910827219937154 7.9377109654608233 0 -0.73135370988377701 -0.68199835119979291 0.75 0 0 1 I I -0.70710678118654757 0.70710678118654757 0.75 forward I I I I #
loop $-1 $-1 $99 $24 #
coedge $-1 $61 $61 $100 $101 reversed $38 $-1 #
face $-1 $102 $103 $15 $-1 $104 reversed single #
loop $-1 $-1 $105 $40 #
plane-surface $-1 0 -49.218512593976079 0 0 1 0 0 0 1 forward_v I I I I #
coedge $-1 $106 $107 $108 $109 forward $41 $-1 #
coedge $-1 $110 $43 $111 $112 forward $26 $-1 #
coedge $-1 $43 $110 $113 $114 forward $26 $-1 #
coedge $-1 $115 $116 $43 $69 reversed $117 $-1 #
edge $-1 $118 -49.218512593976079 $119 49.218512593976079 $68 $120 forward 7 unknown #
face $-1 $121 $122 $16 $-1 $123 reversed single #
loop $-1 $-1 $124 $44 #
plane-surface $-1 0 -36.612510460774523 9.8790933775016327 0 -1 0 0 0 -1 forward_v I I I I #
coedge $-1 $125 $126 $127 $128 reversed $45 $-1 #
coedge $-1 $129 $47 $130 $131 reversed $29 $-1 #
coedge $-1 $47 $129 $132 $133 reversed $29 $-1 #
coedge $-1 $134 $135 $47 $77 forward $122 $-1 #
edge $-1 $136 -27.760756830288429 $137 -15.154754697086872 $76 $138 forward 7 unknown #
face $-1 $139 $140 $17 $-1 $141 reversed single #
loop $-1 $-1 $142 $48 #
plane-surface $-1 0 49.218512593976079 0 0 -1 0 0 0 -1 forward_v I I I I #
coedge $-1 $143 $144 $145 $146 reversed $49 $-1 #
coedge $-1 $83 $51 $144 $147 forward $32 $-1 #
coedge $-1 $51 $82 $142 $148 reversed $32 $-1 #
coedge $-1 $149 $145 $51 $85 forward $150 $-1 #
edge $-1 $151 1.6811111614803025 $152 5.9754865243200541 $84 $153 forward 7 unknown #
face $-1 $154 $155 $18 $-1 $156 forward single #
loop $-1 $-1 $157 $52 #
plane-surface $-1 36.019921233447306 86.486052139312051 176.99801888067392 1 0 0 0 -0.73135370988377701 -0.68199835119979291 forward_v I I I I #
loop $-1 $-1 $158 $34 #
coedge $-1 $90 $90 $91 $159 forward $53 $-1 #
coedge $-1 $91 $91 $90 $159 reversed $55 $-1 #
coedge $-1 $92 $92 $56 $93 forward $155 $-1 #
edge $-1 $160 -2.035066495839832e-015 $160 6.2831853071795987 $92 $161 forward 7 unknown #
face $-1 $162 $163 $19 $-1 $164 reversed single #
loop $-1 $165 $166 $57 #
cone-surface $-1 46.121506373057557 46.265333707453081 9.2008086686530124 0 -0.73135370988377701 -0.68199835119979291 1.5 0 0 1 I I 0 1 1.5 forward I I I I #
loop $-1 $-1 $167 $37 #
coedge $-1 $98 $98 $99 $168 forward $58 $-1 #
coedge $-1 $99 $99 $98 $168 reversed $60 $-1 #
coedge $-1 $100 $100 $61 $101 forward $169 $-1 #
edge $-1 $170 -2.035066495839832e-015 $170 6.2831853071795987 $100 $171 forward 7 unknown #
face $-1 $172 $173 $15 $-1 $174 reversed single #
loop $-1 $-1 $175 $62 #
plane-surface $-1 -71.375469222083197 0 0 1 0 0 0 0 -1 forward_v I I I I #
coedge $-1 $176 $113 $177 $178 forward $63 $-1 #
coedge $-1 $179 $65 $176 $180 forward $41 $-1 #
coedge $-1 $65 $179 $181 $182 forward $41 $-1 #
coedge $-1 $116 $115 $65 $109 reversed $117 $-1 #
edge $-1 $183 -49.218512593976079 $184 49.218512593976079 $108 $185 forward 7 unknown #
coedge $-1 $67 $66 $186 $187 forward $26 $-1 #
coedge $-1 $188 $189 $66 $112 reversed $173 $-1 #
edge $-1 $119 -71.375469222083197 $190 71.375469222083197 $111 $191 forward 7 unknown #
coedge $-1 $105 $192 $67 $114 reversed $63 $-1 #
edge $-1 $193 -71.375469222083197 $118 71.375469222083197 $113 $194 forward 7 unknown #
coedge $-1 $108 $68 $192 $195 forward $117 $-1 #
coedge $-1 $68 $108 $188 $196 reversed $117 $-1 #
loop $-1 $-1 $115 $172 #
vertex $-1 $69 $197 #
vertex $-1 $69 $198 #
straight-curve $-1 71.375469222083197 0 12.254984548493077 0 1 0 I I #
face $-1 $199 $200 $16 $-1 $201 reversed single #
loop $-1 $-1 $76 $70 #
plane-surface $-1 71.375469222083197 0 0 -1 0 0 0 0 1 forward_v I I I I #
coedge $-1 $132 $202 $134 $203 reversed $71 $-1 #
coedge $-1 $204 $73 $202 $205 reversed $45 $-1 #
coedge $-1 $73 $204 $206 $207 reversed $45 $-1 #
coedge $-1 $208 $134 $73 $128 forward $122 $-1 #
edge $-1 $209 15.154754697086872 $210 27.760756830288429 $127 $211 forward 7 unknown #
coedge $-1 $75 $74 $212 $213 reversed $29 $-1 #
coedge $-1 $214 $215 $74 $131 forward $216 $-1 #
edge $-1 $217 -71.375469222083197 $136 71.375469222083197 $130 $218 forward 7 unknown #
coedge $-1 $219 $124 $75 $133 forward $71 $-1 #
edge $-1 $137 -71.375469222083197 $220 71.375469222083197 $132 $221 forward 7 unknown #
coedge $-1 $127 $76 $124 $203 forward $122 $-1 #
coedge $-1 $76 $222 $214 $223 forward $122 $-1 #
vertex $-1 $131 $224 #
vertex $-1 $77 $225 #
straight-curve $-1 71.375469222083197 -21.457755763687651 11.754984548493079 0 1 0 I I #
face $-1 $226 $227 $17 $-1 $228 forward single #
loop $-1 $-1 $229 $78 #
plane-surface $-1 0 -42.915511527375301 11.754984548493079 0 0 1 1 0 0 forward_v I I I I #
coedge $-1 $230 $231 $83 $148 forward $79 $-1 #
coedge $-1 $232 $81 $233 $234 reversed $49 $-1 #
coedge $-1 $81 $232 $82 $147 reversed $49 $-1 #
coedge $-1 $84 $235 $81 $146 forward $150 $-1 #
edge $-1 $236 -44.526621608200571 $151 -9.1710736195646803 $145 $237 forward 7 unknown #
edge $-1 $151 92.140271896268985 $238 98.437025187952102 $82 $239 forward 7 unknown #
edge $-1 $152 76.244024891843878 $238 80.849178771939222 $142 $240 forward 7 unknown #
coedge $-1 $241 $84 $231 $242 forward $150 $-1 #
loop $-1 $-1 $84 $243 #
vertex $-1 $146 $244 #
vertex $-1 $242 $245 #
straight-curve $-1 36.019921233447306 43.243026069656025 12.25498454849307 0 1 0 I I #
face $-1 $246 $247 $18 $-1 $248 reversed single #
loop $-1 $249 $92 $86 #
plane-surface $-1 53.697695227765252 -17.915376281219736 79.642114229529312 0 0.73135370988377701 0.68199835119979291 1 0 0 forward_v I I I I #
coedge $-1 $250 $251 $252 $253 reversed $87 $-1 #
coedge $-1 $158 $158 $-1 $254 forward $89 $-1 #
edge $-1 $255 0 $255 6.2831853071796004 $90 $256 forward 7 unknown #
vertex $-1 $93 $257 #
ellipse-curve $-1 46.121506373057557 47.071324912556214 9.9524076084453927 0 -0.73135370988377701 -0.68199835119979291 1.5 0 0 1 I I #
face $-1 $258 $259 $19 $-1 $260 forward single #
loop $-1 $261 $262 $94 #
cone-surface $-1 46.121506373057557 44.910827219937154 7.9377109654608233 0 -0.73135370988377701 -0.68199835119979291 0.75 0 0 1 I I -0.70710678118654757 0.70710678118654757 0.75 forward I I I I #
loop $-1 $-1 $263 $57 #
coedge $-1 $166 $166 $264 $265 reversed $95 $-1 #
coedge $-1 $167 $167 $-1 $266 forward $97 $-1 #
edge $-1 $267 0 $267 6.2831853071796004 $98 $268 forward 7 unknown #
loop $-1 $269 $100 $258 #
vertex $-1 $101 $270 #
ellipse-curve $-1 61.273884082472946 47.071324912556214 9.9524076084453927 0 -0.73135370988377701 -0.68199835119979291 1.5 0 0 1 I I #
face $-1 $-1 $117 $15 $-1 $271 reversed single #
loop $-1 $-1 $188 $102 #
plane-surface $-1 0 49.218512593976079 0 0 -1 0 0 0 -1 forward_v I I I I #
coedge $-1 $272 $186 $189 $273 forward $103 $-1 #
coedge $-1 $192 $105 $106 $180 reversed $63 $-1 #
coedge $-1 $186 $272 $105 $178 reversed $103 $-1 #
edge $-1 $193 -12.254984548493077 $274 12.254984548493077 $177 $275 forward 7 unknown #
coedge $-1 $107 $106 $272 $276 forward $41 $-1 #
edge $-1 $184 -71.375469222083197 $274 71.375469222083197 $176 $277 forward 7 unknown #
coedge $-1 $189 $188 $107 $182 reversed $173 $-1 #
edge $-1 $278 -71.375469222083197 $183 71.375469222083197 $181 $279 forward 7 unknown #
vertex $-1 $109 $280 #
vertex $-1 $195 $281 #
straight-curve $-1 71.375469222083197 0 -12.254984548493077 0 -1 0 I I #
coedge $-1 $175 $177 $110 $187 reversed $103 $-1 #
edge $-1 $190 -49.218512593976079 $193 49.218512593976079 $186 $282 forward 7 unknown #
coedge $-1 $181 $111 $116 $196 forward $173 $-1 #
coedge $-1 $111 $181 $175 $273 reversed $173 $-1 #
vertex $-1 $112 $283 #
straight-curve $-1 0 49.218512593976079 12.254984548493077 -1 0 0 I I #
coedge $-1 $113 $176 $115 $195 reversed $63 $-1 #
vertex $-1 $187 $284 #
straight-curve $-1 0 -49.218512593976079 12.254984548493077 1 0 0 I I #
edge $-1 $118 -12.254984548493077 $184 12.254984548493077 $115 $285 forward 7 unknown #
edge $-1 $119 -12.254984548493077 $183 12.254984548493077 $116 $286 forward 7 unknown #
point $-1 71.375469222083197 -49.218512593976079 12.254984548493077 #
point $-1 71.375469222083197 49.218512593976079 12.254984548493077 #
face $-1 $287 $288 $16 $-1 $289 forward single #
loop $-1 $-1 $206 $121 #
plane-surface $-1 0 -49.218512593976079 0 0 1 0 0 0 1 forward_v I I I I #
coedge $-1 $124 $219 $125 $205 forward $71 $-1 #
edge $-1 $137 -6.8154378597422625 $209 -3.0636555177593703 $134 $290 forward 7 unknown #
coedge $-1 $126 $125 $291 $292 reversed $45 $-1 #
edge $-1 $293 -71.375469222083197 $209 71.375469222083197 $202 $294 forward 7 unknown #
coedge $-1 $295 $296 $126 $207 forward $200 $-1 #
edge $-1 $210 -71.375469222083197 $297 71.375469222083197 $206 $298 forward 7 unknown #
coedge $-1 $299 $127 $296 $300 forward $122 $-1 #
vertex $-1 $128 $301 #
vertex $-1 $300 $302 #
straight-curve $-1 71.375469222083197 -21.457755763687651 8.0032022065101867 0 -1 0 I I #
coedge $-1 $303 $304 $129 $213 forward $305 $-1 #
edge $-1 $220 15.154754697086872 $217 27.760756830288429 $212 $306 forward 7 unknown #
coedge $-1 $307 $130 $135 $223 reversed $216 $-1 #
coedge $-1 $130 $307 $303 $308 forward $216 $-1 #
loop $-1 $-1 $130 $309 #
vertex $-1 $213 $310 #
straight-curve $-1 0 -49.218512593976079 11.754984548493079 1 0 0 I I #
coedge $-1 $202 $132 $304 $311 reversed $71 $-1 #
vertex $-1 $213 $312 #
straight-curve $-1 0 -36.612510460774523 11.754984548493079 -1 0 0 I I #
coedge $-1 $135 $313 $314 $315 reversed $122 $-1 #
edge $-1 $316 -12.254984548493077 $136 -11.754984548493079 $135 $317 forward 7 unknown #
point $-1 71.375469222083197 -49.218512593976079 11.754984548493079 #
point $-1 71.375469222083197 -36.612510460774523 11.754984548493079 #
face $-1 $318 $319 $17 $-1 $320 forward single #
loop $-1 $-1 $321 $139 #
plane-surface $-1 0 -42.915511527375301 8.0032022065101867 0 0 1 1 0 0 forward_v I I I I #
coedge $-1 $322 $323 $324 $325 reversed $140 $-1 #
coedge $-1 $326 $142 $232 $327 forward $79 $-1 #
coedge $-1 $142 $328 $149 $242 reversed $79 $-1 #
coedge $-1 $144 $143 $230 $327 reversed $49 $-1 #
coedge $-1 $329 $330 $143 $234 forward $331 $-1 #
edge $-1 $332 -63.204618793117319 $236 -56.907865501434202 $233 $333 forward 7 unknown #
coedge $-1 $145 $334 $329 $335 forward $150 $-1 #
vertex $-1 $234 $336 #
straight-curve $-1 26.848847613882626 44.924137231136328 12.25498454849307 -1 0 0 I I #
vertex $-1 $327 $337 #
straight-curve $-1 36.019921233447306 -17.915376281219736 79.642114229529312 0 0.68199835119979291 -0.73135370988377701 I I #
straight-curve $-1 36.019921233447306 49.218512593976079 88.499009440336962 0 0 -1 I I #
coedge $-1 $334 $149 $338 $339 forward $150 $-1 #
edge $-1 $152 -36.019921233447306 $340 71.375469222083197 $231 $341 forward 7 unknown #
face $-1 $342 $150 $17 $-1 $343 forward single #
point $-1 36.019921233447306 44.924137231136328 12.25498454849307 #
point $-1 36.019921233447306 49.218512593976079 12.254984548493077 #
face $-1 $344 $345 $18 $-1 $346 reversed single #
loop $-1 $-1 $347 $154 #
plane-surface $-1 0 49.218512593976079 0 0 -1 0 0 0 -1 forward_v I I I I #
loop $-1 $-1 $348 $86 #
coedge $-1 $251 $157 $349 $350 forward $87 $-1 #
coedge $-1 $157 $250 $347 $351 reversed $87 $-1 #
coedge $-1 $352 $353 $157 $253 forward $354 $-1 #
edge $-1 $355 1.6811111614803025 $356 5.9754865243200541 $252 $357 forward 7 unknown #
edge $-1 $358 1 $358 0 $158 $-1 forward 7 unknown #
vertex $-1 $159 $359 #
ellipse-curve $-1 46.121506373057557 45.459342502349983 8.4492097288606676 0 0.73135370988377701 0.68199835119979291 1.5 0 0 1 I I #
point $-1 47.621506373057557 47.071324912556179 9.9524076084453554 #
face $-1 $360 $169 $19 $-1 $361 forward single #
loop $-1 $-1 $362 $162 #
plane-surface $-1 36.019921233447306 86.486052139312051 176.99801888067392 1 0 0 0 -0.73135370988377701 -0.68199835119979291 forward_v I I I I #
loop $-1 $-1 $363 $94 #
coedge $-1 $262 $262 $263 $364 forward $163 $-1 #
coedge $-1 $263 $263 $262 $364 reversed $165 $-1 #
coedge $-1 $264 $264 $166 $265 forward $269 $-1 #
edge $-1 $365 -2.035066495839832e-015 $365 6.2831853071795987 $264 $366 forward 7 unknown #
edge $-1 $367 1 $367 0 $167 $-1 forward 7 unknown #
vertex $-1 $168 $368 #
ellipse-curve $-1 61.273884082472946 45.459342502349983 8.4492097288606676 0 0.73135370988377701 0.68199835119979291 1.5 0 0 1 I I #
loop $-1 $369 $264 $258 #
point $-1 62.773884082472946 47.071324912556179 9.9524076084453554 #
plane-surface $-1 71.375469222083197 0 0 -1 0 0 0 0 1 forward_v I I I I #
coedge $-1 $177 $175 $179 $276 reversed $103 $-1 #
edge $-1 $190 -12.254984548493077 $278 12.254984548493077 $189 $370 forward 7 unknown #
vertex $-1 $276 $371 #
straight-curve $-1 -71.375469222083197 -49.218512593976079 0 0 0 -1 I I #
edge $-1 $274 -49.218512593976079 $278 49.218512593976079 $272 $372 forward 7 unknown #
straight-curve $-1 0 -49.218512593976079 -12.254984548493077 -1 0 0 I I #
vertex $-1 $182 $373 #
straight-curve $-1 0 49.218512593976079 -12.254984548493077 1 0 0 I I #
point $-1 71.375469222083197 49.218512593976079 -12.254984548493077 #
point $-1 71.375469222083197 -49.218512593976079 -12.254984548493077 #
straight-curve $-1 -71.375469222083197 0 12.254984548493077 0 -1 0 I I #
point $-1 -71.375469222083197 49.218512593976079 12.254984548493077 #
point $-1 -71.375469222083197 -49.218512593976079 12.254984548493077 #
straight-curve $-1 71.375469222083197 -49.218512593976079 0 0 0 -1 I I #
straight-curve $-1 71.375469222083197 49.218512593976079 0 0 0 -1 I I #
face $-1 $309 $374 $16 $-1 $375 reversed single #
loop $-1 $-1 $314 $199 #
plane-surface $-1 0 0 12.254984548493077 0 0 1 1 0 0 forward_v I I I I #
straight-curve $-1 71.375469222083197 -36.612510460774523 4.9395466887508164 0 0 -1 I I #
coedge $-1 $304 $376 $204 $292 forward $305 $-1 #
edge $-1 $297 -27.760756830288429 $293 -15.154754697086872 $291 $377 forward 7 unknown #
vertex $-1 $292 $378 #
straight-curve $-1 0 -36.612510460774523 8.0032022065101867 1 0 0 I I #
coedge $-1 $379 $206 $376 $380 forward $200 $-1 #
coedge $-1 $206 $379 $208 $300 reversed $200 $-1 #
vertex $-1 $380 $381 #
straight-curve $-1 0 -49.218512593976079 8.0032022065101867 -1 0 0 I I #
coedge $-1 $313 $208 $382 $383 reversed $122 $-1 #
edge $-1 $210 -8.0032022065101867 $384 12.254984548493077 $208 $317 forward 7 unknown #
point $-1 71.375469222083197 -36.612510460774523 8.0032022065101867 #
point $-1 71.375469222083197 -49.218512593976079 8.0032022065101867 #
coedge $-1 $385 $212 $215 $308 reversed $305 $-1 #
coedge $-1 $212 $291 $219 $311 forward $305 $-1 #
loop $-1 $-1 $212 $386 #
straight-curve $-1 -71.375469222083197 -21.457755763687651 11.754984548493079 0 -1 0 I I #
coedge $-1 $215 $214 $387 $388 reversed $216 $-1 #
edge $-1 $389 -12.254984548493077 $217 -11.754984548493079 $303 $390 forward 7 unknown #
face $-1 $386 $216 $16 $-1 $201 reversed single #
point $-1 -71.375469222083197 -49.218512593976079 11.754984548493079 #
edge $-1 $293 3.0636555177593703 $220 6.8154378597422625 $304 $391 forward 7 unknown #
point $-1 -71.375469222083197 -36.612510460774523 11.754984548493079 #
coedge $-1 $222 $299 $392 $393 reversed $122 $-1 #
coedge $-1 $394 $387 $222 $315 forward $288 $-1 #
edge $-1 $316 -49.218512593976079 $395 49.218512593976079 $222 $396 forward 7 unknown #
vertex $-1 $315 $397 #
straight-curve $-1 71.375469222083197 -49.218512593976079 0 0 0 -1 I I #
face $-1 $398 $331 $17 $-1 $399 reversed single #
loop $-1 $-1 $400 $226 #
plane-surface $-1 0 -36.612510460774523 9.8790933775016327 0 -1 0 0 0 -1 forward_v I I I I #
coedge $-1 $401 $402 $403 $404 reversed $227 $-1 #
coedge $-1 $405 $229 $406 $407 reversed $140 $-1 #
coedge $-1 $229 $405 $408 $409 reversed $140 $-1 #
coedge $-1 $410 $411 $229 $325 forward $331 $-1 #
edge $-1 $412 -27.760756830288429 $413 -15.154754697086872 $324 $414 forward 7 unknown #
coedge $-1 $415 $230 $330 $416 forward $79 $-1 #
edge $-1 $238 9.1710736195646803 $332 44.526621608200571 $230 $417 forward 7 unknown #
coedge $-1 $231 $415 $418 $419 reversed $79 $-1 #
coedge $-1 $411 $233 $235 $335 reversed $331 $-1 #
coedge $-1 $233 $420 $326 $416 reversed $331 $-1 #
loop $-1 $-1 $233 $318 #
vertex $-1 $416 $421 #
straight-curve $-1 71.375469222083197 6.113066788858621 53.87476310453399 0 -0.68199835119979291 0.73135370988377701 I I #
coedge $-1 $235 $241 $422 $423 forward $150 $-1 #
edge $-1 $424 -49.218512593976079 $236 44.924137231136328 $329 $425 forward 7 unknown #
point $-1 71.375469222083197 44.924137231136328 12.254984548493077 #
point $-1 36.019921233447306 49.218512593976087 7.6498306683977404 #
coedge $-1 $418 $426 $241 $339 reversed $427 $-1 #
edge $-1 $340 -49.218512593976079 $428 49.218512593976079 $338 $429 forward 7 unknown #
vertex $-1 $242 $430 #
straight-curve $-1 0 49.218512593976079 12.254984548493077 -1 0 0 I I #
face $-1 $431 $432 $17 $-1 $433 reversed single #
plane-surface $-1 0 0 12.254984548493077 0 0 1 1 0 0 forward_v I I I I #
face $-1 $434 $435 $18 $-1 $436 forward single #
loop $-1 $-1 $437 $246 #
plane-surface $-1 0 -42.915511527375301 11.754984548493079 0 0 1 1 0 0 forward_v I I I I #
coedge $-1 $438 $439 $251 $351 forward $247 $-1 #
coedge $-1 $440 $349 $353 $441 reversed $249 $-1 #
coedge $-1 $348 $442 $250 $350 reversed $249 $-1 #
edge $-1 $355 92.140271896268985 $443 98.437025187952102 $250 $444 forward 7 unknown #
edge $-1 $356 76.244024891843878 $443 80.849178771939222 $347 $445 forward 7 unknown #
coedge $-1 $446 $252 $439 $447 forward $354 $-1 #
coedge $-1 $252 $448 $348 $441 forward $354 $-1 #
loop $-1 $-1 $252 $449 #
vertex $-1 $441 $450 #
vertex $-1 $447 $451 #
straight-curve $-1 36.019921233447306 43.243026069656025 12.25498454849307 0 1 0 I I #
vertex $-1 $254 $452 #
point $-1 47.621506373057557 45.459342502349983 8.4492097288606676 #
face $-1 $453 $454 $19 $-1 $455 reversed single #
plane-surface $-1 53.697695227765252 -17.915376281219736 79.642114229529312 0 0.73135370988377701 0.68199835119979291 1 0 0 forward_v I I I I #
coedge $-1 $456 $457 $458 $459 reversed $259 $-1 #
coedge $-1 $363 $363 $-1 $460 forward $261 $-1 #
edge $-1 $461 0 $461 6.2831853071796004 $262 $462 forward 7 unknown #
vertex $-1 $265 $463 #
ellipse-curve $-1 46.121506373057557 47.071324912556214 9.9524076084453927 0 -0.73135370988377701 -0.68199835119979291 1.5 0 0 1 I I #
vertex $-1 $266 $464 #
point $-1 62.773884082472946 45.459342502349983 8.4492097288606676 #
loop $-1 $-1 $465 $258 #
straight-curve $-1 -71.375469222083197 49.218512593976079 0 0 0 -1 I I #
point $-1 -71.375469222083197 -49.218512593976079 -12.254984548493077 #
straight-curve $-1 -71.375469222083197 0 -12.254984548493077 0 1 0 I I #
point $-1 -71.375469222083197 49.218512593976079 -12.254984548493077 #
loop $-1 $-1 $382 $287 #
plane-surface $-1 0 0 -12.254984548493077 0 0 1 1 0 0 forward_v I I I I #
coedge $-1 $291 $466 $295 $380 reversed $305 $-1 #
straight-curve $-1 -71.375469222083197 -21.457755763687651 8.0032022065101867 0 1 0 I I #
point $-1 -71.375469222083197 -36.612510460774523 8.0032022065101867 #
coedge $-1 $296 $295 $467 $468 reversed $200 $-1 #
edge $-1 $297 -8.0032022065101867 $469 12.254984548493077 $376 $390 forward 7 unknown #
point $-1 -71.375469222083197 -49.218512593976079 8.0032022065101867 #
coedge $-1 $467 $470 $299 $383 forward $374 $-1 #
edge $-1 $471 -49.218512593976079 $384 49.218512593976079 $299 $472 forward 7 unknown #
vertex $-1 $300 $473 #
coedge $-1 $474 $303 $475 $476 reversed $305 $-1 #
face $-1 $477 $305 $16 $-1 $478 reversed single #
coedge $-1 $314 $475 $307 $388 forward $288 $-1 #
edge $-1 $389 -71.375469222083197 $316 71.375469222083197 $307 $479 forward 7 unknown #
vertex $-1 $476 $480 #
straight-curve $-1 -71.375469222083197 -49.218512593976079 0 0 0 -1 I I #
straight-curve $-1 -71.375469222083197 -36.612510460774523 4.9395466887508164 0 0 1 I I #
coedge $-1 $481 $482 $313 $393 forward $483 $-1 #
edge $-1 $395 -12.254984548493077 $471 12.254984548493077 $313 $484 forward 7 unknown #
coedge $-1 $475 $314 $482 $485 forward $288 $-1 #
vertex $-1 $315 $486 #
straight-curve $-1 71.375469222083197 0 12.254984548493077 0 1 0 I I #
point $-1 71.375469222083197 -49.218512593976079 12.254984548493077 #
face $-1 $243 $487 $17 $-1 $488 reversed single #
plane-surface $-1 71.375469222083197 0 0 -1 0 0 0 0 1 forward_v I I I I #
coedge $-1 $408 $489 $410 $490 reversed $319 $-1 #
coedge $-1 $491 $321 $489 $492 reversed $227 $-1 #
coedge $-1 $321 $491 $493 $494 reversed $227 $-1 #
coedge $-1 $495 $410 $321 $404 forward $331 $-1 #
edge $-1 $496 15.154754697086872 $497 27.760756830288429 $403 $498 forward 7 unknown #
coedge $-1 $323 $322 $499 $500 reversed $140 $-1 #
coedge $-1 $501 $502 $322 $407 forward $503 $-1 #
edge $-1 $504 -71.375469222083197 $412 71.375469222083197 $406 $505 forward 7 unknown #
coedge $-1 $506 $400 $323 $409 forward $319 $-1 #
edge $-1 $413 -71.375469222083197 $507 71.375469222083197 $408 $508 forward 7 unknown #
coedge $-1 $403 $324 $400 $490 forward $331 $-1 #
coedge $-1 $324 $329 $501 $509 forward $331 $-1 #
vertex $-1 $407 $510 #
vertex $-1 $325 $511 #
straight-curve $-1 71.375469222083197 -21.457755763687651 11.754984548493079 0 1 0 I I #
coedge $-1 $328 $326 $512 $513 reversed $79 $-1 #
edge $-1 $332 -7.6498306683977342 $514 12.254984548493077 $330 $515 forward 7 unknown #
straight-curve $-1 26.848847613882626 49.218512593976072 7.6498306683977404 1 0 0 I I #
coedge $-1 $516 $338 $328 $419 forward $427 $-1 #
edge $-1 $340 -12.254984548493077 $517 12.254984548493077 $328 $518 forward 7 unknown #
coedge $-1 $330 $495 $519 $520 reversed $331 $-1 #
point $-1 71.375469222083197 49.218512593976079 7.6498306683977342 #
coedge $-1 $502 $501 $334 $423 reversed $503 $-1 #
edge $-1 $428 -71.375469222083197 $424 71.375469222083197 $422 $521 forward 7 unknown #
vertex $-1 $335 $522 #
straight-curve $-1 71.375469222083197 0 12.254984548493077 0 1 0 I I #
coedge $-1 $338 $499 $502 $523 reversed $427 $-1 #
loop $-1 $-1 $499 $524 #
vertex $-1 $339 $525 #
straight-curve $-1 -71.375469222083197 0 12.254984548493077 0 -1 0 I I #
point $-1 -71.375469222083197 49.218512593976079 12.254984548493077 #
face $-1 $524 $503 $17 $-1 $488 reversed single #
loop $-1 $-1 $519 $342 #
plane-surface $-1 0 0 -12.254984548493077 0 0 1 1 0 0 forward_v I I I I #
face $-1 $526 $527 $18 $-1 $528 forward single #
loop $-1 $-1 $529 $344 #
plane-surface $-1 0 -42.915511527375301 8.0032022065101867 0 0 1 1 0 0 forward_v I I I I #
coedge $-1 $530 $531 $532 $533 reversed $345 $-1 #
coedge $-1 $534 $347 $442 $535 forward $247 $-1 #
coedge $-1 $347 $536 $352 $447 reversed $247 $-1 #
coedge $-1 $442 $348 $537 $538 reversed $249 $-1 #
edge $-1 $539 -44.526621608200571 $355 -9.1710736195646803 $353 $540 forward 7 unknown #
coedge $-1 $349 $440 $438 $535 reversed $249 $-1 #
vertex $-1 $535 $541 #
straight-curve $-1 36.019921233447306 -17.915376281219736 79.642114229529312 0 0.68199835119979291 -0.73135370988377701 I I #
straight-curve $-1 36.019921233447306 49.218512593976079 88.499009440336962 0 0 -1 I I #
coedge $-1 $542 $352 $543 $544 forward $354 $-1 #
edge $-1 $356 -36.019921233447306 $545 71.375469222083197 $439 $546 forward 7 unknown #
coedge $-1 $353 $542 $547 $548 forward $354 $-1 #
face $-1 $549 $354 $18 $-1 $550 forward single #
point $-1 36.019921233447306 44.924137231136328 12.25498454849307 #
point $-1 36.019921233447306 49.218512593976079 12.254984548493077 #
point $-1 46.121506373057557 44.362311937524325 7.4262122020609791 #
face $-1 $551 $552 $19 $-1 $553 reversed single #
loop $-1 $-1 $554 $360 #
plane-surface $-1 0 49.218512593976079 0 0 -1 0 0 0 -1 forward_v I I I I #
coedge $-1 $457 $362 $555 $556 forward $259 $-1 #
coedge $-1 $362 $456 $554 $557 reversed $259 $-1 #
coedge $-1 $558 $559 $362 $459 forward $560 $-1 #
edge $-1 $561 1.6811111614803025 $562 5.9754865243200541 $458 $563 forward 7 unknown #
edge $-1 $564 1 $564 0 $363 $-1 forward 7 unknown #
vertex $-1 $364 $565 #
ellipse-curve $-1 46.121506373057557 45.459342502349983 8.4492097288606676 0 0.73135370988377701 0.68199835119979291 1.5 0 0 1 I I #
point $-1 47.621506373057557 47.071324912556179 9.9524076084453554 #
point $-1 61.273884082472946 44.362311937524325 7.4262122020609791 #
coedge $-1 $566 $555 $559 $567 reversed $369 $-1 #
coedge $-1 $376 $474 $568 $569 reversed $305 $-1 #
coedge $-1 $568 $382 $379 $468 forward $374 $-1 #
edge $-1 $384 -71.375469222083197 $469 71.375469222083197 $379 $570 forward 7 unknown #
vertex $-1 $569 $571 #
coedge $-1 $382 $568 $481 $572 forward $374 $-1 #
vertex $-1 $383 $573 #
straight-curve $-1 71.375469222083197 0 -12.254984548493077 0 -1 0 I I #
point $-1 71.375469222083197 -49.218512593976079 -12.254984548493077 #
coedge $-1 $466 $385 $574 $575 forward $305 $-1 #
coedge $-1 $387 $394 $385 $476 forward $288 $-1 #
edge $-1 $576 -49.218512593976079 $389 49.218512593976079 $385 $577 forward 7 unknown #
face $-1 $-1 $483 $16 $-1 $578 reversed single #
plane-surface $-1 -71.375469222083197 0 0 1 0 0 0 0 -1 forward_v I I I I #
straight-curve $-1 0 -49.218512593976079 12.254984548493077 1 0 0 I I #
point $-1 -71.375469222083197 -49.218512593976079 12.254984548493077 #
coedge $-1 $574 $392 $470 $572 reversed $483 $-1 #
coedge $-1 $392 $574 $394 $485 reversed $483 $-1 #
loop $-1 $-1 $392 $477 #
straight-curve $-1 71.375469222083197 49.218512593976079 0 0 0 -1 I I #
edge $-1 $395 -71.375469222083197 $576 71.375469222083197 $482 $579 forward 7 unknown #
point $-1 71.375469222083197 49.218512593976079 12.254984548493077 #
loop $-1 $-1 $493 $398 #
plane-surface $-1 0 -49.218512593976079 0 0 1 0 0 0 1 forward_v I I I I #
coedge $-1 $400 $506 $401 $492 forward $319 $-1 #
edge $-1 $413 -6.8154378597422625 $496 -3.0636555177593703 $410 $580 forward 7 unknown #
coedge $-1 $402 $401 $581 $582 reversed $227 $-1 #
edge $-1 $583 -71.375469222083197 $496 71.375469222083197 $489 $584 forward 7 unknown #
coedge $-1 $585 $586 $402 $494 forward $487 $-1 #
edge $-1 $497 -71.375469222083197 $587 71.375469222083197 $493 $588 forward 7 unknown #
coedge $-1 $420 $403 $586 $589 forward $331 $-1 #
vertex $-1 $404 $590 #
vertex $-1 $589 $591 #
straight-curve $-1 71.375469222083197 -21.457755763687651 8.0032022065101867 0 -1 0 I I #
coedge $-1 $426 $592 $405 $500 forward $427 $-1 #
edge $-1 $507 15.154754697086872 $504 27.760756830288429 $499 $593 forward 7 unknown #
coedge $-1 $422 $406 $411 $509 reversed $503 $-1 #
coedge $-1 $406 $422 $426 $523 forward $503 $-1 #
loop $-1 $-1 $406 $431 #
vertex $-1 $500 $594 #
straight-curve $-1 0 -49.218512593976079 11.754984548493079 1 0 0 I I #
coedge $-1 $489 $408 $592 $595 reversed $319 $-1 #
vertex $-1 $500 $596 #
straight-curve $-1 0 -36.612510460774523 11.754984548493079 -1 0 0 I I #
edge $-1 $424 -12.254984548493077 $412 -11.754984548493079 $411 $597 forward 7 unknown #
point $-1 71.375469222083197 -49.218512593976079 11.754984548493079 #
point $-1 71.375469222083197 -36.612510460774523 11.754984548493079 #
coedge $-1 $519 $598 $415 $513 forward $432 $-1 #
edge $-1 $517 -71.375469222083197 $514 71.375469222083197 $415 $599 forward 7 unknown #
vertex $-1 $520 $600 #
straight-curve $-1 71.375469222083197 49.218512593976079 0 0 0 -1 I I #
coedge $-1 $601 $418 $598 $602 reversed $427 $-1 #
vertex $-1 $513 $603 #
straight-curve $-1 -71.375469222083197 49.218512593976079 0 0 0 -1 I I #
coedge $-1 $604 $512 $420 $520 forward $432 $-1 #
edge $-1 $514 -49.218512593976079 $605 49.218512593976079 $420 $606 forward 7 unknown #
straight-curve $-1 0 -49.218512593976079 12.254984548493077 1 0 0 I I #
point $-1 71.375469222083197 -49.218512593976079 12.254984548493077 #
edge $-1 $428 -12.254984548493077 $504 -11.754984548493079 $426 $607 forward 7 unknown #
face $-1 $-1 $427 $17 $-1 $608 reversed single #
point $-1 -71.375469222083197 -49.218512593976079 12.254984548493077 #
face $-1 $609 $610 $18 $-1 $611 reversed single #
loop $-1 $-1 $612 $434 #
plane-surface $-1 0 -36.612510460774523 9.8790933775016327 0 -1 0 0 0 -1 forward_v I I I I #
coedge $-1 $613 $614 $615 $616 reversed $435 $-1 #
coedge $-1 $617 $437 $618 $619 reversed $345 $-1 #
coedge $-1 $437 $617 $620 $621 reversed $345 $-1 #
coedge $-1 $622 $623 $437 $533 forward $610 $-1 #
edge $-1 $624 -27.760756830288429 $625 -15.154754697086872 $532 $626 forward 7 unknown #
coedge $-1 $627 $438 $628 $629 forward $247 $-1 #
edge $-1 $443 9.1710736195646803 $630 44.526621608200571 $438 $631 forward 7 unknown #
coedge $-1 $439 $627 $632 $633 reversed $247 $-1 #
coedge $-1 $547 $628 $440 $538 forward $610 $-1 #
edge $-1 $630 -63.204618793117319 $539 -56.907865501434202 $537 $634 forward 7 unknown #
vertex $-1 $538 $635 #
straight-curve $-1 26.848847613882626 44.924137231136328 12.25498454849307 -1 0 0 I I #
point $-1 36.019921233447306 49.218512593976087 7.6498306683977404 #
coedge $-1 $448 $446 $636 $637 forward $354 $-1 #
coedge $-1 $632 $638 $446 $544 reversed $639 $-1 #
edge $-1 $545 -49.218512593976079 $640 49.218512593976079 $543 $641 forward 7 unknown #
vertex $-1 $447 $642 #
straight-curve $-1 0 49.218512593976079 12.254984548493077 -1 0 0 I I #
coedge $-1 $623 $537 $448 $548 reversed $610 $-1 #
edge $-1 $643 -49.218512593976079 $539 44.924137231136328 $547 $644 forward 7 unknown #
face $-1 $645 $646 $18 $-1 $647 reversed single #
plane-surface $-1 0 0 12.254984548493077 0 0 1 1 0 0 forward_v I I I I #
face $-1 $648 $649 $19 $-1 $650 forward single #
loop $-1 $-1 $651 $453 #
plane-surface $-1 0 -42.915511527375301 11.754984548493079 0 0 1 1 0 0 forward_v I I I I #
coedge $-1 $652 $653 $457 $557 forward $454 $-1 #
coedge $-1 $465 $654 $456 $556 reversed $369 $-1 #
edge $-1 $561 92.140271896268985 $655 98.437025187952102 $456 $656 forward 7 unknown #
edge $-1 $562 76.244024891843878 $655 80.849178771939222 $554 $657 forward 7 unknown #
coedge $-1 $658 $458 $653 $659 forward $560 $-1 #
coedge $-1 $458 $660 $465 $567 forward $560 $-1 #
loop $-1 $-1 $458 $661 #
vertex $-1 $567 $662 #
vertex $-1 $659 $663 #
straight-curve $-1 36.019921233447306 43.243026069656025 12.25498454849307 0 1 0 I I #
vertex $-1 $460 $664 #
point $-1 47.621506373057557 45.459342502349983 8.4492097288606676 #
coedge $-1 $654 $465 $665 $666 reversed $369 $-1 #
edge $-1 $667 -44.526621608200571 $561 -9.1710736195646803 $559 $668 forward 7 unknown #
coedge $-1 $470 $467 $466 $569 forward $374 $-1 #
edge $-1 $469 -49.218512593976079 $669 49.218512593976079 $466 $670 forward 7 unknown #
straight-curve $-1 0 -49.218512593976079 -12.254984548493077 -1 0 0 I I #
point $-1 -71.375469222083197 -49.218512593976079 -12.254984548493077 #
edge $-1 $669 -71.375469222083197 $471 71.375469222083197 $481 $671 forward 7 unknown #
point $-1 71.375469222083197 49.218512593976079 -12.254984548493077 #
coedge $-1 $482 $481 $474 $575 reversed $483 $-1 #
edge $-1 $576 -12.254984548493077 $669 12.254984548493077 $574 $672 forward 7 unknown #
vertex $-1 $485 $673 #
straight-curve $-1 -71.375469222083197 0 12.254984548493077 0 -1 0 I I #
plane-surface $-1 0 49.218512593976079 0 0 -1 0 0 0 -1 forward_v I I I I #
straight-curve $-1 0 49.218512593976079 12.254984548493077 -1 0 0 I I #
straight-curve $-1 71.375469222083197 -36.612510460774523 4.9395466887508164 0 0 -1 I I #
coedge $-1 $592 $601 $491 $582 forward $427 $-1 #
edge $-1 $587 -27.760756830288429 $583 -15.154754697086872 $581 $674 forward 7 unknown #
vertex $-1 $582 $675 #
straight-curve $-1 0 -36.612510460774523 8.0032022065101867 1 0 0 I I #
coedge $-1 $676 $493 $601 $677 forward $487 $-1 #
coedge $-1 $493 $676 $495 $589 reversed $487 $-1 #
vertex $-1 $677 $678 #
straight-curve $-1 0 -49.218512593976079 8.0032022065101867 -1 0 0 I I #
edge $-1 $497 -8.0032022065101867 $605 12.254984548493077 $495 $597 forward 7 unknown #
point $-1 71.375469222083197 -36.612510460774523 8.0032022065101867 #
point $-1 71.375469222083197 -49.218512593976079 8.0032022065101867 #
coedge $-1 $499 $581 $506 $595 forward $427 $-1 #
straight-curve $-1 -71.375469222083197 -21.457755763687651 11.754984548493079 0 -1 0 I I #
point $-1 -71.375469222083197 -49.218512593976079 11.754984548493079 #
edge $-1 $583 3.0636555177593703 $507 6.8154378597422625 $592 $679 forward 7 unknown #
point $-1 -71.375469222083197 -36.612510460774523 11.754984548493079 #
straight-curve $-1 71.375469222083197 -49.218512593976079 0 0 0 -1 I I #
coedge $-1 $512 $604 $516 $602 forward $432 $-1 #
straight-curve $-1 0 49.218512593976079 -12.254984548493077 1 0 0 I I #
point $-1 71.375469222083197 49.218512593976079 -12.254984548493077 #
coedge $-1 $581 $516 $585 $677 reversed $427 $-1 #
edge $-1 $680 -49.218512593976079 $517 49.218512593976079 $516 $681 forward 7 unknown #
point $-1 -71.375469222083197 49.218512593976079 -12.254984548493077 #
coedge $-1 $598 $519 $676 $682 forward $432 $-1 #
vertex $-1 $589 $683 #
straight-curve $-1 71.375469222083197 0 -12.254984548493077 0 -1 0 I I #
straight-curve $-1 -71.375469222083197 -49.218512593976079 0 0 0 -1 I I #
plane-surface $-1 -71.375469222083197 0 0 1 0 0 0 0 -1 forward_v I I I I #
face $-1 $449 $684 $18 $-1 $685 reversed single #
loop $-1 $-1 $537 $526 #
plane-surface $-1 71.375469222083197 0 0 -1 0 0 0 0 1 forward_v I I I I #
coedge $-1 $620 $686 $622 $687 reversed $527 $-1 #
coedge $-1 $688 $529 $686 $689 reversed $435 $-1 #
coedge $-1 $529 $688 $690 $691 reversed $435 $-1 #
coedge $-1 $692 $622 $529 $616 forward $610 $-1 #
edge $-1 $693 15.154754697086872 $694 27.760756830288429 $615 $695 forward 7 unknown #
coedge $-1 $531 $530 $696 $697 reversed $345 $-1 #
coedge $-1 $698 $699 $530 $619 forward $700 $-1 #
edge $-1 $701 -71.375469222083197 $624 71.375469222083197 $618 $702 forward 7 unknown #
coedge $-1 $703 $612 $531 $621 forward $527 $-1 #
edge $-1 $625 -71.375469222083197 $704 71.375469222083197 $620 $705 forward 7 unknown #
coedge $-1 $615 $532 $612 $687 forward $610 $-1 #
coedge $-1 $532 $547 $698 $706 forward $610 $-1 #
vertex $-1 $619 $707 #
vertex $-1 $533 $708 #
straight-curve $-1 71.375469222083197 -21.457755763687651 11.754984548493079 0 1 0 I I #
coedge $-1 $536 $534 $709 $710 reversed $247 $-1 #
coedge $-1 $537 $711 $534 $629 reversed $610 $-1 #
edge $-1 $630 -7.6498306683977342 $712 12.254984548493077 $628 $713 forward 7 unknown #
vertex $-1 $629 $714 #
straight-curve $-1 26.848847613882626 49.218512593976072 7.6498306683977404 1 0 0 I I #
coedge $-1 $715 $543 $536 $633 forward $639 $-1 #
edge $-1 $545 -12.254984548493077 $716 12.254984548493077 $536 $717 forward 7 unknown #
straight-curve $-1 71.375469222083197 6.113066788858621 53.87476310453399 0 -0.68199835119979291 0.73135370988377701 I I #
point $-1 71.375469222083197 44.924137231136328 12.254984548493077 #
coedge $-1 $699 $698 $542 $637 reversed $700 $-1 #
edge $-1 $640 -71.375469222083197 $643 71.375469222083197 $636 $718 forward 7 unknown #
coedge $-1 $543 $696 $699 $719 reversed $639 $-1 #
loop $-1 $-1 $696 $720 #
vertex $-1 $544 $721 #
straight-curve $-1 -71.375469222083197 0 12.254984548493077 0 -1 0 I I #
point $-1 -71.375469222083197 49.218512593976079 12.254984548493077 #
vertex $-1 $548 $722 #
straight-curve $-1 71.375469222083197 0 12.254984548493077 0 1 0 I I #
face $-1 $720 $700 $18 $-1 $685 reversed single #
loop $-1 $-1 $723 $549 #
plane-surface $-1 0 0 -12.254984548493077 0 0 1 1 0 0 forward_v I I I I #
face $-1 $724 $725 $19 $-1 $726 forward single #
loop $-1 $-1 $727 $551 #
plane-surface $-1 0 -42.915511527375301 8.0032022065101867 0 0 1 1 0 0 forward_v I I I I #
coedge $-1 $728 $729 $730 $731 reversed $552 $-1 #
coedge $-1 $732 $554 $654 $733 forward $454 $-1 #
coedge $-1 $554 $734 $558 $659 reversed $454 $-1 #
coedge $-1 $555 $566 $652 $733 reversed $369 $-1 #
vertex $-1 $733 $735 #
straight-curve $-1 36.019921233447306 -17.915376281219736 79.642114229529312 0 0.68199835119979291 -0.73135370988377701 I I #
straight-curve $-1 36.019921233447306 49.218512593976079 88.499009440336962 0 0 -1 I I #
coedge $-1 $736 $558 $737 $738 forward $560 $-1 #
edge $-1 $562 -36.019921233447306 $739 71.375469222083197 $653 $740 forward 7 unknown #
coedge $-1 $559 $736 $741 $742 forward $560 $-1 #
face $-1 $743 $560 $19 $-1 $744 forward single #
point $-1 36.019921233447306 44.924137231136328 12.25498454849307 #
point $-1 36.019921233447306 49.218512593976079 12.254984548493077 #
point $-1 46.121506373057557 44.362311937524325 7.4262122020609791 #
coedge $-1 $741 $745 $566 $666 forward $746 $-1 #
edge $-1 $747 -63.204618793117319 $667 -56.907865501434202 $665 $748 forward 7 unknown #
vertex $-1 $666 $749 #
straight-curve $-1 26.848847613882626 44.924137231136328 12.25498454849307 -1 0 0 I I #
vertex $-1 $572 $750 #
straight-curve $-1 -71.375469222083197 0 -12.254984548493077 0 1 0 I I #
straight-curve $-1 0 49.218512593976079 -12.254984548493077 1 0 0 I I #
straight-curve $-1 -71.375469222083197 49.218512593976079 0 0 0 -1 I I #
point $-1 -71.375469222083197 49.218512593976079 12.254984548493077 #
straight-curve $-1 -71.375469222083197 -21.457755763687651 8.0032022065101867 0 1 0 I I #
point $-1 -71.375469222083197 -36.612510460774523 8.0032022065101867 #
coedge $-1 $586 $585 $604 $682 reversed $487 $-1 #
edge $-1 $587 -8.0032022065101867 $680 12.254984548493077 $601 $607 forward 7 unknown #
point $-1 -71.375469222083197 -49.218512593976079 8.0032022065101867 #
straight-curve $-1 -71.375469222083197 -36.612510460774523 4.9395466887508164 0 0 1 I I #
vertex $-1 $602 $751 #
straight-curve $-1 -71.375469222083197 0 -12.254984548493077 0 1 0 I I #
edge $-1 $605 -71.375469222083197 $680 71.375469222083197 $676 $752 forward 7 unknown #
point $-1 71.375469222083197 -49.218512593976079 -12.254984548493077 #
loop $-1 $-1 $690 $609 #
plane-surface $-1 0 -49.218512593976079 0 0 1 0 0 0 1 forward_v I I I I #
coedge $-1 $612 $703 $613 $689 forward $527 $-1 #
edge $-1 $625 -6.8154378597422625 $693 -3.0636555177593703 $622 $753 forward 7 unknown #
coedge $-1 $614 $613 $754 $755 reversed $435 $-1 #
edge $-1 $756 -71.375469222083197 $693 71.375469222083197 $686 $757 forward 7 unknown #
coedge $-1 $758 $759 $614 $691 forward $684 $-1 #
edge $-1 $694 -71.375469222083197 $760 71.375469222083197 $690 $761 forward 7 unknown #
coedge $-1 $711 $615 $759 $762 forward $610 $-1 #
vertex $-1 $616 $763 #
vertex $-1 $762 $764 #
straight-curve $-1 71.375469222083197 -21.457755763687651 8.0032022065101867 0 -1 0 I I #
coedge $-1 $638 $765 $617 $697 forward $639 $-1 #
edge $-1 $704 15.154754697086872 $701 27.760756830288429 $696 $766 forward 7 unknown #
coedge $-1 $636 $618 $623 $706 reversed $700 $-1 #
coedge $-1 $618 $636 $638 $719 forward $700 $-1 #
loop $-1 $-1 $618 $645 #
vertex $-1 $697 $767 #
straight-curve $-1 0 -49.218512593976079 11.754984548493079 1 0 0 I I #
coedge $-1 $686 $620 $765 $768 reversed $527 $-1 #
vertex $-1 $697 $769 #
straight-curve $-1 0 -36.612510460774523 11.754984548493079 -1 0 0 I I #
edge $-1 $643 -12.254984548493077 $624 -11.754984548493079 $623 $770 forward 7 unknown #
point $-1 71.375469222083197 -49.218512593976079 11.754984548493079 #
point $-1 71.375469222083197 -36.612510460774523 11.754984548493079 #
coedge $-1 $723 $771 $627 $710 forward $646 $-1 #
edge $-1 $716 -71.375469222083197 $712 71.375469222083197 $627 $772 forward 7 unknown #
coedge $-1 $628 $692 $723 $773 reversed $610 $-1 #
vertex $-1 $773 $774 #
straight-curve $-1 71.375469222083197 49.218512593976079 0 0 0 -1 I I #
point $-1 71.375469222083197 49.218512593976079 7.6498306683977342 #
coedge $-1 $775 $632 $771 $776 reversed $639 $-1 #
vertex $-1 $710 $777 #
straight-curve $-1 -71.375469222083197 49.218512593976079 0 0 0 -1 I I #
straight-curve $-1 0 -49.218512593976079 12.254984548493077 1 0 0 I I #
edge $-1 $640 -12.254984548493077 $701 -11.754984548493079 $638 $778 forward 7 unknown #
face $-1 $-1 $639 $18 $-1 $779 reversed single #
point $-1 -71.375469222083197 -49.218512593976079 12.254984548493077 #
point $-1 71.375469222083197 -49.218512593976079 12.254984548493077 #
coedge $-1 $780 $709 $711 $773 forward $646 $-1 #
face $-1 $781 $746 $19 $-1 $782 reversed single #
loop $-1 $-1 $783 $648 #
plane-surface $-1 0 -36.612510460774523 9.8790933775016327 0 -1 0 0 0 -1 forward_v I I I I #
coedge $-1 $784 $785 $786 $787 reversed $649 $-1 #
coedge $-1 $788 $651 $789 $790 reversed $552 $-1 #
coedge $-1 $651 $788 $791 $792 reversed $552 $-1 #
coedge $-1 $793 $794 $651 $731 forward $746 $-1 #
edge $-1 $795 -27.760756830288429 $796 -15.154754697086872 $730 $797 forward 7 unknown #
coedge $-1 $798 $652 $745 $799 forward $454 $-1 #
edge $-1 $655 9.1710736195646803 $747 44.526621608200571 $652 $800 forward 7 unknown #
coedge $-1 $653 $798 $801 $802 reversed $454 $-1 #
point $-1 36.019921233447306 49.218512593976087 7.6498306683977404 #
coedge $-1 $660 $658 $803 $804 forward $560 $-1 #
coedge $-1 $801 $805 $658 $738 reversed $806 $-1 #
edge $-1 $739 -49.218512593976079 $807 49.218512593976079 $737 $808 forward 7 unknown #
vertex $-1 $659 $809 #
straight-curve $-1 0 49.218512593976079 12.254984548493077 -1 0 0 I I #
coedge $-1 $794 $665 $660 $742 reversed $746 $-1 #
edge $-1 $810 -49.218512593976079 $667 44.924137231136328 $741 $811 forward 7 unknown #
face $-1 $812 $813 $19 $-1 $814 reversed single #
plane-surface $-1 0 0 12.254984548493077 0 0 1 1 0 0 forward_v I I I I #
coedge $-1 $665 $815 $732 $799 reversed $746 $-1 #
loop $-1 $-1 $665 $724 #
vertex $-1 $799 $816 #
straight-curve $-1 71.375469222083197 6.113066788858621 53.87476310453399 0 -0.68199835119979291 0.73135370988377701 I I #
point $-1 71.375469222083197 44.924137231136328 12.254984548493077 #
point $-1 -71.375469222083197 49.218512593976079 -12.254984548493077 #
point $-1 -71.375469222083197 -49.218512593976079 -12.254984548493077 #
straight-curve $-1 0 -49.218512593976079 -12.254984548493077 -1 0 0 I I #
straight-curve $-1 71.375469222083197 -36.612510460774523 4.9395466887508164 0 0 -1 I I #
coedge $-1 $765 $775 $688 $755 forward $639 $-1 #
edge $-1 $760 -27.760756830288429 $756 -15.154754697086872 $754 $817 forward 7 unknown #
vertex $-1 $755 $818 #
straight-curve $-1 0 -36.612510460774523 8.0032022065101867 1 0 0 I I #
coedge $-1 $819 $690 $775 $820 forward $684 $-1 #
coedge $-1 $690 $819 $692 $762 reversed $684 $-1 #
vertex $-1 $820 $821 #
straight-curve $-1 0 -49.218512593976079 8.0032022065101867 -1 0 0 I I #
edge $-1 $694 -8.0032022065101867 $822 12.254984548493077 $692 $770 forward 7 unknown #
point $-1 71.375469222083197 -36.612510460774523 8.0032022065101867 #
point $-1 71.375469222083197 -49.218512593976079 8.0032022065101867 #
coedge $-1 $696 $754 $703 $768 forward $639 $-1 #
straight-curve $-1 -71.375469222083197 -21.457755763687651 11.754984548493079 0 -1 0 I I #
point $-1 -71.375469222083197 -49.218512593976079 11.754984548493079 #
edge $-1 $756 3.0636555177593703 $704 6.8154378597422625 $765 $823 forward 7 unknown #
point $-1 -71.375469222083197 -36.612510460774523 11.754984548493079 #
straight-curve $-1 71.375469222083197 -49.218512593976079 0 0 0 -1 I I #
coedge $-1 $709 $780 $715 $776 forward $646 $-1 #
straight-curve $-1 0 49.218512593976079 -12.254984548493077 1 0 0 I I #
edge $-1 $712 -49.218512593976079 $822 49.218512593976079 $711 $824 forward 7 unknown #
point $-1 71.375469222083197 49.218512593976079 -12.254984548493077 #
coedge $-1 $754 $715 $758 $820 reversed $639 $-1 #
edge $-1 $825 -49.218512593976079 $716 49.218512593976079 $715 $826 forward 7 unknown #
point $-1 -71.375469222083197 49.218512593976079 -12.254984548493077 #
straight-curve $-1 -71.375469222083197 -49.218512593976079 0 0 0 -1 I I #
plane-surface $-1 -71.375469222083197 0 0 1 0 0 0 0 -1 forward_v I I I I #
coedge $-1 $771 $723 $819 $827 forward $646 $-1 #
face $-1 $661 $828 $19 $-1 $829 reversed single #
plane-surface $-1 71.375469222083197 0 0 -1 0 0 0 0 1 forward_v I I I I #
coedge $-1 $791 $830 $793 $831 reversed $725 $-1 #
coedge $-1 $832 $727 $830 $833 reversed $649 $-1 #
coedge $-1 $727 $832 $834 $835 reversed $649 $-1 #
coedge $-1 $836 $793 $727 $787 forward $746 $-1 #
edge $-1 $837 15.154754697086872 $838 27.760756830288429 $786 $839 forward 7 unknown #
coedge $-1 $729 $728 $840 $841 reversed $552 $-1 #
coedge $-1 $842 $843 $728 $790 forward $844 $-1 #
edge $-1 $845 -71.375469222083197 $795 71.375469222083197 $789 $846 forward 7 unknown #
coedge $-1 $847 $783 $729 $792 forward $725 $-1 #
edge $-1 $796 -71.375469222083197 $848 71.375469222083197 $791 $849 forward 7 unknown #
coedge $-1 $786 $730 $783 $831 forward $746 $-1 #
coedge $-1 $730 $741 $842 $850 forward $746 $-1 #
vertex $-1 $790 $851 #
vertex $-1 $731 $852 #
straight-curve $-1 71.375469222083197 -21.457755763687651 11.754984548493079 0 1 0 I I #
coedge $-1 $734 $732 $853 $854 reversed $454 $-1 #
edge $-1 $747 -7.6498306683977342 $855 12.254984548493077 $745 $856 forward 7 unknown #
straight-curve $-1 26.848847613882626 49.218512593976072 7.6498306683977404 1 0 0 I I #
coedge $-1 $857 $737 $734 $802 forward $806 $-1 #
edge $-1 $739 -12.254984548493077 $858 12.254984548493077 $734 $859 forward 7 unknown #
coedge $-1 $843 $842 $736 $804 reversed $844 $-1 #
edge $-1 $807 -71.375469222083197 $810 71.375469222083197 $803 $860 forward 7 unknown #
coedge $-1 $737 $840 $843 $861 reversed $806 $-1 #
loop $-1 $-1 $840 $862 #
vertex $-1 $738 $863 #
straight-curve $-1 -71.375469222083197 0 12.254984548493077 0 -1 0 I I #
point $-1 -71.375469222083197 49.218512593976079 12.254984548493077 #
vertex $-1 $742 $864 #
straight-curve $-1 71.375469222083197 0 12.254984548493077 0 1 0 I I #
face $-1 $862 $844 $19 $-1 $829 reversed single #
loop $-1 $-1 $865 $743 #
plane-surface $-1 0 0 -12.254984548493077 0 0 1 1 0 0 forward_v I I I I #
coedge $-1 $745 $836 $865 $866 reversed $746 $-1 #
point $-1 71.375469222083197 49.218512593976079 7.6498306683977342 #
straight-curve $-1 -71.375469222083197 -21.457755763687651 8.0032022065101867 0 1 0 I I #
point $-1 -71.375469222083197 -36.612510460774523 8.0032022065101867 #
coedge $-1 $759 $758 $780 $827 reversed $684 $-1 #
edge $-1 $760 -8.0032022065101867 $825 12.254984548493077 $775 $778 forward 7 unknown #
point $-1 -71.375469222083197 -49.218512593976079 8.0032022065101867 #
vertex $-1 $762 $867 #
straight-curve $-1 -71.375469222083197 -36.612510460774523 4.9395466887508164 0 0 1 I I #
straight-curve $-1 71.375469222083197 0 -12.254984548493077 0 -1 0 I I #
vertex $-1 $776 $868 #
straight-curve $-1 -71.375469222083197 0 -12.254984548493077 0 1 0 I I #
edge $-1 $822 -71.375469222083197 $825 71.375469222083197 $819 $869 forward 7 unknown #
loop $-1 $-1 $834 $781 #
plane-surface $-1 0 -49.218512593976079 0 0 1 0 0 0 1 forward_v I I I I #
coedge $-1 $783 $847 $784 $833 forward $725 $-1 #
edge $-1 $796 -6.8154378597422625 $837 -3.0636555177593703 $793 $870 forward 7 unknown #
coedge $-1 $785 $784 $871 $872 reversed $649 $-1 #
edge $-1 $873 -71.375469222083197 $837 71.375469222083197 $830 $874 forward 7 unknown #
coedge $-1 $875 $876 $785 $835 forward $828 $-1 #
edge $-1 $838 -71.375469222083197 $877 71.375469222083197 $834 $878 forward 7 unknown #
coedge $-1 $815 $786 $876 $879 forward $746 $-1 #
vertex $-1 $787 $880 #
vertex $-1 $879 $881 #
straight-curve $-1 71.375469222083197 -21.457755763687651 8.0032022065101867 0 -1 0 I I #
coedge $-1 $805 $882 $788 $841 forward $806 $-1 #
edge $-1 $848 15.154754697086872 $845 27.760756830288429 $840 $883 forward 7 unknown #
coedge $-1 $803 $789 $794 $850 reversed $844 $-1 #
coedge $-1 $789 $803 $805 $861 forward $844 $-1 #
loop $-1 $-1 $789 $812 #
vertex $-1 $841 $884 #
straight-curve $-1 0 -49.218512593976079 11.754984548493079 1 0 0 I I #
coedge $-1 $830 $791 $882 $885 reversed $725 $-1 #
vertex $-1 $841 $886 #
straight-curve $-1 0 -36.612510460774523 11.754984548493079 -1 0 0 I I #
edge $-1 $810 -12.254984548493077 $795 -11.754984548493079 $794 $887 forward 7 unknown #
point $-1 71.375469222083197 -49.218512593976079 11.754984548493079 #
point $-1 71.375469222083197 -36.612510460774523 11.754984548493079 #
coedge $-1 $865 $888 $798 $854 forward $813 $-1 #
edge $-1 $858 -71.375469222083197 $855 71.375469222083197 $798 $889 forward 7 unknown #
vertex $-1 $866 $890 #
straight-curve $-1 71.375469222083197 49.218512593976079 0 0 0 -1 I I #
coedge $-1 $891 $801 $888 $892 reversed $806 $-1 #
vertex $-1 $854 $893 #
straight-curve $-1 -71.375469222083197 49.218512593976079 0 0 0 -1 I I #
straight-curve $-1 0 -49.218512593976079 12.254984548493077 1 0 0 I I #
edge $-1 $807 -12.254984548493077 $845 -11.754984548493079 $805 $894 forward 7 unknown #
face $-1 $-1 $806 $19 $-1 $895 reversed single #
point $-1 -71.375469222083197 -49.218512593976079 12.254984548493077 #
point $-1 71.375469222083197 -49.218512593976079 12.254984548493077 #
coedge $-1 $896 $853 $815 $866 forward $813 $-1 #
edge $-1 $855 -49.218512593976079 $897 49.218512593976079 $815 $898 forward 7 unknown #
point $-1 71.375469222083197 -49.218512593976079 -12.254984548493077 #
point $-1 -71.375469222083197 -49.218512593976079 -12.254984548493077 #
straight-curve $-1 0 -49.218512593976079 -12.254984548493077 -1 0 0 I I #
straight-curve $-1 71.375469222083197 -36.612510460774523 4.9395466887508164 0 0 -1 I I #
coedge $-1 $882 $891 $832 $872 forward $806 $-1 #
edge $-1 $877 -27.760756830288429 $873 -15.154754697086872 $871 $899 forward 7 unknown #
vertex $-1 $872 $900 #
straight-curve $-1 0 -36.612510460774523 8.0032022065101867 1 0 0 I I #
coedge $-1 $901 $834 $891 $902 forward $828 $-1 #
coedge $-1 $834 $901 $836 $879 reversed $828 $-1 #
vertex $-1 $902 $903 #
straight-curve $-1 0 -49.218512593976079 8.0032022065101867 -1 0 0 I I #
edge $-1 $838 -8.0032022065101867 $897 12.254984548493077 $836 $887 forward 7 unknown #
point $-1 71.375469222083197 -36.612510460774523 8.0032022065101867 #
point $-1 71.375469222083197 -49.218512593976079 8.0032022065101867 #
coedge $-1 $840 $871 $847 $885 forward $806 $-1 #
straight-curve $-1 -71.375469222083197 -21.457755763687651 11.754984548493079 0 -1 0 I I #
point $-1 -71.375469222083197 -49.218512593976079 11.754984548493079 #
edge $-1 $873 3.0636555177593703 $848 6.8154378597422625 $882 $904 forward 7 unknown #
point $-1 -71.375469222083197 -36.612510460774523 11.754984548493079 #
straight-curve $-1 71.375469222083197 -49.218512593976079 0 0 0 -1 I I #
coedge $-1 $853 $896 $857 $892 forward $813 $-1 #
straight-curve $-1 0 49.218512593976079 -12.254984548493077 1 0 0 I I #
point $-1 71.375469222083197 49.218512593976079 -12.254984548493077 #
coedge $-1 $871 $857 $875 $902 reversed $806 $-1 #
edge $-1 $905 -49.218512593976079 $858 49.218512593976079 $857 $906 forward 7 unknown #
point $-1 -71.375469222083197 49.218512593976079 -12.254984548493077 #
straight-curve $-1 -71.375469222083197 -49.218512593976079 0 0 0 -1 I I #
plane-surface $-1 -71.375469222083197 0 0 1 0 0 0 0 -1 forward_v I I I I #
coedge $-1 $888 $865 $901 $907 forward $813 $-1 #
vertex $-1 $879 $908 #
straight-curve $-1 71.375469222083197 0 -12.254984548493077 0 -1 0 I I #
straight-curve $-1 -71.375469222083197 -21.457755763687651 8.0032022065101867 0 1 0 I I #
point $-1 -71.375469222083197 -36.612510460774523 8.0032022065101867 #
coedge $-1 $876 $875 $896 $907 reversed $828 $-1 #
edge $-1 $877 -8.0032022065101867 $905 12.254984548493077 $891 $894 forward 7 unknown #
point $-1 -71.375469222083197 -49.218512593976079 8.0032022065101867 #
straight-curve $-1 -71.375469222083197 -36.612510460774523 4.9395466887508164 0 0 1 I I #
vertex $-1 $892 $909 #
straight-curve $-1 -71.375469222083197 0 -12.254984548493077 0 1 0 I I #
edge $-1 $897 -71.375469222083197 $905 71.375469222083197 $901 $910 forward 7 unknown #
point $-1 71.375469222083197 -49.218512593976079 -12.254984548493077 #
point $-1 -71.375469222083197 -49.218512593976079 -12.254984548493077 #
straight-curve $-1 0 -49.218512593976079 -12.254984548493077 -1 0 0 I I #
End-of-ACIS-data 