500 0 14 0           
7 Unknown 11 ACIS 5.0 NT 24 Fri Mar 26 15:20:20 1999 
-1 9.9999999999999995e-007 1e-010 
body $-1 $14 $-1 $15 #
body $-1 $16 $-1 $17 #
body $-1 $18 $-1 $19 #
body $-1 $20 $-1 $21 #
body $-1 $22 $-1 $23 #
body $-1 $24 $-1 $25 #
body $-1 $26 $-1 $27 #
body $-1 $28 $-1 $29 #
body $-1 $30 $-1 $31 #
body $-1 $32 $-1 $33 #
body $-1 $34 $-1 $35 #
body $-1 $36 $-1 $37 #
body $-1 $38 $-1 $39 #
body $-1 $40 $-1 $41 #
lump $-1 $-1 $42 $0 #
transform $-1 1 0 0 0 1 0 0 0 1 71.368144779808958 43.865261556502531 8.8144182154753157 1 rotate no_reflect no_shear #
lump $-1 $-1 $43 $1 #
transform $-1 1 0 0 0 1 0 0 0 1 71.368144779808958 43.865261556502531 8.8144182154753157 1 rotate no_reflect no_shear #
lump $-1 $-1 $44 $2 #
transform $-1 1 0 0 0 1 0 0 0 1 71.368144779808958 43.865261556502531 8.8144182154753157 1 rotate no_reflect no_shear #
lump $-1 $-1 $45 $3 #
transform $-1 1 0 0 0 1 0 0 0 1 71.368144779808958 43.865261556502531 8.8144182154753157 1 rotate no_reflect no_shear #
lump $-1 $-1 $46 $4 #
transform $-1 1 0 0 0 1 0 0 0 1 71.368144779808958 43.865261556502531 8.8144182154753157 1 rotate no_reflect no_shear #
lump $-1 $-1 $47 $5 #
transform $-1 1 0 0 0 1 0 0 0 1 71.368144779808958 43.865261556502531 8.8144182154753157 1 rotate no_reflect no_shear #
lump $-1 $-1 $48 $6 #
transform $-1 1 0 0 0 1 0 0 0 1 71.368144779808958 43.865261556502531 8.8144182154753157 1 rotate no_reflect no_shear #
lump $-1 $-1 $49 $7 #
transform $-1 1 0 0 0 1 0 0 0 1 71.368144779808958 43.865261556502531 8.8144182154753157 1 rotate no_reflect no_shear #
lump $-1 $-1 $50 $8 #
transform $-1 1 0 0 0 1 0 0 0 1 71.368144779808958 43.865261556502531 8.8144182154753157 1 rotate no_reflect no_shear #
lump $-1 $-1 $51 $9 #
transform $-1 1 0 0 0 1 0 0 0 1 71.368144779808958 43.865261556502531 8.8144182154753157 1 rotate no_reflect no_shear #
lump $-1 $-1 $52 $10 #
transform $-1 1 0 0 0 1 0 0 0 1 71.368144779808958 43.865261556502531 8.8144182154753157 1 rotate no_reflect no_shear #
lump $-1 $-1 $53 $11 #
transform $-1 1 0 0 0 1 0 0 0 1 71.368144779808958 43.865261556502531 8.8144182154753157 1 rotate no_reflect no_shear #
lump $-1 $-1 $54 $12 #
transform $-1 1 0 0 0 1 0 0 0 1 71.368144779808958 43.865261556502531 8.8144182154753157 1 rotate no_reflect no_shear #
lump $-1 $-1 $55 $13 #
transform $-1 1 0 0 0 1 0 0 0 1 71.368144779808958 43.865261556502531 8.8144182154753157 1 rotate no_reflect no_shear #
shell $-1 $-1 $-1 $56 $-1 $14 #
shell $-1 $-1 $-1 $57 $-1 $16 #
shell $-1 $-1 $-1 $58 $-1 $18 #
shell $-1 $-1 $-1 $59 $-1 $20 #
shell $-1 $-1 $-1 $60 $-1 $22 #
shell $-1 $-1 $-1 $61 $-1 $24 #
shell $-1 $-1 $-1 $62 $-1 $26 #
shell $-1 $-1 $-1 $63 $-1 $28 #
shell $-1 $-1 $-1 $64 $-1 $30 #
shell $-1 $-1 $-1 $65 $-1 $32 #
shell $-1 $-1 $-1 $66 $-1 $34 #
shell $-1 $-1 $-1 $67 $-1 $36 #
shell $-1 $-1 $-1 $68 $-1 $38 #
shell $-1 $-1 $-1 $69 $-1 $40 #
face $-1 $70 $71 $42 $-1 $72 forward single #
face $-1 $73 $74 $43 $-1 $75 reversed single #
face $-1 $76 $77 $44 $-1 $78 reversed single #
face $-1 $79 $80 $45 $-1 $81 forward single #
face $-1 $82 $83 $46 $-1 $84 forward single #
face $-1 $85 $86 $47 $-1 $87 forward single #
face $-1 $88 $89 $48 $-1 $90 reversed single #
face $-1 $91 $92 $49 $-1 $93 forward single #
face $-1 $94 $95 $50 $-1 $96 forward single #
face $-1 $97 $98 $51 $-1 $99 forward single #
face $-1 $100 $101 $52 $-1 $102 reversed single #
face $-1 $103 $104 $53 $-1 $105 forward single #
face $-1 $106 $107 $54 $-1 $108 forward single #
face $-1 $109 $110 $55 $-1 $111 forward single #
face $-1 $112 $113 $42 $-1 $114 reversed single #
loop $-1 $-1 $115 $56 #
plane-surface $-1 0 0 8.8144182154753157 0 0 1 1 0 0 forward_v I I I I #
face $-1 $116 $117 $43 $-1 $118 reversed single #
loop $-1 $-1 $119 $57 #
plane-surface $-1 0 -40.557566855985165 5.8144182154753157 0 0 1 1 0 0 forward_v I I I I #
face $-1 $120 $121 $44 $-1 $122 reversed single #
loop $-1 $-1 $123 $58 #
plane-surface $-1 -166.87736591092721 -14.835587458008035 107.64893432903565 0 1 0 -0.66913061440640931 0 0.74314481823134659 forward_v I I I I #
face $-1 $124 $125 $45 $-1 $126 forward single #
loop $-1 $127 $128 $59 #
cone-surface $-1 -66.319613779371636 -11.206931026302954 4.0524909039692272 0.66913061440640931 0 -0.74314481823134659 0.74314481823134659 0 0.66913061440640931 1 I I 0 1 1 forward I I I I #
face $-1 $129 $130 $46 $-1 $131 forward single #
loop $-1 $132 $133 $60 #
cone-surface $-1 -66.319613779371636 -5.7639463787453309 4.0524909039692272 0.66913061440640931 0 -0.74314481823134659 0.74314481823134659 0 0.66913061440640931 1 I I 0 1 1 forward I I I I #
face $-1 $134 $135 $47 $-1 $136 forward single #
loop $-1 $137 $138 $61 #
cone-surface $-1 -66.319613779371636 -0.32096173118770821 4.0524909039692272 0.66913061440640931 0 -0.74314481823134659 0.74314481823134659 0 0.66913061440640931 1 I I 0 1 1 forward I I I I #
face $-1 $139 $140 $48 $-1 $141 reversed single #
loop $-1 $-1 $142 $62 #
plane-surface $-1 -71.368144779808929 -5.763946378745338 1.5752003692365406 -0.66913061440640931 0 0.74314481823134659 0.74314481823134659 0 0.66913061440640931 forward_v I I I I #
face $-1 $143 $144 $49 $-1 $145 forward single #
loop $-1 $146 $147 $63 #
cone-surface $-1 -66.319613779371636 6.9363511322224483 4.0524909039692272 0.66913061440640931 0 -0.74314481823134659 0.74314481823134659 0 0.66913061440640931 1 I I 0 1 1 forward I I I I #
face $-1 $148 $149 $50 $-1 $150 forward single #
loop $-1 $151 $152 $64 #
cone-surface $-1 -66.319613779371636 12.379335779780071 4.0524909039692272 0.66913061440640931 0 -0.74314481823134659 0.74314481823134659 0 0.66913061440640931 1 I I 0 1 1 forward I I I I #
face $-1 $153 $154 $51 $-1 $155 forward single #
loop $-1 $156 $157 $65 #
cone-surface $-1 -66.319613779371636 17.822320427337694 4.0524909039692272 0.66913061440640931 0 -0.74314481823134659 0.74314481823134659 0 0.66913061440640931 1 I I 0 1 1 forward I I I I #
face $-1 $158 $159 $52 $-1 $160 reversed single #
loop $-1 $-1 $161 $66 #
plane-surface $-1 36.315595490347349 -15.204191340258848 203.1181758311655 0 -1 0 -0.57357644374324357 0 -0.81915203911291934 forward_v I I I I #
face $-1 $162 $163 $53 $-1 $164 forward single #
loop $-1 $165 $166 $67 #
cone-surface $-1 67.696627763770834 -32.840735992426012 5.90441767196379 -0.57357644374324357 0 -0.81915203911291934 0.81915203911291934 0 -0.57357644374324357 1 I I 0 1 1 forward I I I I #
face $-1 $167 $168 $54 $-1 $169 forward single #
loop $-1 $170 $171 $68 #
cone-surface $-1 67.696627763770834 -26.227031747863325 5.90441767196379 -0.57357644374324357 0 -0.81915203911291934 0.81915203911291934 0 -0.57357644374324357 1 I I 0 1 1 forward I I I I #
face $-1 $172 $173 $55 $-1 $174 forward single #
loop $-1 $175 $176 $69 #
cone-surface $-1 67.696627763770834 -19.613327503300638 5.90441767196379 -0.57357644374324357 0 -0.81915203911291934 0.81915203911291934 0 -0.57357644374324357 1 I I 0 1 1 forward I I I I #
face $-1 $177 $178 $42 $-1 $179 reversed single #
loop $-1 $-1 $180 $70 #
plane-surface $-1 0 0 -8.8144182154753157 0 0 1 1 0 0 forward_v I I I I #
coedge $-1 $181 $182 $183 $184 forward $71 $-1 #
face $-1 $185 $186 $43 $-1 $187 reversed single #
loop $-1 $-1 $188 $73 #
plane-surface $-1 0 -37.249872155467799 7.3144182154753157 0 -1 0 0 0 -1 forward_v I I I I #
coedge $-1 $189 $190 $191 $192 reversed $74 $-1 #
face $-1 $193 $194 $44 $-1 $195 reversed single #
loop $-1 $-1 $196 $76 #
plane-surface $-1 -71.368144779808929 -5.763946378745338 1.5752003692365406 -0.66913061440640931 0 0.74314481823134659 0.74314481823134659 0 0.66913061440640931 forward_v I I I I #
coedge $-1 $197 $198 $199 $200 reversed $77 $-1 #
face $-1 $-1 $201 $45 $-1 $202 forward single #
loop $-1 $203 $204 $79 #
cone-surface $-1 -64.956500352990147 -11.206931026302954 2.5386001064668431 0.66913061440640931 0 -0.74314481823134659 0.3715724091156733 0 0.33456530720320465 1 I I -0.70710678118654746 0.70710678118654746 0.5 forward I I I I #
loop $-1 $-1 $205 $59 #
coedge $-1 $128 $128 $206 $207 reversed $80 $-1 #
face $-1 $-1 $208 $46 $-1 $209 forward single #
loop $-1 $210 $211 $82 #
cone-surface $-1 -64.956500352990147 -5.7639463787453309 2.5386001064668431 0.66913061440640931 0 -0.74314481823134659 0.3715724091156733 0 0.33456530720320465 1 I I -0.70710678118654746 0.70710678118654746 0.5 forward I I I I #
loop $-1 $-1 $212 $60 #
coedge $-1 $133 $133 $213 $214 reversed $83 $-1 #
face $-1 $-1 $215 $47 $-1 $216 forward single #
loop $-1 $217 $218 $85 #
cone-surface $-1 -64.956500352990147 -0.32096173118770821 2.5386001064668431 0.66913061440640931 0 -0.74314481823134659 0.3715724091156733 0 0.33456530720320465 1 I I -0.70710678118654746 0.70710678118654746 0.5 forward I I I I #
loop $-1 $-1 $219 $61 #
coedge $-1 $138 $138 $220 $221 reversed $86 $-1 #
face $-1 $222 $223 $48 $-1 $224 forward single #
loop $-1 $-1 $225 $88 #
plane-surface $-1 -166.87736591092721 21.450976859042761 107.64893432903565 0 -1 0 0.66913061440640931 0 -0.74314481823134659 forward_v I I I I #
coedge $-1 $226 $227 $228 $229 reversed $89 $-1 #
face $-1 $-1 $230 $49 $-1 $231 forward single #
loop $-1 $232 $233 $91 #
cone-surface $-1 -64.956500352990147 6.9363511322224483 2.5386001064668431 0.66913061440640931 0 -0.74314481823134659 0.3715724091156733 0 0.33456530720320465 1 I I -0.70710678118654746 0.70710678118654746 0.5 forward I I I I #
loop $-1 $-1 $234 $63 #
coedge $-1 $147 $147 $235 $236 reversed $92 $-1 #
face $-1 $-1 $237 $50 $-1 $238 forward single #
loop $-1 $239 $240 $94 #
cone-surface $-1 -64.956500352990147 12.379335779780071 2.5386001064668431 0.66913061440640931 0 -0.74314481823134659 0.3715724091156733 0 0.33456530720320465 1 I I -0.70710678118654746 0.70710678118654746 0.5 forward I I I I #
loop $-1 $-1 $241 $64 #
coedge $-1 $152 $152 $242 $243 reversed $95 $-1 #
face $-1 $-1 $244 $51 $-1 $245 forward single #
loop $-1 $246 $247 $97 #
cone-surface $-1 -64.956500352990147 17.822320427337694 2.5386001064668431 0.66913061440640931 0 -0.74314481823134659 0.3715724091156733 0 0.33456530720320465 1 I I -0.70710678118654746 0.70710678118654746 0.5 forward I I I I #
loop $-1 $-1 $248 $65 #
coedge $-1 $157 $157 $249 $250 reversed $98 $-1 #
face $-1 $251 $252 $52 $-1 $253 forward single #
loop $-1 $-1 $254 $100 #
plane-surface $-1 -45.554577868364163 -26.227031747863325 86.195453182992381 0.57357644374324357 0 0.81915203911291934 0.81915203911291934 0 -0.57357644374324357 forward_v I I I I #
coedge $-1 $255 $256 $257 $258 reversed $101 $-1 #
face $-1 $-1 $259 $53 $-1 $260 forward single #
loop $-1 $261 $262 $103 #
cone-surface $-1 66.94389948697939 -32.840735992426012 4.8294103044930363 -0.57357644374324357 0 -0.81915203911291934 0.40957601955645967 0 -0.28678822187162178 1 I I -0.70710678118654746 0.70710678118654746 0.5 forward I I I I #
loop $-1 $-1 $263 $67 #
coedge $-1 $166 $166 $264 $265 reversed $104 $-1 #
face $-1 $-1 $266 $54 $-1 $267 forward single #
loop $-1 $268 $269 $106 #
cone-surface $-1 66.94389948697939 -26.227031747863325 4.8294103044930363 -0.57357644374324357 0 -0.81915203911291934 0.40957601955645967 0 -0.28678822187162178 1 I I -0.70710678118654746 0.70710678118654746 0.5 forward I I I I #
loop $-1 $-1 $270 $68 #
coedge $-1 $171 $171 $271 $272 reversed $107 $-1 #
face $-1 $-1 $273 $55 $-1 $274 forward single #
loop $-1 $275 $276 $109 #
cone-surface $-1 66.94389948697939 -19.613327503300638 4.8294103044930363 -0.57357644374324357 0 -0.81915203911291934 0.40957601955645967 0 -0.28678822187162178 1 I I -0.70710678118654746 0.70710678118654746 0.5 forward I I I I #
loop $-1 $-1 $277 $69 #
coedge $-1 $176 $176 $278 $279 reversed $110 $-1 #
face $-1 $280 $281 $42 $-1 $282 reversed single #
loop $-1 $-1 $283 $112 #
plane-surface $-1 0 -43.865261556502531 0 0 1 0 0 0 1 forward_v I I I I #
coedge $-1 $284 $285 $286 $287 forward $113 $-1 #
coedge $-1 $288 $115 $289 $290 forward $71 $-1 #
coedge $-1 $115 $288 $291 $292 forward $71 $-1 #
coedge $-1 $293 $294 $115 $184 reversed $295 $-1 #
edge $-1 $296 -43.865261556502531 $297 43.865261556502531 $183 $298 forward 7 unknown #
face $-1 $299 $300 $43 $-1 $301 reversed single #
loop $-1 $-1 $302 $116 #
plane-surface $-1 -71.368144779808958 0 0 1 0 0 0 0 -1 forward_v I I I I #
coedge $-1 $303 $304 $305 $306 reversed $117 $-1 #
coedge $-1 $307 $119 $308 $309 reversed $74 $-1 #
coedge $-1 $119 $307 $303 $310 forward $74 $-1 #
coedge $-1 $305 $311 $119 $192 forward $312 $-1 #
edge $-1 $313 -23.586478128509949 $314 -16.971088727475216 $191 $315 forward 7 unknown #
face $-1 $316 $317 $44 $-1 $318 forward single #
loop $-1 $-1 $319 $120 #
plane-surface $-1 -166.87736591092721 3.3076947005173594 107.64893432903565 0 -1 0 0.66913061440640931 0 -0.74314481823134659 forward_v I I I I #
coedge $-1 $320 $321 $322 $323 reversed $121 $-1 #
coedge $-1 $198 $123 $324 $325 reversed $77 $-1 #
coedge $-1 $123 $197 $320 $326 reversed $77 $-1 #
coedge $-1 $322 $327 $123 $200 forward $317 $-1 #
edge $-1 $328 12.070538175654647 $329 20.110503938172783 $199 $330 forward 7 unknown #
loop $-1 $-1 $206 $124 #
plane-surface $-1 -71.368144779808929 -5.763946378745338 1.5752003692365406 -0.66913061440640931 0 0.74314481823134659 0.74314481823134659 0 0.66913061440640931 forward_v I I I I #
loop $-1 $-1 $331 $79 #
coedge $-1 $204 $204 $205 $332 reversed $125 $-1 #
coedge $-1 $205 $205 $204 $332 forward $127 $-1 #
coedge $-1 $206 $206 $128 $207 forward $201 $-1 #
edge $-1 $333 0 $333 6.2831853071796004 $206 $334 forward 7 unknown #
loop $-1 $-1 $213 $129 #
plane-surface $-1 -71.368144779808929 -5.763946378745338 1.5752003692365406 -0.66913061440640931 0 0.74314481823134659 0.74314481823134659 0 0.66913061440640931 forward_v I I I I #
loop $-1 $-1 $335 $82 #
coedge $-1 $211 $211 $212 $336 reversed $130 $-1 #
coedge $-1 $212 $212 $211 $336 forward $132 $-1 #
coedge $-1 $213 $213 $133 $214 forward $208 $-1 #
edge $-1 $337 0 $337 6.2831853071796004 $213 $338 forward 7 unknown #
loop $-1 $-1 $220 $134 #
plane-surface $-1 -71.368144779808929 -5.763946378745338 1.5752003692365406 -0.66913061440640931 0 0.74314481823134659 0.74314481823134659 0 0.66913061440640931 forward_v I I I I #
loop $-1 $-1 $339 $85 #
coedge $-1 $218 $218 $219 $340 reversed $135 $-1 #
coedge $-1 $219 $219 $218 $340 forward $137 $-1 #
coedge $-1 $220 $220 $138 $221 forward $215 $-1 #
edge $-1 $341 0 $341 6.2831853071796004 $220 $342 forward 7 unknown #
face $-1 $343 $344 $48 $-1 $345 forward single #
loop $-1 $-1 $346 $139 #
plane-surface $-1 0 0 8.8144182154753157 0 0 1 1 0 0 forward_v I I I I #
coedge $-1 $347 $348 $349 $350 reversed $140 $-1 #
coedge $-1 $351 $142 $352 $353 reversed $89 $-1 #
coedge $-1 $142 $351 $346 $354 reversed $89 $-1 #
coedge $-1 $355 $356 $142 $229 forward $344 $-1 #
edge $-1 $357 -3.8207783024179916e-014 $358 10.818841180448365 $228 $359 forward 7 unknown #
loop $-1 $-1 $235 $143 #
plane-surface $-1 -71.368144779808929 -5.763946378745338 1.5752003692365406 -0.66913061440640931 0 0.74314481823134659 0.74314481823134659 0 0.66913061440640931 forward_v I I I I #
loop $-1 $-1 $360 $91 #
coedge $-1 $233 $233 $234 $361 reversed $144 $-1 #
coedge $-1 $234 $234 $233 $361 forward $146 $-1 #
coedge $-1 $235 $235 $147 $236 forward $230 $-1 #
edge $-1 $362 0 $362 6.2831853071796004 $235 $363 forward 7 unknown #
loop $-1 $-1 $242 $148 #
plane-surface $-1 -71.368144779808929 -5.763946378745338 1.5752003692365406 -0.66913061440640931 0 0.74314481823134659 0.74314481823134659 0 0.66913061440640931 forward_v I I I I #
loop $-1 $-1 $364 $94 #
coedge $-1 $240 $240 $241 $365 reversed $149 $-1 #
coedge $-1 $241 $241 $240 $365 forward $151 $-1 #
coedge $-1 $242 $242 $152 $243 forward $237 $-1 #
edge $-1 $366 0 $366 6.2831853071796004 $242 $367 forward 7 unknown #
loop $-1 $-1 $249 $153 #
plane-surface $-1 -71.368144779808929 -5.763946378745338 1.5752003692365406 -0.66913061440640931 0 0.74314481823134659 0.74314481823134659 0 0.66913061440640931 forward_v I I I I #
loop $-1 $-1 $368 $97 #
coedge $-1 $247 $247 $248 $369 reversed $154 $-1 #
coedge $-1 $248 $248 $247 $369 forward $156 $-1 #
coedge $-1 $249 $249 $157 $250 forward $244 $-1 #
edge $-1 $370 0 $370 6.2831853071796004 $249 $371 forward 7 unknown #
face $-1 $372 $373 $52 $-1 $374 forward single #
loop $-1 $-1 $375 $158 #
plane-surface $-1 0 -37.249872155467799 7.3144182154753157 0 -1 0 0 0 -1 forward_v I I I I #
coedge $-1 $376 $377 $378 $379 reversed $159 $-1 #
coedge $-1 $256 $161 $380 $381 reversed $101 $-1 #
coedge $-1 $161 $255 $376 $382 reversed $101 $-1 #
coedge $-1 $378 $383 $161 $258 forward $373 $-1 #
edge $-1 $384 -53.210347034635284 $385 -46.79919311239869 $257 $386 forward 7 unknown #
loop $-1 $-1 $264 $162 #
plane-surface $-1 -45.554577868364163 -26.227031747863325 86.195453182992381 0.57357644374324357 0 0.81915203911291934 0.81915203911291934 0 -0.57357644374324357 forward_v I I I I #
loop $-1 $-1 $387 $103 #
coedge $-1 $262 $262 $263 $388 reversed $163 $-1 #
coedge $-1 $263 $263 $262 $388 forward $165 $-1 #
coedge $-1 $264 $264 $166 $265 forward $259 $-1 #
edge $-1 $389 0 $389 6.2831853071796004 $264 $390 forward 7 unknown #
loop $-1 $-1 $271 $167 #
plane-surface $-1 -45.554577868364163 -26.227031747863325 86.195453182992381 0.57357644374324357 0 0.81915203911291934 0.81915203911291934 0 -0.57357644374324357 forward_v I I I I #
loop $-1 $-1 $391 $106 #
coedge $-1 $269 $269 $270 $392 reversed $168 $-1 #
coedge $-1 $270 $270 $269 $392 forward $170 $-1 #
coedge $-1 $271 $271 $171 $272 forward $266 $-1 #
edge $-1 $393 0 $393 6.2831853071796004 $271 $394 forward 7 unknown #
loop $-1 $-1 $278 $172 #
plane-surface $-1 -45.554577868364163 -26.227031747863325 86.195453182992381 0.57357644374324357 0 0.81915203911291934 0.81915203911291934 0 -0.57357644374324357 forward_v I I I I #
loop $-1 $-1 $395 $109 #
coedge $-1 $276 $276 $277 $396 reversed $173 $-1 #
coedge $-1 $277 $277 $276 $396 forward $175 $-1 #
coedge $-1 $278 $278 $176 $279 forward $273 $-1 #
edge $-1 $397 0 $397 6.2831853071796004 $278 $398 forward 7 unknown #
face $-1 $399 $400 $42 $-1 $401 reversed single #
loop $-1 $-1 $402 $177 #
plane-surface $-1 -71.368144779808958 0 0 1 0 0 0 0 -1 forward_v I I I I #
coedge $-1 $403 $291 $404 $405 forward $178 $-1 #
coedge $-1 $406 $180 $403 $407 forward $113 $-1 #
coedge $-1 $180 $406 $408 $409 forward $113 $-1 #
coedge $-1 $294 $293 $180 $287 reversed $295 $-1 #
edge $-1 $410 -43.865261556502531 $411 43.865261556502531 $286 $412 forward 7 unknown #
coedge $-1 $182 $181 $413 $414 forward $71 $-1 #
coedge $-1 $415 $416 $181 $290 reversed $400 $-1 #
edge $-1 $297 -71.368144779808958 $417 71.368144779808958 $289 $418 forward 7 unknown #
coedge $-1 $283 $419 $182 $292 reversed $178 $-1 #
edge $-1 $420 -71.368144779808958 $296 71.368144779808958 $291 $421 forward 7 unknown #
coedge $-1 $286 $183 $419 $422 forward $295 $-1 #
coedge $-1 $183 $286 $415 $423 reversed $295 $-1 #
loop $-1 $-1 $293 $399 #
vertex $-1 $184 $424 #
vertex $-1 $184 $425 #
straight-curve $-1 71.368144779808958 0 8.8144182154753157 0 1 0 I I #
face $-1 $426 $427 $43 $-1 $428 forward single #
loop $-1 $-1 $308 $185 #
plane-surface $-1 0 -43.865261556502531 0 0 1 0 0 0 1 forward_v I I I I #
coedge $-1 $429 $430 $431 $432 forward $186 $-1 #
coedge $-1 $431 $188 $190 $310 reversed $117 $-1 #
coedge $-1 $188 $431 $433 $434 reversed $117 $-1 #
coedge $-1 $435 $191 $188 $306 forward $312 $-1 #
edge $-1 $314 2.1572091077376578 $436 5.1572091077376578 $305 $437 forward 7 unknown #
coedge $-1 $190 $189 $429 $438 reversed $74 $-1 #
coedge $-1 $439 $440 $189 $309 forward $300 $-1 #
edge $-1 $441 -71.368144779808958 $313 71.368144779808958 $308 $442 forward 7 unknown #
edge $-1 $443 -71.368144779808958 $314 71.368144779808958 $303 $444 forward 7 unknown #
coedge $-1 $191 $435 $439 $445 forward $312 $-1 #
loop $-1 $-1 $305 $426 #
vertex $-1 $309 $446 #
vertex $-1 $192 $447 #
straight-curve $-1 71.368144779808958 -20.278783427992582 5.8144182154753157 0 1 0 I I #
face $-1 $-1 $448 $44 $-1 $449 reversed single #
loop $-1 $-1 $199 $193 #
plane-surface $-1 0 0 8.8144182154753157 0 0 1 1 0 0 forward_v I I I I #
coedge $-1 $450 $451 $452 $453 reversed $194 $-1 #
coedge $-1 $454 $196 $198 $326 forward $121 $-1 #
coedge $-1 $196 $454 $450 $455 forward $121 $-1 #
coedge $-1 $452 $199 $196 $323 forward $317 $-1 #
edge $-1 $329 -11.953614268635366 $456 6.1896678898900284 $322 $457 forward 7 unknown #
coedge $-1 $458 $459 $197 $325 forward $448 $-1 #
edge $-1 $460 -52.249266795281315 $328 -45.010048949042513 $324 $461 forward 7 unknown #
edge $-1 $329 -10.818841180448365 $460 3.8207783024179916e-014 $198 $462 forward 7 unknown #
coedge $-1 $199 $452 $458 $463 forward $317 $-1 #
vertex $-1 $325 $464 #
vertex $-1 $200 $465 #
straight-curve $-1 -83.438682955463605 -14.835587458008035 8.8144182154753139 1 0 0 I I #
coedge $-1 $331 $331 $-1 $466 reversed $203 $-1 #
edge $-1 $467 0 $467 6.2831853071796004 $204 $468 forward 7 unknown #
vertex $-1 $207 $469 #
ellipse-curve $-1 -67.34816189854989 -11.206931026302954 5.1948092923559113 -0.66913061440640931 0 0.74314481823134659 0.74314481823134659 0 0.66913061440640931 1 I I #
coedge $-1 $335 $335 $-1 $470 reversed $210 $-1 #
edge $-1 $471 0 $471 6.2831853071796004 $211 $472 forward 7 unknown #
vertex $-1 $214 $473 #
ellipse-curve $-1 -67.34816189854989 -5.7639463787453309 5.1948092923559113 -0.66913061440640931 0 0.74314481823134659 0.74314481823134659 0 0.66913061440640931 1 I I #
coedge $-1 $339 $339 $-1 $474 reversed $217 $-1 #
edge $-1 $475 0 $475 6.2831853071796004 $218 $476 forward 7 unknown #
vertex $-1 $221 $477 #
ellipse-curve $-1 -67.34816189854989 -0.32096173118770821 5.1948092923559113 -0.66913061440640931 0 0.74314481823134659 0.74314481823134659 0 0.66913061440640931 1 I I #
face $-1 $-1 $478 $48 $-1 $479 reversed single #
loop $-1 $-1 $355 $222 #
plane-surface $-1 -166.87736591092721 3.3076947005173594 107.64893432903565 0 -1 0 0.66913061440640931 0 -0.74314481823134659 forward_v I I I I #
coedge $-1 $349 $480 $227 $354 forward $223 $-1 #
coedge $-1 $348 $225 $351 $481 reversed $140 $-1 #
coedge $-1 $225 $347 $482 $483 reversed $140 $-1 #
coedge $-1 $484 $346 $225 $350 forward $223 $-1 #
edge $-1 $485 -20.110503938172783 $486 -12.070538175654647 $349 $487 forward 7 unknown #
coedge $-1 $227 $226 $347 $481 forward $89 $-1 #
coedge $-1 $488 $482 $226 $353 forward $478 $-1 #
edge $-1 $489 -24.33295004841543 $357 -6.1896678898900284 $352 $490 forward 7 unknown #
edge $-1 $358 6.1896678898900284 $485 24.33295004841543 $346 $491 forward 7 unknown #
coedge $-1 $356 $228 $480 $492 reversed $344 $-1 #
coedge $-1 $228 $355 $488 $493 reversed $344 $-1 #
vertex $-1 $353 $494 #
vertex $-1 $354 $495 #
straight-curve $-1 -71.368144779808929 3.3076947005173594 1.5752003692365406 0.74314481823134659 0 0.66913061440640931 I I #
coedge $-1 $360 $360 $-1 $496 reversed $232 $-1 #
edge $-1 $497 0 $497 6.2831853071796004 $233 $498 forward 7 unknown #
vertex $-1 $236 $499 #
ellipse-curve $-1 -67.34816189854989 6.9363511322224483 5.1948092923559113 -0.66913061440640931 0 0.74314481823134659 0.74314481823134659 0 0.66913061440640931 1 I I #
coedge $-1 $364 $364 $-1 $500 reversed $239 $-1 #
edge $-1 $501 0 $501 6.2831853071796004 $240 $502 forward 7 unknown #
vertex $-1 $243 $503 #
ellipse-curve $-1 -67.34816189854989 12.379335779780071 5.1948092923559113 -0.66913061440640931 0 0.74314481823134659 0.74314481823134659 0 0.66913061440640931 1 I I #
coedge $-1 $368 $368 $-1 $504 reversed $246 $-1 #
edge $-1 $505 0 $505 6.2831853071796004 $247 $506 forward 7 unknown #
vertex $-1 $250 $507 #
ellipse-curve $-1 -67.34816189854989 17.822320427337694 5.1948092923559113 -0.66913061440640931 0 0.74314481823134659 0.74314481823134659 0 0.66913061440640931 1 I I #
face $-1 $-1 $508 $52 $-1 $509 reversed single #
loop $-1 $-1 $378 $251 #
plane-surface $-1 0 0 8.8144182154753157 0 0 1 1 0 0 forward_v I I I I #
coedge $-1 $510 $511 $377 $512 reversed $252 $-1 #
coedge $-1 $513 $254 $256 $382 forward $159 $-1 #
coedge $-1 $254 $513 $375 $512 forward $159 $-1 #
coedge $-1 $514 $257 $254 $379 forward $373 $-1 #
edge $-1 $385 2.0906754663271858 $515 24.136356281536138 $378 $516 forward 7 unknown #
coedge $-1 $517 $518 $255 $381 forward $508 $-1 #
edge $-1 $519 -97.233808091301881 $384 -92.744669700107437 $380 $520 forward 7 unknown #
edge $-1 $385 134.90971571725845 $519 142.73628955961792 $256 $521 forward 7 unknown #
coedge $-1 $257 $514 $517 $522 forward $373 $-1 #
vertex $-1 $381 $523 #
vertex $-1 $258 $524 #
straight-curve $-1 18.157797745173674 -15.204191340258848 8.8144182154753139 -1 0 0 I I #
coedge $-1 $387 $387 $-1 $525 reversed $261 $-1 #
edge $-1 $526 0 $526 6.2831853071796004 $262 $527 forward 7 unknown #
vertex $-1 $265 $528 #
ellipse-curve $-1 68.162567818690661 -32.840735992426012 6.569849019878089 0.57357644374324357 0 0.81915203911291934 0.81915203911291934 0 -0.57357644374324357 1 I I #
coedge $-1 $391 $391 $-1 $529 reversed $268 $-1 #
edge $-1 $530 0 $530 6.2831853071796004 $269 $531 forward 7 unknown #
vertex $-1 $272 $532 #
ellipse-curve $-1 68.162567818690661 -26.227031747863325 6.569849019878089 0.57357644374324357 0 0.81915203911291934 0.81915203911291934 0 -0.57357644374324357 1 I I #
coedge $-1 $395 $395 $-1 $533 reversed $275 $-1 #
edge $-1 $534 0 $534 6.2831853071796004 $276 $535 forward 7 unknown #
vertex $-1 $279 $536 #
ellipse-curve $-1 68.162567818690661 -19.613327503300638 6.569849019878089 0.57357644374324357 0 0.81915203911291934 0.81915203911291934 0 -0.57357644374324357 1 I I #
face $-1 $-1 $295 $42 $-1 $537 reversed single #
loop $-1 $-1 $415 $280 #
plane-surface $-1 0 43.865261556502531 0 0 -1 0 0 0 -1 forward_v I I I I #
coedge $-1 $538 $413 $416 $539 forward $281 $-1 #
coedge $-1 $419 $283 $284 $407 reversed $178 $-1 #
coedge $-1 $413 $538 $283 $405 reversed $281 $-1 #
edge $-1 $420 -8.8144182154753157 $540 8.8144182154753157 $404 $541 forward 7 unknown #
coedge $-1 $285 $284 $538 $542 forward $113 $-1 #
edge $-1 $411 -71.368144779808958 $540 71.368144779808958 $403 $543 forward 7 unknown #
coedge $-1 $416 $415 $285 $409 reversed $400 $-1 #
edge $-1 $544 -71.368144779808958 $410 71.368144779808958 $408 $545 forward 7 unknown #
vertex $-1 $287 $546 #
vertex $-1 $422 $547 #
straight-curve $-1 71.368144779808958 0 -8.8144182154753157 0 -1 0 I I #
coedge $-1 $402 $404 $288 $414 reversed $281 $-1 #
edge $-1 $417 -43.865261556502531 $420 43.865261556502531 $413 $548 forward 7 unknown #
coedge $-1 $408 $289 $294 $423 forward $400 $-1 #
coedge $-1 $289 $408 $402 $539 reversed $400 $-1 #
vertex $-1 $290 $549 #
straight-curve $-1 0 43.865261556502531 8.8144182154753157 -1 0 0 I I #
coedge $-1 $291 $403 $293 $422 reversed $178 $-1 #
vertex $-1 $414 $550 #
straight-curve $-1 0 -43.865261556502531 8.8144182154753157 1 0 0 I I #
edge $-1 $296 -8.8144182154753157 $411 8.8144182154753157 $293 $551 forward 7 unknown #
edge $-1 $297 -8.8144182154753157 $410 8.8144182154753157 $294 $552 forward 7 unknown #
point $-1 71.368144779808958 -43.865261556502531 8.8144182154753157 #
point $-1 71.368144779808958 43.865261556502531 8.8144182154753157 #
face $-1 $-1 $312 $43 $-1 $553 reversed single #
loop $-1 $-1 $433 $299 #
plane-surface $-1 0 0 8.8144182154753157 0 0 1 1 0 0 forward_v I I I I #
coedge $-1 $554 $302 $307 $438 forward $186 $-1 #
coedge $-1 $302 $554 $555 $556 reversed $186 $-1 #
coedge $-1 $304 $303 $302 $432 reversed $117 $-1 #
edge $-1 $557 -5.1572091077376578 $443 -2.1572091077376578 $302 $558 forward 7 unknown #
coedge $-1 $555 $559 $304 $434 forward $427 $-1 #
edge $-1 $436 -71.368144779808958 $557 71.368144779808958 $433 $560 forward 7 unknown #
coedge $-1 $311 $305 $559 $561 reversed $312 $-1 #
vertex $-1 $306 $562 #
straight-curve $-1 71.368144779808958 -37.249872155467799 3.6572091077376578 0 0 1 I I #
edge $-1 $443 16.971088727475216 $441 23.586478128509949 $429 $563 forward 7 unknown #
coedge $-1 $564 $308 $311 $445 reversed $300 $-1 #
coedge $-1 $308 $564 $554 $565 forward $300 $-1 #
vertex $-1 $309 $566 #
straight-curve $-1 0 -43.865261556502531 5.8144182154753157 1 0 0 I I #
vertex $-1 $438 $567 #
straight-curve $-1 0 -37.249872155467799 5.8144182154753157 1 0 0 I I #
edge $-1 $568 -8.8144182154753157 $313 -5.8144182154753157 $311 $569 forward 7 unknown #
point $-1 71.368144779808958 -43.865261556502531 5.8144182154753157 #
point $-1 71.368144779808958 -37.249872155467799 5.8144182154753157 #
loop $-1 $-1 $324 $316 #
plane-surface $-1 -71.368144779808958 0 0 1 0 0 0 0 -1 forward_v I I I I #
coedge $-1 $451 $319 $321 $455 reversed $194 $-1 #
coedge $-1 $319 $450 $570 $571 reversed $194 $-1 #
coedge $-1 $327 $322 $319 $453 forward $317 $-1 #
edge $-1 $456 -20.110503938172783 $572 -12.070538175654647 $452 $573 forward 7 unknown #
coedge $-1 $321 $320 $459 $574 reversed $121 $-1 #
edge $-1 $575 -3.8207783024179916e-014 $456 10.818841180448365 $450 $576 forward 7 unknown #
vertex $-1 $323 $577 #
straight-curve $-1 -63.328179017290822 -2.881973189372669 8.8144182154753139 0 1 0 I I #
coedge $-1 $570 $324 $327 $463 reversed $448 $-1 #
coedge $-1 $324 $570 $454 $574 forward $448 $-1 #
vertex $-1 $325 $578 #
straight-curve $-1 -71.368144779808958 -14.835587458008035 53.824467164517827 0 0 1 I I #
straight-curve $-1 -71.368144779808929 -14.835587458008035 1.5752003692365406 -0.74314481823134659 0 -0.66913061440640931 I I #
edge $-1 $572 -3.3076947005173594 $328 14.835587458008035 $458 $579 forward 7 unknown #
point $-1 -71.368144779808958 -14.835587458008035 8.8144182154753157 #
point $-1 -63.328179017290822 -14.835587458008035 8.8144182154753175 #
edge $-1 $580 1 $580 0 $331 $-1 forward 7 unknown #
vertex $-1 $332 $581 #
ellipse-curve $-1 -65.291065660193354 -11.206931026302954 2.9101725155825164 -0.66913061440640931 0 0.74314481823134659 0.74314481823134659 0 0.66913061440640931 1 I I #
point $-1 -66.605017080318575 -11.206931026302954 5.8639399067623472 #
edge $-1 $582 1 $582 0 $335 $-1 forward 7 unknown #
vertex $-1 $336 $583 #
ellipse-curve $-1 -65.291065660193354 -5.7639463787453309 2.9101725155825164 -0.66913061440640931 0 0.74314481823134659 0.74314481823134659 0 0.66913061440640931 1 I I #
point $-1 -66.605017080318575 -5.7639463787453309 5.8639399067623472 #
edge $-1 $584 1 $584 0 $339 $-1 forward 7 unknown #
vertex $-1 $340 $585 #
ellipse-curve $-1 -65.291065660193354 -0.32096173118770821 2.9101725155825164 -0.66913061440640931 0 0.74314481823134659 0.74314481823134659 0 0.66913061440640931 1 I I #
point $-1 -66.605017080318575 -0.32096173118770821 5.8639399067623472 #
loop $-1 $-1 $352 $343 #
plane-surface $-1 -71.368144779808958 0 0 1 0 0 0 0 -1 forward_v I I I I #
coedge $-1 $346 $484 $355 $492 forward $223 $-1 #
edge $-1 $489 -3.8207783024179916e-014 $485 10.818841180448365 $347 $586 forward 7 unknown #
coedge $-1 $352 $587 $348 $483 forward $478 $-1 #
edge $-1 $486 45.010048949042513 $489 52.249266795281315 $482 $588 forward 7 unknown #
coedge $-1 $480 $349 $587 $589 forward $223 $-1 #
vertex $-1 $350 $590 #
vertex $-1 $589 $591 #
straight-curve $-1 -83.438682955463605 21.450976859042761 8.8144182154753139 -1 0 0 I I #
coedge $-1 $587 $352 $356 $493 forward $478 $-1 #
vertex $-1 $483 $592 #
straight-curve $-1 -71.368144779808958 -2.881973189372669 1.57520036923651 0 -1 0 I I #
straight-curve $-1 -63.328179017290822 -2.881973189372669 8.8144182154753139 0 1 0 I I #
edge $-1 $593 12.070538175654647 $358 20.110503938172783 $480 $594 forward 7 unknown #
edge $-1 $357 -52.249266795281315 $593 -45.010048949042513 $488 $595 forward 7 unknown #
point $-1 -71.368144779808958 3.3076947005173594 1.5752003692365151 #
point $-1 -63.328179017290822 3.3076947005173594 8.8144182154753175 #
edge $-1 $596 1 $596 0 $360 $-1 forward 7 unknown #
vertex $-1 $361 $597 #
ellipse-curve $-1 -65.291065660193354 6.9363511322224483 2.9101725155825164 -0.66913061440640931 0 0.74314481823134659 0.74314481823134659 0 0.66913061440640931 1 I I #
point $-1 -66.605017080318575 6.9363511322224483 5.8639399067623472 #
edge $-1 $598 1 $598 0 $364 $-1 forward 7 unknown #
vertex $-1 $365 $599 #
ellipse-curve $-1 -65.291065660193354 12.379335779780071 2.9101725155825164 -0.66913061440640931 0 0.74314481823134659 0.74314481823134659 0 0.66913061440640931 1 I I #
point $-1 -66.605017080318575 12.379335779780071 5.8639399067623472 #
edge $-1 $600 1 $600 0 $368 $-1 forward 7 unknown #
vertex $-1 $369 $601 #
ellipse-curve $-1 -65.291065660193354 17.822320427337694 2.9101725155825164 -0.66913061440640931 0 0.74314481823134659 0.74314481823134659 0 0.66913061440640931 1 I I #
point $-1 -66.605017080318575 17.822320427337694 5.8639399067623472 #
loop $-1 $-1 $380 $372 #
plane-surface $-1 71.368144779808958 0 0 -1 0 0 0 0 1 forward_v I I I I #
coedge $-1 $511 $375 $602 $603 reversed $252 $-1 #
coedge $-1 $375 $510 $514 $604 reversed $252 $-1 #
edge $-1 $605 -142.73628955961792 $515 -134.90971571725845 $375 $606 forward 7 unknown #
coedge $-1 $377 $376 $518 $607 reversed $159 $-1 #
coedge $-1 $383 $378 $511 $604 forward $373 $-1 #
vertex $-1 $604 $608 #
straight-curve $-1 64.956990857572336 -13.113515873931663 8.814418215475321 0 -1 0 I I #
coedge $-1 $602 $380 $383 $522 reversed $508 $-1 #
coedge $-1 $380 $602 $513 $607 forward $508 $-1 #
vertex $-1 $381 $609 #
straight-curve $-1 71.368144779808958 -15.204191340258848 101.55908791558275 0 0 1 I I #
straight-curve $-1 -45.554577868364163 -15.204191340258848 86.195453182992381 0.81915203911291934 0 -0.57357644374324357 I I #
edge $-1 $610 -37.249872155467799 $384 -15.204191340258848 $517 $611 forward 7 unknown #
point $-1 71.368144779808958 -15.204191340258848 8.8144182154753157 #
point $-1 64.956990857572364 -15.204191340258848 8.8144182154752997 #
edge $-1 $612 1 $612 0 $387 $-1 forward 7 unknown #
vertex $-1 $388 $613 #
ellipse-curve $-1 67.230687708851008 -32.840735992426012 5.2389863240494963 0.57357644374324357 0 0.81915203911291934 0.81915203911291934 0 -0.57357644374324357 1 I I #
point $-1 68.981719857803569 -32.840735992426012 5.9962725761348414 #
edge $-1 $614 1 $614 0 $391 $-1 forward 7 unknown #
vertex $-1 $392 $615 #
ellipse-curve $-1 67.230687708851008 -26.227031747863325 5.2389863240494963 0.57357644374324357 0 0.81915203911291934 0.81915203911291934 0 -0.57357644374324357 1 I I #
point $-1 68.981719857803569 -26.227031747863325 5.9962725761348414 #
edge $-1 $616 1 $616 0 $395 $-1 forward 7 unknown #
vertex $-1 $396 $617 #
ellipse-curve $-1 67.230687708851008 -19.613327503300638 5.2389863240494963 0.57357644374324357 0 0.81915203911291934 0.81915203911291934 0 -0.57357644374324357 1 I I #
point $-1 68.981719857803569 -19.613327503300638 5.9962725761348414 #
plane-surface $-1 71.368144779808958 0 0 -1 0 0 0 0 1 forward_v I I I I #
coedge $-1 $404 $402 $406 $542 reversed $281 $-1 #
edge $-1 $417 -8.8144182154753157 $544 8.8144182154753157 $416 $618 forward 7 unknown #
vertex $-1 $542 $619 #
straight-curve $-1 -71.368144779808958 -43.865261556502531 0 0 0 -1 I I #
edge $-1 $540 -43.865261556502531 $544 43.865261556502531 $538 $620 forward 7 unknown #
straight-curve $-1 0 -43.865261556502531 -8.8144182154753157 -1 0 0 I I #
vertex $-1 $409 $621 #
straight-curve $-1 0 43.865261556502531 -8.8144182154753157 1 0 0 I I #
point $-1 71.368144779808958 43.865261556502531 -8.8144182154753157 #
point $-1 71.368144779808958 -43.865261556502531 -8.8144182154753157 #
straight-curve $-1 -71.368144779808958 0 8.8144182154753157 0 -1 0 I I #
point $-1 -71.368144779808958 43.865261556502531 8.8144182154753157 #
point $-1 -71.368144779808958 -43.865261556502531 8.8144182154753157 #
straight-curve $-1 71.368144779808958 -43.865261556502531 0 0 0 -1 I I #
straight-curve $-1 71.368144779808958 43.865261556502531 0 0 0 -1 I I #
plane-surface $-1 71.368144779808958 0 0 -1 0 0 0 0 1 forward_v I I I I #
coedge $-1 $430 $429 $440 $565 reversed $186 $-1 #
coedge $-1 $622 $433 $430 $556 forward $427 $-1 #
edge $-1 $557 37.249872155467799 $623 43.865261556502531 $430 $624 forward 7 unknown #
vertex $-1 $556 $625 #
straight-curve $-1 -71.368144779808958 -37.249872155467799 3.6572091077376578 0 0 -1 I I #
coedge $-1 $433 $622 $435 $561 forward $427 $-1 #
straight-curve $-1 0 -37.249872155467799 8.8144182154753157 -1 0 0 I I #
edge $-1 $568 -43.865261556502531 $436 -37.249872155467799 $435 $626 forward 7 unknown #
point $-1 71.368144779808958 -37.249872155467799 8.8144182154753157 #
straight-curve $-1 -71.368144779808958 -20.278783427992582 5.8144182154753157 0 -1 0 I I #
coedge $-1 $440 $439 $622 $627 reversed $300 $-1 #
edge $-1 $623 -8.8144182154753157 $441 -5.8144182154753157 $554 $628 forward 7 unknown #
point $-1 -71.368144779808958 -43.865261556502531 5.8144182154753157 #
point $-1 -71.368144779808958 -37.249872155467799 5.8144182154753157 #
vertex $-1 $561 $629 #
straight-curve $-1 71.368144779808958 -43.865261556502531 0 0 0 -1 I I #
coedge $-1 $459 $458 $451 $571 forward $448 $-1 #
edge $-1 $572 45.010048949042513 $575 52.249266795281315 $570 $630 forward 7 unknown #
vertex $-1 $463 $631 #
straight-curve $-1 -83.438682955463605 3.3076947005173594 8.8144182154753139 -1 0 0 I I #
edge $-1 $575 -6.1896678898900284 $460 11.953614268635366 $459 $632 forward 7 unknown #
vertex $-1 $574 $633 #
straight-curve $-1 -71.368144779808929 3.3076947005173594 1.5752003692365406 0.74314481823134659 0 0.66913061440640931 I I #
point $-1 -63.328179017290822 3.3076947005173594 8.8144182154753175 #
point $-1 -71.368144779808958 -14.835587458008035 1.5752003692365151 #
straight-curve $-1 -71.368144779808958 0 8.8144182154753157 0 -1 0 I I #
vertex $-1 $466 $634 #
point $-1 -64.547920841962011 -11.206931026302954 3.5793031299889257 #
vertex $-1 $470 $635 #
point $-1 -64.547920841962011 -5.7639463787453309 3.5793031299889257 #
vertex $-1 $474 $636 #
point $-1 -64.547920841962011 -0.32096173118770821 3.5793031299889257 #
straight-curve $-1 -71.368144779808929 21.450976859042761 1.5752003692365406 0.74314481823134659 0 0.66913061440640931 I I #
coedge $-1 $482 $488 $484 $589 reversed $478 $-1 #
straight-curve $-1 -71.368144779808958 21.450976859042761 53.824467164517827 0 0 -1 I I #
edge $-1 $486 -21.450976859042761 $593 -3.3076947005173594 $587 $637 forward 7 unknown #
point $-1 -63.328179017290822 21.450976859042761 8.8144182154753175 #
point $-1 -71.368144779808958 21.450976859042761 8.8144182154753157 #
point $-1 -71.368144779808958 21.450976859042761 1.5752003692365151 #
vertex $-1 $493 $638 #
straight-curve $-1 -83.438682955463605 3.3076947005173594 8.8144182154753139 1 0 0 I I #
straight-curve $-1 -71.368144779808958 3.3076947005173594 53.824467164517827 0 0 1 I I #
vertex $-1 $496 $639 #
point $-1 -64.547920841962011 6.9363511322224483 3.5793031299889257 #
vertex $-1 $500 $640 #
point $-1 -64.547920841962011 12.379335779780071 3.5793031299889257 #
vertex $-1 $504 $641 #
point $-1 -64.547920841962011 17.822320427337694 3.5793031299889257 #
coedge $-1 $518 $517 $510 $603 forward $508 $-1 #
edge $-1 $610 92.744669700107437 $605 97.233808091301881 $602 $642 forward 7 unknown #
edge $-1 $515 64.956990857572364 $610 71.368144779808958 $514 $643 forward 7 unknown #
vertex $-1 $603 $644 #
straight-curve $-1 -45.554577868364163 -37.249872155467799 86.195453182992381 -0.81915203911291934 0 0.57357644374324357 I I #
edge $-1 $605 -24.136356281536138 $519 -2.0906754663271858 $518 $645 forward 7 unknown #
point $-1 64.956990857572364 -37.249872155467799 8.8144182154752997 #
point $-1 71.368144779808958 -15.204191340258848 4.3252798242808694 #
vertex $-1 $522 $646 #
straight-curve $-1 71.368144779808958 0 8.8144182154753157 0 1 0 I I #
vertex $-1 $525 $647 #
point $-1 68.049839747963929 -32.840735992426012 4.6654098803062523 #
vertex $-1 $529 $648 #
point $-1 68.049839747963929 -26.227031747863325 4.6654098803062523 #
vertex $-1 $533 $649 #
point $-1 68.049839747963929 -19.613327503300638 4.6654098803062523 #
straight-curve $-1 -71.368144779808958 43.865261556502531 0 0 0 -1 I I #
point $-1 -71.368144779808958 -43.865261556502531 -8.8144182154753157 #
straight-curve $-1 -71.368144779808958 0 -8.8144182154753157 0 1 0 I I #
point $-1 -71.368144779808958 43.865261556502531 -8.8144182154753157 #
coedge $-1 $559 $555 $564 $627 forward $427 $-1 #
vertex $-1 $556 $650 #
straight-curve $-1 -71.368144779808958 0 8.8144182154753157 0 -1 0 I I #
point $-1 -71.368144779808958 -37.249872155467799 8.8144182154753157 #
straight-curve $-1 71.368144779808958 0 8.8144182154753157 0 1 0 I I #
edge $-1 $623 -71.368144779808958 $568 71.368144779808958 $564 $651 forward 7 unknown #
straight-curve $-1 -71.368144779808958 -43.865261556502531 0 0 0 -1 I I #
point $-1 71.368144779808958 -43.865261556502531 8.8144182154753157 #
straight-curve $-1 -71.368144779808958 3.3076947005173594 53.824467164517827 0 0 -1 I I #
point $-1 -71.368144779808958 3.3076947005173594 8.8144182154753157 #
straight-curve $-1 -71.368144779808958 -2.881973189372669 1.57520036923651 0 -1 0 I I #
point $-1 -71.368144779808958 3.3076947005173594 1.5752003692365151 #
point $-1 -64.621935045786941 -11.206931026302954 2.1670276973511697 #
point $-1 -64.621935045786941 -5.7639463787453309 2.1670276973511697 #
point $-1 -64.621935045786941 -0.32096173118770821 2.1670276973511697 #
straight-curve $-1 -71.368144779808958 0 8.8144182154753157 0 -1 0 I I #
point $-1 -71.368144779808958 3.3076947005173594 8.8144182154753157 #
point $-1 -64.621935045786941 6.9363511322224483 2.1670276973511697 #
point $-1 -64.621935045786941 12.379335779780071 2.1670276973511697 #
point $-1 -64.621935045786941 17.822320427337694 2.1670276973511697 #
straight-curve $-1 71.368144779808958 -37.249872155467799 101.55908791558275 0 0 -1 I I #
straight-curve $-1 0 -37.249872155467799 8.8144182154753157 1 0 0 I I #
point $-1 71.368144779808958 -37.249872155467799 4.3252798242808694 #
straight-curve $-1 71.368144779808972 -13.113515873931663 4.3252798242808623 0 1 0 I I #
point $-1 71.368144779808958 -37.249872155467799 8.8144182154753157 #
point $-1 66.657111265107773 -32.840735992426012 4.4198342849365764 #
point $-1 66.657111265107773 -26.227031747863325 4.4198342849365764 #
point $-1 66.657111265107773 -19.613327503300638 4.4198342849365764 #
point $-1 -71.368144779808958 -43.865261556502531 8.8144182154753157 #
straight-curve $-1 0 -43.865261556502531 8.8144182154753157 1 0 0 I I #
End-of-ACIS-data 