500 0 6 0           
7 Unknown 11 ACIS 5.0 NT 24 Fri Mar 26 19:19:35 1999 
-1 9.9999999999999995e-007 1e-010 
body $-1 $6 $-1 $7 #
body $-1 $8 $-1 $9 #
body $-1 $10 $-1 $11 #
body $-1 $12 $-1 $13 #
body $-1 $14 $-1 $15 #
body $-1 $16 $-1 $17 #
lump $-1 $-1 $18 $0 #
transform $-1 1 0 0 0 1 0 0 0 1 48.071535386211735 25.375350778562272 6.2857176325069855 1 rotate no_reflect no_shear #
lump $-1 $-1 $19 $1 #
transform $-1 1 0 0 0 1 0 0 0 1 48.071535386211735 25.375350778562272 6.2857176325069855 1 rotate no_reflect no_shear #
lump $-1 $-1 $20 $2 #
transform $-1 1 0 0 0 1 0 0 0 1 48.071535386211735 25.375350778562272 6.2857176325069855 1 rotate no_reflect no_shear #
lump $-1 $-1 $21 $3 #
transform $-1 1 0 0 0 1 0 0 0 1 48.071535386211735 25.375350778562272 6.2857176325069855 1 rotate no_reflect no_shear #
lump $-1 $-1 $22 $4 #
transform $-1 1 0 0 0 1 0 0 0 1 48.071535386211735 25.375350778562272 6.2857176325069855 1 rotate no_reflect no_shear #
lump $-1 $-1 $23 $5 #
transform $-1 1 0 0 0 1 0 0 0 1 48.071535386211735 25.375350778562272 6.2857176325069855 1 rotate no_reflect no_shear #
shell $-1 $-1 $-1 $24 $-1 $6 #
shell $-1 $-1 $-1 $25 $-1 $8 #
shell $-1 $-1 $-1 $26 $-1 $10 #
shell $-1 $-1 $-1 $27 $-1 $12 #
shell $-1 $-1 $-1 $28 $-1 $14 #
shell $-1 $-1 $-1 $29 $-1 $16 #
face $-1 $30 $31 $18 $-1 $32 forward single #
face $-1 $33 $34 $19 $-1 $35 forward single #
face $-1 $36 $37 $20 $-1 $38 reversed single #
face $-1 $39 $40 $21 $-1 $41 forward single #
face $-1 $42 $43 $22 $-1 $44 forward single #
face $-1 $45 $46 $23 $-1 $47 forward single #
face $-1 $48 $49 $18 $-1 $50 reversed single #
loop $-1 $-1 $51 $24 #
plane-surface $-1 0 0 6.2857176325069855 0 0 1 1 0 0 forward_v I I I I #
face $-1 $52 $53 $19 $-1 $54 reversed single #
loop $-1 $-1 $55 $25 #
plane-surface $-1 -48.071535386211735 0 0 1 0 0 0 0 -1 forward_v I I I I #
face $-1 $56 $57 $20 $-1 $58 reversed single #
loop $-1 $-1 $59 $26 #
plane-surface $-1 31.619229103879555 46.439443990049348 109.17717060849746 1 0 0 0 -0.62932039886446345 -0.77714595512881146 forward_v I I I I #
face $-1 $60 $61 $21 $-1 $62 forward single #
loop $-1 $63 $64 $27 #
cone-surface $-1 34.909690360345991 22.495217957089022 3.71709695146123 0 -0.62932039886446345 -0.77714595512881146 1 0 0 1 I I 0 1 1 forward I I I I #
face $-1 $65 $66 $22 $-1 $67 forward single #
loop $-1 $68 $69 $28 #
cone-surface $-1 39.845382245045641 22.495217957089022 3.71709695146123 0 -0.62932039886446345 -0.77714595512881146 1 0 0 1 I I 0 1 1 forward I I I I #
face $-1 $70 $71 $23 $-1 $72 forward single #
loop $-1 $73 $74 $29 #
cone-surface $-1 44.781074129745292 22.495217957089022 3.71709695146123 0 -0.62932039886446345 -0.77714595512881146 1 0 0 1 I I 0 1 1 forward I I I I #
face $-1 $75 $76 $18 $-1 $77 reversed single #
loop $-1 $-1 $78 $30 #
plane-surface $-1 0 0 -6.2857176325069855 0 0 1 1 0 0 forward_v I I I I #
coedge $-1 $79 $80 $81 $82 forward $31 $-1 #
face $-1 $83 $84 $19 $-1 $85 reversed single #
loop $-1 $-1 $86 $33 #
plane-surface $-1 0 25.375350778562272 0 0 -1 0 0 0 -1 forward_v I I I I #
coedge $-1 $87 $88 $89 $90 forward $34 $-1 #
face $-1 $91 $92 $20 $-1 $93 forward single #
loop $-1 $-1 $94 $36 #
plane-surface $-1 39.845382245045641 -14.065351656506529 34.4599720440455 0 0.62932039886446345 0.77714595512881146 1 0 0 forward_v I I I I #
coedge $-1 $95 $96 $97 $98 reversed $37 $-1 #
face $-1 $-1 $99 $21 $-1 $100 forward single #
loop $-1 $101 $102 $39 #
cone-surface $-1 34.909690360345991 21.624623181237503 2.6420019603722853 0 -0.62932039886446345 -0.77714595512881146 0.5 0 0 1 I I -0.70710678118654746 0.70710678118654746 0.5 forward I I I I #
loop $-1 $-1 $103 $27 #
coedge $-1 $64 $64 $104 $105 reversed $40 $-1 #
face $-1 $-1 $106 $22 $-1 $107 forward single #
loop $-1 $108 $109 $42 #
cone-surface $-1 39.845382245045641 21.624623181237503 2.6420019603722853 0 -0.62932039886446345 -0.77714595512881146 0.5 0 0 1 I I -0.70710678118654746 0.70710678118654746 0.5 forward I I I I #
loop $-1 $-1 $110 $28 #
coedge $-1 $69 $69 $111 $112 reversed $43 $-1 #
face $-1 $-1 $113 $23 $-1 $114 forward single #
loop $-1 $115 $116 $45 #
cone-surface $-1 44.781074129745292 21.624623181237503 2.6420019603722853 0 -0.62932039886446345 -0.77714595512881146 0.5 0 0 1 I I -0.70710678118654746 0.70710678118654746 0.5 forward I I I I #
loop $-1 $-1 $117 $29 #
coedge $-1 $74 $74 $118 $119 reversed $46 $-1 #
face $-1 $120 $121 $18 $-1 $122 reversed single #
loop $-1 $-1 $123 $48 #
plane-surface $-1 0 -25.375350778562272 0 0 1 0 0 0 1 forward_v I I I I #
coedge $-1 $124 $125 $126 $127 forward $49 $-1 #
coedge $-1 $128 $51 $129 $130 forward $31 $-1 #
coedge $-1 $51 $128 $131 $132 forward $31 $-1 #
coedge $-1 $133 $134 $51 $82 reversed $135 $-1 #
edge $-1 $136 -25.375350778562272 $137 25.375350778562272 $81 $138 forward 7 unknown #
face $-1 $139 $140 $19 $-1 $141 reversed single #
loop $-1 $-1 $89 $52 #
plane-surface $-1 -50.901230530628695 0 3.2857176325069855 0 0 1 1 0 0 forward_v I I I I #
coedge $-1 $142 $143 $87 $144 forward $53 $-1 #
coedge $-1 $145 $55 $86 $144 reversed $34 $-1 #
coedge $-1 $55 $145 $146 $147 reversed $34 $-1 #
coedge $-1 $148 $149 $55 $90 reversed $84 $-1 #
edge $-1 $150 -25.375350778562272 $151 25.375350778562272 $89 $152 forward 7 unknown #
face $-1 $153 $154 $20 $-1 $155 reversed single #
loop $-1 $-1 $97 $56 #
plane-surface $-1 0 0 6.2857176325069855 0 0 1 1 0 0 forward_v I I I I #
coedge $-1 $156 $157 $158 $159 reversed $57 $-1 #
coedge $-1 $96 $59 $160 $161 reversed $37 $-1 #
coedge $-1 $59 $95 $156 $162 reversed $37 $-1 #
coedge $-1 $158 $163 $59 $98 forward $92 $-1 #
edge $-1 $164 -2.1556287835375976 $165 2.4927677065703158 $97 $166 forward 7 unknown #
loop $-1 $-1 $104 $60 #
plane-surface $-1 39.845382245045641 -14.065351656506529 34.4599720440455 0 0.62932039886446345 0.77714595512881146 1 0 0 forward_v I I I I #
loop $-1 $-1 $167 $39 #
coedge $-1 $102 $102 $103 $168 reversed $61 $-1 #
coedge $-1 $103 $103 $102 $168 forward $63 $-1 #
coedge $-1 $104 $104 $64 $105 forward $99 $-1 #
edge $-1 $169 5.9271571888034139e-016 $169 6.2831853071796013 $104 $170 forward 7 unknown #
loop $-1 $-1 $111 $65 #
plane-surface $-1 39.845382245045641 -14.065351656506529 34.4599720440455 0 0.62932039886446345 0.77714595512881146 1 0 0 forward_v I I I I #
loop $-1 $-1 $171 $42 #
coedge $-1 $109 $109 $110 $172 reversed $66 $-1 #
coedge $-1 $110 $110 $109 $172 forward $68 $-1 #
coedge $-1 $111 $111 $69 $112 forward $106 $-1 #
edge $-1 $173 5.9271571888034139e-016 $173 6.2831853071796013 $111 $174 forward 7 unknown #
loop $-1 $-1 $118 $70 #
plane-surface $-1 39.845382245045641 -14.065351656506529 34.4599720440455 0 0.62932039886446345 0.77714595512881146 1 0 0 forward_v I I I I #
loop $-1 $-1 $175 $45 #
coedge $-1 $116 $116 $117 $176 reversed $71 $-1 #
coedge $-1 $117 $117 $116 $176 forward $73 $-1 #
coedge $-1 $118 $118 $74 $119 forward $113 $-1 #
edge $-1 $177 5.9271571888034139e-016 $177 6.2831853071796013 $118 $178 forward 7 unknown #
face $-1 $179 $180 $18 $-1 $181 reversed single #
loop $-1 $-1 $182 $75 #
plane-surface $-1 -48.071535386211735 0 0 1 0 0 0 0 -1 forward_v I I I I #
coedge $-1 $183 $131 $184 $185 forward $76 $-1 #
coedge $-1 $186 $78 $183 $187 forward $49 $-1 #
coedge $-1 $78 $186 $188 $189 forward $49 $-1 #
coedge $-1 $134 $133 $78 $127 reversed $135 $-1 #
edge $-1 $190 -25.375350778562272 $191 25.375350778562272 $126 $192 forward 7 unknown #
coedge $-1 $80 $79 $193 $194 forward $31 $-1 #
coedge $-1 $195 $196 $79 $130 reversed $180 $-1 #
edge $-1 $137 -48.071535386211735 $197 48.071535386211735 $129 $198 forward 7 unknown #
coedge $-1 $123 $199 $80 $132 reversed $76 $-1 #
edge $-1 $200 -48.071535386211735 $136 48.071535386211735 $131 $201 forward 7 unknown #
coedge $-1 $126 $81 $199 $202 forward $135 $-1 #
coedge $-1 $81 $126 $195 $203 reversed $135 $-1 #
loop $-1 $-1 $133 $179 #
vertex $-1 $82 $204 #
vertex $-1 $82 $205 #
straight-curve $-1 48.071535386211735 0 6.2857176325069855 0 1 0 I I #
face $-1 $206 $207 $19 $-1 $208 forward single #
loop $-1 $-1 $209 $83 #
plane-surface $-1 -53.730925675045654 0 4.7857176325069855 1 0 0 0 0 -1 forward_v I I I I #
coedge $-1 $210 $86 $149 $211 reversed $53 $-1 #
coedge $-1 $86 $210 $212 $213 reversed $53 $-1 #
edge $-1 $214 -6.2857176325069855 $151 -3.2857176325069855 $86 $215 forward 7 unknown #
coedge $-1 $88 $87 $216 $217 reversed $34 $-1 #
coedge $-1 $218 $219 $88 $147 forward $220 $-1 #
edge $-1 $150 3.2857176325069855 $221 6.2857176325069855 $146 $222 forward 7 unknown #
coedge $-1 $223 $89 $219 $224 forward $84 $-1 #
coedge $-1 $89 $223 $142 $211 forward $84 $-1 #
vertex $-1 $147 $225 #
vertex $-1 $144 $226 #
straight-curve $-1 -48.071535386211735 0 3.2857176325069855 0 1 0 I I #
face $-1 $-1 $227 $20 $-1 $228 reversed single #
loop $-1 $-1 $160 $91 #
plane-surface $-1 0 25.375350778562272 0 0 -1 0 0 0 -1 forward_v I I I I #
coedge $-1 $229 $94 $96 $162 forward $57 $-1 #
coedge $-1 $94 $229 $230 $231 reversed $57 $-1 #
coedge $-1 $232 $97 $94 $159 forward $92 $-1 #
edge $-1 $165 11.696537981356734 $233 28.148844263688908 $158 $234 forward 7 unknown #
coedge $-1 $235 $236 $95 $161 forward $154 $-1 #
edge $-1 $237 -52.06706500678419 $164 -48.302867671741744 $160 $238 forward 7 unknown #
edge $-1 $165 44.769332858708736 $237 50.750701557124529 $96 $239 forward 7 unknown #
coedge $-1 $97 $232 $235 $240 forward $92 $-1 #
vertex $-1 $98 $241 #
vertex $-1 $98 $242 #
straight-curve $-1 31.619229103879555 23.219721995024674 6.2857176325069872 0 -1 0 I I #
coedge $-1 $167 $167 $-1 $243 reversed $101 $-1 #
edge $-1 $244 0 $244 6.2831853071796004 $102 $245 forward 7 unknown #
vertex $-1 $105 $246 #
ellipse-curve $-1 34.909690360345991 23.051152533508311 4.4036189649857747 0 0.62932039886446345 0.77714595512881146 1 0 0 1 I I #
coedge $-1 $171 $171 $-1 $247 reversed $108 $-1 #
edge $-1 $248 0 $248 6.2831853071796004 $109 $249 forward 7 unknown #
vertex $-1 $112 $250 #
ellipse-curve $-1 39.845382245045641 23.051152533508311 4.4036189649857747 0 0.62932039886446345 0.77714595512881146 1 0 0 1 I I #
coedge $-1 $175 $175 $-1 $251 reversed $115 $-1 #
edge $-1 $252 0 $252 6.2831853071796004 $116 $253 forward 7 unknown #
vertex $-1 $119 $254 #
ellipse-curve $-1 44.781074129745292 23.051152533508311 4.4036189649857747 0 0.62932039886446345 0.77714595512881146 1 0 0 1 I I #
face $-1 $-1 $135 $18 $-1 $255 reversed single #
loop $-1 $-1 $195 $120 #
plane-surface $-1 0 25.375350778562272 0 0 -1 0 0 0 -1 forward_v I I I I #
coedge $-1 $256 $193 $196 $257 forward $121 $-1 #
coedge $-1 $199 $123 $124 $187 reversed $76 $-1 #
coedge $-1 $193 $256 $123 $185 reversed $121 $-1 #
edge $-1 $200 -6.2857176325069855 $258 6.2857176325069855 $184 $259 forward 7 unknown #
coedge $-1 $125 $124 $256 $260 forward $49 $-1 #
edge $-1 $191 -48.071535386211735 $258 48.071535386211735 $183 $261 forward 7 unknown #
coedge $-1 $196 $195 $125 $189 reversed $180 $-1 #
edge $-1 $262 -48.071535386211735 $190 48.071535386211735 $188 $263 forward 7 unknown #
vertex $-1 $127 $264 #
vertex $-1 $202 $265 #
straight-curve $-1 48.071535386211735 0 -6.2857176325069855 0 -1 0 I I #
coedge $-1 $182 $184 $128 $194 reversed $121 $-1 #
edge $-1 $197 -25.375350778562272 $200 25.375350778562272 $193 $266 forward 7 unknown #
coedge $-1 $188 $129 $134 $203 forward $180 $-1 #
coedge $-1 $129 $188 $182 $257 reversed $180 $-1 #
vertex $-1 $130 $267 #
straight-curve $-1 0 25.375350778562272 6.2857176325069855 -1 0 0 I I #
coedge $-1 $131 $183 $133 $202 reversed $76 $-1 #
vertex $-1 $194 $268 #
straight-curve $-1 0 -25.375350778562272 6.2857176325069855 1 0 0 I I #
edge $-1 $136 -6.2857176325069855 $191 6.2857176325069855 $133 $269 forward 7 unknown #
edge $-1 $137 -6.2857176325069855 $190 6.2857176325069855 $134 $270 forward 7 unknown #
point $-1 48.071535386211735 -25.375350778562272 6.2857176325069855 #
point $-1 48.071535386211735 25.375350778562272 6.2857176325069855 #
face $-1 $-1 $220 $19 $-1 $271 reversed single #
loop $-1 $-1 $216 $139 #
plane-surface $-1 0 0 6.2857176325069855 0 0 1 1 0 0 forward_v I I I I #
coedge $-1 $272 $273 $210 $274 forward $140 $-1 #
coedge $-1 $143 $142 $209 $274 reversed $53 $-1 #
edge $-1 $275 -2.8296951444169594 $151 2.8296951444169594 $142 $276 forward 7 unknown #
coedge $-1 $277 $216 $143 $213 forward $207 $-1 #
edge $-1 $214 48.071535386211735 $278 53.730925675045654 $143 $279 forward 7 unknown #
vertex $-1 $213 $280 #
straight-curve $-1 -48.071535386211735 25.375350778562272 0 0 0 -1 I I #
coedge $-1 $212 $281 $145 $217 forward $207 $-1 #
edge $-1 $221 -25.375350778562272 $214 25.375350778562272 $216 $282 forward 7 unknown #
coedge $-1 $283 $146 $281 $284 reversed $220 $-1 #
coedge $-1 $146 $283 $148 $224 reversed $220 $-1 #
loop $-1 $-1 $146 $206 #
vertex $-1 $147 $285 #
straight-curve $-1 -48.071535386211735 -25.375350778562272 0 0 0 1 I I #
coedge $-1 $149 $148 $272 $286 forward $84 $-1 #
edge $-1 $150 -2.8296951444169594 $287 2.8296951444169594 $219 $288 forward 7 unknown #
point $-1 -48.071535386211735 -25.375350778562272 3.2857176325069855 #
point $-1 -48.071535386211735 25.375350778562272 3.2857176325069855 #
loop $-1 $-1 $230 $153 #
plane-surface $-1 48.071535386211735 0 0 -1 0 0 0 0 1 forward_v I I I I #
coedge $-1 $157 $156 $236 $289 reversed $57 $-1 #
coedge $-1 $290 $291 $157 $231 forward $227 $-1 #
edge $-1 $233 28.460735609241063 $292 34.442104307656855 $230 $293 forward 7 unknown #
coedge $-1 $163 $158 $291 $294 forward $92 $-1 #
vertex $-1 $294 $295 #
straight-curve $-1 19.922691122522821 20.726954288454369 6.2857176325069801 1 0 0 I I #
coedge $-1 $296 $160 $163 $240 reversed $154 $-1 #
coedge $-1 $160 $296 $229 $289 forward $154 $-1 #
vertex $-1 $161 $297 #
straight-curve $-1 31.619229103879555 25.375350778562272 54.588585304248731 0 0 1 I I #
straight-curve $-1 31.619229103879555 -14.065351656506529 34.4599720440455 0 0.77714595512881146 -0.62932039886446345 I I #
edge $-1 $298 -48.071535386211735 $164 -31.619229103879555 $235 $299 forward 7 unknown #
point $-1 31.619229103879555 25.375350778562272 6.2857176325069855 #
point $-1 31.619229103879555 20.726954288454358 6.2857176325069872 #
edge $-1 $300 1 $300 0 $167 $-1 forward 7 unknown #
vertex $-1 $168 $301 #
ellipse-curve $-1 34.909690360345991 21.939283380669735 3.0305749379366911 0 0.62932039886446345 0.77714595512881146 1 0 0 1 I I #
point $-1 35.909690360345991 23.051152533508308 4.4036189649857693 #
edge $-1 $302 1 $302 0 $171 $-1 forward 7 unknown #
vertex $-1 $172 $303 #
ellipse-curve $-1 39.845382245045641 21.939283380669735 3.0305749379366911 0 0.62932039886446345 0.77714595512881146 1 0 0 1 I I #
point $-1 40.845382245045641 23.051152533508308 4.4036189649857693 #
edge $-1 $304 1 $304 0 $175 $-1 forward 7 unknown #
vertex $-1 $176 $305 #
ellipse-curve $-1 44.781074129745292 21.939283380669735 3.0305749379366911 0 0.62932039886446345 0.77714595512881146 1 0 0 1 I I #
point $-1 45.781074129745292 23.051152533508308 4.4036189649857693 #
plane-surface $-1 48.071535386211735 0 0 -1 0 0 0 0 1 forward_v I I I I #
coedge $-1 $184 $182 $186 $260 reversed $121 $-1 #
edge $-1 $197 -6.2857176325069855 $262 6.2857176325069855 $196 $306 forward 7 unknown #
vertex $-1 $260 $307 #
straight-curve $-1 -48.071535386211735 -25.375350778562272 0 0 0 -1 I I #
edge $-1 $258 -25.375350778562272 $262 25.375350778562272 $256 $308 forward 7 unknown #
straight-curve $-1 0 -25.375350778562272 -6.2857176325069855 -1 0 0 I I #
vertex $-1 $189 $309 #
straight-curve $-1 0 25.375350778562272 -6.2857176325069855 1 0 0 I I #
point $-1 48.071535386211735 25.375350778562272 -6.2857176325069855 #
point $-1 48.071535386211735 -25.375350778562272 -6.2857176325069855 #
straight-curve $-1 -48.071535386211735 0 6.2857176325069855 0 -1 0 I I #
point $-1 -48.071535386211735 25.375350778562272 6.2857176325069855 #
point $-1 -48.071535386211735 -25.375350778562272 6.2857176325069855 #
straight-curve $-1 48.071535386211735 -25.375350778562272 0 0 0 -1 I I #
straight-curve $-1 48.071535386211735 25.375350778562272 0 0 0 -1 I I #
plane-surface $-1 0 -25.375350778562272 0 0 1 0 0 0 1 forward_v I I I I #
coedge $-1 $310 $209 $223 $286 reversed $140 $-1 #
coedge $-1 $209 $310 $277 $311 reversed $140 $-1 #
edge $-1 $278 -1.5 $275 1.5 $210 $312 forward 7 unknown #
vertex $-1 $211 $313 #
straight-curve $-1 -50.901230530628695 25.375350778562272 3.2857176325069855 1 0 0 I I #
coedge $-1 $281 $212 $273 $311 forward $207 $-1 #
vertex $-1 $213 $314 #
straight-curve $-1 0 25.375350778562272 6.2857176325069855 -1 0 0 I I #
point $-1 -48.071535386211735 25.375350778562272 6.2857176325069855 #
coedge $-1 $216 $277 $218 $284 forward $207 $-1 #
straight-curve $-1 -48.071535386211735 0 6.2857176325069855 0 1 0 I I #
coedge $-1 $219 $218 $310 $315 forward $220 $-1 #
edge $-1 $316 -53.730925675045654 $221 -48.071535386211735 $218 $317 forward 7 unknown #
point $-1 -48.071535386211735 -25.375350778562272 6.2857176325069855 #
edge $-1 $287 -25.375350778562272 $275 25.375350778562272 $272 $318 forward 7 unknown #
vertex $-1 $286 $319 #
straight-curve $-1 -50.901230530628695 -25.375350778562272 3.2857176325069855 -1 0 0 I I #
edge $-1 $292 -28.148844263688908 $237 -11.696537981356734 $236 $320 forward 7 unknown #
coedge $-1 $291 $230 $296 $321 reversed $227 $-1 #
coedge $-1 $230 $290 $232 $294 reversed $227 $-1 #
vertex $-1 $231 $322 #
straight-curve $-1 48.071535386211735 -1.3911912702578642 24.196639118090612 0 0.77714595512881146 -0.62932039886446345 I I #
edge $-1 $233 20.726954288454358 $298 25.375350778562272 $291 $323 forward 7 unknown #
point $-1 48.071535386211728 20.726954288454358 6.2857176325069872 #
coedge $-1 $236 $235 $290 $321 forward $154 $-1 #
point $-1 31.619229103879555 25.375350778562272 2.5215202974645443 #
vertex $-1 $294 $324 #
straight-curve $-1 0 25.375350778562272 6.2857176325069855 -1 0 0 I I #
vertex $-1 $243 $325 #
point $-1 35.909690360345991 21.939283380669735 3.0305749379366911 #
vertex $-1 $247 $326 #
point $-1 40.845382245045641 21.939283380669735 3.0305749379366911 #
vertex $-1 $251 $327 #
point $-1 45.781074129745292 21.939283380669735 3.0305749379366911 #
straight-curve $-1 -48.071535386211735 25.375350778562272 0 0 0 -1 I I #
point $-1 -48.071535386211735 -25.375350778562272 -6.2857176325069855 #
straight-curve $-1 -48.071535386211735 0 -6.2857176325069855 0 1 0 I I #
point $-1 -48.071535386211735 25.375350778562272 -6.2857176325069855 #
coedge $-1 $273 $272 $283 $315 reversed $140 $-1 #
edge $-1 $278 -25.375350778562272 $316 25.375350778562272 $273 $328 forward 7 unknown #
straight-curve $-1 -53.730925675045654 25.375350778562272 4.7857176325069855 0 0 -1 I I #
point $-1 -53.730925675045654 25.375350778562272 3.2857176325069855 #
point $-1 -53.730925675045654 25.375350778562272 6.2857176325069855 #
edge $-1 $316 -1.5 $287 1.5 $310 $329 forward 7 unknown #
vertex $-1 $311 $330 #
straight-curve $-1 0 -25.375350778562272 6.2857176325069855 1 0 0 I I #
straight-curve $-1 -53.730925675045654 0 3.2857176325069855 0 1 0 I I #
point $-1 -53.730925675045654 -25.375350778562272 3.2857176325069855 #
straight-curve $-1 19.922691122522821 25.375350778562268 2.5215202974645461 -1 0 0 I I #
edge $-1 $298 -6.2857176325069855 $292 -2.5215202974645443 $290 $331 forward 7 unknown #
point $-1 48.071535386211728 25.375350778562272 2.5215202974645443 #
straight-curve $-1 48.071535386211735 0 6.2857176325069855 0 1 0 I I #
point $-1 48.071535386211735 25.375350778562272 6.2857176325069855 #
point $-1 34.909690360345991 21.30996298180527 2.2534289828078795 #
point $-1 39.845382245045641 21.30996298180527 2.2534289828078795 #
point $-1 44.781074129745292 21.30996298180527 2.2534289828078795 #
straight-curve $-1 -53.730925675045654 0 6.2857176325069855 0 -1 0 I I #
straight-curve $-1 -53.730925675045654 -25.375350778562272 4.7857176325069855 0 0 -1 I I #
point $-1 -53.730925675045654 -25.375350778562272 6.2857176325069855 #
straight-curve $-1 48.071535386211735 25.375350778562272 0 0 0 -1 I I #
End-of-ACIS-data 