500 0 10 0           
7 Unknown 11 ACIS 5.0 NT 24 Fri Mar 26 16:38:25 1999 
-1 9.9999999999999995e-007 1e-010 
body $-1 $10 $-1 $11 #
body $-1 $12 $-1 $13 #
body $-1 $14 $-1 $15 #
body $-1 $16 $-1 $17 #
body $-1 $18 $-1 $19 #
body $-1 $20 $-1 $21 #
body $-1 $22 $-1 $23 #
body $-1 $24 $-1 $25 #
body $-1 $26 $-1 $27 #
body $-1 $28 $-1 $29 #
lump $-1 $-1 $30 $0 #
transform $-1 1 0 0 0 1 0 0 0 1 65.478072450941497 36.007244712470317 8.3631927429647686 1 rotate no_reflect no_shear #
lump $-1 $-1 $31 $1 #
transform $-1 1 0 0 0 1 0 0 0 1 65.478072450941497 36.007244712470317 8.3631927429647686 1 rotate no_reflect no_shear #
lump $-1 $-1 $32 $2 #
transform $-1 1 0 0 0 1 0 0 0 1 65.478072450941497 36.007244712470317 8.3631927429647686 1 rotate no_reflect no_shear #
lump $-1 $-1 $33 $3 #
transform $-1 1 0 0 0 1 0 0 0 1 65.478072450941497 36.007244712470317 8.3631927429647686 1 rotate no_reflect no_shear #
lump $-1 $-1 $34 $4 #
transform $-1 1 0 0 0 1 0 0 0 1 65.478072450941497 36.007244712470317 8.3631927429647686 1 rotate no_reflect no_shear #
lump $-1 $-1 $35 $5 #
transform $-1 1 0 0 0 1 0 0 0 1 65.478072450941497 36.007244712470317 8.3631927429647686 1 rotate no_reflect no_shear #
lump $-1 $-1 $36 $6 #
transform $-1 1 0 0 0 1 0 0 0 1 65.478072450941497 36.007244712470317 8.3631927429647686 1 rotate no_reflect no_shear #
lump $-1 $-1 $37 $7 #
transform $-1 1 0 0 0 1 0 0 0 1 65.478072450941497 36.007244712470317 8.3631927429647686 1 rotate no_reflect no_shear #
lump $-1 $-1 $38 $8 #
transform $-1 1 0 0 0 1 0 0 0 1 65.478072450941497 36.007244712470317 8.3631927429647686 1 rotate no_reflect no_shear #
lump $-1 $-1 $39 $9 #
transform $-1 1 0 0 0 1 0 0 0 1 65.478072450941497 36.007244712470317 8.3631927429647686 1 rotate no_reflect no_shear #
shell $-1 $-1 $-1 $40 $-1 $10 #
shell $-1 $-1 $-1 $41 $-1 $12 #
shell $-1 $-1 $-1 $42 $-1 $14 #
shell $-1 $-1 $-1 $43 $-1 $16 #
shell $-1 $-1 $-1 $44 $-1 $18 #
shell $-1 $-1 $-1 $45 $-1 $20 #
shell $-1 $-1 $-1 $46 $-1 $22 #
shell $-1 $-1 $-1 $47 $-1 $24 #
shell $-1 $-1 $-1 $48 $-1 $26 #
shell $-1 $-1 $-1 $49 $-1 $28 #
face $-1 $50 $51 $30 $-1 $52 forward single #
face $-1 $53 $54 $31 $-1 $55 forward single #
face $-1 $56 $57 $32 $-1 $58 reversed single #
face $-1 $59 $60 $33 $-1 $61 forward single #
face $-1 $62 $63 $34 $-1 $64 forward single #
face $-1 $65 $66 $35 $-1 $67 reversed single #
face $-1 $68 $69 $36 $-1 $70 forward single #
face $-1 $71 $72 $37 $-1 $73 forward single #
face $-1 $74 $75 $38 $-1 $76 reversed single #
face $-1 $77 $78 $39 $-1 $79 forward single #
face $-1 $80 $81 $30 $-1 $82 reversed single #
loop $-1 $-1 $83 $40 #
plane-surface $-1 0 0 8.3631927429647686 0 0 1 1 0 0 forward_v I I I I #
face $-1 $84 $85 $31 $-1 $86 reversed single #
loop $-1 $-1 $87 $41 #
plane-surface $-1 -61.664122716462074 0 -5.3631927429647686 0 0 1 1 0 0 forward_v I I I I #
face $-1 $88 $89 $32 $-1 $90 reversed single #
loop $-1 $-1 $91 $42 #
plane-surface $-1 -21.408552707975677 -136.32547289202796 86.007382022680247 1 0 0 0 0.7660444514056185 -0.64278759981090561 forward_v I I I I #
face $-1 $92 $93 $33 $-1 $94 forward single #
loop $-1 $95 $96 $43 #
cone-surface $-1 -14.202123438702792 -31.241362410312782 3.3975767885686867 0 0.7660444514056185 -0.64278759981090561 2 0 0 1 I I 0 1 2 forward I I I I #
face $-1 $97 $98 $34 $-1 $99 forward single #
loop $-1 $100 $101 $44 #
cone-surface $-1 -3.3924795347934662 -31.241362410312782 3.3975767885686867 0 0.7660444514056185 -0.64278759981090561 2 0 0 1 I I 0 1 2 forward I I I I #
face $-1 $102 $103 $35 $-1 $104 reversed single #
loop $-1 $-1 $105 $45 #
plane-surface $-1 29.036452176934521 -136.32547289202796 86.007382022680247 -1 0 0 0 -0.7660444514056185 0.64278759981090561 forward_v I I I I #
face $-1 $106 $107 $36 $-1 $108 forward single #
loop $-1 $109 $110 $46 #
cone-surface $-1 11.020379003752296 -31.241362410312782 3.3975767885686867 0 0.7660444514056185 -0.64278759981090561 2 0 0 1 I I 0 1 2 forward I I I I #
face $-1 $111 $112 $37 $-1 $113 forward single #
loop $-1 $114 $115 $47 #
cone-surface $-1 21.830022907661629 -31.241362410312782 3.3975767885686867 0 0.7660444514056185 -0.64278759981090561 2 0 0 1 I I 0 1 2 forward I I I I #
face $-1 $116 $117 $38 $-1 $118 reversed single #
loop $-1 $-1 $119 $48 #
plane-surface $-1 -57.850172981982659 75.17414012339745 144.62746028491935 1 0 0 0 -0.69465837861970381 -0.71933979245794832 forward_v I I I I #
face $-1 $120 $121 $39 $-1 $122 forward single #
loop $-1 $123 $124 $49 #
cone-surface $-1 -45.094862536720406 31.044782830330774 3.5123731423045648 0 -0.69465837861970381 -0.71933979245794832 2 0 0 1 I I 0 1 2 forward I I I I #
face $-1 $125 $126 $30 $-1 $127 reversed single #
loop $-1 $-1 $128 $50 #
plane-surface $-1 0 0 -8.3631927429647686 0 0 1 1 0 0 forward_v I I I I #
coedge $-1 $129 $130 $131 $132 forward $51 $-1 #
face $-1 $133 $134 $31 $-1 $135 reversed single #
loop $-1 $-1 $136 $53 #
plane-surface $-1 -57.850172981982652 0 -6.8631927429647686 -1 0 0 0 0 1 forward_v I I I I #
coedge $-1 $137 $138 $139 $140 forward $54 $-1 #
face $-1 $141 $142 $32 $-1 $143 reversed single #
loop $-1 $-1 $144 $56 #
plane-surface $-1 -8.7973014867481254 -36.007244712470325 1.8303959607097084 0 -0.7660444514056185 0.64278759981090561 1 0 0 forward_v I I I I #
coedge $-1 $145 $146 $147 $148 reversed $57 $-1 #
face $-1 $-1 $149 $33 $-1 $150 forward single #
loop $-1 $151 $152 $59 #
cone-surface $-1 -14.202123438702792 -28.450269270264481 1.0555716254892289 0 0.7660444514056185 -0.64278759981090561 1 0 0 1 I I -0.70710678118654746 0.70710678118654746 1 forward I I I I #
loop $-1 $-1 $153 $43 #
coedge $-1 $96 $96 $154 $155 reversed $60 $-1 #
face $-1 $-1 $156 $34 $-1 $157 forward single #
loop $-1 $158 $159 $62 #
cone-surface $-1 -3.3924795347934662 -28.450269270264481 1.0555716254892289 0 0.7660444514056185 -0.64278759981090561 1 0 0 1 I I -0.70710678118654746 0.70710678118654746 1 forward I I I I #
loop $-1 $-1 $160 $44 #
coedge $-1 $101 $101 $161 $162 reversed $63 $-1 #
face $-1 $163 $164 $35 $-1 $165 forward single #
loop $-1 $-1 $166 $65 #
plane-surface $-1 -8.7973014867481254 -36.007244712470325 1.8303959607097084 0 -0.7660444514056185 0.64278759981090561 1 0 0 forward_v I I I I #
coedge $-1 $167 $168 $169 $170 reversed $66 $-1 #
face $-1 $-1 $171 $36 $-1 $172 forward single #
loop $-1 $173 $174 $68 #
cone-surface $-1 11.020379003752296 -28.450269270264481 1.0555716254892289 0 0.7660444514056185 -0.64278759981090561 1 0 0 1 I I -0.70710678118654746 0.70710678118654746 1 forward I I I I #
loop $-1 $-1 $175 $46 #
coedge $-1 $110 $110 $176 $177 reversed $69 $-1 #
face $-1 $-1 $178 $37 $-1 $179 forward single #
loop $-1 $180 $181 $71 #
cone-surface $-1 21.830022907661629 -28.450269270264481 1.0555716254892289 0 0.7660444514056185 -0.64278759981090561 1 0 0 1 I I -0.70710678118654746 0.70710678118654746 1 forward I I I I #
loop $-1 $-1 $182 $47 #
coedge $-1 $115 $115 $183 $184 reversed $72 $-1 #
face $-1 $185 $186 $38 $-1 $187 reversed single #
loop $-1 $-1 $188 $74 #
plane-surface $-1 -45.094862536720406 -15.795643164431581 50.425494190105837 0 0.69465837861970381 0.71933979245794832 1 0 0 forward_v I I I I #
coedge $-1 $189 $190 $191 $192 reversed $75 $-1 #
face $-1 $-1 $193 $39 $-1 $194 forward single #
loop $-1 $195 $196 $77 #
cone-surface $-1 -45.094862536720406 29.510712894307368 1.9237972561434251 0 -0.69465837861970381 -0.71933979245794832 1 0 0 1 I I -0.70710678118654746 0.70710678118654746 1 forward I I I I #
loop $-1 $-1 $197 $49 #
coedge $-1 $124 $124 $198 $199 reversed $78 $-1 #
face $-1 $200 $201 $30 $-1 $202 reversed single #
loop $-1 $-1 $203 $80 #
plane-surface $-1 0 -36.007244712470317 0 0 1 0 0 0 1 forward_v I I I I #
coedge $-1 $204 $205 $206 $207 forward $81 $-1 #
coedge $-1 $208 $83 $209 $210 forward $51 $-1 #
coedge $-1 $83 $208 $211 $212 forward $51 $-1 #
coedge $-1 $213 $214 $83 $132 reversed $215 $-1 #
edge $-1 $216 -36.007244712470317 $217 36.007244712470317 $131 $218 forward 7 unknown #
face $-1 $219 $220 $31 $-1 $221 reversed single #
loop $-1 $-1 $222 $84 #
plane-surface $-1 0 0 -8.3631927429647686 0 0 1 1 0 0 forward_v I I I I #
coedge $-1 $223 $139 $224 $225 reversed $85 $-1 #
coedge $-1 $226 $87 $227 $228 reversed $54 $-1 #
coedge $-1 $87 $226 $229 $230 reversed $54 $-1 #
coedge $-1 $136 $231 $87 $140 reversed $85 $-1 #
edge $-1 $232 -36.007244712470317 $233 36.007244712470317 $139 $234 forward 7 unknown #
face $-1 $235 $236 $32 $-1 $237 forward single #
loop $-1 $-1 $238 $88 #
plane-surface $-1 3.8139497344794258 -136.32547289202796 86.007382022680247 -1 0 0 0 -0.7660444514056185 0.64278759981090561 forward_v I I I I #
coedge $-1 $239 $240 $241 $242 reversed $89 $-1 #
coedge $-1 $146 $91 $243 $244 reversed $57 $-1 #
coedge $-1 $91 $145 $239 $245 reversed $57 $-1 #
coedge $-1 $241 $246 $91 $148 forward $247 $-1 #
edge $-1 $248 34.640498268375353 $249 41.173295050630408 $147 $250 forward 7 unknown #
loop $-1 $-1 $154 $92 #
plane-surface $-1 -8.7973014867481254 -36.007244712470325 1.8303959607097084 0 -0.7660444514056185 0.64278759981090561 1 0 0 forward_v I I I I #
loop $-1 $-1 $251 $59 #
coedge $-1 $152 $152 $153 $252 reversed $93 $-1 #
coedge $-1 $153 $153 $152 $252 forward $95 $-1 #
coedge $-1 $154 $154 $96 $155 forward $149 $-1 #
edge $-1 $253 1.6032561481420549e-015 $253 6.2831853071796022 $154 $254 forward 7 unknown #
loop $-1 $-1 $161 $97 #
plane-surface $-1 -8.7973014867481254 -36.007244712470325 1.8303959607097084 0 -0.7660444514056185 0.64278759981090561 1 0 0 forward_v I I I I #
loop $-1 $-1 $255 $62 #
coedge $-1 $159 $159 $160 $256 reversed $98 $-1 #
coedge $-1 $160 $160 $159 $256 forward $100 $-1 #
coedge $-1 $161 $161 $101 $162 forward $156 $-1 #
edge $-1 $257 1.6032561481420549e-015 $257 6.2831853071796022 $161 $258 forward 7 unknown #
face $-1 $259 $260 $35 $-1 $261 forward single #
loop $-1 $-1 $262 $102 #
plane-surface $-1 0 0 8.3631927429647686 0 0 1 1 0 0 forward_v I I I I #
coedge $-1 $263 $264 $265 $266 reversed $103 $-1 #
coedge $-1 $168 $105 $267 $268 reversed $66 $-1 #
coedge $-1 $105 $167 $262 $269 reversed $66 $-1 #
coedge $-1 $270 $271 $105 $170 forward $272 $-1 #
edge $-1 $273 -41.173295050630408 $274 -34.640498268375353 $169 $275 forward 7 unknown #
loop $-1 $-1 $176 $106 #
plane-surface $-1 -8.7973014867481254 -36.007244712470325 1.8303959607097084 0 -0.7660444514056185 0.64278759981090561 1 0 0 forward_v I I I I #
loop $-1 $-1 $276 $68 #
coedge $-1 $174 $174 $175 $277 reversed $107 $-1 #
coedge $-1 $175 $175 $174 $277 forward $109 $-1 #
coedge $-1 $176 $176 $110 $177 forward $171 $-1 #
edge $-1 $278 1.6032561481420549e-015 $278 6.2831853071796022 $176 $279 forward 7 unknown #
loop $-1 $-1 $183 $111 #
plane-surface $-1 -8.7973014867481254 -36.007244712470325 1.8303959607097084 0 -0.7660444514056185 0.64278759981090561 1 0 0 forward_v I I I I #
loop $-1 $-1 $280 $71 #
coedge $-1 $181 $181 $182 $281 reversed $112 $-1 #
coedge $-1 $182 $182 $181 $281 forward $114 $-1 #
coedge $-1 $183 $183 $115 $184 forward $178 $-1 #
edge $-1 $282 1.6032561481420549e-015 $282 6.2831853071796022 $183 $283 forward 7 unknown #
face $-1 $284 $285 $38 $-1 $286 reversed single #
loop $-1 $-1 $287 $116 #
plane-surface $-1 -32.339552091458152 75.17414012339745 144.62746028491935 -1 0 0 0 0.69465837861970381 0.71933979245794832 forward_v I I I I #
coedge $-1 $288 $289 $290 $291 reversed $117 $-1 #
coedge $-1 $190 $119 $292 $293 reversed $75 $-1 #
coedge $-1 $119 $189 $288 $294 reversed $75 $-1 #
coedge $-1 $290 $295 $119 $192 forward $296 $-1 #
edge $-1 $297 1.5798253492284076 $298 9.8259259987000647 $191 $299 forward 7 unknown #
loop $-1 $-1 $198 $120 #
plane-surface $-1 -45.094862536720406 -15.795643164431581 50.425494190105837 0 0.69465837861970381 0.71933979245794832 1 0 0 forward_v I I I I #
loop $-1 $-1 $300 $77 #
coedge $-1 $196 $196 $197 $301 reversed $121 $-1 #
coedge $-1 $197 $197 $196 $301 forward $123 $-1 #
coedge $-1 $198 $198 $124 $199 forward $193 $-1 #
edge $-1 $302 1.1462751653525323e-015 $302 6.2831853071796013 $198 $303 forward 7 unknown #
face $-1 $304 $305 $30 $-1 $306 reversed single #
loop $-1 $-1 $307 $125 #
plane-surface $-1 -65.478072450941497 0 0 1 0 0 0 0 -1 forward_v I I I I #
coedge $-1 $308 $211 $309 $310 forward $126 $-1 #
coedge $-1 $311 $128 $308 $312 forward $81 $-1 #
coedge $-1 $128 $311 $313 $314 forward $81 $-1 #
coedge $-1 $214 $213 $128 $207 reversed $215 $-1 #
edge $-1 $315 -36.007244712470317 $316 36.007244712470317 $206 $317 forward 7 unknown #
coedge $-1 $130 $129 $318 $319 forward $51 $-1 #
coedge $-1 $320 $321 $129 $210 reversed $305 $-1 #
edge $-1 $217 -65.478072450941497 $322 65.478072450941497 $209 $323 forward 7 unknown #
coedge $-1 $203 $324 $130 $212 reversed $126 $-1 #
edge $-1 $325 -65.478072450941497 $216 65.478072450941497 $211 $326 forward 7 unknown #
coedge $-1 $206 $131 $324 $327 forward $215 $-1 #
coedge $-1 $131 $206 $320 $328 reversed $215 $-1 #
loop $-1 $-1 $213 $304 #
vertex $-1 $132 $329 #
vertex $-1 $132 $330 #
straight-curve $-1 65.478072450941497 0 8.3631927429647686 0 1 0 I I #
face $-1 $331 $332 $31 $-1 $333 reversed single #
loop $-1 $-1 $224 $133 #
plane-surface $-1 0 -36.007244712470317 0 0 1 0 0 0 1 forward_v I I I I #
coedge $-1 $334 $335 $223 $336 forward $134 $-1 #
coedge $-1 $231 $136 $222 $336 reversed $85 $-1 #
coedge $-1 $229 $337 $136 $225 forward $220 $-1 #
edge $-1 $338 -4.9315963714823843 $232 -1.9315963714823843 $224 $339 forward 7 unknown #
coedge $-1 $138 $137 $340 $341 reversed $54 $-1 #
coedge $-1 $342 $343 $137 $228 forward $344 $-1 #
edge $-1 $345 -34.646011092710459 $233 -27.018111623751615 $227 $346 forward 7 unknown #
coedge $-1 $347 $224 $138 $230 forward $220 $-1 #
edge $-1 $232 27.018111623751615 $348 34.646011092710459 $229 $349 forward 7 unknown #
coedge $-1 $139 $223 $342 $350 reversed $85 $-1 #
vertex $-1 $230 $351 #
vertex $-1 $228 $352 #
straight-curve $-1 -57.850172981982652 0 -5.3631927429647686 0 1 0 I I #
face $-1 $-1 $247 $32 $-1 $353 reversed single #
loop $-1 $-1 $354 $141 #
plane-surface $-1 0 0 8.3631927429647686 0 0 1 1 0 0 forward_v I I I I #
coedge $-1 $355 $356 $357 $358 reversed $142 $-1 #
coedge $-1 $359 $144 $146 $245 forward $89 $-1 #
coedge $-1 $144 $359 $355 $360 forward $89 $-1 #
coedge $-1 $357 $147 $144 $242 forward $247 $-1 #
edge $-1 $249 -17.009901964601614 $361 8.2126004778534885 $241 $362 forward 7 unknown #
coedge $-1 $363 $364 $145 $244 forward $236 $-1 #
edge $-1 $365 -37.637158960573373 $248 -32.155491733543663 $243 $366 forward 7 unknown #
edge $-1 $249 1.1030930024383267e-014 $365 8.5279604470315036 $146 $367 forward 7 unknown #
coedge $-1 $147 $357 $363 $368 reversed $247 $-1 #
loop $-1 $-1 $357 $235 #
vertex $-1 $368 $369 #
vertex $-1 $148 $370 #
straight-curve $-1 -21.408552707975677 -36.007244712470317 43.003691011340123 0 0 -1 I I #
coedge $-1 $251 $251 $-1 $371 reversed $151 $-1 #
edge $-1 $372 0 $372 6.2831853071796004 $152 $373 forward 7 unknown #
vertex $-1 $155 $374 #
ellipse-curve $-1 -14.202123438702792 -33.266411098955466 5.0967943518372412 0 -0.7660444514056185 0.64278759981090561 2 0 0 1 I I #
coedge $-1 $255 $255 $-1 $375 reversed $158 $-1 #
edge $-1 $376 0 $376 6.2831853071796004 $159 $377 forward 7 unknown #
vertex $-1 $162 $378 #
ellipse-curve $-1 -3.3924795347934662 -33.266411098955466 5.0967943518372412 0 -0.7660444514056185 0.64278759981090561 2 0 0 1 I I #
face $-1 $-1 $272 $35 $-1 $379 reversed single #
loop $-1 $-1 $380 $163 #
plane-surface $-1 3.8139497344794258 -136.32547289202796 86.007382022680247 -1 0 0 0 -0.7660444514056185 0.64278759981090561 forward_v I I I I #
coedge $-1 $381 $382 $168 $269 forward $164 $-1 #
coedge $-1 $267 $166 $381 $383 reversed $103 $-1 #
coedge $-1 $166 $267 $271 $384 reversed $103 $-1 #
coedge $-1 $380 $385 $166 $266 forward $260 $-1 #
edge $-1 $386 -8.5279604470315036 $387 -1.1030930024383267e-014 $265 $388 forward 7 unknown #
coedge $-1 $264 $263 $167 $268 forward $103 $-1 #
edge $-1 $389 -8.5279604470315036 $273 -1.1030930024383267e-014 $167 $390 forward 7 unknown #
edge $-1 $274 32.155491733543663 $389 37.637158960573373 $262 $391 forward 7 unknown #
coedge $-1 $392 $169 $382 $393 reversed $272 $-1 #
coedge $-1 $169 $392 $264 $384 forward $272 $-1 #
loop $-1 $-1 $169 $259 #
vertex $-1 $170 $394 #
vertex $-1 $269 $395 #
straight-curve $-1 29.036452176934521 -36.007244712470317 43.003691011340123 0 0 1 I I #
coedge $-1 $276 $276 $-1 $396 reversed $173 $-1 #
edge $-1 $397 0 $397 6.2831853071796004 $174 $398 forward 7 unknown #
vertex $-1 $177 $399 #
ellipse-curve $-1 11.020379003752296 -33.266411098955466 5.0967943518372412 0 -0.7660444514056185 0.64278759981090561 2 0 0 1 I I #
coedge $-1 $280 $280 $-1 $400 reversed $180 $-1 #
edge $-1 $401 0 $401 6.2831853071796004 $181 $402 forward 7 unknown #
vertex $-1 $184 $403 #
ellipse-curve $-1 21.830022907661629 -33.266411098955466 5.0967943518372412 0 -0.7660444514056185 0.64278759981090561 2 0 0 1 I I #
face $-1 $-1 $296 $38 $-1 $404 forward single #
loop $-1 $-1 $405 $185 #
plane-surface $-1 0 36.007244712470317 0 0 -1 0 0 0 -1 forward_v I I I I #
coedge $-1 $406 $407 $408 $409 reversed $186 $-1 #
coedge $-1 $410 $188 $190 $294 forward $117 $-1 #
coedge $-1 $188 $410 $406 $411 forward $117 $-1 #
coedge $-1 $408 $191 $188 $291 forward $296 $-1 #
edge $-1 $298 -35.302741713622453 $412 -9.7921208230979495 $290 $413 forward 7 unknown #
coedge $-1 $414 $415 $189 $293 forward $285 $-1 #
edge $-1 $416 -71.913704413408894 $297 -63.950537399494905 $292 $417 forward 7 unknown #
edge $-1 $298 60.551060408598914 $416 72.014489424940621 $190 $418 forward 7 unknown #
coedge $-1 $191 $408 $414 $419 forward $296 $-1 #
loop $-1 $-1 $408 $284 #
vertex $-1 $293 $420 #
vertex $-1 $192 $421 #
straight-curve $-1 -57.850172981982659 37.587070061698725 8.3631927429647703 0 -1 0 I I #
coedge $-1 $300 $300 $-1 $422 reversed $195 $-1 #
edge $-1 $423 0 $423 6.2831853071796004 $196 $424 forward 7 unknown #
vertex $-1 $199 $425 #
ellipse-curve $-1 -45.094862536720406 31.884194387734489 4.3816092360077672 0 0.69465837861970381 0.71933979245794832 2 0 0 1 I I #
face $-1 $-1 $215 $30 $-1 $426 reversed single #
loop $-1 $-1 $320 $200 #
plane-surface $-1 0 36.007244712470317 0 0 -1 0 0 0 -1 forward_v I I I I #
coedge $-1 $427 $318 $321 $428 forward $201 $-1 #
coedge $-1 $324 $203 $204 $312 reversed $126 $-1 #
coedge $-1 $318 $427 $203 $310 reversed $201 $-1 #
edge $-1 $325 -8.3631927429647686 $429 8.3631927429647686 $309 $430 forward 7 unknown #
coedge $-1 $205 $204 $427 $431 forward $81 $-1 #
edge $-1 $316 -65.478072450941497 $429 65.478072450941497 $308 $432 forward 7 unknown #
coedge $-1 $321 $320 $205 $314 reversed $305 $-1 #
edge $-1 $433 -65.478072450941497 $315 65.478072450941497 $313 $434 forward 7 unknown #
vertex $-1 $207 $435 #
vertex $-1 $327 $436 #
straight-curve $-1 65.478072450941497 0 -8.3631927429647686 0 -1 0 I I #
coedge $-1 $307 $309 $208 $319 reversed $201 $-1 #
edge $-1 $322 -36.007244712470317 $325 36.007244712470317 $318 $437 forward 7 unknown #
coedge $-1 $313 $209 $214 $328 forward $305 $-1 #
coedge $-1 $209 $313 $307 $428 reversed $305 $-1 #
vertex $-1 $210 $438 #
straight-curve $-1 0 36.007244712470317 8.3631927429647686 -1 0 0 I I #
coedge $-1 $211 $308 $213 $327 reversed $126 $-1 #
vertex $-1 $319 $439 #
straight-curve $-1 0 -36.007244712470317 8.3631927429647686 1 0 0 I I #
edge $-1 $216 -8.3631927429647686 $316 8.3631927429647686 $213 $440 forward 7 unknown #
edge $-1 $217 -8.3631927429647686 $315 8.3631927429647686 $214 $441 forward 7 unknown #
point $-1 65.478072450941497 -36.007244712470317 8.3631927429647686 #
point $-1 65.478072450941497 36.007244712470317 8.3631927429647686 #
face $-1 $-1 $344 $31 $-1 $442 reversed single #
loop $-1 $-1 $340 $219 #
plane-surface $-1 -65.478072450941497 0 0 1 0 0 0 0 -1 forward_v I I I I #
coedge $-1 $443 $222 $337 $444 forward $134 $-1 #
coedge $-1 $222 $443 $445 $446 forward $134 $-1 #
edge $-1 $447 -36.007244712470317 $338 36.007244712470317 $222 $448 forward 7 unknown #
coedge $-1 $224 $347 $334 $444 reversed $220 $-1 #
vertex $-1 $444 $449 #
straight-curve $-1 -57.850172981982652 -36.007244712470317 -3.4315963714823843 0 0 1 I I #
coedge $-1 $450 $451 $226 $341 forward $332 $-1 #
edge $-1 $348 -36.007244712470317 $345 36.007244712470317 $340 $452 forward 7 unknown #
coedge $-1 $445 $227 $231 $350 forward $344 $-1 #
coedge $-1 $227 $445 $450 $453 reversed $344 $-1 #
loop $-1 $-1 $342 $331 #
vertex $-1 $453 $454 #
straight-curve $-1 -30.832061358231037 36.007244712470317 -5.3631927429647686 1 0 0 I I #
coedge $-1 $337 $229 $451 $455 forward $220 $-1 #
vertex $-1 $455 $456 #
straight-curve $-1 -30.832061358231037 -36.007244712470317 -5.3631927429647686 -1 0 0 I I #
edge $-1 $233 1.9315963714823843 $447 4.9315963714823843 $342 $457 forward 7 unknown #
point $-1 -57.850172981982652 -36.007244712470317 -5.3631927429647686 #
point $-1 -57.850172981982652 36.007244712470317 -5.3631927429647686 #
plane-surface $-1 0 -36.007244712470317 0 0 1 0 0 0 1 forward_v I I I I #
coedge $-1 $364 $363 $356 $458 forward $236 $-1 #
coedge $-1 $356 $238 $240 $360 reversed $142 $-1 #
coedge $-1 $238 $355 $354 $458 reversed $142 $-1 #
coedge $-1 $246 $241 $238 $358 forward $247 $-1 #
edge $-1 $361 -41.173295050630408 $459 -34.640498268375353 $357 $460 forward 7 unknown #
coedge $-1 $240 $239 $364 $461 reversed $89 $-1 #
edge $-1 $462 -8.5279604470315036 $361 -1.1030930024383267e-014 $355 $463 forward 7 unknown #
vertex $-1 $242 $464 #
straight-curve $-1 -4.3986507433740627 -36.007244712470317 1.8303959607097247 1 0 0 I I #
coedge $-1 $354 $243 $246 $368 forward $236 $-1 #
coedge $-1 $243 $354 $359 $461 forward $236 $-1 #
vertex $-1 $244 $465 #
straight-curve $-1 -21.408552707975677 -68.16273644601398 8.3631927429647703 0 -1 0 I I #
straight-curve $-1 -21.408552707975677 -36.007244712470325 1.8303959607097084 0 0.64278759981090561 0.7660444514056185 I I #
edge $-1 $248 -21.408552707975677 $459 3.8139497344794258 $246 $466 forward 7 unknown #
point $-1 -21.408552707975677 -36.007244712470317 8.3631927429647686 #
point $-1 -21.408552707975677 -36.007244712470317 1.8303959607097169 #
edge $-1 $467 1 $467 0 $251 $-1 forward 7 unknown #
vertex $-1 $252 $468 #
ellipse-curve $-1 -14.202123438702792 -29.216313721670101 1.6983592253001345 0 -0.7660444514056185 0.64278759981090561 2 0 0 1 I I #
point $-1 -12.202123438702792 -33.266411098955459 5.0967943518372394 #
edge $-1 $469 1 $469 0 $255 $-1 forward 7 unknown #
vertex $-1 $256 $470 #
ellipse-curve $-1 -3.3924795347934662 -29.216313721670101 1.6983592253001345 0 -0.7660444514056185 0.64278759981090561 2 0 0 1 I I #
point $-1 -1.3924795347934662 -33.266411098955459 5.0967943518372394 #
plane-surface $-1 0 -36.007244712470317 0 0 1 0 0 0 1 forward_v I I I I #
coedge $-1 $385 $265 $392 $471 reversed $260 $-1 #
coedge $-1 $472 $262 $263 $383 forward $164 $-1 #
coedge $-1 $262 $472 $270 $393 forward $164 $-1 #
edge $-1 $389 -33.43510292030858 $386 -8.2126004778534885 $381 $473 forward 7 unknown #
edge $-1 $387 8.2126004778534885 $273 33.43510292030858 $271 $474 forward 7 unknown #
coedge $-1 $265 $380 $472 $475 reversed $260 $-1 #
vertex $-1 $383 $476 #
vertex $-1 $384 $477 #
straight-curve $-1 3.8139497344794258 -36.007244712470325 1.8303959607097084 0 -0.64278759981090561 -0.7660444514056185 I I #
vertex $-1 $269 $478 #
straight-curve $-1 29.036452176934521 -36.007244712470325 1.8303959607097084 0 -0.64278759981090561 -0.7660444514056185 I I #
straight-curve $-1 29.036452176934521 -68.16273644601398 8.3631927429647703 0 1 0 I I #
coedge $-1 $271 $270 $380 $471 forward $272 $-1 #
edge $-1 $479 3.8139497344794258 $274 29.036452176934521 $270 $480 forward 7 unknown #
point $-1 29.036452176934521 -36.007244712470317 1.8303959607097169 #
point $-1 29.036452176934521 -36.007244712470317 8.3631927429647686 #
edge $-1 $481 1 $481 0 $276 $-1 forward 7 unknown #
vertex $-1 $277 $482 #
ellipse-curve $-1 11.020379003752296 -29.216313721670101 1.6983592253001345 0 -0.7660444514056185 0.64278759981090561 2 0 0 1 I I #
point $-1 13.020379003752296 -33.266411098955459 5.0967943518372394 #
edge $-1 $483 1 $483 0 $280 $-1 forward 7 unknown #
vertex $-1 $281 $484 #
ellipse-curve $-1 21.830022907661629 -29.216313721670101 1.6983592253001345 0 -0.7660444514056185 0.64278759981090561 2 0 0 1 I I #
point $-1 23.830022907661629 -33.266411098955459 5.0967943518372394 #
plane-surface $-1 0 0 8.3631927429647686 0 0 1 1 0 0 forward_v I I I I #
coedge $-1 $415 $414 $407 $485 forward $285 $-1 #
coedge $-1 $407 $287 $289 $411 reversed $186 $-1 #
coedge $-1 $287 $406 $405 $485 reversed $186 $-1 #
coedge $-1 $295 $290 $287 $409 forward $296 $-1 #
edge $-1 $412 -9.8259259987000647 $486 -1.5798253492284076 $408 $487 forward 7 unknown #
coedge $-1 $289 $288 $415 $488 reversed $117 $-1 #
edge $-1 $489 -72.014489424940621 $412 -60.551060408598914 $406 $490 forward 7 unknown #
vertex $-1 $291 $491 #
straight-curve $-1 -22.547431268360203 27.761144062998653 8.3631927429647703 1 0 0 I I #
coedge $-1 $405 $292 $295 $419 reversed $285 $-1 #
coedge $-1 $292 $405 $410 $488 forward $285 $-1 #
vertex $-1 $293 $492 #
straight-curve $-1 -57.850172981982659 36.007244712470317 72.313730142459676 0 0 1 I I #
straight-curve $-1 -57.850172981982659 -15.795643164431581 50.425494190105837 0 0.71933979245794832 -0.69465837861970381 I I #
edge $-1 $486 32.339552091458152 $297 57.850172981982659 $414 $493 forward 7 unknown #
point $-1 -57.850172981982659 36.007244712470317 8.3631927429647686 #
point $-1 -57.850172981982659 27.76114406299866 8.3631927429647703 #
edge $-1 $494 1 $494 0 $300 $-1 forward 7 unknown #
vertex $-1 $301 $495 #
ellipse-curve $-1 -45.094862536720406 30.205371272927071 2.6431370486013734 0 0.69465837861970381 0.71933979245794832 2 0 0 1 I I #
point $-1 -43.094862536720406 31.884194387734482 4.3816092360077565 #
plane-surface $-1 65.478072450941497 0 0 -1 0 0 0 0 1 forward_v I I I I #
coedge $-1 $309 $307 $311 $431 reversed $201 $-1 #
edge $-1 $322 -8.3631927429647686 $433 8.3631927429647686 $321 $496 forward 7 unknown #
vertex $-1 $431 $497 #
straight-curve $-1 -65.478072450941497 -36.007244712470317 0 0 0 -1 I I #
edge $-1 $429 -36.007244712470317 $433 36.007244712470317 $427 $498 forward 7 unknown #
straight-curve $-1 0 -36.007244712470317 -8.3631927429647686 -1 0 0 I I #
vertex $-1 $314 $499 #
straight-curve $-1 0 36.007244712470317 -8.3631927429647686 1 0 0 I I #
point $-1 65.478072450941497 36.007244712470317 -8.3631927429647686 #
point $-1 65.478072450941497 -36.007244712470317 -8.3631927429647686 #
straight-curve $-1 -65.478072450941497 0 8.3631927429647686 0 -1 0 I I #
point $-1 -65.478072450941497 36.007244712470317 8.3631927429647686 #
point $-1 -65.478072450941497 -36.007244712470317 8.3631927429647686 #
straight-curve $-1 65.478072450941497 -36.007244712470317 0 0 0 -1 I I #
straight-curve $-1 65.478072450941497 36.007244712470317 0 0 0 -1 I I #
plane-surface $-1 0 36.007244712470317 0 0 -1 0 0 0 -1 forward_v I I I I #
coedge $-1 $335 $334 $500 $501 forward $134 $-1 #
edge $-1 $338 57.850172981982652 $502 65.478072450941497 $337 $503 forward 7 unknown #
coedge $-1 $343 $342 $335 $446 reversed $344 $-1 #
edge $-1 $504 -65.478072450941497 $447 -57.850172981982652 $445 $505 forward 7 unknown #
vertex $-1 $350 $506 #
straight-curve $-1 -57.850172981982652 0 -8.3631927429647686 0 -1 0 I I #
point $-1 -57.850172981982652 -36.007244712470317 -8.3631927429647686 #
coedge $-1 $500 $340 $343 $453 forward $332 $-1 #
coedge $-1 $340 $500 $347 $455 reversed $332 $-1 #
straight-curve $-1 -65.478072450941497 0 -5.3631927429647686 0 1 0 I I #
edge $-1 $345 5.3631927429647686 $504 8.3631927429647686 $343 $507 forward 7 unknown #
point $-1 -65.478072450941497 36.007244712470317 -5.3631927429647686 #
edge $-1 $348 5.3631927429647686 $502 8.3631927429647686 $451 $508 forward 7 unknown #
point $-1 -65.478072450941497 -36.007244712470317 -5.3631927429647686 #
straight-curve $-1 -57.850172981982652 36.007244712470317 -3.4315963714823843 0 0 -1 I I #
edge $-1 $459 32.155491733543663 $462 37.637158960573373 $354 $509 forward 7 unknown #
vertex $-1 $358 $510 #
straight-curve $-1 3.8139497344794258 -36.007244712470317 43.003691011340123 0 0 1 I I #
edge $-1 $462 -8.2126004778534885 $365 17.009901964601614 $364 $511 forward 7 unknown #
vertex $-1 $461 $512 #
straight-curve $-1 3.8139497344794258 -36.007244712470325 1.8303959607097084 0 -0.64278759981090561 -0.7660444514056185 I I #
point $-1 3.8139497344794258 -36.007244712470317 1.8303959607097169 #
point $-1 -21.408552707975677 -30.525577485440607 8.3631927429647668 #
straight-curve $-1 0 -36.007244712470317 8.3631927429647686 1 0 0 I I #
vertex $-1 $371 $513 #
point $-1 -12.202123438702792 -29.216313721670101 1.6983592253001345 #
vertex $-1 $375 $514 #
point $-1 -1.3924795347934662 -29.216313721670101 1.6983592253001345 #
edge $-1 $479 34.640498268375353 $387 41.173295050630408 $392 $515 forward 7 unknown #
coedge $-1 $382 $381 $385 $475 forward $164 $-1 #
straight-curve $-1 -4.3986507433740627 -30.525577485440611 8.3631927429647668 -1 0 0 I I #
straight-curve $-1 -4.3986507433740627 -36.007244712470317 1.8303959607097247 1 0 0 I I #
edge $-1 $386 -37.637158960573373 $479 -32.155491733543663 $472 $516 forward 7 unknown #
point $-1 3.8139497344794258 -30.525577485440607 8.3631927429647668 #
point $-1 3.8139497344794258 -36.007244712470317 1.8303959607097169 #
point $-1 29.036452176934521 -30.525577485440607 8.3631927429647668 #
vertex $-1 $393 $517 #
straight-curve $-1 0 -36.007244712470317 8.3631927429647686 1 0 0 I I #
vertex $-1 $396 $518 #
point $-1 13.020379003752296 -29.216313721670101 1.6983592253001345 #
vertex $-1 $400 $519 #
point $-1 23.830022907661629 -29.216313721670101 1.6983592253001345 #
edge $-1 $486 63.950537399494905 $489 71.913704413408894 $405 $520 forward 7 unknown #
vertex $-1 $419 $521 #
straight-curve $-1 -32.339552091458152 37.587070061698725 8.3631927429647703 0 1 0 I I #
edge $-1 $489 9.7921208230979495 $416 35.302741713622453 $415 $522 forward 7 unknown #
vertex $-1 $488 $523 #
straight-curve $-1 -32.339552091458152 -15.795643164431581 50.425494190105837 0 -0.71933979245794832 0.69465837861970381 I I #
point $-1 -32.339552091458152 27.76114406299866 8.3631927429647703 #
point $-1 -57.850172981982659 36.007244712470317 0.40002572905078182 #
straight-curve $-1 0 36.007244712470317 8.3631927429647686 -1 0 0 I I #
vertex $-1 $422 $524 #
point $-1 -43.094862536720406 30.205371272927071 2.6431370486013734 #
straight-curve $-1 -65.478072450941497 36.007244712470317 0 0 0 -1 I I #
point $-1 -65.478072450941497 -36.007244712470317 -8.3631927429647686 #
straight-curve $-1 -65.478072450941497 0 -8.3631927429647686 0 1 0 I I #
point $-1 -65.478072450941497 36.007244712470317 -8.3631927429647686 #
coedge $-1 $451 $450 $443 $501 reversed $332 $-1 #
edge $-1 $502 -36.007244712470317 $504 36.007244712470317 $500 $525 forward 7 unknown #
vertex $-1 $501 $526 #
straight-curve $-1 0 -36.007244712470317 -8.3631927429647686 -1 0 0 I I #
vertex $-1 $446 $527 #
straight-curve $-1 0 36.007244712470317 -8.3631927429647686 1 0 0 I I #
point $-1 -57.850172981982652 36.007244712470317 -8.3631927429647686 #
straight-curve $-1 -65.478072450941497 36.007244712470317 0 0 0 -1 I I #
straight-curve $-1 -65.478072450941497 -36.007244712470317 0 0 0 -1 I I #
straight-curve $-1 3.8139497344794258 -68.16273644601398 8.3631927429647703 0 1 0 I I #
point $-1 3.8139497344794258 -36.007244712470317 8.3631927429647686 #
straight-curve $-1 -4.3986507433740627 -30.525577485440611 8.3631927429647668 -1 0 0 I I #
point $-1 3.8139497344794258 -30.525577485440607 8.3631927429647668 #
point $-1 -14.202123438702792 -27.684224818858862 0.41278402567832329 #
point $-1 -3.3924795347934662 -27.684224818858862 0.41278402567832329 #
straight-curve $-1 3.8139497344794258 -36.007244712470317 43.003691011340123 0 0 -1 I I #
straight-curve $-1 3.8139497344794258 -68.16273644601398 8.3631927429647703 0 -1 0 I I #
point $-1 3.8139497344794258 -36.007244712470317 8.3631927429647686 #
point $-1 11.020379003752296 -27.684224818858862 0.41278402567832329 #
point $-1 21.830022907661629 -27.684224818858862 0.41278402567832329 #
straight-curve $-1 -32.339552091458152 36.007244712470317 72.313730142459676 0 0 -1 I I #
point $-1 -32.339552091458152 36.007244712470317 8.3631927429647686 #
straight-curve $-1 -22.547431268360203 36.007244712470317 0.40002572905078537 -1 0 0 I I #
point $-1 -32.339552091458152 36.007244712470317 0.40002572905078182 #
point $-1 -45.094862536720406 28.816054515687664 1.2044574636854768 #
straight-curve $-1 -65.478072450941497 0 -8.3631927429647686 0 1 0 I I #
point $-1 -65.478072450941497 -36.007244712470317 -8.3631927429647686 #
point $-1 -65.478072450941497 36.007244712470317 -8.3631927429647686 #
End-of-ACIS-data 