500 0 7 0           
7 Unknown 11 ACIS 5.0 NT 24 Fri Mar 26 19:53:05 1999 
-1 9.9999999999999995e-007 1e-010 
body $-1 $7 $-1 $8 #
body $-1 $9 $-1 $10 #
body $-1 $11 $-1 $12 #
body $-1 $13 $-1 $14 #
body $-1 $15 $-1 $16 #
body $-1 $17 $-1 $18 #
body $-1 $19 $-1 $20 #
lump $-1 $-1 $21 $0 #
transform $-1 1 0 0 0 1 0 0 0 1 77.526779992065187 31.373420068141229 11.139110438268631 1 rotate no_reflect no_shear #
lump $-1 $-1 $22 $1 #
transform $-1 1 0 0 0 1 0 0 0 1 77.526779992065187 31.373420068141229 11.139110438268631 1 rotate no_reflect no_shear #
lump $-1 $-1 $23 $2 #
transform $-1 1 0 0 0 1 0 0 0 1 77.526779992065187 31.373420068141229 11.139110438268631 1 rotate no_reflect no_shear #
lump $-1 $-1 $24 $3 #
transform $-1 1 0 0 0 1 0 0 0 1 77.526779992065187 31.373420068141229 11.139110438268631 1 rotate no_reflect no_shear #
lump $-1 $-1 $25 $4 #
transform $-1 1 0 0 0 1 0 0 0 1 77.526779992065187 31.373420068141229 11.139110438268631 1 rotate no_reflect no_shear #
lump $-1 $-1 $26 $5 #
transform $-1 1 0 0 0 1 0 0 0 1 77.526779992065187 31.373420068141229 11.139110438268631 1 rotate no_reflect no_shear #
lump $-1 $-1 $27 $6 #
transform $-1 1 0 0 0 1 0 0 0 1 77.526779992065187 31.373420068141229 11.139110438268631 1 rotate no_reflect no_shear #
shell $-1 $-1 $-1 $28 $-1 $7 #
shell $-1 $-1 $-1 $29 $-1 $9 #
shell $-1 $-1 $-1 $30 $-1 $11 #
shell $-1 $-1 $-1 $31 $-1 $13 #
shell $-1 $-1 $-1 $32 $-1 $15 #
shell $-1 $-1 $-1 $33 $-1 $17 #
shell $-1 $-1 $-1 $34 $-1 $19 #
face $-1 $35 $36 $21 $-1 $37 forward single #
face $-1 $38 $39 $22 $-1 $40 forward single #
face $-1 $41 $42 $23 $-1 $43 forward single #
face $-1 $44 $45 $24 $-1 $46 reversed single #
face $-1 $47 $48 $25 $-1 $49 forward single #
face $-1 $50 $51 $26 $-1 $52 reversed single #
face $-1 $53 $54 $27 $-1 $55 forward single #
face $-1 $56 $57 $21 $-1 $58 reversed single #
loop $-1 $-1 $59 $28 #
plane-surface $-1 0 0 11.139110438268631 0 0 1 1 0 0 forward_v I I I I #
face $-1 $60 $61 $22 $-1 $62 reversed single #
loop $-1 $-1 $63 $29 #
plane-surface $-1 0 -31.373420068141229 0 0 1 0 0 0 1 forward_v I I I I #
face $-1 $64 $65 $23 $-1 $66 reversed single #
loop $-1 $-1 $67 $30 #
plane-surface $-1 0 31.373420068141229 0 0 -1 0 0 0 -1 forward_v I I I I #
face $-1 $68 $69 $24 $-1 $70 reversed single #
loop $-1 $-1 $71 $31 #
plane-surface $-1 126.85379111049197 -7.4280027496503376 219.79555431400706 0 -1 0 -0.84804810408105047 0 -0.52991925155115449 forward_v I I I I #
face $-1 $72 $73 $25 $-1 $74 forward single #
loop $-1 $75 $76 $32 #
cone-surface $-1 74.799028581672033 -11.141905766393663 7.9100754245274718 -0.84804810408105047 0 -0.52991925155115449 0.52991925155115449 0 -0.84804810408105047 1 I I 0 1 1 forward I I I I #
face $-1 $77 $78 $26 $-1 $79 reversed single #
loop $-1 $-1 $80 $33 #
plane-surface $-1 126.85379111049197 9.7185700790452305 219.79555431400706 0 -1 0 -0.84804810408105047 0 -0.52991925155115449 forward_v I I I I #
face $-1 $81 $82 $27 $-1 $83 forward single #
loop $-1 $84 $85 $34 #
cone-surface $-1 74.799028581672033 6.0046670623019054 7.9100754245274718 -0.84804810408105047 0 -0.52991925155115449 0.52991925155115449 0 -0.84804810408105047 1 I I 0 1 1 forward I I I I #
face $-1 $86 $87 $21 $-1 $88 reversed single #
loop $-1 $-1 $89 $35 #
plane-surface $-1 0 0 -11.139110438268631 0 0 1 1 0 0 forward_v I I I I #
coedge $-1 $90 $91 $92 $93 forward $36 $-1 #
face $-1 $94 $95 $22 $-1 $96 reversed single #
loop $-1 $-1 $97 $38 #
plane-surface $-1 0 0 -11.139110438268631 0 0 1 1 0 0 forward_v I I I I #
coedge $-1 $98 $99 $100 $101 forward $39 $-1 #
face $-1 $102 $103 $23 $-1 $104 forward single #
loop $-1 $-1 $105 $41 #
plane-surface $-1 -77.526779992065187 0 0 1 0 0 0 0 -1 forward_v I I I I #
coedge $-1 $106 $107 $108 $109 forward $42 $-1 #
face $-1 $110 $111 $24 $-1 $112 reversed single #
loop $-1 $-1 $113 $44 #
plane-surface $-1 -4.6390864650672228 -11.141905766393663 137.62968785687465 0.84804810408105047 0 0.52991925155115449 0.52991925155115449 0 -0.84804810408105047 forward_v I I I I #
coedge $-1 $114 $115 $116 $117 reversed $45 $-1 #
face $-1 $-1 $118 $25 $-1 $119 forward single #
loop $-1 $120 $121 $47 #
cone-surface $-1 73.21014509579625 -11.141905766393663 6.917230863487319 -0.84804810408105047 0 -0.52991925155115449 0.26495962577557725 0 -0.42402405204052523 1 I I -0.70710678118654746 0.70710678118654746 0.5 forward I I I I #
loop $-1 $-1 $122 $32 #
coedge $-1 $76 $76 $123 $124 reversed $48 $-1 #
face $-1 $125 $126 $26 $-1 $127 reversed single #
loop $-1 $-1 $128 $50 #
plane-surface $-1 -4.6390864650672228 6.0046670623019054 137.62968785687465 0.84804810408105047 0 0.52991925155115449 0.52991925155115449 0 -0.84804810408105047 forward_v I I I I #
coedge $-1 $129 $130 $131 $132 reversed $51 $-1 #
face $-1 $-1 $133 $27 $-1 $134 forward single #
loop $-1 $135 $136 $53 #
cone-surface $-1 73.21014509579625 6.0046670623019054 6.917230863487319 -0.84804810408105047 0 -0.52991925155115449 0.26495962577557725 0 -0.42402405204052523 1 I I -0.70710678118654746 0.70710678118654746 0.5 forward I I I I #
loop $-1 $-1 $137 $34 #
coedge $-1 $85 $85 $138 $139 reversed $54 $-1 #
face $-1 $140 $141 $21 $-1 $142 reversed single #
loop $-1 $-1 $143 $56 #
plane-surface $-1 0 -31.373420068141229 0 0 1 0 0 0 1 forward_v I I I I #
coedge $-1 $144 $145 $146 $147 forward $57 $-1 #
coedge $-1 $148 $59 $149 $150 forward $36 $-1 #
coedge $-1 $59 $148 $151 $152 forward $36 $-1 #
coedge $-1 $153 $154 $59 $93 reversed $155 $-1 #
edge $-1 $156 -31.373420068141229 $157 31.373420068141229 $92 $158 forward 7 unknown #
face $-1 $159 $160 $22 $-1 $161 forward single #
loop $-1 $-1 $162 $60 #
plane-surface $-1 77.526779992065187 0 0 -1 0 0 0 0 1 forward_v I I I I #
coedge $-1 $163 $164 $165 $166 forward $61 $-1 #
coedge $-1 $165 $63 $162 $167 reversed $39 $-1 #
coedge $-1 $63 $165 $168 $169 reversed $39 $-1 #
coedge $-1 $170 $171 $63 $101 reversed $160 $-1 #
edge $-1 $172 -77.526779992065187 $173 77.526779992065187 $100 $174 forward 7 unknown #
face $-1 $175 $176 $23 $-1 $177 reversed single #
loop $-1 $-1 $178 $64 #
plane-surface $-1 0 38.486843687864052 -6.831344098608227 0 0 1 1 0 0 forward_v I I I I #
coedge $-1 $179 $180 $106 $181 forward $65 $-1 #
coedge $-1 $182 $67 $105 $181 reversed $42 $-1 #
coedge $-1 $67 $182 $183 $184 reversed $42 $-1 #
coedge $-1 $178 $185 $67 $109 reversed $103 $-1 #
edge $-1 $186 -77.526779992065187 $187 77.526779992065187 $108 $188 forward 7 unknown #
face $-1 $189 $190 $24 $-1 $191 forward single #
loop $-1 $-1 $192 $68 #
plane-surface $-1 126.85379111049197 -14.855808783136988 219.79555431400706 0 1 0 0.84804810408105047 0 0.52991925155115449 forward_v I I I I #
coedge $-1 $193 $194 $195 $196 reversed $69 $-1 #
coedge $-1 $115 $71 $197 $198 reversed $45 $-1 #
coedge $-1 $71 $114 $193 $199 reversed $45 $-1 #
coedge $-1 $195 $200 $71 $117 forward $190 $-1 #
edge $-1 $201 -14.099884436819202 $202 -10.974100483703374 $116 $203 forward 7 unknown #
loop $-1 $-1 $123 $72 #
plane-surface $-1 -4.6390864650672228 -11.141905766393663 137.62968785687465 0.84804810408105047 0 0.52991925155115449 0.52991925155115449 0 -0.84804810408105047 forward_v I I I I #
loop $-1 $-1 $204 $47 #
coedge $-1 $121 $121 $122 $205 reversed $73 $-1 #
coedge $-1 $122 $122 $121 $205 forward $75 $-1 #
coedge $-1 $123 $123 $76 $124 forward $118 $-1 #
edge $-1 $206 0 $206 6.2831853071796004 $123 $207 forward 7 unknown #
face $-1 $208 $209 $26 $-1 $210 reversed single #
loop $-1 $-1 $211 $77 #
plane-surface $-1 126.85379111049197 2.2907640455585803 219.79555431400706 0 1 0 0.84804810408105047 0 0.52991925155115449 forward_v I I I I #
coedge $-1 $212 $213 $214 $215 reversed $78 $-1 #
coedge $-1 $130 $80 $216 $217 reversed $51 $-1 #
coedge $-1 $80 $129 $212 $218 reversed $51 $-1 #
coedge $-1 $214 $219 $80 $132 forward $220 $-1 #
edge $-1 $221 -14.099884436819202 $222 -10.974100483703374 $131 $223 forward 7 unknown #
loop $-1 $-1 $138 $81 #
plane-surface $-1 -4.6390864650672228 6.0046670623019054 137.62968785687465 0.84804810408105047 0 0.52991925155115449 0.52991925155115449 0 -0.84804810408105047 forward_v I I I I #
loop $-1 $-1 $224 $53 #
coedge $-1 $136 $136 $137 $225 reversed $82 $-1 #
coedge $-1 $137 $137 $136 $225 forward $84 $-1 #
coedge $-1 $138 $138 $85 $139 forward $133 $-1 #
edge $-1 $226 0 $226 6.2831853071796004 $138 $227 forward 7 unknown #
face $-1 $228 $229 $21 $-1 $230 reversed single #
loop $-1 $-1 $231 $86 #
plane-surface $-1 -77.526779992065187 0 0 1 0 0 0 0 -1 forward_v I I I I #
coedge $-1 $151 $232 $153 $233 reversed $87 $-1 #
coedge $-1 $234 $89 $232 $235 forward $57 $-1 #
coedge $-1 $89 $234 $236 $237 forward $57 $-1 #
coedge $-1 $154 $153 $89 $147 reversed $155 $-1 #
edge $-1 $238 -31.373420068141229 $239 31.373420068141229 $146 $240 forward 7 unknown #
coedge $-1 $91 $90 $241 $242 forward $36 $-1 #
coedge $-1 $243 $244 $90 $150 reversed $229 $-1 #
edge $-1 $157 -77.526779992065187 $245 77.526779992065187 $149 $246 forward 7 unknown #
coedge $-1 $247 $143 $91 $152 reversed $87 $-1 #
edge $-1 $248 -77.526779992065187 $156 77.526779992065187 $151 $249 forward 7 unknown #
coedge $-1 $146 $92 $143 $233 forward $155 $-1 #
coedge $-1 $92 $146 $243 $250 reversed $155 $-1 #
loop $-1 $-1 $153 $228 #
vertex $-1 $93 $251 #
vertex $-1 $93 $252 #
straight-curve $-1 77.526779992065187 0 11.139110438268631 0 1 0 I I #
face $-1 $253 $254 $22 $-1 $255 reversed single #
loop $-1 $-1 $171 $94 #
plane-surface $-1 0 -38.486843687864059 -6.831344098608227 0 0 1 1 0 0 forward_v I I I I #
coedge $-1 $256 $257 $98 $167 forward $95 $-1 #
coedge $-1 $258 $97 $257 $259 forward $61 $-1 #
coedge $-1 $97 $258 $260 $261 forward $61 $-1 #
coedge $-1 $99 $98 $97 $166 reversed $39 $-1 #
edge $-1 $262 -77.526779992065187 $263 77.526779992065187 $97 $264 forward 7 unknown #
edge $-1 $263 -11.139110438268631 $173 -6.831344098608227 $162 $265 forward 7 unknown #
coedge $-1 $260 $266 $99 $169 forward $267 $-1 #
edge $-1 $172 6.831344098608227 $262 11.139110438268631 $168 $268 forward 7 unknown #
coedge $-1 $269 $100 $266 $270 forward $160 $-1 #
coedge $-1 $100 $269 $256 $271 forward $160 $-1 #
vertex $-1 $169 $272 #
vertex $-1 $271 $273 #
straight-curve $-1 0 -31.373420068141229 -6.831344098608227 1 0 0 I I #
face $-1 $274 $275 $23 $-1 $276 reversed single #
loop $-1 $-1 $277 $102 #
plane-surface $-1 0 45.600267307586883 -8.9852272684384289 0 -1 0 0 0 -1 forward_v I I I I #
coedge $-1 $278 $108 $279 $280 forward $103 $-1 #
coedge $-1 $281 $105 $185 $282 reversed $65 $-1 #
coedge $-1 $105 $281 $283 $284 reversed $65 $-1 #
edge $-1 $285 -11.139110438268631 $187 -6.831344098608227 $105 $286 forward 7 unknown #
coedge $-1 $107 $106 $287 $288 reversed $42 $-1 #
coedge $-1 $289 $279 $107 $184 forward $290 $-1 #
edge $-1 $186 6.831344098608227 $291 11.139110438268631 $183 $292 forward 7 unknown #
coedge $-1 $108 $278 $179 $282 forward $103 $-1 #
vertex $-1 $184 $293 #
vertex $-1 $282 $294 #
straight-curve $-1 0 31.373420068141229 -6.831344098608227 -1 0 0 I I #
face $-1 $-1 $295 $24 $-1 $296 reversed single #
loop $-1 $-1 $116 $110 #
plane-surface $-1 0 0 11.139110438268631 0 0 1 1 0 0 forward_v I I I I #
coedge $-1 $297 $298 $299 $300 reversed $111 $-1 #
coedge $-1 $301 $113 $115 $199 forward $69 $-1 #
coedge $-1 $113 $301 $297 $302 forward $69 $-1 #
coedge $-1 $299 $116 $113 $196 forward $190 $-1 #
edge $-1 $202 1.8570498664535062 $303 9.2848558999401565 $195 $304 forward 7 unknown #
coedge $-1 $305 $306 $114 $198 forward $295 $-1 #
edge $-1 $307 -103.76096687568807 $201 -98.758666718734901 $197 $308 forward 7 unknown #
edge $-1 $202 149.15495572703614 $307 155.05355998413035 $115 $309 forward 7 unknown #
coedge $-1 $116 $299 $305 $310 forward $190 $-1 #
vertex $-1 $198 $311 #
vertex $-1 $117 $312 #
straight-curve $-1 63.426895555245984 -7.4280027496503376 11.139110438268631 -1 0 0 I I #
coedge $-1 $204 $204 $-1 $313 reversed $120 $-1 #
edge $-1 $314 0 $314 6.2831853071796004 $121 $315 forward 7 unknown #
vertex $-1 $124 $316 #
ellipse-curve $-1 75.963888015507266 -11.141905766393663 8.637960359792034 0.84804810408105047 0 0.52991925155115449 0.52991925155115449 0 -0.84804810408105047 1 I I #
face $-1 $-1 $220 $26 $-1 $317 forward single #
loop $-1 $-1 $318 $125 #
plane-surface $-1 77.526779992065187 0 0 -1 0 0 0 0 1 forward_v I I I I #
coedge $-1 $319 $320 $321 $322 reversed $126 $-1 #
coedge $-1 $323 $128 $130 $218 forward $78 $-1 #
coedge $-1 $128 $323 $319 $324 forward $78 $-1 #
coedge $-1 $321 $131 $128 $215 forward $220 $-1 #
edge $-1 $222 -6.7162365478942778 $325 0.71156948559237243 $214 $326 forward 7 unknown #
coedge $-1 $327 $328 $129 $217 forward $209 $-1 #
edge $-1 $329 -103.76096687568807 $221 -98.758666718734901 $216 $330 forward 7 unknown #
edge $-1 $222 149.15495572703614 $329 155.05355998413035 $130 $331 forward 7 unknown #
coedge $-1 $131 $321 $327 $332 forward $220 $-1 #
loop $-1 $-1 $321 $208 #
vertex $-1 $217 $333 #
vertex $-1 $132 $334 #
straight-curve $-1 63.426895555245984 9.7185700790452305 11.139110438268631 -1 0 0 I I #
coedge $-1 $224 $224 $-1 $335 reversed $135 $-1 #
edge $-1 $336 0 $336 6.2831853071796004 $136 $337 forward 7 unknown #
vertex $-1 $139 $338 #
ellipse-curve $-1 75.963888015507266 6.0046670623019054 8.637960359792034 0.84804810408105047 0 0.52991925155115449 0.52991925155115449 0 -0.84804810408105047 1 I I #
face $-1 $-1 $155 $21 $-1 $339 reversed single #
loop $-1 $-1 $244 $140 #
plane-surface $-1 0 31.373420068141229 0 0 -1 0 0 0 -1 forward_v I I I I #
coedge $-1 $340 $241 $244 $341 forward $141 $-1 #
coedge $-1 $143 $247 $144 $235 reversed $87 $-1 #
edge $-1 $156 -11.139110438268631 $239 11.139110438268631 $153 $342 forward 7 unknown #
coedge $-1 $145 $144 $340 $343 forward $57 $-1 #
edge $-1 $239 -77.526779992065187 $344 77.526779992065187 $232 $345 forward 7 unknown #
coedge $-1 $244 $243 $145 $237 reversed $229 $-1 #
edge $-1 $346 -77.526779992065187 $238 77.526779992065187 $236 $347 forward 7 unknown #
vertex $-1 $147 $348 #
vertex $-1 $233 $349 #
straight-curve $-1 77.526779992065187 0 -11.139110438268631 0 -1 0 I I #
coedge $-1 $231 $350 $148 $242 reversed $141 $-1 #
edge $-1 $245 -31.373420068141229 $248 31.373420068141229 $241 $351 forward 7 unknown #
coedge $-1 $236 $149 $154 $250 forward $229 $-1 #
coedge $-1 $149 $236 $231 $341 reversed $229 $-1 #
vertex $-1 $150 $352 #
straight-curve $-1 0 31.373420068141229 11.139110438268631 -1 0 0 I I #
coedge $-1 $232 $151 $350 $353 forward $87 $-1 #
vertex $-1 $242 $354 #
straight-curve $-1 0 -31.373420068141229 11.139110438268631 1 0 0 I I #
edge $-1 $157 -11.139110438268631 $238 11.139110438268631 $154 $355 forward 7 unknown #
point $-1 77.526779992065187 -31.373420068141229 11.139110438268631 #
point $-1 77.526779992065187 31.373420068141229 11.139110438268631 #
face $-1 $-1 $267 $22 $-1 $356 reversed single #
loop $-1 $-1 $357 $159 #
plane-surface $-1 0 -45.60026730758689 -8.9852272684384289 0 1 0 0 0 1 forward_v I I I I #
coedge $-1 $358 $162 $171 $271 reversed $95 $-1 #
coedge $-1 $162 $358 $163 $259 reversed $95 $-1 #
coedge $-1 $164 $163 $359 $360 forward $61 $-1 #
edge $-1 $263 31.373420068141229 $361 45.60026730758689 $257 $362 forward 7 unknown #
coedge $-1 $363 $168 $164 $261 reversed $267 $-1 #
edge $-1 $364 -45.60026730758689 $262 -31.373420068141229 $260 $365 forward 7 unknown #
vertex $-1 $169 $366 #
vertex $-1 $259 $367 #
straight-curve $-1 0 -31.373420068141229 -11.139110438268631 1 0 0 I I #
straight-curve $-1 77.526779992065187 -31.373420068141229 0 0 0 1 I I #
coedge $-1 $168 $363 $170 $270 reversed $267 $-1 #
loop $-1 $-1 $168 $253 #
straight-curve $-1 -77.526779992065187 -31.373420068141229 0 0 0 -1 I I #
coedge $-1 $171 $170 $368 $369 forward $160 $-1 #
edge $-1 $172 -7.1134236197228304 $370 7.1134236197228304 $266 $371 forward 7 unknown #
edge $-1 $372 -7.1134236197228304 $173 7.1134236197228304 $256 $373 forward 7 unknown #
point $-1 -77.526779992065187 -31.373420068141229 -6.831344098608227 #
point $-1 77.526779992065187 -31.373420068141229 -6.831344098608227 #
face $-1 $-1 $290 $23 $-1 $374 reversed single #
loop $-1 $-1 $287 $175 #
plane-surface $-1 0 0 -11.139110438268631 0 0 1 1 0 0 forward_v I I I I #
coedge $-1 $375 $376 $377 $378 forward $176 $-1 #
coedge $-1 $185 $178 $376 $379 forward $103 $-1 #
coedge $-1 $183 $377 $178 $280 reversed $290 $-1 #
edge $-1 $186 -7.1134236197228304 $380 7.1134236197228304 $279 $381 forward 7 unknown #
coedge $-1 $180 $179 $382 $383 forward $65 $-1 #
edge $-1 $384 -7.1134236197228304 $187 7.1134236197228304 $179 $385 forward 7 unknown #
coedge $-1 $386 $287 $180 $284 forward $275 $-1 #
edge $-1 $285 -7.1134236197228233 $387 7.1134236197228304 $180 $388 forward 7 unknown #
vertex $-1 $284 $389 #
straight-curve $-1 -77.526779992065187 31.373420068141229 0 0 0 1 I I #
coedge $-1 $283 $390 $182 $288 forward $275 $-1 #
edge $-1 $291 -77.526779992065187 $285 77.526779992065187 $287 $391 forward 7 unknown #
coedge $-1 $377 $183 $390 $392 reversed $290 $-1 #
loop $-1 $-1 $183 $274 #
vertex $-1 $184 $393 #
straight-curve $-1 77.526779992065187 31.373420068141229 0 0 0 -1 I I #
point $-1 77.526779992065187 31.373420068141222 -6.831344098608227 #
point $-1 -77.526779992065187 31.373420068141222 -6.831344098608227 #
loop $-1 $-1 $197 $189 #
plane-surface $-1 77.526779992065187 0 0 -1 0 0 0 0 1 forward_v I I I I #
coedge $-1 $298 $192 $194 $302 reversed $111 $-1 #
coedge $-1 $192 $297 $394 $395 reversed $111 $-1 #
coedge $-1 $200 $195 $192 $300 forward $190 $-1 #
edge $-1 $303 10.974100483703374 $396 14.099884436819202 $299 $397 forward 7 unknown #
coedge $-1 $194 $193 $306 $398 reversed $69 $-1 #
edge $-1 $399 -155.05355998413035 $303 -149.15495572703614 $297 $400 forward 7 unknown #
vertex $-1 $196 $401 #
straight-curve $-1 74.400996038949359 -5.5709528831968314 11.139110438268631 0 -1 0 I I #
coedge $-1 $394 $197 $200 $310 reversed $295 $-1 #
coedge $-1 $197 $394 $301 $398 forward $295 $-1 #
vertex $-1 $198 $402 #
straight-curve $-1 77.526779992065187 -7.4280027496503376 109.89777715700353 0 0 1 I I #
straight-curve $-1 -4.6390864650672228 -7.4280027496503376 137.62968785687465 0.52991925155115449 0 -0.84804810408105047 I I #
edge $-1 $396 -14.855808783136988 $201 -7.4280027496503376 $305 $403 forward 7 unknown #
point $-1 77.526779992065187 -7.4280027496503376 11.139110438268631 #
point $-1 74.400996038949359 -7.4280027496503376 11.139110438268631 #
edge $-1 $404 1 $404 0 $204 $-1 forward 7 unknown #
vertex $-1 $205 $405 #
ellipse-curve $-1 73.634169147836772 -11.141905766393663 7.1821904892628963 0.84804810408105047 0 0.52991925155115449 0.52991925155115449 0 -0.84804810408105047 1 I I #
point $-1 76.493807267058443 -11.141905766393663 7.7899122557109974 #
plane-surface $-1 0 0 11.139110438268631 0 0 1 1 0 0 forward_v I I I I #
coedge $-1 $328 $327 $320 $406 forward $209 $-1 #
coedge $-1 $320 $211 $213 $324 reversed $126 $-1 #
coedge $-1 $211 $319 $318 $406 reversed $126 $-1 #
coedge $-1 $219 $214 $211 $322 forward $220 $-1 #
edge $-1 $325 10.974100483703374 $407 14.099884436819202 $321 $408 forward 7 unknown #
coedge $-1 $213 $212 $328 $409 reversed $78 $-1 #
edge $-1 $410 -155.05355998413035 $325 -149.15495572703614 $319 $411 forward 7 unknown #
vertex $-1 $215 $412 #
straight-curve $-1 74.400996038949359 3.0023335311509527 11.139110438268631 0 -1 0 I I #
coedge $-1 $318 $216 $219 $332 reversed $209 $-1 #
coedge $-1 $216 $318 $323 $409 forward $209 $-1 #
vertex $-1 $217 $413 #
straight-curve $-1 77.526779992065187 9.7185700790452305 109.89777715700353 0 0 1 I I #
straight-curve $-1 -4.6390864650672228 9.7185700790452305 137.62968785687465 0.52991925155115449 0 -0.84804810408105047 I I #
edge $-1 $407 2.2907640455585803 $221 9.7185700790452305 $327 $414 forward 7 unknown #
point $-1 77.526779992065187 9.7185700790452305 11.139110438268631 #
point $-1 74.400996038949359 9.7185700790452305 11.139110438268631 #
edge $-1 $415 1 $415 0 $224 $-1 forward 7 unknown #
vertex $-1 $225 $416 #
ellipse-curve $-1 73.634169147836772 6.0046670623019054 7.1821904892628963 0.84804810408105047 0 0.52991925155115449 0.52991925155115449 0 -0.84804810408105047 1 I I #
point $-1 76.493807267058443 6.0046670623019054 7.7899122557109974 #
plane-surface $-1 77.526779992065187 0 0 -1 0 0 0 0 1 forward_v I I I I #
coedge $-1 $350 $231 $234 $343 reversed $141 $-1 #
edge $-1 $245 -11.139110438268631 $346 11.139110438268631 $244 $417 forward 7 unknown #
straight-curve $-1 77.526779992065187 -31.373420068141229 0 0 0 -1 I I #
edge $-1 $344 -31.373420068141229 $346 31.373420068141229 $340 $418 forward 7 unknown #
vertex $-1 $343 $419 #
straight-curve $-1 0 -31.373420068141229 -11.139110438268631 -1 0 0 I I #
vertex $-1 $237 $420 #
straight-curve $-1 0 31.373420068141229 -11.139110438268631 1 0 0 I I #
point $-1 77.526779992065187 31.373420068141229 -11.139110438268631 #
point $-1 77.526779992065187 -31.373420068141229 -11.139110438268631 #
coedge $-1 $241 $340 $247 $353 reversed $141 $-1 #
straight-curve $-1 -77.526779992065187 0 11.139110438268631 0 -1 0 I I #
point $-1 -77.526779992065187 31.373420068141229 11.139110438268631 #
edge $-1 $248 -11.139110438268631 $344 11.139110438268631 $350 $421 forward 7 unknown #
point $-1 -77.526779992065187 -31.373420068141229 11.139110438268631 #
straight-curve $-1 77.526779992065187 31.373420068141229 0 0 0 -1 I I #
plane-surface $-1 -77.526779992065187 0 0 1 0 0 0 0 -1 forward_v I I I I #
coedge $-1 $359 $368 $363 $422 forward $254 $-1 #
coedge $-1 $257 $256 $423 $424 forward $95 $-1 #
coedge $-1 $423 $357 $258 $360 reversed $254 $-1 #
edge $-1 $361 -77.526779992065187 $364 77.526779992065187 $359 $425 forward 7 unknown #
vertex $-1 $424 $426 #
straight-curve $-1 77.526779992065187 0 -11.139110438268631 0 -1 0 I I #
coedge $-1 $266 $260 $357 $422 reversed $267 $-1 #
vertex $-1 $261 $427 #
straight-curve $-1 -77.526779992065187 0 -11.139110438268631 0 1 0 I I #
point $-1 -77.526779992065187 -31.373420068141229 -11.139110438268631 #
point $-1 77.526779992065187 -31.373420068141229 -11.139110438268631 #
coedge $-1 $357 $423 $269 $369 reversed $254 $-1 #
edge $-1 $370 -77.526779992065187 $372 77.526779992065187 $368 $428 forward 7 unknown #
vertex $-1 $270 $429 #
straight-curve $-1 -77.526779992065187 -38.486843687864059 -6.831344098608227 0 -1 0 I I #
vertex $-1 $271 $430 #
straight-curve $-1 77.526779992065187 -38.486843687864059 -6.831344098608227 0 1 0 I I #
plane-surface $-1 77.526779992065187 0 0 -1 0 0 0 0 1 forward_v I I I I #
coedge $-1 $382 $277 $386 $431 reversed $176 $-1 #
coedge $-1 $277 $382 $278 $379 reversed $176 $-1 #
coedge $-1 $279 $289 $277 $378 reversed $290 $-1 #
edge $-1 $380 -2.1538831698302019 $432 2.1538831698302019 $377 $433 forward 7 unknown #
edge $-1 $380 -77.526779992065187 $384 77.526779992065187 $376 $434 forward 7 unknown #
vertex $-1 $280 $435 #
straight-curve $-1 77.526779992065187 38.486843687864052 -6.831344098608227 0 1 0 I I #
coedge $-1 $376 $375 $281 $383 reversed $176 $-1 #
edge $-1 $384 -2.1538831698302019 $387 2.1538831698302019 $382 $436 forward 7 unknown #
vertex $-1 $379 $437 #
straight-curve $-1 -77.526779992065187 38.486843687864052 -6.831344098608227 0 -1 0 I I #
coedge $-1 $390 $283 $375 $431 forward $275 $-1 #
vertex $-1 $431 $438 #
straight-curve $-1 -77.526779992065187 38.486843687864052 -11.139110438268631 0 1 0 I I #
point $-1 -77.526779992065187 31.373420068141229 -11.139110438268631 #
coedge $-1 $287 $386 $289 $392 forward $275 $-1 #
straight-curve $-1 0 31.373420068141229 -11.139110438268631 -1 0 0 I I #
edge $-1 $432 -45.600267307586883 $291 -31.373420068141229 $289 $439 forward 7 unknown #
point $-1 77.526779992065187 31.373420068141229 -11.139110438268631 #
coedge $-1 $306 $305 $298 $395 forward $295 $-1 #
edge $-1 $396 98.758666718734901 $399 103.76096687568807 $394 $440 forward 7 unknown #
vertex $-1 $310 $441 #
straight-curve $-1 63.426895555245984 -14.855808783136988 11.139110438268631 1 0 0 I I #
edge $-1 $399 -9.2848558999401565 $307 -1.8570498664535062 $306 $442 forward 7 unknown #
vertex $-1 $398 $443 #
straight-curve $-1 -4.6390864650672228 -14.855808783136988 137.62968785687465 -0.52991925155115449 0 0.84804810408105047 I I #
point $-1 74.400996038949359 -14.855808783136988 11.139110438268631 #
point $-1 77.526779992065187 -7.4280027496503376 6.1368102813154621 #
straight-curve $-1 77.526779992065187 0 11.139110438268631 0 1 0 I I #
vertex $-1 $313 $444 #
point $-1 74.164088399387936 -11.141905766393663 6.3341423851818455 #
edge $-1 $407 98.758666718734901 $410 103.76096687568807 $318 $445 forward 7 unknown #
vertex $-1 $332 $446 #
straight-curve $-1 63.426895555245984 2.2907640455585803 11.139110438268631 1 0 0 I I #
edge $-1 $410 -0.71156948559237243 $329 6.7162365478942778 $328 $447 forward 7 unknown #
vertex $-1 $409 $448 #
straight-curve $-1 -4.6390864650672228 2.2907640455585803 137.62968785687465 -0.52991925155115449 0 0.84804810408105047 I I #
point $-1 74.400996038949359 2.2907640455585803 11.139110438268631 #
point $-1 77.526779992065187 9.7185700790452305 6.1368102813154621 #
straight-curve $-1 77.526779992065187 0 11.139110438268631 0 1 0 I I #
vertex $-1 $335 $449 #
point $-1 74.164088399387936 6.0046670623019054 6.3341423851818455 #
straight-curve $-1 -77.526779992065187 31.373420068141229 0 0 0 -1 I I #
straight-curve $-1 -77.526779992065187 0 -11.139110438268631 0 1 0 I I #
point $-1 -77.526779992065187 -31.373420068141229 -11.139110438268631 #
point $-1 -77.526779992065187 31.373420068141229 -11.139110438268631 #
straight-curve $-1 -77.526779992065187 -31.373420068141229 0 0 0 -1 I I #
edge $-1 $370 -2.1538831698302019 $364 2.1538831698302019 $363 $450 forward 7 unknown #
coedge $-1 $368 $359 $358 $424 reversed $254 $-1 #
edge $-1 $372 -2.1538831698302019 $361 2.1538831698302019 $358 $451 forward 7 unknown #
straight-curve $-1 0 -45.60026730758689 -11.139110438268631 -1 0 0 I I #
point $-1 77.526779992065187 -45.60026730758689 -11.139110438268631 #
point $-1 -77.526779992065187 -45.60026730758689 -11.139110438268631 #
straight-curve $-1 0 -45.60026730758689 -6.831344098608227 1 0 0 I I #
point $-1 -77.526779992065187 -45.60026730758689 -6.831344098608227 #
point $-1 77.526779992065187 -45.60026730758689 -6.831344098608227 #
edge $-1 $387 -77.526779992065187 $432 77.526779992065187 $375 $452 forward 7 unknown #
vertex $-1 $392 $453 #
straight-curve $-1 77.526779992065187 45.600267307586883 -8.9852272684384289 0 0 -1 I I #
straight-curve $-1 0 45.600267307586883 -6.831344098608227 -1 0 0 I I #
point $-1 77.526779992065187 45.600267307586883 -6.831344098608227 #
straight-curve $-1 -77.526779992065187 45.600267307586883 -8.9852272684384289 0 0 -1 I I #
point $-1 -77.526779992065187 45.600267307586883 -6.831344098608227 #
point $-1 -77.526779992065187 45.600267307586883 -11.139110438268631 #
straight-curve $-1 77.526779992065187 0 -11.139110438268631 0 -1 0 I I #
straight-curve $-1 77.526779992065187 -14.855808783136988 109.89777715700353 0 0 -1 I I #
point $-1 77.526779992065187 -14.855808783136988 11.139110438268631 #
straight-curve $-1 77.526779992065187 -5.5709528831968314 6.1368102813154763 0 1 0 I I #
point $-1 77.526779992065187 -14.855808783136988 6.1368102813154621 #
point $-1 72.786121043755728 -11.141905766393663 6.6522712377117417 #
straight-curve $-1 77.526779992065187 2.2907640455585803 109.89777715700353 0 0 -1 I I #
point $-1 77.526779992065187 2.2907640455585803 11.139110438268631 #
straight-curve $-1 77.526779992065187 3.0023335311509527 6.1368102813154763 0 1 0 I I #
point $-1 77.526779992065187 2.2907640455585803 6.1368102813154621 #
point $-1 72.786121043755728 6.0046670623019054 6.6522712377117417 #
straight-curve $-1 -77.526779992065187 -45.60026730758689 -8.9852272684384289 0 0 -1 I I #
straight-curve $-1 77.526779992065187 -45.60026730758689 -8.9852272684384289 0 0 -1 I I #
straight-curve $-1 0 45.600267307586883 -11.139110438268631 1 0 0 I I #
point $-1 77.526779992065187 45.600267307586883 -11.139110438268631 #
End-of-ACIS-data 