500 0 19 0           
7 Unknown 11 ACIS 5.0 NT 24 Thu Mar 25 23:21:22 1999 
-1 9.9999999999999995e-007 1e-010 
body $-1 $19 $-1 $20 #
body $-1 $21 $-1 $22 #
body $-1 $23 $-1 $24 #
body $-1 $25 $-1 $26 #
body $-1 $27 $-1 $28 #
body $-1 $29 $-1 $30 #
body $-1 $31 $-1 $32 #
body $-1 $33 $-1 $34 #
body $-1 $35 $-1 $36 #
body $-1 $37 $-1 $38 #
body $-1 $39 $-1 $40 #
body $-1 $41 $-1 $42 #
body $-1 $43 $-1 $44 #
body $-1 $45 $-1 $46 #
body $-1 $47 $-1 $48 #
body $-1 $49 $-1 $50 #
body $-1 $51 $-1 $52 #
body $-1 $53 $-1 $54 #
body $-1 $55 $-1 $56 #
lump $-1 $-1 $57 $0 #
transform $-1 1 0 0 0 1 0 0 0 1 60.669576097903374 38.725990138727923 8.479487333241714 1 rotate no_reflect no_shear #
lump $-1 $-1 $58 $1 #
transform $-1 1 0 0 0 1 0 0 0 1 60.669576097903374 38.725990138727923 8.479487333241714 1 rotate no_reflect no_shear #
lump $-1 $-1 $59 $2 #
transform $-1 1 0 0 0 1 0 0 0 1 60.669576097903374 38.725990138727923 8.479487333241714 1 rotate no_reflect no_shear #
lump $-1 $-1 $60 $3 #
transform $-1 1 0 0 0 1 0 0 0 1 60.669576097903374 38.725990138727923 8.479487333241714 1 rotate no_reflect no_shear #
lump $-1 $-1 $61 $4 #
transform $-1 1 0 0 0 1 0 0 0 1 60.669576097903374 38.725990138727923 8.479487333241714 1 rotate no_reflect no_shear #
lump $-1 $-1 $62 $5 #
transform $-1 1 0 0 0 1 0 0 0 1 60.669576097903374 38.725990138727923 8.479487333241714 1 rotate no_reflect no_shear #
lump $-1 $-1 $63 $6 #
transform $-1 1 0 0 0 1 0 0 0 1 60.669576097903374 38.725990138727923 8.479487333241714 1 rotate no_reflect no_shear #
lump $-1 $-1 $64 $7 #
transform $-1 1 0 0 0 1 0 0 0 1 60.669576097903374 38.725990138727923 8.479487333241714 1 rotate no_reflect no_shear #
lump $-1 $-1 $65 $8 #
transform $-1 1 0 0 0 1 0 0 0 1 60.669576097903374 38.725990138727923 8.479487333241714 1 rotate no_reflect no_shear #
lump $-1 $-1 $66 $9 #
transform $-1 1 0 0 0 1 0 0 0 1 60.669576097903374 38.725990138727923 8.479487333241714 1 rotate no_reflect no_shear #
lump $-1 $-1 $67 $10 #
transform $-1 1 0 0 0 1 0 0 0 1 60.669576097903374 38.725990138727923 8.479487333241714 1 rotate no_reflect no_shear #
lump $-1 $-1 $68 $11 #
transform $-1 1 0 0 0 1 0 0 0 1 60.669576097903374 38.725990138727923 8.479487333241714 1 rotate no_reflect no_shear #
lump $-1 $-1 $69 $12 #
transform $-1 1 0 0 0 1 0 0 0 1 60.669576097903374 38.725990138727923 8.479487333241714 1 rotate no_reflect no_shear #
lump $-1 $-1 $70 $13 #
transform $-1 1 0 0 0 1 0 0 0 1 60.669576097903374 38.725990138727923 8.479487333241714 1 rotate no_reflect no_shear #
lump $-1 $-1 $71 $14 #
transform $-1 1 0 0 0 1 0 0 0 1 60.669576097903374 38.725990138727923 8.479487333241714 1 rotate no_reflect no_shear #
lump $-1 $-1 $72 $15 #
transform $-1 1 0 0 0 1 0 0 0 1 60.669576097903374 38.725990138727923 8.479487333241714 1 rotate no_reflect no_shear #
lump $-1 $-1 $73 $16 #
transform $-1 1 0 0 0 1 0 0 0 1 60.669576097903374 38.725990138727923 8.479487333241714 1 rotate no_reflect no_shear #
lump $-1 $-1 $74 $17 #
transform $-1 1 0 0 0 1 0 0 0 1 60.669576097903374 38.725990138727923 8.479487333241714 1 rotate no_reflect no_shear #
lump $-1 $-1 $75 $18 #
transform $-1 1 0 0 0 1 0 0 0 1 60.669576097903374 38.725990138727923 8.479487333241714 1 rotate no_reflect no_shear #
shell $-1 $-1 $-1 $76 $-1 $19 #
shell $-1 $-1 $-1 $77 $-1 $21 #
shell $-1 $-1 $-1 $78 $-1 $23 #
shell $-1 $-1 $-1 $79 $-1 $25 #
shell $-1 $-1 $-1 $80 $-1 $27 #
shell $-1 $-1 $-1 $81 $-1 $29 #
shell $-1 $-1 $-1 $82 $-1 $31 #
shell $-1 $-1 $-1 $83 $-1 $33 #
shell $-1 $-1 $-1 $84 $-1 $35 #
shell $-1 $-1 $-1 $85 $-1 $37 #
shell $-1 $-1 $-1 $86 $-1 $39 #
shell $-1 $-1 $-1 $87 $-1 $41 #
shell $-1 $-1 $-1 $88 $-1 $43 #
shell $-1 $-1 $-1 $89 $-1 $45 #
shell $-1 $-1 $-1 $90 $-1 $47 #
shell $-1 $-1 $-1 $91 $-1 $49 #
shell $-1 $-1 $-1 $92 $-1 $51 #
shell $-1 $-1 $-1 $93 $-1 $53 #
shell $-1 $-1 $-1 $94 $-1 $55 #
face $-1 $95 $96 $57 $-1 $97 forward single #
face $-1 $98 $99 $58 $-1 $100 reversed single #
face $-1 $101 $102 $59 $-1 $103 reversed single #
face $-1 $104 $105 $60 $-1 $106 reversed single #
face $-1 $107 $108 $61 $-1 $109 forward single #
face $-1 $110 $111 $62 $-1 $112 forward single #
face $-1 $113 $114 $63 $-1 $115 forward single #
face $-1 $116 $117 $64 $-1 $118 reversed single #
face $-1 $119 $120 $65 $-1 $121 forward single #
face $-1 $122 $123 $66 $-1 $124 forward single #
face $-1 $125 $126 $67 $-1 $127 forward single #
face $-1 $128 $129 $68 $-1 $130 reversed single #
face $-1 $131 $132 $69 $-1 $133 forward single #
face $-1 $134 $135 $70 $-1 $136 forward single #
face $-1 $137 $138 $71 $-1 $139 forward single #
face $-1 $140 $141 $72 $-1 $142 reversed single #
face $-1 $143 $144 $73 $-1 $145 forward single #
face $-1 $146 $147 $74 $-1 $148 forward single #
face $-1 $149 $150 $75 $-1 $151 forward single #
face $-1 $152 $153 $57 $-1 $154 reversed single #
loop $-1 $-1 $155 $76 #
plane-surface $-1 0 0 8.479487333241714 0 0 1 1 0 0 forward_v I I I I #
face $-1 $156 $157 $58 $-1 $158 reversed single #
loop $-1 $-1 $159 $77 #
plane-surface $-1 -56.516764838272962 -24.767015472244495 0 0 1 0 0 0 1 forward_v I I I I #
face $-1 $160 $161 $59 $-1 $162 reversed single #
loop $-1 $-1 $163 $78 #
plane-surface $-1 56.516764838272962 -24.767015472244495 0 0 1 0 0 0 1 forward_v I I I I #
face $-1 $164 $165 $60 $-1 $166 reversed single #
loop $-1 $-1 $167 $79 #
plane-surface $-1 -39.91954423052016 -115.08719379646887 95.222822699094735 -1 0 0 0 -0.62932039886446345 0.77714595512881146 forward_v I I I I #
face $-1 $168 $169 $61 $-1 $170 forward single #
loop $-1 $171 $172 $80 #
cone-surface $-1 -49.875071709018073 -33.718731282738453 4.2790880959227353 0 0.62932039886446345 -0.77714595512881146 0.5 0 0 1 I I 0 1 0.5 forward I I I I #
face $-1 $173 $174 $62 $-1 $175 forward single #
loop $-1 $176 $177 $81 #
cone-surface $-1 -46.141748904581348 -33.718731282738453 4.2790880959227353 0 0.62932039886446345 -0.77714595512881146 0.5 0 0 1 I I 0 1 0.5 forward I I I I #
face $-1 $178 $179 $63 $-1 $180 forward single #
loop $-1 $181 $182 $82 #
cone-surface $-1 -42.408426100144638 -33.718731282738453 4.2790880959227353 0 0.62932039886446345 -0.77714595512881146 0.5 0 0 1 I I 0 1 0.5 forward I I I I #
face $-1 $183 $184 $64 $-1 $185 reversed single #
loop $-1 $-1 $186 $83 #
plane-surface $-1 -9.1583782941325911 -115.08719379646887 95.222822699094735 -1 0 0 0 -0.62932039886446345 0.77714595512881146 forward_v I I I I #
face $-1 $187 $188 $65 $-1 $189 forward single #
loop $-1 $190 $191 $84 #
cone-surface $-1 -19.113905772630503 -33.718731282738453 4.2790880959227353 0 0.62932039886446345 -0.77714595512881146 0.5 0 0 1 I I 0 1 0.5 forward I I I I #
face $-1 $192 $193 $66 $-1 $194 forward single #
loop $-1 $195 $196 $85 #
cone-surface $-1 -15.380582968193778 -33.718731282738453 4.2790880959227353 0 0.62932039886446345 -0.77714595512881146 0.5 0 0 1 I I 0 1 0.5 forward I I I I #
face $-1 $197 $198 $67 $-1 $199 forward single #
loop $-1 $200 $201 $86 #
cone-surface $-1 -11.647260163757068 -33.718731282738453 4.2790880959227353 0 0.62932039886446345 -0.77714595512881146 0.5 0 0 1 I I 0 1 0.5 forward I I I I #
face $-1 $202 $203 $68 $-1 $204 reversed single #
loop $-1 $-1 $205 $87 #
plane-surface $-1 21.602787642254988 -115.08719379646887 95.222822699094735 -1 0 0 0 -0.62932039886446345 0.77714595512881146 forward_v I I I I #
face $-1 $206 $207 $69 $-1 $208 forward single #
loop $-1 $209 $210 $88 #
cone-surface $-1 11.647260163757068 -33.718731282738453 4.2790880959227353 0 0.62932039886446345 -0.77714595512881146 0.5 0 0 1 I I 0 1 0.5 forward I I I I #
face $-1 $211 $212 $70 $-1 $213 forward single #
loop $-1 $214 $215 $89 #
cone-surface $-1 15.380582968193792 -33.718731282738453 4.2790880959227353 0 0.62932039886446345 -0.77714595512881146 0.5 0 0 1 I I 0 1 0.5 forward I I I I #
face $-1 $216 $217 $71 $-1 $218 forward single #
loop $-1 $219 $220 $90 #
cone-surface $-1 19.113905772630503 -33.718731282738453 4.2790880959227353 0 0.62932039886446345 -0.77714595512881146 0.5 0 0 1 I I 0 1 0.5 forward I I I I #
face $-1 $221 $222 $72 $-1 $223 reversed single #
loop $-1 $-1 $224 $91 #
plane-surface $-1 52.363953578642558 -115.08719379646887 95.222822699094735 -1 0 0 0 -0.62932039886446345 0.77714595512881146 forward_v I I I I #
face $-1 $225 $226 $73 $-1 $227 forward single #
loop $-1 $228 $229 $92 #
cone-surface $-1 42.408426100144638 -33.718731282738453 4.2790880959227353 0 0.62932039886446345 -0.77714595512881146 0.5 0 0 1 I I 0 1 0.5 forward I I I I #
face $-1 $230 $231 $74 $-1 $232 forward single #
loop $-1 $233 $234 $93 #
cone-surface $-1 46.141748904581362 -33.718731282738453 4.2790880959227353 0 0.62932039886446345 -0.77714595512881146 0.5 0 0 1 I I 0 1 0.5 forward I I I I #
face $-1 $235 $236 $75 $-1 $237 forward single #
loop $-1 $238 $239 $94 #
cone-surface $-1 49.875071709018073 -33.718731282738453 4.2790880959227353 0 0.62932039886446345 -0.77714595512881146 0.5 0 0 1 I I 0 1 0.5 forward I I I I #
face $-1 $240 $241 $57 $-1 $242 reversed single #
loop $-1 $-1 $243 $95 #
plane-surface $-1 0 0 -8.479487333241714 0 0 1 1 0 0 forward_v I I I I #
coedge $-1 $244 $245 $246 $247 forward $96 $-1 #
face $-1 $248 $249 $58 $-1 $250 reversed single #
loop $-1 $-1 $251 $98 #
plane-surface $-1 -56.516764838272962 -21.767015472244495 0 0 -1 0 0 0 -1 forward_v I I I I #
coedge $-1 $252 $253 $254 $255 reversed $99 $-1 #
face $-1 $256 $257 $59 $-1 $258 reversed single #
loop $-1 $-1 $259 $101 #
plane-surface $-1 52.363953578642551 -23.267015472244495 0 1 0 0 0 0 -1 forward_v I I I I #
coedge $-1 $260 $261 $262 $263 forward $102 $-1 #
face $-1 $264 $265 $60 $-1 $266 reversed single #
loop $-1 $-1 $267 $104 #
plane-surface $-1 -46.141748904581355 -38.725990138727923 0.92459137136428637 0 -0.62932039886446345 0.77714595512881146 1 0 0 forward_v I I I I #
coedge $-1 $268 $269 $270 $271 reversed $105 $-1 #
face $-1 $-1 $272 $61 $-1 $273 forward single #
loop $-1 $274 $275 $107 #
cone-surface $-1 -49.875071709018073 -33.21890200174392 3.6618503507602682 0 0.62932039886446345 -0.77714595512881146 0.25 0 0 1 I I -0.70710678118654813 0.70710678118654691 0.25 forward I I I I #
loop $-1 $-1 $276 $80 #
coedge $-1 $172 $172 $277 $278 reversed $108 $-1 #
face $-1 $-1 $279 $62 $-1 $280 forward single #
loop $-1 $281 $282 $110 #
cone-surface $-1 -46.141748904581348 -33.21890200174392 3.6618503507602682 0 0.62932039886446345 -0.77714595512881146 0.25 0 0 1 I I -0.70710678118654813 0.70710678118654691 0.25 forward I I I I #
loop $-1 $-1 $283 $81 #
coedge $-1 $177 $177 $284 $285 reversed $111 $-1 #
face $-1 $-1 $286 $63 $-1 $287 forward single #
loop $-1 $288 $289 $113 #
cone-surface $-1 -42.408426100144638 -33.21890200174392 3.6618503507602682 0 0.62932039886446345 -0.77714595512881146 0.25 0 0 1 I I -0.70710678118654813 0.70710678118654691 0.25 forward I I I I #
loop $-1 $-1 $290 $82 #
coedge $-1 $182 $182 $291 $292 reversed $114 $-1 #
face $-1 $293 $294 $64 $-1 $295 reversed single #
loop $-1 $-1 $296 $116 #
plane-surface $-1 -15.380582968193785 -38.725990138727923 0.92459137136428637 0 -0.62932039886446345 0.77714595512881146 1 0 0 forward_v I I I I #
coedge $-1 $297 $298 $299 $300 reversed $117 $-1 #
face $-1 $-1 $301 $65 $-1 $302 forward single #
loop $-1 $303 $304 $119 #
cone-surface $-1 -19.113905772630503 -33.21890200174392 3.6618503507602682 0 0.62932039886446345 -0.77714595512881146 0.25 0 0 1 I I -0.70710678118654813 0.70710678118654691 0.25 forward I I I I #
loop $-1 $-1 $305 $84 #
coedge $-1 $191 $191 $306 $307 reversed $120 $-1 #
face $-1 $-1 $308 $66 $-1 $309 forward single #
loop $-1 $310 $311 $122 #
cone-surface $-1 -15.380582968193778 -33.21890200174392 3.6618503507602682 0 0.62932039886446345 -0.77714595512881146 0.25 0 0 1 I I -0.70710678118654813 0.70710678118654691 0.25 forward I I I I #
loop $-1 $-1 $312 $85 #
coedge $-1 $196 $196 $313 $314 reversed $123 $-1 #
face $-1 $-1 $315 $67 $-1 $316 forward single #
loop $-1 $317 $318 $125 #
cone-surface $-1 -11.647260163757068 -33.21890200174392 3.6618503507602682 0 0.62932039886446345 -0.77714595512881146 0.25 0 0 1 I I -0.70710678118654813 0.70710678118654691 0.25 forward I I I I #
loop $-1 $-1 $319 $86 #
coedge $-1 $201 $201 $320 $321 reversed $126 $-1 #
face $-1 $322 $323 $68 $-1 $324 reversed single #
loop $-1 $-1 $325 $128 #
plane-surface $-1 15.380582968193792 -38.725990138727923 0.92459137136428637 0 -0.62932039886446345 0.77714595512881146 1 0 0 forward_v I I I I #
coedge $-1 $326 $327 $328 $329 reversed $129 $-1 #
face $-1 $-1 $330 $69 $-1 $331 forward single #
loop $-1 $332 $333 $131 #
cone-surface $-1 11.647260163757068 -33.21890200174392 3.6618503507602682 0 0.62932039886446345 -0.77714595512881146 0.25 0 0 1 I I -0.70710678118654813 0.70710678118654691 0.25 forward I I I I #
loop $-1 $-1 $334 $88 #
coedge $-1 $210 $210 $335 $336 reversed $132 $-1 #
face $-1 $-1 $337 $70 $-1 $338 forward single #
loop $-1 $339 $340 $134 #
cone-surface $-1 15.380582968193792 -33.21890200174392 3.6618503507602682 0 0.62932039886446345 -0.77714595512881146 0.25 0 0 1 I I -0.70710678118654813 0.70710678118654691 0.25 forward I I I I #
loop $-1 $-1 $341 $89 #
coedge $-1 $215 $215 $342 $343 reversed $135 $-1 #
face $-1 $-1 $344 $71 $-1 $345 forward single #
loop $-1 $346 $347 $137 #
cone-surface $-1 19.113905772630503 -33.21890200174392 3.6618503507602682 0 0.62932039886446345 -0.77714595512881146 0.25 0 0 1 I I -0.70710678118654813 0.70710678118654691 0.25 forward I I I I #
loop $-1 $-1 $348 $90 #
coedge $-1 $220 $220 $349 $350 reversed $138 $-1 #
face $-1 $351 $352 $72 $-1 $353 reversed single #
loop $-1 $-1 $354 $140 #
plane-surface $-1 46.141748904581362 -38.725990138727923 0.92459137136428637 0 -0.62932039886446345 0.77714595512881146 1 0 0 forward_v I I I I #
coedge $-1 $355 $356 $357 $358 reversed $141 $-1 #
face $-1 $-1 $359 $73 $-1 $360 forward single #
loop $-1 $361 $362 $143 #
cone-surface $-1 42.408426100144638 -33.21890200174392 3.6618503507602682 0 0.62932039886446345 -0.77714595512881146 0.25 0 0 1 I I -0.70710678118654813 0.70710678118654691 0.25 forward I I I I #
loop $-1 $-1 $363 $92 #
coedge $-1 $229 $229 $364 $365 reversed $144 $-1 #
face $-1 $-1 $366 $74 $-1 $367 forward single #
loop $-1 $368 $369 $146 #
cone-surface $-1 46.141748904581362 -33.21890200174392 3.6618503507602682 0 0.62932039886446345 -0.77714595512881146 0.25 0 0 1 I I -0.70710678118654813 0.70710678118654691 0.25 forward I I I I #
loop $-1 $-1 $370 $93 #
coedge $-1 $234 $234 $371 $372 reversed $147 $-1 #
face $-1 $-1 $373 $75 $-1 $374 forward single #
loop $-1 $375 $376 $149 #
cone-surface $-1 49.875071709018073 -33.21890200174392 3.6618503507602682 0 0.62932039886446345 -0.77714595512881146 0.25 0 0 1 I I -0.70710678118654813 0.70710678118654691 0.25 forward I I I I #
loop $-1 $-1 $377 $94 #
coedge $-1 $239 $239 $378 $379 reversed $150 $-1 #
face $-1 $380 $381 $57 $-1 $382 reversed single #
loop $-1 $-1 $383 $152 #
plane-surface $-1 0 -38.725990138727923 0 0 1 0 0 0 1 forward_v I I I I #
coedge $-1 $384 $385 $386 $387 forward $153 $-1 #
coedge $-1 $388 $155 $389 $390 forward $96 $-1 #
coedge $-1 $155 $388 $391 $392 forward $96 $-1 #
coedge $-1 $393 $394 $155 $247 reversed $395 $-1 #
edge $-1 $396 -38.725990138727923 $397 38.725990138727923 $246 $398 forward 7 unknown #
face $-1 $399 $400 $58 $-1 $401 reversed single #
loop $-1 $-1 $402 $156 #
plane-surface $-1 -52.363953578642551 -23.267015472244495 0 -1 0 0 0 0 1 forward_v I I I I #
coedge $-1 $403 $404 $405 $406 forward $157 $-1 #
coedge $-1 $407 $159 $408 $409 reversed $99 $-1 #
coedge $-1 $159 $407 $410 $411 reversed $99 $-1 #
coedge $-1 $412 $413 $159 $255 forward $414 $-1 #
edge $-1 $415 -8.479487333241714 $416 8.479487333241714 $254 $417 forward 7 unknown #
face $-1 $418 $419 $59 $-1 $420 reversed single #
loop $-1 $-1 $421 $160 #
plane-surface $-1 56.516764838272962 -21.767015472244495 0 0 -1 0 0 0 -1 forward_v I I I I #
coedge $-1 $422 $423 $424 $425 forward $161 $-1 #
coedge $-1 $426 $163 $427 $428 reversed $102 $-1 #
coedge $-1 $163 $426 $429 $430 reversed $102 $-1 #
coedge $-1 $423 $422 $163 $263 reversed $161 $-1 #
edge $-1 $431 -8.479487333241714 $432 8.479487333241714 $262 $433 forward 7 unknown #
face $-1 $434 $435 $60 $-1 $436 forward single #
loop $-1 $-1 $437 $164 #
plane-surface $-1 -52.363953578642551 -115.08719379646887 95.222822699094735 1 0 0 0 0.62932039886446345 -0.77714595512881146 forward_v I I I I #
coedge $-1 $438 $439 $440 $441 reversed $165 $-1 #
coedge $-1 $269 $167 $442 $443 reversed $105 $-1 #
coedge $-1 $167 $268 $438 $444 reversed $105 $-1 #
coedge $-1 $440 $445 $167 $271 forward $435 $-1 #
edge $-1 $446 18.817606759506511 $447 28.147126108928592 $270 $448 forward 7 unknown #
loop $-1 $-1 $277 $168 #
plane-surface $-1 -46.141748904581355 -38.725990138727923 0.92459137136428637 0 -0.62932039886446345 0.77714595512881146 1 0 0 forward_v I I I I #
loop $-1 $-1 $449 $107 #
coedge $-1 $275 $275 $276 $450 reversed $169 $-1 #
coedge $-1 $276 $276 $275 $450 forward $171 $-1 #
coedge $-1 $277 $277 $172 $278 forward $272 $-1 #
edge $-1 $451 4.336522692660536e-015 $451 6.2831853071796049 $277 $452 forward 7 unknown #
loop $-1 $-1 $284 $173 #
plane-surface $-1 -46.141748904581355 -38.725990138727923 0.92459137136428637 0 -0.62932039886446345 0.77714595512881146 1 0 0 forward_v I I I I #
loop $-1 $-1 $453 $110 #
coedge $-1 $282 $282 $283 $454 reversed $174 $-1 #
coedge $-1 $283 $283 $282 $454 forward $176 $-1 #
coedge $-1 $284 $284 $177 $285 forward $279 $-1 #
edge $-1 $455 4.336522692660536e-015 $455 6.2831853071796049 $284 $456 forward 7 unknown #
loop $-1 $-1 $291 $178 #
plane-surface $-1 -46.141748904581355 -38.725990138727923 0.92459137136428637 0 -0.62932039886446345 0.77714595512881146 1 0 0 forward_v I I I I #
loop $-1 $-1 $457 $113 #
coedge $-1 $289 $289 $290 $458 reversed $179 $-1 #
coedge $-1 $290 $290 $289 $458 forward $181 $-1 #
coedge $-1 $291 $291 $182 $292 forward $286 $-1 #
edge $-1 $459 4.336522692660536e-015 $459 6.2831853071796049 $291 $460 forward 7 unknown #
face $-1 $461 $462 $64 $-1 $463 reversed single #
loop $-1 $-1 $464 $183 #
plane-surface $-1 -21.602787642254981 -115.08719379646887 95.222822699094735 1 0 0 0 0.62932039886446345 -0.77714595512881146 forward_v I I I I #
coedge $-1 $465 $466 $467 $468 reversed $184 $-1 #
coedge $-1 $298 $186 $469 $470 reversed $117 $-1 #
coedge $-1 $186 $297 $465 $471 reversed $117 $-1 #
coedge $-1 $467 $472 $186 $300 forward $473 $-1 #
edge $-1 $474 18.817606759506511 $475 28.147126108928592 $299 $476 forward 7 unknown #
loop $-1 $-1 $306 $187 #
plane-surface $-1 -15.380582968193785 -38.725990138727923 0.92459137136428637 0 -0.62932039886446345 0.77714595512881146 1 0 0 forward_v I I I I #
loop $-1 $-1 $477 $119 #
coedge $-1 $304 $304 $305 $478 reversed $188 $-1 #
coedge $-1 $305 $305 $304 $478 forward $190 $-1 #
coedge $-1 $306 $306 $191 $307 forward $301 $-1 #
edge $-1 $479 4.336522692660536e-015 $479 6.2831853071796049 $306 $480 forward 7 unknown #
loop $-1 $-1 $313 $192 #
plane-surface $-1 -15.380582968193785 -38.725990138727923 0.92459137136428637 0 -0.62932039886446345 0.77714595512881146 1 0 0 forward_v I I I I #
loop $-1 $-1 $481 $122 #
coedge $-1 $311 $311 $312 $482 reversed $193 $-1 #
coedge $-1 $312 $312 $311 $482 forward $195 $-1 #
coedge $-1 $313 $313 $196 $314 forward $308 $-1 #
edge $-1 $483 4.336522692660536e-015 $483 6.2831853071796049 $313 $484 forward 7 unknown #
loop $-1 $-1 $320 $197 #
plane-surface $-1 -15.380582968193785 -38.725990138727923 0.92459137136428637 0 -0.62932039886446345 0.77714595512881146 1 0 0 forward_v I I I I #
loop $-1 $-1 $485 $125 #
coedge $-1 $318 $318 $319 $486 reversed $198 $-1 #
coedge $-1 $319 $319 $318 $486 forward $200 $-1 #
coedge $-1 $320 $320 $201 $321 forward $315 $-1 #
edge $-1 $487 4.336522692660536e-015 $487 6.2831853071796049 $320 $488 forward 7 unknown #
face $-1 $489 $490 $68 $-1 $491 reversed single #
loop $-1 $-1 $492 $202 #
plane-surface $-1 9.1583782941325982 -115.08719379646887 95.222822699094735 1 0 0 0 0.62932039886446345 -0.77714595512881146 forward_v I I I I #
coedge $-1 $493 $494 $495 $496 reversed $203 $-1 #
coedge $-1 $327 $205 $497 $498 reversed $129 $-1 #
coedge $-1 $205 $326 $493 $499 reversed $129 $-1 #
coedge $-1 $495 $500 $205 $329 forward $501 $-1 #
edge $-1 $502 18.817606759506511 $503 28.147126108928592 $328 $504 forward 7 unknown #
loop $-1 $-1 $335 $206 #
plane-surface $-1 15.380582968193792 -38.725990138727923 0.92459137136428637 0 -0.62932039886446345 0.77714595512881146 1 0 0 forward_v I I I I #
loop $-1 $-1 $505 $131 #
coedge $-1 $333 $333 $334 $506 reversed $207 $-1 #
coedge $-1 $334 $334 $333 $506 forward $209 $-1 #
coedge $-1 $335 $335 $210 $336 forward $330 $-1 #
edge $-1 $507 4.336522692660536e-015 $507 6.2831853071796049 $335 $508 forward 7 unknown #
loop $-1 $-1 $342 $211 #
plane-surface $-1 15.380582968193792 -38.725990138727923 0.92459137136428637 0 -0.62932039886446345 0.77714595512881146 1 0 0 forward_v I I I I #
loop $-1 $-1 $509 $134 #
coedge $-1 $340 $340 $341 $510 reversed $212 $-1 #
coedge $-1 $341 $341 $340 $510 forward $214 $-1 #
coedge $-1 $342 $342 $215 $343 forward $337 $-1 #
edge $-1 $511 4.336522692660536e-015 $511 6.2831853071796049 $342 $512 forward 7 unknown #
loop $-1 $-1 $349 $216 #
plane-surface $-1 15.380582968193792 -38.725990138727923 0.92459137136428637 0 -0.62932039886446345 0.77714595512881146 1 0 0 forward_v I I I I #
loop $-1 $-1 $513 $137 #
coedge $-1 $347 $347 $348 $514 reversed $217 $-1 #
coedge $-1 $348 $348 $347 $514 forward $219 $-1 #
coedge $-1 $349 $349 $220 $350 forward $344 $-1 #
edge $-1 $515 4.336522692660536e-015 $515 6.2831853071796049 $349 $516 forward 7 unknown #
face $-1 $517 $518 $72 $-1 $519 reversed single #
loop $-1 $-1 $520 $221 #
plane-surface $-1 39.919544230520167 -115.08719379646887 95.222822699094735 1 0 0 0 0.62932039886446345 -0.77714595512881146 forward_v I I I I #
coedge $-1 $521 $522 $523 $524 reversed $222 $-1 #
coedge $-1 $356 $224 $525 $526 reversed $141 $-1 #
coedge $-1 $224 $355 $521 $527 reversed $141 $-1 #
coedge $-1 $523 $528 $224 $358 forward $529 $-1 #
edge $-1 $530 18.817606759506511 $531 28.147126108928592 $357 $532 forward 7 unknown #
loop $-1 $-1 $364 $225 #
plane-surface $-1 46.141748904581362 -38.725990138727923 0.92459137136428637 0 -0.62932039886446345 0.77714595512881146 1 0 0 forward_v I I I I #
loop $-1 $-1 $533 $143 #
coedge $-1 $362 $362 $363 $534 reversed $226 $-1 #
coedge $-1 $363 $363 $362 $534 forward $228 $-1 #
coedge $-1 $364 $364 $229 $365 forward $359 $-1 #
edge $-1 $535 4.336522692660536e-015 $535 6.2831853071796049 $364 $536 forward 7 unknown #
loop $-1 $-1 $371 $230 #
plane-surface $-1 46.141748904581362 -38.725990138727923 0.92459137136428637 0 -0.62932039886446345 0.77714595512881146 1 0 0 forward_v I I I I #
loop $-1 $-1 $537 $146 #
coedge $-1 $369 $369 $370 $538 reversed $231 $-1 #
coedge $-1 $370 $370 $369 $538 forward $233 $-1 #
coedge $-1 $371 $371 $234 $372 forward $366 $-1 #
edge $-1 $539 4.336522692660536e-015 $539 6.2831853071796049 $371 $540 forward 7 unknown #
loop $-1 $-1 $378 $235 #
plane-surface $-1 46.141748904581362 -38.725990138727923 0.92459137136428637 0 -0.62932039886446345 0.77714595512881146 1 0 0 forward_v I I I I #
loop $-1 $-1 $541 $149 #
coedge $-1 $376 $376 $377 $542 reversed $236 $-1 #
coedge $-1 $377 $377 $376 $542 forward $238 $-1 #
coedge $-1 $378 $378 $239 $379 forward $373 $-1 #
edge $-1 $543 4.336522692660536e-015 $543 6.2831853071796049 $378 $544 forward 7 unknown #
face $-1 $545 $546 $57 $-1 $547 reversed single #
loop $-1 $-1 $548 $240 #
plane-surface $-1 -60.669576097903374 0 0 1 0 0 0 0 -1 forward_v I I I I #
coedge $-1 $549 $391 $550 $551 forward $241 $-1 #
coedge $-1 $552 $243 $549 $553 forward $153 $-1 #
coedge $-1 $243 $552 $554 $555 forward $153 $-1 #
coedge $-1 $394 $393 $243 $387 reversed $395 $-1 #
edge $-1 $556 -38.725990138727923 $557 38.725990138727923 $386 $558 forward 7 unknown #
coedge $-1 $245 $244 $559 $560 forward $96 $-1 #
coedge $-1 $561 $562 $244 $390 reversed $546 $-1 #
edge $-1 $397 -60.669576097903374 $563 60.669576097903374 $389 $564 forward 7 unknown #
coedge $-1 $383 $565 $245 $392 reversed $241 $-1 #
edge $-1 $566 -60.669576097903374 $396 60.669576097903374 $391 $567 forward 7 unknown #
coedge $-1 $386 $246 $565 $568 forward $395 $-1 #
coedge $-1 $246 $386 $561 $569 reversed $395 $-1 #
loop $-1 $-1 $393 $545 #
vertex $-1 $247 $570 #
vertex $-1 $247 $571 #
straight-curve $-1 60.669576097903374 0 8.479487333241714 0 1 0 I I #
face $-1 $572 $573 $58 $-1 $574 forward single #
loop $-1 $-1 $575 $248 #
plane-surface $-1 0 0 -8.479487333241714 0 0 1 1 0 0 forward_v I I I I #
coedge $-1 $576 $577 $407 $578 forward $249 $-1 #
coedge $-1 $579 $251 $575 $580 reversed $157 $-1 #
coedge $-1 $251 $579 $581 $582 reversed $157 $-1 #
coedge $-1 $577 $576 $251 $406 reversed $249 $-1 #
edge $-1 $583 -8.479487333241714 $584 8.479487333241714 $405 $585 forward 7 unknown #
coedge $-1 $253 $252 $402 $578 reversed $99 $-1 #
coedge $-1 $586 $587 $252 $409 forward $400 $-1 #
edge $-1 $588 24.10557115950607 $415 32.411193678766892 $408 $589 forward 7 unknown #
coedge $-1 $590 $591 $253 $411 forward $573 $-1 #
edge $-1 $416 -32.411193678766892 $592 -24.10557115950607 $410 $593 forward 7 unknown #
coedge $-1 $594 $254 $591 $595 reversed $414 $-1 #
coedge $-1 $254 $594 $586 $596 reversed $414 $-1 #
loop $-1 $-1 $594 $572 #
vertex $-1 $596 $597 #
vertex $-1 $255 $598 #
straight-curve $-1 -60.669576097903374 -24.767015472244495 0 0 0 1 I I #
face $-1 $599 $600 $59 $-1 $601 forward single #
loop $-1 $-1 $427 $256 #
plane-surface $-1 0 0 -8.479487333241714 0 0 1 1 0 0 forward_v I I I I #
coedge $-1 $602 $603 $604 $605 reversed $257 $-1 #
coedge $-1 $262 $259 $606 $607 reversed $161 $-1 #
coedge $-1 $259 $262 $608 $609 reversed $161 $-1 #
coedge $-1 $603 $602 $259 $425 reversed $257 $-1 #
edge $-1 $610 -8.479487333241714 $611 8.479487333241714 $424 $612 forward 7 unknown #
coedge $-1 $261 $260 $613 $614 reversed $102 $-1 #
coedge $-1 $606 $615 $260 $428 forward $419 $-1 #
edge $-1 $616 -32.411193678766892 $432 -24.10557115950607 $427 $617 forward 7 unknown #
coedge $-1 $618 $608 $261 $430 forward $600 $-1 #
edge $-1 $431 24.10557115950607 $619 32.411193678766892 $429 $620 forward 7 unknown #
vertex $-1 $430 $621 #
vertex $-1 $428 $622 #
straight-curve $-1 52.363953578642551 -24.767015472244495 0 0 0 -1 I I #
face $-1 $-1 $623 $60 $-1 $624 reversed single #
loop $-1 $-1 $270 $264 #
plane-surface $-1 0 0 8.479487333241714 0 0 1 1 0 0 forward_v I I I I #
coedge $-1 $625 $626 $627 $628 reversed $265 $-1 #
coedge $-1 $629 $267 $269 $444 forward $165 $-1 #
coedge $-1 $267 $629 $625 $630 forward $165 $-1 #
coedge $-1 $627 $270 $267 $441 forward $435 $-1 #
edge $-1 $447 16.848669778229482 $631 29.293079126351873 $440 $632 forward 7 unknown #
coedge $-1 $633 $634 $268 $443 forward $623 $-1 #
edge $-1 $635 -46.686819978183081 $446 -39.131924016305653 $442 $636 forward 7 unknown #
edge $-1 $447 -12.004848365807579 $635 0 $269 $637 forward 7 unknown #
coedge $-1 $270 $627 $633 $638 forward $435 $-1 #
vertex $-1 $271 $639 #
vertex $-1 $271 $640 #
straight-curve $-1 -39.91954423052016 -57.543596898234433 8.479487333241714 0 1 0 I I #
coedge $-1 $449 $449 $-1 $641 reversed $274 $-1 #
edge $-1 $642 0 $642 6.2831853071796004 $275 $643 forward 7 unknown #
vertex $-1 $278 $644 #
ellipse-curve $-1 -49.875071709018073 -34.06123046401688 4.7020393523030037 0 -0.62932039886446345 0.77714595512881146 0.5 0 0 1 I I #
coedge $-1 $453 $453 $-1 $645 reversed $281 $-1 #
edge $-1 $646 0 $646 6.2831853071796004 $282 $647 forward 7 unknown #
vertex $-1 $285 $648 #
ellipse-curve $-1 -46.141748904581348 -34.06123046401688 4.7020393523030037 0 -0.62932039886446345 0.77714595512881146 0.5 0 0 1 I I #
coedge $-1 $457 $457 $-1 $649 reversed $288 $-1 #
edge $-1 $650 0 $650 6.2831853071796004 $289 $651 forward 7 unknown #
vertex $-1 $292 $652 #
ellipse-curve $-1 -42.408426100144638 -34.06123046401688 4.7020393523030037 0 -0.62932039886446345 0.77714595512881146 0.5 0 0 1 I I #
face $-1 $-1 $473 $64 $-1 $653 forward single #
loop $-1 $-1 $654 $293 #
plane-surface $-1 0 -38.725990138727923 0 0 1 0 0 0 1 forward_v I I I I #
coedge $-1 $655 $656 $657 $658 reversed $294 $-1 #
coedge $-1 $659 $296 $298 $471 forward $184 $-1 #
coedge $-1 $296 $659 $655 $660 forward $184 $-1 #
coedge $-1 $657 $299 $296 $468 forward $473 $-1 #
edge $-1 $475 1.4680868100356985 $661 13.912496158158088 $467 $662 forward 7 unknown #
coedge $-1 $663 $664 $297 $470 forward $462 $-1 #
edge $-1 $665 -46.686819978183081 $474 -39.131924016305653 $469 $666 forward 7 unknown #
edge $-1 $475 -12.004848365807579 $665 0 $298 $667 forward 7 unknown #
coedge $-1 $299 $657 $663 $668 forward $473 $-1 #
loop $-1 $-1 $657 $461 #
vertex $-1 $470 $669 #
vertex $-1 $300 $670 #
straight-curve $-1 -9.1583782941325911 -57.543596898234433 8.479487333241714 0 1 0 I I #
coedge $-1 $477 $477 $-1 $671 reversed $303 $-1 #
edge $-1 $672 0 $672 6.2831853071796004 $304 $673 forward 7 unknown #
vertex $-1 $307 $674 #
ellipse-curve $-1 -19.113905772630503 -34.06123046401688 4.7020393523030037 0 -0.62932039886446345 0.77714595512881146 0.5 0 0 1 I I #
coedge $-1 $481 $481 $-1 $675 reversed $310 $-1 #
edge $-1 $676 0 $676 6.2831853071796004 $311 $677 forward 7 unknown #
vertex $-1 $314 $678 #
ellipse-curve $-1 -15.380582968193778 -34.06123046401688 4.7020393523030037 0 -0.62932039886446345 0.77714595512881146 0.5 0 0 1 I I #
coedge $-1 $485 $485 $-1 $679 reversed $317 $-1 #
edge $-1 $680 0 $680 6.2831853071796004 $318 $681 forward 7 unknown #
vertex $-1 $321 $682 #
ellipse-curve $-1 -11.647260163757068 -34.06123046401688 4.7020393523030037 0 -0.62932039886446345 0.77714595512881146 0.5 0 0 1 I I #
face $-1 $-1 $501 $68 $-1 $683 forward single #
loop $-1 $-1 $684 $322 #
plane-surface $-1 0 -38.725990138727923 0 0 1 0 0 0 1 forward_v I I I I #
coedge $-1 $685 $686 $687 $688 reversed $323 $-1 #
coedge $-1 $689 $325 $327 $499 forward $203 $-1 #
coedge $-1 $325 $689 $685 $690 forward $203 $-1 #
coedge $-1 $687 $328 $325 $496 forward $501 $-1 #
edge $-1 $503 -13.912496158158092 $691 -1.4680868100357021 $495 $692 forward 7 unknown #
coedge $-1 $693 $694 $326 $498 forward $490 $-1 #
edge $-1 $695 -46.686819978183081 $502 -39.131924016305653 $497 $696 forward 7 unknown #
edge $-1 $503 -12.004848365807579 $695 0 $327 $697 forward 7 unknown #
coedge $-1 $328 $687 $693 $698 forward $501 $-1 #
loop $-1 $-1 $687 $489 #
vertex $-1 $498 $699 #
vertex $-1 $329 $700 #
straight-curve $-1 21.602787642254988 -57.543596898234433 8.479487333241714 0 1 0 I I #
coedge $-1 $505 $505 $-1 $701 reversed $332 $-1 #
edge $-1 $702 0 $702 6.2831853071796004 $333 $703 forward 7 unknown #
vertex $-1 $336 $704 #
ellipse-curve $-1 11.647260163757068 -34.06123046401688 4.7020393523030037 0 -0.62932039886446345 0.77714595512881146 0.5 0 0 1 I I #
coedge $-1 $509 $509 $-1 $705 reversed $339 $-1 #
edge $-1 $706 0 $706 6.2831853071796004 $340 $707 forward 7 unknown #
vertex $-1 $343 $708 #
ellipse-curve $-1 15.380582968193792 -34.06123046401688 4.7020393523030037 0 -0.62932039886446345 0.77714595512881146 0.5 0 0 1 I I #
coedge $-1 $513 $513 $-1 $709 reversed $346 $-1 #
edge $-1 $710 0 $710 6.2831853071796004 $347 $711 forward 7 unknown #
vertex $-1 $350 $712 #
ellipse-curve $-1 19.113905772630503 -34.06123046401688 4.7020393523030037 0 -0.62932039886446345 0.77714595512881146 0.5 0 0 1 I I #
face $-1 $-1 $529 $72 $-1 $713 forward single #
loop $-1 $-1 $714 $351 #
plane-surface $-1 0 -38.725990138727923 0 0 1 0 0 0 1 forward_v I I I I #
coedge $-1 $715 $716 $717 $718 reversed $352 $-1 #
coedge $-1 $719 $354 $356 $527 forward $222 $-1 #
coedge $-1 $354 $719 $715 $720 forward $222 $-1 #
coedge $-1 $717 $357 $354 $524 forward $529 $-1 #
edge $-1 $531 -29.293079126351877 $721 -16.848669778229485 $523 $722 forward 7 unknown #
coedge $-1 $723 $724 $355 $526 forward $518 $-1 #
edge $-1 $725 -46.686819978183081 $530 -39.131924016305653 $525 $726 forward 7 unknown #
edge $-1 $531 -12.004848365807579 $725 0 $356 $727 forward 7 unknown #
coedge $-1 $357 $717 $723 $728 forward $529 $-1 #
loop $-1 $-1 $717 $517 #
vertex $-1 $526 $729 #
vertex $-1 $358 $730 #
straight-curve $-1 52.363953578642558 -57.543596898234433 8.479487333241714 0 1 0 I I #
coedge $-1 $533 $533 $-1 $731 reversed $361 $-1 #
edge $-1 $732 0 $732 6.2831853071796004 $362 $733 forward 7 unknown #
vertex $-1 $365 $734 #
ellipse-curve $-1 42.408426100144638 -34.06123046401688 4.7020393523030037 0 -0.62932039886446345 0.77714595512881146 0.5 0 0 1 I I #
coedge $-1 $537 $537 $-1 $735 reversed $368 $-1 #
edge $-1 $736 0 $736 6.2831853071796004 $369 $737 forward 7 unknown #
vertex $-1 $372 $738 #
ellipse-curve $-1 46.141748904581362 -34.06123046401688 4.7020393523030037 0 -0.62932039886446345 0.77714595512881146 0.5 0 0 1 I I #
coedge $-1 $541 $541 $-1 $739 reversed $375 $-1 #
edge $-1 $740 0 $740 6.2831853071796004 $376 $741 forward 7 unknown #
vertex $-1 $379 $742 #
ellipse-curve $-1 49.875071709018073 -34.06123046401688 4.7020393523030037 0 -0.62932039886446345 0.77714595512881146 0.5 0 0 1 I I #
face $-1 $-1 $395 $57 $-1 $743 reversed single #
loop $-1 $-1 $561 $380 #
plane-surface $-1 0 38.725990138727923 0 0 -1 0 0 0 -1 forward_v I I I I #
coedge $-1 $744 $559 $562 $745 forward $381 $-1 #
coedge $-1 $565 $383 $384 $553 reversed $241 $-1 #
coedge $-1 $559 $744 $383 $551 reversed $381 $-1 #
edge $-1 $566 -8.479487333241714 $746 8.479487333241714 $550 $747 forward 7 unknown #
coedge $-1 $385 $384 $744 $748 forward $153 $-1 #
edge $-1 $557 -60.669576097903374 $746 60.669576097903374 $549 $749 forward 7 unknown #
coedge $-1 $562 $561 $385 $555 reversed $546 $-1 #
edge $-1 $750 -60.669576097903374 $556 60.669576097903374 $554 $751 forward 7 unknown #
vertex $-1 $387 $752 #
vertex $-1 $568 $753 #
straight-curve $-1 60.669576097903374 0 -8.479487333241714 0 -1 0 I I #
coedge $-1 $548 $550 $388 $560 reversed $381 $-1 #
edge $-1 $563 -38.725990138727923 $566 38.725990138727923 $559 $754 forward 7 unknown #
coedge $-1 $554 $389 $394 $569 forward $546 $-1 #
coedge $-1 $389 $554 $548 $745 reversed $546 $-1 #
vertex $-1 $390 $755 #
straight-curve $-1 0 38.725990138727923 8.479487333241714 -1 0 0 I I #
coedge $-1 $391 $549 $393 $568 reversed $241 $-1 #
vertex $-1 $560 $756 #
straight-curve $-1 0 -38.725990138727923 8.479487333241714 1 0 0 I I #
edge $-1 $396 -8.479487333241714 $557 8.479487333241714 $393 $757 forward 7 unknown #
edge $-1 $397 -8.479487333241714 $556 8.479487333241714 $394 $758 forward 7 unknown #
point $-1 60.669576097903374 -38.725990138727923 8.479487333241714 #
point $-1 60.669576097903374 38.725990138727923 8.479487333241714 #
face $-1 $-1 $414 $58 $-1 $759 reversed single #
loop $-1 $-1 $581 $399 #
plane-surface $-1 0 0 8.479487333241714 0 0 1 1 0 0 forward_v I I I I #
coedge $-1 $587 $586 $403 $580 forward $400 $-1 #
coedge $-1 $405 $402 $587 $760 reversed $249 $-1 #
coedge $-1 $402 $405 $590 $761 reversed $249 $-1 #
edge $-1 $592 -8.479487333241714 $588 8.479487333241714 $402 $762 forward 7 unknown #
coedge $-1 $404 $403 $594 $763 reversed $157 $-1 #
edge $-1 $764 -32.411193678766892 $584 -24.10557115950607 $575 $765 forward 7 unknown #
coedge $-1 $591 $590 $404 $582 forward $573 $-1 #
edge $-1 $583 24.10557115950607 $766 32.411193678766892 $581 $767 forward 7 unknown #
vertex $-1 $582 $768 #
vertex $-1 $580 $769 #
straight-curve $-1 -52.363953578642551 -21.767015472244495 0 0 0 -1 I I #
coedge $-1 $575 $408 $413 $596 forward $400 $-1 #
coedge $-1 $408 $575 $576 $760 forward $400 $-1 #
vertex $-1 $409 $770 #
straight-curve $-1 -28.258382419136481 -24.767015472244495 -8.479487333241714 -1 0 0 I I #
coedge $-1 $581 $410 $577 $761 forward $573 $-1 #
coedge $-1 $410 $581 $412 $595 forward $573 $-1 #
vertex $-1 $411 $771 #
straight-curve $-1 -28.258382419136481 -24.767015472244495 8.479487333241714 1 0 0 I I #
coedge $-1 $413 $412 $579 $763 forward $414 $-1 #
edge $-1 $766 21.767015472244495 $416 24.767015472244495 $412 $772 forward 7 unknown #
edge $-1 $415 -24.767015472244495 $764 -21.767015472244495 $413 $773 forward 7 unknown #
point $-1 -60.669576097903374 -24.767015472244495 -8.479487333241714 #
point $-1 -60.669576097903374 -24.767015472244495 8.479487333241714 #
face $-1 $-1 $774 $59 $-1 $775 reversed single #
loop $-1 $-1 $429 $418 #
plane-surface $-1 0 0 8.479487333241714 0 0 1 1 0 0 forward_v I I I I #
coedge $-1 $424 $421 $776 $777 reversed $257 $-1 #
coedge $-1 $421 $424 $778 $779 reversed $257 $-1 #
coedge $-1 $780 $781 $421 $605 forward $774 $-1 #
edge $-1 $782 -8.479487333241714 $783 8.479487333241714 $604 $784 forward 7 unknown #
coedge $-1 $776 $427 $422 $607 forward $419 $-1 #
edge $-1 $432 -13.133507736122247 $611 -10.133507736122247 $606 $785 forward 7 unknown #
coedge $-1 $429 $778 $423 $609 forward $600 $-1 #
edge $-1 $610 10.133507736122247 $431 13.133507736122247 $608 $786 forward 7 unknown #
vertex $-1 $609 $787 #
vertex $-1 $607 $788 #
straight-curve $-1 52.363953578642551 -21.767015472244495 0 0 0 -1 I I #
coedge $-1 $781 $780 $426 $614 forward $774 $-1 #
edge $-1 $619 -8.479487333241714 $616 8.479487333241714 $613 $789 forward 7 unknown #
coedge $-1 $427 $776 $781 $790 forward $419 $-1 #
vertex $-1 $614 $791 #
straight-curve $-1 28.258382419136481 -24.767015472244495 -8.479487333241714 -1 0 0 I I #
coedge $-1 $778 $429 $780 $792 forward $600 $-1 #
vertex $-1 $792 $793 #
straight-curve $-1 28.258382419136481 -24.767015472244495 8.479487333241714 1 0 0 I I #
point $-1 52.363953578642551 -24.767015472244495 8.479487333241714 #
point $-1 52.363953578642551 -24.767015472244495 -8.479487333241714 #
loop $-1 $-1 $442 $434 #
plane-surface $-1 0 -38.725990138727923 0 0 1 0 0 0 1 forward_v I I I I #
coedge $-1 $626 $437 $439 $630 reversed $265 $-1 #
coedge $-1 $437 $625 $794 $795 reversed $265 $-1 #
coedge $-1 $445 $440 $437 $628 forward $435 $-1 #
edge $-1 $631 -28.147126108928592 $796 -18.817606759506511 $627 $797 forward 7 unknown #
coedge $-1 $439 $438 $634 $798 reversed $165 $-1 #
edge $-1 $799 0 $631 12.004848365807579 $625 $800 forward 7 unknown #
vertex $-1 $441 $801 #
straight-curve $-1 -23.070874452290678 -29.396470789305841 8.479487333241714 -1 0 0 I I #
coedge $-1 $794 $442 $445 $638 reversed $623 $-1 #
coedge $-1 $442 $794 $629 $798 forward $623 $-1 #
vertex $-1 $443 $802 #
straight-curve $-1 -39.91954423052016 -38.725990138727923 47.611411349547367 0 0 1 I I #
straight-curve $-1 -39.91954423052016 -38.725990138727923 0.92459137136428637 0 -0.77714595512881146 -0.62932039886446345 I I #
edge $-1 $796 -52.363953578642551 $446 -39.91954423052016 $633 $803 forward 7 unknown #
point $-1 -39.91954423052016 -38.725990138727923 8.479487333241714 #
point $-1 -39.91954423052016 -29.396470789305841 8.479487333241714 #
edge $-1 $804 1 $804 0 $449 $-1 forward 7 unknown #
vertex $-1 $450 $805 #
ellipse-curve $-1 -49.875071709018073 -33.376232101460033 3.8561368395424709 0 -0.62932039886446345 0.77714595512881146 0.5 0 0 1 I I #
point $-1 -49.375071709018073 -34.061230464016873 4.7020393523029984 #
edge $-1 $806 1 $806 0 $453 $-1 forward 7 unknown #
vertex $-1 $454 $807 #
ellipse-curve $-1 -46.141748904581348 -33.376232101460033 3.8561368395424709 0 -0.62932039886446345 0.77714595512881146 0.5 0 0 1 I I #
point $-1 -45.641748904581348 -34.061230464016873 4.7020393523029984 #
edge $-1 $808 1 $808 0 $457 $-1 forward 7 unknown #
vertex $-1 $458 $809 #
ellipse-curve $-1 -42.408426100144638 -33.376232101460033 3.8561368395424709 0 -0.62932039886446345 0.77714595512881146 0.5 0 0 1 I I #
point $-1 -41.908426100144638 -34.061230464016873 4.7020393523029984 #
plane-surface $-1 0 0 8.479487333241714 0 0 1 1 0 0 forward_v I I I I #
coedge $-1 $664 $663 $656 $810 forward $462 $-1 #
coedge $-1 $656 $464 $466 $660 reversed $294 $-1 #
coedge $-1 $464 $655 $654 $810 reversed $294 $-1 #
coedge $-1 $472 $467 $464 $658 forward $473 $-1 #
edge $-1 $661 -28.147126108928592 $811 -18.817606759506511 $657 $812 forward 7 unknown #
coedge $-1 $466 $465 $664 $813 reversed $184 $-1 #
edge $-1 $814 0 $661 12.004848365807579 $655 $815 forward 7 unknown #
vertex $-1 $468 $816 #
straight-curve $-1 -7.6902914840968926 -29.396470789305841 8.479487333241714 -1 0 0 I I #
coedge $-1 $654 $469 $472 $668 reversed $462 $-1 #
coedge $-1 $469 $654 $659 $813 forward $462 $-1 #
vertex $-1 $470 $817 #
straight-curve $-1 -9.1583782941325911 -38.725990138727923 47.611411349547367 0 0 1 I I #
straight-curve $-1 -9.1583782941325911 -38.725990138727923 0.92459137136428637 0 -0.77714595512881146 -0.62932039886446345 I I #
edge $-1 $811 -21.602787642254981 $474 -9.1583782941325911 $663 $818 forward 7 unknown #
point $-1 -9.1583782941325911 -38.725990138727923 8.479487333241714 #
point $-1 -9.1583782941325911 -29.396470789305841 8.479487333241714 #
edge $-1 $819 1 $819 0 $477 $-1 forward 7 unknown #
vertex $-1 $478 $820 #
ellipse-curve $-1 -19.113905772630503 -33.376232101460033 3.8561368395424709 0 -0.62932039886446345 0.77714595512881146 0.5 0 0 1 I I #
point $-1 -18.613905772630503 -34.061230464016873 4.7020393523029984 #
edge $-1 $821 1 $821 0 $481 $-1 forward 7 unknown #
vertex $-1 $482 $822 #
ellipse-curve $-1 -15.380582968193778 -33.376232101460033 3.8561368395424709 0 -0.62932039886446345 0.77714595512881146 0.5 0 0 1 I I #
point $-1 -14.880582968193778 -34.061230464016873 4.7020393523029984 #
edge $-1 $823 1 $823 0 $485 $-1 forward 7 unknown #
vertex $-1 $486 $824 #
ellipse-curve $-1 -11.647260163757068 -33.376232101460033 3.8561368395424709 0 -0.62932039886446345 0.77714595512881146 0.5 0 0 1 I I #
point $-1 -11.147260163757068 -34.061230464016873 4.7020393523029984 #
plane-surface $-1 0 0 8.479487333241714 0 0 1 1 0 0 forward_v I I I I #
coedge $-1 $694 $693 $686 $825 forward $490 $-1 #
coedge $-1 $686 $492 $494 $690 reversed $323 $-1 #
coedge $-1 $492 $685 $684 $825 reversed $323 $-1 #
coedge $-1 $500 $495 $492 $688 forward $501 $-1 #
edge $-1 $691 -28.147126108928592 $826 -18.817606759506511 $687 $827 forward 7 unknown #
coedge $-1 $494 $493 $694 $828 reversed $203 $-1 #
edge $-1 $829 0 $691 12.004848365807579 $685 $830 forward 7 unknown #
vertex $-1 $496 $831 #
straight-curve $-1 7.6902914840968961 -29.396470789305841 8.479487333241714 -1 0 0 I I #
coedge $-1 $684 $497 $500 $698 reversed $490 $-1 #
coedge $-1 $497 $684 $689 $828 forward $490 $-1 #
vertex $-1 $498 $832 #
straight-curve $-1 21.602787642254988 -38.725990138727923 47.611411349547367 0 0 1 I I #
straight-curve $-1 21.602787642254988 -38.725990138727923 0.92459137136428637 0 -0.77714595512881146 -0.62932039886446345 I I #
edge $-1 $826 9.1583782941325982 $502 21.602787642254988 $693 $833 forward 7 unknown #
point $-1 21.602787642254988 -38.725990138727923 8.479487333241714 #
point $-1 21.602787642254988 -29.396470789305841 8.479487333241714 #
edge $-1 $834 1 $834 0 $505 $-1 forward 7 unknown #
vertex $-1 $506 $835 #
ellipse-curve $-1 11.647260163757068 -33.376232101460033 3.8561368395424709 0 -0.62932039886446345 0.77714595512881146 0.5 0 0 1 I I #
point $-1 12.147260163757068 -34.061230464016873 4.7020393523029984 #
edge $-1 $836 1 $836 0 $509 $-1 forward 7 unknown #
vertex $-1 $510 $837 #
ellipse-curve $-1 15.380582968193792 -33.376232101460033 3.8561368395424709 0 -0.62932039886446345 0.77714595512881146 0.5 0 0 1 I I #
point $-1 15.880582968193792 -34.061230464016873 4.7020393523029984 #
edge $-1 $838 1 $838 0 $513 $-1 forward 7 unknown #
vertex $-1 $514 $839 #
ellipse-curve $-1 19.113905772630503 -33.376232101460033 3.8561368395424709 0 -0.62932039886446345 0.77714595512881146 0.5 0 0 1 I I #
point $-1 19.613905772630503 -34.061230464016873 4.7020393523029984 #
plane-surface $-1 0 0 8.479487333241714 0 0 1 1 0 0 forward_v I I I I #
coedge $-1 $724 $723 $716 $840 forward $518 $-1 #
coedge $-1 $716 $520 $522 $720 reversed $352 $-1 #
coedge $-1 $520 $715 $714 $840 reversed $352 $-1 #
coedge $-1 $528 $523 $520 $718 forward $529 $-1 #
edge $-1 $721 -28.147126108928592 $841 -18.817606759506511 $717 $842 forward 7 unknown #
coedge $-1 $522 $521 $724 $843 reversed $222 $-1 #
edge $-1 $844 0 $721 12.004848365807579 $715 $845 forward 7 unknown #
vertex $-1 $524 $846 #
straight-curve $-1 23.070874452290681 -29.396470789305841 8.479487333241714 -1 0 0 I I #
coedge $-1 $714 $525 $528 $728 reversed $518 $-1 #
coedge $-1 $525 $714 $719 $843 forward $518 $-1 #
vertex $-1 $526 $847 #
straight-curve $-1 52.363953578642558 -38.725990138727923 47.611411349547367 0 0 1 I I #
straight-curve $-1 52.363953578642558 -38.725990138727923 0.92459137136428637 0 -0.77714595512881146 -0.62932039886446345 I I #
edge $-1 $841 39.919544230520167 $530 52.363953578642558 $723 $848 forward 7 unknown #
point $-1 52.363953578642558 -38.725990138727923 8.479487333241714 #
point $-1 52.363953578642558 -29.396470789305841 8.479487333241714 #
edge $-1 $849 1 $849 0 $533 $-1 forward 7 unknown #
vertex $-1 $534 $850 #
ellipse-curve $-1 42.408426100144638 -33.376232101460033 3.8561368395424709 0 -0.62932039886446345 0.77714595512881146 0.5 0 0 1 I I #
point $-1 42.908426100144638 -34.061230464016873 4.7020393523029984 #
edge $-1 $851 1 $851 0 $537 $-1 forward 7 unknown #
vertex $-1 $538 $852 #
ellipse-curve $-1 46.141748904581362 -33.376232101460033 3.8561368395424709 0 -0.62932039886446345 0.77714595512881146 0.5 0 0 1 I I #
point $-1 46.641748904581362 -34.061230464016873 4.7020393523029984 #
edge $-1 $853 1 $853 0 $541 $-1 forward 7 unknown #
vertex $-1 $542 $854 #
ellipse-curve $-1 49.875071709018073 -33.376232101460033 3.8561368395424709 0 -0.62932039886446345 0.77714595512881146 0.5 0 0 1 I I #
point $-1 50.375071709018073 -34.061230464016873 4.7020393523029984 #
plane-surface $-1 60.669576097903374 0 0 -1 0 0 0 0 1 forward_v I I I I #
coedge $-1 $550 $548 $552 $748 reversed $381 $-1 #
edge $-1 $563 -8.479487333241714 $750 8.479487333241714 $562 $855 forward 7 unknown #
vertex $-1 $748 $856 #
straight-curve $-1 -60.669576097903374 -38.725990138727923 0 0 0 -1 I I #
edge $-1 $746 -38.725990138727923 $750 38.725990138727923 $744 $857 forward 7 unknown #
straight-curve $-1 0 -38.725990138727923 -8.479487333241714 -1 0 0 I I #
vertex $-1 $555 $858 #
straight-curve $-1 0 38.725990138727923 -8.479487333241714 1 0 0 I I #
point $-1 60.669576097903374 38.725990138727923 -8.479487333241714 #
point $-1 60.669576097903374 -38.725990138727923 -8.479487333241714 #
straight-curve $-1 -60.669576097903374 0 8.479487333241714 0 -1 0 I I #
point $-1 -60.669576097903374 38.725990138727923 8.479487333241714 #
point $-1 -60.669576097903374 -38.725990138727923 8.479487333241714 #
straight-curve $-1 60.669576097903374 -38.725990138727923 0 0 0 -1 I I #
straight-curve $-1 60.669576097903374 38.725990138727923 0 0 0 -1 I I #
plane-surface $-1 -60.669576097903374 0 0 1 0 0 0 0 -1 forward_v I I I I #
edge $-1 $584 10.133507736122247 $588 13.133507736122247 $587 $859 forward 7 unknown #
edge $-1 $592 -13.133507736122247 $583 -10.133507736122247 $590 $860 forward 7 unknown #
straight-curve $-1 -52.363953578642551 -24.767015472244495 0 0 0 -1 I I #
edge $-1 $766 -8.479487333241714 $764 8.479487333241714 $594 $861 forward 7 unknown #
vertex $-1 $763 $862 #
straight-curve $-1 -28.258382419136481 -21.767015472244495 -8.479487333241714 1 0 0 I I #
vertex $-1 $595 $863 #
straight-curve $-1 -28.258382419136481 -21.767015472244495 8.479487333241714 -1 0 0 I I #
point $-1 -52.363953578642551 -21.767015472244495 8.479487333241714 #
point $-1 -52.363953578642551 -21.767015472244495 -8.479487333241714 #
point $-1 -52.363953578642551 -24.767015472244495 -8.479487333241714 #
point $-1 -52.363953578642551 -24.767015472244495 8.479487333241714 #
straight-curve $-1 -60.669576097903374 0 8.479487333241714 0 -1 0 I I #
straight-curve $-1 -60.669576097903374 0 -8.479487333241714 0 1 0 I I #
loop $-1 $-1 $613 $599 #
plane-surface $-1 60.669576097903374 0 0 -1 0 0 0 0 1 forward_v I I I I #
coedge $-1 $615 $606 $602 $777 forward $419 $-1 #
edge $-1 $611 24.10557115950607 $782 32.411193678766892 $776 $864 forward 7 unknown #
coedge $-1 $608 $618 $603 $779 forward $600 $-1 #
edge $-1 $783 -32.411193678766892 $610 -24.10557115950607 $778 $865 forward 7 unknown #
coedge $-1 $613 $604 $618 $792 reversed $774 $-1 #
coedge $-1 $604 $613 $615 $790 reversed $774 $-1 #
vertex $-1 $790 $866 #
vertex $-1 $605 $867 #
straight-curve $-1 60.669576097903374 -21.767015472244495 0 0 0 1 I I #
straight-curve $-1 52.363953578642551 -11.633507736122247 -8.479487333241714 0 1 0 I I #
straight-curve $-1 52.363953578642551 -11.633507736122247 8.479487333241714 0 -1 0 I I #
point $-1 52.363953578642551 -21.767015472244495 8.479487333241714 #
point $-1 52.363953578642551 -21.767015472244495 -8.479487333241714 #
straight-curve $-1 60.669576097903374 -24.767015472244495 0 0 0 -1 I I #
edge $-1 $782 21.767015472244495 $616 24.767015472244495 $781 $868 forward 7 unknown #
point $-1 60.669576097903374 -24.767015472244495 -8.479487333241714 #
edge $-1 $619 -24.767015472244495 $783 -21.767015472244495 $780 $869 forward 7 unknown #
point $-1 60.669576097903374 -24.767015472244495 8.479487333241714 #
coedge $-1 $634 $633 $626 $795 forward $623 $-1 #
edge $-1 $796 39.131924016305653 $799 46.686819978183081 $794 $870 forward 7 unknown #
vertex $-1 $638 $871 #
straight-curve $-1 -52.363953578642551 -57.543596898234433 8.479487333241714 0 -1 0 I I #
edge $-1 $799 -29.293079126351873 $635 -16.848669778229482 $634 $872 forward 7 unknown #
vertex $-1 $798 $873 #
straight-curve $-1 -52.363953578642551 -38.725990138727923 0.92459137136428637 0 0.77714595512881146 0.62932039886446345 I I #
point $-1 -52.363953578642551 -29.396470789305841 8.479487333241714 #
point $-1 -39.91954423052016 -38.725990138727923 0.92459137136428637 #
straight-curve $-1 0 -38.725990138727923 8.479487333241714 1 0 0 I I #
vertex $-1 $641 $874 #
point $-1 -49.375071709018073 -33.376232101460033 3.8561368395424709 #
vertex $-1 $645 $875 #
point $-1 -45.641748904581348 -33.376232101460033 3.8561368395424709 #
vertex $-1 $649 $876 #
point $-1 -41.908426100144638 -33.376232101460033 3.8561368395424709 #
edge $-1 $811 39.131924016305653 $814 46.686819978183081 $654 $877 forward 7 unknown #
vertex $-1 $668 $878 #
straight-curve $-1 -21.602787642254981 -57.543596898234433 8.479487333241714 0 -1 0 I I #
edge $-1 $814 -13.912496158158088 $665 -1.4680868100356985 $664 $879 forward 7 unknown #
vertex $-1 $813 $880 #
straight-curve $-1 -21.602787642254981 -38.725990138727923 0.92459137136428637 0 0.77714595512881146 0.62932039886446345 I I #
point $-1 -21.602787642254981 -29.396470789305841 8.479487333241714 #
point $-1 -9.1583782941325911 -38.725990138727923 0.92459137136428637 #
straight-curve $-1 0 -38.725990138727923 8.479487333241714 1 0 0 I I #
vertex $-1 $671 $881 #
point $-1 -18.613905772630503 -33.376232101460033 3.8561368395424709 #
vertex $-1 $675 $882 #
point $-1 -14.880582968193778 -33.376232101460033 3.8561368395424709 #
vertex $-1 $679 $883 #
point $-1 -11.147260163757068 -33.376232101460033 3.8561368395424709 #
edge $-1 $826 39.131924016305653 $829 46.686819978183081 $684 $884 forward 7 unknown #
vertex $-1 $698 $885 #
straight-curve $-1 9.1583782941325982 -57.543596898234433 8.479487333241714 0 -1 0 I I #
edge $-1 $829 1.4680868100357021 $695 13.912496158158092 $694 $886 forward 7 unknown #
vertex $-1 $828 $887 #
straight-curve $-1 9.1583782941325982 -38.725990138727923 0.92459137136428637 0 0.77714595512881146 0.62932039886446345 I I #
point $-1 9.1583782941325982 -29.396470789305841 8.479487333241714 #
point $-1 21.602787642254988 -38.725990138727923 0.92459137136428637 #
straight-curve $-1 0 -38.725990138727923 8.479487333241714 1 0 0 I I #
vertex $-1 $701 $888 #
point $-1 12.147260163757068 -33.376232101460033 3.8561368395424709 #
vertex $-1 $705 $889 #
point $-1 15.880582968193792 -33.376232101460033 3.8561368395424709 #
vertex $-1 $709 $890 #
point $-1 19.613905772630503 -33.376232101460033 3.8561368395424709 #
edge $-1 $841 39.131924016305653 $844 46.686819978183081 $714 $891 forward 7 unknown #
vertex $-1 $728 $892 #
straight-curve $-1 39.919544230520167 -57.543596898234433 8.479487333241714 0 -1 0 I I #
edge $-1 $844 16.848669778229485 $725 29.293079126351877 $724 $893 forward 7 unknown #
vertex $-1 $843 $894 #
straight-curve $-1 39.919544230520167 -38.725990138727923 0.92459137136428637 0 0.77714595512881146 0.62932039886446345 I I #
point $-1 39.919544230520167 -29.396470789305841 8.479487333241714 #
point $-1 52.363953578642558 -38.725990138727923 0.92459137136428637 #
straight-curve $-1 0 -38.725990138727923 8.479487333241714 1 0 0 I I #
vertex $-1 $731 $895 #
point $-1 42.908426100144638 -33.376232101460033 3.8561368395424709 #
vertex $-1 $735 $896 #
point $-1 46.641748904581362 -33.376232101460033 3.8561368395424709 #
vertex $-1 $739 $897 #
point $-1 50.375071709018073 -33.376232101460033 3.8561368395424709 #
straight-curve $-1 -60.669576097903374 38.725990138727923 0 0 0 -1 I I #
point $-1 -60.669576097903374 -38.725990138727923 -8.479487333241714 #
straight-curve $-1 -60.669576097903374 0 -8.479487333241714 0 1 0 I I #
point $-1 -60.669576097903374 38.725990138727923 -8.479487333241714 #
straight-curve $-1 -52.363953578642551 -11.633507736122247 -8.479487333241714 0 -1 0 I I #
straight-curve $-1 -52.363953578642551 -11.633507736122247 8.479487333241714 0 1 0 I I #
straight-curve $-1 -60.669576097903374 -21.767015472244495 0 0 0 -1 I I #
point $-1 -60.669576097903374 -21.767015472244495 -8.479487333241714 #
point $-1 -60.669576097903374 -21.767015472244495 8.479487333241714 #
straight-curve $-1 28.258382419136481 -21.767015472244495 -8.479487333241714 1 0 0 I I #
straight-curve $-1 28.258382419136481 -21.767015472244495 8.479487333241714 -1 0 0 I I #
point $-1 60.669576097903374 -21.767015472244495 -8.479487333241714 #
point $-1 60.669576097903374 -21.767015472244495 8.479487333241714 #
straight-curve $-1 60.669576097903374 0 -8.479487333241714 0 -1 0 I I #
straight-curve $-1 60.669576097903374 0 8.479487333241714 0 1 0 I I #
straight-curve $-1 -52.363953578642551 -38.725990138727923 47.611411349547367 0 0 -1 I I #
point $-1 -52.363953578642551 -38.725990138727923 8.479487333241714 #
straight-curve $-1 -23.070874452290678 -38.725990138727923 0.92459137136428793 1 0 0 I I #
point $-1 -52.363953578642551 -38.725990138727923 0.92459137136428637 #
point $-1 -49.875071709018073 -33.061571902027808 3.4675638619780655 #
point $-1 -46.141748904581348 -33.061571902027808 3.4675638619780655 #
point $-1 -42.408426100144638 -33.061571902027808 3.4675638619780655 #
straight-curve $-1 -21.602787642254981 -38.725990138727923 47.611411349547367 0 0 -1 I I #
point $-1 -21.602787642254981 -38.725990138727923 8.479487333241714 #
straight-curve $-1 -7.6902914840968926 -38.725990138727923 0.92459137136428793 1 0 0 I I #
point $-1 -21.602787642254981 -38.725990138727923 0.92459137136428637 #
point $-1 -19.113905772630503 -33.061571902027808 3.4675638619780655 #
point $-1 -15.380582968193778 -33.061571902027808 3.4675638619780655 #
point $-1 -11.647260163757068 -33.061571902027808 3.4675638619780655 #
straight-curve $-1 9.1583782941325982 -38.725990138727923 47.611411349547367 0 0 -1 I I #
point $-1 9.1583782941325982 -38.725990138727923 8.479487333241714 #
straight-curve $-1 7.6902914840968961 -38.725990138727923 0.92459137136428793 1 0 0 I I #
point $-1 9.1583782941325982 -38.725990138727923 0.92459137136428637 #
point $-1 11.647260163757068 -33.061571902027808 3.4675638619780655 #
point $-1 15.380582968193792 -33.061571902027808 3.4675638619780655 #
point $-1 19.113905772630503 -33.061571902027808 3.4675638619780655 #
straight-curve $-1 39.919544230520167 -38.725990138727923 47.611411349547367 0 0 -1 I I #
point $-1 39.919544230520167 -38.725990138727923 8.479487333241714 #
straight-curve $-1 23.070874452290681 -38.725990138727923 0.92459137136428793 1 0 0 I I #
point $-1 39.919544230520167 -38.725990138727923 0.92459137136428637 #
point $-1 42.408426100144638 -33.061571902027808 3.4675638619780655 #
point $-1 46.141748904581362 -33.061571902027808 3.4675638619780655 #
point $-1 49.875071709018073 -33.061571902027808 3.4675638619780655 #
End-of-ACIS-data 