500 0 3 0           
7 Unknown 11 ACIS 5.0 NT 24 Fri Mar 26 18:23:30 1999 
-1 9.9999999999999995e-007 1e-010 
body $-1 $3 $-1 $4 #
body $-1 $5 $-1 $6 #
body $-1 $7 $-1 $8 #
lump $-1 $-1 $9 $0 #
transform $-1 1 0 0 0 1 0 0 0 1 49.582811975463116 33.384226694047818 8.1222691618890543 1 rotate no_reflect no_shear #
lump $-1 $-1 $10 $1 #
transform $-1 1 0 0 0 1 0 0 0 1 49.582811975463116 33.384226694047818 8.1222691618890543 1 rotate no_reflect no_shear #
lump $-1 $-1 $11 $2 #
transform $-1 1 0 0 0 1 0 0 0 1 49.582811975463116 33.384226694047818 8.1222691618890543 1 rotate no_reflect no_shear #
shell $-1 $-1 $-1 $12 $-1 $3 #
shell $-1 $-1 $-1 $13 $-1 $5 #
shell $-1 $-1 $-1 $14 $-1 $7 #
face $-1 $15 $16 $9 $-1 $17 forward single #
face $-1 $18 $19 $10 $-1 $20 reversed single #
face $-1 $21 $22 $11 $-1 $23 forward single #
face $-1 $24 $25 $9 $-1 $26 reversed single #
loop $-1 $-1 $27 $12 #
plane-surface $-1 0 0 8.1222691618890543 0 0 1 1 0 0 forward_v I I I I #
face $-1 $28 $29 $10 $-1 $30 reversed single #
loop $-1 $-1 $31 $13 #
plane-surface $-1 40.071331484903453 -33.384226694047825 2.1566461793091207 0 -0.82903758062907751 0.55919289150049634 1 0 0 forward_v I I I I #
face $-1 $32 $33 $11 $-1 $34 forward single #
loop $-1 $35 $36 $14 #
cone-surface $-1 40.071331484903453 -30.469682138485297 4.5306376259114289 0 0.82903758062907751 -0.55919289150049634 1 0 0 1 I I 0 1 1 forward I I I I #
face $-1 $37 $38 $9 $-1 $39 reversed single #
loop $-1 $-1 $40 $15 #
plane-surface $-1 0 0 -8.1222691618890543 0 0 1 1 0 0 forward_v I I I I #
coedge $-1 $41 $42 $43 $44 forward $16 $-1 #
face $-1 $45 $46 $10 $-1 $47 reversed single #
loop $-1 $-1 $48 $18 #
plane-surface $-1 30.55985099434379 -115.59625565589661 57.609358173878434 1 0 0 0 0.82903758062907751 -0.55919289150049634 forward_v I I I I #
coedge $-1 $49 $50 $51 $52 reversed $19 $-1 #
face $-1 $-1 $53 $11 $-1 $54 forward single #
loop $-1 $55 $56 $21 #
cone-surface $-1 40.071331484903453 -29.152550484956478 3.6422211354735321 0 0.82903758062907751 -0.55919289150049634 0.5 0 0 1 I I -0.70710678118654746 0.70710678118654746 0.5 forward I I I I #
loop $-1 $-1 $57 $14 #
coedge $-1 $36 $36 $58 $59 reversed $22 $-1 #
face $-1 $60 $61 $9 $-1 $62 reversed single #
loop $-1 $-1 $63 $24 #
plane-surface $-1 0 -33.384226694047818 0 0 1 0 0 0 1 forward_v I I I I #
coedge $-1 $64 $65 $66 $67 forward $25 $-1 #
coedge $-1 $68 $27 $69 $70 forward $16 $-1 #
coedge $-1 $27 $68 $71 $72 forward $16 $-1 #
coedge $-1 $73 $74 $27 $44 reversed $75 $-1 #
edge $-1 $76 -33.384226694047818 $77 33.384226694047818 $43 $78 forward 7 unknown #
face $-1 $79 $80 $10 $-1 $81 forward single #
loop $-1 $-1 $82 $28 #
plane-surface $-1 0 -33.384226694047818 0 0 1 0 0 0 1 forward_v I I I I #
coedge $-1 $83 $84 $85 $86 reversed $29 $-1 #
coedge $-1 $87 $31 $88 $89 reversed $19 $-1 #
coedge $-1 $31 $87 $83 $90 forward $19 $-1 #
coedge $-1 $85 $91 $31 $52 forward $80 $-1 #
edge $-1 $92 -29.547146233011389 $93 -10.524185251892064 $51 $94 forward 7 unknown #
loop $-1 $-1 $58 $32 #
plane-surface $-1 40.071331484903453 -33.384226694047825 2.1566461793091207 0 -0.82903758062907751 0.55919289150049634 1 0 0 forward_v I I I I #
loop $-1 $-1 $95 $21 #
coedge $-1 $56 $56 $57 $96 reversed $33 $-1 #
coedge $-1 $57 $57 $56 $96 forward $35 $-1 #
coedge $-1 $58 $58 $36 $59 forward $53 $-1 #
edge $-1 $97 -1.5305723169936968e-016 $97 6.2831853071796004 $58 $98 forward 7 unknown #
face $-1 $99 $100 $9 $-1 $101 reversed single #
loop $-1 $-1 $102 $37 #
plane-surface $-1 -49.582811975463116 0 0 1 0 0 0 0 -1 forward_v I I I I #
coedge $-1 $103 $71 $104 $105 forward $38 $-1 #
coedge $-1 $106 $40 $103 $107 forward $25 $-1 #
coedge $-1 $40 $106 $108 $109 forward $25 $-1 #
coedge $-1 $74 $73 $40 $67 reversed $75 $-1 #
edge $-1 $110 -33.384226694047818 $111 33.384226694047818 $66 $112 forward 7 unknown #
coedge $-1 $42 $41 $113 $114 forward $16 $-1 #
coedge $-1 $115 $116 $41 $70 reversed $100 $-1 #
edge $-1 $77 -49.582811975463116 $117 49.582811975463116 $69 $118 forward 7 unknown #
coedge $-1 $63 $119 $42 $72 reversed $38 $-1 #
edge $-1 $120 -49.582811975463116 $76 49.582811975463116 $71 $121 forward 7 unknown #
coedge $-1 $66 $43 $119 $122 forward $75 $-1 #
coedge $-1 $43 $66 $115 $123 reversed $75 $-1 #
loop $-1 $-1 $73 $99 #
vertex $-1 $44 $124 #
vertex $-1 $44 $125 #
straight-curve $-1 49.582811975463116 0 8.1222691618890543 0 1 0 I I #
face $-1 $-1 $126 $10 $-1 $127 reversed single #
loop $-1 $-1 $85 $45 #
plane-surface $-1 0 0 8.1222691618890543 0 0 1 1 0 0 forward_v I I I I #
coedge $-1 $128 $129 $84 $130 forward $46 $-1 #
coedge $-1 $84 $48 $50 $90 reversed $29 $-1 #
coedge $-1 $48 $83 $82 $130 reversed $29 $-1 #
coedge $-1 $131 $51 $48 $86 forward $80 $-1 #
edge $-1 $93 -28.437764518596946 $132 -24.413901133900488 $85 $133 forward 7 unknown #
coedge $-1 $50 $49 $128 $134 reversed $19 $-1 #
coedge $-1 $135 $136 $49 $89 forward $126 $-1 #
edge $-1 $137 -8.4401407623926268 $92 -1.2442993168779604 $88 $138 forward 7 unknown #
edge $-1 $139 1.2809303928265426e-014 $93 7.19584144551468 $83 $140 forward 7 unknown #
coedge $-1 $51 $131 $135 $141 forward $80 $-1 #
vertex $-1 $89 $142 #
vertex $-1 $52 $143 #
straight-curve $-1 20.035665742451727 -29.360363309351364 8.1222691618890543 -1 0 0 I I #
coedge $-1 $95 $95 $-1 $144 reversed $55 $-1 #
edge $-1 $145 0 $145 6.2831853071796004 $56 $146 forward 7 unknown #
vertex $-1 $59 $147 #
ellipse-curve $-1 40.071331484903453 -31.372295001699591 5.1394576705990884 0 -0.82903758062907751 0.55919289150049634 1 0 0 1 I I #
face $-1 $-1 $75 $9 $-1 $148 reversed single #
loop $-1 $-1 $115 $60 #
plane-surface $-1 0 33.384226694047818 0 0 -1 0 0 0 -1 forward_v I I I I #
coedge $-1 $149 $113 $116 $150 forward $61 $-1 #
coedge $-1 $119 $63 $64 $107 reversed $38 $-1 #
coedge $-1 $113 $149 $63 $105 reversed $61 $-1 #
edge $-1 $120 -8.1222691618890543 $151 8.1222691618890543 $104 $152 forward 7 unknown #
coedge $-1 $65 $64 $149 $153 forward $25 $-1 #
edge $-1 $111 -49.582811975463116 $151 49.582811975463116 $103 $154 forward 7 unknown #
coedge $-1 $116 $115 $65 $109 reversed $100 $-1 #
edge $-1 $155 -49.582811975463116 $110 49.582811975463116 $108 $156 forward 7 unknown #
vertex $-1 $67 $157 #
vertex $-1 $122 $158 #
straight-curve $-1 49.582811975463116 0 -8.1222691618890543 0 -1 0 I I #
coedge $-1 $102 $104 $68 $114 reversed $61 $-1 #
edge $-1 $117 -33.384226694047818 $120 33.384226694047818 $113 $159 forward 7 unknown #
coedge $-1 $108 $69 $74 $123 forward $100 $-1 #
coedge $-1 $69 $108 $102 $150 reversed $100 $-1 #
vertex $-1 $70 $160 #
straight-curve $-1 0 33.384226694047818 8.1222691618890543 -1 0 0 I I #
coedge $-1 $71 $103 $73 $122 reversed $38 $-1 #
vertex $-1 $114 $161 #
straight-curve $-1 0 -33.384226694047818 8.1222691618890543 1 0 0 I I #
edge $-1 $76 -8.1222691618890543 $111 8.1222691618890543 $73 $162 forward 7 unknown #
edge $-1 $77 -8.1222691618890543 $110 8.1222691618890543 $74 $163 forward 7 unknown #
point $-1 49.582811975463116 -33.384226694047818 8.1222691618890543 #
point $-1 49.582811975463116 33.384226694047818 8.1222691618890543 #
loop $-1 $-1 $88 $79 #
plane-surface $-1 49.582811975463116 0 0 -1 0 0 0 0 1 forward_v I I I I #
coedge $-1 $164 $82 $87 $134 forward $46 $-1 #
coedge $-1 $82 $164 $131 $165 reversed $46 $-1 #
edge $-1 $132 20.682409925050163 $139 26.648032907630085 $82 $166 forward 7 unknown #
coedge $-1 $91 $85 $129 $165 forward $80 $-1 #
vertex $-1 $165 $167 #
straight-curve $-1 30.55985099434379 -57.798127827948306 8.1222691618890543 0 -1 0 I I #
edge $-1 $139 10.524185251892064 $137 29.547146233011389 $128 $168 forward 7 unknown #
coedge $-1 $136 $88 $91 $141 reversed $126 $-1 #
coedge $-1 $88 $135 $164 $169 forward $126 $-1 #
vertex $-1 $134 $170 #
straight-curve $-1 49.582811975463116 -28.664559976454282 9.1538400571319727 0 0.55919289150049634 0.82903758062907751 I I #
vertex $-1 $134 $171 #
straight-curve $-1 30.55985099434379 -33.384226694047825 2.1566461793091207 0 0.55919289150049634 0.82903758062907751 I I #
edge $-1 $172 -33.384226694047818 $92 -29.36036330935136 $135 $173 forward 7 unknown #
point $-1 49.582811975463116 -29.36036330935136 8.1222691618890543 #
point $-1 30.55985099434379 -29.36036330935136 8.1222691618890543 #
edge $-1 $174 1 $174 0 $95 $-1 forward 7 unknown #
vertex $-1 $96 $175 #
ellipse-curve $-1 40.071331484903453 -29.567069275271017 3.9218175812237801 0 -0.82903758062907751 0.55919289150049634 1 0 0 1 I I #
point $-1 41.071331484903453 -31.372295001699577 5.1394576705990787 #
plane-surface $-1 49.582811975463116 0 0 -1 0 0 0 0 1 forward_v I I I I #
coedge $-1 $104 $102 $106 $153 reversed $61 $-1 #
edge $-1 $117 -8.1222691618890543 $155 8.1222691618890543 $116 $176 forward 7 unknown #
vertex $-1 $153 $177 #
straight-curve $-1 -49.582811975463116 -33.384226694047818 0 0 0 -1 I I #
edge $-1 $151 -33.384226694047818 $155 33.384226694047818 $149 $178 forward 7 unknown #
straight-curve $-1 0 -33.384226694047818 -8.1222691618890543 -1 0 0 I I #
vertex $-1 $109 $179 #
straight-curve $-1 0 33.384226694047818 -8.1222691618890543 1 0 0 I I #
point $-1 49.582811975463116 33.384226694047818 -8.1222691618890543 #
point $-1 49.582811975463116 -33.384226694047818 -8.1222691618890543 #
straight-curve $-1 -49.582811975463116 0 8.1222691618890543 0 -1 0 I I #
point $-1 -49.582811975463116 33.384226694047818 8.1222691618890543 #
point $-1 -49.582811975463116 -33.384226694047818 8.1222691618890543 #
straight-curve $-1 49.582811975463116 -33.384226694047818 0 0 0 -1 I I #
straight-curve $-1 49.582811975463116 33.384226694047818 0 0 0 -1 I I #
coedge $-1 $129 $128 $136 $169 reversed $46 $-1 #
edge $-1 $132 30.55985099434379 $172 49.582811975463116 $129 $180 forward 7 unknown #
straight-curve $-1 30.55985099434379 -33.384226694047818 28.804679086939217 0 0 -1 I I #
point $-1 30.55985099434379 -33.384226694047818 8.1222691618890543 #
straight-curve $-1 20.035665742451727 -33.384226694047818 2.1566461793091345 1 0 0 I I #
edge $-1 $172 -8.1222691618890543 $137 -2.1566461793091314 $136 $181 forward 7 unknown #
point $-1 49.582811975463116 -33.384226694047818 2.1566461793091314 #
point $-1 30.55985099434379 -33.384226694047818 2.1566461793091314 #
vertex $-1 $141 $182 #
straight-curve $-1 49.582811975463116 0 8.1222691618890543 0 1 0 I I #
vertex $-1 $144 $183 #
point $-1 41.071331484903453 -29.567069275271017 3.9218175812237801 #
straight-curve $-1 -49.582811975463116 33.384226694047818 0 0 0 -1 I I #
point $-1 -49.582811975463116 -33.384226694047818 -8.1222691618890543 #
straight-curve $-1 -49.582811975463116 0 -8.1222691618890543 0 1 0 I I #
point $-1 -49.582811975463116 33.384226694047818 -8.1222691618890543 #
straight-curve $-1 0 -33.384226694047818 8.1222691618890543 1 0 0 I I #
straight-curve $-1 49.582811975463116 -33.384226694047818 0 0 0 -1 I I #
point $-1 49.582811975463116 -33.384226694047818 8.1222691618890543 #
point $-1 40.071331484903453 -28.73803169464194 3.3626246897232841 #
End-of-ACIS-data 