500 0 8 0           
7 Unknown 11 ACIS 5.0 NT 24 Thu Mar 25 19:43:25 1999 
-1 9.9999999999999995e-007 1e-010 
body $-1 $8 $-1 $9 #
body $-1 $10 $-1 $11 #
body $-1 $12 $-1 $13 #
body $-1 $14 $-1 $15 #
body $-1 $16 $-1 $17 #
body $-1 $18 $-1 $19 #
body $-1 $20 $-1 $21 #
body $-1 $22 $-1 $23 #
lump $-1 $-1 $24 $0 #
transform $-1 1 0 0 0 1 0 0 0 1 78.913541062654502 54.716390846924988 15.967895011280724 1 rotate no_reflect no_shear #
lump $-1 $-1 $25 $1 #
transform $-1 1 0 0 0 1 0 0 0 1 78.913541062654502 54.716390846924988 15.967895011280724 1 rotate no_reflect no_shear #
lump $-1 $-1 $26 $2 #
transform $-1 1 0 0 0 1 0 0 0 1 78.913541062654502 54.716390846924988 15.967895011280724 1 rotate no_reflect no_shear #
lump $-1 $-1 $27 $3 #
transform $-1 1 0 0 0 1 0 0 0 1 78.913541062654502 54.716390846924988 15.967895011280724 1 rotate no_reflect no_shear #
lump $-1 $-1 $28 $4 #
transform $-1 1 0 0 0 1 0 0 0 1 78.913541062654502 54.716390846924988 15.967895011280724 1 rotate no_reflect no_shear #
lump $-1 $-1 $29 $5 #
transform $-1 1 0 0 0 1 0 0 0 1 78.913541062654502 54.716390846924988 15.967895011280724 1 rotate no_reflect no_shear #
lump $-1 $-1 $30 $6 #
transform $-1 1 0 0 0 1 0 0 0 1 78.913541062654502 54.716390846924988 15.967895011280724 1 rotate no_reflect no_shear #
lump $-1 $-1 $31 $7 #
transform $-1 1 0 0 0 1 0 0 0 1 78.913541062654502 54.716390846924988 15.967895011280724 1 rotate no_reflect no_shear #
shell $-1 $-1 $-1 $32 $-1 $8 #
shell $-1 $-1 $-1 $33 $-1 $10 #
shell $-1 $-1 $-1 $34 $-1 $12 #
shell $-1 $-1 $-1 $35 $-1 $14 #
shell $-1 $-1 $-1 $36 $-1 $16 #
shell $-1 $-1 $-1 $37 $-1 $18 #
shell $-1 $-1 $-1 $38 $-1 $20 #
shell $-1 $-1 $-1 $39 $-1 $22 #
face $-1 $40 $41 $24 $-1 $42 forward single #
face $-1 $43 $44 $25 $-1 $45 forward single #
face $-1 $46 $47 $26 $-1 $48 reversed single #
face $-1 $49 $50 $27 $-1 $51 forward single #
face $-1 $52 $53 $28 $-1 $54 reversed single #
face $-1 $55 $56 $29 $-1 $57 forward single #
face $-1 $58 $59 $30 $-1 $60 reversed single #
face $-1 $61 $62 $31 $-1 $63 forward single #
face $-1 $64 $65 $24 $-1 $66 reversed single #
loop $-1 $-1 $67 $32 #
plane-surface $-1 0 0 15.967895011280724 0 0 1 1 0 0 forward_v I I I I #
face $-1 $68 $69 $25 $-1 $70 forward single #
loop $-1 $-1 $71 $33 #
plane-surface $-1 0 -54.716390846924988 0 0 1 0 0 0 1 forward_v I I I I #
face $-1 $72 $73 $26 $-1 $74 reversed single #
loop $-1 $-1 $75 $34 #
plane-surface $-1 -180.36283517269698 -13.490202317847437 126.76931668575887 0 1 0 -0.64278761758704617 0 0.76604443648966558 forward_v I I I I #
face $-1 $76 $77 $27 $-1 $78 forward single #
loop $-1 $79 $80 $35 #
cone-surface $-1 -71.82854941163545 -6.5832509551481948 9.6469664179701446 0.64278761758704617 0 -0.76604443648966558 1.915111091224164 0 1.6069690439676154 1 I I 0 1 2.5 forward I I I I #
face $-1 $81 $82 $28 $-1 $83 reversed single #
loop $-1 $-1 $84 $36 #
plane-surface $-1 -180.36283517269698 12.785245996271538 126.76931668575887 0 1 0 -0.64278761758704617 0 0.76604443648966558 forward_v I I I I #
face $-1 $85 $86 $29 $-1 $87 forward single #
loop $-1 $88 $89 $37 #
cone-surface $-1 -71.82854941163545 19.69219735897078 9.6469664179701446 0.64278761758704617 0 -0.76604443648966558 1.915111091224164 0 1.6069690439676154 1 I I 0 1 2.5 forward I I I I #
face $-1 $90 $91 $30 $-1 $92 reversed single #
loop $-1 $-1 $93 $38 #
plane-surface $-1 43.997182782534594 -0.49652051101339012 223.32248921588516 0 -1 0 -0.5877852598018023 0 -0.80901698891910034 forward_v I I I I #
face $-1 $94 $95 $31 $-1 $96 forward single #
loop $-1 $97 $98 $39 #
cone-surface $-1 69.158904154260398 -12.635111070763919 8.3996738863642264 -0.5877852598018023 0 -0.80901698891910034 1.2135254833786506 0 -0.88167788970270344 1 I I 0 1 1.5 forward I I I I #
face $-1 $99 $100 $24 $-1 $101 reversed single #
loop $-1 $-1 $102 $40 #
plane-surface $-1 0 0 -15.967895011280724 0 0 1 1 0 0 forward_v I I I I #
coedge $-1 $103 $104 $105 $106 forward $41 $-1 #
face $-1 $107 $108 $25 $-1 $109 reversed single #
loop $-1 $-1 $110 $43 #
plane-surface $-1 0 0 15.967895011280724 0 0 1 1 0 0 forward_v I I I I #
coedge $-1 $111 $112 $113 $114 forward $44 $-1 #
face $-1 $115 $116 $26 $-1 $117 reversed single #
loop $-1 $-1 $118 $46 #
plane-surface $-1 -78.913541062654517 -6.5832509551481948 5.8667584962683605 -0.64278761758704617 0 0.76604443648966558 0.76604443648966558 0 0.64278761758704617 forward_v I I I I #
coedge $-1 $119 $120 $121 $122 reversed $47 $-1 #
face $-1 $-1 $123 $27 $-1 $124 forward single #
loop $-1 $125 $126 $49 #
cone-surface $-1 -69.959105978089454 -6.5832509551481948 7.4190505365536588 0.64278761758704617 0 -0.76604443648966558 0.957555545612082 0 0.80348452198380771 1 I I -0.70710678118654746 0.70710678118654746 1.25 forward I I I I #
loop $-1 $-1 $127 $35 #
coedge $-1 $80 $80 $128 $129 reversed $50 $-1 #
face $-1 $130 $131 $28 $-1 $132 reversed single #
loop $-1 $-1 $133 $52 #
plane-surface $-1 -78.913541062654517 19.69219735897078 5.8667584962683605 -0.64278761758704617 0 0.76604443648966558 0.76604443648966558 0 0.64278761758704617 forward_v I I I I #
coedge $-1 $134 $135 $136 $137 reversed $53 $-1 #
face $-1 $-1 $138 $29 $-1 $139 forward single #
loop $-1 $140 $141 $55 #
cone-surface $-1 -69.959105978089454 19.69219735897078 7.4190505365536588 0.64278761758704617 0 -0.76604443648966558 0.957555545612082 0 0.80348452198380771 1 I I -0.70710678118654746 0.70710678118654746 1.25 forward I I I I #
loop $-1 $-1 $142 $37 #
coedge $-1 $89 $89 $143 $144 reversed $56 $-1 #
face $-1 $145 $146 $30 $-1 $147 reversed single #
loop $-1 $-1 $148 $58 #
plane-surface $-1 -48.771249688250549 -12.635111070763919 95.637698464980105 0.5877852598018023 0 0.80901698891910034 0.80901698891910034 0 -0.5877852598018023 forward_v I I I I #
coedge $-1 $149 $150 $151 $152 reversed $59 $-1 #
face $-1 $-1 $153 $31 $-1 $154 forward single #
loop $-1 $155 $156 $61 #
cone-surface $-1 67.977786206097761 -12.635111070763919 6.7740045283013117 -0.5877852598018023 0 -0.80901698891910034 0.60676274168932531 0 -0.44083894485135172 1 I I -0.70710678118654757 0.70710678118654757 0.75 forward I I I I #
loop $-1 $-1 $157 $39 #
coedge $-1 $98 $98 $158 $159 reversed $62 $-1 #
face $-1 $160 $161 $24 $-1 $162 reversed single #
loop $-1 $-1 $163 $64 #
plane-surface $-1 0 -54.716390846924988 0 0 1 0 0 0 1 forward_v I I I I #
coedge $-1 $164 $165 $166 $167 forward $65 $-1 #
coedge $-1 $168 $67 $169 $170 forward $41 $-1 #
coedge $-1 $67 $168 $171 $172 forward $41 $-1 #
coedge $-1 $173 $174 $67 $106 reversed $175 $-1 #
edge $-1 $176 -54.716390846924988 $177 54.716390846924988 $105 $178 forward 7 unknown #
face $-1 $179 $180 $25 $-1 $181 reversed single #
loop $-1 $-1 $182 $68 #
plane-surface $-1 -78.913541062654502 0 0 1 0 0 0 0 -1 forward_v I I I I #
coedge $-1 $183 $184 $112 $185 forward $69 $-1 #
coedge $-1 $186 $71 $187 $188 reversed $44 $-1 #
coedge $-1 $71 $186 $110 $185 reversed $44 $-1 #
coedge $-1 $189 $190 $71 $114 reversed $191 $-1 #
edge $-1 $192 -15.967895011280724 $193 15.967895011280724 $113 $194 forward 7 unknown #
face $-1 $195 $196 $26 $-1 $197 reversed single #
loop $-1 $-1 $198 $72 #
plane-surface $-1 -180.36283517269698 0.32370040755104768 126.76931668575887 0 -1 0 0.64278761758704617 0 -0.76604443648966558 forward_v I I I I #
coedge $-1 $199 $200 $201 $202 reversed $73 $-1 #
coedge $-1 $120 $75 $203 $204 reversed $47 $-1 #
coedge $-1 $75 $119 $199 $205 reversed $47 $-1 #
coedge $-1 $201 $206 $75 $122 forward $207 $-1 #
edge $-1 $208 11.267876523693985 $209 23.305942002607722 $121 $210 forward 7 unknown #
loop $-1 $-1 $128 $76 #
plane-surface $-1 -78.913541062654517 -6.5832509551481948 5.8667584962683605 -0.64278761758704617 0 0.76604443648966558 0.76604443648966558 0 0.64278761758704617 forward_v I I I I #
loop $-1 $-1 $211 $49 #
coedge $-1 $126 $126 $127 $212 reversed $77 $-1 #
coedge $-1 $127 $127 $126 $212 forward $79 $-1 #
coedge $-1 $128 $128 $80 $129 forward $123 $-1 #
edge $-1 $213 0 $213 6.2831853071796004 $128 $214 forward 7 unknown #
face $-1 $215 $216 $28 $-1 $217 forward single #
loop $-1 $-1 $218 $81 #
plane-surface $-1 -180.36283517269698 26.599148721670023 126.76931668575887 0 -1 0 0.64278761758704617 0 -0.76604443648966558 forward_v I I I I #
coedge $-1 $219 $220 $221 $222 reversed $82 $-1 #
coedge $-1 $135 $84 $223 $224 reversed $53 $-1 #
coedge $-1 $84 $134 $219 $225 reversed $53 $-1 #
coedge $-1 $221 $226 $84 $137 forward $216 $-1 #
edge $-1 $227 11.267876523693985 $228 23.305942002607722 $136 $229 forward 7 unknown #
loop $-1 $-1 $143 $85 #
plane-surface $-1 -78.913541062654517 19.69219735897078 5.8667584962683605 -0.64278761758704617 0 0.76604443648966558 0.76604443648966558 0 0.64278761758704617 forward_v I I I I #
loop $-1 $-1 $230 $55 #
coedge $-1 $141 $141 $142 $231 reversed $86 $-1 #
coedge $-1 $142 $142 $141 $231 forward $88 $-1 #
coedge $-1 $143 $143 $89 $144 forward $138 $-1 #
edge $-1 $232 0 $232 6.2831853071796004 $143 $233 forward 7 unknown #
face $-1 $234 $235 $30 $-1 $236 forward single #
loop $-1 $-1 $237 $90 #
plane-surface $-1 43.997182782534594 -24.773701630514449 223.32248921588516 0 1 0 0.5877852598018023 0 0.80901698891910034 forward_v I I I I #
coedge $-1 $238 $239 $240 $241 reversed $91 $-1 #
coedge $-1 $150 $93 $242 $243 reversed $59 $-1 #
coedge $-1 $93 $149 $238 $244 reversed $59 $-1 #
coedge $-1 $240 $245 $93 $152 forward $235 $-1 #
edge $-1 $246 -56.914949671387205 $247 -38.886233861221569 $151 $248 forward 7 unknown #
loop $-1 $-1 $158 $94 #
plane-surface $-1 -48.771249688250549 -12.635111070763919 95.637698464980105 0.5877852598018023 0 0.80901698891910034 0.80901698891910034 0 -0.5877852598018023 forward_v I I I I #
loop $-1 $-1 $249 $61 #
coedge $-1 $156 $156 $157 $250 reversed $95 $-1 #
coedge $-1 $157 $157 $156 $250 forward $97 $-1 #
coedge $-1 $158 $158 $98 $159 forward $153 $-1 #
edge $-1 $251 0 $251 6.2831853071796004 $158 $252 forward 7 unknown #
face $-1 $253 $254 $24 $-1 $255 reversed single #
loop $-1 $-1 $256 $99 #
plane-surface $-1 -78.913541062654502 0 0 1 0 0 0 0 -1 forward_v I I I I #
coedge $-1 $257 $171 $258 $259 forward $100 $-1 #
coedge $-1 $260 $102 $257 $261 forward $65 $-1 #
coedge $-1 $102 $260 $262 $263 forward $65 $-1 #
coedge $-1 $174 $173 $102 $167 reversed $175 $-1 #
edge $-1 $264 -54.716390846924988 $265 54.716390846924988 $166 $266 forward 7 unknown #
coedge $-1 $104 $103 $267 $268 forward $41 $-1 #
coedge $-1 $269 $270 $103 $170 reversed $254 $-1 #
edge $-1 $177 -78.913541062654502 $271 78.913541062654502 $169 $272 forward 7 unknown #
coedge $-1 $163 $273 $104 $172 reversed $100 $-1 #
edge $-1 $274 -78.913541062654502 $176 78.913541062654502 $171 $275 forward 7 unknown #
coedge $-1 $166 $105 $273 $276 forward $175 $-1 #
coedge $-1 $105 $166 $269 $277 reversed $175 $-1 #
loop $-1 $-1 $173 $253 #
vertex $-1 $106 $278 #
vertex $-1 $106 $279 #
straight-curve $-1 78.913541062654502 0 15.967895011280724 0 1 0 I I #
face $-1 $280 $191 $25 $-1 $281 reversed single #
loop $-1 $-1 $282 $107 #
plane-surface $-1 -75.074706474460157 -67.825337250747566 0 0 1 0 0 0 1 forward_v I I I I #
coedge $-1 $283 $284 $186 $285 forward $108 $-1 #
coedge $-1 $286 $110 $284 $287 forward $69 $-1 #
coedge $-1 $110 $286 $189 $288 forward $69 $-1 #
edge $-1 $192 71.235871886265812 $289 78.913541062654502 $110 $290 forward 7 unknown #
coedge $-1 $112 $111 $182 $285 reversed $44 $-1 #
coedge $-1 $291 $292 $111 $188 forward $293 $-1 #
edge $-1 $294 -78.913541062654502 $193 -71.235871886265812 $187 $295 forward 7 unknown #
coedge $-1 $296 $113 $184 $288 reversed $191 $-1 #
coedge $-1 $113 $296 $291 $297 reversed $191 $-1 #
loop $-1 $-1 $296 $179 #
vertex $-1 $185 $298 #
vertex $-1 $297 $299 #
straight-curve $-1 -71.235871886265812 -54.716390846924988 0 0 0 -1 I I #
face $-1 $-1 $207 $26 $-1 $300 forward single #
loop $-1 $-1 $301 $115 #
plane-surface $-1 -78.913541062654502 0 0 1 0 0 0 0 -1 forward_v I I I I #
coedge $-1 $302 $303 $304 $305 reversed $116 $-1 #
coedge $-1 $306 $118 $120 $205 forward $73 $-1 #
coedge $-1 $118 $306 $302 $307 forward $73 $-1 #
coedge $-1 $304 $121 $118 $202 forward $207 $-1 #
edge $-1 $209 -10.19857684027334 $308 3.6153258851251451 $201 $309 forward 7 unknown #
coedge $-1 $310 $311 $119 $204 forward $196 $-1 #
edge $-1 $312 -57.517899846611058 $208 -47.416763331598709 $203 $313 forward 7 unknown #
edge $-1 $209 -15.714578561626496 $312 -1.8307977367429951e-014 $120 $314 forward 7 unknown #
coedge $-1 $121 $304 $310 $315 forward $207 $-1 #
loop $-1 $-1 $304 $195 #
vertex $-1 $204 $316 #
vertex $-1 $122 $317 #
straight-curve $-1 -90.181417586348488 -13.490202317847437 15.967895011280724 1 0 0 I I #
coedge $-1 $211 $211 $-1 $318 reversed $125 $-1 #
edge $-1 $319 0 $319 6.2831853071796004 $126 $320 forward 7 unknown #
vertex $-1 $129 $321 #
ellipse-curve $-1 -72.894508323197641 -6.5832509551481948 10.917326753774548 -0.64278761758704617 0 0.76604443648966558 1.915111091224164 0 1.6069690439676154 1 I I #
face $-1 $-1 $322 $28 $-1 $323 reversed single #
loop $-1 $-1 $136 $130 #
plane-surface $-1 0 0 15.967895011280724 0 0 1 1 0 0 forward_v I I I I #
coedge $-1 $324 $325 $326 $327 reversed $131 $-1 #
coedge $-1 $328 $133 $135 $225 forward $82 $-1 #
coedge $-1 $133 $328 $324 $329 forward $82 $-1 #
coedge $-1 $326 $136 $133 $222 forward $216 $-1 #
edge $-1 $228 2.9391473167861477 $330 16.753050042184633 $221 $331 forward 7 unknown #
coedge $-1 $332 $333 $134 $224 forward $322 $-1 #
edge $-1 $334 -57.517899846611058 $227 -47.416763331598709 $223 $335 forward 7 unknown #
edge $-1 $228 -15.714578561626496 $334 -1.8307977367429951e-014 $135 $336 forward 7 unknown #
coedge $-1 $136 $326 $332 $337 forward $216 $-1 #
vertex $-1 $224 $338 #
vertex $-1 $137 $339 #
straight-curve $-1 -90.181417586348488 12.785245996271538 15.967895011280724 1 0 0 I I #
coedge $-1 $230 $230 $-1 $340 reversed $140 $-1 #
edge $-1 $341 0 $341 6.2831853071796004 $141 $342 forward 7 unknown #
vertex $-1 $144 $343 #
ellipse-curve $-1 -72.894508323197641 19.69219735897078 10.917326753774548 -0.64278761758704617 0 0.76604443648966558 1.915111091224164 0 1.6069690439676154 1 I I #
face $-1 $-1 $344 $30 $-1 $345 reversed single #
loop $-1 $-1 $151 $145 #
plane-surface $-1 0 0 15.967895011280724 0 0 1 1 0 0 forward_v I I I I #
coedge $-1 $346 $347 $348 $349 reversed $146 $-1 #
coedge $-1 $350 $148 $150 $244 forward $91 $-1 #
coedge $-1 $148 $350 $346 $351 forward $91 $-1 #
coedge $-1 $348 $151 $148 $241 forward $235 $-1 #
edge $-1 $247 -5.8210350243685696 $352 18.456146095132489 $240 $353 forward 7 unknown #
coedge $-1 $354 $355 $149 $243 forward $344 $-1 #
edge $-1 $356 -108.79197861374762 $246 -95.693349596661847 $242 $357 forward 7 unknown #
edge $-1 $247 135.54236368663544 $356 157.827082125309 $150 $358 forward 7 unknown #
coedge $-1 $151 $348 $354 $359 forward $235 $-1 #
vertex $-1 $152 $360 #
vertex $-1 $152 $361 #
straight-curve $-1 21.998591391267297 -0.49652051101339012 15.967895011280717 -1 0 0 I I #
coedge $-1 $249 $249 $-1 $362 reversed $155 $-1 #
edge $-1 $363 0 $363 6.2831853071796004 $156 $364 forward 7 unknown #
vertex $-1 $159 $365 #
ellipse-curve $-1 69.899183157571699 -12.635111070763919 9.418580502737834 0.5877852598018023 0 0.80901698891910034 1.2135254833786506 0 -0.88167788970270344 1 I I #
face $-1 $-1 $175 $24 $-1 $366 reversed single #
loop $-1 $-1 $269 $160 #
plane-surface $-1 0 54.716390846924988 0 0 -1 0 0 0 -1 forward_v I I I I #
coedge $-1 $367 $267 $270 $368 forward $161 $-1 #
coedge $-1 $273 $163 $164 $261 reversed $100 $-1 #
coedge $-1 $267 $367 $163 $259 reversed $161 $-1 #
edge $-1 $274 -15.967895011280724 $369 15.967895011280724 $258 $370 forward 7 unknown #
coedge $-1 $165 $164 $367 $371 forward $65 $-1 #
edge $-1 $265 -78.913541062654502 $369 78.913541062654502 $257 $372 forward 7 unknown #
coedge $-1 $270 $269 $165 $263 reversed $254 $-1 #
edge $-1 $373 -78.913541062654502 $264 78.913541062654502 $262 $374 forward 7 unknown #
vertex $-1 $167 $375 #
vertex $-1 $276 $376 #
straight-curve $-1 78.913541062654502 0 -15.967895011280724 0 -1 0 I I #
coedge $-1 $256 $258 $168 $268 reversed $161 $-1 #
edge $-1 $271 -54.716390846924988 $274 54.716390846924988 $267 $377 forward 7 unknown #
coedge $-1 $262 $169 $174 $277 forward $254 $-1 #
coedge $-1 $169 $262 $256 $368 reversed $254 $-1 #
vertex $-1 $170 $378 #
straight-curve $-1 0 54.716390846924988 15.967895011280724 -1 0 0 I I #
coedge $-1 $171 $257 $173 $276 reversed $100 $-1 #
vertex $-1 $268 $379 #
straight-curve $-1 0 -54.716390846924988 15.967895011280724 1 0 0 I I #
edge $-1 $176 -15.967895011280724 $265 15.967895011280724 $173 $380 forward 7 unknown #
edge $-1 $177 -15.967895011280724 $264 15.967895011280724 $174 $381 forward 7 unknown #
point $-1 78.913541062654502 -54.716390846924988 15.967895011280724 #
point $-1 78.913541062654502 54.716390846924988 15.967895011280724 #
face $-1 $-1 $293 $25 $-1 $382 reversed single #
plane-surface $-1 -71.235871886265812 -61.27086404883628 0 -1 0 0 0 0 1 forward_v I I I I #
coedge $-1 $383 $384 $385 $386 forward $180 $-1 #
coedge $-1 $385 $182 $292 $387 reversed $108 $-1 #
coedge $-1 $182 $385 $183 $287 reversed $108 $-1 #
edge $-1 $289 -15.967895011280724 $294 15.967895011280724 $182 $388 forward 7 unknown #
coedge $-1 $184 $183 $384 $389 forward $69 $-1 #
edge $-1 $289 54.716390846924988 $390 67.825337250747566 $284 $391 forward 7 unknown #
edge $-1 $392 -6.5544732019112857 $192 6.5544732019112928 $189 $393 forward 7 unknown #
vertex $-1 $287 $394 #
straight-curve $-1 0 -54.716390846924988 15.967895011280724 -1 0 0 I I #
coedge $-1 $395 $187 $190 $297 forward $293 $-1 #
coedge $-1 $187 $395 $283 $387 forward $293 $-1 #
loop $-1 $-1 $187 $280 #
vertex $-1 $285 $396 #
straight-curve $-1 0 -54.716390846924988 -15.967895011280724 1 0 0 I I #
coedge $-1 $190 $189 $397 $398 forward $191 $-1 #
edge $-1 $193 -6.5544732019112928 $399 6.5544732019112857 $190 $400 forward 7 unknown #
point $-1 -71.235871886265812 -54.716390846924988 15.967895011280724 #
point $-1 -71.235871886265812 -54.716390846924988 -15.967895011280724 #
plane-surface $-1 0 0 15.967895011280724 0 0 1 1 0 0 forward_v I I I I #
coedge $-1 $311 $310 $303 $401 forward $196 $-1 #
coedge $-1 $303 $198 $200 $307 reversed $116 $-1 #
coedge $-1 $198 $302 $301 $401 reversed $116 $-1 #
coedge $-1 $206 $201 $198 $305 forward $207 $-1 #
edge $-1 $308 -23.305942002607722 $402 -11.267876523693985 $304 $403 forward 7 unknown #
coedge $-1 $200 $199 $311 $404 reversed $73 $-1 #
edge $-1 $405 1.8307977367429951e-014 $308 15.714578561626496 $302 $406 forward 7 unknown #
vertex $-1 $202 $407 #
straight-curve $-1 -66.87547558374078 -3.2916254775740974 15.967895011280726 0 1 0 I I #
coedge $-1 $301 $203 $206 $315 reversed $196 $-1 #
coedge $-1 $203 $301 $306 $404 forward $196 $-1 #
vertex $-1 $204 $408 #
straight-curve $-1 -78.913541062654502 -13.490202317847437 63.384658342879433 0 0 1 I I #
straight-curve $-1 -78.913541062654517 -13.490202317847437 5.8667584962683605 -0.76604443648966558 0 -0.64278761758704617 I I #
edge $-1 $402 -0.32370040755104768 $208 13.490202317847437 $310 $409 forward 7 unknown #
point $-1 -78.913541062654502 -13.490202317847437 15.967895011280724 #
point $-1 -66.875475583740766 -13.490202317847437 15.967895011280724 #
edge $-1 $410 1 $410 0 $211 $-1 forward 7 unknown #
vertex $-1 $212 $411 #
ellipse-curve $-1 -70.762590500073259 -6.5832509551481948 8.3766060821657415 -0.64278761758704617 0 0.76604443648966558 1.915111091224164 0 1.6069690439676154 1 I I #
point $-1 -70.979397231973465 -6.5832509551481948 12.524295797742163 #
loop $-1 $-1 $223 $215 #
plane-surface $-1 -78.913541062654502 0 0 1 0 0 0 0 -1 forward_v I I I I #
coedge $-1 $325 $218 $220 $329 reversed $131 $-1 #
coedge $-1 $218 $324 $412 $413 reversed $131 $-1 #
coedge $-1 $226 $221 $218 $327 forward $216 $-1 #
edge $-1 $330 -23.305942002607722 $414 -11.267876523693985 $326 $415 forward 7 unknown #
coedge $-1 $220 $219 $333 $416 reversed $82 $-1 #
edge $-1 $417 1.8307977367429951e-014 $330 15.714578561626496 $324 $418 forward 7 unknown #
vertex $-1 $222 $419 #
straight-curve $-1 -66.87547558374078 9.8460986794853902 15.967895011280726 0 1 0 I I #
coedge $-1 $412 $223 $226 $337 reversed $322 $-1 #
coedge $-1 $223 $412 $328 $416 forward $322 $-1 #
vertex $-1 $224 $420 #
straight-curve $-1 -78.913541062654502 12.785245996271538 63.384658342879433 0 0 1 I I #
straight-curve $-1 -78.913541062654517 12.785245996271538 5.8667584962683605 -0.76604443648966558 0 -0.64278761758704617 I I #
edge $-1 $414 -26.599148721670023 $227 -12.785245996271538 $332 $421 forward 7 unknown #
point $-1 -78.913541062654502 12.785245996271538 15.967895011280724 #
point $-1 -66.875475583740766 12.785245996271538 15.967895011280724 #
edge $-1 $422 1 $422 0 $230 $-1 forward 7 unknown #
vertex $-1 $231 $423 #
ellipse-curve $-1 -70.762590500073259 19.69219735897078 8.3766060821657415 -0.64278761758704617 0 0.76604443648966558 1.915111091224164 0 1.6069690439676154 1 I I #
point $-1 -70.979397231973465 19.69219735897078 12.524295797742163 #
loop $-1 $-1 $242 $234 #
plane-surface $-1 78.913541062654502 0 0 -1 0 0 0 0 1 forward_v I I I I #
coedge $-1 $347 $237 $239 $351 reversed $146 $-1 #
coedge $-1 $237 $346 $424 $425 reversed $146 $-1 #
coedge $-1 $245 $240 $237 $349 forward $235 $-1 #
edge $-1 $352 38.886233861221569 $426 56.914949671387205 $348 $427 forward 7 unknown #
coedge $-1 $239 $238 $355 $428 reversed $91 $-1 #
edge $-1 $429 -157.827082125309 $352 -135.54236368663544 $346 $430 forward 7 unknown #
vertex $-1 $241 $431 #
straight-curve $-1 60.884825252488852 -6.3175555353819597 15.967895011280724 0 -1 0 I I #
coedge $-1 $424 $242 $245 $359 reversed $344 $-1 #
coedge $-1 $242 $424 $350 $428 forward $344 $-1 #
vertex $-1 $243 $432 #
straight-curve $-1 78.913541062654502 -0.49652051101339012 111.66124460794258 0 0 1 I I #
straight-curve $-1 -48.771249688250549 -0.49652051101339012 95.637698464980105 0.80901698891910034 0 -0.5877852598018023 I I #
edge $-1 $426 -24.773701630514449 $246 -0.49652051101339012 $354 $433 forward 7 unknown #
point $-1 78.913541062654502 -0.49652051101339012 15.967895011280724 #
point $-1 60.884825252488866 -0.49652051101339012 15.967895011280717 #
edge $-1 $434 1 $434 0 $249 $-1 forward 7 unknown #
vertex $-1 $250 $435 #
ellipse-curve $-1 68.418625150949111 -12.635111070763919 7.3807672699906366 0.5877852598018023 0 0.80901698891910034 1.2135254833786506 0 -0.88167788970270344 1 I I #
point $-1 71.112708640950331 -12.635111070763919 8.5369026130351138 #
plane-surface $-1 78.913541062654502 0 0 -1 0 0 0 0 1 forward_v I I I I #
coedge $-1 $258 $256 $260 $371 reversed $161 $-1 #
edge $-1 $271 -15.967895011280724 $373 15.967895011280724 $270 $436 forward 7 unknown #
vertex $-1 $371 $437 #
straight-curve $-1 -78.913541062654502 -54.716390846924988 0 0 0 -1 I I #
edge $-1 $369 -54.716390846924988 $373 54.716390846924988 $367 $438 forward 7 unknown #
straight-curve $-1 0 -54.716390846924988 -15.967895011280724 -1 0 0 I I #
vertex $-1 $263 $439 #
straight-curve $-1 0 54.716390846924988 -15.967895011280724 1 0 0 I I #
point $-1 78.913541062654502 54.716390846924988 -15.967895011280724 #
point $-1 78.913541062654502 -54.716390846924988 -15.967895011280724 #
straight-curve $-1 -78.913541062654502 0 15.967895011280724 0 -1 0 I I #
point $-1 -78.913541062654502 54.716390846924988 15.967895011280724 #
point $-1 -78.913541062654502 -54.716390846924988 15.967895011280724 #
straight-curve $-1 78.913541062654502 -54.716390846924988 0 0 0 -1 I I #
straight-curve $-1 78.913541062654502 54.716390846924988 0 0 0 -1 I I #
plane-surface $-1 0 0 -15.967895011280724 0 0 1 1 0 0 forward_v I I I I #
coedge $-1 $397 $282 $395 $440 reversed $180 $-1 #
coedge $-1 $282 $397 $286 $389 reversed $180 $-1 #
coedge $-1 $284 $283 $282 $386 reversed $108 $-1 #
edge $-1 $390 -15.967895011280724 $441 15.967895011280724 $385 $442 forward 7 unknown #
edge $-1 $441 -67.825337250747566 $294 -54.716390846924988 $283 $443 forward 7 unknown #
straight-curve $-1 -78.913541062654502 -54.716390846924988 0 0 0 -1 I I #
edge $-1 $390 -3.8388345881943451 $392 3.8388345881943451 $384 $444 forward 7 unknown #
vertex $-1 $287 $445 #
straight-curve $-1 -78.913541062654502 0 15.967895011280724 0 -1 0 I I #
vertex $-1 $288 $446 #
straight-curve $-1 -71.235871886265812 -61.27086404883628 15.967895011280724 0 1 0 I I #
point $-1 -78.913541062654502 -54.716390846924988 15.967895011280724 #
coedge $-1 $292 $291 $383 $440 forward $293 $-1 #
point $-1 -78.913541062654502 -54.716390846924988 -15.967895011280724 #
coedge $-1 $384 $383 $296 $398 reversed $180 $-1 #
edge $-1 $392 -15.967895011280724 $399 15.967895011280724 $296 $447 forward 7 unknown #
vertex $-1 $398 $448 #
straight-curve $-1 -71.235871886265812 -61.27086404883628 -15.967895011280724 0 -1 0 I I #
edge $-1 $402 47.416763331598709 $405 57.517899846611058 $301 $449 forward 7 unknown #
vertex $-1 $315 $450 #
straight-curve $-1 -90.181417586348488 0.32370040755104768 15.967895011280724 -1 0 0 I I #
edge $-1 $405 -3.6153258851251451 $312 10.19857684027334 $311 $451 forward 7 unknown #
vertex $-1 $404 $452 #
straight-curve $-1 -78.913541062654517 0.32370040755104768 5.8667584962683605 0.76604443648966558 0 0.64278761758704617 I I #
point $-1 -66.875475583740766 0.32370040755104768 15.967895011280724 #
point $-1 -78.913541062654502 -13.490202317847437 5.8667584962683721 #
straight-curve $-1 -78.913541062654502 0 15.967895011280724 0 -1 0 I I #
vertex $-1 $318 $453 #
point $-1 -68.847479408849097 -6.5832509551481948 9.9835751261333563 #
coedge $-1 $333 $332 $325 $413 forward $322 $-1 #
edge $-1 $414 47.416763331598709 $417 57.517899846611058 $412 $454 forward 7 unknown #
vertex $-1 $337 $455 #
straight-curve $-1 -90.181417586348488 26.599148721670023 15.967895011280724 -1 0 0 I I #
edge $-1 $417 -16.753050042184633 $334 -2.9391473167861477 $333 $456 forward 7 unknown #
vertex $-1 $416 $457 #
straight-curve $-1 -78.913541062654517 26.599148721670023 5.8667584962683605 0.76604443648966558 0 0.64278761758704617 I I #
point $-1 -66.875475583740766 26.599148721670023 15.967895011280724 #
point $-1 -78.913541062654502 12.785245996271538 5.8667584962683721 #
straight-curve $-1 -78.913541062654502 0 15.967895011280724 0 -1 0 I I #
vertex $-1 $340 $458 #
point $-1 -68.847479408849097 19.69219735897078 9.9835751261333563 #
coedge $-1 $355 $354 $347 $425 forward $344 $-1 #
edge $-1 $426 95.693349596661847 $429 108.79197861374762 $424 $459 forward 7 unknown #
vertex $-1 $359 $460 #
straight-curve $-1 21.998591391267297 -24.773701630514449 15.967895011280717 1 0 0 I I #
edge $-1 $429 -18.456146095132489 $356 5.8210350243685696 $355 $461 forward 7 unknown #
vertex $-1 $428 $462 #
straight-curve $-1 -48.771249688250549 -24.773701630514449 95.637698464980105 -0.80901698891910034 0 0.5877852598018023 I I #
point $-1 60.884825252488866 -24.773701630514449 15.967895011280717 #
point $-1 78.913541062654502 -0.49652051101339012 2.8692659941949614 #
straight-curve $-1 78.913541062654502 0 15.967895011280724 0 1 0 I I #
vertex $-1 $362 $463 #
point $-1 69.632150634327758 -12.635111070763919 6.4990893802879333 #
straight-curve $-1 -78.913541062654502 54.716390846924988 0 0 0 -1 I I #
point $-1 -78.913541062654502 -54.716390846924988 -15.967895011280724 #
straight-curve $-1 -78.913541062654502 0 -15.967895011280724 0 1 0 I I #
point $-1 -78.913541062654502 54.716390846924988 -15.967895011280724 #
edge $-1 $399 -3.8388345881943451 $441 3.8388345881943451 $383 $464 forward 7 unknown #
vertex $-1 $387 $465 #
straight-curve $-1 -78.913541062654502 -67.825337250747566 0 0 0 -1 I I #
straight-curve $-1 -78.913541062654502 0 -15.967895011280724 0 1 0 I I #
straight-curve $-1 -75.074706474460157 -67.825337250747566 15.967895011280724 1 0 0 I I #
point $-1 -78.913541062654502 -67.825337250747566 15.967895011280724 #
point $-1 -71.235871886265812 -67.825337250747566 15.967895011280724 #
straight-curve $-1 -71.235871886265812 -67.825337250747566 0 0 0 -1 I I #
point $-1 -71.235871886265812 -67.825337250747566 -15.967895011280724 #
straight-curve $-1 -78.913541062654502 0.32370040755104768 63.384658342879433 0 0 -1 I I #
point $-1 -78.913541062654502 0.32370040755104768 15.967895011280724 #
straight-curve $-1 -78.913541062654502 -3.2916254775740974 5.8667584962683685 0 -1 0 I I #
point $-1 -78.913541062654502 0.32370040755104768 5.8667584962683721 #
point $-1 -69.155621456105649 -6.5832509551481948 6.4614949909415769 #
straight-curve $-1 -78.913541062654502 26.599148721670023 63.384658342879433 0 0 -1 I I #
point $-1 -78.913541062654502 26.599148721670023 15.967895011280724 #
straight-curve $-1 -78.913541062654502 9.8460986794853902 5.8667584962683685 0 -1 0 I I #
point $-1 -78.913541062654502 26.599148721670023 5.8667584962683721 #
point $-1 -69.155621456105649 19.69219735897078 6.4614949909415769 #
straight-curve $-1 78.913541062654502 -24.773701630514449 111.66124460794258 0 0 -1 I I #
point $-1 78.913541062654502 -24.773701630514449 15.967895011280724 #
straight-curve $-1 78.913541062654502 -6.3175555353819597 2.8692659941949543 0 1 0 I I #
point $-1 78.913541062654502 -24.773701630514449 2.8692659941949614 #
point $-1 67.536947261246411 -12.635111070763919 6.1672417866119869 #
straight-curve $-1 -75.074706474460157 -67.825337250747566 -15.967895011280724 -1 0 0 I I #
point $-1 -78.913541062654502 -67.825337250747566 -15.967895011280724 #
End-of-ACIS-data 