500 0 11 0           
7 Unknown 11 ACIS 5.0 NT 24 Thu Mar 25 21:47:17 1999 
-1 9.9999999999999995e-007 1e-010 
body $-1 $11 $-1 $12 #
body $-1 $13 $-1 $14 #
body $-1 $15 $-1 $16 #
body $-1 $17 $-1 $18 #
body $-1 $19 $-1 $20 #
body $-1 $21 $-1 $22 #
body $-1 $23 $-1 $24 #
body $-1 $25 $-1 $26 #
body $-1 $27 $-1 $28 #
body $-1 $29 $-1 $30 #
body $-1 $31 $-1 $32 #
lump $-1 $-1 $33 $0 #
transform $-1 1 0 0 0 1 0 0 0 1 47.325663014618364 22.988050484926003 9.6953630569332514 1 rotate no_reflect no_shear #
lump $-1 $-1 $34 $1 #
transform $-1 1 0 0 0 1 0 0 0 1 47.325663014618364 22.988050484926003 9.6953630569332514 1 rotate no_reflect no_shear #
lump $-1 $-1 $35 $2 #
transform $-1 1 0 0 0 1 0 0 0 1 47.325663014618364 22.988050484926003 9.6953630569332514 1 rotate no_reflect no_shear #
lump $-1 $-1 $36 $3 #
transform $-1 1 0 0 0 1 0 0 0 1 47.325663014618364 22.988050484926003 9.6953630569332514 1 rotate no_reflect no_shear #
lump $-1 $-1 $37 $4 #
transform $-1 1 0 0 0 1 0 0 0 1 47.325663014618364 22.988050484926003 9.6953630569332514 1 rotate no_reflect no_shear #
lump $-1 $-1 $38 $5 #
transform $-1 1 0 0 0 1 0 0 0 1 47.325663014618364 22.988050484926003 9.6953630569332514 1 rotate no_reflect no_shear #
lump $-1 $-1 $39 $6 #
transform $-1 1 0 0 0 1 0 0 0 1 47.325663014618364 22.988050484926003 9.6953630569332514 1 rotate no_reflect no_shear #
lump $-1 $-1 $40 $7 #
transform $-1 1 0 0 0 1 0 0 0 1 47.325663014618364 22.988050484926003 9.6953630569332514 1 rotate no_reflect no_shear #
lump $-1 $-1 $41 $8 #
transform $-1 1 0 0 0 1 0 0 0 1 47.325663014618364 22.988050484926003 9.6953630569332514 1 rotate no_reflect no_shear #
lump $-1 $-1 $42 $9 #
transform $-1 1 0 0 0 1 0 0 0 1 47.325663014618364 22.988050484926003 9.6953630569332514 1 rotate no_reflect no_shear #
lump $-1 $-1 $43 $10 #
transform $-1 1 0 0 0 1 0 0 0 1 47.325663014618364 22.988050484926003 9.6953630569332514 1 rotate no_reflect no_shear #
shell $-1 $-1 $-1 $44 $-1 $11 #
shell $-1 $-1 $-1 $45 $-1 $13 #
shell $-1 $-1 $-1 $46 $-1 $15 #
shell $-1 $-1 $-1 $47 $-1 $17 #
shell $-1 $-1 $-1 $48 $-1 $19 #
shell $-1 $-1 $-1 $49 $-1 $21 #
shell $-1 $-1 $-1 $50 $-1 $23 #
shell $-1 $-1 $-1 $51 $-1 $25 #
shell $-1 $-1 $-1 $52 $-1 $27 #
shell $-1 $-1 $-1 $53 $-1 $29 #
shell $-1 $-1 $-1 $54 $-1 $31 #
face $-1 $55 $56 $33 $-1 $57 forward single #
face $-1 $58 $59 $34 $-1 $60 reversed single #
face $-1 $61 $62 $35 $-1 $63 forward single #
face $-1 $64 $65 $36 $-1 $66 forward single #
face $-1 $67 $68 $37 $-1 $69 forward single #
face $-1 $70 $71 $38 $-1 $72 reversed single #
face $-1 $73 $74 $39 $-1 $75 forward single #
face $-1 $76 $77 $40 $-1 $78 forward single #
face $-1 $79 $80 $41 $-1 $81 reversed single #
face $-1 $82 $83 $42 $-1 $84 forward single #
face $-1 $85 $86 $43 $-1 $87 forward single #
face $-1 $88 $89 $33 $-1 $90 reversed single #
loop $-1 $-1 $91 $44 #
plane-surface $-1 0 0 9.6953630569332514 0 0 1 1 0 0 forward_v I I I I #
face $-1 $92 $93 $34 $-1 $94 reversed single #
loop $-1 $-1 $95 $45 #
plane-surface $-1 34.798162685326837 -22.988050484926006 3.0206473607789732 0 -0.81915205242281985 0.57357642473473569 1 0 0 forward_v I I I I #
face $-1 $96 $97 $35 $-1 $98 forward single #
loop $-1 $99 $100 $46 #
cone-surface $-1 27.281662487751937 -19.271471084213701 5.3919034461822335 0 0.81915205242281985 -0.57357642473473569 1.5 0 0 1 I I 0 1 1.5 forward I I I I #
face $-1 $101 $102 $36 $-1 $103 forward single #
loop $-1 $104 $105 $47 #
cone-surface $-1 34.798162685326851 -19.271471084213701 5.3919034461822335 0 0.81915205242281985 -0.57357642473473569 1.5 0 0 1 I I 0 1 1.5 forward I I I I #
face $-1 $106 $107 $37 $-1 $108 forward single #
loop $-1 $109 $110 $48 #
cone-surface $-1 42.314662882901764 -19.271471084213701 5.3919034461822335 0 0.81915205242281985 -0.57357642473473569 1.5 0 0 1 I I 0 1 1.5 forward I I I I #
face $-1 $111 $112 $38 $-1 $113 reversed single #
loop $-1 $-1 $114 $49 #
plane-surface $-1 -24.756672282840047 74.151070848785807 95.382338007188054 1 0 0 0 -0.81915205242281985 -0.57357642473473569 forward_v I I I I #
face $-1 $115 $116 $39 $-1 $117 forward single #
loop $-1 $118 $119 $50 #
cone-surface $-1 -18.958020467510899 19.609528381356526 5.7332325859408657 0 -0.81915205242281985 -0.57357642473473569 1.5 0 0 1 I I 0 1 1.5 forward I I I I #
face $-1 $120 $121 $40 $-1 $122 forward single #
loop $-1 $123 $124 $51 #
cone-surface $-1 -10.260042744517172 19.609528381356526 5.7332325859408657 0 -0.81915205242281985 -0.57357642473473569 1.5 0 0 1 I I 0 1 1.5 forward I I I I #
face $-1 $125 $126 $41 $-1 $127 reversed single #
loop $-1 $-1 $128 $52 #
plane-surface $-1 22.568990731778324 74.151070848785807 95.382338007188054 1 0 0 0 -0.81915205242281985 -0.57357642473473569 forward_v I I I I #
face $-1 $129 $130 $42 $-1 $131 forward single #
loop $-1 $132 $133 $53 #
cone-surface $-1 28.367642547107458 19.609528381356526 5.7332325859408657 0 -0.81915205242281985 -0.57357642473473569 1.5 0 0 1 I I 0 1 1.5 forward I I I I #
face $-1 $134 $135 $43 $-1 $136 forward single #
loop $-1 $137 $138 $54 #
cone-surface $-1 37.065620270101185 19.609528381356526 5.7332325859408657 0 -0.81915205242281985 -0.57357642473473569 1.5 0 0 1 I I 0 1 1.5 forward I I I I #
face $-1 $139 $140 $33 $-1 $141 reversed single #
loop $-1 $-1 $142 $55 #
plane-surface $-1 0 0 -9.6953630569332514 0 0 1 1 0 0 forward_v I I I I #
coedge $-1 $143 $144 $145 $146 forward $56 $-1 #
face $-1 $147 $148 $34 $-1 $149 reversed single #
loop $-1 $-1 $150 $58 #
plane-surface $-1 22.270662356035317 -100.52187846631675 57.310416541030399 1 0 0 0 0.81915205242281985 -0.57357642473473569 forward_v I I I I #
coedge $-1 $151 $152 $153 $154 reversed $59 $-1 #
face $-1 $-1 $155 $35 $-1 $156 forward single #
loop $-1 $157 $158 $61 #
cone-surface $-1 27.281662487751937 -17.277370696580665 3.9956193649573084 0 0.81915205242281985 -0.57357642473473569 0.75 0 0 1 I I -0.70710678118654757 0.70710678118654757 0.75 forward I I I I #
loop $-1 $-1 $159 $46 #
coedge $-1 $100 $100 $160 $161 reversed $62 $-1 #
face $-1 $-1 $162 $36 $-1 $163 forward single #
loop $-1 $164 $165 $64 #
cone-surface $-1 34.798162685326851 -17.277370696580665 3.9956193649573084 0 0.81915205242281985 -0.57357642473473569 0.75 0 0 1 I I -0.70710678118654757 0.70710678118654757 0.75 forward I I I I #
loop $-1 $-1 $166 $47 #
coedge $-1 $105 $105 $167 $168 reversed $65 $-1 #
face $-1 $-1 $169 $37 $-1 $170 forward single #
loop $-1 $171 $172 $67 #
cone-surface $-1 42.314662882901764 -17.277370696580665 3.9956193649573084 0 0.81915205242281985 -0.57357642473473569 0.75 0 0 1 I I -0.70710678118654757 0.70710678118654757 0.75 forward I I I I #
loop $-1 $-1 $173 $48 #
coedge $-1 $110 $110 $174 $175 reversed $68 $-1 #
face $-1 $176 $177 $38 $-1 $178 reversed single #
loop $-1 $-1 $179 $70 #
plane-surface $-1 -14.609031606014035 -3.3827571326049366 41.092568826936628 0 0.81915205242281985 0.57357642473473569 1 0 0 forward_v I I I I #
coedge $-1 $180 $181 $182 $183 reversed $71 $-1 #
face $-1 $-1 $184 $39 $-1 $185 forward single #
loop $-1 $186 $187 $73 #
cone-surface $-1 -18.958020467510899 17.8097662995654 4.473025647322272 0 -0.81915205242281985 -0.57357642473473569 0.75 0 0 1 I I -0.70710678118654757 0.70710678118654757 0.75 forward I I I I #
loop $-1 $-1 $188 $50 #
coedge $-1 $119 $119 $189 $190 reversed $74 $-1 #
face $-1 $-1 $191 $40 $-1 $192 forward single #
loop $-1 $193 $194 $76 #
cone-surface $-1 -10.260042744517172 17.8097662995654 4.473025647322272 0 -0.81915205242281985 -0.57357642473473569 0.75 0 0 1 I I -0.70710678118654757 0.70710678118654757 0.75 forward I I I I #
loop $-1 $-1 $195 $51 #
coedge $-1 $124 $124 $196 $197 reversed $77 $-1 #
face $-1 $198 $199 $41 $-1 $200 reversed single #
loop $-1 $-1 $201 $79 #
plane-surface $-1 32.716631408604336 -3.3827571326049366 41.092568826936628 0 0.81915205242281985 0.57357642473473569 1 0 0 forward_v I I I I #
coedge $-1 $202 $203 $204 $205 reversed $80 $-1 #
face $-1 $-1 $206 $42 $-1 $207 forward single #
loop $-1 $208 $209 $82 #
cone-surface $-1 28.367642547107458 17.8097662995654 4.473025647322272 0 -0.81915205242281985 -0.57357642473473569 0.75 0 0 1 I I -0.70710678118654757 0.70710678118654757 0.75 forward I I I I #
loop $-1 $-1 $210 $53 #
coedge $-1 $133 $133 $211 $212 reversed $83 $-1 #
face $-1 $-1 $213 $43 $-1 $214 forward single #
loop $-1 $215 $216 $85 #
cone-surface $-1 37.065620270101185 17.8097662995654 4.473025647322272 0 -0.81915205242281985 -0.57357642473473569 0.75 0 0 1 I I -0.70710678118654757 0.70710678118654757 0.75 forward I I I I #
loop $-1 $-1 $217 $54 #
coedge $-1 $138 $138 $218 $219 reversed $86 $-1 #
face $-1 $220 $221 $33 $-1 $222 reversed single #
loop $-1 $-1 $223 $88 #
plane-surface $-1 0 -22.988050484926003 0 0 1 0 0 0 1 forward_v I I I I #
coedge $-1 $224 $225 $226 $227 forward $89 $-1 #
coedge $-1 $228 $91 $229 $230 forward $56 $-1 #
coedge $-1 $91 $228 $231 $232 forward $56 $-1 #
coedge $-1 $233 $234 $91 $146 reversed $235 $-1 #
edge $-1 $236 -22.988050484926003 $237 22.988050484926003 $145 $238 forward 7 unknown #
face $-1 $239 $240 $34 $-1 $241 forward single #
loop $-1 $-1 $242 $92 #
plane-surface $-1 0 -22.988050484926003 0 0 1 0 0 0 1 forward_v I I I I #
coedge $-1 $243 $244 $245 $246 reversed $93 $-1 #
coedge $-1 $247 $95 $248 $249 reversed $59 $-1 #
coedge $-1 $95 $247 $243 $250 forward $59 $-1 #
coedge $-1 $245 $251 $95 $154 forward $240 $-1 #
edge $-1 $252 -29.926581671954938 $253 -4.8715810133718982 $153 $254 forward 7 unknown #
loop $-1 $-1 $160 $96 #
plane-surface $-1 34.798162685326837 -22.988050484926006 3.0206473607789732 0 -0.81915205242281985 0.57357642473473569 1 0 0 forward_v I I I I #
loop $-1 $-1 $255 $61 #
coedge $-1 $158 $158 $159 $256 reversed $97 $-1 #
coedge $-1 $159 $159 $158 $256 forward $99 $-1 #
coedge $-1 $160 $160 $100 $161 forward $155 $-1 #
edge $-1 $257 -6.782444052799584e-016 $257 6.2831853071795996 $160 $258 forward 7 unknown #
loop $-1 $-1 $167 $101 #
plane-surface $-1 34.798162685326837 -22.988050484926006 3.0206473607789732 0 -0.81915205242281985 0.57357642473473569 1 0 0 forward_v I I I I #
loop $-1 $-1 $259 $64 #
coedge $-1 $165 $165 $166 $260 reversed $102 $-1 #
coedge $-1 $166 $166 $165 $260 forward $104 $-1 #
coedge $-1 $167 $167 $105 $168 forward $162 $-1 #
edge $-1 $261 -6.782444052799584e-016 $261 6.2831853071795996 $167 $262 forward 7 unknown #
loop $-1 $-1 $174 $106 #
plane-surface $-1 34.798162685326837 -22.988050484926006 3.0206473607789732 0 -0.81915205242281985 0.57357642473473569 1 0 0 forward_v I I I I #
loop $-1 $-1 $263 $67 #
coedge $-1 $172 $172 $173 $264 reversed $107 $-1 #
coedge $-1 $173 $173 $172 $264 forward $109 $-1 #
coedge $-1 $174 $174 $110 $175 forward $169 $-1 #
edge $-1 $265 -6.782444052799584e-016 $265 6.2831853071795996 $174 $266 forward 7 unknown #
face $-1 $267 $268 $38 $-1 $269 forward single #
loop $-1 $-1 $270 $111 #
plane-surface $-1 -4.461390929188024 74.151070848785807 95.382338007188054 -1 0 0 0 0.81915205242281985 0.57357642473473569 forward_v I I I I #
coedge $-1 $271 $272 $273 $274 reversed $112 $-1 #
coedge $-1 $181 $114 $275 $276 reversed $71 $-1 #
coedge $-1 $114 $180 $271 $277 reversed $71 $-1 #
coedge $-1 $273 $278 $114 $183 forward $268 $-1 #
edge $-1 $279 14.087484939466901 $280 18.473733061657846 $182 $281 forward 7 unknown #
loop $-1 $-1 $189 $115 #
plane-surface $-1 -14.609031606014035 -3.3827571326049366 41.092568826936628 0 0.81915205242281985 0.57357642473473569 1 0 0 forward_v I I I I #
loop $-1 $-1 $282 $73 #
coedge $-1 $187 $187 $188 $283 reversed $116 $-1 #
coedge $-1 $188 $188 $187 $283 forward $118 $-1 #
coedge $-1 $189 $189 $119 $190 forward $184 $-1 #
edge $-1 $284 6.802574680484299e-016 $284 6.2831853071796013 $189 $285 forward 7 unknown #
loop $-1 $-1 $196 $120 #
plane-surface $-1 -14.609031606014035 -3.3827571326049366 41.092568826936628 0 0.81915205242281985 0.57357642473473569 1 0 0 forward_v I I I I #
loop $-1 $-1 $286 $76 #
coedge $-1 $194 $194 $195 $287 reversed $121 $-1 #
coedge $-1 $195 $195 $194 $287 forward $123 $-1 #
coedge $-1 $196 $196 $124 $197 forward $191 $-1 #
edge $-1 $288 6.802574680484299e-016 $288 6.2831853071796013 $196 $289 forward 7 unknown #
face $-1 $290 $291 $41 $-1 $292 forward single #
loop $-1 $-1 $293 $125 #
plane-surface $-1 42.864272085430343 74.151070848785807 95.382338007188054 -1 0 0 0 0.81915205242281985 0.57357642473473569 forward_v I I I I #
coedge $-1 $294 $295 $296 $297 reversed $126 $-1 #
coedge $-1 $203 $128 $298 $299 reversed $80 $-1 #
coedge $-1 $128 $202 $294 $300 reversed $80 $-1 #
coedge $-1 $296 $301 $128 $205 forward $291 $-1 #
edge $-1 $302 14.087484939466901 $303 18.473733061657846 $204 $304 forward 7 unknown #
loop $-1 $-1 $211 $129 #
plane-surface $-1 32.716631408604336 -3.3827571326049366 41.092568826936628 0 0.81915205242281985 0.57357642473473569 1 0 0 forward_v I I I I #
loop $-1 $-1 $305 $82 #
coedge $-1 $209 $209 $210 $306 reversed $130 $-1 #
coedge $-1 $210 $210 $209 $306 forward $132 $-1 #
coedge $-1 $211 $211 $133 $212 forward $206 $-1 #
edge $-1 $307 6.802574680484299e-016 $307 6.2831853071796013 $211 $308 forward 7 unknown #
loop $-1 $-1 $218 $134 #
plane-surface $-1 32.716631408604336 -3.3827571326049366 41.092568826936628 0 0.81915205242281985 0.57357642473473569 1 0 0 forward_v I I I I #
loop $-1 $-1 $309 $85 #
coedge $-1 $216 $216 $217 $310 reversed $135 $-1 #
coedge $-1 $217 $217 $216 $310 forward $137 $-1 #
coedge $-1 $218 $218 $138 $219 forward $213 $-1 #
edge $-1 $311 6.802574680484299e-016 $311 6.2831853071796013 $218 $312 forward 7 unknown #
face $-1 $313 $314 $33 $-1 $315 reversed single #
loop $-1 $-1 $316 $139 #
plane-surface $-1 -47.325663014618364 0 0 1 0 0 0 0 -1 forward_v I I I I #
coedge $-1 $317 $231 $318 $319 forward $140 $-1 #
coedge $-1 $320 $142 $317 $321 forward $89 $-1 #
coedge $-1 $142 $320 $322 $323 forward $89 $-1 #
coedge $-1 $234 $233 $142 $227 reversed $235 $-1 #
edge $-1 $324 -22.988050484926003 $325 22.988050484926003 $226 $326 forward 7 unknown #
coedge $-1 $144 $143 $327 $328 forward $56 $-1 #
coedge $-1 $329 $330 $143 $230 reversed $314 $-1 #
edge $-1 $237 -47.325663014618364 $331 47.325663014618364 $229 $332 forward 7 unknown #
coedge $-1 $223 $333 $144 $232 reversed $140 $-1 #
edge $-1 $334 -47.325663014618364 $236 47.325663014618364 $231 $335 forward 7 unknown #
coedge $-1 $226 $145 $333 $336 forward $235 $-1 #
coedge $-1 $145 $226 $329 $337 reversed $235 $-1 #
loop $-1 $-1 $233 $313 #
vertex $-1 $146 $338 #
vertex $-1 $146 $339 #
straight-curve $-1 47.325663014618364 0 9.6953630569332514 0 1 0 I I #
face $-1 $-1 $340 $34 $-1 $341 reversed single #
loop $-1 $-1 $245 $147 #
plane-surface $-1 0 0 9.6953630569332514 0 0 1 1 0 0 forward_v I I I I #
coedge $-1 $342 $343 $244 $344 forward $148 $-1 #
coedge $-1 $244 $150 $152 $250 reversed $93 $-1 #
coedge $-1 $150 $243 $242 $344 reversed $93 $-1 #
coedge $-1 $345 $153 $150 $246 forward $240 $-1 #
edge $-1 $253 -31.946574853025115 $346 -27.272888748232372 $245 $347 forward 7 unknown #
coedge $-1 $152 $151 $342 $348 reversed $59 $-1 #
coedge $-1 $349 $350 $151 $249 forward $340 $-1 #
edge $-1 $351 -5.3555171617688924 $252 2.7928060663941263 $248 $352 forward 7 unknown #
edge $-1 $353 6.0392952747751599e-015 $253 8.1483232281630258 $243 $354 forward 7 unknown #
coedge $-1 $153 $345 $349 $355 forward $240 $-1 #
vertex $-1 $249 $356 #
vertex $-1 $154 $357 #
straight-curve $-1 17.399081342663418 -18.314364380133259 9.6953630569332514 -1 0 0 I I #
coedge $-1 $255 $255 $-1 $358 reversed $157 $-1 #
edge $-1 $359 0 $359 6.2831853071796004 $158 $360 forward 7 unknown #
vertex $-1 $161 $361 #
ellipse-curve $-1 27.281662487751937 -20.651207432529631 6.3580052088561123 0 -0.81915205242281985 0.57357642473473569 1.5 0 0 1 I I #
coedge $-1 $259 $259 $-1 $362 reversed $164 $-1 #
edge $-1 $363 0 $363 6.2831853071796004 $165 $364 forward 7 unknown #
vertex $-1 $168 $365 #
ellipse-curve $-1 34.798162685326851 -20.651207432529631 6.3580052088561123 0 -0.81915205242281985 0.57357642473473569 1.5 0 0 1 I I #
coedge $-1 $263 $263 $-1 $366 reversed $171 $-1 #
edge $-1 $367 0 $367 6.2831853071796004 $172 $368 forward 7 unknown #
vertex $-1 $175 $369 #
ellipse-curve $-1 42.314662882901764 -20.651207432529631 6.3580052088561123 0 -0.81915205242281985 0.57357642473473569 1.5 0 0 1 I I #
face $-1 $-1 $370 $38 $-1 $371 reversed single #
loop $-1 $-1 $182 $176 #
plane-surface $-1 0 0 9.6953630569332514 0 0 1 1 0 0 forward_v I I I I #
coedge $-1 $372 $373 $374 $375 reversed $177 $-1 #
coedge $-1 $376 $179 $181 $277 forward $112 $-1 #
coedge $-1 $179 $376 $372 $377 forward $112 $-1 #
coedge $-1 $374 $182 $179 $274 forward $268 $-1 #
edge $-1 $280 -17.452156479833029 $378 2.8431248738189936 $273 $379 forward 7 unknown #
coedge $-1 $380 $381 $180 $276 forward $370 $-1 #
edge $-1 $382 -44.260017648510484 $279 -37.995805946660774 $275 $383 forward 7 unknown #
edge $-1 $280 38.328910581545067 $382 45.976100969852034 $181 $384 forward 7 unknown #
coedge $-1 $182 $374 $380 $385 forward $268 $-1 #
vertex $-1 $276 $386 #
vertex $-1 $183 $387 #
straight-curve $-1 -24.756672282840047 37.075535424392903 9.6953630569332532 0 -1 0 I I #
coedge $-1 $282 $282 $-1 $388 reversed $186 $-1 #
edge $-1 $389 0 $389 6.2831853071796004 $187 $390 forward 7 unknown #
vertex $-1 $190 $391 #
ellipse-curve $-1 -18.958020467510899 20.794926423830528 6.5632572060084007 0 0.81915205242281985 0.57357642473473569 1.5 0 0 1 I I #
coedge $-1 $286 $286 $-1 $392 reversed $193 $-1 #
edge $-1 $393 0 $393 6.2831853071796004 $194 $394 forward 7 unknown #
vertex $-1 $197 $395 #
ellipse-curve $-1 -10.260042744517172 20.794926423830528 6.5632572060084007 0 0.81915205242281985 0.57357642473473569 1.5 0 0 1 I I #
face $-1 $-1 $396 $41 $-1 $397 reversed single #
loop $-1 $-1 $204 $198 #
plane-surface $-1 0 0 9.6953630569332514 0 0 1 1 0 0 forward_v I I I I #
coedge $-1 $398 $399 $400 $401 reversed $199 $-1 #
coedge $-1 $402 $201 $203 $300 forward $126 $-1 #
coedge $-1 $201 $402 $398 $403 forward $126 $-1 #
coedge $-1 $400 $204 $201 $297 forward $291 $-1 #
edge $-1 $303 6.2106750274761566 $404 26.505956381128176 $296 $405 forward 7 unknown #
coedge $-1 $406 $407 $202 $299 forward $396 $-1 #
edge $-1 $408 -44.260017648510484 $302 -37.995805946660774 $298 $409 forward 7 unknown #
edge $-1 $303 38.328910581545067 $408 45.976100969852034 $203 $410 forward 7 unknown #
coedge $-1 $204 $400 $406 $411 forward $291 $-1 #
vertex $-1 $205 $412 #
vertex $-1 $205 $413 #
straight-curve $-1 22.568990731778324 37.075535424392903 9.6953630569332532 0 -1 0 I I #
coedge $-1 $305 $305 $-1 $414 reversed $208 $-1 #
edge $-1 $415 0 $415 6.2831853071796004 $209 $416 forward 7 unknown #
vertex $-1 $212 $417 #
ellipse-curve $-1 28.367642547107458 20.794926423830528 6.5632572060084007 0 0.81915205242281985 0.57357642473473569 1.5 0 0 1 I I #
coedge $-1 $309 $309 $-1 $418 reversed $215 $-1 #
edge $-1 $419 0 $419 6.2831853071796004 $216 $420 forward 7 unknown #
vertex $-1 $219 $421 #
ellipse-curve $-1 37.065620270101185 20.794926423830528 6.5632572060084007 0 0.81915205242281985 0.57357642473473569 1.5 0 0 1 I I #
face $-1 $-1 $235 $33 $-1 $422 reversed single #
loop $-1 $-1 $329 $220 #
plane-surface $-1 0 22.988050484926003 0 0 -1 0 0 0 -1 forward_v I I I I #
coedge $-1 $423 $327 $330 $424 forward $221 $-1 #
coedge $-1 $333 $223 $224 $321 reversed $140 $-1 #
coedge $-1 $327 $423 $223 $319 reversed $221 $-1 #
edge $-1 $334 -9.6953630569332514 $425 9.6953630569332514 $318 $426 forward 7 unknown #
coedge $-1 $225 $224 $423 $427 forward $89 $-1 #
edge $-1 $325 -47.325663014618364 $425 47.325663014618364 $317 $428 forward 7 unknown #
coedge $-1 $330 $329 $225 $323 reversed $314 $-1 #
edge $-1 $429 -47.325663014618364 $324 47.325663014618364 $322 $430 forward 7 unknown #
vertex $-1 $227 $431 #
vertex $-1 $336 $432 #
straight-curve $-1 47.325663014618364 0 -9.6953630569332514 0 -1 0 I I #
coedge $-1 $316 $318 $228 $328 reversed $221 $-1 #
edge $-1 $331 -22.988050484926003 $334 22.988050484926003 $327 $433 forward 7 unknown #
coedge $-1 $322 $229 $234 $337 forward $314 $-1 #
coedge $-1 $229 $322 $316 $424 reversed $314 $-1 #
vertex $-1 $230 $434 #
straight-curve $-1 0 22.988050484926003 9.6953630569332514 -1 0 0 I I #
coedge $-1 $231 $317 $233 $336 reversed $140 $-1 #
vertex $-1 $328 $435 #
straight-curve $-1 0 -22.988050484926003 9.6953630569332514 1 0 0 I I #
edge $-1 $236 -9.6953630569332514 $325 9.6953630569332514 $233 $436 forward 7 unknown #
edge $-1 $237 -9.6953630569332514 $324 9.6953630569332514 $234 $437 forward 7 unknown #
point $-1 47.325663014618364 -22.988050484926003 9.6953630569332514 #
point $-1 47.325663014618364 22.988050484926003 9.6953630569332514 #
loop $-1 $-1 $248 $239 #
plane-surface $-1 47.325663014618364 0 0 -1 0 0 0 0 1 forward_v I I I I #
coedge $-1 $438 $242 $247 $348 forward $148 $-1 #
coedge $-1 $242 $438 $345 $439 reversed $148 $-1 #
edge $-1 $346 18.95984521358195 $353 25.634560909736223 $242 $440 forward 7 unknown #
coedge $-1 $251 $245 $343 $439 forward $240 $-1 #
vertex $-1 $439 $441 #
straight-curve $-1 22.270662356035317 -50.260939233158375 9.6953630569332532 0 -1 0 I I #
edge $-1 $353 4.8715810133718982 $351 29.926581671954938 $342 $442 forward 7 unknown #
coedge $-1 $350 $248 $251 $355 reversed $340 $-1 #
coedge $-1 $248 $349 $438 $443 forward $340 $-1 #
vertex $-1 $348 $444 #
straight-curve $-1 47.325663014618364 -19.916252098673084 7.407630235627602 0 0.57357642473473569 0.81915205242281985 I I #
vertex $-1 $348 $445 #
straight-curve $-1 22.270662356035317 -22.988050484926006 3.0206473607789732 0 0.57357642473473569 0.81915205242281985 I I #
edge $-1 $446 -22.988050484926003 $252 -18.314364380133259 $349 $447 forward 7 unknown #
point $-1 47.325663014618357 -18.314364380133259 9.6953630569332514 #
point $-1 22.270662356035317 -18.314364380133259 9.6953630569332514 #
edge $-1 $448 1 $448 0 $255 $-1 forward 7 unknown #
vertex $-1 $256 $449 #
ellipse-curve $-1 27.281662487751937 -17.891734735897778 4.42580168350836 0 -0.81915205242281985 0.57357642473473569 1.5 0 0 1 I I #
point $-1 28.781662487751937 -20.651207432529624 6.3580052088561061 #
edge $-1 $450 1 $450 0 $259 $-1 forward 7 unknown #
vertex $-1 $260 $451 #
ellipse-curve $-1 34.798162685326851 -17.891734735897778 4.42580168350836 0 -0.81915205242281985 0.57357642473473569 1.5 0 0 1 I I #
point $-1 36.298162685326851 -20.651207432529624 6.3580052088561061 #
edge $-1 $452 1 $452 0 $263 $-1 forward 7 unknown #
vertex $-1 $264 $453 #
ellipse-curve $-1 42.314662882901764 -17.891734735897778 4.42580168350836 0 -0.81915205242281985 0.57357642473473569 1.5 0 0 1 I I #
point $-1 43.814662882901764 -20.651207432529624 6.3580052088561061 #
loop $-1 $-1 $275 $267 #
plane-surface $-1 0 22.988050484926003 0 0 -1 0 0 0 -1 forward_v I I I I #
coedge $-1 $373 $270 $272 $377 reversed $177 $-1 #
coedge $-1 $270 $372 $454 $455 reversed $177 $-1 #
coedge $-1 $278 $273 $270 $375 forward $268 $-1 #
edge $-1 $378 -18.473733061657846 $456 -14.087484939466901 $374 $457 forward 7 unknown #
coedge $-1 $272 $271 $381 $458 reversed $112 $-1 #
edge $-1 $459 -45.976100969852034 $378 -38.328910581545067 $372 $460 forward 7 unknown #
vertex $-1 $274 $461 #
straight-curve $-1 -7.3045158030070176 18.601802362735061 9.6953630569332496 1 0 0 I I #
coedge $-1 $454 $275 $278 $385 reversed $370 $-1 #
coedge $-1 $275 $454 $376 $458 forward $370 $-1 #
vertex $-1 $276 $462 #
straight-curve $-1 -24.756672282840047 22.988050484926003 47.691169003594027 0 0 1 I I #
straight-curve $-1 -24.756672282840047 -3.3827571326049366 41.092568826936628 0 0.57357642473473569 -0.81915205242281985 I I #
edge $-1 $456 4.461390929188024 $279 24.756672282840047 $380 $463 forward 7 unknown #
point $-1 -24.756672282840047 22.988050484926003 9.6953630569332514 #
point $-1 -24.756672282840047 18.601802362735057 9.6953630569332532 #
edge $-1 $464 1 $464 0 $282 $-1 forward 7 unknown #
vertex $-1 $283 $465 #
ellipse-curve $-1 -18.958020467510899 18.424130338882513 4.9032079658733236 0 0.81915205242281985 0.57357642473473569 1.5 0 0 1 I I #
point $-1 -17.458020467510899 20.794926423830539 6.5632572060084069 #
edge $-1 $466 1 $466 0 $286 $-1 forward 7 unknown #
vertex $-1 $287 $467 #
ellipse-curve $-1 -10.260042744517172 18.424130338882513 4.9032079658733236 0 0.81915205242281985 0.57357642473473569 1.5 0 0 1 I I #
point $-1 -8.7600427445171718 20.794926423830539 6.5632572060084069 #
loop $-1 $-1 $298 $290 #
plane-surface $-1 0 22.988050484926003 0 0 -1 0 0 0 -1 forward_v I I I I #
coedge $-1 $399 $293 $295 $403 reversed $199 $-1 #
coedge $-1 $293 $398 $468 $469 reversed $199 $-1 #
coedge $-1 $301 $296 $293 $401 forward $291 $-1 #
edge $-1 $404 -18.473733061657846 $470 -14.087484939466901 $400 $471 forward 7 unknown #
coedge $-1 $295 $294 $407 $472 reversed $126 $-1 #
edge $-1 $473 -45.976100969852034 $404 -38.328910581545067 $398 $474 forward 7 unknown #
vertex $-1 $297 $475 #
straight-curve $-1 16.358315704302168 18.601802362735061 9.6953630569332496 1 0 0 I I #
coedge $-1 $468 $298 $301 $411 reversed $396 $-1 #
coedge $-1 $298 $468 $402 $472 forward $396 $-1 #
vertex $-1 $299 $476 #
straight-curve $-1 22.568990731778324 22.988050484926003 47.691169003594027 0 0 1 I I #
straight-curve $-1 22.568990731778324 -3.3827571326049366 41.092568826936628 0 0.57357642473473569 -0.81915205242281985 I I #
edge $-1 $470 -42.864272085430343 $302 -22.568990731778324 $406 $477 forward 7 unknown #
point $-1 22.568990731778324 22.988050484926003 9.6953630569332514 #
point $-1 22.568990731778324 18.601802362735057 9.6953630569332532 #
edge $-1 $478 1 $478 0 $305 $-1 forward 7 unknown #
vertex $-1 $306 $479 #
ellipse-curve $-1 28.367642547107458 18.424130338882513 4.9032079658733236 0 0.81915205242281985 0.57357642473473569 1.5 0 0 1 I I #
point $-1 29.867642547107458 20.794926423830539 6.5632572060084069 #
edge $-1 $480 1 $480 0 $309 $-1 forward 7 unknown #
vertex $-1 $310 $481 #
ellipse-curve $-1 37.065620270101185 18.424130338882513 4.9032079658733236 0 0.81915205242281985 0.57357642473473569 1.5 0 0 1 I I #
point $-1 38.565620270101185 20.794926423830539 6.5632572060084069 #
plane-surface $-1 47.325663014618364 0 0 -1 0 0 0 0 1 forward_v I I I I #
coedge $-1 $318 $316 $320 $427 reversed $221 $-1 #
edge $-1 $331 -9.6953630569332514 $429 9.6953630569332514 $330 $482 forward 7 unknown #
vertex $-1 $427 $483 #
straight-curve $-1 -47.325663014618364 -22.988050484926003 0 0 0 -1 I I #
edge $-1 $425 -22.988050484926003 $429 22.988050484926003 $423 $484 forward 7 unknown #
straight-curve $-1 0 -22.988050484926003 -9.6953630569332514 -1 0 0 I I #
vertex $-1 $323 $485 #
straight-curve $-1 0 22.988050484926003 -9.6953630569332514 1 0 0 I I #
point $-1 47.325663014618364 22.988050484926003 -9.6953630569332514 #
point $-1 47.325663014618364 -22.988050484926003 -9.6953630569332514 #
straight-curve $-1 -47.325663014618364 0 9.6953630569332514 0 -1 0 I I #
point $-1 -47.325663014618364 22.988050484926003 9.6953630569332514 #
point $-1 -47.325663014618364 -22.988050484926003 9.6953630569332514 #
straight-curve $-1 47.325663014618364 -22.988050484926003 0 0 0 -1 I I #
straight-curve $-1 47.325663014618364 22.988050484926003 0 0 0 -1 I I #
coedge $-1 $343 $342 $350 $443 reversed $148 $-1 #
edge $-1 $346 22.270662356035317 $446 47.325663014618364 $343 $486 forward 7 unknown #
straight-curve $-1 22.270662356035317 -22.988050484926006 28.6552082705152 0 0 -1 I I #
point $-1 22.270662356035317 -22.988050484926003 9.6953630569332514 #
straight-curve $-1 17.399081342663418 -22.988050484926003 3.0206473607789794 1 0 0 I I #
edge $-1 $446 -9.6953630569332514 $351 -3.0206473607789781 $350 $487 forward 7 unknown #
point $-1 47.325663014618357 -22.988050484926003 3.0206473607789781 #
point $-1 22.270662356035317 -22.988050484926003 3.0206473607789781 #
vertex $-1 $355 $488 #
straight-curve $-1 47.325663014618364 0 9.6953630569332514 0 1 0 I I #
vertex $-1 $358 $489 #
point $-1 28.781662487751937 -17.891734735897778 4.42580168350836 #
vertex $-1 $362 $490 #
point $-1 36.298162685326851 -17.891734735897778 4.42580168350836 #
vertex $-1 $366 $491 #
point $-1 43.814662882901764 -17.891734735897778 4.42580168350836 #
coedge $-1 $381 $380 $373 $455 forward $370 $-1 #
edge $-1 $456 37.995805946660774 $459 44.260017648510484 $454 $492 forward 7 unknown #
vertex $-1 $385 $493 #
straight-curve $-1 -4.461390929188024 37.075535424392903 9.6953630569332532 0 1 0 I I #
edge $-1 $459 -2.8431248738189936 $382 17.452156479833029 $381 $494 forward 7 unknown #
vertex $-1 $458 $495 #
straight-curve $-1 -4.461390929188024 -3.3827571326049366 41.092568826936628 0 -0.57357642473473569 0.81915205242281985 I I #
point $-1 -4.461390929188024 18.601802362735057 9.6953630569332532 #
point $-1 -24.756672282840047 22.988050484926003 3.4311513550835429 #
straight-curve $-1 0 22.988050484926003 9.6953630569332514 -1 0 0 I I #
vertex $-1 $388 $496 #
point $-1 -17.458020467510899 18.424130338882513 4.9032079658733236 #
vertex $-1 $392 $497 #
point $-1 -8.7600427445171718 18.424130338882513 4.9032079658733236 #
coedge $-1 $407 $406 $399 $469 forward $396 $-1 #
edge $-1 $470 37.995805946660774 $473 44.260017648510484 $468 $498 forward 7 unknown #
vertex $-1 $411 $499 #
straight-curve $-1 42.864272085430343 37.075535424392903 9.6953630569332532 0 1 0 I I #
edge $-1 $473 -26.505956381128176 $408 -6.2106750274761566 $407 $500 forward 7 unknown #
vertex $-1 $472 $501 #
straight-curve $-1 42.864272085430343 -3.3827571326049366 41.092568826936628 0 -0.57357642473473569 0.81915205242281985 I I #
point $-1 42.864272085430343 18.601802362735057 9.6953630569332532 #
point $-1 22.568990731778324 22.988050484926003 3.4311513550835429 #
straight-curve $-1 0 22.988050484926003 9.6953630569332514 -1 0 0 I I #
vertex $-1 $414 $502 #
point $-1 29.867642547107458 18.424130338882513 4.9032079658733236 #
vertex $-1 $418 $503 #
point $-1 38.565620270101185 18.424130338882513 4.9032079658733236 #
straight-curve $-1 -47.325663014618364 22.988050484926003 0 0 0 -1 I I #
point $-1 -47.325663014618364 -22.988050484926003 -9.6953630569332514 #
straight-curve $-1 -47.325663014618364 0 -9.6953630569332514 0 1 0 I I #
point $-1 -47.325663014618364 22.988050484926003 -9.6953630569332514 #
straight-curve $-1 0 -22.988050484926003 9.6953630569332514 1 0 0 I I #
straight-curve $-1 47.325663014618364 -22.988050484926003 0 0 0 -1 I I #
point $-1 47.325663014618364 -22.988050484926003 9.6953630569332514 #
point $-1 27.281662487751937 -16.663006657263551 3.5654370464062568 #
point $-1 34.798162685326851 -16.663006657263551 3.5654370464062568 #
point $-1 42.314662882901764 -16.663006657263551 3.5654370464062568 #
straight-curve $-1 -4.461390929188024 22.988050484926003 47.691169003594027 0 0 -1 I I #
point $-1 -4.461390929188024 22.988050484926003 9.6953630569332514 #
straight-curve $-1 -7.3045158030070176 22.988050484926006 3.4311513550835429 -1 0 0 I I #
point $-1 -4.461390929188024 22.988050484926003 3.4311513550835429 #
point $-1 -18.958020467510899 17.195402260248287 4.0428433287712204 #
point $-1 -10.260042744517172 17.195402260248287 4.0428433287712204 #
straight-curve $-1 42.864272085430343 22.988050484926003 47.691169003594027 0 0 -1 I I #
point $-1 42.864272085430343 22.988050484926003 9.6953630569332514 #
straight-curve $-1 16.358315704302168 22.988050484926006 3.4311513550835429 -1 0 0 I I #
point $-1 42.864272085430343 22.988050484926003 3.4311513550835429 #
point $-1 28.367642547107458 17.195402260248287 4.0428433287712204 #
point $-1 37.065620270101185 17.195402260248287 4.0428433287712204 #
End-of-ACIS-data 