500 0 4 0           
7 Unknown 11 ACIS 5.0 NT 24 Fri Mar 26 01:17:36 1999 
-1 9.9999999999999995e-007 1e-010 
body $-1 $4 $-1 $5 #
body $-1 $6 $-1 $7 #
body $-1 $8 $-1 $9 #
body $-1 $10 $-1 $11 #
lump $-1 $-1 $12 $0 #
transform $-1 1 0 0 0 1 0 0 0 1 73.554490798669391 39.563682651093728 18.620902549673986 1 rotate no_reflect no_shear #
lump $-1 $-1 $13 $1 #
transform $-1 1 0 0 0 1 0 0 0 1 73.554490798669391 39.563682651093728 18.620902549673986 1 rotate no_reflect no_shear #
lump $-1 $-1 $14 $2 #
transform $-1 1 0 0 0 1 0 0 0 1 73.554490798669391 39.563682651093728 18.620902549673986 1 rotate no_reflect no_shear #
lump $-1 $-1 $15 $3 #
transform $-1 1 0 0 0 1 0 0 0 1 73.554490798669391 39.563682651093728 18.620902549673986 1 rotate no_reflect no_shear #
shell $-1 $-1 $-1 $16 $-1 $4 #
shell $-1 $-1 $-1 $17 $-1 $6 #
shell $-1 $-1 $-1 $18 $-1 $8 #
shell $-1 $-1 $-1 $19 $-1 $10 #
face $-1 $20 $21 $12 $-1 $22 forward single #
face $-1 $23 $24 $13 $-1 $25 forward single #
face $-1 $26 $27 $14 $-1 $28 forward single #
face $-1 $29 $30 $15 $-1 $31 reversed single #
face $-1 $32 $33 $12 $-1 $34 reversed single #
loop $-1 $-1 $35 $16 #
plane-surface $-1 0 0 18.620902549673986 0 0 1 1 0 0 forward_v I I I I #
face $-1 $36 $37 $13 $-1 $38 reversed single #
loop $-1 $-1 $39 $17 #
plane-surface $-1 -82.280969611301401 0 17.693541258986571 0 0 1 1 0 0 forward_v I I I I #
face $-1 $40 $41 $14 $-1 $42 forward single #
loop $-1 $-1 $43 $18 #
plane-surface $-1 80.815107351041675 20.970606234829095 218.79902186906833 0 -1 0 -0.73135370988377701 0 -0.68199835119979291 forward_v I I I I #
face $-1 $44 $45 $15 $-1 $46 reversed single #
loop $-1 $47 $48 $19 #
cone-surface $-1 69.008318126494757 9.9602218320135023 13.876906642721506 -0.73135370988377701 0 -0.68199835119979291 1.7049958779994823 0 -1.8283842747094425 1 I I 0 1 2.5 forward I I I I #
face $-1 $49 $50 $12 $-1 $51 reversed single #
loop $-1 $-1 $52 $20 #
plane-surface $-1 0 0 -18.620902549673986 0 0 1 1 0 0 forward_v I I I I #
coedge $-1 $53 $54 $55 $56 forward $21 $-1 #
face $-1 $57 $58 $13 $-1 $59 reversed single #
loop $-1 $-1 $60 $23 #
plane-surface $-1 -82.280969611301401 0 8.1012788456754024 0 0 1 1 0 0 forward_v I I I I #
coedge $-1 $61 $62 $63 $64 reversed $24 $-1 #
face $-1 $65 $66 $14 $-1 $67 forward single #
loop $-1 $-1 $68 $26 #
plane-surface $-1 -26.773592097396346 9.9602218320135023 118.47093897300257 0.73135370988377701 0 0.68199835119979291 0.68199835119979291 0 -0.73135370988377701 forward_v I I I I #
coedge $-1 $69 $70 $71 $72 reversed $27 $-1 #
face $-1 $73 $74 $15 $-1 $75 forward single #
loop $-1 $76 $77 $29 #
cone-surface $-1 67.156163238026764 9.9602218320135023 12.149744309323978 -0.73135370988377701 0 -0.68199835119979291 0.85249793899974113 0 -0.91419213735472127 1 I I -0.70710678118654746 0.70710678118654746 1.25 forward I I I I #
loop $-1 $-1 $78 $19 #
coedge $-1 $48 $48 $79 $80 reversed $30 $-1 #
face $-1 $81 $82 $12 $-1 $83 reversed single #
loop $-1 $-1 $84 $32 #
plane-surface $-1 0 -39.563682651093728 0 0 1 0 0 0 1 forward_v I I I I #
coedge $-1 $85 $86 $87 $88 forward $33 $-1 #
coedge $-1 $89 $35 $90 $91 forward $21 $-1 #
coedge $-1 $35 $89 $92 $93 forward $21 $-1 #
coedge $-1 $94 $95 $35 $56 reversed $96 $-1 #
edge $-1 $97 -39.563682651093728 $98 39.563682651093728 $55 $99 forward 7 unknown #
face $-1 $100 $101 $13 $-1 $102 reversed single #
loop $-1 $-1 $103 $36 #
plane-surface $-1 -91.007448423933411 0 12.897410052330986 1 0 0 0 0 -1 forward_v I I I I #
coedge $-1 $104 $105 $106 $107 reversed $37 $-1 #
coedge $-1 $108 $39 $109 $110 forward $24 $-1 #
coedge $-1 $39 $108 $111 $112 forward $24 $-1 #
coedge $-1 $113 $114 $39 $64 forward $115 $-1 #
edge $-1 $116 -39.563682651093728 $117 39.563682651093728 $63 $118 forward 7 unknown #
face $-1 $119 $120 $14 $-1 $121 forward single #
loop $-1 $-1 $122 $40 #
plane-surface $-1 80.815107351041675 -1.0501625708020903 218.79902186906833 0 1 0 0.73135370988377701 0 0.68199835119979291 forward_v I I I I #
coedge $-1 $123 $124 $125 $126 reversed $41 $-1 #
coedge $-1 $70 $43 $124 $127 forward $27 $-1 #
coedge $-1 $43 $69 $128 $129 reversed $27 $-1 #
coedge $-1 $130 $125 $43 $72 forward $120 $-1 #
edge $-1 $131 25.930517281025736 $132 33.146937123148554 $71 $133 forward 7 unknown #
face $-1 $134 $135 $15 $-1 $136 forward single #
loop $-1 $-1 $137 $44 #
plane-surface $-1 80.815107351041675 20.970606234829095 218.79902186906833 0 -1 0 -0.73135370988377701 0 -0.68199835119979291 forward_v I I I I #
loop $-1 $-1 $138 $29 #
coedge $-1 $77 $77 $78 $139 forward $45 $-1 #
coedge $-1 $78 $78 $77 $139 reversed $47 $-1 #
coedge $-1 $79 $79 $48 $80 forward $135 $-1 #
edge $-1 $140 0 $140 6.2831853071796004 $79 $141 forward 7 unknown #
face $-1 $142 $143 $12 $-1 $144 reversed single #
loop $-1 $-1 $145 $49 #
plane-surface $-1 -73.554490798669391 0 0 1 0 0 0 0 -1 forward_v I I I I #
coedge $-1 $146 $92 $147 $148 forward $50 $-1 #
coedge $-1 $149 $52 $146 $150 forward $33 $-1 #
coedge $-1 $52 $149 $151 $152 forward $33 $-1 #
coedge $-1 $95 $94 $52 $88 reversed $96 $-1 #
edge $-1 $153 -39.563682651093728 $154 39.563682651093728 $87 $155 forward 7 unknown #
coedge $-1 $54 $53 $156 $157 forward $21 $-1 #
coedge $-1 $158 $159 $53 $91 reversed $143 $-1 #
edge $-1 $98 -73.554490798669391 $160 73.554490798669391 $90 $161 forward 7 unknown #
coedge $-1 $84 $162 $54 $93 reversed $50 $-1 #
edge $-1 $163 -73.554490798669391 $97 73.554490798669391 $92 $164 forward 7 unknown #
coedge $-1 $87 $55 $162 $165 forward $96 $-1 #
coedge $-1 $55 $87 $158 $166 reversed $96 $-1 #
loop $-1 $-1 $94 $142 #
vertex $-1 $56 $167 #
vertex $-1 $56 $168 #
straight-curve $-1 73.554490798669391 0 18.620902549673986 0 1 0 I I #
face $-1 $169 $115 $13 $-1 $102 reversed single #
loop $-1 $-1 $106 $57 #
plane-surface $-1 -73.554490798669391 0 0 1 0 0 0 0 -1 forward_v I I I I #
coedge $-1 $170 $171 $172 $173 forward $58 $-1 #
coedge $-1 $174 $60 $175 $176 forward $37 $-1 #
coedge $-1 $60 $174 $177 $178 forward $37 $-1 #
coedge $-1 $179 $180 $60 $107 forward $101 $-1 #
edge $-1 $181 -39.563682651093728 $182 39.563682651093728 $106 $183 forward 7 unknown #
coedge $-1 $62 $61 $171 $184 forward $24 $-1 #
coedge $-1 $185 $172 $61 $110 reversed $186 $-1 #
edge $-1 $116 -8.7264788126320099 $187 8.7264788126320099 $109 $188 forward 7 unknown #
coedge $-1 $189 $190 $62 $112 reversed $191 $-1 #
edge $-1 $192 -8.7264788126320099 $117 8.7264788126320099 $111 $193 forward 7 unknown #
coedge $-1 $194 $63 $190 $195 reversed $115 $-1 #
coedge $-1 $63 $194 $185 $196 forward $115 $-1 #
loop $-1 $-1 $63 $100 #
vertex $-1 $196 $197 #
vertex $-1 $112 $198 #
straight-curve $-1 -73.554490798669391 0 17.693541258986571 0 -1 0 I I #
face $-1 $199 $200 $14 $-1 $201 forward single #
loop $-1 $-1 $202 $65 #
plane-surface $-1 0 0 18.620902549673986 0 0 1 1 0 0 forward_v I I I I #
coedge $-1 $203 $204 $202 $205 reversed $66 $-1 #
coedge $-1 $206 $68 $204 $207 reversed $41 $-1 #
coedge $-1 $68 $206 $69 $127 reversed $41 $-1 #
coedge $-1 $71 $202 $68 $126 forward $120 $-1 #
edge $-1 $208 -6.0302734868088415 $131 15.990495318822344 $125 $209 forward 7 unknown #
edge $-1 $131 136.52769525049138 $210 147.10898159733881 $69 $211 forward 7 unknown #
coedge $-1 $212 $213 $70 $129 forward $214 $-1 #
edge $-1 $132 90.778608384860178 $210 98.517271409969609 $128 $215 forward 7 unknown #
coedge $-1 $216 $71 $213 $217 forward $120 $-1 #
vertex $-1 $126 $218 #
vertex $-1 $217 $219 #
straight-curve $-1 40.407553675520838 20.970606234829095 18.620902549673986 1 0 0 I I #
face $-1 $220 $221 $15 $-1 $222 forward single #
loop $-1 $223 $79 $73 #
plane-surface $-1 -26.773592097396346 9.9602218320135023 118.47093897300257 0.73135370988377701 0 0.68199835119979291 0.68199835119979291 0 -0.73135370988377701 forward_v I I I I #
coedge $-1 $224 $225 $226 $227 reversed $74 $-1 #
coedge $-1 $138 $138 $-1 $228 forward $76 $-1 #
edge $-1 $229 0 $229 6.2831853071796004 $77 $230 forward 7 unknown #
vertex $-1 $80 $231 #
ellipse-curve $-1 69.94628087760799 9.9602218320135023 14.751571037119264 -0.73135370988377701 0 -0.68199835119979291 1.7049958779994823 0 -1.8283842747094425 1 I I #
face $-1 $-1 $96 $12 $-1 $232 reversed single #
loop $-1 $-1 $158 $81 #
plane-surface $-1 0 39.563682651093728 0 0 -1 0 0 0 -1 forward_v I I I I #
coedge $-1 $233 $156 $159 $234 forward $82 $-1 #
coedge $-1 $162 $84 $85 $150 reversed $50 $-1 #
coedge $-1 $156 $233 $84 $148 reversed $82 $-1 #
edge $-1 $163 -18.620902549673986 $235 18.620902549673986 $147 $236 forward 7 unknown #
coedge $-1 $86 $85 $233 $237 forward $33 $-1 #
edge $-1 $154 -73.554490798669391 $235 73.554490798669391 $146 $238 forward 7 unknown #
coedge $-1 $159 $158 $86 $152 reversed $143 $-1 #
edge $-1 $239 -73.554490798669391 $153 73.554490798669391 $151 $240 forward 7 unknown #
vertex $-1 $88 $241 #
vertex $-1 $165 $242 #
straight-curve $-1 73.554490798669391 0 -18.620902549673986 0 -1 0 I I #
coedge $-1 $145 $147 $89 $157 reversed $82 $-1 #
edge $-1 $160 -39.563682651093728 $163 39.563682651093728 $156 $243 forward 7 unknown #
coedge $-1 $151 $90 $95 $166 forward $143 $-1 #
coedge $-1 $90 $151 $145 $234 reversed $143 $-1 #
vertex $-1 $91 $244 #
straight-curve $-1 0 39.563682651093728 18.620902549673986 -1 0 0 I I #
coedge $-1 $92 $146 $94 $165 reversed $50 $-1 #
vertex $-1 $157 $245 #
straight-curve $-1 0 -39.563682651093728 18.620902549673986 1 0 0 I I #
edge $-1 $97 -18.620902549673986 $154 18.620902549673986 $94 $246 forward 7 unknown #
edge $-1 $98 -18.620902549673986 $153 18.620902549673986 $95 $247 forward 7 unknown #
point $-1 73.554490798669391 -39.563682651093728 18.620902549673986 #
point $-1 73.554490798669391 39.563682651093728 18.620902549673986 #
face $-1 $248 $249 $13 $-1 $250 forward single #
coedge $-1 $251 $103 $174 $252 reversed $58 $-1 #
coedge $-1 $103 $251 $108 $184 reversed $58 $-1 #
coedge $-1 $109 $177 $103 $173 reversed $186 $-1 #
edge $-1 $187 -4.7961312066555841 $253 4.7961312066555841 $172 $254 forward 7 unknown #
coedge $-1 $105 $104 $170 $252 forward $37 $-1 #
coedge $-1 $255 $189 $104 $176 reversed $191 $-1 #
edge $-1 $181 -8.7264788126320099 $256 8.7264788126320099 $175 $257 forward 7 unknown #
coedge $-1 $172 $258 $105 $178 reversed $186 $-1 #
edge $-1 $253 -8.7264788126320099 $182 8.7264788126320099 $177 $259 forward 7 unknown #
coedge $-1 $260 $106 $258 $261 forward $101 $-1 #
coedge $-1 $106 $260 $255 $262 reversed $101 $-1 #
vertex $-1 $262 $263 #
vertex $-1 $261 $264 #
straight-curve $-1 -73.554490798669391 0 8.1012788456754024 0 1 0 I I #
edge $-1 $187 -39.563682651093728 $192 39.563682651093728 $171 $265 forward 7 unknown #
coedge $-1 $266 $109 $114 $196 reversed $186 $-1 #
loop $-1 $-1 $267 $268 #
vertex $-1 $110 $269 #
straight-curve $-1 -82.280969611301401 39.563682651093728 17.693541258986571 -1 0 0 I I #
coedge $-1 $175 $111 $251 $270 forward $191 $-1 #
coedge $-1 $111 $271 $113 $195 forward $191 $-1 #
loop $-1 $-1 $190 $272 #
vertex $-1 $184 $273 #
straight-curve $-1 -82.280969611301401 -39.563682651093728 17.693541258986571 1 0 0 I I #
coedge $-1 $114 $113 $274 $275 reversed $115 $-1 #
edge $-1 $276 -18.620902549673986 $117 -17.693541258986571 $113 $277 forward 7 unknown #
edge $-1 $278 -18.620902549673986 $116 -17.693541258986571 $185 $279 forward 7 unknown #
point $-1 -73.554490798669391 39.563682651093728 17.693541258986571 #
point $-1 -73.554490798669391 -39.563682651093728 17.693541258986571 #
face $-1 $280 $281 $14 $-1 $282 reversed single #
loop $-1 $-1 $283 $119 #
plane-surface $-1 -82.280969611301401 0 17.693541258986571 0 0 1 1 0 0 forward_v I I I I #
coedge $-1 $125 $284 $122 $205 forward $120 $-1 #
coedge $-1 $204 $122 $285 $286 reversed $66 $-1 #
coedge $-1 $122 $203 $123 $207 forward $66 $-1 #
edge $-1 $287 -33.146937123148554 $208 -25.930517281025736 $202 $288 forward 7 unknown #
coedge $-1 $124 $123 $212 $289 reversed $41 $-1 #
edge $-1 $290 -147.10898159733881 $208 -136.52769525049138 $204 $291 forward 7 unknown #
vertex $-1 $126 $292 #
straight-curve $-1 66.338070956546574 4.9801109160067512 18.620902549673986 0 1 0 I I #
vertex $-1 $289 $293 #
straight-curve $-1 -26.773592097396346 20.970606234829095 118.47093897300257 0.68199835119979291 0 -0.73135370988377701 I I #
coedge $-1 $285 $128 $206 $289 forward $214 $-1 #
coedge $-1 $128 $294 $130 $217 reversed $214 $-1 #
loop $-1 $-1 $285 $295 #
straight-curve $-1 73.554490798669391 20.970606234829095 109.39951093453416 0 0 -1 I I #
coedge $-1 $296 $130 $297 $298 forward $120 $-1 #
edge $-1 $132 20.970606234829095 $299 39.563682651093728 $213 $300 forward 7 unknown #
point $-1 66.338070956546574 20.970606234829095 18.620902549673986 #
point $-1 73.554490798669391 20.970606234829095 18.620902549673986 #
face $-1 $301 $302 $15 $-1 $303 forward single #
loop $-1 $-1 $304 $134 #
plane-surface $-1 80.815107351041675 -1.0501625708020903 218.79902186906833 0 1 0 0.73135370988377701 0 0.68199835119979291 forward_v I I I I #
loop $-1 $-1 $305 $73 #
coedge $-1 $225 $137 $306 $307 forward $74 $-1 #
coedge $-1 $137 $224 $308 $309 reversed $74 $-1 #
coedge $-1 $310 $311 $137 $227 forward $302 $-1 #
edge $-1 $312 25.930517281025736 $313 33.146937123148554 $226 $314 forward 7 unknown #
edge $-1 $315 1 $315 0 $138 $-1 forward 7 unknown #
vertex $-1 $139 $316 #
ellipse-curve $-1 68.070355375381482 9.9602218320135023 13.00224224832372 0.73135370988377701 0 0.68199835119979291 1.7049958779994823 0 -1.8283842747094425 1 I I #
point $-1 71.651276755607498 9.9602218320135023 12.92318676240985 #
plane-surface $-1 73.554490798669391 0 0 -1 0 0 0 0 1 forward_v I I I I #
coedge $-1 $147 $145 $149 $237 reversed $82 $-1 #
edge $-1 $160 -18.620902549673986 $239 18.620902549673986 $159 $317 forward 7 unknown #
vertex $-1 $237 $318 #
straight-curve $-1 -73.554490798669391 -39.563682651093728 0 0 0 -1 I I #
edge $-1 $235 -39.563682651093728 $239 39.563682651093728 $233 $319 forward 7 unknown #
straight-curve $-1 0 -39.563682651093728 -18.620902549673986 -1 0 0 I I #
vertex $-1 $152 $320 #
straight-curve $-1 0 39.563682651093728 -18.620902549673986 1 0 0 I I #
point $-1 73.554490798669391 39.563682651093728 -18.620902549673986 #
point $-1 73.554490798669391 -39.563682651093728 -18.620902549673986 #
straight-curve $-1 -73.554490798669391 0 18.620902549673986 0 -1 0 I I #
point $-1 -73.554490798669391 39.563682651093728 18.620902549673986 #
point $-1 -73.554490798669391 -39.563682651093728 18.620902549673986 #
straight-curve $-1 73.554490798669391 -39.563682651093728 0 0 0 -1 I I #
straight-curve $-1 73.554490798669391 39.563682651093728 0 0 0 -1 I I #
face $-1 $272 $321 $13 $-1 $322 reversed single #
loop $-1 $-1 $323 $169 #
plane-surface $-1 0 0 18.620902549673986 0 0 1 1 0 0 forward_v I I I I #
coedge $-1 $171 $170 $189 $270 reversed $58 $-1 #
edge $-1 $256 -39.563682651093728 $253 39.563682651093728 $170 $324 forward 7 unknown #
vertex $-1 $178 $325 #
straight-curve $-1 -91.007448423933411 39.563682651093728 12.897410052330986 0 0 -1 I I #
coedge $-1 $326 $175 $180 $262 forward $191 $-1 #
vertex $-1 $252 $327 #
straight-curve $-1 -82.280969611301401 -39.563682651093728 8.1012788456754024 -1 0 0 I I #
coedge $-1 $177 $328 $179 $261 reversed $186 $-1 #
straight-curve $-1 -82.280969611301401 39.563682651093728 8.1012788456754024 1 0 0 I I #
coedge $-1 $180 $179 $329 $330 reversed $101 $-1 #
edge $-1 $182 -8.1012788456754024 $331 18.620902549673986 $258 $279 forward 7 unknown #
edge $-1 $181 -8.1012788456754024 $332 18.620902549673986 $180 $277 forward 7 unknown #
point $-1 -73.554490798669391 -39.563682651093728 8.1012788456754024 #
point $-1 -73.554490798669391 39.563682651093728 8.1012788456754024 #
straight-curve $-1 -91.007448423933411 0 17.693541258986571 0 -1 0 I I #
coedge $-1 $267 $185 $333 $334 reversed $186 $-1 #
coedge $-1 $328 $266 $335 $336 forward $186 $-1 #
face $-1 $337 $186 $13 $-1 $338 reversed single #
point $-1 -91.007448423933411 39.563682651093728 17.693541258986571 #
edge $-1 $192 -4.7961312066555841 $256 4.7961312066555841 $251 $339 forward 7 unknown #
coedge $-1 $190 $340 $341 $342 reversed $191 $-1 #
face $-1 $268 $191 $13 $-1 $343 reversed single #
point $-1 -91.007448423933411 -39.563682651093728 17.693541258986571 #
coedge $-1 $341 $333 $194 $275 forward $249 $-1 #
edge $-1 $278 -39.563682651093728 $276 39.563682651093728 $194 $344 forward 7 unknown #
vertex $-1 $275 $345 #
straight-curve $-1 -73.554490798669391 -39.563682651093728 0 0 0 -1 I I #
vertex $-1 $334 $346 #
straight-curve $-1 -73.554490798669391 39.563682651093728 0 0 0 -1 I I #
face $-1 $347 $348 $14 $-1 $349 reversed single #
loop $-1 $-1 $350 $199 #
plane-surface $-1 -82.280969611301401 0 8.1012788456754024 0 0 1 1 0 0 forward_v I I I I #
coedge $-1 $351 $352 $353 $354 reversed $200 $-1 #
coedge $-1 $202 $355 $356 $357 forward $120 $-1 #
coedge $-1 $356 $212 $203 $286 forward $214 $-1 #
edge $-1 $290 -98.517271409969609 $287 -90.778608384860178 $285 $358 forward 7 unknown #
vertex $-1 $286 $359 #
straight-curve $-1 40.407553675520838 -1.0501625708020903 18.620902549673986 -1 0 0 I I #
edge $-1 $210 -15.990495318822344 $290 6.0302734868088415 $212 $360 forward 7 unknown #
vertex $-1 $289 $361 #
straight-curve $-1 -26.773592097396346 -1.0501625708020903 118.47093897300257 -0.68199835119979291 0 0.73135370988377701 I I #
point $-1 66.338070956546574 -1.0501625708020903 18.620902549673986 #
point $-1 73.554490798669406 20.970606234829095 10.882239524564554 #
coedge $-1 $213 $362 $363 $364 reversed $214 $-1 #
face $-1 $-1 $214 $14 $-1 $365 reversed single #
coedge $-1 $355 $216 $366 $367 forward $120 $-1 #
coedge $-1 $363 $368 $216 $298 reversed $369 $-1 #
edge $-1 $299 -73.554490798669391 $370 73.554490798669391 $297 $371 forward 7 unknown #
vertex $-1 $217 $372 #
straight-curve $-1 73.554490798669391 0 18.620902549673986 0 1 0 I I #
face $-1 $373 $374 $15 $-1 $375 forward single #
loop $-1 $-1 $376 $220 #
plane-surface $-1 0 0 18.620902549673986 0 0 1 1 0 0 forward_v I I I I #
coedge $-1 $377 $378 $376 $379 reversed $221 $-1 #
coedge $-1 $380 $306 $311 $381 reversed $223 $-1 #
coedge $-1 $305 $382 $224 $307 reversed $223 $-1 #
edge $-1 $312 136.52769525049138 $383 147.10898159733881 $224 $384 forward 7 unknown #
coedge $-1 $385 $386 $225 $309 forward $387 $-1 #
edge $-1 $313 90.778608384860178 $383 98.517271409969609 $308 $388 forward 7 unknown #
coedge $-1 $389 $226 $386 $390 forward $302 $-1 #
coedge $-1 $226 $376 $305 $381 forward $302 $-1 #
vertex $-1 $381 $391 #
vertex $-1 $390 $392 #
straight-curve $-1 40.407553675520838 20.970606234829095 18.620902549673986 1 0 0 I I #
vertex $-1 $228 $393 #
point $-1 69.775351253380961 9.9602218320135023 11.173857973614277 #
straight-curve $-1 -73.554490798669391 39.563682651093728 0 0 0 -1 I I #
point $-1 -73.554490798669391 -39.563682651093728 -18.620902549673986 #
straight-curve $-1 -73.554490798669391 0 -18.620902549673986 0 1 0 I I #
point $-1 -73.554490798669391 39.563682651093728 -18.620902549673986 #
loop $-1 $-1 $394 $248 #
plane-surface $-1 0 0 -18.620902549673986 0 0 1 1 0 0 forward_v I I I I #
coedge $-1 $333 $341 $395 $396 forward $249 $-1 #
straight-curve $-1 -91.007448423933411 0 8.1012788456754024 0 1 0 I I #
point $-1 -91.007448423933411 39.563682651093728 8.1012788456754024 #
coedge $-1 $340 $255 $397 $398 reversed $191 $-1 #
point $-1 -91.007448423933411 -39.563682651093728 8.1012788456754024 #
coedge $-1 $258 $267 $399 $400 reversed $186 $-1 #
coedge $-1 $399 $397 $260 $330 forward $321 $-1 #
edge $-1 $332 -39.563682651093728 $331 39.563682651093728 $260 $401 forward 7 unknown #
vertex $-1 $400 $402 #
vertex $-1 $330 $403 #
coedge $-1 $274 $323 $266 $334 forward $249 $-1 #
edge $-1 $404 -73.554490798669391 $278 73.554490798669391 $266 $405 forward 7 unknown #
coedge $-1 $395 $406 $267 $336 reversed $407 $-1 #
edge $-1 $404 -18.620902549673986 $408 18.620902549673986 $335 $409 forward 7 unknown #
face $-1 $-1 $407 $13 $-1 $410 reversed single #
plane-surface $-1 0 39.563682651093728 0 0 -1 0 0 0 -1 forward_v I I I I #
straight-curve $-1 -91.007448423933411 -39.563682651093728 12.897410052330986 0 0 -1 I I #
coedge $-1 $271 $326 $411 $412 reversed $191 $-1 #
coedge $-1 $323 $274 $271 $342 forward $249 $-1 #
edge $-1 $276 -73.554490798669391 $413 73.554490798669391 $271 $414 forward 7 unknown #
plane-surface $-1 0 -39.563682651093728 0 0 1 0 0 0 1 forward_v I I I I #
straight-curve $-1 -73.554490798669391 0 18.620902549673986 0 -1 0 I I #
point $-1 -73.554490798669391 -39.563682651093728 18.620902549673986 #
point $-1 -73.554490798669391 39.563682651093728 18.620902549673986 #
face $-1 $415 $416 $14 $-1 $417 reversed single #
loop $-1 $-1 $418 $280 #
plane-surface $-1 -91.007448423933411 0 12.897410052330986 1 0 0 0 0 -1 forward_v I I I I #
coedge $-1 $419 $420 $421 $422 reversed $281 $-1 #
coedge $-1 $423 $283 $424 $425 forward $200 $-1 #
coedge $-1 $283 $423 $426 $427 forward $200 $-1 #
coedge $-1 $428 $429 $283 $354 forward $430 $-1 #
edge $-1 $431 -39.563682651093728 $432 39.563682651093728 $353 $433 forward 7 unknown #
coedge $-1 $284 $296 $434 $435 forward $120 $-1 #
coedge $-1 $436 $285 $284 $357 reversed $214 $-1 #
edge $-1 $437 -39.563682651093728 $287 -1.0501625708020903 $356 $300 forward 7 unknown #
straight-curve $-1 73.554490798669391 -1.0501625708020903 109.39951093453416 0 0 1 I I #
point $-1 73.554490798669391 -1.0501625708020903 18.620902549673986 #
straight-curve $-1 73.554490798669377 4.9801109160067512 10.882239524564575 0 -1 0 I I #
point $-1 73.554490798669406 -1.0501625708020903 10.882239524564554 #
coedge $-1 $294 $436 $438 $439 reversed $214 $-1 #
coedge $-1 $440 $297 $294 $364 forward $369 $-1 #
edge $-1 $299 -18.620902549673986 $441 18.620902549673986 $294 $442 forward 7 unknown #
plane-surface $-1 73.554490798669391 0 0 -1 0 0 0 0 1 forward_v I I I I #
coedge $-1 $429 $428 $296 $367 reversed $430 $-1 #
edge $-1 $370 -39.563682651093728 $443 39.563682651093728 $366 $444 forward 7 unknown #
coedge $-1 $297 $424 $429 $445 reversed $369 $-1 #
loop $-1 $-1 $363 $446 #
vertex $-1 $298 $447 #
straight-curve $-1 0 39.563682651093728 18.620902549673986 -1 0 0 I I #
point $-1 73.554490798669391 39.563682651093728 18.620902549673986 #
face $-1 $448 $449 $15 $-1 $450 reversed single #
loop $-1 $-1 $451 $301 #
plane-surface $-1 -82.280969611301401 0 17.693541258986571 0 0 1 1 0 0 forward_v I I I I #
coedge $-1 $311 $452 $304 $379 forward $302 $-1 #
coedge $-1 $378 $304 $453 $454 reversed $221 $-1 #
coedge $-1 $304 $377 $380 $455 forward $221 $-1 #
edge $-1 $456 -33.146937123148554 $457 -25.930517281025736 $376 $458 forward 7 unknown #
coedge $-1 $382 $305 $378 $455 reversed $223 $-1 #
edge $-1 $457 -6.0302734868088415 $312 15.990495318822344 $311 $459 forward 7 unknown #
coedge $-1 $306 $380 $385 $460 reversed $223 $-1 #
vertex $-1 $460 $461 #
straight-curve $-1 -26.773592097396346 20.970606234829095 118.47093897300257 0.68199835119979291 0 -0.73135370988377701 I I #
coedge $-1 $453 $308 $382 $460 forward $387 $-1 #
coedge $-1 $308 $462 $310 $390 reversed $387 $-1 #
loop $-1 $-1 $453 $463 #
straight-curve $-1 73.554490798669391 20.970606234829095 109.39951093453416 0 0 -1 I I #
coedge $-1 $464 $310 $465 $466 forward $302 $-1 #
edge $-1 $313 20.970606234829095 $467 39.563682651093728 $386 $468 forward 7 unknown #
point $-1 66.338070956546574 20.970606234829095 18.620902549673986 #
point $-1 73.554490798669391 20.970606234829095 18.620902549673986 #
point $-1 66.241971100672046 9.9602218320135023 11.297246370324237 #
coedge $-1 $397 $399 $406 $469 forward $321 $-1 #
coedge $-1 $411 $335 $323 $396 reversed $407 $-1 #
edge $-1 $413 -39.563682651093728 $404 39.563682651093728 $395 $470 forward 7 unknown #
coedge $-1 $329 $394 $326 $398 forward $321 $-1 #
edge $-1 $471 -73.554490798669391 $332 73.554490798669391 $326 $472 forward 7 unknown #
coedge $-1 $394 $329 $328 $400 forward $321 $-1 #
edge $-1 $331 -73.554490798669391 $408 73.554490798669391 $328 $473 forward 7 unknown #
straight-curve $-1 -73.554490798669391 0 -18.620902549673986 0 1 0 I I #
point $-1 -73.554490798669391 39.563682651093728 -18.620902549673986 #
point $-1 -73.554490798669391 -39.563682651093728 -18.620902549673986 #
vertex $-1 $396 $474 #
straight-curve $-1 0 39.563682651093728 18.620902549673986 -1 0 0 I I #
coedge $-1 $335 $411 $394 $469 reversed $407 $-1 #
loop $-1 $-1 $411 $337 #
vertex $-1 $469 $475 #
straight-curve $-1 73.554490798669391 39.563682651093728 0 0 0 -1 I I #
plane-surface $-1 73.554490798669391 0 0 -1 0 0 0 0 1 forward_v I I I I #
coedge $-1 $406 $395 $340 $412 forward $407 $-1 #
edge $-1 $413 -18.620902549673986 $471 18.620902549673986 $411 $476 forward 7 unknown #
vertex $-1 $396 $477 #
straight-curve $-1 0 -39.563682651093728 18.620902549673986 1 0 0 I I #
face $-1 $478 $430 $14 $-1 $417 reversed single #
loop $-1 $-1 $421 $347 #
plane-surface $-1 -73.554490798669391 0 0 1 0 0 0 0 -1 forward_v I I I I #
coedge $-1 $479 $480 $481 $482 forward $348 $-1 #
coedge $-1 $483 $350 $484 $485 forward $281 $-1 #
coedge $-1 $350 $483 $486 $487 forward $281 $-1 #
coedge $-1 $488 $489 $350 $422 forward $416 $-1 #
edge $-1 $490 -39.563682651093728 $491 39.563682651093728 $421 $492 forward 7 unknown #
coedge $-1 $352 $351 $480 $493 forward $200 $-1 #
coedge $-1 $368 $481 $351 $425 reversed $369 $-1 #
edge $-1 $431 -8.7264788126320099 $494 8.7264788126320099 $424 $495 forward 7 unknown #
coedge $-1 $496 $497 $352 $427 reversed $498 $-1 #
edge $-1 $499 -8.7264788126320099 $432 8.7264788126320099 $426 $500 forward 7 unknown #
coedge $-1 $366 $353 $497 $501 reversed $430 $-1 #
coedge $-1 $353 $366 $368 $445 forward $430 $-1 #
loop $-1 $-1 $353 $415 #
vertex $-1 $445 $502 #
vertex $-1 $427 $503 #
straight-curve $-1 -73.554490798669391 0 17.693541258986571 0 -1 0 I I #
coedge $-1 $497 $504 $355 $435 reversed $498 $-1 #
edge $-1 $443 -73.554490798669391 $437 73.554490798669391 $434 $505 forward 7 unknown #
coedge $-1 $362 $356 $504 $506 forward $214 $-1 #
vertex $-1 $357 $507 #
coedge $-1 $508 $509 $362 $439 forward $510 $-1 #
edge $-1 $441 -39.563682651093728 $511 39.563682651093728 $362 $512 forward 7 unknown #
coedge $-1 $513 $363 $509 $514 reversed $369 $-1 #
vertex $-1 $439 $515 #
straight-curve $-1 73.554490798669391 39.563682651093728 0 0 0 -1 I I #
vertex $-1 $367 $516 #
straight-curve $-1 -73.554490798669391 0 18.620902549673986 0 -1 0 I I #
edge $-1 $370 -18.620902549673986 $431 -17.693541258986571 $368 $517 forward 7 unknown #
face $-1 $295 $369 $14 $-1 $518 reversed single #
point $-1 -73.554490798669391 39.563682651093728 18.620902549673986 #
face $-1 $519 $520 $15 $-1 $521 reversed single #
loop $-1 $-1 $522 $373 #
plane-surface $-1 -82.280969611301401 0 8.1012788456754024 0 0 1 1 0 0 forward_v I I I I #
coedge $-1 $523 $524 $525 $526 reversed $374 $-1 #
coedge $-1 $376 $527 $528 $529 forward $302 $-1 #
coedge $-1 $528 $385 $377 $454 forward $387 $-1 #
edge $-1 $530 -98.517271409969609 $456 -90.778608384860178 $453 $531 forward 7 unknown #
edge $-1 $530 -147.10898159733881 $457 -136.52769525049138 $378 $532 forward 7 unknown #
vertex $-1 $454 $533 #
vertex $-1 $381 $534 #
straight-curve $-1 40.407553675520838 -1.0501625708020903 18.620902549673986 -1 0 0 I I #
straight-curve $-1 66.338070956546574 4.9801109160067512 18.620902549673986 0 1 0 I I #
edge $-1 $383 -15.990495318822344 $530 6.0302734868088415 $385 $535 forward 7 unknown #
point $-1 73.554490798669406 20.970606234829095 10.882239524564554 #
coedge $-1 $386 $536 $537 $538 reversed $387 $-1 #
face $-1 $-1 $387 $15 $-1 $539 reversed single #
coedge $-1 $527 $389 $540 $541 forward $302 $-1 #
coedge $-1 $537 $542 $389 $466 reversed $543 $-1 #
edge $-1 $467 -73.554490798669391 $544 73.554490798669391 $465 $545 forward 7 unknown #
vertex $-1 $390 $546 #
straight-curve $-1 73.554490798669391 0 18.620902549673986 0 1 0 I I #
edge $-1 $408 -39.563682651093728 $471 39.563682651093728 $406 $547 forward 7 unknown #
straight-curve $-1 73.554490798669391 0 18.620902549673986 0 1 0 I I #
vertex $-1 $412 $548 #
straight-curve $-1 0 -39.563682651093728 -18.620902549673986 -1 0 0 I I #
straight-curve $-1 0 39.563682651093728 -18.620902549673986 1 0 0 I I #
point $-1 73.554490798669391 39.563682651093728 18.620902549673986 #
point $-1 73.554490798669391 39.563682651093728 -18.620902549673986 #
straight-curve $-1 73.554490798669391 -39.563682651093728 0 0 0 -1 I I #
point $-1 73.554490798669391 -39.563682651093728 18.620902549673986 #
face $-1 $549 $510 $14 $-1 $550 reversed single #
coedge $-1 $551 $418 $483 $552 reversed $348 $-1 #
coedge $-1 $418 $551 $423 $493 reversed $348 $-1 #
coedge $-1 $424 $486 $418 $482 reversed $369 $-1 #
edge $-1 $494 -4.7961312066555841 $553 4.7961312066555841 $481 $554 forward 7 unknown #
coedge $-1 $420 $419 $479 $552 forward $281 $-1 #
coedge $-1 $555 $496 $419 $485 reversed $498 $-1 #
edge $-1 $490 -8.7264788126320099 $556 8.7264788126320099 $484 $557 forward 7 unknown #
coedge $-1 $481 $513 $420 $487 reversed $369 $-1 #
edge $-1 $553 -8.7264788126320099 $491 8.7264788126320099 $486 $558 forward 7 unknown #
coedge $-1 $559 $421 $513 $560 forward $416 $-1 #
coedge $-1 $421 $559 $555 $561 reversed $416 $-1 #
vertex $-1 $561 $562 #
vertex $-1 $560 $563 #
straight-curve $-1 -73.554490798669391 0 8.1012788456754024 0 1 0 I I #
edge $-1 $494 -39.563682651093728 $499 39.563682651093728 $480 $564 forward 7 unknown #
vertex $-1 $425 $565 #
straight-curve $-1 -82.280969611301401 39.563682651093728 17.693541258986571 -1 0 0 I I #
coedge $-1 $484 $426 $551 $566 forward $498 $-1 #
coedge $-1 $426 $434 $428 $501 forward $498 $-1 #
loop $-1 $-1 $497 $549 #
vertex $-1 $493 $567 #
straight-curve $-1 -82.280969611301401 -39.563682651093728 17.693541258986571 1 0 0 I I #
edge $-1 $443 -18.620902549673986 $432 -17.693541258986571 $428 $568 forward 7 unknown #
point $-1 -73.554490798669391 39.563682651093728 17.693541258986571 #
point $-1 -73.554490798669391 -39.563682651093728 17.693541258986571 #
coedge $-1 $434 $569 $436 $506 reversed $498 $-1 #
straight-curve $-1 0 -39.563682651093728 18.620902549673986 1 0 0 I I #
edge $-1 $437 -18.620902549673986 $511 18.620902549673986 $436 $570 forward 7 unknown #
point $-1 73.554490798669391 -39.563682651093728 18.620902549673986 #
coedge $-1 $571 $438 $569 $572 forward $510 $-1 #
coedge $-1 $438 $571 $440 $514 forward $510 $-1 #
loop $-1 $-1 $438 $478 #
vertex $-1 $506 $573 #
straight-curve $-1 73.554490798669391 0 -18.620902549673986 0 -1 0 I I #
coedge $-1 $486 $440 $488 $560 reversed $369 $-1 #
edge $-1 $574 -73.554490798669391 $441 73.554490798669391 $440 $575 forward 7 unknown #
point $-1 73.554490798669391 39.563682651093728 -18.620902549673986 #
point $-1 -73.554490798669391 -39.563682651093728 18.620902549673986 #
straight-curve $-1 -73.554490798669391 39.563682651093728 0 0 0 -1 I I #
plane-surface $-1 0 39.563682651093728 0 0 -1 0 0 0 -1 forward_v I I I I #
face $-1 $576 $577 $15 $-1 $578 reversed single #
loop $-1 $-1 $579 $448 #
plane-surface $-1 -91.007448423933411 0 12.897410052330986 1 0 0 0 0 -1 forward_v I I I I #
coedge $-1 $580 $581 $582 $583 reversed $449 $-1 #
coedge $-1 $584 $451 $585 $586 forward $374 $-1 #
coedge $-1 $451 $584 $587 $588 forward $374 $-1 #
coedge $-1 $589 $590 $451 $526 forward $591 $-1 #
edge $-1 $592 -39.563682651093728 $593 39.563682651093728 $525 $594 forward 7 unknown #
coedge $-1 $452 $464 $595 $596 forward $302 $-1 #
coedge $-1 $597 $453 $452 $529 reversed $387 $-1 #
edge $-1 $598 -39.563682651093728 $456 -1.0501625708020903 $528 $468 forward 7 unknown #
vertex $-1 $460 $599 #
straight-curve $-1 73.554490798669391 -1.0501625708020903 109.39951093453416 0 0 1 I I #
straight-curve $-1 -26.773592097396346 -1.0501625708020903 118.47093897300257 -0.68199835119979291 0 0.73135370988377701 I I #
point $-1 73.554490798669391 -1.0501625708020903 18.620902549673986 #
point $-1 66.338070956546574 -1.0501625708020903 18.620902549673986 #
straight-curve $-1 73.554490798669377 4.9801109160067512 10.882239524564575 0 -1 0 I I #
coedge $-1 $462 $597 $600 $601 reversed $387 $-1 #
coedge $-1 $602 $465 $462 $538 forward $543 $-1 #
edge $-1 $467 -18.620902549673986 $603 18.620902549673986 $462 $604 forward 7 unknown #
plane-surface $-1 73.554490798669391 0 0 -1 0 0 0 0 1 forward_v I I I I #
coedge $-1 $590 $589 $464 $541 reversed $591 $-1 #
edge $-1 $544 -39.563682651093728 $605 39.563682651093728 $540 $606 forward 7 unknown #
coedge $-1 $465 $585 $590 $607 reversed $543 $-1 #
loop $-1 $-1 $537 $608 #
vertex $-1 $466 $609 #
straight-curve $-1 0 39.563682651093728 18.620902549673986 -1 0 0 I I #
point $-1 73.554490798669391 39.563682651093728 18.620902549673986 #
straight-curve $-1 73.554490798669391 0 -18.620902549673986 0 -1 0 I I #
point $-1 73.554490798669391 -39.563682651093728 -18.620902549673986 #
face $-1 $446 $498 $14 $-1 $610 reversed single #
plane-surface $-1 0 0 -18.620902549673986 0 0 1 1 0 0 forward_v I I I I #
coedge $-1 $480 $479 $496 $566 reversed $348 $-1 #
edge $-1 $556 -39.563682651093728 $553 39.563682651093728 $479 $611 forward 7 unknown #
vertex $-1 $487 $612 #
straight-curve $-1 -91.007448423933411 39.563682651093728 12.897410052330986 0 0 -1 I I #
coedge $-1 $569 $484 $489 $561 forward $498 $-1 #
vertex $-1 $552 $613 #
straight-curve $-1 -82.280969611301401 -39.563682651093728 8.1012788456754024 -1 0 0 I I #
straight-curve $-1 -82.280969611301401 39.563682651093728 8.1012788456754024 1 0 0 I I #
coedge $-1 $489 $488 $571 $614 reversed $416 $-1 #
edge $-1 $491 -8.1012788456754024 $574 18.620902549673986 $513 $517 forward 7 unknown #
edge $-1 $490 -8.1012788456754024 $615 18.620902549673986 $489 $568 forward 7 unknown #
point $-1 -73.554490798669391 -39.563682651093728 8.1012788456754024 #
point $-1 -73.554490798669391 39.563682651093728 8.1012788456754024 #
straight-curve $-1 -91.007448423933411 0 17.693541258986571 0 -1 0 I I #
point $-1 -91.007448423933411 39.563682651093728 17.693541258986571 #
edge $-1 $499 -4.7961312066555841 $556 4.7961312066555841 $551 $616 forward 7 unknown #
point $-1 -91.007448423933411 -39.563682651093728 17.693541258986571 #
straight-curve $-1 -73.554490798669391 -39.563682651093728 0 0 0 -1 I I #
coedge $-1 $504 $555 $508 $572 reversed $498 $-1 #
straight-curve $-1 73.554490798669391 -39.563682651093728 0 0 0 -1 I I #
coedge $-1 $509 $508 $559 $614 forward $510 $-1 #
edge $-1 $511 -73.554490798669391 $615 73.554490798669391 $569 $617 forward 7 unknown #
point $-1 73.554490798669391 -39.563682651093728 -18.620902549673986 #
vertex $-1 $514 $618 #
straight-curve $-1 0 39.563682651093728 -18.620902549673986 1 0 0 I I #
face $-1 $619 $591 $15 $-1 $578 reversed single #
loop $-1 $-1 $582 $519 #
plane-surface $-1 -73.554490798669391 0 0 1 0 0 0 0 -1 forward_v I I I I #
coedge $-1 $620 $621 $622 $623 forward $520 $-1 #
coedge $-1 $624 $522 $625 $626 forward $449 $-1 #
coedge $-1 $522 $624 $627 $628 forward $449 $-1 #
coedge $-1 $629 $630 $522 $583 forward $577 $-1 #
edge $-1 $631 -39.563682651093728 $632 39.563682651093728 $582 $633 forward 7 unknown #
coedge $-1 $524 $523 $621 $634 forward $374 $-1 #
coedge $-1 $542 $622 $523 $586 reversed $543 $-1 #
edge $-1 $592 -8.7264788126320099 $635 8.7264788126320099 $585 $636 forward 7 unknown #
coedge $-1 $637 $638 $524 $588 reversed $639 $-1 #
edge $-1 $640 -8.7264788126320099 $593 8.7264788126320099 $587 $641 forward 7 unknown #
coedge $-1 $540 $525 $638 $642 reversed $591 $-1 #
coedge $-1 $525 $540 $542 $607 forward $591 $-1 #
loop $-1 $-1 $525 $576 #
vertex $-1 $607 $643 #
vertex $-1 $588 $644 #
straight-curve $-1 -73.554490798669391 0 17.693541258986571 0 -1 0 I I #
coedge $-1 $638 $645 $527 $596 reversed $639 $-1 #
edge $-1 $605 -73.554490798669391 $598 73.554490798669391 $595 $646 forward 7 unknown #
coedge $-1 $536 $528 $645 $647 forward $387 $-1 #
vertex $-1 $529 $648 #
point $-1 73.554490798669406 -1.0501625708020903 10.882239524564554 #
coedge $-1 $649 $650 $536 $601 forward $651 $-1 #
edge $-1 $603 -39.563682651093728 $652 39.563682651093728 $536 $653 forward 7 unknown #
coedge $-1 $654 $537 $650 $655 reversed $543 $-1 #
vertex $-1 $601 $656 #
straight-curve $-1 73.554490798669391 39.563682651093728 0 0 0 -1 I I #
vertex $-1 $541 $657 #
straight-curve $-1 -73.554490798669391 0 18.620902549673986 0 -1 0 I I #
edge $-1 $544 -18.620902549673986 $592 -17.693541258986571 $542 $658 forward 7 unknown #
face $-1 $463 $543 $15 $-1 $659 reversed single #
point $-1 -73.554490798669391 39.563682651093728 18.620902549673986 #
plane-surface $-1 0 -39.563682651093728 0 0 1 0 0 0 1 forward_v I I I I #
straight-curve $-1 -91.007448423933411 0 8.1012788456754024 0 1 0 I I #
point $-1 -91.007448423933411 39.563682651093728 8.1012788456754024 #
point $-1 -91.007448423933411 -39.563682651093728 8.1012788456754024 #
edge $-1 $615 -39.563682651093728 $574 39.563682651093728 $559 $660 forward 7 unknown #
vertex $-1 $614 $661 #
straight-curve $-1 -91.007448423933411 -39.563682651093728 12.897410052330986 0 0 -1 I I #
straight-curve $-1 0 -39.563682651093728 -18.620902549673986 -1 0 0 I I #
point $-1 -73.554490798669391 39.563682651093728 -18.620902549673986 #
face $-1 $662 $651 $15 $-1 $663 reversed single #
coedge $-1 $664 $579 $624 $665 reversed $520 $-1 #
coedge $-1 $579 $664 $584 $634 reversed $520 $-1 #
coedge $-1 $585 $627 $579 $623 reversed $543 $-1 #
edge $-1 $635 -4.7961312066555841 $666 4.7961312066555841 $622 $667 forward 7 unknown #
coedge $-1 $581 $580 $620 $665 forward $449 $-1 #
coedge $-1 $668 $637 $580 $626 reversed $639 $-1 #
edge $-1 $631 -8.7264788126320099 $669 8.7264788126320099 $625 $670 forward 7 unknown #
coedge $-1 $622 $654 $581 $628 reversed $543 $-1 #
edge $-1 $666 -8.7264788126320099 $632 8.7264788126320099 $627 $671 forward 7 unknown #
coedge $-1 $672 $582 $654 $673 forward $577 $-1 #
coedge $-1 $582 $672 $668 $674 reversed $577 $-1 #
vertex $-1 $674 $675 #
vertex $-1 $673 $676 #
straight-curve $-1 -73.554490798669391 0 8.1012788456754024 0 1 0 I I #
edge $-1 $635 -39.563682651093728 $640 39.563682651093728 $621 $677 forward 7 unknown #
vertex $-1 $586 $678 #
straight-curve $-1 -82.280969611301401 39.563682651093728 17.693541258986571 -1 0 0 I I #
coedge $-1 $625 $587 $664 $679 forward $639 $-1 #
coedge $-1 $587 $595 $589 $642 forward $639 $-1 #
loop $-1 $-1 $638 $662 #
vertex $-1 $634 $680 #
straight-curve $-1 -82.280969611301401 -39.563682651093728 17.693541258986571 1 0 0 I I #
edge $-1 $605 -18.620902549673986 $593 -17.693541258986571 $589 $681 forward 7 unknown #
point $-1 -73.554490798669391 39.563682651093728 17.693541258986571 #
point $-1 -73.554490798669391 -39.563682651093728 17.693541258986571 #
coedge $-1 $595 $682 $597 $647 reversed $639 $-1 #
straight-curve $-1 0 -39.563682651093728 18.620902549673986 1 0 0 I I #
edge $-1 $598 -18.620902549673986 $652 18.620902549673986 $597 $683 forward 7 unknown #
point $-1 73.554490798669391 -39.563682651093728 18.620902549673986 #
coedge $-1 $684 $600 $682 $685 forward $651 $-1 #
coedge $-1 $600 $684 $602 $655 forward $651 $-1 #
loop $-1 $-1 $600 $619 #
vertex $-1 $647 $686 #
straight-curve $-1 73.554490798669391 0 -18.620902549673986 0 -1 0 I I #
coedge $-1 $627 $602 $629 $673 reversed $543 $-1 #
edge $-1 $687 -73.554490798669391 $603 73.554490798669391 $602 $688 forward 7 unknown #
point $-1 73.554490798669391 39.563682651093728 -18.620902549673986 #
point $-1 -73.554490798669391 -39.563682651093728 18.620902549673986 #
straight-curve $-1 -73.554490798669391 39.563682651093728 0 0 0 -1 I I #
plane-surface $-1 0 39.563682651093728 0 0 -1 0 0 0 -1 forward_v I I I I #
straight-curve $-1 -73.554490798669391 0 -18.620902549673986 0 1 0 I I #
point $-1 -73.554490798669391 -39.563682651093728 -18.620902549673986 #
face $-1 $608 $639 $15 $-1 $689 reversed single #
plane-surface $-1 0 0 -18.620902549673986 0 0 1 1 0 0 forward_v I I I I #
coedge $-1 $621 $620 $637 $679 reversed $520 $-1 #
edge $-1 $669 -39.563682651093728 $666 39.563682651093728 $620 $690 forward 7 unknown #
vertex $-1 $628 $691 #
straight-curve $-1 -91.007448423933411 39.563682651093728 12.897410052330986 0 0 -1 I I #
coedge $-1 $682 $625 $630 $674 forward $639 $-1 #
vertex $-1 $665 $692 #
straight-curve $-1 -82.280969611301401 -39.563682651093728 8.1012788456754024 -1 0 0 I I #
straight-curve $-1 -82.280969611301401 39.563682651093728 8.1012788456754024 1 0 0 I I #
coedge $-1 $630 $629 $684 $693 reversed $577 $-1 #
edge $-1 $632 -8.1012788456754024 $687 18.620902549673986 $654 $658 forward 7 unknown #
edge $-1 $631 -8.1012788456754024 $694 18.620902549673986 $630 $681 forward 7 unknown #
point $-1 -73.554490798669391 -39.563682651093728 8.1012788456754024 #
point $-1 -73.554490798669391 39.563682651093728 8.1012788456754024 #
straight-curve $-1 -91.007448423933411 0 17.693541258986571 0 -1 0 I I #
point $-1 -91.007448423933411 39.563682651093728 17.693541258986571 #
edge $-1 $640 -4.7961312066555841 $669 4.7961312066555841 $664 $695 forward 7 unknown #
point $-1 -91.007448423933411 -39.563682651093728 17.693541258986571 #
straight-curve $-1 -73.554490798669391 -39.563682651093728 0 0 0 -1 I I #
coedge $-1 $645 $668 $649 $685 reversed $639 $-1 #
straight-curve $-1 73.554490798669391 -39.563682651093728 0 0 0 -1 I I #
coedge $-1 $650 $649 $672 $693 forward $651 $-1 #
edge $-1 $652 -73.554490798669391 $694 73.554490798669391 $682 $696 forward 7 unknown #
point $-1 73.554490798669391 -39.563682651093728 -18.620902549673986 #
vertex $-1 $655 $697 #
straight-curve $-1 0 39.563682651093728 -18.620902549673986 1 0 0 I I #
plane-surface $-1 0 -39.563682651093728 0 0 1 0 0 0 1 forward_v I I I I #
straight-curve $-1 -91.007448423933411 0 8.1012788456754024 0 1 0 I I #
point $-1 -91.007448423933411 39.563682651093728 8.1012788456754024 #
point $-1 -91.007448423933411 -39.563682651093728 8.1012788456754024 #
edge $-1 $694 -39.563682651093728 $687 39.563682651093728 $672 $698 forward 7 unknown #
vertex $-1 $693 $699 #
straight-curve $-1 -91.007448423933411 -39.563682651093728 12.897410052330986 0 0 -1 I I #
straight-curve $-1 0 -39.563682651093728 -18.620902549673986 -1 0 0 I I #
point $-1 -73.554490798669391 39.563682651093728 -18.620902549673986 #
straight-curve $-1 -73.554490798669391 0 -18.620902549673986 0 1 0 I I #
point $-1 -73.554490798669391 -39.563682651093728 -18.620902549673986 #
End-of-ACIS-data 