500 0 17 0           
7 Unknown 11 ACIS 5.0 NT 24 Fri Mar 26 18:02:10 1999 
-1 9.9999999999999995e-007 1e-010 
body $-1 $17 $-1 $18 #
body $-1 $19 $-1 $20 #
body $-1 $21 $-1 $22 #
body $-1 $23 $-1 $24 #
body $-1 $25 $-1 $26 #
body $-1 $27 $-1 $28 #
body $-1 $29 $-1 $30 #
body $-1 $31 $-1 $32 #
body $-1 $33 $-1 $34 #
body $-1 $35 $-1 $36 #
body $-1 $37 $-1 $38 #
body $-1 $39 $-1 $40 #
body $-1 $41 $-1 $42 #
body $-1 $43 $-1 $44 #
body $-1 $45 $-1 $46 #
body $-1 $47 $-1 $48 #
body $-1 $49 $-1 $50 #
lump $-1 $-1 $51 $0 #
transform $-1 1 0 0 0 1 0 0 0 1 63.074434644611955 36.760343362672508 12.135277387433348 1 rotate no_reflect no_shear #
lump $-1 $-1 $52 $1 #
transform $-1 1 0 0 0 1 0 0 0 1 63.074434644611955 36.760343362672508 12.135277387433348 1 rotate no_reflect no_shear #
lump $-1 $-1 $53 $2 #
transform $-1 1 0 0 0 1 0 0 0 1 63.074434644611955 36.760343362672508 12.135277387433348 1 rotate no_reflect no_shear #
lump $-1 $-1 $54 $3 #
transform $-1 1 0 0 0 1 0 0 0 1 63.074434644611955 36.760343362672508 12.135277387433348 1 rotate no_reflect no_shear #
lump $-1 $-1 $55 $4 #
transform $-1 1 0 0 0 1 0 0 0 1 63.074434644611955 36.760343362672508 12.135277387433348 1 rotate no_reflect no_shear #
lump $-1 $-1 $56 $5 #
transform $-1 1 0 0 0 1 0 0 0 1 63.074434644611955 36.760343362672508 12.135277387433348 1 rotate no_reflect no_shear #
lump $-1 $-1 $57 $6 #
transform $-1 1 0 0 0 1 0 0 0 1 63.074434644611955 36.760343362672508 12.135277387433348 1 rotate no_reflect no_shear #
lump $-1 $-1 $58 $7 #
transform $-1 1 0 0 0 1 0 0 0 1 63.074434644611955 36.760343362672508 12.135277387433348 1 rotate no_reflect no_shear #
lump $-1 $-1 $59 $8 #
transform $-1 1 0 0 0 1 0 0 0 1 63.074434644611955 36.760343362672508 12.135277387433348 1 rotate no_reflect no_shear #
lump $-1 $-1 $60 $9 #
transform $-1 1 0 0 0 1 0 0 0 1 63.074434644611955 36.760343362672508 12.135277387433348 1 rotate no_reflect no_shear #
lump $-1 $-1 $61 $10 #
transform $-1 1 0 0 0 1 0 0 0 1 63.074434644611955 36.760343362672508 12.135277387433348 1 rotate no_reflect no_shear #
lump $-1 $-1 $62 $11 #
transform $-1 1 0 0 0 1 0 0 0 1 63.074434644611955 36.760343362672508 12.135277387433348 1 rotate no_reflect no_shear #
lump $-1 $-1 $63 $12 #
transform $-1 1 0 0 0 1 0 0 0 1 63.074434644611955 36.760343362672508 12.135277387433348 1 rotate no_reflect no_shear #
lump $-1 $-1 $64 $13 #
transform $-1 1 0 0 0 1 0 0 0 1 63.074434644611955 36.760343362672508 12.135277387433348 1 rotate no_reflect no_shear #
lump $-1 $-1 $65 $14 #
transform $-1 1 0 0 0 1 0 0 0 1 63.074434644611955 36.760343362672508 12.135277387433348 1 rotate no_reflect no_shear #
lump $-1 $-1 $66 $15 #
transform $-1 1 0 0 0 1 0 0 0 1 63.074434644611955 36.760343362672508 12.135277387433348 1 rotate no_reflect no_shear #
lump $-1 $-1 $67 $16 #
transform $-1 1 0 0 0 1 0 0 0 1 63.074434644611955 36.760343362672508 12.135277387433348 1 rotate no_reflect no_shear #
shell $-1 $-1 $-1 $68 $-1 $17 #
shell $-1 $-1 $-1 $69 $-1 $19 #
shell $-1 $-1 $-1 $70 $-1 $21 #
shell $-1 $-1 $-1 $71 $-1 $23 #
shell $-1 $-1 $-1 $72 $-1 $25 #
shell $-1 $-1 $-1 $73 $-1 $27 #
shell $-1 $-1 $-1 $74 $-1 $29 #
shell $-1 $-1 $-1 $75 $-1 $31 #
shell $-1 $-1 $-1 $76 $-1 $33 #
shell $-1 $-1 $-1 $77 $-1 $35 #
shell $-1 $-1 $-1 $78 $-1 $37 #
shell $-1 $-1 $-1 $79 $-1 $39 #
shell $-1 $-1 $-1 $80 $-1 $41 #
shell $-1 $-1 $-1 $81 $-1 $43 #
shell $-1 $-1 $-1 $82 $-1 $45 #
shell $-1 $-1 $-1 $83 $-1 $47 #
shell $-1 $-1 $-1 $84 $-1 $49 #
face $-1 $85 $86 $51 $-1 $87 forward single #
face $-1 $88 $89 $52 $-1 $90 forward single #
face $-1 $91 $92 $53 $-1 $93 reversed single #
face $-1 $94 $95 $54 $-1 $96 forward single #
face $-1 $97 $98 $55 $-1 $99 forward single #
face $-1 $100 $101 $56 $-1 $102 reversed single #
face $-1 $103 $104 $57 $-1 $105 forward single #
face $-1 $106 $107 $58 $-1 $108 forward single #
face $-1 $109 $110 $59 $-1 $111 reversed single #
face $-1 $112 $113 $60 $-1 $114 forward single #
face $-1 $115 $116 $61 $-1 $117 forward single #
face $-1 $118 $119 $62 $-1 $120 reversed single #
face $-1 $121 $122 $63 $-1 $123 forward single #
face $-1 $124 $125 $64 $-1 $126 forward single #
face $-1 $127 $128 $65 $-1 $129 reversed single #
face $-1 $130 $131 $66 $-1 $132 forward single #
face $-1 $133 $134 $67 $-1 $135 forward single #
face $-1 $136 $137 $51 $-1 $138 reversed single #
loop $-1 $-1 $139 $68 #
plane-surface $-1 0 0 12.135277387433348 0 0 1 1 0 0 forward_v I I I I #
face $-1 $140 $141 $52 $-1 $142 reversed single #
loop $-1 $-1 $143 $69 #
plane-surface $-1 0 -32.24875113970905 -5.8817597386474638 0 0 1 1 0 0 forward_v I I I I #
face $-1 $144 $145 $53 $-1 $146 reversed single #
loop $-1 $-1 $147 $70 #
plane-surface $-1 41.332769801538831 6.3231061816524967 179.11857799905655 0 -1 0 -0.61566148304635926 0 -0.78801074757464917 forward_v I I I I #
face $-1 $148 $149 $54 $-1 $150 forward single #
loop $-1 $151 $152 $71 #
cone-surface $-1 55.388201296884709 -1.6103995691698074 5.5167993348754454 -0.61566148304635926 0 -0.78801074757464917 1.1820161213619738 0 -0.92349222456953894 1 I I 0 1 1.5 forward I I I I #
face $-1 $153 $154 $55 $-1 $155 forward single #
loop $-1 $156 $157 $72 #
cone-surface $-1 55.388201296884709 3.1497038813235818 5.5167993348754454 -0.61566148304635926 0 -0.78801074757464917 1.1820161213619738 0 -0.92349222456953894 1 I I 0 1 1.5 forward I I I I #
face $-1 $158 $159 $56 $-1 $160 reversed single #
loop $-1 $-1 $161 $73 #
plane-surface $-1 -145.83554034519108 -25.082169403021325 96.4801314832918 0 1 0 -0.6560590369687036 0 0.75470957328743171 forward_v I I I I #
face $-1 $162 $163 $57 $-1 $164 forward single #
loop $-1 $165 $166 $74 #
cone-surface $-1 -56.297833243651787 -22.417646375284001 6.0956122114487332 0.6560590369687036 0 -0.75470957328743171 0.75470957328743171 0 0.6560590369687036 1 I I 0 1 1 forward I I I I #
face $-1 $167 $168 $58 $-1 $169 forward single #
loop $-1 $170 $171 $75 #
cone-surface $-1 -56.297833243651787 -18.420861833678018 6.0956122114487332 0.6560590369687036 0 -0.75470957328743171 0.75470957328743171 0 0.6560590369687036 1 I I 0 1 1 forward I I I I #
face $-1 $172 $173 $59 $-1 $174 reversed single #
loop $-1 $-1 $175 $76 #
plane-surface $-1 -145.83554034519108 -8.4616051847250127 96.4801314832918 0 1 0 -0.6560590369687036 0 0.75470957328743171 forward_v I I I I #
face $-1 $176 $177 $60 $-1 $178 forward single #
loop $-1 $179 $180 $77 #
cone-surface $-1 -56.297833243651787 -5.7970821569876883 6.0956122114487332 0.6560590369687036 0 -0.75470957328743171 0.75470957328743171 0 0.6560590369687036 1 I I 0 1 1 forward I I I I #
face $-1 $181 $182 $61 $-1 $183 forward single #
loop $-1 $184 $185 $78 #
cone-surface $-1 -56.297833243651787 -1.8002976153817016 6.0956122114487332 0.6560590369687036 0 -0.75470957328743171 0.75470957328743171 0 0.6560590369687036 1 I I 0 1 1 forward I I I I #
face $-1 $186 $187 $62 $-1 $188 reversed single #
loop $-1 $-1 $189 $79 #
plane-surface $-1 -145.83554034519108 8.1589590335712963 96.4801314832918 0 1 0 -0.6560590369687036 0 0.75470957328743171 forward_v I I I I #
face $-1 $190 $191 $63 $-1 $192 forward single #
loop $-1 $193 $194 $80 #
cone-surface $-1 -56.297833243651787 10.823482061308624 6.0956122114487332 0.6560590369687036 0 -0.75470957328743171 0.75470957328743171 0 0.6560590369687036 1 I I 0 1 1 forward I I I I #
face $-1 $195 $196 $64 $-1 $197 forward single #
loop $-1 $198 $199 $81 #
cone-surface $-1 -56.297833243651787 14.820266602914607 6.0956122114487332 0.6560590369687036 0 -0.75470957328743171 0.75470957328743171 0 0.6560590369687036 1 I I 0 1 1 forward I I I I #
face $-1 $200 $201 $65 $-1 $202 reversed single #
loop $-1 $-1 $203 $82 #
plane-surface $-1 -145.83554034519108 24.779523251867605 96.4801314832918 0 1 0 -0.6560590369687036 0 0.75470957328743171 forward_v I I I I #
face $-1 $204 $205 $66 $-1 $206 forward single #
loop $-1 $207 $208 $83 #
cone-surface $-1 -56.297833243651787 27.44404627960494 6.0956122114487332 0.6560590369687036 0 -0.75470957328743171 0.75470957328743171 0 0.6560590369687036 1 I I 0 1 1 forward I I I I #
face $-1 $209 $210 $67 $-1 $211 forward single #
loop $-1 $212 $213 $84 #
cone-surface $-1 -56.297833243651787 31.440830821210916 6.0956122114487332 0.6560590369687036 0 -0.75470957328743171 0.75470957328743171 0 0.6560590369687036 1 I I 0 1 1 forward I I I I #
face $-1 $214 $215 $51 $-1 $216 reversed single #
loop $-1 $-1 $217 $85 #
plane-surface $-1 0 0 -12.135277387433348 0 0 1 1 0 0 forward_v I I I I #
coedge $-1 $218 $219 $220 $221 forward $86 $-1 #
face $-1 $222 $223 $52 $-1 $224 reversed single #
loop $-1 $-1 $225 $88 #
plane-surface $-1 0 -27.737158916745592 -9.0085185630404059 0 -1 0 0 0 -1 forward_v I I I I #
coedge $-1 $226 $227 $228 $229 reversed $89 $-1 #
face $-1 $230 $231 $53 $-1 $232 reversed single #
loop $-1 $-1 $233 $91 #
plane-surface $-1 -36.332230149686083 0.76965215607688009 79.711913204758517 0.61566148304635926 0 0.78801074757464917 0.78801074757464917 0 -0.61566148304635926 forward_v I I I I #
coedge $-1 $234 $235 $236 $237 reversed $92 $-1 #
face $-1 $-1 $238 $54 $-1 $239 forward single #
loop $-1 $240 $241 $94 #
cone-surface $-1 53.696480334337437 -1.6103995691698074 3.3514952885864204 -0.61566148304635926 0 -0.78801074757464917 0.59100806068098688 0 -0.46174611228476947 1 I I -0.70710678118654757 0.70710678118654757 0.75 forward I I I I #
loop $-1 $-1 $242 $71 #
coedge $-1 $152 $152 $243 $244 reversed $95 $-1 #
face $-1 $-1 $245 $55 $-1 $246 forward single #
loop $-1 $247 $248 $97 #
cone-surface $-1 53.696480334337437 3.1497038813235818 3.3514952885864204 -0.61566148304635926 0 -0.78801074757464917 0.59100806068098688 0 -0.46174611228476947 1 I I -0.70710678118654757 0.70710678118654757 0.75 forward I I I I #
loop $-1 $-1 $249 $72 #
coedge $-1 $157 $157 $250 $251 reversed $98 $-1 #
face $-1 $252 $253 $56 $-1 $254 reversed single #
loop $-1 $-1 $255 $100 #
plane-surface $-1 -63.074434644611969 -20.419254104481009 1.2743721713296168 -0.6560590369687036 0 0.75470957328743171 0.75470957328743171 0 0.6560590369687036 forward_v I I I I #
coedge $-1 $256 $257 $258 $259 reversed $101 $-1 #
face $-1 $-1 $260 $57 $-1 $261 forward single #
loop $-1 $262 $263 $103 #
cone-surface $-1 -55.440223308045873 -22.417646375284001 5.1090448568722628 0.6560590369687036 0 -0.75470957328743171 0.37735478664371586 0 0.3280295184843518 1 I I -0.70710678118654746 0.70710678118654746 0.5 forward I I I I #
loop $-1 $-1 $264 $74 #
coedge $-1 $166 $166 $265 $266 reversed $104 $-1 #
face $-1 $-1 $267 $58 $-1 $268 forward single #
loop $-1 $269 $270 $106 #
cone-surface $-1 -55.440223308045873 -18.420861833678018 5.1090448568722628 0.6560590369687036 0 -0.75470957328743171 0.37735478664371586 0 0.3280295184843518 1 I I -0.70710678118654746 0.70710678118654746 0.5 forward I I I I #
loop $-1 $-1 $271 $75 #
coedge $-1 $171 $171 $272 $273 reversed $107 $-1 #
face $-1 $274 $275 $59 $-1 $276 reversed single #
loop $-1 $-1 $277 $109 #
plane-surface $-1 -63.074434644611969 -3.7986898861846967 1.2743721713296168 -0.6560590369687036 0 0.75470957328743171 0.75470957328743171 0 0.6560590369687036 forward_v I I I I #
coedge $-1 $278 $279 $280 $281 reversed $110 $-1 #
face $-1 $-1 $282 $60 $-1 $283 forward single #
loop $-1 $284 $285 $112 #
cone-surface $-1 -55.440223308045873 -5.7970821569876883 5.1090448568722628 0.6560590369687036 0 -0.75470957328743171 0.37735478664371586 0 0.3280295184843518 1 I I -0.70710678118654746 0.70710678118654746 0.5 forward I I I I #
loop $-1 $-1 $286 $77 #
coedge $-1 $180 $180 $287 $288 reversed $113 $-1 #
face $-1 $-1 $289 $61 $-1 $290 forward single #
loop $-1 $291 $292 $115 #
cone-surface $-1 -55.440223308045873 -1.8002976153817016 5.1090448568722628 0.6560590369687036 0 -0.75470957328743171 0.37735478664371586 0 0.3280295184843518 1 I I -0.70710678118654746 0.70710678118654746 0.5 forward I I I I #
loop $-1 $-1 $293 $78 #
coedge $-1 $185 $185 $294 $295 reversed $116 $-1 #
face $-1 $296 $297 $62 $-1 $298 reversed single #
loop $-1 $-1 $299 $118 #
plane-surface $-1 -63.074434644611969 12.821874332111612 1.2743721713296168 -0.6560590369687036 0 0.75470957328743171 0.75470957328743171 0 0.6560590369687036 forward_v I I I I #
coedge $-1 $300 $301 $302 $303 reversed $119 $-1 #
face $-1 $-1 $304 $63 $-1 $305 forward single #
loop $-1 $306 $307 $121 #
cone-surface $-1 -55.440223308045873 10.823482061308624 5.1090448568722628 0.6560590369687036 0 -0.75470957328743171 0.37735478664371586 0 0.3280295184843518 1 I I -0.70710678118654746 0.70710678118654746 0.5 forward I I I I #
loop $-1 $-1 $308 $80 #
coedge $-1 $194 $194 $309 $310 reversed $122 $-1 #
face $-1 $-1 $311 $64 $-1 $312 forward single #
loop $-1 $313 $314 $124 #
cone-surface $-1 -55.440223308045873 14.820266602914607 5.1090448568722628 0.6560590369687036 0 -0.75470957328743171 0.37735478664371586 0 0.3280295184843518 1 I I -0.70710678118654746 0.70710678118654746 0.5 forward I I I I #
loop $-1 $-1 $315 $81 #
coedge $-1 $199 $199 $316 $317 reversed $125 $-1 #
face $-1 $318 $319 $65 $-1 $320 reversed single #
loop $-1 $-1 $321 $127 #
plane-surface $-1 -63.074434644611969 29.442438550407921 1.2743721713296168 -0.6560590369687036 0 0.75470957328743171 0.75470957328743171 0 0.6560590369687036 forward_v I I I I #
coedge $-1 $322 $323 $324 $325 reversed $128 $-1 #
face $-1 $-1 $326 $66 $-1 $327 forward single #
loop $-1 $328 $329 $130 #
cone-surface $-1 -55.440223308045873 27.44404627960494 5.1090448568722628 0.6560590369687036 0 -0.75470957328743171 0.37735478664371586 0 0.3280295184843518 1 I I -0.70710678118654746 0.70710678118654746 0.5 forward I I I I #
loop $-1 $-1 $330 $83 #
coedge $-1 $208 $208 $331 $332 reversed $131 $-1 #
face $-1 $-1 $333 $67 $-1 $334 forward single #
loop $-1 $335 $336 $133 #
cone-surface $-1 -55.440223308045873 31.440830821210916 5.1090448568722628 0.6560590369687036 0 -0.75470957328743171 0.37735478664371586 0 0.3280295184843518 1 I I -0.70710678118654746 0.70710678118654746 0.5 forward I I I I #
loop $-1 $-1 $337 $84 #
coedge $-1 $213 $213 $338 $339 reversed $134 $-1 #
face $-1 $340 $341 $51 $-1 $342 reversed single #
loop $-1 $-1 $343 $136 #
plane-surface $-1 0 -36.760343362672508 0 0 1 0 0 0 1 forward_v I I I I #
coedge $-1 $344 $345 $346 $347 forward $137 $-1 #
coedge $-1 $348 $139 $349 $350 forward $86 $-1 #
coedge $-1 $139 $348 $351 $352 forward $86 $-1 #
coedge $-1 $353 $354 $139 $221 reversed $355 $-1 #
edge $-1 $356 -36.760343362672508 $357 36.760343362672508 $220 $358 forward 7 unknown #
face $-1 $359 $360 $52 $-1 $361 reversed single #
loop $-1 $-1 $362 $140 #
plane-surface $-1 0 0 -12.135277387433348 0 0 1 1 0 0 forward_v I I I I #
coedge $-1 $363 $364 $365 $366 reversed $141 $-1 #
coedge $-1 $367 $143 $364 $368 forward $89 $-1 #
coedge $-1 $143 $367 $369 $370 reversed $89 $-1 #
coedge $-1 $371 $365 $143 $229 forward $360 $-1 #
edge $-1 $372 11.612783346891067 $373 20.635967792817983 $228 $374 forward 7 unknown #
face $-1 $375 $376 $53 $-1 $377 reversed single #
loop $-1 $-1 $378 $144 #
plane-surface $-1 41.332769801538831 -4.7838018694987365 179.11857799905655 0 1 0 0.61566148304635926 0 0.78801074757464917 forward_v I I I I #
coedge $-1 $379 $380 $381 $382 reversed $145 $-1 #
coedge $-1 $235 $147 $383 $384 reversed $92 $-1 #
coedge $-1 $147 $234 $379 $385 reversed $92 $-1 #
coedge $-1 $381 $386 $147 $237 forward $387 $-1 #
edge $-1 $388 -42.40804974384254 $389 -29.495532748913035 $236 $390 forward 7 unknown #
loop $-1 $-1 $243 $148 #
plane-surface $-1 -36.332230149686083 0.76965215607688009 79.711913204758517 0.61566148304635926 0 0.78801074757464917 0.78801074757464917 0 -0.61566148304635926 forward_v I I I I #
loop $-1 $-1 $391 $94 #
coedge $-1 $241 $241 $242 $392 reversed $149 $-1 #
coedge $-1 $242 $242 $241 $392 forward $151 $-1 #
coedge $-1 $243 $243 $152 $244 forward $238 $-1 #
edge $-1 $393 0 $393 6.2831853071796004 $243 $394 forward 7 unknown #
loop $-1 $-1 $250 $153 #
plane-surface $-1 -36.332230149686083 0.76965215607688009 79.711913204758517 0.61566148304635926 0 0.78801074757464917 0.78801074757464917 0 -0.61566148304635926 forward_v I I I I #
loop $-1 $-1 $395 $97 #
coedge $-1 $248 $248 $249 $396 reversed $154 $-1 #
coedge $-1 $249 $249 $248 $396 forward $156 $-1 #
coedge $-1 $250 $250 $157 $251 forward $245 $-1 #
edge $-1 $397 0 $397 6.2831853071796004 $250 $398 forward 7 unknown #
face $-1 $399 $400 $56 $-1 $401 forward single #
loop $-1 $-1 $402 $158 #
plane-surface $-1 -145.83554034519108 -15.756338805940693 96.4801314832918 0 -1 0 0.6560590369687036 0 -0.75470957328743171 forward_v I I I I #
coedge $-1 $403 $404 $405 $406 reversed $159 $-1 #
coedge $-1 $257 $161 $407 $408 reversed $101 $-1 #
coedge $-1 $161 $256 $403 $409 reversed $101 $-1 #
coedge $-1 $405 $410 $161 $259 forward $400 $-1 #
edge $-1 $411 9.8433355279835837 $412 22.337377495660796 $258 $413 forward 7 unknown #
loop $-1 $-1 $265 $162 #
plane-surface $-1 -63.074434644611969 -20.419254104481009 1.2743721713296168 -0.6560590369687036 0 0.75470957328743171 0.75470957328743171 0 0.6560590369687036 forward_v I I I I #
loop $-1 $-1 $414 $103 #
coedge $-1 $263 $263 $264 $415 reversed $163 $-1 #
coedge $-1 $264 $264 $263 $415 forward $165 $-1 #
coedge $-1 $265 $265 $166 $266 forward $260 $-1 #
edge $-1 $416 0 $416 6.2831853071796004 $265 $417 forward 7 unknown #
loop $-1 $-1 $272 $167 #
plane-surface $-1 -63.074434644611969 -20.419254104481009 1.2743721713296168 -0.6560590369687036 0 0.75470957328743171 0.75470957328743171 0 0.6560590369687036 forward_v I I I I #
loop $-1 $-1 $418 $106 #
coedge $-1 $270 $270 $271 $419 reversed $168 $-1 #
coedge $-1 $271 $271 $270 $419 forward $170 $-1 #
coedge $-1 $272 $272 $171 $273 forward $267 $-1 #
edge $-1 $420 0 $420 6.2831853071796004 $272 $421 forward 7 unknown #
face $-1 $422 $423 $59 $-1 $424 forward single #
loop $-1 $-1 $425 $172 #
plane-surface $-1 -145.83554034519108 0.86422541235561834 96.4801314832918 0 -1 0 0.6560590369687036 0 -0.75470957328743171 forward_v I I I I #
coedge $-1 $426 $427 $428 $429 reversed $173 $-1 #
coedge $-1 $279 $175 $430 $431 reversed $110 $-1 #
coedge $-1 $175 $278 $426 $432 reversed $110 $-1 #
coedge $-1 $428 $433 $175 $281 forward $423 $-1 #
edge $-1 $434 9.8433355279835837 $435 22.337377495660796 $280 $436 forward 7 unknown #
loop $-1 $-1 $287 $176 #
plane-surface $-1 -63.074434644611969 -3.7986898861846967 1.2743721713296168 -0.6560590369687036 0 0.75470957328743171 0.75470957328743171 0 0.6560590369687036 forward_v I I I I #
loop $-1 $-1 $437 $112 #
coedge $-1 $285 $285 $286 $438 reversed $177 $-1 #
coedge $-1 $286 $286 $285 $438 forward $179 $-1 #
coedge $-1 $287 $287 $180 $288 forward $282 $-1 #
edge $-1 $439 0 $439 6.2831853071796004 $287 $440 forward 7 unknown #
loop $-1 $-1 $294 $181 #
plane-surface $-1 -63.074434644611969 -3.7986898861846967 1.2743721713296168 -0.6560590369687036 0 0.75470957328743171 0.75470957328743171 0 0.6560590369687036 forward_v I I I I #
loop $-1 $-1 $441 $115 #
coedge $-1 $292 $292 $293 $442 reversed $182 $-1 #
coedge $-1 $293 $293 $292 $442 forward $184 $-1 #
coedge $-1 $294 $294 $185 $295 forward $289 $-1 #
edge $-1 $443 0 $443 6.2831853071796004 $294 $444 forward 7 unknown #
face $-1 $445 $446 $62 $-1 $447 forward single #
loop $-1 $-1 $448 $186 #
plane-surface $-1 -145.83554034519108 17.484789630651928 96.4801314832918 0 -1 0 0.6560590369687036 0 -0.75470957328743171 forward_v I I I I #
coedge $-1 $449 $450 $451 $452 reversed $187 $-1 #
coedge $-1 $301 $189 $453 $454 reversed $119 $-1 #
coedge $-1 $189 $300 $449 $455 reversed $119 $-1 #
coedge $-1 $451 $456 $189 $303 forward $446 $-1 #
edge $-1 $457 9.8433355279835837 $458 22.337377495660796 $302 $459 forward 7 unknown #
loop $-1 $-1 $309 $190 #
plane-surface $-1 -63.074434644611969 12.821874332111612 1.2743721713296168 -0.6560590369687036 0 0.75470957328743171 0.75470957328743171 0 0.6560590369687036 forward_v I I I I #
loop $-1 $-1 $460 $121 #
coedge $-1 $307 $307 $308 $461 reversed $191 $-1 #
coedge $-1 $308 $308 $307 $461 forward $193 $-1 #
coedge $-1 $309 $309 $194 $310 forward $304 $-1 #
edge $-1 $462 0 $462 6.2831853071796004 $309 $463 forward 7 unknown #
loop $-1 $-1 $316 $195 #
plane-surface $-1 -63.074434644611969 12.821874332111612 1.2743721713296168 -0.6560590369687036 0 0.75470957328743171 0.75470957328743171 0 0.6560590369687036 forward_v I I I I #
loop $-1 $-1 $464 $124 #
coedge $-1 $314 $314 $315 $465 reversed $196 $-1 #
coedge $-1 $315 $315 $314 $465 forward $198 $-1 #
coedge $-1 $316 $316 $199 $317 forward $311 $-1 #
edge $-1 $466 0 $466 6.2831853071796004 $316 $467 forward 7 unknown #
face $-1 $468 $469 $65 $-1 $470 forward single #
loop $-1 $-1 $471 $200 #
plane-surface $-1 -145.83554034519108 34.105353848948234 96.4801314832918 0 -1 0 0.6560590369687036 0 -0.75470957328743171 forward_v I I I I #
coedge $-1 $472 $473 $474 $475 reversed $201 $-1 #
coedge $-1 $323 $203 $476 $477 reversed $128 $-1 #
coedge $-1 $203 $322 $472 $478 reversed $128 $-1 #
coedge $-1 $474 $479 $203 $325 forward $469 $-1 #
edge $-1 $480 9.8433355279835837 $481 22.337377495660796 $324 $482 forward 7 unknown #
loop $-1 $-1 $331 $204 #
plane-surface $-1 -63.074434644611969 29.442438550407921 1.2743721713296168 -0.6560590369687036 0 0.75470957328743171 0.75470957328743171 0 0.6560590369687036 forward_v I I I I #
loop $-1 $-1 $483 $130 #
coedge $-1 $329 $329 $330 $484 reversed $205 $-1 #
coedge $-1 $330 $330 $329 $484 forward $207 $-1 #
coedge $-1 $331 $331 $208 $332 forward $326 $-1 #
edge $-1 $485 0 $485 6.2831853071796004 $331 $486 forward 7 unknown #
loop $-1 $-1 $338 $209 #
plane-surface $-1 -63.074434644611969 29.442438550407921 1.2743721713296168 -0.6560590369687036 0 0.75470957328743171 0.75470957328743171 0 0.6560590369687036 forward_v I I I I #
loop $-1 $-1 $487 $133 #
coedge $-1 $336 $336 $337 $488 reversed $210 $-1 #
coedge $-1 $337 $337 $336 $488 forward $212 $-1 #
coedge $-1 $338 $338 $213 $339 forward $333 $-1 #
edge $-1 $489 0 $489 6.2831853071796004 $338 $490 forward 7 unknown #
face $-1 $491 $492 $51 $-1 $493 reversed single #
loop $-1 $-1 $494 $214 #
plane-surface $-1 -63.074434644611955 0 0 1 0 0 0 0 -1 forward_v I I I I #
coedge $-1 $495 $351 $496 $497 forward $215 $-1 #
coedge $-1 $498 $217 $495 $499 forward $137 $-1 #
coedge $-1 $217 $498 $500 $501 forward $137 $-1 #
coedge $-1 $354 $353 $217 $347 reversed $355 $-1 #
edge $-1 $502 -36.760343362672508 $503 36.760343362672508 $346 $504 forward 7 unknown #
coedge $-1 $219 $218 $505 $506 forward $86 $-1 #
coedge $-1 $507 $508 $218 $350 reversed $492 $-1 #
edge $-1 $357 -63.074434644611955 $509 63.074434644611955 $349 $510 forward 7 unknown #
coedge $-1 $343 $511 $219 $352 reversed $215 $-1 #
edge $-1 $512 -63.074434644611955 $356 63.074434644611955 $351 $513 forward 7 unknown #
coedge $-1 $346 $220 $511 $514 forward $355 $-1 #
coedge $-1 $220 $346 $507 $515 reversed $355 $-1 #
loop $-1 $-1 $353 $491 #
vertex $-1 $221 $516 #
vertex $-1 $221 $517 #
straight-curve $-1 63.074434644611955 0 12.135277387433348 0 1 0 I I #
face $-1 $518 $519 $52 $-1 $520 reversed single #
loop $-1 $-1 $365 $222 #
plane-surface $-1 63.074434644611955 0 0 -1 0 0 0 0 1 forward_v I I I I #
coedge $-1 $521 $522 $363 $523 forward $223 $-1 #
coedge $-1 $524 $225 $362 $523 reversed $141 $-1 #
coedge $-1 $225 $524 $226 $368 reversed $141 $-1 #
coedge $-1 $228 $525 $225 $366 forward $360 $-1 #
edge $-1 $526 -7.631018105913145 $372 -1.3775004571272609 $365 $527 forward 7 unknown #
coedge $-1 $227 $226 $528 $529 reversed $89 $-1 #
edge $-1 $372 -63.074434644611955 $530 63.074434644611955 $364 $531 forward 7 unknown #
coedge $-1 $532 $533 $227 $370 forward $519 $-1 #
edge $-1 $373 -63.074434644611955 $534 63.074434644611955 $369 $535 forward 7 unknown #
coedge $-1 $525 $228 $533 $536 forward $360 $-1 #
vertex $-1 $229 $537 #
vertex $-1 $536 $538 #
straight-curve $-1 63.074434644611955 -16.124375569854525 -5.8817597386474638 0 -1 0 I I #
face $-1 $-1 $387 $53 $-1 $539 forward single #
loop $-1 $-1 $540 $230 #
plane-surface $-1 63.074434644611955 0 0 -1 0 0 0 0 1 forward_v I I I I #
coedge $-1 $541 $542 $543 $544 reversed $231 $-1 #
coedge $-1 $545 $233 $235 $385 forward $145 $-1 #
coedge $-1 $233 $545 $541 $546 forward $145 $-1 #
coedge $-1 $543 $236 $233 $382 forward $387 $-1 #
edge $-1 $389 -5.9382801036140567 $547 5.1686279475371766 $381 $548 forward 7 unknown #
coedge $-1 $549 $550 $234 $384 forward $376 $-1 #
edge $-1 $551 -87.512375745994675 $388 -77.42401161209493 $383 $552 forward 7 unknown #
edge $-1 $389 109.76264989479073 $551 126.14886928922391 $235 $553 forward 7 unknown #
coedge $-1 $236 $543 $549 $554 forward $387 $-1 #
loop $-1 $-1 $543 $375 #
vertex $-1 $384 $555 #
vertex $-1 $237 $556 #
straight-curve $-1 20.666384900769415 6.3231061816524967 12.135277387433348 -1 0 0 I I #
coedge $-1 $391 $391 $-1 $557 reversed $240 $-1 #
edge $-1 $558 0 $558 6.2831853071796004 $241 $559 forward 7 unknown #
vertex $-1 $244 $560 #
ellipse-curve $-1 56.61817614714721 -1.6103995691698074 7.0910953204834719 0.61566148304635926 0 0.78801074757464917 1.1820161213619738 0 -0.92349222456953894 1 I I #
coedge $-1 $395 $395 $-1 $561 reversed $247 $-1 #
edge $-1 $562 0 $562 6.2831853071796004 $248 $563 forward 7 unknown #
vertex $-1 $251 $564 #
ellipse-curve $-1 56.61817614714721 3.1497038813235818 7.0910953204834719 0.61566148304635926 0 0.78801074757464917 1.1820161213619738 0 -0.92349222456953894 1 I I #
face $-1 $-1 $565 $56 $-1 $566 reversed single #
loop $-1 $-1 $258 $252 #
plane-surface $-1 0 0 12.135277387433348 0 0 1 1 0 0 forward_v I I I I #
coedge $-1 $567 $568 $569 $570 reversed $253 $-1 #
coedge $-1 $571 $255 $257 $409 forward $159 $-1 #
coedge $-1 $255 $571 $567 $572 forward $159 $-1 #
coedge $-1 $569 $258 $255 $406 forward $400 $-1 #
edge $-1 $412 -14.872542350780821 $573 -5.5467117537001887 $405 $574 forward 7 unknown #
coedge $-1 $575 $576 $256 $408 forward $565 $-1 #
edge $-1 $577 -46.965693570316269 $411 -36.104788354212552 $407 $578 forward 7 unknown #
edge $-1 $412 -16.554768098746326 $577 -1.888283279974768e-014 $257 $579 forward 7 unknown #
coedge $-1 $258 $569 $575 $580 forward $400 $-1 #
vertex $-1 $408 $581 #
vertex $-1 $259 $582 #
straight-curve $-1 -72.917770172595539 -25.082169403021325 12.135277387433348 1 0 0 I I #
coedge $-1 $414 $414 $-1 $583 reversed $262 $-1 #
edge $-1 $584 0 $584 6.2831853071796004 $263 $585 forward 7 unknown #
vertex $-1 $266 $586 #
ellipse-curve $-1 -56.827413660773352 -22.417646375284001 6.7048247793814886 -0.6560590369687036 0 0.75470957328743171 0.75470957328743171 0 0.6560590369687036 1 I I #
coedge $-1 $418 $418 $-1 $587 reversed $269 $-1 #
edge $-1 $588 0 $588 6.2831853071796004 $270 $589 forward 7 unknown #
vertex $-1 $273 $590 #
ellipse-curve $-1 -56.827413660773352 -18.420861833678018 6.7048247793814886 -0.6560590369687036 0 0.75470957328743171 0.75470957328743171 0 0.6560590369687036 1 I I #
face $-1 $-1 $591 $59 $-1 $592 reversed single #
loop $-1 $-1 $280 $274 #
plane-surface $-1 0 0 12.135277387433348 0 0 1 1 0 0 forward_v I I I I #
coedge $-1 $593 $594 $595 $596 reversed $275 $-1 #
coedge $-1 $597 $277 $279 $432 forward $173 $-1 #
coedge $-1 $277 $597 $593 $598 forward $173 $-1 #
coedge $-1 $595 $280 $277 $429 forward $423 $-1 #
edge $-1 $435 -6.5622602416326643 $599 2.7635703554479667 $428 $600 forward 7 unknown #
coedge $-1 $601 $602 $278 $431 forward $591 $-1 #
edge $-1 $603 -46.965693570316269 $434 -36.104788354212552 $430 $604 forward 7 unknown #
edge $-1 $435 -16.554768098746326 $603 -1.888283279974768e-014 $279 $605 forward 7 unknown #
coedge $-1 $280 $595 $601 $606 forward $423 $-1 #
vertex $-1 $281 $607 #
vertex $-1 $281 $608 #
straight-curve $-1 -72.917770172595539 -8.4616051847250127 12.135277387433348 1 0 0 I I #
coedge $-1 $437 $437 $-1 $609 reversed $284 $-1 #
edge $-1 $610 0 $610 6.2831853071796004 $285 $611 forward 7 unknown #
vertex $-1 $288 $612 #
ellipse-curve $-1 -56.827413660773352 -5.7970821569876883 6.7048247793814886 -0.6560590369687036 0 0.75470957328743171 0.75470957328743171 0 0.6560590369687036 1 I I #
coedge $-1 $441 $441 $-1 $613 reversed $291 $-1 #
edge $-1 $614 0 $614 6.2831853071796004 $292 $615 forward 7 unknown #
vertex $-1 $295 $616 #
ellipse-curve $-1 -56.827413660773352 -1.8002976153817016 6.7048247793814886 -0.6560590369687036 0 0.75470957328743171 0.75470957328743171 0 0.6560590369687036 1 I I #
face $-1 $-1 $617 $62 $-1 $618 reversed single #
loop $-1 $-1 $302 $296 #
plane-surface $-1 0 0 12.135277387433348 0 0 1 1 0 0 forward_v I I I I #
coedge $-1 $619 $620 $621 $622 reversed $297 $-1 #
coedge $-1 $623 $299 $301 $455 forward $187 $-1 #
coedge $-1 $299 $623 $619 $624 forward $187 $-1 #
coedge $-1 $621 $302 $299 $452 forward $446 $-1 #
edge $-1 $458 1.7480218675154902 $625 11.073852464596122 $451 $626 forward 7 unknown #
coedge $-1 $627 $628 $300 $454 forward $617 $-1 #
edge $-1 $629 -46.965693570316269 $457 -36.104788354212552 $453 $630 forward 7 unknown #
edge $-1 $458 -16.554768098746326 $629 -1.888283279974768e-014 $301 $631 forward 7 unknown #
coedge $-1 $302 $621 $627 $632 forward $446 $-1 #
vertex $-1 $303 $633 #
vertex $-1 $303 $634 #
straight-curve $-1 -72.917770172595539 8.1589590335712963 12.135277387433348 1 0 0 I I #
coedge $-1 $460 $460 $-1 $635 reversed $306 $-1 #
edge $-1 $636 0 $636 6.2831853071796004 $307 $637 forward 7 unknown #
vertex $-1 $310 $638 #
ellipse-curve $-1 -56.827413660773352 10.823482061308624 6.7048247793814886 -0.6560590369687036 0 0.75470957328743171 0.75470957328743171 0 0.6560590369687036 1 I I #
coedge $-1 $464 $464 $-1 $639 reversed $313 $-1 #
edge $-1 $640 0 $640 6.2831853071796004 $314 $641 forward 7 unknown #
vertex $-1 $317 $642 #
ellipse-curve $-1 -56.827413660773352 14.820266602914607 6.7048247793814886 -0.6560590369687036 0 0.75470957328743171 0.75470957328743171 0 0.6560590369687036 1 I I #
face $-1 $-1 $643 $65 $-1 $644 reversed single #
loop $-1 $-1 $324 $318 #
plane-surface $-1 0 0 12.135277387433348 0 0 1 1 0 0 forward_v I I I I #
coedge $-1 $645 $646 $647 $648 reversed $319 $-1 #
coedge $-1 $649 $321 $323 $478 forward $201 $-1 #
coedge $-1 $321 $649 $645 $650 forward $201 $-1 #
coedge $-1 $647 $324 $321 $475 forward $469 $-1 #
edge $-1 $481 10.058303976663645 $651 19.384134573744273 $474 $652 forward 7 unknown #
coedge $-1 $653 $654 $322 $477 forward $643 $-1 #
edge $-1 $655 -46.965693570316269 $480 -36.104788354212552 $476 $656 forward 7 unknown #
edge $-1 $481 -16.554768098746326 $655 -1.888283279974768e-014 $323 $657 forward 7 unknown #
coedge $-1 $324 $647 $653 $658 forward $469 $-1 #
vertex $-1 $325 $659 #
vertex $-1 $325 $660 #
straight-curve $-1 -72.917770172595539 24.779523251867605 12.135277387433348 1 0 0 I I #
coedge $-1 $483 $483 $-1 $661 reversed $328 $-1 #
edge $-1 $662 0 $662 6.2831853071796004 $329 $663 forward 7 unknown #
vertex $-1 $332 $664 #
ellipse-curve $-1 -56.827413660773352 27.44404627960494 6.7048247793814886 -0.6560590369687036 0 0.75470957328743171 0.75470957328743171 0 0.6560590369687036 1 I I #
coedge $-1 $487 $487 $-1 $665 reversed $335 $-1 #
edge $-1 $666 0 $666 6.2831853071796004 $336 $667 forward 7 unknown #
vertex $-1 $339 $668 #
ellipse-curve $-1 -56.827413660773352 31.440830821210916 6.7048247793814886 -0.6560590369687036 0 0.75470957328743171 0.75470957328743171 0 0.6560590369687036 1 I I #
face $-1 $-1 $355 $51 $-1 $669 reversed single #
loop $-1 $-1 $507 $340 #
plane-surface $-1 0 36.760343362672508 0 0 -1 0 0 0 -1 forward_v I I I I #
coedge $-1 $670 $505 $508 $671 forward $341 $-1 #
coedge $-1 $511 $343 $344 $499 reversed $215 $-1 #
coedge $-1 $505 $670 $343 $497 reversed $341 $-1 #
edge $-1 $512 -12.135277387433348 $672 12.135277387433348 $496 $673 forward 7 unknown #
coedge $-1 $345 $344 $670 $674 forward $137 $-1 #
edge $-1 $503 -63.074434644611955 $672 63.074434644611955 $495 $675 forward 7 unknown #
coedge $-1 $508 $507 $345 $501 reversed $492 $-1 #
edge $-1 $676 -63.074434644611955 $502 63.074434644611955 $500 $677 forward 7 unknown #
vertex $-1 $347 $678 #
vertex $-1 $514 $679 #
straight-curve $-1 63.074434644611955 0 -12.135277387433348 0 -1 0 I I #
coedge $-1 $494 $496 $348 $506 reversed $341 $-1 #
edge $-1 $509 -36.760343362672508 $512 36.760343362672508 $505 $680 forward 7 unknown #
coedge $-1 $500 $349 $354 $515 forward $492 $-1 #
coedge $-1 $349 $500 $494 $671 reversed $492 $-1 #
vertex $-1 $350 $681 #
straight-curve $-1 0 36.760343362672508 12.135277387433348 -1 0 0 I I #
coedge $-1 $351 $495 $353 $514 reversed $215 $-1 #
vertex $-1 $506 $682 #
straight-curve $-1 0 -36.760343362672508 12.135277387433348 1 0 0 I I #
edge $-1 $356 -12.135277387433348 $503 12.135277387433348 $353 $683 forward 7 unknown #
edge $-1 $357 -12.135277387433348 $502 12.135277387433348 $354 $684 forward 7 unknown #
point $-1 63.074434644611955 -36.760343362672508 12.135277387433348 #
point $-1 63.074434644611955 36.760343362672508 12.135277387433348 #
face $-1 $-1 $685 $52 $-1 $686 reversed single #
loop $-1 $-1 $369 $359 #
plane-surface $-1 0 -36.760343362672508 0 0 1 0 0 0 1 forward_v I I I I #
coedge $-1 $687 $362 $525 $688 forward $223 $-1 #
coedge $-1 $362 $687 $689 $690 forward $223 $-1 #
edge $-1 $691 -63.074434644611955 $526 63.074434644611955 $362 $692 forward 7 unknown #
coedge $-1 $364 $363 $693 $694 reversed $141 $-1 #
coedge $-1 $365 $371 $521 $688 reversed $360 $-1 #
vertex $-1 $688 $695 #
straight-curve $-1 63.074434644611955 -27.737158916745592 -4.5042592815202029 0 0 1 I I #
coedge $-1 $693 $696 $367 $529 forward $685 $-1 #
edge $-1 $534 -20.635967792817983 $530 -11.612783346891067 $528 $697 forward 7 unknown #
vertex $-1 $529 $698 #
straight-curve $-1 0 -27.737158916745592 -5.8817597386474638 -1 0 0 I I #
coedge $-1 $699 $369 $696 $700 forward $519 $-1 #
coedge $-1 $369 $699 $371 $536 reversed $519 $-1 #
vertex $-1 $700 $701 #
straight-curve $-1 0 -36.760343362672508 -5.8817597386474638 -1 0 0 I I #
edge $-1 $373 5.8817597386474638 $702 12.135277387433348 $371 $703 forward 7 unknown #
point $-1 63.074434644611955 -27.737158916745592 -5.8817597386474638 #
point $-1 63.074434644611955 -36.760343362672508 -5.8817597386474638 #
plane-surface $-1 0 0 12.135277387433348 0 0 1 1 0 0 forward_v I I I I #
coedge $-1 $550 $549 $542 $704 forward $376 $-1 #
coedge $-1 $542 $378 $380 $546 reversed $231 $-1 #
coedge $-1 $378 $541 $540 $704 reversed $231 $-1 #
coedge $-1 $386 $381 $378 $544 forward $387 $-1 #
edge $-1 $547 29.495532748913035 $705 42.40804974384254 $543 $706 forward 7 unknown #
coedge $-1 $380 $379 $550 $707 reversed $145 $-1 #
edge $-1 $708 -126.14886928922391 $547 -109.76264989479073 $541 $709 forward 7 unknown #
vertex $-1 $382 $710 #
straight-curve $-1 50.161917649682458 0.38482607803844004 12.135277387433341 0 -1 0 I I #
coedge $-1 $540 $383 $386 $554 reversed $376 $-1 #
coedge $-1 $383 $540 $545 $707 forward $376 $-1 #
vertex $-1 $384 $711 #
straight-curve $-1 63.074434644611955 6.3231061816524967 89.559288999528277 0 0 1 I I #
straight-curve $-1 -36.332230149686083 6.3231061816524967 79.711913204758517 0.78801074757464917 0 -0.61566148304635926 I I #
edge $-1 $705 -4.7838018694987365 $388 6.3231061816524967 $549 $712 forward 7 unknown #
point $-1 63.074434644611955 6.3231061816524967 12.135277387433348 #
point $-1 50.161917649682451 6.3231061816524967 12.135277387433348 #
edge $-1 $713 1 $713 0 $391 $-1 forward 7 unknown #
vertex $-1 $392 $714 #
ellipse-curve $-1 54.158226446622209 -1.6103995691698074 3.9425033492674073 0.61566148304635926 0 0.78801074757464917 1.1820161213619738 0 -0.92349222456953894 1 I I #
point $-1 57.800192268509193 -1.6103995691698074 6.1676030959139441 #
edge $-1 $715 1 $715 0 $395 $-1 forward 7 unknown #
vertex $-1 $396 $716 #
ellipse-curve $-1 54.158226446622209 3.1497038813235818 3.9425033492674073 0.61566148304635926 0 0.78801074757464917 1.1820161213619738 0 -0.92349222456953894 1 I I #
point $-1 57.800192268509193 3.1497038813235818 6.1676030959139441 #
loop $-1 $-1 $407 $399 #
plane-surface $-1 -63.074434644611955 0 0 1 0 0 0 0 -1 forward_v I I I I #
coedge $-1 $568 $402 $404 $572 reversed $253 $-1 #
coedge $-1 $402 $567 $717 $718 reversed $253 $-1 #
coedge $-1 $410 $405 $402 $570 forward $400 $-1 #
edge $-1 $573 -22.337377495660796 $719 -9.8433355279835837 $569 $720 forward 7 unknown #
coedge $-1 $404 $403 $576 $721 reversed $159 $-1 #
edge $-1 $722 1.888283279974768e-014 $573 16.554768098746326 $567 $723 forward 7 unknown #
vertex $-1 $406 $724 #
straight-curve $-1 -50.580392676934736 -10.209627052240505 12.135277387433348 0 1 0 I I #
coedge $-1 $717 $407 $410 $580 reversed $565 $-1 #
coedge $-1 $407 $717 $571 $721 forward $565 $-1 #
vertex $-1 $408 $725 #
straight-curve $-1 -63.074434644611955 -25.082169403021325 48.2400657416459 0 0 1 I I #
straight-curve $-1 -63.074434644611969 -25.082169403021325 1.2743721713296168 -0.75470957328743171 0 -0.6560590369687036 I I #
edge $-1 $719 15.756338805940693 $411 25.082169403021325 $575 $726 forward 7 unknown #
point $-1 -63.074434644611955 -25.082169403021325 12.135277387433348 #
point $-1 -50.580392676934743 -25.082169403021325 12.135277387433348 #
edge $-1 $727 1 $727 0 $414 $-1 forward 7 unknown #
vertex $-1 $415 $728 #
ellipse-curve $-1 -55.768252826530222 -22.417646375284001 5.4863996435159788 -0.6560590369687036 0 0.75470957328743171 0.75470957328743171 0 0.6560590369687036 1 I I #
point $-1 -56.072704087485917 -22.417646375284001 7.3608838163501922 #
edge $-1 $729 1 $729 0 $418 $-1 forward 7 unknown #
vertex $-1 $419 $730 #
ellipse-curve $-1 -55.768252826530222 -18.420861833678018 5.4863996435159788 -0.6560590369687036 0 0.75470957328743171 0.75470957328743171 0 0.6560590369687036 1 I I #
point $-1 -56.072704087485917 -18.420861833678018 7.3608838163501922 #
loop $-1 $-1 $430 $422 #
plane-surface $-1 -63.074434644611955 0 0 1 0 0 0 0 -1 forward_v I I I I #
coedge $-1 $594 $425 $427 $598 reversed $275 $-1 #
coedge $-1 $425 $593 $731 $732 reversed $275 $-1 #
coedge $-1 $433 $428 $425 $596 forward $423 $-1 #
edge $-1 $599 -22.337377495660796 $733 -9.8433355279835837 $595 $734 forward 7 unknown #
coedge $-1 $427 $426 $602 $735 reversed $173 $-1 #
edge $-1 $736 1.888283279974768e-014 $599 16.554768098746326 $593 $737 forward 7 unknown #
vertex $-1 $429 $738 #
straight-curve $-1 -50.580392676934736 -1.8993449430923484 12.135277387433348 0 1 0 I I #
coedge $-1 $731 $430 $433 $606 reversed $591 $-1 #
coedge $-1 $430 $731 $597 $735 forward $591 $-1 #
vertex $-1 $431 $739 #
straight-curve $-1 -63.074434644611955 -8.4616051847250127 48.2400657416459 0 0 1 I I #
straight-curve $-1 -63.074434644611969 -8.4616051847250127 1.2743721713296168 -0.75470957328743171 0 -0.6560590369687036 I I #
edge $-1 $733 -0.86422541235561834 $434 8.4616051847250127 $601 $740 forward 7 unknown #
point $-1 -63.074434644611955 -8.4616051847250127 12.135277387433348 #
point $-1 -50.580392676934743 -8.4616051847250127 12.135277387433348 #
edge $-1 $741 1 $741 0 $437 $-1 forward 7 unknown #
vertex $-1 $438 $742 #
ellipse-curve $-1 -55.768252826530222 -5.7970821569876883 5.4863996435159788 -0.6560590369687036 0 0.75470957328743171 0.75470957328743171 0 0.6560590369687036 1 I I #
point $-1 -56.072704087485917 -5.7970821569876883 7.3608838163501922 #
edge $-1 $743 1 $743 0 $441 $-1 forward 7 unknown #
vertex $-1 $442 $744 #
ellipse-curve $-1 -55.768252826530222 -1.8002976153817016 5.4863996435159788 -0.6560590369687036 0 0.75470957328743171 0.75470957328743171 0 0.6560590369687036 1 I I #
point $-1 -56.072704087485917 -1.8002976153817016 7.3608838163501922 #
loop $-1 $-1 $453 $445 #
plane-surface $-1 -63.074434644611955 0 0 1 0 0 0 0 -1 forward_v I I I I #
coedge $-1 $620 $448 $450 $624 reversed $297 $-1 #
coedge $-1 $448 $619 $745 $746 reversed $297 $-1 #
coedge $-1 $456 $451 $448 $622 forward $446 $-1 #
edge $-1 $625 -22.337377495660796 $747 -9.8433355279835837 $621 $748 forward 7 unknown #
coedge $-1 $450 $449 $628 $749 reversed $187 $-1 #
edge $-1 $750 1.888283279974768e-014 $625 16.554768098746326 $619 $751 forward 7 unknown #
vertex $-1 $452 $752 #
straight-curve $-1 -50.580392676934736 6.4109371660558061 12.135277387433348 0 1 0 I I #
coedge $-1 $745 $453 $456 $632 reversed $617 $-1 #
coedge $-1 $453 $745 $623 $749 forward $617 $-1 #
vertex $-1 $454 $753 #
straight-curve $-1 -63.074434644611955 8.1589590335712963 48.2400657416459 0 0 1 I I #
straight-curve $-1 -63.074434644611969 8.1589590335712963 1.2743721713296168 -0.75470957328743171 0 -0.6560590369687036 I I #
edge $-1 $747 -17.484789630651928 $457 -8.1589590335712963 $627 $754 forward 7 unknown #
point $-1 -63.074434644611955 8.1589590335712963 12.135277387433348 #
point $-1 -50.580392676934743 8.1589590335712963 12.135277387433348 #
edge $-1 $755 1 $755 0 $460 $-1 forward 7 unknown #
vertex $-1 $461 $756 #
ellipse-curve $-1 -55.768252826530222 10.823482061308624 5.4863996435159788 -0.6560590369687036 0 0.75470957328743171 0.75470957328743171 0 0.6560590369687036 1 I I #
point $-1 -56.072704087485917 10.823482061308624 7.3608838163501922 #
edge $-1 $757 1 $757 0 $464 $-1 forward 7 unknown #
vertex $-1 $465 $758 #
ellipse-curve $-1 -55.768252826530222 14.820266602914607 5.4863996435159788 -0.6560590369687036 0 0.75470957328743171 0.75470957328743171 0 0.6560590369687036 1 I I #
point $-1 -56.072704087485917 14.820266602914607 7.3608838163501922 #
loop $-1 $-1 $476 $468 #
plane-surface $-1 -63.074434644611955 0 0 1 0 0 0 0 -1 forward_v I I I I #
coedge $-1 $646 $471 $473 $650 reversed $319 $-1 #
coedge $-1 $471 $645 $759 $760 reversed $319 $-1 #
coedge $-1 $479 $474 $471 $648 forward $469 $-1 #
edge $-1 $651 -22.337377495660796 $761 -9.8433355279835837 $647 $762 forward 7 unknown #
coedge $-1 $473 $472 $654 $763 reversed $201 $-1 #
edge $-1 $764 1.888283279974768e-014 $651 16.554768098746326 $645 $765 forward 7 unknown #
vertex $-1 $475 $766 #
straight-curve $-1 -50.580392676934736 14.721219275203961 12.135277387433348 0 1 0 I I #
coedge $-1 $759 $476 $479 $658 reversed $643 $-1 #
coedge $-1 $476 $759 $649 $763 forward $643 $-1 #
vertex $-1 $477 $767 #
straight-curve $-1 -63.074434644611955 24.779523251867605 48.2400657416459 0 0 1 I I #
straight-curve $-1 -63.074434644611969 24.779523251867605 1.2743721713296168 -0.75470957328743171 0 -0.6560590369687036 I I #
edge $-1 $761 -34.105353848948234 $480 -24.779523251867605 $653 $768 forward 7 unknown #
point $-1 -63.074434644611955 24.779523251867605 12.135277387433348 #
point $-1 -50.580392676934743 24.779523251867605 12.135277387433348 #
edge $-1 $769 1 $769 0 $483 $-1 forward 7 unknown #
vertex $-1 $484 $770 #
ellipse-curve $-1 -55.768252826530222 27.44404627960494 5.4863996435159788 -0.6560590369687036 0 0.75470957328743171 0.75470957328743171 0 0.6560590369687036 1 I I #
point $-1 -56.072704087485917 27.44404627960494 7.3608838163501922 #
edge $-1 $771 1 $771 0 $487 $-1 forward 7 unknown #
vertex $-1 $488 $772 #
ellipse-curve $-1 -55.768252826530222 31.440830821210916 5.4863996435159788 -0.6560590369687036 0 0.75470957328743171 0.75470957328743171 0 0.6560590369687036 1 I I #
point $-1 -56.072704087485917 31.440830821210916 7.3608838163501922 #
plane-surface $-1 63.074434644611955 0 0 -1 0 0 0 0 1 forward_v I I I I #
coedge $-1 $496 $494 $498 $674 reversed $341 $-1 #
edge $-1 $509 -12.135277387433348 $676 12.135277387433348 $508 $773 forward 7 unknown #
vertex $-1 $674 $774 #
straight-curve $-1 -63.074434644611955 -36.760343362672508 0 0 0 -1 I I #
edge $-1 $672 -36.760343362672508 $676 36.760343362672508 $670 $775 forward 7 unknown #
straight-curve $-1 0 -36.760343362672508 -12.135277387433348 -1 0 0 I I #
vertex $-1 $501 $776 #
straight-curve $-1 0 36.760343362672508 -12.135277387433348 1 0 0 I I #
point $-1 63.074434644611955 36.760343362672508 -12.135277387433348 #
point $-1 63.074434644611955 -36.760343362672508 -12.135277387433348 #
straight-curve $-1 -63.074434644611955 0 12.135277387433348 0 -1 0 I I #
point $-1 -63.074434644611955 36.760343362672508 12.135277387433348 #
point $-1 -63.074434644611955 -36.760343362672508 12.135277387433348 #
straight-curve $-1 63.074434644611955 -36.760343362672508 0 0 0 -1 I I #
straight-curve $-1 63.074434644611955 36.760343362672508 0 0 0 -1 I I #
loop $-1 $-1 $693 $518 #
plane-surface $-1 -63.074434644611955 0 0 1 0 0 0 0 -1 forward_v I I I I #
coedge $-1 $522 $521 $699 $777 forward $223 $-1 #
edge $-1 $526 27.737158916745592 $702 36.760343362672508 $525 $778 forward 7 unknown #
coedge $-1 $696 $693 $522 $690 reversed $685 $-1 #
edge $-1 $779 -36.760343362672508 $691 -27.737158916745592 $689 $780 forward 7 unknown #
vertex $-1 $694 $781 #
straight-curve $-1 0 -27.737158916745592 -12.135277387433348 1 0 0 I I #
coedge $-1 $689 $528 $524 $694 forward $685 $-1 #
edge $-1 $530 1.3775004571272609 $691 7.631018105913145 $693 $782 forward 7 unknown #
point $-1 63.074434644611955 -27.737158916745592 -12.135277387433348 #
coedge $-1 $528 $689 $532 $700 reversed $685 $-1 #
straight-curve $-1 -63.074434644611955 -16.124375569854525 -5.8817597386474638 0 1 0 I I #
point $-1 -63.074434644611955 -27.737158916745592 -5.8817597386474638 #
coedge $-1 $533 $532 $687 $777 reversed $519 $-1 #
edge $-1 $534 5.8817597386474638 $779 12.135277387433348 $696 $783 forward 7 unknown #
point $-1 -63.074434644611955 -36.760343362672508 -5.8817597386474638 #
vertex $-1 $536 $784 #
straight-curve $-1 63.074434644611955 -36.760343362672508 0 0 0 -1 I I #
edge $-1 $705 77.42401161209493 $708 87.512375745994675 $540 $785 forward 7 unknown #
vertex $-1 $554 $786 #
straight-curve $-1 20.666384900769415 -4.7838018694987365 12.135277387433348 1 0 0 I I #
edge $-1 $708 -5.1686279475371766 $551 5.9382801036140567 $550 $787 forward 7 unknown #
vertex $-1 $707 $788 #
straight-curve $-1 -36.332230149686083 -4.7838018694987365 79.711913204758517 -0.78801074757464917 0 0.61566148304635926 I I #
point $-1 50.161917649682451 -4.7838018694987365 12.135277387433348 #
point $-1 63.074434644611955 6.3231061816524967 2.046913253533603 #
straight-curve $-1 63.074434644611955 0 12.135277387433348 0 1 0 I I #
vertex $-1 $557 $789 #
point $-1 55.340242567984177 -1.6103995691698074 3.0190111246978684 #
vertex $-1 $561 $790 #
point $-1 55.340242567984177 3.1497038813235818 3.0190111246978684 #
coedge $-1 $576 $575 $568 $718 forward $565 $-1 #
edge $-1 $719 36.104788354212552 $722 46.965693570316269 $717 $791 forward 7 unknown #
vertex $-1 $580 $792 #
straight-curve $-1 -72.917770172595539 -15.756338805940693 12.135277387433348 -1 0 0 I I #
edge $-1 $722 5.5467117537001887 $577 14.872542350780821 $576 $793 forward 7 unknown #
vertex $-1 $721 $794 #
straight-curve $-1 -63.074434644611969 -15.756338805940693 1.2743721713296168 0.75470957328743171 0 0.6560590369687036 I I #
point $-1 -50.580392676934743 -15.756338805940693 12.135277387433348 #
point $-1 -63.074434644611955 -25.082169403021325 1.2743721713296292 #
straight-curve $-1 -63.074434644611955 0 12.135277387433348 0 -1 0 I I #
vertex $-1 $583 $795 #
point $-1 -55.013543253242794 -22.417646375284001 6.1424586804846824 #
vertex $-1 $587 $796 #
point $-1 -55.013543253242794 -18.420861833678018 6.1424586804846824 #
coedge $-1 $602 $601 $594 $732 forward $591 $-1 #
edge $-1 $733 36.104788354212552 $736 46.965693570316269 $731 $797 forward 7 unknown #
vertex $-1 $606 $798 #
straight-curve $-1 -72.917770172595539 0.86422541235561834 12.135277387433348 -1 0 0 I I #
edge $-1 $736 -2.7635703554479667 $603 6.5622602416326643 $602 $799 forward 7 unknown #
vertex $-1 $735 $800 #
straight-curve $-1 -63.074434644611969 0.86422541235561834 1.2743721713296168 0.75470957328743171 0 0.6560590369687036 I I #
point $-1 -50.580392676934743 0.86422541235561834 12.135277387433348 #
point $-1 -63.074434644611955 -8.4616051847250127 1.2743721713296292 #
straight-curve $-1 -63.074434644611955 0 12.135277387433348 0 -1 0 I I #
vertex $-1 $609 $801 #
point $-1 -55.013543253242794 -5.7970821569876883 6.1424586804846824 #
vertex $-1 $613 $802 #
point $-1 -55.013543253242794 -1.8002976153817016 6.1424586804846824 #
coedge $-1 $628 $627 $620 $746 forward $617 $-1 #
edge $-1 $747 36.104788354212552 $750 46.965693570316269 $745 $803 forward 7 unknown #
vertex $-1 $632 $804 #
straight-curve $-1 -72.917770172595539 17.484789630651928 12.135277387433348 -1 0 0 I I #
edge $-1 $750 -11.073852464596122 $629 -1.7480218675154902 $628 $805 forward 7 unknown #
vertex $-1 $749 $806 #
straight-curve $-1 -63.074434644611969 17.484789630651928 1.2743721713296168 0.75470957328743171 0 0.6560590369687036 I I #
point $-1 -50.580392676934743 17.484789630651928 12.135277387433348 #
point $-1 -63.074434644611955 8.1589590335712963 1.2743721713296292 #
straight-curve $-1 -63.074434644611955 0 12.135277387433348 0 -1 0 I I #
vertex $-1 $635 $807 #
point $-1 -55.013543253242794 10.823482061308624 6.1424586804846824 #
vertex $-1 $639 $808 #
point $-1 -55.013543253242794 14.820266602914607 6.1424586804846824 #
coedge $-1 $654 $653 $646 $760 forward $643 $-1 #
edge $-1 $761 36.104788354212552 $764 46.965693570316269 $759 $809 forward 7 unknown #
vertex $-1 $658 $810 #
straight-curve $-1 -72.917770172595539 34.105353848948234 12.135277387433348 -1 0 0 I I #
edge $-1 $764 -19.384134573744273 $655 -10.058303976663645 $654 $811 forward 7 unknown #
vertex $-1 $763 $812 #
straight-curve $-1 -63.074434644611969 34.105353848948234 1.2743721713296168 0.75470957328743171 0 0.6560590369687036 I I #
point $-1 -50.580392676934743 34.105353848948234 12.135277387433348 #
point $-1 -63.074434644611955 24.779523251867605 1.2743721713296292 #
straight-curve $-1 -63.074434644611955 0 12.135277387433348 0 -1 0 I I #
vertex $-1 $661 $813 #
point $-1 -55.013543253242794 27.44404627960494 6.1424586804846824 #
vertex $-1 $665 $814 #
point $-1 -55.013543253242794 31.440830821210916 6.1424586804846824 #
straight-curve $-1 -63.074434644611955 36.760343362672508 0 0 0 -1 I I #
point $-1 -63.074434644611955 -36.760343362672508 -12.135277387433348 #
straight-curve $-1 -63.074434644611955 0 -12.135277387433348 0 1 0 I I #
point $-1 -63.074434644611955 36.760343362672508 -12.135277387433348 #
edge $-1 $702 -63.074434644611955 $779 63.074434644611955 $699 $815 forward 7 unknown #
straight-curve $-1 63.074434644611955 0 -12.135277387433348 0 -1 0 I I #
vertex $-1 $690 $816 #
straight-curve $-1 -63.074434644611955 0 -12.135277387433348 0 1 0 I I #
point $-1 -63.074434644611955 -27.737158916745592 -12.135277387433348 #
straight-curve $-1 -63.074434644611955 -27.737158916745592 -4.5042592815202029 0 0 -1 I I #
straight-curve $-1 -63.074434644611955 -36.760343362672508 0 0 0 -1 I I #
point $-1 63.074434644611955 -36.760343362672508 -12.135277387433348 #
straight-curve $-1 63.074434644611955 -4.7838018694987365 89.559288999528277 0 0 -1 I I #
point $-1 63.074434644611955 -4.7838018694987365 12.135277387433348 #
straight-curve $-1 63.074434644611962 0.38482607803844004 2.0469132535335959 0 1 0 I I #
point $-1 63.074434644611955 -4.7838018694987365 2.046913253533603 #
point $-1 53.234734222052666 -1.6103995691698074 2.7604872279054335 #
point $-1 53.234734222052666 3.1497038813235818 2.7604872279054335 #
straight-curve $-1 -63.074434644611955 -15.756338805940693 48.2400657416459 0 0 -1 I I #
point $-1 -63.074434644611955 -15.756338805940693 12.135277387433348 #
straight-curve $-1 -63.074434644611955 -10.209627052240505 1.274372171329627 0 -1 0 I I #
point $-1 -63.074434644611955 -15.756338805940693 1.2743721713296292 #
point $-1 -55.112193789561523 -22.417646375284001 4.7316900702285469 #
point $-1 -55.112193789561523 -18.420861833678018 4.7316900702285469 #
straight-curve $-1 -63.074434644611955 0.86422541235561834 48.2400657416459 0 0 -1 I I #
point $-1 -63.074434644611955 0.86422541235561834 12.135277387433348 #
straight-curve $-1 -63.074434644611955 -1.8993449430923484 1.274372171329627 0 -1 0 I I #
point $-1 -63.074434644611955 0.86422541235561834 1.2743721713296292 #
point $-1 -55.112193789561523 -5.7970821569876883 4.7316900702285469 #
point $-1 -55.112193789561523 -1.8002976153817016 4.7316900702285469 #
straight-curve $-1 -63.074434644611955 17.484789630651928 48.2400657416459 0 0 -1 I I #
point $-1 -63.074434644611955 17.484789630651928 12.135277387433348 #
straight-curve $-1 -63.074434644611955 6.4109371660558061 1.274372171329627 0 -1 0 I I #
point $-1 -63.074434644611955 17.484789630651928 1.2743721713296292 #
point $-1 -55.112193789561523 10.823482061308624 4.7316900702285469 #
point $-1 -55.112193789561523 14.820266602914607 4.7316900702285469 #
straight-curve $-1 -63.074434644611955 34.105353848948234 48.2400657416459 0 0 -1 I I #
point $-1 -63.074434644611955 34.105353848948234 12.135277387433348 #
straight-curve $-1 -63.074434644611955 14.721219275203961 1.274372171329627 0 -1 0 I I #
point $-1 -63.074434644611955 34.105353848948234 1.2743721713296292 #
point $-1 -55.112193789561523 27.44404627960494 4.7316900702285469 #
point $-1 -55.112193789561523 31.440830821210916 4.7316900702285469 #
straight-curve $-1 0 -36.760343362672508 -12.135277387433348 -1 0 0 I I #
point $-1 -63.074434644611955 -36.760343362672508 -12.135277387433348 #
End-of-ACIS-data 