500 0 11 0           
7 Unknown 11 ACIS 5.0 NT 24 Fri Mar 26 17:00:24 1999 
-1 9.9999999999999995e-007 1e-010 
body $-1 $11 $-1 $12 #
body $-1 $13 $-1 $14 #
body $-1 $15 $-1 $16 #
body $-1 $17 $-1 $18 #
body $-1 $19 $-1 $20 #
body $-1 $21 $-1 $22 #
body $-1 $23 $-1 $24 #
body $-1 $25 $-1 $26 #
body $-1 $27 $-1 $28 #
body $-1 $29 $-1 $30 #
body $-1 $31 $-1 $32 #
lump $-1 $-1 $33 $0 #
transform $-1 1 0 0 0 1 0 0 0 1 66.222724082155821 36.059624313823321 9.225484071938606 1 rotate no_reflect no_shear #
lump $-1 $-1 $34 $1 #
transform $-1 1 0 0 0 1 0 0 0 1 66.222724082155821 36.059624313823321 9.225484071938606 1 rotate no_reflect no_shear #
lump $-1 $-1 $35 $2 #
transform $-1 1 0 0 0 1 0 0 0 1 66.222724082155821 36.059624313823321 9.225484071938606 1 rotate no_reflect no_shear #
lump $-1 $-1 $36 $3 #
transform $-1 1 0 0 0 1 0 0 0 1 66.222724082155821 36.059624313823321 9.225484071938606 1 rotate no_reflect no_shear #
lump $-1 $-1 $37 $4 #
transform $-1 1 0 0 0 1 0 0 0 1 66.222724082155821 36.059624313823321 9.225484071938606 1 rotate no_reflect no_shear #
lump $-1 $-1 $38 $5 #
transform $-1 1 0 0 0 1 0 0 0 1 66.222724082155821 36.059624313823321 9.225484071938606 1 rotate no_reflect no_shear #
lump $-1 $-1 $39 $6 #
transform $-1 1 0 0 0 1 0 0 0 1 66.222724082155821 36.059624313823321 9.225484071938606 1 rotate no_reflect no_shear #
lump $-1 $-1 $40 $7 #
transform $-1 1 0 0 0 1 0 0 0 1 66.222724082155821 36.059624313823321 9.225484071938606 1 rotate no_reflect no_shear #
lump $-1 $-1 $41 $8 #
transform $-1 1 0 0 0 1 0 0 0 1 66.222724082155821 36.059624313823321 9.225484071938606 1 rotate no_reflect no_shear #
lump $-1 $-1 $42 $9 #
transform $-1 1 0 0 0 1 0 0 0 1 66.222724082155821 36.059624313823321 9.225484071938606 1 rotate no_reflect no_shear #
lump $-1 $-1 $43 $10 #
transform $-1 1 0 0 0 1 0 0 0 1 66.222724082155821 36.059624313823321 9.225484071938606 1 rotate no_reflect no_shear #
shell $-1 $-1 $-1 $44 $-1 $11 #
shell $-1 $-1 $-1 $45 $-1 $13 #
shell $-1 $-1 $-1 $46 $-1 $15 #
shell $-1 $-1 $-1 $47 $-1 $17 #
shell $-1 $-1 $-1 $48 $-1 $19 #
shell $-1 $-1 $-1 $49 $-1 $21 #
shell $-1 $-1 $-1 $50 $-1 $23 #
shell $-1 $-1 $-1 $51 $-1 $25 #
shell $-1 $-1 $-1 $52 $-1 $27 #
shell $-1 $-1 $-1 $53 $-1 $29 #
shell $-1 $-1 $-1 $54 $-1 $31 #
face $-1 $55 $56 $33 $-1 $57 forward single #
face $-1 $58 $59 $34 $-1 $60 reversed single #
face $-1 $61 $62 $35 $-1 $63 forward single #
face $-1 $64 $65 $36 $-1 $66 forward single #
face $-1 $67 $68 $37 $-1 $69 reversed single #
face $-1 $70 $71 $38 $-1 $72 forward single #
face $-1 $73 $74 $39 $-1 $75 forward single #
face $-1 $76 $77 $40 $-1 $78 reversed single #
face $-1 $79 $80 $41 $-1 $81 forward single #
face $-1 $82 $83 $42 $-1 $84 reversed single #
face $-1 $85 $86 $43 $-1 $87 forward single #
face $-1 $88 $89 $33 $-1 $90 reversed single #
loop $-1 $-1 $91 $44 #
plane-surface $-1 0 0 9.225484071938606 0 0 1 1 0 0 forward_v I I I I #
face $-1 $92 $93 $34 $-1 $94 reversed single #
loop $-1 $-1 $95 $45 #
plane-surface $-1 69.49166934508753 -5.5617651122616039 188.15766663122284 0 -1 0 -0.71933980857756763 0 -0.69465836192734942 forward_v I I I I #
face $-1 $96 $97 $35 $-1 $98 forward single #
loop $-1 $99 $100 $46 #
cone-surface $-1 61.444737128020861 -13.779722821265377 4.3300057740778275 -0.71933980857756763 0 -0.69465836192734942 0.69465836192734942 0 -0.71933980857756763 1 I I 0 1 1 forward I I I I #
face $-1 $101 $102 $36 $-1 $103 forward single #
loop $-1 $104 $105 $47 #
cone-surface $-1 61.444737128020861 -8.8489481958631124 4.3300057740778275 -0.71933980857756763 0 -0.69465836192734942 0.69465836192734942 0 -0.71933980857756763 1 I I 0 1 1 forward I I I I #
face $-1 $106 $107 $37 $-1 $108 reversed single #
loop $-1 $-1 $109 $48 #
plane-surface $-1 69.49166934508753 30.49785920156172 188.15766663122284 0 -1 0 -0.71933980857756763 0 -0.69465836192734942 forward_v I I I I #
face $-1 $110 $111 $38 $-1 $112 forward single #
loop $-1 $113 $114 $49 #
cone-surface $-1 61.444737128020861 22.27990149255794 4.3300057740778275 -0.71933980857756763 0 -0.69465836192734942 0.69465836192734942 0 -0.71933980857756763 1 I I 0 1 1 forward I I I I #
face $-1 $115 $116 $39 $-1 $117 forward single #
loop $-1 $118 $119 $50 #
cone-surface $-1 61.444737128020861 27.210676117960205 4.3300057740778275 -0.71933980857756763 0 -0.69465836192734942 0.69465836192734942 0 -0.71933980857756763 1 I I 0 1 1 forward I I I I #
face $-1 $120 $121 $40 $-1 $122 reversed single #
loop $-1 $-1 $123 $51 #
plane-surface $-1 -159.8757997030466 -30.914732168127578 98.998322291923131 0 1 0 -0.70710678939079041 0 0.70710677298230451 forward_v I I I I #
face $-1 $124 $125 $41 $-1 $126 forward single #
loop $-1 $127 $128 $52 #
cone-surface $-1 -63.654266159119032 -25.68214140036223 6.6570261184618911 0.70710678939079041 0 -0.70710677298230451 0.70710677298230451 0 0.70710678939079041 1 I I 0 1 1 forward I I I I #
face $-1 $129 $130 $42 $-1 $131 reversed single #
loop $-1 $-1 $132 $53 #
plane-surface $-1 -159.8757997030466 5.1448921456957404 98.998322291923131 0 1 0 -0.70710678939079041 0 0.70710677298230451 forward_v I I I I #
face $-1 $133 $134 $43 $-1 $135 forward single #
loop $-1 $136 $137 $54 #
cone-surface $-1 -63.654266159119032 10.377482913461094 6.6570261184618911 0.70710678939079041 0 -0.70710677298230451 0.70710677298230451 0 0.70710678939079041 1 I I 0 1 1 forward I I I I #
face $-1 $138 $139 $33 $-1 $140 reversed single #
loop $-1 $-1 $141 $55 #
plane-surface $-1 0 0 -9.225484071938606 0 0 1 1 0 0 forward_v I I I I #
coedge $-1 $142 $143 $144 $145 forward $56 $-1 #
face $-1 $146 $147 $34 $-1 $148 reversed single #
loop $-1 $-1 $149 $58 #
plane-surface $-1 -25.781613984398561 -11.314335508564245 96.153328564668442 0.71933980857756763 0 0.69465836192734942 0.69465836192734942 0 -0.71933980857756763 forward_v I I I I #
coedge $-1 $150 $151 $152 $153 reversed $59 $-1 #
face $-1 $-1 $154 $35 $-1 $155 forward single #
loop $-1 $156 $157 $61 #
cone-surface $-1 60.336628476702117 -13.779722821265377 3.2599177136314985 -0.71933980857756763 0 -0.69465836192734942 0.34732918096367471 0 -0.35966990428878381 1 I I -0.70710678118654746 0.70710678118654746 0.5 forward I I I I #
loop $-1 $-1 $158 $46 #
coedge $-1 $100 $100 $159 $160 reversed $62 $-1 #
face $-1 $-1 $161 $36 $-1 $162 forward single #
loop $-1 $163 $164 $64 #
cone-surface $-1 60.336628476702117 -8.8489481958631124 3.2599177136314985 -0.71933980857756763 0 -0.69465836192734942 0.34732918096367471 0 -0.35966990428878381 1 I I -0.70710678118654746 0.70710678118654746 0.5 forward I I I I #
loop $-1 $-1 $165 $47 #
coedge $-1 $105 $105 $166 $167 reversed $65 $-1 #
face $-1 $168 $169 $37 $-1 $170 reversed single #
loop $-1 $-1 $171 $67 #
plane-surface $-1 -25.781613984398561 24.745288805259079 96.153328564668442 0.71933980857756763 0 0.69465836192734942 0.69465836192734942 0 -0.71933980857756763 forward_v I I I I #
coedge $-1 $172 $173 $174 $175 reversed $68 $-1 #
face $-1 $-1 $176 $38 $-1 $177 forward single #
loop $-1 $178 $179 $70 #
cone-surface $-1 60.336628476702117 22.27990149255794 3.2599177136314985 -0.71933980857756763 0 -0.69465836192734942 0.34732918096367471 0 -0.35966990428878381 1 I I -0.70710678118654746 0.70710678118654746 0.5 forward I I I I #
loop $-1 $-1 $180 $49 #
coedge $-1 $114 $114 $181 $182 reversed $71 $-1 #
face $-1 $-1 $183 $39 $-1 $184 forward single #
loop $-1 $185 $186 $73 #
cone-surface $-1 60.336628476702117 27.210676117960205 3.2599177136314985 -0.71933980857756763 0 -0.69465836192734942 0.34732918096367471 0 -0.35966990428878381 1 I I -0.70710678118654746 0.70710678118654746 0.5 forward I I I I #
loop $-1 $-1 $187 $50 #
coedge $-1 $119 $119 $188 $189 reversed $74 $-1 #
face $-1 $190 $191 $40 $-1 $192 reversed single #
loop $-1 $-1 $193 $76 #
plane-surface $-1 -66.222724082155835 -25.682141400362234 5.3452488442616328 -0.70710678939079041 0 0.70710677298230451 0.70710677298230451 0 0.70710678939079041 forward_v I I I I #
coedge $-1 $194 $195 $196 $197 reversed $77 $-1 #
face $-1 $-1 $198 $41 $-1 $199 forward single #
loop $-1 $200 $201 $79 #
cone-surface $-1 -62.672372410204709 -25.68214140036223 5.6751323923325128 0.70710678939079041 0 -0.70710677298230451 0.35355338649115226 0 0.35355339469539521 1 I I -0.70710678118654746 0.70710678118654746 0.5 forward I I I I #
loop $-1 $-1 $202 $52 #
coedge $-1 $128 $128 $203 $204 reversed $80 $-1 #
face $-1 $205 $206 $42 $-1 $207 reversed single #
loop $-1 $-1 $208 $82 #
plane-surface $-1 -66.222724082155835 10.377482913461087 5.3452488442616328 -0.70710678939079041 0 0.70710677298230451 0.70710677298230451 0 0.70710678939079041 forward_v I I I I #
coedge $-1 $209 $210 $211 $212 reversed $83 $-1 #
face $-1 $-1 $213 $43 $-1 $214 forward single #
loop $-1 $215 $216 $85 #
cone-surface $-1 -62.672372410204709 10.377482913461094 5.6751323923325128 0.70710678939079041 0 -0.70710677298230451 0.35355338649115226 0 0.35355339469539521 1 I I -0.70710678118654746 0.70710678118654746 0.5 forward I I I I #
loop $-1 $-1 $217 $54 #
coedge $-1 $137 $137 $218 $219 reversed $86 $-1 #
face $-1 $220 $221 $33 $-1 $222 reversed single #
loop $-1 $-1 $223 $88 #
plane-surface $-1 0 -36.059624313823321 0 0 1 0 0 0 1 forward_v I I I I #
coedge $-1 $224 $225 $226 $227 forward $89 $-1 #
coedge $-1 $228 $91 $229 $230 forward $56 $-1 #
coedge $-1 $91 $228 $231 $232 forward $56 $-1 #
coedge $-1 $233 $234 $91 $145 reversed $235 $-1 #
edge $-1 $236 -36.059624313823321 $237 36.059624313823321 $144 $238 forward 7 unknown #
face $-1 $239 $240 $34 $-1 $241 forward single #
loop $-1 $-1 $242 $92 #
plane-surface $-1 69.49166934508753 -17.066905904866886 188.15766663122284 0 1 0 0.71933980857756763 0 0.69465836192734942 forward_v I I I I #
coedge $-1 $243 $244 $245 $246 reversed $93 $-1 #
coedge $-1 $151 $95 $247 $248 reversed $59 $-1 #
coedge $-1 $95 $150 $243 $249 reversed $59 $-1 #
coedge $-1 $245 $250 $95 $153 forward $240 $-1 #
edge $-1 $251 -31.476889409612056 $252 -23.417792995402053 $152 $253 forward 7 unknown #
loop $-1 $-1 $159 $96 #
plane-surface $-1 -25.781613984398561 -11.314335508564245 96.153328564668442 0.71933980857756763 0 0.69465836192734942 0.69465836192734942 0 -0.71933980857756763 forward_v I I I I #
loop $-1 $-1 $254 $61 #
coedge $-1 $157 $157 $158 $255 reversed $97 $-1 #
coedge $-1 $158 $158 $157 $255 forward $99 $-1 #
coedge $-1 $159 $159 $100 $160 forward $154 $-1 #
edge $-1 $256 0 $256 6.2831853071796004 $159 $257 forward 7 unknown #
loop $-1 $-1 $166 $101 #
plane-surface $-1 -25.781613984398561 -11.314335508564245 96.153328564668442 0.71933980857756763 0 0.69465836192734942 0.69465836192734942 0 -0.71933980857756763 forward_v I I I I #
loop $-1 $-1 $258 $64 #
coedge $-1 $164 $164 $165 $259 reversed $102 $-1 #
coedge $-1 $165 $165 $164 $259 forward $104 $-1 #
coedge $-1 $166 $166 $105 $167 forward $161 $-1 #
edge $-1 $260 0 $260 6.2831853071796004 $166 $261 forward 7 unknown #
face $-1 $262 $263 $37 $-1 $264 reversed single #
loop $-1 $-1 $265 $106 #
plane-surface $-1 69.49166934508753 18.992718408956438 188.15766663122284 0 1 0 0.71933980857756763 0 0.69465836192734942 forward_v I I I I #
coedge $-1 $266 $267 $268 $269 reversed $107 $-1 #
coedge $-1 $173 $109 $270 $271 reversed $68 $-1 #
coedge $-1 $109 $172 $266 $272 reversed $68 $-1 #
coedge $-1 $268 $273 $109 $175 forward $274 $-1 #
edge $-1 $275 -31.476889409612056 $276 -23.417792995402053 $174 $277 forward 7 unknown #
loop $-1 $-1 $181 $110 #
plane-surface $-1 -25.781613984398561 24.745288805259079 96.153328564668442 0.71933980857756763 0 0.69465836192734942 0.69465836192734942 0 -0.71933980857756763 forward_v I I I I #
loop $-1 $-1 $278 $70 #
coedge $-1 $179 $179 $180 $279 reversed $111 $-1 #
coedge $-1 $180 $180 $179 $279 forward $113 $-1 #
coedge $-1 $181 $181 $114 $182 forward $176 $-1 #
edge $-1 $280 0 $280 6.2831853071796004 $181 $281 forward 7 unknown #
loop $-1 $-1 $188 $115 #
plane-surface $-1 -25.781613984398561 24.745288805259079 96.153328564668442 0.71933980857756763 0 0.69465836192734942 0.69465836192734942 0 -0.71933980857756763 forward_v I I I I #
loop $-1 $-1 $282 $73 #
coedge $-1 $186 $186 $187 $283 reversed $116 $-1 #
coedge $-1 $187 $187 $186 $283 forward $118 $-1 #
coedge $-1 $188 $188 $119 $189 forward $183 $-1 #
edge $-1 $284 0 $284 6.2831853071796004 $188 $285 forward 7 unknown #
face $-1 $286 $287 $40 $-1 $288 reversed single #
loop $-1 $-1 $289 $120 #
plane-surface $-1 -159.8757997030466 -20.449550632596889 98.998322291923131 0 -1 0 0.70710678939079041 0 -0.70710677298230451 forward_v I I I I #
coedge $-1 $290 $291 $292 $293 reversed $121 $-1 #
coedge $-1 $195 $123 $294 $295 reversed $77 $-1 #
coedge $-1 $123 $194 $290 $296 reversed $77 $-1 #
coedge $-1 $292 $297 $123 $197 forward $298 $-1 #
edge $-1 $299 13.715175769367477 $300 17.595410907003178 $196 $301 forward 7 unknown #
loop $-1 $-1 $203 $124 #
plane-surface $-1 -66.222724082155835 -25.682141400362234 5.3452488442616328 -0.70710678939079041 0 0.70710677298230451 0.70710677298230451 0 0.70710678939079041 forward_v I I I I #
loop $-1 $-1 $302 $79 #
coedge $-1 $201 $201 $202 $303 reversed $125 $-1 #
coedge $-1 $202 $202 $201 $303 forward $127 $-1 #
coedge $-1 $203 $203 $128 $204 forward $198 $-1 #
edge $-1 $304 0 $304 6.2831853071796004 $203 $305 forward 7 unknown #
face $-1 $306 $307 $42 $-1 $308 forward single #
loop $-1 $-1 $309 $129 #
plane-surface $-1 -159.8757997030466 15.610073681226433 98.998322291923131 0 -1 0 0.70710678939079041 0 -0.70710677298230451 forward_v I I I I #
coedge $-1 $310 $311 $312 $313 reversed $130 $-1 #
coedge $-1 $210 $132 $314 $315 reversed $83 $-1 #
coedge $-1 $132 $209 $310 $316 reversed $83 $-1 #
coedge $-1 $312 $317 $132 $212 forward $307 $-1 #
edge $-1 $318 13.715175769367477 $319 17.595410907003178 $211 $320 forward 7 unknown #
loop $-1 $-1 $218 $133 #
plane-surface $-1 -66.222724082155835 10.377482913461087 5.3452488442616328 -0.70710678939079041 0 0.70710677298230451 0.70710677298230451 0 0.70710678939079041 forward_v I I I I #
loop $-1 $-1 $321 $85 #
coedge $-1 $216 $216 $217 $322 reversed $134 $-1 #
coedge $-1 $217 $217 $216 $322 forward $136 $-1 #
coedge $-1 $218 $218 $137 $219 forward $213 $-1 #
edge $-1 $323 0 $323 6.2831853071796004 $218 $324 forward 7 unknown #
face $-1 $325 $326 $33 $-1 $327 reversed single #
loop $-1 $-1 $328 $138 #
plane-surface $-1 -66.222724082155821 0 0 1 0 0 0 0 -1 forward_v I I I I #
coedge $-1 $329 $231 $330 $331 forward $139 $-1 #
coedge $-1 $332 $141 $329 $333 forward $89 $-1 #
coedge $-1 $141 $332 $334 $335 forward $89 $-1 #
coedge $-1 $234 $233 $141 $227 reversed $235 $-1 #
edge $-1 $336 -36.059624313823321 $337 36.059624313823321 $226 $338 forward 7 unknown #
coedge $-1 $143 $142 $339 $340 forward $56 $-1 #
coedge $-1 $341 $342 $142 $230 reversed $326 $-1 #
edge $-1 $237 -66.222724082155821 $343 66.222724082155821 $229 $344 forward 7 unknown #
coedge $-1 $223 $345 $143 $232 reversed $139 $-1 #
edge $-1 $346 -66.222724082155821 $236 66.222724082155821 $231 $347 forward 7 unknown #
coedge $-1 $226 $144 $345 $348 forward $235 $-1 #
coedge $-1 $144 $226 $341 $349 reversed $235 $-1 #
loop $-1 $-1 $233 $325 #
vertex $-1 $145 $350 #
vertex $-1 $145 $351 #
straight-curve $-1 66.222724082155821 0 9.225484071938606 0 1 0 I I #
face $-1 $-1 $352 $34 $-1 $353 reversed single #
loop $-1 $-1 $152 $146 #
plane-surface $-1 0 0 9.225484071938606 0 0 1 1 0 0 forward_v I I I I #
coedge $-1 $354 $355 $356 $357 reversed $147 $-1 #
coedge $-1 $358 $149 $151 $249 forward $93 $-1 #
coedge $-1 $149 $358 $354 $359 forward $93 $-1 #
coedge $-1 $356 $152 $149 $246 forward $240 $-1 #
edge $-1 $252 -0.095402642020518513 $360 11.409738150584763 $245 $361 forward 7 unknown #
coedge $-1 $362 $363 $150 $248 forward $352 $-1 #
edge $-1 $364 -93.198788080429054 $251 -84.85334924367281 $247 $365 forward 7 unknown #
edge $-1 $252 120.84392307527389 $364 132.44544816431161 $151 $366 forward 7 unknown #
coedge $-1 $152 $356 $362 $367 forward $240 $-1 #
vertex $-1 $248 $368 #
vertex $-1 $153 $369 #
straight-curve $-1 34.745834672543765 -5.5617651122616039 9.2254840719386095 -1 0 0 I I #
coedge $-1 $254 $254 $-1 $370 reversed $156 $-1 #
edge $-1 $371 0 $371 6.2831853071796004 $157 $372 forward 7 unknown #
vertex $-1 $160 $373 #
ellipse-curve $-1 62.193175875050819 -13.779722821265377 5.052764653560482 0.71933980857756763 0 0.69465836192734942 0.69465836192734942 0 -0.71933980857756763 1 I I #
coedge $-1 $258 $258 $-1 $374 reversed $163 $-1 #
edge $-1 $375 0 $375 6.2831853071796004 $164 $376 forward 7 unknown #
vertex $-1 $167 $377 #
ellipse-curve $-1 62.193175875050819 -8.8489481958631124 5.052764653560482 0.71933980857756763 0 0.69465836192734942 0.69465836192734942 0 -0.71933980857756763 1 I I #
face $-1 $-1 $274 $37 $-1 $378 forward single #
loop $-1 $-1 $379 $168 #
plane-surface $-1 66.222724082155821 0 0 -1 0 0 0 0 1 forward_v I I I I #
coedge $-1 $380 $381 $382 $383 reversed $169 $-1 #
coedge $-1 $384 $171 $173 $272 forward $107 $-1 #
coedge $-1 $171 $384 $380 $385 forward $107 $-1 #
coedge $-1 $382 $174 $171 $269 forward $274 $-1 #
edge $-1 $276 -18.125214798932181 $386 -6.6200740063268988 $268 $387 forward 7 unknown #
coedge $-1 $388 $389 $172 $271 forward $263 $-1 #
edge $-1 $390 -93.198788080429054 $275 -84.85334924367281 $270 $391 forward 7 unknown #
edge $-1 $276 120.84392307527389 $390 132.44544816431161 $173 $392 forward 7 unknown #
coedge $-1 $174 $382 $388 $393 forward $274 $-1 #
loop $-1 $-1 $382 $262 #
vertex $-1 $271 $394 #
vertex $-1 $175 $395 #
straight-curve $-1 34.745834672543765 30.49785920156172 9.2254840719386095 -1 0 0 I I #
coedge $-1 $278 $278 $-1 $396 reversed $178 $-1 #
edge $-1 $397 0 $397 6.2831853071796004 $179 $398 forward 7 unknown #
vertex $-1 $182 $399 #
ellipse-curve $-1 62.193175875050819 22.27990149255794 5.052764653560482 0.71933980857756763 0 0.69465836192734942 0.69465836192734942 0 -0.71933980857756763 1 I I #
coedge $-1 $282 $282 $-1 $400 reversed $185 $-1 #
edge $-1 $401 0 $401 6.2831853071796004 $186 $402 forward 7 unknown #
vertex $-1 $189 $403 #
ellipse-curve $-1 62.193175875050819 27.210676117960205 5.052764653560482 0.71933980857756763 0 0.69465836192734942 0.69465836192734942 0 -0.71933980857756763 1 I I #
face $-1 $-1 $298 $40 $-1 $404 forward single #
loop $-1 $-1 $405 $190 #
plane-surface $-1 -66.222724082155821 0 0 1 0 0 0 0 -1 forward_v I I I I #
coedge $-1 $406 $407 $408 $409 reversed $191 $-1 #
coedge $-1 $410 $193 $195 $296 forward $121 $-1 #
coedge $-1 $193 $410 $406 $411 forward $121 $-1 #
coedge $-1 $408 $196 $193 $293 forward $298 $-1 #
edge $-1 $300 -18.073661467946462 $412 -7.6084799324157721 $292 $413 forward 7 unknown #
coedge $-1 $414 $415 $194 $295 forward $287 $-1 #
edge $-1 $416 -44.153912301699918 $299 -40.273677074022956 $294 $417 forward 7 unknown #
edge $-1 $300 -5.4874812205098484 $416 -2.0097183471152325e-014 $195 $418 forward 7 unknown #
coedge $-1 $196 $408 $414 $419 forward $298 $-1 #
loop $-1 $-1 $408 $286 #
vertex $-1 $295 $420 #
vertex $-1 $197 $421 #
straight-curve $-1 -79.937899851523298 -30.914732168127578 9.2254840719386095 1 0 0 I I #
coedge $-1 $302 $302 $-1 $422 reversed $200 $-1 #
edge $-1 $423 0 $423 6.2831853071796004 $201 $424 forward 7 unknown #
vertex $-1 $204 $425 #
ellipse-curve $-1 -64.282606513337967 -25.68214140036223 7.2853664581001265 -0.70710678939079041 0 0.70710677298230451 0.70710677298230451 0 0.70710678939079041 1 I I #
face $-1 $-1 $426 $42 $-1 $427 reversed single #
loop $-1 $-1 $211 $205 #
plane-surface $-1 0 0 9.225484071938606 0 0 1 1 0 0 forward_v I I I I #
coedge $-1 $428 $429 $430 $431 reversed $206 $-1 #
coedge $-1 $432 $208 $210 $316 forward $130 $-1 #
coedge $-1 $208 $432 $428 $433 forward $130 $-1 #
coedge $-1 $430 $211 $208 $313 forward $307 $-1 #
edge $-1 $319 -0.043849311034803051 $434 10.42133222449589 $312 $435 forward 7 unknown #
coedge $-1 $436 $437 $209 $315 forward $426 $-1 #
edge $-1 $438 -44.153912301699918 $318 -40.273677074022956 $314 $439 forward 7 unknown #
edge $-1 $319 -5.4874812205098484 $438 -2.0097183471152325e-014 $210 $440 forward 7 unknown #
coedge $-1 $211 $430 $436 $441 forward $307 $-1 #
vertex $-1 $212 $442 #
vertex $-1 $212 $443 #
straight-curve $-1 -79.937899851523298 5.1448921456957404 9.2254840719386095 1 0 0 I I #
coedge $-1 $321 $321 $-1 $444 reversed $215 $-1 #
edge $-1 $445 0 $445 6.2831853071796004 $216 $446 forward 7 unknown #
vertex $-1 $219 $447 #
ellipse-curve $-1 -64.282606513337967 10.377482913461094 7.2853664581001265 -0.70710678939079041 0 0.70710677298230451 0.70710677298230451 0 0.70710678939079041 1 I I #
face $-1 $-1 $235 $33 $-1 $448 reversed single #
loop $-1 $-1 $341 $220 #
plane-surface $-1 0 36.059624313823321 0 0 -1 0 0 0 -1 forward_v I I I I #
coedge $-1 $449 $339 $342 $450 forward $221 $-1 #
coedge $-1 $345 $223 $224 $333 reversed $139 $-1 #
coedge $-1 $339 $449 $223 $331 reversed $221 $-1 #
edge $-1 $346 -9.225484071938606 $451 9.225484071938606 $330 $452 forward 7 unknown #
coedge $-1 $225 $224 $449 $453 forward $89 $-1 #
edge $-1 $337 -66.222724082155821 $451 66.222724082155821 $329 $454 forward 7 unknown #
coedge $-1 $342 $341 $225 $335 reversed $326 $-1 #
edge $-1 $455 -66.222724082155821 $336 66.222724082155821 $334 $456 forward 7 unknown #
vertex $-1 $227 $457 #
vertex $-1 $348 $458 #
straight-curve $-1 66.222724082155821 0 -9.225484071938606 0 -1 0 I I #
coedge $-1 $328 $330 $228 $340 reversed $221 $-1 #
edge $-1 $343 -36.059624313823321 $346 36.059624313823321 $339 $459 forward 7 unknown #
coedge $-1 $334 $229 $234 $349 forward $326 $-1 #
coedge $-1 $229 $334 $328 $450 reversed $326 $-1 #
vertex $-1 $230 $460 #
straight-curve $-1 0 36.059624313823321 9.225484071938606 -1 0 0 I I #
coedge $-1 $231 $329 $233 $348 reversed $139 $-1 #
vertex $-1 $340 $461 #
straight-curve $-1 0 -36.059624313823321 9.225484071938606 1 0 0 I I #
edge $-1 $236 -9.225484071938606 $337 9.225484071938606 $233 $462 forward 7 unknown #
edge $-1 $237 -9.225484071938606 $336 9.225484071938606 $234 $463 forward 7 unknown #
point $-1 66.222724082155821 -36.059624313823321 9.225484071938606 #
point $-1 66.222724082155821 36.059624313823321 9.225484071938606 #
loop $-1 $-1 $247 $239 #
plane-surface $-1 66.222724082155821 0 0 -1 0 0 0 0 1 forward_v I I I I #
coedge $-1 $355 $242 $244 $359 reversed $147 $-1 #
coedge $-1 $242 $354 $464 $465 reversed $147 $-1 #
coedge $-1 $250 $245 $242 $357 forward $240 $-1 #
edge $-1 $360 23.417792995402053 $466 31.476889409612056 $356 $467 forward 7 unknown #
coedge $-1 $244 $243 $363 $468 reversed $93 $-1 #
edge $-1 $469 -132.44544816431161 $360 -120.84392307527389 $354 $470 forward 7 unknown #
vertex $-1 $246 $471 #
straight-curve $-1 58.163627667945818 -5.6571677542821224 9.2254840719386166 0 -1 0 I I #
coedge $-1 $464 $247 $250 $367 reversed $352 $-1 #
coedge $-1 $247 $464 $358 $468 forward $352 $-1 #
vertex $-1 $248 $472 #
straight-curve $-1 66.222724082155821 -5.5617651122616039 94.078833315611419 0 0 1 I I #
straight-curve $-1 -25.781613984398561 -5.5617651122616039 96.153328564668442 0.69465836192734942 0 -0.71933980857756763 I I #
edge $-1 $466 -17.066905904866886 $251 -5.5617651122616039 $362 $473 forward 7 unknown #
point $-1 66.222724082155821 -5.5617651122616039 9.225484071938606 #
point $-1 58.163627667945818 -5.5617651122616039 9.2254840719386095 #
edge $-1 $474 1 $474 0 $254 $-1 forward 7 unknown #
vertex $-1 $255 $475 #
ellipse-curve $-1 60.696298380990903 -13.779722821265377 3.607246894595173 0.71933980857756763 0 0.69465836192734942 0.69465836192734942 0 -0.71933980857756763 1 I I #
point $-1 62.887834236978172 -13.779722821265377 4.3334248449829147 #
edge $-1 $476 1 $476 0 $258 $-1 forward 7 unknown #
vertex $-1 $259 $477 #
ellipse-curve $-1 60.696298380990903 -8.8489481958631124 3.607246894595173 0.71933980857756763 0 0.69465836192734942 0.69465836192734942 0 -0.71933980857756763 1 I I #
point $-1 62.887834236978172 -8.8489481958631124 4.3334248449829147 #
plane-surface $-1 0 0 9.225484071938606 0 0 1 1 0 0 forward_v I I I I #
coedge $-1 $389 $388 $381 $478 forward $263 $-1 #
coedge $-1 $381 $265 $267 $385 reversed $169 $-1 #
coedge $-1 $265 $380 $379 $478 reversed $169 $-1 #
coedge $-1 $273 $268 $265 $383 forward $274 $-1 #
edge $-1 $386 23.417792995402053 $479 31.476889409612056 $382 $480 forward 7 unknown #
coedge $-1 $267 $266 $389 $481 reversed $107 $-1 #
edge $-1 $482 -132.44544816431161 $386 -120.84392307527389 $380 $483 forward 7 unknown #
vertex $-1 $269 $484 #
straight-curve $-1 58.163627667945818 12.37264440262954 9.2254840719386166 0 -1 0 I I #
coedge $-1 $379 $270 $273 $393 reversed $263 $-1 #
coedge $-1 $270 $379 $384 $481 forward $263 $-1 #
vertex $-1 $271 $485 #
straight-curve $-1 66.222724082155821 30.49785920156172 94.078833315611419 0 0 1 I I #
straight-curve $-1 -25.781613984398561 30.49785920156172 96.153328564668442 0.69465836192734942 0 -0.71933980857756763 I I #
edge $-1 $479 18.992718408956438 $275 30.49785920156172 $388 $486 forward 7 unknown #
point $-1 66.222724082155821 30.49785920156172 9.225484071938606 #
point $-1 58.163627667945818 30.49785920156172 9.2254840719386095 #
edge $-1 $487 1 $487 0 $278 $-1 forward 7 unknown #
vertex $-1 $279 $488 #
ellipse-curve $-1 60.696298380990903 22.27990149255794 3.607246894595173 0.71933980857756763 0 0.69465836192734942 0.69465836192734942 0 -0.71933980857756763 1 I I #
point $-1 62.887834236978172 22.27990149255794 4.3334248449829147 #
edge $-1 $489 1 $489 0 $282 $-1 forward 7 unknown #
vertex $-1 $283 $490 #
ellipse-curve $-1 60.696298380990903 27.210676117960205 3.607246894595173 0.71933980857756763 0 0.69465836192734942 0.69465836192734942 0 -0.71933980857756763 1 I I #
point $-1 62.887834236978172 27.210676117960205 4.3334248449829147 #
plane-surface $-1 0 0 9.225484071938606 0 0 1 1 0 0 forward_v I I I I #
coedge $-1 $415 $414 $407 $491 forward $287 $-1 #
coedge $-1 $407 $289 $291 $411 reversed $191 $-1 #
coedge $-1 $289 $406 $405 $491 reversed $191 $-1 #
coedge $-1 $297 $292 $289 $409 forward $298 $-1 #
edge $-1 $412 -17.595410907003178 $492 -13.715175769367477 $408 $493 forward 7 unknown #
coedge $-1 $291 $290 $415 $494 reversed $121 $-1 #
edge $-1 $495 2.0097183471152325e-014 $412 5.4874812205098484 $406 $496 forward 7 unknown #
vertex $-1 $293 $497 #
straight-curve $-1 -62.34248894452012 -12.841070700181117 9.2254840719386042 0 1 0 I I #
coedge $-1 $405 $294 $297 $419 reversed $287 $-1 #
coedge $-1 $294 $405 $410 $494 forward $287 $-1 #
vertex $-1 $295 $498 #
straight-curve $-1 -66.222724082155821 -30.914732168127578 49.499161145961565 0 0 1 I I #
straight-curve $-1 -66.222724082155835 -30.914732168127578 5.3452488442616328 -0.70710677298230451 0 -0.70710678939079041 I I #
edge $-1 $492 20.449550632596889 $299 30.914732168127578 $414 $499 forward 7 unknown #
point $-1 -66.222724082155821 -30.914732168127578 9.225484071938606 #
point $-1 -62.34248894452012 -30.914732168127578 9.225484071938606 #
edge $-1 $500 1 $500 0 $302 $-1 forward 7 unknown #
vertex $-1 $303 $501 #
ellipse-curve $-1 -63.025925804900105 -25.68214140036223 6.0286857788236654 -0.70710678939079041 0 0.70710677298230451 0.70710677298230451 0 0.70710678939079041 1 I I #
point $-1 -63.57549974035566 -25.68214140036223 7.9924732474909082 #
loop $-1 $-1 $314 $306 #
plane-surface $-1 -66.222724082155821 0 0 1 0 0 0 0 -1 forward_v I I I I #
coedge $-1 $429 $309 $311 $433 reversed $206 $-1 #
coedge $-1 $309 $428 $502 $503 reversed $206 $-1 #
coedge $-1 $317 $312 $309 $431 forward $307 $-1 #
edge $-1 $434 -17.595410907003178 $504 -13.715175769367477 $430 $505 forward 7 unknown #
coedge $-1 $311 $310 $437 $506 reversed $130 $-1 #
edge $-1 $507 2.0097183471152325e-014 $434 5.4874812205098484 $428 $508 forward 7 unknown #
vertex $-1 $313 $509 #
straight-curve $-1 -62.34248894452012 5.1887414567305434 9.2254840719386042 0 1 0 I I #
coedge $-1 $502 $314 $317 $441 reversed $426 $-1 #
coedge $-1 $314 $502 $432 $506 forward $426 $-1 #
vertex $-1 $315 $510 #
straight-curve $-1 -66.222724082155821 5.1448921456957404 49.499161145961565 0 0 1 I I #
straight-curve $-1 -66.222724082155835 5.1448921456957404 5.3452488442616328 -0.70710677298230451 0 -0.70710678939079041 I I #
edge $-1 $504 -15.610073681226433 $318 -5.1448921456957404 $436 $511 forward 7 unknown #
point $-1 -66.222724082155821 5.1448921456957404 9.225484071938606 #
point $-1 -62.34248894452012 5.1448921456957404 9.225484071938606 #
edge $-1 $512 1 $512 0 $321 $-1 forward 7 unknown #
vertex $-1 $322 $513 #
ellipse-curve $-1 -63.025925804900105 10.377482913461094 6.0286857788236654 -0.70710678939079041 0 0.70710677298230451 0.70710677298230451 0 0.70710678939079041 1 I I #
point $-1 -63.57549974035566 10.377482913461094 7.9924732474909082 #
plane-surface $-1 66.222724082155821 0 0 -1 0 0 0 0 1 forward_v I I I I #
coedge $-1 $330 $328 $332 $453 reversed $221 $-1 #
edge $-1 $343 -9.225484071938606 $455 9.225484071938606 $342 $514 forward 7 unknown #
vertex $-1 $453 $515 #
straight-curve $-1 -66.222724082155821 -36.059624313823321 0 0 0 -1 I I #
edge $-1 $451 -36.059624313823321 $455 36.059624313823321 $449 $516 forward 7 unknown #
straight-curve $-1 0 -36.059624313823321 -9.225484071938606 -1 0 0 I I #
vertex $-1 $335 $517 #
straight-curve $-1 0 36.059624313823321 -9.225484071938606 1 0 0 I I #
point $-1 66.222724082155821 36.059624313823321 -9.225484071938606 #
point $-1 66.222724082155821 -36.059624313823321 -9.225484071938606 #
straight-curve $-1 -66.222724082155821 0 9.225484071938606 0 -1 0 I I #
point $-1 -66.222724082155821 36.059624313823321 9.225484071938606 #
point $-1 -66.222724082155821 -36.059624313823321 9.225484071938606 #
straight-curve $-1 66.222724082155821 -36.059624313823321 0 0 0 -1 I I #
straight-curve $-1 66.222724082155821 36.059624313823321 0 0 0 -1 I I #
coedge $-1 $363 $362 $355 $465 forward $352 $-1 #
edge $-1 $466 84.85334924367281 $469 93.198788080429054 $464 $518 forward 7 unknown #
vertex $-1 $367 $519 #
straight-curve $-1 34.745834672543765 -17.066905904866886 9.2254840719386095 1 0 0 I I #
edge $-1 $469 -11.409738150584763 $364 0.095402642020518513 $363 $520 forward 7 unknown #
vertex $-1 $468 $521 #
straight-curve $-1 -25.781613984398561 -17.066905904866886 96.153328564668442 -0.69465836192734942 0 0.71933980857756763 I I #
point $-1 58.163627667945818 -17.066905904866886 9.2254840719386095 #
point $-1 66.222724082155807 -5.5617651122616039 0.8800452351823651 #
straight-curve $-1 66.222724082155821 0 9.225484071938606 0 1 0 I I #
vertex $-1 $370 $522 #
point $-1 61.390956742918249 -13.779722821265377 2.8879070860176057 #
vertex $-1 $374 $523 #
point $-1 61.390956742918249 -8.8489481958631124 2.8879070860176057 #
edge $-1 $479 84.85334924367281 $482 93.198788080429054 $379 $524 forward 7 unknown #
vertex $-1 $393 $525 #
straight-curve $-1 34.745834672543765 18.992718408956438 9.2254840719386095 1 0 0 I I #
edge $-1 $482 6.6200740063268988 $390 18.125214798932181 $389 $526 forward 7 unknown #
vertex $-1 $481 $527 #
straight-curve $-1 -25.781613984398561 18.992718408956438 96.153328564668442 -0.69465836192734942 0 0.71933980857756763 I I #
point $-1 58.163627667945818 18.992718408956438 9.2254840719386095 #
point $-1 66.222724082155807 30.49785920156172 0.8800452351823651 #
straight-curve $-1 66.222724082155821 0 9.225484071938606 0 1 0 I I #
vertex $-1 $396 $528 #
point $-1 61.390956742918249 22.27990149255794 2.8879070860176057 #
vertex $-1 $400 $529 #
point $-1 61.390956742918249 27.210676117960205 2.8879070860176057 #
edge $-1 $492 40.273677074022956 $495 44.153912301699918 $405 $530 forward 7 unknown #
vertex $-1 $419 $531 #
straight-curve $-1 -79.937899851523298 -20.449550632596889 9.2254840719386095 -1 0 0 I I #
edge $-1 $495 7.6084799324157721 $416 18.073661467946462 $415 $532 forward 7 unknown #
vertex $-1 $494 $533 #
straight-curve $-1 -66.222724082155835 -20.449550632596889 5.3452488442616328 0.70710677298230451 0 0.70710678939079041 I I #
point $-1 -62.34248894452012 -20.449550632596889 9.225484071938606 #
point $-1 -66.222724082155821 -30.914732168127578 5.345248844261647 #
straight-curve $-1 -66.222724082155821 0 9.225484071938606 0 -1 0 I I #
vertex $-1 $422 $534 #
point $-1 -62.318819031917798 -25.68214140036223 6.735792568214455 #
coedge $-1 $437 $436 $429 $503 forward $426 $-1 #
edge $-1 $504 40.273677074022956 $507 44.153912301699918 $502 $535 forward 7 unknown #
vertex $-1 $441 $536 #
straight-curve $-1 -79.937899851523298 15.610073681226433 9.2254840719386095 -1 0 0 I I #
edge $-1 $507 -10.42133222449589 $438 0.043849311034803051 $437 $537 forward 7 unknown #
vertex $-1 $506 $538 #
straight-curve $-1 -66.222724082155835 15.610073681226433 5.3452488442616328 0.70710677298230451 0 0.70710678939079041 I I #
point $-1 -62.34248894452012 15.610073681226433 9.225484071938606 #
point $-1 -66.222724082155821 5.1448921456957404 5.345248844261647 #
straight-curve $-1 -66.222724082155821 0 9.225484071938606 0 -1 0 I I #
vertex $-1 $444 $539 #
point $-1 -62.318819031917798 10.377482913461094 6.735792568214455 #
straight-curve $-1 -66.222724082155821 36.059624313823321 0 0 0 -1 I I #
point $-1 -66.222724082155821 -36.059624313823321 -9.225484071938606 #
straight-curve $-1 -66.222724082155821 0 -9.225484071938606 0 1 0 I I #
point $-1 -66.222724082155821 36.059624313823321 -9.225484071938606 #
straight-curve $-1 66.222724082155821 -17.066905904866886 94.078833315611419 0 0 -1 I I #
point $-1 66.222724082155821 -17.066905904866886 9.225484071938606 #
straight-curve $-1 66.222724082155821 -5.6571677542821224 0.8800452351823651 0 1 0 I I #
point $-1 66.222724082155807 -17.066905904866886 0.8800452351823651 #
point $-1 59.976958572413331 -13.779722821265377 2.912588532667824 #
point $-1 59.976958572413331 -8.8489481958631124 2.912588532667824 #
straight-curve $-1 66.222724082155821 18.992718408956438 94.078833315611419 0 0 -1 I I #
point $-1 66.222724082155821 18.992718408956438 9.225484071938606 #
straight-curve $-1 66.222724082155821 12.37264440262954 0.8800452351823651 0 1 0 I I #
point $-1 66.222724082155807 18.992718408956438 0.8800452351823651 #
point $-1 59.976958572413331 22.27990149255794 2.912588532667824 #
point $-1 59.976958572413331 27.210676117960205 2.912588532667824 #
straight-curve $-1 -66.222724082155821 -20.449550632596889 49.499161145961565 0 0 -1 I I #
point $-1 -66.222724082155821 -20.449550632596889 9.225484071938606 #
straight-curve $-1 -66.222724082155821 -12.841070700181117 5.3452488442616328 0 -1 0 I I #
point $-1 -66.222724082155821 -20.449550632596889 5.345248844261647 #
point $-1 -62.318819015509312 -25.68214140036223 5.3215790058413601 #
straight-curve $-1 -66.222724082155821 15.610073681226433 49.499161145961565 0 0 -1 I I #
point $-1 -66.222724082155821 15.610073681226433 9.225484071938606 #
straight-curve $-1 -66.222724082155821 5.1887414567305434 5.3452488442616328 0 -1 0 I I #
point $-1 -66.222724082155821 15.610073681226433 5.345248844261647 #
point $-1 -62.318819015509312 10.377482913461094 5.3215790058413601 #
End-of-ACIS-data 