500 0 21 0           
7 Unknown 11 ACIS 5.0 NT 24 Fri Mar 26 20:11:37 1999 
-1 9.9999999999999995e-007 1e-010 
body $-1 $21 $-1 $22 #
body $-1 $23 $-1 $24 #
body $-1 $25 $-1 $26 #
body $-1 $27 $-1 $28 #
body $-1 $29 $-1 $30 #
body $-1 $31 $-1 $32 #
body $-1 $33 $-1 $34 #
body $-1 $35 $-1 $36 #
body $-1 $37 $-1 $38 #
body $-1 $39 $-1 $40 #
body $-1 $41 $-1 $42 #
body $-1 $43 $-1 $44 #
body $-1 $45 $-1 $46 #
body $-1 $47 $-1 $48 #
body $-1 $49 $-1 $50 #
body $-1 $51 $-1 $52 #
body $-1 $53 $-1 $54 #
body $-1 $55 $-1 $56 #
body $-1 $57 $-1 $58 #
body $-1 $59 $-1 $60 #
body $-1 $61 $-1 $62 #
lump $-1 $-1 $63 $0 #
transform $-1 1 0 0 0 1 0 0 0 1 51.704458754234444 27.409974720974766 11.729983536023093 1 rotate no_reflect no_shear #
lump $-1 $-1 $64 $1 #
transform $-1 1 0 0 0 1 0 0 0 1 51.704458754234444 27.409974720974766 11.729983536023093 1 rotate no_reflect no_shear #
lump $-1 $-1 $65 $2 #
transform $-1 1 0 0 0 1 0 0 0 1 51.704458754234444 27.409974720974766 11.729983536023093 1 rotate no_reflect no_shear #
lump $-1 $-1 $66 $3 #
transform $-1 1 0 0 0 1 0 0 0 1 51.704458754234444 27.409974720974766 11.729983536023093 1 rotate no_reflect no_shear #
lump $-1 $-1 $67 $4 #
transform $-1 1 0 0 0 1 0 0 0 1 51.704458754234444 27.409974720974766 11.729983536023093 1 rotate no_reflect no_shear #
lump $-1 $-1 $68 $5 #
transform $-1 1 0 0 0 1 0 0 0 1 51.704458754234444 27.409974720974766 11.729983536023093 1 rotate no_reflect no_shear #
lump $-1 $-1 $69 $6 #
transform $-1 1 0 0 0 1 0 0 0 1 51.704458754234444 27.409974720974766 11.729983536023093 1 rotate no_reflect no_shear #
lump $-1 $-1 $70 $7 #
transform $-1 1 0 0 0 1 0 0 0 1 51.704458754234444 27.409974720974766 11.729983536023093 1 rotate no_reflect no_shear #
lump $-1 $-1 $71 $8 #
transform $-1 1 0 0 0 1 0 0 0 1 51.704458754234444 27.409974720974766 11.729983536023093 1 rotate no_reflect no_shear #
lump $-1 $-1 $72 $9 #
transform $-1 1 0 0 0 1 0 0 0 1 51.704458754234444 27.409974720974766 11.729983536023093 1 rotate no_reflect no_shear #
lump $-1 $-1 $73 $10 #
transform $-1 1 0 0 0 1 0 0 0 1 51.704458754234444 27.409974720974766 11.729983536023093 1 rotate no_reflect no_shear #
lump $-1 $-1 $74 $11 #
transform $-1 1 0 0 0 1 0 0 0 1 51.704458754234444 27.409974720974766 11.729983536023093 1 rotate no_reflect no_shear #
lump $-1 $-1 $75 $12 #
transform $-1 1 0 0 0 1 0 0 0 1 51.704458754234444 27.409974720974766 11.729983536023093 1 rotate no_reflect no_shear #
lump $-1 $-1 $76 $13 #
transform $-1 1 0 0 0 1 0 0 0 1 51.704458754234444 27.409974720974766 11.729983536023093 1 rotate no_reflect no_shear #
lump $-1 $-1 $77 $14 #
transform $-1 1 0 0 0 1 0 0 0 1 51.704458754234444 27.409974720974766 11.729983536023093 1 rotate no_reflect no_shear #
lump $-1 $-1 $78 $15 #
transform $-1 1 0 0 0 1 0 0 0 1 51.704458754234444 27.409974720974766 11.729983536023093 1 rotate no_reflect no_shear #
lump $-1 $-1 $79 $16 #
transform $-1 1 0 0 0 1 0 0 0 1 51.704458754234444 27.409974720974766 11.729983536023093 1 rotate no_reflect no_shear #
lump $-1 $-1 $80 $17 #
transform $-1 1 0 0 0 1 0 0 0 1 51.704458754234444 27.409974720974766 11.729983536023093 1 rotate no_reflect no_shear #
lump $-1 $-1 $81 $18 #
transform $-1 1 0 0 0 1 0 0 0 1 51.704458754234444 27.409974720974766 11.729983536023093 1 rotate no_reflect no_shear #
lump $-1 $-1 $82 $19 #
transform $-1 1 0 0 0 1 0 0 0 1 51.704458754234444 27.409974720974766 11.729983536023093 1 rotate no_reflect no_shear #
lump $-1 $-1 $83 $20 #
transform $-1 1 0 0 0 1 0 0 0 1 51.704458754234444 27.409974720974766 11.729983536023093 1 rotate no_reflect no_shear #
shell $-1 $-1 $-1 $84 $-1 $21 #
shell $-1 $-1 $-1 $85 $-1 $23 #
shell $-1 $-1 $-1 $86 $-1 $25 #
shell $-1 $-1 $-1 $87 $-1 $27 #
shell $-1 $-1 $-1 $88 $-1 $29 #
shell $-1 $-1 $-1 $89 $-1 $31 #
shell $-1 $-1 $-1 $90 $-1 $33 #
shell $-1 $-1 $-1 $91 $-1 $35 #
shell $-1 $-1 $-1 $92 $-1 $37 #
shell $-1 $-1 $-1 $93 $-1 $39 #
shell $-1 $-1 $-1 $94 $-1 $41 #
shell $-1 $-1 $-1 $95 $-1 $43 #
shell $-1 $-1 $-1 $96 $-1 $45 #
shell $-1 $-1 $-1 $97 $-1 $47 #
shell $-1 $-1 $-1 $98 $-1 $49 #
shell $-1 $-1 $-1 $99 $-1 $51 #
shell $-1 $-1 $-1 $100 $-1 $53 #
shell $-1 $-1 $-1 $101 $-1 $55 #
shell $-1 $-1 $-1 $102 $-1 $57 #
shell $-1 $-1 $-1 $103 $-1 $59 #
shell $-1 $-1 $-1 $104 $-1 $61 #
face $-1 $105 $106 $63 $-1 $107 forward single #
face $-1 $108 $109 $64 $-1 $110 forward single #
face $-1 $111 $112 $65 $-1 $113 reversed single #
face $-1 $114 $115 $66 $-1 $116 forward single #
face $-1 $117 $118 $67 $-1 $119 forward single #
face $-1 $120 $121 $68 $-1 $122 reversed single #
face $-1 $123 $124 $69 $-1 $125 forward single #
face $-1 $126 $127 $70 $-1 $128 forward single #
face $-1 $129 $130 $71 $-1 $131 forward single #
face $-1 $132 $133 $72 $-1 $134 reversed single #
face $-1 $135 $136 $73 $-1 $137 forward single #
face $-1 $138 $139 $74 $-1 $140 forward single #
face $-1 $141 $142 $75 $-1 $143 forward single #
face $-1 $144 $145 $76 $-1 $146 reversed single #
face $-1 $147 $148 $77 $-1 $149 forward single #
face $-1 $150 $151 $78 $-1 $152 forward single #
face $-1 $153 $154 $79 $-1 $155 forward single #
face $-1 $156 $157 $80 $-1 $158 reversed single #
face $-1 $159 $160 $81 $-1 $161 forward single #
face $-1 $162 $163 $82 $-1 $164 forward single #
face $-1 $165 $166 $83 $-1 $167 forward single #
face $-1 $168 $169 $63 $-1 $170 reversed single #
loop $-1 $-1 $171 $84 #
plane-surface $-1 0 0 11.729983536023093 0 0 1 1 0 0 forward_v I I I I #
face $-1 $172 $173 $64 $-1 $174 reversed single #
loop $-1 $-1 $175 $85 #
plane-surface $-1 -46.272660536958135 0 -5.8952412143689781 0 0 1 1 0 0 forward_v I I I I #
face $-1 $176 $177 $65 $-1 $178 reversed single #
loop $-1 $-1 $179 $86 #
plane-surface $-1 -40.840862319681825 -108.89731459005881 72.088745586608994 1 0 0 0 0.78801076186113728 -0.61566146476048833 forward_v I I I I #
face $-1 $180 $181 $66 $-1 $182 forward single #
loop $-1 $183 $184 $87 #
cone-surface $-1 -34.161769957621587 -25.72445596261667 9.7690910176555654 0 0.78801076186113728 -0.61566146476048833 0.25 0 0 1 I I 0 1 0.25 forward I I I I #
face $-1 $185 $186 $67 $-1 $187 forward single #
loop $-1 $188 $189 $88 #
cone-surface $-1 -24.143131414531226 -25.72445596261667 9.7690910176555654 0 0.78801076186113728 -0.61566146476048833 0.25 0 0 1 I I 0 1 0.25 forward I I I I #
face $-1 $190 $191 $68 $-1 $192 reversed single #
loop $-1 $-1 $193 $89 #
plane-surface $-1 -27.284428732333673 65.651355043593355 114.79291424848441 1 0 0 0 -0.73135370988377701 -0.68199835119979291 forward_v I I I I #
face $-1 $194 $195 $69 $-1 $196 forward single #
loop $-1 $197 $198 $90 #
cone-surface $-1 -25.36844939610749 23.368966856768996 7.4690667764357315 0 -0.73135370988377701 -0.68199835119979291 0.5 0 0 1 I I 0 1 0.5 forward I I I I #
face $-1 $199 $200 $70 $-1 $201 forward single #
loop $-1 $202 $203 $91 #
cone-surface $-1 -22.494480391768217 23.368966856768996 7.4690667764357315 0 -0.73135370988377701 -0.68199835119979291 0.5 0 0 1 I I 0 1 0.5 forward I I I I #
face $-1 $204 $205 $71 $-1 $206 forward single #
loop $-1 $207 $208 $92 #
cone-surface $-1 -19.620511387428941 23.368966856768996 7.4690667764357315 0 -0.73135370988377701 -0.68199835119979291 0.5 0 0 1 I I 0 1 0.5 forward I I I I #
face $-1 $209 $210 $72 $-1 $211 reversed single #
loop $-1 $-1 $212 $93 #
plane-surface $-1 -4.1480984638546055 65.651355043593355 114.79291424848441 1 0 0 0 -0.73135370988377701 -0.68199835119979291 forward_v I I I I #
face $-1 $213 $214 $73 $-1 $215 forward single #
loop $-1 $216 $217 $94 #
cone-surface $-1 -2.2321191276284225 23.368966856768996 7.4690667764357315 0 -0.73135370988377701 -0.68199835119979291 0.5 0 0 1 I I 0 1 0.5 forward I I I I #
face $-1 $218 $219 $74 $-1 $220 forward single #
loop $-1 $221 $222 $95 #
cone-surface $-1 0.64184987671085025 23.368966856768996 7.4690667764357315 0 -0.73135370988377701 -0.68199835119979291 0.5 0 0 1 I I 0 1 0.5 forward I I I I #
face $-1 $223 $224 $75 $-1 $225 forward single #
loop $-1 $226 $227 $96 #
cone-surface $-1 3.5158188810501301 23.368966856768996 7.4690667764357315 0 -0.73135370988377701 -0.68199835119979291 0.5 0 0 1 I I 0 1 0.5 forward I I I I #
face $-1 $228 $229 $76 $-1 $230 reversed single #
loop $-1 $-1 $231 $97 #
plane-surface $-1 18.988231804624458 65.651355043593355 114.79291424848441 1 0 0 0 -0.73135370988377701 -0.68199835119979291 forward_v I I I I #
face $-1 $232 $233 $77 $-1 $234 forward single #
loop $-1 $235 $236 $98 #
cone-surface $-1 20.904211140850641 23.368966856768996 7.4690667764357315 0 -0.73135370988377701 -0.68199835119979291 0.5 0 0 1 I I 0 1 0.5 forward I I I I #
face $-1 $237 $238 $78 $-1 $239 forward single #
loop $-1 $240 $241 $99 #
cone-surface $-1 23.778180145189914 23.368966856768996 7.4690667764357315 0 -0.73135370988377701 -0.68199835119979291 0.5 0 0 1 I I 0 1 0.5 forward I I I I #
face $-1 $242 $243 $79 $-1 $244 forward single #
loop $-1 $245 $246 $100 #
cone-surface $-1 26.652149149529201 23.368966856768996 7.4690667764357315 0 -0.73135370988377701 -0.68199835119979291 0.5 0 0 1 I I 0 1 0.5 forward I I I I #
face $-1 $247 $248 $80 $-1 $249 reversed single #
loop $-1 $-1 $250 $101 #
plane-surface $-1 42.124562073103533 65.651355043593355 114.79291424848441 1 0 0 0 -0.73135370988377701 -0.68199835119979291 forward_v I I I I #
face $-1 $251 $252 $81 $-1 $253 forward single #
loop $-1 $254 $255 $102 #
cone-surface $-1 44.040541409329713 23.368966856768996 7.4690667764357315 0 -0.73135370988377701 -0.68199835119979291 0.5 0 0 1 I I 0 1 0.5 forward I I I I #
face $-1 $256 $257 $82 $-1 $258 forward single #
loop $-1 $259 $260 $103 #
cone-surface $-1 46.914510413668985 23.368966856768996 7.4690667764357315 0 -0.73135370988377701 -0.68199835119979291 0.5 0 0 1 I I 0 1 0.5 forward I I I I #
face $-1 $261 $262 $83 $-1 $263 forward single #
loop $-1 $264 $265 $104 #
cone-surface $-1 49.788479418008272 23.368966856768996 7.4690667764357315 0 -0.73135370988377701 -0.68199835119979291 0.5 0 0 1 I I 0 1 0.5 forward I I I I #
face $-1 $266 $267 $63 $-1 $268 reversed single #
loop $-1 $-1 $269 $105 #
plane-surface $-1 0 0 -11.729983536023093 0 0 1 1 0 0 forward_v I I I I #
coedge $-1 $270 $271 $272 $273 forward $106 $-1 #
face $-1 $274 $275 $64 $-1 $276 reversed single #
loop $-1 $-1 $277 $108 #
plane-surface $-1 -40.840862319681825 0 -8.8126123751960357 -1 0 0 0 0 1 forward_v I I I I #
coedge $-1 $278 $279 $280 $281 forward $109 $-1 #
face $-1 $282 $283 $65 $-1 $284 reversed single #
loop $-1 $-1 $285 $111 #
plane-surface $-1 -29.152450686076406 -27.409974720974745 8.4238599640485319 0 -0.78801076186113728 0.61566146476048833 1 0 0 forward_v I I I I #
coedge $-1 $286 $287 $288 $289 reversed $112 $-1 #
face $-1 $-1 $290 $66 $-1 $291 forward single #
loop $-1 $292 $293 $114 #
cone-surface $-1 -34.161769957621587 -25.23194923645346 9.3843026021802611 0 0.78801076186113728 -0.61566146476048833 0.125 0 0 1 I I -0.70710678118654746 0.70710678118654746 0.125 forward I I I I #
loop $-1 $-1 $294 $87 #
coedge $-1 $184 $184 $295 $296 reversed $115 $-1 #
face $-1 $-1 $297 $67 $-1 $298 forward single #
loop $-1 $299 $300 $117 #
cone-surface $-1 -24.143131414531226 -25.23194923645346 9.3843026021802611 0 0.78801076186113728 -0.61566146476048833 0.125 0 0 1 I I -0.70710678118654746 0.70710678118654746 0.125 forward I I I I #
loop $-1 $-1 $301 $88 #
coedge $-1 $189 $189 $302 $303 reversed $118 $-1 #
face $-1 $304 $305 $68 $-1 $306 reversed single #
loop $-1 $-1 $307 $120 #
plane-surface $-1 -22.494480391768217 -9.9771404112908328 44.268203008353225 0 0.73135370988377701 0.68199835119979291 1 0 0 forward_v I I I I #
coedge $-1 $308 $309 $310 $311 reversed $121 $-1 #
face $-1 $-1 $312 $69 $-1 $313 forward single #
loop $-1 $314 $315 $123 #
cone-surface $-1 -25.36844939610749 22.667488232815558 6.814927392888789 0 -0.73135370988377701 -0.68199835119979291 0.25 0 0 1 I I -0.70710678118654746 0.70710678118654746 0.25 forward I I I I #
loop $-1 $-1 $316 $90 #
coedge $-1 $198 $198 $317 $318 reversed $124 $-1 #
face $-1 $-1 $319 $70 $-1 $320 forward single #
loop $-1 $321 $322 $126 #
cone-surface $-1 -22.494480391768217 22.667488232815558 6.814927392888789 0 -0.73135370988377701 -0.68199835119979291 0.25 0 0 1 I I -0.70710678118654746 0.70710678118654746 0.25 forward I I I I #
loop $-1 $-1 $323 $91 #
coedge $-1 $203 $203 $324 $325 reversed $127 $-1 #
face $-1 $-1 $326 $71 $-1 $327 forward single #
loop $-1 $328 $329 $129 #
cone-surface $-1 -19.620511387428941 22.667488232815558 6.814927392888789 0 -0.73135370988377701 -0.68199835119979291 0.25 0 0 1 I I -0.70710678118654746 0.70710678118654746 0.25 forward I I I I #
loop $-1 $-1 $330 $92 #
coedge $-1 $208 $208 $331 $332 reversed $130 $-1 #
face $-1 $333 $334 $72 $-1 $335 reversed single #
loop $-1 $-1 $336 $132 #
plane-surface $-1 0.64184987671085025 -9.9771404112908328 44.268203008353225 0 0.73135370988377701 0.68199835119979291 1 0 0 forward_v I I I I #
coedge $-1 $337 $338 $339 $340 reversed $133 $-1 #
face $-1 $-1 $341 $73 $-1 $342 forward single #
loop $-1 $343 $344 $135 #
cone-surface $-1 -2.2321191276284225 22.667488232815558 6.814927392888789 0 -0.73135370988377701 -0.68199835119979291 0.25 0 0 1 I I -0.70710678118654746 0.70710678118654746 0.25 forward I I I I #
loop $-1 $-1 $345 $94 #
coedge $-1 $217 $217 $346 $347 reversed $136 $-1 #
face $-1 $-1 $348 $74 $-1 $349 forward single #
loop $-1 $350 $351 $138 #
cone-surface $-1 0.64184987671085025 22.667488232815558 6.814927392888789 0 -0.73135370988377701 -0.68199835119979291 0.25 0 0 1 I I -0.70710678118654746 0.70710678118654746 0.25 forward I I I I #
loop $-1 $-1 $352 $95 #
coedge $-1 $222 $222 $353 $354 reversed $139 $-1 #
face $-1 $-1 $355 $75 $-1 $356 forward single #
loop $-1 $357 $358 $141 #
cone-surface $-1 3.5158188810501301 22.667488232815558 6.814927392888789 0 -0.73135370988377701 -0.68199835119979291 0.25 0 0 1 I I -0.70710678118654746 0.70710678118654746 0.25 forward I I I I #
loop $-1 $-1 $359 $96 #
coedge $-1 $227 $227 $360 $361 reversed $142 $-1 #
face $-1 $362 $363 $76 $-1 $364 reversed single #
loop $-1 $-1 $365 $144 #
plane-surface $-1 23.778180145189914 -9.9771404112908328 44.268203008353225 0 0.73135370988377701 0.68199835119979291 1 0 0 forward_v I I I I #
coedge $-1 $366 $367 $368 $369 reversed $145 $-1 #
face $-1 $-1 $370 $77 $-1 $371 forward single #
loop $-1 $372 $373 $147 #
cone-surface $-1 20.904211140850641 22.667488232815558 6.814927392888789 0 -0.73135370988377701 -0.68199835119979291 0.25 0 0 1 I I -0.70710678118654746 0.70710678118654746 0.25 forward I I I I #
loop $-1 $-1 $374 $98 #
coedge $-1 $236 $236 $375 $376 reversed $148 $-1 #
face $-1 $-1 $377 $78 $-1 $378 forward single #
loop $-1 $379 $380 $150 #
cone-surface $-1 23.778180145189914 22.667488232815558 6.814927392888789 0 -0.73135370988377701 -0.68199835119979291 0.25 0 0 1 I I -0.70710678118654746 0.70710678118654746 0.25 forward I I I I #
loop $-1 $-1 $381 $99 #
coedge $-1 $241 $241 $382 $383 reversed $151 $-1 #
face $-1 $-1 $384 $79 $-1 $385 forward single #
loop $-1 $386 $387 $153 #
cone-surface $-1 26.652149149529201 22.667488232815558 6.814927392888789 0 -0.73135370988377701 -0.68199835119979291 0.25 0 0 1 I I -0.70710678118654746 0.70710678118654746 0.25 forward I I I I #
loop $-1 $-1 $388 $100 #
coedge $-1 $246 $246 $389 $390 reversed $154 $-1 #
face $-1 $391 $392 $80 $-1 $393 forward single #
loop $-1 $-1 $394 $156 #
plane-surface $-1 46.914510413668985 -9.9771404112908328 44.268203008353225 0 0.73135370988377701 0.68199835119979291 1 0 0 forward_v I I I I #
coedge $-1 $395 $396 $397 $398 reversed $157 $-1 #
face $-1 $-1 $399 $81 $-1 $400 forward single #
loop $-1 $401 $402 $159 #
cone-surface $-1 44.040541409329713 22.667488232815558 6.814927392888789 0 -0.73135370988377701 -0.68199835119979291 0.25 0 0 1 I I -0.70710678118654746 0.70710678118654746 0.25 forward I I I I #
loop $-1 $-1 $403 $102 #
coedge $-1 $255 $255 $404 $405 reversed $160 $-1 #
face $-1 $-1 $406 $82 $-1 $407 forward single #
loop $-1 $408 $409 $162 #
cone-surface $-1 46.914510413668985 22.667488232815558 6.814927392888789 0 -0.73135370988377701 -0.68199835119979291 0.25 0 0 1 I I -0.70710678118654746 0.70710678118654746 0.25 forward I I I I #
loop $-1 $-1 $410 $103 #
coedge $-1 $260 $260 $411 $412 reversed $163 $-1 #
face $-1 $-1 $413 $83 $-1 $414 forward single #
loop $-1 $415 $416 $165 #
cone-surface $-1 49.788479418008272 22.667488232815558 6.814927392888789 0 -0.73135370988377701 -0.68199835119979291 0.25 0 0 1 I I -0.70710678118654746 0.70710678118654746 0.25 forward I I I I #
loop $-1 $-1 $417 $104 #
coedge $-1 $265 $265 $418 $419 reversed $166 $-1 #
face $-1 $420 $421 $63 $-1 $422 reversed single #
loop $-1 $-1 $423 $168 #
plane-surface $-1 0 -27.409974720974766 0 0 1 0 0 0 1 forward_v I I I I #
coedge $-1 $424 $425 $426 $427 forward $169 $-1 #
coedge $-1 $428 $171 $429 $430 forward $106 $-1 #
coedge $-1 $171 $428 $431 $432 forward $106 $-1 #
coedge $-1 $433 $434 $171 $273 reversed $435 $-1 #
edge $-1 $436 -27.409974720974766 $437 27.409974720974766 $272 $438 forward 7 unknown #
face $-1 $439 $440 $64 $-1 $441 reversed single #
loop $-1 $-1 $442 $172 #
plane-surface $-1 0 0 -11.729983536023093 0 0 1 1 0 0 forward_v I I I I #
coedge $-1 $443 $280 $444 $445 reversed $173 $-1 #
coedge $-1 $446 $175 $447 $448 reversed $109 $-1 #
coedge $-1 $175 $446 $449 $450 reversed $109 $-1 #
coedge $-1 $277 $451 $175 $281 reversed $173 $-1 #
edge $-1 $452 -27.409974720974766 $453 27.409974720974766 $280 $454 forward 7 unknown #
face $-1 $455 $456 $65 $-1 $457 forward single #
loop $-1 $-1 $458 $176 #
plane-surface $-1 -17.464039052470987 -108.89731459005881 72.088745586608994 -1 0 0 0 -0.78801076186113728 0.61566146476048833 forward_v I I I I #
coedge $-1 $459 $460 $461 $462 reversed $177 $-1 #
coedge $-1 $287 $179 $463 $464 reversed $112 $-1 #
coedge $-1 $179 $286 $459 $465 reversed $112 $-1 #
coedge $-1 $461 $466 $179 $289 forward $467 $-1 #
edge $-1 $468 24.314389257281405 $469 27.620512829255993 $288 $470 forward 7 unknown #
loop $-1 $-1 $295 $180 #
plane-surface $-1 -29.152450686076406 -27.409974720974745 8.4238599640485319 0 -0.78801076186113728 0.61566146476048833 1 0 0 forward_v I I I I #
loop $-1 $-1 $471 $114 #
coedge $-1 $293 $293 $294 $472 reversed $181 $-1 #
coedge $-1 $294 $294 $293 $472 forward $183 $-1 #
coedge $-1 $295 $295 $184 $296 forward $290 $-1 #
edge $-1 $473 -1.4013831653662355e-015 $473 6.2831853071795987 $295 $474 forward 7 unknown #
loop $-1 $-1 $302 $185 #
plane-surface $-1 -29.152450686076406 -27.409974720974745 8.4238599640485319 0 -0.78801076186113728 0.61566146476048833 1 0 0 forward_v I I I I #
loop $-1 $-1 $475 $117 #
coedge $-1 $300 $300 $301 $476 reversed $186 $-1 #
coedge $-1 $301 $301 $300 $476 forward $188 $-1 #
coedge $-1 $302 $302 $189 $303 forward $297 $-1 #
edge $-1 $477 -1.4013831653662355e-015 $477 6.2831853071795987 $302 $478 forward 7 unknown #
face $-1 $479 $480 $68 $-1 $481 reversed single #
loop $-1 $-1 $482 $190 #
plane-surface $-1 -17.704532051202762 65.651355043593355 114.79291424848441 -1 0 0 0 0.73135370988377701 0.68199835119979291 forward_v I I I I #
coedge $-1 $483 $484 $485 $486 reversed $191 $-1 #
coedge $-1 $309 $193 $487 $488 reversed $121 $-1 #
coedge $-1 $193 $308 $483 $489 reversed $121 $-1 #
coedge $-1 $485 $490 $193 $311 forward $491 $-1 #
edge $-1 $492 5.4157028008219115 $493 12.460438136268504 $310 $494 forward 7 unknown #
loop $-1 $-1 $317 $194 #
plane-surface $-1 -22.494480391768217 -9.9771404112908328 44.268203008353225 0 0.73135370988377701 0.68199835119979291 1 0 0 forward_v I I I I #
loop $-1 $-1 $495 $123 #
coedge $-1 $315 $315 $316 $496 reversed $195 $-1 #
coedge $-1 $316 $316 $315 $496 forward $197 $-1 #
coedge $-1 $317 $317 $198 $318 forward $312 $-1 #
edge $-1 $497 -1.4027636633495638e-015 $497 6.2831853071795987 $317 $498 forward 7 unknown #
loop $-1 $-1 $324 $199 #
plane-surface $-1 -22.494480391768217 -9.9771404112908328 44.268203008353225 0 0.73135370988377701 0.68199835119979291 1 0 0 forward_v I I I I #
loop $-1 $-1 $499 $126 #
coedge $-1 $322 $322 $323 $500 reversed $200 $-1 #
coedge $-1 $323 $323 $322 $500 forward $202 $-1 #
coedge $-1 $324 $324 $203 $325 forward $319 $-1 #
edge $-1 $501 -1.4027636633495638e-015 $501 6.2831853071795987 $324 $502 forward 7 unknown #
loop $-1 $-1 $331 $204 #
plane-surface $-1 -22.494480391768217 -9.9771404112908328 44.268203008353225 0 0.73135370988377701 0.68199835119979291 1 0 0 forward_v I I I I #
loop $-1 $-1 $503 $129 #
coedge $-1 $329 $329 $330 $504 reversed $205 $-1 #
coedge $-1 $330 $330 $329 $504 forward $207 $-1 #
coedge $-1 $331 $331 $208 $332 forward $326 $-1 #
edge $-1 $505 -1.4027636633495638e-015 $505 6.2831853071795987 $331 $506 forward 7 unknown #
face $-1 $507 $508 $72 $-1 $509 forward single #
loop $-1 $-1 $510 $209 #
plane-surface $-1 5.431798217276306 65.651355043593355 114.79291424848441 -1 0 0 0 0.73135370988377701 0.68199835119979291 forward_v I I I I #
coedge $-1 $511 $512 $513 $514 reversed $210 $-1 #
coedge $-1 $338 $212 $515 $516 reversed $133 $-1 #
coedge $-1 $212 $337 $511 $517 reversed $133 $-1 #
coedge $-1 $513 $518 $212 $340 forward $508 $-1 #
edge $-1 $519 5.4157028008219115 $520 12.460438136268504 $339 $521 forward 7 unknown #
loop $-1 $-1 $346 $213 #
plane-surface $-1 0.64184987671085025 -9.9771404112908328 44.268203008353225 0 0.73135370988377701 0.68199835119979291 1 0 0 forward_v I I I I #
loop $-1 $-1 $522 $135 #
coedge $-1 $344 $344 $345 $523 reversed $214 $-1 #
coedge $-1 $345 $345 $344 $523 forward $216 $-1 #
coedge $-1 $346 $346 $217 $347 forward $341 $-1 #
edge $-1 $524 -1.4027636633495638e-015 $524 6.2831853071795987 $346 $525 forward 7 unknown #
loop $-1 $-1 $353 $218 #
plane-surface $-1 0.64184987671085025 -9.9771404112908328 44.268203008353225 0 0.73135370988377701 0.68199835119979291 1 0 0 forward_v I I I I #
loop $-1 $-1 $526 $138 #
coedge $-1 $351 $351 $352 $527 reversed $219 $-1 #
coedge $-1 $352 $352 $351 $527 forward $221 $-1 #
coedge $-1 $353 $353 $222 $354 forward $348 $-1 #
edge $-1 $528 -1.4027636633495638e-015 $528 6.2831853071795987 $353 $529 forward 7 unknown #
loop $-1 $-1 $360 $223 #
plane-surface $-1 0.64184987671085025 -9.9771404112908328 44.268203008353225 0 0.73135370988377701 0.68199835119979291 1 0 0 forward_v I I I I #
loop $-1 $-1 $530 $141 #
coedge $-1 $358 $358 $359 $531 reversed $224 $-1 #
coedge $-1 $359 $359 $358 $531 forward $226 $-1 #
coedge $-1 $360 $360 $227 $361 forward $355 $-1 #
edge $-1 $532 -1.4027636633495638e-015 $532 6.2831853071795987 $360 $533 forward 7 unknown #
face $-1 $534 $535 $76 $-1 $536 forward single #
loop $-1 $-1 $537 $228 #
plane-surface $-1 28.56812848575537 65.651355043593355 114.79291424848441 -1 0 0 0 0.73135370988377701 0.68199835119979291 forward_v I I I I #
coedge $-1 $538 $539 $540 $541 reversed $229 $-1 #
coedge $-1 $367 $231 $542 $543 reversed $145 $-1 #
coedge $-1 $231 $366 $538 $544 reversed $145 $-1 #
coedge $-1 $540 $545 $231 $369 forward $535 $-1 #
edge $-1 $546 5.4157028008219115 $547 12.460438136268504 $368 $548 forward 7 unknown #
loop $-1 $-1 $375 $232 #
plane-surface $-1 23.778180145189914 -9.9771404112908328 44.268203008353225 0 0.73135370988377701 0.68199835119979291 1 0 0 forward_v I I I I #
loop $-1 $-1 $549 $147 #
coedge $-1 $373 $373 $374 $550 reversed $233 $-1 #
coedge $-1 $374 $374 $373 $550 forward $235 $-1 #
coedge $-1 $375 $375 $236 $376 forward $370 $-1 #
edge $-1 $551 -1.4027636633495638e-015 $551 6.2831853071795987 $375 $552 forward 7 unknown #
loop $-1 $-1 $382 $237 #
plane-surface $-1 23.778180145189914 -9.9771404112908328 44.268203008353225 0 0.73135370988377701 0.68199835119979291 1 0 0 forward_v I I I I #
loop $-1 $-1 $553 $150 #
coedge $-1 $380 $380 $381 $554 reversed $238 $-1 #
coedge $-1 $381 $381 $380 $554 forward $240 $-1 #
coedge $-1 $382 $382 $241 $383 forward $377 $-1 #
edge $-1 $555 -1.4027636633495638e-015 $555 6.2831853071795987 $382 $556 forward 7 unknown #
loop $-1 $-1 $389 $242 #
plane-surface $-1 23.778180145189914 -9.9771404112908328 44.268203008353225 0 0.73135370988377701 0.68199835119979291 1 0 0 forward_v I I I I #
loop $-1 $-1 $557 $153 #
coedge $-1 $387 $387 $388 $558 reversed $243 $-1 #
coedge $-1 $388 $388 $387 $558 forward $245 $-1 #
coedge $-1 $389 $389 $246 $390 forward $384 $-1 #
edge $-1 $559 -1.4027636633495638e-015 $559 6.2831853071795987 $389 $560 forward 7 unknown #
face $-1 $561 $562 $80 $-1 $563 reversed single #
loop $-1 $-1 $397 $247 #
plane-surface $-1 0 0 11.729983536023093 0 0 1 1 0 0 forward_v I I I I #
coedge $-1 $564 $565 $566 $567 reversed $248 $-1 #
coedge $-1 $396 $250 $568 $569 reversed $157 $-1 #
coedge $-1 $250 $395 $564 $570 reversed $157 $-1 #
coedge $-1 $566 $571 $250 $398 forward $392 $-1 #
edge $-1 $572 5.4157028008219115 $573 12.460438136268504 $397 $574 forward 7 unknown #
loop $-1 $-1 $404 $251 #
plane-surface $-1 46.914510413668985 -9.9771404112908328 44.268203008353225 0 0.73135370988377701 0.68199835119979291 1 0 0 forward_v I I I I #
loop $-1 $-1 $575 $159 #
coedge $-1 $402 $402 $403 $576 reversed $252 $-1 #
coedge $-1 $403 $403 $402 $576 forward $254 $-1 #
coedge $-1 $404 $404 $255 $405 forward $399 $-1 #
edge $-1 $577 -1.4027636633495638e-015 $577 6.2831853071795987 $404 $578 forward 7 unknown #
loop $-1 $-1 $411 $256 #
plane-surface $-1 46.914510413668985 -9.9771404112908328 44.268203008353225 0 0.73135370988377701 0.68199835119979291 1 0 0 forward_v I I I I #
loop $-1 $-1 $579 $162 #
coedge $-1 $409 $409 $410 $580 reversed $257 $-1 #
coedge $-1 $410 $410 $409 $580 forward $259 $-1 #
coedge $-1 $411 $411 $260 $412 forward $406 $-1 #
edge $-1 $581 -1.4027636633495638e-015 $581 6.2831853071795987 $411 $582 forward 7 unknown #
loop $-1 $-1 $418 $261 #
plane-surface $-1 46.914510413668985 -9.9771404112908328 44.268203008353225 0 0.73135370988377701 0.68199835119979291 1 0 0 forward_v I I I I #
loop $-1 $-1 $583 $165 #
coedge $-1 $416 $416 $417 $584 reversed $262 $-1 #
coedge $-1 $417 $417 $416 $584 forward $264 $-1 #
coedge $-1 $418 $418 $265 $419 forward $413 $-1 #
edge $-1 $585 -1.4027636633495638e-015 $585 6.2831853071795987 $418 $586 forward 7 unknown #
face $-1 $587 $588 $63 $-1 $589 reversed single #
loop $-1 $-1 $590 $266 #
plane-surface $-1 -51.704458754234444 0 0 1 0 0 0 0 -1 forward_v I I I I #
coedge $-1 $591 $431 $592 $593 forward $267 $-1 #
coedge $-1 $594 $269 $591 $595 forward $169 $-1 #
coedge $-1 $269 $594 $596 $597 forward $169 $-1 #
coedge $-1 $434 $433 $269 $427 reversed $435 $-1 #
edge $-1 $598 -27.409974720974766 $599 27.409974720974766 $426 $600 forward 7 unknown #
coedge $-1 $271 $270 $601 $602 forward $106 $-1 #
coedge $-1 $603 $604 $270 $430 reversed $588 $-1 #
edge $-1 $437 -51.704458754234444 $605 51.704458754234444 $429 $606 forward 7 unknown #
coedge $-1 $423 $607 $271 $432 reversed $267 $-1 #
edge $-1 $608 -51.704458754234444 $436 51.704458754234444 $431 $609 forward 7 unknown #
coedge $-1 $426 $272 $607 $610 forward $435 $-1 #
coedge $-1 $272 $426 $603 $611 reversed $435 $-1 #
loop $-1 $-1 $433 $587 #
vertex $-1 $273 $612 #
vertex $-1 $273 $613 #
straight-curve $-1 51.704458754234444 0 11.729983536023093 0 1 0 I I #
face $-1 $614 $615 $64 $-1 $616 reversed single #
loop $-1 $-1 $444 $274 #
plane-surface $-1 0 -27.409974720974766 0 0 1 0 0 0 1 forward_v I I I I #
coedge $-1 $617 $618 $443 $619 forward $275 $-1 #
coedge $-1 $451 $277 $442 $619 reversed $173 $-1 #
coedge $-1 $449 $620 $277 $445 forward $440 $-1 #
edge $-1 $621 -7.3236773484250755 $452 -1.4889350267709602 $444 $622 forward 7 unknown #
coedge $-1 $279 $278 $623 $624 reversed $109 $-1 #
coedge $-1 $625 $626 $278 $448 forward $627 $-1 #
edge $-1 $628 -28.568128485755377 $453 -17.704532051202758 $447 $629 forward 7 unknown #
coedge $-1 $630 $444 $279 $450 forward $440 $-1 #
edge $-1 $452 17.704532051202758 $631 28.568128485755377 $449 $632 forward 7 unknown #
coedge $-1 $280 $443 $625 $633 reversed $173 $-1 #
vertex $-1 $450 $634 #
vertex $-1 $448 $635 #
straight-curve $-1 -40.840862319681825 0 -5.8952412143689781 0 1 0 I I #
face $-1 $-1 $467 $65 $-1 $636 reversed single #
loop $-1 $-1 $637 $282 #
plane-surface $-1 0 0 11.729983536023093 0 0 1 1 0 0 forward_v I I I I #
coedge $-1 $638 $639 $640 $641 reversed $283 $-1 #
coedge $-1 $642 $285 $287 $465 forward $177 $-1 #
coedge $-1 $285 $642 $638 $643 forward $177 $-1 #
coedge $-1 $640 $288 $285 $462 forward $467 $-1 #
edge $-1 $469 -26.264636976643622 $644 -2.887813709432784 $461 $645 forward 7 unknown #
coedge $-1 $646 $647 $286 $464 forward $456 $-1 #
edge $-1 $648 -29.62170932890972 $468 -27.03868257405464 $463 $649 forward 7 unknown #
edge $-1 $469 -3.4120438039485133e-014 $648 4.1955309901683346 $287 $650 forward 7 unknown #
coedge $-1 $288 $640 $646 $651 reversed $467 $-1 #
loop $-1 $-1 $640 $455 #
vertex $-1 $651 $652 #
vertex $-1 $289 $653 #
straight-curve $-1 -40.840862319681825 -27.409974720974766 36.044372793304497 0 0 -1 I I #
coedge $-1 $471 $471 $-1 $654 reversed $292 $-1 #
edge $-1 $655 0 $655 6.2831853071796004 $293 $656 forward 7 unknown #
vertex $-1 $296 $657 #
ellipse-curve $-1 -34.161769957621587 -26.118461343547224 10.076921750035799 0 -0.78801076186113728 0.61566146476048833 0.25 0 0 1 I I #
coedge $-1 $475 $475 $-1 $658 reversed $299 $-1 #
edge $-1 $659 0 $659 6.2831853071796004 $300 $660 forward 7 unknown #
vertex $-1 $303 $661 #
ellipse-curve $-1 -24.143131414531226 -26.118461343547224 10.076921750035799 0 -0.78801076186113728 0.61566146476048833 0.25 0 0 1 I I #
face $-1 $-1 $491 $68 $-1 $662 forward single #
loop $-1 $-1 $663 $304 #
plane-surface $-1 0 27.409974720974766 0 0 -1 0 0 0 -1 forward_v I I I I #
coedge $-1 $664 $665 $666 $667 reversed $305 $-1 #
coedge $-1 $668 $307 $309 $489 forward $191 $-1 #
coedge $-1 $307 $668 $664 $669 forward $191 $-1 #
coedge $-1 $666 $310 $307 $486 forward $491 $-1 #
edge $-1 $493 -16.037188536449563 $670 -6.4572918553186529 $485 $671 forward 7 unknown #
coedge $-1 $672 $673 $308 $488 forward $480 $-1 #
edge $-1 $674 -53.22102751589987 $492 -45.666473588219112 $487 $675 forward 7 unknown #
edge $-1 $493 44.490400517009661 $674 54.819949441949547 $309 $676 forward 7 unknown #
coedge $-1 $310 $666 $672 $677 forward $491 $-1 #
loop $-1 $-1 $666 $479 #
vertex $-1 $488 $678 #
vertex $-1 $311 $679 #
straight-curve $-1 -27.284428732333673 32.825677521796678 11.729983536023092 0 -1 0 I I #
coedge $-1 $495 $495 $-1 $680 reversed $314 $-1 #
edge $-1 $681 0 $681 6.2831853071796004 $315 $682 forward 7 unknown #
vertex $-1 $318 $683 #
ellipse-curve $-1 -25.36844939610749 23.887607053251475 7.9527065721827128 0 0.73135370988377701 0.68199835119979291 0.5 0 0 1 I I #
coedge $-1 $499 $499 $-1 $684 reversed $321 $-1 #
edge $-1 $685 0 $685 6.2831853071796004 $322 $686 forward 7 unknown #
vertex $-1 $325 $687 #
ellipse-curve $-1 -22.494480391768217 23.887607053251475 7.9527065721827128 0 0.73135370988377701 0.68199835119979291 0.5 0 0 1 I I #
coedge $-1 $503 $503 $-1 $688 reversed $328 $-1 #
edge $-1 $689 0 $689 6.2831853071796004 $329 $690 forward 7 unknown #
vertex $-1 $332 $691 #
ellipse-curve $-1 -19.620511387428941 23.887607053251475 7.9527065721827128 0 0.73135370988377701 0.68199835119979291 0.5 0 0 1 I I #
face $-1 $-1 $692 $72 $-1 $693 reversed single #
loop $-1 $-1 $339 $333 #
plane-surface $-1 0 0 11.729983536023093 0 0 1 1 0 0 forward_v I I I I #
coedge $-1 $694 $695 $696 $697 reversed $334 $-1 #
coedge $-1 $698 $336 $338 $517 forward $210 $-1 #
coedge $-1 $336 $698 $694 $699 forward $210 $-1 #
coedge $-1 $696 $339 $336 $514 forward $508 $-1 #
edge $-1 $520 -4.4690234022100306 $700 5.1108732789208808 $513 $701 forward 7 unknown #
coedge $-1 $702 $703 $337 $516 forward $692 $-1 #
edge $-1 $704 -53.22102751589987 $519 -45.666473588219112 $515 $705 forward 7 unknown #
edge $-1 $520 44.490400517009661 $704 54.819949441949547 $338 $706 forward 7 unknown #
coedge $-1 $339 $696 $702 $707 forward $508 $-1 #
vertex $-1 $516 $708 #
vertex $-1 $340 $709 #
straight-curve $-1 -4.1480984638546055 32.825677521796678 11.729983536023092 0 -1 0 I I #
coedge $-1 $522 $522 $-1 $710 reversed $343 $-1 #
edge $-1 $711 0 $711 6.2831853071796004 $344 $712 forward 7 unknown #
vertex $-1 $347 $713 #
ellipse-curve $-1 -2.2321191276284225 23.887607053251475 7.9527065721827128 0 0.73135370988377701 0.68199835119979291 0.5 0 0 1 I I #
coedge $-1 $526 $526 $-1 $714 reversed $350 $-1 #
edge $-1 $715 0 $715 6.2831853071796004 $351 $716 forward 7 unknown #
vertex $-1 $354 $717 #
ellipse-curve $-1 0.64184987671085025 23.887607053251475 7.9527065721827128 0 0.73135370988377701 0.68199835119979291 0.5 0 0 1 I I #
coedge $-1 $530 $530 $-1 $718 reversed $357 $-1 #
edge $-1 $719 0 $719 6.2831853071796004 $358 $720 forward 7 unknown #
vertex $-1 $361 $721 #
ellipse-curve $-1 3.5158188810501301 23.887607053251475 7.9527065721827128 0 0.73135370988377701 0.68199835119979291 0.5 0 0 1 I I #
face $-1 $-1 $722 $76 $-1 $723 reversed single #
loop $-1 $-1 $368 $362 #
plane-surface $-1 0 0 11.729983536023093 0 0 1 1 0 0 forward_v I I I I #
coedge $-1 $724 $725 $726 $727 reversed $363 $-1 #
coedge $-1 $728 $365 $367 $544 forward $229 $-1 #
coedge $-1 $365 $728 $724 $729 forward $229 $-1 #
coedge $-1 $726 $368 $365 $541 forward $535 $-1 #
edge $-1 $547 7.0991417320295014 $730 16.679038413160413 $540 $731 forward 7 unknown #
coedge $-1 $732 $733 $366 $543 forward $722 $-1 #
edge $-1 $734 -53.22102751589987 $546 -45.666473588219112 $542 $735 forward 7 unknown #
edge $-1 $547 44.490400517009661 $734 54.819949441949547 $367 $736 forward 7 unknown #
coedge $-1 $368 $726 $732 $737 forward $535 $-1 #
vertex $-1 $369 $738 #
vertex $-1 $369 $739 #
straight-curve $-1 18.988231804624458 32.825677521796678 11.729983536023092 0 -1 0 I I #
coedge $-1 $549 $549 $-1 $740 reversed $372 $-1 #
edge $-1 $741 0 $741 6.2831853071796004 $373 $742 forward 7 unknown #
vertex $-1 $376 $743 #
ellipse-curve $-1 20.904211140850641 23.887607053251475 7.9527065721827128 0 0.73135370988377701 0.68199835119979291 0.5 0 0 1 I I #
coedge $-1 $553 $553 $-1 $744 reversed $379 $-1 #
edge $-1 $745 0 $745 6.2831853071796004 $380 $746 forward 7 unknown #
vertex $-1 $383 $747 #
ellipse-curve $-1 23.778180145189914 23.887607053251475 7.9527065721827128 0 0.73135370988377701 0.68199835119979291 0.5 0 0 1 I I #
coedge $-1 $557 $557 $-1 $748 reversed $386 $-1 #
edge $-1 $749 0 $749 6.2831853071796004 $387 $750 forward 7 unknown #
vertex $-1 $390 $751 #
ellipse-curve $-1 26.652149149529201 23.887607053251475 7.9527065721827128 0 0.73135370988377701 0.68199835119979291 0.5 0 0 1 I I #
face $-1 $-1 $752 $80 $-1 $753 reversed single #
loop $-1 $-1 $754 $391 #
plane-surface $-1 51.704458754234444 0 0 -1 0 0 0 0 1 forward_v I I I I #
coedge $-1 $755 $394 $396 $570 forward $248 $-1 #
coedge $-1 $394 $755 $754 $756 reversed $248 $-1 #
coedge $-1 $757 $397 $394 $567 forward $392 $-1 #
edge $-1 $573 18.66730686626904 $758 28.247203547399945 $566 $759 forward 7 unknown #
coedge $-1 $760 $761 $395 $569 forward $752 $-1 #
edge $-1 $762 -53.22102751589987 $572 -45.666473588219112 $568 $763 forward 7 unknown #
edge $-1 $573 44.490400517009661 $762 54.819949441949547 $396 $764 forward 7 unknown #
coedge $-1 $397 $757 $760 $765 forward $392 $-1 #
vertex $-1 $569 $766 #
vertex $-1 $398 $767 #
straight-curve $-1 42.124562073103533 32.825677521796678 11.729983536023092 0 -1 0 I I #
coedge $-1 $575 $575 $-1 $768 reversed $401 $-1 #
edge $-1 $769 0 $769 6.2831853071796004 $402 $770 forward 7 unknown #
vertex $-1 $405 $771 #
ellipse-curve $-1 44.040541409329713 23.887607053251475 7.9527065721827128 0 0.73135370988377701 0.68199835119979291 0.5 0 0 1 I I #
coedge $-1 $579 $579 $-1 $772 reversed $408 $-1 #
edge $-1 $773 0 $773 6.2831853071796004 $409 $774 forward 7 unknown #
vertex $-1 $412 $775 #
ellipse-curve $-1 46.914510413668985 23.887607053251475 7.9527065721827128 0 0.73135370988377701 0.68199835119979291 0.5 0 0 1 I I #
coedge $-1 $583 $583 $-1 $776 reversed $415 $-1 #
edge $-1 $777 0 $777 6.2831853071796004 $416 $778 forward 7 unknown #
vertex $-1 $419 $779 #
ellipse-curve $-1 49.788479418008272 23.887607053251475 7.9527065721827128 0 0.73135370988377701 0.68199835119979291 0.5 0 0 1 I I #
face $-1 $-1 $435 $63 $-1 $780 reversed single #
loop $-1 $-1 $603 $420 #
plane-surface $-1 0 27.409974720974766 0 0 -1 0 0 0 -1 forward_v I I I I #
coedge $-1 $781 $601 $604 $782 forward $421 $-1 #
coedge $-1 $607 $423 $424 $595 reversed $267 $-1 #
coedge $-1 $601 $781 $423 $593 reversed $421 $-1 #
edge $-1 $608 -11.729983536023093 $783 11.729983536023093 $592 $784 forward 7 unknown #
coedge $-1 $425 $424 $781 $785 forward $169 $-1 #
edge $-1 $599 -51.704458754234444 $783 51.704458754234444 $591 $786 forward 7 unknown #
coedge $-1 $604 $603 $425 $597 reversed $588 $-1 #
edge $-1 $787 -51.704458754234444 $598 51.704458754234444 $596 $788 forward 7 unknown #
vertex $-1 $427 $789 #
vertex $-1 $610 $790 #
straight-curve $-1 51.704458754234444 0 -11.729983536023093 0 -1 0 I I #
coedge $-1 $590 $592 $428 $602 reversed $421 $-1 #
edge $-1 $605 -27.409974720974766 $608 27.409974720974766 $601 $791 forward 7 unknown #
coedge $-1 $596 $429 $434 $611 forward $588 $-1 #
coedge $-1 $429 $596 $590 $782 reversed $588 $-1 #
vertex $-1 $430 $792 #
straight-curve $-1 0 27.409974720974766 11.729983536023093 -1 0 0 I I #
coedge $-1 $431 $591 $433 $610 reversed $267 $-1 #
vertex $-1 $602 $793 #
straight-curve $-1 0 -27.409974720974766 11.729983536023093 1 0 0 I I #
edge $-1 $436 -11.729983536023093 $599 11.729983536023093 $433 $794 forward 7 unknown #
edge $-1 $437 -11.729983536023093 $598 11.729983536023093 $434 $795 forward 7 unknown #
point $-1 51.704458754234444 -27.409974720974766 11.729983536023093 #
point $-1 51.704458754234444 27.409974720974766 11.729983536023093 #
face $-1 $-1 $627 $64 $-1 $796 reversed single #
loop $-1 $-1 $623 $439 #
plane-surface $-1 -51.704458754234444 0 0 1 0 0 0 0 -1 forward_v I I I I #
coedge $-1 $797 $442 $620 $798 forward $275 $-1 #
coedge $-1 $442 $797 $799 $800 forward $275 $-1 #
edge $-1 $801 -27.409974720974766 $621 27.409974720974766 $442 $802 forward 7 unknown #
coedge $-1 $444 $630 $617 $798 reversed $440 $-1 #
vertex $-1 $798 $803 #
straight-curve $-1 -40.840862319681825 -27.409974720974766 -4.4063061875980178 0 0 1 I I #
coedge $-1 $804 $805 $446 $624 forward $615 $-1 #
edge $-1 $631 -27.409974720974766 $628 27.409974720974766 $623 $806 forward 7 unknown #
coedge $-1 $799 $447 $451 $633 forward $627 $-1 #
coedge $-1 $447 $799 $804 $807 reversed $627 $-1 #
loop $-1 $-1 $625 $614 #
vertex $-1 $807 $808 #
straight-curve $-1 -23.136330268479067 27.409974720974766 -5.8952412143689781 1 0 0 I I #
coedge $-1 $620 $449 $805 $809 forward $440 $-1 #
vertex $-1 $809 $810 #
straight-curve $-1 -23.136330268479067 -27.409974720974766 -5.8952412143689781 -1 0 0 I I #
edge $-1 $453 1.4889350267709602 $801 7.3236773484250755 $625 $811 forward 7 unknown #
point $-1 -40.840862319681825 -27.409974720974766 -5.8952412143689781 #
point $-1 -40.840862319681825 27.409974720974766 -5.8952412143689781 #
plane-surface $-1 0 -27.409974720974766 0 0 1 0 0 0 1 forward_v I I I I #
coedge $-1 $647 $646 $639 $812 forward $456 $-1 #
coedge $-1 $639 $458 $460 $643 reversed $283 $-1 #
coedge $-1 $458 $638 $637 $812 reversed $283 $-1 #
coedge $-1 $466 $461 $458 $641 forward $467 $-1 #
edge $-1 $644 -27.620512829255993 $813 -24.314389257281405 $640 $814 forward 7 unknown #
coedge $-1 $460 $459 $647 $815 reversed $177 $-1 #
edge $-1 $816 -4.1955309901683346 $644 3.4120438039485133e-014 $638 $817 forward 7 unknown #
vertex $-1 $462 $818 #
straight-curve $-1 -14.576225343038203 -27.409974720974766 8.423859964048507 1 0 0 I I #
coedge $-1 $637 $463 $466 $651 forward $456 $-1 #
coedge $-1 $463 $637 $642 $815 forward $456 $-1 #
vertex $-1 $464 $819 #
straight-curve $-1 -40.840862319681825 -54.448657295029406 11.729983536023092 0 -1 0 I I #
straight-curve $-1 -40.840862319681825 -27.409974720974745 8.4238599640485319 0 0.61566146476048833 0.78801076186113728 I I #
edge $-1 $468 -40.840862319681825 $813 -17.464039052470987 $466 $820 forward 7 unknown #
point $-1 -40.840862319681825 -27.409974720974766 11.729983536023093 #
point $-1 -40.840862319681825 -27.409974720974766 8.4238599640485052 #
edge $-1 $821 1 $821 0 $471 $-1 forward 7 unknown #
vertex $-1 $472 $822 #
ellipse-curve $-1 -34.161769957621587 -25.330450581686101 9.4612602852753227 0 -0.78801076186113728 0.61566146476048833 0.25 0 0 1 I I #
point $-1 -33.911769957621587 -26.118461343547239 10.07692175003581 #
edge $-1 $823 1 $823 0 $475 $-1 forward 7 unknown #
vertex $-1 $476 $824 #
ellipse-curve $-1 -24.143131414531226 -25.330450581686101 9.4612602852753227 0 -0.78801076186113728 0.61566146476048833 0.25 0 0 1 I I #
point $-1 -23.893131414531226 -26.118461343547239 10.07692175003581 #
plane-surface $-1 0 0 11.729983536023093 0 0 1 1 0 0 forward_v I I I I #
coedge $-1 $673 $672 $665 $825 forward $480 $-1 #
coedge $-1 $665 $482 $484 $669 reversed $305 $-1 #
coedge $-1 $482 $664 $663 $825 reversed $305 $-1 #
coedge $-1 $490 $485 $482 $667 forward $491 $-1 #
edge $-1 $670 -12.460438136268504 $826 -5.4157028008219115 $666 $827 forward 7 unknown #
coedge $-1 $484 $483 $673 $828 reversed $191 $-1 #
edge $-1 $829 -54.819949441949547 $670 -44.490400517009661 $664 $830 forward 7 unknown #
vertex $-1 $486 $831 #
straight-curve $-1 -11.247240195884109 20.365239385528177 11.729983536023088 1 0 0 I I #
coedge $-1 $663 $487 $490 $677 reversed $480 $-1 #
coedge $-1 $487 $663 $668 $828 forward $480 $-1 #
vertex $-1 $488 $832 #
straight-curve $-1 -27.284428732333673 27.409974720974766 57.396457124242204 0 0 1 I I #
straight-curve $-1 -27.284428732333673 -9.9771404112908328 44.268203008353225 0 0.68199835119979291 -0.73135370988377701 I I #
edge $-1 $826 17.704532051202762 $492 27.284428732333673 $672 $833 forward 7 unknown #
point $-1 -27.284428732333673 27.409974720974766 11.729983536023093 #
point $-1 -27.284428732333673 20.365239385528174 11.729983536023092 #
edge $-1 $834 1 $834 0 $495 $-1 forward 7 unknown #
vertex $-1 $496 $835 #
ellipse-curve $-1 -25.36844939610749 22.850326660286502 6.9854269806887377 0 0.73135370988377701 0.68199835119979291 0.5 0 0 1 I I #
point $-1 -24.86844939610749 23.887607053251489 7.952706572182727 #
edge $-1 $836 1 $836 0 $499 $-1 forward 7 unknown #
vertex $-1 $500 $837 #
ellipse-curve $-1 -22.494480391768217 22.850326660286502 6.9854269806887377 0 0.73135370988377701 0.68199835119979291 0.5 0 0 1 I I #
point $-1 -21.994480391768217 23.887607053251489 7.952706572182727 #
edge $-1 $838 1 $838 0 $503 $-1 forward 7 unknown #
vertex $-1 $504 $839 #
ellipse-curve $-1 -19.620511387428941 22.850326660286502 6.9854269806887377 0 0.73135370988377701 0.68199835119979291 0.5 0 0 1 I I #
point $-1 -19.120511387428941 23.887607053251489 7.952706572182727 #
loop $-1 $-1 $515 $507 #
plane-surface $-1 0 27.409974720974766 0 0 -1 0 0 0 -1 forward_v I I I I #
coedge $-1 $695 $510 $512 $699 reversed $334 $-1 #
coedge $-1 $510 $694 $840 $841 reversed $334 $-1 #
coedge $-1 $518 $513 $510 $697 forward $508 $-1 #
edge $-1 $700 -12.460438136268504 $842 -5.4157028008219115 $696 $843 forward 7 unknown #
coedge $-1 $512 $511 $703 $844 reversed $210 $-1 #
edge $-1 $845 -54.819949441949547 $700 -44.490400517009661 $694 $846 forward 7 unknown #
vertex $-1 $514 $847 #
straight-curve $-1 0.32092493835542513 20.365239385528177 11.729983536023088 1 0 0 I I #
coedge $-1 $840 $515 $518 $707 reversed $692 $-1 #
coedge $-1 $515 $840 $698 $844 forward $692 $-1 #
vertex $-1 $516 $848 #
straight-curve $-1 -4.1480984638546055 27.409974720974766 57.396457124242204 0 0 1 I I #
straight-curve $-1 -4.1480984638546055 -9.9771404112908328 44.268203008353225 0 0.68199835119979291 -0.73135370988377701 I I #
edge $-1 $842 -5.431798217276306 $519 4.1480984638546055 $702 $849 forward 7 unknown #
point $-1 -4.1480984638546055 27.409974720974766 11.729983536023093 #
point $-1 -4.1480984638546055 20.365239385528174 11.729983536023092 #
edge $-1 $850 1 $850 0 $522 $-1 forward 7 unknown #
vertex $-1 $523 $851 #
ellipse-curve $-1 -2.2321191276284225 22.850326660286502 6.9854269806887377 0 0.73135370988377701 0.68199835119979291 0.5 0 0 1 I I #
point $-1 -1.7321191276284225 23.887607053251489 7.952706572182727 #
edge $-1 $852 1 $852 0 $526 $-1 forward 7 unknown #
vertex $-1 $527 $853 #
ellipse-curve $-1 0.64184987671085025 22.850326660286502 6.9854269806887377 0 0.73135370988377701 0.68199835119979291 0.5 0 0 1 I I #
point $-1 1.1418498767108503 23.887607053251489 7.952706572182727 #
edge $-1 $854 1 $854 0 $530 $-1 forward 7 unknown #
vertex $-1 $531 $855 #
ellipse-curve $-1 3.5158188810501301 22.850326660286502 6.9854269806887377 0 0.73135370988377701 0.68199835119979291 0.5 0 0 1 I I #
point $-1 4.0158188810501301 23.887607053251489 7.952706572182727 #
loop $-1 $-1 $542 $534 #
plane-surface $-1 0 27.409974720974766 0 0 -1 0 0 0 -1 forward_v I I I I #
coedge $-1 $725 $537 $539 $729 reversed $363 $-1 #
coedge $-1 $537 $724 $856 $857 reversed $363 $-1 #
coedge $-1 $545 $540 $537 $727 forward $535 $-1 #
edge $-1 $730 -12.460438136268504 $858 -5.4157028008219115 $726 $859 forward 7 unknown #
coedge $-1 $539 $538 $733 $860 reversed $229 $-1 #
edge $-1 $861 -54.819949441949547 $730 -44.490400517009661 $724 $862 forward 7 unknown #
vertex $-1 $541 $863 #
straight-curve $-1 11.889090072594957 20.365239385528177 11.729983536023088 1 0 0 I I #
coedge $-1 $856 $542 $545 $737 reversed $722 $-1 #
coedge $-1 $542 $856 $728 $860 forward $722 $-1 #
vertex $-1 $543 $864 #
straight-curve $-1 18.988231804624458 27.409974720974766 57.396457124242204 0 0 1 I I #
straight-curve $-1 18.988231804624458 -9.9771404112908328 44.268203008353225 0 0.68199835119979291 -0.73135370988377701 I I #
edge $-1 $858 -28.56812848575537 $546 -18.988231804624458 $732 $865 forward 7 unknown #
point $-1 18.988231804624458 27.409974720974766 11.729983536023093 #
point $-1 18.988231804624458 20.365239385528174 11.729983536023092 #
edge $-1 $866 1 $866 0 $549 $-1 forward 7 unknown #
vertex $-1 $550 $867 #
ellipse-curve $-1 20.904211140850641 22.850326660286502 6.9854269806887377 0 0.73135370988377701 0.68199835119979291 0.5 0 0 1 I I #
point $-1 21.404211140850641 23.887607053251489 7.952706572182727 #
edge $-1 $868 1 $868 0 $553 $-1 forward 7 unknown #
vertex $-1 $554 $869 #
ellipse-curve $-1 23.778180145189914 22.850326660286502 6.9854269806887377 0 0.73135370988377701 0.68199835119979291 0.5 0 0 1 I I #
point $-1 24.278180145189914 23.887607053251489 7.952706572182727 #
edge $-1 $870 1 $870 0 $557 $-1 forward 7 unknown #
vertex $-1 $558 $871 #
ellipse-curve $-1 26.652149149529201 22.850326660286502 6.9854269806887377 0 0.73135370988377701 0.68199835119979291 0.5 0 0 1 I I #
point $-1 27.152149149529201 23.887607053251489 7.952706572182727 #
loop $-1 $-1 $568 $561 #
plane-surface $-1 0 27.409974720974766 0 0 -1 0 0 0 -1 forward_v I I I I #
coedge $-1 $872 $873 $565 $756 forward $562 $-1 #
coedge $-1 $565 $564 $761 $874 reversed $248 $-1 #
edge $-1 $758 24.900346611891422 $875 35.229895536831307 $754 $876 forward 7 unknown #
coedge $-1 $571 $566 $873 $877 forward $392 $-1 #
vertex $-1 $877 $878 #
straight-curve $-1 23.457255206834493 20.365239385528177 11.729983536023088 1 0 0 I I #
coedge $-1 $879 $568 $571 $765 reversed $752 $-1 #
coedge $-1 $568 $879 $755 $874 forward $752 $-1 #
vertex $-1 $569 $880 #
straight-curve $-1 42.124562073103533 27.409974720974766 57.396457124242204 0 0 1 I I #
straight-curve $-1 42.124562073103533 -9.9771404112908328 44.268203008353225 0 0.68199835119979291 -0.73135370988377701 I I #
edge $-1 $881 -51.704458754234444 $572 -42.124562073103533 $760 $882 forward 7 unknown #
point $-1 42.124562073103533 27.409974720974766 11.729983536023093 #
point $-1 42.124562073103533 20.365239385528174 11.729983536023092 #
edge $-1 $883 1 $883 0 $575 $-1 forward 7 unknown #
vertex $-1 $576 $884 #
ellipse-curve $-1 44.040541409329713 22.850326660286502 6.9854269806887377 0 0.73135370988377701 0.68199835119979291 0.5 0 0 1 I I #
point $-1 44.540541409329713 23.887607053251489 7.952706572182727 #
edge $-1 $885 1 $885 0 $579 $-1 forward 7 unknown #
vertex $-1 $580 $886 #
ellipse-curve $-1 46.914510413668985 22.850326660286502 6.9854269806887377 0 0.73135370988377701 0.68199835119979291 0.5 0 0 1 I I #
point $-1 47.414510413668985 23.887607053251489 7.952706572182727 #
edge $-1 $887 1 $887 0 $583 $-1 forward 7 unknown #
vertex $-1 $584 $888 #
ellipse-curve $-1 49.788479418008272 22.850326660286502 6.9854269806887377 0 0.73135370988377701 0.68199835119979291 0.5 0 0 1 I I #
point $-1 50.288479418008272 23.887607053251489 7.952706572182727 #
plane-surface $-1 51.704458754234444 0 0 -1 0 0 0 0 1 forward_v I I I I #
coedge $-1 $592 $590 $594 $785 reversed $421 $-1 #
edge $-1 $605 -11.729983536023093 $787 11.729983536023093 $604 $889 forward 7 unknown #
vertex $-1 $785 $890 #
straight-curve $-1 -51.704458754234444 -27.409974720974766 0 0 0 -1 I I #
edge $-1 $783 -27.409974720974766 $787 27.409974720974766 $781 $891 forward 7 unknown #
straight-curve $-1 0 -27.409974720974766 -11.729983536023093 -1 0 0 I I #
vertex $-1 $597 $892 #
straight-curve $-1 0 27.409974720974766 -11.729983536023093 1 0 0 I I #
point $-1 51.704458754234444 27.409974720974766 -11.729983536023093 #
point $-1 51.704458754234444 -27.409974720974766 -11.729983536023093 #
straight-curve $-1 -51.704458754234444 0 11.729983536023093 0 -1 0 I I #
point $-1 -51.704458754234444 27.409974720974766 11.729983536023093 #
point $-1 -51.704458754234444 -27.409974720974766 11.729983536023093 #
straight-curve $-1 51.704458754234444 -27.409974720974766 0 0 0 -1 I I #
straight-curve $-1 51.704458754234444 27.409974720974766 0 0 0 -1 I I #
plane-surface $-1 0 27.409974720974766 0 0 -1 0 0 0 -1 forward_v I I I I #
coedge $-1 $618 $617 $893 $894 forward $275 $-1 #
edge $-1 $621 40.840862319681825 $895 51.704458754234444 $620 $896 forward 7 unknown #
coedge $-1 $626 $625 $618 $800 reversed $627 $-1 #
edge $-1 $897 -51.704458754234444 $801 -40.840862319681825 $799 $898 forward 7 unknown #
vertex $-1 $633 $899 #
straight-curve $-1 -40.840862319681825 0 -11.729983536023093 0 -1 0 I I #
point $-1 -40.840862319681825 -27.409974720974766 -11.729983536023093 #
coedge $-1 $893 $623 $626 $807 forward $615 $-1 #
coedge $-1 $623 $893 $630 $809 reversed $615 $-1 #
straight-curve $-1 -51.704458754234444 0 -5.8952412143689781 0 1 0 I I #
edge $-1 $628 5.8952412143689781 $897 11.729983536023093 $626 $900 forward 7 unknown #
point $-1 -51.704458754234444 27.409974720974766 -5.8952412143689781 #
edge $-1 $631 5.8952412143689781 $895 11.729983536023093 $805 $901 forward 7 unknown #
point $-1 -51.704458754234444 -27.409974720974766 -5.8952412143689781 #
straight-curve $-1 -40.840862319681825 27.409974720974766 -4.4063061875980178 0 0 -1 I I #
edge $-1 $813 27.03868257405464 $816 29.62170932890972 $637 $902 forward 7 unknown #
vertex $-1 $641 $903 #
straight-curve $-1 -17.464039052470987 -27.409974720974766 36.044372793304497 0 0 1 I I #
edge $-1 $816 2.887813709432784 $648 26.264636976643622 $647 $904 forward 7 unknown #
vertex $-1 $815 $905 #
straight-curve $-1 -17.464039052470987 -27.409974720974745 8.4238599640485319 0 -0.61566146476048833 -0.78801076186113728 I I #
point $-1 -17.464039052470987 -27.409974720974766 8.4238599640485052 #
point $-1 -40.840862319681825 -24.826947966119686 11.729983536023093 #
straight-curve $-1 0 -27.409974720974766 11.729983536023093 1 0 0 I I #
vertex $-1 $654 $906 #
point $-1 -33.911769957621587 -25.330450581686101 9.4612602852753227 #
vertex $-1 $658 $907 #
point $-1 -23.893131414531226 -25.330450581686101 9.4612602852753227 #
edge $-1 $826 45.666473588219112 $829 53.22102751589987 $663 $908 forward 7 unknown #
vertex $-1 $677 $909 #
straight-curve $-1 -17.704532051202762 32.825677521796678 11.729983536023092 0 1 0 I I #
edge $-1 $829 6.4572918553186529 $674 16.037188536449563 $673 $910 forward 7 unknown #
vertex $-1 $828 $911 #
straight-curve $-1 -17.704532051202762 -9.9771404112908328 44.268203008353225 0 -0.68199835119979291 0.73135370988377701 I I #
point $-1 -17.704532051202762 20.365239385528174 11.729983536023092 #
point $-1 -27.284428732333673 27.409974720974766 4.1754296083423341 #
straight-curve $-1 0 27.409974720974766 11.729983536023093 -1 0 0 I I #
vertex $-1 $680 $912 #
point $-1 -24.86844939610749 22.850326660286502 6.9854269806887377 #
vertex $-1 $684 $913 #
point $-1 -21.994480391768217 22.850326660286502 6.9854269806887377 #
vertex $-1 $688 $914 #
point $-1 -19.120511387428941 22.850326660286502 6.9854269806887377 #
coedge $-1 $703 $702 $695 $841 forward $692 $-1 #
edge $-1 $842 45.666473588219112 $845 53.22102751589987 $840 $915 forward 7 unknown #
vertex $-1 $707 $916 #
straight-curve $-1 5.431798217276306 32.825677521796678 11.729983536023092 0 1 0 I I #
edge $-1 $845 -5.1108732789208808 $704 4.4690234022100306 $703 $917 forward 7 unknown #
vertex $-1 $844 $918 #
straight-curve $-1 5.431798217276306 -9.9771404112908328 44.268203008353225 0 -0.68199835119979291 0.73135370988377701 I I #
point $-1 5.431798217276306 20.365239385528174 11.729983536023092 #
point $-1 -4.1480984638546055 27.409974720974766 4.1754296083423341 #
straight-curve $-1 0 27.409974720974766 11.729983536023093 -1 0 0 I I #
vertex $-1 $710 $919 #
point $-1 -1.7321191276284225 22.850326660286502 6.9854269806887377 #
vertex $-1 $714 $920 #
point $-1 1.1418498767108503 22.850326660286502 6.9854269806887377 #
vertex $-1 $718 $921 #
point $-1 4.0158188810501301 22.850326660286502 6.9854269806887377 #
coedge $-1 $733 $732 $725 $857 forward $722 $-1 #
edge $-1 $858 45.666473588219112 $861 53.22102751589987 $856 $922 forward 7 unknown #
vertex $-1 $737 $923 #
straight-curve $-1 28.56812848575537 32.825677521796678 11.729983536023092 0 1 0 I I #
edge $-1 $861 -16.679038413160413 $734 -7.0991417320295014 $733 $924 forward 7 unknown #
vertex $-1 $860 $925 #
straight-curve $-1 28.56812848575537 -9.9771404112908328 44.268203008353225 0 -0.68199835119979291 0.73135370988377701 I I #
point $-1 28.56812848575537 20.365239385528174 11.729983536023092 #
point $-1 18.988231804624458 27.409974720974766 4.1754296083423341 #
straight-curve $-1 0 27.409974720974766 11.729983536023093 -1 0 0 I I #
vertex $-1 $740 $926 #
point $-1 21.404211140850641 22.850326660286502 6.9854269806887377 #
vertex $-1 $744 $927 #
point $-1 24.278180145189914 22.850326660286502 6.9854269806887377 #
vertex $-1 $748 $928 #
point $-1 27.152149149529201 22.850326660286502 6.9854269806887377 #
coedge $-1 $873 $754 $879 $929 reversed $562 $-1 #
coedge $-1 $754 $872 $757 $877 reversed $562 $-1 #
edge $-1 $875 -28.247203547399945 $762 -18.66730686626904 $761 $930 forward 7 unknown #
vertex $-1 $756 $931 #
straight-curve $-1 51.704458754234444 3.3832440519148719 29.940944408021824 0 0.68199835119979291 -0.73135370988377701 I I #
edge $-1 $758 20.365239385528174 $881 27.409974720974766 $873 $932 forward 7 unknown #
point $-1 51.704458754234437 20.365239385528174 11.729983536023092 #
coedge $-1 $761 $760 $872 $929 forward $752 $-1 #
point $-1 42.124562073103533 27.409974720974766 4.1754296083423341 #
vertex $-1 $877 $933 #
straight-curve $-1 0 27.409974720974766 11.729983536023093 -1 0 0 I I #
vertex $-1 $768 $934 #
point $-1 44.540541409329713 22.850326660286502 6.9854269806887377 #
vertex $-1 $772 $935 #
point $-1 47.414510413668985 22.850326660286502 6.9854269806887377 #
vertex $-1 $776 $936 #
point $-1 50.288479418008272 22.850326660286502 6.9854269806887377 #
straight-curve $-1 -51.704458754234444 27.409974720974766 0 0 0 -1 I I #
point $-1 -51.704458754234444 -27.409974720974766 -11.729983536023093 #
straight-curve $-1 -51.704458754234444 0 -11.729983536023093 0 1 0 I I #
point $-1 -51.704458754234444 27.409974720974766 -11.729983536023093 #
coedge $-1 $805 $804 $797 $894 reversed $615 $-1 #
edge $-1 $895 -27.409974720974766 $897 27.409974720974766 $893 $937 forward 7 unknown #
vertex $-1 $894 $938 #
straight-curve $-1 0 -27.409974720974766 -11.729983536023093 -1 0 0 I I #
vertex $-1 $800 $939 #
straight-curve $-1 0 27.409974720974766 -11.729983536023093 1 0 0 I I #
point $-1 -40.840862319681825 27.409974720974766 -11.729983536023093 #
straight-curve $-1 -51.704458754234444 27.409974720974766 0 0 0 -1 I I #
straight-curve $-1 -51.704458754234444 -27.409974720974766 0 0 0 -1 I I #
straight-curve $-1 -17.464039052470987 -54.448657295029406 11.729983536023092 0 1 0 I I #
point $-1 -17.464039052470987 -27.409974720974766 11.729983536023093 #
straight-curve $-1 -14.576225343038203 -24.826947966119686 11.729983536023095 -1 0 0 I I #
point $-1 -17.464039052470987 -24.826947966119686 11.729983536023093 #
point $-1 -34.161769957621587 -25.133447891220818 9.3073449190851996 #
point $-1 -24.143131414531226 -25.133447891220818 9.3073449190851996 #
straight-curve $-1 -17.704532051202762 27.409974720974766 57.396457124242204 0 0 -1 I I #
point $-1 -17.704532051202762 27.409974720974766 11.729983536023093 #
straight-curve $-1 -11.247240195884109 27.409974720974766 4.1754296083423306 -1 0 0 I I #
point $-1 -17.704532051202762 27.409974720974766 4.1754296083423341 #
point $-1 -25.36844939610749 22.484649805344613 6.6444278050888403 #
point $-1 -22.494480391768217 22.484649805344613 6.6444278050888403 #
point $-1 -19.620511387428941 22.484649805344613 6.6444278050888403 #
straight-curve $-1 5.431798217276306 27.409974720974766 57.396457124242204 0 0 -1 I I #
point $-1 5.431798217276306 27.409974720974766 11.729983536023093 #
straight-curve $-1 0.32092493835542513 27.409974720974766 4.1754296083423306 -1 0 0 I I #
point $-1 5.431798217276306 27.409974720974766 4.1754296083423341 #
point $-1 -2.2321191276284225 22.484649805344613 6.6444278050888403 #
point $-1 0.64184987671085025 22.484649805344613 6.6444278050888403 #
point $-1 3.5158188810501301 22.484649805344613 6.6444278050888403 #
straight-curve $-1 28.56812848575537 27.409974720974766 57.396457124242204 0 0 -1 I I #
point $-1 28.56812848575537 27.409974720974766 11.729983536023093 #
straight-curve $-1 11.889090072594957 27.409974720974766 4.1754296083423306 -1 0 0 I I #
point $-1 28.56812848575537 27.409974720974766 4.1754296083423341 #
point $-1 20.904211140850641 22.484649805344613 6.6444278050888403 #
point $-1 23.778180145189914 22.484649805344613 6.6444278050888403 #
point $-1 26.652149149529201 22.484649805344613 6.6444278050888403 #
edge $-1 $881 -11.729983536023093 $875 -4.1754296083423341 $872 $940 forward 7 unknown #
straight-curve $-1 23.457255206834493 27.409974720974766 4.1754296083423306 -1 0 0 I I #
point $-1 51.704458754234437 27.409974720974766 4.1754296083423341 #
straight-curve $-1 51.704458754234444 0 11.729983536023093 0 1 0 I I #
point $-1 51.704458754234444 27.409974720974766 11.729983536023093 #
point $-1 44.040541409329713 22.484649805344613 6.6444278050888403 #
point $-1 46.914510413668985 22.484649805344613 6.6444278050888403 #
point $-1 49.788479418008272 22.484649805344613 6.6444278050888403 #
straight-curve $-1 -51.704458754234444 0 -11.729983536023093 0 1 0 I I #
point $-1 -51.704458754234444 -27.409974720974766 -11.729983536023093 #
point $-1 -51.704458754234444 27.409974720974766 -11.729983536023093 #
straight-curve $-1 51.704458754234444 27.409974720974766 0 0 0 -1 I I #
End-of-ACIS-data 