500 0 7 0           
7 Unknown 11 ACIS 5.0 NT 24 Fri Mar 26 18:14:07 1999 
-1 9.9999999999999995e-007 1e-010 
body $-1 $7 $-1 $8 #
body $-1 $9 $-1 $10 #
body $-1 $11 $-1 $12 #
body $-1 $13 $-1 $14 #
body $-1 $15 $-1 $16 #
body $-1 $17 $-1 $18 #
body $-1 $19 $-1 $20 #
lump $-1 $-1 $21 $0 #
transform $-1 1 0 0 0 1 0 0 0 1 51.654408398693803 36.063500945954111 7.8383937311011262 1 rotate no_reflect no_shear #
lump $-1 $-1 $22 $1 #
transform $-1 1 0 0 0 1 0 0 0 1 51.654408398693803 36.063500945954111 7.8383937311011262 1 rotate no_reflect no_shear #
lump $-1 $-1 $23 $2 #
transform $-1 1 0 0 0 1 0 0 0 1 51.654408398693803 36.063500945954111 7.8383937311011262 1 rotate no_reflect no_shear #
lump $-1 $-1 $24 $3 #
transform $-1 1 0 0 0 1 0 0 0 1 51.654408398693803 36.063500945954111 7.8383937311011262 1 rotate no_reflect no_shear #
lump $-1 $-1 $25 $4 #
transform $-1 1 0 0 0 1 0 0 0 1 51.654408398693803 36.063500945954111 7.8383937311011262 1 rotate no_reflect no_shear #
lump $-1 $-1 $26 $5 #
transform $-1 1 0 0 0 1 0 0 0 1 51.654408398693803 36.063500945954111 7.8383937311011262 1 rotate no_reflect no_shear #
lump $-1 $-1 $27 $6 #
transform $-1 1 0 0 0 1 0 0 0 1 51.654408398693803 36.063500945954111 7.8383937311011262 1 rotate no_reflect no_shear #
shell $-1 $-1 $-1 $28 $-1 $7 #
shell $-1 $-1 $-1 $29 $-1 $9 #
shell $-1 $-1 $-1 $30 $-1 $11 #
shell $-1 $-1 $-1 $31 $-1 $13 #
shell $-1 $-1 $-1 $32 $-1 $15 #
shell $-1 $-1 $-1 $33 $-1 $17 #
shell $-1 $-1 $-1 $34 $-1 $19 #
face $-1 $35 $36 $21 $-1 $37 forward single #
face $-1 $38 $39 $22 $-1 $40 forward single #
face $-1 $41 $42 $23 $-1 $43 forward single #
face $-1 $44 $45 $24 $-1 $46 reversed single #
face $-1 $47 $48 $25 $-1 $49 forward single #
face $-1 $50 $51 $26 $-1 $52 reversed single #
face $-1 $53 $54 $27 $-1 $55 forward single #
face $-1 $56 $57 $21 $-1 $58 reversed single #
loop $-1 $-1 $59 $28 #
plane-surface $-1 0 0 7.8383937311011262 0 0 1 1 0 0 forward_v I I I I #
face $-1 $60 $61 $22 $-1 $62 forward single #
loop $-1 $-1 $63 $29 #
plane-surface $-1 -51.654408398693803 0 0 1 0 0 0 0 -1 forward_v I I I I #
face $-1 $64 $65 $23 $-1 $66 reversed single #
loop $-1 $-1 $67 $30 #
plane-surface $-1 47.03042111808368 0 -4.8383937311011262 0 0 1 1 0 0 forward_v I I I I #
face $-1 $68 $69 $24 $-1 $70 reversed single #
loop $-1 $-1 $71 $31 #
plane-surface $-1 -29.227036121673642 64.574530583232985 126.04967117486052 -1 0 0 0 0.74314483375859142 0.66913059716165679 forward_v I I I I #
face $-1 $72 $73 $25 $-1 $74 forward single #
loop $-1 $75 $76 $32 #
cone-surface $-1 -35.152195236406357 33.117422064202273 4.7582961004865449 0 -0.74314483375859142 -0.66913059716165679 1 0 0 1 I I 0 1 1 forward I I I I #
face $-1 $77 $78 $26 $-1 $79 reversed single #
loop $-1 $-1 $80 $33 #
plane-surface $-1 38.567178550049185 64.574530583232985 126.04967117486052 -1 0 0 0 0.74314483375859142 0.66913059716165679 forward_v I I I I #
face $-1 $81 $82 $27 $-1 $83 forward single #
loop $-1 $84 $85 $34 #
cone-surface $-1 32.64201943531647 33.117422064202273 4.7582961004865449 0 -0.74314483375859142 -0.66913059716165679 1 0 0 1 I I 0 1 1 forward I I I I #
face $-1 $86 $87 $21 $-1 $88 reversed single #
loop $-1 $-1 $89 $35 #
plane-surface $-1 0 0 -7.8383937311011262 0 0 1 1 0 0 forward_v I I I I #
coedge $-1 $90 $91 $92 $93 forward $36 $-1 #
face $-1 $94 $95 $22 $-1 $96 reversed single #
loop $-1 $-1 $97 $38 #
plane-surface $-1 0 0 7.8383937311011262 0 0 1 1 0 0 forward_v I I I I #
coedge $-1 $98 $99 $100 $101 forward $39 $-1 #
face $-1 $102 $103 $23 $-1 $104 reversed single #
loop $-1 $-1 $105 $41 #
plane-surface $-1 42.406433837473557 0 -6.3383937311011262 1 0 0 0 0 -1 forward_v I I I I #
coedge $-1 $106 $107 $108 $109 reversed $42 $-1 #
face $-1 $110 $111 $24 $-1 $112 reversed single #
loop $-1 $-1 $113 $44 #
plane-surface $-1 -35.152195236406357 -12.198882901458404 56.922580899160351 0 0.74314483375859142 0.66913059716165679 1 0 0 forward_v I I I I #
coedge $-1 $114 $115 $116 $117 reversed $45 $-1 #
face $-1 $-1 $118 $25 $-1 $119 forward single #
loop $-1 $120 $121 $47 #
cone-surface $-1 -35.152195236406357 31.833162920661088 3.6019440024953955 0 -0.74314483375859142 -0.66913059716165679 0.5 0 0 1 I I -0.70710678118654779 0.70710678118654713 0.5 forward I I I I #
loop $-1 $-1 $122 $32 #
coedge $-1 $76 $76 $123 $124 reversed $48 $-1 #
face $-1 $125 $126 $26 $-1 $127 reversed single #
loop $-1 $-1 $128 $50 #
plane-surface $-1 32.64201943531647 -12.198882901458404 56.922580899160351 0 0.74314483375859142 0.66913059716165679 1 0 0 forward_v I I I I #
coedge $-1 $129 $130 $131 $132 reversed $51 $-1 #
face $-1 $-1 $133 $27 $-1 $134 forward single #
loop $-1 $135 $136 $53 #
cone-surface $-1 32.64201943531647 31.833162920661088 3.6019440024953955 0 -0.74314483375859142 -0.66913059716165679 0.5 0 0 1 I I -0.70710678118654779 0.70710678118654713 0.5 forward I I I I #
loop $-1 $-1 $137 $34 #
coedge $-1 $85 $85 $138 $139 reversed $54 $-1 #
face $-1 $140 $141 $21 $-1 $142 reversed single #
loop $-1 $-1 $143 $56 #
plane-surface $-1 0 -36.063500945954111 0 0 1 0 0 0 1 forward_v I I I I #
coedge $-1 $144 $145 $146 $147 forward $57 $-1 #
coedge $-1 $148 $59 $149 $150 forward $36 $-1 #
coedge $-1 $59 $148 $151 $152 forward $36 $-1 #
coedge $-1 $153 $154 $59 $93 reversed $155 $-1 #
edge $-1 $156 -36.063500945954111 $157 36.063500945954111 $92 $158 forward 7 unknown #
face $-1 $159 $160 $22 $-1 $161 reversed single #
loop $-1 $-1 $162 $60 #
plane-surface $-1 -58.392207158824164 -34.563500945954111 0 1 0 0 0 0 -1 forward_v I I I I #
coedge $-1 $163 $164 $98 $165 forward $61 $-1 #
coedge $-1 $166 $63 $97 $165 reversed $39 $-1 #
coedge $-1 $63 $166 $167 $168 reversed $39 $-1 #
coedge $-1 $169 $170 $63 $101 reversed $160 $-1 #
edge $-1 $171 -7.8383937311011262 $172 7.8383937311011262 $100 $173 forward 7 unknown #
face $-1 $174 $175 $23 $-1 $176 reversed single #
loop $-1 $-1 $108 $64 #
plane-surface $-1 51.654408398693803 0 0 -1 0 0 0 0 1 forward_v I I I I #
coedge $-1 $177 $178 $179 $180 reversed $65 $-1 #
coedge $-1 $181 $67 $182 $183 reversed $42 $-1 #
coedge $-1 $67 $181 $184 $185 reversed $42 $-1 #
coedge $-1 $186 $187 $67 $109 forward $103 $-1 #
edge $-1 $188 -36.063500945954111 $189 36.063500945954111 $108 $190 forward 7 unknown #
face $-1 $191 $192 $24 $-1 $193 reversed single #
loop $-1 $-1 $194 $68 #
plane-surface $-1 -41.077354351139071 64.574530583232985 126.04967117486052 1 0 0 0 -0.74314483375859142 -0.66913059716165679 forward_v I I I I #
coedge $-1 $195 $196 $197 $198 reversed $69 $-1 #
coedge $-1 $115 $71 $199 $200 reversed $45 $-1 #
coedge $-1 $71 $114 $195 $201 reversed $45 $-1 #
coedge $-1 $197 $202 $71 $117 forward $192 $-1 #
edge $-1 $203 55.186441856329132 $204 59.703063518737672 $116 $205 forward 7 unknown #
loop $-1 $-1 $123 $72 #
plane-surface $-1 -35.152195236406357 -12.198882901458404 56.922580899160351 0 0.74314483375859142 0.66913059716165679 1 0 0 forward_v I I I I #
loop $-1 $-1 $206 $47 #
coedge $-1 $121 $121 $122 $207 reversed $73 $-1 #
coedge $-1 $122 $122 $121 $207 forward $75 $-1 #
coedge $-1 $123 $123 $76 $124 forward $118 $-1 #
edge $-1 $208 -1.8459931896798495e-015 $208 6.2831853071795987 $123 $209 forward 7 unknown #
face $-1 $210 $211 $26 $-1 $212 forward single #
loop $-1 $-1 $213 $77 #
plane-surface $-1 26.716860320583756 64.574530583232985 126.04967117486052 1 0 0 0 -0.74314483375859142 -0.66913059716165679 forward_v I I I I #
coedge $-1 $214 $215 $216 $217 reversed $78 $-1 #
coedge $-1 $130 $80 $218 $219 reversed $51 $-1 #
coedge $-1 $80 $129 $214 $220 reversed $51 $-1 #
coedge $-1 $216 $221 $80 $132 forward $222 $-1 #
edge $-1 $223 55.186441856329132 $224 59.703063518737672 $131 $225 forward 7 unknown #
loop $-1 $-1 $138 $81 #
plane-surface $-1 32.64201943531647 -12.198882901458404 56.922580899160351 0 0.74314483375859142 0.66913059716165679 1 0 0 forward_v I I I I #
loop $-1 $-1 $226 $53 #
coedge $-1 $136 $136 $137 $227 reversed $82 $-1 #
coedge $-1 $137 $137 $136 $227 forward $84 $-1 #
coedge $-1 $138 $138 $85 $139 forward $133 $-1 #
edge $-1 $228 -1.8459931896798495e-015 $228 6.2831853071795987 $138 $229 forward 7 unknown #
face $-1 $230 $231 $21 $-1 $232 reversed single #
loop $-1 $-1 $233 $86 #
plane-surface $-1 -51.654408398693803 0 0 1 0 0 0 0 -1 forward_v I I I I #
coedge $-1 $234 $151 $235 $236 forward $87 $-1 #
coedge $-1 $237 $89 $234 $238 forward $57 $-1 #
coedge $-1 $89 $237 $239 $240 forward $57 $-1 #
coedge $-1 $154 $153 $89 $147 reversed $155 $-1 #
edge $-1 $241 -36.063500945954111 $242 36.063500945954111 $146 $243 forward 7 unknown #
coedge $-1 $91 $90 $244 $245 forward $36 $-1 #
coedge $-1 $246 $247 $90 $150 reversed $231 $-1 #
edge $-1 $157 -51.654408398693803 $248 51.654408398693803 $149 $249 forward 7 unknown #
coedge $-1 $143 $250 $91 $152 reversed $87 $-1 #
edge $-1 $251 -51.654408398693803 $156 51.654408398693803 $151 $252 forward 7 unknown #
coedge $-1 $146 $92 $250 $253 forward $155 $-1 #
coedge $-1 $92 $146 $246 $254 reversed $155 $-1 #
loop $-1 $-1 $153 $230 #
vertex $-1 $93 $255 #
vertex $-1 $93 $256 #
straight-curve $-1 51.654408398693803 0 7.8383937311011262 0 1 0 I I #
face $-1 $257 $258 $22 $-1 $259 reversed single #
loop $-1 $-1 $100 $94 #
plane-surface $-1 -55.023307778758983 -33.063500945954111 0 0 -1 0 0 0 -1 forward_v I I I I #
coedge $-1 $260 $261 $262 $263 forward $95 $-1 #
coedge $-1 $264 $97 $170 $265 forward $61 $-1 #
coedge $-1 $97 $264 $266 $267 forward $61 $-1 #
edge $-1 $268 -36.063500945954111 $172 -33.063500945954111 $97 $269 forward 7 unknown #
coedge $-1 $99 $98 $270 $271 reversed $39 $-1 #
coedge $-1 $272 $273 $99 $168 forward $258 $-1 #
edge $-1 $171 33.063500945954111 $274 36.063500945954111 $167 $275 forward 7 unknown #
coedge $-1 $262 $100 $273 $276 reversed $160 $-1 #
coedge $-1 $100 $262 $163 $265 reversed $160 $-1 #
vertex $-1 $168 $277 #
vertex $-1 $265 $278 #
straight-curve $-1 -51.654408398693803 -33.063500945954111 0 0 0 1 I I #
face $-1 $279 $280 $23 $-1 $281 reversed single #
loop $-1 $-1 $184 $102 #
plane-surface $-1 0 -36.063500945954111 0 0 1 0 0 0 1 forward_v I I I I #
coedge $-1 $282 $105 $283 $284 reversed $65 $-1 #
coedge $-1 $105 $282 $181 $285 reversed $65 $-1 #
coedge $-1 $182 $286 $105 $180 forward $287 $-1 #
edge $-1 $288 -4.6691968655505631 $289 -1.6691968655505631 $179 $290 forward 7 unknown #
coedge $-1 $107 $106 $178 $285 forward $42 $-1 #
coedge $-1 $291 $179 $106 $183 forward $287 $-1 #
edge $-1 $289 18.891223278431717 $188 28.139197839651963 $182 $292 forward 7 unknown #
coedge $-1 $293 $294 $107 $185 forward $175 $-1 #
edge $-1 $189 -28.139197839651963 $295 -18.891223278431717 $184 $296 forward 7 unknown #
coedge $-1 $297 $108 $294 $298 forward $103 $-1 #
coedge $-1 $108 $297 $291 $299 reversed $103 $-1 #
vertex $-1 $299 $300 #
vertex $-1 $298 $301 #
straight-curve $-1 51.654408398693803 0 -4.8383937311011262 0 -1 0 I I #
face $-1 $-1 $302 $24 $-1 $303 forward single #
loop $-1 $-1 $116 $110 #
plane-surface $-1 0 36.063500945954111 0 0 -1 0 0 0 -1 forward_v I I I I #
coedge $-1 $304 $305 $306 $307 reversed $111 $-1 #
coedge $-1 $308 $113 $115 $201 forward $69 $-1 #
coedge $-1 $113 $308 $304 $309 forward $69 $-1 #
coedge $-1 $306 $116 $113 $198 forward $192 $-1 #
edge $-1 $204 11.650938503470464 $310 23.501256732935893 $197 $311 forward 7 unknown #
coedge $-1 $312 $313 $114 $200 forward $302 $-1 #
edge $-1 $314 -0.29054865584230072 $203 3.7762356543376185 $199 $315 forward 7 unknown #
edge $-1 $204 -72.127001891908236 $314 -66.049288023448852 $115 $316 forward 7 unknown #
coedge $-1 $116 $306 $312 $317 reversed $192 $-1 #
vertex $-1 $317 $318 #
vertex $-1 $117 $319 #
straight-curve $-1 -29.227036121673642 36.063500945954111 63.02483558743026 0 0 -1 I I #
coedge $-1 $206 $206 $-1 $320 reversed $120 $-1 #
edge $-1 $321 0 $321 6.2831853071796004 $121 $322 forward 7 unknown #
vertex $-1 $124 $323 #
ellipse-curve $-1 -35.152195236406357 34.030108790864155 5.5800828998968566 0 0.74314483375859142 0.66913059716165679 1 0 0 1 I I #
face $-1 $-1 $222 $26 $-1 $324 reversed single #
loop $-1 $-1 $325 $125 #
plane-surface $-1 0 0 7.8383937311011262 0 0 1 1 0 0 forward_v I I I I #
coedge $-1 $326 $327 $328 $329 reversed $126 $-1 #
coedge $-1 $330 $128 $130 $220 forward $78 $-1 #
coedge $-1 $128 $330 $326 $331 forward $78 $-1 #
coedge $-1 $328 $131 $128 $217 forward $222 $-1 #
edge $-1 $224 -22.24616883239095 $332 -10.39585060292552 $216 $333 forward 7 unknown #
coedge $-1 $334 $335 $129 $219 forward $211 $-1 #
edge $-1 $336 -0.29054865584230072 $223 3.7762356543376185 $218 $337 forward 7 unknown #
edge $-1 $224 -72.127001891908236 $336 -66.049288023448852 $130 $338 forward 7 unknown #
coedge $-1 $131 $328 $334 $339 reversed $222 $-1 #
loop $-1 $-1 $328 $210 #
vertex $-1 $339 $340 #
vertex $-1 $132 $341 #
straight-curve $-1 38.567178550049185 36.063500945954111 63.02483558743026 0 0 -1 I I #
coedge $-1 $226 $226 $-1 $342 reversed $135 $-1 #
edge $-1 $343 0 $343 6.2831853071796004 $136 $344 forward 7 unknown #
vertex $-1 $139 $345 #
ellipse-curve $-1 32.64201943531647 34.030108790864155 5.5800828998968566 0 0.74314483375859142 0.66913059716165679 1 0 0 1 I I #
face $-1 $-1 $155 $21 $-1 $346 reversed single #
loop $-1 $-1 $246 $140 #
plane-surface $-1 0 36.063500945954111 0 0 -1 0 0 0 -1 forward_v I I I I #
coedge $-1 $347 $244 $247 $348 forward $141 $-1 #
coedge $-1 $250 $143 $144 $238 reversed $87 $-1 #
coedge $-1 $244 $347 $143 $236 reversed $141 $-1 #
edge $-1 $251 -7.8383937311011262 $349 7.8383937311011262 $235 $350 forward 7 unknown #
coedge $-1 $145 $144 $347 $351 forward $57 $-1 #
edge $-1 $242 -51.654408398693803 $349 51.654408398693803 $234 $352 forward 7 unknown #
coedge $-1 $247 $246 $145 $240 reversed $231 $-1 #
edge $-1 $353 -51.654408398693803 $241 51.654408398693803 $239 $354 forward 7 unknown #
vertex $-1 $147 $355 #
vertex $-1 $253 $356 #
straight-curve $-1 51.654408398693803 0 -7.8383937311011262 0 -1 0 I I #
coedge $-1 $233 $235 $148 $245 reversed $141 $-1 #
edge $-1 $248 -36.063500945954111 $251 36.063500945954111 $244 $357 forward 7 unknown #
coedge $-1 $239 $149 $154 $254 forward $231 $-1 #
coedge $-1 $149 $239 $233 $348 reversed $231 $-1 #
vertex $-1 $150 $358 #
straight-curve $-1 0 36.063500945954111 7.8383937311011262 -1 0 0 I I #
coedge $-1 $151 $234 $153 $253 reversed $87 $-1 #
vertex $-1 $245 $359 #
straight-curve $-1 0 -36.063500945954111 7.8383937311011262 1 0 0 I I #
edge $-1 $156 -7.8383937311011262 $242 7.8383937311011262 $153 $360 forward 7 unknown #
edge $-1 $157 -7.8383937311011262 $241 7.8383937311011262 $154 $361 forward 7 unknown #
point $-1 51.654408398693803 -36.063500945954111 7.8383937311011262 #
point $-1 51.654408398693803 36.063500945954111 7.8383937311011262 #
face $-1 $-1 $362 $22 $-1 $363 reversed single #
loop $-1 $-1 $167 $159 #
plane-surface $-1 0 0 -7.8383937311011262 0 0 1 1 0 0 forward_v I I I I #
coedge $-1 $364 $162 $365 $366 reversed $95 $-1 #
coedge $-1 $162 $364 $264 $367 reversed $95 $-1 #
coedge $-1 $170 $169 $162 $263 reversed $160 $-1 #
edge $-1 $368 -7.8383937311011262 $369 7.8383937311011262 $262 $370 forward 7 unknown #
coedge $-1 $164 $163 $261 $367 forward $61 $-1 #
edge $-1 $172 -3.3688993800651801 $368 3.3688993800651801 $170 $371 forward 7 unknown #
coedge $-1 $372 $270 $164 $267 reversed $362 $-1 #
edge $-1 $373 -58.392207158824164 $268 -51.654408398693803 $266 $374 forward 7 unknown #
vertex $-1 $271 $375 #
straight-curve $-1 -51.654408398693803 0 7.8383937311011262 0 1 0 I I #
coedge $-1 $266 $376 $166 $271 forward $362 $-1 #
edge $-1 $274 -7.8383937311011262 $268 7.8383937311011262 $270 $377 forward 7 unknown #
coedge $-1 $365 $167 $376 $378 forward $258 $-1 #
coedge $-1 $167 $365 $169 $276 forward $258 $-1 #
vertex $-1 $378 $379 #
straight-curve $-1 -51.654408398693803 0 -7.8383937311011262 0 -1 0 I I #
edge $-1 $369 -3.3688993800651801 $171 3.3688993800651801 $169 $380 forward 7 unknown #
point $-1 -51.654408398693803 -33.063500945954111 -7.8383937311011262 #
point $-1 -51.654408398693803 -33.063500945954111 7.8383937311011262 #
face $-1 $-1 $287 $23 $-1 $381 reversed single #
loop $-1 $-1 $283 $174 #
plane-surface $-1 0 0 -7.8383937311011262 0 0 1 1 0 0 forward_v I I I I #
coedge $-1 $178 $177 $293 $382 reversed $65 $-1 #
coedge $-1 $383 $384 $177 $284 forward $280 $-1 #
edge $-1 $385 -36.063500945954111 $288 36.063500945954111 $283 $386 forward 7 unknown #
edge $-1 $289 -36.063500945954111 $295 36.063500945954111 $178 $387 forward 7 unknown #
coedge $-1 $179 $291 $383 $388 reversed $287 $-1 #
loop $-1 $-1 $182 $279 #
vertex $-1 $388 $389 #
vertex $-1 $183 $390 #
straight-curve $-1 42.406433837473557 36.063500945954111 -3.1691968655505631 0 0 1 I I #
coedge $-1 $286 $182 $187 $299 forward $287 $-1 #
straight-curve $-1 23.51521055904184 36.063500945954111 -4.8383937311011262 1 0 0 I I #
coedge $-1 $391 $184 $282 $382 forward $175 $-1 #
coedge $-1 $184 $391 $186 $298 reversed $175 $-1 #
vertex $-1 $185 $392 #
straight-curve $-1 23.51521055904184 -36.063500945954111 -4.8383937311011262 -1 0 0 I I #
coedge $-1 $187 $186 $393 $394 reversed $103 $-1 #
edge $-1 $189 4.8383937311011262 $395 7.8383937311011262 $186 $396 forward 7 unknown #
edge $-1 $188 4.8383937311011262 $397 7.8383937311011262 $187 $398 forward 7 unknown #
point $-1 51.654408398693803 36.063500945954111 -4.8383937311011262 #
point $-1 51.654408398693803 -36.063500945954111 -4.8383937311011262 #
loop $-1 $-1 $199 $191 #
plane-surface $-1 0 0 7.8383937311011262 0 0 1 1 0 0 forward_v I I I I #
coedge $-1 $305 $194 $196 $309 reversed $111 $-1 #
coedge $-1 $194 $304 $399 $400 reversed $111 $-1 #
coedge $-1 $202 $197 $194 $307 forward $192 $-1 #
edge $-1 $310 -59.703063518737672 $401 -55.186441856329132 $306 $402 forward 7 unknown #
coedge $-1 $196 $195 $313 $403 reversed $69 $-1 #
edge $-1 $404 66.049288023448852 $310 72.127001891908236 $304 $405 forward 7 unknown #
vertex $-1 $198 $406 #
straight-curve $-1 -17.576097618203178 36.063500945954111 3.3217720686925887 -1 0 0 I I #
coedge $-1 $399 $199 $202 $317 forward $302 $-1 #
coedge $-1 $199 $399 $308 $403 forward $302 $-1 #
vertex $-1 $200 $407 #
straight-curve $-1 -29.227036121673642 32.287265291616492 7.838393731101128 0 1 0 I I #
straight-curve $-1 -29.227036121673642 -12.198882901458404 56.922580899160351 0 -0.66913059716165679 0.74314483375859142 I I #
edge $-1 $203 29.227036121673642 $401 41.077354351139071 $202 $408 forward 7 unknown #
point $-1 -29.227036121673642 36.063500945954111 7.8383937311011262 #
point $-1 -29.227036121673642 36.063500945954111 3.3217720686925887 #
edge $-1 $409 1 $409 0 $206 $-1 forward 7 unknown #
vertex $-1 $207 $410 #
ellipse-curve $-1 -35.152195236406357 32.204735337540384 3.9365093010762235 0 0.74314483375859142 0.66913059716165679 1 0 0 1 I I #
point $-1 -34.152195236406357 34.030108790864162 5.5800828998968655 #
plane-surface $-1 0 36.063500945954111 0 0 -1 0 0 0 -1 forward_v I I I I #
coedge $-1 $335 $334 $327 $411 forward $211 $-1 #
coedge $-1 $327 $213 $215 $331 reversed $126 $-1 #
coedge $-1 $213 $326 $325 $411 reversed $126 $-1 #
coedge $-1 $221 $216 $213 $329 forward $222 $-1 #
edge $-1 $332 -59.703063518737672 $412 -55.186441856329132 $328 $413 forward 7 unknown #
coedge $-1 $215 $214 $335 $414 reversed $78 $-1 #
edge $-1 $415 66.049288023448852 $332 72.127001891908236 $326 $416 forward 7 unknown #
vertex $-1 $217 $417 #
straight-curve $-1 16.321009717658235 36.063500945954111 3.3217720686925887 -1 0 0 I I #
coedge $-1 $325 $218 $221 $339 forward $211 $-1 #
coedge $-1 $218 $325 $330 $414 forward $211 $-1 #
vertex $-1 $219 $418 #
straight-curve $-1 38.567178550049185 32.287265291616492 7.838393731101128 0 1 0 I I #
straight-curve $-1 38.567178550049185 -12.198882901458404 56.922580899160351 0 -0.66913059716165679 0.74314483375859142 I I #
edge $-1 $223 -38.567178550049185 $412 -26.716860320583756 $221 $419 forward 7 unknown #
point $-1 38.567178550049185 36.063500945954111 7.8383937311011262 #
point $-1 38.567178550049185 36.063500945954111 3.3217720686925887 #
edge $-1 $420 1 $420 0 $226 $-1 forward 7 unknown #
vertex $-1 $227 $421 #
ellipse-curve $-1 32.64201943531647 32.204735337540384 3.9365093010762235 0 0.74314483375859142 0.66913059716165679 1 0 0 1 I I #
point $-1 33.64201943531647 34.030108790864162 5.5800828998968655 #
plane-surface $-1 51.654408398693803 0 0 -1 0 0 0 0 1 forward_v I I I I #
coedge $-1 $235 $233 $237 $351 reversed $141 $-1 #
edge $-1 $248 -7.8383937311011262 $353 7.8383937311011262 $247 $422 forward 7 unknown #
vertex $-1 $351 $423 #
straight-curve $-1 -51.654408398693803 -36.063500945954111 0 0 0 -1 I I #
edge $-1 $349 -36.063500945954111 $353 36.063500945954111 $347 $424 forward 7 unknown #
straight-curve $-1 0 -36.063500945954111 -7.8383937311011262 -1 0 0 I I #
vertex $-1 $240 $425 #
straight-curve $-1 0 36.063500945954111 -7.8383937311011262 1 0 0 I I #
point $-1 51.654408398693803 36.063500945954111 -7.8383937311011262 #
point $-1 51.654408398693803 -36.063500945954111 -7.8383937311011262 #
straight-curve $-1 -51.654408398693803 0 7.8383937311011262 0 -1 0 I I #
point $-1 -51.654408398693803 36.063500945954111 7.8383937311011262 #
point $-1 -51.654408398693803 -36.063500945954111 7.8383937311011262 #
straight-curve $-1 51.654408398693803 -36.063500945954111 0 0 0 -1 I I #
straight-curve $-1 51.654408398693803 36.063500945954111 0 0 0 -1 I I #
loop $-1 $-1 $270 $257 #
plane-surface $-1 0 -36.063500945954111 0 0 1 0 0 0 1 forward_v I I I I #
coedge $-1 $261 $260 $372 $426 reversed $95 $-1 #
coedge $-1 $273 $272 $260 $366 forward $258 $-1 #
edge $-1 $427 -1.5 $369 1.5 $260 $428 forward 7 unknown #
edge $-1 $368 -1.5 $373 1.5 $261 $429 forward 7 unknown #
vertex $-1 $265 $430 #
vertex $-1 $276 $431 #
straight-curve $-1 -58.392207158824164 -33.063500945954111 0 0 0 -1 I I #
straight-curve $-1 -55.023307778758983 -33.063500945954111 7.8383937311011262 -1 0 0 I I #
coedge $-1 $376 $266 $364 $426 forward $362 $-1 #
vertex $-1 $367 $432 #
straight-curve $-1 0 -36.063500945954111 7.8383937311011262 1 0 0 I I #
point $-1 -51.654408398693803 -36.063500945954111 7.8383937311011262 #
coedge $-1 $270 $372 $272 $378 reversed $362 $-1 #
straight-curve $-1 -51.654408398693803 -36.063500945954111 0 0 0 1 I I #
edge $-1 $274 -3.3688993800651801 $427 3.3688993800651801 $376 $433 forward 7 unknown #
point $-1 -51.654408398693803 -36.063500945954111 -7.8383937311011262 #
straight-curve $-1 -55.023307778758983 -33.063500945954111 -7.8383937311011262 1 0 0 I I #
plane-surface $-1 0 36.063500945954111 0 0 -1 0 0 0 -1 forward_v I I I I #
edge $-1 $295 1.6691968655505631 $385 4.6691968655505631 $293 $434 forward 7 unknown #
coedge $-1 $393 $283 $286 $388 forward $280 $-1 #
coedge $-1 $283 $393 $391 $435 forward $280 $-1 #
vertex $-1 $382 $436 #
straight-curve $-1 42.406433837473557 0 -7.8383937311011262 0 1 0 I I #
straight-curve $-1 42.406433837473557 0 -4.8383937311011262 0 -1 0 I I #
edge $-1 $288 42.406433837473557 $397 51.654408398693803 $286 $437 forward 7 unknown #
point $-1 42.406433837473557 36.063500945954111 -7.8383937311011262 #
point $-1 42.406433837473557 36.063500945954111 -4.8383937311011262 #
coedge $-1 $294 $293 $384 $435 reversed $175 $-1 #
point $-1 42.406433837473557 -36.063500945954111 -4.8383937311011262 #
coedge $-1 $384 $383 $297 $394 forward $280 $-1 #
edge $-1 $397 -36.063500945954111 $395 36.063500945954111 $297 $438 forward 7 unknown #
vertex $-1 $298 $439 #
straight-curve $-1 51.654408398693803 -36.063500945954111 0 0 0 -1 I I #
vertex $-1 $394 $440 #
straight-curve $-1 51.654408398693803 36.063500945954111 0 0 0 -1 I I #
coedge $-1 $313 $312 $305 $400 forward $302 $-1 #
edge $-1 $401 -3.7762356543376185 $404 0.29054865584230072 $399 $441 forward 7 unknown #
vertex $-1 $400 $442 #
straight-curve $-1 -41.077354351139071 36.063500945954111 63.02483558743026 0 0 1 I I #
edge $-1 $404 -23.501256732935893 $314 -11.650938503470464 $313 $443 forward 7 unknown #
vertex $-1 $403 $444 #
straight-curve $-1 -41.077354351139071 -12.198882901458404 56.922580899160351 0 0.66913059716165679 -0.74314483375859142 I I #
point $-1 -41.077354351139071 36.063500945954111 3.3217720686925887 #
point $-1 -29.227036121673642 31.996716635774192 7.838393731101128 #
straight-curve $-1 0 36.063500945954111 7.8383937311011262 -1 0 0 I I #
vertex $-1 $320 $445 #
point $-1 -34.152195236406357 32.204735337540384 3.9365093010762235 #
edge $-1 $412 -3.7762356543376185 $415 0.29054865584230072 $325 $446 forward 7 unknown #
vertex $-1 $329 $447 #
straight-curve $-1 26.716860320583756 36.063500945954111 63.02483558743026 0 0 1 I I #
edge $-1 $415 10.39585060292552 $336 22.24616883239095 $335 $448 forward 7 unknown #
vertex $-1 $414 $449 #
straight-curve $-1 26.716860320583756 -12.198882901458404 56.922580899160351 0 0.66913059716165679 -0.74314483375859142 I I #
point $-1 26.716860320583756 36.063500945954111 3.3217720686925887 #
point $-1 38.567178550049185 31.996716635774192 7.838393731101128 #
straight-curve $-1 0 36.063500945954111 7.8383937311011262 -1 0 0 I I #
vertex $-1 $342 $450 #
point $-1 33.64201943531647 32.204735337540384 3.9365093010762235 #
straight-curve $-1 -51.654408398693803 36.063500945954111 0 0 0 -1 I I #
point $-1 -51.654408398693803 -36.063500945954111 -7.8383937311011262 #
straight-curve $-1 -51.654408398693803 0 -7.8383937311011262 0 1 0 I I #
point $-1 -51.654408398693803 36.063500945954111 -7.8383937311011262 #
edge $-1 $373 -7.8383937311011262 $427 7.8383937311011262 $364 $451 forward 7 unknown #
vertex $-1 $366 $452 #
straight-curve $-1 -58.392207158824164 -34.563500945954111 -7.8383937311011262 0 1 0 I I #
straight-curve $-1 -58.392207158824164 -34.563500945954111 7.8383937311011262 0 -1 0 I I #
point $-1 -58.392207158824164 -33.063500945954111 7.8383937311011262 #
point $-1 -58.392207158824164 -33.063500945954111 -7.8383937311011262 #
point $-1 -58.392207158824164 -36.063500945954111 7.8383937311011262 #
straight-curve $-1 -55.023307778758983 -36.063500945954111 -7.8383937311011262 -1 0 0 I I #
straight-curve $-1 42.406433837473557 -36.063500945954111 -3.1691968655505631 0 0 -1 I I #
edge $-1 $395 -106.67771617745279 $385 -97.429741616232548 $391 $453 forward 7 unknown #
point $-1 42.406433837473557 -36.063500945954111 -7.8383937311011262 #
straight-curve $-1 0 36.063500945954111 -7.8383937311011262 1 0 0 I I #
straight-curve $-1 51.654408398693803 0 -7.8383937311011262 0 -1 0 I I #
point $-1 51.654408398693803 -36.063500945954111 -7.8383937311011262 #
point $-1 51.654408398693803 36.063500945954111 -7.8383937311011262 #
straight-curve $-1 -41.077354351139071 32.287265291616492 7.838393731101128 0 -1 0 I I #
point $-1 -41.077354351139071 36.063500945954111 7.8383937311011262 #
straight-curve $-1 -17.576097618203178 31.996716635774188 7.838393731101128 1 0 0 I I #
point $-1 -41.077354351139071 31.996716635774192 7.838393731101128 #
point $-1 -35.152195236406357 31.461590503781792 3.2673787039145674 #
straight-curve $-1 26.716860320583756 32.287265291616492 7.838393731101128 0 -1 0 I I #
point $-1 26.716860320583756 36.063500945954111 7.8383937311011262 #
straight-curve $-1 16.321009717658235 31.996716635774188 7.838393731101128 1 0 0 I I #
point $-1 26.716860320583756 31.996716635774192 7.838393731101128 #
point $-1 32.64201943531647 31.461590503781792 3.2673787039145674 #
straight-curve $-1 -58.392207158824164 -36.063500945954111 0 0 0 -1 I I #
point $-1 -58.392207158824164 -36.063500945954111 -7.8383937311011262 #
straight-curve $-1 -55.023307778758983 -36.063500945954111 -7.8383937311011262 -1 0 0 I I #
End-of-ACIS-data 