500 0 6 0           
7 Unknown 11 ACIS 5.0 NT 24 Thu Mar 25 15:32:53 1999 
-1 9.9999999999999995e-007 1e-010 
body $-1 $6 $-1 $7 #
body $-1 $8 $-1 $9 #
body $-1 $10 $-1 $11 #
body $-1 $12 $-1 $13 #
body $-1 $14 $-1 $15 #
body $-1 $16 $-1 $17 #
lump $-1 $-1 $18 $0 #
transform $-1 1 0 0 0 1 0 0 0 1 65.797906430249952 37.696997516539184 14.992284702186105 1 rotate no_reflect no_shear #
lump $-1 $-1 $19 $1 #
transform $-1 1 0 0 0 1 0 0 0 1 65.797906430249952 37.696997516539184 14.992284702186105 1 rotate no_reflect no_shear #
lump $-1 $-1 $20 $2 #
transform $-1 1 0 0 0 1 0 0 0 1 65.797906430249952 37.696997516539184 14.992284702186105 1 rotate no_reflect no_shear #
lump $-1 $-1 $21 $3 #
transform $-1 1 0 0 0 1 0 0 0 1 65.797906430249952 37.696997516539184 14.992284702186105 1 rotate no_reflect no_shear #
lump $-1 $-1 $22 $4 #
transform $-1 1 0 0 0 1 0 0 0 1 65.797906430249952 37.696997516539184 14.992284702186105 1 rotate no_reflect no_shear #
lump $-1 $-1 $23 $5 #
transform $-1 1 0 0 0 1 0 0 0 1 65.797906430249952 37.696997516539184 14.992284702186105 1 rotate no_reflect no_shear #
shell $-1 $-1 $-1 $24 $-1 $6 #
shell $-1 $-1 $-1 $25 $-1 $8 #
shell $-1 $-1 $-1 $26 $-1 $10 #
shell $-1 $-1 $-1 $27 $-1 $12 #
shell $-1 $-1 $-1 $28 $-1 $14 #
shell $-1 $-1 $-1 $29 $-1 $16 #
face $-1 $30 $31 $18 $-1 $32 forward single #
face $-1 $33 $34 $19 $-1 $35 reversed single #
face $-1 $36 $37 $20 $-1 $38 reversed single #
face $-1 $39 $40 $21 $-1 $41 reversed single #
face $-1 $42 $43 $22 $-1 $44 forward single #
face $-1 $45 $46 $23 $-1 $47 forward single #
face $-1 $48 $49 $18 $-1 $50 reversed single #
loop $-1 $-1 $51 $24 #
plane-surface $-1 0 0 14.992284702186105 0 0 1 1 0 0 forward_v I I I I #
face $-1 $52 $53 $19 $-1 $54 reversed single #
loop $-1 $-1 $55 $25 #
plane-surface $-1 -60.599659881897495 0 8.422253483198368 0 0 1 1 0 0 forward_v I I I I #
face $-1 $56 $57 $20 $-1 $58 reversed single #
loop $-1 $-1 $59 $26 #
plane-surface $-1 58.859361586431305 -30.973086632798694 0 0 1 0 0 0 1 forward_v I I I I #
face $-1 $60 $61 $21 $-1 $62 reversed single #
loop $-1 $-1 $63 $27 #
plane-surface $-1 -29.320397051415071 64.530006109751525 156.97714773487252 1 0 0 0 -0.64278761758704617 -0.76604443648966558 forward_v I I I I #
face $-1 $64 $65 $22 $-1 $66 forward single #
loop $-1 $67 $68 $28 #
cone-surface $-1 -22.35342879769302 32.000562353186069 9.7345430439582827 0 -0.64278761758704617 -0.76604443648966558 1.5 0 0 1 I I 0 1 1.5 forward I I I I #
face $-1 $69 $70 $23 $-1 $71 forward single #
loop $-1 $72 $73 $29 #
cone-surface $-1 -11.902976417109947 32.000562353186069 9.7345430439582827 0 -0.64278761758704617 -0.76604443648966558 1.5 0 0 1 I I 0 1 1.5 forward I I I I #
face $-1 $74 $75 $18 $-1 $76 reversed single #
loop $-1 $-1 $77 $30 #
plane-surface $-1 0 0 -14.992284702186105 0 0 1 1 0 0 forward_v I I I I #
coedge $-1 $78 $79 $80 $81 forward $31 $-1 #
face $-1 $82 $83 $19 $-1 $84 reversed single #
loop $-1 $-1 $85 $33 #
plane-surface $-1 -55.401413333545037 0 11.707269092692236 -1 0 0 0 0 1 forward_v I I I I #
coedge $-1 $86 $87 $88 $89 forward $34 $-1 #
face $-1 $90 $91 $20 $-1 $92 reversed single #
loop $-1 $-1 $93 $36 #
plane-surface $-1 51.920816742612651 -28.204636147630158 0 1 0 0 0 0 -1 forward_v I I I I #
coedge $-1 $94 $95 $96 $97 forward $37 $-1 #
face $-1 $98 $99 $21 $-1 $100 reversed single #
loop $-1 $-1 $101 $39 #
plane-surface $-1 -17.128202607401484 -20.058152923279977 56.168907427751378 0 0.64278761758704617 0.76604443648966558 1 0 0 forward_v I I I I #
coedge $-1 $102 $103 $104 $105 reversed $40 $-1 #
face $-1 $-1 $106 $22 $-1 $107 forward single #
loop $-1 $108 $109 $42 #
cone-surface $-1 -22.35342879769302 30.163418178417416 7.5451199194215945 0 -0.64278761758704617 -0.76604443648966558 0.75 0 0 1 I I -0.70710678118654757 0.70710678118654757 0.75 forward I I I I #
loop $-1 $-1 $110 $28 #
coedge $-1 $68 $68 $111 $112 reversed $43 $-1 #
face $-1 $-1 $113 $23 $-1 $114 forward single #
loop $-1 $115 $116 $45 #
cone-surface $-1 -11.902976417109947 30.163418178417416 7.5451199194215945 0 -0.64278761758704617 -0.76604443648966558 0.75 0 0 1 I I -0.70710678118654757 0.70710678118654757 0.75 forward I I I I #
loop $-1 $-1 $117 $29 #
coedge $-1 $73 $73 $118 $119 reversed $46 $-1 #
face $-1 $120 $121 $18 $-1 $122 reversed single #
loop $-1 $-1 $123 $48 #
plane-surface $-1 0 -37.696997516539184 0 0 1 0 0 0 1 forward_v I I I I #
coedge $-1 $124 $125 $126 $127 forward $49 $-1 #
coedge $-1 $128 $51 $129 $130 forward $31 $-1 #
coedge $-1 $51 $128 $131 $132 forward $31 $-1 #
coedge $-1 $133 $134 $51 $81 reversed $135 $-1 #
edge $-1 $136 -37.696997516539184 $137 37.696997516539184 $80 $138 forward 7 unknown #
face $-1 $139 $140 $19 $-1 $141 reversed single #
loop $-1 $-1 $142 $52 #
plane-surface $-1 0 37.696997516539184 0 0 -1 0 0 0 -1 forward_v I I I I #
coedge $-1 $88 $143 $144 $145 reversed $53 $-1 #
coedge $-1 $146 $55 $147 $148 reversed $34 $-1 #
coedge $-1 $55 $146 $149 $150 reversed $34 $-1 #
coedge $-1 $151 $85 $55 $89 reversed $53 $-1 #
edge $-1 $152 -37.696997516539184 $153 37.696997516539184 $88 $154 forward 7 unknown #
face $-1 $155 $156 $20 $-1 $157 forward single #
loop $-1 $-1 $158 $56 #
plane-surface $-1 58.859361586431305 -25.436185662461622 0 0 -1 0 0 0 -1 forward_v I I I I #
coedge $-1 $159 $160 $161 $162 forward $57 $-1 #
coedge $-1 $163 $59 $164 $165 reversed $37 $-1 #
coedge $-1 $59 $163 $166 $167 reversed $37 $-1 #
coedge $-1 $160 $159 $59 $97 reversed $57 $-1 #
edge $-1 $168 -14.992284702186105 $169 14.992284702186105 $96 $170 forward 7 unknown #
face $-1 $171 $172 $21 $-1 $173 reversed single #
loop $-1 $-1 $174 $60 #
plane-surface $-1 -4.9360081633878963 64.530006109751525 156.97714773487252 -1 0 0 0 0.64278761758704617 0.76604443648966558 forward_v I I I I #
coedge $-1 $175 $176 $177 $178 reversed $61 $-1 #
coedge $-1 $103 $63 $179 $180 reversed $40 $-1 #
coedge $-1 $63 $102 $175 $181 reversed $40 $-1 #
coedge $-1 $177 $182 $63 $105 forward $183 $-1 #
edge $-1 $184 -5.4319944616634217 $185 3.2507689418861077 $104 $186 forward 7 unknown #
loop $-1 $-1 $111 $64 #
plane-surface $-1 -17.128202607401484 -20.058152923279977 56.168907427751378 0 0.64278761758704617 0.76604443648966558 1 0 0 forward_v I I I I #
loop $-1 $-1 $187 $42 #
coedge $-1 $109 $109 $110 $188 reversed $65 $-1 #
coedge $-1 $110 $110 $109 $188 forward $67 $-1 #
coedge $-1 $111 $111 $68 $112 forward $106 $-1 #
edge $-1 $189 5.8386158202769635e-016 $189 6.2831853071796013 $111 $190 forward 7 unknown #
loop $-1 $-1 $118 $69 #
plane-surface $-1 -17.128202607401484 -20.058152923279977 56.168907427751378 0 0.64278761758704617 0.76604443648966558 1 0 0 forward_v I I I I #
loop $-1 $-1 $191 $45 #
coedge $-1 $116 $116 $117 $192 reversed $70 $-1 #
coedge $-1 $117 $117 $116 $192 forward $72 $-1 #
coedge $-1 $118 $118 $73 $119 forward $113 $-1 #
edge $-1 $193 5.8386158202769635e-016 $193 6.2831853071796013 $118 $194 forward 7 unknown #
face $-1 $195 $196 $18 $-1 $197 reversed single #
loop $-1 $-1 $198 $74 #
plane-surface $-1 -65.797906430249952 0 0 1 0 0 0 0 -1 forward_v I I I I #
coedge $-1 $199 $131 $200 $201 forward $75 $-1 #
coedge $-1 $202 $77 $199 $203 forward $49 $-1 #
coedge $-1 $77 $202 $204 $205 forward $49 $-1 #
coedge $-1 $134 $133 $77 $127 reversed $135 $-1 #
edge $-1 $206 -37.696997516539184 $207 37.696997516539184 $126 $208 forward 7 unknown #
coedge $-1 $79 $78 $209 $210 forward $31 $-1 #
coedge $-1 $211 $212 $78 $130 reversed $196 $-1 #
edge $-1 $137 -65.797906430249952 $213 65.797906430249952 $129 $214 forward 7 unknown #
coedge $-1 $123 $215 $79 $132 reversed $75 $-1 #
edge $-1 $216 -65.797906430249952 $136 65.797906430249952 $131 $217 forward 7 unknown #
coedge $-1 $126 $80 $215 $218 forward $135 $-1 #
coedge $-1 $80 $126 $211 $219 reversed $135 $-1 #
loop $-1 $-1 $133 $195 #
vertex $-1 $81 $220 #
vertex $-1 $81 $221 #
straight-curve $-1 65.797906430249952 0 14.992284702186105 0 1 0 I I #
face $-1 $222 $223 $19 $-1 $224 forward single #
loop $-1 $-1 $225 $82 #
plane-surface $-1 -65.797906430249952 0 0 1 0 0 0 0 -1 forward_v I I I I #
coedge $-1 $149 $226 $151 $227 forward $83 $-1 #
coedge $-1 $85 $151 $228 $229 reversed $53 $-1 #
coedge $-1 $230 $147 $85 $145 forward $231 $-1 #
edge $-1 $153 2.5686189368522498 $232 9.1386501558399864 $144 $233 forward 7 unknown #
coedge $-1 $87 $86 $225 $234 reversed $34 $-1 #
coedge $-1 $144 $235 $86 $148 forward $231 $-1 #
edge $-1 $236 -35.498076489301205 $153 -25.101583392596289 $147 $237 forward 7 unknown #
coedge $-1 $238 $142 $87 $150 forward $83 $-1 #
edge $-1 $152 25.101583392596289 $239 35.498076489301205 $149 $240 forward 7 unknown #
coedge $-1 $143 $88 $142 $227 reversed $53 $-1 #
vertex $-1 $150 $241 #
vertex $-1 $148 $242 #
straight-curve $-1 -55.401413333545037 0 8.422253483198368 0 -1 0 I I #
face $-1 $243 $244 $20 $-1 $245 reversed single #
loop $-1 $-1 $246 $90 #
plane-surface $-1 0 0 14.992284702186105 0 0 1 1 0 0 forward_v I I I I #
coedge $-1 $247 $248 $249 $250 reversed $91 $-1 #
coedge $-1 $96 $93 $251 $252 reversed $57 $-1 #
coedge $-1 $93 $96 $253 $254 reversed $57 $-1 #
coedge $-1 $248 $247 $93 $162 reversed $91 $-1 #
edge $-1 $255 -14.992284702186105 $256 14.992284702186105 $161 $257 forward 7 unknown #
coedge $-1 $95 $94 $258 $259 reversed $37 $-1 #
coedge $-1 $251 $260 $94 $165 forward $244 $-1 #
edge $-1 $261 -36.3682256370343 $169 -22.491135949396998 $164 $262 forward 7 unknown #
coedge $-1 $263 $253 $95 $167 forward $156 $-1 #
edge $-1 $168 22.491135949396998 $264 36.3682256370343 $166 $265 forward 7 unknown #
vertex $-1 $167 $266 #
vertex $-1 $165 $267 #
straight-curve $-1 51.920816742612651 -30.973086632798694 0 0 0 -1 I I #
face $-1 $-1 $183 $21 $-1 $268 forward single #
loop $-1 $-1 $269 $98 #
plane-surface $-1 0 37.696997516539184 0 0 -1 0 0 0 -1 forward_v I I I I #
coedge $-1 $270 $271 $272 $273 reversed $99 $-1 #
coedge $-1 $274 $101 $103 $181 forward $61 $-1 #
coedge $-1 $101 $274 $270 $275 forward $61 $-1 #
coedge $-1 $272 $104 $101 $178 forward $183 $-1 #
edge $-1 $185 -20.756295747714329 $276 3.6280931403128456 $177 $277 forward 7 unknown #
coedge $-1 $278 $279 $102 $180 forward $172 $-1 #
edge $-1 $280 -70.781992887366926 $184 -63.496289165250154 $179 $281 forward 7 unknown #
edge $-1 $185 64.059452296448669 $280 75.393995033078369 $103 $282 forward 7 unknown #
coedge $-1 $104 $272 $278 $283 forward $183 $-1 #
loop $-1 $-1 $272 $171 #
vertex $-1 $180 $284 #
vertex $-1 $105 $285 #
straight-curve $-1 -29.320397051415071 32.265003054875763 14.992284702186112 0 -1 0 I I #
coedge $-1 $187 $187 $-1 $286 reversed $108 $-1 #
edge $-1 $287 0 $287 6.2831853071796004 $109 $288 forward 7 unknown #
vertex $-1 $112 $289 #
ellipse-curve $-1 -22.35342879769302 33.355615814764434 11.349432841127715 0 0.64278761758704617 0.76604443648966558 1.5 0 0 1 I I #
coedge $-1 $191 $191 $-1 $290 reversed $115 $-1 #
edge $-1 $291 0 $291 6.2831853071796004 $116 $292 forward 7 unknown #
vertex $-1 $119 $293 #
ellipse-curve $-1 -11.902976417109947 33.355615814764434 11.349432841127715 0 0.64278761758704617 0.76604443648966558 1.5 0 0 1 I I #
face $-1 $-1 $135 $18 $-1 $294 reversed single #
loop $-1 $-1 $211 $120 #
plane-surface $-1 0 37.696997516539184 0 0 -1 0 0 0 -1 forward_v I I I I #
coedge $-1 $295 $209 $212 $296 forward $121 $-1 #
coedge $-1 $215 $123 $124 $203 reversed $75 $-1 #
coedge $-1 $209 $295 $123 $201 reversed $121 $-1 #
edge $-1 $216 -14.992284702186105 $297 14.992284702186105 $200 $298 forward 7 unknown #
coedge $-1 $125 $124 $295 $299 forward $49 $-1 #
edge $-1 $207 -65.797906430249952 $297 65.797906430249952 $199 $300 forward 7 unknown #
coedge $-1 $212 $211 $125 $205 reversed $196 $-1 #
edge $-1 $301 -65.797906430249952 $206 65.797906430249952 $204 $302 forward 7 unknown #
vertex $-1 $127 $303 #
vertex $-1 $218 $304 #
straight-curve $-1 65.797906430249952 0 -14.992284702186105 0 -1 0 I I #
coedge $-1 $198 $200 $128 $210 reversed $121 $-1 #
edge $-1 $213 -37.696997516539184 $216 37.696997516539184 $209 $305 forward 7 unknown #
coedge $-1 $204 $129 $134 $219 forward $196 $-1 #
coedge $-1 $129 $204 $198 $296 reversed $196 $-1 #
vertex $-1 $130 $306 #
straight-curve $-1 0 37.696997516539184 14.992284702186105 -1 0 0 I I #
coedge $-1 $131 $199 $133 $218 reversed $75 $-1 #
vertex $-1 $210 $307 #
straight-curve $-1 0 -37.696997516539184 14.992284702186105 1 0 0 I I #
edge $-1 $136 -14.992284702186105 $207 14.992284702186105 $133 $308 forward 7 unknown #
edge $-1 $137 -14.992284702186105 $206 14.992284702186105 $134 $309 forward 7 unknown #
point $-1 65.797906430249952 -37.696997516539184 14.992284702186105 #
point $-1 65.797906430249952 37.696997516539184 14.992284702186105 #
face $-1 $-1 $231 $19 $-1 $310 reversed single #
loop $-1 $-1 $228 $139 #
plane-surface $-1 0 0 14.992284702186105 0 0 1 1 0 0 forward_v I I I I #
coedge $-1 $311 $312 $146 $234 forward $140 $-1 #
coedge $-1 $142 $238 $313 $314 reversed $83 $-1 #
edge $-1 $315 -9.1386501558399864 $152 -2.5686189368522498 $142 $316 forward 7 unknown #
coedge $-1 $313 $317 $143 $229 forward $223 $-1 #
edge $-1 $232 -37.696997516539184 $315 37.696997516539184 $228 $318 forward 7 unknown #
coedge $-1 $235 $144 $317 $319 reversed $231 $-1 #
loop $-1 $-1 $144 $222 #
vertex $-1 $145 $320 #
straight-curve $-1 -55.401413333545037 -37.696997516539184 5.8536345463461181 0 0 1 I I #
edge $-1 $239 -37.696997516539184 $236 37.696997516539184 $225 $321 forward 7 unknown #
coedge $-1 $147 $230 $311 $322 forward $231 $-1 #
vertex $-1 $234 $323 #
straight-curve $-1 -30.299829940948747 -37.696997516539184 8.422253483198368 1 0 0 I I #
coedge $-1 $226 $149 $312 $324 reversed $83 $-1 #
vertex $-1 $234 $325 #
straight-curve $-1 -30.299829940948747 37.696997516539184 8.422253483198368 -1 0 0 I I #
point $-1 -55.401413333545037 37.696997516539184 8.422253483198368 #
point $-1 -55.401413333545037 -37.696997516539184 8.422253483198368 #
face $-1 $-1 $326 $20 $-1 $327 reversed single #
loop $-1 $-1 $328 $155 #
plane-surface $-1 0 0 -14.992284702186105 0 0 1 1 0 0 forward_v I I I I #
coedge $-1 $253 $263 $248 $329 forward $156 $-1 #
coedge $-1 $161 $158 $328 $330 reversed $91 $-1 #
coedge $-1 $158 $161 $246 $329 reversed $91 $-1 #
coedge $-1 $331 $332 $158 $250 forward $326 $-1 #
edge $-1 $333 -14.992284702186105 $334 14.992284702186105 $249 $335 forward 7 unknown #
coedge $-1 $328 $164 $159 $252 forward $244 $-1 #
edge $-1 $169 -16.870768558983613 $256 -11.333867588646543 $251 $336 forward 7 unknown #
coedge $-1 $166 $246 $160 $254 forward $156 $-1 #
edge $-1 $255 11.333867588646543 $168 16.870768558983613 $253 $337 forward 7 unknown #
vertex $-1 $254 $338 #
vertex $-1 $252 $339 #
straight-curve $-1 51.920816742612651 -25.436185662461622 0 0 0 -1 I I #
coedge $-1 $332 $331 $163 $259 forward $326 $-1 #
edge $-1 $264 -14.992284702186105 $261 14.992284702186105 $258 $340 forward 7 unknown #
coedge $-1 $164 $328 $332 $341 forward $244 $-1 #
vertex $-1 $259 $342 #
straight-curve $-1 29.429680793215653 -30.973086632798694 -14.992284702186105 -1 0 0 I I #
coedge $-1 $246 $166 $331 $343 forward $156 $-1 #
vertex $-1 $343 $344 #
straight-curve $-1 29.429680793215653 -30.973086632798694 14.992284702186105 1 0 0 I I #
point $-1 51.920816742612651 -30.973086632798694 14.992284702186105 #
point $-1 51.920816742612651 -30.973086632798694 -14.992284702186105 #
plane-surface $-1 0 0 14.992284702186105 0 0 1 1 0 0 forward_v I I I I #
coedge $-1 $279 $278 $271 $345 forward $172 $-1 #
coedge $-1 $271 $174 $176 $275 reversed $99 $-1 #
coedge $-1 $174 $270 $269 $345 reversed $99 $-1 #
coedge $-1 $182 $177 $174 $273 forward $183 $-1 #
edge $-1 $276 -3.2507689418861077 $346 5.4319944616634217 $272 $347 forward 7 unknown #
coedge $-1 $176 $175 $279 $348 reversed $61 $-1 #
edge $-1 $349 -75.393995033078369 $276 -64.059452296448669 $270 $350 forward 7 unknown #
vertex $-1 $178 $351 #
straight-curve $-1 -8.5641013037007419 29.014234112989655 14.992284702186108 1 0 0 I I #
coedge $-1 $269 $179 $182 $283 reversed $172 $-1 #
coedge $-1 $179 $269 $274 $348 forward $172 $-1 #
vertex $-1 $180 $352 #
straight-curve $-1 -29.320397051415071 37.696997516539184 78.488573867436259 0 0 1 I I #
straight-curve $-1 -29.320397051415071 -20.058152923279977 56.168907427751378 0 0.76604443648966558 -0.64278761758704617 I I #
edge $-1 $346 4.9360081633878963 $184 29.320397051415071 $278 $353 forward 7 unknown #
point $-1 -29.320397051415071 37.696997516539184 14.992284702186105 #
point $-1 -29.320397051415071 29.014234112989655 14.992284702186105 #
edge $-1 $354 1 $354 0 $187 $-1 forward 7 unknown #
vertex $-1 $188 $355 #
ellipse-curve $-1 -22.35342879769302 30.645508891607701 8.1196532467888431 0 0.64278761758704617 0.76604443648966558 1.5 0 0 1 I I #
point $-1 -20.85342879769302 33.355615814764441 11.349432841127722 #
edge $-1 $356 1 $356 0 $191 $-1 forward 7 unknown #
vertex $-1 $192 $357 #
ellipse-curve $-1 -11.902976417109947 30.645508891607701 8.1196532467888431 0 0.64278761758704617 0.76604443648966558 1.5 0 0 1 I I #
point $-1 -10.402976417109947 33.355615814764441 11.349432841127722 #
plane-surface $-1 65.797906430249952 0 0 -1 0 0 0 0 1 forward_v I I I I #
coedge $-1 $200 $198 $202 $299 reversed $121 $-1 #
edge $-1 $213 -14.992284702186105 $301 14.992284702186105 $212 $358 forward 7 unknown #
vertex $-1 $299 $359 #
straight-curve $-1 -65.797906430249952 -37.696997516539184 0 0 0 -1 I I #
edge $-1 $297 -37.696997516539184 $301 37.696997516539184 $295 $360 forward 7 unknown #
straight-curve $-1 0 -37.696997516539184 -14.992284702186105 -1 0 0 I I #
vertex $-1 $205 $361 #
straight-curve $-1 0 37.696997516539184 -14.992284702186105 1 0 0 I I #
point $-1 65.797906430249952 37.696997516539184 -14.992284702186105 #
point $-1 65.797906430249952 -37.696997516539184 -14.992284702186105 #
straight-curve $-1 -65.797906430249952 0 14.992284702186105 0 -1 0 I I #
point $-1 -65.797906430249952 37.696997516539184 14.992284702186105 #
point $-1 -65.797906430249952 -37.696997516539184 14.992284702186105 #
straight-curve $-1 65.797906430249952 -37.696997516539184 0 0 0 -1 I I #
straight-curve $-1 65.797906430249952 37.696997516539184 0 0 0 -1 I I #
plane-surface $-1 0 -37.696997516539184 0 0 1 0 0 0 1 forward_v I I I I #
coedge $-1 $362 $225 $235 $322 reversed $140 $-1 #
coedge $-1 $225 $362 $238 $324 forward $140 $-1 #
coedge $-1 $363 $228 $226 $314 forward $223 $-1 #
edge $-1 $315 55.401413333545037 $364 65.797906430249952 $226 $365 forward 7 unknown #
vertex $-1 $314 $366 #
straight-curve $-1 -55.401413333545037 37.696997516539184 5.8536345463461181 0 0 -1 I I #
coedge $-1 $228 $363 $230 $319 forward $223 $-1 #
straight-curve $-1 -55.401413333545037 0 14.992284702186105 0 1 0 I I #
edge $-1 $367 -65.797906430249952 $232 -55.401413333545037 $230 $368 forward 7 unknown #
point $-1 -55.401413333545037 -37.696997516539184 14.992284702186105 #
straight-curve $-1 -65.797906430249952 0 8.422253483198368 0 -1 0 I I #
edge $-1 $367 -14.992284702186105 $236 -8.422253483198368 $311 $369 forward 7 unknown #
point $-1 -65.797906430249952 -37.696997516539184 8.422253483198368 #
edge $-1 $364 -14.992284702186105 $239 -8.422253483198368 $238 $370 forward 7 unknown #
point $-1 -65.797906430249952 37.696997516539184 8.422253483198368 #
loop $-1 $-1 $249 $243 #
plane-surface $-1 65.797906430249952 0 0 -1 0 0 0 0 1 forward_v I I I I #
coedge $-1 $260 $251 $247 $330 forward $244 $-1 #
edge $-1 $334 -36.3682256370343 $255 -22.491135949396998 $246 $371 forward 7 unknown #
edge $-1 $256 22.491135949396998 $333 36.3682256370343 $328 $372 forward 7 unknown #
coedge $-1 $258 $249 $263 $343 reversed $326 $-1 #
coedge $-1 $249 $258 $260 $341 reversed $326 $-1 #
vertex $-1 $341 $373 #
vertex $-1 $250 $374 #
straight-curve $-1 65.797906430249952 -25.436185662461622 0 0 0 1 I I #
straight-curve $-1 51.920816742612651 -14.102318073815079 -14.992284702186105 0 1 0 I I #
straight-curve $-1 51.920816742612651 -14.102318073815079 14.992284702186105 0 -1 0 I I #
point $-1 51.920816742612651 -25.436185662461622 14.992284702186105 #
point $-1 51.920816742612651 -25.436185662461622 -14.992284702186105 #
straight-curve $-1 65.797906430249952 -30.973086632798694 0 0 0 -1 I I #
edge $-1 $333 25.436185662461622 $261 30.973086632798694 $332 $375 forward 7 unknown #
point $-1 65.797906430249952 -30.973086632798694 -14.992284702186105 #
edge $-1 $264 -30.973086632798694 $334 -25.436185662461622 $331 $376 forward 7 unknown #
point $-1 65.797906430249952 -30.973086632798694 14.992284702186105 #
edge $-1 $346 63.496289165250154 $349 70.781992887366926 $269 $377 forward 7 unknown #
vertex $-1 $283 $378 #
straight-curve $-1 -4.9360081633878963 32.265003054875763 14.992284702186112 0 1 0 I I #
edge $-1 $349 -3.6280931403128456 $280 20.756295747714329 $279 $379 forward 7 unknown #
vertex $-1 $348 $380 #
straight-curve $-1 -4.9360081633878963 -20.058152923279977 56.168907427751378 0 -0.76604443648966558 0.64278761758704617 I I #
point $-1 -4.9360081633878963 29.014234112989655 14.992284702186105 #
point $-1 -29.320397051415071 37.696997516539192 7.7065809800693401 #
straight-curve $-1 0 37.696997516539184 14.992284702186105 -1 0 0 I I #
vertex $-1 $286 $381 #
point $-1 -20.85342879769302 30.645508891607701 8.1196532467888431 #
vertex $-1 $290 $382 #
point $-1 -10.402976417109947 30.645508891607701 8.1196532467888431 #
straight-curve $-1 -65.797906430249952 37.696997516539184 0 0 0 -1 I I #
point $-1 -65.797906430249952 -37.696997516539184 -14.992284702186105 #
straight-curve $-1 -65.797906430249952 0 -14.992284702186105 0 1 0 I I #
point $-1 -65.797906430249952 37.696997516539184 -14.992284702186105 #
coedge $-1 $312 $311 $363 $383 reversed $140 $-1 #
coedge $-1 $317 $313 $362 $383 forward $223 $-1 #
vertex $-1 $314 $384 #
straight-curve $-1 0 37.696997516539184 14.992284702186105 -1 0 0 I I #
point $-1 -55.401413333545037 37.696997516539184 14.992284702186105 #
vertex $-1 $383 $385 #
straight-curve $-1 0 -37.696997516539184 14.992284702186105 1 0 0 I I #
straight-curve $-1 -65.797906430249952 -37.696997516539184 0 0 0 -1 I I #
straight-curve $-1 -65.797906430249952 37.696997516539184 0 0 0 -1 I I #
straight-curve $-1 29.429680793215653 -25.436185662461622 14.992284702186105 -1 0 0 I I #
straight-curve $-1 29.429680793215653 -25.436185662461622 -14.992284702186105 1 0 0 I I #
point $-1 65.797906430249952 -25.436185662461622 -14.992284702186105 #
point $-1 65.797906430249952 -25.436185662461622 14.992284702186105 #
straight-curve $-1 65.797906430249952 0 -14.992284702186105 0 -1 0 I I #
straight-curve $-1 65.797906430249952 0 14.992284702186105 0 1 0 I I #
straight-curve $-1 -4.9360081633878963 37.696997516539184 78.488573867436259 0 0 -1 I I #
point $-1 -4.9360081633878963 37.696997516539184 14.992284702186105 #
straight-curve $-1 -8.5641013037007419 37.696997516539184 7.7065809800693508 -1 0 0 I I #
point $-1 -4.9360081633878963 37.696997516539192 7.7065809800693401 #
point $-1 -22.35342879769302 29.681327465227131 6.9705865920543451 #
point $-1 -11.902976417109947 29.681327465227131 6.9705865920543451 #
edge $-1 $364 -37.696997516539184 $367 37.696997516539184 $362 $386 forward 7 unknown #
point $-1 -65.797906430249952 37.696997516539184 14.992284702186105 #
point $-1 -65.797906430249952 -37.696997516539184 14.992284702186105 #
straight-curve $-1 -65.797906430249952 0 14.992284702186105 0 -1 0 I I #
End-of-ACIS-data 