500 0 12 0           
7 Unknown 11 ACIS 5.0 NT 24 Fri Mar 26 02:16:50 1999 
-1 9.9999999999999995e-007 1e-010 
body $-1 $12 $-1 $13 #
body $-1 $14 $-1 $15 #
body $-1 $16 $-1 $17 #
body $-1 $18 $-1 $19 #
body $-1 $20 $-1 $21 #
body $-1 $22 $-1 $23 #
body $-1 $24 $-1 $25 #
body $-1 $26 $-1 $27 #
body $-1 $28 $-1 $29 #
body $-1 $30 $-1 $31 #
body $-1 $32 $-1 $33 #
body $-1 $34 $-1 $35 #
lump $-1 $-1 $36 $0 #
transform $-1 1 0 0 0 1 0 0 0 1 44.256721701712088 19.532142995848538 7.1755753575587011 1 rotate no_reflect no_shear #
lump $-1 $-1 $37 $1 #
transform $-1 1 0 0 0 1 0 0 0 1 44.256721701712088 19.532142995848538 7.1755753575587011 1 rotate no_reflect no_shear #
lump $-1 $-1 $38 $2 #
transform $-1 1 0 0 0 1 0 0 0 1 44.256721701712088 19.532142995848538 7.1755753575587011 1 rotate no_reflect no_shear #
lump $-1 $-1 $39 $3 #
transform $-1 1 0 0 0 1 0 0 0 1 44.256721701712088 19.532142995848538 7.1755753575587011 1 rotate no_reflect no_shear #
lump $-1 $-1 $40 $4 #
transform $-1 1 0 0 0 1 0 0 0 1 44.256721701712088 19.532142995848538 7.1755753575587011 1 rotate no_reflect no_shear #
lump $-1 $-1 $41 $5 #
transform $-1 1 0 0 0 1 0 0 0 1 44.256721701712088 19.532142995848538 7.1755753575587011 1 rotate no_reflect no_shear #
lump $-1 $-1 $42 $6 #
transform $-1 1 0 0 0 1 0 0 0 1 44.256721701712088 19.532142995848538 7.1755753575587011 1 rotate no_reflect no_shear #
lump $-1 $-1 $43 $7 #
transform $-1 1 0 0 0 1 0 0 0 1 44.256721701712088 19.532142995848538 7.1755753575587011 1 rotate no_reflect no_shear #
lump $-1 $-1 $44 $8 #
transform $-1 1 0 0 0 1 0 0 0 1 44.256721701712088 19.532142995848538 7.1755753575587011 1 rotate no_reflect no_shear #
lump $-1 $-1 $45 $9 #
transform $-1 1 0 0 0 1 0 0 0 1 44.256721701712088 19.532142995848538 7.1755753575587011 1 rotate no_reflect no_shear #
lump $-1 $-1 $46 $10 #
transform $-1 1 0 0 0 1 0 0 0 1 44.256721701712088 19.532142995848538 7.1755753575587011 1 rotate no_reflect no_shear #
lump $-1 $-1 $47 $11 #
transform $-1 1 0 0 0 1 0 0 0 1 44.256721701712088 19.532142995848538 7.1755753575587011 1 rotate no_reflect no_shear #
shell $-1 $-1 $-1 $48 $-1 $12 #
shell $-1 $-1 $-1 $49 $-1 $14 #
shell $-1 $-1 $-1 $50 $-1 $16 #
shell $-1 $-1 $-1 $51 $-1 $18 #
shell $-1 $-1 $-1 $52 $-1 $20 #
shell $-1 $-1 $-1 $53 $-1 $22 #
shell $-1 $-1 $-1 $54 $-1 $24 #
shell $-1 $-1 $-1 $55 $-1 $26 #
shell $-1 $-1 $-1 $56 $-1 $28 #
shell $-1 $-1 $-1 $57 $-1 $30 #
shell $-1 $-1 $-1 $58 $-1 $32 #
shell $-1 $-1 $-1 $59 $-1 $34 #
face $-1 $60 $61 $36 $-1 $62 forward single #
face $-1 $63 $64 $37 $-1 $65 forward single #
face $-1 $66 $67 $38 $-1 $68 reversed single #
face $-1 $69 $70 $39 $-1 $71 forward single #
face $-1 $72 $73 $40 $-1 $74 forward single #
face $-1 $75 $76 $41 $-1 $77 reversed single #
face $-1 $78 $79 $42 $-1 $80 forward single #
face $-1 $81 $82 $43 $-1 $83 forward single #
face $-1 $84 $85 $44 $-1 $86 reversed single #
face $-1 $87 $88 $45 $-1 $89 forward single #
face $-1 $90 $91 $46 $-1 $92 forward single #
face $-1 $93 $94 $47 $-1 $95 forward single #
face $-1 $96 $97 $36 $-1 $98 reversed single #
loop $-1 $-1 $99 $48 #
plane-surface $-1 0 0 7.1755753575587011 0 0 1 1 0 0 forward_v I I I I #
face $-1 $100 $101 $37 $-1 $102 reversed single #
loop $-1 $-1 $103 $49 #
plane-surface $-1 -44.256721701712088 0 0 1 0 0 0 0 -1 forward_v I I I I #
face $-1 $104 $105 $38 $-1 $106 reversed single #
loop $-1 $-1 $107 $50 #
plane-surface $-1 -27.353652587813549 34.977953290554296 97.081177745938419 1 0 0 0 -0.54463904215088732 -0.83867056331134215 forward_v I I I I #
face $-1 $108 $109 $39 $-1 $110 forward single #
loop $-1 $111 $112 $51 #
cone-surface $-1 -23.352258425074567 14.470970098819182 3.2240776382796623 0 -0.54463904215088732 -0.83867056331134215 1 0 0 1 I I 0 1 1 forward I I I I #
face $-1 $113 $114 $40 $-1 $115 forward single #
loop $-1 $116 $117 $52 #
cone-surface $-1 -17.350167180966096 14.470970098819182 3.2240776382796623 0 -0.54463904215088732 -0.83867056331134215 1 0 0 1 I I 0 1 1 forward I I I I #
face $-1 $118 $119 $41 $-1 $120 reversed single #
loop $-1 $-1 $121 $53 #
plane-surface $-1 22.532624764929494 34.977953290554296 97.081177745938419 1 0 0 0 -0.54463904215088732 -0.83867056331134215 forward_v I I I I #
face $-1 $122 $123 $42 $-1 $124 forward single #
loop $-1 $125 $126 $54 #
cone-surface $-1 26.534018927668477 14.470970098819182 3.2240776382796623 0 -0.54463904215088732 -0.83867056331134215 1 0 0 1 I I 0 1 1 forward I I I I #
face $-1 $127 $128 $43 $-1 $129 forward single #
loop $-1 $130 $131 $55 #
cone-surface $-1 32.536110171776947 14.470970098819182 3.2240776382796623 0 -0.54463904215088732 -0.83867056331134215 1 0 0 1 I I 0 1 1 forward I I I I #
face $-1 $132 $133 $44 $-1 $134 reversed single #
loop $-1 $-1 $135 $56 #
plane-surface $-1 -12.237798087732671 -76.427488405561405 70.895082727574476 -1 0 0 0 -0.64278761758704617 0.76604443648966558 forward_v I I I I #
face $-1 $136 $137 $45 $-1 $138 forward single #
loop $-1 $139 $140 $57 #
cone-surface $-1 -26.429822572479615 -15.846319398171378 3.641548857176041 0 0.64278761758704617 -0.76604443648966558 1 0 0 1 I I 0 1 1 forward I I I I #
face $-1 $141 $142 $46 $-1 $143 forward single #
loop $-1 $144 $145 $58 #
cone-surface $-1 -21.107813390699512 -15.846319398171378 3.641548857176041 0 0.64278761758704617 -0.76604443648966558 1 0 0 1 I I 0 1 1 forward I I I I #
face $-1 $146 $147 $47 $-1 $148 forward single #
loop $-1 $149 $150 $59 #
cone-surface $-1 -15.785804208919409 -15.846319398171378 3.641548857176041 0 0.64278761758704617 -0.76604443648966558 1 0 0 1 I I 0 1 1 forward I I I I #
face $-1 $151 $152 $36 $-1 $153 reversed single #
loop $-1 $-1 $154 $60 #
plane-surface $-1 0 0 -7.1755753575587011 0 0 1 1 0 0 forward_v I I I I #
coedge $-1 $155 $156 $157 $158 forward $61 $-1 #
face $-1 $159 $160 $37 $-1 $161 reversed single #
loop $-1 $-1 $162 $63 #
plane-surface $-1 0 0 -7.1755753575587011 0 0 1 1 0 0 forward_v I I I I #
coedge $-1 $163 $164 $165 $166 forward $64 $-1 #
face $-1 $167 $168 $38 $-1 $169 reversed single #
loop $-1 $-1 $170 $66 #
plane-surface $-1 -20.351212803020331 -13.229923742163422 22.847558306162057 0 0.54463904215088732 0.83867056331134215 1 0 0 forward_v I I I I #
coedge $-1 $171 $172 $173 $174 reversed $67 $-1 #
face $-1 $-1 $175 $39 $-1 $176 forward single #
loop $-1 $177 $178 $69 #
cone-surface $-1 -23.352258425074567 13.452142546459804 1.6552208154563832 0 -0.54463904215088732 -0.83867056331134215 0.5 0 0 1 I I -0.70710678118654746 0.70710678118654746 0.5 forward I I I I #
loop $-1 $-1 $179 $51 #
coedge $-1 $112 $112 $180 $181 reversed $70 $-1 #
face $-1 $-1 $182 $40 $-1 $183 forward single #
loop $-1 $184 $185 $72 #
cone-surface $-1 -17.350167180966096 13.452142546459804 1.6552208154563832 0 -0.54463904215088732 -0.83867056331134215 0.5 0 0 1 I I -0.70710678118654746 0.70710678118654746 0.5 forward I I I I #
loop $-1 $-1 $186 $52 #
coedge $-1 $117 $117 $187 $188 reversed $73 $-1 #
face $-1 $189 $190 $41 $-1 $191 reversed single #
loop $-1 $-1 $192 $75 #
plane-surface $-1 29.535064549722712 -13.229923742163422 22.847558306162057 0 0.54463904215088732 0.83867056331134215 1 0 0 forward_v I I I I #
coedge $-1 $193 $194 $195 $196 reversed $76 $-1 #
face $-1 $-1 $197 $42 $-1 $198 forward single #
loop $-1 $199 $200 $78 #
cone-surface $-1 26.534018927668477 13.452142546459804 1.6552208154563832 0 -0.54463904215088732 -0.83867056331134215 0.5 0 0 1 I I -0.70710678118654746 0.70710678118654746 0.5 forward I I I I #
loop $-1 $-1 $201 $54 #
coedge $-1 $126 $126 $202 $203 reversed $79 $-1 #
face $-1 $-1 $204 $43 $-1 $205 forward single #
loop $-1 $206 $207 $81 #
cone-surface $-1 32.536110171776947 13.452142546459804 1.6552208154563832 0 -0.54463904215088732 -0.83867056331134215 0.5 0 0 1 I I -0.70710678118654746 0.70710678118654746 0.5 forward I I I I #
loop $-1 $-1 $208 $55 #
coedge $-1 $131 $131 $209 $210 reversed $82 $-1 #
face $-1 $211 $212 $44 $-1 $213 reversed single #
loop $-1 $-1 $214 $84 #
plane-surface $-1 -21.107813390699512 -19.532142995848531 3.0898518538384963 0 -0.64278761758704617 0.76604443648966558 1 0 0 forward_v I I I I #
coedge $-1 $215 $216 $217 $218 reversed $85 $-1 #
face $-1 $-1 $219 $45 $-1 $220 forward single #
loop $-1 $221 $222 $87 #
cone-surface $-1 -26.429822572479615 -14.273689772660934 1.7673618904086528 0 0.64278761758704617 -0.76604443648966558 0.5 0 0 1 I I -0.70710678118654746 0.70710678118654746 0.5 forward I I I I #
loop $-1 $-1 $223 $57 #
coedge $-1 $140 $140 $224 $225 reversed $88 $-1 #
face $-1 $-1 $226 $46 $-1 $227 forward single #
loop $-1 $228 $229 $90 #
cone-surface $-1 -21.107813390699512 -14.273689772660934 1.7673618904086528 0 0.64278761758704617 -0.76604443648966558 0.5 0 0 1 I I -0.70710678118654746 0.70710678118654746 0.5 forward I I I I #
loop $-1 $-1 $230 $58 #
coedge $-1 $145 $145 $231 $232 reversed $91 $-1 #
face $-1 $-1 $233 $47 $-1 $234 forward single #
loop $-1 $235 $236 $93 #
cone-surface $-1 -15.785804208919409 -14.273689772660934 1.7673618904086528 0 0.64278761758704617 -0.76604443648966558 0.5 0 0 1 I I -0.70710678118654746 0.70710678118654746 0.5 forward I I I I #
loop $-1 $-1 $237 $59 #
coedge $-1 $150 $150 $238 $239 reversed $94 $-1 #
face $-1 $240 $241 $36 $-1 $242 reversed single #
loop $-1 $-1 $243 $96 #
plane-surface $-1 0 -19.532142995848538 0 0 1 0 0 0 1 forward_v I I I I #
coedge $-1 $244 $245 $246 $247 forward $97 $-1 #
coedge $-1 $248 $99 $249 $250 forward $61 $-1 #
coedge $-1 $99 $248 $251 $252 forward $61 $-1 #
coedge $-1 $253 $254 $99 $158 reversed $255 $-1 #
edge $-1 $256 -19.532142995848538 $257 19.532142995848538 $157 $258 forward 7 unknown #
face $-1 $259 $260 $37 $-1 $261 reversed single #
loop $-1 $-1 $262 $100 #
plane-surface $-1 -48.848647575063275 -8.1809922807311359 0 0 1 0 0 0 1 forward_v I I I I #
coedge $-1 $263 $264 $164 $265 forward $101 $-1 #
coedge $-1 $266 $103 $267 $268 reversed $64 $-1 #
coedge $-1 $103 $266 $162 $265 reversed $64 $-1 #
coedge $-1 $269 $270 $103 $166 reversed $271 $-1 #
edge $-1 $272 -7.1755753575587011 $273 7.1755753575587011 $165 $274 forward 7 unknown #
face $-1 $275 $276 $38 $-1 $277 forward single #
loop $-1 $-1 $278 $104 #
plane-surface $-1 -13.348773018227114 34.977953290554296 97.081177745938419 -1 0 0 0 0.54463904215088732 0.83867056331134215 forward_v I I I I #
coedge $-1 $279 $280 $281 $282 reversed $105 $-1 #
coedge $-1 $172 $107 $283 $284 reversed $67 $-1 #
coedge $-1 $107 $171 $279 $285 reversed $67 $-1 #
coedge $-1 $281 $286 $107 $174 forward $276 $-1 #
edge $-1 $287 -2.04316635057139 $288 6.5861633809194693 $173 $289 forward 7 unknown #
loop $-1 $-1 $180 $108 #
plane-surface $-1 -20.351212803020331 -13.229923742163422 22.847558306162057 0 0.54463904215088732 0.83867056331134215 1 0 0 forward_v I I I I #
loop $-1 $-1 $290 $69 #
coedge $-1 $178 $178 $179 $291 reversed $109 $-1 #
coedge $-1 $179 $179 $178 $291 forward $111 $-1 #
coedge $-1 $180 $180 $112 $181 forward $175 $-1 #
edge $-1 $292 -1.451209931293695e-015 $292 6.2831853071795987 $180 $293 forward 7 unknown #
loop $-1 $-1 $187 $113 #
plane-surface $-1 -20.351212803020331 -13.229923742163422 22.847558306162057 0 0.54463904215088732 0.83867056331134215 1 0 0 forward_v I I I I #
loop $-1 $-1 $294 $72 #
coedge $-1 $185 $185 $186 $295 reversed $114 $-1 #
coedge $-1 $186 $186 $185 $295 forward $116 $-1 #
coedge $-1 $187 $187 $117 $188 forward $182 $-1 #
edge $-1 $296 -1.451209931293695e-015 $296 6.2831853071795987 $187 $297 forward 7 unknown #
face $-1 $298 $299 $41 $-1 $300 forward single #
loop $-1 $-1 $301 $118 #
plane-surface $-1 36.53750433451593 34.977953290554296 97.081177745938419 -1 0 0 0 0.54463904215088732 0.83867056331134215 forward_v I I I I #
coedge $-1 $302 $303 $304 $305 reversed $119 $-1 #
coedge $-1 $194 $121 $306 $307 reversed $76 $-1 #
coedge $-1 $121 $193 $302 $308 reversed $76 $-1 #
coedge $-1 $304 $309 $121 $196 forward $299 $-1 #
edge $-1 $310 -2.04316635057139 $311 6.5861633809194693 $195 $312 forward 7 unknown #
loop $-1 $-1 $202 $122 #
plane-surface $-1 29.535064549722712 -13.229923742163422 22.847558306162057 0 0.54463904215088732 0.83867056331134215 1 0 0 forward_v I I I I #
loop $-1 $-1 $313 $78 #
coedge $-1 $200 $200 $201 $314 reversed $123 $-1 #
coedge $-1 $201 $201 $200 $314 forward $125 $-1 #
coedge $-1 $202 $202 $126 $203 forward $197 $-1 #
edge $-1 $315 -1.451209931293695e-015 $315 6.2831853071795987 $202 $316 forward 7 unknown #
loop $-1 $-1 $209 $127 #
plane-surface $-1 29.535064549722712 -13.229923742163422 22.847558306162057 0 0.54463904215088732 0.83867056331134215 1 0 0 forward_v I I I I #
loop $-1 $-1 $317 $81 #
coedge $-1 $207 $207 $208 $318 reversed $128 $-1 #
coedge $-1 $208 $208 $207 $318 forward $130 $-1 #
coedge $-1 $209 $209 $131 $210 forward $204 $-1 #
edge $-1 $319 -1.451209931293695e-015 $319 6.2831853071795987 $209 $320 forward 7 unknown #
face $-1 $321 $322 $44 $-1 $323 forward single #
loop $-1 $-1 $324 $132 #
plane-surface $-1 -29.977828693666353 -76.427488405561405 70.895082727574476 1 0 0 0 0.64278761758704617 -0.76604443648966558 forward_v I I I I #
coedge $-1 $325 $326 $327 $328 reversed $133 $-1 #
coedge $-1 $216 $135 $329 $330 reversed $85 $-1 #
coedge $-1 $135 $215 $325 $331 reversed $85 $-1 #
coedge $-1 $327 $332 $135 $218 forward $322 $-1 #
edge $-1 $333 18.681601206932164 $334 23.550776768852643 $217 $335 forward 7 unknown #
loop $-1 $-1 $224 $136 #
plane-surface $-1 -21.107813390699512 -19.532142995848531 3.0898518538384963 0 -0.64278761758704617 0.76604443648966558 1 0 0 forward_v I I I I #
loop $-1 $-1 $336 $87 #
coedge $-1 $222 $222 $223 $337 reversed $137 $-1 #
coedge $-1 $223 $223 $222 $337 forward $139 $-1 #
coedge $-1 $224 $224 $140 $225 forward $219 $-1 #
edge $-1 $338 0 $338 6.2831853071796004 $224 $339 forward 7 unknown #
loop $-1 $-1 $231 $141 #
plane-surface $-1 -21.107813390699512 -19.532142995848531 3.0898518538384963 0 -0.64278761758704617 0.76604443648966558 1 0 0 forward_v I I I I #
loop $-1 $-1 $340 $90 #
coedge $-1 $229 $229 $230 $341 reversed $142 $-1 #
coedge $-1 $230 $230 $229 $341 forward $144 $-1 #
coedge $-1 $231 $231 $145 $232 forward $226 $-1 #
edge $-1 $342 0 $342 6.2831853071796004 $231 $343 forward 7 unknown #
loop $-1 $-1 $238 $146 #
plane-surface $-1 -21.107813390699512 -19.532142995848531 3.0898518538384963 0 -0.64278761758704617 0.76604443648966558 1 0 0 forward_v I I I I #
loop $-1 $-1 $344 $93 #
coedge $-1 $236 $236 $237 $345 reversed $147 $-1 #
coedge $-1 $237 $237 $236 $345 forward $149 $-1 #
coedge $-1 $238 $238 $150 $239 forward $233 $-1 #
edge $-1 $346 0 $346 6.2831853071796004 $238 $347 forward 7 unknown #
face $-1 $348 $349 $36 $-1 $350 reversed single #
loop $-1 $-1 $351 $151 #
plane-surface $-1 -44.256721701712088 0 0 1 0 0 0 0 -1 forward_v I I I I #
coedge $-1 $352 $251 $353 $354 forward $152 $-1 #
coedge $-1 $355 $154 $352 $356 forward $97 $-1 #
coedge $-1 $154 $355 $357 $358 forward $97 $-1 #
coedge $-1 $254 $253 $154 $247 reversed $255 $-1 #
edge $-1 $359 -19.532142995848538 $360 19.532142995848538 $246 $361 forward 7 unknown #
coedge $-1 $156 $155 $362 $363 forward $61 $-1 #
coedge $-1 $364 $365 $155 $250 reversed $349 $-1 #
edge $-1 $257 -44.256721701712088 $366 44.256721701712088 $249 $367 forward 7 unknown #
coedge $-1 $243 $368 $156 $252 reversed $152 $-1 #
edge $-1 $369 -44.256721701712088 $256 44.256721701712088 $251 $370 forward 7 unknown #
coedge $-1 $246 $157 $368 $371 forward $255 $-1 #
coedge $-1 $157 $246 $364 $372 reversed $255 $-1 #
loop $-1 $-1 $253 $348 #
vertex $-1 $158 $373 #
vertex $-1 $158 $374 #
straight-curve $-1 44.256721701712088 0 7.1755753575587011 0 1 0 I I #
face $-1 $375 $271 $37 $-1 $376 reversed single #
loop $-1 $-1 $377 $159 #
plane-surface $-1 -53.440573448414462 -6.6809922807311359 0 1 0 0 0 0 -1 forward_v I I I I #
coedge $-1 $378 $379 $380 $381 forward $160 $-1 #
coedge $-1 $382 $162 $378 $383 forward $101 $-1 #
coedge $-1 $162 $382 $269 $384 forward $101 $-1 #
edge $-1 $272 5.1809922807311359 $385 8.1809922807311359 $162 $386 forward 7 unknown #
coedge $-1 $164 $163 $387 $388 forward $64 $-1 #
coedge $-1 $389 $390 $163 $268 forward $391 $-1 #
edge $-1 $392 -8.1809922807311359 $273 -5.1809922807311359 $267 $393 forward 7 unknown #
coedge $-1 $394 $165 $264 $384 reversed $271 $-1 #
coedge $-1 $165 $394 $389 $395 reversed $271 $-1 #
loop $-1 $-1 $165 $259 #
vertex $-1 $265 $396 #
vertex $-1 $395 $397 #
straight-curve $-1 -44.256721701712088 -5.1809922807311359 0 0 0 1 I I #
face $-1 $-1 $398 $38 $-1 $399 reversed single #
loop $-1 $-1 $173 $167 #
plane-surface $-1 0 0 7.1755753575587011 0 0 1 1 0 0 forward_v I I I I #
coedge $-1 $400 $401 $402 $403 reversed $168 $-1 #
coedge $-1 $404 $170 $172 $285 forward $105 $-1 #
coedge $-1 $170 $404 $400 $405 forward $105 $-1 #
coedge $-1 $402 $173 $170 $282 forward $276 $-1 #
edge $-1 $288 -17.178046186303384 $406 -3.1731666167169479 $281 $407 forward 7 unknown #
coedge $-1 $408 $409 $171 $284 forward $398 $-1 #
edge $-1 $410 -46.968965871633372 $287 -41.36501351541051 $283 $411 forward 7 unknown #
edge $-1 $288 28.774989921235896 $410 39.064285991697076 $172 $412 forward 7 unknown #
coedge $-1 $173 $402 $408 $413 forward $276 $-1 #
vertex $-1 $284 $414 #
vertex $-1 $174 $415 #
straight-curve $-1 -27.353652587813549 17.488976645277148 7.1755753575586994 0 -1 0 I I #
coedge $-1 $290 $290 $-1 $416 reversed $177 $-1 #
edge $-1 $417 0 $417 6.2831853071796004 $178 $418 forward 7 unknown #
vertex $-1 $181 $419 #
ellipse-curve $-1 -23.352258425074567 15.217478130103114 4.3735991794472673 0 0.54463904215088732 0.83867056331134215 1 0 0 1 I I #
coedge $-1 $294 $294 $-1 $420 reversed $184 $-1 #
edge $-1 $421 0 $421 6.2831853071796004 $185 $422 forward 7 unknown #
vertex $-1 $188 $423 #
ellipse-curve $-1 -17.350167180966096 15.217478130103114 4.3735991794472673 0 0.54463904215088732 0.83867056331134215 1 0 0 1 I I #
face $-1 $-1 $424 $41 $-1 $425 reversed single #
loop $-1 $-1 $195 $189 #
plane-surface $-1 0 0 7.1755753575587011 0 0 1 1 0 0 forward_v I I I I #
coedge $-1 $426 $427 $428 $429 reversed $190 $-1 #
coedge $-1 $430 $192 $194 $308 forward $119 $-1 #
coedge $-1 $192 $430 $426 $431 forward $119 $-1 #
coedge $-1 $428 $195 $192 $305 forward $299 $-1 #
edge $-1 $311 7.7650924900681382 $432 21.769972059654574 $304 $433 forward 7 unknown #
coedge $-1 $434 $435 $193 $307 forward $424 $-1 #
edge $-1 $436 -46.968965871633372 $310 -41.36501351541051 $306 $437 forward 7 unknown #
edge $-1 $311 28.774989921235896 $436 39.064285991697076 $194 $438 forward 7 unknown #
coedge $-1 $195 $428 $434 $439 forward $299 $-1 #
vertex $-1 $196 $440 #
vertex $-1 $196 $441 #
straight-curve $-1 22.532624764929494 17.488976645277148 7.1755753575586994 0 -1 0 I I #
coedge $-1 $313 $313 $-1 $442 reversed $199 $-1 #
edge $-1 $443 0 $443 6.2831853071796004 $200 $444 forward 7 unknown #
vertex $-1 $203 $445 #
ellipse-curve $-1 26.534018927668477 15.217478130103114 4.3735991794472673 0 0.54463904215088732 0.83867056331134215 1 0 0 1 I I #
coedge $-1 $317 $317 $-1 $446 reversed $206 $-1 #
edge $-1 $447 0 $447 6.2831853071796004 $207 $448 forward 7 unknown #
vertex $-1 $210 $449 #
ellipse-curve $-1 32.536110171776947 15.217478130103114 4.3735991794472673 0 0.54463904215088732 0.83867056331134215 1 0 0 1 I I #
face $-1 $-1 $450 $44 $-1 $451 reversed single #
loop $-1 $-1 $217 $211 #
plane-surface $-1 0 0 7.1755753575587011 0 0 1 1 0 0 forward_v I I I I #
coedge $-1 $452 $453 $454 $455 reversed $212 $-1 #
coedge $-1 $456 $214 $216 $331 forward $133 $-1 #
coedge $-1 $214 $456 $452 $457 forward $133 $-1 #
coedge $-1 $454 $217 $214 $328 forward $322 $-1 #
edge $-1 $334 1.6838913923829146 $458 19.423921998316597 $327 $459 forward 7 unknown #
coedge $-1 $460 $461 $215 $330 forward $450 $-1 #
edge $-1 $462 -32.357689509948749 $333 -28.271966006228539 $329 $463 forward 7 unknown #
edge $-1 $334 -6.356257326576328 $462 9.1539886837149753e-015 $216 $464 forward 7 unknown #
coedge $-1 $217 $454 $460 $465 forward $322 $-1 #
vertex $-1 $218 $466 #
vertex $-1 $218 $467 #
straight-curve $-1 -12.237798087732671 -38.213744202780703 7.1755753575586994 0 1 0 I I #
coedge $-1 $336 $336 $-1 $468 reversed $221 $-1 #
edge $-1 $469 0 $469 6.2831853071796004 $222 $470 forward 7 unknown #
vertex $-1 $225 $471 #
ellipse-curve $-1 -26.429822572479615 -17.097555214888299 5.132713605698596 0 -0.64278761758704617 0.76604443648966558 1 0 0 1 I I #
coedge $-1 $340 $340 $-1 $472 reversed $228 $-1 #
edge $-1 $473 0 $473 6.2831853071796004 $229 $474 forward 7 unknown #
vertex $-1 $232 $475 #
ellipse-curve $-1 -21.107813390699512 -17.097555214888299 5.132713605698596 0 -0.64278761758704617 0.76604443648966558 1 0 0 1 I I #
coedge $-1 $344 $344 $-1 $476 reversed $235 $-1 #
edge $-1 $477 0 $477 6.2831853071796004 $236 $478 forward 7 unknown #
vertex $-1 $239 $479 #
ellipse-curve $-1 -15.785804208919409 -17.097555214888299 5.132713605698596 0 -0.64278761758704617 0.76604443648966558 1 0 0 1 I I #
face $-1 $-1 $255 $36 $-1 $480 reversed single #
loop $-1 $-1 $364 $240 #
plane-surface $-1 0 19.532142995848538 0 0 -1 0 0 0 -1 forward_v I I I I #
coedge $-1 $481 $362 $365 $482 forward $241 $-1 #
coedge $-1 $368 $243 $244 $356 reversed $152 $-1 #
coedge $-1 $362 $481 $243 $354 reversed $241 $-1 #
edge $-1 $369 -7.1755753575587011 $483 7.1755753575587011 $353 $484 forward 7 unknown #
coedge $-1 $245 $244 $481 $485 forward $97 $-1 #
edge $-1 $360 -44.256721701712088 $483 44.256721701712088 $352 $486 forward 7 unknown #
coedge $-1 $365 $364 $245 $358 reversed $349 $-1 #
edge $-1 $487 -44.256721701712088 $359 44.256721701712088 $357 $488 forward 7 unknown #
vertex $-1 $247 $489 #
vertex $-1 $371 $490 #
straight-curve $-1 44.256721701712088 0 -7.1755753575587011 0 -1 0 I I #
coedge $-1 $351 $353 $248 $363 reversed $241 $-1 #
edge $-1 $366 -19.532142995848538 $369 19.532142995848538 $362 $491 forward 7 unknown #
coedge $-1 $357 $249 $254 $372 forward $349 $-1 #
coedge $-1 $249 $357 $351 $482 reversed $349 $-1 #
vertex $-1 $250 $492 #
straight-curve $-1 0 19.532142995848538 7.1755753575587011 -1 0 0 I I #
coedge $-1 $251 $352 $253 $371 reversed $152 $-1 #
vertex $-1 $363 $493 #
straight-curve $-1 0 -19.532142995848538 7.1755753575587011 1 0 0 I I #
edge $-1 $256 -7.1755753575587011 $360 7.1755753575587011 $253 $494 forward 7 unknown #
edge $-1 $257 -7.1755753575587011 $359 7.1755753575587011 $254 $495 forward 7 unknown #
point $-1 44.256721701712088 -19.532142995848538 7.1755753575587011 #
point $-1 44.256721701712088 19.532142995848538 7.1755753575587011 #
face $-1 $-1 $391 $37 $-1 $496 forward single #
plane-surface $-1 -48.848647575063275 -5.1809922807311359 0 0 -1 0 0 0 -1 forward_v I I I I #
coedge $-1 $497 $498 $394 $499 forward $260 $-1 #
coedge $-1 $387 $262 $263 $383 reversed $160 $-1 #
coedge $-1 $262 $387 $390 $500 reversed $160 $-1 #
coedge $-1 $498 $497 $262 $381 reversed $260 $-1 #
edge $-1 $501 -7.1755753575587011 $502 7.1755753575587011 $380 $503 forward 7 unknown #
coedge $-1 $264 $263 $497 $504 forward $101 $-1 #
edge $-1 $385 -4.5919258733511867 $502 4.5919258733511867 $378 $505 forward 7 unknown #
edge $-1 $506 -4.5919258733511867 $272 4.5919258733511867 $269 $507 forward 7 unknown #
vertex $-1 $383 $508 #
straight-curve $-1 -44.256721701712088 0 -7.1755753575587011 0 -1 0 I I #
coedge $-1 $379 $378 $266 $388 reversed $160 $-1 #
edge $-1 $392 -7.1755753575587011 $385 7.1755753575587011 $387 $509 forward 7 unknown #
coedge $-1 $510 $267 $270 $395 forward $391 $-1 #
coedge $-1 $267 $510 $379 $500 forward $391 $-1 #
loop $-1 $-1 $267 $375 #
vertex $-1 $268 $511 #
straight-curve $-1 -44.256721701712088 0 7.1755753575587011 0 1 0 I I #
coedge $-1 $270 $269 $377 $499 reversed $271 $-1 #
edge $-1 $273 -4.5919258733511867 $512 4.5919258733511867 $270 $513 forward 7 unknown #
point $-1 -44.256721701712088 -5.1809922807311359 -7.1755753575587011 #
point $-1 -44.256721701712088 -5.1809922807311359 7.1755753575587011 #
loop $-1 $-1 $283 $275 #
plane-surface $-1 0 19.532142995848538 0 0 -1 0 0 0 -1 forward_v I I I I #
coedge $-1 $401 $278 $280 $405 reversed $168 $-1 #
coedge $-1 $278 $400 $514 $515 reversed $168 $-1 #
coedge $-1 $286 $281 $278 $403 forward $276 $-1 #
edge $-1 $406 -6.5861633809194693 $516 2.04316635057139 $402 $517 forward 7 unknown #
coedge $-1 $280 $279 $409 $518 reversed $105 $-1 #
edge $-1 $519 -39.064285991697076 $406 -28.774989921235896 $400 $520 forward 7 unknown #
vertex $-1 $282 $521 #
straight-curve $-1 -10.175606401510166 10.902813264357679 7.1755753575586994 1 0 0 I I #
coedge $-1 $514 $283 $286 $413 reversed $398 $-1 #
coedge $-1 $283 $514 $404 $518 forward $398 $-1 #
vertex $-1 $284 $522 #
straight-curve $-1 -27.353652587813549 19.532142995848538 48.540588872969209 0 0 1 I I #
straight-curve $-1 -27.353652587813549 -13.229923742163422 22.847558306162057 0 0.83867056331134215 -0.54463904215088732 I I #
edge $-1 $516 13.348773018227114 $287 27.353652587813549 $408 $523 forward 7 unknown #
point $-1 -27.353652587813549 19.532142995848538 7.1755753575587011 #
point $-1 -27.353652587813549 10.902813264357679 7.1755753575587011 #
edge $-1 $524 1 $524 0 $290 $-1 forward 7 unknown #
vertex $-1 $291 $525 #
ellipse-curve $-1 -23.352258425074567 13.724462067535248 2.0745560971120542 0 0.54463904215088732 0.83867056331134215 1 0 0 1 I I #
point $-1 -22.352258425074567 15.217478130103114 4.3735991794472699 #
edge $-1 $526 1 $526 0 $294 $-1 forward 7 unknown #
vertex $-1 $295 $527 #
ellipse-curve $-1 -17.350167180966096 13.724462067535248 2.0745560971120542 0 0.54463904215088732 0.83867056331134215 1 0 0 1 I I #
point $-1 -16.350167180966096 15.217478130103114 4.3735991794472699 #
loop $-1 $-1 $306 $298 #
plane-surface $-1 0 19.532142995848538 0 0 -1 0 0 0 -1 forward_v I I I I #
coedge $-1 $427 $301 $303 $431 reversed $190 $-1 #
coedge $-1 $301 $426 $528 $529 reversed $190 $-1 #
coedge $-1 $309 $304 $301 $429 forward $299 $-1 #
edge $-1 $432 -6.5861633809194693 $530 2.04316635057139 $428 $531 forward 7 unknown #
coedge $-1 $303 $302 $435 $532 reversed $119 $-1 #
edge $-1 $533 -39.064285991697076 $432 -28.774989921235896 $426 $534 forward 7 unknown #
vertex $-1 $305 $535 #
straight-curve $-1 14.767532274861356 10.902813264357679 7.1755753575586994 1 0 0 I I #
coedge $-1 $528 $306 $309 $439 reversed $424 $-1 #
coedge $-1 $306 $528 $430 $532 forward $424 $-1 #
vertex $-1 $307 $536 #
straight-curve $-1 22.532624764929494 19.532142995848538 48.540588872969209 0 0 1 I I #
straight-curve $-1 22.532624764929494 -13.229923742163422 22.847558306162057 0 0.83867056331134215 -0.54463904215088732 I I #
edge $-1 $530 -36.53750433451593 $310 -22.532624764929494 $434 $537 forward 7 unknown #
point $-1 22.532624764929494 19.532142995848538 7.1755753575587011 #
point $-1 22.532624764929494 10.902813264357679 7.1755753575587011 #
edge $-1 $538 1 $538 0 $313 $-1 forward 7 unknown #
vertex $-1 $314 $539 #
ellipse-curve $-1 26.534018927668477 13.724462067535248 2.0745560971120542 0 0.54463904215088732 0.83867056331134215 1 0 0 1 I I #
point $-1 27.534018927668477 15.217478130103114 4.3735991794472699 #
edge $-1 $540 1 $540 0 $317 $-1 forward 7 unknown #
vertex $-1 $318 $541 #
ellipse-curve $-1 32.536110171776947 13.724462067535248 2.0745560971120542 0 0.54463904215088732 0.83867056331134215 1 0 0 1 I I #
point $-1 33.536110171776947 15.217478130103114 4.3735991794472699 #
loop $-1 $-1 $329 $321 #
plane-surface $-1 0 -19.532142995848538 0 0 1 0 0 0 1 forward_v I I I I #
coedge $-1 $453 $324 $326 $457 reversed $212 $-1 #
coedge $-1 $324 $452 $542 $543 reversed $212 $-1 #
coedge $-1 $332 $327 $324 $455 forward $322 $-1 #
edge $-1 $458 -23.550776768852643 $544 -18.681601206932164 $454 $545 forward 7 unknown #
coedge $-1 $326 $325 $461 $546 reversed $133 $-1 #
edge $-1 $547 -9.1539886837149753e-015 $458 6.356257326576328 $452 $548 forward 7 unknown #
vertex $-1 $328 $549 #
straight-curve $-1 -10.553906695349756 -14.66296743392806 7.1755753575587011 -1 0 0 I I #
coedge $-1 $542 $329 $332 $465 reversed $450 $-1 #
coedge $-1 $329 $542 $456 $546 forward $450 $-1 #
vertex $-1 $330 $550 #
straight-curve $-1 -12.237798087732671 -19.532142995848538 35.447541363787238 0 0 1 I I #
straight-curve $-1 -12.237798087732671 -19.532142995848531 3.0898518538384963 0 -0.76604443648966558 -0.64278761758704617 I I #
edge $-1 $544 -29.977828693666353 $333 -12.237798087732671 $460 $551 forward 7 unknown #
point $-1 -12.237798087732671 -19.532142995848538 7.1755753575587011 #
point $-1 -12.237798087732671 -14.66296743392806 7.1755753575587011 #
edge $-1 $552 1 $552 0 $336 $-1 forward 7 unknown #
vertex $-1 $337 $553 #
ellipse-curve $-1 -26.429822572479615 -14.595083581454457 2.1503841086534856 0 -0.64278761758704617 0.76604443648966558 1 0 0 1 I I #
point $-1 -25.429822572479615 -17.097555214888299 5.132713605698596 #
edge $-1 $554 1 $554 0 $340 $-1 forward 7 unknown #
vertex $-1 $341 $555 #
ellipse-curve $-1 -21.107813390699512 -14.595083581454457 2.1503841086534856 0 -0.64278761758704617 0.76604443648966558 1 0 0 1 I I #
point $-1 -20.107813390699512 -17.097555214888299 5.132713605698596 #
edge $-1 $556 1 $556 0 $344 $-1 forward 7 unknown #
vertex $-1 $345 $557 #
ellipse-curve $-1 -15.785804208919409 -14.595083581454457 2.1503841086534856 0 -0.64278761758704617 0.76604443648966558 1 0 0 1 I I #
point $-1 -14.785804208919409 -17.097555214888299 5.132713605698596 #
plane-surface $-1 44.256721701712088 0 0 -1 0 0 0 0 1 forward_v I I I I #
coedge $-1 $353 $351 $355 $485 reversed $241 $-1 #
edge $-1 $366 -7.1755753575587011 $487 7.1755753575587011 $365 $558 forward 7 unknown #
vertex $-1 $485 $559 #
straight-curve $-1 -44.256721701712088 -19.532142995848538 0 0 0 -1 I I #
edge $-1 $483 -19.532142995848538 $487 19.532142995848538 $481 $560 forward 7 unknown #
straight-curve $-1 0 -19.532142995848538 -7.1755753575587011 -1 0 0 I I #
vertex $-1 $358 $561 #
straight-curve $-1 0 19.532142995848538 -7.1755753575587011 1 0 0 I I #
point $-1 44.256721701712088 19.532142995848538 -7.1755753575587011 #
point $-1 44.256721701712088 -19.532142995848538 -7.1755753575587011 #
straight-curve $-1 -44.256721701712088 0 7.1755753575587011 0 -1 0 I I #
point $-1 -44.256721701712088 19.532142995848538 7.1755753575587011 #
point $-1 -44.256721701712088 -19.532142995848538 7.1755753575587011 #
straight-curve $-1 44.256721701712088 -19.532142995848538 0 0 0 -1 I I #
straight-curve $-1 44.256721701712088 19.532142995848538 0 0 0 -1 I I #
plane-surface $-1 0 0 7.1755753575587011 0 0 1 1 0 0 forward_v I I I I #
coedge $-1 $380 $377 $382 $504 reversed $260 $-1 #
coedge $-1 $377 $380 $510 $562 reversed $260 $-1 #
edge $-1 $512 -7.1755753575587011 $506 7.1755753575587011 $394 $563 forward 7 unknown #
edge $-1 $501 -4.5919258733511867 $392 4.5919258733511867 $379 $564 forward 7 unknown #
vertex $-1 $562 $565 #
vertex $-1 $504 $566 #
straight-curve $-1 -53.440573448414462 -8.1809922807311359 0 0 0 -1 I I #
edge $-1 $502 -1.5 $506 1.5 $497 $567 forward 7 unknown #
straight-curve $-1 -48.848647575063275 -8.1809922807311359 -7.1755753575587011 -1 0 0 I I #
vertex $-1 $384 $568 #
straight-curve $-1 -48.848647575063275 -5.1809922807311359 -7.1755753575587011 1 0 0 I I #
point $-1 -44.256721701712088 -8.1809922807311359 -7.1755753575587011 #
straight-curve $-1 -44.256721701712088 -8.1809922807311359 0 0 0 -1 I I #
coedge $-1 $390 $389 $498 $562 forward $391 $-1 #
point $-1 -44.256721701712088 -8.1809922807311359 7.1755753575587011 #
vertex $-1 $395 $569 #
straight-curve $-1 -48.848647575063275 -5.1809922807311359 7.1755753575587011 -1 0 0 I I #
coedge $-1 $409 $408 $401 $515 forward $398 $-1 #
edge $-1 $516 41.36501351541051 $519 46.968965871633372 $514 $570 forward 7 unknown #
vertex $-1 $413 $571 #
straight-curve $-1 -13.348773018227114 17.488976645277148 7.1755753575586994 0 1 0 I I #
edge $-1 $519 3.1731666167169479 $410 17.178046186303384 $409 $572 forward 7 unknown #
vertex $-1 $518 $573 #
straight-curve $-1 -13.348773018227114 -13.229923742163422 22.847558306162057 0 -0.83867056331134215 0.54463904215088732 I I #
point $-1 -13.348773018227114 10.902813264357679 7.1755753575587011 #
point $-1 -27.353652587813549 19.532142995848538 1.571623001335837 #
straight-curve $-1 0 19.532142995848538 7.1755753575587011 -1 0 0 I I #
vertex $-1 $416 $574 #
point $-1 -22.352258425074567 13.724462067535248 2.0745560971120542 #
vertex $-1 $420 $575 #
point $-1 -16.350167180966096 13.724462067535248 2.0745560971120542 #
coedge $-1 $435 $434 $427 $529 forward $424 $-1 #
edge $-1 $530 41.36501351541051 $533 46.968965871633372 $528 $576 forward 7 unknown #
vertex $-1 $439 $577 #
straight-curve $-1 36.53750433451593 17.488976645277148 7.1755753575586994 0 1 0 I I #
edge $-1 $533 -21.769972059654574 $436 -7.7650924900681382 $435 $578 forward 7 unknown #
vertex $-1 $532 $579 #
straight-curve $-1 36.53750433451593 -13.229923742163422 22.847558306162057 0 -0.83867056331134215 0.54463904215088732 I I #
point $-1 36.53750433451593 10.902813264357679 7.1755753575587011 #
point $-1 22.532624764929494 19.532142995848538 1.571623001335837 #
straight-curve $-1 0 19.532142995848538 7.1755753575587011 -1 0 0 I I #
vertex $-1 $442 $580 #
point $-1 27.534018927668477 13.724462067535248 2.0745560971120542 #
vertex $-1 $446 $581 #
point $-1 33.536110171776947 13.724462067535248 2.0745560971120542 #
coedge $-1 $461 $460 $453 $543 forward $450 $-1 #
edge $-1 $544 28.271966006228539 $547 32.357689509948749 $542 $582 forward 7 unknown #
vertex $-1 $465 $583 #
straight-curve $-1 -29.977828693666353 -38.213744202780703 7.1755753575586994 0 -1 0 I I #
edge $-1 $547 -19.423921998316597 $462 -1.6838913923829146 $461 $584 forward 7 unknown #
vertex $-1 $546 $585 #
straight-curve $-1 -29.977828693666353 -19.532142995848531 3.0898518538384963 0 0.76604443648966558 0.64278761758704617 I I #
point $-1 -29.977828693666353 -14.66296743392806 7.1755753575587011 #
point $-1 -12.237798087732671 -19.532142995848538 3.0898518538384905 #
straight-curve $-1 0 -19.532142995848538 7.1755753575587011 1 0 0 I I #
vertex $-1 $468 $586 #
point $-1 -25.429822572479615 -14.595083581454457 2.1503841086534856 #
vertex $-1 $472 $587 #
point $-1 -20.107813390699512 -14.595083581454457 2.1503841086534856 #
vertex $-1 $476 $588 #
point $-1 -14.785804208919409 -14.595083581454457 2.1503841086534856 #
straight-curve $-1 -44.256721701712088 19.532142995848538 0 0 0 -1 I I #
point $-1 -44.256721701712088 -19.532142995848538 -7.1755753575587011 #
straight-curve $-1 -44.256721701712088 0 -7.1755753575587011 0 1 0 I I #
point $-1 -44.256721701712088 19.532142995848538 -7.1755753575587011 #
edge $-1 $512 -1.5 $501 1.5 $498 $589 forward 7 unknown #
straight-curve $-1 -53.440573448414462 -5.1809922807311359 0 0 0 -1 I I #
straight-curve $-1 -48.848647575063275 -8.1809922807311359 7.1755753575587011 1 0 0 I I #
point $-1 -53.440573448414462 -8.1809922807311359 7.1755753575587011 #
point $-1 -53.440573448414462 -8.1809922807311359 -7.1755753575587011 #
straight-curve $-1 -53.440573448414462 -6.6809922807311359 -7.1755753575587011 0 1 0 I I #
point $-1 -53.440573448414462 -5.1809922807311359 -7.1755753575587011 #
point $-1 -53.440573448414462 -5.1809922807311359 7.1755753575587011 #
straight-curve $-1 -13.348773018227114 19.532142995848538 48.540588872969209 0 0 -1 I I #
point $-1 -13.348773018227114 19.532142995848538 7.1755753575587011 #
straight-curve $-1 -10.175606401510166 19.532142995848538 1.571623001335837 -1 0 0 I I #
point $-1 -13.348773018227114 19.532142995848538 1.571623001335837 #
point $-1 -23.352258425074567 13.17982302538436 1.2358855338007122 #
point $-1 -17.350167180966096 13.17982302538436 1.2358855338007122 #
straight-curve $-1 36.53750433451593 19.532142995848538 48.540588872969209 0 0 -1 I I #
point $-1 36.53750433451593 19.532142995848538 7.1755753575587011 #
straight-curve $-1 14.767532274861356 19.532142995848538 1.571623001335837 -1 0 0 I I #
point $-1 36.53750433451593 19.532142995848538 1.571623001335837 #
point $-1 26.534018927668477 13.17982302538436 1.2358855338007122 #
point $-1 32.536110171776947 13.17982302538436 1.2358855338007122 #
straight-curve $-1 -29.977828693666353 -19.532142995848538 35.447541363787238 0 0 -1 I I #
point $-1 -29.977828693666353 -19.532142995848538 7.1755753575587011 #
straight-curve $-1 -10.553906695349756 -19.532142995848538 3.0898518538384909 1 0 0 I I #
point $-1 -29.977828693666353 -19.532142995848538 3.0898518538384905 #
point $-1 -26.429822572479615 -13.95229596386741 1.3843396721638199 #
point $-1 -21.107813390699512 -13.95229596386741 1.3843396721638199 #
point $-1 -15.785804208919409 -13.95229596386741 1.3843396721638199 #
straight-curve $-1 -53.440573448414462 -6.6809922807311359 7.1755753575587011 0 -1 0 I I #
End-of-ACIS-data 