500 0 12 0           
7 Unknown 11 ACIS 5.0 NT 24 Thu Mar 25 16:52:34 1999 
-1 9.9999999999999995e-007 1e-010 
body $-1 $12 $-1 $13 #
body $-1 $14 $-1 $15 #
body $-1 $16 $-1 $17 #
body $-1 $18 $-1 $19 #
body $-1 $20 $-1 $21 #
body $-1 $22 $-1 $23 #
body $-1 $24 $-1 $25 #
body $-1 $26 $-1 $27 #
body $-1 $28 $-1 $29 #
body $-1 $30 $-1 $31 #
body $-1 $32 $-1 $33 #
body $-1 $34 $-1 $35 #
lump $-1 $-1 $36 $0 #
transform $-1 1 0 0 0 1 0 0 0 1 48.833277382732625 32.73872811770736 10.101776501787782 1 rotate no_reflect no_shear #
lump $-1 $-1 $37 $1 #
transform $-1 1 0 0 0 1 0 0 0 1 48.833277382732625 32.73872811770736 10.101776501787782 1 rotate no_reflect no_shear #
lump $-1 $-1 $38 $2 #
transform $-1 1 0 0 0 1 0 0 0 1 48.833277382732625 32.73872811770736 10.101776501787782 1 rotate no_reflect no_shear #
lump $-1 $-1 $39 $3 #
transform $-1 1 0 0 0 1 0 0 0 1 48.833277382732625 32.73872811770736 10.101776501787782 1 rotate no_reflect no_shear #
lump $-1 $-1 $40 $4 #
transform $-1 1 0 0 0 1 0 0 0 1 48.833277382732625 32.73872811770736 10.101776501787782 1 rotate no_reflect no_shear #
lump $-1 $-1 $41 $5 #
transform $-1 1 0 0 0 1 0 0 0 1 48.833277382732625 32.73872811770736 10.101776501787782 1 rotate no_reflect no_shear #
lump $-1 $-1 $42 $6 #
transform $-1 1 0 0 0 1 0 0 0 1 48.833277382732625 32.73872811770736 10.101776501787782 1 rotate no_reflect no_shear #
lump $-1 $-1 $43 $7 #
transform $-1 1 0 0 0 1 0 0 0 1 48.833277382732625 32.73872811770736 10.101776501787782 1 rotate no_reflect no_shear #
lump $-1 $-1 $44 $8 #
transform $-1 1 0 0 0 1 0 0 0 1 48.833277382732625 32.73872811770736 10.101776501787782 1 rotate no_reflect no_shear #
lump $-1 $-1 $45 $9 #
transform $-1 1 0 0 0 1 0 0 0 1 48.833277382732625 32.73872811770736 10.101776501787782 1 rotate no_reflect no_shear #
lump $-1 $-1 $46 $10 #
transform $-1 1 0 0 0 1 0 0 0 1 48.833277382732625 32.73872811770736 10.101776501787782 1 rotate no_reflect no_shear #
lump $-1 $-1 $47 $11 #
transform $-1 1 0 0 0 1 0 0 0 1 48.833277382732625 32.73872811770736 10.101776501787782 1 rotate no_reflect no_shear #
shell $-1 $-1 $-1 $48 $-1 $12 #
shell $-1 $-1 $-1 $49 $-1 $14 #
shell $-1 $-1 $-1 $50 $-1 $16 #
shell $-1 $-1 $-1 $51 $-1 $18 #
shell $-1 $-1 $-1 $52 $-1 $20 #
shell $-1 $-1 $-1 $53 $-1 $22 #
shell $-1 $-1 $-1 $54 $-1 $24 #
shell $-1 $-1 $-1 $55 $-1 $26 #
shell $-1 $-1 $-1 $56 $-1 $28 #
shell $-1 $-1 $-1 $57 $-1 $30 #
shell $-1 $-1 $-1 $58 $-1 $32 #
shell $-1 $-1 $-1 $59 $-1 $34 #
face $-1 $60 $61 $36 $-1 $62 forward single #
face $-1 $63 $64 $37 $-1 $65 reversed single #
face $-1 $66 $67 $38 $-1 $68 reversed single #
face $-1 $69 $70 $39 $-1 $71 forward single #
face $-1 $72 $73 $40 $-1 $74 reversed single #
face $-1 $75 $76 $41 $-1 $77 forward single #
face $-1 $78 $79 $42 $-1 $80 reversed single #
face $-1 $81 $82 $43 $-1 $83 forward single #
face $-1 $84 $85 $44 $-1 $86 reversed single #
face $-1 $87 $88 $45 $-1 $89 forward single #
face $-1 $90 $91 $46 $-1 $92 reversed single #
face $-1 $93 $94 $47 $-1 $95 forward single #
face $-1 $96 $97 $36 $-1 $98 reversed single #
loop $-1 $-1 $99 $48 #
plane-surface $-1 0 0 10.101776501787782 0 0 1 1 0 0 forward_v I I I I #
face $-1 $100 $101 $37 $-1 $102 reversed single #
loop $-1 $-1 $103 $49 #
plane-surface $-1 -38.626395226961563 -27.155757067588624 0 1 0 0 0 0 -1 forward_v I I I I #
face $-1 $104 $105 $38 $-1 $106 reversed single #
loop $-1 $-1 $107 $50 #
plane-surface $-1 -106.24023864949856 2.4810357062690116 85.505351012405995 0 1 0 -0.5877852598018023 0 0.80901698891910034 forward_v I I I I #
face $-1 $108 $109 $39 $-1 $110 forward single #
loop $-1 $111 $112 $51 #
cone-surface $-1 -45.483081990648373 5.9216182915644566 7.1052156523945911 0.5877852598018023 0 -0.80901698891910034 1.2135254833786506 0 0.88167788970270344 1 I I 0 1 1.5 forward I I I I #
face $-1 $113 $114 $40 $-1 $115 reversed single #
loop $-1 $-1 $116 $52 #
plane-surface $-1 20.116231718542004 -10.644309265086207 135.99755129878608 0 -1 0 -0.54463904215088732 0 -0.83867056331134215 forward_v I I I I #
face $-1 $117 $118 $41 $-1 $119 forward single #
loop $-1 $120 $121 $53 #
cone-surface $-1 40.681471676516999 -15.001644374515465 3.8615538999538765 -0.54463904215088732 0 -0.83867056331134215 0.83867056331134215 0 -0.54463904215088732 1 I I 0 1 1 forward I I I I #
face $-1 $122 $123 $42 $-1 $124 reversed single #
loop $-1 $-1 $125 $54 #
plane-surface $-1 20.116231718542004 3.078767684669935 135.99755129878608 0 -1 0 -0.54463904215088732 0 -0.83867056331134215 forward_v I I I I #
face $-1 $126 $127 $43 $-1 $128 forward single #
loop $-1 $129 $130 $55 #
cone-surface $-1 40.681471676516999 -1.2785674247593235 3.8615538999538765 -0.54463904215088732 0 -0.83867056331134215 0.83867056331134215 0 -0.54463904215088732 1 I I 0 1 1 forward I I I I #
face $-1 $131 $132 $44 $-1 $133 reversed single #
loop $-1 $-1 $134 $56 #
plane-surface $-1 20.116231718542004 16.801844634426075 135.99755129878608 0 -1 0 -0.54463904215088732 0 -0.83867056331134215 forward_v I I I I #
face $-1 $135 $136 $45 $-1 $137 forward single #
loop $-1 $138 $139 $57 #
cone-surface $-1 40.681471676516999 12.444509524996818 3.8615538999538765 -0.54463904215088732 0 -0.83867056331134215 0.83867056331134215 0 -0.54463904215088732 1 I I 0 1 1 forward I I I I #
face $-1 $140 $141 $46 $-1 $142 reversed single #
loop $-1 $-1 $143 $58 #
plane-surface $-1 20.116231718542004 30.524921584182216 135.99755129878608 0 -1 0 -0.54463904215088732 0 -0.83867056331134215 forward_v I I I I #
face $-1 $144 $145 $47 $-1 $146 forward single #
loop $-1 $147 $148 $59 #
cone-surface $-1 40.681471676516999 26.167586474752959 3.8615538999538765 -0.54463904215088732 0 -0.83867056331134215 0.83867056331134215 0 -0.54463904215088732 1 I I 0 1 1 forward I I I I #
face $-1 $149 $150 $36 $-1 $151 reversed single #
loop $-1 $-1 $152 $60 #
plane-surface $-1 0 0 -10.101776501787782 0 0 1 1 0 0 forward_v I I I I #
coedge $-1 $153 $154 $155 $156 forward $61 $-1 #
face $-1 $157 $158 $37 $-1 $159 reversed single #
loop $-1 $-1 $160 $63 #
plane-surface $-1 -37.079174372763063 -21.572786017469888 0 0 -1 0 0 0 -1 forward_v I I I I #
coedge $-1 $161 $162 $163 $164 forward $64 $-1 #
face $-1 $165 $166 $38 $-1 $167 reversed single #
loop $-1 $-1 $168 $66 #
plane-surface $-1 -48.833277382732618 5.9216182915644566 6.4914489579468864 -0.5877852598018023 0 0.80901698891910034 0.80901698891910034 0 0.5877852598018023 forward_v I I I I #
coedge $-1 $169 $170 $171 $172 reversed $67 $-1 #
face $-1 $-1 $173 $39 $-1 $174 forward single #
loop $-1 $175 $176 $69 #
cone-surface $-1 -44.176642384375739 5.9216182915644566 5.3070558332325195 0.5877852598018023 0 -0.80901698891910034 0.60676274168932531 0 0.44083894485135172 1 I I -0.70710678118654757 0.70710678118654757 0.75 forward I I I I #
loop $-1 $-1 $177 $51 #
coedge $-1 $112 $112 $178 $179 reversed $70 $-1 #
face $-1 $180 $181 $40 $-1 $182 reversed single #
loop $-1 $-1 $183 $72 #
plane-surface $-1 -33.076787119098171 -15.001644374515465 54.087486796955289 0.54463904215088732 0 0.83867056331134215 0.83867056331134215 0 -0.54463904215088732 forward_v I I I I #
coedge $-1 $184 $185 $186 $187 reversed $73 $-1 #
face $-1 $-1 $188 $41 $-1 $189 forward single #
loop $-1 $190 $191 $75 #
cone-surface $-1 39.346352234967604 -15.001644374515465 1.8056502877006366 -0.54463904215088732 0 -0.83867056331134215 0.41933528165567108 0 -0.27231952107544366 1 I I -0.70710678118654746 0.70710678118654746 0.5 forward I I I I #
loop $-1 $-1 $192 $53 #
coedge $-1 $121 $121 $193 $194 reversed $76 $-1 #
face $-1 $195 $196 $42 $-1 $197 reversed single #
loop $-1 $-1 $198 $78 #
plane-surface $-1 -33.076787119098171 -1.2785674247593235 54.087486796955289 0.54463904215088732 0 0.83867056331134215 0.83867056331134215 0 -0.54463904215088732 forward_v I I I I #
coedge $-1 $199 $200 $201 $202 reversed $79 $-1 #
face $-1 $-1 $203 $43 $-1 $204 forward single #
loop $-1 $205 $206 $81 #
cone-surface $-1 39.346352234967604 -1.2785674247593235 1.8056502877006366 -0.54463904215088732 0 -0.83867056331134215 0.41933528165567108 0 -0.27231952107544366 1 I I -0.70710678118654746 0.70710678118654746 0.5 forward I I I I #
loop $-1 $-1 $207 $55 #
coedge $-1 $130 $130 $208 $209 reversed $82 $-1 #
face $-1 $210 $211 $44 $-1 $212 reversed single #
loop $-1 $-1 $213 $84 #
plane-surface $-1 -33.076787119098171 12.444509524996818 54.087486796955289 0.54463904215088732 0 0.83867056331134215 0.83867056331134215 0 -0.54463904215088732 forward_v I I I I #
coedge $-1 $214 $215 $216 $217 reversed $85 $-1 #
face $-1 $-1 $218 $45 $-1 $219 forward single #
loop $-1 $220 $221 $87 #
cone-surface $-1 39.346352234967604 12.444509524996818 1.8056502877006366 -0.54463904215088732 0 -0.83867056331134215 0.41933528165567108 0 -0.27231952107544366 1 I I -0.70710678118654746 0.70710678118654746 0.5 forward I I I I #
loop $-1 $-1 $222 $57 #
coedge $-1 $139 $139 $223 $224 reversed $88 $-1 #
face $-1 $225 $226 $46 $-1 $227 reversed single #
loop $-1 $-1 $228 $90 #
plane-surface $-1 -33.076787119098171 26.167586474752959 54.087486796955289 0.54463904215088732 0 0.83867056331134215 0.83867056331134215 0 -0.54463904215088732 forward_v I I I I #
coedge $-1 $229 $230 $231 $232 reversed $91 $-1 #
face $-1 $-1 $233 $47 $-1 $234 forward single #
loop $-1 $235 $236 $93 #
cone-surface $-1 39.346352234967604 26.167586474752959 1.8056502877006366 -0.54463904215088732 0 -0.83867056331134215 0.41933528165567108 0 -0.27231952107544366 1 I I -0.70710678118654746 0.70710678118654746 0.5 forward I I I I #
loop $-1 $-1 $237 $59 #
coedge $-1 $148 $148 $238 $239 reversed $94 $-1 #
face $-1 $240 $241 $36 $-1 $242 reversed single #
loop $-1 $-1 $243 $96 #
plane-surface $-1 0 -32.73872811770736 0 0 1 0 0 0 1 forward_v I I I I #
coedge $-1 $244 $245 $246 $247 forward $97 $-1 #
coedge $-1 $248 $99 $249 $250 forward $61 $-1 #
coedge $-1 $99 $248 $251 $252 forward $61 $-1 #
coedge $-1 $253 $254 $99 $156 reversed $255 $-1 #
edge $-1 $256 -32.73872811770736 $257 32.73872811770736 $155 $258 forward 7 unknown #
face $-1 $259 $260 $37 $-1 $261 forward single #
loop $-1 $-1 $262 $100 #
plane-surface $-1 -35.531953518564563 -27.155757067588624 0 -1 0 0 0 0 1 forward_v I I I I #
coedge $-1 $263 $264 $265 $266 forward $101 $-1 #
coedge $-1 $267 $103 $268 $269 reversed $64 $-1 #
coedge $-1 $103 $267 $270 $271 reversed $64 $-1 #
coedge $-1 $264 $263 $103 $164 reversed $101 $-1 #
edge $-1 $272 -10.101776501787782 $273 10.101776501787782 $163 $274 forward 7 unknown #
face $-1 $275 $276 $38 $-1 $277 reversed single #
loop $-1 $-1 $278 $104 #
plane-surface $-1 -106.24023864949856 9.3622008768599017 85.505351012405995 0 -1 0 0.5877852598018023 0 -0.80901698891910034 forward_v I I I I #
coedge $-1 $279 $280 $281 $282 reversed $105 $-1 #
coedge $-1 $170 $107 $283 $284 reversed $67 $-1 #
coedge $-1 $107 $169 $279 $285 reversed $67 $-1 #
coedge $-1 $281 $286 $107 $172 forward $287 $-1 #
edge $-1 $288 4.2868419420166575 $289 9.2560314033426181 $171 $290 forward 7 unknown #
loop $-1 $-1 $178 $108 #
plane-surface $-1 -48.833277382732618 5.9216182915644566 6.4914489579468864 -0.5877852598018023 0 0.80901698891910034 0.80901698891910034 0 0.5877852598018023 forward_v I I I I #
loop $-1 $-1 $291 $69 #
coedge $-1 $176 $176 $177 $292 reversed $109 $-1 #
coedge $-1 $177 $177 $176 $292 forward $111 $-1 #
coedge $-1 $178 $178 $112 $179 forward $173 $-1 #
edge $-1 $293 0 $293 6.2831853071796004 $178 $294 forward 7 unknown #
face $-1 $295 $296 $40 $-1 $297 forward single #
loop $-1 $-1 $298 $113 #
plane-surface $-1 20.116231718542004 -19.358979483944722 135.99755129878608 0 1 0 0.54463904215088732 0 0.83867056331134215 forward_v I I I I #
coedge $-1 $299 $300 $301 $302 reversed $114 $-1 #
coedge $-1 $185 $116 $303 $304 reversed $73 $-1 #
coedge $-1 $116 $184 $299 $305 reversed $73 $-1 #
coedge $-1 $301 $306 $116 $187 forward $296 $-1 #
edge $-1 $307 -38.77516152346162 $308 -24.597149951978277 $186 $309 forward 7 unknown #
loop $-1 $-1 $193 $117 #
plane-surface $-1 -33.076787119098171 -15.001644374515465 54.087486796955289 0.54463904215088732 0 0.83867056331134215 0.83867056331134215 0 -0.54463904215088732 forward_v I I I I #
loop $-1 $-1 $310 $75 #
coedge $-1 $191 $191 $192 $311 reversed $118 $-1 #
coedge $-1 $192 $192 $191 $311 forward $120 $-1 #
coedge $-1 $193 $193 $121 $194 forward $188 $-1 #
edge $-1 $312 0 $312 6.2831853071796004 $193 $313 forward 7 unknown #
face $-1 $314 $315 $42 $-1 $316 reversed single #
loop $-1 $-1 $317 $122 #
plane-surface $-1 20.116231718542004 -5.635902534188582 135.99755129878608 0 1 0 0.54463904215088732 0 0.83867056331134215 forward_v I I I I #
coedge $-1 $318 $319 $320 $321 reversed $123 $-1 #
coedge $-1 $200 $125 $322 $323 reversed $79 $-1 #
coedge $-1 $125 $199 $318 $324 reversed $79 $-1 #
coedge $-1 $320 $325 $125 $202 forward $326 $-1 #
edge $-1 $327 -38.77516152346162 $328 -24.597149951978277 $201 $329 forward 7 unknown #
loop $-1 $-1 $208 $126 #
plane-surface $-1 -33.076787119098171 -1.2785674247593235 54.087486796955289 0.54463904215088732 0 0.83867056331134215 0.83867056331134215 0 -0.54463904215088732 forward_v I I I I #
loop $-1 $-1 $330 $81 #
coedge $-1 $206 $206 $207 $331 reversed $127 $-1 #
coedge $-1 $207 $207 $206 $331 forward $129 $-1 #
coedge $-1 $208 $208 $130 $209 forward $203 $-1 #
edge $-1 $332 0 $332 6.2831853071796004 $208 $333 forward 7 unknown #
face $-1 $334 $335 $44 $-1 $336 reversed single #
loop $-1 $-1 $337 $131 #
plane-surface $-1 20.116231718542004 8.08717441556756 135.99755129878608 0 1 0 0.54463904215088732 0 0.83867056331134215 forward_v I I I I #
coedge $-1 $338 $339 $340 $341 reversed $132 $-1 #
coedge $-1 $215 $134 $342 $343 reversed $85 $-1 #
coedge $-1 $134 $214 $338 $344 reversed $85 $-1 #
coedge $-1 $340 $345 $134 $217 forward $346 $-1 #
edge $-1 $347 -38.77516152346162 $348 -24.597149951978277 $216 $349 forward 7 unknown #
loop $-1 $-1 $223 $135 #
plane-surface $-1 -33.076787119098171 12.444509524996818 54.087486796955289 0.54463904215088732 0 0.83867056331134215 0.83867056331134215 0 -0.54463904215088732 forward_v I I I I #
loop $-1 $-1 $350 $87 #
coedge $-1 $221 $221 $222 $351 reversed $136 $-1 #
coedge $-1 $222 $222 $221 $351 forward $138 $-1 #
coedge $-1 $223 $223 $139 $224 forward $218 $-1 #
edge $-1 $352 0 $352 6.2831853071796004 $223 $353 forward 7 unknown #
face $-1 $354 $355 $46 $-1 $356 reversed single #
loop $-1 $-1 $357 $140 #
plane-surface $-1 20.116231718542004 21.810251365323701 135.99755129878608 0 1 0 0.54463904215088732 0 0.83867056331134215 forward_v I I I I #
coedge $-1 $358 $359 $360 $361 reversed $141 $-1 #
coedge $-1 $230 $143 $362 $363 reversed $91 $-1 #
coedge $-1 $143 $229 $358 $364 reversed $91 $-1 #
coedge $-1 $360 $365 $143 $232 forward $366 $-1 #
edge $-1 $367 -38.77516152346162 $368 -24.597149951978277 $231 $369 forward 7 unknown #
loop $-1 $-1 $238 $144 #
plane-surface $-1 -33.076787119098171 26.167586474752959 54.087486796955289 0.54463904215088732 0 0.83867056331134215 0.83867056331134215 0 -0.54463904215088732 forward_v I I I I #
loop $-1 $-1 $370 $93 #
coedge $-1 $236 $236 $237 $371 reversed $145 $-1 #
coedge $-1 $237 $237 $236 $371 forward $147 $-1 #
coedge $-1 $238 $238 $148 $239 forward $233 $-1 #
edge $-1 $372 0 $372 6.2831853071796004 $238 $373 forward 7 unknown #
face $-1 $374 $375 $36 $-1 $376 reversed single #
loop $-1 $-1 $377 $149 #
plane-surface $-1 -48.833277382732625 0 0 1 0 0 0 0 -1 forward_v I I I I #
coedge $-1 $378 $251 $379 $380 forward $150 $-1 #
coedge $-1 $381 $152 $378 $382 forward $97 $-1 #
coedge $-1 $152 $381 $383 $384 forward $97 $-1 #
coedge $-1 $254 $253 $152 $247 reversed $255 $-1 #
edge $-1 $385 -32.73872811770736 $386 32.73872811770736 $246 $387 forward 7 unknown #
coedge $-1 $154 $153 $388 $389 forward $61 $-1 #
coedge $-1 $390 $391 $153 $250 reversed $375 $-1 #
edge $-1 $257 -48.833277382732625 $392 48.833277382732625 $249 $393 forward 7 unknown #
coedge $-1 $243 $394 $154 $252 reversed $150 $-1 #
edge $-1 $395 -48.833277382732625 $256 48.833277382732625 $251 $396 forward 7 unknown #
coedge $-1 $246 $155 $394 $397 forward $255 $-1 #
coedge $-1 $155 $246 $390 $398 reversed $255 $-1 #
loop $-1 $-1 $253 $374 #
vertex $-1 $156 $399 #
vertex $-1 $156 $400 #
straight-curve $-1 48.833277382732625 0 10.101776501787782 0 1 0 I I #
face $-1 $401 $402 $37 $-1 $403 reversed single #
loop $-1 $-1 $404 $157 #
plane-surface $-1 0 0 10.101776501787782 0 0 1 1 0 0 forward_v I I I I #
coedge $-1 $405 $406 $407 $408 reversed $158 $-1 #
coedge $-1 $163 $160 $409 $410 reversed $101 $-1 #
coedge $-1 $160 $163 $411 $412 reversed $101 $-1 #
coedge $-1 $406 $405 $160 $266 reversed $158 $-1 #
edge $-1 $413 -10.101776501787782 $414 10.101776501787782 $265 $415 forward 7 unknown #
coedge $-1 $162 $161 $416 $417 reversed $64 $-1 #
coedge $-1 $409 $418 $161 $269 forward $402 $-1 #
edge $-1 $419 -19.160849583913048 $273 -7.9949074836755756 $268 $420 forward 7 unknown #
coedge $-1 $421 $411 $162 $271 forward $260 $-1 #
edge $-1 $272 7.9949074836755756 $422 19.160849583913048 $270 $423 forward 7 unknown #
vertex $-1 $271 $424 #
vertex $-1 $269 $425 #
straight-curve $-1 -38.626395226961563 -21.572786017469888 0 0 0 -1 I I #
face $-1 $-1 $287 $38 $-1 $426 forward single #
loop $-1 $-1 $427 $165 #
plane-surface $-1 -48.833277382732625 0 0 1 0 0 0 0 -1 forward_v I I I I #
coedge $-1 $428 $429 $430 $431 reversed $166 $-1 #
coedge $-1 $432 $168 $170 $285 forward $105 $-1 #
coedge $-1 $168 $432 $428 $433 forward $105 $-1 #
coedge $-1 $430 $171 $168 $282 forward $287 $-1 #
edge $-1 $289 -0.47977343951321672 $434 6.4013917310776733 $281 $435 forward 7 unknown #
coedge $-1 $436 $437 $169 $284 forward $276 $-1 #
edge $-1 $438 -36.261226548256118 $288 -32.650899004415216 $283 $439 forward 7 unknown #
edge $-1 $289 -6.1422560086965738 $438 8.8807605448725156e-015 $170 $440 forward 7 unknown #
coedge $-1 $171 $430 $436 $441 forward $287 $-1 #
loop $-1 $-1 $430 $275 #
vertex $-1 $284 $442 #
vertex $-1 $172 $443 #
straight-curve $-1 -53.120119324749282 2.4810357062690116 10.101776501787782 1 0 0 I I #
coedge $-1 $291 $291 $-1 $444 reversed $175 $-1 #
edge $-1 $445 0 $445 6.2831853071796004 $176 $446 forward 7 unknown #
vertex $-1 $179 $447 #
ellipse-curve $-1 -46.348682652069648 5.9216182915644566 8.2966127298673307 -0.5877852598018023 0 0.80901698891910034 1.2135254833786506 0 0.88167788970270344 1 I I #
face $-1 $-1 $448 $40 $-1 $449 reversed single #
loop $-1 $-1 $186 $180 #
plane-surface $-1 0 0 10.101776501787782 0 0 1 1 0 0 forward_v I I I I #
coedge $-1 $450 $451 $452 $453 reversed $181 $-1 #
coedge $-1 $454 $183 $185 $305 forward $114 $-1 #
coedge $-1 $183 $454 $450 $455 forward $114 $-1 #
coedge $-1 $452 $186 $183 $302 forward $296 $-1 #
edge $-1 $308 3.1434870778284747 $456 11.85815729668699 $301 $457 forward 7 unknown #
coedge $-1 $458 $459 $184 $304 forward $448 $-1 #
edge $-1 $460 -67.104307690077917 $307 -57.896999147605257 $303 $461 forward 7 unknown #
edge $-1 $308 80.761214108814585 $460 97.666554765465236 $185 $462 forward 7 unknown #
coedge $-1 $186 $452 $458 $463 forward $296 $-1 #
vertex $-1 $304 $464 #
vertex $-1 $187 $465 #
straight-curve $-1 10.058115859271002 -10.644309265086207 10.101776501787782 -1 0 0 I I #
coedge $-1 $310 $310 $-1 $466 reversed $190 $-1 #
edge $-1 $467 0 $467 6.2831853071796004 $191 $468 forward 7 unknown #
vertex $-1 $194 $469 #
ellipse-curve $-1 41.744271596990949 -15.001644374515465 5.4981222305514468 0.54463904215088732 0 0.83867056331134215 0.83867056331134215 0 -0.54463904215088732 1 I I #
face $-1 $-1 $326 $42 $-1 $470 forward single #
loop $-1 $-1 $471 $195 #
plane-surface $-1 48.833277382732625 0 0 -1 0 0 0 0 1 forward_v I I I I #
coedge $-1 $472 $473 $474 $475 reversed $196 $-1 #
coedge $-1 $476 $198 $200 $324 forward $123 $-1 #
coedge $-1 $198 $476 $472 $477 forward $123 $-1 #
coedge $-1 $474 $201 $198 $321 forward $326 $-1 #
edge $-1 $328 -3.7180513970495968 $478 4.9966188218089203 $320 $479 forward 7 unknown #
coedge $-1 $480 $481 $199 $323 forward $315 $-1 #
edge $-1 $482 -67.104307690077917 $327 -57.896999147605257 $322 $483 forward 7 unknown #
edge $-1 $328 80.761214108814585 $482 97.666554765465236 $200 $484 forward 7 unknown #
coedge $-1 $201 $474 $480 $485 forward $326 $-1 #
loop $-1 $-1 $474 $314 #
vertex $-1 $323 $486 #
vertex $-1 $202 $487 #
straight-curve $-1 10.058115859271002 3.078767684669935 10.101776501787782 -1 0 0 I I #
coedge $-1 $330 $330 $-1 $488 reversed $205 $-1 #
edge $-1 $489 0 $489 6.2831853071796004 $206 $490 forward 7 unknown #
vertex $-1 $209 $491 #
ellipse-curve $-1 41.744271596990949 -1.2785674247593235 5.4981222305514468 0.54463904215088732 0 0.83867056331134215 0.83867056331134215 0 -0.54463904215088732 1 I I #
face $-1 $-1 $346 $44 $-1 $492 forward single #
loop $-1 $-1 $493 $210 #
plane-surface $-1 48.833277382732625 0 0 -1 0 0 0 0 1 forward_v I I I I #
coedge $-1 $494 $495 $496 $497 reversed $211 $-1 #
coedge $-1 $498 $213 $215 $344 forward $132 $-1 #
coedge $-1 $213 $498 $494 $499 forward $132 $-1 #
coedge $-1 $496 $216 $213 $341 forward $346 $-1 #
edge $-1 $348 -10.579589871927666 $500 -1.8649196530691512 $340 $501 forward 7 unknown #
coedge $-1 $502 $503 $214 $343 forward $335 $-1 #
edge $-1 $504 -67.104307690077917 $347 -57.896999147605257 $342 $505 forward 7 unknown #
edge $-1 $348 80.761214108814585 $504 97.666554765465236 $215 $506 forward 7 unknown #
coedge $-1 $216 $496 $502 $507 forward $346 $-1 #
loop $-1 $-1 $496 $334 #
vertex $-1 $343 $508 #
vertex $-1 $217 $509 #
straight-curve $-1 10.058115859271002 16.801844634426075 10.101776501787782 -1 0 0 I I #
coedge $-1 $350 $350 $-1 $510 reversed $220 $-1 #
edge $-1 $511 0 $511 6.2831853071796004 $221 $512 forward 7 unknown #
vertex $-1 $224 $513 #
ellipse-curve $-1 41.744271596990949 12.444509524996818 5.4981222305514468 0.54463904215088732 0 0.83867056331134215 0.83867056331134215 0 -0.54463904215088732 1 I I #
face $-1 $-1 $366 $46 $-1 $514 forward single #
loop $-1 $-1 $515 $225 #
plane-surface $-1 48.833277382732625 0 0 -1 0 0 0 0 1 forward_v I I I I #
coedge $-1 $516 $517 $518 $519 reversed $226 $-1 #
coedge $-1 $520 $228 $230 $364 forward $141 $-1 #
coedge $-1 $228 $520 $516 $521 forward $141 $-1 #
coedge $-1 $518 $231 $228 $361 forward $366 $-1 #
edge $-1 $368 -17.441128346805737 $522 -8.7264581279472218 $360 $523 forward 7 unknown #
coedge $-1 $524 $525 $229 $363 forward $355 $-1 #
edge $-1 $526 -67.104307690077917 $367 -57.896999147605257 $362 $527 forward 7 unknown #
edge $-1 $368 80.761214108814585 $526 97.666554765465236 $230 $528 forward 7 unknown #
coedge $-1 $231 $518 $524 $529 forward $366 $-1 #
loop $-1 $-1 $518 $354 #
vertex $-1 $363 $530 #
vertex $-1 $232 $531 #
straight-curve $-1 10.058115859271002 30.524921584182216 10.101776501787782 -1 0 0 I I #
coedge $-1 $370 $370 $-1 $532 reversed $235 $-1 #
edge $-1 $533 0 $533 6.2831853071796004 $236 $534 forward 7 unknown #
vertex $-1 $239 $535 #
ellipse-curve $-1 41.744271596990949 26.167586474752959 5.4981222305514468 0.54463904215088732 0 0.83867056331134215 0.83867056331134215 0 -0.54463904215088732 1 I I #
face $-1 $-1 $255 $36 $-1 $536 reversed single #
loop $-1 $-1 $390 $240 #
plane-surface $-1 0 32.73872811770736 0 0 -1 0 0 0 -1 forward_v I I I I #
coedge $-1 $537 $388 $391 $538 forward $241 $-1 #
coedge $-1 $394 $243 $244 $382 reversed $150 $-1 #
coedge $-1 $388 $537 $243 $380 reversed $241 $-1 #
edge $-1 $395 -10.101776501787782 $539 10.101776501787782 $379 $540 forward 7 unknown #
coedge $-1 $245 $244 $537 $541 forward $97 $-1 #
edge $-1 $386 -48.833277382732625 $539 48.833277382732625 $378 $542 forward 7 unknown #
coedge $-1 $391 $390 $245 $384 reversed $375 $-1 #
edge $-1 $543 -48.833277382732625 $385 48.833277382732625 $383 $544 forward 7 unknown #
vertex $-1 $247 $545 #
vertex $-1 $397 $546 #
straight-curve $-1 48.833277382732625 0 -10.101776501787782 0 -1 0 I I #
coedge $-1 $377 $379 $248 $389 reversed $241 $-1 #
edge $-1 $392 -32.73872811770736 $395 32.73872811770736 $388 $547 forward 7 unknown #
coedge $-1 $383 $249 $254 $398 forward $375 $-1 #
coedge $-1 $249 $383 $377 $538 reversed $375 $-1 #
vertex $-1 $250 $548 #
straight-curve $-1 0 32.73872811770736 10.101776501787782 -1 0 0 I I #
coedge $-1 $251 $378 $253 $397 reversed $150 $-1 #
vertex $-1 $389 $549 #
straight-curve $-1 0 -32.73872811770736 10.101776501787782 1 0 0 I I #
edge $-1 $256 -10.101776501787782 $386 10.101776501787782 $253 $550 forward 7 unknown #
edge $-1 $257 -10.101776501787782 $385 10.101776501787782 $254 $551 forward 7 unknown #
point $-1 48.833277382732625 -32.73872811770736 10.101776501787782 #
point $-1 48.833277382732625 32.73872811770736 10.101776501787782 #
face $-1 $-1 $552 $37 $-1 $553 reversed single #
loop $-1 $-1 $554 $259 #
plane-surface $-1 0 0 -10.101776501787782 0 0 1 1 0 0 forward_v I I I I #
coedge $-1 $411 $421 $406 $555 forward $260 $-1 #
coedge $-1 $265 $262 $554 $556 reversed $158 $-1 #
coedge $-1 $262 $265 $404 $555 reversed $158 $-1 #
coedge $-1 $557 $558 $262 $408 forward $552 $-1 #
edge $-1 $559 -10.101776501787782 $560 10.101776501787782 $407 $561 forward 7 unknown #
coedge $-1 $554 $268 $263 $410 forward $402 $-1 #
edge $-1 $273 -20.086808040580031 $414 -16.992366332183032 $409 $562 forward 7 unknown #
coedge $-1 $270 $404 $264 $412 forward $260 $-1 #
edge $-1 $413 16.992366332183032 $272 20.086808040580031 $411 $563 forward 7 unknown #
vertex $-1 $412 $564 #
vertex $-1 $410 $565 #
straight-curve $-1 -35.531953518564563 -21.572786017469888 0 0 0 -1 I I #
coedge $-1 $558 $557 $267 $417 forward $552 $-1 #
edge $-1 $422 -10.101776501787782 $419 10.101776501787782 $416 $566 forward 7 unknown #
coedge $-1 $268 $554 $558 $567 forward $402 $-1 #
vertex $-1 $269 $568 #
straight-curve $-1 -38.626395226961563 -13.577878533794312 -10.101776501787782 0 1 0 I I #
coedge $-1 $404 $270 $557 $569 forward $260 $-1 #
vertex $-1 $569 $570 #
straight-curve $-1 -38.626395226961563 -13.577878533794312 10.101776501787782 0 -1 0 I I #
point $-1 -38.626395226961563 -21.572786017469888 10.101776501787782 #
point $-1 -38.626395226961563 -21.572786017469888 -10.101776501787782 #
plane-surface $-1 0 0 10.101776501787782 0 0 1 1 0 0 forward_v I I I I #
coedge $-1 $437 $436 $429 $571 forward $276 $-1 #
coedge $-1 $429 $278 $280 $433 reversed $166 $-1 #
coedge $-1 $278 $428 $427 $571 reversed $166 $-1 #
coedge $-1 $286 $281 $278 $431 forward $287 $-1 #
edge $-1 $434 -9.2560314033426181 $572 -4.2868419420166575 $430 $573 forward 7 unknown #
coedge $-1 $280 $279 $437 $574 reversed $105 $-1 #
edge $-1 $575 -8.8807605448725156e-015 $434 6.1422560086965738 $428 $576 forward 7 unknown #
vertex $-1 $282 $577 #
straight-curve $-1 -43.864087921406664 2.9608091457822283 10.101776501787782 0 1 0 I I #
coedge $-1 $427 $283 $286 $441 reversed $276 $-1 #
coedge $-1 $283 $427 $432 $574 forward $276 $-1 #
vertex $-1 $284 $578 #
straight-curve $-1 -48.833277382732625 2.4810357062690116 42.752675506202998 0 0 1 I I #
straight-curve $-1 -48.833277382732618 2.4810357062690116 6.4914489579468864 -0.80901698891910034 0 -0.5877852598018023 I I #
edge $-1 $572 -9.3622008768599017 $288 -2.4810357062690116 $436 $579 forward 7 unknown #
point $-1 -48.833277382732625 2.4810357062690116 10.101776501787782 #
point $-1 -43.864087921406664 2.4810357062690116 10.101776501787782 #
edge $-1 $580 1 $580 0 $291 $-1 forward 7 unknown #
vertex $-1 $292 $581 #
ellipse-curve $-1 -44.61748132922709 5.9216182915644566 5.9138185749218444 -0.5877852598018023 0 0.80901698891910034 1.2135254833786506 0 0.88167788970270344 1 I I #
point $-1 -45.135157168691002 5.9216182915644566 9.178290619570042 #
loop $-1 $-1 $303 $295 #
plane-surface $-1 48.833277382732625 0 0 -1 0 0 0 0 1 forward_v I I I I #
coedge $-1 $451 $298 $300 $455 reversed $181 $-1 #
coedge $-1 $298 $450 $582 $583 reversed $181 $-1 #
coedge $-1 $306 $301 $298 $453 forward $296 $-1 #
edge $-1 $456 24.597149951978277 $584 38.77516152346162 $452 $585 forward 7 unknown #
coedge $-1 $300 $299 $459 $586 reversed $114 $-1 #
edge $-1 $587 -97.666554765465236 $456 -80.761214108814585 $450 $588 forward 7 unknown #
vertex $-1 $302 $589 #
straight-curve $-1 34.655265811249279 -7.5008221872577323 10.101776501787782 0 -1 0 I I #
coedge $-1 $582 $303 $306 $463 reversed $448 $-1 #
coedge $-1 $303 $582 $454 $586 forward $448 $-1 #
vertex $-1 $304 $590 #
straight-curve $-1 48.833277382732625 -10.644309265086207 67.998775649393039 0 0 1 I I #
straight-curve $-1 -33.076787119098171 -10.644309265086207 54.087486796955289 0.83867056331134215 0 -0.54463904215088732 I I #
edge $-1 $584 -19.358979483944722 $307 -10.644309265086207 $458 $591 forward 7 unknown #
point $-1 48.833277382732625 -10.644309265086207 10.101776501787782 #
point $-1 34.655265811249279 -10.644309265086207 10.101776501787782 #
edge $-1 $592 1 $592 0 $310 $-1 forward 7 unknown #
vertex $-1 $311 $593 #
ellipse-curve $-1 39.618671756043049 -15.001644374515465 2.2249855693563076 0.54463904215088732 0 0.83867056331134215 0.83867056331134215 0 -0.54463904215088732 1 I I #
point $-1 42.582942160302288 -15.001644374515465 4.9534831884005577 #
plane-surface $-1 0 0 10.101776501787782 0 0 1 1 0 0 forward_v I I I I #
coedge $-1 $481 $480 $473 $594 forward $315 $-1 #
coedge $-1 $473 $317 $319 $477 reversed $196 $-1 #
coedge $-1 $317 $472 $471 $594 reversed $196 $-1 #
coedge $-1 $325 $320 $317 $475 forward $326 $-1 #
edge $-1 $478 24.597149951978277 $595 38.77516152346162 $474 $596 forward 7 unknown #
coedge $-1 $319 $318 $481 $597 reversed $123 $-1 #
edge $-1 $598 -97.666554765465236 $478 -80.761214108814585 $472 $599 forward 7 unknown #
vertex $-1 $321 $600 #
straight-curve $-1 34.655265811249279 -0.63928371237966175 10.101776501787782 0 -1 0 I I #
coedge $-1 $471 $322 $325 $485 reversed $315 $-1 #
coedge $-1 $322 $471 $476 $597 forward $315 $-1 #
vertex $-1 $323 $601 #
straight-curve $-1 48.833277382732625 3.078767684669935 67.998775649393039 0 0 1 I I #
straight-curve $-1 -33.076787119098171 3.078767684669935 54.087486796955289 0.83867056331134215 0 -0.54463904215088732 I I #
edge $-1 $595 -5.635902534188582 $327 3.078767684669935 $480 $602 forward 7 unknown #
point $-1 48.833277382732625 3.078767684669935 10.101776501787782 #
point $-1 34.655265811249279 3.078767684669935 10.101776501787782 #
edge $-1 $603 1 $603 0 $330 $-1 forward 7 unknown #
vertex $-1 $331 $604 #
ellipse-curve $-1 39.618671756043049 -1.2785674247593235 2.2249855693563076 0.54463904215088732 0 0.83867056331134215 0.83867056331134215 0 -0.54463904215088732 1 I I #
point $-1 42.582942160302288 -1.2785674247593235 4.9534831884005577 #
plane-surface $-1 0 0 10.101776501787782 0 0 1 1 0 0 forward_v I I I I #
coedge $-1 $503 $502 $495 $605 forward $335 $-1 #
coedge $-1 $495 $337 $339 $499 reversed $211 $-1 #
coedge $-1 $337 $494 $493 $605 reversed $211 $-1 #
coedge $-1 $345 $340 $337 $497 forward $346 $-1 #
edge $-1 $500 24.597149951978277 $606 38.77516152346162 $496 $607 forward 7 unknown #
coedge $-1 $339 $338 $503 $608 reversed $132 $-1 #
edge $-1 $609 -97.666554765465236 $500 -80.761214108814585 $494 $610 forward 7 unknown #
vertex $-1 $341 $611 #
straight-curve $-1 34.655265811249279 6.2222547624984088 10.101776501787782 0 -1 0 I I #
coedge $-1 $493 $342 $345 $507 reversed $335 $-1 #
coedge $-1 $342 $493 $498 $608 forward $335 $-1 #
vertex $-1 $343 $612 #
straight-curve $-1 48.833277382732625 16.801844634426075 67.998775649393039 0 0 1 I I #
straight-curve $-1 -33.076787119098171 16.801844634426075 54.087486796955289 0.83867056331134215 0 -0.54463904215088732 I I #
edge $-1 $606 8.08717441556756 $347 16.801844634426075 $502 $613 forward 7 unknown #
point $-1 48.833277382732625 16.801844634426075 10.101776501787782 #
point $-1 34.655265811249279 16.801844634426075 10.101776501787782 #
edge $-1 $614 1 $614 0 $350 $-1 forward 7 unknown #
vertex $-1 $351 $615 #
ellipse-curve $-1 39.618671756043049 12.444509524996818 2.2249855693563076 0.54463904215088732 0 0.83867056331134215 0.83867056331134215 0 -0.54463904215088732 1 I I #
point $-1 42.582942160302288 12.444509524996818 4.9534831884005577 #
plane-surface $-1 0 0 10.101776501787782 0 0 1 1 0 0 forward_v I I I I #
coedge $-1 $525 $524 $517 $616 forward $355 $-1 #
coedge $-1 $517 $357 $359 $521 reversed $226 $-1 #
coedge $-1 $357 $516 $515 $616 reversed $226 $-1 #
coedge $-1 $365 $360 $357 $519 forward $366 $-1 #
edge $-1 $522 24.597149951978277 $617 38.77516152346162 $518 $618 forward 7 unknown #
coedge $-1 $359 $358 $525 $619 reversed $141 $-1 #
edge $-1 $620 -97.666554765465236 $522 -80.761214108814585 $516 $621 forward 7 unknown #
vertex $-1 $361 $622 #
straight-curve $-1 34.655265811249279 13.083793237376479 10.101776501787782 0 -1 0 I I #
coedge $-1 $515 $362 $365 $529 reversed $355 $-1 #
coedge $-1 $362 $515 $520 $619 forward $355 $-1 #
vertex $-1 $363 $623 #
straight-curve $-1 48.833277382732625 30.524921584182216 67.998775649393039 0 0 1 I I #
straight-curve $-1 -33.076787119098171 30.524921584182216 54.087486796955289 0.83867056331134215 0 -0.54463904215088732 I I #
edge $-1 $617 21.810251365323701 $367 30.524921584182216 $524 $624 forward 7 unknown #
point $-1 48.833277382732625 30.524921584182216 10.101776501787782 #
point $-1 34.655265811249279 30.524921584182216 10.101776501787782 #
edge $-1 $625 1 $625 0 $370 $-1 forward 7 unknown #
vertex $-1 $371 $626 #
ellipse-curve $-1 39.618671756043049 26.167586474752959 2.2249855693563076 0.54463904215088732 0 0.83867056331134215 0.83867056331134215 0 -0.54463904215088732 1 I I #
point $-1 42.582942160302288 26.167586474752959 4.9534831884005577 #
plane-surface $-1 48.833277382732625 0 0 -1 0 0 0 0 1 forward_v I I I I #
coedge $-1 $379 $377 $381 $541 reversed $241 $-1 #
edge $-1 $392 -10.101776501787782 $543 10.101776501787782 $391 $627 forward 7 unknown #
vertex $-1 $541 $628 #
straight-curve $-1 -48.833277382732625 -32.73872811770736 0 0 0 -1 I I #
edge $-1 $539 -32.73872811770736 $543 32.73872811770736 $537 $629 forward 7 unknown #
straight-curve $-1 0 -32.73872811770736 -10.101776501787782 -1 0 0 I I #
vertex $-1 $384 $630 #
straight-curve $-1 0 32.73872811770736 -10.101776501787782 1 0 0 I I #
point $-1 48.833277382732625 32.73872811770736 -10.101776501787782 #
point $-1 48.833277382732625 -32.73872811770736 -10.101776501787782 #
straight-curve $-1 -48.833277382732625 0 10.101776501787782 0 -1 0 I I #
point $-1 -48.833277382732625 32.73872811770736 10.101776501787782 #
point $-1 -48.833277382732625 -32.73872811770736 10.101776501787782 #
straight-curve $-1 48.833277382732625 -32.73872811770736 0 0 0 -1 I I #
straight-curve $-1 48.833277382732625 32.73872811770736 0 0 0 -1 I I #
loop $-1 $-1 $407 $401 #
plane-surface $-1 0 -32.73872811770736 0 0 1 0 0 0 1 forward_v I I I I #
coedge $-1 $418 $409 $405 $556 forward $402 $-1 #
edge $-1 $560 -19.160849583913048 $413 -7.9949074836755756 $404 $631 forward 7 unknown #
edge $-1 $414 7.9949074836755756 $559 19.160849583913048 $554 $632 forward 7 unknown #
coedge $-1 $416 $407 $421 $569 reversed $552 $-1 #
coedge $-1 $407 $416 $418 $567 reversed $552 $-1 #
vertex $-1 $567 $633 #
vertex $-1 $408 $634 #
straight-curve $-1 -35.531953518564563 -32.73872811770736 0 0 0 1 I I #
straight-curve $-1 -18.539587186381532 -21.572786017469888 -10.101776501787782 1 0 0 I I #
straight-curve $-1 -18.539587186381532 -21.572786017469888 10.101776501787782 -1 0 0 I I #
point $-1 -35.531953518564563 -21.572786017469888 10.101776501787782 #
point $-1 -35.531953518564563 -21.572786017469888 -10.101776501787782 #
straight-curve $-1 -38.626395226961563 -32.73872811770736 0 0 0 -1 I I #
edge $-1 $559 35.531953518564563 $419 38.626395226961563 $558 $635 forward 7 unknown #
point $-1 -38.626395226961563 -32.73872811770736 -10.101776501787782 #
edge $-1 $422 -38.626395226961563 $560 -35.531953518564563 $557 $636 forward 7 unknown #
point $-1 -38.626395226961563 -32.73872811770736 10.101776501787782 #
edge $-1 $572 32.650899004415216 $575 36.261226548256118 $427 $637 forward 7 unknown #
vertex $-1 $441 $638 #
straight-curve $-1 -53.120119324749282 9.3622008768599017 10.101776501787782 -1 0 0 I I #
edge $-1 $575 -6.4013917310776733 $438 0.47977343951321672 $437 $639 forward 7 unknown #
vertex $-1 $574 $640 #
straight-curve $-1 -48.833277382732618 9.3622008768599017 6.4914489579468864 0.80901698891910034 0 0.5877852598018023 I I #
point $-1 -43.864087921406664 9.3622008768599017 10.101776501787782 #
point $-1 -48.833277382732625 2.4810357062690116 6.491448957946881 #
straight-curve $-1 -48.833277382732625 0 10.101776501787782 0 -1 0 I I #
vertex $-1 $444 $641 #
point $-1 -43.403955845848444 5.9216182915644566 6.7954964646245486 #
coedge $-1 $459 $458 $451 $583 forward $448 $-1 #
edge $-1 $584 57.896999147605257 $587 67.104307690077917 $582 $642 forward 7 unknown #
vertex $-1 $463 $643 #
straight-curve $-1 10.058115859271002 -19.358979483944722 10.101776501787782 1 0 0 I I #
edge $-1 $587 -11.85815729668699 $460 -3.1434870778284747 $459 $644 forward 7 unknown #
vertex $-1 $586 $645 #
straight-curve $-1 -33.076787119098171 -19.358979483944722 54.087486796955289 -0.83867056331134215 0 0.54463904215088732 I I #
point $-1 34.655265811249279 -19.358979483944722 10.101776501787782 #
point $-1 48.833277382732618 -10.644309265086207 0.89446795931511502 #
straight-curve $-1 48.833277382732625 0 10.101776501787782 0 1 0 I I #
vertex $-1 $466 $646 #
point $-1 40.457342319354389 -15.001644374515465 1.6803465272054203 #
edge $-1 $595 57.896999147605257 $598 67.104307690077917 $471 $647 forward 7 unknown #
vertex $-1 $485 $648 #
straight-curve $-1 10.058115859271002 -5.635902534188582 10.101776501787782 1 0 0 I I #
edge $-1 $598 -4.9966188218089203 $482 3.7180513970495968 $481 $649 forward 7 unknown #
vertex $-1 $597 $650 #
straight-curve $-1 -33.076787119098171 -5.635902534188582 54.087486796955289 -0.83867056331134215 0 0.54463904215088732 I I #
point $-1 34.655265811249279 -5.635902534188582 10.101776501787782 #
point $-1 48.833277382732618 3.078767684669935 0.89446795931511502 #
straight-curve $-1 48.833277382732625 0 10.101776501787782 0 1 0 I I #
vertex $-1 $488 $651 #
point $-1 40.457342319354389 -1.2785674247593235 1.6803465272054203 #
edge $-1 $606 57.896999147605257 $609 67.104307690077917 $493 $652 forward 7 unknown #
vertex $-1 $507 $653 #
straight-curve $-1 10.058115859271002 8.08717441556756 10.101776501787782 1 0 0 I I #
edge $-1 $609 1.8649196530691512 $504 10.579589871927666 $503 $654 forward 7 unknown #
vertex $-1 $608 $655 #
straight-curve $-1 -33.076787119098171 8.08717441556756 54.087486796955289 -0.83867056331134215 0 0.54463904215088732 I I #
point $-1 34.655265811249279 8.08717441556756 10.101776501787782 #
point $-1 48.833277382732618 16.801844634426075 0.89446795931511502 #
straight-curve $-1 48.833277382732625 0 10.101776501787782 0 1 0 I I #
vertex $-1 $510 $656 #
point $-1 40.457342319354389 12.444509524996818 1.6803465272054203 #
edge $-1 $617 57.896999147605257 $620 67.104307690077917 $515 $657 forward 7 unknown #
vertex $-1 $529 $658 #
straight-curve $-1 10.058115859271002 21.810251365323701 10.101776501787782 1 0 0 I I #
edge $-1 $620 8.7264581279472218 $526 17.441128346805737 $525 $659 forward 7 unknown #
vertex $-1 $619 $660 #
straight-curve $-1 -33.076787119098171 21.810251365323701 54.087486796955289 -0.83867056331134215 0 0.54463904215088732 I I #
point $-1 34.655265811249279 21.810251365323701 10.101776501787782 #
point $-1 48.833277382732618 30.524921584182216 0.89446795931511502 #
straight-curve $-1 48.833277382732625 0 10.101776501787782 0 1 0 I I #
vertex $-1 $532 $661 #
point $-1 40.457342319354389 26.167586474752959 1.6803465272054203 #
straight-curve $-1 -48.833277382732625 32.73872811770736 0 0 0 -1 I I #
point $-1 -48.833277382732625 -32.73872811770736 -10.101776501787782 #
straight-curve $-1 -48.833277382732625 0 -10.101776501787782 0 1 0 I I #
point $-1 -48.833277382732625 32.73872811770736 -10.101776501787782 #
straight-curve $-1 -35.531953518564563 -13.577878533794312 10.101776501787782 0 1 0 I I #
straight-curve $-1 -35.531953518564563 -13.577878533794312 -10.101776501787782 0 -1 0 I I #
point $-1 -35.531953518564563 -32.73872811770736 -10.101776501787782 #
point $-1 -35.531953518564563 -32.73872811770736 10.101776501787782 #
straight-curve $-1 0 -32.73872811770736 -10.101776501787782 -1 0 0 I I #
straight-curve $-1 0 -32.73872811770736 10.101776501787782 1 0 0 I I #
straight-curve $-1 -48.833277382732625 9.3622008768599017 42.752675506202998 0 0 -1 I I #
point $-1 -48.833277382732625 9.3622008768599017 10.101776501787782 #
straight-curve $-1 -48.833277382732625 2.9608091457822283 6.4914489579468793 0 -1 0 I I #
point $-1 -48.833277382732625 9.3622008768599017 6.491448957946881 #
point $-1 -43.735803439524389 5.9216182915644566 4.7002930915431946 #
straight-curve $-1 48.833277382732625 -19.358979483944722 67.998775649393039 0 0 -1 I I #
point $-1 48.833277382732625 -19.358979483944722 10.101776501787782 #
straight-curve $-1 48.833277382732632 -7.5008221872577323 0.89446795931511147 0 1 0 I I #
point $-1 48.833277382732618 -19.358979483944722 0.89446795931511502 #
point $-1 39.074032713892159 -15.001644374515465 1.3863150060449656 #
straight-curve $-1 48.833277382732625 -5.635902534188582 67.998775649393039 0 0 -1 I I #
point $-1 48.833277382732625 -5.635902534188582 10.101776501787782 #
straight-curve $-1 48.833277382732632 -0.63928371237966175 0.89446795931511147 0 1 0 I I #
point $-1 48.833277382732618 -5.635902534188582 0.89446795931511502 #
point $-1 39.074032713892159 -1.2785674247593235 1.3863150060449656 #
straight-curve $-1 48.833277382732625 8.08717441556756 67.998775649393039 0 0 -1 I I #
point $-1 48.833277382732625 8.08717441556756 10.101776501787782 #
straight-curve $-1 48.833277382732632 6.2222547624984088 0.89446795931511147 0 1 0 I I #
point $-1 48.833277382732618 8.08717441556756 0.89446795931511502 #
point $-1 39.074032713892159 12.444509524996818 1.3863150060449656 #
straight-curve $-1 48.833277382732625 21.810251365323701 67.998775649393039 0 0 -1 I I #
point $-1 48.833277382732625 21.810251365323701 10.101776501787782 #
straight-curve $-1 48.833277382732632 13.083793237376479 0.89446795931511147 0 1 0 I I #
point $-1 48.833277382732618 21.810251365323701 0.89446795931511502 #
point $-1 39.074032713892159 26.167586474752959 1.3863150060449656 #
End-of-ACIS-data 