500 0 9 0           
7 Unknown 11 ACIS 5.0 NT 24 Fri Mar 26 19:22:53 1999 
-1 9.9999999999999995e-007 1e-010 
body $-1 $9 $-1 $10 #
body $-1 $11 $-1 $12 #
body $-1 $13 $-1 $14 #
body $-1 $15 $-1 $16 #
body $-1 $17 $-1 $18 #
body $-1 $19 $-1 $20 #
body $-1 $21 $-1 $22 #
body $-1 $23 $-1 $24 #
body $-1 $25 $-1 $26 #
lump $-1 $-1 $27 $0 #
transform $-1 1 0 0 0 1 0 0 0 1 68.267464217047632 41.310076616584382 19.666758360181579 1 rotate no_reflect no_shear #
lump $-1 $-1 $28 $1 #
transform $-1 1 0 0 0 1 0 0 0 1 68.267464217047632 41.310076616584382 19.666758360181579 1 rotate no_reflect no_shear #
lump $-1 $-1 $29 $2 #
transform $-1 1 0 0 0 1 0 0 0 1 68.267464217047632 41.310076616584382 19.666758360181579 1 rotate no_reflect no_shear #
lump $-1 $-1 $30 $3 #
transform $-1 1 0 0 0 1 0 0 0 1 68.267464217047632 41.310076616584382 19.666758360181579 1 rotate no_reflect no_shear #
lump $-1 $-1 $31 $4 #
transform $-1 1 0 0 0 1 0 0 0 1 68.267464217047632 41.310076616584382 19.666758360181579 1 rotate no_reflect no_shear #
lump $-1 $-1 $32 $5 #
transform $-1 1 0 0 0 1 0 0 0 1 68.267464217047632 41.310076616584382 19.666758360181579 1 rotate no_reflect no_shear #
lump $-1 $-1 $33 $6 #
transform $-1 1 0 0 0 1 0 0 0 1 68.267464217047632 41.310076616584382 19.666758360181579 1 rotate no_reflect no_shear #
lump $-1 $-1 $34 $7 #
transform $-1 1 0 0 0 1 0 0 0 1 68.267464217047632 41.310076616584382 19.666758360181579 1 rotate no_reflect no_shear #
lump $-1 $-1 $35 $8 #
transform $-1 1 0 0 0 1 0 0 0 1 68.267464217047632 41.310076616584382 19.666758360181579 1 rotate no_reflect no_shear #
shell $-1 $-1 $-1 $36 $-1 $9 #
shell $-1 $-1 $-1 $37 $-1 $11 #
shell $-1 $-1 $-1 $38 $-1 $13 #
shell $-1 $-1 $-1 $39 $-1 $15 #
shell $-1 $-1 $-1 $40 $-1 $17 #
shell $-1 $-1 $-1 $41 $-1 $19 #
shell $-1 $-1 $-1 $42 $-1 $21 #
shell $-1 $-1 $-1 $43 $-1 $23 #
shell $-1 $-1 $-1 $44 $-1 $25 #
face $-1 $45 $46 $27 $-1 $47 forward single #
face $-1 $48 $49 $28 $-1 $50 reversed single #
face $-1 $51 $52 $29 $-1 $53 reversed single #
face $-1 $54 $55 $30 $-1 $56 reversed single #
face $-1 $57 $58 $31 $-1 $59 forward single #
face $-1 $60 $61 $32 $-1 $62 forward single #
face $-1 $63 $64 $33 $-1 $65 forward single #
face $-1 $66 $67 $34 $-1 $68 reversed single #
face $-1 $69 $70 $35 $-1 $71 forward single #
face $-1 $72 $73 $27 $-1 $74 reversed single #
loop $-1 $-1 $75 $36 #
plane-surface $-1 0 0 19.666758360181579 0 0 1 1 0 0 forward_v I I I I #
face $-1 $76 $77 $28 $-1 $78 reversed single #
loop $-1 $-1 $79 $37 #
plane-surface $-1 0 -29.577832213578048 10.617540677865296 0 0 1 1 0 0 forward_v I I I I #
face $-1 $80 $81 $29 $-1 $82 reversed single #
loop $-1 $-1 $83 $38 #
plane-surface $-1 0 29.577832213578048 10.617540677865296 0 0 1 1 0 0 forward_v I I I I #
face $-1 $84 $85 $30 $-1 $86 reversed single #
loop $-1 $-1 $87 $39 #
plane-surface $-1 111.70316433003785 -7.4986815456293154 192.09233436145615 0 -1 0 -0.84804810408105047 0 -0.52991925155115449 forward_v I I I I #
face $-1 $88 $89 $31 $-1 $90 forward single #
loop $-1 $91 $92 $40 #
cone-surface $-1 62.676149333050205 -15.776206557583233 11.383439872694259 -0.84804810408105047 0 -0.52991925155115449 0.52991925155115449 0 -0.84804810408105047 1 I I 0 1 1 forward I I I I #
face $-1 $93 $94 $32 $-1 $95 forward single #
loop $-1 $96 $97 $41 #
cone-surface $-1 62.676149333050205 -12.672134678100516 11.383439872694259 -0.84804810408105047 0 -0.52991925155115449 0.52991925155115449 0 -0.84804810408105047 1 I I 0 1 1 forward I I I I #
face $-1 $98 $99 $33 $-1 $100 forward single #
loop $-1 $101 $102 $42 #
cone-surface $-1 62.676149333050205 -9.5680627986177988 11.383439872694259 -0.84804810408105047 0 -0.52991925155115449 0.52991925155115449 0 -0.84804810408105047 1 I I 0 1 1 forward I I I I #
face $-1 $103 $104 $34 $-1 $105 reversed single #
loop $-1 $-1 $106 $43 #
plane-surface $-1 -138.5881518511577 7.4971313989015904 130.97624189963321 0 1 0 -0.51503808176128008 0 0.85716729658548041 forward_v I I I I #
face $-1 $107 $108 $35 $-1 $109 forward single #
loop $-1 $110 $111 $44 #
cone-surface $-1 -63.031528719432202 10.679294038334042 16.017756681525533 0.51503808176128008 0 -0.85716729658548041 0.4285836482927402 0 0.25751904088064004 1 I I 0 1 0.5 forward I I I I #
face $-1 $112 $113 $27 $-1 $114 reversed single #
loop $-1 $-1 $115 $45 #
plane-surface $-1 0 0 -19.666758360181579 0 0 1 1 0 0 forward_v I I I I #
coedge $-1 $116 $117 $118 $119 forward $46 $-1 #
face $-1 $120 $121 $28 $-1 $122 reversed single #
loop $-1 $-1 $123 $48 #
plane-surface $-1 0 -17.845587810571715 15.142149519023437 0 -1 0 0 0 -1 forward_v I I I I #
coedge $-1 $124 $125 $126 $127 reversed $49 $-1 #
face $-1 $128 $129 $29 $-1 $130 forward single #
loop $-1 $-1 $131 $51 #
plane-surface $-1 0 17.845587810571715 15.142149519023437 0 1 0 0 0 1 forward_v I I I I #
coedge $-1 $132 $133 $134 $135 reversed $52 $-1 #
face $-1 $136 $137 $30 $-1 $138 forward single #
loop $-1 $-1 $139 $54 #
plane-surface $-1 -4.0850228693385446 -12.672134678100512 119.73984727506995 0.84804810408105047 0 0.52991925155115449 0.52991925155115449 0 -0.84804810408105047 forward_v I I I I #
coedge $-1 $140 $141 $142 $143 reversed $55 $-1 #
face $-1 $-1 $144 $31 $-1 $145 forward single #
loop $-1 $146 $147 $57 #
cone-surface $-1 61.570751873735844 -15.776206557583233 10.69271090167538 -0.84804810408105047 0 -0.52991925155115449 0.26495962577557725 0 -0.42402405204052523 1 I I -0.70710678118654746 0.70710678118654746 0.5 forward I I I I #
loop $-1 $-1 $148 $40 #
coedge $-1 $92 $92 $149 $150 reversed $58 $-1 #
face $-1 $-1 $151 $32 $-1 $152 forward single #
loop $-1 $153 $154 $60 #
cone-surface $-1 61.570751873735844 -12.672134678100516 10.69271090167538 -0.84804810408105047 0 -0.52991925155115449 0.26495962577557725 0 -0.42402405204052523 1 I I -0.70710678118654746 0.70710678118654746 0.5 forward I I I I #
loop $-1 $-1 $155 $41 #
coedge $-1 $97 $97 $156 $157 reversed $61 $-1 #
face $-1 $-1 $158 $33 $-1 $159 forward single #
loop $-1 $160 $161 $63 #
cone-surface $-1 61.570751873735844 -9.5680627986177988 10.69271090167538 -0.84804810408105047 0 -0.52991925155115449 0.26495962577557725 0 -0.42402405204052523 1 I I -0.70710678118654746 0.70710678118654746 0.5 forward I I I I #
loop $-1 $-1 $162 $42 #
coedge $-1 $102 $102 $163 $164 reversed $64 $-1 #
face $-1 $165 $166 $34 $-1 $167 reversed single #
loop $-1 $-1 $168 $66 #
plane-surface $-1 -68.267464217047618 10.679294038334035 13.942966404287731 -0.51503808176128008 0 0.85716729658548041 0.85716729658548041 0 0.51503808176128008 forward_v I I I I #
coedge $-1 $169 $170 $171 $172 reversed $67 $-1 #
face $-1 $-1 $173 $35 $-1 $174 forward single #
loop $-1 $175 $176 $69 #
cone-surface $-1 -62.429828371861092 10.679294038334042 15.016359156670024 0.51503808176128008 0 -0.85716729658548041 0.2142918241463701 0 0.12875952044032002 1 I I -0.70710678118654746 0.70710678118654746 0.25 forward I I I I #
loop $-1 $-1 $177 $44 #
coedge $-1 $111 $111 $178 $179 reversed $70 $-1 #
face $-1 $180 $181 $27 $-1 $182 reversed single #
loop $-1 $-1 $183 $72 #
plane-surface $-1 0 -41.310076616584382 0 0 1 0 0 0 1 forward_v I I I I #
coedge $-1 $184 $185 $186 $187 forward $73 $-1 #
coedge $-1 $188 $75 $189 $190 forward $46 $-1 #
coedge $-1 $75 $188 $191 $192 forward $46 $-1 #
coedge $-1 $193 $194 $75 $119 reversed $195 $-1 #
edge $-1 $196 -41.310076616584382 $197 41.310076616584382 $118 $198 forward 7 unknown #
face $-1 $199 $200 $28 $-1 $201 reversed single #
loop $-1 $-1 $202 $76 #
plane-surface $-1 -68.267464217047632 0 0 1 0 0 0 0 -1 forward_v I I I I #
coedge $-1 $203 $204 $205 $206 reversed $77 $-1 #
coedge $-1 $207 $79 $208 $209 reversed $49 $-1 #
coedge $-1 $79 $207 $203 $210 forward $49 $-1 #
coedge $-1 $205 $211 $79 $127 forward $212 $-1 #
edge $-1 $213 -26.521160509795358 $214 -3.0566717037826905 $126 $215 forward 7 unknown #
face $-1 $216 $217 $29 $-1 $218 reversed single #
loop $-1 $-1 $219 $80 #
plane-surface $-1 0 0 19.666758360181579 0 0 1 1 0 0 forward_v I I I I #
coedge $-1 $220 $221 $222 $223 reversed $81 $-1 #
coedge $-1 $224 $83 $220 $225 forward $52 $-1 #
coedge $-1 $83 $224 $226 $227 reversed $52 $-1 #
coedge $-1 $228 $229 $83 $135 forward $217 $-1 #
edge $-1 $230 3.0566717037826905 $231 26.521160509795358 $134 $232 forward 7 unknown #
face $-1 $233 $234 $30 $-1 $235 forward single #
loop $-1 $-1 $142 $84 #
plane-surface $-1 0 0 19.666758360181579 0 0 1 1 0 0 forward_v I I I I #
coedge $-1 $236 $237 $238 $239 reversed $85 $-1 #
coedge $-1 $141 $87 $240 $241 reversed $55 $-1 #
coedge $-1 $87 $140 $236 $242 reversed $55 $-1 #
coedge $-1 $238 $243 $87 $143 forward $137 $-1 #
edge $-1 $244 -12.415882052028707 $245 -2.5959990985815367 $142 $246 forward 7 unknown #
loop $-1 $-1 $149 $88 #
plane-surface $-1 -4.0850228693385446 -12.672134678100512 119.73984727506995 0.84804810408105047 0 0.52991925155115449 0.52991925155115449 0 -0.84804810408105047 forward_v I I I I #
loop $-1 $-1 $247 $57 #
coedge $-1 $147 $147 $148 $248 reversed $89 $-1 #
coedge $-1 $148 $148 $147 $248 forward $91 $-1 #
coedge $-1 $149 $149 $92 $150 forward $144 $-1 #
edge $-1 $249 0 $249 6.2831853071796004 $149 $250 forward 7 unknown #
loop $-1 $-1 $156 $93 #
plane-surface $-1 -4.0850228693385446 -12.672134678100512 119.73984727506995 0.84804810408105047 0 0.52991925155115449 0.52991925155115449 0 -0.84804810408105047 forward_v I I I I #
loop $-1 $-1 $251 $60 #
coedge $-1 $154 $154 $155 $252 reversed $94 $-1 #
coedge $-1 $155 $155 $154 $252 forward $96 $-1 #
coedge $-1 $156 $156 $97 $157 forward $151 $-1 #
edge $-1 $253 0 $253 6.2831853071796004 $156 $254 forward 7 unknown #
loop $-1 $-1 $163 $98 #
plane-surface $-1 -4.0850228693385446 -12.672134678100512 119.73984727506995 0.84804810408105047 0 0.52991925155115449 0.52991925155115449 0 -0.84804810408105047 forward_v I I I I #
loop $-1 $-1 $255 $63 #
coedge $-1 $161 $161 $162 $256 reversed $99 $-1 #
coedge $-1 $162 $162 $161 $256 forward $101 $-1 #
coedge $-1 $163 $163 $102 $164 forward $158 $-1 #
edge $-1 $257 0 $257 6.2831853071796004 $163 $258 forward 7 unknown #
face $-1 $259 $260 $34 $-1 $261 reversed single #
loop $-1 $-1 $262 $103 #
plane-surface $-1 -138.5881518511577 13.86145667776648 130.97624189963321 0 -1 0 0.51503808176128008 0 -0.85716729658548041 forward_v I I I I #
coedge $-1 $263 $264 $265 $266 reversed $104 $-1 #
coedge $-1 $170 $106 $267 $268 reversed $67 $-1 #
coedge $-1 $106 $169 $263 $269 reversed $67 $-1 #
coedge $-1 $265 $270 $106 $172 forward $271 $-1 #
edge $-1 $272 1.0266117085312203 $273 10.552601049500574 $171 $274 forward 7 unknown #
loop $-1 $-1 $178 $107 #
plane-surface $-1 -68.267464217047618 10.679294038334035 13.942966404287731 -0.51503808176128008 0 0.85716729658548041 0.85716729658548041 0 0.51503808176128008 forward_v I I I I #
loop $-1 $-1 $275 $69 #
coedge $-1 $176 $176 $177 $276 reversed $108 $-1 #
coedge $-1 $177 $177 $176 $276 forward $110 $-1 #
coedge $-1 $178 $178 $111 $179 forward $173 $-1 #
edge $-1 $277 0 $277 6.2831853071796004 $178 $278 forward 7 unknown #
face $-1 $279 $280 $27 $-1 $281 reversed single #
loop $-1 $-1 $282 $112 #
plane-surface $-1 -68.267464217047632 0 0 1 0 0 0 0 -1 forward_v I I I I #
coedge $-1 $283 $191 $284 $285 forward $113 $-1 #
coedge $-1 $286 $115 $283 $287 forward $73 $-1 #
coedge $-1 $115 $286 $288 $289 forward $73 $-1 #
coedge $-1 $194 $193 $115 $187 reversed $195 $-1 #
edge $-1 $290 -41.310076616584382 $291 41.310076616584382 $186 $292 forward 7 unknown #
coedge $-1 $117 $116 $293 $294 forward $46 $-1 #
coedge $-1 $295 $296 $116 $190 reversed $280 $-1 #
edge $-1 $197 -68.267464217047632 $297 68.267464217047632 $189 $298 forward 7 unknown #
coedge $-1 $183 $299 $117 $192 reversed $113 $-1 #
edge $-1 $300 -68.267464217047632 $196 68.267464217047632 $191 $301 forward 7 unknown #
coedge $-1 $186 $118 $299 $302 forward $195 $-1 #
coedge $-1 $118 $186 $295 $303 reversed $195 $-1 #
loop $-1 $-1 $193 $279 #
vertex $-1 $119 $304 #
vertex $-1 $119 $305 #
straight-curve $-1 68.267464217047632 0 19.666758360181579 0 1 0 I I #
face $-1 $306 $307 $28 $-1 $308 forward single #
loop $-1 $-1 $208 $120 #
plane-surface $-1 0 -41.310076616584382 0 0 1 0 0 0 1 forward_v I I I I #
coedge $-1 $309 $310 $311 $312 forward $121 $-1 #
coedge $-1 $311 $123 $125 $210 reversed $77 $-1 #
coedge $-1 $123 $311 $313 $314 reversed $77 $-1 #
coedge $-1 $315 $126 $123 $206 forward $212 $-1 #
edge $-1 $214 3.0464659183535776 $316 12.09568360066986 $205 $317 forward 7 unknown #
coedge $-1 $125 $124 $309 $318 reversed $49 $-1 #
coedge $-1 $319 $320 $124 $209 forward $200 $-1 #
edge $-1 $321 -68.267464217047632 $213 68.267464217047632 $208 $322 forward 7 unknown #
edge $-1 $323 -68.267464217047632 $214 68.267464217047632 $203 $324 forward 7 unknown #
coedge $-1 $126 $315 $319 $325 forward $212 $-1 #
loop $-1 $-1 $205 $306 #
vertex $-1 $209 $326 #
vertex $-1 $127 $327 #
straight-curve $-1 68.267464217047632 -14.788916106789024 10.617540677865296 0 1 0 I I #
face $-1 $328 $329 $29 $-1 $330 reversed single #
loop $-1 $-1 $229 $128 #
plane-surface $-1 68.267464217047632 0 0 -1 0 0 0 0 1 forward_v I I I I #
coedge $-1 $331 $332 $221 $333 forward $129 $-1 #
coedge $-1 $334 $131 $132 $225 reversed $81 $-1 #
coedge $-1 $131 $334 $219 $333 reversed $81 $-1 #
coedge $-1 $335 $336 $131 $223 forward $329 $-1 #
edge $-1 $337 3.0464659183535776 $338 12.09568360066986 $222 $339 forward 7 unknown #
coedge $-1 $133 $132 $336 $340 reversed $52 $-1 #
edge $-1 $230 -68.267464217047632 $337 68.267464217047632 $220 $341 forward 7 unknown #
coedge $-1 $342 $343 $133 $227 forward $344 $-1 #
edge $-1 $231 -68.267464217047632 $345 68.267464217047632 $226 $346 forward 7 unknown #
coedge $-1 $347 $134 $343 $348 reversed $217 $-1 #
coedge $-1 $134 $347 $334 $349 forward $217 $-1 #
vertex $-1 $135 $350 #
vertex $-1 $227 $351 #
straight-curve $-1 68.267464217047632 14.788916106789024 10.617540677865296 0 1 0 I I #
face $-1 $-1 $352 $30 $-1 $353 reversed single #
loop $-1 $-1 $354 $136 #
plane-surface $-1 0 -17.845587810571715 15.142149519023437 0 -1 0 0 0 -1 forward_v I I I I #
coedge $-1 $355 $139 $141 $242 forward $85 $-1 #
coedge $-1 $139 $355 $354 $356 forward $85 $-1 #
coedge $-1 $357 $142 $139 $239 forward $137 $-1 #
edge $-1 $245 1.1626142065790592 $358 11.509520471521451 $238 $359 forward 7 unknown #
coedge $-1 $360 $361 $140 $241 forward $352 $-1 #
edge $-1 $362 -92.094507105034481 $244 -76.379408820546502 $240 $363 forward 7 unknown #
edge $-1 $245 118.00402410347714 $362 136.53492843409521 $141 $364 forward 7 unknown #
coedge $-1 $142 $357 $360 $365 forward $137 $-1 #
vertex $-1 $241 $366 #
vertex $-1 $143 $367 #
straight-curve $-1 55.851582165018925 -7.4986815456293154 19.666758360181575 -1 0 0 I I #
coedge $-1 $247 $247 $-1 $368 reversed $146 $-1 #
edge $-1 $369 0 $369 6.2831853071796004 $147 $370 forward 7 unknown #
vertex $-1 $150 $371 #
ellipse-curve $-1 63.357522740324058 -15.776206557583233 11.809209217937571 0.84804810408105047 0 0.52991925155115449 0.52991925155115449 0 -0.84804810408105047 1 I I #
coedge $-1 $251 $251 $-1 $372 reversed $153 $-1 #
edge $-1 $373 0 $373 6.2831853071796004 $154 $374 forward 7 unknown #
vertex $-1 $157 $375 #
ellipse-curve $-1 63.357522740324058 -12.672134678100516 11.809209217937571 0.84804810408105047 0 0.52991925155115449 0.52991925155115449 0 -0.84804810408105047 1 I I #
coedge $-1 $255 $255 $-1 $376 reversed $160 $-1 #
edge $-1 $377 0 $377 6.2831853071796004 $161 $378 forward 7 unknown #
vertex $-1 $164 $379 #
ellipse-curve $-1 63.357522740324058 -9.5680627986177988 11.809209217937571 0.84804810408105047 0 0.52991925155115449 0.52991925155115449 0 -0.84804810408105047 1 I I #
face $-1 $-1 $271 $34 $-1 $380 forward single #
loop $-1 $-1 $381 $165 #
plane-surface $-1 -68.267464217047632 0 0 1 0 0 0 0 -1 forward_v I I I I #
coedge $-1 $382 $383 $384 $385 reversed $166 $-1 #
coedge $-1 $386 $168 $170 $269 forward $104 $-1 #
coedge $-1 $168 $386 $382 $387 forward $104 $-1 #
coedge $-1 $384 $171 $168 $266 forward $271 $-1 #
edge $-1 $273 2.1574843797345729 $388 8.5218096585994623 $265 $389 forward 7 unknown #
coedge $-1 $390 $391 $169 $268 forward $260 $-1 #
edge $-1 $392 -51.545154545528881 $272 -45.821362589635029 $267 $393 forward 7 unknown #
edge $-1 $273 -11.113337360065003 $392 1.6755537013839907e-014 $170 $394 forward 7 unknown #
coedge $-1 $171 $384 $390 $395 forward $271 $-1 #
loop $-1 $-1 $384 $259 #
vertex $-1 $268 $396 #
vertex $-1 $172 $397 #
straight-curve $-1 -69.294075925578852 7.4971313989015904 19.666758360181575 1 0 0 I I #
coedge $-1 $275 $275 $-1 $398 reversed $175 $-1 #
edge $-1 $399 0 $399 6.2831853071796004 $176 $400 forward 7 unknown #
vertex $-1 $179 $401 #
ellipse-curve $-1 -63.504469546562973 10.679294038334042 16.804862382234639 -0.51503808176128008 0 0.85716729658548041 0.4285836482927402 0 0.25751904088064004 1 I I #
face $-1 $-1 $195 $27 $-1 $402 reversed single #
loop $-1 $-1 $295 $180 #
plane-surface $-1 0 41.310076616584382 0 0 -1 0 0 0 -1 forward_v I I I I #
coedge $-1 $403 $293 $296 $404 forward $181 $-1 #
coedge $-1 $299 $183 $184 $287 reversed $113 $-1 #
coedge $-1 $293 $403 $183 $285 reversed $181 $-1 #
edge $-1 $300 -19.666758360181579 $405 19.666758360181579 $284 $406 forward 7 unknown #
coedge $-1 $185 $184 $403 $407 forward $73 $-1 #
edge $-1 $291 -68.267464217047632 $405 68.267464217047632 $283 $408 forward 7 unknown #
coedge $-1 $296 $295 $185 $289 reversed $280 $-1 #
edge $-1 $409 -68.267464217047632 $290 68.267464217047632 $288 $410 forward 7 unknown #
vertex $-1 $187 $411 #
vertex $-1 $302 $412 #
straight-curve $-1 68.267464217047632 0 -19.666758360181579 0 -1 0 I I #
coedge $-1 $282 $284 $188 $294 reversed $181 $-1 #
edge $-1 $297 -41.310076616584382 $300 41.310076616584382 $293 $413 forward 7 unknown #
coedge $-1 $288 $189 $194 $303 forward $280 $-1 #
coedge $-1 $189 $288 $282 $404 reversed $280 $-1 #
vertex $-1 $190 $414 #
straight-curve $-1 0 41.310076616584382 19.666758360181579 -1 0 0 I I #
coedge $-1 $191 $283 $193 $302 reversed $113 $-1 #
vertex $-1 $294 $415 #
straight-curve $-1 0 -41.310076616584382 19.666758360181579 1 0 0 I I #
edge $-1 $196 -19.666758360181579 $291 19.666758360181579 $193 $416 forward 7 unknown #
edge $-1 $197 -19.666758360181579 $290 19.666758360181579 $194 $417 forward 7 unknown #
point $-1 68.267464217047632 -41.310076616584382 19.666758360181579 #
point $-1 68.267464217047632 41.310076616584382 19.666758360181579 #
face $-1 $-1 $212 $28 $-1 $418 reversed single #
loop $-1 $-1 $313 $199 #
plane-surface $-1 0 0 19.666758360181579 0 0 1 1 0 0 forward_v I I I I #
coedge $-1 $419 $202 $207 $318 forward $121 $-1 #
coedge $-1 $202 $419 $420 $421 reversed $121 $-1 #
coedge $-1 $204 $203 $202 $312 reversed $77 $-1 #
edge $-1 $422 -12.09568360066986 $323 -3.0464659183535776 $202 $423 forward 7 unknown #
coedge $-1 $420 $424 $204 $314 forward $307 $-1 #
edge $-1 $316 -68.267464217047632 $422 68.267464217047632 $313 $425 forward 7 unknown #
coedge $-1 $211 $205 $424 $426 reversed $212 $-1 #
vertex $-1 $206 $427 #
straight-curve $-1 68.267464217047632 -17.845587810571715 7.5710747595117187 0 0 1 I I #
edge $-1 $323 3.0566717037826905 $321 26.521160509795358 $309 $428 forward 7 unknown #
coedge $-1 $429 $208 $211 $325 reversed $200 $-1 #
coedge $-1 $208 $429 $419 $430 forward $200 $-1 #
vertex $-1 $209 $431 #
straight-curve $-1 0 -41.310076616584382 10.617540677865296 1 0 0 I I #
vertex $-1 $318 $432 #
straight-curve $-1 0 -17.845587810571715 10.617540677865296 1 0 0 I I #
edge $-1 $433 -19.666758360181579 $213 -10.617540677865296 $211 $434 forward 7 unknown #
point $-1 68.267464217047632 -41.310076616584382 10.617540677865296 #
point $-1 68.267464217047632 -17.845587810571715 10.617540677865296 #
face $-1 $-1 $344 $29 $-1 $435 reversed single #
loop $-1 $-1 $222 $216 #
plane-surface $-1 -68.267464217047632 0 0 1 0 0 0 0 -1 forward_v I I I I #
coedge $-1 $436 $219 $347 $437 forward $129 $-1 #
coedge $-1 $219 $436 $335 $438 forward $129 $-1 #
edge $-1 $338 -68.267464217047632 $439 68.267464217047632 $219 $440 forward 7 unknown #
coedge $-1 $221 $220 $229 $349 reversed $81 $-1 #
coedge $-1 $441 $222 $332 $438 reversed $329 $-1 #
coedge $-1 $222 $441 $224 $340 forward $329 $-1 #
vertex $-1 $340 $442 #
vertex $-1 $223 $443 #
straight-curve $-1 -68.267464217047632 17.845587810571715 7.5710747595117187 0 0 1 I I #
edge $-1 $345 -26.521160509795358 $337 -3.0566717037826905 $336 $444 forward 7 unknown #
straight-curve $-1 0 17.845587810571715 10.617540677865296 -1 0 0 I I #
coedge $-1 $445 $226 $441 $446 reversed $344 $-1 #
coedge $-1 $226 $445 $228 $348 forward $344 $-1 #
loop $-1 $-1 $226 $328 #
vertex $-1 $227 $447 #
straight-curve $-1 0 41.310076616584382 10.617540677865296 -1 0 0 I I #
coedge $-1 $229 $228 $331 $437 reversed $217 $-1 #
edge $-1 $448 -19.666758360181579 $231 -10.617540677865296 $228 $449 forward 7 unknown #
edge $-1 $439 -12.09568360066986 $230 -3.0464659183535776 $229 $450 forward 7 unknown #
point $-1 68.267464217047632 17.845587810571715 10.617540677865296 #
point $-1 68.267464217047632 41.310076616584382 10.617540677865296 #
loop $-1 $-1 $240 $233 #
plane-surface $-1 68.267464217047632 0 0 -1 0 0 0 0 1 forward_v I I I I #
coedge $-1 $451 $452 $237 $356 reversed $234 $-1 #
coedge $-1 $237 $236 $361 $453 reversed $85 $-1 #
edge $-1 $454 -136.53492843409521 $358 -118.00402410347714 $354 $455 forward 7 unknown #
coedge $-1 $243 $238 $452 $456 forward $137 $-1 #
vertex $-1 $456 $457 #
straight-curve $-1 58.447581263600455 -6.3360673390502562 19.666758360181582 0 -1 0 I I #
coedge $-1 $458 $240 $243 $365 reversed $352 $-1 #
coedge $-1 $240 $458 $355 $453 forward $352 $-1 #
vertex $-1 $241 $459 #
straight-curve $-1 68.267464217047632 -7.4986815456293154 96.046167180728077 0 0 1 I I #
straight-curve $-1 -4.0850228693385446 -7.4986815456293154 119.73984727506995 0.52991925155115449 0 -0.84804810408105047 I I #
edge $-1 $460 -17.845587810571715 $244 -7.4986815456293154 $360 $461 forward 7 unknown #
point $-1 68.267464217047632 -7.4986815456293154 19.666758360181579 #
point $-1 58.447581263600462 -7.4986815456293154 19.666758360181575 #
edge $-1 $462 1 $462 0 $247 $-1 forward 7 unknown #
vertex $-1 $248 $463 #
ellipse-curve $-1 61.994775925776366 -15.776206557583233 10.957670527450956 0.84804810408105047 0 0.52991925155115449 0.52991925155115449 0 -0.84804810408105047 1 I I #
point $-1 63.8874419918752 -15.776206557583233 10.961161113856509 #
edge $-1 $464 1 $464 0 $251 $-1 forward 7 unknown #
vertex $-1 $252 $465 #
ellipse-curve $-1 61.994775925776366 -12.672134678100516 10.957670527450956 0.84804810408105047 0 0.52991925155115449 0.52991925155115449 0 -0.84804810408105047 1 I I #
point $-1 63.8874419918752 -12.672134678100516 10.961161113856509 #
edge $-1 $466 1 $466 0 $255 $-1 forward 7 unknown #
vertex $-1 $256 $467 #
ellipse-curve $-1 61.994775925776366 -9.5680627986177988 10.957670527450956 0.84804810408105047 0 0.52991925155115449 0.52991925155115449 0 -0.84804810408105047 1 I I #
point $-1 63.8874419918752 -9.5680627986177988 10.961161113856509 #
plane-surface $-1 0 0 19.666758360181579 0 0 1 1 0 0 forward_v I I I I #
coedge $-1 $391 $390 $383 $468 forward $260 $-1 #
coedge $-1 $383 $262 $264 $387 reversed $166 $-1 #
coedge $-1 $262 $382 $381 $468 reversed $166 $-1 #
coedge $-1 $270 $265 $262 $385 forward $271 $-1 #
edge $-1 $388 -10.552601049500574 $469 -1.0266117085312203 $384 $470 forward 7 unknown #
coedge $-1 $264 $263 $391 $471 reversed $104 $-1 #
edge $-1 $472 -1.6755537013839907e-014 $388 11.113337360065003 $382 $473 forward 7 unknown #
vertex $-1 $266 $474 #
straight-curve $-1 -58.741474876078271 5.3396470191670176 19.666758360181579 0 1 0 I I #
coedge $-1 $381 $267 $270 $395 reversed $260 $-1 #
coedge $-1 $267 $381 $386 $471 forward $260 $-1 #
vertex $-1 $268 $475 #
straight-curve $-1 -68.267464217047632 7.4971313989015904 65.488120949816604 0 0 1 I I #
straight-curve $-1 -68.267464217047618 7.4971313989015904 13.942966404287731 -0.85716729658548041 0 -0.51503808176128008 I I #
edge $-1 $469 -13.86145667776648 $272 -7.4971313989015904 $390 $476 forward 7 unknown #
point $-1 -68.267464217047632 7.4971313989015904 19.666758360181579 #
point $-1 -58.741474876078279 7.4971313989015904 19.666758360181579 #
edge $-1 $477 1 $477 0 $275 $-1 forward 7 unknown #
vertex $-1 $276 $478 #
ellipse-curve $-1 -62.558587892301411 10.679294038334042 15.230650980816394 -0.51503808176128008 0 0.85716729658548041 0.4285836482927402 0 0.25751904088064004 1 I I #
point $-1 -63.075885898270258 10.679294038334042 17.062381423115312 #
plane-surface $-1 68.267464217047632 0 0 -1 0 0 0 0 1 forward_v I I I I #
coedge $-1 $284 $282 $286 $407 reversed $181 $-1 #
edge $-1 $297 -19.666758360181579 $409 19.666758360181579 $296 $479 forward 7 unknown #
vertex $-1 $407 $480 #
straight-curve $-1 -68.267464217047632 -41.310076616584382 0 0 0 -1 I I #
edge $-1 $405 -41.310076616584382 $409 41.310076616584382 $403 $481 forward 7 unknown #
straight-curve $-1 0 -41.310076616584382 -19.666758360181579 -1 0 0 I I #
vertex $-1 $289 $482 #
straight-curve $-1 0 41.310076616584382 -19.666758360181579 1 0 0 I I #
point $-1 68.267464217047632 41.310076616584382 -19.666758360181579 #
point $-1 68.267464217047632 -41.310076616584382 -19.666758360181579 #
straight-curve $-1 -68.267464217047632 0 19.666758360181579 0 -1 0 I I #
point $-1 -68.267464217047632 41.310076616584382 19.666758360181579 #
point $-1 -68.267464217047632 -41.310076616584382 19.666758360181579 #
straight-curve $-1 68.267464217047632 -41.310076616584382 0 0 0 -1 I I #
straight-curve $-1 68.267464217047632 41.310076616584382 0 0 0 -1 I I #
plane-surface $-1 68.267464217047632 0 0 -1 0 0 0 0 1 forward_v I I I I #
coedge $-1 $310 $309 $320 $430 reversed $121 $-1 #
coedge $-1 $483 $313 $310 $421 forward $307 $-1 #
edge $-1 $422 17.845587810571715 $484 41.310076616584382 $310 $485 forward 7 unknown #
vertex $-1 $421 $486 #
straight-curve $-1 -68.267464217047632 -17.845587810571715 7.5710747595117187 0 0 -1 I I #
coedge $-1 $313 $483 $315 $426 forward $307 $-1 #
straight-curve $-1 0 -17.845587810571715 19.666758360181579 -1 0 0 I I #
edge $-1 $433 -41.310076616584382 $316 -17.845587810571715 $315 $487 forward 7 unknown #
point $-1 68.267464217047632 -17.845587810571715 19.666758360181579 #
straight-curve $-1 -68.267464217047632 -14.788916106789024 10.617540677865296 0 -1 0 I I #
coedge $-1 $320 $319 $483 $488 reversed $200 $-1 #
edge $-1 $484 -19.666758360181579 $321 -10.617540677865296 $419 $489 forward 7 unknown #
point $-1 -68.267464217047632 -41.310076616584382 10.617540677865296 #
point $-1 -68.267464217047632 -17.845587810571715 10.617540677865296 #
vertex $-1 $426 $490 #
straight-curve $-1 68.267464217047632 -41.310076616584382 0 0 0 -1 I I #
plane-surface $-1 0 41.310076616584382 0 0 -1 0 0 0 -1 forward_v I I I I #
coedge $-1 $332 $331 $445 $491 forward $129 $-1 #
edge $-1 $439 17.845587810571715 $448 41.310076616584382 $347 $492 forward 7 unknown #
edge $-1 $493 -41.310076616584382 $338 -17.845587810571715 $335 $494 forward 7 unknown #
vertex $-1 $437 $495 #
straight-curve $-1 0 17.845587810571715 19.666758360181579 1 0 0 I I #
coedge $-1 $336 $335 $342 $446 forward $329 $-1 #
point $-1 -68.267464217047632 17.845587810571715 10.617540677865296 #
point $-1 -68.267464217047632 17.845587810571715 19.666758360181579 #
straight-curve $-1 -68.267464217047632 14.788916106789024 10.617540677865296 0 -1 0 I I #
coedge $-1 $343 $342 $436 $491 reversed $344 $-1 #
edge $-1 $493 -19.666758360181579 $345 -10.617540677865296 $342 $496 forward 7 unknown #
point $-1 -68.267464217047632 41.310076616584382 10.617540677865296 #
vertex $-1 $437 $497 #
straight-curve $-1 68.267464217047632 41.310076616584382 0 0 0 -1 I I #
straight-curve $-1 68.267464217047632 17.845587810571715 7.5710747595117187 0 0 -1 I I #
coedge $-1 $452 $354 $458 $498 reversed $234 $-1 #
coedge $-1 $354 $451 $357 $456 reversed $234 $-1 #
edge $-1 $454 -11.509520471521451 $362 -1.1626142065790592 $361 $499 forward 7 unknown #
vertex $-1 $498 $500 #
straight-curve $-1 -4.0850228693385446 -17.845587810571708 119.73984727506995 -0.52991925155115449 0 0.84804810408105047 I I #
edge $-1 $358 58.447581263600462 $460 68.267464217047632 $357 $501 forward 7 unknown #
point $-1 58.447581263600462 -17.845587810571708 19.666758360181575 #
coedge $-1 $361 $360 $451 $498 forward $352 $-1 #
point $-1 68.267464217047632 -7.4986815456293154 3.9516600756935958 #
vertex $-1 $365 $502 #
straight-curve $-1 68.267464217047632 0 19.666758360181579 0 1 0 I I #
vertex $-1 $368 $503 #
point $-1 62.524695177327523 -15.776206557583233 10.109622423369906 #
vertex $-1 $372 $504 #
point $-1 62.524695177327523 -12.672134678100516 10.109622423369906 #
vertex $-1 $376 $505 #
point $-1 62.524695177327523 -9.5680627986177988 10.109622423369906 #
edge $-1 $469 45.821362589635029 $472 51.545154545528881 $381 $506 forward 7 unknown #
vertex $-1 $395 $507 #
straight-curve $-1 -69.294075925578852 13.86145667776648 19.666758360181575 -1 0 0 I I #
edge $-1 $472 -8.5218096585994623 $392 -2.1574843797345729 $391 $508 forward 7 unknown #
vertex $-1 $471 $509 #
straight-curve $-1 -68.267464217047618 13.86145667776648 13.942966404287731 0.85716729658548041 0 0.51503808176128008 I I #
point $-1 -58.741474876078279 13.86145667776648 19.666758360181579 #
point $-1 -68.267464217047632 7.4971313989015904 13.942966404287722 #
straight-curve $-1 -68.267464217047632 0 19.666758360181579 0 -1 0 I I #
vertex $-1 $398 $510 #
point $-1 -62.130004244008674 10.679294038334042 15.488170021697034 #
straight-curve $-1 -68.267464217047632 41.310076616584382 0 0 0 -1 I I #
point $-1 -68.267464217047632 -41.310076616584382 -19.666758360181579 #
straight-curve $-1 -68.267464217047632 0 -19.666758360181579 0 1 0 I I #
point $-1 -68.267464217047632 41.310076616584382 -19.666758360181579 #
coedge $-1 $424 $420 $429 $488 forward $307 $-1 #
vertex $-1 $421 $511 #
straight-curve $-1 -68.267464217047632 0 19.666758360181579 0 -1 0 I I #
point $-1 -68.267464217047632 -17.845587810571715 19.666758360181579 #
straight-curve $-1 68.267464217047632 0 19.666758360181579 0 1 0 I I #
edge $-1 $484 -68.267464217047632 $433 68.267464217047632 $429 $512 forward 7 unknown #
straight-curve $-1 -68.267464217047632 -41.310076616584382 0 0 0 -1 I I #
point $-1 68.267464217047632 -41.310076616584382 19.666758360181579 #
edge $-1 $448 -68.267464217047632 $493 68.267464217047632 $445 $513 forward 7 unknown #
straight-curve $-1 68.267464217047632 0 19.666758360181579 0 1 0 I I #
vertex $-1 $491 $514 #
straight-curve $-1 -68.267464217047632 0 19.666758360181579 0 -1 0 I I #
point $-1 68.267464217047632 17.845587810571715 19.666758360181579 #
straight-curve $-1 -68.267464217047632 41.310076616584382 0 0 0 -1 I I #
point $-1 68.267464217047632 41.310076616584382 19.666758360181579 #
edge $-1 $460 76.379408820546502 $454 92.094507105034481 $458 $515 forward 7 unknown #
straight-curve $-1 68.267464217047632 -6.3360673390502562 3.9516600756936029 0 1 0 I I #
point $-1 68.267464217047632 -17.845587810571708 3.9516600756935958 #
straight-curve $-1 0 -17.845587810571715 19.666758360181579 1 0 0 I I #
point $-1 68.267464217047632 -17.845587810571715 19.666758360181579 #
point $-1 61.146727821695322 -15.776206557583233 10.427751275899803 #
point $-1 61.146727821695322 -12.672134678100516 10.427751275899803 #
point $-1 61.146727821695322 -9.5680627986177988 10.427751275899803 #
straight-curve $-1 -68.267464217047632 13.86145667776648 65.488120949816604 0 0 -1 I I #
point $-1 -68.267464217047632 13.86145667776648 19.666758360181579 #
straight-curve $-1 -68.267464217047632 5.3396470191670176 13.942966404287725 0 -1 0 I I #
point $-1 -68.267464217047632 13.86145667776648 13.942966404287722 #
point $-1 -62.301068851420773 10.679294038334042 14.802067332523654 #
point $-1 -68.267464217047632 -41.310076616584382 19.666758360181579 #
straight-curve $-1 0 -41.310076616584382 19.666758360181579 1 0 0 I I #
straight-curve $-1 0 41.310076616584382 19.666758360181579 -1 0 0 I I #
point $-1 -68.267464217047632 41.310076616584382 19.666758360181579 #
straight-curve $-1 68.267464217047632 -17.845587810571708 96.046167180728077 0 0 -1 I I #
End-of-ACIS-data 