500 0 5 0           
7 Unknown 11 ACIS 5.0 NT 24 Thu Mar 25 16:24:22 1999 
-1 9.9999999999999995e-007 1e-010 
body $-1 $5 $-1 $6 #
body $-1 $7 $-1 $8 #
body $-1 $9 $-1 $10 #
body $-1 $11 $-1 $12 #
body $-1 $13 $-1 $14 #
lump $-1 $-1 $15 $0 #
transform $-1 1 0 0 0 1 0 0 0 1 41.899472029786068 28.892311794360584 10.066414025365098 1 rotate no_reflect no_shear #
lump $-1 $-1 $16 $1 #
transform $-1 1 0 0 0 1 0 0 0 1 41.899472029786068 28.892311794360584 10.066414025365098 1 rotate no_reflect no_shear #
lump $-1 $-1 $17 $2 #
transform $-1 1 0 0 0 1 0 0 0 1 41.899472029786068 28.892311794360584 10.066414025365098 1 rotate no_reflect no_shear #
lump $-1 $-1 $18 $3 #
transform $-1 1 0 0 0 1 0 0 0 1 41.899472029786068 28.892311794360584 10.066414025365098 1 rotate no_reflect no_shear #
lump $-1 $-1 $19 $4 #
transform $-1 1 0 0 0 1 0 0 0 1 41.899472029786068 28.892311794360584 10.066414025365098 1 rotate no_reflect no_shear #
shell $-1 $-1 $-1 $20 $-1 $5 #
shell $-1 $-1 $-1 $21 $-1 $7 #
shell $-1 $-1 $-1 $22 $-1 $9 #
shell $-1 $-1 $-1 $23 $-1 $11 #
shell $-1 $-1 $-1 $24 $-1 $13 #
face $-1 $25 $26 $15 $-1 $27 forward single #
face $-1 $28 $29 $16 $-1 $30 reversed single #
face $-1 $31 $32 $17 $-1 $33 forward single #
face $-1 $34 $35 $18 $-1 $36 reversed single #
face $-1 $37 $38 $19 $-1 $39 reversed single #
face $-1 $40 $41 $15 $-1 $42 reversed single #
loop $-1 $-1 $43 $20 #
plane-surface $-1 0 0 10.066414025365098 0 0 1 1 0 0 forward_v I I I I #
face $-1 $44 $45 $16 $-1 $46 forward single #
loop $-1 $-1 $47 $21 #
plane-surface $-1 -35.610874097176399 0 -7.0664140253650984 0 0 1 1 0 0 forward_v I I I I #
face $-1 $48 $49 $17 $-1 $50 forward single #
loop $-1 $-1 $51 $22 #
plane-surface $-1 27.369296410888126 24.294847391384838 104.09279893951074 1 0 0 0 -0.52991927123019833 -0.84804809178421925 forward_v I I I I #
face $-1 $52 $53 $18 $-1 $54 reversed single #
loop $-1 $55 $56 $23 #
cone-surface $-1 31.520775159144677 21.979244523371449 4.982355750428983 0 -0.52991927123019833 -0.84804809178421925 2 0 0 1 I I 0 1 2 forward I I I I #
face $-1 $57 $58 $19 $-1 $59 reversed single #
loop $-1 $60 $61 $24 #
cone-surface $-1 37.747993281529517 21.979244523371449 4.982355750428983 0 -0.52991927123019833 -0.84804809178421925 2 0 0 1 I I 0 1 2 forward I I I I #
face $-1 $62 $63 $15 $-1 $64 reversed single #
loop $-1 $-1 $65 $25 #
plane-surface $-1 0 0 -10.066414025365098 0 0 1 1 0 0 forward_v I I I I #
coedge $-1 $66 $67 $68 $69 forward $26 $-1 #
face $-1 $70 $71 $16 $-1 $72 reversed single #
loop $-1 $-1 $73 $28 #
plane-surface $-1 -29.32227616456673 0 -8.5664140253650984 -1 0 0 0 0 1 forward_v I I I I #
coedge $-1 $74 $75 $76 $77 reversed $29 $-1 #
face $-1 $78 $79 $17 $-1 $80 forward single #
loop $-1 $-1 $81 $31 #
plane-surface $-1 34.634384220337097 -20.111827974523788 33.027264336258057 0 0.52991927123019833 0.84804809178421925 1 0 0 forward_v I I I I #
coedge $-1 $82 $83 $84 $85 reversed $32 $-1 #
face $-1 $86 $87 $18 $-1 $88 forward single #
loop $-1 $89 $90 $34 #
cone-surface $-1 31.520775159144677 20.66580741857209 2.8804170384854011 0 -0.52991927123019833 -0.84804809178421925 1 0 0 1 I I -0.70710678118654746 0.70710678118654746 1 forward I I I I #
loop $-1 $-1 $91 $23 #
coedge $-1 $56 $56 $92 $93 reversed $35 $-1 #
face $-1 $94 $95 $19 $-1 $96 reversed single #
loop $-1 $97 $98 $37 #
cone-surface $-1 37.747993281529517 20.66580741857209 2.8804170384854011 0 -0.52991927123019833 -0.84804809178421925 1 0 0 1 I I -0.70710678118654746 0.70710678118654746 1 forward I I I I #
loop $-1 $-1 $99 $24 #
coedge $-1 $61 $61 $100 $101 reversed $38 $-1 #
face $-1 $102 $103 $15 $-1 $104 reversed single #
loop $-1 $-1 $105 $40 #
plane-surface $-1 0 -28.892311794360584 0 0 1 0 0 0 1 forward_v I I I I #
coedge $-1 $106 $107 $108 $109 forward $41 $-1 #
coedge $-1 $110 $43 $111 $112 forward $26 $-1 #
coedge $-1 $43 $110 $113 $114 forward $26 $-1 #
coedge $-1 $115 $116 $43 $69 reversed $117 $-1 #
edge $-1 $118 -28.892311794360584 $119 28.892311794360584 $68 $120 forward 7 unknown #
face $-1 $121 $122 $16 $-1 $123 reversed single #
loop $-1 $-1 $124 $44 #
plane-surface $-1 -41.899472029786068 0 0 1 0 0 0 0 -1 forward_v I I I I #
coedge $-1 $76 $125 $126 $127 reversed $45 $-1 #
coedge $-1 $128 $47 $129 $130 reversed $29 $-1 #
coedge $-1 $47 $128 $131 $132 reversed $29 $-1 #
coedge $-1 $133 $73 $47 $77 forward $45 $-1 #
edge $-1 $134 -28.892311794360584 $135 28.892311794360584 $76 $136 forward 7 unknown #
face $-1 $137 $138 $17 $-1 $139 reversed single #
loop $-1 $-1 $140 $48 #
plane-surface $-1 0 0 10.066414025365098 0 0 1 1 0 0 forward_v I I I I #
coedge $-1 $141 $142 $140 $143 reversed $49 $-1 #
coedge $-1 $83 $51 $142 $144 forward $32 $-1 #
coedge $-1 $51 $82 $145 $146 reversed $32 $-1 #
coedge $-1 $147 $140 $51 $85 forward $79 $-1 #
edge $-1 $148 4.4857892238282435 $149 16.744888098668163 $84 $150 forward 7 unknown #
face $-1 $151 $152 $18 $-1 $153 forward single #
loop $-1 $-1 $154 $52 #
plane-surface $-1 27.369296410888126 24.294847391384838 104.09279893951074 1 0 0 0 -0.52991927123019833 -0.84804809178421925 forward_v I I I I #
loop $-1 $-1 $155 $34 #
coedge $-1 $90 $90 $91 $156 forward $53 $-1 #
coedge $-1 $91 $91 $90 $156 reversed $55 $-1 #
coedge $-1 $92 $92 $56 $93 forward $152 $-1 #
edge $-1 $157 9.8933662726959013e-016 $157 6.2831853071796013 $92 $158 forward 7 unknown #
face $-1 $159 $160 $19 $-1 $161 reversed single #
loop $-1 $162 $163 $57 #
cone-surface $-1 31.520775159144677 21.979244523371449 4.982355750428983 0 -0.52991927123019833 -0.84804809178421925 2 0 0 1 I I 0 1 2 forward I I I I #
loop $-1 $-1 $164 $37 #
coedge $-1 $98 $98 $99 $165 forward $58 $-1 #
coedge $-1 $99 $99 $98 $165 reversed $60 $-1 #
coedge $-1 $100 $100 $61 $101 forward $166 $-1 #
edge $-1 $167 9.8933662726959013e-016 $167 6.2831853071796013 $100 $168 forward 7 unknown #
face $-1 $169 $170 $15 $-1 $171 reversed single #
loop $-1 $-1 $172 $62 #
plane-surface $-1 -41.899472029786068 0 0 1 0 0 0 0 -1 forward_v I I I I #
coedge $-1 $173 $113 $174 $175 forward $63 $-1 #
coedge $-1 $176 $65 $173 $177 forward $41 $-1 #
coedge $-1 $65 $176 $178 $179 forward $41 $-1 #
coedge $-1 $116 $115 $65 $109 reversed $117 $-1 #
edge $-1 $180 -28.892311794360584 $181 28.892311794360584 $108 $182 forward 7 unknown #
coedge $-1 $67 $66 $183 $184 forward $26 $-1 #
coedge $-1 $185 $186 $66 $112 reversed $170 $-1 #
edge $-1 $119 -41.899472029786068 $187 41.899472029786068 $111 $188 forward 7 unknown #
coedge $-1 $105 $189 $67 $114 reversed $63 $-1 #
edge $-1 $190 -41.899472029786068 $118 41.899472029786068 $113 $191 forward 7 unknown #
coedge $-1 $108 $68 $189 $192 forward $117 $-1 #
coedge $-1 $68 $108 $185 $193 reversed $117 $-1 #
loop $-1 $-1 $115 $169 #
vertex $-1 $69 $194 #
vertex $-1 $69 $195 #
straight-curve $-1 41.899472029786068 0 10.066414025365098 0 1 0 I I #
face $-1 $196 $197 $16 $-1 $198 forward single #
loop $-1 $-1 $129 $70 #
plane-surface $-1 0 -28.892311794360584 0 0 1 0 0 0 1 forward_v I I I I #
coedge $-1 $199 $200 $128 $201 forward $71 $-1 #
coedge $-1 $73 $133 $202 $203 reversed $45 $-1 #
coedge $-1 $204 $129 $73 $127 forward $122 $-1 #
edge $-1 $134 2.7832070126825492 $205 5.7832070126825492 $126 $206 forward 7 unknown #
coedge $-1 $75 $74 $124 $201 reversed $29 $-1 #
coedge $-1 $126 $207 $74 $130 forward $122 $-1 #
edge $-1 $208 -24.094034981197868 $134 -11.516839115978531 $129 $209 forward 7 unknown #
coedge $-1 $210 $211 $75 $132 forward $212 $-1 #
edge $-1 $135 11.516839115978531 $213 24.094034981197868 $131 $214 forward 7 unknown #
coedge $-1 $125 $76 $211 $215 reversed $45 $-1 #
vertex $-1 $130 $216 #
vertex $-1 $132 $217 #
straight-curve $-1 -29.32227616456673 0 -7.0664140253650984 0 1 0 I I #
face $-1 $218 $219 $17 $-1 $220 reversed single #
loop $-1 $-1 $145 $78 #
plane-surface $-1 0 28.892311794360584 0 0 -1 0 0 0 -1 forward_v I I I I #
coedge $-1 $84 $221 $81 $143 forward $79 $-1 #
coedge $-1 $222 $81 $223 $224 reversed $49 $-1 #
coedge $-1 $81 $222 $82 $144 reversed $49 $-1 #
edge $-1 $225 -24.58227991961752 $148 -10.052104300719577 $140 $226 forward 7 unknown #
edge $-1 $148 43.32895887630157 $227 57.784623588721175 $82 $228 forward 7 unknown #
coedge $-1 $229 $230 $83 $146 forward $138 $-1 #
edge $-1 $149 41.979985444390273 $227 49.640320753943769 $145 $231 forward 7 unknown #
coedge $-1 $232 $84 $230 $233 forward $79 $-1 #
vertex $-1 $143 $234 #
vertex $-1 $233 $235 #
straight-curve $-1 27.369296410888126 12.147423695692419 10.066414025365098 0 1 0 I I #
face $-1 $236 $237 $18 $-1 $238 forward single #
loop $-1 $239 $92 $86 #
plane-surface $-1 34.634384220337097 -20.111827974523788 33.027264336258057 0 0.52991927123019833 0.84804809178421925 1 0 0 forward_v I I I I #
coedge $-1 $240 $241 $242 $243 reversed $87 $-1 #
coedge $-1 $155 $155 $-1 $244 forward $89 $-1 #
edge $-1 $245 0 $245 6.2831853071796004 $90 $246 forward 7 unknown #
vertex $-1 $93 $247 #
ellipse-curve $-1 31.520775159144677 22.762762356940616 6.2362463705883586 0 -0.52991927123019833 -0.84804809178421925 2 0 0 1 I I #
face $-1 $248 $249 $19 $-1 $250 forward single #
loop $-1 $251 $252 $94 #
cone-surface $-1 31.520775159144677 20.66580741857209 2.8804170384854011 0 -0.52991927123019833 -0.84804809178421925 1 0 0 1 I I -0.70710678118654746 0.70710678118654746 1 forward I I I I #
loop $-1 $-1 $253 $57 #
coedge $-1 $163 $163 $254 $255 reversed $95 $-1 #
coedge $-1 $164 $164 $-1 $256 forward $97 $-1 #
edge $-1 $257 0 $257 6.2831853071796004 $98 $258 forward 7 unknown #
loop $-1 $259 $100 $248 #
vertex $-1 $101 $260 #
ellipse-curve $-1 37.747993281529517 22.762762356940616 6.2362463705883586 0 -0.52991927123019833 -0.84804809178421925 2 0 0 1 I I #
face $-1 $-1 $117 $15 $-1 $261 reversed single #
loop $-1 $-1 $185 $102 #
plane-surface $-1 0 28.892311794360584 0 0 -1 0 0 0 -1 forward_v I I I I #
coedge $-1 $262 $183 $186 $263 forward $103 $-1 #
coedge $-1 $189 $105 $106 $177 reversed $63 $-1 #
coedge $-1 $183 $262 $105 $175 reversed $103 $-1 #
edge $-1 $190 -10.066414025365098 $264 10.066414025365098 $174 $265 forward 7 unknown #
coedge $-1 $107 $106 $262 $266 forward $41 $-1 #
edge $-1 $181 -41.899472029786068 $264 41.899472029786068 $173 $267 forward 7 unknown #
coedge $-1 $186 $185 $107 $179 reversed $170 $-1 #
edge $-1 $268 -41.899472029786068 $180 41.899472029786068 $178 $269 forward 7 unknown #
vertex $-1 $109 $270 #
vertex $-1 $192 $271 #
straight-curve $-1 41.899472029786068 0 -10.066414025365098 0 -1 0 I I #
coedge $-1 $172 $174 $110 $184 reversed $103 $-1 #
edge $-1 $187 -28.892311794360584 $190 28.892311794360584 $183 $272 forward 7 unknown #
coedge $-1 $178 $111 $116 $193 forward $170 $-1 #
coedge $-1 $111 $178 $172 $263 reversed $170 $-1 #
vertex $-1 $112 $273 #
straight-curve $-1 0 28.892311794360584 10.066414025365098 -1 0 0 I I #
coedge $-1 $113 $173 $115 $192 reversed $63 $-1 #
vertex $-1 $184 $274 #
straight-curve $-1 0 -28.892311794360584 10.066414025365098 1 0 0 I I #
edge $-1 $118 -10.066414025365098 $181 10.066414025365098 $115 $275 forward 7 unknown #
edge $-1 $119 -10.066414025365098 $180 10.066414025365098 $116 $276 forward 7 unknown #
point $-1 41.899472029786068 -28.892311794360584 10.066414025365098 #
point $-1 41.899472029786068 28.892311794360584 10.066414025365098 #
face $-1 $277 $278 $16 $-1 $279 reversed single #
loop $-1 $-1 $280 $121 #
plane-surface $-1 0 0 10.066414025365098 0 0 1 1 0 0 forward_v I I I I #
coedge $-1 $281 $124 $207 $282 reversed $71 $-1 #
coedge $-1 $124 $281 $210 $283 forward $71 $-1 #
edge $-1 $213 -28.892311794360584 $208 28.892311794360584 $124 $284 forward 7 unknown #
coedge $-1 $285 $286 $125 $203 forward $278 $-1 #
edge $-1 $205 -28.892311794360584 $287 28.892311794360584 $202 $288 forward 7 unknown #
coedge $-1 $289 $126 $286 $290 reversed $122 $-1 #
vertex $-1 $127 $291 #
straight-curve $-1 -29.32227616456673 -28.892311794360584 -4.2832070126825492 0 0 -1 I I #
coedge $-1 $129 $292 $199 $282 forward $122 $-1 #
vertex $-1 $130 $293 #
straight-curve $-1 -17.8054370485882 -28.892311794360584 -7.0664140253650984 1 0 0 I I #
coedge $-1 $294 $131 $200 $283 reversed $212 $-1 #
coedge $-1 $131 $295 $133 $215 forward $212 $-1 #
loop $-1 $-1 $131 $277 #
vertex $-1 $201 $296 #
straight-curve $-1 -17.8054370485882 28.892311794360584 -7.0664140253650984 -1 0 0 I I #
edge $-1 $287 -5.7832070126825492 $135 -2.7832070126825492 $211 $297 forward 7 unknown #
point $-1 -29.32227616456673 -28.892311794360584 -7.0664140253650984 #
point $-1 -29.32227616456673 28.892311794360584 -7.0664140253650984 #
face $-1 $298 $299 $17 $-1 $300 forward single #
loop $-1 $-1 $301 $137 #
plane-surface $-1 -35.610874097176399 0 -7.0664140253650984 0 0 1 1 0 0 forward_v I I I I #
coedge $-1 $140 $302 $303 $304 forward $79 $-1 #
coedge $-1 $142 $141 $229 $305 reversed $49 $-1 #
coedge $-1 $303 $306 $141 $224 forward $307 $-1 #
edge $-1 $308 -40.505832996778992 $225 -26.050168284359383 $223 $309 forward 7 unknown #
vertex $-1 $224 $310 #
straight-curve $-1 17.317192110168548 16.633212919520663 10.066414025365097 -1 0 0 I I #
vertex $-1 $305 $311 #
straight-curve $-1 27.369296410888126 -20.111827974523788 33.027264336258057 0 0.84804809178421925 -0.52991927123019833 I I #
coedge $-1 $312 $145 $222 $305 forward $138 $-1 #
coedge $-1 $145 $313 $147 $233 reversed $138 $-1 #
straight-curve $-1 27.369296410888126 28.892311794360584 52.046399469755372 0 0 -1 I I #
coedge $-1 $302 $147 $314 $315 forward $79 $-1 #
edge $-1 $149 -27.369296410888126 $316 41.899472029786068 $230 $317 forward 7 unknown #
point $-1 27.369296410888126 16.633212919520663 10.066414025365098 #
point $-1 27.369296410888126 28.892311794360584 10.066414025365098 #
face $-1 $318 $319 $18 $-1 $320 reversed single #
loop $-1 $-1 $321 $151 #
plane-surface $-1 0 0 10.066414025365098 0 0 1 1 0 0 forward_v I I I I #
loop $-1 $-1 $322 $86 #
coedge $-1 $241 $154 $323 $324 forward $87 $-1 #
coedge $-1 $154 $240 $325 $326 reversed $87 $-1 #
coedge $-1 $327 $321 $154 $243 forward $237 $-1 #
edge $-1 $328 4.4857892238282435 $329 16.744888098668163 $242 $330 forward 7 unknown #
edge $-1 $331 1 $331 0 $155 $-1 forward 7 unknown #
vertex $-1 $156 $332 #
ellipse-curve $-1 31.520775159144677 21.195726689802289 3.7284651302696203 0 0.52991927123019833 0.84804809178421925 2 0 0 1 I I #
point $-1 33.520775159144677 22.762762356940605 6.2362463705883453 #
face $-1 $333 $166 $19 $-1 $334 forward single #
loop $-1 $-1 $335 $159 #
plane-surface $-1 27.369296410888126 24.294847391384838 104.09279893951074 1 0 0 0 -0.52991927123019833 -0.84804809178421925 forward_v I I I I #
loop $-1 $-1 $336 $94 #
coedge $-1 $252 $252 $253 $337 forward $160 $-1 #
coedge $-1 $253 $253 $252 $337 reversed $162 $-1 #
coedge $-1 $254 $254 $163 $255 forward $259 $-1 #
edge $-1 $338 9.8933662726959013e-016 $338 6.2831853071796013 $254 $339 forward 7 unknown #
edge $-1 $340 1 $340 0 $164 $-1 forward 7 unknown #
vertex $-1 $165 $341 #
ellipse-curve $-1 37.747993281529517 21.195726689802289 3.7284651302696203 0 0.52991927123019833 0.84804809178421925 2 0 0 1 I I #
loop $-1 $342 $254 $248 #
point $-1 39.747993281529517 22.762762356940605 6.2362463705883453 #
plane-surface $-1 41.899472029786068 0 0 -1 0 0 0 0 1 forward_v I I I I #
coedge $-1 $174 $172 $176 $266 reversed $103 $-1 #
edge $-1 $187 -10.066414025365098 $268 10.066414025365098 $186 $343 forward 7 unknown #
vertex $-1 $266 $344 #
straight-curve $-1 -41.899472029786068 -28.892311794360584 0 0 0 -1 I I #
edge $-1 $264 -28.892311794360584 $268 28.892311794360584 $262 $345 forward 7 unknown #
straight-curve $-1 0 -28.892311794360584 -10.066414025365098 -1 0 0 I I #
vertex $-1 $179 $346 #
straight-curve $-1 0 28.892311794360584 -10.066414025365098 1 0 0 I I #
point $-1 41.899472029786068 28.892311794360584 -10.066414025365098 #
point $-1 41.899472029786068 -28.892311794360584 -10.066414025365098 #
straight-curve $-1 -41.899472029786068 0 10.066414025365098 0 -1 0 I I #
point $-1 -41.899472029786068 28.892311794360584 10.066414025365098 #
point $-1 -41.899472029786068 -28.892311794360584 10.066414025365098 #
straight-curve $-1 41.899472029786068 -28.892311794360584 0 0 0 -1 I I #
straight-curve $-1 41.899472029786068 28.892311794360584 0 0 0 -1 I I #
face $-1 $347 $212 $16 $-1 $348 reversed single #
loop $-1 $-1 $202 $196 #
plane-surface $-1 0 0 -10.066414025365098 0 0 1 1 0 0 forward_v I I I I #
coedge $-1 $349 $350 $351 $352 forward $197 $-1 #
coedge $-1 $200 $199 $353 $354 reversed $71 $-1 #
edge $-1 $355 -10.066414025365098 $208 7.0664140253650984 $199 $356 forward 7 unknown #
edge $-1 $357 -10.066414025365098 $213 7.0664140253650984 $210 $358 forward 7 unknown #
straight-curve $-1 -41.899472029786068 0 -7.0664140253650984 0 -1 0 I I #
coedge $-1 $359 $202 $295 $360 forward $278 $-1 #
coedge $-1 $202 $359 $204 $290 forward $278 $-1 #
vertex $-1 $360 $361 #
straight-curve $-1 -29.32227616456673 0 -10.066414025365098 0 1 0 I I #
coedge $-1 $292 $204 $362 $363 reversed $122 $-1 #
edge $-1 $364 -41.899472029786068 $205 29.32227616456673 $204 $365 forward 7 unknown #
point $-1 -29.32227616456673 -28.892311794360584 -10.066414025365098 #
coedge $-1 $207 $289 $350 $366 reversed $122 $-1 #
point $-1 -41.899472029786068 -28.892311794360584 -7.0664140253650984 #
coedge $-1 $367 $210 $349 $368 reversed $212 $-1 #
coedge $-1 $211 $367 $285 $360 reversed $212 $-1 #
point $-1 -41.899472029786068 28.892311794360584 -7.0664140253650984 #
straight-curve $-1 -29.32227616456673 28.892311794360584 -4.2832070126825492 0 0 1 I I #
face $-1 $369 $370 $17 $-1 $371 reversed single #
loop $-1 $-1 $372 $218 #
plane-surface $-1 -29.32227616456673 0 -8.5664140253650984 -1 0 0 0 0 1 forward_v I I I I #
coedge $-1 $373 $374 $375 $376 reversed $219 $-1 #
coedge $-1 $221 $232 $377 $378 forward $79 $-1 #
coedge $-1 $379 $223 $221 $304 reversed $307 $-1 #
edge $-1 $380 -28.892311794360584 $225 16.633212919520663 $303 $381 forward 7 unknown #
edge $-1 $227 10.052104300719577 $308 24.58227991961752 $229 $382 forward 7 unknown #
coedge $-1 $223 $383 $312 $384 reversed $307 $-1 #
loop $-1 $-1 $223 $385 #
vertex $-1 $384 $386 #
straight-curve $-1 41.899472029786068 -5.4585825846880995 23.870900218036848 0 -0.84804809178421925 0.52991927123019833 I I #
point $-1 41.899472029786068 16.633212919520663 10.066414025365098 #
point $-1 27.369296410888126 28.892311794360584 2.4060787158116064 #
coedge $-1 $387 $229 $306 $384 forward $138 $-1 #
coedge $-1 $230 $388 $389 $390 reversed $138 $-1 #
coedge $-1 $389 $391 $232 $315 reversed $370 $-1 #
edge $-1 $316 -28.892311794360584 $392 28.892311794360584 $314 $393 forward 7 unknown #
vertex $-1 $233 $394 #
straight-curve $-1 0 28.892311794360584 10.066414025365098 -1 0 0 I I #
face $-1 $395 $396 $18 $-1 $397 reversed single #
loop $-1 $-1 $325 $236 #
plane-surface $-1 0 28.892311794360584 0 0 -1 0 0 0 -1 forward_v I I I I #
coedge $-1 $242 $398 $322 $399 forward $237 $-1 #
coedge $-1 $400 $323 $321 $399 reversed $239 $-1 #
coedge $-1 $322 $401 $240 $324 reversed $239 $-1 #
edge $-1 $328 43.32895887630157 $402 57.784623588721175 $240 $403 forward 7 unknown #
coedge $-1 $404 $405 $241 $326 forward $319 $-1 #
edge $-1 $329 41.979985444390273 $402 49.640320753943769 $325 $406 forward 7 unknown #
coedge $-1 $407 $242 $405 $408 forward $237 $-1 #
vertex $-1 $399 $409 #
vertex $-1 $408 $410 #
straight-curve $-1 27.369296410888126 12.147423695692419 10.066414025365098 0 1 0 I I #
vertex $-1 $244 $411 #
point $-1 33.520775159144677 21.195726689802289 3.7284651302696203 #
face $-1 $412 $413 $19 $-1 $414 forward single #
plane-surface $-1 34.634384220337097 -20.111827974523788 33.027264336258057 0 0.52991927123019833 0.84804809178421925 1 0 0 forward_v I I I I #
coedge $-1 $415 $416 $417 $418 reversed $249 $-1 #
coedge $-1 $336 $336 $-1 $419 forward $251 $-1 #
edge $-1 $420 0 $420 6.2831853071796004 $252 $421 forward 7 unknown #
vertex $-1 $255 $422 #
ellipse-curve $-1 31.520775159144677 22.762762356940616 6.2362463705883586 0 -0.52991927123019833 -0.84804809178421925 2 0 0 1 I I #
vertex $-1 $256 $423 #
point $-1 39.747993281529517 21.195726689802289 3.7284651302696203 #
loop $-1 $-1 $424 $248 #
straight-curve $-1 -41.899472029786068 28.892311794360584 0 0 0 -1 I I #
point $-1 -41.899472029786068 -28.892311794360584 -10.066414025365098 #
straight-curve $-1 -41.899472029786068 0 -10.066414025365098 0 1 0 I I #
point $-1 -41.899472029786068 28.892311794360584 -10.066414025365098 #
face $-1 $-1 $425 $16 $-1 $426 reversed single #
plane-surface $-1 0 28.892311794360584 0 0 -1 0 0 0 -1 forward_v I I I I #
coedge $-1 $353 $280 $294 $368 forward $197 $-1 #
coedge $-1 $280 $353 $292 $366 forward $197 $-1 #
coedge $-1 $362 $427 $280 $352 reversed $425 $-1 #
edge $-1 $428 -28.892311794360584 $429 28.892311794360584 $351 $430 forward 7 unknown #
coedge $-1 $350 $349 $281 $354 forward $197 $-1 #
edge $-1 $357 -28.892311794360584 $355 28.892311794360584 $281 $431 forward 7 unknown #
vertex $-1 $354 $432 #
straight-curve $-1 -41.899472029786068 -28.892311794360584 0 0 0 -1 I I #
vertex $-1 $368 $433 #
straight-curve $-1 -41.899472029786068 28.892311794360584 0 0 0 -1 I I #
coedge $-1 $286 $285 $434 $435 forward $278 $-1 #
edge $-1 $287 -29.32227616456673 $436 41.899472029786068 $295 $437 forward 7 unknown #
point $-1 -29.32227616456673 28.892311794360584 -10.066414025365098 #
coedge $-1 $434 $351 $289 $363 forward $425 $-1 #
edge $-1 $428 -10.066414025365098 $364 10.066414025365098 $362 $438 forward 7 unknown #
vertex $-1 $363 $439 #
straight-curve $-1 0 -28.892311794360584 -10.066414025365098 -1 0 0 I I #
edge $-1 $355 -41.899472029786068 $428 41.899472029786068 $292 $440 forward 7 unknown #
coedge $-1 $295 $294 $427 $441 forward $212 $-1 #
edge $-1 $429 -41.899472029786068 $357 41.899472029786068 $294 $442 forward 7 unknown #
face $-1 $443 $444 $17 $-1 $445 reversed single #
loop $-1 $-1 $446 $298 #
plane-surface $-1 -41.899472029786068 0 0 1 0 0 0 0 -1 forward_v I I I I #
coedge $-1 $375 $447 $448 $449 reversed $299 $-1 #
coedge $-1 $450 $301 $451 $452 reversed $219 $-1 #
coedge $-1 $301 $450 $388 $453 reversed $219 $-1 #
coedge $-1 $454 $372 $301 $376 forward $299 $-1 #
edge $-1 $455 -28.892311794360584 $456 28.892311794360584 $375 $457 forward 7 unknown #
coedge $-1 $458 $459 $302 $378 reversed $444 $-1 #
edge $-1 $392 -41.899472029786068 $380 41.899472029786068 $377 $460 forward 7 unknown #
coedge $-1 $383 $303 $459 $461 forward $307 $-1 #
vertex $-1 $304 $462 #
straight-curve $-1 41.899472029786068 0 10.066414025365098 0 1 0 I I #
straight-curve $-1 17.317192110168548 28.892311794360587 2.4060787158116046 1 0 0 I I #
coedge $-1 $306 $379 $463 $464 reversed $307 $-1 #
edge $-1 $308 -2.4060787158116064 $465 10.066414025365098 $306 $466 forward 7 unknown #
face $-1 $-1 $307 $17 $-1 $467 reversed single #
point $-1 41.899472029786068 28.892311794360584 2.4060787158116064 #
coedge $-1 $468 $312 $469 $470 reversed $138 $-1 #
coedge $-1 $313 $468 $374 $453 forward $138 $-1 #
coedge $-1 $446 $314 $313 $390 forward $370 $-1 #
edge $-1 $316 -10.066414025365098 $471 7.0664140253650984 $313 $472 forward 7 unknown #
coedge $-1 $314 $446 $458 $473 reversed $370 $-1 #
vertex $-1 $315 $474 #
straight-curve $-1 -41.899472029786068 0 10.066414025365098 0 -1 0 I I #
point $-1 -41.899472029786068 28.892311794360584 10.066414025365098 #
face $-1 $475 $476 $18 $-1 $477 forward single #
loop $-1 $-1 $478 $318 #
plane-surface $-1 -35.610874097176399 0 -7.0664140253650984 0 0 1 1 0 0 forward_v I I I I #
coedge $-1 $321 $479 $480 $481 forward $237 $-1 #
edge $-1 $482 -24.58227991961752 $328 -10.052104300719577 $321 $483 forward 7 unknown #
coedge $-1 $401 $322 $484 $485 reversed $239 $-1 #
coedge $-1 $323 $400 $404 $486 reversed $239 $-1 #
vertex $-1 $486 $487 #
straight-curve $-1 27.369296410888126 -20.111827974523788 33.027264336258057 0 0.84804809178421925 -0.52991927123019833 I I #
coedge $-1 $488 $325 $401 $486 forward $319 $-1 #
coedge $-1 $325 $489 $327 $408 reversed $319 $-1 #
straight-curve $-1 27.369296410888126 28.892311794360584 52.046399469755372 0 0 -1 I I #
coedge $-1 $479 $327 $490 $491 forward $237 $-1 #
edge $-1 $329 -27.369296410888126 $492 41.899472029786068 $405 $493 forward 7 unknown #
point $-1 27.369296410888126 16.633212919520663 10.066414025365098 #
point $-1 27.369296410888126 28.892311794360584 10.066414025365098 #
point $-1 31.520775159144677 20.135888147341891 2.0323689467011818 #
face $-1 $494 $495 $19 $-1 $496 reversed single #
loop $-1 $-1 $497 $333 #
plane-surface $-1 0 0 10.066414025365098 0 0 1 1 0 0 forward_v I I I I #
coedge $-1 $416 $335 $498 $499 forward $249 $-1 #
coedge $-1 $335 $415 $500 $501 reversed $249 $-1 #
coedge $-1 $502 $497 $335 $418 forward $413 $-1 #
edge $-1 $503 4.4857892238282435 $504 16.744888098668163 $417 $505 forward 7 unknown #
edge $-1 $506 1 $506 0 $336 $-1 forward 7 unknown #
vertex $-1 $337 $507 #
ellipse-curve $-1 31.520775159144677 21.195726689802289 3.7284651302696203 0 0.52991927123019833 0.84804809178421925 2 0 0 1 I I #
point $-1 33.520775159144677 22.762762356940605 6.2362463705883453 #
point $-1 37.747993281529517 20.135888147341891 2.0323689467011818 #
coedge $-1 $508 $498 $497 $509 reversed $342 $-1 #
loop $-1 $-1 $362 $347 #
plane-surface $-1 41.899472029786068 0 0 -1 0 0 0 0 1 forward_v I I I I #
coedge $-1 $351 $434 $367 $441 reversed $425 $-1 #
vertex $-1 $352 $510 #
vertex $-1 $352 $511 #
straight-curve $-1 41.899472029786068 0 10.066414025365098 0 1 0 I I #
straight-curve $-1 -41.899472029786068 0 10.066414025365098 0 -1 0 I I #
point $-1 -41.899472029786068 -28.892311794360584 10.066414025365098 #
point $-1 -41.899472029786068 28.892311794360584 10.066414025365098 #
coedge $-1 $427 $362 $359 $435 reversed $425 $-1 #
edge $-1 $436 -28.892311794360584 $364 28.892311794360584 $434 $512 forward 7 unknown #
vertex $-1 $435 $513 #
straight-curve $-1 0 28.892311794360584 -10.066414025365098 1 0 0 I I #
straight-curve $-1 41.899472029786068 -28.892311794360584 0 0 0 -1 I I #
point $-1 41.899472029786068 -28.892311794360584 -10.066414025365098 #
straight-curve $-1 0 -28.892311794360584 10.066414025365098 1 0 0 I I #
edge $-1 $429 -10.066414025365098 $436 10.066414025365098 $427 $514 forward 7 unknown #
straight-curve $-1 0 28.892311794360584 10.066414025365098 -1 0 0 I I #
face $-1 $385 $515 $17 $-1 $516 reversed single #
loop $-1 $-1 $451 $369 #
plane-surface $-1 0 -28.892311794360584 0 0 1 0 0 0 1 forward_v I I I I #
coedge $-1 $391 $389 $450 $517 forward $370 $-1 #
coedge $-1 $372 $454 $518 $519 reversed $299 $-1 #
coedge $-1 $520 $451 $372 $449 forward $444 $-1 #
edge $-1 $455 2.7832070126825492 $521 5.7832070126825492 $448 $522 forward 7 unknown #
coedge $-1 $374 $373 $446 $517 reversed $219 $-1 #
coedge $-1 $448 $458 $373 $452 forward $444 $-1 #
edge $-1 $523 -24.094034981197868 $455 -11.516839115978531 $451 $524 forward 7 unknown #
edge $-1 $456 11.516839115978531 $471 24.094034981197868 $388 $525 forward 7 unknown #
coedge $-1 $447 $375 $468 $526 reversed $299 $-1 #
vertex $-1 $452 $527 #
vertex $-1 $453 $528 #
straight-curve $-1 -29.32227616456673 0 -7.0664140253650984 0 1 0 I I #
coedge $-1 $451 $377 $391 $473 forward $444 $-1 #
coedge $-1 $377 $520 $379 $461 reversed $444 $-1 #
straight-curve $-1 0 -28.892311794360584 10.066414025365098 1 0 0 I I #
edge $-1 $380 -10.066414025365098 $529 10.066414025365098 $379 $530 forward 7 unknown #
point $-1 41.899472029786068 -28.892311794360584 10.066414025365098 #
coedge $-1 $531 $469 $383 $464 forward $515 $-1 #
edge $-1 $465 -28.892311794360584 $529 28.892311794360584 $383 $532 forward 7 unknown #
vertex $-1 $464 $533 #
straight-curve $-1 41.899472029786068 28.892311794360584 0 0 0 -1 I I #
plane-surface $-1 41.899472029786068 0 0 -1 0 0 0 0 1 forward_v I I I I #
coedge $-1 $388 $387 $454 $526 forward $138 $-1 #
coedge $-1 $463 $518 $387 $470 forward $515 $-1 #
edge $-1 $534 -29.32227616456673 $465 41.899472029786068 $387 $535 forward 7 unknown #
vertex $-1 $517 $536 #
straight-curve $-1 -41.899472029786068 28.892311794360584 0 0 0 -1 I I #
edge $-1 $392 -10.066414025365098 $523 7.0664140253650984 $391 $537 forward 7 unknown #
point $-1 -41.899472029786068 -28.892311794360584 10.066414025365098 #
face $-1 $538 $539 $18 $-1 $540 reversed single #
loop $-1 $-1 $541 $395 #
plane-surface $-1 -29.32227616456673 0 -8.5664140253650984 -1 0 0 0 0 1 forward_v I I I I #
coedge $-1 $542 $543 $544 $545 reversed $396 $-1 #
coedge $-1 $398 $407 $546 $547 forward $237 $-1 #
coedge $-1 $548 $484 $398 $481 reversed $549 $-1 #
edge $-1 $550 -28.892311794360584 $482 16.633212919520663 $480 $551 forward 7 unknown #
vertex $-1 $485 $552 #
straight-curve $-1 17.317192110168548 16.633212919520663 10.066414025365097 -1 0 0 I I #
coedge $-1 $480 $553 $400 $485 forward $549 $-1 #
edge $-1 $554 -40.505832996778992 $482 -26.050168284359383 $484 $555 forward 7 unknown #
edge $-1 $402 10.052104300719577 $554 24.58227991961752 $404 $556 forward 7 unknown #
point $-1 27.369296410888126 28.892311794360584 2.4060787158116064 #
coedge $-1 $557 $404 $553 $558 forward $319 $-1 #
coedge $-1 $405 $559 $560 $561 reversed $319 $-1 #
coedge $-1 $560 $562 $407 $491 reversed $539 $-1 #
edge $-1 $492 -28.892311794360584 $563 28.892311794360584 $490 $564 forward 7 unknown #
vertex $-1 $408 $565 #
straight-curve $-1 0 28.892311794360584 10.066414025365098 -1 0 0 I I #
face $-1 $566 $567 $19 $-1 $568 reversed single #
loop $-1 $-1 $500 $412 #
plane-surface $-1 0 28.892311794360584 0 0 -1 0 0 0 -1 forward_v I I I I #
coedge $-1 $417 $569 $424 $509 forward $413 $-1 #
coedge $-1 $424 $570 $415 $499 reversed $342 $-1 #
edge $-1 $503 43.32895887630157 $571 57.784623588721175 $415 $572 forward 7 unknown #
coedge $-1 $573 $574 $416 $501 forward $495 $-1 #
edge $-1 $504 41.979985444390273 $571 49.640320753943769 $500 $575 forward 7 unknown #
coedge $-1 $576 $417 $574 $577 forward $413 $-1 #
vertex $-1 $509 $578 #
vertex $-1 $577 $579 #
straight-curve $-1 27.369296410888126 12.147423695692419 10.066414025365098 0 1 0 I I #
vertex $-1 $419 $580 #
point $-1 33.520775159144677 21.195726689802289 3.7284651302696203 #
coedge $-1 $570 $424 $581 $582 reversed $342 $-1 #
edge $-1 $583 -24.58227991961752 $503 -10.052104300719577 $497 $584 forward 7 unknown #
point $-1 41.899472029786068 -28.892311794360584 10.066414025365098 #
point $-1 41.899472029786068 28.892311794360584 10.066414025365098 #
straight-curve $-1 41.899472029786068 0 -10.066414025365098 0 -1 0 I I #
point $-1 41.899472029786068 28.892311794360584 -10.066414025365098 #
straight-curve $-1 41.899472029786068 28.892311794360584 0 0 0 -1 I I #
loop $-1 $-1 $518 $443 #
plane-surface $-1 0 0 -10.066414025365098 0 0 1 1 0 0 forward_v I I I I #
edge $-1 $471 -28.892311794360584 $523 28.892311794360584 $446 $585 forward 7 unknown #
coedge $-1 $469 $531 $447 $519 forward $515 $-1 #
edge $-1 $521 -28.892311794360584 $534 28.892311794360584 $518 $586 forward 7 unknown #
coedge $-1 $459 $448 $531 $587 reversed $444 $-1 #
vertex $-1 $449 $588 #
straight-curve $-1 -29.32227616456673 -28.892311794360584 -4.2832070126825492 0 0 -1 I I #
vertex $-1 $452 $589 #
straight-curve $-1 -17.8054370485882 -28.892311794360584 -7.0664140253650984 1 0 0 I I #
straight-curve $-1 -17.8054370485882 28.892311794360584 -7.0664140253650984 -1 0 0 I I #
edge $-1 $534 -5.7832070126825492 $456 -2.7832070126825492 $468 $590 forward 7 unknown #
point $-1 -29.32227616456673 -28.892311794360584 -7.0664140253650984 #
point $-1 -29.32227616456673 28.892311794360584 -7.0664140253650984 #
vertex $-1 $461 $591 #
straight-curve $-1 41.899472029786068 -28.892311794360584 0 0 0 -1 I I #
coedge $-1 $518 $463 $520 $587 forward $515 $-1 #
straight-curve $-1 41.899472029786068 0 -10.066414025365098 0 -1 0 I I #
point $-1 41.899472029786068 28.892311794360584 -10.066414025365098 #
vertex $-1 $470 $592 #
straight-curve $-1 0 28.892311794360584 -10.066414025365098 1 0 0 I I #
point $-1 -41.899472029786068 28.892311794360584 -7.0664140253650984 #
straight-curve $-1 -41.899472029786068 -28.892311794360584 0 0 0 -1 I I #
face $-1 $593 $594 $18 $-1 $595 reversed single #
loop $-1 $-1 $596 $475 #
plane-surface $-1 -41.899472029786068 0 0 1 0 0 0 0 -1 forward_v I I I I #
coedge $-1 $544 $597 $598 $599 reversed $476 $-1 #
coedge $-1 $600 $478 $601 $602 reversed $396 $-1 #
coedge $-1 $478 $600 $559 $603 reversed $396 $-1 #
coedge $-1 $604 $541 $478 $545 forward $476 $-1 #
edge $-1 $605 -28.892311794360584 $606 28.892311794360584 $544 $607 forward 7 unknown #
coedge $-1 $608 $609 $479 $547 reversed $594 $-1 #
edge $-1 $563 -41.899472029786068 $550 41.899472029786068 $546 $610 forward 7 unknown #
coedge $-1 $611 $480 $609 $612 forward $549 $-1 #
loop $-1 $-1 $484 $613 #
vertex $-1 $481 $614 #
straight-curve $-1 41.899472029786068 0 10.066414025365098 0 1 0 I I #
point $-1 41.899472029786068 16.633212919520663 10.066414025365098 #
coedge $-1 $484 $611 $488 $558 reversed $549 $-1 #
vertex $-1 $558 $615 #
straight-curve $-1 41.899472029786068 -5.4585825846880995 23.870900218036848 0 -0.84804809178421925 0.52991927123019833 I I #
straight-curve $-1 17.317192110168548 28.892311794360587 2.4060787158116046 1 0 0 I I #
coedge $-1 $616 $488 $617 $618 reversed $319 $-1 #
edge $-1 $554 -2.4060787158116064 $619 10.066414025365098 $553 $620 forward 7 unknown #
coedge $-1 $489 $616 $543 $603 forward $319 $-1 #
coedge $-1 $596 $490 $489 $561 forward $539 $-1 #
edge $-1 $492 -10.066414025365098 $621 7.0664140253650984 $489 $622 forward 7 unknown #
coedge $-1 $490 $596 $608 $623 reversed $539 $-1 #
vertex $-1 $491 $624 #
straight-curve $-1 -41.899472029786068 0 10.066414025365098 0 -1 0 I I #
point $-1 -41.899472029786068 28.892311794360584 10.066414025365098 #
face $-1 $625 $626 $19 $-1 $627 forward single #
loop $-1 $-1 $628 $494 #
plane-surface $-1 -35.610874097176399 0 -7.0664140253650984 0 0 1 1 0 0 forward_v I I I I #
coedge $-1 $497 $629 $630 $631 forward $413 $-1 #
coedge $-1 $498 $508 $573 $632 reversed $342 $-1 #
vertex $-1 $632 $633 #
straight-curve $-1 27.369296410888126 -20.111827974523788 33.027264336258057 0 0.84804809178421925 -0.52991927123019833 I I #
coedge $-1 $634 $500 $570 $632 forward $495 $-1 #
coedge $-1 $500 $635 $502 $577 reversed $495 $-1 #
straight-curve $-1 27.369296410888126 28.892311794360584 52.046399469755372 0 0 -1 I I #
coedge $-1 $629 $502 $636 $637 forward $413 $-1 #
edge $-1 $504 -27.369296410888126 $638 41.899472029786068 $574 $639 forward 7 unknown #
point $-1 27.369296410888126 16.633212919520663 10.066414025365098 #
point $-1 27.369296410888126 28.892311794360584 10.066414025365098 #
point $-1 31.520775159144677 20.135888147341891 2.0323689467011818 #
coedge $-1 $630 $640 $508 $582 forward $641 $-1 #
edge $-1 $642 -40.505832996778992 $583 -26.050168284359383 $581 $643 forward 7 unknown #
vertex $-1 $582 $644 #
straight-curve $-1 17.317192110168548 16.633212919520663 10.066414025365097 -1 0 0 I I #
straight-curve $-1 -41.899472029786068 0 -7.0664140253650984 0 -1 0 I I #
straight-curve $-1 -29.32227616456673 0 -10.066414025365098 0 1 0 I I #
edge $-1 $529 -41.899472029786068 $521 29.32227616456673 $520 $645 forward 7 unknown #
point $-1 -29.32227616456673 -28.892311794360584 -10.066414025365098 #
point $-1 -41.899472029786068 -28.892311794360584 -7.0664140253650984 #
straight-curve $-1 -29.32227616456673 28.892311794360584 -4.2832070126825492 0 0 1 I I #
point $-1 41.899472029786068 -28.892311794360584 -10.066414025365098 #
point $-1 -29.32227616456673 28.892311794360584 -10.066414025365098 #
face $-1 $613 $646 $18 $-1 $647 reversed single #
loop $-1 $-1 $601 $538 #
plane-surface $-1 0 -28.892311794360584 0 0 1 0 0 0 1 forward_v I I I I #
coedge $-1 $562 $560 $600 $648 forward $539 $-1 #
coedge $-1 $541 $604 $649 $650 reversed $476 $-1 #
coedge $-1 $651 $601 $541 $599 forward $594 $-1 #
edge $-1 $605 2.7832070126825492 $652 5.7832070126825492 $598 $653 forward 7 unknown #
coedge $-1 $543 $542 $596 $648 reversed $396 $-1 #
coedge $-1 $598 $608 $542 $602 forward $594 $-1 #
edge $-1 $654 -24.094034981197868 $605 -11.516839115978531 $601 $655 forward 7 unknown #
edge $-1 $606 11.516839115978531 $621 24.094034981197868 $559 $656 forward 7 unknown #
coedge $-1 $597 $544 $616 $657 reversed $476 $-1 #
vertex $-1 $602 $658 #
vertex $-1 $603 $659 #
straight-curve $-1 -29.32227616456673 0 -7.0664140253650984 0 1 0 I I #
coedge $-1 $601 $546 $562 $623 forward $594 $-1 #
coedge $-1 $546 $651 $548 $612 reversed $594 $-1 #
straight-curve $-1 0 -28.892311794360584 10.066414025365098 1 0 0 I I #
coedge $-1 $553 $548 $660 $661 reversed $549 $-1 #
edge $-1 $550 -10.066414025365098 $662 10.066414025365098 $548 $663 forward 7 unknown #
face $-1 $-1 $549 $18 $-1 $664 reversed single #
point $-1 41.899472029786068 -28.892311794360584 10.066414025365098 #
point $-1 41.899472029786068 28.892311794360584 2.4060787158116064 #
coedge $-1 $559 $557 $604 $657 forward $319 $-1 #
coedge $-1 $660 $649 $557 $618 forward $646 $-1 #
edge $-1 $665 -29.32227616456673 $619 41.899472029786068 $557 $666 forward 7 unknown #
vertex $-1 $661 $667 #
straight-curve $-1 41.899472029786068 28.892311794360584 0 0 0 -1 I I #
vertex $-1 $648 $668 #
straight-curve $-1 -41.899472029786068 28.892311794360584 0 0 0 -1 I I #
edge $-1 $563 -10.066414025365098 $654 7.0664140253650984 $562 $669 forward 7 unknown #
point $-1 -41.899472029786068 -28.892311794360584 10.066414025365098 #
face $-1 $670 $671 $19 $-1 $672 reversed single #
loop $-1 $-1 $673 $566 #
plane-surface $-1 -29.32227616456673 0 -8.5664140253650984 -1 0 0 0 0 1 forward_v I I I I #
coedge $-1 $674 $675 $676 $677 reversed $567 $-1 #
coedge $-1 $569 $576 $678 $679 forward $413 $-1 #
coedge $-1 $680 $581 $569 $631 reversed $641 $-1 #
edge $-1 $681 -28.892311794360584 $583 16.633212919520663 $630 $682 forward 7 unknown #
edge $-1 $571 10.052104300719577 $642 24.58227991961752 $573 $683 forward 7 unknown #
point $-1 27.369296410888126 28.892311794360584 2.4060787158116064 #
coedge $-1 $684 $573 $640 $685 forward $495 $-1 #
coedge $-1 $574 $686 $687 $688 reversed $495 $-1 #
coedge $-1 $687 $689 $576 $637 reversed $671 $-1 #
edge $-1 $638 -28.892311794360584 $690 28.892311794360584 $636 $691 forward 7 unknown #
vertex $-1 $577 $692 #
straight-curve $-1 0 28.892311794360584 10.066414025365098 -1 0 0 I I #
coedge $-1 $581 $693 $634 $685 reversed $641 $-1 #
loop $-1 $-1 $581 $694 #
vertex $-1 $685 $695 #
straight-curve $-1 41.899472029786068 -5.4585825846880995 23.870900218036848 0 -0.84804809178421925 0.52991927123019833 I I #
point $-1 41.899472029786068 16.633212919520663 10.066414025365098 #
straight-curve $-1 0 -28.892311794360584 -10.066414025365098 -1 0 0 I I #
loop $-1 $-1 $649 $593 #
plane-surface $-1 0 0 -10.066414025365098 0 0 1 1 0 0 forward_v I I I I #
edge $-1 $621 -28.892311794360584 $654 28.892311794360584 $596 $696 forward 7 unknown #
coedge $-1 $617 $697 $597 $650 forward $646 $-1 #
edge $-1 $652 -28.892311794360584 $665 28.892311794360584 $649 $698 forward 7 unknown #
coedge $-1 $609 $598 $697 $699 reversed $594 $-1 #
vertex $-1 $599 $700 #
straight-curve $-1 -29.32227616456673 -28.892311794360584 -4.2832070126825492 0 0 -1 I I #
vertex $-1 $602 $701 #
straight-curve $-1 -17.8054370485882 -28.892311794360584 -7.0664140253650984 1 0 0 I I #
straight-curve $-1 -17.8054370485882 28.892311794360584 -7.0664140253650984 -1 0 0 I I #
edge $-1 $665 -5.7832070126825492 $606 -2.7832070126825492 $616 $702 forward 7 unknown #
point $-1 -29.32227616456673 -28.892311794360584 -7.0664140253650984 #
point $-1 -29.32227616456673 28.892311794360584 -7.0664140253650984 #
coedge $-1 $697 $617 $611 $661 forward $646 $-1 #
edge $-1 $619 -28.892311794360584 $662 28.892311794360584 $611 $703 forward 7 unknown #
vertex $-1 $612 $704 #
straight-curve $-1 41.899472029786068 -28.892311794360584 0 0 0 -1 I I #
plane-surface $-1 41.899472029786068 0 0 -1 0 0 0 0 1 forward_v I I I I #
vertex $-1 $618 $705 #
straight-curve $-1 0 28.892311794360584 -10.066414025365098 1 0 0 I I #
point $-1 41.899472029786068 28.892311794360584 -10.066414025365098 #
point $-1 -41.899472029786068 28.892311794360584 -7.0664140253650984 #
straight-curve $-1 -41.899472029786068 -28.892311794360584 0 0 0 -1 I I #
face $-1 $706 $707 $19 $-1 $708 reversed single #
loop $-1 $-1 $709 $625 #
plane-surface $-1 -41.899472029786068 0 0 1 0 0 0 0 -1 forward_v I I I I #
coedge $-1 $676 $710 $711 $712 reversed $626 $-1 #
coedge $-1 $713 $628 $714 $715 reversed $567 $-1 #
coedge $-1 $628 $713 $686 $716 reversed $567 $-1 #
coedge $-1 $717 $673 $628 $677 forward $626 $-1 #
edge $-1 $718 -28.892311794360584 $719 28.892311794360584 $676 $720 forward 7 unknown #
coedge $-1 $721 $722 $629 $679 reversed $707 $-1 #
edge $-1 $690 -41.899472029786068 $681 41.899472029786068 $678 $723 forward 7 unknown #
coedge $-1 $693 $630 $722 $724 forward $641 $-1 #
vertex $-1 $631 $725 #
straight-curve $-1 41.899472029786068 0 10.066414025365098 0 1 0 I I #
straight-curve $-1 17.317192110168548 28.892311794360587 2.4060787158116046 1 0 0 I I #
coedge $-1 $726 $634 $727 $728 reversed $495 $-1 #
edge $-1 $642 -2.4060787158116064 $729 10.066414025365098 $640 $730 forward 7 unknown #
coedge $-1 $635 $726 $675 $716 forward $495 $-1 #
coedge $-1 $709 $636 $635 $688 forward $671 $-1 #
edge $-1 $638 -10.066414025365098 $731 7.0664140253650984 $635 $732 forward 7 unknown #
coedge $-1 $636 $709 $721 $733 reversed $671 $-1 #
vertex $-1 $637 $734 #
straight-curve $-1 -41.899472029786068 0 10.066414025365098 0 -1 0 I I #
point $-1 -41.899472029786068 28.892311794360584 10.066414025365098 #
coedge $-1 $640 $680 $735 $736 reversed $641 $-1 #
face $-1 $-1 $641 $19 $-1 $737 reversed single #
point $-1 41.899472029786068 28.892311794360584 2.4060787158116064 #
straight-curve $-1 -41.899472029786068 0 -7.0664140253650984 0 -1 0 I I #
coedge $-1 $649 $660 $651 $699 forward $646 $-1 #
straight-curve $-1 -29.32227616456673 0 -10.066414025365098 0 1 0 I I #
edge $-1 $662 -41.899472029786068 $652 29.32227616456673 $651 $738 forward 7 unknown #
point $-1 -29.32227616456673 -28.892311794360584 -10.066414025365098 #
point $-1 -41.899472029786068 -28.892311794360584 -7.0664140253650984 #
straight-curve $-1 -29.32227616456673 28.892311794360584 -4.2832070126825492 0 0 1 I I #
straight-curve $-1 41.899472029786068 0 -10.066414025365098 0 -1 0 I I #
point $-1 41.899472029786068 -28.892311794360584 -10.066414025365098 #
point $-1 -29.32227616456673 28.892311794360584 -10.066414025365098 #
face $-1 $694 $739 $19 $-1 $740 reversed single #
loop $-1 $-1 $714 $670 #
plane-surface $-1 0 -28.892311794360584 0 0 1 0 0 0 1 forward_v I I I I #
coedge $-1 $689 $687 $713 $741 forward $671 $-1 #
coedge $-1 $673 $717 $742 $743 reversed $626 $-1 #
coedge $-1 $744 $714 $673 $712 forward $707 $-1 #
edge $-1 $718 2.7832070126825492 $745 5.7832070126825492 $711 $746 forward 7 unknown #
coedge $-1 $675 $674 $709 $741 reversed $567 $-1 #
coedge $-1 $711 $721 $674 $715 forward $707 $-1 #
edge $-1 $747 -24.094034981197868 $718 -11.516839115978531 $714 $748 forward 7 unknown #
edge $-1 $719 11.516839115978531 $731 24.094034981197868 $686 $749 forward 7 unknown #
coedge $-1 $710 $676 $726 $750 reversed $626 $-1 #
vertex $-1 $715 $751 #
vertex $-1 $716 $752 #
straight-curve $-1 -29.32227616456673 0 -7.0664140253650984 0 1 0 I I #
coedge $-1 $714 $678 $689 $733 forward $707 $-1 #
coedge $-1 $678 $744 $680 $724 reversed $707 $-1 #
straight-curve $-1 0 -28.892311794360584 10.066414025365098 1 0 0 I I #
edge $-1 $681 -10.066414025365098 $753 10.066414025365098 $680 $754 forward 7 unknown #
point $-1 41.899472029786068 -28.892311794360584 10.066414025365098 #
coedge $-1 $686 $684 $717 $750 forward $495 $-1 #
coedge $-1 $735 $742 $684 $728 forward $739 $-1 #
edge $-1 $755 -29.32227616456673 $729 41.899472029786068 $684 $756 forward 7 unknown #
vertex $-1 $736 $757 #
straight-curve $-1 41.899472029786068 28.892311794360584 0 0 0 -1 I I #
vertex $-1 $741 $758 #
straight-curve $-1 -41.899472029786068 28.892311794360584 0 0 0 -1 I I #
edge $-1 $690 -10.066414025365098 $747 7.0664140253650984 $689 $759 forward 7 unknown #
point $-1 -41.899472029786068 -28.892311794360584 10.066414025365098 #
coedge $-1 $760 $727 $693 $736 forward $739 $-1 #
edge $-1 $729 -28.892311794360584 $753 28.892311794360584 $693 $761 forward 7 unknown #
plane-surface $-1 41.899472029786068 0 0 -1 0 0 0 0 1 forward_v I I I I #
straight-curve $-1 0 -28.892311794360584 -10.066414025365098 -1 0 0 I I #
loop $-1 $-1 $742 $706 #
plane-surface $-1 0 0 -10.066414025365098 0 0 1 1 0 0 forward_v I I I I #
edge $-1 $731 -28.892311794360584 $747 28.892311794360584 $709 $762 forward 7 unknown #
coedge $-1 $727 $760 $710 $743 forward $739 $-1 #
edge $-1 $745 -28.892311794360584 $755 28.892311794360584 $742 $763 forward 7 unknown #
coedge $-1 $722 $711 $760 $764 reversed $707 $-1 #
vertex $-1 $712 $765 #
straight-curve $-1 -29.32227616456673 -28.892311794360584 -4.2832070126825492 0 0 -1 I I #
vertex $-1 $715 $766 #
straight-curve $-1 -17.8054370485882 -28.892311794360584 -7.0664140253650984 1 0 0 I I #
straight-curve $-1 -17.8054370485882 28.892311794360584 -7.0664140253650984 -1 0 0 I I #
edge $-1 $755 -5.7832070126825492 $719 -2.7832070126825492 $726 $767 forward 7 unknown #
point $-1 -29.32227616456673 -28.892311794360584 -7.0664140253650984 #
point $-1 -29.32227616456673 28.892311794360584 -7.0664140253650984 #
vertex $-1 $724 $768 #
straight-curve $-1 41.899472029786068 -28.892311794360584 0 0 0 -1 I I #
vertex $-1 $728 $769 #
straight-curve $-1 0 28.892311794360584 -10.066414025365098 1 0 0 I I #
point $-1 41.899472029786068 28.892311794360584 -10.066414025365098 #
point $-1 -41.899472029786068 28.892311794360584 -7.0664140253650984 #
straight-curve $-1 -41.899472029786068 -28.892311794360584 0 0 0 -1 I I #
coedge $-1 $742 $735 $744 $764 forward $739 $-1 #
straight-curve $-1 41.899472029786068 0 -10.066414025365098 0 -1 0 I I #
straight-curve $-1 -41.899472029786068 0 -7.0664140253650984 0 -1 0 I I #
straight-curve $-1 -29.32227616456673 0 -10.066414025365098 0 1 0 I I #
edge $-1 $753 -41.899472029786068 $745 29.32227616456673 $744 $770 forward 7 unknown #
point $-1 -29.32227616456673 -28.892311794360584 -10.066414025365098 #
point $-1 -41.899472029786068 -28.892311794360584 -7.0664140253650984 #
straight-curve $-1 -29.32227616456673 28.892311794360584 -4.2832070126825492 0 0 1 I I #
point $-1 41.899472029786068 -28.892311794360584 -10.066414025365098 #
point $-1 -29.32227616456673 28.892311794360584 -10.066414025365098 #
straight-curve $-1 0 -28.892311794360584 -10.066414025365098 -1 0 0 I I #
End-of-ACIS-data 