500 0 10 0           
7 Unknown 11 ACIS 5.0 NT 24 Fri Mar 26 02:22:09 1999 
-1 9.9999999999999995e-007 1e-010 
body $-1 $10 $-1 $11 #
body $-1 $12 $-1 $13 #
body $-1 $14 $-1 $15 #
body $-1 $16 $-1 $17 #
body $-1 $18 $-1 $19 #
body $-1 $20 $-1 $21 #
body $-1 $22 $-1 $23 #
body $-1 $24 $-1 $25 #
body $-1 $26 $-1 $27 #
body $-1 $28 $-1 $29 #
lump $-1 $-1 $30 $0 #
transform $-1 1 0 0 0 1 0 0 0 1 72.04809717093417 30.598948022405292 12.445022751701128 1 rotate no_reflect no_shear #
lump $-1 $-1 $31 $1 #
transform $-1 1 0 0 0 1 0 0 0 1 72.04809717093417 30.598948022405292 12.445022751701128 1 rotate no_reflect no_shear #
lump $-1 $-1 $32 $2 #
transform $-1 1 0 0 0 1 0 0 0 1 72.04809717093417 30.598948022405292 12.445022751701128 1 rotate no_reflect no_shear #
lump $-1 $-1 $33 $3 #
transform $-1 1 0 0 0 1 0 0 0 1 72.04809717093417 30.598948022405292 12.445022751701128 1 rotate no_reflect no_shear #
lump $-1 $-1 $34 $4 #
transform $-1 1 0 0 0 1 0 0 0 1 72.04809717093417 30.598948022405292 12.445022751701128 1 rotate no_reflect no_shear #
lump $-1 $-1 $35 $5 #
transform $-1 1 0 0 0 1 0 0 0 1 72.04809717093417 30.598948022405292 12.445022751701128 1 rotate no_reflect no_shear #
lump $-1 $-1 $36 $6 #
transform $-1 1 0 0 0 1 0 0 0 1 72.04809717093417 30.598948022405292 12.445022751701128 1 rotate no_reflect no_shear #
lump $-1 $-1 $37 $7 #
transform $-1 1 0 0 0 1 0 0 0 1 72.04809717093417 30.598948022405292 12.445022751701128 1 rotate no_reflect no_shear #
lump $-1 $-1 $38 $8 #
transform $-1 1 0 0 0 1 0 0 0 1 72.04809717093417 30.598948022405292 12.445022751701128 1 rotate no_reflect no_shear #
lump $-1 $-1 $39 $9 #
transform $-1 1 0 0 0 1 0 0 0 1 72.04809717093417 30.598948022405292 12.445022751701128 1 rotate no_reflect no_shear #
shell $-1 $-1 $-1 $40 $-1 $10 #
shell $-1 $-1 $-1 $41 $-1 $12 #
shell $-1 $-1 $-1 $42 $-1 $14 #
shell $-1 $-1 $-1 $43 $-1 $16 #
shell $-1 $-1 $-1 $44 $-1 $18 #
shell $-1 $-1 $-1 $45 $-1 $20 #
shell $-1 $-1 $-1 $46 $-1 $22 #
shell $-1 $-1 $-1 $47 $-1 $24 #
shell $-1 $-1 $-1 $48 $-1 $26 #
shell $-1 $-1 $-1 $49 $-1 $28 #
face $-1 $50 $51 $30 $-1 $52 forward single #
face $-1 $53 $54 $31 $-1 $55 forward single #
face $-1 $56 $57 $32 $-1 $58 reversed single #
face $-1 $59 $60 $33 $-1 $61 reversed single #
face $-1 $62 $63 $34 $-1 $64 forward single #
face $-1 $65 $66 $35 $-1 $67 forward single #
face $-1 $68 $69 $36 $-1 $70 forward single #
face $-1 $71 $72 $37 $-1 $73 reversed single #
face $-1 $74 $75 $38 $-1 $76 forward single #
face $-1 $77 $78 $39 $-1 $79 forward single #
face $-1 $80 $81 $30 $-1 $82 reversed single #
loop $-1 $-1 $83 $40 #
plane-surface $-1 0 0 12.445022751701128 0 0 1 1 0 0 forward_v I I I I #
face $-1 $84 $85 $31 $-1 $86 reversed single #
loop $-1 $-1 $87 $41 #
plane-surface $-1 -72.04809717093417 0 0 1 0 0 0 0 -1 forward_v I I I I #
face $-1 $88 $89 $32 $-1 $90 reversed single #
loop $-1 $-1 $91 $42 #
plane-surface $-1 66.158472207974114 -11.983079267555068 0 0 1 0 0 0 1 forward_v I I I I #
face $-1 $92 $93 $33 $-1 $94 reversed single #
loop $-1 $-1 $95 $43 #
plane-surface $-1 -28.997792172543001 84.115010082255182 154.20815025557312 1 0 0 0 -0.68199836817093118 -0.7313536940579346 forward_v I I I I #
face $-1 $96 $97 $34 $-1 $98 forward single #
loop $-1 $99 $100 $44 #
cone-surface $-1 -25.486618434665758 26.225011491295135 8.1564087508563894 0 -0.68199836817093118 -0.7313536940579346 1.5 0 0 1 I I 0 1 1.5 forward I I I I #
face $-1 $101 $102 $35 $-1 $103 forward single #
loop $-1 $104 $105 $45 #
cone-surface $-1 -20.219857827849893 26.225011491295135 8.1564087508563894 0 -0.68199836817093118 -0.7313536940579346 1.5 0 0 1 I I 0 1 1.5 forward I I I I #
face $-1 $106 $107 $36 $-1 $108 forward single #
loop $-1 $109 $110 $46 #
cone-surface $-1 -14.953097221034028 26.225011491295135 8.1564087508563894 0 -0.68199836817093118 -0.7313536940579346 1.5 0 0 1 I I 0 1 1.5 forward I I I I #
face $-1 $111 $112 $37 $-1 $113 reversed single #
loop $-1 $-1 $114 $47 #
plane-surface $-1 -4.9561928842669012 -150.06010835744519 88.656294722454632 -1 0 0 0 -0.82903758062907751 0.55919289150049634 forward_v I I I I #
face $-1 $115 $116 $38 $-1 $117 forward single #
loop $-1 $118 $119 $48 #
cone-surface $-1 -21.358893132330735 -28.059529386011302 9.5422641660071932 0 0.82903758062907751 -0.55919289150049634 1 0 0 1 I I 0 1 1 forward I I I I #
face $-1 $120 $121 $39 $-1 $122 forward single #
loop $-1 $123 $124 $49 #
cone-surface $-1 -11.51727298349244 -28.059529386011302 9.5422641660071932 0 0.82903758062907751 -0.55919289150049634 1 0 0 1 I I 0 1 1 forward I I I I #
face $-1 $125 $126 $30 $-1 $127 reversed single #
loop $-1 $-1 $128 $50 #
plane-surface $-1 0 0 -12.445022751701128 0 0 1 1 0 0 forward_v I I I I #
coedge $-1 $129 $130 $131 $132 forward $51 $-1 #
face $-1 $133 $134 $31 $-1 $135 forward single #
loop $-1 $-1 $136 $53 #
plane-surface $-1 0 30.598948022405292 0 0 -1 0 0 0 -1 forward_v I I I I #
coedge $-1 $137 $138 $139 $140 forward $54 $-1 #
face $-1 $141 $142 $32 $-1 $143 reversed single #
loop $-1 $-1 $144 $56 #
plane-surface $-1 60.268847245014058 -9.3184915384645315 0 1 0 0 0 0 -1 forward_v I I I I #
coedge $-1 $145 $146 $147 $148 forward $57 $-1 #
face $-1 $149 $150 $33 $-1 $151 reversed single #
loop $-1 $-1 $152 $59 #
plane-surface $-1 -20.2198578278499 -14.158359318540391 48.822866223957647 0 0.68199836817093118 0.7313536940579346 1 0 0 forward_v I I I I #
coedge $-1 $153 $154 $155 $156 reversed $60 $-1 #
face $-1 $-1 $157 $34 $-1 $158 forward single #
loop $-1 $159 $160 $62 #
cone-surface $-1 -25.486618434665758 24.212999749178383 5.9987903623674868 0 -0.68199836817093118 -0.7313536940579346 0.75 0 0 1 I I -0.70710678118654757 0.70710678118654757 0.75 forward I I I I #
loop $-1 $-1 $161 $44 #
coedge $-1 $100 $100 $162 $163 reversed $63 $-1 #
face $-1 $-1 $164 $35 $-1 $165 forward single #
loop $-1 $166 $167 $65 #
cone-surface $-1 -20.219857827849893 24.212999749178383 5.9987903623674868 0 -0.68199836817093118 -0.7313536940579346 0.75 0 0 1 I I -0.70710678118654757 0.70710678118654757 0.75 forward I I I I #
loop $-1 $-1 $168 $45 #
coedge $-1 $105 $105 $169 $170 reversed $66 $-1 #
face $-1 $-1 $171 $36 $-1 $172 forward single #
loop $-1 $173 $174 $68 #
cone-surface $-1 -14.953097221034028 24.212999749178383 5.9987903623674868 0 -0.68199836817093118 -0.7313536940579346 0.75 0 0 1 I I -0.70710678118654757 0.70710678118654757 0.75 forward I I I I #
loop $-1 $-1 $175 $46 #
coedge $-1 $110 $110 $176 $177 reversed $69 $-1 #
face $-1 $178 $179 $37 $-1 $180 reversed single #
loop $-1 $-1 $181 $71 #
plane-surface $-1 -16.438083057911584 -30.598948022405295 8.0787271542078116 0 -0.82903758062907751 0.55919289150049634 1 0 0 forward_v I I I I #
coedge $-1 $182 $183 $184 $185 reversed $72 $-1 #
face $-1 $-1 $186 $38 $-1 $187 forward single #
loop $-1 $188 $189 $74 #
cone-surface $-1 -21.358893132330735 -26.578143697220057 8.5430569333096678 0 0.82903758062907751 -0.55919289150049634 0.5 0 0 1 I I -0.70710678118654746 0.70710678118654746 0.5 forward I I I I #
loop $-1 $-1 $190 $48 #
coedge $-1 $119 $119 $191 $192 reversed $75 $-1 #
face $-1 $-1 $193 $39 $-1 $194 forward single #
loop $-1 $195 $196 $77 #
cone-surface $-1 -11.51727298349244 -26.578143697220057 8.5430569333096678 0 0.82903758062907751 -0.55919289150049634 0.5 0 0 1 I I -0.70710678118654746 0.70710678118654746 0.5 forward I I I I #
loop $-1 $-1 $197 $49 #
coedge $-1 $124 $124 $198 $199 reversed $78 $-1 #
face $-1 $200 $201 $30 $-1 $202 reversed single #
loop $-1 $-1 $203 $80 #
plane-surface $-1 0 -30.598948022405292 0 0 1 0 0 0 1 forward_v I I I I #
coedge $-1 $204 $205 $206 $207 forward $81 $-1 #
coedge $-1 $208 $83 $209 $210 forward $51 $-1 #
coedge $-1 $83 $208 $211 $212 forward $51 $-1 #
coedge $-1 $213 $214 $83 $132 reversed $215 $-1 #
edge $-1 $216 -30.598948022405292 $217 30.598948022405292 $131 $218 forward 7 unknown #
face $-1 $219 $220 $31 $-1 $221 reversed single #
loop $-1 $-1 $139 $84 #
plane-surface $-1 -77.999637707763739 0 6.194037361412966 0 0 1 1 0 0 forward_v I I I I #
coedge $-1 $222 $223 $138 $224 forward $85 $-1 #
coedge $-1 $225 $87 $226 $227 reversed $54 $-1 #
coedge $-1 $87 $225 $136 $224 reversed $54 $-1 #
coedge $-1 $228 $229 $87 $140 reversed $134 $-1 #
edge $-1 $230 -30.598948022405292 $231 30.598948022405292 $139 $232 forward 7 unknown #
face $-1 $233 $234 $32 $-1 $235 forward single #
loop $-1 $-1 $236 $88 #
plane-surface $-1 66.158472207974114 -6.6539038093739951 0 0 -1 0 0 0 -1 forward_v I I I I #
coedge $-1 $237 $238 $239 $240 forward $89 $-1 #
coedge $-1 $241 $91 $242 $243 reversed $57 $-1 #
coedge $-1 $91 $241 $244 $245 reversed $57 $-1 #
coedge $-1 $238 $237 $91 $148 reversed $89 $-1 #
edge $-1 $246 -12.445022751701128 $247 12.445022751701128 $147 $248 forward 7 unknown #
face $-1 $249 $250 $33 $-1 $251 forward single #
loop $-1 $-1 $252 $92 #
plane-surface $-1 -11.441923483156799 84.115010082255182 154.20815025557312 -1 0 0 0 0.68199836817093118 0.7313536940579346 forward_v I I I I #
coedge $-1 $253 $254 $255 $256 reversed $93 $-1 #
coedge $-1 $154 $95 $257 $258 reversed $60 $-1 #
coedge $-1 $95 $153 $253 $259 reversed $60 $-1 #
coedge $-1 $255 $260 $95 $156 forward $250 $-1 #
edge $-1 $261 11.458557018722299 $262 17.205404148965513 $155 $263 forward 7 unknown #
loop $-1 $-1 $162 $96 #
plane-surface $-1 -20.2198578278499 -14.158359318540391 48.822866223957647 0 0.68199836817093118 0.7313536940579346 1 0 0 forward_v I I I I #
loop $-1 $-1 $264 $62 #
coedge $-1 $160 $160 $161 $265 reversed $97 $-1 #
coedge $-1 $161 $161 $160 $265 forward $99 $-1 #
coedge $-1 $162 $162 $100 $163 forward $157 $-1 #
edge $-1 $266 -8.0764831050682916e-016 $266 6.2831853071795996 $162 $267 forward 7 unknown #
loop $-1 $-1 $169 $101 #
plane-surface $-1 -20.2198578278499 -14.158359318540391 48.822866223957647 0 0.68199836817093118 0.7313536940579346 1 0 0 forward_v I I I I #
loop $-1 $-1 $268 $65 #
coedge $-1 $167 $167 $168 $269 reversed $102 $-1 #
coedge $-1 $168 $168 $167 $269 forward $104 $-1 #
coedge $-1 $169 $169 $105 $170 forward $164 $-1 #
edge $-1 $270 -8.0764831050682916e-016 $270 6.2831853071795996 $169 $271 forward 7 unknown #
loop $-1 $-1 $176 $106 #
plane-surface $-1 -20.2198578278499 -14.158359318540391 48.822866223957647 0 0.68199836817093118 0.7313536940579346 1 0 0 forward_v I I I I #
loop $-1 $-1 $272 $68 #
coedge $-1 $174 $174 $175 $273 reversed $107 $-1 #
coedge $-1 $175 $175 $174 $273 forward $109 $-1 #
coedge $-1 $176 $176 $110 $177 forward $171 $-1 #
edge $-1 $274 -8.0764831050682916e-016 $274 6.2831853071795996 $176 $275 forward 7 unknown #
face $-1 $276 $277 $37 $-1 $278 reversed single #
loop $-1 $-1 $279 $111 #
plane-surface $-1 -27.919973231556266 -150.06010835744519 88.656294722454632 1 0 0 0 0.82903758062907751 -0.55919289150049634 forward_v I I I I #
coedge $-1 $280 $281 $282 $283 reversed $112 $-1 #
coedge $-1 $183 $114 $284 $285 reversed $72 $-1 #
coedge $-1 $114 $182 $280 $286 reversed $72 $-1 #
coedge $-1 $282 $287 $114 $185 forward $288 $-1 #
edge $-1 $289 44.431106156317298 $290 47.376209632151863 $184 $291 forward 7 unknown #
loop $-1 $-1 $191 $115 #
plane-surface $-1 -16.438083057911584 -30.598948022405295 8.0787271542078116 0 -0.82903758062907751 0.55919289150049634 1 0 0 forward_v I I I I #
loop $-1 $-1 $292 $74 #
coedge $-1 $189 $189 $190 $293 reversed $116 $-1 #
coedge $-1 $190 $190 $189 $293 forward $118 $-1 #
coedge $-1 $191 $191 $119 $192 forward $186 $-1 #
edge $-1 $294 5.1398565825151937e-016 $294 6.2831853071796013 $191 $295 forward 7 unknown #
loop $-1 $-1 $198 $120 #
plane-surface $-1 -16.438083057911584 -30.598948022405295 8.0787271542078116 0 -0.82903758062907751 0.55919289150049634 1 0 0 forward_v I I I I #
loop $-1 $-1 $296 $77 #
coedge $-1 $196 $196 $197 $297 reversed $121 $-1 #
coedge $-1 $197 $197 $196 $297 forward $123 $-1 #
coedge $-1 $198 $198 $124 $199 forward $193 $-1 #
edge $-1 $298 5.1398565825151937e-016 $298 6.2831853071796013 $198 $299 forward 7 unknown #
face $-1 $300 $301 $30 $-1 $302 reversed single #
loop $-1 $-1 $303 $125 #
plane-surface $-1 -72.04809717093417 0 0 1 0 0 0 0 -1 forward_v I I I I #
coedge $-1 $304 $211 $305 $306 forward $126 $-1 #
coedge $-1 $307 $128 $304 $308 forward $81 $-1 #
coedge $-1 $128 $307 $309 $310 forward $81 $-1 #
coedge $-1 $214 $213 $128 $207 reversed $215 $-1 #
edge $-1 $311 -30.598948022405292 $312 30.598948022405292 $206 $313 forward 7 unknown #
coedge $-1 $130 $129 $314 $315 forward $51 $-1 #
coedge $-1 $316 $317 $129 $210 reversed $301 $-1 #
edge $-1 $217 -72.04809717093417 $318 72.04809717093417 $209 $319 forward 7 unknown #
coedge $-1 $203 $320 $130 $212 reversed $126 $-1 #
edge $-1 $321 -72.04809717093417 $216 72.04809717093417 $211 $322 forward 7 unknown #
coedge $-1 $206 $131 $320 $323 forward $215 $-1 #
coedge $-1 $131 $206 $316 $324 reversed $215 $-1 #
loop $-1 $-1 $213 $300 #
vertex $-1 $132 $325 #
vertex $-1 $132 $326 #
straight-curve $-1 72.04809717093417 0 12.445022751701128 0 1 0 I I #
face $-1 $327 $328 $31 $-1 $329 reversed single #
loop $-1 $-1 $330 $133 #
plane-surface $-1 -77.999637707763739 0 0.66007183188824659 0 0 1 1 0 0 forward_v I I I I #
coedge $-1 $331 $136 $332 $333 reversed $85 $-1 #
coedge $-1 $136 $331 $228 $334 reversed $85 $-1 #
edge $-1 $230 -6.194037361412966 $335 -0.66007183188824659 $136 $336 forward 7 unknown #
coedge $-1 $138 $137 $330 $337 forward $54 $-1 #
coedge $-1 $338 $339 $137 $227 forward $340 $-1 #
edge $-1 $341 0.66007183188824659 $231 6.194037361412966 $226 $342 forward 7 unknown #
coedge $-1 $343 $139 $223 $334 forward $134 $-1 #
coedge $-1 $139 $343 $338 $344 forward $134 $-1 #
vertex $-1 $224 $345 #
vertex $-1 $344 $346 #
straight-curve $-1 -72.04809717093417 0 6.194037361412966 0 -1 0 I I #
face $-1 $347 $348 $32 $-1 $349 reversed single #
loop $-1 $-1 $350 $141 #
plane-surface $-1 0 0 12.445022751701128 0 0 1 1 0 0 forward_v I I I I #
coedge $-1 $351 $352 $353 $354 reversed $142 $-1 #
coedge $-1 $147 $144 $355 $356 reversed $89 $-1 #
coedge $-1 $144 $147 $357 $358 reversed $89 $-1 #
coedge $-1 $352 $351 $144 $240 reversed $142 $-1 #
edge $-1 $359 -12.445022751701128 $360 12.445022751701128 $239 $361 forward 7 unknown #
coedge $-1 $146 $145 $362 $363 reversed $57 $-1 #
coedge $-1 $355 $364 $145 $243 forward $348 $-1 #
edge $-1 $365 -38.968861066947113 $247 -27.189611141027001 $242 $366 forward 7 unknown #
coedge $-1 $367 $357 $146 $245 forward $234 $-1 #
edge $-1 $246 27.189611141027001 $368 38.968861066947113 $244 $369 forward 7 unknown #
vertex $-1 $245 $370 #
vertex $-1 $243 $371 #
straight-curve $-1 60.268847245014058 -11.983079267555068 0 0 0 -1 I I #
face $-1 $-1 $372 $33 $-1 $373 reversed single #
loop $-1 $-1 $155 $149 #
plane-surface $-1 0 0 12.445022751701128 0 0 1 1 0 0 forward_v I I I I #
coedge $-1 $374 $375 $376 $377 reversed $150 $-1 #
coedge $-1 $378 $152 $154 $259 forward $93 $-1 #
coedge $-1 $152 $378 $374 $379 forward $93 $-1 #
coedge $-1 $376 $155 $152 $256 forward $250 $-1 #
edge $-1 $262 -18.887863258618051 $380 -1.3319945692318491 $255 $381 forward 7 unknown #
coedge $-1 $382 $383 $153 $258 forward $372 $-1 #
edge $-1 $384 -70.018074141884014 $261 -64.659052376085427 $257 $385 forward 7 unknown #
edge $-1 $262 53.340074067653831 $384 61.197896044810584 $154 $386 forward 7 unknown #
coedge $-1 $155 $376 $382 $387 forward $250 $-1 #
vertex $-1 $258 $388 #
vertex $-1 $156 $389 #
straight-curve $-1 -28.997792172543001 42.057505041127591 12.445022751701131 0 -1 0 I I #
coedge $-1 $264 $264 $-1 $390 reversed $159 $-1 #
edge $-1 $391 0 $391 6.2831853071796004 $160 $392 forward 7 unknown #
vertex $-1 $163 $393 #
ellipse-curve $-1 -25.486618434665758 27.725524457283687 9.7655118688018412 0 0.68199836817093118 0.7313536940579346 1.5 0 0 1 I I #
coedge $-1 $268 $268 $-1 $394 reversed $166 $-1 #
edge $-1 $395 0 $395 6.2831853071796004 $167 $396 forward 7 unknown #
vertex $-1 $170 $397 #
ellipse-curve $-1 -20.219857827849893 27.725524457283687 9.7655118688018412 0 0.68199836817093118 0.7313536940579346 1.5 0 0 1 I I #
coedge $-1 $272 $272 $-1 $398 reversed $173 $-1 #
edge $-1 $399 0 $399 6.2831853071796004 $174 $400 forward 7 unknown #
vertex $-1 $177 $401 #
ellipse-curve $-1 -14.953097221034028 27.725524457283687 9.7655118688018412 0 0.68199836817093118 0.7313536940579346 1.5 0 0 1 I I #
face $-1 $-1 $288 $37 $-1 $402 forward single #
loop $-1 $-1 $403 $178 #
plane-surface $-1 0 -30.598948022405292 0 0 1 0 0 0 1 forward_v I I I I #
coedge $-1 $404 $405 $406 $407 reversed $179 $-1 #
coedge $-1 $408 $181 $183 $286 forward $112 $-1 #
coedge $-1 $181 $408 $404 $409 forward $112 $-1 #
coedge $-1 $406 $184 $181 $283 forward $288 $-1 #
edge $-1 $290 -3.2628486446888907 $410 19.700931702600474 $282 $411 forward 7 unknown #
coedge $-1 $412 $413 $182 $285 forward $277 $-1 #
edge $-1 $414 -36.249420207019497 $289 -31.883124609526188 $284 $415 forward 7 unknown #
edge $-1 $290 -5.2667040668773435 $414 -6.404651964132713e-015 $183 $416 forward 7 unknown #
coedge $-1 $184 $406 $412 $417 forward $288 $-1 #
loop $-1 $-1 $406 $276 #
vertex $-1 $285 $418 #
vertex $-1 $185 $419 #
straight-curve $-1 -4.9561928842669012 -75.030054178722594 12.445022751701131 0 1 0 I I #
coedge $-1 $292 $292 $-1 $420 reversed $188 $-1 #
edge $-1 $421 0 $421 6.2831853071796004 $189 $422 forward 7 unknown #
vertex $-1 $192 $423 #
ellipse-curve $-1 -21.358893132330735 -29.126396284488013 10.261874952954471 0 -0.82903758062907751 0.55919289150049634 1 0 0 1 I I #
coedge $-1 $296 $296 $-1 $424 reversed $195 $-1 #
edge $-1 $425 0 $425 6.2831853071796004 $196 $426 forward 7 unknown #
vertex $-1 $199 $427 #
ellipse-curve $-1 -11.51727298349244 -29.126396284488013 10.261874952954471 0 -0.82903758062907751 0.55919289150049634 1 0 0 1 I I #
face $-1 $-1 $215 $30 $-1 $428 reversed single #
loop $-1 $-1 $316 $200 #
plane-surface $-1 0 30.598948022405292 0 0 -1 0 0 0 -1 forward_v I I I I #
coedge $-1 $429 $314 $317 $430 forward $201 $-1 #
coedge $-1 $320 $203 $204 $308 reversed $126 $-1 #
coedge $-1 $314 $429 $203 $306 reversed $201 $-1 #
edge $-1 $321 -12.445022751701128 $431 12.445022751701128 $305 $432 forward 7 unknown #
coedge $-1 $205 $204 $429 $433 forward $81 $-1 #
edge $-1 $312 -72.04809717093417 $431 72.04809717093417 $304 $434 forward 7 unknown #
coedge $-1 $317 $316 $205 $310 reversed $301 $-1 #
edge $-1 $435 -72.04809717093417 $311 72.04809717093417 $309 $436 forward 7 unknown #
vertex $-1 $207 $437 #
vertex $-1 $323 $438 #
straight-curve $-1 72.04809717093417 0 -12.445022751701128 0 -1 0 I I #
coedge $-1 $303 $305 $208 $315 reversed $201 $-1 #
edge $-1 $318 -30.598948022405292 $321 30.598948022405292 $314 $439 forward 7 unknown #
coedge $-1 $309 $209 $214 $324 forward $301 $-1 #
coedge $-1 $209 $309 $303 $430 reversed $301 $-1 #
vertex $-1 $210 $440 #
straight-curve $-1 0 30.598948022405292 12.445022751701128 -1 0 0 I I #
coedge $-1 $211 $304 $213 $323 reversed $126 $-1 #
vertex $-1 $315 $441 #
straight-curve $-1 0 -30.598948022405292 12.445022751701128 1 0 0 I I #
edge $-1 $216 -12.445022751701128 $312 12.445022751701128 $213 $442 forward 7 unknown #
edge $-1 $217 -12.445022751701128 $311 12.445022751701128 $214 $443 forward 7 unknown #
point $-1 72.04809717093417 -30.598948022405292 12.445022751701128 #
point $-1 72.04809717093417 30.598948022405292 12.445022751701128 #
face $-1 $-1 $340 $31 $-1 $444 reversed single #
loop $-1 $-1 $445 $219 #
plane-surface $-1 -83.951178244593308 0 3.4270545966506063 1 0 0 0 0 -1 forward_v I I I I #
coedge $-1 $446 $332 $225 $337 reversed $220 $-1 #
coedge $-1 $223 $222 $445 $447 reversed $85 $-1 #
coedge $-1 $330 $448 $222 $333 forward $220 $-1 #
edge $-1 $449 -5.9515405368295689 $335 5.9515405368295689 $222 $450 forward 7 unknown #
edge $-1 $230 -5.9515405368295689 $451 5.9515405368295689 $223 $452 forward 7 unknown #
vertex $-1 $224 $453 #
straight-curve $-1 -72.04809717093417 30.598948022405292 0 0 0 -1 I I #
edge $-1 $341 -30.598948022405292 $335 30.598948022405292 $330 $454 forward 7 unknown #
coedge $-1 $455 $226 $229 $344 reversed $340 $-1 #
coedge $-1 $226 $455 $446 $456 reversed $340 $-1 #
loop $-1 $-1 $226 $327 #
vertex $-1 $227 $457 #
straight-curve $-1 -72.04809717093417 -30.598948022405292 0 0 0 1 I I #
coedge $-1 $229 $228 $458 $459 forward $134 $-1 #
edge $-1 $460 -5.9515405368295689 $231 5.9515405368295689 $338 $461 forward 7 unknown #
point $-1 -72.04809717093417 30.598948022405292 6.194037361412966 #
point $-1 -72.04809717093417 -30.598948022405292 6.194037361412966 #
face $-1 $-1 $462 $32 $-1 $463 reversed single #
loop $-1 $-1 $464 $233 #
plane-surface $-1 0 0 -12.445022751701128 0 0 1 1 0 0 forward_v I I I I #
coedge $-1 $357 $367 $352 $465 forward $234 $-1 #
coedge $-1 $239 $236 $464 $466 reversed $142 $-1 #
coedge $-1 $236 $239 $350 $465 reversed $142 $-1 #
coedge $-1 $467 $468 $236 $354 forward $462 $-1 #
edge $-1 $469 -12.445022751701128 $470 12.445022751701128 $353 $471 forward 7 unknown #
coedge $-1 $464 $242 $237 $356 forward $348 $-1 #
edge $-1 $247 -7.3238334983228022 $360 -1.9946580401417293 $355 $472 forward 7 unknown #
coedge $-1 $244 $350 $238 $358 forward $234 $-1 #
edge $-1 $359 1.9946580401417293 $246 7.3238334983228022 $357 $473 forward 7 unknown #
vertex $-1 $358 $474 #
vertex $-1 $356 $475 #
straight-curve $-1 60.268847245014058 -6.6539038093739951 0 0 0 -1 I I #
coedge $-1 $468 $467 $241 $363 forward $462 $-1 #
edge $-1 $368 -12.445022751701128 $365 12.445022751701128 $362 $476 forward 7 unknown #
coedge $-1 $242 $464 $468 $477 forward $348 $-1 #
vertex $-1 $363 $478 #
straight-curve $-1 33.079236103987057 -11.983079267555068 -12.445022751701128 -1 0 0 I I #
coedge $-1 $350 $244 $467 $479 forward $234 $-1 #
vertex $-1 $479 $480 #
straight-curve $-1 33.079236103987057 -11.983079267555068 12.445022751701128 1 0 0 I I #
point $-1 60.268847245014058 -11.983079267555068 12.445022751701128 #
point $-1 60.268847245014058 -11.983079267555068 -12.445022751701128 #
loop $-1 $-1 $257 $249 #
plane-surface $-1 0 30.598948022405292 0 0 -1 0 0 0 -1 forward_v I I I I #
coedge $-1 $375 $252 $254 $379 reversed $150 $-1 #
coedge $-1 $252 $374 $481 $482 reversed $150 $-1 #
coedge $-1 $260 $255 $252 $377 forward $250 $-1 #
edge $-1 $380 -17.205404148965513 $483 -11.458557018722299 $376 $484 forward 7 unknown #
coedge $-1 $254 $253 $383 $485 reversed $93 $-1 #
edge $-1 $486 -61.197896044810584 $380 -53.340074067653831 $374 $487 forward 7 unknown #
vertex $-1 $256 $488 #
straight-curve $-1 -10.10992891392495 24.852100892162085 12.445022751701124 1 0 0 I I #
coedge $-1 $481 $257 $260 $387 reversed $372 $-1 #
coedge $-1 $257 $481 $378 $485 forward $372 $-1 #
vertex $-1 $258 $489 #
straight-curve $-1 -28.997792172543001 30.598948022405292 77.104075127786558 0 0 1 I I #
straight-curve $-1 -28.997792172543001 -14.158359318540391 48.822866223957647 0 0.7313536940579346 -0.68199836817093118 I I #
edge $-1 $483 11.441923483156799 $261 28.997792172543001 $382 $490 forward 7 unknown #
point $-1 -28.997792172543001 30.598948022405292 12.445022751701128 #
point $-1 -28.997792172543001 24.852100892162078 12.445022751701131 #
edge $-1 $491 1 $491 0 $264 $-1 forward 7 unknown #
vertex $-1 $265 $492 #
ellipse-curve $-1 -25.486618434665758 24.724498525306583 6.5473056329109376 0 0.68199836817093118 0.7313536940579346 1.5 0 0 1 I I #
point $-1 -23.986618434665758 27.725524457283687 9.765511868801843 #
edge $-1 $493 1 $493 0 $268 $-1 forward 7 unknown #
vertex $-1 $269 $494 #
ellipse-curve $-1 -20.219857827849893 24.724498525306583 6.5473056329109376 0 0.68199836817093118 0.7313536940579346 1.5 0 0 1 I I #
point $-1 -18.719857827849893 27.725524457283687 9.765511868801843 #
edge $-1 $495 1 $495 0 $272 $-1 forward 7 unknown #
vertex $-1 $273 $496 #
ellipse-curve $-1 -14.953097221034028 24.724498525306583 6.5473056329109376 0 0.68199836817093118 0.7313536940579346 1.5 0 0 1 I I #
point $-1 -13.453097221034028 27.725524457283687 9.765511868801843 #
plane-surface $-1 0 0 12.445022751701128 0 0 1 1 0 0 forward_v I I I I #
coedge $-1 $413 $412 $405 $497 forward $277 $-1 #
coedge $-1 $405 $279 $281 $409 reversed $179 $-1 #
coedge $-1 $279 $404 $403 $497 reversed $179 $-1 #
coedge $-1 $287 $282 $279 $407 forward $288 $-1 #
edge $-1 $410 -47.376209632151863 $498 -44.431106156317298 $406 $499 forward 7 unknown #
coedge $-1 $281 $280 $413 $500 reversed $112 $-1 #
edge $-1 $501 6.404651964132713e-015 $410 5.2667040668773435 $404 $502 forward 7 unknown #
vertex $-1 $283 $503 #
straight-curve $-1 -8.2190415289557919 -27.653844546570735 12.445022751701128 -1 0 0 I I #
coedge $-1 $403 $284 $287 $417 reversed $277 $-1 #
coedge $-1 $284 $403 $408 $500 forward $277 $-1 #
vertex $-1 $285 $504 #
straight-curve $-1 -4.9561928842669012 -30.598948022405295 44.328147361227316 0 0 1 I I #
straight-curve $-1 -4.9561928842669012 -30.598948022405295 8.0787271542078116 0 -0.55919289150049634 -0.82903758062907751 I I #
edge $-1 $498 -27.919973231556266 $289 -4.9561928842669012 $412 $505 forward 7 unknown #
point $-1 -4.9561928842669012 -30.598948022405292 12.445022751701128 #
point $-1 -4.9561928842669012 -27.653844546570731 12.445022751701128 #
edge $-1 $506 1 $506 0 $292 $-1 forward 7 unknown #
vertex $-1 $293 $507 #
ellipse-curve $-1 -21.358893132330735 -26.992662487534595 8.8226533790599166 0 -0.82903758062907751 0.55919289150049634 1 0 0 1 I I #
point $-1 -20.358893132330735 -29.12639628448801 10.26187495295447 #
edge $-1 $508 1 $508 0 $296 $-1 forward 7 unknown #
vertex $-1 $297 $509 #
ellipse-curve $-1 -11.51727298349244 -26.992662487534595 8.8226533790599166 0 -0.82903758062907751 0.55919289150049634 1 0 0 1 I I #
point $-1 -10.51727298349244 -29.12639628448801 10.26187495295447 #
plane-surface $-1 72.04809717093417 0 0 -1 0 0 0 0 1 forward_v I I I I #
coedge $-1 $305 $303 $307 $433 reversed $201 $-1 #
edge $-1 $318 -12.445022751701128 $435 12.445022751701128 $317 $510 forward 7 unknown #
vertex $-1 $433 $511 #
straight-curve $-1 -72.04809717093417 -30.598948022405292 0 0 0 -1 I I #
edge $-1 $431 -30.598948022405292 $435 30.598948022405292 $429 $512 forward 7 unknown #
straight-curve $-1 0 -30.598948022405292 -12.445022751701128 -1 0 0 I I #
vertex $-1 $310 $513 #
straight-curve $-1 0 30.598948022405292 -12.445022751701128 1 0 0 I I #
point $-1 72.04809717093417 30.598948022405292 -12.445022751701128 #
point $-1 72.04809717093417 -30.598948022405292 -12.445022751701128 #
straight-curve $-1 -72.04809717093417 0 12.445022751701128 0 -1 0 I I #
point $-1 -72.04809717093417 30.598948022405292 12.445022751701128 #
point $-1 -72.04809717093417 -30.598948022405292 12.445022751701128 #
straight-curve $-1 72.04809717093417 -30.598948022405292 0 0 0 -1 I I #
straight-curve $-1 72.04809717093417 30.598948022405292 0 0 0 -1 I I #
plane-surface $-1 0 -30.598948022405292 0 0 1 0 0 0 1 forward_v I I I I #
coedge $-1 $514 $458 $331 $447 forward $328 $-1 #
coedge $-1 $448 $330 $339 $456 forward $220 $-1 #
edge $-1 $451 -2.7669827647623597 $449 2.7669827647623597 $331 $515 forward 7 unknown #
coedge $-1 $332 $446 $514 $516 forward $220 $-1 #
vertex $-1 $333 $517 #
straight-curve $-1 -77.999637707763739 30.598948022405292 0.66007183188824659 1 0 0 I I #
vertex $-1 $334 $518 #
straight-curve $-1 -77.999637707763739 30.598948022405292 6.194037361412966 -1 0 0 I I #
point $-1 -72.04809717093417 30.598948022405292 0.66007183188824659 #
straight-curve $-1 -72.04809717093417 0 0.66007183188824659 0 1 0 I I #
coedge $-1 $339 $338 $519 $520 forward $340 $-1 #
edge $-1 $341 -5.9515405368295689 $521 5.9515405368295689 $339 $522 forward 7 unknown #
point $-1 -72.04809717093417 -30.598948022405292 0.66007183188824659 #
coedge $-1 $445 $519 $343 $459 reversed $328 $-1 #
edge $-1 $451 -30.598948022405292 $460 30.598948022405292 $458 $523 forward 7 unknown #
vertex $-1 $459 $524 #
straight-curve $-1 -77.999637707763739 -30.598948022405292 6.194037361412966 1 0 0 I I #
loop $-1 $-1 $353 $347 #
plane-surface $-1 72.04809717093417 0 0 -1 0 0 0 0 1 forward_v I I I I #
coedge $-1 $364 $355 $351 $466 forward $348 $-1 #
edge $-1 $470 -38.968861066947113 $359 -27.189611141027001 $350 $525 forward 7 unknown #
edge $-1 $360 27.189611141027001 $469 38.968861066947113 $464 $526 forward 7 unknown #
coedge $-1 $362 $353 $367 $479 reversed $462 $-1 #
coedge $-1 $353 $362 $364 $477 reversed $462 $-1 #
vertex $-1 $477 $527 #
vertex $-1 $354 $528 #
straight-curve $-1 72.04809717093417 -6.6539038093739951 0 0 0 1 I I #
straight-curve $-1 60.268847245014058 -4.6592457692322657 -12.445022751701128 0 1 0 I I #
straight-curve $-1 60.268847245014058 -4.6592457692322657 12.445022751701128 0 -1 0 I I #
point $-1 60.268847245014058 -6.6539038093739951 12.445022751701128 #
point $-1 60.268847245014058 -6.6539038093739951 -12.445022751701128 #
straight-curve $-1 72.04809717093417 -11.983079267555068 0 0 0 -1 I I #
edge $-1 $469 6.6539038093739951 $365 11.983079267555068 $468 $529 forward 7 unknown #
point $-1 72.04809717093417 -11.983079267555068 -12.445022751701128 #
edge $-1 $368 -11.983079267555068 $470 -6.6539038093739951 $467 $530 forward 7 unknown #
point $-1 72.04809717093417 -11.983079267555068 12.445022751701128 #
coedge $-1 $383 $382 $375 $482 forward $372 $-1 #
edge $-1 $483 64.659052376085427 $486 70.018074141884014 $481 $531 forward 7 unknown #
vertex $-1 $387 $532 #
straight-curve $-1 -11.441923483156799 42.057505041127591 12.445022751701131 0 1 0 I I #
edge $-1 $486 1.3319945692318491 $384 18.887863258618051 $383 $533 forward 7 unknown #
vertex $-1 $485 $534 #
straight-curve $-1 -11.441923483156799 -14.158359318540391 48.822866223957647 0 -0.7313536940579346 0.68199836817093118 I I #
point $-1 -11.441923483156799 24.852100892162078 12.445022751701131 #
point $-1 -28.997792172543001 30.598948022405295 7.0860009859025439 #
straight-curve $-1 0 30.598948022405292 12.445022751701128 -1 0 0 I I #
vertex $-1 $390 $535 #
point $-1 -23.986618434665758 24.724498525306583 6.5473056329109376 #
vertex $-1 $394 $536 #
point $-1 -18.719857827849893 24.724498525306583 6.5473056329109376 #
vertex $-1 $398 $537 #
point $-1 -13.453097221034028 24.724498525306583 6.5473056329109376 #
edge $-1 $498 31.883124609526188 $501 36.249420207019497 $403 $538 forward 7 unknown #
vertex $-1 $417 $539 #
straight-curve $-1 -27.919973231556266 -75.030054178722594 12.445022751701131 0 -1 0 I I #
edge $-1 $501 -19.700931702600474 $414 3.2628486446888907 $413 $540 forward 7 unknown #
vertex $-1 $500 $541 #
straight-curve $-1 -27.919973231556266 -30.598948022405295 8.0787271542078116 0 0.55919289150049634 0.82903758062907751 I I #
point $-1 -27.919973231556266 -27.653844546570731 12.445022751701128 #
point $-1 -4.9561928842669012 -30.598948022405292 8.078727154207817 #
straight-curve $-1 0 -30.598948022405292 12.445022751701128 1 0 0 I I #
vertex $-1 $420 $542 #
point $-1 -20.358893132330735 -26.992662487534595 8.8226533790599166 #
vertex $-1 $424 $543 #
point $-1 -10.51727298349244 -26.992662487534595 8.8226533790599166 #
straight-curve $-1 -72.04809717093417 30.598948022405292 0 0 0 -1 I I #
point $-1 -72.04809717093417 -30.598948022405292 -12.445022751701128 #
straight-curve $-1 -72.04809717093417 0 -12.445022751701128 0 1 0 I I #
point $-1 -72.04809717093417 30.598948022405292 -12.445022751701128 #
coedge $-1 $519 $445 $448 $516 reversed $328 $-1 #
straight-curve $-1 -83.951178244593308 30.598948022405292 3.4270545966506063 0 0 -1 I I #
edge $-1 $521 -30.598948022405292 $449 30.598948022405292 $514 $544 forward 7 unknown #
point $-1 -83.951178244593308 30.598948022405292 0.66007183188824659 #
point $-1 -83.951178244593308 30.598948022405292 6.194037361412966 #
coedge $-1 $458 $514 $455 $520 reversed $328 $-1 #
edge $-1 $460 -2.7669827647623597 $521 2.7669827647623597 $519 $545 forward 7 unknown #
vertex $-1 $516 $546 #
straight-curve $-1 -77.999637707763739 -30.598948022405292 0.66007183188824659 -1 0 0 I I #
straight-curve $-1 -83.951178244593308 0 6.194037361412966 0 -1 0 I I #
point $-1 -83.951178244593308 -30.598948022405292 6.194037361412966 #
straight-curve $-1 33.079236103987057 -6.6539038093739951 12.445022751701128 -1 0 0 I I #
straight-curve $-1 33.079236103987057 -6.6539038093739951 -12.445022751701128 1 0 0 I I #
point $-1 72.04809717093417 -6.6539038093739951 -12.445022751701128 #
point $-1 72.04809717093417 -6.6539038093739951 12.445022751701128 #
straight-curve $-1 72.04809717093417 0 -12.445022751701128 0 -1 0 I I #
straight-curve $-1 72.04809717093417 0 12.445022751701128 0 1 0 I I #
straight-curve $-1 -11.441923483156799 30.598948022405292 77.104075127786558 0 0 -1 I I #
point $-1 -11.441923483156799 30.598948022405292 12.445022751701128 #
straight-curve $-1 -10.10992891392495 30.598948022405288 7.0860009859025475 -1 0 0 I I #
point $-1 -11.441923483156799 30.598948022405295 7.0860009859025439 #
point $-1 -25.486618434665758 23.701500973050184 5.4502750918240359 #
point $-1 -20.219857827849893 23.701500973050184 5.4502750918240359 #
point $-1 -14.953097221034028 23.701500973050184 5.4502750918240359 #
straight-curve $-1 -27.919973231556266 -30.598948022405295 44.328147361227316 0 0 -1 I I #
point $-1 -27.919973231556266 -30.598948022405292 12.445022751701128 #
straight-curve $-1 -8.2190415289557919 -30.598948022405292 8.0787271542078241 1 0 0 I I #
point $-1 -27.919973231556266 -30.598948022405292 8.078727154207817 #
point $-1 -21.358893132330735 -26.163624906905518 8.2634604875594189 #
point $-1 -11.51727298349244 -26.163624906905518 8.2634604875594189 #
straight-curve $-1 -83.951178244593308 0 0.66007183188824659 0 1 0 I I #
straight-curve $-1 -83.951178244593308 -30.598948022405292 3.4270545966506063 0 0 -1 I I #
point $-1 -83.951178244593308 -30.598948022405292 0.66007183188824659 #
End-of-ACIS-data 