500 0 5 0           
7 Unknown 11 ACIS 5.0 NT 24 Thu Mar 25 21:30:45 1999 
-1 9.9999999999999995e-007 1e-010 
body $-1 $5 $-1 $6 #
body $-1 $7 $-1 $8 #
body $-1 $9 $-1 $10 #
body $-1 $11 $-1 $12 #
body $-1 $13 $-1 $14 #
lump $-1 $-1 $15 $0 #
transform $-1 1 0 0 0 1 0 0 0 1 47.081514938810386 21.723707272816565 10.051963173305992 1 rotate no_reflect no_shear #
lump $-1 $-1 $16 $1 #
transform $-1 1 0 0 0 1 0 0 0 1 47.081514938810386 21.723707272816565 10.051963173305992 1 rotate no_reflect no_shear #
lump $-1 $-1 $17 $2 #
transform $-1 1 0 0 0 1 0 0 0 1 47.081514938810386 21.723707272816565 10.051963173305992 1 rotate no_reflect no_shear #
lump $-1 $-1 $18 $3 #
transform $-1 1 0 0 0 1 0 0 0 1 47.081514938810386 21.723707272816565 10.051963173305992 1 rotate no_reflect no_shear #
lump $-1 $-1 $19 $4 #
transform $-1 1 0 0 0 1 0 0 0 1 47.081514938810386 21.723707272816565 10.051963173305992 1 rotate no_reflect no_shear #
shell $-1 $-1 $-1 $20 $-1 $5 #
shell $-1 $-1 $-1 $21 $-1 $7 #
shell $-1 $-1 $-1 $22 $-1 $9 #
shell $-1 $-1 $-1 $23 $-1 $11 #
shell $-1 $-1 $-1 $24 $-1 $13 #
face $-1 $25 $26 $15 $-1 $27 forward single #
face $-1 $28 $29 $16 $-1 $30 forward single #
face $-1 $31 $32 $17 $-1 $33 reversed single #
face $-1 $34 $35 $18 $-1 $36 forward single #
face $-1 $37 $38 $19 $-1 $39 forward single #
face $-1 $40 $41 $15 $-1 $42 reversed single #
loop $-1 $-1 $43 $20 #
plane-surface $-1 0 0 10.051963173305992 0 0 1 1 0 0 forward_v I I I I #
face $-1 $44 $45 $16 $-1 $46 reversed single #
loop $-1 $-1 $47 $21 #
plane-surface $-1 -47.081514938810386 0 0 1 0 0 0 0 -1 forward_v I I I I #
face $-1 $48 $49 $17 $-1 $50 reversed single #
loop $-1 $-1 $51 $22 #
plane-surface $-1 -19.501801252190361 -16.815684379525262 68.495076178057147 0.70710678939079041 0 0.70710677298230451 0.70710677298230451 0 -0.70710678939079041 forward_v I I I I #
face $-1 $52 $53 $18 $-1 $54 forward single #
loop $-1 $55 $56 $23 #
cone-surface $-1 41.976216700908189 -18.919122762364392 4.9466648649784775 -0.70710678939079041 0 -0.70710677298230451 0.70710677298230451 0 -0.70710678939079041 1 I I 0 1 1 forward I I I I #
face $-1 $57 $58 $19 $-1 $59 forward single #
loop $-1 $60 $61 $24 #
cone-surface $-1 41.976216700908189 -14.71224599668613 4.9466648649784775 -0.70710678939079041 0 -0.70710677298230451 0.70710677298230451 0 -0.70710678939079041 1 I I 0 1 1 forward I I I I #
face $-1 $62 $63 $15 $-1 $64 reversed single #
loop $-1 $-1 $65 $25 #
plane-surface $-1 0 0 -10.051963173305992 0 0 1 1 0 0 forward_v I I I I #
coedge $-1 $66 $67 $68 $69 forward $26 $-1 #
face $-1 $70 $71 $16 $-1 $72 forward single #
loop $-1 $-1 $73 $28 #
plane-surface $-1 0 21.723707272816565 0 0 -1 0 0 0 -1 forward_v I I I I #
coedge $-1 $74 $75 $76 $77 forward $29 $-1 #
face $-1 $78 $79 $17 $-1 $80 forward single #
loop $-1 $-1 $81 $31 #
plane-surface $-1 47.081516483883135 -11.907661486233959 135.07839236905789 0 -1 0 -0.70710678939079041 0 -0.70710677298230451 forward_v I I I I #
coedge $-1 $82 $83 $84 $85 reversed $32 $-1 #
face $-1 $-1 $86 $18 $-1 $87 forward single #
loop $-1 $88 $89 $34 #
cone-surface $-1 40.587467339524636 -18.919122762364392 3.557915535820996 -0.70710678939079041 0 -0.70710677298230451 0.35355338649115226 0 -0.35355339469539521 1 I I -0.70710678118654746 0.70710678118654746 0.5 forward I I I I #
loop $-1 $-1 $90 $23 #
coedge $-1 $56 $56 $91 $92 reversed $35 $-1 #
face $-1 $-1 $93 $19 $-1 $94 forward single #
loop $-1 $95 $96 $37 #
cone-surface $-1 40.587467339524636 -14.71224599668613 3.557915535820996 -0.70710678939079041 0 -0.70710677298230451 0.35355338649115226 0 -0.35355339469539521 1 I I -0.70710678118654746 0.70710678118654746 0.5 forward I I I I #
loop $-1 $-1 $97 $24 #
coedge $-1 $61 $61 $98 $99 reversed $38 $-1 #
face $-1 $100 $101 $15 $-1 $102 reversed single #
loop $-1 $-1 $103 $40 #
plane-surface $-1 0 -21.723707272816565 0 0 1 0 0 0 1 forward_v I I I I #
coedge $-1 $104 $105 $106 $107 forward $41 $-1 #
coedge $-1 $108 $43 $109 $110 forward $26 $-1 #
coedge $-1 $43 $108 $111 $112 forward $26 $-1 #
coedge $-1 $113 $114 $43 $69 reversed $115 $-1 #
edge $-1 $116 -21.723707272816565 $117 21.723707272816565 $68 $118 forward 7 unknown #
face $-1 $119 $120 $16 $-1 $121 reversed single #
loop $-1 $-1 $76 $44 #
plane-surface $-1 -52.616911134267873 0 7.4798826532815079 0 0 1 1 0 0 forward_v I I I I #
coedge $-1 $122 $123 $75 $124 forward $45 $-1 #
coedge $-1 $125 $47 $126 $127 reversed $29 $-1 #
coedge $-1 $47 $125 $73 $124 reversed $29 $-1 #
coedge $-1 $128 $129 $47 $77 reversed $71 $-1 #
edge $-1 $130 -21.723707272816565 $131 21.723707272816565 $76 $132 forward 7 unknown #
face $-1 $133 $134 $17 $-1 $135 reversed single #
loop $-1 $-1 $136 $48 #
plane-surface $-1 0 0 10.051963173305992 0 0 1 1 0 0 forward_v I I I I #
coedge $-1 $137 $138 $139 $140 reversed $49 $-1 #
coedge $-1 $141 $51 $142 $143 reversed $32 $-1 #
coedge $-1 $51 $141 $137 $144 forward $32 $-1 #
coedge $-1 $139 $145 $51 $85 forward $146 $-1 #
edge $-1 $147 -13.315865083053934 $148 -3.4998192964713279 $84 $149 forward 7 unknown #
loop $-1 $-1 $91 $52 #
plane-surface $-1 -19.501801252190361 -16.815684379525262 68.495076178057147 0.70710678939079041 0 0.70710677298230451 0.70710677298230451 0 -0.70710678939079041 forward_v I I I I #
loop $-1 $-1 $150 $34 #
coedge $-1 $89 $89 $90 $151 reversed $53 $-1 #
coedge $-1 $90 $90 $89 $151 forward $55 $-1 #
coedge $-1 $91 $91 $56 $92 forward $86 $-1 #
edge $-1 $152 0 $152 6.2831853071796004 $91 $153 forward 7 unknown #
loop $-1 $-1 $98 $57 #
plane-surface $-1 -19.501801252190361 -16.815684379525262 68.495076178057147 0.70710678939079041 0 0.70710677298230451 0.70710677298230451 0 -0.70710678939079041 forward_v I I I I #
loop $-1 $-1 $154 $37 #
coedge $-1 $96 $96 $97 $155 reversed $58 $-1 #
coedge $-1 $97 $97 $96 $155 forward $60 $-1 #
coedge $-1 $98 $98 $61 $99 forward $93 $-1 #
edge $-1 $156 0 $156 6.2831853071796004 $98 $157 forward 7 unknown #
face $-1 $158 $159 $15 $-1 $160 reversed single #
loop $-1 $-1 $161 $62 #
plane-surface $-1 -47.081514938810386 0 0 1 0 0 0 0 -1 forward_v I I I I #
coedge $-1 $162 $111 $161 $163 forward $63 $-1 #
coedge $-1 $164 $65 $162 $165 forward $41 $-1 #
coedge $-1 $65 $164 $166 $167 forward $41 $-1 #
coedge $-1 $114 $113 $65 $107 reversed $115 $-1 #
edge $-1 $168 -21.723707272816565 $169 21.723707272816565 $106 $170 forward 7 unknown #
coedge $-1 $67 $66 $171 $172 forward $26 $-1 #
coedge $-1 $173 $174 $66 $110 reversed $159 $-1 #
edge $-1 $117 -47.081514938810386 $175 47.081514938810386 $109 $176 forward 7 unknown #
coedge $-1 $103 $177 $67 $112 reversed $63 $-1 #
edge $-1 $178 -47.081514938810386 $116 47.081514938810386 $111 $179 forward 7 unknown #
coedge $-1 $106 $68 $177 $180 forward $115 $-1 #
coedge $-1 $68 $106 $173 $181 reversed $115 $-1 #
loop $-1 $-1 $113 $158 #
vertex $-1 $69 $182 #
vertex $-1 $69 $183 #
straight-curve $-1 47.081514938810386 0 10.051963173305992 0 1 0 I I #
face $-1 $184 $185 $16 $-1 $186 reversed single #
loop $-1 $-1 $187 $70 #
plane-surface $-1 -52.616911134267873 0 4.0550305990982514 0 0 1 1 0 0 forward_v I I I I #
coedge $-1 $188 $73 $189 $190 reversed $45 $-1 #
coedge $-1 $73 $188 $128 $191 reversed $45 $-1 #
edge $-1 $130 -7.4798826532815079 $192 -4.0550305990982514 $73 $193 forward 7 unknown #
coedge $-1 $75 $74 $187 $194 forward $29 $-1 #
coedge $-1 $195 $196 $74 $127 forward $197 $-1 #
edge $-1 $198 4.0550305990982514 $131 7.4798826532815079 $126 $199 forward 7 unknown #
coedge $-1 $200 $76 $123 $191 forward $71 $-1 #
coedge $-1 $76 $200 $195 $201 forward $71 $-1 #
vertex $-1 $124 $202 #
vertex $-1 $201 $203 #
straight-curve $-1 -47.081514938810386 0 7.4798826532815079 0 -1 0 I I #
face $-1 $-1 $146 $17 $-1 $204 reversed single #
loop $-1 $-1 $142 $78 #
plane-surface $-1 0 -21.723707272816565 0 0 1 0 0 0 1 forward_v I I I I #
coedge $-1 $205 $206 $138 $207 forward $79 $-1 #
coedge $-1 $138 $81 $83 $144 reversed $49 $-1 #
coedge $-1 $81 $137 $136 $207 reversed $49 $-1 #
coedge $-1 $208 $84 $81 $140 forward $146 $-1 #
edge $-1 $148 -65.627437742545297 $209 -57.487233011222955 $139 $210 forward 7 unknown #
coedge $-1 $83 $82 $205 $211 reversed $32 $-1 #
coedge $-1 $212 $213 $82 $143 forward $134 $-1 #
edge $-1 $214 51.539447501598431 $147 63.051435299559685 $142 $215 forward 7 unknown #
edge $-1 $216 82.651042079659547 $148 94.163029877620787 $137 $217 forward 7 unknown #
coedge $-1 $84 $208 $212 $218 forward $146 $-1 #
loop $-1 $-1 $139 $133 #
vertex $-1 $143 $219 #
vertex $-1 $85 $220 #
straight-curve $-1 47.081514938810386 -8.407842189762631 1.9117584419836504 0 1 0 I I #
coedge $-1 $150 $150 $-1 $221 reversed $88 $-1 #
edge $-1 $222 0 $222 6.2831853071796004 $89 $223 forward 7 unknown #
vertex $-1 $92 $224 #
ellipse-curve $-1 43.011412667596367 -18.919122762364392 5.9818608076448232 0.70710678939079041 0 0.70710677298230451 0.70710677298230451 0 -0.70710678939079041 1 I I #
coedge $-1 $154 $154 $-1 $225 reversed $95 $-1 #
edge $-1 $226 0 $226 6.2831853071796004 $96 $227 forward 7 unknown #
vertex $-1 $99 $228 #
ellipse-curve $-1 43.011412667596367 -14.71224599668613 5.9818608076448232 0.70710678939079041 0 0.70710677298230451 0.70710677298230451 0 -0.70710678939079041 1 I I #
face $-1 $-1 $115 $15 $-1 $229 reversed single #
loop $-1 $-1 $173 $100 #
plane-surface $-1 0 21.723707272816565 0 0 -1 0 0 0 -1 forward_v I I I I #
coedge $-1 $171 $230 $103 $163 reversed $101 $-1 #
coedge $-1 $177 $103 $104 $165 reversed $63 $-1 #
edge $-1 $178 -10.051963173305992 $231 10.051963173305992 $161 $232 forward 7 unknown #
coedge $-1 $105 $104 $230 $233 forward $41 $-1 #
edge $-1 $169 -47.081514938810386 $231 47.081514938810386 $162 $234 forward 7 unknown #
coedge $-1 $174 $173 $105 $167 reversed $159 $-1 #
edge $-1 $235 -47.081514938810386 $168 47.081514938810386 $166 $236 forward 7 unknown #
vertex $-1 $107 $237 #
vertex $-1 $180 $238 #
straight-curve $-1 47.081514938810386 0 -10.051963173305992 0 -1 0 I I #
coedge $-1 $239 $161 $108 $172 reversed $101 $-1 #
edge $-1 $175 -21.723707272816565 $178 21.723707272816565 $171 $240 forward 7 unknown #
coedge $-1 $166 $109 $114 $181 forward $159 $-1 #
coedge $-1 $109 $166 $239 $241 reversed $159 $-1 #
vertex $-1 $110 $242 #
straight-curve $-1 0 21.723707272816565 10.051963173305992 -1 0 0 I I #
coedge $-1 $111 $162 $113 $180 reversed $63 $-1 #
vertex $-1 $172 $243 #
straight-curve $-1 0 -21.723707272816565 10.051963173305992 1 0 0 I I #
edge $-1 $116 -10.051963173305992 $169 10.051963173305992 $113 $244 forward 7 unknown #
edge $-1 $117 -10.051963173305992 $168 10.051963173305992 $114 $245 forward 7 unknown #
point $-1 47.081514938810386 -21.723707272816565 10.051963173305992 #
point $-1 47.081514938810386 21.723707272816565 10.051963173305992 #
face $-1 $-1 $197 $16 $-1 $246 reversed single #
loop $-1 $-1 $247 $119 #
plane-surface $-1 -58.15230732972536 0 5.7674566261898796 1 0 0 0 0 -1 forward_v I I I I #
coedge $-1 $248 $189 $125 $194 reversed $120 $-1 #
coedge $-1 $123 $122 $247 $249 reversed $45 $-1 #
coedge $-1 $187 $250 $122 $190 forward $120 $-1 #
edge $-1 $251 -5.5353961954574871 $192 5.5353961954574871 $122 $252 forward 7 unknown #
edge $-1 $130 -5.5353961954574871 $253 5.5353961954574871 $123 $254 forward 7 unknown #
vertex $-1 $124 $255 #
straight-curve $-1 -47.081514938810386 21.723707272816565 0 0 0 -1 I I #
edge $-1 $198 -21.723707272816565 $192 21.723707272816565 $187 $256 forward 7 unknown #
coedge $-1 $257 $126 $129 $201 reversed $197 $-1 #
coedge $-1 $126 $257 $248 $258 reversed $197 $-1 #
loop $-1 $-1 $126 $184 #
vertex $-1 $127 $259 #
straight-curve $-1 -47.081514938810386 -21.723707272816565 0 0 0 1 I I #
coedge $-1 $129 $128 $260 $261 forward $71 $-1 #
edge $-1 $262 -5.5353961954574871 $131 5.5353961954574871 $195 $263 forward 7 unknown #
point $-1 -47.081514938810386 21.723707272816565 7.4798826532815079 #
point $-1 -47.081514938810386 -21.723707272816565 7.4798826532815079 #
plane-surface $-1 47.081514938810386 0 0 -1 0 0 0 0 1 forward_v I I I I #
coedge $-1 $264 $136 $141 $211 forward $79 $-1 #
coedge $-1 $136 $264 $208 $265 forward $79 $-1 #
edge $-1 $209 -23.540756696868819 $216 -15.400552154440767 $136 $266 forward 7 unknown #
coedge $-1 $145 $139 $206 $265 reversed $146 $-1 #
vertex $-1 $140 $267 #
straight-curve $-1 47.081514938810386 -11.907661486233959 67.539196184528947 0 0 1 I I #
edge $-1 $216 3.4998192964713279 $214 13.315865083053934 $205 $268 forward 7 unknown #
coedge $-1 $213 $142 $145 $218 reversed $134 $-1 #
coedge $-1 $142 $212 $264 $269 reversed $134 $-1 #
vertex $-1 $269 $270 #
straight-curve $-1 2.4974179922361817 -21.723707272816565 46.495856423136438 0.70710677298230462 0 -0.70710678939079052 I I #
vertex $-1 $211 $271 #
straight-curve $-1 -19.501801252190361 -11.907661486233959 68.495076178057147 0.70710677298230451 0 -0.70710678939079041 I I #
edge $-1 $272 -10.051963173305992 $147 -1.9117584419836473 $145 $273 forward 7 unknown #
point $-1 47.081514938810386 -21.723707272816565 1.9117584419836473 #
point $-1 47.081514938810386 -11.907661486233959 1.9117584419836504 #
edge $-1 $274 1 $274 0 $150 $-1 forward 7 unknown #
vertex $-1 $151 $275 #
ellipse-curve $-1 40.941020734220032 -18.919122762364392 3.9114689223121482 0.70710678939079041 0 0.70710677298230451 0.70710677298230451 0 -0.70710678939079041 1 I I #
point $-1 43.718519440578653 -18.919122762364392 5.2747540182540176 #
edge $-1 $276 1 $276 0 $154 $-1 forward 7 unknown #
vertex $-1 $155 $277 #
ellipse-curve $-1 40.941020734220032 -14.71224599668613 3.9114689223121482 0.70710678939079041 0 0.70710677298230451 0.70710677298230451 0 -0.70710678939079041 1 I I #
point $-1 43.718519440578653 -14.71224599668613 5.2747540182540176 #
plane-surface $-1 47.081514938810386 0 0 -1 0 0 0 0 1 forward_v I I I I #
coedge $-1 $161 $239 $164 $233 reversed $101 $-1 #
vertex $-1 $233 $278 #
straight-curve $-1 -47.081514938810386 -21.723707272816565 0 0 0 -1 I I #
edge $-1 $231 -21.723707272816565 $235 21.723707272816565 $230 $279 forward 7 unknown #
straight-curve $-1 0 -21.723707272816565 -10.051963173305992 -1 0 0 I I #
vertex $-1 $167 $280 #
straight-curve $-1 0 21.723707272816565 -10.051963173305992 1 0 0 I I #
point $-1 47.081514938810386 21.723707272816565 -10.051963173305992 #
point $-1 47.081514938810386 -21.723707272816565 -10.051963173305992 #
coedge $-1 $230 $171 $174 $241 forward $101 $-1 #
straight-curve $-1 -47.081514938810386 0 10.051963173305992 0 -1 0 I I #
edge $-1 $175 -10.051963173305992 $235 10.051963173305992 $174 $281 forward 7 unknown #
point $-1 -47.081514938810386 21.723707272816565 10.051963173305992 #
point $-1 -47.081514938810386 -21.723707272816565 10.051963173305992 #
straight-curve $-1 47.081514938810386 -21.723707272816565 0 0 0 -1 I I #
straight-curve $-1 47.081514938810386 21.723707272816565 0 0 0 -1 I I #
plane-surface $-1 0 -21.723707272816565 0 0 1 0 0 0 1 forward_v I I I I #
coedge $-1 $282 $260 $188 $249 forward $185 $-1 #
coedge $-1 $250 $187 $196 $258 forward $120 $-1 #
edge $-1 $253 -1.7124260270916283 $251 1.7124260270916283 $188 $283 forward 7 unknown #
coedge $-1 $189 $248 $282 $284 forward $120 $-1 #
vertex $-1 $190 $285 #
straight-curve $-1 -52.616911134267873 21.723707272816565 4.0550305990982514 1 0 0 I I #
vertex $-1 $191 $286 #
straight-curve $-1 -52.616911134267873 21.723707272816565 7.4798826532815079 -1 0 0 I I #
point $-1 -47.081514938810386 21.723707272816565 4.0550305990982514 #
straight-curve $-1 -47.081514938810386 0 4.0550305990982514 0 1 0 I I #
coedge $-1 $196 $195 $287 $288 forward $197 $-1 #
edge $-1 $198 -5.5353961954574871 $289 5.5353961954574871 $196 $290 forward 7 unknown #
point $-1 -47.081514938810386 -21.723707272816565 4.0550305990982514 #
coedge $-1 $247 $287 $200 $261 reversed $185 $-1 #
edge $-1 $253 -21.723707272816565 $262 21.723707272816565 $260 $291 forward 7 unknown #
vertex $-1 $261 $292 #
straight-curve $-1 -52.616911134267873 -21.723707272816565 7.4798826532815079 1 0 0 I I #
coedge $-1 $206 $205 $213 $269 forward $79 $-1 #
edge $-1 $272 -21.723707272816565 $209 -11.907661486233959 $208 $293 forward 7 unknown #
straight-curve $-1 23.540758241941568 -11.907661486233959 10.051963173305992 -1 0 0 I I #
point $-1 47.081514938810386 -11.907661486233959 10.051963173305992 #
straight-curve $-1 38.941310396382349 -8.407842189762631 10.051963173305985 0 -1 0 I I #
edge $-1 $214 38.941310396382335 $272 47.081514938810386 $213 $294 forward 7 unknown #
point $-1 38.941310396382335 -21.723707272816565 10.051963173305985 #
point $-1 38.941310396382335 -11.907661486233959 10.051963173305985 #
vertex $-1 $265 $295 #
straight-curve $-1 47.081514938810386 -21.723707272816565 0 0 0 -1 I I #
vertex $-1 $221 $296 #
point $-1 41.648127507202332 -18.919122762364392 3.2043621329213576 #
vertex $-1 $225 $297 #
point $-1 41.648127507202332 -14.71224599668613 3.2043621329213576 #
point $-1 -47.081514938810386 -21.723707272816565 -10.051963173305992 #
straight-curve $-1 -47.081514938810386 0 -10.051963173305992 0 1 0 I I #
point $-1 -47.081514938810386 21.723707272816565 -10.051963173305992 #
straight-curve $-1 -47.081514938810386 21.723707272816565 0 0 0 -1 I I #
coedge $-1 $287 $247 $250 $284 reversed $185 $-1 #
straight-curve $-1 -58.15230732972536 21.723707272816565 5.7674566261898796 0 0 -1 I I #
edge $-1 $289 -21.723707272816565 $251 21.723707272816565 $282 $298 forward 7 unknown #
point $-1 -58.15230732972536 21.723707272816565 4.0550305990982514 #
point $-1 -58.15230732972536 21.723707272816565 7.4798826532815079 #
coedge $-1 $260 $282 $257 $288 reversed $185 $-1 #
edge $-1 $262 -1.7124260270916283 $289 1.7124260270916283 $287 $299 forward 7 unknown #
vertex $-1 $284 $300 #
straight-curve $-1 -52.616911134267873 -21.723707272816565 4.0550305990982514 -1 0 0 I I #
straight-curve $-1 -58.15230732972536 0 7.4798826532815079 0 -1 0 I I #
point $-1 -58.15230732972536 -21.723707272816565 7.4798826532815079 #
straight-curve $-1 47.081514938810386 0 10.051963173305992 0 1 0 I I #
straight-curve $-1 0 -21.723707272816565 10.051963173305992 1 0 0 I I #
point $-1 47.081514938810386 -21.723707272816565 10.051963173305992 #
point $-1 40.23391394482924 -18.919122762364392 3.2043621493298438 #
point $-1 40.23391394482924 -14.71224599668613 3.2043621493298438 #
straight-curve $-1 -58.15230732972536 0 4.0550305990982514 0 1 0 I I #
straight-curve $-1 -58.15230732972536 -21.723707272816565 5.7674566261898796 0 0 -1 I I #
point $-1 -58.15230732972536 -21.723707272816565 4.0550305990982514 #
End-of-ACIS-data 