500 0 12 0           
7 Unknown 11 ACIS 5.0 NT 24 Thu Mar 25 22:17:03 1999 
-1 9.9999999999999995e-007 1e-010 
body $-1 $12 $-1 $13 #
body $-1 $14 $-1 $15 #
body $-1 $16 $-1 $17 #
body $-1 $18 $-1 $19 #
body $-1 $20 $-1 $21 #
body $-1 $22 $-1 $23 #
body $-1 $24 $-1 $25 #
body $-1 $26 $-1 $27 #
body $-1 $28 $-1 $29 #
body $-1 $30 $-1 $31 #
body $-1 $32 $-1 $33 #
body $-1 $34 $-1 $35 #
lump $-1 $-1 $36 $0 #
transform $-1 1 0 0 0 1 0 0 0 1 47.72240363780633 28.058157614766884 7.3227621226905724 1 rotate no_reflect no_shear #
lump $-1 $-1 $37 $1 #
transform $-1 1 0 0 0 1 0 0 0 1 47.72240363780633 28.058157614766884 7.3227621226905724 1 rotate no_reflect no_shear #
lump $-1 $-1 $38 $2 #
transform $-1 1 0 0 0 1 0 0 0 1 47.72240363780633 28.058157614766884 7.3227621226905724 1 rotate no_reflect no_shear #
lump $-1 $-1 $39 $3 #
transform $-1 1 0 0 0 1 0 0 0 1 47.72240363780633 28.058157614766884 7.3227621226905724 1 rotate no_reflect no_shear #
lump $-1 $-1 $40 $4 #
transform $-1 1 0 0 0 1 0 0 0 1 47.72240363780633 28.058157614766884 7.3227621226905724 1 rotate no_reflect no_shear #
lump $-1 $-1 $41 $5 #
transform $-1 1 0 0 0 1 0 0 0 1 47.72240363780633 28.058157614766884 7.3227621226905724 1 rotate no_reflect no_shear #
lump $-1 $-1 $42 $6 #
transform $-1 1 0 0 0 1 0 0 0 1 47.72240363780633 28.058157614766884 7.3227621226905724 1 rotate no_reflect no_shear #
lump $-1 $-1 $43 $7 #
transform $-1 1 0 0 0 1 0 0 0 1 47.72240363780633 28.058157614766884 7.3227621226905724 1 rotate no_reflect no_shear #
lump $-1 $-1 $44 $8 #
transform $-1 1 0 0 0 1 0 0 0 1 47.72240363780633 28.058157614766884 7.3227621226905724 1 rotate no_reflect no_shear #
lump $-1 $-1 $45 $9 #
transform $-1 1 0 0 0 1 0 0 0 1 47.72240363780633 28.058157614766884 7.3227621226905724 1 rotate no_reflect no_shear #
lump $-1 $-1 $46 $10 #
transform $-1 1 0 0 0 1 0 0 0 1 47.72240363780633 28.058157614766884 7.3227621226905724 1 rotate no_reflect no_shear #
lump $-1 $-1 $47 $11 #
transform $-1 1 0 0 0 1 0 0 0 1 47.72240363780633 28.058157614766884 7.3227621226905724 1 rotate no_reflect no_shear #
shell $-1 $-1 $-1 $48 $-1 $12 #
shell $-1 $-1 $-1 $49 $-1 $14 #
shell $-1 $-1 $-1 $50 $-1 $16 #
shell $-1 $-1 $-1 $51 $-1 $18 #
shell $-1 $-1 $-1 $52 $-1 $20 #
shell $-1 $-1 $-1 $53 $-1 $22 #
shell $-1 $-1 $-1 $54 $-1 $24 #
shell $-1 $-1 $-1 $55 $-1 $26 #
shell $-1 $-1 $-1 $56 $-1 $28 #
shell $-1 $-1 $-1 $57 $-1 $30 #
shell $-1 $-1 $-1 $58 $-1 $32 #
shell $-1 $-1 $-1 $59 $-1 $34 #
face $-1 $60 $61 $36 $-1 $62 forward single #
face $-1 $63 $64 $37 $-1 $65 forward single #
face $-1 $66 $67 $38 $-1 $68 forward single #
face $-1 $69 $70 $39 $-1 $71 reversed single #
face $-1 $72 $73 $40 $-1 $74 forward single #
face $-1 $75 $76 $41 $-1 $77 forward single #
face $-1 $78 $79 $42 $-1 $80 reversed single #
face $-1 $81 $82 $43 $-1 $83 forward single #
face $-1 $84 $85 $44 $-1 $86 forward single #
face $-1 $87 $88 $45 $-1 $89 reversed single #
face $-1 $90 $91 $46 $-1 $92 forward single #
face $-1 $93 $94 $47 $-1 $95 forward single #
face $-1 $96 $97 $36 $-1 $98 reversed single #
loop $-1 $-1 $99 $48 #
plane-surface $-1 0 0 7.3227621226905724 0 0 1 1 0 0 forward_v I I I I #
face $-1 $100 $101 $37 $-1 $102 reversed single #
loop $-1 $-1 $103 $49 #
plane-surface $-1 0 -24.950624270363729 0.29420676069044926 0 0 1 1 0 0 forward_v I I I I #
face $-1 $104 $105 $38 $-1 $106 reversed single #
loop $-1 $-1 $107 $50 #
plane-surface $-1 0 24.817066046315645 -4.3227621226905724 0 0 1 1 0 0 forward_v I I I I #
face $-1 $108 $109 $39 $-1 $110 reversed single #
loop $-1 $-1 $111 $51 #
plane-surface $-1 45.366690850725455 -21.843090925960574 139.22666455843549 0 1 0 0.69465837861970381 0 0.71933979245794832 forward_v I I I I #
face $-1 $112 $113 $40 $-1 $114 forward single #
loop $-1 $115 $116 $52 #
cone-surface $-1 45.770404274585076 -18.925786452140436 5.4118766889771868 -0.69465837861970381 0 -0.71933979245794832 0.71933979245794832 0 -0.69465837861970381 1 I I 0 1 1 forward I I I I #
face $-1 $117 $118 $41 $-1 $119 forward single #
loop $-1 $120 $121 $53 #
cone-surface $-1 45.770404274585076 -14.549829741410232 5.4118766889771868 -0.69465837861970381 0 -0.71933979245794832 0.71933979245794832 0 -0.69465837861970381 1 I I 0 1 1 forward I I I I #
face $-1 $122 $123 $42 $-1 $124 reversed single #
loop $-1 $-1 $125 $54 #
plane-surface $-1 45.366690850725455 -0.13355822404808393 139.22666455843549 0 1 0 0.69465837861970381 0 0.71933979245794832 forward_v I I I I #
face $-1 $126 $127 $43 $-1 $128 forward single #
loop $-1 $129 $130 $55 #
cone-surface $-1 45.770404274585076 2.7837462497720509 5.4118766889771868 -0.69465837861970381 0 -0.71933979245794832 0.71933979245794832 0 -0.69465837861970381 1 I I 0 1 1 forward I I I I #
face $-1 $131 $132 $44 $-1 $133 forward single #
loop $-1 $134 $135 $56 #
cone-surface $-1 45.770404274585076 7.1597029605022584 5.4118766889771868 -0.69465837861970381 0 -0.71933979245794832 0.71933979245794832 0 -0.69465837861970381 1 I I 0 1 1 forward I I I I #
face $-1 $136 $137 $45 $-1 $138 reversed single #
loop $-1 $-1 $139 $57 #
plane-surface $-1 -128.66419149227087 19.315882338285405 54.754762806345596 0 -1 0 0.84804810408105047 0 -0.52991925155115449 forward_v I I I I #
face $-1 $140 $141 $46 $-1 $142 forward single #
loop $-1 $143 $144 $58 #
cone-surface $-1 -46.289191141975948 12.594113130284939 5.4683755760614581 0.84804810408105047 0 -0.52991925155115449 0.26495962577557725 0 0.42402405204052523 1 I I 0 1 0.5 forward I I I I #
face $-1 $145 $146 $47 $-1 $147 forward single #
loop $-1 $148 $149 $59 #
cone-surface $-1 -46.289191141975948 16.62717465508522 5.4683755760614581 0.84804810408105047 0 -0.52991925155115449 0.26495962577557725 0 0.42402405204052523 1 I I 0 1 0.5 forward I I I I #
face $-1 $150 $151 $36 $-1 $152 reversed single #
loop $-1 $-1 $153 $60 #
plane-surface $-1 0 0 -7.3227621226905724 0 0 1 1 0 0 forward_v I I I I #
coedge $-1 $154 $155 $156 $157 forward $61 $-1 #
face $-1 $158 $159 $37 $-1 $160 reversed single #
loop $-1 $-1 $161 $63 #
plane-surface $-1 0 -24.950624270363729 -3.8389624752577012 0 0 1 1 0 0 forward_v I I I I #
coedge $-1 $162 $163 $164 $165 reversed $64 $-1 #
face $-1 $166 $167 $38 $-1 $168 reversed single #
loop $-1 $-1 $169 $66 #
plane-surface $-1 0 21.575974477864406 -5.8227621226905724 0 1 0 0 0 1 forward_v I I I I #
coedge $-1 $170 $171 $172 $173 reversed $67 $-1 #
face $-1 $174 $175 $39 $-1 $176 reversed single #
loop $-1 $-1 $177 $69 #
plane-surface $-1 -20.934844219021748 -16.737808096775336 70.569416701607395 0.69465837861970381 0 0.71933979245794832 0.71933979245794832 0 -0.69465837861970381 forward_v I I I I #
coedge $-1 $178 $179 $180 $181 reversed $70 $-1 #
face $-1 $-1 $182 $40 $-1 $183 forward single #
loop $-1 $184 $185 $72 #
cone-surface $-1 45.052786362775116 -18.925786452140436 4.6687616044500233 -0.69465837861970381 0 -0.71933979245794832 0.35966989622897416 0 -0.3473291893098519 1 I I -0.70710678118654746 0.70710678118654746 0.5 forward I I I I #
loop $-1 $-1 $186 $52 #
coedge $-1 $116 $116 $187 $188 reversed $73 $-1 #
face $-1 $-1 $189 $41 $-1 $190 forward single #
loop $-1 $191 $192 $75 #
cone-surface $-1 45.052786362775116 -14.549829741410232 4.6687616044500233 -0.69465837861970381 0 -0.71933979245794832 0.35966989622897416 0 -0.3473291893098519 1 I I -0.70710678118654746 0.70710678118654746 0.5 forward I I I I #
loop $-1 $-1 $193 $53 #
coedge $-1 $121 $121 $194 $195 reversed $76 $-1 #
face $-1 $196 $197 $42 $-1 $198 reversed single #
loop $-1 $-1 $199 $78 #
plane-surface $-1 -20.934844219021748 4.9717246051371546 70.569416701607395 0.69465837861970381 0 0.71933979245794832 0.71933979245794832 0 -0.69465837861970381 forward_v I I I I #
coedge $-1 $200 $201 $202 $203 reversed $79 $-1 #
face $-1 $-1 $204 $43 $-1 $205 forward single #
loop $-1 $206 $207 $81 #
cone-surface $-1 45.052786362775116 2.7837462497720509 4.6687616044500233 -0.69465837861970381 0 -0.71933979245794832 0.35966989622897416 0 -0.3473291893098519 1 I I -0.70710678118654746 0.70710678118654746 0.5 forward I I I I #
loop $-1 $-1 $208 $55 #
coedge $-1 $130 $130 $209 $210 reversed $82 $-1 #
face $-1 $-1 $211 $44 $-1 $212 forward single #
loop $-1 $213 $214 $84 #
cone-surface $-1 45.052786362775116 7.1597029605022584 4.6687616044500233 -0.69465837861970381 0 -0.71933979245794832 0.35966989622897416 0 -0.3473291893098519 1 I I -0.70710678118654746 0.70710678118654746 0.5 forward I I I I #
loop $-1 $-1 $215 $56 #
coedge $-1 $135 $135 $216 $217 reversed $85 $-1 #
face $-1 $218 $219 $45 $-1 $220 reversed single #
loop $-1 $-1 $221 $87 #
plane-surface $-1 -47.722403637806309 14.610643892685076 4.1767219704087495 -0.84804810408105047 0 0.52991925155115449 0.52991925155115449 0 0.84804810408105047 forward_v I I I I #
coedge $-1 $222 $223 $224 $225 reversed $88 $-1 #
face $-1 $-1 $226 $46 $-1 $227 forward single #
loop $-1 $228 $229 $90 #
cone-surface $-1 -45.626898622935201 12.594113130284939 5.0545292926854648 0.84804810408105047 0 -0.52991925155115449 0.13247981288778862 0 0.21201202602026262 1 I I -0.70710678118654746 0.70710678118654746 0.25 forward I I I I #
loop $-1 $-1 $230 $58 #
coedge $-1 $144 $144 $231 $232 reversed $91 $-1 #
face $-1 $-1 $233 $47 $-1 $234 forward single #
loop $-1 $235 $236 $93 #
cone-surface $-1 -45.626898622935201 16.62717465508522 5.0545292926854648 0.84804810408105047 0 -0.52991925155115449 0.13247981288778862 0 0.21201202602026262 1 I I -0.70710678118654746 0.70710678118654746 0.25 forward I I I I #
loop $-1 $-1 $237 $59 #
coedge $-1 $149 $149 $238 $239 reversed $94 $-1 #
face $-1 $240 $241 $36 $-1 $242 reversed single #
loop $-1 $-1 $243 $96 #
plane-surface $-1 0 -28.058157614766884 0 0 1 0 0 0 1 forward_v I I I I #
coedge $-1 $244 $245 $246 $247 forward $97 $-1 #
coedge $-1 $248 $99 $249 $250 forward $61 $-1 #
coedge $-1 $99 $248 $251 $252 forward $61 $-1 #
coedge $-1 $253 $254 $99 $157 reversed $255 $-1 #
edge $-1 $256 -28.058157614766884 $257 28.058157614766884 $156 $258 forward 7 unknown #
face $-1 $259 $260 $37 $-1 $261 reversed single #
loop $-1 $-1 $262 $100 #
plane-surface $-1 0 -21.843090925960574 -1.772377857283626 0 -1 0 0 0 -1 forward_v I I I I #
coedge $-1 $263 $264 $265 $266 reversed $101 $-1 #
coedge $-1 $267 $103 $268 $269 forward $64 $-1 #
coedge $-1 $103 $267 $270 $271 reversed $64 $-1 #
coedge $-1 $272 $273 $103 $165 forward $274 $-1 #
edge $-1 $275 9.3677787907787096 $276 15.58284547958502 $164 $277 forward 7 unknown #
face $-1 $278 $279 $38 $-1 $280 reversed single #
loop $-1 $-1 $172 $104 #
plane-surface $-1 47.72240363780633 0 0 -1 0 0 0 0 1 forward_v I I I I #
coedge $-1 $281 $282 $283 $284 reversed $105 $-1 #
coedge $-1 $285 $107 $286 $287 reversed $67 $-1 #
coedge $-1 $107 $285 $282 $288 forward $67 $-1 #
coedge $-1 $289 $290 $107 $173 forward $167 $-1 #
edge $-1 $291 -15.649624591609061 $292 -9.1674414547065837 $172 $293 forward 7 unknown #
face $-1 $294 $295 $39 $-1 $296 forward single #
loop $-1 $-1 $297 $108 #
plane-surface $-1 45.366690850725455 -11.632525267590097 139.22666455843549 0 -1 0 -0.69465837861970381 0 -0.71933979245794832 forward_v I I I I #
coedge $-1 $298 $299 $300 $301 reversed $109 $-1 #
coedge $-1 $179 $111 $302 $303 reversed $70 $-1 #
coedge $-1 $111 $178 $298 $304 reversed $70 $-1 #
coedge $-1 $300 $305 $111 $181 forward $306 $-1 #
edge $-1 $307 62.290570156527174 $308 65.345450647357538 $180 $309 forward 7 unknown #
loop $-1 $-1 $187 $112 #
plane-surface $-1 -20.934844219021748 -16.737808096775336 70.569416701607395 0.69465837861970381 0 0.71933979245794832 0.71933979245794832 0 -0.69465837861970381 forward_v I I I I #
loop $-1 $-1 $310 $72 #
coedge $-1 $185 $185 $186 $311 reversed $113 $-1 #
coedge $-1 $186 $186 $185 $311 forward $115 $-1 #
coedge $-1 $187 $187 $116 $188 forward $182 $-1 #
edge $-1 $312 0 $312 6.2831853071796004 $187 $313 forward 7 unknown #
loop $-1 $-1 $194 $117 #
plane-surface $-1 -20.934844219021748 -16.737808096775336 70.569416701607395 0.69465837861970381 0 0.71933979245794832 0.71933979245794832 0 -0.69465837861970381 forward_v I I I I #
loop $-1 $-1 $314 $75 #
coedge $-1 $192 $192 $193 $315 reversed $118 $-1 #
coedge $-1 $193 $193 $192 $315 forward $120 $-1 #
coedge $-1 $194 $194 $121 $195 forward $189 $-1 #
edge $-1 $316 0 $316 6.2831853071796004 $194 $317 forward 7 unknown #
face $-1 $318 $319 $42 $-1 $320 reversed single #
loop $-1 $-1 $321 $122 #
plane-surface $-1 45.366690850725455 10.077007434322393 139.22666455843549 0 -1 0 -0.69465837861970381 0 -0.71933979245794832 forward_v I I I I #
coedge $-1 $322 $323 $324 $325 reversed $123 $-1 #
coedge $-1 $201 $125 $326 $327 reversed $79 $-1 #
coedge $-1 $125 $200 $322 $328 reversed $79 $-1 #
coedge $-1 $324 $329 $125 $203 forward $319 $-1 #
edge $-1 $330 62.290570156527174 $331 65.345450647357538 $202 $332 forward 7 unknown #
loop $-1 $-1 $209 $126 #
plane-surface $-1 -20.934844219021748 4.9717246051371546 70.569416701607395 0.69465837861970381 0 0.71933979245794832 0.71933979245794832 0 -0.69465837861970381 forward_v I I I I #
loop $-1 $-1 $333 $81 #
coedge $-1 $207 $207 $208 $334 reversed $127 $-1 #
coedge $-1 $208 $208 $207 $334 forward $129 $-1 #
coedge $-1 $209 $209 $130 $210 forward $204 $-1 #
edge $-1 $335 0 $335 6.2831853071796004 $209 $336 forward 7 unknown #
loop $-1 $-1 $216 $131 #
plane-surface $-1 -20.934844219021748 4.9717246051371546 70.569416701607395 0.69465837861970381 0 0.71933979245794832 0.71933979245794832 0 -0.69465837861970381 forward_v I I I I #
loop $-1 $-1 $337 $84 #
coedge $-1 $214 $214 $215 $338 reversed $132 $-1 #
coedge $-1 $215 $215 $214 $338 forward $134 $-1 #
coedge $-1 $216 $216 $135 $217 forward $211 $-1 #
edge $-1 $339 0 $339 6.2831853071796004 $216 $340 forward 7 unknown #
face $-1 $341 $342 $45 $-1 $343 reversed single #
loop $-1 $-1 $344 $136 #
plane-surface $-1 -128.66419149227087 9.9054054470847461 54.754762806345596 0 1 0 -0.84804810408105047 0 0.52991925155115449 forward_v I I I I #
coedge $-1 $345 $346 $347 $348 reversed $137 $-1 #
coedge $-1 $223 $139 $349 $350 reversed $88 $-1 #
coedge $-1 $139 $222 $345 $351 reversed $88 $-1 #
coedge $-1 $347 $352 $139 $225 forward $342 $-1 #
edge $-1 $353 20.054619280482225 $354 23.200659432764084 $224 $355 forward 7 unknown #
loop $-1 $-1 $231 $140 #
plane-surface $-1 -47.722403637806309 14.610643892685076 4.1767219704087495 -0.84804810408105047 0 0.52991925155115449 0.52991925155115449 0 0.84804810408105047 forward_v I I I I #
loop $-1 $-1 $356 $90 #
coedge $-1 $229 $229 $230 $357 reversed $141 $-1 #
coedge $-1 $230 $230 $229 $357 forward $143 $-1 #
coedge $-1 $231 $231 $144 $232 forward $226 $-1 #
edge $-1 $358 0 $358 6.2831853071796004 $231 $359 forward 7 unknown #
loop $-1 $-1 $238 $145 #
plane-surface $-1 -47.722403637806309 14.610643892685076 4.1767219704087495 -0.84804810408105047 0 0.52991925155115449 0.52991925155115449 0 0.84804810408105047 forward_v I I I I #
loop $-1 $-1 $360 $93 #
coedge $-1 $236 $236 $237 $361 reversed $146 $-1 #
coedge $-1 $237 $237 $236 $361 forward $148 $-1 #
coedge $-1 $238 $238 $149 $239 forward $233 $-1 #
edge $-1 $362 0 $362 6.2831853071796004 $238 $363 forward 7 unknown #
face $-1 $364 $365 $36 $-1 $366 reversed single #
loop $-1 $-1 $367 $150 #
plane-surface $-1 -47.72240363780633 0 0 1 0 0 0 0 -1 forward_v I I I I #
coedge $-1 $368 $251 $369 $370 forward $151 $-1 #
coedge $-1 $371 $153 $368 $372 forward $97 $-1 #
coedge $-1 $153 $371 $373 $374 forward $97 $-1 #
coedge $-1 $254 $253 $153 $247 reversed $255 $-1 #
edge $-1 $375 -28.058157614766884 $376 28.058157614766884 $246 $377 forward 7 unknown #
coedge $-1 $155 $154 $378 $379 forward $61 $-1 #
coedge $-1 $380 $381 $154 $250 reversed $365 $-1 #
edge $-1 $257 -47.72240363780633 $382 47.72240363780633 $249 $383 forward 7 unknown #
coedge $-1 $243 $384 $155 $252 reversed $151 $-1 #
edge $-1 $385 -47.72240363780633 $256 47.72240363780633 $251 $386 forward 7 unknown #
coedge $-1 $246 $156 $384 $387 forward $255 $-1 #
coedge $-1 $156 $246 $380 $388 reversed $255 $-1 #
loop $-1 $-1 $253 $364 #
vertex $-1 $157 $389 #
vertex $-1 $157 $390 #
straight-curve $-1 47.72240363780633 0 7.3227621226905724 0 1 0 I I #
face $-1 $391 $392 $37 $-1 $393 reversed single #
loop $-1 $-1 $394 $158 #
plane-surface $-1 -47.72240363780633 0 0 1 0 0 0 0 -1 forward_v I I I I #
coedge $-1 $395 $268 $273 $396 reversed $159 $-1 #
coedge $-1 $397 $161 $398 $399 reversed $101 $-1 #
coedge $-1 $161 $397 $395 $400 forward $101 $-1 #
coedge $-1 $273 $272 $161 $266 forward $274 $-1 #
edge $-1 $401 -15.58284547958502 $402 -9.3677787907787096 $265 $403 forward 7 unknown #
coedge $-1 $163 $162 $394 $404 reversed $64 $-1 #
coedge $-1 $262 $405 $162 $269 reversed $159 $-1 #
edge $-1 $275 -47.72240363780633 $406 47.72240363780633 $268 $407 forward 7 unknown #
coedge $-1 $408 $409 $163 $271 forward $392 $-1 #
edge $-1 $276 -47.72240363780633 $410 47.72240363780633 $270 $411 forward 7 unknown #
coedge $-1 $265 $164 $409 $412 forward $274 $-1 #
coedge $-1 $164 $265 $262 $396 forward $274 $-1 #
loop $-1 $-1 $164 $391 #
vertex $-1 $165 $413 #
vertex $-1 $412 $414 #
straight-curve $-1 47.72240363780633 -12.475312135181865 0.29420676069044926 0 -1 0 I I #
face $-1 $415 $416 $38 $-1 $417 reversed single #
loop $-1 $-1 $418 $166 #
plane-surface $-1 0 0 -7.3227621226905724 0 0 1 1 0 0 forward_v I I I I #
coedge $-1 $419 $169 $418 $420 reversed $105 $-1 #
coedge $-1 $169 $419 $171 $288 reversed $105 $-1 #
coedge $-1 $421 $422 $169 $284 forward $416 $-1 #
edge $-1 $423 -4.4113810613452866 $424 -1.4113810613452862 $283 $425 forward 7 unknown #
coedge $-1 $171 $170 $421 $426 reversed $67 $-1 #
coedge $-1 $427 $428 $170 $287 forward $429 $-1 #
edge $-1 $430 -47.72240363780633 $291 47.72240363780633 $286 $431 forward 7 unknown #
edge $-1 $424 -47.72240363780633 $292 47.72240363780633 $282 $432 forward 7 unknown #
coedge $-1 $433 $172 $419 $434 forward $167 $-1 #
coedge $-1 $172 $433 $427 $435 reversed $167 $-1 #
vertex $-1 $435 $436 #
vertex $-1 $173 $437 #
straight-curve $-1 47.72240363780633 12.408533023157823 -4.3227621226905724 0 -1 0 I I #
face $-1 $-1 $306 $39 $-1 $438 reversed single #
loop $-1 $-1 $439 $174 #
plane-surface $-1 0 0 7.3227621226905724 0 0 1 1 0 0 forward_v I I I I #
coedge $-1 $440 $441 $442 $443 reversed $175 $-1 #
coedge $-1 $444 $177 $179 $304 forward $109 $-1 #
coedge $-1 $177 $444 $440 $445 forward $109 $-1 #
coedge $-1 $442 $180 $177 $301 forward $306 $-1 #
edge $-1 $308 -13.474186877572906 $446 -3.2636212192024292 $300 $447 forward 7 unknown #
coedge $-1 $448 $449 $178 $303 forward $295 $-1 #
edge $-1 $450 21.875636931001335 $307 25.039058212443603 $302 $451 forward 7 unknown #
edge $-1 $308 -95.444807275612646 $450 -91.047134138925713 $179 $452 forward 7 unknown #
coedge $-1 $180 $442 $448 $453 reversed $306 $-1 #
loop $-1 $-1 $442 $294 #
vertex $-1 $453 $454 #
vertex $-1 $181 $455 #
straight-curve $-1 47.72240363780633 -21.843090925960574 69.613332279217744 0 0 -1 I I #
coedge $-1 $310 $310 $-1 $456 reversed $184 $-1 #
edge $-1 $457 0 $457 6.2831853071796004 $185 $458 forward 7 unknown #
vertex $-1 $188 $459 #
ellipse-curve $-1 46.140692997085196 -18.925786452140436 5.7953218772753852 0.69465837861970381 0 0.71933979245794832 0.71933979245794832 0 -0.69465837861970381 1 I I #
coedge $-1 $314 $314 $-1 $460 reversed $191 $-1 #
edge $-1 $461 0 $461 6.2831853071796004 $192 $462 forward 7 unknown #
vertex $-1 $195 $463 #
ellipse-curve $-1 46.140692997085196 -14.549829741410232 5.7953218772753852 0.69465837861970381 0 0.71933979245794832 0.71933979245794832 0 -0.69465837861970381 1 I I #
face $-1 $-1 $464 $42 $-1 $465 forward single #
loop $-1 $-1 $202 $196 #
plane-surface $-1 47.72240363780633 0 0 -1 0 0 0 0 1 forward_v I I I I #
coedge $-1 $466 $467 $468 $469 reversed $197 $-1 #
coedge $-1 $470 $199 $201 $328 forward $123 $-1 #
coedge $-1 $199 $470 $466 $471 forward $123 $-1 #
coedge $-1 $468 $202 $199 $325 forward $319 $-1 #
edge $-1 $331 -2.6194205266166612 $472 7.5911451317538159 $324 $473 forward 7 unknown #
coedge $-1 $474 $475 $200 $327 forward $464 $-1 #
edge $-1 $476 21.875636931001335 $330 25.039058212443603 $326 $477 forward 7 unknown #
edge $-1 $331 -95.444807275612646 $476 -91.047134138925713 $201 $478 forward 7 unknown #
coedge $-1 $202 $468 $474 $479 reversed $319 $-1 #
vertex $-1 $479 $480 #
vertex $-1 $203 $481 #
straight-curve $-1 47.72240363780633 -0.13355822404808393 69.613332279217744 0 0 -1 I I #
coedge $-1 $333 $333 $-1 $482 reversed $206 $-1 #
edge $-1 $483 0 $483 6.2831853071796004 $207 $484 forward 7 unknown #
vertex $-1 $210 $485 #
ellipse-curve $-1 46.140692997085196 2.7837462497720509 5.7953218772753852 0.69465837861970381 0 0.71933979245794832 0.71933979245794832 0 -0.69465837861970381 1 I I #
coedge $-1 $337 $337 $-1 $486 reversed $213 $-1 #
edge $-1 $487 0 $487 6.2831853071796004 $214 $488 forward 7 unknown #
vertex $-1 $217 $489 #
ellipse-curve $-1 46.140692997085196 7.1597029605022584 5.7953218772753852 0.69465837861970381 0 0.71933979245794832 0.71933979245794832 0 -0.69465837861970381 1 I I #
face $-1 $-1 $490 $45 $-1 $491 forward single #
loop $-1 $-1 $224 $218 #
plane-surface $-1 -47.72240363780633 0 0 1 0 0 0 0 -1 forward_v I I I I #
coedge $-1 $492 $493 $494 $495 reversed $219 $-1 #
coedge $-1 $496 $221 $223 $351 forward $137 $-1 #
coedge $-1 $221 $496 $492 $497 forward $137 $-1 #
coedge $-1 $494 $224 $221 $348 forward $342 $-1 #
edge $-1 $354 -12.010560391942867 $498 -2.6000835007422083 $347 $499 forward 7 unknown #
coedge $-1 $500 $501 $222 $350 forward $490 $-1 #
edge $-1 $502 -18.575556113948942 $353 -16.609692108329106 $349 $503 forward 7 unknown #
edge $-1 $354 -3.9918193188544054e-014 $502 3.7097425690148658 $223 $504 forward 7 unknown #
coedge $-1 $224 $494 $500 $505 reversed $342 $-1 #
vertex $-1 $505 $506 #
vertex $-1 $225 $507 #
straight-curve $-1 -47.72240363780633 19.315882338285405 27.377381403172798 0 0 -1 I I #
coedge $-1 $356 $356 $-1 $508 reversed $228 $-1 #
edge $-1 $509 0 $509 6.2831853071796004 $229 $510 forward 7 unknown #
vertex $-1 $232 $511 #
ellipse-curve $-1 -46.739471634996406 12.594113130284939 5.7497420465496489 -0.84804810408105047 0 0.52991925155115449 0.26495962577557725 0 0.42402405204052523 1 I I #
coedge $-1 $360 $360 $-1 $512 reversed $235 $-1 #
edge $-1 $513 0 $513 6.2831853071796004 $236 $514 forward 7 unknown #
vertex $-1 $239 $515 #
ellipse-curve $-1 -46.739471634996406 16.62717465508522 5.7497420465496489 -0.84804810408105047 0 0.52991925155115449 0.26495962577557725 0 0.42402405204052523 1 I I #
face $-1 $-1 $255 $36 $-1 $516 reversed single #
loop $-1 $-1 $380 $240 #
plane-surface $-1 0 28.058157614766884 0 0 -1 0 0 0 -1 forward_v I I I I #
coedge $-1 $517 $378 $381 $518 forward $241 $-1 #
coedge $-1 $384 $243 $244 $372 reversed $151 $-1 #
coedge $-1 $378 $517 $243 $370 reversed $241 $-1 #
edge $-1 $385 -7.3227621226905724 $519 7.3227621226905724 $369 $520 forward 7 unknown #
coedge $-1 $245 $244 $517 $521 forward $97 $-1 #
edge $-1 $376 -47.72240363780633 $519 47.72240363780633 $368 $522 forward 7 unknown #
coedge $-1 $381 $380 $245 $374 reversed $365 $-1 #
edge $-1 $523 -47.72240363780633 $375 47.72240363780633 $373 $524 forward 7 unknown #
vertex $-1 $247 $525 #
vertex $-1 $387 $526 #
straight-curve $-1 47.72240363780633 0 -7.3227621226905724 0 -1 0 I I #
coedge $-1 $367 $369 $248 $379 reversed $241 $-1 #
edge $-1 $382 -28.058157614766884 $385 28.058157614766884 $378 $527 forward 7 unknown #
coedge $-1 $373 $249 $254 $388 forward $365 $-1 #
coedge $-1 $249 $373 $367 $518 reversed $365 $-1 #
vertex $-1 $250 $528 #
straight-curve $-1 0 28.058157614766884 7.3227621226905724 -1 0 0 I I #
coedge $-1 $251 $368 $253 $387 reversed $151 $-1 #
vertex $-1 $379 $529 #
straight-curve $-1 0 -28.058157614766884 7.3227621226905724 1 0 0 I I #
edge $-1 $256 -7.3227621226905724 $376 7.3227621226905724 $253 $530 forward 7 unknown #
edge $-1 $257 -7.3227621226905724 $375 7.3227621226905724 $254 $531 forward 7 unknown #
point $-1 47.72240363780633 -28.058157614766884 7.3227621226905724 #
point $-1 47.72240363780633 28.058157614766884 7.3227621226905724 #
face $-1 $-1 $274 $37 $-1 $532 reversed single #
loop $-1 $-1 $270 $259 #
plane-surface $-1 0 -28.058157614766884 0 0 1 0 0 0 1 forward_v I I I I #
coedge $-1 $533 $534 $267 $404 forward $260 $-1 #
coedge $-1 $405 $262 $264 $400 reversed $159 $-1 #
edge $-1 $402 -2.9527735466158882 $275 1.1803956893322622 $273 $535 forward 7 unknown #
coedge $-1 $264 $263 $536 $537 reversed $101 $-1 #
coedge $-1 $409 $408 $263 $399 forward $392 $-1 #
edge $-1 $538 -47.72240363780633 $401 47.72240363780633 $398 $539 forward 7 unknown #
edge $-1 $540 -47.72240363780633 $402 47.72240363780633 $395 $541 forward 7 unknown #
vertex $-1 $399 $542 #
vertex $-1 $266 $543 #
straight-curve $-1 47.72240363780633 -12.475312135181865 -3.8389624752577012 0 1 0 I I #
edge $-1 $410 -15.58284547958502 $406 -9.3677787907787096 $394 $544 forward 7 unknown #
coedge $-1 $268 $395 $533 $545 reversed $159 $-1 #
vertex $-1 $404 $546 #
straight-curve $-1 0 -21.843090925960574 0.29420676069044926 -1 0 0 I I #
coedge $-1 $398 $270 $534 $547 forward $392 $-1 #
coedge $-1 $270 $398 $272 $412 reversed $392 $-1 #
vertex $-1 $547 $548 #
straight-curve $-1 0 -28.058157614766884 0.29420676069044926 -1 0 0 I I #
edge $-1 $276 -0.29420676069044926 $401 3.8389624752577012 $272 $549 forward 7 unknown #
point $-1 47.72240363780633 -21.843090925960574 0.29420676069044926 #
point $-1 47.72240363780633 -28.058157614766884 0.29420676069044926 #
face $-1 $-1 $429 $38 $-1 $550 reversed single #
loop $-1 $-1 $421 $278 #
plane-surface $-1 -47.72240363780633 0 0 1 0 0 0 0 -1 forward_v I I I I #
coedge $-1 $551 $552 $281 $420 forward $279 $-1 #
coedge $-1 $282 $281 $289 $434 reversed $105 $-1 #
edge $-1 $553 -47.72240363780633 $423 47.72240363780633 $418 $554 forward 7 unknown #
coedge $-1 $555 $283 $285 $426 forward $416 $-1 #
coedge $-1 $283 $555 $551 $556 reversed $416 $-1 #
vertex $-1 $556 $557 #
vertex $-1 $426 $558 #
straight-curve $-1 -47.72240363780633 21.575974477864406 -2.9113810613452862 0 0 1 I I #
edge $-1 $424 9.1674414547065837 $430 15.649624591609061 $421 $559 forward 7 unknown #
coedge $-1 $560 $286 $290 $435 forward $429 $-1 #
coedge $-1 $286 $560 $555 $561 reversed $429 $-1 #
loop $-1 $-1 $286 $415 #
vertex $-1 $561 $562 #
straight-curve $-1 0 28.058157614766884 -4.3227621226905724 1 0 0 I I #
straight-curve $-1 0 21.575974477864406 -4.3227621226905724 1 0 0 I I #
coedge $-1 $290 $289 $552 $563 reversed $167 $-1 #
edge $-1 $292 1.4113810613452862 $553 4.4113810613452866 $289 $564 forward 7 unknown #
edge $-1 $291 4.3227621226905724 $565 7.3227621226905724 $290 $566 forward 7 unknown #
point $-1 47.72240363780633 28.058157614766884 -4.3227621226905724 #
point $-1 47.72240363780633 21.575974477864406 -4.3227621226905724 #
plane-surface $-1 47.72240363780633 0 0 -1 0 0 0 0 1 forward_v I I I I #
coedge $-1 $449 $448 $441 $567 forward $295 $-1 #
coedge $-1 $441 $297 $299 $445 reversed $175 $-1 #
coedge $-1 $297 $440 $439 $567 reversed $175 $-1 #
coedge $-1 $305 $300 $297 $443 forward $306 $-1 #
edge $-1 $446 -65.345450647357538 $568 -62.290570156527174 $442 $569 forward 7 unknown #
coedge $-1 $299 $298 $449 $570 reversed $109 $-1 #
edge $-1 $571 91.047134138925713 $446 95.444807275612646 $440 $572 forward 7 unknown #
vertex $-1 $301 $573 #
straight-curve $-1 47.72240363780633 -8.3689040483876678 4.267881631860206 0 1 0 I I #
coedge $-1 $439 $302 $305 $453 forward $295 $-1 #
coedge $-1 $302 $439 $444 $570 forward $295 $-1 #
vertex $-1 $303 $574 #
straight-curve $-1 22.683345425362727 -21.843090925960574 7.3227621226905768 1 0 0 I I #
straight-curve $-1 -20.934844219021748 -21.843090925960574 70.569416701607395 -0.71933979245794832 0 0.69465837861970381 I I #
edge $-1 $307 -21.843090925960574 $568 -11.632525267590097 $305 $575 forward 7 unknown #
point $-1 47.72240363780633 -21.843090925960574 7.3227621226905724 #
point $-1 47.72240363780633 -21.843090925960574 4.267881631860206 #
edge $-1 $576 1 $576 0 $310 $-1 forward 7 unknown #
vertex $-1 $311 $577 #
ellipse-curve $-1 45.400115552084969 -18.925786452140436 5.0284315006789972 0.69465837861970381 0 0.71933979245794832 0.71933979245794832 0 -0.69465837861970381 1 I I #
point $-1 46.860032789543133 -18.925786452140436 5.1006634986556723 #
edge $-1 $578 1 $578 0 $314 $-1 forward 7 unknown #
vertex $-1 $315 $579 #
ellipse-curve $-1 45.400115552084969 -14.549829741410232 5.0284315006789972 0.69465837861970381 0 0.71933979245794832 0.71933979245794832 0 -0.69465837861970381 1 I I #
point $-1 46.860032789543133 -14.549829741410232 5.1006634986556723 #
loop $-1 $-1 $326 $318 #
plane-surface $-1 0 0 7.3227621226905724 0 0 1 1 0 0 forward_v I I I I #
coedge $-1 $467 $321 $323 $471 reversed $197 $-1 #
coedge $-1 $321 $466 $580 $581 reversed $197 $-1 #
coedge $-1 $329 $324 $321 $469 forward $319 $-1 #
edge $-1 $472 -65.345450647357538 $582 -62.290570156527174 $468 $583 forward 7 unknown #
coedge $-1 $323 $322 $475 $584 reversed $123 $-1 #
edge $-1 $585 91.047134138925713 $472 95.444807275612646 $466 $586 forward 7 unknown #
vertex $-1 $325 $587 #
straight-curve $-1 47.72240363780633 2.4858623025685773 4.267881631860206 0 1 0 I I #
coedge $-1 $580 $326 $329 $479 forward $464 $-1 #
coedge $-1 $326 $580 $470 $584 forward $464 $-1 #
vertex $-1 $327 $588 #
straight-curve $-1 22.683345425362727 -0.13355822404808393 7.3227621226905768 1 0 0 I I #
straight-curve $-1 -20.934844219021748 -0.13355822404808393 70.569416701607395 -0.71933979245794832 0 0.69465837861970381 I I #
edge $-1 $330 -0.13355822404808393 $582 10.077007434322393 $329 $589 forward 7 unknown #
point $-1 47.72240363780633 -0.13355822404808393 7.3227621226905724 #
point $-1 47.72240363780633 -0.13355822404808393 4.267881631860206 #
edge $-1 $590 1 $590 0 $333 $-1 forward 7 unknown #
vertex $-1 $334 $591 #
ellipse-curve $-1 45.400115552084969 2.7837462497720509 5.0284315006789972 0.69465837861970381 0 0.71933979245794832 0.71933979245794832 0 -0.69465837861970381 1 I I #
point $-1 46.860032789543133 2.7837462497720509 5.1006634986556723 #
edge $-1 $592 1 $592 0 $337 $-1 forward 7 unknown #
vertex $-1 $338 $593 #
ellipse-curve $-1 45.400115552084969 7.1597029605022584 5.0284315006789972 0.69465837861970381 0 0.71933979245794832 0.71933979245794832 0 -0.69465837861970381 1 I I #
point $-1 46.860032789543133 7.1597029605022584 5.1006634986556723 #
loop $-1 $-1 $349 $341 #
plane-surface $-1 0 0 7.3227621226905724 0 0 1 1 0 0 forward_v I I I I #
coedge $-1 $493 $344 $346 $497 reversed $219 $-1 #
coedge $-1 $344 $492 $594 $595 reversed $219 $-1 #
coedge $-1 $352 $347 $344 $495 forward $342 $-1 #
edge $-1 $498 -23.200659432764084 $596 -20.054619280482225 $494 $597 forward 7 unknown #
coedge $-1 $346 $345 $501 $598 reversed $137 $-1 #
edge $-1 $599 -3.7097425690148658 $498 3.9918193188544054e-014 $492 $600 forward 7 unknown #
vertex $-1 $348 $601 #
straight-curve $-1 -47.72240363780633 7.3053219463425378 4.1767219704087246 0 -1 0 I I #
coedge $-1 $594 $349 $352 $505 forward $490 $-1 #
coedge $-1 $349 $594 $496 $598 forward $490 $-1 #
vertex $-1 $350 $602 #
straight-curve $-1 -64.332095746135437 19.315882338285405 7.3227621226905732 -1 0 0 I I #
straight-curve $-1 -47.722403637806309 19.315882338285405 4.1767219704087495 0.52991925155115449 0 0.84804810408105047 I I #
edge $-1 $353 -19.315882338285405 $596 -9.9054054470847461 $352 $603 forward 7 unknown #
point $-1 -47.72240363780633 19.315882338285405 7.3227621226905724 #
point $-1 -47.72240363780633 19.315882338285405 4.1767219704087157 #
edge $-1 $604 1 $604 0 $356 $-1 forward 7 unknown #
vertex $-1 $357 $605 #
ellipse-curve $-1 -45.838910648955462 12.594113130284939 5.187009105573253 -0.84804810408105047 0 0.52991925155115449 0.26495962577557725 0 0.42402405204052523 1 I I #
point $-1 -46.474512009220852 12.594113130284939 6.1737660985901872 #
edge $-1 $606 1 $606 0 $360 $-1 forward 7 unknown #
vertex $-1 $361 $607 #
ellipse-curve $-1 -45.838910648955462 16.62717465508522 5.187009105573253 -0.84804810408105047 0 0.52991925155115449 0.26495962577557725 0 0.42402405204052523 1 I I #
point $-1 -46.474512009220852 16.62717465508522 6.1737660985901872 #
plane-surface $-1 47.72240363780633 0 0 -1 0 0 0 0 1 forward_v I I I I #
coedge $-1 $369 $367 $371 $521 reversed $241 $-1 #
edge $-1 $382 -7.3227621226905724 $523 7.3227621226905724 $381 $608 forward 7 unknown #
vertex $-1 $521 $609 #
straight-curve $-1 -47.72240363780633 -28.058157614766884 0 0 0 -1 I I #
edge $-1 $519 -28.058157614766884 $523 28.058157614766884 $517 $610 forward 7 unknown #
straight-curve $-1 0 -28.058157614766884 -7.3227621226905724 -1 0 0 I I #
vertex $-1 $374 $611 #
straight-curve $-1 0 28.058157614766884 -7.3227621226905724 1 0 0 I I #
point $-1 47.72240363780633 28.058157614766884 -7.3227621226905724 #
point $-1 47.72240363780633 -28.058157614766884 -7.3227621226905724 #
straight-curve $-1 -47.72240363780633 0 7.3227621226905724 0 -1 0 I I #
point $-1 -47.72240363780633 28.058157614766884 7.3227621226905724 #
point $-1 -47.72240363780633 -28.058157614766884 7.3227621226905724 #
straight-curve $-1 47.72240363780633 -28.058157614766884 0 0 0 -1 I I #
straight-curve $-1 47.72240363780633 28.058157614766884 0 0 0 -1 I I #
plane-surface $-1 47.72240363780633 0 0 -1 0 0 0 0 1 forward_v I I I I #
coedge $-1 $536 $394 $405 $545 forward $260 $-1 #
coedge $-1 $394 $536 $408 $547 reversed $260 $-1 #
straight-curve $-1 47.72240363780633 -21.843090925960574 -0.88618892864181298 0 0 1 I I #
coedge $-1 $534 $533 $397 $537 forward $260 $-1 #
edge $-1 $540 9.3677787907787096 $538 15.58284547958502 $536 $612 forward 7 unknown #
vertex $-1 $399 $613 #
straight-curve $-1 0 -28.058157614766884 -3.8389624752577012 1 0 0 I I #
vertex $-1 $537 $614 #
straight-curve $-1 0 -21.843090925960574 -3.8389624752577012 1 0 0 I I #
point $-1 47.72240363780633 -28.058157614766884 -3.8389624752577012 #
point $-1 47.72240363780633 -21.843090925960574 -3.8389624752577012 #
straight-curve $-1 -47.72240363780633 -12.475312135181865 0.29420676069044926 0 1 0 I I #
edge $-1 $406 -1.1803956893322622 $540 2.9527735466158882 $533 $615 forward 7 unknown #
point $-1 -47.72240363780633 -21.843090925960574 0.29420676069044926 #
edge $-1 $410 -0.29420676069044926 $538 3.8389624752577012 $534 $616 forward 7 unknown #
point $-1 -47.72240363780633 -28.058157614766884 0.29420676069044926 #
straight-curve $-1 47.72240363780633 -28.058157614766884 0 0 0 -1 I I #
plane-surface $-1 0 28.058157614766884 0 0 -1 0 0 0 -1 forward_v I I I I #
coedge $-1 $617 $418 $422 $556 forward $279 $-1 #
coedge $-1 $418 $617 $433 $563 forward $279 $-1 #
vertex $-1 $420 $618 #
straight-curve $-1 0 21.575974477864406 -7.3227621226905724 -1 0 0 I I #
coedge $-1 $422 $421 $428 $561 forward $416 $-1 #
edge $-1 $423 21.575974477864406 $619 28.058157614766884 $422 $620 forward 7 unknown #
point $-1 -47.72240363780633 21.575974477864406 -7.3227621226905724 #
point $-1 -47.72240363780633 21.575974477864406 -4.3227621226905724 #
straight-curve $-1 -47.72240363780633 12.408533023157823 -4.3227621226905724 0 1 0 I I #
coedge $-1 $428 $427 $617 $621 reversed $429 $-1 #
edge $-1 $430 4.3227621226905724 $619 7.3227621226905724 $428 $622 forward 7 unknown #
point $-1 -47.72240363780633 28.058157614766884 -4.3227621226905724 #
edge $-1 $565 -28.058157614766884 $553 -21.575974477864406 $433 $623 forward 7 unknown #
straight-curve $-1 47.72240363780633 21.575974477864406 -2.9113810613452862 0 0 -1 I I #
vertex $-1 $563 $624 #
straight-curve $-1 47.72240363780633 28.058157614766884 0 0 0 -1 I I #
edge $-1 $568 -25.039058212443603 $571 -21.875636931001335 $439 $625 forward 7 unknown #
vertex $-1 $567 $626 #
straight-curve $-1 47.72240363780633 -11.632525267590097 69.613332279217744 0 0 1 I I #
edge $-1 $571 3.2636212192024292 $450 13.474186877572906 $449 $627 forward 7 unknown #
vertex $-1 $570 $628 #
straight-curve $-1 -20.934844219021748 -11.632525267590097 70.569416701607395 0.71933979245794832 0 -0.69465837861970381 I I #
point $-1 47.72240363780633 -11.632525267590097 4.267881631860206 #
point $-1 44.558982356364062 -21.843090925960574 7.3227621226905697 #
straight-curve $-1 47.72240363780633 0 7.3227621226905724 0 1 0 I I #
vertex $-1 $456 $629 #
point $-1 46.119455344542914 -18.925786452140436 4.3337731220592932 #
vertex $-1 $460 $630 #
point $-1 46.119455344542914 -14.549829741410232 4.3337731220592932 #
coedge $-1 $475 $474 $467 $581 forward $464 $-1 #
edge $-1 $582 -25.039058212443603 $585 -21.875636931001335 $580 $631 forward 7 unknown #
vertex $-1 $581 $632 #
straight-curve $-1 47.72240363780633 10.077007434322393 69.613332279217744 0 0 1 I I #
edge $-1 $585 -7.5911451317538159 $476 2.6194205266166612 $475 $633 forward 7 unknown #
vertex $-1 $584 $634 #
straight-curve $-1 -20.934844219021748 10.077007434322393 70.569416701607395 0.71933979245794832 0 -0.69465837861970381 I I #
point $-1 47.72240363780633 10.077007434322393 4.267881631860206 #
point $-1 44.558982356364062 -0.13355822404808393 7.3227621226905697 #
straight-curve $-1 47.72240363780633 0 7.3227621226905724 0 1 0 I I #
vertex $-1 $482 $635 #
point $-1 46.119455344542914 2.7837462497720509 4.3337731220592932 #
vertex $-1 $486 $636 #
point $-1 46.119455344542914 7.1597029605022584 4.3337731220592932 #
coedge $-1 $501 $500 $493 $595 forward $490 $-1 #
edge $-1 $596 16.609692108329106 $599 18.575556113948942 $594 $637 forward 7 unknown #
vertex $-1 $595 $638 #
straight-curve $-1 -47.72240363780633 9.9054054470847461 27.377381403172798 0 0 1 I I #
edge $-1 $599 2.6000835007422083 $502 12.010560391942867 $501 $639 forward 7 unknown #
vertex $-1 $598 $640 #
straight-curve $-1 -47.722403637806309 9.9054054470847461 4.1767219704087495 -0.52991925155115449 0 -0.84804810408105047 I I #
point $-1 -47.72240363780633 9.9054054470847461 4.1767219704087157 #
point $-1 -45.756539632186495 19.315882338285405 7.3227621226905724 #
straight-curve $-1 -47.72240363780633 0 7.3227621226905724 0 -1 0 I I #
vertex $-1 $508 $641 #
point $-1 -45.573951023179887 12.594113130284939 5.6110331576137789 #
vertex $-1 $512 $642 #
point $-1 -45.573951023179887 16.62717465508522 5.6110331576137789 #
straight-curve $-1 -47.72240363780633 28.058157614766884 0 0 0 -1 I I #
point $-1 -47.72240363780633 -28.058157614766884 -7.3227621226905724 #
straight-curve $-1 -47.72240363780633 0 -7.3227621226905724 0 1 0 I I #
point $-1 -47.72240363780633 28.058157614766884 -7.3227621226905724 #
straight-curve $-1 -47.72240363780633 -12.475312135181865 -3.8389624752577012 0 -1 0 I I #
point $-1 -47.72240363780633 -28.058157614766884 -3.8389624752577012 #
point $-1 -47.72240363780633 -21.843090925960574 -3.8389624752577012 #
straight-curve $-1 -47.72240363780633 -21.843090925960574 -0.88618892864181298 0 0 -1 I I #
straight-curve $-1 -47.72240363780633 -28.058157614766884 0 0 0 -1 I I #
coedge $-1 $552 $551 $560 $621 forward $279 $-1 #
point $-1 47.72240363780633 21.575974477864406 -7.3227621226905724 #
vertex $-1 $621 $643 #
straight-curve $-1 -47.72240363780633 0 -7.3227621226905724 0 1 0 I I #
edge $-1 $619 -47.72240363780633 $565 47.72240363780633 $560 $644 forward 7 unknown #
straight-curve $-1 -47.72240363780633 28.058157614766884 0 0 0 -1 I I #
straight-curve $-1 47.72240363780633 0 -7.3227621226905724 0 -1 0 I I #
point $-1 47.72240363780633 28.058157614766884 -7.3227621226905724 #
straight-curve $-1 22.683345425362727 -11.632525267590097 7.3227621226905768 -1 0 0 I I #
point $-1 47.72240363780633 -11.632525267590097 7.3227621226905724 #
straight-curve $-1 44.558982356364062 -8.3689040483876678 7.3227621226905697 0 -1 0 I I #
point $-1 44.558982356364062 -11.632525267590097 7.3227621226905697 #
point $-1 44.705457173465263 -18.925786452140436 4.3090917082210494 #
point $-1 44.705457173465263 -14.549829741410232 4.3090917082210494 #
straight-curve $-1 22.683345425362727 10.077007434322393 7.3227621226905768 -1 0 0 I I #
point $-1 47.72240363780633 10.077007434322393 7.3227621226905724 #
straight-curve $-1 44.558982356364062 2.4858623025685773 7.3227621226905697 0 -1 0 I I #
point $-1 44.558982356364062 10.077007434322393 7.3227621226905697 #
point $-1 44.705457173465263 2.7837462497720509 4.3090917082210494 #
point $-1 44.705457173465263 7.1597029605022584 4.3090917082210494 #
straight-curve $-1 -64.332095746135437 9.9054054470847461 7.3227621226905732 1 0 0 I I #
point $-1 -47.72240363780633 9.9054054470847461 7.3227621226905724 #
straight-curve $-1 -45.756539632186495 7.3053219463425378 7.3227621226905732 0 1 0 I I #
point $-1 -45.756539632186495 9.9054054470847461 7.3227621226905724 #
point $-1 -45.41488659691494 12.594113130284939 4.9220494797976766 #
point $-1 -45.41488659691494 16.62717465508522 4.9220494797976766 #
point $-1 -47.72240363780633 28.058157614766884 -7.3227621226905724 #
straight-curve $-1 0 28.058157614766884 -7.3227621226905724 1 0 0 I I #
End-of-ACIS-data 