500 0 16 0           
7 Unknown 11 ACIS 5.0 NT 24 Thu Mar 25 23:11:29 1999 
-1 9.9999999999999995e-007 1e-010 
body $-1 $16 $-1 $17 #
body $-1 $18 $-1 $19 #
body $-1 $20 $-1 $21 #
body $-1 $22 $-1 $23 #
body $-1 $24 $-1 $25 #
body $-1 $26 $-1 $27 #
body $-1 $28 $-1 $29 #
body $-1 $30 $-1 $31 #
body $-1 $32 $-1 $33 #
body $-1 $34 $-1 $35 #
body $-1 $36 $-1 $37 #
body $-1 $38 $-1 $39 #
body $-1 $40 $-1 $41 #
body $-1 $42 $-1 $43 #
body $-1 $44 $-1 $45 #
body $-1 $46 $-1 $47 #
lump $-1 $-1 $48 $0 #
transform $-1 1 0 0 0 1 0 0 0 1 67.484969634083072 37.681150423542604 11.655776737202087 1 rotate no_reflect no_shear #
lump $-1 $-1 $49 $1 #
transform $-1 1 0 0 0 1 0 0 0 1 67.484969634083072 37.681150423542604 11.655776737202087 1 rotate no_reflect no_shear #
lump $-1 $-1 $50 $2 #
transform $-1 1 0 0 0 1 0 0 0 1 67.484969634083072 37.681150423542604 11.655776737202087 1 rotate no_reflect no_shear #
lump $-1 $-1 $51 $3 #
transform $-1 1 0 0 0 1 0 0 0 1 67.484969634083072 37.681150423542604 11.655776737202087 1 rotate no_reflect no_shear #
lump $-1 $-1 $52 $4 #
transform $-1 1 0 0 0 1 0 0 0 1 67.484969634083072 37.681150423542604 11.655776737202087 1 rotate no_reflect no_shear #
lump $-1 $-1 $53 $5 #
transform $-1 1 0 0 0 1 0 0 0 1 67.484969634083072 37.681150423542604 11.655776737202087 1 rotate no_reflect no_shear #
lump $-1 $-1 $54 $6 #
transform $-1 1 0 0 0 1 0 0 0 1 67.484969634083072 37.681150423542604 11.655776737202087 1 rotate no_reflect no_shear #
lump $-1 $-1 $55 $7 #
transform $-1 1 0 0 0 1 0 0 0 1 67.484969634083072 37.681150423542604 11.655776737202087 1 rotate no_reflect no_shear #
lump $-1 $-1 $56 $8 #
transform $-1 1 0 0 0 1 0 0 0 1 67.484969634083072 37.681150423542604 11.655776737202087 1 rotate no_reflect no_shear #
lump $-1 $-1 $57 $9 #
transform $-1 1 0 0 0 1 0 0 0 1 67.484969634083072 37.681150423542604 11.655776737202087 1 rotate no_reflect no_shear #
lump $-1 $-1 $58 $10 #
transform $-1 1 0 0 0 1 0 0 0 1 67.484969634083072 37.681150423542604 11.655776737202087 1 rotate no_reflect no_shear #
lump $-1 $-1 $59 $11 #
transform $-1 1 0 0 0 1 0 0 0 1 67.484969634083072 37.681150423542604 11.655776737202087 1 rotate no_reflect no_shear #
lump $-1 $-1 $60 $12 #
transform $-1 1 0 0 0 1 0 0 0 1 67.484969634083072 37.681150423542604 11.655776737202087 1 rotate no_reflect no_shear #
lump $-1 $-1 $61 $13 #
transform $-1 1 0 0 0 1 0 0 0 1 67.484969634083072 37.681150423542604 11.655776737202087 1 rotate no_reflect no_shear #
lump $-1 $-1 $62 $14 #
transform $-1 1 0 0 0 1 0 0 0 1 67.484969634083072 37.681150423542604 11.655776737202087 1 rotate no_reflect no_shear #
lump $-1 $-1 $63 $15 #
transform $-1 1 0 0 0 1 0 0 0 1 67.484969634083072 37.681150423542604 11.655776737202087 1 rotate no_reflect no_shear #
shell $-1 $-1 $-1 $64 $-1 $16 #
shell $-1 $-1 $-1 $65 $-1 $18 #
shell $-1 $-1 $-1 $66 $-1 $20 #
shell $-1 $-1 $-1 $67 $-1 $22 #
shell $-1 $-1 $-1 $68 $-1 $24 #
shell $-1 $-1 $-1 $69 $-1 $26 #
shell $-1 $-1 $-1 $70 $-1 $28 #
shell $-1 $-1 $-1 $71 $-1 $30 #
shell $-1 $-1 $-1 $72 $-1 $32 #
shell $-1 $-1 $-1 $73 $-1 $34 #
shell $-1 $-1 $-1 $74 $-1 $36 #
shell $-1 $-1 $-1 $75 $-1 $38 #
shell $-1 $-1 $-1 $76 $-1 $40 #
shell $-1 $-1 $-1 $77 $-1 $42 #
shell $-1 $-1 $-1 $78 $-1 $44 #
shell $-1 $-1 $-1 $79 $-1 $46 #
face $-1 $80 $81 $48 $-1 $82 forward single #
face $-1 $83 $84 $49 $-1 $85 reversed single #
face $-1 $86 $87 $50 $-1 $88 reversed single #
face $-1 $89 $90 $51 $-1 $91 forward single #
face $-1 $92 $93 $52 $-1 $94 forward single #
face $-1 $95 $96 $53 $-1 $97 reversed single #
face $-1 $98 $99 $54 $-1 $100 forward single #
face $-1 $101 $102 $55 $-1 $103 forward single #
face $-1 $104 $105 $56 $-1 $106 reversed single #
face $-1 $107 $108 $57 $-1 $109 forward single #
face $-1 $110 $111 $58 $-1 $112 forward single #
face $-1 $113 $114 $59 $-1 $115 reversed single #
face $-1 $116 $117 $60 $-1 $118 forward single #
face $-1 $119 $120 $61 $-1 $121 forward single #
face $-1 $122 $123 $62 $-1 $124 reversed single #
face $-1 $125 $126 $63 $-1 $127 forward single #
face $-1 $128 $129 $48 $-1 $130 reversed single #
loop $-1 $-1 $131 $64 #
plane-surface $-1 0 0 11.655776737202087 0 0 1 1 0 0 forward_v I I I I #
face $-1 $132 $133 $49 $-1 $134 reversed single #
loop $-1 $-1 $135 $65 #
plane-surface $-1 -61.787728980562434 -34.631020011517919 0 0 -1 0 0 0 -1 forward_v I I I I #
face $-1 $136 $137 $50 $-1 $138 reversed single #
loop $-1 $-1 $139 $66 #
plane-surface $-1 -46.736578164338326 -37.681150423542618 1.4565859837315713 0 -0.75470958851134928 0.65605901945558964 1 0 0 forward_v I I I I #
face $-1 $140 $141 $51 $-1 $142 forward single #
loop $-1 $143 $144 $67 #
cone-surface $-1 -50.745396805496952 -32.383979347985139 5.8049780659646082 0 0.75470958851134928 -0.65605901945558964 2 0 0 1 I I 0 1 2 forward I I I I #
face $-1 $145 $146 $52 $-1 $147 forward single #
loop $-1 $148 $149 $68 #
cone-surface $-1 -42.727759523179699 -32.383979347985139 5.8049780659646082 0 0.75470958851134928 -0.65605901945558964 2 0 0 1 I I 0 1 2 forward I I I I #
face $-1 $150 $151 $53 $-1 $152 reversed single #
loop $-1 $-1 $153 $69 #
plane-surface $-1 -6.4888035113536446 -139.5442577500221 90.004831995985143 -1 0 0 0 -0.75470958851134928 0.65605901945558964 forward_v I I I I #
face $-1 $154 $155 $54 $-1 $156 forward single #
loop $-1 $157 $158 $70 #
cone-surface $-1 -19.851532315215735 -32.383979347985139 5.8049780659646082 0 0.75470958851134928 -0.65605901945558964 2 0 0 1 I I 0 1 2 forward I I I I #
face $-1 $159 $160 $55 $-1 $161 forward single #
loop $-1 $162 $163 $71 #
cone-surface $-1 -11.833895032898482 -32.383979347985139 5.8049780659646082 0 0.75470958851134928 -0.65605901945558964 2 0 0 1 I I 0 1 2 forward I I I I #
face $-1 $164 $165 $56 $-1 $166 reversed single #
loop $-1 $-1 $167 $72 #
plane-surface $-1 24.405060978927573 -139.5442577500221 90.004831995985143 -1 0 0 0 -0.75470958851134928 0.65605901945558964 forward_v I I I I #
face $-1 $168 $169 $57 $-1 $170 forward single #
loop $-1 $171 $172 $73 #
cone-surface $-1 11.042332175065482 -32.383979347985139 5.8049780659646082 0 0.75470958851134928 -0.65605901945558964 2 0 0 1 I I 0 1 2 forward I I I I #
face $-1 $173 $174 $58 $-1 $175 forward single #
loop $-1 $176 $177 $74 #
cone-surface $-1 19.059969457382735 -32.383979347985139 5.8049780659646082 0 0.75470958851134928 -0.65605901945558964 2 0 0 1 I I 0 1 2 forward I I I I #
face $-1 $178 $179 $59 $-1 $180 reversed single #
loop $-1 $-1 $181 $75 #
plane-surface $-1 55.29892546920879 -139.5442577500221 90.004831995985143 -1 0 0 0 -0.75470958851134928 0.65605901945558964 forward_v I I I I #
face $-1 $182 $183 $60 $-1 $184 forward single #
loop $-1 $185 $186 $76 #
cone-surface $-1 41.936196665346699 -32.383979347985139 5.8049780659646082 0 0.75470958851134928 -0.65605901945558964 2 0 0 1 I I 0 1 2 forward I I I I #
face $-1 $187 $188 $61 $-1 $189 forward single #
loop $-1 $190 $191 $77 #
cone-surface $-1 49.953833947663952 -32.383979347985139 5.8049780659646082 0 0.75470958851134928 -0.65605901945558964 2 0 0 1 I I 0 1 2 forward I I I I #
face $-1 $192 $193 $62 $-1 $194 reversed single #
loop $-1 $-1 $195 $78 #
plane-surface $-1 -6.7266981630115517 87.556142134104547 146.42249267359011 1 0 0 0 -0.74314483375859142 -0.66913059716165679 forward_v I I I I #
face $-1 $196 $197 $63 $-1 $198 forward single #
loop $-1 $199 $200 $79 #
cone-surface $-1 -0.13232373087174665 29.017009494026667 2.7614145346198855 0 -0.74314483375859142 -0.66913059716165679 3 0 0 1 I I 0 1 3 forward I I I I #
face $-1 $201 $202 $48 $-1 $203 reversed single #
loop $-1 $-1 $204 $80 #
plane-surface $-1 0 0 -11.655776737202087 0 0 1 1 0 0 forward_v I I I I #
coedge $-1 $205 $206 $207 $208 forward $81 $-1 #
face $-1 $209 $210 $49 $-1 $211 forward single #
loop $-1 $-1 $212 $83 #
plane-surface $-1 -56.090488327041797 -36.156085217530261 0 -1 0 0 0 0 1 forward_v I I I I #
coedge $-1 $213 $214 $215 $216 forward $84 $-1 #
face $-1 $217 $218 $50 $-1 $219 forward single #
loop $-1 $-1 $220 $86 #
plane-surface $-1 -37.382668001634862 -139.5442577500221 90.004831995985143 -1 0 0 0 -0.75470958851134928 0.65605901945558964 forward_v I I I I #
coedge $-1 $221 $222 $223 $224 reversed $87 $-1 #
face $-1 $-1 $225 $51 $-1 $226 forward single #
loop $-1 $227 $228 $89 #
cone-surface $-1 -50.745396805496952 -30.765109200028089 4.397715752006798 0 0.75470958851134928 -0.65605901945558964 1 0 0 1 I I -0.70710678118654746 0.70710678118654746 1 forward I I I I #
loop $-1 $-1 $229 $67 #
coedge $-1 $144 $144 $230 $231 reversed $90 $-1 #
face $-1 $-1 $232 $52 $-1 $233 forward single #
loop $-1 $234 $235 $92 #
cone-surface $-1 -42.727759523179699 -30.765109200028089 4.397715752006798 0 0.75470958851134928 -0.65605901945558964 1 0 0 1 I I -0.70710678118654746 0.70710678118654746 1 forward I I I I #
loop $-1 $-1 $236 $68 #
coedge $-1 $149 $149 $237 $238 reversed $93 $-1 #
face $-1 $239 $240 $53 $-1 $241 reversed single #
loop $-1 $-1 $242 $95 #
plane-surface $-1 -15.842713674057109 -37.681150423542618 1.4565859837315713 0 -0.75470958851134928 0.65605901945558964 1 0 0 forward_v I I I I #
coedge $-1 $243 $244 $245 $246 reversed $96 $-1 #
face $-1 $-1 $247 $54 $-1 $248 forward single #
loop $-1 $249 $250 $98 #
cone-surface $-1 -19.851532315215735 -30.765109200028089 4.397715752006798 0 0.75470958851134928 -0.65605901945558964 1 0 0 1 I I -0.70710678118654746 0.70710678118654746 1 forward I I I I #
loop $-1 $-1 $251 $70 #
coedge $-1 $158 $158 $252 $253 reversed $99 $-1 #
face $-1 $-1 $254 $55 $-1 $255 forward single #
loop $-1 $256 $257 $101 #
cone-surface $-1 -11.833895032898482 -30.765109200028089 4.397715752006798 0 0.75470958851134928 -0.65605901945558964 1 0 0 1 I I -0.70710678118654746 0.70710678118654746 1 forward I I I I #
loop $-1 $-1 $258 $71 #
coedge $-1 $163 $163 $259 $260 reversed $102 $-1 #
face $-1 $261 $262 $56 $-1 $263 reversed single #
loop $-1 $-1 $264 $104 #
plane-surface $-1 15.051150816224109 -37.681150423542618 1.4565859837315713 0 -0.75470958851134928 0.65605901945558964 1 0 0 forward_v I I I I #
coedge $-1 $265 $266 $267 $268 reversed $105 $-1 #
face $-1 $-1 $269 $57 $-1 $270 forward single #
loop $-1 $271 $272 $107 #
cone-surface $-1 11.042332175065482 -30.765109200028089 4.397715752006798 0 0.75470958851134928 -0.65605901945558964 1 0 0 1 I I -0.70710678118654746 0.70710678118654746 1 forward I I I I #
loop $-1 $-1 $273 $73 #
coedge $-1 $172 $172 $274 $275 reversed $108 $-1 #
face $-1 $-1 $276 $58 $-1 $277 forward single #
loop $-1 $278 $279 $110 #
cone-surface $-1 19.059969457382735 -30.765109200028089 4.397715752006798 0 0.75470958851134928 -0.65605901945558964 1 0 0 1 I I -0.70710678118654746 0.70710678118654746 1 forward I I I I #
loop $-1 $-1 $280 $74 #
coedge $-1 $177 $177 $281 $282 reversed $111 $-1 #
face $-1 $283 $284 $59 $-1 $285 reversed single #
loop $-1 $-1 $286 $113 #
plane-surface $-1 45.945015306505326 -37.681150423542618 1.4565859837315713 0 -0.75470958851134928 0.65605901945558964 1 0 0 forward_v I I I I #
coedge $-1 $287 $288 $289 $290 reversed $114 $-1 #
face $-1 $-1 $291 $60 $-1 $292 forward single #
loop $-1 $293 $294 $116 #
cone-surface $-1 41.936196665346699 -30.765109200028089 4.397715752006798 0 0.75470958851134928 -0.65605901945558964 1 0 0 1 I I -0.70710678118654746 0.70710678118654746 1 forward I I I I #
loop $-1 $-1 $295 $76 #
coedge $-1 $186 $186 $296 $297 reversed $117 $-1 #
face $-1 $-1 $298 $61 $-1 $299 forward single #
loop $-1 $300 $301 $119 #
cone-surface $-1 49.953833947663952 -30.765109200028089 4.397715752006798 0 0.75470958851134928 -0.65605901945558964 1 0 0 1 I I -0.70710678118654746 0.70710678118654746 1 forward I I I I #
loop $-1 $-1 $302 $77 #
coedge $-1 $191 $191 $303 $304 reversed $120 $-1 #
face $-1 $305 $306 $62 $-1 $307 reversed single #
loop $-1 $-1 $308 $122 #
plane-surface $-1 -0.13232373087174665 -12.746070945743966 56.10997661220955 0 0.74314483375859142 0.66913059716165679 1 0 0 forward_v I I I I #
coedge $-1 $309 $310 $311 $312 reversed $123 $-1 #
face $-1 $-1 $313 $63 $-1 $314 forward single #
loop $-1 $315 $316 $125 #
cone-surface $-1 -0.13232373087174665 24.43839181987731 -1.3611912338724874 0 -0.74314483375859142 -0.66913059716165679 1.5 0 0 1 I I -0.70710678118654757 0.70710678118654757 1.5 forward I I I I #
loop $-1 $-1 $317 $79 #
coedge $-1 $200 $200 $318 $319 reversed $126 $-1 #
face $-1 $320 $321 $48 $-1 $322 reversed single #
loop $-1 $-1 $323 $128 #
plane-surface $-1 0 -37.681150423542604 0 0 1 0 0 0 1 forward_v I I I I #
coedge $-1 $324 $325 $326 $327 forward $129 $-1 #
coedge $-1 $328 $131 $329 $330 forward $81 $-1 #
coedge $-1 $131 $328 $331 $332 forward $81 $-1 #
coedge $-1 $333 $334 $131 $208 reversed $335 $-1 #
edge $-1 $336 -37.681150423542604 $337 37.681150423542604 $207 $338 forward 7 unknown #
face $-1 $339 $340 $49 $-1 $341 reversed single #
loop $-1 $-1 $342 $132 #
plane-surface $-1 0 0 11.655776737202087 0 0 1 1 0 0 forward_v I I I I #
coedge $-1 $343 $344 $345 $346 reversed $133 $-1 #
coedge $-1 $347 $135 $348 $349 reversed $84 $-1 #
coedge $-1 $135 $347 $350 $351 reversed $84 $-1 #
coedge $-1 $344 $343 $135 $216 reversed $133 $-1 #
edge $-1 $352 -11.655776737202087 $353 11.655776737202087 $215 $354 forward 7 unknown #
face $-1 $355 $356 $50 $-1 $357 forward single #
loop $-1 $-1 $358 $136 #
plane-surface $-1 0 0 11.655776737202087 0 0 1 1 0 0 forward_v I I I I #
coedge $-1 $359 $360 $361 $362 reversed $137 $-1 #
coedge $-1 $363 $139 $364 $365 reversed $87 $-1 #
coedge $-1 $139 $363 $359 $366 forward $87 $-1 #
coedge $-1 $361 $367 $139 $224 forward $368 $-1 #
edge $-1 $369 -32.722199244872634 $370 -14.014378919465699 $223 $371 forward 7 unknown #
loop $-1 $-1 $230 $140 #
plane-surface $-1 -46.736578164338326 -37.681150423542618 1.4565859837315713 0 -0.75470958851134928 0.65605901945558964 1 0 0 forward_v I I I I #
loop $-1 $-1 $372 $89 #
coedge $-1 $228 $228 $229 $373 reversed $141 $-1 #
coedge $-1 $229 $229 $228 $373 forward $143 $-1 #
coedge $-1 $230 $230 $144 $231 forward $225 $-1 #
edge $-1 $374 -6.8563561093412139e-016 $374 6.2831853071795996 $230 $375 forward 7 unknown #
loop $-1 $-1 $237 $145 #
plane-surface $-1 -46.736578164338326 -37.681150423542618 1.4565859837315713 0 -0.75470958851134928 0.65605901945558964 1 0 0 forward_v I I I I #
loop $-1 $-1 $376 $92 #
coedge $-1 $235 $235 $236 $377 reversed $146 $-1 #
coedge $-1 $236 $236 $235 $377 forward $148 $-1 #
coedge $-1 $237 $237 $149 $238 forward $232 $-1 #
edge $-1 $378 -6.8563561093412139e-016 $378 6.2831853071795996 $237 $379 forward 7 unknown #
face $-1 $380 $381 $53 $-1 $382 forward single #
loop $-1 $-1 $383 $150 #
plane-surface $-1 -25.196623836760573 -139.5442577500221 90.004831995985143 1 0 0 0 0.75470958851134928 -0.65605901945558964 forward_v I I I I #
coedge $-1 $384 $385 $386 $387 reversed $151 $-1 #
coedge $-1 $244 $153 $388 $389 reversed $96 $-1 #
coedge $-1 $153 $243 $384 $390 reversed $96 $-1 #
coedge $-1 $386 $391 $153 $246 forward $381 $-1 #
edge $-1 $392 32.090978451468445 $393 40.956999483691952 $245 $394 forward 7 unknown #
loop $-1 $-1 $252 $154 #
plane-surface $-1 -15.842713674057109 -37.681150423542618 1.4565859837315713 0 -0.75470958851134928 0.65605901945558964 1 0 0 forward_v I I I I #
loop $-1 $-1 $395 $98 #
coedge $-1 $250 $250 $251 $396 reversed $155 $-1 #
coedge $-1 $251 $251 $250 $396 forward $157 $-1 #
coedge $-1 $252 $252 $158 $253 forward $247 $-1 #
edge $-1 $397 -6.8563561093412139e-016 $397 6.2831853071795996 $252 $398 forward 7 unknown #
loop $-1 $-1 $259 $159 #
plane-surface $-1 -15.842713674057109 -37.681150423542618 1.4565859837315713 0 -0.75470958851134928 0.65605901945558964 1 0 0 forward_v I I I I #
loop $-1 $-1 $399 $101 #
coedge $-1 $257 $257 $258 $400 reversed $160 $-1 #
coedge $-1 $258 $258 $257 $400 forward $162 $-1 #
coedge $-1 $259 $259 $163 $260 forward $254 $-1 #
edge $-1 $401 -6.8563561093412139e-016 $401 6.2831853071795996 $259 $402 forward 7 unknown #
face $-1 $403 $404 $56 $-1 $405 reversed single #
loop $-1 $-1 $406 $164 #
plane-surface $-1 5.6972406535206446 -139.5442577500221 90.004831995985143 1 0 0 0 0.75470958851134928 -0.65605901945558964 forward_v I I I I #
coedge $-1 $407 $408 $409 $410 reversed $165 $-1 #
coedge $-1 $266 $167 $411 $412 reversed $105 $-1 #
coedge $-1 $167 $265 $407 $413 reversed $105 $-1 #
coedge $-1 $409 $414 $167 $268 forward $415 $-1 #
edge $-1 $416 32.090978451468445 $417 40.956999483691952 $267 $418 forward 7 unknown #
loop $-1 $-1 $274 $168 #
plane-surface $-1 15.051150816224109 -37.681150423542618 1.4565859837315713 0 -0.75470958851134928 0.65605901945558964 1 0 0 forward_v I I I I #
loop $-1 $-1 $419 $107 #
coedge $-1 $272 $272 $273 $420 reversed $169 $-1 #
coedge $-1 $273 $273 $272 $420 forward $171 $-1 #
coedge $-1 $274 $274 $172 $275 forward $269 $-1 #
edge $-1 $421 -6.8563561093412139e-016 $421 6.2831853071795996 $274 $422 forward 7 unknown #
loop $-1 $-1 $281 $173 #
plane-surface $-1 15.051150816224109 -37.681150423542618 1.4565859837315713 0 -0.75470958851134928 0.65605901945558964 1 0 0 forward_v I I I I #
loop $-1 $-1 $423 $110 #
coedge $-1 $279 $279 $280 $424 reversed $174 $-1 #
coedge $-1 $280 $280 $279 $424 forward $176 $-1 #
coedge $-1 $281 $281 $177 $282 forward $276 $-1 #
edge $-1 $425 -6.8563561093412139e-016 $425 6.2831853071795996 $281 $426 forward 7 unknown #
face $-1 $427 $428 $59 $-1 $429 reversed single #
loop $-1 $-1 $430 $178 #
plane-surface $-1 36.591105143801862 -139.5442577500221 90.004831995985143 1 0 0 0 0.75470958851134928 -0.65605901945558964 forward_v I I I I #
coedge $-1 $431 $432 $433 $434 reversed $179 $-1 #
coedge $-1 $288 $181 $435 $436 reversed $114 $-1 #
coedge $-1 $181 $287 $431 $437 reversed $114 $-1 #
coedge $-1 $433 $438 $181 $290 forward $439 $-1 #
edge $-1 $440 32.090978451468445 $441 40.956999483691952 $289 $442 forward 7 unknown #
loop $-1 $-1 $296 $182 #
plane-surface $-1 45.945015306505326 -37.681150423542618 1.4565859837315713 0 -0.75470958851134928 0.65605901945558964 1 0 0 forward_v I I I I #
loop $-1 $-1 $443 $116 #
coedge $-1 $294 $294 $295 $444 reversed $183 $-1 #
coedge $-1 $295 $295 $294 $444 forward $185 $-1 #
coedge $-1 $296 $296 $186 $297 forward $291 $-1 #
edge $-1 $445 -6.8563561093412139e-016 $445 6.2831853071795996 $296 $446 forward 7 unknown #
loop $-1 $-1 $303 $187 #
plane-surface $-1 45.945015306505326 -37.681150423542618 1.4565859837315713 0 -0.75470958851134928 0.65605901945558964 1 0 0 forward_v I I I I #
loop $-1 $-1 $447 $119 #
coedge $-1 $301 $301 $302 $448 reversed $188 $-1 #
coedge $-1 $302 $302 $301 $448 forward $190 $-1 #
coedge $-1 $303 $303 $191 $304 forward $298 $-1 #
edge $-1 $449 -6.8563561093412139e-016 $449 6.2831853071795996 $303 $450 forward 7 unknown #
face $-1 $451 $452 $62 $-1 $453 reversed single #
loop $-1 $-1 $454 $192 #
plane-surface $-1 6.4620507012680584 87.556142134104547 146.42249267359011 -1 0 0 0 0.74314483375859142 0.66913059716165679 forward_v I I I I #
coedge $-1 $455 $456 $457 $458 reversed $193 $-1 #
coedge $-1 $310 $195 $459 $460 reversed $123 $-1 #
coedge $-1 $195 $309 $455 $461 reversed $123 $-1 #
coedge $-1 $457 $462 $195 $312 forward $463 $-1 #
edge $-1 $464 6.0969206435096694 $465 16.497401655518601 $311 $466 forward 7 unknown #
loop $-1 $-1 $318 $196 #
plane-surface $-1 -0.13232373087174665 -12.746070945743966 56.10997661220955 0 0.74314483375859142 0.66913059716165679 1 0 0 forward_v I I I I #
loop $-1 $-1 $467 $125 #
coedge $-1 $316 $316 $317 $468 reversed $197 $-1 #
coedge $-1 $317 $317 $316 $468 forward $199 $-1 #
coedge $-1 $318 $318 $200 $319 forward $313 $-1 #
edge $-1 $469 -8.8006027207469067e-016 $469 6.2831853071795996 $318 $470 forward 7 unknown #
face $-1 $471 $472 $48 $-1 $473 reversed single #
loop $-1 $-1 $474 $201 #
plane-surface $-1 -67.484969634083072 0 0 1 0 0 0 0 -1 forward_v I I I I #
coedge $-1 $475 $331 $476 $477 forward $202 $-1 #
coedge $-1 $478 $204 $475 $479 forward $129 $-1 #
coedge $-1 $204 $478 $480 $481 forward $129 $-1 #
coedge $-1 $334 $333 $204 $327 reversed $335 $-1 #
edge $-1 $482 -37.681150423542604 $483 37.681150423542604 $326 $484 forward 7 unknown #
coedge $-1 $206 $205 $485 $486 forward $81 $-1 #
coedge $-1 $487 $488 $205 $330 reversed $472 $-1 #
edge $-1 $337 -67.484969634083072 $489 67.484969634083072 $329 $490 forward 7 unknown #
coedge $-1 $323 $491 $206 $332 reversed $202 $-1 #
edge $-1 $492 -67.484969634083072 $336 67.484969634083072 $331 $493 forward 7 unknown #
coedge $-1 $326 $207 $491 $494 forward $335 $-1 #
coedge $-1 $207 $326 $487 $495 reversed $335 $-1 #
loop $-1 $-1 $333 $471 #
vertex $-1 $208 $496 #
vertex $-1 $208 $497 #
straight-curve $-1 67.484969634083072 0 11.655776737202087 0 1 0 I I #
face $-1 $498 $499 $49 $-1 $500 reversed single #
loop $-1 $-1 $501 $209 #
plane-surface $-1 -67.484969634083072 0 0 1 0 0 0 0 -1 forward_v I I I I #
coedge $-1 $350 $502 $344 $503 forward $210 $-1 #
coedge $-1 $215 $212 $504 $505 reversed $133 $-1 #
coedge $-1 $212 $215 $342 $503 reversed $133 $-1 #
coedge $-1 $506 $507 $212 $346 forward $508 $-1 #
edge $-1 $509 -11.655776737202087 $510 11.655776737202087 $345 $511 forward 7 unknown #
coedge $-1 $214 $213 $501 $512 reversed $84 $-1 #
coedge $-1 $504 $513 $213 $349 forward $499 $-1 #
edge $-1 $514 -36.591105143801855 $353 -25.19662383676058 $348 $515 forward 7 unknown #
coedge $-1 $516 $342 $214 $351 forward $210 $-1 #
edge $-1 $352 25.19662383676058 $517 36.591105143801855 $350 $518 forward 7 unknown #
vertex $-1 $351 $519 #
vertex $-1 $349 $520 #
straight-curve $-1 -56.090488327041797 -34.631020011517919 0 0 0 -1 I I #
face $-1 $-1 $368 $50 $-1 $521 reversed single #
loop $-1 $-1 $364 $217 #
plane-surface $-1 -56.090488327041797 -36.156085217530261 0 -1 0 0 0 0 1 forward_v I I I I #
coedge $-1 $522 $523 $360 $524 forward $218 $-1 #
coedge $-1 $360 $220 $222 $366 reversed $137 $-1 #
coedge $-1 $220 $359 $358 $524 reversed $137 $-1 #
coedge $-1 $525 $223 $220 $362 forward $368 $-1 #
edge $-1 $370 -43.545830014260986 $526 -33.346639260790482 $361 $527 forward 7 unknown #
coedge $-1 $222 $221 $522 $528 reversed $87 $-1 #
coedge $-1 $529 $530 $221 $365 forward $356 $-1 #
edge $-1 $531 -13.563443433949265 $369 -0.049383312375594873 $364 $532 forward 7 unknown #
edge $-1 $533 -13.514060121573694 $370 -2.1724019648727301e-014 $359 $534 forward 7 unknown #
coedge $-1 $223 $525 $529 $535 forward $368 $-1 #
loop $-1 $-1 $361 $355 #
vertex $-1 $365 $536 #
vertex $-1 $224 $537 #
straight-curve $-1 -23.368289082169163 -37.681150423542604 1.456585983731584 1 0 0 I I #
coedge $-1 $372 $372 $-1 $538 reversed $227 $-1 #
edge $-1 $539 0 $539 6.2831853071796004 $228 $540 forward 7 unknown #
vertex $-1 $231 $541 #
ellipse-curve $-1 -50.745396805496952 -33.248139907430847 6.5561813604668364 0 -0.75470958851134928 0.65605901945558964 2 0 0 1 I I #
coedge $-1 $376 $376 $-1 $542 reversed $234 $-1 #
edge $-1 $543 0 $543 6.2831853071796004 $235 $544 forward 7 unknown #
vertex $-1 $238 $545 #
ellipse-curve $-1 -42.727759523179699 -33.248139907430847 6.5561813604668364 0 -0.75470958851134928 0.65605901945558964 2 0 0 1 I I #
face $-1 $-1 $546 $53 $-1 $547 reversed single #
loop $-1 $-1 $245 $239 #
plane-surface $-1 0 0 11.655776737202087 0 0 1 1 0 0 forward_v I I I I #
coedge $-1 $548 $549 $550 $551 reversed $240 $-1 #
coedge $-1 $552 $242 $244 $390 forward $151 $-1 #
coedge $-1 $242 $552 $548 $553 forward $151 $-1 #
coedge $-1 $550 $245 $242 $387 forward $381 $-1 #
edge $-1 $393 -1.4325533256749097 $554 17.275266999732018 $386 $555 forward 7 unknown #
coedge $-1 $556 $557 $243 $389 forward $546 $-1 #
edge $-1 $558 -43.545830014260986 $392 -33.346639260790482 $388 $559 forward 7 unknown #
edge $-1 $393 -13.514060121573694 $558 -2.1724019648727301e-014 $244 $560 forward 7 unknown #
coedge $-1 $245 $550 $556 $561 forward $381 $-1 #
vertex $-1 $389 $562 #
vertex $-1 $246 $563 #
straight-curve $-1 -6.4888035113536446 -69.772128875011049 11.655776737202089 0 1 0 I I #
coedge $-1 $395 $395 $-1 $564 reversed $249 $-1 #
edge $-1 $565 0 $565 6.2831853071796004 $250 $566 forward 7 unknown #
vertex $-1 $253 $567 #
ellipse-curve $-1 -19.851532315215735 -33.248139907430847 6.5561813604668364 0 -0.75470958851134928 0.65605901945558964 2 0 0 1 I I #
coedge $-1 $399 $399 $-1 $568 reversed $256 $-1 #
edge $-1 $569 0 $569 6.2831853071796004 $257 $570 forward 7 unknown #
vertex $-1 $260 $571 #
ellipse-curve $-1 -11.833895032898482 -33.248139907430847 6.5561813604668364 0 -0.75470958851134928 0.65605901945558964 2 0 0 1 I I #
face $-1 $-1 $415 $56 $-1 $572 forward single #
loop $-1 $-1 $573 $261 #
plane-surface $-1 0 -37.681150423542604 0 0 1 0 0 0 1 forward_v I I I I #
coedge $-1 $574 $575 $576 $577 reversed $262 $-1 #
coedge $-1 $578 $264 $266 $413 forward $165 $-1 #
coedge $-1 $264 $578 $574 $579 forward $165 $-1 #
coedge $-1 $576 $267 $264 $410 forward $415 $-1 #
edge $-1 $417 -16.879485570815518 $580 1.8283347545914097 $409 $581 forward 7 unknown #
coedge $-1 $582 $583 $265 $412 forward $404 $-1 #
edge $-1 $584 -43.545830014260986 $416 -33.346639260790482 $411 $585 forward 7 unknown #
edge $-1 $417 -13.514060121573694 $584 -2.1724019648727301e-014 $266 $586 forward 7 unknown #
coedge $-1 $267 $576 $582 $587 forward $415 $-1 #
loop $-1 $-1 $576 $403 #
vertex $-1 $412 $588 #
vertex $-1 $268 $589 #
straight-curve $-1 24.405060978927573 -69.772128875011049 11.655776737202089 0 1 0 I I #
coedge $-1 $419 $419 $-1 $590 reversed $271 $-1 #
edge $-1 $591 0 $591 6.2831853071796004 $272 $592 forward 7 unknown #
vertex $-1 $275 $593 #
ellipse-curve $-1 11.042332175065482 -33.248139907430847 6.5561813604668364 0 -0.75470958851134928 0.65605901945558964 2 0 0 1 I I #
coedge $-1 $423 $423 $-1 $594 reversed $278 $-1 #
edge $-1 $595 0 $595 6.2831853071796004 $279 $596 forward 7 unknown #
vertex $-1 $282 $597 #
ellipse-curve $-1 19.059969457382735 -33.248139907430847 6.5561813604668364 0 -0.75470958851134928 0.65605901945558964 2 0 0 1 I I #
face $-1 $-1 $439 $59 $-1 $598 forward single #
loop $-1 $-1 $599 $283 #
plane-surface $-1 0 -37.681150423542604 0 0 1 0 0 0 1 forward_v I I I I #
coedge $-1 $600 $601 $602 $603 reversed $284 $-1 #
coedge $-1 $604 $286 $288 $437 forward $179 $-1 #
coedge $-1 $286 $604 $600 $605 forward $179 $-1 #
coedge $-1 $602 $289 $286 $434 forward $439 $-1 #
edge $-1 $441 -32.326417815956127 $606 -13.618597490549199 $433 $607 forward 7 unknown #
coedge $-1 $608 $609 $287 $436 forward $428 $-1 #
edge $-1 $610 -43.545830014260986 $440 -33.346639260790482 $435 $611 forward 7 unknown #
edge $-1 $441 -13.514060121573694 $610 -2.1724019648727301e-014 $288 $612 forward 7 unknown #
coedge $-1 $289 $602 $608 $613 forward $439 $-1 #
loop $-1 $-1 $602 $427 #
vertex $-1 $436 $614 #
vertex $-1 $290 $615 #
straight-curve $-1 55.29892546920879 -69.772128875011049 11.655776737202089 0 1 0 I I #
coedge $-1 $443 $443 $-1 $616 reversed $293 $-1 #
edge $-1 $617 0 $617 6.2831853071796004 $294 $618 forward 7 unknown #
vertex $-1 $297 $619 #
ellipse-curve $-1 41.936196665346699 -33.248139907430847 6.5561813604668364 0 -0.75470958851134928 0.65605901945558964 2 0 0 1 I I #
coedge $-1 $447 $447 $-1 $620 reversed $300 $-1 #
edge $-1 $621 0 $621 6.2831853071796004 $301 $622 forward 7 unknown #
vertex $-1 $304 $623 #
ellipse-curve $-1 49.953833947663952 -33.248139907430847 6.5561813604668364 0 -0.75470958851134928 0.65605901945558964 2 0 0 1 I I #
face $-1 $-1 $463 $62 $-1 $624 forward single #
loop $-1 $-1 $625 $305 #
plane-surface $-1 0 37.681150423542604 0 0 -1 0 0 0 -1 forward_v I I I I #
coedge $-1 $626 $627 $628 $629 reversed $306 $-1 #
coedge $-1 $630 $308 $310 $461 forward $193 $-1 #
coedge $-1 $308 $630 $626 $631 forward $193 $-1 #
coedge $-1 $628 $311 $308 $458 forward $463 $-1 #
edge $-1 $465 -6.6605362975756783 $632 6.5282125667039317 $457 $633 forward 7 unknown #
coedge $-1 $634 $635 $309 $460 forward $452 $-1 #
edge $-1 $636 -73.106374259257606 $464 -61.555469599592968 $459 $637 forward 7 unknown #
edge $-1 $465 59.81902565368339 $636 75.362300847085208 $310 $638 forward 7 unknown #
coedge $-1 $311 $628 $634 $639 forward $463 $-1 #
loop $-1 $-1 $628 $451 #
vertex $-1 $460 $640 #
vertex $-1 $312 $641 #
straight-curve $-1 -6.7266981630115517 43.778071067052274 11.655776737202089 0 -1 0 I I #
coedge $-1 $467 $467 $-1 $642 reversed $315 $-1 #
edge $-1 $643 0 $643 6.2831853071796004 $316 $644 forward 7 unknown #
vertex $-1 $319 $645 #
ellipse-curve $-1 -0.13232373087174665 32.480909917538135 5.8803244073697707 0 0.74314483375859142 0.66913059716165679 3 0 0 1 I I #
face $-1 $-1 $335 $48 $-1 $646 reversed single #
loop $-1 $-1 $487 $320 #
plane-surface $-1 0 37.681150423542604 0 0 -1 0 0 0 -1 forward_v I I I I #
coedge $-1 $647 $485 $488 $648 forward $321 $-1 #
coedge $-1 $491 $323 $324 $479 reversed $202 $-1 #
coedge $-1 $485 $647 $323 $477 reversed $321 $-1 #
edge $-1 $492 -11.655776737202087 $649 11.655776737202087 $476 $650 forward 7 unknown #
coedge $-1 $325 $324 $647 $651 forward $129 $-1 #
edge $-1 $483 -67.484969634083072 $649 67.484969634083072 $475 $652 forward 7 unknown #
coedge $-1 $488 $487 $325 $481 reversed $472 $-1 #
edge $-1 $653 -67.484969634083072 $482 67.484969634083072 $480 $654 forward 7 unknown #
vertex $-1 $327 $655 #
vertex $-1 $494 $656 #
straight-curve $-1 67.484969634083072 0 -11.655776737202087 0 -1 0 I I #
coedge $-1 $474 $476 $328 $486 reversed $321 $-1 #
edge $-1 $489 -37.681150423542604 $492 37.681150423542604 $485 $657 forward 7 unknown #
coedge $-1 $480 $329 $334 $495 forward $472 $-1 #
coedge $-1 $329 $480 $474 $648 reversed $472 $-1 #
vertex $-1 $330 $658 #
straight-curve $-1 0 37.681150423542604 11.655776737202087 -1 0 0 I I #
coedge $-1 $331 $475 $333 $494 reversed $202 $-1 #
vertex $-1 $486 $659 #
straight-curve $-1 0 -37.681150423542604 11.655776737202087 1 0 0 I I #
edge $-1 $336 -11.655776737202087 $483 11.655776737202087 $333 $660 forward 7 unknown #
edge $-1 $337 -11.655776737202087 $482 11.655776737202087 $334 $661 forward 7 unknown #
point $-1 67.484969634083072 -37.681150423542604 11.655776737202087 #
point $-1 67.484969634083072 37.681150423542604 11.655776737202087 #
face $-1 $-1 $508 $49 $-1 $662 reversed single #
loop $-1 $-1 $504 $339 #
plane-surface $-1 0 0 -11.655776737202087 0 0 1 1 0 0 forward_v I I I I #
coedge $-1 $663 $664 $347 $512 forward $340 $-1 #
coedge $-1 $342 $516 $506 $665 forward $210 $-1 #
edge $-1 $510 -19.603107814777474 $352 -16.552977402752788 $342 $666 forward 7 unknown #
coedge $-1 $667 $348 $343 $505 forward $499 $-1 #
edge $-1 $353 16.552977402752788 $509 19.603107814777474 $504 $668 forward 7 unknown #
coedge $-1 $669 $345 $502 $665 reversed $508 $-1 #
coedge $-1 $345 $669 $667 $670 reversed $508 $-1 #
loop $-1 $-1 $345 $498 #
vertex $-1 $670 $671 #
vertex $-1 $346 $672 #
straight-curve $-1 -56.090488327041797 -37.681150423542604 0 0 0 1 I I #
edge $-1 $517 -11.655776737202087 $514 11.655776737202087 $501 $673 forward 7 unknown #
coedge $-1 $348 $667 $663 $674 forward $499 $-1 #
vertex $-1 $349 $675 #
straight-curve $-1 -30.893864490281217 -34.631020011517919 -11.655776737202087 1 0 0 I I #
coedge $-1 $502 $350 $664 $676 forward $210 $-1 #
vertex $-1 $676 $677 #
straight-curve $-1 -30.893864490281217 -34.631020011517919 11.655776737202087 -1 0 0 I I #
point $-1 -56.090488327041797 -34.631020011517919 11.655776737202087 #
point $-1 -56.090488327041797 -34.631020011517919 -11.655776737202087 #
plane-surface $-1 0 -37.681150423542604 0 0 1 0 0 0 1 forward_v I I I I #
coedge $-1 $678 $358 $363 $528 forward $218 $-1 #
coedge $-1 $358 $678 $525 $679 forward $218 $-1 #
edge $-1 $526 32.090978451468445 $533 40.956999483691952 $358 $680 forward 7 unknown #
coedge $-1 $367 $361 $523 $679 reversed $368 $-1 #
vertex $-1 $524 $681 #
straight-curve $-1 -37.382668001634862 -37.681150423542604 45.002415997992571 0 0 1 I I #
edge $-1 $533 14.014378919465699 $531 32.722199244872627 $522 $682 forward 7 unknown #
coedge $-1 $530 $364 $367 $535 reversed $356 $-1 #
coedge $-1 $364 $529 $678 $683 reversed $356 $-1 #
vertex $-1 $683 $684 #
straight-curve $-1 -56.090488327041797 -37.713548791037205 1.4193159243692741 0 -0.65605901945558975 -0.75470958851134939 I I #
vertex $-1 $528 $685 #
straight-curve $-1 -37.382668001634862 -37.681150423542618 1.4565859837315713 0 -0.65605901945558964 -0.75470958851134928 I I #
edge $-1 $686 -11.655776737202087 $369 -1.4565859837315878 $367 $687 forward 7 unknown #
point $-1 -56.090488327041797 -37.681150423542604 1.4565859837315878 #
point $-1 -37.382668001634862 -37.681150423542604 1.4565859837315878 #
edge $-1 $688 1 $688 0 $372 $-1 forward 7 unknown #
vertex $-1 $373 $689 #
ellipse-curve $-1 -50.745396805496952 -31.519818788539439 5.053774771462388 0 -0.75470958851134928 0.65605901945558964 2 0 0 1 I I #
point $-1 -48.745396805496952 -33.24813990743084 6.5561813604668284 #
edge $-1 $690 1 $690 0 $376 $-1 forward 7 unknown #
vertex $-1 $377 $691 #
ellipse-curve $-1 -42.727759523179699 -31.519818788539439 5.053774771462388 0 -0.75470958851134928 0.65605901945558964 2 0 0 1 I I #
point $-1 -40.727759523179699 -33.24813990743084 6.5561813604668284 #
loop $-1 $-1 $388 $380 #
plane-surface $-1 0 -37.681150423542604 0 0 1 0 0 0 1 forward_v I I I I #
coedge $-1 $549 $383 $385 $553 reversed $240 $-1 #
coedge $-1 $383 $548 $692 $693 reversed $240 $-1 #
coedge $-1 $391 $386 $383 $551 forward $381 $-1 #
edge $-1 $554 -40.956999483691952 $694 -32.090978451468445 $550 $695 forward 7 unknown #
coedge $-1 $385 $384 $557 $696 reversed $151 $-1 #
edge $-1 $697 2.1724019648727301e-014 $554 13.514060121573694 $548 $698 forward 7 unknown #
vertex $-1 $387 $699 #
straight-curve $-1 -7.9213568370285543 -28.815129391319097 11.655776737202087 -1 0 0 I I #
coedge $-1 $692 $388 $391 $561 reversed $546 $-1 #
coedge $-1 $388 $692 $552 $696 forward $546 $-1 #
vertex $-1 $389 $700 #
straight-curve $-1 -6.4888035113536446 -37.681150423542604 45.002415997992571 0 0 1 I I #
straight-curve $-1 -6.4888035113536446 -37.681150423542618 1.4565859837315713 0 -0.65605901945558964 -0.75470958851134928 I I #
edge $-1 $694 -25.196623836760573 $392 -6.4888035113536446 $556 $701 forward 7 unknown #
point $-1 -6.4888035113536446 -37.681150423542604 11.655776737202087 #
point $-1 -6.4888035113536446 -28.815129391319097 11.655776737202087 #
edge $-1 $702 1 $702 0 $395 $-1 forward 7 unknown #
vertex $-1 $396 $703 #
ellipse-curve $-1 -19.851532315215735 -31.519818788539439 5.053774771462388 0 -0.75470958851134928 0.65605901945558964 2 0 0 1 I I #
point $-1 -17.851532315215735 -33.24813990743084 6.5561813604668284 #
edge $-1 $704 1 $704 0 $399 $-1 forward 7 unknown #
vertex $-1 $400 $705 #
ellipse-curve $-1 -11.833895032898482 -31.519818788539439 5.053774771462388 0 -0.75470958851134928 0.65605901945558964 2 0 0 1 I I #
point $-1 -9.8338950328984822 -33.24813990743084 6.5561813604668284 #
plane-surface $-1 0 0 11.655776737202087 0 0 1 1 0 0 forward_v I I I I #
coedge $-1 $583 $582 $575 $706 forward $404 $-1 #
coedge $-1 $575 $406 $408 $579 reversed $262 $-1 #
coedge $-1 $406 $574 $573 $706 reversed $262 $-1 #
coedge $-1 $414 $409 $406 $577 forward $415 $-1 #
edge $-1 $580 -40.956999483691952 $707 -32.090978451468445 $576 $708 forward 7 unknown #
coedge $-1 $408 $407 $583 $709 reversed $165 $-1 #
edge $-1 $710 2.1724019648727301e-014 $580 13.514060121573694 $574 $711 forward 7 unknown #
vertex $-1 $410 $712 #
straight-curve $-1 7.5255754081120543 -28.815129391319097 11.655776737202087 -1 0 0 I I #
coedge $-1 $573 $411 $414 $587 reversed $404 $-1 #
coedge $-1 $411 $573 $578 $709 forward $404 $-1 #
vertex $-1 $412 $713 #
straight-curve $-1 24.405060978927573 -37.681150423542604 45.002415997992571 0 0 1 I I #
straight-curve $-1 24.405060978927573 -37.681150423542618 1.4565859837315713 0 -0.65605901945558964 -0.75470958851134928 I I #
edge $-1 $707 5.6972406535206446 $416 24.405060978927573 $582 $714 forward 7 unknown #
point $-1 24.405060978927573 -37.681150423542604 11.655776737202087 #
point $-1 24.405060978927573 -28.815129391319097 11.655776737202087 #
edge $-1 $715 1 $715 0 $419 $-1 forward 7 unknown #
vertex $-1 $420 $716 #
ellipse-curve $-1 11.042332175065482 -31.519818788539439 5.053774771462388 0 -0.75470958851134928 0.65605901945558964 2 0 0 1 I I #
point $-1 13.042332175065482 -33.24813990743084 6.5561813604668284 #
edge $-1 $717 1 $717 0 $423 $-1 forward 7 unknown #
vertex $-1 $424 $718 #
ellipse-curve $-1 19.059969457382735 -31.519818788539439 5.053774771462388 0 -0.75470958851134928 0.65605901945558964 2 0 0 1 I I #
point $-1 21.059969457382735 -33.24813990743084 6.5561813604668284 #
plane-surface $-1 0 0 11.655776737202087 0 0 1 1 0 0 forward_v I I I I #
coedge $-1 $609 $608 $601 $719 forward $428 $-1 #
coedge $-1 $601 $430 $432 $605 reversed $284 $-1 #
coedge $-1 $430 $600 $599 $719 reversed $284 $-1 #
coedge $-1 $438 $433 $430 $603 forward $439 $-1 #
edge $-1 $606 -40.956999483691952 $720 -32.090978451468445 $602 $721 forward 7 unknown #
coedge $-1 $432 $431 $609 $722 reversed $179 $-1 #
edge $-1 $723 2.1724019648727301e-014 $606 13.514060121573694 $600 $724 forward 7 unknown #
vertex $-1 $434 $725 #
straight-curve $-1 22.972507653252663 -28.815129391319097 11.655776737202087 -1 0 0 I I #
coedge $-1 $599 $435 $438 $613 reversed $428 $-1 #
coedge $-1 $435 $599 $604 $722 forward $428 $-1 #
vertex $-1 $436 $726 #
straight-curve $-1 55.29892546920879 -37.681150423542604 45.002415997992571 0 0 1 I I #
straight-curve $-1 55.29892546920879 -37.681150423542618 1.4565859837315713 0 -0.65605901945558964 -0.75470958851134928 I I #
edge $-1 $720 36.591105143801862 $440 55.29892546920879 $608 $727 forward 7 unknown #
point $-1 55.29892546920879 -37.681150423542604 11.655776737202087 #
point $-1 55.29892546920879 -28.815129391319097 11.655776737202087 #
edge $-1 $728 1 $728 0 $443 $-1 forward 7 unknown #
vertex $-1 $444 $729 #
ellipse-curve $-1 41.936196665346699 -31.519818788539439 5.053774771462388 0 -0.75470958851134928 0.65605901945558964 2 0 0 1 I I #
point $-1 43.936196665346699 -33.24813990743084 6.5561813604668284 #
edge $-1 $730 1 $730 0 $447 $-1 forward 7 unknown #
vertex $-1 $448 $731 #
ellipse-curve $-1 49.953833947663952 -31.519818788539439 5.053774771462388 0 -0.75470958851134928 0.65605901945558964 2 0 0 1 I I #
point $-1 51.953833947663952 -33.24813990743084 6.5561813604668284 #
plane-surface $-1 0 0 11.655776737202087 0 0 1 1 0 0 forward_v I I I I #
coedge $-1 $635 $634 $627 $732 forward $452 $-1 #
coedge $-1 $627 $454 $456 $631 reversed $306 $-1 #
coedge $-1 $454 $626 $625 $732 reversed $306 $-1 #
coedge $-1 $462 $457 $454 $629 forward $463 $-1 #
edge $-1 $632 -16.497401655518601 $733 -6.0969206435096694 $628 $734 forward 7 unknown #
coedge $-1 $456 $455 $635 $735 reversed $193 $-1 #
edge $-1 $736 -75.362300847085208 $632 -59.81902565368339 $626 $737 forward 7 unknown #
vertex $-1 $458 $738 #
straight-curve $-1 -0.066161865435873324 27.280669411533665 11.655776737202093 1 0 0 I I #
coedge $-1 $625 $459 $462 $639 reversed $452 $-1 #
coedge $-1 $459 $625 $630 $735 forward $452 $-1 #
vertex $-1 $460 $739 #
straight-curve $-1 -6.7266981630115517 37.681150423542604 73.211246336795057 0 0 1 I I #
straight-curve $-1 -6.7266981630115517 -12.746070945743966 56.10997661220955 0 0.66913059716165679 -0.74314483375859142 I I #
edge $-1 $733 -6.4620507012680584 $464 6.7266981630115517 $634 $740 forward 7 unknown #
point $-1 -6.7266981630115517 37.681150423542604 11.655776737202087 #
point $-1 -6.7266981630115517 27.280669411533673 11.655776737202089 #
edge $-1 $741 1 $741 0 $467 $-1 forward 7 unknown #
vertex $-1 $468 $742 #
ellipse-curve $-1 -0.13232373087174665 25.553109070515198 -0.35749533813000234 0 0.74314483375859142 0.66913059716165679 3 0 0 1 I I #
point $-1 2.8676762691282534 32.480909917538135 5.8803244073697742 #
plane-surface $-1 67.484969634083072 0 0 -1 0 0 0 0 1 forward_v I I I I #
coedge $-1 $476 $474 $478 $651 reversed $321 $-1 #
edge $-1 $489 -11.655776737202087 $653 11.655776737202087 $488 $743 forward 7 unknown #
vertex $-1 $651 $744 #
straight-curve $-1 -67.484969634083072 -37.681150423542604 0 0 0 -1 I I #
edge $-1 $649 -37.681150423542604 $653 37.681150423542604 $647 $745 forward 7 unknown #
straight-curve $-1 0 -37.681150423542604 -11.655776737202087 -1 0 0 I I #
vertex $-1 $481 $746 #
straight-curve $-1 0 37.681150423542604 -11.655776737202087 1 0 0 I I #
point $-1 67.484969634083072 37.681150423542604 -11.655776737202087 #
point $-1 67.484969634083072 -37.681150423542604 -11.655776737202087 #
straight-curve $-1 -67.484969634083072 0 11.655776737202087 0 -1 0 I I #
point $-1 -67.484969634083072 37.681150423542604 11.655776737202087 #
point $-1 -67.484969634083072 -37.681150423542604 11.655776737202087 #
straight-curve $-1 67.484969634083072 -37.681150423542604 0 0 0 -1 I I #
straight-curve $-1 67.484969634083072 37.681150423542604 0 0 0 -1 I I #
plane-surface $-1 0 -37.681150423542604 0 0 1 0 0 0 1 forward_v I I I I #
coedge $-1 $747 $501 $513 $674 reversed $340 $-1 #
coedge $-1 $501 $747 $516 $676 reversed $340 $-1 #
edge $-1 $748 -67.484969634083072 $510 -56.090488327041797 $506 $749 forward 7 unknown #
straight-curve $-1 -56.090488327041797 -18.078042608765131 11.655776737202087 0 1 0 I I #
coedge $-1 $513 $504 $507 $670 forward $499 $-1 #
straight-curve $-1 -56.090488327041797 -18.078042608765131 -11.655776737202087 0 -1 0 I I #
coedge $-1 $507 $506 $747 $750 forward $508 $-1 #
edge $-1 $509 56.090488327041797 $751 67.484969634083072 $507 $752 forward 7 unknown #
point $-1 -56.090488327041797 -37.681150423542604 -11.655776737202087 #
point $-1 -56.090488327041797 -37.681150423542604 11.655776737202087 #
straight-curve $-1 -67.484969634083072 -34.631020011517919 0 0 0 -1 I I #
edge $-1 $751 -37.681150423542604 $514 -34.631020011517919 $663 $753 forward 7 unknown #
point $-1 -67.484969634083072 -34.631020011517919 -11.655776737202087 #
edge $-1 $517 34.631020011517919 $748 37.681150423542604 $664 $754 forward 7 unknown #
point $-1 -67.484969634083072 -34.631020011517919 11.655776737202087 #
coedge $-1 $523 $522 $530 $683 forward $218 $-1 #
edge $-1 $686 -56.090488327041797 $526 -37.382668001634862 $525 $755 forward 7 unknown #
straight-curve $-1 -37.382668001634862 -69.772128875011049 11.655776737202089 0 1 0 I I #
point $-1 -37.382668001634862 -37.681150423542604 11.655776737202087 #
straight-curve $-1 -23.368289082169163 -28.815129391319097 11.655776737202087 -1 0 0 I I #
edge $-1 $531 -40.956999483691952 $686 -32.090978451468445 $678 $756 forward 7 unknown #
point $-1 -56.09048832704179 -28.815129391319097 11.655776737202087 #
point $-1 -37.382668001634862 -28.815129391319097 11.655776737202087 #
vertex $-1 $679 $757 #
straight-curve $-1 -56.090488327041797 -37.681150423542604 0 0 0 -1 I I #
vertex $-1 $538 $758 #
point $-1 -48.745396805496952 -31.519818788539439 5.053774771462388 #
vertex $-1 $542 $759 #
point $-1 -40.727759523179699 -31.519818788539439 5.053774771462388 #
coedge $-1 $557 $556 $549 $693 forward $546 $-1 #
edge $-1 $694 33.346639260790482 $697 43.545830014260986 $692 $760 forward 7 unknown #
vertex $-1 $561 $761 #
straight-curve $-1 -25.196623836760573 -69.772128875011049 11.655776737202089 0 -1 0 I I #
edge $-1 $697 -17.275266999732018 $558 1.4325533256749097 $557 $762 forward 7 unknown #
vertex $-1 $696 $763 #
straight-curve $-1 -25.196623836760573 -37.681150423542618 1.4565859837315713 0 0.65605901945558964 0.75470958851134928 I I #
point $-1 -25.196623836760573 -28.815129391319097 11.655776737202087 #
point $-1 -6.4888035113536446 -37.681150423542604 1.4565859837315878 #
straight-curve $-1 0 -37.681150423542604 11.655776737202087 1 0 0 I I #
vertex $-1 $564 $764 #
point $-1 -17.851532315215735 -31.519818788539439 5.053774771462388 #
vertex $-1 $568 $765 #
point $-1 -9.8338950328984822 -31.519818788539439 5.053774771462388 #
edge $-1 $707 33.346639260790482 $710 43.545830014260986 $573 $766 forward 7 unknown #
vertex $-1 $587 $767 #
straight-curve $-1 5.6972406535206446 -69.772128875011049 11.655776737202089 0 -1 0 I I #
edge $-1 $710 -1.8283347545914097 $584 16.879485570815518 $583 $768 forward 7 unknown #
vertex $-1 $709 $769 #
straight-curve $-1 5.6972406535206446 -37.681150423542618 1.4565859837315713 0 0.65605901945558964 0.75470958851134928 I I #
point $-1 5.6972406535206446 -28.815129391319097 11.655776737202087 #
point $-1 24.405060978927573 -37.681150423542604 1.4565859837315878 #
straight-curve $-1 0 -37.681150423542604 11.655776737202087 1 0 0 I I #
vertex $-1 $590 $770 #
point $-1 13.042332175065482 -31.519818788539439 5.053774771462388 #
vertex $-1 $594 $771 #
point $-1 21.059969457382735 -31.519818788539439 5.053774771462388 #
edge $-1 $720 33.346639260790482 $723 43.545830014260986 $599 $772 forward 7 unknown #
vertex $-1 $613 $773 #
straight-curve $-1 36.591105143801862 -69.772128875011049 11.655776737202089 0 -1 0 I I #
edge $-1 $723 13.618597490549199 $610 32.326417815956127 $609 $774 forward 7 unknown #
vertex $-1 $722 $775 #
straight-curve $-1 36.591105143801862 -37.681150423542618 1.4565859837315713 0 0.65605901945558964 0.75470958851134928 I I #
point $-1 36.591105143801862 -28.815129391319097 11.655776737202087 #
point $-1 55.29892546920879 -37.681150423542604 1.4565859837315878 #
straight-curve $-1 0 -37.681150423542604 11.655776737202087 1 0 0 I I #
vertex $-1 $616 $776 #
point $-1 43.936196665346699 -31.519818788539439 5.053774771462388 #
vertex $-1 $620 $777 #
point $-1 51.953833947663952 -31.519818788539439 5.053774771462388 #
edge $-1 $733 61.555469599592968 $736 73.106374259257606 $625 $778 forward 7 unknown #
vertex $-1 $639 $779 #
straight-curve $-1 6.4620507012680584 43.778071067052274 11.655776737202089 0 1 0 I I #
edge $-1 $736 -6.5282125667039317 $636 6.6605362975756783 $635 $780 forward 7 unknown #
vertex $-1 $735 $781 #
straight-curve $-1 6.4620507012680584 -12.746070945743966 56.10997661220955 0 -0.66913059716165679 0.74314483375859142 I I #
point $-1 6.4620507012680584 27.280669411533673 11.655776737202089 #
point $-1 -6.7266981630115517 37.681150423542604 0.10487207753745054 #
straight-curve $-1 0 37.681150423542604 11.655776737202087 -1 0 0 I I #
vertex $-1 $642 $782 #
point $-1 2.8676762691282534 25.553109070515198 -0.35749533813000234 #
straight-curve $-1 -67.484969634083072 37.681150423542604 0 0 0 -1 I I #
point $-1 -67.484969634083072 -37.681150423542604 -11.655776737202087 #
straight-curve $-1 -67.484969634083072 0 -11.655776737202087 0 1 0 I I #
point $-1 -67.484969634083072 37.681150423542604 -11.655776737202087 #
coedge $-1 $664 $663 $669 $750 reversed $340 $-1 #
vertex $-1 $676 $783 #
straight-curve $-1 0 -37.681150423542604 11.655776737202087 1 0 0 I I #
edge $-1 $748 -11.655776737202087 $751 11.655776737202087 $747 $784 forward 7 unknown #
vertex $-1 $674 $785 #
straight-curve $-1 0 -37.681150423542604 -11.655776737202087 -1 0 0 I I #
straight-curve $-1 -67.484969634083072 0 -11.655776737202087 0 1 0 I I #
straight-curve $-1 -67.484969634083072 0 11.655776737202087 0 -1 0 I I #
straight-curve $-1 0 -37.681150423542604 11.655776737202087 1 0 0 I I #
straight-curve $-1 -56.09048832704179 -69.772128875011049 11.655776737202089 0 -1 0 I I #
point $-1 -56.090488327041797 -37.681150423542604 11.655776737202087 #
point $-1 -50.745396805496952 -30.010399611516739 3.7416567325512085 #
point $-1 -42.727759523179699 -30.010399611516739 3.7416567325512085 #
straight-curve $-1 -25.196623836760573 -37.681150423542604 45.002415997992571 0 0 -1 I I #
point $-1 -25.196623836760573 -37.681150423542604 11.655776737202087 #
straight-curve $-1 -7.9213568370285543 -37.681150423542604 1.456585983731584 1 0 0 I I #
point $-1 -25.196623836760573 -37.681150423542604 1.4565859837315878 #
point $-1 -19.851532315215735 -30.010399611516739 3.7416567325512085 #
point $-1 -11.833895032898482 -30.010399611516739 3.7416567325512085 #
straight-curve $-1 5.6972406535206446 -37.681150423542604 45.002415997992571 0 0 -1 I I #
point $-1 5.6972406535206446 -37.681150423542604 11.655776737202087 #
straight-curve $-1 7.5255754081120543 -37.681150423542604 1.456585983731584 1 0 0 I I #
point $-1 5.6972406535206446 -37.681150423542604 1.4565859837315878 #
point $-1 11.042332175065482 -30.010399611516739 3.7416567325512085 #
point $-1 19.059969457382735 -30.010399611516739 3.7416567325512085 #
straight-curve $-1 36.591105143801862 -37.681150423542604 45.002415997992571 0 0 -1 I I #
point $-1 36.591105143801862 -37.681150423542604 11.655776737202087 #
straight-curve $-1 22.972507653252663 -37.681150423542604 1.456585983731584 1 0 0 I I #
point $-1 36.591105143801862 -37.681150423542604 1.4565859837315878 #
point $-1 41.936196665346699 -30.010399611516739 3.7416567325512085 #
point $-1 49.953833947663952 -30.010399611516739 3.7416567325512085 #
straight-curve $-1 6.4620507012680584 37.681150423542604 73.211246336795057 0 0 -1 I I #
point $-1 6.4620507012680584 37.681150423542604 11.655776737202087 #
straight-curve $-1 -0.066161865435873324 37.681150423542604 0.10487207753745054 -1 0 0 I I #
point $-1 6.4620507012680584 37.681150423542604 0.10487207753745054 #
point $-1 -0.13232373087174665 23.323674569239422 -2.3648871296149725 #
point $-1 -67.484969634083072 -37.681150423542604 11.655776737202087 #
straight-curve $-1 -67.484969634083072 -37.681150423542604 0 0 0 -1 I I #
point $-1 -67.484969634083072 -37.681150423542604 -11.655776737202087 #
End-of-ACIS-data 